500 0 5 0           
7 Unknown 11 ACIS 5.0 NT 24 Fri Mar 26 15:52:29 1999 
-1 9.9999999999999995e-007 1e-010 
body $-1 $5 $-1 $6 #
body $-1 $7 $-1 $8 #
body $-1 $9 $-1 $10 #
body $-1 $11 $-1 $12 #
body $-1 $13 $-1 $14 #
lump $-1 $-1 $15 $0 #
transform $-1 1 0 0 0 1 0 0 0 1 56.936552018799404 29.944904382628124 7.8423170405922118 1 rotate no_reflect no_shear #
lump $-1 $-1 $16 $1 #
transform $-1 1 0 0 0 1 0 0 0 1 56.936552018799404 29.944904382628124 7.8423170405922118 1 rotate no_reflect no_shear #
lump $-1 $-1 $17 $2 #
transform $-1 1 0 0 0 1 0 0 0 1 56.936552018799404 29.944904382628124 7.8423170405922118 1 rotate no_reflect no_shear #
lump $-1 $-1 $18 $3 #
transform $-1 1 0 0 0 1 0 0 0 1 56.936552018799404 29.944904382628124 7.8423170405922118 1 rotate no_reflect no_shear #
lump $-1 $-1 $19 $4 #
transform $-1 1 0 0 0 1 0 0 0 1 56.936552018799404 29.944904382628124 7.8423170405922118 1 rotate no_reflect no_shear #
shell $-1 $-1 $-1 $20 $-1 $5 #
shell $-1 $-1 $-1 $21 $-1 $7 #
shell $-1 $-1 $-1 $22 $-1 $9 #
shell $-1 $-1 $-1 $23 $-1 $11 #
shell $-1 $-1 $-1 $24 $-1 $13 #
face $-1 $25 $26 $15 $-1 $27 forward single #
face $-1 $28 $29 $16 $-1 $30 forward single #
face $-1 $31 $32 $17 $-1 $33 reversed single #
face $-1 $34 $35 $18 $-1 $36 forward single #
face $-1 $37 $38 $19 $-1 $39 forward single #
face $-1 $40 $41 $15 $-1 $42 reversed single #
loop $-1 $-1 $43 $20 #
plane-surface $-1 0 0 7.8423170405922118 0 0 1 1 0 0 forward_v I I I I #
face $-1 $44 $45 $16 $-1 $46 reversed single #
loop $-1 $-1 $47 $21 #
plane-surface $-1 -56.936552018799404 0 0 1 0 0 0 0 -1 forward_v I I I I #
face $-1 $48 $49 $17 $-1 $50 reversed single #
loop $-1 $-1 $51 $22 #
plane-surface $-1 62.556799913033743 23.180513046109539 164.71088834439902 0 1 0 0.73135370988377701 0 0.68199835119979291 forward_v I I I I #
face $-1 $52 $53 $18 $-1 $54 forward single #
loop $-1 $55 $56 $23 #
cone-surface $-1 54.671241738970551 25.113196285114846 5.4642103701336842 -0.73135370988377701 0 -0.68199835119979291 0.17049958779994823 0 -0.18283842747094425 1 I I 0 1 0.25 forward I I I I #
face $-1 $57 $58 $19 $-1 $59 forward single #
loop $-1 $60 $61 $24 #
cone-surface $-1 54.671241738970551 28.01222114362281 5.4642103701336842 -0.73135370988377701 0 -0.68199835119979291 0.17049958779994823 0 -0.18283842747094425 1 I I 0 1 0.25 forward I I I I #
face $-1 $62 $63 $15 $-1 $64 reversed single #
loop $-1 $-1 $65 $25 #
plane-surface $-1 0 0 -7.8423170405922118 0 0 1 1 0 0 forward_v I I I I #
coedge $-1 $66 $67 $68 $69 forward $26 $-1 #
face $-1 $70 $71 $16 $-1 $72 forward single #
loop $-1 $-1 $73 $28 #
plane-surface $-1 0 29.944904382628124 0 0 -1 0 0 0 -1 forward_v I I I I #
coedge $-1 $74 $75 $76 $77 forward $29 $-1 #
face $-1 $78 $79 $17 $-1 $80 forward single #
loop $-1 $-1 $81 $31 #
plane-surface $-1 -20.724717180845445 26.562708714368831 87.049619144754161 0.73135370988377701 0 0.68199835119979291 0.68199835119979291 0 -0.73135370988377701 forward_v I I I I #
coedge $-1 $82 $83 $84 $85 reversed $32 $-1 #
face $-1 $-1 $86 $18 $-1 $87 forward single #
loop $-1 $88 $89 $34 #
cone-surface $-1 54.214145670293192 25.113196285114846 5.0379614006338134 -0.73135370988377701 0 -0.68199835119979291 0.085249793899974113 0 -0.091419213735472127 1 I I -0.70710678118654746 0.70710678118654746 0.125 forward I I I I #
loop $-1 $-1 $90 $23 #
coedge $-1 $56 $56 $91 $92 reversed $35 $-1 #
face $-1 $-1 $93 $19 $-1 $94 forward single #
loop $-1 $95 $96 $37 #
cone-surface $-1 54.214145670293192 28.01222114362281 5.0379614006338134 -0.73135370988377701 0 -0.68199835119979291 0.085249793899974113 0 -0.091419213735472127 1 I I -0.70710678118654746 0.70710678118654746 0.125 forward I I I I #
loop $-1 $-1 $97 $24 #
coedge $-1 $61 $61 $98 $99 reversed $38 $-1 #
face $-1 $100 $101 $15 $-1 $102 reversed single #
loop $-1 $-1 $103 $40 #
plane-surface $-1 0 -29.944904382628124 0 0 1 0 0 0 1 forward_v I I I I #
coedge $-1 $104 $105 $106 $107 forward $41 $-1 #
coedge $-1 $108 $43 $109 $110 forward $26 $-1 #
coedge $-1 $43 $108 $111 $112 forward $26 $-1 #
coedge $-1 $113 $114 $43 $69 reversed $115 $-1 #
edge $-1 $116 -29.944904382628124 $117 29.944904382628124 $68 $118 forward 7 unknown #
face $-1 $119 $120 $16 $-1 $121 reversed single #
loop $-1 $-1 $76 $44 #
plane-surface $-1 -60.310375829877088 0 -0.92121780635297679 0 0 1 1 0 0 forward_v I I I I #
coedge $-1 $122 $123 $75 $124 forward $45 $-1 #
coedge $-1 $125 $47 $126 $127 reversed $29 $-1 #
coedge $-1 $47 $125 $73 $124 reversed $29 $-1 #
coedge $-1 $128 $129 $47 $77 reversed $71 $-1 #
edge $-1 $130 -29.944904382628124 $131 29.944904382628124 $76 $132 forward 7 unknown #
face $-1 $133 $134 $17 $-1 $135 reversed single #
loop $-1 $-1 $136 $48 #
plane-surface $-1 0 0 7.8423170405922118 0 0 1 1 0 0 forward_v I I I I #
coedge $-1 $137 $138 $139 $140 reversed $49 $-1 #
coedge $-1 $83 $51 $141 $142 reversed $32 $-1 #
coedge $-1 $51 $82 $137 $143 reversed $32 $-1 #
coedge $-1 $139 $144 $51 $85 forward $134 $-1 #
edge $-1 $145 74.513127131607305 $146 78.587342121324525 $84 $147 forward 7 unknown #
loop $-1 $-1 $91 $52 #
plane-surface $-1 -20.724717180845445 26.562708714368831 87.049619144754161 0.73135370988377701 0 0.68199835119979291 0.68199835119979291 0 -0.73135370988377701 forward_v I I I I #
loop $-1 $-1 $148 $34 #
coedge $-1 $89 $89 $90 $149 reversed $53 $-1 #
coedge $-1 $90 $90 $89 $149 forward $55 $-1 #
coedge $-1 $91 $91 $56 $92 forward $86 $-1 #
edge $-1 $150 0 $150 6.2831853071796004 $91 $151 forward 7 unknown #
loop $-1 $-1 $98 $57 #
plane-surface $-1 -20.724717180845445 26.562708714368831 87.049619144754161 0.73135370988377701 0 0.68199835119979291 0.68199835119979291 0 -0.73135370988377701 forward_v I I I I #
loop $-1 $-1 $152 $37 #
coedge $-1 $96 $96 $97 $153 reversed $58 $-1 #
coedge $-1 $97 $97 $96 $153 forward $60 $-1 #
coedge $-1 $98 $98 $61 $99 forward $93 $-1 #
edge $-1 $154 0 $154 6.2831853071796004 $98 $155 forward 7 unknown #
face $-1 $156 $157 $15 $-1 $158 reversed single #
loop $-1 $-1 $159 $62 #
plane-surface $-1 -56.936552018799404 0 0 1 0 0 0 0 -1 forward_v I I I I #
coedge $-1 $160 $111 $161 $162 forward $63 $-1 #
coedge $-1 $163 $65 $160 $164 forward $41 $-1 #
coedge $-1 $65 $163 $165 $166 forward $41 $-1 #
coedge $-1 $114 $113 $65 $107 reversed $115 $-1 #
edge $-1 $167 -29.944904382628124 $168 29.944904382628124 $106 $169 forward 7 unknown #
coedge $-1 $67 $66 $170 $171 forward $26 $-1 #
coedge $-1 $172 $173 $66 $110 reversed $157 $-1 #
edge $-1 $117 -56.936552018799404 $174 56.936552018799404 $109 $175 forward 7 unknown #
coedge $-1 $103 $176 $67 $112 reversed $63 $-1 #
edge $-1 $177 -56.936552018799404 $116 56.936552018799404 $111 $178 forward 7 unknown #
coedge $-1 $106 $68 $176 $179 forward $115 $-1 #
coedge $-1 $68 $106 $172 $180 reversed $115 $-1 #
loop $-1 $-1 $113 $156 #
vertex $-1 $69 $181 #
vertex $-1 $69 $182 #
straight-curve $-1 56.936552018799404 0 7.8423170405922118 0 1 0 I I #
face $-1 $183 $184 $16 $-1 $185 reversed single #
loop $-1 $-1 $186 $70 #
plane-surface $-1 -60.310375829877088 0 -3.9212178063529768 0 0 1 1 0 0 forward_v I I I I #
coedge $-1 $187 $73 $188 $189 reversed $45 $-1 #
coedge $-1 $73 $187 $128 $190 reversed $45 $-1 #
edge $-1 $130 0.92121780635297679 $191 3.9212178063529768 $73 $192 forward 7 unknown #
coedge $-1 $75 $74 $186 $193 forward $29 $-1 #
coedge $-1 $194 $195 $74 $127 forward $196 $-1 #
edge $-1 $197 -3.9212178063529768 $131 -0.92121780635297679 $126 $198 forward 7 unknown #
coedge $-1 $199 $76 $123 $190 forward $71 $-1 #
coedge $-1 $76 $199 $194 $200 forward $71 $-1 #
vertex $-1 $124 $201 #
vertex $-1 $200 $202 #
straight-curve $-1 -56.936552018799404 0 -0.92121780635297679 0 -1 0 I I #
face $-1 $-1 $203 $17 $-1 $204 reversed single #
loop $-1 $-1 $84 $78 #
plane-surface $-1 56.936552018799404 0 0 -1 0 0 0 0 1 forward_v I I I I #
coedge $-1 $141 $205 $206 $207 forward $79 $-1 #
coedge $-1 $206 $81 $83 $143 forward $49 $-1 #
coedge $-1 $81 $206 $208 $209 reversed $49 $-1 #
coedge $-1 $210 $84 $81 $140 forward $134 $-1 #
edge $-1 $146 9.8991586889251231 $211 16.663550025443708 $139 $212 forward 7 unknown #
coedge $-1 $213 $136 $82 $142 forward $79 $-1 #
edge $-1 $214 21.858885212508589 $145 25.658152062282532 $141 $215 forward 7 unknown #
edge $-1 $146 -113.87310403759878 $214 -108.30231806269113 $83 $216 forward 7 unknown #
coedge $-1 $84 $210 $213 $217 reversed $134 $-1 #
vertex $-1 $217 $218 #
vertex $-1 $85 $219 #
straight-curve $-1 56.936552018799404 23.180513046109539 82.355444172199512 0 0 -1 I I #
coedge $-1 $148 $148 $-1 $220 reversed $88 $-1 #
edge $-1 $221 0 $221 6.2831853071796004 $89 $222 forward 7 unknown #
vertex $-1 $92 $223 #
ellipse-curve $-1 55.036918593912439 25.113196285114846 5.8052095457335806 0.73135370988377701 0 0.68199835119979291 0.17049958779994823 0 -0.18283842747094425 1 I I #
coedge $-1 $152 $152 $-1 $224 reversed $95 $-1 #
edge $-1 $225 0 $225 6.2831853071796004 $96 $226 forward 7 unknown #
vertex $-1 $99 $227 #
ellipse-curve $-1 55.036918593912439 28.01222114362281 5.8052095457335806 0.73135370988377701 0 0.68199835119979291 0.17049958779994823 0 -0.18283842747094425 1 I I #
face $-1 $-1 $115 $15 $-1 $228 reversed single #
loop $-1 $-1 $172 $100 #
plane-surface $-1 0 29.944904382628124 0 0 -1 0 0 0 -1 forward_v I I I I #
coedge $-1 $229 $170 $173 $230 forward $101 $-1 #
coedge $-1 $176 $103 $104 $164 reversed $63 $-1 #
coedge $-1 $170 $229 $103 $162 reversed $101 $-1 #
edge $-1 $177 -7.8423170405922118 $231 7.8423170405922118 $161 $232 forward 7 unknown #
coedge $-1 $105 $104 $229 $233 forward $41 $-1 #
edge $-1 $168 -56.936552018799404 $231 56.936552018799404 $160 $234 forward 7 unknown #
coedge $-1 $173 $172 $105 $166 reversed $157 $-1 #
edge $-1 $235 -56.936552018799404 $167 56.936552018799404 $165 $236 forward 7 unknown #
vertex $-1 $107 $237 #
vertex $-1 $179 $238 #
straight-curve $-1 56.936552018799404 0 -7.8423170405922118 0 -1 0 I I #
coedge $-1 $159 $161 $108 $171 reversed $101 $-1 #
edge $-1 $174 -29.944904382628124 $177 29.944904382628124 $170 $239 forward 7 unknown #
coedge $-1 $165 $109 $114 $180 forward $157 $-1 #
coedge $-1 $109 $165 $159 $230 reversed $157 $-1 #
vertex $-1 $110 $240 #
straight-curve $-1 0 29.944904382628124 7.8423170405922118 -1 0 0 I I #
coedge $-1 $111 $160 $113 $179 reversed $63 $-1 #
vertex $-1 $171 $241 #
straight-curve $-1 0 -29.944904382628124 7.8423170405922118 1 0 0 I I #
edge $-1 $116 -7.8423170405922118 $168 7.8423170405922118 $113 $242 forward 7 unknown #
edge $-1 $117 -7.8423170405922118 $167 7.8423170405922118 $114 $243 forward 7 unknown #
point $-1 56.936552018799404 -29.944904382628124 7.8423170405922118 #
point $-1 56.936552018799404 29.944904382628124 7.8423170405922118 #
face $-1 $-1 $196 $16 $-1 $244 reversed single #
loop $-1 $-1 $245 $119 #
plane-surface $-1 -63.684199640954773 0 -2.4212178063529768 1 0 0 0 0 -1 forward_v I I I I #
coedge $-1 $246 $188 $125 $193 reversed $120 $-1 #
coedge $-1 $123 $122 $245 $247 reversed $45 $-1 #
coedge $-1 $186 $248 $122 $189 forward $120 $-1 #
edge $-1 $249 -3.3738238110776848 $191 3.3738238110776848 $122 $250 forward 7 unknown #
edge $-1 $130 -3.3738238110776848 $251 3.3738238110776848 $123 $252 forward 7 unknown #
vertex $-1 $124 $253 #
straight-curve $-1 -56.936552018799404 29.944904382628124 0 0 0 -1 I I #
edge $-1 $197 -29.944904382628124 $191 29.944904382628124 $186 $254 forward 7 unknown #
coedge $-1 $255 $126 $129 $200 reversed $196 $-1 #
coedge $-1 $126 $255 $246 $256 reversed $196 $-1 #
loop $-1 $-1 $126 $183 #
vertex $-1 $127 $257 #
straight-curve $-1 -56.936552018799404 -29.944904382628124 0 0 0 1 I I #
coedge $-1 $129 $128 $258 $259 forward $71 $-1 #
edge $-1 $260 -3.3738238110776848 $131 3.3738238110776848 $194 $261 forward 7 unknown #
point $-1 -56.936552018799404 29.944904382628124 -0.92121780635297679 #
point $-1 -56.936552018799404 -29.944904382628124 -0.92121780635297679 #
loop $-1 $-1 $208 $133 #
plane-surface $-1 0 29.944904382628124 0 0 -1 0 0 0 -1 forward_v I I I I #
coedge $-1 $136 $213 $262 $263 forward $79 $-1 #
coedge $-1 $138 $137 $136 $207 reversed $49 $-1 #
edge $-1 $264 -16.663550025443708 $214 -9.8991586889251231 $136 $265 forward 7 unknown #
coedge $-1 $262 $266 $138 $209 forward $203 $-1 #
edge $-1 $211 -74.973961611646558 $264 -69.403175636738922 $208 $267 forward 7 unknown #
coedge $-1 $144 $139 $266 $268 reversed $134 $-1 #
vertex $-1 $140 $269 #
straight-curve $-1 56.936552018799397 13.281354357184416 3.7681020508749938 0 1 0 I I #
coedge $-1 $205 $141 $144 $217 forward $79 $-1 #
vertex $-1 $142 $270 #
straight-curve $-1 31.278399956516871 23.180513046109539 7.8423170405922065 1 0 0 I I #
straight-curve $-1 -20.724717180845445 23.180513046109539 87.049619144754161 -0.68199835119979291 0 0.73135370988377701 I I #
edge $-1 $145 23.180513046109539 $271 29.944904382628124 $144 $272 forward 7 unknown #
point $-1 56.936552018799404 23.180513046109539 7.8423170405922118 #
point $-1 56.936552018799404 23.180513046109539 3.7681020508749867 #
edge $-1 $273 1 $273 0 $148 $-1 forward 7 unknown #
vertex $-1 $149 $274 #
ellipse-curve $-1 54.305564884028662 25.113196285114846 5.1232111945337877 0.73135370988377701 0 0.68199835119979291 0.17049958779994823 0 -0.18283842747094425 1 I I #
point $-1 55.207418181712391 25.113196285114846 5.6223711182626364 #
edge $-1 $275 1 $275 0 $152 $-1 forward 7 unknown #
vertex $-1 $153 $276 #
ellipse-curve $-1 54.305564884028662 28.01222114362281 5.1232111945337877 0.73135370988377701 0 0.68199835119979291 0.17049958779994823 0 -0.18283842747094425 1 I I #
point $-1 55.207418181712391 28.01222114362281 5.6223711182626364 #
plane-surface $-1 56.936552018799404 0 0 -1 0 0 0 0 1 forward_v I I I I #
coedge $-1 $161 $159 $163 $233 reversed $101 $-1 #
edge $-1 $174 -7.8423170405922118 $235 7.8423170405922118 $173 $277 forward 7 unknown #
vertex $-1 $233 $278 #
straight-curve $-1 -56.936552018799404 -29.944904382628124 0 0 0 -1 I I #
edge $-1 $231 -29.944904382628124 $235 29.944904382628124 $229 $279 forward 7 unknown #
straight-curve $-1 0 -29.944904382628124 -7.8423170405922118 -1 0 0 I I #
vertex $-1 $166 $280 #
straight-curve $-1 0 29.944904382628124 -7.8423170405922118 1 0 0 I I #
point $-1 56.936552018799404 29.944904382628124 -7.8423170405922118 #
point $-1 56.936552018799404 -29.944904382628124 -7.8423170405922118 #
straight-curve $-1 -56.936552018799404 0 7.8423170405922118 0 -1 0 I I #
point $-1 -56.936552018799404 29.944904382628124 7.8423170405922118 #
point $-1 -56.936552018799404 -29.944904382628124 7.8423170405922118 #
straight-curve $-1 56.936552018799404 -29.944904382628124 0 0 0 -1 I I #
straight-curve $-1 56.936552018799404 29.944904382628124 0 0 0 -1 I I #
plane-surface $-1 0 -29.944904382628124 0 0 1 0 0 0 1 forward_v I I I I #
coedge $-1 $281 $258 $187 $247 forward $184 $-1 #
coedge $-1 $248 $186 $195 $256 forward $120 $-1 #
edge $-1 $251 -1.5 $249 1.5 $187 $282 forward 7 unknown #
coedge $-1 $188 $246 $281 $283 forward $120 $-1 #
vertex $-1 $189 $284 #
straight-curve $-1 -60.310375829877088 29.944904382628124 -3.9212178063529768 1 0 0 I I #
vertex $-1 $190 $285 #
straight-curve $-1 -60.310375829877088 29.944904382628124 -0.92121780635297679 -1 0 0 I I #
point $-1 -56.936552018799404 29.944904382628124 -3.9212178063529768 #
straight-curve $-1 -56.936552018799404 0 -3.9212178063529768 0 1 0 I I #
coedge $-1 $195 $194 $286 $287 forward $196 $-1 #
edge $-1 $197 -3.3738238110776848 $288 3.3738238110776848 $195 $289 forward 7 unknown #
point $-1 -56.936552018799404 -29.944904382628124 -3.9212178063529768 #
coedge $-1 $245 $286 $199 $259 reversed $184 $-1 #
edge $-1 $251 -29.944904382628124 $260 29.944904382628124 $258 $290 forward 7 unknown #
vertex $-1 $259 $291 #
straight-curve $-1 -60.310375829877088 -29.944904382628124 -0.92121780635297679 1 0 0 I I #
coedge $-1 $266 $208 $205 $263 reversed $203 $-1 #
edge $-1 $271 -56.936552018799404 $264 -53.137285169025461 $262 $292 forward 7 unknown #
vertex $-1 $209 $293 #
straight-curve $-1 53.137285169025461 13.281354357184416 7.8423170405922065 0 -1 0 I I #
coedge $-1 $208 $262 $210 $268 forward $203 $-1 #
straight-curve $-1 5.804433816739877 29.944904382628124 58.600587020236581 -0.68199835119979291 0 0.73135370988377701 I I #
edge $-1 $271 -7.8423170405922118 $211 -3.7681020508749867 $210 $294 forward 7 unknown #
point $-1 56.936552018799404 29.944904382628124 3.7681020508749867 #
point $-1 53.137285169025461 23.180513046109539 7.8423170405922065 #
vertex $-1 $217 $295 #
straight-curve $-1 56.936552018799404 0 7.8423170405922118 0 1 0 I I #
vertex $-1 $220 $296 #
point $-1 54.476064471828614 25.113196285114846 4.9403727670628435 #
vertex $-1 $224 $297 #
point $-1 54.476064471828614 28.01222114362281 4.9403727670628435 #
straight-curve $-1 -56.936552018799404 29.944904382628124 0 0 0 -1 I I #
point $-1 -56.936552018799404 -29.944904382628124 -7.8423170405922118 #
straight-curve $-1 -56.936552018799404 0 -7.8423170405922118 0 1 0 I I #
point $-1 -56.936552018799404 29.944904382628124 -7.8423170405922118 #
coedge $-1 $286 $245 $248 $283 reversed $184 $-1 #
straight-curve $-1 -63.684199640954773 29.944904382628124 -2.4212178063529768 0 0 -1 I I #
edge $-1 $288 -29.944904382628124 $249 29.944904382628124 $281 $298 forward 7 unknown #
point $-1 -63.684199640954773 29.944904382628124 -3.9212178063529768 #
point $-1 -63.684199640954773 29.944904382628124 -0.92121780635297679 #
coedge $-1 $258 $281 $255 $287 reversed $184 $-1 #
edge $-1 $260 -1.5 $288 1.5 $286 $299 forward 7 unknown #
vertex $-1 $283 $300 #
straight-curve $-1 -60.310375829877088 -29.944904382628124 -3.9212178063529768 -1 0 0 I I #
straight-curve $-1 -63.684199640954773 0 -0.92121780635297679 0 -1 0 I I #
point $-1 -63.684199640954773 -29.944904382628124 -0.92121780635297679 #
straight-curve $-1 0 29.944904382628124 7.8423170405922118 -1 0 0 I I #
point $-1 53.137285169025461 29.944904382628124 7.8423170405922065 #
straight-curve $-1 56.936552018799404 29.944904382628124 0 0 0 -1 I I #
point $-1 56.936552018799404 29.944904382628124 7.8423170405922118 #
point $-1 54.122726456557722 25.113196285114846 4.952711606733839 #
point $-1 54.122726456557722 28.01222114362281 4.952711606733839 #
straight-curve $-1 -63.684199640954773 0 -3.9212178063529768 0 1 0 I I #
straight-curve $-1 -63.684199640954773 -29.944904382628124 -2.4212178063529768 0 0 -1 I I #
point $-1 -63.684199640954773 -29.944904382628124 -3.9212178063529768 #
End-of-ACIS-data 