500 0 7 0           
7 Unknown 11 ACIS 5.0 NT 24 Thu Mar 25 15:12:36 1999 
-1 9.9999999999999995e-007 1e-010 
body $-1 $7 $-1 $8 #
body $-1 $9 $-1 $10 #
body $-1 $11 $-1 $12 #
body $-1 $13 $-1 $14 #
body $-1 $15 $-1 $16 #
body $-1 $17 $-1 $18 #
body $-1 $19 $-1 $20 #
lump $-1 $-1 $21 $0 #
transform $-1 1 0 0 0 1 0 0 0 1 63.754387035737174 31.550706926340624 12.690573050562584 1 rotate no_reflect no_shear #
lump $-1 $-1 $22 $1 #
transform $-1 1 0 0 0 1 0 0 0 1 63.754387035737174 31.550706926340624 12.690573050562584 1 rotate no_reflect no_shear #
lump $-1 $-1 $23 $2 #
transform $-1 1 0 0 0 1 0 0 0 1 63.754387035737174 31.550706926340624 12.690573050562584 1 rotate no_reflect no_shear #
lump $-1 $-1 $24 $3 #
transform $-1 1 0 0 0 1 0 0 0 1 63.754387035737174 31.550706926340624 12.690573050562584 1 rotate no_reflect no_shear #
lump $-1 $-1 $25 $4 #
transform $-1 1 0 0 0 1 0 0 0 1 63.754387035737174 31.550706926340624 12.690573050562584 1 rotate no_reflect no_shear #
lump $-1 $-1 $26 $5 #
transform $-1 1 0 0 0 1 0 0 0 1 63.754387035737174 31.550706926340624 12.690573050562584 1 rotate no_reflect no_shear #
lump $-1 $-1 $27 $6 #
transform $-1 1 0 0 0 1 0 0 0 1 63.754387035737174 31.550706926340624 12.690573050562584 1 rotate no_reflect no_shear #
shell $-1 $-1 $-1 $28 $-1 $7 #
shell $-1 $-1 $-1 $29 $-1 $9 #
shell $-1 $-1 $-1 $30 $-1 $11 #
shell $-1 $-1 $-1 $31 $-1 $13 #
shell $-1 $-1 $-1 $32 $-1 $15 #
shell $-1 $-1 $-1 $33 $-1 $17 #
shell $-1 $-1 $-1 $34 $-1 $19 #
face $-1 $35 $36 $21 $-1 $37 forward single #
face $-1 $38 $39 $22 $-1 $40 forward single #
face $-1 $41 $42 $23 $-1 $43 forward single #
face $-1 $44 $45 $24 $-1 $46 reversed single #
face $-1 $47 $48 $25 $-1 $49 forward single #
face $-1 $50 $51 $26 $-1 $52 reversed single #
face $-1 $53 $54 $27 $-1 $55 forward single #
face $-1 $56 $57 $21 $-1 $58 reversed single #
loop $-1 $-1 $59 $28 #
plane-surface $-1 0 0 12.690573050562584 0 0 1 1 0 0 forward_v I I I I #
face $-1 $60 $61 $22 $-1 $62 reversed single #
loop $-1 $-1 $63 $29 #
plane-surface $-1 0 -31.550706926340624 0 0 1 0 0 0 1 forward_v I I I I #
face $-1 $64 $65 $23 $-1 $66 reversed single #
loop $-1 $-1 $67 $30 #
plane-surface $-1 0 31.550706926340624 0 0 -1 0 0 0 -1 forward_v I I I I #
face $-1 $68 $69 $24 $-1 $70 reversed single #
loop $-1 $-1 $71 $31 #
plane-surface $-1 23.190171130089929 -3.5527136788005009e-015 180.18755851319952 0 -1 0 -0.52991927123019833 0 -0.84804809178421925 forward_v I I I I #
face $-1 $72 $73 $25 $-1 $74 forward single #
loop $-1 $75 $76 $32 #
cone-surface $-1 56.806543738649658 -3.5011488035478529 7.9767280902393969 -0.52991927123019833 0 -0.84804809178421925 0.84804809178421925 0 -0.52991927123019833 1 I I 0 1 1 forward I I I I #
face $-1 $77 $78 $26 $-1 $79 reversed single #
loop $-1 $-1 $80 $33 #
plane-surface $-1 23.190171130089929 20.189075100786624 180.18755851319952 0 -1 0 -0.52991927123019833 0 -0.84804809178421925 forward_v I I I I #
face $-1 $81 $82 $27 $-1 $83 forward single #
loop $-1 $84 $85 $34 #
cone-surface $-1 56.806543738649658 16.687926297238775 7.9767280902393969 -0.52991927123019833 0 -0.84804809178421925 0.84804809178421925 0 -0.52991927123019833 1 I I 0 1 1 forward I I I I #
face $-1 $86 $87 $21 $-1 $88 reversed single #
loop $-1 $-1 $89 $35 #
plane-surface $-1 0 0 -12.690573050562584 0 0 1 1 0 0 forward_v I I I I #
coedge $-1 $90 $91 $92 $93 forward $36 $-1 #
face $-1 $94 $95 $22 $-1 $96 reversed single #
loop $-1 $-1 $97 $38 #
plane-surface $-1 0 0 -12.690573050562584 0 0 1 1 0 0 forward_v I I I I #
coedge $-1 $98 $99 $100 $101 forward $39 $-1 #
face $-1 $102 $103 $23 $-1 $104 forward single #
loop $-1 $-1 $105 $41 #
plane-surface $-1 -63.754387035737174 0 0 1 0 0 0 0 -1 forward_v I I I I #
coedge $-1 $106 $107 $108 $109 forward $42 $-1 #
face $-1 $110 $111 $24 $-1 $112 reversed single #
loop $-1 $-1 $113 $44 #
plane-surface $-1 -44.379185501321764 -3.5011488035478529 72.053985976140567 0.52991927123019833 0 0.84804809178421925 0.84804809178421925 0 -0.52991927123019833 forward_v I I I I #
coedge $-1 $114 $115 $116 $117 reversed $45 $-1 #
face $-1 $-1 $118 $25 $-1 $119 forward single #
loop $-1 $120 $121 $47 #
cone-surface $-1 56.159868213302623 -3.5011488035478529 6.941830936940967 -0.52991927123019833 0 -0.84804809178421925 0.42402404589210962 0 -0.26495963561509916 1 I I -0.70710678118654746 0.70710678118654746 0.5 forward I I I I #
loop $-1 $-1 $122 $32 #
coedge $-1 $76 $76 $123 $124 reversed $48 $-1 #
face $-1 $125 $126 $26 $-1 $127 reversed single #
loop $-1 $-1 $128 $50 #
plane-surface $-1 -44.379185501321764 16.687926297238775 72.053985976140567 0.52991927123019833 0 0.84804809178421925 0.84804809178421925 0 -0.52991927123019833 forward_v I I I I #
coedge $-1 $129 $130 $131 $132 reversed $51 $-1 #
face $-1 $-1 $133 $27 $-1 $134 forward single #
loop $-1 $135 $136 $53 #
cone-surface $-1 56.159868213302623 16.687926297238775 6.941830936940967 -0.52991927123019833 0 -0.84804809178421925 0.42402404589210962 0 -0.26495963561509916 1 I I -0.70710678118654746 0.70710678118654746 0.5 forward I I I I #
loop $-1 $-1 $137 $34 #
coedge $-1 $85 $85 $138 $139 reversed $54 $-1 #
face $-1 $140 $141 $21 $-1 $142 reversed single #
loop $-1 $-1 $143 $56 #
plane-surface $-1 0 -31.550706926340624 0 0 1 0 0 0 1 forward_v I I I I #
coedge $-1 $144 $145 $146 $147 forward $57 $-1 #
coedge $-1 $148 $59 $149 $150 forward $36 $-1 #
coedge $-1 $59 $148 $151 $152 forward $36 $-1 #
coedge $-1 $153 $154 $59 $93 reversed $155 $-1 #
edge $-1 $156 -31.550706926340624 $157 31.550706926340624 $92 $158 forward 7 unknown #
face $-1 $159 $160 $22 $-1 $161 forward single #
loop $-1 $-1 $162 $60 #
plane-surface $-1 63.754387035737174 0 0 -1 0 0 0 0 1 forward_v I I I I #
coedge $-1 $163 $164 $165 $166 forward $61 $-1 #
coedge $-1 $165 $63 $162 $167 reversed $39 $-1 #
coedge $-1 $63 $165 $168 $169 reversed $39 $-1 #
coedge $-1 $170 $171 $63 $101 reversed $160 $-1 #
edge $-1 $172 -63.754387035737174 $173 63.754387035737174 $100 $174 forward 7 unknown #
face $-1 $175 $176 $23 $-1 $177 reversed single #
loop $-1 $-1 $178 $64 #
plane-surface $-1 0 37.23152283911763 -6.342226876027488 0 0 1 1 0 0 forward_v I I I I #
coedge $-1 $179 $180 $106 $181 forward $65 $-1 #
coedge $-1 $182 $67 $105 $181 reversed $42 $-1 #
coedge $-1 $67 $182 $183 $184 reversed $42 $-1 #
coedge $-1 $178 $185 $67 $109 reversed $103 $-1 #
edge $-1 $186 -63.754387035737174 $187 63.754387035737174 $108 $188 forward 7 unknown #
face $-1 $189 $190 $24 $-1 $191 forward single #
loop $-1 $-1 $192 $68 #
plane-surface $-1 23.190171130089929 -7.0022976070957021 180.18755851319952 0 1 0 0.52991927123019833 0 0.84804809178421925 forward_v I I I I #
coedge $-1 $193 $194 $195 $196 reversed $69 $-1 #
coedge $-1 $115 $71 $197 $198 reversed $45 $-1 #
coedge $-1 $71 $114 $193 $199 reversed $45 $-1 #
coedge $-1 $195 $200 $71 $117 forward $190 $-1 #
edge $-1 $201 -52.159301470692213 $202 -39.027046655981053 $116 $203 forward 7 unknown #
loop $-1 $-1 $123 $72 #
plane-surface $-1 -44.379185501321764 -3.5011488035478529 72.053985976140567 0.52991927123019833 0 0.84804809178421925 0.84804809178421925 0 -0.52991927123019833 forward_v I I I I #
loop $-1 $-1 $204 $47 #
coedge $-1 $121 $121 $122 $205 reversed $73 $-1 #
coedge $-1 $122 $122 $121 $205 forward $75 $-1 #
coedge $-1 $123 $123 $76 $124 forward $118 $-1 #
edge $-1 $206 0 $206 6.2831853071796004 $123 $207 forward 7 unknown #
face $-1 $208 $209 $26 $-1 $210 reversed single #
loop $-1 $-1 $211 $77 #
plane-surface $-1 23.190171130089929 13.186777493690926 180.18755851319952 0 1 0 0.52991927123019833 0 0.84804809178421925 forward_v I I I I #
coedge $-1 $212 $213 $214 $215 reversed $78 $-1 #
coedge $-1 $130 $80 $216 $217 reversed $51 $-1 #
coedge $-1 $80 $129 $212 $218 reversed $51 $-1 #
coedge $-1 $214 $219 $80 $132 forward $220 $-1 #
edge $-1 $221 -52.159301470692213 $222 -39.027046655981053 $131 $223 forward 7 unknown #
loop $-1 $-1 $138 $81 #
plane-surface $-1 -44.379185501321764 16.687926297238775 72.053985976140567 0.52991927123019833 0 0.84804809178421925 0.84804809178421925 0 -0.52991927123019833 forward_v I I I I #
loop $-1 $-1 $224 $53 #
coedge $-1 $136 $136 $137 $225 reversed $82 $-1 #
coedge $-1 $137 $137 $136 $225 forward $84 $-1 #
coedge $-1 $138 $138 $85 $139 forward $133 $-1 #
edge $-1 $226 0 $226 6.2831853071796004 $138 $227 forward 7 unknown #
face $-1 $228 $229 $21 $-1 $230 reversed single #
loop $-1 $-1 $231 $86 #
plane-surface $-1 -63.754387035737174 0 0 1 0 0 0 0 -1 forward_v I I I I #
coedge $-1 $151 $232 $153 $233 reversed $87 $-1 #
coedge $-1 $234 $89 $232 $235 forward $57 $-1 #
coedge $-1 $89 $234 $236 $237 forward $57 $-1 #
coedge $-1 $154 $153 $89 $147 reversed $155 $-1 #
edge $-1 $238 -31.550706926340624 $239 31.550706926340624 $146 $240 forward 7 unknown #
coedge $-1 $91 $90 $241 $242 forward $36 $-1 #
coedge $-1 $243 $244 $90 $150 reversed $229 $-1 #
edge $-1 $157 -63.754387035737174 $245 63.754387035737174 $149 $246 forward 7 unknown #
coedge $-1 $247 $143 $91 $152 reversed $87 $-1 #
edge $-1 $248 -63.754387035737174 $156 63.754387035737174 $151 $249 forward 7 unknown #
coedge $-1 $146 $92 $143 $233 forward $155 $-1 #
coedge $-1 $92 $146 $243 $250 reversed $155 $-1 #
loop $-1 $-1 $153 $228 #
vertex $-1 $93 $251 #
vertex $-1 $93 $252 #
straight-curve $-1 63.754387035737174 0 12.690573050562584 0 1 0 I I #
face $-1 $253 $254 $22 $-1 $255 reversed single #
loop $-1 $-1 $171 $94 #
plane-surface $-1 0 -37.231522839117623 -6.342226876027488 0 0 1 1 0 0 forward_v I I I I #
coedge $-1 $256 $257 $98 $167 forward $95 $-1 #
coedge $-1 $258 $97 $257 $259 forward $61 $-1 #
coedge $-1 $97 $258 $260 $261 forward $61 $-1 #
coedge $-1 $99 $98 $97 $166 reversed $39 $-1 #
edge $-1 $262 -63.754387035737174 $263 63.754387035737174 $97 $264 forward 7 unknown #
edge $-1 $263 -12.690573050562584 $173 -6.342226876027488 $162 $265 forward 7 unknown #
coedge $-1 $260 $266 $99 $169 forward $267 $-1 #
edge $-1 $172 6.342226876027488 $262 12.690573050562584 $168 $268 forward 7 unknown #
coedge $-1 $269 $100 $266 $270 forward $160 $-1 #
coedge $-1 $100 $269 $256 $271 forward $160 $-1 #
vertex $-1 $169 $272 #
vertex $-1 $271 $273 #
straight-curve $-1 0 -31.550706926340624 -6.342226876027488 1 0 0 I I #
face $-1 $274 $275 $23 $-1 $276 reversed single #
loop $-1 $-1 $277 $102 #
plane-surface $-1 0 42.91233875189463 -9.5163999632950365 0 -1 0 0 0 -1 forward_v I I I I #
coedge $-1 $278 $108 $279 $280 forward $103 $-1 #
coedge $-1 $281 $105 $185 $282 reversed $65 $-1 #
coedge $-1 $105 $281 $283 $284 reversed $65 $-1 #
edge $-1 $285 -12.690573050562584 $187 -6.342226876027488 $105 $286 forward 7 unknown #
coedge $-1 $107 $106 $287 $288 reversed $42 $-1 #
coedge $-1 $289 $279 $107 $184 forward $290 $-1 #
edge $-1 $186 6.342226876027488 $291 12.690573050562584 $183 $292 forward 7 unknown #
coedge $-1 $108 $278 $179 $282 forward $103 $-1 #
vertex $-1 $184 $293 #
vertex $-1 $282 $294 #
straight-curve $-1 0 31.550706926340624 -6.342226876027488 -1 0 0 I I #
face $-1 $-1 $295 $24 $-1 $296 reversed single #
loop $-1 $-1 $116 $110 #
plane-surface $-1 0 0 12.690573050562584 0 0 1 1 0 0 forward_v I I I I #
coedge $-1 $297 $298 $299 $300 reversed $111 $-1 #
coedge $-1 $301 $113 $115 $199 forward $69 $-1 #
coedge $-1 $113 $301 $297 $302 forward $69 $-1 #
coedge $-1 $299 $116 $113 $196 forward $190 $-1 #
edge $-1 $202 -1.7505744017739229 $303 5.2517232053217757 $195 $304 forward 7 unknown #
coedge $-1 $305 $306 $114 $198 forward $295 $-1 #
edge $-1 $307 -85.609149911870887 $201 -77.403206206037169 $197 $308 forward 7 unknown #
edge $-1 $202 112.02350272668298 $307 127.50877407147433 $115 $309 forward 7 unknown #
coedge $-1 $116 $299 $305 $310 forward $190 $-1 #
vertex $-1 $198 $311 #
vertex $-1 $117 $312 #
straight-curve $-1 11.595085565044965 -3.5527136788005009e-015 12.690573050562591 -1 0 0 I I #
coedge $-1 $204 $204 $-1 $313 reversed $120 $-1 #
edge $-1 $314 0 $314 6.2831853071796004 $121 $315 forward 7 unknown #
vertex $-1 $124 $316 #
ellipse-curve $-1 57.188259628381608 -3.5011488035478529 8.5876011976457374 0.52991927123019833 0 0.84804809178421925 0.84804809178421925 0 -0.52991927123019833 1 I I #
face $-1 $-1 $220 $26 $-1 $317 forward single #
loop $-1 $-1 $318 $125 #
plane-surface $-1 63.754387035737174 0 0 -1 0 0 0 0 1 forward_v I I I I #
coedge $-1 $319 $320 $321 $322 reversed $126 $-1 #
coedge $-1 $323 $128 $130 $218 forward $78 $-1 #
coedge $-1 $128 $323 $319 $324 forward $78 $-1 #
coedge $-1 $321 $131 $128 $215 forward $220 $-1 #
edge $-1 $222 -11.845111952167237 $325 -4.8428143450715382 $214 $326 forward 7 unknown #
coedge $-1 $327 $328 $129 $217 forward $209 $-1 #
edge $-1 $329 -85.609149911870887 $221 -77.403206206037169 $216 $330 forward 7 unknown #
edge $-1 $222 112.02350272668298 $329 127.50877407147433 $130 $331 forward 7 unknown #
coedge $-1 $131 $321 $327 $332 forward $220 $-1 #
loop $-1 $-1 $321 $208 #
vertex $-1 $217 $333 #
vertex $-1 $132 $334 #
straight-curve $-1 11.595085565044965 20.189075100786624 12.690573050562591 -1 0 0 I I #
coedge $-1 $224 $224 $-1 $335 reversed $135 $-1 #
edge $-1 $336 0 $336 6.2831853071796004 $136 $337 forward 7 unknown #
vertex $-1 $139 $338 #
ellipse-curve $-1 57.188259628381608 16.687926297238775 8.5876011976457374 0.52991927123019833 0 0.84804809178421925 0.84804809178421925 0 -0.52991927123019833 1 I I #
face $-1 $-1 $155 $21 $-1 $339 reversed single #
loop $-1 $-1 $244 $140 #
plane-surface $-1 0 31.550706926340624 0 0 -1 0 0 0 -1 forward_v I I I I #
coedge $-1 $340 $241 $244 $341 forward $141 $-1 #
coedge $-1 $143 $247 $144 $235 reversed $87 $-1 #
edge $-1 $156 -12.690573050562584 $239 12.690573050562584 $153 $342 forward 7 unknown #
coedge $-1 $145 $144 $340 $343 forward $57 $-1 #
edge $-1 $239 -63.754387035737174 $344 63.754387035737174 $232 $345 forward 7 unknown #
coedge $-1 $244 $243 $145 $237 reversed $229 $-1 #
edge $-1 $346 -63.754387035737174 $238 63.754387035737174 $236 $347 forward 7 unknown #
vertex $-1 $147 $348 #
vertex $-1 $233 $349 #
straight-curve $-1 63.754387035737174 0 -12.690573050562584 0 -1 0 I I #
coedge $-1 $231 $350 $148 $242 reversed $141 $-1 #
edge $-1 $245 -31.550706926340624 $248 31.550706926340624 $241 $351 forward 7 unknown #
coedge $-1 $236 $149 $154 $250 forward $229 $-1 #
coedge $-1 $149 $236 $231 $341 reversed $229 $-1 #
vertex $-1 $150 $352 #
straight-curve $-1 0 31.550706926340624 12.690573050562584 -1 0 0 I I #
coedge $-1 $232 $151 $350 $353 forward $87 $-1 #
vertex $-1 $242 $354 #
straight-curve $-1 0 -31.550706926340624 12.690573050562584 1 0 0 I I #
edge $-1 $157 -12.690573050562584 $238 12.690573050562584 $154 $355 forward 7 unknown #
point $-1 63.754387035737174 -31.550706926340624 12.690573050562584 #
point $-1 63.754387035737174 31.550706926340624 12.690573050562584 #
face $-1 $-1 $267 $22 $-1 $356 reversed single #
loop $-1 $-1 $357 $159 #
plane-surface $-1 0 -42.912338751894623 -9.5163999632950365 0 1 0 0 0 1 forward_v I I I I #
coedge $-1 $358 $162 $171 $271 reversed $95 $-1 #
coedge $-1 $162 $358 $163 $259 reversed $95 $-1 #
coedge $-1 $164 $163 $359 $360 forward $61 $-1 #
edge $-1 $263 31.550706926340624 $361 42.912338751894623 $257 $362 forward 7 unknown #
coedge $-1 $363 $168 $164 $261 reversed $267 $-1 #
edge $-1 $364 -42.912338751894623 $262 -31.550706926340624 $260 $365 forward 7 unknown #
vertex $-1 $169 $366 #
vertex $-1 $259 $367 #
straight-curve $-1 0 -31.550706926340624 -12.690573050562584 1 0 0 I I #
straight-curve $-1 63.754387035737174 -31.550706926340624 0 0 0 1 I I #
coedge $-1 $168 $363 $170 $270 reversed $267 $-1 #
loop $-1 $-1 $168 $253 #
straight-curve $-1 -63.754387035737174 -31.550706926340624 0 0 0 -1 I I #
coedge $-1 $171 $170 $368 $369 forward $160 $-1 #
edge $-1 $172 -5.6808159127769997 $370 5.6808159127769997 $266 $371 forward 7 unknown #
edge $-1 $372 -5.6808159127769997 $173 5.6808159127769997 $256 $373 forward 7 unknown #
point $-1 -63.754387035737174 -31.550706926340624 -6.342226876027488 #
point $-1 63.754387035737174 -31.550706926340624 -6.342226876027488 #
face $-1 $-1 $290 $23 $-1 $374 reversed single #
loop $-1 $-1 $287 $175 #
plane-surface $-1 0 0 -12.690573050562584 0 0 1 1 0 0 forward_v I I I I #
coedge $-1 $375 $376 $377 $378 forward $176 $-1 #
coedge $-1 $185 $178 $376 $379 forward $103 $-1 #
coedge $-1 $183 $377 $178 $280 reversed $290 $-1 #
edge $-1 $186 -5.6808159127769997 $380 5.6808159127769997 $279 $381 forward 7 unknown #
coedge $-1 $180 $179 $382 $383 forward $65 $-1 #
edge $-1 $384 -5.6808159127769997 $187 5.6808159127769997 $179 $385 forward 7 unknown #
coedge $-1 $386 $287 $180 $284 forward $275 $-1 #
edge $-1 $285 -5.6808159127770068 $387 5.6808159127769997 $180 $388 forward 7 unknown #
vertex $-1 $284 $389 #
straight-curve $-1 -63.754387035737174 31.550706926340624 0 0 0 1 I I #
coedge $-1 $283 $390 $182 $288 forward $275 $-1 #
edge $-1 $291 -63.754387035737174 $285 63.754387035737174 $287 $391 forward 7 unknown #
coedge $-1 $377 $183 $390 $392 reversed $290 $-1 #
loop $-1 $-1 $183 $274 #
vertex $-1 $184 $393 #
straight-curve $-1 63.754387035737174 31.550706926340624 0 0 0 -1 I I #
point $-1 63.754387035737174 31.550706926340631 -6.342226876027488 #
point $-1 -63.754387035737174 31.550706926340631 -6.342226876027488 #
loop $-1 $-1 $197 $189 #
plane-surface $-1 63.754387035737174 0 0 -1 0 0 0 0 1 forward_v I I I I #
coedge $-1 $298 $192 $194 $302 reversed $111 $-1 #
coedge $-1 $192 $297 $394 $395 reversed $111 $-1 #
coedge $-1 $200 $195 $192 $300 forward $190 $-1 #
edge $-1 $303 39.027046655981053 $396 52.159301470692213 $299 $397 forward 7 unknown #
coedge $-1 $194 $193 $306 $398 reversed $69 $-1 #
edge $-1 $399 -127.50877407147433 $303 -112.02350272668298 $297 $400 forward 7 unknown #
vertex $-1 $196 $401 #
straight-curve $-1 50.622132221026021 -1.7505744017739264 12.690573050562577 0 -1 0 I I #
coedge $-1 $394 $197 $200 $310 reversed $295 $-1 #
coedge $-1 $197 $394 $301 $398 forward $295 $-1 #
vertex $-1 $198 $402 #
straight-curve $-1 63.754387035737174 -3.5527136788005009e-015 90.09377925659976 0 0 1 I I #
straight-curve $-1 -44.379185501321764 -3.5527136788005009e-015 72.053985976140567 0.84804809178421925 0 -0.52991927123019833 I I #
edge $-1 $396 -7.0022976070957021 $201 -3.5527136788005009e-015 $305 $403 forward 7 unknown #
point $-1 63.754387035737174 -3.5527136788005009e-015 12.690573050562584 #
point $-1 50.622132221026014 -3.5527136788005009e-015 12.690573050562591 #
edge $-1 $404 1 $404 0 $204 $-1 forward 7 unknown #
vertex $-1 $205 $405 #
ellipse-curve $-1 56.424827848917722 -3.5011488035478529 7.3658549828330768 0.52991927123019833 0 0.84804809178421925 0.84804809178421925 0 -0.52991927123019833 1 I I #
point $-1 58.036307720165816 -3.5011488035478529 8.0576819264155191 #
plane-surface $-1 0 0 12.690573050562584 0 0 1 1 0 0 forward_v I I I I #
coedge $-1 $328 $327 $320 $406 forward $209 $-1 #
coedge $-1 $320 $211 $213 $324 reversed $126 $-1 #
coedge $-1 $211 $319 $318 $406 reversed $126 $-1 #
coedge $-1 $219 $214 $211 $322 forward $220 $-1 #
edge $-1 $325 39.027046655981053 $407 52.159301470692213 $321 $408 forward 7 unknown #
coedge $-1 $213 $212 $328 $409 reversed $78 $-1 #
edge $-1 $410 -127.50877407147433 $325 -112.02350272668298 $319 $411 forward 7 unknown #
vertex $-1 $215 $412 #
straight-curve $-1 50.622132221026021 8.3439631486193875 12.690573050562577 0 -1 0 I I #
coedge $-1 $318 $216 $219 $332 reversed $209 $-1 #
coedge $-1 $216 $318 $323 $409 forward $209 $-1 #
vertex $-1 $217 $413 #
straight-curve $-1 63.754387035737174 20.189075100786624 90.09377925659976 0 0 1 I I #
straight-curve $-1 -44.379185501321764 20.189075100786624 72.053985976140567 0.84804809178421925 0 -0.52991927123019833 I I #
edge $-1 $407 13.186777493690926 $221 20.189075100786624 $327 $414 forward 7 unknown #
point $-1 63.754387035737174 20.189075100786624 12.690573050562584 #
point $-1 50.622132221026014 20.189075100786624 12.690573050562591 #
edge $-1 $415 1 $415 0 $224 $-1 forward 7 unknown #
vertex $-1 $225 $416 #
ellipse-curve $-1 56.424827848917722 16.687926297238775 7.3658549828330768 0.52991927123019833 0 0.84804809178421925 0.84804809178421925 0 -0.52991927123019833 1 I I #
point $-1 58.036307720165816 16.687926297238775 8.0576819264155191 #
plane-surface $-1 63.754387035737174 0 0 -1 0 0 0 0 1 forward_v I I I I #
coedge $-1 $350 $231 $234 $343 reversed $141 $-1 #
edge $-1 $245 -12.690573050562584 $346 12.690573050562584 $244 $417 forward 7 unknown #
straight-curve $-1 63.754387035737174 -31.550706926340624 0 0 0 -1 I I #
edge $-1 $344 -31.550706926340624 $346 31.550706926340624 $340 $418 forward 7 unknown #
vertex $-1 $343 $419 #
straight-curve $-1 0 -31.550706926340624 -12.690573050562584 -1 0 0 I I #
vertex $-1 $237 $420 #
straight-curve $-1 0 31.550706926340624 -12.690573050562584 1 0 0 I I #
point $-1 63.754387035737174 31.550706926340624 -12.690573050562584 #
point $-1 63.754387035737174 -31.550706926340624 -12.690573050562584 #
coedge $-1 $241 $340 $247 $353 reversed $141 $-1 #
straight-curve $-1 -63.754387035737174 0 12.690573050562584 0 -1 0 I I #
point $-1 -63.754387035737174 31.550706926340624 12.690573050562584 #
edge $-1 $248 -12.690573050562584 $344 12.690573050562584 $350 $421 forward 7 unknown #
point $-1 -63.754387035737174 -31.550706926340624 12.690573050562584 #
straight-curve $-1 63.754387035737174 31.550706926340624 0 0 0 -1 I I #
plane-surface $-1 -63.754387035737174 0 0 1 0 0 0 0 -1 forward_v I I I I #
coedge $-1 $359 $368 $363 $422 forward $254 $-1 #
coedge $-1 $257 $256 $423 $424 forward $95 $-1 #
coedge $-1 $423 $357 $258 $360 reversed $254 $-1 #
edge $-1 $361 -63.754387035737174 $364 63.754387035737174 $359 $425 forward 7 unknown #
vertex $-1 $424 $426 #
straight-curve $-1 63.754387035737174 0 -12.690573050562584 0 -1 0 I I #
coedge $-1 $266 $260 $357 $422 reversed $267 $-1 #
vertex $-1 $261 $427 #
straight-curve $-1 -63.754387035737174 0 -12.690573050562584 0 1 0 I I #
point $-1 -63.754387035737174 -31.550706926340624 -12.690573050562584 #
point $-1 63.754387035737174 -31.550706926340624 -12.690573050562584 #
coedge $-1 $357 $423 $269 $369 reversed $254 $-1 #
edge $-1 $370 -63.754387035737174 $372 63.754387035737174 $368 $428 forward 7 unknown #
vertex $-1 $270 $429 #
straight-curve $-1 -63.754387035737174 -37.231522839117623 -6.342226876027488 0 -1 0 I I #
vertex $-1 $271 $430 #
straight-curve $-1 63.754387035737174 -37.231522839117623 -6.342226876027488 0 1 0 I I #
plane-surface $-1 63.754387035737174 0 0 -1 0 0 0 0 1 forward_v I I I I #
coedge $-1 $382 $277 $386 $431 reversed $176 $-1 #
coedge $-1 $277 $382 $278 $379 reversed $176 $-1 #
coedge $-1 $279 $289 $277 $378 reversed $290 $-1 #
edge $-1 $380 -3.1741730872675484 $432 3.1741730872675475 $377 $433 forward 7 unknown #
edge $-1 $380 -63.754387035737174 $384 63.754387035737174 $376 $434 forward 7 unknown #
vertex $-1 $280 $435 #
straight-curve $-1 63.754387035737174 37.23152283911763 -6.342226876027488 0 1 0 I I #
coedge $-1 $376 $375 $281 $383 reversed $176 $-1 #
edge $-1 $384 -3.1741730872675484 $387 3.1741730872675475 $382 $436 forward 7 unknown #
vertex $-1 $379 $437 #
straight-curve $-1 -63.754387035737174 37.23152283911763 -6.342226876027488 0 -1 0 I I #
coedge $-1 $390 $283 $375 $431 forward $275 $-1 #
vertex $-1 $431 $438 #
straight-curve $-1 -63.754387035737174 37.23152283911763 -12.690573050562584 0 1 0 I I #
point $-1 -63.754387035737174 31.550706926340624 -12.690573050562584 #
coedge $-1 $287 $386 $289 $392 forward $275 $-1 #
straight-curve $-1 0 31.550706926340624 -12.690573050562584 -1 0 0 I I #
edge $-1 $432 -42.91233875189463 $291 -31.550706926340624 $289 $439 forward 7 unknown #
point $-1 63.754387035737174 31.550706926340624 -12.690573050562584 #
coedge $-1 $306 $305 $298 $395 forward $295 $-1 #
edge $-1 $396 77.403206206037169 $399 85.609149911870887 $394 $440 forward 7 unknown #
vertex $-1 $310 $441 #
straight-curve $-1 11.595085565044965 -7.0022976070957021 12.690573050562591 1 0 0 I I #
edge $-1 $399 -5.2517232053217757 $307 1.7505744017739229 $306 $442 forward 7 unknown #
vertex $-1 $398 $443 #
straight-curve $-1 -44.379185501321764 -7.0022976070957021 72.053985976140567 -0.84804809178421925 0 0.52991927123019833 I I #
point $-1 50.622132221026014 -7.0022976070957021 12.690573050562591 #
point $-1 63.754387035737174 -3.5527136788005009e-015 4.484629344728873 #
straight-curve $-1 63.754387035737174 0 12.690573050562584 0 1 0 I I #
vertex $-1 $313 $444 #
point $-1 57.272875940701944 -3.5011488035478529 6.8359357116028781 #
edge $-1 $407 77.403206206037169 $410 85.609149911870887 $318 $445 forward 7 unknown #
vertex $-1 $332 $446 #
straight-curve $-1 11.595085565044965 13.186777493690926 12.690573050562591 1 0 0 I I #
edge $-1 $410 4.8428143450715382 $329 11.845111952167237 $328 $447 forward 7 unknown #
vertex $-1 $409 $448 #
straight-curve $-1 -44.379185501321764 13.186777493690926 72.053985976140567 -0.84804809178421925 0 0.52991927123019833 I I #
point $-1 50.622132221026014 13.186777493690926 12.690573050562591 #
point $-1 63.754387035737174 20.189075100786624 4.484629344728873 #
straight-curve $-1 63.754387035737174 0 12.690573050562584 0 1 0 I I #
vertex $-1 $335 $449 #
point $-1 57.272875940701944 16.687926297238775 6.8359357116028781 #
straight-curve $-1 -63.754387035737174 31.550706926340624 0 0 0 -1 I I #
straight-curve $-1 -63.754387035737174 0 -12.690573050562584 0 1 0 I I #
point $-1 -63.754387035737174 -31.550706926340624 -12.690573050562584 #
point $-1 -63.754387035737174 31.550706926340624 -12.690573050562584 #
straight-curve $-1 -63.754387035737174 -31.550706926340624 0 0 0 -1 I I #
edge $-1 $370 -3.1741730872675484 $364 3.1741730872675475 $363 $450 forward 7 unknown #
coedge $-1 $368 $359 $358 $424 reversed $254 $-1 #
edge $-1 $372 -3.1741730872675484 $361 3.1741730872675475 $358 $451 forward 7 unknown #
straight-curve $-1 0 -42.912338751894623 -12.690573050562584 -1 0 0 I I #
point $-1 63.754387035737174 -42.912338751894623 -12.690573050562584 #
point $-1 -63.754387035737174 -42.912338751894623 -12.690573050562584 #
straight-curve $-1 0 -42.912338751894623 -6.342226876027488 1 0 0 I I #
point $-1 -63.754387035737174 -42.912338751894623 -6.342226876027488 #
point $-1 63.754387035737174 -42.912338751894623 -6.342226876027488 #
edge $-1 $387 -63.754387035737174 $432 63.754387035737174 $375 $452 forward 7 unknown #
vertex $-1 $392 $453 #
straight-curve $-1 63.754387035737174 42.91233875189463 -9.5163999632950365 0 0 -1 I I #
straight-curve $-1 0 42.91233875189463 -6.342226876027488 -1 0 0 I I #
point $-1 63.754387035737174 42.91233875189463 -6.342226876027488 #
straight-curve $-1 -63.754387035737174 42.91233875189463 -9.5163999632950365 0 0 -1 I I #
point $-1 -63.754387035737174 42.91233875189463 -6.342226876027488 #
point $-1 -63.754387035737174 42.91233875189463 -12.690573050562584 #
straight-curve $-1 63.754387035737174 0 -12.690573050562584 0 -1 0 I I #
straight-curve $-1 63.754387035737174 -7.0022976070957021 90.09377925659976 0 0 -1 I I #
point $-1 63.754387035737174 -7.0022976070957021 12.690573050562584 #
straight-curve $-1 63.754387035737182 -1.7505744017739264 4.4846293447288801 0 1 0 I I #
point $-1 63.754387035737174 -7.0022976070957021 4.484629344728873 #
point $-1 55.894908577687524 -3.5011488035478529 6.5178068910488571 #
straight-curve $-1 63.754387035737174 13.186777493690926 90.09377925659976 0 0 -1 I I #
point $-1 63.754387035737174 13.186777493690926 12.690573050562584 #
straight-curve $-1 63.754387035737182 8.3439631486193875 4.4846293447288801 0 1 0 I I #
point $-1 63.754387035737174 13.186777493690926 4.484629344728873 #
point $-1 55.894908577687524 16.687926297238775 6.5178068910488571 #
straight-curve $-1 -63.754387035737174 -42.912338751894623 -9.5163999632950365 0 0 -1 I I #
straight-curve $-1 63.754387035737174 -42.912338751894623 -9.5163999632950365 0 0 -1 I I #
straight-curve $-1 0 42.91233875189463 -12.690573050562584 1 0 0 I I #
point $-1 63.754387035737174 42.91233875189463 -12.690573050562584 #
End-of-ACIS-data 