500 0 10 0           
7 Unknown 11 ACIS 5.0 NT 24 Fri Mar 26 20:13:00 1999 
-1 9.9999999999999995e-007 1e-010 
body $-1 $10 $-1 $11 #
body $-1 $12 $-1 $13 #
body $-1 $14 $-1 $15 #
body $-1 $16 $-1 $17 #
body $-1 $18 $-1 $19 #
body $-1 $20 $-1 $21 #
body $-1 $22 $-1 $23 #
body $-1 $24 $-1 $25 #
body $-1 $26 $-1 $27 #
body $-1 $28 $-1 $29 #
lump $-1 $-1 $30 $0 #
transform $-1 1 0 0 0 1 0 0 0 1 46.264839625232703 24.694442337638321 6.9400223137488934 1 rotate no_reflect no_shear #
lump $-1 $-1 $31 $1 #
transform $-1 1 0 0 0 1 0 0 0 1 46.264839625232703 24.694442337638321 6.9400223137488934 1 rotate no_reflect no_shear #
lump $-1 $-1 $32 $2 #
transform $-1 1 0 0 0 1 0 0 0 1 46.264839625232703 24.694442337638321 6.9400223137488934 1 rotate no_reflect no_shear #
lump $-1 $-1 $33 $3 #
transform $-1 1 0 0 0 1 0 0 0 1 46.264839625232703 24.694442337638321 6.9400223137488934 1 rotate no_reflect no_shear #
lump $-1 $-1 $34 $4 #
transform $-1 1 0 0 0 1 0 0 0 1 46.264839625232703 24.694442337638321 6.9400223137488934 1 rotate no_reflect no_shear #
lump $-1 $-1 $35 $5 #
transform $-1 1 0 0 0 1 0 0 0 1 46.264839625232703 24.694442337638321 6.9400223137488934 1 rotate no_reflect no_shear #
lump $-1 $-1 $36 $6 #
transform $-1 1 0 0 0 1 0 0 0 1 46.264839625232703 24.694442337638321 6.9400223137488934 1 rotate no_reflect no_shear #
lump $-1 $-1 $37 $7 #
transform $-1 1 0 0 0 1 0 0 0 1 46.264839625232703 24.694442337638321 6.9400223137488934 1 rotate no_reflect no_shear #
lump $-1 $-1 $38 $8 #
transform $-1 1 0 0 0 1 0 0 0 1 46.264839625232703 24.694442337638321 6.9400223137488934 1 rotate no_reflect no_shear #
lump $-1 $-1 $39 $9 #
transform $-1 1 0 0 0 1 0 0 0 1 46.264839625232703 24.694442337638321 6.9400223137488934 1 rotate no_reflect no_shear #
shell $-1 $-1 $-1 $40 $-1 $10 #
shell $-1 $-1 $-1 $41 $-1 $12 #
shell $-1 $-1 $-1 $42 $-1 $14 #
shell $-1 $-1 $-1 $43 $-1 $16 #
shell $-1 $-1 $-1 $44 $-1 $18 #
shell $-1 $-1 $-1 $45 $-1 $20 #
shell $-1 $-1 $-1 $46 $-1 $22 #
shell $-1 $-1 $-1 $47 $-1 $24 #
shell $-1 $-1 $-1 $48 $-1 $26 #
shell $-1 $-1 $-1 $49 $-1 $28 #
face $-1 $50 $51 $30 $-1 $52 forward single #
face $-1 $53 $54 $31 $-1 $55 forward single #
face $-1 $56 $57 $32 $-1 $58 reversed single #
face $-1 $59 $60 $33 $-1 $61 forward single #
face $-1 $62 $63 $34 $-1 $64 forward single #
face $-1 $65 $66 $35 $-1 $67 forward single #
face $-1 $68 $69 $36 $-1 $70 reversed single #
face $-1 $71 $72 $37 $-1 $73 forward single #
face $-1 $74 $75 $38 $-1 $76 forward single #
face $-1 $77 $78 $39 $-1 $79 forward single #
face $-1 $80 $81 $30 $-1 $82 reversed single #
loop $-1 $-1 $83 $40 #
plane-surface $-1 0 0 6.9400223137488934 0 0 1 1 0 0 forward_v I I I I #
face $-1 $84 $85 $31 $-1 $86 reversed single #
loop $-1 $-1 $87 $41 #
plane-surface $-1 0 -24.694442337638321 0 0 1 0 0 0 1 forward_v I I I I #
face $-1 $88 $89 $32 $-1 $90 reversed single #
loop $-1 $-1 $91 $42 #
plane-surface $-1 43.98107631933194 -1.1376585756936883 132.96775445716764 0 -1 0 -0.69465837861970381 0 -0.71933979245794832 forward_v I I I I #
face $-1 $92 $93 $33 $-1 $94 forward single #
loop $-1 $95 $96 $43 #
cone-surface $-1 43.303243614791022 -8.946231009393971 4.0471029014426136 -0.69465837861970381 0 -0.71933979245794832 0.35966989622897416 0 -0.3473291893098519 1 I I 0 1 0.5 forward I I I I #
face $-1 $97 $98 $34 $-1 $99 forward single #
loop $-1 $100 $101 $44 #
cone-surface $-1 43.303243614791022 -6.0180163467563652 4.0471029014426136 -0.69465837861970381 0 -0.71933979245794832 0.35966989622897416 0 -0.3473291893098519 1 I I 0 1 0.5 forward I I I I #
face $-1 $102 $103 $35 $-1 $104 forward single #
loop $-1 $105 $106 $45 #
cone-surface $-1 43.303243614791022 -3.0898016841187612 4.0471029014426136 -0.69465837861970381 0 -0.71933979245794832 0.35966989622897416 0 -0.3473291893098519 1 I I 0 1 0.5 forward I I I I #
face $-1 $107 $108 $36 $-1 $109 reversed single #
loop $-1 $-1 $110 $46 #
plane-surface $-1 43.98107631933194 19.877438810276132 132.96775445716764 0 -1 0 -0.69465837861970381 0 -0.71933979245794832 forward_v I I I I #
face $-1 $111 $112 $37 $-1 $113 forward single #
loop $-1 $114 $115 $47 #
cone-surface $-1 43.303243614791022 12.068866376575848 4.0471029014426136 -0.69465837861970381 0 -0.71933979245794832 0.35966989622897416 0 -0.3473291893098519 1 I I 0 1 0.5 forward I I I I #
face $-1 $116 $117 $38 $-1 $118 forward single #
loop $-1 $119 $120 $48 #
cone-surface $-1 43.303243614791022 14.997081039213455 4.0471029014426136 -0.69465837861970381 0 -0.71933979245794832 0.35966989622897416 0 -0.3473291893098519 1 I I 0 1 0.5 forward I I I I #
face $-1 $121 $122 $39 $-1 $123 forward single #
loop $-1 $124 $125 $49 #
cone-surface $-1 43.303243614791022 17.925295701851056 4.0471029014426136 -0.69465837861970381 0 -0.71933979245794832 0.35966989622897416 0 -0.3473291893098519 1 I I 0 1 0.5 forward I I I I #
face $-1 $126 $127 $30 $-1 $128 reversed single #
loop $-1 $-1 $129 $50 #
plane-surface $-1 0 0 -6.9400223137488934 0 0 1 1 0 0 forward_v I I I I #
coedge $-1 $130 $131 $132 $133 forward $51 $-1 #
face $-1 $134 $135 $31 $-1 $136 reversed single #
loop $-1 $-1 $137 $53 #
plane-surface $-1 0 0 -6.9400223137488934 0 0 1 1 0 0 forward_v I I I I #
coedge $-1 $138 $139 $140 $141 forward $54 $-1 #
face $-1 $142 $143 $32 $-1 $144 reversed single #
loop $-1 $-1 $145 $56 #
plane-surface $-1 -20.295440642997612 -6.0180163467563652 66.407474188937329 0.69465837861970381 0 0.71933979245794832 0.71933979245794832 0 -0.69465837861970381 forward_v I I I I #
coedge $-1 $146 $147 $148 $149 reversed $57 $-1 #
face $-1 $-1 $150 $33 $-1 $151 forward single #
loop $-1 $152 $153 $59 #
cone-surface $-1 42.657949292527285 -8.946231009393971 3.3788810845923907 -0.69465837861970381 0 -0.71933979245794832 0.17983494811448708 0 -0.17366459465492595 1 I I -0.70710678118654746 0.70710678118654746 0.25 forward I I I I #
loop $-1 $-1 $154 $43 #
coedge $-1 $96 $96 $155 $156 reversed $60 $-1 #
face $-1 $-1 $157 $34 $-1 $158 forward single #
loop $-1 $159 $160 $62 #
cone-surface $-1 42.657949292527285 -6.0180163467563652 3.3788810845923907 -0.69465837861970381 0 -0.71933979245794832 0.17983494811448708 0 -0.17366459465492595 1 I I -0.70710678118654746 0.70710678118654746 0.25 forward I I I I #
loop $-1 $-1 $161 $44 #
coedge $-1 $101 $101 $162 $163 reversed $63 $-1 #
face $-1 $-1 $164 $35 $-1 $165 forward single #
loop $-1 $166 $167 $65 #
cone-surface $-1 42.657949292527285 -3.0898016841187612 3.3788810845923907 -0.69465837861970381 0 -0.71933979245794832 0.17983494811448708 0 -0.17366459465492595 1 I I -0.70710678118654746 0.70710678118654746 0.25 forward I I I I #
loop $-1 $-1 $168 $45 #
coedge $-1 $106 $106 $169 $170 reversed $66 $-1 #
face $-1 $171 $172 $36 $-1 $173 reversed single #
loop $-1 $-1 $174 $68 #
plane-surface $-1 -20.295440642997612 14.997081039213455 66.407474188937329 0.69465837861970381 0 0.71933979245794832 0.71933979245794832 0 -0.69465837861970381 forward_v I I I I #
coedge $-1 $175 $176 $177 $178 reversed $69 $-1 #
face $-1 $-1 $179 $37 $-1 $180 forward single #
loop $-1 $181 $182 $71 #
cone-surface $-1 42.657949292527285 12.068866376575848 3.3788810845923907 -0.69465837861970381 0 -0.71933979245794832 0.17983494811448708 0 -0.17366459465492595 1 I I -0.70710678118654746 0.70710678118654746 0.25 forward I I I I #
loop $-1 $-1 $183 $47 #
coedge $-1 $115 $115 $184 $185 reversed $72 $-1 #
face $-1 $-1 $186 $38 $-1 $187 forward single #
loop $-1 $188 $189 $74 #
cone-surface $-1 42.657949292527285 14.997081039213455 3.3788810845923907 -0.69465837861970381 0 -0.71933979245794832 0.17983494811448708 0 -0.17366459465492595 1 I I -0.70710678118654746 0.70710678118654746 0.25 forward I I I I #
loop $-1 $-1 $190 $48 #
coedge $-1 $120 $120 $191 $192 reversed $75 $-1 #
face $-1 $-1 $193 $39 $-1 $194 forward single #
loop $-1 $195 $196 $77 #
cone-surface $-1 42.657949292527285 17.925295701851056 3.3788810845923907 -0.69465837861970381 0 -0.71933979245794832 0.17983494811448708 0 -0.17366459465492595 1 I I -0.70710678118654746 0.70710678118654746 0.25 forward I I I I #
loop $-1 $-1 $197 $49 #
coedge $-1 $125 $125 $198 $199 reversed $78 $-1 #
face $-1 $200 $201 $30 $-1 $202 reversed single #
loop $-1 $-1 $203 $80 #
plane-surface $-1 0 -24.694442337638321 0 0 1 0 0 0 1 forward_v I I I I #
coedge $-1 $204 $205 $206 $207 forward $81 $-1 #
coedge $-1 $208 $83 $209 $210 forward $51 $-1 #
coedge $-1 $83 $208 $211 $212 forward $51 $-1 #
coedge $-1 $213 $214 $83 $133 reversed $215 $-1 #
edge $-1 $216 -24.694442337638321 $217 24.694442337638321 $132 $218 forward 7 unknown #
face $-1 $219 $220 $31 $-1 $221 forward single #
loop $-1 $-1 $222 $84 #
plane-surface $-1 46.264839625232703 0 0 -1 0 0 0 0 1 forward_v I I I I #
coedge $-1 $223 $224 $225 $226 forward $85 $-1 #
coedge $-1 $225 $87 $222 $227 reversed $54 $-1 #
coedge $-1 $87 $225 $228 $229 reversed $54 $-1 #
coedge $-1 $230 $231 $87 $141 reversed $220 $-1 #
edge $-1 $232 -46.264839625232703 $233 46.264839625232703 $140 $234 forward 7 unknown #
face $-1 $235 $236 $32 $-1 $237 reversed single #
loop $-1 $-1 $238 $88 #
plane-surface $-1 43.98107631933194 -10.898374117819042 132.96775445716764 0 1 0 0.69465837861970381 0 0.71933979245794832 forward_v I I I I #
coedge $-1 $239 $240 $241 $242 reversed $89 $-1 #
coedge $-1 $147 $91 $243 $244 reversed $57 $-1 #
coedge $-1 $91 $146 $239 $245 reversed $57 $-1 #
coedge $-1 $241 $246 $91 $149 forward $247 $-1 #
edge $-1 $248 -24.274301465566733 $249 -19.294368899900956 $148 $250 forward 7 unknown #
loop $-1 $-1 $155 $92 #
plane-surface $-1 -20.295440642997612 -6.0180163467563652 66.407474188937329 0.69465837861970381 0 0.71933979245794832 0.71933979245794832 0 -0.69465837861970381 forward_v I I I I #
loop $-1 $-1 $251 $59 #
coedge $-1 $153 $153 $154 $252 reversed $93 $-1 #
coedge $-1 $154 $154 $153 $252 forward $95 $-1 #
coedge $-1 $155 $155 $96 $156 forward $150 $-1 #
edge $-1 $253 0 $253 6.2831853071796004 $155 $254 forward 7 unknown #
loop $-1 $-1 $162 $97 #
plane-surface $-1 -20.295440642997612 -6.0180163467563652 66.407474188937329 0.69465837861970381 0 0.71933979245794832 0.71933979245794832 0 -0.69465837861970381 forward_v I I I I #
loop $-1 $-1 $255 $62 #
coedge $-1 $160 $160 $161 $256 reversed $98 $-1 #
coedge $-1 $161 $161 $160 $256 forward $100 $-1 #
coedge $-1 $162 $162 $101 $163 forward $157 $-1 #
edge $-1 $257 0 $257 6.2831853071796004 $162 $258 forward 7 unknown #
loop $-1 $-1 $169 $102 #
plane-surface $-1 -20.295440642997612 -6.0180163467563652 66.407474188937329 0.69465837861970381 0 0.71933979245794832 0.71933979245794832 0 -0.69465837861970381 forward_v I I I I #
loop $-1 $-1 $259 $65 #
coedge $-1 $167 $167 $168 $260 reversed $103 $-1 #
coedge $-1 $168 $168 $167 $260 forward $105 $-1 #
coedge $-1 $169 $169 $106 $170 forward $164 $-1 #
edge $-1 $261 0 $261 6.2831853071796004 $169 $262 forward 7 unknown #
face $-1 $263 $264 $36 $-1 $265 reversed single #
loop $-1 $-1 $266 $107 #
plane-surface $-1 43.98107631933194 10.116723268150778 132.96775445716764 0 1 0 0.69465837861970381 0 0.71933979245794832 forward_v I I I I #
coedge $-1 $267 $268 $269 $270 reversed $108 $-1 #
coedge $-1 $176 $110 $271 $272 reversed $69 $-1 #
coedge $-1 $110 $175 $267 $273 reversed $69 $-1 #
coedge $-1 $269 $274 $110 $178 forward $275 $-1 #
edge $-1 $276 -24.274301465566733 $277 -19.294368899900956 $177 $278 forward 7 unknown #
loop $-1 $-1 $184 $111 #
plane-surface $-1 -20.295440642997612 14.997081039213455 66.407474188937329 0.69465837861970381 0 0.71933979245794832 0.71933979245794832 0 -0.69465837861970381 forward_v I I I I #
loop $-1 $-1 $279 $71 #
coedge $-1 $182 $182 $183 $280 reversed $112 $-1 #
coedge $-1 $183 $183 $182 $280 forward $114 $-1 #
coedge $-1 $184 $184 $115 $185 forward $179 $-1 #
edge $-1 $281 0 $281 6.2831853071796004 $184 $282 forward 7 unknown #
loop $-1 $-1 $191 $116 #
plane-surface $-1 -20.295440642997612 14.997081039213455 66.407474188937329 0.69465837861970381 0 0.71933979245794832 0.71933979245794832 0 -0.69465837861970381 forward_v I I I I #
loop $-1 $-1 $283 $74 #
coedge $-1 $189 $189 $190 $284 reversed $117 $-1 #
coedge $-1 $190 $190 $189 $284 forward $119 $-1 #
coedge $-1 $191 $191 $120 $192 forward $186 $-1 #
edge $-1 $285 0 $285 6.2831853071796004 $191 $286 forward 7 unknown #
loop $-1 $-1 $198 $121 #
plane-surface $-1 -20.295440642997612 14.997081039213455 66.407474188937329 0.69465837861970381 0 0.71933979245794832 0.71933979245794832 0 -0.69465837861970381 forward_v I I I I #
loop $-1 $-1 $287 $77 #
coedge $-1 $196 $196 $197 $288 reversed $122 $-1 #
coedge $-1 $197 $197 $196 $288 forward $124 $-1 #
coedge $-1 $198 $198 $125 $199 forward $193 $-1 #
edge $-1 $289 0 $289 6.2831853071796004 $198 $290 forward 7 unknown #
face $-1 $291 $292 $30 $-1 $293 reversed single #
loop $-1 $-1 $294 $126 #
plane-surface $-1 -46.264839625232703 0 0 1 0 0 0 0 -1 forward_v I I I I #
coedge $-1 $211 $295 $213 $296 reversed $127 $-1 #
coedge $-1 $297 $129 $295 $298 forward $81 $-1 #
coedge $-1 $129 $297 $299 $300 forward $81 $-1 #
coedge $-1 $214 $213 $129 $207 reversed $215 $-1 #
edge $-1 $301 -24.694442337638321 $302 24.694442337638321 $206 $303 forward 7 unknown #
coedge $-1 $131 $130 $304 $305 forward $51 $-1 #
coedge $-1 $306 $307 $130 $210 reversed $292 $-1 #
edge $-1 $217 -46.264839625232703 $308 46.264839625232703 $209 $309 forward 7 unknown #
coedge $-1 $310 $203 $131 $212 reversed $127 $-1 #
edge $-1 $311 -46.264839625232703 $216 46.264839625232703 $211 $312 forward 7 unknown #
coedge $-1 $206 $132 $203 $296 forward $215 $-1 #
coedge $-1 $132 $206 $306 $313 reversed $215 $-1 #
loop $-1 $-1 $213 $291 #
vertex $-1 $133 $314 #
vertex $-1 $133 $315 #
straight-curve $-1 46.264839625232703 0 6.9400223137488934 0 1 0 I I #
face $-1 $316 $317 $31 $-1 $318 reversed single #
loop $-1 $-1 $231 $134 #
plane-surface $-1 0 -28.373787289306826 -3.0715110810872668 0 0 1 1 0 0 forward_v I I I I #
coedge $-1 $319 $320 $138 $227 forward $135 $-1 #
coedge $-1 $321 $137 $320 $322 forward $85 $-1 #
coedge $-1 $137 $321 $323 $324 forward $85 $-1 #
coedge $-1 $139 $138 $137 $226 reversed $54 $-1 #
edge $-1 $325 -46.264839625232703 $326 46.264839625232703 $137 $327 forward 7 unknown #
edge $-1 $326 -6.9400223137488934 $233 -3.0715110810872668 $222 $328 forward 7 unknown #
coedge $-1 $323 $329 $139 $229 forward $330 $-1 #
edge $-1 $232 3.0715110810872668 $325 6.9400223137488934 $228 $331 forward 7 unknown #
coedge $-1 $332 $140 $329 $333 forward $220 $-1 #
coedge $-1 $140 $332 $319 $334 forward $220 $-1 #
vertex $-1 $229 $335 #
vertex $-1 $334 $336 #
straight-curve $-1 0 -24.694442337638321 -3.0715110810872668 1 0 0 I I #
face $-1 $-1 $247 $32 $-1 $337 forward single #
loop $-1 $-1 $338 $142 #
plane-surface $-1 46.264839625232703 0 0 -1 0 0 0 0 1 forward_v I I I I #
coedge $-1 $339 $340 $341 $342 reversed $143 $-1 #
coedge $-1 $343 $145 $147 $245 forward $89 $-1 #
coedge $-1 $145 $343 $339 $344 forward $89 $-1 #
coedge $-1 $341 $148 $145 $242 forward $247 $-1 #
edge $-1 $249 -1.8713495976844943 $345 7.8893659444408595 $241 $346 forward 7 unknown #
coedge $-1 $347 $348 $146 $244 forward $236 $-1 #
edge $-1 $349 -64.352920001976045 $248 -59.543854914834931 $243 $350 forward 7 unknown #
edge $-1 $249 85.606758236114743 $349 92.529679250465406 $147 $351 forward 7 unknown #
coedge $-1 $148 $341 $347 $352 forward $247 $-1 #
loop $-1 $-1 $341 $235 #
vertex $-1 $244 $353 #
vertex $-1 $149 $354 #
straight-curve $-1 21.99053815966597 -1.1376585756936883 6.9400223137488908 -1 0 0 I I #
coedge $-1 $251 $251 $-1 $355 reversed $152 $-1 #
edge $-1 $356 0 $356 6.2831853071796004 $153 $357 forward 7 unknown #
vertex $-1 $156 $358 #
ellipse-curve $-1 43.774873342399815 -8.946231009393971 4.535489770178331 0.69465837861970381 0 0.71933979245794832 0.35966989622897416 0 -0.3473291893098519 1 I I #
coedge $-1 $255 $255 $-1 $359 reversed $159 $-1 #
edge $-1 $360 0 $360 6.2831853071796004 $160 $361 forward 7 unknown #
vertex $-1 $163 $362 #
ellipse-curve $-1 43.774873342399815 -6.0180163467563652 4.535489770178331 0.69465837861970381 0 0.71933979245794832 0.35966989622897416 0 -0.3473291893098519 1 I I #
coedge $-1 $259 $259 $-1 $363 reversed $166 $-1 #
edge $-1 $364 0 $364 6.2831853071796004 $167 $365 forward 7 unknown #
vertex $-1 $170 $366 #
ellipse-curve $-1 43.774873342399815 -3.0898016841187612 4.535489770178331 0.69465837861970381 0 0.71933979245794832 0.35966989622897416 0 -0.3473291893098519 1 I I #
face $-1 $-1 $275 $36 $-1 $367 forward single #
loop $-1 $-1 $368 $171 #
plane-surface $-1 46.264839625232703 0 0 -1 0 0 0 0 1 forward_v I I I I #
coedge $-1 $369 $370 $371 $372 reversed $172 $-1 #
coedge $-1 $373 $174 $176 $273 forward $108 $-1 #
coedge $-1 $174 $373 $369 $374 forward $108 $-1 #
coedge $-1 $371 $177 $174 $270 forward $275 $-1 #
edge $-1 $277 -12.378898290669405 $375 -2.6181827485440508 $269 $376 forward 7 unknown #
coedge $-1 $377 $378 $175 $272 forward $264 $-1 #
edge $-1 $379 -64.352920001976045 $276 -59.543854914834931 $271 $380 forward 7 unknown #
edge $-1 $277 85.606758236114743 $379 92.529679250465406 $176 $381 forward 7 unknown #
coedge $-1 $177 $371 $377 $382 forward $275 $-1 #
loop $-1 $-1 $371 $263 #
vertex $-1 $272 $383 #
vertex $-1 $178 $384 #
straight-curve $-1 21.99053815966597 19.877438810276132 6.9400223137488908 -1 0 0 I I #
coedge $-1 $279 $279 $-1 $385 reversed $181 $-1 #
edge $-1 $386 0 $386 6.2831853071796004 $182 $387 forward 7 unknown #
vertex $-1 $185 $388 #
ellipse-curve $-1 43.774873342399815 12.068866376575848 4.535489770178331 0.69465837861970381 0 0.71933979245794832 0.35966989622897416 0 -0.3473291893098519 1 I I #
coedge $-1 $283 $283 $-1 $389 reversed $188 $-1 #
edge $-1 $390 0 $390 6.2831853071796004 $189 $391 forward 7 unknown #
vertex $-1 $192 $392 #
ellipse-curve $-1 43.774873342399815 14.997081039213455 4.535489770178331 0.69465837861970381 0 0.71933979245794832 0.35966989622897416 0 -0.3473291893098519 1 I I #
coedge $-1 $287 $287 $-1 $393 reversed $195 $-1 #
edge $-1 $394 0 $394 6.2831853071796004 $196 $395 forward 7 unknown #
vertex $-1 $199 $396 #
ellipse-curve $-1 43.774873342399815 17.925295701851056 4.535489770178331 0.69465837861970381 0 0.71933979245794832 0.35966989622897416 0 -0.3473291893098519 1 I I #
face $-1 $-1 $215 $30 $-1 $397 reversed single #
loop $-1 $-1 $306 $200 #
plane-surface $-1 0 24.694442337638321 0 0 -1 0 0 0 -1 forward_v I I I I #
coedge $-1 $398 $304 $307 $399 forward $201 $-1 #
coedge $-1 $203 $310 $204 $298 reversed $127 $-1 #
edge $-1 $216 -6.9400223137488934 $302 6.9400223137488934 $213 $400 forward 7 unknown #
coedge $-1 $205 $204 $398 $401 forward $81 $-1 #
edge $-1 $302 -46.264839625232703 $402 46.264839625232703 $295 $403 forward 7 unknown #
coedge $-1 $307 $306 $205 $300 reversed $292 $-1 #
edge $-1 $404 -46.264839625232703 $301 46.264839625232703 $299 $405 forward 7 unknown #
vertex $-1 $207 $406 #
vertex $-1 $296 $407 #
straight-curve $-1 46.264839625232703 0 -6.9400223137488934 0 -1 0 I I #
coedge $-1 $294 $408 $208 $305 reversed $201 $-1 #
edge $-1 $308 -24.694442337638321 $311 24.694442337638321 $304 $409 forward 7 unknown #
coedge $-1 $299 $209 $214 $313 forward $292 $-1 #
coedge $-1 $209 $299 $294 $399 reversed $292 $-1 #
vertex $-1 $210 $410 #
straight-curve $-1 0 24.694442337638321 6.9400223137488934 -1 0 0 I I #
coedge $-1 $295 $211 $408 $411 forward $127 $-1 #
vertex $-1 $305 $412 #
straight-curve $-1 0 -24.694442337638321 6.9400223137488934 1 0 0 I I #
edge $-1 $217 -6.9400223137488934 $301 6.9400223137488934 $214 $413 forward 7 unknown #
point $-1 46.264839625232703 -24.694442337638321 6.9400223137488934 #
point $-1 46.264839625232703 24.694442337638321 6.9400223137488934 #
face $-1 $-1 $330 $31 $-1 $414 reversed single #
loop $-1 $-1 $415 $219 #
plane-surface $-1 0 -32.05313224097533 -5.0057666974180801 0 1 0 0 0 1 forward_v I I I I #
coedge $-1 $416 $222 $231 $334 reversed $135 $-1 #
coedge $-1 $222 $416 $223 $322 reversed $135 $-1 #
coedge $-1 $224 $223 $417 $418 forward $85 $-1 #
edge $-1 $326 24.694442337638321 $419 32.05313224097533 $320 $420 forward 7 unknown #
coedge $-1 $421 $228 $224 $324 reversed $330 $-1 #
edge $-1 $422 -32.05313224097533 $325 -24.694442337638321 $323 $423 forward 7 unknown #
vertex $-1 $229 $424 #
vertex $-1 $322 $425 #
straight-curve $-1 0 -24.694442337638321 -6.9400223137488934 1 0 0 I I #
straight-curve $-1 46.264839625232703 -24.694442337638321 0 0 0 1 I I #
coedge $-1 $228 $421 $230 $333 reversed $330 $-1 #
loop $-1 $-1 $228 $316 #
straight-curve $-1 -46.264839625232703 -24.694442337638321 0 0 0 -1 I I #
coedge $-1 $231 $230 $426 $427 forward $220 $-1 #
edge $-1 $232 -3.6793449516685044 $428 3.6793449516685044 $329 $429 forward 7 unknown #
edge $-1 $430 -3.6793449516685044 $233 3.6793449516685044 $319 $431 forward 7 unknown #
point $-1 -46.264839625232703 -24.694442337638321 -3.0715110810872668 #
point $-1 46.264839625232703 -24.694442337638321 -3.0715110810872668 #
plane-surface $-1 0 0 6.9400223137488934 0 0 1 1 0 0 forward_v I I I I #
coedge $-1 $348 $347 $340 $432 forward $236 $-1 #
coedge $-1 $340 $238 $240 $344 reversed $143 $-1 #
coedge $-1 $238 $339 $338 $432 reversed $143 $-1 #
coedge $-1 $246 $241 $238 $342 forward $247 $-1 #
edge $-1 $345 19.294368899900956 $433 24.274301465566733 $341 $434 forward 7 unknown #
coedge $-1 $240 $239 $348 $435 reversed $89 $-1 #
edge $-1 $436 -92.529679250465406 $345 -85.606758236114743 $339 $437 forward 7 unknown #
vertex $-1 $242 $438 #
straight-curve $-1 41.284907059566926 -3.0090081733781826 6.9400223137488908 0 -1 0 I I #
coedge $-1 $338 $243 $246 $352 reversed $236 $-1 #
coedge $-1 $243 $338 $343 $435 forward $236 $-1 #
vertex $-1 $244 $439 #
straight-curve $-1 46.264839625232703 -1.1376585756936883 66.483877228583822 0 0 1 I I #
straight-curve $-1 -20.295440642997612 -1.1376585756936883 66.407474188937329 0.71933979245794832 0 -0.69465837861970381 I I #
edge $-1 $433 -10.898374117819042 $248 -1.1376585756936883 $347 $440 forward 7 unknown #
point $-1 46.264839625232703 -1.1376585756936883 6.9400223137488934 #
point $-1 41.284907059566926 -1.1376585756936883 6.9400223137488837 #
edge $-1 $441 1 $441 0 $251 $-1 forward 7 unknown #
vertex $-1 $252 $442 #
ellipse-curve $-1 42.831613887182208 -8.946231009393971 3.5587160327068776 0.69465837861970381 0 0.71933979245794832 0.35966989622897416 0 -0.3473291893098519 1 I I #
point $-1 44.134543238628808 -8.946231009393971 4.1881605808684981 #
edge $-1 $443 1 $443 0 $255 $-1 forward 7 unknown #
vertex $-1 $256 $444 #
ellipse-curve $-1 42.831613887182208 -6.0180163467563652 3.5587160327068776 0.69465837861970381 0 0.71933979245794832 0.35966989622897416 0 -0.3473291893098519 1 I I #
point $-1 44.134543238628808 -6.0180163467563652 4.1881605808684981 #
edge $-1 $445 1 $445 0 $259 $-1 forward 7 unknown #
vertex $-1 $260 $446 #
ellipse-curve $-1 42.831613887182208 -3.0898016841187612 3.5587160327068776 0.69465837861970381 0 0.71933979245794832 0.35966989622897416 0 -0.3473291893098519 1 I I #
point $-1 44.134543238628808 -3.0898016841187612 4.1881605808684981 #
plane-surface $-1 0 0 6.9400223137488934 0 0 1 1 0 0 forward_v I I I I #
coedge $-1 $378 $377 $370 $447 forward $264 $-1 #
coedge $-1 $370 $266 $268 $374 reversed $172 $-1 #
coedge $-1 $266 $369 $368 $447 reversed $172 $-1 #
coedge $-1 $274 $269 $266 $372 forward $275 $-1 #
edge $-1 $375 19.294368899900956 $448 24.274301465566733 $371 $449 forward 7 unknown #
coedge $-1 $268 $267 $378 $450 reversed $108 $-1 #
edge $-1 $451 -92.529679250465406 $375 -85.606758236114743 $369 $452 forward 7 unknown #
vertex $-1 $270 $453 #
straight-curve $-1 41.284907059566926 7.4985405196067276 6.9400223137488908 0 -1 0 I I #
coedge $-1 $368 $271 $274 $382 reversed $264 $-1 #
coedge $-1 $271 $368 $373 $450 forward $264 $-1 #
vertex $-1 $272 $454 #
straight-curve $-1 46.264839625232703 19.877438810276132 66.483877228583822 0 0 1 I I #
straight-curve $-1 -20.295440642997612 19.877438810276132 66.407474188937329 0.71933979245794832 0 -0.69465837861970381 I I #
edge $-1 $448 10.116723268150778 $276 19.877438810276132 $377 $455 forward 7 unknown #
point $-1 46.264839625232703 19.877438810276132 6.9400223137488934 #
point $-1 41.284907059566926 19.877438810276132 6.9400223137488837 #
edge $-1 $456 1 $456 0 $279 $-1 forward 7 unknown #
vertex $-1 $280 $457 #
ellipse-curve $-1 42.831613887182208 12.068866376575848 3.5587160327068776 0.69465837861970381 0 0.71933979245794832 0.35966989622897416 0 -0.3473291893098519 1 I I #
point $-1 44.134543238628808 12.068866376575848 4.1881605808684981 #
edge $-1 $458 1 $458 0 $283 $-1 forward 7 unknown #
vertex $-1 $284 $459 #
ellipse-curve $-1 42.831613887182208 14.997081039213455 3.5587160327068776 0.69465837861970381 0 0.71933979245794832 0.35966989622897416 0 -0.3473291893098519 1 I I #
point $-1 44.134543238628808 14.997081039213455 4.1881605808684981 #
edge $-1 $460 1 $460 0 $287 $-1 forward 7 unknown #
vertex $-1 $288 $461 #
ellipse-curve $-1 42.831613887182208 17.925295701851056 3.5587160327068776 0.69465837861970381 0 0.71933979245794832 0.35966989622897416 0 -0.3473291893098519 1 I I #
point $-1 44.134543238628808 17.925295701851056 4.1881605808684981 #
plane-surface $-1 46.264839625232703 0 0 -1 0 0 0 0 1 forward_v I I I I #
coedge $-1 $408 $294 $297 $401 reversed $201 $-1 #
edge $-1 $308 -6.9400223137488934 $404 6.9400223137488934 $307 $462 forward 7 unknown #
straight-curve $-1 46.264839625232703 -24.694442337638321 0 0 0 -1 I I #
edge $-1 $402 -24.694442337638321 $404 24.694442337638321 $398 $463 forward 7 unknown #
vertex $-1 $401 $464 #
straight-curve $-1 0 -24.694442337638321 -6.9400223137488934 -1 0 0 I I #
vertex $-1 $300 $465 #
straight-curve $-1 0 24.694442337638321 -6.9400223137488934 1 0 0 I I #
point $-1 46.264839625232703 24.694442337638321 -6.9400223137488934 #
point $-1 46.264839625232703 -24.694442337638321 -6.9400223137488934 #
coedge $-1 $304 $398 $310 $411 reversed $201 $-1 #
straight-curve $-1 -46.264839625232703 0 6.9400223137488934 0 -1 0 I I #
point $-1 -46.264839625232703 24.694442337638321 6.9400223137488934 #
edge $-1 $311 -6.9400223137488934 $402 6.9400223137488934 $408 $466 forward 7 unknown #
point $-1 -46.264839625232703 -24.694442337638321 6.9400223137488934 #
straight-curve $-1 46.264839625232703 24.694442337638321 0 0 0 -1 I I #
plane-surface $-1 -46.264839625232703 0 0 1 0 0 0 0 -1 forward_v I I I I #
coedge $-1 $417 $426 $421 $467 forward $317 $-1 #
coedge $-1 $320 $319 $468 $469 forward $135 $-1 #
coedge $-1 $468 $415 $321 $418 reversed $317 $-1 #
edge $-1 $419 -46.264839625232703 $422 46.264839625232703 $417 $470 forward 7 unknown #
vertex $-1 $469 $471 #
straight-curve $-1 46.264839625232703 0 -6.9400223137488934 0 -1 0 I I #
coedge $-1 $329 $323 $415 $467 reversed $330 $-1 #
vertex $-1 $324 $472 #
straight-curve $-1 -46.264839625232703 0 -6.9400223137488934 0 1 0 I I #
point $-1 -46.264839625232703 -24.694442337638321 -6.9400223137488934 #
point $-1 46.264839625232703 -24.694442337638321 -6.9400223137488934 #
coedge $-1 $415 $468 $332 $427 reversed $317 $-1 #
edge $-1 $428 -46.264839625232703 $430 46.264839625232703 $426 $473 forward 7 unknown #
vertex $-1 $333 $474 #
straight-curve $-1 -46.264839625232703 -28.373787289306826 -3.0715110810872668 0 -1 0 I I #
vertex $-1 $334 $475 #
straight-curve $-1 46.264839625232703 -28.373787289306826 -3.0715110810872668 0 1 0 I I #
edge $-1 $433 59.543854914834931 $436 64.352920001976045 $338 $476 forward 7 unknown #
vertex $-1 $352 $477 #
straight-curve $-1 21.99053815966597 -10.898374117819042 6.9400223137488908 1 0 0 I I #
edge $-1 $436 -7.8893659444408595 $349 1.8713495976844943 $348 $478 forward 7 unknown #
vertex $-1 $435 $479 #
straight-curve $-1 -20.295440642997612 -10.898374117819042 66.407474188937329 -0.71933979245794832 0 0.69465837861970381 I I #
point $-1 41.284907059566926 -10.898374117819042 6.9400223137488837 #
point $-1 46.264839625232703 -1.1376585756936883 2.1309572266077765 #
straight-curve $-1 46.264839625232703 0 6.9400223137488934 0 1 0 I I #
vertex $-1 $355 $480 #
point $-1 43.191283783411187 -8.946231009393971 3.2113868433970261 #
vertex $-1 $359 $481 #
point $-1 43.191283783411187 -6.0180163467563652 3.2113868433970261 #
vertex $-1 $363 $482 #
point $-1 43.191283783411187 -3.0898016841187612 3.2113868433970261 #
edge $-1 $448 59.543854914834931 $451 64.352920001976045 $368 $483 forward 7 unknown #
vertex $-1 $382 $484 #
straight-curve $-1 21.99053815966597 10.116723268150778 6.9400223137488908 1 0 0 I I #
edge $-1 $451 2.6181827485440508 $379 12.378898290669405 $378 $485 forward 7 unknown #
vertex $-1 $450 $486 #
straight-curve $-1 -20.295440642997612 10.116723268150778 66.407474188937329 -0.71933979245794832 0 0.69465837861970381 I I #
point $-1 41.284907059566926 10.116723268150778 6.9400223137488837 #
point $-1 46.264839625232703 19.877438810276132 2.1309572266077765 #
straight-curve $-1 46.264839625232703 0 6.9400223137488934 0 1 0 I I #
vertex $-1 $385 $487 #
point $-1 43.191283783411187 12.068866376575848 3.2113868433970261 #
vertex $-1 $389 $488 #
point $-1 43.191283783411187 14.997081039213455 3.2113868433970261 #
vertex $-1 $393 $489 #
point $-1 43.191283783411187 17.925295701851056 3.2113868433970261 #
straight-curve $-1 -46.264839625232703 24.694442337638321 0 0 0 -1 I I #
straight-curve $-1 -46.264839625232703 0 -6.9400223137488934 0 1 0 I I #
point $-1 -46.264839625232703 -24.694442337638321 -6.9400223137488934 #
point $-1 -46.264839625232703 24.694442337638321 -6.9400223137488934 #
straight-curve $-1 -46.264839625232703 -24.694442337638321 0 0 0 -1 I I #
edge $-1 $428 -1.9342556163308133 $422 1.9342556163308133 $421 $490 forward 7 unknown #
coedge $-1 $426 $417 $416 $469 reversed $317 $-1 #
edge $-1 $430 -1.9342556163308133 $419 1.9342556163308133 $416 $491 forward 7 unknown #
straight-curve $-1 0 -32.05313224097533 -6.9400223137488934 -1 0 0 I I #
point $-1 46.264839625232703 -32.05313224097533 -6.9400223137488934 #
point $-1 -46.264839625232703 -32.05313224097533 -6.9400223137488934 #
straight-curve $-1 0 -32.05313224097533 -3.0715110810872668 1 0 0 I I #
point $-1 -46.264839625232703 -32.05313224097533 -3.0715110810872668 #
point $-1 46.264839625232703 -32.05313224097533 -3.0715110810872668 #
straight-curve $-1 46.264839625232703 -10.898374117819042 66.483877228583822 0 0 -1 I I #
point $-1 46.264839625232703 -10.898374117819042 6.9400223137488934 #
straight-curve $-1 46.264839625232703 -3.0090081733781826 2.1309572266077765 0 1 0 I I #
point $-1 46.264839625232703 -10.898374117819042 2.1309572266077765 #
point $-1 42.484284697872361 -8.946231009393971 3.1990461364779037 #
point $-1 42.484284697872361 -6.0180163467563652 3.1990461364779037 #
point $-1 42.484284697872361 -3.0898016841187612 3.1990461364779037 #
straight-curve $-1 46.264839625232703 10.116723268150778 66.483877228583822 0 0 -1 I I #
point $-1 46.264839625232703 10.116723268150778 6.9400223137488934 #
straight-curve $-1 46.264839625232703 7.4985405196067276 2.1309572266077765 0 1 0 I I #
point $-1 46.264839625232703 10.116723268150778 2.1309572266077765 #
point $-1 42.484284697872361 12.068866376575848 3.1990461364779037 #
point $-1 42.484284697872361 14.997081039213455 3.1990461364779037 #
point $-1 42.484284697872361 17.925295701851056 3.1990461364779037 #
straight-curve $-1 -46.264839625232703 -32.05313224097533 -5.0057666974180801 0 0 -1 I I #
straight-curve $-1 46.264839625232703 -32.05313224097533 -5.0057666974180801 0 0 -1 I I #
End-of-ACIS-data 