500 0 18 0           
7 Unknown 11 ACIS 5.0 NT 24 Thu Mar 25 20:26:21 1999 
-1 9.9999999999999995e-007 1e-010 
body $-1 $18 $-1 $19 #
body $-1 $20 $-1 $21 #
body $-1 $22 $-1 $23 #
body $-1 $24 $-1 $25 #
body $-1 $26 $-1 $27 #
body $-1 $28 $-1 $29 #
body $-1 $30 $-1 $31 #
body $-1 $32 $-1 $33 #
body $-1 $34 $-1 $35 #
body $-1 $36 $-1 $37 #
body $-1 $38 $-1 $39 #
body $-1 $40 $-1 $41 #
body $-1 $42 $-1 $43 #
body $-1 $44 $-1 $45 #
body $-1 $46 $-1 $47 #
body $-1 $48 $-1 $49 #
body $-1 $50 $-1 $51 #
body $-1 $52 $-1 $53 #
lump $-1 $-1 $54 $0 #
transform $-1 1 0 0 0 1 0 0 0 1 41.073030793176059 21.223050598633456 10.261769529082589 1 rotate no_reflect no_shear #
lump $-1 $-1 $55 $1 #
transform $-1 1 0 0 0 1 0 0 0 1 41.073030793176059 21.223050598633456 10.261769529082589 1 rotate no_reflect no_shear #
lump $-1 $-1 $56 $2 #
transform $-1 1 0 0 0 1 0 0 0 1 41.073030793176059 21.223050598633456 10.261769529082589 1 rotate no_reflect no_shear #
lump $-1 $-1 $57 $3 #
transform $-1 1 0 0 0 1 0 0 0 1 41.073030793176059 21.223050598633456 10.261769529082589 1 rotate no_reflect no_shear #
lump $-1 $-1 $58 $4 #
transform $-1 1 0 0 0 1 0 0 0 1 41.073030793176059 21.223050598633456 10.261769529082589 1 rotate no_reflect no_shear #
lump $-1 $-1 $59 $5 #
transform $-1 1 0 0 0 1 0 0 0 1 41.073030793176059 21.223050598633456 10.261769529082589 1 rotate no_reflect no_shear #
lump $-1 $-1 $60 $6 #
transform $-1 1 0 0 0 1 0 0 0 1 41.073030793176059 21.223050598633456 10.261769529082589 1 rotate no_reflect no_shear #
lump $-1 $-1 $61 $7 #
transform $-1 1 0 0 0 1 0 0 0 1 41.073030793176059 21.223050598633456 10.261769529082589 1 rotate no_reflect no_shear #
lump $-1 $-1 $62 $8 #
transform $-1 1 0 0 0 1 0 0 0 1 41.073030793176059 21.223050598633456 10.261769529082589 1 rotate no_reflect no_shear #
lump $-1 $-1 $63 $9 #
transform $-1 1 0 0 0 1 0 0 0 1 41.073030793176059 21.223050598633456 10.261769529082589 1 rotate no_reflect no_shear #
lump $-1 $-1 $64 $10 #
transform $-1 1 0 0 0 1 0 0 0 1 41.073030793176059 21.223050598633456 10.261769529082589 1 rotate no_reflect no_shear #
lump $-1 $-1 $65 $11 #
transform $-1 1 0 0 0 1 0 0 0 1 41.073030793176059 21.223050598633456 10.261769529082589 1 rotate no_reflect no_shear #
lump $-1 $-1 $66 $12 #
transform $-1 1 0 0 0 1 0 0 0 1 41.073030793176059 21.223050598633456 10.261769529082589 1 rotate no_reflect no_shear #
lump $-1 $-1 $67 $13 #
transform $-1 1 0 0 0 1 0 0 0 1 41.073030793176059 21.223050598633456 10.261769529082589 1 rotate no_reflect no_shear #
lump $-1 $-1 $68 $14 #
transform $-1 1 0 0 0 1 0 0 0 1 41.073030793176059 21.223050598633456 10.261769529082589 1 rotate no_reflect no_shear #
lump $-1 $-1 $69 $15 #
transform $-1 1 0 0 0 1 0 0 0 1 41.073030793176059 21.223050598633456 10.261769529082589 1 rotate no_reflect no_shear #
lump $-1 $-1 $70 $16 #
transform $-1 1 0 0 0 1 0 0 0 1 41.073030793176059 21.223050598633456 10.261769529082589 1 rotate no_reflect no_shear #
lump $-1 $-1 $71 $17 #
transform $-1 1 0 0 0 1 0 0 0 1 41.073030793176059 21.223050598633456 10.261769529082589 1 rotate no_reflect no_shear #
shell $-1 $-1 $-1 $72 $-1 $18 #
shell $-1 $-1 $-1 $73 $-1 $20 #
shell $-1 $-1 $-1 $74 $-1 $22 #
shell $-1 $-1 $-1 $75 $-1 $24 #
shell $-1 $-1 $-1 $76 $-1 $26 #
shell $-1 $-1 $-1 $77 $-1 $28 #
shell $-1 $-1 $-1 $78 $-1 $30 #
shell $-1 $-1 $-1 $79 $-1 $32 #
shell $-1 $-1 $-1 $80 $-1 $34 #
shell $-1 $-1 $-1 $81 $-1 $36 #
shell $-1 $-1 $-1 $82 $-1 $38 #
shell $-1 $-1 $-1 $83 $-1 $40 #
shell $-1 $-1 $-1 $84 $-1 $42 #
shell $-1 $-1 $-1 $85 $-1 $44 #
shell $-1 $-1 $-1 $86 $-1 $46 #
shell $-1 $-1 $-1 $87 $-1 $48 #
shell $-1 $-1 $-1 $88 $-1 $50 #
shell $-1 $-1 $-1 $89 $-1 $52 #
face $-1 $90 $91 $54 $-1 $92 forward single #
face $-1 $93 $94 $55 $-1 $95 forward single #
face $-1 $96 $97 $56 $-1 $98 reversed single #
face $-1 $99 $100 $57 $-1 $101 forward single #
face $-1 $102 $103 $58 $-1 $104 forward single #
face $-1 $105 $106 $59 $-1 $107 forward single #
face $-1 $108 $109 $60 $-1 $110 reversed single #
face $-1 $111 $112 $61 $-1 $113 forward single #
face $-1 $114 $115 $62 $-1 $116 forward single #
face $-1 $117 $118 $63 $-1 $119 reversed single #
face $-1 $120 $121 $64 $-1 $122 forward single #
face $-1 $123 $124 $65 $-1 $125 forward single #
face $-1 $126 $127 $66 $-1 $128 reversed single #
face $-1 $129 $130 $67 $-1 $131 forward single #
face $-1 $132 $133 $68 $-1 $134 forward single #
face $-1 $135 $136 $69 $-1 $137 reversed single #
face $-1 $138 $139 $70 $-1 $140 forward single #
face $-1 $141 $142 $71 $-1 $143 forward single #
face $-1 $144 $145 $54 $-1 $146 reversed single #
loop $-1 $-1 $147 $72 #
plane-surface $-1 0 0 10.261769529082589 0 0 1 1 0 0 forward_v I I I I #
face $-1 $148 $149 $55 $-1 $150 reversed single #
loop $-1 $-1 $151 $73 #
plane-surface $-1 -35.923126977043189 0 7.9776716465354092 0 0 1 1 0 0 forward_v I I I I #
face $-1 $152 $153 $56 $-1 $154 reversed single #
loop $-1 $-1 $155 $74 #
plane-surface $-1 2.2023324928779147 49.295162824777286 88.178194150198664 1 0 0 0 -0.70710678939079041 -0.70710677298230451 forward_v I I I I #
face $-1 $156 $157 $57 $-1 $158 forward single #
loop $-1 $159 $160 $75 #
cone-surface $-1 5.9107455094051033 15.270008392827865 4.3087272251079121 0 -0.70710678939079041 -0.70710677298230451 1 0 0 1 I I 0 1 1 forward I I I I #
face $-1 $161 $162 $58 $-1 $163 forward single #
loop $-1 $164 $165 $76 #
cone-surface $-1 11.473365034195879 15.270008392827865 4.3087272251079121 0 -0.70710678939079041 -0.70710677298230451 1 0 0 1 I I 0 1 1 forward I I I I #
face $-1 $166 $167 $59 $-1 $168 forward single #
loop $-1 $169 $170 $77 #
cone-surface $-1 17.035984558986655 15.270008392827865 4.3087272251079121 0 -0.70710678939079041 -0.70710677298230451 1 0 0 1 I I 0 1 1 forward I I I I #
face $-1 $171 $172 $60 $-1 $173 reversed single #
loop $-1 $-1 $174 $78 #
plane-surface $-1 -15.595145556084894 -82.269471880146099 59.906981837822386 -1 0 0 0 -0.74314483375859142 0.66913059716165679 forward_v I I I I #
face $-1 $175 $176 $61 $-1 $177 forward single #
loop $-1 $178 $179 $79 #
cone-surface $-1 -22.28845501305663 -17.436080513028806 6.3483848331024788 0 0.74314483375859142 -0.66913059716165679 1 0 0 1 I I 0 1 1 forward I I I I #
face $-1 $180 $181 $62 $-1 $182 forward single #
loop $-1 $183 $184 $80 #
cone-surface $-1 -18.272469338873588 -17.436080513028806 6.3483848331024788 0 0.74314483375859142 -0.66913059716165679 1 0 0 1 I I 0 1 1 forward I I I I #
face $-1 $185 $186 $63 $-1 $187 reversed single #
loop $-1 $-1 $188 $81 #
plane-surface $-1 1.358431771980424 -82.269471880146099 59.906981837822386 -1 0 0 0 -0.74314483375859142 0.66913059716165679 forward_v I I I I #
face $-1 $189 $190 $64 $-1 $191 forward single #
loop $-1 $192 $193 $82 #
cone-surface $-1 -5.3348776849913122 -17.436080513028806 6.3483848331024788 0 0.74314483375859142 -0.66913059716165679 1 0 0 1 I I 0 1 1 forward I I I I #
face $-1 $194 $195 $65 $-1 $196 forward single #
loop $-1 $197 $198 $83 #
cone-surface $-1 -1.3188920108082698 -17.436080513028806 6.3483848331024788 0 0.74314483375859142 -0.66913059716165679 1 0 0 1 I I 0 1 1 forward I I I I #
face $-1 $199 $200 $66 $-1 $201 reversed single #
loop $-1 $-1 $202 $84 #
plane-surface $-1 18.312009100045746 -82.269471880146099 59.906981837822386 -1 0 0 0 -0.74314483375859142 0.66913059716165679 forward_v I I I I #
face $-1 $203 $204 $67 $-1 $205 forward single #
loop $-1 $206 $207 $85 #
cone-surface $-1 11.618699643074009 -17.436080513028806 6.3483848331024788 0 0.74314483375859142 -0.66913059716165679 1 0 0 1 I I 0 1 1 forward I I I I #
face $-1 $208 $209 $68 $-1 $210 forward single #
loop $-1 $211 $212 $86 #
cone-surface $-1 15.634685317257052 -17.436080513028806 6.3483848331024788 0 0.74314483375859142 -0.66913059716165679 1 0 0 1 I I 0 1 1 forward I I I I #
face $-1 $213 $214 $69 $-1 $215 reversed single #
loop $-1 $-1 $216 $87 #
plane-surface $-1 35.265586428111064 -82.269471880146099 59.906981837822386 -1 0 0 0 -0.74314483375859142 0.66913059716165679 forward_v I I I I #
face $-1 $217 $218 $70 $-1 $219 forward single #
loop $-1 $220 $221 $88 #
cone-surface $-1 28.572276971139331 -17.436080513028806 6.3483848331024788 0 0.74314483375859142 -0.66913059716165679 1 0 0 1 I I 0 1 1 forward I I I I #
face $-1 $222 $223 $71 $-1 $224 forward single #
loop $-1 $225 $226 $89 #
cone-surface $-1 32.588262645322374 -17.436080513028806 6.3483848331024788 0 0.74314483375859142 -0.66913059716165679 1 0 0 1 I I 0 1 1 forward I I I I #
face $-1 $227 $228 $54 $-1 $229 reversed single #
loop $-1 $-1 $230 $90 #
plane-surface $-1 0 0 -10.261769529082589 0 0 1 1 0 0 forward_v I I I I #
coedge $-1 $231 $232 $233 $234 forward $91 $-1 #
face $-1 $235 $236 $55 $-1 $237 reversed single #
loop $-1 $-1 $238 $93 #
plane-surface $-1 -35.923126977043189 0 4.9776716465354092 0 0 1 1 0 0 forward_v I I I I #
coedge $-1 $239 $240 $241 $242 forward $94 $-1 #
face $-1 $243 $244 $56 $-1 $245 reversed single #
loop $-1 $-1 $246 $96 #
plane-surface $-1 11.473365034195879 -8.7908750446462989 30.092157628667572 0 0.70710678939079041 0.70710677298230451 1 0 0 forward_v I I I I #
coedge $-1 $247 $248 $249 $250 reversed $97 $-1 #
face $-1 $-1 $251 $57 $-1 $252 forward single #
loop $-1 $253 $254 $99 #
cone-surface $-1 5.9107455094051033 14.055181794257358 3.0939006547275802 0 -0.70710678939079041 -0.70710677298230451 0.5 0 0 1 I I -0.70710678118654746 0.70710678118654746 0.5 forward I I I I #
loop $-1 $-1 $255 $75 #
coedge $-1 $160 $160 $256 $257 reversed $100 $-1 #
face $-1 $-1 $258 $58 $-1 $259 forward single #
loop $-1 $260 $261 $102 #
cone-surface $-1 11.473365034195879 14.055181794257358 3.0939006547275802 0 -0.70710678939079041 -0.70710677298230451 0.5 0 0 1 I I -0.70710678118654746 0.70710678118654746 0.5 forward I I I I #
loop $-1 $-1 $262 $76 #
coedge $-1 $165 $165 $263 $264 reversed $103 $-1 #
face $-1 $-1 $265 $59 $-1 $266 forward single #
loop $-1 $267 $268 $105 #
cone-surface $-1 17.035984558986655 14.055181794257358 3.0939006547275802 0 -0.70710678939079041 -0.70710677298230451 0.5 0 0 1 I I -0.70710678118654746 0.70710678118654746 0.5 forward I I I I #
loop $-1 $-1 $269 $77 #
coedge $-1 $170 $170 $270 $271 reversed $106 $-1 #
face $-1 $272 $273 $60 $-1 $274 reversed single #
loop $-1 $-1 $275 $108 #
plane-surface $-1 -20.280462175965109 -21.223050598633442 4.9405385940683573 0 -0.74314483375859142 0.66913059716165679 1 0 0 forward_v I I I I #
coedge $-1 $276 $277 $278 $279 reversed $109 $-1 #
face $-1 $-1 $280 $61 $-1 $281 forward single #
loop $-1 $282 $283 $111 #
cone-surface $-1 -22.28845501305663 -15.673166878186159 4.7610503060486522 0 0.74314483375859142 -0.66913059716165679 0.5 0 0 1 I I -0.70710678118654746 0.70710678118654746 0.5 forward I I I I #
loop $-1 $-1 $284 $79 #
coedge $-1 $179 $179 $285 $286 reversed $112 $-1 #
face $-1 $-1 $287 $62 $-1 $288 forward single #
loop $-1 $289 $290 $114 #
cone-surface $-1 -18.272469338873588 -15.673166878186159 4.7610503060486522 0 0.74314483375859142 -0.66913059716165679 0.5 0 0 1 I I -0.70710678118654746 0.70710678118654746 0.5 forward I I I I #
loop $-1 $-1 $291 $80 #
coedge $-1 $184 $184 $292 $293 reversed $115 $-1 #
face $-1 $294 $295 $63 $-1 $296 reversed single #
loop $-1 $-1 $297 $117 #
plane-surface $-1 -3.326884847899791 -21.223050598633442 4.9405385940683573 0 -0.74314483375859142 0.66913059716165679 1 0 0 forward_v I I I I #
coedge $-1 $298 $299 $300 $301 reversed $118 $-1 #
face $-1 $-1 $302 $64 $-1 $303 forward single #
loop $-1 $304 $305 $120 #
cone-surface $-1 -5.3348776849913122 -15.673166878186159 4.7610503060486522 0 0.74314483375859142 -0.66913059716165679 0.5 0 0 1 I I -0.70710678118654746 0.70710678118654746 0.5 forward I I I I #
loop $-1 $-1 $306 $82 #
coedge $-1 $193 $193 $307 $308 reversed $121 $-1 #
face $-1 $-1 $309 $65 $-1 $310 forward single #
loop $-1 $311 $312 $123 #
cone-surface $-1 -1.3188920108082698 -15.673166878186159 4.7610503060486522 0 0.74314483375859142 -0.66913059716165679 0.5 0 0 1 I I -0.70710678118654746 0.70710678118654746 0.5 forward I I I I #
loop $-1 $-1 $313 $83 #
coedge $-1 $198 $198 $314 $315 reversed $124 $-1 #
face $-1 $316 $317 $66 $-1 $318 reversed single #
loop $-1 $-1 $319 $126 #
plane-surface $-1 13.626692480165531 -21.223050598633442 4.9405385940683573 0 -0.74314483375859142 0.66913059716165679 1 0 0 forward_v I I I I #
coedge $-1 $320 $321 $322 $323 reversed $127 $-1 #
face $-1 $-1 $324 $67 $-1 $325 forward single #
loop $-1 $326 $327 $129 #
cone-surface $-1 11.618699643074009 -15.673166878186159 4.7610503060486522 0 0.74314483375859142 -0.66913059716165679 0.5 0 0 1 I I -0.70710678118654746 0.70710678118654746 0.5 forward I I I I #
loop $-1 $-1 $328 $85 #
coedge $-1 $207 $207 $329 $330 reversed $130 $-1 #
face $-1 $-1 $331 $68 $-1 $332 forward single #
loop $-1 $333 $334 $132 #
cone-surface $-1 15.634685317257052 -15.673166878186159 4.7610503060486522 0 0.74314483375859142 -0.66913059716165679 0.5 0 0 1 I I -0.70710678118654746 0.70710678118654746 0.5 forward I I I I #
loop $-1 $-1 $335 $86 #
coedge $-1 $212 $212 $336 $337 reversed $133 $-1 #
face $-1 $338 $339 $69 $-1 $340 reversed single #
loop $-1 $-1 $341 $135 #
plane-surface $-1 30.580269808230852 -21.223050598633442 4.9405385940683573 0 -0.74314483375859142 0.66913059716165679 1 0 0 forward_v I I I I #
coedge $-1 $342 $343 $344 $345 reversed $136 $-1 #
face $-1 $-1 $346 $70 $-1 $347 forward single #
loop $-1 $348 $349 $138 #
cone-surface $-1 28.572276971139331 -15.673166878186159 4.7610503060486522 0 0.74314483375859142 -0.66913059716165679 0.5 0 0 1 I I -0.70710678118654746 0.70710678118654746 0.5 forward I I I I #
loop $-1 $-1 $350 $88 #
coedge $-1 $221 $221 $351 $352 reversed $139 $-1 #
face $-1 $-1 $353 $71 $-1 $354 forward single #
loop $-1 $355 $356 $141 #
cone-surface $-1 32.588262645322374 -15.673166878186159 4.7610503060486522 0 0.74314483375859142 -0.66913059716165679 0.5 0 0 1 I I -0.70710678118654746 0.70710678118654746 0.5 forward I I I I #
loop $-1 $-1 $357 $89 #
coedge $-1 $226 $226 $358 $359 reversed $142 $-1 #
face $-1 $360 $361 $54 $-1 $362 reversed single #
loop $-1 $-1 $363 $144 #
plane-surface $-1 0 -21.223050598633456 0 0 1 0 0 0 1 forward_v I I I I #
coedge $-1 $364 $365 $366 $367 forward $145 $-1 #
coedge $-1 $368 $147 $369 $370 forward $91 $-1 #
coedge $-1 $147 $368 $371 $372 forward $91 $-1 #
coedge $-1 $373 $374 $147 $234 reversed $375 $-1 #
edge $-1 $376 -21.223050598633456 $377 21.223050598633456 $233 $378 forward 7 unknown #
face $-1 $379 $380 $55 $-1 $381 reversed single #
loop $-1 $-1 $382 $148 #
plane-surface $-1 -30.77322316091032 0 6.4776716465354092 -1 0 0 0 0 1 forward_v I I I I #
coedge $-1 $383 $384 $385 $386 forward $149 $-1 #
coedge $-1 $387 $151 $388 $389 reversed $94 $-1 #
coedge $-1 $151 $387 $390 $391 reversed $94 $-1 #
coedge $-1 $382 $392 $151 $242 reversed $236 $-1 #
edge $-1 $393 -21.223050598633456 $394 21.223050598633456 $241 $395 forward 7 unknown #
face $-1 $396 $397 $56 $-1 $398 forward single #
loop $-1 $-1 $399 $152 #
plane-surface $-1 20.744397575513844 49.295162824777286 88.178194150198664 -1 0 0 0 0.70710678939079041 0.70710677298230451 forward_v I I I I #
coedge $-1 $400 $401 $402 $403 reversed $153 $-1 #
coedge $-1 $248 $155 $404 $405 reversed $97 $-1 #
coedge $-1 $155 $247 $400 $406 reversed $97 $-1 #
coedge $-1 $402 $407 $155 $250 forward $397 $-1 #
edge $-1 $408 3.4245308137551866 $409 13.608068817616157 $249 $410 forward 7 unknown #
loop $-1 $-1 $256 $156 #
plane-surface $-1 11.473365034195879 -8.7908750446462989 30.092157628667572 0 0.70710678939079041 0.70710677298230451 1 0 0 forward_v I I I I #
loop $-1 $-1 $411 $99 #
coedge $-1 $254 $254 $255 $412 reversed $157 $-1 #
coedge $-1 $255 $255 $254 $412 forward $159 $-1 #
coedge $-1 $256 $256 $160 $257 forward $251 $-1 #
edge $-1 $413 1.2560737483420732e-015 $413 6.2831853071796013 $256 $414 forward 7 unknown #
loop $-1 $-1 $263 $161 #
plane-surface $-1 11.473365034195879 -8.7908750446462989 30.092157628667572 0 0.70710678939079041 0.70710677298230451 1 0 0 forward_v I I I I #
loop $-1 $-1 $415 $102 #
coedge $-1 $261 $261 $262 $416 reversed $162 $-1 #
coedge $-1 $262 $262 $261 $416 forward $164 $-1 #
coedge $-1 $263 $263 $165 $264 forward $258 $-1 #
edge $-1 $417 1.2560737483420732e-015 $417 6.2831853071796013 $263 $418 forward 7 unknown #
loop $-1 $-1 $270 $166 #
plane-surface $-1 11.473365034195879 -8.7908750446462989 30.092157628667572 0 0.70710678939079041 0.70710677298230451 1 0 0 forward_v I I I I #
loop $-1 $-1 $419 $105 #
coedge $-1 $268 $268 $269 $420 reversed $167 $-1 #
coedge $-1 $269 $269 $268 $420 forward $169 $-1 #
coedge $-1 $270 $270 $170 $271 forward $265 $-1 #
edge $-1 $421 1.2560737483420732e-015 $421 6.2831853071796013 $270 $422 forward 7 unknown #
face $-1 $423 $424 $60 $-1 $425 reversed single #
loop $-1 $-1 $426 $171 #
plane-surface $-1 -24.965778795845324 -82.269471880146099 59.906981837822386 1 0 0 0 0.74314483375859142 -0.66913059716165679 forward_v I I I I #
coedge $-1 $427 $428 $429 $430 reversed $172 $-1 #
coedge $-1 $277 $174 $431 $432 reversed $109 $-1 #
coedge $-1 $174 $276 $427 $433 reversed $109 $-1 #
coedge $-1 $429 $434 $174 $279 forward $435 $-1 #
edge $-1 $436 19.911685341439593 $437 24.702943076722207 $278 $438 forward 7 unknown #
loop $-1 $-1 $285 $175 #
plane-surface $-1 -20.280462175965109 -21.223050598633442 4.9405385940683573 0 -0.74314483375859142 0.66913059716165679 1 0 0 forward_v I I I I #
loop $-1 $-1 $439 $111 #
coedge $-1 $283 $283 $284 $440 reversed $176 $-1 #
coedge $-1 $284 $284 $283 $440 forward $178 $-1 #
coedge $-1 $285 $285 $179 $286 forward $280 $-1 #
edge $-1 $441 -9.283300490324288e-016 $441 6.2831853071795996 $285 $442 forward 7 unknown #
loop $-1 $-1 $292 $180 #
plane-surface $-1 -20.280462175965109 -21.223050598633442 4.9405385940683573 0 -0.74314483375859142 0.66913059716165679 1 0 0 forward_v I I I I #
loop $-1 $-1 $443 $114 #
coedge $-1 $290 $290 $291 $444 reversed $181 $-1 #
coedge $-1 $291 $291 $290 $444 forward $183 $-1 #
coedge $-1 $292 $292 $184 $293 forward $287 $-1 #
edge $-1 $445 -9.283300490324288e-016 $445 6.2831853071795996 $292 $446 forward 7 unknown #
face $-1 $447 $448 $63 $-1 $449 reversed single #
loop $-1 $-1 $450 $185 #
plane-surface $-1 -8.012201467780006 -82.269471880146099 59.906981837822386 1 0 0 0 0.74314483375859142 -0.66913059716165679 forward_v I I I I #
coedge $-1 $451 $452 $453 $454 reversed $186 $-1 #
coedge $-1 $299 $188 $455 $456 reversed $118 $-1 #
coedge $-1 $188 $298 $451 $457 reversed $118 $-1 #
coedge $-1 $453 $458 $188 $301 forward $459 $-1 #
edge $-1 $460 19.911685341439593 $461 24.702943076722207 $300 $462 forward 7 unknown #
loop $-1 $-1 $307 $189 #
plane-surface $-1 -3.326884847899791 -21.223050598633442 4.9405385940683573 0 -0.74314483375859142 0.66913059716165679 1 0 0 forward_v I I I I #
loop $-1 $-1 $463 $120 #
coedge $-1 $305 $305 $306 $464 reversed $190 $-1 #
coedge $-1 $306 $306 $305 $464 forward $192 $-1 #
coedge $-1 $307 $307 $193 $308 forward $302 $-1 #
edge $-1 $465 -9.283300490324288e-016 $465 6.2831853071795996 $307 $466 forward 7 unknown #
loop $-1 $-1 $314 $194 #
plane-surface $-1 -3.326884847899791 -21.223050598633442 4.9405385940683573 0 -0.74314483375859142 0.66913059716165679 1 0 0 forward_v I I I I #
loop $-1 $-1 $467 $123 #
coedge $-1 $312 $312 $313 $468 reversed $195 $-1 #
coedge $-1 $313 $313 $312 $468 forward $197 $-1 #
coedge $-1 $314 $314 $198 $315 forward $309 $-1 #
edge $-1 $469 -9.283300490324288e-016 $469 6.2831853071795996 $314 $470 forward 7 unknown #
face $-1 $471 $472 $66 $-1 $473 reversed single #
loop $-1 $-1 $474 $199 #
plane-surface $-1 8.9413758602853157 -82.269471880146099 59.906981837822386 1 0 0 0 0.74314483375859142 -0.66913059716165679 forward_v I I I I #
coedge $-1 $475 $476 $477 $478 reversed $200 $-1 #
coedge $-1 $321 $202 $479 $480 reversed $127 $-1 #
coedge $-1 $202 $320 $475 $481 reversed $127 $-1 #
coedge $-1 $477 $482 $202 $323 forward $483 $-1 #
edge $-1 $484 19.911685341439593 $485 24.702943076722207 $322 $486 forward 7 unknown #
loop $-1 $-1 $329 $203 #
plane-surface $-1 13.626692480165531 -21.223050598633442 4.9405385940683573 0 -0.74314483375859142 0.66913059716165679 1 0 0 forward_v I I I I #
loop $-1 $-1 $487 $129 #
coedge $-1 $327 $327 $328 $488 reversed $204 $-1 #
coedge $-1 $328 $328 $327 $488 forward $206 $-1 #
coedge $-1 $329 $329 $207 $330 forward $324 $-1 #
edge $-1 $489 -9.283300490324288e-016 $489 6.2831853071795996 $329 $490 forward 7 unknown #
loop $-1 $-1 $336 $208 #
plane-surface $-1 13.626692480165531 -21.223050598633442 4.9405385940683573 0 -0.74314483375859142 0.66913059716165679 1 0 0 forward_v I I I I #
loop $-1 $-1 $491 $132 #
coedge $-1 $334 $334 $335 $492 reversed $209 $-1 #
coedge $-1 $335 $335 $334 $492 forward $211 $-1 #
coedge $-1 $336 $336 $212 $337 forward $331 $-1 #
edge $-1 $493 -9.283300490324288e-016 $493 6.2831853071795996 $336 $494 forward 7 unknown #
face $-1 $495 $496 $69 $-1 $497 reversed single #
loop $-1 $-1 $498 $213 #
plane-surface $-1 25.894953188350637 -82.269471880146099 59.906981837822386 1 0 0 0 0.74314483375859142 -0.66913059716165679 forward_v I I I I #
coedge $-1 $499 $500 $501 $502 reversed $214 $-1 #
coedge $-1 $343 $216 $503 $504 reversed $136 $-1 #
coedge $-1 $216 $342 $499 $505 reversed $136 $-1 #
coedge $-1 $501 $506 $216 $345 forward $507 $-1 #
edge $-1 $508 19.911685341439593 $509 24.702943076722207 $344 $510 forward 7 unknown #
loop $-1 $-1 $351 $217 #
plane-surface $-1 30.580269808230852 -21.223050598633442 4.9405385940683573 0 -0.74314483375859142 0.66913059716165679 1 0 0 forward_v I I I I #
loop $-1 $-1 $511 $138 #
coedge $-1 $349 $349 $350 $512 reversed $218 $-1 #
coedge $-1 $350 $350 $349 $512 forward $220 $-1 #
coedge $-1 $351 $351 $221 $352 forward $346 $-1 #
edge $-1 $513 -9.283300490324288e-016 $513 6.2831853071795996 $351 $514 forward 7 unknown #
loop $-1 $-1 $358 $222 #
plane-surface $-1 30.580269808230852 -21.223050598633442 4.9405385940683573 0 -0.74314483375859142 0.66913059716165679 1 0 0 forward_v I I I I #
loop $-1 $-1 $515 $141 #
coedge $-1 $356 $356 $357 $516 reversed $223 $-1 #
coedge $-1 $357 $357 $356 $516 forward $225 $-1 #
coedge $-1 $358 $358 $226 $359 forward $353 $-1 #
edge $-1 $517 -9.283300490324288e-016 $517 6.2831853071795996 $358 $518 forward 7 unknown #
face $-1 $519 $520 $54 $-1 $521 reversed single #
loop $-1 $-1 $522 $227 #
plane-surface $-1 -41.073030793176059 0 0 1 0 0 0 0 -1 forward_v I I I I #
coedge $-1 $523 $371 $524 $525 forward $228 $-1 #
coedge $-1 $526 $230 $523 $527 forward $145 $-1 #
coedge $-1 $230 $526 $528 $529 forward $145 $-1 #
coedge $-1 $374 $373 $230 $367 reversed $375 $-1 #
edge $-1 $530 -21.223050598633456 $531 21.223050598633456 $366 $532 forward 7 unknown #
coedge $-1 $232 $231 $533 $534 forward $91 $-1 #
coedge $-1 $535 $536 $231 $370 reversed $520 $-1 #
edge $-1 $377 -41.073030793176059 $537 41.073030793176059 $369 $538 forward 7 unknown #
coedge $-1 $363 $539 $232 $372 reversed $228 $-1 #
edge $-1 $540 -41.073030793176059 $376 41.073030793176059 $371 $541 forward 7 unknown #
coedge $-1 $366 $233 $539 $542 forward $375 $-1 #
coedge $-1 $233 $366 $535 $543 reversed $375 $-1 #
loop $-1 $-1 $373 $519 #
vertex $-1 $234 $544 #
vertex $-1 $234 $545 #
straight-curve $-1 41.073030793176059 0 10.261769529082589 0 1 0 I I #
face $-1 $546 $547 $55 $-1 $548 reversed single #
loop $-1 $-1 $549 $235 #
plane-surface $-1 0 -21.223050598633456 0 0 1 0 0 0 1 forward_v I I I I #
coedge $-1 $385 $241 $550 $551 reversed $236 $-1 #
coedge $-1 $552 $238 $549 $553 reversed $149 $-1 #
coedge $-1 $238 $552 $554 $555 reversed $149 $-1 #
coedge $-1 $392 $382 $238 $386 reversed $236 $-1 #
edge $-1 $556 -21.223050598633456 $557 21.223050598633456 $385 $558 forward 7 unknown #
coedge $-1 $240 $239 $559 $560 reversed $94 $-1 #
coedge $-1 $561 $562 $239 $389 forward $563 $-1 #
edge $-1 $564 -23.111467304654465 $394 -12.811659672388725 $388 $565 forward 7 unknown #
coedge $-1 $566 $550 $240 $391 forward $380 $-1 #
edge $-1 $393 12.811659672388725 $567 23.111467304654465 $390 $568 forward 7 unknown #
coedge $-1 $241 $385 $561 $569 reversed $236 $-1 #
vertex $-1 $391 $570 #
vertex $-1 $389 $571 #
straight-curve $-1 -30.77322316091032 0 7.9776716465354092 0 1 0 I I #
face $-1 $-1 $572 $56 $-1 $573 reversed single #
loop $-1 $-1 $249 $243 #
plane-surface $-1 0 0 10.261769529082589 0 0 1 1 0 0 forward_v I I I I #
coedge $-1 $574 $575 $576 $577 reversed $244 $-1 #
coedge $-1 $578 $246 $248 $406 forward $153 $-1 #
coedge $-1 $246 $578 $574 $579 forward $153 $-1 #
coedge $-1 $576 $249 $246 $403 forward $397 $-1 #
edge $-1 $409 -3.534350024220025 $580 15.007715058415904 $402 $581 forward 7 unknown #
coedge $-1 $582 $583 $247 $405 forward $572 $-1 #
edge $-1 $584 -44.010865786187765 $408 -33.827327546016747 $404 $585 forward 7 unknown #
edge $-1 $409 28.044403472168479 $584 42.446101197266948 $248 $586 forward 7 unknown #
coedge $-1 $249 $576 $582 $587 forward $397 $-1 #
vertex $-1 $405 $588 #
vertex $-1 $250 $589 #
straight-curve $-1 2.2023324928779147 24.647581412388643 10.261769529082585 0 -1 0 I I #
coedge $-1 $411 $411 $-1 $590 reversed $253 $-1 #
edge $-1 $591 0 $591 6.2831853071796004 $254 $592 forward 7 unknown #
vertex $-1 $257 $593 #
ellipse-curve $-1 5.9107455094051033 16.131281596702966 5.1700004089970797 0 0.70710678939079041 0.70710677298230451 1 0 0 1 I I #
coedge $-1 $415 $415 $-1 $594 reversed $260 $-1 #
edge $-1 $595 0 $595 6.2831853071796004 $261 $596 forward 7 unknown #
vertex $-1 $264 $597 #
ellipse-curve $-1 11.473365034195879 16.131281596702966 5.1700004089970797 0 0.70710678939079041 0.70710677298230451 1 0 0 1 I I #
coedge $-1 $419 $419 $-1 $598 reversed $267 $-1 #
edge $-1 $599 0 $599 6.2831853071796004 $268 $600 forward 7 unknown #
vertex $-1 $271 $601 #
ellipse-curve $-1 17.035984558986655 16.131281596702966 5.1700004089970797 0 0.70710678939079041 0.70710677298230451 1 0 0 1 I I #
face $-1 $-1 $435 $60 $-1 $602 forward single #
loop $-1 $-1 $603 $272 #
plane-surface $-1 0 -21.223050598633456 0 0 1 0 0 0 1 forward_v I I I I #
coedge $-1 $604 $605 $606 $607 reversed $273 $-1 #
coedge $-1 $608 $275 $277 $433 forward $172 $-1 #
coedge $-1 $275 $608 $604 $609 forward $172 $-1 #
coedge $-1 $606 $278 $275 $430 forward $435 $-1 #
edge $-1 $437 5.4549144681023396 $610 14.82554770786277 $429 $611 forward 7 unknown #
coedge $-1 $612 $613 $276 $432 forward $424 $-1 #
edge $-1 $614 -25.01295232484285 $436 -19.691721389828604 $431 $615 forward 7 unknown #
edge $-1 $437 -7.1604224281572781 $614 2.1389731374768986e-014 $277 $616 forward 7 unknown #
coedge $-1 $278 $606 $612 $617 forward $435 $-1 #
loop $-1 $-1 $606 $423 #
vertex $-1 $432 $618 #
vertex $-1 $279 $619 #
straight-curve $-1 -15.595145556084894 -41.13473594007305 10.261769529082589 0 1 0 I I #
coedge $-1 $439 $439 $-1 $620 reversed $282 $-1 #
edge $-1 $621 0 $621 6.2831853071796004 $283 $622 forward 7 unknown #
vertex $-1 $286 $623 #
ellipse-curve $-1 -22.28845501305663 -18.827421730992146 7.6011540615754667 0 -0.74314483375859142 0.66913059716165679 1 0 0 1 I I #
coedge $-1 $443 $443 $-1 $624 reversed $289 $-1 #
edge $-1 $625 0 $625 6.2831853071796004 $290 $626 forward 7 unknown #
vertex $-1 $293 $627 #
ellipse-curve $-1 -18.272469338873588 -18.827421730992146 7.6011540615754667 0 -0.74314483375859142 0.66913059716165679 1 0 0 1 I I #
face $-1 $-1 $459 $63 $-1 $628 forward single #
loop $-1 $-1 $629 $294 #
plane-surface $-1 0 -21.223050598633456 0 0 1 0 0 0 1 forward_v I I I I #
coedge $-1 $630 $631 $632 $633 reversed $295 $-1 #
coedge $-1 $634 $297 $299 $457 forward $186 $-1 #
coedge $-1 $297 $634 $630 $635 forward $186 $-1 #
coedge $-1 $632 $300 $297 $454 forward $459 $-1 #
edge $-1 $461 -3.0218741959303195 $636 6.3487590438301105 $453 $637 forward 7 unknown #
coedge $-1 $638 $639 $298 $456 forward $448 $-1 #
edge $-1 $640 -25.01295232484285 $460 -19.691721389828604 $455 $641 forward 7 unknown #
edge $-1 $461 -7.1604224281572781 $640 2.1389731374768986e-014 $299 $642 forward 7 unknown #
coedge $-1 $300 $632 $638 $643 forward $459 $-1 #
loop $-1 $-1 $632 $447 #
vertex $-1 $456 $644 #
vertex $-1 $301 $645 #
straight-curve $-1 1.358431771980424 -41.13473594007305 10.261769529082589 0 1 0 I I #
coedge $-1 $463 $463 $-1 $646 reversed $304 $-1 #
edge $-1 $647 0 $647 6.2831853071796004 $305 $648 forward 7 unknown #
vertex $-1 $308 $649 #
ellipse-curve $-1 -5.3348776849913122 -18.827421730992146 7.6011540615754667 0 -0.74314483375859142 0.66913059716165679 1 0 0 1 I I #
coedge $-1 $467 $467 $-1 $650 reversed $311 $-1 #
edge $-1 $651 0 $651 6.2831853071796004 $312 $652 forward 7 unknown #
vertex $-1 $315 $653 #
ellipse-curve $-1 -1.3188920108082698 -18.827421730992146 7.6011540615754667 0 -0.74314483375859142 0.66913059716165679 1 0 0 1 I I #
face $-1 $-1 $483 $66 $-1 $654 forward single #
loop $-1 $-1 $655 $316 #
plane-surface $-1 0 -21.223050598633456 0 0 1 0 0 0 1 forward_v I I I I #
coedge $-1 $656 $657 $658 $659 reversed $317 $-1 #
coedge $-1 $660 $319 $321 $481 forward $200 $-1 #
coedge $-1 $319 $660 $656 $661 forward $200 $-1 #
coedge $-1 $658 $322 $319 $478 forward $483 $-1 #
edge $-1 $485 -11.49866285996298 $662 -2.1280296202025504 $477 $663 forward 7 unknown #
coedge $-1 $664 $665 $320 $480 forward $472 $-1 #
edge $-1 $666 -25.01295232484285 $484 -19.691721389828604 $479 $667 forward 7 unknown #
edge $-1 $485 -7.1604224281572781 $666 2.1389731374768986e-014 $321 $668 forward 7 unknown #
coedge $-1 $322 $658 $664 $669 forward $483 $-1 #
loop $-1 $-1 $658 $471 #
vertex $-1 $480 $670 #
vertex $-1 $323 $671 #
straight-curve $-1 18.312009100045746 -41.13473594007305 10.261769529082589 0 1 0 I I #
coedge $-1 $487 $487 $-1 $672 reversed $326 $-1 #
edge $-1 $673 0 $673 6.2831853071796004 $327 $674 forward 7 unknown #
vertex $-1 $330 $675 #
ellipse-curve $-1 11.618699643074009 -18.827421730992146 7.6011540615754667 0 -0.74314483375859142 0.66913059716165679 1 0 0 1 I I #
coedge $-1 $491 $491 $-1 $676 reversed $333 $-1 #
edge $-1 $677 0 $677 6.2831853071796004 $334 $678 forward 7 unknown #
vertex $-1 $337 $679 #
ellipse-curve $-1 15.634685317257052 -18.827421730992146 7.6011540615754667 0 -0.74314483375859142 0.66913059716165679 1 0 0 1 I I #
face $-1 $-1 $507 $69 $-1 $680 forward single #
loop $-1 $-1 $681 $338 #
plane-surface $-1 0 -21.223050598633456 0 0 1 0 0 0 1 forward_v I I I I #
coedge $-1 $682 $683 $684 $685 reversed $339 $-1 #
coedge $-1 $686 $341 $343 $505 forward $214 $-1 #
coedge $-1 $341 $686 $682 $687 forward $214 $-1 #
coedge $-1 $684 $344 $341 $502 forward $507 $-1 #
edge $-1 $509 -19.975451523995638 $688 -10.604818284235211 $501 $689 forward 7 unknown #
coedge $-1 $690 $691 $342 $504 forward $496 $-1 #
edge $-1 $692 -25.01295232484285 $508 -19.691721389828604 $503 $693 forward 7 unknown #
edge $-1 $509 -7.1604224281572781 $692 2.1389731374768986e-014 $343 $694 forward 7 unknown #
coedge $-1 $344 $684 $690 $695 forward $507 $-1 #
loop $-1 $-1 $684 $495 #
vertex $-1 $504 $696 #
vertex $-1 $345 $697 #
straight-curve $-1 35.265586428111064 -41.13473594007305 10.261769529082589 0 1 0 I I #
coedge $-1 $511 $511 $-1 $698 reversed $348 $-1 #
edge $-1 $699 0 $699 6.2831853071796004 $349 $700 forward 7 unknown #
vertex $-1 $352 $701 #
ellipse-curve $-1 28.572276971139331 -18.827421730992146 7.6011540615754667 0 -0.74314483375859142 0.66913059716165679 1 0 0 1 I I #
coedge $-1 $515 $515 $-1 $702 reversed $355 $-1 #
edge $-1 $703 0 $703 6.2831853071796004 $356 $704 forward 7 unknown #
vertex $-1 $359 $705 #
ellipse-curve $-1 32.588262645322374 -18.827421730992146 7.6011540615754667 0 -0.74314483375859142 0.66913059716165679 1 0 0 1 I I #
face $-1 $-1 $375 $54 $-1 $706 reversed single #
loop $-1 $-1 $535 $360 #
plane-surface $-1 0 21.223050598633456 0 0 -1 0 0 0 -1 forward_v I I I I #
coedge $-1 $707 $533 $536 $708 forward $361 $-1 #
coedge $-1 $539 $363 $364 $527 reversed $228 $-1 #
coedge $-1 $533 $707 $363 $525 reversed $361 $-1 #
edge $-1 $540 -10.261769529082589 $709 10.261769529082589 $524 $710 forward 7 unknown #
coedge $-1 $365 $364 $707 $711 forward $145 $-1 #
edge $-1 $531 -41.073030793176059 $709 41.073030793176059 $523 $712 forward 7 unknown #
coedge $-1 $536 $535 $365 $529 reversed $520 $-1 #
edge $-1 $713 -41.073030793176059 $530 41.073030793176059 $528 $714 forward 7 unknown #
vertex $-1 $367 $715 #
vertex $-1 $542 $716 #
straight-curve $-1 41.073030793176059 0 -10.261769529082589 0 -1 0 I I #
coedge $-1 $522 $524 $368 $534 reversed $361 $-1 #
edge $-1 $537 -21.223050598633456 $540 21.223050598633456 $533 $717 forward 7 unknown #
coedge $-1 $528 $369 $374 $543 forward $520 $-1 #
coedge $-1 $369 $528 $522 $708 reversed $520 $-1 #
vertex $-1 $370 $718 #
straight-curve $-1 0 21.223050598633456 10.261769529082589 -1 0 0 I I #
coedge $-1 $371 $523 $373 $542 reversed $228 $-1 #
vertex $-1 $534 $719 #
straight-curve $-1 0 -21.223050598633456 10.261769529082589 1 0 0 I I #
edge $-1 $376 -10.261769529082589 $531 10.261769529082589 $373 $720 forward 7 unknown #
edge $-1 $377 -10.261769529082589 $530 10.261769529082589 $374 $721 forward 7 unknown #
point $-1 41.073030793176059 -21.223050598633456 10.261769529082589 #
point $-1 41.073030793176059 21.223050598633456 10.261769529082589 #
face $-1 $-1 $563 $55 $-1 $722 reversed single #
loop $-1 $-1 $723 $379 #
plane-surface $-1 -41.073030793176059 0 0 1 0 0 0 0 -1 forward_v I I I I #
coedge $-1 $550 $566 $383 $553 forward $380 $-1 #
coedge $-1 $390 $549 $382 $551 forward $380 $-1 #
edge $-1 $557 1.7388358232677046 $393 4.7388358232677046 $550 $724 forward 7 unknown #
coedge $-1 $384 $383 $723 $725 reversed $149 $-1 #
edge $-1 $726 -23.111467304654465 $557 -12.811659672388725 $549 $727 forward 7 unknown #
coedge $-1 $562 $561 $384 $555 forward $563 $-1 #
edge $-1 $556 12.811659672388725 $728 23.111467304654465 $554 $729 forward 7 unknown #
vertex $-1 $555 $730 #
vertex $-1 $553 $731 #
straight-curve $-1 -30.77322316091032 0 4.9776716465354092 0 -1 0 I I #
coedge $-1 $732 $733 $387 $560 forward $547 $-1 #
edge $-1 $567 -21.223050598633456 $564 21.223050598633456 $559 $734 forward 7 unknown #
coedge $-1 $554 $388 $392 $569 forward $563 $-1 #
coedge $-1 $388 $554 $732 $735 reversed $563 $-1 #
loop $-1 $-1 $554 $546 #
vertex $-1 $735 $736 #
straight-curve $-1 -17.961563488521595 21.223050598633456 7.9776716465354092 1 0 0 I I #
coedge $-1 $549 $390 $733 $737 forward $380 $-1 #
vertex $-1 $737 $738 #
straight-curve $-1 -17.961563488521595 -21.223050598633456 7.9776716465354092 -1 0 0 I I #
edge $-1 $394 -4.7388358232677046 $556 -1.7388358232677046 $561 $739 forward 7 unknown #
point $-1 -30.77322316091032 -21.223050598633456 7.9776716465354092 #
point $-1 -30.77322316091032 21.223050598633456 7.9776716465354092 #
loop $-1 $-1 $404 $396 #
plane-surface $-1 0 21.223050598633456 0 0 -1 0 0 0 -1 forward_v I I I I #
coedge $-1 $575 $399 $401 $579 reversed $244 $-1 #
coedge $-1 $399 $574 $740 $741 reversed $244 $-1 #
coedge $-1 $407 $402 $399 $577 forward $397 $-1 #
edge $-1 $580 -13.608068817616157 $742 -3.4245308137551866 $576 $743 forward 7 unknown #
coedge $-1 $401 $400 $583 $744 reversed $153 $-1 #
edge $-1 $745 -42.446101197266948 $580 -28.044403472168479 $574 $746 forward 7 unknown #
vertex $-1 $403 $747 #
straight-curve $-1 5.7366825170979396 11.039512594772484 10.261769529082587 1 0 0 I I #
coedge $-1 $740 $404 $407 $587 reversed $572 $-1 #
coedge $-1 $404 $740 $578 $744 forward $572 $-1 #
vertex $-1 $405 $748 #
straight-curve $-1 2.2023324928779147 21.223050598633456 44.089097075099332 0 0 1 I I #
straight-curve $-1 2.2023324928779147 -8.7908750446462989 30.092157628667572 0 0.70710677298230451 -0.70710678939079041 I I #
edge $-1 $742 -20.744397575513844 $408 -2.2023324928779147 $582 $749 forward 7 unknown #
point $-1 2.2023324928779147 21.223050598633456 10.261769529082589 #
point $-1 2.2023324928779147 11.039512594772486 10.261769529082589 #
edge $-1 $750 1 $750 0 $411 $-1 forward 7 unknown #
vertex $-1 $412 $751 #
ellipse-curve $-1 5.9107455094051033 14.408735188952752 3.4474540412187324 0 0.70710678939079041 0.70710677298230451 1 0 0 1 I I #
point $-1 6.9107455094051033 16.13128159670298 5.1700004089970921 #
edge $-1 $752 1 $752 0 $415 $-1 forward 7 unknown #
vertex $-1 $416 $753 #
ellipse-curve $-1 11.473365034195879 14.408735188952752 3.4474540412187324 0 0.70710678939079041 0.70710677298230451 1 0 0 1 I I #
point $-1 12.473365034195879 16.13128159670298 5.1700004089970921 #
edge $-1 $754 1 $754 0 $419 $-1 forward 7 unknown #
vertex $-1 $420 $755 #
ellipse-curve $-1 17.035984558986655 14.408735188952752 3.4474540412187324 0 0.70710678939079041 0.70710677298230451 1 0 0 1 I I #
point $-1 18.035984558986655 16.13128159670298 5.1700004089970921 #
plane-surface $-1 0 0 10.261769529082589 0 0 1 1 0 0 forward_v I I I I #
coedge $-1 $613 $612 $605 $756 forward $424 $-1 #
coedge $-1 $605 $426 $428 $609 reversed $273 $-1 #
coedge $-1 $426 $604 $603 $756 reversed $273 $-1 #
coedge $-1 $434 $429 $426 $607 forward $435 $-1 #
edge $-1 $610 -24.702943076722207 $757 -19.911685341439593 $606 $758 forward 7 unknown #
coedge $-1 $428 $427 $613 $759 reversed $172 $-1 #
edge $-1 $760 -2.1389731374768986e-014 $610 7.1604224281572781 $604 $761 forward 7 unknown #
vertex $-1 $430 $762 #
straight-curve $-1 -10.140231087982555 -16.431792863350839 10.261769529082589 -1 0 0 I I #
coedge $-1 $603 $431 $434 $617 reversed $424 $-1 #
coedge $-1 $431 $603 $608 $759 forward $424 $-1 #
vertex $-1 $432 $763 #
straight-curve $-1 -15.595145556084894 -21.223050598633456 29.953490918911193 0 0 1 I I #
straight-curve $-1 -15.595145556084894 -21.223050598633442 4.9405385940683573 0 -0.66913059716165679 -0.74314483375859142 I I #
edge $-1 $757 -24.965778795845324 $436 -15.595145556084894 $612 $764 forward 7 unknown #
point $-1 -15.595145556084894 -21.223050598633456 10.261769529082589 #
point $-1 -15.595145556084894 -16.431792863350843 10.261769529082589 #
edge $-1 $765 1 $765 0 $439 $-1 forward 7 unknown #
vertex $-1 $440 $766 #
ellipse-curve $-1 -22.28845501305663 -16.044739295065455 5.0956156046294803 0 -0.74314483375859142 0.66913059716165679 1 0 0 1 I I #
point $-1 -21.28845501305663 -18.82742173099216 7.6011540615754782 #
edge $-1 $767 1 $767 0 $443 $-1 forward 7 unknown #
vertex $-1 $444 $768 #
ellipse-curve $-1 -18.272469338873588 -16.044739295065455 5.0956156046294803 0 -0.74314483375859142 0.66913059716165679 1 0 0 1 I I #
point $-1 -17.272469338873588 -18.82742173099216 7.6011540615754782 #
plane-surface $-1 0 0 10.261769529082589 0 0 1 1 0 0 forward_v I I I I #
coedge $-1 $639 $638 $631 $769 forward $448 $-1 #
coedge $-1 $631 $450 $452 $635 reversed $295 $-1 #
coedge $-1 $450 $630 $629 $769 reversed $295 $-1 #
coedge $-1 $458 $453 $450 $633 forward $459 $-1 #
edge $-1 $636 -24.702943076722207 $770 -19.911685341439593 $632 $771 forward 7 unknown #
coedge $-1 $452 $451 $639 $772 reversed $186 $-1 #
edge $-1 $773 -2.1389731374768986e-014 $636 7.1604224281572781 $630 $774 forward 7 unknown #
vertex $-1 $454 $775 #
straight-curve $-1 -1.6634424239498955 -16.431792863350839 10.261769529082589 -1 0 0 I I #
coedge $-1 $629 $455 $458 $643 reversed $448 $-1 #
coedge $-1 $455 $629 $634 $772 forward $448 $-1 #
vertex $-1 $456 $776 #
straight-curve $-1 1.358431771980424 -21.223050598633456 29.953490918911193 0 0 1 I I #
straight-curve $-1 1.358431771980424 -21.223050598633442 4.9405385940683573 0 -0.66913059716165679 -0.74314483375859142 I I #
edge $-1 $770 -8.012201467780006 $460 1.358431771980424 $638 $777 forward 7 unknown #
point $-1 1.358431771980424 -21.223050598633456 10.261769529082589 #
point $-1 1.358431771980424 -16.431792863350843 10.261769529082589 #
edge $-1 $778 1 $778 0 $463 $-1 forward 7 unknown #
vertex $-1 $464 $779 #
ellipse-curve $-1 -5.3348776849913122 -16.044739295065455 5.0956156046294803 0 -0.74314483375859142 0.66913059716165679 1 0 0 1 I I #
point $-1 -4.3348776849913122 -18.82742173099216 7.6011540615754782 #
edge $-1 $780 1 $780 0 $467 $-1 forward 7 unknown #
vertex $-1 $468 $781 #
ellipse-curve $-1 -1.3188920108082698 -16.044739295065455 5.0956156046294803 0 -0.74314483375859142 0.66913059716165679 1 0 0 1 I I #
point $-1 -0.31889201080826979 -18.82742173099216 7.6011540615754782 #
plane-surface $-1 0 0 10.261769529082589 0 0 1 1 0 0 forward_v I I I I #
coedge $-1 $665 $664 $657 $782 forward $472 $-1 #
coedge $-1 $657 $474 $476 $661 reversed $317 $-1 #
coedge $-1 $474 $656 $655 $782 reversed $317 $-1 #
coedge $-1 $482 $477 $474 $659 forward $483 $-1 #
edge $-1 $662 -24.702943076722207 $783 -19.911685341439593 $658 $784 forward 7 unknown #
coedge $-1 $476 $475 $665 $785 reversed $200 $-1 #
edge $-1 $786 -2.1389731374768986e-014 $662 7.1604224281572781 $656 $787 forward 7 unknown #
vertex $-1 $478 $788 #
straight-curve $-1 6.8133462400827653 -16.431792863350839 10.261769529082589 -1 0 0 I I #
coedge $-1 $655 $479 $482 $669 reversed $472 $-1 #
coedge $-1 $479 $655 $660 $785 forward $472 $-1 #
vertex $-1 $480 $789 #
straight-curve $-1 18.312009100045746 -21.223050598633456 29.953490918911193 0 0 1 I I #
straight-curve $-1 18.312009100045746 -21.223050598633442 4.9405385940683573 0 -0.66913059716165679 -0.74314483375859142 I I #
edge $-1 $783 8.9413758602853157 $484 18.312009100045746 $664 $790 forward 7 unknown #
point $-1 18.312009100045746 -21.223050598633456 10.261769529082589 #
point $-1 18.312009100045746 -16.431792863350843 10.261769529082589 #
edge $-1 $791 1 $791 0 $487 $-1 forward 7 unknown #
vertex $-1 $488 $792 #
ellipse-curve $-1 11.618699643074009 -16.044739295065455 5.0956156046294803 0 -0.74314483375859142 0.66913059716165679 1 0 0 1 I I #
point $-1 12.618699643074009 -18.82742173099216 7.6011540615754782 #
edge $-1 $793 1 $793 0 $491 $-1 forward 7 unknown #
vertex $-1 $492 $794 #
ellipse-curve $-1 15.634685317257052 -16.044739295065455 5.0956156046294803 0 -0.74314483375859142 0.66913059716165679 1 0 0 1 I I #
point $-1 16.634685317257052 -18.82742173099216 7.6011540615754782 #
plane-surface $-1 0 0 10.261769529082589 0 0 1 1 0 0 forward_v I I I I #
coedge $-1 $691 $690 $683 $795 forward $496 $-1 #
coedge $-1 $683 $498 $500 $687 reversed $339 $-1 #
coedge $-1 $498 $682 $681 $795 reversed $339 $-1 #
coedge $-1 $506 $501 $498 $685 forward $507 $-1 #
edge $-1 $688 -24.702943076722207 $796 -19.911685341439593 $684 $797 forward 7 unknown #
coedge $-1 $500 $499 $691 $798 reversed $214 $-1 #
edge $-1 $799 -2.1389731374768986e-014 $688 7.1604224281572781 $682 $800 forward 7 unknown #
vertex $-1 $502 $801 #
straight-curve $-1 15.290134904115426 -16.431792863350839 10.261769529082589 -1 0 0 I I #
coedge $-1 $681 $503 $506 $695 reversed $496 $-1 #
coedge $-1 $503 $681 $686 $798 forward $496 $-1 #
vertex $-1 $504 $802 #
straight-curve $-1 35.265586428111064 -21.223050598633456 29.953490918911193 0 0 1 I I #
straight-curve $-1 35.265586428111064 -21.223050598633442 4.9405385940683573 0 -0.66913059716165679 -0.74314483375859142 I I #
edge $-1 $796 25.894953188350637 $508 35.265586428111064 $690 $803 forward 7 unknown #
point $-1 35.265586428111064 -21.223050598633456 10.261769529082589 #
point $-1 35.265586428111064 -16.431792863350843 10.261769529082589 #
edge $-1 $804 1 $804 0 $511 $-1 forward 7 unknown #
vertex $-1 $512 $805 #
ellipse-curve $-1 28.572276971139331 -16.044739295065455 5.0956156046294803 0 -0.74314483375859142 0.66913059716165679 1 0 0 1 I I #
point $-1 29.572276971139331 -18.82742173099216 7.6011540615754782 #
edge $-1 $806 1 $806 0 $515 $-1 forward 7 unknown #
vertex $-1 $516 $807 #
ellipse-curve $-1 32.588262645322374 -16.044739295065455 5.0956156046294803 0 -0.74314483375859142 0.66913059716165679 1 0 0 1 I I #
point $-1 33.588262645322374 -18.82742173099216 7.6011540615754782 #
plane-surface $-1 41.073030793176059 0 0 -1 0 0 0 0 1 forward_v I I I I #
coedge $-1 $524 $522 $526 $711 reversed $361 $-1 #
edge $-1 $537 -10.261769529082589 $713 10.261769529082589 $536 $808 forward 7 unknown #
vertex $-1 $711 $809 #
straight-curve $-1 -41.073030793176059 -21.223050598633456 0 0 0 -1 I I #
edge $-1 $709 -21.223050598633456 $713 21.223050598633456 $707 $810 forward 7 unknown #
straight-curve $-1 0 -21.223050598633456 -10.261769529082589 -1 0 0 I I #
vertex $-1 $529 $811 #
straight-curve $-1 0 21.223050598633456 -10.261769529082589 1 0 0 I I #
point $-1 41.073030793176059 21.223050598633456 -10.261769529082589 #
point $-1 41.073030793176059 -21.223050598633456 -10.261769529082589 #
straight-curve $-1 -41.073030793176059 0 10.261769529082589 0 -1 0 I I #
point $-1 -41.073030793176059 21.223050598633456 10.261769529082589 #
point $-1 -41.073030793176059 -21.223050598633456 10.261769529082589 #
straight-curve $-1 41.073030793176059 -21.223050598633456 0 0 0 -1 I I #
straight-curve $-1 41.073030793176059 21.223050598633456 0 0 0 -1 I I #
plane-surface $-1 0 21.223050598633456 0 0 -1 0 0 0 -1 forward_v I I I I #
coedge $-1 $733 $732 $552 $725 forward $547 $-1 #
straight-curve $-1 -30.77322316091032 -21.223050598633456 3.2388358232677046 0 0 1 I I #
edge $-1 $728 -21.223050598633456 $726 21.223050598633456 $723 $812 forward 7 unknown #
vertex $-1 $553 $813 #
straight-curve $-1 -17.961563488521595 -21.223050598633456 4.9776716465354092 1 0 0 I I #
vertex $-1 $555 $814 #
straight-curve $-1 -17.961563488521595 21.223050598633456 4.9776716465354092 -1 0 0 I I #
point $-1 -30.77322316091032 21.223050598633456 4.9776716465354092 #
point $-1 -30.77322316091032 -21.223050598633456 4.9776716465354092 #
coedge $-1 $723 $559 $562 $735 forward $547 $-1 #
coedge $-1 $559 $723 $566 $737 reversed $547 $-1 #
straight-curve $-1 -41.073030793176059 0 7.9776716465354092 0 1 0 I I #
edge $-1 $564 -7.9776716465354092 $728 -4.9776716465354092 $562 $815 forward 7 unknown #
point $-1 -41.073030793176059 21.223050598633456 7.9776716465354092 #
edge $-1 $567 -7.9776716465354092 $726 -4.9776716465354092 $733 $816 forward 7 unknown #
point $-1 -41.073030793176059 -21.223050598633456 7.9776716465354092 #
straight-curve $-1 -30.77322316091032 21.223050598633456 3.2388358232677046 0 0 -1 I I #
coedge $-1 $583 $582 $575 $741 forward $572 $-1 #
edge $-1 $742 33.827327546016747 $745 44.010865786187765 $740 $817 forward 7 unknown #
vertex $-1 $587 $818 #
straight-curve $-1 20.744397575513844 24.647581412388643 10.261769529082585 0 1 0 I I #
edge $-1 $745 -15.007715058415904 $584 3.534350024220025 $583 $819 forward 7 unknown #
vertex $-1 $744 $820 #
straight-curve $-1 20.744397575513844 -8.7908750446462989 30.092157628667572 0 -0.70710677298230451 0.70710678939079041 I I #
point $-1 20.744397575513844 11.039512594772486 10.261769529082589 #
point $-1 2.2023324928779147 21.223050598633453 0.078231288911563723 #
straight-curve $-1 0 21.223050598633456 10.261769529082589 -1 0 0 I I #
vertex $-1 $590 $821 #
point $-1 6.9107455094051033 14.408735188952752 3.4474540412187324 #
vertex $-1 $594 $822 #
point $-1 12.473365034195879 14.408735188952752 3.4474540412187324 #
vertex $-1 $598 $823 #
point $-1 18.035984558986655 14.408735188952752 3.4474540412187324 #
edge $-1 $757 19.691721389828604 $760 25.01295232484285 $603 $824 forward 7 unknown #
vertex $-1 $617 $825 #
straight-curve $-1 -24.965778795845324 -41.13473594007305 10.261769529082589 0 -1 0 I I #
edge $-1 $760 -14.82554770786277 $614 -5.4549144681023396 $613 $826 forward 7 unknown #
vertex $-1 $759 $827 #
straight-curve $-1 -24.965778795845324 -21.223050598633442 4.9405385940683573 0 0.66913059716165679 0.74314483375859142 I I #
point $-1 -24.965778795845324 -16.431792863350843 10.261769529082589 #
point $-1 -15.595145556084894 -21.223050598633456 4.9405385940683413 #
straight-curve $-1 0 -21.223050598633456 10.261769529082589 1 0 0 I I #
vertex $-1 $620 $828 #
point $-1 -21.28845501305663 -16.044739295065455 5.0956156046294803 #
vertex $-1 $624 $829 #
point $-1 -17.272469338873588 -16.044739295065455 5.0956156046294803 #
edge $-1 $770 19.691721389828604 $773 25.01295232484285 $629 $830 forward 7 unknown #
vertex $-1 $643 $831 #
straight-curve $-1 -8.012201467780006 -41.13473594007305 10.261769529082589 0 -1 0 I I #
edge $-1 $773 -6.3487590438301105 $640 3.0218741959303195 $639 $832 forward 7 unknown #
vertex $-1 $772 $833 #
straight-curve $-1 -8.012201467780006 -21.223050598633442 4.9405385940683573 0 0.66913059716165679 0.74314483375859142 I I #
point $-1 -8.012201467780006 -16.431792863350843 10.261769529082589 #
point $-1 1.358431771980424 -21.223050598633456 4.9405385940683413 #
straight-curve $-1 0 -21.223050598633456 10.261769529082589 1 0 0 I I #
vertex $-1 $646 $834 #
point $-1 -4.3348776849913122 -16.044739295065455 5.0956156046294803 #
vertex $-1 $650 $835 #
point $-1 -0.31889201080826979 -16.044739295065455 5.0956156046294803 #
edge $-1 $783 19.691721389828604 $786 25.01295232484285 $655 $836 forward 7 unknown #
vertex $-1 $669 $837 #
straight-curve $-1 8.9413758602853157 -41.13473594007305 10.261769529082589 0 -1 0 I I #
edge $-1 $786 2.1280296202025504 $666 11.49866285996298 $665 $838 forward 7 unknown #
vertex $-1 $785 $839 #
straight-curve $-1 8.9413758602853157 -21.223050598633442 4.9405385940683573 0 0.66913059716165679 0.74314483375859142 I I #
point $-1 8.9413758602853157 -16.431792863350843 10.261769529082589 #
point $-1 18.312009100045746 -21.223050598633456 4.9405385940683413 #
straight-curve $-1 0 -21.223050598633456 10.261769529082589 1 0 0 I I #
vertex $-1 $672 $840 #
point $-1 12.618699643074009 -16.044739295065455 5.0956156046294803 #
vertex $-1 $676 $841 #
point $-1 16.634685317257052 -16.044739295065455 5.0956156046294803 #
edge $-1 $796 19.691721389828604 $799 25.01295232484285 $681 $842 forward 7 unknown #
vertex $-1 $695 $843 #
straight-curve $-1 25.894953188350637 -41.13473594007305 10.261769529082589 0 -1 0 I I #
edge $-1 $799 10.604818284235211 $692 19.975451523995638 $691 $844 forward 7 unknown #
vertex $-1 $798 $845 #
straight-curve $-1 25.894953188350637 -21.223050598633442 4.9405385940683573 0 0.66913059716165679 0.74314483375859142 I I #
point $-1 25.894953188350637 -16.431792863350843 10.261769529082589 #
point $-1 35.265586428111064 -21.223050598633456 4.9405385940683413 #
straight-curve $-1 0 -21.223050598633456 10.261769529082589 1 0 0 I I #
vertex $-1 $698 $846 #
point $-1 29.572276971139331 -16.044739295065455 5.0956156046294803 #
vertex $-1 $702 $847 #
point $-1 33.588262645322374 -16.044739295065455 5.0956156046294803 #
straight-curve $-1 -41.073030793176059 21.223050598633456 0 0 0 -1 I I #
point $-1 -41.073030793176059 -21.223050598633456 -10.261769529082589 #
straight-curve $-1 -41.073030793176059 0 -10.261769529082589 0 1 0 I I #
point $-1 -41.073030793176059 21.223050598633456 -10.261769529082589 #
straight-curve $-1 -41.073030793176059 0 4.9776716465354092 0 -1 0 I I #
point $-1 -41.073030793176059 -21.223050598633456 4.9776716465354092 #
point $-1 -41.073030793176059 21.223050598633456 4.9776716465354092 #
straight-curve $-1 -41.073030793176059 21.223050598633456 0 0 0 -1 I I #
straight-curve $-1 -41.073030793176059 -21.223050598633456 0 0 0 -1 I I #
straight-curve $-1 20.744397575513844 21.223050598633456 44.089097075099332 0 0 -1 I I #
point $-1 20.744397575513844 21.223050598633456 10.261769529082589 #
straight-curve $-1 5.7366825170979396 21.223050598633456 0.0782312889115655 -1 0 0 I I #
point $-1 20.744397575513844 21.223050598633453 0.078231288911563723 #
point $-1 5.9107455094051033 13.701628399561963 2.740347268236428 #
point $-1 11.473365034195879 13.701628399561963 2.740347268236428 #
point $-1 17.035984558986655 13.701628399561963 2.740347268236428 #
straight-curve $-1 -24.965778795845324 -21.223050598633456 29.953490918911193 0 0 -1 I I #
point $-1 -24.965778795845324 -21.223050598633456 10.261769529082589 #
straight-curve $-1 -10.140231087982555 -21.223050598633456 4.9405385940683413 1 0 0 I I #
point $-1 -24.965778795845324 -21.223050598633456 4.9405385940683413 #
point $-1 -22.28845501305663 -15.301594461306863 4.4264850074678241 #
point $-1 -18.272469338873588 -15.301594461306863 4.4264850074678241 #
straight-curve $-1 -8.012201467780006 -21.223050598633456 29.953490918911193 0 0 -1 I I #
point $-1 -8.012201467780006 -21.223050598633456 10.261769529082589 #
straight-curve $-1 -1.6634424239498955 -21.223050598633456 4.9405385940683413 1 0 0 I I #
point $-1 -8.012201467780006 -21.223050598633456 4.9405385940683413 #
point $-1 -5.3348776849913122 -15.301594461306863 4.4264850074678241 #
point $-1 -1.3188920108082698 -15.301594461306863 4.4264850074678241 #
straight-curve $-1 8.9413758602853157 -21.223050598633456 29.953490918911193 0 0 -1 I I #
point $-1 8.9413758602853157 -21.223050598633456 10.261769529082589 #
straight-curve $-1 6.8133462400827653 -21.223050598633456 4.9405385940683413 1 0 0 I I #
point $-1 8.9413758602853157 -21.223050598633456 4.9405385940683413 #
point $-1 11.618699643074009 -15.301594461306863 4.4264850074678241 #
point $-1 15.634685317257052 -15.301594461306863 4.4264850074678241 #
straight-curve $-1 25.894953188350637 -21.223050598633456 29.953490918911193 0 0 -1 I I #
point $-1 25.894953188350637 -21.223050598633456 10.261769529082589 #
straight-curve $-1 15.290134904115426 -21.223050598633456 4.9405385940683413 1 0 0 I I #
point $-1 25.894953188350637 -21.223050598633456 4.9405385940683413 #
point $-1 28.572276971139331 -15.301594461306863 4.4264850074678241 #
point $-1 32.588262645322374 -15.301594461306863 4.4264850074678241 #
End-of-ACIS-data 