500 0 8 0           
7 Unknown 11 ACIS 5.0 NT 24 Fri Mar 26 00:06:42 1999 
-1 9.9999999999999995e-007 1e-010 
body $-1 $8 $-1 $9 #
body $-1 $10 $-1 $11 #
body $-1 $12 $-1 $13 #
body $-1 $14 $-1 $15 #
body $-1 $16 $-1 $17 #
body $-1 $18 $-1 $19 #
body $-1 $20 $-1 $21 #
body $-1 $22 $-1 $23 #
lump $-1 $-1 $24 $0 #
transform $-1 1 0 0 0 1 0 0 0 1 56.368907742545858 32.754761717570162 7.1465298157064305 1 rotate no_reflect no_shear #
lump $-1 $-1 $25 $1 #
transform $-1 1 0 0 0 1 0 0 0 1 56.368907742545858 32.754761717570162 7.1465298157064305 1 rotate no_reflect no_shear #
lump $-1 $-1 $26 $2 #
transform $-1 1 0 0 0 1 0 0 0 1 56.368907742545858 32.754761717570162 7.1465298157064305 1 rotate no_reflect no_shear #
lump $-1 $-1 $27 $3 #
transform $-1 1 0 0 0 1 0 0 0 1 56.368907742545858 32.754761717570162 7.1465298157064305 1 rotate no_reflect no_shear #
lump $-1 $-1 $28 $4 #
transform $-1 1 0 0 0 1 0 0 0 1 56.368907742545858 32.754761717570162 7.1465298157064305 1 rotate no_reflect no_shear #
lump $-1 $-1 $29 $5 #
transform $-1 1 0 0 0 1 0 0 0 1 56.368907742545858 32.754761717570162 7.1465298157064305 1 rotate no_reflect no_shear #
lump $-1 $-1 $30 $6 #
transform $-1 1 0 0 0 1 0 0 0 1 56.368907742545858 32.754761717570162 7.1465298157064305 1 rotate no_reflect no_shear #
lump $-1 $-1 $31 $7 #
transform $-1 1 0 0 0 1 0 0 0 1 56.368907742545858 32.754761717570162 7.1465298157064305 1 rotate no_reflect no_shear #
shell $-1 $-1 $-1 $32 $-1 $8 #
shell $-1 $-1 $-1 $33 $-1 $10 #
shell $-1 $-1 $-1 $34 $-1 $12 #
shell $-1 $-1 $-1 $35 $-1 $14 #
shell $-1 $-1 $-1 $36 $-1 $16 #
shell $-1 $-1 $-1 $37 $-1 $18 #
shell $-1 $-1 $-1 $38 $-1 $20 #
shell $-1 $-1 $-1 $39 $-1 $22 #
face $-1 $40 $41 $24 $-1 $42 forward single #
face $-1 $43 $44 $25 $-1 $45 forward single #
face $-1 $46 $47 $26 $-1 $48 forward single #
face $-1 $49 $50 $27 $-1 $51 reversed single #
face $-1 $52 $53 $28 $-1 $54 forward single #
face $-1 $55 $56 $29 $-1 $57 reversed single #
face $-1 $58 $59 $30 $-1 $60 forward single #
face $-1 $61 $62 $31 $-1 $63 forward single #
face $-1 $64 $65 $24 $-1 $66 reversed single #
loop $-1 $-1 $67 $32 #
plane-surface $-1 0 0 7.1465298157064305 0 0 1 1 0 0 forward_v I I I I #
face $-1 $68 $69 $25 $-1 $70 reversed single #
loop $-1 $-1 $71 $33 #
plane-surface $-1 0 -29.717193199460951 1.772788375446738 0 0 1 1 0 0 forward_v I I I I #
face $-1 $72 $73 $26 $-1 $74 reversed single #
loop $-1 $-1 $75 $34 #
plane-surface $-1 0 28.463991061338561 -3.8719984473463969 0 0 1 1 0 0 forward_v I I I I #
face $-1 $76 $77 $27 $-1 $78 reversed single #
loop $-1 $-1 $79 $35 #
plane-surface $-1 -138.82012734176041 20.988658764372392 77.549345568881449 0 -1 0 0.73135370988377701 0 -0.68199835119979291 forward_v I I I I #
face $-1 $80 $81 $28 $-1 $82 forward single #
loop $-1 $83 $84 $36 #
cone-surface $-1 -52.975666063752094 16.607639205416461 3.5594609848740837 0.73135370988377701 0 -0.68199835119979291 0.34099917559989645 0 0.36567685494188851 1 I I 0 1 0.5 forward I I I I #
face $-1 $85 $86 $29 $-1 $87 reversed single #
loop $-1 $-1 $88 $37 #
plane-surface $-1 1.510401787641058e-006 -23.337971345995392 97.733531225947786 0.86602541151947299 0 0.49999998660252726 0.49999998660252726 0 -0.86602541151947299 forward_v I I I I #
face $-1 $89 $90 $30 $-1 $91 forward single #
loop $-1 $92 $93 $38 #
cone-surface $-1 53.571620232009323 -24.77010848971954 3.1825778792629542 -0.86602541151947299 0 -0.49999998660252726 0.24999999330126363 0 -0.43301270575973649 1 I I 0 1 0.5 forward I I I I #
face $-1 $94 $95 $31 $-1 $96 forward single #
loop $-1 $97 $98 $39 #
cone-surface $-1 53.571620232009323 -21.90583420227124 3.1825778792629542 -0.86602541151947299 0 -0.49999998660252726 0.24999999330126363 0 -0.43301270575973649 1 I I 0 1 0.5 forward I I I I #
face $-1 $99 $100 $24 $-1 $101 reversed single #
loop $-1 $-1 $102 $40 #
plane-surface $-1 0 0 -7.1465298157064305 0 0 1 1 0 0 forward_v I I I I #
coedge $-1 $103 $104 $105 $106 forward $41 $-1 #
face $-1 $107 $108 $25 $-1 $109 reversed single #
loop $-1 $-1 $110 $43 #
plane-surface $-1 0 -29.717193199460951 -1.227211624553262 0 0 1 1 0 0 forward_v I I I I #
coedge $-1 $111 $112 $113 $114 reversed $44 $-1 #
face $-1 $115 $116 $26 $-1 $117 reversed single #
loop $-1 $-1 $118 $46 #
plane-surface $-1 0 24.173220405106957 -5.5092641315264137 0 1 0 0 0 1 forward_v I I I I #
coedge $-1 $119 $120 $121 $122 reversed $47 $-1 #
face $-1 $123 $124 $27 $-1 $125 reversed single #
loop $-1 $-1 $126 $49 #
plane-surface $-1 -56.368907742545858 16.607639205416461 0.66234129018242527 -0.73135370988377701 0 0.68199835119979291 0.68199835119979291 0 0.73135370988377701 forward_v I I I I #
coedge $-1 $127 $128 $129 $130 reversed $50 $-1 #
face $-1 $-1 $131 $28 $-1 $132 forward single #
loop $-1 $133 $134 $52 #
cone-surface $-1 -52.422887694740311 16.607639205416461 3.0439868290037913 0.73135370988377701 0 -0.68199835119979291 0.17049958779994823 0 0.18283842747094425 1 I I -0.70710678118654746 0.70710678118654746 0.25 forward I I I I #
loop $-1 $-1 $135 $36 #
coedge $-1 $84 $84 $136 $137 reversed $53 $-1 #
face $-1 $138 $139 $29 $-1 $140 forward single #
loop $-1 $-1 $141 $55 #
plane-surface $-1 97.633814559684751 -19.99631801063904 154.10243745809183 0 -1 0 -0.86602541151947299 0 -0.49999998660252726 forward_v I I I I #
coedge $-1 $142 $143 $144 $145 reversed $56 $-1 #
face $-1 $-1 $146 $30 $-1 $147 forward single #
loop $-1 $148 $149 $58 #
cone-surface $-1 52.592065594281109 -24.77010848971954 2.6170317656896591 -0.86602541151947299 0 -0.49999998660252726 0.12499999665063181 0 -0.21650635287986825 1 I I -0.70710678118654746 0.70710678118654746 0.25 forward I I I I #
loop $-1 $-1 $150 $38 #
coedge $-1 $93 $93 $151 $152 reversed $59 $-1 #
face $-1 $-1 $153 $31 $-1 $154 forward single #
loop $-1 $155 $156 $61 #
cone-surface $-1 52.592065594281109 -21.90583420227124 2.6170317656896591 -0.86602541151947299 0 -0.49999998660252726 0.12499999665063181 0 -0.21650635287986825 1 I I -0.70710678118654746 0.70710678118654746 0.25 forward I I I I #
loop $-1 $-1 $157 $39 #
coedge $-1 $98 $98 $158 $159 reversed $62 $-1 #
face $-1 $160 $161 $24 $-1 $162 reversed single #
loop $-1 $-1 $163 $64 #
plane-surface $-1 0 -32.754761717570162 0 0 1 0 0 0 1 forward_v I I I I #
coedge $-1 $164 $165 $166 $167 forward $65 $-1 #
coedge $-1 $168 $67 $169 $170 forward $41 $-1 #
coedge $-1 $67 $168 $171 $172 forward $41 $-1 #
coedge $-1 $173 $174 $67 $106 reversed $175 $-1 #
edge $-1 $176 -32.754761717570162 $177 32.754761717570162 $105 $178 forward 7 unknown #
face $-1 $179 $180 $25 $-1 $181 reversed single #
loop $-1 $-1 $182 $68 #
plane-surface $-1 0 -26.67962468135174 0.27278837544673795 0 -1 0 0 0 -1 forward_v I I I I #
coedge $-1 $183 $184 $185 $186 reversed $69 $-1 #
coedge $-1 $187 $71 $188 $189 forward $44 $-1 #
coedge $-1 $71 $187 $190 $191 reversed $44 $-1 #
coedge $-1 $192 $193 $71 $114 forward $194 $-1 #
edge $-1 $195 11.821028081621265 $196 17.896165117839686 $113 $197 forward 7 unknown #
face $-1 $198 $199 $26 $-1 $200 reversed single #
loop $-1 $-1 $121 $72 #
plane-surface $-1 56.368907742545858 0 0 -1 0 0 0 0 1 forward_v I I I I #
coedge $-1 $201 $202 $203 $204 reversed $73 $-1 #
coedge $-1 $205 $75 $206 $207 reversed $47 $-1 #
coedge $-1 $75 $205 $202 $208 forward $47 $-1 #
coedge $-1 $209 $210 $75 $122 forward $116 $-1 #
edge $-1 $211 -18.522766186900881 $212 -9.9412248744376761 $121 $213 forward 7 unknown #
face $-1 $214 $215 $27 $-1 $216 reversed single #
loop $-1 $-1 $217 $76 #
plane-surface $-1 -138.82012734176041 12.226619646460531 77.549345568881449 0 1 0 -0.73135370988377701 0 0.68199835119979291 forward_v I I I I #
coedge $-1 $218 $219 $220 $221 reversed $77 $-1 #
coedge $-1 $128 $79 $222 $223 reversed $50 $-1 #
coedge $-1 $79 $127 $218 $224 reversed $50 $-1 #
coedge $-1 $220 $225 $79 $130 forward $215 $-1 #
edge $-1 $226 31.628142968734295 $227 38.112331494258299 $129 $228 forward 7 unknown #
loop $-1 $-1 $136 $80 #
plane-surface $-1 -56.368907742545858 16.607639205416461 0.66234129018242527 -0.73135370988377701 0 0.68199835119979291 0.68199835119979291 0 0.73135370988377701 forward_v I I I I #
loop $-1 $-1 $229 $52 #
coedge $-1 $134 $134 $135 $230 reversed $81 $-1 #
coedge $-1 $135 $135 $134 $230 forward $83 $-1 #
coedge $-1 $136 $136 $84 $137 forward $131 $-1 #
edge $-1 $231 0 $231 6.2831853071796004 $136 $232 forward 7 unknown #
face $-1 $233 $234 $29 $-1 $235 reversed single #
loop $-1 $-1 $236 $85 #
plane-surface $-1 0 -26.67962468135174 0.27278837544673795 0 -1 0 0 0 -1 forward_v I I I I #
coedge $-1 $237 $238 $239 $240 reversed $86 $-1 #
coedge $-1 $241 $88 $236 $242 reversed $56 $-1 #
coedge $-1 $88 $241 $237 $243 forward $56 $-1 #
coedge $-1 $239 $244 $88 $145 forward $234 $-1 #
edge $-1 $245 -15.010639008354044 $246 -8.3273323376413444 $144 $247 forward 7 unknown #
loop $-1 $-1 $151 $89 #
plane-surface $-1 1.510401787641058e-006 -23.337971345995392 97.733531225947786 0.86602541151947299 0 0.49999998660252726 0.49999998660252726 0 -0.86602541151947299 forward_v I I I I #
loop $-1 $-1 $248 $58 #
coedge $-1 $149 $149 $150 $249 reversed $90 $-1 #
coedge $-1 $150 $150 $149 $249 forward $92 $-1 #
coedge $-1 $151 $151 $93 $152 forward $146 $-1 #
edge $-1 $250 0 $250 6.2831853071796004 $151 $251 forward 7 unknown #
loop $-1 $-1 $158 $94 #
plane-surface $-1 1.510401787641058e-006 -23.337971345995392 97.733531225947786 0.86602541151947299 0 0.49999998660252726 0.49999998660252726 0 -0.86602541151947299 forward_v I I I I #
loop $-1 $-1 $252 $61 #
coedge $-1 $156 $156 $157 $253 reversed $95 $-1 #
coedge $-1 $157 $157 $156 $253 forward $97 $-1 #
coedge $-1 $158 $158 $98 $159 forward $153 $-1 #
edge $-1 $254 0 $254 6.2831853071796004 $158 $255 forward 7 unknown #
face $-1 $256 $257 $24 $-1 $258 reversed single #
loop $-1 $-1 $259 $99 #
plane-surface $-1 -56.368907742545858 0 0 1 0 0 0 0 -1 forward_v I I I I #
coedge $-1 $260 $171 $261 $262 forward $100 $-1 #
coedge $-1 $263 $102 $260 $264 forward $65 $-1 #
coedge $-1 $102 $263 $265 $266 forward $65 $-1 #
coedge $-1 $174 $173 $102 $167 reversed $175 $-1 #
edge $-1 $267 -32.754761717570162 $268 32.754761717570162 $166 $269 forward 7 unknown #
coedge $-1 $104 $103 $270 $271 forward $41 $-1 #
coedge $-1 $272 $273 $103 $170 reversed $257 $-1 #
edge $-1 $177 -56.368907742545858 $274 56.368907742545858 $169 $275 forward 7 unknown #
coedge $-1 $163 $276 $104 $172 reversed $100 $-1 #
edge $-1 $277 -56.368907742545858 $176 56.368907742545858 $171 $278 forward 7 unknown #
coedge $-1 $166 $105 $276 $279 forward $175 $-1 #
coedge $-1 $105 $166 $272 $280 reversed $175 $-1 #
loop $-1 $-1 $173 $256 #
vertex $-1 $106 $281 #
vertex $-1 $106 $282 #
straight-curve $-1 56.368907742545858 0 7.1465298157064305 0 1 0 I I #
face $-1 $283 $284 $25 $-1 $285 reversed single #
loop $-1 $-1 $286 $107 #
plane-surface $-1 -56.368907742545858 0 0 1 0 0 0 0 -1 forward_v I I I I #
coedge $-1 $287 $188 $193 $288 reversed $108 $-1 #
coedge $-1 $289 $110 $290 $291 reversed $69 $-1 #
coedge $-1 $110 $289 $287 $292 forward $69 $-1 #
coedge $-1 $193 $192 $110 $186 forward $194 $-1 #
edge $-1 $293 -17.896165117839686 $294 -11.821028081621265 $185 $295 forward 7 unknown #
coedge $-1 $112 $111 $286 $296 reversed $44 $-1 #
coedge $-1 $182 $297 $111 $189 reversed $108 $-1 #
edge $-1 $195 -56.368907742545858 $298 56.368907742545858 $188 $299 forward 7 unknown #
coedge $-1 $300 $301 $112 $191 forward $284 $-1 #
edge $-1 $196 -56.368907742545858 $302 56.368907742545858 $190 $303 forward 7 unknown #
coedge $-1 $185 $113 $301 $304 forward $194 $-1 #
coedge $-1 $113 $185 $182 $288 forward $194 $-1 #
loop $-1 $-1 $113 $283 #
vertex $-1 $114 $305 #
vertex $-1 $304 $306 #
straight-curve $-1 56.368907742545858 -14.858596599730475 1.772788375446738 0 -1 0 I I #
face $-1 $307 $308 $26 $-1 $309 reversed single #
loop $-1 $-1 $310 $115 #
plane-surface $-1 0 0 -7.1465298157064305 0 0 1 1 0 0 forward_v I I I I #
coedge $-1 $311 $118 $310 $312 reversed $73 $-1 #
coedge $-1 $118 $311 $120 $208 reversed $73 $-1 #
coedge $-1 $313 $314 $118 $204 forward $308 $-1 #
edge $-1 $315 -4.3918977499432241 $316 -1.11736638158319 $203 $317 forward 7 unknown #
coedge $-1 $120 $119 $313 $318 reversed $47 $-1 #
coedge $-1 $319 $320 $119 $207 forward $321 $-1 #
edge $-1 $322 -56.368907742545858 $211 56.368907742545858 $206 $323 forward 7 unknown #
edge $-1 $316 -56.368907742545858 $212 56.368907742545858 $202 $324 forward 7 unknown #
coedge $-1 $325 $121 $311 $326 forward $116 $-1 #
coedge $-1 $121 $325 $319 $327 reversed $116 $-1 #
vertex $-1 $327 $328 #
vertex $-1 $122 $329 #
straight-curve $-1 56.368907742545858 14.23199553066928 -3.8719984473463969 0 -1 0 I I #
face $-1 $-1 $330 $27 $-1 $331 forward single #
loop $-1 $-1 $129 $123 #
plane-surface $-1 -56.368907742545858 0 0 1 0 0 0 0 -1 forward_v I I I I #
coedge $-1 $332 $333 $334 $335 reversed $124 $-1 #
coedge $-1 $336 $126 $128 $224 forward $77 $-1 #
coedge $-1 $126 $336 $332 $337 forward $77 $-1 #
coedge $-1 $334 $129 $126 $221 forward $215 $-1 #
edge $-1 $227 -12.684839161664161 $338 -3.9228000437523001 $220 $339 forward 7 unknown #
coedge $-1 $340 $341 $127 $223 forward $330 $-1 #
edge $-1 $342 -19.087759402840192 $226 -13.041155928334348 $222 $343 forward 7 unknown #
edge $-1 $227 0 $342 8.8660089336997245 $128 $344 forward 7 unknown #
coedge $-1 $129 $334 $340 $345 reversed $215 $-1 #
vertex $-1 $345 $346 #
vertex $-1 $130 $347 #
straight-curve $-1 -56.368907742545858 20.988658764372392 38.774672784440725 0 0 -1 I I #
coedge $-1 $229 $229 $-1 $348 reversed $133 $-1 #
edge $-1 $349 0 $349 6.2831853071796004 $134 $350 forward 7 unknown #
vertex $-1 $137 $351 #
ellipse-curve $-1 -53.345606005292936 16.607639205416461 3.9044355529444283 -0.73135370988377701 0 0.68199835119979291 0.34099917559989645 0 0.36567685494188851 1 I I #
face $-1 $-1 $352 $29 $-1 $353 forward single #
loop $-1 $-1 $244 $138 #
plane-surface $-1 56.368907742545858 0 0 -1 0 0 0 0 1 forward_v I I I I #
coedge $-1 $354 $355 $142 $242 forward $139 $-1 #
coedge $-1 $238 $141 $143 $243 reversed $86 $-1 #
coedge $-1 $141 $237 $356 $357 reversed $86 $-1 #
coedge $-1 $358 $144 $141 $240 forward $234 $-1 #
edge $-1 $246 -76.951500552381134 $359 -69.904688913339484 $239 $360 forward 7 unknown #
coedge $-1 $143 $142 $361 $362 reversed $56 $-1 #
edge $-1 $363 62.39911877486071 $245 70.536075895642838 $236 $364 forward 7 unknown #
edge $-1 $365 104.60085836430963 $246 112.73781548509176 $237 $366 forward 7 unknown #
coedge $-1 $144 $358 $354 $367 forward $234 $-1 #
vertex $-1 $145 $368 #
vertex $-1 $145 $369 #
straight-curve $-1 56.368907742545858 -11.668985672997696 0.09971817666477989 0 1 0 I I #
coedge $-1 $248 $248 $-1 $370 reversed $148 $-1 #
edge $-1 $371 0 $371 6.2831853071796004 $149 $372 forward 7 unknown #
vertex $-1 $152 $373 #
ellipse-curve $-1 54.334668516857654 -24.77010848971954 3.6231239961856088 0.86602541151947299 0 0.49999998660252726 0.24999999330126363 0 -0.43301270575973649 1 I I #
coedge $-1 $252 $252 $-1 $374 reversed $155 $-1 #
edge $-1 $375 0 $375 6.2831853071796004 $156 $376 forward 7 unknown #
vertex $-1 $159 $377 #
ellipse-curve $-1 54.334668516857654 -21.90583420227124 3.6231239961856088 0.86602541151947299 0 0.49999998660252726 0.24999999330126363 0 -0.43301270575973649 1 I I #
face $-1 $-1 $175 $24 $-1 $378 reversed single #
loop $-1 $-1 $272 $160 #
plane-surface $-1 0 32.754761717570162 0 0 -1 0 0 0 -1 forward_v I I I I #
coedge $-1 $379 $270 $273 $380 forward $161 $-1 #
coedge $-1 $276 $163 $164 $264 reversed $100 $-1 #
coedge $-1 $270 $379 $163 $262 reversed $161 $-1 #
edge $-1 $277 -7.1465298157064305 $381 7.1465298157064305 $261 $382 forward 7 unknown #
coedge $-1 $165 $164 $379 $383 forward $65 $-1 #
edge $-1 $268 -56.368907742545858 $381 56.368907742545858 $260 $384 forward 7 unknown #
coedge $-1 $273 $272 $165 $266 reversed $257 $-1 #
edge $-1 $385 -56.368907742545858 $267 56.368907742545858 $265 $386 forward 7 unknown #
vertex $-1 $167 $387 #
vertex $-1 $279 $388 #
straight-curve $-1 56.368907742545858 0 -7.1465298157064305 0 -1 0 I I #
coedge $-1 $259 $261 $168 $271 reversed $161 $-1 #
edge $-1 $274 -32.754761717570162 $277 32.754761717570162 $270 $389 forward 7 unknown #
coedge $-1 $265 $169 $174 $280 forward $257 $-1 #
coedge $-1 $169 $265 $259 $380 reversed $257 $-1 #
vertex $-1 $170 $390 #
straight-curve $-1 0 32.754761717570162 7.1465298157064305 -1 0 0 I I #
coedge $-1 $171 $260 $173 $279 reversed $100 $-1 #
vertex $-1 $271 $391 #
straight-curve $-1 0 -32.754761717570162 7.1465298157064305 1 0 0 I I #
edge $-1 $176 -7.1465298157064305 $268 7.1465298157064305 $173 $392 forward 7 unknown #
edge $-1 $177 -7.1465298157064305 $267 7.1465298157064305 $174 $393 forward 7 unknown #
point $-1 56.368907742545858 -32.754761717570162 7.1465298157064305 #
point $-1 56.368907742545858 32.754761717570162 7.1465298157064305 #
face $-1 $-1 $194 $25 $-1 $394 reversed single #
loop $-1 $-1 $190 $179 #
plane-surface $-1 0 -32.754761717570162 0 0 1 0 0 0 1 forward_v I I I I #
coedge $-1 $395 $396 $187 $296 forward $180 $-1 #
coedge $-1 $297 $182 $184 $292 reversed $108 $-1 #
edge $-1 $294 -1.363605812276631 $195 1.636394187723369 $193 $397 forward 7 unknown #
coedge $-1 $184 $183 $398 $399 reversed $69 $-1 #
coedge $-1 $301 $300 $183 $291 forward $284 $-1 #
edge $-1 $400 -56.368907742545858 $293 56.368907742545858 $290 $401 forward 7 unknown #
edge $-1 $402 -56.368907742545858 $294 56.368907742545858 $287 $403 forward 7 unknown #
vertex $-1 $291 $404 #
vertex $-1 $186 $405 #
straight-curve $-1 56.368907742545858 -14.858596599730475 -1.227211624553262 0 1 0 I I #
edge $-1 $302 -17.896165117839686 $298 -11.821028081621265 $286 $406 forward 7 unknown #
coedge $-1 $188 $287 $395 $407 reversed $108 $-1 #
vertex $-1 $296 $408 #
straight-curve $-1 0 -26.67962468135174 1.772788375446738 -1 0 0 I I #
coedge $-1 $290 $190 $396 $409 forward $284 $-1 #
coedge $-1 $190 $290 $192 $304 reversed $284 $-1 #
vertex $-1 $409 $410 #
straight-curve $-1 0 -32.754761717570162 1.772788375446738 -1 0 0 I I #
edge $-1 $196 -1.772788375446738 $293 1.227211624553262 $192 $411 forward 7 unknown #
point $-1 56.368907742545858 -26.67962468135174 1.772788375446738 #
point $-1 56.368907742545858 -32.754761717570162 1.772788375446738 #
face $-1 $-1 $321 $26 $-1 $412 reversed single #
loop $-1 $-1 $313 $198 #
plane-surface $-1 -56.368907742545858 0 0 1 0 0 0 0 -1 forward_v I I I I #
coedge $-1 $413 $414 $201 $312 forward $199 $-1 #
coedge $-1 $202 $201 $209 $326 reversed $73 $-1 #
edge $-1 $415 -56.368907742545858 $315 56.368907742545858 $310 $416 forward 7 unknown #
coedge $-1 $417 $203 $205 $318 forward $308 $-1 #
coedge $-1 $203 $417 $413 $418 reversed $308 $-1 #
vertex $-1 $418 $419 #
vertex $-1 $318 $420 #
straight-curve $-1 -56.368907742545858 24.173220405106957 -2.7546320657632068 0 0 1 I I #
edge $-1 $316 9.9412248744376761 $322 18.522766186900881 $313 $421 forward 7 unknown #
coedge $-1 $422 $206 $210 $327 forward $321 $-1 #
coedge $-1 $206 $422 $417 $423 reversed $321 $-1 #
loop $-1 $-1 $206 $307 #
vertex $-1 $423 $424 #
straight-curve $-1 0 32.754761717570162 -3.8719984473463969 1 0 0 I I #
straight-curve $-1 0 24.173220405106957 -3.8719984473463969 1 0 0 I I #
coedge $-1 $210 $209 $414 $425 reversed $116 $-1 #
edge $-1 $212 1.11736638158319 $415 4.3918977499432241 $209 $426 forward 7 unknown #
edge $-1 $211 3.8719984473463969 $427 7.1465298157064305 $210 $428 forward 7 unknown #
point $-1 56.368907742545858 32.754761717570162 -3.8719984473463969 #
point $-1 56.368907742545858 24.173220405106957 -3.8719984473463969 #
loop $-1 $-1 $222 $214 #
plane-surface $-1 0 0 7.1465298157064305 0 0 1 1 0 0 forward_v I I I I #
coedge $-1 $333 $217 $219 $337 reversed $124 $-1 #
coedge $-1 $217 $332 $429 $430 reversed $124 $-1 #
coedge $-1 $225 $220 $217 $335 forward $215 $-1 #
edge $-1 $338 -38.112331494258299 $431 -31.628142968734295 $334 $432 forward 7 unknown #
coedge $-1 $219 $218 $341 $433 reversed $77 $-1 #
edge $-1 $434 -8.8660089336997245 $338 0 $332 $435 forward 7 unknown #
vertex $-1 $221 $436 #
straight-curve $-1 -56.368907742545858 8.3038196027082307 0.6623412901824216 0 -1 0 I I #
coedge $-1 $429 $222 $225 $345 forward $330 $-1 #
coedge $-1 $222 $429 $336 $433 forward $330 $-1 #
vertex $-1 $223 $437 #
straight-curve $-1 -69.410063670880206 20.988658764372392 7.1465298157064296 -1 0 0 I I #
straight-curve $-1 -56.368907742545858 20.988658764372392 0.66234129018242527 0.68199835119979291 0 0.73135370988377701 I I #
edge $-1 $226 -20.988658764372392 $431 -12.226619646460531 $225 $438 forward 7 unknown #
point $-1 -56.368907742545858 20.988658764372392 7.1465298157064305 #
point $-1 -56.368907742545858 20.988658764372392 0.66234129018242527 #
edge $-1 $439 1 $439 0 $229 $-1 forward 7 unknown #
vertex $-1 $230 $440 #
ellipse-curve $-1 -52.605726122211252 16.607639205416461 3.2144864168037395 -0.73135370988377701 0 0.68199835119979291 0.34099917559989645 0 0.36567685494188851 1 I I #
point $-1 -53.004606829693039 16.607639205416461 4.270112407886316 #
loop $-1 $-1 $441 $233 #
plane-surface $-1 0 0 7.1465298157064305 0 0 1 1 0 0 forward_v I I I I #
coedge $-1 $355 $236 $244 $367 reversed $139 $-1 #
coedge $-1 $236 $354 $441 $442 reversed $139 $-1 #
coedge $-1 $361 $443 $238 $357 forward $352 $-1 #
edge $-1 $359 -7.5520004627034822 $365 -3.4835220113270751 $356 $444 forward 7 unknown #
coedge $-1 $244 $239 $443 $445 reversed $234 $-1 #
vertex $-1 $357 $446 #
straight-curve $-1 56.368907742545858 -19.99631801063904 77.051218729045914 0 0 1 I I #
coedge $-1 $441 $356 $241 $362 forward $352 $-1 #
edge $-1 $365 8.3273323376413444 $363 15.010639008354048 $361 $447 forward 7 unknown #
vertex $-1 $442 $448 #
straight-curve $-1 21.10087073972959 -26.67962468135174 61.185752331157651 0.49999998660252726 0 -0.86602541151947299 I I #
vertex $-1 $362 $449 #
straight-curve $-1 1.510401787641058e-006 -19.99631801063904 97.733531225947786 0.49999998660252726 0 -0.86602541151947299 I I #
edge $-1 $450 69.904688913339484 $245 76.951500552381134 $244 $451 forward 7 unknown #
point $-1 56.368907742545858 -26.67962468135174 0.099718176664786065 #
point $-1 56.368907742545858 -19.99631801063904 0.09971817666477989 #
edge $-1 $452 1 $452 0 $248 $-1 forward 7 unknown #
vertex $-1 $249 $453 #
ellipse-curve $-1 52.808571947160978 -24.77010848971954 2.7420317623402908 0.86602541151947299 0 0.49999998660252726 0.24999999330126363 0 -0.43301270575973649 1 I I #
point $-1 54.584668510158934 -24.77010848971954 3.190111290425881 #
edge $-1 $454 1 $454 0 $252 $-1 forward 7 unknown #
vertex $-1 $253 $455 #
ellipse-curve $-1 52.808571947160978 -21.90583420227124 2.7420317623402908 0.86602541151947299 0 0.49999998660252726 0.24999999330126363 0 -0.43301270575973649 1 I I #
point $-1 54.584668510158934 -21.90583420227124 3.190111290425881 #
plane-surface $-1 56.368907742545858 0 0 -1 0 0 0 0 1 forward_v I I I I #
coedge $-1 $261 $259 $263 $383 reversed $161 $-1 #
edge $-1 $274 -7.1465298157064305 $385 7.1465298157064305 $273 $456 forward 7 unknown #
vertex $-1 $383 $457 #
straight-curve $-1 -56.368907742545858 -32.754761717570162 0 0 0 -1 I I #
edge $-1 $381 -32.754761717570162 $385 32.754761717570162 $379 $458 forward 7 unknown #
straight-curve $-1 0 -32.754761717570162 -7.1465298157064305 -1 0 0 I I #
vertex $-1 $266 $459 #
straight-curve $-1 0 32.754761717570162 -7.1465298157064305 1 0 0 I I #
point $-1 56.368907742545858 32.754761717570162 -7.1465298157064305 #
point $-1 56.368907742545858 -32.754761717570162 -7.1465298157064305 #
straight-curve $-1 -56.368907742545858 0 7.1465298157064305 0 -1 0 I I #
point $-1 -56.368907742545858 32.754761717570162 7.1465298157064305 #
point $-1 -56.368907742545858 -32.754761717570162 7.1465298157064305 #
straight-curve $-1 56.368907742545858 -32.754761717570162 0 0 0 -1 I I #
straight-curve $-1 56.368907742545858 32.754761717570162 0 0 0 -1 I I #
plane-surface $-1 56.368907742545858 0 0 -1 0 0 0 0 1 forward_v I I I I #
coedge $-1 $398 $286 $297 $407 forward $180 $-1 #
coedge $-1 $286 $398 $300 $409 reversed $180 $-1 #
straight-curve $-1 56.368907742545858 -26.67962468135174 0.13639418772336898 0 0 1 I I #
coedge $-1 $396 $395 $289 $399 forward $180 $-1 #
edge $-1 $402 11.821028081621265 $400 17.896165117839686 $398 $460 forward 7 unknown #
vertex $-1 $291 $461 #
straight-curve $-1 0 -32.754761717570162 -1.227211624553262 1 0 0 I I #
vertex $-1 $399 $462 #
straight-curve $-1 0 -26.67962468135174 -1.227211624553262 1 0 0 I I #
point $-1 56.368907742545858 -32.754761717570162 -1.227211624553262 #
point $-1 56.368907742545858 -26.67962468135174 -1.227211624553262 #
straight-curve $-1 -56.368907742545858 -14.858596599730475 1.772788375446738 0 1 0 I I #
edge $-1 $298 -1.636394187723369 $402 1.363605812276631 $395 $463 forward 7 unknown #
point $-1 -56.368907742545858 -26.67962468135174 1.772788375446738 #
edge $-1 $302 -1.772788375446738 $400 1.227211624553262 $396 $464 forward 7 unknown #
point $-1 -56.368907742545858 -32.754761717570162 1.772788375446738 #
straight-curve $-1 56.368907742545858 -32.754761717570162 0 0 0 -1 I I #
plane-surface $-1 0 32.754761717570162 0 0 -1 0 0 0 -1 forward_v I I I I #
coedge $-1 $465 $310 $314 $418 forward $199 $-1 #
coedge $-1 $310 $465 $325 $425 forward $199 $-1 #
vertex $-1 $312 $466 #
straight-curve $-1 0 24.173220405106957 -7.1465298157064305 -1 0 0 I I #
coedge $-1 $314 $313 $320 $423 forward $308 $-1 #
edge $-1 $315 24.173220405106957 $467 32.754761717570162 $314 $468 forward 7 unknown #
point $-1 -56.368907742545858 24.173220405106957 -7.1465298157064305 #
point $-1 -56.368907742545858 24.173220405106957 -3.8719984473463969 #
straight-curve $-1 -56.368907742545858 14.23199553066928 -3.8719984473463969 0 1 0 I I #
coedge $-1 $320 $319 $465 $469 reversed $321 $-1 #
edge $-1 $322 3.8719984473463969 $467 7.1465298157064305 $320 $470 forward 7 unknown #
point $-1 -56.368907742545858 32.754761717570162 -3.8719984473463969 #
edge $-1 $427 -32.754761717570162 $415 -24.173220405106957 $325 $471 forward 7 unknown #
straight-curve $-1 56.368907742545858 24.173220405106957 -2.7546320657632068 0 0 -1 I I #
vertex $-1 $425 $472 #
straight-curve $-1 56.368907742545858 32.754761717570162 0 0 0 -1 I I #
coedge $-1 $341 $340 $333 $430 forward $330 $-1 #
edge $-1 $431 13.041155928334348 $434 19.087759402840192 $429 $473 forward 7 unknown #
vertex $-1 $430 $474 #
straight-curve $-1 -56.368907742545858 12.226619646460531 38.774672784440725 0 0 1 I I #
edge $-1 $434 3.9228000437523001 $342 12.684839161664161 $341 $475 forward 7 unknown #
vertex $-1 $433 $476 #
straight-curve $-1 -56.368907742545858 12.226619646460531 0.66234129018242527 -0.68199835119979291 0 -0.73135370988377701 I I #
point $-1 -56.368907742545858 12.226619646460531 0.66234129018242527 #
point $-1 -50.322304268040014 20.988658764372392 7.1465298157064305 #
straight-curve $-1 -56.368907742545858 0 7.1465298157064305 0 -1 0 I I #
vertex $-1 $348 $477 #
point $-1 -52.264726946611361 16.607639205416461 3.580163271745628 #
coedge $-1 $443 $361 $355 $442 forward $352 $-1 #
edge $-1 $363 3.4835220113270751 $450 7.5520004627034822 $441 $478 forward 7 unknown #
coedge $-1 $356 $441 $358 $445 forward $352 $-1 #
straight-curve $-1 48.816907279842376 -19.99631801063904 7.1465298157064296 -1 0 0 I I #
edge $-1 $450 -26.679624681351743 $359 -19.99631801063904 $358 $479 forward 7 unknown #
point $-1 56.368907742545858 -19.99631801063904 7.1465298157064305 #
straight-curve $-1 52.300429291169451 -11.668985672997696 7.1465298157064296 0 -1 0 I I #
point $-1 52.300429291169451 -26.679624681351743 7.1465298157064296 #
point $-1 52.300429291169451 -19.99631801063904 7.1465298157064296 #
vertex $-1 $445 $480 #
straight-curve $-1 56.368907742545858 -26.679624681351743 77.051218729045914 0 0 -1 I I #
vertex $-1 $370 $481 #
point $-1 53.058571940462244 -24.77010848971954 2.3090190565805546 #
vertex $-1 $374 $482 #
point $-1 53.058571940462244 -21.90583420227124 2.3090190565805546 #
straight-curve $-1 -56.368907742545858 32.754761717570162 0 0 0 -1 I I #
point $-1 -56.368907742545858 -32.754761717570162 -7.1465298157064305 #
straight-curve $-1 -56.368907742545858 0 -7.1465298157064305 0 1 0 I I #
point $-1 -56.368907742545858 32.754761717570162 -7.1465298157064305 #
straight-curve $-1 -56.368907742545858 -14.858596599730475 -1.227211624553262 0 -1 0 I I #
point $-1 -56.368907742545858 -32.754761717570162 -1.227211624553262 #
point $-1 -56.368907742545858 -26.67962468135174 -1.227211624553262 #
straight-curve $-1 -56.368907742545858 -26.67962468135174 0.13639418772336898 0 0 -1 I I #
straight-curve $-1 -56.368907742545858 -32.754761717570162 0 0 0 -1 I I #
coedge $-1 $414 $413 $422 $469 forward $199 $-1 #
point $-1 56.368907742545858 24.173220405106957 -7.1465298157064305 #
vertex $-1 $469 $483 #
straight-curve $-1 -56.368907742545858 0 -7.1465298157064305 0 1 0 I I #
edge $-1 $467 -56.368907742545858 $427 56.368907742545858 $422 $484 forward 7 unknown #
straight-curve $-1 -56.368907742545858 32.754761717570162 0 0 0 -1 I I #
straight-curve $-1 56.368907742545858 0 -7.1465298157064305 0 -1 0 I I #
point $-1 56.368907742545858 32.754761717570162 -7.1465298157064305 #
straight-curve $-1 -69.410063670880206 12.226619646460531 7.1465298157064296 1 0 0 I I #
point $-1 -56.368907742545858 12.226619646460531 7.1465298157064305 #
straight-curve $-1 -50.322304268040014 8.3038196027082307 7.1465298157064296 0 1 0 I I #
point $-1 -50.322304268040014 12.226619646460531 7.1465298157064305 #
point $-1 -52.24004926726937 16.607639205416461 2.873487241203843 #
straight-curve $-1 48.816907279842376 -26.679624681351743 7.1465298157064296 1 0 0 I I #
straight-curve $-1 56.368907742545858 0 7.1465298157064305 0 1 0 I I #
point $-1 56.368907742545858 -26.679624681351743 7.1465298157064305 #
point $-1 52.375559241401241 -24.77010848971954 2.4920317690390275 #
point $-1 52.375559241401241 -21.90583420227124 2.4920317690390275 #
point $-1 -56.368907742545858 32.754761717570162 -7.1465298157064305 #
straight-curve $-1 0 32.754761717570162 -7.1465298157064305 1 0 0 I I #
End-of-ACIS-data 