500 0 7 0           
7 Unknown 11 ACIS 5.0 NT 24 Thu Mar 25 18:35:24 1999 
-1 9.9999999999999995e-007 1e-010 
body $-1 $7 $-1 $8 #
body $-1 $9 $-1 $10 #
body $-1 $11 $-1 $12 #
body $-1 $13 $-1 $14 #
body $-1 $15 $-1 $16 #
body $-1 $17 $-1 $18 #
body $-1 $19 $-1 $20 #
lump $-1 $-1 $21 $0 #
transform $-1 1 0 0 0 1 0 0 0 1 47.086397900326546 29.66254819845425 7.0899709308235019 1 rotate no_reflect no_shear #
lump $-1 $-1 $22 $1 #
transform $-1 1 0 0 0 1 0 0 0 1 47.086397900326546 29.66254819845425 7.0899709308235019 1 rotate no_reflect no_shear #
lump $-1 $-1 $23 $2 #
transform $-1 1 0 0 0 1 0 0 0 1 47.086397900326546 29.66254819845425 7.0899709308235019 1 rotate no_reflect no_shear #
lump $-1 $-1 $24 $3 #
transform $-1 1 0 0 0 1 0 0 0 1 47.086397900326546 29.66254819845425 7.0899709308235019 1 rotate no_reflect no_shear #
lump $-1 $-1 $25 $4 #
transform $-1 1 0 0 0 1 0 0 0 1 47.086397900326546 29.66254819845425 7.0899709308235019 1 rotate no_reflect no_shear #
lump $-1 $-1 $26 $5 #
transform $-1 1 0 0 0 1 0 0 0 1 47.086397900326546 29.66254819845425 7.0899709308235019 1 rotate no_reflect no_shear #
lump $-1 $-1 $27 $6 #
transform $-1 1 0 0 0 1 0 0 0 1 47.086397900326546 29.66254819845425 7.0899709308235019 1 rotate no_reflect no_shear #
shell $-1 $-1 $-1 $28 $-1 $7 #
shell $-1 $-1 $-1 $29 $-1 $9 #
shell $-1 $-1 $-1 $30 $-1 $11 #
shell $-1 $-1 $-1 $31 $-1 $13 #
shell $-1 $-1 $-1 $32 $-1 $15 #
shell $-1 $-1 $-1 $33 $-1 $17 #
shell $-1 $-1 $-1 $34 $-1 $19 #
face $-1 $35 $36 $21 $-1 $37 reversed single #
face $-1 $38 $39 $22 $-1 $40 forward single #
face $-1 $41 $42 $23 $-1 $43 forward single #
face $-1 $44 $45 $24 $-1 $46 reversed single #
face $-1 $47 $48 $25 $-1 $49 forward single #
face $-1 $50 $51 $26 $-1 $52 reversed single #
face $-1 $53 $54 $27 $-1 $55 forward single #
face $-1 $56 $57 $21 $-1 $58 forward single #
loop $-1 $-1 $59 $28 #
plane-surface $-1 47.086397900326546 0 0 -1 0 0 0 0 1 forward_v I I I I #
face $-1 $60 $61 $22 $-1 $62 reversed single #
loop $-1 $-1 $63 $29 #
plane-surface $-1 -42.468781428223814 0 -4.0899709308235019 0 0 1 1 0 0 forward_v I I I I #
face $-1 $64 $65 $23 $-1 $66 reversed single #
loop $-1 $-1 $67 $30 #
plane-surface $-1 47.086397900326546 0 0 -1 0 0 0 0 1 forward_v I I I I #
face $-1 $68 $69 $24 $-1 $70 reversed single #
loop $-1 $-1 $71 $31 #
plane-surface $-1 28.362864001842418 37.020918590040921 111.06529808415802 1 0 0 0 -0.5877852598018023 -0.80901698891910034 forward_v I I I I #
face $-1 $72 $73 $25 $-1 $74 forward single #
loop $-1 $75 $76 $32 #
cone-surface $-1 35.005714622940744 23.727736990356579 2.088786104962193 0 -0.5877852598018023 -0.80901698891910034 2 0 0 1 I I 0 1 2 forward I I I I #
face $-1 $77 $78 $26 $-1 $79 reversed single #
loop $-1 $-1 $80 $33 #
plane-surface $-1 41.648565244039048 -90.195655252667436 75.024258514882817 -1 0 0 0 -0.64278761758704617 0.76604443648966558 forward_v I I I I #
face $-1 $81 $82 $27 $-1 $83 forward single #
loop $-1 $84 $85 $34 #
cone-surface $-1 35.07267810917763 -26.576770172572648 4.2963799421756264 0 0.64278761758704617 -0.76604443648966558 1 0 0 1 I I 0 1 1 forward I I I I #
face $-1 $86 $87 $21 $-1 $88 reversed single #
loop $-1 $-1 $89 $35 #
plane-surface $-1 0 0 7.0899709308235019 0 0 1 1 0 0 forward_v I I I I #
coedge $-1 $90 $91 $92 $93 reversed $36 $-1 #
face $-1 $94 $95 $22 $-1 $96 reversed single #
loop $-1 $-1 $97 $38 #
plane-surface $-1 -37.851164956121082 0 -5.5899709308235019 -1 0 0 0 0 1 forward_v I I I I #
coedge $-1 $98 $99 $100 $101 forward $39 $-1 #
face $-1 $102 $103 $23 $-1 $104 reversed single #
loop $-1 $-1 $105 $41 #
plane-surface $-1 0 0 -7.0899709308235019 0 0 1 1 0 0 forward_v I I I I #
coedge $-1 $106 $107 $108 $109 forward $42 $-1 #
face $-1 $110 $111 $24 $-1 $112 reversed single #
loop $-1 $-1 $113 $44 #
plane-surface $-1 35.005714622940729 -18.332462655908031 34.877906387420353 0 0.5877852598018023 0.80901698891910034 1 0 0 forward_v I I I I #
coedge $-1 $114 $115 $116 $117 reversed $45 $-1 #
face $-1 $-1 $118 $25 $-1 $119 forward single #
loop $-1 $120 $121 $47 #
cone-surface $-1 35.005714622940744 22.079240338076357 -0.18017483890473063 0 -0.5877852598018023 -0.80901698891910034 1 0 0 1 I I -0.70710678118654746 0.70710678118654768 1 forward I I I I #
loop $-1 $-1 $122 $32 #
coedge $-1 $76 $76 $123 $124 reversed $48 $-1 #
face $-1 $125 $126 $26 $-1 $127 reversed single #
loop $-1 $-1 $128 $50 #
plane-surface $-1 35.07267810917763 -29.662548198454246 2.8837122231151682 0 -0.64278761758704617 0.76604443648966558 1 0 0 forward_v I I I I #
coedge $-1 $129 $130 $131 $132 reversed $51 $-1 #
face $-1 $-1 $133 $27 $-1 $134 forward single #
loop $-1 $135 $136 $53 #
cone-surface $-1 35.07267810917763 -25.676010248546852 3.2228960891370741 0 0.64278761758704617 -0.76604443648966558 0.5 0 0 1 I I -0.70710678118654746 0.70710678118654746 0.5 forward I I I I #
loop $-1 $-1 $137 $34 #
coedge $-1 $85 $85 $138 $139 reversed $54 $-1 #
face $-1 $140 $141 $21 $-1 $142 reversed single #
loop $-1 $-1 $92 $56 #
plane-surface $-1 0 0 -7.0899709308235019 0 0 1 1 0 0 forward_v I I I I #
coedge $-1 $143 $144 $145 $146 forward $57 $-1 #
coedge $-1 $145 $59 $147 $148 reversed $36 $-1 #
coedge $-1 $59 $145 $149 $150 forward $36 $-1 #
coedge $-1 $151 $152 $59 $93 forward $87 $-1 #
edge $-1 $153 -29.66254819845425 $154 29.66254819845425 $59 $155 forward 7 unknown #
face $-1 $156 $157 $22 $-1 $158 reversed single #
loop $-1 $-1 $159 $60 #
plane-surface $-1 0 0 -7.0899709308235019 0 0 1 1 0 0 forward_v I I I I #
coedge $-1 $160 $100 $161 $162 reversed $61 $-1 #
coedge $-1 $163 $63 $164 $165 reversed $39 $-1 #
coedge $-1 $63 $163 $166 $167 reversed $39 $-1 #
coedge $-1 $97 $168 $63 $101 reversed $61 $-1 #
edge $-1 $169 -29.66254819845425 $170 29.66254819845425 $100 $171 forward 7 unknown #
face $-1 $172 $173 $23 $-1 $174 reversed single #
loop $-1 $-1 $108 $64 #
plane-surface $-1 49.805314228470294 -22.786360487937227 0 0 1 0 0 0 1 forward_v I I I I #
coedge $-1 $175 $176 $107 $177 forward $65 $-1 #
coedge $-1 $178 $67 $179 $180 reversed $42 $-1 #
coedge $-1 $67 $178 $105 $177 reversed $42 $-1 #
coedge $-1 $181 $182 $67 $109 reversed $103 $-1 #
edge $-1 $183 -7.0899709308235019 $184 7.0899709308235019 $108 $185 forward 7 unknown #
face $-1 $186 $187 $24 $-1 $188 reversed single #
loop $-1 $-1 $189 $68 #
plane-surface $-1 41.648565244039041 37.020918590040921 111.06529808415802 -1 0 0 0 0.5877852598018023 0.80901698891910034 forward_v I I I I #
coedge $-1 $190 $191 $192 $193 reversed $69 $-1 #
coedge $-1 $115 $71 $194 $195 reversed $45 $-1 #
coedge $-1 $71 $114 $190 $196 reversed $45 $-1 #
coedge $-1 $192 $197 $71 $117 forward $198 $-1 #
edge $-1 $199 -11.152088903433789 $200 -1.403889272195272 $116 $201 forward 7 unknown #
loop $-1 $-1 $123 $72 #
plane-surface $-1 35.005714622940729 -18.332462655908031 34.877906387420353 0 0.5877852598018023 0.80901698891910034 1 0 0 forward_v I I I I #
loop $-1 $-1 $202 $47 #
coedge $-1 $121 $121 $122 $203 reversed $73 $-1 #
coedge $-1 $122 $122 $121 $203 forward $75 $-1 #
coedge $-1 $123 $123 $76 $124 forward $118 $-1 #
edge $-1 $204 7.8597299021971185e-016 $204 6.2831853071796013 $123 $205 forward 7 unknown #
face $-1 $206 $207 $26 $-1 $208 forward single #
loop $-1 $-1 $209 $77 #
plane-surface $-1 28.496790974316212 -90.195655252667436 75.024258514882817 1 0 0 0 0.64278761758704617 -0.76604443648966558 forward_v I I I I #
coedge $-1 $210 $211 $212 $213 reversed $78 $-1 #
coedge $-1 $130 $80 $214 $215 reversed $51 $-1 #
coedge $-1 $80 $129 $210 $216 reversed $51 $-1 #
coedge $-1 $212 $217 $80 $132 forward $207 $-1 #
edge $-1 $218 15.435279427879468 $219 20.448103249178164 $131 $220 forward 7 unknown #
loop $-1 $-1 $138 $81 #
plane-surface $-1 35.07267810917763 -29.662548198454246 2.8837122231151682 0 -0.64278761758704617 0.76604443648966558 1 0 0 forward_v I I I I #
loop $-1 $-1 $221 $53 #
coedge $-1 $136 $136 $137 $222 reversed $82 $-1 #
coedge $-1 $137 $137 $136 $222 forward $84 $-1 #
coedge $-1 $138 $138 $85 $139 forward $133 $-1 #
edge $-1 $223 -1.1806746556918181e-015 $223 6.2831853071795996 $138 $224 forward 7 unknown #
face $-1 $225 $226 $21 $-1 $227 reversed single #
loop $-1 $-1 $228 $86 #
plane-surface $-1 0 -29.66254819845425 0 0 1 0 0 0 1 forward_v I I I I #
coedge $-1 $229 $89 $230 $231 forward $57 $-1 #
coedge $-1 $89 $229 $232 $233 forward $57 $-1 #
coedge $-1 $91 $90 $89 $146 reversed $36 $-1 #
edge $-1 $234 -29.66254819845425 $235 29.66254819845425 $145 $236 forward 7 unknown #
coedge $-1 $237 $230 $90 $148 forward $238 $-1 #
edge $-1 $235 -7.0899709308235019 $153 7.0899709308235019 $90 $239 forward 7 unknown #
coedge $-1 $232 $240 $91 $150 reversed $141 $-1 #
edge $-1 $234 -7.0899709308235019 $154 7.0899709308235019 $91 $241 forward 7 unknown #
coedge $-1 $242 $92 $240 $243 forward $87 $-1 #
coedge $-1 $92 $242 $237 $244 forward $87 $-1 #
vertex $-1 $93 $245 #
vertex $-1 $150 $246 #
straight-curve $-1 47.086397900326546 0 -7.0899709308235019 0 -1 0 I I #
face $-1 $247 $248 $22 $-1 $249 reversed single #
loop $-1 $-1 $161 $94 #
plane-surface $-1 0 -29.66254819845425 0 0 1 0 0 0 1 forward_v I I I I #
coedge $-1 $250 $251 $160 $252 forward $95 $-1 #
coedge $-1 $168 $97 $159 $252 reversed $61 $-1 #
coedge $-1 $166 $253 $97 $162 forward $157 $-1 #
edge $-1 $254 -4.2949854654117505 $169 -1.294985465411751 $161 $255 forward 7 unknown #
coedge $-1 $99 $98 $256 $257 reversed $39 $-1 #
coedge $-1 $258 $259 $98 $165 forward $260 $-1 #
edge $-1 $261 -25.852007186214639 $170 -16.616774242009175 $164 $262 forward 7 unknown #
coedge $-1 $263 $161 $99 $167 forward $157 $-1 #
edge $-1 $169 16.616774242009175 $264 25.852007186214639 $166 $265 forward 7 unknown #
coedge $-1 $100 $160 $258 $266 reversed $61 $-1 #
vertex $-1 $167 $267 #
vertex $-1 $165 $268 #
straight-curve $-1 -37.851164956121082 0 -4.0899709308235019 0 1 0 I I #
face $-1 $269 $270 $23 $-1 $271 reversed single #
loop $-1 $-1 $272 $102 #
plane-surface $-1 49.805314228470294 -18.895109557862956 0 0 -1 0 0 0 -1 forward_v I I I I #
coedge $-1 $273 $105 $274 $275 forward $65 $-1 #
coedge $-1 $105 $273 $181 $276 forward $65 $-1 #
edge $-1 $183 -22.786360487937227 $277 -18.895109557862956 $105 $278 forward 7 unknown #
coedge $-1 $107 $106 $279 $280 forward $42 $-1 #
coedge $-1 $281 $282 $106 $180 forward $283 $-1 #
edge $-1 $284 18.895109557862956 $184 22.786360487937227 $179 $285 forward 7 unknown #
coedge $-1 $286 $108 $176 $276 reversed $103 $-1 #
coedge $-1 $108 $286 $281 $287 reversed $103 $-1 #
vertex $-1 $177 $288 #
vertex $-1 $287 $289 #
straight-curve $-1 47.086397900326546 -22.786360487937227 0 0 0 1 I I #
face $-1 $-1 $198 $24 $-1 $290 forward single #
loop $-1 $-1 $291 $110 #
plane-surface $-1 0 29.66254819845425 0 0 -1 0 0 0 -1 forward_v I I I I #
coedge $-1 $292 $293 $294 $295 reversed $111 $-1 #
coedge $-1 $296 $113 $115 $196 forward $69 $-1 #
coedge $-1 $113 $296 $292 $297 forward $69 $-1 #
coedge $-1 $294 $116 $113 $193 forward $198 $-1 #
edge $-1 $200 10.860006690372053 $298 24.145707932568676 $192 $299 forward 7 unknown #
coedge $-1 $300 $301 $114 $195 forward $187 $-1 #
edge $-1 $302 -55.525159853082478 $199 -48.442678111255503 $194 $303 forward 7 unknown #
edge $-1 $200 47.275658913200331 $302 59.325096396908492 $115 $304 forward 7 unknown #
coedge $-1 $116 $294 $300 $305 forward $198 $-1 #
loop $-1 $-1 $294 $186 #
vertex $-1 $195 $306 #
vertex $-1 $117 $307 #
straight-curve $-1 28.362864001842418 18.510459295020461 7.0899709308235046 0 -1 0 I I #
coedge $-1 $202 $202 $-1 $308 reversed $120 $-1 #
edge $-1 $309 0 $309 6.2831853071796004 $121 $310 forward 7 unknown #
vertex $-1 $124 $311 #
ellipse-curve $-1 35.005714622940744 24.788448382834993 3.5487300599100093 0 0.5877852598018023 0.80901698891910034 2 0 0 1 I I #
face $-1 $-1 $312 $26 $-1 $313 reversed single #
loop $-1 $-1 $131 $125 #
plane-surface $-1 0 0 7.0899709308235019 0 0 1 1 0 0 forward_v I I I I #
coedge $-1 $314 $315 $316 $317 reversed $126 $-1 #
coedge $-1 $318 $128 $130 $216 forward $78 $-1 #
coedge $-1 $128 $318 $314 $319 forward $78 $-1 #
coedge $-1 $316 $131 $128 $213 forward $207 $-1 #
edge $-1 $219 -24.112226189450233 $320 -10.960451919727397 $212 $321 forward 7 unknown #
coedge $-1 $322 $323 $129 $215 forward $312 $-1 #
edge $-1 $324 -34.62841703432624 $218 -30.422158326617907 $214 $325 forward 7 unknown #
edge $-1 $219 -6.5437768130913359 $324 4.7197218644553055e-015 $130 $326 forward 7 unknown #
coedge $-1 $131 $316 $322 $327 forward $207 $-1 #
vertex $-1 $132 $328 #
vertex $-1 $132 $329 #
straight-curve $-1 41.648565244039048 -45.097827626333718 7.0899709308235046 0 1 0 I I #
coedge $-1 $221 $221 $-1 $330 reversed $135 $-1 #
edge $-1 $331 0 $331 6.2831853071796004 $136 $332 forward 7 unknown #
vertex $-1 $139 $333 #
ellipse-curve $-1 35.07267810917763 -27.156136287804905 4.9868415769693302 0 -0.64278761758704617 0.76604443648966558 1 0 0 1 I I #
face $-1 $-1 $238 $21 $-1 $334 reversed single #
loop $-1 $-1 $335 $140 #
plane-surface $-1 -47.086397900326546 0 0 1 0 0 0 0 -1 forward_v I I I I #
coedge $-1 $240 $232 $336 $337 forward $141 $-1 #
coedge $-1 $144 $143 $338 $339 forward $57 $-1 #
coedge $-1 $147 $340 $143 $231 reversed $238 $-1 #
edge $-1 $235 -47.086397900326546 $341 47.086397900326546 $230 $342 forward 7 unknown #
coedge $-1 $228 $149 $144 $233 reversed $141 $-1 #
edge $-1 $343 -47.086397900326546 $234 47.086397900326546 $232 $344 forward 7 unknown #
vertex $-1 $146 $345 #
vertex $-1 $146 $346 #
straight-curve $-1 47.086397900326546 0 7.0899709308235019 0 1 0 I I #
coedge $-1 $340 $147 $152 $244 reversed $238 $-1 #
loop $-1 $-1 $147 $225 #
straight-curve $-1 47.086397900326546 29.66254819845425 0 0 0 -1 I I #
coedge $-1 $149 $228 $151 $243 reversed $141 $-1 #
straight-curve $-1 47.086397900326546 -29.66254819845425 0 0 0 -1 I I #
coedge $-1 $152 $151 $347 $348 forward $87 $-1 #
edge $-1 $154 -47.086397900326546 $349 47.086397900326546 $240 $350 forward 7 unknown #
edge $-1 $351 -47.086397900326546 $153 47.086397900326546 $237 $352 forward 7 unknown #
point $-1 47.086397900326546 29.66254819845425 -7.0899709308235019 #
point $-1 47.086397900326546 -29.66254819845425 -7.0899709308235019 #
face $-1 $-1 $260 $22 $-1 $353 reversed single #
loop $-1 $-1 $256 $156 #
plane-surface $-1 -47.086397900326546 0 0 1 0 0 0 0 -1 forward_v I I I I #
coedge $-1 $354 $159 $253 $355 forward $95 $-1 #
coedge $-1 $159 $354 $356 $357 forward $95 $-1 #
edge $-1 $358 -29.66254819845425 $254 29.66254819845425 $159 $359 forward 7 unknown #
coedge $-1 $161 $263 $250 $355 reversed $157 $-1 #
vertex $-1 $355 $360 #
straight-curve $-1 -37.851164956121082 -29.66254819845425 -2.794985465411751 0 0 1 I I #
coedge $-1 $361 $362 $163 $257 forward $248 $-1 #
edge $-1 $264 -29.66254819845425 $261 29.66254819845425 $256 $363 forward 7 unknown #
coedge $-1 $356 $164 $168 $266 forward $260 $-1 #
coedge $-1 $164 $356 $361 $364 reversed $260 $-1 #
loop $-1 $-1 $258 $247 #
vertex $-1 $364 $365 #
straight-curve $-1 -21.234390714111907 29.66254819845425 -4.0899709308235019 1 0 0 I I #
coedge $-1 $253 $166 $362 $366 forward $157 $-1 #
vertex $-1 $366 $367 #
straight-curve $-1 -21.234390714111907 -29.66254819845425 -4.0899709308235019 -1 0 0 I I #
edge $-1 $170 1.294985465411751 $358 4.2949854654117505 $258 $368 forward 7 unknown #
point $-1 -37.851164956121082 -29.66254819845425 -4.0899709308235019 #
point $-1 -37.851164956121082 29.66254819845425 -4.0899709308235019 #
face $-1 $-1 $283 $23 $-1 $369 forward single #
loop $-1 $-1 $370 $172 #
plane-surface $-1 52.524230556614043 -20.840735022900091 0 -1 0 0 0 0 1 forward_v I I I I #
coedge $-1 $274 $371 $372 $373 forward $173 $-1 #
coedge $-1 $176 $175 $374 $375 forward $65 $-1 #
coedge $-1 $279 $272 $175 $275 reversed $173 $-1 #
edge $-1 $277 -2.7189163281437487 $376 2.7189163281437487 $274 $377 forward 7 unknown #
edge $-1 $378 -2.7189163281437487 $183 2.7189163281437487 $181 $379 forward 7 unknown #
vertex $-1 $275 $380 #
straight-curve $-1 47.086397900326546 0 -7.0899709308235019 0 1 0 I I #
coedge $-1 $371 $274 $178 $280 reversed $173 $-1 #
edge $-1 $284 -7.0899709308235019 $277 7.0899709308235019 $279 $381 forward 7 unknown #
coedge $-1 $382 $179 $182 $287 forward $283 $-1 #
coedge $-1 $179 $382 $371 $383 forward $283 $-1 #
loop $-1 $-1 $179 $269 #
vertex $-1 $180 $384 #
straight-curve $-1 47.086397900326546 0 7.0899709308235019 0 -1 0 I I #
coedge $-1 $182 $181 $370 $385 reversed $103 $-1 #
edge $-1 $184 -2.7189163281437487 $386 2.7189163281437487 $182 $387 forward 7 unknown #
point $-1 47.086397900326546 -22.786360487937227 -7.0899709308235019 #
point $-1 47.086397900326546 -22.786360487937227 7.0899709308235019 #
plane-surface $-1 0 0 7.0899709308235019 0 0 1 1 0 0 forward_v I I I I #
coedge $-1 $301 $300 $293 $388 forward $187 $-1 #
coedge $-1 $293 $189 $191 $297 reversed $111 $-1 #
coedge $-1 $189 $292 $291 $388 reversed $111 $-1 #
coedge $-1 $197 $192 $189 $295 forward $198 $-1 #
edge $-1 $298 1.403889272195272 $389 11.152088903433789 $294 $390 forward 7 unknown #
coedge $-1 $191 $190 $301 $391 reversed $69 $-1 #
edge $-1 $392 -59.325096396908492 $298 -47.275658913200331 $292 $393 forward 7 unknown #
vertex $-1 $193 $394 #
straight-curve $-1 17.502857311470365 19.91434856721574 7.089970930823501 1 0 0 I I #
coedge $-1 $291 $194 $197 $305 reversed $187 $-1 #
coedge $-1 $194 $291 $296 $391 forward $187 $-1 #
vertex $-1 $195 $395 #
straight-curve $-1 28.362864001842418 29.66254819845425 55.532649042079008 0 0 1 I I #
straight-curve $-1 28.362864001842418 -18.332462655908031 34.877906387420353 0 0.80901698891910034 -0.5877852598018023 I I #
edge $-1 $389 -41.648565244039041 $199 -28.362864001842418 $300 $396 forward 7 unknown #
point $-1 28.362864001842418 29.66254819845425 7.0899709308235019 #
point $-1 28.362864001842418 19.914348567215733 7.089970930823501 #
edge $-1 $397 1 $397 0 $202 $-1 forward 7 unknown #
vertex $-1 $203 $398 #
ellipse-curve $-1 35.005714622940744 22.667025597878158 0.62884215001436994 0 0.5877852598018023 0.80901698891910034 2 0 0 1 I I #
point $-1 37.005714622940744 24.788448382835 3.5487300599100164 #
loop $-1 $-1 $214 $206 #
plane-surface $-1 0 -29.66254819845425 0 0 1 0 0 0 1 forward_v I I I I #
coedge $-1 $315 $209 $211 $319 reversed $126 $-1 #
coedge $-1 $209 $314 $399 $400 reversed $126 $-1 #
coedge $-1 $217 $212 $209 $317 forward $207 $-1 #
edge $-1 $320 -20.448103249178164 $401 -15.435279427879468 $316 $402 forward 7 unknown #
coedge $-1 $211 $210 $323 $403 reversed $78 $-1 #
edge $-1 $404 -4.7197218644553055e-015 $320 6.5437768130913359 $314 $405 forward 7 unknown #
vertex $-1 $213 $406 #
straight-curve $-1 17.536339054588815 -24.64972437715555 7.0899709308235028 -1 0 0 I I #
coedge $-1 $399 $214 $217 $327 reversed $312 $-1 #
coedge $-1 $214 $399 $318 $403 forward $312 $-1 #
vertex $-1 $215 $407 #
straight-curve $-1 41.648565244039048 -29.66254819845425 37.512129257441408 0 0 1 I I #
straight-curve $-1 41.648565244039048 -29.662548198454246 2.8837122231151682 0 -0.76604443648966558 -0.64278761758704617 I I #
edge $-1 $401 28.496790974316212 $218 41.648565244039048 $322 $408 forward 7 unknown #
point $-1 41.648565244039048 -29.66254819845425 7.0899709308235019 #
point $-1 41.648565244039048 -24.649724377155554 7.0899709308235019 #
edge $-1 $409 1 $409 0 $221 $-1 forward 7 unknown #
vertex $-1 $222 $410 #
ellipse-curve $-1 35.07267810917763 -25.997404057340376 3.605918307381907 0 -0.64278761758704617 0.76604443648966558 1 0 0 1 I I #
point $-1 36.07267810917763 -27.15613628780492 4.9868415769693453 #
plane-surface $-1 0 29.66254819845425 0 0 -1 0 0 0 -1 forward_v I I I I #
coedge $-1 $347 $338 $340 $411 forward $226 $-1 #
coedge $-1 $338 $347 $228 $337 reversed $226 $-1 #
edge $-1 $343 -7.0899709308235019 $349 7.0899709308235019 $336 $412 forward 7 unknown #
coedge $-1 $335 $336 $229 $339 reversed $226 $-1 #
edge $-1 $341 -29.66254819845425 $343 29.66254819845425 $338 $413 forward 7 unknown #
coedge $-1 $230 $237 $335 $411 reversed $238 $-1 #
vertex $-1 $231 $414 #
straight-curve $-1 0 29.66254819845425 7.0899709308235019 -1 0 0 I I #
vertex $-1 $339 $415 #
straight-curve $-1 0 -29.66254819845425 7.0899709308235019 1 0 0 I I #
point $-1 47.086397900326546 -29.66254819845425 7.0899709308235019 #
point $-1 47.086397900326546 29.66254819845425 7.0899709308235019 #
coedge $-1 $336 $335 $242 $348 reversed $226 $-1 #
edge $-1 $349 -29.66254819845425 $351 29.66254819845425 $347 $416 forward 7 unknown #
vertex $-1 $348 $417 #
straight-curve $-1 0 -29.66254819845425 -7.0899709308235019 -1 0 0 I I #
vertex $-1 $244 $418 #
straight-curve $-1 0 29.66254819845425 -7.0899709308235019 1 0 0 I I #
plane-surface $-1 0 29.66254819845425 0 0 -1 0 0 0 -1 forward_v I I I I #
coedge $-1 $251 $250 $419 $420 forward $95 $-1 #
edge $-1 $254 37.851164956121082 $421 47.086397900326546 $253 $422 forward 7 unknown #
coedge $-1 $259 $258 $251 $357 reversed $260 $-1 #
edge $-1 $423 -47.086397900326546 $358 -37.851164956121082 $356 $424 forward 7 unknown #
vertex $-1 $266 $425 #
straight-curve $-1 -37.851164956121082 0 -7.0899709308235019 0 -1 0 I I #
point $-1 -37.851164956121082 -29.66254819845425 -7.0899709308235019 #
coedge $-1 $419 $256 $259 $364 forward $248 $-1 #
coedge $-1 $256 $419 $263 $366 reversed $248 $-1 #
straight-curve $-1 -47.086397900326546 0 -4.0899709308235019 0 1 0 I I #
edge $-1 $261 4.0899709308235019 $423 7.0899709308235019 $259 $426 forward 7 unknown #
point $-1 -47.086397900326546 29.66254819845425 -4.0899709308235019 #
edge $-1 $264 4.0899709308235019 $421 7.0899709308235019 $362 $427 forward 7 unknown #
point $-1 -47.086397900326546 -29.66254819845425 -4.0899709308235019 #
straight-curve $-1 -37.851164956121082 29.66254819845425 -2.794985465411751 0 0 -1 I I #
plane-surface $-1 0 0 7.0899709308235019 0 0 1 1 0 0 forward_v I I I I #
coedge $-1 $374 $428 $286 $385 forward $270 $-1 #
coedge $-1 $272 $279 $282 $383 reversed $173 $-1 #
coedge $-1 $428 $374 $272 $373 reversed $270 $-1 #
edge $-1 $429 -7.0899709308235019 $376 7.0899709308235019 $372 $430 forward 7 unknown #
coedge $-1 $372 $370 $273 $375 reversed $270 $-1 #
edge $-1 $376 -1.9456254650371356 $378 1.9456254650371356 $374 $431 forward 7 unknown #
vertex $-1 $375 $432 #
straight-curve $-1 49.805314228470294 -18.895109557862956 -7.0899709308235019 1 0 0 I I #
vertex $-1 $385 $433 #
straight-curve $-1 49.805314228470294 -22.786360487937227 -7.0899709308235019 -1 0 0 I I #
point $-1 47.086397900326546 -18.895109557862956 -7.0899709308235019 #
straight-curve $-1 47.086397900326546 -18.895109557862956 0 0 0 -1 I I #
coedge $-1 $282 $281 $428 $434 forward $283 $-1 #
edge $-1 $429 -2.7189163281437487 $284 2.7189163281437487 $371 $435 forward 7 unknown #
point $-1 47.086397900326546 -18.895109557862956 7.0899709308235019 #
edge $-1 $386 -7.0899709308235019 $378 7.0899709308235019 $370 $436 forward 7 unknown #
vertex $-1 $434 $437 #
straight-curve $-1 49.805314228470294 -22.786360487937227 7.0899709308235019 1 0 0 I I #
edge $-1 $389 48.442678111255503 $392 55.525159853082478 $291 $438 forward 7 unknown #
vertex $-1 $305 $439 #
straight-curve $-1 41.648565244039041 18.510459295020461 7.0899709308235046 0 1 0 I I #
edge $-1 $392 -24.145707932568676 $302 -10.860006690372053 $301 $440 forward 7 unknown #
vertex $-1 $391 $441 #
straight-curve $-1 41.648565244039041 -18.332462655908031 34.877906387420353 0 -0.80901698891910034 0.5877852598018023 I I #
point $-1 41.648565244039041 19.914348567215733 7.089970930823501 #
point $-1 28.362864001842418 29.662548198454246 0.0074891889965300606 #
straight-curve $-1 0 29.66254819845425 7.0899709308235019 -1 0 0 I I #
vertex $-1 $308 $442 #
point $-1 37.005714622940744 22.667025597878158 0.62884215001436994 #
coedge $-1 $323 $322 $315 $400 forward $312 $-1 #
edge $-1 $401 30.422158326617907 $404 34.62841703432624 $399 $443 forward 7 unknown #
vertex $-1 $327 $444 #
straight-curve $-1 28.496790974316212 -45.097827626333718 7.0899709308235046 0 -1 0 I I #
edge $-1 $404 10.960451919727397 $324 24.112226189450233 $323 $445 forward 7 unknown #
vertex $-1 $403 $446 #
straight-curve $-1 28.496790974316212 -29.662548198454246 2.8837122231151682 0 0.76604443648966558 0.64278761758704617 I I #
point $-1 28.496790974316212 -24.649724377155554 7.0899709308235019 #
point $-1 41.648565244039048 -29.66254819845425 2.8837122231151651 #
straight-curve $-1 0 -29.66254819845425 7.0899709308235019 1 0 0 I I #
vertex $-1 $330 $447 #
point $-1 36.07267810917763 -25.997404057340376 3.605918307381907 #
edge $-1 $341 -7.0899709308235019 $351 7.0899709308235019 $340 $448 forward 7 unknown #
straight-curve $-1 -47.086397900326546 -29.66254819845425 0 0 0 -1 I I #
straight-curve $-1 -47.086397900326546 0 7.0899709308235019 0 -1 0 I I #
point $-1 -47.086397900326546 29.66254819845425 7.0899709308235019 #
point $-1 -47.086397900326546 -29.66254819845425 7.0899709308235019 #
straight-curve $-1 -47.086397900326546 0 -7.0899709308235019 0 1 0 I I #
point $-1 -47.086397900326546 -29.66254819845425 -7.0899709308235019 #
point $-1 -47.086397900326546 29.66254819845425 -7.0899709308235019 #
coedge $-1 $362 $361 $354 $420 reversed $248 $-1 #
edge $-1 $421 -29.66254819845425 $423 29.66254819845425 $419 $449 forward 7 unknown #
vertex $-1 $420 $450 #
straight-curve $-1 0 -29.66254819845425 -7.0899709308235019 -1 0 0 I I #
vertex $-1 $357 $451 #
straight-curve $-1 0 29.66254819845425 -7.0899709308235019 1 0 0 I I #
point $-1 -37.851164956121082 29.66254819845425 -7.0899709308235019 #
straight-curve $-1 -47.086397900326546 29.66254819845425 0 0 0 -1 I I #
straight-curve $-1 -47.086397900326546 -29.66254819845425 0 0 0 -1 I I #
coedge $-1 $370 $372 $382 $434 reversed $270 $-1 #
vertex $-1 $434 $452 #
straight-curve $-1 52.524230556614043 -18.895109557862956 0 0 0 -1 I I #
straight-curve $-1 52.524230556614043 -20.840735022900091 -7.0899709308235019 0 -1 0 I I #
point $-1 52.524230556614043 -18.895109557862956 -7.0899709308235019 #
point $-1 52.524230556614043 -22.786360487937227 -7.0899709308235019 #
edge $-1 $386 -1.9456254650371356 $429 1.9456254650371356 $428 $453 forward 7 unknown #
straight-curve $-1 49.805314228470294 -18.895109557862956 7.0899709308235019 -1 0 0 I I #
straight-curve $-1 52.524230556614043 -22.786360487937227 0 0 0 -1 I I #
point $-1 52.524230556614043 -22.786360487937227 7.0899709308235019 #
straight-curve $-1 41.648565244039041 29.66254819845425 55.532649042079008 0 0 -1 I I #
point $-1 41.648565244039041 29.66254819845425 7.0899709308235019 #
straight-curve $-1 17.502857311470365 29.662548198454253 0.0074891889965265079 -1 0 0 I I #
point $-1 41.648565244039041 29.662548198454246 0.0074891889965300606 #
point $-1 35.005714622940744 21.491455078274555 -0.98919182782383119 #
straight-curve $-1 28.496790974316212 -29.66254819845425 37.512129257441408 0 0 -1 I I #
point $-1 28.496790974316212 -29.66254819845425 7.0899709308235019 #
straight-curve $-1 17.536339054588815 -29.66254819845425 2.8837122231151646 1 0 0 I I #
point $-1 28.496790974316212 -29.66254819845425 2.8837122231151651 #
point $-1 35.07267810917763 -25.354616439753329 2.8398738708922413 #
straight-curve $-1 -47.086397900326546 29.66254819845425 0 0 0 -1 I I #
straight-curve $-1 -47.086397900326546 0 -7.0899709308235019 0 1 0 I I #
point $-1 -47.086397900326546 -29.66254819845425 -7.0899709308235019 #
point $-1 -47.086397900326546 29.66254819845425 -7.0899709308235019 #
point $-1 52.524230556614043 -18.895109557862956 7.0899709308235019 #
straight-curve $-1 52.524230556614043 -20.840735022900091 7.0899709308235019 0 1 0 I I #
End-of-ACIS-data 