500 0 7 0           
7 Unknown 11 ACIS 5.0 NT 24 Fri Mar 26 15:32:55 1999 
-1 9.9999999999999995e-007 1e-010 
body $-1 $7 $-1 $8 #
body $-1 $9 $-1 $10 #
body $-1 $11 $-1 $12 #
body $-1 $13 $-1 $14 #
body $-1 $15 $-1 $16 #
body $-1 $17 $-1 $18 #
body $-1 $19 $-1 $20 #
lump $-1 $-1 $21 $0 #
transform $-1 1 0 0 0 1 0 0 0 1 49.392376476332899 23.409034996394524 6.6057814903458345 1 rotate no_reflect no_shear #
lump $-1 $-1 $22 $1 #
transform $-1 1 0 0 0 1 0 0 0 1 49.392376476332899 23.409034996394524 6.6057814903458345 1 rotate no_reflect no_shear #
lump $-1 $-1 $23 $2 #
transform $-1 1 0 0 0 1 0 0 0 1 49.392376476332899 23.409034996394524 6.6057814903458345 1 rotate no_reflect no_shear #
lump $-1 $-1 $24 $3 #
transform $-1 1 0 0 0 1 0 0 0 1 49.392376476332899 23.409034996394524 6.6057814903458345 1 rotate no_reflect no_shear #
lump $-1 $-1 $25 $4 #
transform $-1 1 0 0 0 1 0 0 0 1 49.392376476332899 23.409034996394524 6.6057814903458345 1 rotate no_reflect no_shear #
lump $-1 $-1 $26 $5 #
transform $-1 1 0 0 0 1 0 0 0 1 49.392376476332899 23.409034996394524 6.6057814903458345 1 rotate no_reflect no_shear #
lump $-1 $-1 $27 $6 #
transform $-1 1 0 0 0 1 0 0 0 1 49.392376476332899 23.409034996394524 6.6057814903458345 1 rotate no_reflect no_shear #
shell $-1 $-1 $-1 $28 $-1 $7 #
shell $-1 $-1 $-1 $29 $-1 $9 #
shell $-1 $-1 $-1 $30 $-1 $11 #
shell $-1 $-1 $-1 $31 $-1 $13 #
shell $-1 $-1 $-1 $32 $-1 $15 #
shell $-1 $-1 $-1 $33 $-1 $17 #
shell $-1 $-1 $-1 $34 $-1 $19 #
face $-1 $35 $36 $21 $-1 $37 forward single #
face $-1 $38 $39 $22 $-1 $40 reversed single #
face $-1 $41 $42 $23 $-1 $43 reversed single #
face $-1 $44 $45 $24 $-1 $46 forward single #
face $-1 $47 $48 $25 $-1 $49 reversed single #
face $-1 $50 $51 $26 $-1 $52 forward single #
face $-1 $53 $54 $27 $-1 $55 forward single #
face $-1 $56 $57 $21 $-1 $58 reversed single #
loop $-1 $-1 $59 $28 #
plane-surface $-1 0 0 6.6057814903458345 0 0 1 1 0 0 forward_v I I I I #
face $-1 $60 $61 $22 $-1 $62 reversed single #
loop $-1 $-1 $63 $29 #
plane-surface $-1 0 -19.230174120622788 3.6057814903458345 0 0 1 1 0 0 forward_v I I I I #
face $-1 $64 $65 $23 $-1 $66 reversed single #
loop $-1 $-1 $67 $30 #
plane-surface $-1 -114.20100636565012 14.682851239178291 77.110649632581783 0 1 0 -0.6560590369687036 0 0.75470957328743171 forward_v I I I I #
face $-1 $68 $69 $24 $-1 $70 forward single #
loop $-1 $71 $72 $31 #
cone-surface $-1 -46.461535855531004 17.88583788645515 3.888840729706323 0.6560590369687036 0 -0.75470957328743171 0.75470957328743171 0 0.6560590369687036 1 I I 0 1 1 forward I I I I #
face $-1 $73 $74 $25 $-1 $75 reversed single #
loop $-1 $-1 $76 $32 #
plane-surface $-1 29.949514622139347 -4.0745065706509331 138.61947829530465 0 -1 0 -0.6018150307709319 0 -0.79863550430605224 forward_v I I I I #
face $-1 $77 $78 $26 $-1 $79 forward single #
loop $-1 $80 $81 $33 #
cone-surface $-1 44.00222961193645 -11.91508276650816 1.8613274981572185 -0.6018150307709319 0 -0.79863550430605224 0.79863550430605224 0 -0.6018150307709319 1 I I 0 1 1 forward I I I I #
face $-1 $82 $83 $27 $-1 $84 forward single #
loop $-1 $85 $86 $34 #
cone-surface $-1 44.00222961193645 -7.2107370489938241 1.8613274981572185 -0.6018150307709319 0 -0.79863550430605224 0.79863550430605224 0 -0.6018150307709319 1 I I 0 1 1 forward I I I I #
face $-1 $87 $88 $21 $-1 $89 reversed single #
loop $-1 $-1 $90 $35 #
plane-surface $-1 0 0 -6.6057814903458345 0 0 1 1 0 0 forward_v I I I I #
coedge $-1 $91 $92 $93 $94 forward $36 $-1 #
face $-1 $95 $96 $22 $-1 $97 reversed single #
loop $-1 $-1 $98 $38 #
plane-surface $-1 0 -15.051313244851052 5.1057814903458345 0 -1 0 0 0 -1 forward_v I I I I #
coedge $-1 $99 $100 $101 $102 reversed $39 $-1 #
face $-1 $103 $104 $23 $-1 $105 reversed single #
loop $-1 $-1 $106 $41 #
plane-surface $-1 -49.392376476332899 17.88583788645515 2.5568508843710163 -0.6560590369687036 0 0.75470957328743171 0.75470957328743171 0 0.6560590369687036 forward_v I I I I #
coedge $-1 $107 $108 $109 $110 reversed $42 $-1 #
face $-1 $-1 $111 $24 $-1 $112 forward single #
loop $-1 $113 $114 $44 #
cone-surface $-1 -45.531546592594488 17.88583788645515 2.8190104854104989 0.6560590369687036 0 -0.75470957328743171 0.37735478664371586 0 0.3280295184843518 1 I I -0.70710678118654746 0.70710678118654746 0.5 forward I I I I #
loop $-1 $-1 $115 $31 #
coedge $-1 $72 $72 $116 $117 reversed $45 $-1 #
face $-1 $118 $119 $25 $-1 $120 forward single #
loop $-1 $-1 $121 $47 #
plane-surface $-1 -29.500634515768127 -9.562909907750992 59.72646730320362 0.6018150307709319 0 0.79863550430605224 0.79863550430605224 0 -0.6018150307709319 forward_v I I I I #
coedge $-1 $122 $123 $124 $125 reversed $48 $-1 #
face $-1 $-1 $126 $26 $-1 $127 forward single #
loop $-1 $128 $129 $50 #
cone-surface $-1 42.510915913367072 -11.91508276650816 -0.11771258365956871 -0.6018150307709319 0 -0.79863550430605224 0.39931775215302612 0 -0.30090751538546595 1 I I -0.70710678118654768 0.70710678118654735 0.5 forward I I I I #
loop $-1 $-1 $130 $33 #
coedge $-1 $81 $81 $131 $132 reversed $51 $-1 #
face $-1 $-1 $133 $27 $-1 $134 forward single #
loop $-1 $135 $136 $53 #
cone-surface $-1 42.510915913367072 -7.2107370489938241 -0.11771258365956871 -0.6018150307709319 0 -0.79863550430605224 0.39931775215302612 0 -0.30090751538546595 1 I I -0.70710678118654768 0.70710678118654735 0.5 forward I I I I #
loop $-1 $-1 $137 $34 #
coedge $-1 $86 $86 $138 $139 reversed $54 $-1 #
face $-1 $140 $141 $21 $-1 $142 reversed single #
loop $-1 $-1 $143 $56 #
plane-surface $-1 0 -23.409034996394524 0 0 1 0 0 0 1 forward_v I I I I #
coedge $-1 $144 $145 $146 $147 forward $57 $-1 #
coedge $-1 $148 $59 $149 $150 forward $36 $-1 #
coedge $-1 $59 $148 $151 $152 forward $36 $-1 #
coedge $-1 $153 $154 $59 $94 reversed $155 $-1 #
edge $-1 $156 -23.409034996394524 $157 23.409034996394524 $93 $158 forward 7 unknown #
face $-1 $159 $160 $22 $-1 $161 reversed single #
loop $-1 $-1 $162 $60 #
plane-surface $-1 -49.392376476332899 0 0 1 0 0 0 0 -1 forward_v I I I I #
coedge $-1 $163 $164 $100 $165 reversed $61 $-1 #
coedge $-1 $166 $63 $167 $168 reversed $39 $-1 #
coedge $-1 $63 $166 $98 $165 forward $39 $-1 #
coedge $-1 $169 $170 $63 $102 forward $171 $-1 #
edge $-1 $172 -13.79394793608313 $173 -5.4362261845396578 $101 $174 forward 7 unknown #
face $-1 $175 $176 $23 $-1 $177 forward single #
loop $-1 $-1 $178 $64 #
plane-surface $-1 -114.20100636565012 21.088824533732009 77.110649632581783 0 -1 0 0.6560590369687036 0 -0.75470957328743171 forward_v I I I I #
coedge $-1 $179 $180 $181 $182 reversed $65 $-1 #
coedge $-1 $108 $67 $183 $184 reversed $42 $-1 #
coedge $-1 $67 $107 $179 $185 reversed $42 $-1 #
coedge $-1 $181 $186 $67 $110 forward $176 $-1 #
edge $-1 $187 7.708126706492159 $188 12.36588845919163 $109 $189 forward 7 unknown #
loop $-1 $-1 $116 $68 #
plane-surface $-1 -49.392376476332899 17.88583788645515 2.5568508843710163 -0.6560590369687036 0 0.75470957328743171 0.75470957328743171 0 0.6560590369687036 forward_v I I I I #
loop $-1 $-1 $190 $44 #
coedge $-1 $114 $114 $115 $191 reversed $69 $-1 #
coedge $-1 $115 $115 $114 $191 forward $71 $-1 #
coedge $-1 $116 $116 $72 $117 forward $111 $-1 #
edge $-1 $192 0 $192 6.2831853071796004 $116 $193 forward 7 unknown #
face $-1 $194 $195 $25 $-1 $196 forward single #
loop $-1 $-1 $197 $73 #
plane-surface $-1 0 -15.051313244851052 5.1057814903458345 0 -1 0 0 0 -1 forward_v I I I I #
coedge $-1 $198 $199 $200 $201 reversed $74 $-1 #
coedge $-1 $123 $76 $202 $203 reversed $48 $-1 #
coedge $-1 $76 $122 $198 $204 reversed $48 $-1 #
coedge $-1 $200 $205 $76 $125 forward $195 $-1 #
edge $-1 $206 -34.417619165263226 $207 -26.018137802838147 $124 $208 forward 7 unknown #
loop $-1 $-1 $131 $77 #
plane-surface $-1 -29.500634515768127 -9.562909907750992 59.72646730320362 0.6018150307709319 0 0.79863550430605224 0.79863550430605224 0 -0.6018150307709319 forward_v I I I I #
loop $-1 $-1 $209 $50 #
coedge $-1 $129 $129 $130 $210 reversed $78 $-1 #
coedge $-1 $130 $130 $129 $210 forward $80 $-1 #
coedge $-1 $131 $131 $81 $132 forward $126 $-1 #
edge $-1 $211 0 $211 6.2831853071796004 $131 $212 forward 7 unknown #
loop $-1 $-1 $138 $82 #
plane-surface $-1 -29.500634515768127 -9.562909907750992 59.72646730320362 0.6018150307709319 0 0.79863550430605224 0.79863550430605224 0 -0.6018150307709319 forward_v I I I I #
loop $-1 $-1 $213 $53 #
coedge $-1 $136 $136 $137 $214 reversed $83 $-1 #
coedge $-1 $137 $137 $136 $214 forward $85 $-1 #
coedge $-1 $138 $138 $86 $139 forward $133 $-1 #
edge $-1 $215 0 $215 6.2831853071796004 $138 $216 forward 7 unknown #
face $-1 $217 $218 $21 $-1 $219 reversed single #
loop $-1 $-1 $220 $87 #
plane-surface $-1 -49.392376476332899 0 0 1 0 0 0 0 -1 forward_v I I I I #
coedge $-1 $221 $151 $222 $223 forward $88 $-1 #
coedge $-1 $224 $90 $221 $225 forward $57 $-1 #
coedge $-1 $90 $224 $226 $227 forward $57 $-1 #
coedge $-1 $154 $153 $90 $147 reversed $155 $-1 #
edge $-1 $228 -23.409034996394524 $229 23.409034996394524 $146 $230 forward 7 unknown #
coedge $-1 $92 $91 $231 $232 forward $36 $-1 #
coedge $-1 $233 $234 $91 $150 reversed $218 $-1 #
edge $-1 $157 -49.392376476332899 $235 49.392376476332899 $149 $236 forward 7 unknown #
coedge $-1 $143 $237 $92 $152 reversed $88 $-1 #
edge $-1 $238 -49.392376476332899 $156 49.392376476332899 $151 $239 forward 7 unknown #
coedge $-1 $146 $93 $237 $240 forward $155 $-1 #
coedge $-1 $93 $146 $233 $241 reversed $155 $-1 #
loop $-1 $-1 $153 $217 #
vertex $-1 $94 $242 #
vertex $-1 $94 $243 #
straight-curve $-1 49.392376476332899 0 6.6057814903458345 0 1 0 I I #
face $-1 $244 $245 $22 $-1 $246 forward single #
loop $-1 $-1 $167 $95 #
plane-surface $-1 0 -23.409034996394524 0 0 1 0 0 0 1 forward_v I I I I #
coedge $-1 $247 $248 $163 $249 forward $96 $-1 #
coedge $-1 $250 $98 $162 $249 reversed $61 $-1 #
coedge $-1 $98 $250 $169 $251 reversed $61 $-1 #
edge $-1 $252 -49.392376476332899 $173 49.392376476332899 $98 $253 forward 7 unknown #
coedge $-1 $100 $99 $247 $254 reversed $39 $-1 #
coedge $-1 $255 $256 $99 $168 forward $160 $-1 #
edge $-1 $257 -49.392376476332899 $172 49.392376476332899 $167 $258 forward 7 unknown #
coedge $-1 $259 $101 $164 $251 forward $171 $-1 #
coedge $-1 $101 $259 $255 $260 forward $171 $-1 #
loop $-1 $-1 $169 $244 #
vertex $-1 $168 $261 #
vertex $-1 $102 $262 #
straight-curve $-1 49.392376476332899 -9.615087060311394 3.6057814903458345 0 1 0 I I #
face $-1 $-1 $263 $23 $-1 $264 reversed single #
loop $-1 $-1 $109 $103 #
plane-surface $-1 0 0 6.6057814903458345 0 0 1 1 0 0 forward_v I I I I #
coedge $-1 $265 $266 $267 $268 reversed $104 $-1 #
coedge $-1 $269 $106 $108 $185 forward $65 $-1 #
coedge $-1 $106 $269 $265 $270 forward $65 $-1 #
coedge $-1 $267 $109 $106 $182 forward $176 $-1 #
edge $-1 $188 5.739932295950716 $271 12.145905590504434 $181 $272 forward 7 unknown #
coedge $-1 $273 $274 $107 $184 forward $263 $-1 #
edge $-1 $275 -35.998473931919875 $187 -31.949543325945058 $183 $276 forward 7 unknown #
edge $-1 $188 -6.1715948989632867 $275 0 $108 $277 forward 7 unknown #
coedge $-1 $109 $267 $273 $278 forward $176 $-1 #
vertex $-1 $184 $279 #
vertex $-1 $110 $280 #
straight-curve $-1 -57.100503182825058 14.682851239178291 6.6057814903458336 1 0 0 I I #
coedge $-1 $190 $190 $-1 $281 reversed $113 $-1 #
edge $-1 $282 0 $282 6.2831853071796004 $114 $283 forward 7 unknown #
vertex $-1 $117 $284 #
ellipse-curve $-1 -47.063495599983163 17.88583788645515 4.5813161873584249 -0.6560590369687036 0 0.75470957328743171 0.75470957328743171 0 0.6560590369687036 1 I I #
face $-1 $-1 $285 $25 $-1 $286 reversed single #
loop $-1 $-1 $200 $118 #
plane-surface $-1 0 0 6.6057814903458345 0 0 1 1 0 0 forward_v I I I I #
coedge $-1 $287 $288 $199 $289 reversed $119 $-1 #
coedge $-1 $290 $121 $123 $204 forward $74 $-1 #
coedge $-1 $121 $290 $197 $289 forward $74 $-1 #
coedge $-1 $291 $124 $121 $201 forward $195 $-1 #
edge $-1 $207 -0.70694838322456288 $292 10.269858290975556 $200 $293 forward 7 unknown #
coedge $-1 $294 $295 $122 $203 forward $285 $-1 #
edge $-1 $296 -69.033420982356176 $206 -62.703957657306489 $202 $297 forward 7 unknown #
edge $-1 $207 88.267462753147896 $296 98.784752952665798 $123 $298 forward 7 unknown #
coedge $-1 $124 $291 $294 $299 forward $195 $-1 #
vertex $-1 $203 $300 #
vertex $-1 $125 $301 #
straight-curve $-1 14.974757311069673 -4.0745065706509331 6.6057814903458336 -1 0 0 I I #
coedge $-1 $209 $209 $-1 $302 reversed $128 $-1 #
edge $-1 $303 0 $303 6.2831853071796004 $129 $304 forward 7 unknown #
vertex $-1 $132 $305 #
ellipse-curve $-1 45.192635795120367 -11.91508276650816 3.441049827820986 0.6018150307709319 0 0.79863550430605224 0.79863550430605224 0 -0.6018150307709319 1 I I #
coedge $-1 $213 $213 $-1 $306 reversed $135 $-1 #
edge $-1 $307 0 $307 6.2831853071796004 $136 $308 forward 7 unknown #
vertex $-1 $139 $309 #
ellipse-curve $-1 45.192635795120367 -7.2107370489938241 3.441049827820986 0.6018150307709319 0 0.79863550430605224 0.79863550430605224 0 -0.6018150307709319 1 I I #
face $-1 $-1 $155 $21 $-1 $310 reversed single #
loop $-1 $-1 $233 $140 #
plane-surface $-1 0 23.409034996394524 0 0 -1 0 0 0 -1 forward_v I I I I #
coedge $-1 $311 $231 $234 $312 forward $141 $-1 #
coedge $-1 $237 $143 $144 $225 reversed $88 $-1 #
coedge $-1 $231 $311 $143 $223 reversed $141 $-1 #
edge $-1 $238 -6.6057814903458345 $313 6.6057814903458345 $222 $314 forward 7 unknown #
coedge $-1 $145 $144 $311 $315 forward $57 $-1 #
edge $-1 $229 -49.392376476332899 $313 49.392376476332899 $221 $316 forward 7 unknown #
coedge $-1 $234 $233 $145 $227 reversed $218 $-1 #
edge $-1 $317 -49.392376476332899 $228 49.392376476332899 $226 $318 forward 7 unknown #
vertex $-1 $147 $319 #
vertex $-1 $240 $320 #
straight-curve $-1 49.392376476332899 0 -6.6057814903458345 0 -1 0 I I #
coedge $-1 $220 $222 $148 $232 reversed $141 $-1 #
edge $-1 $235 -23.409034996394524 $238 23.409034996394524 $231 $321 forward 7 unknown #
coedge $-1 $226 $149 $154 $241 forward $218 $-1 #
coedge $-1 $149 $226 $220 $312 reversed $218 $-1 #
vertex $-1 $150 $322 #
straight-curve $-1 0 23.409034996394524 6.6057814903458345 -1 0 0 I I #
coedge $-1 $151 $221 $153 $240 reversed $88 $-1 #
vertex $-1 $232 $323 #
straight-curve $-1 0 -23.409034996394524 6.6057814903458345 1 0 0 I I #
edge $-1 $156 -6.6057814903458345 $229 6.6057814903458345 $153 $324 forward 7 unknown #
edge $-1 $157 -6.6057814903458345 $228 6.6057814903458345 $154 $325 forward 7 unknown #
point $-1 49.392376476332899 -23.409034996394524 6.6057814903458345 #
point $-1 49.392376476332899 23.409034996394524 6.6057814903458345 #
face $-1 $-1 $171 $22 $-1 $326 reversed single #
loop $-1 $-1 $327 $159 #
plane-surface $-1 0 0 6.6057814903458345 0 0 1 1 0 0 forward_v I I I I #
coedge $-1 $328 $162 $166 $254 forward $96 $-1 #
coedge $-1 $162 $328 $329 $330 reversed $96 $-1 #
edge $-1 $331 -4.0528907451729168 $252 -1.0528907451729173 $162 $332 forward 7 unknown #
coedge $-1 $164 $163 $327 $333 reversed $61 $-1 #
edge $-1 $173 1.0528907451729173 $334 4.0528907451729168 $169 $335 forward 7 unknown #
vertex $-1 $254 $336 #
straight-curve $-1 0 -15.051313244851052 3.6057814903458345 1 0 0 I I #
edge $-1 $252 5.4362261845396578 $257 13.79394793608313 $247 $337 forward 7 unknown #
coedge $-1 $338 $167 $170 $260 reversed $160 $-1 #
coedge $-1 $167 $338 $328 $339 forward $160 $-1 #
vertex $-1 $168 $340 #
straight-curve $-1 0 -23.409034996394524 3.6057814903458345 1 0 0 I I #
coedge $-1 $170 $169 $341 $342 reversed $171 $-1 #
edge $-1 $343 -6.6057814903458345 $172 -3.6057814903458345 $170 $344 forward 7 unknown #
point $-1 49.392376476332899 -23.409034996394524 3.6057814903458345 #
point $-1 49.392376476332899 -15.051313244851052 3.6057814903458345 #
loop $-1 $-1 $183 $175 #
plane-surface $-1 -49.392376476332899 0 0 1 0 0 0 0 -1 forward_v I I I I #
coedge $-1 $266 $178 $180 $270 reversed $104 $-1 #
coedge $-1 $178 $265 $345 $346 reversed $104 $-1 #
coedge $-1 $186 $181 $178 $268 forward $176 $-1 #
edge $-1 $271 -12.36588845919163 $347 -7.708126706492159 $267 $348 forward 7 unknown #
coedge $-1 $180 $179 $274 $349 reversed $65 $-1 #
edge $-1 $350 0 $271 6.1715948989632867 $265 $351 forward 7 unknown #
vertex $-1 $182 $352 #
straight-curve $-1 -44.73461472363342 8.9429189432275749 6.6057814903458354 0 1 0 I I #
coedge $-1 $345 $183 $186 $278 reversed $263 $-1 #
coedge $-1 $183 $345 $269 $349 forward $263 $-1 #
vertex $-1 $184 $353 #
straight-curve $-1 -49.392376476332899 14.682851239178291 38.555324816290891 0 0 1 I I #
straight-curve $-1 -49.392376476332899 14.682851239178291 2.5568508843710163 -0.75470957328743171 0 -0.6560590369687036 I I #
edge $-1 $347 -21.088824533732009 $187 -14.682851239178291 $273 $354 forward 7 unknown #
point $-1 -49.392376476332899 14.682851239178291 6.6057814903458345 #
point $-1 -44.734614723633428 14.682851239178291 6.6057814903458345 #
edge $-1 $355 1 $355 0 $190 $-1 forward 7 unknown #
vertex $-1 $191 $356 #
ellipse-curve $-1 -45.859576111078837 17.88583788645515 3.1963652720542148 -0.6560590369687036 0 0.75470957328743171 0.75470957328743171 0 0.6560590369687036 1 I I #
point $-1 -46.308786026695735 17.88583788645515 5.2373752243271348 #
loop $-1 $-1 $202 $194 #
plane-surface $-1 49.392376476332899 0 0 -1 0 0 0 0 1 forward_v I I I I #
coedge $-1 $288 $197 $357 $358 reversed $119 $-1 #
coedge $-1 $197 $287 $291 $359 reversed $119 $-1 #
edge $-1 $360 -98.784752952665798 $292 -88.267462753147896 $197 $361 forward 7 unknown #
coedge $-1 $199 $198 $295 $362 reversed $74 $-1 #
coedge $-1 $205 $200 $288 $359 forward $195 $-1 #
vertex $-1 $359 $363 #
straight-curve $-1 40.992895113907821 -4.781454953875496 6.6057814903458336 0 -1 0 I I #
coedge $-1 $357 $202 $205 $299 reversed $285 $-1 #
coedge $-1 $202 $357 $290 $362 forward $285 $-1 #
vertex $-1 $203 $364 #
straight-curve $-1 49.392376476332899 -4.0745065706509331 69.309739147652323 0 0 1 I I #
straight-curve $-1 -29.500634515768127 -4.0745065706509331 59.72646730320362 0.79863550430605224 0 -0.6018150307709319 I I #
edge $-1 $365 -15.051313244851052 $206 -4.0745065706509331 $294 $366 forward 7 unknown #
point $-1 49.392376476332899 -4.0745065706509331 6.6057814903458345 #
point $-1 40.992895113907821 -4.0745065706509331 6.6057814903458336 #
edge $-1 $367 1 $367 0 $209 $-1 forward 7 unknown #
vertex $-1 $210 $368 #
ellipse-curve $-1 42.81182342875254 -11.91508276650816 0.28160516849345724 0.6018150307709319 0 0.79863550430605224 0.79863550430605224 0 -0.6018150307709319 1 I I #
point $-1 45.991271299426408 -11.91508276650816 2.839234797050048 #
edge $-1 $369 1 $369 0 $213 $-1 forward 7 unknown #
vertex $-1 $214 $370 #
ellipse-curve $-1 42.81182342875254 -7.2107370489938241 0.28160516849345724 0.6018150307709319 0 0.79863550430605224 0.79863550430605224 0 -0.6018150307709319 1 I I #
point $-1 45.991271299426408 -7.2107370489938241 2.839234797050048 #
plane-surface $-1 49.392376476332899 0 0 -1 0 0 0 0 1 forward_v I I I I #
coedge $-1 $222 $220 $224 $315 reversed $141 $-1 #
edge $-1 $235 -6.6057814903458345 $317 6.6057814903458345 $234 $371 forward 7 unknown #
vertex $-1 $315 $372 #
straight-curve $-1 -49.392376476332899 -23.409034996394524 0 0 0 -1 I I #
edge $-1 $313 -23.409034996394524 $317 23.409034996394524 $311 $373 forward 7 unknown #
straight-curve $-1 0 -23.409034996394524 -6.6057814903458345 -1 0 0 I I #
vertex $-1 $227 $374 #
straight-curve $-1 0 23.409034996394524 -6.6057814903458345 1 0 0 I I #
point $-1 49.392376476332899 23.409034996394524 -6.6057814903458345 #
point $-1 49.392376476332899 -23.409034996394524 -6.6057814903458345 #
straight-curve $-1 -49.392376476332899 0 6.6057814903458345 0 -1 0 I I #
point $-1 -49.392376476332899 23.409034996394524 6.6057814903458345 #
point $-1 -49.392376476332899 -23.409034996394524 6.6057814903458345 #
straight-curve $-1 49.392376476332899 -23.409034996394524 0 0 0 -1 I I #
straight-curve $-1 49.392376476332899 23.409034996394524 0 0 0 -1 I I #
plane-surface $-1 49.392376476332899 0 0 -1 0 0 0 0 1 forward_v I I I I #
coedge $-1 $329 $341 $250 $333 forward $245 $-1 #
coedge $-1 $248 $247 $256 $339 reversed $96 $-1 #
coedge $-1 $375 $327 $248 $330 forward $245 $-1 #
edge $-1 $331 15.051313244851052 $376 23.409034996394524 $248 $377 forward 7 unknown #
vertex $-1 $330 $378 #
straight-curve $-1 -49.392376476332899 -15.051313244851052 2.5528907451729173 0 0 -1 I I #
edge $-1 $334 -49.392376476332899 $331 49.392376476332899 $327 $379 forward 7 unknown #
vertex $-1 $251 $380 #
straight-curve $-1 49.392376476332899 -15.051313244851052 2.5528907451729173 0 0 1 I I #
point $-1 -49.392376476332899 -15.051313244851052 3.6057814903458345 #
straight-curve $-1 -49.392376476332899 -9.615087060311394 3.6057814903458345 0 -1 0 I I #
coedge $-1 $256 $255 $375 $381 reversed $160 $-1 #
edge $-1 $376 -6.6057814903458345 $257 -3.6057814903458345 $328 $382 forward 7 unknown #
point $-1 -49.392376476332899 -23.409034996394524 3.6057814903458345 #
coedge $-1 $327 $375 $259 $342 forward $245 $-1 #
edge $-1 $343 -23.409034996394524 $334 -15.051313244851052 $259 $383 forward 7 unknown #
vertex $-1 $342 $384 #
straight-curve $-1 49.392376476332899 -23.409034996394524 0 0 0 -1 I I #
coedge $-1 $274 $273 $266 $346 forward $263 $-1 #
edge $-1 $347 31.949543325945058 $350 35.998473931919875 $345 $385 forward 7 unknown #
vertex $-1 $278 $386 #
straight-curve $-1 -57.100503182825058 21.088824533732009 6.6057814903458336 -1 0 0 I I #
edge $-1 $350 -12.145905590504434 $275 -5.739932295950716 $274 $387 forward 7 unknown #
vertex $-1 $349 $388 #
straight-curve $-1 -49.392376476332899 21.088824533732009 2.5568508843710163 0.75470957328743171 0 0.6560590369687036 I I #
point $-1 -44.734614723633428 21.088824533732009 6.6057814903458345 #
point $-1 -49.392376476332899 14.682851239178291 2.5568508843710163 #
straight-curve $-1 -49.392376476332899 0 6.6057814903458345 0 -1 0 I I #
vertex $-1 $281 $389 #
point $-1 -45.104866537791409 17.88583788645515 3.8524243090229184 #
coedge $-1 $295 $294 $287 $358 forward $285 $-1 #
edge $-1 $365 62.703957657306489 $360 69.033420982356176 $357 $390 forward 7 unknown #
edge $-1 $292 40.992895113907821 $365 49.392376476332899 $291 $391 forward 7 unknown #
vertex $-1 $358 $392 #
straight-curve $-1 -29.500634515768127 -15.051313244851052 59.72646730320362 -0.79863550430605224 0 0.6018150307709319 I I #
edge $-1 $360 -10.269858290975556 $296 0.70694838322456288 $295 $393 forward 7 unknown #
point $-1 40.992895113907821 -15.051313244851052 6.6057814903458336 #
point $-1 49.392376476332899 -4.0745065706509331 0.2763181652961535 #
vertex $-1 $299 $394 #
straight-curve $-1 49.392376476332899 0 6.6057814903458345 0 1 0 I I #
vertex $-1 $302 $395 #
point $-1 43.610458933058588 -11.91508276650816 -0.32020986227747467 #
vertex $-1 $306 $396 #
point $-1 43.610458933058588 -7.2107370489938241 -0.32020986227747467 #
straight-curve $-1 -49.392376476332899 23.409034996394524 0 0 0 -1 I I #
point $-1 -49.392376476332899 -23.409034996394524 -6.6057814903458345 #
straight-curve $-1 -49.392376476332899 0 -6.6057814903458345 0 1 0 I I #
point $-1 -49.392376476332899 23.409034996394524 -6.6057814903458345 #
coedge $-1 $341 $329 $338 $381 forward $245 $-1 #
vertex $-1 $330 $397 #
straight-curve $-1 -49.392376476332899 0 6.6057814903458345 0 -1 0 I I #
point $-1 -49.392376476332899 -15.051313244851052 6.6057814903458345 #
straight-curve $-1 0 -15.051313244851052 6.6057814903458345 -1 0 0 I I #
point $-1 49.392376476332899 -15.051313244851052 6.6057814903458345 #
edge $-1 $376 -49.392376476332899 $343 49.392376476332899 $338 $398 forward 7 unknown #
straight-curve $-1 -49.392376476332899 -23.409034996394524 0 0 0 -1 I I #
straight-curve $-1 49.392376476332899 0 6.6057814903458345 0 1 0 I I #
point $-1 49.392376476332899 -23.409034996394524 6.6057814903458345 #
straight-curve $-1 -49.392376476332899 21.088824533732009 38.555324816290891 0 0 -1 I I #
point $-1 -49.392376476332899 21.088824533732009 6.6057814903458345 #
straight-curve $-1 -49.392376476332899 8.9429189432275749 2.5568508843710172 0 -1 0 I I #
point $-1 -49.392376476332899 21.088824533732009 2.5568508843710163 #
point $-1 -45.203517074110138 17.88583788645515 2.441655698766783 #
straight-curve $-1 49.392376476332899 -15.051313244851052 69.309739147652323 0 0 -1 I I #
straight-curve $-1 0 -15.051313244851052 6.6057814903458345 1 0 0 I I #
point $-1 49.392376476332899 -15.051313244851052 0.2763181652961535 #
straight-curve $-1 49.392376476332899 -4.781454953875496 0.27631816529615705 0 1 0 I I #
point $-1 49.392376476332899 -15.051313244851052 6.6057814903458345 #
point $-1 42.210008397981603 -11.91508276650816 -0.51703033581259472 #
point $-1 42.210008397981603 -7.2107370489938241 -0.51703033581259472 #
point $-1 -49.392376476332899 -23.409034996394524 6.6057814903458345 #
straight-curve $-1 0 -23.409034996394524 6.6057814903458345 1 0 0 I I #
End-of-ACIS-data 