500 0 6 0           
7 Unknown 11 ACIS 5.0 NT 24 Fri Mar 26 17:53:04 1999 
-1 9.9999999999999995e-007 1e-010 
body $-1 $6 $-1 $7 #
body $-1 $8 $-1 $9 #
body $-1 $10 $-1 $11 #
body $-1 $12 $-1 $13 #
body $-1 $14 $-1 $15 #
body $-1 $16 $-1 $17 #
lump $-1 $-1 $18 $0 #
transform $-1 1 0 0 0 1 0 0 0 1 44.408093508713037 24.536057817329709 5.0267206679810279 1 rotate no_reflect no_shear #
lump $-1 $-1 $19 $1 #
transform $-1 1 0 0 0 1 0 0 0 1 44.408093508713037 24.536057817329709 5.0267206679810279 1 rotate no_reflect no_shear #
lump $-1 $-1 $20 $2 #
transform $-1 1 0 0 0 1 0 0 0 1 44.408093508713037 24.536057817329709 5.0267206679810279 1 rotate no_reflect no_shear #
lump $-1 $-1 $21 $3 #
transform $-1 1 0 0 0 1 0 0 0 1 44.408093508713037 24.536057817329709 5.0267206679810279 1 rotate no_reflect no_shear #
lump $-1 $-1 $22 $4 #
transform $-1 1 0 0 0 1 0 0 0 1 44.408093508713037 24.536057817329709 5.0267206679810279 1 rotate no_reflect no_shear #
lump $-1 $-1 $23 $5 #
transform $-1 1 0 0 0 1 0 0 0 1 44.408093508713037 24.536057817329709 5.0267206679810279 1 rotate no_reflect no_shear #
shell $-1 $-1 $-1 $24 $-1 $6 #
shell $-1 $-1 $-1 $25 $-1 $8 #
shell $-1 $-1 $-1 $26 $-1 $10 #
shell $-1 $-1 $-1 $27 $-1 $12 #
shell $-1 $-1 $-1 $28 $-1 $14 #
shell $-1 $-1 $-1 $29 $-1 $16 #
face $-1 $30 $31 $18 $-1 $32 forward single #
face $-1 $33 $34 $19 $-1 $35 reversed single #
face $-1 $36 $37 $20 $-1 $38 reversed single #
face $-1 $39 $40 $21 $-1 $41 forward single #
face $-1 $42 $43 $22 $-1 $44 reversed single #
face $-1 $45 $46 $23 $-1 $47 forward single #
face $-1 $48 $49 $18 $-1 $50 reversed single #
loop $-1 $-1 $51 $24 #
plane-surface $-1 0 0 5.0267206679810279 0 0 1 1 0 0 forward_v I I I I #
face $-1 $52 $53 $19 $-1 $54 reversed single #
loop $-1 $-1 $55 $25 #
plane-surface $-1 0 -21.66477969233992 2.0267206679810279 0 0 1 1 0 0 forward_v I I I I #
face $-1 $56 $57 $20 $-1 $58 reversed single #
loop $-1 $-1 $59 $26 #
plane-surface $-1 48.791648275901906 -12.71788893248417 126.05138010969243 0 -1 0 -0.73135370988377701 0 -0.68199835119979291 forward_v I I I I #
face $-1 $60 $61 $21 $-1 $62 forward single #
loop $-1 $63 $64 $27 #
cone-surface $-1 41.504432556925828 -15.755695249917151 2.0253247577467155 -0.73135370988377701 0 -0.68199835119979291 0.68199835119979291 0 -0.73135370988377701 1 I I 0 1 1 forward I I I I #
face $-1 $65 $66 $22 $-1 $67 reversed single #
loop $-1 $-1 $68 $28 #
plane-surface $-1 -44.408093508713037 -15.755695249917151 0.52283913102949953 -0.73135370988377701 0 0.68199835119979291 0.68199835119979291 0 0.73135370988377701 forward_v I I I I #
face $-1 $69 $70 $23 $-1 $71 forward single #
loop $-1 $72 $73 $29 #
cone-surface $-1 -41.504432556925828 -15.755695249917151 2.0253247577467226 0.73135370988377701 0 -0.68199835119979291 0.68199835119979291 0 0.73135370988377701 1 I I 0 1 1 forward I I I I #
face $-1 $74 $75 $18 $-1 $76 reversed single #
loop $-1 $-1 $77 $30 #
plane-surface $-1 0 0 -5.0267206679810279 0 0 1 1 0 0 forward_v I I I I #
coedge $-1 $78 $79 $80 $81 forward $31 $-1 #
face $-1 $82 $83 $19 $-1 $84 reversed single #
loop $-1 $-1 $85 $33 #
plane-surface $-1 0 -18.79350156735013 3.5267206679810279 0 -1 0 0 0 -1 forward_v I I I I #
coedge $-1 $86 $87 $88 $89 reversed $34 $-1 #
face $-1 $90 $91 $20 $-1 $92 forward single #
loop $-1 $-1 $93 $36 #
plane-surface $-1 -16.164399597024001 -15.755695249917151 65.478887003955393 0.73135370988377701 0 0.68199835119979291 0.68199835119979291 0 -0.73135370988377701 forward_v I I I I #
coedge $-1 $94 $95 $96 $97 reversed $37 $-1 #
face $-1 $-1 $98 $21 $-1 $99 forward single #
loop $-1 $100 $101 $39 #
cone-surface $-1 40.335063438868758 -15.755695249917151 0.93487044038827705 -0.73135370988377701 0 -0.68199835119979291 0.34099917559989645 0 -0.36567685494188851 1 I I -0.70710678118654746 0.70710678118654746 0.5 forward I I I I #
loop $-1 $-1 $102 $27 #
coedge $-1 $64 $64 $103 $104 reversed $40 $-1 #
face $-1 $105 $106 $22 $-1 $107 forward single #
loop $-1 $-1 $108 $42 #
plane-surface $-1 -109.36414138163894 -12.71788893248417 61.095332236766538 0 -1 0 0.73135370988377701 0 -0.68199835119979291 forward_v I I I I #
coedge $-1 $109 $110 $111 $112 reversed $43 $-1 #
face $-1 $-1 $113 $23 $-1 $114 forward single #
loop $-1 $115 $116 $45 #
cone-surface $-1 -40.335063438868758 -15.755695249917151 0.93487044038828415 0.73135370988377701 0 -0.68199835119979291 0.34099917559989645 0 0.36567685494188851 1 I I -0.70710678118654746 0.70710678118654746 0.5 forward I I I I #
loop $-1 $-1 $117 $29 #
coedge $-1 $73 $73 $118 $119 reversed $46 $-1 #
face $-1 $120 $121 $18 $-1 $122 reversed single #
loop $-1 $-1 $123 $48 #
plane-surface $-1 0 -24.536057817329709 0 0 1 0 0 0 1 forward_v I I I I #
coedge $-1 $124 $125 $126 $127 forward $49 $-1 #
coedge $-1 $128 $51 $129 $130 forward $31 $-1 #
coedge $-1 $51 $128 $131 $132 forward $31 $-1 #
coedge $-1 $133 $134 $51 $81 reversed $135 $-1 #
edge $-1 $136 -24.536057817329709 $137 24.536057817329709 $80 $138 forward 7 unknown #
face $-1 $139 $140 $19 $-1 $141 reversed single #
loop $-1 $-1 $142 $52 #
plane-surface $-1 -44.408093508713037 0 0 1 0 0 0 0 -1 forward_v I I I I #
coedge $-1 $143 $144 $145 $146 reversed $53 $-1 #
coedge $-1 $147 $55 $148 $149 reversed $34 $-1 #
coedge $-1 $55 $147 $150 $151 forward $34 $-1 #
coedge $-1 $152 $153 $55 $89 forward $154 $-1 #
edge $-1 $155 -13.703667971159749 $156 -7.9611117211801705 $88 $157 forward 7 unknown #
face $-1 $158 $159 $20 $-1 $160 forward single #
loop $-1 $-1 $161 $56 #
plane-surface $-1 0 -18.79350156735013 3.5267206679810279 0 -1 0 0 0 -1 forward_v I I I I #
coedge $-1 $162 $163 $164 $165 reversed $57 $-1 #
coedge $-1 $95 $59 $166 $167 reversed $37 $-1 #
coedge $-1 $59 $94 $162 $168 reversed $37 $-1 #
coedge $-1 $164 $169 $59 $97 forward $159 $-1 #
edge $-1 $170 -20.012269370762084 $171 -15.812331993417992 $96 $172 forward 7 unknown #
loop $-1 $-1 $103 $60 #
plane-surface $-1 -16.164399597024001 -15.755695249917151 65.478887003955393 0.73135370988377701 0 0.68199835119979291 0.68199835119979291 0 -0.73135370988377701 forward_v I I I I #
loop $-1 $-1 $173 $39 #
coedge $-1 $101 $101 $102 $174 reversed $61 $-1 #
coedge $-1 $102 $102 $101 $174 forward $63 $-1 #
coedge $-1 $103 $103 $64 $104 forward $98 $-1 #
edge $-1 $175 0 $175 6.2831853071796004 $103 $176 forward 7 unknown #
face $-1 $177 $178 $22 $-1 $179 reversed single #
loop $-1 $-1 $111 $65 #
plane-surface $-1 0 0 5.0267206679810279 0 0 1 1 0 0 forward_v I I I I #
coedge $-1 $180 $181 $182 $183 reversed $66 $-1 #
coedge $-1 $184 $68 $185 $186 reversed $43 $-1 #
coedge $-1 $68 $184 $180 $187 forward $43 $-1 #
coedge $-1 $182 $188 $68 $112 forward $106 $-1 #
edge $-1 $189 -10.915653942391558 $190 -4.8400413075255946 $111 $191 forward 7 unknown #
loop $-1 $-1 $118 $69 #
plane-surface $-1 -44.408093508713037 -15.755695249917151 0.52283913102949953 -0.73135370988377701 0 0.68199835119979291 0.68199835119979291 0 0.73135370988377701 forward_v I I I I #
loop $-1 $-1 $192 $45 #
coedge $-1 $116 $116 $117 $193 reversed $70 $-1 #
coedge $-1 $117 $117 $116 $193 forward $72 $-1 #
coedge $-1 $118 $118 $73 $119 forward $113 $-1 #
edge $-1 $194 0 $194 6.2831853071796004 $118 $195 forward 7 unknown #
face $-1 $196 $197 $18 $-1 $198 reversed single #
loop $-1 $-1 $199 $74 #
plane-surface $-1 -44.408093508713037 0 0 1 0 0 0 0 -1 forward_v I I I I #
coedge $-1 $200 $131 $201 $202 forward $75 $-1 #
coedge $-1 $203 $77 $200 $204 forward $49 $-1 #
coedge $-1 $77 $203 $205 $206 forward $49 $-1 #
coedge $-1 $134 $133 $77 $127 reversed $135 $-1 #
edge $-1 $207 -24.536057817329709 $208 24.536057817329709 $126 $209 forward 7 unknown #
coedge $-1 $79 $78 $210 $211 forward $31 $-1 #
coedge $-1 $212 $213 $78 $130 reversed $197 $-1 #
edge $-1 $137 -44.408093508713037 $214 44.408093508713037 $129 $215 forward 7 unknown #
coedge $-1 $123 $216 $79 $132 reversed $75 $-1 #
edge $-1 $217 -44.408093508713037 $136 44.408093508713037 $131 $218 forward 7 unknown #
coedge $-1 $126 $80 $216 $219 forward $135 $-1 #
coedge $-1 $80 $126 $212 $220 reversed $135 $-1 #
loop $-1 $-1 $133 $196 #
vertex $-1 $81 $221 #
vertex $-1 $81 $222 #
straight-curve $-1 44.408093508713037 0 5.0267206679810279 0 1 0 I I #
face $-1 $223 $224 $19 $-1 $225 forward single #
loop $-1 $-1 $148 $82 #
plane-surface $-1 0 -24.536057817329709 0 0 1 0 0 0 1 forward_v I I I I #
coedge $-1 $226 $227 $144 $228 forward $83 $-1 #
coedge $-1 $150 $85 $152 $229 reversed $53 $-1 #
coedge $-1 $85 $150 $142 $228 reversed $53 $-1 #
coedge $-1 $230 $231 $85 $146 forward $224 $-1 #
edge $-1 $232 -44.408093508713037 $233 44.408093508713037 $145 $234 forward 7 unknown #
coedge $-1 $87 $86 $226 $235 reversed $34 $-1 #
coedge $-1 $236 $237 $86 $149 forward $140 $-1 #
edge $-1 $238 -44.408093508713037 $155 44.408093508713037 $148 $239 forward 7 unknown #
coedge $-1 $144 $143 $87 $151 reversed $53 $-1 #
edge $-1 $240 -44.408093508713037 $156 44.408093508713037 $150 $241 forward 7 unknown #
coedge $-1 $242 $88 $143 $229 forward $154 $-1 #
coedge $-1 $88 $242 $236 $243 forward $154 $-1 #
loop $-1 $-1 $152 $223 #
vertex $-1 $149 $244 #
vertex $-1 $89 $245 #
straight-curve $-1 44.408093508713037 -10.83238984616996 2.0267206679810279 0 1 0 I I #
face $-1 $-1 $246 $20 $-1 $247 reversed single #
loop $-1 $-1 $164 $90 #
plane-surface $-1 0 0 5.0267206679810279 0 0 1 1 0 0 forward_v I I I I #
coedge $-1 $248 $249 $163 $250 reversed $91 $-1 #
coedge $-1 $251 $93 $95 $168 forward $57 $-1 #
coedge $-1 $93 $251 $161 $250 forward $57 $-1 #
coedge $-1 $252 $96 $93 $165 forward $159 $-1 #
edge $-1 $171 4.8400413075255946 $253 10.915653942391554 $164 $254 forward 7 unknown #
coedge $-1 $255 $256 $94 $167 forward $246 $-1 #
edge $-1 $257 -62.50285092381673 $170 -57.998969386865184 $166 $258 forward 7 unknown #
edge $-1 $171 82.657906180008467 $257 88.816187017426074 $95 $259 forward 7 unknown #
coedge $-1 $96 $252 $255 $260 forward $159 $-1 #
vertex $-1 $167 $261 #
vertex $-1 $97 $262 #
straight-curve $-1 24.395824137950953 -12.71788893248417 5.0267206679810243 -1 0 0 I I #
coedge $-1 $173 $173 $-1 $263 reversed $100 $-1 #
edge $-1 $264 0 $264 6.2831853071796004 $101 $265 forward 7 unknown #
vertex $-1 $104 $266 #
ellipse-curve $-1 42.308124820040995 -15.755695249917151 2.774779899505246 0.73135370988377701 0 0.68199835119979291 0.68199835119979291 0 -0.73135370988377701 1 I I #
face $-1 $-1 $267 $22 $-1 $268 forward single #
loop $-1 $-1 $269 $105 #
plane-surface $-1 -44.408093508713037 0 0 1 0 0 0 0 -1 forward_v I I I I #
coedge $-1 $181 $108 $110 $187 reversed $66 $-1 #
coedge $-1 $108 $180 $269 $270 reversed $66 $-1 #
coedge $-1 $271 $111 $108 $183 forward $106 $-1 #
edge $-1 $190 -14.473914559450513 $272 -10.273977182106435 $182 $273 forward 7 unknown #
coedge $-1 $110 $109 $274 $275 reversed $43 $-1 #
coedge $-1 $276 $277 $109 $186 forward $267 $-1 #
edge $-1 $278 -16.2415732294847 $189 -10.083292392067111 $185 $279 forward 7 unknown #
edge $-1 $280 0 $190 6.1582808374175917 $180 $281 forward 7 unknown #
coedge $-1 $111 $271 $276 $282 forward $106 $-1 #
vertex $-1 $186 $283 #
vertex $-1 $112 $284 #
straight-curve $-1 -40.208156131368959 -7.8778476249585756 5.0267206679810279 0 1 0 I I #
coedge $-1 $192 $192 $-1 $285 reversed $115 $-1 #
edge $-1 $286 0 $286 6.2831853071796004 $116 $287 forward 7 unknown #
vertex $-1 $119 $288 #
ellipse-curve $-1 -42.308124820041002 -15.755695249917151 2.7747798995052602 -0.73135370988377701 0 0.68199835119979291 0.68199835119979291 0 0.73135370988377701 1 I I #
face $-1 $-1 $135 $18 $-1 $289 reversed single #
loop $-1 $-1 $212 $120 #
plane-surface $-1 0 24.536057817329709 0 0 -1 0 0 0 -1 forward_v I I I I #
coedge $-1 $290 $210 $213 $291 forward $121 $-1 #
coedge $-1 $216 $123 $124 $204 reversed $75 $-1 #
coedge $-1 $210 $290 $123 $202 reversed $121 $-1 #
edge $-1 $217 -5.0267206679810279 $292 5.0267206679810279 $201 $293 forward 7 unknown #
coedge $-1 $125 $124 $290 $294 forward $49 $-1 #
edge $-1 $208 -44.408093508713037 $292 44.408093508713037 $200 $295 forward 7 unknown #
coedge $-1 $213 $212 $125 $206 reversed $197 $-1 #
edge $-1 $296 -44.408093508713037 $207 44.408093508713037 $205 $297 forward 7 unknown #
vertex $-1 $127 $298 #
vertex $-1 $219 $299 #
straight-curve $-1 44.408093508713037 0 -5.0267206679810279 0 -1 0 I I #
coedge $-1 $199 $201 $128 $211 reversed $121 $-1 #
edge $-1 $214 -24.536057817329709 $217 24.536057817329709 $210 $300 forward 7 unknown #
coedge $-1 $205 $129 $134 $220 forward $197 $-1 #
coedge $-1 $129 $205 $199 $291 reversed $197 $-1 #
vertex $-1 $130 $301 #
straight-curve $-1 0 24.536057817329709 5.0267206679810279 -1 0 0 I I #
coedge $-1 $131 $200 $133 $219 reversed $75 $-1 #
vertex $-1 $211 $302 #
straight-curve $-1 0 -24.536057817329709 5.0267206679810279 1 0 0 I I #
edge $-1 $136 -5.0267206679810279 $208 5.0267206679810279 $133 $303 forward 7 unknown #
edge $-1 $137 -5.0267206679810279 $207 5.0267206679810279 $134 $304 forward 7 unknown #
point $-1 44.408093508713037 -24.536057817329709 5.0267206679810279 #
point $-1 44.408093508713037 24.536057817329709 5.0267206679810279 #
face $-1 $-1 $154 $19 $-1 $305 reversed single #
loop $-1 $-1 $145 $139 #
plane-surface $-1 0 0 5.0267206679810279 0 0 1 1 0 0 forward_v I I I I #
coedge $-1 $306 $142 $147 $235 forward $83 $-1 #
coedge $-1 $142 $306 $230 $307 reversed $83 $-1 #
edge $-1 $233 -3.263360333990514 $240 -0.26336033399051395 $142 $308 forward 7 unknown #
edge $-1 $156 0.26336033399051395 $232 3.263360333990514 $152 $309 forward 7 unknown #
coedge $-1 $310 $145 $227 $307 forward $224 $-1 #
coedge $-1 $145 $310 $242 $311 forward $224 $-1 #
vertex $-1 $229 $312 #
vertex $-1 $307 $313 #
straight-curve $-1 0 -18.79350156735013 5.0267206679810279 -1 0 0 I I #
edge $-1 $240 7.9611117211801705 $238 13.703667971159749 $226 $314 forward 7 unknown #
coedge $-1 $315 $148 $153 $243 reversed $140 $-1 #
coedge $-1 $148 $315 $306 $316 forward $140 $-1 #
vertex $-1 $149 $317 #
straight-curve $-1 0 -24.536057817329709 2.0267206679810279 1 0 0 I I #
vertex $-1 $235 $318 #
straight-curve $-1 0 -18.79350156735013 2.0267206679810279 1 0 0 I I #
coedge $-1 $153 $152 $231 $311 reversed $154 $-1 #
edge $-1 $319 -5.0267206679810279 $155 -2.0267206679810279 $153 $320 forward 7 unknown #
point $-1 44.408093508713037 -24.536057817329709 2.0267206679810279 #
point $-1 44.408093508713037 -18.79350156735013 2.0267206679810279 #
loop $-1 $-1 $166 $158 #
plane-surface $-1 44.408093508713037 0 0 -1 0 0 0 0 1 forward_v I I I I #
coedge $-1 $249 $161 $321 $322 reversed $91 $-1 #
coedge $-1 $161 $248 $252 $323 reversed $91 $-1 #
edge $-1 $324 -88.816187017426074 $253 -82.657906180008453 $161 $325 forward 7 unknown #
coedge $-1 $163 $162 $256 $326 reversed $57 $-1 #
coedge $-1 $169 $164 $249 $323 forward $159 $-1 #
vertex $-1 $323 $327 #
straight-curve $-1 40.208156131368938 -7.8778476249585756 5.0267206679810172 0 -1 0 I I #
coedge $-1 $321 $166 $169 $260 reversed $246 $-1 #
coedge $-1 $166 $321 $251 $326 forward $246 $-1 #
vertex $-1 $167 $328 #
straight-curve $-1 44.408093508713037 -12.71788893248417 63.025690054846216 0 0 1 I I #
straight-curve $-1 -16.164399597024001 -12.71788893248417 65.478887003955393 0.68199835119979291 0 -0.73135370988377701 I I #
edge $-1 $329 -18.79350156735013 $170 -12.71788893248417 $255 $330 forward 7 unknown #
point $-1 44.408093508713037 -12.71788893248417 5.0267206679810279 #
point $-1 40.208156131368945 -12.71788893248417 5.0267206679810243 #
edge $-1 $331 1 $331 0 $173 $-1 forward 7 unknown #
vertex $-1 $174 $332 #
ellipse-curve $-1 40.700740293810647 -15.755695249917151 1.2758696159881735 0.73135370988377701 0 0.68199835119979291 0.68199835119979291 0 -0.73135370988377701 1 I I #
point $-1 42.990123171240796 -15.755695249917151 2.04342618962148 #
loop $-1 $-1 $185 $177 #
plane-surface $-1 0 -18.79350156735013 3.5267206679810279 0 -1 0 0 0 -1 forward_v I I I I #
coedge $-1 $274 $333 $181 $270 forward $178 $-1 #
edge $-1 $272 25.520945450402241 $280 30.024826987353769 $269 $334 forward 7 unknown #
coedge $-1 $188 $182 $333 $335 forward $106 $-1 #
vertex $-1 $335 $336 #
straight-curve $-1 -54.682070690819472 -12.71788893248417 5.0267206679810279 -1 0 0 I I #
coedge $-1 $337 $269 $184 $275 forward $178 $-1 #
edge $-1 $280 4.8400413075255946 $278 10.915653942391558 $274 $338 forward 7 unknown #
coedge $-1 $277 $185 $188 $282 reversed $267 $-1 #
coedge $-1 $185 $276 $337 $339 reversed $267 $-1 #
vertex $-1 $339 $340 #
straight-curve $-1 -33.331367345313772 -18.79350156735013 12.401173966762173 0.68199835119979291 0 0.73135370988377701 I I #
vertex $-1 $275 $341 #
straight-curve $-1 -44.408093508713037 -12.71788893248417 0.52283913102949953 0.68199835119979291 0 0.73135370988377701 I I #
edge $-1 $342 -44.408093508713037 $189 -40.208156131368959 $188 $343 forward 7 unknown #
point $-1 -40.208156131368959 -18.793501567350134 5.0267206679810279 #
point $-1 -40.208156131368959 -12.71788893248417 5.0267206679810279 #
edge $-1 $344 1 $344 0 $192 $-1 forward 7 unknown #
vertex $-1 $193 $345 #
ellipse-curve $-1 -40.700740293810647 -15.755695249917151 1.2758696159881806 -0.73135370988377701 0 0.68199835119979291 0.68199835119979291 0 0.73135370988377701 1 I I #
point $-1 -41.626126468841207 -15.755695249917151 3.5061336093890412 #
plane-surface $-1 44.408093508713037 0 0 -1 0 0 0 0 1 forward_v I I I I #
coedge $-1 $201 $199 $203 $294 reversed $121 $-1 #
edge $-1 $214 -5.0267206679810279 $296 5.0267206679810279 $213 $346 forward 7 unknown #
vertex $-1 $294 $347 #
straight-curve $-1 -44.408093508713037 -24.536057817329709 0 0 0 -1 I I #
edge $-1 $292 -24.536057817329709 $296 24.536057817329709 $290 $348 forward 7 unknown #
straight-curve $-1 0 -24.536057817329709 -5.0267206679810279 -1 0 0 I I #
vertex $-1 $206 $349 #
straight-curve $-1 0 24.536057817329709 -5.0267206679810279 1 0 0 I I #
point $-1 44.408093508713037 24.536057817329709 -5.0267206679810279 #
point $-1 44.408093508713037 -24.536057817329709 -5.0267206679810279 #
straight-curve $-1 -44.408093508713037 0 5.0267206679810279 0 -1 0 I I #
point $-1 -44.408093508713037 24.536057817329709 5.0267206679810279 #
point $-1 -44.408093508713037 -24.536057817329709 5.0267206679810279 #
straight-curve $-1 44.408093508713037 -24.536057817329709 0 0 0 -1 I I #
straight-curve $-1 44.408093508713037 24.536057817329709 0 0 0 -1 I I #
plane-surface $-1 44.408093508713037 0 0 -1 0 0 0 0 1 forward_v I I I I #
coedge $-1 $227 $226 $237 $316 reversed $83 $-1 #
edge $-1 $233 18.79350156735013 $350 24.536057817329709 $227 $351 forward 7 unknown #
straight-curve $-1 -44.408093508713037 -18.79350156735013 1.763360333990514 0 0 -1 I I #
straight-curve $-1 44.408093508713037 -18.79350156735013 1.763360333990514 0 0 1 I I #
coedge $-1 $231 $230 $315 $352 forward $224 $-1 #
edge $-1 $319 -24.536057817329709 $232 -18.79350156735013 $242 $353 forward 7 unknown #
point $-1 44.408093508713037 -18.79350156735013 5.0267206679810279 #
point $-1 -44.408093508713037 -18.79350156735013 5.0267206679810279 #
straight-curve $-1 -44.408093508713037 -10.83238984616996 2.0267206679810279 0 -1 0 I I #
coedge $-1 $237 $236 $310 $352 reversed $140 $-1 #
edge $-1 $350 -5.0267206679810279 $238 -2.0267206679810279 $306 $354 forward 7 unknown #
point $-1 -44.408093508713037 -24.536057817329709 2.0267206679810279 #
point $-1 -44.408093508713037 -18.79350156735013 2.0267206679810279 #
vertex $-1 $311 $355 #
straight-curve $-1 44.408093508713037 -24.536057817329709 0 0 0 -1 I I #
coedge $-1 $256 $255 $248 $322 forward $246 $-1 #
edge $-1 $329 57.998969386865184 $324 62.50285092381673 $321 $356 forward 7 unknown #
edge $-1 $253 40.208156131368938 $329 44.408093508713037 $252 $357 forward 7 unknown #
vertex $-1 $322 $358 #
straight-curve $-1 -16.164399597024001 -18.793501567350134 65.478887003955393 -0.68199835119979291 0 0.73135370988377701 I I #
edge $-1 $324 -10.915653942391558 $257 -4.8400413075255946 $256 $359 forward 7 unknown #
point $-1 40.208156131368938 -18.79350156735013 5.0267206679810279 #
point $-1 44.408093508713037 -12.71788893248417 0.52283913102948532 #
vertex $-1 $260 $360 #
straight-curve $-1 44.408093508713037 0 5.0267206679810279 0 1 0 I I #
vertex $-1 $263 $361 #
point $-1 41.382738645010441 -15.755695249917151 0.54451590610439649 #
coedge $-1 $269 $337 $271 $335 reversed $178 $-1 #
straight-curve $-1 -44.408093508713037 -12.71788893248417 30.547666118383269 0 0 -1 I I #
edge $-1 $272 12.71788893248417 $342 18.79350156735013 $333 $362 forward 7 unknown #
point $-1 -44.408093508713037 -12.71788893248417 5.0267206679810279 #
coedge $-1 $333 $274 $277 $339 forward $178 $-1 #
straight-curve $-1 -44.408093508713037 -7.8778476249585756 0.52283913102950186 0 -1 0 I I #
edge $-1 $278 -30.024826987353769 $342 -25.520945450402241 $337 $363 forward 7 unknown #
point $-1 -44.408093508713037 -18.793501567350134 0.52283913102949953 #
point $-1 -44.408093508713037 -12.71788893248417 0.52283913102949953 #
vertex $-1 $339 $364 #
straight-curve $-1 0 -18.79350156735013 5.0267206679810279 1 0 0 I I #
vertex $-1 $285 $365 #
point $-1 -40.018741942610852 -15.755695249917151 2.0072233258719576 #
straight-curve $-1 -44.408093508713037 24.536057817329709 0 0 0 -1 I I #
point $-1 -44.408093508713037 -24.536057817329709 -5.0267206679810279 #
straight-curve $-1 -44.408093508713037 0 -5.0267206679810279 0 1 0 I I #
point $-1 -44.408093508713037 24.536057817329709 -5.0267206679810279 #
vertex $-1 $307 $366 #
straight-curve $-1 -44.408093508713037 0 5.0267206679810279 0 -1 0 I I #
edge $-1 $350 -44.408093508713037 $319 44.408093508713037 $315 $367 forward 7 unknown #
straight-curve $-1 44.408093508713037 0 5.0267206679810279 0 1 0 I I #
straight-curve $-1 -44.408093508713037 -24.536057817329709 0 0 0 -1 I I #
point $-1 44.408093508713037 -24.536057817329709 5.0267206679810279 #
straight-curve $-1 44.408093508713037 -18.793501567350134 63.025690054846216 0 0 -1 I I #
straight-curve $-1 0 -18.79350156735013 5.0267206679810279 1 0 0 I I #
point $-1 44.408093508713037 -18.793501567350134 0.52283913102948532 #
straight-curve $-1 44.408093508713037 -7.8778476249585756 0.52283913102947821 0 1 0 I I #
point $-1 44.408093508713037 -18.79350156735013 5.0267206679810279 #
point $-1 39.96938658392687 -15.755695249917151 0.59387126478838059 #
straight-curve $-1 -44.408093508713037 0 5.0267206679810279 0 -1 0 I I #
straight-curve $-1 -44.408093508713037 -18.793501567350134 30.547666118383269 0 0 1 I I #
point $-1 -44.408093508713037 -18.79350156735013 5.0267206679810279 #
point $-1 -39.96938658392687 -15.755695249917151 0.5938712647883877 #
point $-1 -44.408093508713037 -24.536057817329709 5.0267206679810279 #
straight-curve $-1 0 -24.536057817329709 5.0267206679810279 1 0 0 I I #
End-of-ACIS-data 