500 0 6 0           
7 Unknown 11 ACIS 5.0 NT 24 Fri Mar 26 14:35:48 1999 
-1 9.9999999999999995e-007 1e-010 
body $-1 $6 $-1 $7 #
body $-1 $8 $-1 $9 #
body $-1 $10 $-1 $11 #
body $-1 $12 $-1 $13 #
body $-1 $14 $-1 $15 #
body $-1 $16 $-1 $17 #
lump $-1 $-1 $18 $0 #
transform $-1 1 0 0 0 1 0 0 0 1 52.594378490554519 35.645464026820839 8.209977019880272 1 rotate no_reflect no_shear #
lump $-1 $-1 $19 $1 #
transform $-1 1 0 0 0 1 0 0 0 1 52.594378490554519 35.645464026820839 8.209977019880272 1 rotate no_reflect no_shear #
lump $-1 $-1 $20 $2 #
transform $-1 1 0 0 0 1 0 0 0 1 52.594378490554519 35.645464026820839 8.209977019880272 1 rotate no_reflect no_shear #
lump $-1 $-1 $21 $3 #
transform $-1 1 0 0 0 1 0 0 0 1 52.594378490554519 35.645464026820839 8.209977019880272 1 rotate no_reflect no_shear #
lump $-1 $-1 $22 $4 #
transform $-1 1 0 0 0 1 0 0 0 1 52.594378490554519 35.645464026820839 8.209977019880272 1 rotate no_reflect no_shear #
lump $-1 $-1 $23 $5 #
transform $-1 1 0 0 0 1 0 0 0 1 52.594378490554519 35.645464026820839 8.209977019880272 1 rotate no_reflect no_shear #
shell $-1 $-1 $-1 $24 $-1 $6 #
shell $-1 $-1 $-1 $25 $-1 $8 #
shell $-1 $-1 $-1 $26 $-1 $10 #
shell $-1 $-1 $-1 $27 $-1 $12 #
shell $-1 $-1 $-1 $28 $-1 $14 #
shell $-1 $-1 $-1 $29 $-1 $16 #
face $-1 $30 $31 $18 $-1 $32 forward single #
face $-1 $33 $34 $19 $-1 $35 forward single #
face $-1 $36 $37 $20 $-1 $38 forward single #
face $-1 $39 $40 $21 $-1 $41 reversed single #
face $-1 $42 $43 $22 $-1 $44 forward single #
face $-1 $45 $46 $23 $-1 $47 forward single #
face $-1 $48 $49 $18 $-1 $50 reversed single #
loop $-1 $-1 $51 $24 #
plane-surface $-1 0 0 8.209977019880272 0 0 1 1 0 0 forward_v I I I I #
face $-1 $52 $53 $19 $-1 $54 forward single #
loop $-1 $-1 $55 $25 #
plane-surface $-1 0 -35.645464026820839 0 0 1 0 0 0 1 forward_v I I I I #
face $-1 $56 $57 $20 $-1 $58 forward single #
loop $-1 $-1 $59 $26 #
plane-surface $-1 0 35.645464026820839 0 0 -1 0 0 0 -1 forward_v I I I I #
face $-1 $60 $61 $21 $-1 $62 reversed single #
loop $-1 $-1 $63 $27 #
plane-surface $-1 49.998171248373239 -0.30082877898189686 149.55556376443215 0 -1 0 -0.69465837861970381 0 -0.71933979245794832 forward_v I I I I #
face $-1 $64 $65 $22 $-1 $66 forward single #
loop $-1 $67 $68 $28 #
cone-surface $-1 48.138335421865825 -9.2092421351873845 3.8628834844778304 -0.69465837861970381 0 -0.71933979245794832 1.0790096886869225 0 -1.0419875679295556 1 I I 0 1 1.5 forward I I I I #
face $-1 $69 $70 $23 $-1 $71 forward single #
loop $-1 $72 $73 $29 #
cone-surface $-1 48.138335421865825 -3.8641941214640951 3.8628834844778304 -0.69465837861970381 0 -0.71933979245794832 1.0790096886869225 0 -1.0419875679295556 1 I I 0 1 1.5 forward I I I I #
face $-1 $74 $75 $18 $-1 $76 reversed single #
loop $-1 $-1 $77 $30 #
plane-surface $-1 0 0 -8.209977019880272 0 0 1 1 0 0 forward_v I I I I #
coedge $-1 $78 $79 $80 $81 forward $31 $-1 #
face $-1 $82 $83 $19 $-1 $84 reversed single #
loop $-1 $-1 $85 $33 #
plane-surface $-1 0 0 8.209977019880272 0 0 1 1 0 0 forward_v I I I I #
coedge $-1 $86 $87 $88 $89 forward $34 $-1 #
face $-1 $90 $91 $20 $-1 $92 reversed single #
loop $-1 $-1 $93 $36 #
plane-surface $-1 0 0 8.209977019880272 0 0 1 1 0 0 forward_v I I I I #
coedge $-1 $94 $95 $96 $97 forward $37 $-1 #
face $-1 $98 $99 $21 $-1 $100 reversed single #
loop $-1 $-1 $101 $39 #
plane-surface $-1 -23.072080125146016 -6.5367181283257381 73.889105148731616 0.69465837861970381 0 0.71933979245794832 0.71933979245794832 0 -0.69465837861970381 forward_v I I I I #
coedge $-1 $102 $103 $104 $105 reversed $40 $-1 #
face $-1 $-1 $106 $22 $-1 $107 forward single #
loop $-1 $108 $109 $42 #
cone-surface $-1 46.988164568737858 -9.2092421351873845 2.6718467270658817 -0.69465837861970381 0 -0.71933979245794832 0.53950484434346124 0 -0.5209937839647778 1 I I -0.70710678118654757 0.70710678118654757 0.75 forward I I I I #
loop $-1 $-1 $110 $28 #
coedge $-1 $68 $68 $111 $112 reversed $43 $-1 #
face $-1 $-1 $113 $23 $-1 $114 forward single #
loop $-1 $115 $116 $45 #
cone-surface $-1 46.988164568737858 -3.8641941214640951 2.6718467270658817 -0.69465837861970381 0 -0.71933979245794832 0.53950484434346124 0 -0.5209937839647778 1 I I -0.70710678118654757 0.70710678118654757 0.75 forward I I I I #
loop $-1 $-1 $117 $29 #
coedge $-1 $73 $73 $118 $119 reversed $46 $-1 #
face $-1 $120 $121 $18 $-1 $122 reversed single #
loop $-1 $-1 $123 $48 #
plane-surface $-1 0 -35.645464026820839 0 0 1 0 0 0 1 forward_v I I I I #
coedge $-1 $124 $125 $126 $127 forward $49 $-1 #
coedge $-1 $128 $51 $129 $130 forward $31 $-1 #
coedge $-1 $51 $128 $131 $132 forward $31 $-1 #
coedge $-1 $133 $134 $51 $81 reversed $135 $-1 #
edge $-1 $136 -35.645464026820839 $137 35.645464026820839 $80 $138 forward 7 unknown #
face $-1 $139 $140 $19 $-1 $141 reversed single #
loop $-1 $-1 $142 $52 #
plane-surface $-1 -52.594378490554519 0 0 1 0 0 0 0 -1 forward_v I I I I #
coedge $-1 $143 $144 $87 $145 forward $53 $-1 #
coedge $-1 $146 $55 $147 $148 reversed $34 $-1 #
coedge $-1 $55 $146 $85 $145 reversed $34 $-1 #
coedge $-1 $149 $150 $55 $89 reversed $151 $-1 #
edge $-1 $152 -8.209977019880272 $153 8.209977019880272 $88 $154 forward 7 unknown #
face $-1 $155 $156 $20 $-1 $157 reversed single #
loop $-1 $-1 $158 $56 #
plane-surface $-1 -50.46943589257782 44.168816774058058 0 0 -1 0 0 0 -1 forward_v I I I I #
coedge $-1 $159 $160 $94 $161 forward $57 $-1 #
coedge $-1 $162 $59 $93 $161 reversed $37 $-1 #
coedge $-1 $59 $162 $163 $164 reversed $37 $-1 #
coedge $-1 $165 $166 $59 $97 reversed $156 $-1 #
edge $-1 $167 -8.209977019880272 $168 8.209977019880272 $96 $169 forward 7 unknown #
face $-1 $170 $171 $21 $-1 $172 forward single #
loop $-1 $-1 $173 $60 #
plane-surface $-1 49.998171248373239 -12.772607477669579 149.55556376443215 0 1 0 0.69465837861970381 0 0.71933979245794832 forward_v I I I I #
coedge $-1 $174 $175 $176 $177 reversed $61 $-1 #
coedge $-1 $103 $63 $178 $179 reversed $40 $-1 #
coedge $-1 $63 $102 $174 $180 reversed $40 $-1 #
coedge $-1 $176 $181 $63 $105 forward $171 $-1 #
edge $-1 $182 -27.595292866367899 $183 -19.94156086731688 $104 $184 forward 7 unknown #
loop $-1 $-1 $111 $64 #
plane-surface $-1 -23.072080125146016 -6.5367181283257381 73.889105148731616 0.69465837861970381 0 0.71933979245794832 0.71933979245794832 0 -0.69465837861970381 forward_v I I I I #
loop $-1 $-1 $185 $42 #
coedge $-1 $109 $109 $110 $186 reversed $65 $-1 #
coedge $-1 $110 $110 $109 $186 forward $67 $-1 #
coedge $-1 $111 $111 $68 $112 forward $106 $-1 #
edge $-1 $187 0 $187 6.2831853071796004 $111 $188 forward 7 unknown #
loop $-1 $-1 $118 $69 #
plane-surface $-1 -23.072080125146016 -6.5367181283257381 73.889105148731616 0.69465837861970381 0 0.71933979245794832 0.71933979245794832 0 -0.69465837861970381 forward_v I I I I #
loop $-1 $-1 $189 $45 #
coedge $-1 $116 $116 $117 $190 reversed $70 $-1 #
coedge $-1 $117 $117 $116 $190 forward $72 $-1 #
coedge $-1 $118 $118 $73 $119 forward $113 $-1 #
edge $-1 $191 0 $191 6.2831853071796004 $118 $192 forward 7 unknown #
face $-1 $193 $194 $18 $-1 $195 reversed single #
loop $-1 $-1 $196 $74 #
plane-surface $-1 -52.594378490554519 0 0 1 0 0 0 0 -1 forward_v I I I I #
coedge $-1 $197 $131 $198 $199 forward $75 $-1 #
coedge $-1 $200 $77 $197 $201 forward $49 $-1 #
coedge $-1 $77 $200 $202 $203 forward $49 $-1 #
coedge $-1 $134 $133 $77 $127 reversed $135 $-1 #
edge $-1 $204 -35.645464026820839 $205 35.645464026820839 $126 $206 forward 7 unknown #
coedge $-1 $79 $78 $207 $208 forward $31 $-1 #
coedge $-1 $209 $210 $78 $130 reversed $194 $-1 #
edge $-1 $137 -52.594378490554519 $211 52.594378490554519 $129 $212 forward 7 unknown #
coedge $-1 $123 $213 $79 $132 reversed $75 $-1 #
edge $-1 $214 -52.594378490554519 $136 52.594378490554519 $131 $215 forward 7 unknown #
coedge $-1 $126 $80 $213 $216 forward $135 $-1 #
coedge $-1 $80 $126 $209 $217 reversed $135 $-1 #
loop $-1 $-1 $133 $193 #
vertex $-1 $81 $218 #
vertex $-1 $81 $219 #
straight-curve $-1 52.594378490554519 0 8.209977019880272 0 1 0 I I #
face $-1 $220 $151 $19 $-1 $221 reversed single #
loop $-1 $-1 $222 $82 #
plane-surface $-1 -50.46943589257782 -44.168816774058051 0 0 1 0 0 0 1 forward_v I I I I #
coedge $-1 $223 $224 $146 $225 forward $83 $-1 #
coedge $-1 $226 $85 $224 $227 forward $53 $-1 #
coedge $-1 $85 $226 $149 $228 forward $53 $-1 #
edge $-1 $152 48.344493294601122 $229 52.594378490554519 $85 $230 forward 7 unknown #
coedge $-1 $87 $86 $142 $225 reversed $34 $-1 #
coedge $-1 $231 $232 $86 $148 forward $233 $-1 #
edge $-1 $234 -52.594378490554519 $153 -48.344493294601122 $147 $235 forward 7 unknown #
coedge $-1 $236 $88 $144 $228 reversed $151 $-1 #
coedge $-1 $88 $236 $231 $237 reversed $151 $-1 #
loop $-1 $-1 $236 $139 #
vertex $-1 $145 $238 #
vertex $-1 $237 $239 #
straight-curve $-1 -48.344493294601122 -35.645464026820839 0 0 0 -1 I I #
face $-1 $240 $241 $20 $-1 $242 reversed single #
loop $-1 $-1 $96 $90 #
plane-surface $-1 -48.344493294601122 39.907140400439452 0 -1 0 0 0 0 1 forward_v I I I I #
coedge $-1 $243 $244 $245 $246 forward $91 $-1 #
coedge $-1 $247 $93 $166 $248 forward $57 $-1 #
coedge $-1 $93 $247 $249 $250 forward $57 $-1 #
edge $-1 $251 -52.594378490554519 $168 -48.344493294601122 $93 $252 forward 7 unknown #
coedge $-1 $95 $94 $253 $254 reversed $37 $-1 #
coedge $-1 $255 $256 $95 $164 forward $241 $-1 #
edge $-1 $167 48.344493294601122 $257 52.594378490554519 $163 $258 forward 7 unknown #
coedge $-1 $245 $96 $256 $259 reversed $156 $-1 #
coedge $-1 $96 $245 $159 $248 reversed $156 $-1 #
vertex $-1 $164 $260 #
vertex $-1 $248 $261 #
straight-curve $-1 -48.344493294601122 35.645464026820839 0 0 0 1 I I #
face $-1 $-1 $262 $21 $-1 $263 reversed single #
loop $-1 $-1 $104 $98 #
plane-surface $-1 0 0 8.209977019880272 0 0 1 1 0 0 forward_v I I I I #
coedge $-1 $264 $265 $266 $267 reversed $99 $-1 #
coedge $-1 $268 $101 $103 $180 forward $61 $-1 #
coedge $-1 $101 $268 $264 $269 forward $61 $-1 #
coedge $-1 $266 $104 $101 $177 forward $171 $-1 #
edge $-1 $183 -2.9675302851809722 $270 9.5042484135067102 $176 $271 forward 7 unknown #
coedge $-1 $272 $273 $102 $179 forward $262 $-1 #
edge $-1 $274 -73.958928107003715 $182 -66.567804862335805 $178 $275 forward 7 unknown #
edge $-1 $183 94.548817304063505 $274 105.18875698110904 $103 $276 forward 7 unknown #
coedge $-1 $104 $266 $272 $277 forward $171 $-1 #
vertex $-1 $105 $278 #
vertex $-1 $105 $279 #
straight-curve $-1 24.99908562418662 -0.30082877898189686 8.2099770198802702 -1 0 0 I I #
coedge $-1 $185 $185 $-1 $280 reversed $108 $-1 #
edge $-1 $281 0 $281 6.2831853071796004 $109 $282 forward 7 unknown #
vertex $-1 $112 $283 #
ellipse-curve $-1 48.767512491029009 -9.2092421351873845 4.5144153975463084 0.69465837861970381 0 0.71933979245794832 1.0790096886869225 0 -1.0419875679295556 1 I I #
coedge $-1 $189 $189 $-1 $284 reversed $115 $-1 #
edge $-1 $285 0 $285 6.2831853071796004 $116 $286 forward 7 unknown #
vertex $-1 $119 $287 #
ellipse-curve $-1 48.767512491029009 -3.8641941214640951 4.5144153975463084 0.69465837861970381 0 0.71933979245794832 1.0790096886869225 0 -1.0419875679295556 1 I I #
face $-1 $-1 $135 $18 $-1 $288 reversed single #
loop $-1 $-1 $209 $120 #
plane-surface $-1 0 35.645464026820839 0 0 -1 0 0 0 -1 forward_v I I I I #
coedge $-1 $289 $207 $210 $290 forward $121 $-1 #
coedge $-1 $213 $123 $124 $201 reversed $75 $-1 #
coedge $-1 $207 $289 $123 $199 reversed $121 $-1 #
edge $-1 $214 -8.209977019880272 $291 8.209977019880272 $198 $292 forward 7 unknown #
coedge $-1 $125 $124 $289 $293 forward $49 $-1 #
edge $-1 $205 -52.594378490554519 $291 52.594378490554519 $197 $294 forward 7 unknown #
coedge $-1 $210 $209 $125 $203 reversed $194 $-1 #
edge $-1 $295 -52.594378490554519 $204 52.594378490554519 $202 $296 forward 7 unknown #
vertex $-1 $127 $297 #
vertex $-1 $216 $298 #
straight-curve $-1 52.594378490554519 0 -8.209977019880272 0 -1 0 I I #
coedge $-1 $196 $198 $128 $208 reversed $121 $-1 #
edge $-1 $211 -35.645464026820839 $214 35.645464026820839 $207 $299 forward 7 unknown #
coedge $-1 $202 $129 $134 $217 forward $194 $-1 #
coedge $-1 $129 $202 $196 $290 reversed $194 $-1 #
vertex $-1 $130 $300 #
straight-curve $-1 0 35.645464026820839 8.209977019880272 -1 0 0 I I #
coedge $-1 $131 $197 $133 $216 reversed $75 $-1 #
vertex $-1 $208 $301 #
straight-curve $-1 0 -35.645464026820839 8.209977019880272 1 0 0 I I #
edge $-1 $136 -8.209977019880272 $205 8.209977019880272 $133 $302 forward 7 unknown #
edge $-1 $137 -8.209977019880272 $204 8.209977019880272 $134 $303 forward 7 unknown #
point $-1 52.594378490554519 -35.645464026820839 8.209977019880272 #
point $-1 52.594378490554519 35.645464026820839 8.209977019880272 #
face $-1 $-1 $233 $19 $-1 $304 reversed single #
plane-surface $-1 -48.344493294601122 -39.907140400439445 0 -1 0 0 0 0 1 forward_v I I I I #
coedge $-1 $305 $306 $307 $308 forward $140 $-1 #
coedge $-1 $307 $142 $232 $309 reversed $83 $-1 #
coedge $-1 $142 $307 $143 $227 reversed $83 $-1 #
edge $-1 $229 -8.209977019880272 $234 8.209977019880272 $142 $310 forward 7 unknown #
coedge $-1 $144 $143 $306 $311 forward $53 $-1 #
edge $-1 $229 35.645464026820839 $312 44.168816774058051 $224 $313 forward 7 unknown #
edge $-1 $314 -4.2616763736186059 $152 4.2616763736186059 $149 $315 forward 7 unknown #
vertex $-1 $227 $316 #
straight-curve $-1 0 -35.645464026820839 8.209977019880272 -1 0 0 I I #
coedge $-1 $317 $147 $150 $237 forward $233 $-1 #
coedge $-1 $147 $317 $223 $309 forward $233 $-1 #
loop $-1 $-1 $147 $220 #
vertex $-1 $225 $318 #
straight-curve $-1 0 -35.645464026820839 -8.209977019880272 1 0 0 I I #
coedge $-1 $150 $149 $319 $320 forward $151 $-1 #
edge $-1 $153 -4.2616763736186059 $321 4.2616763736186059 $150 $322 forward 7 unknown #
point $-1 -48.344493294601122 -35.645464026820839 8.209977019880272 #
point $-1 -48.344493294601122 -35.645464026820839 -8.209977019880272 #
face $-1 $-1 $323 $20 $-1 $324 reversed single #
loop $-1 $-1 $163 $155 #
plane-surface $-1 0 0 -8.209977019880272 0 0 1 1 0 0 forward_v I I I I #
coedge $-1 $325 $158 $326 $327 reversed $91 $-1 #
coedge $-1 $158 $325 $247 $328 reversed $91 $-1 #
coedge $-1 $166 $165 $158 $246 reversed $156 $-1 #
edge $-1 $329 -8.209977019880272 $330 8.209977019880272 $245 $331 forward 7 unknown #
coedge $-1 $160 $159 $244 $328 forward $57 $-1 #
edge $-1 $168 -4.2616763736186059 $329 4.2616763736186059 $166 $332 forward 7 unknown #
coedge $-1 $333 $253 $160 $250 reversed $323 $-1 #
edge $-1 $334 -44.168816774058058 $251 -35.645464026820839 $249 $335 forward 7 unknown #
vertex $-1 $254 $336 #
straight-curve $-1 0 35.645464026820839 8.209977019880272 1 0 0 I I #
coedge $-1 $249 $337 $162 $254 forward $323 $-1 #
edge $-1 $257 -8.209977019880272 $251 8.209977019880272 $253 $338 forward 7 unknown #
coedge $-1 $326 $163 $337 $339 forward $241 $-1 #
coedge $-1 $163 $326 $165 $259 forward $241 $-1 #
vertex $-1 $339 $340 #
straight-curve $-1 0 35.645464026820839 -8.209977019880272 -1 0 0 I I #
edge $-1 $330 -4.2616763736186059 $167 4.2616763736186059 $165 $341 forward 7 unknown #
point $-1 -48.344493294601122 35.645464026820846 -8.209977019880272 #
point $-1 -48.344493294601122 35.645464026820846 8.209977019880272 #
loop $-1 $-1 $178 $170 #
plane-surface $-1 52.594378490554519 0 0 -1 0 0 0 0 1 forward_v I I I I #
coedge $-1 $265 $173 $175 $269 reversed $99 $-1 #
coedge $-1 $173 $264 $342 $343 reversed $99 $-1 #
coedge $-1 $181 $176 $173 $267 forward $171 $-1 #
edge $-1 $270 19.94156086731688 $344 27.595292866367899 $266 $345 forward 7 unknown #
coedge $-1 $175 $174 $273 $346 reversed $61 $-1 #
edge $-1 $347 -105.18875698110904 $270 -94.548817304063505 $264 $348 forward 7 unknown #
vertex $-1 $177 $349 #
straight-curve $-1 44.940646491503493 -3.268359064162869 8.2099770198802702 0 -1 0 I I #
coedge $-1 $342 $178 $181 $277 reversed $262 $-1 #
coedge $-1 $178 $342 $268 $346 forward $262 $-1 #
vertex $-1 $179 $350 #
straight-curve $-1 52.594378490554519 -0.30082877898189686 74.777781882216075 0 0 1 I I #
straight-curve $-1 -23.072080125146016 -0.30082877898189686 73.889105148731616 0.71933979245794832 0 -0.69465837861970381 I I #
edge $-1 $344 -12.772607477669579 $182 -0.30082877898189686 $272 $351 forward 7 unknown #
point $-1 52.594378490554519 -0.30082877898189686 8.209977019880272 #
point $-1 44.9406464915035 -0.30082877898189686 8.2099770198802702 #
edge $-1 $352 1 $352 0 $185 $-1 forward 7 unknown #
vertex $-1 $186 $353 #
ellipse-curve $-1 47.509158352702634 -9.2092421351873845 3.211351571409343 0.69465837861970381 0 0.71933979245794832 1.0790096886869225 0 -1.0419875679295556 1 I I #
point $-1 49.84652217971594 -9.2092421351873845 3.4724278296167617 #
edge $-1 $354 1 $354 0 $189 $-1 forward 7 unknown #
vertex $-1 $190 $355 #
ellipse-curve $-1 47.509158352702634 -3.8641941214640951 3.211351571409343 0.69465837861970381 0 0.71933979245794832 1.0790096886869225 0 -1.0419875679295556 1 I I #
point $-1 49.84652217971594 -3.8641941214640951 3.4724278296167617 #
plane-surface $-1 52.594378490554519 0 0 -1 0 0 0 0 1 forward_v I I I I #
coedge $-1 $198 $196 $200 $293 reversed $121 $-1 #
edge $-1 $211 -8.209977019880272 $295 8.209977019880272 $210 $356 forward 7 unknown #
vertex $-1 $293 $357 #
straight-curve $-1 -52.594378490554519 -35.645464026820839 0 0 0 -1 I I #
edge $-1 $291 -35.645464026820839 $295 35.645464026820839 $289 $358 forward 7 unknown #
straight-curve $-1 0 -35.645464026820839 -8.209977019880272 -1 0 0 I I #
vertex $-1 $203 $359 #
straight-curve $-1 0 35.645464026820839 -8.209977019880272 1 0 0 I I #
point $-1 52.594378490554519 35.645464026820839 -8.209977019880272 #
point $-1 52.594378490554519 -35.645464026820839 -8.209977019880272 #
straight-curve $-1 -52.594378490554519 0 8.209977019880272 0 -1 0 I I #
point $-1 -52.594378490554519 35.645464026820839 8.209977019880272 #
point $-1 -52.594378490554519 -35.645464026820839 8.209977019880272 #
straight-curve $-1 52.594378490554519 -35.645464026820839 0 0 0 -1 I I #
straight-curve $-1 52.594378490554519 35.645464026820839 0 0 0 -1 I I #
plane-surface $-1 0 0 -8.209977019880272 0 0 1 1 0 0 forward_v I I I I #
coedge $-1 $319 $222 $317 $360 reversed $140 $-1 #
coedge $-1 $222 $319 $226 $311 reversed $140 $-1 #
coedge $-1 $224 $223 $222 $308 reversed $83 $-1 #
edge $-1 $312 -8.209977019880272 $361 8.209977019880272 $307 $362 forward 7 unknown #
edge $-1 $361 -44.168816774058051 $234 -35.645464026820839 $223 $363 forward 7 unknown #
straight-curve $-1 -52.594378490554519 -35.645464026820839 0 0 0 -1 I I #
edge $-1 $312 -2.1249425979766983 $314 2.1249425979766983 $306 $364 forward 7 unknown #
vertex $-1 $227 $365 #
straight-curve $-1 -52.594378490554519 0 8.209977019880272 0 -1 0 I I #
vertex $-1 $228 $366 #
straight-curve $-1 -48.344493294601122 -39.907140400439445 8.209977019880272 0 1 0 I I #
point $-1 -52.594378490554519 -35.645464026820839 8.209977019880272 #
coedge $-1 $232 $231 $305 $360 forward $233 $-1 #
point $-1 -52.594378490554519 -35.645464026820839 -8.209977019880272 #
coedge $-1 $306 $305 $236 $320 reversed $140 $-1 #
edge $-1 $314 -8.209977019880272 $321 8.209977019880272 $236 $367 forward 7 unknown #
vertex $-1 $320 $368 #
straight-curve $-1 -48.344493294601122 -39.907140400439445 -8.209977019880272 0 -1 0 I I #
loop $-1 $-1 $253 $240 #
plane-surface $-1 -52.594378490554519 0 0 1 0 0 0 0 -1 forward_v I I I I #
coedge $-1 $244 $243 $333 $369 reversed $91 $-1 #
coedge $-1 $256 $255 $243 $327 forward $241 $-1 #
edge $-1 $370 -2.1249425979766983 $330 2.1249425979766983 $243 $371 forward 7 unknown #
edge $-1 $329 -2.1249425979766983 $334 2.1249425979766983 $244 $372 forward 7 unknown #
vertex $-1 $248 $373 #
vertex $-1 $259 $374 #
straight-curve $-1 -48.344493294601122 44.168816774058058 0 0 0 -1 I I #
straight-curve $-1 -48.344493294601122 39.907140400439452 8.209977019880272 0 1 0 I I #
coedge $-1 $337 $249 $325 $369 forward $323 $-1 #
vertex $-1 $328 $375 #
straight-curve $-1 -52.594378490554519 0 8.209977019880272 0 -1 0 I I #
point $-1 -52.594378490554519 35.645464026820839 8.209977019880272 #
coedge $-1 $253 $333 $255 $339 reversed $323 $-1 #
straight-curve $-1 -52.594378490554519 35.645464026820839 0 0 0 1 I I #
edge $-1 $257 -4.261676373618613 $370 4.2616763736186059 $337 $376 forward 7 unknown #
point $-1 -52.594378490554519 35.645464026820839 -8.209977019880272 #
straight-curve $-1 -48.344493294601122 39.907140400439452 -8.209977019880272 0 -1 0 I I #
coedge $-1 $273 $272 $265 $343 forward $262 $-1 #
edge $-1 $344 66.567804862335805 $347 73.958928107003715 $342 $377 forward 7 unknown #
vertex $-1 $277 $378 #
straight-curve $-1 24.99908562418662 -12.772607477669579 8.2099770198802702 1 0 0 I I #
edge $-1 $347 -9.5042484135067102 $274 2.9675302851809722 $273 $379 forward 7 unknown #
vertex $-1 $346 $380 #
straight-curve $-1 -23.072080125146016 -12.772607477669579 73.889105148731616 -0.71933979245794832 0 0.69465837861970381 I I #
point $-1 44.9406464915035 -12.772607477669579 8.2099770198802702 #
point $-1 52.594378490554519 -0.30082877898189686 0.8188537752123608 #
straight-curve $-1 52.594378490554519 0 8.209977019880272 0 1 0 I I #
vertex $-1 $280 $381 #
point $-1 48.588168041389558 -9.2092421351873845 2.1693640034797874 #
vertex $-1 $284 $382 #
point $-1 48.588168041389558 -3.8641941214640951 2.1693640034797874 #
straight-curve $-1 -52.594378490554519 35.645464026820839 0 0 0 -1 I I #
point $-1 -52.594378490554519 -35.645464026820839 -8.209977019880272 #
straight-curve $-1 -52.594378490554519 0 -8.209977019880272 0 1 0 I I #
point $-1 -52.594378490554519 35.645464026820839 -8.209977019880272 #
edge $-1 $321 -2.1249425979766983 $361 2.1249425979766983 $305 $383 forward 7 unknown #
vertex $-1 $309 $384 #
straight-curve $-1 -52.594378490554519 -44.168816774058051 0 0 0 -1 I I #
straight-curve $-1 -52.594378490554519 0 -8.209977019880272 0 1 0 I I #
straight-curve $-1 -50.46943589257782 -44.168816774058051 8.209977019880272 1 0 0 I I #
point $-1 -52.594378490554519 -44.168816774058051 8.209977019880272 #
point $-1 -48.344493294601122 -44.168816774058051 8.209977019880272 #
straight-curve $-1 -48.344493294601122 -44.168816774058051 0 0 0 -1 I I #
point $-1 -48.344493294601122 -44.168816774058051 -8.209977019880272 #
edge $-1 $334 -8.209977019880272 $370 8.209977019880272 $325 $385 forward 7 unknown #
vertex $-1 $327 $386 #
straight-curve $-1 -50.46943589257782 44.168816774058058 -8.209977019880272 1 0 0 I I #
straight-curve $-1 -50.46943589257782 44.168816774058058 8.209977019880272 -1 0 0 I I #
point $-1 -48.344493294601122 44.168816774058058 8.209977019880272 #
point $-1 -48.344493294601122 44.168816774058058 -8.209977019880272 #
point $-1 -52.594378490554519 44.168816774058058 8.209977019880272 #
straight-curve $-1 -52.594378490554519 39.907140400439452 -8.209977019880272 0 1 0 I I #
straight-curve $-1 52.594378490554519 -12.772607477669579 74.777781882216075 0 0 -1 I I #
point $-1 52.594378490554519 -12.772607477669579 8.209977019880272 #
straight-curve $-1 52.594378490554512 -3.268359064162869 0.8188537752123608 0 1 0 I I #
point $-1 52.594378490554519 -12.772607477669579 0.8188537752123608 #
point $-1 46.467170784773081 -9.2092421351873845 2.1323418827224203 #
point $-1 46.467170784773081 -3.8641941214640951 2.1323418827224203 #
straight-curve $-1 -50.46943589257782 -44.168816774058051 -8.209977019880272 -1 0 0 I I #
point $-1 -52.594378490554519 -44.168816774058051 -8.209977019880272 #
straight-curve $-1 -52.594378490554519 44.168816774058058 0 0 0 -1 I I #
point $-1 -52.594378490554519 44.168816774058058 -8.209977019880272 #
End-of-ACIS-data 