500 0 5 0           
7 Unknown 11 ACIS 5.0 NT 24 Fri Mar 26 18:12:52 1999 
-1 9.9999999999999995e-007 1e-010 
body $-1 $5 $-1 $6 #
body $-1 $7 $-1 $8 #
body $-1 $9 $-1 $10 #
body $-1 $11 $-1 $12 #
body $-1 $13 $-1 $14 #
lump $-1 $-1 $15 $0 #
transform $-1 1 0 0 0 1 0 0 0 1 45.052644428846094 22.200324045714304 9.9869275967725795 1 rotate no_reflect no_shear #
lump $-1 $-1 $16 $1 #
transform $-1 1 0 0 0 1 0 0 0 1 45.052644428846094 22.200324045714304 9.9869275967725795 1 rotate no_reflect no_shear #
lump $-1 $-1 $17 $2 #
transform $-1 1 0 0 0 1 0 0 0 1 45.052644428846094 22.200324045714304 9.9869275967725795 1 rotate no_reflect no_shear #
lump $-1 $-1 $18 $3 #
transform $-1 1 0 0 0 1 0 0 0 1 45.052644428846094 22.200324045714304 9.9869275967725795 1 rotate no_reflect no_shear #
lump $-1 $-1 $19 $4 #
transform $-1 1 0 0 0 1 0 0 0 1 45.052644428846094 22.200324045714304 9.9869275967725795 1 rotate no_reflect no_shear #
shell $-1 $-1 $-1 $20 $-1 $5 #
shell $-1 $-1 $-1 $21 $-1 $7 #
shell $-1 $-1 $-1 $22 $-1 $9 #
shell $-1 $-1 $-1 $23 $-1 $11 #
shell $-1 $-1 $-1 $24 $-1 $13 #
face $-1 $25 $26 $15 $-1 $27 forward single #
face $-1 $28 $29 $16 $-1 $30 reversed single #
face $-1 $31 $32 $17 $-1 $33 reversed single #
face $-1 $34 $35 $18 $-1 $36 reversed single #
face $-1 $37 $38 $19 $-1 $39 forward single #
face $-1 $40 $41 $15 $-1 $42 reversed single #
loop $-1 $-1 $43 $20 #
plane-surface $-1 0 0 9.9869275967725795 0 0 1 1 0 0 forward_v I I I I #
face $-1 $44 $45 $16 $-1 $46 reversed single #
loop $-1 $-1 $47 $21 #
plane-surface $-1 0 -15.968523285816154 5.6395189888791286 0 0 1 1 0 0 forward_v I I I I #
face $-1 $48 $49 $17 $-1 $50 reversed single #
loop $-1 $-1 $51 $22 #
plane-surface $-1 0 15.968523285816154 5.6395189888791286 0 0 1 1 0 0 forward_v I I I I #
face $-1 $52 $53 $18 $-1 $54 reversed single #
loop $-1 $-1 $55 $23 #
plane-surface $-1 71.546442468641047 5.247675937592609 130.71354691267379 0 -1 0 -0.83867057594974714 0 -0.54463902268945019 forward_v I I I I #
face $-1 $56 $57 $19 $-1 $58 forward single #
loop $-1 $59 $60 $24 #
cone-surface $-1 43.083620533882112 2.2565946056498305 7.5757184842016763 -0.83867057594974714 0 -0.54463902268945019 0.2723195113447251 0 -0.41933528797487357 1 I I 0 1 0.5 forward I I I I #
face $-1 $61 $62 $15 $-1 $63 reversed single #
loop $-1 $-1 $64 $25 #
plane-surface $-1 0 0 -9.9869275967725795 0 0 1 1 0 0 forward_v I I I I #
coedge $-1 $65 $66 $67 $68 forward $26 $-1 #
face $-1 $69 $70 $16 $-1 $71 reversed single #
loop $-1 $-1 $72 $28 #
plane-surface $-1 0 -9.7367225259180046 7.8132232928258549 0 -1 0 0 0 -1 forward_v I I I I #
coedge $-1 $73 $74 $75 $76 reversed $29 $-1 #
face $-1 $77 $78 $17 $-1 $79 forward single #
loop $-1 $-1 $80 $31 #
plane-surface $-1 0 9.7367225259180046 7.8132232928258549 0 1 0 0 0 1 forward_v I I I I #
coedge $-1 $81 $82 $83 $84 reversed $32 $-1 #
face $-1 $85 $86 $18 $-1 $87 reversed single #
loop $-1 $-1 $88 $34 #
plane-surface $-1 -4.0222120337579952 2.2565946056498305 81.638690450069703 0.83867057594974714 0 0.54463902268945019 0.54463902268945019 0 -0.83867057594974714 forward_v I I I I #
coedge $-1 $89 $90 $91 $92 reversed $35 $-1 #
face $-1 $-1 $93 $19 $-1 $94 forward single #
loop $-1 $95 $96 $37 #
cone-surface $-1 42.176758543339204 2.2565946056498305 6.9867954405093773 -0.83867057594974714 0 -0.54463902268945019 0.13615975567236255 0 -0.20966764398743679 1 I I -0.70710678118654746 0.70710678118654746 0.25 forward I I I I #
loop $-1 $-1 $97 $24 #
coedge $-1 $60 $60 $98 $99 reversed $38 $-1 #
face $-1 $100 $101 $15 $-1 $102 reversed single #
loop $-1 $-1 $103 $40 #
plane-surface $-1 0 -22.200324045714304 0 0 1 0 0 0 1 forward_v I I I I #
coedge $-1 $104 $105 $106 $107 forward $41 $-1 #
coedge $-1 $108 $43 $109 $110 forward $26 $-1 #
coedge $-1 $43 $108 $111 $112 forward $26 $-1 #
coedge $-1 $113 $114 $43 $68 reversed $115 $-1 #
edge $-1 $116 -22.200324045714304 $117 22.200324045714304 $67 $118 forward 7 unknown #
face $-1 $119 $120 $16 $-1 $121 reversed single #
loop $-1 $-1 $122 $44 #
plane-surface $-1 -45.052644428846094 0 0 1 0 0 0 0 -1 forward_v I I I I #
coedge $-1 $123 $124 $125 $126 reversed $45 $-1 #
coedge $-1 $127 $47 $128 $129 reversed $29 $-1 #
coedge $-1 $47 $127 $123 $130 forward $29 $-1 #
coedge $-1 $125 $131 $47 $76 forward $132 $-1 #
edge $-1 $133 -14.216062402806227 $134 -1.7524608830099275 $75 $135 forward 7 unknown #
face $-1 $136 $137 $17 $-1 $138 reversed single #
loop $-1 $-1 $139 $48 #
plane-surface $-1 0 0 9.9869275967725795 0 0 1 1 0 0 forward_v I I I I #
coedge $-1 $140 $141 $142 $143 reversed $49 $-1 #
coedge $-1 $144 $51 $140 $145 forward $32 $-1 #
coedge $-1 $51 $144 $146 $147 reversed $32 $-1 #
coedge $-1 $148 $149 $51 $84 forward $137 $-1 #
edge $-1 $150 1.7524608830099275 $151 14.216062402806227 $83 $152 forward 7 unknown #
face $-1 $153 $154 $18 $-1 $155 forward single #
loop $-1 $-1 $156 $52 #
plane-surface $-1 71.546442468641047 -0.73448672629294798 130.71354691267379 0 1 0 0.83867057594974714 0 0.54463902268945019 forward_v I I I I #
coedge $-1 $157 $158 $159 $160 reversed $53 $-1 #
coedge $-1 $90 $55 $161 $162 reversed $35 $-1 #
coedge $-1 $55 $89 $157 $163 reversed $35 $-1 #
coedge $-1 $159 $164 $55 $92 forward $154 $-1 #
edge $-1 $165 -9.2794231945255703 $166 -6.7357640977085538 $91 $167 forward 7 unknown #
loop $-1 $-1 $98 $56 #
plane-surface $-1 -4.0222120337579952 2.2565946056498305 81.638690450069703 0.83867057594974714 0 0.54463902268945019 0.54463902268945019 0 -0.83867057594974714 forward_v I I I I #
loop $-1 $-1 $168 $37 #
coedge $-1 $96 $96 $97 $169 reversed $57 $-1 #
coedge $-1 $97 $97 $96 $169 forward $59 $-1 #
coedge $-1 $98 $98 $60 $99 forward $93 $-1 #
edge $-1 $170 0 $170 6.2831853071796004 $98 $171 forward 7 unknown #
face $-1 $172 $173 $15 $-1 $174 reversed single #
loop $-1 $-1 $175 $61 #
plane-surface $-1 -45.052644428846094 0 0 1 0 0 0 0 -1 forward_v I I I I #
coedge $-1 $176 $111 $177 $178 forward $62 $-1 #
coedge $-1 $179 $64 $176 $180 forward $41 $-1 #
coedge $-1 $64 $179 $181 $182 forward $41 $-1 #
coedge $-1 $114 $113 $64 $107 reversed $115 $-1 #
edge $-1 $183 -22.200324045714304 $184 22.200324045714304 $106 $185 forward 7 unknown #
coedge $-1 $66 $65 $186 $187 forward $26 $-1 #
coedge $-1 $188 $189 $65 $110 reversed $173 $-1 #
edge $-1 $117 -45.052644428846094 $190 45.052644428846094 $109 $191 forward 7 unknown #
coedge $-1 $103 $192 $66 $112 reversed $62 $-1 #
edge $-1 $193 -45.052644428846094 $116 45.052644428846094 $111 $194 forward 7 unknown #
coedge $-1 $106 $67 $192 $195 forward $115 $-1 #
coedge $-1 $67 $106 $188 $196 reversed $115 $-1 #
loop $-1 $-1 $113 $172 #
vertex $-1 $68 $197 #
vertex $-1 $68 $198 #
straight-curve $-1 45.052644428846094 0 9.9869275967725795 0 1 0 I I #
face $-1 $199 $200 $16 $-1 $201 forward single #
loop $-1 $-1 $128 $69 #
plane-surface $-1 0 -22.200324045714304 0 0 1 0 0 0 1 forward_v I I I I #
coedge $-1 $202 $203 $204 $205 forward $70 $-1 #
coedge $-1 $204 $72 $74 $130 reversed $45 $-1 #
coedge $-1 $72 $204 $206 $207 reversed $45 $-1 #
coedge $-1 $208 $75 $72 $126 forward $132 $-1 #
edge $-1 $134 1.7329073424662012 $209 6.0803159503596538 $125 $210 forward 7 unknown #
coedge $-1 $74 $73 $202 $211 reversed $29 $-1 #
coedge $-1 $212 $213 $73 $129 forward $120 $-1 #
edge $-1 $214 -45.052644428846094 $133 45.052644428846094 $128 $215 forward 7 unknown #
edge $-1 $216 -45.052644428846094 $134 45.052644428846094 $123 $217 forward 7 unknown #
coedge $-1 $75 $208 $212 $218 forward $132 $-1 #
loop $-1 $-1 $125 $199 #
vertex $-1 $129 $219 #
vertex $-1 $76 $220 #
straight-curve $-1 45.052644428846094 -7.9842616429080771 5.6395189888791286 0 1 0 I I #
face $-1 $221 $222 $17 $-1 $223 reversed single #
loop $-1 $-1 $149 $77 #
plane-surface $-1 45.052644428846094 0 0 -1 0 0 0 0 1 forward_v I I I I #
coedge $-1 $224 $225 $141 $226 forward $78 $-1 #
coedge $-1 $227 $80 $81 $145 reversed $49 $-1 #
coedge $-1 $80 $227 $139 $226 reversed $49 $-1 #
coedge $-1 $228 $229 $80 $143 forward $222 $-1 #
edge $-1 $230 1.7329073424662012 $231 6.0803159503596538 $142 $232 forward 7 unknown #
coedge $-1 $82 $81 $229 $233 reversed $32 $-1 #
edge $-1 $150 -45.052644428846094 $230 45.052644428846094 $140 $234 forward 7 unknown #
coedge $-1 $235 $236 $82 $147 forward $237 $-1 #
edge $-1 $151 -45.052644428846094 $238 45.052644428846094 $146 $239 forward 7 unknown #
coedge $-1 $240 $83 $236 $241 reversed $137 $-1 #
coedge $-1 $83 $240 $227 $242 forward $137 $-1 #
vertex $-1 $84 $243 #
vertex $-1 $147 $244 #
straight-curve $-1 45.052644428846094 7.9842616429080771 5.6395189888791286 0 1 0 I I #
face $-1 $-1 $245 $18 $-1 $246 reversed single #
loop $-1 $-1 $91 $85 #
plane-surface $-1 0 0 9.9869275967725795 0 0 1 1 0 0 forward_v I I I I #
coedge $-1 $247 $248 $249 $250 reversed $86 $-1 #
coedge $-1 $251 $88 $90 $163 forward $53 $-1 #
coedge $-1 $88 $251 $247 $252 forward $53 $-1 #
coedge $-1 $249 $91 $88 $160 forward $154 $-1 #
edge $-1 $166 -4.1193786347676937 $253 1.8627840291178632 $159 $254 forward 7 unknown #
coedge $-1 $255 $256 $89 $162 forward $245 $-1 #
edge $-1 $257 -59.286737508666249 $165 -55.369845859564315 $161 $258 forward 7 unknown #
edge $-1 $166 85.434931077861592 $257 90.105288857692216 $90 $259 forward 7 unknown #
coedge $-1 $91 $249 $255 $260 forward $154 $-1 #
vertex $-1 $162 $261 #
vertex $-1 $92 $262 #
straight-curve $-1 35.773221234320523 5.247675937592609 9.9869275967725812 -1 0 0 I I #
coedge $-1 $168 $168 $-1 $263 reversed $95 $-1 #
edge $-1 $264 0 $264 6.2831853071796004 $96 $265 forward 7 unknown #
vertex $-1 $99 $266 #
ellipse-curve $-1 43.780814880437589 2.2565946056498305 8.0284817722216157 0.83867057594974714 0 0.54463902268945019 0.2723195113447251 0 -0.41933528797487357 1 I I #
face $-1 $-1 $115 $15 $-1 $267 reversed single #
loop $-1 $-1 $188 $100 #
plane-surface $-1 0 22.200324045714304 0 0 -1 0 0 0 -1 forward_v I I I I #
coedge $-1 $268 $186 $189 $269 forward $101 $-1 #
coedge $-1 $192 $103 $104 $180 reversed $62 $-1 #
coedge $-1 $186 $268 $103 $178 reversed $101 $-1 #
edge $-1 $193 -9.9869275967725795 $270 9.9869275967725795 $177 $271 forward 7 unknown #
coedge $-1 $105 $104 $268 $272 forward $41 $-1 #
edge $-1 $184 -45.052644428846094 $270 45.052644428846094 $176 $273 forward 7 unknown #
coedge $-1 $189 $188 $105 $182 reversed $173 $-1 #
edge $-1 $274 -45.052644428846094 $183 45.052644428846094 $181 $275 forward 7 unknown #
vertex $-1 $107 $276 #
vertex $-1 $195 $277 #
straight-curve $-1 45.052644428846094 0 -9.9869275967725795 0 -1 0 I I #
coedge $-1 $175 $177 $108 $187 reversed $101 $-1 #
edge $-1 $190 -22.200324045714304 $193 22.200324045714304 $186 $278 forward 7 unknown #
coedge $-1 $181 $109 $114 $196 forward $173 $-1 #
coedge $-1 $109 $181 $175 $269 reversed $173 $-1 #
vertex $-1 $110 $279 #
straight-curve $-1 0 22.200324045714304 9.9869275967725795 -1 0 0 I I #
coedge $-1 $111 $176 $113 $195 reversed $62 $-1 #
vertex $-1 $187 $280 #
straight-curve $-1 0 -22.200324045714304 9.9869275967725795 1 0 0 I I #
edge $-1 $116 -9.9869275967725795 $184 9.9869275967725795 $113 $281 forward 7 unknown #
edge $-1 $117 -9.9869275967725795 $183 9.9869275967725795 $114 $282 forward 7 unknown #
point $-1 45.052644428846094 -22.200324045714304 9.9869275967725795 #
point $-1 45.052644428846094 22.200324045714304 9.9869275967725795 #
face $-1 $-1 $132 $16 $-1 $283 reversed single #
loop $-1 $-1 $206 $119 #
plane-surface $-1 0 0 9.9869275967725795 0 0 1 1 0 0 forward_v I I I I #
coedge $-1 $284 $122 $127 $211 forward $70 $-1 #
coedge $-1 $122 $284 $285 $286 reversed $70 $-1 #
coedge $-1 $124 $123 $122 $205 reversed $45 $-1 #
edge $-1 $287 -6.0803159503596538 $216 -1.7329073424662012 $122 $288 forward 7 unknown #
coedge $-1 $285 $289 $124 $207 forward $200 $-1 #
edge $-1 $209 -45.052644428846094 $287 45.052644428846094 $206 $290 forward 7 unknown #
coedge $-1 $131 $125 $289 $291 reversed $132 $-1 #
vertex $-1 $126 $292 #
straight-curve $-1 45.052644428846094 -9.7367225259180046 3.9066116464129275 0 0 1 I I #
edge $-1 $216 1.7524608830099275 $214 14.216062402806227 $202 $293 forward 7 unknown #
coedge $-1 $294 $128 $131 $218 reversed $120 $-1 #
coedge $-1 $128 $294 $284 $295 forward $120 $-1 #
vertex $-1 $129 $296 #
straight-curve $-1 0 -22.200324045714304 5.6395189888791286 1 0 0 I I #
vertex $-1 $211 $297 #
straight-curve $-1 0 -9.7367225259180046 5.6395189888791286 1 0 0 I I #
edge $-1 $298 -9.9869275967725795 $133 -5.6395189888791286 $131 $299 forward 7 unknown #
point $-1 45.052644428846094 -22.200324045714304 5.6395189888791286 #
point $-1 45.052644428846094 -9.7367225259180046 5.6395189888791286 #
face $-1 $-1 $237 $17 $-1 $300 reversed single #
loop $-1 $-1 $142 $136 #
plane-surface $-1 -45.052644428846094 0 0 1 0 0 0 0 -1 forward_v I I I I #
coedge $-1 $301 $139 $240 $302 forward $78 $-1 #
coedge $-1 $139 $301 $228 $303 forward $78 $-1 #
edge $-1 $231 -45.052644428846094 $304 45.052644428846094 $139 $305 forward 7 unknown #
coedge $-1 $141 $140 $149 $242 reversed $49 $-1 #
coedge $-1 $306 $142 $225 $303 reversed $222 $-1 #
coedge $-1 $142 $306 $144 $233 forward $222 $-1 #
vertex $-1 $233 $307 #
vertex $-1 $143 $308 #
straight-curve $-1 -45.052644428846094 9.7367225259180046 3.9066116464129275 0 0 1 I I #
edge $-1 $238 -14.216062402806227 $230 -1.7524608830099275 $229 $309 forward 7 unknown #
straight-curve $-1 0 9.7367225259180046 5.6395189888791286 -1 0 0 I I #
coedge $-1 $310 $146 $306 $311 reversed $237 $-1 #
coedge $-1 $146 $310 $148 $241 forward $237 $-1 #
loop $-1 $-1 $146 $221 #
vertex $-1 $147 $312 #
straight-curve $-1 0 22.200324045714304 5.6395189888791286 -1 0 0 I I #
coedge $-1 $149 $148 $224 $302 reversed $137 $-1 #
edge $-1 $313 -9.9869275967725795 $151 -5.6395189888791286 $148 $314 forward 7 unknown #
edge $-1 $304 -6.0803159503596538 $150 -1.7329073424662012 $149 $315 forward 7 unknown #
point $-1 45.052644428846094 9.7367225259180046 5.6395189888791286 #
point $-1 45.052644428846094 22.200324045714304 5.6395189888791286 #
loop $-1 $-1 $161 $153 #
plane-surface $-1 45.052644428846094 0 0 -1 0 0 0 0 1 forward_v I I I I #
coedge $-1 $248 $156 $158 $252 reversed $86 $-1 #
coedge $-1 $156 $247 $316 $317 reversed $86 $-1 #
coedge $-1 $164 $159 $156 $250 forward $154 $-1 #
edge $-1 $253 6.7357640977085538 $318 9.2794231945255703 $249 $319 forward 7 unknown #
coedge $-1 $158 $157 $256 $320 reversed $53 $-1 #
edge $-1 $321 -90.105288857692216 $253 -85.434931077861592 $247 $322 forward 7 unknown #
vertex $-1 $160 $323 #
straight-curve $-1 42.508985332029084 1.1282973028249152 9.9869275967725741 0 -1 0 I I #
coedge $-1 $316 $161 $164 $260 reversed $245 $-1 #
coedge $-1 $161 $316 $251 $320 forward $245 $-1 #
vertex $-1 $162 $324 #
straight-curve $-1 45.052644428846094 5.247675937592609 65.356773456336896 0 0 1 I I #
straight-curve $-1 -4.0222120337579952 5.247675937592609 81.638690450069703 0.54463902268945019 0 -0.83867057594974714 I I #
edge $-1 $318 -0.73448672629294798 $165 5.247675937592609 $255 $325 forward 7 unknown #
point $-1 45.052644428846094 5.247675937592609 9.9869275967725795 #
point $-1 42.508985332029077 5.247675937592609 9.9869275967725741 #
edge $-1 $326 1 $326 0 $168 $-1 forward 7 unknown #
vertex $-1 $169 $327 #
ellipse-curve $-1 42.386426187326641 2.2565946056498305 7.1229551961817394 0.83867057594974714 0 0.54463902268945019 0.2723195113447251 0 -0.41933528797487357 1 I I #
point $-1 44.053134391782308 2.2565946056498305 7.6091464842467396 #
plane-surface $-1 45.052644428846094 0 0 -1 0 0 0 0 1 forward_v I I I I #
coedge $-1 $177 $175 $179 $272 reversed $101 $-1 #
edge $-1 $190 -9.9869275967725795 $274 9.9869275967725795 $189 $328 forward 7 unknown #
vertex $-1 $272 $329 #
straight-curve $-1 -45.052644428846094 -22.200324045714304 0 0 0 -1 I I #
edge $-1 $270 -22.200324045714304 $274 22.200324045714304 $268 $330 forward 7 unknown #
straight-curve $-1 0 -22.200324045714304 -9.9869275967725795 -1 0 0 I I #
vertex $-1 $182 $331 #
straight-curve $-1 0 22.200324045714304 -9.9869275967725795 1 0 0 I I #
point $-1 45.052644428846094 22.200324045714304 -9.9869275967725795 #
point $-1 45.052644428846094 -22.200324045714304 -9.9869275967725795 #
straight-curve $-1 -45.052644428846094 0 9.9869275967725795 0 -1 0 I I #
point $-1 -45.052644428846094 22.200324045714304 9.9869275967725795 #
point $-1 -45.052644428846094 -22.200324045714304 9.9869275967725795 #
straight-curve $-1 45.052644428846094 -22.200324045714304 0 0 0 -1 I I #
straight-curve $-1 45.052644428846094 22.200324045714304 0 0 0 -1 I I #
plane-surface $-1 45.052644428846094 0 0 -1 0 0 0 0 1 forward_v I I I I #
coedge $-1 $203 $202 $213 $295 reversed $70 $-1 #
coedge $-1 $332 $206 $203 $286 forward $200 $-1 #
edge $-1 $287 9.7367225259180046 $333 22.200324045714304 $203 $334 forward 7 unknown #
vertex $-1 $286 $335 #
straight-curve $-1 -45.052644428846094 -9.7367225259180046 3.9066116464129275 0 0 -1 I I #
coedge $-1 $206 $332 $208 $291 forward $200 $-1 #
straight-curve $-1 0 -9.7367225259180046 9.9869275967725795 -1 0 0 I I #
edge $-1 $298 -22.200324045714304 $209 -9.7367225259180046 $208 $336 forward 7 unknown #
point $-1 45.052644428846094 -9.7367225259180046 9.9869275967725812 #
straight-curve $-1 -45.052644428846094 -7.9842616429080771 5.6395189888791286 0 -1 0 I I #
coedge $-1 $213 $212 $332 $337 reversed $120 $-1 #
edge $-1 $333 -9.9869275967725795 $214 -5.6395189888791286 $284 $338 forward 7 unknown #
point $-1 -45.052644428846094 -22.200324045714304 5.6395189888791286 #
point $-1 -45.052644428846094 -9.7367225259180046 5.6395189888791286 #
vertex $-1 $291 $339 #
straight-curve $-1 45.052644428846094 -22.200324045714304 0 0 0 -1 I I #
plane-surface $-1 0 22.200324045714304 0 0 -1 0 0 0 -1 forward_v I I I I #
coedge $-1 $225 $224 $310 $340 forward $78 $-1 #
edge $-1 $304 9.7367225259180046 $313 22.200324045714304 $240 $341 forward 7 unknown #
edge $-1 $342 -22.200324045714304 $231 -9.7367225259180046 $228 $343 forward 7 unknown #
vertex $-1 $302 $344 #
straight-curve $-1 0 9.7367225259180046 9.9869275967725795 1 0 0 I I #
coedge $-1 $229 $228 $235 $311 forward $222 $-1 #
point $-1 -45.052644428846094 9.7367225259180046 5.6395189888791286 #
point $-1 -45.052644428846094 9.7367225259180046 9.9869275967725812 #
straight-curve $-1 -45.052644428846094 7.9842616429080771 5.6395189888791286 0 -1 0 I I #
coedge $-1 $236 $235 $301 $340 reversed $237 $-1 #
edge $-1 $342 -9.9869275967725795 $238 -5.6395189888791286 $235 $345 forward 7 unknown #
point $-1 -45.052644428846094 22.200324045714304 5.6395189888791286 #
vertex $-1 $302 $346 #
straight-curve $-1 45.052644428846094 22.200324045714304 0 0 0 -1 I I #
straight-curve $-1 45.052644428846094 9.7367225259180046 3.9066116464129275 0 0 -1 I I #
coedge $-1 $256 $255 $248 $317 forward $245 $-1 #
edge $-1 $318 55.369845859564315 $321 59.286737508666249 $316 $347 forward 7 unknown #
vertex $-1 $260 $348 #
straight-curve $-1 35.773221234320523 -0.73448672629294798 9.9869275967725812 1 0 0 I I #
edge $-1 $321 -1.8627840291178632 $257 4.1193786347676937 $256 $349 forward 7 unknown #
vertex $-1 $320 $350 #
straight-curve $-1 -4.0222120337579952 -0.73448672629294798 81.638690450069703 -0.54463902268945019 0 0.83867057594974714 I I #
point $-1 42.508985332029077 -0.73448672629294798 9.9869275967725741 #
point $-1 45.052644428846094 5.247675937592609 6.0700359476706467 #
straight-curve $-1 45.052644428846094 0 9.9869275967725795 0 1 0 I I #
vertex $-1 $263 $351 #
point $-1 42.658745698671368 2.2565946056498305 6.7036199082068659 #
straight-curve $-1 -45.052644428846094 22.200324045714304 0 0 0 -1 I I #
point $-1 -45.052644428846094 -22.200324045714304 -9.9869275967725795 #
straight-curve $-1 -45.052644428846094 0 -9.9869275967725795 0 1 0 I I #
point $-1 -45.052644428846094 22.200324045714304 -9.9869275967725795 #
coedge $-1 $289 $285 $294 $337 forward $200 $-1 #
vertex $-1 $286 $352 #
straight-curve $-1 -45.052644428846094 0 9.9869275967725795 0 -1 0 I I #
point $-1 -45.052644428846094 -9.7367225259180046 9.9869275967725812 #
straight-curve $-1 45.052644428846094 0 9.9869275967725795 0 1 0 I I #
edge $-1 $333 -45.052644428846094 $298 45.052644428846094 $294 $353 forward 7 unknown #
straight-curve $-1 -45.052644428846094 -22.200324045714304 0 0 0 -1 I I #
point $-1 45.052644428846094 -22.200324045714304 9.9869275967725795 #
edge $-1 $313 -45.052644428846094 $342 45.052644428846094 $310 $354 forward 7 unknown #
straight-curve $-1 45.052644428846094 0 9.9869275967725795 0 1 0 I I #
vertex $-1 $340 $355 #
straight-curve $-1 -45.052644428846094 0 9.9869275967725795 0 -1 0 I I #
point $-1 45.052644428846094 9.7367225259180046 9.9869275967725812 #
straight-curve $-1 -45.052644428846094 22.200324045714304 0 0 0 -1 I I #
point $-1 45.052644428846094 22.200324045714304 9.9869275967725795 #
straight-curve $-1 45.052644428846094 -0.73448672629294798 65.356773456336896 0 0 -1 I I #
point $-1 45.052644428846094 -0.73448672629294798 9.9869275967725795 #
straight-curve $-1 45.052644428846094 1.1282973028249152 6.0700359476706538 0 1 0 I I #
point $-1 45.052644428846094 -0.73448672629294798 6.0700359476706467 #
point $-1 41.967090899351767 2.2565946056498305 6.8506356848370151 #
point $-1 -45.052644428846094 -22.200324045714304 9.9869275967725795 #
straight-curve $-1 0 -22.200324045714304 9.9869275967725795 1 0 0 I I #
straight-curve $-1 0 22.200324045714304 9.9869275967725795 -1 0 0 I I #
point $-1 -45.052644428846094 22.200324045714304 9.9869275967725795 #
End-of-ACIS-data 