500 0 18 0           
7 Unknown 11 ACIS 5.0 NT 24 Thu Mar 25 19:24:41 1999 
-1 9.9999999999999995e-007 1e-010 
body $-1 $18 $-1 $19 #
body $-1 $20 $-1 $21 #
body $-1 $22 $-1 $23 #
body $-1 $24 $-1 $25 #
body $-1 $26 $-1 $27 #
body $-1 $28 $-1 $29 #
body $-1 $30 $-1 $31 #
body $-1 $32 $-1 $33 #
body $-1 $34 $-1 $35 #
body $-1 $36 $-1 $37 #
body $-1 $38 $-1 $39 #
body $-1 $40 $-1 $41 #
body $-1 $42 $-1 $43 #
body $-1 $44 $-1 $45 #
body $-1 $46 $-1 $47 #
body $-1 $48 $-1 $49 #
body $-1 $50 $-1 $51 #
body $-1 $52 $-1 $53 #
lump $-1 $-1 $54 $0 #
transform $-1 1 0 0 0 1 0 0 0 1 61.309244056520278 33.923001419657872 9.344432227968138 1 rotate no_reflect no_shear #
lump $-1 $-1 $55 $1 #
transform $-1 1 0 0 0 1 0 0 0 1 61.309244056520278 33.923001419657872 9.344432227968138 1 rotate no_reflect no_shear #
lump $-1 $-1 $56 $2 #
transform $-1 1 0 0 0 1 0 0 0 1 61.309244056520278 33.923001419657872 9.344432227968138 1 rotate no_reflect no_shear #
lump $-1 $-1 $57 $3 #
transform $-1 1 0 0 0 1 0 0 0 1 61.309244056520278 33.923001419657872 9.344432227968138 1 rotate no_reflect no_shear #
lump $-1 $-1 $58 $4 #
transform $-1 1 0 0 0 1 0 0 0 1 61.309244056520278 33.923001419657872 9.344432227968138 1 rotate no_reflect no_shear #
lump $-1 $-1 $59 $5 #
transform $-1 1 0 0 0 1 0 0 0 1 61.309244056520278 33.923001419657872 9.344432227968138 1 rotate no_reflect no_shear #
lump $-1 $-1 $60 $6 #
transform $-1 1 0 0 0 1 0 0 0 1 61.309244056520278 33.923001419657872 9.344432227968138 1 rotate no_reflect no_shear #
lump $-1 $-1 $61 $7 #
transform $-1 1 0 0 0 1 0 0 0 1 61.309244056520278 33.923001419657872 9.344432227968138 1 rotate no_reflect no_shear #
lump $-1 $-1 $62 $8 #
transform $-1 1 0 0 0 1 0 0 0 1 61.309244056520278 33.923001419657872 9.344432227968138 1 rotate no_reflect no_shear #
lump $-1 $-1 $63 $9 #
transform $-1 1 0 0 0 1 0 0 0 1 61.309244056520278 33.923001419657872 9.344432227968138 1 rotate no_reflect no_shear #
lump $-1 $-1 $64 $10 #
transform $-1 1 0 0 0 1 0 0 0 1 61.309244056520278 33.923001419657872 9.344432227968138 1 rotate no_reflect no_shear #
lump $-1 $-1 $65 $11 #
transform $-1 1 0 0 0 1 0 0 0 1 61.309244056520278 33.923001419657872 9.344432227968138 1 rotate no_reflect no_shear #
lump $-1 $-1 $66 $12 #
transform $-1 1 0 0 0 1 0 0 0 1 61.309244056520278 33.923001419657872 9.344432227968138 1 rotate no_reflect no_shear #
lump $-1 $-1 $67 $13 #
transform $-1 1 0 0 0 1 0 0 0 1 61.309244056520278 33.923001419657872 9.344432227968138 1 rotate no_reflect no_shear #
lump $-1 $-1 $68 $14 #
transform $-1 1 0 0 0 1 0 0 0 1 61.309244056520278 33.923001419657872 9.344432227968138 1 rotate no_reflect no_shear #
lump $-1 $-1 $69 $15 #
transform $-1 1 0 0 0 1 0 0 0 1 61.309244056520278 33.923001419657872 9.344432227968138 1 rotate no_reflect no_shear #
lump $-1 $-1 $70 $16 #
transform $-1 1 0 0 0 1 0 0 0 1 61.309244056520278 33.923001419657872 9.344432227968138 1 rotate no_reflect no_shear #
lump $-1 $-1 $71 $17 #
transform $-1 1 0 0 0 1 0 0 0 1 61.309244056520278 33.923001419657872 9.344432227968138 1 rotate no_reflect no_shear #
shell $-1 $-1 $-1 $72 $-1 $18 #
shell $-1 $-1 $-1 $73 $-1 $20 #
shell $-1 $-1 $-1 $74 $-1 $22 #
shell $-1 $-1 $-1 $75 $-1 $24 #
shell $-1 $-1 $-1 $76 $-1 $26 #
shell $-1 $-1 $-1 $77 $-1 $28 #
shell $-1 $-1 $-1 $78 $-1 $30 #
shell $-1 $-1 $-1 $79 $-1 $32 #
shell $-1 $-1 $-1 $80 $-1 $34 #
shell $-1 $-1 $-1 $81 $-1 $36 #
shell $-1 $-1 $-1 $82 $-1 $38 #
shell $-1 $-1 $-1 $83 $-1 $40 #
shell $-1 $-1 $-1 $84 $-1 $42 #
shell $-1 $-1 $-1 $85 $-1 $44 #
shell $-1 $-1 $-1 $86 $-1 $46 #
shell $-1 $-1 $-1 $87 $-1 $48 #
shell $-1 $-1 $-1 $88 $-1 $50 #
shell $-1 $-1 $-1 $89 $-1 $52 #
face $-1 $90 $91 $54 $-1 $92 forward single #
face $-1 $93 $94 $55 $-1 $95 reversed single #
face $-1 $96 $97 $56 $-1 $98 reversed single #
face $-1 $99 $100 $57 $-1 $101 forward single #
face $-1 $102 $103 $58 $-1 $104 forward single #
face $-1 $105 $106 $59 $-1 $107 forward single #
face $-1 $108 $109 $60 $-1 $110 reversed single #
face $-1 $111 $112 $61 $-1 $113 forward single #
face $-1 $114 $115 $62 $-1 $116 forward single #
face $-1 $117 $118 $63 $-1 $119 forward single #
face $-1 $120 $121 $64 $-1 $122 reversed single #
face $-1 $123 $124 $65 $-1 $125 forward single #
face $-1 $126 $127 $66 $-1 $128 forward single #
face $-1 $129 $130 $67 $-1 $131 forward single #
face $-1 $132 $133 $68 $-1 $134 reversed single #
face $-1 $135 $136 $69 $-1 $137 forward single #
face $-1 $138 $139 $70 $-1 $140 forward single #
face $-1 $141 $142 $71 $-1 $143 forward single #
face $-1 $144 $145 $54 $-1 $146 reversed single #
loop $-1 $-1 $147 $72 #
plane-surface $-1 0 0 9.344432227968138 0 0 1 1 0 0 forward_v I I I I #
face $-1 $148 $149 $55 $-1 $150 reversed single #
loop $-1 $-1 $151 $73 #
plane-surface $-1 -53.179685976826008 -30.197422745886552 0 1 0 0 0 0 -1 forward_v I I I I #
face $-1 $152 $153 $56 $-1 $154 reversed single #
loop $-1 $-1 $155 $74 #
plane-surface $-1 -61.309244056520285 -20.660957524345346 0.77797566734749068 -0.62932039886446345 0 0.77714595512881146 0.77714595512881146 0 0.62932039886446345 forward_v I I I I #
face $-1 $156 $157 $57 $-1 $158 forward single #
loop $-1 $159 $160 $75 #
cone-surface $-1 -55.554816771897279 -24.147489453007275 4.4868767930076681 0.62932039886446345 0 -0.77714595512881146 0.38857297756440573 0 0.31466019943223172 1 I I 0 1 0.5 forward I I I I #
face $-1 $161 $162 $58 $-1 $163 forward single #
loop $-1 $164 $165 $76 #
cone-surface $-1 -55.554816771897279 -20.660957524345346 4.4868767930076681 0.62932039886446345 0 -0.77714595512881146 0.38857297756440573 0 0.31466019943223172 1 I I 0 1 0.5 forward I I I I #
face $-1 $166 $167 $59 $-1 $168 forward single #
loop $-1 $169 $170 $77 #
cone-surface $-1 -55.554816771897279 -17.174425595683417 4.4868767930076681 0.62932039886446345 0 -0.77714595512881146 0.38857297756440573 0 0.31466019943223172 1 I I 0 1 0.5 forward I I I I #
face $-1 $171 $172 $60 $-1 $173 reversed single #
loop $-1 $-1 $174 $78 #
plane-surface $-1 -138.47555990397643 3.7255786737713228 96.070437728407214 0 1 0 -0.62932039886446345 0 0.77714595512881146 forward_v I I I I #
face $-1 $175 $176 $61 $-1 $177 forward single #
loop $-1 $178 $179 $79 #
cone-surface $-1 -55.554816771897279 6.0499332928792739 4.4868767930076681 0.62932039886446345 0 -0.77714595512881146 0.38857297756440573 0 0.31466019943223172 1 I I 0 1 0.5 forward I I I I #
face $-1 $180 $181 $62 $-1 $182 forward single #
loop $-1 $183 $184 $80 #
cone-surface $-1 -55.554816771897279 9.5364652215412065 4.4868767930076681 0.62932039886446345 0 -0.77714595512881146 0.38857297756440573 0 0.31466019943223172 1 I I 0 1 0.5 forward I I I I #
face $-1 $185 $186 $63 $-1 $187 forward single #
loop $-1 $188 $189 $81 #
cone-surface $-1 -55.554816771897279 13.022997150203132 4.4868767930076681 0.62932039886446345 0 -0.77714595512881146 0.38857297756440573 0 0.31466019943223172 1 I I 0 1 0.5 forward I I I I #
face $-1 $190 $191 $64 $-1 $192 reversed single #
loop $-1 $-1 $193 $82 #
plane-surface $-1 49.212864441577231 -6.9265316758411117 178.18953460169371 0 -1 0 -0.6560590369687036 0 -0.75470957328743171 forward_v I I I I #
face $-1 $194 $195 $65 $-1 $196 forward single #
loop $-1 $197 $198 $83 #
cone-surface $-1 57.96309781444991 -16.519888028555741 6.1646564370248669 -0.6560590369687036 0 -0.75470957328743171 0.75470957328743171 0 -0.6560590369687036 1 I I 0 1 1 forward I I I I #
face $-1 $199 $200 $66 $-1 $201 forward single #
loop $-1 $202 $203 $84 #
cone-surface $-1 57.96309781444991 -12.922379396287752 6.1646564370248669 -0.6560590369687036 0 -0.75470957328743171 0.75470957328743171 0 -0.6560590369687036 1 I I 0 1 1 forward I I I I #
face $-1 $204 $205 $67 $-1 $206 forward single #
loop $-1 $207 $208 $85 #
cone-surface $-1 57.96309781444991 -9.3248707640197637 6.1646564370248669 -0.6560590369687036 0 -0.75470957328743171 0.75470957328743171 0 -0.6560590369687036 1 I I 0 1 1 forward I I I I #
face $-1 $209 $210 $68 $-1 $211 reversed single #
loop $-1 $-1 $212 $86 #
plane-surface $-1 49.212864441577231 26.369384464277037 178.18953460169371 0 -1 0 -0.6560590369687036 0 -0.75470957328743171 forward_v I I I I #
face $-1 $213 $214 $69 $-1 $215 forward single #
loop $-1 $216 $217 $87 #
cone-surface $-1 57.96309781444991 16.776028111562411 6.1646564370248669 -0.6560590369687036 0 -0.75470957328743171 0.75470957328743171 0 -0.6560590369687036 1 I I 0 1 1 forward I I I I #
face $-1 $218 $219 $70 $-1 $220 forward single #
loop $-1 $221 $222 $88 #
cone-surface $-1 57.96309781444991 20.3735367438304 6.1646564370248669 -0.6560590369687036 0 -0.75470957328743171 0.75470957328743171 0 -0.6560590369687036 1 I I 0 1 1 forward I I I I #
face $-1 $223 $224 $71 $-1 $225 forward single #
loop $-1 $226 $227 $89 #
cone-surface $-1 57.96309781444991 23.971045376098388 6.1646564370248669 -0.6560590369687036 0 -0.75470957328743171 0.75470957328743171 0 -0.6560590369687036 1 I I 0 1 1 forward I I I I #
face $-1 $228 $229 $54 $-1 $230 reversed single #
loop $-1 $-1 $231 $90 #
plane-surface $-1 0 0 -9.344432227968138 0 0 1 1 0 0 forward_v I I I I #
coedge $-1 $232 $233 $234 $235 forward $91 $-1 #
face $-1 $236 $237 $55 $-1 $238 reversed single #
loop $-1 $-1 $239 $93 #
plane-surface $-1 -51.679685976826008 -26.471844072115232 0 0 -1 0 0 0 -1 forward_v I I I I #
coedge $-1 $240 $241 $242 $243 forward $94 $-1 #
face $-1 $244 $245 $56 $-1 $246 forward single #
loop $-1 $-1 $247 $96 #
plane-surface $-1 -138.47555990397643 -14.850070976575463 96.070437728407214 0 -1 0 0.62932039886446345 0 -0.77714595512881146 forward_v I I I I #
coedge $-1 $248 $249 $250 $251 reversed $97 $-1 #
face $-1 $-1 $252 $57 $-1 $253 forward single #
loop $-1 $254 $255 $99 #
cone-surface $-1 -54.932405702952906 -24.147489453007275 3.7182631495753071 0.62932039886446345 0 -0.77714595512881146 0.19428648878220287 0 0.15733009971611586 1 I I -0.70710678118654746 0.70710678118654746 0.25 forward I I I I #
loop $-1 $-1 $256 $75 #
coedge $-1 $160 $160 $257 $258 reversed $100 $-1 #
face $-1 $-1 $259 $58 $-1 $260 forward single #
loop $-1 $261 $262 $102 #
cone-surface $-1 -54.932405702952906 -20.660957524345346 3.7182631495753071 0.62932039886446345 0 -0.77714595512881146 0.19428648878220287 0 0.15733009971611586 1 I I -0.70710678118654746 0.70710678118654746 0.25 forward I I I I #
loop $-1 $-1 $263 $76 #
coedge $-1 $165 $165 $264 $265 reversed $103 $-1 #
face $-1 $-1 $266 $59 $-1 $267 forward single #
loop $-1 $268 $269 $105 #
cone-surface $-1 -54.932405702952906 -17.174425595683417 3.7182631495753071 0.62932039886446345 0 -0.77714595512881146 0.19428648878220287 0 0.15733009971611586 1 I I -0.70710678118654746 0.70710678118654746 0.25 forward I I I I #
loop $-1 $-1 $270 $77 #
coedge $-1 $170 $170 $271 $272 reversed $106 $-1 #
face $-1 $273 $274 $60 $-1 $275 reversed single #
loop $-1 $-1 $276 $108 #
plane-surface $-1 -61.309244056520285 9.5364652215412065 0.77797566734749068 -0.62932039886446345 0 0.77714595512881146 0.77714595512881146 0 0.62932039886446345 forward_v I I I I #
coedge $-1 $277 $278 $279 $280 reversed $109 $-1 #
face $-1 $-1 $281 $61 $-1 $282 forward single #
loop $-1 $283 $284 $111 #
cone-surface $-1 -54.932405702952906 6.0499332928792739 3.7182631495753071 0.62932039886446345 0 -0.77714595512881146 0.19428648878220287 0 0.15733009971611586 1 I I -0.70710678118654746 0.70710678118654746 0.25 forward I I I I #
loop $-1 $-1 $285 $79 #
coedge $-1 $179 $179 $286 $287 reversed $112 $-1 #
face $-1 $-1 $288 $62 $-1 $289 forward single #
loop $-1 $290 $291 $114 #
cone-surface $-1 -54.932405702952906 9.5364652215412065 3.7182631495753071 0.62932039886446345 0 -0.77714595512881146 0.19428648878220287 0 0.15733009971611586 1 I I -0.70710678118654746 0.70710678118654746 0.25 forward I I I I #
loop $-1 $-1 $292 $80 #
coedge $-1 $184 $184 $293 $294 reversed $115 $-1 #
face $-1 $-1 $295 $63 $-1 $296 forward single #
loop $-1 $297 $298 $117 #
cone-surface $-1 -54.932405702952906 13.022997150203132 3.7182631495753071 0.62932039886446345 0 -0.77714595512881146 0.19428648878220287 0 0.15733009971611586 1 I I -0.70710678118654746 0.70710678118654746 0.25 forward I I I I #
loop $-1 $-1 $299 $81 #
coedge $-1 $189 $189 $300 $301 reversed $118 $-1 #
face $-1 $302 $303 $64 $-1 $304 reversed single #
loop $-1 $-1 $305 $120 #
plane-surface $-1 -31.232102784422587 -12.922379396287756 85.648187760750858 0.6560590369687036 0 0.75470957328743171 0.75470957328743171 0 -0.6560590369687036 forward_v I I I I #
coedge $-1 $306 $307 $308 $309 reversed $121 $-1 #
face $-1 $-1 $310 $65 $-1 $311 forward single #
loop $-1 $312 $313 $123 #
cone-surface $-1 56.670881552785424 -16.519888028555741 4.6781317060464183 -0.6560590369687036 0 -0.75470957328743171 0.37735478664371586 0 -0.3280295184843518 1 I I -0.70710678118654746 0.70710678118654746 0.5 forward I I I I #
loop $-1 $-1 $314 $83 #
coedge $-1 $198 $198 $315 $316 reversed $124 $-1 #
face $-1 $-1 $317 $66 $-1 $318 forward single #
loop $-1 $319 $320 $126 #
cone-surface $-1 56.670881552785424 -12.922379396287752 4.6781317060464183 -0.6560590369687036 0 -0.75470957328743171 0.37735478664371586 0 -0.3280295184843518 1 I I -0.70710678118654746 0.70710678118654746 0.5 forward I I I I #
loop $-1 $-1 $321 $84 #
coedge $-1 $203 $203 $322 $323 reversed $127 $-1 #
face $-1 $-1 $324 $67 $-1 $325 forward single #
loop $-1 $326 $327 $129 #
cone-surface $-1 56.670881552785424 -9.3248707640197637 4.6781317060464183 -0.6560590369687036 0 -0.75470957328743171 0.37735478664371586 0 -0.3280295184843518 1 I I -0.70710678118654746 0.70710678118654746 0.5 forward I I I I #
loop $-1 $-1 $328 $85 #
coedge $-1 $208 $208 $329 $330 reversed $130 $-1 #
face $-1 $331 $332 $68 $-1 $333 reversed single #
loop $-1 $-1 $334 $132 #
plane-surface $-1 -31.232102784422587 20.373536743830392 85.648187760750858 0.6560590369687036 0 0.75470957328743171 0.75470957328743171 0 -0.6560590369687036 forward_v I I I I #
coedge $-1 $335 $336 $337 $338 reversed $133 $-1 #
face $-1 $-1 $339 $69 $-1 $340 forward single #
loop $-1 $341 $342 $135 #
cone-surface $-1 56.670881552785424 16.776028111562411 4.6781317060464183 -0.6560590369687036 0 -0.75470957328743171 0.37735478664371586 0 -0.3280295184843518 1 I I -0.70710678118654746 0.70710678118654746 0.5 forward I I I I #
loop $-1 $-1 $343 $87 #
coedge $-1 $217 $217 $344 $345 reversed $136 $-1 #
face $-1 $-1 $346 $70 $-1 $347 forward single #
loop $-1 $348 $349 $138 #
cone-surface $-1 56.670881552785424 20.3735367438304 4.6781317060464183 -0.6560590369687036 0 -0.75470957328743171 0.37735478664371586 0 -0.3280295184843518 1 I I -0.70710678118654746 0.70710678118654746 0.5 forward I I I I #
loop $-1 $-1 $350 $88 #
coedge $-1 $222 $222 $351 $352 reversed $139 $-1 #
face $-1 $-1 $353 $71 $-1 $354 forward single #
loop $-1 $355 $356 $141 #
cone-surface $-1 56.670881552785424 23.971045376098388 4.6781317060464183 -0.6560590369687036 0 -0.75470957328743171 0.37735478664371586 0 -0.3280295184843518 1 I I -0.70710678118654746 0.70710678118654746 0.5 forward I I I I #
loop $-1 $-1 $357 $89 #
coedge $-1 $227 $227 $358 $359 reversed $142 $-1 #
face $-1 $360 $361 $54 $-1 $362 reversed single #
loop $-1 $-1 $363 $144 #
plane-surface $-1 0 -33.923001419657872 0 0 1 0 0 0 1 forward_v I I I I #
coedge $-1 $364 $365 $366 $367 forward $145 $-1 #
coedge $-1 $368 $147 $369 $370 forward $91 $-1 #
coedge $-1 $147 $368 $371 $372 forward $91 $-1 #
coedge $-1 $373 $374 $147 $235 reversed $375 $-1 #
edge $-1 $376 -33.923001419657872 $377 33.923001419657872 $234 $378 forward 7 unknown #
face $-1 $379 $380 $55 $-1 $381 forward single #
loop $-1 $-1 $382 $148 #
plane-surface $-1 -50.179685976826008 -30.197422745886552 0 -1 0 0 0 0 1 forward_v I I I I #
coedge $-1 $383 $242 $384 $385 reversed $149 $-1 #
coedge $-1 $386 $151 $387 $388 reversed $94 $-1 #
coedge $-1 $151 $386 $389 $390 reversed $94 $-1 #
coedge $-1 $239 $391 $151 $243 reversed $149 $-1 #
edge $-1 $392 -9.344432227968138 $393 9.344432227968138 $242 $394 forward 7 unknown #
face $-1 $395 $396 $56 $-1 $397 forward single #
loop $-1 $-1 $398 $152 #
plane-surface $-1 0 0 9.344432227968138 0 0 1 1 0 0 forward_v I I I I #
coedge $-1 $399 $400 $401 $402 reversed $153 $-1 #
coedge $-1 $403 $155 $404 $405 reversed $97 $-1 #
coedge $-1 $155 $403 $399 $406 forward $97 $-1 #
coedge $-1 $401 $398 $155 $251 forward $245 $-1 #
edge $-1 $407 -16.141365309942557 $408 -4.51959221440279 $250 $409 forward 7 unknown #
loop $-1 $-1 $257 $156 #
plane-surface $-1 -61.309244056520285 -20.660957524345346 0.77797566734749068 -0.62932039886446345 0 0.77714595512881146 0.77714595512881146 0 0.62932039886446345 forward_v I I I I #
loop $-1 $-1 $410 $99 #
coedge $-1 $255 $255 $256 $411 reversed $157 $-1 #
coedge $-1 $256 $256 $255 $411 forward $159 $-1 #
coedge $-1 $257 $257 $160 $258 forward $252 $-1 #
edge $-1 $412 0 $412 6.2831853071796004 $257 $413 forward 7 unknown #
loop $-1 $-1 $264 $161 #
plane-surface $-1 -61.309244056520285 -20.660957524345346 0.77797566734749068 -0.62932039886446345 0 0.77714595512881146 0.77714595512881146 0 0.62932039886446345 forward_v I I I I #
loop $-1 $-1 $414 $102 #
coedge $-1 $262 $262 $263 $415 reversed $162 $-1 #
coedge $-1 $263 $263 $262 $415 forward $164 $-1 #
coedge $-1 $264 $264 $165 $265 forward $259 $-1 #
edge $-1 $416 0 $416 6.2831853071796004 $264 $417 forward 7 unknown #
loop $-1 $-1 $271 $166 #
plane-surface $-1 -61.309244056520285 -20.660957524345346 0.77797566734749068 -0.62932039886446345 0 0.77714595512881146 0.77714595512881146 0 0.62932039886446345 forward_v I I I I #
loop $-1 $-1 $418 $105 #
coedge $-1 $269 $269 $270 $419 reversed $167 $-1 #
coedge $-1 $270 $270 $269 $419 forward $169 $-1 #
coedge $-1 $271 $271 $170 $272 forward $266 $-1 #
edge $-1 $420 0 $420 6.2831853071796004 $271 $421 forward 7 unknown #
face $-1 $422 $423 $60 $-1 $424 reversed single #
loop $-1 $-1 $425 $171 #
plane-surface $-1 -138.47555990397643 15.347351769311089 96.070437728407214 0 -1 0 0.62932039886446345 0 -0.77714595512881146 forward_v I I I I #
coedge $-1 $426 $427 $428 $429 reversed $172 $-1 #
coedge $-1 $278 $174 $430 $431 reversed $109 $-1 #
coedge $-1 $174 $277 $426 $432 reversed $109 $-1 #
coedge $-1 $428 $433 $174 $280 forward $434 $-1 #
edge $-1 $435 7.9285358954679381 $436 18.507228526257428 $279 $437 forward 7 unknown #
loop $-1 $-1 $286 $175 #
plane-surface $-1 -61.309244056520285 9.5364652215412065 0.77797566734749068 -0.62932039886446345 0 0.77714595512881146 0.77714595512881146 0 0.62932039886446345 forward_v I I I I #
loop $-1 $-1 $438 $111 #
coedge $-1 $284 $284 $285 $439 reversed $176 $-1 #
coedge $-1 $285 $285 $284 $439 forward $178 $-1 #
coedge $-1 $286 $286 $179 $287 forward $281 $-1 #
edge $-1 $440 0 $440 6.2831853071796004 $286 $441 forward 7 unknown #
loop $-1 $-1 $293 $180 #
plane-surface $-1 -61.309244056520285 9.5364652215412065 0.77797566734749068 -0.62932039886446345 0 0.77714595512881146 0.77714595512881146 0 0.62932039886446345 forward_v I I I I #
loop $-1 $-1 $442 $114 #
coedge $-1 $291 $291 $292 $443 reversed $181 $-1 #
coedge $-1 $292 $292 $291 $443 forward $183 $-1 #
coedge $-1 $293 $293 $184 $294 forward $288 $-1 #
edge $-1 $444 0 $444 6.2831853071796004 $293 $445 forward 7 unknown #
loop $-1 $-1 $300 $185 #
plane-surface $-1 -61.309244056520285 9.5364652215412065 0.77797566734749068 -0.62932039886446345 0 0.77714595512881146 0.77714595512881146 0 0.62932039886446345 forward_v I I I I #
loop $-1 $-1 $446 $117 #
coedge $-1 $298 $298 $299 $447 reversed $186 $-1 #
coedge $-1 $299 $299 $298 $447 forward $188 $-1 #
coedge $-1 $300 $300 $189 $301 forward $295 $-1 #
edge $-1 $448 0 $448 6.2831853071796004 $300 $449 forward 7 unknown #
face $-1 $450 $451 $64 $-1 $452 forward single #
loop $-1 $-1 $453 $190 #
plane-surface $-1 49.212864441577231 -18.9182271167344 178.18953460169371 0 1 0 0.6560590369687036 0 0.75470957328743171 forward_v I I I I #
coedge $-1 $454 $455 $456 $457 reversed $191 $-1 #
coedge $-1 $307 $193 $458 $459 reversed $121 $-1 #
coedge $-1 $193 $306 $454 $460 reversed $121 $-1 #
coedge $-1 $456 $461 $193 $309 forward $451 $-1 #
edge $-1 $462 -36.702811835731666 $463 -31.938892837951126 $308 $464 forward 7 unknown #
loop $-1 $-1 $315 $194 #
plane-surface $-1 -31.232102784422587 -12.922379396287756 85.648187760750858 0.6560590369687036 0 0.75470957328743171 0.75470957328743171 0 -0.6560590369687036 forward_v I I I I #
loop $-1 $-1 $465 $123 #
coedge $-1 $313 $313 $314 $466 reversed $195 $-1 #
coedge $-1 $314 $314 $313 $466 forward $197 $-1 #
coedge $-1 $315 $315 $198 $316 forward $310 $-1 #
edge $-1 $467 0 $467 6.2831853071796004 $315 $468 forward 7 unknown #
loop $-1 $-1 $322 $199 #
plane-surface $-1 -31.232102784422587 -12.922379396287756 85.648187760750858 0.6560590369687036 0 0.75470957328743171 0.75470957328743171 0 -0.6560590369687036 forward_v I I I I #
loop $-1 $-1 $469 $126 #
coedge $-1 $320 $320 $321 $470 reversed $200 $-1 #
coedge $-1 $321 $321 $320 $470 forward $202 $-1 #
coedge $-1 $322 $322 $203 $323 forward $317 $-1 #
edge $-1 $471 0 $471 6.2831853071796004 $322 $472 forward 7 unknown #
loop $-1 $-1 $329 $204 #
plane-surface $-1 -31.232102784422587 -12.922379396287756 85.648187760750858 0.6560590369687036 0 0.75470957328743171 0.75470957328743171 0 -0.6560590369687036 forward_v I I I I #
loop $-1 $-1 $473 $129 #
coedge $-1 $327 $327 $328 $474 reversed $205 $-1 #
coedge $-1 $328 $328 $327 $474 forward $207 $-1 #
coedge $-1 $329 $329 $208 $330 forward $324 $-1 #
edge $-1 $475 0 $475 6.2831853071796004 $329 $476 forward 7 unknown #
face $-1 $477 $478 $68 $-1 $479 reversed single #
loop $-1 $-1 $480 $209 #
plane-surface $-1 49.212864441577231 14.377689023383748 178.18953460169371 0 1 0 0.6560590369687036 0 0.75470957328743171 forward_v I I I I #
coedge $-1 $481 $482 $483 $484 reversed $210 $-1 #
coedge $-1 $336 $212 $485 $486 reversed $133 $-1 #
coedge $-1 $212 $335 $481 $487 reversed $133 $-1 #
coedge $-1 $483 $488 $212 $338 forward $489 $-1 #
edge $-1 $490 -36.702811835731666 $491 -31.938892837951126 $337 $492 forward 7 unknown #
loop $-1 $-1 $344 $213 #
plane-surface $-1 -31.232102784422587 20.373536743830392 85.648187760750858 0.6560590369687036 0 0.75470957328743171 0.75470957328743171 0 -0.6560590369687036 forward_v I I I I #
loop $-1 $-1 $493 $135 #
coedge $-1 $342 $342 $343 $494 reversed $214 $-1 #
coedge $-1 $343 $343 $342 $494 forward $216 $-1 #
coedge $-1 $344 $344 $217 $345 forward $339 $-1 #
edge $-1 $495 0 $495 6.2831853071796004 $344 $496 forward 7 unknown #
loop $-1 $-1 $351 $218 #
plane-surface $-1 -31.232102784422587 20.373536743830392 85.648187760750858 0.6560590369687036 0 0.75470957328743171 0.75470957328743171 0 -0.6560590369687036 forward_v I I I I #
loop $-1 $-1 $497 $138 #
coedge $-1 $349 $349 $350 $498 reversed $219 $-1 #
coedge $-1 $350 $350 $349 $498 forward $221 $-1 #
coedge $-1 $351 $351 $222 $352 forward $346 $-1 #
edge $-1 $499 0 $499 6.2831853071796004 $351 $500 forward 7 unknown #
loop $-1 $-1 $358 $223 #
plane-surface $-1 -31.232102784422587 20.373536743830392 85.648187760750858 0.6560590369687036 0 0.75470957328743171 0.75470957328743171 0 -0.6560590369687036 forward_v I I I I #
loop $-1 $-1 $501 $141 #
coedge $-1 $356 $356 $357 $502 reversed $224 $-1 #
coedge $-1 $357 $357 $356 $502 forward $226 $-1 #
coedge $-1 $358 $358 $227 $359 forward $353 $-1 #
edge $-1 $503 0 $503 6.2831853071796004 $358 $504 forward 7 unknown #
face $-1 $505 $506 $54 $-1 $507 reversed single #
loop $-1 $-1 $508 $228 #
plane-surface $-1 -61.309244056520278 0 0 1 0 0 0 0 -1 forward_v I I I I #
coedge $-1 $509 $371 $510 $511 forward $229 $-1 #
coedge $-1 $512 $231 $509 $513 forward $145 $-1 #
coedge $-1 $231 $512 $514 $515 forward $145 $-1 #
coedge $-1 $374 $373 $231 $367 reversed $375 $-1 #
edge $-1 $516 -33.923001419657872 $517 33.923001419657872 $366 $518 forward 7 unknown #
coedge $-1 $233 $232 $519 $520 forward $91 $-1 #
coedge $-1 $521 $522 $232 $370 reversed $506 $-1 #
edge $-1 $377 -61.309244056520278 $523 61.309244056520278 $369 $524 forward 7 unknown #
coedge $-1 $363 $525 $233 $372 reversed $229 $-1 #
edge $-1 $526 -61.309244056520278 $376 61.309244056520278 $371 $527 forward 7 unknown #
coedge $-1 $366 $234 $525 $528 forward $375 $-1 #
coedge $-1 $234 $366 $521 $529 reversed $375 $-1 #
loop $-1 $-1 $373 $505 #
vertex $-1 $235 $530 #
vertex $-1 $235 $531 #
straight-curve $-1 61.309244056520278 0 9.344432227968138 0 1 0 I I #
face $-1 $532 $533 $55 $-1 $534 reversed single #
loop $-1 $-1 $535 $236 #
plane-surface $-1 0 0 9.344432227968138 0 0 1 1 0 0 forward_v I I I I #
coedge $-1 $536 $537 $538 $539 reversed $237 $-1 #
coedge $-1 $391 $239 $540 $541 forward $149 $-1 #
coedge $-1 $389 $535 $239 $385 forward $380 $-1 #
edge $-1 $542 24.339842988413004 $392 27.339842988413004 $384 $543 forward 7 unknown #
coedge $-1 $241 $240 $544 $545 reversed $94 $-1 #
coedge $-1 $546 $547 $240 $388 forward $533 $-1 #
edge $-1 $548 -18.824290046714594 $393 -11.373132699171956 $387 $549 forward 7 unknown #
coedge $-1 $550 $384 $241 $390 forward $380 $-1 #
edge $-1 $392 11.373132699171956 $551 18.824290046714594 $389 $552 forward 7 unknown #
coedge $-1 $242 $383 $546 $553 reversed $149 $-1 #
vertex $-1 $390 $554 #
vertex $-1 $388 $555 #
straight-curve $-1 -53.179685976826008 -26.471844072115232 0 0 0 -1 I I #
face $-1 $-1 $556 $56 $-1 $557 reversed single #
loop $-1 $-1 $404 $244 #
plane-surface $-1 -51.679685976826008 -26.471844072115232 0 0 -1 0 0 0 -1 forward_v I I I I #
coedge $-1 $250 $558 $559 $560 forward $245 $-1 #
coedge $-1 $400 $247 $249 $406 reversed $153 $-1 #
coedge $-1 $247 $399 $561 $562 reversed $153 $-1 #
coedge $-1 $558 $250 $247 $402 forward $245 $-1 #
edge $-1 $408 -18.507228526257428 $563 -7.9285358954679381 $401 $564 forward 7 unknown #
coedge $-1 $249 $248 $565 $566 reversed $97 $-1 #
coedge $-1 $559 $567 $248 $405 forward $396 $-1 #
edge $-1 $568 -3.4969880770151942 $407 10.115245971138705 $404 $569 forward 7 unknown #
edge $-1 $570 9.1551213131864128e-015 $408 13.612234048153908 $399 $571 forward 7 unknown #
vertex $-1 $405 $572 #
vertex $-1 $251 $573 #
straight-curve $-1 -50.730551425730788 -10.330478762172673 9.344432227968138 0 1 0 I I #
coedge $-1 $410 $410 $-1 $574 reversed $254 $-1 #
edge $-1 $575 0 $575 6.2831853071796004 $255 $576 forward 7 unknown #
vertex $-1 $258 $577 #
ellipse-curve $-1 -56.019897741125533 -24.147489453007275 5.0612039476578179 -0.62932039886446345 0 0.77714595512881146 0.38857297756440573 0 0.31466019943223172 1 I I #
coedge $-1 $414 $414 $-1 $578 reversed $261 $-1 #
edge $-1 $579 0 $579 6.2831853071796004 $262 $580 forward 7 unknown #
vertex $-1 $265 $581 #
ellipse-curve $-1 -56.019897741125533 -20.660957524345346 5.0612039476578179 -0.62932039886446345 0 0.77714595512881146 0.38857297756440573 0 0.31466019943223172 1 I I #
coedge $-1 $418 $418 $-1 $582 reversed $268 $-1 #
edge $-1 $583 0 $583 6.2831853071796004 $269 $584 forward 7 unknown #
vertex $-1 $272 $585 #
ellipse-curve $-1 -56.019897741125533 -17.174425595683417 5.0612039476578179 -0.62932039886446345 0 0.77714595512881146 0.38857297756440573 0 0.31466019943223172 1 I I #
face $-1 $-1 $434 $60 $-1 $586 forward single #
loop $-1 $-1 $587 $273 #
plane-surface $-1 -61.309244056520278 0 0 1 0 0 0 0 -1 forward_v I I I I #
coedge $-1 $588 $589 $590 $591 reversed $274 $-1 #
coedge $-1 $592 $276 $278 $432 forward $172 $-1 #
coedge $-1 $276 $592 $588 $593 forward $172 $-1 #
coedge $-1 $590 $279 $276 $429 forward $434 $-1 #
edge $-1 $436 -1.0426539369992804 $594 10.579119158540486 $428 $595 forward 7 unknown #
coedge $-1 $596 $597 $277 $431 forward $423 $-1 #
edge $-1 $598 -47.257243196856109 $435 -38.690786636235472 $430 $599 forward 7 unknown #
edge $-1 $436 -13.612234048153908 $598 -9.1551213131864128e-015 $278 $600 forward 7 unknown #
coedge $-1 $279 $590 $596 $601 forward $434 $-1 #
loop $-1 $-1 $590 $422 #
vertex $-1 $431 $602 #
vertex $-1 $280 $603 #
straight-curve $-1 -69.237779951988216 3.7255786737713228 9.3444322279681415 1 0 0 I I #
coedge $-1 $438 $438 $-1 $604 reversed $283 $-1 #
edge $-1 $605 0 $605 6.2831853071796004 $284 $606 forward 7 unknown #
vertex $-1 $287 $607 #
ellipse-curve $-1 -56.019897741125533 6.0499332928792739 5.0612039476578179 -0.62932039886446345 0 0.77714595512881146 0.38857297756440573 0 0.31466019943223172 1 I I #
coedge $-1 $442 $442 $-1 $608 reversed $290 $-1 #
edge $-1 $609 0 $609 6.2831853071796004 $291 $610 forward 7 unknown #
vertex $-1 $294 $611 #
ellipse-curve $-1 -56.019897741125533 9.5364652215412065 5.0612039476578179 -0.62932039886446345 0 0.77714595512881146 0.38857297756440573 0 0.31466019943223172 1 I I #
coedge $-1 $446 $446 $-1 $612 reversed $297 $-1 #
edge $-1 $613 0 $613 6.2831853071796004 $298 $614 forward 7 unknown #
vertex $-1 $301 $615 #
ellipse-curve $-1 -56.019897741125533 13.022997150203132 5.0612039476578179 -0.62932039886446345 0 0.77714595512881146 0.38857297756440573 0 0.31466019943223172 1 I I #
face $-1 $-1 $616 $64 $-1 $617 reversed single #
loop $-1 $-1 $308 $302 #
plane-surface $-1 0 0 9.344432227968138 0 0 1 1 0 0 forward_v I I I I #
coedge $-1 $618 $619 $620 $621 reversed $303 $-1 #
coedge $-1 $622 $305 $307 $460 forward $191 $-1 #
coedge $-1 $305 $622 $618 $623 forward $191 $-1 #
coedge $-1 $620 $308 $305 $457 forward $451 $-1 #
edge $-1 $463 0.46534197769723384 $624 12.457037418590522 $456 $625 forward 7 unknown #
coedge $-1 $626 $627 $306 $459 forward $616 $-1 #
edge $-1 $628 -83.891546766095829 $462 -79.750335072878713 $458 $629 forward 7 unknown #
edge $-1 $463 116.30623348371418 $628 122.61848811304057 $307 $630 forward 7 unknown #
coedge $-1 $308 $620 $626 $631 forward $451 $-1 #
vertex $-1 $459 $632 #
vertex $-1 $309 $633 #
straight-curve $-1 24.606432220788616 -6.9265316758411117 9.3444322279681415 -1 0 0 I I #
coedge $-1 $465 $465 $-1 $634 reversed $312 $-1 #
edge $-1 $635 0 $635 6.2831853071796004 $313 $636 forward 7 unknown #
vertex $-1 $316 $637 #
ellipse-curve $-1 58.927284557630024 -16.519888028555741 7.2738263813595792 0.6560590369687036 0 0.75470957328743171 0.75470957328743171 0 -0.6560590369687036 1 I I #
coedge $-1 $469 $469 $-1 $638 reversed $319 $-1 #
edge $-1 $639 0 $639 6.2831853071796004 $320 $640 forward 7 unknown #
vertex $-1 $323 $641 #
ellipse-curve $-1 58.927284557630024 -12.922379396287752 7.2738263813595792 0.6560590369687036 0 0.75470957328743171 0.75470957328743171 0 -0.6560590369687036 1 I I #
coedge $-1 $473 $473 $-1 $642 reversed $326 $-1 #
edge $-1 $643 0 $643 6.2831853071796004 $327 $644 forward 7 unknown #
vertex $-1 $330 $645 #
ellipse-curve $-1 58.927284557630024 -9.3248707640197637 7.2738263813595792 0.6560590369687036 0 0.75470957328743171 0.75470957328743171 0 -0.6560590369687036 1 I I #
face $-1 $-1 $489 $68 $-1 $646 forward single #
loop $-1 $-1 $647 $331 #
plane-surface $-1 61.309244056520278 0 0 -1 0 0 0 0 1 forward_v I I I I #
coedge $-1 $648 $649 $650 $651 reversed $332 $-1 #
coedge $-1 $652 $334 $336 $487 forward $210 $-1 #
coedge $-1 $334 $652 $648 $653 forward $210 $-1 #
coedge $-1 $650 $337 $334 $484 forward $489 $-1 #
edge $-1 $491 -16.18261609236184 $654 -4.1909206514685522 $483 $655 forward 7 unknown #
coedge $-1 $656 $657 $335 $486 forward $478 $-1 #
edge $-1 $658 -83.891546766095829 $490 -79.750335072878713 $485 $659 forward 7 unknown #
edge $-1 $491 116.30623348371418 $658 122.61848811304057 $336 $660 forward 7 unknown #
coedge $-1 $337 $650 $656 $661 forward $489 $-1 #
loop $-1 $-1 $650 $477 #
vertex $-1 $486 $662 #
vertex $-1 $338 $663 #
straight-curve $-1 24.606432220788616 26.369384464277037 9.3444322279681415 -1 0 0 I I #
coedge $-1 $493 $493 $-1 $664 reversed $341 $-1 #
edge $-1 $665 0 $665 6.2831853071796004 $342 $666 forward 7 unknown #
vertex $-1 $345 $667 #
ellipse-curve $-1 58.927284557630024 16.776028111562411 7.2738263813595792 0.6560590369687036 0 0.75470957328743171 0.75470957328743171 0 -0.6560590369687036 1 I I #
coedge $-1 $497 $497 $-1 $668 reversed $348 $-1 #
edge $-1 $669 0 $669 6.2831853071796004 $349 $670 forward 7 unknown #
vertex $-1 $352 $671 #
ellipse-curve $-1 58.927284557630024 20.3735367438304 7.2738263813595792 0.6560590369687036 0 0.75470957328743171 0.75470957328743171 0 -0.6560590369687036 1 I I #
coedge $-1 $501 $501 $-1 $672 reversed $355 $-1 #
edge $-1 $673 0 $673 6.2831853071796004 $356 $674 forward 7 unknown #
vertex $-1 $359 $675 #
ellipse-curve $-1 58.927284557630024 23.971045376098388 7.2738263813595792 0.6560590369687036 0 0.75470957328743171 0.75470957328743171 0 -0.6560590369687036 1 I I #
face $-1 $-1 $375 $54 $-1 $676 reversed single #
loop $-1 $-1 $521 $360 #
plane-surface $-1 0 33.923001419657872 0 0 -1 0 0 0 -1 forward_v I I I I #
coedge $-1 $677 $519 $522 $678 forward $361 $-1 #
coedge $-1 $525 $363 $364 $513 reversed $229 $-1 #
coedge $-1 $519 $677 $363 $511 reversed $361 $-1 #
edge $-1 $526 -9.344432227968138 $679 9.344432227968138 $510 $680 forward 7 unknown #
coedge $-1 $365 $364 $677 $681 forward $145 $-1 #
edge $-1 $517 -61.309244056520278 $679 61.309244056520278 $509 $682 forward 7 unknown #
coedge $-1 $522 $521 $365 $515 reversed $506 $-1 #
edge $-1 $683 -61.309244056520278 $516 61.309244056520278 $514 $684 forward 7 unknown #
vertex $-1 $367 $685 #
vertex $-1 $528 $686 #
straight-curve $-1 61.309244056520278 0 -9.344432227968138 0 -1 0 I I #
coedge $-1 $508 $510 $368 $520 reversed $361 $-1 #
edge $-1 $523 -33.923001419657872 $526 33.923001419657872 $519 $687 forward 7 unknown #
coedge $-1 $514 $369 $374 $529 forward $506 $-1 #
coedge $-1 $369 $514 $508 $678 reversed $506 $-1 #
vertex $-1 $370 $688 #
straight-curve $-1 0 33.923001419657872 9.344432227968138 -1 0 0 I I #
coedge $-1 $371 $509 $373 $528 reversed $229 $-1 #
vertex $-1 $520 $689 #
straight-curve $-1 0 -33.923001419657872 9.344432227968138 1 0 0 I I #
edge $-1 $376 -9.344432227968138 $517 9.344432227968138 $373 $690 forward 7 unknown #
edge $-1 $377 -9.344432227968138 $516 9.344432227968138 $374 $691 forward 7 unknown #
point $-1 61.309244056520278 -33.923001419657872 9.344432227968138 #
point $-1 61.309244056520278 33.923001419657872 9.344432227968138 #
face $-1 $-1 $692 $55 $-1 $693 reversed single #
loop $-1 $-1 $694 $379 #
plane-surface $-1 0 0 -9.344432227968138 0 0 1 1 0 0 forward_v I I I I #
coedge $-1 $384 $550 $537 $695 forward $380 $-1 #
coedge $-1 $540 $382 $694 $696 reversed $237 $-1 #
coedge $-1 $382 $540 $535 $695 reversed $237 $-1 #
coedge $-1 $697 $698 $382 $539 forward $692 $-1 #
edge $-1 $699 -9.344432227968138 $700 9.344432227968138 $538 $701 forward 7 unknown #
coedge $-1 $537 $536 $383 $541 reversed $237 $-1 #
edge $-1 $542 -9.344432227968138 $702 9.344432227968138 $540 $703 forward 7 unknown #
vertex $-1 $385 $704 #
straight-curve $-1 -25.839842988413004 -26.471844072115232 9.344432227968138 -1 0 0 I I #
coedge $-1 $698 $697 $386 $545 forward $692 $-1 #
edge $-1 $551 -9.344432227968138 $548 9.344432227968138 $544 $705 forward 7 unknown #
coedge $-1 $694 $387 $391 $553 forward $533 $-1 #
coedge $-1 $387 $694 $698 $706 forward $533 $-1 #
vertex $-1 $388 $707 #
straight-curve $-1 -53.179685976826008 -15.098711372943276 -9.344432227968138 0 1 0 I I #
coedge $-1 $535 $389 $697 $708 forward $380 $-1 #
vertex $-1 $708 $709 #
straight-curve $-1 -53.179685976826008 -15.098711372943276 9.344432227968138 0 -1 0 I I #
edge $-1 $393 -27.339842988413004 $702 -24.339842988413004 $546 $710 forward 7 unknown #
point $-1 -53.179685976826008 -26.471844072115232 9.344432227968138 #
point $-1 -53.179685976826008 -26.471844072115232 -9.344432227968138 #
loop $-1 $-1 $711 $395 #
plane-surface $-1 -61.309244056520278 0 0 1 0 0 0 0 -1 forward_v I I I I #
coedge $-1 $398 $401 $712 $713 forward $245 $-1 #
coedge $-1 $567 $404 $398 $560 reversed $396 $-1 #
edge $-1 $714 7.9285358954679381 $407 18.507228526257428 $398 $715 forward 7 unknown #
coedge $-1 $565 $712 $400 $562 forward $556 $-1 #
edge $-1 $563 38.690786636235472 $570 47.257243196856109 $561 $716 forward 7 unknown #
vertex $-1 $713 $717 #
straight-curve $-1 -69.237779951988216 -14.850070976575463 9.3444322279681415 -1 0 0 I I #
coedge $-1 $711 $561 $403 $566 forward $556 $-1 #
edge $-1 $570 4.51959221440279 $568 16.141365309942557 $565 $718 forward 7 unknown #
coedge $-1 $404 $559 $711 $719 reversed $396 $-1 #
vertex $-1 $719 $720 #
straight-curve $-1 -58.591573917334237 -26.471844072115232 2.97870159879897 0.77714595512881146 0 0.62932039886446345 I I #
vertex $-1 $566 $721 #
straight-curve $-1 -61.309244056520285 -14.850070976575463 0.77797566734749068 0.77714595512881146 0 0.62932039886446345 I I #
point $-1 -50.730551425730788 -26.471844072115232 9.344432227968138 #
point $-1 -50.730551425730788 -14.850070976575463 9.344432227968138 #
edge $-1 $722 1 $722 0 $410 $-1 forward 7 unknown #
vertex $-1 $411 $723 #
ellipse-curve $-1 -55.089735802669018 -24.147489453007275 3.9125496383575098 -0.62932039886446345 0 0.77714595512881146 0.38857297756440573 0 0.31466019943223172 1 I I #
point $-1 -55.631324763561139 -24.147489453007275 5.3758641470900592 #
edge $-1 $724 1 $724 0 $414 $-1 forward 7 unknown #
vertex $-1 $415 $725 #
ellipse-curve $-1 -55.089735802669018 -20.660957524345346 3.9125496383575098 -0.62932039886446345 0 0.77714595512881146 0.38857297756440573 0 0.31466019943223172 1 I I #
point $-1 -55.631324763561139 -20.660957524345346 5.3758641470900592 #
edge $-1 $726 1 $726 0 $418 $-1 forward 7 unknown #
vertex $-1 $419 $727 #
ellipse-curve $-1 -55.089735802669018 -17.174425595683417 3.9125496383575098 -0.62932039886446345 0 0.77714595512881146 0.38857297756440573 0 0.31466019943223172 1 I I #
point $-1 -55.631324763561139 -17.174425595683417 5.3758641470900592 #
plane-surface $-1 0 0 9.344432227968138 0 0 1 1 0 0 forward_v I I I I #
coedge $-1 $597 $596 $589 $728 forward $423 $-1 #
coedge $-1 $589 $425 $427 $593 reversed $274 $-1 #
coedge $-1 $425 $588 $587 $728 reversed $274 $-1 #
coedge $-1 $433 $428 $425 $591 forward $434 $-1 #
edge $-1 $594 -18.507228526257428 $729 -7.9285358954679381 $590 $730 forward 7 unknown #
coedge $-1 $427 $426 $597 $731 reversed $172 $-1 #
edge $-1 $732 9.1551213131864128e-015 $594 13.612234048153908 $588 $733 forward 7 unknown #
vertex $-1 $429 $734 #
straight-curve $-1 -50.730551425730788 4.7682326107706032 9.344432227968138 0 1 0 I I #
coedge $-1 $587 $430 $433 $601 reversed $423 $-1 #
coedge $-1 $430 $587 $592 $731 forward $423 $-1 #
vertex $-1 $431 $735 #
straight-curve $-1 -61.309244056520278 3.7255786737713228 48.035218864203607 0 0 1 I I #
straight-curve $-1 -61.309244056520285 3.7255786737713228 0.77797566734749068 -0.77714595512881146 0 -0.62932039886446345 I I #
edge $-1 $729 -15.347351769311089 $435 -3.7255786737713228 $596 $736 forward 7 unknown #
point $-1 -61.309244056520278 3.7255786737713228 9.344432227968138 #
point $-1 -50.730551425730788 3.7255786737713228 9.344432227968138 #
edge $-1 $737 1 $737 0 $438 $-1 forward 7 unknown #
vertex $-1 $439 $738 #
ellipse-curve $-1 -55.089735802669018 6.0499332928792739 3.9125496383575098 -0.62932039886446345 0 0.77714595512881146 0.38857297756440573 0 0.31466019943223172 1 I I #
point $-1 -55.631324763561139 6.0499332928792739 5.3758641470900592 #
edge $-1 $739 1 $739 0 $442 $-1 forward 7 unknown #
vertex $-1 $443 $740 #
ellipse-curve $-1 -55.089735802669018 9.5364652215412065 3.9125496383575098 -0.62932039886446345 0 0.77714595512881146 0.38857297756440573 0 0.31466019943223172 1 I I #
point $-1 -55.631324763561139 9.5364652215412065 5.3758641470900592 #
edge $-1 $741 1 $741 0 $446 $-1 forward 7 unknown #
vertex $-1 $447 $742 #
ellipse-curve $-1 -55.089735802669018 13.022997150203132 3.9125496383575098 -0.62932039886446345 0 0.77714595512881146 0.38857297756440573 0 0.31466019943223172 1 I I #
point $-1 -55.631324763561139 13.022997150203132 5.3758641470900592 #
loop $-1 $-1 $458 $450 #
plane-surface $-1 61.309244056520278 0 0 -1 0 0 0 0 1 forward_v I I I I #
coedge $-1 $619 $453 $455 $623 reversed $303 $-1 #
coedge $-1 $453 $618 $743 $744 reversed $303 $-1 #
coedge $-1 $461 $456 $453 $621 forward $451 $-1 #
edge $-1 $624 31.938892837951126 $745 36.702811835731666 $620 $746 forward 7 unknown #
coedge $-1 $455 $454 $627 $747 reversed $191 $-1 #
edge $-1 $748 -122.61848811304057 $624 -116.30623348371418 $618 $749 forward 7 unknown #
vertex $-1 $457 $750 #
straight-curve $-1 56.545325058739742 -6.4611896981438779 9.3444322279681487 0 -1 0 I I #
coedge $-1 $743 $458 $461 $631 reversed $616 $-1 #
coedge $-1 $458 $743 $622 $747 forward $616 $-1 #
vertex $-1 $459 $751 #
straight-curve $-1 61.309244056520278 -6.9265316758411117 89.094767300846854 0 0 1 I I #
straight-curve $-1 -31.232102784422587 -6.9265316758411117 85.648187760750858 0.75470957328743171 0 -0.6560590369687036 I I #
edge $-1 $745 -18.9182271167344 $462 -6.9265316758411117 $626 $752 forward 7 unknown #
point $-1 61.309244056520278 -6.9265316758411117 9.344432227968138 #
point $-1 56.545325058739742 -6.9265316758411117 9.3444322279681415 #
edge $-1 $753 1 $753 0 $465 $-1 forward 7 unknown #
vertex $-1 $466 $754 #
ellipse-curve $-1 56.998911071269774 -16.519888028555741 5.0554864926901342 0.6560590369687036 0 0.75470957328743171 0.75470957328743171 0 -0.6560590369687036 1 I I #
point $-1 59.681994130917474 -16.519888028555741 6.6177673443908969 #
edge $-1 $755 1 $755 0 $469 $-1 forward 7 unknown #
vertex $-1 $470 $756 #
ellipse-curve $-1 56.998911071269774 -12.922379396287752 5.0554864926901342 0.6560590369687036 0 0.75470957328743171 0.75470957328743171 0 -0.6560590369687036 1 I I #
point $-1 59.681994130917474 -12.922379396287752 6.6177673443908969 #
edge $-1 $757 1 $757 0 $473 $-1 forward 7 unknown #
vertex $-1 $474 $758 #
ellipse-curve $-1 56.998911071269774 -9.3248707640197637 5.0554864926901342 0.6560590369687036 0 0.75470957328743171 0.75470957328743171 0 -0.6560590369687036 1 I I #
point $-1 59.681994130917474 -9.3248707640197637 6.6177673443908969 #
plane-surface $-1 0 0 9.344432227968138 0 0 1 1 0 0 forward_v I I I I #
coedge $-1 $657 $656 $649 $759 forward $478 $-1 #
coedge $-1 $649 $480 $482 $653 reversed $332 $-1 #
coedge $-1 $480 $648 $647 $759 reversed $332 $-1 #
coedge $-1 $488 $483 $480 $651 forward $489 $-1 #
edge $-1 $654 31.938892837951126 $760 36.702811835731666 $650 $761 forward 7 unknown #
coedge $-1 $482 $481 $657 $762 reversed $210 $-1 #
edge $-1 $763 -122.61848811304057 $654 -116.30623348371418 $648 $764 forward 7 unknown #
vertex $-1 $484 $765 #
straight-curve $-1 56.545325058739742 10.186768371915196 9.3444322279681487 0 -1 0 I I #
coedge $-1 $647 $485 $488 $661 reversed $478 $-1 #
coedge $-1 $485 $647 $652 $762 forward $478 $-1 #
vertex $-1 $486 $766 #
straight-curve $-1 61.309244056520278 26.369384464277037 89.094767300846854 0 0 1 I I #
straight-curve $-1 -31.232102784422587 26.369384464277037 85.648187760750858 0.75470957328743171 0 -0.6560590369687036 I I #
edge $-1 $760 14.377689023383748 $490 26.369384464277037 $656 $767 forward 7 unknown #
point $-1 61.309244056520278 26.369384464277037 9.344432227968138 #
point $-1 56.545325058739742 26.369384464277037 9.3444322279681415 #
edge $-1 $768 1 $768 0 $493 $-1 forward 7 unknown #
vertex $-1 $494 $769 #
ellipse-curve $-1 56.998911071269774 16.776028111562411 5.0554864926901342 0.6560590369687036 0 0.75470957328743171 0.75470957328743171 0 -0.6560590369687036 1 I I #
point $-1 59.681994130917474 16.776028111562411 6.6177673443908969 #
edge $-1 $770 1 $770 0 $497 $-1 forward 7 unknown #
vertex $-1 $498 $771 #
ellipse-curve $-1 56.998911071269774 20.3735367438304 5.0554864926901342 0.6560590369687036 0 0.75470957328743171 0.75470957328743171 0 -0.6560590369687036 1 I I #
point $-1 59.681994130917474 20.3735367438304 6.6177673443908969 #
edge $-1 $772 1 $772 0 $501 $-1 forward 7 unknown #
vertex $-1 $502 $773 #
ellipse-curve $-1 56.998911071269774 23.971045376098388 5.0554864926901342 0.6560590369687036 0 0.75470957328743171 0.75470957328743171 0 -0.6560590369687036 1 I I #
point $-1 59.681994130917474 23.971045376098388 6.6177673443908969 #
plane-surface $-1 61.309244056520278 0 0 -1 0 0 0 0 1 forward_v I I I I #
coedge $-1 $510 $508 $512 $681 reversed $361 $-1 #
edge $-1 $523 -9.344432227968138 $683 9.344432227968138 $522 $774 forward 7 unknown #
vertex $-1 $681 $775 #
straight-curve $-1 -61.309244056520278 -33.923001419657872 0 0 0 -1 I I #
edge $-1 $679 -33.923001419657872 $683 33.923001419657872 $677 $776 forward 7 unknown #
straight-curve $-1 0 -33.923001419657872 -9.344432227968138 -1 0 0 I I #
vertex $-1 $515 $777 #
straight-curve $-1 0 33.923001419657872 -9.344432227968138 1 0 0 I I #
point $-1 61.309244056520278 33.923001419657872 -9.344432227968138 #
point $-1 61.309244056520278 -33.923001419657872 -9.344432227968138 #
straight-curve $-1 -61.309244056520278 0 9.344432227968138 0 -1 0 I I #
point $-1 -61.309244056520278 33.923001419657872 9.344432227968138 #
point $-1 -61.309244056520278 -33.923001419657872 9.344432227968138 #
straight-curve $-1 61.309244056520278 -33.923001419657872 0 0 0 -1 I I #
straight-curve $-1 61.309244056520278 33.923001419657872 0 0 0 -1 I I #
loop $-1 $-1 $538 $532 #
plane-surface $-1 0 -33.923001419657872 0 0 1 0 0 0 1 forward_v I I I I #
coedge $-1 $547 $546 $536 $696 forward $533 $-1 #
edge $-1 $700 -18.824290046714594 $542 -11.373132699171956 $535 $778 forward 7 unknown #
edge $-1 $702 11.373132699171956 $699 18.824290046714594 $694 $779 forward 7 unknown #
coedge $-1 $544 $538 $550 $708 reversed $692 $-1 #
coedge $-1 $538 $544 $547 $706 reversed $692 $-1 #
vertex $-1 $706 $780 #
vertex $-1 $539 $781 #
straight-curve $-1 -50.179685976826008 -33.923001419657872 0 0 0 1 I I #
vertex $-1 $553 $782 #
straight-curve $-1 -50.179685976826008 -26.471844072115232 0 0 0 -1 I I #
point $-1 -50.179685976826008 -26.471844072115232 9.344432227968138 #
straight-curve $-1 -53.179685976826008 -33.923001419657872 0 0 0 -1 I I #
edge $-1 $699 50.179685976826008 $548 53.179685976826008 $698 $783 forward 7 unknown #
point $-1 -53.179685976826008 -33.923001419657872 -9.344432227968138 #
edge $-1 $551 -53.179685976826008 $700 -50.179685976826008 $697 $784 forward 7 unknown #
point $-1 -53.179685976826008 -33.923001419657872 9.344432227968138 #
straight-curve $-1 -25.839842988413004 -26.471844072115232 -9.344432227968138 1 0 0 I I #
coedge $-1 $712 $565 $567 $719 forward $556 $-1 #
coedge $-1 $561 $711 $558 $713 reversed $556 $-1 #
edge $-1 $563 14.850070976575463 $714 26.471844072115228 $712 $785 forward 7 unknown #
vertex $-1 $560 $786 #
straight-curve $-1 -69.237779951988216 -26.471844072115228 9.3444322279681415 1 0 0 I I #
straight-curve $-1 -61.309244056520278 -14.850070976575463 48.035218864203607 0 0 -1 I I #
point $-1 -61.309244056520278 -14.850070976575463 9.344432227968138 #
straight-curve $-1 -61.309244056520278 -10.330478762172673 0.77797566734749946 0 -1 0 I I #
edge $-1 $568 -47.257243196856109 $714 -38.690786636235472 $711 $787 forward 7 unknown #
point $-1 -61.309244056520278 -26.471844072115228 0.77797566734749646 #
point $-1 -61.309244056520278 -14.850070976575463 0.77797566734749646 #
vertex $-1 $574 $788 #
point $-1 -54.701162825104618 -24.147489453007275 4.2272098377897418 #
vertex $-1 $578 $789 #
point $-1 -54.701162825104618 -20.660957524345346 4.2272098377897418 #
vertex $-1 $582 $790 #
point $-1 -54.701162825104618 -17.174425595683417 4.2272098377897418 #
edge $-1 $729 38.690786636235472 $732 47.257243196856109 $587 $791 forward 7 unknown #
vertex $-1 $601 $792 #
straight-curve $-1 -69.237779951988216 15.347351769311089 9.3444322279681415 -1 0 0 I I #
edge $-1 $732 -10.579119158540486 $598 1.0426539369992804 $597 $793 forward 7 unknown #
vertex $-1 $731 $794 #
straight-curve $-1 -61.309244056520285 15.347351769311089 0.77797566734749068 0.77714595512881146 0 0.62932039886446345 I I #
point $-1 -50.730551425730788 15.347351769311089 9.344432227968138 #
point $-1 -61.309244056520278 3.7255786737713228 0.77797566734749646 #
straight-curve $-1 -61.309244056520278 0 9.344432227968138 0 -1 0 I I #
vertex $-1 $604 $795 #
point $-1 -54.701162825104618 6.0499332928792739 4.2272098377897418 #
vertex $-1 $608 $796 #
point $-1 -54.701162825104618 9.5364652215412065 4.2272098377897418 #
vertex $-1 $612 $797 #
point $-1 -54.701162825104618 13.022997150203132 4.2272098377897418 #
coedge $-1 $627 $626 $619 $744 forward $616 $-1 #
edge $-1 $745 79.750335072878713 $748 83.891546766095829 $743 $798 forward 7 unknown #
vertex $-1 $631 $799 #
straight-curve $-1 24.606432220788616 -18.9182271167344 9.3444322279681415 1 0 0 I I #
edge $-1 $748 -12.457037418590522 $628 -0.46534197769723384 $627 $800 forward 7 unknown #
vertex $-1 $747 $801 #
straight-curve $-1 -31.232102784422587 -18.9182271167344 85.648187760750858 -0.75470957328743171 0 0.6560590369687036 I I #
point $-1 56.545325058739742 -18.9182271167344 9.3444322279681415 #
point $-1 61.309244056520278 -6.9265316758411117 5.2032205347510256 #
straight-curve $-1 61.309244056520278 0 9.344432227968138 0 1 0 I I #
vertex $-1 $634 $802 #
point $-1 57.753620644557209 -16.519888028555741 4.3994274557214306 #
vertex $-1 $638 $803 #
point $-1 57.753620644557209 -12.922379396287752 4.3994274557214306 #
vertex $-1 $642 $804 #
point $-1 57.753620644557209 -9.3248707640197637 4.3994274557214306 #
edge $-1 $760 79.750335072878713 $763 83.891546766095829 $647 $805 forward 7 unknown #
vertex $-1 $661 $806 #
straight-curve $-1 24.606432220788616 14.377689023383748 9.3444322279681415 1 0 0 I I #
edge $-1 $763 4.1909206514685522 $658 16.18261609236184 $657 $807 forward 7 unknown #
vertex $-1 $762 $808 #
straight-curve $-1 -31.232102784422587 14.377689023383748 85.648187760750858 -0.75470957328743171 0 0.6560590369687036 I I #
point $-1 56.545325058739742 14.377689023383748 9.3444322279681415 #
point $-1 61.309244056520278 26.369384464277037 5.2032205347510256 #
straight-curve $-1 61.309244056520278 0 9.344432227968138 0 1 0 I I #
vertex $-1 $664 $809 #
point $-1 57.753620644557209 16.776028111562411 4.3994274557214306 #
vertex $-1 $668 $810 #
point $-1 57.753620644557209 20.3735367438304 4.3994274557214306 #
vertex $-1 $672 $811 #
point $-1 57.753620644557209 23.971045376098388 4.3994274557214306 #
straight-curve $-1 -61.309244056520278 33.923001419657872 0 0 0 -1 I I #
point $-1 -61.309244056520278 -33.923001419657872 -9.344432227968138 #
straight-curve $-1 -61.309244056520278 0 -9.344432227968138 0 1 0 I I #
point $-1 -61.309244056520278 33.923001419657872 -9.344432227968138 #
straight-curve $-1 -50.179685976826008 -15.098711372943276 9.344432227968138 0 1 0 I I #
straight-curve $-1 -50.179685976826008 -15.098711372943276 -9.344432227968138 0 -1 0 I I #
point $-1 -50.179685976826008 -33.923001419657872 -9.344432227968138 #
point $-1 -50.179685976826008 -33.923001419657872 9.344432227968138 #
point $-1 -50.179685976826008 -26.471844072115232 -9.344432227968138 #
straight-curve $-1 0 -33.923001419657872 -9.344432227968138 -1 0 0 I I #
straight-curve $-1 0 -33.923001419657872 9.344432227968138 1 0 0 I I #
straight-curve $-1 -61.309244056520278 0 9.344432227968138 0 -1 0 I I #
point $-1 -61.309244056520278 -26.471844072115228 9.344432227968138 #
straight-curve $-1 -61.309244056520278 -26.471844072115228 48.035218864203607 0 0 1 I I #
point $-1 -54.775075603236793 -24.147489453007275 3.5239766607931045 #
point $-1 -54.775075603236793 -20.660957524345346 3.5239766607931045 #
point $-1 -54.775075603236793 -17.174425595683417 3.5239766607931045 #
straight-curve $-1 -61.309244056520278 15.347351769311089 48.035218864203607 0 0 -1 I I #
point $-1 -61.309244056520278 15.347351769311089 9.344432227968138 #
straight-curve $-1 -61.309244056520278 4.7682326107706032 0.77797566734749946 0 -1 0 I I #
point $-1 -61.309244056520278 15.347351769311089 0.77797566734749646 #
point $-1 -54.775075603236793 6.0499332928792739 3.5239766607931045 #
point $-1 -54.775075603236793 9.5364652215412065 3.5239766607931045 #
point $-1 -54.775075603236793 13.022997150203132 3.5239766607931045 #
straight-curve $-1 61.309244056520278 -18.9182271167344 89.094767300846854 0 0 -1 I I #
point $-1 61.309244056520278 -18.9182271167344 9.344432227968138 #
straight-curve $-1 61.309244056520285 -6.4611896981438779 5.2032205347510256 0 1 0 I I #
point $-1 61.309244056520278 -18.9182271167344 5.2032205347510256 #
point $-1 56.342852034301075 -16.519888028555741 4.3007769194027023 #
point $-1 56.342852034301075 -12.922379396287752 4.3007769194027023 #
point $-1 56.342852034301075 -9.3248707640197637 4.3007769194027023 #
straight-curve $-1 61.309244056520278 14.377689023383748 89.094767300846854 0 0 -1 I I #
point $-1 61.309244056520278 14.377689023383748 9.344432227968138 #
straight-curve $-1 61.309244056520285 10.186768371915196 5.2032205347510256 0 1 0 I I #
point $-1 61.309244056520278 14.377689023383748 5.2032205347510256 #
point $-1 56.342852034301075 16.776028111562411 4.3007769194027023 #
point $-1 56.342852034301075 20.3735367438304 4.3007769194027023 #
point $-1 56.342852034301075 23.971045376098388 4.3007769194027023 #
End-of-ACIS-data 