500 0 6 0           
7 Unknown 11 ACIS 5.0 NT 24 Fri Mar 26 01:10:51 1999 
-1 9.9999999999999995e-007 1e-010 
body $-1 $6 $-1 $7 #
body $-1 $8 $-1 $9 #
body $-1 $10 $-1 $11 #
body $-1 $12 $-1 $13 #
body $-1 $14 $-1 $15 #
body $-1 $16 $-1 $17 #
lump $-1 $-1 $18 $0 #
transform $-1 1 0 0 0 1 0 0 0 1 72.417981505783246 45.327375350094918 15.902968611705717 1 rotate no_reflect no_shear #
lump $-1 $-1 $19 $1 #
transform $-1 1 0 0 0 1 0 0 0 1 72.417981505783246 45.327375350094918 15.902968611705717 1 rotate no_reflect no_shear #
lump $-1 $-1 $20 $2 #
transform $-1 1 0 0 0 1 0 0 0 1 72.417981505783246 45.327375350094918 15.902968611705717 1 rotate no_reflect no_shear #
lump $-1 $-1 $21 $3 #
transform $-1 1 0 0 0 1 0 0 0 1 72.417981505783246 45.327375350094918 15.902968611705717 1 rotate no_reflect no_shear #
lump $-1 $-1 $22 $4 #
transform $-1 1 0 0 0 1 0 0 0 1 72.417981505783246 45.327375350094918 15.902968611705717 1 rotate no_reflect no_shear #
lump $-1 $-1 $23 $5 #
transform $-1 1 0 0 0 1 0 0 0 1 72.417981505783246 45.327375350094918 15.902968611705717 1 rotate no_reflect no_shear #
shell $-1 $-1 $-1 $24 $-1 $6 #
shell $-1 $-1 $-1 $25 $-1 $8 #
shell $-1 $-1 $-1 $26 $-1 $10 #
shell $-1 $-1 $-1 $27 $-1 $12 #
shell $-1 $-1 $-1 $28 $-1 $14 #
shell $-1 $-1 $-1 $29 $-1 $16 #
face $-1 $30 $31 $18 $-1 $32 forward single #
face $-1 $33 $34 $19 $-1 $35 reversed single #
face $-1 $36 $37 $20 $-1 $38 reversed single #
face $-1 $39 $40 $21 $-1 $41 forward single #
face $-1 $42 $43 $22 $-1 $44 reversed single #
face $-1 $45 $46 $23 $-1 $47 forward single #
face $-1 $48 $49 $18 $-1 $50 reversed single #
loop $-1 $-1 $51 $24 #
plane-surface $-1 0 0 15.902968611705717 0 0 1 1 0 0 forward_v I I I I #
face $-1 $52 $53 $19 $-1 $54 reversed single #
loop $-1 $-1 $55 $25 #
plane-surface $-1 -63.636860871473836 -38.023623373371301 0 0 1 0 0 0 1 forward_v I I I I #
face $-1 $56 $57 $20 $-1 $58 reversed single #
loop $-1 $-1 $59 $26 #
plane-surface $-1 -22.950896561421828 66.023628542589307 174.00886980113353 1 0 0 0 -0.62932039886446345 -0.77714595512881146 forward_v I I I I #
face $-1 $60 $61 $21 $-1 $62 forward single #
loop $-1 $63 $64 $27 #
cone-surface $-1 -12.429946630117918 34.387994138577234 5.4135030913439843 0 -0.62932039886446345 -0.77714595512881146 4 0 0 1 I I 0 1 4 forward I I I I #
face $-1 $65 $66 $22 $-1 $67 reversed single #
loop $-1 $-1 $68 $28 #
plane-surface $-1 -1.9089966988140077 -136.47560136245264 116.95798593153154 -1 0 0 0 -0.62932039886446345 0.77714595512881146 forward_v I I I I #
face $-1 $69 $70 $23 $-1 $71 forward single #
loop $-1 $72 $73 $29 #
cone-surface $-1 -12.429946630117918 -34.38799413857722 5.4135030913439808 0 0.62932039886446345 -0.77714595512881146 4 0 0 1 I I 0 1 4 forward I I I I #
face $-1 $74 $75 $18 $-1 $76 reversed single #
loop $-1 $-1 $77 $30 #
plane-surface $-1 0 0 -15.902968611705717 0 0 1 1 0 0 forward_v I I I I #
coedge $-1 $78 $79 $80 $81 forward $31 $-1 #
face $-1 $82 $83 $19 $-1 $84 reversed single #
loop $-1 $-1 $85 $33 #
plane-surface $-1 -63.636860871473836 -28.712473350007123 0 0 -1 0 0 0 -1 forward_v I I I I #
coedge $-1 $86 $87 $88 $89 reversed $34 $-1 #
face $-1 $90 $91 $20 $-1 $92 reversed single #
loop $-1 $-1 $93 $36 #
plane-surface $-1 -12.429946630117918 -25.124597469768389 61.450186989508481 0 0.62932039886446345 0.77714595512881146 1 0 0 forward_v I I I I #
coedge $-1 $94 $95 $96 $97 reversed $37 $-1 #
face $-1 $-1 $98 $21 $-1 $99 forward single #
loop $-1 $100 $101 $39 #
cone-surface $-1 -12.429946630117918 29.292893886068434 -0.87842159337576931 0 -0.62932039886446345 -0.77714595512881146 2 0 0 1 I I -0.70710678118654735 0.70710678118654768 2 forward I I I I #
loop $-1 $-1 $102 $27 #
coedge $-1 $64 $64 $103 $104 reversed $40 $-1 #
face $-1 $105 $106 $22 $-1 $107 reversed single #
loop $-1 $-1 $108 $42 #
plane-surface $-1 -12.429946630117918 -45.32737535009494 4.3993031199064916 0 -0.62932039886446345 0.77714595512881146 1 0 0 forward_v I I I I #
coedge $-1 $109 $110 $111 $112 reversed $43 $-1 #
face $-1 $-1 $113 $23 $-1 $114 forward single #
loop $-1 $115 $116 $45 #
cone-surface $-1 -12.429946630117918 -29.29289388606842 -0.87842159337577286 0 0.62932039886446345 -0.77714595512881146 2 0 0 1 I I -0.70710678118654735 0.70710678118654768 2 forward I I I I #
loop $-1 $-1 $117 $29 #
coedge $-1 $73 $73 $118 $119 reversed $46 $-1 #
face $-1 $120 $121 $18 $-1 $122 reversed single #
loop $-1 $-1 $123 $48 #
plane-surface $-1 0 -45.327375350094918 0 0 1 0 0 0 1 forward_v I I I I #
coedge $-1 $124 $125 $126 $127 forward $49 $-1 #
coedge $-1 $128 $51 $129 $130 forward $31 $-1 #
coedge $-1 $51 $128 $131 $132 forward $31 $-1 #
coedge $-1 $133 $134 $51 $81 reversed $135 $-1 #
edge $-1 $136 -45.327375350094918 $137 45.327375350094918 $80 $138 forward 7 unknown #
face $-1 $139 $140 $19 $-1 $141 reversed single #
loop $-1 $-1 $142 $52 #
plane-surface $-1 -54.855740237164426 -33.368048361689212 0 -1 0 0 0 0 1 forward_v I I I I #
coedge $-1 $143 $144 $145 $146 forward $53 $-1 #
coedge $-1 $147 $55 $148 $149 reversed $34 $-1 #
coedge $-1 $55 $147 $150 $151 reversed $34 $-1 #
coedge $-1 $152 $153 $55 $89 forward $154 $-1 #
edge $-1 $155 -15.902968611705717 $156 15.902968611705717 $88 $157 forward 7 unknown #
face $-1 $158 $159 $20 $-1 $160 reversed single #
loop $-1 $-1 $161 $56 #
plane-surface $-1 -1.9089966988140077 66.023628542589307 174.00886980113353 -1 0 0 0 0.62932039886446345 0.77714595512881146 forward_v I I I I #
coedge $-1 $162 $163 $164 $165 reversed $57 $-1 #
coedge $-1 $95 $59 $166 $167 reversed $37 $-1 #
coedge $-1 $59 $94 $162 $168 reversed $37 $-1 #
coedge $-1 $164 $169 $59 $97 forward $170 $-1 #
edge $-1 $171 -12.315561078800265 $172 1.8902824346753633 $96 $173 forward 7 unknown #
loop $-1 $-1 $103 $60 #
plane-surface $-1 -12.429946630117918 -25.124597469768389 61.450186989508481 0 0.62932039886446345 0.77714595512881146 1 0 0 forward_v I I I I #
loop $-1 $-1 $174 $39 #
coedge $-1 $101 $101 $102 $175 reversed $61 $-1 #
coedge $-1 $102 $102 $101 $175 forward $63 $-1 #
coedge $-1 $103 $103 $64 $104 forward $98 $-1 #
edge $-1 $176 -2.6259093790832103e-016 $176 6.2831853071796004 $103 $177 forward 7 unknown #
face $-1 $178 $179 $22 $-1 $180 forward single #
loop $-1 $-1 $181 $65 #
plane-surface $-1 -22.950896561421828 -136.47560136245264 116.95798593153154 1 0 0 0 0.62932039886446345 -0.77714595512881146 forward_v I I I I #
coedge $-1 $182 $183 $184 $185 reversed $66 $-1 #
coedge $-1 $110 $68 $186 $187 reversed $43 $-1 #
coedge $-1 $68 $109 $182 $188 reversed $43 $-1 #
coedge $-1 $184 $189 $68 $112 forward $179 $-1 #
edge $-1 $190 22.9104253311314 $191 37.116268844607049 $111 $192 forward 7 unknown #
loop $-1 $-1 $118 $69 #
plane-surface $-1 -12.429946630117918 -45.32737535009494 4.3993031199064916 0 -0.62932039886446345 0.77714595512881146 1 0 0 forward_v I I I I #
loop $-1 $-1 $193 $45 #
coedge $-1 $116 $116 $117 $194 reversed $70 $-1 #
coedge $-1 $117 $117 $116 $194 forward $72 $-1 #
coedge $-1 $118 $118 $73 $119 forward $113 $-1 #
edge $-1 $195 8.2153973525681266e-016 $195 6.2831853071796013 $118 $196 forward 7 unknown #
face $-1 $197 $198 $18 $-1 $199 reversed single #
loop $-1 $-1 $200 $74 #
plane-surface $-1 -72.417981505783246 0 0 1 0 0 0 0 -1 forward_v I I I I #
coedge $-1 $201 $131 $202 $203 forward $75 $-1 #
coedge $-1 $204 $77 $201 $205 forward $49 $-1 #
coedge $-1 $77 $204 $206 $207 forward $49 $-1 #
coedge $-1 $134 $133 $77 $127 reversed $135 $-1 #
edge $-1 $208 -45.327375350094918 $209 45.327375350094918 $126 $210 forward 7 unknown #
coedge $-1 $79 $78 $211 $212 forward $31 $-1 #
coedge $-1 $213 $214 $78 $130 reversed $198 $-1 #
edge $-1 $137 -72.417981505783246 $215 72.417981505783246 $129 $216 forward 7 unknown #
coedge $-1 $123 $217 $79 $132 reversed $75 $-1 #
edge $-1 $218 -72.417981505783246 $136 72.417981505783246 $131 $219 forward 7 unknown #
coedge $-1 $126 $80 $217 $220 forward $135 $-1 #
coedge $-1 $80 $126 $213 $221 reversed $135 $-1 #
loop $-1 $-1 $133 $197 #
vertex $-1 $81 $222 #
vertex $-1 $81 $223 #
straight-curve $-1 72.417981505783246 0 15.902968611705717 0 1 0 I I #
face $-1 $224 $225 $19 $-1 $226 forward single #
loop $-1 $-1 $227 $82 #
plane-surface $-1 0 0 -15.902968611705717 0 0 1 1 0 0 forward_v I I I I #
coedge $-1 $228 $229 $147 $230 forward $83 $-1 #
coedge $-1 $231 $85 $227 $232 reversed $53 $-1 #
coedge $-1 $85 $231 $233 $234 reversed $53 $-1 #
coedge $-1 $229 $228 $85 $146 reversed $83 $-1 #
edge $-1 $235 -15.902968611705717 $236 15.902968611705717 $145 $237 forward 7 unknown #
coedge $-1 $87 $86 $142 $230 reversed $34 $-1 #
coedge $-1 $238 $239 $86 $149 forward $140 $-1 #
edge $-1 $240 23.037309801427508 $155 40.599551070046331 $148 $241 forward 7 unknown #
coedge $-1 $242 $243 $87 $151 forward $225 $-1 #
edge $-1 $156 -40.599551070046331 $244 -23.037309801427508 $150 $245 forward 7 unknown #
coedge $-1 $246 $88 $243 $247 reversed $154 $-1 #
coedge $-1 $88 $246 $238 $248 reversed $154 $-1 #
loop $-1 $-1 $246 $224 #
vertex $-1 $248 $249 #
vertex $-1 $89 $250 #
straight-curve $-1 -72.417981505783246 -38.023623373371301 0 0 0 1 I I #
face $-1 $-1 $170 $20 $-1 $251 forward single #
loop $-1 $-1 $252 $90 #
plane-surface $-1 0 45.327375350094918 0 0 -1 0 0 0 -1 forward_v I I I I #
coedge $-1 $253 $254 $255 $256 reversed $91 $-1 #
coedge $-1 $257 $93 $95 $168 forward $57 $-1 #
coedge $-1 $93 $257 $253 $258 forward $57 $-1 #
coedge $-1 $255 $96 $93 $165 forward $170 $-1 #
edge $-1 $172 -16.735923246362869 $259 4.3059766162449513 $164 $260 forward 7 unknown #
coedge $-1 $261 $262 $94 $167 forward $159 $-1 #
edge $-1 $263 -82.60513178066023 $171 -71.101466288861047 $166 $264 forward 7 unknown #
edge $-1 $172 72.37524551879693 $263 90.654750700189808 $95 $265 forward 7 unknown #
coedge $-1 $96 $255 $261 $266 forward $170 $-1 #
loop $-1 $-1 $255 $158 #
vertex $-1 $167 $267 #
vertex $-1 $97 $268 #
straight-curve $-1 -22.950896561421828 33.011814271294654 15.902968611705717 0 -1 0 I I #
coedge $-1 $174 $174 $-1 $269 reversed $100 $-1 #
edge $-1 $270 0 $270 6.2831853071796004 $101 $271 forward 7 unknown #
vertex $-1 $104 $272 #
ellipse-curve $-1 -12.429946630117918 38.224453593357111 10.151135865806122 0 0.62932039886446345 0.77714595512881146 4 0 0 1 I I #
face $-1 $-1 $273 $22 $-1 $274 reversed single #
loop $-1 $-1 $111 $105 #
plane-surface $-1 0 0 15.902968611705717 0 0 1 1 0 0 forward_v I I I I #
coedge $-1 $275 $276 $277 $278 reversed $106 $-1 #
coedge $-1 $279 $108 $110 $188 forward $66 $-1 #
coedge $-1 $108 $279 $275 $280 forward $66 $-1 #
coedge $-1 $277 $111 $108 $185 forward $179 $-1 #
edge $-1 $191 -4.3059766162449513 $281 16.735923246362869 $184 $282 forward 7 unknown #
coedge $-1 $283 $284 $109 $187 forward $273 $-1 #
edge $-1 $285 -54.079689845859264 $190 -42.576024354060053 $186 $286 forward 7 unknown #
edge $-1 $191 -18.279505181392931 $285 -2.7185889540884995e-014 $110 $287 forward 7 unknown #
coedge $-1 $111 $277 $283 $288 forward $179 $-1 #
vertex $-1 $187 $289 #
vertex $-1 $112 $290 #
straight-curve $-1 -1.9089966988140077 -68.237800681226318 15.902968611705717 0 1 0 I I #
coedge $-1 $193 $193 $-1 $291 reversed $115 $-1 #
edge $-1 $292 0 $292 6.2831853071796004 $116 $293 forward 7 unknown #
vertex $-1 $119 $294 #
ellipse-curve $-1 -12.429946630117918 -38.224453593357097 10.151135865806115 0 -0.62932039886446345 0.77714595512881146 4 0 0 1 I I #
face $-1 $-1 $135 $18 $-1 $295 reversed single #
loop $-1 $-1 $213 $120 #
plane-surface $-1 0 45.327375350094918 0 0 -1 0 0 0 -1 forward_v I I I I #
coedge $-1 $296 $211 $214 $297 forward $121 $-1 #
coedge $-1 $217 $123 $124 $205 reversed $75 $-1 #
coedge $-1 $211 $296 $123 $203 reversed $121 $-1 #
edge $-1 $218 -15.902968611705717 $298 15.902968611705717 $202 $299 forward 7 unknown #
coedge $-1 $125 $124 $296 $300 forward $49 $-1 #
edge $-1 $209 -72.417981505783246 $298 72.417981505783246 $201 $301 forward 7 unknown #
coedge $-1 $214 $213 $125 $207 reversed $198 $-1 #
edge $-1 $302 -72.417981505783246 $208 72.417981505783246 $206 $303 forward 7 unknown #
vertex $-1 $127 $304 #
vertex $-1 $220 $305 #
straight-curve $-1 72.417981505783246 0 -15.902968611705717 0 -1 0 I I #
coedge $-1 $200 $202 $128 $212 reversed $121 $-1 #
edge $-1 $215 -45.327375350094918 $218 45.327375350094918 $211 $306 forward 7 unknown #
coedge $-1 $206 $129 $134 $221 forward $198 $-1 #
coedge $-1 $129 $206 $200 $297 reversed $198 $-1 #
vertex $-1 $130 $307 #
straight-curve $-1 0 45.327375350094918 15.902968611705717 -1 0 0 I I #
coedge $-1 $131 $201 $133 $220 reversed $75 $-1 #
vertex $-1 $212 $308 #
straight-curve $-1 0 -45.327375350094918 15.902968611705717 1 0 0 I I #
edge $-1 $136 -15.902968611705717 $209 15.902968611705717 $133 $309 forward 7 unknown #
edge $-1 $137 -15.902968611705717 $208 15.902968611705717 $134 $310 forward 7 unknown #
point $-1 72.417981505783246 -45.327375350094918 15.902968611705717 #
point $-1 72.417981505783246 45.327375350094918 15.902968611705717 #
face $-1 $-1 $154 $19 $-1 $311 reversed single #
loop $-1 $-1 $233 $139 #
plane-surface $-1 0 0 15.902968611705717 0 0 1 1 0 0 forward_v I I I I #
coedge $-1 $239 $238 $143 $232 forward $140 $-1 #
coedge $-1 $145 $142 $239 $312 reversed $83 $-1 #
coedge $-1 $142 $145 $242 $313 reversed $83 $-1 #
edge $-1 $244 -15.902968611705717 $240 15.902968611705717 $142 $314 forward 7 unknown #
coedge $-1 $144 $143 $246 $315 reversed $53 $-1 #
edge $-1 $316 -40.599551070046331 $236 -23.037309801427508 $227 $317 forward 7 unknown #
coedge $-1 $243 $242 $144 $234 forward $225 $-1 #
edge $-1 $235 23.037309801427508 $318 40.599551070046331 $233 $319 forward 7 unknown #
vertex $-1 $234 $320 #
vertex $-1 $232 $321 #
straight-curve $-1 -54.855740237164426 -28.712473350007123 0 0 0 -1 I I #
coedge $-1 $227 $148 $153 $248 forward $140 $-1 #
coedge $-1 $148 $227 $228 $312 forward $140 $-1 #
vertex $-1 $149 $322 #
straight-curve $-1 -31.818430435736918 -38.023623373371301 -15.902968611705717 -1 0 0 I I #
coedge $-1 $233 $150 $229 $313 forward $225 $-1 #
coedge $-1 $150 $233 $152 $247 forward $225 $-1 #
vertex $-1 $151 $323 #
straight-curve $-1 -31.818430435736918 -38.023623373371301 15.902968611705717 1 0 0 I I #
coedge $-1 $153 $152 $231 $315 forward $154 $-1 #
edge $-1 $318 28.712473350007123 $156 38.023623373371301 $152 $324 forward 7 unknown #
edge $-1 $155 -38.023623373371301 $316 -28.712473350007123 $153 $325 forward 7 unknown #
point $-1 -72.417981505783246 -38.023623373371301 -15.902968611705717 #
point $-1 -72.417981505783246 -38.023623373371301 15.902968611705717 #
plane-surface $-1 0 0 15.902968611705717 0 0 1 1 0 0 forward_v I I I I #
coedge $-1 $262 $261 $254 $326 forward $159 $-1 #
coedge $-1 $254 $161 $163 $258 reversed $91 $-1 #
coedge $-1 $161 $253 $252 $326 reversed $91 $-1 #
coedge $-1 $169 $164 $161 $256 forward $170 $-1 #
edge $-1 $259 -1.8902824346753633 $327 12.315561078800265 $255 $328 forward 7 unknown #
coedge $-1 $163 $162 $262 $329 reversed $57 $-1 #
edge $-1 $330 -90.654750700189808 $259 -72.37524551879693 $253 $331 forward 7 unknown #
vertex $-1 $165 $332 #
straight-curve $-1 -6.214973315058959 31.121531836619297 15.902968611705713 1 0 0 I I #
coedge $-1 $252 $166 $169 $266 reversed $159 $-1 #
coedge $-1 $166 $252 $257 $329 forward $159 $-1 #
vertex $-1 $167 $333 #
straight-curve $-1 -22.950896561421828 45.327375350094918 87.004434900566764 0 0 1 I I #
straight-curve $-1 -22.950896561421828 -25.124597469768389 61.450186989508481 0 0.77714595512881146 -0.62932039886446345 I I #
edge $-1 $327 1.9089966988140077 $171 22.950896561421828 $261 $334 forward 7 unknown #
point $-1 -22.950896561421828 45.327375350094918 15.902968611705717 #
point $-1 -22.950896561421828 31.12153183661929 15.902968611705717 #
edge $-1 $335 1 $335 0 $174 $-1 forward 7 unknown #
vertex $-1 $175 $336 #
ellipse-curve $-1 -12.429946630117918 30.55153468379736 0.67587031688185428 0 0.62932039886446345 0.77714595512881146 4 0 0 1 I I #
point $-1 -8.429946630117918 38.224453593357104 10.151135865806115 #
loop $-1 $-1 $186 $178 #
plane-surface $-1 0 -45.327375350094918 0 0 1 0 0 0 1 forward_v I I I I #
coedge $-1 $276 $181 $183 $280 reversed $106 $-1 #
coedge $-1 $181 $275 $337 $338 reversed $106 $-1 #
coedge $-1 $189 $184 $181 $278 forward $179 $-1 #
edge $-1 $281 -37.116268844607049 $339 -22.9104253311314 $277 $340 forward 7 unknown #
coedge $-1 $183 $182 $284 $341 reversed $66 $-1 #
edge $-1 $342 2.7185889540884995e-014 $281 18.279505181392931 $275 $343 forward 7 unknown #
vertex $-1 $185 $344 #
straight-curve $-1 -6.214973315058959 -31.121531836619269 15.902968611705717 -1 0 0 I I #
coedge $-1 $337 $186 $189 $288 reversed $273 $-1 #
coedge $-1 $186 $337 $279 $341 forward $273 $-1 #
vertex $-1 $187 $345 #
straight-curve $-1 -1.9089966988140077 -45.327375350094918 58.478992965765769 0 0 1 I I #
straight-curve $-1 -1.9089966988140077 -45.32737535009494 4.3993031199064916 0 -0.77714595512881146 -0.62932039886446345 I I #
edge $-1 $339 -22.950896561421828 $190 -1.9089966988140077 $283 $346 forward 7 unknown #
point $-1 -1.9089966988140077 -45.327375350094918 15.902968611705717 #
point $-1 -1.9089966988140077 -31.121531836619273 15.902968611705717 #
edge $-1 $347 1 $347 0 $193 $-1 forward 7 unknown #
vertex $-1 $194 $348 #
ellipse-curve $-1 -12.429946630117918 -30.551534683797346 0.67587031688185073 0 -0.62932039886446345 0.77714595512881146 4 0 0 1 I I #
point $-1 -8.429946630117918 -38.22445359335709 10.151135865806111 #
plane-surface $-1 72.417981505783246 0 0 -1 0 0 0 0 1 forward_v I I I I #
coedge $-1 $202 $200 $204 $300 reversed $121 $-1 #
edge $-1 $215 -15.902968611705717 $302 15.902968611705717 $214 $349 forward 7 unknown #
vertex $-1 $300 $350 #
straight-curve $-1 -72.417981505783246 -45.327375350094918 0 0 0 -1 I I #
edge $-1 $298 -45.327375350094918 $302 45.327375350094918 $296 $351 forward 7 unknown #
straight-curve $-1 0 -45.327375350094918 -15.902968611705717 -1 0 0 I I #
vertex $-1 $207 $352 #
straight-curve $-1 0 45.327375350094918 -15.902968611705717 1 0 0 I I #
point $-1 72.417981505783246 45.327375350094918 -15.902968611705717 #
point $-1 72.417981505783246 -45.327375350094918 -15.902968611705717 #
straight-curve $-1 -72.417981505783246 0 15.902968611705717 0 -1 0 I I #
point $-1 -72.417981505783246 45.327375350094918 15.902968611705717 #
point $-1 -72.417981505783246 -45.327375350094918 15.902968611705717 #
straight-curve $-1 72.417981505783246 -45.327375350094918 0 0 0 -1 I I #
straight-curve $-1 72.417981505783246 45.327375350094918 0 0 0 -1 I I #
plane-surface $-1 -72.417981505783246 0 0 1 0 0 0 0 -1 forward_v I I I I #
edge $-1 $236 12.028449169162517 $240 21.339599192526695 $239 $353 forward 7 unknown #
edge $-1 $244 -21.339599192526695 $235 -12.028449169162517 $242 $354 forward 7 unknown #
straight-curve $-1 -54.855740237164426 -38.023623373371301 0 0 0 -1 I I #
edge $-1 $318 -15.902968611705717 $316 15.902968611705717 $246 $355 forward 7 unknown #
vertex $-1 $315 $356 #
straight-curve $-1 -31.818430435736918 -28.712473350007123 -15.902968611705717 1 0 0 I I #
vertex $-1 $247 $357 #
straight-curve $-1 -31.818430435736918 -28.712473350007123 15.902968611705717 -1 0 0 I I #
point $-1 -54.855740237164426 -28.712473350007123 15.902968611705717 #
point $-1 -54.855740237164426 -28.712473350007123 -15.902968611705717 #
point $-1 -54.855740237164426 -38.023623373371301 -15.902968611705717 #
point $-1 -54.855740237164426 -38.023623373371301 15.902968611705717 #
straight-curve $-1 -72.417981505783246 0 15.902968611705717 0 -1 0 I I #
straight-curve $-1 -72.417981505783246 0 -15.902968611705717 0 1 0 I I #
edge $-1 $327 71.101466288861047 $330 82.60513178066023 $252 $358 forward 7 unknown #
vertex $-1 $266 $359 #
straight-curve $-1 -1.9089966988140077 33.011814271294654 15.902968611705717 0 1 0 I I #
edge $-1 $330 -4.3059766162449513 $263 16.735923246362869 $262 $360 forward 7 unknown #
vertex $-1 $329 $361 #
straight-curve $-1 -1.9089966988140077 -25.124597469768389 61.450186989508481 0 -0.77714595512881146 0.62932039886446345 I I #
point $-1 -1.9089966988140077 31.12153183661929 15.902968611705717 #
point $-1 -22.950896561421828 45.327375350094911 4.3993031199065342 #
straight-curve $-1 0 45.327375350094918 15.902968611705717 -1 0 0 I I #
vertex $-1 $269 $362 #
point $-1 -8.429946630117918 30.55153468379736 0.67587031688185428 #
coedge $-1 $284 $283 $276 $338 forward $273 $-1 #
edge $-1 $339 42.576024354060053 $342 54.079689845859264 $337 $363 forward 7 unknown #
vertex $-1 $288 $364 #
straight-curve $-1 -22.950896561421828 -68.237800681226318 15.902968611705717 0 -1 0 I I #
edge $-1 $342 -16.735923246362869 $285 4.3059766162449513 $284 $365 forward 7 unknown #
vertex $-1 $341 $366 #
straight-curve $-1 -22.950896561421828 -45.32737535009494 4.3993031199064916 0 0.77714595512881146 0.62932039886446345 I I #
point $-1 -22.950896561421828 -31.121531836619273 15.902968611705717 #
point $-1 -1.9089966988140077 -45.327375350094918 4.3993031199065085 #
straight-curve $-1 0 -45.327375350094918 15.902968611705717 1 0 0 I I #
vertex $-1 $291 $367 #
point $-1 -8.429946630117918 -30.551534683797346 0.67587031688185073 #
straight-curve $-1 -72.417981505783246 45.327375350094918 0 0 0 -1 I I #
point $-1 -72.417981505783246 -45.327375350094918 -15.902968611705717 #
straight-curve $-1 -72.417981505783246 0 -15.902968611705717 0 1 0 I I #
point $-1 -72.417981505783246 45.327375350094918 -15.902968611705717 #
straight-curve $-1 -54.855740237164426 -16.684024180844606 -15.902968611705717 0 -1 0 I I #
straight-curve $-1 -54.855740237164426 -16.684024180844606 15.902968611705717 0 1 0 I I #
straight-curve $-1 -72.417981505783246 -28.712473350007123 0 0 0 -1 I I #
point $-1 -72.417981505783246 -28.712473350007123 -15.902968611705717 #
point $-1 -72.417981505783246 -28.712473350007123 15.902968611705717 #
straight-curve $-1 -1.9089966988140077 45.327375350094918 87.004434900566764 0 0 -1 I I #
point $-1 -1.9089966988140077 45.327375350094918 15.902968611705717 #
straight-curve $-1 -6.214973315058959 45.327375350094918 4.3993031199065307 -1 0 0 I I #
point $-1 -1.9089966988140077 45.327375350094911 4.3993031199065342 #
point $-1 -12.429946630117918 28.034253088339508 -2.4327135036333929 #
straight-curve $-1 -22.950896561421828 -45.327375350094918 58.478992965765769 0 0 -1 I I #
point $-1 -22.950896561421828 -45.327375350094918 15.902968611705717 #
straight-curve $-1 -6.214973315058959 -45.327375350094918 4.3993031199065085 1 0 0 I I #
point $-1 -22.950896561421828 -45.327375350094918 4.3993031199065085 #
point $-1 -12.429946630117918 -28.034253088339494 -2.4327135036333964 #
End-of-ACIS-data 