500 0 15 0           
7 Unknown 11 ACIS 5.0 NT 24 Fri Mar 26 19:26:44 1999 
-1 9.9999999999999995e-007 1e-010 
body $-1 $15 $-1 $16 #
body $-1 $17 $-1 $18 #
body $-1 $19 $-1 $20 #
body $-1 $21 $-1 $22 #
body $-1 $23 $-1 $24 #
body $-1 $25 $-1 $26 #
body $-1 $27 $-1 $28 #
body $-1 $29 $-1 $30 #
body $-1 $31 $-1 $32 #
body $-1 $33 $-1 $34 #
body $-1 $35 $-1 $36 #
body $-1 $37 $-1 $38 #
body $-1 $39 $-1 $40 #
body $-1 $41 $-1 $42 #
body $-1 $43 $-1 $44 #
lump $-1 $-1 $45 $0 #
transform $-1 1 0 0 0 1 0 0 0 1 44.753563035981323 24.263514266728862 11.576836707585855 1 rotate no_reflect no_shear #
lump $-1 $-1 $46 $1 #
transform $-1 1 0 0 0 1 0 0 0 1 44.753563035981323 24.263514266728862 11.576836707585855 1 rotate no_reflect no_shear #
lump $-1 $-1 $47 $2 #
transform $-1 1 0 0 0 1 0 0 0 1 44.753563035981323 24.263514266728862 11.576836707585855 1 rotate no_reflect no_shear #
lump $-1 $-1 $48 $3 #
transform $-1 1 0 0 0 1 0 0 0 1 44.753563035981323 24.263514266728862 11.576836707585855 1 rotate no_reflect no_shear #
lump $-1 $-1 $49 $4 #
transform $-1 1 0 0 0 1 0 0 0 1 44.753563035981323 24.263514266728862 11.576836707585855 1 rotate no_reflect no_shear #
lump $-1 $-1 $50 $5 #
transform $-1 1 0 0 0 1 0 0 0 1 44.753563035981323 24.263514266728862 11.576836707585855 1 rotate no_reflect no_shear #
lump $-1 $-1 $51 $6 #
transform $-1 1 0 0 0 1 0 0 0 1 44.753563035981323 24.263514266728862 11.576836707585855 1 rotate no_reflect no_shear #
lump $-1 $-1 $52 $7 #
transform $-1 1 0 0 0 1 0 0 0 1 44.753563035981323 24.263514266728862 11.576836707585855 1 rotate no_reflect no_shear #
lump $-1 $-1 $53 $8 #
transform $-1 1 0 0 0 1 0 0 0 1 44.753563035981323 24.263514266728862 11.576836707585855 1 rotate no_reflect no_shear #
lump $-1 $-1 $54 $9 #
transform $-1 1 0 0 0 1 0 0 0 1 44.753563035981323 24.263514266728862 11.576836707585855 1 rotate no_reflect no_shear #
lump $-1 $-1 $55 $10 #
transform $-1 1 0 0 0 1 0 0 0 1 44.753563035981323 24.263514266728862 11.576836707585855 1 rotate no_reflect no_shear #
lump $-1 $-1 $56 $11 #
transform $-1 1 0 0 0 1 0 0 0 1 44.753563035981323 24.263514266728862 11.576836707585855 1 rotate no_reflect no_shear #
lump $-1 $-1 $57 $12 #
transform $-1 1 0 0 0 1 0 0 0 1 44.753563035981323 24.263514266728862 11.576836707585855 1 rotate no_reflect no_shear #
lump $-1 $-1 $58 $13 #
transform $-1 1 0 0 0 1 0 0 0 1 44.753563035981323 24.263514266728862 11.576836707585855 1 rotate no_reflect no_shear #
lump $-1 $-1 $59 $14 #
transform $-1 1 0 0 0 1 0 0 0 1 44.753563035981323 24.263514266728862 11.576836707585855 1 rotate no_reflect no_shear #
shell $-1 $-1 $-1 $60 $-1 $15 #
shell $-1 $-1 $-1 $61 $-1 $17 #
shell $-1 $-1 $-1 $62 $-1 $19 #
shell $-1 $-1 $-1 $63 $-1 $21 #
shell $-1 $-1 $-1 $64 $-1 $23 #
shell $-1 $-1 $-1 $65 $-1 $25 #
shell $-1 $-1 $-1 $66 $-1 $27 #
shell $-1 $-1 $-1 $67 $-1 $29 #
shell $-1 $-1 $-1 $68 $-1 $31 #
shell $-1 $-1 $-1 $69 $-1 $33 #
shell $-1 $-1 $-1 $70 $-1 $35 #
shell $-1 $-1 $-1 $71 $-1 $37 #
shell $-1 $-1 $-1 $72 $-1 $39 #
shell $-1 $-1 $-1 $73 $-1 $41 #
shell $-1 $-1 $-1 $74 $-1 $43 #
face $-1 $75 $76 $45 $-1 $77 forward single #
face $-1 $78 $79 $46 $-1 $80 forward single #
face $-1 $81 $82 $47 $-1 $83 forward single #
face $-1 $84 $85 $48 $-1 $86 reversed single #
face $-1 $87 $88 $49 $-1 $89 forward single #
face $-1 $90 $91 $50 $-1 $92 reversed single #
face $-1 $93 $94 $51 $-1 $95 forward single #
face $-1 $96 $97 $52 $-1 $98 reversed single #
face $-1 $99 $100 $53 $-1 $101 forward single #
face $-1 $102 $103 $54 $-1 $104 reversed single #
face $-1 $105 $106 $55 $-1 $107 forward single #
face $-1 $108 $109 $56 $-1 $110 forward single #
face $-1 $111 $112 $57 $-1 $113 reversed single #
face $-1 $114 $115 $58 $-1 $116 forward single #
face $-1 $117 $118 $59 $-1 $119 forward single #
face $-1 $120 $121 $45 $-1 $122 reversed single #
loop $-1 $-1 $123 $60 #
plane-surface $-1 0 0 11.576836707585855 0 0 1 1 0 0 forward_v I I I I #
face $-1 $124 $125 $46 $-1 $126 reversed single #
loop $-1 $-1 $127 $61 #
plane-surface $-1 0 -17.322934443103268 -5.7331963445337442 0 0 1 1 0 0 forward_v I I I I #
face $-1 $128 $129 $47 $-1 $130 reversed single #
loop $-1 $-1 $131 $62 #
plane-surface $-1 0 17.322934443103264 -5.7331963445337442 0 0 1 1 0 0 forward_v I I I I #
face $-1 $132 $133 $48 $-1 $134 reversed single #
loop $-1 $-1 $135 $63 #
plane-surface $-1 -98.620296867197197 -3.2496277007633489 76.008742053586801 0 -1 0 0.6018150307709319 0 -0.79863550430605224 forward_v I I I I #
face $-1 $136 $137 $49 $-1 $138 forward single #
loop $-1 $139 $140 $64 #
cone-surface $-1 -39.313335083423084 -6.0110909285810479 7.0407372980626581 0.6018150307709319 0 -0.79863550430605224 0.79863550430605224 0 0.6018150307709319 1 I I 0 1 1 forward I I I I #
face $-1 $141 $142 $50 $-1 $143 reversed single #
loop $-1 $-1 $144 $65 #
plane-surface $-1 -98.620296867197197 2.7614632278176989 76.008742053586801 0 -1 0 0.6018150307709319 0 -0.79863550430605224 forward_v I I I I #
face $-1 $145 $146 $51 $-1 $147 forward single #
loop $-1 $148 $149 $66 #
cone-surface $-1 -39.313335083423084 0 7.0407372980626581 0.6018150307709319 0 -0.79863550430605224 0.79863550430605224 0 0.6018150307709319 1 I I 0 1 1 forward I I I I #
face $-1 $150 $151 $52 $-1 $152 reversed single #
loop $-1 $-1 $153 $67 #
plane-surface $-1 -98.620296867197197 8.7725541563987477 76.008742053586801 0 -1 0 0.6018150307709319 0 -0.79863550430605224 forward_v I I I I #
face $-1 $154 $155 $53 $-1 $156 forward single #
loop $-1 $157 $158 $68 #
cone-surface $-1 -39.313335083423084 6.0110909285810479 7.0407372980626581 0.6018150307709319 0 -0.79863550430605224 0.79863550430605224 0 0.6018150307709319 1 I I 0 1 1 forward I I I I #
face $-1 $159 $160 $54 $-1 $161 reversed single #
loop $-1 $-1 $162 $69 #
plane-surface $-1 57.985006658454033 -4.4696621500863243 129.92367223384963 0 -1 0 -0.77714596973225614 0 -0.62932038083071107 forward_v I I I I #
face $-1 $163 $164 $55 $-1 $165 forward single #
loop $-1 $166 $167 $70 #
cone-surface $-1 41.074572353330304 -8.6930139139372873 7.2994955074179382 -0.77714596973225614 0 -0.62932038083071107 0.31466019041535553 0 -0.38857298486612807 1 I I 0 1 0.5 forward I I I I #
face $-1 $168 $169 $56 $-1 $170 forward single #
loop $-1 $171 $172 $71 #
cone-surface $-1 41.074572353330304 -6.15900285562671 7.2994955074179382 -0.77714596973225614 0 -0.62932038083071107 0.31466019041535553 0 -0.38857298486612807 1 I I 0 1 0.5 forward I I I I #
face $-1 $173 $174 $57 $-1 $175 reversed single #
loop $-1 $-1 $176 $72 #
plane-surface $-1 57.985006658454033 5.9126924693913496 129.92367223384963 0 -1 0 -0.77714596973225614 0 -0.62932038083071107 forward_v I I I I #
face $-1 $177 $178 $58 $-1 $179 forward single #
loop $-1 $180 $181 $73 #
cone-surface $-1 41.074572353330304 1.6893407055403884 7.2994955074179382 -0.77714596973225614 0 -0.62932038083071107 0.31466019041535553 0 -0.38857298486612807 1 I I 0 1 0.5 forward I I I I #
face $-1 $182 $183 $59 $-1 $184 forward single #
loop $-1 $185 $186 $74 #
cone-surface $-1 41.074572353330304 4.2233517638509639 7.2994955074179382 -0.77714596973225614 0 -0.62932038083071107 0.31466019041535553 0 -0.38857298486612807 1 I I 0 1 0.5 forward I I I I #
face $-1 $187 $188 $45 $-1 $189 reversed single #
loop $-1 $-1 $190 $75 #
plane-surface $-1 0 0 -11.576836707585855 0 0 1 1 0 0 forward_v I I I I #
coedge $-1 $191 $192 $193 $194 forward $76 $-1 #
face $-1 $195 $196 $46 $-1 $197 reversed single #
loop $-1 $-1 $198 $78 #
plane-surface $-1 0 -10.382354619477674 -8.6550165260598 0 -1 0 0 0 -1 forward_v I I I I #
coedge $-1 $199 $200 $201 $202 reversed $79 $-1 #
face $-1 $203 $204 $47 $-1 $205 reversed single #
loop $-1 $-1 $206 $81 #
plane-surface $-1 0 10.38235461947767 -8.6550165260598 0 1 0 0 0 1 forward_v I I I I #
coedge $-1 $207 $208 $209 $210 reversed $82 $-1 #
face $-1 $211 $212 $48 $-1 $213 reversed single #
loop $-1 $-1 $214 $84 #
plane-surface $-1 -44.753563035981308 -6.0110909285810479 4.5251732841195036 -0.6018150307709319 0 0.79863550430605224 0.79863550430605224 0 0.6018150307709319 forward_v I I I I #
coedge $-1 $215 $216 $217 $218 reversed $85 $-1 #
face $-1 $-1 $219 $49 $-1 $220 forward single #
loop $-1 $221 $222 $87 #
cone-surface $-1 -38.251136237569305 -6.0110909285810479 5.6311518481196039 0.6018150307709319 0 -0.79863550430605224 0.39931775215302612 0 0.30090751538546595 1 I I -0.70710678118654746 0.70710678118654746 0.5 forward I I I I #
loop $-1 $-1 $223 $64 #
coedge $-1 $140 $140 $224 $225 reversed $88 $-1 #
face $-1 $226 $227 $50 $-1 $228 reversed single #
loop $-1 $-1 $229 $90 #
plane-surface $-1 -44.753563035981308 0 4.5251732841195036 -0.6018150307709319 0 0.79863550430605224 0.79863550430605224 0 0.6018150307709319 forward_v I I I I #
coedge $-1 $230 $231 $232 $233 reversed $91 $-1 #
face $-1 $-1 $234 $51 $-1 $235 forward single #
loop $-1 $236 $237 $93 #
cone-surface $-1 -38.251136237569305 0 5.6311518481196039 0.6018150307709319 0 -0.79863550430605224 0.39931775215302612 0 0.30090751538546595 1 I I -0.70710678118654746 0.70710678118654746 0.5 forward I I I I #
loop $-1 $-1 $238 $66 #
coedge $-1 $149 $149 $239 $240 reversed $94 $-1 #
face $-1 $241 $242 $52 $-1 $243 reversed single #
loop $-1 $-1 $244 $96 #
plane-surface $-1 -44.753563035981308 6.0110909285810479 4.5251732841195036 -0.6018150307709319 0 0.79863550430605224 0.79863550430605224 0 0.6018150307709319 forward_v I I I I #
coedge $-1 $245 $246 $247 $248 reversed $97 $-1 #
face $-1 $-1 $249 $53 $-1 $250 forward single #
loop $-1 $251 $252 $99 #
cone-surface $-1 -38.251136237569305 6.0110909285810479 5.6311518481196039 0.6018150307709319 0 -0.79863550430605224 0.39931775215302612 0 0.30090751538546595 1 I I -0.70710678118654746 0.70710678118654746 0.5 forward I I I I #
loop $-1 $-1 $253 $68 #
coedge $-1 $158 $158 $254 $255 reversed $100 $-1 #
face $-1 $256 $257 $54 $-1 $258 reversed single #
loop $-1 $-1 $259 $102 #
plane-surface $-1 -11.575095630688686 -7.4260083847819978 73.59501356717962 0.77714596973225614 0 0.62932038083071107 0.62932038083071107 0 -0.77714596973225614 forward_v I I I I #
coedge $-1 $260 $261 $262 $263 reversed $103 $-1 #
face $-1 $-1 $264 $55 $-1 $265 forward single #
loop $-1 $266 $267 $105 #
cone-surface $-1 40.254960492341432 -8.6930139139372873 6.6357869268168059 -0.77714596973225614 0 -0.62932038083071107 0.15733009520767777 0 -0.19428649243306403 1 I I -0.70710678118654746 0.70710678118654746 0.25 forward I I I I #
loop $-1 $-1 $268 $70 #
coedge $-1 $167 $167 $269 $270 reversed $106 $-1 #
face $-1 $-1 $271 $56 $-1 $272 forward single #
loop $-1 $273 $274 $108 #
cone-surface $-1 40.254960492341432 -6.15900285562671 6.6357869268168059 -0.77714596973225614 0 -0.62932038083071107 0.15733009520767777 0 -0.19428649243306403 1 I I -0.70710678118654746 0.70710678118654746 0.25 forward I I I I #
loop $-1 $-1 $275 $71 #
coedge $-1 $172 $172 $276 $277 reversed $109 $-1 #
face $-1 $278 $279 $57 $-1 $280 reversed single #
loop $-1 $-1 $281 $111 #
plane-surface $-1 -11.575095630688686 2.9563462346956761 73.59501356717962 0.77714596973225614 0 0.62932038083071107 0.62932038083071107 0 -0.77714596973225614 forward_v I I I I #
coedge $-1 $282 $283 $284 $285 reversed $112 $-1 #
face $-1 $-1 $286 $58 $-1 $287 forward single #
loop $-1 $288 $289 $114 #
cone-surface $-1 40.254960492341432 1.6893407055403884 6.6357869268168059 -0.77714596973225614 0 -0.62932038083071107 0.15733009520767777 0 -0.19428649243306403 1 I I -0.70710678118654746 0.70710678118654746 0.25 forward I I I I #
loop $-1 $-1 $290 $73 #
coedge $-1 $181 $181 $291 $292 reversed $115 $-1 #
face $-1 $-1 $293 $59 $-1 $294 forward single #
loop $-1 $295 $296 $117 #
cone-surface $-1 40.254960492341432 4.2233517638509639 6.6357869268168059 -0.77714596973225614 0 -0.62932038083071107 0.15733009520767777 0 -0.19428649243306403 1 I I -0.70710678118654746 0.70710678118654746 0.25 forward I I I I #
loop $-1 $-1 $297 $74 #
coedge $-1 $186 $186 $298 $299 reversed $118 $-1 #
face $-1 $300 $301 $45 $-1 $302 reversed single #
loop $-1 $-1 $303 $120 #
plane-surface $-1 0 -24.263514266728862 0 0 1 0 0 0 1 forward_v I I I I #
coedge $-1 $304 $305 $306 $307 forward $121 $-1 #
coedge $-1 $308 $123 $309 $310 forward $76 $-1 #
coedge $-1 $123 $308 $311 $312 forward $76 $-1 #
coedge $-1 $313 $314 $123 $194 reversed $315 $-1 #
edge $-1 $316 -24.263514266728862 $317 24.263514266728862 $193 $318 forward 7 unknown #
face $-1 $319 $320 $46 $-1 $321 reversed single #
loop $-1 $-1 $322 $124 #
plane-surface $-1 0 0 -11.576836707585855 0 0 1 1 0 0 forward_v I I I I #
coedge $-1 $323 $324 $325 $326 reversed $125 $-1 #
coedge $-1 $327 $127 $324 $328 forward $79 $-1 #
coedge $-1 $127 $327 $329 $330 reversed $79 $-1 #
coedge $-1 $331 $325 $127 $202 forward $320 $-1 #
edge $-1 $332 1.72088739792604 $333 15.602047045177228 $201 $334 forward 7 unknown #
face $-1 $335 $336 $47 $-1 $337 reversed single #
loop $-1 $-1 $209 $128 #
plane-surface $-1 44.753563035981323 0 0 -1 0 0 0 0 1 forward_v I I I I #
coedge $-1 $338 $339 $340 $341 reversed $129 $-1 #
coedge $-1 $342 $131 $343 $344 reversed $82 $-1 #
coedge $-1 $131 $342 $339 $345 forward $82 $-1 #
coedge $-1 $346 $347 $131 $210 forward $204 $-1 #
edge $-1 $348 -15.602047045177226 $349 -1.7208873979260382 $209 $350 forward 7 unknown #
face $-1 $351 $352 $48 $-1 $353 reversed single #
loop $-1 $-1 $354 $132 #
plane-surface $-1 -98.620296867197197 -8.7725541563987477 76.008742053586801 0 1 0 -0.6018150307709319 0 0.79863550430605224 forward_v I I I I #
coedge $-1 $355 $356 $357 $358 reversed $133 $-1 #
coedge $-1 $216 $135 $359 $360 reversed $85 $-1 #
coedge $-1 $135 $215 $355 $361 reversed $85 $-1 #
coedge $-1 $357 $362 $135 $218 forward $352 $-1 #
edge $-1 $363 26.427534319207545 $364 33.479197742673904 $217 $365 forward 7 unknown #
loop $-1 $-1 $224 $136 #
plane-surface $-1 -44.753563035981308 -6.0110909285810479 4.5251732841195036 -0.6018150307709319 0 0.79863550430605224 0.79863550430605224 0 0.6018150307709319 forward_v I I I I #
loop $-1 $-1 $366 $87 #
coedge $-1 $222 $222 $223 $367 reversed $137 $-1 #
coedge $-1 $223 $223 $222 $367 forward $139 $-1 #
coedge $-1 $224 $224 $140 $225 forward $219 $-1 #
edge $-1 $368 0 $368 6.2831853071796004 $224 $369 forward 7 unknown #
face $-1 $370 $371 $50 $-1 $372 forward single #
loop $-1 $-1 $373 $141 #
plane-surface $-1 -98.620296867197197 -2.7614632278176989 76.008742053586801 0 1 0 -0.6018150307709319 0 0.79863550430605224 forward_v I I I I #
coedge $-1 $374 $375 $376 $377 reversed $142 $-1 #
coedge $-1 $231 $144 $378 $379 reversed $91 $-1 #
coedge $-1 $144 $230 $374 $380 reversed $91 $-1 #
coedge $-1 $376 $381 $144 $233 forward $382 $-1 #
edge $-1 $383 26.427534319207545 $384 33.479197742673904 $232 $385 forward 7 unknown #
loop $-1 $-1 $239 $145 #
plane-surface $-1 -44.753563035981308 0 4.5251732841195036 -0.6018150307709319 0 0.79863550430605224 0.79863550430605224 0 0.6018150307709319 forward_v I I I I #
loop $-1 $-1 $386 $93 #
coedge $-1 $237 $237 $238 $387 reversed $146 $-1 #
coedge $-1 $238 $238 $237 $387 forward $148 $-1 #
coedge $-1 $239 $239 $149 $240 forward $234 $-1 #
edge $-1 $388 0 $388 6.2831853071796004 $239 $389 forward 7 unknown #
face $-1 $390 $391 $52 $-1 $392 forward single #
loop $-1 $-1 $393 $150 #
plane-surface $-1 -98.620296867197197 3.2496277007633489 76.008742053586801 0 1 0 -0.6018150307709319 0 0.79863550430605224 forward_v I I I I #
coedge $-1 $394 $395 $396 $397 reversed $151 $-1 #
coedge $-1 $246 $153 $398 $399 reversed $97 $-1 #
coedge $-1 $153 $245 $394 $400 reversed $97 $-1 #
coedge $-1 $396 $401 $153 $248 forward $402 $-1 #
edge $-1 $403 26.427534319207545 $404 33.479197742673904 $247 $405 forward 7 unknown #
loop $-1 $-1 $254 $154 #
plane-surface $-1 -44.753563035981308 6.0110909285810479 4.5251732841195036 -0.6018150307709319 0 0.79863550430605224 0.79863550430605224 0 0.6018150307709319 forward_v I I I I #
loop $-1 $-1 $406 $99 #
coedge $-1 $252 $252 $253 $407 reversed $155 $-1 #
coedge $-1 $253 $253 $252 $407 forward $157 $-1 #
coedge $-1 $254 $254 $158 $255 forward $249 $-1 #
edge $-1 $408 0 $408 6.2831853071796004 $254 $409 forward 7 unknown #
face $-1 $410 $411 $54 $-1 $412 forward single #
loop $-1 $-1 $413 $159 #
plane-surface $-1 57.985006658454033 -10.38235461947767 129.92367223384963 0 1 0 0.77714596973225614 0 0.62932038083071107 forward_v I I I I #
coedge $-1 $414 $415 $416 $417 reversed $160 $-1 #
coedge $-1 $261 $162 $418 $419 reversed $103 $-1 #
coedge $-1 $162 $260 $414 $420 reversed $103 $-1 #
coedge $-1 $416 $421 $162 $263 forward $411 $-1 #
edge $-1 $422 -15.761059706754306 $423 -9.6537290785638596 $262 $424 forward 7 unknown #
loop $-1 $-1 $269 $163 #
plane-surface $-1 -11.575095630688686 -7.4260083847819978 73.59501356717962 0.77714596973225614 0 0.62932038083071107 0.62932038083071107 0 -0.77714596973225614 forward_v I I I I #
loop $-1 $-1 $425 $105 #
coedge $-1 $267 $267 $268 $426 reversed $164 $-1 #
coedge $-1 $268 $268 $267 $426 forward $166 $-1 #
coedge $-1 $269 $269 $167 $270 forward $264 $-1 #
edge $-1 $427 0 $427 6.2831853071796004 $269 $428 forward 7 unknown #
loop $-1 $-1 $276 $168 #
plane-surface $-1 -11.575095630688686 -7.4260083847819978 73.59501356717962 0.77714596973225614 0 0.62932038083071107 0.62932038083071107 0 -0.77714596973225614 forward_v I I I I #
loop $-1 $-1 $429 $108 #
coedge $-1 $274 $274 $275 $430 reversed $169 $-1 #
coedge $-1 $275 $275 $274 $430 forward $171 $-1 #
coedge $-1 $276 $276 $172 $277 forward $271 $-1 #
edge $-1 $431 0 $431 6.2831853071796004 $276 $432 forward 7 unknown #
face $-1 $433 $434 $57 $-1 $435 reversed single #
loop $-1 $-1 $436 $173 #
plane-surface $-1 57.985006658454033 2.6645352591003757e-015 129.92367223384963 0 1 0 0.77714596973225614 0 0.62932038083071107 forward_v I I I I #
coedge $-1 $437 $438 $439 $440 reversed $174 $-1 #
coedge $-1 $283 $176 $441 $442 reversed $112 $-1 #
coedge $-1 $176 $282 $437 $443 reversed $112 $-1 #
coedge $-1 $439 $444 $176 $285 forward $445 $-1 #
edge $-1 $446 -15.761059706754306 $447 -9.6537290785638596 $284 $448 forward 7 unknown #
loop $-1 $-1 $291 $177 #
plane-surface $-1 -11.575095630688686 2.9563462346956761 73.59501356717962 0.77714596973225614 0 0.62932038083071107 0.62932038083071107 0 -0.77714596973225614 forward_v I I I I #
loop $-1 $-1 $449 $114 #
coedge $-1 $289 $289 $290 $450 reversed $178 $-1 #
coedge $-1 $290 $290 $289 $450 forward $180 $-1 #
coedge $-1 $291 $291 $181 $292 forward $286 $-1 #
edge $-1 $451 0 $451 6.2831853071796004 $291 $452 forward 7 unknown #
loop $-1 $-1 $298 $182 #
plane-surface $-1 -11.575095630688686 2.9563462346956761 73.59501356717962 0.77714596973225614 0 0.62932038083071107 0.62932038083071107 0 -0.77714596973225614 forward_v I I I I #
loop $-1 $-1 $453 $117 #
coedge $-1 $296 $296 $297 $454 reversed $183 $-1 #
coedge $-1 $297 $297 $296 $454 forward $185 $-1 #
coedge $-1 $298 $298 $186 $299 forward $293 $-1 #
edge $-1 $455 0 $455 6.2831853071796004 $298 $456 forward 7 unknown #
face $-1 $457 $458 $45 $-1 $459 reversed single #
loop $-1 $-1 $460 $187 #
plane-surface $-1 -44.753563035981323 0 0 1 0 0 0 0 -1 forward_v I I I I #
coedge $-1 $461 $311 $462 $463 forward $188 $-1 #
coedge $-1 $464 $190 $461 $465 forward $121 $-1 #
coedge $-1 $190 $464 $466 $467 forward $121 $-1 #
coedge $-1 $314 $313 $190 $307 reversed $315 $-1 #
edge $-1 $468 -24.263514266728862 $469 24.263514266728862 $306 $470 forward 7 unknown #
coedge $-1 $192 $191 $471 $472 forward $76 $-1 #
coedge $-1 $473 $474 $191 $310 reversed $458 $-1 #
edge $-1 $317 -44.753563035981323 $475 44.753563035981323 $309 $476 forward 7 unknown #
coedge $-1 $303 $477 $192 $312 reversed $188 $-1 #
edge $-1 $478 -44.753563035981323 $316 44.753563035981323 $311 $479 forward 7 unknown #
coedge $-1 $306 $193 $477 $480 forward $315 $-1 #
coedge $-1 $193 $306 $473 $481 reversed $315 $-1 #
loop $-1 $-1 $313 $457 #
vertex $-1 $194 $482 #
vertex $-1 $194 $483 #
straight-curve $-1 44.753563035981323 0 11.576836707585855 0 1 0 I I #
face $-1 $484 $485 $46 $-1 $486 reversed single #
loop $-1 $-1 $325 $195 #
plane-surface $-1 44.753563035981323 0 0 -1 0 0 0 0 1 forward_v I I I I #
coedge $-1 $487 $488 $323 $489 forward $196 $-1 #
coedge $-1 $490 $198 $322 $489 reversed $125 $-1 #
coedge $-1 $198 $490 $199 $328 reversed $125 $-1 #
coedge $-1 $201 $491 $198 $326 forward $320 $-1 #
edge $-1 $492 -7.2493284445559549 $332 -1.4056880815038442 $325 $493 forward 7 unknown #
coedge $-1 $200 $199 $494 $495 reversed $79 $-1 #
edge $-1 $332 -44.753563035981323 $496 44.753563035981323 $324 $497 forward 7 unknown #
coedge $-1 $498 $499 $200 $330 forward $485 $-1 #
edge $-1 $333 -44.753563035981323 $500 44.753563035981323 $329 $501 forward 7 unknown #
coedge $-1 $491 $201 $499 $502 forward $320 $-1 #
vertex $-1 $202 $503 #
vertex $-1 $502 $504 #
straight-curve $-1 44.753563035981323 -8.661467221551634 -5.7331963445337442 0 -1 0 I I #
face $-1 $505 $506 $47 $-1 $507 reversed single #
loop $-1 $-1 $508 $203 #
plane-surface $-1 0 0 -11.576836707585855 0 0 1 1 0 0 forward_v I I I I #
coedge $-1 $509 $206 $508 $510 reversed $129 $-1 #
coedge $-1 $206 $509 $208 $345 reversed $129 $-1 #
coedge $-1 $511 $512 $206 $341 forward $506 $-1 #
edge $-1 $513 -7.2493284445559549 $514 -1.4056880815038442 $340 $515 forward 7 unknown #
coedge $-1 $208 $207 $511 $516 reversed $82 $-1 #
coedge $-1 $517 $518 $207 $344 forward $519 $-1 #
edge $-1 $520 -44.753563035981323 $348 44.753563035981323 $343 $521 forward 7 unknown #
edge $-1 $514 -44.753563035981323 $349 44.753563035981323 $339 $522 forward 7 unknown #
coedge $-1 $523 $209 $509 $524 forward $204 $-1 #
coedge $-1 $209 $523 $517 $525 reversed $204 $-1 #
vertex $-1 $525 $526 #
vertex $-1 $210 $527 #
straight-curve $-1 44.753563035981323 8.6614672215516322 -5.7331963445337442 0 -1 0 I I #
face $-1 $-1 $528 $48 $-1 $529 forward single #
loop $-1 $-1 $217 $211 #
plane-surface $-1 -44.753563035981323 0 0 1 0 0 0 0 -1 forward_v I I I I #
coedge $-1 $530 $531 $532 $533 reversed $212 $-1 #
coedge $-1 $534 $214 $216 $361 forward $133 $-1 #
coedge $-1 $214 $534 $530 $535 forward $133 $-1 #
coedge $-1 $532 $217 $214 $358 forward $352 $-1 #
edge $-1 $364 0.24408223647282501 $536 5.7670086921082238 $357 $537 forward 7 unknown #
coedge $-1 $538 $539 $215 $360 forward $528 $-1 #
edge $-1 $540 -13.914458641797168 $363 -4.5565853976172761 $359 $541 forward 7 unknown #
edge $-1 $364 -1.7763522597878294e-014 $540 11.717326857777367 $216 $542 forward 7 unknown #
coedge $-1 $217 $532 $538 $543 reversed $352 $-1 #
vertex $-1 $543 $544 #
vertex $-1 $218 $545 #
straight-curve $-1 -44.753563035981323 -3.2496277007633489 38.0043710267934 0 0 -1 I I #
coedge $-1 $366 $366 $-1 $546 reversed $221 $-1 #
edge $-1 $547 0 $547 6.2831853071796004 $222 $548 forward 7 unknown #
vertex $-1 $225 $549 #
ellipse-curve $-1 -40.07462641389138 -6.0110909285810479 8.0510049958526704 -0.6018150307709319 0 0.79863550430605224 0.79863550430605224 0 0.6018150307709319 1 I I #
face $-1 $-1 $382 $50 $-1 $550 reversed single #
loop $-1 $-1 $551 $226 #
plane-surface $-1 0 0 11.576836707585855 0 0 1 1 0 0 forward_v I I I I #
coedge $-1 $552 $553 $554 $555 reversed $227 $-1 #
coedge $-1 $556 $229 $231 $380 forward $142 $-1 #
coedge $-1 $229 $556 $552 $557 forward $142 $-1 #
coedge $-1 $554 $232 $229 $377 forward $382 $-1 #
edge $-1 $384 -2.7614632278176989 $558 2.7614632278176989 $376 $559 forward 7 unknown #
coedge $-1 $560 $561 $230 $379 forward $371 $-1 #
edge $-1 $562 -13.914458641797168 $383 -4.5565853976172761 $378 $563 forward 7 unknown #
edge $-1 $384 -1.7763522597878294e-014 $562 11.717326857777367 $231 $564 forward 7 unknown #
coedge $-1 $232 $554 $560 $565 reversed $382 $-1 #
loop $-1 $-1 $554 $370 #
vertex $-1 $565 $566 #
vertex $-1 $233 $567 #
straight-curve $-1 -44.753563035981323 2.7614632278176989 38.0043710267934 0 0 -1 I I #
coedge $-1 $386 $386 $-1 $568 reversed $236 $-1 #
edge $-1 $569 0 $569 6.2831853071796004 $237 $570 forward 7 unknown #
vertex $-1 $240 $571 #
ellipse-curve $-1 -40.07462641389138 0 8.0510049958526704 -0.6018150307709319 0 0.79863550430605224 0.79863550430605224 0 0.6018150307709319 1 I I #
face $-1 $-1 $402 $52 $-1 $572 reversed single #
loop $-1 $-1 $573 $241 #
plane-surface $-1 0 0 11.576836707585855 0 0 1 1 0 0 forward_v I I I I #
coedge $-1 $574 $575 $576 $577 reversed $242 $-1 #
coedge $-1 $578 $244 $246 $400 forward $151 $-1 #
coedge $-1 $244 $578 $574 $579 forward $151 $-1 #
coedge $-1 $576 $247 $244 $397 forward $402 $-1 #
edge $-1 $404 -5.7670086921082238 $580 -0.24408223647282501 $396 $581 forward 7 unknown #
coedge $-1 $582 $583 $245 $399 forward $391 $-1 #
edge $-1 $584 -13.914458641797168 $403 -4.5565853976172761 $398 $585 forward 7 unknown #
edge $-1 $404 -1.7763522597878294e-014 $584 11.717326857777367 $246 $586 forward 7 unknown #
coedge $-1 $247 $576 $582 $587 reversed $402 $-1 #
loop $-1 $-1 $576 $390 #
vertex $-1 $587 $588 #
vertex $-1 $248 $589 #
straight-curve $-1 -44.753563035981323 8.7725541563987477 38.0043710267934 0 0 -1 I I #
coedge $-1 $406 $406 $-1 $590 reversed $251 $-1 #
edge $-1 $591 0 $591 6.2831853071796004 $252 $592 forward 7 unknown #
vertex $-1 $255 $593 #
ellipse-curve $-1 -40.07462641389138 6.0110909285810479 8.0510049958526704 -0.6018150307709319 0 0.79863550430605224 0.79863550430605224 0 0.6018150307709319 1 I I #
face $-1 $-1 $594 $54 $-1 $595 reversed single #
loop $-1 $-1 $262 $256 #
plane-surface $-1 0 0 11.576836707585855 0 0 1 1 0 0 forward_v I I I I #
coedge $-1 $596 $597 $598 $599 reversed $257 $-1 #
coedge $-1 $600 $259 $261 $420 forward $160 $-1 #
coedge $-1 $259 $600 $596 $601 forward $160 $-1 #
coedge $-1 $598 $262 $259 $417 forward $411 $-1 #
edge $-1 $423 0.7566579576953254 $602 6.6693504270866715 $416 $603 forward 7 unknown #
coedge $-1 $604 $605 $260 $419 forward $594 $-1 #
edge $-1 $606 -60.926924838887928 $422 -53.38499940933896 $418 $607 forward 7 unknown #
edge $-1 $423 79.80248148357559 $606 89.507126071962659 $261 $608 forward 7 unknown #
coedge $-1 $262 $598 $604 $609 forward $411 $-1 #
vertex $-1 $263 $610 #
vertex $-1 $263 $611 #
straight-curve $-1 28.992503329227016 -4.4696621500863243 11.576836707585855 -1 0 0 I I #
coedge $-1 $425 $425 $-1 $612 reversed $266 $-1 #
edge $-1 $613 0 $613 6.2831853071796004 $267 $614 forward 7 unknown #
vertex $-1 $270 $615 #
ellipse-curve $-1 41.699897721886089 -8.6930139139372873 7.8058739928113736 0.77714596973225614 0 0.62932038083071107 0.31466019041535553 0 -0.38857298486612807 1 I I #
coedge $-1 $429 $429 $-1 $616 reversed $273 $-1 #
edge $-1 $617 0 $617 6.2831853071796004 $274 $618 forward 7 unknown #
vertex $-1 $277 $619 #
ellipse-curve $-1 41.699897721886089 -6.15900285562671 7.8058739928113736 0.77714596973225614 0 0.62932038083071107 0.31466019041535553 0 -0.38857298486612807 1 I I #
face $-1 $-1 $445 $57 $-1 $620 forward single #
loop $-1 $-1 $621 $278 #
plane-surface $-1 44.753563035981323 0 0 -1 0 0 0 0 1 forward_v I I I I #
coedge $-1 $622 $623 $624 $625 reversed $279 $-1 #
coedge $-1 $626 $281 $283 $443 forward $174 $-1 #
coedge $-1 $281 $626 $622 $627 forward $174 $-1 #
coedge $-1 $624 $284 $281 $440 forward $445 $-1 #
edge $-1 $447 -4.4345193520435116 $628 1.4781731173478354 $439 $629 forward 7 unknown #
coedge $-1 $630 $631 $282 $442 forward $434 $-1 #
edge $-1 $632 -60.926924838887928 $446 -53.38499940933896 $441 $633 forward 7 unknown #
edge $-1 $447 79.80248148357559 $632 89.507126071962659 $283 $634 forward 7 unknown #
coedge $-1 $284 $624 $630 $635 forward $445 $-1 #
loop $-1 $-1 $624 $433 #
vertex $-1 $442 $636 #
vertex $-1 $285 $637 #
straight-curve $-1 28.992503329227016 5.9126924693913496 11.576836707585855 -1 0 0 I I #
coedge $-1 $449 $449 $-1 $638 reversed $288 $-1 #
edge $-1 $639 0 $639 6.2831853071796004 $289 $640 forward 7 unknown #
vertex $-1 $292 $641 #
ellipse-curve $-1 41.699897721886089 1.6893407055403884 7.8058739928113736 0.77714596973225614 0 0.62932038083071107 0.31466019041535553 0 -0.38857298486612807 1 I I #
coedge $-1 $453 $453 $-1 $642 reversed $295 $-1 #
edge $-1 $643 0 $643 6.2831853071796004 $296 $644 forward 7 unknown #
vertex $-1 $299 $645 #
ellipse-curve $-1 41.699897721886089 4.2233517638509639 7.8058739928113736 0.77714596973225614 0 0.62932038083071107 0.31466019041535553 0 -0.38857298486612807 1 I I #
face $-1 $-1 $315 $45 $-1 $646 reversed single #
loop $-1 $-1 $473 $300 #
plane-surface $-1 0 24.263514266728862 0 0 -1 0 0 0 -1 forward_v I I I I #
coedge $-1 $647 $471 $474 $648 forward $301 $-1 #
coedge $-1 $477 $303 $304 $465 reversed $188 $-1 #
coedge $-1 $471 $647 $303 $463 reversed $301 $-1 #
edge $-1 $478 -11.576836707585855 $649 11.576836707585855 $462 $650 forward 7 unknown #
coedge $-1 $305 $304 $647 $651 forward $121 $-1 #
edge $-1 $469 -44.753563035981323 $649 44.753563035981323 $461 $652 forward 7 unknown #
coedge $-1 $474 $473 $305 $467 reversed $458 $-1 #
edge $-1 $653 -44.753563035981323 $468 44.753563035981323 $466 $654 forward 7 unknown #
vertex $-1 $307 $655 #
vertex $-1 $480 $656 #
straight-curve $-1 44.753563035981323 0 -11.576836707585855 0 -1 0 I I #
coedge $-1 $460 $462 $308 $472 reversed $301 $-1 #
edge $-1 $475 -24.263514266728862 $478 24.263514266728862 $471 $657 forward 7 unknown #
coedge $-1 $466 $309 $314 $481 forward $458 $-1 #
coedge $-1 $309 $466 $460 $648 reversed $458 $-1 #
vertex $-1 $310 $658 #
straight-curve $-1 0 24.263514266728862 11.576836707585855 -1 0 0 I I #
coedge $-1 $311 $461 $313 $480 reversed $188 $-1 #
vertex $-1 $472 $659 #
straight-curve $-1 0 -24.263514266728862 11.576836707585855 1 0 0 I I #
edge $-1 $316 -11.576836707585855 $469 11.576836707585855 $313 $660 forward 7 unknown #
edge $-1 $317 -11.576836707585855 $468 11.576836707585855 $314 $661 forward 7 unknown #
point $-1 44.753563035981323 -24.263514266728862 11.576836707585855 #
point $-1 44.753563035981323 24.263514266728862 11.576836707585855 #
face $-1 $-1 $662 $46 $-1 $663 reversed single #
loop $-1 $-1 $329 $319 #
plane-surface $-1 0 -24.263514266728862 0 0 1 0 0 0 1 forward_v I I I I #
coedge $-1 $664 $322 $491 $665 forward $196 $-1 #
coedge $-1 $322 $664 $666 $667 forward $196 $-1 #
edge $-1 $668 -44.753563035981323 $492 44.753563035981323 $322 $669 forward 7 unknown #
coedge $-1 $324 $323 $670 $671 reversed $125 $-1 #
coedge $-1 $325 $331 $487 $665 reversed $320 $-1 #
vertex $-1 $665 $672 #
straight-curve $-1 44.753563035981323 -10.382354619477674 -4.3275082630299 0 0 1 I I #
coedge $-1 $670 $673 $327 $495 forward $662 $-1 #
edge $-1 $500 -15.602047045177228 $496 -1.72088739792604 $494 $674 forward 7 unknown #
vertex $-1 $495 $675 #
straight-curve $-1 0 -10.382354619477674 -5.7331963445337442 -1 0 0 I I #
coedge $-1 $676 $329 $673 $677 forward $485 $-1 #
coedge $-1 $329 $676 $331 $502 reversed $485 $-1 #
vertex $-1 $677 $678 #
straight-curve $-1 0 -24.263514266728862 -5.7331963445337442 -1 0 0 I I #
edge $-1 $333 5.7331963445337442 $679 11.576836707585855 $331 $680 forward 7 unknown #
point $-1 44.753563035981323 -10.382354619477674 -5.7331963445337442 #
point $-1 44.753563035981323 -24.263514266728862 -5.7331963445337442 #
face $-1 $-1 $519 $47 $-1 $681 reversed single #
loop $-1 $-1 $511 $335 #
plane-surface $-1 -44.753563035981323 0 0 1 0 0 0 0 -1 forward_v I I I I #
coedge $-1 $682 $683 $338 $510 forward $336 $-1 #
coedge $-1 $339 $338 $346 $524 reversed $129 $-1 #
edge $-1 $684 -44.753563035981323 $513 44.753563035981323 $508 $685 forward 7 unknown #
coedge $-1 $686 $340 $342 $516 forward $506 $-1 #
coedge $-1 $340 $686 $682 $687 reversed $506 $-1 #
vertex $-1 $687 $688 #
vertex $-1 $516 $689 #
straight-curve $-1 -44.753563035981323 10.38235461947767 -4.3275082630299 0 0 1 I I #
edge $-1 $514 1.7208873979260382 $520 15.602047045177226 $511 $690 forward 7 unknown #
coedge $-1 $691 $343 $347 $525 forward $519 $-1 #
coedge $-1 $343 $691 $686 $692 reversed $519 $-1 #
loop $-1 $-1 $343 $505 #
vertex $-1 $692 $693 #
straight-curve $-1 0 24.263514266728862 -5.7331963445337442 1 0 0 I I #
straight-curve $-1 0 10.38235461947767 -5.7331963445337442 1 0 0 I I #
coedge $-1 $347 $346 $683 $694 reversed $204 $-1 #
edge $-1 $349 1.4056880815038442 $684 7.2493284445559549 $346 $695 forward 7 unknown #
edge $-1 $348 5.7331963445337442 $696 11.576836707585855 $347 $697 forward 7 unknown #
point $-1 44.753563035981323 24.263514266728858 -5.7331963445337442 #
point $-1 44.753563035981323 10.38235461947767 -5.7331963445337442 #
loop $-1 $-1 $359 $351 #
plane-surface $-1 0 0 11.576836707585855 0 0 1 1 0 0 forward_v I I I I #
coedge $-1 $531 $354 $356 $535 reversed $212 $-1 #
coedge $-1 $354 $530 $698 $699 reversed $212 $-1 #
coedge $-1 $362 $357 $354 $533 forward $352 $-1 #
edge $-1 $536 -33.479197742673904 $700 -26.427534319207545 $532 $701 forward 7 unknown #
coedge $-1 $356 $355 $539 $702 reversed $133 $-1 #
edge $-1 $703 -11.717326857777367 $536 1.7763522597878294e-014 $530 $704 forward 7 unknown #
vertex $-1 $358 $705 #
straight-curve $-1 -44.753563035981323 -3.0055454642905239 4.5251732841194938 0 -1 0 I I #
coedge $-1 $698 $359 $362 $543 forward $528 $-1 #
coedge $-1 $359 $698 $534 $702 forward $528 $-1 #
vertex $-1 $360 $706 #
straight-curve $-1 -49.310148433598599 -3.2496277007633489 11.576836707585855 -1 0 0 I I #
straight-curve $-1 -44.753563035981308 -3.2496277007633489 4.5251732841195036 0.79863550430605224 0 0.6018150307709319 I I #
edge $-1 $363 3.2496277007633489 $700 8.7725541563987477 $362 $707 forward 7 unknown #
point $-1 -44.753563035981323 -3.2496277007633489 11.576836707585855 #
point $-1 -44.753563035981323 -3.2496277007633489 4.5251732841194929 #
edge $-1 $708 1 $708 0 $366 $-1 forward 7 unknown #
vertex $-1 $367 $709 #
ellipse-curve $-1 -38.552043752954773 -6.0110909285810479 6.0304696002726299 -0.6018150307709319 0 0.79863550430605224 0.79863550430605224 0 0.6018150307709319 1 I I #
point $-1 -39.275990909585339 -6.0110909285810479 8.652820026623619 #
plane-surface $-1 -44.753563035981323 0 0 1 0 0 0 0 -1 forward_v I I I I #
coedge $-1 $561 $560 $553 $710 forward $371 $-1 #
coedge $-1 $553 $373 $375 $557 reversed $227 $-1 #
coedge $-1 $373 $552 $551 $710 reversed $227 $-1 #
coedge $-1 $381 $376 $373 $555 forward $382 $-1 #
edge $-1 $558 -33.479197742673904 $711 -26.427534319207545 $554 $712 forward 7 unknown #
coedge $-1 $375 $374 $561 $713 reversed $142 $-1 #
edge $-1 $714 -11.717326857777367 $558 1.7763522597878294e-014 $552 $715 forward 7 unknown #
vertex $-1 $377 $716 #
straight-curve $-1 -44.753563035981323 0 4.5251732841194938 0 -1 0 I I #
coedge $-1 $551 $378 $381 $565 forward $371 $-1 #
coedge $-1 $378 $551 $556 $713 forward $371 $-1 #
vertex $-1 $379 $717 #
straight-curve $-1 -49.310148433598599 2.7614632278176989 11.576836707585855 -1 0 0 I I #
straight-curve $-1 -44.753563035981308 2.7614632278176989 4.5251732841195036 0.79863550430605224 0 0.6018150307709319 I I #
edge $-1 $383 -2.7614632278176989 $711 2.7614632278176989 $381 $718 forward 7 unknown #
point $-1 -44.753563035981323 2.7614632278176989 11.576836707585855 #
point $-1 -44.753563035981323 2.7614632278176989 4.5251732841194929 #
edge $-1 $719 1 $719 0 $386 $-1 forward 7 unknown #
vertex $-1 $387 $720 #
ellipse-curve $-1 -38.552043752954773 0 6.0304696002726299 -0.6018150307709319 0 0.79863550430605224 0.79863550430605224 0 0.6018150307709319 1 I I #
point $-1 -39.275990909585339 0 8.652820026623619 #
plane-surface $-1 -44.753563035981323 0 0 1 0 0 0 0 -1 forward_v I I I I #
coedge $-1 $583 $582 $575 $721 forward $391 $-1 #
coedge $-1 $575 $393 $395 $579 reversed $242 $-1 #
coedge $-1 $393 $574 $573 $721 reversed $242 $-1 #
coedge $-1 $401 $396 $393 $577 forward $402 $-1 #
edge $-1 $580 -33.479197742673904 $722 -26.427534319207545 $576 $723 forward 7 unknown #
coedge $-1 $395 $394 $583 $724 reversed $151 $-1 #
edge $-1 $725 -11.717326857777367 $580 1.7763522597878294e-014 $574 $726 forward 7 unknown #
vertex $-1 $397 $727 #
straight-curve $-1 -44.753563035981323 3.0055454642905239 4.5251732841194938 0 -1 0 I I #
coedge $-1 $573 $398 $401 $587 forward $391 $-1 #
coedge $-1 $398 $573 $578 $724 forward $391 $-1 #
vertex $-1 $399 $728 #
straight-curve $-1 -49.310148433598599 8.7725541563987477 11.576836707585855 -1 0 0 I I #
straight-curve $-1 -44.753563035981308 8.7725541563987477 4.5251732841195036 0.79863550430605224 0 0.6018150307709319 I I #
edge $-1 $403 -8.7725541563987477 $722 -3.2496277007633489 $401 $729 forward 7 unknown #
point $-1 -44.753563035981323 8.7725541563987477 11.576836707585855 #
point $-1 -44.753563035981323 8.7725541563987477 4.5251732841194929 #
edge $-1 $730 1 $730 0 $406 $-1 forward 7 unknown #
vertex $-1 $407 $731 #
ellipse-curve $-1 -38.552043752954773 6.0110909285810479 6.0304696002726299 -0.6018150307709319 0 0.79863550430605224 0.79863550430605224 0 0.6018150307709319 1 I I #
point $-1 -39.275990909585339 6.0110909285810479 8.652820026623619 #
loop $-1 $-1 $418 $410 #
plane-surface $-1 44.753563035981323 0 0 -1 0 0 0 0 1 forward_v I I I I #
coedge $-1 $597 $413 $415 $601 reversed $257 $-1 #
coedge $-1 $413 $596 $732 $733 reversed $257 $-1 #
coedge $-1 $421 $416 $413 $599 forward $411 $-1 #
edge $-1 $602 9.6537290785638596 $734 15.761059706754306 $598 $735 forward 7 unknown #
coedge $-1 $415 $414 $605 $736 reversed $160 $-1 #
edge $-1 $737 -89.507126071962659 $602 -79.80248148357559 $596 $738 forward 7 unknown #
vertex $-1 $417 $739 #
straight-curve $-1 38.646232407790876 -3.7130041923909989 11.576836707585855 0 -1 0 I I #
coedge $-1 $732 $418 $421 $609 reversed $594 $-1 #
coedge $-1 $418 $732 $600 $736 forward $594 $-1 #
vertex $-1 $419 $740 #
straight-curve $-1 44.753563035981323 -4.4696621500863243 64.961836116924815 0 0 1 I I #
straight-curve $-1 -11.575095630688686 -4.4696621500863243 73.59501356717962 0.62932038083071107 0 -0.77714596973225614 I I #
edge $-1 $734 -10.38235461947767 $422 -4.4696621500863243 $604 $741 forward 7 unknown #
point $-1 44.753563035981323 -4.4696621500863243 11.576836707585855 #
point $-1 38.646232407790876 -4.4696621500863243 11.576836707585855 #
edge $-1 $742 1 $742 0 $425 $-1 forward 7 unknown #
vertex $-1 $426 $743 #
ellipse-curve $-1 40.449246984774497 -8.6930139139372873 6.7931170220244841 0.77714596973225614 0 0.62932038083071107 0.31466019041535553 0 -0.38857298486612807 1 I I #
point $-1 42.01455791230147 -8.6930139139372873 7.4173010079452641 #
edge $-1 $744 1 $744 0 $429 $-1 forward 7 unknown #
vertex $-1 $430 $745 #
ellipse-curve $-1 40.449246984774497 -6.15900285562671 6.7931170220244841 0.77714596973225614 0 0.62932038083071107 0.31466019041535553 0 -0.38857298486612807 1 I I #
point $-1 42.01455791230147 -6.15900285562671 7.4173010079452641 #
plane-surface $-1 0 0 11.576836707585855 0 0 1 1 0 0 forward_v I I I I #
coedge $-1 $631 $630 $623 $746 forward $434 $-1 #
coedge $-1 $623 $436 $438 $627 reversed $279 $-1 #
coedge $-1 $436 $622 $621 $746 reversed $279 $-1 #
coedge $-1 $444 $439 $436 $625 forward $445 $-1 #
edge $-1 $628 9.6537290785638596 $747 15.761059706754306 $624 $748 forward 7 unknown #
coedge $-1 $438 $437 $631 $749 reversed $174 $-1 #
edge $-1 $750 -89.507126071962659 $628 -79.80248148357559 $622 $751 forward 7 unknown #
vertex $-1 $440 $752 #
straight-curve $-1 38.646232407790876 1.4781731173478381 11.576836707585855 0 -1 0 I I #
coedge $-1 $621 $441 $444 $635 reversed $434 $-1 #
coedge $-1 $441 $621 $626 $749 forward $434 $-1 #
vertex $-1 $442 $753 #
straight-curve $-1 44.753563035981323 5.9126924693913496 64.961836116924815 0 0 1 I I #
straight-curve $-1 -11.575095630688686 5.9126924693913496 73.59501356717962 0.62932038083071107 0 -0.77714596973225614 I I #
edge $-1 $747 2.6645352591003757e-015 $446 5.9126924693913496 $630 $754 forward 7 unknown #
point $-1 44.753563035981323 5.9126924693913496 11.576836707585855 #
point $-1 38.646232407790876 5.9126924693913496 11.576836707585855 #
edge $-1 $755 1 $755 0 $449 $-1 forward 7 unknown #
vertex $-1 $450 $756 #
ellipse-curve $-1 40.449246984774497 1.6893407055403884 6.7931170220244841 0.77714596973225614 0 0.62932038083071107 0.31466019041535553 0 -0.38857298486612807 1 I I #
point $-1 42.01455791230147 1.6893407055403884 7.4173010079452641 #
edge $-1 $757 1 $757 0 $453 $-1 forward 7 unknown #
vertex $-1 $454 $758 #
ellipse-curve $-1 40.449246984774497 4.2233517638509639 6.7931170220244841 0.77714596973225614 0 0.62932038083071107 0.31466019041535553 0 -0.38857298486612807 1 I I #
point $-1 42.01455791230147 4.2233517638509639 7.4173010079452641 #
plane-surface $-1 44.753563035981323 0 0 -1 0 0 0 0 1 forward_v I I I I #
coedge $-1 $462 $460 $464 $651 reversed $301 $-1 #
edge $-1 $475 -11.576836707585855 $653 11.576836707585855 $474 $759 forward 7 unknown #
vertex $-1 $651 $760 #
straight-curve $-1 -44.753563035981323 -24.263514266728862 0 0 0 -1 I I #
edge $-1 $649 -24.263514266728862 $653 24.263514266728862 $647 $761 forward 7 unknown #
straight-curve $-1 0 -24.263514266728862 -11.576836707585855 -1 0 0 I I #
vertex $-1 $467 $762 #
straight-curve $-1 0 24.263514266728862 -11.576836707585855 1 0 0 I I #
point $-1 44.753563035981323 24.263514266728862 -11.576836707585855 #
point $-1 44.753563035981323 -24.263514266728862 -11.576836707585855 #
straight-curve $-1 -44.753563035981323 0 11.576836707585855 0 -1 0 I I #
point $-1 -44.753563035981323 24.263514266728862 11.576836707585855 #
point $-1 -44.753563035981323 -24.263514266728862 11.576836707585855 #
straight-curve $-1 44.753563035981323 -24.263514266728862 0 0 0 -1 I I #
straight-curve $-1 44.753563035981323 24.263514266728862 0 0 0 -1 I I #
loop $-1 $-1 $670 $484 #
plane-surface $-1 -44.753563035981323 0 0 1 0 0 0 0 -1 forward_v I I I I #
coedge $-1 $488 $487 $676 $763 forward $196 $-1 #
edge $-1 $492 10.382354619477674 $679 24.263514266728862 $491 $764 forward 7 unknown #
coedge $-1 $673 $670 $488 $667 reversed $662 $-1 #
edge $-1 $765 -24.263514266728862 $668 -10.382354619477674 $666 $766 forward 7 unknown #
vertex $-1 $671 $767 #
straight-curve $-1 0 -10.382354619477674 -11.576836707585855 1 0 0 I I #
coedge $-1 $666 $494 $490 $671 forward $662 $-1 #
edge $-1 $496 1.4056880815038442 $668 7.2493284445559549 $670 $768 forward 7 unknown #
point $-1 44.753563035981323 -10.382354619477674 -11.576836707585855 #
coedge $-1 $494 $666 $498 $677 reversed $662 $-1 #
straight-curve $-1 -44.753563035981323 -8.661467221551634 -5.7331963445337442 0 1 0 I I #
point $-1 -44.753563035981323 -10.382354619477674 -5.7331963445337442 #
coedge $-1 $499 $498 $664 $763 reversed $485 $-1 #
edge $-1 $500 5.7331963445337442 $765 11.576836707585855 $673 $769 forward 7 unknown #
point $-1 -44.753563035981323 -24.263514266728862 -5.7331963445337442 #
vertex $-1 $502 $770 #
straight-curve $-1 44.753563035981323 -24.263514266728862 0 0 0 -1 I I #
plane-surface $-1 0 24.263514266728862 0 0 -1 0 0 0 -1 forward_v I I I I #
coedge $-1 $771 $508 $512 $687 forward $336 $-1 #
coedge $-1 $508 $771 $523 $694 forward $336 $-1 #
vertex $-1 $510 $772 #
straight-curve $-1 0 10.38235461947767 -11.576836707585855 -1 0 0 I I #
coedge $-1 $512 $511 $518 $692 forward $506 $-1 #
edge $-1 $513 10.38235461947767 $773 24.263514266728862 $512 $774 forward 7 unknown #
point $-1 -44.753563035981323 10.38235461947767 -11.576836707585855 #
point $-1 -44.753563035981323 10.38235461947767 -5.7331963445337442 #
straight-curve $-1 -44.753563035981323 8.6614672215516322 -5.7331963445337442 0 1 0 I I #
coedge $-1 $518 $517 $771 $775 reversed $519 $-1 #
edge $-1 $520 5.7331963445337442 $773 11.576836707585855 $518 $776 forward 7 unknown #
point $-1 -44.753563035981323 24.263514266728858 -5.7331963445337442 #
edge $-1 $696 -24.263514266728862 $684 -10.38235461947767 $523 $777 forward 7 unknown #
straight-curve $-1 44.753563035981323 10.38235461947767 -4.3275082630299 0 0 -1 I I #
vertex $-1 $694 $778 #
straight-curve $-1 44.753563035981323 24.263514266728862 0 0 0 -1 I I #
coedge $-1 $539 $538 $531 $699 forward $528 $-1 #
edge $-1 $700 4.5565853976172761 $703 13.914458641797168 $698 $779 forward 7 unknown #
vertex $-1 $699 $780 #
straight-curve $-1 -44.753563035981323 -8.7725541563987477 38.0043710267934 0 0 1 I I #
edge $-1 $703 -5.7670086921082238 $540 -0.24408223647282501 $539 $781 forward 7 unknown #
vertex $-1 $702 $782 #
straight-curve $-1 -44.753563035981308 -8.7725541563987477 4.5251732841195036 -0.79863550430605224 0 -0.6018150307709319 I I #
point $-1 -44.753563035981323 -8.7725541563987477 4.5251732841194929 #
point $-1 -35.395689791801431 -3.2496277007633489 11.576836707585855 #
straight-curve $-1 -44.753563035981323 0 11.576836707585855 0 -1 0 I I #
vertex $-1 $546 $783 #
point $-1 -37.753408248648718 -6.0110909285810479 6.6322846310435617 #
edge $-1 $711 4.5565853976172761 $714 13.914458641797168 $551 $784 forward 7 unknown #
vertex $-1 $710 $785 #
straight-curve $-1 -44.753563035981323 -2.7614632278176989 38.0043710267934 0 0 1 I I #
edge $-1 $714 -2.7614632278176989 $562 2.7614632278176989 $561 $786 forward 7 unknown #
vertex $-1 $713 $787 #
straight-curve $-1 -44.753563035981308 -2.7614632278176989 4.5251732841195036 -0.79863550430605224 0 -0.6018150307709319 I I #
point $-1 -44.753563035981323 -2.7614632278176989 4.5251732841194929 #
point $-1 -35.395689791801431 2.7614632278176989 11.576836707585855 #
straight-curve $-1 -44.753563035981323 0 11.576836707585855 0 -1 0 I I #
vertex $-1 $568 $788 #
point $-1 -37.753408248648718 0 6.6322846310435617 #
edge $-1 $722 4.5565853976172761 $725 13.914458641797168 $573 $789 forward 7 unknown #
vertex $-1 $577 $790 #
straight-curve $-1 -44.753563035981323 3.2496277007633489 38.0043710267934 0 0 1 I I #
edge $-1 $725 0.24408223647282501 $584 5.7670086921082238 $583 $791 forward 7 unknown #
vertex $-1 $724 $792 #
straight-curve $-1 -44.753563035981308 3.2496277007633489 4.5251732841195036 -0.79863550430605224 0 -0.6018150307709319 I I #
point $-1 -44.753563035981323 3.2496277007633489 4.5251732841194929 #
point $-1 -35.395689791801431 8.7725541563987477 11.576836707585855 #
straight-curve $-1 -44.753563035981323 0 11.576836707585855 0 -1 0 I I #
vertex $-1 $590 $793 #
point $-1 -37.753408248648718 6.0110909285810479 6.6322846310435617 #
coedge $-1 $605 $604 $597 $733 forward $594 $-1 #
edge $-1 $734 53.38499940933896 $737 60.926924838887928 $732 $794 forward 7 unknown #
vertex $-1 $609 $795 #
straight-curve $-1 28.992503329227016 -10.38235461947767 11.576836707585855 1 0 0 I I #
edge $-1 $737 -6.6693504270866715 $606 -0.7566579576953254 $605 $796 forward 7 unknown #
vertex $-1 $736 $797 #
straight-curve $-1 -11.575095630688686 -10.38235461947767 73.59501356717962 -0.62932038083071107 0 0.77714596973225614 I I #
point $-1 38.646232407790876 -10.38235461947767 11.576836707585855 #
point $-1 44.753563035981323 -4.4696621500863243 4.034911278036887 #
straight-curve $-1 44.753563035981323 0 11.576836707585855 0 1 0 I I #
vertex $-1 $612 $798 #
point $-1 40.76390717518985 -8.6930139139372873 6.404544037158356 #
vertex $-1 $616 $799 #
point $-1 40.76390717518985 -6.15900285562671 6.404544037158356 #
edge $-1 $747 53.38499940933896 $750 60.926924838887928 $621 $800 forward 7 unknown #
vertex $-1 $635 $801 #
straight-curve $-1 28.992503329227016 2.6645352591003757e-015 11.576836707585855 1 0 0 I I #
edge $-1 $750 -1.4781731173478354 $632 4.4345193520435116 $631 $802 forward 7 unknown #
vertex $-1 $749 $803 #
straight-curve $-1 -11.575095630688686 2.6645352591003757e-015 73.59501356717962 -0.62932038083071107 0 0.77714596973225614 I I #
point $-1 38.646232407790876 2.6645352591003757e-015 11.576836707585855 #
point $-1 44.753563035981323 5.9126924693913496 4.034911278036887 #
straight-curve $-1 44.753563035981323 0 11.576836707585855 0 1 0 I I #
vertex $-1 $638 $804 #
point $-1 40.76390717518985 1.6893407055403884 6.404544037158356 #
vertex $-1 $642 $805 #
point $-1 40.76390717518985 4.2233517638509639 6.404544037158356 #
straight-curve $-1 -44.753563035981323 24.263514266728862 0 0 0 -1 I I #
point $-1 -44.753563035981323 -24.263514266728862 -11.576836707585855 #
straight-curve $-1 -44.753563035981323 0 -11.576836707585855 0 1 0 I I #
point $-1 -44.753563035981323 24.263514266728862 -11.576836707585855 #
edge $-1 $679 -44.753563035981323 $765 44.753563035981323 $676 $806 forward 7 unknown #
straight-curve $-1 44.753563035981323 0 -11.576836707585855 0 -1 0 I I #
vertex $-1 $667 $807 #
straight-curve $-1 -44.753563035981323 0 -11.576836707585855 0 1 0 I I #
point $-1 -44.753563035981323 -10.382354619477674 -11.576836707585855 #
straight-curve $-1 -44.753563035981323 -10.382354619477674 -4.3275082630299 0 0 -1 I I #
straight-curve $-1 -44.753563035981323 -24.263514266728862 0 0 0 -1 I I #
point $-1 44.753563035981323 -24.263514266728862 -11.576836707585855 #
coedge $-1 $683 $682 $691 $775 forward $336 $-1 #
point $-1 44.753563035981323 10.38235461947767 -11.576836707585855 #
vertex $-1 $775 $808 #
straight-curve $-1 -44.753563035981323 0 -11.576836707585855 0 1 0 I I #
edge $-1 $773 -44.753563035981323 $696 44.753563035981323 $691 $809 forward 7 unknown #
straight-curve $-1 -44.753563035981323 24.263514266728862 0 0 0 -1 I I #
straight-curve $-1 44.753563035981323 0 -11.576836707585855 0 -1 0 I I #
point $-1 44.753563035981323 24.263514266728862 -11.576836707585855 #
straight-curve $-1 -49.310148433598599 -8.7725541563987477 11.576836707585855 1 0 0 I I #
point $-1 -44.753563035981323 -8.7725541563987477 11.576836707585855 #
straight-curve $-1 -35.395689791801431 -3.0055454642905239 11.576836707585855 0 1 0 I I #
point $-1 -35.395689791801431 -8.7725541563987477 11.576836707585855 #
point $-1 -37.950228722183837 -6.0110909285810479 5.2318340959665779 #
straight-curve $-1 -49.310148433598599 -2.7614632278176989 11.576836707585855 1 0 0 I I #
point $-1 -44.753563035981323 -2.7614632278176989 11.576836707585855 #
straight-curve $-1 -35.395689791801431 0 11.576836707585855 0 1 0 I I #
point $-1 -35.395689791801431 -2.7614632278176989 11.576836707585855 #
point $-1 -37.950228722183837 0 5.2318340959665779 #
straight-curve $-1 -49.310148433598599 3.2496277007633489 11.576836707585855 1 0 0 I I #
point $-1 -44.753563035981323 3.2496277007633489 11.576836707585855 #
straight-curve $-1 -35.395689791801431 3.0055454642905239 11.576836707585855 0 1 0 I I #
point $-1 -35.395689791801431 3.2496277007633489 11.576836707585855 #
point $-1 -37.950228722183837 6.0110909285810479 5.2318340959665779 #
straight-curve $-1 44.753563035981323 -10.38235461947767 64.961836116924815 0 0 -1 I I #
point $-1 44.753563035981323 -10.38235461947767 11.576836707585855 #
straight-curve $-1 44.753563035981323 -3.7130041923909989 4.0349112780368941 0 1 0 I I #
point $-1 44.753563035981323 -10.38235461947767 4.034911278036887 #
point $-1 40.060673999908367 -8.6930139139372873 6.4784568316091278 #
point $-1 40.060673999908367 -6.15900285562671 6.4784568316091278 #
straight-curve $-1 44.753563035981323 2.6645352591003757e-015 64.961836116924815 0 0 -1 I I #
point $-1 44.753563035981323 2.6645352591003757e-015 11.576836707585855 #
straight-curve $-1 44.753563035981323 1.4781731173478381 4.0349112780368941 0 1 0 I I #
point $-1 44.753563035981323 2.6645352591003757e-015 4.034911278036887 #
point $-1 40.060673999908367 1.6893407055403884 6.4784568316091278 #
point $-1 40.060673999908367 4.2233517638509639 6.4784568316091278 #
straight-curve $-1 0 -24.263514266728862 -11.576836707585855 -1 0 0 I I #
point $-1 -44.753563035981323 -24.263514266728862 -11.576836707585855 #
point $-1 -44.753563035981323 24.263514266728862 -11.576836707585855 #
straight-curve $-1 0 24.263514266728862 -11.576836707585855 1 0 0 I I #
End-of-ACIS-data 