500 0 9 0           
7 Unknown 11 ACIS 5.0 NT 24 Fri Mar 26 20:09:58 1999 
-1 9.9999999999999995e-007 1e-010 
body $-1 $9 $-1 $10 #
body $-1 $11 $-1 $12 #
body $-1 $13 $-1 $14 #
body $-1 $15 $-1 $16 #
body $-1 $17 $-1 $18 #
body $-1 $19 $-1 $20 #
body $-1 $21 $-1 $22 #
body $-1 $23 $-1 $24 #
body $-1 $25 $-1 $26 #
lump $-1 $-1 $27 $0 #
transform $-1 1 0 0 0 1 0 0 0 1 40.952177495651114 25.820356034704236 8.5178728158554478 1 rotate no_reflect no_shear #
lump $-1 $-1 $28 $1 #
transform $-1 1 0 0 0 1 0 0 0 1 40.952177495651114 25.820356034704236 8.5178728158554478 1 rotate no_reflect no_shear #
lump $-1 $-1 $29 $2 #
transform $-1 1 0 0 0 1 0 0 0 1 40.952177495651114 25.820356034704236 8.5178728158554478 1 rotate no_reflect no_shear #
lump $-1 $-1 $30 $3 #
transform $-1 1 0 0 0 1 0 0 0 1 40.952177495651114 25.820356034704236 8.5178728158554478 1 rotate no_reflect no_shear #
lump $-1 $-1 $31 $4 #
transform $-1 1 0 0 0 1 0 0 0 1 40.952177495651114 25.820356034704236 8.5178728158554478 1 rotate no_reflect no_shear #
lump $-1 $-1 $32 $5 #
transform $-1 1 0 0 0 1 0 0 0 1 40.952177495651114 25.820356034704236 8.5178728158554478 1 rotate no_reflect no_shear #
lump $-1 $-1 $33 $6 #
transform $-1 1 0 0 0 1 0 0 0 1 40.952177495651114 25.820356034704236 8.5178728158554478 1 rotate no_reflect no_shear #
lump $-1 $-1 $34 $7 #
transform $-1 1 0 0 0 1 0 0 0 1 40.952177495651114 25.820356034704236 8.5178728158554478 1 rotate no_reflect no_shear #
lump $-1 $-1 $35 $8 #
transform $-1 1 0 0 0 1 0 0 0 1 40.952177495651114 25.820356034704236 8.5178728158554478 1 rotate no_reflect no_shear #
shell $-1 $-1 $-1 $36 $-1 $9 #
shell $-1 $-1 $-1 $37 $-1 $11 #
shell $-1 $-1 $-1 $38 $-1 $13 #
shell $-1 $-1 $-1 $39 $-1 $15 #
shell $-1 $-1 $-1 $40 $-1 $17 #
shell $-1 $-1 $-1 $41 $-1 $19 #
shell $-1 $-1 $-1 $42 $-1 $21 #
shell $-1 $-1 $-1 $43 $-1 $23 #
shell $-1 $-1 $-1 $44 $-1 $25 #
face $-1 $45 $46 $27 $-1 $47 reversed single #
face $-1 $48 $49 $28 $-1 $50 forward single #
face $-1 $51 $52 $29 $-1 $53 reversed single #
face $-1 $54 $55 $30 $-1 $56 forward single #
face $-1 $57 $58 $31 $-1 $59 forward single #
face $-1 $60 $61 $32 $-1 $62 forward single #
face $-1 $63 $64 $33 $-1 $65 reversed single #
face $-1 $66 $67 $34 $-1 $68 forward single #
face $-1 $69 $70 $35 $-1 $71 forward single #
face $-1 $72 $73 $27 $-1 $74 forward single #
loop $-1 $-1 $75 $36 #
plane-surface $-1 0 -25.820356034704236 0 0 1 0 0 0 1 forward_v I I I I #
face $-1 $76 $77 $28 $-1 $78 reversed single #
loop $-1 $-1 $79 $37 #
plane-surface $-1 0 -25.820356034704236 0 0 1 0 0 0 1 forward_v I I I I #
face $-1 $80 $81 $29 $-1 $82 reversed single #
loop $-1 $-1 $83 $38 #
plane-surface $-1 -93.599282710513961 14.639069393921663 65.934177014228624 0 1 0 -0.64278761758704617 0 0.76604443648966558 forward_v I I I I #
face $-1 $84 $85 $30 $-1 $86 forward single #
loop $-1 $87 $88 $39 #
cone-surface $-1 -36.766664353643961 16.875326722078174 4.6489840675835774 0.64278761758704617 0 -0.76604443648966558 0.76604443648966558 0 0.64278761758704617 1 I I 0 1 1 forward I I I I #
face $-1 $89 $90 $31 $-1 $91 forward single #
loop $-1 $92 $93 $40 #
cone-surface $-1 -36.766664353643961 20.229712714312949 4.6489840675835774 0.64278761758704617 0 -0.76604443648966558 0.76604443648966558 0 0.64278761758704617 1 I I 0 1 1 forward I I I I #
face $-1 $94 $95 $32 $-1 $96 forward single #
loop $-1 $97 $98 $41 #
cone-surface $-1 -36.766664353643961 23.584098706547724 4.6489840675835774 0.64278761758704617 0 -0.76604443648966558 0.76604443648966558 0 0.64278761758704617 1 I I 0 1 1 forward I I I I #
face $-1 $99 $100 $33 $-1 $101 reversed single #
loop $-1 $-1 $102 $42 #
plane-surface $-1 22.832335418688317 16.613692296416055 114.96393970357718 0 -1 0 -0.5877852598018023 0 -0.80901698891910034 forward_v I I I I #
face $-1 $103 $104 $34 $-1 $105 forward single #
loop $-1 $106 $107 $43 #
cone-surface $-1 34.559611743674566 8.8900605219760216 3.2782403794142141 -0.5877852598018023 0 -0.80901698891910034 0.80901698891910034 0 -0.5877852598018023 1 I I 0 1 1 forward I I I I #
face $-1 $108 $109 $35 $-1 $110 forward single #
loop $-1 $111 $112 $44 #
cone-surface $-1 34.559611743674566 13.524239586640039 3.2782403794142141 -0.5877852598018023 0 -0.80901698891910034 0.80901698891910034 0 -0.5877852598018023 1 I I 0 1 1 forward I I I I #
face $-1 $113 $114 $27 $-1 $115 reversed single #
loop $-1 $-1 $116 $45 #
plane-surface $-1 0 0 8.5178728158554478 0 0 1 1 0 0 forward_v I I I I #
coedge $-1 $117 $118 $119 $120 reversed $46 $-1 #
face $-1 $121 $122 $28 $-1 $123 reversed single #
loop $-1 $-1 $124 $48 #
plane-surface $-1 0 0 -8.5178728158554478 0 0 1 1 0 0 forward_v I I I I #
coedge $-1 $125 $126 $127 $128 forward $49 $-1 #
face $-1 $129 $130 $29 $-1 $131 reversed single #
loop $-1 $-1 $132 $51 #
plane-surface $-1 -40.952177495651107 20.229712714312949 3.1918015488669838 -0.64278761758704617 0 0.76604443648966558 0.76604443648966558 0 0.64278761758704617 forward_v I I I I #
coedge $-1 $133 $134 $135 $136 reversed $52 $-1 #
face $-1 $-1 $137 $30 $-1 $138 forward single #
loop $-1 $139 $140 $54 #
cone-surface $-1 -35.433439619793795 16.875326722078174 3.060108734561112 0.64278761758704617 0 -0.76604443648966558 0.38302221824483279 0 0.32139380879352308 1 I I -0.70710678118654746 0.70710678118654746 0.5 forward I I I I #
loop $-1 $-1 $141 $39 #
coedge $-1 $88 $88 $142 $143 reversed $55 $-1 #
face $-1 $-1 $144 $31 $-1 $145 forward single #
loop $-1 $146 $147 $57 #
cone-surface $-1 -35.433439619793795 20.229712714312949 3.060108734561112 0.64278761758704617 0 -0.76604443648966558 0.38302221824483279 0 0.32139380879352308 1 I I -0.70710678118654746 0.70710678118654746 0.5 forward I I I I #
loop $-1 $-1 $148 $40 #
coedge $-1 $93 $93 $149 $150 reversed $58 $-1 #
face $-1 $-1 $151 $32 $-1 $152 forward single #
loop $-1 $153 $154 $60 #
cone-surface $-1 -35.433439619793795 23.584098706547724 3.060108734561112 0.64278761758704617 0 -0.76604443648966558 0.38302221824483279 0 0.32139380879352308 1 I I -0.70710678118654746 0.70710678118654746 0.5 forward I I I I #
loop $-1 $-1 $155 $41 #
coedge $-1 $98 $98 $156 $157 reversed $61 $-1 #
face $-1 $158 $159 $33 $-1 $160 reversed single #
loop $-1 $-1 $161 $63 #
plane-surface $-1 -25.309837158773306 11.207150054308034 48.701925049152763 0.5877852598018023 0 0.80901698891910034 0.80901698891910034 0 -0.5877852598018023 forward_v I I I I #
coedge $-1 $162 $163 $164 $165 reversed $64 $-1 #
face $-1 $-1 $166 $34 $-1 $167 forward single #
loop $-1 $168 $169 $66 #
cone-surface $-1 33.349859736215734 8.8900605219760216 1.6131596205955958 -0.5877852598018023 0 -0.80901698891910034 0.40450849445955017 0 -0.29389262990090115 1 I I -0.70710678118654746 0.70710678118654746 0.5 forward I I I I #
loop $-1 $-1 $170 $43 #
coedge $-1 $107 $107 $171 $172 reversed $67 $-1 #
face $-1 $-1 $173 $35 $-1 $174 forward single #
loop $-1 $175 $176 $69 #
cone-surface $-1 33.349859736215734 13.524239586640039 1.6131596205955958 -0.5877852598018023 0 -0.80901698891910034 0.40450849445955017 0 -0.29389262990090115 1 I I -0.70710678118654746 0.70710678118654746 0.5 forward I I I I #
loop $-1 $-1 $177 $44 #
coedge $-1 $112 $112 $178 $179 reversed $70 $-1 #
face $-1 $180 $181 $27 $-1 $182 reversed single #
loop $-1 $-1 $183 $72 #
plane-surface $-1 0 0 -8.5178728158554478 0 0 1 1 0 0 forward_v I I I I #
coedge $-1 $184 $185 $186 $187 forward $73 $-1 #
coedge $-1 $188 $75 $189 $190 reversed $46 $-1 #
coedge $-1 $75 $188 $191 $192 forward $46 $-1 #
coedge $-1 $193 $183 $75 $120 forward $114 $-1 #
edge $-1 $194 -40.952177495651114 $195 40.952177495651114 $75 $196 forward 7 unknown #
face $-1 $197 $198 $28 $-1 $199 reversed single #
loop $-1 $-1 $200 $76 #
plane-surface $-1 -25.416431863940218 -35.734289670445023 0 0 1 0 0 0 1 forward_v I I I I #
coedge $-1 $201 $202 $126 $203 forward $77 $-1 #
coedge $-1 $204 $79 $205 $206 reversed $49 $-1 #
coedge $-1 $79 $204 $124 $203 reversed $49 $-1 #
coedge $-1 $207 $208 $79 $128 reversed $198 $-1 #
edge $-1 $209 -8.5178728158554478 $210 8.5178728158554478 $127 $211 forward 7 unknown #
face $-1 $212 $213 $29 $-1 $214 forward single #
loop $-1 $-1 $215 $80 #
plane-surface $-1 -40.952177495651114 0 0 1 0 0 0 0 -1 forward_v I I I I #
coedge $-1 $216 $217 $218 $219 reversed $81 $-1 #
coedge $-1 $134 $83 $220 $221 reversed $52 $-1 #
coedge $-1 $83 $133 $216 $222 reversed $52 $-1 #
coedge $-1 $218 $223 $83 $136 forward $213 $-1 #
edge $-1 $224 5.8474638596058668 $225 12.19482829350688 $135 $226 forward 7 unknown #
loop $-1 $-1 $142 $84 #
plane-surface $-1 -40.952177495651107 20.229712714312949 3.1918015488669838 -0.64278761758704617 0 0.76604443648966558 0.76604443648966558 0 0.64278761758704617 forward_v I I I I #
loop $-1 $-1 $227 $54 #
coedge $-1 $140 $140 $141 $228 reversed $85 $-1 #
coedge $-1 $141 $141 $140 $228 forward $87 $-1 #
coedge $-1 $142 $142 $88 $143 forward $137 $-1 #
edge $-1 $229 0 $229 6.2831853071796004 $142 $230 forward 7 unknown #
loop $-1 $-1 $149 $89 #
plane-surface $-1 -40.952177495651107 20.229712714312949 3.1918015488669838 -0.64278761758704617 0 0.76604443648966558 0.76604443648966558 0 0.64278761758704617 forward_v I I I I #
loop $-1 $-1 $231 $57 #
coedge $-1 $147 $147 $148 $232 reversed $90 $-1 #
coedge $-1 $148 $148 $147 $232 forward $92 $-1 #
coedge $-1 $149 $149 $93 $150 forward $144 $-1 #
edge $-1 $233 0 $233 6.2831853071796004 $149 $234 forward 7 unknown #
loop $-1 $-1 $156 $94 #
plane-surface $-1 -40.952177495651107 20.229712714312949 3.1918015488669838 -0.64278761758704617 0 0.76604443648966558 0.76604443648966558 0 0.64278761758704617 forward_v I I I I #
loop $-1 $-1 $235 $60 #
coedge $-1 $154 $154 $155 $236 reversed $95 $-1 #
coedge $-1 $155 $155 $154 $236 forward $97 $-1 #
coedge $-1 $156 $156 $98 $157 forward $151 $-1 #
edge $-1 $237 0 $237 6.2831853071796004 $156 $238 forward 7 unknown #
face $-1 $239 $240 $33 $-1 $241 forward single #
loop $-1 $-1 $242 $99 #
plane-surface $-1 22.832335418688317 5.8006078122000115 114.96393970357718 0 1 0 0.5877852598018023 0 0.80901698891910034 forward_v I I I I #
coedge $-1 $243 $244 $245 $246 reversed $100 $-1 #
coedge $-1 $163 $102 $247 $248 reversed $64 $-1 #
coedge $-1 $102 $162 $243 $249 reversed $64 $-1 #
coedge $-1 $245 $250 $102 $165 forward $240 $-1 #
edge $-1 $251 -29.536009786306956 $252 -18.58259703746976 $164 $253 forward 7 unknown #
loop $-1 $-1 $171 $103 #
plane-surface $-1 -25.309837158773306 11.207150054308034 48.701925049152763 0.5877852598018023 0 0.80901698891910034 0.80901698891910034 0 -0.5877852598018023 forward_v I I I I #
loop $-1 $-1 $254 $66 #
coedge $-1 $169 $169 $170 $255 reversed $104 $-1 #
coedge $-1 $170 $170 $169 $255 forward $106 $-1 #
coedge $-1 $171 $171 $107 $172 forward $166 $-1 #
edge $-1 $256 0 $256 6.2831853071796004 $171 $257 forward 7 unknown #
loop $-1 $-1 $178 $108 #
plane-surface $-1 -25.309837158773306 11.207150054308034 48.701925049152763 0.5877852598018023 0 0.80901698891910034 0.80901698891910034 0 -0.5877852598018023 forward_v I I I I #
loop $-1 $-1 $258 $69 #
coedge $-1 $176 $176 $177 $259 reversed $109 $-1 #
coedge $-1 $177 $177 $176 $259 forward $111 $-1 #
coedge $-1 $178 $178 $112 $179 forward $173 $-1 #
edge $-1 $260 0 $260 6.2831853071796004 $178 $261 forward 7 unknown #
face $-1 $262 $263 $27 $-1 $264 reversed single #
loop $-1 $-1 $265 $113 #
plane-surface $-1 -40.952177495651114 0 0 1 0 0 0 0 -1 forward_v I I I I #
coedge $-1 $119 $266 $267 $268 forward $114 $-1 #
coedge $-1 $269 $116 $270 $271 forward $73 $-1 #
coedge $-1 $116 $269 $188 $272 forward $73 $-1 #
coedge $-1 $189 $273 $116 $187 reversed $274 $-1 #
edge $-1 $275 -25.820356034704236 $276 25.820356034704236 $186 $277 forward 7 unknown #
coedge $-1 $118 $117 $185 $272 reversed $46 $-1 #
coedge $-1 $267 $186 $117 $190 forward $274 $-1 #
edge $-1 $275 -8.5178728158554478 $194 8.5178728158554478 $189 $278 forward 7 unknown #
coedge $-1 $279 $280 $118 $192 reversed $181 $-1 #
edge $-1 $281 -8.5178728158554478 $195 8.5178728158554478 $191 $282 forward 7 unknown #
coedge $-1 $266 $119 $280 $283 forward $114 $-1 #
vertex $-1 $190 $284 #
vertex $-1 $283 $285 #
straight-curve $-1 0 -25.820356034704236 -8.5178728158554478 -1 0 0 I I #
face $-1 $286 $287 $28 $-1 $288 reversed single #
loop $-1 $-1 $127 $121 #
plane-surface $-1 -26.916431863940218 -30.777322852574628 0 1 0 0 0 0 -1 forward_v I I I I #
coedge $-1 $289 $290 $291 $292 forward $122 $-1 #
coedge $-1 $293 $124 $294 $295 forward $77 $-1 #
coedge $-1 $124 $293 $207 $296 forward $77 $-1 #
edge $-1 $209 -26.916431863940218 $297 -23.916431863940218 $124 $298 forward 7 unknown #
coedge $-1 $126 $125 $299 $300 forward $49 $-1 #
coedge $-1 $301 $302 $125 $206 forward $303 $-1 #
edge $-1 $304 23.916431863940218 $210 26.916431863940218 $205 $305 forward 7 unknown #
coedge $-1 $291 $127 $202 $296 reversed $198 $-1 #
coedge $-1 $127 $291 $301 $306 reversed $198 $-1 #
vertex $-1 $203 $307 #
vertex $-1 $306 $308 #
straight-curve $-1 -26.916431863940218 -25.820356034704236 0 0 0 1 I I #
face $-1 $-1 $309 $29 $-1 $310 reversed single #
loop $-1 $-1 $218 $129 #
plane-surface $-1 0 0 8.5178728158554478 0 0 1 1 0 0 forward_v I I I I #
coedge $-1 $220 $311 $312 $313 forward $130 $-1 #
coedge $-1 $312 $132 $134 $222 forward $81 $-1 #
coedge $-1 $132 $312 $314 $315 reversed $81 $-1 #
coedge $-1 $316 $135 $132 $219 forward $213 $-1 #
edge $-1 $225 4.5242130367651878 $317 15.705499677547762 $218 $318 forward 7 unknown #
coedge $-1 $319 $215 $133 $221 forward $130 $-1 #
edge $-1 $320 -29.775286958247335 $224 -24.449215691258864 $220 $321 forward 7 unknown #
edge $-1 $225 -8.2858958717685773 $320 9.1539886837149753e-015 $134 $322 forward 7 unknown #
coedge $-1 $135 $316 $319 $323 forward $213 $-1 #
vertex $-1 $221 $324 #
vertex $-1 $136 $325 #
straight-curve $-1 -46.799641355256981 14.639069393921663 8.5178728158554478 1 0 0 I I #
coedge $-1 $227 $227 $-1 $326 reversed $139 $-1 #
edge $-1 $327 0 $327 6.2831853071796004 $140 $328 forward 7 unknown #
vertex $-1 $143 $329 #
ellipse-curve $-1 -37.778495278700603 16.875326722078174 5.8548371823612131 -0.64278761758704617 0 0.76604443648966558 0.76604443648966558 0 0.64278761758704617 1 I I #
coedge $-1 $231 $231 $-1 $330 reversed $146 $-1 #
edge $-1 $331 0 $331 6.2831853071796004 $147 $332 forward 7 unknown #
vertex $-1 $150 $333 #
ellipse-curve $-1 -37.778495278700603 20.229712714312949 5.8548371823612131 -0.64278761758704617 0 0.76604443648966558 0.76604443648966558 0 0.64278761758704617 1 I I #
coedge $-1 $235 $235 $-1 $334 reversed $153 $-1 #
edge $-1 $335 0 $335 6.2831853071796004 $154 $336 forward 7 unknown #
vertex $-1 $157 $337 #
ellipse-curve $-1 -37.778495278700603 23.584098706547724 5.8548371823612131 -0.64278761758704617 0 0.76604443648966558 0.76604443648966558 0 0.64278761758704617 1 I I #
face $-1 $-1 $338 $33 $-1 $339 reversed single #
loop $-1 $-1 $164 $158 #
plane-surface $-1 0 0 8.5178728158554478 0 0 1 1 0 0 forward_v I I I I #
coedge $-1 $340 $341 $342 $343 reversed $159 $-1 #
coedge $-1 $344 $161 $163 $249 forward $100 $-1 #
coedge $-1 $161 $344 $340 $345 forward $100 $-1 #
coedge $-1 $342 $164 $161 $246 forward $240 $-1 #
edge $-1 $252 -11.010117269262038 $346 -0.19703278504599453 $245 $347 forward 7 unknown #
coedge $-1 $348 $349 $162 $248 forward $338 $-1 #
edge $-1 $350 -56.92221738009745 $251 -48.964097035933143 $247 $351 forward 7 unknown #
edge $-1 $252 68.365192156821252 $350 81.904354991302228 $163 $352 forward 7 unknown #
coedge $-1 $164 $342 $348 $353 forward $240 $-1 #
vertex $-1 $165 $354 #
vertex $-1 $165 $355 #
straight-curve $-1 11.416167709344158 16.613692296416055 8.5178728158554478 -1 0 0 I I #
coedge $-1 $254 $254 $-1 $356 reversed $168 $-1 #
edge $-1 $357 0 $357 6.2831853071796004 $169 $358 forward 7 unknown #
vertex $-1 $172 $359 #
ellipse-curve $-1 35.475471121232509 8.8900605219760216 4.5388126437732925 0.5877852598018023 0 0.80901698891910034 0.80901698891910034 0 -0.5877852598018023 1 I I #
coedge $-1 $258 $258 $-1 $360 reversed $175 $-1 #
edge $-1 $361 0 $361 6.2831853071796004 $176 $362 forward 7 unknown #
vertex $-1 $179 $363 #
ellipse-curve $-1 35.475471121232509 13.524239586640039 4.5388126437732925 0.5877852598018023 0 0.80901698891910034 0.80901698891910034 0 -0.5877852598018023 1 I I #
face $-1 $-1 $274 $27 $-1 $364 reversed single #
loop $-1 $-1 $365 $180 #
plane-surface $-1 0 25.820356034704236 0 0 -1 0 0 0 -1 forward_v I I I I #
coedge $-1 $280 $279 $366 $367 forward $181 $-1 #
coedge $-1 $183 $193 $368 $369 forward $114 $-1 #
coedge $-1 $273 $189 $183 $268 reversed $274 $-1 #
edge $-1 $370 -25.820356034704236 $194 25.820356034704236 $267 $371 forward 7 unknown #
coedge $-1 $185 $184 $279 $372 forward $73 $-1 #
coedge $-1 $365 $366 $184 $271 reversed $263 $-1 #
edge $-1 $276 -40.952177495651114 $373 40.952177495651114 $270 $374 forward 7 unknown #
edge $-1 $281 -40.952177495651114 $275 40.952177495651114 $188 $375 forward 7 unknown #
coedge $-1 $186 $267 $365 $376 reversed $274 $-1 #
loop $-1 $-1 $189 $262 #
vertex $-1 $187 $377 #
vertex $-1 $187 $378 #
straight-curve $-1 40.952177495651114 0 8.5178728158554478 0 1 0 I I #
straight-curve $-1 40.952177495651114 -25.820356034704236 0 0 0 -1 I I #
coedge $-1 $265 $191 $269 $372 reversed $181 $-1 #
coedge $-1 $191 $265 $193 $283 reversed $181 $-1 #
vertex $-1 $372 $379 #
straight-curve $-1 -40.952177495651114 -25.820356034704236 0 0 0 -1 I I #
edge $-1 $195 -25.820356034704236 $380 25.820356034704236 $280 $381 forward 7 unknown #
point $-1 40.952177495651114 -25.820356034704236 -8.5178728158554478 #
point $-1 -40.952177495651114 -25.820356034704236 -8.5178728158554478 #
face $-1 $-1 $303 $28 $-1 $382 forward single #
loop $-1 $-1 $383 $197 #
plane-surface $-1 -23.916431863940218 -30.777322852574628 0 -1 0 0 0 0 1 forward_v I I I I #
coedge $-1 $384 $200 $293 $385 reversed $122 $-1 #
coedge $-1 $200 $384 $386 $387 reversed $122 $-1 #
coedge $-1 $208 $207 $200 $292 reversed $198 $-1 #
edge $-1 $388 -8.5178728158554478 $389 8.5178728158554478 $291 $390 forward 7 unknown #
coedge $-1 $202 $201 $289 $385 forward $77 $-1 #
coedge $-1 $299 $383 $201 $295 reversed $287 $-1 #
edge $-1 $297 -4.9569668178703914 $391 4.9569668178703949 $294 $392 forward 7 unknown #
edge $-1 $389 -4.9569668178703949 $209 4.9569668178703914 $207 $393 forward 7 unknown #
vertex $-1 $295 $394 #
straight-curve $-1 0 -25.820356034704236 -8.5178728158554478 1 0 0 I I #
coedge $-1 $395 $294 $204 $300 reversed $287 $-1 #
edge $-1 $304 -8.5178728158554478 $297 8.5178728158554478 $299 $396 forward 7 unknown #
coedge $-1 $386 $205 $208 $306 forward $303 $-1 #
coedge $-1 $205 $386 $395 $397 forward $303 $-1 #
loop $-1 $-1 $205 $286 #
vertex $-1 $206 $398 #
straight-curve $-1 0 -25.820356034704236 8.5178728158554478 -1 0 0 I I #
edge $-1 $210 -4.9569668178703914 $388 4.9569668178703949 $208 $399 forward 7 unknown #
point $-1 -26.916431863940218 -25.820356034704236 -8.5178728158554478 #
point $-1 -26.916431863940218 -25.820356034704236 8.5178728158554478 #
loop $-1 $-1 $314 $212 #
plane-surface $-1 0 25.820356034704236 0 0 -1 0 0 0 -1 forward_v I I I I #
coedge $-1 $215 $319 $400 $401 forward $130 $-1 #
coedge $-1 $217 $216 $215 $313 reversed $81 $-1 #
edge $-1 $402 -15.705499677547762 $320 -4.5242130367651878 $215 $403 forward 7 unknown #
coedge $-1 $400 $404 $217 $315 forward $309 $-1 #
edge $-1 $317 6.3738727378684068 $402 14.659768609636991 $314 $405 forward 7 unknown #
coedge $-1 $223 $218 $404 $406 forward $213 $-1 #
vertex $-1 $406 $407 #
straight-curve $-1 -34.6048130617501 10.114856357156475 8.5178728158554478 0 1 0 I I #
coedge $-1 $311 $220 $223 $323 reversed $130 $-1 #
vertex $-1 $221 $408 #
straight-curve $-1 -40.952177495651114 14.639069393921663 32.967088507114312 0 0 1 I I #
straight-curve $-1 -40.952177495651107 14.639069393921663 3.1918015488669838 -0.76604443648966558 0 -0.64278761758704617 I I #
edge $-1 $409 -25.820356034704236 $224 -14.639069393921663 $319 $410 forward 7 unknown #
point $-1 -40.952177495651114 14.639069393921663 8.5178728158554478 #
point $-1 -34.6048130617501 14.639069393921663 8.5178728158554478 #
edge $-1 $411 1 $411 0 $227 $-1 forward 7 unknown #
vertex $-1 $228 $412 #
ellipse-curve $-1 -35.754833428587318 16.875326722078174 3.4431309528059448 -0.64278761758704617 0 0.76604443648966558 0.76604443648966558 0 0.64278761758704617 1 I I #
point $-1 -37.012450842210939 16.875326722078174 6.497624799948257 #
edge $-1 $413 1 $413 0 $231 $-1 forward 7 unknown #
vertex $-1 $232 $414 #
ellipse-curve $-1 -35.754833428587318 20.229712714312949 3.4431309528059448 -0.64278761758704617 0 0.76604443648966558 0.76604443648966558 0 0.64278761758704617 1 I I #
point $-1 -37.012450842210939 20.229712714312949 6.497624799948257 #
edge $-1 $415 1 $415 0 $235 $-1 forward 7 unknown #
vertex $-1 $236 $416 #
ellipse-curve $-1 -35.754833428587318 23.584098706547724 3.4431309528059448 -0.64278761758704617 0 0.76604443648966558 0.76604443648966558 0 0.64278761758704617 1 I I #
point $-1 -37.012450842210939 23.584098706547724 6.497624799948257 #
loop $-1 $-1 $247 $239 #
plane-surface $-1 40.952177495651114 0 0 -1 0 0 0 0 1 forward_v I I I I #
coedge $-1 $341 $242 $244 $345 reversed $159 $-1 #
coedge $-1 $242 $340 $417 $418 reversed $159 $-1 #
coedge $-1 $250 $245 $242 $343 forward $240 $-1 #
edge $-1 $346 18.58259703746976 $419 29.536009786306956 $342 $420 forward 7 unknown #
coedge $-1 $244 $243 $349 $421 reversed $100 $-1 #
edge $-1 $422 -81.904354991302228 $346 -68.365192156821252 $340 $423 forward 7 unknown #
vertex $-1 $246 $424 #
straight-curve $-1 29.998764746813912 5.603575027154017 8.5178728158554478 0 -1 0 I I #
coedge $-1 $417 $247 $250 $353 reversed $338 $-1 #
coedge $-1 $247 $417 $344 $421 forward $338 $-1 #
vertex $-1 $248 $425 #
straight-curve $-1 40.952177495651114 16.613692296416055 57.481969851788591 0 0 1 I I #
straight-curve $-1 -25.309837158773306 16.613692296416055 48.701925049152763 0.80901698891910034 0 -0.5877852598018023 I I #
edge $-1 $419 5.8006078122000115 $251 16.613692296416055 $348 $426 forward 7 unknown #
point $-1 40.952177495651114 16.613692296416055 8.5178728158554478 #
point $-1 29.998764746813919 16.613692296416055 8.5178728158554478 #
edge $-1 $427 1 $427 0 $254 $-1 forward 7 unknown #
vertex $-1 $255 $428 #
ellipse-curve $-1 33.643752366116637 8.8900605219760216 2.0176681150551459 0.5877852598018023 0 0.80901698891910034 0.80901698891910034 0 -0.5877852598018023 1 I I #
point $-1 36.284488110151599 8.8900605219760216 3.9510273839714802 #
edge $-1 $429 1 $429 0 $258 $-1 forward 7 unknown #
vertex $-1 $259 $430 #
ellipse-curve $-1 33.643752366116637 13.524239586640039 2.0176681150551459 0.5877852598018023 0 0.80901698891910034 0.80901698891910034 0 -0.5877852598018023 1 I I #
point $-1 36.284488110151599 13.524239586640039 3.9510273839714802 #
plane-surface $-1 40.952177495651114 0 0 -1 0 0 0 0 1 forward_v I I I I #
coedge $-1 $368 $270 $273 $376 forward $263 $-1 #
coedge $-1 $270 $368 $265 $367 reversed $263 $-1 #
edge $-1 $373 -8.5178728158554478 $380 8.5178728158554478 $366 $431 forward 7 unknown #
coedge $-1 $366 $365 $266 $369 reversed $263 $-1 #
edge $-1 $380 -40.952177495651114 $370 40.952177495651114 $368 $432 forward 7 unknown #
vertex $-1 $268 $433 #
straight-curve $-1 40.952177495651114 0 -8.5178728158554478 0 -1 0 I I #
edge $-1 $373 -25.820356034704236 $281 25.820356034704236 $279 $434 forward 7 unknown #
vertex $-1 $271 $435 #
straight-curve $-1 0 25.820356034704236 8.5178728158554478 -1 0 0 I I #
straight-curve $-1 0 -25.820356034704236 8.5178728158554478 1 0 0 I I #
edge $-1 $276 -8.5178728158554478 $370 8.5178728158554478 $273 $436 forward 7 unknown #
point $-1 40.952177495651114 -25.820356034704236 8.5178728158554478 #
point $-1 40.952177495651114 25.820356034704236 8.5178728158554478 #
point $-1 -40.952177495651114 -25.820356034704236 8.5178728158554478 #
vertex $-1 $369 $437 #
straight-curve $-1 -40.952177495651114 0 -8.5178728158554478 0 1 0 I I #
plane-surface $-1 0 0 8.5178728158554478 0 0 1 1 0 0 forward_v I I I I #
coedge $-1 $294 $395 $384 $438 forward $287 $-1 #
coedge $-1 $290 $289 $383 $438 reversed $122 $-1 #
edge $-1 $391 -1.5 $389 1.5 $289 $439 forward 7 unknown #
coedge $-1 $302 $301 $290 $387 forward $303 $-1 #
edge $-1 $388 -1.5 $440 1.5 $290 $441 forward 7 unknown #
vertex $-1 $306 $442 #
vertex $-1 $296 $443 #
straight-curve $-1 -26.916431863940218 -35.734289670445023 0 0 0 -1 I I #
vertex $-1 $438 $444 #
straight-curve $-1 -23.916431863940218 -30.777322852574628 -8.5178728158554478 0 -1 0 I I #
straight-curve $-1 -26.916431863940218 -30.777322852574628 -8.5178728158554478 0 1 0 I I #
point $-1 -23.916431863940218 -25.820356034704236 -8.5178728158554478 #
coedge $-1 $383 $299 $302 $397 reversed $287 $-1 #
straight-curve $-1 -23.916431863940218 -25.820356034704236 0 0 0 -1 I I #
edge $-1 $440 -4.9569668178703949 $304 4.9569668178703914 $395 $445 forward 7 unknown #
point $-1 -23.916431863940218 -25.820356034704236 8.5178728158554478 #
straight-curve $-1 -26.916431863940218 -30.777322852574628 8.5178728158554478 0 -1 0 I I #
coedge $-1 $404 $314 $311 $401 reversed $309 $-1 #
edge $-1 $409 -8.5178728158554478 $402 -3.191801548866978 $400 $446 forward 7 unknown #
vertex $-1 $315 $447 #
straight-curve $-1 -40.952177495651114 10.114856357156475 3.1918015488669811 0 -1 0 I I #
coedge $-1 $314 $400 $316 $406 reversed $309 $-1 #
straight-curve $-1 -29.722143312012854 25.820356034704236 12.614919287832903 -0.76604443648966558 0 -0.64278761758704617 I I #
edge $-1 $317 34.6048130617501 $409 40.952177495651114 $404 $448 forward 7 unknown #
point $-1 -34.6048130617501 25.820356034704236 8.5178728158554478 #
point $-1 -40.952177495651114 14.639069393921663 3.191801548866978 #
vertex $-1 $406 $449 #
straight-curve $-1 -40.952177495651114 0 8.5178728158554478 0 -1 0 I I #
vertex $-1 $326 $450 #
point $-1 -34.988788992097653 16.875326722078174 4.085918570392991 #
vertex $-1 $330 $451 #
point $-1 -34.988788992097653 20.229712714312949 4.085918570392991 #
vertex $-1 $334 $452 #
point $-1 -34.988788992097653 23.584098706547724 4.085918570392991 #
coedge $-1 $349 $348 $341 $418 forward $338 $-1 #
edge $-1 $419 48.964097035933143 $422 56.92221738009745 $417 $453 forward 7 unknown #
vertex $-1 $353 $454 #
straight-curve $-1 11.416167709344158 5.8006078122000115 8.5178728158554478 1 0 0 I I #
edge $-1 $422 0.19703278504599453 $350 11.010117269262038 $349 $455 forward 7 unknown #
vertex $-1 $421 $456 #
straight-curve $-1 -25.309837158773306 5.8006078122000115 48.701925049152763 -0.80901698891910034 0 0.5877852598018023 I I #
point $-1 29.998764746813919 5.8006078122000115 8.5178728158554478 #
point $-1 40.952177495651114 16.613692296416055 0.55975247169114084 #
straight-curve $-1 40.952177495651114 0 8.5178728158554478 0 1 0 I I #
vertex $-1 $356 $457 #
point $-1 34.452769355035734 8.8900605219760216 1.4298828552533438 #
vertex $-1 $360 $458 #
point $-1 34.452769355035734 13.524239586640039 1.4298828552533438 #
straight-curve $-1 -40.952177495651114 25.820356034704236 0 0 0 -1 I I #
straight-curve $-1 0 25.820356034704236 -8.5178728158554478 1 0 0 I I #
point $-1 40.952177495651114 25.820356034704236 -8.5178728158554478 #
straight-curve $-1 -40.952177495651114 0 8.5178728158554478 0 -1 0 I I #
point $-1 -40.952177495651114 25.820356034704236 8.5178728158554478 #
straight-curve $-1 40.952177495651114 25.820356034704236 0 0 0 -1 I I #
point $-1 -40.952177495651114 25.820356034704236 -8.5178728158554478 #
edge $-1 $440 -8.5178728158554478 $391 8.5178728158554478 $383 $459 forward 7 unknown #
straight-curve $-1 -25.416431863940218 -35.734289670445023 -8.5178728158554478 -1 0 0 I I #
vertex $-1 $397 $460 #
straight-curve $-1 -25.416431863940218 -35.734289670445023 8.5178728158554478 1 0 0 I I #
point $-1 -26.916431863940218 -35.734289670445023 8.5178728158554478 #
point $-1 -26.916431863940218 -35.734289670445023 -8.5178728158554478 #
point $-1 -23.916431863940218 -35.734289670445023 -8.5178728158554478 #
straight-curve $-1 -23.916431863940218 -30.777322852574628 8.5178728158554478 0 1 0 I I #
straight-curve $-1 -40.952177495651114 25.820356034704236 0 0 0 -1 I I #
point $-1 -40.952177495651114 25.820356034704236 3.191801548866978 #
straight-curve $-1 0 25.820356034704236 8.5178728158554478 -1 0 0 I I #
point $-1 -40.952177495651114 25.820356034704236 8.5178728158554478 #
point $-1 -35.112045811000272 16.875326722078174 2.6770865163162791 #
point $-1 -35.112045811000272 20.229712714312949 2.6770865163162791 #
point $-1 -35.112045811000272 23.584098706547724 2.6770865163162791 #
straight-curve $-1 40.952177495651114 5.8006078122000115 57.481969851788591 0 0 -1 I I #
point $-1 40.952177495651114 5.8006078122000115 8.5178728158554478 #
straight-curve $-1 40.952177495651114 5.603575027154017 0.55975247169113374 0 1 0 I I #
point $-1 40.952177495651114 5.8006078122000115 0.55975247169114084 #
point $-1 33.055967106314831 8.8900605219760216 1.2086511261360458 #
point $-1 33.055967106314831 13.524239586640039 1.2086511261360458 #
straight-curve $-1 -23.916431863940218 -35.734289670445023 0 0 0 -1 I I #
point $-1 -23.916431863940218 -35.734289670445023 8.5178728158554478 #
End-of-ACIS-data 