500 0 6 0           
7 Unknown 11 ACIS 5.0 NT 24 Fri Mar 26 01:52:48 1999 
-1 9.9999999999999995e-007 1e-010 
body $-1 $6 $-1 $7 #
body $-1 $8 $-1 $9 #
body $-1 $10 $-1 $11 #
body $-1 $12 $-1 $13 #
body $-1 $14 $-1 $15 #
body $-1 $16 $-1 $17 #
lump $-1 $-1 $18 $0 #
transform $-1 1 0 0 0 1 0 0 0 1 69.703054902798556 32.656648089580756 9.9457916179437298 1 rotate no_reflect no_shear #
lump $-1 $-1 $19 $1 #
transform $-1 1 0 0 0 1 0 0 0 1 69.703054902798556 32.656648089580756 9.9457916179437298 1 rotate no_reflect no_shear #
lump $-1 $-1 $20 $2 #
transform $-1 1 0 0 0 1 0 0 0 1 69.703054902798556 32.656648089580756 9.9457916179437298 1 rotate no_reflect no_shear #
lump $-1 $-1 $21 $3 #
transform $-1 1 0 0 0 1 0 0 0 1 69.703054902798556 32.656648089580756 9.9457916179437298 1 rotate no_reflect no_shear #
lump $-1 $-1 $22 $4 #
transform $-1 1 0 0 0 1 0 0 0 1 69.703054902798556 32.656648089580756 9.9457916179437298 1 rotate no_reflect no_shear #
lump $-1 $-1 $23 $5 #
transform $-1 1 0 0 0 1 0 0 0 1 69.703054902798556 32.656648089580756 9.9457916179437298 1 rotate no_reflect no_shear #
shell $-1 $-1 $-1 $24 $-1 $6 #
shell $-1 $-1 $-1 $25 $-1 $8 #
shell $-1 $-1 $-1 $26 $-1 $10 #
shell $-1 $-1 $-1 $27 $-1 $12 #
shell $-1 $-1 $-1 $28 $-1 $14 #
shell $-1 $-1 $-1 $29 $-1 $16 #
face $-1 $30 $31 $18 $-1 $32 forward single #
face $-1 $33 $34 $19 $-1 $35 forward single #
face $-1 $36 $37 $20 $-1 $38 reversed single #
face $-1 $39 $40 $21 $-1 $41 reversed single #
face $-1 $42 $43 $22 $-1 $44 forward single #
face $-1 $45 $46 $23 $-1 $47 forward single #
face $-1 $48 $49 $18 $-1 $50 reversed single #
loop $-1 $-1 $51 $24 #
plane-surface $-1 0 0 9.9457916179437298 0 0 1 1 0 0 forward_v I I I I #
face $-1 $52 $53 $19 $-1 $54 forward single #
loop $-1 $-1 $55 $25 #
plane-surface $-1 -69.703054902798556 0 0 1 0 0 0 0 -1 forward_v I I I I #
face $-1 $56 $57 $20 $-1 $58 reversed single #
loop $-1 $-1 $59 $26 #
plane-surface $-1 66.340210563785377 -16.108577320147269 0 0 1 0 0 0 1 forward_v I I I I #
face $-1 $60 $61 $21 $-1 $62 reversed single #
loop $-1 $-1 $63 $27 #
plane-surface $-1 10.809193676798685 109.38928214703228 140.02115145435599 1 0 0 0 -0.81915205242281985 -0.57357642473473569 forward_v I I I I #
face $-1 $64 $65 $22 $-1 $66 forward single #
loop $-1 $67 $68 $28 #
cone-surface $-1 20.595002950355152 30.975896523868784 7.9059228978982814 0 -0.81915205242281985 -0.57357642473473569 1 0 0 1 I I 0 1 1 forward I I I I #
face $-1 $69 $70 $23 $-1 $71 forward single #
loop $-1 $72 $73 $29 #
cone-surface $-1 35.273716860689859 30.975896523868784 7.9059228978982814 0 -0.81915205242281985 -0.57357642473473569 1 0 0 1 I I 0 1 1 forward I I I I #
face $-1 $74 $75 $18 $-1 $76 reversed single #
loop $-1 $-1 $77 $30 #
plane-surface $-1 0 0 -9.9457916179437298 0 0 1 1 0 0 forward_v I I I I #
coedge $-1 $78 $79 $80 $81 forward $31 $-1 #
face $-1 $82 $83 $19 $-1 $84 reversed single #
loop $-1 $-1 $85 $33 #
plane-surface $-1 0 0 9.9457916179437298 0 0 1 1 0 0 forward_v I I I I #
coedge $-1 $86 $87 $88 $89 forward $34 $-1 #
face $-1 $90 $91 $20 $-1 $92 reversed single #
loop $-1 $-1 $93 $36 #
plane-surface $-1 62.977366224772211 -14.436821086920283 0 1 0 0 0 0 -1 forward_v I I I I #
coedge $-1 $94 $95 $96 $97 forward $37 $-1 #
face $-1 $98 $99 $21 $-1 $100 reversed single #
loop $-1 $-1 $101 $39 #
plane-surface $-1 27.934359905522513 -4.8055188205035932 60.061093405883611 0 0.81915205242281985 0.57357642473473569 1 0 0 forward_v I I I I #
coedge $-1 $102 $103 $104 $105 reversed $40 $-1 #
face $-1 $-1 $106 $22 $-1 $107 forward single #
loop $-1 $108 $109 $42 #
cone-surface $-1 20.595002950355152 30.071096870762332 7.2723753793453376 0 -0.81915205242281985 -0.57357642473473569 0.5 0 0 1 I I -0.70710678118654691 0.70710678118654813 0.5 forward I I I I #
loop $-1 $-1 $110 $28 #
coedge $-1 $68 $68 $111 $112 reversed $43 $-1 #
face $-1 $-1 $113 $23 $-1 $114 forward single #
loop $-1 $115 $116 $45 #
cone-surface $-1 35.273716860689859 30.071096870762332 7.2723753793453376 0 -0.81915205242281985 -0.57357642473473569 0.5 0 0 1 I I -0.70710678118654691 0.70710678118654813 0.5 forward I I I I #
loop $-1 $-1 $117 $29 #
coedge $-1 $73 $73 $118 $119 reversed $46 $-1 #
face $-1 $120 $121 $18 $-1 $122 reversed single #
loop $-1 $-1 $123 $48 #
plane-surface $-1 0 -32.656648089580756 0 0 1 0 0 0 1 forward_v I I I I #
coedge $-1 $124 $125 $126 $127 forward $49 $-1 #
coedge $-1 $128 $51 $129 $130 forward $31 $-1 #
coedge $-1 $51 $128 $131 $132 forward $31 $-1 #
coedge $-1 $133 $134 $51 $81 reversed $135 $-1 #
edge $-1 $136 -32.656648089580756 $137 32.656648089580756 $80 $138 forward 7 unknown #
face $-1 $139 $140 $19 $-1 $141 reversed single #
loop $-1 $-1 $142 $52 #
plane-surface $-1 -77.850287287353183 -30.680693352996634 0 1 0 0 0 0 -1 forward_v I I I I #
coedge $-1 $143 $144 $86 $145 forward $53 $-1 #
coedge $-1 $146 $55 $85 $145 reversed $34 $-1 #
coedge $-1 $55 $146 $147 $148 reversed $34 $-1 #
coedge $-1 $149 $150 $55 $89 reversed $140 $-1 #
edge $-1 $151 -9.9457916179437298 $152 9.9457916179437298 $88 $153 forward 7 unknown #
face $-1 $154 $155 $20 $-1 $156 forward single #
loop $-1 $-1 $157 $56 #
plane-surface $-1 66.340210563785377 -12.765064853693296 0 0 -1 0 0 0 -1 forward_v I I I I #
coedge $-1 $158 $159 $160 $161 forward $57 $-1 #
coedge $-1 $162 $59 $163 $164 reversed $37 $-1 #
coedge $-1 $59 $162 $165 $166 reversed $37 $-1 #
coedge $-1 $159 $158 $59 $97 reversed $57 $-1 #
edge $-1 $167 -9.9457916179437298 $168 9.9457916179437298 $96 $169 forward 7 unknown #
face $-1 $170 $171 $21 $-1 $172 reversed single #
loop $-1 $-1 $173 $60 #
plane-surface $-1 45.05952613424634 109.38928214703228 140.02115145435599 -1 0 0 0 0.81915205242281985 0.57357642473473569 forward_v I I I I #
coedge $-1 $174 $175 $176 $177 reversed $61 $-1 #
coedge $-1 $103 $63 $178 $179 reversed $40 $-1 #
coedge $-1 $63 $102 $174 $180 reversed $40 $-1 #
coedge $-1 $176 $181 $63 $105 forward $182 $-1 #
edge $-1 $183 22.037992983935382 $184 24.409048861569254 $104 $185 forward 7 unknown #
loop $-1 $-1 $111 $64 #
plane-surface $-1 27.934359905522513 -4.8055188205035932 60.061093405883611 0 0.81915205242281985 0.57357642473473569 1 0 0 forward_v I I I I #
loop $-1 $-1 $186 $42 #
coedge $-1 $109 $109 $110 $187 reversed $65 $-1 #
coedge $-1 $110 $110 $109 $187 forward $67 $-1 #
coedge $-1 $111 $111 $68 $112 forward $106 $-1 #
edge $-1 $188 2.0407724041452895e-015 $188 6.2831853071796022 $111 $189 forward 7 unknown #
loop $-1 $-1 $118 $69 #
plane-surface $-1 27.934359905522513 -4.8055188205035932 60.061093405883611 0 0.81915205242281985 0.57357642473473569 1 0 0 forward_v I I I I #
loop $-1 $-1 $190 $45 #
coedge $-1 $116 $116 $117 $191 reversed $70 $-1 #
coedge $-1 $117 $117 $116 $191 forward $72 $-1 #
coedge $-1 $118 $118 $73 $119 forward $113 $-1 #
edge $-1 $192 2.0407724041452895e-015 $192 6.2831853071796022 $118 $193 forward 7 unknown #
face $-1 $194 $195 $18 $-1 $196 reversed single #
loop $-1 $-1 $197 $74 #
plane-surface $-1 -69.703054902798556 0 0 1 0 0 0 0 -1 forward_v I I I I #
coedge $-1 $198 $131 $199 $200 forward $75 $-1 #
coedge $-1 $201 $77 $198 $202 forward $49 $-1 #
coedge $-1 $77 $201 $203 $204 forward $49 $-1 #
coedge $-1 $134 $133 $77 $127 reversed $135 $-1 #
edge $-1 $205 -32.656648089580756 $206 32.656648089580756 $126 $207 forward 7 unknown #
coedge $-1 $79 $78 $197 $208 forward $31 $-1 #
coedge $-1 $209 $210 $78 $130 reversed $195 $-1 #
edge $-1 $137 -69.703054902798556 $211 69.703054902798556 $129 $212 forward 7 unknown #
coedge $-1 $123 $213 $79 $132 reversed $75 $-1 #
edge $-1 $214 -69.703054902798556 $136 69.703054902798556 $131 $215 forward 7 unknown #
coedge $-1 $126 $80 $213 $216 forward $135 $-1 #
coedge $-1 $80 $126 $209 $217 reversed $135 $-1 #
loop $-1 $-1 $133 $194 #
vertex $-1 $81 $218 #
vertex $-1 $81 $219 #
straight-curve $-1 69.703054902798556 0 9.9457916179437298 0 1 0 I I #
face $-1 $220 $221 $19 $-1 $222 reversed single #
loop $-1 $-1 $88 $82 #
plane-surface $-1 -73.776671095075869 -28.704738616412513 0 0 -1 0 0 0 -1 forward_v I I I I #
coedge $-1 $223 $224 $225 $226 forward $83 $-1 #
coedge $-1 $227 $85 $150 $228 forward $53 $-1 #
coedge $-1 $85 $227 $229 $230 forward $53 $-1 #
edge $-1 $231 -32.656648089580756 $152 -28.704738616412513 $85 $232 forward 7 unknown #
coedge $-1 $87 $86 $233 $234 reversed $34 $-1 #
coedge $-1 $235 $236 $87 $148 forward $221 $-1 #
edge $-1 $151 28.704738616412513 $237 32.656648089580756 $147 $238 forward 7 unknown #
coedge $-1 $225 $88 $236 $239 reversed $140 $-1 #
coedge $-1 $88 $225 $143 $228 reversed $140 $-1 #
vertex $-1 $148 $240 #
vertex $-1 $228 $241 #
straight-curve $-1 -69.703054902798556 -28.704738616412513 0 0 0 1 I I #
face $-1 $242 $243 $20 $-1 $244 reversed single #
loop $-1 $-1 $245 $90 #
plane-surface $-1 0 0 9.9457916179437298 0 0 1 1 0 0 forward_v I I I I #
coedge $-1 $246 $247 $248 $249 reversed $91 $-1 #
coedge $-1 $96 $93 $250 $251 reversed $57 $-1 #
coedge $-1 $93 $96 $252 $253 reversed $57 $-1 #
coedge $-1 $247 $246 $93 $161 reversed $91 $-1 #
edge $-1 $254 -9.9457916179437298 $255 9.9457916179437298 $160 $256 forward 7 unknown #
coedge $-1 $95 $94 $257 $258 reversed $37 $-1 #
coedge $-1 $250 $259 $94 $164 forward $260 $-1 #
edge $-1 $261 -36.532949620905853 $168 -29.807260942879523 $163 $262 forward 7 unknown #
coedge $-1 $263 $252 $95 $166 forward $155 $-1 #
edge $-1 $167 29.807260942879523 $264 36.532949620905853 $165 $265 forward 7 unknown #
vertex $-1 $166 $266 #
vertex $-1 $164 $267 #
straight-curve $-1 62.977366224772211 -16.108577320147269 0 0 0 -1 I I #
face $-1 $-1 $182 $21 $-1 $268 forward single #
loop $-1 $-1 $269 $98 #
plane-surface $-1 0 32.656648089580756 0 0 -1 0 0 0 -1 forward_v I I I I #
coedge $-1 $270 $271 $272 $273 reversed $99 $-1 #
coedge $-1 $274 $101 $103 $180 forward $61 $-1 #
coedge $-1 $101 $274 $270 $275 forward $61 $-1 #
coedge $-1 $272 $104 $101 $177 forward $182 $-1 #
edge $-1 $184 -3.1579862759625712 $276 31.092346181485084 $176 $277 forward 7 unknown #
coedge $-1 $278 $279 $102 $179 forward $171 $-1 #
edge $-1 $280 -63.451002936954076 $183 -60.064784109234267 $178 $281 forward 7 unknown #
edge $-1 $184 61.179486323342552 $280 65.313296179161554 $103 $282 forward 7 unknown #
coedge $-1 $104 $272 $278 $283 forward $182 $-1 #
loop $-1 $-1 $272 $170 #
vertex $-1 $179 $284 #
vertex $-1 $105 $285 #
straight-curve $-1 10.809193676798685 54.694641073516138 9.9457916179437262 0 -1 0 I I #
coedge $-1 $186 $186 $-1 $286 reversed $108 $-1 #
edge $-1 $287 0 $287 6.2831853071796004 $109 $288 forward 7 unknown #
vertex $-1 $112 $289 #
ellipse-curve $-1 20.595002950355152 31.471120150763806 8.2526822040838432 0 0.81915205242281985 0.57357642473473569 1 0 0 1 I I #
coedge $-1 $190 $190 $-1 $290 reversed $115 $-1 #
edge $-1 $291 0 $291 6.2831853071796004 $116 $292 forward 7 unknown #
vertex $-1 $119 $293 #
ellipse-curve $-1 35.273716860689859 31.471120150763806 8.2526822040838432 0 0.81915205242281985 0.57357642473473569 1 0 0 1 I I #
face $-1 $-1 $135 $18 $-1 $294 reversed single #
loop $-1 $-1 $209 $120 #
plane-surface $-1 0 32.656648089580756 0 0 -1 0 0 0 -1 forward_v I I I I #
coedge $-1 $295 $199 $128 $208 reversed $121 $-1 #
coedge $-1 $213 $123 $124 $202 reversed $75 $-1 #
coedge $-1 $197 $296 $123 $200 reversed $121 $-1 #
edge $-1 $214 -9.9457916179437298 $297 9.9457916179437298 $199 $298 forward 7 unknown #
coedge $-1 $125 $124 $296 $299 forward $49 $-1 #
edge $-1 $206 -69.703054902798556 $297 69.703054902798556 $198 $300 forward 7 unknown #
coedge $-1 $210 $209 $125 $204 reversed $195 $-1 #
edge $-1 $301 -69.703054902798556 $205 69.703054902798556 $203 $302 forward 7 unknown #
vertex $-1 $127 $303 #
vertex $-1 $216 $304 #
straight-curve $-1 69.703054902798556 0 -9.9457916179437298 0 -1 0 I I #
edge $-1 $211 -32.656648089580756 $214 32.656648089580756 $197 $305 forward 7 unknown #
coedge $-1 $203 $129 $134 $217 forward $195 $-1 #
coedge $-1 $129 $203 $295 $306 reversed $195 $-1 #
vertex $-1 $130 $307 #
straight-curve $-1 0 32.656648089580756 9.9457916179437298 -1 0 0 I I #
coedge $-1 $131 $198 $133 $216 reversed $75 $-1 #
vertex $-1 $208 $308 #
straight-curve $-1 0 -32.656648089580756 9.9457916179437298 1 0 0 I I #
edge $-1 $136 -9.9457916179437298 $206 9.9457916179437298 $133 $309 forward 7 unknown #
edge $-1 $137 -9.9457916179437298 $205 9.9457916179437298 $134 $310 forward 7 unknown #
point $-1 69.703054902798556 -32.656648089580756 9.9457916179437298 #
point $-1 69.703054902798556 32.656648089580756 9.9457916179437298 #
face $-1 $-1 $311 $19 $-1 $312 reversed single #
loop $-1 $-1 $147 $139 #
plane-surface $-1 0 0 -9.9457916179437298 0 0 1 1 0 0 forward_v I I I I #
coedge $-1 $313 $142 $314 $315 reversed $83 $-1 #
coedge $-1 $142 $313 $227 $316 reversed $83 $-1 #
coedge $-1 $150 $149 $142 $226 reversed $140 $-1 #
edge $-1 $317 -9.9457916179437298 $318 9.9457916179437298 $225 $319 forward 7 unknown #
coedge $-1 $144 $143 $224 $316 forward $53 $-1 #
edge $-1 $152 -4.0736161922773135 $317 4.0736161922773135 $150 $320 forward 7 unknown #
coedge $-1 $321 $233 $144 $230 reversed $311 $-1 #
edge $-1 $322 -77.850287287353183 $231 -69.703054902798556 $229 $323 forward 7 unknown #
vertex $-1 $234 $324 #
straight-curve $-1 -69.703054902798556 0 9.9457916179437298 0 1 0 I I #
coedge $-1 $229 $325 $146 $234 forward $311 $-1 #
edge $-1 $237 -9.9457916179437298 $231 9.9457916179437298 $233 $326 forward 7 unknown #
coedge $-1 $314 $147 $325 $327 forward $221 $-1 #
coedge $-1 $147 $314 $149 $239 forward $221 $-1 #
vertex $-1 $327 $328 #
straight-curve $-1 -69.703054902798556 0 -9.9457916179437298 0 -1 0 I I #
edge $-1 $318 -4.0736161922773135 $151 4.0736161922773135 $149 $329 forward 7 unknown #
point $-1 -69.703054902798556 -28.704738616412513 -9.9457916179437298 #
point $-1 -69.703054902798556 -28.704738616412513 9.9457916179437298 #
face $-1 $-1 $260 $20 $-1 $330 reversed single #
loop $-1 $-1 $248 $154 #
plane-surface $-1 69.703054902798556 0 0 -1 0 0 0 0 1 forward_v I I I I #
coedge $-1 $252 $263 $247 $331 forward $155 $-1 #
coedge $-1 $160 $157 $332 $333 reversed $91 $-1 #
coedge $-1 $157 $160 $245 $331 reversed $91 $-1 #
coedge $-1 $334 $335 $157 $249 forward $243 $-1 #
edge $-1 $336 -9.9457916179437298 $337 9.9457916179437298 $248 $338 forward 7 unknown #
coedge $-1 $332 $163 $158 $251 forward $260 $-1 #
edge $-1 $168 -8.8901667766871277 $255 -5.5466543102331549 $250 $339 forward 7 unknown #
coedge $-1 $165 $245 $159 $253 forward $155 $-1 #
edge $-1 $254 5.5466543102331549 $167 8.8901667766871277 $252 $340 forward 7 unknown #
vertex $-1 $253 $341 #
vertex $-1 $251 $342 #
straight-curve $-1 62.977366224772211 -12.765064853693296 0 0 0 -1 I I #
coedge $-1 $335 $334 $162 $258 forward $243 $-1 #
edge $-1 $264 -9.9457916179437298 $261 9.9457916179437298 $257 $343 forward 7 unknown #
coedge $-1 $163 $332 $335 $344 forward $260 $-1 #
loop $-1 $-1 $332 $242 #
vertex $-1 $258 $345 #
straight-curve $-1 33.170105281892688 -16.108577320147269 -9.9457916179437298 -1 0 0 I I #
coedge $-1 $245 $165 $334 $346 forward $155 $-1 #
vertex $-1 $346 $347 #
straight-curve $-1 33.170105281892688 -16.108577320147269 9.9457916179437298 1 0 0 I I #
point $-1 62.977366224772211 -16.108577320147269 9.9457916179437298 #
point $-1 62.977366224772211 -16.108577320147269 -9.9457916179437298 #
plane-surface $-1 0 0 9.9457916179437298 0 0 1 1 0 0 forward_v I I I I #
coedge $-1 $279 $278 $271 $348 forward $171 $-1 #
coedge $-1 $271 $173 $175 $275 reversed $99 $-1 #
coedge $-1 $173 $270 $269 $348 reversed $99 $-1 #
coedge $-1 $181 $176 $173 $273 forward $182 $-1 #
edge $-1 $276 -24.409048861569254 $349 -22.037992983935382 $272 $350 forward 7 unknown #
coedge $-1 $175 $174 $279 $351 reversed $61 $-1 #
edge $-1 $352 -65.313296179161554 $276 -61.179486323342552 $270 $353 forward 7 unknown #
vertex $-1 $177 $354 #
straight-curve $-1 13.967179952761256 30.285592211946884 9.9457916179437333 1 0 0 I I #
coedge $-1 $269 $178 $181 $283 reversed $171 $-1 #
coedge $-1 $178 $269 $274 $351 forward $171 $-1 #
vertex $-1 $179 $355 #
straight-curve $-1 10.809193676798685 32.656648089580756 70.010575727177994 0 0 1 I I #
straight-curve $-1 10.809193676798685 -4.8055188205035932 60.061093405883611 0 0.57357642473473569 -0.81915205242281985 I I #
edge $-1 $349 -45.05952613424634 $183 -10.809193676798685 $278 $356 forward 7 unknown #
point $-1 10.809193676798685 32.656648089580756 9.9457916179437298 #
point $-1 10.809193676798685 30.285592211946884 9.9457916179437262 #
edge $-1 $357 1 $357 0 $186 $-1 forward 7 unknown #
vertex $-1 $187 $358 #
ellipse-curve $-1 20.595002950355152 30.480672896973743 7.5591635917127062 0 0.81915205242281985 0.57357642473473569 1 0 0 1 I I #
point $-1 21.595002950355152 31.471120150763827 8.2526822040838557 #
edge $-1 $359 1 $359 0 $190 $-1 forward 7 unknown #
vertex $-1 $191 $360 #
ellipse-curve $-1 35.273716860689859 30.480672896973743 7.5591635917127062 0 0.81915205242281985 0.57357642473473569 1 0 0 1 I I #
point $-1 36.273716860689859 31.471120150763827 8.2526822040838557 #
plane-surface $-1 69.703054902798556 0 0 -1 0 0 0 0 1 forward_v I I I I #
coedge $-1 $296 $197 $210 $306 forward $121 $-1 #
coedge $-1 $199 $295 $201 $299 reversed $121 $-1 #
vertex $-1 $299 $361 #
straight-curve $-1 -69.703054902798556 -32.656648089580756 0 0 0 -1 I I #
edge $-1 $297 -32.656648089580756 $301 32.656648089580756 $296 $362 forward 7 unknown #
straight-curve $-1 0 -32.656648089580756 -9.9457916179437298 -1 0 0 I I #
vertex $-1 $204 $363 #
straight-curve $-1 0 32.656648089580756 -9.9457916179437298 1 0 0 I I #
point $-1 69.703054902798556 32.656648089580756 -9.9457916179437298 #
point $-1 69.703054902798556 -32.656648089580756 -9.9457916179437298 #
straight-curve $-1 -69.703054902798556 0 9.9457916179437298 0 -1 0 I I #
edge $-1 $211 -9.9457916179437298 $301 9.9457916179437298 $210 $364 forward 7 unknown #
point $-1 -69.703054902798556 32.656648089580756 9.9457916179437298 #
point $-1 -69.703054902798556 -32.656648089580756 9.9457916179437298 #
straight-curve $-1 69.703054902798556 -32.656648089580756 0 0 0 -1 I I #
straight-curve $-1 69.703054902798556 32.656648089580756 0 0 0 -1 I I #
loop $-1 $-1 $233 $220 #
plane-surface $-1 0 -32.656648089580756 0 0 1 0 0 0 1 forward_v I I I I #
coedge $-1 $224 $223 $321 $365 reversed $83 $-1 #
coedge $-1 $236 $235 $223 $315 forward $221 $-1 #
edge $-1 $366 -1.9759547365841215 $318 1.9759547365841215 $223 $367 forward 7 unknown #
edge $-1 $317 -1.9759547365841215 $322 1.9759547365841215 $224 $368 forward 7 unknown #
vertex $-1 $228 $369 #
vertex $-1 $239 $370 #
straight-curve $-1 -77.850287287353183 -28.704738616412513 0 0 0 -1 I I #
straight-curve $-1 -73.776671095075869 -28.704738616412513 9.9457916179437298 -1 0 0 I I #
coedge $-1 $325 $229 $313 $365 forward $311 $-1 #
vertex $-1 $316 $371 #
straight-curve $-1 0 -32.656648089580756 9.9457916179437298 1 0 0 I I #
point $-1 -69.703054902798556 -32.656648089580756 9.9457916179437298 #
coedge $-1 $233 $321 $235 $327 reversed $311 $-1 #
straight-curve $-1 -69.703054902798556 -32.656648089580756 0 0 0 1 I I #
edge $-1 $237 -4.0736161922773135 $366 4.0736161922773135 $325 $372 forward 7 unknown #
point $-1 -69.703054902798556 -32.656648089580756 -9.9457916179437298 #
straight-curve $-1 -73.776671095075869 -28.704738616412513 -9.9457916179437298 1 0 0 I I #
plane-surface $-1 0 0 -9.9457916179437298 0 0 1 1 0 0 forward_v I I I I #
edge $-1 $337 -36.532949620905853 $254 -29.807260942879523 $245 $373 forward 7 unknown #
coedge $-1 $259 $250 $246 $333 forward $260 $-1 #
edge $-1 $255 29.807260942879523 $336 36.532949620905853 $332 $374 forward 7 unknown #
coedge $-1 $257 $248 $263 $346 reversed $243 $-1 #
coedge $-1 $248 $257 $259 $344 reversed $243 $-1 #
vertex $-1 $344 $375 #
vertex $-1 $331 $376 #
straight-curve $-1 69.703054902798556 -12.765064853693296 0 0 0 1 I I #
straight-curve $-1 62.977366224772211 -7.2184105434601413 -9.9457916179437298 0 1 0 I I #
straight-curve $-1 62.977366224772211 -7.2184105434601413 9.9457916179437298 0 -1 0 I I #
point $-1 62.977366224772211 -12.765064853693296 9.9457916179437298 #
point $-1 62.977366224772211 -12.765064853693296 -9.9457916179437298 #
straight-curve $-1 69.703054902798556 -16.108577320147269 0 0 0 -1 I I #
edge $-1 $336 12.765064853693296 $261 16.108577320147269 $335 $377 forward 7 unknown #
point $-1 69.703054902798542 -16.108577320147269 -9.9457916179437298 #
edge $-1 $264 -16.108577320147269 $337 -12.765064853693296 $334 $378 forward 7 unknown #
point $-1 69.703054902798542 -16.108577320147269 9.9457916179437298 #
edge $-1 $349 60.064784109234267 $352 63.451002936954076 $269 $379 forward 7 unknown #
vertex $-1 $283 $380 #
straight-curve $-1 45.05952613424634 54.694641073516138 9.9457916179437262 0 1 0 I I #
edge $-1 $352 -31.092346181485084 $280 3.1579862759625712 $279 $381 forward 7 unknown #
vertex $-1 $351 $382 #
straight-curve $-1 45.05952613424634 -4.8055188205035932 60.061093405883611 0 -0.57357642473473569 0.81915205242281985 I I #
point $-1 45.05952613424634 30.285592211946884 9.9457916179437262 #
point $-1 10.809193676798685 32.656648089580756 6.5595727902239176 #
straight-curve $-1 0 32.656648089580756 9.9457916179437298 -1 0 0 I I #
vertex $-1 $286 $383 #
point $-1 21.595002950355152 30.480672896973743 7.5591635917127062 #
vertex $-1 $290 $384 #
point $-1 36.273716860689859 30.480672896973743 7.5591635917127062 #
point $-1 -69.703054902798556 -32.656648089580756 -9.9457916179437298 #
straight-curve $-1 -69.703054902798556 0 -9.9457916179437298 0 1 0 I I #
point $-1 -69.703054902798556 32.656648089580756 -9.9457916179437298 #
straight-curve $-1 -69.703054902798556 32.656648089580756 0 0 0 -1 I I #
edge $-1 $322 -9.9457916179437298 $366 9.9457916179437298 $313 $385 forward 7 unknown #
vertex $-1 $315 $386 #
straight-curve $-1 -77.850287287353183 -30.680693352996634 -9.9457916179437298 0 1 0 I I #
straight-curve $-1 -77.850287287353183 -30.680693352996634 9.9457916179437298 0 -1 0 I I #
point $-1 -77.850287287353183 -28.704738616412513 9.9457916179437298 #
point $-1 -77.850287287353183 -28.704738616412513 -9.9457916179437298 #
point $-1 -77.850287287353183 -32.656648089580756 9.9457916179437298 #
straight-curve $-1 -73.776671095075869 -32.656648089580756 -9.9457916179437298 -1 0 0 I I #
straight-curve $-1 33.170105281892688 -12.765064853693296 9.9457916179437298 -1 0 0 I I #
straight-curve $-1 33.170105281892688 -12.765064853693296 -9.9457916179437298 1 0 0 I I #
point $-1 69.703054902798542 -12.765064853693296 -9.9457916179437298 #
point $-1 69.703054902798542 -12.765064853693296 9.9457916179437298 #
straight-curve $-1 69.703054902798556 0 -9.9457916179437298 0 -1 0 I I #
straight-curve $-1 69.703054902798556 0 9.9457916179437298 0 1 0 I I #
straight-curve $-1 45.05952613424634 32.656648089580756 70.010575727177994 0 0 -1 I I #
point $-1 45.05952613424634 32.656648089580756 9.9457916179437298 #
straight-curve $-1 13.967179952761256 32.656648089580756 6.559572790223914 -1 0 0 I I #
point $-1 45.05952613424634 32.656648089580756 6.5595727902239176 #
point $-1 20.595002950355152 29.661520844550921 6.985587166977969 #
point $-1 35.273716860689859 29.661520844550921 6.985587166977969 #
straight-curve $-1 -77.850287287353183 -32.656648089580756 0 0 0 -1 I I #
point $-1 -77.850287287353183 -32.656648089580756 -9.9457916179437298 #
End-of-ACIS-data 