500 0 18 0           
7 Unknown 11 ACIS 5.0 NT 24 Fri Mar 26 20:22:16 1999 
-1 9.9999999999999995e-007 1e-010 
body $-1 $18 $-1 $19 #
body $-1 $20 $-1 $21 #
body $-1 $22 $-1 $23 #
body $-1 $24 $-1 $25 #
body $-1 $26 $-1 $27 #
body $-1 $28 $-1 $29 #
body $-1 $30 $-1 $31 #
body $-1 $32 $-1 $33 #
body $-1 $34 $-1 $35 #
body $-1 $36 $-1 $37 #
body $-1 $38 $-1 $39 #
body $-1 $40 $-1 $41 #
body $-1 $42 $-1 $43 #
body $-1 $44 $-1 $45 #
body $-1 $46 $-1 $47 #
body $-1 $48 $-1 $49 #
body $-1 $50 $-1 $51 #
body $-1 $52 $-1 $53 #
lump $-1 $-1 $54 $0 #
transform $-1 1 0 0 0 1 0 0 0 1 49.642628254036069 24.165310891018471 8.9980328272416532 1 rotate no_reflect no_shear #
lump $-1 $-1 $55 $1 #
transform $-1 1 0 0 0 1 0 0 0 1 49.642628254036069 24.165310891018471 8.9980328272416532 1 rotate no_reflect no_shear #
lump $-1 $-1 $56 $2 #
transform $-1 1 0 0 0 1 0 0 0 1 49.642628254036069 24.165310891018471 8.9980328272416532 1 rotate no_reflect no_shear #
lump $-1 $-1 $57 $3 #
transform $-1 1 0 0 0 1 0 0 0 1 49.642628254036069 24.165310891018471 8.9980328272416532 1 rotate no_reflect no_shear #
lump $-1 $-1 $58 $4 #
transform $-1 1 0 0 0 1 0 0 0 1 49.642628254036069 24.165310891018471 8.9980328272416532 1 rotate no_reflect no_shear #
lump $-1 $-1 $59 $5 #
transform $-1 1 0 0 0 1 0 0 0 1 49.642628254036069 24.165310891018471 8.9980328272416532 1 rotate no_reflect no_shear #
lump $-1 $-1 $60 $6 #
transform $-1 1 0 0 0 1 0 0 0 1 49.642628254036069 24.165310891018471 8.9980328272416532 1 rotate no_reflect no_shear #
lump $-1 $-1 $61 $7 #
transform $-1 1 0 0 0 1 0 0 0 1 49.642628254036069 24.165310891018471 8.9980328272416532 1 rotate no_reflect no_shear #
lump $-1 $-1 $62 $8 #
transform $-1 1 0 0 0 1 0 0 0 1 49.642628254036069 24.165310891018471 8.9980328272416532 1 rotate no_reflect no_shear #
lump $-1 $-1 $63 $9 #
transform $-1 1 0 0 0 1 0 0 0 1 49.642628254036069 24.165310891018471 8.9980328272416532 1 rotate no_reflect no_shear #
lump $-1 $-1 $64 $10 #
transform $-1 1 0 0 0 1 0 0 0 1 49.642628254036069 24.165310891018471 8.9980328272416532 1 rotate no_reflect no_shear #
lump $-1 $-1 $65 $11 #
transform $-1 1 0 0 0 1 0 0 0 1 49.642628254036069 24.165310891018471 8.9980328272416532 1 rotate no_reflect no_shear #
lump $-1 $-1 $66 $12 #
transform $-1 1 0 0 0 1 0 0 0 1 49.642628254036069 24.165310891018471 8.9980328272416532 1 rotate no_reflect no_shear #
lump $-1 $-1 $67 $13 #
transform $-1 1 0 0 0 1 0 0 0 1 49.642628254036069 24.165310891018471 8.9980328272416532 1 rotate no_reflect no_shear #
lump $-1 $-1 $68 $14 #
transform $-1 1 0 0 0 1 0 0 0 1 49.642628254036069 24.165310891018471 8.9980328272416532 1 rotate no_reflect no_shear #
lump $-1 $-1 $69 $15 #
transform $-1 1 0 0 0 1 0 0 0 1 49.642628254036069 24.165310891018471 8.9980328272416532 1 rotate no_reflect no_shear #
lump $-1 $-1 $70 $16 #
transform $-1 1 0 0 0 1 0 0 0 1 49.642628254036069 24.165310891018471 8.9980328272416532 1 rotate no_reflect no_shear #
lump $-1 $-1 $71 $17 #
transform $-1 1 0 0 0 1 0 0 0 1 49.642628254036069 24.165310891018471 8.9980328272416532 1 rotate no_reflect no_shear #
shell $-1 $-1 $-1 $72 $-1 $18 #
shell $-1 $-1 $-1 $73 $-1 $20 #
shell $-1 $-1 $-1 $74 $-1 $22 #
shell $-1 $-1 $-1 $75 $-1 $24 #
shell $-1 $-1 $-1 $76 $-1 $26 #
shell $-1 $-1 $-1 $77 $-1 $28 #
shell $-1 $-1 $-1 $78 $-1 $30 #
shell $-1 $-1 $-1 $79 $-1 $32 #
shell $-1 $-1 $-1 $80 $-1 $34 #
shell $-1 $-1 $-1 $81 $-1 $36 #
shell $-1 $-1 $-1 $82 $-1 $38 #
shell $-1 $-1 $-1 $83 $-1 $40 #
shell $-1 $-1 $-1 $84 $-1 $42 #
shell $-1 $-1 $-1 $85 $-1 $44 #
shell $-1 $-1 $-1 $86 $-1 $46 #
shell $-1 $-1 $-1 $87 $-1 $48 #
shell $-1 $-1 $-1 $88 $-1 $50 #
shell $-1 $-1 $-1 $89 $-1 $52 #
face $-1 $90 $91 $54 $-1 $92 forward single #
face $-1 $93 $94 $55 $-1 $95 forward single #
face $-1 $96 $97 $56 $-1 $98 reversed single #
face $-1 $99 $100 $57 $-1 $101 forward single #
face $-1 $102 $103 $58 $-1 $104 forward single #
face $-1 $105 $106 $59 $-1 $107 forward single #
face $-1 $108 $109 $60 $-1 $110 reversed single #
face $-1 $111 $112 $61 $-1 $113 forward single #
face $-1 $114 $115 $62 $-1 $116 forward single #
face $-1 $117 $118 $63 $-1 $119 forward single #
face $-1 $120 $121 $64 $-1 $122 reversed single #
face $-1 $123 $124 $65 $-1 $125 forward single #
face $-1 $126 $127 $66 $-1 $128 forward single #
face $-1 $129 $130 $67 $-1 $131 forward single #
face $-1 $132 $133 $68 $-1 $134 reversed single #
face $-1 $135 $136 $69 $-1 $137 forward single #
face $-1 $138 $139 $70 $-1 $140 forward single #
face $-1 $141 $142 $71 $-1 $143 forward single #
face $-1 $144 $145 $54 $-1 $146 reversed single #
loop $-1 $-1 $147 $72 #
plane-surface $-1 0 0 8.9980328272416532 0 0 1 1 0 0 forward_v I I I I #
face $-1 $148 $149 $55 $-1 $150 forward single #
loop $-1 $-1 $151 $73 #
plane-surface $-1 0 -24.165310891018471 0 0 1 0 0 0 1 forward_v I I I I #
face $-1 $152 $153 $56 $-1 $154 reversed single #
loop $-1 $-1 $155 $74 #
plane-surface $-1 -38.752217026932961 85.983555772727783 95.31313988438454 1 0 0 0 -0.86602541151947299 -0.49999998660252726 forward_v I I I I #
face $-1 $156 $157 $57 $-1 $158 forward single #
loop $-1 $159 $160 $75 #
cone-surface $-1 -35.966036446949978 21.80858694711452 5.909688782542811 0 -0.86602541151947299 -0.49999998660252726 1 0 0 1 I I 0 1 1 forward I I I I #
face $-1 $161 $162 $58 $-1 $163 forward single #
loop $-1 $164 $165 $76 #
cone-surface $-1 -31.786765576975498 21.80858694711452 5.909688782542811 0 -0.86602541151947299 -0.49999998660252726 1 0 0 1 I I 0 1 1 forward I I I I #
face $-1 $166 $167 $59 $-1 $168 forward single #
loop $-1 $169 $170 $77 #
cone-surface $-1 -27.60749470700102 21.80858694711452 5.909688782542811 0 -0.86602541151947299 -0.49999998660252726 1 0 0 1 I I 0 1 1 forward I I I I #
face $-1 $171 $172 $60 $-1 $173 reversed single #
loop $-1 $-1 $174 $78 #
plane-surface $-1 -17.561039975615962 85.983555772727783 95.31313988438454 1 0 0 0 -0.86602541151947299 -0.49999998660252726 forward_v I I I I #
face $-1 $175 $176 $61 $-1 $177 forward single #
loop $-1 $178 $179 $79 #
cone-surface $-1 -14.77485939563298 21.80858694711452 5.909688782542811 0 -0.86602541151947299 -0.49999998660252726 1 0 0 1 I I 0 1 1 forward I I I I #
face $-1 $180 $181 $62 $-1 $182 forward single #
loop $-1 $183 $184 $80 #
cone-surface $-1 -10.595588525658499 21.80858694711452 5.909688782542811 0 -0.86602541151947299 -0.49999998660252726 1 0 0 1 I I 0 1 1 forward I I I I #
face $-1 $185 $186 $63 $-1 $187 forward single #
loop $-1 $188 $189 $81 #
cone-surface $-1 -6.4163176556840256 21.80858694711452 5.909688782542811 0 -0.86602541151947299 -0.49999998660252726 1 0 0 1 I I 0 1 1 forward I I I I #
face $-1 $190 $191 $64 $-1 $192 reversed single #
loop $-1 $-1 $193 $82 #
plane-surface $-1 3.6301370757010352 85.983555772727783 95.31313988438454 1 0 0 0 -0.86602541151947299 -0.49999998660252726 forward_v I I I I #
face $-1 $194 $195 $65 $-1 $196 forward single #
loop $-1 $197 $198 $83 #
cone-surface $-1 6.4163176556840185 21.80858694711452 5.909688782542811 0 -0.86602541151947299 -0.49999998660252726 1 0 0 1 I I 0 1 1 forward I I I I #
face $-1 $199 $200 $66 $-1 $201 forward single #
loop $-1 $202 $203 $84 #
cone-surface $-1 10.595588525658499 21.80858694711452 5.909688782542811 0 -0.86602541151947299 -0.49999998660252726 1 0 0 1 I I 0 1 1 forward I I I I #
face $-1 $204 $205 $67 $-1 $206 forward single #
loop $-1 $207 $208 $85 #
cone-surface $-1 14.774859395632973 21.80858694711452 5.909688782542811 0 -0.86602541151947299 -0.49999998660252726 1 0 0 1 I I 0 1 1 forward I I I I #
face $-1 $209 $210 $68 $-1 $211 reversed single #
loop $-1 $-1 $212 $86 #
plane-surface $-1 24.821314127018034 85.983555772727783 95.31313988438454 1 0 0 0 -0.86602541151947299 -0.49999998660252726 forward_v I I I I #
face $-1 $213 $214 $69 $-1 $215 forward single #
loop $-1 $216 $217 $87 #
cone-surface $-1 27.60749470700101 21.80858694711452 5.909688782542811 0 -0.86602541151947299 -0.49999998660252726 1 0 0 1 I I 0 1 1 forward I I I I #
face $-1 $218 $219 $70 $-1 $220 forward single #
loop $-1 $221 $222 $88 #
cone-surface $-1 31.786765576975498 21.80858694711452 5.909688782542811 0 -0.86602541151947299 -0.49999998660252726 1 0 0 1 I I 0 1 1 forward I I I I #
face $-1 $223 $224 $71 $-1 $225 forward single #
loop $-1 $226 $227 $89 #
cone-surface $-1 35.966036446949971 21.80858694711452 5.909688782542811 0 -0.86602541151947299 -0.49999998660252726 1 0 0 1 I I 0 1 1 forward I I I I #
face $-1 $228 $229 $54 $-1 $230 reversed single #
loop $-1 $-1 $231 $90 #
plane-surface $-1 0 0 -8.9980328272416532 0 0 1 1 0 0 forward_v I I I I #
coedge $-1 $232 $233 $234 $235 forward $91 $-1 #
face $-1 $236 $237 $55 $-1 $238 reversed single #
loop $-1 $-1 $239 $93 #
plane-surface $-1 0 0 8.9980328272416532 0 0 1 1 0 0 forward_v I I I I #
coedge $-1 $240 $241 $242 $243 forward $94 $-1 #
face $-1 $244 $245 $56 $-1 $246 reversed single #
loop $-1 $-1 $247 $96 #
plane-surface $-1 -31.786765576975498 6.4750817330150312e-007 45.670512960519986 0 0.86602541151947299 0.49999998660252726 1 0 0 forward_v I I I I #
coedge $-1 $248 $249 $250 $251 reversed $97 $-1 #
face $-1 $-1 $252 $57 $-1 $253 forward single #
loop $-1 $254 $255 $99 #
cone-surface $-1 -35.966036446949978 20.515072659023446 5.1628779867938075 0 -0.86602541151947299 -0.49999998660252726 0.5 0 0 1 I I -0.70710678118654746 0.70710678118654746 0.5 forward I I I I #
loop $-1 $-1 $256 $75 #
coedge $-1 $160 $160 $257 $258 reversed $100 $-1 #
face $-1 $-1 $259 $58 $-1 $260 forward single #
loop $-1 $261 $262 $102 #
cone-surface $-1 -31.786765576975498 20.515072659023446 5.1628779867938075 0 -0.86602541151947299 -0.49999998660252726 0.5 0 0 1 I I -0.70710678118654746 0.70710678118654746 0.5 forward I I I I #
loop $-1 $-1 $263 $76 #
coedge $-1 $165 $165 $264 $265 reversed $103 $-1 #
face $-1 $-1 $266 $59 $-1 $267 forward single #
loop $-1 $268 $269 $105 #
cone-surface $-1 -27.60749470700102 20.515072659023446 5.1628779867938075 0 -0.86602541151947299 -0.49999998660252726 0.5 0 0 1 I I -0.70710678118654746 0.70710678118654746 0.5 forward I I I I #
loop $-1 $-1 $270 $77 #
coedge $-1 $170 $170 $271 $272 reversed $106 $-1 #
face $-1 $273 $274 $60 $-1 $275 reversed single #
loop $-1 $-1 $276 $108 #
plane-surface $-1 -10.595588525658499 6.4750817330150312e-007 45.670512960519986 0 0.86602541151947299 0.49999998660252726 1 0 0 forward_v I I I I #
coedge $-1 $277 $278 $279 $280 reversed $109 $-1 #
face $-1 $-1 $281 $61 $-1 $282 forward single #
loop $-1 $283 $284 $111 #
cone-surface $-1 -14.77485939563298 20.515072659023446 5.1628779867938075 0 -0.86602541151947299 -0.49999998660252726 0.5 0 0 1 I I -0.70710678118654746 0.70710678118654746 0.5 forward I I I I #
loop $-1 $-1 $285 $79 #
coedge $-1 $179 $179 $286 $287 reversed $112 $-1 #
face $-1 $-1 $288 $62 $-1 $289 forward single #
loop $-1 $290 $291 $114 #
cone-surface $-1 -10.595588525658499 20.515072659023446 5.1628779867938075 0 -0.86602541151947299 -0.49999998660252726 0.5 0 0 1 I I -0.70710678118654746 0.70710678118654746 0.5 forward I I I I #
loop $-1 $-1 $292 $80 #
coedge $-1 $184 $184 $293 $294 reversed $115 $-1 #
face $-1 $-1 $295 $63 $-1 $296 forward single #
loop $-1 $297 $298 $117 #
cone-surface $-1 -6.4163176556840256 20.515072659023446 5.1628779867938075 0 -0.86602541151947299 -0.49999998660252726 0.5 0 0 1 I I -0.70710678118654746 0.70710678118654746 0.5 forward I I I I #
loop $-1 $-1 $299 $81 #
coedge $-1 $189 $189 $300 $301 reversed $118 $-1 #
face $-1 $302 $303 $64 $-1 $304 reversed single #
loop $-1 $-1 $305 $120 #
plane-surface $-1 10.595588525658499 6.4750817330150312e-007 45.670512960519986 0 0.86602541151947299 0.49999998660252726 1 0 0 forward_v I I I I #
coedge $-1 $306 $307 $308 $309 reversed $121 $-1 #
face $-1 $-1 $310 $65 $-1 $311 forward single #
loop $-1 $312 $313 $123 #
cone-surface $-1 6.4163176556840185 20.515072659023446 5.1628779867938075 0 -0.86602541151947299 -0.49999998660252726 0.5 0 0 1 I I -0.70710678118654746 0.70710678118654746 0.5 forward I I I I #
loop $-1 $-1 $314 $83 #
coedge $-1 $198 $198 $315 $316 reversed $124 $-1 #
face $-1 $-1 $317 $66 $-1 $318 forward single #
loop $-1 $319 $320 $126 #
cone-surface $-1 10.595588525658499 20.515072659023446 5.1628779867938075 0 -0.86602541151947299 -0.49999998660252726 0.5 0 0 1 I I -0.70710678118654746 0.70710678118654746 0.5 forward I I I I #
loop $-1 $-1 $321 $84 #
coedge $-1 $203 $203 $322 $323 reversed $127 $-1 #
face $-1 $-1 $324 $67 $-1 $325 forward single #
loop $-1 $326 $327 $129 #
cone-surface $-1 14.774859395632973 20.515072659023446 5.1628779867938075 0 -0.86602541151947299 -0.49999998660252726 0.5 0 0 1 I I -0.70710678118654746 0.70710678118654746 0.5 forward I I I I #
loop $-1 $-1 $328 $85 #
coedge $-1 $208 $208 $329 $330 reversed $130 $-1 #
face $-1 $331 $332 $68 $-1 $333 reversed single #
loop $-1 $-1 $334 $132 #
plane-surface $-1 31.786765576975498 6.4750817330150312e-007 45.670512960519986 0 0.86602541151947299 0.49999998660252726 1 0 0 forward_v I I I I #
coedge $-1 $335 $336 $337 $338 reversed $133 $-1 #
face $-1 $-1 $339 $69 $-1 $340 forward single #
loop $-1 $341 $342 $135 #
cone-surface $-1 27.60749470700101 20.515072659023446 5.1628779867938075 0 -0.86602541151947299 -0.49999998660252726 0.5 0 0 1 I I -0.70710678118654746 0.70710678118654746 0.5 forward I I I I #
loop $-1 $-1 $343 $87 #
coedge $-1 $217 $217 $344 $345 reversed $136 $-1 #
face $-1 $-1 $346 $70 $-1 $347 forward single #
loop $-1 $348 $349 $138 #
cone-surface $-1 31.786765576975498 20.515072659023446 5.1628779867938075 0 -0.86602541151947299 -0.49999998660252726 0.5 0 0 1 I I -0.70710678118654746 0.70710678118654746 0.5 forward I I I I #
loop $-1 $-1 $350 $88 #
coedge $-1 $222 $222 $351 $352 reversed $139 $-1 #
face $-1 $-1 $353 $71 $-1 $354 forward single #
loop $-1 $355 $356 $141 #
cone-surface $-1 35.966036446949971 20.515072659023446 5.1628779867938075 0 -0.86602541151947299 -0.49999998660252726 0.5 0 0 1 I I -0.70710678118654746 0.70710678118654746 0.5 forward I I I I #
loop $-1 $-1 $357 $89 #
coedge $-1 $227 $227 $358 $359 reversed $142 $-1 #
face $-1 $360 $361 $54 $-1 $362 reversed single #
loop $-1 $-1 $363 $144 #
plane-surface $-1 0 -24.165310891018471 0 0 1 0 0 0 1 forward_v I I I I #
coedge $-1 $364 $365 $366 $367 forward $145 $-1 #
coedge $-1 $368 $147 $369 $370 forward $91 $-1 #
coedge $-1 $147 $368 $371 $372 forward $91 $-1 #
coedge $-1 $373 $374 $147 $235 reversed $375 $-1 #
edge $-1 $376 -24.165310891018471 $377 24.165310891018471 $234 $378 forward 7 unknown #
face $-1 $379 $380 $55 $-1 $381 reversed single #
loop $-1 $-1 $382 $148 #
plane-surface $-1 -49.642628254036069 0 0 1 0 0 0 0 -1 forward_v I I I I #
coedge $-1 $383 $384 $241 $385 forward $149 $-1 #
coedge $-1 $386 $151 $387 $388 reversed $94 $-1 #
coedge $-1 $151 $386 $239 $385 reversed $94 $-1 #
coedge $-1 $389 $390 $151 $243 reversed $391 $-1 #
edge $-1 $392 -8.9980328272416532 $393 8.9980328272416532 $242 $394 forward 7 unknown #
face $-1 $395 $396 $56 $-1 $397 reversed single #
loop $-1 $-1 $398 $152 #
plane-surface $-1 -24.821314127018034 85.983555772727783 95.31313988438454 -1 0 0 0 0.86602541151947299 0.49999998660252726 forward_v I I I I #
coedge $-1 $399 $400 $401 $402 reversed $153 $-1 #
coedge $-1 $249 $155 $403 $404 reversed $97 $-1 #
coedge $-1 $155 $248 $399 $405 reversed $97 $-1 #
coedge $-1 $401 $406 $155 $251 forward $407 $-1 #
edge $-1 $408 18.82646699534542 $409 21.818911718490654 $250 $410 forward 7 unknown #
loop $-1 $-1 $257 $156 #
plane-surface $-1 -31.786765576975498 6.4750817330150312e-007 45.670512960519986 0 0.86602541151947299 0.49999998660252726 1 0 0 forward_v I I I I #
loop $-1 $-1 $411 $99 #
coedge $-1 $255 $255 $256 $412 reversed $157 $-1 #
coedge $-1 $256 $256 $255 $412 forward $159 $-1 #
coedge $-1 $257 $257 $160 $258 forward $252 $-1 #
edge $-1 $413 7.1395988686750108e-016 $413 6.2831853071796013 $257 $414 forward 7 unknown #
loop $-1 $-1 $264 $161 #
plane-surface $-1 -31.786765576975498 6.4750817330150312e-007 45.670512960519986 0 0.86602541151947299 0.49999998660252726 1 0 0 forward_v I I I I #
loop $-1 $-1 $415 $102 #
coedge $-1 $262 $262 $263 $416 reversed $162 $-1 #
coedge $-1 $263 $263 $262 $416 forward $164 $-1 #
coedge $-1 $264 $264 $165 $265 forward $259 $-1 #
edge $-1 $417 7.1395988686750108e-016 $417 6.2831853071796013 $264 $418 forward 7 unknown #
loop $-1 $-1 $271 $166 #
plane-surface $-1 -31.786765576975498 6.4750817330150312e-007 45.670512960519986 0 0.86602541151947299 0.49999998660252726 1 0 0 forward_v I I I I #
loop $-1 $-1 $419 $105 #
coedge $-1 $269 $269 $270 $420 reversed $167 $-1 #
coedge $-1 $270 $270 $269 $420 forward $169 $-1 #
coedge $-1 $271 $271 $170 $272 forward $266 $-1 #
edge $-1 $421 7.1395988686750108e-016 $421 6.2831853071796013 $271 $422 forward 7 unknown #
face $-1 $423 $424 $60 $-1 $425 forward single #
loop $-1 $-1 $426 $171 #
plane-surface $-1 -3.6301370757010352 85.983555772727783 95.31313988438454 -1 0 0 0 0.86602541151947299 0.49999998660252726 forward_v I I I I #
coedge $-1 $427 $428 $429 $430 reversed $172 $-1 #
coedge $-1 $278 $174 $431 $432 reversed $109 $-1 #
coedge $-1 $174 $277 $427 $433 reversed $109 $-1 #
coedge $-1 $429 $434 $174 $280 forward $424 $-1 #
edge $-1 $435 18.82646699534542 $436 21.818911718490654 $279 $437 forward 7 unknown #
loop $-1 $-1 $286 $175 #
plane-surface $-1 -10.595588525658499 6.4750817330150312e-007 45.670512960519986 0 0.86602541151947299 0.49999998660252726 1 0 0 forward_v I I I I #
loop $-1 $-1 $438 $111 #
coedge $-1 $284 $284 $285 $439 reversed $176 $-1 #
coedge $-1 $285 $285 $284 $439 forward $178 $-1 #
coedge $-1 $286 $286 $179 $287 forward $281 $-1 #
edge $-1 $440 7.1395988686750108e-016 $440 6.2831853071796013 $286 $441 forward 7 unknown #
loop $-1 $-1 $293 $180 #
plane-surface $-1 -10.595588525658499 6.4750817330150312e-007 45.670512960519986 0 0.86602541151947299 0.49999998660252726 1 0 0 forward_v I I I I #
loop $-1 $-1 $442 $114 #
coedge $-1 $291 $291 $292 $443 reversed $181 $-1 #
coedge $-1 $292 $292 $291 $443 forward $183 $-1 #
coedge $-1 $293 $293 $184 $294 forward $288 $-1 #
edge $-1 $444 7.1395988686750108e-016 $444 6.2831853071796013 $293 $445 forward 7 unknown #
loop $-1 $-1 $300 $185 #
plane-surface $-1 -10.595588525658499 6.4750817330150312e-007 45.670512960519986 0 0.86602541151947299 0.49999998660252726 1 0 0 forward_v I I I I #
loop $-1 $-1 $446 $117 #
coedge $-1 $298 $298 $299 $447 reversed $186 $-1 #
coedge $-1 $299 $299 $298 $447 forward $188 $-1 #
coedge $-1 $300 $300 $189 $301 forward $295 $-1 #
edge $-1 $448 7.1395988686750108e-016 $448 6.2831853071796013 $300 $449 forward 7 unknown #
face $-1 $450 $451 $64 $-1 $452 forward single #
loop $-1 $-1 $453 $190 #
plane-surface $-1 17.561039975615962 85.983555772727783 95.31313988438454 -1 0 0 0 0.86602541151947299 0.49999998660252726 forward_v I I I I #
coedge $-1 $454 $455 $456 $457 reversed $191 $-1 #
coedge $-1 $307 $193 $458 $459 reversed $121 $-1 #
coedge $-1 $193 $306 $454 $460 reversed $121 $-1 #
coedge $-1 $456 $461 $193 $309 forward $451 $-1 #
edge $-1 $462 18.82646699534542 $463 21.818911718490654 $308 $464 forward 7 unknown #
loop $-1 $-1 $315 $194 #
plane-surface $-1 10.595588525658499 6.4750817330150312e-007 45.670512960519986 0 0.86602541151947299 0.49999998660252726 1 0 0 forward_v I I I I #
loop $-1 $-1 $465 $123 #
coedge $-1 $313 $313 $314 $466 reversed $195 $-1 #
coedge $-1 $314 $314 $313 $466 forward $197 $-1 #
coedge $-1 $315 $315 $198 $316 forward $310 $-1 #
edge $-1 $467 7.1395988686750108e-016 $467 6.2831853071796013 $315 $468 forward 7 unknown #
loop $-1 $-1 $322 $199 #
plane-surface $-1 10.595588525658499 6.4750817330150312e-007 45.670512960519986 0 0.86602541151947299 0.49999998660252726 1 0 0 forward_v I I I I #
loop $-1 $-1 $469 $126 #
coedge $-1 $320 $320 $321 $470 reversed $200 $-1 #
coedge $-1 $321 $321 $320 $470 forward $202 $-1 #
coedge $-1 $322 $322 $203 $323 forward $317 $-1 #
edge $-1 $471 7.1395988686750108e-016 $471 6.2831853071796013 $322 $472 forward 7 unknown #
loop $-1 $-1 $329 $204 #
plane-surface $-1 10.595588525658499 6.4750817330150312e-007 45.670512960519986 0 0.86602541151947299 0.49999998660252726 1 0 0 forward_v I I I I #
loop $-1 $-1 $473 $129 #
coedge $-1 $327 $327 $328 $474 reversed $205 $-1 #
coedge $-1 $328 $328 $327 $474 forward $207 $-1 #
coedge $-1 $329 $329 $208 $330 forward $324 $-1 #
edge $-1 $475 7.1395988686750108e-016 $475 6.2831853071796013 $329 $476 forward 7 unknown #
face $-1 $477 $478 $68 $-1 $479 forward single #
loop $-1 $-1 $480 $209 #
plane-surface $-1 38.752217026932961 85.983555772727783 95.31313988438454 -1 0 0 0 0.86602541151947299 0.49999998660252726 forward_v I I I I #
coedge $-1 $481 $482 $483 $484 reversed $210 $-1 #
coedge $-1 $336 $212 $485 $486 reversed $133 $-1 #
coedge $-1 $212 $335 $481 $487 reversed $133 $-1 #
coedge $-1 $483 $488 $212 $338 forward $478 $-1 #
edge $-1 $489 18.82646699534542 $490 21.818911718490654 $337 $491 forward 7 unknown #
loop $-1 $-1 $344 $213 #
plane-surface $-1 31.786765576975498 6.4750817330150312e-007 45.670512960519986 0 0.86602541151947299 0.49999998660252726 1 0 0 forward_v I I I I #
loop $-1 $-1 $492 $135 #
coedge $-1 $342 $342 $343 $493 reversed $214 $-1 #
coedge $-1 $343 $343 $342 $493 forward $216 $-1 #
coedge $-1 $344 $344 $217 $345 forward $339 $-1 #
edge $-1 $494 7.1395988686750108e-016 $494 6.2831853071796013 $344 $495 forward 7 unknown #
loop $-1 $-1 $351 $218 #
plane-surface $-1 31.786765576975498 6.4750817330150312e-007 45.670512960519986 0 0.86602541151947299 0.49999998660252726 1 0 0 forward_v I I I I #
loop $-1 $-1 $496 $138 #
coedge $-1 $349 $349 $350 $497 reversed $219 $-1 #
coedge $-1 $350 $350 $349 $497 forward $221 $-1 #
coedge $-1 $351 $351 $222 $352 forward $346 $-1 #
edge $-1 $498 7.1395988686750108e-016 $498 6.2831853071796013 $351 $499 forward 7 unknown #
loop $-1 $-1 $358 $223 #
plane-surface $-1 31.786765576975498 6.4750817330150312e-007 45.670512960519986 0 0.86602541151947299 0.49999998660252726 1 0 0 forward_v I I I I #
loop $-1 $-1 $500 $141 #
coedge $-1 $356 $356 $357 $501 reversed $224 $-1 #
coedge $-1 $357 $357 $356 $501 forward $226 $-1 #
coedge $-1 $358 $358 $227 $359 forward $353 $-1 #
edge $-1 $502 7.1395988686750108e-016 $502 6.2831853071796013 $358 $503 forward 7 unknown #
face $-1 $504 $505 $54 $-1 $506 reversed single #
loop $-1 $-1 $507 $228 #
plane-surface $-1 -49.642628254036069 0 0 1 0 0 0 0 -1 forward_v I I I I #
coedge $-1 $508 $371 $509 $510 forward $229 $-1 #
coedge $-1 $511 $231 $508 $512 forward $145 $-1 #
coedge $-1 $231 $511 $513 $514 forward $145 $-1 #
coedge $-1 $374 $373 $231 $367 reversed $375 $-1 #
edge $-1 $515 -24.165310891018471 $516 24.165310891018471 $366 $517 forward 7 unknown #
coedge $-1 $233 $232 $518 $519 forward $91 $-1 #
coedge $-1 $520 $521 $232 $370 reversed $505 $-1 #
edge $-1 $377 -49.642628254036069 $522 49.642628254036069 $369 $523 forward 7 unknown #
coedge $-1 $363 $524 $233 $372 reversed $229 $-1 #
edge $-1 $525 -49.642628254036069 $376 49.642628254036069 $371 $526 forward 7 unknown #
coedge $-1 $366 $234 $524 $527 forward $375 $-1 #
coedge $-1 $234 $366 $520 $528 reversed $375 $-1 #
loop $-1 $-1 $373 $504 #
vertex $-1 $235 $529 #
vertex $-1 $235 $530 #
straight-curve $-1 49.642628254036069 0 8.9980328272416532 0 1 0 I I #
face $-1 $531 $391 $55 $-1 $532 reversed single #
loop $-1 $-1 $533 $236 #
plane-surface $-1 -47.065473241969656 -35.945206929166702 0 0 1 0 0 0 1 forward_v I I I I #
coedge $-1 $534 $535 $386 $536 forward $237 $-1 #
coedge $-1 $537 $239 $535 $538 forward $149 $-1 #
coedge $-1 $239 $537 $389 $539 forward $149 $-1 #
edge $-1 $392 44.488318229903243 $540 49.642628254036069 $239 $541 forward 7 unknown #
coedge $-1 $241 $240 $382 $536 reversed $94 $-1 #
coedge $-1 $542 $543 $240 $388 forward $544 $-1 #
edge $-1 $545 -49.642628254036069 $393 -44.488318229903243 $387 $546 forward 7 unknown #
coedge $-1 $547 $242 $384 $539 reversed $391 $-1 #
coedge $-1 $242 $547 $542 $548 reversed $391 $-1 #
loop $-1 $-1 $547 $379 #
vertex $-1 $385 $549 #
vertex $-1 $548 $550 #
straight-curve $-1 -44.488318229903243 -24.165310891018471 0 0 0 -1 I I #
face $-1 $-1 $407 $56 $-1 $551 forward single #
loop $-1 $-1 $552 $244 #
plane-surface $-1 0 24.165310891018471 0 0 -1 0 0 0 -1 forward_v I I I I #
coedge $-1 $553 $554 $555 $556 reversed $245 $-1 #
coedge $-1 $557 $247 $249 $405 forward $153 $-1 #
coedge $-1 $247 $557 $553 $558 forward $153 $-1 #
coedge $-1 $555 $250 $247 $402 forward $407 $-1 #
edge $-1 $409 -22.858834238445212 $559 -8.9279313385302856 $401 $560 forward 7 unknown #
coedge $-1 $561 $562 $248 $404 forward $396 $-1 #
edge $-1 $563 -43.84160359945286 $408 -38.658537114950619 $403 $564 forward 7 unknown #
edge $-1 $409 42.345732175381713 $563 48.330621782036971 $249 $565 forward 7 unknown #
coedge $-1 $250 $555 $561 $566 forward $407 $-1 #
loop $-1 $-1 $555 $395 #
vertex $-1 $404 $567 #
vertex $-1 $251 $568 #
straight-curve $-1 -38.752217026932961 42.991777886363892 8.9980328272416514 0 -1 0 I I #
coedge $-1 $411 $411 $-1 $569 reversed $254 $-1 #
edge $-1 $570 0 $570 6.2831853071796004 $255 $571 forward 7 unknown #
vertex $-1 $258 $572 #
ellipse-curve $-1 -35.966036446949978 22.669088529445851 6.4064995849905451 0 0.86602541151947299 0.49999998660252726 1 0 0 1 I I #
coedge $-1 $415 $415 $-1 $573 reversed $261 $-1 #
edge $-1 $574 0 $574 6.2831853071796004 $262 $575 forward 7 unknown #
vertex $-1 $265 $576 #
ellipse-curve $-1 -31.786765576975498 22.669088529445851 6.4064995849905451 0 0.86602541151947299 0.49999998660252726 1 0 0 1 I I #
coedge $-1 $419 $419 $-1 $577 reversed $268 $-1 #
edge $-1 $578 0 $578 6.2831853071796004 $269 $579 forward 7 unknown #
vertex $-1 $272 $580 #
ellipse-curve $-1 -27.60749470700102 22.669088529445851 6.4064995849905451 0 0.86602541151947299 0.49999998660252726 1 0 0 1 I I #
face $-1 $-1 $581 $60 $-1 $582 reversed single #
loop $-1 $-1 $279 $273 #
plane-surface $-1 0 0 8.9980328272416532 0 0 1 1 0 0 forward_v I I I I #
coedge $-1 $583 $584 $585 $586 reversed $274 $-1 #
coedge $-1 $587 $276 $278 $433 forward $172 $-1 #
coedge $-1 $276 $587 $583 $588 forward $172 $-1 #
coedge $-1 $585 $279 $276 $430 forward $424 $-1 #
edge $-1 $436 -12.263245712786713 $589 1.6676571871282144 $429 $590 forward 7 unknown #
coedge $-1 $591 $592 $277 $432 forward $581 $-1 #
edge $-1 $593 -43.84160359945286 $435 -38.658537114950619 $431 $594 forward 7 unknown #
edge $-1 $436 42.345732175381713 $593 48.330621782036971 $278 $595 forward 7 unknown #
coedge $-1 $279 $585 $591 $596 forward $424 $-1 #
vertex $-1 $280 $597 #
vertex $-1 $280 $598 #
straight-curve $-1 -17.561039975615962 42.991777886363892 8.9980328272416514 0 -1 0 I I #
coedge $-1 $438 $438 $-1 $599 reversed $283 $-1 #
edge $-1 $600 0 $600 6.2831853071796004 $284 $601 forward 7 unknown #
vertex $-1 $287 $602 #
ellipse-curve $-1 -14.77485939563298 22.669088529445851 6.4064995849905451 0 0.86602541151947299 0.49999998660252726 1 0 0 1 I I #
coedge $-1 $442 $442 $-1 $603 reversed $290 $-1 #
edge $-1 $604 0 $604 6.2831853071796004 $291 $605 forward 7 unknown #
vertex $-1 $294 $606 #
ellipse-curve $-1 -10.595588525658499 22.669088529445851 6.4064995849905451 0 0.86602541151947299 0.49999998660252726 1 0 0 1 I I #
coedge $-1 $446 $446 $-1 $607 reversed $297 $-1 #
edge $-1 $608 0 $608 6.2831853071796004 $298 $609 forward 7 unknown #
vertex $-1 $301 $610 #
ellipse-curve $-1 -6.4163176556840256 22.669088529445851 6.4064995849905451 0 0.86602541151947299 0.49999998660252726 1 0 0 1 I I #
face $-1 $-1 $611 $64 $-1 $612 reversed single #
loop $-1 $-1 $308 $302 #
plane-surface $-1 0 0 8.9980328272416532 0 0 1 1 0 0 forward_v I I I I #
coedge $-1 $613 $614 $615 $616 reversed $303 $-1 #
coedge $-1 $617 $305 $307 $460 forward $191 $-1 #
coedge $-1 $305 $617 $613 $618 forward $191 $-1 #
coedge $-1 $615 $308 $305 $457 forward $451 $-1 #
edge $-1 $463 -1.6676571871282144 $619 12.263245712786713 $456 $620 forward 7 unknown #
coedge $-1 $621 $622 $306 $459 forward $611 $-1 #
edge $-1 $623 -43.84160359945286 $462 -38.658537114950619 $458 $624 forward 7 unknown #
edge $-1 $463 42.345732175381713 $623 48.330621782036971 $307 $625 forward 7 unknown #
coedge $-1 $308 $615 $621 $626 forward $451 $-1 #
vertex $-1 $309 $627 #
vertex $-1 $309 $628 #
straight-curve $-1 3.6301370757010352 42.991777886363892 8.9980328272416514 0 -1 0 I I #
coedge $-1 $465 $465 $-1 $629 reversed $312 $-1 #
edge $-1 $630 0 $630 6.2831853071796004 $313 $631 forward 7 unknown #
vertex $-1 $316 $632 #
ellipse-curve $-1 6.4163176556840185 22.669088529445851 6.4064995849905451 0 0.86602541151947299 0.49999998660252726 1 0 0 1 I I #
coedge $-1 $469 $469 $-1 $633 reversed $319 $-1 #
edge $-1 $634 0 $634 6.2831853071796004 $320 $635 forward 7 unknown #
vertex $-1 $323 $636 #
ellipse-curve $-1 10.595588525658499 22.669088529445851 6.4064995849905451 0 0.86602541151947299 0.49999998660252726 1 0 0 1 I I #
coedge $-1 $473 $473 $-1 $637 reversed $326 $-1 #
edge $-1 $638 0 $638 6.2831853071796004 $327 $639 forward 7 unknown #
vertex $-1 $330 $640 #
ellipse-curve $-1 14.774859395632973 22.669088529445851 6.4064995849905451 0 0.86602541151947299 0.49999998660252726 1 0 0 1 I I #
face $-1 $-1 $641 $68 $-1 $642 reversed single #
loop $-1 $-1 $337 $331 #
plane-surface $-1 0 0 8.9980328272416532 0 0 1 1 0 0 forward_v I I I I #
coedge $-1 $643 $644 $645 $646 reversed $332 $-1 #
coedge $-1 $647 $334 $336 $487 forward $210 $-1 #
coedge $-1 $334 $647 $643 $648 forward $210 $-1 #
coedge $-1 $645 $337 $334 $484 forward $478 $-1 #
edge $-1 $490 8.9279313385302856 $649 22.858834238445212 $483 $650 forward 7 unknown #
coedge $-1 $651 $652 $335 $486 forward $641 $-1 #
edge $-1 $653 -43.84160359945286 $489 -38.658537114950619 $485 $654 forward 7 unknown #
edge $-1 $490 42.345732175381713 $653 48.330621782036971 $336 $655 forward 7 unknown #
coedge $-1 $337 $645 $651 $656 forward $478 $-1 #
vertex $-1 $338 $657 #
vertex $-1 $338 $658 #
straight-curve $-1 24.821314127018034 42.991777886363892 8.9980328272416514 0 -1 0 I I #
coedge $-1 $492 $492 $-1 $659 reversed $341 $-1 #
edge $-1 $660 0 $660 6.2831853071796004 $342 $661 forward 7 unknown #
vertex $-1 $345 $662 #
ellipse-curve $-1 27.60749470700101 22.669088529445851 6.4064995849905451 0 0.86602541151947299 0.49999998660252726 1 0 0 1 I I #
coedge $-1 $496 $496 $-1 $663 reversed $348 $-1 #
edge $-1 $664 0 $664 6.2831853071796004 $349 $665 forward 7 unknown #
vertex $-1 $352 $666 #
ellipse-curve $-1 31.786765576975498 22.669088529445851 6.4064995849905451 0 0.86602541151947299 0.49999998660252726 1 0 0 1 I I #
coedge $-1 $500 $500 $-1 $667 reversed $355 $-1 #
edge $-1 $668 0 $668 6.2831853071796004 $356 $669 forward 7 unknown #
vertex $-1 $359 $670 #
ellipse-curve $-1 35.966036446949971 22.669088529445851 6.4064995849905451 0 0.86602541151947299 0.49999998660252726 1 0 0 1 I I #
face $-1 $-1 $375 $54 $-1 $671 reversed single #
loop $-1 $-1 $520 $360 #
plane-surface $-1 0 24.165310891018471 0 0 -1 0 0 0 -1 forward_v I I I I #
coedge $-1 $672 $518 $521 $673 forward $361 $-1 #
coedge $-1 $524 $363 $364 $512 reversed $229 $-1 #
coedge $-1 $518 $672 $363 $510 reversed $361 $-1 #
edge $-1 $525 -8.9980328272416532 $674 8.9980328272416532 $509 $675 forward 7 unknown #
coedge $-1 $365 $364 $672 $676 forward $145 $-1 #
edge $-1 $516 -49.642628254036069 $674 49.642628254036069 $508 $677 forward 7 unknown #
coedge $-1 $521 $520 $365 $514 reversed $505 $-1 #
edge $-1 $678 -49.642628254036069 $515 49.642628254036069 $513 $679 forward 7 unknown #
vertex $-1 $367 $680 #
vertex $-1 $527 $681 #
straight-curve $-1 49.642628254036069 0 -8.9980328272416532 0 -1 0 I I #
coedge $-1 $507 $509 $368 $519 reversed $361 $-1 #
edge $-1 $522 -24.165310891018471 $525 24.165310891018471 $518 $682 forward 7 unknown #
coedge $-1 $513 $369 $374 $528 forward $505 $-1 #
coedge $-1 $369 $513 $507 $673 reversed $505 $-1 #
vertex $-1 $370 $683 #
straight-curve $-1 0 24.165310891018471 8.9980328272416532 -1 0 0 I I #
coedge $-1 $371 $508 $373 $527 reversed $229 $-1 #
vertex $-1 $519 $684 #
straight-curve $-1 0 -24.165310891018471 8.9980328272416532 1 0 0 I I #
edge $-1 $376 -8.9980328272416532 $516 8.9980328272416532 $373 $685 forward 7 unknown #
edge $-1 $377 -8.9980328272416532 $515 8.9980328272416532 $374 $686 forward 7 unknown #
point $-1 49.642628254036069 -24.165310891018471 8.9980328272416532 #
point $-1 49.642628254036069 24.165310891018471 8.9980328272416532 #
face $-1 $-1 $544 $55 $-1 $687 reversed single #
plane-surface $-1 -44.488318229903243 -30.055258910092586 0 -1 0 0 0 0 1 forward_v I I I I #
coedge $-1 $688 $689 $690 $691 forward $380 $-1 #
coedge $-1 $690 $382 $543 $692 reversed $237 $-1 #
coedge $-1 $382 $690 $383 $538 reversed $237 $-1 #
edge $-1 $540 -8.9980328272416532 $545 8.9980328272416532 $382 $693 forward 7 unknown #
coedge $-1 $384 $383 $689 $694 forward $149 $-1 #
edge $-1 $540 24.165310891018471 $695 35.945206929166702 $535 $696 forward 7 unknown #
edge $-1 $697 -5.8899480190741151 $392 5.8899480190741151 $389 $698 forward 7 unknown #
vertex $-1 $538 $699 #
straight-curve $-1 0 -24.165310891018471 8.9980328272416532 -1 0 0 I I #
coedge $-1 $700 $387 $390 $548 forward $544 $-1 #
coedge $-1 $387 $700 $534 $692 forward $544 $-1 #
loop $-1 $-1 $387 $531 #
vertex $-1 $536 $701 #
straight-curve $-1 0 -24.165310891018471 -8.9980328272416532 1 0 0 I I #
coedge $-1 $390 $389 $702 $703 forward $391 $-1 #
edge $-1 $393 -5.8899480190741151 $704 5.8899480190741151 $390 $705 forward 7 unknown #
point $-1 -44.488318229903243 -24.165310891018471 8.9980328272416532 #
point $-1 -44.488318229903243 -24.165310891018471 -8.9980328272416532 #
plane-surface $-1 0 0 8.9980328272416532 0 0 1 1 0 0 forward_v I I I I #
coedge $-1 $562 $561 $554 $706 forward $396 $-1 #
coedge $-1 $554 $398 $400 $558 reversed $245 $-1 #
coedge $-1 $398 $553 $552 $706 reversed $245 $-1 #
coedge $-1 $406 $401 $398 $556 forward $407 $-1 #
edge $-1 $559 -21.818911718490654 $707 -18.82646699534542 $555 $708 forward 7 unknown #
coedge $-1 $400 $399 $562 $709 reversed $153 $-1 #
edge $-1 $710 -48.330621782036971 $559 -42.345732175381713 $553 $711 forward 7 unknown #
vertex $-1 $402 $712 #
straight-curve $-1 -15.893382788487749 21.172866167873238 8.9980328272416514 1 0 0 I I #
coedge $-1 $552 $403 $406 $566 reversed $396 $-1 #
coedge $-1 $403 $552 $557 $709 forward $396 $-1 #
vertex $-1 $404 $713 #
straight-curve $-1 -38.752217026932961 24.165310891018471 47.65656994219227 0 0 1 I I #
straight-curve $-1 -38.752217026932961 6.4750817330150312e-007 45.670512960519986 0 0.49999998660252726 -0.86602541151947299 I I #
edge $-1 $707 24.821314127018034 $408 38.752217026932961 $561 $714 forward 7 unknown #
point $-1 -38.752217026932961 24.165310891018471 8.9980328272416532 #
point $-1 -38.752217026932961 21.172866167873238 8.9980328272416514 #
edge $-1 $715 1 $715 0 $411 $-1 forward 7 unknown #
vertex $-1 $412 $716 #
ellipse-curve $-1 -35.966036446949978 20.948085364783182 5.4128779800950708 0 0.86602541151947299 0.49999998660252726 1 0 0 1 I I #
point $-1 -34.966036446949978 22.669088529445862 6.4064995849905504 #
edge $-1 $717 1 $717 0 $415 $-1 forward 7 unknown #
vertex $-1 $416 $718 #
ellipse-curve $-1 -31.786765576975498 20.948085364783182 5.4128779800950708 0 0.86602541151947299 0.49999998660252726 1 0 0 1 I I #
point $-1 -30.786765576975498 22.669088529445862 6.4064995849905504 #
edge $-1 $719 1 $719 0 $419 $-1 forward 7 unknown #
vertex $-1 $420 $720 #
ellipse-curve $-1 -27.60749470700102 20.948085364783182 5.4128779800950708 0 0.86602541151947299 0.49999998660252726 1 0 0 1 I I #
point $-1 -26.60749470700102 22.669088529445862 6.4064995849905504 #
loop $-1 $-1 $431 $423 #
plane-surface $-1 0 24.165310891018471 0 0 -1 0 0 0 -1 forward_v I I I I #
coedge $-1 $584 $426 $428 $588 reversed $274 $-1 #
coedge $-1 $426 $583 $721 $722 reversed $274 $-1 #
coedge $-1 $434 $429 $426 $586 forward $424 $-1 #
edge $-1 $589 -21.818911718490654 $723 -18.82646699534542 $585 $724 forward 7 unknown #
coedge $-1 $428 $427 $592 $725 reversed $172 $-1 #
edge $-1 $726 -48.330621782036971 $589 -42.345732175381713 $583 $727 forward 7 unknown #
vertex $-1 $430 $728 #
straight-curve $-1 -5.2977942628292496 21.172866167873238 8.9980328272416514 1 0 0 I I #
coedge $-1 $721 $431 $434 $596 reversed $581 $-1 #
coedge $-1 $431 $721 $587 $725 forward $581 $-1 #
vertex $-1 $432 $729 #
straight-curve $-1 -17.561039975615962 24.165310891018471 47.65656994219227 0 0 1 I I #
straight-curve $-1 -17.561039975615962 6.4750817330150312e-007 45.670512960519986 0 0.49999998660252726 -0.86602541151947299 I I #
edge $-1 $723 3.6301370757010352 $435 17.561039975615962 $591 $730 forward 7 unknown #
point $-1 -17.561039975615962 24.165310891018471 8.9980328272416532 #
point $-1 -17.561039975615962 21.172866167873238 8.9980328272416514 #
edge $-1 $731 1 $731 0 $438 $-1 forward 7 unknown #
vertex $-1 $439 $732 #
ellipse-curve $-1 -14.77485939563298 20.948085364783182 5.4128779800950708 0 0.86602541151947299 0.49999998660252726 1 0 0 1 I I #
point $-1 -13.77485939563298 22.669088529445862 6.4064995849905504 #
edge $-1 $733 1 $733 0 $442 $-1 forward 7 unknown #
vertex $-1 $443 $734 #
ellipse-curve $-1 -10.595588525658499 20.948085364783182 5.4128779800950708 0 0.86602541151947299 0.49999998660252726 1 0 0 1 I I #
point $-1 -9.5955885256584992 22.669088529445862 6.4064995849905504 #
edge $-1 $735 1 $735 0 $446 $-1 forward 7 unknown #
vertex $-1 $447 $736 #
ellipse-curve $-1 -6.4163176556840256 20.948085364783182 5.4128779800950708 0 0.86602541151947299 0.49999998660252726 1 0 0 1 I I #
point $-1 -5.4163176556840256 22.669088529445862 6.4064995849905504 #
loop $-1 $-1 $458 $450 #
plane-surface $-1 0 24.165310891018471 0 0 -1 0 0 0 -1 forward_v I I I I #
coedge $-1 $614 $453 $455 $618 reversed $303 $-1 #
coedge $-1 $453 $613 $737 $738 reversed $303 $-1 #
coedge $-1 $461 $456 $453 $616 forward $451 $-1 #
edge $-1 $619 -21.818911718490654 $739 -18.82646699534542 $615 $740 forward 7 unknown #
coedge $-1 $455 $454 $622 $741 reversed $191 $-1 #
edge $-1 $742 -48.330621782036971 $619 -42.345732175381713 $613 $743 forward 7 unknown #
vertex $-1 $457 $744 #
straight-curve $-1 5.2977942628292496 21.172866167873238 8.9980328272416514 1 0 0 I I #
coedge $-1 $737 $458 $461 $626 reversed $611 $-1 #
coedge $-1 $458 $737 $617 $741 forward $611 $-1 #
vertex $-1 $459 $745 #
straight-curve $-1 3.6301370757010352 24.165310891018471 47.65656994219227 0 0 1 I I #
straight-curve $-1 3.6301370757010352 6.4750817330150312e-007 45.670512960519986 0 0.49999998660252726 -0.86602541151947299 I I #
edge $-1 $739 -17.561039975615962 $462 -3.6301370757010352 $621 $746 forward 7 unknown #
point $-1 3.6301370757010352 24.165310891018471 8.9980328272416532 #
point $-1 3.6301370757010352 21.172866167873238 8.9980328272416514 #
edge $-1 $747 1 $747 0 $465 $-1 forward 7 unknown #
vertex $-1 $466 $748 #
ellipse-curve $-1 6.4163176556840185 20.948085364783182 5.4128779800950708 0 0.86602541151947299 0.49999998660252726 1 0 0 1 I I #
point $-1 7.4163176556840185 22.669088529445862 6.4064995849905504 #
edge $-1 $749 1 $749 0 $469 $-1 forward 7 unknown #
vertex $-1 $470 $750 #
ellipse-curve $-1 10.595588525658499 20.948085364783182 5.4128779800950708 0 0.86602541151947299 0.49999998660252726 1 0 0 1 I I #
point $-1 11.595588525658499 22.669088529445862 6.4064995849905504 #
edge $-1 $751 1 $751 0 $473 $-1 forward 7 unknown #
vertex $-1 $474 $752 #
ellipse-curve $-1 14.774859395632973 20.948085364783182 5.4128779800950708 0 0.86602541151947299 0.49999998660252726 1 0 0 1 I I #
point $-1 15.774859395632973 22.669088529445862 6.4064995849905504 #
loop $-1 $-1 $485 $477 #
plane-surface $-1 0 24.165310891018471 0 0 -1 0 0 0 -1 forward_v I I I I #
coedge $-1 $644 $480 $482 $648 reversed $332 $-1 #
coedge $-1 $480 $643 $753 $754 reversed $332 $-1 #
coedge $-1 $488 $483 $480 $646 forward $478 $-1 #
edge $-1 $649 -21.818911718490654 $755 -18.82646699534542 $645 $756 forward 7 unknown #
coedge $-1 $482 $481 $652 $757 reversed $210 $-1 #
edge $-1 $758 -48.330621782036971 $649 -42.345732175381713 $643 $759 forward 7 unknown #
vertex $-1 $484 $760 #
straight-curve $-1 15.893382788487749 21.172866167873238 8.9980328272416514 1 0 0 I I #
coedge $-1 $753 $485 $488 $656 reversed $641 $-1 #
coedge $-1 $485 $753 $647 $757 forward $641 $-1 #
vertex $-1 $486 $761 #
straight-curve $-1 24.821314127018034 24.165310891018471 47.65656994219227 0 0 1 I I #
straight-curve $-1 24.821314127018034 6.4750817330150312e-007 45.670512960519986 0 0.49999998660252726 -0.86602541151947299 I I #
edge $-1 $755 -38.752217026932961 $489 -24.821314127018034 $651 $762 forward 7 unknown #
point $-1 24.821314127018034 24.165310891018471 8.9980328272416532 #
point $-1 24.821314127018034 21.172866167873238 8.9980328272416514 #
edge $-1 $763 1 $763 0 $492 $-1 forward 7 unknown #
vertex $-1 $493 $764 #
ellipse-curve $-1 27.60749470700101 20.948085364783182 5.4128779800950708 0 0.86602541151947299 0.49999998660252726 1 0 0 1 I I #
point $-1 28.60749470700101 22.669088529445862 6.4064995849905504 #
edge $-1 $765 1 $765 0 $496 $-1 forward 7 unknown #
vertex $-1 $497 $766 #
ellipse-curve $-1 31.786765576975498 20.948085364783182 5.4128779800950708 0 0.86602541151947299 0.49999998660252726 1 0 0 1 I I #
point $-1 32.786765576975498 22.669088529445862 6.4064995849905504 #
edge $-1 $767 1 $767 0 $500 $-1 forward 7 unknown #
vertex $-1 $501 $768 #
ellipse-curve $-1 35.966036446949971 20.948085364783182 5.4128779800950708 0 0.86602541151947299 0.49999998660252726 1 0 0 1 I I #
point $-1 36.966036446949971 22.669088529445862 6.4064995849905504 #
plane-surface $-1 49.642628254036069 0 0 -1 0 0 0 0 1 forward_v I I I I #
coedge $-1 $509 $507 $511 $676 reversed $361 $-1 #
edge $-1 $522 -8.9980328272416532 $678 8.9980328272416532 $521 $769 forward 7 unknown #
vertex $-1 $676 $770 #
straight-curve $-1 -49.642628254036069 -24.165310891018471 0 0 0 -1 I I #
edge $-1 $674 -24.165310891018471 $678 24.165310891018471 $672 $771 forward 7 unknown #
straight-curve $-1 0 -24.165310891018471 -8.9980328272416532 -1 0 0 I I #
vertex $-1 $514 $772 #
straight-curve $-1 0 24.165310891018471 -8.9980328272416532 1 0 0 I I #
point $-1 49.642628254036069 24.165310891018471 -8.9980328272416532 #
point $-1 49.642628254036069 -24.165310891018471 -8.9980328272416532 #
straight-curve $-1 -49.642628254036069 0 8.9980328272416532 0 -1 0 I I #
point $-1 -49.642628254036069 24.165310891018471 8.9980328272416532 #
point $-1 -49.642628254036069 -24.165310891018471 8.9980328272416532 #
straight-curve $-1 49.642628254036069 -24.165310891018471 0 0 0 -1 I I #
straight-curve $-1 49.642628254036069 24.165310891018471 0 0 0 -1 I I #
plane-surface $-1 0 0 -8.9980328272416532 0 0 1 1 0 0 forward_v I I I I #
coedge $-1 $702 $533 $700 $773 reversed $380 $-1 #
coedge $-1 $533 $702 $537 $694 reversed $380 $-1 #
coedge $-1 $535 $534 $533 $691 reversed $237 $-1 #
edge $-1 $695 -8.9980328272416532 $774 8.9980328272416532 $690 $775 forward 7 unknown #
edge $-1 $774 -35.945206929166702 $545 -24.165310891018471 $534 $776 forward 7 unknown #
straight-curve $-1 -49.642628254036069 -24.165310891018471 0 0 0 -1 I I #
edge $-1 $695 -2.5771550120664131 $697 2.5771550120664131 $689 $777 forward 7 unknown #
vertex $-1 $538 $778 #
straight-curve $-1 -49.642628254036069 0 8.9980328272416532 0 -1 0 I I #
vertex $-1 $539 $779 #
straight-curve $-1 -44.488318229903243 -30.055258910092586 8.9980328272416532 0 1 0 I I #
point $-1 -49.642628254036069 -24.165310891018471 8.9980328272416532 #
coedge $-1 $543 $542 $688 $773 forward $544 $-1 #
point $-1 -49.642628254036069 -24.165310891018471 -8.9980328272416532 #
coedge $-1 $689 $688 $547 $703 reversed $380 $-1 #
edge $-1 $697 -8.9980328272416532 $704 8.9980328272416532 $547 $780 forward 7 unknown #
vertex $-1 $703 $781 #
straight-curve $-1 -44.488318229903243 -30.055258910092586 -8.9980328272416532 0 -1 0 I I #
edge $-1 $707 38.658537114950619 $710 43.84160359945286 $552 $782 forward 7 unknown #
vertex $-1 $566 $783 #
straight-curve $-1 -24.821314127018034 42.991777886363892 8.9980328272416514 0 1 0 I I #
edge $-1 $710 8.9279313385302856 $563 22.858834238445212 $562 $784 forward 7 unknown #
vertex $-1 $709 $785 #
straight-curve $-1 -24.821314127018034 6.4750817330150312e-007 45.670512960519986 0 -0.49999998660252726 0.86602541151947299 I I #
point $-1 -24.821314127018034 21.172866167873238 8.9980328272416514 #
point $-1 -38.752217026932961 24.165310891018471 3.8149663427394103 #
straight-curve $-1 0 24.165310891018471 8.9980328272416532 -1 0 0 I I #
vertex $-1 $569 $786 #
point $-1 -34.966036446949978 20.948085364783182 5.4128779800950708 #
vertex $-1 $573 $787 #
point $-1 -30.786765576975498 20.948085364783182 5.4128779800950708 #
vertex $-1 $577 $788 #
point $-1 -26.60749470700102 20.948085364783182 5.4128779800950708 #
coedge $-1 $592 $591 $584 $722 forward $581 $-1 #
edge $-1 $723 38.658537114950619 $726 43.84160359945286 $721 $789 forward 7 unknown #
vertex $-1 $596 $790 #
straight-curve $-1 -3.6301370757010352 42.991777886363892 8.9980328272416514 0 1 0 I I #
edge $-1 $726 -1.6676571871282144 $593 12.263245712786713 $592 $791 forward 7 unknown #
vertex $-1 $725 $792 #
straight-curve $-1 -3.6301370757010352 6.4750817330150312e-007 45.670512960519986 0 -0.49999998660252726 0.86602541151947299 I I #
point $-1 -3.6301370757010352 21.172866167873238 8.9980328272416514 #
point $-1 -17.561039975615962 24.165310891018471 3.8149663427394103 #
straight-curve $-1 0 24.165310891018471 8.9980328272416532 -1 0 0 I I #
vertex $-1 $599 $793 #
point $-1 -13.77485939563298 20.948085364783182 5.4128779800950708 #
vertex $-1 $603 $794 #
point $-1 -9.5955885256584992 20.948085364783182 5.4128779800950708 #
vertex $-1 $607 $795 #
point $-1 -5.4163176556840256 20.948085364783182 5.4128779800950708 #
coedge $-1 $622 $621 $614 $738 forward $611 $-1 #
edge $-1 $739 38.658537114950619 $742 43.84160359945286 $737 $796 forward 7 unknown #
vertex $-1 $626 $797 #
straight-curve $-1 17.561039975615962 42.991777886363892 8.9980328272416514 0 1 0 I I #
edge $-1 $742 -12.263245712786713 $623 1.6676571871282144 $622 $798 forward 7 unknown #
vertex $-1 $741 $799 #
straight-curve $-1 17.561039975615962 6.4750817330150312e-007 45.670512960519986 0 -0.49999998660252726 0.86602541151947299 I I #
point $-1 17.561039975615962 21.172866167873238 8.9980328272416514 #
point $-1 3.6301370757010352 24.165310891018471 3.8149663427394103 #
straight-curve $-1 0 24.165310891018471 8.9980328272416532 -1 0 0 I I #
vertex $-1 $629 $800 #
point $-1 7.4163176556840185 20.948085364783182 5.4128779800950708 #
vertex $-1 $633 $801 #
point $-1 11.595588525658499 20.948085364783182 5.4128779800950708 #
vertex $-1 $637 $802 #
point $-1 15.774859395632973 20.948085364783182 5.4128779800950708 #
coedge $-1 $652 $651 $644 $754 forward $641 $-1 #
edge $-1 $755 38.658537114950619 $758 43.84160359945286 $753 $803 forward 7 unknown #
vertex $-1 $656 $804 #
straight-curve $-1 38.752217026932961 42.991777886363892 8.9980328272416514 0 1 0 I I #
edge $-1 $758 -22.858834238445212 $653 -8.9279313385302856 $652 $805 forward 7 unknown #
vertex $-1 $757 $806 #
straight-curve $-1 38.752217026932961 6.4750817330150312e-007 45.670512960519986 0 -0.49999998660252726 0.86602541151947299 I I #
point $-1 38.752217026932961 21.172866167873238 8.9980328272416514 #
point $-1 24.821314127018034 24.165310891018471 3.8149663427394103 #
straight-curve $-1 0 24.165310891018471 8.9980328272416532 -1 0 0 I I #
vertex $-1 $659 $807 #
point $-1 28.60749470700101 20.948085364783182 5.4128779800950708 #
vertex $-1 $663 $808 #
point $-1 32.786765576975498 20.948085364783182 5.4128779800950708 #
vertex $-1 $667 $809 #
point $-1 36.966036446949971 20.948085364783182 5.4128779800950708 #
straight-curve $-1 -49.642628254036069 24.165310891018471 0 0 0 -1 I I #
point $-1 -49.642628254036069 -24.165310891018471 -8.9980328272416532 #
straight-curve $-1 -49.642628254036069 0 -8.9980328272416532 0 1 0 I I #
point $-1 -49.642628254036069 24.165310891018471 -8.9980328272416532 #
edge $-1 $704 -2.5771550120664131 $774 2.5771550120664131 $688 $810 forward 7 unknown #
vertex $-1 $692 $811 #
straight-curve $-1 -49.642628254036069 -35.945206929166702 0 0 0 -1 I I #
straight-curve $-1 -49.642628254036069 0 -8.9980328272416532 0 1 0 I I #
straight-curve $-1 -47.065473241969656 -35.945206929166702 8.9980328272416532 1 0 0 I I #
point $-1 -49.642628254036069 -35.945206929166702 8.9980328272416532 #
point $-1 -44.488318229903243 -35.945206929166702 8.9980328272416532 #
straight-curve $-1 -44.488318229903243 -35.945206929166702 0 0 0 -1 I I #
point $-1 -44.488318229903243 -35.945206929166702 -8.9980328272416532 #
straight-curve $-1 -24.821314127018034 24.165310891018471 47.65656994219227 0 0 -1 I I #
point $-1 -24.821314127018034 24.165310891018471 8.9980328272416532 #
straight-curve $-1 -15.893382788487749 24.165310891018471 3.8149663427394103 -1 0 0 I I #
point $-1 -24.821314127018034 24.165310891018471 3.8149663427394103 #
point $-1 -35.966036446949978 20.082059953263709 4.9128779934925442 #
point $-1 -31.786765576975498 20.082059953263709 4.9128779934925442 #
point $-1 -27.60749470700102 20.082059953263709 4.9128779934925442 #
straight-curve $-1 -3.6301370757010352 24.165310891018471 47.65656994219227 0 0 -1 I I #
point $-1 -3.6301370757010352 24.165310891018471 8.9980328272416532 #
straight-curve $-1 -5.2977942628292496 24.165310891018471 3.8149663427394103 -1 0 0 I I #
point $-1 -3.6301370757010352 24.165310891018471 3.8149663427394103 #
point $-1 -14.77485939563298 20.082059953263709 4.9128779934925442 #
point $-1 -10.595588525658499 20.082059953263709 4.9128779934925442 #
point $-1 -6.4163176556840256 20.082059953263709 4.9128779934925442 #
straight-curve $-1 17.561039975615962 24.165310891018471 47.65656994219227 0 0 -1 I I #
point $-1 17.561039975615962 24.165310891018471 8.9980328272416532 #
straight-curve $-1 5.2977942628292496 24.165310891018471 3.8149663427394103 -1 0 0 I I #
point $-1 17.561039975615962 24.165310891018471 3.8149663427394103 #
point $-1 6.4163176556840185 20.082059953263709 4.9128779934925442 #
point $-1 10.595588525658499 20.082059953263709 4.9128779934925442 #
point $-1 14.774859395632973 20.082059953263709 4.9128779934925442 #
straight-curve $-1 38.752217026932961 24.165310891018471 47.65656994219227 0 0 -1 I I #
point $-1 38.752217026932961 24.165310891018471 8.9980328272416532 #
straight-curve $-1 15.893382788487749 24.165310891018471 3.8149663427394103 -1 0 0 I I #
point $-1 38.752217026932961 24.165310891018471 3.8149663427394103 #
point $-1 27.60749470700101 20.082059953263709 4.9128779934925442 #
point $-1 31.786765576975498 20.082059953263709 4.9128779934925442 #
point $-1 35.966036446949971 20.082059953263709 4.9128779934925442 #
straight-curve $-1 -47.065473241969656 -35.945206929166702 -8.9980328272416532 -1 0 0 I I #
point $-1 -49.642628254036069 -35.945206929166702 -8.9980328272416532 #
End-of-ACIS-data 