500 0 9 0           
7 Unknown 11 ACIS 5.0 NT 24 Fri Mar 26 01:53:35 1999 
-1 9.9999999999999995e-007 1e-010 
body $-1 $9 $-1 $10 #
body $-1 $11 $-1 $12 #
body $-1 $13 $-1 $14 #
body $-1 $15 $-1 $16 #
body $-1 $17 $-1 $18 #
body $-1 $19 $-1 $20 #
body $-1 $21 $-1 $22 #
body $-1 $23 $-1 $24 #
body $-1 $25 $-1 $26 #
lump $-1 $-1 $27 $0 #
transform $-1 1 0 0 0 1 0 0 0 1 74.701986754966896 45.41165851526037 19.39797237283074 1 rotate no_reflect no_shear #
lump $-1 $-1 $28 $1 #
transform $-1 1 0 0 0 1 0 0 0 1 74.701986754966896 45.41165851526037 19.39797237283074 1 rotate no_reflect no_shear #
lump $-1 $-1 $29 $2 #
transform $-1 1 0 0 0 1 0 0 0 1 74.701986754966896 45.41165851526037 19.39797237283074 1 rotate no_reflect no_shear #
lump $-1 $-1 $30 $3 #
transform $-1 1 0 0 0 1 0 0 0 1 74.701986754966896 45.41165851526037 19.39797237283074 1 rotate no_reflect no_shear #
lump $-1 $-1 $31 $4 #
transform $-1 1 0 0 0 1 0 0 0 1 74.701986754966896 45.41165851526037 19.39797237283074 1 rotate no_reflect no_shear #
lump $-1 $-1 $32 $5 #
transform $-1 1 0 0 0 1 0 0 0 1 74.701986754966896 45.41165851526037 19.39797237283074 1 rotate no_reflect no_shear #
lump $-1 $-1 $33 $6 #
transform $-1 1 0 0 0 1 0 0 0 1 74.701986754966896 45.41165851526037 19.39797237283074 1 rotate no_reflect no_shear #
lump $-1 $-1 $34 $7 #
transform $-1 1 0 0 0 1 0 0 0 1 74.701986754966896 45.41165851526037 19.39797237283074 1 rotate no_reflect no_shear #
lump $-1 $-1 $35 $8 #
transform $-1 1 0 0 0 1 0 0 0 1 74.701986754966896 45.41165851526037 19.39797237283074 1 rotate no_reflect no_shear #
shell $-1 $-1 $-1 $36 $-1 $9 #
shell $-1 $-1 $-1 $37 $-1 $11 #
shell $-1 $-1 $-1 $38 $-1 $13 #
shell $-1 $-1 $-1 $39 $-1 $15 #
shell $-1 $-1 $-1 $40 $-1 $17 #
shell $-1 $-1 $-1 $41 $-1 $19 #
shell $-1 $-1 $-1 $42 $-1 $21 #
shell $-1 $-1 $-1 $43 $-1 $23 #
shell $-1 $-1 $-1 $44 $-1 $25 #
face $-1 $45 $46 $27 $-1 $47 forward single #
face $-1 $48 $49 $28 $-1 $50 reversed single #
face $-1 $51 $52 $29 $-1 $53 reversed single #
face $-1 $54 $55 $30 $-1 $56 forward single #
face $-1 $57 $58 $31 $-1 $59 reversed single #
face $-1 $60 $61 $32 $-1 $62 forward single #
face $-1 $63 $64 $33 $-1 $65 reversed single #
face $-1 $66 $67 $34 $-1 $68 forward single #
face $-1 $69 $70 $35 $-1 $71 forward single #
face $-1 $72 $73 $27 $-1 $74 reversed single #
loop $-1 $-1 $75 $36 #
plane-surface $-1 0 0 19.39797237283074 0 0 1 1 0 0 forward_v I I I I #
face $-1 $76 $77 $28 $-1 $78 reversed single #
loop $-1 $-1 $79 $37 #
plane-surface $-1 0 -33.934703447158626 14.071299933600521 0 0 1 1 0 0 forward_v I I I I #
face $-1 $80 $81 $29 $-1 $82 reversed single #
loop $-1 $-1 $83 $38 #
plane-surface $-1 107.75489099418661 -4.0327365923193099 216.60529314360639 0 -1 0 -0.80901700255871778 0 -0.5877852410284794 forward_v I I I I #
face $-1 $84 $85 $30 $-1 $86 forward single #
loop $-1 $87 $88 $39 #
cone-surface $-1 69.142015010247746 -11.105098720089515 12.648241599598736 -0.80901700255871778 0 -0.5877852410284794 0.8816778615427191 0 -1.2135255038380768 1 I I 0 1 1.5 forward I I I I #
face $-1 $89 $90 $31 $-1 $91 reversed single #
loop $-1 $-1 $92 $40 #
plane-surface $-1 107.75489099418661 41.13137098406321 216.60529314360639 0 -1 0 -0.80901700255871778 0 -0.5877852410284794 forward_v I I I I #
face $-1 $93 $94 $32 $-1 $95 forward single #
loop $-1 $96 $97 $41 #
cone-surface $-1 69.142015010247746 34.059008856293005 12.648241599598736 -0.80901700255871778 0 -0.5877852410284794 0.8816778615427191 0 -1.2135255038380768 1 I I 0 1 1.5 forward I I I I #
face $-1 $98 $99 $33 $-1 $100 reversed single #
loop $-1 $-1 $101 $42 #
plane-surface $-1 -178.4867087527187 3.7521958424635216 111.99821780796586 0 1 0 -0.69465837861970381 0 0.71933979245794832 forward_v I I I I #
face $-1 $102 $103 $34 $-1 $104 forward single #
loop $-1 $105 $106 $43 #
cone-surface $-1 -65.429353154414528 6.9455664072950825 10.333672303049479 0.69465837861970381 0 -0.71933979245794832 1.0790096886869225 0 1.0419875679295556 1 I I 0 1 1.5 forward I I I I #
face $-1 $107 $108 $35 $-1 $109 forward single #
loop $-1 $110 $111 $44 #
cone-surface $-1 -65.429353154414528 11.735622254542427 10.333672303049479 0.69465837861970381 0 -0.71933979245794832 1.0790096886869225 0 1.0419875679295556 1 I I 0 1 1.5 forward I I I I #
face $-1 $112 $113 $27 $-1 $114 reversed single #
loop $-1 $-1 $115 $45 #
plane-surface $-1 0 0 -19.39797237283074 0 0 1 1 0 0 forward_v I I I I #
coedge $-1 $116 $117 $118 $119 forward $46 $-1 #
face $-1 $120 $121 $28 $-1 $122 reversed single #
loop $-1 $-1 $123 $48 #
plane-surface $-1 0 -22.457748379056881 16.734636153215629 0 -1 0 0 0 -1 forward_v I I I I #
coedge $-1 $124 $125 $126 $127 reversed $49 $-1 #
face $-1 $128 $129 $29 $-1 $130 reversed single #
loop $-1 $-1 $131 $51 #
plane-surface $-1 -13.115463825182104 -11.105098720089515 128.78784256345739 0.80901700255871778 0 0.5877852410284794 0.5877852410284794 0 -0.80901700255871778 forward_v I I I I #
coedge $-1 $132 $133 $134 $135 reversed $52 $-1 #
face $-1 $-1 $136 $30 $-1 $137 forward single #
loop $-1 $138 $139 $54 #
cone-surface $-1 67.145810553946461 -11.105098720089515 11.197914209966381 -0.80901700255871778 0 -0.5877852410284794 0.44083893077135955 0 -0.60676275191903839 1 I I -0.70710678118654668 0.70710678118654835 0.75 forward I I I I #
loop $-1 $-1 $140 $39 #
coedge $-1 $88 $88 $141 $142 reversed $55 $-1 #
face $-1 $143 $144 $31 $-1 $145 reversed single #
loop $-1 $-1 $146 $57 #
plane-surface $-1 -13.115463825182104 34.059008856293005 128.78784256345739 0.80901700255871778 0 0.5877852410284794 0.5877852410284794 0 -0.80901700255871778 forward_v I I I I #
coedge $-1 $147 $148 $149 $150 reversed $58 $-1 #
face $-1 $-1 $151 $32 $-1 $152 forward single #
loop $-1 $153 $154 $60 #
cone-surface $-1 67.145810553946461 34.059008856293005 11.197914209966381 -0.80901700255871778 0 -0.5877852410284794 0.44083893077135955 0 -0.60676275191903839 1 I I -0.70710678118654668 0.70710678118654835 0.75 forward I I I I #
loop $-1 $-1 $155 $41 #
coedge $-1 $97 $97 $156 $157 reversed $61 $-1 #
face $-1 $158 $159 $33 $-1 $160 reversed single #
loop $-1 $-1 $161 $63 #
plane-surface $-1 -74.70198675496691 9.3405943309187549 4.5259945109372808 -0.69465837861970381 0 0.71933979245794832 0.71933979245794832 0 0.69465837861970381 forward_v I I I I #
coedge $-1 $162 $163 $164 $165 reversed $64 $-1 #
face $-1 $-1 $166 $34 $-1 $167 forward single #
loop $-1 $168 $169 $66 #
cone-surface $-1 -63.33591754608436 6.9455664072950825 8.1658563198714909 0.69465837861970381 0 -0.71933979245794832 0.53950484434346124 0 0.5209937839647778 1 I I -0.70710678118654757 0.70710678118654757 0.75 forward I I I I #
loop $-1 $-1 $170 $43 #
coedge $-1 $106 $106 $171 $172 reversed $67 $-1 #
face $-1 $-1 $173 $35 $-1 $174 forward single #
loop $-1 $175 $176 $69 #
cone-surface $-1 -63.33591754608436 11.735622254542427 8.1658563198714909 0.69465837861970381 0 -0.71933979245794832 0.53950484434346124 0 0.5209937839647778 1 I I -0.70710678118654757 0.70710678118654757 0.75 forward I I I I #
loop $-1 $-1 $177 $44 #
coedge $-1 $111 $111 $178 $179 reversed $70 $-1 #
face $-1 $180 $181 $27 $-1 $182 reversed single #
loop $-1 $-1 $183 $72 #
plane-surface $-1 0 -45.41165851526037 0 0 1 0 0 0 1 forward_v I I I I #
coedge $-1 $184 $185 $186 $187 forward $73 $-1 #
coedge $-1 $188 $75 $189 $190 forward $46 $-1 #
coedge $-1 $75 $188 $191 $192 forward $46 $-1 #
coedge $-1 $193 $194 $75 $119 reversed $195 $-1 #
edge $-1 $196 -45.41165851526037 $197 45.41165851526037 $118 $198 forward 7 unknown #
face $-1 $199 $200 $28 $-1 $201 reversed single #
loop $-1 $-1 $202 $76 #
plane-surface $-1 -74.701986754966896 0 0 1 0 0 0 0 -1 forward_v I I I I #
coedge $-1 $203 $204 $205 $206 reversed $77 $-1 #
coedge $-1 $207 $79 $208 $209 reversed $49 $-1 #
coedge $-1 $79 $207 $203 $210 forward $49 $-1 #
coedge $-1 $205 $211 $79 $127 forward $212 $-1 #
edge $-1 $213 -28.444306791681058 $214 -5.4903966554775678 $126 $215 forward 7 unknown #
face $-1 $216 $217 $29 $-1 $218 reversed single #
loop $-1 $-1 $219 $80 #
plane-surface $-1 107.75489099418661 -18.17746084785972 216.60529314360639 0 1 0 0.80901700255871778 0 0.5877852410284794 forward_v I I I I #
coedge $-1 $220 $221 $222 $223 reversed $81 $-1 #
coedge $-1 $133 $83 $224 $225 reversed $52 $-1 #
coedge $-1 $83 $132 $220 $226 reversed $52 $-1 #
coedge $-1 $222 $227 $83 $135 forward $228 $-1 #
edge $-1 $229 -20.824541257873591 $230 -12.483481177199764 $134 $231 forward 7 unknown #
loop $-1 $-1 $141 $84 #
plane-surface $-1 -13.115463825182104 -11.105098720089515 128.78784256345739 0.80901700255871778 0 0.5877852410284794 0.5877852410284794 0 -0.80901700255871778 forward_v I I I I #
loop $-1 $-1 $232 $54 #
coedge $-1 $139 $139 $140 $233 reversed $85 $-1 #
coedge $-1 $140 $140 $139 $233 forward $87 $-1 #
coedge $-1 $141 $141 $88 $142 forward $136 $-1 #
edge $-1 $234 0 $234 6.2831853071796004 $141 $235 forward 7 unknown #
face $-1 $236 $237 $31 $-1 $238 reversed single #
loop $-1 $-1 $239 $89 #
plane-surface $-1 107.75489099418661 26.9866467285228 216.60529314360639 0 1 0 0.80901700255871778 0 0.5877852410284794 forward_v I I I I #
coedge $-1 $240 $241 $242 $243 reversed $90 $-1 #
coedge $-1 $148 $92 $244 $245 reversed $58 $-1 #
coedge $-1 $92 $147 $240 $246 reversed $58 $-1 #
coedge $-1 $242 $247 $92 $150 forward $248 $-1 #
edge $-1 $249 -20.824541257873591 $250 -12.483481177199764 $149 $251 forward 7 unknown #
loop $-1 $-1 $156 $93 #
plane-surface $-1 -13.115463825182104 34.059008856293005 128.78784256345739 0.80901700255871778 0 0.5877852410284794 0.5877852410284794 0 -0.80901700255871778 forward_v I I I I #
loop $-1 $-1 $252 $60 #
coedge $-1 $154 $154 $155 $253 reversed $94 $-1 #
coedge $-1 $155 $155 $154 $253 forward $96 $-1 #
coedge $-1 $156 $156 $97 $157 forward $151 $-1 #
edge $-1 $254 0 $254 6.2831853071796004 $156 $255 forward 7 unknown #
face $-1 $256 $257 $33 $-1 $258 forward single #
loop $-1 $-1 $259 $98 #
plane-surface $-1 -178.4867087527187 14.928992819373988 111.99821780796586 0 -1 0 0.69465837861970381 0 -0.71933979245794832 forward_v I I I I #
coedge $-1 $260 $261 $262 $263 reversed $99 $-1 #
coedge $-1 $163 $101 $264 $265 reversed $64 $-1 #
coedge $-1 $101 $162 $260 $266 reversed $64 $-1 #
coedge $-1 $262 $267 $101 $165 forward $257 $-1 #
edge $-1 $268 14.541367621392453 $269 29.941751173766392 $164 $270 forward 7 unknown #
loop $-1 $-1 $171 $102 #
plane-surface $-1 -74.70198675496691 9.3405943309187549 4.5259945109372808 -0.69465837861970381 0 0.71933979245794832 0.71933979245794832 0 0.69465837861970381 forward_v I I I I #
loop $-1 $-1 $271 $66 #
coedge $-1 $169 $169 $170 $272 reversed $103 $-1 #
coedge $-1 $170 $170 $169 $272 forward $105 $-1 #
coedge $-1 $171 $171 $106 $172 forward $166 $-1 #
edge $-1 $273 0 $273 6.2831853071796004 $171 $274 forward 7 unknown #
loop $-1 $-1 $178 $107 #
plane-surface $-1 -74.70198675496691 9.3405943309187549 4.5259945109372808 -0.69465837861970381 0 0.71933979245794832 0.71933979245794832 0 0.69465837861970381 forward_v I I I I #
loop $-1 $-1 $275 $69 #
coedge $-1 $176 $176 $177 $276 reversed $108 $-1 #
coedge $-1 $177 $177 $176 $276 forward $110 $-1 #
coedge $-1 $178 $178 $111 $179 forward $173 $-1 #
edge $-1 $277 0 $277 6.2831853071796004 $178 $278 forward 7 unknown #
face $-1 $279 $280 $27 $-1 $281 reversed single #
loop $-1 $-1 $282 $112 #
plane-surface $-1 -74.701986754966896 0 0 1 0 0 0 0 -1 forward_v I I I I #
coedge $-1 $283 $191 $284 $285 forward $113 $-1 #
coedge $-1 $286 $115 $283 $287 forward $73 $-1 #
coedge $-1 $115 $286 $288 $289 forward $73 $-1 #
coedge $-1 $194 $193 $115 $187 reversed $195 $-1 #
edge $-1 $290 -45.41165851526037 $291 45.41165851526037 $186 $292 forward 7 unknown #
coedge $-1 $117 $116 $293 $294 forward $46 $-1 #
coedge $-1 $295 $296 $116 $190 reversed $280 $-1 #
edge $-1 $197 -74.701986754966896 $297 74.701986754966896 $189 $298 forward 7 unknown #
coedge $-1 $183 $299 $117 $192 reversed $113 $-1 #
edge $-1 $300 -74.701986754966896 $196 74.701986754966896 $191 $301 forward 7 unknown #
coedge $-1 $186 $118 $299 $302 forward $195 $-1 #
coedge $-1 $118 $186 $295 $303 reversed $195 $-1 #
loop $-1 $-1 $193 $279 #
vertex $-1 $119 $304 #
vertex $-1 $119 $305 #
straight-curve $-1 74.701986754966896 0 19.39797237283074 0 1 0 I I #
face $-1 $306 $307 $28 $-1 $308 forward single #
loop $-1 $-1 $208 $120 #
plane-surface $-1 0 -45.41165851526037 0 0 1 0 0 0 1 forward_v I I I I #
coedge $-1 $309 $310 $311 $312 forward $121 $-1 #
coedge $-1 $311 $123 $125 $210 reversed $77 $-1 #
coedge $-1 $123 $311 $313 $314 reversed $77 $-1 #
coedge $-1 $315 $126 $123 $206 forward $212 $-1 #
edge $-1 $214 5.7039818569927068 $316 11.030654296222922 $205 $317 forward 7 unknown #
coedge $-1 $125 $124 $309 $318 reversed $49 $-1 #
coedge $-1 $319 $320 $124 $209 forward $200 $-1 #
edge $-1 $321 -74.701986754966896 $213 74.701986754966896 $208 $322 forward 7 unknown #
edge $-1 $323 -74.701986754966896 $214 74.701986754966896 $203 $324 forward 7 unknown #
coedge $-1 $126 $315 $319 $325 forward $212 $-1 #
loop $-1 $-1 $205 $306 #
vertex $-1 $209 $326 #
vertex $-1 $127 $327 #
straight-curve $-1 74.701986754966896 -16.967351723579313 14.071299933600521 0 1 0 I I #
face $-1 $-1 $228 $29 $-1 $328 forward single #
loop $-1 $-1 $329 $128 #
plane-surface $-1 74.701986754966896 0 0 -1 0 0 0 0 1 forward_v I I I I #
coedge $-1 $330 $331 $332 $333 reversed $129 $-1 #
coedge $-1 $334 $131 $133 $226 forward $81 $-1 #
coedge $-1 $131 $334 $330 $335 forward $81 $-1 #
coedge $-1 $332 $134 $131 $223 forward $228 $-1 #
edge $-1 $230 -1.5198127677254476 $336 12.624911487814963 $222 $337 forward 7 unknown #
coedge $-1 $338 $339 $132 $225 forward $217 $-1 #
edge $-1 $340 -100.38515882771453 $229 -88.904674198972458 $224 $341 forward 7 unknown #
edge $-1 $230 135.21331423771557 $340 149.40397350993382 $133 $342 forward 7 unknown #
coedge $-1 $134 $332 $338 $343 forward $228 $-1 #
loop $-1 $-1 $332 $216 #
vertex $-1 $225 $344 #
vertex $-1 $135 $345 #
straight-curve $-1 53.877445497093305 -4.0327365923193099 19.397972372830736 -1 0 0 I I #
coedge $-1 $232 $232 $-1 $346 reversed $138 $-1 #
edge $-1 $347 0 $347 6.2831853071796004 $139 $348 forward 7 unknown #
vertex $-1 $142 $349 #
ellipse-curve $-1 70.531456714629968 -11.105098720089515 13.657730058459709 0.80901700255871778 0 0.5877852410284794 0.8816778615427191 0 -1.2135255038380768 1 I I #
face $-1 $-1 $248 $31 $-1 $350 forward single #
loop $-1 $-1 $351 $143 #
plane-surface $-1 74.701986754966896 0 0 -1 0 0 0 0 1 forward_v I I I I #
coedge $-1 $352 $353 $354 $355 reversed $144 $-1 #
coedge $-1 $356 $146 $148 $246 forward $90 $-1 #
coedge $-1 $146 $356 $352 $357 forward $90 $-1 #
coedge $-1 $354 $149 $146 $243 forward $248 $-1 #
edge $-1 $250 -24.101866555916708 $358 -9.9571423003762973 $242 $359 forward 7 unknown #
coedge $-1 $360 $361 $147 $245 forward $237 $-1 #
edge $-1 $362 -100.38515882771453 $249 -88.904674198972458 $244 $363 forward 7 unknown #
edge $-1 $250 135.21331423771557 $362 149.40397350993382 $148 $364 forward 7 unknown #
coedge $-1 $149 $354 $360 $365 forward $248 $-1 #
loop $-1 $-1 $354 $236 #
vertex $-1 $245 $366 #
vertex $-1 $150 $367 #
straight-curve $-1 53.877445497093305 41.13137098406321 19.397972372830736 -1 0 0 I I #
coedge $-1 $252 $252 $-1 $368 reversed $153 $-1 #
edge $-1 $369 0 $369 6.2831853071796004 $154 $370 forward 7 unknown #
vertex $-1 $157 $371 #
ellipse-curve $-1 70.531456714629968 34.059008856293005 13.657730058459709 0.80901700255871778 0 0.5877852410284794 0.8816778615427191 0 -1.2135255038380768 1 I I #
face $-1 $-1 $372 $33 $-1 $373 reversed single #
loop $-1 $-1 $164 $158 #
plane-surface $-1 0 0 19.39797237283074 0 0 1 1 0 0 forward_v I I I I #
coedge $-1 $374 $375 $376 $377 reversed $159 $-1 #
coedge $-1 $378 $161 $163 $266 forward $99 $-1 #
coedge $-1 $161 $378 $374 $379 forward $99 $-1 #
coedge $-1 $376 $164 $161 $263 forward $257 $-1 #
edge $-1 $269 -0.9181013229958559 $380 10.258695653914611 $262 $381 forward 7 unknown #
coedge $-1 $382 $383 $162 $265 forward $372 $-1 #
edge $-1 $384 -51.473114393045634 $268 -36.601136531152193 $264 $385 forward 7 unknown #
edge $-1 $269 -21.409052736748521 $384 -1.9477141995791963e-014 $163 $386 forward 7 unknown #
coedge $-1 $164 $376 $382 $387 forward $257 $-1 #
vertex $-1 $265 $388 #
vertex $-1 $165 $389 #
straight-curve $-1 -89.243354376359349 3.7521958424635216 19.397972372830736 1 0 0 I I #
coedge $-1 $271 $271 $-1 $390 reversed $168 $-1 #
edge $-1 $391 0 $391 6.2831853071796004 $169 $392 forward 7 unknown #
vertex $-1 $172 $393 #
ellipse-curve $-1 -67.001794978779927 6.9455664072950825 11.961983441884017 -0.69465837861970381 0 0.71933979245794832 1.0790096886869225 0 1.0419875679295556 1 I I #
coedge $-1 $275 $275 $-1 $394 reversed $175 $-1 #
edge $-1 $395 0 $395 6.2831853071796004 $176 $396 forward 7 unknown #
vertex $-1 $179 $397 #
ellipse-curve $-1 -67.001794978779927 11.735622254542427 11.961983441884017 -0.69465837861970381 0 0.71933979245794832 1.0790096886869225 0 1.0419875679295556 1 I I #
face $-1 $-1 $195 $27 $-1 $398 reversed single #
loop $-1 $-1 $295 $180 #
plane-surface $-1 0 45.41165851526037 0 0 -1 0 0 0 -1 forward_v I I I I #
coedge $-1 $399 $293 $296 $400 forward $181 $-1 #
coedge $-1 $299 $183 $184 $287 reversed $113 $-1 #
coedge $-1 $293 $399 $183 $285 reversed $181 $-1 #
edge $-1 $300 -19.39797237283074 $401 19.39797237283074 $284 $402 forward 7 unknown #
coedge $-1 $185 $184 $399 $403 forward $73 $-1 #
edge $-1 $291 -74.701986754966896 $401 74.701986754966896 $283 $404 forward 7 unknown #
coedge $-1 $296 $295 $185 $289 reversed $280 $-1 #
edge $-1 $405 -74.701986754966896 $290 74.701986754966896 $288 $406 forward 7 unknown #
vertex $-1 $187 $407 #
vertex $-1 $302 $408 #
straight-curve $-1 74.701986754966896 0 -19.39797237283074 0 -1 0 I I #
coedge $-1 $282 $284 $188 $294 reversed $181 $-1 #
edge $-1 $297 -45.41165851526037 $300 45.41165851526037 $293 $409 forward 7 unknown #
coedge $-1 $288 $189 $194 $303 forward $280 $-1 #
coedge $-1 $189 $288 $282 $400 reversed $280 $-1 #
vertex $-1 $190 $410 #
straight-curve $-1 0 45.41165851526037 19.39797237283074 -1 0 0 I I #
coedge $-1 $191 $283 $193 $302 reversed $113 $-1 #
vertex $-1 $294 $411 #
straight-curve $-1 0 -45.41165851526037 19.39797237283074 1 0 0 I I #
edge $-1 $196 -19.39797237283074 $291 19.39797237283074 $193 $412 forward 7 unknown #
edge $-1 $197 -19.39797237283074 $290 19.39797237283074 $194 $413 forward 7 unknown #
point $-1 74.701986754966896 -45.41165851526037 19.39797237283074 #
point $-1 74.701986754966896 45.41165851526037 19.39797237283074 #
face $-1 $-1 $212 $28 $-1 $414 reversed single #
loop $-1 $-1 $313 $199 #
plane-surface $-1 0 0 19.39797237283074 0 0 1 1 0 0 forward_v I I I I #
coedge $-1 $415 $202 $207 $318 forward $121 $-1 #
coedge $-1 $202 $415 $416 $417 reversed $121 $-1 #
coedge $-1 $204 $203 $202 $312 reversed $77 $-1 #
edge $-1 $418 -11.030654296222922 $323 -5.7039818569927068 $202 $419 forward 7 unknown #
coedge $-1 $416 $420 $204 $314 forward $307 $-1 #
edge $-1 $316 -74.701986754966896 $418 74.701986754966896 $313 $421 forward 7 unknown #
coedge $-1 $211 $205 $420 $422 reversed $212 $-1 #
vertex $-1 $206 $423 #
straight-curve $-1 74.701986754966896 -22.457748379056881 8.3673180766078143 0 0 1 I I #
edge $-1 $323 5.4903966554775678 $321 28.444306791681058 $309 $424 forward 7 unknown #
coedge $-1 $425 $208 $211 $325 reversed $200 $-1 #
coedge $-1 $208 $425 $415 $426 forward $200 $-1 #
vertex $-1 $209 $427 #
straight-curve $-1 0 -45.41165851526037 14.071299933600521 1 0 0 I I #
vertex $-1 $318 $428 #
straight-curve $-1 0 -22.457748379056881 14.071299933600521 1 0 0 I I #
edge $-1 $429 -19.39797237283074 $213 -14.071299933600521 $211 $430 forward 7 unknown #
point $-1 74.701986754966896 -45.41165851526037 14.071299933600521 #
point $-1 74.701986754966896 -22.457748379056881 14.071299933600521 #
plane-surface $-1 0 0 19.39797237283074 0 0 1 1 0 0 forward_v I I I I #
coedge $-1 $339 $338 $331 $431 forward $217 $-1 #
coedge $-1 $331 $219 $221 $335 reversed $129 $-1 #
coedge $-1 $219 $330 $329 $431 reversed $129 $-1 #
coedge $-1 $227 $222 $219 $333 forward $228 $-1 #
edge $-1 $336 12.483481177199764 $432 20.824541257873591 $332 $433 forward 7 unknown #
coedge $-1 $221 $220 $339 $434 reversed $81 $-1 #
edge $-1 $435 -149.40397350993382 $336 -135.21331423771557 $330 $436 forward 7 unknown #
vertex $-1 $223 $437 #
straight-curve $-1 66.360926674293069 -5.5525493600447575 19.397972372830736 0 -1 0 I I #
coedge $-1 $329 $224 $227 $343 reversed $217 $-1 #
coedge $-1 $224 $329 $334 $434 forward $217 $-1 #
vertex $-1 $225 $438 #
straight-curve $-1 74.701986754966896 -4.0327365923193099 108.30264657180319 0 0 1 I I #
straight-curve $-1 -13.115463825182104 -4.0327365923193099 128.78784256345739 0.5877852410284794 0 -0.80901700255871778 I I #
edge $-1 $432 -18.17746084785972 $229 -4.0327365923193099 $338 $439 forward 7 unknown #
point $-1 74.701986754966896 -4.0327365923193099 19.39797237283074 #
point $-1 66.360926674293069 -4.0327365923193099 19.39797237283075 #
edge $-1 $440 1 $440 0 $232 $-1 forward 7 unknown #
vertex $-1 $233 $441 #
ellipse-curve $-1 67.752573305865496 -11.105098720089515 11.638753140737741 0.80901700255871778 0 0.5877852410284794 0.8816778615427191 0 -1.2135255038380768 1 I I #
point $-1 71.413134576172709 -11.105098720089515 12.444204554621653 #
plane-surface $-1 0 0 19.39797237283074 0 0 1 1 0 0 forward_v I I I I #
coedge $-1 $361 $360 $353 $442 forward $237 $-1 #
coedge $-1 $353 $239 $241 $357 reversed $144 $-1 #
coedge $-1 $239 $352 $351 $442 reversed $144 $-1 #
coedge $-1 $247 $242 $239 $355 forward $248 $-1 #
edge $-1 $358 12.483481177199764 $443 20.824541257873591 $354 $444 forward 7 unknown #
coedge $-1 $241 $240 $361 $445 reversed $90 $-1 #
edge $-1 $446 -149.40397350993382 $358 -135.21331423771557 $352 $447 forward 7 unknown #
vertex $-1 $243 $448 #
straight-curve $-1 66.360926674293069 17.029504428146502 19.397972372830736 0 -1 0 I I #
coedge $-1 $351 $244 $247 $365 reversed $237 $-1 #
coedge $-1 $244 $351 $356 $445 forward $237 $-1 #
vertex $-1 $245 $449 #
straight-curve $-1 74.701986754966896 41.13137098406321 108.30264657180319 0 0 1 I I #
straight-curve $-1 -13.115463825182104 41.13137098406321 128.78784256345739 0.5877852410284794 0 -0.80901700255871778 I I #
edge $-1 $443 26.9866467285228 $249 41.13137098406321 $360 $450 forward 7 unknown #
point $-1 74.701986754966896 41.13137098406321 19.39797237283074 #
point $-1 66.360926674293069 41.13137098406321 19.39797237283075 #
edge $-1 $451 1 $451 0 $252 $-1 forward 7 unknown #
vertex $-1 $253 $452 #
ellipse-curve $-1 67.752573305865496 34.059008856293005 11.638753140737741 0.80901700255871778 0 0.5877852410284794 0.8816778615427191 0 -1.2135255038380768 1 I I #
point $-1 71.413134576172709 34.059008856293005 12.444204554621653 #
loop $-1 $-1 $264 $256 #
plane-surface $-1 -74.701986754966896 0 0 1 0 0 0 0 -1 forward_v I I I I #
coedge $-1 $375 $259 $261 $379 reversed $159 $-1 #
coedge $-1 $259 $374 $453 $454 reversed $159 $-1 #
coedge $-1 $267 $262 $259 $377 forward $257 $-1 #
edge $-1 $380 -29.941751173766392 $455 -14.541367621392453 $376 $456 forward 7 unknown #
coedge $-1 $261 $260 $383 $457 reversed $99 $-1 #
edge $-1 $458 1.9477141995791963e-014 $380 21.409052736748521 $374 $459 forward 7 unknown #
vertex $-1 $263 $460 #
straight-curve $-1 -59.30160320259295 4.6702971654593775 19.39797237283074 0 1 0 I I #
coedge $-1 $453 $264 $267 $387 reversed $372 $-1 #
coedge $-1 $264 $453 $378 $457 forward $372 $-1 #
vertex $-1 $265 $461 #
straight-curve $-1 -74.701986754966896 3.7521958424635216 55.999108903982929 0 0 1 I I #
straight-curve $-1 -74.70198675496691 3.7521958424635216 4.5259945109372808 -0.71933979245794832 0 -0.69465837861970381 I I #
edge $-1 $455 -14.928992819373988 $268 -3.7521958424635216 $382 $462 forward 7 unknown #
point $-1 -74.701986754966896 3.7521958424635216 19.39797237283074 #
point $-1 -59.301603202592958 3.7521958424635216 19.397972372830743 #
edge $-1 $463 1 $463 0 $271 $-1 forward 7 unknown #
vertex $-1 $272 $464 #
ellipse-curve $-1 -63.856911330049137 6.9455664072950825 8.7053611642149527 -0.69465837861970381 0 0.71933979245794832 1.0790096886869225 0 1.0419875679295556 1 I I #
point $-1 -65.922785290092989 6.9455664072950825 13.003971009813561 #
edge $-1 $465 1 $465 0 $275 $-1 forward 7 unknown #
vertex $-1 $276 $466 #
ellipse-curve $-1 -63.856911330049137 11.735622254542427 8.7053611642149527 -0.69465837861970381 0 0.71933979245794832 1.0790096886869225 0 1.0419875679295556 1 I I #
point $-1 -65.922785290092989 11.735622254542427 13.003971009813561 #
plane-surface $-1 74.701986754966896 0 0 -1 0 0 0 0 1 forward_v I I I I #
coedge $-1 $284 $282 $286 $403 reversed $181 $-1 #
edge $-1 $297 -19.39797237283074 $405 19.39797237283074 $296 $467 forward 7 unknown #
vertex $-1 $403 $468 #
straight-curve $-1 -74.701986754966896 -45.41165851526037 0 0 0 -1 I I #
edge $-1 $401 -45.41165851526037 $405 45.41165851526037 $399 $469 forward 7 unknown #
straight-curve $-1 0 -45.41165851526037 -19.39797237283074 -1 0 0 I I #
vertex $-1 $289 $470 #
straight-curve $-1 0 45.41165851526037 -19.39797237283074 1 0 0 I I #
point $-1 74.701986754966896 45.41165851526037 -19.39797237283074 #
point $-1 74.701986754966896 -45.41165851526037 -19.39797237283074 #
straight-curve $-1 -74.701986754966896 0 19.39797237283074 0 -1 0 I I #
point $-1 -74.701986754966896 45.41165851526037 19.39797237283074 #
point $-1 -74.701986754966896 -45.41165851526037 19.39797237283074 #
straight-curve $-1 74.701986754966896 -45.41165851526037 0 0 0 -1 I I #
straight-curve $-1 74.701986754966896 45.41165851526037 0 0 0 -1 I I #
plane-surface $-1 74.701986754966896 0 0 -1 0 0 0 0 1 forward_v I I I I #
coedge $-1 $310 $309 $320 $426 reversed $121 $-1 #
coedge $-1 $471 $313 $310 $417 forward $307 $-1 #
edge $-1 $418 22.457748379056881 $472 45.41165851526037 $310 $473 forward 7 unknown #
vertex $-1 $417 $474 #
straight-curve $-1 -74.701986754966896 -22.457748379056881 8.3673180766078143 0 0 -1 I I #
coedge $-1 $313 $471 $315 $422 forward $307 $-1 #
straight-curve $-1 0 -22.457748379056881 19.39797237283074 -1 0 0 I I #
edge $-1 $429 -45.41165851526037 $316 -22.457748379056881 $315 $475 forward 7 unknown #
point $-1 74.701986754966896 -22.457748379056881 19.397972372830736 #
straight-curve $-1 -74.701986754966896 -16.967351723579313 14.071299933600521 0 -1 0 I I #
coedge $-1 $320 $319 $471 $476 reversed $200 $-1 #
edge $-1 $472 -19.39797237283074 $321 -14.071299933600521 $415 $477 forward 7 unknown #
point $-1 -74.701986754966896 -45.41165851526037 14.071299933600521 #
point $-1 -74.701986754966896 -22.457748379056881 14.071299933600521 #
vertex $-1 $422 $478 #
straight-curve $-1 74.701986754966896 -45.41165851526037 0 0 0 -1 I I #
edge $-1 $432 88.904674198972458 $435 100.38515882771453 $329 $479 forward 7 unknown #
vertex $-1 $343 $480 #
straight-curve $-1 53.877445497093305 -18.17746084785972 19.397972372830736 1 0 0 I I #
edge $-1 $435 -12.624911487814963 $340 1.5198127677254476 $339 $481 forward 7 unknown #
vertex $-1 $434 $482 #
straight-curve $-1 -13.115463825182104 -18.17746084785972 128.78784256345739 -0.5877852410284794 0 0.80901700255871778 I I #
point $-1 66.360926674293069 -18.17746084785972 19.39797237283075 #
point $-1 74.701986754966896 -4.0327365923193099 7.9174877440886604 #
straight-curve $-1 74.701986754966896 0 19.39797237283074 0 1 0 I I #
vertex $-1 $346 $483 #
point $-1 68.634251167408223 -11.105098720089515 10.425227636899665 #
edge $-1 $443 88.904674198972458 $446 100.38515882771453 $351 $484 forward 7 unknown #
vertex $-1 $365 $485 #
straight-curve $-1 53.877445497093305 26.9866467285228 19.397972372830736 1 0 0 I I #
edge $-1 $446 9.9571423003762973 $362 24.101866555916708 $361 $486 forward 7 unknown #
vertex $-1 $445 $487 #
straight-curve $-1 -13.115463825182104 26.9866467285228 128.78784256345739 -0.5877852410284794 0 0.80901700255871778 I I #
point $-1 66.360926674293069 26.9866467285228 19.39797237283075 #
point $-1 74.701986754966896 41.13137098406321 7.9174877440886604 #
straight-curve $-1 74.701986754966896 0 19.39797237283074 0 1 0 I I #
vertex $-1 $368 $488 #
point $-1 68.634251167408223 34.059008856293005 10.425227636899665 #
coedge $-1 $383 $382 $375 $454 forward $372 $-1 #
edge $-1 $455 36.601136531152193 $458 51.473114393045634 $453 $489 forward 7 unknown #
vertex $-1 $387 $490 #
straight-curve $-1 -89.243354376359349 14.928992819373988 19.397972372830736 -1 0 0 I I #
edge $-1 $458 -10.258695653914611 $384 0.9181013229958559 $383 $491 forward 7 unknown #
vertex $-1 $457 $492 #
straight-curve $-1 -74.70198675496691 14.928992819373988 4.5259945109372808 0.71933979245794832 0 0.69465837861970381 I I #
point $-1 -59.301603202592958 14.928992819373988 19.397972372830743 #
point $-1 -74.701986754966896 3.7521958424635216 4.5259945109372941 #
straight-curve $-1 -74.701986754966896 0 19.39797237283074 0 -1 0 I I #
vertex $-1 $390 $493 #
point $-1 -62.777901641362213 6.9455664072950825 9.7473487321445074 #
vertex $-1 $394 $494 #
point $-1 -62.777901641362213 11.735622254542427 9.7473487321445074 #
straight-curve $-1 -74.701986754966896 45.41165851526037 0 0 0 -1 I I #
point $-1 -74.701986754966896 -45.41165851526037 -19.39797237283074 #
straight-curve $-1 -74.701986754966896 0 -19.39797237283074 0 1 0 I I #
point $-1 -74.701986754966896 45.41165851526037 -19.39797237283074 #
coedge $-1 $420 $416 $425 $476 forward $307 $-1 #
vertex $-1 $417 $495 #
straight-curve $-1 -74.701986754966896 0 19.39797237283074 0 -1 0 I I #
point $-1 -74.701986754966896 -22.457748379056881 19.397972372830736 #
straight-curve $-1 74.701986754966896 0 19.39797237283074 0 1 0 I I #
edge $-1 $472 -74.701986754966896 $429 74.701986754966896 $425 $496 forward 7 unknown #
straight-curve $-1 -74.701986754966896 -45.41165851526037 0 0 0 -1 I I #
point $-1 74.701986754966896 -45.41165851526037 19.39797237283074 #
straight-curve $-1 74.701986754966896 -18.17746084785972 108.30264657180319 0 0 -1 I I #
point $-1 74.701986754966896 -18.17746084785972 19.39797237283074 #
straight-curve $-1 74.701986754966896 -5.5525493600447575 7.9174877440886604 0 1 0 I I #
point $-1 74.701986754966896 -18.17746084785972 7.9174877440886604 #
point $-1 66.539047802027426 -11.105098720089515 10.757075279195021 #
straight-curve $-1 74.701986754966896 26.9866467285228 108.30264657180319 0 0 -1 I I #
point $-1 74.701986754966896 26.9866467285228 19.39797237283074 #
straight-curve $-1 74.701986754966896 17.029504428146502 7.9174877440886604 0 1 0 I I #
point $-1 74.701986754966896 26.9866467285228 7.9174877440886604 #
point $-1 66.539047802027426 34.059008856293005 10.757075279195021 #
straight-curve $-1 -74.701986754966896 14.928992819373988 55.999108903982929 0 0 -1 I I #
point $-1 -74.701986754966896 14.928992819373988 19.39797237283074 #
straight-curve $-1 -74.701986754966896 4.6702971654593775 4.5259945109372843 0 -1 0 I I #
point $-1 -74.701986754966896 14.928992819373988 4.5259945109372941 #
point $-1 -62.814923762119584 6.9455664072950825 7.6263514755280299 #
point $-1 -62.814923762119584 11.735622254542427 7.6263514755280299 #
point $-1 -74.701986754966896 -45.41165851526037 19.39797237283074 #
straight-curve $-1 0 -45.41165851526037 19.39797237283074 1 0 0 I I #
End-of-ACIS-data 