500 0 8 0           
7 Unknown 11 ACIS 5.0 NT 24 Fri Mar 26 02:53:45 1999 
-1 9.9999999999999995e-007 1e-010 
body $-1 $8 $-1 $9 #
body $-1 $10 $-1 $11 #
body $-1 $12 $-1 $13 #
body $-1 $14 $-1 $15 #
body $-1 $16 $-1 $17 #
body $-1 $18 $-1 $19 #
body $-1 $20 $-1 $21 #
body $-1 $22 $-1 $23 #
lump $-1 $-1 $24 $0 #
transform $-1 1 0 0 0 1 0 0 0 1 77.548753318887904 54.076806824221478 17.056630570076415 1 rotate no_reflect no_shear #
lump $-1 $-1 $25 $1 #
transform $-1 1 0 0 0 1 0 0 0 1 77.548753318887904 54.076806824221478 17.056630570076415 1 rotate no_reflect no_shear #
lump $-1 $-1 $26 $2 #
transform $-1 1 0 0 0 1 0 0 0 1 77.548753318887904 54.076806824221478 17.056630570076415 1 rotate no_reflect no_shear #
lump $-1 $-1 $27 $3 #
transform $-1 1 0 0 0 1 0 0 0 1 77.548753318887904 54.076806824221478 17.056630570076415 1 rotate no_reflect no_shear #
lump $-1 $-1 $28 $4 #
transform $-1 1 0 0 0 1 0 0 0 1 77.548753318887904 54.076806824221478 17.056630570076415 1 rotate no_reflect no_shear #
lump $-1 $-1 $29 $5 #
transform $-1 1 0 0 0 1 0 0 0 1 77.548753318887904 54.076806824221478 17.056630570076415 1 rotate no_reflect no_shear #
lump $-1 $-1 $30 $6 #
transform $-1 1 0 0 0 1 0 0 0 1 77.548753318887904 54.076806824221478 17.056630570076415 1 rotate no_reflect no_shear #
lump $-1 $-1 $31 $7 #
transform $-1 1 0 0 0 1 0 0 0 1 77.548753318887904 54.076806824221478 17.056630570076415 1 rotate no_reflect no_shear #
shell $-1 $-1 $-1 $32 $-1 $8 #
shell $-1 $-1 $-1 $33 $-1 $10 #
shell $-1 $-1 $-1 $34 $-1 $12 #
shell $-1 $-1 $-1 $35 $-1 $14 #
shell $-1 $-1 $-1 $36 $-1 $16 #
shell $-1 $-1 $-1 $37 $-1 $18 #
shell $-1 $-1 $-1 $38 $-1 $20 #
shell $-1 $-1 $-1 $39 $-1 $22 #
face $-1 $40 $41 $24 $-1 $42 forward single #
face $-1 $43 $44 $25 $-1 $45 reversed single #
face $-1 $46 $47 $26 $-1 $48 reversed single #
face $-1 $49 $50 $27 $-1 $51 forward single #
face $-1 $52 $53 $28 $-1 $54 forward single #
face $-1 $55 $56 $29 $-1 $57 reversed single #
face $-1 $58 $59 $30 $-1 $60 forward single #
face $-1 $61 $62 $31 $-1 $63 forward single #
face $-1 $64 $65 $24 $-1 $66 reversed single #
loop $-1 $-1 $67 $32 #
plane-surface $-1 0 0 17.056630570076415 0 0 1 1 0 0 forward_v I I I I #
face $-1 $68 $69 $25 $-1 $70 reversed single #
loop $-1 $-1 $71 $33 #
plane-surface $-1 0 -47.139333234114815 11.496711409976735 0 0 1 1 0 0 forward_v I I I I #
face $-1 $72 $73 $26 $-1 $74 reversed single #
loop $-1 $-1 $75 $34 #
plane-surface $-1 -199.76725768728443 -35.234857664854928 99.511460053630145 0 1 0 -0.78801076186113728 0 0.61566146476048833 forward_v I I I I #
face $-1 $76 $77 $27 $-1 $78 forward single #
loop $-1 $79 $80 $35 #
cone-surface $-1 -69.001842876142845 -29.925519721322352 7.840323831479389 0.78801076186113728 0 -0.61566146476048833 1.5391536619012207 0 1.9700269046528431 1 I I 0 1 2.5 forward I I I I #
face $-1 $81 $82 $28 $-1 $83 forward single #
loop $-1 $84 $85 $36 #
cone-surface $-1 -69.001842876142845 -21.961512806023499 7.840323831479389 0.78801076186113728 0 -0.61566146476048833 1.5391536619012207 0 1.9700269046528431 1 I I 0 1 2.5 forward I I I I #
face $-1 $86 $87 $29 $-1 $88 reversed single #
loop $-1 $-1 $89 $37 #
plane-surface $-1 100.47613357477842 -24.49987391089039 222.50651600916845 0 -1 0 -0.77714596973225614 0 -0.62932038083071107 forward_v I I I I #
face $-1 $90 $91 $30 $-1 $92 forward single #
loop $-1 $93 $94 $38 #
cone-surface $-1 70.283249423716043 -35.715578005974507 8.9889557525362687 -0.77714596973225614 0 -0.62932038083071107 1.2586407616614221 0 -1.5542919394645123 1 I I 0 1 2 forward I I I I #
face $-1 $95 $96 $31 $-1 $97 forward single #
loop $-1 $98 $99 $39 #
cone-surface $-1 70.283249423716043 -28.986155548924039 8.9889557525362687 -0.77714596973225614 0 -0.62932038083071107 1.2586407616614221 0 -1.5542919394645123 1 I I 0 1 2 forward I I I I #
face $-1 $100 $101 $24 $-1 $102 reversed single #
loop $-1 $-1 $103 $40 #
plane-surface $-1 0 0 -17.056630570076415 0 0 1 1 0 0 forward_v I I I I #
coedge $-1 $104 $105 $106 $107 forward $41 $-1 #
face $-1 $108 $109 $25 $-1 $110 reversed single #
loop $-1 $-1 $111 $43 #
plane-surface $-1 0 -40.201859644008152 14.276670990026574 0 -1 0 0 0 -1 forward_v I I I I #
coedge $-1 $112 $113 $114 $115 reversed $44 $-1 #
face $-1 $116 $117 $26 $-1 $118 reversed single #
loop $-1 $-1 $119 $46 #
plane-surface $-1 -77.548753318887933 -25.943516263672926 4.023901936317543 -0.78801076186113728 0 0.61566146476048833 0.61566146476048833 0 0.78801076186113728 forward_v I I I I #
coedge $-1 $120 $121 $122 $123 reversed $47 $-1 #
face $-1 $-1 $124 $27 $-1 $125 forward single #
loop $-1 $126 $127 $49 #
cone-surface $-1 -64.561060618233341 -29.925519721322352 4.3708045788111889 0.78801076186113728 0 -0.61566146476048833 0.76957683095061036 0 0.98501345232642157 1 I I -0.70710678118654746 0.70710678118654746 1.25 forward I I I I #
loop $-1 $-1 $128 $35 #
coedge $-1 $80 $80 $129 $130 reversed $50 $-1 #
face $-1 $-1 $131 $28 $-1 $132 forward single #
loop $-1 $133 $134 $52 #
cone-surface $-1 -64.561060618233341 -21.961512806023499 4.3708045788111889 0.78801076186113728 0 -0.61566146476048833 0.76957683095061036 0 0.98501345232642157 1 I I -0.70710678118654746 0.70710678118654746 1.25 forward I I I I #
loop $-1 $-1 $135 $36 #
coedge $-1 $85 $85 $136 $137 reversed $53 $-1 #
face $-1 $138 $139 $29 $-1 $140 forward single #
loop $-1 $-1 $141 $55 #
plane-surface $-1 -20.057268624290899 -32.350866777449269 124.90049406598965 0.77714596973225614 0 0.62932038083071107 0.62932038083071107 0 -0.77714596973225614 forward_v I I I I #
coedge $-1 $142 $143 $144 $145 reversed $56 $-1 #
face $-1 $-1 $146 $30 $-1 $147 forward single #
loop $-1 $148 $149 $58 #
cone-surface $-1 67.378492335884133 -35.715578005974507 6.6367299057434437 -0.77714596973225614 0 -0.62932038083071107 0.62932038083071107 0 -0.77714596973225614 1 I I -0.70710678118654746 0.70710678118654746 1 forward I I I I #
loop $-1 $-1 $150 $38 #
coedge $-1 $94 $94 $151 $152 reversed $59 $-1 #
face $-1 $-1 $153 $31 $-1 $154 forward single #
loop $-1 $155 $156 $61 #
cone-surface $-1 67.378492335884133 -28.986155548924039 6.6367299057434437 -0.77714596973225614 0 -0.62932038083071107 0.62932038083071107 0 -0.77714596973225614 1 I I -0.70710678118654746 0.70710678118654746 1 forward I I I I #
loop $-1 $-1 $157 $39 #
coedge $-1 $99 $99 $158 $159 reversed $62 $-1 #
face $-1 $160 $161 $24 $-1 $162 reversed single #
loop $-1 $-1 $163 $64 #
plane-surface $-1 0 -54.076806824221478 0 0 1 0 0 0 1 forward_v I I I I #
coedge $-1 $164 $165 $166 $167 forward $65 $-1 #
coedge $-1 $168 $67 $169 $170 forward $41 $-1 #
coedge $-1 $67 $168 $171 $172 forward $41 $-1 #
coedge $-1 $173 $174 $67 $107 reversed $175 $-1 #
edge $-1 $176 -54.076806824221478 $177 54.076806824221478 $106 $178 forward 7 unknown #
face $-1 $179 $180 $25 $-1 $181 reversed single #
loop $-1 $-1 $182 $68 #
plane-surface $-1 -77.548753318887904 0 0 1 0 0 0 0 -1 forward_v I I I I #
coedge $-1 $183 $184 $113 $185 reversed $69 $-1 #
coedge $-1 $186 $71 $187 $188 reversed $44 $-1 #
coedge $-1 $71 $186 $111 $185 forward $44 $-1 #
coedge $-1 $189 $190 $71 $115 forward $191 $-1 #
edge $-1 $192 -30.50714020716407 $193 -16.632193026950745 $114 $194 forward 7 unknown #
face $-1 $195 $196 $26 $-1 $197 forward single #
loop $-1 $-1 $198 $72 #
plane-surface $-1 -199.76725768728443 -16.652174862490924 99.511460053630145 0 -1 0 0.78801076186113728 0 -0.61566146476048833 forward_v I I I I #
coedge $-1 $199 $200 $201 $202 reversed $73 $-1 #
coedge $-1 $121 $75 $203 $204 reversed $47 $-1 #
coedge $-1 $75 $120 $199 $205 reversed $47 $-1 #
coedge $-1 $201 $206 $75 $123 forward $196 $-1 #
edge $-1 $207 22.33487552475431 $208 32.517158799078246 $122 $209 forward 7 unknown #
loop $-1 $-1 $129 $76 #
plane-surface $-1 -77.548753318887933 -25.943516263672926 4.023901936317543 -0.78801076186113728 0 0.61566146476048833 0.61566146476048833 0 0.78801076186113728 forward_v I I I I #
loop $-1 $-1 $210 $49 #
coedge $-1 $127 $127 $128 $211 reversed $77 $-1 #
coedge $-1 $128 $128 $127 $211 forward $79 $-1 #
coedge $-1 $129 $129 $80 $130 forward $124 $-1 #
edge $-1 $212 0 $212 6.2831853071796004 $129 $213 forward 7 unknown #
loop $-1 $-1 $136 $81 #
plane-surface $-1 -77.548753318887933 -25.943516263672926 4.023901936317543 -0.78801076186113728 0 0.61566146476048833 0.61566146476048833 0 0.78801076186113728 forward_v I I I I #
loop $-1 $-1 $214 $52 #
coedge $-1 $134 $134 $135 $215 reversed $82 $-1 #
coedge $-1 $135 $135 $134 $215 forward $84 $-1 #
coedge $-1 $136 $136 $85 $137 forward $131 $-1 #
edge $-1 $216 0 $216 6.2831853071796004 $136 $217 forward 7 unknown #
face $-1 $218 $219 $29 $-1 $220 forward single #
loop $-1 $-1 $221 $86 #
plane-surface $-1 0 -40.201859644008152 14.276670990026574 0 -1 0 0 0 -1 forward_v I I I I #
coedge $-1 $222 $223 $224 $225 reversed $87 $-1 #
coedge $-1 $143 $89 $226 $227 reversed $56 $-1 #
coedge $-1 $89 $142 $222 $228 reversed $56 $-1 #
coedge $-1 $224 $229 $89 $145 forward $219 $-1 #
edge $-1 $230 -27.310686531498696 $231 -17.034900977354347 $144 $232 forward 7 unknown #
loop $-1 $-1 $151 $90 #
plane-surface $-1 -20.057268624290899 -32.350866777449269 124.90049406598965 0.77714596973225614 0 0.62932038083071107 0.62932038083071107 0 -0.77714596973225614 forward_v I I I I #
loop $-1 $-1 $233 $58 #
coedge $-1 $149 $149 $150 $234 reversed $91 $-1 #
coedge $-1 $150 $150 $149 $234 forward $93 $-1 #
coedge $-1 $151 $151 $94 $152 forward $146 $-1 #
edge $-1 $235 0 $235 6.2831853071796004 $151 $236 forward 7 unknown #
loop $-1 $-1 $158 $95 #
plane-surface $-1 -20.057268624290899 -32.350866777449269 124.90049406598965 0.77714596973225614 0 0.62932038083071107 0.62932038083071107 0 -0.77714596973225614 forward_v I I I I #
loop $-1 $-1 $237 $61 #
coedge $-1 $156 $156 $157 $238 reversed $96 $-1 #
coedge $-1 $157 $157 $156 $238 forward $98 $-1 #
coedge $-1 $158 $158 $99 $159 forward $153 $-1 #
edge $-1 $239 0 $239 6.2831853071796004 $158 $240 forward 7 unknown #
face $-1 $241 $242 $24 $-1 $243 reversed single #
loop $-1 $-1 $244 $100 #
plane-surface $-1 -77.548753318887904 0 0 1 0 0 0 0 -1 forward_v I I I I #
coedge $-1 $245 $171 $246 $247 forward $101 $-1 #
coedge $-1 $248 $103 $245 $249 forward $65 $-1 #
coedge $-1 $103 $248 $250 $251 forward $65 $-1 #
coedge $-1 $174 $173 $103 $167 reversed $175 $-1 #
edge $-1 $252 -54.076806824221478 $253 54.076806824221478 $166 $254 forward 7 unknown #
coedge $-1 $105 $104 $255 $256 forward $41 $-1 #
coedge $-1 $257 $258 $104 $170 reversed $242 $-1 #
edge $-1 $177 -77.548753318887904 $259 77.548753318887904 $169 $260 forward 7 unknown #
coedge $-1 $163 $261 $105 $172 reversed $101 $-1 #
edge $-1 $262 -77.548753318887904 $176 77.548753318887904 $171 $263 forward 7 unknown #
coedge $-1 $166 $106 $261 $264 forward $175 $-1 #
coedge $-1 $106 $166 $257 $265 reversed $175 $-1 #
loop $-1 $-1 $173 $241 #
vertex $-1 $107 $266 #
vertex $-1 $107 $267 #
straight-curve $-1 77.548753318887904 0 17.056630570076415 0 1 0 I I #
face $-1 $268 $269 $25 $-1 $270 forward single #
loop $-1 $-1 $187 $108 #
plane-surface $-1 0 -54.076806824221478 0 0 1 0 0 0 1 forward_v I I I I #
coedge $-1 $271 $272 $183 $273 forward $109 $-1 #
coedge $-1 $274 $111 $182 $273 reversed $69 $-1 #
coedge $-1 $111 $274 $189 $275 reversed $69 $-1 #
edge $-1 $276 -77.548753318887904 $193 77.548753318887904 $111 $277 forward 7 unknown #
coedge $-1 $113 $112 $271 $278 reversed $44 $-1 #
coedge $-1 $279 $280 $112 $188 forward $180 $-1 #
edge $-1 $281 -77.548753318887904 $192 77.548753318887904 $187 $282 forward 7 unknown #
coedge $-1 $283 $114 $184 $275 forward $191 $-1 #
coedge $-1 $114 $283 $279 $284 forward $191 $-1 #
loop $-1 $-1 $189 $268 #
vertex $-1 $188 $285 #
vertex $-1 $115 $286 #
straight-curve $-1 77.548753318887904 -23.569666617057408 11.496711409976735 0 1 0 I I #
face $-1 $-1 $287 $26 $-1 $288 reversed single #
loop $-1 $-1 $122 $116 #
plane-surface $-1 0 0 17.056630570076415 0 0 1 1 0 0 forward_v I I I I #
coedge $-1 $289 $290 $291 $292 reversed $117 $-1 #
coedge $-1 $293 $119 $121 $205 forward $73 $-1 #
coedge $-1 $119 $293 $289 $294 forward $73 $-1 #
coedge $-1 $291 $122 $119 $202 forward $196 $-1 #
edge $-1 $208 -22.263099533018465 $295 -3.6804167306544606 $201 $296 forward 7 unknown #
coedge $-1 $297 $298 $120 $204 forward $287 $-1 #
edge $-1 $299 -45.731828090497494 $207 -32.699099456738658 $203 $300 forward 7 unknown #
edge $-1 $208 -16.538769855094301 $299 -4.6193811539156697e-014 $121 $301 forward 7 unknown #
coedge $-1 $122 $291 $297 $302 forward $196 $-1 #
vertex $-1 $204 $303 #
vertex $-1 $123 $304 #
straight-curve $-1 -99.883628843642214 -35.234857664854928 17.056630570076415 1 0 0 I I #
coedge $-1 $210 $210 $-1 $305 reversed $126 $-1 #
edge $-1 $306 0 $306 6.2831853071796004 $127 $307 forward 7 unknown #
vertex $-1 $130 $308 #
ellipse-curve $-1 -72.457611681725936 -29.925519721322352 10.540266253196991 -0.78801076186113728 0 0.61566146476048833 1.5391536619012207 0 1.9700269046528431 1 I I #
coedge $-1 $214 $214 $-1 $309 reversed $133 $-1 #
edge $-1 $310 0 $310 6.2831853071796004 $134 $311 forward 7 unknown #
vertex $-1 $137 $312 #
ellipse-curve $-1 -72.457611681725936 -21.961512806023499 10.540266253196991 -0.78801076186113728 0 0.61566146476048833 1.5391536619012207 0 1.9700269046528431 1 I I #
face $-1 $-1 $313 $29 $-1 $314 reversed single #
loop $-1 $-1 $224 $138 #
plane-surface $-1 0 0 17.056630570076415 0 0 1 1 0 0 forward_v I I I I #
coedge $-1 $315 $316 $223 $317 reversed $139 $-1 #
coedge $-1 $318 $141 $143 $228 forward $87 $-1 #
coedge $-1 $141 $318 $221 $317 forward $87 $-1 #
coedge $-1 $319 $144 $141 $225 forward $219 $-1 #
edge $-1 $231 8.3244405221657551 $320 24.026426255283518 $224 $321 forward 7 unknown #
coedge $-1 $322 $323 $142 $227 forward $313 $-1 #
edge $-1 $324 -106.88616613766389 $230 -94.196627434507803 $226 $325 forward 7 unknown #
edge $-1 $231 138.76912149858774 $324 155.09750663777581 $143 $326 forward 7 unknown #
coedge $-1 $144 $319 $322 $327 forward $219 $-1 #
vertex $-1 $227 $328 #
vertex $-1 $145 $329 #
straight-curve $-1 50.238066787389208 -24.49987391089039 17.056630570076408 -1 0 0 I I #
coedge $-1 $233 $233 $-1 $330 reversed $148 $-1 #
edge $-1 $331 0 $331 6.2831853071796004 $149 $332 forward 7 unknown #
vertex $-1 $152 $333 #
ellipse-curve $-1 72.410860541815708 -35.715578005974507 10.711861218498388 0.77714596973225614 0 0.62932038083071107 1.2586407616614221 0 -1.5542919394645123 1 I I #
coedge $-1 $237 $237 $-1 $334 reversed $155 $-1 #
edge $-1 $335 0 $335 6.2831853071796004 $156 $336 forward 7 unknown #
vertex $-1 $159 $337 #
ellipse-curve $-1 72.410860541815708 -28.986155548924039 10.711861218498388 0.77714596973225614 0 0.62932038083071107 1.2586407616614221 0 -1.5542919394645123 1 I I #
face $-1 $-1 $175 $24 $-1 $338 reversed single #
loop $-1 $-1 $257 $160 #
plane-surface $-1 0 54.076806824221478 0 0 -1 0 0 0 -1 forward_v I I I I #
coedge $-1 $339 $255 $258 $340 forward $161 $-1 #
coedge $-1 $261 $163 $164 $249 reversed $101 $-1 #
coedge $-1 $255 $339 $163 $247 reversed $161 $-1 #
edge $-1 $262 -17.056630570076415 $341 17.056630570076415 $246 $342 forward 7 unknown #
coedge $-1 $165 $164 $339 $343 forward $65 $-1 #
edge $-1 $253 -77.548753318887904 $341 77.548753318887904 $245 $344 forward 7 unknown #
coedge $-1 $258 $257 $165 $251 reversed $242 $-1 #
edge $-1 $345 -77.548753318887904 $252 77.548753318887904 $250 $346 forward 7 unknown #
vertex $-1 $167 $347 #
vertex $-1 $264 $348 #
straight-curve $-1 77.548753318887904 0 -17.056630570076415 0 -1 0 I I #
coedge $-1 $244 $246 $168 $256 reversed $161 $-1 #
edge $-1 $259 -54.076806824221478 $262 54.076806824221478 $255 $349 forward 7 unknown #
coedge $-1 $250 $169 $174 $265 forward $242 $-1 #
coedge $-1 $169 $250 $244 $340 reversed $242 $-1 #
vertex $-1 $170 $350 #
straight-curve $-1 0 54.076806824221478 17.056630570076415 -1 0 0 I I #
coedge $-1 $171 $245 $173 $264 reversed $101 $-1 #
vertex $-1 $256 $351 #
straight-curve $-1 0 -54.076806824221478 17.056630570076415 1 0 0 I I #
edge $-1 $176 -17.056630570076415 $253 17.056630570076415 $173 $352 forward 7 unknown #
edge $-1 $177 -17.056630570076415 $252 17.056630570076415 $174 $353 forward 7 unknown #
point $-1 77.548753318887904 -54.076806824221478 17.056630570076415 #
point $-1 77.548753318887904 54.076806824221478 17.056630570076415 #
face $-1 $-1 $191 $25 $-1 $354 reversed single #
loop $-1 $-1 $355 $179 #
plane-surface $-1 0 0 17.056630570076415 0 0 1 1 0 0 forward_v I I I I #
coedge $-1 $356 $182 $186 $278 forward $109 $-1 #
coedge $-1 $182 $356 $357 $358 reversed $109 $-1 #
edge $-1 $359 -9.9182950750631278 $276 -4.3583759149634478 $182 $360 forward 7 unknown #
coedge $-1 $184 $183 $355 $361 reversed $69 $-1 #
edge $-1 $193 4.3583759149634478 $362 9.9182950750631278 $189 $363 forward 7 unknown #
vertex $-1 $278 $364 #
straight-curve $-1 0 -40.201859644008152 11.496711409976735 1 0 0 I I #
edge $-1 $276 16.632193026950745 $281 30.50714020716407 $271 $365 forward 7 unknown #
coedge $-1 $366 $187 $190 $284 reversed $180 $-1 #
coedge $-1 $187 $366 $356 $367 forward $180 $-1 #
vertex $-1 $188 $368 #
straight-curve $-1 0 -54.076806824221478 11.496711409976735 1 0 0 I I #
coedge $-1 $190 $189 $369 $370 reversed $191 $-1 #
edge $-1 $371 -17.056630570076415 $192 -11.496711409976735 $190 $372 forward 7 unknown #
point $-1 77.548753318887904 -54.076806824221478 11.496711409976735 #
point $-1 77.548753318887904 -40.201859644008152 11.496711409976735 #
loop $-1 $-1 $203 $195 #
plane-surface $-1 -77.548753318887904 0 0 1 0 0 0 0 -1 forward_v I I I I #
coedge $-1 $290 $198 $200 $294 reversed $117 $-1 #
coedge $-1 $198 $289 $373 $374 reversed $117 $-1 #
coedge $-1 $206 $201 $198 $292 forward $196 $-1 #
edge $-1 $295 -32.517158799078246 $375 -22.33487552475431 $291 $376 forward 7 unknown #
coedge $-1 $200 $199 $298 $377 reversed $73 $-1 #
edge $-1 $378 4.6193811539156697e-014 $295 16.538769855094301 $289 $379 forward 7 unknown #
vertex $-1 $202 $380 #
straight-curve $-1 -67.366470044563954 -12.971758131836463 17.056630570076415 0 1 0 I I #
coedge $-1 $373 $203 $206 $302 reversed $287 $-1 #
coedge $-1 $203 $373 $293 $377 forward $287 $-1 #
vertex $-1 $204 $381 #
straight-curve $-1 -77.548753318887904 -35.234857664854928 49.755730026815073 0 0 1 I I #
straight-curve $-1 -77.548753318887933 -35.234857664854928 4.023901936317543 -0.61566146476048833 0 -0.78801076186113728 I I #
edge $-1 $375 16.652174862490924 $207 35.234857664854928 $297 $382 forward 7 unknown #
point $-1 -77.548753318887904 -35.234857664854928 17.056630570076415 #
point $-1 -67.366470044563968 -35.234857664854928 17.056630570076415 #
edge $-1 $383 1 $383 0 $210 $-1 forward 7 unknown #
vertex $-1 $211 $384 #
ellipse-curve $-1 -65.546074070559769 -29.925519721322352 5.1403814097617992 -0.78801076186113728 0 0.61566146476048833 1.5391536619012207 0 1.9700269046528431 1 I I #
point $-1 -70.918458019824698 -29.925519721322352 12.510293157849823 #
edge $-1 $385 1 $385 0 $214 $-1 forward 7 unknown #
vertex $-1 $215 $386 #
ellipse-curve $-1 -65.546074070559769 -21.961512806023499 5.1403814097617992 -0.78801076186113728 0 0.61566146476048833 1.5391536619012207 0 1.9700269046528431 1 I I #
point $-1 -70.918458019824698 -21.961512806023499 12.510293157849823 #
loop $-1 $-1 $226 $218 #
plane-surface $-1 77.548753318887904 0 0 -1 0 0 0 0 1 forward_v I I I I #
coedge $-1 $316 $221 $387 $388 reversed $139 $-1 #
coedge $-1 $221 $315 $319 $389 reversed $139 $-1 #
edge $-1 $390 -155.09750663777581 $320 -138.76912149858774 $221 $391 forward 7 unknown #
coedge $-1 $223 $222 $323 $392 reversed $87 $-1 #
coedge $-1 $229 $224 $316 $389 forward $219 $-1 #
vertex $-1 $389 $393 #
straight-curve $-1 67.272967764743541 -16.175433388724635 17.056630570076436 0 -1 0 I I #
coedge $-1 $387 $226 $229 $327 reversed $313 $-1 #
coedge $-1 $226 $387 $318 $392 forward $313 $-1 #
vertex $-1 $227 $394 #
straight-curve $-1 77.548753318887904 -24.49987391089039 111.25325800458423 0 0 1 I I #
straight-curve $-1 -20.057268624290899 -24.49987391089039 124.90049406598965 0.62932038083071107 0 -0.77714596973225614 I I #
edge $-1 $395 -40.201859644008152 $230 -24.49987391089039 $322 $396 forward 7 unknown #
point $-1 77.548753318887904 -24.49987391089039 17.056630570076415 #
point $-1 67.272967764743555 -24.49987391089039 17.056630570076408 #
edge $-1 $397 1 $397 0 $233 $-1 forward 7 unknown #
vertex $-1 $234 $398 #
ellipse-curve $-1 68.155638305616392 -35.715578005974507 7.2660502865741545 0.77714596973225614 0 0.62932038083071107 1.2586407616614221 0 -1.5542919394645123 1 I I #
point $-1 73.669501303477134 -35.715578005974507 9.1575692790338721 #
edge $-1 $399 1 $399 0 $237 $-1 forward 7 unknown #
vertex $-1 $238 $400 #
ellipse-curve $-1 68.155638305616392 -28.986155548924039 7.2660502865741545 0.77714596973225614 0 0.62932038083071107 1.2586407616614221 0 -1.5542919394645123 1 I I #
point $-1 73.669501303477134 -28.986155548924039 9.1575692790338721 #
plane-surface $-1 77.548753318887904 0 0 -1 0 0 0 0 1 forward_v I I I I #
coedge $-1 $246 $244 $248 $343 reversed $161 $-1 #
edge $-1 $259 -17.056630570076415 $345 17.056630570076415 $258 $401 forward 7 unknown #
vertex $-1 $343 $402 #
straight-curve $-1 -77.548753318887904 -54.076806824221478 0 0 0 -1 I I #
edge $-1 $341 -54.076806824221478 $345 54.076806824221478 $339 $403 forward 7 unknown #
straight-curve $-1 0 -54.076806824221478 -17.056630570076415 -1 0 0 I I #
vertex $-1 $251 $404 #
straight-curve $-1 0 54.076806824221478 -17.056630570076415 1 0 0 I I #
point $-1 77.548753318887904 54.076806824221478 -17.056630570076415 #
point $-1 77.548753318887904 -54.076806824221478 -17.056630570076415 #
straight-curve $-1 -77.548753318887904 0 17.056630570076415 0 -1 0 I I #
point $-1 -77.548753318887904 54.076806824221478 17.056630570076415 #
point $-1 -77.548753318887904 -54.076806824221478 17.056630570076415 #
straight-curve $-1 77.548753318887904 -54.076806824221478 0 0 0 -1 I I #
straight-curve $-1 77.548753318887904 54.076806824221478 0 0 0 -1 I I #
plane-surface $-1 77.548753318887904 0 0 -1 0 0 0 0 1 forward_v I I I I #
coedge $-1 $357 $369 $274 $361 forward $269 $-1 #
coedge $-1 $272 $271 $280 $367 reversed $109 $-1 #
coedge $-1 $405 $355 $272 $358 forward $269 $-1 #
edge $-1 $359 40.201859644008152 $406 54.076806824221478 $272 $407 forward 7 unknown #
vertex $-1 $358 $408 #
straight-curve $-1 -77.548753318887904 -40.201859644008152 7.1383354950132869 0 0 -1 I I #
edge $-1 $362 -77.548753318887904 $359 77.548753318887904 $355 $409 forward 7 unknown #
vertex $-1 $275 $410 #
straight-curve $-1 77.548753318887904 -40.201859644008152 7.1383354950132869 0 0 1 I I #
point $-1 -77.548753318887904 -40.201859644008152 11.496711409976735 #
straight-curve $-1 -77.548753318887904 -23.569666617057408 11.496711409976735 0 -1 0 I I #
coedge $-1 $280 $279 $405 $411 reversed $180 $-1 #
edge $-1 $406 -17.056630570076415 $281 -11.496711409976735 $356 $412 forward 7 unknown #
point $-1 -77.548753318887904 -54.076806824221478 11.496711409976735 #
coedge $-1 $355 $405 $283 $370 forward $269 $-1 #
edge $-1 $371 -54.076806824221478 $362 -40.201859644008152 $283 $413 forward 7 unknown #
vertex $-1 $370 $414 #
straight-curve $-1 77.548753318887904 -54.076806824221478 0 0 0 -1 I I #
coedge $-1 $298 $297 $290 $374 forward $287 $-1 #
edge $-1 $375 32.699099456738658 $378 45.731828090497494 $373 $415 forward 7 unknown #
vertex $-1 $302 $416 #
straight-curve $-1 -99.883628843642214 -16.652174862490924 17.056630570076415 -1 0 0 I I #
edge $-1 $378 3.6804167306544606 $299 22.263099533018465 $298 $417 forward 7 unknown #
vertex $-1 $377 $418 #
straight-curve $-1 -77.548753318887933 -16.652174862490924 4.023901936317543 0.61566146476048833 0 0.78801076186113728 I I #
point $-1 -67.366470044563968 -16.652174862490924 17.056630570076415 #
point $-1 -77.548753318887904 -35.234857664854928 4.0239019363175794 #
straight-curve $-1 -77.548753318887904 0 17.056630570076415 0 -1 0 I I #
vertex $-1 $305 $419 #
point $-1 -64.006920408658544 -29.925519721322352 7.1104083144146424 #
vertex $-1 $309 $420 #
point $-1 -64.006920408658544 -21.961512806023499 7.1104083144146424 #
coedge $-1 $323 $322 $315 $388 forward $313 $-1 #
edge $-1 $395 94.196627434507803 $390 106.88616613766389 $387 $421 forward 7 unknown #
edge $-1 $320 67.272967764743555 $395 77.548753318887904 $319 $422 forward 7 unknown #
vertex $-1 $388 $423 #
straight-curve $-1 -20.057268624290899 -40.201859644008152 124.90049406598965 -0.62932038083071107 0 0.77714596973225614 I I #
edge $-1 $390 -24.026426255283518 $324 -8.3244405221657551 $323 $424 forward 7 unknown #
point $-1 67.272967764743555 -40.201859644008152 17.056630570076408 #
point $-1 77.548753318887904 -24.49987391089039 4.3670918669203331 #
vertex $-1 $327 $425 #
straight-curve $-1 77.548753318887904 0 17.056630570076415 0 1 0 I I #
vertex $-1 $330 $426 #
point $-1 69.414279067277818 -35.715578005974507 5.711758347109642 #
vertex $-1 $334 $427 #
point $-1 69.414279067277818 -28.986155548924039 5.711758347109642 #
straight-curve $-1 -77.548753318887904 54.076806824221478 0 0 0 -1 I I #
point $-1 -77.548753318887904 -54.076806824221478 -17.056630570076415 #
straight-curve $-1 -77.548753318887904 0 -17.056630570076415 0 1 0 I I #
point $-1 -77.548753318887904 54.076806824221478 -17.056630570076415 #
coedge $-1 $369 $357 $366 $411 forward $269 $-1 #
vertex $-1 $358 $428 #
straight-curve $-1 -77.548753318887904 0 17.056630570076415 0 -1 0 I I #
point $-1 -77.548753318887904 -40.201859644008152 17.056630570076415 #
straight-curve $-1 0 -40.201859644008152 17.056630570076415 -1 0 0 I I #
point $-1 77.548753318887904 -40.201859644008152 17.056630570076415 #
edge $-1 $406 -77.548753318887904 $371 77.548753318887904 $366 $429 forward 7 unknown #
straight-curve $-1 -77.548753318887904 -54.076806824221478 0 0 0 -1 I I #
straight-curve $-1 77.548753318887904 0 17.056630570076415 0 1 0 I I #
point $-1 77.548753318887904 -54.076806824221478 17.056630570076415 #
straight-curve $-1 -77.548753318887904 -16.652174862490924 49.755730026815073 0 0 -1 I I #
point $-1 -77.548753318887904 -16.652174862490924 17.056630570076415 #
straight-curve $-1 -77.548753318887904 -12.971758131836463 4.0239019363175785 0 -1 0 I I #
point $-1 -77.548753318887904 -16.652174862490924 4.0239019363175794 #
point $-1 -63.576047165906921 -29.925519721322352 3.6012277478605785 #
point $-1 -63.576047165906921 -21.961512806023499 3.6012277478605785 #
straight-curve $-1 77.548753318887904 -40.201859644008152 111.25325800458423 0 0 -1 I I #
straight-curve $-1 0 -40.201859644008152 17.056630570076415 1 0 0 I I #
point $-1 77.548753318887904 -40.201859644008152 4.3670918669203331 #
straight-curve $-1 77.548753318887904 -16.175433388724635 4.3670918669203402 0 1 0 I I #
point $-1 77.548753318887904 -40.201859644008152 17.056630570076415 #
point $-1 66.601346366151873 -35.715578005974507 6.0074095249127328 #
point $-1 66.601346366151873 -28.986155548924039 6.0074095249127328 #
point $-1 -77.548753318887904 -54.076806824221478 17.056630570076415 #
straight-curve $-1 0 -54.076806824221478 17.056630570076415 1 0 0 I I #
End-of-ACIS-data 