500 0 7 0           
7 Unknown 11 ACIS 5.0 NT 24 Fri Mar 26 15:35:31 1999 
-1 9.9999999999999995e-007 1e-010 
body $-1 $7 $-1 $8 #
body $-1 $9 $-1 $10 #
body $-1 $11 $-1 $12 #
body $-1 $13 $-1 $14 #
body $-1 $15 $-1 $16 #
body $-1 $17 $-1 $18 #
body $-1 $19 $-1 $20 #
lump $-1 $-1 $21 $0 #
transform $-1 1 0 0 0 1 0 0 0 1 48.415784173100988 27.483977070485537 7.8963486720470266 1 rotate no_reflect no_shear #
lump $-1 $-1 $22 $1 #
transform $-1 1 0 0 0 1 0 0 0 1 48.415784173100988 27.483977070485537 7.8963486720470266 1 rotate no_reflect no_shear #
lump $-1 $-1 $23 $2 #
transform $-1 1 0 0 0 1 0 0 0 1 48.415784173100988 27.483977070485537 7.8963486720470266 1 rotate no_reflect no_shear #
lump $-1 $-1 $24 $3 #
transform $-1 1 0 0 0 1 0 0 0 1 48.415784173100988 27.483977070485537 7.8963486720470266 1 rotate no_reflect no_shear #
lump $-1 $-1 $25 $4 #
transform $-1 1 0 0 0 1 0 0 0 1 48.415784173100988 27.483977070485537 7.8963486720470266 1 rotate no_reflect no_shear #
lump $-1 $-1 $26 $5 #
transform $-1 1 0 0 0 1 0 0 0 1 48.415784173100988 27.483977070485537 7.8963486720470266 1 rotate no_reflect no_shear #
lump $-1 $-1 $27 $6 #
transform $-1 1 0 0 0 1 0 0 0 1 48.415784173100988 27.483977070485537 7.8963486720470266 1 rotate no_reflect no_shear #
shell $-1 $-1 $-1 $28 $-1 $7 #
shell $-1 $-1 $-1 $29 $-1 $9 #
shell $-1 $-1 $-1 $30 $-1 $11 #
shell $-1 $-1 $-1 $31 $-1 $13 #
shell $-1 $-1 $-1 $32 $-1 $15 #
shell $-1 $-1 $-1 $33 $-1 $17 #
shell $-1 $-1 $-1 $34 $-1 $19 #
face $-1 $35 $36 $21 $-1 $37 forward single #
face $-1 $38 $39 $22 $-1 $40 reversed single #
face $-1 $41 $42 $23 $-1 $43 forward single #
face $-1 $44 $45 $24 $-1 $46 forward single #
face $-1 $47 $48 $25 $-1 $49 reversed single #
face $-1 $50 $51 $26 $-1 $52 forward single #
face $-1 $53 $54 $27 $-1 $55 forward single #
face $-1 $56 $57 $21 $-1 $58 reversed single #
loop $-1 $-1 $59 $28 #
plane-surface $-1 0 0 7.8963486720470266 0 0 1 1 0 0 forward_v I I I I #
face $-1 $60 $61 $22 $-1 $62 reversed single #
loop $-1 $-1 $63 $29 #
plane-surface $-1 -108.03125114682859 -14.506927374808335 77.790390585288876 0 -1 0 0.61566148304635926 0 -0.78801074757464917 forward_v I I I I #
face $-1 $64 $65 $23 $-1 $66 forward single #
loop $-1 $67 $68 $30 #
cone-surface $-1 -43.2952252056661 -23.776248586006336 3.3880127516873628 0.61566148304635926 0 -0.78801074757464917 0.78801074757464917 0 0.61566148304635926 1 I I 0 1 1 forward I I I I #
face $-1 $69 $70 $24 $-1 $71 forward single #
loop $-1 $72 $73 $31 #
cone-surface $-1 -43.2952252056661 -18.214655859287536 3.3880127516873628 0.61566148304635926 0 -0.78801074757464917 0.78801074757464917 0 0.61566148304635926 1 I I 0 1 1 forward I I I I #
face $-1 $74 $75 $25 $-1 $76 reversed single #
loop $-1 $-1 $77 $32 #
plane-surface $-1 57.968273493015488 -16.631836915456976 138.20881858609229 0 -1 0 -0.75470958851134928 0 -0.65605901945558964 forward_v I I I I #
face $-1 $78 $79 $26 $-1 $80 forward single #
loop $-1 $81 $82 $33 #
cone-surface $-1 45.025291507173741 -21.711982920490783 4.1800415012109147 -0.75470958851134928 0 -0.65605901945558964 0.65605901945558964 0 -0.75470958851134928 1 I I 0 1 1 forward I I I I #
face $-1 $83 $84 $27 $-1 $85 forward single #
loop $-1 $86 $87 $34 #
cone-surface $-1 45.025291507173741 -18.663895317470498 4.1800415012109147 -0.75470958851134928 0 -0.65605901945558964 0.65605901945558964 0 -0.75470958851134928 1 I I 0 1 1 forward I I I I #
face $-1 $88 $89 $21 $-1 $90 reversed single #
loop $-1 $-1 $91 $35 #
plane-surface $-1 0 0 -7.8963486720470266 0 0 1 1 0 0 forward_v I I I I #
coedge $-1 $92 $93 $94 $95 forward $36 $-1 #
face $-1 $96 $97 $22 $-1 $98 forward single #
loop $-1 $-1 $99 $38 #
plane-surface $-1 -48.415784173100988 -20.995452222646936 1.4860740239725203 -0.61566148304635926 0 0.78801074757464917 0.78801074757464917 0 0.61566148304635926 forward_v I I I I #
coedge $-1 $100 $101 $102 $103 reversed $39 $-1 #
face $-1 $-1 $104 $23 $-1 $105 forward single #
loop $-1 $106 $107 $41 #
cone-surface $-1 -41.969224111790226 -23.776248586006336 1.6908087815776272 0.61566148304635926 0 -0.78801074757464917 0.39400537378732459 0 0.30783074152317963 1 I I -0.70710678118654746 0.70710678118654746 0.5 forward I I I I #
loop $-1 $-1 $108 $30 #
coedge $-1 $68 $68 $109 $110 reversed $42 $-1 #
face $-1 $-1 $111 $24 $-1 $112 forward single #
loop $-1 $113 $114 $44 #
cone-surface $-1 -41.969224111790226 -18.214655859287536 1.6908087815776272 0.61566148304635926 0 -0.78801074757464917 0.39400537378732459 0 0.30783074152317963 1 I I -0.70710678118654746 0.70710678118654746 0.5 forward I I I I #
loop $-1 $-1 $115 $31 #
coedge $-1 $73 $73 $116 $117 reversed $45 $-1 #
face $-1 $118 $119 $25 $-1 $120 reversed single #
loop $-1 $-1 $121 $47 #
plane-surface $-1 -15.1114396084552 -20.187939118980644 74.681594804536104 0.75470958851134928 0 0.65605901945558964 0.65605901945558964 0 -0.75470958851134928 forward_v I I I I #
coedge $-1 $122 $123 $124 $125 reversed $48 $-1 #
face $-1 $-1 $126 $26 $-1 $127 forward single #
loop $-1 $128 $129 $50 #
cone-surface $-1 43.993292306061662 -21.711982920490783 3.2829383051378178 -0.75470958851134928 0 -0.65605901945558964 0.32802950972779482 0 -0.37735479425567464 1 I I -0.70710678118654746 0.70710678118654746 0.5 forward I I I I #
loop $-1 $-1 $130 $33 #
coedge $-1 $82 $82 $131 $132 reversed $51 $-1 #
face $-1 $-1 $133 $27 $-1 $134 forward single #
loop $-1 $135 $136 $53 #
cone-surface $-1 43.993292306061662 -18.663895317470498 3.2829383051378178 -0.75470958851134928 0 -0.65605901945558964 0.32802950972779482 0 -0.37735479425567464 1 I I -0.70710678118654746 0.70710678118654746 0.5 forward I I I I #
loop $-1 $-1 $137 $34 #
coedge $-1 $87 $87 $138 $139 reversed $54 $-1 #
face $-1 $140 $141 $21 $-1 $142 reversed single #
loop $-1 $-1 $143 $56 #
plane-surface $-1 0 -27.483977070485537 0 0 1 0 0 0 1 forward_v I I I I #
coedge $-1 $144 $145 $146 $147 forward $57 $-1 #
coedge $-1 $148 $59 $149 $150 forward $36 $-1 #
coedge $-1 $59 $148 $151 $152 forward $36 $-1 #
coedge $-1 $153 $154 $59 $95 reversed $155 $-1 #
edge $-1 $156 -27.483977070485537 $157 27.483977070485537 $94 $158 forward 7 unknown #
face $-1 $159 $160 $22 $-1 $161 reversed single #
loop $-1 $-1 $162 $60 #
plane-surface $-1 0 0 7.8963486720470266 0 0 1 1 0 0 forward_v I I I I #
coedge $-1 $163 $164 $165 $166 reversed $61 $-1 #
coedge $-1 $101 $63 $167 $168 reversed $39 $-1 #
coedge $-1 $63 $100 $163 $169 reversed $39 $-1 #
coedge $-1 $165 $170 $63 $103 forward $160 $-1 #
edge $-1 $171 30.998846620597412 $172 37.409121268671917 $102 $173 forward 7 unknown #
loop $-1 $-1 $109 $64 #
plane-surface $-1 -48.415784173100988 -20.995452222646936 1.4860740239725203 -0.61566148304635926 0 0.78801074757464917 0.78801074757464917 0 0.61566148304635926 forward_v I I I I #
loop $-1 $-1 $174 $41 #
coedge $-1 $107 $107 $108 $175 reversed $65 $-1 #
coedge $-1 $108 $108 $107 $175 forward $67 $-1 #
coedge $-1 $109 $109 $68 $110 forward $104 $-1 #
edge $-1 $176 0 $176 6.2831853071796004 $109 $177 forward 7 unknown #
loop $-1 $-1 $116 $69 #
plane-surface $-1 -48.415784173100988 -20.995452222646936 1.4860740239725203 -0.61566148304635926 0 0.78801074757464917 0.78801074757464917 0 0.61566148304635926 forward_v I I I I #
loop $-1 $-1 $178 $44 #
coedge $-1 $114 $114 $115 $179 reversed $70 $-1 #
coedge $-1 $115 $115 $114 $179 forward $72 $-1 #
coedge $-1 $116 $116 $73 $117 forward $111 $-1 #
edge $-1 $180 0 $180 6.2831853071796004 $116 $181 forward 7 unknown #
face $-1 $182 $183 $25 $-1 $184 reversed single #
loop $-1 $-1 $185 $74 #
plane-surface $-1 57.968273493015488 -23.744041322504312 138.20881858609229 0 1 0 0.75470958851134928 0 0.65605901945558964 forward_v I I I I #
coedge $-1 $186 $187 $188 $189 reversed $75 $-1 #
coedge $-1 $123 $77 $190 $191 reversed $48 $-1 #
coedge $-1 $77 $122 $186 $192 reversed $48 $-1 #
coedge $-1 $188 $193 $77 $125 forward $194 $-1 #
edge $-1 $195 -19.431647426593244 $196 -13.959950908451582 $124 $197 forward 7 unknown #
loop $-1 $-1 $131 $78 #
plane-surface $-1 -15.1114396084552 -20.187939118980644 74.681594804536104 0.75470958851134928 0 0.65605901945558964 0.65605901945558964 0 -0.75470958851134928 forward_v I I I I #
loop $-1 $-1 $198 $50 #
coedge $-1 $129 $129 $130 $199 reversed $79 $-1 #
coedge $-1 $130 $130 $129 $199 forward $81 $-1 #
coedge $-1 $131 $131 $82 $132 forward $126 $-1 #
edge $-1 $200 0 $200 6.2831853071796004 $131 $201 forward 7 unknown #
loop $-1 $-1 $138 $83 #
plane-surface $-1 -15.1114396084552 -20.187939118980644 74.681594804536104 0.75470958851134928 0 0.65605901945558964 0.65605901945558964 0 -0.75470958851134928 forward_v I I I I #
loop $-1 $-1 $202 $53 #
coedge $-1 $136 $136 $137 $203 reversed $84 $-1 #
coedge $-1 $137 $137 $136 $203 forward $86 $-1 #
coedge $-1 $138 $138 $87 $139 forward $133 $-1 #
edge $-1 $204 0 $204 6.2831853071796004 $138 $205 forward 7 unknown #
face $-1 $206 $207 $21 $-1 $208 reversed single #
loop $-1 $-1 $209 $88 #
plane-surface $-1 -48.415784173100988 0 0 1 0 0 0 0 -1 forward_v I I I I #
coedge $-1 $210 $151 $211 $212 forward $89 $-1 #
coedge $-1 $213 $91 $210 $214 forward $57 $-1 #
coedge $-1 $91 $213 $215 $216 forward $57 $-1 #
coedge $-1 $154 $153 $91 $147 reversed $155 $-1 #
edge $-1 $217 -27.483977070485537 $218 27.483977070485537 $146 $219 forward 7 unknown #
coedge $-1 $93 $92 $220 $221 forward $36 $-1 #
coedge $-1 $222 $223 $92 $150 reversed $207 $-1 #
edge $-1 $157 -48.415784173100988 $224 48.415784173100988 $149 $225 forward 7 unknown #
coedge $-1 $143 $226 $93 $152 reversed $89 $-1 #
edge $-1 $227 -48.415784173100988 $156 48.415784173100988 $151 $228 forward 7 unknown #
coedge $-1 $146 $94 $226 $229 forward $155 $-1 #
coedge $-1 $94 $146 $222 $230 reversed $155 $-1 #
loop $-1 $-1 $153 $206 #
vertex $-1 $95 $231 #
vertex $-1 $95 $232 #
straight-curve $-1 48.415784173100988 0 7.8963486720470266 0 1 0 I I #
face $-1 $-1 $233 $22 $-1 $234 reversed single #
loop $-1 $-1 $102 $96 #
plane-surface $-1 -48.415784173100988 0 0 1 0 0 0 0 -1 forward_v I I I I #
coedge $-1 $167 $235 $236 $237 forward $97 $-1 #
coedge $-1 $236 $99 $101 $169 forward $61 $-1 #
coedge $-1 $99 $236 $238 $239 reversed $61 $-1 #
coedge $-1 $240 $102 $99 $166 forward $160 $-1 #
edge $-1 $172 4.0092012634848668 $241 16.986250959162071 $165 $242 forward 7 unknown #
coedge $-1 $243 $162 $100 $168 forward $97 $-1 #
edge $-1 $244 -13.804618630477705 $171 -5.5998414003133092 $167 $245 forward 7 unknown #
edge $-1 $172 0 $244 10.412011835393333 $101 $246 forward 7 unknown #
coedge $-1 $102 $240 $243 $247 reversed $160 $-1 #
vertex $-1 $247 $248 #
vertex $-1 $103 $249 #
straight-curve $-1 -48.415784173100988 -14.506927374808335 38.895195292644438 0 0 -1 I I #
coedge $-1 $174 $174 $-1 $250 reversed $106 $-1 #
edge $-1 $251 0 $251 6.2831853071796004 $107 $252 forward 7 unknown #
vertex $-1 $110 $253 #
ellipse-curve $-1 -44.31339555801879 -23.776248586006336 4.6912113480097721 -0.61566148304635926 0 0.78801074757464917 0.78801074757464917 0 0.61566148304635926 1 I I #
coedge $-1 $178 $178 $-1 $254 reversed $113 $-1 #
edge $-1 $255 0 $255 6.2831853071796004 $114 $256 forward 7 unknown #
vertex $-1 $117 $257 #
ellipse-curve $-1 -44.31339555801879 -18.214655859287536 4.6912113480097721 -0.61566148304635926 0 0.78801074757464917 0.78801074757464917 0 0.61566148304635926 1 I I #
face $-1 $-1 $194 $25 $-1 $258 forward single #
loop $-1 $-1 $259 $118 #
plane-surface $-1 48.415784173100988 0 0 -1 0 0 0 0 1 forward_v I I I I #
coedge $-1 $260 $261 $262 $263 reversed $119 $-1 #
coedge $-1 $264 $121 $123 $192 forward $75 $-1 #
coedge $-1 $121 $264 $260 $265 forward $75 $-1 #
coedge $-1 $262 $124 $121 $189 forward $194 $-1 #
edge $-1 $196 6.5378673559666538 $266 13.65007176301399 $188 $267 forward 7 unknown #
coedge $-1 $268 $269 $122 $191 forward $183 $-1 #
edge $-1 $270 -67.502527589980744 $195 -61.20806062099912 $190 $271 forward 7 unknown #
edge $-1 $196 88.491317917693024 $270 96.831568346202019 $123 $272 forward 7 unknown #
coedge $-1 $124 $262 $268 $273 forward $194 $-1 #
loop $-1 $-1 $262 $182 #
vertex $-1 $191 $274 #
vertex $-1 $125 $275 #
straight-curve $-1 28.984136746507744 -16.631836915456976 7.8963486720470257 -1 0 0 I I #
coedge $-1 $198 $198 $-1 $276 reversed $128 $-1 #
edge $-1 $277 0 $277 6.2831853071796004 $129 $278 forward 7 unknown #
vertex $-1 $132 $279 #
ellipse-curve $-1 45.679935914030153 -21.711982920490783 4.7491151875562236 0.75470958851134928 0 0.65605901945558964 0.65605901945558964 0 -0.75470958851134928 1 I I #
coedge $-1 $202 $202 $-1 $280 reversed $135 $-1 #
edge $-1 $281 0 $281 6.2831853071796004 $136 $282 forward 7 unknown #
vertex $-1 $139 $283 #
ellipse-curve $-1 45.679935914030153 -18.663895317470498 4.7491151875562236 0.75470958851134928 0 0.65605901945558964 0.65605901945558964 0 -0.75470958851134928 1 I I #
face $-1 $-1 $155 $21 $-1 $284 reversed single #
loop $-1 $-1 $222 $140 #
plane-surface $-1 0 27.483977070485537 0 0 -1 0 0 0 -1 forward_v I I I I #
coedge $-1 $285 $220 $223 $286 forward $141 $-1 #
coedge $-1 $226 $143 $144 $214 reversed $89 $-1 #
coedge $-1 $220 $285 $143 $212 reversed $141 $-1 #
edge $-1 $227 -7.8963486720470266 $287 7.8963486720470266 $211 $288 forward 7 unknown #
coedge $-1 $145 $144 $285 $289 forward $57 $-1 #
edge $-1 $218 -48.415784173100988 $287 48.415784173100988 $210 $290 forward 7 unknown #
coedge $-1 $223 $222 $145 $216 reversed $207 $-1 #
edge $-1 $291 -48.415784173100988 $217 48.415784173100988 $215 $292 forward 7 unknown #
vertex $-1 $147 $293 #
vertex $-1 $229 $294 #
straight-curve $-1 48.415784173100988 0 -7.8963486720470266 0 -1 0 I I #
coedge $-1 $209 $211 $148 $221 reversed $141 $-1 #
edge $-1 $224 -27.483977070485537 $227 27.483977070485537 $220 $295 forward 7 unknown #
coedge $-1 $215 $149 $154 $230 forward $207 $-1 #
coedge $-1 $149 $215 $209 $286 reversed $207 $-1 #
vertex $-1 $150 $296 #
straight-curve $-1 0 27.483977070485537 7.8963486720470266 -1 0 0 I I #
coedge $-1 $151 $210 $153 $229 reversed $89 $-1 #
vertex $-1 $221 $297 #
straight-curve $-1 0 -27.483977070485537 7.8963486720470266 1 0 0 I I #
edge $-1 $156 -7.8963486720470266 $218 7.8963486720470266 $153 $298 forward 7 unknown #
edge $-1 $157 -7.8963486720470266 $217 7.8963486720470266 $154 $299 forward 7 unknown #
point $-1 48.415784173100988 -27.483977070485537 7.8963486720470266 #
point $-1 48.415784173100988 27.483977070485537 7.8963486720470266 #
loop $-1 $-1 $238 $159 #
plane-surface $-1 0 -27.483977070485537 0 0 1 0 0 0 1 forward_v I I I I #
coedge $-1 $162 $243 $300 $301 forward $97 $-1 #
coedge $-1 $164 $163 $162 $237 reversed $61 $-1 #
edge $-1 $302 -16.986250959162071 $244 -4.0092012634848668 $162 $303 forward 7 unknown #
coedge $-1 $300 $304 $164 $239 forward $233 $-1 #
edge $-1 $241 -18.618619871571298 $302 -8.2066080361779612 $238 $305 forward 7 unknown #
coedge $-1 $170 $165 $304 $306 reversed $160 $-1 #
vertex $-1 $166 $307 #
straight-curve $-1 -48.415784173100988 -10.497726111323468 1.4860740239725199 0 -1 0 I I #
coedge $-1 $235 $167 $170 $247 forward $97 $-1 #
vertex $-1 $168 $308 #
straight-curve $-1 -54.015625573414297 -14.506927374808335 7.8963486720470257 -1 0 0 I I #
straight-curve $-1 -48.415784173100988 -14.506927374808335 1.4860740239725203 0.78801074757464917 0 0.61566148304635926 I I #
edge $-1 $171 14.506927374808335 $309 27.483977070485537 $170 $310 forward 7 unknown #
point $-1 -48.415784173100988 -14.506927374808335 7.8963486720470266 #
point $-1 -48.415784173100988 -14.506927374808335 1.4860740239725203 #
edge $-1 $311 1 $311 0 $174 $-1 forward 7 unknown #
vertex $-1 $175 $312 #
ellipse-curve $-1 -42.277054853313402 -23.776248586006336 2.0848141553649517 -0.61566148304635926 0 0.78801074757464917 0.78801074757464917 0 0.61566148304635926 1 I I #
point $-1 -43.525384810444145 -23.776248586006336 5.3068728310561335 #
edge $-1 $313 1 $313 0 $178 $-1 forward 7 unknown #
vertex $-1 $179 $314 #
ellipse-curve $-1 -42.277054853313402 -18.214655859287536 2.0848141553649517 -0.61566148304635926 0 0.78801074757464917 0.78801074757464917 0 0.61566148304635926 1 I I #
point $-1 -43.525384810444145 -18.214655859287536 5.3068728310561335 #
plane-surface $-1 0 0 7.8963486720470266 0 0 1 1 0 0 forward_v I I I I #
coedge $-1 $269 $268 $261 $315 forward $183 $-1 #
coedge $-1 $261 $185 $187 $265 reversed $119 $-1 #
coedge $-1 $185 $260 $259 $315 reversed $119 $-1 #
coedge $-1 $193 $188 $185 $263 forward $194 $-1 #
edge $-1 $266 13.959950908451582 $316 19.431647426593244 $262 $317 forward 7 unknown #
coedge $-1 $187 $186 $269 $318 reversed $75 $-1 #
edge $-1 $319 -96.831568346202019 $266 -88.491317917693024 $260 $320 forward 7 unknown #
vertex $-1 $189 $321 #
straight-curve $-1 42.944087654959318 -10.093969559490322 7.8963486720470257 0 -1 0 I I #
coedge $-1 $259 $190 $193 $273 reversed $183 $-1 #
coedge $-1 $190 $259 $264 $318 forward $183 $-1 #
vertex $-1 $191 $322 #
straight-curve $-1 48.415784173100988 -16.631836915456976 69.104409293046146 0 0 1 I I #
straight-curve $-1 -15.1114396084552 -16.631836915456976 74.681594804536104 0.65605901945558964 0 -0.75470958851134928 I I #
edge $-1 $316 -23.744041322504312 $195 -16.631836915456976 $268 $323 forward 7 unknown #
point $-1 48.415784173100988 -16.631836915456976 7.8963486720470266 #
point $-1 42.944087654959326 -16.631836915456976 7.8963486720470257 #
edge $-1 $324 1 $324 0 $198 $-1 forward 7 unknown #
vertex $-1 $199 $325 #
ellipse-curve $-1 44.370647100317335 -21.711982920490783 3.6109678148656128 0.75470958851134928 0 0.65605901945558964 0.65605901945558964 0 -0.75470958851134928 1 I I #
point $-1 46.335994933485736 -21.711982920490783 3.9944055990448666 #
edge $-1 $326 1 $326 0 $202 $-1 forward 7 unknown #
vertex $-1 $203 $327 #
ellipse-curve $-1 44.370647100317335 -18.663895317470498 3.6109678148656128 0.75470958851134928 0 0.65605901945558964 0.65605901945558964 0 -0.75470958851134928 1 I I #
point $-1 46.335994933485736 -18.663895317470498 3.9944055990448666 #
plane-surface $-1 48.415784173100988 0 0 -1 0 0 0 0 1 forward_v I I I I #
coedge $-1 $211 $209 $213 $289 reversed $141 $-1 #
edge $-1 $224 -7.8963486720470266 $291 7.8963486720470266 $223 $328 forward 7 unknown #
vertex $-1 $289 $329 #
straight-curve $-1 -48.415784173100988 -27.483977070485537 0 0 0 -1 I I #
edge $-1 $287 -27.483977070485537 $291 27.483977070485537 $285 $330 forward 7 unknown #
straight-curve $-1 0 -27.483977070485537 -7.8963486720470266 -1 0 0 I I #
vertex $-1 $216 $331 #
straight-curve $-1 0 27.483977070485537 -7.8963486720470266 1 0 0 I I #
point $-1 48.415784173100988 27.483977070485537 -7.8963486720470266 #
point $-1 48.415784173100988 -27.483977070485537 -7.8963486720470266 #
straight-curve $-1 -48.415784173100988 0 7.8963486720470266 0 -1 0 I I #
point $-1 -48.415784173100988 27.483977070485537 7.8963486720470266 #
point $-1 -48.415784173100988 -27.483977070485537 7.8963486720470266 #
straight-curve $-1 48.415784173100988 -27.483977070485537 0 0 0 -1 I I #
straight-curve $-1 48.415784173100988 27.483977070485537 0 0 0 -1 I I #
coedge $-1 $304 $238 $235 $301 reversed $233 $-1 #
edge $-1 $309 -48.415784173100988 $302 -40.211006942936592 $300 $332 forward 7 unknown #
vertex $-1 $239 $333 #
straight-curve $-1 -40.211006942936592 -10.497726111323468 7.8963486720470275 0 1 0 I I #
coedge $-1 $238 $300 $240 $306 forward $233 $-1 #
straight-curve $-1 -33.744111609295871 -27.483977070485537 12.948841146380516 0.78801074757464917 0 0.61566148304635926 I I #
edge $-1 $309 -7.8963486720470266 $241 -1.4860740239725203 $240 $334 forward 7 unknown #
point $-1 -48.415784173100988 -27.483977070485537 1.4860740239725203 #
point $-1 -40.211006942936592 -14.506927374808335 7.8963486720470266 #
vertex $-1 $247 $335 #
straight-curve $-1 -48.415784173100988 0 7.8963486720470266 0 -1 0 I I #
vertex $-1 $250 $336 #
point $-1 -41.489044105738756 -23.776248586006336 2.7004756384113109 #
vertex $-1 $254 $337 #
point $-1 -41.489044105738756 -18.214655859287536 2.7004756384113109 #
edge $-1 $316 61.20806062099912 $319 67.502527589980744 $259 $338 forward 7 unknown #
vertex $-1 $273 $339 #
straight-curve $-1 28.984136746507744 -23.744041322504312 7.8963486720470257 1 0 0 I I #
edge $-1 $319 -13.65007176301399 $270 -6.5378673559666538 $269 $340 forward 7 unknown #
vertex $-1 $318 $341 #
straight-curve $-1 -15.1114396084552 -23.744041322504312 74.681594804536104 -0.65605901945558964 0 0.75470958851134928 I I #
point $-1 42.944087654959326 -23.744041322504312 7.8963486720470257 #
point $-1 48.415784173100988 -16.631836915456976 1.601881703065402 #
straight-curve $-1 48.415784173100988 0 7.8963486720470266 0 1 0 I I #
vertex $-1 $276 $342 #
point $-1 45.026706119772925 -21.711982920490783 2.8562582263542633 #
vertex $-1 $280 $343 #
point $-1 45.026706119772925 -18.663895317470498 2.8562582263542633 #
straight-curve $-1 -48.415784173100988 27.483977070485537 0 0 0 -1 I I #
point $-1 -48.415784173100988 -27.483977070485537 -7.8963486720470266 #
straight-curve $-1 -48.415784173100988 0 -7.8963486720470266 0 1 0 I I #
point $-1 -48.415784173100988 27.483977070485537 -7.8963486720470266 #
straight-curve $-1 0 -27.483977070485537 7.8963486720470266 1 0 0 I I #
point $-1 -40.211006942936592 -27.483977070485537 7.8963486720470266 #
straight-curve $-1 -48.415784173100988 -27.483977070485537 0 0 0 -1 I I #
point $-1 -48.415784173100988 -27.483977070485537 7.8963486720470266 #
point $-1 -41.661393370267049 -23.776248586006336 1.2968034077903026 #
point $-1 -41.661393370267049 -18.214655859287536 1.2968034077903026 #
straight-curve $-1 48.415784173100988 -23.744041322504312 69.104409293046146 0 0 -1 I I #
point $-1 48.415784173100988 -23.744041322504312 7.8963486720470266 #
straight-curve $-1 48.415784173100988 -10.093969559490322 1.6018817030653949 0 1 0 I I #
point $-1 48.415784173100988 -23.744041322504312 1.601881703065402 #
point $-1 43.615937511805988 -21.711982920490783 2.9549087954100228 #
point $-1 43.615937511805988 -18.663895317470498 2.9549087954100228 #
End-of-ACIS-data 