500 0 9 0           
7 Unknown 11 ACIS 5.0 NT 24 Thu Mar 25 17:16:17 1999 
-1 9.9999999999999995e-007 1e-010 
body $-1 $9 $-1 $10 #
body $-1 $11 $-1 $12 #
body $-1 $13 $-1 $14 #
body $-1 $15 $-1 $16 #
body $-1 $17 $-1 $18 #
body $-1 $19 $-1 $20 #
body $-1 $21 $-1 $22 #
body $-1 $23 $-1 $24 #
body $-1 $25 $-1 $26 #
lump $-1 $-1 $27 $0 #
transform $-1 1 0 0 0 1 0 0 0 1 78.071230201116975 46.688582763328583 18.958981430472654 1 rotate no_reflect no_shear #
lump $-1 $-1 $28 $1 #
transform $-1 1 0 0 0 1 0 0 0 1 78.071230201116975 46.688582763328583 18.958981430472654 1 rotate no_reflect no_shear #
lump $-1 $-1 $29 $2 #
transform $-1 1 0 0 0 1 0 0 0 1 78.071230201116975 46.688582763328583 18.958981430472654 1 rotate no_reflect no_shear #
lump $-1 $-1 $30 $3 #
transform $-1 1 0 0 0 1 0 0 0 1 78.071230201116975 46.688582763328583 18.958981430472654 1 rotate no_reflect no_shear #
lump $-1 $-1 $31 $4 #
transform $-1 1 0 0 0 1 0 0 0 1 78.071230201116975 46.688582763328583 18.958981430472654 1 rotate no_reflect no_shear #
lump $-1 $-1 $32 $5 #
transform $-1 1 0 0 0 1 0 0 0 1 78.071230201116975 46.688582763328583 18.958981430472654 1 rotate no_reflect no_shear #
lump $-1 $-1 $33 $6 #
transform $-1 1 0 0 0 1 0 0 0 1 78.071230201116975 46.688582763328583 18.958981430472654 1 rotate no_reflect no_shear #
lump $-1 $-1 $34 $7 #
transform $-1 1 0 0 0 1 0 0 0 1 78.071230201116975 46.688582763328583 18.958981430472654 1 rotate no_reflect no_shear #
lump $-1 $-1 $35 $8 #
transform $-1 1 0 0 0 1 0 0 0 1 78.071230201116975 46.688582763328583 18.958981430472654 1 rotate no_reflect no_shear #
shell $-1 $-1 $-1 $36 $-1 $9 #
shell $-1 $-1 $-1 $37 $-1 $11 #
shell $-1 $-1 $-1 $38 $-1 $13 #
shell $-1 $-1 $-1 $39 $-1 $15 #
shell $-1 $-1 $-1 $40 $-1 $17 #
shell $-1 $-1 $-1 $41 $-1 $19 #
shell $-1 $-1 $-1 $42 $-1 $21 #
shell $-1 $-1 $-1 $43 $-1 $23 #
shell $-1 $-1 $-1 $44 $-1 $25 #
face $-1 $45 $46 $27 $-1 $47 reversed single #
face $-1 $48 $49 $28 $-1 $50 forward single #
face $-1 $51 $52 $29 $-1 $53 reversed single #
face $-1 $54 $55 $30 $-1 $56 forward single #
face $-1 $57 $58 $31 $-1 $59 reversed single #
face $-1 $60 $61 $32 $-1 $62 forward single #
face $-1 $63 $64 $33 $-1 $65 reversed single #
face $-1 $66 $67 $34 $-1 $68 forward single #
face $-1 $69 $70 $35 $-1 $71 forward single #
face $-1 $72 $73 $27 $-1 $74 forward single #
loop $-1 $-1 $75 $36 #
plane-surface $-1 0 -46.688582763328583 0 0 1 0 0 0 1 forward_v I I I I #
face $-1 $76 $77 $28 $-1 $78 reversed single #
loop $-1 $-1 $79 $37 #
plane-surface $-1 0 -46.688582763328583 0 0 1 0 0 0 1 forward_v I I I I #
face $-1 $80 $81 $29 $-1 $82 reversed single #
loop $-1 $-1 $83 $38 #
plane-surface $-1 -201.11316938155383 -22.980766374554435 109.35609751110681 0 1 0 -0.78801076186113728 0 0.61566146476048833 forward_v I I I I #
face $-1 $84 $85 $30 $-1 $86 forward single #
loop $-1 $87 $88 $39 #
cone-surface $-1 -75.0592319119378 -14.056441475070855 15.488830851118838 0.78801076186113728 0 -0.61566146476048833 0.30783073238024417 0 0.39400538093056864 1 I I 0 1 0.5 forward I I I I #
face $-1 $89 $90 $31 $-1 $91 reversed single #
loop $-1 $-1 $92 $40 #
plane-surface $-1 -201.11316938155383 15.502066965101619 109.35609751110681 0 1 0 -0.78801076186113728 0 0.61566146476048833 forward_v I I I I #
face $-1 $93 $94 $32 $-1 $95 forward single #
loop $-1 $96 $97 $41 #
cone-surface $-1 -75.0592319119378 24.426391864585199 15.488830851118838 0.78801076186113728 0 -0.61566146476048833 0.30783073238024417 0 0.39400538093056864 1 I I 0 1 0.5 forward I I I I #
face $-1 $98 $99 $33 $-1 $100 reversed single #
loop $-1 $-1 $101 $42 #
plane-surface $-1 66.514470311178798 1.4294370545219373 231.87646972194517 0 -1 0 -0.66913061440640931 0 -0.74314481823134659 forward_v I I I I #
face $-1 $102 $103 $34 $-1 $104 forward single #
loop $-1 $105 $106 $43 #
cone-surface $-1 72.851691199007689 -8.7625098820043021 14.049089659862117 -0.66913061440640931 0 -0.74314481823134659 1.4862896364626932 0 -1.3382612288128186 1 I I 0 1 2 forward I I I I #
face $-1 $107 $108 $35 $-1 $109 forward single #
loop $-1 $110 $111 $44 #
cone-surface $-1 72.851691199007689 -2.6473417200885621 14.049089659862117 -0.66913061440640931 0 -0.74314481823134659 1.4862896364626932 0 -1.3382612288128186 1 I I 0 1 2 forward I I I I #
face $-1 $112 $113 $27 $-1 $114 reversed single #
loop $-1 $-1 $115 $45 #
plane-surface $-1 0 0 18.958981430472654 0 0 1 1 0 0 forward_v I I I I #
coedge $-1 $116 $117 $118 $119 reversed $46 $-1 #
face $-1 $120 $121 $28 $-1 $122 reversed single #
loop $-1 $-1 $123 $48 #
plane-surface $-1 0 0 -18.958981430472654 0 0 1 1 0 0 forward_v I I I I #
coedge $-1 $124 $125 $126 $127 forward $49 $-1 #
face $-1 $128 $129 $29 $-1 $130 reversed single #
loop $-1 $-1 $131 $51 #
plane-surface $-1 -78.07123020111699 -14.056441475070855 13.22520162856091 -0.78801076186113728 0 0.61566146476048833 0.61566146476048833 0 0.78801076186113728 forward_v I I I I #
coedge $-1 $132 $133 $134 $135 reversed $52 $-1 #
face $-1 $-1 $136 $30 $-1 $137 forward single #
loop $-1 $138 $139 $54 #
cone-surface $-1 -74.090090742787396 -14.056441475070855 14.731654806530784 0.78801076186113728 0 -0.61566146476048833 0.15391536619012208 0 0.19700269046528432 1 I I -0.70710678118654746 0.70710678118654746 0.25 forward I I I I #
loop $-1 $-1 $140 $39 #
coedge $-1 $88 $88 $141 $142 reversed $55 $-1 #
face $-1 $143 $144 $31 $-1 $145 reversed single #
loop $-1 $-1 $146 $57 #
plane-surface $-1 -78.07123020111699 24.426391864585199 13.22520162856091 -0.78801076186113728 0 0.61566146476048833 0.61566146476048833 0 0.78801076186113728 forward_v I I I I #
coedge $-1 $147 $148 $149 $150 reversed $58 $-1 #
face $-1 $-1 $151 $32 $-1 $152 forward single #
loop $-1 $153 $154 $60 #
cone-surface $-1 -74.090090742787396 24.426391864585199 14.731654806530784 0.78801076186113728 0 -0.61566146476048833 0.15391536619012208 0 0.19700269046528432 1 I I -0.70710678118654746 0.70710678118654746 0.25 forward I I I I #
loop $-1 $-1 $155 $41 #
coedge $-1 $97 $97 $156 $157 reversed $61 $-1 #
face $-1 $158 $159 $33 $-1 $160 reversed single #
loop $-1 $-1 $161 $63 #
plane-surface $-1 -37.965230152696435 -5.7049258010464285 115.84000936813179 0.66913061440640931 0 0.74314481823134659 0.74314481823134659 0 -0.66913061440640931 forward_v I I I I #
coedge $-1 $162 $163 $164 $165 reversed $64 $-1 #
face $-1 $-1 $166 $34 $-1 $167 forward single #
loop $-1 $168 $169 $66 #
cone-surface $-1 71.182611892452513 -8.7625098820043021 12.195389334128272 -0.66913061440640931 0 -0.74314481823134659 0.74314481823134659 0 -0.66913061440640931 1 I I -0.70710678118654746 0.70710678118654746 1 forward I I I I #
loop $-1 $-1 $170 $43 #
coedge $-1 $106 $106 $171 $172 reversed $67 $-1 #
face $-1 $-1 $173 $35 $-1 $174 forward single #
loop $-1 $175 $176 $69 #
cone-surface $-1 71.182611892452513 -2.6473417200885621 12.195389334128272 -0.66913061440640931 0 -0.74314481823134659 0.74314481823134659 0 -0.66913061440640931 1 I I -0.70710678118654746 0.70710678118654746 1 forward I I I I #
loop $-1 $-1 $177 $44 #
coedge $-1 $111 $111 $178 $179 reversed $70 $-1 #
face $-1 $180 $181 $27 $-1 $182 reversed single #
loop $-1 $-1 $183 $72 #
plane-surface $-1 0 0 -18.958981430472654 0 0 1 1 0 0 forward_v I I I I #
coedge $-1 $184 $185 $186 $187 forward $73 $-1 #
coedge $-1 $188 $75 $189 $190 reversed $46 $-1 #
coedge $-1 $75 $188 $191 $192 forward $46 $-1 #
coedge $-1 $193 $183 $75 $119 forward $113 $-1 #
edge $-1 $194 -78.071230201116975 $195 78.071230201116975 $75 $196 forward 7 unknown #
face $-1 $197 $198 $28 $-1 $199 reversed single #
loop $-1 $-1 $200 $76 #
plane-surface $-1 -44.73606748727267 -63.100081610673641 0 0 1 0 0 0 1 forward_v I I I I #
coedge $-1 $201 $202 $125 $203 forward $77 $-1 #
coedge $-1 $204 $79 $205 $206 reversed $49 $-1 #
coedge $-1 $79 $204 $123 $203 reversed $49 $-1 #
coedge $-1 $207 $208 $79 $127 reversed $198 $-1 #
edge $-1 $209 -18.958981430472654 $210 18.958981430472654 $126 $211 forward 7 unknown #
face $-1 $212 $213 $29 $-1 $214 reversed single #
loop $-1 $-1 $215 $80 #
plane-surface $-1 -201.11316938155383 -5.1321165755872755 109.35609751110681 0 -1 0 0.78801076186113728 0 -0.61566146476048833 forward_v I I I I #
coedge $-1 $216 $217 $218 $219 reversed $81 $-1 #
coedge $-1 $133 $83 $220 $221 reversed $52 $-1 #
coedge $-1 $83 $132 $216 $222 reversed $52 $-1 #
coedge $-1 $218 $223 $83 $135 forward $224 $-1 #
edge $-1 $225 22.48535448965994 $226 26.96507411064799 $134 $227 forward 7 unknown #
loop $-1 $-1 $141 $84 #
plane-surface $-1 -78.07123020111699 -14.056441475070855 13.22520162856091 -0.78801076186113728 0 0.61566146476048833 0.61566146476048833 0 0.78801076186113728 forward_v I I I I #
loop $-1 $-1 $228 $54 #
coedge $-1 $139 $139 $140 $229 reversed $85 $-1 #
coedge $-1 $140 $140 $139 $229 forward $87 $-1 #
coedge $-1 $141 $141 $88 $142 forward $136 $-1 #
edge $-1 $230 0 $230 6.2831853071796004 $141 $231 forward 7 unknown #
face $-1 $232 $233 $31 $-1 $234 forward single #
loop $-1 $-1 $235 $89 #
plane-surface $-1 -201.11316938155383 33.350716764068778 109.35609751110681 0 -1 0 0.78801076186113728 0 -0.61566146476048833 forward_v I I I I #
coedge $-1 $236 $237 $238 $239 reversed $90 $-1 #
coedge $-1 $148 $92 $240 $241 reversed $58 $-1 #
coedge $-1 $92 $147 $236 $242 reversed $58 $-1 #
coedge $-1 $238 $243 $92 $150 forward $233 $-1 #
edge $-1 $244 22.48535448965994 $245 26.96507411064799 $149 $246 forward 7 unknown #
loop $-1 $-1 $156 $93 #
plane-surface $-1 -78.07123020111699 24.426391864585199 13.22520162856091 -0.78801076186113728 0 0.61566146476048833 0.61566146476048833 0 0.78801076186113728 forward_v I I I I #
loop $-1 $-1 $247 $60 #
coedge $-1 $154 $154 $155 $248 reversed $94 $-1 #
coedge $-1 $155 $155 $154 $248 forward $96 $-1 #
coedge $-1 $156 $156 $97 $157 forward $151 $-1 #
edge $-1 $249 0 $249 6.2831853071796004 $156 $250 forward 7 unknown #
face $-1 $251 $252 $33 $-1 $253 forward single #
loop $-1 $-1 $254 $98 #
plane-surface $-1 66.514470311178798 -12.839288656614794 231.87646972194517 0 1 0 0.66913061440640931 0 0.74314481823134659 forward_v I I I I #
coedge $-1 $255 $256 $257 $258 reversed $99 $-1 #
coedge $-1 $163 $101 $259 $260 reversed $64 $-1 #
coedge $-1 $101 $162 $255 $261 reversed $64 $-1 #
coedge $-1 $257 $262 $101 $165 forward $252 $-1 #
edge $-1 $263 -44.813995045527577 $264 -36.374814425606559 $164 $265 forward 7 unknown #
loop $-1 $-1 $171 $102 #
plane-surface $-1 -37.965230152696435 -5.7049258010464285 115.84000936813179 0.66913061440640931 0 0.74314481823134659 0.74314481823134659 0 -0.66913061440640931 forward_v I I I I #
loop $-1 $-1 $266 $66 #
coedge $-1 $169 $169 $170 $267 reversed $103 $-1 #
coedge $-1 $170 $170 $169 $267 forward $105 $-1 #
coedge $-1 $171 $171 $106 $172 forward $166 $-1 #
edge $-1 $268 0 $268 6.2831853071796004 $171 $269 forward 7 unknown #
loop $-1 $-1 $178 $107 #
plane-surface $-1 -37.965230152696435 -5.7049258010464285 115.84000936813179 0.66913061440640931 0 0.74314481823134659 0.74314481823134659 0 -0.66913061440640931 forward_v I I I I #
loop $-1 $-1 $270 $69 #
coedge $-1 $176 $176 $177 $271 reversed $108 $-1 #
coedge $-1 $177 $177 $176 $271 forward $110 $-1 #
coedge $-1 $178 $178 $111 $179 forward $173 $-1 #
edge $-1 $272 0 $272 6.2831853071796004 $178 $273 forward 7 unknown #
face $-1 $274 $275 $27 $-1 $276 reversed single #
loop $-1 $-1 $277 $112 #
plane-surface $-1 -78.071230201116975 0 0 1 0 0 0 0 -1 forward_v I I I I #
coedge $-1 $118 $278 $279 $280 forward $113 $-1 #
coedge $-1 $281 $115 $282 $283 forward $73 $-1 #
coedge $-1 $115 $281 $188 $284 forward $73 $-1 #
coedge $-1 $189 $285 $115 $187 reversed $286 $-1 #
edge $-1 $287 -46.688582763328583 $288 46.688582763328583 $186 $289 forward 7 unknown #
coedge $-1 $117 $116 $185 $284 reversed $46 $-1 #
coedge $-1 $279 $186 $116 $190 forward $286 $-1 #
edge $-1 $287 -18.958981430472654 $194 18.958981430472654 $189 $290 forward 7 unknown #
coedge $-1 $291 $292 $117 $192 reversed $181 $-1 #
edge $-1 $293 -18.958981430472654 $195 18.958981430472654 $191 $294 forward 7 unknown #
coedge $-1 $278 $118 $292 $295 forward $113 $-1 #
vertex $-1 $190 $296 #
vertex $-1 $295 $297 #
straight-curve $-1 0 -46.688582763328583 -18.958981430472654 -1 0 0 I I #
face $-1 $298 $299 $28 $-1 $300 reversed single #
loop $-1 $-1 $126 $120 #
plane-surface $-1 -49.318867634373674 -54.894332187001112 0 1 0 0 0 0 -1 forward_v I I I I #
coedge $-1 $301 $302 $303 $304 forward $121 $-1 #
coedge $-1 $305 $123 $306 $307 forward $77 $-1 #
coedge $-1 $123 $305 $207 $308 forward $77 $-1 #
edge $-1 $209 -49.318867634373674 $309 -40.153267340171666 $123 $310 forward 7 unknown #
coedge $-1 $125 $124 $311 $312 forward $49 $-1 #
coedge $-1 $313 $314 $124 $206 forward $315 $-1 #
edge $-1 $316 40.153267340171666 $210 49.318867634373674 $205 $317 forward 7 unknown #
coedge $-1 $303 $126 $202 $308 reversed $198 $-1 #
coedge $-1 $126 $303 $313 $318 reversed $198 $-1 #
vertex $-1 $203 $319 #
vertex $-1 $318 $320 #
straight-curve $-1 -49.318867634373674 -46.688582763328583 0 0 0 1 I I #
face $-1 $-1 $224 $29 $-1 $321 forward single #
loop $-1 $-1 $322 $128 #
plane-surface $-1 -78.071230201116975 0 0 1 0 0 0 0 -1 forward_v I I I I #
coedge $-1 $323 $324 $325 $326 reversed $129 $-1 #
coedge $-1 $327 $131 $133 $222 forward $81 $-1 #
coedge $-1 $131 $327 $323 $328 forward $81 $-1 #
coedge $-1 $325 $134 $131 $219 forward $224 $-1 #
edge $-1 $226 -15.952545637019007 $329 1.896104161948152 $218 $330 forward 7 unknown #
coedge $-1 $331 $332 $132 $221 forward $213 $-1 #
edge $-1 $333 -41.452847126992481 $225 -35.719067325080751 $220 $334 forward 7 unknown #
edge $-1 $226 -7.2762709336222855 $333 -2.274695869299009e-014 $133 $335 forward 7 unknown #
coedge $-1 $134 $325 $331 $336 forward $224 $-1 #
loop $-1 $-1 $325 $212 #
vertex $-1 $221 $337 #
vertex $-1 $135 $338 #
straight-curve $-1 -100.55658469077692 -22.980766374554435 18.958981430472654 1 0 0 I I #
coedge $-1 $228 $228 $-1 $339 reversed $138 $-1 #
edge $-1 $340 0 $340 6.2831853071796004 $139 $341 forward 7 unknown #
vertex $-1 $142 $342 #
ellipse-curve $-1 -75.831370390622951 -14.056441475070855 16.092091529516789 -0.78801076186113728 0 0.61566146476048833 0.30783073238024417 0 0.39400538093056864 1 I I #
face $-1 $-1 $343 $31 $-1 $344 reversed single #
loop $-1 $-1 $149 $143 #
plane-surface $-1 0 0 18.958981430472654 0 0 1 1 0 0 forward_v I I I I #
coedge $-1 $345 $346 $347 $348 reversed $144 $-1 #
coedge $-1 $349 $146 $148 $242 forward $90 $-1 #
coedge $-1 $146 $349 $345 $350 forward $90 $-1 #
coedge $-1 $347 $149 $146 $239 forward $233 $-1 #
edge $-1 $245 3.2888710328090198 $351 21.137520831776179 $238 $352 forward 7 unknown #
coedge $-1 $353 $354 $147 $241 forward $343 $-1 #
edge $-1 $355 -41.452847126992481 $244 -35.719067325080751 $240 $356 forward 7 unknown #
edge $-1 $245 -7.2762709336222855 $355 -2.274695869299009e-014 $148 $357 forward 7 unknown #
coedge $-1 $149 $347 $353 $358 forward $233 $-1 #
vertex $-1 $150 $359 #
vertex $-1 $150 $360 #
straight-curve $-1 -100.55658469077692 15.502066965101619 18.958981430472654 1 0 0 I I #
coedge $-1 $247 $247 $-1 $361 reversed $153 $-1 #
edge $-1 $362 0 $362 6.2831853071796004 $154 $363 forward 7 unknown #
vertex $-1 $157 $364 #
ellipse-curve $-1 -75.831370390622951 24.426391864585199 16.092091529516789 -0.78801076186113728 0 0.61566146476048833 0.30783073238024417 0 0.39400538093056864 1 I I #
face $-1 $-1 $365 $33 $-1 $366 reversed single #
loop $-1 $-1 $164 $158 #
plane-surface $-1 0 0 18.958981430472654 0 0 1 1 0 0 forward_v I I I I #
coedge $-1 $367 $368 $369 $370 reversed $159 $-1 #
coedge $-1 $371 $161 $163 $261 forward $99 $-1 #
coedge $-1 $161 $371 $367 $372 forward $99 $-1 #
coedge $-1 $369 $164 $161 $258 forward $252 $-1 #
edge $-1 $264 -4.2818999550451515 $373 9.9868257560915801 $257 $374 forward 7 unknown #
coedge $-1 $375 $376 $162 $260 forward $365 $-1 #
edge $-1 $377 -104.57792595671606 $263 -96.979253430499938 $259 $378 forward 7 unknown #
edge $-1 $264 144.78642263828118 $377 156.14246040223398 $163 $379 forward 7 unknown #
coedge $-1 $164 $369 $375 $380 forward $252 $-1 #
vertex $-1 $165 $381 #
vertex $-1 $165 $382 #
straight-curve $-1 33.257235155589399 1.4294370545219373 18.958981430472647 -1 0 0 I I #
coedge $-1 $266 $266 $-1 $383 reversed $168 $-1 #
edge $-1 $384 0 $384 6.2831853071796004 $169 $385 forward 7 unknown #
vertex $-1 $172 $386 #
ellipse-curve $-1 73.851639891156452 -8.7625098820043021 15.159645167364605 0.66913061440640931 0 0.74314481823134659 1.4862896364626932 0 -1.3382612288128186 1 I I #
coedge $-1 $270 $270 $-1 $387 reversed $175 $-1 #
edge $-1 $388 0 $388 6.2831853071796004 $176 $389 forward 7 unknown #
vertex $-1 $179 $390 #
ellipse-curve $-1 73.851639891156452 -2.6473417200885621 15.159645167364605 0.66913061440640931 0 0.74314481823134659 1.4862896364626932 0 -1.3382612288128186 1 I I #
face $-1 $-1 $286 $27 $-1 $391 reversed single #
loop $-1 $-1 $392 $180 #
plane-surface $-1 0 46.688582763328583 0 0 -1 0 0 0 -1 forward_v I I I I #
coedge $-1 $292 $291 $393 $394 forward $181 $-1 #
coedge $-1 $183 $193 $395 $396 forward $113 $-1 #
coedge $-1 $285 $189 $183 $280 reversed $286 $-1 #
edge $-1 $397 -46.688582763328583 $194 46.688582763328583 $279 $398 forward 7 unknown #
coedge $-1 $185 $184 $291 $399 forward $73 $-1 #
coedge $-1 $392 $393 $184 $283 reversed $275 $-1 #
edge $-1 $288 -78.071230201116975 $400 78.071230201116975 $282 $401 forward 7 unknown #
edge $-1 $293 -78.071230201116975 $287 78.071230201116975 $188 $402 forward 7 unknown #
coedge $-1 $186 $279 $392 $403 reversed $286 $-1 #
loop $-1 $-1 $189 $274 #
vertex $-1 $187 $404 #
vertex $-1 $187 $405 #
straight-curve $-1 78.071230201116975 0 18.958981430472654 0 1 0 I I #
straight-curve $-1 78.071230201116975 -46.688582763328583 0 0 0 -1 I I #
coedge $-1 $277 $191 $281 $399 reversed $181 $-1 #
coedge $-1 $191 $277 $193 $295 reversed $181 $-1 #
vertex $-1 $399 $406 #
straight-curve $-1 -78.071230201116975 -46.688582763328583 0 0 0 -1 I I #
edge $-1 $195 -46.688582763328583 $407 46.688582763328583 $292 $408 forward 7 unknown #
point $-1 78.071230201116975 -46.688582763328583 -18.958981430472654 #
point $-1 -78.071230201116975 -46.688582763328583 -18.958981430472654 #
face $-1 $-1 $315 $28 $-1 $409 forward single #
loop $-1 $-1 $410 $197 #
plane-surface $-1 -40.153267340171666 -54.894332187001112 0 -1 0 0 0 0 1 forward_v I I I I #
coedge $-1 $411 $200 $305 $412 reversed $121 $-1 #
coedge $-1 $200 $411 $413 $414 reversed $121 $-1 #
coedge $-1 $208 $207 $200 $304 reversed $198 $-1 #
edge $-1 $415 -18.958981430472654 $416 18.958981430472654 $303 $417 forward 7 unknown #
coedge $-1 $202 $201 $301 $412 forward $77 $-1 #
coedge $-1 $311 $410 $201 $307 reversed $299 $-1 #
edge $-1 $309 -8.205749423672529 $418 8.205749423672529 $306 $419 forward 7 unknown #
edge $-1 $416 -8.205749423672529 $209 8.205749423672529 $207 $420 forward 7 unknown #
vertex $-1 $307 $421 #
straight-curve $-1 0 -46.688582763328583 -18.958981430472654 1 0 0 I I #
coedge $-1 $422 $306 $204 $312 reversed $299 $-1 #
edge $-1 $316 -18.958981430472654 $309 18.958981430472654 $311 $423 forward 7 unknown #
coedge $-1 $413 $205 $208 $318 forward $315 $-1 #
coedge $-1 $205 $413 $422 $424 forward $315 $-1 #
loop $-1 $-1 $205 $298 #
vertex $-1 $206 $425 #
straight-curve $-1 0 -46.688582763328583 18.958981430472654 -1 0 0 I I #
edge $-1 $210 -8.205749423672529 $415 8.205749423672529 $208 $426 forward 7 unknown #
point $-1 -49.318867634373674 -46.688582763328583 -18.958981430472654 #
point $-1 -49.318867634373674 -46.688582763328583 18.958981430472654 #
plane-surface $-1 0 0 18.958981430472654 0 0 1 1 0 0 forward_v I I I I #
coedge $-1 $332 $331 $324 $427 forward $213 $-1 #
coedge $-1 $324 $215 $217 $328 reversed $129 $-1 #
coedge $-1 $215 $323 $322 $427 reversed $129 $-1 #
coedge $-1 $223 $218 $215 $326 forward $224 $-1 #
edge $-1 $329 -26.96507411064799 $428 -22.48535448965994 $325 $429 forward 7 unknown #
coedge $-1 $217 $216 $332 $430 reversed $81 $-1 #
edge $-1 $431 2.274695869299009e-014 $329 7.2762709336222855 $323 $432 forward 7 unknown #
vertex $-1 $219 $433 #
straight-curve $-1 -73.591510580128926 -7.0282207375354275 18.958981430472654 0 1 0 I I #
coedge $-1 $322 $220 $223 $336 reversed $213 $-1 #
coedge $-1 $220 $322 $327 $430 forward $213 $-1 #
vertex $-1 $221 $434 #
straight-curve $-1 -78.071230201116975 -22.980766374554435 54.678048755553405 0 0 1 I I #
straight-curve $-1 -78.07123020111699 -22.980766374554435 13.22520162856091 -0.61566146476048833 0 -0.78801076186113728 I I #
edge $-1 $428 5.1321165755872755 $225 22.980766374554435 $331 $435 forward 7 unknown #
point $-1 -78.071230201116975 -22.980766374554435 18.958981430472654 #
point $-1 -73.591510580128926 -22.980766374554435 18.958981430472654 #
edge $-1 $436 1 $436 0 $228 $-1 forward 7 unknown #
vertex $-1 $229 $437 #
ellipse-curve $-1 -74.287093433252679 -14.056441475070855 14.885570172720906 -0.78801076186113728 0 0.61566146476048833 0.30783073238024417 0 0.39400538093056864 1 I I #
point $-1 -75.523539658242683 -14.056441475070855 16.486096910447337 #
loop $-1 $-1 $240 $232 #
plane-surface $-1 -78.071230201116975 0 0 1 0 0 0 0 -1 forward_v I I I I #
coedge $-1 $346 $235 $237 $350 reversed $144 $-1 #
coedge $-1 $235 $345 $438 $439 reversed $144 $-1 #
coedge $-1 $243 $238 $235 $348 forward $233 $-1 #
edge $-1 $351 -26.96507411064799 $440 -22.48535448965994 $347 $441 forward 7 unknown #
coedge $-1 $237 $236 $354 $442 reversed $90 $-1 #
edge $-1 $443 2.274695869299009e-014 $351 7.2762709336222855 $345 $444 forward 7 unknown #
vertex $-1 $239 $445 #
straight-curve $-1 -73.591510580128926 12.213195932292599 18.958981430472654 0 1 0 I I #
coedge $-1 $438 $240 $243 $358 reversed $343 $-1 #
coedge $-1 $240 $438 $349 $442 forward $343 $-1 #
vertex $-1 $241 $446 #
straight-curve $-1 -78.071230201116975 15.502066965101619 54.678048755553405 0 0 1 I I #
straight-curve $-1 -78.07123020111699 15.502066965101619 13.22520162856091 -0.61566146476048833 0 -0.78801076186113728 I I #
edge $-1 $440 -33.350716764068778 $244 -15.502066965101619 $353 $447 forward 7 unknown #
point $-1 -78.071230201116975 15.502066965101619 18.958981430472654 #
point $-1 -73.591510580128926 15.502066965101619 18.958981430472654 #
edge $-1 $448 1 $448 0 $247 $-1 forward 7 unknown #
vertex $-1 $248 $449 #
ellipse-curve $-1 -74.287093433252679 24.426391864585199 14.885570172720906 -0.78801076186113728 0 0.61566146476048833 0.30783073238024417 0 0.39400538093056864 1 I I #
point $-1 -75.523539658242683 24.426391864585199 16.486096910447337 #
loop $-1 $-1 $259 $251 #
plane-surface $-1 78.071230201116975 0 0 -1 0 0 0 0 1 forward_v I I I I #
coedge $-1 $368 $254 $256 $372 reversed $159 $-1 #
coedge $-1 $254 $367 $450 $451 reversed $159 $-1 #
coedge $-1 $262 $257 $254 $370 forward $252 $-1 #
edge $-1 $373 36.374814425606559 $452 44.813995045527577 $369 $453 forward 7 unknown #
coedge $-1 $256 $255 $376 $454 reversed $99 $-1 #
edge $-1 $455 -156.14246040223398 $373 -144.78642263828118 $367 $456 forward 7 unknown #
vertex $-1 $258 $457 #
straight-curve $-1 69.632049581195986 -2.8524629005232143 18.958981430472633 0 -1 0 I I #
coedge $-1 $450 $259 $262 $380 reversed $365 $-1 #
coedge $-1 $259 $450 $371 $454 forward $365 $-1 #
vertex $-1 $260 $458 #
straight-curve $-1 78.071230201116975 1.4294370545219373 115.93823486097259 0 0 1 I I #
straight-curve $-1 -37.965230152696435 1.4294370545219373 115.84000936813179 0.74314481823134659 0 -0.66913061440640931 I I #
edge $-1 $452 -12.839288656614794 $263 1.4294370545219373 $375 $459 forward 7 unknown #
point $-1 78.071230201116975 1.4294370545219373 18.958981430472654 #
point $-1 69.632049581195957 1.4294370545219373 18.958981430472647 #
edge $-1 $460 1 $460 0 $266 $-1 forward 7 unknown #
vertex $-1 $267 $461 #
ellipse-curve $-1 71.851742506858926 -8.7625098820043021 12.938534152359619 0.66913061440640931 0 0.74314481823134659 1.4862896364626932 0 -1.3382612288128186 1 I I #
point $-1 75.337929527619153 -8.7625098820043021 13.821383938551797 #
edge $-1 $462 1 $462 0 $270 $-1 forward 7 unknown #
vertex $-1 $271 $463 #
ellipse-curve $-1 71.851742506858926 -2.6473417200885621 12.938534152359619 0.66913061440640931 0 0.74314481823134659 1.4862896364626932 0 -1.3382612288128186 1 I I #
point $-1 75.337929527619153 -2.6473417200885621 13.821383938551797 #
plane-surface $-1 78.071230201116975 0 0 -1 0 0 0 0 1 forward_v I I I I #
coedge $-1 $395 $282 $285 $403 forward $275 $-1 #
coedge $-1 $282 $395 $277 $394 reversed $275 $-1 #
edge $-1 $400 -18.958981430472654 $407 18.958981430472654 $393 $464 forward 7 unknown #
coedge $-1 $393 $392 $278 $396 reversed $275 $-1 #
edge $-1 $407 -78.071230201116975 $397 78.071230201116975 $395 $465 forward 7 unknown #
vertex $-1 $280 $466 #
straight-curve $-1 78.071230201116975 0 -18.958981430472654 0 -1 0 I I #
edge $-1 $400 -46.688582763328583 $293 46.688582763328583 $291 $467 forward 7 unknown #
vertex $-1 $283 $468 #
straight-curve $-1 0 46.688582763328583 18.958981430472654 -1 0 0 I I #
straight-curve $-1 0 -46.688582763328583 18.958981430472654 1 0 0 I I #
edge $-1 $288 -18.958981430472654 $397 18.958981430472654 $285 $469 forward 7 unknown #
point $-1 78.071230201116975 -46.688582763328583 18.958981430472654 #
point $-1 78.071230201116975 46.688582763328583 18.958981430472654 #
point $-1 -78.071230201116975 -46.688582763328583 18.958981430472654 #
vertex $-1 $396 $470 #
straight-curve $-1 -78.071230201116975 0 -18.958981430472654 0 1 0 I I #
plane-surface $-1 0 0 18.958981430472654 0 0 1 1 0 0 forward_v I I I I #
coedge $-1 $306 $422 $411 $471 forward $299 $-1 #
coedge $-1 $302 $301 $410 $471 reversed $121 $-1 #
edge $-1 $418 -4.582800147101004 $416 4.582800147101004 $301 $472 forward 7 unknown #
coedge $-1 $314 $313 $302 $414 forward $315 $-1 #
edge $-1 $415 -4.582800147101004 $473 4.582800147101004 $302 $474 forward 7 unknown #
vertex $-1 $318 $475 #
vertex $-1 $308 $476 #
straight-curve $-1 -49.318867634373674 -63.100081610673641 0 0 0 -1 I I #
vertex $-1 $471 $477 #
straight-curve $-1 -40.153267340171666 -54.894332187001112 -18.958981430472654 0 -1 0 I I #
straight-curve $-1 -49.318867634373674 -54.894332187001112 -18.958981430472654 0 1 0 I I #
point $-1 -40.153267340171666 -46.688582763328583 -18.958981430472654 #
coedge $-1 $410 $311 $314 $424 reversed $299 $-1 #
straight-curve $-1 -40.153267340171666 -46.688582763328583 0 0 0 -1 I I #
edge $-1 $473 -8.205749423672529 $316 8.205749423672529 $422 $478 forward 7 unknown #
point $-1 -40.153267340171666 -46.688582763328583 18.958981430472654 #
straight-curve $-1 -49.318867634373674 -54.894332187001112 18.958981430472654 0 -1 0 I I #
edge $-1 $428 35.719067325080751 $431 41.452847126992481 $322 $479 forward 7 unknown #
vertex $-1 $336 $480 #
straight-curve $-1 -100.55658469077692 -5.1321165755872755 18.958981430472654 -1 0 0 I I #
edge $-1 $431 -1.896104161948152 $333 15.952545637019007 $332 $481 forward 7 unknown #
vertex $-1 $430 $482 #
straight-curve $-1 -78.07123020111699 -5.1321165755872755 13.22520162856091 0.61566146476048833 0 0.78801076186113728 I I #
point $-1 -73.591510580128926 -5.1321165755872755 18.958981430472654 #
point $-1 -78.071230201116975 -22.980766374554435 13.225201628560928 #
straight-curve $-1 -78.071230201116975 0 18.958981430472654 0 -1 0 I I #
vertex $-1 $339 $483 #
point $-1 -73.979262700872439 -14.056441475070855 15.279575553651474 #
coedge $-1 $354 $353 $346 $439 forward $343 $-1 #
edge $-1 $440 35.719067325080751 $443 41.452847126992481 $438 $484 forward 7 unknown #
vertex $-1 $358 $485 #
straight-curve $-1 -100.55658469077692 33.350716764068778 18.958981430472654 -1 0 0 I I #
edge $-1 $443 -21.137520831776179 $355 -3.2888710328090198 $354 $486 forward 7 unknown #
vertex $-1 $442 $487 #
straight-curve $-1 -78.07123020111699 33.350716764068778 13.22520162856091 0.61566146476048833 0 0.78801076186113728 I I #
point $-1 -73.591510580128926 33.350716764068778 18.958981430472654 #
point $-1 -78.071230201116975 15.502066965101619 13.225201628560928 #
straight-curve $-1 -78.071230201116975 0 18.958981430472654 0 -1 0 I I #
vertex $-1 $361 $488 #
point $-1 -73.979262700872439 24.426391864585199 15.279575553651474 #
coedge $-1 $376 $375 $368 $451 forward $365 $-1 #
edge $-1 $452 96.979253430499938 $455 104.57792595671606 $450 $489 forward 7 unknown #
vertex $-1 $380 $490 #
straight-curve $-1 33.257235155589399 -12.839288656614794 18.958981430472647 1 0 0 I I #
edge $-1 $455 -9.9868257560915801 $377 4.2818999550451515 $376 $491 forward 7 unknown #
vertex $-1 $454 $492 #
straight-curve $-1 -37.965230152696435 -12.839288656614794 115.84000936813179 -0.74314481823134659 0 0.66913061440640931 I I #
point $-1 69.632049581195957 -12.839288656614794 18.958981430472647 #
point $-1 78.071230201116975 1.4294370545219373 11.360308904256527 #
straight-curve $-1 78.071230201116975 0 18.958981430472654 0 1 0 I I #
vertex $-1 $383 $493 #
point $-1 73.338032143321612 -8.7625098820043021 11.6002729235468 #
vertex $-1 $387 $494 #
point $-1 73.338032143321612 -2.6473417200885621 11.6002729235468 #
straight-curve $-1 -78.071230201116975 46.688582763328583 0 0 0 -1 I I #
straight-curve $-1 0 46.688582763328583 -18.958981430472654 1 0 0 I I #
point $-1 78.071230201116975 46.688582763328583 -18.958981430472654 #
straight-curve $-1 -78.071230201116975 0 18.958981430472654 0 -1 0 I I #
point $-1 -78.071230201116975 46.688582763328583 18.958981430472654 #
straight-curve $-1 78.071230201116975 46.688582763328583 0 0 0 -1 I I #
point $-1 -78.071230201116975 46.688582763328583 -18.958981430472654 #
edge $-1 $473 -18.958981430472654 $418 18.958981430472654 $410 $495 forward 7 unknown #
straight-curve $-1 -44.73606748727267 -63.100081610673641 -18.958981430472654 -1 0 0 I I #
vertex $-1 $424 $496 #
straight-curve $-1 -44.73606748727267 -63.100081610673641 18.958981430472654 1 0 0 I I #
point $-1 -49.318867634373674 -63.100081610673641 18.958981430472654 #
point $-1 -49.318867634373674 -63.100081610673641 -18.958981430472654 #
point $-1 -40.153267340171666 -63.100081610673641 -18.958981430472654 #
straight-curve $-1 -40.153267340171666 -54.894332187001112 18.958981430472654 0 1 0 I I #
straight-curve $-1 -78.071230201116975 -5.1321165755872755 54.678048755553405 0 0 -1 I I #
point $-1 -78.071230201116975 -5.1321165755872755 18.958981430472654 #
straight-curve $-1 -78.071230201116975 -7.0282207375354275 13.225201628560919 0 -1 0 I I #
point $-1 -78.071230201116975 -5.1321165755872755 13.225201628560928 #
point $-1 -73.893088052322113 -14.056441475070855 14.577739440340663 #
straight-curve $-1 -78.071230201116975 33.350716764068778 54.678048755553405 0 0 -1 I I #
point $-1 -78.071230201116975 33.350716764068778 18.958981430472654 #
straight-curve $-1 -78.071230201116975 12.213195932292599 13.225201628560919 0 -1 0 I I #
point $-1 -78.071230201116975 33.350716764068778 13.225201628560928 #
point $-1 -73.893088052322113 24.426391864585199 14.577739440340663 #
straight-curve $-1 78.071230201116975 -12.839288656614794 115.93823486097259 0 0 -1 I I #
point $-1 78.071230201116975 -12.839288656614794 18.958981430472654 #
straight-curve $-1 78.071230201116975 -2.8524629005232143 11.360308904256527 0 1 0 I I #
point $-1 78.071230201116975 -12.839288656614794 11.360308904256527 #
point $-1 70.5134812780461 -8.7625098820043021 11.452244515896925 #
point $-1 70.5134812780461 -2.6473417200885621 11.452244515896925 #
straight-curve $-1 -40.153267340171666 -63.100081610673641 0 0 0 -1 I I #
point $-1 -40.153267340171666 -63.100081610673641 18.958981430472654 #
End-of-ACIS-data 