500 0 8 0           
7 Unknown 11 ACIS 5.0 NT 24 Fri Mar 26 02:53:45 1999 
-1 9.9999999999999995e-007 1e-010 
body $-1 $8 $-1 $9 #
body $-1 $10 $-1 $11 #
body $-1 $12 $-1 $13 #
body $-1 $14 $-1 $15 #
body $-1 $16 $-1 $17 #
body $-1 $18 $-1 $19 #
body $-1 $20 $-1 $21 #
body $-1 $22 $-1 $23 #
lump $-1 $-1 $24 $0 #
transform $-1 1 0 0 0 1 0 0 0 1 77.548753318887904 54.076806824221478 17.056630570076415 1 rotate no_reflect no_shear #
lump $-1 $-1 $25 $1 #
transform $-1 1 0 0 0 1 0 0 0 1 77.548753318887904 54.076806824221478 17.056630570076415 1 rotate no_reflect no_shear #
lump $-1 $-1 $26 $2 #
transform $-1 1 0 0 0 1 0 0 0 1 77.548753318887904 54.076806824221478 17.056630570076415 1 rotate no_reflect no_shear #
lump $-1 $-1 $27 $3 #
transform $-1 1 0 0 0 1 0 0 0 1 77.548753318887904 54.076806824221478 17.056630570076415 1 rotate no_reflect no_shear #
lump $-1 $-1 $28 $4 #
transform $-1 1 0 0 0 1 0 0 0 1 77.548753318887904 54.076806824221478 17.056630570076415 1 rotate no_reflect no_shear #
lump $-1 $-1 $29 $5 #
transform $-1 1 0 0 0 1 0 0 0 1 77.548753318887904 54.076806824221478 17.056630570076415 1 rotate no_reflect no_shear #
lump $-1 $-1 $30 $6 #
transform $-1 1 0 0 0 1 0 0 0 1 77.548753318887904 54.076806824221478 17.056630570076415 1 rotate no_reflect no_shear #
lump $-1 $-1 $31 $7 #
transform $-1 1 0 0 0 1 0 0 0 1 77.548753318887904 54.076806824221478 17.056630570076415 1 rotate no_reflect no_shear #
shell $-1 $-1 $-1 $32 $-1 $8 #
shell $-1 $-1 $-1 $33 $-1 $10 #
shell $-1 $-1 $-1 $34 $-1 $12 #
shell $-1 $-1 $-1 $35 $-1 $14 #
shell $-1 $-1 $-1 $36 $-1 $16 #
shell $-1 $-1 $-1 $37 $-1 $18 #
shell $-1 $-1 $-1 $38 $-1 $20 #
shell $-1 $-1 $-1 $39 $-1 $22 #
face $-1 $40 $41 $24 $-1 $42 forward single #
face $-1 $43 $44 $25 $-1 $45 reversed single #
face $-1 $46 $47 $26 $-1 $48 reversed single #
face $-1 $49 $50 $27 $-1 $51 forward single #
face $-1 $52 $53 $28 $-1 $54 forward single #
face $-1 $55 $56 $29 $-1 $57 reversed single #
face $-1 $58 $59 $30 $-1 $60 forward single #
face $-1 $61 $62 $31 $-1 $63 forward single #
face $-1 $64 $65 $24 $-1 $66 reversed single #
loop $-1 $-1 $67 $32 #
plane-surface $-1 0 0 17.056630570076415 0 0 1 1 0 0 forward_v I I I I #
face $-1 $68 $69 $25 $-1 $70 reversed single #
loop $-1 $-1 $71 $33 #
plane-surface $-1 0 -47.139333234114815 11.496711409976735 0 0 1 1 0 0 forward_v I I I I #
face $-1 $72 $73 $26 $-1 $74 reversed single #
loop $-1 $-1 $75 $34 #
plane-surface $-1 -199.76725768728443 -35.234857664854928 99.511460053630145 0 1 0 -0.78801076186113728 0 0.61566146476048833 forward_v I I I I #
face $-1 $76 $77 $27 $-1 $78 forward single #
loop $-1 $79 $80 $35 #
cone-surface $-1 -69.001842876142845 -29.925519721322352 7.840323831479389 0.78801076186113728 0 -0.61566146476048833 1.5391536619012207 0 1.9700269046528431 1 I I 0 1 2.5 forward I I I I #
face $-1 $81 $82 $28 $-1 $83 forward single #
loop $-1 $84 $85 $36 #
cone-surface $-1 -69.001842876142845 -21.961512806023499 7.840323831479389 0.78801076186113728 0 -0.61566146476048833 1.5391536619012207 0 1.9700269046528431 1 I I 0 1 2.5 forward I I I I #
face $-1 $86 $87 $29 $-1 $88 reversed single #
loop $-1 $-1 $89 $37 #
plane-surface $-1 100.47613357477842 -24.49987391089039 222.50651600916845 0 -1 0 -0.77714596973225614 0 -0.62932038083071107 forward_v I I I I #
face $-1 $90 $91 $30 $-1 $92 forward single #
loop $-1 $93 $94 $38 #
cone-surface $-1 70.283249423716043 -35.715578005974507 8.9889557525362687 -0.77714596973225614 0 -0.62932038083071107 1.2586407616614221 0 -1.5542919394645123 1 I I 0 1 2 forward I I I I #
face $-1 $95 $96 $31 $-1 $97 forward single #
loop $-1 $98 $99 $39 #
cone-surface $-1 70.283249423716043 -28.986155548924039 8.9889557525362687 -0.77714596973225614 0 -0.62932038083071107 1.2586407616614221 0 -1.5542919394645123 1 I I 0 1 2 forward I I I I #
face $-1 $100 $101 $24 $-1 $102 reversed single #
loop $-1 $-1 $103 $40 #
plane-surface $-1 0 0 -17.056630570076415 0 0 1 1 0 0 forward_v I I I I #
coedge $-1 $104 $105 $106 $107 forward $41 $-1 #
face $-1 $108 $109 $25 $-1 $110 reversed single #
loop $-1 $-1 $111 $43 #
plane-surface $-1 0 -40.201859644008152 14.276670990026574 0 -1 0 0 0 -1 forward_v I I I I #
coedge $-1 $112 $113 $114 $115 reversed $44 $-1 #
face $-1 $116 $117 $26 $-1 $118 reversed single #
loop $-1 $-1 $119 $46 #
plane-surface $-1 -77.548753318887933 -25.943516263672926 4.023901936317543 -0.78801076186113728 0 0.61566146476048833 0.61566146476048833 0 0.78801076186113728 forward_v I I I I #
coedge $-1 $120 $121 $122 $123 reversed $47 $-1 #
face $-1 $-1 $124 $27 $-1 $125 forward single #
loop $-1 $126 $127 $49 #
cone-surface $-1 -64.561060618233341 -29.925519721322352 4.3708045788111889 0.78801076186113728 0 -0.61566146476048833 0.76957683095061036 0 0.98501345232642157 1 I I -0.70710678118654746 0.70710678118654746 1.25 forward I I I I #
loop $-1 $-1 $128 $35 #
coedge $-1 $80 $80 $129 $130 reversed $50 $-1 #
face $-1 $-1 $131 $28 $-1 $132 forward single #
loop $-1 $133 $134 $52 #
cone-surface $-1 -64.561060618233341 -21.961512806023499 4.3708045788111889 0.78801076186113728 0 -0.61566146476048833 0.76957683095061036 0 0.98501345232642157 1 I I -0.70710678118654746 0.70710678118654746 1.25 forward I I I I #
loop $-1 $-1 $135 $36 #
coedge $-1 $85 $85 $136 $137 reversed $53 $-1 #
face $-1 $138 $139 $29 $-1 $140 forward single #
loop $-1 $-1 $141 $55 #
plane-surface $-1 -20.057268624290899 -32.350866777449269 124.90049406598965 0.77714596973225614 0 0.62932038083071107 0.62932038083071107 0 -0.77714596973225614 forward_v I I I I #
coedge $-1 $142 $143 $144 $145 reversed $56 $-1 #
face $-1 $-1 $146 $30 $-1 $147 forward single #
loop $-1 $148 $149 $58 #
cone-surface $-1 67.378492335884133 -35.715578005974507 6.6367299057434437 -0.77714596973225614 0 -0.62932038083071107 0.62932038083071107 0 -0.77714596973225614 1 I I -0.70710678118654746 0.70710678118654746 1 forward I I I I #
loop $-1 $-1 $150 $38 #
coedge $-1 $94 $94 $151 $152 reversed $59 $-1 #
face $-1 $-1 $153 $31 $-1 $154 forward single #
loop $-1 $155 $156 $61 #
cone-surface $-1 67.378492335884133 -28.986155548924039 6.6367299057434437 -0.77714596973225614 0 -0.62932038083071107 0.62932038083071107 0 -0.77714596973225614 1 I I -0.70710678118654746 0.70710678118654746 1 forward I I I I #
loop $-1 $-1 $157 $39 #
coedge $-1 $99 $99 $158 $159 reversed $62 $-1 #
face $-1 $160 $161 $24 $-1 $162 reversed single #
loop $-1 $-1 $163 $64 #
plane-surface $-1 0 -54.076806824221478 0 0 1 0 0 0 1 forward_v I I I I #
coedge $-1 $164 $165 $166 $167 forward $65 $-1 #
coedge $-1 $168 $67 $169 $170 forward $41 $-1 #
coedge $-1 $67 $168 $171 $172 forward $41 $-1 #
coedge $-1 $173 $174 $67 $107 reversed $175 $-1 #
edge $-1 $176 -54.076806824221478 $177 54.076806824221478 $106 $178 forward 7 unknown #
face $-1 $179 $180 $25 $-1 $181 reversed single #
loop $-1 $-1 $182 $68 #
plane-surface $-1 -77.548753318887904 0 0 1 0 0 0 0 -1 forward_v I I I I #
coedge $-1 $183 $184 $185 $186 reversed $69 $-1 #
coedge $-1 $187 $71 $188 $189 reversed $44 $-1 #
coedge $-1 $71 $187 $183 $190 forward $44 $-1 #
coedge $-1 $185 $191 $71 $115 forward $192 $-1 #
edge $-1 $193 -30.50714020716407 $194 -16.632193026950745 $114 $195 forward 7 unknown #
face $-1 $196 $197 $26 $-1 $198 forward single #
loop $-1 $-1 $199 $72 #
plane-surface $-1 -199.76725768728443 -16.652174862490924 99.511460053630145 0 -1 0 0.78801076186113728 0 -0.61566146476048833 forward_v I I I I #
coedge $-1 $200 $201 $202 $203 reversed $73 $-1 #
coedge $-1 $121 $75 $204 $205 reversed $47 $-1 #
coedge $-1 $75 $120 $200 $206 reversed $47 $-1 #
coedge $-1 $202 $207 $75 $123 forward $197 $-1 #
edge $-1 $208 22.33487552475431 $209 32.517158799078246 $122 $210 forward 7 unknown #
loop $-1 $-1 $129 $76 #
plane-surface $-1 -77.548753318887933 -25.943516263672926 4.023901936317543 -0.78801076186113728 0 0.61566146476048833 0.61566146476048833 0 0.78801076186113728 forward_v I I I I #
loop $-1 $-1 $211 $49 #
coedge $-1 $127 $127 $128 $212 reversed $77 $-1 #
coedge $-1 $128 $128 $127 $212 forward $79 $-1 #
coedge $-1 $129 $129 $80 $130 forward $124 $-1 #
edge $-1 $213 0 $213 6.2831853071796004 $129 $214 forward 7 unknown #
loop $-1 $-1 $136 $81 #
plane-surface $-1 -77.548753318887933 -25.943516263672926 4.023901936317543 -0.78801076186113728 0 0.61566146476048833 0.61566146476048833 0 0.78801076186113728 forward_v I I I I #
loop $-1 $-1 $215 $52 #
coedge $-1 $134 $134 $135 $216 reversed $82 $-1 #
coedge $-1 $135 $135 $134 $216 forward $84 $-1 #
coedge $-1 $136 $136 $85 $137 forward $131 $-1 #
edge $-1 $217 0 $217 6.2831853071796004 $136 $218 forward 7 unknown #
face $-1 $219 $220 $29 $-1 $221 forward single #
loop $-1 $-1 $222 $86 #
plane-surface $-1 0 -40.201859644008152 14.276670990026574 0 -1 0 0 0 -1 forward_v I I I I #
coedge $-1 $223 $224 $225 $226 reversed $87 $-1 #
coedge $-1 $143 $89 $227 $228 reversed $56 $-1 #
coedge $-1 $89 $142 $223 $229 reversed $56 $-1 #
coedge $-1 $225 $230 $89 $145 forward $220 $-1 #
edge $-1 $231 -27.310686531498696 $232 -17.034900977354347 $144 $233 forward 7 unknown #
loop $-1 $-1 $151 $90 #
plane-surface $-1 -20.057268624290899 -32.350866777449269 124.90049406598965 0.77714596973225614 0 0.62932038083071107 0.62932038083071107 0 -0.77714596973225614 forward_v I I I I #
loop $-1 $-1 $234 $58 #
coedge $-1 $149 $149 $150 $235 reversed $91 $-1 #
coedge $-1 $150 $150 $149 $235 forward $93 $-1 #
coedge $-1 $151 $151 $94 $152 forward $146 $-1 #
edge $-1 $236 0 $236 6.2831853071796004 $151 $237 forward 7 unknown #
loop $-1 $-1 $158 $95 #
plane-surface $-1 -20.057268624290899 -32.350866777449269 124.90049406598965 0.77714596973225614 0 0.62932038083071107 0.62932038083071107 0 -0.77714596973225614 forward_v I I I I #
loop $-1 $-1 $238 $61 #
coedge $-1 $156 $156 $157 $239 reversed $96 $-1 #
coedge $-1 $157 $157 $156 $239 forward $98 $-1 #
coedge $-1 $158 $158 $99 $159 forward $153 $-1 #
edge $-1 $240 0 $240 6.2831853071796004 $158 $241 forward 7 unknown #
face $-1 $242 $243 $24 $-1 $244 reversed single #
loop $-1 $-1 $245 $100 #
plane-surface $-1 -77.548753318887904 0 0 1 0 0 0 0 -1 forward_v I I I I #
coedge $-1 $246 $171 $247 $248 forward $101 $-1 #
coedge $-1 $249 $103 $246 $250 forward $65 $-1 #
coedge $-1 $103 $249 $251 $252 forward $65 $-1 #
coedge $-1 $174 $173 $103 $167 reversed $175 $-1 #
edge $-1 $253 -54.076806824221478 $254 54.076806824221478 $166 $255 forward 7 unknown #
coedge $-1 $105 $104 $256 $257 forward $41 $-1 #
coedge $-1 $258 $259 $104 $170 reversed $243 $-1 #
edge $-1 $177 -77.548753318887904 $260 77.548753318887904 $169 $261 forward 7 unknown #
coedge $-1 $163 $262 $105 $172 reversed $101 $-1 #
edge $-1 $263 -77.548753318887904 $176 77.548753318887904 $171 $264 forward 7 unknown #
coedge $-1 $166 $106 $262 $265 forward $175 $-1 #
coedge $-1 $106 $166 $258 $266 reversed $175 $-1 #
loop $-1 $-1 $173 $242 #
vertex $-1 $107 $267 #
vertex $-1 $107 $268 #
straight-curve $-1 77.548753318887904 0 17.056630570076415 0 1 0 I I #
face $-1 $269 $270 $25 $-1 $271 forward single #
loop $-1 $-1 $188 $108 #
plane-surface $-1 0 -54.076806824221478 0 0 1 0 0 0 1 forward_v I I I I #
coedge $-1 $272 $273 $274 $275 forward $109 $-1 #
coedge $-1 $274 $111 $113 $190 reversed $69 $-1 #
coedge $-1 $111 $274 $276 $277 reversed $69 $-1 #
coedge $-1 $278 $114 $111 $186 forward $192 $-1 #
edge $-1 $194 4.3583759149634478 $279 9.9182950750631278 $185 $280 forward 7 unknown #
coedge $-1 $113 $112 $272 $281 reversed $44 $-1 #
coedge $-1 $282 $283 $112 $189 forward $180 $-1 #
edge $-1 $284 -77.548753318887904 $193 77.548753318887904 $188 $285 forward 7 unknown #
edge $-1 $286 -77.548753318887904 $194 77.548753318887904 $183 $287 forward 7 unknown #
coedge $-1 $114 $278 $282 $288 forward $192 $-1 #
loop $-1 $-1 $185 $269 #
vertex $-1 $189 $289 #
vertex $-1 $115 $290 #
straight-curve $-1 77.548753318887904 -23.569666617057408 11.496711409976735 0 1 0 I I #
face $-1 $-1 $291 $26 $-1 $292 reversed single #
loop $-1 $-1 $122 $116 #
plane-surface $-1 0 0 17.056630570076415 0 0 1 1 0 0 forward_v I I I I #
coedge $-1 $293 $294 $295 $296 reversed $117 $-1 #
coedge $-1 $297 $119 $121 $206 forward $73 $-1 #
coedge $-1 $119 $297 $293 $298 forward $73 $-1 #
coedge $-1 $295 $122 $119 $203 forward $197 $-1 #
edge $-1 $209 -22.263099533018465 $299 -3.6804167306544606 $202 $300 forward 7 unknown #
coedge $-1 $301 $302 $120 $205 forward $291 $-1 #
edge $-1 $303 -45.731828090497494 $208 -32.699099456738658 $204 $304 forward 7 unknown #
edge $-1 $209 -16.538769855094301 $303 -4.6193811539156697e-014 $121 $305 forward 7 unknown #
coedge $-1 $122 $295 $301 $306 forward $197 $-1 #
vertex $-1 $205 $307 #
vertex $-1 $123 $308 #
straight-curve $-1 -99.883628843642214 -35.234857664854928 17.056630570076415 1 0 0 I I #
coedge $-1 $211 $211 $-1 $309 reversed $126 $-1 #
edge $-1 $310 0 $310 6.2831853071796004 $127 $311 forward 7 unknown #
vertex $-1 $130 $312 #
ellipse-curve $-1 -72.457611681725936 -29.925519721322352 10.540266253196991 -0.78801076186113728 0 0.61566146476048833 1.5391536619012207 0 1.9700269046528431 1 I I #
coedge $-1 $215 $215 $-1 $313 reversed $133 $-1 #
edge $-1 $314 0 $314 6.2831853071796004 $134 $315 forward 7 unknown #
vertex $-1 $137 $316 #
ellipse-curve $-1 -72.457611681725936 -21.961512806023499 10.540266253196991 -0.78801076186113728 0 0.61566146476048833 1.5391536619012207 0 1.9700269046528431 1 I I #
face $-1 $-1 $317 $29 $-1 $318 reversed single #
loop $-1 $-1 $225 $138 #
plane-surface $-1 0 0 17.056630570076415 0 0 1 1 0 0 forward_v I I I I #
coedge $-1 $319 $320 $224 $321 reversed $139 $-1 #
coedge $-1 $322 $141 $143 $229 forward $87 $-1 #
coedge $-1 $141 $322 $222 $321 forward $87 $-1 #
coedge $-1 $323 $144 $141 $226 forward $220 $-1 #
edge $-1 $232 8.3244405221657551 $324 24.026426255283518 $225 $325 forward 7 unknown #
coedge $-1 $326 $327 $142 $228 forward $317 $-1 #
edge $-1 $328 -106.88616613766389 $231 -94.196627434507803 $227 $329 forward 7 unknown #
edge $-1 $232 138.76912149858774 $328 155.09750663777581 $143 $330 forward 7 unknown #
coedge $-1 $144 $323 $326 $331 forward $220 $-1 #
vertex $-1 $228 $332 #
vertex $-1 $145 $333 #
straight-curve $-1 50.238066787389208 -24.49987391089039 17.056630570076408 -1 0 0 I I #
coedge $-1 $234 $234 $-1 $334 reversed $148 $-1 #
edge $-1 $335 0 $335 6.2831853071796004 $149 $336 forward 7 unknown #
vertex $-1 $152 $337 #
ellipse-curve $-1 72.410860541815708 -35.715578005974507 10.711861218498388 0.77714596973225614 0 0.62932038083071107 1.2586407616614221 0 -1.5542919394645123 1 I I #
coedge $-1 $238 $238 $-1 $338 reversed $155 $-1 #
edge $-1 $339 0 $339 6.2831853071796004 $156 $340 forward 7 unknown #
vertex $-1 $159 $341 #
ellipse-curve $-1 72.410860541815708 -28.986155548924039 10.711861218498388 0.77714596973225614 0 0.62932038083071107 1.2586407616614221 0 -1.5542919394645123 1 I I #
face $-1 $-1 $175 $24 $-1 $342 reversed single #
loop $-1 $-1 $258 $160 #
plane-surface $-1 0 54.076806824221478 0 0 -1 0 0 0 -1 forward_v I I I I #
coedge $-1 $343 $256 $259 $344 forward $161 $-1 #
coedge $-1 $262 $163 $164 $250 reversed $101 $-1 #
coedge $-1 $256 $343 $163 $248 reversed $161 $-1 #
edge $-1 $263 -17.056630570076415 $345 17.056630570076415 $247 $346 forward 7 unknown #
coedge $-1 $165 $164 $343 $347 forward $65 $-1 #
edge $-1 $254 -77.548753318887904 $345 77.548753318887904 $246 $348 forward 7 unknown #
coedge $-1 $259 $258 $165 $252 reversed $243 $-1 #
edge $-1 $349 -77.548753318887904 $253 77.548753318887904 $251 $350 forward 7 unknown #
vertex $-1 $167 $351 #
vertex $-1 $265 $352 #
straight-curve $-1 77.548753318887904 0 -17.056630570076415 0 -1 0 I I #
coedge $-1 $245 $247 $168 $257 reversed $161 $-1 #
edge $-1 $260 -54.076806824221478 $263 54.076806824221478 $256 $353 forward 7 unknown #
coedge $-1 $251 $169 $174 $266 forward $243 $-1 #
coedge $-1 $169 $251 $245 $344 reversed $243 $-1 #
vertex $-1 $170 $354 #
straight-curve $-1 0 54.076806824221478 17.056630570076415 -1 0 0 I I #
coedge $-1 $171 $246 $173 $265 reversed $101 $-1 #
vertex $-1 $257 $355 #
straight-curve $-1 0 -54.076806824221478 17.056630570076415 1 0 0 I I #
edge $-1 $176 -17.056630570076415 $254 17.056630570076415 $173 $356 forward 7 unknown #
edge $-1 $177 -17.056630570076415 $253 17.056630570076415 $174 $357 forward 7 unknown #
point $-1 77.548753318887904 -54.076806824221478 17.056630570076415 #
point $-1 77.548753318887904 54.076806824221478 17.056630570076415 #
face $-1 $-1 $192 $25 $-1 $358 reversed single #
loop $-1 $-1 $276 $179 #
plane-surface $-1 0 0 17.056630570076415 0 0 1 1 0 0 forward_v I I I I #
coedge $-1 $359 $182 $187 $281 forward $109 $-1 #
coedge $-1 $182 $359 $360 $361 reversed $109 $-1 #
coedge $-1 $184 $183 $182 $275 reversed $69 $-1 #
edge $-1 $362 -9.9182950750631278 $286 -4.3583759149634478 $182 $363 forward 7 unknown #
coedge $-1 $360 $364 $184 $277 forward $270 $-1 #
edge $-1 $279 -77.548753318887904 $362 77.548753318887904 $276 $365 forward 7 unknown #
coedge $-1 $191 $185 $364 $366 reversed $192 $-1 #
vertex $-1 $186 $367 #
straight-curve $-1 77.548753318887904 -40.201859644008152 7.1383354950132869 0 0 1 I I #
edge $-1 $286 16.632193026950745 $284 30.50714020716407 $272 $368 forward 7 unknown #
coedge $-1 $369 $188 $191 $288 reversed $180 $-1 #
coedge $-1 $188 $369 $359 $370 forward $180 $-1 #
vertex $-1 $189 $371 #
straight-curve $-1 0 -54.076806824221478 11.496711409976735 1 0 0 I I #
vertex $-1 $281 $372 #
straight-curve $-1 0 -40.201859644008152 11.496711409976735 1 0 0 I I #
edge $-1 $373 -17.056630570076415 $193 -11.496711409976735 $191 $374 forward 7 unknown #
point $-1 77.548753318887904 -54.076806824221478 11.496711409976735 #
point $-1 77.548753318887904 -40.201859644008152 11.496711409976735 #
loop $-1 $-1 $204 $196 #
plane-surface $-1 -77.548753318887904 0 0 1 0 0 0 0 -1 forward_v I I I I #
coedge $-1 $294 $199 $201 $298 reversed $117 $-1 #
coedge $-1 $199 $293 $375 $376 reversed $117 $-1 #
coedge $-1 $207 $202 $199 $296 forward $197 $-1 #
edge $-1 $299 -32.517158799078246 $377 -22.33487552475431 $295 $378 forward 7 unknown #
coedge $-1 $201 $200 $302 $379 reversed $73 $-1 #
edge $-1 $380 4.6193811539156697e-014 $299 16.538769855094301 $293 $381 forward 7 unknown #
vertex $-1 $203 $382 #
straight-curve $-1 -67.366470044563954 -12.971758131836463 17.056630570076415 0 1 0 I I #
coedge $-1 $375 $204 $207 $306 reversed $291 $-1 #
coedge $-1 $204 $375 $297 $379 forward $291 $-1 #
vertex $-1 $205 $383 #
straight-curve $-1 -77.548753318887904 -35.234857664854928 49.755730026815073 0 0 1 I I #
straight-curve $-1 -77.548753318887933 -35.234857664854928 4.023901936317543 -0.61566146476048833 0 -0.78801076186113728 I I #
edge $-1 $377 16.652174862490924 $208 35.234857664854928 $301 $384 forward 7 unknown #
point $-1 -77.548753318887904 -35.234857664854928 17.056630570076415 #
point $-1 -67.366470044563968 -35.234857664854928 17.056630570076415 #
edge $-1 $385 1 $385 0 $211 $-1 forward 7 unknown #
vertex $-1 $212 $386 #
ellipse-curve $-1 -65.546074070559769 -29.925519721322352 5.1403814097617992 -0.78801076186113728 0 0.61566146476048833 1.5391536619012207 0 1.9700269046528431 1 I I #
point $-1 -70.918458019824698 -29.925519721322352 12.510293157849823 #
edge $-1 $387 1 $387 0 $215 $-1 forward 7 unknown #
vertex $-1 $216 $388 #
ellipse-curve $-1 -65.546074070559769 -21.961512806023499 5.1403814097617992 -0.78801076186113728 0 0.61566146476048833 1.5391536619012207 0 1.9700269046528431 1 I I #
point $-1 -70.918458019824698 -21.961512806023499 12.510293157849823 #
loop $-1 $-1 $227 $219 #
plane-surface $-1 77.548753318887904 0 0 -1 0 0 0 0 1 forward_v I I I I #
coedge $-1 $320 $222 $389 $390 reversed $139 $-1 #
coedge $-1 $222 $319 $323 $391 reversed $139 $-1 #
edge $-1 $392 -155.09750663777581 $324 -138.76912149858774 $222 $393 forward 7 unknown #
coedge $-1 $224 $223 $327 $394 reversed $87 $-1 #
coedge $-1 $230 $225 $320 $391 forward $220 $-1 #
vertex $-1 $391 $395 #
straight-curve $-1 67.272967764743541 -16.175433388724635 17.056630570076436 0 -1 0 I I #
coedge $-1 $389 $227 $230 $331 reversed $317 $-1 #
coedge $-1 $227 $389 $322 $394 forward $317 $-1 #
vertex $-1 $228 $396 #
straight-curve $-1 77.548753318887904 -24.49987391089039 111.25325800458423 0 0 1 I I #
straight-curve $-1 -20.057268624290899 -24.49987391089039 124.90049406598965 0.62932038083071107 0 -0.77714596973225614 I I #
edge $-1 $397 -40.201859644008152 $231 -24.49987391089039 $326 $398 forward 7 unknown #
point $-1 77.548753318887904 -24.49987391089039 17.056630570076415 #
point $-1 67.272967764743555 -24.49987391089039 17.056630570076408 #
edge $-1 $399 1 $399 0 $234 $-1 forward 7 unknown #
vertex $-1 $235 $400 #
ellipse-curve $-1 68.155638305616392 -35.715578005974507 7.2660502865741545 0.77714596973225614 0 0.62932038083071107 1.2586407616614221 0 -1.5542919394645123 1 I I #
point $-1 73.669501303477134 -35.715578005974507 9.1575692790338721 #
edge $-1 $401 1 $401 0 $238 $-1 forward 7 unknown #
vertex $-1 $239 $402 #
ellipse-curve $-1 68.155638305616392 -28.986155548924039 7.2660502865741545 0.77714596973225614 0 0.62932038083071107 1.2586407616614221 0 -1.5542919394645123 1 I I #
point $-1 73.669501303477134 -28.986155548924039 9.1575692790338721 #
plane-surface $-1 77.548753318887904 0 0 -1 0 0 0 0 1 forward_v I I I I #
coedge $-1 $247 $245 $249 $347 reversed $161 $-1 #
edge $-1 $260 -17.056630570076415 $349 17.056630570076415 $259 $403 forward 7 unknown #
vertex $-1 $347 $404 #
straight-curve $-1 -77.548753318887904 -54.076806824221478 0 0 0 -1 I I #
edge $-1 $345 -54.076806824221478 $349 54.076806824221478 $343 $405 forward 7 unknown #
straight-curve $-1 0 -54.076806824221478 -17.056630570076415 -1 0 0 I I #
vertex $-1 $252 $406 #
straight-curve $-1 0 54.076806824221478 -17.056630570076415 1 0 0 I I #
point $-1 77.548753318887904 54.076806824221478 -17.056630570076415 #
point $-1 77.548753318887904 -54.076806824221478 -17.056630570076415 #
straight-curve $-1 -77.548753318887904 0 17.056630570076415 0 -1 0 I I #
point $-1 -77.548753318887904 54.076806824221478 17.056630570076415 #
point $-1 -77.548753318887904 -54.076806824221478 17.056630570076415 #
straight-curve $-1 77.548753318887904 -54.076806824221478 0 0 0 -1 I I #
straight-curve $-1 77.548753318887904 54.076806824221478 0 0 0 -1 I I #
plane-surface $-1 77.548753318887904 0 0 -1 0 0 0 0 1 forward_v I I I I #
coedge $-1 $273 $272 $283 $370 reversed $109 $-1 #
coedge $-1 $407 $276 $273 $361 forward $270 $-1 #
edge $-1 $362 40.201859644008152 $408 54.076806824221478 $273 $409 forward 7 unknown #
vertex $-1 $361 $410 #
straight-curve $-1 -77.548753318887904 -40.201859644008152 7.1383354950132869 0 0 -1 I I #
coedge $-1 $276 $407 $278 $366 forward $270 $-1 #
straight-curve $-1 0 -40.201859644008152 17.056630570076415 -1 0 0 I I #
edge $-1 $373 -54.076806824221478 $279 -40.201859644008152 $278 $411 forward 7 unknown #
point $-1 77.548753318887904 -40.201859644008152 17.056630570076415 #
straight-curve $-1 -77.548753318887904 -23.569666617057408 11.496711409976735 0 -1 0 I I #
coedge $-1 $283 $282 $407 $412 reversed $180 $-1 #
edge $-1 $408 -17.056630570076415 $284 -11.496711409976735 $359 $413 forward 7 unknown #
point $-1 -77.548753318887904 -54.076806824221478 11.496711409976735 #
point $-1 -77.548753318887904 -40.201859644008152 11.496711409976735 #
vertex $-1 $366 $414 #
straight-curve $-1 77.548753318887904 -54.076806824221478 0 0 0 -1 I I #
coedge $-1 $302 $301 $294 $376 forward $291 $-1 #
edge $-1 $377 32.699099456738658 $380 45.731828090497494 $375 $415 forward 7 unknown #
vertex $-1 $306 $416 #
straight-curve $-1 -99.883628843642214 -16.652174862490924 17.056630570076415 -1 0 0 I I #
edge $-1 $380 3.6804167306544606 $303 22.263099533018465 $302 $417 forward 7 unknown #
vertex $-1 $379 $418 #
straight-curve $-1 -77.548753318887933 -16.652174862490924 4.023901936317543 0.61566146476048833 0 0.78801076186113728 I I #
point $-1 -67.366470044563968 -16.652174862490924 17.056630570076415 #
point $-1 -77.548753318887904 -35.234857664854928 4.0239019363175794 #
straight-curve $-1 -77.548753318887904 0 17.056630570076415 0 -1 0 I I #
vertex $-1 $309 $419 #
point $-1 -64.006920408658544 -29.925519721322352 7.1104083144146424 #
vertex $-1 $313 $420 #
point $-1 -64.006920408658544 -21.961512806023499 7.1104083144146424 #
coedge $-1 $327 $326 $319 $390 forward $317 $-1 #
edge $-1 $397 94.196627434507803 $392 106.88616613766389 $389 $421 forward 7 unknown #
edge $-1 $324 67.272967764743555 $397 77.548753318887904 $323 $422 forward 7 unknown #
vertex $-1 $390 $423 #
straight-curve $-1 -20.057268624290899 -40.201859644008152 124.90049406598965 -0.62932038083071107 0 0.77714596973225614 I I #
edge $-1 $392 -24.026426255283518 $328 -8.3244405221657551 $327 $424 forward 7 unknown #
point $-1 67.272967764743555 -40.201859644008152 17.056630570076408 #
point $-1 77.548753318887904 -24.49987391089039 4.3670918669203331 #
vertex $-1 $331 $425 #
straight-curve $-1 77.548753318887904 0 17.056630570076415 0 1 0 I I #
vertex $-1 $334 $426 #
point $-1 69.414279067277818 -35.715578005974507 5.711758347109642 #
vertex $-1 $338 $427 #
point $-1 69.414279067277818 -28.986155548924039 5.711758347109642 #
straight-curve $-1 -77.548753318887904 54.076806824221478 0 0 0 -1 I I #
point $-1 -77.548753318887904 -54.076806824221478 -17.056630570076415 #
straight-curve $-1 -77.548753318887904 0 -17.056630570076415 0 1 0 I I #
point $-1 -77.548753318887904 54.076806824221478 -17.056630570076415 #
coedge $-1 $364 $360 $369 $412 forward $270 $-1 #
vertex $-1 $361 $428 #
straight-curve $-1 -77.548753318887904 0 17.056630570076415 0 -1 0 I I #
point $-1 -77.548753318887904 -40.201859644008152 17.056630570076415 #
straight-curve $-1 77.548753318887904 0 17.056630570076415 0 1 0 I I #
edge $-1 $408 -77.548753318887904 $373 77.548753318887904 $369 $429 forward 7 unknown #
straight-curve $-1 -77.548753318887904 -54.076806824221478 0 0 0 -1 I I #
point $-1 77.548753318887904 -54.076806824221478 17.056630570076415 #
straight-curve $-1 -77.548753318887904 -16.652174862490924 49.755730026815073 0 0 -1 I I #
point $-1 -77.548753318887904 -16.652174862490924 17.056630570076415 #
straight-curve $-1 -77.548753318887904 -12.971758131836463 4.0239019363175785 0 -1 0 I I #
point $-1 -77.548753318887904 -16.652174862490924 4.0239019363175794 #
point $-1 -63.576047165906921 -29.925519721322352 3.6012277478605785 #
point $-1 -63.576047165906921 -21.961512806023499 3.6012277478605785 #
straight-curve $-1 77.548753318887904 -40.201859644008152 111.25325800458423 0 0 -1 I I #
straight-curve $-1 0 -40.201859644008152 17.056630570076415 1 0 0 I I #
point $-1 77.548753318887904 -40.201859644008152 4.3670918669203331 #
straight-curve $-1 77.548753318887904 -16.175433388724635 4.3670918669203402 0 1 0 I I #
point $-1 77.548753318887904 -40.201859644008152 17.056630570076415 #
point $-1 66.601346366151873 -35.715578005974507 6.0074095249127328 #
point $-1 66.601346366151873 -28.986155548924039 6.0074095249127328 #
point $-1 -77.548753318887904 -54.076806824221478 17.056630570076415 #
straight-curve $-1 0 -54.076806824221478 17.056630570076415 1 0 0 I I #
End-of-ACIS-data 