500 0 12 0           
7 Unknown 11 ACIS 5.0 NT 24 Thu Mar 25 20:43:47 1999 
-1 9.9999999999999995e-007 1e-010 
body $-1 $12 $-1 $13 #
body $-1 $14 $-1 $15 #
body $-1 $16 $-1 $17 #
body $-1 $18 $-1 $19 #
body $-1 $20 $-1 $21 #
body $-1 $22 $-1 $23 #
body $-1 $24 $-1 $25 #
body $-1 $26 $-1 $27 #
body $-1 $28 $-1 $29 #
body $-1 $30 $-1 $31 #
body $-1 $32 $-1 $33 #
body $-1 $34 $-1 $35 #
lump $-1 $-1 $36 $0 #
transform $-1 1 0 0 0 1 0 0 0 1 75.45152134769738 36.988446390101849 16.237123107859279 1 rotate no_reflect no_shear #
lump $-1 $-1 $37 $1 #
transform $-1 1 0 0 0 1 0 0 0 1 75.45152134769738 36.988446390101849 16.237123107859279 1 rotate no_reflect no_shear #
lump $-1 $-1 $38 $2 #
transform $-1 1 0 0 0 1 0 0 0 1 75.45152134769738 36.988446390101849 16.237123107859279 1 rotate no_reflect no_shear #
lump $-1 $-1 $39 $3 #
transform $-1 1 0 0 0 1 0 0 0 1 75.45152134769738 36.988446390101849 16.237123107859279 1 rotate no_reflect no_shear #
lump $-1 $-1 $40 $4 #
transform $-1 1 0 0 0 1 0 0 0 1 75.45152134769738 36.988446390101849 16.237123107859279 1 rotate no_reflect no_shear #
lump $-1 $-1 $41 $5 #
transform $-1 1 0 0 0 1 0 0 0 1 75.45152134769738 36.988446390101849 16.237123107859279 1 rotate no_reflect no_shear #
lump $-1 $-1 $42 $6 #
transform $-1 1 0 0 0 1 0 0 0 1 75.45152134769738 36.988446390101849 16.237123107859279 1 rotate no_reflect no_shear #
lump $-1 $-1 $43 $7 #
transform $-1 1 0 0 0 1 0 0 0 1 75.45152134769738 36.988446390101849 16.237123107859279 1 rotate no_reflect no_shear #
lump $-1 $-1 $44 $8 #
transform $-1 1 0 0 0 1 0 0 0 1 75.45152134769738 36.988446390101849 16.237123107859279 1 rotate no_reflect no_shear #
lump $-1 $-1 $45 $9 #
transform $-1 1 0 0 0 1 0 0 0 1 75.45152134769738 36.988446390101849 16.237123107859279 1 rotate no_reflect no_shear #
lump $-1 $-1 $46 $10 #
transform $-1 1 0 0 0 1 0 0 0 1 75.45152134769738 36.988446390101849 16.237123107859279 1 rotate no_reflect no_shear #
lump $-1 $-1 $47 $11 #
transform $-1 1 0 0 0 1 0 0 0 1 75.45152134769738 36.988446390101849 16.237123107859279 1 rotate no_reflect no_shear #
shell $-1 $-1 $-1 $48 $-1 $12 #
shell $-1 $-1 $-1 $49 $-1 $14 #
shell $-1 $-1 $-1 $50 $-1 $16 #
shell $-1 $-1 $-1 $51 $-1 $18 #
shell $-1 $-1 $-1 $52 $-1 $20 #
shell $-1 $-1 $-1 $53 $-1 $22 #
shell $-1 $-1 $-1 $54 $-1 $24 #
shell $-1 $-1 $-1 $55 $-1 $26 #
shell $-1 $-1 $-1 $56 $-1 $28 #
shell $-1 $-1 $-1 $57 $-1 $30 #
shell $-1 $-1 $-1 $58 $-1 $32 #
shell $-1 $-1 $-1 $59 $-1 $34 #
face $-1 $60 $61 $36 $-1 $62 forward single #
face $-1 $63 $64 $37 $-1 $65 forward single #
face $-1 $66 $67 $38 $-1 $68 reversed single #
face $-1 $69 $70 $39 $-1 $71 forward single #
face $-1 $72 $73 $40 $-1 $74 forward single #
face $-1 $75 $76 $41 $-1 $77 forward single #
face $-1 $78 $79 $42 $-1 $80 reversed single #
face $-1 $81 $82 $43 $-1 $83 forward single #
face $-1 $84 $85 $44 $-1 $86 forward single #
face $-1 $87 $88 $45 $-1 $89 reversed single #
face $-1 $90 $91 $46 $-1 $92 forward single #
face $-1 $93 $94 $47 $-1 $95 forward single #
face $-1 $96 $97 $36 $-1 $98 reversed single #
loop $-1 $-1 $99 $48 #
plane-surface $-1 0 0 16.237123107859279 0 0 1 1 0 0 forward_v I I I I #
face $-1 $100 $101 $37 $-1 $102 reversed single #
loop $-1 $-1 $103 $49 #
plane-surface $-1 0 -29.330695648626556 -0.80879257723132625 0 0 1 1 0 0 forward_v I I I I #
face $-1 $104 $105 $38 $-1 $106 reversed single #
loop $-1 $-1 $107 $50 #
plane-surface $-1 -195.9680510594398 5.3858613443070027 95.715152780759738 0 1 0 -0.79863551827123203 0 0.60181501223851219 forward_v I I I I #
face $-1 $108 $109 $39 $-1 $110 forward single #
loop $-1 $111 $112 $51 #
cone-surface $-1 -70.516541630393419 7.1325270694525216 10.068522721851497 0.79863551827123203 0 -0.60181501223851219 0.3009075061192561 0 0.39931775913561601 1 I I 0 1 0.5 forward I I I I #
face $-1 $113 $114 $40 $-1 $115 forward single #
loop $-1 $116 $117 $52 #
cone-surface $-1 -70.516541630393419 9.752525657170807 10.068522721851497 0.79863551827123203 0 -0.60181501223851219 0.3009075061192561 0 0.39931775913561601 1 I I 0 1 0.5 forward I I I I #
face $-1 $118 $119 $41 $-1 $120 forward single #
loop $-1 $121 $122 $53 #
cone-surface $-1 -70.516541630393419 12.372524244889092 10.068522721851497 0.79863551827123203 0 -0.60181501223851219 0.3009075061192561 0 0.39931775913561601 1 I I 0 1 0.5 forward I I I I #
face $-1 $123 $124 $42 $-1 $125 reversed single #
loop $-1 $-1 $126 $54 #
plane-surface $-1 108.83606730347235 -10.021309165295158 220.77933800483109 0 -1 0 -0.80901700255871778 0 -0.5877852410284794 forward_v I I I I #
face $-1 $127 $128 $43 $-1 $129 forward single #
loop $-1 $130 $131 $55 #
cone-surface $-1 72.383807307152153 -18.343906123763801 12.535353703120945 -0.80901700255871778 0 -0.5877852410284794 0.8816778615427191 0 -1.2135255038380768 1 I I 0 1 1.5 forward I I I I #
face $-1 $132 $133 $44 $-1 $134 forward single #
loop $-1 $135 $136 $56 #
cone-surface $-1 72.383807307152153 -13.350347948682611 12.535353703120945 -0.80901700255871778 0 -0.5877852410284794 0.8816778615427191 0 -1.2135255038380768 1 I I 0 1 1.5 forward I I I I #
face $-1 $137 $138 $45 $-1 $139 reversed single #
loop $-1 $-1 $140 $57 #
plane-surface $-1 -13.24705997494614 31.162628519173801 132.08075668218757 0.80901700255871778 0 0.5877852410284794 0.5877852410284794 0 -0.80901700255871778 forward_v I I I I #
face $-1 $141 $142 $46 $-1 $143 forward single #
loop $-1 $144 $145 $58 #
cone-surface $-1 72.383807307152153 28.665849431633198 12.535353703120945 -0.80901700255871778 0 -0.5877852410284794 0.8816778615427191 0 -1.2135255038380768 1 I I 0 1 1.5 forward I I I I #
face $-1 $146 $147 $47 $-1 $148 forward single #
loop $-1 $149 $150 $59 #
cone-surface $-1 72.383807307152153 33.659407606714403 12.535353703120945 -0.80901700255871778 0 -0.5877852410284794 0.8816778615427191 0 -1.2135255038380768 1 I I 0 1 1.5 forward I I I I #
face $-1 $151 $152 $36 $-1 $153 reversed single #
loop $-1 $-1 $154 $60 #
plane-surface $-1 0 0 -16.237123107859279 0 0 1 1 0 0 forward_v I I I I #
coedge $-1 $155 $156 $157 $158 forward $61 $-1 #
face $-1 $159 $160 $37 $-1 $161 reversed single #
loop $-1 $-1 $162 $63 #
plane-surface $-1 0 -29.330695648626556 -8.7586252143170036 0 0 1 1 0 0 forward_v I I I I #
coedge $-1 $163 $164 $165 $166 reversed $64 $-1 #
face $-1 $167 $168 $38 $-1 $169 reversed single #
loop $-1 $-1 $170 $66 #
plane-surface $-1 -75.451521347697351 9.752525657170807 4.8994362942020189 -0.79863551827123203 0 0.60181501223851219 0.60181501223851219 0 0.79863551827123203 forward_v I I I I #
coedge $-1 $171 $172 $173 $174 reversed $67 $-1 #
face $-1 $-1 $175 $39 $-1 $176 forward single #
loop $-1 $177 $178 $69 #
cone-surface $-1 -69.653682820681269 7.1325270694525216 9.4183119896127288 0.79863551827123203 0 -0.60181501223851219 0.15045375305962805 0 0.19965887956780801 1 I I -0.70710678118654746 0.70710678118654746 0.25 forward I I I I #
loop $-1 $-1 $179 $51 #
coedge $-1 $112 $112 $180 $181 reversed $70 $-1 #
face $-1 $-1 $182 $40 $-1 $183 forward single #
loop $-1 $184 $185 $72 #
cone-surface $-1 -69.653682820681269 9.752525657170807 9.4183119896127288 0.79863551827123203 0 -0.60181501223851219 0.15045375305962805 0 0.19965887956780801 1 I I -0.70710678118654746 0.70710678118654746 0.25 forward I I I I #
loop $-1 $-1 $186 $52 #
coedge $-1 $117 $117 $187 $188 reversed $73 $-1 #
face $-1 $-1 $189 $41 $-1 $190 forward single #
loop $-1 $191 $192 $75 #
cone-surface $-1 -69.653682820681269 12.372524244889092 9.4183119896127288 0.79863551827123203 0 -0.60181501223851219 0.15045375305962805 0 0.19965887956780801 1 I I -0.70710678118654746 0.70710678118654746 0.25 forward I I I I #
loop $-1 $-1 $193 $53 #
coedge $-1 $122 $122 $194 $195 reversed $76 $-1 #
face $-1 $196 $197 $42 $-1 $198 reversed single #
loop $-1 $-1 $199 $78 #
plane-surface $-1 -13.24705997494614 -15.84712703622321 132.08075668218757 0.80901700255871778 0 0.5877852410284794 0.5877852410284794 0 -0.80901700255871778 forward_v I I I I #
coedge $-1 $200 $201 $202 $203 reversed $79 $-1 #
face $-1 $-1 $204 $43 $-1 $205 forward single #
loop $-1 $206 $207 $81 #
cone-surface $-1 70.975959212944545 -18.343906123763801 11.512492219656334 -0.80901700255871778 0 -0.5877852410284794 0.44083893077135955 0 -0.60676275191903839 1 I I -0.70710678118654757 0.70710678118654757 0.75 forward I I I I #
loop $-1 $-1 $208 $55 #
coedge $-1 $131 $131 $209 $210 reversed $82 $-1 #
face $-1 $-1 $211 $44 $-1 $212 forward single #
loop $-1 $213 $214 $84 #
cone-surface $-1 70.975959212944545 -13.350347948682611 11.512492219656334 -0.80901700255871778 0 -0.5877852410284794 0.44083893077135955 0 -0.60676275191903839 1 I I -0.70710678118654757 0.70710678118654757 0.75 forward I I I I #
loop $-1 $-1 $215 $56 #
coedge $-1 $136 $136 $216 $217 reversed $85 $-1 #
face $-1 $218 $219 $45 $-1 $220 reversed single #
loop $-1 $-1 $221 $87 #
plane-surface $-1 108.83606730347235 25.336810648245748 220.77933800483109 0 1 0 0.80901700255871778 0 0.5877852410284794 forward_v I I I I #
coedge $-1 $222 $223 $224 $225 reversed $88 $-1 #
face $-1 $-1 $226 $46 $-1 $227 forward single #
loop $-1 $228 $229 $90 #
cone-surface $-1 70.975959212944545 28.665849431633198 11.512492219656334 -0.80901700255871778 0 -0.5877852410284794 0.44083893077135955 0 -0.60676275191903839 1 I I -0.70710678118654757 0.70710678118654757 0.75 forward I I I I #
loop $-1 $-1 $230 $58 #
coedge $-1 $145 $145 $231 $232 reversed $91 $-1 #
face $-1 $-1 $233 $47 $-1 $234 forward single #
loop $-1 $235 $236 $93 #
cone-surface $-1 70.975959212944545 33.659407606714403 11.512492219656334 -0.80901700255871778 0 -0.5877852410284794 0.44083893077135955 0 -0.60676275191903839 1 I I -0.70710678118654757 0.70710678118654757 0.75 forward I I I I #
loop $-1 $-1 $237 $59 #
coedge $-1 $150 $150 $238 $239 reversed $94 $-1 #
face $-1 $240 $241 $36 $-1 $242 reversed single #
loop $-1 $-1 $243 $96 #
plane-surface $-1 0 -36.988446390101849 0 0 1 0 0 0 1 forward_v I I I I #
coedge $-1 $244 $245 $246 $247 forward $97 $-1 #
coedge $-1 $248 $99 $249 $250 forward $61 $-1 #
coedge $-1 $99 $248 $251 $252 forward $61 $-1 #
coedge $-1 $253 $254 $99 $158 reversed $255 $-1 #
edge $-1 $256 -36.988446390101849 $257 36.988446390101849 $157 $258 forward 7 unknown #
face $-1 $259 $260 $37 $-1 $261 reversed single #
loop $-1 $-1 $262 $100 #
plane-surface $-1 0 -21.672944907151262 -4.7837088957741649 0 -1 0 0 0 -1 forward_v I I I I #
coedge $-1 $263 $264 $265 $266 reversed $101 $-1 #
coedge $-1 $267 $103 $268 $269 forward $64 $-1 #
coedge $-1 $103 $267 $270 $271 reversed $64 $-1 #
coedge $-1 $272 $273 $103 $166 forward $274 $-1 #
edge $-1 $275 7.0075970828379841 $276 22.32309856578857 $165 $277 forward 7 unknown #
face $-1 $278 $279 $38 $-1 $280 reversed single #
loop $-1 $-1 $281 $104 #
plane-surface $-1 -195.9680510594398 14.119189970034611 95.715152780759738 0 -1 0 0.79863551827123203 0 -0.60181501223851219 forward_v I I I I #
coedge $-1 $282 $283 $284 $285 reversed $105 $-1 #
coedge $-1 $172 $107 $286 $287 reversed $67 $-1 #
coedge $-1 $107 $171 $282 $288 reversed $67 $-1 #
coedge $-1 $284 $289 $107 $174 forward $290 $-1 #
edge $-1 $291 22.532504182022521 $292 31.076063756341753 $173 $293 forward 7 unknown #
loop $-1 $-1 $180 $108 #
plane-surface $-1 -75.451521347697351 9.752525657170807 4.8994362942020189 -0.79863551827123203 0 0.60181501223851219 0.60181501223851219 0 0.79863551827123203 forward_v I I I I #
loop $-1 $-1 $294 $69 #
coedge $-1 $178 $178 $179 $295 reversed $109 $-1 #
coedge $-1 $179 $179 $178 $295 forward $111 $-1 #
coedge $-1 $180 $180 $112 $181 forward $175 $-1 #
edge $-1 $296 0 $296 6.2831853071796004 $180 $297 forward 7 unknown #
loop $-1 $-1 $187 $113 #
plane-surface $-1 -75.451521347697351 9.752525657170807 4.8994362942020189 -0.79863551827123203 0 0.60181501223851219 0.60181501223851219 0 0.79863551827123203 forward_v I I I I #
loop $-1 $-1 $298 $72 #
coedge $-1 $185 $185 $186 $299 reversed $114 $-1 #
coedge $-1 $186 $186 $185 $299 forward $116 $-1 #
coedge $-1 $187 $187 $117 $188 forward $182 $-1 #
edge $-1 $300 0 $300 6.2831853071796004 $187 $301 forward 7 unknown #
loop $-1 $-1 $194 $118 #
plane-surface $-1 -75.451521347697351 9.752525657170807 4.8994362942020189 -0.79863551827123203 0 0.60181501223851219 0.60181501223851219 0 0.79863551827123203 forward_v I I I I #
loop $-1 $-1 $302 $75 #
coedge $-1 $192 $192 $193 $303 reversed $119 $-1 #
coedge $-1 $193 $193 $192 $303 forward $121 $-1 #
coedge $-1 $194 $194 $122 $195 forward $189 $-1 #
edge $-1 $304 0 $304 6.2831853071796004 $194 $305 forward 7 unknown #
face $-1 $306 $307 $42 $-1 $308 forward single #
loop $-1 $-1 $309 $123 #
plane-surface $-1 108.83606730347235 -21.672944907151262 220.77933800483109 0 1 0 0.80901700255871778 0 0.5877852410284794 forward_v I I I I #
coedge $-1 $310 $311 $312 $313 reversed $124 $-1 #
coedge $-1 $201 $126 $314 $315 reversed $79 $-1 #
coedge $-1 $126 $200 $310 $316 reversed $79 $-1 #
coedge $-1 $312 $317 $126 $203 forward $307 $-1 #
edge $-1 $318 -21.033487695961206 $319 -16.500230299447914 $202 $320 forward 7 unknown #
loop $-1 $-1 $209 $127 #
plane-surface $-1 -13.24705997494614 -15.84712703622321 132.08075668218757 0.80901700255871778 0 0.5877852410284794 0.5877852410284794 0 -0.80901700255871778 forward_v I I I I #
loop $-1 $-1 $321 $81 #
coedge $-1 $207 $207 $208 $322 reversed $128 $-1 #
coedge $-1 $208 $208 $207 $322 forward $130 $-1 #
coedge $-1 $209 $209 $131 $210 forward $204 $-1 #
edge $-1 $323 0 $323 6.2831853071796004 $209 $324 forward 7 unknown #
loop $-1 $-1 $216 $132 #
plane-surface $-1 -13.24705997494614 -15.84712703622321 132.08075668218757 0.80901700255871778 0 0.5877852410284794 0.5877852410284794 0 -0.80901700255871778 forward_v I I I I #
loop $-1 $-1 $325 $84 #
coedge $-1 $214 $214 $215 $326 reversed $133 $-1 #
coedge $-1 $215 $215 $214 $326 forward $135 $-1 #
coedge $-1 $216 $216 $136 $217 forward $211 $-1 #
edge $-1 $327 0 $327 6.2831853071796004 $216 $328 forward 7 unknown #
face $-1 $329 $330 $45 $-1 $331 forward single #
loop $-1 $-1 $332 $137 #
plane-surface $-1 75.45152134769738 0 0 -1 0 0 0 0 1 forward_v I I I I #
coedge $-1 $333 $334 $335 $336 reversed $138 $-1 #
coedge $-1 $337 $140 $338 $339 reversed $88 $-1 #
coedge $-1 $140 $337 $333 $340 forward $88 $-1 #
coedge $-1 $335 $341 $140 $225 forward $330 $-1 #
edge $-1 $342 -21.407132130514956 $343 -9.7554963886588482 $224 $344 forward 7 unknown #
loop $-1 $-1 $231 $141 #
plane-surface $-1 -13.24705997494614 31.162628519173801 132.08075668218757 0.80901700255871778 0 0.5877852410284794 0.5877852410284794 0 -0.80901700255871778 forward_v I I I I #
loop $-1 $-1 $345 $90 #
coedge $-1 $229 $229 $230 $346 reversed $142 $-1 #
coedge $-1 $230 $230 $229 $346 forward $144 $-1 #
coedge $-1 $231 $231 $145 $232 forward $226 $-1 #
edge $-1 $347 0 $347 6.2831853071796004 $231 $348 forward 7 unknown #
loop $-1 $-1 $238 $146 #
plane-surface $-1 -13.24705997494614 31.162628519173801 132.08075668218757 0.80901700255871778 0 0.5877852410284794 0.5877852410284794 0 -0.80901700255871778 forward_v I I I I #
loop $-1 $-1 $349 $93 #
coedge $-1 $236 $236 $237 $350 reversed $147 $-1 #
coedge $-1 $237 $237 $236 $350 forward $149 $-1 #
coedge $-1 $238 $238 $150 $239 forward $233 $-1 #
edge $-1 $351 0 $351 6.2831853071796004 $238 $352 forward 7 unknown #
face $-1 $353 $354 $36 $-1 $355 reversed single #
loop $-1 $-1 $356 $151 #
plane-surface $-1 -75.45152134769738 0 0 1 0 0 0 0 -1 forward_v I I I I #
coedge $-1 $357 $251 $358 $359 forward $152 $-1 #
coedge $-1 $360 $154 $357 $361 forward $97 $-1 #
coedge $-1 $154 $360 $362 $363 forward $97 $-1 #
coedge $-1 $254 $253 $154 $247 reversed $255 $-1 #
edge $-1 $364 -36.988446390101849 $365 36.988446390101849 $246 $366 forward 7 unknown #
coedge $-1 $156 $155 $367 $368 forward $61 $-1 #
coedge $-1 $369 $370 $155 $250 reversed $354 $-1 #
edge $-1 $257 -75.45152134769738 $371 75.45152134769738 $249 $372 forward 7 unknown #
coedge $-1 $243 $373 $156 $252 reversed $152 $-1 #
edge $-1 $374 -75.45152134769738 $256 75.45152134769738 $251 $375 forward 7 unknown #
coedge $-1 $246 $157 $373 $376 forward $255 $-1 #
coedge $-1 $157 $246 $369 $377 reversed $255 $-1 #
loop $-1 $-1 $253 $353 #
vertex $-1 $158 $378 #
vertex $-1 $158 $379 #
straight-curve $-1 75.45152134769738 0 16.237123107859279 0 1 0 I I #
face $-1 $380 $381 $37 $-1 $382 reversed single #
loop $-1 $-1 $383 $159 #
plane-surface $-1 -75.45152134769738 0 0 1 0 0 0 0 -1 forward_v I I I I #
coedge $-1 $384 $268 $273 $385 reversed $160 $-1 #
coedge $-1 $386 $162 $387 $388 reversed $101 $-1 #
coedge $-1 $162 $386 $384 $389 forward $101 $-1 #
coedge $-1 $273 $272 $162 $266 forward $274 $-1 #
edge $-1 $390 -22.32309856578857 $391 -7.0075970828379841 $265 $392 forward 7 unknown #
coedge $-1 $164 $163 $383 $393 reversed $64 $-1 #
coedge $-1 $262 $394 $163 $269 reversed $160 $-1 #
edge $-1 $275 -75.45152134769738 $395 75.45152134769738 $268 $396 forward 7 unknown #
coedge $-1 $397 $398 $164 $271 forward $381 $-1 #
edge $-1 $276 -75.45152134769738 $399 75.45152134769738 $270 $400 forward 7 unknown #
coedge $-1 $265 $165 $398 $401 forward $274 $-1 #
coedge $-1 $165 $265 $262 $385 forward $274 $-1 #
loop $-1 $-1 $165 $380 #
vertex $-1 $166 $402 #
vertex $-1 $401 $403 #
straight-curve $-1 75.45152134769738 -14.665347824313278 -0.80879257723132625 0 -1 0 I I #
face $-1 $-1 $290 $38 $-1 $404 forward single #
loop $-1 $-1 $405 $167 #
plane-surface $-1 -75.45152134769738 0 0 1 0 0 0 0 -1 forward_v I I I I #
coedge $-1 $406 $407 $408 $409 reversed $168 $-1 #
coedge $-1 $410 $170 $172 $288 forward $105 $-1 #
coedge $-1 $170 $410 $406 $411 forward $105 $-1 #
coedge $-1 $408 $173 $170 $285 forward $290 $-1 #
edge $-1 $292 0.5095985157215992 $412 9.2429271414492078 $284 $413 forward 7 unknown #
coedge $-1 $414 $415 $171 $287 forward $279 $-1 #
edge $-1 $416 -42.958140096177885 $291 -31.62045328252059 $286 $417 forward 7 unknown #
edge $-1 $292 -14.196321794201449 $416 4.6896506375148425e-014 $172 $418 forward 7 unknown #
coedge $-1 $173 $408 $414 $419 forward $290 $-1 #
loop $-1 $-1 $408 $278 #
vertex $-1 $287 $420 #
vertex $-1 $174 $421 #
straight-curve $-1 -97.984025529719901 5.3858613443070027 16.237123107859283 1 0 0 I I #
coedge $-1 $294 $294 $-1 $422 reversed $177 $-1 #
edge $-1 $423 0 $423 6.2831853071796004 $178 $424 forward 7 unknown #
vertex $-1 $181 $425 #
ellipse-curve $-1 -71.179741560537764 7.1325270694525216 10.568279701030637 -0.79863551827123203 0 0.60181501223851219 0.3009075061192561 0 0.39931775913561601 1 I I #
coedge $-1 $298 $298 $-1 $426 reversed $184 $-1 #
edge $-1 $427 0 $427 6.2831853071796004 $185 $428 forward 7 unknown #
vertex $-1 $188 $429 #
ellipse-curve $-1 -71.179741560537764 9.752525657170807 10.568279701030637 -0.79863551827123203 0 0.60181501223851219 0.3009075061192561 0 0.39931775913561601 1 I I #
coedge $-1 $302 $302 $-1 $430 reversed $191 $-1 #
edge $-1 $431 0 $431 6.2831853071796004 $192 $432 forward 7 unknown #
vertex $-1 $195 $433 #
ellipse-curve $-1 -71.179741560537764 12.372524244889092 10.568279701030637 -0.79863551827123203 0 0.60181501223851219 0.3009075061192561 0 0.39931775913561601 1 I I #
face $-1 $-1 $434 $42 $-1 $435 reversed single #
loop $-1 $-1 $202 $196 #
plane-surface $-1 0 0 16.237123107859279 0 0 1 1 0 0 forward_v I I I I #
coedge $-1 $436 $437 $438 $439 reversed $197 $-1 #
coedge $-1 $440 $199 $201 $316 forward $124 $-1 #
coedge $-1 $199 $440 $436 $441 forward $124 $-1 #
coedge $-1 $438 $202 $199 $313 forward $307 $-1 #
edge $-1 $319 2.0977456471835527 $442 13.749381389039657 $312 $443 forward 7 unknown #
coedge $-1 $444 $445 $200 $315 forward $434 $-1 #
edge $-1 $446 -100.39203959864646 $318 -94.152545894556269 $314 $447 forward 7 unknown #
edge $-1 $319 143.19060440997401 $446 150.90304269539476 $201 $448 forward 7 unknown #
coedge $-1 $202 $438 $444 $449 forward $307 $-1 #
vertex $-1 $315 $450 #
vertex $-1 $203 $451 #
straight-curve $-1 54.418033651736174 -10.021309165295158 16.237123107859276 -1 0 0 I I #
coedge $-1 $321 $321 $-1 $452 reversed $206 $-1 #
edge $-1 $453 0 $453 6.2831853071796004 $207 $454 forward 7 unknown #
vertex $-1 $210 $455 #
ellipse-curve $-1 73.184892649440727 -18.343906123763801 13.117376255814202 0.80901700255871778 0 0.5877852410284794 0.8816778615427191 0 -1.2135255038380768 1 I I #
coedge $-1 $325 $325 $-1 $456 reversed $213 $-1 #
edge $-1 $457 0 $457 6.2831853071796004 $214 $458 forward 7 unknown #
vertex $-1 $217 $459 #
ellipse-curve $-1 73.184892649440727 -13.350347948682611 13.117376255814202 0.80901700255871778 0 0.5877852410284794 0.8816778615427191 0 -1.2135255038380768 1 I I #
face $-1 $-1 $460 $45 $-1 $461 reversed single #
loop $-1 $-1 $335 $218 #
plane-surface $-1 0 0 16.237123107859279 0 0 1 1 0 0 forward_v I I I I #
coedge $-1 $462 $463 $334 $464 forward $219 $-1 #
coedge $-1 $334 $221 $223 $340 reversed $138 $-1 #
coedge $-1 $221 $333 $332 $464 reversed $138 $-1 #
coedge $-1 $465 $224 $221 $336 forward $330 $-1 #
edge $-1 $343 16.500230299447914 $466 21.033487695961206 $335 $467 forward 7 unknown #
coedge $-1 $223 $222 $462 $468 reversed $88 $-1 #
coedge $-1 $469 $470 $222 $339 forward $460 $-1 #
edge $-1 $471 -93.58204059189319 $342 -85.869602306472444 $338 $472 forward 7 unknown #
edge $-1 $473 -150.90304269539476 $343 -143.19060440997401 $333 $474 forward 7 unknown #
coedge $-1 $224 $465 $469 $475 forward $330 $-1 #
vertex $-1 $339 $476 #
vertex $-1 $225 $477 #
straight-curve $-1 70.918263951184088 15.5813142595869 16.237123107859276 0 -1 0 I I #
coedge $-1 $345 $345 $-1 $478 reversed $228 $-1 #
edge $-1 $479 0 $479 6.2831853071796004 $229 $480 forward 7 unknown #
vertex $-1 $232 $481 #
ellipse-curve $-1 73.184892649440727 28.665849431633198 13.117376255814202 0.80901700255871778 0 0.5877852410284794 0.8816778615427191 0 -1.2135255038380768 1 I I #
coedge $-1 $349 $349 $-1 $482 reversed $235 $-1 #
edge $-1 $483 0 $483 6.2831853071796004 $236 $484 forward 7 unknown #
vertex $-1 $239 $485 #
ellipse-curve $-1 73.184892649440727 33.659407606714403 13.117376255814202 0.80901700255871778 0 0.5877852410284794 0.8816778615427191 0 -1.2135255038380768 1 I I #
face $-1 $-1 $255 $36 $-1 $486 reversed single #
loop $-1 $-1 $369 $240 #
plane-surface $-1 0 36.988446390101849 0 0 -1 0 0 0 -1 forward_v I I I I #
coedge $-1 $487 $367 $370 $488 forward $241 $-1 #
coedge $-1 $373 $243 $244 $361 reversed $152 $-1 #
coedge $-1 $367 $487 $243 $359 reversed $241 $-1 #
edge $-1 $374 -16.237123107859279 $489 16.237123107859279 $358 $490 forward 7 unknown #
coedge $-1 $245 $244 $487 $491 forward $97 $-1 #
edge $-1 $365 -75.45152134769738 $489 75.45152134769738 $357 $492 forward 7 unknown #
coedge $-1 $370 $369 $245 $363 reversed $354 $-1 #
edge $-1 $493 -75.45152134769738 $364 75.45152134769738 $362 $494 forward 7 unknown #
vertex $-1 $247 $495 #
vertex $-1 $376 $496 #
straight-curve $-1 75.45152134769738 0 -16.237123107859279 0 -1 0 I I #
coedge $-1 $356 $358 $248 $368 reversed $241 $-1 #
edge $-1 $371 -36.988446390101849 $374 36.988446390101849 $367 $497 forward 7 unknown #
coedge $-1 $362 $249 $254 $377 forward $354 $-1 #
coedge $-1 $249 $362 $356 $488 reversed $354 $-1 #
vertex $-1 $250 $498 #
straight-curve $-1 0 36.988446390101849 16.237123107859279 -1 0 0 I I #
coedge $-1 $251 $357 $253 $376 reversed $152 $-1 #
vertex $-1 $368 $499 #
straight-curve $-1 0 -36.988446390101849 16.237123107859279 1 0 0 I I #
edge $-1 $256 -16.237123107859279 $365 16.237123107859279 $253 $500 forward 7 unknown #
edge $-1 $257 -16.237123107859279 $364 16.237123107859279 $254 $501 forward 7 unknown #
point $-1 75.45152134769738 -36.988446390101849 16.237123107859279 #
point $-1 75.45152134769738 36.988446390101849 16.237123107859279 #
face $-1 $-1 $274 $37 $-1 $502 reversed single #
loop $-1 $-1 $270 $259 #
plane-surface $-1 0 -36.988446390101849 0 0 1 0 0 0 1 forward_v I I I I #
coedge $-1 $503 $504 $267 $393 forward $260 $-1 #
coedge $-1 $394 $262 $264 $389 reversed $160 $-1 #
edge $-1 $391 -6.3667707664299211 $275 1.5830618706557562 $273 $505 forward 7 unknown #
coedge $-1 $264 $263 $506 $507 reversed $101 $-1 #
coedge $-1 $398 $397 $263 $388 forward $381 $-1 #
edge $-1 $508 -75.45152134769738 $390 75.45152134769738 $387 $509 forward 7 unknown #
edge $-1 $510 -75.45152134769738 $391 75.45152134769738 $384 $511 forward 7 unknown #
vertex $-1 $388 $512 #
vertex $-1 $266 $513 #
straight-curve $-1 75.45152134769738 -14.665347824313278 -8.7586252143170036 0 1 0 I I #
edge $-1 $399 -22.32309856578857 $395 -7.0075970828379841 $383 $514 forward 7 unknown #
coedge $-1 $268 $384 $503 $515 reversed $160 $-1 #
vertex $-1 $393 $516 #
straight-curve $-1 0 -21.672944907151262 -0.80879257723132625 -1 0 0 I I #
coedge $-1 $387 $270 $504 $517 forward $381 $-1 #
coedge $-1 $270 $387 $272 $401 reversed $381 $-1 #
vertex $-1 $517 $518 #
straight-curve $-1 0 -36.988446390101849 -0.80879257723132625 -1 0 0 I I #
edge $-1 $276 0.80879257723132625 $390 8.7586252143170036 $272 $519 forward 7 unknown #
point $-1 75.45152134769738 -21.672944907151262 -0.80879257723132625 #
point $-1 75.45152134769738 -36.988446390101849 -0.80879257723132625 #
plane-surface $-1 0 0 16.237123107859279 0 0 1 1 0 0 forward_v I I I I #
coedge $-1 $415 $414 $407 $520 forward $279 $-1 #
coedge $-1 $407 $281 $283 $411 reversed $168 $-1 #
coedge $-1 $281 $406 $405 $520 reversed $168 $-1 #
coedge $-1 $289 $284 $281 $409 forward $290 $-1 #
edge $-1 $412 -31.076063756341753 $521 -22.532504182022521 $408 $522 forward 7 unknown #
coedge $-1 $283 $282 $415 $523 reversed $105 $-1 #
edge $-1 $524 -4.6896506375148425e-014 $412 14.196321794201449 $406 $525 forward 7 unknown #
vertex $-1 $285 $526 #
straight-curve $-1 -66.907961773378162 4.8762628285854035 16.237123107859279 0 1 0 I I #
coedge $-1 $405 $286 $289 $419 reversed $279 $-1 #
coedge $-1 $286 $405 $410 $523 forward $279 $-1 #
vertex $-1 $287 $527 #
straight-curve $-1 -75.45152134769738 5.3858613443070027 47.857576390379869 0 0 1 I I #
straight-curve $-1 -75.451521347697351 5.3858613443070027 4.8994362942020189 -0.60181501223851219 0 -0.79863551827123203 I I #
edge $-1 $521 -14.119189970034611 $291 -5.3858613443070027 $414 $528 forward 7 unknown #
point $-1 -75.45152134769738 5.3858613443070027 16.237123107859279 #
point $-1 -66.907961773378148 5.3858613443070027 16.237123107859279 #
edge $-1 $529 1 $529 0 $294 $-1 forward 7 unknown #
vertex $-1 $295 $530 #
ellipse-curve $-1 -69.853341700249075 7.1325270694525216 9.5687657426723565 -0.79863551827123203 0 0.60181501223851219 0.3009075061192561 0 0.39931775913561601 1 I I #
point $-1 -70.878834054418505 7.1325270694525216 10.967597460166257 #
edge $-1 $531 1 $531 0 $298 $-1 forward 7 unknown #
vertex $-1 $299 $532 #
ellipse-curve $-1 -69.853341700249075 9.752525657170807 9.5687657426723565 -0.79863551827123203 0 0.60181501223851219 0.3009075061192561 0 0.39931775913561601 1 I I #
point $-1 -70.878834054418505 9.752525657170807 10.967597460166257 #
edge $-1 $533 1 $533 0 $302 $-1 forward 7 unknown #
vertex $-1 $303 $534 #
ellipse-curve $-1 -69.853341700249075 12.372524244889092 9.5687657426723565 -0.79863551827123203 0 0.60181501223851219 0.3009075061192561 0 0.39931775913561601 1 I I #
point $-1 -70.878834054418505 12.372524244889092 10.967597460166257 #
loop $-1 $-1 $314 $306 #
plane-surface $-1 75.45152134769738 0 0 -1 0 0 0 0 1 forward_v I I I I #
coedge $-1 $437 $309 $311 $441 reversed $197 $-1 #
coedge $-1 $309 $436 $535 $536 reversed $197 $-1 #
coedge $-1 $317 $312 $309 $439 forward $307 $-1 #
edge $-1 $442 16.500230299447914 $537 21.033487695961206 $438 $538 forward 7 unknown #
coedge $-1 $311 $310 $445 $539 reversed $124 $-1 #
edge $-1 $540 -150.90304269539476 $442 -143.19060440997401 $436 $541 forward 7 unknown #
vertex $-1 $313 $542 #
straight-curve $-1 70.918263951184088 -7.9235635181116049 16.237123107859276 0 -1 0 I I #
coedge $-1 $535 $314 $317 $449 reversed $434 $-1 #
coedge $-1 $314 $535 $440 $539 forward $434 $-1 #
vertex $-1 $315 $543 #
straight-curve $-1 75.45152134769738 -10.021309165295158 110.38966900241554 0 0 1 I I #
straight-curve $-1 -13.24705997494614 -10.021309165295158 132.08075668218757 0.5877852410284794 0 -0.80901700255871778 I I #
edge $-1 $537 -21.672944907151262 $318 -10.021309165295158 $444 $544 forward 7 unknown #
point $-1 75.45152134769738 -10.021309165295158 16.237123107859279 #
point $-1 70.918263951184088 -10.021309165295158 16.237123107859276 #
edge $-1 $545 1 $545 0 $321 $-1 forward 7 unknown #
vertex $-1 $322 $546 #
ellipse-curve $-1 71.58272196486358 -18.343906123763801 11.953331150427694 0.80901700255871778 0 0.5877852410284794 0.8816778615427191 0 -1.2135255038380768 1 I I #
point $-1 74.066570510983439 -18.343906123763801 11.903850751976121 #
edge $-1 $547 1 $547 0 $325 $-1 forward 7 unknown #
vertex $-1 $326 $548 #
ellipse-curve $-1 71.58272196486358 -13.350347948682611 11.953331150427694 0.80901700255871778 0 0.5877852410284794 0.8816778615427191 0 -1.2135255038380768 1 I I #
point $-1 74.066570510983439 -13.350347948682611 11.903850751976121 #
loop $-1 $-1 $338 $329 #
plane-surface $-1 0 36.988446390101849 0 0 -1 0 0 0 -1 forward_v I I I I #
coedge $-1 $549 $332 $337 $468 forward $219 $-1 #
coedge $-1 $332 $549 $465 $550 reversed $219 $-1 #
edge $-1 $466 94.152545894556269 $473 100.39203959864646 $332 $551 forward 7 unknown #
coedge $-1 $341 $335 $463 $550 forward $330 $-1 #
vertex $-1 $550 $552 #
straight-curve $-1 54.418033651736174 25.336810648245748 16.237123107859276 1 0 0 I I #
edge $-1 $473 9.7554963886588482 $471 21.407132130514956 $462 $553 forward 7 unknown #
coedge $-1 $470 $338 $341 $475 reversed $460 $-1 #
coedge $-1 $338 $469 $549 $554 forward $460 $-1 #
vertex $-1 $339 $555 #
straight-curve $-1 20.44537906245451 36.988446390101849 85.707091376750768 -0.5877852410284794 0 0.80901700255871778 I I #
vertex $-1 $468 $556 #
straight-curve $-1 -13.24705997494614 25.336810648245748 132.08075668218757 -0.5877852410284794 0 0.80901700255871778 I I #
edge $-1 $557 -75.45152134769738 $342 -70.918263951184088 $469 $558 forward 7 unknown #
point $-1 70.918263951184088 36.988446390101856 16.237123107859276 #
point $-1 70.918263951184088 25.336810648245748 16.237123107859276 #
edge $-1 $559 1 $559 0 $345 $-1 forward 7 unknown #
vertex $-1 $346 $560 #
ellipse-curve $-1 71.58272196486358 28.665849431633198 11.953331150427694 0.80901700255871778 0 0.5877852410284794 0.8816778615427191 0 -1.2135255038380768 1 I I #
point $-1 74.066570510983439 28.665849431633198 11.903850751976121 #
edge $-1 $561 1 $561 0 $349 $-1 forward 7 unknown #
vertex $-1 $350 $562 #
ellipse-curve $-1 71.58272196486358 33.659407606714403 11.953331150427694 0.80901700255871778 0 0.5877852410284794 0.8816778615427191 0 -1.2135255038380768 1 I I #
point $-1 74.066570510983439 33.659407606714403 11.903850751976121 #
plane-surface $-1 75.45152134769738 0 0 -1 0 0 0 0 1 forward_v I I I I #
coedge $-1 $358 $356 $360 $491 reversed $241 $-1 #
edge $-1 $371 -16.237123107859279 $493 16.237123107859279 $370 $563 forward 7 unknown #
vertex $-1 $491 $564 #
straight-curve $-1 -75.45152134769738 -36.988446390101849 0 0 0 -1 I I #
edge $-1 $489 -36.988446390101849 $493 36.988446390101849 $487 $565 forward 7 unknown #
straight-curve $-1 0 -36.988446390101849 -16.237123107859279 -1 0 0 I I #
vertex $-1 $363 $566 #
straight-curve $-1 0 36.988446390101849 -16.237123107859279 1 0 0 I I #
point $-1 75.45152134769738 36.988446390101849 -16.237123107859279 #
point $-1 75.45152134769738 -36.988446390101849 -16.237123107859279 #
straight-curve $-1 -75.45152134769738 0 16.237123107859279 0 -1 0 I I #
point $-1 -75.45152134769738 36.988446390101849 16.237123107859279 #
point $-1 -75.45152134769738 -36.988446390101849 16.237123107859279 #
straight-curve $-1 75.45152134769738 -36.988446390101849 0 0 0 -1 I I #
straight-curve $-1 75.45152134769738 36.988446390101849 0 0 0 -1 I I #
plane-surface $-1 75.45152134769738 0 0 -1 0 0 0 0 1 forward_v I I I I #
coedge $-1 $506 $383 $394 $515 forward $260 $-1 #
coedge $-1 $383 $506 $397 $517 reversed $260 $-1 #
straight-curve $-1 75.45152134769738 -21.672944907151262 -2.3918544478870825 0 0 1 I I #
coedge $-1 $504 $503 $386 $507 forward $260 $-1 #
edge $-1 $510 7.0075970828379841 $508 22.32309856578857 $506 $567 forward 7 unknown #
vertex $-1 $388 $568 #
straight-curve $-1 0 -36.988446390101849 -8.7586252143170036 1 0 0 I I #
vertex $-1 $507 $569 #
straight-curve $-1 0 -21.672944907151262 -8.7586252143170036 1 0 0 I I #
point $-1 75.45152134769738 -36.988446390101849 -8.7586252143170036 #
point $-1 75.45152134769738 -21.672944907151262 -8.7586252143170036 #
straight-curve $-1 -75.45152134769738 -14.665347824313278 -0.80879257723132625 0 1 0 I I #
edge $-1 $395 -1.5830618706557562 $510 6.3667707664299211 $503 $570 forward 7 unknown #
point $-1 -75.45152134769738 -21.672944907151262 -0.80879257723132625 #
edge $-1 $399 0.80879257723132625 $508 8.7586252143170036 $504 $571 forward 7 unknown #
point $-1 -75.45152134769738 -36.988446390101849 -0.80879257723132625 #
straight-curve $-1 75.45152134769738 -36.988446390101849 0 0 0 -1 I I #
edge $-1 $521 31.62045328252059 $524 42.958140096177885 $405 $572 forward 7 unknown #
vertex $-1 $419 $573 #
straight-curve $-1 -97.984025529719901 14.119189970034611 16.237123107859283 -1 0 0 I I #
edge $-1 $524 -9.2429271414492078 $416 -0.5095985157215992 $415 $574 forward 7 unknown #
vertex $-1 $523 $575 #
straight-curve $-1 -75.451521347697351 14.119189970034611 4.8994362942020189 0.60181501223851219 0 0.79863551827123203 I I #
point $-1 -66.907961773378148 14.119189970034611 16.237123107859279 #
point $-1 -75.45152134769738 5.3858613443070027 4.8994362942019816 #
straight-curve $-1 -75.45152134769738 0 16.237123107859279 0 -1 0 I I #
vertex $-1 $422 $576 #
point $-1 -69.552434194129816 7.1325270694525216 9.968083501807973 #
vertex $-1 $426 $577 #
point $-1 -69.552434194129816 9.752525657170807 9.968083501807973 #
vertex $-1 $430 $578 #
point $-1 -69.552434194129816 12.372524244889092 9.968083501807973 #
coedge $-1 $445 $444 $437 $536 forward $434 $-1 #
edge $-1 $537 94.152545894556269 $540 100.39203959864646 $535 $579 forward 7 unknown #
vertex $-1 $449 $580 #
straight-curve $-1 54.418033651736174 -21.672944907151262 16.237123107859276 1 0 0 I I #
edge $-1 $540 -13.749381389039657 $446 -2.0977456471835527 $445 $581 forward 7 unknown #
vertex $-1 $539 $582 #
straight-curve $-1 -13.24705997494614 -21.672944907151262 132.08075668218757 -0.5877852410284794 0 0.80901700255871778 I I #
point $-1 70.918263951184088 -21.672944907151262 16.237123107859276 #
point $-1 75.45152134769738 -10.021309165295158 9.997629403769082 #
straight-curve $-1 75.45152134769738 0 16.237123107859279 0 1 0 I I #
vertex $-1 $452 $583 #
point $-1 72.464399826406307 -18.343906123763801 10.739805646589616 #
vertex $-1 $456 $584 #
point $-1 72.464399826406307 -13.350347948682611 10.739805646589616 #
coedge $-1 $463 $462 $470 $554 reversed $219 $-1 #
edge $-1 $466 25.336810648245748 $557 36.988446390101849 $463 $585 forward 7 unknown #
straight-curve $-1 75.45152134769738 25.336810648245748 110.38966900241554 0 0 -1 I I #
point $-1 75.45152134769738 25.336810648245748 16.237123107859279 #
straight-curve $-1 75.45152134769738 15.5813142595869 9.9976294037690892 0 1 0 I I #
edge $-1 $557 -16.237123107859279 $471 -9.997629403769082 $549 $586 forward 7 unknown #
point $-1 75.45152134769738 36.988446390101856 9.997629403769082 #
point $-1 75.45152134769738 25.336810648245748 9.997629403769082 #
vertex $-1 $550 $587 #
straight-curve $-1 0 36.988446390101849 16.237123107859279 -1 0 0 I I #
vertex $-1 $478 $588 #
point $-1 72.464399826406307 28.665849431633198 10.739805646589616 #
vertex $-1 $482 $589 #
point $-1 72.464399826406307 33.659407606714403 10.739805646589616 #
straight-curve $-1 -75.45152134769738 36.988446390101849 0 0 0 -1 I I #
point $-1 -75.45152134769738 -36.988446390101849 -16.237123107859279 #
straight-curve $-1 -75.45152134769738 0 -16.237123107859279 0 1 0 I I #
point $-1 -75.45152134769738 36.988446390101849 -16.237123107859279 #
straight-curve $-1 -75.45152134769738 -14.665347824313278 -8.7586252143170036 0 -1 0 I I #
point $-1 -75.45152134769738 -36.988446390101849 -8.7586252143170036 #
point $-1 -75.45152134769738 -21.672944907151262 -8.7586252143170036 #
straight-curve $-1 -75.45152134769738 -21.672944907151262 -2.3918544478870825 0 0 -1 I I #
straight-curve $-1 -75.45152134769738 -36.988446390101849 0 0 0 -1 I I #
straight-curve $-1 -75.45152134769738 14.119189970034611 47.857576390379869 0 0 -1 I I #
point $-1 -75.45152134769738 14.119189970034611 16.237123107859279 #
straight-curve $-1 -75.45152134769738 4.8762628285854035 4.8994362942019896 0 -1 0 I I #
point $-1 -75.45152134769738 14.119189970034611 4.8994362942019816 #
point $-1 -69.454023941113462 7.1325270694525216 9.267858236553101 #
point $-1 -69.454023941113462 9.752525657170807 9.267858236553101 #
point $-1 -69.454023941113462 12.372524244889092 9.267858236553101 #
straight-curve $-1 75.45152134769738 -21.672944907151262 110.38966900241554 0 0 -1 I I #
point $-1 75.45152134769738 -21.672944907151262 16.237123107859279 #
straight-curve $-1 75.45152134769738 -7.9235635181116049 9.9976294037690892 0 1 0 I I #
point $-1 75.45152134769738 -21.672944907151262 9.997629403769082 #
point $-1 70.36919646102551 -18.343906123763801 11.071653288884974 #
point $-1 70.36919646102551 -13.350347948682611 11.071653288884974 #
straight-curve $-1 75.45152134769738 0 16.237123107859279 0 1 0 I I #
straight-curve $-1 75.45152134769738 36.988446390101849 0 0 0 -1 I I #
point $-1 75.45152134769738 36.988446390101849 16.237123107859279 #
point $-1 70.36919646102551 28.665849431633198 11.071653288884974 #
point $-1 70.36919646102551 33.659407606714403 11.071653288884974 #
End-of-ACIS-data 