500 0 12 0           
7 Unknown 11 ACIS 5.0 NT 24 Fri Mar 26 03:04:30 1999 
-1 9.9999999999999995e-007 1e-010 
body $-1 $12 $-1 $13 #
body $-1 $14 $-1 $15 #
body $-1 $16 $-1 $17 #
body $-1 $18 $-1 $19 #
body $-1 $20 $-1 $21 #
body $-1 $22 $-1 $23 #
body $-1 $24 $-1 $25 #
body $-1 $26 $-1 $27 #
body $-1 $28 $-1 $29 #
body $-1 $30 $-1 $31 #
body $-1 $32 $-1 $33 #
body $-1 $34 $-1 $35 #
lump $-1 $-1 $36 $0 #
transform $-1 1 0 0 0 1 0 0 0 1 61.891537217322309 31.240238369462585 8.4432638623042617 1 rotate no_reflect no_shear #
lump $-1 $-1 $37 $1 #
transform $-1 1 0 0 0 1 0 0 0 1 61.891537217322309 31.240238369462585 8.4432638623042617 1 rotate no_reflect no_shear #
lump $-1 $-1 $38 $2 #
transform $-1 1 0 0 0 1 0 0 0 1 61.891537217322309 31.240238369462585 8.4432638623042617 1 rotate no_reflect no_shear #
lump $-1 $-1 $39 $3 #
transform $-1 1 0 0 0 1 0 0 0 1 61.891537217322309 31.240238369462585 8.4432638623042617 1 rotate no_reflect no_shear #
lump $-1 $-1 $40 $4 #
transform $-1 1 0 0 0 1 0 0 0 1 61.891537217322309 31.240238369462585 8.4432638623042617 1 rotate no_reflect no_shear #
lump $-1 $-1 $41 $5 #
transform $-1 1 0 0 0 1 0 0 0 1 61.891537217322309 31.240238369462585 8.4432638623042617 1 rotate no_reflect no_shear #
lump $-1 $-1 $42 $6 #
transform $-1 1 0 0 0 1 0 0 0 1 61.891537217322309 31.240238369462585 8.4432638623042617 1 rotate no_reflect no_shear #
lump $-1 $-1 $43 $7 #
transform $-1 1 0 0 0 1 0 0 0 1 61.891537217322309 31.240238369462585 8.4432638623042617 1 rotate no_reflect no_shear #
lump $-1 $-1 $44 $8 #
transform $-1 1 0 0 0 1 0 0 0 1 61.891537217322309 31.240238369462585 8.4432638623042617 1 rotate no_reflect no_shear #
lump $-1 $-1 $45 $9 #
transform $-1 1 0 0 0 1 0 0 0 1 61.891537217322309 31.240238369462585 8.4432638623042617 1 rotate no_reflect no_shear #
lump $-1 $-1 $46 $10 #
transform $-1 1 0 0 0 1 0 0 0 1 61.891537217322309 31.240238369462585 8.4432638623042617 1 rotate no_reflect no_shear #
lump $-1 $-1 $47 $11 #
transform $-1 1 0 0 0 1 0 0 0 1 61.891537217322309 31.240238369462585 8.4432638623042617 1 rotate no_reflect no_shear #
shell $-1 $-1 $-1 $48 $-1 $12 #
shell $-1 $-1 $-1 $49 $-1 $14 #
shell $-1 $-1 $-1 $50 $-1 $16 #
shell $-1 $-1 $-1 $51 $-1 $18 #
shell $-1 $-1 $-1 $52 $-1 $20 #
shell $-1 $-1 $-1 $53 $-1 $22 #
shell $-1 $-1 $-1 $54 $-1 $24 #
shell $-1 $-1 $-1 $55 $-1 $26 #
shell $-1 $-1 $-1 $56 $-1 $28 #
shell $-1 $-1 $-1 $57 $-1 $30 #
shell $-1 $-1 $-1 $58 $-1 $32 #
shell $-1 $-1 $-1 $59 $-1 $34 #
face $-1 $60 $61 $36 $-1 $62 forward single #
face $-1 $63 $64 $37 $-1 $65 reversed single #
face $-1 $66 $67 $38 $-1 $68 forward single #
face $-1 $69 $70 $39 $-1 $71 reversed single #
face $-1 $72 $73 $40 $-1 $74 forward single #
face $-1 $75 $76 $41 $-1 $77 reversed single #
face $-1 $78 $79 $42 $-1 $80 forward single #
face $-1 $81 $82 $43 $-1 $83 reversed single #
face $-1 $84 $85 $44 $-1 $86 forward single #
face $-1 $87 $88 $45 $-1 $89 reversed single #
face $-1 $90 $91 $46 $-1 $92 forward single #
face $-1 $93 $94 $47 $-1 $95 forward single #
face $-1 $96 $97 $36 $-1 $98 reversed single #
loop $-1 $-1 $99 $48 #
plane-surface $-1 0 0 8.4432638623042617 0 0 1 1 0 0 forward_v I I I I #
face $-1 $100 $101 $37 $-1 $102 reversed single #
loop $-1 $-1 $103 $49 #
plane-surface $-1 68.000895255050523 -19.733378212927285 178.41948256179566 0 -1 0 -0.73135370988377701 0 -0.68199835119979291 forward_v I I I I #
face $-1 $104 $105 $38 $-1 $106 forward single #
loop $-1 $107 $108 $50 #
cone-surface $-1 58.682171350002754 -23.500807758776762 5.1262134452979922 -0.73135370988377701 0 -0.68199835119979291 0.68199835119979291 0 -0.73135370988377701 1 I I 0 1 1 forward I I I I #
face $-1 $109 $110 $39 $-1 $111 reversed single #
loop $-1 $-1 $112 $51 #
plane-surface $-1 68.000895255050523 -4.0661730404094412 178.41948256179566 0 -1 0 -0.73135370988377701 0 -0.68199835119979291 forward_v I I I I #
face $-1 $113 $114 $40 $-1 $115 forward single #
loop $-1 $116 $117 $52 #
cone-surface $-1 58.682171350002754 -7.8336025862589196 5.1262134452979922 -0.73135370988377701 0 -0.68199835119979291 0.68199835119979291 0 -0.73135370988377701 1 I I 0 1 1 forward I I I I #
face $-1 $118 $119 $41 $-1 $120 reversed single #
loop $-1 $-1 $121 $53 #
plane-surface $-1 68.000895255050523 11.601032132108401 178.41948256179566 0 -1 0 -0.73135370988377701 0 -0.68199835119979291 forward_v I I I I #
face $-1 $122 $123 $42 $-1 $124 forward single #
loop $-1 $125 $126 $54 #
cone-surface $-1 58.682171350002754 7.8336025862589231 5.1262134452979922 -0.73135370988377701 0 -0.68199835119979291 0.68199835119979291 0 -0.73135370988377701 1 I I 0 1 1 forward I I I I #
face $-1 $127 $128 $43 $-1 $129 reversed single #
loop $-1 $-1 $130 $55 #
plane-surface $-1 68.000895255050523 27.268237304626247 178.41948256179566 0 -1 0 -0.73135370988377701 0 -0.68199835119979291 forward_v I I I I #
face $-1 $131 $132 $44 $-1 $133 forward single #
loop $-1 $134 $135 $56 #
cone-surface $-1 58.682171350002754 23.500807758776769 5.1262134452979922 -0.73135370988377701 0 -0.68199835119979291 0.68199835119979291 0 -0.73135370988377701 1 I I 0 1 1 forward I I I I #
face $-1 $136 $137 $45 $-1 $138 reversed single #
loop $-1 $-1 $139 $57 #
plane-surface $-1 -160.74909702164121 -13.355304394037661 75.157996933056083 0 -1 0 0.79863551827123203 0 -0.60181501223851219 forward_v I I I I #
face $-1 $140 $141 $46 $-1 $142 forward single #
loop $-1 $143 $144 $58 #
cone-surface $-1 -58.065373459304595 -26.130257233626892 3.8790023105324236 0.79863551827123203 0 -0.60181501223851219 0.60181501223851219 0 0.79863551827123203 1 I I 0 1 1 forward I I I I #
face $-1 $145 $146 $47 $-1 $147 forward single #
loop $-1 $148 $149 $59 #
cone-surface $-1 -58.065373459304595 -18.465285529873352 3.8790023105324236 0.79863551827123203 0 -0.60181501223851219 0.60181501223851219 0 0.79863551827123203 1 I I 0 1 1 forward I I I I #
face $-1 $150 $151 $36 $-1 $152 reversed single #
loop $-1 $-1 $153 $60 #
plane-surface $-1 0 0 -8.4432638623042617 0 0 1 1 0 0 forward_v I I I I #
coedge $-1 $154 $155 $156 $157 forward $61 $-1 #
face $-1 $158 $159 $37 $-1 $160 reversed single #
loop $-1 $-1 $161 $63 #
plane-surface $-1 -22.52831545354654 -23.500807758776762 93.999629890926784 0.73135370988377701 0 0.68199835119979291 0.68199835119979291 0 -0.73135370988377701 forward_v I I I I #
coedge $-1 $162 $163 $164 $165 reversed $64 $-1 #
face $-1 $-1 $166 $38 $-1 $167 forward single #
loop $-1 $168 $169 $66 #
cone-surface $-1 57.425754913956652 -23.500807758776762 3.9545861926791037 -0.73135370988377701 0 -0.68199835119979291 0.34099917559989645 0 -0.36567685494188851 1 I I -0.70710678118654746 0.70710678118654746 0.5 forward I I I I #
loop $-1 $-1 $170 $50 #
coedge $-1 $108 $108 $171 $172 reversed $67 $-1 #
face $-1 $173 $174 $39 $-1 $175 reversed single #
loop $-1 $-1 $176 $69 #
plane-surface $-1 -22.52831545354654 -7.8336025862589196 93.999629890926784 0.73135370988377701 0 0.68199835119979291 0.68199835119979291 0 -0.73135370988377701 forward_v I I I I #
coedge $-1 $177 $178 $179 $180 reversed $70 $-1 #
face $-1 $-1 $181 $40 $-1 $182 forward single #
loop $-1 $183 $184 $72 #
cone-surface $-1 57.425754913956652 -7.8336025862589196 3.9545861926791037 -0.73135370988377701 0 -0.68199835119979291 0.34099917559989645 0 -0.36567685494188851 1 I I -0.70710678118654746 0.70710678118654746 0.5 forward I I I I #
loop $-1 $-1 $185 $52 #
coedge $-1 $117 $117 $186 $187 reversed $73 $-1 #
face $-1 $188 $189 $41 $-1 $190 reversed single #
loop $-1 $-1 $191 $75 #
plane-surface $-1 -22.52831545354654 7.8336025862589231 93.999629890926784 0.73135370988377701 0 0.68199835119979291 0.68199835119979291 0 -0.73135370988377701 forward_v I I I I #
coedge $-1 $192 $193 $194 $195 reversed $76 $-1 #
face $-1 $-1 $196 $42 $-1 $197 forward single #
loop $-1 $198 $199 $78 #
cone-surface $-1 57.425754913956652 7.8336025862589231 3.9545861926791037 -0.73135370988377701 0 -0.68199835119979291 0.34099917559989645 0 -0.36567685494188851 1 I I -0.70710678118654746 0.70710678118654746 0.5 forward I I I I #
loop $-1 $-1 $200 $54 #
coedge $-1 $126 $126 $201 $202 reversed $79 $-1 #
face $-1 $203 $204 $43 $-1 $205 reversed single #
loop $-1 $-1 $206 $81 #
plane-surface $-1 -22.52831545354654 23.500807758776769 93.999629890926784 0.73135370988377701 0 0.68199835119979291 0.68199835119979291 0 -0.73135370988377701 forward_v I I I I #
coedge $-1 $207 $208 $209 $210 reversed $82 $-1 #
face $-1 $-1 $211 $44 $-1 $212 forward single #
loop $-1 $213 $214 $84 #
cone-surface $-1 57.425754913956652 23.500807758776769 3.9545861926791037 -0.73135370988377701 0 -0.68199835119979291 0.34099917559989645 0 -0.36567685494188851 1 I I -0.70710678118654746 0.70710678118654746 0.5 forward I I I I #
loop $-1 $-1 $215 $56 #
coedge $-1 $135 $135 $216 $217 reversed $85 $-1 #
face $-1 $218 $219 $45 $-1 $220 reversed single #
loop $-1 $-1 $221 $87 #
plane-surface $-1 -61.891537217322309 -22.297771381750124 0.66348447724976722 -0.79863551827123203 0 0.60181501223851219 0.60181501223851219 0 0.79863551827123203 forward_v I I I I #
coedge $-1 $222 $223 $224 $225 reversed $88 $-1 #
face $-1 $-1 $226 $46 $-1 $227 forward single #
loop $-1 $228 $229 $90 #
cone-surface $-1 -56.771133991067629 -26.130257233626892 2.9037229451685747 0.79863551827123203 0 -0.60181501223851219 0.3009075061192561 0 0.39931775913561601 1 I I -0.70710678118654746 0.70710678118654746 0.5 forward I I I I #
loop $-1 $-1 $230 $58 #
coedge $-1 $144 $144 $231 $232 reversed $91 $-1 #
face $-1 $-1 $233 $47 $-1 $234 forward single #
loop $-1 $235 $236 $93 #
cone-surface $-1 -56.771133991067629 -18.465285529873352 2.9037229451685747 0.79863551827123203 0 -0.60181501223851219 0.3009075061192561 0 0.39931775913561601 1 I I -0.70710678118654746 0.70710678118654746 0.5 forward I I I I #
loop $-1 $-1 $237 $59 #
coedge $-1 $149 $149 $238 $239 reversed $94 $-1 #
face $-1 $240 $241 $36 $-1 $242 reversed single #
loop $-1 $-1 $243 $96 #
plane-surface $-1 0 -31.240238369462585 0 0 1 0 0 0 1 forward_v I I I I #
coedge $-1 $244 $245 $246 $247 forward $97 $-1 #
coedge $-1 $248 $99 $249 $250 forward $61 $-1 #
coedge $-1 $99 $248 $251 $252 forward $61 $-1 #
coedge $-1 $253 $254 $99 $157 reversed $255 $-1 #
edge $-1 $256 -31.240238369462585 $257 31.240238369462585 $156 $258 forward 7 unknown #
face $-1 $259 $260 $37 $-1 $261 forward single #
loop $-1 $-1 $262 $100 #
plane-surface $-1 68.000895255050523 -27.26823730462624 178.41948256179566 0 1 0 0.73135370988377701 0 0.68199835119979291 forward_v I I I I #
coedge $-1 $263 $264 $265 $266 reversed $101 $-1 #
coedge $-1 $163 $103 $267 $268 reversed $64 $-1 #
coedge $-1 $103 $162 $263 $269 reversed $64 $-1 #
coedge $-1 $265 $270 $103 $165 forward $260 $-1 #
edge $-1 $271 -27.891089589797048 $272 -23.253837017366351 $164 $273 forward 7 unknown #
loop $-1 $-1 $171 $104 #
plane-surface $-1 -22.52831545354654 -23.500807758776762 93.999629890926784 0.73135370988377701 0 0.68199835119979291 0.68199835119979291 0 -0.73135370988377701 forward_v I I I I #
loop $-1 $-1 $274 $66 #
coedge $-1 $169 $169 $170 $275 reversed $105 $-1 #
coedge $-1 $170 $170 $169 $275 forward $107 $-1 #
coedge $-1 $171 $171 $108 $172 forward $166 $-1 #
edge $-1 $276 0 $276 6.2831853071796004 $171 $277 forward 7 unknown #
face $-1 $278 $279 $39 $-1 $280 reversed single #
loop $-1 $-1 $281 $109 #
plane-surface $-1 68.000895255050523 -11.601032132108397 178.41948256179566 0 1 0 0.73135370988377701 0 0.68199835119979291 forward_v I I I I #
coedge $-1 $282 $283 $284 $285 reversed $110 $-1 #
coedge $-1 $178 $112 $286 $287 reversed $70 $-1 #
coedge $-1 $112 $177 $282 $288 reversed $70 $-1 #
coedge $-1 $284 $289 $112 $180 forward $290 $-1 #
edge $-1 $291 -27.891089589797048 $292 -23.253837017366351 $179 $293 forward 7 unknown #
loop $-1 $-1 $186 $113 #
plane-surface $-1 -22.52831545354654 -7.8336025862589196 93.999629890926784 0.73135370988377701 0 0.68199835119979291 0.68199835119979291 0 -0.73135370988377701 forward_v I I I I #
loop $-1 $-1 $294 $72 #
coedge $-1 $184 $184 $185 $295 reversed $114 $-1 #
coedge $-1 $185 $185 $184 $295 forward $116 $-1 #
coedge $-1 $186 $186 $117 $187 forward $181 $-1 #
edge $-1 $296 0 $296 6.2831853071796004 $186 $297 forward 7 unknown #
face $-1 $298 $299 $41 $-1 $300 reversed single #
loop $-1 $-1 $301 $118 #
plane-surface $-1 68.000895255050523 4.0661730404094447 178.41948256179566 0 1 0 0.73135370988377701 0 0.68199835119979291 forward_v I I I I #
coedge $-1 $302 $303 $304 $305 reversed $119 $-1 #
coedge $-1 $193 $121 $306 $307 reversed $76 $-1 #
coedge $-1 $121 $192 $302 $308 reversed $76 $-1 #
coedge $-1 $304 $309 $121 $195 forward $310 $-1 #
edge $-1 $311 -27.891089589797048 $312 -23.253837017366351 $194 $313 forward 7 unknown #
loop $-1 $-1 $201 $122 #
plane-surface $-1 -22.52831545354654 7.8336025862589231 93.999629890926784 0.73135370988377701 0 0.68199835119979291 0.68199835119979291 0 -0.73135370988377701 forward_v I I I I #
loop $-1 $-1 $314 $78 #
coedge $-1 $199 $199 $200 $315 reversed $123 $-1 #
coedge $-1 $200 $200 $199 $315 forward $125 $-1 #
coedge $-1 $201 $201 $126 $202 forward $196 $-1 #
edge $-1 $316 0 $316 6.2831853071796004 $201 $317 forward 7 unknown #
face $-1 $318 $319 $43 $-1 $320 reversed single #
loop $-1 $-1 $321 $127 #
plane-surface $-1 68.000895255050523 19.733378212927292 178.41948256179566 0 1 0 0.73135370988377701 0 0.68199835119979291 forward_v I I I I #
coedge $-1 $322 $323 $324 $325 reversed $128 $-1 #
coedge $-1 $208 $130 $326 $327 reversed $82 $-1 #
coedge $-1 $130 $207 $322 $328 reversed $82 $-1 #
coedge $-1 $324 $329 $130 $210 forward $330 $-1 #
edge $-1 $331 -27.891089589797048 $332 -23.253837017366351 $209 $333 forward 7 unknown #
loop $-1 $-1 $216 $131 #
plane-surface $-1 -22.52831545354654 23.500807758776769 93.999629890926784 0.73135370988377701 0 0.68199835119979291 0.68199835119979291 0 -0.73135370988377701 forward_v I I I I #
loop $-1 $-1 $334 $84 #
coedge $-1 $214 $214 $215 $335 reversed $132 $-1 #
coedge $-1 $215 $215 $214 $335 forward $134 $-1 #
coedge $-1 $216 $216 $135 $217 forward $211 $-1 #
edge $-1 $336 0 $336 6.2831853071796004 $216 $337 forward 7 unknown #
face $-1 $338 $339 $45 $-1 $340 reversed single #
loop $-1 $-1 $224 $136 #
plane-surface $-1 -61.891537217322309 0 0 1 0 0 0 0 -1 forward_v I I I I #
coedge $-1 $341 $342 $343 $344 reversed $137 $-1 #
coedge $-1 $223 $139 $345 $346 reversed $88 $-1 #
coedge $-1 $139 $222 $341 $347 reversed $88 $-1 #
coedge $-1 $343 $348 $139 $225 forward $219 $-1 #
edge $-1 $349 29.135734604223778 $350 36.915513989278274 $224 $351 forward 7 unknown #
loop $-1 $-1 $231 $140 #
plane-surface $-1 -61.891537217322309 -22.297771381750124 0.66348447724976722 -0.79863551827123203 0 0.60181501223851219 0.60181501223851219 0 0.79863551827123203 forward_v I I I I #
loop $-1 $-1 $352 $90 #
coedge $-1 $229 $229 $230 $353 reversed $141 $-1 #
coedge $-1 $230 $230 $229 $353 forward $143 $-1 #
coedge $-1 $231 $231 $144 $232 forward $226 $-1 #
edge $-1 $354 0 $354 6.2831853071796004 $231 $355 forward 7 unknown #
loop $-1 $-1 $238 $145 #
plane-surface $-1 -61.891537217322309 -22.297771381750124 0.66348447724976722 -0.79863551827123203 0 0.60181501223851219 0.60181501223851219 0 0.79863551827123203 forward_v I I I I #
loop $-1 $-1 $356 $93 #
coedge $-1 $236 $236 $237 $357 reversed $146 $-1 #
coedge $-1 $237 $237 $236 $357 forward $148 $-1 #
coedge $-1 $238 $238 $149 $239 forward $233 $-1 #
edge $-1 $358 0 $358 6.2831853071796004 $238 $359 forward 7 unknown #
face $-1 $360 $361 $36 $-1 $362 reversed single #
loop $-1 $-1 $363 $150 #
plane-surface $-1 -61.891537217322309 0 0 1 0 0 0 0 -1 forward_v I I I I #
coedge $-1 $364 $251 $365 $366 forward $151 $-1 #
coedge $-1 $367 $153 $364 $368 forward $97 $-1 #
coedge $-1 $153 $367 $369 $370 forward $97 $-1 #
coedge $-1 $254 $253 $153 $247 reversed $255 $-1 #
edge $-1 $371 -31.240238369462585 $372 31.240238369462585 $246 $373 forward 7 unknown #
coedge $-1 $155 $154 $374 $375 forward $61 $-1 #
coedge $-1 $376 $377 $154 $250 reversed $361 $-1 #
edge $-1 $257 -61.891537217322309 $378 61.891537217322309 $249 $379 forward 7 unknown #
coedge $-1 $243 $380 $155 $252 reversed $151 $-1 #
edge $-1 $381 -61.891537217322309 $256 61.891537217322309 $251 $382 forward 7 unknown #
coedge $-1 $246 $156 $380 $383 forward $255 $-1 #
coedge $-1 $156 $246 $376 $384 reversed $255 $-1 #
loop $-1 $-1 $253 $360 #
vertex $-1 $157 $385 #
vertex $-1 $157 $386 #
straight-curve $-1 61.891537217322309 0 8.4432638623042617 0 1 0 I I #
face $-1 $-1 $387 $37 $-1 $388 reversed single #
loop $-1 $-1 $164 $158 #
plane-surface $-1 0 0 8.4432638623042617 0 0 1 1 0 0 forward_v I I I I #
coedge $-1 $389 $390 $391 $392 reversed $159 $-1 #
coedge $-1 $393 $161 $163 $269 forward $101 $-1 #
coedge $-1 $161 $393 $389 $394 forward $101 $-1 #
coedge $-1 $391 $164 $161 $266 forward $260 $-1 #
edge $-1 $272 7.9829743335389036 $395 15.517833425237859 $265 $396 forward 7 unknown #
coedge $-1 $397 $398 $162 $268 forward $387 $-1 #
edge $-1 $399 -85.739322098568081 $271 -80.766477418593567 $267 $400 forward 7 unknown #
edge $-1 $272 116.98356742077469 $399 123.78307443464459 $163 $401 forward 7 unknown #
coedge $-1 $164 $391 $397 $402 forward $260 $-1 #
vertex $-1 $268 $403 #
vertex $-1 $165 $404 #
straight-curve $-1 34.000447627525261 -19.733378212927285 8.4432638623042635 -1 0 0 I I #
coedge $-1 $274 $274 $-1 $405 reversed $168 $-1 #
edge $-1 $406 0 $406 6.2831853071796004 $169 $407 forward 7 unknown #
vertex $-1 $172 $408 #
ellipse-curve $-1 59.572910931106982 -23.500807758776762 5.9568415223169957 0.73135370988377701 0 0.68199835119979291 0.68199835119979291 0 -0.73135370988377701 1 I I #
face $-1 $-1 $290 $39 $-1 $409 forward single #
loop $-1 $-1 $410 $173 #
plane-surface $-1 61.891537217322309 0 0 -1 0 0 0 0 1 forward_v I I I I #
coedge $-1 $411 $412 $413 $414 reversed $174 $-1 #
coedge $-1 $415 $176 $178 $288 forward $110 $-1 #
coedge $-1 $176 $415 $411 $416 forward $110 $-1 #
coedge $-1 $413 $179 $176 $285 forward $290 $-1 #
edge $-1 $292 0.14937174727998137 $417 7.6842308389789373 $284 $418 forward 7 unknown #
coedge $-1 $419 $420 $177 $287 forward $279 $-1 #
edge $-1 $421 -85.739322098568081 $291 -80.766477418593567 $286 $422 forward 7 unknown #
edge $-1 $292 116.98356742077469 $421 123.78307443464459 $178 $423 forward 7 unknown #
coedge $-1 $179 $413 $419 $424 forward $290 $-1 #
loop $-1 $-1 $413 $278 #
vertex $-1 $287 $425 #
vertex $-1 $180 $426 #
straight-curve $-1 34.000447627525261 -4.0661730404094412 8.4432638623042635 -1 0 0 I I #
coedge $-1 $294 $294 $-1 $427 reversed $183 $-1 #
edge $-1 $428 0 $428 6.2831853071796004 $184 $429 forward 7 unknown #
vertex $-1 $187 $430 #
ellipse-curve $-1 59.572910931106982 -7.8336025862589196 5.9568415223169957 0.73135370988377701 0 0.68199835119979291 0.68199835119979291 0 -0.73135370988377701 1 I I #
face $-1 $-1 $310 $41 $-1 $431 forward single #
loop $-1 $-1 $432 $188 #
plane-surface $-1 61.891537217322309 0 0 -1 0 0 0 0 1 forward_v I I I I #
coedge $-1 $433 $434 $435 $436 reversed $189 $-1 #
coedge $-1 $437 $191 $193 $308 forward $119 $-1 #
coedge $-1 $191 $437 $433 $438 forward $119 $-1 #
coedge $-1 $435 $194 $191 $305 forward $310 $-1 #
edge $-1 $312 -7.6842308389789391 $439 -0.14937174727998315 $304 $440 forward 7 unknown #
coedge $-1 $441 $442 $192 $307 forward $299 $-1 #
edge $-1 $443 -85.739322098568081 $311 -80.766477418593567 $306 $444 forward 7 unknown #
edge $-1 $312 116.98356742077469 $443 123.78307443464459 $193 $445 forward 7 unknown #
coedge $-1 $194 $435 $441 $446 forward $310 $-1 #
loop $-1 $-1 $435 $298 #
vertex $-1 $307 $447 #
vertex $-1 $195 $448 #
straight-curve $-1 34.000447627525261 11.601032132108401 8.4432638623042635 -1 0 0 I I #
coedge $-1 $314 $314 $-1 $449 reversed $198 $-1 #
edge $-1 $450 0 $450 6.2831853071796004 $199 $451 forward 7 unknown #
vertex $-1 $202 $452 #
ellipse-curve $-1 59.572910931106982 7.8336025862589231 5.9568415223169957 0.73135370988377701 0 0.68199835119979291 0.68199835119979291 0 -0.73135370988377701 1 I I #
face $-1 $-1 $330 $43 $-1 $453 forward single #
loop $-1 $-1 $454 $203 #
plane-surface $-1 61.891537217322309 0 0 -1 0 0 0 0 1 forward_v I I I I #
coedge $-1 $455 $456 $457 $458 reversed $204 $-1 #
coedge $-1 $459 $206 $208 $328 forward $128 $-1 #
coedge $-1 $206 $459 $455 $460 forward $128 $-1 #
coedge $-1 $457 $209 $206 $325 forward $330 $-1 #
edge $-1 $332 -15.517833425237862 $461 -7.9829743335389072 $324 $462 forward 7 unknown #
coedge $-1 $463 $464 $207 $327 forward $319 $-1 #
edge $-1 $465 -85.739322098568081 $331 -80.766477418593567 $326 $466 forward 7 unknown #
edge $-1 $332 116.98356742077469 $465 123.78307443464459 $208 $467 forward 7 unknown #
coedge $-1 $209 $457 $463 $468 forward $330 $-1 #
loop $-1 $-1 $457 $318 #
vertex $-1 $327 $469 #
vertex $-1 $210 $470 #
straight-curve $-1 34.000447627525261 27.268237304626247 8.4432638623042635 -1 0 0 I I #
coedge $-1 $334 $334 $-1 $471 reversed $213 $-1 #
edge $-1 $472 0 $472 6.2831853071796004 $214 $473 forward 7 unknown #
vertex $-1 $217 $474 #
ellipse-curve $-1 59.572910931106982 23.500807758776769 5.9568415223169957 0.73135370988377701 0 0.68199835119979291 0.68199835119979291 0 -0.73135370988377701 1 I I #
face $-1 $-1 $475 $45 $-1 $476 forward single #
loop $-1 $-1 $477 $218 #
plane-surface $-1 0 -31.240238369462585 0 0 1 0 0 0 1 forward_v I I I I #
coedge $-1 $478 $221 $223 $347 forward $137 $-1 #
coedge $-1 $221 $478 $477 $479 reversed $137 $-1 #
coedge $-1 $480 $224 $221 $344 forward $219 $-1 #
edge $-1 $350 2.2064187031625995 $481 20.091352678587523 $343 $482 forward 7 unknown #
coedge $-1 $483 $484 $222 $346 forward $475 $-1 #
edge $-1 $485 -24.345495391331021 $349 -18.483011293498294 $345 $486 forward 7 unknown #
edge $-1 $350 0 $485 9.7413390803041278 $223 $487 forward 7 unknown #
coedge $-1 $224 $480 $483 $488 reversed $219 $-1 #
vertex $-1 $488 $489 #
vertex $-1 $225 $490 #
straight-curve $-1 -61.891537217322309 -13.355304394037661 37.578998466528041 0 0 -1 I I #
coedge $-1 $352 $352 $-1 $491 reversed $228 $-1 #
edge $-1 $492 0 $492 6.2831853071796004 $229 $493 forward 7 unknown #
vertex $-1 $232 $494 #
ellipse-curve $-1 -58.960295168405942 -26.130257233626892 4.5533741697770154 -0.79863551827123203 0 0.60181501223851219 0.60181501223851219 0 0.79863551827123203 1 I I #
coedge $-1 $356 $356 $-1 $495 reversed $235 $-1 #
edge $-1 $496 0 $496 6.2831853071796004 $236 $497 forward 7 unknown #
vertex $-1 $239 $498 #
ellipse-curve $-1 -58.960295168405942 -18.465285529873352 4.5533741697770154 -0.79863551827123203 0 0.60181501223851219 0.60181501223851219 0 0.79863551827123203 1 I I #
face $-1 $-1 $255 $36 $-1 $499 reversed single #
loop $-1 $-1 $376 $240 #
plane-surface $-1 0 31.240238369462585 0 0 -1 0 0 0 -1 forward_v I I I I #
coedge $-1 $500 $374 $377 $501 forward $241 $-1 #
coedge $-1 $380 $243 $244 $368 reversed $151 $-1 #
coedge $-1 $374 $500 $243 $366 reversed $241 $-1 #
edge $-1 $381 -8.4432638623042617 $502 8.4432638623042617 $365 $503 forward 7 unknown #
coedge $-1 $245 $244 $500 $504 forward $97 $-1 #
edge $-1 $372 -61.891537217322309 $502 61.891537217322309 $364 $505 forward 7 unknown #
coedge $-1 $377 $376 $245 $370 reversed $361 $-1 #
edge $-1 $506 -61.891537217322309 $371 61.891537217322309 $369 $507 forward 7 unknown #
vertex $-1 $247 $508 #
vertex $-1 $383 $509 #
straight-curve $-1 61.891537217322309 0 -8.4432638623042617 0 -1 0 I I #
coedge $-1 $363 $365 $248 $375 reversed $241 $-1 #
edge $-1 $378 -31.240238369462585 $381 31.240238369462585 $374 $510 forward 7 unknown #
coedge $-1 $369 $249 $254 $384 forward $361 $-1 #
coedge $-1 $249 $369 $363 $501 reversed $361 $-1 #
vertex $-1 $250 $511 #
straight-curve $-1 0 31.240238369462585 8.4432638623042617 -1 0 0 I I #
coedge $-1 $251 $364 $253 $383 reversed $151 $-1 #
vertex $-1 $375 $512 #
straight-curve $-1 0 -31.240238369462585 8.4432638623042617 1 0 0 I I #
edge $-1 $256 -8.4432638623042617 $372 8.4432638623042617 $253 $513 forward 7 unknown #
edge $-1 $257 -8.4432638623042617 $371 8.4432638623042617 $254 $514 forward 7 unknown #
point $-1 61.891537217322309 -31.240238369462585 8.4432638623042617 #
point $-1 61.891537217322309 31.240238369462585 8.4432638623042617 #
loop $-1 $-1 $267 $259 #
plane-surface $-1 61.891537217322309 0 0 -1 0 0 0 0 1 forward_v I I I I #
coedge $-1 $390 $262 $264 $394 reversed $159 $-1 #
coedge $-1 $262 $389 $515 $516 reversed $159 $-1 #
coedge $-1 $270 $265 $262 $392 forward $260 $-1 #
edge $-1 $395 23.253837017366351 $517 27.891089589797048 $391 $518 forward 7 unknown #
coedge $-1 $264 $263 $398 $519 reversed $101 $-1 #
edge $-1 $520 -123.78307443464459 $395 -116.98356742077469 $389 $521 forward 7 unknown #
vertex $-1 $266 $522 #
straight-curve $-1 57.254284644891605 -11.750403879388381 8.4432638623042564 0 -1 0 I I #
coedge $-1 $515 $267 $270 $402 reversed $387 $-1 #
coedge $-1 $267 $515 $393 $519 forward $387 $-1 #
vertex $-1 $268 $523 #
straight-curve $-1 61.891537217322309 -19.733378212927285 89.209741280897831 0 0 1 I I #
straight-curve $-1 -22.52831545354654 -19.733378212927285 93.999629890926784 0.68199835119979291 0 -0.73135370988377701 I I #
edge $-1 $517 -27.26823730462624 $271 -19.733378212927285 $397 $524 forward 7 unknown #
point $-1 61.891537217322309 -19.733378212927285 8.4432638623042617 #
point $-1 57.254284644891612 -19.733378212927285 8.4432638623042635 #
edge $-1 $525 1 $525 0 $274 $-1 forward 7 unknown #
vertex $-1 $275 $526 #
ellipse-curve $-1 57.791431768898541 -23.500807758776762 4.2955853682790002 0.73135370988377701 0 0.68199835119979291 0.68199835119979291 0 -0.73135370988377701 1 I I #
point $-1 60.254909282306762 -23.500807758776762 5.225487812433208 #
plane-surface $-1 0 0 8.4432638623042617 0 0 1 1 0 0 forward_v I I I I #
coedge $-1 $420 $419 $412 $527 forward $279 $-1 #
coedge $-1 $412 $281 $283 $416 reversed $174 $-1 #
coedge $-1 $281 $411 $410 $527 reversed $174 $-1 #
coedge $-1 $289 $284 $281 $414 forward $290 $-1 #
edge $-1 $417 23.253837017366351 $528 27.891089589797048 $413 $529 forward 7 unknown #
coedge $-1 $283 $282 $420 $530 reversed $110 $-1 #
edge $-1 $531 -123.78307443464459 $417 -116.98356742077469 $411 $532 forward 7 unknown #
vertex $-1 $285 $533 #
straight-curve $-1 57.254284644891605 -3.9168012931294598 8.4432638623042564 0 -1 0 I I #
coedge $-1 $410 $286 $289 $424 reversed $279 $-1 #
coedge $-1 $286 $410 $415 $530 forward $279 $-1 #
vertex $-1 $287 $534 #
straight-curve $-1 61.891537217322309 -4.0661730404094412 89.209741280897831 0 0 1 I I #
straight-curve $-1 -22.52831545354654 -4.0661730404094412 93.999629890926784 0.68199835119979291 0 -0.73135370988377701 I I #
edge $-1 $528 -11.601032132108397 $291 -4.0661730404094412 $419 $535 forward 7 unknown #
point $-1 61.891537217322309 -4.0661730404094412 8.4432638623042617 #
point $-1 57.254284644891612 -4.0661730404094412 8.4432638623042635 #
edge $-1 $536 1 $536 0 $294 $-1 forward 7 unknown #
vertex $-1 $295 $537 #
ellipse-curve $-1 57.791431768898541 -7.8336025862589196 4.2955853682790002 0.73135370988377701 0 0.68199835119979291 0.68199835119979291 0 -0.73135370988377701 1 I I #
point $-1 60.254909282306762 -7.8336025862589196 5.225487812433208 #
plane-surface $-1 0 0 8.4432638623042617 0 0 1 1 0 0 forward_v I I I I #
coedge $-1 $442 $441 $434 $538 forward $299 $-1 #
coedge $-1 $434 $301 $303 $438 reversed $189 $-1 #
coedge $-1 $301 $433 $432 $538 reversed $189 $-1 #
coedge $-1 $309 $304 $301 $436 forward $310 $-1 #
edge $-1 $439 23.253837017366351 $539 27.891089589797048 $435 $540 forward 7 unknown #
coedge $-1 $303 $302 $442 $541 reversed $119 $-1 #
edge $-1 $542 -123.78307443464459 $439 -116.98356742077469 $433 $543 forward 7 unknown #
vertex $-1 $305 $544 #
straight-curve $-1 57.254284644891605 3.9168012931294616 8.4432638623042564 0 -1 0 I I #
coedge $-1 $432 $306 $309 $446 reversed $299 $-1 #
coedge $-1 $306 $432 $437 $541 forward $299 $-1 #
vertex $-1 $307 $545 #
straight-curve $-1 61.891537217322309 11.601032132108401 89.209741280897831 0 0 1 I I #
straight-curve $-1 -22.52831545354654 11.601032132108401 93.999629890926784 0.68199835119979291 0 -0.73135370988377701 I I #
edge $-1 $539 4.0661730404094447 $311 11.601032132108401 $441 $546 forward 7 unknown #
point $-1 61.891537217322309 11.601032132108401 8.4432638623042617 #
point $-1 57.254284644891612 11.601032132108401 8.4432638623042635 #
edge $-1 $547 1 $547 0 $314 $-1 forward 7 unknown #
vertex $-1 $315 $548 #
ellipse-curve $-1 57.791431768898541 7.8336025862589231 4.2955853682790002 0.73135370988377701 0 0.68199835119979291 0.68199835119979291 0 -0.73135370988377701 1 I I #
point $-1 60.254909282306762 7.8336025862589231 5.225487812433208 #
plane-surface $-1 0 0 8.4432638623042617 0 0 1 1 0 0 forward_v I I I I #
coedge $-1 $464 $463 $456 $549 forward $319 $-1 #
coedge $-1 $456 $321 $323 $460 reversed $204 $-1 #
coedge $-1 $321 $455 $454 $549 reversed $204 $-1 #
coedge $-1 $329 $324 $321 $458 forward $330 $-1 #
edge $-1 $461 23.253837017366351 $550 27.891089589797048 $457 $551 forward 7 unknown #
coedge $-1 $323 $322 $464 $552 reversed $128 $-1 #
edge $-1 $553 -123.78307443464459 $461 -116.98356742077469 $455 $554 forward 7 unknown #
vertex $-1 $325 $555 #
straight-curve $-1 57.254284644891605 11.750403879388385 8.4432638623042564 0 -1 0 I I #
coedge $-1 $454 $326 $329 $468 reversed $319 $-1 #
coedge $-1 $326 $454 $459 $552 forward $319 $-1 #
vertex $-1 $327 $556 #
straight-curve $-1 61.891537217322309 27.268237304626247 89.209741280897831 0 0 1 I I #
straight-curve $-1 -22.52831545354654 27.268237304626247 93.999629890926784 0.68199835119979291 0 -0.73135370988377701 I I #
edge $-1 $550 19.733378212927292 $331 27.268237304626247 $463 $557 forward 7 unknown #
point $-1 61.891537217322309 27.268237304626247 8.4432638623042617 #
point $-1 57.254284644891612 27.268237304626247 8.4432638623042635 #
edge $-1 $558 1 $558 0 $334 $-1 forward 7 unknown #
vertex $-1 $335 $559 #
ellipse-curve $-1 57.791431768898541 23.500807758776769 4.2955853682790002 0.73135370988377701 0 0.68199835119979291 0.68199835119979291 0 -0.73135370988377701 1 I I #
point $-1 60.254909282306762 23.500807758776769 5.225487812433208 #
loop $-1 $-1 $345 $338 #
plane-surface $-1 0 0 8.4432638623042617 0 0 1 1 0 0 forward_v I I I I #
coedge $-1 $560 $561 $342 $479 forward $339 $-1 #
coedge $-1 $342 $341 $484 $562 reversed $137 $-1 #
edge $-1 $481 -18.358686979274939 $563 -8.6173478989708112 $477 $564 forward 7 unknown #
coedge $-1 $348 $343 $561 $565 reversed $219 $-1 #
vertex $-1 $479 $566 #
straight-curve $-1 -61.891537217322309 -11.148885690875062 0.66348447724976312 0 -1 0 I I #
coedge $-1 $567 $345 $348 $488 forward $475 $-1 #
coedge $-1 $345 $567 $478 $562 forward $475 $-1 #
vertex $-1 $346 $568 #
straight-curve $-1 -80.374548510820603 -13.355304394037661 8.4432638623042635 -1 0 0 I I #
straight-curve $-1 -61.891537217322309 -13.355304394037661 0.66348447724976722 0.60181501223851219 0 0.79863551827123203 I I #
edge $-1 $349 13.355304394037661 $569 31.240238369462585 $348 $570 forward 7 unknown #
point $-1 -61.891537217322309 -13.355304394037661 8.4432638623042617 #
point $-1 -61.891537217322309 -13.355304394037661 0.66348447724976722 #
edge $-1 $571 1 $571 0 $352 $-1 forward 7 unknown #
vertex $-1 $353 $572 #
ellipse-curve $-1 -57.170451750203242 -26.130257233626892 3.204630451287831 -0.79863551827123203 0 0.60181501223851219 0.60181501223851219 0 0.79863551827123203 1 I I #
point $-1 -58.358480156167431 -26.130257233626892 5.3520096880482484 #
edge $-1 $573 1 $573 0 $356 $-1 forward 7 unknown #
vertex $-1 $357 $574 #
ellipse-curve $-1 -57.170451750203242 -18.465285529873352 3.204630451287831 -0.79863551827123203 0 0.60181501223851219 0.60181501223851219 0 0.79863551827123203 1 I I #
point $-1 -58.358480156167431 -18.465285529873352 5.3520096880482484 #
plane-surface $-1 61.891537217322309 0 0 -1 0 0 0 0 1 forward_v I I I I #
coedge $-1 $365 $363 $367 $504 reversed $241 $-1 #
edge $-1 $378 -8.4432638623042617 $506 8.4432638623042617 $377 $575 forward 7 unknown #
vertex $-1 $504 $576 #
straight-curve $-1 -61.891537217322309 -31.240238369462585 0 0 0 -1 I I #
edge $-1 $502 -31.240238369462585 $506 31.240238369462585 $500 $577 forward 7 unknown #
straight-curve $-1 0 -31.240238369462585 -8.4432638623042617 -1 0 0 I I #
vertex $-1 $370 $578 #
straight-curve $-1 0 31.240238369462585 -8.4432638623042617 1 0 0 I I #
point $-1 61.891537217322309 31.240238369462585 -8.4432638623042617 #
point $-1 61.891537217322309 -31.240238369462585 -8.4432638623042617 #
straight-curve $-1 -61.891537217322309 0 8.4432638623042617 0 -1 0 I I #
point $-1 -61.891537217322309 31.240238369462585 8.4432638623042617 #
point $-1 -61.891537217322309 -31.240238369462585 8.4432638623042617 #
straight-curve $-1 61.891537217322309 -31.240238369462585 0 0 0 -1 I I #
straight-curve $-1 61.891537217322309 31.240238369462585 0 0 0 -1 I I #
coedge $-1 $398 $397 $390 $516 forward $387 $-1 #
edge $-1 $517 80.766477418593567 $520 85.739322098568081 $515 $579 forward 7 unknown #
vertex $-1 $402 $580 #
straight-curve $-1 34.000447627525261 -27.26823730462624 8.4432638623042635 1 0 0 I I #
edge $-1 $520 -15.517833425237859 $399 -7.9829743335389036 $398 $581 forward 7 unknown #
vertex $-1 $519 $582 #
straight-curve $-1 -22.52831545354654 -27.26823730462624 93.999629890926784 -0.68199835119979291 0 0.73135370988377701 I I #
point $-1 57.254284644891612 -27.26823730462624 8.4432638623042635 #
point $-1 61.891537217322309 -19.733378212927285 3.4704191823297492 #
straight-curve $-1 61.891537217322309 0 8.4432638623042617 0 1 0 I I #
vertex $-1 $405 $583 #
point $-1 58.473430120098335 -23.500807758776762 3.5642316583952232 #
edge $-1 $528 80.766477418593567 $531 85.739322098568081 $410 $584 forward 7 unknown #
vertex $-1 $424 $585 #
straight-curve $-1 34.000447627525261 -11.601032132108397 8.4432638623042635 1 0 0 I I #
edge $-1 $531 -7.6842308389789373 $421 -0.14937174727998137 $420 $586 forward 7 unknown #
vertex $-1 $530 $587 #
straight-curve $-1 -22.52831545354654 -11.601032132108397 93.999629890926784 -0.68199835119979291 0 0.73135370988377701 I I #
point $-1 57.254284644891612 -11.601032132108397 8.4432638623042635 #
point $-1 61.891537217322309 -4.0661730404094412 3.4704191823297492 #
straight-curve $-1 61.891537217322309 0 8.4432638623042617 0 1 0 I I #
vertex $-1 $427 $588 #
point $-1 58.473430120098335 -7.8336025862589196 3.5642316583952232 #
edge $-1 $539 80.766477418593567 $542 85.739322098568081 $432 $589 forward 7 unknown #
vertex $-1 $446 $590 #
straight-curve $-1 34.000447627525261 4.0661730404094447 8.4432638623042635 1 0 0 I I #
edge $-1 $542 0.14937174727998315 $443 7.6842308389789391 $442 $591 forward 7 unknown #
vertex $-1 $541 $592 #
straight-curve $-1 -22.52831545354654 4.0661730404094447 93.999629890926784 -0.68199835119979291 0 0.73135370988377701 I I #
point $-1 57.254284644891612 4.0661730404094447 8.4432638623042635 #
point $-1 61.891537217322309 11.601032132108401 3.4704191823297492 #
straight-curve $-1 61.891537217322309 0 8.4432638623042617 0 1 0 I I #
vertex $-1 $449 $593 #
point $-1 58.473430120098335 7.8336025862589231 3.5642316583952232 #
edge $-1 $550 80.766477418593567 $553 85.739322098568081 $454 $594 forward 7 unknown #
vertex $-1 $468 $595 #
straight-curve $-1 34.000447627525261 19.733378212927292 8.4432638623042635 1 0 0 I I #
edge $-1 $553 7.9829743335389072 $465 15.517833425237862 $464 $596 forward 7 unknown #
vertex $-1 $552 $597 #
straight-curve $-1 -22.52831545354654 19.733378212927292 93.999629890926784 -0.68199835119979291 0 0.73135370988377701 I I #
point $-1 57.254284644891612 19.733378212927292 8.4432638623042635 #
point $-1 61.891537217322309 27.268237304626247 3.4704191823297492 #
straight-curve $-1 61.891537217322309 0 8.4432638623042617 0 1 0 I I #
vertex $-1 $471 $598 #
point $-1 58.473430120098335 23.500807758776769 3.5642316583952232 #
coedge $-1 $561 $477 $567 $599 reversed $339 $-1 #
coedge $-1 $477 $560 $480 $565 forward $339 $-1 #
edge $-1 $563 -20.091352678587526 $485 -2.2064187031625995 $484 $600 forward 7 unknown #
vertex $-1 $479 $601 #
straight-curve $-1 -50.843003788206943 -31.240238369462585 15.325383967722324 0.60181501223851219 0 0.79863551827123203 I I #
edge $-1 $569 -8.4432638623042617 $481 -0.66348447724976722 $480 $602 forward 7 unknown #
point $-1 -61.891537217322309 -31.240238369462585 0.66348447724976722 #
coedge $-1 $484 $483 $560 $599 forward $475 $-1 #
point $-1 -56.029053119489582 -13.355304394037661 8.44326386230426 #
vertex $-1 $488 $603 #
straight-curve $-1 -61.891537217322309 0 8.4432638623042617 0 -1 0 I I #
vertex $-1 $491 $604 #
point $-1 -56.568636737964731 -26.130257233626892 4.0032659695590631 #
vertex $-1 $495 $605 #
point $-1 -56.568636737964731 -18.465285529873352 4.0032659695590631 #
straight-curve $-1 -61.891537217322309 31.240238369462585 0 0 0 -1 I I #
point $-1 -61.891537217322309 -31.240238369462585 -8.4432638623042617 #
straight-curve $-1 -61.891537217322309 0 -8.4432638623042617 0 1 0 I I #
point $-1 -61.891537217322309 31.240238369462585 -8.4432638623042617 #
straight-curve $-1 61.891537217322309 -27.26823730462624 89.209741280897831 0 0 -1 I I #
point $-1 61.891537217322309 -27.26823730462624 8.4432638623042617 #
straight-curve $-1 61.891537217322309 -11.750403879388381 3.4704191823297492 0 1 0 I I #
point $-1 61.891537217322309 -27.26823730462624 3.4704191823297492 #
point $-1 57.060078059014764 -23.500807758776762 3.6135870170792073 #
straight-curve $-1 61.891537217322309 -11.601032132108397 89.209741280897831 0 0 -1 I I #
point $-1 61.891537217322309 -11.601032132108397 8.4432638623042617 #
straight-curve $-1 61.891537217322309 -3.9168012931294598 3.4704191823297492 0 1 0 I I #
point $-1 61.891537217322309 -11.601032132108397 3.4704191823297492 #
point $-1 57.060078059014764 -7.8336025862589196 3.6135870170792073 #
straight-curve $-1 61.891537217322309 4.0661730404094447 89.209741280897831 0 0 -1 I I #
point $-1 61.891537217322309 4.0661730404094447 8.4432638623042617 #
straight-curve $-1 61.891537217322309 3.9168012931294616 3.4704191823297492 0 1 0 I I #
point $-1 61.891537217322309 4.0661730404094447 3.4704191823297492 #
point $-1 57.060078059014764 7.8336025862589231 3.6135870170792073 #
straight-curve $-1 61.891537217322309 19.733378212927292 89.209741280897831 0 0 -1 I I #
point $-1 61.891537217322309 19.733378212927292 8.4432638623042617 #
straight-curve $-1 61.891537217322309 11.750403879388385 3.4704191823297492 0 1 0 I I #
point $-1 61.891537217322309 19.733378212927292 3.4704191823297492 #
point $-1 57.060078059014764 23.500807758776769 3.6135870170792073 #
edge $-1 $569 -61.891537217322309 $563 -56.029053119489582 $560 $606 forward 7 unknown #
straight-curve $-1 -56.029053119489575 -11.148885690875062 8.4432638623042617 0 1 0 I I #
point $-1 -56.029053119489582 -31.240238369462588 8.44326386230426 #
straight-curve $-1 -61.891537217322309 -31.240238369462585 0 0 0 -1 I I #
point $-1 -61.891537217322309 -31.240238369462585 8.4432638623042617 #
point $-1 -56.371816231932016 -26.130257233626892 2.6028154390493183 #
point $-1 -56.371816231932016 -18.465285529873352 2.6028154390493183 #
straight-curve $-1 0 -31.240238369462585 8.4432638623042617 1 0 0 I I #
End-of-ACIS-data 