500 0 7 0           
7 Unknown 11 ACIS 5.0 NT 24 Thu Mar 25 21:16:24 1999 
-1 9.9999999999999995e-007 1e-010 
body $-1 $7 $-1 $8 #
body $-1 $9 $-1 $10 #
body $-1 $11 $-1 $12 #
body $-1 $13 $-1 $14 #
body $-1 $15 $-1 $16 #
body $-1 $17 $-1 $18 #
body $-1 $19 $-1 $20 #
lump $-1 $-1 $21 $0 #
transform $-1 1 0 0 0 1 0 0 0 1 51.698355052339245 34.980917977597244 14.978263908843733 1 rotate no_reflect no_shear #
lump $-1 $-1 $22 $1 #
transform $-1 1 0 0 0 1 0 0 0 1 51.698355052339245 34.980917977597244 14.978263908843733 1 rotate no_reflect no_shear #
lump $-1 $-1 $23 $2 #
transform $-1 1 0 0 0 1 0 0 0 1 51.698355052339245 34.980917977597244 14.978263908843733 1 rotate no_reflect no_shear #
lump $-1 $-1 $24 $3 #
transform $-1 1 0 0 0 1 0 0 0 1 51.698355052339245 34.980917977597244 14.978263908843733 1 rotate no_reflect no_shear #
lump $-1 $-1 $25 $4 #
transform $-1 1 0 0 0 1 0 0 0 1 51.698355052339245 34.980917977597244 14.978263908843733 1 rotate no_reflect no_shear #
lump $-1 $-1 $26 $5 #
transform $-1 1 0 0 0 1 0 0 0 1 51.698355052339245 34.980917977597244 14.978263908843733 1 rotate no_reflect no_shear #
lump $-1 $-1 $27 $6 #
transform $-1 1 0 0 0 1 0 0 0 1 51.698355052339245 34.980917977597244 14.978263908843733 1 rotate no_reflect no_shear #
shell $-1 $-1 $-1 $28 $-1 $7 #
shell $-1 $-1 $-1 $29 $-1 $9 #
shell $-1 $-1 $-1 $30 $-1 $11 #
shell $-1 $-1 $-1 $31 $-1 $13 #
shell $-1 $-1 $-1 $32 $-1 $15 #
shell $-1 $-1 $-1 $33 $-1 $17 #
shell $-1 $-1 $-1 $34 $-1 $19 #
face $-1 $35 $36 $21 $-1 $37 forward single #
face $-1 $38 $39 $22 $-1 $40 forward single #
face $-1 $41 $42 $23 $-1 $43 reversed single #
face $-1 $44 $45 $24 $-1 $46 forward single #
face $-1 $47 $48 $25 $-1 $49 reversed single #
face $-1 $50 $51 $26 $-1 $52 forward single #
face $-1 $53 $54 $27 $-1 $55 forward single #
face $-1 $56 $57 $21 $-1 $58 reversed single #
loop $-1 $-1 $59 $28 #
plane-surface $-1 0 0 14.978263908843733 0 0 1 1 0 0 forward_v I I I I #
face $-1 $60 $61 $22 $-1 $62 reversed single #
loop $-1 $-1 $63 $29 #
plane-surface $-1 0 -34.980917977597244 0 0 1 0 0 0 1 forward_v I I I I #
face $-1 $64 $65 $23 $-1 $66 reversed single #
loop $-1 $-1 $67 $30 #
plane-surface $-1 59.351183617371582 30.9348296450428 154.24860875621994 0 -1 0 -0.74314483375859142 0 -0.66913059716165679 forward_v I I I I #
face $-1 $68 $69 $24 $-1 $70 forward single #
loop $-1 $71 $72 $31 #
cone-surface $-1 47.568653016837487 23.469425341124534 10.620662725697994 -0.74314483375859142 0 -0.66913059716165679 0.66913059716165679 0 -0.74314483375859142 1 I I 0 1 1 forward I I I I #
face $-1 $73 $74 $25 $-1 $75 reversed single #
loop $-1 $-1 $76 $32 #
plane-surface $-1 -138.41413346713898 21.282899436646844 64.198620048271351 0 1 0 -0.83867057594974714 0 0.54463902268945019 forward_v I I I I #
face $-1 $77 $78 $26 $-1 $79 forward single #
loop $-1 $80 $81 $33 #
cone-surface $-1 -48.397834924826775 24.380889136511705 10.783894907473854 0.83867057594974714 0 -0.54463902268945019 0.81695853403417529 0 1.2580058639246208 1 I I 0 1 1.5 forward I I I I #
face $-1 $82 $83 $27 $-1 $84 forward single #
loop $-1 $85 $86 $34 #
cone-surface $-1 -48.397834924826775 29.027873686308993 10.783894907473854 0.83867057594974714 0 -0.54463902268945019 0.81695853403417529 0 1.2580058639246208 1 I I 0 1 1.5 forward I I I I #
face $-1 $87 $88 $21 $-1 $89 reversed single #
loop $-1 $-1 $90 $35 #
plane-surface $-1 0 0 -14.978263908843733 0 0 1 1 0 0 forward_v I I I I #
coedge $-1 $91 $92 $93 $94 forward $36 $-1 #
face $-1 $95 $96 $22 $-1 $97 reversed single #
loop $-1 $-1 $98 $38 #
plane-surface $-1 0 0 -14.978263908843733 0 0 1 1 0 0 forward_v I I I I #
coedge $-1 $99 $100 $101 $102 forward $39 $-1 #
face $-1 $103 $104 $23 $-1 $105 reversed single #
loop $-1 $-1 $106 $41 #
plane-surface $-1 -17.487547324554988 23.469425341124534 85.062706379325704 0.74314483375859142 0 0.66913059716165679 0.66913059716165679 0 -0.74314483375859142 forward_v I I I I #
coedge $-1 $107 $108 $109 $110 reversed $42 $-1 #
face $-1 $-1 $111 $24 $-1 $112 forward single #
loop $-1 $113 $114 $44 #
cone-surface $-1 46.108172816797257 23.469425341124534 9.305640479693718 -0.74314483375859142 0 -0.66913059716165679 0.3345652985808284 0 -0.37157241687929571 1 I I -0.70710678118654746 0.70710678118654746 0.5 forward I I I I #
loop $-1 $-1 $115 $31 #
coedge $-1 $72 $72 $116 $117 reversed $45 $-1 #
face $-1 $118 $119 $25 $-1 $120 reversed single #
loop $-1 $-1 $121 $47 #
plane-surface $-1 -51.698355052339238 26.704381411410353 7.8847369075548599 -0.83867057594974714 0 0.54463902268945019 0.54463902268945019 0 0.83867057594974714 forward_v I I I I #
coedge $-1 $122 $123 $124 $125 reversed $48 $-1 #
face $-1 $-1 $126 $26 $-1 $127 forward single #
loop $-1 $128 $129 $50 #
cone-surface $-1 -46.77160693983825 24.380889136511705 9.7278101397313215 0.83867057594974714 0 -0.54463902268945019 0.40847926701708764 0 0.62900293196231039 1 I I -0.70710678118654757 0.70710678118654757 0.75 forward I I I I #
loop $-1 $-1 $130 $33 #
coedge $-1 $81 $81 $131 $132 reversed $51 $-1 #
face $-1 $-1 $133 $27 $-1 $134 forward single #
loop $-1 $135 $136 $53 #
cone-surface $-1 -46.77160693983825 29.027873686308993 9.7278101397313215 0.83867057594974714 0 -0.54463902268945019 0.40847926701708764 0 0.62900293196231039 1 I I -0.70710678118654757 0.70710678118654757 0.75 forward I I I I #
loop $-1 $-1 $137 $34 #
coedge $-1 $86 $86 $138 $139 reversed $54 $-1 #
face $-1 $140 $141 $21 $-1 $142 reversed single #
loop $-1 $-1 $143 $56 #
plane-surface $-1 0 -34.980917977597244 0 0 1 0 0 0 1 forward_v I I I I #
coedge $-1 $144 $145 $146 $147 forward $57 $-1 #
coedge $-1 $148 $59 $149 $150 forward $36 $-1 #
coedge $-1 $59 $148 $151 $152 forward $36 $-1 #
coedge $-1 $153 $154 $59 $94 reversed $155 $-1 #
edge $-1 $156 -34.980917977597244 $157 34.980917977597244 $93 $158 forward 7 unknown #
face $-1 $159 $160 $22 $-1 $161 forward single #
loop $-1 $-1 $162 $60 #
plane-surface $-1 51.698355052339245 0 0 -1 0 0 0 0 1 forward_v I I I I #
coedge $-1 $163 $164 $165 $166 forward $61 $-1 #
coedge $-1 $165 $63 $162 $167 reversed $39 $-1 #
coedge $-1 $63 $165 $168 $169 reversed $39 $-1 #
coedge $-1 $170 $171 $63 $102 reversed $160 $-1 #
edge $-1 $172 -51.698355052339245 $173 51.698355052339245 $101 $174 forward 7 unknown #
face $-1 $175 $176 $23 $-1 $177 reversed single #
loop $-1 $-1 $178 $64 #
plane-surface $-1 59.351183617371582 16.004021037206268 154.24860875621994 0 1 0 0.74314483375859142 0 0.66913059716165679 forward_v I I I I #
coedge $-1 $179 $180 $181 $182 reversed $65 $-1 #
coedge $-1 $108 $67 $183 $184 reversed $42 $-1 #
coedge $-1 $67 $107 $179 $185 reversed $42 $-1 #
coedge $-1 $181 $186 $67 $110 forward $187 $-1 #
edge $-1 $188 -22.022763243653454 $189 -15.941174738971792 $109 $190 forward 7 unknown #
loop $-1 $-1 $116 $68 #
plane-surface $-1 -17.487547324554988 23.469425341124534 85.062706379325704 0.74314483375859142 0 0.66913059716165679 0.66913059716165679 0 -0.74314483375859142 forward_v I I I I #
loop $-1 $-1 $191 $44 #
coedge $-1 $114 $114 $115 $192 reversed $69 $-1 #
coedge $-1 $115 $115 $114 $192 forward $71 $-1 #
coedge $-1 $116 $116 $72 $117 forward $111 $-1 #
edge $-1 $193 0 $193 6.2831853071796004 $116 $194 forward 7 unknown #
face $-1 $195 $196 $25 $-1 $197 forward single #
loop $-1 $-1 $198 $73 #
plane-surface $-1 -138.41413346713898 32.125863386173862 64.198620048271351 0 -1 0 0.83867057594974714 0 -0.54463902268945019 forward_v I I I I #
coedge $-1 $199 $200 $201 $202 reversed $74 $-1 #
coedge $-1 $123 $76 $203 $204 reversed $48 $-1 #
coedge $-1 $76 $122 $199 $205 reversed $48 $-1 #
coedge $-1 $201 $206 $76 $125 forward $196 $-1 #
edge $-1 $207 17.508711681230245 $208 22.115301830202753 $124 $209 forward 7 unknown #
loop $-1 $-1 $131 $77 #
plane-surface $-1 -51.698355052339238 26.704381411410353 7.8847369075548599 -0.83867057594974714 0 0.54463902268945019 0.54463902268945019 0 0.83867057594974714 forward_v I I I I #
loop $-1 $-1 $210 $50 #
coedge $-1 $129 $129 $130 $211 reversed $78 $-1 #
coedge $-1 $130 $130 $129 $211 forward $80 $-1 #
coedge $-1 $131 $131 $81 $132 forward $126 $-1 #
edge $-1 $212 0 $212 6.2831853071796004 $131 $213 forward 7 unknown #
loop $-1 $-1 $138 $82 #
plane-surface $-1 -51.698355052339238 26.704381411410353 7.8847369075548599 -0.83867057594974714 0 0.54463902268945019 0.54463902268945019 0 0.83867057594974714 forward_v I I I I #
loop $-1 $-1 $214 $53 #
coedge $-1 $136 $136 $137 $215 reversed $83 $-1 #
coedge $-1 $137 $137 $136 $215 forward $85 $-1 #
coedge $-1 $138 $138 $86 $139 forward $133 $-1 #
edge $-1 $216 0 $216 6.2831853071796004 $138 $217 forward 7 unknown #
face $-1 $218 $219 $21 $-1 $220 reversed single #
loop $-1 $-1 $221 $87 #
plane-surface $-1 -51.698355052339245 0 0 1 0 0 0 0 -1 forward_v I I I I #
coedge $-1 $151 $222 $153 $223 reversed $88 $-1 #
coedge $-1 $224 $90 $222 $225 forward $57 $-1 #
coedge $-1 $90 $224 $226 $227 forward $57 $-1 #
coedge $-1 $154 $153 $90 $147 reversed $155 $-1 #
edge $-1 $228 -34.980917977597244 $229 34.980917977597244 $146 $230 forward 7 unknown #
coedge $-1 $92 $91 $231 $232 forward $36 $-1 #
coedge $-1 $233 $234 $91 $150 reversed $219 $-1 #
edge $-1 $157 -51.698355052339245 $235 51.698355052339245 $149 $236 forward 7 unknown #
coedge $-1 $237 $143 $92 $152 reversed $88 $-1 #
edge $-1 $238 -51.698355052339245 $156 51.698355052339245 $151 $239 forward 7 unknown #
coedge $-1 $146 $93 $143 $223 forward $155 $-1 #
coedge $-1 $93 $146 $233 $240 reversed $155 $-1 #
loop $-1 $-1 $153 $218 #
vertex $-1 $94 $241 #
vertex $-1 $94 $242 #
straight-curve $-1 51.698355052339245 0 14.978263908843733 0 1 0 I I #
face $-1 $243 $244 $22 $-1 $245 reversed single #
loop $-1 $-1 $171 $95 #
plane-surface $-1 0 -44.487793544110176 -8.879353641667155 0 0 1 1 0 0 forward_v I I I I #
coedge $-1 $246 $247 $99 $167 forward $96 $-1 #
coedge $-1 $248 $98 $247 $249 forward $61 $-1 #
coedge $-1 $98 $248 $250 $251 forward $61 $-1 #
coedge $-1 $100 $99 $98 $166 reversed $39 $-1 #
edge $-1 $252 -51.698355052339245 $253 51.698355052339245 $98 $254 forward 7 unknown #
edge $-1 $253 -14.978263908843733 $173 -8.879353641667155 $162 $255 forward 7 unknown #
coedge $-1 $250 $256 $100 $169 forward $257 $-1 #
edge $-1 $172 8.879353641667155 $252 14.978263908843733 $168 $258 forward 7 unknown #
coedge $-1 $259 $101 $256 $260 forward $160 $-1 #
coedge $-1 $101 $259 $246 $261 forward $160 $-1 #
vertex $-1 $169 $262 #
vertex $-1 $261 $263 #
straight-curve $-1 0 -34.980917977597244 -8.879353641667155 1 0 0 I I #
face $-1 $-1 $187 $23 $-1 $264 forward single #
loop $-1 $-1 $265 $103 #
plane-surface $-1 51.698355052339245 0 0 -1 0 0 0 0 1 forward_v I I I I #
coedge $-1 $266 $267 $268 $269 reversed $104 $-1 #
coedge $-1 $270 $106 $108 $185 forward $65 $-1 #
coedge $-1 $106 $270 $266 $271 forward $65 $-1 #
coedge $-1 $268 $109 $106 $182 forward $187 $-1 #
edge $-1 $189 -19.200116974480533 $272 -4.269308366644001 $181 $273 forward 7 unknown #
coedge $-1 $274 $275 $107 $184 forward $176 $-1 #
edge $-1 $276 -68.900328940710835 $188 -62.146040469266239 $183 $277 forward 7 unknown #
edge $-1 $189 94.30791857358011 $276 103.39671010467848 $108 $278 forward 7 unknown #
coedge $-1 $109 $268 $274 $279 forward $187 $-1 #
loop $-1 $-1 $268 $175 #
vertex $-1 $184 $280 #
vertex $-1 $110 $281 #
straight-curve $-1 29.675591808685791 30.9348296450428 14.978263908843729 -1 0 0 I I #
coedge $-1 $191 $191 $-1 $282 reversed $113 $-1 #
edge $-1 $283 0 $283 6.2831853071796004 $114 $284 forward 7 unknown #
vertex $-1 $117 $285 #
ellipse-curve $-1 48.657560799998414 23.469425341124534 11.601119673121431 0.74314483375859142 0 0.66913059716165679 0.66913059716165679 0 -0.74314483375859142 1 I I #
face $-1 $-1 $286 $25 $-1 $287 reversed single #
loop $-1 $-1 $124 $118 #
plane-surface $-1 0 0 14.978263908843733 0 0 1 1 0 0 forward_v I I I I #
coedge $-1 $288 $289 $290 $291 reversed $119 $-1 #
coedge $-1 $292 $121 $123 $205 forward $74 $-1 #
coedge $-1 $121 $292 $288 $293 forward $74 $-1 #
coedge $-1 $290 $124 $121 $202 forward $196 $-1 #
edge $-1 $208 7.9307087309416673 $294 18.773672680468685 $201 $295 forward 7 unknown #
coedge $-1 $296 $297 $122 $204 forward $286 $-1 #
edge $-1 $298 -24.214573116580826 $207 -17.121046115291943 $203 $299 forward 7 unknown #
edge $-1 $208 -8.4580611323532526 $298 1.2808562293387176e-014 $123 $300 forward 7 unknown #
coedge $-1 $124 $290 $296 $301 forward $196 $-1 #
vertex $-1 $204 $302 #
vertex $-1 $125 $303 #
straight-curve $-1 -69.207066733569491 21.282899436646844 14.978263908843733 1 0 0 I I #
coedge $-1 $210 $210 $-1 $304 reversed $128 $-1 #
edge $-1 $305 0 $305 6.2831853071796004 $129 $306 forward 7 unknown #
vertex $-1 $132 $307 #
ellipse-curve $-1 -49.395059977852988 24.380889136511705 11.431500408199298 -0.83867057594974714 0 0.54463902268945019 0.81695853403417529 0 1.2580058639246208 1 I I #
coedge $-1 $214 $214 $-1 $308 reversed $135 $-1 #
edge $-1 $309 0 $309 6.2831853071796004 $136 $310 forward 7 unknown #
vertex $-1 $139 $311 #
ellipse-curve $-1 -49.395059977852988 29.027873686308993 11.431500408199298 -0.83867057594974714 0 0.54463902268945019 0.81695853403417529 0 1.2580058639246208 1 I I #
face $-1 $-1 $155 $21 $-1 $312 reversed single #
loop $-1 $-1 $233 $140 #
plane-surface $-1 0 34.980917977597244 0 0 -1 0 0 0 -1 forward_v I I I I #
coedge $-1 $313 $231 $234 $314 forward $141 $-1 #
coedge $-1 $143 $237 $144 $225 reversed $88 $-1 #
edge $-1 $156 -14.978263908843733 $229 14.978263908843733 $153 $315 forward 7 unknown #
coedge $-1 $145 $144 $313 $316 forward $57 $-1 #
edge $-1 $229 -51.698355052339245 $317 51.698355052339245 $222 $318 forward 7 unknown #
coedge $-1 $234 $233 $145 $227 reversed $219 $-1 #
edge $-1 $319 -51.698355052339245 $228 51.698355052339245 $226 $320 forward 7 unknown #
vertex $-1 $147 $321 #
vertex $-1 $223 $322 #
straight-curve $-1 51.698355052339245 0 -14.978263908843733 0 -1 0 I I #
coedge $-1 $221 $323 $148 $232 reversed $141 $-1 #
edge $-1 $235 -34.980917977597244 $238 34.980917977597244 $231 $324 forward 7 unknown #
coedge $-1 $226 $149 $154 $240 forward $219 $-1 #
coedge $-1 $149 $226 $221 $314 reversed $219 $-1 #
vertex $-1 $150 $325 #
straight-curve $-1 0 34.980917977597244 14.978263908843733 -1 0 0 I I #
coedge $-1 $222 $151 $323 $326 forward $88 $-1 #
vertex $-1 $232 $327 #
straight-curve $-1 0 -34.980917977597244 14.978263908843733 1 0 0 I I #
edge $-1 $157 -14.978263908843733 $228 14.978263908843733 $154 $328 forward 7 unknown #
point $-1 51.698355052339245 -34.980917977597244 14.978263908843733 #
point $-1 51.698355052339245 34.980917977597244 14.978263908843733 #
face $-1 $-1 $257 $22 $-1 $329 reversed single #
loop $-1 $-1 $330 $159 #
plane-surface $-1 0 -53.994669110623107 -11.928808775255444 0 1 0 0 0 1 forward_v I I I I #
coedge $-1 $331 $162 $171 $261 reversed $96 $-1 #
coedge $-1 $162 $331 $163 $249 reversed $96 $-1 #
coedge $-1 $164 $163 $332 $333 forward $61 $-1 #
edge $-1 $253 34.980917977597244 $334 53.994669110623107 $247 $335 forward 7 unknown #
coedge $-1 $336 $168 $164 $251 reversed $257 $-1 #
edge $-1 $337 -53.994669110623107 $252 -34.980917977597244 $250 $338 forward 7 unknown #
vertex $-1 $169 $339 #
vertex $-1 $249 $340 #
straight-curve $-1 0 -34.980917977597244 -14.978263908843733 1 0 0 I I #
straight-curve $-1 51.698355052339245 -34.980917977597244 0 0 0 1 I I #
coedge $-1 $168 $336 $170 $260 reversed $257 $-1 #
loop $-1 $-1 $168 $243 #
straight-curve $-1 -51.698355052339245 -34.980917977597244 0 0 0 -1 I I #
coedge $-1 $171 $170 $341 $342 forward $160 $-1 #
edge $-1 $172 -9.5068755665129316 $343 9.5068755665129316 $256 $344 forward 7 unknown #
edge $-1 $345 -9.5068755665129316 $173 9.5068755665129316 $246 $346 forward 7 unknown #
point $-1 -51.698355052339245 -34.980917977597244 -8.879353641667155 #
point $-1 51.698355052339245 -34.980917977597244 -8.879353641667155 #
plane-surface $-1 0 0 14.978263908843733 0 0 1 1 0 0 forward_v I I I I #
coedge $-1 $275 $274 $267 $347 forward $176 $-1 #
coedge $-1 $267 $178 $180 $271 reversed $104 $-1 #
coedge $-1 $178 $266 $265 $347 reversed $104 $-1 #
coedge $-1 $186 $181 $178 $269 forward $187 $-1 #
edge $-1 $272 15.941174738971792 $348 22.022763243653454 $268 $349 forward 7 unknown #
coedge $-1 $180 $179 $275 $350 reversed $65 $-1 #
edge $-1 $351 -103.39671010467848 $272 -94.30791857358011 $266 $352 forward 7 unknown #
vertex $-1 $182 $353 #
straight-curve $-1 45.616766547657576 11.734712670562267 14.978263908843729 0 -1 0 I I #
coedge $-1 $265 $183 $186 $279 reversed $176 $-1 #
coedge $-1 $183 $265 $270 $350 forward $176 $-1 #
vertex $-1 $184 $354 #
straight-curve $-1 51.698355052339245 30.9348296450428 77.124304378109969 0 0 1 I I #
straight-curve $-1 -17.487547324554988 30.9348296450428 85.062706379325704 0.66913059716165679 0 -0.74314483375859142 I I #
edge $-1 $348 16.004021037206268 $188 30.9348296450428 $274 $355 forward 7 unknown #
point $-1 51.698355052339245 30.9348296450428 14.978263908843733 #
point $-1 45.616766547657583 30.9348296450428 14.978263908843729 #
edge $-1 $356 1 $356 0 $191 $-1 forward 7 unknown #
vertex $-1 $192 $357 #
ellipse-curve $-1 46.479745233676553 23.469425341124534 9.6402057782745469 0.74314483375859142 0 0.66913059716165679 0.66913059716165679 0 -0.74314483375859142 1 I I #
point $-1 49.326691397160083 23.469425341124534 10.857974839362848 #
loop $-1 $-1 $203 $195 #
plane-surface $-1 -51.698355052339245 0 0 1 0 0 0 0 -1 forward_v I I I I #
coedge $-1 $289 $198 $200 $293 reversed $119 $-1 #
coedge $-1 $198 $288 $358 $359 reversed $119 $-1 #
coedge $-1 $206 $201 $198 $291 forward $196 $-1 #
edge $-1 $294 -22.115301830202753 $360 -17.508711681230245 $290 $361 forward 7 unknown #
coedge $-1 $200 $199 $297 $362 reversed $74 $-1 #
edge $-1 $363 -1.2808562293387176e-014 $294 8.4580611323532526 $288 $364 forward 7 unknown #
vertex $-1 $202 $365 #
straight-curve $-1 -47.091764903366737 13.352190705705176 14.978263908843733 0 1 0 I I #
coedge $-1 $358 $203 $206 $301 reversed $286 $-1 #
coedge $-1 $203 $358 $292 $362 forward $286 $-1 #
vertex $-1 $204 $366 #
straight-curve $-1 -51.698355052339245 21.282899436646844 32.099310024135676 0 0 1 I I #
straight-curve $-1 -51.698355052339238 21.282899436646844 7.8847369075548599 -0.54463902268945019 0 -0.83867057594974714 I I #
edge $-1 $360 -32.125863386173862 $207 -21.282899436646844 $296 $367 forward 7 unknown #
point $-1 -51.698355052339245 21.282899436646844 14.978263908843733 #
point $-1 -47.091764903366737 21.282899436646844 14.978263908843733 #
edge $-1 $368 1 $368 0 $210 $-1 forward 7 unknown #
vertex $-1 $211 $369 #
ellipse-curve $-1 -47.400609871800562 24.380889136511705 10.136289406748409 -0.83867057594974714 0 0.54463902268945019 0.81695853403417529 0 1.2580058639246208 1 I I #
point $-1 -48.578101443818817 24.380889136511705 12.689506272123921 #
edge $-1 $370 1 $370 0 $214 $-1 forward 7 unknown #
vertex $-1 $215 $371 #
ellipse-curve $-1 -47.400609871800562 29.027873686308993 10.136289406748409 -0.83867057594974714 0 0.54463902268945019 0.81695853403417529 0 1.2580058639246208 1 I I #
point $-1 -48.578101443818817 29.027873686308993 12.689506272123921 #
plane-surface $-1 51.698355052339245 0 0 -1 0 0 0 0 1 forward_v I I I I #
coedge $-1 $323 $221 $224 $316 reversed $141 $-1 #
edge $-1 $235 -14.978263908843733 $319 14.978263908843733 $234 $372 forward 7 unknown #
straight-curve $-1 51.698355052339245 -34.980917977597244 0 0 0 -1 I I #
edge $-1 $317 -34.980917977597244 $319 34.980917977597244 $313 $373 forward 7 unknown #
vertex $-1 $316 $374 #
straight-curve $-1 0 -34.980917977597244 -14.978263908843733 -1 0 0 I I #
vertex $-1 $227 $375 #
straight-curve $-1 0 34.980917977597244 -14.978263908843733 1 0 0 I I #
point $-1 51.698355052339245 34.980917977597244 -14.978263908843733 #
point $-1 51.698355052339245 -34.980917977597244 -14.978263908843733 #
coedge $-1 $231 $313 $237 $326 reversed $141 $-1 #
straight-curve $-1 -51.698355052339245 0 14.978263908843733 0 -1 0 I I #
point $-1 -51.698355052339245 34.980917977597244 14.978263908843733 #
edge $-1 $238 -14.978263908843733 $317 14.978263908843733 $323 $376 forward 7 unknown #
point $-1 -51.698355052339245 -34.980917977597244 14.978263908843733 #
straight-curve $-1 51.698355052339245 34.980917977597244 0 0 0 -1 I I #
plane-surface $-1 -51.698355052339245 0 0 1 0 0 0 0 -1 forward_v I I I I #
coedge $-1 $332 $341 $336 $377 forward $244 $-1 #
coedge $-1 $247 $246 $378 $379 forward $96 $-1 #
coedge $-1 $378 $330 $248 $333 reversed $244 $-1 #
edge $-1 $334 -51.698355052339245 $337 51.698355052339245 $332 $380 forward 7 unknown #
vertex $-1 $379 $381 #
straight-curve $-1 51.698355052339245 0 -14.978263908843733 0 -1 0 I I #
coedge $-1 $256 $250 $330 $377 reversed $257 $-1 #
vertex $-1 $251 $382 #
straight-curve $-1 -51.698355052339245 0 -14.978263908843733 0 1 0 I I #
point $-1 -51.698355052339245 -34.980917977597244 -14.978263908843733 #
point $-1 51.698355052339245 -34.980917977597244 -14.978263908843733 #
coedge $-1 $330 $378 $259 $342 reversed $244 $-1 #
edge $-1 $343 -51.698355052339245 $345 51.698355052339245 $341 $383 forward 7 unknown #
vertex $-1 $260 $384 #
straight-curve $-1 -51.698355052339245 -44.487793544110176 -8.879353641667155 0 -1 0 I I #
vertex $-1 $261 $385 #
straight-curve $-1 51.698355052339245 -44.487793544110176 -8.879353641667155 0 1 0 I I #
edge $-1 $348 62.146040469266239 $351 68.900328940710835 $265 $386 forward 7 unknown #
vertex $-1 $279 $387 #
straight-curve $-1 29.675591808685791 16.004021037206268 14.978263908843729 1 0 0 I I #
edge $-1 $351 4.269308366644001 $276 19.200116974480533 $275 $388 forward 7 unknown #
vertex $-1 $350 $389 #
straight-curve $-1 -17.487547324554988 16.004021037206268 85.062706379325704 -0.66913059716165679 0 0.74314483375859142 I I #
point $-1 45.616766547657583 16.004021037206268 14.978263908843729 #
point $-1 51.698355052339245 30.9348296450428 8.2239754373991332 #
straight-curve $-1 51.698355052339245 0 14.978263908843733 0 1 0 I I #
vertex $-1 $282 $390 #
point $-1 47.148875830838207 23.469425341124534 8.897060944515955 #
coedge $-1 $297 $296 $289 $359 forward $286 $-1 #
edge $-1 $360 17.121046115291943 $363 24.214573116580826 $358 $391 forward 7 unknown #
vertex $-1 $301 $392 #
straight-curve $-1 -69.207066733569491 32.125863386173862 14.978263908843733 -1 0 0 I I #
edge $-1 $363 -18.773672680468685 $298 -7.9307087309416673 $297 $393 forward 7 unknown #
vertex $-1 $362 $394 #
straight-curve $-1 -51.698355052339238 32.125863386173862 7.8847369075548599 0.54463902268945019 0 0.83867057594974714 I I #
point $-1 -47.091764903366737 32.125863386173862 14.978263908843733 #
point $-1 -51.698355052339245 21.282899436646844 7.8847369075548492 #
straight-curve $-1 -51.698355052339245 0 14.978263908843733 0 -1 0 I I #
vertex $-1 $304 $395 #
point $-1 -46.583651337766383 24.380889136511705 11.39429527067303 #
vertex $-1 $308 $396 #
point $-1 -46.583651337766383 29.027873686308993 11.39429527067303 #
straight-curve $-1 -51.698355052339245 34.980917977597244 0 0 0 -1 I I #
straight-curve $-1 -51.698355052339245 0 -14.978263908843733 0 1 0 I I #
point $-1 -51.698355052339245 -34.980917977597244 -14.978263908843733 #
point $-1 -51.698355052339245 34.980917977597244 -14.978263908843733 #
straight-curve $-1 -51.698355052339245 -34.980917977597244 0 0 0 -1 I I #
edge $-1 $343 -3.0494551335882889 $337 3.0494551335882889 $336 $397 forward 7 unknown #
coedge $-1 $341 $332 $331 $379 reversed $244 $-1 #
edge $-1 $345 -3.0494551335882889 $334 3.0494551335882889 $331 $398 forward 7 unknown #
straight-curve $-1 0 -53.994669110623107 -14.978263908843733 -1 0 0 I I #
point $-1 51.698355052339245 -53.994669110623107 -14.978263908843733 #
point $-1 -51.698355052339245 -53.994669110623107 -14.978263908843733 #
straight-curve $-1 0 -53.994669110623107 -8.879353641667155 1 0 0 I I #
point $-1 -51.698355052339245 -53.994669110623107 -8.879353641667155 #
point $-1 51.698355052339245 -53.994669110623107 -8.879353641667155 #
straight-curve $-1 51.698355052339245 16.004021037206268 77.124304378109969 0 0 -1 I I #
point $-1 51.698355052339245 16.004021037206268 14.978263908843733 #
straight-curve $-1 51.698355052339245 11.734712670562267 8.2239754373991332 0 1 0 I I #
point $-1 51.698355052339245 16.004021037206268 8.2239754373991332 #
point $-1 45.736600399917961 23.469425341124534 8.971075181112889 #
straight-curve $-1 -51.698355052339245 32.125863386173862 32.099310024135676 0 0 -1 I I #
point $-1 -51.698355052339245 32.125863386173862 14.978263908843733 #
straight-curve $-1 -51.698355052339245 13.352190705705176 7.8847369075548421 0 -1 0 I I #
point $-1 -51.698355052339245 32.125863386173862 7.8847369075548492 #
point $-1 -46.142604007875939 24.380889136511705 9.3193308727142341 #
point $-1 -46.142604007875939 29.027873686308993 9.3193308727142341 #
straight-curve $-1 -51.698355052339245 -53.994669110623107 -11.928808775255444 0 0 -1 I I #
straight-curve $-1 51.698355052339245 -53.994669110623107 -11.928808775255444 0 0 -1 I I #
End-of-ACIS-data 