500 0 9 0           
7 Unknown 11 ACIS 5.0 NT 24 Thu Mar 25 19:33:41 1999 
-1 9.9999999999999995e-007 1e-010 
body $-1 $9 $-1 $10 #
body $-1 $11 $-1 $12 #
body $-1 $13 $-1 $14 #
body $-1 $15 $-1 $16 #
body $-1 $17 $-1 $18 #
body $-1 $19 $-1 $20 #
body $-1 $21 $-1 $22 #
body $-1 $23 $-1 $24 #
body $-1 $25 $-1 $26 #
lump $-1 $-1 $27 $0 #
transform $-1 1 0 0 0 1 0 0 0 1 76.993316446424757 38.117178240116658 15.840260151306026 1 rotate no_reflect no_shear #
lump $-1 $-1 $28 $1 #
transform $-1 1 0 0 0 1 0 0 0 1 76.993316446424757 38.117178240116658 15.840260151306026 1 rotate no_reflect no_shear #
lump $-1 $-1 $29 $2 #
transform $-1 1 0 0 0 1 0 0 0 1 76.993316446424757 38.117178240116658 15.840260151306026 1 rotate no_reflect no_shear #
lump $-1 $-1 $30 $3 #
transform $-1 1 0 0 0 1 0 0 0 1 76.993316446424757 38.117178240116658 15.840260151306026 1 rotate no_reflect no_shear #
lump $-1 $-1 $31 $4 #
transform $-1 1 0 0 0 1 0 0 0 1 76.993316446424757 38.117178240116658 15.840260151306026 1 rotate no_reflect no_shear #
lump $-1 $-1 $32 $5 #
transform $-1 1 0 0 0 1 0 0 0 1 76.993316446424757 38.117178240116658 15.840260151306026 1 rotate no_reflect no_shear #
lump $-1 $-1 $33 $6 #
transform $-1 1 0 0 0 1 0 0 0 1 76.993316446424757 38.117178240116658 15.840260151306026 1 rotate no_reflect no_shear #
lump $-1 $-1 $34 $7 #
transform $-1 1 0 0 0 1 0 0 0 1 76.993316446424757 38.117178240116658 15.840260151306026 1 rotate no_reflect no_shear #
lump $-1 $-1 $35 $8 #
transform $-1 1 0 0 0 1 0 0 0 1 76.993316446424757 38.117178240116658 15.840260151306026 1 rotate no_reflect no_shear #
shell $-1 $-1 $-1 $36 $-1 $9 #
shell $-1 $-1 $-1 $37 $-1 $11 #
shell $-1 $-1 $-1 $38 $-1 $13 #
shell $-1 $-1 $-1 $39 $-1 $15 #
shell $-1 $-1 $-1 $40 $-1 $17 #
shell $-1 $-1 $-1 $41 $-1 $19 #
shell $-1 $-1 $-1 $42 $-1 $21 #
shell $-1 $-1 $-1 $43 $-1 $23 #
shell $-1 $-1 $-1 $44 $-1 $25 #
face $-1 $45 $46 $27 $-1 $47 forward single #
face $-1 $48 $49 $28 $-1 $50 reversed single #
face $-1 $51 $52 $29 $-1 $53 reversed single #
face $-1 $54 $55 $30 $-1 $56 forward single #
face $-1 $57 $58 $31 $-1 $59 forward single #
face $-1 $60 $61 $32 $-1 $62 forward single #
face $-1 $63 $64 $33 $-1 $65 reversed single #
face $-1 $66 $67 $34 $-1 $68 forward single #
face $-1 $69 $70 $35 $-1 $71 forward single #
face $-1 $72 $73 $27 $-1 $74 reversed single #
loop $-1 $-1 $75 $36 #
plane-surface $-1 0 0 15.840260151306026 0 0 1 1 0 0 forward_v I I I I #
face $-1 $76 $77 $28 $-1 $78 reversed single #
loop $-1 $-1 $79 $37 #
plane-surface $-1 0 -29.008392954330361 10.065408022167823 0 0 1 1 0 0 forward_v I I I I #
face $-1 $80 $81 $29 $-1 $82 reversed single #
loop $-1 $-1 $83 $38 #
plane-surface $-1 58.013413922526667 31.701597483432113 218.87280986662097 0 -1 0 -0.64278761758704617 0 -0.76604443648966558 forward_v I I I I #
face $-1 $84 $85 $30 $-1 $86 forward single #
loop $-1 $87 $88 $39 #
cone-surface $-1 68.30942533932604 19.10940360397074 8.4139637542904566 -0.64278761758704617 0 -0.76604443648966558 0.76604443648966558 0 -0.64278761758704617 1 I I 0 1 1 forward I I I I #
face $-1 $89 $90 $31 $-1 $91 forward single #
loop $-1 $92 $93 $40 #
cone-surface $-1 68.30942533932604 23.831476308768757 8.4139637542904566 -0.64278761758704617 0 -0.76604443648966558 0.76604443648966558 0 -0.64278761758704617 1 I I 0 1 1 forward I I I I #
face $-1 $94 $95 $32 $-1 $96 forward single #
loop $-1 $97 $98 $41 #
cone-surface $-1 68.30942533932604 28.553549013566766 8.4139637542904566 -0.64278761758704617 0 -0.76604443648966558 0.76604443648966558 0 -0.64278761758704617 1 I I 0 1 1 forward I I I I #
face $-1 $99 $100 $33 $-1 $101 reversed single #
loop $-1 $-1 $102 $42 #
plane-surface $-1 -171.79695522255179 23.666515575761906 127.21797079411711 0 1 0 -0.61566148304635926 0 0.78801074757464917 forward_v I I I I #
face $-1 $103 $104 $34 $-1 $105 forward single #
loop $-1 $106 $107 $43 #
cone-surface $-1 -69.736462785713968 27.795276337006115 9.73212559353885 0.61566148304635926 0 -0.78801074757464917 0.78801074757464917 0 0.61566148304635926 1 I I 0 1 1 forward I I I I #
face $-1 $108 $109 $35 $-1 $110 forward single #
loop $-1 $111 $112 $44 #
cone-surface $-1 -69.736462785713968 33.988417478872435 9.73212559353885 0.61566148304635926 0 -0.78801074757464917 0.78801074757464917 0 0.61566148304635926 1 I I 0 1 1 forward I I I I #
face $-1 $113 $114 $27 $-1 $115 reversed single #
loop $-1 $-1 $116 $45 #
plane-surface $-1 0 0 -15.840260151306026 0 0 1 1 0 0 forward_v I I I I #
coedge $-1 $117 $118 $119 $120 forward $46 $-1 #
face $-1 $121 $122 $28 $-1 $123 reversed single #
loop $-1 $-1 $124 $48 #
plane-surface $-1 0 -19.899607668544064 12.952834086736924 0 -1 0 0 0 -1 forward_v I I I I #
coedge $-1 $125 $126 $127 $128 reversed $49 $-1 #
face $-1 $129 $130 $29 $-1 $131 reversed single #
loop $-1 $-1 $132 $51 #
plane-surface $-1 -40.967286974919148 23.831476308768757 100.91220644527706 0.64278761758704617 0 0.76604443648966558 0.76604443648966558 0 -0.64278761758704617 forward_v I I I I #
coedge $-1 $133 $134 $135 $136 reversed $52 $-1 #
face $-1 $-1 $137 $30 $-1 $138 forward single #
loop $-1 $139 $140 $54 #
cone-surface $-1 67.592044383445142 19.10940360397074 7.5590224407674356 -0.64278761758704617 0 -0.76604443648966558 0.38302221824483279 0 -0.32139380879352308 1 I I -0.70710678118654746 0.70710678118654746 0.5 forward I I I I #
loop $-1 $-1 $141 $39 #
coedge $-1 $88 $88 $142 $143 reversed $55 $-1 #
face $-1 $-1 $144 $31 $-1 $145 forward single #
loop $-1 $146 $147 $57 #
cone-surface $-1 67.592044383445142 23.831476308768757 7.5590224407674356 -0.64278761758704617 0 -0.76604443648966558 0.38302221824483279 0 -0.32139380879352308 1 I I -0.70710678118654746 0.70710678118654746 0.5 forward I I I I #
loop $-1 $-1 $148 $40 #
coedge $-1 $93 $93 $149 $150 reversed $58 $-1 #
face $-1 $-1 $151 $32 $-1 $152 forward single #
loop $-1 $153 $154 $60 #
cone-surface $-1 67.592044383445142 28.553549013566766 7.5590224407674356 -0.64278761758704617 0 -0.76604443648966558 0.38302221824483279 0 -0.32139380879352308 1 I I -0.70710678118654746 0.70710678118654746 0.5 forward I I I I #
loop $-1 $-1 $155 $41 #
coedge $-1 $98 $98 $156 $157 reversed $61 $-1 #
face $-1 $158 $159 $33 $-1 $160 forward single #
loop $-1 $-1 $161 $63 #
plane-surface $-1 -76.993316446424771 30.891846907939282 5.874849091719696 -0.61566148304635926 0 0.78801074757464917 0.78801074757464917 0 0.61566148304635926 forward_v I I I I #
coedge $-1 $162 $163 $164 $165 reversed $64 $-1 #
face $-1 $-1 $166 $34 $-1 $167 forward single #
loop $-1 $168 $169 $66 #
cone-surface $-1 -68.549350503223906 27.795276337006115 8.2126911917775089 0.61566148304635926 0 -0.78801074757464917 0.39400537378732459 0 0.30783074152317963 1 I I -0.70710678118654746 0.70710678118654746 0.5 forward I I I I #
loop $-1 $-1 $170 $43 #
coedge $-1 $107 $107 $171 $172 reversed $67 $-1 #
face $-1 $-1 $173 $35 $-1 $174 forward single #
loop $-1 $175 $176 $69 #
cone-surface $-1 -68.549350503223906 33.988417478872435 8.2126911917775089 0.61566148304635926 0 -0.78801074757464917 0.39400537378732459 0 0.30783074152317963 1 I I -0.70710678118654746 0.70710678118654746 0.5 forward I I I I #
loop $-1 $-1 $177 $44 #
coedge $-1 $112 $112 $178 $179 reversed $70 $-1 #
face $-1 $180 $181 $27 $-1 $182 reversed single #
loop $-1 $-1 $183 $72 #
plane-surface $-1 0 -38.117178240116658 0 0 1 0 0 0 1 forward_v I I I I #
coedge $-1 $184 $185 $186 $187 forward $73 $-1 #
coedge $-1 $188 $75 $189 $190 forward $46 $-1 #
coedge $-1 $75 $188 $191 $192 forward $46 $-1 #
coedge $-1 $193 $194 $75 $120 reversed $195 $-1 #
edge $-1 $196 -38.117178240116658 $197 38.117178240116658 $119 $198 forward 7 unknown #
face $-1 $199 $200 $28 $-1 $201 reversed single #
loop $-1 $-1 $202 $76 #
plane-surface $-1 -76.993316446424757 0 0 1 0 0 0 0 -1 forward_v I I I I #
coedge $-1 $203 $204 $205 $206 reversed $77 $-1 #
coedge $-1 $207 $79 $208 $209 reversed $49 $-1 #
coedge $-1 $79 $207 $203 $210 forward $49 $-1 #
coedge $-1 $205 $211 $79 $128 forward $212 $-1 #
edge $-1 $213 -23.612981762951478 $214 -5.3954111913788836 $127 $215 forward 7 unknown #
face $-1 $216 $217 $29 $-1 $218 reversed single #
loop $-1 $-1 $219 $80 #
plane-surface $-1 58.013413922526667 15.9613551341054 218.87280986662097 0 1 0 0.64278761758704617 0 0.76604443648966558 forward_v I I I I #
coedge $-1 $220 $221 $222 $223 reversed $81 $-1 #
coedge $-1 $134 $83 $224 $225 reversed $52 $-1 #
coedge $-1 $83 $133 $220 $226 reversed $52 $-1 #
coedge $-1 $222 $227 $83 $136 forward $228 $-1 #
edge $-1 $229 -47.986609485161424 $230 -31.410801565138726 $135 $231 forward 7 unknown #
loop $-1 $-1 $142 $84 #
plane-surface $-1 -40.967286974919148 23.831476308768757 100.91220644527706 0.64278761758704617 0 0.76604443648966558 0.76604443648966558 0 -0.64278761758704617 forward_v I I I I #
loop $-1 $-1 $232 $54 #
coedge $-1 $140 $140 $141 $233 reversed $85 $-1 #
coedge $-1 $141 $141 $140 $233 forward $87 $-1 #
coedge $-1 $142 $142 $88 $143 forward $137 $-1 #
edge $-1 $234 0 $234 6.2831853071796004 $142 $235 forward 7 unknown #
loop $-1 $-1 $149 $89 #
plane-surface $-1 -40.967286974919148 23.831476308768757 100.91220644527706 0.64278761758704617 0 0.76604443648966558 0.76604443648966558 0 -0.64278761758704617 forward_v I I I I #
loop $-1 $-1 $236 $57 #
coedge $-1 $147 $147 $148 $237 reversed $90 $-1 #
coedge $-1 $148 $148 $147 $237 forward $92 $-1 #
coedge $-1 $149 $149 $93 $150 forward $144 $-1 #
edge $-1 $238 0 $238 6.2831853071796004 $149 $239 forward 7 unknown #
loop $-1 $-1 $156 $94 #
plane-surface $-1 -40.967286974919148 23.831476308768757 100.91220644527706 0.64278761758704617 0 0.76604443648966558 0.76604443648966558 0 -0.64278761758704617 forward_v I I I I #
loop $-1 $-1 $240 $60 #
coedge $-1 $154 $154 $155 $241 reversed $95 $-1 #
coedge $-1 $155 $155 $154 $241 forward $97 $-1 #
coedge $-1 $156 $156 $98 $157 forward $151 $-1 #
edge $-1 $242 0 $242 6.2831853071796004 $156 $243 forward 7 unknown #
face $-1 $244 $245 $33 $-1 $246 reversed single #
loop $-1 $-1 $164 $99 #
plane-surface $-1 0 0 15.840260151306026 0 0 1 1 0 0 forward_v I I I I #
coedge $-1 $247 $248 $249 $250 reversed $100 $-1 #
coedge $-1 $163 $102 $251 $252 reversed $64 $-1 #
coedge $-1 $102 $162 $247 $253 reversed $64 $-1 #
coedge $-1 $249 $254 $102 $165 forward $159 $-1 #
edge $-1 $255 8.9051611648511368 $256 21.660305404338942 $164 $257 forward 7 unknown #
loop $-1 $-1 $171 $103 #
plane-surface $-1 -76.993316446424771 30.891846907939282 5.874849091719696 -0.61566148304635926 0 0.78801074757464917 0.78801074757464917 0 0.61566148304635926 forward_v I I I I #
loop $-1 $-1 $258 $66 #
coedge $-1 $169 $169 $170 $259 reversed $104 $-1 #
coedge $-1 $170 $170 $169 $259 forward $106 $-1 #
coedge $-1 $171 $171 $107 $172 forward $166 $-1 #
edge $-1 $260 0 $260 6.2831853071796004 $171 $261 forward 7 unknown #
loop $-1 $-1 $178 $108 #
plane-surface $-1 -76.993316446424771 30.891846907939282 5.874849091719696 -0.61566148304635926 0 0.78801074757464917 0.78801074757464917 0 0.61566148304635926 forward_v I I I I #
loop $-1 $-1 $262 $69 #
coedge $-1 $176 $176 $177 $263 reversed $109 $-1 #
coedge $-1 $177 $177 $176 $263 forward $111 $-1 #
coedge $-1 $178 $178 $112 $179 forward $173 $-1 #
edge $-1 $264 0 $264 6.2831853071796004 $178 $265 forward 7 unknown #
face $-1 $266 $267 $27 $-1 $268 reversed single #
loop $-1 $-1 $269 $113 #
plane-surface $-1 -76.993316446424757 0 0 1 0 0 0 0 -1 forward_v I I I I #
coedge $-1 $270 $191 $271 $272 forward $114 $-1 #
coedge $-1 $273 $116 $270 $274 forward $73 $-1 #
coedge $-1 $116 $273 $275 $276 forward $73 $-1 #
coedge $-1 $194 $193 $116 $187 reversed $195 $-1 #
edge $-1 $277 -38.117178240116658 $278 38.117178240116658 $186 $279 forward 7 unknown #
coedge $-1 $118 $117 $280 $281 forward $46 $-1 #
coedge $-1 $282 $283 $117 $190 reversed $267 $-1 #
edge $-1 $197 -76.993316446424757 $284 76.993316446424757 $189 $285 forward 7 unknown #
coedge $-1 $183 $286 $118 $192 reversed $114 $-1 #
edge $-1 $287 -76.993316446424757 $196 76.993316446424757 $191 $288 forward 7 unknown #
coedge $-1 $186 $119 $286 $289 forward $195 $-1 #
coedge $-1 $119 $186 $282 $290 reversed $195 $-1 #
loop $-1 $-1 $193 $266 #
vertex $-1 $120 $291 #
vertex $-1 $120 $292 #
straight-curve $-1 76.993316446424757 0 15.840260151306026 0 1 0 I I #
face $-1 $293 $294 $28 $-1 $295 forward single #
loop $-1 $-1 $208 $121 #
plane-surface $-1 0 -38.117178240116658 0 0 1 0 0 0 1 forward_v I I I I #
coedge $-1 $296 $297 $298 $299 forward $122 $-1 #
coedge $-1 $298 $124 $126 $210 reversed $77 $-1 #
coedge $-1 $124 $298 $300 $301 reversed $77 $-1 #
coedge $-1 $302 $127 $124 $206 forward $212 $-1 #
edge $-1 $214 3.5889909787993606 $303 9.3638431079375639 $205 $304 forward 7 unknown #
coedge $-1 $126 $125 $296 $305 reversed $49 $-1 #
coedge $-1 $306 $307 $125 $209 forward $200 $-1 #
edge $-1 $308 -76.993316446424757 $213 76.993316446424757 $208 $309 forward 7 unknown #
edge $-1 $310 -76.993316446424757 $214 76.993316446424757 $203 $311 forward 7 unknown #
coedge $-1 $127 $302 $306 $312 forward $212 $-1 #
loop $-1 $-1 $205 $293 #
vertex $-1 $209 $313 #
vertex $-1 $128 $314 #
straight-curve $-1 76.993316446424757 -14.504196477165181 10.065408022167823 0 1 0 I I #
face $-1 $-1 $228 $29 $-1 $315 forward single #
loop $-1 $-1 $316 $129 #
plane-surface $-1 76.993316446424757 0 0 -1 0 0 0 0 1 forward_v I I I I #
coedge $-1 $317 $318 $319 $320 reversed $130 $-1 #
coedge $-1 $321 $132 $134 $226 forward $81 $-1 #
coedge $-1 $132 $321 $317 $322 forward $81 $-1 #
coedge $-1 $319 $135 $132 $223 forward $228 $-1 #
edge $-1 $230 -19.785859329047735 $323 -4.0456169797210215 $222 $324 forward 7 unknown #
coedge $-1 $325 $326 $133 $225 forward $217 $-1 #
edge $-1 $327 -107.50489938547923 $229 -93.596144782004458 $224 $328 forward 7 unknown #
edge $-1 $230 132.34845222022437 $327 153.98663289284951 $134 $329 forward 7 unknown #
coedge $-1 $135 $319 $325 $330 forward $228 $-1 #
loop $-1 $-1 $319 $216 #
vertex $-1 $225 $331 #
vertex $-1 $136 $332 #
straight-curve $-1 29.006706961263333 31.701597483432113 15.840260151306026 -1 0 0 I I #
coedge $-1 $232 $232 $-1 $333 reversed $139 $-1 #
edge $-1 $334 0 $334 6.2831853071796004 $140 $335 forward 7 unknown #
vertex $-1 $143 $336 #
ellipse-curve $-1 68.705412486413422 19.10940360397074 8.8858828495686417 0.64278761758704617 0 0.76604443648966558 0.76604443648966558 0 -0.64278761758704617 1 I I #
coedge $-1 $236 $236 $-1 $337 reversed $146 $-1 #
edge $-1 $338 0 $338 6.2831853071796004 $147 $339 forward 7 unknown #
vertex $-1 $150 $340 #
ellipse-curve $-1 68.705412486413422 23.831476308768757 8.8858828495686417 0.64278761758704617 0 0.76604443648966558 0.76604443648966558 0 -0.64278761758704617 1 I I #
coedge $-1 $240 $240 $-1 $341 reversed $153 $-1 #
edge $-1 $342 0 $342 6.2831853071796004 $154 $343 forward 7 unknown #
vertex $-1 $157 $344 #
ellipse-curve $-1 68.705412486413422 28.553549013566766 8.8858828495686417 0.64278761758704617 0 0.76604443648966558 0.76604443648966558 0 -0.64278761758704617 1 I I #
face $-1 $-1 $345 $33 $-1 $346 reversed single #
loop $-1 $-1 $347 $158 #
plane-surface $-1 0 38.117178240116658 0 0 -1 0 0 0 -1 forward_v I I I I #
coedge $-1 $348 $161 $163 $253 forward $100 $-1 #
coedge $-1 $161 $348 $347 $349 reversed $100 $-1 #
coedge $-1 $350 $164 $161 $250 forward $159 $-1 #
edge $-1 $256 8.2205921217922651 $351 22.671254786147017 $249 $352 forward 7 unknown #
coedge $-1 $353 $354 $162 $252 forward $345 $-1 #
edge $-1 $355 -57.734136305338843 $255 -47.768725245752528 $251 $356 forward 7 unknown #
edge $-1 $256 -16.186510499692787 $355 -1.830693040787162e-014 $163 $357 forward 7 unknown #
coedge $-1 $164 $350 $353 $358 forward $159 $-1 #
vertex $-1 $252 $359 #
vertex $-1 $165 $360 #
straight-curve $-1 -85.898477611275894 23.666515575761906 15.840260151306026 1 0 0 I I #
coedge $-1 $258 $258 $-1 $361 reversed $168 $-1 #
edge $-1 $362 0 $362 6.2831853071796004 $169 $363 forward 7 unknown #
vertex $-1 $172 $364 #
ellipse-curve $-1 -70.615744326680854 27.795276337006115 10.857554621512865 -0.61566148304635926 0 0.78801074757464917 0.78801074757464917 0 0.61566148304635926 1 I I #
coedge $-1 $262 $262 $-1 $365 reversed $175 $-1 #
edge $-1 $366 0 $366 6.2831853071796004 $176 $367 forward 7 unknown #
vertex $-1 $179 $368 #
ellipse-curve $-1 -70.615744326680854 33.988417478872435 10.857554621512865 -0.61566148304635926 0 0.78801074757464917 0.78801074757464917 0 0.61566148304635926 1 I I #
face $-1 $-1 $195 $27 $-1 $369 reversed single #
loop $-1 $-1 $282 $180 #
plane-surface $-1 0 38.117178240116658 0 0 -1 0 0 0 -1 forward_v I I I I #
coedge $-1 $370 $280 $283 $371 forward $181 $-1 #
coedge $-1 $286 $183 $184 $274 reversed $114 $-1 #
coedge $-1 $280 $370 $183 $272 reversed $181 $-1 #
edge $-1 $287 -15.840260151306026 $372 15.840260151306026 $271 $373 forward 7 unknown #
coedge $-1 $185 $184 $370 $374 forward $73 $-1 #
edge $-1 $278 -76.993316446424757 $372 76.993316446424757 $270 $375 forward 7 unknown #
coedge $-1 $283 $282 $185 $276 reversed $267 $-1 #
edge $-1 $376 -76.993316446424757 $277 76.993316446424757 $275 $377 forward 7 unknown #
vertex $-1 $187 $378 #
vertex $-1 $289 $379 #
straight-curve $-1 76.993316446424757 0 -15.840260151306026 0 -1 0 I I #
coedge $-1 $269 $271 $188 $281 reversed $181 $-1 #
edge $-1 $284 -38.117178240116658 $287 38.117178240116658 $280 $380 forward 7 unknown #
coedge $-1 $275 $189 $194 $290 forward $267 $-1 #
coedge $-1 $189 $275 $269 $371 reversed $267 $-1 #
vertex $-1 $190 $381 #
straight-curve $-1 0 38.117178240116658 15.840260151306026 -1 0 0 I I #
coedge $-1 $191 $270 $193 $289 reversed $114 $-1 #
vertex $-1 $281 $382 #
straight-curve $-1 0 -38.117178240116658 15.840260151306026 1 0 0 I I #
edge $-1 $196 -15.840260151306026 $278 15.840260151306026 $193 $383 forward 7 unknown #
edge $-1 $197 -15.840260151306026 $277 15.840260151306026 $194 $384 forward 7 unknown #
point $-1 76.993316446424757 -38.117178240116658 15.840260151306026 #
point $-1 76.993316446424757 38.117178240116658 15.840260151306026 #
face $-1 $-1 $212 $28 $-1 $385 reversed single #
loop $-1 $-1 $300 $199 #
plane-surface $-1 0 0 15.840260151306026 0 0 1 1 0 0 forward_v I I I I #
coedge $-1 $386 $202 $207 $305 forward $122 $-1 #
coedge $-1 $202 $386 $387 $388 reversed $122 $-1 #
coedge $-1 $204 $203 $202 $299 reversed $77 $-1 #
edge $-1 $389 -9.3638431079375639 $310 -3.5889909787993606 $202 $390 forward 7 unknown #
coedge $-1 $387 $391 $204 $301 forward $294 $-1 #
edge $-1 $303 -76.993316446424757 $389 76.993316446424757 $300 $392 forward 7 unknown #
coedge $-1 $211 $205 $391 $393 reversed $212 $-1 #
vertex $-1 $206 $394 #
straight-curve $-1 76.993316446424757 -19.899607668544064 6.4764170433684622 0 0 1 I I #
edge $-1 $310 5.3954111913788836 $308 23.612981762951478 $296 $395 forward 7 unknown #
coedge $-1 $396 $208 $211 $312 reversed $200 $-1 #
coedge $-1 $208 $396 $386 $397 forward $200 $-1 #
vertex $-1 $209 $398 #
straight-curve $-1 0 -38.117178240116658 10.065408022167823 1 0 0 I I #
vertex $-1 $305 $399 #
straight-curve $-1 0 -19.899607668544064 10.065408022167823 1 0 0 I I #
edge $-1 $400 -15.840260151306026 $213 -10.065408022167823 $211 $401 forward 7 unknown #
point $-1 76.993316446424757 -38.117178240116658 10.065408022167823 #
point $-1 76.993316446424757 -19.899607668544064 10.065408022167823 #
plane-surface $-1 0 0 15.840260151306026 0 0 1 1 0 0 forward_v I I I I #
coedge $-1 $326 $325 $318 $402 forward $217 $-1 #
coedge $-1 $318 $219 $221 $322 reversed $130 $-1 #
coedge $-1 $219 $317 $316 $402 reversed $130 $-1 #
coedge $-1 $227 $222 $219 $320 forward $228 $-1 #
edge $-1 $323 31.410801565138726 $403 47.986609485161424 $319 $404 forward 7 unknown #
coedge $-1 $221 $220 $326 $405 reversed $81 $-1 #
edge $-1 $406 -153.98663289284951 $323 -132.34845222022437 $317 $407 forward 7 unknown #
vertex $-1 $223 $408 #
straight-curve $-1 60.417508526402045 11.915738154384378 15.840260151306033 0 -1 0 I I #
coedge $-1 $316 $224 $227 $330 reversed $217 $-1 #
coedge $-1 $224 $316 $321 $405 forward $217 $-1 #
vertex $-1 $225 $409 #
straight-curve $-1 76.993316446424757 31.701597483432113 109.43640493331048 0 0 1 I I #
straight-curve $-1 -40.967286974919148 31.701597483432113 100.91220644527706 0.76604443648966558 0 -0.64278761758704617 I I #
edge $-1 $403 15.9613551341054 $229 31.701597483432113 $325 $410 forward 7 unknown #
point $-1 76.993316446424757 31.701597483432113 15.840260151306026 #
point $-1 60.417508526402059 31.701597483432113 15.840260151306026 #
edge $-1 $411 1 $411 0 $232 $-1 forward 7 unknown #
vertex $-1 $233 $412 #
ellipse-curve $-1 67.913438192238658 19.10940360397074 7.942044659012268 0.64278761758704617 0 0.76604443648966558 0.76604443648966558 0 -0.64278761758704617 1 I I #
point $-1 69.471456922903087 19.10940360397074 8.2430952319815987 #
edge $-1 $413 1 $413 0 $236 $-1 forward 7 unknown #
vertex $-1 $237 $414 #
ellipse-curve $-1 67.913438192238658 23.831476308768757 7.942044659012268 0.64278761758704617 0 0.76604443648966558 0.76604443648966558 0 -0.64278761758704617 1 I I #
point $-1 69.471456922903087 23.831476308768757 8.2430952319815987 #
edge $-1 $415 1 $415 0 $240 $-1 forward 7 unknown #
vertex $-1 $241 $416 #
ellipse-curve $-1 67.913438192238658 28.553549013566766 7.942044659012268 0.64278761758704617 0 0.76604443648966558 0.76604443648966558 0 -0.64278761758704617 1 I I #
point $-1 69.471456922903087 28.553549013566766 8.2430952319815987 #
loop $-1 $-1 $251 $244 #
plane-surface $-1 -76.993316446424757 0 0 1 0 0 0 0 -1 forward_v I I I I #
coedge $-1 $417 $418 $248 $349 forward $245 $-1 #
coedge $-1 $248 $247 $354 $419 reversed $100 $-1 #
edge $-1 $351 12.340810773665719 $420 28.527321273358488 $347 $421 forward 7 unknown #
coedge $-1 $254 $249 $418 $422 forward $159 $-1 #
vertex $-1 $422 $423 #
straight-curve $-1 -64.238172206936937 15.445923453969641 15.840260151306026 0 1 0 I I #
coedge $-1 $424 $251 $254 $358 reversed $345 $-1 #
coedge $-1 $251 $424 $348 $419 forward $345 $-1 #
vertex $-1 $252 $425 #
straight-curve $-1 -76.993316446424757 23.666515575761906 63.608985397058554 0 0 1 I I #
straight-curve $-1 -76.993316446424771 23.666515575761906 5.874849091719696 -0.78801074757464917 0 -0.61566148304635926 I I #
edge $-1 $426 -38.117178240116658 $255 -23.666515575761906 $353 $427 forward 7 unknown #
point $-1 -76.993316446424757 23.666515575761906 15.840260151306026 #
point $-1 -64.238172206936952 23.666515575761906 15.840260151306024 #
edge $-1 $428 1 $428 0 $258 $-1 forward 7 unknown #
vertex $-1 $259 $429 #
ellipse-curve $-1 -68.857181244747082 27.795276337006115 8.6066965655648335 -0.61566148304635926 0 0.78801074757464917 0.78801074757464917 0 0.61566148304635926 1 I I #
point $-1 -69.827733579106209 27.795276337006115 11.473216104559228 #
edge $-1 $430 1 $430 0 $262 $-1 forward 7 unknown #
vertex $-1 $263 $431 #
ellipse-curve $-1 -68.857181244747082 33.988417478872435 8.6066965655648335 -0.61566148304635926 0 0.78801074757464917 0.78801074757464917 0 0.61566148304635926 1 I I #
point $-1 -69.827733579106209 33.988417478872435 11.473216104559228 #
plane-surface $-1 76.993316446424757 0 0 -1 0 0 0 0 1 forward_v I I I I #
coedge $-1 $271 $269 $273 $374 reversed $181 $-1 #
edge $-1 $284 -15.840260151306026 $376 15.840260151306026 $283 $432 forward 7 unknown #
vertex $-1 $374 $433 #
straight-curve $-1 -76.993316446424757 -38.117178240116658 0 0 0 -1 I I #
edge $-1 $372 -38.117178240116658 $376 38.117178240116658 $370 $434 forward 7 unknown #
straight-curve $-1 0 -38.117178240116658 -15.840260151306026 -1 0 0 I I #
vertex $-1 $276 $435 #
straight-curve $-1 0 38.117178240116658 -15.840260151306026 1 0 0 I I #
point $-1 76.993316446424757 38.117178240116658 -15.840260151306026 #
point $-1 76.993316446424757 -38.117178240116658 -15.840260151306026 #
straight-curve $-1 -76.993316446424757 0 15.840260151306026 0 -1 0 I I #
point $-1 -76.993316446424757 38.117178240116658 15.840260151306026 #
point $-1 -76.993316446424757 -38.117178240116658 15.840260151306026 #
straight-curve $-1 76.993316446424757 -38.117178240116658 0 0 0 -1 I I #
straight-curve $-1 76.993316446424757 38.117178240116658 0 0 0 -1 I I #
plane-surface $-1 76.993316446424757 0 0 -1 0 0 0 0 1 forward_v I I I I #
coedge $-1 $297 $296 $307 $397 reversed $122 $-1 #
coedge $-1 $436 $300 $297 $388 forward $294 $-1 #
edge $-1 $389 19.899607668544064 $437 38.117178240116658 $297 $438 forward 7 unknown #
vertex $-1 $388 $439 #
straight-curve $-1 -76.993316446424757 -19.899607668544064 6.4764170433684622 0 0 -1 I I #
coedge $-1 $300 $436 $302 $393 forward $294 $-1 #
straight-curve $-1 0 -19.899607668544064 15.840260151306026 -1 0 0 I I #
edge $-1 $400 -38.117178240116658 $303 -19.899607668544064 $302 $440 forward 7 unknown #
point $-1 76.993316446424757 -19.899607668544064 15.840260151306026 #
straight-curve $-1 -76.993316446424757 -14.504196477165181 10.065408022167823 0 -1 0 I I #
coedge $-1 $307 $306 $436 $441 reversed $200 $-1 #
edge $-1 $437 -15.840260151306026 $308 -10.065408022167823 $386 $442 forward 7 unknown #
point $-1 -76.993316446424757 -38.117178240116658 10.065408022167823 #
point $-1 -76.993316446424757 -19.899607668544064 10.065408022167823 #
vertex $-1 $393 $443 #
straight-curve $-1 76.993316446424757 -38.117178240116658 0 0 0 -1 I I #
edge $-1 $403 93.596144782004458 $406 107.50489938547923 $316 $444 forward 7 unknown #
vertex $-1 $330 $445 #
straight-curve $-1 29.006706961263333 15.9613551341054 15.840260151306026 1 0 0 I I #
edge $-1 $406 4.0456169797210215 $327 19.785859329047735 $326 $446 forward 7 unknown #
vertex $-1 $405 $447 #
straight-curve $-1 -40.967286974919148 15.9613551341054 100.91220644527706 -0.76604443648966558 0 0.64278761758704617 I I #
point $-1 60.417508526402059 15.9613551341054 15.840260151306026 #
point $-1 76.993316446424757 31.701597483432113 1.9315055478312502 #
straight-curve $-1 76.993316446424757 0 15.840260151306026 0 1 0 I I #
vertex $-1 $333 $448 #
point $-1 68.679482628728337 19.10940360397074 7.2992570414252222 #
vertex $-1 $337 $449 #
point $-1 68.679482628728337 23.831476308768757 7.2992570414252222 #
vertex $-1 $341 $450 #
point $-1 68.679482628728337 28.553549013566766 7.2992570414252222 #
coedge $-1 $418 $347 $424 $451 reversed $245 $-1 #
coedge $-1 $347 $417 $350 $422 reversed $245 $-1 #
edge $-1 $420 -22.671254786147017 $355 -8.2205921217922651 $354 $452 forward 7 unknown #
vertex $-1 $349 $453 #
straight-curve $-1 -54.513480683503339 38.117178240116658 23.438022014215544 -0.78801074757464917 0 -0.61566148304635926 I I #
edge $-1 $351 64.238172206936952 $426 76.993316446424757 $418 $454 forward 7 unknown #
point $-1 -64.238172206936952 38.117178240116658 15.840260151306024 #
coedge $-1 $354 $353 $417 $451 forward $345 $-1 #
point $-1 -76.993316446424757 23.666515575761906 5.8748490917197076 #
vertex $-1 $422 $455 #
straight-curve $-1 -76.993316446424757 0 15.840260151306026 0 -1 0 I I #
vertex $-1 $361 $456 #
point $-1 -68.069170497172436 27.795276337006115 9.2223580486111931 #
vertex $-1 $365 $457 #
point $-1 -68.069170497172436 33.988417478872435 9.2223580486111931 #
straight-curve $-1 -76.993316446424757 38.117178240116658 0 0 0 -1 I I #
point $-1 -76.993316446424757 -38.117178240116658 -15.840260151306026 #
straight-curve $-1 -76.993316446424757 0 -15.840260151306026 0 1 0 I I #
point $-1 -76.993316446424757 38.117178240116658 -15.840260151306026 #
coedge $-1 $391 $387 $396 $441 forward $294 $-1 #
vertex $-1 $388 $458 #
straight-curve $-1 -76.993316446424757 0 15.840260151306026 0 -1 0 I I #
point $-1 -76.993316446424757 -19.899607668544064 15.840260151306026 #
straight-curve $-1 76.993316446424757 0 15.840260151306026 0 1 0 I I #
edge $-1 $437 -76.993316446424757 $400 76.993316446424757 $396 $459 forward 7 unknown #
straight-curve $-1 -76.993316446424757 -38.117178240116658 0 0 0 -1 I I #
point $-1 76.993316446424757 -38.117178240116658 15.840260151306026 #
straight-curve $-1 76.993316446424757 15.9613551341054 109.43640493331048 0 0 -1 I I #
point $-1 76.993316446424757 15.9613551341054 15.840260151306026 #
straight-curve $-1 76.993316446424743 11.915738154384378 1.9315055478312573 0 1 0 I I #
point $-1 76.993316446424757 15.9613551341054 1.9315055478312502 #
point $-1 67.270650574651626 19.10940360397074 7.1760002225226032 #
point $-1 67.270650574651626 23.831476308768757 7.1760002225226032 #
point $-1 67.270650574651626 28.553549013566766 7.1760002225226032 #
edge $-1 $426 -15.840260151306026 $420 -5.8748490917197076 $417 $460 forward 7 unknown #
straight-curve $-1 -76.993316446424757 15.445923453969641 5.8748490917196987 0 -1 0 I I #
point $-1 -76.993316446424757 38.117178240116658 5.8748490917197076 #
straight-curve $-1 0 38.117178240116658 15.840260151306026 -1 0 0 I I #
point $-1 -76.993316446424757 38.117178240116658 15.840260151306026 #
point $-1 -68.241519761700729 27.795276337006115 7.8186858179901844 #
point $-1 -68.241519761700729 33.988417478872435 7.8186858179901844 #
point $-1 -76.993316446424757 -38.117178240116658 15.840260151306026 #
straight-curve $-1 0 -38.117178240116658 15.840260151306026 1 0 0 I I #
straight-curve $-1 -76.993316446424757 38.117178240116658 0 0 0 -1 I I #
End-of-ACIS-data 