500 0 14 0           
7 Unknown 11 ACIS 5.0 NT 24 Fri Mar 26 19:03:25 1999 
-1 9.9999999999999995e-007 1e-010 
body $-1 $14 $-1 $15 #
body $-1 $16 $-1 $17 #
body $-1 $18 $-1 $19 #
body $-1 $20 $-1 $21 #
body $-1 $22 $-1 $23 #
body $-1 $24 $-1 $25 #
body $-1 $26 $-1 $27 #
body $-1 $28 $-1 $29 #
body $-1 $30 $-1 $31 #
body $-1 $32 $-1 $33 #
body $-1 $34 $-1 $35 #
body $-1 $36 $-1 $37 #
body $-1 $38 $-1 $39 #
body $-1 $40 $-1 $41 #
lump $-1 $-1 $42 $0 #
transform $-1 1 0 0 0 1 0 0 0 1 78.660847804193239 53.106574944582761 20.058846221629508 1 rotate no_reflect no_shear #
lump $-1 $-1 $43 $1 #
transform $-1 1 0 0 0 1 0 0 0 1 78.660847804193239 53.106574944582761 20.058846221629508 1 rotate no_reflect no_shear #
lump $-1 $-1 $44 $2 #
transform $-1 1 0 0 0 1 0 0 0 1 78.660847804193239 53.106574944582761 20.058846221629508 1 rotate no_reflect no_shear #
lump $-1 $-1 $45 $3 #
transform $-1 1 0 0 0 1 0 0 0 1 78.660847804193239 53.106574944582761 20.058846221629508 1 rotate no_reflect no_shear #
lump $-1 $-1 $46 $4 #
transform $-1 1 0 0 0 1 0 0 0 1 78.660847804193239 53.106574944582761 20.058846221629508 1 rotate no_reflect no_shear #
lump $-1 $-1 $47 $5 #
transform $-1 1 0 0 0 1 0 0 0 1 78.660847804193239 53.106574944582761 20.058846221629508 1 rotate no_reflect no_shear #
lump $-1 $-1 $48 $6 #
transform $-1 1 0 0 0 1 0 0 0 1 78.660847804193239 53.106574944582761 20.058846221629508 1 rotate no_reflect no_shear #
lump $-1 $-1 $49 $7 #
transform $-1 1 0 0 0 1 0 0 0 1 78.660847804193239 53.106574944582761 20.058846221629508 1 rotate no_reflect no_shear #
lump $-1 $-1 $50 $8 #
transform $-1 1 0 0 0 1 0 0 0 1 78.660847804193239 53.106574944582761 20.058846221629508 1 rotate no_reflect no_shear #
lump $-1 $-1 $51 $9 #
transform $-1 1 0 0 0 1 0 0 0 1 78.660847804193239 53.106574944582761 20.058846221629508 1 rotate no_reflect no_shear #
lump $-1 $-1 $52 $10 #
transform $-1 1 0 0 0 1 0 0 0 1 78.660847804193239 53.106574944582761 20.058846221629508 1 rotate no_reflect no_shear #
lump $-1 $-1 $53 $11 #
transform $-1 1 0 0 0 1 0 0 0 1 78.660847804193239 53.106574944582761 20.058846221629508 1 rotate no_reflect no_shear #
lump $-1 $-1 $54 $12 #
transform $-1 1 0 0 0 1 0 0 0 1 78.660847804193239 53.106574944582761 20.058846221629508 1 rotate no_reflect no_shear #
lump $-1 $-1 $55 $13 #
transform $-1 1 0 0 0 1 0 0 0 1 78.660847804193239 53.106574944582761 20.058846221629508 1 rotate no_reflect no_shear #
shell $-1 $-1 $-1 $56 $-1 $14 #
shell $-1 $-1 $-1 $57 $-1 $16 #
shell $-1 $-1 $-1 $58 $-1 $18 #
shell $-1 $-1 $-1 $59 $-1 $20 #
shell $-1 $-1 $-1 $60 $-1 $22 #
shell $-1 $-1 $-1 $61 $-1 $24 #
shell $-1 $-1 $-1 $62 $-1 $26 #
shell $-1 $-1 $-1 $63 $-1 $28 #
shell $-1 $-1 $-1 $64 $-1 $30 #
shell $-1 $-1 $-1 $65 $-1 $32 #
shell $-1 $-1 $-1 $66 $-1 $34 #
shell $-1 $-1 $-1 $67 $-1 $36 #
shell $-1 $-1 $-1 $68 $-1 $38 #
shell $-1 $-1 $-1 $69 $-1 $40 #
face $-1 $70 $71 $42 $-1 $72 forward single #
face $-1 $73 $74 $43 $-1 $75 forward single #
face $-1 $76 $77 $44 $-1 $78 reversed single #
face $-1 $79 $80 $45 $-1 $81 forward single #
face $-1 $82 $83 $46 $-1 $84 forward single #
face $-1 $85 $86 $47 $-1 $87 reversed single #
face $-1 $88 $89 $48 $-1 $90 forward single #
face $-1 $91 $92 $49 $-1 $93 forward single #
face $-1 $94 $95 $50 $-1 $96 reversed single #
face $-1 $97 $98 $51 $-1 $99 forward single #
face $-1 $100 $101 $52 $-1 $102 forward single #
face $-1 $103 $104 $53 $-1 $105 reversed single #
face $-1 $106 $107 $54 $-1 $108 forward single #
face $-1 $109 $110 $55 $-1 $111 forward single #
face $-1 $112 $113 $42 $-1 $114 reversed single #
loop $-1 $-1 $115 $56 #
plane-surface $-1 0 0 20.058846221629508 0 0 1 1 0 0 forward_v I I I I #
face $-1 $116 $117 $43 $-1 $118 reversed single #
loop $-1 $-1 $119 $57 #
plane-surface $-1 0 -40.140456430730637 -14.507846564398392 0 0 1 1 0 0 forward_v I I I I #
face $-1 $120 $121 $44 $-1 $122 reversed single #
loop $-1 $-1 $123 $58 #
plane-surface $-1 -57.176932331417063 98.94891186233896 189.19264840674163 -1 0 0 0 0.74314483375859142 0.66913059716165679 forward_v I I I I #
face $-1 $124 $125 $45 $-1 $126 forward single #
loop $-1 $127 $128 $59 #
cone-surface $-1 -72.522586240542907 42.065085045767376 8.6911864936127259 0 -0.74314483375859142 -0.66913059716165679 3 0 0 1 I I 0 1 3 forward I I I I #
face $-1 $129 $130 $46 $-1 $131 forward single #
loop $-1 $132 $133 $60 #
cone-surface $-1 -63.315193895067402 42.065085045767376 8.6911864936127259 0 -0.74314483375859142 -0.66913059716165679 3 0 0 1 I I 0 1 3 forward I I I I #
face $-1 $134 $135 $47 $-1 $136 reversed single #
loop $-1 $-1 $137 $61 #
plane-surface $-1 -11.897672286213629 98.94891186233896 189.19264840674163 -1 0 0 0 0.74314483375859142 0.66913059716165679 forward_v I I I I #
face $-1 $138 $139 $48 $-1 $140 forward single #
loop $-1 $141 $142 $62 #
cone-surface $-1 -27.243326195339471 42.065085045767376 8.6911864936127259 0 -0.74314483375859142 -0.66913059716165679 3 0 0 1 I I 0 1 3 forward I I I I #
face $-1 $143 $144 $49 $-1 $145 forward single #
loop $-1 $146 $147 $63 #
cone-surface $-1 -18.035933849863966 42.065085045767376 8.6911864936127259 0 -0.74314483375859142 -0.66913059716165679 3 0 0 1 I I 0 1 3 forward I I I I #
face $-1 $148 $149 $50 $-1 $150 reversed single #
loop $-1 $-1 $151 $64 #
plane-surface $-1 33.381587758989809 98.94891186233896 189.19264840674163 -1 0 0 0 0.74314483375859142 0.66913059716165679 forward_v I I I I #
face $-1 $152 $153 $51 $-1 $154 forward single #
loop $-1 $155 $156 $65 #
cone-surface $-1 18.035933849863966 42.065085045767376 8.6911864936127259 0 -0.74314483375859142 -0.66913059716165679 3 0 0 1 I I 0 1 3 forward I I I I #
face $-1 $157 $158 $52 $-1 $159 forward single #
loop $-1 $160 $161 $66 #
cone-surface $-1 27.243326195339463 42.065085045767376 8.6911864936127259 0 -0.74314483375859142 -0.66913059716165679 3 0 0 1 I I 0 1 3 forward I I I I #
face $-1 $162 $163 $53 $-1 $164 reversed single #
loop $-1 $-1 $165 $67 #
plane-surface $-1 67.918890067805151 -17.963893467175126 83.923888277817582 0 0.74314483375859142 0.66913059716165679 1 0 0 forward_v I I I I #
face $-1 $166 $167 $54 $-1 $168 forward single #
loop $-1 $169 $170 $68 #
cone-surface $-1 63.315193895067395 42.065085045767376 8.6911864936127259 0 -0.74314483375859142 -0.66913059716165679 3 0 0 1 I I 0 1 3 forward I I I I #
face $-1 $171 $172 $55 $-1 $173 forward single #
loop $-1 $174 $175 $69 #
cone-surface $-1 72.522586240542907 42.065085045767376 8.6911864936127259 0 -0.74314483375859142 -0.66913059716165679 3 0 0 1 I I 0 1 3 forward I I I I #
face $-1 $176 $177 $42 $-1 $178 reversed single #
loop $-1 $-1 $179 $70 #
plane-surface $-1 0 0 -20.058846221629508 0 0 1 1 0 0 forward_v I I I I #
coedge $-1 $180 $181 $182 $183 forward $71 $-1 #
face $-1 $184 $185 $43 $-1 $186 reversed single #
loop $-1 $-1 $187 $73 #
plane-surface $-1 0 -27.17433791687851 -17.28334639301395 0 -1 0 0 0 -1 forward_v I I I I #
coedge $-1 $188 $189 $190 $191 reversed $74 $-1 #
face $-1 $192 $193 $44 $-1 $194 reversed single #
loop $-1 $-1 $195 $76 #
plane-surface $-1 -67.918890067805151 -17.963893467175126 83.923888277817582 0 0.74314483375859142 0.66913059716165679 1 0 0 forward_v I I I I #
coedge $-1 $196 $197 $198 $199 reversed $77 $-1 #
face $-1 $-1 $200 $45 $-1 $201 forward single #
loop $-1 $202 $203 $79 #
cone-surface $-1 -72.522586240542907 36.691941739468362 3.8531866504395538 0 -0.74314483375859142 -0.66913059716165679 1.5 0 0 1 I I -0.70710678118654757 0.70710678118654757 1.5 forward I I I I #
loop $-1 $-1 $204 $59 #
coedge $-1 $128 $128 $205 $206 reversed $80 $-1 #
face $-1 $-1 $207 $46 $-1 $208 forward single #
loop $-1 $209 $210 $82 #
cone-surface $-1 -63.315193895067402 36.691941739468362 3.8531866504395538 0 -0.74314483375859142 -0.66913059716165679 1.5 0 0 1 I I -0.70710678118654757 0.70710678118654757 1.5 forward I I I I #
loop $-1 $-1 $211 $60 #
coedge $-1 $133 $133 $212 $213 reversed $83 $-1 #
face $-1 $214 $215 $47 $-1 $216 reversed single #
loop $-1 $-1 $217 $85 #
plane-surface $-1 -22.639630022601715 -17.963893467175126 83.923888277817582 0 0.74314483375859142 0.66913059716165679 1 0 0 forward_v I I I I #
coedge $-1 $218 $219 $220 $221 reversed $86 $-1 #
face $-1 $-1 $222 $48 $-1 $223 forward single #
loop $-1 $224 $225 $88 #
cone-surface $-1 -27.243326195339471 36.691941739468362 3.8531866504395538 0 -0.74314483375859142 -0.66913059716165679 1.5 0 0 1 I I -0.70710678118654757 0.70710678118654757 1.5 forward I I I I #
loop $-1 $-1 $226 $62 #
coedge $-1 $142 $142 $227 $228 reversed $89 $-1 #
face $-1 $-1 $229 $49 $-1 $230 forward single #
loop $-1 $231 $232 $91 #
cone-surface $-1 -18.035933849863966 36.691941739468362 3.8531866504395538 0 -0.74314483375859142 -0.66913059716165679 1.5 0 0 1 I I -0.70710678118654757 0.70710678118654757 1.5 forward I I I I #
loop $-1 $-1 $233 $63 #
coedge $-1 $147 $147 $234 $235 reversed $92 $-1 #
face $-1 $236 $237 $50 $-1 $238 reversed single #
loop $-1 $-1 $239 $94 #
plane-surface $-1 22.639630022601722 -17.963893467175126 83.923888277817582 0 0.74314483375859142 0.66913059716165679 1 0 0 forward_v I I I I #
coedge $-1 $240 $241 $242 $243 reversed $95 $-1 #
face $-1 $-1 $244 $51 $-1 $245 forward single #
loop $-1 $246 $247 $97 #
cone-surface $-1 18.035933849863966 36.691941739468362 3.8531866504395538 0 -0.74314483375859142 -0.66913059716165679 1.5 0 0 1 I I -0.70710678118654757 0.70710678118654757 1.5 forward I I I I #
loop $-1 $-1 $248 $65 #
coedge $-1 $156 $156 $249 $250 reversed $98 $-1 #
face $-1 $-1 $251 $52 $-1 $252 forward single #
loop $-1 $253 $254 $100 #
cone-surface $-1 27.243326195339463 36.691941739468362 3.8531866504395538 0 -0.74314483375859142 -0.66913059716165679 1.5 0 0 1 I I -0.70710678118654757 0.70710678118654757 1.5 forward I I I I #
loop $-1 $-1 $255 $66 #
coedge $-1 $161 $161 $256 $257 reversed $101 $-1 #
face $-1 $258 $259 $53 $-1 $260 forward single #
loop $-1 $-1 $261 $103 #
plane-surface $-1 57.176932331417063 98.94891186233896 189.19264840674163 1 0 0 0 -0.74314483375859142 -0.66913059716165679 forward_v I I I I #
coedge $-1 $262 $263 $264 $265 reversed $104 $-1 #
face $-1 $-1 $266 $54 $-1 $267 forward single #
loop $-1 $268 $269 $106 #
cone-surface $-1 63.315193895067395 36.691941739468362 3.8531866504395538 0 -0.74314483375859142 -0.66913059716165679 1.5 0 0 1 I I -0.70710678118654757 0.70710678118654757 1.5 forward I I I I #
loop $-1 $-1 $270 $68 #
coedge $-1 $170 $170 $271 $272 reversed $107 $-1 #
face $-1 $-1 $273 $55 $-1 $274 forward single #
loop $-1 $275 $276 $109 #
cone-surface $-1 72.522586240542907 36.691941739468362 3.8531866504395538 0 -0.74314483375859142 -0.66913059716165679 1.5 0 0 1 I I -0.70710678118654757 0.70710678118654757 1.5 forward I I I I #
loop $-1 $-1 $277 $69 #
coedge $-1 $175 $175 $278 $279 reversed $110 $-1 #
face $-1 $280 $281 $42 $-1 $282 reversed single #
loop $-1 $-1 $283 $112 #
plane-surface $-1 0 -53.106574944582761 0 0 1 0 0 0 1 forward_v I I I I #
coedge $-1 $284 $285 $286 $287 forward $113 $-1 #
coedge $-1 $288 $115 $289 $290 forward $71 $-1 #
coedge $-1 $115 $288 $291 $292 forward $71 $-1 #
coedge $-1 $293 $294 $115 $183 reversed $295 $-1 #
edge $-1 $296 -53.106574944582761 $297 53.106574944582761 $182 $298 forward 7 unknown #
face $-1 $299 $300 $43 $-1 $301 reversed single #
loop $-1 $-1 $302 $116 #
plane-surface $-1 0 0 -20.058846221629508 0 0 1 1 0 0 forward_v I I I I #
coedge $-1 $303 $304 $305 $306 reversed $117 $-1 #
coedge $-1 $307 $119 $304 $308 forward $74 $-1 #
coedge $-1 $119 $307 $309 $310 reversed $74 $-1 #
coedge $-1 $311 $305 $119 $191 forward $300 $-1 #
edge $-1 $312 7.1041097015131918 $313 33.036346729217442 $190 $314 forward 7 unknown #
face $-1 $315 $316 $44 $-1 $317 forward single #
loop $-1 $-1 $198 $120 #
plane-surface $-1 0 53.106574944582761 0 0 -1 0 0 0 -1 forward_v I I I I #
coedge $-1 $318 $319 $320 $321 reversed $121 $-1 #
coedge $-1 $197 $123 $322 $323 reversed $77 $-1 #
coedge $-1 $123 $196 $318 $324 reversed $77 $-1 #
coedge $-1 $320 $325 $123 $199 forward $193 $-1 #
edge $-1 $326 74.537477981741304 $327 89.604189542913488 $198 $328 forward 7 unknown #
loop $-1 $-1 $205 $124 #
plane-surface $-1 -67.918890067805151 -17.963893467175126 83.923888277817582 0 0.74314483375859142 0.66913059716165679 1 0 0 forward_v I I I I #
loop $-1 $-1 $329 $79 #
coedge $-1 $203 $203 $204 $330 reversed $125 $-1 #
coedge $-1 $204 $204 $203 $330 forward $127 $-1 #
coedge $-1 $205 $205 $128 $206 forward $200 $-1 #
edge $-1 $331 1.144789480922765e-015 $331 6.2831853071796013 $205 $332 forward 7 unknown #
loop $-1 $-1 $212 $129 #
plane-surface $-1 -67.918890067805151 -17.963893467175126 83.923888277817582 0 0.74314483375859142 0.66913059716165679 1 0 0 forward_v I I I I #
loop $-1 $-1 $333 $82 #
coedge $-1 $210 $210 $211 $334 reversed $130 $-1 #
coedge $-1 $211 $211 $210 $334 forward $132 $-1 #
coedge $-1 $212 $212 $133 $213 forward $207 $-1 #
edge $-1 $335 1.144789480922765e-015 $335 6.2831853071796013 $212 $336 forward 7 unknown #
face $-1 $337 $338 $47 $-1 $339 forward single #
loop $-1 $-1 $340 $134 #
plane-surface $-1 -33.381587758989802 98.94891186233896 189.19264840674163 1 0 0 0 -0.74314483375859142 -0.66913059716165679 forward_v I I I I #
coedge $-1 $341 $342 $343 $344 reversed $135 $-1 #
coedge $-1 $219 $137 $345 $346 reversed $86 $-1 #
coedge $-1 $137 $218 $341 $347 reversed $86 $-1 #
coedge $-1 $343 $348 $137 $221 forward $349 $-1 #
edge $-1 $350 74.537477981741304 $351 89.604189542913488 $220 $352 forward 7 unknown #
loop $-1 $-1 $227 $138 #
plane-surface $-1 -22.639630022601715 -17.963893467175126 83.923888277817582 0 0.74314483375859142 0.66913059716165679 1 0 0 forward_v I I I I #
loop $-1 $-1 $353 $88 #
coedge $-1 $225 $225 $226 $354 reversed $139 $-1 #
coedge $-1 $226 $226 $225 $354 forward $141 $-1 #
coedge $-1 $227 $227 $142 $228 forward $222 $-1 #
edge $-1 $355 1.144789480922765e-015 $355 6.2831853071796013 $227 $356 forward 7 unknown #
loop $-1 $-1 $234 $143 #
plane-surface $-1 -22.639630022601715 -17.963893467175126 83.923888277817582 0 0.74314483375859142 0.66913059716165679 1 0 0 forward_v I I I I #
loop $-1 $-1 $357 $91 #
coedge $-1 $232 $232 $233 $358 reversed $144 $-1 #
coedge $-1 $233 $233 $232 $358 forward $146 $-1 #
coedge $-1 $234 $234 $147 $235 forward $229 $-1 #
edge $-1 $359 1.144789480922765e-015 $359 6.2831853071796013 $234 $360 forward 7 unknown #
face $-1 $361 $362 $50 $-1 $363 forward single #
loop $-1 $-1 $364 $148 #
plane-surface $-1 11.897672286213636 98.94891186233896 189.19264840674163 1 0 0 0 -0.74314483375859142 -0.66913059716165679 forward_v I I I I #
coedge $-1 $365 $366 $367 $368 reversed $149 $-1 #
coedge $-1 $241 $151 $369 $370 reversed $95 $-1 #
coedge $-1 $151 $240 $365 $371 reversed $95 $-1 #
coedge $-1 $367 $372 $151 $243 forward $373 $-1 #
edge $-1 $374 74.537477981741304 $375 89.604189542913488 $242 $376 forward 7 unknown #
loop $-1 $-1 $249 $152 #
plane-surface $-1 22.639630022601722 -17.963893467175126 83.923888277817582 0 0.74314483375859142 0.66913059716165679 1 0 0 forward_v I I I I #
loop $-1 $-1 $377 $97 #
coedge $-1 $247 $247 $248 $378 reversed $153 $-1 #
coedge $-1 $248 $248 $247 $378 forward $155 $-1 #
coedge $-1 $249 $249 $156 $250 forward $244 $-1 #
edge $-1 $379 1.144789480922765e-015 $379 6.2831853071796013 $249 $380 forward 7 unknown #
loop $-1 $-1 $256 $157 #
plane-surface $-1 22.639630022601722 -17.963893467175126 83.923888277817582 0 0.74314483375859142 0.66913059716165679 1 0 0 forward_v I I I I #
loop $-1 $-1 $381 $100 #
coedge $-1 $254 $254 $255 $382 reversed $158 $-1 #
coedge $-1 $255 $255 $254 $382 forward $160 $-1 #
coedge $-1 $256 $256 $161 $257 forward $251 $-1 #
edge $-1 $383 1.144789480922765e-015 $383 6.2831853071796013 $256 $384 forward 7 unknown #
face $-1 $385 $386 $53 $-1 $387 reversed single #
loop $-1 $-1 $388 $162 #
plane-surface $-1 0 0 20.058846221629508 0 0 1 1 0 0 forward_v I I I I #
coedge $-1 $389 $390 $391 $392 reversed $163 $-1 #
coedge $-1 $393 $165 $394 $395 reversed $104 $-1 #
coedge $-1 $165 $393 $389 $396 forward $104 $-1 #
coedge $-1 $391 $397 $165 $265 forward $386 $-1 #
edge $-1 $398 -44.701402770290663 $399 -23.217487297514488 $264 $400 forward 7 unknown #
loop $-1 $-1 $271 $166 #
plane-surface $-1 67.918890067805151 -17.963893467175126 83.923888277817582 0 0.74314483375859142 0.66913059716165679 1 0 0 forward_v I I I I #
loop $-1 $-1 $401 $106 #
coedge $-1 $269 $269 $270 $402 reversed $167 $-1 #
coedge $-1 $270 $270 $269 $402 forward $169 $-1 #
coedge $-1 $271 $271 $170 $272 forward $266 $-1 #
edge $-1 $403 1.144789480922765e-015 $403 6.2831853071796013 $271 $404 forward 7 unknown #
loop $-1 $-1 $278 $171 #
plane-surface $-1 67.918890067805151 -17.963893467175126 83.923888277817582 0 0.74314483375859142 0.66913059716165679 1 0 0 forward_v I I I I #
loop $-1 $-1 $405 $109 #
coedge $-1 $276 $276 $277 $406 reversed $172 $-1 #
coedge $-1 $277 $277 $276 $406 forward $174 $-1 #
coedge $-1 $278 $278 $175 $279 forward $273 $-1 #
edge $-1 $407 1.144789480922765e-015 $407 6.2831853071796013 $278 $408 forward 7 unknown #
face $-1 $409 $410 $42 $-1 $411 reversed single #
loop $-1 $-1 $412 $176 #
plane-surface $-1 -78.660847804193239 0 0 1 0 0 0 0 -1 forward_v I I I I #
coedge $-1 $413 $291 $414 $415 forward $177 $-1 #
coedge $-1 $416 $179 $413 $417 forward $113 $-1 #
coedge $-1 $179 $416 $418 $419 forward $113 $-1 #
coedge $-1 $294 $293 $179 $287 reversed $295 $-1 #
edge $-1 $420 -53.106574944582761 $421 53.106574944582761 $286 $422 forward 7 unknown #
coedge $-1 $181 $180 $423 $424 forward $71 $-1 #
coedge $-1 $425 $426 $180 $290 reversed $410 $-1 #
edge $-1 $297 -78.660847804193239 $427 78.660847804193239 $289 $428 forward 7 unknown #
coedge $-1 $283 $429 $181 $292 reversed $177 $-1 #
edge $-1 $430 -78.660847804193239 $296 78.660847804193239 $291 $431 forward 7 unknown #
coedge $-1 $286 $182 $429 $432 forward $295 $-1 #
coedge $-1 $182 $286 $425 $433 reversed $295 $-1 #
loop $-1 $-1 $293 $409 #
vertex $-1 $183 $434 #
vertex $-1 $183 $435 #
straight-curve $-1 78.660847804193239 0 20.058846221629508 0 1 0 I I #
face $-1 $436 $437 $43 $-1 $438 reversed single #
loop $-1 $-1 $305 $184 #
plane-surface $-1 78.660847804193239 0 0 -1 0 0 0 0 1 forward_v I I I I #
coedge $-1 $439 $440 $303 $441 forward $185 $-1 #
coedge $-1 $442 $187 $302 $441 reversed $117 $-1 #
coedge $-1 $187 $442 $188 $308 reversed $117 $-1 #
coedge $-1 $190 $443 $187 $306 forward $300 $-1 #
edge $-1 $444 -11.417173025122533 $312 -5.8661733678914167 $305 $445 forward 7 unknown #
coedge $-1 $189 $188 $446 $447 reversed $74 $-1 #
edge $-1 $312 -78.660847804193239 $448 78.660847804193239 $304 $449 forward 7 unknown #
coedge $-1 $450 $451 $189 $310 forward $437 $-1 #
edge $-1 $313 -78.660847804193239 $452 78.660847804193239 $309 $453 forward 7 unknown #
coedge $-1 $443 $190 $451 $454 forward $300 $-1 #
vertex $-1 $191 $455 #
vertex $-1 $454 $456 #
straight-curve $-1 78.660847804193239 -20.070228215365319 -14.507846564398392 0 -1 0 I I #
face $-1 $-1 $457 $44 $-1 $458 reversed single #
loop $-1 $-1 $322 $192 #
plane-surface $-1 0 0 20.058846221629508 0 0 1 1 0 0 forward_v I I I I #
coedge $-1 $459 $195 $197 $324 forward $121 $-1 #
coedge $-1 $195 $459 $460 $461 reversed $121 $-1 #
coedge $-1 $462 $198 $195 $321 forward $193 $-1 #
edge $-1 $327 23.217487297514488 $463 44.701402770290663 $320 $464 forward 7 unknown #
coedge $-1 $465 $466 $196 $323 forward $316 $-1 #
edge $-1 $467 -9.934008672895267 $326 3.6321190134132806 $322 $468 forward 7 unknown #
edge $-1 $327 -106.21314988916549 $467 -85.938889910838625 $197 $469 forward 7 unknown #
coedge $-1 $198 $462 $465 $470 reversed $193 $-1 #
vertex $-1 $470 $471 #
vertex $-1 $199 $472 #
straight-curve $-1 -57.176932331417063 53.106574944582761 94.596324203370813 0 0 -1 I I #
coedge $-1 $329 $329 $-1 $473 reversed $202 $-1 #
edge $-1 $474 0 $474 6.2831853071796004 $203 $475 forward 7 unknown #
vertex $-1 $206 $476 #
ellipse-curve $-1 -72.522586240542907 46.323511101428501 12.525490441043413 0 0.74314483375859142 0.66913059716165679 3 0 0 1 I I #
coedge $-1 $333 $333 $-1 $477 reversed $209 $-1 #
edge $-1 $478 0 $478 6.2831853071796004 $210 $479 forward 7 unknown #
vertex $-1 $213 $480 #
ellipse-curve $-1 -63.315193895067402 46.323511101428501 12.525490441043413 0 0.74314483375859142 0.66913059716165679 3 0 0 1 I I #
face $-1 $-1 $349 $47 $-1 $481 reversed single #
loop $-1 $-1 $482 $214 #
plane-surface $-1 0 0 20.058846221629508 0 0 1 1 0 0 forward_v I I I I #
coedge $-1 $483 $484 $485 $486 reversed $215 $-1 #
coedge $-1 $487 $217 $219 $347 forward $135 $-1 #
coedge $-1 $217 $487 $483 $488 forward $135 $-1 #
coedge $-1 $485 $220 $217 $344 forward $349 $-1 #
edge $-1 $351 0.5778572749127715 $489 22.061772747688945 $343 $490 forward 7 unknown #
coedge $-1 $491 $492 $218 $346 forward $338 $-1 #
edge $-1 $493 -9.934008672895267 $350 3.6321190134132806 $345 $494 forward 7 unknown #
edge $-1 $351 -106.21314988916549 $493 -85.938889910838625 $219 $495 forward 7 unknown #
coedge $-1 $220 $485 $491 $496 reversed $349 $-1 #
loop $-1 $-1 $485 $337 #
vertex $-1 $496 $497 #
vertex $-1 $221 $498 #
straight-curve $-1 -11.897672286213629 53.106574944582761 94.596324203370813 0 0 -1 I I #
coedge $-1 $353 $353 $-1 $499 reversed $224 $-1 #
edge $-1 $500 0 $500 6.2831853071796004 $225 $501 forward 7 unknown #
vertex $-1 $228 $502 #
ellipse-curve $-1 -27.243326195339471 46.323511101428501 12.525490441043413 0 0.74314483375859142 0.66913059716165679 3 0 0 1 I I #
coedge $-1 $357 $357 $-1 $503 reversed $231 $-1 #
edge $-1 $504 0 $504 6.2831853071796004 $232 $505 forward 7 unknown #
vertex $-1 $235 $506 #
ellipse-curve $-1 -18.035933849863966 46.323511101428501 12.525490441043413 0 0.74314483375859142 0.66913059716165679 3 0 0 1 I I #
face $-1 $-1 $373 $50 $-1 $507 reversed single #
loop $-1 $-1 $508 $236 #
plane-surface $-1 0 0 20.058846221629508 0 0 1 1 0 0 forward_v I I I I #
coedge $-1 $509 $510 $511 $512 reversed $237 $-1 #
coedge $-1 $513 $239 $241 $371 forward $149 $-1 #
coedge $-1 $239 $513 $509 $514 forward $149 $-1 #
coedge $-1 $511 $242 $239 $368 forward $373 $-1 #
edge $-1 $375 -22.061772747688948 $515 -0.57785727491277505 $367 $516 forward 7 unknown #
coedge $-1 $517 $518 $240 $370 forward $362 $-1 #
edge $-1 $519 -9.934008672895267 $374 3.6321190134132806 $369 $520 forward 7 unknown #
edge $-1 $375 -106.21314988916549 $519 -85.938889910838625 $241 $521 forward 7 unknown #
coedge $-1 $242 $511 $517 $522 reversed $373 $-1 #
loop $-1 $-1 $511 $361 #
vertex $-1 $522 $523 #
vertex $-1 $243 $524 #
straight-curve $-1 33.381587758989809 53.106574944582761 94.596324203370813 0 0 -1 I I #
coedge $-1 $377 $377 $-1 $525 reversed $246 $-1 #
edge $-1 $526 0 $526 6.2831853071796004 $247 $527 forward 7 unknown #
vertex $-1 $250 $528 #
ellipse-curve $-1 18.035933849863966 46.323511101428501 12.525490441043413 0 0.74314483375859142 0.66913059716165679 3 0 0 1 I I #
coedge $-1 $381 $381 $-1 $529 reversed $253 $-1 #
edge $-1 $530 0 $530 6.2831853071796004 $254 $531 forward 7 unknown #
vertex $-1 $257 $532 #
ellipse-curve $-1 27.243326195339463 46.323511101428501 12.525490441043413 0 0.74314483375859142 0.66913059716165679 3 0 0 1 I I #
face $-1 $-1 $533 $53 $-1 $534 reversed single #
loop $-1 $-1 $391 $258 #
plane-surface $-1 0 53.106574944582761 0 0 -1 0 0 0 -1 forward_v I I I I #
coedge $-1 $535 $536 $390 $537 forward $259 $-1 #
coedge $-1 $390 $261 $263 $396 reversed $163 $-1 #
coedge $-1 $261 $389 $388 $537 reversed $163 $-1 #
coedge $-1 $538 $264 $261 $392 forward $386 $-1 #
edge $-1 $399 -89.604189542913488 $539 -74.537477981741304 $391 $540 forward 7 unknown #
coedge $-1 $263 $262 $535 $541 reversed $104 $-1 #
coedge $-1 $542 $543 $262 $395 forward $533 $-1 #
edge $-1 $544 48.744992528022316 $398 69.01925250634919 $394 $545 forward 7 unknown #
edge $-1 $546 85.938889910838625 $399 106.21314988916549 $389 $547 forward 7 unknown #
coedge $-1 $264 $538 $542 $548 forward $386 $-1 #
vertex $-1 $395 $549 #
vertex $-1 $265 $550 #
straight-curve $-1 33.959445033902576 53.106574944582761 4.9921346604573174 -1 0 0 I I #
coedge $-1 $401 $401 $-1 $551 reversed $268 $-1 #
edge $-1 $552 0 $552 6.2831853071796004 $269 $553 forward 7 unknown #
vertex $-1 $272 $554 #
ellipse-curve $-1 63.315193895067395 46.323511101428501 12.525490441043413 0 0.74314483375859142 0.66913059716165679 3 0 0 1 I I #
coedge $-1 $405 $405 $-1 $555 reversed $275 $-1 #
edge $-1 $556 0 $556 6.2831853071796004 $276 $557 forward 7 unknown #
vertex $-1 $279 $558 #
ellipse-curve $-1 72.522586240542907 46.323511101428501 12.525490441043413 0 0.74314483375859142 0.66913059716165679 3 0 0 1 I I #
face $-1 $-1 $295 $42 $-1 $559 reversed single #
loop $-1 $-1 $425 $280 #
plane-surface $-1 0 53.106574944582761 0 0 -1 0 0 0 -1 forward_v I I I I #
coedge $-1 $560 $423 $426 $561 forward $281 $-1 #
coedge $-1 $429 $283 $284 $417 reversed $177 $-1 #
coedge $-1 $423 $560 $283 $415 reversed $281 $-1 #
edge $-1 $430 -20.058846221629508 $562 20.058846221629508 $414 $563 forward 7 unknown #
coedge $-1 $285 $284 $560 $564 forward $113 $-1 #
edge $-1 $421 -78.660847804193239 $562 78.660847804193239 $413 $565 forward 7 unknown #
coedge $-1 $426 $425 $285 $419 reversed $410 $-1 #
edge $-1 $566 -78.660847804193239 $420 78.660847804193239 $418 $567 forward 7 unknown #
vertex $-1 $287 $568 #
vertex $-1 $432 $569 #
straight-curve $-1 78.660847804193239 0 -20.058846221629508 0 -1 0 I I #
coedge $-1 $412 $414 $288 $424 reversed $281 $-1 #
edge $-1 $427 -53.106574944582761 $430 53.106574944582761 $423 $570 forward 7 unknown #
coedge $-1 $418 $289 $294 $433 forward $410 $-1 #
coedge $-1 $289 $418 $412 $561 reversed $410 $-1 #
vertex $-1 $290 $571 #
straight-curve $-1 0 53.106574944582761 20.058846221629508 -1 0 0 I I #
coedge $-1 $291 $413 $293 $432 reversed $177 $-1 #
vertex $-1 $424 $572 #
straight-curve $-1 0 -53.106574944582761 20.058846221629508 1 0 0 I I #
edge $-1 $296 -20.058846221629508 $421 20.058846221629508 $293 $573 forward 7 unknown #
edge $-1 $297 -20.058846221629508 $420 20.058846221629508 $294 $574 forward 7 unknown #
point $-1 78.660847804193239 -53.106574944582761 20.058846221629508 #
point $-1 78.660847804193239 53.106574944582761 20.058846221629508 #
face $-1 $-1 $575 $43 $-1 $576 reversed single #
loop $-1 $-1 $309 $299 #
plane-surface $-1 0 -53.106574944582761 0 0 1 0 0 0 1 forward_v I I I I #
coedge $-1 $577 $302 $443 $578 forward $185 $-1 #
coedge $-1 $302 $577 $579 $580 forward $185 $-1 #
edge $-1 $581 -78.660847804193239 $444 78.660847804193239 $302 $582 forward 7 unknown #
coedge $-1 $304 $303 $583 $584 reversed $117 $-1 #
coedge $-1 $305 $311 $439 $578 reversed $300 $-1 #
vertex $-1 $578 $585 #
straight-curve $-1 78.660847804193239 -27.17433791687851 -8.6416731965069751 0 0 1 I I #
coedge $-1 $583 $586 $307 $447 forward $575 $-1 #
edge $-1 $452 -33.036346729217442 $448 -7.1041097015131918 $446 $587 forward 7 unknown #
vertex $-1 $447 $588 #
straight-curve $-1 0 -27.17433791687851 -14.507846564398392 -1 0 0 I I #
coedge $-1 $589 $309 $586 $590 forward $437 $-1 #
coedge $-1 $309 $589 $311 $454 reversed $437 $-1 #
vertex $-1 $590 $591 #
straight-curve $-1 0 -53.106574944582761 -14.507846564398392 -1 0 0 I I #
edge $-1 $313 14.507846564398392 $592 20.058846221629508 $311 $593 forward 7 unknown #
point $-1 78.660847804193239 -27.17433791687851 -14.507846564398392 #
point $-1 78.660847804193239 -53.106574944582761 -14.507846564398392 #
loop $-1 $-1 $460 $315 #
plane-surface $-1 -78.660847804193239 0 0 1 0 0 0 0 -1 forward_v I I I I #
coedge $-1 $319 $318 $466 $594 reversed $121 $-1 #
coedge $-1 $595 $596 $319 $461 forward $457 $-1 #
edge $-1 $463 -69.01925250634919 $597 -48.744992528022316 $460 $598 forward 7 unknown #
coedge $-1 $325 $320 $596 $599 reversed $193 $-1 #
vertex $-1 $321 $600 #
straight-curve $-1 -33.959445033902576 53.106574944582761 4.9921346604573174 -1 0 0 I I #
coedge $-1 $601 $322 $325 $470 forward $316 $-1 #
coedge $-1 $322 $601 $459 $594 forward $316 $-1 #
vertex $-1 $323 $602 #
straight-curve $-1 -57.176932331417063 49.47445593116948 20.058846221629508 0 1 0 I I #
straight-curve $-1 -57.176932331417063 -17.963893467175126 83.923888277817582 0 -0.66913059716165679 0.74314483375859142 I I #
edge $-1 $326 57.176932331417063 $603 78.660847804193239 $325 $604 forward 7 unknown #
point $-1 -57.176932331417063 53.106574944582761 20.058846221629508 #
point $-1 -57.176932331417063 53.106574944582761 4.9921346604573245 #
edge $-1 $605 1 $605 0 $329 $-1 forward 7 unknown #
vertex $-1 $330 $606 #
ellipse-curve $-1 -72.522586240542907 37.80665899010625 4.8568825461820389 0 0.74314483375859142 0.66913059716165679 3 0 0 1 I I #
point $-1 -69.522586240542907 46.323511101428508 12.525490441043415 #
edge $-1 $607 1 $607 0 $333 $-1 forward 7 unknown #
vertex $-1 $334 $608 #
ellipse-curve $-1 -63.315193895067402 37.80665899010625 4.8568825461820389 0 0.74314483375859142 0.66913059716165679 3 0 0 1 I I #
point $-1 -60.315193895067402 46.323511101428508 12.525490441043415 #
plane-surface $-1 0 53.106574944582761 0 0 -1 0 0 0 -1 forward_v I I I I #
coedge $-1 $492 $491 $484 $609 forward $338 $-1 #
coedge $-1 $484 $340 $342 $488 reversed $215 $-1 #
coedge $-1 $340 $483 $482 $609 reversed $215 $-1 #
coedge $-1 $348 $343 $340 $486 forward $349 $-1 #
edge $-1 $489 -89.604189542913488 $610 -74.537477981741304 $485 $611 forward 7 unknown #
coedge $-1 $342 $341 $492 $612 reversed $135 $-1 #
edge $-1 $613 85.938889910838625 $489 106.21314988916549 $483 $614 forward 7 unknown #
vertex $-1 $344 $615 #
straight-curve $-1 -11.319815011300857 53.106574944582761 4.9921346604573174 -1 0 0 I I #
coedge $-1 $482 $345 $348 $496 forward $338 $-1 #
coedge $-1 $345 $482 $487 $612 forward $338 $-1 #
vertex $-1 $346 $616 #
straight-curve $-1 -11.897672286213629 49.47445593116948 20.058846221629508 0 1 0 I I #
straight-curve $-1 -11.897672286213629 -17.963893467175126 83.923888277817582 0 -0.66913059716165679 0.74314483375859142 I I #
edge $-1 $350 11.897672286213629 $610 33.381587758989802 $348 $617 forward 7 unknown #
point $-1 -11.897672286213629 53.106574944582761 20.058846221629508 #
point $-1 -11.897672286213629 53.106574944582761 4.9921346604573245 #
edge $-1 $618 1 $618 0 $353 $-1 forward 7 unknown #
vertex $-1 $354 $619 #
ellipse-curve $-1 -27.243326195339471 37.80665899010625 4.8568825461820389 0 0.74314483375859142 0.66913059716165679 3 0 0 1 I I #
point $-1 -24.243326195339471 46.323511101428508 12.525490441043415 #
edge $-1 $620 1 $620 0 $357 $-1 forward 7 unknown #
vertex $-1 $358 $621 #
ellipse-curve $-1 -18.035933849863966 37.80665899010625 4.8568825461820389 0 0.74314483375859142 0.66913059716165679 3 0 0 1 I I #
point $-1 -15.035933849863966 46.323511101428508 12.525490441043415 #
plane-surface $-1 0 53.106574944582761 0 0 -1 0 0 0 -1 forward_v I I I I #
coedge $-1 $518 $517 $510 $622 forward $362 $-1 #
coedge $-1 $510 $364 $366 $514 reversed $237 $-1 #
coedge $-1 $364 $509 $508 $622 reversed $237 $-1 #
coedge $-1 $372 $367 $364 $512 forward $373 $-1 #
edge $-1 $515 -89.604189542913488 $623 -74.537477981741304 $511 $624 forward 7 unknown #
coedge $-1 $366 $365 $518 $625 reversed $149 $-1 #
edge $-1 $626 85.938889910838625 $515 106.21314988916549 $509 $627 forward 7 unknown #
vertex $-1 $368 $628 #
straight-curve $-1 11.319815011300861 53.106574944582761 4.9921346604573174 -1 0 0 I I #
coedge $-1 $508 $369 $372 $522 forward $362 $-1 #
coedge $-1 $369 $508 $513 $625 forward $362 $-1 #
vertex $-1 $370 $629 #
straight-curve $-1 33.381587758989809 49.47445593116948 20.058846221629508 0 1 0 I I #
straight-curve $-1 33.381587758989809 -17.963893467175126 83.923888277817582 0 -0.66913059716165679 0.74314483375859142 I I #
edge $-1 $374 -33.381587758989809 $623 -11.897672286213636 $372 $630 forward 7 unknown #
point $-1 33.381587758989809 53.106574944582761 20.058846221629508 #
point $-1 33.381587758989809 53.106574944582761 4.9921346604573245 #
edge $-1 $631 1 $631 0 $377 $-1 forward 7 unknown #
vertex $-1 $378 $632 #
ellipse-curve $-1 18.035933849863966 37.80665899010625 4.8568825461820389 0 0.74314483375859142 0.66913059716165679 3 0 0 1 I I #
point $-1 21.035933849863966 46.323511101428508 12.525490441043415 #
edge $-1 $633 1 $633 0 $381 $-1 forward 7 unknown #
vertex $-1 $382 $634 #
ellipse-curve $-1 27.243326195339463 37.80665899010625 4.8568825461820389 0 0.74314483375859142 0.66913059716165679 3 0 0 1 I I #
point $-1 30.243326195339463 46.323511101428508 12.525490441043415 #
loop $-1 $-1 $394 $385 #
plane-surface $-1 78.660847804193239 0 0 -1 0 0 0 0 1 forward_v I I I I #
coedge $-1 $635 $388 $393 $541 forward $259 $-1 #
coedge $-1 $388 $635 $538 $636 forward $259 $-1 #
edge $-1 $539 -3.6321190134132806 $546 9.934008672895267 $388 $637 forward 7 unknown #
coedge $-1 $397 $391 $536 $636 reversed $386 $-1 #
vertex $-1 $537 $638 #
straight-curve $-1 57.176932331417063 53.106574944582761 94.596324203370813 0 0 1 I I #
edge $-1 $546 23.217487297514488 $544 44.701402770290663 $535 $639 forward 7 unknown #
coedge $-1 $543 $394 $397 $548 reversed $533 $-1 #
coedge $-1 $394 $542 $635 $640 reversed $533 $-1 #
vertex $-1 $640 $641 #
straight-curve $-1 78.660847804193239 6.9236812993581367 56.283435590430443 0 0.66913059716165679 -0.74314483375859142 I I #
vertex $-1 $541 $642 #
straight-curve $-1 57.176932331417063 -17.963893467175126 83.923888277817582 0 0.66913059716165679 -0.74314483375859142 I I #
edge $-1 $643 -20.058846221629508 $398 -4.9921346604573245 $542 $644 forward 7 unknown #
point $-1 78.660847804193239 53.106574944582761 4.9921346604573245 #
point $-1 57.176932331417063 53.106574944582761 4.9921346604573245 #
edge $-1 $645 1 $645 0 $401 $-1 forward 7 unknown #
vertex $-1 $402 $646 #
ellipse-curve $-1 63.315193895067395 37.80665899010625 4.8568825461820389 0 0.74314483375859142 0.66913059716165679 3 0 0 1 I I #
point $-1 66.315193895067395 46.323511101428508 12.525490441043415 #
edge $-1 $647 1 $647 0 $405 $-1 forward 7 unknown #
vertex $-1 $406 $648 #
ellipse-curve $-1 72.522586240542907 37.80665899010625 4.8568825461820389 0 0.74314483375859142 0.66913059716165679 3 0 0 1 I I #
point $-1 75.522586240542907 46.323511101428508 12.525490441043415 #
plane-surface $-1 78.660847804193239 0 0 -1 0 0 0 0 1 forward_v I I I I #
coedge $-1 $414 $412 $416 $564 reversed $281 $-1 #
edge $-1 $427 -20.058846221629508 $566 20.058846221629508 $426 $649 forward 7 unknown #
vertex $-1 $564 $650 #
straight-curve $-1 -78.660847804193239 -53.106574944582761 0 0 0 -1 I I #
edge $-1 $562 -53.106574944582761 $566 53.106574944582761 $560 $651 forward 7 unknown #
straight-curve $-1 0 -53.106574944582761 -20.058846221629508 -1 0 0 I I #
vertex $-1 $419 $652 #
straight-curve $-1 0 53.106574944582761 -20.058846221629508 1 0 0 I I #
point $-1 78.660847804193239 53.106574944582761 -20.058846221629508 #
point $-1 78.660847804193239 -53.106574944582761 -20.058846221629508 #
straight-curve $-1 -78.660847804193239 0 20.058846221629508 0 -1 0 I I #
point $-1 -78.660847804193239 53.106574944582761 20.058846221629508 #
point $-1 -78.660847804193239 -53.106574944582761 20.058846221629508 #
straight-curve $-1 78.660847804193239 -53.106574944582761 0 0 0 -1 I I #
straight-curve $-1 78.660847804193239 53.106574944582761 0 0 0 -1 I I #
loop $-1 $-1 $583 $436 #
plane-surface $-1 -78.660847804193239 0 0 1 0 0 0 0 -1 forward_v I I I I #
coedge $-1 $440 $439 $589 $653 forward $185 $-1 #
edge $-1 $444 27.17433791687851 $592 53.106574944582761 $443 $654 forward 7 unknown #
coedge $-1 $586 $583 $440 $580 reversed $575 $-1 #
edge $-1 $655 -53.106574944582761 $581 -27.17433791687851 $579 $656 forward 7 unknown #
vertex $-1 $584 $657 #
straight-curve $-1 0 -27.17433791687851 -20.058846221629508 1 0 0 I I #
coedge $-1 $579 $446 $442 $584 forward $575 $-1 #
edge $-1 $448 5.8661733678914167 $581 11.417173025122533 $583 $658 forward 7 unknown #
point $-1 78.660847804193239 -27.17433791687851 -20.058846221629508 #
coedge $-1 $446 $579 $450 $590 reversed $575 $-1 #
straight-curve $-1 -78.660847804193239 -20.070228215365319 -14.507846564398392 0 1 0 I I #
point $-1 -78.660847804193239 -27.17433791687851 -14.507846564398392 #
coedge $-1 $451 $450 $577 $653 reversed $437 $-1 #
edge $-1 $452 14.507846564398392 $655 20.058846221629508 $586 $659 forward 7 unknown #
point $-1 -78.660847804193239 -53.106574944582761 -14.507846564398392 #
vertex $-1 $454 $660 #
straight-curve $-1 78.660847804193239 -53.106574944582761 0 0 0 -1 I I #
edge $-1 $597 -44.701402770290663 $467 -23.217487297514488 $466 $661 forward 7 unknown #
coedge $-1 $596 $460 $601 $662 reversed $457 $-1 #
coedge $-1 $460 $595 $462 $599 forward $457 $-1 #
vertex $-1 $461 $663 #
straight-curve $-1 -78.660847804193239 6.9236812993581367 56.283435590430443 0 -0.66913059716165679 0.74314483375859142 I I #
edge $-1 $603 -20.058846221629508 $463 -4.9921346604573227 $462 $664 forward 7 unknown #
point $-1 -78.660847804193239 53.106574944582761 4.9921346604573227 #
coedge $-1 $466 $465 $595 $662 forward $316 $-1 #
point $-1 -57.176932331417063 39.540447258274213 20.058846221629516 #
vertex $-1 $470 $665 #
straight-curve $-1 0 53.106574944582761 20.058846221629508 -1 0 0 I I #
vertex $-1 $473 $666 #
point $-1 -69.522586240542907 37.80665899010625 4.8568825461820389 #
vertex $-1 $477 $667 #
point $-1 -60.315193895067402 37.80665899010625 4.8568825461820389 #
edge $-1 $610 -3.6321190134132806 $613 9.934008672895267 $482 $668 forward 7 unknown #
vertex $-1 $609 $669 #
straight-curve $-1 -33.381587758989802 53.106574944582761 94.596324203370813 0 0 1 I I #
edge $-1 $613 -22.061772747688945 $493 -0.5778572749127715 $492 $670 forward 7 unknown #
vertex $-1 $612 $671 #
straight-curve $-1 -33.381587758989802 -17.963893467175126 83.923888277817582 0 0.66913059716165679 -0.74314483375859142 I I #
point $-1 -33.381587758989802 53.106574944582761 4.9921346604573245 #
point $-1 -11.897672286213629 39.540447258274213 20.058846221629516 #
straight-curve $-1 0 53.106574944582761 20.058846221629508 -1 0 0 I I #
vertex $-1 $499 $672 #
point $-1 -24.243326195339471 37.80665899010625 4.8568825461820389 #
vertex $-1 $503 $673 #
point $-1 -15.035933849863966 37.80665899010625 4.8568825461820389 #
edge $-1 $623 -3.6321190134132806 $626 9.934008672895267 $508 $674 forward 7 unknown #
vertex $-1 $512 $675 #
straight-curve $-1 11.897672286213636 53.106574944582761 94.596324203370813 0 0 1 I I #
edge $-1 $626 0.57785727491277505 $519 22.061772747688948 $518 $676 forward 7 unknown #
vertex $-1 $625 $677 #
straight-curve $-1 11.897672286213636 -17.963893467175126 83.923888277817582 0 0.66913059716165679 -0.74314483375859142 I I #
point $-1 11.897672286213636 53.106574944582761 4.9921346604573245 #
point $-1 33.381587758989809 39.540447258274213 20.058846221629516 #
straight-curve $-1 0 53.106574944582761 20.058846221629508 -1 0 0 I I #
vertex $-1 $525 $678 #
point $-1 21.035933849863966 37.80665899010625 4.8568825461820389 #
vertex $-1 $529 $679 #
point $-1 30.243326195339463 37.80665899010625 4.8568825461820389 #
coedge $-1 $536 $535 $543 $640 forward $259 $-1 #
edge $-1 $643 -78.660847804193239 $539 -57.176932331417063 $538 $680 forward 7 unknown #
straight-curve $-1 57.176932331417063 49.47445593116948 20.058846221629508 0 -1 0 I I #
point $-1 57.176932331417063 53.106574944582761 20.058846221629508 #
straight-curve $-1 33.959445033902576 39.54044725827422 20.058846221629516 1 0 0 I I #
edge $-1 $544 39.540447258274213 $643 53.106574944582761 $543 $681 forward 7 unknown #
point $-1 78.660847804193239 39.540447258274213 20.058846221629516 #
point $-1 57.176932331417063 39.540447258274213 20.058846221629516 #
vertex $-1 $640 $682 #
straight-curve $-1 78.660847804193239 53.106574944582761 0 0 0 -1 I I #
vertex $-1 $551 $683 #
point $-1 66.315193895067395 37.80665899010625 4.8568825461820389 #
vertex $-1 $555 $684 #
point $-1 75.522586240542907 37.80665899010625 4.8568825461820389 #
straight-curve $-1 -78.660847804193239 53.106574944582761 0 0 0 -1 I I #
point $-1 -78.660847804193239 -53.106574944582761 -20.058846221629508 #
straight-curve $-1 -78.660847804193239 0 -20.058846221629508 0 1 0 I I #
point $-1 -78.660847804193239 53.106574944582761 -20.058846221629508 #
edge $-1 $592 -78.660847804193239 $655 78.660847804193239 $589 $685 forward 7 unknown #
straight-curve $-1 78.660847804193239 0 -20.058846221629508 0 -1 0 I I #
vertex $-1 $580 $686 #
straight-curve $-1 -78.660847804193239 0 -20.058846221629508 0 1 0 I I #
point $-1 -78.660847804193239 -27.17433791687851 -20.058846221629508 #
straight-curve $-1 -78.660847804193239 -27.17433791687851 -8.6416731965069751 0 0 -1 I I #
straight-curve $-1 -78.660847804193239 -53.106574944582761 0 0 0 -1 I I #
point $-1 78.660847804193239 -53.106574944582761 -20.058846221629508 #
straight-curve $-1 -33.959445033902576 39.54044725827422 20.058846221629516 1 0 0 I I #
edge $-1 $603 -53.106574944582761 $597 -39.540447258274213 $595 $687 forward 7 unknown #
point $-1 -78.660847804193239 39.540447258274213 20.058846221629516 #
straight-curve $-1 -78.660847804193239 53.106574944582761 0 0 0 -1 I I #
point $-1 -78.660847804193239 53.106574944582761 20.058846221629508 #
point $-1 -72.522586240542907 35.577224488830474 2.8494907546970687 #
point $-1 -63.315193895067402 35.577224488830474 2.8494907546970687 #
straight-curve $-1 -33.381587758989802 49.47445593116948 20.058846221629508 0 -1 0 I I #
point $-1 -33.381587758989802 53.106574944582761 20.058846221629508 #
straight-curve $-1 -11.319815011300857 39.54044725827422 20.058846221629516 1 0 0 I I #
point $-1 -33.381587758989802 39.540447258274213 20.058846221629516 #
point $-1 -27.243326195339471 35.577224488830474 2.8494907546970687 #
point $-1 -18.035933849863966 35.577224488830474 2.8494907546970687 #
straight-curve $-1 11.897672286213636 49.47445593116948 20.058846221629508 0 -1 0 I I #
point $-1 11.897672286213636 53.106574944582761 20.058846221629508 #
straight-curve $-1 11.319815011300861 39.54044725827422 20.058846221629516 1 0 0 I I #
point $-1 11.897672286213636 39.540447258274213 20.058846221629516 #
point $-1 18.035933849863966 35.577224488830474 2.8494907546970687 #
point $-1 27.243326195339463 35.577224488830474 2.8494907546970687 #
straight-curve $-1 0 53.106574944582761 20.058846221629508 -1 0 0 I I #
straight-curve $-1 78.660847804193239 0 20.058846221629508 0 1 0 I I #
point $-1 78.660847804193239 53.106574944582761 20.058846221629508 #
point $-1 63.315193895067395 35.577224488830474 2.8494907546970687 #
point $-1 72.522586240542907 35.577224488830474 2.8494907546970687 #
straight-curve $-1 0 -53.106574944582761 -20.058846221629508 -1 0 0 I I #
point $-1 -78.660847804193239 -53.106574944582761 -20.058846221629508 #
straight-curve $-1 -78.660847804193239 0 20.058846221629508 0 -1 0 I I #
End-of-ACIS-data 