500 0 5 0           
7 Unknown 11 ACIS 5.0 NT 24 Thu Mar 25 23:31:39 1999 
-1 9.9999999999999995e-007 1e-010 
body $-1 $5 $-1 $6 #
body $-1 $7 $-1 $8 #
body $-1 $9 $-1 $10 #
body $-1 $11 $-1 $12 #
body $-1 $13 $-1 $14 #
lump $-1 $-1 $15 $0 #
transform $-1 1 0 0 0 1 0 0 0 1 49.228797265541552 23.414890843323821 7.945570628254095 1 rotate no_reflect no_shear #
lump $-1 $-1 $16 $1 #
transform $-1 1 0 0 0 1 0 0 0 1 49.228797265541552 23.414890843323821 7.945570628254095 1 rotate no_reflect no_shear #
lump $-1 $-1 $17 $2 #
transform $-1 1 0 0 0 1 0 0 0 1 49.228797265541552 23.414890843323821 7.945570628254095 1 rotate no_reflect no_shear #
lump $-1 $-1 $18 $3 #
transform $-1 1 0 0 0 1 0 0 0 1 49.228797265541552 23.414890843323821 7.945570628254095 1 rotate no_reflect no_shear #
lump $-1 $-1 $19 $4 #
transform $-1 1 0 0 0 1 0 0 0 1 49.228797265541552 23.414890843323821 7.945570628254095 1 rotate no_reflect no_shear #
shell $-1 $-1 $-1 $20 $-1 $5 #
shell $-1 $-1 $-1 $21 $-1 $7 #
shell $-1 $-1 $-1 $22 $-1 $9 #
shell $-1 $-1 $-1 $23 $-1 $11 #
shell $-1 $-1 $-1 $24 $-1 $13 #
face $-1 $25 $26 $15 $-1 $27 forward single #
face $-1 $28 $29 $16 $-1 $30 reversed single #
face $-1 $31 $32 $17 $-1 $33 reversed single #
face $-1 $34 $35 $18 $-1 $36 forward single #
face $-1 $37 $38 $19 $-1 $39 reversed single #
face $-1 $40 $41 $15 $-1 $42 reversed single #
loop $-1 $-1 $43 $20 #
plane-surface $-1 0 0 7.945570628254095 0 0 1 1 0 0 forward_v I I I I #
face $-1 $44 $45 $16 $-1 $46 reversed single #
loop $-1 $-1 $47 $21 #
plane-surface $-1 -55.140406567334729 -21.914890843323821 0 1 0 0 0 0 -1 forward_v I I I I #
face $-1 $48 $49 $17 $-1 $50 reversed single #
loop $-1 $-1 $51 $22 #
plane-surface $-1 52.184601916438133 -20.414890843323821 0 0 -1 0 0 0 -1 forward_v I I I I #
face $-1 $52 $53 $18 $-1 $54 forward single #
loop $-1 $-1 $55 $23 #
plane-surface $-1 28.377008269131657 75.54290433400503 98.806523850727871 1 0 0 0 -0.80901700255871778 -0.5877852410284794 forward_v I I I I #
face $-1 $56 $57 $19 $-1 $58 reversed single #
loop $-1 $59 $60 $24 #
cone-surface $-1 35.847098116440016 20.912143546115797 4.9711798401437211 0 -0.80901700255871778 -0.5877852410284794 1 0 0 1 I I 0 1 1 forward I I I I #
face $-1 $61 $62 $15 $-1 $63 reversed single #
loop $-1 $-1 $64 $25 #
plane-surface $-1 0 0 -7.945570628254095 0 0 1 1 0 0 forward_v I I I I #
coedge $-1 $65 $66 $67 $68 forward $26 $-1 #
face $-1 $69 $70 $16 $-1 $71 forward single #
loop $-1 $-1 $72 $28 #
plane-surface $-1 -52.18460191643814 -20.414890843323821 0 0 -1 0 0 0 -1 forward_v I I I I #
coedge $-1 $73 $74 $75 $76 forward $29 $-1 #
face $-1 $77 $78 $17 $-1 $79 reversed single #
loop $-1 $-1 $80 $31 #
plane-surface $-1 55.140406567334722 -21.914890843323821 0 -1 0 0 0 0 1 forward_v I I I I #
coedge $-1 $81 $82 $83 $84 forward $32 $-1 #
face $-1 $85 $86 $18 $-1 $87 forward single #
loop $-1 $-1 $88 $34 #
plane-surface $-1 35.847098116440016 -4.1109636726734209 40.93460291819089 0 0.80901700255871778 0.5877852410284794 1 0 0 forward_v I I I I #
coedge $-1 $89 $90 $91 $92 reversed $35 $-1 #
face $-1 $93 $94 $19 $-1 $95 forward single #
loop $-1 $96 $97 $37 #
cone-surface $-1 35.847098116440016 19.783847898316804 4.1514250918561162 0 -0.80901700255871778 -0.5877852410284794 0.5 0 0 1 I I -0.70710678118654813 0.70710678118654691 0.5 forward I I I I #
loop $-1 $-1 $98 $24 #
coedge $-1 $60 $60 $99 $100 reversed $38 $-1 #
face $-1 $101 $102 $15 $-1 $103 reversed single #
loop $-1 $-1 $104 $40 #
plane-surface $-1 0 -23.414890843323821 0 0 1 0 0 0 1 forward_v I I I I #
coedge $-1 $105 $106 $107 $108 forward $41 $-1 #
coedge $-1 $109 $43 $110 $111 forward $26 $-1 #
coedge $-1 $43 $109 $112 $113 forward $26 $-1 #
coedge $-1 $114 $115 $43 $68 reversed $116 $-1 #
edge $-1 $117 -23.414890843323821 $118 23.414890843323821 $67 $119 forward 7 unknown #
face $-1 $120 $121 $16 $-1 $122 reversed single #
loop $-1 $-1 $123 $44 #
plane-surface $-1 0 0 7.945570628254095 0 0 1 1 0 0 forward_v I I I I #
coedge $-1 $124 $125 $126 $127 reversed $45 $-1 #
coedge $-1 $128 $47 $129 $130 reversed $29 $-1 #
coedge $-1 $47 $128 $131 $132 reversed $29 $-1 #
coedge $-1 $125 $124 $47 $76 reversed $45 $-1 #
edge $-1 $133 -7.945570628254095 $134 7.945570628254095 $75 $135 forward 7 unknown #
face $-1 $136 $137 $17 $-1 $138 reversed single #
loop $-1 $-1 $139 $48 #
plane-surface $-1 49.228797265541552 0 0 -1 0 0 0 0 1 forward_v I I I I #
coedge $-1 $140 $141 $142 $143 forward $49 $-1 #
coedge $-1 $144 $51 $145 $146 reversed $32 $-1 #
coedge $-1 $51 $144 $147 $148 reversed $32 $-1 #
coedge $-1 $141 $140 $51 $84 reversed $49 $-1 #
edge $-1 $149 -7.945570628254095 $150 7.945570628254095 $83 $151 forward 7 unknown #
face $-1 $152 $153 $18 $-1 $154 forward single #
loop $-1 $-1 $155 $52 #
plane-surface $-1 43.317187963748374 75.54290433400503 98.806523850727871 -1 0 0 0 0.80901700255871778 0.5877852410284794 forward_v I I I I #
coedge $-1 $156 $157 $158 $159 reversed $53 $-1 #
coedge $-1 $90 $55 $157 $160 forward $35 $-1 #
coedge $-1 $55 $89 $161 $162 reversed $35 $-1 #
coedge $-1 $163 $158 $55 $92 forward $153 $-1 #
edge $-1 $164 -17.914481625055465 $165 -14.356561323678694 $91 $166 forward 7 unknown #
face $-1 $167 $168 $19 $-1 $169 forward single #
loop $-1 $-1 $170 $56 #
plane-surface $-1 28.377008269131657 75.54290433400503 98.806523850727871 1 0 0 0 -0.80901700255871778 -0.5877852410284794 forward_v I I I I #
loop $-1 $-1 $171 $37 #
coedge $-1 $97 $97 $98 $172 forward $57 $-1 #
coedge $-1 $98 $98 $97 $172 reversed $59 $-1 #
coedge $-1 $99 $99 $60 $100 forward $168 $-1 #
edge $-1 $173 1.9533893409379798e-015 $173 6.2831853071796022 $99 $174 forward 7 unknown #
face $-1 $175 $176 $15 $-1 $177 reversed single #
loop $-1 $-1 $178 $61 #
plane-surface $-1 -49.228797265541552 0 0 1 0 0 0 0 -1 forward_v I I I I #
coedge $-1 $179 $112 $180 $181 forward $62 $-1 #
coedge $-1 $182 $64 $179 $183 forward $41 $-1 #
coedge $-1 $64 $182 $184 $185 forward $41 $-1 #
coedge $-1 $115 $114 $64 $108 reversed $116 $-1 #
edge $-1 $186 -23.414890843323821 $187 23.414890843323821 $107 $188 forward 7 unknown #
coedge $-1 $66 $65 $189 $190 forward $26 $-1 #
coedge $-1 $191 $192 $65 $111 reversed $176 $-1 #
edge $-1 $118 -49.228797265541552 $193 49.228797265541552 $110 $194 forward 7 unknown #
coedge $-1 $104 $195 $66 $113 reversed $62 $-1 #
edge $-1 $196 -49.228797265541552 $117 49.228797265541552 $112 $197 forward 7 unknown #
coedge $-1 $107 $67 $195 $198 forward $116 $-1 #
coedge $-1 $67 $107 $191 $199 reversed $116 $-1 #
loop $-1 $-1 $114 $175 #
vertex $-1 $68 $200 #
vertex $-1 $68 $201 #
straight-curve $-1 49.228797265541552 0 7.945570628254095 0 1 0 I I #
face $-1 $202 $203 $16 $-1 $204 reversed single #
loop $-1 $-1 $205 $69 #
plane-surface $-1 0 0 -7.945570628254095 0 0 1 1 0 0 forward_v I I I I #
coedge $-1 $206 $207 $208 $209 forward $70 $-1 #
coedge $-1 $75 $72 $210 $211 reversed $45 $-1 #
coedge $-1 $72 $75 $212 $213 reversed $45 $-1 #
coedge $-1 $214 $215 $72 $127 forward $216 $-1 #
edge $-1 $217 -7.945570628254095 $218 7.945570628254095 $126 $219 forward 7 unknown #
coedge $-1 $74 $73 $220 $221 reversed $29 $-1 #
coedge $-1 $210 $222 $73 $130 forward $121 $-1 #
edge $-1 $223 -1.5 $134 1.5 $73 $224 forward 7 unknown #
coedge $-1 $207 $212 $74 $132 forward $70 $-1 #
edge $-1 $133 -1.5 $225 1.5 $74 $226 forward 7 unknown #
vertex $-1 $213 $227 #
vertex $-1 $211 $228 #
straight-curve $-1 -55.140406567334729 -20.414890843323821 0 0 0 -1 I I #
face $-1 $229 $230 $17 $-1 $231 reversed single #
loop $-1 $-1 $232 $77 #
plane-surface $-1 -55.140406567334729 -21.914890843323821 0 1 0 0 0 0 -1 forward_v I I I I #
coedge $-1 $233 $234 $144 $235 forward $78 $-1 #
coedge $-1 $83 $80 $236 $237 reversed $49 $-1 #
coedge $-1 $80 $83 $238 $239 reversed $49 $-1 #
coedge $-1 $240 $241 $80 $143 reversed $242 $-1 #
edge $-1 $243 -7.945570628254095 $244 7.945570628254095 $80 $245 forward 7 unknown #
coedge $-1 $82 $81 $139 $235 reversed $32 $-1 #
coedge $-1 $236 $246 $81 $146 forward $247 $-1 #
edge $-1 $248 -2.9558046508965887 $150 2.9558046508965887 $81 $249 forward 7 unknown #
coedge $-1 $250 $238 $82 $148 forward $251 $-1 #
edge $-1 $149 -2.9558046508965887 $252 2.9558046508965887 $82 $253 forward 7 unknown #
vertex $-1 $239 $254 #
vertex $-1 $237 $255 #
straight-curve $-1 55.140406567334722 -20.414890843323821 0 0 0 -1 I I #
face $-1 $256 $257 $18 $-1 $258 reversed single #
loop $-1 $-1 $259 $85 #
plane-surface $-1 0 0 7.945570628254095 0 0 1 1 0 0 forward_v I I I I #
coedge $-1 $260 $261 $259 $262 reversed $86 $-1 #
coedge $-1 $263 $88 $261 $264 reversed $53 $-1 #
coedge $-1 $88 $263 $89 $160 reversed $53 $-1 #
coedge $-1 $91 $259 $88 $159 forward $153 $-1 #
edge $-1 $265 -25.393638905528366 $164 -10.45345921091165 $158 $266 forward 7 unknown #
edge $-1 $164 40.776686009812849 $267 46.829781686647621 $89 $268 forward 7 unknown #
coedge $-1 $269 $270 $90 $162 forward $271 $-1 #
edge $-1 $165 41.457691297109839 $267 46.354748617783841 $161 $272 forward 7 unknown #
coedge $-1 $273 $91 $270 $274 forward $153 $-1 #
vertex $-1 $159 $275 #
vertex $-1 $274 $276 #
straight-curve $-1 28.377008269131657 37.771452167002515 7.9455706282540959 0 1 0 I I #
face $-1 $277 $278 $19 $-1 $279 forward single #
loop $-1 $280 $99 $93 #
plane-surface $-1 35.847098116440016 -4.1109636726734209 40.93460291819089 0 0.80901700255871778 0.5877852410284794 1 0 0 forward_v I I I I #
coedge $-1 $281 $282 $283 $284 reversed $94 $-1 #
coedge $-1 $171 $171 $-1 $285 forward $96 $-1 #
edge $-1 $286 0 $286 6.2831853071796004 $97 $287 forward 7 unknown #
vertex $-1 $100 $288 #
ellipse-curve $-1 35.847098116440016 21.635930692635437 5.4970419679170925 0 -0.80901700255871778 -0.5877852410284794 1 0 0 1 I I #
face $-1 $-1 $116 $15 $-1 $289 reversed single #
loop $-1 $-1 $191 $101 #
plane-surface $-1 0 23.414890843323821 0 0 -1 0 0 0 -1 forward_v I I I I #
coedge $-1 $290 $189 $192 $291 forward $102 $-1 #
coedge $-1 $195 $104 $105 $183 reversed $62 $-1 #
coedge $-1 $189 $290 $104 $181 reversed $102 $-1 #
edge $-1 $196 -7.945570628254095 $292 7.945570628254095 $180 $293 forward 7 unknown #
coedge $-1 $106 $105 $290 $294 forward $41 $-1 #
edge $-1 $187 -49.228797265541552 $292 49.228797265541552 $179 $295 forward 7 unknown #
coedge $-1 $192 $191 $106 $185 reversed $176 $-1 #
edge $-1 $296 -49.228797265541552 $186 49.228797265541552 $184 $297 forward 7 unknown #
vertex $-1 $108 $298 #
vertex $-1 $198 $299 #
straight-curve $-1 49.228797265541552 0 -7.945570628254095 0 -1 0 I I #
coedge $-1 $178 $180 $109 $190 reversed $102 $-1 #
edge $-1 $193 -23.414890843323821 $196 23.414890843323821 $189 $300 forward 7 unknown #
coedge $-1 $184 $110 $115 $199 forward $176 $-1 #
coedge $-1 $110 $184 $178 $291 reversed $176 $-1 #
vertex $-1 $111 $301 #
straight-curve $-1 0 23.414890843323821 7.945570628254095 -1 0 0 I I #
coedge $-1 $112 $179 $114 $198 reversed $62 $-1 #
vertex $-1 $190 $302 #
straight-curve $-1 0 -23.414890843323821 7.945570628254095 1 0 0 I I #
edge $-1 $117 -7.945570628254095 $187 7.945570628254095 $114 $303 forward 7 unknown #
edge $-1 $118 -7.945570628254095 $186 7.945570628254095 $115 $304 forward 7 unknown #
point $-1 49.228797265541552 -23.414890843323821 7.945570628254095 #
point $-1 49.228797265541552 23.414890843323821 7.945570628254095 #
face $-1 $305 $216 $16 $-1 $306 reversed single #
loop $-1 $-1 $307 $120 #
plane-surface $-1 0 -23.414890843323821 0 0 1 0 0 0 1 forward_v I I I I #
coedge $-1 $222 $308 $309 $310 forward $121 $-1 #
coedge $-1 $311 $123 $312 $313 forward $70 $-1 #
coedge $-1 $123 $131 $314 $315 forward $70 $-1 #
coedge $-1 $316 $317 $123 $209 reversed $318 $-1 #
edge $-1 $319 -23.414890843323821 $320 23.414890843323821 $208 $321 forward 7 unknown #
coedge $-1 $322 $129 $124 $211 forward $121 $-1 #
edge $-1 $134 -2.9558046508965887 $217 2.9558046508965887 $124 $323 forward 7 unknown #
coedge $-1 $131 $311 $125 $213 forward $70 $-1 #
edge $-1 $218 -2.9558046508965887 $133 2.9558046508965887 $125 $324 forward 7 unknown #
coedge $-1 $325 $126 $311 $326 reversed $216 $-1 #
coedge $-1 $126 $325 $322 $327 reversed $216 $-1 #
loop $-1 $-1 $126 $202 #
vertex $-1 $327 $328 #
vertex $-1 $213 $329 #
straight-curve $-1 -49.228797265541552 -20.414890843323821 0 0 0 1 I I #
coedge $-1 $307 $314 $128 $221 forward $203 $-1 #
edge $-1 $225 -7.945570628254095 $223 7.945570628254095 $128 $330 forward 7 unknown #
coedge $-1 $129 $205 $307 $331 forward $121 $-1 #
vertex $-1 $130 $332 #
straight-curve $-1 -55.140406567334729 -21.914890843323821 -7.945570628254095 0 1 0 I I #
vertex $-1 $132 $333 #
straight-curve $-1 -55.140406567334729 -21.914890843323821 7.945570628254095 0 -1 0 I I #
point $-1 -55.140406567334729 -20.414890843323821 7.945570628254095 #
point $-1 -55.140406567334729 -20.414890843323821 -7.945570628254095 #
face $-1 $334 $251 $17 $-1 $335 forward single #
loop $-1 $-1 $336 $136 #
plane-surface $-1 -52.18460191643814 -20.414890843323821 0 0 -1 0 0 0 -1 forward_v I I I I #
coedge $-1 $337 $338 $339 $340 forward $137 $-1 #
coedge $-1 $341 $139 $246 $342 reversed $78 $-1 #
coedge $-1 $139 $341 $250 $343 reversed $78 $-1 #
edge $-1 $252 -7.945570628254095 $248 7.945570628254095 $139 $344 forward 7 unknown #
coedge $-1 $345 $145 $140 $237 forward $247 $-1 #
edge $-1 $150 -1.5 $244 1.5 $140 $346 forward 7 unknown #
coedge $-1 $147 $347 $141 $239 forward $251 $-1 #
edge $-1 $243 -1.5 $149 1.5 $141 $348 forward 7 unknown #
coedge $-1 $349 $142 $347 $350 reversed $242 $-1 #
coedge $-1 $142 $349 $345 $351 reversed $242 $-1 #
loop $-1 $-1 $241 $352 #
vertex $-1 $239 $353 #
vertex $-1 $143 $354 #
straight-curve $-1 55.140406567334722 -23.414890843323821 0 0 0 -1 I I #
coedge $-1 $145 $355 $233 $342 forward $247 $-1 #
loop $-1 $-1 $246 $334 #
vertex $-1 $146 $356 #
straight-curve $-1 52.184601916438133 -20.414890843323821 -7.945570628254095 1 0 0 I I #
coedge $-1 $357 $147 $234 $343 forward $251 $-1 #
loop $-1 $-1 $250 $229 #
vertex $-1 $343 $358 #
straight-curve $-1 52.184601916438133 -20.414890843323821 7.945570628254095 -1 0 0 I I #
point $-1 55.140406567334722 -20.414890843323821 7.945570628254095 #
point $-1 55.140406567334722 -20.414890843323821 -7.945570628254095 #
face $-1 $359 $360 $18 $-1 $361 reversed single #
loop $-1 $-1 $362 $152 #
plane-surface $-1 52.184601916438133 -20.414890843323821 0 0 -1 0 0 0 -1 forward_v I I I I #
coedge $-1 $158 $363 $155 $262 forward $153 $-1 #
coedge $-1 $261 $155 $364 $365 reversed $86 $-1 #
coedge $-1 $155 $260 $156 $264 forward $86 $-1 #
edge $-1 $366 14.356561323678694 $265 17.914481625055465 $259 $367 forward 7 unknown #
coedge $-1 $157 $156 $269 $368 reversed $53 $-1 #
edge $-1 $369 -46.829781686647621 $265 -40.776686009812849 $261 $370 forward 7 unknown #
vertex $-1 $159 $371 #
straight-curve $-1 17.923549058220008 19.856970541947046 7.9455706282540959 -1 0 0 I I #
vertex $-1 $368 $372 #
straight-curve $-1 28.377008269131657 -4.1109636726734209 40.93460291819089 0 0.5877852410284794 -0.80901700255871778 I I #
coedge $-1 $364 $161 $263 $368 forward $271 $-1 #
coedge $-1 $161 $373 $163 $274 reversed $271 $-1 #
loop $-1 $-1 $364 $374 #
straight-curve $-1 28.377008269131657 23.414890843323821 49.403261925363935 0 0 -1 I I #
coedge $-1 $375 $163 $376 $377 forward $153 $-1 #
edge $-1 $165 -28.377008269131657 $378 49.228797265541552 $270 $379 forward 7 unknown #
point $-1 28.377008269131657 19.856970541947049 7.9455706282540959 #
point $-1 28.377008269131657 23.414890843323821 7.945570628254095 #
face $-1 $380 $381 $19 $-1 $382 forward single #
loop $-1 $-1 $383 $167 #
plane-surface $-1 43.317187963748374 75.54290433400503 98.806523850727871 -1 0 0 0 0.80901700255871778 0.5877852410284794 forward_v I I I I #
loop $-1 $-1 $384 $93 #
coedge $-1 $282 $170 $385 $386 forward $94 $-1 #
coedge $-1 $170 $281 $387 $388 reversed $94 $-1 #
coedge $-1 $389 $390 $170 $284 forward $381 $-1 #
edge $-1 $391 -17.914481625055465 $392 -14.356561323678694 $283 $393 forward 7 unknown #
edge $-1 $394 1 $394 0 $171 $-1 forward 7 unknown #
vertex $-1 $172 $395 #
ellipse-curve $-1 35.847098116440016 20.188356399596163 4.4453177123703558 0 0.80901700255871778 0.5877852410284794 1 0 0 1 I I #
point $-1 36.847098116440016 21.635930692635426 5.4970419679170872 #
plane-surface $-1 49.228797265541552 0 0 -1 0 0 0 0 1 forward_v I I I I #
coedge $-1 $180 $178 $182 $294 reversed $102 $-1 #
edge $-1 $193 -7.945570628254095 $296 7.945570628254095 $192 $396 forward 7 unknown #
vertex $-1 $294 $397 #
straight-curve $-1 -49.228797265541552 -23.414890843323821 0 0 0 -1 I I #
edge $-1 $292 -23.414890843323821 $296 23.414890843323821 $290 $398 forward 7 unknown #
straight-curve $-1 0 -23.414890843323821 -7.945570628254095 -1 0 0 I I #
vertex $-1 $185 $399 #
straight-curve $-1 0 23.414890843323821 -7.945570628254095 1 0 0 I I #
point $-1 49.228797265541552 23.414890843323821 -7.945570628254095 #
point $-1 49.228797265541552 -23.414890843323821 -7.945570628254095 #
straight-curve $-1 -49.228797265541552 0 7.945570628254095 0 -1 0 I I #
point $-1 -49.228797265541552 23.414890843323821 7.945570628254095 #
point $-1 -49.228797265541552 -23.414890843323821 7.945570628254095 #
straight-curve $-1 49.228797265541552 -23.414890843323821 0 0 0 -1 I I #
straight-curve $-1 49.228797265541552 23.414890843323821 0 0 0 -1 I I #
face $-1 $400 $401 $16 $-1 $402 reversed single #
plane-surface $-1 -49.228797265541552 0 0 1 0 0 0 0 -1 forward_v I I I I #
coedge $-1 $403 $220 $222 $331 reversed $203 $-1 #
coedge $-1 $205 $322 $404 $405 forward $121 $-1 #
coedge $-1 $317 $316 $205 $310 reversed $318 $-1 #
edge $-1 $406 -23.414890843323821 $407 23.414890843323821 $309 $408 forward 7 unknown #
coedge $-1 $212 $206 $214 $326 forward $70 $-1 #
coedge $-1 $409 $410 $206 $313 reversed $401 $-1 #
edge $-1 $320 -49.228797265541552 $411 49.228797265541552 $312 $412 forward 7 unknown #
coedge $-1 $220 $403 $207 $315 reversed $203 $-1 #
edge $-1 $225 -55.140406567334729 $319 49.228797265541552 $314 $413 forward 7 unknown #
coedge $-1 $309 $208 $403 $414 forward $318 $-1 #
coedge $-1 $208 $309 $409 $415 reversed $318 $-1 #
loop $-1 $-1 $316 $400 #
vertex $-1 $209 $416 #
vertex $-1 $209 $417 #
straight-curve $-1 49.228797265541552 0 7.945570628254095 0 1 0 I I #
coedge $-1 $308 $210 $215 $327 forward $121 $-1 #
straight-curve $-1 -52.18460191643814 -20.414890843323821 -7.945570628254095 1 0 0 I I #
straight-curve $-1 -52.18460191643814 -20.414890843323821 7.945570628254095 -1 0 0 I I #
coedge $-1 $215 $214 $410 $418 forward $216 $-1 #
edge $-1 $411 -23.414890843323821 $218 20.414890843323821 $214 $419 forward 7 unknown #
edge $-1 $217 -20.414890843323821 $420 23.414890843323821 $215 $421 forward 7 unknown #
point $-1 -49.228797265541552 -20.414890843323821 -7.945570628254095 #
point $-1 -49.228797265541552 -20.414890843323821 7.945570628254095 #
straight-curve $-1 -55.140406567334729 -23.414890843323821 0 0 0 -1 I I #
edge $-1 $407 -101.41339918197968 $223 2.9558046508965887 $307 $422 forward 7 unknown #
point $-1 -55.140406567334729 -23.414890843323821 -7.945570628254095 #
point $-1 -55.140406567334729 -23.414890843323821 7.945570628254095 #
face $-1 $352 $247 $17 $-1 $423 reversed single #
plane-surface $-1 0 0 7.945570628254095 0 0 1 1 0 0 forward_v I I I I #
coedge $-1 $424 $425 $426 $427 reversed $230 $-1 #
coedge $-1 $428 $232 $429 $430 reversed $137 $-1 #
coedge $-1 $232 $428 $431 $432 reversed $137 $-1 #
coedge $-1 $425 $424 $232 $340 reversed $230 $-1 #
edge $-1 $433 -7.945570628254095 $434 7.945570628254095 $339 $435 forward 7 unknown #
coedge $-1 $234 $233 $436 $437 reversed $78 $-1 #
edge $-1 $438 -23.414890843323821 $248 20.414890843323821 $233 $439 forward 7 unknown #
edge $-1 $252 -20.414890843323821 $440 23.414890843323821 $234 $441 forward 7 unknown #
straight-curve $-1 49.228797265541552 -20.414890843323821 0 0 0 -1 I I #
coedge $-1 $429 $236 $241 $351 forward $247 $-1 #
straight-curve $-1 55.140406567334722 -21.914890843323821 -7.945570628254095 0 -1 0 I I #
coedge $-1 $238 $431 $240 $350 forward $251 $-1 #
straight-curve $-1 55.140406567334722 -21.914890843323821 7.945570628254095 0 1 0 I I #
coedge $-1 $241 $240 $428 $442 forward $242 $-1 #
edge $-1 $443 -107.32500848377286 $243 2.9558046508965887 $240 $444 forward 7 unknown #
edge $-1 $244 -2.9558046508965887 $445 107.32500848377286 $241 $446 forward 7 unknown #
face $-1 $447 $242 $17 $-1 $448 reversed single #
point $-1 55.140406567334722 -23.414890843323821 7.945570628254095 #
point $-1 55.140406567334722 -23.414890843323821 -7.945570628254095 #
coedge $-1 $246 $449 $450 $451 forward $247 $-1 #
point $-1 49.228797265541544 -20.414890843323821 -7.945570628254095 #
coedge $-1 $452 $250 $453 $454 forward $251 $-1 #
point $-1 49.228797265541544 -20.414890843323821 7.945570628254095 #
face $-1 $455 $456 $18 $-1 $457 reversed single #
loop $-1 $-1 $458 $256 #
plane-surface $-1 55.140406567334722 -21.914890843323821 0 -1 0 0 0 0 1 forward_v I I I I #
coedge $-1 $459 $460 $461 $462 forward $257 $-1 #
coedge $-1 $259 $463 $464 $465 forward $153 $-1 #
coedge $-1 $464 $269 $260 $365 forward $271 $-1 #
edge $-1 $369 -46.354748617783841 $366 -41.457691297109839 $364 $466 forward 7 unknown #
vertex $-1 $365 $467 #
straight-curve $-1 43.317187963748374 37.771452167002515 7.9455706282540959 0 -1 0 I I #
edge $-1 $267 10.45345921091165 $369 25.393638905528366 $269 $468 forward 7 unknown #
vertex $-1 $368 $469 #
straight-curve $-1 43.317187963748374 -4.1109636726734209 40.93460291819089 0 -0.5877852410284794 0.80901700255871778 I I #
point $-1 43.317187963748374 19.856970541947049 7.9455706282540959 #
point $-1 28.377008269131657 23.414890843323821 3.0485133075800945 #
coedge $-1 $270 $470 $471 $472 reversed $271 $-1 #
face $-1 $-1 $271 $18 $-1 $473 reversed single #
coedge $-1 $474 $273 $475 $476 forward $153 $-1 #
coedge $-1 $471 $477 $273 $377 reversed $478 $-1 #
edge $-1 $378 -23.414890843323821 $479 20.414890843323821 $376 $480 forward 7 unknown #
vertex $-1 $274 $481 #
straight-curve $-1 0 23.414890843323821 7.945570628254095 -1 0 0 I I #
face $-1 $482 $483 $19 $-1 $484 reversed single #
loop $-1 $-1 $485 $277 #
plane-surface $-1 0 0 7.945570628254095 0 0 1 1 0 0 forward_v I I I I #
coedge $-1 $486 $487 $485 $488 reversed $278 $-1 #
coedge $-1 $489 $385 $390 $490 reversed $280 $-1 #
coedge $-1 $384 $491 $281 $386 reversed $280 $-1 #
edge $-1 $391 40.776686009812849 $492 46.829781686647621 $281 $493 forward 7 unknown #
coedge $-1 $494 $495 $282 $388 forward $496 $-1 #
edge $-1 $392 41.457691297109839 $492 46.354748617783841 $387 $497 forward 7 unknown #
coedge $-1 $498 $283 $495 $499 forward $381 $-1 #
coedge $-1 $283 $485 $384 $490 forward $381 $-1 #
vertex $-1 $490 $500 #
vertex $-1 $499 $501 #
straight-curve $-1 28.377008269131657 37.771452167002515 7.9455706282540959 0 1 0 I I #
vertex $-1 $285 $502 #
point $-1 36.847098116440016 20.188356399596163 4.4453177123703558 #
straight-curve $-1 -49.228797265541552 23.414890843323821 0 0 0 -1 I I #
point $-1 -49.228797265541552 -23.414890843323821 -7.945570628254095 #
straight-curve $-1 -49.228797265541552 0 -7.945570628254095 0 1 0 I I #
point $-1 -49.228797265541552 23.414890843323821 -7.945570628254095 #
face $-1 $-1 $318 $16 $-1 $503 reversed single #
loop $-1 $-1 $409 $305 #
plane-surface $-1 0 23.414890843323821 0 0 -1 0 0 0 -1 forward_v I I I I #
coedge $-1 $314 $307 $316 $414 reversed $203 $-1 #
coedge $-1 $410 $409 $308 $405 reversed $401 $-1 #
edge $-1 $420 -49.228797265541552 $406 49.228797265541552 $404 $504 forward 7 unknown #
vertex $-1 $310 $505 #
vertex $-1 $414 $506 #
straight-curve $-1 49.228797265541552 0 -7.945570628254095 0 -1 0 I I #
coedge $-1 $404 $312 $317 $415 forward $401 $-1 #
coedge $-1 $312 $404 $325 $418 reversed $401 $-1 #
vertex $-1 $313 $507 #
straight-curve $-1 0 23.414890843323821 7.945570628254095 -1 0 0 I I #
straight-curve $-1 0 -23.414890843323821 7.945570628254095 1 0 0 I I #
edge $-1 $319 -7.945570628254095 $407 7.945570628254095 $316 $508 forward 7 unknown #
edge $-1 $320 -7.945570628254095 $406 7.945570628254095 $317 $509 forward 7 unknown #
point $-1 49.228797265541552 -23.414890843323821 7.945570628254095 #
point $-1 49.228797265541552 23.414890843323821 7.945570628254095 #
edge $-1 $411 -7.945570628254095 $420 7.945570628254095 $410 $510 forward 7 unknown #
straight-curve $-1 -49.228797265541552 0 7.945570628254095 0 -1 0 I I #
vertex $-1 $405 $511 #
straight-curve $-1 -49.228797265541552 0 -7.945570628254095 0 1 0 I I #
straight-curve $-1 -52.18460191643814 -23.414890843323821 -7.945570628254095 -1 0 0 I I #
plane-surface $-1 0 0 -7.945570628254095 0 0 1 1 0 0 forward_v I I I I #
coedge $-1 $339 $336 $512 $513 reversed $230 $-1 #
coedge $-1 $336 $339 $514 $515 reversed $230 $-1 #
coedge $-1 $516 $517 $336 $427 forward $518 $-1 #
edge $-1 $519 -7.945570628254095 $520 7.945570628254095 $426 $521 forward 7 unknown #
coedge $-1 $338 $337 $349 $442 reversed $137 $-1 #
coedge $-1 $512 $345 $337 $430 forward $247 $-1 #
edge $-1 $445 -1.5 $434 1.5 $337 $522 forward 7 unknown #
coedge $-1 $347 $514 $338 $432 forward $251 $-1 #
edge $-1 $433 -1.5 $443 1.5 $338 $523 forward 7 unknown #
vertex $-1 $515 $524 #
vertex $-1 $513 $525 #
straight-curve $-1 -55.140406567334729 -20.414890843323821 0 0 0 -1 I I #
coedge $-1 $450 $453 $341 $437 forward $526 $-1 #
edge $-1 $440 -7.945570628254095 $438 7.945570628254095 $341 $527 forward 7 unknown #
vertex $-1 $342 $528 #
straight-curve $-1 49.228797265541552 0 -7.945570628254095 0 -1 0 I I #
vertex $-1 $343 $529 #
straight-curve $-1 49.228797265541552 0 7.945570628254095 0 1 0 I I #
edge $-1 $443 -7.945570628254095 $445 7.945570628254095 $428 $530 forward 7 unknown #
vertex $-1 $432 $531 #
straight-curve $-1 52.184601916438133 -23.414890843323821 7.945570628254095 1 0 0 I I #
vertex $-1 $430 $532 #
straight-curve $-1 52.184601916438133 -23.414890843323821 -7.945570628254095 -1 0 0 I I #
face $-1 $533 $518 $17 $-1 $534 reversed single #
plane-surface $-1 0 -23.414890843323821 0 0 1 0 0 0 1 forward_v I I I I #
coedge $-1 $355 $512 $517 $535 forward $247 $-1 #
coedge $-1 $536 $436 $355 $451 reversed $526 $-1 #
edge $-1 $537 -49.228797265541552 $438 49.228797265541552 $450 $538 forward 7 unknown #
coedge $-1 $514 $357 $516 $539 forward $251 $-1 #
coedge $-1 $436 $536 $357 $454 reversed $526 $-1 #
edge $-1 $440 -49.228797265541552 $540 49.228797265541552 $453 $541 forward 7 unknown #
face $-1 $542 $543 $18 $-1 $544 reversed single #
loop $-1 $-1 $545 $359 #
plane-surface $-1 49.228797265541552 0 0 -1 0 0 0 0 1 forward_v I I I I #
coedge $-1 $546 $547 $548 $549 forward $360 $-1 #
coedge $-1 $550 $362 $551 $552 reversed $257 $-1 #
coedge $-1 $362 $550 $553 $554 reversed $257 $-1 #
coedge $-1 $547 $546 $362 $462 reversed $360 $-1 #
edge $-1 $555 -7.945570628254095 $556 7.945570628254095 $461 $557 forward 7 unknown #
coedge $-1 $363 $553 $558 $559 forward $153 $-1 #
coedge $-1 $560 $364 $363 $465 reversed $271 $-1 #
edge $-1 $561 -49.228797265541552 $366 -43.317187963748374 $464 $379 forward 7 unknown #
straight-curve $-1 43.317187963748374 23.414890843323821 49.403261925363935 0 0 1 I I #
point $-1 43.317187963748374 23.414890843323821 7.945570628254095 #
straight-curve $-1 17.923549058220008 23.414890843323821 3.0485133075800981 1 0 0 I I #
point $-1 43.317187963748374 23.414890843323821 3.0485133075800945 #
coedge $-1 $373 $560 $562 $563 reversed $271 $-1 #
coedge $-1 $564 $376 $373 $472 forward $478 $-1 #
edge $-1 $378 -7.945570628254095 $565 7.945570628254095 $373 $566 forward 7 unknown #
plane-surface $-1 0 23.414890843323821 0 0 -1 0 0 0 -1 forward_v I I I I #
coedge $-1 $567 $375 $568 $569 forward $153 $-1 #
coedge $-1 $570 $571 $375 $476 reversed $572 $-1 #
edge $-1 $479 -2.9558046508965887 $573 2.9558046508965887 $475 $574 forward 7 unknown #
coedge $-1 $376 $564 $570 $575 forward $478 $-1 #
loop $-1 $-1 $477 $576 #
vertex $-1 $476 $577 #
straight-curve $-1 -49.228797265541552 0 7.945570628254095 0 -1 0 I I #
point $-1 -49.228797265541552 23.414890843323821 7.945570628254095 #
face $-1 $578 $579 $19 $-1 $580 reversed single #
loop $-1 $-1 $581 $380 #
plane-surface $-1 52.184601916438133 -20.414890843323821 0 0 -1 0 0 0 -1 forward_v I I I I #
coedge $-1 $390 $582 $383 $488 forward $381 $-1 #
coedge $-1 $487 $383 $583 $584 reversed $278 $-1 #
coedge $-1 $383 $486 $489 $585 forward $278 $-1 #
edge $-1 $586 14.356561323678694 $587 17.914481625055465 $485 $588 forward 7 unknown #
coedge $-1 $491 $384 $487 $585 reversed $280 $-1 #
edge $-1 $587 -25.393638905528366 $391 -10.45345921091165 $390 $589 forward 7 unknown #
coedge $-1 $385 $489 $494 $590 reversed $280 $-1 #
vertex $-1 $590 $591 #
straight-curve $-1 28.377008269131657 -4.1109636726734209 40.93460291819089 0 0.5877852410284794 -0.80901700255871778 I I #
coedge $-1 $583 $387 $491 $590 forward $496 $-1 #
coedge $-1 $387 $592 $389 $499 reversed $496 $-1 #
loop $-1 $-1 $583 $593 #
straight-curve $-1 28.377008269131657 23.414890843323821 49.403261925363935 0 0 -1 I I #
coedge $-1 $594 $389 $595 $596 forward $381 $-1 #
edge $-1 $392 -28.377008269131657 $597 49.228797265541552 $495 $598 forward 7 unknown #
point $-1 28.377008269131657 19.856970541947049 7.9455706282540959 #
point $-1 28.377008269131657 23.414890843323821 7.945570628254095 #
point $-1 35.847098116440016 19.379339397037445 3.857532471341877 #
plane-surface $-1 49.228797265541552 0 0 -1 0 0 0 0 1 forward_v I I I I #
straight-curve $-1 0 23.414890843323821 -7.945570628254095 1 0 0 I I #
point $-1 49.228797265541552 23.414890843323821 -7.945570628254095 #
point $-1 49.228797265541552 -23.414890843323821 -7.945570628254095 #
point $-1 -49.228797265541552 23.414890843323821 7.945570628254095 #
straight-curve $-1 49.228797265541552 -23.414890843323821 0 0 0 -1 I I #
straight-curve $-1 49.228797265541552 23.414890843323821 0 0 0 -1 I I #
straight-curve $-1 -49.228797265541552 23.414890843323821 0 0 0 -1 I I #
point $-1 -49.228797265541552 23.414890843323821 -7.945570628254095 #
coedge $-1 $449 $429 $424 $513 forward $247 $-1 #
edge $-1 $434 -2.9558046508965887 $519 2.9558046508965887 $424 $599 forward 7 unknown #
coedge $-1 $431 $452 $425 $515 forward $251 $-1 #
edge $-1 $520 -2.9558046508965887 $433 2.9558046508965887 $425 $600 forward 7 unknown #
coedge $-1 $601 $426 $452 $539 reversed $518 $-1 #
coedge $-1 $426 $601 $449 $535 reversed $518 $-1 #
loop $-1 $-1 $426 $447 #
vertex $-1 $535 $602 #
vertex $-1 $515 $603 #
straight-curve $-1 -49.228797265541552 -20.414890843323821 0 0 0 1 I I #
straight-curve $-1 -55.140406567334729 -21.914890843323821 -7.945570628254095 0 1 0 I I #
straight-curve $-1 -55.140406567334729 -21.914890843323821 7.945570628254095 0 -1 0 I I #
point $-1 -55.140406567334729 -20.414890843323821 7.945570628254095 #
point $-1 -55.140406567334729 -20.414890843323821 -7.945570628254095 #
loop $-1 $-1 $436 $533 #
straight-curve $-1 49.228797265541552 23.414890843323821 0 0 0 -1 I I #
point $-1 49.228797265541552 23.414890843323821 -7.945570628254095 #
point $-1 49.228797265541552 23.414890843323821 7.945570628254095 #
straight-curve $-1 -55.140406567334729 -23.414890843323821 0 0 0 -1 I I #
point $-1 -55.140406567334729 -23.414890843323821 7.945570628254095 #
point $-1 -55.140406567334729 -23.414890843323821 -7.945570628254095 #
face $-1 $-1 $526 $17 $-1 $604 reversed single #
plane-surface $-1 -49.228797265541552 0 0 1 0 0 0 0 -1 forward_v I I I I #
edge $-1 $519 -20.414890843323821 $537 23.414890843323821 $517 $605 forward 7 unknown #
coedge $-1 $453 $450 $601 $606 reversed $526 $-1 #
vertex $-1 $451 $607 #
straight-curve $-1 0 23.414890843323821 -7.945570628254095 1 0 0 I I #
edge $-1 $540 -23.414890843323821 $520 20.414890843323821 $516 $608 forward 7 unknown #
vertex $-1 $454 $609 #
straight-curve $-1 0 23.414890843323821 7.945570628254095 -1 0 0 I I #
face $-1 $610 $572 $18 $-1 $611 reversed single #
loop $-1 $-1 $612 $455 #
plane-surface $-1 -55.140406567334729 -21.914890843323821 0 1 0 0 0 0 -1 forward_v I I I I #
coedge $-1 $613 $558 $550 $614 forward $456 $-1 #
coedge $-1 $461 $458 $615 $616 reversed $360 $-1 #
coedge $-1 $458 $461 $617 $618 reversed $360 $-1 #
coedge $-1 $619 $620 $458 $549 reversed $621 $-1 #
edge $-1 $622 -7.945570628254095 $623 7.945570628254095 $458 $624 forward 7 unknown #
coedge $-1 $460 $459 $545 $614 reversed $257 $-1 #
coedge $-1 $615 $625 $459 $552 forward $626 $-1 #
edge $-1 $627 -2.9558046508965887 $556 2.9558046508965887 $459 $628 forward 7 unknown #
coedge $-1 $463 $617 $460 $554 forward $153 $-1 #
edge $-1 $555 -2.9558046508965887 $629 2.9558046508965887 $460 $630 forward 7 unknown #
vertex $-1 $618 $631 #
vertex $-1 $616 $632 #
straight-curve $-1 55.140406567334722 -20.414890843323821 0 0 0 -1 I I #
coedge $-1 $545 $633 $463 $559 reversed $456 $-1 #
edge $-1 $629 -20.414890843323821 $561 23.414890843323821 $558 $634 forward 7 unknown #
coedge $-1 $470 $464 $633 $635 forward $271 $-1 #
vertex $-1 $559 $636 #
coedge $-1 $625 $637 $470 $563 forward $626 $-1 #
edge $-1 $565 -49.228797265541552 $638 49.228797265541552 $470 $639 forward 7 unknown #
coedge $-1 $477 $471 $637 $640 reversed $478 $-1 #
vertex $-1 $563 $641 #
straight-curve $-1 -49.228797265541552 23.414890843323821 0 0 0 -1 I I #
coedge $-1 $617 $474 $619 $642 forward $153 $-1 #
coedge $-1 $612 $643 $474 $569 reversed $543 $-1 #
edge $-1 $573 -1.5 $644 1.5 $568 $645 forward 7 unknown #
coedge $-1 $646 $475 $477 $575 reversed $572 $-1 #
coedge $-1 $475 $646 $612 $647 reversed $572 $-1 #
loop $-1 $-1 $570 $542 #
vertex $-1 $476 $648 #
straight-curve $-1 -52.18460191643814 -20.414890843323821 7.945570628254095 -1 0 0 I I #
edge $-1 $649 -7.945570628254095 $479 7.945570628254095 $477 $650 forward 7 unknown #
face $-1 $374 $478 $18 $-1 $651 reversed single #
point $-1 -49.228797265541552 -20.414890843323821 7.945570628254095 #
face $-1 $652 $653 $19 $-1 $654 reversed single #
loop $-1 $-1 $655 $482 #
plane-surface $-1 55.140406567334722 -21.914890843323821 0 -1 0 0 0 0 1 forward_v I I I I #
coedge $-1 $656 $657 $658 $659 forward $483 $-1 #
coedge $-1 $485 $660 $661 $662 forward $381 $-1 #
coedge $-1 $661 $494 $486 $584 forward $496 $-1 #
edge $-1 $663 -46.354748617783841 $586 -41.457691297109839 $583 $664 forward 7 unknown #
edge $-1 $663 -46.829781686647621 $587 -40.776686009812849 $487 $665 forward 7 unknown #
vertex $-1 $584 $666 #
vertex $-1 $490 $667 #
straight-curve $-1 43.317187963748374 37.771452167002515 7.9455706282540959 0 -1 0 I I #
straight-curve $-1 17.923549058220008 19.856970541947046 7.9455706282540959 -1 0 0 I I #
edge $-1 $492 10.45345921091165 $663 25.393638905528366 $494 $668 forward 7 unknown #
point $-1 28.377008269131657 23.414890843323821 3.0485133075800945 #
coedge $-1 $495 $669 $670 $671 reversed $496 $-1 #
face $-1 $-1 $496 $19 $-1 $672 reversed single #
coedge $-1 $673 $498 $674 $675 forward $381 $-1 #
coedge $-1 $670 $676 $498 $596 reversed $677 $-1 #
edge $-1 $597 -23.414890843323821 $678 20.414890843323821 $595 $679 forward 7 unknown #
vertex $-1 $499 $680 #
straight-curve $-1 0 23.414890843323821 7.945570628254095 -1 0 0 I I #
straight-curve $-1 -52.18460191643814 -20.414890843323821 -7.945570628254095 1 0 0 I I #
straight-curve $-1 -52.18460191643814 -20.414890843323821 7.945570628254095 -1 0 0 I I #
coedge $-1 $517 $516 $536 $606 forward $518 $-1 #
point $-1 -49.228797265541552 -20.414890843323821 -7.945570628254095 #
point $-1 -49.228797265541552 -20.414890843323821 7.945570628254095 #
plane-surface $-1 0 23.414890843323821 0 0 -1 0 0 0 -1 forward_v I I I I #
straight-curve $-1 -49.228797265541552 0 -7.945570628254095 0 1 0 I I #
edge $-1 $540 -7.945570628254095 $537 7.945570628254095 $536 $681 forward 7 unknown #
point $-1 -49.228797265541552 23.414890843323821 -7.945570628254095 #
straight-curve $-1 -49.228797265541552 0 7.945570628254095 0 -1 0 I I #
point $-1 -49.228797265541552 23.414890843323821 7.945570628254095 #
face $-1 $682 $626 $18 $-1 $683 reversed single #
plane-surface $-1 -52.18460191643814 -20.414890843323821 0 0 -1 0 0 0 -1 forward_v I I I I #
coedge $-1 $684 $568 $571 $647 forward $543 $-1 #
coedge $-1 $633 $545 $625 $685 reversed $456 $-1 #
edge $-1 $629 -7.945570628254095 $627 7.945570628254095 $545 $686 forward 7 unknown #
coedge $-1 $687 $551 $546 $616 forward $626 $-1 #
edge $-1 $556 -1.5 $623 1.5 $546 $688 forward 7 unknown #
coedge $-1 $553 $567 $547 $618 forward $153 $-1 #
edge $-1 $622 -1.5 $555 1.5 $547 $689 forward 7 unknown #
coedge $-1 $690 $548 $567 $642 reversed $621 $-1 #
coedge $-1 $548 $690 $687 $691 reversed $621 $-1 #
loop $-1 $-1 $620 $682 #
vertex $-1 $618 $692 #
vertex $-1 $549 $693 #
straight-curve $-1 55.140406567334722 -23.414890843323821 0 0 0 -1 I I #
coedge $-1 $551 $562 $613 $685 forward $626 $-1 #
loop $-1 $-1 $625 $610 #
vertex $-1 $552 $694 #
straight-curve $-1 52.184601916438133 -20.414890843323821 -7.945570628254095 1 0 0 I I #
vertex $-1 $559 $695 #
straight-curve $-1 52.184601916438133 -20.414890843323821 7.945570628254095 -1 0 0 I I #
point $-1 55.140406567334722 -20.414890843323821 7.945570628254095 #
point $-1 55.140406567334722 -20.414890843323821 -7.945570628254095 #
coedge $-1 $558 $613 $560 $635 reversed $456 $-1 #
straight-curve $-1 49.228797265541552 0 7.945570628254095 0 1 0 I I #
edge $-1 $561 -7.945570628254095 $638 7.945570628254095 $633 $696 forward 7 unknown #
point $-1 49.228797265541552 23.414890843323821 7.945570628254095 #
coedge $-1 $562 $697 $564 $640 forward $626 $-1 #
vertex $-1 $685 $698 #
straight-curve $-1 0 23.414890843323821 -7.945570628254095 1 0 0 I I #
edge $-1 $649 -20.414890843323821 $565 23.414890843323821 $564 $699 forward 7 unknown #
point $-1 -49.228797265541552 23.414890843323821 -7.945570628254095 #
edge $-1 $644 -107.32500848377286 $622 2.9558046508965887 $619 $700 forward 7 unknown #
coedge $-1 $568 $684 $690 $701 reversed $543 $-1 #
vertex $-1 $569 $702 #
straight-curve $-1 -55.140406567334729 -21.914890843323821 7.945570628254095 0 -1 0 I I #
coedge $-1 $571 $570 $697 $703 reversed $572 $-1 #
edge $-1 $573 -7.945570628254095 $704 7.945570628254095 $571 $705 forward 7 unknown #
point $-1 -55.140406567334729 -20.414890843323821 7.945570628254095 #
vertex $-1 $640 $706 #
straight-curve $-1 -49.228797265541552 -20.414890843323821 0 0 0 1 I I #
plane-surface $-1 -49.228797265541552 0 0 1 0 0 0 0 -1 forward_v I I I I #
face $-1 $707 $708 $19 $-1 $709 reversed single #
loop $-1 $-1 $710 $578 #
plane-surface $-1 49.228797265541552 0 0 -1 0 0 0 0 1 forward_v I I I I #
coedge $-1 $711 $712 $713 $714 forward $579 $-1 #
coedge $-1 $715 $581 $716 $717 reversed $483 $-1 #
coedge $-1 $581 $715 $718 $719 reversed $483 $-1 #
coedge $-1 $712 $711 $581 $659 reversed $579 $-1 #
edge $-1 $720 -7.945570628254095 $721 7.945570628254095 $658 $722 forward 7 unknown #
coedge $-1 $582 $718 $723 $724 forward $381 $-1 #
coedge $-1 $725 $583 $582 $662 reversed $496 $-1 #
edge $-1 $726 -49.228797265541552 $586 -43.317187963748374 $661 $598 forward 7 unknown #
vertex $-1 $590 $727 #
straight-curve $-1 43.317187963748374 23.414890843323821 49.403261925363935 0 0 1 I I #
straight-curve $-1 43.317187963748374 -4.1109636726734209 40.93460291819089 0 -0.5877852410284794 0.80901700255871778 I I #
point $-1 43.317187963748374 23.414890843323821 7.945570628254095 #
point $-1 43.317187963748374 19.856970541947049 7.9455706282540959 #
straight-curve $-1 17.923549058220008 23.414890843323821 3.0485133075800981 1 0 0 I I #
coedge $-1 $592 $725 $728 $729 reversed $496 $-1 #
coedge $-1 $730 $595 $592 $671 forward $677 $-1 #
edge $-1 $597 -7.945570628254095 $731 7.945570628254095 $592 $732 forward 7 unknown #
plane-surface $-1 0 23.414890843323821 0 0 -1 0 0 0 -1 forward_v I I I I #
coedge $-1 $733 $594 $734 $735 forward $381 $-1 #
coedge $-1 $736 $737 $594 $675 reversed $738 $-1 #
edge $-1 $678 -2.9558046508965887 $739 2.9558046508965887 $674 $740 forward 7 unknown #
coedge $-1 $595 $730 $736 $741 forward $677 $-1 #
loop $-1 $-1 $676 $742 #
vertex $-1 $675 $743 #
straight-curve $-1 -49.228797265541552 0 7.945570628254095 0 -1 0 I I #
point $-1 -49.228797265541552 23.414890843323821 7.945570628254095 #
straight-curve $-1 -49.228797265541552 23.414890843323821 0 0 0 -1 I I #
face $-1 $576 $621 $18 $-1 $744 reversed single #
plane-surface $-1 0 0 -7.945570628254095 0 0 1 1 0 0 forward_v I I I I #
coedge $-1 $643 $612 $745 $746 reversed $543 $-1 #
edge $-1 $638 -23.414890843323821 $627 20.414890843323821 $613 $747 forward 7 unknown #
straight-curve $-1 49.228797265541552 -20.414890843323821 0 0 0 -1 I I #
coedge $-1 $745 $615 $620 $691 forward $626 $-1 #
straight-curve $-1 55.140406567334722 -21.914890843323821 -7.945570628254095 0 -1 0 I I #
straight-curve $-1 55.140406567334722 -21.914890843323821 7.945570628254095 0 1 0 I I #
coedge $-1 $620 $619 $643 $701 forward $621 $-1 #
edge $-1 $623 -2.9558046508965887 $748 107.32500848377286 $620 $749 forward 7 unknown #
point $-1 55.140406567334722 -23.414890843323821 7.945570628254095 #
point $-1 55.140406567334722 -23.414890843323821 -7.945570628254095 #
point $-1 49.228797265541544 -20.414890843323821 -7.945570628254095 #
point $-1 49.228797265541544 -20.414890843323821 7.945570628254095 #
straight-curve $-1 49.228797265541552 23.414890843323821 0 0 0 -1 I I #
coedge $-1 $637 $745 $646 $703 forward $626 $-1 #
point $-1 49.228797265541552 23.414890843323821 -7.945570628254095 #
straight-curve $-1 -49.228797265541552 0 -7.945570628254095 0 1 0 I I #
straight-curve $-1 52.184601916438133 -23.414890843323821 7.945570628254095 1 0 0 I I #
edge $-1 $644 -7.945570628254095 $748 7.945570628254095 $643 $750 forward 7 unknown #
point $-1 -55.140406567334729 -23.414890843323821 7.945570628254095 #
edge $-1 $704 -2.9558046508965887 $649 2.9558046508965887 $646 $751 forward 7 unknown #
vertex $-1 $703 $752 #
straight-curve $-1 -55.140406567334729 -20.414890843323821 0 0 0 -1 I I #
point $-1 -49.228797265541552 -20.414890843323821 -7.945570628254095 #
face $-1 $753 $738 $19 $-1 $754 reversed single #
loop $-1 $-1 $755 $652 #
plane-surface $-1 -55.140406567334729 -21.914890843323821 0 1 0 0 0 0 -1 forward_v I I I I #
coedge $-1 $756 $723 $715 $757 forward $653 $-1 #
coedge $-1 $658 $655 $758 $759 reversed $579 $-1 #
coedge $-1 $655 $658 $760 $761 reversed $579 $-1 #
coedge $-1 $762 $763 $655 $714 reversed $764 $-1 #
edge $-1 $765 -7.945570628254095 $766 7.945570628254095 $655 $767 forward 7 unknown #
coedge $-1 $657 $656 $710 $757 reversed $483 $-1 #
coedge $-1 $758 $768 $656 $717 forward $769 $-1 #
edge $-1 $770 -2.9558046508965887 $721 2.9558046508965887 $656 $771 forward 7 unknown #
coedge $-1 $660 $760 $657 $719 forward $381 $-1 #
edge $-1 $720 -2.9558046508965887 $772 2.9558046508965887 $657 $773 forward 7 unknown #
vertex $-1 $761 $774 #
vertex $-1 $759 $775 #
straight-curve $-1 55.140406567334722 -20.414890843323821 0 0 0 -1 I I #
coedge $-1 $710 $776 $660 $724 reversed $653 $-1 #
edge $-1 $772 -20.414890843323821 $726 23.414890843323821 $723 $777 forward 7 unknown #
coedge $-1 $669 $661 $776 $778 forward $496 $-1 #
vertex $-1 $724 $779 #
point $-1 43.317187963748374 23.414890843323821 3.0485133075800945 #
coedge $-1 $768 $780 $669 $729 forward $769 $-1 #
edge $-1 $731 -49.228797265541552 $781 49.228797265541552 $669 $782 forward 7 unknown #
coedge $-1 $676 $670 $780 $783 reversed $677 $-1 #
vertex $-1 $729 $784 #
straight-curve $-1 -49.228797265541552 23.414890843323821 0 0 0 -1 I I #
coedge $-1 $760 $673 $762 $785 forward $381 $-1 #
coedge $-1 $755 $786 $673 $735 reversed $708 $-1 #
edge $-1 $739 -1.5 $787 1.5 $734 $788 forward 7 unknown #
coedge $-1 $789 $674 $676 $741 reversed $738 $-1 #
coedge $-1 $674 $789 $755 $790 reversed $738 $-1 #
loop $-1 $-1 $736 $707 #
vertex $-1 $675 $791 #
straight-curve $-1 -52.18460191643814 -20.414890843323821 7.945570628254095 -1 0 0 I I #
edge $-1 $792 -7.945570628254095 $678 7.945570628254095 $676 $793 forward 7 unknown #
face $-1 $593 $677 $19 $-1 $794 reversed single #
point $-1 -49.228797265541552 -20.414890843323821 7.945570628254095 #
plane-surface $-1 0 -23.414890843323821 0 0 1 0 0 0 1 forward_v I I I I #
coedge $-1 $697 $687 $684 $746 forward $626 $-1 #
edge $-1 $748 -1.5 $704 1.5 $684 $795 forward 7 unknown #
straight-curve $-1 49.228797265541552 0 -7.945570628254095 0 -1 0 I I #
vertex $-1 $746 $796 #
straight-curve $-1 52.184601916438133 -23.414890843323821 -7.945570628254095 -1 0 0 I I #
straight-curve $-1 -55.140406567334729 -23.414890843323821 0 0 0 -1 I I #
straight-curve $-1 -52.18460191643814 -20.414890843323821 -7.945570628254095 1 0 0 I I #
point $-1 -55.140406567334729 -20.414890843323821 -7.945570628254095 #
face $-1 $797 $769 $19 $-1 $798 reversed single #
plane-surface $-1 -52.18460191643814 -20.414890843323821 0 0 -1 0 0 0 -1 forward_v I I I I #
coedge $-1 $799 $734 $737 $790 forward $708 $-1 #
coedge $-1 $776 $710 $768 $800 reversed $653 $-1 #
edge $-1 $772 -7.945570628254095 $770 7.945570628254095 $710 $801 forward 7 unknown #
coedge $-1 $802 $716 $711 $759 forward $769 $-1 #
edge $-1 $721 -1.5 $766 1.5 $711 $803 forward 7 unknown #
coedge $-1 $718 $733 $712 $761 forward $381 $-1 #
edge $-1 $765 -1.5 $720 1.5 $712 $804 forward 7 unknown #
coedge $-1 $805 $713 $733 $785 reversed $764 $-1 #
coedge $-1 $713 $805 $802 $806 reversed $764 $-1 #
loop $-1 $-1 $763 $797 #
vertex $-1 $761 $807 #
vertex $-1 $714 $808 #
straight-curve $-1 55.140406567334722 -23.414890843323821 0 0 0 -1 I I #
coedge $-1 $716 $728 $756 $800 forward $769 $-1 #
loop $-1 $-1 $768 $753 #
vertex $-1 $717 $809 #
straight-curve $-1 52.184601916438133 -20.414890843323821 -7.945570628254095 1 0 0 I I #
vertex $-1 $724 $810 #
straight-curve $-1 52.184601916438133 -20.414890843323821 7.945570628254095 -1 0 0 I I #
point $-1 55.140406567334722 -20.414890843323821 7.945570628254095 #
point $-1 55.140406567334722 -20.414890843323821 -7.945570628254095 #
coedge $-1 $723 $756 $725 $778 reversed $653 $-1 #
straight-curve $-1 49.228797265541552 0 7.945570628254095 0 1 0 I I #
edge $-1 $726 -7.945570628254095 $781 7.945570628254095 $776 $811 forward 7 unknown #
point $-1 49.228797265541552 23.414890843323821 7.945570628254095 #
coedge $-1 $728 $812 $730 $783 forward $769 $-1 #
vertex $-1 $800 $813 #
straight-curve $-1 0 23.414890843323821 -7.945570628254095 1 0 0 I I #
edge $-1 $792 -20.414890843323821 $731 23.414890843323821 $730 $814 forward 7 unknown #
point $-1 -49.228797265541552 23.414890843323821 -7.945570628254095 #
edge $-1 $787 -107.32500848377286 $765 2.9558046508965887 $762 $815 forward 7 unknown #
coedge $-1 $734 $799 $805 $816 reversed $708 $-1 #
vertex $-1 $735 $817 #
straight-curve $-1 -55.140406567334729 -21.914890843323821 7.945570628254095 0 -1 0 I I #
coedge $-1 $737 $736 $812 $818 reversed $738 $-1 #
edge $-1 $739 -7.945570628254095 $819 7.945570628254095 $737 $820 forward 7 unknown #
point $-1 -55.140406567334729 -20.414890843323821 7.945570628254095 #
vertex $-1 $783 $821 #
straight-curve $-1 -49.228797265541552 -20.414890843323821 0 0 0 1 I I #
plane-surface $-1 -49.228797265541552 0 0 1 0 0 0 0 -1 forward_v I I I I #
straight-curve $-1 -55.140406567334729 -21.914890843323821 -7.945570628254095 0 1 0 I I #
point $-1 -55.140406567334729 -23.414890843323821 -7.945570628254095 #
face $-1 $742 $764 $19 $-1 $822 reversed single #
plane-surface $-1 0 0 -7.945570628254095 0 0 1 1 0 0 forward_v I I I I #
coedge $-1 $786 $755 $823 $824 reversed $708 $-1 #
edge $-1 $781 -23.414890843323821 $770 20.414890843323821 $756 $825 forward 7 unknown #
straight-curve $-1 49.228797265541552 -20.414890843323821 0 0 0 -1 I I #
coedge $-1 $823 $758 $763 $806 forward $769 $-1 #
straight-curve $-1 55.140406567334722 -21.914890843323821 -7.945570628254095 0 -1 0 I I #
straight-curve $-1 55.140406567334722 -21.914890843323821 7.945570628254095 0 1 0 I I #
coedge $-1 $763 $762 $786 $816 forward $764 $-1 #
edge $-1 $766 -2.9558046508965887 $826 107.32500848377286 $763 $827 forward 7 unknown #
point $-1 55.140406567334722 -23.414890843323821 7.945570628254095 #
point $-1 55.140406567334722 -23.414890843323821 -7.945570628254095 #
point $-1 49.228797265541544 -20.414890843323821 -7.945570628254095 #
point $-1 49.228797265541544 -20.414890843323821 7.945570628254095 #
straight-curve $-1 49.228797265541552 23.414890843323821 0 0 0 -1 I I #
coedge $-1 $780 $823 $789 $818 forward $769 $-1 #
point $-1 49.228797265541552 23.414890843323821 -7.945570628254095 #
straight-curve $-1 -49.228797265541552 0 -7.945570628254095 0 1 0 I I #
straight-curve $-1 52.184601916438133 -23.414890843323821 7.945570628254095 1 0 0 I I #
edge $-1 $787 -7.945570628254095 $826 7.945570628254095 $786 $828 forward 7 unknown #
point $-1 -55.140406567334729 -23.414890843323821 7.945570628254095 #
edge $-1 $819 -2.9558046508965887 $792 2.9558046508965887 $789 $829 forward 7 unknown #
vertex $-1 $818 $830 #
straight-curve $-1 -55.140406567334729 -20.414890843323821 0 0 0 -1 I I #
point $-1 -49.228797265541552 -20.414890843323821 -7.945570628254095 #
plane-surface $-1 0 -23.414890843323821 0 0 1 0 0 0 1 forward_v I I I I #
coedge $-1 $812 $802 $799 $824 forward $769 $-1 #
edge $-1 $826 -1.5 $819 1.5 $799 $831 forward 7 unknown #
straight-curve $-1 49.228797265541552 0 -7.945570628254095 0 -1 0 I I #
vertex $-1 $824 $832 #
straight-curve $-1 52.184601916438133 -23.414890843323821 -7.945570628254095 -1 0 0 I I #
straight-curve $-1 -55.140406567334729 -23.414890843323821 0 0 0 -1 I I #
straight-curve $-1 -52.18460191643814 -20.414890843323821 -7.945570628254095 1 0 0 I I #
point $-1 -55.140406567334729 -20.414890843323821 -7.945570628254095 #
straight-curve $-1 -55.140406567334729 -21.914890843323821 -7.945570628254095 0 1 0 I I #
point $-1 -55.140406567334729 -23.414890843323821 -7.945570628254095 #
End-of-ACIS-data 