500 0 4 0           
7 Unknown 11 ACIS 5.0 NT 24 Fri Mar 26 17:57:38 1999 
-1 9.9999999999999995e-007 1e-010 
body $-1 $4 $-1 $5 #
body $-1 $6 $-1 $7 #
body $-1 $8 $-1 $9 #
body $-1 $10 $-1 $11 #
lump $-1 $-1 $12 $0 #
transform $-1 1 0 0 0 1 0 0 0 1 42.27301858577227 17.434798052059804 8.6613705756108246 1 rotate no_reflect no_shear #
lump $-1 $-1 $13 $1 #
transform $-1 1 0 0 0 1 0 0 0 1 42.27301858577227 17.434798052059804 8.6613705756108246 1 rotate no_reflect no_shear #
lump $-1 $-1 $14 $2 #
transform $-1 1 0 0 0 1 0 0 0 1 42.27301858577227 17.434798052059804 8.6613705756108246 1 rotate no_reflect no_shear #
lump $-1 $-1 $15 $3 #
transform $-1 1 0 0 0 1 0 0 0 1 42.27301858577227 17.434798052059804 8.6613705756108246 1 rotate no_reflect no_shear #
shell $-1 $-1 $-1 $16 $-1 $4 #
shell $-1 $-1 $-1 $17 $-1 $6 #
shell $-1 $-1 $-1 $18 $-1 $8 #
shell $-1 $-1 $-1 $19 $-1 $10 #
face $-1 $20 $21 $12 $-1 $22 forward single #
face $-1 $23 $24 $13 $-1 $25 forward single #
face $-1 $26 $27 $14 $-1 $28 forward single #
face $-1 $29 $30 $15 $-1 $31 reversed single #
face $-1 $32 $33 $12 $-1 $34 reversed single #
loop $-1 $-1 $35 $16 #
plane-surface $-1 0 0 8.6613705756108246 0 0 1 1 0 0 forward_v I I I I #
face $-1 $36 $37 $13 $-1 $38 forward single #
loop $-1 $-1 $39 $17 #
plane-surface $-1 0 -14.093729928346157 4.6414605612740125 0 0 1 1 0 0 forward_v I I I I #
face $-1 $40 $41 $14 $-1 $42 forward single #
loop $-1 $-1 $43 $18 #
plane-surface $-1 65.08731770338116 11.881364969248432 122.65600324785734 0 -1 0 -0.82903758062907751 0 -0.55919289150049634 forward_v I I I I #
face $-1 $44 $45 $15 $-1 $46 reversed single #
loop $-1 $47 $48 $19 #
cone-surface $-1 40.720350203751927 8.6205391392545927 6.6943979163149336 -0.82903758062907751 0 -0.55919289150049634 0.27959644575024817 0 -0.41451879031453875 1 I I 0 1 0.5 forward I I I I #
face $-1 $49 $50 $12 $-1 $51 reversed single #
loop $-1 $-1 $52 $20 #
plane-surface $-1 0 0 -8.6613705756108246 0 0 1 1 0 0 forward_v I I I I #
coedge $-1 $53 $54 $55 $56 forward $21 $-1 #
face $-1 $57 $58 $13 $-1 $59 forward single #
loop $-1 $-1 $60 $23 #
plane-surface $-1 0 -10.75266180463251 6.6514155684424185 0 -1 0 0 0 -1 forward_v I I I I #
coedge $-1 $61 $62 $63 $64 reversed $24 $-1 #
face $-1 $65 $66 $14 $-1 $67 forward single #
loop $-1 $-1 $68 $26 #
plane-surface $-1 -5.0045244050921838 8.6205391392545891 75.378460256992895 0.82903758062907751 0 0.55919289150049634 0.55919289150049634 0 -0.82903758062907751 forward_v I I I I #
coedge $-1 $69 $70 $71 $72 reversed $27 $-1 #
face $-1 $73 $74 $15 $-1 $75 forward single #
loop $-1 $76 $77 $29 #
cone-surface $-1 40.098572018280116 8.6205391392545927 6.2750032476895612 -0.82903758062907751 0 -0.55919289150049634 0.13979822287512408 0 -0.20725939515726938 1 I I -0.70710678118654746 0.70710678118654746 0.25 forward I I I I #
loop $-1 $-1 $78 $19 #
coedge $-1 $48 $48 $79 $80 reversed $30 $-1 #
face $-1 $81 $82 $12 $-1 $83 reversed single #
loop $-1 $-1 $84 $32 #
plane-surface $-1 0 -17.434798052059804 0 0 1 0 0 0 1 forward_v I I I I #
coedge $-1 $85 $86 $87 $88 forward $33 $-1 #
coedge $-1 $89 $35 $90 $91 forward $21 $-1 #
coedge $-1 $35 $89 $92 $93 forward $21 $-1 #
coedge $-1 $94 $95 $35 $56 reversed $96 $-1 #
edge $-1 $97 -17.434798052059804 $98 17.434798052059804 $55 $99 forward 7 unknown #
face $-1 $100 $101 $13 $-1 $102 reversed single #
loop $-1 $-1 $103 $36 #
plane-surface $-1 0 0 8.6613705756108246 0 0 1 1 0 0 forward_v I I I I #
coedge $-1 $104 $105 $106 $107 reversed $37 $-1 #
coedge $-1 $108 $39 $105 $109 reversed $24 $-1 #
coedge $-1 $39 $108 $110 $111 reversed $24 $-1 #
coedge $-1 $112 $106 $39 $64 forward $101 $-1 #
edge $-1 $113 3.7057968404594313 $114 10.387933087886726 $63 $115 forward 7 unknown #
face $-1 $116 $117 $14 $-1 $118 forward single #
loop $-1 $-1 $119 $40 #
plane-surface $-1 65.08731770338116 5.3597133092607461 122.65600324785734 0 1 0 0.82903758062907751 0 0.55919289150049634 forward_v I I I I #
coedge $-1 $120 $121 $122 $123 reversed $41 $-1 #
coedge $-1 $70 $43 $121 $124 forward $27 $-1 #
coedge $-1 $43 $69 $125 $126 reversed $27 $-1 #
coedge $-1 $127 $122 $43 $72 forward $117 $-1 #
edge $-1 $128 7.4530605506700951 $129 9.7293597340816902 $71 $130 forward 7 unknown #
face $-1 $131 $132 $15 $-1 $133 forward single #
loop $-1 $-1 $134 $44 #
plane-surface $-1 65.08731770338116 11.881364969248432 122.65600324785734 0 -1 0 -0.82903758062907751 0 -0.55919289150049634 forward_v I I I I #
loop $-1 $-1 $135 $29 #
coedge $-1 $77 $77 $78 $136 forward $45 $-1 #
coedge $-1 $78 $78 $77 $136 reversed $47 $-1 #
coedge $-1 $79 $79 $48 $80 forward $132 $-1 #
edge $-1 $137 0 $137 6.2831853071796004 $79 $138 forward 7 unknown #
face $-1 $139 $140 $12 $-1 $141 reversed single #
loop $-1 $-1 $142 $49 #
plane-surface $-1 -42.27301858577227 0 0 1 0 0 0 0 -1 forward_v I I I I #
coedge $-1 $143 $92 $144 $145 forward $50 $-1 #
coedge $-1 $146 $52 $143 $147 forward $33 $-1 #
coedge $-1 $52 $146 $148 $149 forward $33 $-1 #
coedge $-1 $95 $94 $52 $88 reversed $96 $-1 #
edge $-1 $150 -17.434798052059804 $151 17.434798052059804 $87 $152 forward 7 unknown #
coedge $-1 $54 $53 $153 $154 forward $21 $-1 #
coedge $-1 $155 $156 $53 $91 reversed $140 $-1 #
edge $-1 $98 -42.27301858577227 $157 42.27301858577227 $90 $158 forward 7 unknown #
coedge $-1 $84 $159 $54 $93 reversed $50 $-1 #
edge $-1 $160 -42.27301858577227 $97 42.27301858577227 $92 $161 forward 7 unknown #
coedge $-1 $87 $55 $159 $162 forward $96 $-1 #
coedge $-1 $55 $87 $155 $163 reversed $96 $-1 #
loop $-1 $-1 $94 $139 #
vertex $-1 $56 $164 #
vertex $-1 $56 $165 #
straight-curve $-1 42.27301858577227 0 8.6613705756108246 0 1 0 I I #
face $-1 $166 $167 $13 $-1 $168 reversed single #
loop $-1 $-1 $106 $57 #
plane-surface $-1 42.27301858577227 0 0 -1 0 0 0 0 1 forward_v I I I I #
coedge $-1 $169 $170 $104 $171 forward $58 $-1 #
coedge $-1 $172 $60 $103 $171 reversed $37 $-1 #
coedge $-1 $60 $172 $61 $109 forward $37 $-1 #
coedge $-1 $63 $173 $60 $107 forward $101 $-1 #
edge $-1 $174 -5.3356627913896153 $113 -1.3157527770528032 $106 $175 forward 7 unknown #
coedge $-1 $62 $61 $176 $177 reversed $24 $-1 #
edge $-1 $178 -42.27301858577227 $113 42.27301858577227 $105 $179 forward 7 unknown #
coedge $-1 $180 $181 $62 $111 forward $182 $-1 #
edge $-1 $114 -42.27301858577227 $183 42.27301858577227 $110 $184 forward 7 unknown #
coedge $-1 $185 $63 $181 $186 forward $101 $-1 #
vertex $-1 $64 $187 #
vertex $-1 $186 $188 #
straight-curve $-1 42.27301858577227 -7.0468649641730785 4.6414605612740125 0 -1 0 I I #
face $-1 $189 $190 $14 $-1 $191 forward single #
loop $-1 $-1 $192 $65 #
plane-surface $-1 0 0 8.6613705756108246 0 0 1 1 0 0 forward_v I I I I #
coedge $-1 $193 $194 $192 $195 reversed $66 $-1 #
coedge $-1 $196 $68 $194 $197 reversed $41 $-1 #
coedge $-1 $68 $196 $69 $124 reversed $41 $-1 #
coedge $-1 $71 $192 $68 $123 forward $117 $-1 #
edge $-1 $198 1.0494437396334515 $128 7.5710953996211376 $122 $199 forward 7 unknown #
edge $-1 $128 80.475350261874553 $200 84.546037171544569 $69 $201 forward 7 unknown #
coedge $-1 $202 $203 $70 $126 forward $204 $-1 #
edge $-1 $129 52.666631048317846 $200 56.041383475409134 $125 $205 forward 7 unknown #
coedge $-1 $206 $71 $203 $207 forward $117 $-1 #
vertex $-1 $123 $208 #
vertex $-1 $207 $209 #
straight-curve $-1 32.54365885169058 11.881364969248432 8.6613705756108246 1 0 0 I I #
face $-1 $210 $211 $15 $-1 $212 forward single #
loop $-1 $213 $79 $73 #
plane-surface $-1 -5.0045244050921838 8.6205391392545891 75.378460256992895 0.82903758062907751 0 0.55919289150049634 0.55919289150049634 0 -0.82903758062907751 forward_v I I I I #
coedge $-1 $214 $215 $216 $217 reversed $74 $-1 #
coedge $-1 $135 $135 $-1 $218 forward $76 $-1 #
edge $-1 $219 0 $219 6.2831853071796004 $77 $220 forward 7 unknown #
vertex $-1 $80 $221 #
ellipse-curve $-1 41.134868994066473 8.6205391392545927 6.9739943620651861 -0.82903758062907751 0 -0.55919289150049634 0.27959644575024817 0 -0.41451879031453875 1 I I #
face $-1 $-1 $96 $12 $-1 $222 reversed single #
loop $-1 $-1 $155 $81 #
plane-surface $-1 0 17.434798052059804 0 0 -1 0 0 0 -1 forward_v I I I I #
coedge $-1 $223 $153 $156 $224 forward $82 $-1 #
coedge $-1 $159 $84 $85 $147 reversed $50 $-1 #
coedge $-1 $153 $223 $84 $145 reversed $82 $-1 #
edge $-1 $160 -8.6613705756108246 $225 8.6613705756108246 $144 $226 forward 7 unknown #
coedge $-1 $86 $85 $223 $227 forward $33 $-1 #
edge $-1 $151 -42.27301858577227 $225 42.27301858577227 $143 $228 forward 7 unknown #
coedge $-1 $156 $155 $86 $149 reversed $140 $-1 #
edge $-1 $229 -42.27301858577227 $150 42.27301858577227 $148 $230 forward 7 unknown #
vertex $-1 $88 $231 #
vertex $-1 $162 $232 #
straight-curve $-1 42.27301858577227 0 -8.6613705756108246 0 -1 0 I I #
coedge $-1 $142 $144 $89 $154 reversed $82 $-1 #
edge $-1 $157 -17.434798052059804 $160 17.434798052059804 $153 $233 forward 7 unknown #
coedge $-1 $148 $90 $95 $163 forward $140 $-1 #
coedge $-1 $90 $148 $142 $224 reversed $140 $-1 #
vertex $-1 $91 $234 #
straight-curve $-1 0 17.434798052059804 8.6613705756108246 -1 0 0 I I #
coedge $-1 $92 $143 $94 $162 reversed $50 $-1 #
vertex $-1 $154 $235 #
straight-curve $-1 0 -17.434798052059804 8.6613705756108246 1 0 0 I I #
edge $-1 $97 -8.6613705756108246 $151 8.6613705756108246 $94 $236 forward 7 unknown #
edge $-1 $98 -8.6613705756108246 $150 8.6613705756108246 $95 $237 forward 7 unknown #
point $-1 42.27301858577227 -17.434798052059804 8.6613705756108246 #
point $-1 42.27301858577227 17.434798052059804 8.6613705756108246 #
face $-1 $238 $182 $13 $-1 $239 reversed single #
loop $-1 $-1 $240 $100 #
plane-surface $-1 0 0 -8.6613705756108246 0 0 1 1 0 0 forward_v I I I I #
coedge $-1 $241 $103 $173 $242 forward $58 $-1 #
coedge $-1 $103 $241 $243 $244 forward $58 $-1 #
edge $-1 $245 -42.27301858577227 $174 42.27301858577227 $103 $246 forward 7 unknown #
coedge $-1 $105 $104 $247 $248 reversed $37 $-1 #
coedge $-1 $106 $249 $169 $242 reversed $101 $-1 #
vertex $-1 $242 $250 #
straight-curve $-1 42.27301858577227 -10.75266180463251 3.3257077842212093 0 0 -1 I I #
coedge $-1 $247 $251 $108 $177 forward $252 $-1 #
edge $-1 $183 -10.387933087886726 $178 -3.7057968404594313 $176 $253 forward 7 unknown #
vertex $-1 $177 $254 #
straight-curve $-1 0 -10.75266180463251 4.6414605612740125 1 0 0 I I #
coedge $-1 $255 $110 $251 $256 forward $182 $-1 #
coedge $-1 $110 $255 $112 $186 reversed $182 $-1 #
loop $-1 $-1 $110 $166 #
vertex $-1 $256 $257 #
straight-curve $-1 0 -17.434798052059804 4.6414605612740125 -1 0 0 I I #
coedge $-1 $249 $112 $240 $258 reversed $101 $-1 #
edge $-1 $114 -4.6414605612740125 $259 8.6613705756108246 $112 $260 forward 7 unknown #
point $-1 42.27301858577227 -10.75266180463251 4.6414605612740125 #
point $-1 42.27301858577227 -17.434798052059804 4.6414605612740125 #
face $-1 $261 $262 $14 $-1 $263 forward single #
loop $-1 $-1 $264 $116 #
plane-surface $-1 0 -14.093729928346157 4.6414605612740125 0 0 1 1 0 0 forward_v I I I I #
coedge $-1 $122 $265 $119 $195 forward $117 $-1 #
coedge $-1 $194 $119 $266 $267 reversed $66 $-1 #
coedge $-1 $119 $193 $120 $197 forward $66 $-1 #
edge $-1 $268 -9.7293597340816902 $198 -7.4530605506700951 $192 $269 forward 7 unknown #
coedge $-1 $121 $120 $202 $270 reversed $41 $-1 #
edge $-1 $271 -84.546037171544569 $198 -80.475350261874553 $194 $272 forward 7 unknown #
vertex $-1 $123 $273 #
straight-curve $-1 39.996719402360668 4.3102695696272946 8.6613705756108317 0 1 0 I I #
vertex $-1 $270 $274 #
straight-curve $-1 -5.0045244050921838 11.881364969248432 75.378460256992895 0.55919289150049634 0 -0.82903758062907751 I I #
coedge $-1 $266 $125 $196 $270 forward $204 $-1 #
coedge $-1 $125 $275 $127 $207 reversed $204 $-1 #
loop $-1 $-1 $266 $261 #
straight-curve $-1 42.27301858577227 11.881364969248432 61.328001623928671 0 0 -1 I I #
coedge $-1 $276 $127 $277 $278 forward $117 $-1 #
edge $-1 $129 11.881364969248432 $279 17.434798052059804 $203 $280 forward 7 unknown #
point $-1 39.996719402360675 11.881364969248432 8.6613705756108175 #
point $-1 42.27301858577227 11.881364969248432 8.6613705756108246 #
face $-1 $281 $282 $15 $-1 $283 forward single #
loop $-1 $-1 $284 $131 #
plane-surface $-1 65.08731770338116 5.3597133092607461 122.65600324785734 0 1 0 0.82903758062907751 0 0.55919289150049634 forward_v I I I I #
loop $-1 $-1 $285 $73 #
coedge $-1 $215 $134 $286 $287 forward $74 $-1 #
coedge $-1 $134 $214 $288 $289 reversed $74 $-1 #
coedge $-1 $290 $291 $134 $217 forward $282 $-1 #
edge $-1 $292 7.4530605506700951 $293 9.7293597340816902 $216 $294 forward 7 unknown #
edge $-1 $295 1 $295 0 $135 $-1 forward 7 unknown #
vertex $-1 $136 $296 #
ellipse-curve $-1 40.305831413437389 8.6205391392545927 6.4148014705646856 0.82903758062907751 0 0.55919289150049634 0.27959644575024817 0 -0.41451879031453875 1 I I #
point $-1 41.414465439816709 8.6205391392545927 6.5594755717506432 #
plane-surface $-1 42.27301858577227 0 0 -1 0 0 0 0 1 forward_v I I I I #
coedge $-1 $144 $142 $146 $227 reversed $82 $-1 #
edge $-1 $157 -8.6613705756108246 $229 8.6613705756108246 $156 $297 forward 7 unknown #
vertex $-1 $227 $298 #
straight-curve $-1 -42.27301858577227 -17.434798052059804 0 0 0 -1 I I #
edge $-1 $225 -17.434798052059804 $229 17.434798052059804 $223 $299 forward 7 unknown #
straight-curve $-1 0 -17.434798052059804 -8.6613705756108246 -1 0 0 I I #
vertex $-1 $149 $300 #
straight-curve $-1 0 17.434798052059804 -8.6613705756108246 1 0 0 I I #
point $-1 42.27301858577227 17.434798052059804 -8.6613705756108246 #
point $-1 42.27301858577227 -17.434798052059804 -8.6613705756108246 #
straight-curve $-1 -42.27301858577227 0 8.6613705756108246 0 -1 0 I I #
point $-1 -42.27301858577227 17.434798052059804 8.6613705756108246 #
point $-1 -42.27301858577227 -17.434798052059804 8.6613705756108246 #
straight-curve $-1 42.27301858577227 -17.434798052059804 0 0 0 -1 I I #
straight-curve $-1 42.27301858577227 17.434798052059804 0 0 0 -1 I I #
face $-1 $301 $252 $13 $-1 $302 reversed single #
plane-surface $-1 0 -17.434798052059804 0 0 1 0 0 0 1 forward_v I I I I #
coedge $-1 $303 $304 $185 $258 forward $167 $-1 #
coedge $-1 $170 $169 $305 $306 forward $58 $-1 #
edge $-1 $174 -10.75266180463251 $307 17.434798052059804 $173 $308 forward 7 unknown #
coedge $-1 $309 $247 $170 $244 reversed $252 $-1 #
edge $-1 $310 -17.434798052059804 $245 10.75266180463251 $243 $311 forward 7 unknown #
vertex $-1 $248 $312 #
straight-curve $-1 0 -10.75266180463251 8.6613705756108246 1 0 0 I I #
coedge $-1 $243 $176 $172 $248 forward $252 $-1 #
edge $-1 $178 1.3157527770528032 $245 5.3356627913896153 $247 $313 forward 7 unknown #
coedge $-1 $173 $185 $314 $315 reversed $101 $-1 #
point $-1 42.27301858577227 -10.75266180463251 8.6613705756108246 #
coedge $-1 $176 $316 $180 $256 reversed $252 $-1 #
loop $-1 $-1 $247 $238 #
straight-curve $-1 -42.27301858577227 -7.0468649641730785 4.6414605612740125 0 1 0 I I #
point $-1 -42.27301858577227 -10.75266180463251 4.6414605612740125 #
coedge $-1 $181 $180 $303 $317 reversed $182 $-1 #
edge $-1 $183 -4.6414605612740125 $318 8.6613705756108246 $251 $319 forward 7 unknown #
point $-1 -42.27301858577227 -17.434798052059804 4.6414605612740125 #
edge $-1 $320 -17.434798052059804 $259 17.434798052059804 $185 $321 forward 7 unknown #
vertex $-1 $186 $322 #
straight-curve $-1 42.27301858577227 -17.434798052059804 0 0 0 -1 I I #
face $-1 $323 $204 $14 $-1 $324 reversed single #
loop $-1 $-1 $325 $189 #
plane-surface $-1 0 -10.75266180463251 6.6514155684424185 0 -1 0 0 0 -1 forward_v I I I I #
coedge $-1 $326 $327 $328 $329 reversed $190 $-1 #
coedge $-1 $192 $330 $331 $332 forward $117 $-1 #
coedge $-1 $331 $202 $193 $267 forward $204 $-1 #
edge $-1 $271 -56.041383475409134 $268 -52.666631048317846 $266 $333 forward 7 unknown #
vertex $-1 $267 $334 #
straight-curve $-1 32.54365885169058 5.3597133092607461 8.6613705756108246 -1 0 0 I I #
edge $-1 $200 -7.5710953996211376 $271 -1.0494437396334515 $202 $335 forward 7 unknown #
vertex $-1 $270 $336 #
straight-curve $-1 -5.0045244050921838 5.3597133092607461 75.378460256992895 -0.55919289150049634 0 0.82903758062907751 I I #
point $-1 39.996719402360675 5.3597133092607461 8.6613705756108175 #
point $-1 42.27301858577227 11.881364969248432 5.2866181485195369 #
coedge $-1 $203 $337 $338 $339 reversed $204 $-1 #
coedge $-1 $330 $206 $340 $341 forward $117 $-1 #
coedge $-1 $338 $342 $206 $278 reversed $343 $-1 #
edge $-1 $279 -42.27301858577227 $344 42.27301858577227 $277 $345 forward 7 unknown #
vertex $-1 $207 $346 #
straight-curve $-1 42.27301858577227 0 8.6613705756108246 0 1 0 I I #
face $-1 $347 $348 $15 $-1 $349 forward single #
loop $-1 $-1 $350 $210 #
plane-surface $-1 0 0 8.6613705756108246 0 0 1 1 0 0 forward_v I I I I #
coedge $-1 $351 $352 $350 $353 reversed $211 $-1 #
coedge $-1 $354 $286 $291 $355 reversed $213 $-1 #
coedge $-1 $285 $356 $214 $287 reversed $213 $-1 #
edge $-1 $292 80.475350261874553 $357 84.546037171544569 $214 $358 forward 7 unknown #
coedge $-1 $359 $360 $215 $289 forward $361 $-1 #
edge $-1 $293 52.666631048317846 $357 56.041383475409134 $288 $362 forward 7 unknown #
coedge $-1 $363 $216 $360 $364 forward $282 $-1 #
coedge $-1 $216 $350 $285 $355 forward $282 $-1 #
vertex $-1 $355 $365 #
vertex $-1 $364 $366 #
straight-curve $-1 32.54365885169058 11.881364969248432 8.6613705756108246 1 0 0 I I #
vertex $-1 $218 $367 #
point $-1 40.585427859187632 8.6205391392545927 6.0002826802501463 #
straight-curve $-1 -42.27301858577227 17.434798052059804 0 0 0 -1 I I #
point $-1 -42.27301858577227 -17.434798052059804 -8.6613705756108246 #
straight-curve $-1 -42.27301858577227 0 -8.6613705756108246 0 1 0 I I #
point $-1 -42.27301858577227 17.434798052059804 -8.6613705756108246 #
face $-1 $-1 $368 $13 $-1 $369 reversed single #
plane-surface $-1 -42.27301858577227 0 0 1 0 0 0 0 -1 forward_v I I I I #
coedge $-1 $370 $240 $255 $317 forward $167 $-1 #
coedge $-1 $240 $370 $371 $372 forward $167 $-1 #
coedge $-1 $314 $373 $241 $306 reversed $368 $-1 #
edge $-1 $307 -42.27301858577227 $310 42.27301858577227 $305 $374 forward 7 unknown #
vertex $-1 $242 $375 #
straight-curve $-1 42.27301858577227 0 8.6613705756108246 0 1 0 I I #
coedge $-1 $316 $243 $373 $376 forward $252 $-1 #
vertex $-1 $306 $377 #
straight-curve $-1 -42.27301858577227 0 8.6613705756108246 0 -1 0 I I #
point $-1 -42.27301858577227 -10.75266180463251 8.6613705756108246 #
straight-curve $-1 -42.27301858577227 -10.75266180463251 3.3257077842212093 0 0 1 I I #
coedge $-1 $371 $305 $249 $315 forward $368 $-1 #
edge $-1 $307 -8.6613705756108246 $320 8.6613705756108246 $249 $378 forward 7 unknown #
coedge $-1 $251 $309 $370 $379 reversed $252 $-1 #
edge $-1 $259 -42.27301858577227 $318 42.27301858577227 $255 $380 forward 7 unknown #
vertex $-1 $379 $381 #
straight-curve $-1 -42.27301858577227 -17.434798052059804 0 0 0 -1 I I #
vertex $-1 $258 $382 #
straight-curve $-1 42.27301858577227 0 -8.6613705756108246 0 -1 0 I I #
point $-1 42.27301858577227 -17.434798052059804 -8.6613705756108246 #
face $-1 $383 $384 $14 $-1 $385 reversed single #
plane-surface $-1 42.27301858577227 0 0 -1 0 0 0 0 1 forward_v I I I I #
coedge $-1 $386 $387 $388 $389 reversed $262 $-1 #
coedge $-1 $390 $264 $387 $391 reversed $190 $-1 #
coedge $-1 $264 $390 $392 $393 reversed $190 $-1 #
coedge $-1 $394 $388 $264 $329 forward $204 $-1 #
edge $-1 $395 3.7057968404594313 $396 10.387933087886726 $328 $397 forward 7 unknown #
coedge $-1 $265 $276 $386 $398 forward $117 $-1 #
coedge $-1 $388 $266 $265 $332 reversed $204 $-1 #
edge $-1 $399 -10.75266180463251 $268 5.3597133092607461 $331 $280 forward 7 unknown #
straight-curve $-1 42.27301858577227 5.3597133092607461 61.328001623928671 0 0 1 I I #
point $-1 42.27301858577227 5.3597133092607461 8.6613705756108246 #
straight-curve $-1 42.27301858577227 4.3102695696272946 5.2866181485195298 0 -1 0 I I #
point $-1 42.27301858577227 5.3597133092607461 5.2866181485195369 #
coedge $-1 $275 $394 $400 $401 reversed $204 $-1 #
coedge $-1 $402 $277 $275 $339 forward $343 $-1 #
edge $-1 $279 -8.6613705756108246 $403 8.6613705756108246 $275 $404 forward 7 unknown #
coedge $-1 $405 $406 $276 $341 reversed $407 $-1 #
edge $-1 $344 -17.434798052059804 $408 10.75266180463251 $340 $409 forward 7 unknown #
coedge $-1 $277 $402 $405 $410 reversed $343 $-1 #
loop $-1 $-1 $338 $411 #
vertex $-1 $278 $412 #
straight-curve $-1 0 17.434798052059804 8.6613705756108246 -1 0 0 I I #
point $-1 42.27301858577227 17.434798052059804 8.6613705756108246 #
face $-1 $413 $414 $15 $-1 $415 forward single #
loop $-1 $-1 $416 $281 #
plane-surface $-1 0 -14.093729928346157 4.6414605612740125 0 0 1 1 0 0 forward_v I I I I #
coedge $-1 $291 $417 $284 $353 forward $282 $-1 #
coedge $-1 $352 $284 $418 $419 reversed $211 $-1 #
coedge $-1 $284 $351 $354 $420 forward $211 $-1 #
edge $-1 $421 -9.7293597340816902 $422 -7.4530605506700951 $350 $423 forward 7 unknown #
coedge $-1 $356 $285 $352 $420 reversed $213 $-1 #
edge $-1 $422 1.0494437396334515 $292 7.5710953996211376 $291 $424 forward 7 unknown #
coedge $-1 $286 $354 $359 $425 reversed $213 $-1 #
vertex $-1 $425 $426 #
straight-curve $-1 -5.0045244050921838 11.881364969248432 75.378460256992895 0.55919289150049634 0 -0.82903758062907751 I I #
coedge $-1 $418 $288 $356 $425 forward $361 $-1 #
coedge $-1 $288 $427 $290 $364 reversed $361 $-1 #
loop $-1 $-1 $418 $413 #
straight-curve $-1 42.27301858577227 11.881364969248432 61.328001623928671 0 0 -1 I I #
coedge $-1 $428 $290 $429 $430 forward $282 $-1 #
edge $-1 $293 11.881364969248432 $431 17.434798052059804 $360 $432 forward 7 unknown #
point $-1 39.996719402360675 11.881364969248432 8.6613705756108175 #
point $-1 42.27301858577227 11.881364969248432 8.6613705756108246 #
point $-1 39.891312623122843 8.6205391392545927 6.1352050248144367 #
loop $-1 $-1 $314 $301 #
plane-surface $-1 0 17.434798052059804 0 0 -1 0 0 0 -1 forward_v I I I I #
coedge $-1 $304 $303 $316 $379 forward $167 $-1 #
coedge $-1 $373 $314 $304 $372 reversed $368 $-1 #
edge $-1 $433 -42.27301858577227 $320 42.27301858577227 $371 $434 forward 7 unknown #
coedge $-1 $305 $371 $309 $376 reversed $368 $-1 #
straight-curve $-1 0 17.434798052059804 8.6613705756108246 -1 0 0 I I #
point $-1 42.27301858577227 17.434798052059804 8.6613705756108246 #
edge $-1 $310 -8.6613705756108246 $433 8.6613705756108246 $373 $435 forward 7 unknown #
point $-1 -42.27301858577227 17.434798052059804 8.6613705756108246 #
straight-curve $-1 42.27301858577227 17.434798052059804 0 0 0 -1 I I #
edge $-1 $318 -17.434798052059804 $433 17.434798052059804 $316 $436 forward 7 unknown #
straight-curve $-1 0 -17.434798052059804 -8.6613705756108246 -1 0 0 I I #
point $-1 -42.27301858577227 -17.434798052059804 -8.6613705756108246 #
point $-1 42.27301858577227 17.434798052059804 -8.6613705756108246 #
face $-1 $437 $438 $14 $-1 $439 reversed single #
loop $-1 $-1 $400 $323 #
plane-surface $-1 0 0 -8.6613705756108246 0 0 1 1 0 0 forward_v I I I I #
coedge $-1 $440 $325 $330 $398 reversed $262 $-1 #
coedge $-1 $325 $440 $326 $391 forward $262 $-1 #
coedge $-1 $328 $331 $325 $389 forward $204 $-1 #
edge $-1 $399 -5.3356627913896153 $395 -1.3157527770528032 $388 $441 forward 7 unknown #
coedge $-1 $327 $326 $442 $443 reversed $190 $-1 #
edge $-1 $444 -42.27301858577227 $395 42.27301858577227 $387 $445 forward 7 unknown #
coedge $-1 $446 $447 $327 $393 forward $438 $-1 #
edge $-1 $396 -42.27301858577227 $448 42.27301858577227 $392 $449 forward 7 unknown #
coedge $-1 $337 $328 $447 $450 forward $204 $-1 #
vertex $-1 $329 $451 #
vertex $-1 $450 $452 #
straight-curve $-1 42.27301858577227 -7.0468649641730785 4.6414605612740125 0 -1 0 I I #
edge $-1 $408 -42.27301858577227 $399 42.27301858577227 $330 $453 forward 7 unknown #
vertex $-1 $332 $454 #
coedge $-1 $455 $456 $337 $401 forward $384 $-1 #
edge $-1 $403 -17.434798052059804 $457 17.434798052059804 $337 $458 forward 7 unknown #
coedge $-1 $342 $338 $456 $459 reversed $343 $-1 #
vertex $-1 $401 $460 #
straight-curve $-1 42.27301858577227 17.434798052059804 0 0 0 -1 I I #
coedge $-1 $461 $340 $342 $410 forward $407 $-1 #
coedge $-1 $340 $442 $440 $462 forward $407 $-1 #
loop $-1 $-1 $406 $437 #
vertex $-1 $462 $463 #
straight-curve $-1 -42.27301858577227 0 8.6613705756108246 0 -1 0 I I #
edge $-1 $344 -8.6613705756108246 $464 8.6613705756108246 $342 $465 forward 7 unknown #
face $-1 $-1 $343 $14 $-1 $466 reversed single #
point $-1 -42.27301858577227 17.434798052059804 8.6613705756108246 #
face $-1 $467 $361 $15 $-1 $468 reversed single #
loop $-1 $-1 $469 $347 #
plane-surface $-1 0 -10.75266180463251 6.6514155684424185 0 -1 0 0 0 -1 forward_v I I I I #
coedge $-1 $470 $471 $472 $473 reversed $348 $-1 #
coedge $-1 $350 $474 $475 $476 forward $282 $-1 #
coedge $-1 $475 $359 $351 $419 forward $361 $-1 #
edge $-1 $477 -56.041383475409134 $421 -52.666631048317846 $418 $478 forward 7 unknown #
edge $-1 $477 -84.546037171544569 $422 -80.475350261874553 $352 $479 forward 7 unknown #
vertex $-1 $419 $480 #
vertex $-1 $355 $481 #
straight-curve $-1 32.54365885169058 5.3597133092607461 8.6613705756108246 -1 0 0 I I #
straight-curve $-1 39.996719402360668 4.3102695696272946 8.6613705756108317 0 1 0 I I #
edge $-1 $357 -7.5710953996211376 $477 -1.0494437396334515 $359 $482 forward 7 unknown #
point $-1 42.27301858577227 11.881364969248432 5.2866181485195369 #
coedge $-1 $360 $483 $484 $485 reversed $361 $-1 #
coedge $-1 $474 $363 $486 $487 forward $282 $-1 #
coedge $-1 $484 $488 $363 $430 reversed $489 $-1 #
edge $-1 $431 -42.27301858577227 $490 42.27301858577227 $429 $491 forward 7 unknown #
vertex $-1 $364 $492 #
straight-curve $-1 42.27301858577227 0 8.6613705756108246 0 1 0 I I #
vertex $-1 $372 $493 #
straight-curve $-1 0 17.434798052059804 -8.6613705756108246 1 0 0 I I #
straight-curve $-1 -42.27301858577227 17.434798052059804 0 0 0 -1 I I #
straight-curve $-1 -42.27301858577227 0 -8.6613705756108246 0 1 0 I I #
face $-1 $411 $407 $14 $-1 $494 reversed single #
loop $-1 $-1 $392 $383 #
plane-surface $-1 0 -17.434798052059804 0 0 1 0 0 0 1 forward_v I I I I #
coedge $-1 $387 $386 $406 $462 reversed $262 $-1 #
straight-curve $-1 42.27301858577227 -10.75266180463251 3.3257077842212093 0 0 -1 I I #
coedge $-1 $406 $495 $390 $443 forward $407 $-1 #
edge $-1 $448 -10.387933087886726 $444 -3.7057968404594313 $442 $496 forward 7 unknown #
vertex $-1 $443 $497 #
straight-curve $-1 0 -10.75266180463251 4.6414605612740125 1 0 0 I I #
coedge $-1 $498 $392 $495 $499 forward $438 $-1 #
coedge $-1 $392 $498 $394 $450 reversed $438 $-1 #
vertex $-1 $499 $500 #
straight-curve $-1 0 -17.434798052059804 4.6414605612740125 -1 0 0 I I #
edge $-1 $396 -4.6414605612740125 $457 8.6613705756108246 $394 $501 forward 7 unknown #
point $-1 42.27301858577227 -10.75266180463251 4.6414605612740125 #
point $-1 42.27301858577227 -17.434798052059804 4.6414605612740125 #
straight-curve $-1 0 -10.75266180463251 8.6613705756108246 1 0 0 I I #
point $-1 42.27301858577227 -10.75266180463251 8.6613705756108246 #
coedge $-1 $502 $400 $498 $503 forward $384 $-1 #
coedge $-1 $400 $502 $402 $459 forward $384 $-1 #
vertex $-1 $450 $504 #
straight-curve $-1 42.27301858577227 0 -8.6613705756108246 0 -1 0 I I #
edge $-1 $464 -42.27301858577227 $403 42.27301858577227 $402 $505 forward 7 unknown #
point $-1 42.27301858577227 17.434798052059804 -8.6613705756108246 #
coedge $-1 $495 $405 $502 $506 reversed $407 $-1 #
edge $-1 $444 1.3157527770528032 $408 5.3356627913896153 $406 $507 forward 7 unknown #
point $-1 -42.27301858577227 -10.75266180463251 8.6613705756108246 #
vertex $-1 $459 $508 #
straight-curve $-1 -42.27301858577227 17.434798052059804 0 0 0 -1 I I #
plane-surface $-1 0 17.434798052059804 0 0 -1 0 0 0 -1 forward_v I I I I #
face $-1 $509 $510 $15 $-1 $511 reversed single #
plane-surface $-1 42.27301858577227 0 0 -1 0 0 0 0 1 forward_v I I I I #
coedge $-1 $512 $513 $514 $515 reversed $414 $-1 #
coedge $-1 $516 $416 $513 $517 reversed $348 $-1 #
coedge $-1 $416 $516 $518 $519 reversed $348 $-1 #
coedge $-1 $520 $514 $416 $473 forward $361 $-1 #
edge $-1 $521 3.7057968404594313 $522 10.387933087886726 $472 $523 forward 7 unknown #
coedge $-1 $417 $428 $512 $524 forward $282 $-1 #
coedge $-1 $514 $418 $417 $476 reversed $361 $-1 #
edge $-1 $525 -10.75266180463251 $421 5.3597133092607461 $475 $432 forward 7 unknown #
vertex $-1 $425 $526 #
straight-curve $-1 42.27301858577227 5.3597133092607461 61.328001623928671 0 0 1 I I #
straight-curve $-1 -5.0045244050921838 5.3597133092607461 75.378460256992895 -0.55919289150049634 0 0.82903758062907751 I I #
point $-1 42.27301858577227 5.3597133092607461 8.6613705756108246 #
point $-1 39.996719402360675 5.3597133092607461 8.6613705756108175 #
straight-curve $-1 42.27301858577227 4.3102695696272946 5.2866181485195298 0 -1 0 I I #
coedge $-1 $427 $520 $527 $528 reversed $361 $-1 #
coedge $-1 $529 $429 $427 $485 forward $489 $-1 #
edge $-1 $431 -8.6613705756108246 $530 8.6613705756108246 $427 $531 forward 7 unknown #
coedge $-1 $532 $533 $428 $487 reversed $534 $-1 #
edge $-1 $490 -17.434798052059804 $535 10.75266180463251 $486 $536 forward 7 unknown #
coedge $-1 $429 $529 $532 $537 reversed $489 $-1 #
loop $-1 $-1 $484 $538 #
vertex $-1 $430 $539 #
straight-curve $-1 0 17.434798052059804 8.6613705756108246 -1 0 0 I I #
point $-1 42.27301858577227 17.434798052059804 8.6613705756108246 #
point $-1 -42.27301858577227 17.434798052059804 -8.6613705756108246 #
plane-surface $-1 -42.27301858577227 0 0 1 0 0 0 0 -1 forward_v I I I I #
coedge $-1 $442 $461 $446 $499 reversed $407 $-1 #
straight-curve $-1 -42.27301858577227 -7.0468649641730785 4.6414605612740125 0 1 0 I I #
point $-1 -42.27301858577227 -10.75266180463251 4.6414605612740125 #
coedge $-1 $447 $446 $455 $503 reversed $438 $-1 #
edge $-1 $448 -4.6414605612740125 $540 8.6613705756108246 $495 $541 forward 7 unknown #
point $-1 -42.27301858577227 -17.434798052059804 4.6414605612740125 #
straight-curve $-1 42.27301858577227 -17.434798052059804 0 0 0 -1 I I #
coedge $-1 $456 $455 $461 $506 forward $384 $-1 #
edge $-1 $457 -42.27301858577227 $540 42.27301858577227 $498 $542 forward 7 unknown #
point $-1 42.27301858577227 -17.434798052059804 -8.6613705756108246 #
straight-curve $-1 0 17.434798052059804 -8.6613705756108246 1 0 0 I I #
edge $-1 $540 -17.434798052059804 $464 17.434798052059804 $461 $543 forward 7 unknown #
straight-curve $-1 -42.27301858577227 -10.75266180463251 3.3257077842212093 0 0 1 I I #
point $-1 -42.27301858577227 17.434798052059804 -8.6613705756108246 #
face $-1 $544 $545 $15 $-1 $546 reversed single #
loop $-1 $-1 $527 $467 #
plane-surface $-1 0 0 -8.6613705756108246 0 0 1 1 0 0 forward_v I I I I #
coedge $-1 $547 $469 $474 $524 reversed $414 $-1 #
coedge $-1 $469 $547 $470 $517 forward $414 $-1 #
coedge $-1 $472 $475 $469 $515 forward $361 $-1 #
edge $-1 $525 -5.3356627913896153 $521 -1.3157527770528032 $514 $548 forward 7 unknown #
coedge $-1 $471 $470 $549 $550 reversed $348 $-1 #
edge $-1 $551 -42.27301858577227 $521 42.27301858577227 $513 $552 forward 7 unknown #
coedge $-1 $553 $554 $471 $519 forward $545 $-1 #
edge $-1 $522 -42.27301858577227 $555 42.27301858577227 $518 $556 forward 7 unknown #
coedge $-1 $483 $472 $554 $557 forward $361 $-1 #
vertex $-1 $473 $558 #
vertex $-1 $557 $559 #
straight-curve $-1 42.27301858577227 -7.0468649641730785 4.6414605612740125 0 -1 0 I I #
edge $-1 $535 -42.27301858577227 $525 42.27301858577227 $474 $560 forward 7 unknown #
vertex $-1 $476 $561 #
point $-1 42.27301858577227 5.3597133092607461 5.2866181485195369 #
coedge $-1 $562 $563 $483 $528 forward $510 $-1 #
edge $-1 $530 -17.434798052059804 $564 17.434798052059804 $483 $565 forward 7 unknown #
coedge $-1 $488 $484 $563 $566 reversed $489 $-1 #
vertex $-1 $528 $567 #
straight-curve $-1 42.27301858577227 17.434798052059804 0 0 0 -1 I I #
coedge $-1 $568 $486 $488 $537 forward $534 $-1 #
coedge $-1 $486 $549 $547 $569 forward $534 $-1 #
loop $-1 $-1 $533 $544 #
vertex $-1 $569 $570 #
straight-curve $-1 -42.27301858577227 0 8.6613705756108246 0 -1 0 I I #
edge $-1 $490 -8.6613705756108246 $571 8.6613705756108246 $488 $572 forward 7 unknown #
face $-1 $-1 $489 $15 $-1 $573 reversed single #
point $-1 -42.27301858577227 17.434798052059804 8.6613705756108246 #
vertex $-1 $506 $574 #
straight-curve $-1 -42.27301858577227 -17.434798052059804 0 0 0 -1 I I #
straight-curve $-1 0 -17.434798052059804 -8.6613705756108246 -1 0 0 I I #
straight-curve $-1 -42.27301858577227 0 -8.6613705756108246 0 1 0 I I #
face $-1 $538 $534 $15 $-1 $575 reversed single #
loop $-1 $-1 $518 $509 #
plane-surface $-1 0 -17.434798052059804 0 0 1 0 0 0 1 forward_v I I I I #
coedge $-1 $513 $512 $533 $569 reversed $414 $-1 #
straight-curve $-1 42.27301858577227 -10.75266180463251 3.3257077842212093 0 0 -1 I I #
coedge $-1 $533 $576 $516 $550 forward $534 $-1 #
edge $-1 $555 -10.387933087886726 $551 -3.7057968404594313 $549 $577 forward 7 unknown #
vertex $-1 $550 $578 #
straight-curve $-1 0 -10.75266180463251 4.6414605612740125 1 0 0 I I #
coedge $-1 $579 $518 $576 $580 forward $545 $-1 #
coedge $-1 $518 $579 $520 $557 reversed $545 $-1 #
vertex $-1 $580 $581 #
straight-curve $-1 0 -17.434798052059804 4.6414605612740125 -1 0 0 I I #
edge $-1 $522 -4.6414605612740125 $564 8.6613705756108246 $520 $582 forward 7 unknown #
point $-1 42.27301858577227 -10.75266180463251 4.6414605612740125 #
point $-1 42.27301858577227 -17.434798052059804 4.6414605612740125 #
straight-curve $-1 0 -10.75266180463251 8.6613705756108246 1 0 0 I I #
point $-1 42.27301858577227 -10.75266180463251 8.6613705756108246 #
coedge $-1 $583 $527 $579 $584 forward $510 $-1 #
coedge $-1 $527 $583 $529 $566 forward $510 $-1 #
vertex $-1 $557 $585 #
straight-curve $-1 42.27301858577227 0 -8.6613705756108246 0 -1 0 I I #
edge $-1 $571 -42.27301858577227 $530 42.27301858577227 $529 $586 forward 7 unknown #
point $-1 42.27301858577227 17.434798052059804 -8.6613705756108246 #
coedge $-1 $576 $532 $583 $587 reversed $534 $-1 #
edge $-1 $551 1.3157527770528032 $535 5.3356627913896153 $533 $588 forward 7 unknown #
point $-1 -42.27301858577227 -10.75266180463251 8.6613705756108246 #
vertex $-1 $566 $589 #
straight-curve $-1 -42.27301858577227 17.434798052059804 0 0 0 -1 I I #
plane-surface $-1 0 17.434798052059804 0 0 -1 0 0 0 -1 forward_v I I I I #
point $-1 -42.27301858577227 -17.434798052059804 -8.6613705756108246 #
plane-surface $-1 -42.27301858577227 0 0 1 0 0 0 0 -1 forward_v I I I I #
coedge $-1 $549 $568 $553 $580 reversed $534 $-1 #
straight-curve $-1 -42.27301858577227 -7.0468649641730785 4.6414605612740125 0 1 0 I I #
point $-1 -42.27301858577227 -10.75266180463251 4.6414605612740125 #
coedge $-1 $554 $553 $562 $584 reversed $545 $-1 #
edge $-1 $555 -4.6414605612740125 $590 8.6613705756108246 $576 $591 forward 7 unknown #
point $-1 -42.27301858577227 -17.434798052059804 4.6414605612740125 #
straight-curve $-1 42.27301858577227 -17.434798052059804 0 0 0 -1 I I #
coedge $-1 $563 $562 $568 $587 forward $510 $-1 #
edge $-1 $564 -42.27301858577227 $590 42.27301858577227 $579 $592 forward 7 unknown #
point $-1 42.27301858577227 -17.434798052059804 -8.6613705756108246 #
straight-curve $-1 0 17.434798052059804 -8.6613705756108246 1 0 0 I I #
edge $-1 $590 -17.434798052059804 $571 17.434798052059804 $568 $593 forward 7 unknown #
straight-curve $-1 -42.27301858577227 -10.75266180463251 3.3257077842212093 0 0 1 I I #
point $-1 -42.27301858577227 17.434798052059804 -8.6613705756108246 #
vertex $-1 $587 $594 #
straight-curve $-1 -42.27301858577227 -17.434798052059804 0 0 0 -1 I I #
straight-curve $-1 0 -17.434798052059804 -8.6613705756108246 -1 0 0 I I #
straight-curve $-1 -42.27301858577227 0 -8.6613705756108246 0 1 0 I I #
point $-1 -42.27301858577227 -17.434798052059804 -8.6613705756108246 #
End-of-ACIS-data 