500 0 10 0           
7 Unknown 11 ACIS 5.0 NT 24 Thu Mar 25 23:00:14 1999 
-1 9.9999999999999995e-007 1e-010 
body $-1 $10 $-1 $11 #
body $-1 $12 $-1 $13 #
body $-1 $14 $-1 $15 #
body $-1 $16 $-1 $17 #
body $-1 $18 $-1 $19 #
body $-1 $20 $-1 $21 #
body $-1 $22 $-1 $23 #
body $-1 $24 $-1 $25 #
body $-1 $26 $-1 $27 #
body $-1 $28 $-1 $29 #
lump $-1 $-1 $30 $0 #
transform $-1 1 0 0 0 1 0 0 0 1 70.73458052308726 36.497808765524489 9.8592090977862927 1 rotate no_reflect no_shear #
lump $-1 $-1 $31 $1 #
transform $-1 1 0 0 0 1 0 0 0 1 70.73458052308726 36.497808765524489 9.8592090977862927 1 rotate no_reflect no_shear #
lump $-1 $-1 $32 $2 #
transform $-1 1 0 0 0 1 0 0 0 1 70.73458052308726 36.497808765524489 9.8592090977862927 1 rotate no_reflect no_shear #
lump $-1 $-1 $33 $3 #
transform $-1 1 0 0 0 1 0 0 0 1 70.73458052308726 36.497808765524489 9.8592090977862927 1 rotate no_reflect no_shear #
lump $-1 $-1 $34 $4 #
transform $-1 1 0 0 0 1 0 0 0 1 70.73458052308726 36.497808765524489 9.8592090977862927 1 rotate no_reflect no_shear #
lump $-1 $-1 $35 $5 #
transform $-1 1 0 0 0 1 0 0 0 1 70.73458052308726 36.497808765524489 9.8592090977862927 1 rotate no_reflect no_shear #
lump $-1 $-1 $36 $6 #
transform $-1 1 0 0 0 1 0 0 0 1 70.73458052308726 36.497808765524489 9.8592090977862927 1 rotate no_reflect no_shear #
lump $-1 $-1 $37 $7 #
transform $-1 1 0 0 0 1 0 0 0 1 70.73458052308726 36.497808765524489 9.8592090977862927 1 rotate no_reflect no_shear #
lump $-1 $-1 $38 $8 #
transform $-1 1 0 0 0 1 0 0 0 1 70.73458052308726 36.497808765524489 9.8592090977862927 1 rotate no_reflect no_shear #
lump $-1 $-1 $39 $9 #
transform $-1 1 0 0 0 1 0 0 0 1 70.73458052308726 36.497808765524489 9.8592090977862927 1 rotate no_reflect no_shear #
shell $-1 $-1 $-1 $40 $-1 $10 #
shell $-1 $-1 $-1 $41 $-1 $12 #
shell $-1 $-1 $-1 $42 $-1 $14 #
shell $-1 $-1 $-1 $43 $-1 $16 #
shell $-1 $-1 $-1 $44 $-1 $18 #
shell $-1 $-1 $-1 $45 $-1 $20 #
shell $-1 $-1 $-1 $46 $-1 $22 #
shell $-1 $-1 $-1 $47 $-1 $24 #
shell $-1 $-1 $-1 $48 $-1 $26 #
shell $-1 $-1 $-1 $49 $-1 $28 #
face $-1 $50 $51 $30 $-1 $52 forward single #
face $-1 $53 $54 $31 $-1 $55 forward single #
face $-1 $56 $57 $32 $-1 $58 reversed single #
face $-1 $59 $60 $33 $-1 $61 forward single #
face $-1 $62 $63 $34 $-1 $64 reversed single #
face $-1 $65 $66 $35 $-1 $67 forward single #
face $-1 $68 $69 $36 $-1 $70 forward single #
face $-1 $71 $72 $37 $-1 $73 reversed single #
face $-1 $74 $75 $38 $-1 $76 forward single #
face $-1 $77 $78 $39 $-1 $79 forward single #
face $-1 $80 $81 $30 $-1 $82 reversed single #
loop $-1 $-1 $83 $40 #
plane-surface $-1 0 0 9.8592090977862927 0 0 1 1 0 0 forward_v I I I I #
face $-1 $84 $85 $31 $-1 $86 reversed single #
loop $-1 $-1 $87 $41 #
plane-surface $-1 -70.73458052308726 0 0 1 0 0 0 0 -1 forward_v I I I I #
face $-1 $88 $89 $32 $-1 $90 reversed single #
loop $-1 $-1 $91 $42 #
plane-surface $-1 35.920813906393875 92.786283784416526 149.27210873669691 1 0 0 0 -0.74314483375859142 -0.66913059716165679 forward_v I I I I #
face $-1 $92 $93 $33 $-1 $94 forward single #
loop $-1 $95 $96 $43 #
cone-surface $-1 53.327697214740567 30.795721802096811 3.8264780601232427 0 -0.74314483375859142 -0.66913059716165679 3 0 0 1 I I 0 1 3 forward I I I I #
face $-1 $97 $98 $34 $-1 $99 reversed single #
loop $-1 $-1 $100 $44 #
plane-surface $-1 -15.765264594243595 -146.43999711396248 94.624265062560269 -1 0 0 0 -0.77714596973225614 0.62932038083071107 forward_v I I I I #
face $-1 $101 $102 $35 $-1 $103 forward single #
loop $-1 $104 $105 $45 #
cone-surface $-1 -32.88188912578623 -33.888404459418943 7.0121507759867701 0 0.77714596973225614 -0.62932038083071107 1 0 0 1 I I 0 1 1 forward I I I I #
face $-1 $106 $107 $36 $-1 $108 forward single #
loop $-1 $109 $110 $46 #
cone-surface $-1 -22.611914406860649 -33.888404459418943 7.0121507759867701 0 0.77714596973225614 -0.62932038083071107 1 0 0 1 I I 0 1 1 forward I I I I #
face $-1 $111 $112 $37 $-1 $113 reversed single #
loop $-1 $-1 $114 $47 #
plane-surface $-1 50.539252263410305 -146.43999711396248 94.624265062560269 -1 0 0 0 -0.77714596973225614 0.62932038083071107 forward_v I I I I #
face $-1 $115 $116 $38 $-1 $117 forward single #
loop $-1 $118 $119 $48 #
cone-surface $-1 33.422627731867664 -33.888404459418943 7.0121507759867701 0 0.77714596973225614 -0.62932038083071107 1 0 0 1 I I 0 1 1 forward I I I I #
face $-1 $120 $121 $39 $-1 $122 forward single #
loop $-1 $123 $124 $49 #
cone-surface $-1 43.692602450793245 -33.888404459418943 7.0121507759867701 0 0.77714596973225614 -0.62932038083071107 1 0 0 1 I I 0 1 1 forward I I I I #
face $-1 $125 $126 $30 $-1 $127 reversed single #
loop $-1 $-1 $128 $50 #
plane-surface $-1 0 0 -9.8592090977862927 0 0 1 1 0 0 forward_v I I I I #
coedge $-1 $129 $130 $131 $132 forward $51 $-1 #
face $-1 $133 $134 $31 $-1 $135 forward single #
loop $-1 $-1 $136 $53 #
plane-surface $-1 0 36.497808765524489 0 0 -1 0 0 0 -1 forward_v I I I I #
coedge $-1 $137 $138 $139 $140 forward $54 $-1 #
face $-1 $141 $142 $32 $-1 $143 reversed single #
loop $-1 $-1 $144 $56 #
plane-surface $-1 53.327697214740567 -12.345792383210238 54.610764525911549 0 0.74314483375859142 0.66913059716165679 1 0 0 forward_v I I I I #
coedge $-1 $145 $146 $147 $148 reversed $57 $-1 #
face $-1 $-1 $149 $33 $-1 $150 forward single #
loop $-1 $151 $152 $59 #
cone-surface $-1 53.327697214740567 28.253477915780742 1.5374314402636227 0 -0.74314483375859142 -0.66913059716165679 1.5 0 0 1 I I -0.70710678118654757 0.70710678118654757 1.5 forward I I I I #
loop $-1 $-1 $153 $43 #
coedge $-1 $96 $96 $154 $155 reversed $60 $-1 #
face $-1 $156 $157 $34 $-1 $158 reversed single #
loop $-1 $-1 $159 $62 #
plane-surface $-1 -27.74690176632344 -36.497808765524468 5.5948387571805256 0 -0.77714596973225614 0.62932038083071107 1 0 0 forward_v I I I I #
coedge $-1 $160 $161 $162 $163 reversed $63 $-1 #
face $-1 $-1 $164 $35 $-1 $165 forward single #
loop $-1 $166 $167 $65 #
cone-surface $-1 -32.88188912578623 -32.617036628750967 5.9826174340747773 0 0.77714596973225614 -0.62932038083071107 0.5 0 0 1 I I -0.70710678118654746 0.70710678118654746 0.5 forward I I I I #
loop $-1 $-1 $168 $45 #
coedge $-1 $105 $105 $169 $170 reversed $66 $-1 #
face $-1 $-1 $171 $36 $-1 $172 forward single #
loop $-1 $173 $174 $68 #
cone-surface $-1 -22.611914406860649 -32.617036628750967 5.9826174340747773 0 0.77714596973225614 -0.62932038083071107 0.5 0 0 1 I I -0.70710678118654746 0.70710678118654746 0.5 forward I I I I #
loop $-1 $-1 $175 $46 #
coedge $-1 $110 $110 $176 $177 reversed $69 $-1 #
face $-1 $178 $179 $37 $-1 $180 reversed single #
loop $-1 $-1 $181 $71 #
plane-surface $-1 38.557615091330462 -36.497808765524468 5.5948387571805256 0 -0.77714596973225614 0.62932038083071107 1 0 0 forward_v I I I I #
coedge $-1 $182 $183 $184 $185 reversed $72 $-1 #
face $-1 $-1 $186 $38 $-1 $187 forward single #
loop $-1 $188 $189 $74 #
cone-surface $-1 33.422627731867664 -32.617036628750967 5.9826174340747773 0 0.77714596973225614 -0.62932038083071107 0.5 0 0 1 I I -0.70710678118654746 0.70710678118654746 0.5 forward I I I I #
loop $-1 $-1 $190 $48 #
coedge $-1 $119 $119 $191 $192 reversed $75 $-1 #
face $-1 $-1 $193 $39 $-1 $194 forward single #
loop $-1 $195 $196 $77 #
cone-surface $-1 43.692602450793245 -32.617036628750967 5.9826174340747773 0 0.77714596973225614 -0.62932038083071107 0.5 0 0 1 I I -0.70710678118654746 0.70710678118654746 0.5 forward I I I I #
loop $-1 $-1 $197 $49 #
coedge $-1 $124 $124 $198 $199 reversed $78 $-1 #
face $-1 $200 $201 $30 $-1 $202 reversed single #
loop $-1 $-1 $203 $80 #
plane-surface $-1 0 -36.497808765524489 0 0 1 0 0 0 1 forward_v I I I I #
coedge $-1 $204 $205 $206 $207 forward $81 $-1 #
coedge $-1 $208 $83 $209 $210 forward $51 $-1 #
coedge $-1 $83 $208 $211 $212 forward $51 $-1 #
coedge $-1 $213 $214 $83 $132 reversed $215 $-1 #
edge $-1 $216 -36.497808765524489 $217 36.497808765524489 $131 $218 forward 7 unknown #
face $-1 $219 $220 $31 $-1 $221 reversed single #
loop $-1 $-1 $139 $84 #
plane-surface $-1 -75.164644188520626 0 -5.1760020320370774 0 0 1 1 0 0 forward_v I I I I #
coedge $-1 $222 $223 $138 $224 forward $85 $-1 #
coedge $-1 $225 $87 $226 $227 reversed $54 $-1 #
coedge $-1 $87 $225 $136 $224 reversed $54 $-1 #
coedge $-1 $228 $229 $87 $140 reversed $134 $-1 #
edge $-1 $230 -36.497808765524489 $231 36.497808765524489 $139 $232 forward 7 unknown #
face $-1 $233 $234 $32 $-1 $235 reversed single #
loop $-1 $-1 $236 $88 #
plane-surface $-1 70.73458052308726 0 0 -1 0 0 0 0 1 forward_v I I I I #
coedge $-1 $237 $238 $239 $240 reversed $89 $-1 #
coedge $-1 $146 $91 $241 $242 reversed $57 $-1 #
coedge $-1 $91 $145 $237 $243 reversed $57 $-1 #
coedge $-1 $239 $244 $91 $148 forward $245 $-1 #
edge $-1 $246 9.8953331266837736 $247 18.444453782182819 $147 $248 forward 7 unknown #
loop $-1 $-1 $154 $92 #
plane-surface $-1 53.327697214740567 -12.345792383210238 54.610764525911549 0 0.74314483375859142 0.66913059716165679 1 0 0 forward_v I I I I #
loop $-1 $-1 $249 $59 #
coedge $-1 $152 $152 $153 $250 reversed $93 $-1 #
coedge $-1 $153 $153 $152 $250 forward $95 $-1 #
coedge $-1 $154 $154 $96 $155 forward $149 $-1 #
edge $-1 $251 -7.4591784958648532e-016 $251 6.2831853071795996 $154 $252 forward 7 unknown #
face $-1 $253 $254 $34 $-1 $255 forward single #
loop $-1 $-1 $256 $97 #
plane-surface $-1 -39.728538938403283 -146.43999711396248 94.624265062560269 1 0 0 0 0.77714596973225614 -0.62932038083071107 forward_v I I I I #
coedge $-1 $257 $258 $259 $260 reversed $98 $-1 #
coedge $-1 $161 $100 $261 $262 reversed $63 $-1 #
coedge $-1 $100 $160 $257 $263 reversed $63 $-1 #
coedge $-1 $259 $264 $100 $163 forward $254 $-1 #
edge $-1 $265 36.722189791456749 $266 40.175408712064169 $162 $267 forward 7 unknown #
loop $-1 $-1 $169 $101 #
plane-surface $-1 -27.74690176632344 -36.497808765524468 5.5948387571805256 0 -0.77714596973225614 0.62932038083071107 1 0 0 forward_v I I I I #
loop $-1 $-1 $268 $65 #
coedge $-1 $167 $167 $168 $269 reversed $102 $-1 #
coedge $-1 $168 $168 $167 $269 forward $104 $-1 #
coedge $-1 $169 $169 $105 $170 forward $164 $-1 #
edge $-1 $270 -1.350493429296548e-015 $270 6.2831853071795987 $169 $271 forward 7 unknown #
loop $-1 $-1 $176 $106 #
plane-surface $-1 -27.74690176632344 -36.497808765524468 5.5948387571805256 0 -0.77714596973225614 0.62932038083071107 1 0 0 forward_v I I I I #
loop $-1 $-1 $272 $68 #
coedge $-1 $174 $174 $175 $273 reversed $107 $-1 #
coedge $-1 $175 $175 $174 $273 forward $109 $-1 #
coedge $-1 $176 $176 $110 $177 forward $171 $-1 #
edge $-1 $274 -1.350493429296548e-015 $274 6.2831853071795987 $176 $275 forward 7 unknown #
face $-1 $276 $277 $37 $-1 $278 reversed single #
loop $-1 $-1 $279 $111 #
plane-surface $-1 26.575977919250619 -146.43999711396248 94.624265062560269 1 0 0 0 0.77714596973225614 -0.62932038083071107 forward_v I I I I #
coedge $-1 $280 $281 $282 $283 reversed $112 $-1 #
coedge $-1 $183 $114 $284 $285 reversed $72 $-1 #
coedge $-1 $114 $182 $280 $286 reversed $72 $-1 #
coedge $-1 $282 $287 $114 $185 forward $288 $-1 #
edge $-1 $289 36.722189791456749 $290 40.175408712064169 $184 $291 forward 7 unknown #
loop $-1 $-1 $191 $115 #
plane-surface $-1 38.557615091330462 -36.497808765524468 5.5948387571805256 0 -0.77714596973225614 0.62932038083071107 1 0 0 forward_v I I I I #
loop $-1 $-1 $292 $74 #
coedge $-1 $189 $189 $190 $293 reversed $116 $-1 #
coedge $-1 $190 $190 $189 $293 forward $118 $-1 #
coedge $-1 $191 $191 $119 $192 forward $186 $-1 #
edge $-1 $294 -1.350493429296548e-015 $294 6.2831853071795987 $191 $295 forward 7 unknown #
loop $-1 $-1 $198 $120 #
plane-surface $-1 38.557615091330462 -36.497808765524468 5.5948387571805256 0 -0.77714596973225614 0.62932038083071107 1 0 0 forward_v I I I I #
loop $-1 $-1 $296 $77 #
coedge $-1 $196 $196 $197 $297 reversed $121 $-1 #
coedge $-1 $197 $197 $196 $297 forward $123 $-1 #
coedge $-1 $198 $198 $124 $199 forward $193 $-1 #
edge $-1 $298 -1.350493429296548e-015 $298 6.2831853071795987 $198 $299 forward 7 unknown #
face $-1 $300 $301 $30 $-1 $302 reversed single #
loop $-1 $-1 $303 $125 #
plane-surface $-1 -70.73458052308726 0 0 1 0 0 0 0 -1 forward_v I I I I #
coedge $-1 $304 $211 $305 $306 forward $126 $-1 #
coedge $-1 $307 $128 $304 $308 forward $81 $-1 #
coedge $-1 $128 $307 $309 $310 forward $81 $-1 #
coedge $-1 $214 $213 $128 $207 reversed $215 $-1 #
edge $-1 $311 -36.497808765524489 $312 36.497808765524489 $206 $313 forward 7 unknown #
coedge $-1 $130 $129 $314 $315 forward $51 $-1 #
coedge $-1 $316 $317 $129 $210 reversed $301 $-1 #
edge $-1 $217 -70.73458052308726 $318 70.73458052308726 $209 $319 forward 7 unknown #
coedge $-1 $203 $320 $130 $212 reversed $126 $-1 #
edge $-1 $321 -70.73458052308726 $216 70.73458052308726 $211 $322 forward 7 unknown #
coedge $-1 $206 $131 $320 $323 forward $215 $-1 #
coedge $-1 $131 $206 $316 $324 reversed $215 $-1 #
loop $-1 $-1 $213 $300 #
vertex $-1 $132 $325 #
vertex $-1 $132 $326 #
straight-curve $-1 70.73458052308726 0 9.8592090977862927 0 1 0 I I #
face $-1 $327 $328 $31 $-1 $329 reversed single #
loop $-1 $-1 $330 $133 #
plane-surface $-1 -79.594707853953992 0 -7.5176055649116851 1 0 0 0 0 -1 forward_v I I I I #
coedge $-1 $331 $136 $332 $333 reversed $85 $-1 #
coedge $-1 $136 $331 $228 $334 reversed $85 $-1 #
edge $-1 $230 5.1760020320370774 $335 9.8592090977862927 $136 $336 forward 7 unknown #
coedge $-1 $138 $137 $337 $338 reversed $54 $-1 #
coedge $-1 $339 $340 $137 $227 forward $341 $-1 #
edge $-1 $342 -9.8592090977862927 $231 -5.1760020320370774 $226 $343 forward 7 unknown #
coedge $-1 $344 $139 $223 $334 forward $134 $-1 #
coedge $-1 $139 $344 $339 $345 forward $134 $-1 #
vertex $-1 $224 $346 #
vertex $-1 $345 $347 #
straight-curve $-1 -70.73458052308726 0 -5.1760020320370774 0 -1 0 I I #
face $-1 $-1 $245 $32 $-1 $348 forward single #
loop $-1 $-1 $349 $141 #
plane-surface $-1 0 36.497808765524489 0 0 -1 0 0 0 -1 forward_v I I I I #
coedge $-1 $350 $351 $238 $352 forward $142 $-1 #
coedge $-1 $353 $144 $146 $243 forward $89 $-1 #
coedge $-1 $144 $353 $236 $352 reversed $89 $-1 #
coedge $-1 $354 $147 $144 $240 forward $245 $-1 #
edge $-1 $247 9.2569652990235909 $355 44.070731915716976 $239 $356 forward 7 unknown #
coedge $-1 $357 $349 $145 $242 forward $234 $-1 #
edge $-1 $358 -74.271605897654041 $246 -64.776845270562163 $241 $359 forward 7 unknown #
edge $-1 $247 60.219157013830056 $358 72.995617531048993 $146 $360 forward 7 unknown #
coedge $-1 $147 $354 $357 $361 forward $245 $-1 #
loop $-1 $-1 $239 $233 #
vertex $-1 $242 $362 #
vertex $-1 $148 $363 #
straight-curve $-1 35.920813906393875 46.393141892208263 9.859209097786291 0 -1 0 I I #
coedge $-1 $249 $249 $-1 $364 reversed $151 $-1 #
edge $-1 $365 0 $365 6.2831853071796004 $152 $366 forward 7 unknown #
vertex $-1 $155 $367 #
ellipse-curve $-1 53.327697214740567 32.22324843777497 5.1118287842403554 0 0.74314483375859142 0.66913059716165679 3 0 0 1 I I #
face $-1 $-1 $368 $34 $-1 $369 reversed single #
loop $-1 $-1 $162 $156 #
plane-surface $-1 0 0 9.8592090977862927 0 0 1 1 0 0 forward_v I I I I #
coedge $-1 $370 $371 $372 $373 reversed $157 $-1 #
coedge $-1 $374 $159 $161 $263 forward $98 $-1 #
coedge $-1 $159 $374 $370 $375 forward $98 $-1 #
coedge $-1 $372 $162 $159 $260 forward $254 $-1 #
edge $-1 $266 1.8918137110818751 $376 25.855088055241563 $259 $377 forward 7 unknown #
coedge $-1 $378 $379 $160 $262 forward $368 $-1 #
edge $-1 $380 -41.717293774099637 $265 -37.452923433493844 $261 $381 forward 7 unknown #
edge $-1 $266 -5.4872192698560047 $380 3.4122099130144743e-014 $161 $382 forward 7 unknown #
coedge $-1 $162 $372 $378 $383 forward $254 $-1 #
vertex $-1 $262 $384 #
vertex $-1 $163 $385 #
straight-curve $-1 -15.765264594243595 -73.219998556981238 9.859209097786291 0 1 0 I I #
coedge $-1 $268 $268 $-1 $386 reversed $166 $-1 #
edge $-1 $387 0 $387 6.2831853071796004 $167 $388 forward 7 unknown #
vertex $-1 $170 $389 #
ellipse-curve $-1 -32.88188912578623 -34.771199305220776 7.7270239274833967 0 -0.77714596973225614 0.62932038083071107 1 0 0 1 I I #
coedge $-1 $272 $272 $-1 $390 reversed $173 $-1 #
edge $-1 $391 0 $391 6.2831853071796004 $174 $392 forward 7 unknown #
vertex $-1 $177 $393 #
ellipse-curve $-1 -22.611914406860649 -34.771199305220776 7.7270239274833967 0 -0.77714596973225614 0.62932038083071107 1 0 0 1 I I #
face $-1 $-1 $288 $37 $-1 $394 forward single #
loop $-1 $-1 $395 $178 #
plane-surface $-1 0 -36.497808765524489 0 0 1 0 0 0 1 forward_v I I I I #
coedge $-1 $396 $397 $398 $399 reversed $179 $-1 #
coedge $-1 $400 $181 $183 $286 forward $112 $-1 #
coedge $-1 $181 $400 $396 $401 forward $112 $-1 #
coedge $-1 $398 $184 $181 $283 forward $288 $-1 #
edge $-1 $290 -31.260444717745074 $402 -7.2971703735853879 $282 $403 forward 7 unknown #
coedge $-1 $404 $405 $182 $285 forward $277 $-1 #
edge $-1 $406 -41.717293774099637 $289 -37.452923433493844 $284 $407 forward 7 unknown #
edge $-1 $290 -5.4872192698560047 $406 3.4122099130144743e-014 $183 $408 forward 7 unknown #
coedge $-1 $184 $398 $404 $409 forward $288 $-1 #
loop $-1 $-1 $398 $276 #
vertex $-1 $285 $410 #
vertex $-1 $185 $411 #
straight-curve $-1 50.539252263410305 -73.219998556981238 9.859209097786291 0 1 0 I I #
coedge $-1 $292 $292 $-1 $412 reversed $188 $-1 #
edge $-1 $413 0 $413 6.2831853071796004 $189 $414 forward 7 unknown #
vertex $-1 $192 $415 #
ellipse-curve $-1 33.422627731867664 -34.771199305220776 7.7270239274833967 0 -0.77714596973225614 0.62932038083071107 1 0 0 1 I I #
coedge $-1 $296 $296 $-1 $416 reversed $195 $-1 #
edge $-1 $417 0 $417 6.2831853071796004 $196 $418 forward 7 unknown #
vertex $-1 $199 $419 #
ellipse-curve $-1 43.692602450793245 -34.771199305220776 7.7270239274833967 0 -0.77714596973225614 0.62932038083071107 1 0 0 1 I I #
face $-1 $-1 $215 $30 $-1 $420 reversed single #
loop $-1 $-1 $316 $200 #
plane-surface $-1 0 36.497808765524489 0 0 -1 0 0 0 -1 forward_v I I I I #
coedge $-1 $421 $314 $317 $422 forward $201 $-1 #
coedge $-1 $320 $203 $204 $308 reversed $126 $-1 #
coedge $-1 $314 $421 $203 $306 reversed $201 $-1 #
edge $-1 $321 -9.8592090977862927 $423 9.8592090977862927 $305 $424 forward 7 unknown #
coedge $-1 $205 $204 $421 $425 forward $81 $-1 #
edge $-1 $312 -70.73458052308726 $423 70.73458052308726 $304 $426 forward 7 unknown #
coedge $-1 $317 $316 $205 $310 reversed $301 $-1 #
edge $-1 $427 -70.73458052308726 $311 70.73458052308726 $309 $428 forward 7 unknown #
vertex $-1 $207 $429 #
vertex $-1 $323 $430 #
straight-curve $-1 70.73458052308726 0 -9.8592090977862927 0 -1 0 I I #
coedge $-1 $303 $305 $208 $315 reversed $201 $-1 #
edge $-1 $318 -36.497808765524489 $321 36.497808765524489 $314 $431 forward 7 unknown #
coedge $-1 $309 $209 $214 $324 forward $301 $-1 #
coedge $-1 $209 $309 $303 $422 reversed $301 $-1 #
vertex $-1 $210 $432 #
straight-curve $-1 0 36.497808765524489 9.8592090977862927 -1 0 0 I I #
coedge $-1 $211 $304 $213 $323 reversed $126 $-1 #
vertex $-1 $315 $433 #
straight-curve $-1 0 -36.497808765524489 9.8592090977862927 1 0 0 I I #
edge $-1 $216 -9.8592090977862927 $312 9.8592090977862927 $213 $434 forward 7 unknown #
edge $-1 $217 -9.8592090977862927 $311 9.8592090977862927 $214 $435 forward 7 unknown #
point $-1 70.73458052308726 -36.497808765524489 9.8592090977862927 #
point $-1 70.73458052308726 36.497808765524489 9.8592090977862927 #
face $-1 $-1 $341 $31 $-1 $436 reversed single #
loop $-1 $-1 $337 $219 #
plane-surface $-1 0 0 -9.8592090977862927 0 0 1 1 0 0 forward_v I I I I #
coedge $-1 $437 $438 $331 $439 forward $220 $-1 #
coedge $-1 $223 $222 $330 $439 reversed $85 $-1 #
coedge $-1 $337 $440 $222 $333 forward $328 $-1 #
edge $-1 $441 -79.594707853953992 $335 -70.73458052308726 $222 $442 forward 7 unknown #
edge $-1 $230 -4.4300636654333658 $443 4.4300636654333658 $223 $444 forward 7 unknown #
vertex $-1 $224 $445 #
straight-curve $-1 -70.73458052308726 36.497808765524489 0 0 0 -1 I I #
coedge $-1 $446 $332 $225 $338 forward $328 $-1 #
edge $-1 $335 -36.497808765524489 $342 36.497808765524489 $337 $447 forward 7 unknown #
coedge $-1 $448 $226 $229 $345 reversed $341 $-1 #
coedge $-1 $226 $448 $446 $449 reversed $341 $-1 #
loop $-1 $-1 $226 $327 #
vertex $-1 $449 $450 #
straight-curve $-1 -70.73458052308726 -36.497808765524489 0 0 0 1 I I #
coedge $-1 $229 $228 $438 $451 forward $134 $-1 #
edge $-1 $452 -4.4300636654333658 $231 4.4300636654333658 $339 $453 forward 7 unknown #
point $-1 -70.73458052308726 36.497808765524489 -5.1760020320370774 #
point $-1 -70.73458052308726 -36.497808765524489 -5.1760020320370774 #
plane-surface $-1 0 0 9.8592090977862927 0 0 1 1 0 0 forward_v I I I I #
coedge $-1 $241 $454 $353 $455 forward $234 $-1 #
coedge $-1 $351 $236 $454 $456 reversed $142 $-1 #
coedge $-1 $236 $350 $354 $457 reversed $142 $-1 #
edge $-1 $355 35.796829536405347 $458 48.573290053624291 $236 $459 forward 7 unknown #
coedge $-1 $238 $237 $349 $455 reversed $89 $-1 #
coedge $-1 $244 $239 $351 $457 forward $245 $-1 #
vertex $-1 $457 $460 #
straight-curve $-1 26.663848607370284 27.94868811002544 9.859209097786291 1 0 0 I I #
coedge $-1 $454 $241 $244 $361 reversed $234 $-1 #
vertex $-1 $242 $461 #
straight-curve $-1 35.920813906393875 36.497808765524489 74.636054368348454 0 0 1 I I #
straight-curve $-1 35.920813906393875 -12.345792383210238 54.610764525911549 0 0.66913059716165679 -0.74314483375859142 I I #
edge $-1 $462 -70.73458052308726 $246 -35.920813906393875 $357 $463 forward 7 unknown #
point $-1 35.920813906393875 36.497808765524489 9.8592090977862927 #
point $-1 35.920813906393875 27.948688110025444 9.859209097786291 #
edge $-1 $464 1 $464 0 $249 $-1 forward 7 unknown #
vertex $-1 $250 $465 #
ellipse-curve $-1 53.327697214740567 29.36819516641863 2.5411273360061077 0 0.74314483375859142 0.66913059716165679 3 0 0 1 I I #
point $-1 56.327697214740567 32.223248437774991 5.1118287842403776 #
loop $-1 $-1 $261 $253 #
plane-surface $-1 0 -36.497808765524489 0 0 1 0 0 0 1 forward_v I I I I #
coedge $-1 $371 $256 $258 $375 reversed $157 $-1 #
coedge $-1 $256 $370 $466 $467 reversed $157 $-1 #
coedge $-1 $264 $259 $256 $373 forward $254 $-1 #
edge $-1 $376 -40.175408712064169 $468 -36.722189791456749 $372 $469 forward 7 unknown #
coedge $-1 $258 $257 $379 $470 reversed $98 $-1 #
edge $-1 $471 -3.4122099130144743e-014 $376 5.4872192698560047 $370 $472 forward 7 unknown #
vertex $-1 $260 $473 #
straight-curve $-1 -13.87345088316172 -33.04458984491707 9.8592090977862927 -1 0 0 I I #
coedge $-1 $466 $261 $264 $383 reversed $368 $-1 #
coedge $-1 $261 $466 $374 $470 forward $368 $-1 #
vertex $-1 $262 $474 #
straight-curve $-1 -15.765264594243595 -36.497808765524489 47.312132531280135 0 0 1 I I #
straight-curve $-1 -15.765264594243595 -36.497808765524468 5.5948387571805256 0 -0.62932038083071107 -0.77714596973225614 I I #
edge $-1 $468 -39.728538938403283 $265 -15.765264594243595 $378 $475 forward 7 unknown #
point $-1 -15.765264594243595 -36.497808765524489 9.8592090977862927 #
point $-1 -15.765264594243595 -33.04458984491707 9.8592090977862927 #
edge $-1 $476 1 $476 0 $268 $-1 forward 7 unknown #
vertex $-1 $269 $477 #
ellipse-curve $-1 -32.88188912578623 -33.005609613617096 6.2972776244901327 0 -0.77714596973225614 0.62932038083071107 1 0 0 1 I I #
point $-1 -31.88188912578623 -34.77119930522079 7.7270239274834065 #
edge $-1 $478 1 $478 0 $272 $-1 forward 7 unknown #
vertex $-1 $273 $479 #
ellipse-curve $-1 -22.611914406860649 -33.005609613617096 6.2972776244901327 0 -0.77714596973225614 0.62932038083071107 1 0 0 1 I I #
point $-1 -21.611914406860649 -34.77119930522079 7.7270239274834065 #
plane-surface $-1 0 0 9.8592090977862927 0 0 1 1 0 0 forward_v I I I I #
coedge $-1 $405 $404 $397 $480 forward $277 $-1 #
coedge $-1 $397 $279 $281 $401 reversed $179 $-1 #
coedge $-1 $279 $396 $395 $480 reversed $179 $-1 #
coedge $-1 $287 $282 $279 $399 forward $288 $-1 #
edge $-1 $402 -40.175408712064169 $481 -36.722189791456749 $398 $482 forward 7 unknown #
coedge $-1 $281 $280 $405 $483 reversed $112 $-1 #
edge $-1 $484 -3.4122099130144743e-014 $402 5.4872192698560047 $396 $485 forward 7 unknown #
vertex $-1 $283 $486 #
straight-curve $-1 19.278807545665231 -33.04458984491707 9.8592090977862927 -1 0 0 I I #
coedge $-1 $395 $284 $287 $409 reversed $277 $-1 #
coedge $-1 $284 $395 $400 $483 forward $277 $-1 #
vertex $-1 $285 $487 #
straight-curve $-1 50.539252263410305 -36.497808765524489 47.312132531280135 0 0 1 I I #
straight-curve $-1 50.539252263410305 -36.497808765524468 5.5948387571805256 0 -0.62932038083071107 -0.77714596973225614 I I #
edge $-1 $481 26.575977919250619 $289 50.539252263410305 $404 $488 forward 7 unknown #
point $-1 50.539252263410305 -36.497808765524489 9.8592090977862927 #
point $-1 50.539252263410305 -33.04458984491707 9.8592090977862927 #
edge $-1 $489 1 $489 0 $292 $-1 forward 7 unknown #
vertex $-1 $293 $490 #
ellipse-curve $-1 33.422627731867664 -33.005609613617096 6.2972776244901327 0 -0.77714596973225614 0.62932038083071107 1 0 0 1 I I #
point $-1 34.422627731867664 -34.77119930522079 7.7270239274834065 #
edge $-1 $491 1 $491 0 $296 $-1 forward 7 unknown #
vertex $-1 $297 $492 #
ellipse-curve $-1 43.692602450793245 -33.005609613617096 6.2972776244901327 0 -0.77714596973225614 0.62932038083071107 1 0 0 1 I I #
point $-1 44.692602450793245 -34.77119930522079 7.7270239274834065 #
plane-surface $-1 70.73458052308726 0 0 -1 0 0 0 0 1 forward_v I I I I #
coedge $-1 $305 $303 $307 $425 reversed $201 $-1 #
edge $-1 $318 -9.8592090977862927 $427 9.8592090977862927 $317 $493 forward 7 unknown #
vertex $-1 $425 $494 #
straight-curve $-1 -70.73458052308726 -36.497808765524489 0 0 0 -1 I I #
edge $-1 $423 -36.497808765524489 $427 36.497808765524489 $421 $495 forward 7 unknown #
straight-curve $-1 0 -36.497808765524489 -9.8592090977862927 -1 0 0 I I #
vertex $-1 $310 $496 #
straight-curve $-1 0 36.497808765524489 -9.8592090977862927 1 0 0 I I #
point $-1 70.73458052308726 36.497808765524489 -9.8592090977862927 #
point $-1 70.73458052308726 -36.497808765524489 -9.8592090977862927 #
straight-curve $-1 -70.73458052308726 0 9.8592090977862927 0 -1 0 I I #
point $-1 -70.73458052308726 36.497808765524489 9.8592090977862927 #
point $-1 -70.73458052308726 -36.497808765524489 9.8592090977862927 #
straight-curve $-1 70.73458052308726 -36.497808765524489 0 0 0 -1 I I #
straight-curve $-1 70.73458052308726 36.497808765524489 0 0 0 -1 I I #
plane-surface $-1 0 -36.497808765524489 0 0 1 0 0 0 1 forward_v I I I I #
coedge $-1 $497 $330 $440 $498 reversed $220 $-1 #
coedge $-1 $330 $497 $344 $451 reversed $220 $-1 #
edge $-1 $443 -2.3416035328746077 $441 2.3416035328746077 $331 $499 forward 7 unknown #
coedge $-1 $332 $446 $437 $498 forward $328 $-1 #
vertex $-1 $333 $500 #
straight-curve $-1 0 36.497808765524489 -9.8592090977862927 1 0 0 I I #
vertex $-1 $334 $501 #
straight-curve $-1 -75.164644188520626 36.497808765524489 -5.1760020320370774 -1 0 0 I I #
point $-1 -70.73458052308726 36.497808765524489 -9.8592090977862927 #
coedge $-1 $440 $337 $340 $449 forward $328 $-1 #
straight-curve $-1 -70.73458052308726 0 -9.8592090977862927 0 -1 0 I I #
coedge $-1 $340 $339 $497 $502 forward $341 $-1 #
edge $-1 $342 -4.4300636654333658 $503 4.4300636654333658 $340 $504 forward 7 unknown #
point $-1 -70.73458052308726 -36.497808765524489 -9.8592090977862927 #
edge $-1 $443 -36.497808765524489 $452 36.497808765524489 $438 $505 forward 7 unknown #
vertex $-1 $451 $506 #
straight-curve $-1 -75.164644188520626 -36.497808765524489 -5.1760020320370774 1 0 0 I I #
coedge $-1 $349 $357 $350 $456 forward $234 $-1 #
edge $-1 $458 -44.070731915716976 $358 -9.2569652990235909 $349 $507 forward 7 unknown #
edge $-1 $462 -9.8592090977862927 $458 -0.36444847069441266 $350 $508 forward 7 unknown #
edge $-1 $355 27.948688110025444 $462 36.497808765524489 $351 $509 forward 7 unknown #
vertex $-1 $352 $510 #
straight-curve $-1 70.73458052308726 3.9959341858364983 36.46143803270288 0 0.66913059716165679 -0.74314483375859142 I I #
point $-1 70.73458052308726 27.948688110025444 9.859209097786291 #
point $-1 35.920813906393875 36.497808765524489 0.36444847069441266 #
vertex $-1 $457 $511 #
straight-curve $-1 0 36.497808765524489 9.8592090977862927 -1 0 0 I I #
vertex $-1 $364 $512 #
point $-1 56.327697214740567 29.36819516641863 2.5411273360061077 #
coedge $-1 $379 $378 $371 $467 forward $368 $-1 #
edge $-1 $468 37.452923433493844 $471 41.717293774099637 $466 $513 forward 7 unknown #
vertex $-1 $383 $514 #
straight-curve $-1 -39.728538938403283 -73.219998556981238 9.859209097786291 0 -1 0 I I #
edge $-1 $471 -25.855088055241563 $380 -1.8918137110818751 $379 $515 forward 7 unknown #
vertex $-1 $470 $516 #
straight-curve $-1 -39.728538938403283 -36.497808765524468 5.5948387571805256 0 0.62932038083071107 0.77714596973225614 I I #
point $-1 -39.728538938403283 -33.04458984491707 9.8592090977862927 #
point $-1 -15.765264594243595 -36.497808765524489 5.5948387571804989 #
straight-curve $-1 0 -36.497808765524489 9.8592090977862927 1 0 0 I I #
vertex $-1 $386 $517 #
point $-1 -31.88188912578623 -33.005609613617096 6.2972776244901327 #
vertex $-1 $390 $518 #
point $-1 -21.611914406860649 -33.005609613617096 6.2972776244901327 #
edge $-1 $481 37.452923433493844 $484 41.717293774099637 $395 $519 forward 7 unknown #
vertex $-1 $409 $520 #
straight-curve $-1 26.575977919250619 -73.219998556981238 9.859209097786291 0 -1 0 I I #
edge $-1 $484 7.2971703735853879 $406 31.260444717745074 $405 $521 forward 7 unknown #
vertex $-1 $483 $522 #
straight-curve $-1 26.575977919250619 -36.497808765524468 5.5948387571805256 0 0.62932038083071107 0.77714596973225614 I I #
point $-1 26.575977919250619 -33.04458984491707 9.8592090977862927 #
point $-1 50.539252263410305 -36.497808765524489 5.5948387571804989 #
straight-curve $-1 0 -36.497808765524489 9.8592090977862927 1 0 0 I I #
vertex $-1 $412 $523 #
point $-1 34.422627731867664 -33.005609613617096 6.2972776244901327 #
vertex $-1 $416 $524 #
point $-1 44.692602450793245 -33.005609613617096 6.2972776244901327 #
straight-curve $-1 -70.73458052308726 36.497808765524489 0 0 0 -1 I I #
point $-1 -70.73458052308726 -36.497808765524489 -9.8592090977862927 #
straight-curve $-1 -70.73458052308726 0 -9.8592090977862927 0 1 0 I I #
point $-1 -70.73458052308726 36.497808765524489 -9.8592090977862927 #
coedge $-1 $438 $437 $448 $502 reversed $220 $-1 #
edge $-1 $503 -36.497808765524489 $441 36.497808765524489 $437 $525 forward 7 unknown #
straight-curve $-1 -79.594707853953992 36.497808765524489 -7.5176055649116851 0 0 -1 I I #
point $-1 -79.594707853953992 36.497808765524489 -9.8592090977862927 #
point $-1 -79.594707853953992 36.497808765524489 -5.1760020320370774 #
edge $-1 $452 -2.3416035328746077 $503 2.3416035328746077 $497 $526 forward 7 unknown #
vertex $-1 $498 $527 #
straight-curve $-1 -75.164644188520626 -36.497808765524489 -9.8592090977862927 -1 0 0 I I #
straight-curve $-1 -79.594707853953992 0 -5.1760020320370774 0 -1 0 I I #
point $-1 -79.594707853953992 -36.497808765524489 -5.1760020320370774 #
straight-curve $-1 26.663848607370284 36.497808765524496 0.36444847069440556 -1 0 0 I I #
straight-curve $-1 70.73458052308726 36.497808765524489 0 0 0 -1 I I #
straight-curve $-1 70.73458052308726 0 9.8592090977862927 0 1 0 I I #
point $-1 70.73458052308726 36.497808765524489 0.36444847069441266 #
point $-1 70.73458052308726 36.497808765524489 9.8592090977862927 #
point $-1 53.327697214740567 27.138760665142854 0.53373554452113758 #
straight-curve $-1 -39.728538938403283 -36.497808765524489 47.312132531280135 0 0 -1 I I #
point $-1 -39.728538938403283 -36.497808765524489 9.8592090977862927 #
straight-curve $-1 -13.87345088316172 -36.497808765524489 5.5948387571805043 1 0 0 I I #
point $-1 -39.728538938403283 -36.497808765524489 5.5948387571804989 #
point $-1 -32.88188912578623 -32.228463643884837 5.6679572436594219 #
point $-1 -22.611914406860649 -32.228463643884837 5.6679572436594219 #
straight-curve $-1 26.575977919250619 -36.497808765524489 47.312132531280135 0 0 -1 I I #
point $-1 26.575977919250619 -36.497808765524489 9.8592090977862927 #
straight-curve $-1 19.278807545665231 -36.497808765524489 5.5948387571805043 1 0 0 I I #
point $-1 26.575977919250619 -36.497808765524489 5.5948387571804989 #
point $-1 33.422627731867664 -32.228463643884837 5.6679572436594219 #
point $-1 43.692602450793245 -32.228463643884837 5.6679572436594219 #
straight-curve $-1 -79.594707853953992 0 -9.8592090977862927 0 1 0 I I #
straight-curve $-1 -79.594707853953992 -36.497808765524489 -7.5176055649116851 0 0 -1 I I #
point $-1 -79.594707853953992 -36.497808765524489 -9.8592090977862927 #
End-of-ACIS-data 