500 0 9 0           
7 Unknown 11 ACIS 5.0 NT 24 Fri Mar 26 14:44:05 1999 
-1 9.9999999999999995e-007 1e-010 
body $-1 $9 $-1 $10 #
body $-1 $11 $-1 $12 #
body $-1 $13 $-1 $14 #
body $-1 $15 $-1 $16 #
body $-1 $17 $-1 $18 #
body $-1 $19 $-1 $20 #
body $-1 $21 $-1 $22 #
body $-1 $23 $-1 $24 #
body $-1 $25 $-1 $26 #
lump $-1 $-1 $27 $0 #
transform $-1 1 0 0 0 1 0 0 0 1 54.575640125736257 31.160596893837152 7.0680263787882698 1 rotate no_reflect no_shear #
lump $-1 $-1 $28 $1 #
transform $-1 1 0 0 0 1 0 0 0 1 54.575640125736257 31.160596893837152 7.0680263787882698 1 rotate no_reflect no_shear #
lump $-1 $-1 $29 $2 #
transform $-1 1 0 0 0 1 0 0 0 1 54.575640125736257 31.160596893837152 7.0680263787882698 1 rotate no_reflect no_shear #
lump $-1 $-1 $30 $3 #
transform $-1 1 0 0 0 1 0 0 0 1 54.575640125736257 31.160596893837152 7.0680263787882698 1 rotate no_reflect no_shear #
lump $-1 $-1 $31 $4 #
transform $-1 1 0 0 0 1 0 0 0 1 54.575640125736257 31.160596893837152 7.0680263787882698 1 rotate no_reflect no_shear #
lump $-1 $-1 $32 $5 #
transform $-1 1 0 0 0 1 0 0 0 1 54.575640125736257 31.160596893837152 7.0680263787882698 1 rotate no_reflect no_shear #
lump $-1 $-1 $33 $6 #
transform $-1 1 0 0 0 1 0 0 0 1 54.575640125736257 31.160596893837152 7.0680263787882698 1 rotate no_reflect no_shear #
lump $-1 $-1 $34 $7 #
transform $-1 1 0 0 0 1 0 0 0 1 54.575640125736257 31.160596893837152 7.0680263787882698 1 rotate no_reflect no_shear #
lump $-1 $-1 $35 $8 #
transform $-1 1 0 0 0 1 0 0 0 1 54.575640125736257 31.160596893837152 7.0680263787882698 1 rotate no_reflect no_shear #
shell $-1 $-1 $-1 $36 $-1 $9 #
shell $-1 $-1 $-1 $37 $-1 $11 #
shell $-1 $-1 $-1 $38 $-1 $13 #
shell $-1 $-1 $-1 $39 $-1 $15 #
shell $-1 $-1 $-1 $40 $-1 $17 #
shell $-1 $-1 $-1 $41 $-1 $19 #
shell $-1 $-1 $-1 $42 $-1 $21 #
shell $-1 $-1 $-1 $43 $-1 $23 #
shell $-1 $-1 $-1 $44 $-1 $25 #
face $-1 $45 $46 $27 $-1 $47 forward single #
face $-1 $48 $49 $28 $-1 $50 reversed single #
face $-1 $51 $52 $29 $-1 $53 reversed single #
face $-1 $54 $55 $30 $-1 $56 reversed single #
face $-1 $57 $58 $31 $-1 $59 forward single #
face $-1 $60 $61 $32 $-1 $62 forward single #
face $-1 $63 $64 $33 $-1 $65 reversed single #
face $-1 $66 $67 $34 $-1 $68 forward single #
face $-1 $69 $70 $35 $-1 $71 forward single #
face $-1 $72 $73 $27 $-1 $74 reversed single #
loop $-1 $-1 $75 $36 #
plane-surface $-1 0 0 7.0680263787882698 0 0 1 1 0 0 forward_v I I I I #
face $-1 $76 $77 $28 $-1 $78 reversed single #
loop $-1 $-1 $79 $37 #
plane-surface $-1 -53.461253181795904 -26.52609456416268 0 1 0 0 0 0 -1 forward_v I I I I #
face $-1 $80 $81 $29 $-1 $82 reversed single #
loop $-1 $-1 $83 $38 #
plane-surface $-1 -51.961253181795904 21.891592234488204 0 0 1 0 0 0 1 forward_v I I I I #
face $-1 $84 $85 $30 $-1 $86 reversed single #
loop $-1 $-1 $87 $39 #
plane-surface $-1 -126.18532393141838 6.3787267126363467 85.853594836774462 0 1 0 -0.6560590369687036 0 0.75470957328743171 forward_v I I I I #
face $-1 $88 $89 $31 $-1 $90 forward single #
loop $-1 $91 $92 $40 #
cone-surface $-1 -52.091780664556296 9.2278538428900347 4.7913964884357814 0.6560590369687036 0 -0.75470957328743171 0.75470957328743171 0 0.6560590369687036 1 I I 0 1 1 forward I I I I #
face $-1 $93 $94 $32 $-1 $95 forward single #
loop $-1 $96 $97 $41 #
cone-surface $-1 -52.091780664556296 13.501544538270572 4.7913964884357814 0.6560590369687036 0 -0.75470957328743171 0.75470957328743171 0 0.6560590369687036 1 I I 0 1 1 forward I I I I #
face $-1 $98 $99 $33 $-1 $100 reversed single #
loop $-1 $-1 $101 $42 #
plane-surface $-1 51.881632206875452 21.891592234488208 155.19609804713184 0 -1 0 -0.69465837861970381 0 -0.71933979245794832 forward_v I I I I #
face $-1 $102 $103 $34 $-1 $104 forward single #
loop $-1 $105 $106 $43 #
cone-surface $-1 50.044564994951365 15.857982023023119 2.6005829605977517 -0.69465837861970381 0 -0.71933979245794832 0.71933979245794832 0 -0.69465837861970381 1 I I 0 1 1 forward I I I I #
face $-1 $107 $108 $35 $-1 $109 forward single #
loop $-1 $110 $111 $44 #
cone-surface $-1 50.044564994951365 19.478148149902168 2.6005829605977517 -0.69465837861970381 0 -0.71933979245794832 0.71933979245794832 0 -0.69465837861970381 1 I I 0 1 1 forward I I I I #
face $-1 $112 $113 $27 $-1 $114 reversed single #
loop $-1 $-1 $115 $45 #
plane-surface $-1 0 0 -7.0680263787882698 0 0 1 1 0 0 forward_v I I I I #
coedge $-1 $116 $117 $118 $119 forward $46 $-1 #
face $-1 $120 $121 $28 $-1 $122 reversed single #
loop $-1 $-1 $123 $48 #
plane-surface $-1 -51.961253181795904 -21.891592234488208 0 0 -1 0 0 0 -1 forward_v I I I I #
coedge $-1 $124 $125 $126 $127 forward $49 $-1 #
face $-1 $128 $129 $29 $-1 $130 reversed single #
loop $-1 $-1 $131 $51 #
plane-surface $-1 -53.461253181795904 26.526094564162676 0 1 0 0 0 0 -1 forward_v I I I I #
coedge $-1 $132 $133 $134 $135 forward $52 $-1 #
face $-1 $136 $137 $30 $-1 $138 reversed single #
loop $-1 $-1 $139 $54 #
plane-surface $-1 -54.575640125736243 11.364699190580311 3.4760786944087698 -0.6560590369687036 0 0.75470957328743171 0.75470957328743171 0 0.6560590369687036 forward_v I I I I #
coedge $-1 $140 $141 $142 $143 reversed $55 $-1 #
face $-1 $-1 $144 $31 $-1 $145 forward single #
loop $-1 $146 $147 $57 #
cone-surface $-1 -51.3459232090322 9.2278538428900347 3.9333856536293172 0.6560590369687036 0 -0.75470957328743171 0.37735478664371586 0 0.3280295184843518 1 I I -0.70710678118654746 0.70710678118654746 0.5 forward I I I I #
loop $-1 $-1 $148 $40 #
coedge $-1 $92 $92 $149 $150 reversed $58 $-1 #
face $-1 $-1 $151 $32 $-1 $152 forward single #
loop $-1 $153 $154 $60 #
cone-surface $-1 -51.3459232090322 13.501544538270572 3.9333856536293172 0.6560590369687036 0 -0.75470957328743171 0.37735478664371586 0 0.3280295184843518 1 I I -0.70710678118654746 0.70710678118654746 0.5 forward I I I I #
loop $-1 $-1 $155 $41 #
coedge $-1 $97 $97 $156 $157 reversed $61 $-1 #
face $-1 $158 $159 $33 $-1 $160 reversed single #
loop $-1 $-1 $161 $63 #
plane-surface $-1 -23.941219156877338 17.668065086462647 76.679238764518246 0.69465837861970381 0 0.71933979245794832 0.71933979245794832 0 -0.69465837861970381 forward_v I I I I #
coedge $-1 $162 $163 $164 $165 reversed $64 $-1 #
face $-1 $-1 $166 $34 $-1 $167 forward single #
loop $-1 $168 $169 $66 #
cone-surface $-1 48.382330831871911 15.857982023023119 0.879289135189671 -0.69465837861970381 0 -0.71933979245794832 0.35966989622897416 0 -0.3473291893098519 1 I I -0.70710678118654746 0.70710678118654746 0.5 forward I I I I #
loop $-1 $-1 $170 $43 #
coedge $-1 $106 $106 $171 $172 reversed $67 $-1 #
face $-1 $-1 $173 $35 $-1 $174 forward single #
loop $-1 $175 $176 $69 #
cone-surface $-1 48.382330831871911 19.478148149902168 0.879289135189671 -0.69465837861970381 0 -0.71933979245794832 0.35966989622897416 0 -0.3473291893098519 1 I I -0.70710678118654746 0.70710678118654746 0.5 forward I I I I #
loop $-1 $-1 $177 $44 #
coedge $-1 $111 $111 $178 $179 reversed $70 $-1 #
face $-1 $180 $181 $27 $-1 $182 reversed single #
loop $-1 $-1 $183 $72 #
plane-surface $-1 0 -31.160596893837152 0 0 1 0 0 0 1 forward_v I I I I #
coedge $-1 $184 $185 $186 $187 forward $73 $-1 #
coedge $-1 $188 $75 $189 $190 forward $46 $-1 #
coedge $-1 $75 $188 $191 $192 forward $46 $-1 #
coedge $-1 $193 $194 $75 $119 reversed $195 $-1 #
edge $-1 $196 -31.160596893837152 $197 31.160596893837152 $118 $198 forward 7 unknown #
face $-1 $199 $200 $28 $-1 $201 forward single #
loop $-1 $-1 $202 $76 #
plane-surface $-1 -50.461253181795904 -26.52609456416268 0 -1 0 0 0 0 1 forward_v I I I I #
coedge $-1 $203 $204 $205 $206 forward $77 $-1 #
coedge $-1 $207 $79 $208 $209 reversed $49 $-1 #
coedge $-1 $79 $207 $210 $211 reversed $49 $-1 #
coedge $-1 $204 $203 $79 $127 reversed $77 $-1 #
edge $-1 $212 -7.0680263787882698 $213 7.0680263787882698 $126 $214 forward 7 unknown #
face $-1 $215 $216 $29 $-1 $217 reversed single #
loop $-1 $-1 $218 $80 #
plane-surface $-1 -50.461253181795904 26.526094564162676 0 -1 0 0 0 0 1 forward_v I I I I #
coedge $-1 $219 $220 $221 $222 reversed $81 $-1 #
coedge $-1 $223 $83 $224 $225 reversed $52 $-1 #
coedge $-1 $83 $223 $226 $227 reversed $52 $-1 #
coedge $-1 $220 $219 $83 $135 reversed $81 $-1 #
edge $-1 $228 -7.0680263787882698 $229 7.0680263787882698 $134 $230 forward 7 unknown #
face $-1 $231 $232 $30 $-1 $233 reversed single #
loop $-1 $-1 $234 $84 #
plane-surface $-1 -126.18532393141838 16.350671668524274 85.853594836774462 0 -1 0 0.6560590369687036 0 -0.75470957328743171 forward_v I I I I #
coedge $-1 $235 $236 $237 $238 reversed $85 $-1 #
coedge $-1 $141 $87 $239 $240 reversed $55 $-1 #
coedge $-1 $87 $140 $235 $241 reversed $55 $-1 #
coedge $-1 $237 $242 $87 $143 forward $243 $-1 #
edge $-1 $244 8.5170218399729336 $245 12.649084888253384 $142 $246 forward 7 unknown #
loop $-1 $-1 $149 $88 #
plane-surface $-1 -54.575640125736243 11.364699190580311 3.4760786944087698 -0.6560590369687036 0 0.75470957328743171 0.75470957328743171 0 0.6560590369687036 forward_v I I I I #
loop $-1 $-1 $247 $57 #
coedge $-1 $147 $147 $148 $248 reversed $89 $-1 #
coedge $-1 $148 $148 $147 $248 forward $91 $-1 #
coedge $-1 $149 $149 $92 $150 forward $144 $-1 #
edge $-1 $249 0 $249 6.2831853071796004 $149 $250 forward 7 unknown #
loop $-1 $-1 $156 $93 #
plane-surface $-1 -54.575640125736243 11.364699190580311 3.4760786944087698 -0.6560590369687036 0 0.75470957328743171 0.75470957328743171 0 0.6560590369687036 forward_v I I I I #
loop $-1 $-1 $251 $60 #
coedge $-1 $154 $154 $155 $252 reversed $94 $-1 #
coedge $-1 $155 $155 $154 $252 forward $96 $-1 #
coedge $-1 $156 $156 $97 $157 forward $151 $-1 #
edge $-1 $253 0 $253 6.2831853071796004 $156 $254 forward 7 unknown #
face $-1 $255 $256 $33 $-1 $257 forward single #
loop $-1 $-1 $258 $98 #
plane-surface $-1 51.881632206875452 13.444537938437087 155.19609804713184 0 1 0 0.69465837861970381 0 0.71933979245794832 forward_v I I I I #
coedge $-1 $259 $260 $261 $262 reversed $99 $-1 #
coedge $-1 $163 $101 $263 $264 reversed $64 $-1 #
coedge $-1 $101 $162 $259 $265 reversed $64 $-1 #
coedge $-1 $261 $266 $101 $165 forward $256 $-1 #
edge $-1 $267 -28.634824022298531 $268 -22.202483708267948 $164 $269 forward 7 unknown #
loop $-1 $-1 $171 $102 #
plane-surface $-1 -23.941219156877338 17.668065086462647 76.679238764518246 0.69465837861970381 0 0.71933979245794832 0.71933979245794832 0 -0.69465837861970381 forward_v I I I I #
loop $-1 $-1 $270 $66 #
coedge $-1 $169 $169 $170 $271 reversed $103 $-1 #
coedge $-1 $170 $170 $169 $271 forward $105 $-1 #
coedge $-1 $171 $171 $106 $172 forward $166 $-1 #
edge $-1 $272 0 $272 6.2831853071796004 $171 $273 forward 7 unknown #
loop $-1 $-1 $178 $107 #
plane-surface $-1 -23.941219156877338 17.668065086462647 76.679238764518246 0.69465837861970381 0 0.71933979245794832 0.71933979245794832 0 -0.69465837861970381 forward_v I I I I #
loop $-1 $-1 $274 $69 #
coedge $-1 $176 $176 $177 $275 reversed $108 $-1 #
coedge $-1 $177 $177 $176 $275 forward $110 $-1 #
coedge $-1 $178 $178 $111 $179 forward $173 $-1 #
edge $-1 $276 0 $276 6.2831853071796004 $178 $277 forward 7 unknown #
face $-1 $278 $279 $27 $-1 $280 reversed single #
loop $-1 $-1 $281 $112 #
plane-surface $-1 -54.575640125736257 0 0 1 0 0 0 0 -1 forward_v I I I I #
coedge $-1 $282 $191 $283 $284 forward $113 $-1 #
coedge $-1 $285 $115 $282 $286 forward $73 $-1 #
coedge $-1 $115 $285 $287 $288 forward $73 $-1 #
coedge $-1 $194 $193 $115 $187 reversed $195 $-1 #
edge $-1 $289 -31.160596893837152 $290 31.160596893837152 $186 $291 forward 7 unknown #
coedge $-1 $117 $116 $292 $293 forward $46 $-1 #
coedge $-1 $294 $295 $116 $190 reversed $279 $-1 #
edge $-1 $197 -54.575640125736257 $296 54.575640125736257 $189 $297 forward 7 unknown #
coedge $-1 $183 $298 $117 $192 reversed $113 $-1 #
edge $-1 $299 -54.575640125736257 $196 54.575640125736257 $191 $300 forward 7 unknown #
coedge $-1 $186 $118 $298 $301 forward $195 $-1 #
coedge $-1 $118 $186 $294 $302 reversed $195 $-1 #
loop $-1 $-1 $193 $278 #
vertex $-1 $119 $303 #
vertex $-1 $119 $304 #
straight-curve $-1 54.575640125736257 0 7.0680263787882698 0 1 0 I I #
face $-1 $305 $306 $28 $-1 $307 reversed single #
loop $-1 $-1 $308 $120 #
plane-surface $-1 0 0 7.0680263787882698 0 0 1 1 0 0 forward_v I I I I #
coedge $-1 $309 $310 $311 $312 reversed $121 $-1 #
coedge $-1 $126 $123 $313 $314 reversed $77 $-1 #
coedge $-1 $123 $126 $315 $316 reversed $77 $-1 #
coedge $-1 $310 $309 $123 $206 reversed $121 $-1 #
edge $-1 $317 -7.0680263787882698 $318 7.0680263787882698 $205 $319 forward 7 unknown #
coedge $-1 $125 $124 $320 $321 reversed $49 $-1 #
coedge $-1 $313 $322 $124 $209 forward $306 $-1 #
edge $-1 $323 -17.897549611755814 $213 -8.6285449524068678 $208 $324 forward 7 unknown #
coedge $-1 $325 $315 $125 $211 forward $200 $-1 #
edge $-1 $212 8.6285449524068678 $326 17.897549611755814 $210 $327 forward 7 unknown #
vertex $-1 $211 $328 #
vertex $-1 $209 $329 #
straight-curve $-1 -53.461253181795904 -21.891592234488208 0 0 0 -1 I I #
face $-1 $330 $331 $29 $-1 $332 forward single #
loop $-1 $-1 $333 $128 #
plane-surface $-1 0 0 -7.0680263787882698 0 0 1 1 0 0 forward_v I I I I #
coedge $-1 $334 $335 $223 $336 forward $129 $-1 #
coedge $-1 $134 $131 $337 $338 reversed $81 $-1 #
coedge $-1 $131 $134 $339 $340 reversed $81 $-1 #
coedge $-1 $341 $342 $131 $222 forward $343 $-1 #
edge $-1 $344 -7.0680263787882698 $345 7.0680263787882698 $221 $346 forward 7 unknown #
coedge $-1 $133 $132 $218 $336 reversed $52 $-1 #
coedge $-1 $337 $333 $132 $225 forward $216 $-1 #
edge $-1 $347 24.480626590897952 $229 27.480626590897952 $224 $348 forward 7 unknown #
coedge $-1 $349 $339 $133 $227 forward $331 $-1 #
edge $-1 $228 -27.480626590897952 $350 -24.480626590897952 $226 $351 forward 7 unknown #
vertex $-1 $227 $352 #
vertex $-1 $225 $353 #
straight-curve $-1 -53.461253181795904 21.891592234488204 0 0 0 -1 I I #
face $-1 $-1 $243 $30 $-1 $354 forward single #
loop $-1 $-1 $355 $136 #
plane-surface $-1 -54.575640125736257 0 0 1 0 0 0 0 -1 forward_v I I I I #
coedge $-1 $356 $357 $358 $359 reversed $137 $-1 #
coedge $-1 $360 $139 $141 $241 forward $85 $-1 #
coedge $-1 $139 $360 $356 $361 forward $85 $-1 #
coedge $-1 $358 $142 $139 $238 forward $243 $-1 #
edge $-1 $245 0.69637711734619145 $362 10.668322073234119 $237 $363 forward 7 unknown #
coedge $-1 $364 $365 $140 $240 forward $232 $-1 #
edge $-1 $366 -39.450718723978476 $244 -35.858771039598963 $239 $367 forward 7 unknown #
edge $-1 $245 -5.475037278620472 $366 1.888283279974768e-014 $141 $368 forward 7 unknown #
coedge $-1 $142 $358 $364 $369 forward $243 $-1 #
loop $-1 $-1 $358 $231 #
vertex $-1 $240 $370 #
vertex $-1 $143 $371 #
straight-curve $-1 -63.09266196570919 6.3787267126363467 7.068026378788268 1 0 0 I I #
coedge $-1 $247 $247 $-1 $372 reversed $146 $-1 #
edge $-1 $373 0 $373 6.2831853071796004 $147 $374 forward 7 unknown #
vertex $-1 $150 $375 #
ellipse-curve $-1 -52.509608601596028 9.2278538428900347 5.2720525365985136 -0.6560590369687036 0 0.75470957328743171 0.75470957328743171 0 0.6560590369687036 1 I I #
coedge $-1 $251 $251 $-1 $376 reversed $153 $-1 #
edge $-1 $377 0 $377 6.2831853071796004 $154 $378 forward 7 unknown #
vertex $-1 $157 $379 #
ellipse-curve $-1 -52.509608601596028 13.501544538270572 5.2720525365985136 -0.6560590369687036 0 0.75470957328743171 0.75470957328743171 0 0.6560590369687036 1 I I #
face $-1 $-1 $380 $33 $-1 $381 reversed single #
loop $-1 $-1 $164 $158 #
plane-surface $-1 0 0 7.0680263787882698 0 0 1 1 0 0 forward_v I I I I #
coedge $-1 $382 $383 $384 $385 reversed $159 $-1 #
coedge $-1 $386 $161 $163 $265 forward $99 $-1 #
coedge $-1 $161 $386 $382 $387 forward $99 $-1 #
coedge $-1 $384 $164 $161 $262 forward $256 $-1 #
edge $-1 $268 -13.057559691256884 $388 -4.6105053952057631 $261 $389 forward 7 unknown #
coedge $-1 $390 $391 $162 $264 forward $380 $-1 #
edge $-1 $392 -76.741661622800464 $267 -70.530022644777645 $263 $393 forward 7 unknown #
edge $-1 $268 100.20927484391456 $392 109.15128025147251 $163 $394 forward 7 unknown #
coedge $-1 $164 $384 $390 $395 forward $256 $-1 #
vertex $-1 $165 $396 #
vertex $-1 $165 $397 #
straight-curve $-1 25.940816103437726 21.891592234488208 7.0680263787882751 -1 0 0 I I #
coedge $-1 $270 $270 $-1 $398 reversed $168 $-1 #
edge $-1 $399 0 $399 6.2831853071796004 $169 $400 forward 7 unknown #
vertex $-1 $172 $401 #
ellipse-curve $-1 51.359469968720965 15.857982023023119 3.9622068897768603 0.69465837861970381 0 0.71933979245794832 0.71933979245794832 0 -0.69465837861970381 1 I I #
coedge $-1 $274 $274 $-1 $402 reversed $175 $-1 #
edge $-1 $403 0 $403 6.2831853071796004 $176 $404 forward 7 unknown #
vertex $-1 $179 $405 #
ellipse-curve $-1 51.359469968720965 19.478148149902168 3.9622068897768603 0.69465837861970381 0 0.71933979245794832 0.71933979245794832 0 -0.69465837861970381 1 I I #
face $-1 $-1 $195 $27 $-1 $406 reversed single #
loop $-1 $-1 $294 $180 #
plane-surface $-1 0 31.160596893837152 0 0 -1 0 0 0 -1 forward_v I I I I #
coedge $-1 $407 $292 $295 $408 forward $181 $-1 #
coedge $-1 $298 $183 $184 $286 reversed $113 $-1 #
coedge $-1 $292 $407 $183 $284 reversed $181 $-1 #
edge $-1 $299 -7.0680263787882698 $409 7.0680263787882698 $283 $410 forward 7 unknown #
coedge $-1 $185 $184 $407 $411 forward $73 $-1 #
edge $-1 $290 -54.575640125736257 $409 54.575640125736257 $282 $412 forward 7 unknown #
coedge $-1 $295 $294 $185 $288 reversed $279 $-1 #
edge $-1 $413 -54.575640125736257 $289 54.575640125736257 $287 $414 forward 7 unknown #
vertex $-1 $187 $415 #
vertex $-1 $301 $416 #
straight-curve $-1 54.575640125736257 0 -7.0680263787882698 0 -1 0 I I #
coedge $-1 $281 $283 $188 $293 reversed $181 $-1 #
edge $-1 $296 -31.160596893837152 $299 31.160596893837152 $292 $417 forward 7 unknown #
coedge $-1 $287 $189 $194 $302 forward $279 $-1 #
coedge $-1 $189 $287 $281 $408 reversed $279 $-1 #
vertex $-1 $190 $418 #
straight-curve $-1 0 31.160596893837152 7.0680263787882698 -1 0 0 I I #
coedge $-1 $191 $282 $193 $301 reversed $113 $-1 #
vertex $-1 $293 $419 #
straight-curve $-1 0 -31.160596893837152 7.0680263787882698 1 0 0 I I #
edge $-1 $196 -7.0680263787882698 $290 7.0680263787882698 $193 $420 forward 7 unknown #
edge $-1 $197 -7.0680263787882698 $289 7.0680263787882698 $194 $421 forward 7 unknown #
point $-1 54.575640125736257 -31.160596893837152 7.0680263787882698 #
point $-1 54.575640125736257 31.160596893837152 7.0680263787882698 #
face $-1 $-1 $422 $28 $-1 $423 reversed single #
loop $-1 $-1 $424 $199 #
plane-surface $-1 0 0 -7.0680263787882698 0 0 1 1 0 0 forward_v I I I I #
coedge $-1 $315 $325 $310 $425 forward $200 $-1 #
coedge $-1 $205 $202 $424 $426 reversed $121 $-1 #
coedge $-1 $202 $205 $308 $425 reversed $121 $-1 #
coedge $-1 $427 $428 $202 $312 forward $422 $-1 #
edge $-1 $429 -7.0680263787882698 $430 7.0680263787882698 $311 $431 forward 7 unknown #
coedge $-1 $424 $208 $203 $314 forward $306 $-1 #
edge $-1 $213 -27.480626590897952 $318 -24.480626590897952 $313 $432 forward 7 unknown #
coedge $-1 $210 $308 $204 $316 forward $200 $-1 #
edge $-1 $317 24.480626590897952 $212 27.480626590897952 $315 $433 forward 7 unknown #
vertex $-1 $316 $434 #
vertex $-1 $314 $435 #
straight-curve $-1 -50.461253181795904 -21.891592234488208 0 0 0 -1 I I #
coedge $-1 $428 $427 $207 $321 forward $422 $-1 #
edge $-1 $326 -7.0680263787882698 $323 7.0680263787882698 $320 $436 forward 7 unknown #
coedge $-1 $208 $424 $428 $437 forward $306 $-1 #
vertex $-1 $209 $438 #
straight-curve $-1 -53.461253181795904 -13.26304728208134 -7.0680263787882698 0 1 0 I I #
coedge $-1 $308 $210 $427 $439 forward $200 $-1 #
vertex $-1 $439 $440 #
straight-curve $-1 -53.461253181795904 -13.26304728208134 7.0680263787882698 0 -1 0 I I #
point $-1 -53.461253181795904 -21.891592234488208 7.0680263787882698 #
point $-1 -53.461253181795904 -21.891592234488208 -7.0680263787882698 #
face $-1 $-1 $343 $29 $-1 $441 reversed single #
loop $-1 $-1 $349 $215 #
plane-surface $-1 0 0 7.0680263787882698 0 0 1 1 0 0 forward_v I I I I #
coedge $-1 $224 $442 $334 $443 forward $216 $-1 #
coedge $-1 $444 $218 $333 $443 reversed $129 $-1 #
coedge $-1 $218 $444 $349 $445 reversed $129 $-1 #
edge $-1 $350 -7.0680263787882698 $347 7.0680263787882698 $218 $446 forward 7 unknown #
coedge $-1 $442 $224 $219 $338 forward $216 $-1 #
edge $-1 $229 8.628544952406866 $344 17.89754961175581 $337 $447 forward 7 unknown #
coedge $-1 $226 $448 $220 $340 forward $331 $-1 #
edge $-1 $345 -17.89754961175581 $228 -8.628544952406866 $339 $449 forward 7 unknown #
coedge $-1 $450 $221 $448 $451 reversed $343 $-1 #
coedge $-1 $221 $450 $442 $452 reversed $343 $-1 #
loop $-1 $-1 $450 $330 #
vertex $-1 $452 $453 #
vertex $-1 $222 $454 #
straight-curve $-1 -53.461253181795904 31.160596893837152 0 0 0 1 I I #
vertex $-1 $225 $455 #
straight-curve $-1 -25.980626590897952 21.891592234488204 -7.0680263787882698 -1 0 0 I I #
coedge $-1 $448 $226 $335 $445 forward $331 $-1 #
vertex $-1 $227 $456 #
straight-curve $-1 -25.980626590897952 21.891592234488204 7.0680263787882698 1 0 0 I I #
point $-1 -53.461253181795904 21.891592234488204 7.0680263787882698 #
point $-1 -53.461253181795904 21.891592234488204 -7.0680263787882698 #
plane-surface $-1 0 0 7.0680263787882698 0 0 1 1 0 0 forward_v I I I I #
coedge $-1 $365 $364 $357 $457 forward $232 $-1 #
coedge $-1 $357 $234 $236 $361 reversed $137 $-1 #
coedge $-1 $234 $356 $355 $457 reversed $137 $-1 #
coedge $-1 $242 $237 $234 $359 forward $243 $-1 #
edge $-1 $362 -12.649084888253384 $458 -8.5170218399729336 $358 $459 forward 7 unknown #
coedge $-1 $236 $235 $365 $460 reversed $85 $-1 #
edge $-1 $461 -1.888283279974768e-014 $362 5.475037278620472 $356 $462 forward 7 unknown #
vertex $-1 $238 $463 #
straight-curve $-1 -50.443577077455807 5.6823495952901553 7.0680263787882716 0 1 0 I I #
coedge $-1 $355 $239 $242 $369 reversed $232 $-1 #
coedge $-1 $239 $355 $360 $460 forward $232 $-1 #
vertex $-1 $240 $464 #
straight-curve $-1 -54.575640125736257 6.3787267126363467 42.926797418387231 0 0 1 I I #
straight-curve $-1 -54.575640125736243 6.3787267126363467 3.4760786944087698 -0.75470957328743171 0 -0.6560590369687036 I I #
edge $-1 $458 -16.350671668524274 $244 -6.3787267126363467 $364 $465 forward 7 unknown #
point $-1 -54.575640125736257 6.3787267126363467 7.0680263787882698 #
point $-1 -50.443577077455807 6.3787267126363467 7.0680263787882698 #
edge $-1 $466 1 $466 0 $247 $-1 forward 7 unknown #
vertex $-1 $248 $467 #
ellipse-curve $-1 -51.67395272751655 9.2278538428900347 4.3107404402730332 -0.6560590369687036 0 0.75470957328743171 0.75470957328743171 0 0.6560590369687036 1 I I #
point $-1 -51.754899028308614 9.2278538428900347 5.9281115735672323 #
edge $-1 $468 1 $468 0 $251 $-1 forward 7 unknown #
vertex $-1 $252 $469 #
ellipse-curve $-1 -51.67395272751655 13.501544538270572 4.3107404402730332 -0.6560590369687036 0 0.75470957328743171 0.75470957328743171 0 0.6560590369687036 1 I I #
point $-1 -51.754899028308614 13.501544538270572 5.9281115735672323 #
loop $-1 $-1 $263 $255 #
plane-surface $-1 54.575640125736257 0 0 -1 0 0 0 0 1 forward_v I I I I #
coedge $-1 $383 $258 $260 $387 reversed $159 $-1 #
coedge $-1 $258 $382 $470 $471 reversed $159 $-1 #
coedge $-1 $266 $261 $258 $385 forward $256 $-1 #
edge $-1 $388 22.202483708267948 $472 28.634824022298531 $384 $473 forward 7 unknown #
coedge $-1 $260 $259 $391 $474 reversed $99 $-1 #
edge $-1 $475 -109.15128025147251 $388 -100.20927484391456 $382 $476 forward 7 unknown #
vertex $-1 $262 $477 #
straight-curve $-1 48.143299811705681 8.8340325432313236 7.068026378788268 0 -1 0 I I #
coedge $-1 $470 $263 $266 $395 reversed $380 $-1 #
coedge $-1 $263 $470 $386 $474 forward $380 $-1 #
vertex $-1 $264 $478 #
straight-curve $-1 54.575640125736257 21.891592234488208 77.59804902356592 0 0 1 I I #
straight-curve $-1 -23.941219156877338 21.891592234488208 76.679238764518246 0.71933979245794832 0 -0.69465837861970381 I I #
edge $-1 $472 13.444537938437087 $267 21.891592234488208 $390 $479 forward 7 unknown #
point $-1 54.575640125736257 21.891592234488208 7.0680263787882698 #
point $-1 48.143299811705674 21.891592234488208 7.0680263787882751 #
edge $-1 $480 1 $480 0 $270 $-1 forward 7 unknown #
vertex $-1 $271 $481 #
ellipse-curve $-1 48.729660021181765 15.857982023023119 1.2389590314186452 0.69465837861970381 0 0.71933979245794832 0.71933979245794832 0 -0.69465837861970381 1 I I #
point $-1 52.07880976117891 15.857982023023119 3.2675485111571536 #
edge $-1 $482 1 $482 0 $274 $-1 forward 7 unknown #
vertex $-1 $275 $483 #
ellipse-curve $-1 48.729660021181765 19.478148149902168 1.2389590314186452 0.69465837861970381 0 0.71933979245794832 0.71933979245794832 0 -0.69465837861970381 1 I I #
point $-1 52.07880976117891 19.478148149902168 3.2675485111571536 #
plane-surface $-1 54.575640125736257 0 0 -1 0 0 0 0 1 forward_v I I I I #
coedge $-1 $283 $281 $285 $411 reversed $181 $-1 #
edge $-1 $296 -7.0680263787882698 $413 7.0680263787882698 $295 $484 forward 7 unknown #
vertex $-1 $411 $485 #
straight-curve $-1 -54.575640125736257 -31.160596893837152 0 0 0 -1 I I #
edge $-1 $409 -31.160596893837152 $413 31.160596893837152 $407 $486 forward 7 unknown #
straight-curve $-1 0 -31.160596893837152 -7.0680263787882698 -1 0 0 I I #
vertex $-1 $288 $487 #
straight-curve $-1 0 31.160596893837152 -7.0680263787882698 1 0 0 I I #
point $-1 54.575640125736257 31.160596893837152 -7.0680263787882698 #
point $-1 54.575640125736257 -31.160596893837152 -7.0680263787882698 #
straight-curve $-1 -54.575640125736257 0 7.0680263787882698 0 -1 0 I I #
point $-1 -54.575640125736257 31.160596893837152 7.0680263787882698 #
point $-1 -54.575640125736257 -31.160596893837152 7.0680263787882698 #
straight-curve $-1 54.575640125736257 -31.160596893837152 0 0 0 -1 I I #
straight-curve $-1 54.575640125736257 31.160596893837152 0 0 0 -1 I I #
loop $-1 $-1 $311 $305 #
plane-surface $-1 0 -31.160596893837152 0 0 1 0 0 0 1 forward_v I I I I #
coedge $-1 $322 $313 $309 $426 forward $306 $-1 #
edge $-1 $430 -17.897549611755814 $317 -8.6285449524068678 $308 $488 forward 7 unknown #
edge $-1 $318 8.6285449524068678 $429 17.897549611755814 $424 $489 forward 7 unknown #
coedge $-1 $320 $311 $325 $439 reversed $422 $-1 #
coedge $-1 $311 $320 $322 $437 reversed $422 $-1 #
vertex $-1 $437 $490 #
vertex $-1 $312 $491 #
straight-curve $-1 -50.461253181795904 -31.160596893837152 0 0 0 1 I I #
straight-curve $-1 -25.980626590897952 -21.891592234488208 -7.0680263787882698 1 0 0 I I #
straight-curve $-1 -25.980626590897952 -21.891592234488208 7.0680263787882698 -1 0 0 I I #
point $-1 -50.461253181795904 -21.891592234488208 7.0680263787882698 #
point $-1 -50.461253181795904 -21.891592234488208 -7.0680263787882698 #
straight-curve $-1 -53.461253181795904 -31.160596893837152 0 0 0 -1 I I #
edge $-1 $429 50.461253181795904 $323 53.461253181795904 $428 $492 forward 7 unknown #
point $-1 -53.461253181795904 -31.160596893837152 -7.0680263787882698 #
edge $-1 $326 -53.461253181795904 $430 -50.461253181795904 $427 $493 forward 7 unknown #
point $-1 -53.461253181795904 -31.160596893837152 7.0680263787882698 #
plane-surface $-1 0 31.160596893837152 0 0 -1 0 0 0 -1 forward_v I I I I #
coedge $-1 $333 $337 $342 $452 forward $216 $-1 #
edge $-1 $494 -17.89754961175581 $347 -8.628544952406866 $333 $495 forward 7 unknown #
coedge $-1 $335 $334 $450 $496 reversed $129 $-1 #
edge $-1 $350 8.628544952406866 $497 17.89754961175581 $349 $498 forward 7 unknown #
straight-curve $-1 -50.461253181795904 21.891592234488204 0 0 0 -1 I I #
straight-curve $-1 -53.461253181795904 13.263047282081338 -7.0680263787882698 0 1 0 I I #
coedge $-1 $339 $349 $341 $451 forward $331 $-1 #
straight-curve $-1 -53.461253181795904 13.263047282081338 7.0680263787882698 0 -1 0 I I #
coedge $-1 $342 $341 $444 $496 forward $343 $-1 #
edge $-1 $497 50.461253181795904 $345 53.461253181795904 $341 $499 forward 7 unknown #
edge $-1 $344 -53.461253181795904 $494 -50.461253181795904 $342 $500 forward 7 unknown #
point $-1 -53.461253181795904 31.160596893837148 -7.0680263787882698 #
point $-1 -53.461253181795904 31.160596893837148 7.0680263787882698 #
point $-1 -50.461253181795904 21.891592234488204 -7.0680263787882698 #
point $-1 -50.461253181795904 21.891592234488204 7.0680263787882698 #
edge $-1 $458 35.858771039598963 $461 39.450718723978476 $355 $501 forward 7 unknown #
vertex $-1 $369 $502 #
straight-curve $-1 -63.09266196570919 16.350671668524274 7.068026378788268 -1 0 0 I I #
edge $-1 $461 -10.668322073234119 $366 -0.69637711734619145 $365 $503 forward 7 unknown #
vertex $-1 $460 $504 #
straight-curve $-1 -54.575640125736243 16.350671668524274 3.4760786944087698 0.75470957328743171 0 0.6560590369687036 I I #
point $-1 -50.443577077455807 16.350671668524274 7.0680263787882698 #
point $-1 -54.575640125736257 6.3787267126363467 3.4760786944087574 #
straight-curve $-1 -54.575640125736257 0 7.0680263787882698 0 -1 0 I I #
vertex $-1 $372 $505 #
point $-1 -50.919243154229122 9.2278538428900347 4.9667994772417368 #
vertex $-1 $376 $506 #
point $-1 -50.919243154229122 13.501544538270572 4.9667994772417368 #
coedge $-1 $391 $390 $383 $471 forward $380 $-1 #
edge $-1 $472 70.530022644777645 $475 76.741661622800464 $470 $507 forward 7 unknown #
vertex $-1 $395 $508 #
straight-curve $-1 25.940816103437726 13.444537938437087 7.0680263787882751 1 0 0 I I #
edge $-1 $475 4.6105053952057631 $392 13.057559691256884 $391 $509 forward 7 unknown #
vertex $-1 $474 $510 #
straight-curve $-1 -23.941219156877338 13.444537938437087 76.679238764518246 -0.71933979245794832 0 0.69465837861970381 I I #
point $-1 48.143299811705674 13.444537938437087 7.0680263787882751 #
point $-1 54.575640125736257 21.891592234488208 0.85638740076545616 #
straight-curve $-1 54.575640125736257 0 7.0680263787882698 0 1 0 I I #
vertex $-1 $398 $511 #
point $-1 49.448999813639709 15.857982023023119 0.54430065279894135 #
vertex $-1 $402 $512 #
point $-1 49.448999813639709 19.478148149902168 0.54430065279894135 #
straight-curve $-1 -54.575640125736257 31.160596893837152 0 0 0 -1 I I #
point $-1 -54.575640125736257 -31.160596893837152 -7.0680263787882698 #
straight-curve $-1 -54.575640125736257 0 -7.0680263787882698 0 1 0 I I #
point $-1 -54.575640125736257 31.160596893837152 -7.0680263787882698 #
straight-curve $-1 -50.461253181795904 -13.26304728208134 7.0680263787882698 0 1 0 I I #
straight-curve $-1 -50.461253181795904 -13.26304728208134 -7.0680263787882698 0 -1 0 I I #
point $-1 -50.461253181795904 -31.160596893837152 -7.0680263787882698 #
point $-1 -50.461253181795904 -31.160596893837152 7.0680263787882698 #
straight-curve $-1 0 -31.160596893837152 -7.0680263787882698 -1 0 0 I I #
straight-curve $-1 0 -31.160596893837152 7.0680263787882698 1 0 0 I I #
vertex $-1 $496 $513 #
straight-curve $-1 -50.461253181795904 13.263047282081338 -7.0680263787882698 0 -1 0 I I #
edge $-1 $497 -7.0680263787882698 $494 7.0680263787882698 $450 $514 forward 7 unknown #
vertex $-1 $451 $515 #
straight-curve $-1 -50.461253181795904 13.263047282081338 7.0680263787882698 0 1 0 I I #
straight-curve $-1 0 31.160596893837152 7.0680263787882698 -1 0 0 I I #
straight-curve $-1 0 31.160596893837152 -7.0680263787882698 1 0 0 I I #
straight-curve $-1 -54.575640125736257 16.350671668524274 42.926797418387231 0 0 -1 I I #
point $-1 -54.575640125736257 16.350671668524274 7.0680263787882698 #
straight-curve $-1 -54.575640125736257 5.6823495952901553 3.4760786944087601 0 -1 0 I I #
point $-1 -54.575640125736257 16.350671668524274 3.4760786944087574 #
point $-1 -51.017893690547851 9.2278538428900347 3.5560308669856013 #
point $-1 -51.017893690547851 13.501544538270572 3.5560308669856013 #
straight-curve $-1 54.575640125736257 13.444537938437087 77.59804902356592 0 0 -1 I I #
point $-1 54.575640125736257 13.444537938437087 7.0680263787882698 #
straight-curve $-1 54.575640125736257 8.8340325432313236 0.85638740076544906 0 1 0 I I #
point $-1 54.575640125736257 13.444537938437087 0.85638740076545616 #
point $-1 48.035001642562058 15.857982023023119 0.51961923896069684 #
point $-1 48.035001642562058 19.478148149902168 0.51961923896069684 #
point $-1 -50.461253181795904 31.160596893837148 -7.0680263787882698 #
straight-curve $-1 -50.461253181795904 31.160596893837152 0 0 0 -1 I I #
point $-1 -50.461253181795904 31.160596893837148 7.0680263787882698 #
End-of-ACIS-data 