500 0 4 0           
7 Unknown 11 ACIS 5.0 NT 24 Thu Mar 25 18:12:11 1999 
-1 9.9999999999999995e-007 1e-010 
body $-1 $4 $-1 $5 #
body $-1 $6 $-1 $7 #
body $-1 $8 $-1 $9 #
body $-1 $10 $-1 $11 #
lump $-1 $-1 $12 $0 #
transform $-1 1 0 0 0 1 0 0 0 1 41.704153569139685 26.002381293157157 7.215468372025537 1 rotate no_reflect no_shear #
lump $-1 $-1 $13 $1 #
transform $-1 1 0 0 0 1 0 0 0 1 41.704153569139685 26.002381293157157 7.215468372025537 1 rotate no_reflect no_shear #
lump $-1 $-1 $14 $2 #
transform $-1 1 0 0 0 1 0 0 0 1 41.704153569139685 26.002381293157157 7.215468372025537 1 rotate no_reflect no_shear #
lump $-1 $-1 $15 $3 #
transform $-1 1 0 0 0 1 0 0 0 1 41.704153569139685 26.002381293157157 7.215468372025537 1 rotate no_reflect no_shear #
shell $-1 $-1 $-1 $16 $-1 $4 #
shell $-1 $-1 $-1 $17 $-1 $6 #
shell $-1 $-1 $-1 $18 $-1 $8 #
shell $-1 $-1 $-1 $19 $-1 $10 #
face $-1 $20 $21 $12 $-1 $22 forward single #
face $-1 $23 $24 $13 $-1 $25 reversed single #
face $-1 $26 $27 $14 $-1 $28 forward single #
face $-1 $29 $30 $15 $-1 $31 reversed single #
face $-1 $32 $33 $12 $-1 $34 reversed single #
loop $-1 $-1 $35 $16 #
plane-surface $-1 0 0 7.215468372025537 0 0 1 1 0 0 forward_v I I I I #
face $-1 $36 $37 $13 $-1 $38 reversed single #
loop $-1 $-1 $39 $17 #
plane-surface $-1 0 -30.613732144445308 3.3818255278243159 0 0 1 1 0 0 forward_v I I I I #
face $-1 $40 $41 $14 $-1 $42 forward single #
loop $-1 $-1 $43 $18 #
plane-surface $-1 -39.307037365439577 48.208041710107224 99.323847570454504 1 0 0 0 -0.70710678939079041 -0.70710677298230451 forward_v I I I I #
face $-1 $44 $45 $15 $-1 $46 reversed single #
loop $-1 $47 $48 $19 #
cone-surface $-1 -30.292286264793823 23.06224064294474 4.275327705500402 0 -0.70710678939079041 -0.70710677298230451 1 0 0 1 I I 0 1 1 forward I I I I #
face $-1 $49 $50 $12 $-1 $51 reversed single #
loop $-1 $-1 $52 $20 #
plane-surface $-1 0 0 -7.215468372025537 0 0 1 1 0 0 forward_v I I I I #
coedge $-1 $53 $54 $55 $56 forward $21 $-1 #
face $-1 $57 $58 $13 $-1 $59 forward single #
loop $-1 $-1 $60 $23 #
plane-surface $-1 0 -35.225082995733459 5.298646949924926 0 1 0 0 0 1 forward_v I I I I #
coedge $-1 $61 $62 $63 $64 forward $24 $-1 #
face $-1 $65 $66 $14 $-1 $67 forward single #
loop $-1 $-1 $68 $26 #
plane-surface $-1 -30.292286264793823 -10.770538558962443 40.345268669988869 0 0.70710678939079041 0.70710677298230451 1 0 0 forward_v I I I I #
coedge $-1 $69 $70 $71 $72 reversed $27 $-1 #
face $-1 $73 $74 $15 $-1 $75 forward single #
loop $-1 $76 $77 $29 #
cone-surface $-1 -30.292286264793823 21.590106759505275 2.8031938562219558 0 -0.70710678939079041 -0.70710677298230451 0.5 0 0 1 I I -0.70710678118654746 0.70710678118654746 0.5 forward I I I I #
loop $-1 $-1 $78 $19 #
coedge $-1 $48 $48 $79 $80 reversed $30 $-1 #
face $-1 $81 $82 $12 $-1 $83 reversed single #
loop $-1 $-1 $84 $32 #
plane-surface $-1 0 -26.002381293157157 0 0 1 0 0 0 1 forward_v I I I I #
coedge $-1 $85 $86 $87 $88 forward $33 $-1 #
coedge $-1 $89 $35 $90 $91 forward $21 $-1 #
coedge $-1 $35 $89 $92 $93 forward $21 $-1 #
coedge $-1 $94 $95 $35 $56 reversed $96 $-1 #
edge $-1 $97 -26.002381293157157 $98 26.002381293157157 $55 $99 forward 7 unknown #
face $-1 $100 $101 $13 $-1 $102 reversed single #
loop $-1 $-1 $103 $36 #
plane-surface $-1 0 0 7.215468372025537 0 0 1 1 0 0 forward_v I I I I #
coedge $-1 $104 $105 $106 $107 forward $37 $-1 #
coedge $-1 $108 $39 $104 $109 forward $24 $-1 #
coedge $-1 $39 $108 $110 $111 reversed $24 $-1 #
coedge $-1 $112 $113 $39 $64 reversed $114 $-1 #
edge $-1 $115 -4.6113508512881509 $116 4.6113508512881509 $63 $117 forward 7 unknown #
face $-1 $118 $119 $14 $-1 $120 forward single #
loop $-1 $-1 $121 $40 #
plane-surface $-1 -21.27753516414807 48.208041710107224 99.323847570454504 -1 0 0 0 0.70710678939079041 0.70710677298230451 forward_v I I I I #
coedge $-1 $122 $123 $124 $125 reversed $41 $-1 #
coedge $-1 $70 $43 $123 $126 forward $27 $-1 #
coedge $-1 $43 $69 $127 $128 reversed $27 $-1 #
coedge $-1 $129 $124 $43 $72 forward $119 $-1 #
edge $-1 $130 -1.744759884833158 $131 1.8983604381035448 $71 $132 forward 7 unknown #
face $-1 $133 $134 $15 $-1 $135 forward single #
loop $-1 $-1 $136 $44 #
plane-surface $-1 -39.307037365439577 48.208041710107224 99.323847570454504 1 0 0 0 -0.70710678939079041 -0.70710677298230451 forward_v I I I I #
loop $-1 $-1 $137 $29 #
coedge $-1 $77 $77 $78 $138 forward $45 $-1 #
coedge $-1 $78 $78 $77 $138 reversed $47 $-1 #
coedge $-1 $79 $79 $48 $80 forward $134 $-1 #
edge $-1 $139 1.256073981520683e-015 $139 6.2831853071796013 $79 $140 forward 7 unknown #
face $-1 $141 $142 $12 $-1 $143 reversed single #
loop $-1 $-1 $144 $49 #
plane-surface $-1 -41.704153569139685 0 0 1 0 0 0 0 -1 forward_v I I I I #
coedge $-1 $145 $92 $146 $147 forward $50 $-1 #
coedge $-1 $148 $52 $145 $149 forward $33 $-1 #
coedge $-1 $52 $148 $150 $151 forward $33 $-1 #
coedge $-1 $95 $94 $52 $88 reversed $96 $-1 #
edge $-1 $152 -26.002381293157157 $153 26.002381293157157 $87 $154 forward 7 unknown #
coedge $-1 $54 $53 $155 $156 forward $21 $-1 #
coedge $-1 $157 $158 $53 $91 reversed $142 $-1 #
edge $-1 $98 -41.704153569139685 $159 41.704153569139685 $90 $160 forward 7 unknown #
coedge $-1 $84 $161 $54 $93 reversed $50 $-1 #
edge $-1 $162 -41.704153569139685 $97 41.704153569139685 $92 $163 forward 7 unknown #
coedge $-1 $87 $55 $161 $164 forward $96 $-1 #
coedge $-1 $55 $87 $157 $165 reversed $96 $-1 #
loop $-1 $-1 $94 $141 #
vertex $-1 $56 $166 #
vertex $-1 $56 $167 #
straight-curve $-1 41.704153569139685 0 7.215468372025537 0 1 0 I I #
face $-1 $168 $169 $13 $-1 $170 reversed single #
loop $-1 $-1 $171 $57 #
plane-surface $-1 0 0 -7.215468372025537 0 0 1 1 0 0 forward_v I I I I #
coedge $-1 $172 $173 $174 $175 forward $58 $-1 #
coedge $-1 $176 $60 $61 $109 reversed $37 $-1 #
coedge $-1 $60 $176 $173 $177 reversed $37 $-1 #
coedge $-1 $178 $179 $60 $107 reversed $180 $-1 #
edge $-1 $181 -1.9168214221006101 $182 1.9168214221006101 $106 $183 forward 7 unknown #
coedge $-1 $62 $61 $179 $184 forward $24 $-1 #
edge $-1 $116 -41.704153569139685 $182 41.704153569139685 $104 $185 forward 7 unknown #
coedge $-1 $186 $187 $62 $111 forward $169 $-1 #
edge $-1 $115 -41.704153569139685 $188 41.704153569139685 $110 $189 forward 7 unknown #
coedge $-1 $190 $63 $187 $191 forward $114 $-1 #
coedge $-1 $63 $174 $176 $192 forward $114 $-1 #
loop $-1 $-1 $112 $193 #
vertex $-1 $191 $194 #
vertex $-1 $192 $195 #
straight-curve $-1 41.704153569139685 -30.613732144445308 3.3818255278243159 0 -1 0 I I #
face $-1 $196 $197 $14 $-1 $198 reversed single #
loop $-1 $-1 $199 $65 #
plane-surface $-1 0 0 7.215468372025537 0 0 1 1 0 0 forward_v I I I I #
coedge $-1 $200 $201 $199 $202 reversed $66 $-1 #
coedge $-1 $203 $68 $201 $204 reversed $41 $-1 #
coedge $-1 $68 $203 $69 $126 reversed $41 $-1 #
coedge $-1 $71 $199 $68 $125 forward $119 $-1 #
edge $-1 $205 6.1313920317511581 $130 24.160894233042665 $124 $206 forward 7 unknown #
edge $-1 $130 46.852612356482105 $207 52.004762586314328 $69 $208 forward 7 unknown #
coedge $-1 $209 $210 $70 $128 forward $211 $-1 #
edge $-1 $131 42.446455413201718 $207 46.089575820677396 $127 $212 forward 7 unknown #
coedge $-1 $213 $71 $210 $214 forward $119 $-1 #
vertex $-1 $125 $215 #
vertex $-1 $214 $216 #
straight-curve $-1 -39.307037365439577 24.104020855053612 7.2154683720255406 0 1 0 I I #
face $-1 $217 $218 $15 $-1 $219 forward single #
loop $-1 $220 $79 $73 #
plane-surface $-1 -30.292286264793823 -10.770538558962443 40.345268669988869 0 0.70710678939079041 0.70710677298230451 1 0 0 forward_v I I I I #
coedge $-1 $221 $222 $223 $224 reversed $74 $-1 #
coedge $-1 $137 $137 $-1 $225 forward $76 $-1 #
edge $-1 $226 0 $226 6.2831853071796004 $77 $227 forward 7 unknown #
vertex $-1 $80 $228 #
ellipse-curve $-1 -30.292286264793823 24.180821131688809 5.3939081682876946 0 -0.70710678939079041 -0.70710677298230451 1 0 0 1 I I #
face $-1 $-1 $96 $12 $-1 $229 reversed single #
loop $-1 $-1 $157 $81 #
plane-surface $-1 0 26.002381293157157 0 0 -1 0 0 0 -1 forward_v I I I I #
coedge $-1 $230 $155 $158 $231 forward $82 $-1 #
coedge $-1 $161 $84 $85 $149 reversed $50 $-1 #
coedge $-1 $155 $230 $84 $147 reversed $82 $-1 #
edge $-1 $162 -7.215468372025537 $232 7.215468372025537 $146 $233 forward 7 unknown #
coedge $-1 $86 $85 $230 $234 forward $33 $-1 #
edge $-1 $153 -41.704153569139685 $232 41.704153569139685 $145 $235 forward 7 unknown #
coedge $-1 $158 $157 $86 $151 reversed $142 $-1 #
edge $-1 $236 -41.704153569139685 $152 41.704153569139685 $150 $237 forward 7 unknown #
vertex $-1 $88 $238 #
vertex $-1 $164 $239 #
straight-curve $-1 41.704153569139685 0 -7.215468372025537 0 -1 0 I I #
coedge $-1 $144 $146 $89 $156 reversed $82 $-1 #
edge $-1 $159 -26.002381293157157 $162 26.002381293157157 $155 $240 forward 7 unknown #
coedge $-1 $150 $90 $95 $165 forward $142 $-1 #
coedge $-1 $90 $150 $144 $231 reversed $142 $-1 #
vertex $-1 $91 $241 #
straight-curve $-1 0 26.002381293157157 7.215468372025537 -1 0 0 I I #
coedge $-1 $92 $145 $94 $164 reversed $50 $-1 #
vertex $-1 $156 $242 #
straight-curve $-1 0 -26.002381293157157 7.215468372025537 1 0 0 I I #
edge $-1 $97 -7.215468372025537 $153 7.215468372025537 $94 $243 forward 7 unknown #
edge $-1 $98 -7.215468372025537 $152 7.215468372025537 $95 $244 forward 7 unknown #
point $-1 41.704153569139685 -26.002381293157157 7.215468372025537 #
point $-1 41.704153569139685 26.002381293157157 7.215468372025537 #
face $-1 $245 $180 $13 $-1 $246 reversed single #
loop $-1 $-1 $110 $100 #
plane-surface $-1 0 -26.002381293157157 0 0 1 0 0 0 1 forward_v I I I I #
coedge $-1 $247 $248 $190 $249 forward $101 $-1 #
coedge $-1 $250 $103 $251 $252 forward $58 $-1 #
coedge $-1 $103 $250 $105 $177 forward $58 $-1 #
coedge $-1 $113 $253 $103 $175 reversed $114 $-1 #
edge $-1 $254 -35.225082995733459 $255 26.002381293157157 $174 $256 forward 7 unknown #
coedge $-1 $105 $104 $113 $192 reversed $37 $-1 #
edge $-1 $181 -41.704153569139685 $254 41.704153569139685 $105 $257 forward 7 unknown #
coedge $-1 $258 $106 $250 $259 reversed $180 $-1 #
coedge $-1 $106 $260 $108 $184 reversed $180 $-1 #
loop $-1 $-1 $258 $168 #
vertex $-1 $259 $261 #
vertex $-1 $184 $262 #
straight-curve $-1 -41.704153569139685 -35.225082995733459 5.298646949924926 0 0 -1 I I #
edge $-1 $182 -4.6113508512881509 $188 4.6113508512881509 $179 $263 forward 7 unknown #
straight-curve $-1 0 -35.225082995733459 3.3818255278243159 -1 0 0 I I #
coedge $-1 $264 $110 $260 $265 forward $169 $-1 #
coedge $-1 $110 $264 $112 $191 reversed $169 $-1 #
vertex $-1 $265 $266 #
straight-curve $-1 0 -26.002381293157157 3.3818255278243159 -1 0 0 I I #
coedge $-1 $253 $112 $171 $249 reversed $114 $-1 #
edge $-1 $115 -3.3818255278243159 $267 7.215468372025537 $112 $268 forward 7 unknown #
edge $-1 $254 -1.9168214221006101 $116 1.9168214221006101 $113 $269 forward 7 unknown #
face $-1 $-1 $114 $13 $-1 $270 reversed single #
point $-1 41.704153569139685 -26.002381293157157 3.3818255278243159 #
point $-1 41.704153569139685 -35.225082995733459 3.3818255278243159 #
face $-1 $271 $272 $14 $-1 $273 reversed single #
loop $-1 $-1 $274 $118 #
plane-surface $-1 0 -30.613732144445308 3.3818255278243159 0 0 1 1 0 0 forward_v I I I I #
coedge $-1 $124 $275 $121 $202 forward $119 $-1 #
coedge $-1 $201 $121 $276 $277 reversed $66 $-1 #
coedge $-1 $121 $200 $122 $204 forward $66 $-1 #
edge $-1 $278 -1.8983604381035448 $205 1.744759884833158 $199 $279 forward 7 unknown #
coedge $-1 $123 $122 $209 $280 reversed $41 $-1 #
edge $-1 $281 -52.004762586314328 $205 -46.852612356482105 $201 $282 forward 7 unknown #
vertex $-1 $125 $283 #
straight-curve $-1 -15.146143132396912 22.359260970220461 7.215468372025537 -1 0 0 I I #
vertex $-1 $280 $284 #
straight-curve $-1 -39.307037365439577 -10.770538558962443 40.345268669988869 0 0.70710677298230451 -0.70710678939079041 I I #
coedge $-1 $276 $127 $203 $280 forward $211 $-1 #
coedge $-1 $127 $285 $129 $214 reversed $211 $-1 #
loop $-1 $-1 $276 $286 #
straight-curve $-1 -39.307037365439577 26.002381293157157 49.661923785227252 0 0 -1 I I #
coedge $-1 $287 $129 $288 $289 forward $119 $-1 #
edge $-1 $131 39.307037365439577 $290 41.704153569139685 $210 $291 forward 7 unknown #
point $-1 -39.307037365439577 22.359260970220454 7.2154683720255406 #
point $-1 -39.307037365439577 26.002381293157157 7.215468372025537 #
face $-1 $292 $293 $15 $-1 $294 forward single #
loop $-1 $-1 $295 $133 #
plane-surface $-1 -21.27753516414807 48.208041710107224 99.323847570454504 -1 0 0 0 0.70710678939079041 0.70710677298230451 forward_v I I I I #
loop $-1 $-1 $296 $73 #
coedge $-1 $222 $136 $297 $298 forward $74 $-1 #
coedge $-1 $136 $221 $299 $300 reversed $74 $-1 #
coedge $-1 $301 $302 $136 $224 forward $293 $-1 #
edge $-1 $303 -1.744759884833158 $304 1.8983604381035448 $223 $305 forward 7 unknown #
edge $-1 $306 1 $306 0 $137 $-1 forward 7 unknown #
vertex $-1 $138 $307 #
ellipse-curve $-1 -30.292286264793823 21.943660154200671 3.156747242713108 0 0.70710678939079041 0.70710677298230451 1 0 0 1 I I #
point $-1 -29.292286264793823 24.180821131688809 5.3939081682876964 #
plane-surface $-1 41.704153569139685 0 0 -1 0 0 0 0 1 forward_v I I I I #
coedge $-1 $146 $144 $148 $234 reversed $82 $-1 #
edge $-1 $159 -7.215468372025537 $236 7.215468372025537 $158 $308 forward 7 unknown #
vertex $-1 $234 $309 #
straight-curve $-1 -41.704153569139685 -26.002381293157157 0 0 0 -1 I I #
edge $-1 $232 -26.002381293157157 $236 26.002381293157157 $230 $310 forward 7 unknown #
straight-curve $-1 0 -26.002381293157157 -7.215468372025537 -1 0 0 I I #
vertex $-1 $151 $311 #
straight-curve $-1 0 26.002381293157157 -7.215468372025537 1 0 0 I I #
point $-1 41.704153569139685 26.002381293157157 -7.215468372025537 #
point $-1 41.704153569139685 -26.002381293157157 -7.215468372025537 #
straight-curve $-1 -41.704153569139685 0 7.215468372025537 0 -1 0 I I #
point $-1 -41.704153569139685 26.002381293157157 7.215468372025537 #
point $-1 -41.704153569139685 -26.002381293157157 7.215468372025537 #
straight-curve $-1 41.704153569139685 -26.002381293157157 0 0 0 -1 I I #
straight-curve $-1 41.704153569139685 26.002381293157157 0 0 0 -1 I I #
face $-1 $193 $312 $13 $-1 $313 reversed single #
plane-surface $-1 -41.704153569139685 0 0 1 0 0 0 0 -1 forward_v I I I I #
coedge $-1 $314 $171 $264 $315 forward $101 $-1 #
coedge $-1 $171 $314 $316 $317 forward $101 $-1 #
edge $-1 $318 -26.002381293157157 $267 26.002381293157157 $190 $319 forward 7 unknown #
coedge $-1 $173 $172 $178 $259 forward $58 $-1 #
coedge $-1 $320 $321 $172 $252 reversed $312 $-1 #
edge $-1 $255 -41.704153569139685 $322 41.704153569139685 $251 $323 forward 7 unknown #
coedge $-1 $174 $190 $320 $324 reversed $114 $-1 #
vertex $-1 $175 $325 #
vertex $-1 $175 $326 #
straight-curve $-1 41.704153569139685 0 7.215468372025537 0 1 0 I I #
straight-curve $-1 0 -35.225082995733459 7.2154683720255361 1 0 0 I I #
coedge $-1 $327 $178 $321 $328 forward $180 $-1 #
edge $-1 $322 -26.002381293157157 $181 35.225082995733459 $178 $329 forward 7 unknown #
coedge $-1 $179 $327 $186 $265 reversed $180 $-1 #
point $-1 -41.704153569139685 -35.225082995733459 7.2154683720255361 #
point $-1 -41.704153569139685 -35.225082995733459 3.3818255278243159 #
straight-curve $-1 -41.704153569139685 -30.613732144445308 3.3818255278243159 0 1 0 I I #
coedge $-1 $187 $186 $247 $315 reversed $169 $-1 #
edge $-1 $188 -3.3818255278243159 $330 7.215468372025537 $260 $331 forward 7 unknown #
point $-1 -41.704153569139685 -26.002381293157157 3.3818255278243159 #
vertex $-1 $191 $332 #
straight-curve $-1 41.704153569139685 -26.002381293157157 0 0 0 -1 I I #
straight-curve $-1 41.704153569139685 -35.225082995733459 5.298646949924926 0 0 -1 I I #
plane-surface $-1 41.704153569139685 0 0 -1 0 0 0 0 1 forward_v I I I I #
face $-1 $333 $334 $14 $-1 $335 reversed single #
loop $-1 $-1 $336 $196 #
plane-surface $-1 0 -35.225082995733459 5.298646949924926 0 1 0 0 0 1 forward_v I I I I #
coedge $-1 $337 $338 $339 $340 forward $197 $-1 #
coedge $-1 $199 $341 $342 $343 forward $119 $-1 #
coedge $-1 $342 $209 $200 $277 forward $211 $-1 #
edge $-1 $281 -46.089575820677396 $278 -42.446455413201718 $276 $344 forward 7 unknown #
vertex $-1 $277 $345 #
straight-curve $-1 -21.27753516414807 24.104020855053612 7.2154683720255406 0 -1 0 I I #
edge $-1 $207 -24.160894233042665 $281 -6.1313920317511581 $209 $346 forward 7 unknown #
vertex $-1 $280 $347 #
straight-curve $-1 -21.27753516414807 -10.770538558962443 40.345268669988869 0 -0.70710677298230451 0.70710678939079041 I I #
point $-1 -21.27753516414807 22.359260970220454 7.2154683720255406 #
point $-1 -39.307037365439577 26.002381293157157 3.5723479645498557 #
coedge $-1 $210 $348 $349 $350 reversed $211 $-1 #
face $-1 $351 $211 $14 $-1 $352 reversed single #
coedge $-1 $341 $213 $353 $354 forward $119 $-1 #
coedge $-1 $349 $355 $213 $289 reversed $356 $-1 #
edge $-1 $290 -26.002381293157157 $357 35.225082995733459 $288 $358 forward 7 unknown #
vertex $-1 $214 $359 #
straight-curve $-1 0 26.002381293157157 7.215468372025537 -1 0 0 I I #
face $-1 $360 $361 $15 $-1 $362 reversed single #
loop $-1 $-1 $363 $217 #
plane-surface $-1 0 0 7.215468372025537 0 0 1 1 0 0 forward_v I I I I #
coedge $-1 $364 $365 $363 $366 reversed $218 $-1 #
coedge $-1 $367 $297 $302 $368 reversed $220 $-1 #
coedge $-1 $296 $369 $221 $298 reversed $220 $-1 #
edge $-1 $303 46.852612356482105 $370 52.004762586314328 $221 $371 forward 7 unknown #
coedge $-1 $372 $373 $222 $300 forward $374 $-1 #
edge $-1 $304 42.446455413201718 $370 46.089575820677396 $299 $375 forward 7 unknown #
coedge $-1 $376 $223 $373 $377 forward $293 $-1 #
coedge $-1 $223 $363 $296 $368 forward $293 $-1 #
vertex $-1 $368 $378 #
vertex $-1 $377 $379 #
straight-curve $-1 -39.307037365439577 24.104020855053612 7.2154683720255406 0 1 0 I I #
vertex $-1 $225 $380 #
point $-1 -29.292286264793823 21.943660154200671 3.156747242713108 #
straight-curve $-1 -41.704153569139685 26.002381293157157 0 0 0 -1 I I #
point $-1 -41.704153569139685 -26.002381293157157 -7.215468372025537 #
straight-curve $-1 -41.704153569139685 0 -7.215468372025537 0 1 0 I I #
point $-1 -41.704153569139685 26.002381293157157 -7.215468372025537 #
loop $-1 $-1 $320 $245 #
plane-surface $-1 0 26.002381293157157 0 0 -1 0 0 0 -1 forward_v I I I I #
coedge $-1 $248 $247 $327 $381 forward $101 $-1 #
edge $-1 $267 -41.704153569139685 $330 41.704153569139685 $264 $382 forward 7 unknown #
coedge $-1 $321 $320 $248 $317 reversed $312 $-1 #
edge $-1 $383 -41.704153569139685 $318 41.704153569139685 $316 $384 forward 7 unknown #
vertex $-1 $249 $385 #
straight-curve $-1 41.704153569139685 0 -7.215468372025537 0 -1 0 I I #
coedge $-1 $316 $251 $253 $324 forward $312 $-1 #
coedge $-1 $251 $316 $258 $328 reversed $312 $-1 #
vertex $-1 $252 $386 #
straight-curve $-1 0 26.002381293157157 7.215468372025537 -1 0 0 I I #
edge $-1 $255 -7.215468372025537 $318 7.215468372025537 $253 $387 forward 7 unknown #
point $-1 41.704153569139685 -35.225082995733459 7.2154683720255361 #
point $-1 41.704153569139685 26.002381293157157 7.215468372025537 #
coedge $-1 $260 $258 $314 $381 reversed $180 $-1 #
edge $-1 $322 -7.215468372025537 $383 7.215468372025537 $321 $388 forward 7 unknown #
straight-curve $-1 -41.704153569139685 0 7.215468372025537 0 -1 0 I I #
vertex $-1 $381 $389 #
straight-curve $-1 -41.704153569139685 -26.002381293157157 0 0 0 -1 I I #
point $-1 41.704153569139685 -26.002381293157157 -7.215468372025537 #
face $-1 $390 $391 $14 $-1 $392 reversed single #
loop $-1 $-1 $393 $271 #
plane-surface $-1 0 0 -7.215468372025537 0 0 1 1 0 0 forward_v I I I I #
coedge $-1 $394 $353 $355 $395 forward $272 $-1 #
coedge $-1 $396 $274 $394 $397 forward $197 $-1 #
coedge $-1 $274 $396 $398 $399 reversed $197 $-1 #
coedge $-1 $400 $401 $274 $340 reversed $402 $-1 #
edge $-1 $403 -4.6113508512881509 $404 4.6113508512881509 $339 $405 forward 7 unknown #
coedge $-1 $275 $287 $406 $407 forward $119 $-1 #
coedge $-1 $408 $276 $275 $343 reversed $211 $-1 #
edge $-1 $409 -41.704153569139685 $278 21.27753516414807 $342 $291 forward 7 unknown #
straight-curve $-1 -21.27753516414807 26.002381293157157 49.661923785227252 0 0 1 I I #
point $-1 -21.27753516414807 26.002381293157157 7.215468372025537 #
straight-curve $-1 -15.146143132396912 26.002381293157157 3.5723479645498593 1 0 0 I I #
point $-1 -21.27753516414807 26.002381293157157 3.5723479645498557 #
coedge $-1 $285 $408 $410 $411 reversed $211 $-1 #
coedge $-1 $412 $288 $285 $350 forward $356 $-1 #
edge $-1 $290 -7.215468372025537 $413 7.215468372025537 $285 $414 forward 7 unknown #
face $-1 $-1 $402 $14 $-1 $415 reversed single #
plane-surface $-1 0 26.002381293157157 0 0 -1 0 0 0 -1 forward_v I I I I #
coedge $-1 $336 $416 $287 $354 reversed $272 $-1 #
edge $-1 $357 -41.704153569139685 $417 41.704153569139685 $353 $418 forward 7 unknown #
coedge $-1 $288 $419 $336 $395 reversed $356 $-1 #
loop $-1 $-1 $349 $390 #
vertex $-1 $289 $420 #
straight-curve $-1 -41.704153569139685 0 7.215468372025537 0 -1 0 I I #
point $-1 -41.704153569139685 26.002381293157157 7.215468372025537 #
face $-1 $421 $422 $15 $-1 $423 reversed single #
loop $-1 $-1 $424 $292 #
plane-surface $-1 0 -30.613732144445308 3.3818255278243159 0 0 1 1 0 0 forward_v I I I I #
coedge $-1 $302 $425 $295 $366 forward $293 $-1 #
coedge $-1 $365 $295 $426 $427 reversed $218 $-1 #
coedge $-1 $295 $364 $367 $428 forward $218 $-1 #
edge $-1 $429 -1.8983604381035448 $430 1.744759884833158 $363 $431 forward 7 unknown #
coedge $-1 $369 $296 $365 $428 reversed $220 $-1 #
edge $-1 $430 6.1313920317511581 $303 24.160894233042665 $302 $432 forward 7 unknown #
coedge $-1 $297 $367 $372 $433 reversed $220 $-1 #
vertex $-1 $433 $434 #
straight-curve $-1 -39.307037365439577 -10.770538558962443 40.345268669988869 0 0.70710677298230451 -0.70710678939079041 I I #
coedge $-1 $426 $299 $369 $433 forward $374 $-1 #
coedge $-1 $299 $435 $301 $377 reversed $374 $-1 #
loop $-1 $-1 $426 $436 #
straight-curve $-1 -39.307037365439577 26.002381293157157 49.661923785227252 0 0 -1 I I #
coedge $-1 $437 $301 $438 $439 forward $293 $-1 #
edge $-1 $304 39.307037365439577 $440 41.704153569139685 $373 $441 forward 7 unknown #
point $-1 -39.307037365439577 22.359260970220454 7.2154683720255406 #
point $-1 -39.307037365439577 26.002381293157157 7.215468372025537 #
point $-1 -30.292286264793823 21.236553364809879 2.4496404697308036 #
edge $-1 $330 -26.002381293157157 $383 26.002381293157157 $327 $442 forward 7 unknown #
straight-curve $-1 0 -26.002381293157157 -7.215468372025537 -1 0 0 I I #
vertex $-1 $317 $443 #
straight-curve $-1 0 26.002381293157157 -7.215468372025537 1 0 0 I I #
point $-1 41.704153569139685 26.002381293157157 -7.215468372025537 #
point $-1 -41.704153569139685 26.002381293157157 7.215468372025537 #
straight-curve $-1 41.704153569139685 26.002381293157157 0 0 0 -1 I I #
straight-curve $-1 -41.704153569139685 26.002381293157157 0 0 0 -1 I I #
point $-1 -41.704153569139685 -26.002381293157157 -7.215468372025537 #
face $-1 $286 $356 $14 $-1 $444 reversed single #
loop $-1 $-1 $398 $333 #
plane-surface $-1 0 -26.002381293157157 0 0 1 0 0 0 1 forward_v I I I I #
coedge $-1 $445 $410 $446 $447 forward $334 $-1 #
coedge $-1 $416 $336 $337 $397 reversed $272 $-1 #
edge $-1 $357 -1.9168214221006101 $448 1.9168214221006101 $355 $449 forward 7 unknown #
coedge $-1 $338 $337 $419 $450 forward $197 $-1 #
edge $-1 $404 -41.704153569139685 $448 41.704153569139685 $394 $451 forward 7 unknown #
coedge $-1 $452 $453 $338 $399 forward $391 $-1 #
edge $-1 $403 -41.704153569139685 $454 41.704153569139685 $398 $455 forward 7 unknown #
coedge $-1 $446 $339 $453 $456 forward $402 $-1 #
coedge $-1 $339 $406 $416 $457 forward $402 $-1 #
loop $-1 $-1 $400 $351 #
vertex $-1 $456 $458 #
vertex $-1 $457 $459 #
straight-curve $-1 41.704153569139685 -30.613732144445308 3.3818255278243159 0 -1 0 I I #
coedge $-1 $401 $460 $341 $407 reversed $402 $-1 #
edge $-1 $417 -35.225082995733459 $409 26.002381293157157 $406 $461 forward 7 unknown #
coedge $-1 $348 $342 $460 $462 forward $211 $-1 #
vertex $-1 $407 $463 #
coedge $-1 $393 $464 $348 $411 forward $334 $-1 #
edge $-1 $413 -41.704153569139685 $465 41.704153569139685 $348 $466 forward 7 unknown #
coedge $-1 $467 $349 $464 $468 reversed $356 $-1 #
vertex $-1 $411 $469 #
straight-curve $-1 -41.704153569139685 26.002381293157157 0 0 0 -1 I I #
plane-surface $-1 41.704153569139685 0 0 -1 0 0 0 0 1 forward_v I I I I #
coedge $-1 $353 $394 $401 $457 reversed $272 $-1 #
vertex $-1 $407 $470 #
straight-curve $-1 0 -35.225082995733459 7.2154683720255361 1 0 0 I I #
coedge $-1 $355 $467 $396 $450 reversed $356 $-1 #
point $-1 -41.704153569139685 -35.225082995733459 7.2154683720255361 #
face $-1 $471 $472 $15 $-1 $473 reversed single #
loop $-1 $-1 $474 $360 #
plane-surface $-1 0 -35.225082995733459 5.298646949924926 0 1 0 0 0 1 forward_v I I I I #
coedge $-1 $475 $476 $477 $478 forward $361 $-1 #
coedge $-1 $363 $479 $480 $481 forward $293 $-1 #
coedge $-1 $480 $372 $364 $427 forward $374 $-1 #
edge $-1 $482 -46.089575820677396 $429 -42.446455413201718 $426 $483 forward 7 unknown #
edge $-1 $482 -52.004762586314328 $430 -46.852612356482105 $365 $484 forward 7 unknown #
vertex $-1 $427 $485 #
vertex $-1 $368 $486 #
straight-curve $-1 -21.27753516414807 24.104020855053612 7.2154683720255406 0 -1 0 I I #
straight-curve $-1 -15.146143132396912 22.359260970220461 7.215468372025537 -1 0 0 I I #
edge $-1 $370 -24.160894233042665 $482 -6.1313920317511581 $372 $487 forward 7 unknown #
point $-1 -39.307037365439577 26.002381293157157 3.5723479645498557 #
coedge $-1 $373 $488 $489 $490 reversed $374 $-1 #
face $-1 $491 $374 $15 $-1 $492 reversed single #
coedge $-1 $479 $376 $493 $494 forward $293 $-1 #
coedge $-1 $489 $495 $376 $439 reversed $496 $-1 #
edge $-1 $440 -26.002381293157157 $497 35.225082995733459 $438 $498 forward 7 unknown #
vertex $-1 $377 $499 #
straight-curve $-1 0 26.002381293157157 7.215468372025537 -1 0 0 I I #
straight-curve $-1 -41.704153569139685 0 -7.215468372025537 0 1 0 I I #
point $-1 -41.704153569139685 26.002381293157157 -7.215468372025537 #
plane-surface $-1 -41.704153569139685 0 0 1 0 0 0 0 -1 forward_v I I I I #
coedge $-1 $464 $393 $500 $501 forward $334 $-1 #
coedge $-1 $460 $400 $393 $447 reversed $402 $-1 #
edge $-1 $465 -26.002381293157157 $502 26.002381293157157 $446 $503 forward 7 unknown #
vertex $-1 $450 $504 #
straight-curve $-1 -41.704153569139685 -35.225082995733459 5.298646949924926 0 0 -1 I I #
edge $-1 $448 -4.6113508512881509 $454 4.6113508512881509 $419 $505 forward 7 unknown #
straight-curve $-1 0 -35.225082995733459 3.3818255278243159 -1 0 0 I I #
coedge $-1 $500 $398 $467 $506 forward $391 $-1 #
coedge $-1 $398 $500 $400 $456 reversed $391 $-1 #
vertex $-1 $506 $507 #
straight-curve $-1 0 -26.002381293157157 3.3818255278243159 -1 0 0 I I #
edge $-1 $403 -3.3818255278243159 $502 7.215468372025537 $400 $508 forward 7 unknown #
edge $-1 $417 -1.9168214221006101 $404 1.9168214221006101 $401 $509 forward 7 unknown #
point $-1 41.704153569139685 -26.002381293157157 3.3818255278243159 #
point $-1 41.704153569139685 -35.225082995733459 3.3818255278243159 #
coedge $-1 $406 $446 $408 $462 reversed $402 $-1 #
straight-curve $-1 41.704153569139685 0 7.215468372025537 0 1 0 I I #
edge $-1 $409 -7.215468372025537 $465 7.215468372025537 $460 $510 forward 7 unknown #
point $-1 41.704153569139685 26.002381293157157 7.215468372025537 #
coedge $-1 $410 $445 $412 $468 forward $334 $-1 #
vertex $-1 $447 $511 #
straight-curve $-1 0 26.002381293157157 -7.215468372025537 1 0 0 I I #
coedge $-1 $419 $412 $452 $506 reversed $356 $-1 #
edge $-1 $512 -26.002381293157157 $413 26.002381293157157 $412 $513 forward 7 unknown #
point $-1 -41.704153569139685 26.002381293157157 -7.215468372025537 #
point $-1 41.704153569139685 -35.225082995733459 7.2154683720255361 #
face $-1 $514 $515 $15 $-1 $516 reversed single #
loop $-1 $-1 $517 $421 #
plane-surface $-1 0 0 -7.215468372025537 0 0 1 1 0 0 forward_v I I I I #
coedge $-1 $518 $493 $495 $519 forward $422 $-1 #
coedge $-1 $520 $424 $518 $521 forward $361 $-1 #
coedge $-1 $424 $520 $522 $523 reversed $361 $-1 #
coedge $-1 $524 $525 $424 $478 reversed $526 $-1 #
edge $-1 $527 -4.6113508512881509 $528 4.6113508512881509 $477 $529 forward 7 unknown #
coedge $-1 $425 $437 $530 $531 forward $293 $-1 #
coedge $-1 $532 $426 $425 $481 reversed $374 $-1 #
edge $-1 $533 -41.704153569139685 $429 21.27753516414807 $480 $441 forward 7 unknown #
vertex $-1 $433 $534 #
straight-curve $-1 -21.27753516414807 26.002381293157157 49.661923785227252 0 0 1 I I #
straight-curve $-1 -21.27753516414807 -10.770538558962443 40.345268669988869 0 -0.70710677298230451 0.70710678939079041 I I #
point $-1 -21.27753516414807 26.002381293157157 7.215468372025537 #
point $-1 -21.27753516414807 22.359260970220454 7.2154683720255406 #
straight-curve $-1 -15.146143132396912 26.002381293157157 3.5723479645498593 1 0 0 I I #
coedge $-1 $435 $532 $535 $536 reversed $374 $-1 #
coedge $-1 $537 $438 $435 $490 forward $496 $-1 #
edge $-1 $440 -7.215468372025537 $538 7.215468372025537 $435 $539 forward 7 unknown #
face $-1 $-1 $526 $15 $-1 $540 reversed single #
plane-surface $-1 0 26.002381293157157 0 0 -1 0 0 0 -1 forward_v I I I I #
coedge $-1 $474 $541 $437 $494 reversed $422 $-1 #
edge $-1 $497 -41.704153569139685 $542 41.704153569139685 $493 $543 forward 7 unknown #
coedge $-1 $438 $544 $474 $519 reversed $496 $-1 #
loop $-1 $-1 $489 $514 #
vertex $-1 $439 $545 #
straight-curve $-1 -41.704153569139685 0 7.215468372025537 0 -1 0 I I #
point $-1 -41.704153569139685 26.002381293157157 7.215468372025537 #
coedge $-1 $453 $452 $445 $501 reversed $391 $-1 #
edge $-1 $502 -41.704153569139685 $512 41.704153569139685 $500 $546 forward 7 unknown #
vertex $-1 $456 $547 #
straight-curve $-1 41.704153569139685 0 -7.215468372025537 0 -1 0 I I #
point $-1 -41.704153569139685 -35.225082995733459 3.3818255278243159 #
straight-curve $-1 -41.704153569139685 -30.613732144445308 3.3818255278243159 0 1 0 I I #
edge $-1 $454 -3.3818255278243159 $512 7.215468372025537 $467 $548 forward 7 unknown #
point $-1 -41.704153569139685 -26.002381293157157 3.3818255278243159 #
straight-curve $-1 41.704153569139685 -26.002381293157157 0 0 0 -1 I I #
straight-curve $-1 41.704153569139685 -35.225082995733459 5.298646949924926 0 0 -1 I I #
straight-curve $-1 41.704153569139685 26.002381293157157 0 0 0 -1 I I #
point $-1 41.704153569139685 26.002381293157157 -7.215468372025537 #
vertex $-1 $468 $549 #
straight-curve $-1 -41.704153569139685 0 -7.215468372025537 0 1 0 I I #
face $-1 $436 $496 $15 $-1 $550 reversed single #
loop $-1 $-1 $522 $471 #
plane-surface $-1 0 -26.002381293157157 0 0 1 0 0 0 1 forward_v I I I I #
coedge $-1 $551 $535 $552 $553 forward $472 $-1 #
coedge $-1 $541 $474 $475 $521 reversed $422 $-1 #
edge $-1 $497 -1.9168214221006101 $554 1.9168214221006101 $495 $555 forward 7 unknown #
coedge $-1 $476 $475 $544 $556 forward $361 $-1 #
edge $-1 $528 -41.704153569139685 $554 41.704153569139685 $518 $557 forward 7 unknown #
coedge $-1 $558 $559 $476 $523 forward $515 $-1 #
edge $-1 $527 -41.704153569139685 $560 41.704153569139685 $522 $561 forward 7 unknown #
coedge $-1 $552 $477 $559 $562 forward $526 $-1 #
coedge $-1 $477 $530 $541 $563 forward $526 $-1 #
loop $-1 $-1 $524 $491 #
vertex $-1 $562 $564 #
vertex $-1 $563 $565 #
straight-curve $-1 41.704153569139685 -30.613732144445308 3.3818255278243159 0 -1 0 I I #
coedge $-1 $525 $566 $479 $531 reversed $526 $-1 #
edge $-1 $542 -35.225082995733459 $533 26.002381293157157 $530 $567 forward 7 unknown #
coedge $-1 $488 $480 $566 $568 forward $374 $-1 #
vertex $-1 $531 $569 #
point $-1 -21.27753516414807 26.002381293157157 3.5723479645498557 #
coedge $-1 $517 $570 $488 $536 forward $472 $-1 #
edge $-1 $538 -41.704153569139685 $571 41.704153569139685 $488 $572 forward 7 unknown #
coedge $-1 $573 $489 $570 $574 reversed $496 $-1 #
vertex $-1 $536 $575 #
straight-curve $-1 -41.704153569139685 26.002381293157157 0 0 0 -1 I I #
plane-surface $-1 41.704153569139685 0 0 -1 0 0 0 0 1 forward_v I I I I #
coedge $-1 $493 $518 $525 $563 reversed $422 $-1 #
vertex $-1 $531 $576 #
straight-curve $-1 0 -35.225082995733459 7.2154683720255361 1 0 0 I I #
coedge $-1 $495 $573 $520 $556 reversed $496 $-1 #
point $-1 -41.704153569139685 -35.225082995733459 7.2154683720255361 #
straight-curve $-1 0 -26.002381293157157 -7.215468372025537 -1 0 0 I I #
point $-1 41.704153569139685 -26.002381293157157 -7.215468372025537 #
straight-curve $-1 -41.704153569139685 -26.002381293157157 0 0 0 -1 I I #
point $-1 -41.704153569139685 -26.002381293157157 -7.215468372025537 #
plane-surface $-1 -41.704153569139685 0 0 1 0 0 0 0 -1 forward_v I I I I #
coedge $-1 $570 $517 $577 $578 forward $472 $-1 #
coedge $-1 $566 $524 $517 $553 reversed $526 $-1 #
edge $-1 $571 -26.002381293157157 $579 26.002381293157157 $552 $580 forward 7 unknown #
vertex $-1 $556 $581 #
straight-curve $-1 -41.704153569139685 -35.225082995733459 5.298646949924926 0 0 -1 I I #
edge $-1 $554 -4.6113508512881509 $560 4.6113508512881509 $544 $582 forward 7 unknown #
straight-curve $-1 0 -35.225082995733459 3.3818255278243159 -1 0 0 I I #
coedge $-1 $577 $522 $573 $583 forward $515 $-1 #
coedge $-1 $522 $577 $524 $562 reversed $515 $-1 #
vertex $-1 $583 $584 #
straight-curve $-1 0 -26.002381293157157 3.3818255278243159 -1 0 0 I I #
edge $-1 $527 -3.3818255278243159 $579 7.215468372025537 $524 $585 forward 7 unknown #
edge $-1 $542 -1.9168214221006101 $528 1.9168214221006101 $525 $586 forward 7 unknown #
point $-1 41.704153569139685 -26.002381293157157 3.3818255278243159 #
point $-1 41.704153569139685 -35.225082995733459 3.3818255278243159 #
coedge $-1 $530 $552 $532 $568 reversed $526 $-1 #
straight-curve $-1 41.704153569139685 0 7.215468372025537 0 1 0 I I #
edge $-1 $533 -7.215468372025537 $571 7.215468372025537 $566 $587 forward 7 unknown #
point $-1 41.704153569139685 26.002381293157157 7.215468372025537 #
coedge $-1 $535 $551 $537 $574 forward $472 $-1 #
vertex $-1 $553 $588 #
straight-curve $-1 0 26.002381293157157 -7.215468372025537 1 0 0 I I #
coedge $-1 $544 $537 $558 $583 reversed $496 $-1 #
edge $-1 $589 -26.002381293157157 $538 26.002381293157157 $537 $590 forward 7 unknown #
point $-1 -41.704153569139685 26.002381293157157 -7.215468372025537 #
point $-1 41.704153569139685 -35.225082995733459 7.2154683720255361 #
coedge $-1 $559 $558 $551 $578 reversed $515 $-1 #
edge $-1 $579 -41.704153569139685 $589 41.704153569139685 $577 $591 forward 7 unknown #
vertex $-1 $562 $592 #
straight-curve $-1 41.704153569139685 0 -7.215468372025537 0 -1 0 I I #
point $-1 -41.704153569139685 -35.225082995733459 3.3818255278243159 #
straight-curve $-1 -41.704153569139685 -30.613732144445308 3.3818255278243159 0 1 0 I I #
edge $-1 $560 -3.3818255278243159 $589 7.215468372025537 $573 $593 forward 7 unknown #
point $-1 -41.704153569139685 -26.002381293157157 3.3818255278243159 #
straight-curve $-1 41.704153569139685 -26.002381293157157 0 0 0 -1 I I #
straight-curve $-1 41.704153569139685 -35.225082995733459 5.298646949924926 0 0 -1 I I #
straight-curve $-1 41.704153569139685 26.002381293157157 0 0 0 -1 I I #
point $-1 41.704153569139685 26.002381293157157 -7.215468372025537 #
vertex $-1 $574 $594 #
straight-curve $-1 -41.704153569139685 0 -7.215468372025537 0 1 0 I I #
straight-curve $-1 0 -26.002381293157157 -7.215468372025537 -1 0 0 I I #
point $-1 41.704153569139685 -26.002381293157157 -7.215468372025537 #
straight-curve $-1 -41.704153569139685 -26.002381293157157 0 0 0 -1 I I #
point $-1 -41.704153569139685 -26.002381293157157 -7.215468372025537 #
End-of-ACIS-data 