500 0 6 0           
7 Unknown 11 ACIS 5.0 NT 24 Fri Mar 26 20:34:19 1999 
-1 9.9999999999999995e-007 1e-010 
body $-1 $6 $-1 $7 #
body $-1 $8 $-1 $9 #
body $-1 $10 $-1 $11 #
body $-1 $12 $-1 $13 #
body $-1 $14 $-1 $15 #
body $-1 $16 $-1 $17 #
lump $-1 $-1 $18 $0 #
transform $-1 1 0 0 0 1 0 0 0 1 64.846949674977878 39.506233350376242 12.766492296430217 1 rotate no_reflect no_shear #
lump $-1 $-1 $19 $1 #
transform $-1 1 0 0 0 1 0 0 0 1 64.846949674977878 39.506233350376242 12.766492296430217 1 rotate no_reflect no_shear #
lump $-1 $-1 $20 $2 #
transform $-1 1 0 0 0 1 0 0 0 1 64.846949674977878 39.506233350376242 12.766492296430217 1 rotate no_reflect no_shear #
lump $-1 $-1 $21 $3 #
transform $-1 1 0 0 0 1 0 0 0 1 64.846949674977878 39.506233350376242 12.766492296430217 1 rotate no_reflect no_shear #
lump $-1 $-1 $22 $4 #
transform $-1 1 0 0 0 1 0 0 0 1 64.846949674977878 39.506233350376242 12.766492296430217 1 rotate no_reflect no_shear #
lump $-1 $-1 $23 $5 #
transform $-1 1 0 0 0 1 0 0 0 1 64.846949674977878 39.506233350376242 12.766492296430217 1 rotate no_reflect no_shear #
shell $-1 $-1 $-1 $24 $-1 $6 #
shell $-1 $-1 $-1 $25 $-1 $8 #
shell $-1 $-1 $-1 $26 $-1 $10 #
shell $-1 $-1 $-1 $27 $-1 $12 #
shell $-1 $-1 $-1 $28 $-1 $14 #
shell $-1 $-1 $-1 $29 $-1 $16 #
face $-1 $30 $31 $18 $-1 $32 forward single #
face $-1 $33 $34 $19 $-1 $35 forward single #
face $-1 $36 $37 $20 $-1 $38 reversed single #
face $-1 $39 $40 $21 $-1 $41 forward single #
face $-1 $42 $43 $22 $-1 $44 reversed single #
face $-1 $45 $46 $23 $-1 $47 forward single #
face $-1 $48 $49 $18 $-1 $50 reversed single #
loop $-1 $-1 $51 $24 #
plane-surface $-1 0 0 12.766492296430217 0 0 1 1 0 0 forward_v I I I I #
face $-1 $52 $53 $19 $-1 $54 reversed single #
loop $-1 $-1 $55 $25 #
plane-surface $-1 -59.624711331237073 0 -6.1548152746716962 0 0 1 1 0 0 forward_v I I I I #
face $-1 $56 $57 $20 $-1 $58 reversed single #
loop $-1 $-1 $59 $26 #
plane-surface $-1 -54.402472987496267 -147.02734988981467 73.226133091287565 1 0 0 0 0.82903758062907751 -0.55919289150049634 forward_v I I I I #
face $-1 $60 $61 $21 $-1 $62 forward single #
loop $-1 $63 $64 $27 #
cone-surface $-1 -36.833863550197734 -33.35526850932132 5.3298708604505372 0 0.82903758062907751 -0.55919289150049634 2.5 0 0 1 I I 0 1 2.5 forward I I I I #
face $-1 $65 $66 $22 $-1 $67 reversed single #
loop $-1 $-1 $68 $28 #
plane-surface $-1 -54.402472987496267 102.84414017083418 138.73043732441494 1 0 0 0 -0.82903758062907751 -0.55919289150049634 forward_v I I I I #
face $-1 $69 $70 $23 $-1 $71 forward single #
loop $-1 $72 $73 $29 #
cone-surface $-1 -36.833863550197734 33.355268509321327 5.3298708604505176 0 -0.82903758062907751 -0.55919289150049634 2.5 0 0 1 I I 0 1 2.5 forward I I I I #
face $-1 $74 $75 $18 $-1 $76 reversed single #
loop $-1 $-1 $77 $30 #
plane-surface $-1 0 0 -12.766492296430217 0 0 1 1 0 0 forward_v I I I I #
coedge $-1 $78 $79 $80 $81 forward $31 $-1 #
face $-1 $82 $83 $19 $-1 $84 reversed single #
loop $-1 $-1 $85 $33 #
plane-surface $-1 -54.402472987496267 0 -9.4606537855509565 -1 0 0 0 0 1 forward_v I I I I #
coedge $-1 $86 $87 $88 $89 forward $34 $-1 #
face $-1 $90 $91 $20 $-1 $92 reversed single #
loop $-1 $-1 $93 $36 #
plane-surface $-1 -36.833863550197741 -39.506233350376263 0.70222650381145968 0 -0.82903758062907751 0.55919289150049634 1 0 0 forward_v I I I I #
coedge $-1 $94 $95 $96 $97 reversed $37 $-1 #
face $-1 $-1 $98 $21 $-1 $99 forward single #
loop $-1 $100 $101 $39 #
cone-surface $-1 -36.833863550197734 -30.236731579044257 3.2263912064046245 0 0.82903758062907751 -0.55919289150049634 1.25 0 0 1 I I -0.70710678118654746 0.70710678118654746 1.25 forward I I I I #
loop $-1 $-1 $102 $27 #
coedge $-1 $64 $64 $103 $104 reversed $40 $-1 #
face $-1 $105 $106 $22 $-1 $107 reversed single #
loop $-1 $-1 $108 $42 #
plane-surface $-1 -36.833863550197741 -4.6769763686042296 66.206530736938831 0 0.82903758062907751 0.55919289150049634 1 0 0 forward_v I I I I #
coedge $-1 $109 $110 $111 $112 reversed $43 $-1 #
face $-1 $-1 $113 $23 $-1 $114 forward single #
loop $-1 $115 $116 $45 #
cone-surface $-1 -36.833863550197734 30.236731579044267 3.226391206404605 0 -0.82903758062907751 -0.55919289150049634 1.25 0 0 1 I I -0.70710678118654746 0.70710678118654746 1.25 forward I I I I #
loop $-1 $-1 $117 $29 #
coedge $-1 $73 $73 $118 $119 reversed $46 $-1 #
face $-1 $120 $121 $18 $-1 $122 reversed single #
loop $-1 $-1 $123 $48 #
plane-surface $-1 0 -39.506233350376242 0 0 1 0 0 0 1 forward_v I I I I #
coedge $-1 $124 $125 $126 $127 forward $49 $-1 #
coedge $-1 $128 $51 $129 $130 forward $31 $-1 #
coedge $-1 $51 $128 $131 $132 forward $31 $-1 #
coedge $-1 $133 $134 $51 $81 reversed $135 $-1 #
edge $-1 $136 -39.506233350376242 $137 39.506233350376242 $80 $138 forward 7 unknown #
face $-1 $139 $140 $19 $-1 $141 reversed single #
loop $-1 $-1 $142 $52 #
plane-surface $-1 0 0 -12.766492296430217 0 0 1 1 0 0 forward_v I I I I #
coedge $-1 $143 $88 $144 $145 reversed $53 $-1 #
coedge $-1 $146 $55 $147 $148 reversed $34 $-1 #
coedge $-1 $55 $146 $149 $150 reversed $34 $-1 #
coedge $-1 $85 $151 $55 $89 reversed $53 $-1 #
edge $-1 $152 -39.506233350376242 $153 39.506233350376242 $88 $154 forward 7 unknown #
face $-1 $155 $156 $20 $-1 $157 forward single #
loop $-1 $-1 $158 $56 #
plane-surface $-1 -19.265254112899214 -147.02734988981467 73.226133091287565 -1 0 0 0 -0.82903758062907751 0.55919289150049634 forward_v I I I I #
coedge $-1 $159 $160 $161 $162 reversed $57 $-1 #
coedge $-1 $95 $59 $163 $164 reversed $37 $-1 #
coedge $-1 $59 $94 $159 $165 reversed $37 $-1 #
coedge $-1 $161 $166 $59 $97 forward $167 $-1 #
edge $-1 $168 23.846574249213567 $169 35.910840041832294 $96 $170 forward 7 unknown #
loop $-1 $-1 $103 $60 #
plane-surface $-1 -36.833863550197741 -39.506233350376263 0.70222650381145968 0 -0.82903758062907751 0.55919289150049634 1 0 0 forward_v I I I I #
loop $-1 $-1 $171 $39 #
coedge $-1 $101 $101 $102 $172 reversed $61 $-1 #
coedge $-1 $102 $102 $101 $172 forward $63 $-1 #
coedge $-1 $103 $103 $64 $104 forward $98 $-1 #
edge $-1 $173 5.5432318627407654e-017 $173 6.2831853071796004 $103 $174 forward 7 unknown #
face $-1 $175 $176 $22 $-1 $177 reversed single #
loop $-1 $-1 $178 $65 #
plane-surface $-1 -19.265254112899214 102.84414017083418 138.73043732441494 -1 0 0 0 0.82903758062907751 0.55919289150049634 forward_v I I I I #
coedge $-1 $179 $180 $181 $182 reversed $66 $-1 #
coedge $-1 $110 $68 $183 $184 reversed $43 $-1 #
coedge $-1 $68 $109 $179 $185 reversed $43 $-1 #
coedge $-1 $181 $186 $68 $112 forward $187 $-1 #
edge $-1 $188 11.915836735040848 $189 20.053286508169279 $111 $190 forward 7 unknown #
loop $-1 $-1 $118 $69 #
plane-surface $-1 -36.833863550197741 -4.6769763686042296 66.206530736938831 0 0.82903758062907751 0.55919289150049634 1 0 0 forward_v I I I I #
loop $-1 $-1 $191 $45 #
coedge $-1 $116 $116 $117 $192 reversed $70 $-1 #
coedge $-1 $117 $117 $116 $192 forward $72 $-1 #
coedge $-1 $118 $118 $73 $119 forward $113 $-1 #
edge $-1 $193 1.1665521130715569e-016 $193 6.2831853071796004 $118 $194 forward 7 unknown #
face $-1 $195 $196 $18 $-1 $197 reversed single #
loop $-1 $-1 $198 $74 #
plane-surface $-1 -64.846949674977878 0 0 1 0 0 0 0 -1 forward_v I I I I #
coedge $-1 $199 $131 $200 $201 forward $75 $-1 #
coedge $-1 $202 $77 $199 $203 forward $49 $-1 #
coedge $-1 $77 $202 $204 $205 forward $49 $-1 #
coedge $-1 $134 $133 $77 $127 reversed $135 $-1 #
edge $-1 $206 -39.506233350376242 $207 39.506233350376242 $126 $208 forward 7 unknown #
coedge $-1 $79 $78 $209 $210 forward $31 $-1 #
coedge $-1 $211 $212 $78 $130 reversed $196 $-1 #
edge $-1 $137 -64.846949674977878 $213 64.846949674977878 $129 $214 forward 7 unknown #
coedge $-1 $123 $215 $79 $132 reversed $75 $-1 #
edge $-1 $216 -64.846949674977878 $136 64.846949674977878 $131 $217 forward 7 unknown #
coedge $-1 $126 $80 $215 $218 forward $135 $-1 #
coedge $-1 $80 $126 $211 $219 reversed $135 $-1 #
loop $-1 $-1 $133 $195 #
vertex $-1 $81 $220 #
vertex $-1 $81 $221 #
straight-curve $-1 64.846949674977878 0 12.766492296430217 0 1 0 I I #
face $-1 $222 $223 $19 $-1 $224 reversed single #
loop $-1 $-1 $144 $82 #
plane-surface $-1 0 -39.506233350376242 0 0 1 0 0 0 1 forward_v I I I I #
coedge $-1 $225 $226 $143 $227 forward $83 $-1 #
coedge $-1 $151 $85 $142 $227 reversed $53 $-1 #
coedge $-1 $149 $228 $85 $145 forward $140 $-1 #
edge $-1 $229 -8.0361654036547385 $152 -1.424488381896218 $144 $230 forward 7 unknown #
coedge $-1 $87 $86 $231 $232 reversed $34 $-1 #
coedge $-1 $233 $234 $86 $148 forward $235 $-1 #
edge $-1 $236 -35.034594009359338 $153 -24.590117321877731 $147 $237 forward 7 unknown #
coedge $-1 $238 $144 $87 $150 forward $140 $-1 #
edge $-1 $152 24.590117321877731 $239 35.034594009359338 $149 $240 forward 7 unknown #
coedge $-1 $88 $143 $233 $241 reversed $53 $-1 #
vertex $-1 $150 $242 #
vertex $-1 $148 $243 #
straight-curve $-1 -54.402472987496267 0 -6.1548152746716962 0 1 0 I I #
face $-1 $-1 $167 $20 $-1 $244 reversed single #
loop $-1 $-1 $245 $90 #
plane-surface $-1 0 0 12.766492296430217 0 0 1 1 0 0 forward_v I I I I #
coedge $-1 $246 $247 $248 $249 reversed $91 $-1 #
coedge $-1 $250 $93 $95 $165 forward $57 $-1 #
coedge $-1 $93 $250 $246 $251 forward $57 $-1 #
coedge $-1 $248 $96 $93 $162 forward $167 $-1 #
edge $-1 $169 -35.985541212397393 $252 -0.84832233780034372 $161 $253 forward 7 unknown #
coedge $-1 $254 $255 $94 $164 forward $156 $-1 #
edge $-1 $256 -42.144891367659483 $168 -34.007441594531095 $163 $257 forward 7 unknown #
edge $-1 $169 3.8151786801708093e-014 $256 14.552133792854526 $95 $258 forward 7 unknown #
coedge $-1 $96 $248 $254 $259 reversed $167 $-1 #
loop $-1 $-1 $248 $155 #
vertex $-1 $259 $260 #
vertex $-1 $97 $261 #
straight-curve $-1 -54.402472987496267 -39.506233350376242 36.613066545643782 0 0 -1 I I #
coedge $-1 $171 $171 $-1 $262 reversed $100 $-1 #
edge $-1 $263 0 $263 6.2831853071796004 $101 $264 forward 7 unknown #
vertex $-1 $104 $265 #
ellipse-curve $-1 -36.833863550197734 -35.437508463812058 6.7343594001208436 0 -0.82903758062907751 0.55919289150049634 2.5 0 0 1 I I #
face $-1 $-1 $187 $22 $-1 $266 forward single #
loop $-1 $-1 $267 $105 #
plane-surface $-1 0 39.506233350376242 0 0 -1 0 0 0 -1 forward_v I I I I #
coedge $-1 $268 $269 $270 $271 reversed $106 $-1 #
coedge $-1 $272 $108 $110 $185 forward $66 $-1 #
coedge $-1 $108 $272 $268 $273 forward $66 $-1 #
coedge $-1 $270 $111 $108 $182 forward $187 $-1 #
edge $-1 $189 -35.985541212397393 $274 -0.84832233780034372 $181 $275 forward 7 unknown #
coedge $-1 $276 $277 $109 $184 forward $176 $-1 #
edge $-1 $278 -68.662992158396037 $188 -56.598726365777253 $183 $279 forward 7 unknown #
edge $-1 $189 64.460332907897936 $278 79.012466700752498 $110 $280 forward 7 unknown #
coedge $-1 $111 $270 $276 $281 forward $187 $-1 #
loop $-1 $-1 $270 $175 #
vertex $-1 $184 $282 #
vertex $-1 $112 $283 #
straight-curve $-1 -54.402472987496267 51.42207008541709 12.766492296430215 0 -1 0 I I #
coedge $-1 $191 $191 $-1 $284 reversed $115 $-1 #
edge $-1 $285 0 $285 6.2831853071796004 $116 $286 forward 7 unknown #
vertex $-1 $119 $287 #
ellipse-curve $-1 -36.833863550197734 35.437508463812037 6.7343594001208054 0 0.82903758062907751 0.55919289150049634 2.5 0 0 1 I I #
face $-1 $-1 $135 $18 $-1 $288 reversed single #
loop $-1 $-1 $211 $120 #
plane-surface $-1 0 39.506233350376242 0 0 -1 0 0 0 -1 forward_v I I I I #
coedge $-1 $289 $209 $212 $290 forward $121 $-1 #
coedge $-1 $215 $123 $124 $203 reversed $75 $-1 #
coedge $-1 $209 $289 $123 $201 reversed $121 $-1 #
edge $-1 $216 -12.766492296430217 $291 12.766492296430217 $200 $292 forward 7 unknown #
coedge $-1 $125 $124 $289 $293 forward $49 $-1 #
edge $-1 $207 -64.846949674977878 $291 64.846949674977878 $199 $294 forward 7 unknown #
coedge $-1 $212 $211 $125 $205 reversed $196 $-1 #
edge $-1 $295 -64.846949674977878 $206 64.846949674977878 $204 $296 forward 7 unknown #
vertex $-1 $127 $297 #
vertex $-1 $218 $298 #
straight-curve $-1 64.846949674977878 0 -12.766492296430217 0 -1 0 I I #
coedge $-1 $198 $200 $128 $210 reversed $121 $-1 #
edge $-1 $213 -39.506233350376242 $216 39.506233350376242 $209 $299 forward 7 unknown #
coedge $-1 $204 $129 $134 $219 forward $196 $-1 #
coedge $-1 $129 $204 $198 $290 reversed $196 $-1 #
vertex $-1 $130 $300 #
straight-curve $-1 0 39.506233350376242 12.766492296430217 -1 0 0 I I #
coedge $-1 $131 $199 $133 $218 reversed $75 $-1 #
vertex $-1 $210 $301 #
straight-curve $-1 0 -39.506233350376242 12.766492296430217 1 0 0 I I #
edge $-1 $136 -12.766492296430217 $207 12.766492296430217 $133 $302 forward 7 unknown #
edge $-1 $137 -12.766492296430217 $206 12.766492296430217 $134 $303 forward 7 unknown #
point $-1 64.846949674977878 -39.506233350376242 12.766492296430217 #
point $-1 64.846949674977878 39.506233350376242 12.766492296430217 #
face $-1 $-1 $235 $19 $-1 $304 reversed single #
loop $-1 $-1 $231 $139 #
plane-surface $-1 -64.846949674977878 0 0 1 0 0 0 0 -1 forward_v I I I I #
coedge $-1 $305 $142 $228 $306 forward $83 $-1 #
coedge $-1 $142 $305 $307 $308 forward $83 $-1 #
edge $-1 $309 -39.506233350376242 $229 39.506233350376242 $142 $310 forward 7 unknown #
coedge $-1 $144 $238 $225 $306 reversed $140 $-1 #
vertex $-1 $306 $311 #
straight-curve $-1 -54.402472987496267 -39.506233350376242 -4.7303268927754782 0 0 1 I I #
coedge $-1 $312 $313 $146 $232 forward $223 $-1 #
edge $-1 $239 -39.506233350376242 $236 39.506233350376242 $231 $314 forward 7 unknown #
coedge $-1 $307 $147 $151 $241 forward $235 $-1 #
coedge $-1 $147 $307 $312 $315 reversed $235 $-1 #
loop $-1 $-1 $233 $222 #
vertex $-1 $315 $316 #
straight-curve $-1 -29.812355665618536 39.506233350376242 -6.1548152746716962 1 0 0 I I #
coedge $-1 $228 $149 $313 $317 forward $140 $-1 #
vertex $-1 $317 $318 #
straight-curve $-1 -29.812355665618536 -39.506233350376242 -6.1548152746716962 -1 0 0 I I #
edge $-1 $153 1.424488381896218 $309 8.0361654036547385 $233 $319 forward 7 unknown #
point $-1 -54.402472987496267 -39.506233350376242 -6.1548152746716962 #
point $-1 -54.402472987496267 39.506233350376242 -6.1548152746716962 #
plane-surface $-1 0 -39.506233350376242 0 0 1 0 0 0 1 forward_v I I I I #
coedge $-1 $255 $254 $247 $320 forward $156 $-1 #
coedge $-1 $247 $158 $160 $251 reversed $91 $-1 #
coedge $-1 $158 $246 $245 $320 reversed $91 $-1 #
coedge $-1 $166 $161 $158 $249 forward $167 $-1 #
edge $-1 $252 -35.910840041832294 $321 -23.846574249213567 $248 $322 forward 7 unknown #
coedge $-1 $160 $159 $255 $323 reversed $57 $-1 #
edge $-1 $324 -14.552133792854526 $252 -3.8151786801708093e-014 $246 $325 forward 7 unknown #
vertex $-1 $162 $326 #
straight-curve $-1 -18.41693177509887 -39.506233350376242 0.70222650381148477 1 0 0 I I #
coedge $-1 $245 $163 $166 $259 forward $156 $-1 #
coedge $-1 $163 $245 $250 $323 forward $156 $-1 #
vertex $-1 $164 $327 #
straight-curve $-1 -54.402472987496267 -73.513674944907336 12.766492296430215 0 -1 0 I I #
straight-curve $-1 -54.402472987496267 -39.506233350376263 0.70222650381145968 0 0.55919289150049634 0.82903758062907751 I I #
edge $-1 $168 -54.402472987496267 $321 -19.265254112899214 $166 $328 forward 7 unknown #
point $-1 -54.402472987496267 -39.506233350376242 12.766492296430217 #
point $-1 -54.402472987496267 -39.506233350376242 0.70222650381149132 #
edge $-1 $329 1 $329 0 $171 $-1 forward 7 unknown #
vertex $-1 $172 $330 #
ellipse-curve $-1 -36.833863550197734 -31.273028554830603 3.925382320780245 0 -0.82903758062907751 0.55919289150049634 2.5 0 0 1 I I #
point $-1 -34.333863550197734 -35.437508463812037 6.7343594001208293 #
plane-surface $-1 0 0 12.766492296430217 0 0 1 1 0 0 forward_v I I I I #
coedge $-1 $277 $276 $269 $331 forward $176 $-1 #
coedge $-1 $269 $178 $180 $273 reversed $106 $-1 #
coedge $-1 $178 $268 $267 $331 reversed $106 $-1 #
coedge $-1 $186 $181 $178 $271 forward $187 $-1 #
edge $-1 $274 -20.053286508169279 $332 -11.915836735040848 $270 $333 forward 7 unknown #
coedge $-1 $180 $179 $277 $334 reversed $66 $-1 #
edge $-1 $335 -79.012466700752498 $274 -64.460332907897936 $268 $336 forward 7 unknown #
vertex $-1 $182 $337 #
straight-curve $-1 -18.41693177509887 31.368783577247818 12.766492296430215 1 0 0 I I #
coedge $-1 $267 $183 $186 $281 reversed $176 $-1 #
coedge $-1 $183 $267 $272 $334 forward $176 $-1 #
vertex $-1 $184 $338 #
straight-curve $-1 -54.402472987496267 39.506233350376242 69.365218662207468 0 0 1 I I #
straight-curve $-1 -54.402472987496267 -4.6769763686042296 66.206530736938831 0 0.55919289150049634 -0.82903758062907751 I I #
edge $-1 $332 19.265254112899214 $188 54.402472987496267 $276 $339 forward 7 unknown #
point $-1 -54.402472987496267 39.506233350376242 12.766492296430217 #
point $-1 -54.402472987496267 31.368783577247811 12.766492296430215 #
edge $-1 $340 1 $340 0 $191 $-1 forward 7 unknown #
vertex $-1 $192 $341 #
ellipse-curve $-1 -36.833863550197734 31.273028554830614 3.9253823207802254 0 0.82903758062907751 0.55919289150049634 2.5 0 0 1 I I #
point $-1 -34.333863550197734 35.437508463812044 6.7343594001208098 #
plane-surface $-1 64.846949674977878 0 0 -1 0 0 0 0 1 forward_v I I I I #
coedge $-1 $200 $198 $202 $293 reversed $121 $-1 #
edge $-1 $213 -12.766492296430217 $295 12.766492296430217 $212 $342 forward 7 unknown #
vertex $-1 $293 $343 #
straight-curve $-1 -64.846949674977878 -39.506233350376242 0 0 0 -1 I I #
edge $-1 $291 -39.506233350376242 $295 39.506233350376242 $289 $344 forward 7 unknown #
straight-curve $-1 0 -39.506233350376242 -12.766492296430217 -1 0 0 I I #
vertex $-1 $205 $345 #
straight-curve $-1 0 39.506233350376242 -12.766492296430217 1 0 0 I I #
point $-1 64.846949674977878 39.506233350376242 -12.766492296430217 #
point $-1 64.846949674977878 -39.506233350376242 -12.766492296430217 #
straight-curve $-1 -64.846949674977878 0 12.766492296430217 0 -1 0 I I #
point $-1 -64.846949674977878 39.506233350376242 12.766492296430217 #
point $-1 -64.846949674977878 -39.506233350376242 12.766492296430217 #
straight-curve $-1 64.846949674977878 -39.506233350376242 0 0 0 -1 I I #
straight-curve $-1 64.846949674977878 39.506233350376242 0 0 0 -1 I I #
plane-surface $-1 0 39.506233350376242 0 0 -1 0 0 0 -1 forward_v I I I I #
coedge $-1 $226 $225 $346 $347 forward $83 $-1 #
edge $-1 $229 54.402472987496267 $348 64.846949674977878 $228 $349 forward 7 unknown #
coedge $-1 $234 $233 $226 $308 reversed $235 $-1 #
edge $-1 $350 -64.846949674977878 $309 -54.402472987496267 $307 $351 forward 7 unknown #
vertex $-1 $241 $352 #
straight-curve $-1 -54.402472987496267 0 -12.766492296430217 0 -1 0 I I #
point $-1 -54.402472987496267 -39.506233350376242 -12.766492296430217 #
coedge $-1 $346 $231 $234 $315 forward $223 $-1 #
coedge $-1 $231 $346 $238 $317 reversed $223 $-1 #
straight-curve $-1 -64.846949674977878 0 -6.1548152746716962 0 1 0 I I #
edge $-1 $236 6.1548152746716962 $350 12.766492296430217 $234 $353 forward 7 unknown #
point $-1 -64.846949674977878 39.506233350376242 -6.1548152746716962 #
edge $-1 $239 6.1548152746716962 $348 12.766492296430217 $313 $354 forward 7 unknown #
point $-1 -64.846949674977878 -39.506233350376242 -6.1548152746716962 #
straight-curve $-1 -54.402472987496267 39.506233350376242 -4.7303268927754782 0 0 -1 I I #
edge $-1 $321 34.007441594531095 $324 42.144891367659483 $245 $355 forward 7 unknown #
vertex $-1 $249 $356 #
straight-curve $-1 -19.265254112899214 -39.506233350376242 36.613066545643782 0 0 1 I I #
edge $-1 $324 0.84832233780034372 $256 35.985541212397393 $255 $357 forward 7 unknown #
vertex $-1 $323 $358 #
straight-curve $-1 -19.265254112899214 -39.506233350376263 0.70222650381145968 0 -0.55919289150049634 -0.82903758062907751 I I #
point $-1 -19.265254112899214 -39.506233350376242 0.70222650381149132 #
point $-1 -54.402472987496267 -31.368783577247857 12.766492296430217 #
straight-curve $-1 0 -39.506233350376242 12.766492296430217 1 0 0 I I #
vertex $-1 $262 $359 #
point $-1 -34.333863550197734 -31.273028554830603 3.925382320780245 #
edge $-1 $332 56.598726365777253 $335 68.662992158396037 $267 $360 forward 7 unknown #
vertex $-1 $281 $361 #
straight-curve $-1 -19.265254112899214 51.42207008541709 12.766492296430215 0 1 0 I I #
edge $-1 $335 0.84832233780034372 $278 35.985541212397393 $277 $362 forward 7 unknown #
vertex $-1 $334 $363 #
straight-curve $-1 -19.265254112899214 -4.6769763686042296 66.206530736938831 0 -0.55919289150049634 0.82903758062907751 I I #
point $-1 -19.265254112899214 31.368783577247811 12.766492296430215 #
point $-1 -54.402472987496267 39.506233350376242 0.70222650381143126 #
straight-curve $-1 0 39.506233350376242 12.766492296430217 -1 0 0 I I #
vertex $-1 $284 $364 #
point $-1 -34.333863550197734 31.273028554830614 3.9253823207802254 #
straight-curve $-1 -64.846949674977878 39.506233350376242 0 0 0 -1 I I #
point $-1 -64.846949674977878 -39.506233350376242 -12.766492296430217 #
straight-curve $-1 -64.846949674977878 0 -12.766492296430217 0 1 0 I I #
point $-1 -64.846949674977878 39.506233350376242 -12.766492296430217 #
coedge $-1 $313 $312 $305 $347 reversed $223 $-1 #
edge $-1 $348 -39.506233350376242 $350 39.506233350376242 $346 $365 forward 7 unknown #
vertex $-1 $347 $366 #
straight-curve $-1 0 -39.506233350376242 -12.766492296430217 -1 0 0 I I #
vertex $-1 $308 $367 #
straight-curve $-1 0 39.506233350376242 -12.766492296430217 1 0 0 I I #
point $-1 -54.402472987496267 39.506233350376242 -12.766492296430217 #
straight-curve $-1 -64.846949674977878 39.506233350376242 0 0 0 -1 I I #
straight-curve $-1 -64.846949674977878 -39.506233350376242 0 0 0 -1 I I #
straight-curve $-1 -19.265254112899214 -73.513674944907336 12.766492296430215 0 1 0 I I #
point $-1 -19.265254112899214 -39.506233350376242 12.766492296430217 #
straight-curve $-1 -18.41693177509887 -31.368783577247857 12.766492296430217 -1 0 0 I I #
point $-1 -19.265254112899214 -31.368783577247857 12.766492296430217 #
point $-1 -36.833863550197734 -29.200434603257911 2.5274000920290041 #
straight-curve $-1 -19.265254112899214 39.506233350376242 69.365218662207468 0 0 -1 I I #
point $-1 -19.265254112899214 39.506233350376242 12.766492296430217 #
straight-curve $-1 -18.41693177509887 39.506233350376249 0.70222650381143126 -1 0 0 I I #
point $-1 -19.265254112899214 39.506233350376242 0.70222650381143126 #
point $-1 -36.833863550197734 29.200434603257921 2.5274000920289845 #
straight-curve $-1 -64.846949674977878 0 -12.766492296430217 0 1 0 I I #
point $-1 -64.846949674977878 -39.506233350376242 -12.766492296430217 #
point $-1 -64.846949674977878 39.506233350376242 -12.766492296430217 #
End-of-ACIS-data 