500 0 5 0           
7 Unknown 11 ACIS 5.0 NT 24 Thu Mar 25 16:23:41 1999 
-1 9.9999999999999995e-007 1e-010 
body $-1 $5 $-1 $6 #
body $-1 $7 $-1 $8 #
body $-1 $9 $-1 $10 #
body $-1 $11 $-1 $12 #
body $-1 $13 $-1 $14 #
lump $-1 $-1 $15 $0 #
transform $-1 1 0 0 0 1 0 0 0 1 67.030854213080232 45.090917342592071 17.058917717137444 1 rotate no_reflect no_shear #
lump $-1 $-1 $16 $1 #
transform $-1 1 0 0 0 1 0 0 0 1 67.030854213080232 45.090917342592071 17.058917717137444 1 rotate no_reflect no_shear #
lump $-1 $-1 $17 $2 #
transform $-1 1 0 0 0 1 0 0 0 1 67.030854213080232 45.090917342592071 17.058917717137444 1 rotate no_reflect no_shear #
lump $-1 $-1 $18 $3 #
transform $-1 1 0 0 0 1 0 0 0 1 67.030854213080232 45.090917342592071 17.058917717137444 1 rotate no_reflect no_shear #
lump $-1 $-1 $19 $4 #
transform $-1 1 0 0 0 1 0 0 0 1 67.030854213080232 45.090917342592071 17.058917717137444 1 rotate no_reflect no_shear #
shell $-1 $-1 $-1 $20 $-1 $5 #
shell $-1 $-1 $-1 $21 $-1 $7 #
shell $-1 $-1 $-1 $22 $-1 $9 #
shell $-1 $-1 $-1 $23 $-1 $11 #
shell $-1 $-1 $-1 $24 $-1 $13 #
face $-1 $25 $26 $15 $-1 $27 forward single #
face $-1 $28 $29 $16 $-1 $30 forward single #
face $-1 $31 $32 $17 $-1 $33 reversed single #
face $-1 $34 $35 $18 $-1 $36 forward single #
face $-1 $37 $38 $19 $-1 $39 forward single #
face $-1 $40 $41 $15 $-1 $42 reversed single #
loop $-1 $-1 $43 $20 #
plane-surface $-1 0 0 17.058917717137444 0 0 1 1 0 0 forward_v I I I I #
face $-1 $44 $45 $16 $-1 $46 reversed single #
loop $-1 $-1 $47 $21 #
plane-surface $-1 -67.030854213080232 0 0 1 0 0 0 0 -1 forward_v I I I I #
face $-1 $48 $49 $17 $-1 $50 reversed single #
loop $-1 $-1 $51 $22 #
plane-surface $-1 34.985752513536369 78.881275461434967 166.60235477588662 1 0 0 0 -0.71933980857756763 -0.69465836192734942 forward_v I I I I #
face $-1 $52 $53 $18 $-1 $54 forward single #
loop $-1 $55 $56 $23 #
cone-surface $-1 44.141495856263191 38.576830117863224 10.48321109985897 0 -0.71933980857756763 -0.69465836192734942 2 0 0 1 I I 0 1 2 forward I I I I #
face $-1 $57 $58 $19 $-1 $59 forward single #
loop $-1 $60 $61 $24 #
cone-surface $-1 57.87511087035341 38.576830117863224 10.48321109985897 0 -0.71933980857756763 -0.69465836192734942 2 0 0 1 I I 0 1 2 forward I I I I #
face $-1 $62 $63 $15 $-1 $64 reversed single #
loop $-1 $-1 $65 $25 #
plane-surface $-1 0 0 -17.058917717137444 0 0 1 1 0 0 forward_v I I I I #
coedge $-1 $66 $67 $68 $69 forward $26 $-1 #
face $-1 $70 $71 $16 $-1 $72 reversed single #
loop $-1 $-1 $73 $28 #
plane-surface $-1 0 45.090917342592071 0 0 -1 0 0 0 -1 forward_v I I I I #
coedge $-1 $74 $75 $76 $77 forward $29 $-1 #
face $-1 $78 $79 $17 $-1 $80 forward single #
loop $-1 $-1 $81 $31 #
plane-surface $-1 51.008303363308301 -17.554648215420983 73.475268003388052 0 0.71933980857756763 0.69465836192734942 1 0 0 forward_v I I I I #
coedge $-1 $82 $83 $84 $85 reversed $32 $-1 #
face $-1 $-1 $86 $18 $-1 $87 forward single #
loop $-1 $88 $89 $34 #
cone-surface $-1 44.141495856263191 35.425868416610534 7.4403628273349547 0 -0.71933980857756763 -0.69465836192734942 1 0 0 1 I I -0.70710678118654746 0.70710678118654746 1 forward I I I I #
loop $-1 $-1 $90 $23 #
coedge $-1 $56 $56 $91 $92 reversed $35 $-1 #
face $-1 $-1 $93 $19 $-1 $94 forward single #
loop $-1 $95 $96 $37 #
cone-surface $-1 57.87511087035341 35.425868416610534 7.4403628273349547 0 -0.71933980857756763 -0.69465836192734942 1 0 0 1 I I -0.70710678118654746 0.70710678118654746 1 forward I I I I #
loop $-1 $-1 $97 $24 #
coedge $-1 $61 $61 $98 $99 reversed $38 $-1 #
face $-1 $100 $101 $15 $-1 $102 reversed single #
loop $-1 $-1 $103 $40 #
plane-surface $-1 0 -45.090917342592071 0 0 1 0 0 0 1 forward_v I I I I #
coedge $-1 $104 $105 $106 $107 forward $41 $-1 #
coedge $-1 $108 $43 $109 $110 forward $26 $-1 #
coedge $-1 $43 $108 $111 $112 forward $26 $-1 #
coedge $-1 $113 $114 $43 $69 reversed $115 $-1 #
edge $-1 $116 -45.090917342592071 $117 45.090917342592071 $68 $118 forward 7 unknown #
face $-1 $119 $120 $16 $-1 $121 reversed single #
loop $-1 $-1 $76 $44 #
plane-surface $-1 -77.874150372834038 0 6.9980764779736209 0 0 1 1 0 0 forward_v I I I I #
coedge $-1 $122 $123 $74 $124 forward $45 $-1 #
coedge $-1 $125 $47 $73 $124 reversed $29 $-1 #
coedge $-1 $47 $125 $126 $127 reversed $29 $-1 #
coedge $-1 $128 $129 $47 $77 reversed $71 $-1 #
edge $-1 $130 -45.090917342592071 $131 45.090917342592071 $76 $132 forward 7 unknown #
face $-1 $133 $134 $17 $-1 $135 reversed single #
loop $-1 $-1 $84 $48 #
plane-surface $-1 0 0 17.058917717137444 0 0 1 1 0 0 forward_v I I I I #
coedge $-1 $136 $137 $138 $139 reversed $49 $-1 #
coedge $-1 $83 $51 $140 $141 reversed $32 $-1 #
coedge $-1 $51 $82 $136 $142 reversed $32 $-1 #
coedge $-1 $138 $143 $51 $85 forward $79 $-1 #
edge $-1 $144 -5.6502796118745877 $145 2.5146510522328782 $84 $146 forward 7 unknown #
loop $-1 $-1 $91 $52 #
plane-surface $-1 51.008303363308301 -17.554648215420983 73.475268003388052 0 0.71933980857756763 0.69465836192734942 1 0 0 forward_v I I I I #
loop $-1 $-1 $147 $34 #
coedge $-1 $89 $89 $90 $148 reversed $53 $-1 #
coedge $-1 $90 $90 $89 $148 forward $55 $-1 #
coedge $-1 $91 $91 $56 $92 forward $86 $-1 #
edge $-1 $149 -6.3890209440981471e-016 $149 6.2831853071795996 $91 $150 forward 7 unknown #
loop $-1 $-1 $98 $57 #
plane-surface $-1 51.008303363308301 -17.554648215420983 73.475268003388052 0 0.71933980857756763 0.69465836192734942 1 0 0 forward_v I I I I #
loop $-1 $-1 $151 $37 #
coedge $-1 $96 $96 $97 $152 reversed $58 $-1 #
coedge $-1 $97 $97 $96 $152 forward $60 $-1 #
coedge $-1 $98 $98 $61 $99 forward $93 $-1 #
edge $-1 $153 -6.3890209440981471e-016 $153 6.2831853071795996 $98 $154 forward 7 unknown #
face $-1 $155 $156 $15 $-1 $157 reversed single #
loop $-1 $-1 $158 $62 #
plane-surface $-1 -67.030854213080232 0 0 1 0 0 0 0 -1 forward_v I I I I #
coedge $-1 $159 $111 $160 $161 forward $63 $-1 #
coedge $-1 $162 $65 $159 $163 forward $41 $-1 #
coedge $-1 $65 $162 $164 $165 forward $41 $-1 #
coedge $-1 $114 $113 $65 $107 reversed $115 $-1 #
edge $-1 $166 -45.090917342592071 $167 45.090917342592071 $106 $168 forward 7 unknown #
coedge $-1 $67 $66 $169 $170 forward $26 $-1 #
coedge $-1 $171 $172 $66 $110 reversed $156 $-1 #
edge $-1 $117 -67.030854213080232 $173 67.030854213080232 $109 $174 forward 7 unknown #
coedge $-1 $103 $175 $67 $112 reversed $63 $-1 #
edge $-1 $176 -67.030854213080232 $116 67.030854213080232 $111 $177 forward 7 unknown #
coedge $-1 $106 $68 $175 $178 forward $115 $-1 #
coedge $-1 $68 $106 $171 $179 reversed $115 $-1 #
loop $-1 $-1 $113 $155 #
vertex $-1 $69 $180 #
vertex $-1 $69 $181 #
straight-curve $-1 67.030854213080232 0 17.058917717137444 0 1 0 I I #
face $-1 $182 $183 $16 $-1 $184 forward single #
loop $-1 $-1 $185 $70 #
plane-surface $-1 -88.717446532587843 0 12.028497097555533 1 0 0 0 0 -1 forward_v I I I I #
coedge $-1 $186 $73 $129 $187 reversed $45 $-1 #
coedge $-1 $73 $186 $188 $189 reversed $45 $-1 #
edge $-1 $190 -17.058917717137444 $131 -6.9980764779736209 $73 $191 forward 7 unknown #
coedge $-1 $75 $74 $192 $193 reversed $29 $-1 #
coedge $-1 $194 $195 $75 $127 forward $196 $-1 #
edge $-1 $130 6.9980764779736209 $197 17.058917717137444 $126 $198 forward 7 unknown #
coedge $-1 $199 $76 $195 $200 forward $71 $-1 #
coedge $-1 $76 $199 $122 $187 forward $71 $-1 #
vertex $-1 $127 $201 #
vertex $-1 $124 $202 #
straight-curve $-1 -67.030854213080232 0 6.9980764779736209 0 1 0 I I #
face $-1 $-1 $203 $17 $-1 $204 reversed single #
loop $-1 $-1 $140 $78 #
plane-surface $-1 0 45.090917342592071 0 0 -1 0 0 0 -1 forward_v I I I I #
coedge $-1 $205 $81 $83 $142 forward $49 $-1 #
coedge $-1 $81 $205 $206 $207 reversed $49 $-1 #
coedge $-1 $208 $84 $81 $139 forward $79 $-1 #
edge $-1 $145 9.4816008318822185 $209 41.526702531426082 $138 $210 forward 7 unknown #
coedge $-1 $211 $212 $82 $141 forward $134 $-1 #
edge $-1 $213 -74.697293084169473 $144 -66.242259670805865 $140 $214 forward 7 unknown #
edge $-1 $145 78.427955207718966 $213 90.181834685184157 $83 $215 forward 7 unknown #
coedge $-1 $84 $208 $211 $216 forward $79 $-1 #
vertex $-1 $85 $217 #
vertex $-1 $85 $218 #
straight-curve $-1 34.985752513536369 39.440637730717484 17.058917717137447 0 -1 0 I I #
coedge $-1 $147 $147 $-1 $219 reversed $88 $-1 #
edge $-1 $220 0 $220 6.2831853071796004 $89 $221 forward 7 unknown #
vertex $-1 $92 $222 #
ellipse-curve $-1 44.141495856263191 41.008452010538342 12.831401010455632 0 0.71933980857756763 0.69465836192734942 2 0 0 1 I I #
coedge $-1 $151 $151 $-1 $223 reversed $95 $-1 #
edge $-1 $224 0 $224 6.2831853071796004 $96 $225 forward 7 unknown #
vertex $-1 $99 $226 #
ellipse-curve $-1 57.87511087035341 41.008452010538342 12.831401010455632 0 0.71933980857756763 0.69465836192734942 2 0 0 1 I I #
face $-1 $-1 $115 $15 $-1 $227 reversed single #
loop $-1 $-1 $171 $100 #
plane-surface $-1 0 45.090917342592071 0 0 -1 0 0 0 -1 forward_v I I I I #
coedge $-1 $228 $169 $172 $229 forward $101 $-1 #
coedge $-1 $175 $103 $104 $163 reversed $63 $-1 #
coedge $-1 $169 $228 $103 $161 reversed $101 $-1 #
edge $-1 $176 -17.058917717137444 $230 17.058917717137444 $160 $231 forward 7 unknown #
coedge $-1 $105 $104 $228 $232 forward $41 $-1 #
edge $-1 $167 -67.030854213080232 $230 67.030854213080232 $159 $233 forward 7 unknown #
coedge $-1 $172 $171 $105 $165 reversed $156 $-1 #
edge $-1 $234 -67.030854213080232 $166 67.030854213080232 $164 $235 forward 7 unknown #
vertex $-1 $107 $236 #
vertex $-1 $178 $237 #
straight-curve $-1 67.030854213080232 0 -17.058917717137444 0 -1 0 I I #
coedge $-1 $158 $160 $108 $170 reversed $101 $-1 #
edge $-1 $173 -45.090917342592071 $176 45.090917342592071 $169 $238 forward 7 unknown #
coedge $-1 $164 $109 $114 $179 forward $156 $-1 #
coedge $-1 $109 $164 $158 $229 reversed $156 $-1 #
vertex $-1 $110 $239 #
straight-curve $-1 0 45.090917342592071 17.058917717137444 -1 0 0 I I #
coedge $-1 $111 $159 $113 $178 reversed $63 $-1 #
vertex $-1 $170 $240 #
straight-curve $-1 0 -45.090917342592071 17.058917717137444 1 0 0 I I #
edge $-1 $116 -17.058917717137444 $167 17.058917717137444 $113 $241 forward 7 unknown #
edge $-1 $117 -17.058917717137444 $166 17.058917717137444 $114 $242 forward 7 unknown #
point $-1 67.030854213080232 -45.090917342592071 17.058917717137444 #
point $-1 67.030854213080232 45.090917342592071 17.058917717137444 #
face $-1 $-1 $196 $16 $-1 $243 reversed single #
loop $-1 $-1 $192 $119 #
plane-surface $-1 0 0 17.058917717137444 0 0 1 1 0 0 forward_v I I I I #
coedge $-1 $244 $245 $186 $246 forward $120 $-1 #
coedge $-1 $123 $122 $185 $246 reversed $45 $-1 #
edge $-1 $247 -10.843296159753805 $131 10.843296159753805 $122 $248 forward 7 unknown #
coedge $-1 $249 $192 $123 $189 forward $183 $-1 #
edge $-1 $190 67.030854213080232 $250 88.717446532587843 $123 $251 forward 7 unknown #
vertex $-1 $189 $252 #
straight-curve $-1 -67.030854213080232 45.090917342592071 0 0 0 -1 I I #
coedge $-1 $188 $253 $125 $193 forward $183 $-1 #
edge $-1 $197 -45.090917342592071 $190 45.090917342592071 $192 $254 forward 7 unknown #
coedge $-1 $255 $126 $253 $256 reversed $196 $-1 #
coedge $-1 $126 $255 $128 $200 reversed $196 $-1 #
loop $-1 $-1 $126 $182 #
vertex $-1 $127 $257 #
straight-curve $-1 -67.030854213080232 -45.090917342592071 0 0 0 1 I I #
coedge $-1 $129 $128 $244 $258 forward $71 $-1 #
edge $-1 $130 -10.843296159753805 $259 10.843296159753805 $195 $260 forward 7 unknown #
point $-1 -67.030854213080232 -45.090917342592071 6.9980764779736209 #
point $-1 -67.030854213080232 45.090917342592071 6.9980764779736209 #
loop $-1 $-1 $206 $133 #
plane-surface $-1 67.030854213080232 0 0 -1 0 0 0 0 1 forward_v I I I I #
coedge $-1 $137 $136 $212 $261 reversed $49 $-1 #
coedge $-1 $262 $263 $137 $207 forward $203 $-1 #
edge $-1 $209 45.903871010580048 $264 57.657750488045231 $206 $265 forward 7 unknown #
coedge $-1 $143 $138 $263 $266 forward $79 $-1 #
vertex $-1 $266 $267 #
straight-curve $-1 25.50415168165415 36.925986678484612 17.058917717137454 1 0 0 I I #
coedge $-1 $268 $140 $143 $216 reversed $134 $-1 #
coedge $-1 $140 $268 $205 $261 forward $134 $-1 #
vertex $-1 $141 $269 #
straight-curve $-1 34.985752513536369 45.090917342592071 83.301177387943312 0 0 1 I I #
straight-curve $-1 34.985752513536369 -17.554648215420983 73.475268003388052 0 0.69465836192734942 -0.71933980857756763 I I #
edge $-1 $270 -67.030854213080232 $144 -34.985752513536369 $211 $271 forward 7 unknown #
point $-1 34.985752513536369 45.090917342592071 17.058917717137444 #
point $-1 34.985752513536369 36.925986678484605 17.05891771713744 #
edge $-1 $272 1 $272 0 $147 $-1 forward 7 unknown #
vertex $-1 $148 $273 #
ellipse-curve $-1 44.141495856263191 36.1452082251881 8.1350211892623037 0 0.71933980857756763 0.69465836192734942 2 0 0 1 I I #
point $-1 46.141495856263191 41.008452010538342 12.831401010455634 #
edge $-1 $274 1 $274 0 $151 $-1 forward 7 unknown #
vertex $-1 $152 $275 #
ellipse-curve $-1 57.87511087035341 36.1452082251881 8.1350211892623037 0 0.71933980857756763 0.69465836192734942 2 0 0 1 I I #
point $-1 59.87511087035341 41.008452010538342 12.831401010455634 #
plane-surface $-1 67.030854213080232 0 0 -1 0 0 0 0 1 forward_v I I I I #
coedge $-1 $160 $158 $162 $232 reversed $101 $-1 #
edge $-1 $173 -17.058917717137444 $234 17.058917717137444 $172 $276 forward 7 unknown #
vertex $-1 $232 $277 #
straight-curve $-1 -67.030854213080232 -45.090917342592071 0 0 0 -1 I I #
edge $-1 $230 -45.090917342592071 $234 45.090917342592071 $228 $278 forward 7 unknown #
straight-curve $-1 0 -45.090917342592071 -17.058917717137444 -1 0 0 I I #
vertex $-1 $165 $279 #
straight-curve $-1 0 45.090917342592071 -17.058917717137444 1 0 0 I I #
point $-1 67.030854213080232 45.090917342592071 -17.058917717137444 #
point $-1 67.030854213080232 -45.090917342592071 -17.058917717137444 #
straight-curve $-1 -67.030854213080232 0 17.058917717137444 0 -1 0 I I #
point $-1 -67.030854213080232 45.090917342592071 17.058917717137444 #
point $-1 -67.030854213080232 -45.090917342592071 17.058917717137444 #
straight-curve $-1 67.030854213080232 -45.090917342592071 0 0 0 -1 I I #
straight-curve $-1 67.030854213080232 45.090917342592071 0 0 0 -1 I I #
plane-surface $-1 0 -45.090917342592071 0 0 1 0 0 0 1 forward_v I I I I #
coedge $-1 $280 $185 $199 $258 reversed $120 $-1 #
coedge $-1 $185 $280 $249 $281 reversed $120 $-1 #
edge $-1 $250 -5.0304206195819141 $247 5.0304206195819123 $186 $282 forward 7 unknown #
vertex $-1 $187 $283 #
straight-curve $-1 -77.874150372834038 45.090917342592071 6.9980764779736209 1 0 0 I I #
coedge $-1 $253 $188 $245 $281 forward $183 $-1 #
vertex $-1 $189 $284 #
straight-curve $-1 0 45.090917342592071 17.058917717137444 -1 0 0 I I #
point $-1 -67.030854213080232 45.090917342592071 17.058917717137444 #
coedge $-1 $192 $249 $194 $256 forward $183 $-1 #
straight-curve $-1 -67.030854213080232 0 17.058917717137444 0 1 0 I I #
coedge $-1 $195 $194 $280 $285 forward $196 $-1 #
edge $-1 $286 -88.717446532587843 $197 -67.030854213080232 $194 $287 forward 7 unknown #
point $-1 -67.030854213080232 -45.090917342592071 17.058917717137444 #
edge $-1 $259 -45.090917342592071 $247 45.090917342592071 $244 $288 forward 7 unknown #
vertex $-1 $258 $289 #
straight-curve $-1 -77.874150372834038 -45.090917342592071 6.9980764779736209 -1 0 0 I I #
edge $-1 $264 -41.526702531426082 $213 -9.4816008318822185 $212 $290 forward 7 unknown #
coedge $-1 $263 $206 $268 $291 reversed $203 $-1 #
coedge $-1 $206 $262 $208 $266 reversed $203 $-1 #
vertex $-1 $207 $292 #
straight-curve $-1 67.030854213080232 5.038478836150734 50.079399502857449 0 0.69465836192734942 -0.71933980857756763 I I #
edge $-1 $209 36.925986678484605 $270 45.090917342592071 $263 $293 forward 7 unknown #
point $-1 67.030854213080232 36.925986678484605 17.05891771713744 #
coedge $-1 $212 $211 $262 $291 forward $134 $-1 #
point $-1 34.985752513536369 45.090917342592064 8.6038843037738388 #
vertex $-1 $266 $294 #
straight-curve $-1 0 45.090917342592071 17.058917717137444 -1 0 0 I I #
vertex $-1 $219 $295 #
point $-1 46.141495856263191 36.1452082251881 8.1350211892623037 #
vertex $-1 $223 $296 #
point $-1 59.87511087035341 36.1452082251881 8.1350211892623037 #
straight-curve $-1 -67.030854213080232 45.090917342592071 0 0 0 -1 I I #
point $-1 -67.030854213080232 -45.090917342592071 -17.058917717137444 #
straight-curve $-1 -67.030854213080232 0 -17.058917717137444 0 1 0 I I #
point $-1 -67.030854213080232 45.090917342592071 -17.058917717137444 #
coedge $-1 $245 $244 $255 $285 reversed $120 $-1 #
edge $-1 $250 -45.090917342592071 $286 45.090917342592071 $245 $297 forward 7 unknown #
straight-curve $-1 -88.717446532587843 45.090917342592071 12.028497097555533 0 0 -1 I I #
point $-1 -88.717446532587843 45.090917342592071 6.9980764779736209 #
point $-1 -88.717446532587843 45.090917342592071 17.058917717137447 #
edge $-1 $286 -5.0304206195819141 $259 5.0304206195819123 $280 $298 forward 7 unknown #
vertex $-1 $281 $299 #
straight-curve $-1 0 -45.090917342592071 17.058917717137444 1 0 0 I I #
straight-curve $-1 -88.717446532587843 0 6.9980764779736209 0 1 0 I I #
point $-1 -88.717446532587843 -45.090917342592071 6.9980764779736209 #
straight-curve $-1 25.50415168165415 45.090917342592071 8.6038843037738282 -1 0 0 I I #
edge $-1 $270 -17.058917717137444 $264 -8.6038843037738388 $262 $300 forward 7 unknown #
point $-1 67.030854213080232 45.090917342592064 8.6038843037738388 #
straight-curve $-1 67.030854213080232 0 17.058917717137444 0 1 0 I I #
point $-1 67.030854213080232 45.090917342592071 17.058917717137444 #
point $-1 44.141495856263191 34.706528608032968 6.7457044654076057 #
point $-1 57.87511087035341 34.706528608032968 6.7457044654076057 #
straight-curve $-1 -88.717446532587843 0 17.058917717137447 0 -1 0 I I #
straight-curve $-1 -88.717446532587843 -45.090917342592071 12.028497097555533 0 0 -1 I I #
point $-1 -88.717446532587843 -45.090917342592071 17.058917717137447 #
straight-curve $-1 67.030854213080232 45.090917342592071 0 0 0 -1 I I #
End-of-ACIS-data 