500 0 9 0           
7 Unknown 11 ACIS 5.0 NT 24 Thu Mar 25 20:26:46 1999 
-1 9.9999999999999995e-007 1e-010 
body $-1 $9 $-1 $10 #
body $-1 $11 $-1 $12 #
body $-1 $13 $-1 $14 #
body $-1 $15 $-1 $16 #
body $-1 $17 $-1 $18 #
body $-1 $19 $-1 $20 #
body $-1 $21 $-1 $22 #
body $-1 $23 $-1 $24 #
body $-1 $25 $-1 $26 #
lump $-1 $-1 $27 $0 #
transform $-1 1 0 0 0 1 0 0 0 1 49.262977996154667 30.383321671733405 8.9399310047817409 1 rotate no_reflect no_shear #
lump $-1 $-1 $28 $1 #
transform $-1 1 0 0 0 1 0 0 0 1 49.262977996154667 30.383321671733405 8.9399310047817409 1 rotate no_reflect no_shear #
lump $-1 $-1 $29 $2 #
transform $-1 1 0 0 0 1 0 0 0 1 49.262977996154667 30.383321671733405 8.9399310047817409 1 rotate no_reflect no_shear #
lump $-1 $-1 $30 $3 #
transform $-1 1 0 0 0 1 0 0 0 1 49.262977996154667 30.383321671733405 8.9399310047817409 1 rotate no_reflect no_shear #
lump $-1 $-1 $31 $4 #
transform $-1 1 0 0 0 1 0 0 0 1 49.262977996154667 30.383321671733405 8.9399310047817409 1 rotate no_reflect no_shear #
lump $-1 $-1 $32 $5 #
transform $-1 1 0 0 0 1 0 0 0 1 49.262977996154667 30.383321671733405 8.9399310047817409 1 rotate no_reflect no_shear #
lump $-1 $-1 $33 $6 #
transform $-1 1 0 0 0 1 0 0 0 1 49.262977996154667 30.383321671733405 8.9399310047817409 1 rotate no_reflect no_shear #
lump $-1 $-1 $34 $7 #
transform $-1 1 0 0 0 1 0 0 0 1 49.262977996154667 30.383321671733405 8.9399310047817409 1 rotate no_reflect no_shear #
lump $-1 $-1 $35 $8 #
transform $-1 1 0 0 0 1 0 0 0 1 49.262977996154667 30.383321671733405 8.9399310047817409 1 rotate no_reflect no_shear #
shell $-1 $-1 $-1 $36 $-1 $9 #
shell $-1 $-1 $-1 $37 $-1 $11 #
shell $-1 $-1 $-1 $38 $-1 $13 #
shell $-1 $-1 $-1 $39 $-1 $15 #
shell $-1 $-1 $-1 $40 $-1 $17 #
shell $-1 $-1 $-1 $41 $-1 $19 #
shell $-1 $-1 $-1 $42 $-1 $21 #
shell $-1 $-1 $-1 $43 $-1 $23 #
shell $-1 $-1 $-1 $44 $-1 $25 #
face $-1 $45 $46 $27 $-1 $47 reversed single #
face $-1 $48 $49 $28 $-1 $50 forward single #
face $-1 $51 $52 $29 $-1 $53 reversed single #
face $-1 $54 $55 $30 $-1 $56 forward single #
face $-1 $57 $58 $31 $-1 $59 forward single #
face $-1 $60 $61 $32 $-1 $62 reversed single #
face $-1 $63 $64 $33 $-1 $65 forward single #
face $-1 $66 $67 $34 $-1 $68 reversed single #
face $-1 $69 $70 $35 $-1 $71 forward single #
face $-1 $72 $73 $27 $-1 $74 forward single #
loop $-1 $-1 $75 $36 #
plane-surface $-1 0 -30.383321671733405 0 0 1 0 0 0 1 forward_v I I I I #
face $-1 $76 $77 $28 $-1 $78 reversed single #
loop $-1 $-1 $79 $37 #
plane-surface $-1 0 -30.383321671733405 0 0 1 0 0 0 1 forward_v I I I I #
face $-1 $80 $81 $29 $-1 $82 reversed single #
loop $-1 $-1 $83 $38 #
plane-surface $-1 41.970657807293072 11.049826047223945 140.60181074123778 0 -1 0 -0.66913061440640931 0 -0.74314481823134659 forward_v I I I I #
face $-1 $84 $85 $30 $-1 $86 forward single #
loop $-1 $87 $88 $39 #
cone-surface $-1 43.857829981244947 0.60687117952634395 3.8105030056796685 -0.66913061440640931 0 -0.74314481823134659 1.4862896364626932 0 -1.3382612288128186 1 I I 0 1 2 forward I I I I #
face $-1 $89 $90 $31 $-1 $91 forward single #
loop $-1 $92 $93 $40 #
cone-surface $-1 43.857829981244947 6.8726441001449032 3.8105030056796685 -0.66913061440640931 0 -0.74314481823134659 1.4862896364626932 0 -1.3382612288128186 1 I I 0 1 2 forward I I I I #
face $-1 $94 $95 $32 $-1 $96 reversed single #
loop $-1 $-1 $97 $41 #
plane-surface $-1 -117.70485883772855 -9.6572145236727938 72.995679137950233 0 1 0 -0.69465837861970381 0 0.71933979245794832 forward_v I I I I #
face $-1 $98 $99 $33 $-1 $100 forward single #
loop $-1 $101 $102 $42 #
cone-surface $-1 -44.371154006062014 -4.9300557929261899 4.1208442505900837 0.69465837861970381 0 -0.71933979245794832 1.4386795849158966 0 1.3893167572394076 1 I I 0 1 2 forward I I I I #
face $-1 $103 $104 $34 $-1 $105 reversed single #
loop $-1 $-1 $106 $43 #
plane-surface $-1 -117.70485883772855 16.919426849250328 72.995679137950233 0 1 0 -0.69465837861970381 0 0.71933979245794832 forward_v I I I I #
face $-1 $107 $108 $35 $-1 $109 forward single #
loop $-1 $110 $111 $44 #
cone-surface $-1 -44.371154006062014 21.64658557999693 4.1208442505900837 0.69465837861970381 0 -0.71933979245794832 1.4386795849158966 0 1.3893167572394076 1 I I 0 1 2 forward I I I I #
face $-1 $112 $113 $27 $-1 $114 reversed single #
loop $-1 $-1 $115 $45 #
plane-surface $-1 0 0 8.9399310047817409 0 0 1 1 0 0 forward_v I I I I #
coedge $-1 $116 $117 $118 $119 reversed $46 $-1 #
face $-1 $120 $121 $28 $-1 $122 reversed single #
loop $-1 $-1 $123 $48 #
plane-surface $-1 0 0 -8.9399310047817409 0 0 1 1 0 0 forward_v I I I I #
coedge $-1 $124 $125 $126 $127 forward $49 $-1 #
face $-1 $128 $129 $29 $-1 $130 reversed single #
loop $-1 $-1 $131 $51 #
plane-surface $-1 -23.956075660819714 3.7397576398356236 67.382757084263403 0.66913061440640931 0 0.74314481823134659 0.74314481823134659 0 -0.66913061440640931 forward_v I I I I #
coedge $-1 $132 $133 $134 $135 reversed $52 $-1 #
face $-1 $-1 $136 $30 $-1 $137 forward single #
loop $-1 $138 $139 $54 #
cone-surface $-1 41.939411864243219 0.60687117952634395 1.6798838826618265 -0.66913061440640931 0 -0.74314481823134659 0.74314481823134659 0 -0.66913061440640931 1 I I -0.70710678118654746 0.70710678118654746 1 forward I I I I #
loop $-1 $-1 $140 $39 #
coedge $-1 $88 $88 $141 $142 reversed $55 $-1 #
face $-1 $-1 $143 $31 $-1 $144 forward single #
loop $-1 $145 $146 $57 #
cone-surface $-1 41.939411864243219 6.8726441001449032 1.6798838826618265 -0.66913061440640931 0 -0.74314481823134659 0.74314481823134659 0 -0.66913061440640931 1 I I -0.70710678118654746 0.70710678118654746 1 forward I I I I #
loop $-1 $-1 $147 $40 #
coedge $-1 $93 $93 $148 $149 reversed $58 $-1 #
face $-1 $150 $151 $32 $-1 $152 reversed single #
loop $-1 $-1 $153 $60 #
plane-surface $-1 -49.26297799615466 -4.9300557929261899 2.1220384027214862 -0.69465837861970381 0 0.71933979245794832 0.71933979245794832 0 0.69465837861970381 forward_v I I I I #
coedge $-1 $154 $155 $156 $157 reversed $61 $-1 #
face $-1 $-1 $158 $33 $-1 $159 forward single #
loop $-1 $160 $161 $63 #
cone-surface $-1 -42.314738790006537 -4.9300557929261899 1.9913640049706061 0.69465837861970381 0 -0.71933979245794832 0.71933979245794832 0 0.69465837861970381 1 I I -0.70710678118654746 0.70710678118654746 1 forward I I I I #
loop $-1 $-1 $162 $42 #
coedge $-1 $102 $102 $163 $164 reversed $64 $-1 #
face $-1 $165 $166 $34 $-1 $167 reversed single #
loop $-1 $-1 $168 $66 #
plane-surface $-1 -49.26297799615466 21.64658557999693 2.1220384027214862 -0.69465837861970381 0 0.71933979245794832 0.71933979245794832 0 0.69465837861970381 forward_v I I I I #
coedge $-1 $169 $170 $171 $172 reversed $67 $-1 #
face $-1 $-1 $173 $35 $-1 $174 forward single #
loop $-1 $175 $176 $69 #
cone-surface $-1 -42.314738790006537 21.64658557999693 1.9913640049706061 0.69465837861970381 0 -0.71933979245794832 0.71933979245794832 0 0.69465837861970381 1 I I -0.70710678118654746 0.70710678118654746 1 forward I I I I #
loop $-1 $-1 $177 $44 #
coedge $-1 $111 $111 $178 $179 reversed $70 $-1 #
face $-1 $180 $181 $27 $-1 $182 reversed single #
loop $-1 $-1 $183 $72 #
plane-surface $-1 0 0 -8.9399310047817409 0 0 1 1 0 0 forward_v I I I I #
coedge $-1 $184 $185 $186 $187 forward $73 $-1 #
coedge $-1 $188 $75 $189 $190 reversed $46 $-1 #
coedge $-1 $75 $188 $191 $192 forward $46 $-1 #
coedge $-1 $193 $183 $75 $119 forward $113 $-1 #
edge $-1 $194 -49.262977996154667 $195 49.262977996154667 $75 $196 forward 7 unknown #
face $-1 $197 $198 $28 $-1 $199 reversed single #
loop $-1 $-1 $200 $76 #
plane-surface $-1 -33.376245597761937 -37.99668226935399 0 0 1 0 0 0 1 forward_v I I I I #
coedge $-1 $201 $202 $125 $203 forward $77 $-1 #
coedge $-1 $204 $79 $205 $206 reversed $49 $-1 #
coedge $-1 $79 $204 $123 $203 reversed $49 $-1 #
coedge $-1 $207 $208 $79 $127 reversed $198 $-1 #
edge $-1 $209 -8.9399310047817409 $210 8.9399310047817409 $126 $211 forward 7 unknown #
face $-1 $212 $213 $29 $-1 $214 forward single #
loop $-1 $-1 $215 $80 #
plane-surface $-1 41.970657807293072 -3.5703107675526979 140.60181074123778 0 1 0 0.66913061440640931 0 0.74314481823134659 forward_v I I I I #
coedge $-1 $216 $217 $218 $219 reversed $81 $-1 #
coedge $-1 $133 $83 $220 $221 reversed $52 $-1 #
coedge $-1 $83 $132 $216 $222 reversed $52 $-1 #
coedge $-1 $218 $223 $83 $135 forward $213 $-1 #
edge $-1 $224 -28.277649092508131 $225 -19.965928067879364 $134 $226 forward 7 unknown #
loop $-1 $-1 $141 $84 #
plane-surface $-1 -23.956075660819714 3.7397576398356236 67.382757084263403 0.66913061440640931 0 0.74314481823134659 0.74314481823134659 0 -0.66913061440640931 forward_v I I I I #
loop $-1 $-1 $227 $54 #
coedge $-1 $139 $139 $140 $228 reversed $85 $-1 #
coedge $-1 $140 $140 $139 $228 forward $87 $-1 #
coedge $-1 $141 $141 $88 $142 forward $136 $-1 #
edge $-1 $229 0 $229 6.2831853071796004 $141 $230 forward 7 unknown #
loop $-1 $-1 $148 $89 #
plane-surface $-1 -23.956075660819714 3.7397576398356236 67.382757084263403 0.66913061440640931 0 0.74314481823134659 0.74314481823134659 0 -0.66913061440640931 forward_v I I I I #
loop $-1 $-1 $231 $57 #
coedge $-1 $146 $146 $147 $232 reversed $90 $-1 #
coedge $-1 $147 $147 $146 $232 forward $92 $-1 #
coedge $-1 $148 $148 $93 $149 forward $143 $-1 #
edge $-1 $233 0 $233 6.2831853071796004 $148 $234 forward 7 unknown #
face $-1 $235 $236 $32 $-1 $237 reversed single #
loop $-1 $-1 $238 $94 #
plane-surface $-1 -117.70485883772855 -0.20289706217958603 72.995679137950233 0 -1 0 0.69465837861970381 0 -0.71933979245794832 forward_v I I I I #
coedge $-1 $239 $240 $241 $242 reversed $95 $-1 #
coedge $-1 $155 $97 $243 $244 reversed $61 $-1 #
coedge $-1 $97 $154 $239 $245 reversed $61 $-1 #
coedge $-1 $241 $246 $97 $157 forward $247 $-1 #
edge $-1 $248 9.5894514227096082 $249 16.649585728023375 $156 $250 forward 7 unknown #
loop $-1 $-1 $163 $98 #
plane-surface $-1 -49.26297799615466 -4.9300557929261899 2.1220384027214862 -0.69465837861970381 0 0.71933979245794832 0.71933979245794832 0 0.69465837861970381 forward_v I I I I #
loop $-1 $-1 $251 $63 #
coedge $-1 $161 $161 $162 $252 reversed $99 $-1 #
coedge $-1 $162 $162 $161 $252 forward $101 $-1 #
coedge $-1 $163 $163 $102 $164 forward $158 $-1 #
edge $-1 $253 0 $253 6.2831853071796004 $163 $254 forward 7 unknown #
face $-1 $255 $256 $34 $-1 $257 forward single #
loop $-1 $-1 $258 $103 #
plane-surface $-1 -117.70485883772855 26.373744310743533 72.995679137950233 0 -1 0 0.69465837861970381 0 -0.71933979245794832 forward_v I I I I #
coedge $-1 $259 $260 $261 $262 reversed $104 $-1 #
coedge $-1 $170 $106 $263 $264 reversed $67 $-1 #
coedge $-1 $106 $169 $259 $265 reversed $67 $-1 #
coedge $-1 $261 $266 $106 $172 forward $256 $-1 #
edge $-1 $267 9.5894514227096082 $268 16.649585728023375 $171 $269 forward 7 unknown #
loop $-1 $-1 $178 $107 #
plane-surface $-1 -49.26297799615466 21.64658557999693 2.1220384027214862 -0.69465837861970381 0 0.71933979245794832 0.71933979245794832 0 0.69465837861970381 forward_v I I I I #
loop $-1 $-1 $270 $69 #
coedge $-1 $176 $176 $177 $271 reversed $108 $-1 #
coedge $-1 $177 $177 $176 $271 forward $110 $-1 #
coedge $-1 $178 $178 $111 $179 forward $173 $-1 #
edge $-1 $272 0 $272 6.2831853071796004 $178 $273 forward 7 unknown #
face $-1 $274 $275 $27 $-1 $276 reversed single #
loop $-1 $-1 $277 $112 #
plane-surface $-1 -49.262977996154667 0 0 1 0 0 0 0 -1 forward_v I I I I #
coedge $-1 $118 $278 $279 $280 forward $113 $-1 #
coedge $-1 $281 $115 $282 $283 forward $73 $-1 #
coedge $-1 $115 $281 $188 $284 forward $73 $-1 #
coedge $-1 $189 $285 $115 $187 reversed $286 $-1 #
edge $-1 $287 -30.383321671733405 $288 30.383321671733405 $186 $289 forward 7 unknown #
coedge $-1 $117 $116 $185 $284 reversed $46 $-1 #
coedge $-1 $279 $186 $116 $190 forward $286 $-1 #
edge $-1 $287 -8.9399310047817409 $194 8.9399310047817409 $189 $290 forward 7 unknown #
coedge $-1 $291 $292 $117 $192 reversed $181 $-1 #
edge $-1 $293 -8.9399310047817409 $195 8.9399310047817409 $191 $294 forward 7 unknown #
coedge $-1 $278 $118 $292 $295 forward $113 $-1 #
vertex $-1 $190 $296 #
vertex $-1 $295 $297 #
straight-curve $-1 0 -30.383321671733405 -8.9399310047817409 -1 0 0 I I #
face $-1 $298 $299 $28 $-1 $300 reversed single #
loop $-1 $-1 $126 $120 #
plane-surface $-1 -35.369375208932688 -34.190001970543697 0 1 0 0 0 0 -1 forward_v I I I I #
coedge $-1 $301 $302 $303 $304 forward $121 $-1 #
coedge $-1 $305 $123 $306 $307 forward $77 $-1 #
coedge $-1 $123 $305 $207 $308 forward $77 $-1 #
edge $-1 $209 -35.369375208932688 $309 -31.383115986591186 $123 $310 forward 7 unknown #
coedge $-1 $125 $124 $311 $312 forward $49 $-1 #
coedge $-1 $313 $314 $124 $206 forward $315 $-1 #
edge $-1 $316 31.383115986591186 $210 35.369375208932688 $205 $317 forward 7 unknown #
coedge $-1 $303 $126 $202 $308 reversed $198 $-1 #
coedge $-1 $126 $303 $313 $318 reversed $198 $-1 #
vertex $-1 $203 $319 #
vertex $-1 $318 $320 #
straight-curve $-1 -35.369375208932688 -30.383321671733405 0 0 0 1 I I #
face $-1 $-1 $321 $29 $-1 $322 reversed single #
loop $-1 $-1 $134 $128 #
plane-surface $-1 0 0 8.9399310047817409 0 0 1 1 0 0 forward_v I I I I #
coedge $-1 $323 $324 $325 $326 reversed $129 $-1 #
coedge $-1 $327 $131 $133 $222 forward $81 $-1 #
coedge $-1 $131 $327 $323 $328 forward $81 $-1 #
coedge $-1 $325 $134 $131 $219 forward $213 $-1 #
edge $-1 $225 -9.1799472273061333 $329 5.4401895874705097 $218 $330 forward 7 unknown #
coedge $-1 $331 $332 $132 $221 forward $321 $-1 #
edge $-1 $333 -68.84488175446829 $224 -61.360974365837151 $220 $334 forward 7 unknown #
edge $-1 $225 87.341432033156508 $333 98.525955992309349 $133 $335 forward 7 unknown #
coedge $-1 $134 $325 $331 $336 forward $213 $-1 #
vertex $-1 $135 $337 #
vertex $-1 $135 $338 #
straight-curve $-1 20.985328903646536 11.049826047223945 8.9399310047817409 -1 0 0 I I #
coedge $-1 $227 $227 $-1 $339 reversed $138 $-1 #
edge $-1 $340 0 $340 6.2831853071796004 $139 $341 forward 7 unknown #
vertex $-1 $142 $342 #
ellipse-curve $-1 45.107117483840277 0.60687117952634395 5.1979773104661717 0.66913061440640931 0 0.74314481823134659 1.4862896364626932 0 -1.3382612288128186 1 I I #
coedge $-1 $231 $231 $-1 $343 reversed $145 $-1 #
edge $-1 $344 0 $344 6.2831853071796004 $146 $345 forward 7 unknown #
vertex $-1 $149 $346 #
ellipse-curve $-1 45.107117483840277 6.8726441001449032 5.1979773104661717 0.66913061440640931 0 0.74314481823134659 1.4862896364626932 0 -1.3382612288128186 1 I I #
face $-1 $-1 $247 $32 $-1 $347 forward single #
loop $-1 $-1 $348 $150 #
plane-surface $-1 -49.262977996154667 0 0 1 0 0 0 0 -1 forward_v I I I I #
coedge $-1 $349 $350 $351 $352 reversed $151 $-1 #
coedge $-1 $353 $153 $155 $245 forward $95 $-1 #
coedge $-1 $153 $353 $349 $354 forward $95 $-1 #
coedge $-1 $351 $156 $153 $242 forward $247 $-1 #
edge $-1 $249 -7.1921866272096988 $355 2.2621308342835089 $241 $356 forward 7 unknown #
coedge $-1 $357 $358 $154 $244 forward $236 $-1 #
edge $-1 $359 -34.375801166253638 $248 -27.557908564193376 $243 $360 forward 7 unknown #
edge $-1 $249 -9.8147417664600916 $359 9.7385709978959816e-015 $155 $361 forward 7 unknown #
coedge $-1 $156 $351 $357 $362 forward $247 $-1 #
loop $-1 $-1 $351 $235 #
vertex $-1 $244 $363 #
vertex $-1 $157 $364 #
straight-curve $-1 -58.852429418864276 -9.6572145236727938 8.9399310047817409 1 0 0 I I #
coedge $-1 $251 $251 $-1 $365 reversed $160 $-1 #
edge $-1 $366 0 $366 6.2831853071796004 $161 $367 forward 7 unknown #
vertex $-1 $164 $368 #
ellipse-curve $-1 -45.732910843497784 -4.9300557929261899 5.5309847037516091 -0.69465837861970381 0 0.71933979245794832 1.4386795849158966 0 1.3893167572394076 1 I I #
face $-1 $-1 $369 $34 $-1 $370 reversed single #
loop $-1 $-1 $171 $165 #
plane-surface $-1 0 0 8.9399310047817409 0 0 1 1 0 0 forward_v I I I I #
coedge $-1 $371 $372 $373 $374 reversed $166 $-1 #
coedge $-1 $375 $168 $170 $265 forward $104 $-1 #
coedge $-1 $168 $375 $371 $376 forward $104 $-1 #
coedge $-1 $373 $171 $168 $262 forward $256 $-1 #
edge $-1 $268 6.0961340592518631 $377 15.550451520745067 $261 $378 forward 7 unknown #
coedge $-1 $379 $380 $169 $264 forward $369 $-1 #
edge $-1 $381 -34.375801166253638 $267 -27.557908564193376 $263 $382 forward 7 unknown #
edge $-1 $268 -9.8147417664600916 $381 9.7385709978959816e-015 $170 $383 forward 7 unknown #
coedge $-1 $171 $373 $379 $384 forward $256 $-1 #
vertex $-1 $264 $385 #
vertex $-1 $172 $386 #
straight-curve $-1 -58.852429418864276 16.919426849250328 8.9399310047817409 1 0 0 I I #
coedge $-1 $270 $270 $-1 $387 reversed $175 $-1 #
edge $-1 $388 0 $388 6.2831853071796004 $176 $389 forward 7 unknown #
vertex $-1 $179 $390 #
ellipse-curve $-1 -45.732910843497784 21.64658557999693 5.5309847037516091 -0.69465837861970381 0 0.71933979245794832 1.4386795849158966 0 1.3893167572394076 1 I I #
face $-1 $-1 $286 $27 $-1 $391 reversed single #
loop $-1 $-1 $392 $180 #
plane-surface $-1 0 30.383321671733405 0 0 -1 0 0 0 -1 forward_v I I I I #
coedge $-1 $292 $291 $393 $394 forward $181 $-1 #
coedge $-1 $183 $193 $395 $396 forward $113 $-1 #
coedge $-1 $285 $189 $183 $280 reversed $286 $-1 #
edge $-1 $397 -30.383321671733405 $194 30.383321671733405 $279 $398 forward 7 unknown #
coedge $-1 $185 $184 $291 $399 forward $73 $-1 #
coedge $-1 $392 $393 $184 $283 reversed $275 $-1 #
edge $-1 $288 -49.262977996154667 $400 49.262977996154667 $282 $401 forward 7 unknown #
edge $-1 $293 -49.262977996154667 $287 49.262977996154667 $188 $402 forward 7 unknown #
coedge $-1 $186 $279 $392 $403 reversed $286 $-1 #
loop $-1 $-1 $189 $274 #
vertex $-1 $187 $404 #
vertex $-1 $187 $405 #
straight-curve $-1 49.262977996154667 0 8.9399310047817409 0 1 0 I I #
straight-curve $-1 49.262977996154667 -30.383321671733405 0 0 0 -1 I I #
coedge $-1 $277 $191 $281 $399 reversed $181 $-1 #
coedge $-1 $191 $277 $193 $295 reversed $181 $-1 #
vertex $-1 $399 $406 #
straight-curve $-1 -49.262977996154667 -30.383321671733405 0 0 0 -1 I I #
edge $-1 $195 -30.383321671733405 $407 30.383321671733405 $292 $408 forward 7 unknown #
point $-1 49.262977996154667 -30.383321671733405 -8.9399310047817409 #
point $-1 -49.262977996154667 -30.383321671733405 -8.9399310047817409 #
face $-1 $-1 $315 $28 $-1 $409 forward single #
loop $-1 $-1 $410 $197 #
plane-surface $-1 -31.383115986591186 -34.190001970543697 0 -1 0 0 0 0 1 forward_v I I I I #
coedge $-1 $411 $200 $305 $412 reversed $121 $-1 #
coedge $-1 $200 $411 $413 $414 reversed $121 $-1 #
coedge $-1 $208 $207 $200 $304 reversed $198 $-1 #
edge $-1 $415 -8.9399310047817409 $416 8.9399310047817409 $303 $417 forward 7 unknown #
coedge $-1 $202 $201 $301 $412 forward $77 $-1 #
coedge $-1 $311 $410 $201 $307 reversed $299 $-1 #
edge $-1 $309 -3.8066802988102886 $418 3.8066802988102921 $306 $419 forward 7 unknown #
edge $-1 $416 -3.8066802988102921 $209 3.8066802988102886 $207 $420 forward 7 unknown #
vertex $-1 $307 $421 #
straight-curve $-1 0 -30.383321671733405 -8.9399310047817409 1 0 0 I I #
coedge $-1 $422 $306 $204 $312 reversed $299 $-1 #
edge $-1 $316 -8.9399310047817409 $309 8.9399310047817409 $311 $423 forward 7 unknown #
coedge $-1 $413 $205 $208 $318 forward $315 $-1 #
coedge $-1 $205 $413 $422 $424 forward $315 $-1 #
loop $-1 $-1 $205 $298 #
vertex $-1 $206 $425 #
straight-curve $-1 0 -30.383321671733405 8.9399310047817409 -1 0 0 I I #
edge $-1 $210 -3.8066802988102886 $415 3.8066802988102921 $208 $426 forward 7 unknown #
point $-1 -35.369375208932688 -30.383321671733409 -8.9399310047817409 #
point $-1 -35.369375208932688 -30.383321671733409 8.9399310047817409 #
loop $-1 $-1 $220 $212 #
plane-surface $-1 49.262977996154667 0 0 -1 0 0 0 0 1 forward_v I I I I #
coedge $-1 $324 $215 $217 $328 reversed $129 $-1 #
coedge $-1 $215 $323 $427 $428 reversed $129 $-1 #
coedge $-1 $223 $218 $215 $326 forward $213 $-1 #
edge $-1 $329 19.965928067879364 $429 28.277649092508131 $325 $430 forward 7 unknown #
coedge $-1 $217 $216 $332 $431 reversed $81 $-1 #
edge $-1 $432 -98.525955992309349 $329 -87.341432033156508 $323 $433 forward 7 unknown #
vertex $-1 $219 $434 #
straight-curve $-1 40.951256971525908 1.8698788199178118 8.9399310047817337 0 -1 0 I I #
coedge $-1 $427 $220 $223 $336 reversed $321 $-1 #
coedge $-1 $220 $427 $327 $431 forward $321 $-1 #
vertex $-1 $221 $435 #
straight-curve $-1 49.262977996154667 11.049826047223945 70.300905370618892 0 0 1 I I #
straight-curve $-1 -23.956075660819714 11.049826047223945 67.382757084263403 0.74314481823134659 0 -0.66913061440640931 I I #
edge $-1 $429 -3.5703107675526979 $224 11.049826047223945 $331 $436 forward 7 unknown #
point $-1 49.262977996154667 11.049826047223945 8.9399310047817409 #
point $-1 40.9512569715259 11.049826047223945 8.9399310047817409 #
edge $-1 $437 1 $437 0 $227 $-1 forward 7 unknown #
vertex $-1 $228 $438 #
ellipse-curve $-1 42.608542478649625 0.60687117952634395 2.4230287008931732 0.66913061440640931 0 0.74314481823134659 1.4862896364626932 0 -1.3382612288128186 1 I I #
point $-1 46.593407120302963 0.60687117952634395 3.8597160816533456 #
edge $-1 $439 1 $439 0 $231 $-1 forward 7 unknown #
vertex $-1 $232 $440 #
ellipse-curve $-1 42.608542478649625 6.8726441001449032 2.4230287008931732 0.66913061440640931 0 0.74314481823134659 1.4862896364626932 0 -1.3382612288128186 1 I I #
point $-1 46.593407120302963 6.8726441001449032 3.8597160816533456 #
plane-surface $-1 0 0 8.9399310047817409 0 0 1 1 0 0 forward_v I I I I #
coedge $-1 $358 $357 $350 $441 forward $236 $-1 #
coedge $-1 $350 $238 $240 $354 reversed $151 $-1 #
coedge $-1 $238 $349 $348 $441 reversed $151 $-1 #
coedge $-1 $246 $241 $238 $352 forward $247 $-1 #
edge $-1 $355 -16.649585728023375 $442 -9.5894514227096082 $351 $443 forward 7 unknown #
coedge $-1 $240 $239 $358 $444 reversed $95 $-1 #
edge $-1 $445 -9.7385709978959816e-015 $355 9.8147417664600916 $349 $446 forward 7 unknown #
vertex $-1 $242 $447 #
straight-curve $-1 -42.202843690840893 -2.4650278964630949 8.9399310047817409 0 1 0 I I #
coedge $-1 $348 $243 $246 $362 reversed $236 $-1 #
coedge $-1 $243 $348 $353 $444 forward $236 $-1 #
vertex $-1 $244 $448 #
straight-curve $-1 -49.262977996154667 -9.6572145236727938 36.497839568975117 0 0 1 I I #
straight-curve $-1 -49.26297799615466 -9.6572145236727938 2.1220384027214862 -0.71933979245794832 0 -0.69465837861970381 I I #
edge $-1 $442 0.20289706217958603 $248 9.6572145236727938 $357 $449 forward 7 unknown #
point $-1 -49.262977996154667 -9.6572145236727938 8.9399310047817409 #
point $-1 -42.202843690840901 -9.6572145236727938 8.9399310047817409 #
edge $-1 $450 1 $450 0 $251 $-1 forward 7 unknown #
vertex $-1 $252 $451 #
ellipse-curve $-1 -43.009397168626244 -4.9300557929261899 2.7107037974285544 -0.69465837861970381 0 0.71933979245794832 1.4386795849158966 0 1.3893167572394076 1 I I #
point $-1 -44.294231258581895 -4.9300557929261899 6.9203014609910216 #
loop $-1 $-1 $263 $255 #
plane-surface $-1 -49.262977996154667 0 0 1 0 0 0 0 -1 forward_v I I I I #
coedge $-1 $372 $258 $260 $376 reversed $166 $-1 #
coedge $-1 $258 $371 $452 $453 reversed $166 $-1 #
coedge $-1 $266 $261 $258 $374 forward $256 $-1 #
edge $-1 $377 -16.649585728023375 $454 -9.5894514227096082 $373 $455 forward 7 unknown #
coedge $-1 $260 $259 $380 $456 reversed $104 $-1 #
edge $-1 $457 -9.7385709978959816e-015 $377 9.8147417664600916 $371 $458 forward 7 unknown #
vertex $-1 $262 $459 #
straight-curve $-1 -42.202843690840893 10.823292789998465 8.9399310047817409 0 1 0 I I #
coedge $-1 $452 $263 $266 $384 reversed $369 $-1 #
coedge $-1 $263 $452 $375 $456 forward $369 $-1 #
vertex $-1 $264 $460 #
straight-curve $-1 -49.262977996154667 16.919426849250328 36.497839568975117 0 0 1 I I #
straight-curve $-1 -49.26297799615466 16.919426849250328 2.1220384027214862 -0.71933979245794832 0 -0.69465837861970381 I I #
edge $-1 $454 -26.373744310743533 $267 -16.919426849250328 $379 $461 forward 7 unknown #
point $-1 -49.262977996154667 16.919426849250328 8.9399310047817409 #
point $-1 -42.202843690840901 16.919426849250328 8.9399310047817409 #
edge $-1 $462 1 $462 0 $270 $-1 forward 7 unknown #
vertex $-1 $271 $463 #
ellipse-curve $-1 -43.009397168626244 21.64658557999693 2.7107037974285544 -0.69465837861970381 0 0.71933979245794832 1.4386795849158966 0 1.3893167572394076 1 I I #
point $-1 -44.294231258581895 21.64658557999693 6.9203014609910216 #
plane-surface $-1 49.262977996154667 0 0 -1 0 0 0 0 1 forward_v I I I I #
coedge $-1 $395 $282 $285 $403 forward $275 $-1 #
coedge $-1 $282 $395 $277 $394 reversed $275 $-1 #
edge $-1 $400 -8.9399310047817409 $407 8.9399310047817409 $393 $464 forward 7 unknown #
coedge $-1 $393 $392 $278 $396 reversed $275 $-1 #
edge $-1 $407 -49.262977996154667 $397 49.262977996154667 $395 $465 forward 7 unknown #
vertex $-1 $280 $466 #
straight-curve $-1 49.262977996154667 0 -8.9399310047817409 0 -1 0 I I #
edge $-1 $400 -30.383321671733405 $293 30.383321671733405 $291 $467 forward 7 unknown #
vertex $-1 $283 $468 #
straight-curve $-1 0 30.383321671733405 8.9399310047817409 -1 0 0 I I #
straight-curve $-1 0 -30.383321671733405 8.9399310047817409 1 0 0 I I #
edge $-1 $288 -8.9399310047817409 $397 8.9399310047817409 $285 $469 forward 7 unknown #
point $-1 49.262977996154667 -30.383321671733405 8.9399310047817409 #
point $-1 49.262977996154667 30.383321671733405 8.9399310047817409 #
point $-1 -49.262977996154667 -30.383321671733405 8.9399310047817409 #
vertex $-1 $396 $470 #
straight-curve $-1 -49.262977996154667 0 -8.9399310047817409 0 1 0 I I #
plane-surface $-1 0 0 8.9399310047817409 0 0 1 1 0 0 forward_v I I I I #
coedge $-1 $306 $422 $411 $471 forward $299 $-1 #
coedge $-1 $302 $301 $410 $471 reversed $121 $-1 #
edge $-1 $418 -1.993129611170751 $416 1.993129611170751 $301 $472 forward 7 unknown #
coedge $-1 $314 $313 $302 $414 forward $315 $-1 #
edge $-1 $415 -1.993129611170751 $473 1.993129611170751 $302 $474 forward 7 unknown #
vertex $-1 $318 $475 #
vertex $-1 $308 $476 #
straight-curve $-1 -35.369375208932688 -37.99668226935399 0 0 0 -1 I I #
vertex $-1 $471 $477 #
straight-curve $-1 -31.383115986591186 -34.190001970543697 -8.9399310047817409 0 -1 0 I I #
straight-curve $-1 -35.369375208932688 -34.190001970543697 -8.9399310047817409 0 1 0 I I #
point $-1 -31.383115986591186 -30.383321671733409 -8.9399310047817409 #
coedge $-1 $410 $311 $314 $424 reversed $299 $-1 #
straight-curve $-1 -31.383115986591186 -30.383321671733405 0 0 0 -1 I I #
edge $-1 $473 -3.8066802988102921 $316 3.8066802988102886 $422 $478 forward 7 unknown #
point $-1 -31.383115986591186 -30.383321671733409 8.9399310047817409 #
straight-curve $-1 -35.369375208932688 -34.190001970543697 8.9399310047817409 0 -1 0 I I #
coedge $-1 $332 $331 $324 $428 forward $321 $-1 #
edge $-1 $429 61.360974365837151 $432 68.84488175446829 $427 $479 forward 7 unknown #
vertex $-1 $336 $480 #
straight-curve $-1 20.985328903646536 -3.5703107675526979 8.9399310047817409 1 0 0 I I #
edge $-1 $432 -5.4401895874705097 $333 9.1799472273061333 $332 $481 forward 7 unknown #
vertex $-1 $431 $482 #
straight-curve $-1 -23.956075660819714 -3.5703107675526979 67.382757084263403 -0.74314481823134659 0 0.66913061440640931 I I #
point $-1 40.9512569715259 -3.5703107675526979 8.9399310047817409 #
point $-1 49.262977996154667 11.049826047223945 1.4560236161506026 #
straight-curve $-1 49.262977996154667 0 8.9399310047817409 0 1 0 I I #
vertex $-1 $339 $483 #
point $-1 44.094832115112325 0.60687117952634395 1.0847674720803546 #
vertex $-1 $343 $484 #
point $-1 44.094832115112325 6.8726441001449032 1.0847674720803546 #
edge $-1 $442 27.557908564193376 $445 34.375801166253638 $348 $485 forward 7 unknown #
vertex $-1 $362 $486 #
straight-curve $-1 -58.852429418864276 -0.20289706217958603 8.9399310047817409 -1 0 0 I I #
edge $-1 $445 -2.2621308342835089 $359 7.1921866272096988 $358 $487 forward 7 unknown #
vertex $-1 $444 $488 #
straight-curve $-1 -49.26297799615466 -0.20289706217958603 2.1220384027214862 0.71933979245794832 0 0.69465837861970381 I I #
point $-1 -42.202843690840901 -0.20289706217958603 8.9399310047817409 #
point $-1 -49.262977996154667 -9.6572145236727938 2.1220384027214796 #
straight-curve $-1 -49.262977996154667 0 8.9399310047817409 0 -1 0 I I #
vertex $-1 $365 $489 #
point $-1 -41.570717583710341 -4.9300557929261899 4.100020554667962 #
coedge $-1 $380 $379 $372 $453 forward $369 $-1 #
edge $-1 $454 27.557908564193376 $457 34.375801166253638 $452 $490 forward 7 unknown #
vertex $-1 $384 $491 #
straight-curve $-1 -58.852429418864276 26.373744310743533 8.9399310047817409 -1 0 0 I I #
edge $-1 $457 -15.550451520745067 $381 -6.0961340592518631 $380 $492 forward 7 unknown #
vertex $-1 $456 $493 #
straight-curve $-1 -49.26297799615466 26.373744310743533 2.1220384027214862 0.71933979245794832 0 0.69465837861970381 I I #
point $-1 -42.202843690840901 26.373744310743533 8.9399310047817409 #
point $-1 -49.262977996154667 16.919426849250328 2.1220384027214796 #
straight-curve $-1 -49.262977996154667 0 8.9399310047817409 0 -1 0 I I #
vertex $-1 $387 $494 #
point $-1 -41.570717583710341 21.64658557999693 4.100020554667962 #
straight-curve $-1 -49.262977996154667 30.383321671733405 0 0 0 -1 I I #
straight-curve $-1 0 30.383321671733405 -8.9399310047817409 1 0 0 I I #
point $-1 49.262977996154667 30.383321671733405 -8.9399310047817409 #
straight-curve $-1 -49.262977996154667 0 8.9399310047817409 0 -1 0 I I #
point $-1 -49.262977996154667 30.383321671733405 8.9399310047817409 #
straight-curve $-1 49.262977996154667 30.383321671733405 0 0 0 -1 I I #
point $-1 -49.262977996154667 30.383321671733405 -8.9399310047817409 #
edge $-1 $473 -8.9399310047817409 $418 8.9399310047817409 $410 $495 forward 7 unknown #
straight-curve $-1 -33.376245597761937 -37.99668226935399 -8.9399310047817409 -1 0 0 I I #
vertex $-1 $424 $496 #
straight-curve $-1 -33.376245597761937 -37.99668226935399 8.9399310047817409 1 0 0 I I #
point $-1 -35.369375208932688 -37.99668226935399 8.9399310047817409 #
point $-1 -35.369375208932688 -37.99668226935399 -8.9399310047817409 #
point $-1 -31.383115986591186 -37.99668226935399 -8.9399310047817409 #
straight-curve $-1 -31.383115986591186 -34.190001970543697 8.9399310047817409 0 1 0 I I #
straight-curve $-1 49.262977996154667 -3.5703107675526979 70.300905370618892 0 0 -1 I I #
point $-1 49.262977996154667 -3.5703107675526979 8.9399310047817409 #
straight-curve $-1 49.262977996154667 1.8698788199178118 1.4560236161506026 0 1 0 I I #
point $-1 49.262977996154667 -3.5703107675526979 1.4560236161506026 #
point $-1 41.270281249836813 0.60687117952634395 0.93673906443047994 #
point $-1 41.270281249836813 6.8726441001449032 0.93673906443047994 #
straight-curve $-1 -49.262977996154667 -0.20289706217958603 36.497839568975117 0 0 -1 I I #
point $-1 -49.262977996154667 -0.20289706217958603 8.9399310047817409 #
straight-curve $-1 -49.262977996154667 -2.4650278964630949 2.1220384027214756 0 -1 0 I I #
point $-1 -49.262977996154667 -0.20289706217958603 2.1220384027214796 #
point $-1 -41.62008041138683 -4.9300557929261899 1.2720242125126577 #
straight-curve $-1 -49.262977996154667 26.373744310743533 36.497839568975117 0 0 -1 I I #
point $-1 -49.262977996154667 26.373744310743533 8.9399310047817409 #
straight-curve $-1 -49.262977996154667 10.823292789998465 2.1220384027214756 0 -1 0 I I #
point $-1 -49.262977996154667 26.373744310743533 2.1220384027214796 #
point $-1 -41.62008041138683 21.64658557999693 1.2720242125126577 #
straight-curve $-1 -31.383115986591186 -37.99668226935399 0 0 0 -1 I I #
point $-1 -31.383115986591186 -37.99668226935399 8.9399310047817409 #
End-of-ACIS-data 