500 0 9 0           
7 Unknown 11 ACIS 5.0 NT 24 Fri Mar 26 20:35:50 1999 
-1 9.9999999999999995e-007 1e-010 
body $-1 $9 $-1 $10 #
body $-1 $11 $-1 $12 #
body $-1 $13 $-1 $14 #
body $-1 $15 $-1 $16 #
body $-1 $17 $-1 $18 #
body $-1 $19 $-1 $20 #
body $-1 $21 $-1 $22 #
body $-1 $23 $-1 $24 #
body $-1 $25 $-1 $26 #
lump $-1 $-1 $27 $0 #
transform $-1 1 0 0 0 1 0 0 0 1 58.229316080202643 26.590682771425158 5.4157609671822282 1 rotate no_reflect no_shear #
lump $-1 $-1 $28 $1 #
transform $-1 1 0 0 0 1 0 0 0 1 58.229316080202643 26.590682771425158 5.4157609671822282 1 rotate no_reflect no_shear #
lump $-1 $-1 $29 $2 #
transform $-1 1 0 0 0 1 0 0 0 1 58.229316080202643 26.590682771425158 5.4157609671822282 1 rotate no_reflect no_shear #
lump $-1 $-1 $30 $3 #
transform $-1 1 0 0 0 1 0 0 0 1 58.229316080202643 26.590682771425158 5.4157609671822282 1 rotate no_reflect no_shear #
lump $-1 $-1 $31 $4 #
transform $-1 1 0 0 0 1 0 0 0 1 58.229316080202643 26.590682771425158 5.4157609671822282 1 rotate no_reflect no_shear #
lump $-1 $-1 $32 $5 #
transform $-1 1 0 0 0 1 0 0 0 1 58.229316080202643 26.590682771425158 5.4157609671822282 1 rotate no_reflect no_shear #
lump $-1 $-1 $33 $6 #
transform $-1 1 0 0 0 1 0 0 0 1 58.229316080202643 26.590682771425158 5.4157609671822282 1 rotate no_reflect no_shear #
lump $-1 $-1 $34 $7 #
transform $-1 1 0 0 0 1 0 0 0 1 58.229316080202643 26.590682771425158 5.4157609671822282 1 rotate no_reflect no_shear #
lump $-1 $-1 $35 $8 #
transform $-1 1 0 0 0 1 0 0 0 1 58.229316080202643 26.590682771425158 5.4157609671822282 1 rotate no_reflect no_shear #
shell $-1 $-1 $-1 $36 $-1 $9 #
shell $-1 $-1 $-1 $37 $-1 $11 #
shell $-1 $-1 $-1 $38 $-1 $13 #
shell $-1 $-1 $-1 $39 $-1 $15 #
shell $-1 $-1 $-1 $40 $-1 $17 #
shell $-1 $-1 $-1 $41 $-1 $19 #
shell $-1 $-1 $-1 $42 $-1 $21 #
shell $-1 $-1 $-1 $43 $-1 $23 #
shell $-1 $-1 $-1 $44 $-1 $25 #
face $-1 $45 $46 $27 $-1 $47 forward single #
face $-1 $48 $49 $28 $-1 $50 forward single #
face $-1 $51 $52 $29 $-1 $53 reversed single #
face $-1 $54 $55 $30 $-1 $56 forward single #
face $-1 $57 $58 $31 $-1 $59 forward single #
face $-1 $60 $61 $32 $-1 $62 forward single #
face $-1 $63 $64 $33 $-1 $65 reversed single #
face $-1 $66 $67 $34 $-1 $68 forward single #
face $-1 $69 $70 $35 $-1 $71 forward single #
face $-1 $72 $73 $27 $-1 $74 reversed single #
loop $-1 $-1 $75 $36 #
plane-surface $-1 0 0 5.4157609671822282 0 0 1 1 0 0 forward_v I I I I #
face $-1 $76 $77 $28 $-1 $78 forward single #
loop $-1 $-1 $79 $37 #
plane-surface $-1 0 -26.590682771425158 0 0 1 0 0 0 1 forward_v I I I I #
face $-1 $80 $81 $29 $-1 $82 reversed single #
loop $-1 $-1 $83 $38 #
plane-surface $-1 -134.63305414205061 -9.3417024543638032 89.309152330399883 0 1 0 -0.6560590369687036 0 0.75470957328743171 forward_v I I I I #
face $-1 $84 $85 $30 $-1 $86 forward single #
loop $-1 $87 $88 $39 #
cone-surface $-1 -55.401650780133345 -6.4270761630459994 2.8094459714851157 0.6560590369687036 0 -0.75470957328743171 0.37735478664371586 0 0.3280295184843518 1 I I 0 1 0.5 forward I I I I #
face $-1 $89 $90 $31 $-1 $91 forward single #
loop $-1 $92 $93 $40 #
cone-surface $-1 -55.401650780133345 -2.0551367260692892 2.8094459714851157 0.6560590369687036 0 -0.75470957328743171 0.37735478664371586 0 0.3280295184843518 1 I I 0 1 0.5 forward I I I I #
face $-1 $94 $95 $32 $-1 $96 forward single #
loop $-1 $97 $98 $41 #
cone-surface $-1 -55.401650780133345 2.316802710907421 2.8094459714851157 0.6560590369687036 0 -0.75470957328743171 0.37735478664371586 0 0.3280295184843518 1 I I 0 1 0.5 forward I I I I #
face $-1 $99 $100 $33 $-1 $101 reversed single #
loop $-1 $-1 $102 $42 #
plane-surface $-1 89.655059471866991 4.319239223695531 163.98013355918349 0 -1 0 -0.82903758062907751 0 -0.55919289150049634 forward_v I I I I #
face $-1 $103 $104 $34 $-1 $105 forward single #
loop $-1 $106 $107 $43 #
cone-surface $-1 56.766931709712559 -3.6741608577032245 3.582639863630698 -0.82903758062907751 0 -0.55919289150049634 0.27959644575024817 0 -0.41451879031453875 1 I I 0 1 0.5 forward I I I I #
face $-1 $108 $109 $35 $-1 $110 forward single #
loop $-1 $111 $112 $44 #
cone-surface $-1 56.766931709712559 1.1218791911360277 3.582639863630698 -0.82903758062907751 0 -0.55919289150049634 0.27959644575024817 0 -0.41451879031453875 1 I I 0 1 0.5 forward I I I I #
face $-1 $113 $114 $27 $-1 $115 reversed single #
loop $-1 $-1 $116 $45 #
plane-surface $-1 0 0 -5.4157609671822282 0 0 1 1 0 0 forward_v I I I I #
coedge $-1 $117 $118 $119 $120 forward $46 $-1 #
face $-1 $121 $122 $28 $-1 $123 reversed single #
loop $-1 $-1 $124 $48 #
plane-surface $-1 0 0 5.4157609671822282 0 0 1 1 0 0 forward_v I I I I #
coedge $-1 $125 $126 $127 $128 forward $49 $-1 #
face $-1 $129 $130 $29 $-1 $131 reversed single #
loop $-1 $-1 $132 $51 #
plane-surface $-1 -58.229316080202622 -2.0551367260692857 1.4167077469824392 -0.6560590369687036 0 0.75470957328743171 0.75470957328743171 0 0.6560590369687036 forward_v I I I I #
coedge $-1 $133 $134 $135 $136 reversed $52 $-1 #
face $-1 $-1 $137 $30 $-1 $138 forward single #
loop $-1 $139 $140 $54 #
cone-surface $-1 -54.710162913368926 -6.4270761630459994 2.0139801925660388 0.6560590369687036 0 -0.75470957328743171 0.18867739332185793 0 0.1640147592421759 1 I I -0.70710678118654746 0.70710678118654746 0.25 forward I I I I #
loop $-1 $-1 $141 $39 #
coedge $-1 $88 $88 $142 $143 reversed $55 $-1 #
face $-1 $-1 $144 $31 $-1 $145 forward single #
loop $-1 $146 $147 $57 #
cone-surface $-1 -54.710162913368926 -2.0551367260692892 2.0139801925660388 0.6560590369687036 0 -0.75470957328743171 0.18867739332185793 0 0.1640147592421759 1 I I -0.70710678118654746 0.70710678118654746 0.25 forward I I I I #
loop $-1 $-1 $148 $40 #
coedge $-1 $93 $93 $149 $150 reversed $58 $-1 #
face $-1 $-1 $151 $32 $-1 $152 forward single #
loop $-1 $153 $154 $60 #
cone-surface $-1 -54.710162913368926 2.316802710907421 2.0139801925660388 0.6560590369687036 0 -0.75470957328743171 0.18867739332185793 0 0.1640147592421759 1 I I -0.70710678118654746 0.70710678118654746 0.25 forward I I I I #
loop $-1 $-1 $155 $41 #
coedge $-1 $98 $98 $156 $157 reversed $61 $-1 #
face $-1 $158 $159 $33 $-1 $160 reversed single #
loop $-1 $-1 $161 $63 #
plane-surface $-1 -6.8935231777670793 -1.2761408332835984 98.857294301213756 0.82903758062907751 0 0.55919289150049634 0.55919289150049634 0 -0.82903758062907751 forward_v I I I I #
coedge $-1 $162 $163 $164 $165 reversed $64 $-1 #
face $-1 $-1 $166 $34 $-1 $167 forward single #
loop $-1 $168 $169 $66 #
cone-surface $-1 56.145153524240747 -3.6741608577032245 3.1632451950053255 -0.82903758062907751 0 -0.55919289150049634 0.13979822287512408 0 -0.20725939515726938 1 I I -0.70710678118654746 0.70710678118654746 0.25 forward I I I I #
loop $-1 $-1 $170 $43 #
coedge $-1 $107 $107 $171 $172 reversed $67 $-1 #
face $-1 $-1 $173 $35 $-1 $174 forward single #
loop $-1 $175 $176 $69 #
cone-surface $-1 56.145153524240747 1.1218791911360277 3.1632451950053255 -0.82903758062907751 0 -0.55919289150049634 0.13979822287512408 0 -0.20725939515726938 1 I I -0.70710678118654746 0.70710678118654746 0.25 forward I I I I #
loop $-1 $-1 $177 $44 #
coedge $-1 $112 $112 $178 $179 reversed $70 $-1 #
face $-1 $180 $181 $27 $-1 $182 reversed single #
loop $-1 $-1 $183 $72 #
plane-surface $-1 0 -26.590682771425158 0 0 1 0 0 0 1 forward_v I I I I #
coedge $-1 $184 $185 $186 $187 forward $73 $-1 #
coedge $-1 $188 $75 $189 $190 forward $46 $-1 #
coedge $-1 $75 $188 $191 $192 forward $46 $-1 #
coedge $-1 $193 $194 $75 $120 reversed $195 $-1 #
edge $-1 $196 -26.590682771425158 $197 26.590682771425158 $119 $198 forward 7 unknown #
face $-1 $199 $200 $28 $-1 $201 reversed single #
loop $-1 $-1 $202 $76 #
plane-surface $-1 -58.229316080202643 0 0 1 0 0 0 0 -1 forward_v I I I I #
coedge $-1 $203 $204 $126 $205 forward $77 $-1 #
coedge $-1 $206 $79 $207 $208 reversed $49 $-1 #
coedge $-1 $79 $206 $124 $205 reversed $49 $-1 #
coedge $-1 $209 $210 $79 $128 reversed $211 $-1 #
edge $-1 $212 -5.4157609671822282 $213 5.4157609671822282 $127 $214 forward 7 unknown #
face $-1 $215 $216 $29 $-1 $217 reversed single #
loop $-1 $-1 $218 $80 #
plane-surface $-1 -134.63305414205061 5.2314290022252319 89.309152330399883 0 -1 0 0.6560590369687036 0 -0.75470957328743171 forward_v I I I I #
coedge $-1 $219 $220 $221 $222 reversed $81 $-1 #
coedge $-1 $134 $83 $223 $224 reversed $52 $-1 #
coedge $-1 $83 $133 $219 $225 reversed $52 $-1 #
coedge $-1 $221 $226 $83 $136 forward $227 $-1 #
edge $-1 $228 9.0872109908226619 $229 13.687595375916807 $135 $230 forward 7 unknown #
loop $-1 $-1 $142 $84 #
plane-surface $-1 -58.229316080202622 -2.0551367260692857 1.4167077469824392 -0.6560590369687036 0 0.75470957328743171 0.75470957328743171 0 0.6560590369687036 forward_v I I I I #
loop $-1 $-1 $231 $54 #
coedge $-1 $140 $140 $141 $232 reversed $85 $-1 #
coedge $-1 $141 $141 $140 $232 forward $87 $-1 #
coedge $-1 $142 $142 $88 $143 forward $137 $-1 #
edge $-1 $233 0 $233 6.2831853071796004 $142 $234 forward 7 unknown #
loop $-1 $-1 $149 $89 #
plane-surface $-1 -58.229316080202622 -2.0551367260692857 1.4167077469824392 -0.6560590369687036 0 0.75470957328743171 0.75470957328743171 0 0.6560590369687036 forward_v I I I I #
loop $-1 $-1 $235 $57 #
coedge $-1 $147 $147 $148 $236 reversed $90 $-1 #
coedge $-1 $148 $148 $147 $236 forward $92 $-1 #
coedge $-1 $149 $149 $93 $150 forward $144 $-1 #
edge $-1 $237 0 $237 6.2831853071796004 $149 $238 forward 7 unknown #
loop $-1 $-1 $156 $94 #
plane-surface $-1 -58.229316080202622 -2.0551367260692857 1.4167077469824392 -0.6560590369687036 0 0.75470957328743171 0.75470957328743171 0 0.6560590369687036 forward_v I I I I #
loop $-1 $-1 $239 $60 #
coedge $-1 $154 $154 $155 $240 reversed $95 $-1 #
coedge $-1 $155 $155 $154 $240 forward $97 $-1 #
coedge $-1 $156 $156 $98 $157 forward $151 $-1 #
edge $-1 $241 0 $241 6.2831853071796004 $156 $242 forward 7 unknown #
face $-1 $243 $244 $33 $-1 $245 forward single #
loop $-1 $-1 $246 $99 #
plane-surface $-1 89.655059471866991 -6.8715208902627278 163.98013355918349 0 1 0 0.82903758062907751 0 0.55919289150049634 forward_v I I I I #
coedge $-1 $247 $248 $249 $250 reversed $100 $-1 #
coedge $-1 $163 $102 $251 $252 reversed $64 $-1 #
coedge $-1 $102 $162 $247 $253 reversed $64 $-1 #
coedge $-1 $249 $254 $102 $165 forward $244 $-1 #
edge $-1 $255 -13.401786344269148 $256 -11.306055183918076 $164 $257 forward 7 unknown #
loop $-1 $-1 $171 $103 #
plane-surface $-1 -6.8935231777670793 -1.2761408332835984 98.857294301213756 0.82903758062907751 0 0.55919289150049634 0.55919289150049634 0 -0.82903758062907751 forward_v I I I I #
loop $-1 $-1 $258 $66 #
coedge $-1 $169 $169 $170 $259 reversed $104 $-1 #
coedge $-1 $170 $170 $169 $259 forward $106 $-1 #
coedge $-1 $171 $171 $107 $172 forward $166 $-1 #
edge $-1 $260 0 $260 6.2831853071796004 $171 $261 forward 7 unknown #
loop $-1 $-1 $178 $108 #
plane-surface $-1 -6.8935231777670793 -1.2761408332835984 98.857294301213756 0.82903758062907751 0 0.55919289150049634 0.55919289150049634 0 -0.82903758062907751 forward_v I I I I #
loop $-1 $-1 $262 $69 #
coedge $-1 $176 $176 $177 $263 reversed $109 $-1 #
coedge $-1 $177 $177 $176 $263 forward $111 $-1 #
coedge $-1 $178 $178 $112 $179 forward $173 $-1 #
edge $-1 $264 0 $264 6.2831853071796004 $178 $265 forward 7 unknown #
face $-1 $266 $267 $27 $-1 $268 reversed single #
loop $-1 $-1 $269 $113 #
plane-surface $-1 -58.229316080202643 0 0 1 0 0 0 0 -1 forward_v I I I I #
coedge $-1 $270 $191 $271 $272 forward $114 $-1 #
coedge $-1 $273 $116 $270 $274 forward $73 $-1 #
coedge $-1 $116 $273 $275 $276 forward $73 $-1 #
coedge $-1 $194 $193 $116 $187 reversed $195 $-1 #
edge $-1 $277 -26.590682771425158 $278 26.590682771425158 $186 $279 forward 7 unknown #
coedge $-1 $118 $117 $280 $281 forward $46 $-1 #
coedge $-1 $282 $283 $117 $190 reversed $267 $-1 #
edge $-1 $197 -58.229316080202643 $284 58.229316080202643 $189 $285 forward 7 unknown #
coedge $-1 $183 $286 $118 $192 reversed $114 $-1 #
edge $-1 $287 -58.229316080202643 $196 58.229316080202643 $191 $288 forward 7 unknown #
coedge $-1 $186 $119 $286 $289 forward $195 $-1 #
coedge $-1 $119 $186 $282 $290 reversed $195 $-1 #
loop $-1 $-1 $193 $266 #
vertex $-1 $120 $291 #
vertex $-1 $120 $292 #
straight-curve $-1 58.229316080202643 0 5.4157609671822282 0 1 0 I I #
face $-1 $293 $211 $28 $-1 $294 reversed single #
loop $-1 $-1 $295 $121 #
plane-surface $-1 -56.729316080202643 -31.13376361557193 0 0 1 0 0 0 1 forward_v I I I I #
coedge $-1 $296 $297 $206 $298 forward $122 $-1 #
coedge $-1 $299 $124 $297 $300 forward $77 $-1 #
coedge $-1 $124 $299 $209 $301 forward $77 $-1 #
edge $-1 $212 55.229316080202643 $302 58.229316080202643 $124 $303 forward 7 unknown #
coedge $-1 $126 $125 $202 $298 reversed $49 $-1 #
coedge $-1 $304 $305 $125 $208 forward $306 $-1 #
edge $-1 $307 -58.229316080202643 $213 -55.229316080202643 $207 $308 forward 7 unknown #
coedge $-1 $309 $127 $204 $301 reversed $211 $-1 #
coedge $-1 $127 $309 $304 $310 reversed $211 $-1 #
loop $-1 $-1 $309 $199 #
vertex $-1 $205 $311 #
vertex $-1 $310 $312 #
straight-curve $-1 -55.229316080202643 -26.590682771425158 0 0 0 -1 I I #
face $-1 $-1 $227 $29 $-1 $313 forward single #
loop $-1 $-1 $314 $129 #
plane-surface $-1 -58.229316080202643 0 0 1 0 0 0 0 -1 forward_v I I I I #
coedge $-1 $315 $316 $317 $318 reversed $130 $-1 #
coedge $-1 $319 $132 $134 $225 forward $81 $-1 #
coedge $-1 $132 $319 $315 $320 forward $81 $-1 #
coedge $-1 $317 $135 $132 $222 forward $227 $-1 #
edge $-1 $229 -8.3141340913291604 $321 6.2589973652598747 $221 $322 forward 7 unknown #
coedge $-1 $323 $324 $133 $224 forward $216 $-1 #
edge $-1 $325 -43.237868418217523 $228 -39.238815198017711 $223 $326 forward 7 unknown #
edge $-1 $229 -6.0955691406634163 $325 2.8178574829950307e-014 $134 $327 forward 7 unknown #
coedge $-1 $135 $317 $323 $328 forward $227 $-1 #
loop $-1 $-1 $317 $215 #
vertex $-1 $224 $329 #
vertex $-1 $136 $330 #
straight-curve $-1 -67.316527071025305 -9.3417024543638032 5.41576096718223 1 0 0 I I #
coedge $-1 $231 $231 $-1 $331 reversed $139 $-1 #
edge $-1 $332 0 $332 6.2831853071796004 $140 $333 forward 7 unknown #
vertex $-1 $143 $334 #
ellipse-curve $-1 -55.929123887655571 -6.4270761630459994 3.4162343570823217 -0.6560590369687036 0 0.75470957328743171 0.37735478664371586 0 0.3280295184843518 1 I I #
coedge $-1 $235 $235 $-1 $335 reversed $146 $-1 #
edge $-1 $336 0 $336 6.2831853071796004 $147 $337 forward 7 unknown #
vertex $-1 $150 $338 #
ellipse-curve $-1 -55.929123887655571 -2.0551367260692892 3.4162343570823217 -0.6560590369687036 0 0.75470957328743171 0.37735478664371586 0 0.3280295184843518 1 I I #
coedge $-1 $239 $239 $-1 $339 reversed $153 $-1 #
edge $-1 $340 0 $340 6.2831853071796004 $154 $341 forward 7 unknown #
vertex $-1 $157 $342 #
ellipse-curve $-1 -55.929123887655571 2.316802710907421 3.4162343570823217 -0.6560590369687036 0 0.75470957328743171 0.37735478664371586 0 0.3280295184843518 1 I I #
face $-1 $-1 $343 $33 $-1 $344 reversed single #
loop $-1 $-1 $164 $158 #
plane-surface $-1 0 0 5.4157609671822282 0 0 1 1 0 0 forward_v I I I I #
coedge $-1 $345 $346 $347 $348 reversed $159 $-1 #
coedge $-1 $349 $161 $163 $253 forward $100 $-1 #
coedge $-1 $161 $349 $345 $350 forward $100 $-1 #
coedge $-1 $347 $164 $161 $250 forward $244 $-1 #
edge $-1 $256 -4.9573096403373302 $351 6.2334504736209286 $249 $352 forward 7 unknown #
coedge $-1 $353 $354 $162 $252 forward $343 $-1 #
edge $-1 $355 -79.681355128012058 $255 -76.57430581240952 $251 $356 forward 7 unknown #
edge $-1 $256 112.71085354553853 $355 116.45863216040529 $163 $357 forward 7 unknown #
coedge $-1 $164 $347 $353 $358 forward $244 $-1 #
vertex $-1 $165 $359 #
vertex $-1 $165 $360 #
straight-curve $-1 44.827529735933496 4.319239223695531 5.4157609671822229 -1 0 0 I I #
coedge $-1 $258 $258 $-1 $361 reversed $168 $-1 #
edge $-1 $362 0 $362 6.2831853071796004 $169 $363 forward 7 unknown #
vertex $-1 $172 $364 #
ellipse-curve $-1 57.181450500027111 -3.6741608577032245 3.862236309380954 0.82903758062907751 0 0.55919289150049634 0.27959644575024817 0 -0.41451879031453875 1 I I #
coedge $-1 $262 $262 $-1 $365 reversed $175 $-1 #
edge $-1 $366 0 $366 6.2831853071796004 $176 $367 forward 7 unknown #
vertex $-1 $179 $368 #
ellipse-curve $-1 57.181450500027111 1.1218791911360277 3.862236309380954 0.82903758062907751 0 0.55919289150049634 0.27959644575024817 0 -0.41451879031453875 1 I I #
face $-1 $-1 $195 $27 $-1 $369 reversed single #
loop $-1 $-1 $282 $180 #
plane-surface $-1 0 26.590682771425158 0 0 -1 0 0 0 -1 forward_v I I I I #
coedge $-1 $370 $280 $283 $371 forward $181 $-1 #
coedge $-1 $286 $183 $184 $274 reversed $114 $-1 #
coedge $-1 $280 $370 $183 $272 reversed $181 $-1 #
edge $-1 $287 -5.4157609671822282 $372 5.4157609671822282 $271 $373 forward 7 unknown #
coedge $-1 $185 $184 $370 $374 forward $73 $-1 #
edge $-1 $278 -58.229316080202643 $372 58.229316080202643 $270 $375 forward 7 unknown #
coedge $-1 $283 $282 $185 $276 reversed $267 $-1 #
edge $-1 $376 -58.229316080202643 $277 58.229316080202643 $275 $377 forward 7 unknown #
vertex $-1 $187 $378 #
vertex $-1 $289 $379 #
straight-curve $-1 58.229316080202643 0 -5.4157609671822282 0 -1 0 I I #
coedge $-1 $269 $271 $188 $281 reversed $181 $-1 #
edge $-1 $284 -26.590682771425158 $287 26.590682771425158 $280 $380 forward 7 unknown #
coedge $-1 $275 $189 $194 $290 forward $267 $-1 #
coedge $-1 $189 $275 $269 $371 reversed $267 $-1 #
vertex $-1 $190 $381 #
straight-curve $-1 0 26.590682771425158 5.4157609671822282 -1 0 0 I I #
coedge $-1 $191 $270 $193 $289 reversed $114 $-1 #
vertex $-1 $281 $382 #
straight-curve $-1 0 -26.590682771425158 5.4157609671822282 1 0 0 I I #
edge $-1 $196 -5.4157609671822282 $278 5.4157609671822282 $193 $383 forward 7 unknown #
edge $-1 $197 -5.4157609671822282 $277 5.4157609671822282 $194 $384 forward 7 unknown #
point $-1 58.229316080202643 -26.590682771425158 5.4157609671822282 #
point $-1 58.229316080202643 26.590682771425158 5.4157609671822282 #
face $-1 $-1 $306 $28 $-1 $385 reversed single #
plane-surface $-1 -55.229316080202643 -28.862223193498544 0 -1 0 0 0 0 1 forward_v I I I I #
coedge $-1 $386 $387 $388 $389 forward $200 $-1 #
coedge $-1 $388 $202 $305 $390 reversed $122 $-1 #
coedge $-1 $202 $388 $203 $300 reversed $122 $-1 #
edge $-1 $302 -5.4157609671822282 $307 5.4157609671822282 $202 $391 forward 7 unknown #
coedge $-1 $204 $203 $387 $392 forward $77 $-1 #
edge $-1 $302 26.590682771425158 $393 31.13376361557193 $297 $394 forward 7 unknown #
edge $-1 $395 -2.2715404220733859 $212 2.2715404220733859 $209 $396 forward 7 unknown #
vertex $-1 $300 $397 #
straight-curve $-1 0 -26.590682771425158 5.4157609671822282 -1 0 0 I I #
coedge $-1 $398 $207 $210 $310 forward $306 $-1 #
coedge $-1 $207 $398 $296 $390 forward $306 $-1 #
loop $-1 $-1 $207 $293 #
vertex $-1 $298 $399 #
straight-curve $-1 0 -26.590682771425158 -5.4157609671822282 1 0 0 I I #
coedge $-1 $210 $209 $400 $401 forward $211 $-1 #
edge $-1 $213 -2.2715404220733859 $402 2.2715404220733859 $210 $403 forward 7 unknown #
point $-1 -55.229316080202643 -26.590682771425158 5.4157609671822282 #
point $-1 -55.229316080202643 -26.590682771425158 -5.4157609671822282 #
plane-surface $-1 0 0 5.4157609671822282 0 0 1 1 0 0 forward_v I I I I #
coedge $-1 $324 $323 $316 $404 forward $216 $-1 #
coedge $-1 $316 $218 $220 $320 reversed $130 $-1 #
coedge $-1 $218 $315 $314 $404 reversed $130 $-1 #
coedge $-1 $226 $221 $218 $318 forward $227 $-1 #
edge $-1 $321 -13.687595375916807 $405 -9.0872109908226619 $317 $406 forward 7 unknown #
coedge $-1 $220 $219 $324 $407 reversed $81 $-1 #
edge $-1 $408 -2.8178574829950307e-014 $321 6.0955691406634163 $315 $409 forward 7 unknown #
vertex $-1 $222 $410 #
straight-curve $-1 -53.628931695108506 -1.0275683630346428 5.41576096718223 0 1 0 I I #
coedge $-1 $314 $223 $226 $328 reversed $216 $-1 #
coedge $-1 $223 $314 $319 $407 forward $216 $-1 #
vertex $-1 $224 $411 #
straight-curve $-1 -58.229316080202643 -9.3417024543638032 44.654576165199941 0 0 1 I I #
straight-curve $-1 -58.229316080202622 -9.3417024543638032 1.4167077469824392 -0.75470957328743171 0 -0.6560590369687036 I I #
edge $-1 $405 -5.2314290022252319 $228 9.3417024543638032 $323 $412 forward 7 unknown #
point $-1 -58.229316080202643 -9.3417024543638032 5.4157609671822282 #
point $-1 -53.628931695108498 -9.3417024543638032 5.4157609671822282 #
edge $-1 $413 1 $413 0 $231 $-1 forward 7 unknown #
vertex $-1 $232 $414 #
ellipse-curve $-1 -54.874177672611104 -6.4270761630459994 2.2026575858878967 -0.6560590369687036 0 0.75470957328743171 0.37735478664371586 0 0.3280295184843518 1 I I #
point $-1 -55.551769101011864 -6.4270761630459994 3.7442638755666864 #
edge $-1 $415 1 $415 0 $235 $-1 forward 7 unknown #
vertex $-1 $236 $416 #
ellipse-curve $-1 -54.874177672611104 -2.0551367260692892 2.2026575858878967 -0.6560590369687036 0 0.75470957328743171 0.37735478664371586 0 0.3280295184843518 1 I I #
point $-1 -55.551769101011864 -2.0551367260692892 3.7442638755666864 #
edge $-1 $417 1 $417 0 $239 $-1 forward 7 unknown #
vertex $-1 $240 $418 #
ellipse-curve $-1 -54.874177672611104 2.316802710907421 2.2026575858878967 -0.6560590369687036 0 0.75470957328743171 0.37735478664371586 0 0.3280295184843518 1 I I #
point $-1 -55.551769101011864 2.316802710907421 3.7442638755666864 #
loop $-1 $-1 $251 $243 #
plane-surface $-1 58.229316080202643 0 0 -1 0 0 0 0 1 forward_v I I I I #
coedge $-1 $346 $246 $248 $350 reversed $159 $-1 #
coedge $-1 $246 $345 $419 $420 reversed $159 $-1 #
coedge $-1 $254 $249 $246 $348 forward $244 $-1 #
edge $-1 $351 11.306055183918076 $421 13.401786344269148 $347 $422 forward 7 unknown #
coedge $-1 $248 $247 $354 $423 reversed $100 $-1 #
edge $-1 $424 -116.45863216040529 $351 -112.71085354553853 $345 $425 forward 7 unknown #
vertex $-1 $250 $426 #
straight-curve $-1 56.133584919851565 -0.6380704166417992 5.41576096718223 0 -1 0 I I #
coedge $-1 $419 $251 $254 $358 reversed $343 $-1 #
coedge $-1 $251 $419 $349 $423 forward $343 $-1 #
vertex $-1 $252 $427 #
straight-curve $-1 58.229316080202643 4.319239223695531 81.990066779591743 0 0 1 I I #
straight-curve $-1 -6.8935231777670793 4.319239223695531 98.857294301213756 0.55919289150049634 0 -0.82903758062907751 I I #
edge $-1 $421 -6.8715208902627278 $255 4.319239223695531 $353 $428 forward 7 unknown #
point $-1 58.229316080202643 4.319239223695531 5.4157609671822282 #
point $-1 56.133584919851572 4.319239223695531 5.4157609671822229 #
edge $-1 $429 1 $429 0 $258 $-1 forward 7 unknown #
vertex $-1 $259 $430 #
ellipse-curve $-1 56.35241291939802 -3.6741608577032245 3.3030434178804495 0.82903758062907751 0 0.55919289150049634 0.27959644575024817 0 -0.41451879031453875 1 I I #
point $-1 57.461046945777341 -3.6741608577032245 3.4477175190664071 #
edge $-1 $431 1 $431 0 $262 $-1 forward 7 unknown #
vertex $-1 $263 $432 #
ellipse-curve $-1 56.35241291939802 1.1218791911360277 3.3030434178804495 0.82903758062907751 0 0.55919289150049634 0.27959644575024817 0 -0.41451879031453875 1 I I #
point $-1 57.461046945777341 1.1218791911360277 3.4477175190664071 #
plane-surface $-1 58.229316080202643 0 0 -1 0 0 0 0 1 forward_v I I I I #
coedge $-1 $271 $269 $273 $374 reversed $181 $-1 #
edge $-1 $284 -5.4157609671822282 $376 5.4157609671822282 $283 $433 forward 7 unknown #
vertex $-1 $374 $434 #
straight-curve $-1 -58.229316080202643 -26.590682771425158 0 0 0 -1 I I #
edge $-1 $372 -26.590682771425158 $376 26.590682771425158 $370 $435 forward 7 unknown #
straight-curve $-1 0 -26.590682771425158 -5.4157609671822282 -1 0 0 I I #
vertex $-1 $276 $436 #
straight-curve $-1 0 26.590682771425158 -5.4157609671822282 1 0 0 I I #
point $-1 58.229316080202643 26.590682771425158 -5.4157609671822282 #
point $-1 58.229316080202643 -26.590682771425158 -5.4157609671822282 #
straight-curve $-1 -58.229316080202643 0 5.4157609671822282 0 -1 0 I I #
point $-1 -58.229316080202643 26.590682771425158 5.4157609671822282 #
point $-1 -58.229316080202643 -26.590682771425158 5.4157609671822282 #
straight-curve $-1 58.229316080202643 -26.590682771425158 0 0 0 -1 I I #
straight-curve $-1 58.229316080202643 26.590682771425158 0 0 0 -1 I I #
plane-surface $-1 0 0 -5.4157609671822282 0 0 1 1 0 0 forward_v I I I I #
coedge $-1 $400 $295 $398 $437 reversed $200 $-1 #
coedge $-1 $295 $400 $299 $392 reversed $200 $-1 #
coedge $-1 $297 $296 $295 $389 reversed $122 $-1 #
edge $-1 $393 -5.4157609671822282 $438 5.4157609671822282 $388 $439 forward 7 unknown #
edge $-1 $438 -31.13376361557193 $307 -26.590682771425158 $296 $440 forward 7 unknown #
straight-curve $-1 -58.229316080202643 -26.590682771425158 0 0 0 -1 I I #
edge $-1 $393 -1.5 $395 1.5 $387 $441 forward 7 unknown #
vertex $-1 $300 $442 #
straight-curve $-1 -58.229316080202643 0 5.4157609671822282 0 -1 0 I I #
vertex $-1 $301 $443 #
straight-curve $-1 -55.229316080202643 -28.862223193498544 5.4157609671822282 0 1 0 I I #
point $-1 -58.229316080202643 -26.590682771425158 5.4157609671822282 #
coedge $-1 $305 $304 $386 $437 forward $306 $-1 #
point $-1 -58.229316080202643 -26.590682771425158 -5.4157609671822282 #
coedge $-1 $387 $386 $309 $401 reversed $200 $-1 #
edge $-1 $395 -5.4157609671822282 $402 5.4157609671822282 $309 $444 forward 7 unknown #
vertex $-1 $401 $445 #
straight-curve $-1 -55.229316080202643 -28.862223193498544 -5.4157609671822282 0 -1 0 I I #
edge $-1 $405 39.238815198017711 $408 43.237868418217523 $314 $446 forward 7 unknown #
vertex $-1 $328 $447 #
straight-curve $-1 -67.316527071025305 5.2314290022252319 5.41576096718223 -1 0 0 I I #
edge $-1 $408 -6.2589973652598747 $325 8.3141340913291604 $324 $448 forward 7 unknown #
vertex $-1 $407 $449 #
straight-curve $-1 -58.229316080202622 5.2314290022252319 1.4167077469824392 0.75470957328743171 0 0.6560590369687036 I I #
point $-1 -53.628931695108498 5.2314290022252319 5.4157609671822282 #
point $-1 -58.229316080202643 -9.3417024543638032 1.4167077469824207 #
straight-curve $-1 -58.229316080202643 0 5.4157609671822282 0 -1 0 I I #
vertex $-1 $331 $450 #
point $-1 -54.496822885967383 -6.4270761630459994 2.5306871043722485 #
vertex $-1 $335 $451 #
point $-1 -54.496822885967383 -2.0551367260692892 2.5306871043722485 #
vertex $-1 $339 $452 #
point $-1 -54.496822885967383 2.316802710907421 2.5306871043722485 #
coedge $-1 $354 $353 $346 $420 forward $343 $-1 #
edge $-1 $421 76.57430581240952 $424 79.681355128012058 $419 $453 forward 7 unknown #
vertex $-1 $358 $454 #
straight-curve $-1 44.827529735933496 -6.8715208902627278 5.4157609671822229 1 0 0 I I #
edge $-1 $424 -6.2334504736209286 $355 4.9573096403373302 $354 $455 forward 7 unknown #
vertex $-1 $423 $456 #
straight-curve $-1 -6.8935231777670793 -6.8715208902627278 98.857294301213756 -0.55919289150049634 0 0.82903758062907751 I I #
point $-1 56.133584919851572 -6.8715208902627278 5.4157609671822229 #
point $-1 58.229316080202651 4.319239223695531 2.3087116515796851 #
straight-curve $-1 58.229316080202643 0 5.4157609671822282 0 1 0 I I #
vertex $-1 $361 $457 #
point $-1 56.632009365148264 -3.6741608577032245 2.8885246275659107 #
vertex $-1 $365 $458 #
point $-1 56.632009365148264 1.1218791911360277 2.8885246275659107 #
straight-curve $-1 -58.229316080202643 26.590682771425158 0 0 0 -1 I I #
point $-1 -58.229316080202643 -26.590682771425158 -5.4157609671822282 #
straight-curve $-1 -58.229316080202643 0 -5.4157609671822282 0 1 0 I I #
point $-1 -58.229316080202643 26.590682771425158 -5.4157609671822282 #
edge $-1 $402 -1.5 $438 1.5 $386 $459 forward 7 unknown #
vertex $-1 $390 $460 #
straight-curve $-1 -58.229316080202643 -31.13376361557193 0 0 0 -1 I I #
straight-curve $-1 -58.229316080202643 0 -5.4157609671822282 0 1 0 I I #
straight-curve $-1 -56.729316080202643 -31.13376361557193 5.4157609671822282 1 0 0 I I #
point $-1 -58.229316080202643 -31.13376361557193 5.4157609671822282 #
point $-1 -55.229316080202643 -31.13376361557193 5.4157609671822282 #
straight-curve $-1 -55.229316080202643 -31.13376361557193 0 0 0 -1 I I #
point $-1 -55.229316080202643 -31.13376361557193 -5.4157609671822282 #
straight-curve $-1 -58.229316080202643 5.2314290022252319 44.654576165199941 0 0 -1 I I #
point $-1 -58.229316080202643 5.2314290022252319 5.4157609671822282 #
straight-curve $-1 -58.229316080202643 -1.0275683630346428 1.4167077469824254 0 -1 0 I I #
point $-1 -58.229316080202643 5.2314290022252319 1.4167077469824207 #
point $-1 -54.546148154126747 -6.4270761630459994 1.8253027992441808 #
point $-1 -54.546148154126747 -2.0551367260692892 1.8253027992441808 #
point $-1 -54.546148154126747 2.316802710907421 1.8253027992441808 #
straight-curve $-1 58.229316080202643 -6.8715208902627278 81.990066779591743 0 0 -1 I I #
point $-1 58.229316080202643 -6.8715208902627278 5.4157609671822282 #
straight-curve $-1 58.229316080202651 -0.6380704166417992 2.3087116515796708 0 1 0 I I #
point $-1 58.229316080202651 -6.8715208902627278 2.3087116515796851 #
point $-1 55.937894129083475 -3.6741608577032245 3.0234469721302015 #
point $-1 55.937894129083475 1.1218791911360277 3.0234469721302015 #
straight-curve $-1 -56.729316080202643 -31.13376361557193 -5.4157609671822282 -1 0 0 I I #
point $-1 -58.229316080202643 -31.13376361557193 -5.4157609671822282 #
End-of-ACIS-data 