500 0 5 0           
7 Unknown 11 ACIS 5.0 NT 24 Fri Mar 26 17:43:11 1999 
-1 9.9999999999999995e-007 1e-010 
body $-1 $5 $-1 $6 #
body $-1 $7 $-1 $8 #
body $-1 $9 $-1 $10 #
body $-1 $11 $-1 $12 #
body $-1 $13 $-1 $14 #
lump $-1 $-1 $15 $0 #
transform $-1 1 0 0 0 1 0 0 0 1 61.391033661915955 38.677269252799896 10.910065980306532 1 rotate no_reflect no_shear #
lump $-1 $-1 $16 $1 #
transform $-1 1 0 0 0 1 0 0 0 1 61.391033661915955 38.677269252799896 10.910065980306532 1 rotate no_reflect no_shear #
lump $-1 $-1 $17 $2 #
transform $-1 1 0 0 0 1 0 0 0 1 61.391033661915955 38.677269252799896 10.910065980306532 1 rotate no_reflect no_shear #
lump $-1 $-1 $18 $3 #
transform $-1 1 0 0 0 1 0 0 0 1 61.391033661915955 38.677269252799896 10.910065980306532 1 rotate no_reflect no_shear #
lump $-1 $-1 $19 $4 #
transform $-1 1 0 0 0 1 0 0 0 1 61.391033661915955 38.677269252799896 10.910065980306532 1 rotate no_reflect no_shear #
shell $-1 $-1 $-1 $20 $-1 $5 #
shell $-1 $-1 $-1 $21 $-1 $7 #
shell $-1 $-1 $-1 $22 $-1 $9 #
shell $-1 $-1 $-1 $23 $-1 $11 #
shell $-1 $-1 $-1 $24 $-1 $13 #
face $-1 $25 $26 $15 $-1 $27 forward single #
face $-1 $28 $29 $16 $-1 $30 forward single #
face $-1 $31 $32 $17 $-1 $33 reversed single #
face $-1 $34 $35 $18 $-1 $36 forward single #
face $-1 $37 $38 $19 $-1 $39 forward single #
face $-1 $40 $41 $15 $-1 $42 reversed single #
loop $-1 $-1 $43 $20 #
plane-surface $-1 0 0 10.910065980306532 0 0 1 1 0 0 forward_v I I I I #
face $-1 $44 $45 $16 $-1 $46 reversed single #
loop $-1 $-1 $47 $21 #
plane-surface $-1 0 -38.677269252799896 0 0 1 0 0 0 1 forward_v I I I I #
face $-1 $48 $49 $17 $-1 $50 reversed single #
loop $-1 $-1 $51 $22 #
plane-surface $-1 -58.318453848507815 45.737042832346013 149.71363953387939 1 0 0 0 -0.57357644374324357 -0.81915203911291934 forward_v I I I I #
face $-1 $52 $53 $18 $-1 $54 forward single #
loop $-1 $55 $56 $23 #
cone-surface $-1 -47.95229829249979 32.667967392244158 5.5207067768467741 0 -0.57357644374324357 -0.81915203911291934 1.5 0 0 1 I I 0 1 1.5 forward I I I I #
face $-1 $57 $58 $19 $-1 $59 forward single #
loop $-1 $60 $61 $24 #
cone-surface $-1 -32.403064958487754 32.667967392244158 5.5207067768467741 0 -0.57357644374324357 -0.81915203911291934 1.5 0 0 1 I I 0 1 1.5 forward I I I I #
face $-1 $62 $63 $15 $-1 $64 reversed single #
loop $-1 $-1 $65 $25 #
plane-surface $-1 0 0 -10.910065980306532 0 0 1 1 0 0 forward_v I I I I #
coedge $-1 $66 $67 $68 $69 forward $26 $-1 #
face $-1 $70 $71 $16 $-1 $72 reversed single #
loop $-1 $-1 $73 $28 #
plane-surface $-1 0 0 -10.910065980306532 0 0 1 1 0 0 forward_v I I I I #
coedge $-1 $74 $75 $76 $77 forward $29 $-1 #
face $-1 $78 $79 $17 $-1 $80 reversed single #
loop $-1 $-1 $81 $31 #
plane-surface $-1 -40.177681625493769 -24.687858698701 49.13645871906273 0 0.57357644374324357 0.81915203911291934 1 0 0 forward_v I I I I #
coedge $-1 $82 $83 $84 $85 reversed $32 $-1 #
face $-1 $-1 $86 $18 $-1 $87 forward single #
loop $-1 $88 $89 $34 #
cone-surface $-1 -47.95229829249979 30.614574401509209 2.5881577263950764 0 -0.57357644374324357 -0.81915203911291934 0.75 0 0 1 I I -0.70710678118654757 0.70710678118654757 0.75 forward I I I I #
loop $-1 $-1 $90 $23 #
coedge $-1 $56 $56 $91 $92 reversed $35 $-1 #
face $-1 $-1 $93 $19 $-1 $94 forward single #
loop $-1 $95 $96 $37 #
cone-surface $-1 -32.403064958487754 30.614574401509209 2.5881577263950764 0 -0.57357644374324357 -0.81915203911291934 0.75 0 0 1 I I -0.70710678118654757 0.70710678118654757 0.75 forward I I I I #
loop $-1 $-1 $97 $24 #
coedge $-1 $61 $61 $98 $99 reversed $38 $-1 #
face $-1 $100 $101 $15 $-1 $102 reversed single #
loop $-1 $-1 $103 $40 #
plane-surface $-1 0 -38.677269252799896 0 0 1 0 0 0 1 forward_v I I I I #
coedge $-1 $104 $105 $106 $107 forward $41 $-1 #
coedge $-1 $108 $43 $109 $110 forward $26 $-1 #
coedge $-1 $43 $108 $111 $112 forward $26 $-1 #
coedge $-1 $113 $114 $43 $69 reversed $115 $-1 #
edge $-1 $116 -38.677269252799896 $117 38.677269252799896 $68 $118 forward 7 unknown #
face $-1 $119 $120 $16 $-1 $121 reversed single #
loop $-1 $-1 $122 $44 #
plane-surface $-1 -43.395316745771183 -51.711253751222124 0 0 1 0 0 0 1 forward_v I I I I #
coedge $-1 $123 $124 $75 $125 forward $45 $-1 #
coedge $-1 $126 $47 $127 $128 reversed $29 $-1 #
coedge $-1 $47 $126 $73 $125 reversed $29 $-1 #
coedge $-1 $129 $130 $47 $77 reversed $120 $-1 #
edge $-1 $131 -10.910065980306532 $132 10.910065980306532 $76 $133 forward 7 unknown #
face $-1 $134 $135 $17 $-1 $136 forward single #
loop $-1 $-1 $137 $48 #
plane-surface $-1 -22.036909402479722 45.737042832346013 149.71363953387939 -1 0 0 0 0.57357644374324357 0.81915203911291934 forward_v I I I I #
coedge $-1 $138 $139 $140 $141 reversed $49 $-1 #
coedge $-1 $83 $51 $142 $143 reversed $32 $-1 #
coedge $-1 $51 $82 $138 $144 reversed $32 $-1 #
coedge $-1 $140 $145 $51 $85 forward $135 $-1 #
edge $-1 $146 -15.808747836626889 $147 -7.0365654313704304 $84 $148 forward 7 unknown #
loop $-1 $-1 $91 $52 #
plane-surface $-1 -40.177681625493769 -24.687858698701 49.13645871906273 0 0.57357644374324357 0.81915203911291934 1 0 0 forward_v I I I I #
loop $-1 $-1 $149 $34 #
coedge $-1 $89 $89 $90 $150 reversed $53 $-1 #
coedge $-1 $90 $90 $89 $150 forward $55 $-1 #
coedge $-1 $91 $91 $56 $92 forward $86 $-1 #
edge $-1 $151 2.6661848845191918e-015 $151 6.2831853071796031 $91 $152 forward 7 unknown #
loop $-1 $-1 $98 $57 #
plane-surface $-1 -40.177681625493769 -24.687858698701 49.13645871906273 0 0.57357644374324357 0.81915203911291934 1 0 0 forward_v I I I I #
loop $-1 $-1 $153 $37 #
coedge $-1 $96 $96 $97 $154 reversed $58 $-1 #
coedge $-1 $97 $97 $96 $154 forward $60 $-1 #
coedge $-1 $98 $98 $61 $99 forward $93 $-1 #
edge $-1 $155 2.6661848845191918e-015 $155 6.2831853071796031 $98 $156 forward 7 unknown #
face $-1 $157 $158 $15 $-1 $159 reversed single #
loop $-1 $-1 $160 $62 #
plane-surface $-1 -61.391033661915955 0 0 1 0 0 0 0 -1 forward_v I I I I #
coedge $-1 $161 $111 $162 $163 forward $63 $-1 #
coedge $-1 $164 $65 $161 $165 forward $41 $-1 #
coedge $-1 $65 $164 $166 $167 forward $41 $-1 #
coedge $-1 $114 $113 $65 $107 reversed $115 $-1 #
edge $-1 $168 -38.677269252799896 $169 38.677269252799896 $106 $170 forward 7 unknown #
coedge $-1 $67 $66 $171 $172 forward $26 $-1 #
coedge $-1 $173 $174 $66 $110 reversed $158 $-1 #
edge $-1 $117 -61.391033661915955 $175 61.391033661915955 $109 $176 forward 7 unknown #
coedge $-1 $103 $177 $67 $112 reversed $63 $-1 #
edge $-1 $178 -61.391033661915955 $116 61.391033661915955 $111 $179 forward 7 unknown #
coedge $-1 $106 $68 $177 $180 forward $115 $-1 #
coedge $-1 $68 $106 $173 $181 reversed $115 $-1 #
loop $-1 $-1 $113 $157 #
vertex $-1 $69 $182 #
vertex $-1 $69 $183 #
straight-curve $-1 61.391033661915955 0 10.910065980306532 0 1 0 I I #
face $-1 $184 $185 $16 $-1 $186 reversed single #
loop $-1 $-1 $76 $70 #
plane-surface $-1 -46.24681050662641 -45.19426150201101 0 1 0 0 0 0 -1 forward_v I I I I #
coedge $-1 $187 $188 $189 $190 forward $71 $-1 #
coedge $-1 $191 $73 $192 $193 forward $45 $-1 #
coedge $-1 $73 $191 $129 $194 forward $45 $-1 #
edge $-1 $131 -46.24681050662641 $195 -40.543822984915955 $73 $196 forward 7 unknown #
coedge $-1 $75 $74 $197 $198 forward $29 $-1 #
coedge $-1 $199 $200 $74 $128 forward $201 $-1 #
edge $-1 $202 40.543822984915955 $132 46.24681050662641 $127 $203 forward 7 unknown #
coedge $-1 $189 $76 $124 $194 reversed $120 $-1 #
coedge $-1 $76 $189 $199 $204 reversed $120 $-1 #
vertex $-1 $125 $205 #
vertex $-1 $204 $206 #
straight-curve $-1 -46.24681050662641 -38.677269252799896 0 0 0 1 I I #
face $-1 $-1 $207 $17 $-1 $208 reversed single #
loop $-1 $-1 $84 $78 #
plane-surface $-1 0 0 10.910065980306532 0 0 1 1 0 0 forward_v I I I I #
coedge $-1 $209 $210 $211 $212 reversed $79 $-1 #
coedge $-1 $213 $81 $83 $144 forward $49 $-1 #
coedge $-1 $81 $213 $209 $214 forward $49 $-1 #
coedge $-1 $211 $84 $81 $141 forward $135 $-1 #
edge $-1 $147 -38.229613035760934 $215 -1.9480685897328378 $140 $216 forward 7 unknown #
coedge $-1 $217 $218 $82 $143 forward $207 $-1 #
edge $-1 $219 -70.089102151318684 $146 -63.94675378663316 $142 $220 forward 7 unknown #
edge $-1 $147 66.645681069615023 $219 77.354538505599777 $83 $221 forward 7 unknown #
coedge $-1 $84 $211 $217 $222 forward $135 $-1 #
vertex $-1 $143 $223 #
vertex $-1 $85 $224 #
straight-curve $-1 -58.318453848507815 22.868521416173007 10.910065980306527 0 -1 0 I I #
coedge $-1 $149 $149 $-1 $225 reversed $88 $-1 #
edge $-1 $226 0 $226 6.2831853071796004 $89 $227 forward 7 unknown #
vertex $-1 $92 $228 #
ellipse-curve $-1 -47.95229829249979 34.291178050171666 7.8388917979637691 0 0.57357644374324357 0.81915203911291934 1.5 0 0 1 I I #
coedge $-1 $153 $153 $-1 $229 reversed $95 $-1 #
edge $-1 $230 0 $230 6.2831853071796004 $96 $231 forward 7 unknown #
vertex $-1 $99 $232 #
ellipse-curve $-1 -32.403064958487754 34.291178050171666 7.8388917979637691 0 0.57357644374324357 0.81915203911291934 1.5 0 0 1 I I #
face $-1 $-1 $115 $15 $-1 $233 reversed single #
loop $-1 $-1 $173 $100 #
plane-surface $-1 0 38.677269252799896 0 0 -1 0 0 0 -1 forward_v I I I I #
coedge $-1 $234 $171 $174 $235 forward $101 $-1 #
coedge $-1 $177 $103 $104 $165 reversed $63 $-1 #
coedge $-1 $171 $234 $103 $163 reversed $101 $-1 #
edge $-1 $178 -10.910065980306532 $236 10.910065980306532 $162 $237 forward 7 unknown #
coedge $-1 $105 $104 $234 $238 forward $41 $-1 #
edge $-1 $169 -61.391033661915955 $236 61.391033661915955 $161 $239 forward 7 unknown #
coedge $-1 $174 $173 $105 $167 reversed $158 $-1 #
edge $-1 $240 -61.391033661915955 $168 61.391033661915955 $166 $241 forward 7 unknown #
vertex $-1 $107 $242 #
vertex $-1 $180 $243 #
straight-curve $-1 61.391033661915955 0 -10.910065980306532 0 -1 0 I I #
coedge $-1 $160 $162 $108 $172 reversed $101 $-1 #
edge $-1 $175 -38.677269252799896 $178 38.677269252799896 $171 $244 forward 7 unknown #
coedge $-1 $166 $109 $114 $181 forward $158 $-1 #
coedge $-1 $109 $166 $160 $235 reversed $158 $-1 #
vertex $-1 $110 $245 #
straight-curve $-1 0 38.677269252799896 10.910065980306532 -1 0 0 I I #
coedge $-1 $111 $161 $113 $180 reversed $63 $-1 #
vertex $-1 $172 $246 #
straight-curve $-1 0 -38.677269252799896 10.910065980306532 1 0 0 I I #
edge $-1 $116 -10.910065980306532 $169 10.910065980306532 $113 $247 forward 7 unknown #
edge $-1 $117 -10.910065980306532 $168 10.910065980306532 $114 $248 forward 7 unknown #
point $-1 61.391033661915955 -38.677269252799896 10.910065980306532 #
point $-1 61.391033661915955 38.677269252799896 10.910065980306532 #
face $-1 $-1 $201 $16 $-1 $249 forward single #
loop $-1 $-1 $250 $119 #
plane-surface $-1 -40.543822984915955 -45.19426150201101 0 -1 0 0 0 0 1 forward_v I I I I #
coedge $-1 $251 $122 $191 $252 reversed $71 $-1 #
coedge $-1 $122 $251 $253 $254 reversed $71 $-1 #
coedge $-1 $130 $129 $122 $190 reversed $120 $-1 #
edge $-1 $255 -10.910065980306532 $256 10.910065980306532 $189 $257 forward 7 unknown #
coedge $-1 $124 $123 $187 $252 forward $45 $-1 #
coedge $-1 $197 $250 $123 $193 reversed $185 $-1 #
edge $-1 $195 -6.5169922492111141 $258 6.5169922492111141 $192 $259 forward 7 unknown #
edge $-1 $256 -6.5169922492111141 $131 6.5169922492111141 $129 $260 forward 7 unknown #
vertex $-1 $193 $261 #
straight-curve $-1 0 -38.677269252799896 -10.910065980306532 1 0 0 I I #
coedge $-1 $262 $192 $126 $198 reversed $185 $-1 #
edge $-1 $202 -10.910065980306532 $195 10.910065980306532 $197 $263 forward 7 unknown #
coedge $-1 $253 $127 $130 $204 forward $201 $-1 #
coedge $-1 $127 $253 $262 $264 forward $201 $-1 #
loop $-1 $-1 $127 $184 #
vertex $-1 $128 $265 #
straight-curve $-1 0 -38.677269252799896 10.910065980306532 -1 0 0 I I #
edge $-1 $132 -6.5169922492111141 $255 6.5169922492111141 $130 $266 forward 7 unknown #
point $-1 -46.24681050662641 -38.677269252799896 -10.910065980306532 #
point $-1 -46.24681050662641 -38.677269252799896 10.910065980306532 #
loop $-1 $-1 $142 $134 #
plane-surface $-1 0 38.677269252799896 0 0 -1 0 0 0 -1 forward_v I I I I #
coedge $-1 $210 $137 $139 $214 reversed $79 $-1 #
coedge $-1 $137 $209 $267 $268 reversed $79 $-1 #
coedge $-1 $145 $140 $137 $212 forward $135 $-1 #
edge $-1 $215 7.0365654313704304 $269 15.808747836626889 $211 $270 forward 7 unknown #
coedge $-1 $139 $138 $218 $271 reversed $49 $-1 #
edge $-1 $272 -77.354538505599777 $215 -66.645681069615023 $209 $273 forward 7 unknown #
vertex $-1 $141 $274 #
straight-curve $-1 -20.088840812746884 29.90508684754343 10.910065980306538 1 0 0 I I #
coedge $-1 $267 $142 $145 $222 reversed $207 $-1 #
coedge $-1 $142 $267 $213 $271 forward $207 $-1 #
vertex $-1 $143 $275 #
straight-curve $-1 -58.318453848507815 38.677269252799896 74.856819766939694 0 0 1 I I #
straight-curve $-1 -58.318453848507815 -24.687858698701 49.13645871906273 0 0.81915203911291934 -0.57357644374324357 I I #
edge $-1 $269 22.036909402479722 $146 58.318453848507815 $217 $276 forward 7 unknown #
point $-1 -58.318453848507815 38.677269252799896 10.910065980306532 #
point $-1 -58.318453848507815 29.905086847543437 10.910065980306534 #
edge $-1 $277 1 $277 0 $149 $-1 forward 7 unknown #
vertex $-1 $150 $278 #
ellipse-curve $-1 -47.95229829249979 31.044756734316643 3.2025217557297658 0 0.57357644374324357 0.81915203911291934 1.5 0 0 1 I I #
point $-1 -46.45229829249979 34.291178050171681 7.8388917979637824 #
edge $-1 $279 1 $279 0 $153 $-1 forward 7 unknown #
vertex $-1 $154 $280 #
ellipse-curve $-1 -32.403064958487754 31.044756734316643 3.2025217557297658 0 0.57357644374324357 0.81915203911291934 1.5 0 0 1 I I #
point $-1 -30.903064958487754 34.291178050171681 7.8388917979637824 #
plane-surface $-1 61.391033661915955 0 0 -1 0 0 0 0 1 forward_v I I I I #
coedge $-1 $162 $160 $164 $238 reversed $101 $-1 #
edge $-1 $175 -10.910065980306532 $240 10.910065980306532 $174 $281 forward 7 unknown #
vertex $-1 $238 $282 #
straight-curve $-1 -61.391033661915955 -38.677269252799896 0 0 0 -1 I I #
edge $-1 $236 -38.677269252799896 $240 38.677269252799896 $234 $283 forward 7 unknown #
straight-curve $-1 0 -38.677269252799896 -10.910065980306532 -1 0 0 I I #
vertex $-1 $167 $284 #
straight-curve $-1 0 38.677269252799896 -10.910065980306532 1 0 0 I I #
point $-1 61.391033661915955 38.677269252799896 -10.910065980306532 #
point $-1 61.391033661915955 -38.677269252799896 -10.910065980306532 #
straight-curve $-1 -61.391033661915955 0 10.910065980306532 0 -1 0 I I #
point $-1 -61.391033661915955 38.677269252799896 10.910065980306532 #
point $-1 -61.391033661915955 -38.677269252799896 10.910065980306532 #
straight-curve $-1 61.391033661915955 -38.677269252799896 0 0 0 -1 I I #
straight-curve $-1 61.391033661915955 38.677269252799896 0 0 0 -1 I I #
plane-surface $-1 0 0 10.910065980306532 0 0 1 1 0 0 forward_v I I I I #
coedge $-1 $192 $262 $251 $285 forward $185 $-1 #
coedge $-1 $188 $187 $250 $285 reversed $71 $-1 #
edge $-1 $258 -2.8514937608552273 $256 2.8514937608552273 $187 $286 forward 7 unknown #
coedge $-1 $200 $199 $188 $254 forward $201 $-1 #
edge $-1 $255 -2.8514937608552273 $287 2.8514937608552273 $188 $288 forward 7 unknown #
vertex $-1 $204 $289 #
vertex $-1 $194 $290 #
straight-curve $-1 -46.24681050662641 -51.711253751222124 0 0 0 -1 I I #
vertex $-1 $285 $291 #
straight-curve $-1 -40.543822984915955 -45.19426150201101 -10.910065980306532 0 -1 0 I I #
straight-curve $-1 -46.24681050662641 -45.19426150201101 -10.910065980306532 0 1 0 I I #
point $-1 -40.543822984915955 -38.677269252799896 -10.910065980306532 #
coedge $-1 $250 $197 $200 $264 reversed $185 $-1 #
straight-curve $-1 -40.543822984915955 -38.677269252799896 0 0 0 -1 I I #
edge $-1 $287 -6.5169922492111141 $202 6.5169922492111141 $262 $292 forward 7 unknown #
point $-1 -40.543822984915955 -38.677269252799896 10.910065980306532 #
straight-curve $-1 -46.24681050662641 -45.19426150201101 10.910065980306532 0 -1 0 I I #
coedge $-1 $218 $217 $210 $268 forward $207 $-1 #
edge $-1 $269 63.94675378663316 $272 70.089102151318684 $267 $293 forward 7 unknown #
vertex $-1 $222 $294 #
straight-curve $-1 -22.036909402479722 22.868521416173007 10.910065980306527 0 1 0 I I #
edge $-1 $272 1.9480685897328378 $219 38.229613035760934 $218 $295 forward 7 unknown #
vertex $-1 $271 $296 #
straight-curve $-1 -22.036909402479722 -24.687858698701 49.13645871906273 0 -0.81915203911291934 0.57357644374324357 I I #
point $-1 -22.036909402479722 29.905086847543437 10.910065980306534 #
point $-1 -58.318453848507815 38.677269252799896 4.7677176156210095 #
straight-curve $-1 0 38.677269252799896 10.910065980306532 -1 0 0 I I #
vertex $-1 $225 $297 #
point $-1 -46.45229829249979 31.044756734316643 3.2025217557297658 #
vertex $-1 $229 $298 #
point $-1 -30.903064958487754 31.044756734316643 3.2025217557297658 #
straight-curve $-1 -61.391033661915955 38.677269252799896 0 0 0 -1 I I #
point $-1 -61.391033661915955 -38.677269252799896 -10.910065980306532 #
straight-curve $-1 -61.391033661915955 0 -10.910065980306532 0 1 0 I I #
point $-1 -61.391033661915955 38.677269252799896 -10.910065980306532 #
edge $-1 $287 -10.910065980306532 $258 10.910065980306532 $250 $299 forward 7 unknown #
straight-curve $-1 -43.395316745771183 -51.711253751222124 -10.910065980306532 -1 0 0 I I #
vertex $-1 $264 $300 #
straight-curve $-1 -43.395316745771183 -51.711253751222124 10.910065980306532 1 0 0 I I #
point $-1 -46.24681050662641 -51.711253751222124 10.910065980306532 #
point $-1 -46.24681050662641 -51.711253751222124 -10.910065980306532 #
point $-1 -40.543822984915955 -51.711253751222124 -10.910065980306532 #
straight-curve $-1 -40.543822984915955 -45.19426150201101 10.910065980306532 0 1 0 I I #
straight-curve $-1 -22.036909402479722 38.677269252799896 74.856819766939694 0 0 -1 I I #
point $-1 -22.036909402479722 38.677269252799896 10.910065980306532 #
straight-curve $-1 -20.088840812746884 38.677269252799896 4.767717615621013 -1 0 0 I I #
point $-1 -22.036909402479722 38.677269252799896 4.7677176156210095 #
point $-1 -47.95229829249979 30.184392068701776 1.9737936970603869 #
point $-1 -32.403064958487754 30.184392068701776 1.9737936970603869 #
straight-curve $-1 -40.543822984915955 -51.711253751222124 0 0 0 -1 I I #
point $-1 -40.543822984915955 -51.711253751222124 10.910065980306532 #
End-of-ACIS-data 