500 0 7 0           
7 Unknown 11 ACIS 5.0 NT 24 Thu Mar 25 16:47:42 1999 
-1 9.9999999999999995e-007 1e-010 
body $-1 $7 $-1 $8 #
body $-1 $9 $-1 $10 #
body $-1 $11 $-1 $12 #
body $-1 $13 $-1 $14 #
body $-1 $15 $-1 $16 #
body $-1 $17 $-1 $18 #
body $-1 $19 $-1 $20 #
lump $-1 $-1 $21 $0 #
transform $-1 1 0 0 0 1 0 0 0 1 77.801446577349168 42.479157693311038 14.547429430210897 1 rotate no_reflect no_shear #
lump $-1 $-1 $22 $1 #
transform $-1 1 0 0 0 1 0 0 0 1 77.801446577349168 42.479157693311038 14.547429430210897 1 rotate no_reflect no_shear #
lump $-1 $-1 $23 $2 #
transform $-1 1 0 0 0 1 0 0 0 1 77.801446577349168 42.479157693311038 14.547429430210897 1 rotate no_reflect no_shear #
lump $-1 $-1 $24 $3 #
transform $-1 1 0 0 0 1 0 0 0 1 77.801446577349168 42.479157693311038 14.547429430210897 1 rotate no_reflect no_shear #
lump $-1 $-1 $25 $4 #
transform $-1 1 0 0 0 1 0 0 0 1 77.801446577349168 42.479157693311038 14.547429430210897 1 rotate no_reflect no_shear #
lump $-1 $-1 $26 $5 #
transform $-1 1 0 0 0 1 0 0 0 1 77.801446577349168 42.479157693311038 14.547429430210897 1 rotate no_reflect no_shear #
lump $-1 $-1 $27 $6 #
transform $-1 1 0 0 0 1 0 0 0 1 77.801446577349168 42.479157693311038 14.547429430210897 1 rotate no_reflect no_shear #
shell $-1 $-1 $-1 $28 $-1 $7 #
shell $-1 $-1 $-1 $29 $-1 $9 #
shell $-1 $-1 $-1 $30 $-1 $11 #
shell $-1 $-1 $-1 $31 $-1 $13 #
shell $-1 $-1 $-1 $32 $-1 $15 #
shell $-1 $-1 $-1 $33 $-1 $17 #
shell $-1 $-1 $-1 $34 $-1 $19 #
face $-1 $35 $36 $21 $-1 $37 forward single #
face $-1 $38 $39 $22 $-1 $40 forward single #
face $-1 $41 $42 $23 $-1 $43 forward single #
face $-1 $44 $45 $24 $-1 $46 reversed single #
face $-1 $47 $48 $25 $-1 $49 forward single #
face $-1 $50 $51 $26 $-1 $52 forward single #
face $-1 $53 $54 $27 $-1 $55 forward single #
face $-1 $56 $57 $21 $-1 $58 reversed single #
loop $-1 $-1 $59 $28 #
plane-surface $-1 0 0 14.547429430210897 0 0 1 1 0 0 forward_v I I I I #
face $-1 $60 $61 $22 $-1 $62 reversed single #
loop $-1 $-1 $63 $29 #
plane-surface $-1 0 -36.467611288527678 6.875982293549094 0 0 1 1 0 0 forward_v I I I I #
face $-1 $64 $65 $23 $-1 $66 reversed single #
loop $-1 $-1 $67 $30 #
plane-surface $-1 0 36.467611288527678 6.875982293549094 0 0 1 1 0 0 forward_v I I I I #
face $-1 $68 $69 $24 $-1 $70 reversed single #
loop $-1 $-1 $71 $31 #
plane-surface $-1 100.80353589272664 -20.807326945292179 227.87898604194373 0 1 0 0.77714596973225614 0 0.62932038083071107 forward_v I I I I #
face $-1 $72 $73 $25 $-1 $74 forward single #
loop $-1 $75 $76 $32 #
cone-surface $-1 75.178405530502545 -19.415979167168622 11.473430909498003 -0.77714596973225614 0 -0.62932038083071107 0.31466019041535553 0 -0.38857298486612807 1 I I 0 1 0.5 forward I I I I #
face $-1 $77 $78 $26 $-1 $79 forward single #
loop $-1 $80 $81 $33 #
cone-surface $-1 75.178405530502545 -17.328957499983289 11.473430909498003 -0.77714596973225614 0 -0.62932038083071107 0.31466019041535553 0 -0.38857298486612807 1 I I 0 1 0.5 forward I I I I #
face $-1 $82 $83 $27 $-1 $84 forward single #
loop $-1 $85 $86 $34 #
cone-surface $-1 75.178405530502545 -15.241935832797957 11.473430909498003 -0.77714596973225614 0 -0.62932038083071107 0.31466019041535553 0 -0.38857298486612807 1 I I 0 1 0.5 forward I I I I #
face $-1 $87 $88 $21 $-1 $89 reversed single #
loop $-1 $-1 $90 $35 #
plane-surface $-1 0 0 -14.547429430210897 0 0 1 1 0 0 forward_v I I I I #
coedge $-1 $91 $92 $93 $94 forward $36 $-1 #
face $-1 $95 $96 $22 $-1 $97 reversed single #
loop $-1 $-1 $98 $38 #
plane-surface $-1 0 -36.467611288527678 -1.0508506024939814 0 0 1 1 0 0 forward_v I I I I #
coedge $-1 $99 $100 $101 $102 reversed $39 $-1 #
face $-1 $103 $104 $23 $-1 $105 reversed single #
loop $-1 $-1 $106 $41 #
plane-surface $-1 0 36.467611288527678 -1.0508506024939814 0 0 1 1 0 0 forward_v I I I I #
coedge $-1 $107 $108 $109 $110 reversed $42 $-1 #
face $-1 $111 $112 $24 $-1 $113 reversed single #
loop $-1 $-1 $114 $44 #
plane-surface $-1 -20.122625401126029 -17.328957499983289 129.95491406346855 0.77714596973225614 0 0.62932038083071107 0.62932038083071107 0 -0.77714596973225614 forward_v I I I I #
coedge $-1 $115 $116 $117 $118 reversed $45 $-1 #
face $-1 $-1 $119 $25 $-1 $120 forward single #
loop $-1 $121 $122 $47 #
cone-surface $-1 74.59554605320335 -19.415979167168622 11.00144062387497 -0.77714596973225614 0 -0.62932038083071107 0.15733009520767777 0 -0.19428649243306403 1 I I -0.70710678118654746 0.70710678118654746 0.25 forward I I I I #
loop $-1 $-1 $123 $32 #
coedge $-1 $76 $76 $124 $125 reversed $48 $-1 #
face $-1 $-1 $126 $26 $-1 $127 forward single #
loop $-1 $128 $129 $50 #
cone-surface $-1 74.59554605320335 -17.328957499983289 11.00144062387497 -0.77714596973225614 0 -0.62932038083071107 0.15733009520767777 0 -0.19428649243306403 1 I I -0.70710678118654746 0.70710678118654746 0.25 forward I I I I #
loop $-1 $-1 $130 $33 #
coedge $-1 $81 $81 $131 $132 reversed $51 $-1 #
face $-1 $-1 $133 $27 $-1 $134 forward single #
loop $-1 $135 $136 $53 #
cone-surface $-1 74.59554605320335 -15.241935832797957 11.00144062387497 -0.77714596973225614 0 -0.62932038083071107 0.15733009520767777 0 -0.19428649243306403 1 I I -0.70710678118654746 0.70710678118654746 0.25 forward I I I I #
loop $-1 $-1 $137 $34 #
coedge $-1 $86 $86 $138 $139 reversed $54 $-1 #
face $-1 $140 $141 $21 $-1 $142 reversed single #
loop $-1 $-1 $143 $56 #
plane-surface $-1 0 -42.479157693311038 0 0 1 0 0 0 1 forward_v I I I I #
coedge $-1 $144 $145 $146 $147 forward $57 $-1 #
coedge $-1 $148 $59 $149 $150 forward $36 $-1 #
coedge $-1 $59 $148 $151 $152 forward $36 $-1 #
coedge $-1 $153 $154 $59 $94 reversed $155 $-1 #
edge $-1 $156 -42.479157693311038 $157 42.479157693311038 $93 $158 forward 7 unknown #
face $-1 $159 $160 $22 $-1 $161 reversed single #
loop $-1 $-1 $162 $60 #
plane-surface $-1 0 -30.456064883744315 2.9125658455275563 0 -1 0 0 0 -1 forward_v I I I I #
coedge $-1 $163 $164 $165 $166 reversed $61 $-1 #
coedge $-1 $167 $63 $168 $169 forward $39 $-1 #
coedge $-1 $63 $167 $170 $171 reversed $39 $-1 #
coedge $-1 $172 $173 $63 $102 forward $174 $-1 #
edge $-1 $175 12.222259239480476 $176 24.245352049047199 $101 $177 forward 7 unknown #
face $-1 $178 $179 $23 $-1 $180 reversed single #
loop $-1 $-1 $181 $64 #
plane-surface $-1 0 30.456064883744318 2.9125658455275563 0 1 0 0 0 1 forward_v I I I I #
coedge $-1 $182 $183 $184 $185 reversed $65 $-1 #
coedge $-1 $186 $67 $187 $188 reversed $42 $-1 #
coedge $-1 $67 $186 $189 $190 forward $42 $-1 #
coedge $-1 $191 $192 $67 $110 forward $179 $-1 #
edge $-1 $193 -24.245352049047199 $194 -12.222259239480479 $109 $195 forward 7 unknown #
face $-1 $196 $197 $24 $-1 $198 forward single #
loop $-1 $-1 $199 $68 #
plane-surface $-1 100.80353589272664 -13.8505880546744 227.87898604194373 0 -1 0 -0.77714596973225614 0 -0.62932038083071107 forward_v I I I I #
coedge $-1 $200 $201 $202 $203 reversed $69 $-1 #
coedge $-1 $116 $71 $204 $205 reversed $45 $-1 #
coedge $-1 $71 $115 $200 $206 reversed $45 $-1 #
coedge $-1 $202 $207 $71 $118 forward $208 $-1 #
edge $-1 $209 99.392063590760969 $210 104.91074025135599 $117 $211 forward 7 unknown #
loop $-1 $-1 $124 $72 #
plane-surface $-1 -20.122625401126029 -17.328957499983289 129.95491406346855 0.77714596973225614 0 0.62932038083071107 0.62932038083071107 0 -0.77714596973225614 forward_v I I I I #
loop $-1 $-1 $212 $47 #
coedge $-1 $122 $122 $123 $213 reversed $73 $-1 #
coedge $-1 $123 $123 $122 $213 forward $75 $-1 #
coedge $-1 $124 $124 $76 $125 forward $119 $-1 #
edge $-1 $214 0 $214 6.2831853071796004 $124 $215 forward 7 unknown #
loop $-1 $-1 $131 $77 #
plane-surface $-1 -20.122625401126029 -17.328957499983289 129.95491406346855 0.77714596973225614 0 0.62932038083071107 0.62932038083071107 0 -0.77714596973225614 forward_v I I I I #
loop $-1 $-1 $216 $50 #
coedge $-1 $129 $129 $130 $217 reversed $78 $-1 #
coedge $-1 $130 $130 $129 $217 forward $80 $-1 #
coedge $-1 $131 $131 $81 $132 forward $126 $-1 #
edge $-1 $218 0 $218 6.2831853071796004 $131 $219 forward 7 unknown #
loop $-1 $-1 $138 $82 #
plane-surface $-1 -20.122625401126029 -17.328957499983289 129.95491406346855 0.77714596973225614 0 0.62932038083071107 0.62932038083071107 0 -0.77714596973225614 forward_v I I I I #
loop $-1 $-1 $220 $53 #
coedge $-1 $136 $136 $137 $221 reversed $83 $-1 #
coedge $-1 $137 $137 $136 $221 forward $85 $-1 #
coedge $-1 $138 $138 $86 $139 forward $133 $-1 #
edge $-1 $222 0 $222 6.2831853071796004 $138 $223 forward 7 unknown #
face $-1 $224 $225 $21 $-1 $226 reversed single #
loop $-1 $-1 $227 $87 #
plane-surface $-1 -77.801446577349168 0 0 1 0 0 0 0 -1 forward_v I I I I #
coedge $-1 $228 $151 $229 $230 forward $88 $-1 #
coedge $-1 $231 $90 $228 $232 forward $57 $-1 #
coedge $-1 $90 $231 $233 $234 forward $57 $-1 #
coedge $-1 $154 $153 $90 $147 reversed $155 $-1 #
edge $-1 $235 -42.479157693311038 $236 42.479157693311038 $146 $237 forward 7 unknown #
coedge $-1 $92 $91 $238 $239 forward $36 $-1 #
coedge $-1 $240 $241 $91 $150 reversed $225 $-1 #
edge $-1 $157 -77.801446577349168 $242 77.801446577349168 $149 $243 forward 7 unknown #
coedge $-1 $143 $244 $92 $152 reversed $88 $-1 #
edge $-1 $245 -77.801446577349168 $156 77.801446577349168 $151 $246 forward 7 unknown #
coedge $-1 $146 $93 $244 $247 forward $155 $-1 #
coedge $-1 $93 $146 $240 $248 reversed $155 $-1 #
loop $-1 $-1 $153 $224 #
vertex $-1 $94 $249 #
vertex $-1 $94 $250 #
straight-curve $-1 77.801446577349168 0 14.547429430210897 0 1 0 I I #
face $-1 $251 $252 $22 $-1 $253 reversed single #
loop $-1 $-1 $254 $95 #
plane-surface $-1 -77.801446577349168 0 0 1 0 0 0 0 -1 forward_v I I I I #
coedge $-1 $255 $168 $173 $256 reversed $96 $-1 #
coedge $-1 $257 $98 $258 $259 reversed $61 $-1 #
coedge $-1 $98 $257 $255 $260 forward $61 $-1 #
coedge $-1 $173 $172 $98 $166 forward $174 $-1 #
edge $-1 $261 -24.245352049047199 $262 -12.222259239480476 $165 $263 forward 7 unknown #
coedge $-1 $100 $99 $254 $264 reversed $39 $-1 #
coedge $-1 $162 $265 $99 $169 reversed $96 $-1 #
edge $-1 $175 -77.801446577349168 $266 77.801446577349168 $168 $267 forward 7 unknown #
coedge $-1 $268 $269 $100 $171 forward $252 $-1 #
edge $-1 $176 -77.801446577349168 $270 77.801446577349168 $170 $271 forward 7 unknown #
coedge $-1 $165 $101 $269 $272 forward $174 $-1 #
coedge $-1 $101 $165 $162 $256 forward $174 $-1 #
loop $-1 $-1 $101 $251 #
vertex $-1 $102 $273 #
vertex $-1 $272 $274 #
straight-curve $-1 77.801446577349168 -18.233805644263839 6.875982293549094 0 -1 0 I I #
face $-1 $275 $276 $23 $-1 $277 reversed single #
loop $-1 $-1 $109 $103 #
plane-surface $-1 77.801446577349168 0 0 -1 0 0 0 0 1 forward_v I I I I #
coedge $-1 $278 $189 $279 $280 reversed $104 $-1 #
coedge $-1 $281 $106 $278 $282 forward $65 $-1 #
coedge $-1 $106 $281 $283 $284 reversed $65 $-1 #
coedge $-1 $192 $191 $106 $185 forward $179 $-1 #
edge $-1 $285 12.222259239480479 $286 24.245352049047199 $184 $287 forward 7 unknown #
coedge $-1 $108 $107 $288 $289 reversed $42 $-1 #
coedge $-1 $290 $291 $107 $188 forward $292 $-1 #
edge $-1 $293 -77.801446577349168 $193 77.801446577349168 $187 $294 forward 7 unknown #
coedge $-1 $181 $295 $108 $190 reversed $104 $-1 #
edge $-1 $296 -77.801446577349168 $194 77.801446577349168 $189 $297 forward 7 unknown #
coedge $-1 $184 $109 $295 $298 forward $179 $-1 #
coedge $-1 $109 $184 $290 $299 reversed $179 $-1 #
vertex $-1 $299 $300 #
vertex $-1 $110 $301 #
straight-curve $-1 77.801446577349168 18.233805644263839 6.875982293549094 0 -1 0 I I #
face $-1 $-1 $208 $24 $-1 $302 reversed single #
loop $-1 $-1 $303 $111 #
plane-surface $-1 0 0 14.547429430210897 0 0 1 1 0 0 forward_v I I I I #
coedge $-1 $304 $305 $306 $307 reversed $112 $-1 #
coedge $-1 $308 $114 $116 $206 forward $69 $-1 #
coedge $-1 $114 $308 $304 $309 forward $69 $-1 #
coedge $-1 $306 $117 $114 $203 forward $208 $-1 #
edge $-1 $210 -12.142848195300534 $310 -5.1861093046827555 $202 $311 forward 7 unknown #
coedge $-1 $312 $313 $115 $205 forward $197 $-1 #
edge $-1 $314 22.930742507024789 $209 27.399678630985846 $204 $315 forward 7 unknown #
edge $-1 $210 -155.60289315469834 $314 -148.50168324622214 $116 $316 forward 7 unknown #
coedge $-1 $117 $306 $312 $317 reversed $208 $-1 #
loop $-1 $-1 $306 $196 #
vertex $-1 $317 $318 #
vertex $-1 $118 $319 #
straight-curve $-1 77.801446577349168 -20.807326945292179 113.93949302097187 0 0 -1 I I #
coedge $-1 $212 $212 $-1 $320 reversed $121 $-1 #
edge $-1 $321 0 $321 6.2831853071796004 $122 $322 forward 7 unknown #
vertex $-1 $125 $323 #
ellipse-curve $-1 75.566978515368675 -19.415979167168622 11.788091099913359 0.77714596973225614 0 0.62932038083071107 0.31466019041535553 0 -0.38857298486612807 1 I I #
coedge $-1 $216 $216 $-1 $324 reversed $128 $-1 #
edge $-1 $325 0 $325 6.2831853071796004 $129 $326 forward 7 unknown #
vertex $-1 $132 $327 #
ellipse-curve $-1 75.566978515368675 -17.328957499983289 11.788091099913359 0.77714596973225614 0 0.62932038083071107 0.31466019041535553 0 -0.38857298486612807 1 I I #
coedge $-1 $220 $220 $-1 $328 reversed $135 $-1 #
edge $-1 $329 0 $329 6.2831853071796004 $136 $330 forward 7 unknown #
vertex $-1 $139 $331 #
ellipse-curve $-1 75.566978515368675 -15.241935832797957 11.788091099913359 0.77714596973225614 0 0.62932038083071107 0.31466019041535553 0 -0.38857298486612807 1 I I #
face $-1 $-1 $155 $21 $-1 $332 reversed single #
loop $-1 $-1 $240 $140 #
plane-surface $-1 0 42.479157693311038 0 0 -1 0 0 0 -1 forward_v I I I I #
coedge $-1 $333 $238 $241 $334 forward $141 $-1 #
coedge $-1 $244 $143 $144 $232 reversed $88 $-1 #
coedge $-1 $238 $333 $143 $230 reversed $141 $-1 #
edge $-1 $245 -14.547429430210897 $335 14.547429430210897 $229 $336 forward 7 unknown #
coedge $-1 $145 $144 $333 $337 forward $57 $-1 #
edge $-1 $236 -77.801446577349168 $335 77.801446577349168 $228 $338 forward 7 unknown #
coedge $-1 $241 $240 $145 $234 reversed $225 $-1 #
edge $-1 $339 -77.801446577349168 $235 77.801446577349168 $233 $340 forward 7 unknown #
vertex $-1 $147 $341 #
vertex $-1 $247 $342 #
straight-curve $-1 77.801446577349168 0 -14.547429430210897 0 -1 0 I I #
coedge $-1 $227 $229 $148 $239 reversed $141 $-1 #
edge $-1 $242 -42.479157693311038 $245 42.479157693311038 $238 $343 forward 7 unknown #
coedge $-1 $233 $149 $154 $248 forward $225 $-1 #
coedge $-1 $149 $233 $227 $334 reversed $225 $-1 #
vertex $-1 $150 $344 #
straight-curve $-1 0 42.479157693311038 14.547429430210897 -1 0 0 I I #
coedge $-1 $151 $228 $153 $247 reversed $88 $-1 #
vertex $-1 $239 $345 #
straight-curve $-1 0 -42.479157693311038 14.547429430210897 1 0 0 I I #
edge $-1 $156 -14.547429430210897 $236 14.547429430210897 $153 $346 forward 7 unknown #
edge $-1 $157 -14.547429430210897 $235 14.547429430210897 $154 $347 forward 7 unknown #
point $-1 77.801446577349168 -42.479157693311038 14.547429430210897 #
point $-1 77.801446577349168 42.479157693311038 14.547429430210897 #
face $-1 $-1 $174 $22 $-1 $348 reversed single #
loop $-1 $-1 $170 $159 #
plane-surface $-1 0 -42.479157693311038 0 0 1 0 0 0 1 forward_v I I I I #
coedge $-1 $349 $350 $167 $264 forward $160 $-1 #
coedge $-1 $265 $162 $164 $260 reversed $96 $-1 #
edge $-1 $262 -2.5071335252577596 $175 5.4196993707853158 $173 $351 forward 7 unknown #
coedge $-1 $164 $163 $352 $353 reversed $61 $-1 #
coedge $-1 $269 $268 $163 $259 forward $252 $-1 #
edge $-1 $354 -77.801446577349168 $261 77.801446577349168 $258 $355 forward 7 unknown #
edge $-1 $356 -77.801446577349168 $262 77.801446577349168 $255 $357 forward 7 unknown #
vertex $-1 $259 $358 #
vertex $-1 $166 $359 #
straight-curve $-1 77.801446577349168 -18.233805644263839 -1.0508506024939814 0 1 0 I I #
edge $-1 $270 -24.245352049047199 $266 -12.222259239480476 $254 $360 forward 7 unknown #
coedge $-1 $168 $255 $349 $361 reversed $96 $-1 #
vertex $-1 $264 $362 #
straight-curve $-1 0 -30.456064883744315 6.875982293549094 -1 0 0 I I #
coedge $-1 $258 $170 $350 $363 forward $252 $-1 #
coedge $-1 $170 $258 $172 $272 reversed $252 $-1 #
vertex $-1 $363 $364 #
straight-curve $-1 0 -42.479157693311038 6.875982293549094 -1 0 0 I I #
edge $-1 $176 -6.875982293549094 $261 1.0508506024939814 $172 $365 forward 7 unknown #
point $-1 77.801446577349168 -30.456064883744315 6.875982293549094 #
point $-1 77.801446577349168 -42.479157693311038 6.875982293549094 #
face $-1 $-1 $292 $23 $-1 $366 reversed single #
loop $-1 $-1 $288 $178 #
plane-surface $-1 -77.801446577349168 0 0 1 0 0 0 0 -1 forward_v I I I I #
coedge $-1 $295 $181 $182 $282 reversed $104 $-1 #
coedge $-1 $288 $367 $181 $280 forward $276 $-1 #
edge $-1 $368 -2.5071335252577596 $296 5.4196993707853158 $279 $369 forward 7 unknown #
coedge $-1 $183 $182 $367 $370 reversed $65 $-1 #
edge $-1 $285 -77.801446577349168 $368 77.801446577349168 $278 $371 forward 7 unknown #
coedge $-1 $291 $290 $183 $284 forward $292 $-1 #
edge $-1 $286 -77.801446577349168 $372 77.801446577349168 $283 $373 forward 7 unknown #
vertex $-1 $185 $374 #
vertex $-1 $284 $375 #
straight-curve $-1 77.801446577349168 18.233805644263839 -1.0508506024939814 0 1 0 I I #
coedge $-1 $376 $279 $186 $289 forward $276 $-1 #
edge $-1 $296 12.222259239480479 $293 24.245352049047199 $288 $377 forward 7 unknown #
coedge $-1 $283 $187 $192 $299 forward $292 $-1 #
coedge $-1 $187 $283 $376 $378 reversed $292 $-1 #
loop $-1 $-1 $187 $275 #
vertex $-1 $378 $379 #
straight-curve $-1 0 42.479157693311038 6.875982293549094 1 0 0 I I #
coedge $-1 $189 $278 $191 $298 reversed $104 $-1 #
vertex $-1 $289 $380 #
straight-curve $-1 0 30.456064883744318 6.875982293549094 1 0 0 I I #
edge $-1 $194 -5.4196993707853158 $285 2.5071335252577596 $191 $381 forward 7 unknown #
edge $-1 $193 -6.875982293549094 $286 1.0508506024939814 $192 $382 forward 7 unknown #
point $-1 77.801446577349168 42.479157693311038 6.875982293549094 #
point $-1 77.801446577349168 30.456064883744318 6.875982293549094 #
plane-surface $-1 77.801446577349168 0 0 -1 0 0 0 0 1 forward_v I I I I #
coedge $-1 $313 $312 $305 $383 forward $197 $-1 #
coedge $-1 $305 $199 $201 $309 reversed $112 $-1 #
coedge $-1 $199 $304 $303 $383 reversed $112 $-1 #
coedge $-1 $207 $202 $199 $307 forward $208 $-1 #
edge $-1 $310 -104.91074025135599 $384 -99.392063590760969 $306 $385 forward 7 unknown #
coedge $-1 $201 $200 $313 $386 reversed $69 $-1 #
edge $-1 $387 148.50168324622214 $310 155.60289315469834 $304 $388 forward 7 unknown #
vertex $-1 $203 $389 #
straight-curve $-1 77.801446577349168 -8.6644787499916447 9.0287527696158847 0 1 0 I I #
coedge $-1 $303 $204 $207 $317 forward $197 $-1 #
coedge $-1 $204 $303 $308 $386 forward $197 $-1 #
vertex $-1 $205 $390 #
straight-curve $-1 50.401767946363321 -20.807326945292179 14.547429430210897 1 0 0 I I #
straight-curve $-1 -20.122625401126029 -20.807326945292179 129.95491406346855 -0.62932038083071107 0 0.77714596973225614 I I #
edge $-1 $209 -20.807326945292179 $384 -13.8505880546744 $207 $391 forward 7 unknown #
point $-1 77.801446577349168 -20.807326945292179 14.547429430210897 #
point $-1 77.801446577349168 -20.807326945292179 9.0287527696158776 #
edge $-1 $392 1 $392 0 $212 $-1 forward 7 unknown #
vertex $-1 $213 $393 #
ellipse-curve $-1 74.789832545636415 -19.415979167168622 11.158770719082648 0.77714596973225614 0 0.62932038083071107 0.31466019041535553 0 -0.38857298486612807 1 I I #
point $-1 75.881638705784027 -19.415979167168622 11.399518115047231 #
edge $-1 $394 1 $394 0 $216 $-1 forward 7 unknown #
vertex $-1 $217 $395 #
ellipse-curve $-1 74.789832545636415 -17.328957499983289 11.158770719082648 0.77714596973225614 0 0.62932038083071107 0.31466019041535553 0 -0.38857298486612807 1 I I #
point $-1 75.881638705784027 -17.328957499983289 11.399518115047231 #
edge $-1 $396 1 $396 0 $220 $-1 forward 7 unknown #
vertex $-1 $221 $397 #
ellipse-curve $-1 74.789832545636415 -15.241935832797957 11.158770719082648 0.77714596973225614 0 0.62932038083071107 0.31466019041535553 0 -0.38857298486612807 1 I I #
point $-1 75.881638705784027 -15.241935832797957 11.399518115047231 #
plane-surface $-1 77.801446577349168 0 0 -1 0 0 0 0 1 forward_v I I I I #
coedge $-1 $229 $227 $231 $337 reversed $141 $-1 #
edge $-1 $242 -14.547429430210897 $339 14.547429430210897 $241 $398 forward 7 unknown #
vertex $-1 $337 $399 #
straight-curve $-1 -77.801446577349168 -42.479157693311038 0 0 0 -1 I I #
edge $-1 $335 -42.479157693311038 $339 42.479157693311038 $333 $400 forward 7 unknown #
straight-curve $-1 0 -42.479157693311038 -14.547429430210897 -1 0 0 I I #
vertex $-1 $234 $401 #
straight-curve $-1 0 42.479157693311038 -14.547429430210897 1 0 0 I I #
point $-1 77.801446577349168 42.479157693311038 -14.547429430210897 #
point $-1 77.801446577349168 -42.479157693311038 -14.547429430210897 #
straight-curve $-1 -77.801446577349168 0 14.547429430210897 0 -1 0 I I #
point $-1 -77.801446577349168 42.479157693311038 14.547429430210897 #
point $-1 -77.801446577349168 -42.479157693311038 14.547429430210897 #
straight-curve $-1 77.801446577349168 -42.479157693311038 0 0 0 -1 I I #
straight-curve $-1 77.801446577349168 42.479157693311038 0 0 0 -1 I I #
plane-surface $-1 77.801446577349168 0 0 -1 0 0 0 0 1 forward_v I I I I #
coedge $-1 $352 $254 $265 $361 forward $160 $-1 #
coedge $-1 $254 $352 $268 $363 reversed $160 $-1 #
straight-curve $-1 77.801446577349168 -30.456064883744315 1.4562829227637781 0 0 1 I I #
coedge $-1 $350 $349 $257 $353 forward $160 $-1 #
edge $-1 $356 12.222259239480476 $354 24.245352049047199 $352 $402 forward 7 unknown #
vertex $-1 $259 $403 #
straight-curve $-1 0 -42.479157693311038 -1.0508506024939814 1 0 0 I I #
vertex $-1 $353 $404 #
straight-curve $-1 0 -30.456064883744315 -1.0508506024939814 1 0 0 I I #
point $-1 77.801446577349168 -42.479157693311038 -1.0508506024939814 #
point $-1 77.801446577349168 -30.456064883744315 -1.0508506024939814 #
straight-curve $-1 -77.801446577349168 -18.233805644263839 6.875982293549094 0 1 0 I I #
edge $-1 $266 -5.4196993707853158 $356 2.5071335252577596 $349 $405 forward 7 unknown #
point $-1 -77.801446577349168 -30.456064883744315 6.875982293549094 #
edge $-1 $270 -6.875982293549094 $354 1.0508506024939814 $350 $406 forward 7 unknown #
point $-1 -77.801446577349168 -42.479157693311038 6.875982293549094 #
straight-curve $-1 77.801446577349168 -42.479157693311038 0 0 0 -1 I I #
plane-surface $-1 0 42.479157693311038 0 0 -1 0 0 0 -1 forward_v I I I I #
coedge $-1 $279 $376 $281 $370 forward $276 $-1 #
vertex $-1 $370 $407 #
straight-curve $-1 -77.801446577349168 30.456064883744318 1.4562829227637781 0 0 1 I I #
edge $-1 $372 -24.245352049047199 $368 -12.222259239480479 $367 $408 forward 7 unknown #
straight-curve $-1 0 30.456064883744318 -1.0508506024939814 -1 0 0 I I #
vertex $-1 $284 $409 #
straight-curve $-1 0 42.479157693311038 -1.0508506024939814 -1 0 0 I I #
point $-1 77.801446577349168 30.456064883744318 -1.0508506024939814 #
point $-1 77.801446577349168 42.479157693311038 -1.0508506024939814 #
coedge $-1 $367 $288 $291 $378 forward $276 $-1 #
straight-curve $-1 -77.801446577349168 18.233805644263839 6.875982293549094 0 1 0 I I #
edge $-1 $293 -6.875982293549094 $372 1.0508506024939814 $291 $410 forward 7 unknown #
point $-1 -77.801446577349168 42.479157693311038 6.875982293549094 #
point $-1 -77.801446577349168 30.456064883744318 6.875982293549094 #
straight-curve $-1 77.801446577349168 30.456064883744318 1.4562829227637781 0 0 -1 I I #
straight-curve $-1 77.801446577349168 42.479157693311038 0 0 0 -1 I I #
edge $-1 $384 -27.399678630985846 $387 -22.930742507024789 $303 $411 forward 7 unknown #
vertex $-1 $383 $412 #
straight-curve $-1 77.801446577349168 -13.8505880546744 113.93949302097187 0 0 1 I I #
edge $-1 $387 5.1861093046827555 $314 12.142848195300534 $313 $413 forward 7 unknown #
vertex $-1 $386 $414 #
straight-curve $-1 -20.122625401126029 -13.8505880546744 129.95491406346855 0.62932038083071107 0 -0.77714596973225614 I I #
point $-1 77.801446577349168 -13.8505880546744 9.0287527696158776 #
point $-1 73.33251045338811 -20.807326945292179 14.547429430210912 #
straight-curve $-1 77.801446577349168 0 14.547429430210897 0 1 0 I I #
vertex $-1 $320 $415 #
point $-1 75.104492736051768 -19.415979167168622 10.77019773421652 #
vertex $-1 $324 $416 #
point $-1 75.104492736051768 -17.328957499983289 10.77019773421652 #
vertex $-1 $328 $417 #
point $-1 75.104492736051768 -15.241935832797957 10.77019773421652 #
straight-curve $-1 -77.801446577349168 42.479157693311038 0 0 0 -1 I I #
point $-1 -77.801446577349168 -42.479157693311038 -14.547429430210897 #
straight-curve $-1 -77.801446577349168 0 -14.547429430210897 0 1 0 I I #
point $-1 -77.801446577349168 42.479157693311038 -14.547429430210897 #
straight-curve $-1 -77.801446577349168 -18.233805644263839 -1.0508506024939814 0 -1 0 I I #
point $-1 -77.801446577349168 -42.479157693311038 -1.0508506024939814 #
point $-1 -77.801446577349168 -30.456064883744315 -1.0508506024939814 #
straight-curve $-1 -77.801446577349168 -30.456064883744315 1.4562829227637781 0 0 -1 I I #
straight-curve $-1 -77.801446577349168 -42.479157693311038 0 0 0 -1 I I #
point $-1 -77.801446577349168 30.456064883744318 -1.0508506024939814 #
straight-curve $-1 -77.801446577349168 18.233805644263839 -1.0508506024939814 0 -1 0 I I #
point $-1 -77.801446577349168 42.479157693311038 -1.0508506024939814 #
straight-curve $-1 -77.801446577349168 42.479157693311038 0 0 0 -1 I I #
straight-curve $-1 50.401767946363321 -13.8505880546744 14.547429430210897 -1 0 0 I I #
point $-1 77.801446577349168 -13.8505880546744 14.547429430210897 #
straight-curve $-1 73.332510453388124 -8.6644787499916447 14.547429430210897 0 -1 0 I I #
point $-1 73.33251045338811 -13.8505880546744 14.547429430210912 #
point $-1 74.401259560770285 -19.415979167168622 10.844110528667292 #
point $-1 74.401259560770285 -17.328957499983289 10.844110528667292 #
point $-1 74.401259560770285 -15.241935832797957 10.844110528667292 #
End-of-ACIS-data 