500 0 4 0           
7 Unknown 11 ACIS 5.0 NT 24 Fri Mar 26 18:09:29 1999 
-1 9.9999999999999995e-007 1e-010 
body $-1 $4 $-1 $5 #
body $-1 $6 $-1 $7 #
body $-1 $8 $-1 $9 #
body $-1 $10 $-1 $11 #
lump $-1 $-1 $12 $0 #
transform $-1 1 0 0 0 1 0 0 0 1 64.588152714621415 44.141972396672713 10.079220657205896 1 rotate no_reflect no_shear #
lump $-1 $-1 $13 $1 #
transform $-1 1 0 0 0 1 0 0 0 1 64.588152714621415 44.141972396672713 10.079220657205896 1 rotate no_reflect no_shear #
lump $-1 $-1 $14 $2 #
transform $-1 1 0 0 0 1 0 0 0 1 64.588152714621415 44.141972396672713 10.079220657205896 1 rotate no_reflect no_shear #
lump $-1 $-1 $15 $3 #
transform $-1 1 0 0 0 1 0 0 0 1 64.588152714621415 44.141972396672713 10.079220657205896 1 rotate no_reflect no_shear #
shell $-1 $-1 $-1 $16 $-1 $4 #
shell $-1 $-1 $-1 $17 $-1 $6 #
shell $-1 $-1 $-1 $18 $-1 $8 #
shell $-1 $-1 $-1 $19 $-1 $10 #
face $-1 $20 $21 $12 $-1 $22 forward single #
face $-1 $23 $24 $13 $-1 $25 forward single #
face $-1 $26 $27 $14 $-1 $28 reversed single #
face $-1 $29 $30 $15 $-1 $31 forward single #
face $-1 $32 $33 $12 $-1 $34 reversed single #
loop $-1 $-1 $35 $16 #
plane-surface $-1 0 0 10.079220657205896 0 0 1 1 0 0 forward_v I I I I #
face $-1 $36 $37 $13 $-1 $38 reversed single #
loop $-1 $-1 $39 $17 #
plane-surface $-1 -60.094149760770883 0 -7.0792206572058962 0 0 1 1 0 0 forward_v I I I I #
face $-1 $40 $41 $14 $-1 $42 reversed single #
loop $-1 $-1 $43 $18 #
plane-surface $-1 52.404264213363895 59.545477271929272 160.32926877618843 1 0 0 0 -0.64278761758704617 -0.76604443648966558 forward_v I I I I #
face $-1 $44 $45 $15 $-1 $46 forward single #
loop $-1 $47 $48 $19 #
cone-surface $-1 58.496208463992645 39.563867069803727 5.7690406888696097 0 -0.64278761758704617 -0.76604443648966558 2 0 0 1 I I 0 1 2 forward I I I I #
face $-1 $49 $50 $12 $-1 $51 reversed single #
loop $-1 $-1 $52 $20 #
plane-surface $-1 0 0 -10.079220657205896 0 0 1 1 0 0 forward_v I I I I #
coedge $-1 $53 $54 $55 $56 forward $21 $-1 #
face $-1 $57 $58 $13 $-1 $59 reversed single #
loop $-1 $-1 $60 $23 #
plane-surface $-1 -55.60014680692035 0 -8.5792206572058962 -1 0 0 0 0 1 forward_v I I I I #
coedge $-1 $61 $62 $63 $64 forward $24 $-1 #
face $-1 $65 $66 $14 $-1 $67 reversed single #
loop $-1 $-1 $68 $26 #
plane-surface $-1 58.496208463992659 -23.487452343630338 61.374478675827177 0 0.64278761758704617 0.76604443648966558 1 0 0 forward_v I I I I #
coedge $-1 $69 $70 $71 $72 reversed $27 $-1 #
face $-1 $-1 $73 $15 $-1 $74 forward single #
loop $-1 $75 $76 $29 #
cone-surface $-1 58.496208463992645 37.592033122326171 3.4191005471834099 0 -0.64278761758704617 -0.76604443648966558 1 0 0 1 I I -0.70710678118654746 0.70710678118654746 1 forward I I I I #
loop $-1 $-1 $77 $19 #
coedge $-1 $48 $48 $78 $79 reversed $30 $-1 #
face $-1 $80 $81 $12 $-1 $82 reversed single #
loop $-1 $-1 $83 $32 #
plane-surface $-1 0 -44.141972396672713 0 0 1 0 0 0 1 forward_v I I I I #
coedge $-1 $84 $85 $86 $87 forward $33 $-1 #
coedge $-1 $88 $35 $89 $90 forward $21 $-1 #
coedge $-1 $35 $88 $91 $92 forward $21 $-1 #
coedge $-1 $93 $94 $35 $56 reversed $95 $-1 #
edge $-1 $96 -44.141972396672713 $97 44.141972396672713 $55 $98 forward 7 unknown #
face $-1 $99 $100 $13 $-1 $101 reversed single #
loop $-1 $-1 $102 $36 #
plane-surface $-1 0 0 -10.079220657205896 0 0 1 1 0 0 forward_v I I I I #
coedge $-1 $103 $63 $104 $105 reversed $37 $-1 #
coedge $-1 $106 $39 $107 $108 reversed $24 $-1 #
coedge $-1 $39 $106 $109 $110 reversed $24 $-1 #
coedge $-1 $60 $111 $39 $64 reversed $37 $-1 #
edge $-1 $112 -44.141972396672713 $113 44.141972396672713 $63 $114 forward 7 unknown #
face $-1 $115 $116 $14 $-1 $117 reversed single #
loop $-1 $-1 $118 $40 #
plane-surface $-1 64.588152714621415 0 0 -1 0 0 0 0 1 forward_v I I I I #
coedge $-1 $119 $120 $121 $122 reversed $41 $-1 #
coedge $-1 $70 $43 $123 $124 reversed $27 $-1 #
coedge $-1 $43 $69 $119 $125 reversed $27 $-1 #
coedge $-1 $121 $126 $43 $72 forward $127 $-1 #
edge $-1 $128 -14.369233760708077 $129 -7.8711157667511387 $71 $130 forward 7 unknown #
loop $-1 $-1 $78 $44 #
plane-surface $-1 58.496208463992659 -23.487452343630338 61.374478675827177 0 0.64278761758704617 0.76604443648966558 1 0 0 forward_v I I I I #
loop $-1 $-1 $131 $29 #
coedge $-1 $76 $76 $77 $132 reversed $45 $-1 #
coedge $-1 $77 $77 $76 $132 forward $47 $-1 #
coedge $-1 $78 $78 $48 $79 forward $73 $-1 #
edge $-1 $133 4.3789618652077234e-016 $133 6.2831853071796004 $78 $134 forward 7 unknown #
face $-1 $135 $136 $12 $-1 $137 reversed single #
loop $-1 $-1 $138 $49 #
plane-surface $-1 -64.588152714621415 0 0 1 0 0 0 0 -1 forward_v I I I I #
coedge $-1 $139 $91 $140 $141 forward $50 $-1 #
coedge $-1 $142 $52 $139 $143 forward $33 $-1 #
coedge $-1 $52 $142 $144 $145 forward $33 $-1 #
coedge $-1 $94 $93 $52 $87 reversed $95 $-1 #
edge $-1 $146 -44.141972396672713 $147 44.141972396672713 $86 $148 forward 7 unknown #
coedge $-1 $54 $53 $149 $150 forward $21 $-1 #
coedge $-1 $151 $152 $53 $90 reversed $136 $-1 #
edge $-1 $97 -64.588152714621415 $153 64.588152714621415 $89 $154 forward 7 unknown #
coedge $-1 $83 $155 $54 $92 reversed $50 $-1 #
edge $-1 $156 -64.588152714621415 $96 64.588152714621415 $91 $157 forward 7 unknown #
coedge $-1 $86 $55 $155 $158 forward $95 $-1 #
coedge $-1 $55 $86 $151 $159 reversed $95 $-1 #
loop $-1 $-1 $93 $135 #
vertex $-1 $56 $160 #
vertex $-1 $56 $161 #
straight-curve $-1 64.588152714621415 0 10.079220657205896 0 1 0 I I #
face $-1 $162 $163 $13 $-1 $164 reversed single #
loop $-1 $-1 $104 $57 #
plane-surface $-1 0 -44.141972396672713 0 0 1 0 0 0 1 forward_v I I I I #
coedge $-1 $165 $166 $103 $167 forward $58 $-1 #
coedge $-1 $111 $60 $102 $167 reversed $37 $-1 #
coedge $-1 $109 $168 $60 $105 forward $100 $-1 #
edge $-1 $169 -5.7896103286029481 $112 -2.7896103286029481 $104 $170 forward 7 unknown #
coedge $-1 $62 $61 $171 $172 reversed $24 $-1 #
coedge $-1 $173 $174 $61 $108 forward $175 $-1 #
edge $-1 $176 -34.541077834235978 $113 -25.553071926534908 $107 $177 forward 7 unknown #
coedge $-1 $178 $104 $62 $110 forward $100 $-1 #
edge $-1 $112 25.553071926534908 $179 34.541077834235978 $109 $180 forward 7 unknown #
coedge $-1 $63 $103 $173 $181 reversed $37 $-1 #
vertex $-1 $110 $182 #
vertex $-1 $108 $183 #
straight-curve $-1 -55.60014680692035 0 -7.0792206572058962 0 1 0 I I #
face $-1 $-1 $127 $14 $-1 $184 forward single #
loop $-1 $-1 $185 $65 #
plane-surface $-1 0 44.141972396672713 0 0 -1 0 0 0 -1 forward_v I I I I #
coedge $-1 $186 $187 $120 $188 forward $66 $-1 #
coedge $-1 $189 $68 $70 $125 forward $41 $-1 #
coedge $-1 $68 $189 $118 $188 reversed $41 $-1 #
coedge $-1 $190 $71 $68 $122 forward $127 $-1 #
edge $-1 $129 23.156159981367566 $191 35.3400484826251 $121 $192 forward 7 unknown #
coedge $-1 $193 $185 $69 $124 forward $116 $-1 #
edge $-1 $194 -75.537982257167869 $128 -70.08541373088832 $123 $195 forward 7 unknown #
edge $-1 $129 79.801254123684004 $194 88.283944793345427 $70 $196 forward 7 unknown #
coedge $-1 $71 $190 $193 $197 forward $127 $-1 #
loop $-1 $-1 $121 $115 #
vertex $-1 $124 $198 #
vertex $-1 $72 $199 #
straight-curve $-1 52.404264213363895 29.772738635964636 10.079220657205894 0 -1 0 I I #
coedge $-1 $131 $131 $-1 $200 reversed $75 $-1 #
edge $-1 $201 0 $201 6.2831853071796004 $76 $202 forward 7 unknown #
vertex $-1 $79 $203 #
ellipse-curve $-1 58.496208463992645 40.89291339969423 7.3529363940661376 0 0.64278761758704617 0.76604443648966558 2 0 0 1 I I #
face $-1 $-1 $95 $12 $-1 $204 reversed single #
loop $-1 $-1 $151 $80 #
plane-surface $-1 0 44.141972396672713 0 0 -1 0 0 0 -1 forward_v I I I I #
coedge $-1 $205 $149 $152 $206 forward $81 $-1 #
coedge $-1 $155 $83 $84 $143 reversed $50 $-1 #
coedge $-1 $149 $205 $83 $141 reversed $81 $-1 #
edge $-1 $156 -10.079220657205896 $207 10.079220657205896 $140 $208 forward 7 unknown #
coedge $-1 $85 $84 $205 $209 forward $33 $-1 #
edge $-1 $147 -64.588152714621415 $207 64.588152714621415 $139 $210 forward 7 unknown #
coedge $-1 $152 $151 $85 $145 reversed $136 $-1 #
edge $-1 $211 -64.588152714621415 $146 64.588152714621415 $144 $212 forward 7 unknown #
vertex $-1 $87 $213 #
vertex $-1 $158 $214 #
straight-curve $-1 64.588152714621415 0 -10.079220657205896 0 -1 0 I I #
coedge $-1 $138 $140 $88 $150 reversed $81 $-1 #
edge $-1 $153 -44.141972396672713 $156 44.141972396672713 $149 $215 forward 7 unknown #
coedge $-1 $144 $89 $94 $159 forward $136 $-1 #
coedge $-1 $89 $144 $138 $206 reversed $136 $-1 #
vertex $-1 $90 $216 #
straight-curve $-1 0 44.141972396672713 10.079220657205896 -1 0 0 I I #
coedge $-1 $91 $139 $93 $158 reversed $50 $-1 #
vertex $-1 $150 $217 #
straight-curve $-1 0 -44.141972396672713 10.079220657205896 1 0 0 I I #
edge $-1 $96 -10.079220657205896 $147 10.079220657205896 $93 $218 forward 7 unknown #
edge $-1 $97 -10.079220657205896 $146 10.079220657205896 $94 $219 forward 7 unknown #
point $-1 64.588152714621415 -44.141972396672713 10.079220657205896 #
point $-1 64.588152714621415 44.141972396672713 10.079220657205896 #
face $-1 $-1 $175 $13 $-1 $220 reversed single #
loop $-1 $-1 $171 $99 #
plane-surface $-1 -64.588152714621415 0 0 1 0 0 0 0 -1 forward_v I I I I #
coedge $-1 $221 $102 $168 $222 forward $58 $-1 #
coedge $-1 $102 $221 $223 $224 forward $58 $-1 #
edge $-1 $225 -44.141972396672713 $169 44.141972396672713 $102 $226 forward 7 unknown #
coedge $-1 $104 $178 $165 $222 reversed $100 $-1 #
vertex $-1 $222 $227 #
straight-curve $-1 -55.60014680692035 -44.141972396672713 -4.2896103286029481 0 0 1 I I #
coedge $-1 $228 $229 $106 $172 forward $163 $-1 #
edge $-1 $179 -44.141972396672713 $176 44.141972396672713 $171 $230 forward 7 unknown #
coedge $-1 $223 $107 $111 $181 forward $175 $-1 #
coedge $-1 $107 $223 $228 $231 reversed $175 $-1 #
loop $-1 $-1 $173 $162 #
vertex $-1 $231 $232 #
straight-curve $-1 -30.047074880385441 44.141972396672713 -7.0792206572058962 1 0 0 I I #
coedge $-1 $168 $109 $229 $233 forward $100 $-1 #
vertex $-1 $233 $234 #
straight-curve $-1 -30.047074880385441 -44.141972396672713 -7.0792206572058962 -1 0 0 I I #
edge $-1 $113 2.7896103286029481 $225 5.7896103286029481 $173 $235 forward 7 unknown #
point $-1 -55.60014680692035 -44.141972396672713 -7.0792206572058962 #
point $-1 -55.60014680692035 44.141972396672713 -7.0792206572058962 #
plane-surface $-1 0 0 10.079220657205896 0 0 1 1 0 0 forward_v I I I I #
coedge $-1 $123 $236 $189 $237 forward $116 $-1 #
coedge $-1 $187 $118 $236 $238 reversed $66 $-1 #
coedge $-1 $118 $186 $190 $239 reversed $66 $-1 #
edge $-1 $191 51.079660561765948 $240 59.562351231427392 $118 $241 forward 7 unknown #
coedge $-1 $120 $119 $185 $237 reversed $41 $-1 #
coedge $-1 $126 $121 $187 $239 forward $127 $-1 #
vertex $-1 $239 $242 #
straight-curve $-1 29.248104231996329 37.64385440271576 10.079220657205902 1 0 0 I I #
coedge $-1 $236 $123 $126 $197 reversed $116 $-1 #
vertex $-1 $124 $243 #
straight-curve $-1 52.404264213363895 44.141972396672713 80.164634388094214 0 0 1 I I #
straight-curve $-1 52.404264213363895 -23.487452343630338 61.374478675827177 0 0.76604443648966558 -0.64278761758704617 I I #
edge $-1 $244 -64.588152714621415 $128 -52.404264213363895 $193 $245 forward 7 unknown #
point $-1 52.404264213363895 44.141972396672713 10.079220657205896 #
point $-1 52.404264213363895 37.643854402715775 10.079220657205894 #
edge $-1 $246 1 $246 0 $131 $-1 forward 7 unknown #
vertex $-1 $132 $247 #
ellipse-curve $-1 58.496208463992645 38.234820739913218 4.1851449836730756 0 0.64278761758704617 0.76604443648966558 2 0 0 1 I I #
point $-1 60.496208463992645 40.892913399694237 7.3529363940661447 #
plane-surface $-1 64.588152714621415 0 0 -1 0 0 0 0 1 forward_v I I I I #
coedge $-1 $140 $138 $142 $209 reversed $81 $-1 #
edge $-1 $153 -10.079220657205896 $211 10.079220657205896 $152 $248 forward 7 unknown #
vertex $-1 $209 $249 #
straight-curve $-1 -64.588152714621415 -44.141972396672713 0 0 0 -1 I I #
edge $-1 $207 -44.141972396672713 $211 44.141972396672713 $205 $250 forward 7 unknown #
straight-curve $-1 0 -44.141972396672713 -10.079220657205896 -1 0 0 I I #
vertex $-1 $145 $251 #
straight-curve $-1 0 44.141972396672713 -10.079220657205896 1 0 0 I I #
point $-1 64.588152714621415 44.141972396672713 -10.079220657205896 #
point $-1 64.588152714621415 -44.141972396672713 -10.079220657205896 #
straight-curve $-1 -64.588152714621415 0 10.079220657205896 0 -1 0 I I #
point $-1 -64.588152714621415 44.141972396672713 10.079220657205896 #
point $-1 -64.588152714621415 -44.141972396672713 10.079220657205896 #
straight-curve $-1 64.588152714621415 -44.141972396672713 0 0 0 -1 I I #
straight-curve $-1 64.588152714621415 44.141972396672713 0 0 0 -1 I I #
plane-surface $-1 0 44.141972396672713 0 0 -1 0 0 0 -1 forward_v I I I I #
coedge $-1 $166 $165 $252 $253 forward $58 $-1 #
edge $-1 $169 55.60014680692035 $254 64.588152714621415 $168 $255 forward 7 unknown #
coedge $-1 $174 $173 $166 $224 reversed $175 $-1 #
edge $-1 $256 -64.588152714621415 $225 -55.60014680692035 $223 $257 forward 7 unknown #
vertex $-1 $181 $258 #
straight-curve $-1 -55.60014680692035 0 -10.079220657205896 0 -1 0 I I #
point $-1 -55.60014680692035 -44.141972396672713 -10.079220657205896 #
coedge $-1 $252 $171 $174 $231 forward $163 $-1 #
coedge $-1 $171 $252 $178 $233 reversed $163 $-1 #
straight-curve $-1 -64.588152714621415 0 -7.0792206572058962 0 1 0 I I #
edge $-1 $176 7.0792206572058962 $256 10.079220657205896 $174 $259 forward 7 unknown #
point $-1 -64.588152714621415 44.141972396672713 -7.0792206572058962 #
edge $-1 $179 7.0792206572058962 $254 10.079220657205896 $229 $260 forward 7 unknown #
point $-1 -64.588152714621415 -44.141972396672713 -7.0792206572058962 #
straight-curve $-1 -55.60014680692035 44.141972396672713 -4.2896103286029481 0 0 -1 I I #
coedge $-1 $185 $193 $186 $238 forward $116 $-1 #
edge $-1 $240 -35.3400484826251 $194 -23.156159981367566 $185 $261 forward 7 unknown #
edge $-1 $244 -10.079220657205896 $240 -4.6266521309263524 $186 $262 forward 7 unknown #
edge $-1 $191 37.643854402715775 $244 44.141972396672713 $187 $263 forward 7 unknown #
vertex $-1 $188 $264 #
straight-curve $-1 64.588152714621415 -1.4854353884056195 42.912593976858432 0 0.76604443648966558 -0.64278761758704617 I I #
point $-1 64.58815271462143 37.643854402715775 10.079220657205894 #
point $-1 52.404264213363895 44.141972396672713 4.6266521309263524 #
vertex $-1 $239 $265 #
straight-curve $-1 0 44.141972396672713 10.079220657205896 -1 0 0 I I #
vertex $-1 $200 $266 #
point $-1 60.496208463992645 38.234820739913218 4.1851449836730756 #
straight-curve $-1 -64.588152714621415 44.141972396672713 0 0 0 -1 I I #
point $-1 -64.588152714621415 -44.141972396672713 -10.079220657205896 #
straight-curve $-1 -64.588152714621415 0 -10.079220657205896 0 1 0 I I #
point $-1 -64.588152714621415 44.141972396672713 -10.079220657205896 #
coedge $-1 $229 $228 $221 $253 reversed $163 $-1 #
edge $-1 $254 -44.141972396672713 $256 44.141972396672713 $252 $267 forward 7 unknown #
vertex $-1 $253 $268 #
straight-curve $-1 0 -44.141972396672713 -10.079220657205896 -1 0 0 I I #
vertex $-1 $224 $269 #
straight-curve $-1 0 44.141972396672713 -10.079220657205896 1 0 0 I I #
point $-1 -55.60014680692035 44.141972396672713 -10.079220657205896 #
straight-curve $-1 -64.588152714621415 44.141972396672713 0 0 0 -1 I I #
straight-curve $-1 -64.588152714621415 -44.141972396672713 0 0 0 -1 I I #
straight-curve $-1 29.248104231996329 44.141972396672706 4.626652130926356 -1 0 0 I I #
straight-curve $-1 64.588152714621415 44.141972396672713 0 0 0 -1 I I #
straight-curve $-1 64.588152714621415 0 10.079220657205896 0 1 0 I I #
point $-1 64.58815271462143 44.141972396672713 4.6266521309263524 #
point $-1 64.588152714621415 44.141972396672713 10.079220657205896 #
point $-1 58.496208463992645 36.949245504739125 2.6530561106937443 #
straight-curve $-1 -64.588152714621415 0 -10.079220657205896 0 1 0 I I #
point $-1 -64.588152714621415 -44.141972396672713 -10.079220657205896 #
point $-1 -64.588152714621415 44.141972396672713 -10.079220657205896 #
End-of-ACIS-data 