500 0 11 0           
7 Unknown 11 ACIS 5.0 NT 24 Fri Mar 26 00:29:45 1999 
-1 9.9999999999999995e-007 1e-010 
body $-1 $11 $-1 $12 #
body $-1 $13 $-1 $14 #
body $-1 $15 $-1 $16 #
body $-1 $17 $-1 $18 #
body $-1 $19 $-1 $20 #
body $-1 $21 $-1 $22 #
body $-1 $23 $-1 $24 #
body $-1 $25 $-1 $26 #
body $-1 $27 $-1 $28 #
body $-1 $29 $-1 $30 #
body $-1 $31 $-1 $32 #
lump $-1 $-1 $33 $0 #
transform $-1 1 0 0 0 1 0 0 0 1 70.429395428327283 45.507745256727006 14.42840097346755 1 rotate no_reflect no_shear #
lump $-1 $-1 $34 $1 #
transform $-1 1 0 0 0 1 0 0 0 1 70.429395428327283 45.507745256727006 14.42840097346755 1 rotate no_reflect no_shear #
lump $-1 $-1 $35 $2 #
transform $-1 1 0 0 0 1 0 0 0 1 70.429395428327283 45.507745256727006 14.42840097346755 1 rotate no_reflect no_shear #
lump $-1 $-1 $36 $3 #
transform $-1 1 0 0 0 1 0 0 0 1 70.429395428327283 45.507745256727006 14.42840097346755 1 rotate no_reflect no_shear #
lump $-1 $-1 $37 $4 #
transform $-1 1 0 0 0 1 0 0 0 1 70.429395428327283 45.507745256727006 14.42840097346755 1 rotate no_reflect no_shear #
lump $-1 $-1 $38 $5 #
transform $-1 1 0 0 0 1 0 0 0 1 70.429395428327283 45.507745256727006 14.42840097346755 1 rotate no_reflect no_shear #
lump $-1 $-1 $39 $6 #
transform $-1 1 0 0 0 1 0 0 0 1 70.429395428327283 45.507745256727006 14.42840097346755 1 rotate no_reflect no_shear #
lump $-1 $-1 $40 $7 #
transform $-1 1 0 0 0 1 0 0 0 1 70.429395428327283 45.507745256727006 14.42840097346755 1 rotate no_reflect no_shear #
lump $-1 $-1 $41 $8 #
transform $-1 1 0 0 0 1 0 0 0 1 70.429395428327283 45.507745256727006 14.42840097346755 1 rotate no_reflect no_shear #
lump $-1 $-1 $42 $9 #
transform $-1 1 0 0 0 1 0 0 0 1 70.429395428327283 45.507745256727006 14.42840097346755 1 rotate no_reflect no_shear #
lump $-1 $-1 $43 $10 #
transform $-1 1 0 0 0 1 0 0 0 1 70.429395428327283 45.507745256727006 14.42840097346755 1 rotate no_reflect no_shear #
shell $-1 $-1 $-1 $44 $-1 $11 #
shell $-1 $-1 $-1 $45 $-1 $13 #
shell $-1 $-1 $-1 $46 $-1 $15 #
shell $-1 $-1 $-1 $47 $-1 $17 #
shell $-1 $-1 $-1 $48 $-1 $19 #
shell $-1 $-1 $-1 $49 $-1 $21 #
shell $-1 $-1 $-1 $50 $-1 $23 #
shell $-1 $-1 $-1 $51 $-1 $25 #
shell $-1 $-1 $-1 $52 $-1 $27 #
shell $-1 $-1 $-1 $53 $-1 $29 #
shell $-1 $-1 $-1 $54 $-1 $31 #
face $-1 $55 $56 $33 $-1 $57 forward single #
face $-1 $58 $59 $34 $-1 $60 reversed single #
face $-1 $61 $62 $35 $-1 $63 reversed single #
face $-1 $64 $65 $36 $-1 $66 reversed single #
face $-1 $67 $68 $37 $-1 $69 forward single #
face $-1 $70 $71 $38 $-1 $72 forward single #
face $-1 $73 $74 $39 $-1 $75 forward single #
face $-1 $76 $77 $40 $-1 $78 reversed single #
face $-1 $79 $80 $41 $-1 $81 forward single #
face $-1 $82 $83 $42 $-1 $84 forward single #
face $-1 $85 $86 $43 $-1 $87 forward single #
face $-1 $88 $89 $33 $-1 $90 reversed single #
loop $-1 $-1 $91 $44 #
plane-surface $-1 0 0 14.42840097346755 0 0 1 1 0 0 forward_v I I I I #
face $-1 $92 $93 $34 $-1 $94 reversed single #
loop $-1 $-1 $95 $45 #
plane-surface $-1 0 -40.470138651517587 11.42840097346755 0 0 1 1 0 0 forward_v I I I I #
face $-1 $96 $97 $35 $-1 $98 reversed single #
loop $-1 $-1 $99 $46 #
plane-surface $-1 0 36.277654926655984 10.995474563684912 0 0 1 1 0 0 forward_v I I I I #
face $-1 $100 $101 $36 $-1 $102 reversed single #
loop $-1 $-1 $103 $47 #
plane-surface $-1 118.62130743044999 8.6332417233685881 196.64033869999326 0 -1 0 -0.85716730853699208 0 -0.51503806187062418 forward_v I I I I #
face $-1 $104 $105 $37 $-1 $106 forward single #
loop $-1 $107 $108 $48 #
cone-surface $-1 66.143780635253904 -6.3207946034222786 8.3149863138468483 -0.85716730853699208 0 -0.51503806187062418 0.51503806187062418 0 -0.85716730853699208 1 I I 0 1 1 forward I I I I #
face $-1 $109 $110 $38 $-1 $111 forward single #
loop $-1 $112 $113 $49 #
cone-surface $-1 66.143780635253904 -0.71303098087570049 8.3149863138468483 -0.85716730853699208 0 -0.51503806187062418 0.51503806187062418 0 -0.85716730853699208 1 I I 0 1 1 forward I I I I #
face $-1 $114 $115 $39 $-1 $116 forward single #
loop $-1 $117 $118 $50 #
cone-surface $-1 66.143780635253904 4.8947326416708705 8.3149863138468483 -0.85716730853699208 0 -0.51503806187062418 0.51503806187062418 0 -0.85716730853699208 1 I I 0 1 1 forward I I I I #
face $-1 $119 $120 $40 $-1 $121 reversed single #
loop $-1 $-1 $122 $51 #
plane-surface $-1 -191.16894607070094 -10.059303685119989 75.900788057619593 0 1 0 -0.85716730853699208 0 0.51503806187062418 forward_v I I I I #
face $-1 $123 $124 $41 $-1 $125 forward single #
loop $-1 $126 $127 $52 #
cone-surface $-1 -66.14378063525389 -6.3207946034222786 8.3149863138468412 0.85716730853699208 0 -0.51503806187062418 0.51503806187062418 0 0.85716730853699208 1 I I 0 1 1 forward I I I I #
face $-1 $128 $129 $42 $-1 $130 forward single #
loop $-1 $131 $132 $53 #
cone-surface $-1 -66.14378063525389 -0.71303098087570049 8.3149863138468412 0.85716730853699208 0 -0.51503806187062418 0.51503806187062418 0 0.85716730853699208 1 I I 0 1 1 forward I I I I #
face $-1 $133 $134 $43 $-1 $135 forward single #
loop $-1 $136 $137 $54 #
cone-surface $-1 -66.14378063525389 4.8947326416708705 8.3149863138468412 0.85716730853699208 0 -0.51503806187062418 0.51503806187062418 0 0.85716730853699208 1 I I 0 1 1 forward I I I I #
face $-1 $138 $139 $33 $-1 $140 reversed single #
loop $-1 $-1 $141 $55 #
plane-surface $-1 0 0 -14.42840097346755 0 0 1 1 0 0 forward_v I I I I #
coedge $-1 $142 $143 $144 $145 forward $56 $-1 #
face $-1 $146 $147 $34 $-1 $148 reversed single #
loop $-1 $-1 $149 $58 #
plane-surface $-1 0 -35.432532046308168 12.92840097346755 0 -1 0 0 0 -1 forward_v I I I I #
coedge $-1 $150 $151 $152 $153 reversed $59 $-1 #
face $-1 $154 $155 $35 $-1 $156 forward single #
loop $-1 $-1 $157 $61 #
plane-surface $-1 0 27.047564596584955 12.711937768576231 0 1 0 0 0 1 forward_v I I I I #
coedge $-1 $158 $159 $160 $161 reversed $62 $-1 #
face $-1 $162 $163 $36 $-1 $164 reversed single #
loop $-1 $-1 $165 $64 #
plane-surface $-1 -2.1182432119236694 -0.71303098087570049 124.0927000597423 0.85716730853699208 0 0.51503806187062418 0.51503806187062418 0 -0.85716730853699208 forward_v I I I I #
coedge $-1 $166 $167 $168 $169 reversed $65 $-1 #
face $-1 $-1 $170 $37 $-1 $171 forward single #
loop $-1 $172 $173 $67 #
cone-surface $-1 64.756923326200805 -6.3207946034222786 7.4816784013403002 -0.85716730853699208 0 -0.51503806187062418 0.25751903093531209 0 -0.42858365426849604 1 I I -0.70710678118654746 0.70710678118654746 0.5 forward I I I I #
loop $-1 $-1 $174 $48 #
coedge $-1 $108 $108 $175 $176 reversed $68 $-1 #
face $-1 $-1 $177 $38 $-1 $178 forward single #
loop $-1 $179 $180 $70 #
cone-surface $-1 64.756923326200805 -0.71303098087570049 7.4816784013403002 -0.85716730853699208 0 -0.51503806187062418 0.25751903093531209 0 -0.42858365426849604 1 I I -0.70710678118654746 0.70710678118654746 0.5 forward I I I I #
loop $-1 $-1 $181 $49 #
coedge $-1 $113 $113 $182 $183 reversed $71 $-1 #
face $-1 $-1 $184 $39 $-1 $185 forward single #
loop $-1 $186 $187 $73 #
cone-surface $-1 64.756923326200805 4.8947326416708705 7.4816784013403002 -0.85716730853699208 0 -0.51503806187062418 0.25751903093531209 0 -0.42858365426849604 1 I I -0.70710678118654746 0.70710678118654746 0.5 forward I I I I #
loop $-1 $-1 $188 $50 #
coedge $-1 $118 $118 $189 $190 reversed $74 $-1 #
face $-1 $191 $192 $40 $-1 $193 reversed single #
loop $-1 $-1 $194 $76 #
plane-surface $-1 -70.429395428327283 -0.71303098087570049 3.3531494173686269 -0.85716730853699208 0 0.51503806187062418 0.51503806187062418 0 0.85716730853699208 forward_v I I I I #
coedge $-1 $195 $196 $197 $198 reversed $77 $-1 #
face $-1 $-1 $199 $41 $-1 $200 forward single #
loop $-1 $201 $202 $79 #
cone-surface $-1 -64.756923326200791 -6.3207946034222786 7.481678401340293 0.85716730853699208 0 -0.51503806187062418 0.25751903093531209 0 0.42858365426849604 1 I I -0.70710678118654746 0.70710678118654746 0.5 forward I I I I #
loop $-1 $-1 $203 $52 #
coedge $-1 $127 $127 $204 $205 reversed $80 $-1 #
face $-1 $-1 $206 $42 $-1 $207 forward single #
loop $-1 $208 $209 $82 #
cone-surface $-1 -64.756923326200791 -0.71303098087570049 7.481678401340293 0.85716730853699208 0 -0.51503806187062418 0.25751903093531209 0 0.42858365426849604 1 I I -0.70710678118654746 0.70710678118654746 0.5 forward I I I I #
loop $-1 $-1 $210 $53 #
coedge $-1 $132 $132 $211 $212 reversed $83 $-1 #
face $-1 $-1 $213 $43 $-1 $214 forward single #
loop $-1 $215 $216 $85 #
cone-surface $-1 -64.756923326200791 4.8947326416708705 7.481678401340293 0.85716730853699208 0 -0.51503806187062418 0.25751903093531209 0 0.42858365426849604 1 I I -0.70710678118654746 0.70710678118654746 0.5 forward I I I I #
loop $-1 $-1 $217 $54 #
coedge $-1 $137 $137 $218 $219 reversed $86 $-1 #
face $-1 $220 $221 $33 $-1 $222 reversed single #
loop $-1 $-1 $223 $88 #
plane-surface $-1 0 -45.507745256727006 0 0 1 0 0 0 1 forward_v I I I I #
coedge $-1 $224 $225 $226 $227 forward $89 $-1 #
coedge $-1 $228 $91 $229 $230 forward $56 $-1 #
coedge $-1 $91 $228 $231 $232 forward $56 $-1 #
coedge $-1 $233 $234 $91 $145 reversed $235 $-1 #
edge $-1 $236 -45.507745256727006 $237 45.507745256727006 $144 $238 forward 7 unknown #
face $-1 $239 $240 $34 $-1 $241 reversed single #
loop $-1 $-1 $242 $92 #
plane-surface $-1 -70.429395428327283 0 0 1 0 0 0 0 -1 forward_v I I I I #
coedge $-1 $243 $244 $245 $246 reversed $93 $-1 #
coedge $-1 $247 $95 $248 $249 reversed $59 $-1 #
coedge $-1 $95 $247 $243 $250 forward $59 $-1 #
coedge $-1 $245 $251 $95 $153 forward $252 $-1 #
edge $-1 $253 -25.272675930968212 $254 -15.197462720549375 $152 $255 forward 7 unknown #
face $-1 $256 $257 $35 $-1 $258 reversed single #
loop $-1 $-1 $259 $96 #
plane-surface $-1 0 0 14.42840097346755 0 0 1 1 0 0 forward_v I I I I #
coedge $-1 $260 $261 $262 $263 reversed $97 $-1 #
coedge $-1 $264 $99 $260 $265 forward $62 $-1 #
coedge $-1 $99 $264 $266 $267 reversed $62 $-1 #
coedge $-1 $268 $269 $99 $161 forward $257 $-1 #
edge $-1 $270 8.9087371332569631 $271 27.368917793399021 $160 $272 forward 7 unknown #
face $-1 $273 $274 $36 $-1 $275 forward single #
loop $-1 $-1 $276 $100 #
plane-surface $-1 118.62130743044999 -10.059303685119989 196.64033869999326 0 1 0 0.85716730853699208 0 0.51503806187062418 forward_v I I I I #
coedge $-1 $277 $278 $279 $280 reversed $101 $-1 #
coedge $-1 $167 $103 $281 $282 reversed $65 $-1 #
coedge $-1 $103 $166 $277 $283 reversed $65 $-1 #
coedge $-1 $279 $284 $103 $169 forward $274 $-1 #
edge $-1 $285 -11.118741713102288 $286 -4.4640594365247566 $168 $287 forward 7 unknown #
loop $-1 $-1 $175 $104 #
plane-surface $-1 -2.1182432119236694 -0.71303098087570049 124.0927000597423 0.85716730853699208 0 0.51503806187062418 0.51503806187062418 0 -0.85716730853699208 forward_v I I I I #
loop $-1 $-1 $288 $67 #
coedge $-1 $173 $173 $174 $289 reversed $105 $-1 #
coedge $-1 $174 $174 $173 $289 forward $107 $-1 #
coedge $-1 $175 $175 $108 $176 forward $170 $-1 #
edge $-1 $290 0 $290 6.2831853071796004 $175 $291 forward 7 unknown #
loop $-1 $-1 $182 $109 #
plane-surface $-1 -2.1182432119236694 -0.71303098087570049 124.0927000597423 0.85716730853699208 0 0.51503806187062418 0.51503806187062418 0 -0.85716730853699208 forward_v I I I I #
loop $-1 $-1 $292 $70 #
coedge $-1 $180 $180 $181 $293 reversed $110 $-1 #
coedge $-1 $181 $181 $180 $293 forward $112 $-1 #
coedge $-1 $182 $182 $113 $183 forward $177 $-1 #
edge $-1 $294 0 $294 6.2831853071796004 $182 $295 forward 7 unknown #
loop $-1 $-1 $189 $114 #
plane-surface $-1 -2.1182432119236694 -0.71303098087570049 124.0927000597423 0.85716730853699208 0 0.51503806187062418 0.51503806187062418 0 -0.85716730853699208 forward_v I I I I #
loop $-1 $-1 $296 $73 #
coedge $-1 $187 $187 $188 $297 reversed $115 $-1 #
coedge $-1 $188 $188 $187 $297 forward $117 $-1 #
coedge $-1 $189 $189 $118 $190 forward $184 $-1 #
edge $-1 $298 0 $298 6.2831853071796004 $189 $299 forward 7 unknown #
face $-1 $300 $301 $40 $-1 $302 reversed single #
loop $-1 $-1 $303 $119 #
plane-surface $-1 -191.16894607070094 8.6332417233685881 75.900788057619593 0 -1 0 0.85716730853699208 0 -0.51503806187062418 forward_v I I I I #
coedge $-1 $304 $305 $306 $307 reversed $120 $-1 #
coedge $-1 $196 $122 $308 $309 reversed $77 $-1 #
coedge $-1 $122 $195 $304 $310 reversed $77 $-1 #
coedge $-1 $306 $311 $122 $198 forward $312 $-1 #
edge $-1 $313 25.155077607023188 $314 31.809759883600741 $197 $315 forward 7 unknown #
loop $-1 $-1 $204 $123 #
plane-surface $-1 -70.429395428327283 -0.71303098087570049 3.3531494173686269 -0.85716730853699208 0 0.51503806187062418 0.51503806187062418 0 0.85716730853699208 forward_v I I I I #
loop $-1 $-1 $316 $79 #
coedge $-1 $202 $202 $203 $317 reversed $124 $-1 #
coedge $-1 $203 $203 $202 $317 forward $126 $-1 #
coedge $-1 $204 $204 $127 $205 forward $199 $-1 #
edge $-1 $318 0 $318 6.2831853071796004 $204 $319 forward 7 unknown #
loop $-1 $-1 $211 $128 #
plane-surface $-1 -70.429395428327283 -0.71303098087570049 3.3531494173686269 -0.85716730853699208 0 0.51503806187062418 0.51503806187062418 0 0.85716730853699208 forward_v I I I I #
loop $-1 $-1 $320 $82 #
coedge $-1 $209 $209 $210 $321 reversed $129 $-1 #
coedge $-1 $210 $210 $209 $321 forward $131 $-1 #
coedge $-1 $211 $211 $132 $212 forward $206 $-1 #
edge $-1 $322 0 $322 6.2831853071796004 $211 $323 forward 7 unknown #
loop $-1 $-1 $218 $133 #
plane-surface $-1 -70.429395428327283 -0.71303098087570049 3.3531494173686269 -0.85716730853699208 0 0.51503806187062418 0.51503806187062418 0 0.85716730853699208 forward_v I I I I #
loop $-1 $-1 $324 $85 #
coedge $-1 $216 $216 $217 $325 reversed $134 $-1 #
coedge $-1 $217 $217 $216 $325 forward $136 $-1 #
coedge $-1 $218 $218 $137 $219 forward $213 $-1 #
edge $-1 $326 0 $326 6.2831853071796004 $218 $327 forward 7 unknown #
face $-1 $328 $329 $33 $-1 $330 reversed single #
loop $-1 $-1 $331 $138 #
plane-surface $-1 -70.429395428327283 0 0 1 0 0 0 0 -1 forward_v I I I I #
coedge $-1 $332 $231 $333 $334 forward $139 $-1 #
coedge $-1 $335 $141 $332 $336 forward $89 $-1 #
coedge $-1 $141 $335 $337 $338 forward $89 $-1 #
coedge $-1 $234 $233 $141 $227 reversed $235 $-1 #
edge $-1 $339 -45.507745256727006 $340 45.507745256727006 $226 $341 forward 7 unknown #
coedge $-1 $143 $142 $342 $343 forward $56 $-1 #
coedge $-1 $344 $345 $142 $230 reversed $329 $-1 #
edge $-1 $237 -70.429395428327283 $346 70.429395428327283 $229 $347 forward 7 unknown #
coedge $-1 $223 $348 $143 $232 reversed $139 $-1 #
edge $-1 $349 -70.429395428327283 $236 70.429395428327283 $231 $350 forward 7 unknown #
coedge $-1 $226 $144 $348 $351 forward $235 $-1 #
coedge $-1 $144 $226 $344 $352 reversed $235 $-1 #
loop $-1 $-1 $233 $328 #
vertex $-1 $145 $353 #
vertex $-1 $145 $354 #
straight-curve $-1 70.429395428327283 0 14.42840097346755 0 1 0 I I #
face $-1 $355 $356 $34 $-1 $357 forward single #
loop $-1 $-1 $248 $146 #
plane-surface $-1 0 -45.507745256727006 0 0 1 0 0 0 1 forward_v I I I I #
coedge $-1 $358 $359 $360 $361 forward $147 $-1 #
coedge $-1 $360 $149 $151 $250 reversed $93 $-1 #
coedge $-1 $149 $360 $362 $363 reversed $93 $-1 #
coedge $-1 $364 $152 $149 $246 forward $252 $-1 #
edge $-1 $254 4.964200486733775 $365 7.964200486733775 $245 $366 forward 7 unknown #
coedge $-1 $151 $150 $358 $367 reversed $59 $-1 #
coedge $-1 $368 $369 $150 $249 forward $240 $-1 #
edge $-1 $370 -70.429395428327283 $253 70.429395428327283 $248 $371 forward 7 unknown #
edge $-1 $372 -70.429395428327283 $254 70.429395428327283 $243 $373 forward 7 unknown #
coedge $-1 $152 $364 $368 $374 forward $252 $-1 #
loop $-1 $-1 $245 $355 #
vertex $-1 $249 $375 #
vertex $-1 $153 $376 #
straight-curve $-1 70.429395428327283 -20.235069325758793 11.42840097346755 0 1 0 I I #
face $-1 $377 $378 $35 $-1 $379 reversed single #
loop $-1 $-1 $269 $154 #
plane-surface $-1 70.429395428327283 0 0 -1 0 0 0 0 1 forward_v I I I I #
coedge $-1 $380 $381 $261 $382 forward $155 $-1 #
coedge $-1 $383 $157 $158 $265 reversed $97 $-1 #
coedge $-1 $157 $383 $259 $382 reversed $97 $-1 #
coedge $-1 $384 $385 $157 $263 forward $378 $-1 #
edge $-1 $386 4.6395056793967964 $387 8.0724320891794346 $262 $388 forward 7 unknown #
coedge $-1 $159 $158 $385 $389 reversed $62 $-1 #
edge $-1 $270 -70.429395428327283 $386 70.429395428327283 $260 $390 forward 7 unknown #
coedge $-1 $391 $392 $159 $267 forward $393 $-1 #
edge $-1 $271 -70.429395428327283 $394 70.429395428327283 $266 $395 forward 7 unknown #
coedge $-1 $396 $160 $392 $397 reversed $257 $-1 #
coedge $-1 $160 $396 $383 $398 forward $257 $-1 #
vertex $-1 $161 $399 #
vertex $-1 $267 $400 #
straight-curve $-1 70.429395428327283 18.138827463327992 10.995474563684912 0 1 0 I I #
face $-1 $-1 $401 $36 $-1 $402 reversed single #
loop $-1 $-1 $168 $162 #
plane-surface $-1 0 0 14.42840097346755 0 0 1 1 0 0 forward_v I I I I #
coedge $-1 $403 $404 $405 $406 reversed $163 $-1 #
coedge $-1 $407 $165 $167 $283 forward $101 $-1 #
coedge $-1 $165 $407 $403 $408 forward $101 $-1 #
coedge $-1 $405 $168 $165 $280 forward $274 $-1 #
edge $-1 $286 -8.9897572138064383 $409 9.7027881946821388 $279 $410 forward 7 unknown #
coedge $-1 $411 $412 $166 $282 forward $401 $-1 #
edge $-1 $413 -94.967019932627963 $285 -83.891768376529086 $281 $414 forward 7 unknown #
edge $-1 $286 127.93803262684985 $413 140.85879085665457 $167 $415 forward 7 unknown #
coedge $-1 $168 $405 $411 $416 forward $274 $-1 #
vertex $-1 $282 $417 #
vertex $-1 $169 $418 #
straight-curve $-1 59.310653715224994 8.6332417233685881 14.428400973467546 -1 0 0 I I #
coedge $-1 $288 $288 $-1 $419 reversed $172 $-1 #
edge $-1 $420 0 $420 6.2831853071796004 $173 $421 forward 7 unknown #
vertex $-1 $176 $422 #
ellipse-curve $-1 67.102054290038524 -6.3207946034222786 8.8907751954180938 0.85716730853699208 0 0.51503806187062418 0.51503806187062418 0 -0.85716730853699208 1 I I #
coedge $-1 $292 $292 $-1 $423 reversed $179 $-1 #
edge $-1 $424 0 $424 6.2831853071796004 $180 $425 forward 7 unknown #
vertex $-1 $183 $426 #
ellipse-curve $-1 67.102054290038524 -0.71303098087570049 8.8907751954180938 0.85716730853699208 0 0.51503806187062418 0.51503806187062418 0 -0.85716730853699208 1 I I #
coedge $-1 $296 $296 $-1 $427 reversed $186 $-1 #
edge $-1 $428 0 $428 6.2831853071796004 $187 $429 forward 7 unknown #
vertex $-1 $190 $430 #
ellipse-curve $-1 67.102054290038524 4.8947326416708705 8.8907751954180938 0.85716730853699208 0 0.51503806187062418 0.51503806187062418 0 -0.85716730853699208 1 I I #
face $-1 $-1 $312 $40 $-1 $431 forward single #
loop $-1 $-1 $432 $191 #
plane-surface $-1 -70.429395428327283 0 0 1 0 0 0 0 -1 forward_v I I I I #
coedge $-1 $433 $434 $435 $436 reversed $192 $-1 #
coedge $-1 $437 $194 $196 $310 forward $120 $-1 #
coedge $-1 $194 $437 $433 $438 forward $120 $-1 #
coedge $-1 $435 $197 $194 $307 forward $312 $-1 #
edge $-1 $314 -9.7027881946821388 $439 8.9897572138064383 $306 $440 forward 7 unknown #
coedge $-1 $441 $442 $195 $309 forward $301 $-1 #
edge $-1 $443 -34.59724461144117 $313 -23.521993055342246 $308 $444 forward 7 unknown #
edge $-1 $314 -12.920758229804747 $443 0 $196 $445 forward 7 unknown #
coedge $-1 $197 $435 $441 $446 forward $312 $-1 #
loop $-1 $-1 $435 $300 #
vertex $-1 $309 $447 #
vertex $-1 $198 $448 #
straight-curve $-1 -95.58447303535047 -10.059303685119989 14.42840097346755 1 0 0 I I #
coedge $-1 $316 $316 $-1 $449 reversed $201 $-1 #
edge $-1 $450 0 $450 6.2831853071796004 $202 $451 forward 7 unknown #
vertex $-1 $205 $452 #
ellipse-curve $-1 -67.10205429003851 -6.3207946034222786 8.8907751954180867 -0.85716730853699208 0 0.51503806187062418 0.51503806187062418 0 0.85716730853699208 1 I I #
coedge $-1 $320 $320 $-1 $453 reversed $208 $-1 #
edge $-1 $454 0 $454 6.2831853071796004 $209 $455 forward 7 unknown #
vertex $-1 $212 $456 #
ellipse-curve $-1 -67.10205429003851 -0.71303098087570049 8.8907751954180867 -0.85716730853699208 0 0.51503806187062418 0.51503806187062418 0 0.85716730853699208 1 I I #
coedge $-1 $324 $324 $-1 $457 reversed $215 $-1 #
edge $-1 $458 0 $458 6.2831853071796004 $216 $459 forward 7 unknown #
vertex $-1 $219 $460 #
ellipse-curve $-1 -67.10205429003851 4.8947326416708705 8.8907751954180867 -0.85716730853699208 0 0.51503806187062418 0.51503806187062418 0 0.85716730853699208 1 I I #
face $-1 $-1 $235 $33 $-1 $461 reversed single #
loop $-1 $-1 $344 $220 #
plane-surface $-1 0 45.507745256727006 0 0 -1 0 0 0 -1 forward_v I I I I #
coedge $-1 $462 $342 $345 $463 forward $221 $-1 #
coedge $-1 $348 $223 $224 $336 reversed $139 $-1 #
coedge $-1 $342 $462 $223 $334 reversed $221 $-1 #
edge $-1 $349 -14.42840097346755 $464 14.42840097346755 $333 $465 forward 7 unknown #
coedge $-1 $225 $224 $462 $466 forward $89 $-1 #
edge $-1 $340 -70.429395428327283 $464 70.429395428327283 $332 $467 forward 7 unknown #
coedge $-1 $345 $344 $225 $338 reversed $329 $-1 #
edge $-1 $468 -70.429395428327283 $339 70.429395428327283 $337 $469 forward 7 unknown #
vertex $-1 $227 $470 #
vertex $-1 $351 $471 #
straight-curve $-1 70.429395428327283 0 -14.42840097346755 0 -1 0 I I #
coedge $-1 $331 $333 $228 $343 reversed $221 $-1 #
edge $-1 $346 -45.507745256727006 $349 45.507745256727006 $342 $472 forward 7 unknown #
coedge $-1 $337 $229 $234 $352 forward $329 $-1 #
coedge $-1 $229 $337 $331 $463 reversed $329 $-1 #
vertex $-1 $230 $473 #
straight-curve $-1 0 45.507745256727006 14.42840097346755 -1 0 0 I I #
coedge $-1 $231 $332 $233 $351 reversed $139 $-1 #
vertex $-1 $343 $474 #
straight-curve $-1 0 -45.507745256727006 14.42840097346755 1 0 0 I I #
edge $-1 $236 -14.42840097346755 $340 14.42840097346755 $233 $475 forward 7 unknown #
edge $-1 $237 -14.42840097346755 $339 14.42840097346755 $234 $476 forward 7 unknown #
point $-1 70.429395428327283 -45.507745256727006 14.42840097346755 #
point $-1 70.429395428327283 45.507745256727006 14.42840097346755 #
face $-1 $-1 $252 $34 $-1 $477 reversed single #
loop $-1 $-1 $362 $239 #
plane-surface $-1 0 0 14.42840097346755 0 0 1 1 0 0 forward_v I I I I #
coedge $-1 $478 $242 $247 $367 forward $147 $-1 #
coedge $-1 $242 $478 $479 $480 reversed $147 $-1 #
coedge $-1 $244 $243 $242 $361 reversed $93 $-1 #
edge $-1 $481 -7.964200486733775 $372 -4.964200486733775 $242 $482 forward 7 unknown #
coedge $-1 $479 $483 $244 $363 forward $356 $-1 #
edge $-1 $365 -70.429395428327283 $481 70.429395428327283 $362 $484 forward 7 unknown #
coedge $-1 $251 $245 $483 $485 reversed $252 $-1 #
vertex $-1 $246 $486 #
straight-curve $-1 70.429395428327283 -35.432532046308168 6.464200486733775 0 0 1 I I #
edge $-1 $372 15.197462720549375 $370 25.272675930968212 $358 $487 forward 7 unknown #
coedge $-1 $488 $248 $251 $374 reversed $240 $-1 #
coedge $-1 $248 $488 $478 $489 forward $240 $-1 #
vertex $-1 $249 $490 #
straight-curve $-1 0 -45.507745256727006 11.42840097346755 1 0 0 I I #
vertex $-1 $367 $491 #
straight-curve $-1 0 -35.432532046308168 11.42840097346755 1 0 0 I I #
edge $-1 $492 -14.42840097346755 $253 -11.42840097346755 $251 $493 forward 7 unknown #
point $-1 70.429395428327283 -45.507745256727006 11.42840097346755 #
point $-1 70.429395428327283 -35.432532046308168 11.42840097346755 #
face $-1 $-1 $393 $35 $-1 $494 reversed single #
loop $-1 $-1 $262 $256 #
plane-surface $-1 -70.429395428327283 0 0 1 0 0 0 0 -1 forward_v I I I I #
coedge $-1 $495 $259 $396 $496 forward $155 $-1 #
coedge $-1 $259 $495 $384 $497 forward $155 $-1 #
edge $-1 $387 -70.429395428327283 $498 70.429395428327283 $259 $499 forward 7 unknown #
coedge $-1 $261 $260 $269 $398 reversed $97 $-1 #
coedge $-1 $500 $262 $381 $497 reversed $378 $-1 #
coedge $-1 $262 $500 $264 $389 forward $378 $-1 #
vertex $-1 $389 $501 #
vertex $-1 $263 $502 #
straight-curve $-1 -70.429395428327283 27.047564596584955 6.3559688842881155 0 0 1 I I #
edge $-1 $394 -27.368917793399021 $386 -8.9087371332569631 $385 $503 forward 7 unknown #
straight-curve $-1 0 27.047564596584955 10.995474563684912 -1 0 0 I I #
coedge $-1 $504 $266 $500 $505 reversed $393 $-1 #
coedge $-1 $266 $504 $268 $397 forward $393 $-1 #
loop $-1 $-1 $266 $377 #
vertex $-1 $267 $506 #
straight-curve $-1 0 45.507745256727006 10.995474563684912 -1 0 0 I I #
coedge $-1 $269 $268 $380 $496 reversed $257 $-1 #
edge $-1 $507 -14.42840097346755 $271 -10.995474563684912 $268 $508 forward 7 unknown #
edge $-1 $498 -8.0724320891794346 $270 -4.6395056793967964 $269 $509 forward 7 unknown #
point $-1 70.429395428327283 27.047564596584955 10.995474563684912 #
point $-1 70.429395428327283 45.507745256727013 10.995474563684912 #
loop $-1 $-1 $281 $273 #
plane-surface $-1 70.429395428327283 0 0 -1 0 0 0 0 1 forward_v I I I I #
coedge $-1 $404 $276 $278 $408 reversed $163 $-1 #
coedge $-1 $276 $403 $510 $511 reversed $163 $-1 #
coedge $-1 $284 $279 $276 $406 forward $274 $-1 #
edge $-1 $409 4.4640594365247566 $512 11.118741713102288 $405 $513 forward 7 unknown #
coedge $-1 $278 $277 $412 $514 reversed $101 $-1 #
edge $-1 $515 -140.85879085665457 $409 -127.93803262684985 $403 $516 forward 7 unknown #
vertex $-1 $280 $517 #
straight-curve $-1 63.774713151749744 -0.35651549043785025 14.428400973467546 0 -1 0 I I #
coedge $-1 $510 $281 $284 $416 reversed $401 $-1 #
coedge $-1 $281 $510 $407 $514 forward $401 $-1 #
vertex $-1 $282 $518 #
straight-curve $-1 70.429395428327283 8.6332417233685881 98.320169349996632 0 0 1 I I #
straight-curve $-1 -2.1182432119236694 8.6332417233685881 124.0927000597423 0.51503806187062418 0 -0.85716730853699208 I I #
edge $-1 $512 -10.059303685119989 $285 8.6332417233685881 $411 $519 forward 7 unknown #
point $-1 70.429395428327283 8.6332417233685881 14.42840097346755 #
point $-1 63.774713151749751 8.6332417233685881 14.428400973467546 #
edge $-1 $520 1 $520 0 $288 $-1 forward 7 unknown #
vertex $-1 $289 $521 #
ellipse-curve $-1 65.185506980469299 -6.3207946034222786 7.7391974322756125 0.85716730853699208 0 0.51503806187062418 0.51503806187062418 0 -0.85716730853699208 1 I I #
point $-1 67.617092351909136 -6.3207946034222786 8.033607886881093 #
edge $-1 $522 1 $522 0 $292 $-1 forward 7 unknown #
vertex $-1 $293 $523 #
ellipse-curve $-1 65.185506980469299 -0.71303098087570049 7.7391974322756125 0.85716730853699208 0 0.51503806187062418 0.51503806187062418 0 -0.85716730853699208 1 I I #
point $-1 67.617092351909136 -0.71303098087570049 8.033607886881093 #
edge $-1 $524 1 $524 0 $296 $-1 forward 7 unknown #
vertex $-1 $297 $525 #
ellipse-curve $-1 65.185506980469299 4.8947326416708705 7.7391974322756125 0.85716730853699208 0 0.51503806187062418 0.51503806187062418 0 -0.85716730853699208 1 I I #
point $-1 67.617092351909136 4.8947326416708705 8.033607886881093 #
plane-surface $-1 0 0 14.42840097346755 0 0 1 1 0 0 forward_v I I I I #
coedge $-1 $442 $441 $434 $526 forward $301 $-1 #
coedge $-1 $434 $303 $305 $438 reversed $192 $-1 #
coedge $-1 $303 $433 $432 $526 reversed $192 $-1 #
coedge $-1 $311 $306 $303 $436 forward $312 $-1 #
edge $-1 $439 -31.809759883600741 $527 -25.155077607023188 $435 $528 forward 7 unknown #
coedge $-1 $305 $304 $442 $529 reversed $120 $-1 #
edge $-1 $530 0 $439 12.920758229804747 $433 $531 forward 7 unknown #
vertex $-1 $307 $532 #
straight-curve $-1 -63.774713151749722 -0.35651549043785025 14.42840097346755 0 1 0 I I #
coedge $-1 $432 $308 $311 $446 reversed $301 $-1 #
coedge $-1 $308 $432 $437 $529 forward $301 $-1 #
vertex $-1 $309 $533 #
straight-curve $-1 -70.429395428327283 -10.059303685119989 37.950394028809797 0 0 1 I I #
straight-curve $-1 -70.429395428327283 -10.059303685119989 3.3531494173686269 -0.51503806187062418 0 -0.85716730853699208 I I #
edge $-1 $527 -8.6332417233685881 $313 10.059303685119989 $441 $534 forward 7 unknown #
point $-1 -70.429395428327283 -10.059303685119989 14.42840097346755 #
point $-1 -63.774713151749729 -10.059303685119989 14.42840097346755 #
edge $-1 $535 1 $535 0 $316 $-1 forward 7 unknown #
vertex $-1 $317 $536 #
ellipse-curve $-1 -65.185506980469285 -6.3207946034222786 7.7391974322756054 -0.85716730853699208 0 0.51503806187062418 0.51503806187062418 0 0.85716730853699208 1 I I #
point $-1 -66.587016228167869 -6.3207946034222786 9.7479425039550698 #
edge $-1 $537 1 $537 0 $320 $-1 forward 7 unknown #
vertex $-1 $321 $538 #
ellipse-curve $-1 -65.185506980469285 -0.71303098087570049 7.7391974322756054 -0.85716730853699208 0 0.51503806187062418 0.51503806187062418 0 0.85716730853699208 1 I I #
point $-1 -66.587016228167869 -0.71303098087570049 9.7479425039550698 #
edge $-1 $539 1 $539 0 $324 $-1 forward 7 unknown #
vertex $-1 $325 $540 #
ellipse-curve $-1 -65.185506980469285 4.8947326416708705 7.7391974322756054 -0.85716730853699208 0 0.51503806187062418 0.51503806187062418 0 0.85716730853699208 1 I I #
point $-1 -66.587016228167869 4.8947326416708705 9.7479425039550698 #
plane-surface $-1 70.429395428327283 0 0 -1 0 0 0 0 1 forward_v I I I I #
coedge $-1 $333 $331 $335 $466 reversed $221 $-1 #
edge $-1 $346 -14.42840097346755 $468 14.42840097346755 $345 $541 forward 7 unknown #
vertex $-1 $466 $542 #
straight-curve $-1 -70.429395428327283 -45.507745256727006 0 0 0 -1 I I #
edge $-1 $464 -45.507745256727006 $468 45.507745256727006 $462 $543 forward 7 unknown #
straight-curve $-1 0 -45.507745256727006 -14.42840097346755 -1 0 0 I I #
vertex $-1 $338 $544 #
straight-curve $-1 0 45.507745256727006 -14.42840097346755 1 0 0 I I #
point $-1 70.429395428327283 45.507745256727006 -14.42840097346755 #
point $-1 70.429395428327283 -45.507745256727006 -14.42840097346755 #
straight-curve $-1 -70.429395428327283 0 14.42840097346755 0 -1 0 I I #
point $-1 -70.429395428327283 45.507745256727006 14.42840097346755 #
point $-1 -70.429395428327283 -45.507745256727006 14.42840097346755 #
straight-curve $-1 70.429395428327283 -45.507745256727006 0 0 0 -1 I I #
straight-curve $-1 70.429395428327283 45.507745256727006 0 0 0 -1 I I #
plane-surface $-1 70.429395428327283 0 0 -1 0 0 0 0 1 forward_v I I I I #
coedge $-1 $359 $358 $369 $489 reversed $147 $-1 #
coedge $-1 $545 $362 $359 $480 forward $356 $-1 #
edge $-1 $481 35.432532046308168 $546 45.507745256727006 $359 $547 forward 7 unknown #
vertex $-1 $480 $548 #
straight-curve $-1 -70.429395428327283 -35.432532046308168 6.464200486733775 0 0 -1 I I #
coedge $-1 $362 $545 $364 $485 forward $356 $-1 #
straight-curve $-1 0 -35.432532046308168 14.42840097346755 -1 0 0 I I #
edge $-1 $492 -45.507745256727006 $365 -35.432532046308168 $364 $549 forward 7 unknown #
point $-1 70.429395428327283 -35.432532046308168 14.42840097346755 #
straight-curve $-1 -70.429395428327283 -20.235069325758793 11.42840097346755 0 -1 0 I I #
coedge $-1 $369 $368 $545 $550 reversed $240 $-1 #
edge $-1 $546 -14.42840097346755 $370 -11.42840097346755 $478 $551 forward 7 unknown #
point $-1 -70.429395428327283 -45.507745256727006 11.42840097346755 #
point $-1 -70.429395428327283 -35.432532046308168 11.42840097346755 #
vertex $-1 $485 $552 #
straight-curve $-1 70.429395428327283 -45.507745256727006 0 0 0 -1 I I #
plane-surface $-1 0 45.507745256727006 0 0 -1 0 0 0 -1 forward_v I I I I #
coedge $-1 $381 $380 $504 $553 forward $155 $-1 #
edge $-1 $498 27.047564596584955 $507 45.507745256727006 $396 $554 forward 7 unknown #
edge $-1 $555 -45.507745256727006 $387 -27.047564596584955 $384 $556 forward 7 unknown #
vertex $-1 $496 $557 #
straight-curve $-1 0 27.047564596584955 14.42840097346755 1 0 0 I I #
coedge $-1 $385 $384 $391 $505 forward $378 $-1 #
point $-1 -70.429395428327283 27.047564596584955 10.995474563684912 #
point $-1 -70.429395428327283 27.047564596584955 14.42840097346755 #
straight-curve $-1 -70.429395428327283 18.138827463327992 10.995474563684912 0 -1 0 I I #
coedge $-1 $392 $391 $495 $553 reversed $393 $-1 #
edge $-1 $555 -14.42840097346755 $394 -10.995474563684912 $391 $558 forward 7 unknown #
point $-1 -70.429395428327283 45.507745256727013 10.995474563684912 #
vertex $-1 $496 $559 #
straight-curve $-1 70.429395428327283 45.507745256727006 0 0 0 -1 I I #
straight-curve $-1 70.429395428327283 27.047564596584955 6.3559688842881155 0 0 -1 I I #
coedge $-1 $412 $411 $404 $511 forward $401 $-1 #
edge $-1 $512 83.891768376529086 $515 94.967019932627963 $510 $560 forward 7 unknown #
vertex $-1 $416 $561 #
straight-curve $-1 59.310653715224994 -10.059303685119989 14.428400973467546 1 0 0 I I #
edge $-1 $515 -9.7027881946821388 $413 8.9897572138064383 $412 $562 forward 7 unknown #
vertex $-1 $514 $563 #
straight-curve $-1 -2.1182432119236694 -10.059303685119989 124.0927000597423 -0.51503806187062418 0 0.85716730853699208 I I #
point $-1 63.774713151749751 -10.059303685119989 14.428400973467546 #
point $-1 70.429395428327283 8.6332417233685881 3.3531494173686696 #
straight-curve $-1 70.429395428327283 0 14.42840097346755 0 1 0 I I #
vertex $-1 $419 $564 #
point $-1 65.700545042339925 -6.3207946034222786 6.8820301237386197 #
vertex $-1 $423 $565 #
point $-1 65.700545042339925 -0.71303098087570049 6.8820301237386197 #
vertex $-1 $427 $566 #
point $-1 65.700545042339925 4.8947326416708705 6.8820301237386197 #
edge $-1 $527 23.521993055342246 $530 34.59724461144117 $432 $567 forward 7 unknown #
vertex $-1 $446 $568 #
straight-curve $-1 -95.58447303535047 8.6332417233685881 14.42840097346755 -1 0 0 I I #
edge $-1 $530 -8.9897572138064383 $443 9.7027881946821388 $442 $569 forward 7 unknown #
vertex $-1 $529 $570 #
straight-curve $-1 -70.429395428327283 8.6332417233685881 3.3531494173686269 0.51503806187062418 0 0.85716730853699208 I I #
point $-1 -63.774713151749729 8.6332417233685881 14.42840097346755 #
point $-1 -70.429395428327283 -10.059303685119989 3.3531494173686269 #
straight-curve $-1 -70.429395428327283 0 14.42840097346755 0 -1 0 I I #
vertex $-1 $449 $571 #
point $-1 -64.670468918598658 -6.3207946034222786 8.5963647408125965 #
vertex $-1 $453 $572 #
point $-1 -64.670468918598658 -0.71303098087570049 8.5963647408125965 #
vertex $-1 $457 $573 #
point $-1 -64.670468918598658 4.8947326416708705 8.5963647408125965 #
straight-curve $-1 -70.429395428327283 45.507745256727006 0 0 0 -1 I I #
point $-1 -70.429395428327283 -45.507745256727006 -14.42840097346755 #
straight-curve $-1 -70.429395428327283 0 -14.42840097346755 0 1 0 I I #
point $-1 -70.429395428327283 45.507745256727006 -14.42840097346755 #
coedge $-1 $483 $479 $488 $550 forward $356 $-1 #
vertex $-1 $480 $574 #
straight-curve $-1 -70.429395428327283 0 14.42840097346755 0 -1 0 I I #
point $-1 -70.429395428327283 -35.432532046308168 14.42840097346755 #
straight-curve $-1 70.429395428327283 0 14.42840097346755 0 1 0 I I #
edge $-1 $546 -70.429395428327283 $492 70.429395428327283 $488 $575 forward 7 unknown #
straight-curve $-1 -70.429395428327283 -45.507745256727006 0 0 0 -1 I I #
point $-1 70.429395428327283 -45.507745256727006 14.42840097346755 #
edge $-1 $507 -70.429395428327283 $555 70.429395428327283 $504 $576 forward 7 unknown #
straight-curve $-1 70.429395428327283 0 14.42840097346755 0 1 0 I I #
vertex $-1 $553 $577 #
straight-curve $-1 -70.429395428327283 0 14.42840097346755 0 -1 0 I I #
point $-1 70.429395428327283 27.047564596584955 14.42840097346755 #
straight-curve $-1 -70.429395428327283 45.507745256727006 0 0 0 -1 I I #
point $-1 70.429395428327283 45.507745256727006 14.42840097346755 #
straight-curve $-1 70.429395428327283 -10.059303685119989 98.320169349996632 0 0 -1 I I #
point $-1 70.429395428327283 -10.059303685119989 14.42840097346755 #
straight-curve $-1 70.429395428327283 -0.35651549043785025 3.3531494173686553 0 1 0 I I #
point $-1 70.429395428327283 -10.059303685119989 3.3531494173686696 #
point $-1 64.328339671932312 -6.3207946034222786 7.2241593704049878 #
point $-1 64.328339671932312 -0.71303098087570049 7.2241593704049878 #
point $-1 64.328339671932312 4.8947326416708705 7.2241593704049878 #
straight-curve $-1 -70.429395428327283 8.6332417233685881 37.950394028809797 0 0 -1 I I #
point $-1 -70.429395428327283 8.6332417233685881 14.42840097346755 #
straight-curve $-1 -70.429395428327283 -0.35651549043785025 3.3531494173686163 0 -1 0 I I #
point $-1 -70.429395428327283 8.6332417233685881 3.3531494173686269 #
point $-1 -64.328339671932298 -6.3207946034222786 7.2241593704049807 #
point $-1 -64.328339671932298 -0.71303098087570049 7.2241593704049807 #
point $-1 -64.328339671932298 4.8947326416708705 7.2241593704049807 #
point $-1 -70.429395428327283 -45.507745256727006 14.42840097346755 #
straight-curve $-1 0 -45.507745256727006 14.42840097346755 1 0 0 I I #
straight-curve $-1 0 45.507745256727006 14.42840097346755 -1 0 0 I I #
point $-1 -70.429395428327283 45.507745256727006 14.42840097346755 #
End-of-ACIS-data 