500 0 18 0           
7 Unknown 11 ACIS 5.0 NT 24 Thu Mar 25 17:39:14 1999 
-1 9.9999999999999995e-007 1e-010 
body $-1 $18 $-1 $19 #
body $-1 $20 $-1 $21 #
body $-1 $22 $-1 $23 #
body $-1 $24 $-1 $25 #
body $-1 $26 $-1 $27 #
body $-1 $28 $-1 $29 #
body $-1 $30 $-1 $31 #
body $-1 $32 $-1 $33 #
body $-1 $34 $-1 $35 #
body $-1 $36 $-1 $37 #
body $-1 $38 $-1 $39 #
body $-1 $40 $-1 $41 #
body $-1 $42 $-1 $43 #
body $-1 $44 $-1 $45 #
body $-1 $46 $-1 $47 #
body $-1 $48 $-1 $49 #
body $-1 $50 $-1 $51 #
body $-1 $52 $-1 $53 #
lump $-1 $-1 $54 $0 #
transform $-1 1 0 0 0 1 0 0 0 1 53.56486709189123 26.676340224180919 9.31974463180436 1 rotate no_reflect no_shear #
lump $-1 $-1 $55 $1 #
transform $-1 1 0 0 0 1 0 0 0 1 53.56486709189123 26.676340224180919 9.31974463180436 1 rotate no_reflect no_shear #
lump $-1 $-1 $56 $2 #
transform $-1 1 0 0 0 1 0 0 0 1 53.56486709189123 26.676340224180919 9.31974463180436 1 rotate no_reflect no_shear #
lump $-1 $-1 $57 $3 #
transform $-1 1 0 0 0 1 0 0 0 1 53.56486709189123 26.676340224180919 9.31974463180436 1 rotate no_reflect no_shear #
lump $-1 $-1 $58 $4 #
transform $-1 1 0 0 0 1 0 0 0 1 53.56486709189123 26.676340224180919 9.31974463180436 1 rotate no_reflect no_shear #
lump $-1 $-1 $59 $5 #
transform $-1 1 0 0 0 1 0 0 0 1 53.56486709189123 26.676340224180919 9.31974463180436 1 rotate no_reflect no_shear #
lump $-1 $-1 $60 $6 #
transform $-1 1 0 0 0 1 0 0 0 1 53.56486709189123 26.676340224180919 9.31974463180436 1 rotate no_reflect no_shear #
lump $-1 $-1 $61 $7 #
transform $-1 1 0 0 0 1 0 0 0 1 53.56486709189123 26.676340224180919 9.31974463180436 1 rotate no_reflect no_shear #
lump $-1 $-1 $62 $8 #
transform $-1 1 0 0 0 1 0 0 0 1 53.56486709189123 26.676340224180919 9.31974463180436 1 rotate no_reflect no_shear #
lump $-1 $-1 $63 $9 #
transform $-1 1 0 0 0 1 0 0 0 1 53.56486709189123 26.676340224180919 9.31974463180436 1 rotate no_reflect no_shear #
lump $-1 $-1 $64 $10 #
transform $-1 1 0 0 0 1 0 0 0 1 53.56486709189123 26.676340224180919 9.31974463180436 1 rotate no_reflect no_shear #
lump $-1 $-1 $65 $11 #
transform $-1 1 0 0 0 1 0 0 0 1 53.56486709189123 26.676340224180919 9.31974463180436 1 rotate no_reflect no_shear #
lump $-1 $-1 $66 $12 #
transform $-1 1 0 0 0 1 0 0 0 1 53.56486709189123 26.676340224180919 9.31974463180436 1 rotate no_reflect no_shear #
lump $-1 $-1 $67 $13 #
transform $-1 1 0 0 0 1 0 0 0 1 53.56486709189123 26.676340224180919 9.31974463180436 1 rotate no_reflect no_shear #
lump $-1 $-1 $68 $14 #
transform $-1 1 0 0 0 1 0 0 0 1 53.56486709189123 26.676340224180919 9.31974463180436 1 rotate no_reflect no_shear #
lump $-1 $-1 $69 $15 #
transform $-1 1 0 0 0 1 0 0 0 1 53.56486709189123 26.676340224180919 9.31974463180436 1 rotate no_reflect no_shear #
lump $-1 $-1 $70 $16 #
transform $-1 1 0 0 0 1 0 0 0 1 53.56486709189123 26.676340224180919 9.31974463180436 1 rotate no_reflect no_shear #
lump $-1 $-1 $71 $17 #
transform $-1 1 0 0 0 1 0 0 0 1 53.56486709189123 26.676340224180919 9.31974463180436 1 rotate no_reflect no_shear #
shell $-1 $-1 $-1 $72 $-1 $18 #
shell $-1 $-1 $-1 $73 $-1 $20 #
shell $-1 $-1 $-1 $74 $-1 $22 #
shell $-1 $-1 $-1 $75 $-1 $24 #
shell $-1 $-1 $-1 $76 $-1 $26 #
shell $-1 $-1 $-1 $77 $-1 $28 #
shell $-1 $-1 $-1 $78 $-1 $30 #
shell $-1 $-1 $-1 $79 $-1 $32 #
shell $-1 $-1 $-1 $80 $-1 $34 #
shell $-1 $-1 $-1 $81 $-1 $36 #
shell $-1 $-1 $-1 $82 $-1 $38 #
shell $-1 $-1 $-1 $83 $-1 $40 #
shell $-1 $-1 $-1 $84 $-1 $42 #
shell $-1 $-1 $-1 $85 $-1 $44 #
shell $-1 $-1 $-1 $86 $-1 $46 #
shell $-1 $-1 $-1 $87 $-1 $48 #
shell $-1 $-1 $-1 $88 $-1 $50 #
shell $-1 $-1 $-1 $89 $-1 $52 #
face $-1 $90 $91 $54 $-1 $92 forward single #
face $-1 $93 $94 $55 $-1 $95 reversed single #
face $-1 $96 $97 $56 $-1 $98 reversed single #
face $-1 $99 $100 $57 $-1 $101 forward single #
face $-1 $102 $103 $58 $-1 $104 reversed single #
face $-1 $105 $106 $59 $-1 $107 forward single #
face $-1 $108 $109 $60 $-1 $110 reversed single #
face $-1 $111 $112 $61 $-1 $113 forward single #
face $-1 $114 $115 $62 $-1 $116 reversed single #
face $-1 $117 $118 $63 $-1 $119 forward single #
face $-1 $120 $121 $64 $-1 $122 reversed single #
face $-1 $123 $124 $65 $-1 $125 forward single #
face $-1 $126 $127 $66 $-1 $128 reversed single #
face $-1 $129 $130 $67 $-1 $131 forward single #
face $-1 $132 $133 $68 $-1 $134 reversed single #
face $-1 $135 $136 $69 $-1 $137 forward single #
face $-1 $138 $139 $70 $-1 $140 reversed single #
face $-1 $141 $142 $71 $-1 $143 forward single #
face $-1 $144 $145 $54 $-1 $146 reversed single #
loop $-1 $-1 $147 $72 #
plane-surface $-1 0 0 9.31974463180436 0 0 1 1 0 0 forward_v I I I I #
face $-1 $148 $149 $55 $-1 $150 reversed single #
loop $-1 $-1 $151 $73 #
plane-surface $-1 -47.738779494638848 -12.271878079888603 0 0 1 0 0 0 1 forward_v I I I I #
face $-1 $152 $153 $56 $-1 $154 reversed single #
loop $-1 $-1 $155 $74 #
plane-surface $-1 -31.6389545591393 -85.023376035915362 91.964643920699061 -1 0 0 0 -0.54463904215088732 0.83867056331134215 forward_v I I I I #
face $-1 $156 $157 $57 $-1 $158 forward single #
loop $-1 $159 $160 $75 #
cone-surface $-1 -36.77582322826288 -20.181064085122493 4.2552939376814694 0 0.54463904215088732 -0.83867056331134215 2 0 0 1 I I 0 1 2 forward I I I I #
face $-1 $161 $162 $58 $-1 $163 reversed single #
loop $-1 $-1 $164 $76 #
plane-surface $-1 -7.7695648118198744 -85.023376035915362 91.964643920699061 -1 0 0 0 -0.54463904215088732 0.83867056331134215 forward_v I I I I #
face $-1 $165 $166 $59 $-1 $167 forward single #
loop $-1 $168 $169 $77 #
cone-surface $-1 -12.906433480943456 -20.181064085122493 4.2552939376814694 0 0.54463904215088732 -0.83867056331134215 2 0 0 1 I I 0 1 2 forward I I I I #
face $-1 $170 $171 $60 $-1 $172 reversed single #
loop $-1 $-1 $173 $78 #
plane-surface $-1 16.099824935499548 -85.023376035915362 91.964643920699061 -1 0 0 0 -0.54463904215088732 0.83867056331134215 forward_v I I I I #
face $-1 $174 $175 $61 $-1 $176 forward single #
loop $-1 $177 $178 $79 #
cone-surface $-1 10.962956266375969 -20.181064085122493 4.2552939376814694 0 0.54463904215088732 -0.83867056331134215 2 0 0 1 I I 0 1 2 forward I I I I #
face $-1 $179 $180 $62 $-1 $181 reversed single #
loop $-1 $-1 $182 $80 #
plane-surface $-1 39.969214682818965 -85.023376035915362 91.964643920699061 -1 0 0 0 -0.54463904215088732 0.83867056331134215 forward_v I I I I #
face $-1 $183 $184 $63 $-1 $185 forward single #
loop $-1 $186 $187 $81 #
cone-surface $-1 34.832346013695386 -20.181064085122493 4.2552939376814694 0 0.54463904215088732 -0.83867056331134215 2 0 0 1 I I 0 1 2 forward I I I I #
face $-1 $188 $189 $64 $-1 $190 reversed single #
loop $-1 $-1 $191 $82 #
plane-surface $-1 -41.912691897386459 40.278053470117712 121.02259669627722 1 0 0 0 -0.54463904215088732 -0.83867056331134215 forward_v I I I I #
face $-1 $192 $193 $65 $-1 $194 forward single #
loop $-1 $195 $196 $83 #
cone-surface $-1 -36.77582322826288 20.181064085122493 4.2552939376814729 0 -0.54463904215088732 -0.83867056331134215 2 0 0 1 I I 0 1 2 forward I I I I #
face $-1 $197 $198 $66 $-1 $199 reversed single #
loop $-1 $-1 $200 $84 #
plane-surface $-1 -18.043302150067035 40.278053470117712 121.02259669627722 1 0 0 0 -0.54463904215088732 -0.83867056331134215 forward_v I I I I #
face $-1 $201 $202 $67 $-1 $203 forward single #
loop $-1 $204 $205 $85 #
cone-surface $-1 -12.906433480943456 20.181064085122493 4.2552939376814729 0 -0.54463904215088732 -0.83867056331134215 2 0 0 1 I I 0 1 2 forward I I I I #
face $-1 $206 $207 $68 $-1 $208 reversed single #
loop $-1 $-1 $209 $86 #
plane-surface $-1 5.8260875972523873 40.278053470117712 121.02259669627722 1 0 0 0 -0.54463904215088732 -0.83867056331134215 forward_v I I I I #
face $-1 $210 $211 $69 $-1 $212 forward single #
loop $-1 $213 $214 $87 #
cone-surface $-1 10.962956266375969 20.181064085122493 4.2552939376814729 0 -0.54463904215088732 -0.83867056331134215 2 0 0 1 I I 0 1 2 forward I I I I #
face $-1 $215 $216 $70 $-1 $217 reversed single #
loop $-1 $-1 $218 $88 #
plane-surface $-1 29.695477344571806 40.278053470117712 121.02259669627722 1 0 0 0 -0.54463904215088732 -0.83867056331134215 forward_v I I I I #
face $-1 $219 $220 $71 $-1 $221 forward single #
loop $-1 $222 $223 $89 #
cone-surface $-1 34.832346013695386 20.181064085122493 4.2552939376814729 0 -0.54463904215088732 -0.83867056331134215 2 0 0 1 I I 0 1 2 forward I I I I #
face $-1 $224 $225 $54 $-1 $226 reversed single #
loop $-1 $-1 $227 $90 #
plane-surface $-1 0 0 -9.31974463180436 0 0 1 1 0 0 forward_v I I I I #
coedge $-1 $228 $229 $230 $231 forward $91 $-1 #
face $-1 $232 $233 $55 $-1 $234 reversed single #
loop $-1 $-1 $235 $93 #
plane-surface $-1 -47.738779494638848 -8.0368509605722007 0 0 -1 0 0 0 -1 forward_v I I I I #
coedge $-1 $236 $237 $238 $239 reversed $94 $-1 #
face $-1 $240 $241 $56 $-1 $242 reversed single #
loop $-1 $-1 $243 $96 #
plane-surface $-1 -36.77582322826288 -26.676340224180912 2.1180894053918706 0 -0.54463904215088732 0.83867056331134215 1 0 0 forward_v I I I I #
coedge $-1 $244 $245 $246 $247 reversed $97 $-1 #
face $-1 $-1 $248 $57 $-1 $249 forward single #
loop $-1 $250 $251 $99 #
cone-surface $-1 -36.77582322826288 -18.685937082939979 1.9530002934534796 0 0.54463904215088732 -0.83867056331134215 1 0 0 1 I I -0.70710678118654746 0.70710678118654746 1 forward I I I I #
loop $-1 $-1 $252 $75 #
coedge $-1 $160 $160 $253 $254 reversed $100 $-1 #
face $-1 $255 $256 $58 $-1 $257 reversed single #
loop $-1 $-1 $258 $102 #
plane-surface $-1 -12.906433480943456 -26.676340224180912 2.1180894053918706 0 -0.54463904215088732 0.83867056331134215 1 0 0 forward_v I I I I #
coedge $-1 $259 $260 $261 $262 reversed $103 $-1 #
face $-1 $-1 $263 $59 $-1 $264 forward single #
loop $-1 $265 $266 $105 #
cone-surface $-1 -12.906433480943456 -18.685937082939979 1.9530002934534796 0 0.54463904215088732 -0.83867056331134215 1 0 0 1 I I -0.70710678118654746 0.70710678118654746 1 forward I I I I #
loop $-1 $-1 $267 $77 #
coedge $-1 $169 $169 $268 $269 reversed $106 $-1 #
face $-1 $270 $271 $60 $-1 $272 reversed single #
loop $-1 $-1 $273 $108 #
plane-surface $-1 10.962956266375969 -26.676340224180912 2.1180894053918706 0 -0.54463904215088732 0.83867056331134215 1 0 0 forward_v I I I I #
coedge $-1 $274 $275 $276 $277 reversed $109 $-1 #
face $-1 $-1 $278 $61 $-1 $279 forward single #
loop $-1 $280 $281 $111 #
cone-surface $-1 10.962956266375969 -18.685937082939979 1.9530002934534796 0 0.54463904215088732 -0.83867056331134215 1 0 0 1 I I -0.70710678118654746 0.70710678118654746 1 forward I I I I #
loop $-1 $-1 $282 $79 #
coedge $-1 $178 $178 $283 $284 reversed $112 $-1 #
face $-1 $285 $286 $62 $-1 $287 reversed single #
loop $-1 $-1 $288 $114 #
plane-surface $-1 34.832346013695386 -26.676340224180912 2.1180894053918706 0 -0.54463904215088732 0.83867056331134215 1 0 0 forward_v I I I I #
coedge $-1 $289 $290 $291 $292 reversed $115 $-1 #
face $-1 $-1 $293 $63 $-1 $294 forward single #
loop $-1 $295 $296 $117 #
cone-surface $-1 34.832346013695386 -18.685937082939979 1.9530002934534796 0 0.54463904215088732 -0.83867056331134215 1 0 0 1 I I -0.70710678118654746 0.70710678118654746 1 forward I I I I #
loop $-1 $-1 $297 $81 #
coedge $-1 $187 $187 $298 $299 reversed $118 $-1 #
face $-1 $300 $301 $64 $-1 $302 reversed single #
loop $-1 $-1 $303 $120 #
plane-surface $-1 -36.77582322826288 -18.068982341616739 31.176042180970029 0 0.54463904215088732 0.83867056331134215 1 0 0 forward_v I I I I #
coedge $-1 $304 $305 $306 $307 reversed $121 $-1 #
face $-1 $-1 $308 $65 $-1 $309 forward single #
loop $-1 $310 $311 $123 #
cone-surface $-1 -36.77582322826288 18.685937082939979 1.9530002934534831 0 -0.54463904215088732 -0.83867056331134215 1 0 0 1 I I -0.70710678118654746 0.70710678118654746 1 forward I I I I #
loop $-1 $-1 $312 $83 #
coedge $-1 $196 $196 $313 $314 reversed $124 $-1 #
face $-1 $315 $316 $66 $-1 $317 reversed single #
loop $-1 $-1 $318 $126 #
plane-surface $-1 -12.906433480943456 -18.068982341616739 31.176042180970029 0 0.54463904215088732 0.83867056331134215 1 0 0 forward_v I I I I #
coedge $-1 $319 $320 $321 $322 reversed $127 $-1 #
face $-1 $-1 $323 $67 $-1 $324 forward single #
loop $-1 $325 $326 $129 #
cone-surface $-1 -12.906433480943456 18.685937082939979 1.9530002934534831 0 -0.54463904215088732 -0.83867056331134215 1 0 0 1 I I -0.70710678118654746 0.70710678118654746 1 forward I I I I #
loop $-1 $-1 $327 $85 #
coedge $-1 $205 $205 $328 $329 reversed $130 $-1 #
face $-1 $330 $331 $68 $-1 $332 reversed single #
loop $-1 $-1 $333 $132 #
plane-surface $-1 10.962956266375969 -18.068982341616739 31.176042180970029 0 0.54463904215088732 0.83867056331134215 1 0 0 forward_v I I I I #
coedge $-1 $334 $335 $336 $337 reversed $133 $-1 #
face $-1 $-1 $338 $69 $-1 $339 forward single #
loop $-1 $340 $341 $135 #
cone-surface $-1 10.962956266375969 18.685937082939979 1.9530002934534831 0 -0.54463904215088732 -0.83867056331134215 1 0 0 1 I I -0.70710678118654746 0.70710678118654746 1 forward I I I I #
loop $-1 $-1 $342 $87 #
coedge $-1 $214 $214 $343 $344 reversed $136 $-1 #
face $-1 $345 $346 $70 $-1 $347 reversed single #
loop $-1 $-1 $348 $138 #
plane-surface $-1 34.832346013695386 -18.068982341616739 31.176042180970029 0 0.54463904215088732 0.83867056331134215 1 0 0 forward_v I I I I #
coedge $-1 $349 $350 $351 $352 reversed $139 $-1 #
face $-1 $-1 $353 $71 $-1 $354 forward single #
loop $-1 $355 $356 $141 #
cone-surface $-1 34.832346013695386 18.685937082939979 1.9530002934534831 0 -0.54463904215088732 -0.83867056331134215 1 0 0 1 I I -0.70710678118654746 0.70710678118654746 1 forward I I I I #
loop $-1 $-1 $357 $89 #
coedge $-1 $223 $223 $358 $359 reversed $142 $-1 #
face $-1 $360 $361 $54 $-1 $362 reversed single #
loop $-1 $-1 $363 $144 #
plane-surface $-1 0 -26.676340224180919 0 0 1 0 0 0 1 forward_v I I I I #
coedge $-1 $364 $365 $366 $367 forward $145 $-1 #
coedge $-1 $368 $147 $369 $370 forward $91 $-1 #
coedge $-1 $147 $368 $371 $372 forward $91 $-1 #
coedge $-1 $373 $374 $147 $231 reversed $375 $-1 #
edge $-1 $376 -26.676340224180919 $377 26.676340224180919 $230 $378 forward 7 unknown #
face $-1 $379 $380 $55 $-1 $381 reversed single #
loop $-1 $-1 $382 $148 #
plane-surface $-1 -41.912691897386466 -10.154364520230402 0 -1 0 0 0 0 1 forward_v I I I I #
coedge $-1 $383 $384 $385 $386 forward $149 $-1 #
coedge $-1 $387 $151 $388 $389 reversed $94 $-1 #
coedge $-1 $151 $387 $390 $391 reversed $94 $-1 #
coedge $-1 $392 $393 $151 $239 forward $394 $-1 #
edge $-1 $395 -9.31974463180436 $396 9.31974463180436 $238 $397 forward 7 unknown #
face $-1 $398 $399 $56 $-1 $400 reversed single #
loop $-1 $-1 $401 $152 #
plane-surface $-1 -41.912691897386459 -85.023376035915362 91.964643920699061 1 0 0 0 0.54463904215088732 -0.83867056331134215 forward_v I I I I #
coedge $-1 $402 $403 $404 $405 reversed $153 $-1 #
coedge $-1 $245 $155 $406 $407 reversed $97 $-1 #
coedge $-1 $155 $244 $402 $408 reversed $97 $-1 #
coedge $-1 $404 $409 $155 $247 forward $410 $-1 #
edge $-1 $411 15.835347793776762 $412 26.924924151830361 $246 $413 forward 7 unknown #
loop $-1 $-1 $253 $156 #
plane-surface $-1 -36.77582322826288 -26.676340224180912 2.1180894053918706 0 -0.54463904215088732 0.83867056331134215 1 0 0 forward_v I I I I #
loop $-1 $-1 $414 $99 #
coedge $-1 $251 $251 $252 $415 reversed $157 $-1 #
coedge $-1 $252 $252 $251 $415 forward $159 $-1 #
coedge $-1 $253 $253 $160 $254 forward $248 $-1 #
edge $-1 $416 -5.2230490361263341e-016 $416 6.2831853071795996 $253 $417 forward 7 unknown #
face $-1 $418 $419 $58 $-1 $420 reversed single #
loop $-1 $-1 $421 $161 #
plane-surface $-1 -18.043302150067035 -85.023376035915362 91.964643920699061 1 0 0 0 0.54463904215088732 -0.83867056331134215 forward_v I I I I #
coedge $-1 $422 $423 $424 $425 reversed $162 $-1 #
coedge $-1 $260 $164 $426 $427 reversed $103 $-1 #
coedge $-1 $164 $259 $422 $428 reversed $103 $-1 #
coedge $-1 $424 $429 $164 $262 forward $430 $-1 #
edge $-1 $431 15.835347793776762 $432 26.924924151830361 $261 $433 forward 7 unknown #
loop $-1 $-1 $268 $165 #
plane-surface $-1 -12.906433480943456 -26.676340224180912 2.1180894053918706 0 -0.54463904215088732 0.83867056331134215 1 0 0 forward_v I I I I #
loop $-1 $-1 $434 $105 #
coedge $-1 $266 $266 $267 $435 reversed $166 $-1 #
coedge $-1 $267 $267 $266 $435 forward $168 $-1 #
coedge $-1 $268 $268 $169 $269 forward $263 $-1 #
edge $-1 $436 -5.2230490361263341e-016 $436 6.2831853071795996 $268 $437 forward 7 unknown #
face $-1 $438 $439 $60 $-1 $440 reversed single #
loop $-1 $-1 $441 $170 #
plane-surface $-1 5.8260875972523873 -85.023376035915362 91.964643920699061 1 0 0 0 0.54463904215088732 -0.83867056331134215 forward_v I I I I #
coedge $-1 $442 $443 $444 $445 reversed $171 $-1 #
coedge $-1 $275 $173 $446 $447 reversed $109 $-1 #
coedge $-1 $173 $274 $442 $448 reversed $109 $-1 #
coedge $-1 $444 $449 $173 $277 forward $450 $-1 #
edge $-1 $451 15.835347793776762 $452 26.924924151830361 $276 $453 forward 7 unknown #
loop $-1 $-1 $283 $174 #
plane-surface $-1 10.962956266375969 -26.676340224180912 2.1180894053918706 0 -0.54463904215088732 0.83867056331134215 1 0 0 forward_v I I I I #
loop $-1 $-1 $454 $111 #
coedge $-1 $281 $281 $282 $455 reversed $175 $-1 #
coedge $-1 $282 $282 $281 $455 forward $177 $-1 #
coedge $-1 $283 $283 $178 $284 forward $278 $-1 #
edge $-1 $456 -5.2230490361263341e-016 $456 6.2831853071795996 $283 $457 forward 7 unknown #
face $-1 $458 $459 $62 $-1 $460 reversed single #
loop $-1 $-1 $461 $179 #
plane-surface $-1 29.695477344571806 -85.023376035915362 91.964643920699061 1 0 0 0 0.54463904215088732 -0.83867056331134215 forward_v I I I I #
coedge $-1 $462 $463 $464 $465 reversed $180 $-1 #
coedge $-1 $290 $182 $466 $467 reversed $115 $-1 #
coedge $-1 $182 $289 $462 $468 reversed $115 $-1 #
coedge $-1 $464 $469 $182 $292 forward $470 $-1 #
edge $-1 $471 15.835347793776762 $472 26.924924151830361 $291 $473 forward 7 unknown #
loop $-1 $-1 $298 $183 #
plane-surface $-1 34.832346013695386 -26.676340224180912 2.1180894053918706 0 -0.54463904215088732 0.83867056331134215 1 0 0 forward_v I I I I #
loop $-1 $-1 $474 $117 #
coedge $-1 $296 $296 $297 $475 reversed $184 $-1 #
coedge $-1 $297 $297 $296 $475 forward $186 $-1 #
coedge $-1 $298 $298 $187 $299 forward $293 $-1 #
edge $-1 $476 -5.2230490361263341e-016 $476 6.2831853071795996 $298 $477 forward 7 unknown #
face $-1 $478 $479 $64 $-1 $480 reversed single #
loop $-1 $-1 $481 $188 #
plane-surface $-1 -31.6389545591393 40.278053470117712 121.02259669627722 -1 0 0 0 0.54463904215088732 0.83867056331134215 forward_v I I I I #
coedge $-1 $482 $483 $484 $485 reversed $189 $-1 #
coedge $-1 $305 $191 $486 $487 reversed $121 $-1 #
coedge $-1 $191 $304 $482 $488 reversed $121 $-1 #
coedge $-1 $484 $489 $191 $307 forward $490 $-1 #
edge $-1 $491 -6.537313489122063 $492 4.5522628689315496 $306 $493 forward 7 unknown #
loop $-1 $-1 $313 $192 #
plane-surface $-1 -36.77582322826288 -18.068982341616739 31.176042180970029 0 0.54463904215088732 0.83867056331134215 1 0 0 forward_v I I I I #
loop $-1 $-1 $494 $123 #
coedge $-1 $311 $311 $312 $495 reversed $193 $-1 #
coedge $-1 $312 $312 $311 $495 forward $195 $-1 #
coedge $-1 $313 $313 $196 $314 forward $308 $-1 #
edge $-1 $496 5.6087316346070173e-016 $496 6.2831853071796013 $313 $497 forward 7 unknown #
face $-1 $498 $499 $66 $-1 $500 forward single #
loop $-1 $-1 $501 $197 #
plane-surface $-1 -7.7695648118198744 40.278053470117712 121.02259669627722 -1 0 0 0 0.54463904215088732 0.83867056331134215 forward_v I I I I #
coedge $-1 $502 $503 $504 $505 reversed $198 $-1 #
coedge $-1 $320 $200 $506 $507 reversed $127 $-1 #
coedge $-1 $200 $319 $502 $508 reversed $127 $-1 #
coedge $-1 $504 $509 $200 $322 forward $499 $-1 #
edge $-1 $510 -6.537313489122063 $511 4.5522628689315496 $321 $512 forward 7 unknown #
loop $-1 $-1 $328 $201 #
plane-surface $-1 -12.906433480943456 -18.068982341616739 31.176042180970029 0 0.54463904215088732 0.83867056331134215 1 0 0 forward_v I I I I #
loop $-1 $-1 $513 $129 #
coedge $-1 $326 $326 $327 $514 reversed $202 $-1 #
coedge $-1 $327 $327 $326 $514 forward $204 $-1 #
coedge $-1 $328 $328 $205 $329 forward $323 $-1 #
edge $-1 $515 5.6087316346070173e-016 $515 6.2831853071796013 $328 $516 forward 7 unknown #
face $-1 $517 $518 $68 $-1 $519 forward single #
loop $-1 $-1 $520 $206 #
plane-surface $-1 16.099824935499548 40.278053470117712 121.02259669627722 -1 0 0 0 0.54463904215088732 0.83867056331134215 forward_v I I I I #
coedge $-1 $521 $522 $523 $524 reversed $207 $-1 #
coedge $-1 $335 $209 $525 $526 reversed $133 $-1 #
coedge $-1 $209 $334 $521 $527 reversed $133 $-1 #
coedge $-1 $523 $528 $209 $337 forward $518 $-1 #
edge $-1 $529 -6.537313489122063 $530 4.5522628689315496 $336 $531 forward 7 unknown #
loop $-1 $-1 $343 $210 #
plane-surface $-1 10.962956266375969 -18.068982341616739 31.176042180970029 0 0.54463904215088732 0.83867056331134215 1 0 0 forward_v I I I I #
loop $-1 $-1 $532 $135 #
coedge $-1 $341 $341 $342 $533 reversed $211 $-1 #
coedge $-1 $342 $342 $341 $533 forward $213 $-1 #
coedge $-1 $343 $343 $214 $344 forward $338 $-1 #
edge $-1 $534 5.6087316346070173e-016 $534 6.2831853071796013 $343 $535 forward 7 unknown #
face $-1 $536 $537 $70 $-1 $538 forward single #
loop $-1 $-1 $539 $215 #
plane-surface $-1 39.969214682818965 40.278053470117712 121.02259669627722 -1 0 0 0 0.54463904215088732 0.83867056331134215 forward_v I I I I #
coedge $-1 $540 $541 $542 $543 reversed $216 $-1 #
coedge $-1 $350 $218 $544 $545 reversed $139 $-1 #
coedge $-1 $218 $349 $540 $546 reversed $139 $-1 #
coedge $-1 $542 $547 $218 $352 forward $537 $-1 #
edge $-1 $548 -6.537313489122063 $549 4.5522628689315496 $351 $550 forward 7 unknown #
loop $-1 $-1 $358 $219 #
plane-surface $-1 34.832346013695386 -18.068982341616739 31.176042180970029 0 0.54463904215088732 0.83867056331134215 1 0 0 forward_v I I I I #
loop $-1 $-1 $551 $141 #
coedge $-1 $356 $356 $357 $552 reversed $220 $-1 #
coedge $-1 $357 $357 $356 $552 forward $222 $-1 #
coedge $-1 $358 $358 $223 $359 forward $353 $-1 #
edge $-1 $553 5.6087316346070173e-016 $553 6.2831853071796013 $358 $554 forward 7 unknown #
face $-1 $555 $556 $54 $-1 $557 reversed single #
loop $-1 $-1 $558 $224 #
plane-surface $-1 -53.56486709189123 0 0 1 0 0 0 0 -1 forward_v I I I I #
coedge $-1 $559 $371 $560 $561 forward $225 $-1 #
coedge $-1 $562 $227 $559 $563 forward $145 $-1 #
coedge $-1 $227 $562 $564 $565 forward $145 $-1 #
coedge $-1 $374 $373 $227 $367 reversed $375 $-1 #
edge $-1 $566 -26.676340224180919 $567 26.676340224180919 $366 $568 forward 7 unknown #
coedge $-1 $229 $228 $569 $570 forward $91 $-1 #
coedge $-1 $571 $572 $228 $370 reversed $556 $-1 #
edge $-1 $377 -53.56486709189123 $573 53.56486709189123 $369 $574 forward 7 unknown #
coedge $-1 $363 $575 $229 $372 reversed $225 $-1 #
edge $-1 $576 -53.56486709189123 $376 53.56486709189123 $371 $577 forward 7 unknown #
coedge $-1 $366 $230 $575 $578 forward $375 $-1 #
coedge $-1 $230 $366 $571 $579 reversed $375 $-1 #
loop $-1 $-1 $373 $555 #
vertex $-1 $231 $580 #
vertex $-1 $231 $581 #
straight-curve $-1 53.56486709189123 0 9.31974463180436 0 1 0 I I #
face $-1 $582 $583 $55 $-1 $584 forward single #
loop $-1 $-1 $585 $232 #
plane-surface $-1 0 0 -9.31974463180436 0 0 1 1 0 0 forward_v I I I I #
coedge $-1 $586 $587 $387 $588 forward $233 $-1 #
coedge $-1 $589 $235 $585 $590 reversed $149 $-1 #
coedge $-1 $235 $589 $591 $592 reversed $149 $-1 #
coedge $-1 $587 $586 $235 $386 reversed $233 $-1 #
edge $-1 $593 -9.31974463180436 $594 9.31974463180436 $385 $595 forward 7 unknown #
coedge $-1 $237 $236 $382 $588 reversed $94 $-1 #
coedge $-1 $596 $597 $236 $389 forward $380 $-1 #
edge $-1 $598 18.043302150067042 $395 29.695477344571806 $388 $599 forward 7 unknown #
coedge $-1 $600 $601 $237 $391 forward $583 $-1 #
edge $-1 $396 -29.695477344571806 $602 -18.043302150067042 $390 $603 forward 7 unknown #
coedge $-1 $604 $238 $601 $605 reversed $394 $-1 #
coedge $-1 $238 $604 $596 $606 reversed $394 $-1 #
loop $-1 $-1 $604 $582 #
vertex $-1 $606 $607 #
vertex $-1 $239 $608 #
straight-curve $-1 -53.56486709189123 -12.271878079888603 0 0 0 1 I I #
face $-1 $-1 $410 $56 $-1 $609 forward single #
loop $-1 $-1 $610 $240 #
plane-surface $-1 0 -26.676340224180919 0 0 1 0 0 0 1 forward_v I I I I #
coedge $-1 $611 $612 $613 $614 reversed $241 $-1 #
coedge $-1 $615 $243 $245 $408 forward $153 $-1 #
coedge $-1 $243 $615 $611 $616 forward $153 $-1 #
coedge $-1 $613 $246 $243 $405 forward $410 $-1 #
edge $-1 $412 13.25104294500786 $617 23.524780283255019 $404 $618 forward 7 unknown #
coedge $-1 $619 $620 $244 $407 forward $399 $-1 #
edge $-1 $621 -43.864232554957667 $411 -36.662577328545169 $406 $622 forward 7 unknown #
edge $-1 $412 -13.222803855507181 $621 8.3777959833898778e-015 $245 $623 forward 7 unknown #
coedge $-1 $246 $613 $619 $624 forward $410 $-1 #
loop $-1 $-1 $613 $398 #
vertex $-1 $407 $625 #
vertex $-1 $247 $626 #
straight-curve $-1 -31.6389545591393 -42.511688017957681 9.3197446318043617 0 1 0 I I #
coedge $-1 $414 $414 $-1 $627 reversed $250 $-1 #
edge $-1 $628 0 $628 6.2831853071796004 $251 $629 forward 7 unknown #
vertex $-1 $254 $630 #
ellipse-curve $-1 -36.77582322826288 -21.13155204515412 5.7189170185981135 0 -0.54463904215088732 0.83867056331134215 2 0 0 1 I I #
face $-1 $-1 $430 $58 $-1 $631 forward single #
loop $-1 $-1 $632 $255 #
plane-surface $-1 0 -26.676340224180919 0 0 1 0 0 0 1 forward_v I I I I #
coedge $-1 $633 $634 $635 $636 reversed $256 $-1 #
coedge $-1 $637 $258 $260 $428 forward $162 $-1 #
coedge $-1 $258 $637 $633 $638 forward $162 $-1 #
coedge $-1 $635 $261 $258 $425 forward $430 $-1 #
edge $-1 $432 1.3163480713481466 $639 11.590085409595307 $424 $640 forward 7 unknown #
coedge $-1 $641 $642 $259 $427 forward $419 $-1 #
edge $-1 $643 -43.864232554957667 $431 -36.662577328545169 $426 $644 forward 7 unknown #
edge $-1 $432 -13.222803855507181 $643 8.3777959833898778e-015 $260 $645 forward 7 unknown #
coedge $-1 $261 $635 $641 $646 forward $430 $-1 #
loop $-1 $-1 $635 $418 #
vertex $-1 $427 $647 #
vertex $-1 $262 $648 #
straight-curve $-1 -7.7695648118198744 -42.511688017957681 9.3197446318043617 0 1 0 I I #
coedge $-1 $434 $434 $-1 $649 reversed $265 $-1 #
edge $-1 $650 0 $650 6.2831853071796004 $266 $651 forward 7 unknown #
vertex $-1 $269 $652 #
ellipse-curve $-1 -12.906433480943456 -21.13155204515412 5.7189170185981135 0 -0.54463904215088732 0.83867056331134215 2 0 0 1 I I #
face $-1 $-1 $450 $60 $-1 $653 forward single #
loop $-1 $-1 $654 $270 #
plane-surface $-1 0 -26.676340224180919 0 0 1 0 0 0 1 forward_v I I I I #
coedge $-1 $655 $656 $657 $658 reversed $271 $-1 #
coedge $-1 $659 $273 $275 $448 forward $171 $-1 #
coedge $-1 $273 $659 $655 $660 forward $171 $-1 #
coedge $-1 $657 $276 $273 $445 forward $450 $-1 #
edge $-1 $452 -10.618346802311564 $661 -0.34460946406440307 $444 $662 forward 7 unknown #
coedge $-1 $663 $664 $274 $447 forward $439 $-1 #
edge $-1 $665 -43.864232554957667 $451 -36.662577328545169 $446 $666 forward 7 unknown #
edge $-1 $452 -13.222803855507181 $665 8.3777959833898778e-015 $275 $667 forward 7 unknown #
coedge $-1 $276 $657 $663 $668 forward $450 $-1 #
loop $-1 $-1 $657 $438 #
vertex $-1 $447 $669 #
vertex $-1 $277 $670 #
straight-curve $-1 16.099824935499548 -42.511688017957681 9.3197446318043617 0 1 0 I I #
coedge $-1 $454 $454 $-1 $671 reversed $280 $-1 #
edge $-1 $672 0 $672 6.2831853071796004 $281 $673 forward 7 unknown #
vertex $-1 $284 $674 #
ellipse-curve $-1 10.962956266375969 -21.13155204515412 5.7189170185981135 0 -0.54463904215088732 0.83867056331134215 2 0 0 1 I I #
face $-1 $-1 $470 $62 $-1 $675 forward single #
loop $-1 $-1 $676 $285 #
plane-surface $-1 0 -26.676340224180919 0 0 1 0 0 0 1 forward_v I I I I #
coedge $-1 $677 $678 $679 $680 reversed $286 $-1 #
coedge $-1 $681 $288 $290 $468 forward $180 $-1 #
coedge $-1 $288 $681 $677 $682 forward $180 $-1 #
coedge $-1 $679 $291 $288 $465 forward $470 $-1 #
edge $-1 $472 -22.553041675971272 $683 -12.279304337724113 $464 $684 forward 7 unknown #
coedge $-1 $685 $686 $289 $467 forward $459 $-1 #
edge $-1 $687 -43.864232554957667 $471 -36.662577328545169 $466 $688 forward 7 unknown #
edge $-1 $472 -13.222803855507181 $687 8.3777959833898778e-015 $290 $689 forward 7 unknown #
coedge $-1 $291 $679 $685 $690 forward $470 $-1 #
loop $-1 $-1 $679 $458 #
vertex $-1 $467 $691 #
vertex $-1 $292 $692 #
straight-curve $-1 39.969214682818965 -42.511688017957681 9.3197446318043617 0 1 0 I I #
coedge $-1 $474 $474 $-1 $693 reversed $295 $-1 #
edge $-1 $694 0 $694 6.2831853071796004 $296 $695 forward 7 unknown #
vertex $-1 $299 $696 #
ellipse-curve $-1 34.832346013695386 -21.13155204515412 5.7189170185981135 0 -0.54463904215088732 0.83867056331134215 2 0 0 1 I I #
face $-1 $-1 $490 $64 $-1 $697 forward single #
loop $-1 $-1 $698 $300 #
plane-surface $-1 0 26.676340224180919 0 0 -1 0 0 0 -1 forward_v I I I I #
coedge $-1 $699 $700 $701 $702 reversed $301 $-1 #
coedge $-1 $703 $303 $305 $488 forward $189 $-1 #
coedge $-1 $303 $703 $699 $704 forward $189 $-1 #
coedge $-1 $701 $306 $303 $485 forward $490 $-1 #
edge $-1 $492 -23.524780283255019 $705 -13.25104294500786 $484 $706 forward 7 unknown #
coedge $-1 $707 $708 $304 $487 forward $479 $-1 #
edge $-1 $709 -58.393208942746753 $491 -51.191553716334248 $486 $710 forward 7 unknown #
edge $-1 $492 40.129876592854643 $709 53.352680448361838 $305 $711 forward 7 unknown #
coedge $-1 $306 $701 $707 $712 forward $490 $-1 #
loop $-1 $-1 $701 $478 #
vertex $-1 $487 $713 #
vertex $-1 $307 $714 #
straight-curve $-1 -41.912691897386459 20.139026735058856 9.3197446318043617 0 -1 0 I I #
coedge $-1 $494 $494 $-1 $715 reversed $310 $-1 #
edge $-1 $716 0 $716 6.2831853071796004 $311 $717 forward 7 unknown #
vertex $-1 $314 $718 #
ellipse-curve $-1 -36.77582322826288 21.131552045154116 5.7189170185981117 0 0.54463904215088732 0.83867056331134215 2 0 0 1 I I #
face $-1 $-1 $719 $66 $-1 $720 reversed single #
loop $-1 $-1 $321 $315 #
plane-surface $-1 0 0 9.31974463180436 0 0 1 1 0 0 forward_v I I I I #
coedge $-1 $721 $722 $723 $724 reversed $316 $-1 #
coedge $-1 $725 $318 $320 $508 forward $198 $-1 #
coedge $-1 $318 $725 $721 $726 forward $198 $-1 #
coedge $-1 $723 $321 $318 $505 forward $499 $-1 #
edge $-1 $511 -11.590085409595307 $727 -1.3163480713481466 $504 $728 forward 7 unknown #
coedge $-1 $729 $730 $319 $507 forward $719 $-1 #
edge $-1 $731 -58.393208942746753 $510 -51.191553716334248 $506 $732 forward 7 unknown #
edge $-1 $511 40.129876592854643 $731 53.352680448361838 $320 $733 forward 7 unknown #
coedge $-1 $321 $723 $729 $734 forward $499 $-1 #
vertex $-1 $507 $735 #
vertex $-1 $322 $736 #
straight-curve $-1 -18.043302150067035 20.139026735058856 9.3197446318043617 0 -1 0 I I #
coedge $-1 $513 $513 $-1 $737 reversed $325 $-1 #
edge $-1 $738 0 $738 6.2831853071796004 $326 $739 forward 7 unknown #
vertex $-1 $329 $740 #
ellipse-curve $-1 -12.906433480943456 21.131552045154116 5.7189170185981117 0 0.54463904215088732 0.83867056331134215 2 0 0 1 I I #
face $-1 $-1 $741 $68 $-1 $742 reversed single #
loop $-1 $-1 $336 $330 #
plane-surface $-1 0 0 9.31974463180436 0 0 1 1 0 0 forward_v I I I I #
coedge $-1 $743 $744 $745 $746 reversed $331 $-1 #
coedge $-1 $747 $333 $335 $527 forward $207 $-1 #
coedge $-1 $333 $747 $743 $748 forward $207 $-1 #
coedge $-1 $745 $336 $333 $524 forward $518 $-1 #
edge $-1 $530 0.34460946406440307 $749 10.618346802311564 $523 $750 forward 7 unknown #
coedge $-1 $751 $752 $334 $526 forward $741 $-1 #
edge $-1 $753 -58.393208942746753 $529 -51.191553716334248 $525 $754 forward 7 unknown #
edge $-1 $530 40.129876592854643 $753 53.352680448361838 $335 $755 forward 7 unknown #
coedge $-1 $336 $745 $751 $756 forward $518 $-1 #
vertex $-1 $337 $757 #
vertex $-1 $337 $758 #
straight-curve $-1 5.8260875972523873 20.139026735058856 9.3197446318043617 0 -1 0 I I #
coedge $-1 $532 $532 $-1 $759 reversed $340 $-1 #
edge $-1 $760 0 $760 6.2831853071796004 $341 $761 forward 7 unknown #
vertex $-1 $344 $762 #
ellipse-curve $-1 10.962956266375969 21.131552045154116 5.7189170185981117 0 0.54463904215088732 0.83867056331134215 2 0 0 1 I I #
face $-1 $-1 $763 $70 $-1 $764 reversed single #
loop $-1 $-1 $351 $345 #
plane-surface $-1 0 0 9.31974463180436 0 0 1 1 0 0 forward_v I I I I #
coedge $-1 $765 $766 $767 $768 reversed $346 $-1 #
coedge $-1 $769 $348 $350 $546 forward $216 $-1 #
coedge $-1 $348 $769 $765 $770 forward $216 $-1 #
coedge $-1 $767 $351 $348 $543 forward $537 $-1 #
edge $-1 $549 12.279304337724113 $771 22.553041675971272 $542 $772 forward 7 unknown #
coedge $-1 $773 $774 $349 $545 forward $763 $-1 #
edge $-1 $775 -58.393208942746753 $548 -51.191553716334248 $544 $776 forward 7 unknown #
edge $-1 $549 40.129876592854643 $775 53.352680448361838 $350 $777 forward 7 unknown #
coedge $-1 $351 $767 $773 $778 forward $537 $-1 #
vertex $-1 $352 $779 #
vertex $-1 $352 $780 #
straight-curve $-1 29.695477344571806 20.139026735058856 9.3197446318043617 0 -1 0 I I #
coedge $-1 $551 $551 $-1 $781 reversed $355 $-1 #
edge $-1 $782 0 $782 6.2831853071796004 $356 $783 forward 7 unknown #
vertex $-1 $359 $784 #
ellipse-curve $-1 34.832346013695386 21.131552045154116 5.7189170185981117 0 0.54463904215088732 0.83867056331134215 2 0 0 1 I I #
face $-1 $-1 $375 $54 $-1 $785 reversed single #
loop $-1 $-1 $571 $360 #
plane-surface $-1 0 26.676340224180919 0 0 -1 0 0 0 -1 forward_v I I I I #
coedge $-1 $786 $569 $572 $787 forward $361 $-1 #
coedge $-1 $575 $363 $364 $563 reversed $225 $-1 #
coedge $-1 $569 $786 $363 $561 reversed $361 $-1 #
edge $-1 $576 -9.31974463180436 $788 9.31974463180436 $560 $789 forward 7 unknown #
coedge $-1 $365 $364 $786 $790 forward $145 $-1 #
edge $-1 $567 -53.56486709189123 $788 53.56486709189123 $559 $791 forward 7 unknown #
coedge $-1 $572 $571 $365 $565 reversed $556 $-1 #
edge $-1 $792 -53.56486709189123 $566 53.56486709189123 $564 $793 forward 7 unknown #
vertex $-1 $367 $794 #
vertex $-1 $578 $795 #
straight-curve $-1 53.56486709189123 0 -9.31974463180436 0 -1 0 I I #
coedge $-1 $558 $560 $368 $570 reversed $361 $-1 #
edge $-1 $573 -26.676340224180919 $576 26.676340224180919 $569 $796 forward 7 unknown #
coedge $-1 $564 $369 $374 $579 forward $556 $-1 #
coedge $-1 $369 $564 $558 $787 reversed $556 $-1 #
vertex $-1 $370 $797 #
straight-curve $-1 0 26.676340224180919 9.31974463180436 -1 0 0 I I #
coedge $-1 $371 $559 $373 $578 reversed $225 $-1 #
vertex $-1 $570 $798 #
straight-curve $-1 0 -26.676340224180919 9.31974463180436 1 0 0 I I #
edge $-1 $376 -9.31974463180436 $567 9.31974463180436 $373 $799 forward 7 unknown #
edge $-1 $377 -9.31974463180436 $566 9.31974463180436 $374 $800 forward 7 unknown #
point $-1 53.56486709189123 -26.676340224180919 9.31974463180436 #
point $-1 53.56486709189123 26.676340224180919 9.31974463180436 #
face $-1 $-1 $394 $55 $-1 $801 reversed single #
loop $-1 $-1 $591 $379 #
plane-surface $-1 0 0 9.31974463180436 0 0 1 1 0 0 forward_v I I I I #
coedge $-1 $597 $596 $383 $590 forward $380 $-1 #
coedge $-1 $385 $382 $597 $802 reversed $233 $-1 #
coedge $-1 $382 $385 $600 $803 reversed $233 $-1 #
edge $-1 $602 -9.31974463180436 $598 9.31974463180436 $382 $804 forward 7 unknown #
coedge $-1 $384 $383 $604 $805 reversed $149 $-1 #
edge $-1 $806 -29.695477344571806 $594 -18.043302150067042 $585 $807 forward 7 unknown #
coedge $-1 $601 $600 $384 $592 forward $583 $-1 #
edge $-1 $593 18.043302150067042 $808 29.695477344571806 $591 $809 forward 7 unknown #
vertex $-1 $592 $810 #
vertex $-1 $590 $811 #
straight-curve $-1 -41.912691897386466 -8.0368509605722007 0 0 0 -1 I I #
coedge $-1 $585 $388 $393 $606 forward $380 $-1 #
coedge $-1 $388 $585 $586 $802 forward $380 $-1 #
vertex $-1 $389 $812 #
straight-curve $-1 -23.869389747319424 -12.271878079888603 -9.31974463180436 -1 0 0 I I #
coedge $-1 $591 $390 $587 $803 forward $583 $-1 #
coedge $-1 $390 $591 $392 $605 forward $583 $-1 #
vertex $-1 $391 $813 #
straight-curve $-1 -23.869389747319424 -12.271878079888603 9.31974463180436 1 0 0 I I #
coedge $-1 $393 $392 $589 $805 forward $394 $-1 #
edge $-1 $808 8.0368509605722007 $396 12.271878079888603 $392 $814 forward 7 unknown #
edge $-1 $395 -12.271878079888603 $806 -8.0368509605722007 $393 $815 forward 7 unknown #
point $-1 -53.56486709189123 -12.271878079888603 -9.31974463180436 #
point $-1 -53.56486709189123 -12.271878079888603 9.31974463180436 #
plane-surface $-1 0 0 9.31974463180436 0 0 1 1 0 0 forward_v I I I I #
coedge $-1 $620 $619 $612 $816 forward $399 $-1 #
coedge $-1 $612 $401 $403 $616 reversed $241 $-1 #
coedge $-1 $401 $611 $610 $816 reversed $241 $-1 #
coedge $-1 $409 $404 $401 $614 forward $410 $-1 #
edge $-1 $617 -26.924924151830361 $817 -15.835347793776762 $613 $818 forward 7 unknown #
coedge $-1 $403 $402 $620 $819 reversed $153 $-1 #
edge $-1 $820 -8.3777959833898778e-015 $617 13.222803855507181 $611 $821 forward 7 unknown #
vertex $-1 $405 $822 #
straight-curve $-1 -18.38791161413144 -15.586763866127319 9.31974463180436 -1 0 0 I I #
coedge $-1 $610 $406 $409 $624 reversed $399 $-1 #
coedge $-1 $406 $610 $615 $819 forward $399 $-1 #
vertex $-1 $407 $823 #
straight-curve $-1 -31.6389545591393 -26.676340224180919 45.98232196034953 0 0 1 I I #
straight-curve $-1 -31.6389545591393 -26.676340224180912 2.1180894053918706 0 -0.83867056331134215 -0.54463904215088732 I I #
edge $-1 $817 -41.912691897386459 $411 -31.6389545591393 $619 $824 forward 7 unknown #
point $-1 -31.6389545591393 -26.676340224180919 9.31974463180436 #
point $-1 -31.6389545591393 -15.586763866127319 9.31974463180436 #
edge $-1 $825 1 $825 0 $414 $-1 forward 7 unknown #
vertex $-1 $415 $826 #
ellipse-curve $-1 -36.77582322826288 -19.230576125090867 2.7916708567648216 0 -0.54463904215088732 0.83867056331134215 2 0 0 1 I I #
point $-1 -34.77582322826288 -21.131552045154123 5.7189170185981171 #
plane-surface $-1 0 0 9.31974463180436 0 0 1 1 0 0 forward_v I I I I #
coedge $-1 $642 $641 $634 $827 forward $419 $-1 #
coedge $-1 $634 $421 $423 $638 reversed $256 $-1 #
coedge $-1 $421 $633 $632 $827 reversed $256 $-1 #
coedge $-1 $429 $424 $421 $636 forward $430 $-1 #
edge $-1 $639 -26.924924151830361 $828 -15.835347793776762 $635 $829 forward 7 unknown #
coedge $-1 $423 $422 $642 $830 reversed $162 $-1 #
edge $-1 $831 -8.3777959833898778e-015 $639 13.222803855507181 $633 $832 forward 7 unknown #
vertex $-1 $425 $833 #
straight-curve $-1 -6.4532167404717278 -15.586763866127319 9.31974463180436 -1 0 0 I I #
coedge $-1 $632 $426 $429 $646 reversed $419 $-1 #
coedge $-1 $426 $632 $637 $830 forward $419 $-1 #
vertex $-1 $427 $834 #
straight-curve $-1 -7.7695648118198744 -26.676340224180919 45.98232196034953 0 0 1 I I #
straight-curve $-1 -7.7695648118198744 -26.676340224180912 2.1180894053918706 0 -0.83867056331134215 -0.54463904215088732 I I #
edge $-1 $828 -18.043302150067035 $431 -7.7695648118198744 $641 $835 forward 7 unknown #
point $-1 -7.7695648118198744 -26.676340224180919 9.31974463180436 #
point $-1 -7.7695648118198744 -15.586763866127319 9.31974463180436 #
edge $-1 $836 1 $836 0 $434 $-1 forward 7 unknown #
vertex $-1 $435 $837 #
ellipse-curve $-1 -12.906433480943456 -19.230576125090867 2.7916708567648216 0 -0.54463904215088732 0.83867056331134215 2 0 0 1 I I #
point $-1 -10.906433480943456 -21.131552045154123 5.7189170185981171 #
plane-surface $-1 0 0 9.31974463180436 0 0 1 1 0 0 forward_v I I I I #
coedge $-1 $664 $663 $656 $838 forward $439 $-1 #
coedge $-1 $656 $441 $443 $660 reversed $271 $-1 #
coedge $-1 $441 $655 $654 $838 reversed $271 $-1 #
coedge $-1 $449 $444 $441 $658 forward $450 $-1 #
edge $-1 $661 -26.924924151830361 $839 -15.835347793776762 $657 $840 forward 7 unknown #
coedge $-1 $443 $442 $664 $841 reversed $171 $-1 #
edge $-1 $842 -8.3777959833898778e-015 $661 13.222803855507181 $655 $843 forward 7 unknown #
vertex $-1 $445 $844 #
straight-curve $-1 5.4814781331879843 -15.586763866127319 9.31974463180436 -1 0 0 I I #
coedge $-1 $654 $446 $449 $668 reversed $439 $-1 #
coedge $-1 $446 $654 $659 $841 forward $439 $-1 #
vertex $-1 $447 $845 #
straight-curve $-1 16.099824935499548 -26.676340224180919 45.98232196034953 0 0 1 I I #
straight-curve $-1 16.099824935499548 -26.676340224180912 2.1180894053918706 0 -0.83867056331134215 -0.54463904215088732 I I #
edge $-1 $839 5.8260875972523873 $451 16.099824935499548 $663 $846 forward 7 unknown #
point $-1 16.099824935499548 -26.676340224180919 9.31974463180436 #
point $-1 16.099824935499548 -15.586763866127319 9.31974463180436 #
edge $-1 $847 1 $847 0 $454 $-1 forward 7 unknown #
vertex $-1 $455 $848 #
ellipse-curve $-1 10.962956266375969 -19.230576125090867 2.7916708567648216 0 -0.54463904215088732 0.83867056331134215 2 0 0 1 I I #
point $-1 12.962956266375969 -21.131552045154123 5.7189170185981171 #
plane-surface $-1 0 0 9.31974463180436 0 0 1 1 0 0 forward_v I I I I #
coedge $-1 $686 $685 $678 $849 forward $459 $-1 #
coedge $-1 $678 $461 $463 $682 reversed $286 $-1 #
coedge $-1 $461 $677 $676 $849 reversed $286 $-1 #
coedge $-1 $469 $464 $461 $680 forward $470 $-1 #
edge $-1 $683 -26.924924151830361 $850 -15.835347793776762 $679 $851 forward 7 unknown #
coedge $-1 $463 $462 $686 $852 reversed $180 $-1 #
edge $-1 $853 -8.3777959833898778e-015 $683 13.222803855507181 $677 $854 forward 7 unknown #
vertex $-1 $465 $855 #
straight-curve $-1 17.416173006847693 -15.586763866127319 9.31974463180436 -1 0 0 I I #
coedge $-1 $676 $466 $469 $690 reversed $459 $-1 #
coedge $-1 $466 $676 $681 $852 forward $459 $-1 #
vertex $-1 $467 $856 #
straight-curve $-1 39.969214682818965 -26.676340224180919 45.98232196034953 0 0 1 I I #
straight-curve $-1 39.969214682818965 -26.676340224180912 2.1180894053918706 0 -0.83867056331134215 -0.54463904215088732 I I #
edge $-1 $850 29.695477344571806 $471 39.969214682818965 $685 $857 forward 7 unknown #
point $-1 39.969214682818965 -26.676340224180919 9.31974463180436 #
point $-1 39.969214682818965 -15.586763866127319 9.31974463180436 #
edge $-1 $858 1 $858 0 $474 $-1 forward 7 unknown #
vertex $-1 $475 $859 #
ellipse-curve $-1 34.832346013695386 -19.230576125090867 2.7916708567648216 0 -0.54463904215088732 0.83867056331134215 2 0 0 1 I I #
point $-1 36.832346013695386 -21.131552045154123 5.7189170185981171 #
plane-surface $-1 0 0 9.31974463180436 0 0 1 1 0 0 forward_v I I I I #
coedge $-1 $708 $707 $700 $860 forward $479 $-1 #
coedge $-1 $700 $481 $483 $704 reversed $301 $-1 #
coedge $-1 $481 $699 $698 $860 reversed $301 $-1 #
coedge $-1 $489 $484 $481 $702 forward $490 $-1 #
edge $-1 $705 -4.5522628689315496 $861 6.537313489122063 $701 $862 forward 7 unknown #
coedge $-1 $483 $482 $708 $863 reversed $189 $-1 #
edge $-1 $864 -53.352680448361838 $705 -40.129876592854643 $699 $865 forward 7 unknown #
vertex $-1 $485 $866 #
straight-curve $-1 -18.38791161413144 15.58676386612731 9.31974463180436 1 0 0 I I #
coedge $-1 $698 $486 $489 $712 reversed $479 $-1 #
coedge $-1 $486 $698 $703 $863 forward $479 $-1 #
vertex $-1 $487 $867 #
straight-curve $-1 -41.912691897386459 26.676340224180919 60.51129834813861 0 0 1 I I #
straight-curve $-1 -41.912691897386459 -18.068982341616739 31.176042180970029 0 0.83867056331134215 -0.54463904215088732 I I #
edge $-1 $861 31.6389545591393 $491 41.912691897386459 $707 $868 forward 7 unknown #
point $-1 -41.912691897386459 26.676340224180919 9.31974463180436 #
point $-1 -41.912691897386459 15.586763866127306 9.3197446318043617 #
edge $-1 $869 1 $869 0 $494 $-1 forward 7 unknown #
vertex $-1 $495 $870 #
ellipse-curve $-1 -36.77582322826288 19.230576125090867 2.7916708567648252 0 0.54463904215088732 0.83867056331134215 2 0 0 1 I I #
point $-1 -34.77582322826288 21.131552045154123 5.7189170185981206 #
loop $-1 $-1 $506 $498 #
plane-surface $-1 0 26.676340224180919 0 0 -1 0 0 0 -1 forward_v I I I I #
coedge $-1 $722 $501 $503 $726 reversed $316 $-1 #
coedge $-1 $501 $721 $871 $872 reversed $316 $-1 #
coedge $-1 $509 $504 $501 $724 forward $499 $-1 #
edge $-1 $727 -4.5522628689315496 $873 6.537313489122063 $723 $874 forward 7 unknown #
coedge $-1 $503 $502 $730 $875 reversed $198 $-1 #
edge $-1 $876 -53.352680448361838 $727 -40.129876592854643 $721 $877 forward 7 unknown #
vertex $-1 $505 $878 #
straight-curve $-1 -6.4532167404717278 15.58676386612731 9.31974463180436 1 0 0 I I #
coedge $-1 $871 $506 $509 $734 reversed $719 $-1 #
coedge $-1 $506 $871 $725 $875 forward $719 $-1 #
vertex $-1 $507 $879 #
straight-curve $-1 -18.043302150067035 26.676340224180919 60.51129834813861 0 0 1 I I #
straight-curve $-1 -18.043302150067035 -18.068982341616739 31.176042180970029 0 0.83867056331134215 -0.54463904215088732 I I #
edge $-1 $873 7.7695648118198744 $510 18.043302150067035 $729 $880 forward 7 unknown #
point $-1 -18.043302150067035 26.676340224180919 9.31974463180436 #
point $-1 -18.043302150067035 15.586763866127306 9.3197446318043617 #
edge $-1 $881 1 $881 0 $513 $-1 forward 7 unknown #
vertex $-1 $514 $882 #
ellipse-curve $-1 -12.906433480943456 19.230576125090867 2.7916708567648252 0 0.54463904215088732 0.83867056331134215 2 0 0 1 I I #
point $-1 -10.906433480943456 21.131552045154123 5.7189170185981206 #
loop $-1 $-1 $525 $517 #
plane-surface $-1 0 26.676340224180919 0 0 -1 0 0 0 -1 forward_v I I I I #
coedge $-1 $744 $520 $522 $748 reversed $331 $-1 #
coedge $-1 $520 $743 $883 $884 reversed $331 $-1 #
coedge $-1 $528 $523 $520 $746 forward $518 $-1 #
edge $-1 $749 -4.5522628689315496 $885 6.537313489122063 $745 $886 forward 7 unknown #
coedge $-1 $522 $521 $752 $887 reversed $207 $-1 #
edge $-1 $888 -53.352680448361838 $749 -40.129876592854643 $743 $889 forward 7 unknown #
vertex $-1 $524 $890 #
straight-curve $-1 5.4814781331879843 15.58676386612731 9.31974463180436 1 0 0 I I #
coedge $-1 $883 $525 $528 $756 reversed $741 $-1 #
coedge $-1 $525 $883 $747 $887 forward $741 $-1 #
vertex $-1 $526 $891 #
straight-curve $-1 5.8260875972523873 26.676340224180919 60.51129834813861 0 0 1 I I #
straight-curve $-1 5.8260875972523873 -18.068982341616739 31.176042180970029 0 0.83867056331134215 -0.54463904215088732 I I #
edge $-1 $885 -16.099824935499548 $529 -5.8260875972523873 $751 $892 forward 7 unknown #
point $-1 5.8260875972523873 26.676340224180919 9.31974463180436 #
point $-1 5.8260875972523873 15.586763866127306 9.3197446318043617 #
edge $-1 $893 1 $893 0 $532 $-1 forward 7 unknown #
vertex $-1 $533 $894 #
ellipse-curve $-1 10.962956266375969 19.230576125090867 2.7916708567648252 0 0.54463904215088732 0.83867056331134215 2 0 0 1 I I #
point $-1 12.962956266375969 21.131552045154123 5.7189170185981206 #
loop $-1 $-1 $544 $536 #
plane-surface $-1 0 26.676340224180919 0 0 -1 0 0 0 -1 forward_v I I I I #
coedge $-1 $766 $539 $541 $770 reversed $346 $-1 #
coedge $-1 $539 $765 $895 $896 reversed $346 $-1 #
coedge $-1 $547 $542 $539 $768 forward $537 $-1 #
edge $-1 $771 -4.5522628689315496 $897 6.537313489122063 $767 $898 forward 7 unknown #
coedge $-1 $541 $540 $774 $899 reversed $216 $-1 #
edge $-1 $900 -53.352680448361838 $771 -40.129876592854643 $765 $901 forward 7 unknown #
vertex $-1 $543 $902 #
straight-curve $-1 17.416173006847693 15.58676386612731 9.31974463180436 1 0 0 I I #
coedge $-1 $895 $544 $547 $778 reversed $763 $-1 #
coedge $-1 $544 $895 $769 $899 forward $763 $-1 #
vertex $-1 $545 $903 #
straight-curve $-1 29.695477344571806 26.676340224180919 60.51129834813861 0 0 1 I I #
straight-curve $-1 29.695477344571806 -18.068982341616739 31.176042180970029 0 0.83867056331134215 -0.54463904215088732 I I #
edge $-1 $897 -39.969214682818965 $548 -29.695477344571806 $773 $904 forward 7 unknown #
point $-1 29.695477344571806 26.676340224180919 9.31974463180436 #
point $-1 29.695477344571806 15.586763866127306 9.3197446318043617 #
edge $-1 $905 1 $905 0 $551 $-1 forward 7 unknown #
vertex $-1 $552 $906 #
ellipse-curve $-1 34.832346013695386 19.230576125090867 2.7916708567648252 0 0.54463904215088732 0.83867056331134215 2 0 0 1 I I #
point $-1 36.832346013695386 21.131552045154123 5.7189170185981206 #
plane-surface $-1 53.56486709189123 0 0 -1 0 0 0 0 1 forward_v I I I I #
coedge $-1 $560 $558 $562 $790 reversed $361 $-1 #
edge $-1 $573 -9.31974463180436 $792 9.31974463180436 $572 $907 forward 7 unknown #
vertex $-1 $790 $908 #
straight-curve $-1 -53.56486709189123 -26.676340224180919 0 0 0 -1 I I #
edge $-1 $788 -26.676340224180919 $792 26.676340224180919 $786 $909 forward 7 unknown #
straight-curve $-1 0 -26.676340224180919 -9.31974463180436 -1 0 0 I I #
vertex $-1 $565 $910 #
straight-curve $-1 0 26.676340224180919 -9.31974463180436 1 0 0 I I #
point $-1 53.56486709189123 26.676340224180919 -9.31974463180436 #
point $-1 53.56486709189123 -26.676340224180919 -9.31974463180436 #
straight-curve $-1 -53.56486709189123 0 9.31974463180436 0 -1 0 I I #
point $-1 -53.56486709189123 26.676340224180919 9.31974463180436 #
point $-1 -53.56486709189123 -26.676340224180919 9.31974463180436 #
straight-curve $-1 53.56486709189123 -26.676340224180919 0 0 0 -1 I I #
straight-curve $-1 53.56486709189123 26.676340224180919 0 0 0 -1 I I #
plane-surface $-1 -53.56486709189123 0 0 1 0 0 0 0 -1 forward_v I I I I #
edge $-1 $594 2.9596687004569997 $598 7.1946958197734023 $597 $911 forward 7 unknown #
edge $-1 $602 -7.1946958197734023 $593 -2.9596687004569997 $600 $912 forward 7 unknown #
straight-curve $-1 -41.912691897386466 -12.271878079888603 0 0 0 -1 I I #
edge $-1 $808 -9.31974463180436 $806 9.31974463180436 $604 $913 forward 7 unknown #
vertex $-1 $805 $914 #
straight-curve $-1 -23.869389747319424 -8.0368509605722007 -9.31974463180436 1 0 0 I I #
vertex $-1 $605 $915 #
straight-curve $-1 -23.869389747319424 -8.0368509605722007 9.31974463180436 -1 0 0 I I #
point $-1 -41.912691897386466 -8.0368509605722007 9.31974463180436 #
point $-1 -41.912691897386466 -8.0368509605722007 -9.31974463180436 #
point $-1 -41.912691897386466 -12.271878079888603 -9.31974463180436 #
point $-1 -41.912691897386466 -12.271878079888603 9.31974463180436 #
straight-curve $-1 -53.56486709189123 0 9.31974463180436 0 -1 0 I I #
straight-curve $-1 -53.56486709189123 0 -9.31974463180436 0 1 0 I I #
edge $-1 $817 36.662577328545169 $820 43.864232554957667 $610 $916 forward 7 unknown #
vertex $-1 $624 $917 #
straight-curve $-1 -41.912691897386459 -42.511688017957681 9.3197446318043617 0 -1 0 I I #
edge $-1 $820 -23.524780283255019 $621 -13.25104294500786 $620 $918 forward 7 unknown #
vertex $-1 $819 $919 #
straight-curve $-1 -41.912691897386459 -26.676340224180912 2.1180894053918706 0 0.83867056331134215 0.54463904215088732 I I #
point $-1 -41.912691897386459 -15.586763866127319 9.31974463180436 #
point $-1 -31.6389545591393 -26.676340224180919 2.1180894053918662 #
straight-curve $-1 0 -26.676340224180919 9.31974463180436 1 0 0 I I #
vertex $-1 $627 $920 #
point $-1 -34.77582322826288 -19.230576125090867 2.7916708567648216 #
edge $-1 $828 36.662577328545169 $831 43.864232554957667 $632 $921 forward 7 unknown #
vertex $-1 $646 $922 #
straight-curve $-1 -18.043302150067035 -42.511688017957681 9.3197446318043617 0 -1 0 I I #
edge $-1 $831 -11.590085409595307 $643 -1.3163480713481466 $642 $923 forward 7 unknown #
vertex $-1 $830 $924 #
straight-curve $-1 -18.043302150067035 -26.676340224180912 2.1180894053918706 0 0.83867056331134215 0.54463904215088732 I I #
point $-1 -18.043302150067035 -15.586763866127319 9.31974463180436 #
point $-1 -7.7695648118198744 -26.676340224180919 2.1180894053918662 #
straight-curve $-1 0 -26.676340224180919 9.31974463180436 1 0 0 I I #
vertex $-1 $649 $925 #
point $-1 -10.906433480943456 -19.230576125090867 2.7916708567648216 #
edge $-1 $839 36.662577328545169 $842 43.864232554957667 $654 $926 forward 7 unknown #
vertex $-1 $668 $927 #
straight-curve $-1 5.8260875972523873 -42.511688017957681 9.3197446318043617 0 -1 0 I I #
edge $-1 $842 0.34460946406440307 $665 10.618346802311564 $664 $928 forward 7 unknown #
vertex $-1 $841 $929 #
straight-curve $-1 5.8260875972523873 -26.676340224180912 2.1180894053918706 0 0.83867056331134215 0.54463904215088732 I I #
point $-1 5.8260875972523873 -15.586763866127319 9.31974463180436 #
point $-1 16.099824935499548 -26.676340224180919 2.1180894053918662 #
straight-curve $-1 0 -26.676340224180919 9.31974463180436 1 0 0 I I #
vertex $-1 $671 $930 #
point $-1 12.962956266375969 -19.230576125090867 2.7916708567648216 #
edge $-1 $850 36.662577328545169 $853 43.864232554957667 $676 $931 forward 7 unknown #
vertex $-1 $690 $932 #
straight-curve $-1 29.695477344571806 -42.511688017957681 9.3197446318043617 0 -1 0 I I #
edge $-1 $853 12.279304337724113 $687 22.553041675971272 $686 $933 forward 7 unknown #
vertex $-1 $852 $934 #
straight-curve $-1 29.695477344571806 -26.676340224180912 2.1180894053918706 0 0.83867056331134215 0.54463904215088732 I I #
point $-1 29.695477344571806 -15.586763866127319 9.31974463180436 #
point $-1 39.969214682818965 -26.676340224180919 2.1180894053918662 #
straight-curve $-1 0 -26.676340224180919 9.31974463180436 1 0 0 I I #
vertex $-1 $693 $935 #
point $-1 36.832346013695386 -19.230576125090867 2.7916708567648216 #
edge $-1 $861 51.191553716334248 $864 58.393208942746753 $698 $936 forward 7 unknown #
vertex $-1 $712 $937 #
straight-curve $-1 -31.6389545591393 20.139026735058856 9.3197446318043617 0 1 0 I I #
edge $-1 $864 13.25104294500786 $709 23.524780283255019 $708 $938 forward 7 unknown #
vertex $-1 $863 $939 #
straight-curve $-1 -31.6389545591393 -18.068982341616739 31.176042180970029 0 -0.83867056331134215 0.54463904215088732 I I #
point $-1 -31.6389545591393 15.586763866127306 9.3197446318043617 #
point $-1 -41.912691897386459 26.676340224180919 2.11808940539186 #
straight-curve $-1 0 26.676340224180919 9.31974463180436 -1 0 0 I I #
vertex $-1 $715 $940 #
point $-1 -34.77582322826288 19.230576125090867 2.7916708567648252 #
coedge $-1 $730 $729 $722 $872 forward $719 $-1 #
edge $-1 $873 51.191553716334248 $876 58.393208942746753 $871 $941 forward 7 unknown #
vertex $-1 $734 $942 #
straight-curve $-1 -7.7695648118198744 20.139026735058856 9.3197446318043617 0 1 0 I I #
edge $-1 $876 1.3163480713481466 $731 11.590085409595307 $730 $943 forward 7 unknown #
vertex $-1 $875 $944 #
straight-curve $-1 -7.7695648118198744 -18.068982341616739 31.176042180970029 0 -0.83867056331134215 0.54463904215088732 I I #
point $-1 -7.7695648118198744 15.586763866127306 9.3197446318043617 #
point $-1 -18.043302150067035 26.676340224180919 2.11808940539186 #
straight-curve $-1 0 26.676340224180919 9.31974463180436 -1 0 0 I I #
vertex $-1 $737 $945 #
point $-1 -10.906433480943456 19.230576125090867 2.7916708567648252 #
coedge $-1 $752 $751 $744 $884 forward $741 $-1 #
edge $-1 $885 51.191553716334248 $888 58.393208942746753 $883 $946 forward 7 unknown #
vertex $-1 $756 $947 #
straight-curve $-1 16.099824935499548 20.139026735058856 9.3197446318043617 0 1 0 I I #
edge $-1 $888 -10.618346802311564 $753 -0.34460946406440307 $752 $948 forward 7 unknown #
vertex $-1 $887 $949 #
straight-curve $-1 16.099824935499548 -18.068982341616739 31.176042180970029 0 -0.83867056331134215 0.54463904215088732 I I #
point $-1 16.099824935499548 15.586763866127306 9.3197446318043617 #
point $-1 5.8260875972523873 26.676340224180919 2.11808940539186 #
straight-curve $-1 0 26.676340224180919 9.31974463180436 -1 0 0 I I #
vertex $-1 $759 $950 #
point $-1 12.962956266375969 19.230576125090867 2.7916708567648252 #
coedge $-1 $774 $773 $766 $896 forward $763 $-1 #
edge $-1 $897 51.191553716334248 $900 58.393208942746753 $895 $951 forward 7 unknown #
vertex $-1 $778 $952 #
straight-curve $-1 39.969214682818965 20.139026735058856 9.3197446318043617 0 1 0 I I #
edge $-1 $900 -22.553041675971272 $775 -12.279304337724113 $774 $953 forward 7 unknown #
vertex $-1 $899 $954 #
straight-curve $-1 39.969214682818965 -18.068982341616739 31.176042180970029 0 -0.83867056331134215 0.54463904215088732 I I #
point $-1 39.969214682818965 15.586763866127306 9.3197446318043617 #
point $-1 29.695477344571806 26.676340224180919 2.11808940539186 #
straight-curve $-1 0 26.676340224180919 9.31974463180436 -1 0 0 I I #
vertex $-1 $781 $955 #
point $-1 36.832346013695386 19.230576125090867 2.7916708567648252 #
straight-curve $-1 -53.56486709189123 26.676340224180919 0 0 0 -1 I I #
point $-1 -53.56486709189123 -26.676340224180919 -9.31974463180436 #
straight-curve $-1 -53.56486709189123 0 -9.31974463180436 0 1 0 I I #
point $-1 -53.56486709189123 26.676340224180919 -9.31974463180436 #
straight-curve $-1 -41.912691897386466 -5.077182260115201 -9.31974463180436 0 -1 0 I I #
straight-curve $-1 -41.912691897386466 -5.077182260115201 9.31974463180436 0 1 0 I I #
straight-curve $-1 -53.56486709189123 -8.0368509605722007 0 0 0 -1 I I #
point $-1 -53.56486709189123 -8.0368509605722007 -9.31974463180436 #
point $-1 -53.56486709189123 -8.0368509605722007 9.31974463180436 #
straight-curve $-1 -41.912691897386459 -26.676340224180919 45.98232196034953 0 0 -1 I I #
point $-1 -41.912691897386459 -26.676340224180919 9.31974463180436 #
straight-curve $-1 -18.38791161413144 -26.676340224180919 2.1180894053918653 1 0 0 I I #
point $-1 -41.912691897386459 -26.676340224180919 2.1180894053918662 #
point $-1 -36.77582322826288 -18.141298040789092 1.1143297301421375 #
straight-curve $-1 -18.043302150067035 -26.676340224180919 45.98232196034953 0 0 -1 I I #
point $-1 -18.043302150067035 -26.676340224180919 9.31974463180436 #
straight-curve $-1 -6.4532167404717278 -26.676340224180919 2.1180894053918653 1 0 0 I I #
point $-1 -18.043302150067035 -26.676340224180919 2.1180894053918662 #
point $-1 -12.906433480943456 -18.141298040789092 1.1143297301421375 #
straight-curve $-1 5.8260875972523873 -26.676340224180919 45.98232196034953 0 0 -1 I I #
point $-1 5.8260875972523873 -26.676340224180919 9.31974463180436 #
straight-curve $-1 5.4814781331879843 -26.676340224180919 2.1180894053918653 1 0 0 I I #
point $-1 5.8260875972523873 -26.676340224180919 2.1180894053918662 #
point $-1 10.962956266375969 -18.141298040789092 1.1143297301421375 #
straight-curve $-1 29.695477344571806 -26.676340224180919 45.98232196034953 0 0 -1 I I #
point $-1 29.695477344571806 -26.676340224180919 9.31974463180436 #
straight-curve $-1 17.416173006847693 -26.676340224180919 2.1180894053918653 1 0 0 I I #
point $-1 29.695477344571806 -26.676340224180919 2.1180894053918662 #
point $-1 34.832346013695386 -18.141298040789092 1.1143297301421375 #
straight-curve $-1 -31.6389545591393 26.676340224180919 60.51129834813861 0 0 -1 I I #
point $-1 -31.6389545591393 26.676340224180919 9.31974463180436 #
straight-curve $-1 -18.38791161413144 26.676340224180919 2.11808940539186 -1 0 0 I I #
point $-1 -31.6389545591393 26.676340224180919 2.11808940539186 #
point $-1 -36.77582322826288 18.141298040789092 1.1143297301421411 #
straight-curve $-1 -7.7695648118198744 26.676340224180919 60.51129834813861 0 0 -1 I I #
point $-1 -7.7695648118198744 26.676340224180919 9.31974463180436 #
straight-curve $-1 -6.4532167404717278 26.676340224180919 2.11808940539186 -1 0 0 I I #
point $-1 -7.7695648118198744 26.676340224180919 2.11808940539186 #
point $-1 -12.906433480943456 18.141298040789092 1.1143297301421411 #
straight-curve $-1 16.099824935499548 26.676340224180919 60.51129834813861 0 0 -1 I I #
point $-1 16.099824935499548 26.676340224180919 9.31974463180436 #
straight-curve $-1 5.4814781331879843 26.676340224180919 2.11808940539186 -1 0 0 I I #
point $-1 16.099824935499548 26.676340224180919 2.11808940539186 #
point $-1 10.962956266375969 18.141298040789092 1.1143297301421411 #
straight-curve $-1 39.969214682818965 26.676340224180919 60.51129834813861 0 0 -1 I I #
point $-1 39.969214682818965 26.676340224180919 9.31974463180436 #
straight-curve $-1 17.416173006847693 26.676340224180919 2.11808940539186 -1 0 0 I I #
point $-1 39.969214682818965 26.676340224180919 2.11808940539186 #
point $-1 34.832346013695386 18.141298040789092 1.1143297301421411 #
End-of-ACIS-data 