500 0 9 0           
7 Unknown 11 ACIS 5.0 NT 24 Fri Mar 26 17:43:05 1999 
-1 9.9999999999999995e-007 1e-010 
body $-1 $9 $-1 $10 #
body $-1 $11 $-1 $12 #
body $-1 $13 $-1 $14 #
body $-1 $15 $-1 $16 #
body $-1 $17 $-1 $18 #
body $-1 $19 $-1 $20 #
body $-1 $21 $-1 $22 #
body $-1 $23 $-1 $24 #
body $-1 $25 $-1 $26 #
lump $-1 $-1 $27 $0 #
transform $-1 1 0 0 0 1 0 0 0 1 72.774437696462911 32.33195453383064 8.4819701030995081 1 rotate no_reflect no_shear #
lump $-1 $-1 $28 $1 #
transform $-1 1 0 0 0 1 0 0 0 1 72.774437696462911 32.33195453383064 8.4819701030995081 1 rotate no_reflect no_shear #
lump $-1 $-1 $29 $2 #
transform $-1 1 0 0 0 1 0 0 0 1 72.774437696462911 32.33195453383064 8.4819701030995081 1 rotate no_reflect no_shear #
lump $-1 $-1 $30 $3 #
transform $-1 1 0 0 0 1 0 0 0 1 72.774437696462911 32.33195453383064 8.4819701030995081 1 rotate no_reflect no_shear #
lump $-1 $-1 $31 $4 #
transform $-1 1 0 0 0 1 0 0 0 1 72.774437696462911 32.33195453383064 8.4819701030995081 1 rotate no_reflect no_shear #
lump $-1 $-1 $32 $5 #
transform $-1 1 0 0 0 1 0 0 0 1 72.774437696462911 32.33195453383064 8.4819701030995081 1 rotate no_reflect no_shear #
lump $-1 $-1 $33 $6 #
transform $-1 1 0 0 0 1 0 0 0 1 72.774437696462911 32.33195453383064 8.4819701030995081 1 rotate no_reflect no_shear #
lump $-1 $-1 $34 $7 #
transform $-1 1 0 0 0 1 0 0 0 1 72.774437696462911 32.33195453383064 8.4819701030995081 1 rotate no_reflect no_shear #
lump $-1 $-1 $35 $8 #
transform $-1 1 0 0 0 1 0 0 0 1 72.774437696462911 32.33195453383064 8.4819701030995081 1 rotate no_reflect no_shear #
shell $-1 $-1 $-1 $36 $-1 $9 #
shell $-1 $-1 $-1 $37 $-1 $11 #
shell $-1 $-1 $-1 $38 $-1 $13 #
shell $-1 $-1 $-1 $39 $-1 $15 #
shell $-1 $-1 $-1 $40 $-1 $17 #
shell $-1 $-1 $-1 $41 $-1 $19 #
shell $-1 $-1 $-1 $42 $-1 $21 #
shell $-1 $-1 $-1 $43 $-1 $23 #
shell $-1 $-1 $-1 $44 $-1 $25 #
face $-1 $45 $46 $27 $-1 $47 forward single #
face $-1 $48 $49 $28 $-1 $50 forward single #
face $-1 $51 $52 $29 $-1 $53 reversed single #
face $-1 $54 $55 $30 $-1 $56 forward single #
face $-1 $57 $58 $31 $-1 $59 forward single #
face $-1 $60 $61 $32 $-1 $62 reversed single #
face $-1 $63 $64 $33 $-1 $65 forward single #
face $-1 $66 $67 $34 $-1 $68 forward single #
face $-1 $69 $70 $35 $-1 $71 forward single #
face $-1 $72 $73 $27 $-1 $74 reversed single #
loop $-1 $-1 $75 $36 #
plane-surface $-1 0 0 8.4819701030995081 0 0 1 1 0 0 forward_v I I I I #
face $-1 $76 $77 $28 $-1 $78 reversed single #
loop $-1 $-1 $79 $37 #
plane-surface $-1 0 -32.33195453383064 0 0 1 0 0 0 1 forward_v I I I I #
face $-1 $80 $81 $29 $-1 $82 reversed single #
loop $-1 $-1 $83 $38 #
plane-surface $-1 -175.69303567499492 -22.53083495021464 108.26270921080705 0 1 0 -0.70710678939079041 0 0.70710677298230451 forward_v I I I I #
face $-1 $84 $85 $30 $-1 $86 forward single #
loop $-1 $87 $88 $39 #
cone-surface $-1 -69.830139634249193 -19.982932309751821 5.53767203639425 0.70710678939079041 0 -0.70710677298230451 0.70710677298230451 0 0.70710678939079041 1 I I 0 1 1 forward I I I I #
face $-1 $89 $90 $31 $-1 $91 forward single #
loop $-1 $92 $93 $40 #
cone-surface $-1 -69.830139634249193 -16.16107834905759 5.53767203639425 0.70710678939079041 0 -0.70710677298230451 0.70710677298230451 0 0.70710678939079041 1 I I 0 1 1 forward I I I I #
face $-1 $94 $95 $32 $-1 $96 reversed single #
loop $-1 $-1 $97 $41 #
plane-surface $-1 69.18208566919904 -18.376089890619038 208.49939866827725 0 -1 0 -0.69465837861970381 0 -0.71933979245794832 forward_v I I I I #
face $-1 $98 $99 $33 $-1 $100 forward single #
loop $-1 $101 $102 $42 #
cone-surface $-1 69.367794133583473 -25.021845134656523 5.1636052242805723 -0.69465837861970381 0 -0.71933979245794832 0.35966989622897416 0 -0.3473291893098519 1 I I 0 1 0.5 forward I I I I #
face $-1 $103 $104 $34 $-1 $105 forward single #
loop $-1 $106 $107 $43 #
cone-surface $-1 69.367794133583473 -22.529686918142467 5.1636052242805723 -0.69465837861970381 0 -0.71933979245794832 0.35966989622897416 0 -0.3473291893098519 1 I I 0 1 0.5 forward I I I I #
face $-1 $108 $109 $35 $-1 $110 forward single #
loop $-1 $111 $112 $44 #
cone-surface $-1 69.367794133583473 -20.03752870162841 5.1636052242805723 -0.69465837861970381 0 -0.71933979245794832 0.35966989622897416 0 -0.3473291893098519 1 I I 0 1 0.5 forward I I I I #
face $-1 $113 $114 $27 $-1 $115 reversed single #
loop $-1 $-1 $116 $45 #
plane-surface $-1 0 0 -8.4819701030995081 0 0 1 1 0 0 forward_v I I I I #
coedge $-1 $117 $118 $119 $120 forward $46 $-1 #
face $-1 $121 $122 $28 $-1 $123 reversed single #
loop $-1 $-1 $124 $48 #
plane-surface $-1 0 0 -8.4819701030995081 0 0 1 1 0 0 forward_v I I I I #
coedge $-1 $125 $126 $127 $128 forward $49 $-1 #
face $-1 $129 $130 $29 $-1 $131 reversed single #
loop $-1 $-1 $132 $51 #
plane-surface $-1 -72.774437696462925 -18.072005329404703 5.3441136205117203 -0.70710678939079041 0 0.70710677298230451 0.70710677298230451 0 0.70710678939079041 forward_v I I I I #
coedge $-1 $133 $134 $135 $136 reversed $52 $-1 #
face $-1 $-1 $137 $30 $-1 $138 forward single #
loop $-1 $139 $140 $54 #
cone-surface $-1 -68.101216382226838 -19.982932309751821 3.8087488244917331 0.70710678939079041 0 -0.70710677298230451 0.35355338649115226 0 0.35355339469539521 1 I I -0.70710678118654746 0.70710678118654746 0.5 forward I I I I #
loop $-1 $-1 $141 $39 #
coedge $-1 $88 $88 $142 $143 reversed $55 $-1 #
face $-1 $-1 $144 $31 $-1 $145 forward single #
loop $-1 $146 $147 $57 #
cone-surface $-1 -68.101216382226838 -16.16107834905759 3.8087488244917331 0.70710678939079041 0 -0.70710677298230451 0.35355338649115226 0 0.35355339469539521 1 I I -0.70710678118654746 0.70710678118654746 0.5 forward I I I I #
loop $-1 $-1 $148 $40 #
coedge $-1 $93 $93 $149 $150 reversed $58 $-1 #
face $-1 $151 $152 $32 $-1 $153 reversed single #
loop $-1 $-1 $154 $60 #
plane-surface $-1 -31.92466012117211 -22.529686918142467 103.8003008506422 0.69465837861970381 0 0.71933979245794832 0.71933979245794832 0 -0.69465837861970381 forward_v I I I I #
coedge $-1 $155 $156 $157 $158 reversed $61 $-1 #
face $-1 $-1 $159 $33 $-1 $160 forward single #
loop $-1 $161 $162 $63 #
cone-surface $-1 68.784525530831644 -25.021845134656523 4.5596129187613794 -0.69465837861970381 0 -0.71933979245794832 0.17983494811448708 0 -0.17366459465492595 1 I I -0.70710678118654746 0.70710678118654746 0.25 forward I I I I #
loop $-1 $-1 $163 $42 #
coedge $-1 $102 $102 $164 $165 reversed $64 $-1 #
face $-1 $-1 $166 $34 $-1 $167 forward single #
loop $-1 $168 $169 $66 #
cone-surface $-1 68.784525530831644 -22.529686918142467 4.5596129187613794 -0.69465837861970381 0 -0.71933979245794832 0.17983494811448708 0 -0.17366459465492595 1 I I -0.70710678118654746 0.70710678118654746 0.25 forward I I I I #
loop $-1 $-1 $170 $43 #
coedge $-1 $107 $107 $171 $172 reversed $67 $-1 #
face $-1 $-1 $173 $35 $-1 $174 forward single #
loop $-1 $175 $176 $69 #
cone-surface $-1 68.784525530831644 -20.03752870162841 4.5596129187613794 -0.69465837861970381 0 -0.71933979245794832 0.17983494811448708 0 -0.17366459465492595 1 I I -0.70710678118654746 0.70710678118654746 0.25 forward I I I I #
loop $-1 $-1 $177 $44 #
coedge $-1 $112 $112 $178 $179 reversed $70 $-1 #
face $-1 $180 $181 $27 $-1 $182 reversed single #
loop $-1 $-1 $183 $72 #
plane-surface $-1 0 -32.33195453383064 0 0 1 0 0 0 1 forward_v I I I I #
coedge $-1 $184 $185 $186 $187 forward $73 $-1 #
coedge $-1 $188 $75 $189 $190 forward $46 $-1 #
coedge $-1 $75 $188 $191 $192 forward $46 $-1 #
coedge $-1 $193 $194 $75 $120 reversed $195 $-1 #
edge $-1 $196 -32.33195453383064 $197 32.33195453383064 $119 $198 forward 7 unknown #
face $-1 $199 $200 $28 $-1 $201 reversed single #
loop $-1 $-1 $202 $76 #
plane-surface $-1 -64.500544691003014 -37.980625121995388 0 0 1 0 0 0 1 forward_v I I I I #
coedge $-1 $203 $204 $126 $205 forward $77 $-1 #
coedge $-1 $206 $79 $207 $208 reversed $49 $-1 #
coedge $-1 $79 $206 $124 $205 reversed $49 $-1 #
coedge $-1 $209 $210 $79 $128 reversed $200 $-1 #
edge $-1 $211 -8.4819701030995081 $212 8.4819701030995081 $127 $213 forward 7 unknown #
face $-1 $214 $215 $29 $-1 $216 reversed single #
loop $-1 $-1 $217 $80 #
plane-surface $-1 -175.69303567499492 -13.613175708594769 108.26270921080705 0 -1 0 0.70710678939079041 0 -0.70710677298230451 forward_v I I I I #
coedge $-1 $218 $219 $220 $221 reversed $81 $-1 #
coedge $-1 $134 $83 $222 $223 reversed $52 $-1 #
coedge $-1 $83 $133 $218 $224 reversed $52 $-1 #
coedge $-1 $220 $225 $83 $136 forward $226 $-1 #
edge $-1 $227 15.072080141034547 $228 18.209936550808038 $135 $229 forward 7 unknown #
loop $-1 $-1 $142 $84 #
plane-surface $-1 -72.774437696462925 -18.072005329404703 5.3441136205117203 -0.70710678939079041 0 0.70710677298230451 0.70710677298230451 0 0.70710678939079041 forward_v I I I I #
loop $-1 $-1 $230 $54 #
coedge $-1 $140 $140 $141 $231 reversed $85 $-1 #
coedge $-1 $141 $141 $140 $231 forward $87 $-1 #
coedge $-1 $142 $142 $88 $143 forward $137 $-1 #
edge $-1 $232 0 $232 6.2831853071796004 $142 $233 forward 7 unknown #
loop $-1 $-1 $149 $89 #
plane-surface $-1 -72.774437696462925 -18.072005329404703 5.3441136205117203 -0.70710678939079041 0 0.70710677298230451 0.70710677298230451 0 0.70710678939079041 forward_v I I I I #
loop $-1 $-1 $234 $57 #
coedge $-1 $147 $147 $148 $235 reversed $90 $-1 #
coedge $-1 $148 $148 $147 $235 forward $92 $-1 #
coedge $-1 $149 $149 $93 $150 forward $144 $-1 #
edge $-1 $236 0 $236 6.2831853071796004 $149 $237 forward 7 unknown #
face $-1 $238 $239 $32 $-1 $240 forward single #
loop $-1 $-1 $241 $94 #
plane-surface $-1 69.18208566919904 -26.683283945665895 208.49939866827725 0 1 0 0.69465837861970381 0 0.71933979245794832 forward_v I I I I #
coedge $-1 $242 $243 $244 $245 reversed $95 $-1 #
coedge $-1 $156 $97 $246 $247 reversed $61 $-1 #
coedge $-1 $97 $155 $242 $248 reversed $61 $-1 #
coedge $-1 $244 $249 $97 $158 forward $239 $-1 #
edge $-1 $250 -38.183394861863391 $251 -32.189315752298356 $157 $252 forward 7 unknown #
loop $-1 $-1 $164 $98 #
plane-surface $-1 -31.92466012117211 -22.529686918142467 103.8003008506422 0.69465837861970381 0 0.71933979245794832 0.71933979245794832 0 -0.69465837861970381 forward_v I I I I #
loop $-1 $-1 $253 $63 #
coedge $-1 $162 $162 $163 $254 reversed $99 $-1 #
coedge $-1 $163 $163 $162 $254 forward $101 $-1 #
coedge $-1 $164 $164 $102 $165 forward $159 $-1 #
edge $-1 $255 0 $255 6.2831853071796004 $164 $256 forward 7 unknown #
loop $-1 $-1 $171 $103 #
plane-surface $-1 -31.92466012117211 -22.529686918142467 103.8003008506422 0.69465837861970381 0 0.71933979245794832 0.71933979245794832 0 -0.69465837861970381 forward_v I I I I #
loop $-1 $-1 $257 $66 #
coedge $-1 $169 $169 $170 $258 reversed $104 $-1 #
coedge $-1 $170 $170 $169 $258 forward $106 $-1 #
coedge $-1 $171 $171 $107 $172 forward $166 $-1 #
edge $-1 $259 0 $259 6.2831853071796004 $171 $260 forward 7 unknown #
loop $-1 $-1 $178 $108 #
plane-surface $-1 -31.92466012117211 -22.529686918142467 103.8003008506422 0.69465837861970381 0 0.71933979245794832 0.71933979245794832 0 -0.69465837861970381 forward_v I I I I #
loop $-1 $-1 $261 $69 #
coedge $-1 $176 $176 $177 $262 reversed $109 $-1 #
coedge $-1 $177 $177 $176 $262 forward $111 $-1 #
coedge $-1 $178 $178 $112 $179 forward $173 $-1 #
edge $-1 $263 0 $263 6.2831853071796004 $178 $264 forward 7 unknown #
face $-1 $265 $266 $27 $-1 $267 reversed single #
loop $-1 $-1 $268 $113 #
plane-surface $-1 -72.774437696462911 0 0 1 0 0 0 0 -1 forward_v I I I I #
coedge $-1 $269 $191 $270 $271 forward $114 $-1 #
coedge $-1 $272 $116 $269 $273 forward $73 $-1 #
coedge $-1 $116 $272 $274 $275 forward $73 $-1 #
coedge $-1 $194 $193 $116 $187 reversed $195 $-1 #
edge $-1 $276 -32.33195453383064 $277 32.33195453383064 $186 $278 forward 7 unknown #
coedge $-1 $118 $117 $279 $280 forward $46 $-1 #
coedge $-1 $281 $282 $117 $190 reversed $266 $-1 #
edge $-1 $197 -72.774437696462911 $283 72.774437696462911 $189 $284 forward 7 unknown #
coedge $-1 $183 $285 $118 $192 reversed $114 $-1 #
edge $-1 $286 -72.774437696462911 $196 72.774437696462911 $191 $287 forward 7 unknown #
coedge $-1 $186 $119 $285 $288 forward $195 $-1 #
coedge $-1 $119 $186 $281 $289 reversed $195 $-1 #
loop $-1 $-1 $193 $265 #
vertex $-1 $120 $290 #
vertex $-1 $120 $291 #
straight-curve $-1 72.774437696462911 0 8.4819701030995081 0 1 0 I I #
face $-1 $292 $293 $28 $-1 $294 reversed single #
loop $-1 $-1 $127 $121 #
plane-surface $-1 -66.721667908558643 -35.156289827913014 0 1 0 0 0 0 -1 forward_v I I I I #
coedge $-1 $295 $296 $297 $298 forward $122 $-1 #
coedge $-1 $299 $124 $300 $301 forward $77 $-1 #
coedge $-1 $124 $299 $209 $302 forward $77 $-1 #
edge $-1 $211 -66.721667908558643 $303 -62.279421473447385 $124 $304 forward 7 unknown #
coedge $-1 $126 $125 $305 $306 forward $49 $-1 #
coedge $-1 $307 $308 $125 $208 forward $309 $-1 #
edge $-1 $310 62.279421473447385 $212 66.721667908558643 $207 $311 forward 7 unknown #
coedge $-1 $297 $127 $204 $302 reversed $200 $-1 #
coedge $-1 $127 $297 $307 $312 reversed $200 $-1 #
vertex $-1 $205 $313 #
vertex $-1 $312 $314 #
straight-curve $-1 -66.721667908558643 -32.33195453383064 0 0 0 1 I I #
face $-1 $-1 $226 $29 $-1 $315 forward single #
loop $-1 $-1 $316 $129 #
plane-surface $-1 -72.774437696462911 0 0 1 0 0 0 0 -1 forward_v I I I I #
coedge $-1 $317 $318 $319 $320 reversed $130 $-1 #
coedge $-1 $321 $132 $134 $224 forward $81 $-1 #
coedge $-1 $132 $321 $317 $322 forward $81 $-1 #
coedge $-1 $319 $135 $132 $221 forward $226 $-1 #
edge $-1 $228 -13.494832285512288 $323 -4.577173043892417 $220 $324 forward 7 unknown #
coedge $-1 $325 $326 $133 $223 forward $215 $-1 #
edge $-1 $327 -48.787240984891788 $227 -45.649384502304017 $222 $328 forward 7 unknown #
edge $-1 $228 -4.4375991429685131 $327 -2.0097183471152325e-014 $134 $329 forward 7 unknown #
coedge $-1 $135 $319 $325 $330 forward $226 $-1 #
loop $-1 $-1 $319 $214 #
vertex $-1 $223 $331 #
vertex $-1 $136 $332 #
straight-curve $-1 -87.846517837497458 -22.53083495021464 8.4819701030995063 1 0 0 I I #
coedge $-1 $230 $230 $-1 $333 reversed $139 $-1 #
edge $-1 $334 0 $334 6.2831853071796004 $140 $335 forward 7 unknown #
vertex $-1 $143 $336 #
ellipse-curve $-1 -71.205509491576166 -19.982932309751821 6.9130418618056222 -0.70710678939079041 0 0.70710677298230451 0.70710677298230451 0 0.70710678939079041 1 I I #
coedge $-1 $234 $234 $-1 $337 reversed $146 $-1 #
edge $-1 $338 0 $338 6.2831853071796004 $147 $339 forward 7 unknown #
vertex $-1 $150 $340 #
ellipse-curve $-1 -71.205509491576166 -16.16107834905759 6.9130418618056222 -0.70710678939079041 0 0.70710677298230451 0.70710677298230451 0 0.70710678939079041 1 I I #
face $-1 $-1 $341 $32 $-1 $342 reversed single #
loop $-1 $-1 $157 $151 #
plane-surface $-1 0 0 8.4819701030995081 0 0 1 1 0 0 forward_v I I I I #
coedge $-1 $343 $344 $345 $346 reversed $152 $-1 #
coedge $-1 $347 $154 $156 $248 forward $95 $-1 #
coedge $-1 $154 $347 $343 $348 forward $95 $-1 #
coedge $-1 $345 $157 $154 $245 forward $239 $-1 #
edge $-1 $251 7.111246431547805 $349 15.418440486594662 $244 $350 forward 7 unknown #
coedge $-1 $351 $352 $155 $247 forward $341 $-1 #
edge $-1 $353 -101.55614427386756 $250 -95.767729231039112 $246 $354 forward 7 unknown #
edge $-1 $251 137.21612476184561 $353 145.54887539292577 $156 $355 forward 7 unknown #
coedge $-1 $157 $345 $351 $356 forward $239 $-1 #
vertex $-1 $158 $357 #
vertex $-1 $158 $358 #
straight-curve $-1 34.59104283459952 -18.376089890619038 8.4819701030995134 -1 0 0 I I #
coedge $-1 $253 $253 $-1 $359 reversed $161 $-1 #
edge $-1 $360 0 $360 6.2831853071796004 $162 $361 forward 7 unknown #
vertex $-1 $165 $362 #
ellipse-curve $-1 69.777398141680393 -25.021845134656523 5.5877625816852978 0.69465837861970381 0 0.71933979245794832 0.35966989622897416 0 -0.3473291893098519 1 I I #
coedge $-1 $257 $257 $-1 $363 reversed $168 $-1 #
edge $-1 $364 0 $364 6.2831853071796004 $169 $365 forward 7 unknown #
vertex $-1 $172 $366 #
ellipse-curve $-1 69.777398141680393 -22.529686918142467 5.5877625816852978 0.69465837861970381 0 0.71933979245794832 0.35966989622897416 0 -0.3473291893098519 1 I I #
coedge $-1 $261 $261 $-1 $367 reversed $175 $-1 #
edge $-1 $368 0 $368 6.2831853071796004 $176 $369 forward 7 unknown #
vertex $-1 $179 $370 #
ellipse-curve $-1 69.777398141680393 -20.03752870162841 5.5877625816852978 0.69465837861970381 0 0.71933979245794832 0.35966989622897416 0 -0.3473291893098519 1 I I #
face $-1 $-1 $195 $27 $-1 $371 reversed single #
loop $-1 $-1 $281 $180 #
plane-surface $-1 0 32.33195453383064 0 0 -1 0 0 0 -1 forward_v I I I I #
coedge $-1 $372 $279 $282 $373 forward $181 $-1 #
coedge $-1 $285 $183 $184 $273 reversed $114 $-1 #
coedge $-1 $279 $372 $183 $271 reversed $181 $-1 #
edge $-1 $286 -8.4819701030995081 $374 8.4819701030995081 $270 $375 forward 7 unknown #
coedge $-1 $185 $184 $372 $376 forward $73 $-1 #
edge $-1 $277 -72.774437696462911 $374 72.774437696462911 $269 $377 forward 7 unknown #
coedge $-1 $282 $281 $185 $275 reversed $266 $-1 #
edge $-1 $378 -72.774437696462911 $276 72.774437696462911 $274 $379 forward 7 unknown #
vertex $-1 $187 $380 #
vertex $-1 $288 $381 #
straight-curve $-1 72.774437696462911 0 -8.4819701030995081 0 -1 0 I I #
coedge $-1 $268 $270 $188 $280 reversed $181 $-1 #
edge $-1 $283 -32.33195453383064 $286 32.33195453383064 $279 $382 forward 7 unknown #
coedge $-1 $274 $189 $194 $289 forward $266 $-1 #
coedge $-1 $189 $274 $268 $373 reversed $266 $-1 #
vertex $-1 $190 $383 #
straight-curve $-1 0 32.33195453383064 8.4819701030995081 -1 0 0 I I #
coedge $-1 $191 $269 $193 $288 reversed $114 $-1 #
vertex $-1 $280 $384 #
straight-curve $-1 0 -32.33195453383064 8.4819701030995081 1 0 0 I I #
edge $-1 $196 -8.4819701030995081 $277 8.4819701030995081 $193 $385 forward 7 unknown #
edge $-1 $197 -8.4819701030995081 $276 8.4819701030995081 $194 $386 forward 7 unknown #
point $-1 72.774437696462911 -32.33195453383064 8.4819701030995081 #
point $-1 72.774437696462911 32.33195453383064 8.4819701030995081 #
face $-1 $-1 $309 $28 $-1 $387 forward single #
loop $-1 $-1 $388 $199 #
plane-surface $-1 -62.279421473447385 -35.156289827913014 0 -1 0 0 0 0 1 forward_v I I I I #
coedge $-1 $389 $202 $299 $390 reversed $122 $-1 #
coedge $-1 $202 $389 $391 $392 reversed $122 $-1 #
coedge $-1 $210 $209 $202 $298 reversed $200 $-1 #
edge $-1 $393 -8.4819701030995081 $394 8.4819701030995081 $297 $395 forward 7 unknown #
coedge $-1 $204 $203 $295 $390 forward $77 $-1 #
coedge $-1 $305 $388 $203 $301 reversed $293 $-1 #
edge $-1 $303 -2.824335294082374 $396 2.824335294082374 $300 $397 forward 7 unknown #
edge $-1 $394 -2.824335294082374 $211 2.824335294082374 $209 $398 forward 7 unknown #
vertex $-1 $301 $399 #
straight-curve $-1 0 -32.33195453383064 -8.4819701030995081 1 0 0 I I #
coedge $-1 $400 $300 $206 $306 reversed $293 $-1 #
edge $-1 $310 -8.4819701030995081 $303 8.4819701030995081 $305 $401 forward 7 unknown #
coedge $-1 $391 $207 $210 $312 forward $309 $-1 #
coedge $-1 $207 $391 $400 $402 forward $309 $-1 #
loop $-1 $-1 $207 $292 #
vertex $-1 $208 $403 #
straight-curve $-1 0 -32.33195453383064 8.4819701030995081 -1 0 0 I I #
edge $-1 $212 -2.824335294082374 $393 2.824335294082374 $210 $404 forward 7 unknown #
point $-1 -66.721667908558643 -32.33195453383064 -8.4819701030995081 #
point $-1 -66.721667908558643 -32.33195453383064 8.4819701030995081 #
plane-surface $-1 0 0 8.4819701030995081 0 0 1 1 0 0 forward_v I I I I #
coedge $-1 $326 $325 $318 $405 forward $215 $-1 #
coedge $-1 $318 $217 $219 $322 reversed $130 $-1 #
coedge $-1 $217 $317 $316 $405 reversed $130 $-1 #
coedge $-1 $225 $220 $217 $320 forward $226 $-1 #
edge $-1 $323 -18.209936550808038 $406 -15.072080141034547 $319 $407 forward 7 unknown #
coedge $-1 $219 $218 $326 $408 reversed $81 $-1 #
edge $-1 $409 2.0097183471152325e-014 $323 4.4375991429685131 $317 $410 forward 7 unknown #
vertex $-1 $221 $411 #
straight-curve $-1 -69.63658128668942 -9.0360026647023517 8.4819701030995063 0 1 0 I I #
coedge $-1 $316 $222 $225 $330 reversed $215 $-1 #
coedge $-1 $222 $316 $321 $408 forward $215 $-1 #
vertex $-1 $223 $412 #
straight-curve $-1 -72.774437696462911 -22.53083495021464 54.131354605403523 0 0 1 I I #
straight-curve $-1 -72.774437696462925 -22.53083495021464 5.3441136205117203 -0.70710677298230451 0 -0.70710678939079041 I I #
edge $-1 $406 13.613175708594769 $227 22.53083495021464 $325 $413 forward 7 unknown #
point $-1 -72.774437696462911 -22.53083495021464 8.4819701030995081 #
point $-1 -69.63658128668942 -22.53083495021464 8.4819701030995081 #
edge $-1 $414 1 $414 0 $230 $-1 forward 7 unknown #
vertex $-1 $231 $415 #
ellipse-curve $-1 -68.454769776922234 -19.982932309751821 4.1623022109828858 -0.70710678939079041 0 0.70710677298230451 0.70710677298230451 0 0.70710678939079041 1 I I #
point $-1 -70.498402718593852 -19.982932309751821 7.6201486511964056 #
edge $-1 $416 1 $416 0 $234 $-1 forward 7 unknown #
vertex $-1 $235 $417 #
ellipse-curve $-1 -68.454769776922234 -16.16107834905759 4.1623022109828858 -0.70710678939079041 0 0.70710677298230451 0.70710677298230451 0 0.70710678939079041 1 I I #
point $-1 -70.498402718593852 -16.16107834905759 7.6201486511964056 #
loop $-1 $-1 $246 $238 #
plane-surface $-1 72.774437696462911 0 0 -1 0 0 0 0 1 forward_v I I I I #
coedge $-1 $344 $241 $243 $348 reversed $152 $-1 #
coedge $-1 $241 $343 $418 $419 reversed $152 $-1 #
coedge $-1 $249 $244 $241 $346 forward $239 $-1 #
edge $-1 $349 32.189315752298356 $420 38.183394861863391 $345 $421 forward 7 unknown #
coedge $-1 $243 $242 $352 $422 reversed $95 $-1 #
edge $-1 $423 -145.54887539292577 $349 -137.21612476184561 $343 $424 forward 7 unknown #
vertex $-1 $245 $425 #
straight-curve $-1 66.780358586897876 -11.264843459071233 8.4819701030995134 0 -1 0 I I #
coedge $-1 $418 $246 $249 $356 reversed $341 $-1 #
coedge $-1 $246 $418 $347 $422 forward $341 $-1 #
vertex $-1 $247 $426 #
straight-curve $-1 72.774437696462911 -18.376089890619038 104.24969933413863 0 0 1 I I #
straight-curve $-1 -31.92466012117211 -18.376089890619038 103.8003008506422 0.71933979245794832 0 -0.69465837861970381 I I #
edge $-1 $420 -26.683283945665895 $250 -18.376089890619038 $351 $427 forward 7 unknown #
point $-1 72.774437696462911 -18.376089890619038 8.4819701030995081 #
point $-1 66.780358586897876 -18.376089890619038 8.4819701030995276 #
edge $-1 $428 1 $428 0 $253 $-1 forward 7 unknown #
vertex $-1 $254 $429 #
ellipse-curve $-1 68.958190125486567 -25.021845134656523 4.7394478668758664 0.69465837861970381 0 0.71933979245794832 0.35966989622897416 0 -0.3473291893098519 1 I I #
point $-1 70.137068037909359 -25.021845134656523 5.2404333923754276 #
edge $-1 $430 1 $430 0 $257 $-1 forward 7 unknown #
vertex $-1 $258 $431 #
ellipse-curve $-1 68.958190125486567 -22.529686918142467 4.7394478668758664 0.69465837861970381 0 0.71933979245794832 0.35966989622897416 0 -0.3473291893098519 1 I I #
point $-1 70.137068037909359 -22.529686918142467 5.2404333923754276 #
edge $-1 $432 1 $432 0 $261 $-1 forward 7 unknown #
vertex $-1 $262 $433 #
ellipse-curve $-1 68.958190125486567 -20.03752870162841 4.7394478668758664 0.69465837861970381 0 0.71933979245794832 0.35966989622897416 0 -0.3473291893098519 1 I I #
point $-1 70.137068037909359 -20.03752870162841 5.2404333923754276 #
plane-surface $-1 72.774437696462911 0 0 -1 0 0 0 0 1 forward_v I I I I #
coedge $-1 $270 $268 $272 $376 reversed $181 $-1 #
edge $-1 $283 -8.4819701030995081 $378 8.4819701030995081 $282 $434 forward 7 unknown #
vertex $-1 $376 $435 #
straight-curve $-1 -72.774437696462911 -32.33195453383064 0 0 0 -1 I I #
edge $-1 $374 -32.33195453383064 $378 32.33195453383064 $372 $436 forward 7 unknown #
straight-curve $-1 0 -32.33195453383064 -8.4819701030995081 -1 0 0 I I #
vertex $-1 $275 $437 #
straight-curve $-1 0 32.33195453383064 -8.4819701030995081 1 0 0 I I #
point $-1 72.774437696462911 32.33195453383064 -8.4819701030995081 #
point $-1 72.774437696462911 -32.33195453383064 -8.4819701030995081 #
straight-curve $-1 -72.774437696462911 0 8.4819701030995081 0 -1 0 I I #
point $-1 -72.774437696462911 32.33195453383064 8.4819701030995081 #
point $-1 -72.774437696462911 -32.33195453383064 8.4819701030995081 #
straight-curve $-1 72.774437696462911 -32.33195453383064 0 0 0 -1 I I #
straight-curve $-1 72.774437696462911 32.33195453383064 0 0 0 -1 I I #
plane-surface $-1 0 0 8.4819701030995081 0 0 1 1 0 0 forward_v I I I I #
coedge $-1 $300 $400 $389 $438 forward $293 $-1 #
coedge $-1 $296 $295 $388 $438 reversed $122 $-1 #
edge $-1 $396 -2.221123217555629 $394 2.221123217555629 $295 $439 forward 7 unknown #
coedge $-1 $308 $307 $296 $392 forward $309 $-1 #
edge $-1 $393 -2.221123217555629 $440 2.221123217555629 $296 $441 forward 7 unknown #
vertex $-1 $312 $442 #
vertex $-1 $302 $443 #
straight-curve $-1 -66.721667908558643 -37.980625121995388 0 0 0 -1 I I #
vertex $-1 $438 $444 #
straight-curve $-1 -62.279421473447385 -35.156289827913014 -8.4819701030995081 0 -1 0 I I #
straight-curve $-1 -66.721667908558643 -35.156289827913014 -8.4819701030995081 0 1 0 I I #
point $-1 -62.279421473447385 -32.33195453383064 -8.4819701030995081 #
coedge $-1 $388 $305 $308 $402 reversed $293 $-1 #
straight-curve $-1 -62.279421473447385 -32.33195453383064 0 0 0 -1 I I #
edge $-1 $440 -2.824335294082374 $310 2.824335294082374 $400 $445 forward 7 unknown #
point $-1 -62.279421473447385 -32.33195453383064 8.4819701030995081 #
straight-curve $-1 -66.721667908558643 -35.156289827913014 8.4819701030995081 0 -1 0 I I #
edge $-1 $406 45.649384502304017 $409 48.787240984891788 $316 $446 forward 7 unknown #
vertex $-1 $330 $447 #
straight-curve $-1 -87.846517837497458 -13.613175708594769 8.4819701030995063 -1 0 0 I I #
edge $-1 $409 4.577173043892417 $327 13.494832285512288 $326 $448 forward 7 unknown #
vertex $-1 $408 $449 #
straight-curve $-1 -72.774437696462925 -13.613175708594769 5.3441136205117203 0.70710677298230451 0 0.70710678939079041 I I #
point $-1 -69.63658128668942 -13.613175708594769 8.4819701030995081 #
point $-1 -72.774437696462911 -22.53083495021464 5.3441136205117346 #
straight-curve $-1 -72.774437696462911 0 8.4819701030995081 0 -1 0 I I #
vertex $-1 $333 $450 #
point $-1 -67.747663003939934 -19.982932309751821 4.8694090003736754 #
vertex $-1 $337 $451 #
point $-1 -67.747663003939934 -16.16107834905759 4.8694090003736754 #
coedge $-1 $352 $351 $344 $419 forward $341 $-1 #
edge $-1 $420 95.767729231039112 $423 101.55614427386756 $418 $452 forward 7 unknown #
vertex $-1 $356 $453 #
straight-curve $-1 34.59104283459952 -26.683283945665895 8.4819701030995134 1 0 0 I I #
edge $-1 $423 -15.418440486594662 $353 -7.111246431547805 $352 $454 forward 7 unknown #
vertex $-1 $422 $455 #
straight-curve $-1 -31.92466012117211 -26.683283945665895 103.8003008506422 -0.71933979245794832 0 0.69465837861970381 I I #
point $-1 66.780358586897876 -26.683283945665895 8.4819701030995276 #
point $-1 72.774437696462911 -18.376089890619038 2.6935550602710663 #
straight-curve $-1 72.774437696462911 0 8.4819701030995081 0 1 0 I I #
vertex $-1 $359 $456 #
point $-1 69.317860021715546 -25.021845134656523 4.3921186775660148 #
vertex $-1 $363 $457 #
point $-1 69.317860021715546 -22.529686918142467 4.3921186775660148 #
vertex $-1 $367 $458 #
point $-1 69.317860021715546 -20.03752870162841 4.3921186775660148 #
straight-curve $-1 -72.774437696462911 32.33195453383064 0 0 0 -1 I I #
point $-1 -72.774437696462911 -32.33195453383064 -8.4819701030995081 #
straight-curve $-1 -72.774437696462911 0 -8.4819701030995081 0 1 0 I I #
point $-1 -72.774437696462911 32.33195453383064 -8.4819701030995081 #
edge $-1 $440 -8.4819701030995081 $396 8.4819701030995081 $388 $459 forward 7 unknown #
straight-curve $-1 -64.500544691003014 -37.980625121995388 -8.4819701030995081 -1 0 0 I I #
vertex $-1 $402 $460 #
straight-curve $-1 -64.500544691003014 -37.980625121995388 8.4819701030995081 1 0 0 I I #
point $-1 -66.721667908558643 -37.980625121995388 8.4819701030995081 #
point $-1 -66.721667908558643 -37.980625121995388 -8.4819701030995081 #
point $-1 -62.279421473447385 -37.980625121995388 -8.4819701030995081 #
straight-curve $-1 -62.279421473447385 -35.156289827913014 8.4819701030995081 0 1 0 I I #
straight-curve $-1 -72.774437696462911 -13.613175708594769 54.131354605403523 0 0 -1 I I #
point $-1 -72.774437696462911 -13.613175708594769 8.4819701030995081 #
straight-curve $-1 -72.774437696462911 -9.0360026647023517 5.3441136205117274 0 -1 0 I I #
point $-1 -72.774437696462911 -13.613175708594769 5.3441136205117346 #
point $-1 -67.747662987531442 -19.982932309751821 3.4551954380005809 #
point $-1 -67.747662987531442 -16.16107834905759 3.4551954380005809 #
straight-curve $-1 72.774437696462911 -26.683283945665895 104.24969933413863 0 0 -1 I I #
point $-1 72.774437696462911 -26.683283945665895 8.4819701030995081 #
straight-curve $-1 72.774437696462911 -11.264843459071233 2.6935550602710663 0 1 0 I I #
point $-1 72.774437696462911 -26.683283945665895 2.6935550602710663 #
point $-1 68.610860936176721 -25.021845134656523 4.3797779706468924 #
point $-1 68.610860936176721 -22.529686918142467 4.3797779706468924 #
point $-1 68.610860936176721 -20.03752870162841 4.3797779706468924 #
straight-curve $-1 -62.279421473447385 -37.980625121995388 0 0 0 -1 I I #
point $-1 -62.279421473447385 -37.980625121995388 8.4819701030995081 #
End-of-ACIS-data 