500 0 5 0           
7 Unknown 11 ACIS 5.0 NT 24 Thu Mar 25 16:59:20 1999 
-1 9.9999999999999995e-007 1e-010 
body $-1 $5 $-1 $6 #
body $-1 $7 $-1 $8 #
body $-1 $9 $-1 $10 #
body $-1 $11 $-1 $12 #
body $-1 $13 $-1 $14 #
lump $-1 $-1 $15 $0 #
transform $-1 1 0 0 0 1 0 0 0 1 75.566270943327126 42.200373405098077 11.442538456138031 1 rotate no_reflect no_shear #
lump $-1 $-1 $16 $1 #
transform $-1 1 0 0 0 1 0 0 0 1 75.566270943327126 42.200373405098077 11.442538456138031 1 rotate no_reflect no_shear #
lump $-1 $-1 $17 $2 #
transform $-1 1 0 0 0 1 0 0 0 1 75.566270943327126 42.200373405098077 11.442538456138031 1 rotate no_reflect no_shear #
lump $-1 $-1 $18 $3 #
transform $-1 1 0 0 0 1 0 0 0 1 75.566270943327126 42.200373405098077 11.442538456138031 1 rotate no_reflect no_shear #
lump $-1 $-1 $19 $4 #
transform $-1 1 0 0 0 1 0 0 0 1 75.566270943327126 42.200373405098077 11.442538456138031 1 rotate no_reflect no_shear #
shell $-1 $-1 $-1 $20 $-1 $5 #
shell $-1 $-1 $-1 $21 $-1 $7 #
shell $-1 $-1 $-1 $22 $-1 $9 #
shell $-1 $-1 $-1 $23 $-1 $11 #
shell $-1 $-1 $-1 $24 $-1 $13 #
face $-1 $25 $26 $15 $-1 $27 forward single #
face $-1 $28 $29 $16 $-1 $30 forward single #
face $-1 $31 $32 $17 $-1 $33 reversed single #
face $-1 $34 $35 $18 $-1 $36 forward single #
face $-1 $37 $38 $19 $-1 $39 forward single #
face $-1 $40 $41 $15 $-1 $42 reversed single #
loop $-1 $-1 $43 $20 #
plane-surface $-1 0 0 11.442538456138031 0 0 1 1 0 0 forward_v I I I I #
face $-1 $44 $45 $16 $-1 $46 reversed single #
loop $-1 $-1 $47 $21 #
plane-surface $-1 0 -42.200373405098077 0 0 1 0 0 0 1 forward_v I I I I #
face $-1 $48 $49 $17 $-1 $50 reversed single #
loop $-1 $-1 $51 $22 #
plane-surface $-1 -31.521653424536041 98.038619006972766 165.97812174628848 -1 0 0 0 0.74314483375859142 0.66913059716165679 forward_v I I I I #
face $-1 $52 $53 $18 $-1 $54 forward single #
loop $-1 $55 $56 $23 #
cone-surface $-1 -62.982094509386812 36.526700203222894 5.4525163802571832 0 -0.74314483375859142 -0.66913059716165679 1.5 0 0 1 I I 0 1 1.5 forward I I I I #
face $-1 $57 $58 $19 $-1 $59 forward single #
loop $-1 $60 $61 $24 #
cone-surface $-1 -44.105829858476355 36.526700203222894 5.4525163802571832 0 -0.74314483375859142 -0.66913059716165679 1.5 0 0 1 I I 0 1 1.5 forward I I I I #
face $-1 $62 $63 $15 $-1 $64 reversed single #
loop $-1 $-1 $65 $25 #
plane-surface $-1 0 0 -11.442538456138031 0 0 1 1 0 0 forward_v I I I I #
coedge $-1 $66 $67 $68 $69 forward $26 $-1 #
face $-1 $70 $71 $16 $-1 $72 reversed single #
loop $-1 $-1 $73 $28 #
plane-surface $-1 0 0 -11.442538456138031 0 0 1 1 0 0 forward_v I I I I #
coedge $-1 $74 $75 $76 $77 forward $29 $-1 #
face $-1 $78 $79 $17 $-1 $80 reversed single #
loop $-1 $-1 $81 $31 #
plane-surface $-1 -53.543962183931583 -14.274748708898258 64.850713743112408 0 0.74314483375859142 0.66913059716165679 1 0 0 forward_v I I I I #
coedge $-1 $82 $83 $84 $85 reversed $32 $-1 #
face $-1 $-1 $86 $18 $-1 $87 forward single #
loop $-1 $88 $89 $34 #
cone-surface $-1 -62.982094509386812 34.488761517976684 3.6175481916999885 0 -0.74314483375859142 -0.66913059716165679 0.75 0 0 1 I I -0.70710678118654757 0.70710678118654757 0.75 forward I I I I #
loop $-1 $-1 $90 $23 #
coedge $-1 $56 $56 $91 $92 reversed $35 $-1 #
face $-1 $-1 $93 $19 $-1 $94 forward single #
loop $-1 $95 $96 $37 #
cone-surface $-1 -44.105829858476355 34.488761517976684 3.6175481916999885 0 -0.74314483375859142 -0.66913059716165679 0.75 0 0 1 I I -0.70710678118654757 0.70710678118654757 0.75 forward I I I I #
loop $-1 $-1 $97 $24 #
coedge $-1 $61 $61 $98 $99 reversed $38 $-1 #
face $-1 $100 $101 $15 $-1 $102 reversed single #
loop $-1 $-1 $103 $40 #
plane-surface $-1 0 -42.200373405098077 0 0 1 0 0 0 1 forward_v I I I I #
coedge $-1 $104 $105 $106 $107 forward $41 $-1 #
coedge $-1 $108 $43 $109 $110 forward $26 $-1 #
coedge $-1 $43 $108 $111 $112 forward $26 $-1 #
coedge $-1 $113 $114 $43 $69 reversed $115 $-1 #
edge $-1 $116 -42.200373405098077 $117 42.200373405098077 $68 $118 forward 7 unknown #
face $-1 $119 $120 $16 $-1 $121 reversed single #
loop $-1 $-1 $122 $44 #
plane-surface $-1 -54.181194031051064 -56.289037728743565 0 0 1 0 0 0 1 forward_v I I I I #
coedge $-1 $123 $124 $75 $125 forward $45 $-1 #
coedge $-1 $126 $47 $127 $128 reversed $29 $-1 #
coedge $-1 $47 $126 $73 $125 reversed $29 $-1 #
coedge $-1 $129 $130 $47 $77 reversed $120 $-1 #
edge $-1 $131 -11.442538456138031 $132 11.442538456138031 $76 $133 forward 7 unknown #
face $-1 $134 $135 $17 $-1 $136 forward single #
loop $-1 $-1 $137 $48 #
plane-surface $-1 -75.566270943327126 0 0 1 0 0 0 0 -1 forward_v I I I I #
coedge $-1 $138 $139 $140 $141 reversed $49 $-1 #
coedge $-1 $83 $51 $142 $143 reversed $32 $-1 #
coedge $-1 $51 $82 $138 $144 reversed $32 $-1 #
coedge $-1 $140 $145 $51 $85 forward $146 $-1 #
edge $-1 $147 71.546522417006202 $148 80.860326087396004 $84 $149 forward 7 unknown #
loop $-1 $-1 $91 $52 #
plane-surface $-1 -53.543962183931583 -14.274748708898258 64.850713743112408 0 0.74314483375859142 0.66913059716165679 1 0 0 forward_v I I I I #
loop $-1 $-1 $150 $34 #
coedge $-1 $89 $89 $90 $151 reversed $53 $-1 #
coedge $-1 $90 $90 $89 $151 forward $55 $-1 #
coedge $-1 $91 $91 $56 $92 forward $86 $-1 #
edge $-1 $152 4.4003013603734533e-016 $152 6.2831853071796004 $91 $153 forward 7 unknown #
loop $-1 $-1 $98 $57 #
plane-surface $-1 -53.543962183931583 -14.274748708898258 64.850713743112408 0 0.74314483375859142 0.66913059716165679 1 0 0 forward_v I I I I #
loop $-1 $-1 $154 $37 #
coedge $-1 $96 $96 $97 $155 reversed $58 $-1 #
coedge $-1 $97 $97 $96 $155 forward $60 $-1 #
coedge $-1 $98 $98 $61 $99 forward $93 $-1 #
edge $-1 $156 4.4003013603734533e-016 $156 6.2831853071796004 $98 $157 forward 7 unknown #
face $-1 $158 $159 $15 $-1 $160 reversed single #
loop $-1 $-1 $161 $62 #
plane-surface $-1 -75.566270943327126 0 0 1 0 0 0 0 -1 forward_v I I I I #
coedge $-1 $162 $111 $163 $164 forward $63 $-1 #
coedge $-1 $165 $65 $162 $166 forward $41 $-1 #
coedge $-1 $65 $165 $167 $168 forward $41 $-1 #
coedge $-1 $114 $113 $65 $107 reversed $115 $-1 #
edge $-1 $169 -42.200373405098077 $170 42.200373405098077 $106 $171 forward 7 unknown #
coedge $-1 $67 $66 $172 $173 forward $26 $-1 #
coedge $-1 $174 $175 $66 $110 reversed $159 $-1 #
edge $-1 $117 -75.566270943327126 $176 75.566270943327126 $109 $177 forward 7 unknown #
coedge $-1 $103 $178 $67 $112 reversed $63 $-1 #
edge $-1 $179 -75.566270943327126 $116 75.566270943327126 $111 $180 forward 7 unknown #
coedge $-1 $106 $68 $178 $181 forward $115 $-1 #
coedge $-1 $68 $106 $174 $182 reversed $115 $-1 #
loop $-1 $-1 $113 $158 #
vertex $-1 $69 $183 #
vertex $-1 $69 $184 #
straight-curve $-1 75.566270943327126 0 11.442538456138031 0 1 0 I I #
face $-1 $185 $186 $16 $-1 $187 reversed single #
loop $-1 $-1 $76 $70 #
plane-surface $-1 -55.681194031051064 -49.244705566920821 0 1 0 0 0 0 -1 forward_v I I I I #
coedge $-1 $188 $189 $190 $191 forward $71 $-1 #
coedge $-1 $192 $73 $193 $194 forward $45 $-1 #
coedge $-1 $73 $192 $129 $195 forward $45 $-1 #
edge $-1 $131 -55.681194031051064 $196 -52.681194031051064 $73 $197 forward 7 unknown #
coedge $-1 $75 $74 $198 $199 forward $29 $-1 #
coedge $-1 $200 $201 $74 $128 forward $202 $-1 #
edge $-1 $203 52.681194031051064 $132 55.681194031051064 $127 $204 forward 7 unknown #
coedge $-1 $190 $76 $124 $195 reversed $120 $-1 #
coedge $-1 $76 $190 $200 $205 reversed $120 $-1 #
vertex $-1 $125 $206 #
vertex $-1 $205 $207 #
straight-curve $-1 -55.681194031051064 -42.200373405098077 0 0 0 1 I I #
face $-1 $-1 $146 $17 $-1 $208 reversed single #
loop $-1 $-1 $142 $78 #
plane-surface $-1 0 0 11.442538456138031 0 0 1 1 0 0 forward_v I I I I #
coedge $-1 $209 $210 $139 $211 forward $79 $-1 #
coedge $-1 $212 $81 $83 $144 forward $49 $-1 #
coedge $-1 $81 $212 $137 $211 reversed $49 $-1 #
coedge $-1 $213 $84 $81 $141 forward $146 $-1 #
edge $-1 $148 4.749672332570249 $214 48.794289851361334 $140 $215 forward 7 unknown #
coedge $-1 $216 $217 $82 $143 forward $135 $-1 #
edge $-1 $218 -15.205122382284145 $147 -6.8189360983883063 $142 $219 forward 7 unknown #
edge $-1 $148 -84.400746810196125 $218 -71.867787893852011 $83 $220 forward 7 unknown #
coedge $-1 $84 $213 $216 $221 reversed $146 $-1 #
loop $-1 $-1 $140 $134 #
vertex $-1 $221 $222 #
vertex $-1 $85 $223 #
straight-curve $-1 -31.521653424536041 42.200373405098077 82.98906087314424 0 0 -1 I I #
coedge $-1 $150 $150 $-1 $224 reversed $88 $-1 #
edge $-1 $225 0 $225 6.2831853071796004 $89 $226 forward 7 unknown #
vertex $-1 $92 $227 #
ellipse-curve $-1 -62.982094509386812 38.007280263150165 6.7856366209431345 0 0.74314483375859142 0.66913059716165679 1.5 0 0 1 I I #
coedge $-1 $154 $154 $-1 $228 reversed $95 $-1 #
edge $-1 $229 0 $229 6.2831853071796004 $96 $230 forward 7 unknown #
vertex $-1 $99 $231 #
ellipse-curve $-1 -44.105829858476355 38.007280263150165 6.7856366209431345 0 0.74314483375859142 0.66913059716165679 1.5 0 0 1 I I #
face $-1 $-1 $115 $15 $-1 $232 reversed single #
loop $-1 $-1 $174 $100 #
plane-surface $-1 0 42.200373405098077 0 0 -1 0 0 0 -1 forward_v I I I I #
coedge $-1 $233 $172 $175 $234 forward $101 $-1 #
coedge $-1 $178 $103 $104 $166 reversed $63 $-1 #
coedge $-1 $172 $233 $103 $164 reversed $101 $-1 #
edge $-1 $179 -11.442538456138031 $235 11.442538456138031 $163 $236 forward 7 unknown #
coedge $-1 $105 $104 $233 $237 forward $41 $-1 #
edge $-1 $170 -75.566270943327126 $235 75.566270943327126 $162 $238 forward 7 unknown #
coedge $-1 $175 $174 $105 $168 reversed $159 $-1 #
edge $-1 $239 -75.566270943327126 $169 75.566270943327126 $167 $240 forward 7 unknown #
vertex $-1 $107 $241 #
vertex $-1 $181 $242 #
straight-curve $-1 75.566270943327126 0 -11.442538456138031 0 -1 0 I I #
coedge $-1 $161 $163 $108 $173 reversed $101 $-1 #
edge $-1 $176 -42.200373405098077 $179 42.200373405098077 $172 $243 forward 7 unknown #
coedge $-1 $167 $109 $114 $182 forward $159 $-1 #
coedge $-1 $109 $167 $161 $234 reversed $159 $-1 #
vertex $-1 $110 $244 #
straight-curve $-1 0 42.200373405098077 11.442538456138031 -1 0 0 I I #
coedge $-1 $111 $162 $113 $181 reversed $63 $-1 #
vertex $-1 $173 $245 #
straight-curve $-1 0 -42.200373405098077 11.442538456138031 1 0 0 I I #
edge $-1 $116 -11.442538456138031 $170 11.442538456138031 $113 $246 forward 7 unknown #
edge $-1 $117 -11.442538456138031 $169 11.442538456138031 $114 $247 forward 7 unknown #
point $-1 75.566270943327126 -42.200373405098077 11.442538456138031 #
point $-1 75.566270943327126 42.200373405098077 11.442538456138031 #
face $-1 $-1 $202 $16 $-1 $248 forward single #
loop $-1 $-1 $249 $119 #
plane-surface $-1 -52.681194031051064 -49.244705566920821 0 -1 0 0 0 0 1 forward_v I I I I #
coedge $-1 $250 $122 $192 $251 reversed $71 $-1 #
coedge $-1 $122 $250 $252 $253 reversed $71 $-1 #
coedge $-1 $130 $129 $122 $191 reversed $120 $-1 #
edge $-1 $254 -11.442538456138031 $255 11.442538456138031 $190 $256 forward 7 unknown #
coedge $-1 $124 $123 $188 $251 forward $45 $-1 #
coedge $-1 $198 $249 $123 $194 reversed $186 $-1 #
edge $-1 $196 -7.0443321618227444 $257 7.0443321618227444 $193 $258 forward 7 unknown #
edge $-1 $255 -7.0443321618227444 $131 7.0443321618227444 $129 $259 forward 7 unknown #
vertex $-1 $194 $260 #
straight-curve $-1 0 -42.200373405098077 -11.442538456138031 1 0 0 I I #
coedge $-1 $261 $193 $126 $199 reversed $186 $-1 #
edge $-1 $203 -11.442538456138031 $196 11.442538456138031 $198 $262 forward 7 unknown #
coedge $-1 $252 $127 $130 $205 forward $202 $-1 #
coedge $-1 $127 $252 $261 $263 forward $202 $-1 #
loop $-1 $-1 $127 $185 #
vertex $-1 $128 $264 #
straight-curve $-1 0 -42.200373405098077 11.442538456138031 -1 0 0 I I #
edge $-1 $132 -7.0443321618227444 $254 7.0443321618227444 $130 $265 forward 7 unknown #
point $-1 -55.681194031051064 -42.200373405098077 -11.442538456138031 #
point $-1 -55.681194031051064 -42.200373405098077 11.442538456138031 #
plane-surface $-1 0 42.200373405098077 0 0 -1 0 0 0 -1 forward_v I I I I #
coedge $-1 $210 $137 $266 $267 reversed $79 $-1 #
coedge $-1 $137 $209 $213 $268 forward $79 $-1 #
edge $-1 $214 -55.52817480436164 $269 -42.99521588801754 $137 $270 forward 7 unknown #
coedge $-1 $139 $138 $217 $271 reversed $49 $-1 #
coedge $-1 $145 $140 $210 $268 reversed $146 $-1 #
vertex $-1 $211 $272 #
straight-curve $-1 -26.771981091965792 42.200373405098077 2.1287347857482359 -1 0 0 I I #
coedge $-1 $266 $142 $145 $221 forward $135 $-1 #
coedge $-1 $142 $266 $212 $271 forward $135 $-1 #
vertex $-1 $143 $273 #
straight-curve $-1 -31.521653424536041 49.019309503486383 11.442538456138038 0 1 0 I I #
straight-curve $-1 -31.521653424536041 -14.274748708898258 64.850713743112408 0 -0.66913059716165679 0.74314483375859142 I I #
edge $-1 $147 31.521653424536041 $274 75.566270943327126 $145 $275 forward 7 unknown #
point $-1 -31.521653424536041 42.200373405098077 11.442538456138031 #
point $-1 -31.521653424536041 42.200373405098077 2.128734785748243 #
edge $-1 $276 1 $276 0 $150 $-1 forward 7 unknown #
vertex $-1 $151 $277 #
ellipse-curve $-1 -62.982094509386812 35.046120143295624 4.1193961395712311 0 0.74314483375859142 0.66913059716165679 1.5 0 0 1 I I #
point $-1 -61.482094509386812 38.007280263150165 6.7856366209431336 #
edge $-1 $278 1 $278 0 $154 $-1 forward 7 unknown #
vertex $-1 $155 $279 #
ellipse-curve $-1 -44.105829858476355 35.046120143295624 4.1193961395712311 0 0.74314483375859142 0.66913059716165679 1.5 0 0 1 I I #
point $-1 -42.605829858476355 38.007280263150165 6.7856366209431336 #
plane-surface $-1 75.566270943327126 0 0 -1 0 0 0 0 1 forward_v I I I I #
coedge $-1 $163 $161 $165 $237 reversed $101 $-1 #
edge $-1 $176 -11.442538456138031 $239 11.442538456138031 $175 $280 forward 7 unknown #
vertex $-1 $237 $281 #
straight-curve $-1 -75.566270943327126 -42.200373405098077 0 0 0 -1 I I #
edge $-1 $235 -42.200373405098077 $239 42.200373405098077 $233 $282 forward 7 unknown #
straight-curve $-1 0 -42.200373405098077 -11.442538456138031 -1 0 0 I I #
vertex $-1 $168 $283 #
straight-curve $-1 0 42.200373405098077 -11.442538456138031 1 0 0 I I #
point $-1 75.566270943327126 42.200373405098077 -11.442538456138031 #
point $-1 75.566270943327126 -42.200373405098077 -11.442538456138031 #
straight-curve $-1 -75.566270943327126 0 11.442538456138031 0 -1 0 I I #
point $-1 -75.566270943327126 42.200373405098077 11.442538456138031 #
point $-1 -75.566270943327126 -42.200373405098077 11.442538456138031 #
straight-curve $-1 75.566270943327126 -42.200373405098077 0 0 0 -1 I I #
straight-curve $-1 75.566270943327126 42.200373405098077 0 0 0 -1 I I #
plane-surface $-1 0 0 11.442538456138031 0 0 1 1 0 0 forward_v I I I I #
coedge $-1 $193 $261 $250 $284 forward $186 $-1 #
coedge $-1 $189 $188 $249 $284 reversed $71 $-1 #
edge $-1 $257 -1.5 $255 1.5 $188 $285 forward 7 unknown #
coedge $-1 $201 $200 $189 $253 forward $202 $-1 #
edge $-1 $254 -1.5 $286 1.5 $189 $287 forward 7 unknown #
vertex $-1 $205 $288 #
vertex $-1 $195 $289 #
straight-curve $-1 -55.681194031051064 -56.289037728743565 0 0 0 -1 I I #
vertex $-1 $284 $290 #
straight-curve $-1 -52.681194031051064 -49.244705566920821 -11.442538456138031 0 -1 0 I I #
straight-curve $-1 -55.681194031051064 -49.244705566920821 -11.442538456138031 0 1 0 I I #
point $-1 -52.681194031051064 -42.200373405098077 -11.442538456138031 #
coedge $-1 $249 $198 $201 $263 reversed $186 $-1 #
straight-curve $-1 -52.681194031051064 -42.200373405098077 0 0 0 -1 I I #
edge $-1 $286 -7.0443321618227444 $203 7.0443321618227444 $261 $291 forward 7 unknown #
point $-1 -52.681194031051064 -42.200373405098077 11.442538456138031 #
straight-curve $-1 -55.681194031051064 -49.244705566920821 11.442538456138031 0 -1 0 I I #
coedge $-1 $217 $216 $209 $267 forward $135 $-1 #
edge $-1 $274 -42.200373405098077 $269 -33.814187121202238 $209 $292 forward 7 unknown #
edge $-1 $274 -11.442538456138031 $214 -2.1287347857482457 $213 $293 forward 7 unknown #
vertex $-1 $211 $294 #
straight-curve $-1 -75.566270943327126 5.0447726389587011 43.394211019653582 0 -0.66913059716165679 0.74314483375859142 I I #
edge $-1 $269 -48.794289851361334 $218 -4.749672332570249 $217 $295 forward 7 unknown #
point $-1 -75.566270943327126 42.200373405098077 2.1287347857482457 #
point $-1 -31.521653424536041 33.814187121202238 11.442538456138038 #
vertex $-1 $221 $296 #
straight-curve $-1 0 42.200373405098077 11.442538456138031 -1 0 0 I I #
vertex $-1 $224 $297 #
point $-1 -61.482094509386812 35.046120143295624 4.1193961395712311 #
vertex $-1 $228 $298 #
point $-1 -42.605829858476355 35.046120143295624 4.1193961395712311 #
straight-curve $-1 -75.566270943327126 42.200373405098077 0 0 0 -1 I I #
point $-1 -75.566270943327126 -42.200373405098077 -11.442538456138031 #
straight-curve $-1 -75.566270943327126 0 -11.442538456138031 0 1 0 I I #
point $-1 -75.566270943327126 42.200373405098077 -11.442538456138031 #
edge $-1 $286 -11.442538456138031 $257 11.442538456138031 $249 $299 forward 7 unknown #
straight-curve $-1 -54.181194031051064 -56.289037728743565 -11.442538456138031 -1 0 0 I I #
vertex $-1 $263 $300 #
straight-curve $-1 -54.181194031051064 -56.289037728743565 11.442538456138031 1 0 0 I I #
point $-1 -55.681194031051064 -56.289037728743565 11.442538456138031 #
point $-1 -55.681194031051064 -56.289037728743565 -11.442538456138031 #
point $-1 -52.681194031051064 -56.289037728743565 -11.442538456138031 #
straight-curve $-1 -52.681194031051064 -49.244705566920821 11.442538456138031 0 1 0 I I #
straight-curve $-1 -75.566270943327126 0 11.442538456138031 0 -1 0 I I #
straight-curve $-1 -75.566270943327126 42.200373405098077 0 0 0 -1 I I #
point $-1 -75.566270943327126 33.814187121202238 11.442538456138038 #
straight-curve $-1 -26.771981091965792 33.814187121202238 11.442538456138031 1 0 0 I I #
point $-1 -75.566270943327126 42.200373405098077 11.442538456138031 #
point $-1 -62.982094509386812 33.931402892657744 3.115700243828746 #
point $-1 -44.105829858476355 33.931402892657744 3.115700243828746 #
straight-curve $-1 -52.681194031051064 -56.289037728743565 0 0 0 -1 I I #
point $-1 -52.681194031051064 -56.289037728743565 11.442538456138031 #
End-of-ACIS-data 