500 0 4 0           
7 Unknown 11 ACIS 5.0 NT 24 Fri Mar 26 19:51:00 1999 
-1 9.9999999999999995e-007 1e-010 
body $-1 $4 $-1 $5 #
body $-1 $6 $-1 $7 #
body $-1 $8 $-1 $9 #
body $-1 $10 $-1 $11 #
lump $-1 $-1 $12 $0 #
transform $-1 1 0 0 0 1 0 0 0 1 54.568315683462018 24.955840871698715 8.5655800026748494 1 rotate no_reflect no_shear #
lump $-1 $-1 $13 $1 #
transform $-1 1 0 0 0 1 0 0 0 1 54.568315683462018 24.955840871698715 8.5655800026748494 1 rotate no_reflect no_shear #
lump $-1 $-1 $14 $2 #
transform $-1 1 0 0 0 1 0 0 0 1 54.568315683462018 24.955840871698715 8.5655800026748494 1 rotate no_reflect no_shear #
lump $-1 $-1 $15 $3 #
transform $-1 1 0 0 0 1 0 0 0 1 54.568315683462018 24.955840871698715 8.5655800026748494 1 rotate no_reflect no_shear #
shell $-1 $-1 $-1 $16 $-1 $4 #
shell $-1 $-1 $-1 $17 $-1 $6 #
shell $-1 $-1 $-1 $18 $-1 $8 #
shell $-1 $-1 $-1 $19 $-1 $10 #
face $-1 $20 $21 $12 $-1 $22 forward single #
face $-1 $23 $24 $13 $-1 $25 forward single #
face $-1 $26 $27 $14 $-1 $28 reversed single #
face $-1 $29 $30 $15 $-1 $31 forward single #
face $-1 $32 $33 $12 $-1 $34 reversed single #
loop $-1 $-1 $35 $16 #
plane-surface $-1 0 0 8.5655800026748494 0 0 1 1 0 0 forward_v I I I I #
face $-1 $36 $37 $13 $-1 $38 reversed single #
loop $-1 $-1 $39 $17 #
plane-surface $-1 -54.568315683462018 0 0 1 0 0 0 0 -1 forward_v I I I I #
face $-1 $40 $41 $14 $-1 $42 reversed single #
loop $-1 $-1 $43 $18 #
plane-surface $-1 -35.910051726809158 -20.129755842263851 64.641887667783976 0.55919291073839883 0 0.82903756765294845 0.82903756765294845 0 -0.55919291073839883 forward_v I I I I #
face $-1 $44 $45 $15 $-1 $46 forward single #
loop $-1 $47 $48 $19 #
cone-surface $-1 48.682493256071773 -20.129755842263851 2.805778852787939 -0.55919291073839883 0 -0.82903756765294845 1.6580751353058969 0 -1.1183858214767977 1 I I 0 1 2 forward I I I I #
face $-1 $49 $50 $12 $-1 $51 reversed single #
loop $-1 $-1 $52 $20 #
plane-surface $-1 0 0 -8.5655800026748494 0 0 1 1 0 0 forward_v I I I I #
coedge $-1 $53 $54 $55 $56 forward $21 $-1 #
face $-1 $57 $58 $13 $-1 $59 reversed single #
loop $-1 $-1 $60 $23 #
plane-surface $-1 0 0 -8.5655800026748494 0 0 1 1 0 0 forward_v I I I I #
coedge $-1 $61 $62 $63 $64 forward $24 $-1 #
face $-1 $65 $66 $14 $-1 $67 reversed single #
loop $-1 $-1 $68 $26 #
plane-surface $-1 25.11837883544473 -15.303670812828987 155.12025507805515 0 -1 0 -0.55919291073839883 0 -0.82903756765294845 forward_v I I I I #
coedge $-1 $69 $70 $71 $72 reversed $27 $-1 #
face $-1 $-1 $73 $15 $-1 $74 forward single #
loop $-1 $75 $76 $29 #
cone-surface $-1 45.908389907819881 -20.129755842263851 -1.3069984161795389 -0.55919291073839883 0 -0.82903756765294845 0.82903756765294845 0 -0.55919291073839883 1 I I -0.70710678118654746 0.70710678118654746 1 forward I I I I #
loop $-1 $-1 $77 $19 #
coedge $-1 $48 $48 $78 $79 reversed $30 $-1 #
face $-1 $80 $81 $12 $-1 $82 reversed single #
loop $-1 $-1 $83 $32 #
plane-surface $-1 0 -24.955840871698715 0 0 1 0 0 0 1 forward_v I I I I #
coedge $-1 $84 $85 $86 $87 forward $33 $-1 #
coedge $-1 $88 $35 $89 $90 forward $21 $-1 #
coedge $-1 $35 $88 $91 $92 forward $21 $-1 #
coedge $-1 $93 $94 $35 $56 reversed $95 $-1 #
edge $-1 $96 -24.955840871698715 $97 24.955840871698715 $55 $98 forward 7 unknown #
face $-1 $99 $100 $13 $-1 $101 reversed single #
loop $-1 $-1 $102 $36 #
plane-surface $-1 -59.248271817355487 -15.732367886596872 0 0 1 0 0 0 1 forward_v I I I I #
coedge $-1 $103 $104 $62 $105 forward $37 $-1 #
coedge $-1 $106 $39 $107 $108 reversed $24 $-1 #
coedge $-1 $39 $106 $60 $105 reversed $24 $-1 #
coedge $-1 $109 $110 $39 $64 reversed $111 $-1 #
edge $-1 $112 -8.5655800026748494 $113 8.5655800026748494 $63 $114 forward 7 unknown #
face $-1 $115 $116 $14 $-1 $117 reversed single #
loop $-1 $-1 $118 $40 #
plane-surface $-1 0 -24.955840871698715 0 0 1 0 0 0 1 forward_v I I I I #
coedge $-1 $119 $120 $121 $122 reversed $41 $-1 #
coedge $-1 $123 $43 $118 $124 reversed $27 $-1 #
coedge $-1 $43 $123 $119 $125 forward $27 $-1 #
coedge $-1 $121 $126 $43 $72 forward $116 $-1 #
edge $-1 $127 -14.89096295056679 $128 -5.2387928916970612 $71 $129 forward 7 unknown #
loop $-1 $-1 $78 $44 #
plane-surface $-1 -35.910051726809158 -20.129755842263851 64.641887667783976 0.55919291073839883 0 0.82903756765294845 0.82903756765294845 0 -0.55919291073839883 forward_v I I I I #
loop $-1 $-1 $130 $29 #
coedge $-1 $76 $76 $77 $131 reversed $45 $-1 #
coedge $-1 $77 $77 $76 $131 forward $47 $-1 #
coedge $-1 $78 $78 $48 $79 forward $73 $-1 #
edge $-1 $132 0 $132 6.2831853071796004 $78 $133 forward 7 unknown #
face $-1 $134 $135 $12 $-1 $136 reversed single #
loop $-1 $-1 $137 $49 #
plane-surface $-1 -54.568315683462018 0 0 1 0 0 0 0 -1 forward_v I I I I #
coedge $-1 $138 $91 $139 $140 forward $50 $-1 #
coedge $-1 $141 $52 $138 $142 forward $33 $-1 #
coedge $-1 $52 $141 $143 $144 forward $33 $-1 #
coedge $-1 $94 $93 $52 $87 reversed $95 $-1 #
edge $-1 $145 -24.955840871698715 $146 24.955840871698715 $86 $147 forward 7 unknown #
coedge $-1 $54 $53 $148 $149 forward $21 $-1 #
coedge $-1 $150 $151 $53 $90 reversed $135 $-1 #
edge $-1 $97 -54.568315683462018 $152 54.568315683462018 $89 $153 forward 7 unknown #
coedge $-1 $83 $154 $54 $92 reversed $50 $-1 #
edge $-1 $155 -54.568315683462018 $96 54.568315683462018 $91 $156 forward 7 unknown #
coedge $-1 $86 $55 $154 $157 forward $95 $-1 #
coedge $-1 $55 $86 $150 $158 reversed $95 $-1 #
loop $-1 $-1 $93 $134 #
vertex $-1 $56 $159 #
vertex $-1 $56 $160 #
straight-curve $-1 54.568315683462018 0 8.5655800026748494 0 1 0 I I #
face $-1 $161 $111 $13 $-1 $162 reversed single #
loop $-1 $-1 $163 $57 #
plane-surface $-1 -63.928227951248957 -13.662350540877664 0 1 0 0 0 0 -1 forward_v I I I I #
coedge $-1 $164 $165 $166 $167 forward $58 $-1 #
coedge $-1 $168 $60 $164 $169 forward $37 $-1 #
coedge $-1 $60 $168 $109 $170 forward $37 $-1 #
edge $-1 $112 11.592333195158457 $171 15.732367886596872 $60 $172 forward 7 unknown #
coedge $-1 $62 $61 $173 $174 forward $24 $-1 #
coedge $-1 $175 $176 $61 $108 forward $177 $-1 #
edge $-1 $178 -15.732367886596872 $113 -11.592333195158457 $107 $179 forward 7 unknown #
coedge $-1 $180 $63 $104 $170 reversed $111 $-1 #
coedge $-1 $63 $180 $175 $181 reversed $111 $-1 #
loop $-1 $-1 $63 $99 #
vertex $-1 $105 $182 #
vertex $-1 $181 $183 #
straight-curve $-1 -54.568315683462018 -11.592333195158457 0 0 0 1 I I #
face $-1 $-1 $184 $14 $-1 $185 forward single #
loop $-1 $-1 $71 $65 #
plane-surface $-1 54.568315683462018 0 0 -1 0 0 0 0 1 forward_v I I I I #
coedge $-1 $186 $187 $69 $124 forward $66 $-1 #
coedge $-1 $120 $68 $70 $125 reversed $41 $-1 #
coedge $-1 $68 $119 $188 $189 reversed $41 $-1 #
coedge $-1 $190 $71 $68 $122 forward $116 $-1 #
edge $-1 $128 -73.946670433497488 $191 -68.994547536352727 $121 $192 forward 7 unknown #
coedge $-1 $70 $69 $193 $194 reversed $27 $-1 #
edge $-1 $195 67.321757826195324 $127 76.177597737694953 $118 $196 forward 7 unknown #
edge $-1 $197 100.28079145542439 $128 109.13663136692404 $119 $198 forward 7 unknown #
coedge $-1 $71 $190 $186 $199 forward $116 $-1 #
vertex $-1 $72 $200 #
vertex $-1 $72 $201 #
straight-curve $-1 54.568315683462018 -10.064877921131925 3.6134571055300846 0 1 0 I I #
coedge $-1 $130 $130 $-1 $202 reversed $75 $-1 #
edge $-1 $203 0 $203 6.2831853071796004 $76 $204 forward 7 unknown #
vertex $-1 $79 $205 #
ellipse-curve $-1 50.897403693585261 -20.129755842263851 6.0895185541024643 0.55919291073839883 0 0.82903756765294845 1.6580751353058969 0 -1.1183858214767977 1 I I #
face $-1 $-1 $95 $12 $-1 $206 reversed single #
loop $-1 $-1 $150 $80 #
plane-surface $-1 0 24.955840871698715 0 0 -1 0 0 0 -1 forward_v I I I I #
coedge $-1 $207 $148 $151 $208 forward $81 $-1 #
coedge $-1 $154 $83 $84 $142 reversed $50 $-1 #
coedge $-1 $148 $207 $83 $140 reversed $81 $-1 #
edge $-1 $155 -8.5655800026748494 $209 8.5655800026748494 $139 $210 forward 7 unknown #
coedge $-1 $85 $84 $207 $211 forward $33 $-1 #
edge $-1 $146 -54.568315683462018 $209 54.568315683462018 $138 $212 forward 7 unknown #
coedge $-1 $151 $150 $85 $144 reversed $135 $-1 #
edge $-1 $213 -54.568315683462018 $145 54.568315683462018 $143 $214 forward 7 unknown #
vertex $-1 $87 $215 #
vertex $-1 $157 $216 #
straight-curve $-1 54.568315683462018 0 -8.5655800026748494 0 -1 0 I I #
coedge $-1 $137 $139 $88 $149 reversed $81 $-1 #
edge $-1 $152 -24.955840871698715 $155 24.955840871698715 $148 $217 forward 7 unknown #
coedge $-1 $143 $89 $94 $158 forward $135 $-1 #
coedge $-1 $89 $143 $137 $208 reversed $135 $-1 #
vertex $-1 $90 $218 #
straight-curve $-1 0 24.955840871698715 8.5655800026748494 -1 0 0 I I #
coedge $-1 $91 $138 $93 $157 reversed $50 $-1 #
vertex $-1 $149 $219 #
straight-curve $-1 0 -24.955840871698715 8.5655800026748494 1 0 0 I I #
edge $-1 $96 -8.5655800026748494 $146 8.5655800026748494 $93 $220 forward 7 unknown #
edge $-1 $97 -8.5655800026748494 $145 8.5655800026748494 $94 $221 forward 7 unknown #
point $-1 54.568315683462018 -24.955840871698715 8.5655800026748494 #
point $-1 54.568315683462018 24.955840871698715 8.5655800026748494 #
face $-1 $-1 $177 $13 $-1 $222 forward single #
plane-surface $-1 -59.248271817355487 -11.592333195158457 0 0 -1 0 0 0 -1 forward_v I I I I #
coedge $-1 $223 $224 $180 $225 forward $100 $-1 #
coedge $-1 $173 $102 $103 $169 reversed $58 $-1 #
coedge $-1 $102 $173 $176 $226 reversed $58 $-1 #
coedge $-1 $224 $223 $102 $167 reversed $100 $-1 #
edge $-1 $227 -8.5655800026748494 $228 8.5655800026748494 $166 $229 forward 7 unknown #
coedge $-1 $104 $103 $223 $230 forward $37 $-1 #
edge $-1 $171 -4.6799561338934694 $228 4.6799561338934694 $164 $231 forward 7 unknown #
edge $-1 $232 -4.6799561338934694 $112 4.6799561338934694 $109 $233 forward 7 unknown #
vertex $-1 $169 $234 #
straight-curve $-1 -54.568315683462018 0 -8.5655800026748494 0 -1 0 I I #
coedge $-1 $165 $164 $106 $174 reversed $58 $-1 #
edge $-1 $178 -8.5655800026748494 $171 8.5655800026748494 $173 $235 forward 7 unknown #
coedge $-1 $236 $107 $110 $181 forward $177 $-1 #
coedge $-1 $107 $236 $165 $226 forward $177 $-1 #
loop $-1 $-1 $107 $161 #
vertex $-1 $108 $237 #
straight-curve $-1 -54.568315683462018 0 8.5655800026748494 0 1 0 I I #
coedge $-1 $110 $109 $163 $225 reversed $111 $-1 #
edge $-1 $113 -4.6799561338934694 $238 4.6799561338934694 $110 $239 forward 7 unknown #
point $-1 -54.568315683462018 -11.592333195158457 -8.5655800026748494 #
point $-1 -54.568315683462018 -11.592333195158457 8.5655800026748494 #
loop $-1 $-1 $193 $115 #
plane-surface $-1 0 0 8.5655800026748494 0 0 1 1 0 0 forward_v I I I I #
coedge $-1 $187 $118 $126 $199 reversed $66 $-1 #
coedge $-1 $118 $186 $240 $241 reversed $66 $-1 #
coedge $-1 $193 $242 $120 $189 forward $184 $-1 #
edge $-1 $191 -42.009126265739653 $197 -34.667302285986096 $188 $243 forward 7 unknown #
coedge $-1 $126 $121 $242 $244 reversed $116 $-1 #
vertex $-1 $122 $245 #
straight-curve $-1 54.568315683462018 -15.303670812828987 77.560127539027576 0 0 1 I I #
coedge $-1 $240 $188 $123 $194 forward $184 $-1 #
edge $-1 $197 5.2387928916970612 $195 14.89096295056679 $193 $246 forward 7 unknown #
vertex $-1 $241 $247 #
straight-curve $-1 -8.5857746546413534 -24.955840871698715 46.211429717530592 0.82903756765294845 0 -0.55919291073839883 I I #
vertex $-1 $194 $248 #
straight-curve $-1 -35.910051726809158 -15.303670812828987 64.641887667783976 0.82903756765294845 0 -0.55919291073839883 I I #
edge $-1 $249 -8.5655800026748494 $127 -3.6134571055300873 $126 $250 forward 7 unknown #
point $-1 54.568315683462018 -24.955840871698715 3.6134571055300873 #
point $-1 54.568315683462018 -15.303670812828987 3.6134571055300881 #
edge $-1 $251 1 $251 0 $130 $-1 forward 7 unknown #
vertex $-1 $131 $252 #
ellipse-curve $-1 46.467582818558277 -20.129755842263851 -0.47796084852659049 0.55919291073839883 0 0.82903756765294845 1.6580751353058969 0 -1.1183858214767977 1 I I #
point $-1 52.555478828891161 -20.129755842263851 4.971132732625672 #
plane-surface $-1 54.568315683462018 0 0 -1 0 0 0 0 1 forward_v I I I I #
coedge $-1 $139 $137 $141 $211 reversed $81 $-1 #
edge $-1 $152 -8.5655800026748494 $213 8.5655800026748494 $151 $253 forward 7 unknown #
vertex $-1 $211 $254 #
straight-curve $-1 -54.568315683462018 -24.955840871698715 0 0 0 -1 I I #
edge $-1 $209 -24.955840871698715 $213 24.955840871698715 $207 $255 forward 7 unknown #
straight-curve $-1 0 -24.955840871698715 -8.5655800026748494 -1 0 0 I I #
vertex $-1 $144 $256 #
straight-curve $-1 0 24.955840871698715 -8.5655800026748494 1 0 0 I I #
point $-1 54.568315683462018 24.955840871698715 -8.5655800026748494 #
point $-1 54.568315683462018 -24.955840871698715 -8.5655800026748494 #
straight-curve $-1 -54.568315683462018 0 8.5655800026748494 0 -1 0 I I #
point $-1 -54.568315683462018 24.955840871698715 8.5655800026748494 #
point $-1 -54.568315683462018 -24.955840871698715 8.5655800026748494 #
straight-curve $-1 54.568315683462018 -24.955840871698715 0 0 0 -1 I I #
straight-curve $-1 54.568315683462018 24.955840871698715 0 0 0 -1 I I #
plane-surface $-1 0 0 8.5655800026748494 0 0 1 1 0 0 forward_v I I I I #
coedge $-1 $166 $163 $168 $230 reversed $100 $-1 #
coedge $-1 $163 $166 $236 $257 reversed $100 $-1 #
edge $-1 $238 -8.5655800026748494 $232 8.5655800026748494 $180 $258 forward 7 unknown #
edge $-1 $227 -4.6799561338934694 $178 4.6799561338934694 $165 $259 forward 7 unknown #
vertex $-1 $257 $260 #
vertex $-1 $230 $261 #
straight-curve $-1 -63.928227951248957 -15.732367886596872 0 0 0 -1 I I #
edge $-1 $228 -2.0700173457192079 $232 2.0700173457192079 $223 $262 forward 7 unknown #
straight-curve $-1 -59.248271817355487 -15.732367886596872 -8.5655800026748494 -1 0 0 I I #
vertex $-1 $170 $263 #
straight-curve $-1 -59.248271817355487 -11.592333195158457 -8.5655800026748494 1 0 0 I I #
point $-1 -54.568315683462018 -15.732367886596872 -8.5655800026748494 #
straight-curve $-1 -54.568315683462018 -15.732367886596872 0 0 0 -1 I I #
coedge $-1 $176 $175 $224 $257 forward $177 $-1 #
point $-1 -54.568315683462018 -15.732367886596872 8.5655800026748494 #
vertex $-1 $181 $264 #
straight-curve $-1 -59.248271817355487 -11.592333195158457 8.5655800026748494 -1 0 0 I I #
coedge $-1 $242 $193 $187 $241 forward $184 $-1 #
edge $-1 $195 47.226491703708462 $249 54.568315683462018 $187 $265 forward 7 unknown #
coedge $-1 $188 $240 $190 $244 forward $184 $-1 #
straight-curve $-1 12.559189417722365 -15.303670812828987 8.5655800026748494 -1 0 0 I I #
edge $-1 $249 -24.955840871698715 $191 -15.303670812828987 $190 $266 forward 7 unknown #
point $-1 54.568315683462018 -15.303670812828987 8.5655800026748494 #
straight-curve $-1 47.226491703708462 -10.064877921131925 8.5655800026748423 0 -1 0 I I #
point $-1 47.226491703708462 -24.955840871698715 8.5655800026748494 #
point $-1 47.226491703708462 -15.303670812828987 8.5655800026748494 #
vertex $-1 $244 $267 #
straight-curve $-1 54.568315683462018 -24.955840871698715 0 0 0 -1 I I #
vertex $-1 $202 $268 #
point $-1 48.125657953864177 -20.129755842263851 -1.5963466700033881 #
straight-curve $-1 -54.568315683462018 24.955840871698715 0 0 0 -1 I I #
point $-1 -54.568315683462018 -24.955840871698715 -8.5655800026748494 #
straight-curve $-1 -54.568315683462018 0 -8.5655800026748494 0 1 0 I I #
point $-1 -54.568315683462018 24.955840871698715 -8.5655800026748494 #
edge $-1 $238 -2.0700173457192079 $227 2.0700173457192079 $224 $269 forward 7 unknown #
straight-curve $-1 -63.928227951248957 -11.592333195158457 0 0 0 -1 I I #
straight-curve $-1 -59.248271817355487 -15.732367886596872 8.5655800026748494 1 0 0 I I #
point $-1 -63.928227951248957 -15.732367886596872 8.5655800026748494 #
point $-1 -63.928227951248957 -15.732367886596872 -8.5655800026748494 #
straight-curve $-1 -63.928227951248957 -13.662350540877664 -8.5655800026748494 0 1 0 I I #
point $-1 -63.928227951248957 -11.592333195158457 -8.5655800026748494 #
point $-1 -63.928227951248957 -11.592333195158457 8.5655800026748494 #
straight-curve $-1 0 -24.955840871698715 8.5655800026748494 1 0 0 I I #
straight-curve $-1 54.568315683462018 0 8.5655800026748494 0 1 0 I I #
point $-1 54.568315683462018 -24.955840871698715 8.5655800026748494 #
point $-1 45.349196997081485 -20.129755842263851 -2.1360359838324872 #
straight-curve $-1 -63.928227951248957 -13.662350540877664 8.5655800026748494 0 -1 0 I I #
End-of-ACIS-data 