500 0 10 0           
7 Unknown 11 ACIS 5.0 NT 24 Thu Mar 25 18:34:11 1999 
-1 9.9999999999999995e-007 1e-010 
body $-1 $10 $-1 $11 #
body $-1 $12 $-1 $13 #
body $-1 $14 $-1 $15 #
body $-1 $16 $-1 $17 #
body $-1 $18 $-1 $19 #
body $-1 $20 $-1 $21 #
body $-1 $22 $-1 $23 #
body $-1 $24 $-1 $25 #
body $-1 $26 $-1 $27 #
body $-1 $28 $-1 $29 #
lump $-1 $-1 $30 $0 #
transform $-1 1 0 0 0 1 0 0 0 1 47.766350291451765 30.847029999001869 15.164251958584002 1 rotate no_reflect no_shear #
lump $-1 $-1 $31 $1 #
transform $-1 1 0 0 0 1 0 0 0 1 47.766350291451765 30.847029999001869 15.164251958584002 1 rotate no_reflect no_shear #
lump $-1 $-1 $32 $2 #
transform $-1 1 0 0 0 1 0 0 0 1 47.766350291451765 30.847029999001869 15.164251958584002 1 rotate no_reflect no_shear #
lump $-1 $-1 $33 $3 #
transform $-1 1 0 0 0 1 0 0 0 1 47.766350291451765 30.847029999001869 15.164251958584002 1 rotate no_reflect no_shear #
lump $-1 $-1 $34 $4 #
transform $-1 1 0 0 0 1 0 0 0 1 47.766350291451765 30.847029999001869 15.164251958584002 1 rotate no_reflect no_shear #
lump $-1 $-1 $35 $5 #
transform $-1 1 0 0 0 1 0 0 0 1 47.766350291451765 30.847029999001869 15.164251958584002 1 rotate no_reflect no_shear #
lump $-1 $-1 $36 $6 #
transform $-1 1 0 0 0 1 0 0 0 1 47.766350291451765 30.847029999001869 15.164251958584002 1 rotate no_reflect no_shear #
lump $-1 $-1 $37 $7 #
transform $-1 1 0 0 0 1 0 0 0 1 47.766350291451765 30.847029999001869 15.164251958584002 1 rotate no_reflect no_shear #
lump $-1 $-1 $38 $8 #
transform $-1 1 0 0 0 1 0 0 0 1 47.766350291451765 30.847029999001869 15.164251958584002 1 rotate no_reflect no_shear #
lump $-1 $-1 $39 $9 #
transform $-1 1 0 0 0 1 0 0 0 1 47.766350291451765 30.847029999001869 15.164251958584002 1 rotate no_reflect no_shear #
shell $-1 $-1 $-1 $40 $-1 $10 #
shell $-1 $-1 $-1 $41 $-1 $12 #
shell $-1 $-1 $-1 $42 $-1 $14 #
shell $-1 $-1 $-1 $43 $-1 $16 #
shell $-1 $-1 $-1 $44 $-1 $18 #
shell $-1 $-1 $-1 $45 $-1 $20 #
shell $-1 $-1 $-1 $46 $-1 $22 #
shell $-1 $-1 $-1 $47 $-1 $24 #
shell $-1 $-1 $-1 $48 $-1 $26 #
shell $-1 $-1 $-1 $49 $-1 $28 #
face $-1 $50 $51 $30 $-1 $52 forward single #
face $-1 $53 $54 $31 $-1 $55 reversed single #
face $-1 $56 $57 $32 $-1 $58 reversed single #
face $-1 $59 $60 $33 $-1 $61 forward single #
face $-1 $62 $63 $34 $-1 $64 forward single #
face $-1 $65 $66 $35 $-1 $67 reversed single #
face $-1 $68 $69 $36 $-1 $70 forward single #
face $-1 $71 $72 $37 $-1 $73 forward single #
face $-1 $74 $75 $38 $-1 $76 reversed single #
face $-1 $77 $78 $39 $-1 $79 forward single #
face $-1 $80 $81 $30 $-1 $82 reversed single #
loop $-1 $-1 $83 $40 #
plane-surface $-1 0 0 15.164251958584002 0 0 1 1 0 0 forward_v I I I I #
face $-1 $84 $85 $31 $-1 $86 reversed single #
loop $-1 $-1 $87 $41 #
plane-surface $-1 -39.502932101145333 -9.4014169459182497 0 0 1 0 0 0 1 forward_v I I I I #
face $-1 $88 $89 $32 $-1 $90 reversed single #
loop $-1 $-1 $91 $42 #
plane-surface $-1 2.5321044444458423 -88.340045139932158 86.873029531031122 -1 0 0 0 -0.6018150307709319 0.79863550430605224 forward_v I I I I #
face $-1 $92 $93 $33 $-1 $94 forward single #
loop $-1 $95 $96 $43 #
cone-surface $-1 -4.05022496118319 -27.201793012764721 12.072333531697844 0 0.6018150307709319 -0.79863550430605224 1 0 0 1 I I 0 1 1 forward I I I I #
face $-1 $97 $98 $34 $-1 $99 forward single #
loop $-1 $100 $101 $44 #
cone-surface $-1 -0.10082731780577348 -27.201793012764721 12.072333531697844 0 0.6018150307709319 -0.79863550430605224 1 0 0 1 I I 0 1 1 forward I I I I #
face $-1 $102 $103 $35 $-1 $104 reversed single #
loop $-1 $-1 $105 $45 #
plane-surface $-1 23.209993104047662 -88.340045139932158 86.873029531031122 -1 0 0 0 -0.6018150307709319 0.79863550430605224 forward_v I I I I #
face $-1 $106 $107 $36 $-1 $108 forward single #
loop $-1 $109 $110 $46 #
cone-surface $-1 16.627663698418623 -27.201793012764721 12.072333531697844 0 0.6018150307709319 -0.79863550430605224 1 0 0 1 I I 0 1 1 forward I I I I #
face $-1 $111 $112 $37 $-1 $113 forward single #
loop $-1 $114 $115 $47 #
cone-surface $-1 20.577061341796046 -27.201793012764721 12.072333531697844 0 0.6018150307709319 -0.79863550430605224 1 0 0 1 I I 0 1 1 forward I I I I #
face $-1 $116 $117 $38 $-1 $118 reversed single #
loop $-1 $-1 $119 $48 #
plane-surface $-1 -31.239513910838902 60.560279684401685 117.46717315616883 1 0 0 0 -0.74314483375859142 -0.66913059716165679 forward_v I I I I #
face $-1 $120 $121 $39 $-1 $122 forward single #
loop $-1 $123 $124 $49 #
cone-surface $-1 -24.576204605249728 24.575805615905288 8.8108200181730627 0 -0.74314483375859142 -0.66913059716165679 2.5 0 0 1 I I 0 1 2.5 forward I I I I #
face $-1 $125 $126 $30 $-1 $127 reversed single #
loop $-1 $-1 $128 $50 #
plane-surface $-1 0 0 -15.164251958584002 0 0 1 1 0 0 forward_v I I I I #
coedge $-1 $129 $130 $131 $132 forward $51 $-1 #
face $-1 $133 $134 $31 $-1 $135 reversed single #
loop $-1 $-1 $136 $53 #
plane-surface $-1 -39.502932101145333 -0.51852608183386195 0 0 -1 0 0 0 -1 forward_v I I I I #
coedge $-1 $137 $138 $139 $140 reversed $54 $-1 #
face $-1 $141 $142 $32 $-1 $143 reversed single #
loop $-1 $-1 $144 $56 #
plane-surface $-1 -2.0755261394944782 -30.847029999001848 10.577223023284873 0 -0.6018150307709319 0.79863550430605224 1 0 0 forward_v I I I I #
coedge $-1 $145 $146 $147 $148 reversed $57 $-1 #
face $-1 $-1 $149 $33 $-1 $150 forward single #
loop $-1 $151 $152 $59 #
cone-surface $-1 -4.05022496118319 -26.299244948336657 10.874611820308223 0 0.6018150307709319 -0.79863550430605224 0.5 0 0 1 I I -0.70710678118654746 0.70710678118654746 0.5 forward I I I I #
loop $-1 $-1 $153 $43 #
coedge $-1 $96 $96 $154 $155 reversed $60 $-1 #
face $-1 $-1 $156 $34 $-1 $157 forward single #
loop $-1 $158 $159 $62 #
cone-surface $-1 -0.10082731780577348 -26.299244948336657 10.874611820308223 0 0.6018150307709319 -0.79863550430605224 0.5 0 0 1 I I -0.70710678118654746 0.70710678118654746 0.5 forward I I I I #
loop $-1 $-1 $160 $44 #
coedge $-1 $101 $101 $161 $162 reversed $63 $-1 #
face $-1 $163 $164 $35 $-1 $165 reversed single #
loop $-1 $-1 $166 $65 #
plane-surface $-1 18.602362520107341 -30.847029999001848 10.577223023284873 0 -0.6018150307709319 0.79863550430605224 1 0 0 forward_v I I I I #
coedge $-1 $167 $168 $169 $170 reversed $66 $-1 #
face $-1 $-1 $171 $36 $-1 $172 forward single #
loop $-1 $173 $174 $68 #
cone-surface $-1 16.627663698418623 -26.299244948336657 10.874611820308223 0 0.6018150307709319 -0.79863550430605224 0.5 0 0 1 I I -0.70710678118654746 0.70710678118654746 0.5 forward I I I I #
loop $-1 $-1 $175 $46 #
coedge $-1 $110 $110 $176 $177 reversed $69 $-1 #
face $-1 $-1 $178 $37 $-1 $179 forward single #
loop $-1 $180 $181 $71 #
cone-surface $-1 20.577061341796046 -26.299244948336657 10.874611820308223 0 0.6018150307709319 -0.79863550430605224 0.5 0 0 1 I I -0.70710678118654746 0.70710678118654746 0.5 forward I I I I #
loop $-1 $-1 $182 $47 #
coedge $-1 $115 $115 $183 $184 reversed $72 $-1 #
face $-1 $185 $186 $38 $-1 $187 reversed single #
loop $-1 $-1 $188 $74 #
plane-surface $-1 -24.576204605249728 -10.434353208789453 53.543320166664827 0 0.74314483375859142 0.66913059716165679 1 0 0 forward_v I I I I #
coedge $-1 $189 $190 $191 $192 reversed $75 $-1 #
face $-1 $-1 $193 $39 $-1 $194 forward single #
loop $-1 $195 $196 $77 #
cone-surface $-1 -24.576204605249728 20.738008109067785 5.3552517078241539 0 -0.74314483375859142 -0.66913059716165679 1.25 0 0 1 I I -0.70710678118654746 0.70710678118654746 1.25 forward I I I I #
loop $-1 $-1 $197 $49 #
coedge $-1 $124 $124 $198 $199 reversed $78 $-1 #
face $-1 $200 $201 $30 $-1 $202 reversed single #
loop $-1 $-1 $203 $80 #
plane-surface $-1 0 -30.847029999001869 0 0 1 0 0 0 1 forward_v I I I I #
coedge $-1 $204 $205 $206 $207 forward $81 $-1 #
coedge $-1 $208 $83 $209 $210 forward $51 $-1 #
coedge $-1 $83 $208 $211 $212 forward $51 $-1 #
coedge $-1 $213 $214 $83 $132 reversed $215 $-1 #
edge $-1 $216 -30.847029999001869 $217 30.847029999001869 $131 $218 forward 7 unknown #
face $-1 $219 $220 $31 $-1 $221 reversed single #
loop $-1 $-1 $222 $84 #
plane-surface $-1 -31.239513910838902 -4.9599715138760558 0 -1 0 0 0 0 1 forward_v I I I I #
coedge $-1 $223 $224 $225 $226 forward $85 $-1 #
coedge $-1 $227 $87 $228 $229 reversed $54 $-1 #
coedge $-1 $87 $227 $230 $231 reversed $54 $-1 #
coedge $-1 $232 $233 $87 $140 forward $234 $-1 #
edge $-1 $235 -15.164251958584002 $236 15.164251958584002 $139 $237 forward 7 unknown #
face $-1 $238 $239 $32 $-1 $240 reversed single #
loop $-1 $-1 $241 $88 #
plane-surface $-1 -6.6831567234347986 -88.340045139932158 86.873029531031122 1 0 0 0 0.6018150307709319 -0.79863550430605224 forward_v I I I I #
coedge $-1 $242 $243 $244 $245 reversed $89 $-1 #
coedge $-1 $146 $91 $246 $247 reversed $57 $-1 #
coedge $-1 $91 $145 $242 $248 reversed $57 $-1 #
coedge $-1 $244 $249 $91 $148 forward $250 $-1 #
edge $-1 $251 13.32299257096421 $252 19.410185445353331 $147 $253 forward 7 unknown #
loop $-1 $-1 $154 $92 #
plane-surface $-1 -2.0755261394944782 -30.847029999001848 10.577223023284873 0 -0.6018150307709319 0.79863550430605224 1 0 0 forward_v I I I I #
loop $-1 $-1 $254 $59 #
coedge $-1 $152 $152 $153 $255 reversed $93 $-1 #
coedge $-1 $153 $153 $152 $255 forward $95 $-1 #
coedge $-1 $154 $154 $96 $155 forward $149 $-1 #
edge $-1 $256 7.3958291473520646e-016 $256 6.2831853071796013 $154 $257 forward 7 unknown #
loop $-1 $-1 $161 $97 #
plane-surface $-1 -2.0755261394944782 -30.847029999001848 10.577223023284873 0 -0.6018150307709319 0.79863550430605224 1 0 0 forward_v I I I I #
loop $-1 $-1 $258 $62 #
coedge $-1 $159 $159 $160 $259 reversed $98 $-1 #
coedge $-1 $160 $160 $159 $259 forward $100 $-1 #
coedge $-1 $161 $161 $101 $162 forward $156 $-1 #
edge $-1 $260 7.3958291473520646e-016 $260 6.2831853071796013 $161 $261 forward 7 unknown #
face $-1 $262 $263 $35 $-1 $264 reversed single #
loop $-1 $-1 $265 $102 #
plane-surface $-1 13.994731936167021 -88.340045139932158 86.873029531031122 1 0 0 0 0.6018150307709319 -0.79863550430605224 forward_v I I I I #
coedge $-1 $266 $267 $268 $269 reversed $103 $-1 #
coedge $-1 $168 $105 $270 $271 reversed $66 $-1 #
coedge $-1 $105 $167 $266 $272 reversed $66 $-1 #
coedge $-1 $268 $273 $105 $170 forward $274 $-1 #
edge $-1 $275 13.32299257096421 $276 19.410185445353331 $169 $277 forward 7 unknown #
loop $-1 $-1 $176 $106 #
plane-surface $-1 18.602362520107341 -30.847029999001848 10.577223023284873 0 -0.6018150307709319 0.79863550430605224 1 0 0 forward_v I I I I #
loop $-1 $-1 $278 $68 #
coedge $-1 $174 $174 $175 $279 reversed $107 $-1 #
coedge $-1 $175 $175 $174 $279 forward $109 $-1 #
coedge $-1 $176 $176 $110 $177 forward $171 $-1 #
edge $-1 $280 7.3958291473520646e-016 $280 6.2831853071796013 $176 $281 forward 7 unknown #
loop $-1 $-1 $183 $111 #
plane-surface $-1 18.602362520107341 -30.847029999001848 10.577223023284873 0 -0.6018150307709319 0.79863550430605224 1 0 0 forward_v I I I I #
loop $-1 $-1 $282 $71 #
coedge $-1 $181 $181 $182 $283 reversed $112 $-1 #
coedge $-1 $182 $182 $181 $283 forward $114 $-1 #
coedge $-1 $183 $183 $115 $184 forward $178 $-1 #
edge $-1 $284 7.3958291473520646e-016 $284 6.2831853071796013 $183 $285 forward 7 unknown #
face $-1 $286 $287 $38 $-1 $288 reversed single #
loop $-1 $-1 $289 $116 #
plane-surface $-1 -17.912895299660555 60.560279684401685 117.46717315616883 -1 0 0 0 0.74314483375859142 0.66913059716165679 forward_v I I I I #
coedge $-1 $290 $291 $292 $293 reversed $117 $-1 #
coedge $-1 $190 $119 $294 $295 reversed $75 $-1 #
coedge $-1 $119 $189 $290 $296 reversed $75 $-1 #
coedge $-1 $292 $297 $119 $192 forward $298 $-1 #
edge $-1 $299 -0.56689015680102628 $300 6.1578256801136284 $191 $301 forward 7 unknown #
loop $-1 $-1 $198 $120 #
plane-surface $-1 -24.576204605249728 -10.434353208789453 53.543320166664827 0 0.74314483375859142 0.66913059716165679 1 0 0 forward_v I I I I #
loop $-1 $-1 $302 $77 #
coedge $-1 $196 $196 $197 $303 reversed $121 $-1 #
coedge $-1 $197 $197 $196 $303 forward $123 $-1 #
coedge $-1 $198 $198 $124 $199 forward $193 $-1 #
edge $-1 $304 2.124944943041268e-016 $304 6.2831853071796004 $198 $305 forward 7 unknown #
face $-1 $306 $307 $30 $-1 $308 reversed single #
loop $-1 $-1 $309 $125 #
plane-surface $-1 -47.766350291451765 0 0 1 0 0 0 0 -1 forward_v I I I I #
coedge $-1 $310 $211 $311 $312 forward $126 $-1 #
coedge $-1 $313 $128 $310 $314 forward $81 $-1 #
coedge $-1 $128 $313 $315 $316 forward $81 $-1 #
coedge $-1 $214 $213 $128 $207 reversed $215 $-1 #
edge $-1 $317 -30.847029999001869 $318 30.847029999001869 $206 $319 forward 7 unknown #
coedge $-1 $130 $129 $320 $321 forward $51 $-1 #
coedge $-1 $322 $323 $129 $210 reversed $307 $-1 #
edge $-1 $217 -47.766350291451765 $324 47.766350291451765 $209 $325 forward 7 unknown #
coedge $-1 $203 $326 $130 $212 reversed $126 $-1 #
edge $-1 $327 -47.766350291451765 $216 47.766350291451765 $211 $328 forward 7 unknown #
coedge $-1 $206 $131 $326 $329 forward $215 $-1 #
coedge $-1 $131 $206 $322 $330 reversed $215 $-1 #
loop $-1 $-1 $213 $306 #
vertex $-1 $132 $331 #
vertex $-1 $132 $332 #
straight-curve $-1 47.766350291451765 0 15.164251958584002 0 1 0 I I #
face $-1 $333 $334 $31 $-1 $335 forward single #
loop $-1 $-1 $336 $133 #
plane-surface $-1 0 0 -15.164251958584002 0 0 1 1 0 0 forward_v I I I I #
coedge $-1 $337 $338 $227 $339 forward $134 $-1 #
coedge $-1 $340 $136 $336 $341 reversed $85 $-1 #
coedge $-1 $136 $340 $342 $343 reversed $85 $-1 #
coedge $-1 $338 $337 $136 $226 reversed $134 $-1 #
edge $-1 $344 -15.164251958584002 $345 15.164251958584002 $225 $346 forward 7 unknown #
coedge $-1 $138 $137 $222 $339 reversed $54 $-1 #
coedge $-1 $347 $348 $137 $229 forward $220 $-1 #
edge $-1 $349 11.488047860266235 $235 28.014884240879098 $228 $350 forward 7 unknown #
coedge $-1 $351 $352 $138 $231 forward $334 $-1 #
edge $-1 $236 -28.014884240879098 $353 -11.488047860266235 $230 $354 forward 7 unknown #
coedge $-1 $355 $139 $352 $356 reversed $234 $-1 #
coedge $-1 $139 $355 $347 $357 reversed $234 $-1 #
loop $-1 $-1 $355 $333 #
vertex $-1 $357 $358 #
vertex $-1 $140 $359 #
straight-curve $-1 -47.766350291451765 -9.4014169459182497 0 0 0 1 I I #
face $-1 $-1 $250 $32 $-1 $360 forward single #
loop $-1 $-1 $361 $141 #
plane-surface $-1 0 -30.847029999001869 0 0 1 0 0 0 1 forward_v I I I I #
coedge $-1 $362 $363 $364 $365 reversed $142 $-1 #
coedge $-1 $366 $144 $146 $248 forward $89 $-1 #
coedge $-1 $144 $366 $362 $367 forward $89 $-1 #
coedge $-1 $364 $147 $144 $245 forward $250 $-1 #
edge $-1 $252 -3.5698675141930813 $368 5.6453936536875595 $244 $369 forward 7 unknown #
coedge $-1 $370 $371 $145 $247 forward $239 $-1 #
edge $-1 $372 -32.859291742230702 $251 -28.272262806931558 $246 $373 forward 7 unknown #
edge $-1 $252 -7.6219913108901469 $372 2.6645283896817444e-014 $146 $374 forward 7 unknown #
coedge $-1 $147 $364 $370 $375 forward $250 $-1 #
loop $-1 $-1 $364 $238 #
vertex $-1 $247 $376 #
vertex $-1 $148 $377 #
straight-curve $-1 2.5321044444458423 -44.170022569966079 15.164251958584003 0 1 0 I I #
coedge $-1 $254 $254 $-1 $378 reversed $151 $-1 #
edge $-1 $379 0 $379 6.2831853071796004 $152 $380 forward 7 unknown #
vertex $-1 $155 $381 #
ellipse-curve $-1 -4.05022496118319 -27.80343356180731 12.870737490934427 0 -0.6018150307709319 0.79863550430605224 1 0 0 1 I I #
coedge $-1 $258 $258 $-1 $382 reversed $158 $-1 #
edge $-1 $383 0 $383 6.2831853071796004 $159 $384 forward 7 unknown #
vertex $-1 $162 $385 #
ellipse-curve $-1 -0.10082731780577348 -27.80343356180731 12.870737490934427 0 -0.6018150307709319 0.79863550430605224 1 0 0 1 I I #
face $-1 $-1 $274 $35 $-1 $386 forward single #
loop $-1 $-1 $387 $163 #
plane-surface $-1 0 -30.847029999001869 0 0 1 0 0 0 1 forward_v I I I I #
coedge $-1 $388 $389 $390 $391 reversed $164 $-1 #
coedge $-1 $392 $166 $168 $272 forward $103 $-1 #
coedge $-1 $166 $392 $388 $393 forward $103 $-1 #
coedge $-1 $390 $169 $166 $269 forward $274 $-1 #
edge $-1 $276 -13.908811843993991 $394 -4.6935506761133503 $268 $395 forward 7 unknown #
coedge $-1 $396 $397 $167 $271 forward $263 $-1 #
edge $-1 $398 -32.859291742230702 $275 -28.272262806931558 $270 $399 forward 7 unknown #
edge $-1 $276 -7.6219913108901469 $398 2.6645283896817444e-014 $168 $400 forward 7 unknown #
coedge $-1 $169 $390 $396 $401 forward $274 $-1 #
loop $-1 $-1 $390 $262 #
vertex $-1 $271 $402 #
vertex $-1 $170 $403 #
straight-curve $-1 23.209993104047662 -44.170022569966079 15.164251958584003 0 1 0 I I #
coedge $-1 $278 $278 $-1 $404 reversed $173 $-1 #
edge $-1 $405 0 $405 6.2831853071796004 $174 $406 forward 7 unknown #
vertex $-1 $177 $407 #
ellipse-curve $-1 16.627663698418623 -27.80343356180731 12.870737490934427 0 -0.6018150307709319 0.79863550430605224 1 0 0 1 I I #
coedge $-1 $282 $282 $-1 $408 reversed $180 $-1 #
edge $-1 $409 0 $409 6.2831853071796004 $181 $410 forward 7 unknown #
vertex $-1 $184 $411 #
ellipse-curve $-1 20.577061341796046 -27.80343356180731 12.870737490934427 0 -0.6018150307709319 0.79863550430605224 1 0 0 1 I I #
face $-1 $-1 $298 $38 $-1 $412 forward single #
loop $-1 $-1 $413 $185 #
plane-surface $-1 0 30.847029999001869 0 0 -1 0 0 0 -1 forward_v I I I I #
coedge $-1 $414 $415 $416 $417 reversed $186 $-1 #
coedge $-1 $418 $188 $190 $296 forward $117 $-1 #
coedge $-1 $188 $418 $414 $419 forward $117 $-1 #
coedge $-1 $416 $191 $188 $293 forward $298 $-1 #
edge $-1 $300 -18.951411608214038 $420 -5.6247929970356907 $292 $421 forward 7 unknown #
coedge $-1 $422 $423 $189 $295 forward $287 $-1 #
edge $-1 $424 -51.037888372528641 $299 -43.56933461950041 $294 $425 forward 7 unknown #
edge $-1 $300 51.644129737095312 $424 61.694059998003738 $190 $426 forward 7 unknown #
coedge $-1 $191 $416 $422 $427 forward $298 $-1 #
loop $-1 $-1 $416 $286 #
vertex $-1 $295 $428 #
vertex $-1 $192 $429 #
straight-curve $-1 -31.239513910838902 30.280139842200843 15.164251958584003 0 -1 0 I I #
coedge $-1 $302 $302 $-1 $430 reversed $195 $-1 #
edge $-1 $431 0 $431 6.2831853071796004 $196 $432 forward 7 unknown #
vertex $-1 $199 $433 #
ellipse-curve $-1 -24.576204605249728 27.484672080544541 11.429975082069889 0 0.74314483375859142 0.66913059716165679 2.5 0 0 1 I I #
face $-1 $-1 $215 $30 $-1 $434 reversed single #
loop $-1 $-1 $322 $200 #
plane-surface $-1 0 30.847029999001869 0 0 -1 0 0 0 -1 forward_v I I I I #
coedge $-1 $435 $320 $323 $436 forward $201 $-1 #
coedge $-1 $326 $203 $204 $314 reversed $126 $-1 #
coedge $-1 $320 $435 $203 $312 reversed $201 $-1 #
edge $-1 $327 -15.164251958584002 $437 15.164251958584002 $311 $438 forward 7 unknown #
coedge $-1 $205 $204 $435 $439 forward $81 $-1 #
edge $-1 $318 -47.766350291451765 $437 47.766350291451765 $310 $440 forward 7 unknown #
coedge $-1 $323 $322 $205 $316 reversed $307 $-1 #
edge $-1 $441 -47.766350291451765 $317 47.766350291451765 $315 $442 forward 7 unknown #
vertex $-1 $207 $443 #
vertex $-1 $329 $444 #
straight-curve $-1 47.766350291451765 0 -15.164251958584002 0 -1 0 I I #
coedge $-1 $309 $311 $208 $321 reversed $201 $-1 #
edge $-1 $324 -30.847029999001869 $327 30.847029999001869 $320 $445 forward 7 unknown #
coedge $-1 $315 $209 $214 $330 forward $307 $-1 #
coedge $-1 $209 $315 $309 $436 reversed $307 $-1 #
vertex $-1 $210 $446 #
straight-curve $-1 0 30.847029999001869 15.164251958584002 -1 0 0 I I #
coedge $-1 $211 $310 $213 $329 reversed $126 $-1 #
vertex $-1 $321 $447 #
straight-curve $-1 0 -30.847029999001869 15.164251958584002 1 0 0 I I #
edge $-1 $216 -15.164251958584002 $318 15.164251958584002 $213 $448 forward 7 unknown #
edge $-1 $217 -15.164251958584002 $317 15.164251958584002 $214 $449 forward 7 unknown #
point $-1 47.766350291451765 -30.847029999001869 15.164251958584002 #
point $-1 47.766350291451765 30.847029999001869 15.164251958584002 #
face $-1 $-1 $234 $31 $-1 $450 reversed single #
loop $-1 $-1 $342 $219 #
plane-surface $-1 0 0 15.164251958584002 0 0 1 1 0 0 forward_v I I I I #
coedge $-1 $348 $347 $223 $341 forward $220 $-1 #
coedge $-1 $225 $222 $348 $451 reversed $134 $-1 #
coedge $-1 $222 $225 $351 $452 reversed $134 $-1 #
edge $-1 $353 -15.164251958584002 $349 15.164251958584002 $222 $453 forward 7 unknown #
coedge $-1 $224 $223 $355 $454 reversed $85 $-1 #
edge $-1 $455 -28.014884240879098 $345 -11.488047860266235 $336 $456 forward 7 unknown #
coedge $-1 $352 $351 $224 $343 forward $334 $-1 #
edge $-1 $344 11.488047860266235 $457 28.014884240879098 $342 $458 forward 7 unknown #
vertex $-1 $343 $459 #
vertex $-1 $341 $460 #
straight-curve $-1 -31.239513910838902 -0.51852608183386195 0 0 0 -1 I I #
coedge $-1 $336 $228 $233 $357 forward $220 $-1 #
coedge $-1 $228 $336 $337 $451 forward $220 $-1 #
vertex $-1 $229 $461 #
straight-curve $-1 -19.751466050572667 -9.4014169459182497 -15.164251958584002 -1 0 0 I I #
coedge $-1 $342 $230 $338 $452 forward $334 $-1 #
coedge $-1 $230 $342 $232 $356 forward $334 $-1 #
vertex $-1 $231 $462 #
straight-curve $-1 -19.751466050572667 -9.4014169459182497 15.164251958584002 1 0 0 I I #
coedge $-1 $233 $232 $340 $454 forward $234 $-1 #
edge $-1 $457 0.51852608183386195 $236 9.4014169459182497 $232 $463 forward 7 unknown #
edge $-1 $235 -9.4014169459182497 $455 -0.51852608183386195 $233 $464 forward 7 unknown #
point $-1 -47.766350291451765 -9.4014169459182497 -15.164251958584002 #
point $-1 -47.766350291451765 -9.4014169459182497 15.164251958584002 #
plane-surface $-1 0 0 15.164251958584002 0 0 1 1 0 0 forward_v I I I I #
coedge $-1 $371 $370 $363 $465 forward $239 $-1 #
coedge $-1 $363 $241 $243 $367 reversed $142 $-1 #
coedge $-1 $241 $362 $361 $465 reversed $142 $-1 #
coedge $-1 $249 $244 $241 $365 forward $250 $-1 #
edge $-1 $368 -19.410185445353331 $466 -13.32299257096421 $364 $467 forward 7 unknown #
coedge $-1 $243 $242 $371 $468 reversed $89 $-1 #
edge $-1 $469 -2.6645283896817444e-014 $368 7.6219913108901469 $362 $470 forward 7 unknown #
vertex $-1 $245 $471 #
straight-curve $-1 -1.0377630697472391 -24.759837124612748 15.164251958584002 -1 0 0 I I #
coedge $-1 $361 $246 $249 $375 reversed $239 $-1 #
coedge $-1 $246 $361 $366 $468 forward $239 $-1 #
vertex $-1 $247 $472 #
straight-curve $-1 2.5321044444458423 -30.847029999001869 43.436514765515561 0 0 1 I I #
straight-curve $-1 2.5321044444458423 -30.847029999001848 10.577223023284873 0 -0.79863550430605224 -0.6018150307709319 I I #
edge $-1 $466 -6.6831567234347986 $251 2.5321044444458423 $370 $473 forward 7 unknown #
point $-1 2.5321044444458423 -30.847029999001869 15.164251958584002 #
point $-1 2.5321044444458423 -24.759837124612748 15.164251958584002 #
edge $-1 $474 1 $474 0 $254 $-1 forward 7 unknown #
vertex $-1 $255 $475 #
ellipse-curve $-1 -4.05022496118319 -26.600152463722122 11.273929572461249 0 -0.6018150307709319 0.79863550430605224 1 0 0 1 I I #
point $-1 -3.05022496118319 -27.803433561807317 12.870737490934438 #
edge $-1 $476 1 $476 0 $258 $-1 forward 7 unknown #
vertex $-1 $259 $477 #
ellipse-curve $-1 -0.10082731780577348 -26.600152463722122 11.273929572461249 0 -0.6018150307709319 0.79863550430605224 1 0 0 1 I I #
point $-1 0.89917268219422652 -27.803433561807317 12.870737490934438 #
plane-surface $-1 0 0 15.164251958584002 0 0 1 1 0 0 forward_v I I I I #
coedge $-1 $397 $396 $389 $478 forward $263 $-1 #
coedge $-1 $389 $265 $267 $393 reversed $164 $-1 #
coedge $-1 $265 $388 $387 $478 reversed $164 $-1 #
coedge $-1 $273 $268 $265 $391 forward $274 $-1 #
edge $-1 $394 -19.410185445353331 $479 -13.32299257096421 $390 $480 forward 7 unknown #
coedge $-1 $267 $266 $397 $481 reversed $103 $-1 #
edge $-1 $482 -2.6645283896817444e-014 $394 7.6219913108901469 $388 $483 forward 7 unknown #
vertex $-1 $269 $484 #
straight-curve $-1 9.3011812600536707 -24.759837124612748 15.164251958584002 -1 0 0 I I #
coedge $-1 $387 $270 $273 $401 reversed $263 $-1 #
coedge $-1 $270 $387 $392 $481 forward $263 $-1 #
vertex $-1 $271 $485 #
straight-curve $-1 23.209993104047662 -30.847029999001869 43.436514765515561 0 0 1 I I #
straight-curve $-1 23.209993104047662 -30.847029999001848 10.577223023284873 0 -0.79863550430605224 -0.6018150307709319 I I #
edge $-1 $479 13.994731936167021 $275 23.209993104047662 $396 $486 forward 7 unknown #
point $-1 23.209993104047662 -30.847029999001869 15.164251958584002 #
point $-1 23.209993104047662 -24.759837124612748 15.164251958584002 #
edge $-1 $487 1 $487 0 $278 $-1 forward 7 unknown #
vertex $-1 $279 $488 #
ellipse-curve $-1 16.627663698418623 -26.600152463722122 11.273929572461249 0 -0.6018150307709319 0.79863550430605224 1 0 0 1 I I #
point $-1 17.627663698418623 -27.803433561807317 12.870737490934438 #
edge $-1 $489 1 $489 0 $282 $-1 forward 7 unknown #
vertex $-1 $283 $490 #
ellipse-curve $-1 20.577061341796046 -26.600152463722122 11.273929572461249 0 -0.6018150307709319 0.79863550430605224 1 0 0 1 I I #
point $-1 21.577061341796046 -27.803433561807317 12.870737490934438 #
plane-surface $-1 0 0 15.164251958584002 0 0 1 1 0 0 forward_v I I I I #
coedge $-1 $423 $422 $415 $491 forward $287 $-1 #
coedge $-1 $415 $289 $291 $419 reversed $186 $-1 #
coedge $-1 $289 $414 $413 $491 reversed $186 $-1 #
coedge $-1 $297 $292 $289 $417 forward $298 $-1 #
edge $-1 $420 -6.1578256801136284 $492 0.56689015680102628 $416 $493 forward 7 unknown #
coedge $-1 $291 $290 $423 $494 reversed $117 $-1 #
edge $-1 $495 -61.694059998003738 $420 -51.644129737095312 $414 $496 forward 7 unknown #
vertex $-1 $293 $497 #
straight-curve $-1 -12.288102302624864 24.122314162087207 15.164251958584003 1 0 0 I I #
coedge $-1 $413 $294 $297 $427 reversed $287 $-1 #
coedge $-1 $294 $413 $418 $494 forward $287 $-1 #
vertex $-1 $295 $498 #
straight-curve $-1 -31.239513910838902 30.847029999001869 58.733586578084413 0 0 1 I I #
straight-curve $-1 -31.239513910838902 -10.434353208789453 53.543320166664827 0 0.66913059716165679 -0.74314483375859142 I I #
edge $-1 $492 17.912895299660555 $299 31.239513910838902 $422 $499 forward 7 unknown #
point $-1 -31.239513910838902 30.847029999001869 15.164251958584002 #
point $-1 -31.239513910838902 24.122314162087214 15.164251958584003 #
edge $-1 $500 1 $500 0 $302 $-1 forward 7 unknown #
vertex $-1 $303 $501 #
ellipse-curve $-1 -24.576204605249728 21.666939151266025 6.1916649542762254 0 0.74314483375859142 0.66913059716165679 2.5 0 0 1 I I #
point $-1 -22.076204605249728 27.484672080544552 11.429975082069898 #
plane-surface $-1 47.766350291451765 0 0 -1 0 0 0 0 1 forward_v I I I I #
coedge $-1 $311 $309 $313 $439 reversed $201 $-1 #
edge $-1 $324 -15.164251958584002 $441 15.164251958584002 $323 $502 forward 7 unknown #
vertex $-1 $439 $503 #
straight-curve $-1 -47.766350291451765 -30.847029999001869 0 0 0 -1 I I #
edge $-1 $437 -30.847029999001869 $441 30.847029999001869 $435 $504 forward 7 unknown #
straight-curve $-1 0 -30.847029999001869 -15.164251958584002 -1 0 0 I I #
vertex $-1 $316 $505 #
straight-curve $-1 0 30.847029999001869 -15.164251958584002 1 0 0 I I #
point $-1 47.766350291451765 30.847029999001869 -15.164251958584002 #
point $-1 47.766350291451765 -30.847029999001869 -15.164251958584002 #
straight-curve $-1 -47.766350291451765 0 15.164251958584002 0 -1 0 I I #
point $-1 -47.766350291451765 30.847029999001869 15.164251958584002 #
point $-1 -47.766350291451765 -30.847029999001869 15.164251958584002 #
straight-curve $-1 47.766350291451765 -30.847029999001869 0 0 0 -1 I I #
straight-curve $-1 47.766350291451765 30.847029999001869 0 0 0 -1 I I #
plane-surface $-1 -47.766350291451765 0 0 1 0 0 0 0 -1 forward_v I I I I #
edge $-1 $345 -1.961459675104166 $349 6.9214311889802218 $348 $506 forward 7 unknown #
edge $-1 $353 -6.9214311889802218 $344 1.961459675104166 $351 $507 forward 7 unknown #
straight-curve $-1 -31.239513910838902 -9.4014169459182497 0 0 0 -1 I I #
edge $-1 $457 -15.164251958584002 $455 15.164251958584002 $355 $508 forward 7 unknown #
vertex $-1 $454 $509 #
straight-curve $-1 -19.751466050572667 -0.51852608183386195 -15.164251958584002 1 0 0 I I #
vertex $-1 $356 $510 #
straight-curve $-1 -19.751466050572667 -0.51852608183386195 15.164251958584002 -1 0 0 I I #
point $-1 -31.239513910838902 -0.51852608183386195 15.164251958584002 #
point $-1 -31.239513910838902 -0.51852608183386195 -15.164251958584002 #
point $-1 -31.239513910838902 -9.4014169459182497 -15.164251958584002 #
point $-1 -31.239513910838902 -9.4014169459182497 15.164251958584002 #
straight-curve $-1 -47.766350291451765 0 15.164251958584002 0 -1 0 I I #
straight-curve $-1 -47.766350291451765 0 -15.164251958584002 0 1 0 I I #
edge $-1 $466 28.272262806931558 $469 32.859291742230702 $361 $511 forward 7 unknown #
vertex $-1 $375 $512 #
straight-curve $-1 -6.6831567234347986 -44.170022569966079 15.164251958584003 0 -1 0 I I #
edge $-1 $469 -5.6453936536875595 $372 3.5698675141930813 $371 $513 forward 7 unknown #
vertex $-1 $468 $514 #
straight-curve $-1 -6.6831567234347986 -30.847029999001848 10.577223023284873 0 0.79863550430605224 0.6018150307709319 I I #
point $-1 -6.6831567234347986 -24.759837124612748 15.164251958584002 #
point $-1 2.5321044444458423 -30.847029999001869 10.577223023284857 #
straight-curve $-1 0 -30.847029999001869 15.164251958584002 1 0 0 I I #
vertex $-1 $378 $515 #
point $-1 -3.05022496118319 -26.600152463722122 11.273929572461249 #
vertex $-1 $382 $516 #
point $-1 0.89917268219422652 -26.600152463722122 11.273929572461249 #
edge $-1 $479 28.272262806931558 $482 32.859291742230702 $387 $517 forward 7 unknown #
vertex $-1 $401 $518 #
straight-curve $-1 13.994731936167021 -44.170022569966079 15.164251958584003 0 -1 0 I I #
edge $-1 $482 4.6935506761133503 $398 13.908811843993991 $397 $519 forward 7 unknown #
vertex $-1 $481 $520 #
straight-curve $-1 13.994731936167021 -30.847029999001848 10.577223023284873 0 0.79863550430605224 0.6018150307709319 I I #
point $-1 13.994731936167021 -24.759837124612748 15.164251958584002 #
point $-1 23.209993104047662 -30.847029999001869 10.577223023284857 #
straight-curve $-1 0 -30.847029999001869 15.164251958584002 1 0 0 I I #
vertex $-1 $404 $521 #
point $-1 17.627663698418623 -26.600152463722122 11.273929572461249 #
vertex $-1 $408 $522 #
point $-1 21.577061341796046 -26.600152463722122 11.273929572461249 #
edge $-1 $492 43.56933461950041 $495 51.037888372528641 $413 $523 forward 7 unknown #
vertex $-1 $427 $524 #
straight-curve $-1 -17.912895299660555 30.280139842200843 15.164251958584003 0 1 0 I I #
edge $-1 $495 5.6247929970356907 $424 18.951411608214038 $423 $525 forward 7 unknown #
vertex $-1 $494 $526 #
straight-curve $-1 -17.912895299660555 -10.434353208789453 53.543320166664827 0 -0.66913059716165679 0.74314483375859142 I I #
point $-1 -17.912895299660555 24.122314162087214 15.164251958584003 #
point $-1 -31.239513910838902 30.847029999001869 7.6956982055557717 #
straight-curve $-1 0 30.847029999001869 15.164251958584002 -1 0 0 I I #
vertex $-1 $430 $527 #
point $-1 -22.076204605249728 21.666939151266025 6.1916649542762254 #
straight-curve $-1 -47.766350291451765 30.847029999001869 0 0 0 -1 I I #
point $-1 -47.766350291451765 -30.847029999001869 -15.164251958584002 #
straight-curve $-1 -47.766350291451765 0 -15.164251958584002 0 1 0 I I #
point $-1 -47.766350291451765 30.847029999001869 -15.164251958584002 #
straight-curve $-1 -31.239513910838902 -2.4799857569380279 -15.164251958584002 0 -1 0 I I #
straight-curve $-1 -31.239513910838902 -2.4799857569380279 15.164251958584002 0 1 0 I I #
straight-curve $-1 -47.766350291451765 -0.51852608183386195 0 0 0 -1 I I #
point $-1 -47.766350291451765 -0.51852608183386195 -15.164251958584002 #
point $-1 -47.766350291451765 -0.51852608183386195 15.164251958584002 #
straight-curve $-1 -6.6831567234347986 -30.847029999001869 43.436514765515561 0 0 -1 I I #
point $-1 -6.6831567234347986 -30.847029999001869 15.164251958584002 #
straight-curve $-1 -1.0377630697472391 -30.847029999001869 10.577223023284855 1 0 0 I I #
point $-1 -6.6831567234347986 -30.847029999001869 10.577223023284857 #
point $-1 -4.05022496118319 -25.998337432951192 10.475294068155197 #
point $-1 -0.10082731780577348 -25.998337432951192 10.475294068155197 #
straight-curve $-1 13.994731936167021 -30.847029999001869 43.436514765515561 0 0 -1 I I #
point $-1 13.994731936167021 -30.847029999001869 15.164251958584002 #
straight-curve $-1 9.3011812600536707 -30.847029999001869 10.577223023284855 1 0 0 I I #
point $-1 13.994731936167021 -30.847029999001869 10.577223023284857 #
point $-1 16.627663698418623 -25.998337432951192 10.475294068155197 #
point $-1 20.577061341796046 -25.998337432951192 10.475294068155197 #
straight-curve $-1 -17.912895299660555 30.847029999001869 58.733586578084413 0 0 -1 I I #
point $-1 -17.912895299660555 30.847029999001869 15.164251958584002 #
straight-curve $-1 -12.288102302624864 30.847029999001869 7.6956982055557788 -1 0 0 I I #
point $-1 -17.912895299660555 30.847029999001869 7.6956982055557717 #
point $-1 -24.576204605249728 19.809077066869545 4.5188384613720824 #
End-of-ACIS-data 