500 0 8 0           
7 Unknown 11 ACIS 5.0 NT 24 Fri Mar 26 03:27:27 1999 
-1 9.9999999999999995e-007 1e-010 
body $-1 $8 $-1 $9 #
body $-1 $10 $-1 $11 #
body $-1 $12 $-1 $13 #
body $-1 $14 $-1 $15 #
body $-1 $16 $-1 $17 #
body $-1 $18 $-1 $19 #
body $-1 $20 $-1 $21 #
body $-1 $22 $-1 $23 #
lump $-1 $-1 $24 $0 #
transform $-1 1 0 0 0 1 0 0 0 1 59.580675679799796 38.222402640764656 12.639277301354328 1 rotate no_reflect no_shear #
lump $-1 $-1 $25 $1 #
transform $-1 1 0 0 0 1 0 0 0 1 59.580675679799796 38.222402640764656 12.639277301354328 1 rotate no_reflect no_shear #
lump $-1 $-1 $26 $2 #
transform $-1 1 0 0 0 1 0 0 0 1 59.580675679799796 38.222402640764656 12.639277301354328 1 rotate no_reflect no_shear #
lump $-1 $-1 $27 $3 #
transform $-1 1 0 0 0 1 0 0 0 1 59.580675679799796 38.222402640764656 12.639277301354328 1 rotate no_reflect no_shear #
lump $-1 $-1 $28 $4 #
transform $-1 1 0 0 0 1 0 0 0 1 59.580675679799796 38.222402640764656 12.639277301354328 1 rotate no_reflect no_shear #
lump $-1 $-1 $29 $5 #
transform $-1 1 0 0 0 1 0 0 0 1 59.580675679799796 38.222402640764656 12.639277301354328 1 rotate no_reflect no_shear #
lump $-1 $-1 $30 $6 #
transform $-1 1 0 0 0 1 0 0 0 1 59.580675679799796 38.222402640764656 12.639277301354328 1 rotate no_reflect no_shear #
lump $-1 $-1 $31 $7 #
transform $-1 1 0 0 0 1 0 0 0 1 59.580675679799796 38.222402640764656 12.639277301354328 1 rotate no_reflect no_shear #
shell $-1 $-1 $-1 $32 $-1 $8 #
shell $-1 $-1 $-1 $33 $-1 $10 #
shell $-1 $-1 $-1 $34 $-1 $12 #
shell $-1 $-1 $-1 $35 $-1 $14 #
shell $-1 $-1 $-1 $36 $-1 $16 #
shell $-1 $-1 $-1 $37 $-1 $18 #
shell $-1 $-1 $-1 $38 $-1 $20 #
shell $-1 $-1 $-1 $39 $-1 $22 #
face $-1 $40 $41 $24 $-1 $42 forward single #
face $-1 $43 $44 $25 $-1 $45 reversed single #
face $-1 $46 $47 $26 $-1 $48 reversed single #
face $-1 $49 $50 $27 $-1 $51 forward single #
face $-1 $52 $53 $28 $-1 $54 forward single #
face $-1 $55 $56 $29 $-1 $57 reversed single #
face $-1 $58 $59 $30 $-1 $60 forward single #
face $-1 $61 $62 $31 $-1 $63 forward single #
face $-1 $64 $65 $24 $-1 $66 reversed single #
loop $-1 $-1 $67 $32 #
plane-surface $-1 0 0 12.639277301354328 0 0 1 1 0 0 forward_v I I I I #
face $-1 $68 $69 $25 $-1 $70 reversed single #
loop $-1 $-1 $71 $33 #
plane-surface $-1 0 -32.087587431932761 9.5829691324786008 0 0 1 1 0 0 forward_v I I I I #
face $-1 $72 $73 $26 $-1 $74 reversed single #
loop $-1 $-1 $75 $34 #
plane-surface $-1 83.034073153938905 -12.697632418994433 176.14495685569574 0 -1 0 -0.79863551827123203 0 -0.60181501223851219 forward_v I I I I #
face $-1 $76 $77 $27 $-1 $78 forward single #
loop $-1 $79 $80 $35 #
cone-surface $-1 57.552876591761361 -22.165589421927599 10.382195409972185 -0.79863551827123203 0 -0.60181501223851219 0.3009075061192561 0 -0.39931775913561601 1 I I 0 1 0.5 forward I I I I #
face $-1 $81 $82 $28 $-1 $83 forward single #
loop $-1 $84 $85 $36 #
cone-surface $-1 57.552876591761361 -16.4848152201677 10.382195409972185 -0.79863551827123203 0 -0.60181501223851219 0.3009075061192561 0 -0.39931775913561601 1 I I 0 1 0.5 forward I I I I #
face $-1 $86 $87 $29 $-1 $88 reversed single #
loop $-1 $-1 $89 $37 #
plane-surface $-1 -59.580675679799782 -19.325202321047648 9.2653791278864617 -0.79863551827123203 0 0.60181501223851219 0.60181501223851219 0 0.79863551827123203 forward_v I I I I #
face $-1 $90 $91 $30 $-1 $92 forward single #
loop $-1 $93 $94 $38 #
cone-surface $-1 -57.552876591761375 -22.165589421927599 10.382195409972185 0.79863551827123203 0 -0.60181501223851219 0.3009075061192561 0 0.39931775913561601 1 I I 0 1 0.5 forward I I I I #
face $-1 $95 $96 $31 $-1 $97 forward single #
loop $-1 $98 $99 $39 #
cone-surface $-1 -57.552876591761375 -16.4848152201677 10.382195409972185 0.79863551827123203 0 -0.60181501223851219 0.3009075061192561 0 0.39931775913561601 1 I I 0 1 0.5 forward I I I I #
face $-1 $100 $101 $24 $-1 $102 reversed single #
loop $-1 $-1 $103 $40 #
plane-surface $-1 0 0 -12.639277301354328 0 0 1 1 0 0 forward_v I I I I #
coedge $-1 $104 $105 $106 $107 forward $41 $-1 #
face $-1 $108 $109 $25 $-1 $110 reversed single #
loop $-1 $-1 $111 $43 #
plane-surface $-1 0 -25.952772223100865 11.111123216916463 0 -1 0 0 0 -1 forward_v I I I I #
coedge $-1 $112 $113 $114 $115 reversed $44 $-1 #
face $-1 $116 $117 $26 $-1 $118 forward single #
loop $-1 $-1 $119 $46 #
plane-surface $-1 -12.132414447035288 -19.325202321047648 104.43186672886065 0.79863551827123203 0 0.60181501223851219 0.60181501223851219 0 -0.79863551827123203 forward_v I I I I #
coedge $-1 $120 $121 $122 $123 reversed $47 $-1 #
face $-1 $-1 $124 $27 $-1 $125 forward single #
loop $-1 $126 $127 $49 #
cone-surface $-1 56.596625904637918 -22.165589421927599 9.6616088522643491 -0.79863551827123203 0 -0.60181501223851219 0.15045375305962805 0 -0.19965887956780801 1 I I -0.70710678118654746 0.70710678118654746 0.25 forward I I I I #
loop $-1 $-1 $128 $35 #
coedge $-1 $80 $80 $129 $130 reversed $50 $-1 #
face $-1 $-1 $131 $28 $-1 $132 forward single #
loop $-1 $133 $134 $52 #
cone-surface $-1 56.596625904637918 -16.4848152201677 9.6616088522643491 -0.79863551827123203 0 -0.60181501223851219 0.15045375305962805 0 -0.19965887956780801 1 I I -0.70710678118654746 0.70710678118654746 0.25 forward I I I I #
loop $-1 $-1 $135 $36 #
coedge $-1 $85 $85 $136 $137 reversed $53 $-1 #
face $-1 $138 $139 $29 $-1 $140 forward single #
loop $-1 $-1 $141 $55 #
plane-surface $-1 -154.74716328077398 -12.697632418994433 80.978469254721546 0 -1 0 0.79863551827123203 0 -0.60181501223851219 forward_v I I I I #
coedge $-1 $142 $143 $144 $145 reversed $56 $-1 #
face $-1 $-1 $146 $30 $-1 $147 forward single #
loop $-1 $148 $149 $58 #
cone-surface $-1 -56.596625904637932 -22.165589421927599 9.6616088522643491 0.79863551827123203 0 -0.60181501223851219 0.15045375305962805 0 0.19965887956780801 1 I I -0.70710678118654746 0.70710678118654746 0.25 forward I I I I #
loop $-1 $-1 $150 $38 #
coedge $-1 $94 $94 $151 $152 reversed $59 $-1 #
face $-1 $-1 $153 $31 $-1 $154 forward single #
loop $-1 $155 $156 $61 #
cone-surface $-1 -56.596625904637932 -16.4848152201677 9.6616088522643491 0.79863551827123203 0 -0.60181501223851219 0.15045375305962805 0 0.19965887956780801 1 I I -0.70710678118654746 0.70710678118654746 0.25 forward I I I I #
loop $-1 $-1 $157 $39 #
coedge $-1 $99 $99 $158 $159 reversed $62 $-1 #
face $-1 $160 $161 $24 $-1 $162 reversed single #
loop $-1 $-1 $163 $64 #
plane-surface $-1 0 -38.222402640764656 0 0 1 0 0 0 1 forward_v I I I I #
coedge $-1 $164 $165 $166 $167 forward $65 $-1 #
coedge $-1 $168 $67 $169 $170 forward $41 $-1 #
coedge $-1 $67 $168 $171 $172 forward $41 $-1 #
coedge $-1 $173 $174 $67 $107 reversed $175 $-1 #
edge $-1 $176 -38.222402640764656 $177 38.222402640764656 $106 $178 forward 7 unknown #
face $-1 $179 $180 $25 $-1 $181 reversed single #
loop $-1 $-1 $182 $68 #
plane-surface $-1 -59.580675679799796 0 0 1 0 0 0 0 -1 forward_v I I I I #
coedge $-1 $183 $184 $185 $186 reversed $69 $-1 #
coedge $-1 $187 $71 $188 $189 reversed $44 $-1 #
coedge $-1 $71 $187 $190 $191 forward $44 $-1 #
coedge $-1 $192 $193 $71 $115 forward $194 $-1 #
edge $-1 $195 -22.178608924798276 $196 -9.9089785071344849 $114 $197 forward 7 unknown #
face $-1 $198 $199 $26 $-1 $200 forward single #
loop $-1 $-1 $201 $72 #
plane-surface $-1 0 -25.952772223100865 11.111123216916463 0 -1 0 0 0 -1 forward_v I I I I #
coedge $-1 $202 $203 $204 $205 reversed $73 $-1 #
coedge $-1 $121 $75 $206 $207 reversed $47 $-1 #
coedge $-1 $75 $120 $202 $208 reversed $47 $-1 #
coedge $-1 $204 $209 $75 $123 forward $199 $-1 #
edge $-1 $210 -18.063639102830344 $211 -15.521224541864775 $122 $212 forward 7 unknown #
loop $-1 $-1 $129 $76 #
plane-surface $-1 -12.132414447035288 -19.325202321047648 104.43186672886065 0.79863551827123203 0 0.60181501223851219 0.60181501223851219 0 -0.79863551827123203 forward_v I I I I #
loop $-1 $-1 $213 $49 #
coedge $-1 $127 $127 $128 $214 reversed $77 $-1 #
coedge $-1 $128 $128 $127 $214 forward $79 $-1 #
coedge $-1 $129 $129 $80 $130 forward $124 $-1 #
edge $-1 $215 0 $215 6.2831853071796004 $129 $216 forward 7 unknown #
loop $-1 $-1 $136 $81 #
plane-surface $-1 -12.132414447035288 -19.325202321047648 104.43186672886065 0.79863551827123203 0 0.60181501223851219 0.60181501223851219 0 -0.79863551827123203 forward_v I I I I #
loop $-1 $-1 $217 $52 #
coedge $-1 $134 $134 $135 $218 reversed $82 $-1 #
coedge $-1 $135 $135 $134 $218 forward $84 $-1 #
coedge $-1 $136 $136 $85 $137 forward $131 $-1 #
edge $-1 $219 0 $219 6.2831853071796004 $136 $220 forward 7 unknown #
face $-1 $221 $222 $29 $-1 $223 reversed single #
loop $-1 $-1 $144 $86 #
plane-surface $-1 0 0 12.639277301354328 0 0 1 1 0 0 forward_v I I I I #
coedge $-1 $224 $225 $226 $227 reversed $87 $-1 #
coedge $-1 $228 $89 $229 $230 reversed $56 $-1 #
coedge $-1 $89 $228 $224 $231 forward $56 $-1 #
coedge $-1 $226 $232 $89 $145 forward $139 $-1 #
edge $-1 $233 -16.290171062577041 $234 -3.0350312584706085 $144 $235 forward 7 unknown #
loop $-1 $-1 $151 $90 #
plane-surface $-1 -59.580675679799782 -19.325202321047648 9.2653791278864617 -0.79863551827123203 0 0.60181501223851219 0.60181501223851219 0 0.79863551827123203 forward_v I I I I #
loop $-1 $-1 $236 $58 #
coedge $-1 $149 $149 $150 $237 reversed $91 $-1 #
coedge $-1 $150 $150 $149 $237 forward $93 $-1 #
coedge $-1 $151 $151 $94 $152 forward $146 $-1 #
edge $-1 $238 0 $238 6.2831853071796004 $151 $239 forward 7 unknown #
loop $-1 $-1 $158 $95 #
plane-surface $-1 -59.580675679799782 -19.325202321047648 9.2653791278864617 -0.79863551827123203 0 0.60181501223851219 0.60181501223851219 0 0.79863551827123203 forward_v I I I I #
loop $-1 $-1 $240 $61 #
coedge $-1 $156 $156 $157 $241 reversed $96 $-1 #
coedge $-1 $157 $157 $156 $241 forward $98 $-1 #
coedge $-1 $158 $158 $99 $159 forward $153 $-1 #
edge $-1 $242 0 $242 6.2831853071796004 $158 $243 forward 7 unknown #
face $-1 $244 $245 $24 $-1 $246 reversed single #
loop $-1 $-1 $247 $100 #
plane-surface $-1 -59.580675679799796 0 0 1 0 0 0 0 -1 forward_v I I I I #
coedge $-1 $248 $171 $249 $250 forward $101 $-1 #
coedge $-1 $251 $103 $248 $252 forward $65 $-1 #
coedge $-1 $103 $251 $253 $254 forward $65 $-1 #
coedge $-1 $174 $173 $103 $167 reversed $175 $-1 #
edge $-1 $255 -38.222402640764656 $256 38.222402640764656 $166 $257 forward 7 unknown #
coedge $-1 $105 $104 $258 $259 forward $41 $-1 #
coedge $-1 $260 $261 $104 $170 reversed $245 $-1 #
edge $-1 $177 -59.580675679799796 $262 59.580675679799796 $169 $263 forward 7 unknown #
coedge $-1 $163 $264 $105 $172 reversed $101 $-1 #
edge $-1 $265 -59.580675679799796 $176 59.580675679799796 $171 $266 forward 7 unknown #
coedge $-1 $166 $106 $264 $267 forward $175 $-1 #
coedge $-1 $106 $166 $260 $268 reversed $175 $-1 #
loop $-1 $-1 $173 $244 #
vertex $-1 $107 $269 #
vertex $-1 $107 $270 #
straight-curve $-1 59.580675679799796 0 12.639277301354328 0 1 0 I I #
face $-1 $271 $272 $25 $-1 $273 forward single #
loop $-1 $-1 $188 $108 #
plane-surface $-1 0 -38.222402640764656 0 0 1 0 0 0 1 forward_v I I I I #
coedge $-1 $274 $275 $184 $276 forward $109 $-1 #
coedge $-1 $190 $111 $192 $277 reversed $69 $-1 #
coedge $-1 $111 $190 $182 $276 reversed $69 $-1 #
coedge $-1 $278 $279 $111 $186 forward $272 $-1 #
edge $-1 $280 -59.580675679799796 $281 59.580675679799796 $185 $282 forward 7 unknown #
coedge $-1 $113 $112 $274 $283 reversed $44 $-1 #
coedge $-1 $284 $285 $112 $189 forward $180 $-1 #
edge $-1 $286 -59.580675679799796 $195 59.580675679799796 $188 $287 forward 7 unknown #
coedge $-1 $184 $183 $113 $191 reversed $69 $-1 #
edge $-1 $288 -59.580675679799796 $196 59.580675679799796 $190 $289 forward 7 unknown #
coedge $-1 $290 $114 $183 $277 forward $194 $-1 #
coedge $-1 $114 $290 $284 $291 forward $194 $-1 #
loop $-1 $-1 $192 $271 #
vertex $-1 $189 $292 #
vertex $-1 $115 $293 #
straight-curve $-1 59.580675679799796 -16.04379371596638 9.5829691324786008 0 1 0 I I #
face $-1 $-1 $294 $26 $-1 $295 reversed single #
loop $-1 $-1 $204 $116 #
plane-surface $-1 0 0 12.639277301354328 0 0 1 1 0 0 forward_v I I I I #
coedge $-1 $296 $297 $203 $298 reversed $117 $-1 #
coedge $-1 $299 $119 $121 $208 forward $73 $-1 #
coedge $-1 $119 $299 $201 $298 forward $73 $-1 #
coedge $-1 $300 $122 $119 $205 forward $199 $-1 #
edge $-1 $211 3.0350312584706085 $301 16.290171062577041 $204 $302 forward 7 unknown #
coedge $-1 $303 $304 $120 $207 forward $294 $-1 #
edge $-1 $305 -78.807099299961408 $210 -75.433201126493543 $206 $306 forward 7 unknown #
edge $-1 $211 114.93677319311485 $305 119.16135135959959 $121 $307 forward 7 unknown #
coedge $-1 $122 $300 $303 $308 forward $199 $-1 #
vertex $-1 $207 $309 #
vertex $-1 $123 $310 #
straight-curve $-1 41.517036576969453 -12.697632418994433 12.639277301354326 -1 0 0 I I #
coedge $-1 $213 $213 $-1 $311 reversed $126 $-1 #
edge $-1 $312 0 $312 6.2831853071796004 $127 $313 forward 7 unknown #
vertex $-1 $130 $314 #
ellipse-curve $-1 58.309468399317005 -22.165589421927599 10.952328214620401 0.79863551827123203 0 0.60181501223851219 0.3009075061192561 0 -0.39931775913561601 1 I I #
coedge $-1 $217 $217 $-1 $315 reversed $133 $-1 #
edge $-1 $316 0 $316 6.2831853071796004 $134 $317 forward 7 unknown #
vertex $-1 $137 $318 #
ellipse-curve $-1 58.309468399317005 -16.4848152201677 10.952328214620401 0.79863551827123203 0 0.60181501223851219 0.3009075061192561 0 -0.39931775913561601 1 I I #
face $-1 $-1 $319 $29 $-1 $320 forward single #
loop $-1 $-1 $321 $138 #
plane-surface $-1 -59.580675679799796 0 0 1 0 0 0 0 -1 forward_v I I I I #
coedge $-1 $225 $141 $143 $231 reversed $87 $-1 #
coedge $-1 $141 $224 $321 $322 reversed $87 $-1 #
coedge $-1 $323 $144 $141 $227 forward $139 $-1 #
edge $-1 $234 -20.335320521552767 $324 -17.792905960587191 $226 $325 forward 7 unknown #
coedge $-1 $143 $142 $326 $327 reversed $56 $-1 #
coedge $-1 $328 $329 $142 $230 forward $319 $-1 #
edge $-1 $330 -18.66531092527806 $233 -14.440732758793301 $229 $331 forward 7 unknown #
edge $-1 $332 -2.4157584020108747e-014 $234 4.2245781664847328 $224 $333 forward 7 unknown #
coedge $-1 $144 $323 $328 $334 forward $139 $-1 #
vertex $-1 $230 $335 #
vertex $-1 $145 $336 #
straight-curve $-1 -57.038261118834214 -9.662601160523824 12.63927730135433 0 1 0 I I #
coedge $-1 $236 $236 $-1 $337 reversed $148 $-1 #
edge $-1 $338 0 $338 6.2831853071796004 $149 $339 forward 7 unknown #
vertex $-1 $152 $340 #
ellipse-curve $-1 -58.309468399317005 -22.165589421927599 10.952328214620389 -0.79863551827123203 0 0.60181501223851219 0.3009075061192561 0 0.39931775913561601 1 I I #
coedge $-1 $240 $240 $-1 $341 reversed $155 $-1 #
edge $-1 $342 0 $342 6.2831853071796004 $156 $343 forward 7 unknown #
vertex $-1 $159 $344 #
ellipse-curve $-1 -58.309468399317005 -16.4848152201677 10.952328214620389 -0.79863551827123203 0 0.60181501223851219 0.3009075061192561 0 0.39931775913561601 1 I I #
face $-1 $-1 $175 $24 $-1 $345 reversed single #
loop $-1 $-1 $260 $160 #
plane-surface $-1 0 38.222402640764656 0 0 -1 0 0 0 -1 forward_v I I I I #
coedge $-1 $346 $258 $261 $347 forward $161 $-1 #
coedge $-1 $264 $163 $164 $252 reversed $101 $-1 #
coedge $-1 $258 $346 $163 $250 reversed $161 $-1 #
edge $-1 $265 -12.639277301354328 $348 12.639277301354328 $249 $349 forward 7 unknown #
coedge $-1 $165 $164 $346 $350 forward $65 $-1 #
edge $-1 $256 -59.580675679799796 $348 59.580675679799796 $248 $351 forward 7 unknown #
coedge $-1 $261 $260 $165 $254 reversed $245 $-1 #
edge $-1 $352 -59.580675679799796 $255 59.580675679799796 $253 $353 forward 7 unknown #
vertex $-1 $167 $354 #
vertex $-1 $267 $355 #
straight-curve $-1 59.580675679799796 0 -12.639277301354328 0 -1 0 I I #
coedge $-1 $247 $249 $168 $259 reversed $161 $-1 #
edge $-1 $262 -38.222402640764656 $265 38.222402640764656 $258 $356 forward 7 unknown #
coedge $-1 $253 $169 $174 $268 forward $245 $-1 #
coedge $-1 $169 $253 $247 $347 reversed $245 $-1 #
vertex $-1 $170 $357 #
straight-curve $-1 0 38.222402640764656 12.639277301354328 -1 0 0 I I #
coedge $-1 $171 $248 $173 $267 reversed $101 $-1 #
vertex $-1 $259 $358 #
straight-curve $-1 0 -38.222402640764656 12.639277301354328 1 0 0 I I #
edge $-1 $176 -12.639277301354328 $256 12.639277301354328 $173 $359 forward 7 unknown #
edge $-1 $177 -12.639277301354328 $255 12.639277301354328 $174 $360 forward 7 unknown #
point $-1 59.580675679799796 -38.222402640764656 12.639277301354328 #
point $-1 59.580675679799796 38.222402640764656 12.639277301354328 #
face $-1 $-1 $194 $25 $-1 $361 reversed single #
loop $-1 $-1 $185 $179 #
plane-surface $-1 0 0 12.639277301354328 0 0 1 1 0 0 forward_v I I I I #
coedge $-1 $362 $182 $187 $283 forward $109 $-1 #
coedge $-1 $182 $362 $278 $363 reversed $109 $-1 #
edge $-1 $281 -7.0837156928960932 $288 -4.0274075240203695 $182 $364 forward 7 unknown #
edge $-1 $196 4.0274075240203695 $280 7.0837156928960932 $192 $365 forward 7 unknown #
coedge $-1 $366 $185 $275 $363 forward $272 $-1 #
coedge $-1 $185 $366 $290 $367 forward $272 $-1 #
vertex $-1 $277 $368 #
vertex $-1 $363 $369 #
straight-curve $-1 0 -25.952772223100865 12.639277301354328 -1 0 0 I I #
edge $-1 $288 9.9089785071344849 $286 22.178608924798276 $274 $370 forward 7 unknown #
coedge $-1 $371 $188 $193 $291 reversed $180 $-1 #
coedge $-1 $188 $371 $362 $372 forward $180 $-1 #
vertex $-1 $189 $373 #
straight-curve $-1 0 -38.222402640764656 9.5829691324786008 1 0 0 I I #
vertex $-1 $283 $374 #
straight-curve $-1 0 -25.952772223100865 9.5829691324786008 1 0 0 I I #
coedge $-1 $193 $192 $279 $367 reversed $194 $-1 #
edge $-1 $375 -12.639277301354328 $195 -9.5829691324786008 $193 $376 forward 7 unknown #
point $-1 59.580675679799796 -38.222402640764656 9.5829691324786008 #
point $-1 59.580675679799796 -25.952772223100865 9.5829691324786008 #
loop $-1 $-1 $206 $198 #
plane-surface $-1 59.580675679799796 0 0 -1 0 0 0 0 1 forward_v I I I I #
coedge $-1 $297 $201 $377 $378 reversed $117 $-1 #
coedge $-1 $201 $296 $300 $379 reversed $117 $-1 #
edge $-1 $380 -119.16135135959959 $301 -114.93677319311485 $201 $381 forward 7 unknown #
coedge $-1 $203 $202 $304 $382 reversed $73 $-1 #
coedge $-1 $209 $204 $297 $379 forward $199 $-1 #
vertex $-1 $379 $383 #
straight-curve $-1 57.038261118834214 -9.662601160523824 12.639277301354333 0 -1 0 I I #
coedge $-1 $377 $206 $209 $308 reversed $294 $-1 #
coedge $-1 $206 $377 $299 $382 forward $294 $-1 #
vertex $-1 $207 $384 #
straight-curve $-1 59.580675679799796 -12.697632418994433 88.072478427847869 0 0 1 I I #
straight-curve $-1 -12.132414447035288 -12.697632418994433 104.43186672886065 0.60181501223851219 0 -0.79863551827123203 I I #
edge $-1 $385 -25.952772223100865 $210 -12.697632418994433 $303 $386 forward 7 unknown #
point $-1 59.580675679799796 -12.697632418994433 12.639277301354328 #
point $-1 57.038261118834228 -12.697632418994433 12.639277301354326 #
edge $-1 $387 1 $387 0 $213 $-1 forward 7 unknown #
vertex $-1 $214 $388 #
ellipse-curve $-1 56.796284784205724 -22.165589421927599 9.8120626053239768 0.79863551827123203 0 0.60181501223851219 0.3009075061192561 0 -0.39931775913561601 1 I I #
point $-1 58.610375905436257 -22.165589421927599 10.553010455484779 #
edge $-1 $389 1 $389 0 $217 $-1 forward 7 unknown #
vertex $-1 $218 $390 #
ellipse-curve $-1 56.796284784205724 -16.4848152201677 9.8120626053239768 0.79863551827123203 0 0.60181501223851219 0.3009075061192561 0 -0.39931775913561601 1 I I #
point $-1 58.610375905436257 -16.4848152201677 10.553010455484779 #
loop $-1 $-1 $229 $221 #
plane-surface $-1 0 -25.952772223100865 11.111123216916463 0 -1 0 0 0 -1 forward_v I I I I #
coedge $-1 $326 $391 $225 $322 forward $222 $-1 #
edge $-1 $324 27.849957326006447 $332 31.223855499474332 $321 $392 forward 7 unknown #
coedge $-1 $232 $226 $391 $393 forward $139 $-1 #
vertex $-1 $393 $394 #
straight-curve $-1 -77.373581640386988 -12.697632418994433 12.639277301354326 -1 0 0 I I #
coedge $-1 $395 $321 $228 $327 forward $222 $-1 #
edge $-1 $332 3.0350312584706085 $330 16.290171062577041 $326 $396 forward 7 unknown #
coedge $-1 $329 $229 $232 $334 reversed $319 $-1 #
coedge $-1 $229 $328 $395 $397 reversed $319 $-1 #
vertex $-1 $397 $398 #
straight-curve $-1 -48.347611356867944 -25.952772223100865 24.172159392389574 0.60181501223851219 0 0.79863551827123203 I I #
vertex $-1 $327 $399 #
straight-curve $-1 -59.580675679799782 -12.697632418994433 9.2653791278864617 0.60181501223851219 0 0.79863551827123203 I I #
edge $-1 $400 -59.580675679799796 $233 -57.038261118834221 $232 $401 forward 7 unknown #
point $-1 -57.038261118834221 -25.952772223100865 12.639277301354328 #
point $-1 -57.038261118834221 -12.697632418994433 12.639277301354328 #
edge $-1 $402 1 $402 0 $236 $-1 forward 7 unknown #
vertex $-1 $237 $403 #
ellipse-curve $-1 -56.796284784205739 -22.165589421927599 9.8120626053239768 -0.79863551827123203 0 0.60181501223851219 0.3009075061192561 0 0.39931775913561601 1 I I #
point $-1 -58.00856089319776 -22.165589421927599 11.351645973756012 #
edge $-1 $404 1 $404 0 $240 $-1 forward 7 unknown #
vertex $-1 $241 $405 #
ellipse-curve $-1 -56.796284784205739 -16.4848152201677 9.8120626053239768 -0.79863551827123203 0 0.60181501223851219 0.3009075061192561 0 0.39931775913561601 1 I I #
point $-1 -58.00856089319776 -16.4848152201677 11.351645973756012 #
plane-surface $-1 59.580675679799796 0 0 -1 0 0 0 0 1 forward_v I I I I #
coedge $-1 $249 $247 $251 $350 reversed $161 $-1 #
edge $-1 $262 -12.639277301354328 $352 12.639277301354328 $261 $406 forward 7 unknown #
vertex $-1 $350 $407 #
straight-curve $-1 -59.580675679799796 -38.222402640764656 0 0 0 -1 I I #
edge $-1 $348 -38.222402640764656 $352 38.222402640764656 $346 $408 forward 7 unknown #
straight-curve $-1 0 -38.222402640764656 -12.639277301354328 -1 0 0 I I #
vertex $-1 $254 $409 #
straight-curve $-1 0 38.222402640764656 -12.639277301354328 1 0 0 I I #
point $-1 59.580675679799796 38.222402640764656 -12.639277301354328 #
point $-1 59.580675679799796 -38.222402640764656 -12.639277301354328 #
straight-curve $-1 -59.580675679799796 0 12.639277301354328 0 -1 0 I I #
point $-1 -59.580675679799796 38.222402640764656 12.639277301354328 #
point $-1 -59.580675679799796 -38.222402640764656 12.639277301354328 #
straight-curve $-1 59.580675679799796 -38.222402640764656 0 0 0 -1 I I #
straight-curve $-1 59.580675679799796 38.222402640764656 0 0 0 -1 I I #
plane-surface $-1 59.580675679799796 0 0 -1 0 0 0 0 1 forward_v I I I I #
coedge $-1 $275 $274 $285 $372 reversed $109 $-1 #
edge $-1 $281 25.952772223100865 $410 38.222402640764656 $275 $411 forward 7 unknown #
straight-curve $-1 -59.580675679799796 -25.952772223100865 5.5555616084582313 0 0 -1 I I #
straight-curve $-1 59.580675679799796 -25.952772223100865 5.5555616084582313 0 0 1 I I #
coedge $-1 $279 $278 $371 $412 forward $272 $-1 #
edge $-1 $375 -38.222402640764656 $280 -25.952772223100865 $290 $413 forward 7 unknown #
point $-1 59.580675679799796 -25.952772223100865 12.639277301354324 #
point $-1 -59.580675679799796 -25.952772223100865 12.639277301354324 #
straight-curve $-1 -59.580675679799796 -16.04379371596638 9.5829691324786008 0 -1 0 I I #
coedge $-1 $285 $284 $366 $412 reversed $180 $-1 #
edge $-1 $410 -12.639277301354328 $286 -9.5829691324786008 $362 $414 forward 7 unknown #
point $-1 -59.580675679799796 -38.222402640764656 9.5829691324786008 #
point $-1 -59.580675679799796 -25.952772223100865 9.5829691324786008 #
vertex $-1 $367 $415 #
straight-curve $-1 59.580675679799796 -38.222402640764656 0 0 0 -1 I I #
coedge $-1 $304 $303 $296 $378 forward $294 $-1 #
edge $-1 $385 75.433201126493543 $380 78.807099299961408 $377 $416 forward 7 unknown #
edge $-1 $301 57.038261118834228 $385 59.580675679799796 $300 $417 forward 7 unknown #
vertex $-1 $378 $418 #
straight-curve $-1 -12.132414447035288 -25.952772223100865 104.43186672886065 -0.60181501223851219 0 0.79863551827123203 I I #
edge $-1 $380 -16.290171062577041 $305 -3.0350312584706085 $304 $419 forward 7 unknown #
point $-1 57.038261118834228 -25.952772223100865 12.639277301354328 #
point $-1 59.580675679799796 -12.697632418994433 9.2653791278864617 #
vertex $-1 $308 $420 #
straight-curve $-1 59.580675679799796 0 12.639277301354328 0 1 0 I I #
vertex $-1 $311 $421 #
point $-1 57.097192290324983 -22.165589421927599 9.4127448461883603 #
vertex $-1 $315 $422 #
point $-1 57.097192290324983 -16.4848152201677 9.4127448461883603 #
coedge $-1 $321 $395 $323 $393 reversed $222 $-1 #
straight-curve $-1 -59.580675679799796 -12.697632418994433 40.489234627360773 0 0 -1 I I #
edge $-1 $324 12.697632418994433 $400 25.952772223100865 $391 $423 forward 7 unknown #
point $-1 -59.580675679799796 -12.697632418994433 12.639277301354328 #
coedge $-1 $391 $326 $329 $397 forward $222 $-1 #
straight-curve $-1 -59.580675679799796 -9.662601160523824 9.2653791278864439 0 -1 0 I I #
edge $-1 $330 -31.223855499474332 $400 -27.849957326006447 $395 $424 forward 7 unknown #
point $-1 -59.580675679799796 -25.952772223100865 9.2653791278864421 #
point $-1 -59.580675679799796 -12.697632418994433 9.2653791278864421 #
vertex $-1 $397 $425 #
straight-curve $-1 0 -25.952772223100865 12.639277301354328 1 0 0 I I #
vertex $-1 $337 $426 #
point $-1 -56.495377278086487 -22.165589421927599 10.211380364459593 #
vertex $-1 $341 $427 #
point $-1 -56.495377278086487 -16.4848152201677 10.211380364459593 #
straight-curve $-1 -59.580675679799796 38.222402640764656 0 0 0 -1 I I #
point $-1 -59.580675679799796 -38.222402640764656 -12.639277301354328 #
straight-curve $-1 -59.580675679799796 0 -12.639277301354328 0 1 0 I I #
point $-1 -59.580675679799796 38.222402640764656 -12.639277301354328 #
vertex $-1 $363 $428 #
straight-curve $-1 -59.580675679799796 0 12.639277301354328 0 -1 0 I I #
edge $-1 $410 -59.580675679799796 $375 59.580675679799796 $371 $429 forward 7 unknown #
straight-curve $-1 59.580675679799796 0 12.639277301354328 0 1 0 I I #
straight-curve $-1 -59.580675679799796 -38.222402640764656 0 0 0 -1 I I #
point $-1 59.580675679799796 -38.222402640764656 12.639277301354328 #
straight-curve $-1 59.580675679799796 -25.952772223100865 88.072478427847869 0 0 -1 I I #
straight-curve $-1 0 -25.952772223100865 12.639277301354328 1 0 0 I I #
point $-1 59.580675679799796 -25.952772223100865 9.2653791278864617 #
straight-curve $-1 59.580675679799796 -9.662601160523824 9.2653791278864546 0 1 0 I I #
point $-1 59.580675679799796 -25.952772223100865 12.639277301354324 #
point $-1 56.396967025070111 -22.165589421927599 9.5111550992047214 #
point $-1 56.396967025070111 -16.4848152201677 9.5111550992047214 #
straight-curve $-1 -59.580675679799796 0 12.639277301354328 0 -1 0 I I #
straight-curve $-1 -59.580675679799796 -25.952772223100865 40.489234627360773 0 0 1 I I #
point $-1 -59.580675679799796 -25.952772223100865 12.639277301354324 #
point $-1 -56.396967025070126 -22.165589421927599 9.5111550992047214 #
point $-1 -56.396967025070126 -16.4848152201677 9.5111550992047214 #
point $-1 -59.580675679799796 -38.222402640764656 12.639277301354328 #
straight-curve $-1 0 -38.222402640764656 12.639277301354328 1 0 0 I I #
End-of-ACIS-data 