500 0 9 0           
7 Unknown 11 ACIS 5.0 NT 24 Fri Mar 26 14:28:37 1999 
-1 9.9999999999999995e-007 1e-010 
body $-1 $9 $-1 $10 #
body $-1 $11 $-1 $12 #
body $-1 $13 $-1 $14 #
body $-1 $15 $-1 $16 #
body $-1 $17 $-1 $18 #
body $-1 $19 $-1 $20 #
body $-1 $21 $-1 $22 #
body $-1 $23 $-1 $24 #
body $-1 $25 $-1 $26 #
lump $-1 $-1 $27 $0 #
transform $-1 1 0 0 0 1 0 0 0 1 44.398327585680718 19.445863165559764 7.9861745237262411 1 rotate no_reflect no_shear #
lump $-1 $-1 $28 $1 #
transform $-1 1 0 0 0 1 0 0 0 1 44.398327585680718 19.445863165559764 7.9861745237262411 1 rotate no_reflect no_shear #
lump $-1 $-1 $29 $2 #
transform $-1 1 0 0 0 1 0 0 0 1 44.398327585680718 19.445863165559764 7.9861745237262411 1 rotate no_reflect no_shear #
lump $-1 $-1 $30 $3 #
transform $-1 1 0 0 0 1 0 0 0 1 44.398327585680718 19.445863165559764 7.9861745237262411 1 rotate no_reflect no_shear #
lump $-1 $-1 $31 $4 #
transform $-1 1 0 0 0 1 0 0 0 1 44.398327585680718 19.445863165559764 7.9861745237262411 1 rotate no_reflect no_shear #
lump $-1 $-1 $32 $5 #
transform $-1 1 0 0 0 1 0 0 0 1 44.398327585680718 19.445863165559764 7.9861745237262411 1 rotate no_reflect no_shear #
lump $-1 $-1 $33 $6 #
transform $-1 1 0 0 0 1 0 0 0 1 44.398327585680718 19.445863165559764 7.9861745237262411 1 rotate no_reflect no_shear #
lump $-1 $-1 $34 $7 #
transform $-1 1 0 0 0 1 0 0 0 1 44.398327585680718 19.445863165559764 7.9861745237262411 1 rotate no_reflect no_shear #
lump $-1 $-1 $35 $8 #
transform $-1 1 0 0 0 1 0 0 0 1 44.398327585680718 19.445863165559764 7.9861745237262411 1 rotate no_reflect no_shear #
shell $-1 $-1 $-1 $36 $-1 $9 #
shell $-1 $-1 $-1 $37 $-1 $11 #
shell $-1 $-1 $-1 $38 $-1 $13 #
shell $-1 $-1 $-1 $39 $-1 $15 #
shell $-1 $-1 $-1 $40 $-1 $17 #
shell $-1 $-1 $-1 $41 $-1 $19 #
shell $-1 $-1 $-1 $42 $-1 $21 #
shell $-1 $-1 $-1 $43 $-1 $23 #
shell $-1 $-1 $-1 $44 $-1 $25 #
face $-1 $45 $46 $27 $-1 $47 forward single #
face $-1 $48 $49 $28 $-1 $50 forward single #
face $-1 $51 $52 $29 $-1 $53 forward single #
face $-1 $54 $55 $30 $-1 $56 reversed single #
face $-1 $57 $58 $31 $-1 $59 forward single #
face $-1 $60 $61 $32 $-1 $62 forward single #
face $-1 $63 $64 $33 $-1 $65 reversed single #
face $-1 $66 $67 $34 $-1 $68 forward single #
face $-1 $69 $70 $35 $-1 $71 forward single #
face $-1 $72 $73 $27 $-1 $74 reversed single #
loop $-1 $-1 $75 $36 #
plane-surface $-1 0 0 7.9861745237262411 0 0 1 1 0 0 forward_v I I I I #
face $-1 $76 $77 $28 $-1 $78 reversed single #
loop $-1 $-1 $79 $37 #
plane-surface $-1 0 -14.717968392791249 -4.9861745237262411 0 0 1 1 0 0 forward_v I I I I #
face $-1 $80 $81 $29 $-1 $82 reversed single #
loop $-1 $-1 $83 $38 #
plane-surface $-1 0 15.213817044172053 6.8428246885554049 0 0 1 1 0 0 forward_v I I I I #
face $-1 $84 $85 $30 $-1 $86 reversed single #
loop $-1 $-1 $87 $39 #
plane-surface $-1 -103.81488801772787 -3.9051710598787022 70.205117552090002 0 -1 0 0.66913061440640931 0 -0.74314481823134659 forward_v I I I I #
face $-1 $88 $89 $31 $-1 $90 forward single #
loop $-1 $91 $92 $40 #
cone-surface $-1 -41.835257244610041 -8.2515300314101552 5.5796491740674918 0.66913061440640931 0 -0.74314481823134659 0.3715724091156733 0 0.33456530720320465 1 I I 0 1 0.5 forward I I I I #
face $-1 $93 $94 $32 $-1 $95 forward single #
loop $-1 $96 $97 $41 #
cone-surface $-1 -41.835257244610041 -5.643714648491283 5.5796491740674918 0.66913061440640931 0 -0.74314481823134659 0.3715724091156733 0 0.33456530720320465 1 I I 0 1 0.5 forward I I I I #
face $-1 $98 $99 $33 $-1 $100 reversed single #
loop $-1 $-1 $101 $42 #
plane-surface $-1 37.82611385085491 -3.9051710598787022 129.62167798413714 0 -1 0 -0.66913061440640931 0 -0.74314481823134659 forward_v I I I I #
face $-1 $102 $103 $34 $-1 $104 forward single #
loop $-1 $105 $106 $43 #
cone-surface $-1 41.835257244610027 -8.2515300314101552 5.5796491740674936 -0.66913061440640931 0 -0.74314481823134659 0.3715724091156733 0 -0.33456530720320465 1 I I 0 1 0.5 forward I I I I #
face $-1 $107 $108 $35 $-1 $109 forward single #
loop $-1 $110 $111 $44 #
cone-surface $-1 41.835257244610027 -5.643714648491283 5.5796491740674936 -0.66913061440640931 0 -0.74314481823134659 0.3715724091156733 0 -0.33456530720320465 1 I I 0 1 0.5 forward I I I I #
face $-1 $112 $113 $27 $-1 $114 reversed single #
loop $-1 $-1 $115 $45 #
plane-surface $-1 0 0 -7.9861745237262411 0 0 1 1 0 0 forward_v I I I I #
coedge $-1 $116 $117 $118 $119 forward $46 $-1 #
face $-1 $120 $121 $28 $-1 $122 reversed single #
loop $-1 $-1 $123 $48 #
plane-surface $-1 0 -9.9900736200227342 -6.4861745237262411 0 -1 0 0 0 -1 forward_v I I I I #
coedge $-1 $124 $125 $126 $127 reversed $49 $-1 #
face $-1 $128 $129 $29 $-1 $130 reversed single #
loop $-1 $-1 $131 $51 #
plane-surface $-1 0 15.213817044172053 3.8428246885554049 0 0 1 1 0 0 forward_v I I I I #
coedge $-1 $132 $133 $134 $135 reversed $52 $-1 #
face $-1 $136 $137 $30 $-1 $138 reversed single #
loop $-1 $-1 $139 $54 #
plane-surface $-1 -44.398327585680725 -6.9476223399507191 4.2163433852170442 -0.66913061440640931 0 0.74314481823134659 0.74314481823134659 0 0.66913061440640931 forward_v I I I I #
coedge $-1 $140 $141 $142 $143 reversed $55 $-1 #
face $-1 $-1 $144 $31 $-1 $145 forward single #
loop $-1 $146 $147 $57 #
cone-surface $-1 -41.198315024959271 -8.2515300314101552 4.8722531891055052 0.66913061440640931 0 -0.74314481823134659 0.18578620455783665 0 0.16728265360160233 1 I I -0.70710678118654746 0.70710678118654746 0.25 forward I I I I #
loop $-1 $-1 $148 $40 #
coedge $-1 $92 $92 $149 $150 reversed $58 $-1 #
face $-1 $-1 $151 $32 $-1 $152 forward single #
loop $-1 $153 $154 $60 #
cone-surface $-1 -41.198315024959271 -5.643714648491283 4.8722531891055052 0.66913061440640931 0 -0.74314481823134659 0.18578620455783665 0 0.16728265360160233 1 I I -0.70710678118654746 0.70710678118654746 0.25 forward I I I I #
loop $-1 $-1 $155 $41 #
coedge $-1 $97 $97 $156 $157 reversed $61 $-1 #
face $-1 $158 $159 $33 $-1 $160 reversed single #
loop $-1 $-1 $161 $63 #
plane-surface $-1 -21.590446581192232 -6.9476223399507191 63.632903817264179 0.66913061440640931 0 0.74314481823134659 0.74314481823134659 0 -0.66913061440640931 forward_v I I I I #
coedge $-1 $162 $163 $164 $165 reversed $64 $-1 #
face $-1 $-1 $166 $34 $-1 $167 forward single #
loop $-1 $168 $169 $66 #
cone-surface $-1 41.198315024959257 -8.2515300314101552 4.872253189105507 -0.66913061440640931 0 -0.74314481823134659 0.18578620455783665 0 -0.16728265360160233 1 I I -0.70710678118654746 0.70710678118654746 0.25 forward I I I I #
loop $-1 $-1 $170 $43 #
coedge $-1 $106 $106 $171 $172 reversed $67 $-1 #
face $-1 $-1 $173 $35 $-1 $174 forward single #
loop $-1 $175 $176 $69 #
cone-surface $-1 41.198315024959257 -5.643714648491283 4.872253189105507 -0.66913061440640931 0 -0.74314481823134659 0.18578620455783665 0 -0.16728265360160233 1 I I -0.70710678118654746 0.70710678118654746 0.25 forward I I I I #
loop $-1 $-1 $177 $44 #
coedge $-1 $111 $111 $178 $179 reversed $70 $-1 #
face $-1 $180 $181 $27 $-1 $182 reversed single #
loop $-1 $-1 $183 $72 #
plane-surface $-1 0 -19.445863165559764 0 0 1 0 0 0 1 forward_v I I I I #
coedge $-1 $184 $185 $186 $187 forward $73 $-1 #
coedge $-1 $188 $75 $189 $190 forward $46 $-1 #
coedge $-1 $75 $188 $191 $192 forward $46 $-1 #
coedge $-1 $193 $194 $75 $119 reversed $195 $-1 #
edge $-1 $196 -19.445863165559764 $197 19.445863165559764 $118 $198 forward 7 unknown #
face $-1 $199 $200 $28 $-1 $201 reversed single #
loop $-1 $-1 $202 $76 #
plane-surface $-1 0 0 -7.9861745237262411 0 0 1 1 0 0 forward_v I I I I #
coedge $-1 $203 $204 $205 $206 reversed $77 $-1 #
coedge $-1 $207 $79 $204 $208 forward $49 $-1 #
coedge $-1 $79 $207 $209 $210 reversed $49 $-1 #
coedge $-1 $211 $205 $79 $127 forward $200 $-1 #
edge $-1 $212 2.6310894236271096 $213 12.08687896916414 $126 $214 forward 7 unknown #
face $-1 $215 $216 $29 $-1 $217 reversed single #
loop $-1 $-1 $218 $80 #
plane-surface $-1 0 10.981770922784346 5.3428246885554049 0 1 0 0 0 1 forward_v I I I I #
coedge $-1 $219 $220 $221 $222 reversed $81 $-1 #
coedge $-1 $223 $83 $224 $225 reversed $52 $-1 #
coedge $-1 $83 $223 $226 $227 forward $52 $-1 #
coedge $-1 $228 $229 $83 $135 forward $216 $-1 #
edge $-1 $230 -11.838954643473734 $231 -3.3748624006983192 $134 $232 forward 7 unknown #
face $-1 $233 $234 $30 $-1 $235 reversed single #
loop $-1 $-1 $236 $84 #
plane-surface $-1 -103.81488801772787 -9.990073620022736 70.205117552090002 0 1 0 -0.66913061440640931 0 0.74314481823134659 forward_v I I I I #
coedge $-1 $237 $238 $239 $240 reversed $85 $-1 #
coedge $-1 $141 $87 $241 $242 reversed $55 $-1 #
coedge $-1 $87 $140 $237 $243 reversed $55 $-1 #
coedge $-1 $239 $244 $87 $143 forward $234 $-1 #
edge $-1 $245 27.11638425231876 $246 30.88621539082795 $142 $247 forward 7 unknown #
loop $-1 $-1 $149 $88 #
plane-surface $-1 -44.398327585680725 -6.9476223399507191 4.2163433852170442 -0.66913061440640931 0 0.74314481823134659 0.74314481823134659 0 0.66913061440640931 forward_v I I I I #
loop $-1 $-1 $248 $57 #
coedge $-1 $147 $147 $148 $249 reversed $89 $-1 #
coedge $-1 $148 $148 $147 $249 forward $91 $-1 #
coedge $-1 $149 $149 $92 $150 forward $144 $-1 #
edge $-1 $250 0 $250 6.2831853071796004 $149 $251 forward 7 unknown #
loop $-1 $-1 $156 $93 #
plane-surface $-1 -44.398327585680725 -6.9476223399507191 4.2163433852170442 -0.66913061440640931 0 0.74314481823134659 0.74314481823134659 0 0.66913061440640931 forward_v I I I I #
loop $-1 $-1 $252 $60 #
coedge $-1 $154 $154 $155 $253 reversed $94 $-1 #
coedge $-1 $155 $155 $154 $253 forward $96 $-1 #
coedge $-1 $156 $156 $97 $157 forward $151 $-1 #
edge $-1 $254 0 $254 6.2831853071796004 $156 $255 forward 7 unknown #
face $-1 $256 $257 $33 $-1 $258 forward single #
loop $-1 $-1 $259 $98 #
plane-surface $-1 37.82611385085491 -9.990073620022736 129.62167798413714 0 1 0 0.66913061440640931 0 0.74314481823134659 forward_v I I I I #
coedge $-1 $260 $261 $262 $263 reversed $99 $-1 #
coedge $-1 $163 $101 $264 $265 reversed $64 $-1 #
coedge $-1 $101 $162 $260 $266 reversed $64 $-1 #
coedge $-1 $262 $267 $101 $165 forward $257 $-1 #
edge $-1 $268 -25.485270660253263 $269 -21.298449110210235 $164 $270 forward 7 unknown #
loop $-1 $-1 $171 $102 #
plane-surface $-1 -21.590446581192232 -6.9476223399507191 63.632903817264179 0.66913061440640931 0 0.74314481823134659 0.74314481823134659 0 -0.66913061440640931 forward_v I I I I #
loop $-1 $-1 $271 $66 #
coedge $-1 $169 $169 $170 $272 reversed $103 $-1 #
coedge $-1 $170 $170 $169 $272 forward $105 $-1 #
coedge $-1 $171 $171 $106 $172 forward $166 $-1 #
edge $-1 $273 0 $273 6.2831853071796004 $171 $274 forward 7 unknown #
loop $-1 $-1 $178 $107 #
plane-surface $-1 -21.590446581192232 -6.9476223399507191 63.632903817264179 0.66913061440640931 0 0.74314481823134659 0.74314481823134659 0 -0.66913061440640931 forward_v I I I I #
loop $-1 $-1 $275 $69 #
coedge $-1 $176 $176 $177 $276 reversed $108 $-1 #
coedge $-1 $177 $177 $176 $276 forward $110 $-1 #
coedge $-1 $178 $178 $111 $179 forward $173 $-1 #
edge $-1 $277 0 $277 6.2831853071796004 $178 $278 forward 7 unknown #
face $-1 $279 $280 $27 $-1 $281 reversed single #
loop $-1 $-1 $282 $112 #
plane-surface $-1 -44.398327585680718 0 0 1 0 0 0 0 -1 forward_v I I I I #
coedge $-1 $283 $191 $284 $285 forward $113 $-1 #
coedge $-1 $286 $115 $283 $287 forward $73 $-1 #
coedge $-1 $115 $286 $288 $289 forward $73 $-1 #
coedge $-1 $194 $193 $115 $187 reversed $195 $-1 #
edge $-1 $290 -19.445863165559764 $291 19.445863165559764 $186 $292 forward 7 unknown #
coedge $-1 $117 $116 $293 $294 forward $46 $-1 #
coedge $-1 $295 $296 $116 $190 reversed $280 $-1 #
edge $-1 $197 -44.398327585680718 $297 44.398327585680718 $189 $298 forward 7 unknown #
coedge $-1 $183 $299 $117 $192 reversed $113 $-1 #
edge $-1 $300 -44.398327585680718 $196 44.398327585680718 $191 $301 forward 7 unknown #
coedge $-1 $186 $118 $299 $302 forward $195 $-1 #
coedge $-1 $118 $186 $295 $303 reversed $195 $-1 #
loop $-1 $-1 $193 $279 #
vertex $-1 $119 $304 #
vertex $-1 $119 $305 #
straight-curve $-1 44.398327585680718 0 7.9861745237262411 0 1 0 I I #
face $-1 $306 $307 $28 $-1 $308 reversed single #
loop $-1 $-1 $205 $120 #
plane-surface $-1 44.398327585680718 0 0 -1 0 0 0 0 1 forward_v I I I I #
coedge $-1 $309 $310 $203 $311 forward $121 $-1 #
coedge $-1 $312 $123 $202 $311 reversed $77 $-1 #
coedge $-1 $123 $312 $124 $208 reversed $77 $-1 #
coedge $-1 $126 $313 $123 $206 forward $200 $-1 #
edge $-1 $314 -4.7430872618631206 $212 -1.7430872618631206 $205 $315 forward 7 unknown #
coedge $-1 $125 $124 $316 $317 reversed $49 $-1 #
edge $-1 $212 -44.398327585680718 $318 44.398327585680718 $204 $319 forward 7 unknown #
coedge $-1 $320 $321 $125 $210 forward $307 $-1 #
edge $-1 $213 -44.398327585680718 $322 44.398327585680718 $209 $323 forward 7 unknown #
coedge $-1 $313 $126 $321 $324 forward $200 $-1 #
vertex $-1 $127 $325 #
vertex $-1 $324 $326 #
straight-curve $-1 44.398327585680718 -7.3589841963956246 -4.9861745237262411 0 -1 0 I I #
face $-1 $327 $328 $29 $-1 $329 reversed single #
loop $-1 $-1 $134 $128 #
plane-surface $-1 44.398327585680718 0 0 -1 0 0 0 0 1 forward_v I I I I #
coedge $-1 $330 $226 $331 $332 reversed $129 $-1 #
coedge $-1 $333 $131 $330 $334 forward $81 $-1 #
coedge $-1 $131 $333 $335 $336 reversed $81 $-1 #
coedge $-1 $229 $228 $131 $222 forward $216 $-1 #
edge $-1 $337 3.3748624006983192 $338 11.838954643473734 $221 $339 forward 7 unknown #
coedge $-1 $133 $132 $340 $341 reversed $52 $-1 #
coedge $-1 $342 $343 $132 $225 forward $344 $-1 #
edge $-1 $345 -44.398327585680718 $230 44.398327585680718 $224 $346 forward 7 unknown #
coedge $-1 $218 $347 $133 $227 reversed $129 $-1 #
edge $-1 $348 -44.398327585680718 $231 44.398327585680718 $226 $349 forward 7 unknown #
coedge $-1 $221 $134 $347 $350 forward $216 $-1 #
coedge $-1 $134 $221 $342 $351 reversed $216 $-1 #
vertex $-1 $351 $352 #
vertex $-1 $135 $353 #
straight-curve $-1 44.398327585680718 7.6069085220860266 6.8428246885554049 0 -1 0 I I #
face $-1 $-1 $354 $30 $-1 $355 forward single #
loop $-1 $-1 $142 $136 #
plane-surface $-1 -44.398327585680718 0 0 1 0 0 0 0 -1 forward_v I I I I #
coedge $-1 $356 $357 $358 $359 reversed $137 $-1 #
coedge $-1 $360 $139 $141 $243 forward $85 $-1 #
coedge $-1 $139 $360 $356 $361 forward $85 $-1 #
coedge $-1 $358 $142 $139 $240 forward $234 $-1 #
edge $-1 $246 0.43135988990334262 $362 6.5162624500473765 $239 $363 forward 7 unknown #
coedge $-1 $364 $365 $140 $242 forward $354 $-1 #
edge $-1 $366 -11.695937973226236 $245 -7.5091164231832153 $241 $367 forward 7 unknown #
edge $-1 $246 9.4405131238556439e-015 $366 5.6339241656928838 $141 $368 forward 7 unknown #
coedge $-1 $142 $358 $364 $369 reversed $234 $-1 #
vertex $-1 $369 $370 #
vertex $-1 $143 $371 #
straight-curve $-1 -44.398327585680718 -3.9051710598787022 35.102558776045001 0 0 -1 I I #
coedge $-1 $248 $248 $-1 $372 reversed $146 $-1 #
edge $-1 $373 0 $373 6.2831853071796004 $147 $374 forward 7 unknown #
vertex $-1 $150 $375 #
ellipse-curve $-1 -42.304916810659208 -8.2515300314101552 6.1012589544716436 -0.66913061440640931 0 0.74314481823134659 0.3715724091156733 0 0.33456530720320465 1 I I #
coedge $-1 $252 $252 $-1 $376 reversed $153 $-1 #
edge $-1 $377 0 $377 6.2831853071796004 $154 $378 forward 7 unknown #
vertex $-1 $157 $379 #
ellipse-curve $-1 -42.304916810659208 -5.643714648491283 6.1012589544716436 -0.66913061440640931 0 0.74314481823134659 0.3715724091156733 0 0.33456530720320465 1 I I #
face $-1 $-1 $380 $33 $-1 $381 reversed single #
loop $-1 $-1 $164 $158 #
plane-surface $-1 0 0 7.9861745237262411 0 0 1 1 0 0 forward_v I I I I #
coedge $-1 $382 $383 $384 $385 reversed $159 $-1 #
coedge $-1 $386 $161 $163 $266 forward $99 $-1 #
coedge $-1 $161 $386 $382 $387 forward $99 $-1 #
coedge $-1 $384 $164 $161 $263 forward $257 $-1 #
edge $-1 $269 0.43135988990334262 $388 6.5162624500473765 $262 $389 forward 7 unknown #
coedge $-1 $390 $391 $162 $265 forward $380 $-1 #
edge $-1 $392 -60.594495606851531 $268 -56.824664468342327 $264 $393 forward 7 unknown #
edge $-1 $269 83.162731005668547 $392 88.796655171361436 $163 $394 forward 7 unknown #
coedge $-1 $164 $384 $390 $395 forward $257 $-1 #
vertex $-1 $165 $396 #
vertex $-1 $165 $397 #
straight-curve $-1 18.913056925427455 -3.9051710598787022 7.9861745237262411 -1 0 0 I I #
coedge $-1 $271 $271 $-1 $398 reversed $168 $-1 #
edge $-1 $399 0 $399 6.2831853071796004 $169 $400 forward 7 unknown #
vertex $-1 $172 $401 #
ellipse-curve $-1 42.304916810659201 -8.2515300314101552 6.1012589544716542 0.66913061440640931 0 0.74314481823134659 0.3715724091156733 0 -0.33456530720320465 1 I I #
coedge $-1 $275 $275 $-1 $402 reversed $175 $-1 #
edge $-1 $403 0 $403 6.2831853071796004 $176 $404 forward 7 unknown #
vertex $-1 $179 $405 #
ellipse-curve $-1 42.304916810659201 -5.643714648491283 6.1012589544716542 0.66913061440640931 0 0.74314481823134659 0.3715724091156733 0 -0.33456530720320465 1 I I #
face $-1 $-1 $195 $27 $-1 $406 reversed single #
loop $-1 $-1 $295 $180 #
plane-surface $-1 0 19.445863165559764 0 0 -1 0 0 0 -1 forward_v I I I I #
coedge $-1 $407 $293 $296 $408 forward $181 $-1 #
coedge $-1 $299 $183 $184 $287 reversed $113 $-1 #
coedge $-1 $293 $407 $183 $285 reversed $181 $-1 #
edge $-1 $300 -7.9861745237262411 $409 7.9861745237262411 $284 $410 forward 7 unknown #
coedge $-1 $185 $184 $407 $411 forward $73 $-1 #
edge $-1 $291 -44.398327585680718 $409 44.398327585680718 $283 $412 forward 7 unknown #
coedge $-1 $296 $295 $185 $289 reversed $280 $-1 #
edge $-1 $413 -44.398327585680718 $290 44.398327585680718 $288 $414 forward 7 unknown #
vertex $-1 $187 $415 #
vertex $-1 $302 $416 #
straight-curve $-1 44.398327585680718 0 -7.9861745237262411 0 -1 0 I I #
coedge $-1 $282 $284 $188 $294 reversed $181 $-1 #
edge $-1 $297 -19.445863165559764 $300 19.445863165559764 $293 $417 forward 7 unknown #
coedge $-1 $288 $189 $194 $303 forward $280 $-1 #
coedge $-1 $189 $288 $282 $408 reversed $280 $-1 #
vertex $-1 $190 $418 #
straight-curve $-1 0 19.445863165559764 7.9861745237262411 -1 0 0 I I #
coedge $-1 $191 $283 $193 $302 reversed $113 $-1 #
vertex $-1 $294 $419 #
straight-curve $-1 0 -19.445863165559764 7.9861745237262411 1 0 0 I I #
edge $-1 $196 -7.9861745237262411 $291 7.9861745237262411 $193 $420 forward 7 unknown #
edge $-1 $197 -7.9861745237262411 $290 7.9861745237262411 $194 $421 forward 7 unknown #
point $-1 44.398327585680718 -19.445863165559764 7.9861745237262411 #
point $-1 44.398327585680718 19.445863165559764 7.9861745237262411 #
face $-1 $-1 $422 $28 $-1 $423 reversed single #
loop $-1 $-1 $209 $199 #
plane-surface $-1 0 -19.445863165559764 0 0 1 0 0 0 1 forward_v I I I I #
coedge $-1 $424 $202 $313 $425 forward $121 $-1 #
coedge $-1 $202 $424 $426 $427 forward $121 $-1 #
edge $-1 $428 -44.398327585680718 $314 44.398327585680718 $202 $429 forward 7 unknown #
coedge $-1 $204 $203 $430 $431 reversed $77 $-1 #
coedge $-1 $205 $211 $309 $425 reversed $200 $-1 #
vertex $-1 $425 $432 #
straight-curve $-1 44.398327585680718 -9.9900736200227342 -3.2430872618631206 0 0 1 I I #
coedge $-1 $430 $433 $207 $317 forward $422 $-1 #
edge $-1 $322 -12.08687896916414 $318 -2.6310894236271096 $316 $434 forward 7 unknown #
vertex $-1 $317 $435 #
straight-curve $-1 0 -9.9900736200227342 -4.9861745237262411 -1 0 0 I I #
coedge $-1 $436 $209 $433 $437 forward $307 $-1 #
coedge $-1 $209 $436 $211 $324 reversed $307 $-1 #
vertex $-1 $437 $438 #
straight-curve $-1 0 -19.445863165559764 -4.9861745237262411 -1 0 0 I I #
edge $-1 $213 4.9861745237262411 $439 7.9861745237262411 $211 $440 forward 7 unknown #
point $-1 44.398327585680718 -9.9900736200227342 -4.9861745237262411 #
point $-1 44.398327585680718 -19.445863165559764 -4.9861745237262411 #
face $-1 $-1 $344 $29 $-1 $441 reversed single #
loop $-1 $-1 $340 $215 #
plane-surface $-1 -44.398327585680718 0 0 1 0 0 0 0 -1 forward_v I I I I #
coedge $-1 $347 $218 $219 $334 reversed $129 $-1 #
coedge $-1 $340 $442 $218 $332 forward $328 $-1 #
edge $-1 $443 1.1714123442777025 $348 4.1714123442777025 $331 $444 forward 7 unknown #
coedge $-1 $220 $219 $442 $445 reversed $81 $-1 #
edge $-1 $337 -44.398327585680718 $443 44.398327585680718 $330 $446 forward 7 unknown #
coedge $-1 $343 $342 $220 $336 forward $344 $-1 #
edge $-1 $338 -44.398327585680718 $447 44.398327585680718 $335 $448 forward 7 unknown #
vertex $-1 $222 $449 #
vertex $-1 $336 $450 #
straight-curve $-1 44.398327585680718 7.6069085220860266 3.8428246885554049 0 1 0 I I #
coedge $-1 $451 $331 $223 $341 forward $328 $-1 #
edge $-1 $348 3.3748624006983192 $345 11.838954643473734 $340 $452 forward 7 unknown #
coedge $-1 $335 $224 $229 $351 forward $344 $-1 #
coedge $-1 $224 $335 $451 $453 reversed $344 $-1 #
loop $-1 $-1 $224 $327 #
vertex $-1 $453 $454 #
straight-curve $-1 0 19.445863165559764 6.8428246885554049 1 0 0 I I #
coedge $-1 $226 $330 $228 $350 reversed $129 $-1 #
vertex $-1 $341 $455 #
straight-curve $-1 0 10.981770922784346 6.8428246885554049 1 0 0 I I #
edge $-1 $231 -4.1714123442777025 $337 -1.1714123442777025 $228 $456 forward 7 unknown #
edge $-1 $230 -6.8428246885554049 $338 -3.8428246885554049 $229 $457 forward 7 unknown #
point $-1 44.398327585680718 19.445863165559761 6.8428246885554049 #
point $-1 44.398327585680718 10.981770922784346 6.8428246885554049 #
loop $-1 $-1 $241 $233 #
plane-surface $-1 0 0 7.9861745237262411 0 0 1 1 0 0 forward_v I I I I #
coedge $-1 $357 $236 $238 $361 reversed $137 $-1 #
coedge $-1 $236 $356 $458 $459 reversed $137 $-1 #
coedge $-1 $244 $239 $236 $359 forward $234 $-1 #
edge $-1 $362 -30.88621539082795 $460 -27.11638425231876 $358 $461 forward 7 unknown #
coedge $-1 $238 $237 $365 $462 reversed $85 $-1 #
edge $-1 $463 -5.6339241656928838 $362 -9.4405131238556439e-015 $356 $464 forward 7 unknown #
vertex $-1 $240 $465 #
straight-curve $-1 -44.398327585680718 -3.4738111699753595 4.2163433852170478 0 -1 0 I I #
coedge $-1 $458 $241 $244 $369 forward $354 $-1 #
coedge $-1 $241 $458 $360 $462 forward $354 $-1 #
vertex $-1 $242 $466 #
straight-curve $-1 -51.907444008863934 -3.9051710598787022 7.9861745237262411 -1 0 0 I I #
straight-curve $-1 -44.398327585680725 -3.9051710598787022 4.2163433852170442 0.74314481823134659 0 0.66913061440640931 I I #
edge $-1 $245 3.9051710598787022 $460 9.990073620022736 $244 $467 forward 7 unknown #
point $-1 -44.398327585680718 -3.9051710598787022 7.9861745237262411 #
point $-1 -44.398327585680718 -3.9051710598787022 4.2163433852170504 #
edge $-1 $468 1 $468 0 $248 $-1 forward 7 unknown #
vertex $-1 $249 $469 #
ellipse-curve $-1 -41.365597678560874 -8.2515300314101552 5.0580393936633419 -0.66913061440640931 0 0.74314481823134659 0.3715724091156733 0 0.33456530720320465 1 I I #
point $-1 -41.933344401543529 -8.2515300314101552 6.4358242616748456 #
edge $-1 $470 1 $470 0 $252 $-1 forward 7 unknown #
vertex $-1 $253 $471 #
ellipse-curve $-1 -41.365597678560874 -5.643714648491283 5.0580393936633419 -0.66913061440640931 0 0.74314481823134659 0.3715724091156733 0 0.33456530720320465 1 I I #
point $-1 -41.933344401543529 -5.643714648491283 6.4358242616748456 #
loop $-1 $-1 $264 $256 #
plane-surface $-1 44.398327585680718 0 0 -1 0 0 0 0 1 forward_v I I I I #
coedge $-1 $383 $259 $261 $387 reversed $159 $-1 #
coedge $-1 $259 $382 $472 $473 reversed $159 $-1 #
coedge $-1 $267 $262 $259 $385 forward $257 $-1 #
edge $-1 $388 21.298449110210235 $474 25.485270660253263 $384 $475 forward 7 unknown #
coedge $-1 $261 $260 $391 $476 reversed $99 $-1 #
edge $-1 $477 -88.796655171361436 $388 -83.162731005668547 $382 $478 forward 7 unknown #
vertex $-1 $263 $479 #
straight-curve $-1 40.21150603563769 -3.4738111699753595 7.986174523726234 0 -1 0 I I #
coedge $-1 $472 $264 $267 $395 reversed $380 $-1 #
coedge $-1 $264 $472 $386 $476 forward $380 $-1 #
vertex $-1 $265 $480 #
straight-curve $-1 44.398327585680718 -3.9051710598787022 64.810838992068568 0 0 1 I I #
straight-curve $-1 -21.590446581192232 -3.9051710598787022 63.632903817264179 0.74314481823134659 0 -0.66913061440640931 I I #
edge $-1 $474 -9.990073620022736 $268 -3.9051710598787022 $390 $481 forward 7 unknown #
point $-1 44.398327585680718 -3.9051710598787022 7.9861745237262411 #
point $-1 40.21150603563769 -3.9051710598787022 7.9861745237262411 #
edge $-1 $482 1 $482 0 $271 $-1 forward 7 unknown #
vertex $-1 $272 $483 #
ellipse-curve $-1 41.36559767856086 -8.2515300314101552 5.0580393936633437 0.66913061440640931 0 0.74314481823134659 0.3715724091156733 0 -0.33456530720320465 1 I I #
point $-1 42.676489219774865 -8.2515300314101552 5.766693647268438 #
edge $-1 $484 1 $484 0 $275 $-1 forward 7 unknown #
vertex $-1 $276 $485 #
ellipse-curve $-1 41.36559767856086 -5.643714648491283 5.0580393936633437 0.66913061440640931 0 0.74314481823134659 0.3715724091156733 0 -0.33456530720320465 1 I I #
point $-1 42.676489219774865 -5.643714648491283 5.766693647268438 #
plane-surface $-1 44.398327585680718 0 0 -1 0 0 0 0 1 forward_v I I I I #
coedge $-1 $284 $282 $286 $411 reversed $181 $-1 #
edge $-1 $297 -7.9861745237262411 $413 7.9861745237262411 $296 $486 forward 7 unknown #
vertex $-1 $411 $487 #
straight-curve $-1 -44.398327585680718 -19.445863165559764 0 0 0 -1 I I #
edge $-1 $409 -19.445863165559764 $413 19.445863165559764 $407 $488 forward 7 unknown #
straight-curve $-1 0 -19.445863165559764 -7.9861745237262411 -1 0 0 I I #
vertex $-1 $289 $489 #
straight-curve $-1 0 19.445863165559764 -7.9861745237262411 1 0 0 I I #
point $-1 44.398327585680718 19.445863165559764 -7.9861745237262411 #
point $-1 44.398327585680718 -19.445863165559764 -7.9861745237262411 #
straight-curve $-1 -44.398327585680718 0 7.9861745237262411 0 -1 0 I I #
point $-1 -44.398327585680718 19.445863165559764 7.9861745237262411 #
point $-1 -44.398327585680718 -19.445863165559764 7.9861745237262411 #
straight-curve $-1 44.398327585680718 -19.445863165559764 0 0 0 -1 I I #
straight-curve $-1 44.398327585680718 19.445863165559764 0 0 0 -1 I I #
loop $-1 $-1 $430 $306 #
plane-surface $-1 -44.398327585680718 0 0 1 0 0 0 0 -1 forward_v I I I I #
coedge $-1 $310 $309 $436 $490 forward $121 $-1 #
edge $-1 $314 9.9900736200227342 $439 19.445863165559764 $313 $491 forward 7 unknown #
coedge $-1 $433 $430 $310 $427 reversed $422 $-1 #
edge $-1 $492 -19.445863165559764 $428 -9.9900736200227342 $426 $493 forward 7 unknown #
vertex $-1 $431 $494 #
straight-curve $-1 0 -9.9900736200227342 -7.9861745237262411 1 0 0 I I #
coedge $-1 $426 $316 $312 $431 forward $422 $-1 #
edge $-1 $318 1.7430872618631206 $428 4.7430872618631206 $430 $495 forward 7 unknown #
point $-1 44.398327585680718 -9.9900736200227342 -7.9861745237262411 #
coedge $-1 $316 $426 $320 $437 reversed $422 $-1 #
straight-curve $-1 -44.398327585680718 -7.3589841963956246 -4.9861745237262411 0 1 0 I I #
point $-1 -44.398327585680718 -9.9900736200227342 -4.9861745237262411 #
coedge $-1 $321 $320 $424 $490 reversed $307 $-1 #
edge $-1 $322 4.9861745237262411 $492 7.9861745237262411 $433 $496 forward 7 unknown #
point $-1 -44.398327585680718 -19.445863165559764 -4.9861745237262411 #
vertex $-1 $324 $497 #
straight-curve $-1 44.398327585680718 -19.445863165559764 0 0 0 -1 I I #
plane-surface $-1 0 19.445863165559764 0 0 -1 0 0 0 -1 forward_v I I I I #
coedge $-1 $331 $451 $333 $445 forward $328 $-1 #
vertex $-1 $445 $498 #
straight-curve $-1 -44.398327585680718 10.981770922784346 2.6714123442777025 0 0 1 I I #
edge $-1 $447 -11.838954643473734 $443 -3.3748624006983192 $442 $499 forward 7 unknown #
straight-curve $-1 0 10.981770922784346 3.8428246885554049 -1 0 0 I I #
vertex $-1 $336 $500 #
straight-curve $-1 0 19.445863165559764 3.8428246885554049 -1 0 0 I I #
point $-1 44.398327585680718 10.981770922784346 3.8428246885554049 #
point $-1 44.398327585680718 19.445863165559761 3.8428246885554049 #
coedge $-1 $442 $340 $343 $453 forward $328 $-1 #
straight-curve $-1 -44.398327585680718 7.6069085220860266 6.8428246885554049 0 1 0 I I #
edge $-1 $345 -6.8428246885554049 $447 -3.8428246885554049 $343 $501 forward 7 unknown #
point $-1 -44.398327585680718 19.445863165559761 6.8428246885554049 #
point $-1 -44.398327585680718 10.981770922784346 6.8428246885554049 #
straight-curve $-1 44.398327585680718 10.981770922784346 2.6714123442777025 0 0 -1 I I #
straight-curve $-1 44.398327585680718 19.445863165559764 0 0 0 -1 I I #
coedge $-1 $365 $364 $357 $459 forward $354 $-1 #
edge $-1 $460 7.5091164231832153 $463 11.695937973226236 $458 $502 forward 7 unknown #
vertex $-1 $459 $503 #
straight-curve $-1 -44.398327585680718 -9.990073620022736 35.102558776045001 0 0 1 I I #
edge $-1 $463 -6.5162624500473765 $366 -0.43135988990334262 $365 $504 forward 7 unknown #
vertex $-1 $462 $505 #
straight-curve $-1 -44.398327585680725 -9.990073620022736 4.2163433852170442 -0.74314481823134659 0 -0.66913061440640931 I I #
point $-1 -44.398327585680718 -9.990073620022736 4.2163433852170504 #
point $-1 -40.211506035637697 -3.9051710598787022 7.9861745237262411 #
straight-curve $-1 -44.398327585680718 0 7.9861745237262411 0 -1 0 I I #
vertex $-1 $372 $506 #
point $-1 -40.994025269445203 -8.2515300314101552 5.3926047008665465 #
vertex $-1 $376 $507 #
point $-1 -40.994025269445203 -5.643714648491283 5.3926047008665465 #
coedge $-1 $391 $390 $383 $473 forward $380 $-1 #
edge $-1 $474 56.824664468342327 $477 60.594495606851531 $472 $508 forward 7 unknown #
vertex $-1 $395 $509 #
straight-curve $-1 18.913056925427455 -9.990073620022736 7.9861745237262411 1 0 0 I I #
edge $-1 $477 -6.5162624500473765 $392 -0.43135988990334262 $391 $510 forward 7 unknown #
vertex $-1 $476 $511 #
straight-curve $-1 -21.590446581192232 -9.990073620022736 63.632903817264179 -0.74314481823134659 0 0.66913061440640931 I I #
point $-1 40.21150603563769 -9.990073620022736 7.9861745237262411 #
point $-1 44.398327585680725 -3.9051710598787022 4.2163433852170371 #
straight-curve $-1 44.398327585680718 0 7.9861745237262411 0 1 0 I I #
vertex $-1 $398 $512 #
point $-1 41.737170087676532 -8.2515300314101552 4.723474086460139 #
vertex $-1 $402 $513 #
point $-1 41.737170087676532 -5.643714648491283 4.723474086460139 #
straight-curve $-1 -44.398327585680718 19.445863165559764 0 0 0 -1 I I #
point $-1 -44.398327585680718 -19.445863165559764 -7.9861745237262411 #
straight-curve $-1 -44.398327585680718 0 -7.9861745237262411 0 1 0 I I #
point $-1 -44.398327585680718 19.445863165559764 -7.9861745237262411 #
edge $-1 $439 -44.398327585680718 $492 44.398327585680718 $436 $514 forward 7 unknown #
straight-curve $-1 44.398327585680718 0 -7.9861745237262411 0 -1 0 I I #
vertex $-1 $427 $515 #
straight-curve $-1 -44.398327585680718 0 -7.9861745237262411 0 1 0 I I #
point $-1 -44.398327585680718 -9.9900736200227342 -7.9861745237262411 #
straight-curve $-1 -44.398327585680718 -9.9900736200227342 -3.2430872618631206 0 0 -1 I I #
straight-curve $-1 -44.398327585680718 -19.445863165559764 0 0 0 -1 I I #
point $-1 44.398327585680718 -19.445863165559764 -7.9861745237262411 #
point $-1 -44.398327585680718 10.981770922784346 3.8428246885554049 #
straight-curve $-1 -44.398327585680718 7.6069085220860266 3.8428246885554049 0 -1 0 I I #
point $-1 -44.398327585680718 19.445863165559761 3.8428246885554049 #
straight-curve $-1 -44.398327585680718 19.445863165559764 0 0 0 -1 I I #
straight-curve $-1 -51.907444008863934 -9.990073620022736 7.9861745237262411 1 0 0 I I #
point $-1 -44.398327585680718 -9.990073620022736 7.9861745237262411 #
straight-curve $-1 -40.211506035637697 -3.4738111699753595 7.9861745237262411 0 1 0 I I #
point $-1 -40.211506035637697 -9.990073620022736 7.9861745237262411 #
point $-1 -41.031032371357668 -8.2515300314101552 4.6864669845476685 #
point $-1 -41.031032371357668 -5.643714648491283 4.6864669845476685 #
straight-curve $-1 44.398327585680718 -9.990073620022736 64.810838992068568 0 0 -1 I I #
point $-1 44.398327585680718 -9.990073620022736 7.9861745237262411 #
straight-curve $-1 44.398327585680711 -3.4738111699753595 4.2163433852170442 0 1 0 I I #
point $-1 44.398327585680725 -9.990073620022736 4.2163433852170371 #
point $-1 41.031032371357654 -8.2515300314101552 4.6864669845476703 #
point $-1 41.031032371357654 -5.643714648491283 4.6864669845476703 #
straight-curve $-1 0 -19.445863165559764 -7.9861745237262411 -1 0 0 I I #
point $-1 -44.398327585680718 -19.445863165559764 -7.9861745237262411 #
End-of-ACIS-data 