500 0 6 0           
7 Unknown 11 ACIS 5.0 NT 24 Thu Mar 25 17:11:20 1999 
-1 9.9999999999999995e-007 1e-010 
body $-1 $6 $-1 $7 #
body $-1 $8 $-1 $9 #
body $-1 $10 $-1 $11 #
body $-1 $12 $-1 $13 #
body $-1 $14 $-1 $15 #
body $-1 $16 $-1 $17 #
lump $-1 $-1 $18 $0 #
transform $-1 1 0 0 0 1 0 0 0 1 46.921597949156165 19.961619411341964 6.1779466723337499 1 rotate no_reflect no_shear #
lump $-1 $-1 $19 $1 #
transform $-1 1 0 0 0 1 0 0 0 1 46.921597949156165 19.961619411341964 6.1779466723337499 1 rotate no_reflect no_shear #
lump $-1 $-1 $20 $2 #
transform $-1 1 0 0 0 1 0 0 0 1 46.921597949156165 19.961619411341964 6.1779466723337499 1 rotate no_reflect no_shear #
lump $-1 $-1 $21 $3 #
transform $-1 1 0 0 0 1 0 0 0 1 46.921597949156165 19.961619411341964 6.1779466723337499 1 rotate no_reflect no_shear #
lump $-1 $-1 $22 $4 #
transform $-1 1 0 0 0 1 0 0 0 1 46.921597949156165 19.961619411341964 6.1779466723337499 1 rotate no_reflect no_shear #
lump $-1 $-1 $23 $5 #
transform $-1 1 0 0 0 1 0 0 0 1 46.921597949156165 19.961619411341964 6.1779466723337499 1 rotate no_reflect no_shear #
shell $-1 $-1 $-1 $24 $-1 $6 #
shell $-1 $-1 $-1 $25 $-1 $8 #
shell $-1 $-1 $-1 $26 $-1 $10 #
shell $-1 $-1 $-1 $27 $-1 $12 #
shell $-1 $-1 $-1 $28 $-1 $14 #
shell $-1 $-1 $-1 $29 $-1 $16 #
face $-1 $30 $31 $18 $-1 $32 forward single #
face $-1 $33 $34 $19 $-1 $35 forward single #
face $-1 $36 $37 $20 $-1 $38 reversed single #
face $-1 $39 $40 $21 $-1 $41 forward single #
face $-1 $42 $43 $22 $-1 $44 reversed single #
face $-1 $45 $46 $23 $-1 $47 forward single #
face $-1 $48 $49 $18 $-1 $50 reversed single #
loop $-1 $-1 $51 $24 #
plane-surface $-1 0 0 6.1779466723337499 0 0 1 1 0 0 forward_v I I I I #
face $-1 $52 $53 $19 $-1 $54 reversed single #
loop $-1 $-1 $55 $25 #
plane-surface $-1 0 -16.073879634100972 3.4922710596764257 0 0 1 1 0 0 forward_v I I I I #
face $-1 $56 $57 $20 $-1 $58 reversed single #
loop $-1 $-1 $59 $26 #
plane-surface $-1 -24.375832425596201 69.331868015098649 90.661860278178835 -1 0 0 0 0.78801076186113728 0.61566146476048833 forward_v I I I I #
face $-1 $60 $61 $21 $-1 $62 forward single #
loop $-1 $63 $64 $27 #
cone-surface $-1 -35.648715187376183 17.711409251805424 3.4942821002821884 0 -0.78801076186113728 -0.61566146476048833 0.5 0 0 1 I I 0 1 0.5 forward I I I I #
face $-1 $65 $66 $22 $-1 $67 reversed single #
loop $-1 $-1 $68 $28 #
plane-surface $-1 35.648715187376183 -4.6175802802143977 32.886220833618417 0 0.78801076186113728 0.61566146476048833 1 0 0 forward_v I I I I #
face $-1 $69 $70 $23 $-1 $71 forward single #
loop $-1 $72 $73 $29 #
cone-surface $-1 35.648715187376183 17.711409251805424 3.4942821002821884 0 -0.78801076186113728 -0.61566146476048833 0.5 0 0 1 I I 0 1 0.5 forward I I I I #
face $-1 $74 $75 $18 $-1 $76 reversed single #
loop $-1 $-1 $77 $30 #
plane-surface $-1 0 0 -6.1779466723337499 0 0 1 1 0 0 forward_v I I I I #
coedge $-1 $78 $79 $80 $81 forward $31 $-1 #
face $-1 $82 $83 $19 $-1 $84 reversed single #
loop $-1 $-1 $85 $33 #
plane-surface $-1 0 -16.073879634100972 0.49227105967642659 0 0 1 1 0 0 forward_v I I I I #
coedge $-1 $86 $87 $88 $89 reversed $34 $-1 #
face $-1 $90 $91 $20 $-1 $92 reversed single #
loop $-1 $-1 $93 $36 #
plane-surface $-1 -35.648715187376183 -4.6175802802143977 32.886220833618417 0 0.78801076186113728 0.61566146476048833 1 0 0 forward_v I I I I #
coedge $-1 $94 $95 $96 $97 reversed $37 $-1 #
face $-1 $-1 $98 $21 $-1 $99 forward single #
loop $-1 $100 $101 $39 #
cone-surface $-1 -35.648715187376183 17.120401180409573 3.0325360017118221 0 -0.78801076186113728 -0.61566146476048833 0.25 0 0 1 I I -0.70710678118654746 0.70710678118654746 0.25 forward I I I I #
loop $-1 $-1 $102 $27 #
coedge $-1 $64 $64 $103 $104 reversed $40 $-1 #
face $-1 $105 $106 $22 $-1 $107 forward single #
loop $-1 $-1 $108 $42 #
plane-surface $-1 24.375832425596201 69.331868015098649 90.661860278178835 1 0 0 0 -0.78801076186113728 -0.61566146476048833 forward_v I I I I #
coedge $-1 $109 $110 $111 $112 reversed $43 $-1 #
face $-1 $-1 $113 $23 $-1 $114 forward single #
loop $-1 $115 $116 $45 #
cone-surface $-1 35.648715187376183 17.120401180409573 3.0325360017118221 0 -0.78801076186113728 -0.61566146476048833 0.25 0 0 1 I I -0.70710678118654746 0.70710678118654746 0.25 forward I I I I #
loop $-1 $-1 $117 $29 #
coedge $-1 $73 $73 $118 $119 reversed $46 $-1 #
face $-1 $120 $121 $18 $-1 $122 reversed single #
loop $-1 $-1 $123 $48 #
plane-surface $-1 0 -19.961619411341964 0 0 1 0 0 0 1 forward_v I I I I #
coedge $-1 $124 $125 $126 $127 forward $49 $-1 #
coedge $-1 $128 $51 $129 $130 forward $31 $-1 #
coedge $-1 $51 $128 $131 $132 forward $31 $-1 #
coedge $-1 $133 $134 $51 $81 reversed $135 $-1 #
edge $-1 $136 -19.961619411341964 $137 19.961619411341964 $80 $138 forward 7 unknown #
face $-1 $139 $140 $19 $-1 $141 reversed single #
loop $-1 $-1 $142 $52 #
plane-surface $-1 0 -12.186139856859981 1.9922710596764261 0 -1 0 0 0 -1 forward_v I I I I #
coedge $-1 $143 $144 $145 $146 reversed $53 $-1 #
coedge $-1 $147 $55 $148 $149 forward $34 $-1 #
coedge $-1 $55 $147 $150 $151 reversed $34 $-1 #
coedge $-1 $152 $153 $55 $89 forward $154 $-1 #
edge $-1 $155 4.1492000398094948 $156 11.924679594291478 $88 $157 forward 7 unknown #
face $-1 $158 $159 $20 $-1 $160 forward single #
loop $-1 $-1 $96 $56 #
plane-surface $-1 0 19.961619411341964 0 0 -1 0 0 0 -1 forward_v I I I I #
coedge $-1 $161 $162 $163 $164 reversed $57 $-1 #
coedge $-1 $95 $59 $165 $166 reversed $37 $-1 #
coedge $-1 $59 $94 $161 $167 reversed $37 $-1 #
coedge $-1 $163 $168 $59 $97 forward $91 $-1 #
edge $-1 $169 39.152983466755671 $170 43.904651146098274 $96 $171 forward 7 unknown #
loop $-1 $-1 $103 $60 #
plane-surface $-1 -35.648715187376183 -4.6175802802143977 32.886220833618417 0 0.78801076186113728 0.61566146476048833 1 0 0 forward_v I I I I #
loop $-1 $-1 $172 $39 #
coedge $-1 $101 $101 $102 $173 reversed $61 $-1 #
coedge $-1 $102 $102 $101 $173 forward $63 $-1 #
coedge $-1 $103 $103 $64 $104 forward $98 $-1 #
edge $-1 $174 -7.9742950660136518e-019 $174 6.2831853071796004 $103 $175 forward 7 unknown #
face $-1 $176 $177 $22 $-1 $178 reversed single #
loop $-1 $-1 $179 $65 #
plane-surface $-1 0 0 6.1779466723337499 0 0 1 1 0 0 forward_v I I I I #
coedge $-1 $180 $181 $182 $183 reversed $66 $-1 #
coedge $-1 $184 $68 $185 $186 reversed $43 $-1 #
coedge $-1 $68 $184 $180 $187 forward $43 $-1 #
coedge $-1 $182 $188 $68 $112 forward $189 $-1 #
edge $-1 $190 -29.097240355468074 $191 -6.5514748319081093 $111 $192 forward 7 unknown #
loop $-1 $-1 $118 $69 #
plane-surface $-1 35.648715187376183 -4.6175802802143977 32.886220833618417 0 0.78801076186113728 0.61566146476048833 1 0 0 forward_v I I I I #
loop $-1 $-1 $193 $45 #
coedge $-1 $116 $116 $117 $194 reversed $70 $-1 #
coedge $-1 $117 $117 $116 $194 forward $72 $-1 #
coedge $-1 $118 $118 $73 $119 forward $113 $-1 #
edge $-1 $195 -7.9742950660136518e-019 $195 6.2831853071796004 $118 $196 forward 7 unknown #
face $-1 $197 $198 $18 $-1 $199 reversed single #
loop $-1 $-1 $200 $74 #
plane-surface $-1 -46.921597949156165 0 0 1 0 0 0 0 -1 forward_v I I I I #
coedge $-1 $201 $131 $202 $203 forward $75 $-1 #
coedge $-1 $204 $77 $201 $205 forward $49 $-1 #
coedge $-1 $77 $204 $206 $207 forward $49 $-1 #
coedge $-1 $134 $133 $77 $127 reversed $135 $-1 #
edge $-1 $208 -19.961619411341964 $209 19.961619411341964 $126 $210 forward 7 unknown #
coedge $-1 $79 $78 $211 $212 forward $31 $-1 #
coedge $-1 $213 $214 $78 $130 reversed $198 $-1 #
edge $-1 $137 -46.921597949156165 $215 46.921597949156165 $129 $216 forward 7 unknown #
coedge $-1 $123 $217 $79 $132 reversed $75 $-1 #
edge $-1 $218 -46.921597949156165 $136 46.921597949156165 $131 $219 forward 7 unknown #
coedge $-1 $126 $80 $217 $220 forward $135 $-1 #
coedge $-1 $80 $126 $213 $221 reversed $135 $-1 #
loop $-1 $-1 $133 $197 #
vertex $-1 $81 $222 #
vertex $-1 $81 $223 #
straight-curve $-1 46.921597949156165 0 6.1779466723337499 0 1 0 I I #
face $-1 $224 $225 $19 $-1 $226 reversed single #
loop $-1 $-1 $227 $82 #
plane-surface $-1 -46.921597949156165 0 0 1 0 0 0 0 -1 forward_v I I I I #
coedge $-1 $228 $148 $153 $229 reversed $83 $-1 #
coedge $-1 $230 $85 $231 $232 reversed $53 $-1 #
coedge $-1 $85 $230 $228 $233 forward $53 $-1 #
coedge $-1 $153 $152 $85 $146 forward $154 $-1 #
edge $-1 $234 -11.924679594291478 $235 -4.1492000398094948 $145 $236 forward 7 unknown #
coedge $-1 $87 $86 $227 $237 reversed $34 $-1 #
coedge $-1 $142 $238 $86 $149 reversed $83 $-1 #
edge $-1 $155 -46.921597949156165 $239 46.921597949156165 $148 $240 forward 7 unknown #
coedge $-1 $241 $242 $87 $151 forward $225 $-1 #
edge $-1 $156 -46.921597949156165 $243 46.921597949156165 $150 $244 forward 7 unknown #
coedge $-1 $145 $88 $242 $245 forward $154 $-1 #
coedge $-1 $88 $145 $142 $229 forward $154 $-1 #
loop $-1 $-1 $88 $224 #
vertex $-1 $89 $246 #
vertex $-1 $245 $247 #
straight-curve $-1 46.921597949156165 -8.0369398170504862 3.4922710596764257 0 -1 0 I I #
face $-1 $-1 $248 $20 $-1 $249 reversed single #
loop $-1 $-1 $165 $90 #
plane-surface $-1 0 0 6.1779466723337499 0 0 1 1 0 0 forward_v I I I I #
coedge $-1 $250 $93 $95 $167 forward $57 $-1 #
coedge $-1 $93 $250 $251 $252 reversed $57 $-1 #
coedge $-1 $253 $96 $93 $164 forward $91 $-1 #
edge $-1 $170 6.5514748319081093 $254 29.097240355468074 $163 $255 forward 7 unknown #
coedge $-1 $256 $257 $94 $166 forward $159 $-1 #
edge $-1 $258 -18.416724153419288 $169 -14.704314596207361 $165 $259 forward 7 unknown #
edge $-1 $170 -39.923238822683899 $258 -33.893286048790259 $95 $260 forward 7 unknown #
coedge $-1 $96 $253 $256 $261 reversed $91 $-1 #
vertex $-1 $261 $262 #
vertex $-1 $97 $263 #
straight-curve $-1 -24.375832425596201 19.961619411341964 45.330930139089418 0 0 -1 I I #
coedge $-1 $172 $172 $-1 $264 reversed $100 $-1 #
edge $-1 $265 0 $265 6.2831853071796004 $101 $266 forward 7 unknown #
vertex $-1 $104 $267 #
ellipse-curve $-1 -35.648715187376183 18.105414632736007 3.8021128326624436 0 0.78801076186113728 0.61566146476048833 0.5 0 0 1 I I #
face $-1 $-1 $189 $22 $-1 $268 reversed single #
loop $-1 $-1 $185 $105 #
plane-surface $-1 46.921597949156165 0 0 -1 0 0 0 0 1 forward_v I I I I #
coedge $-1 $269 $270 $181 $271 forward $106 $-1 #
coedge $-1 $181 $108 $110 $187 reversed $66 $-1 #
coedge $-1 $108 $180 $179 $271 reversed $66 $-1 #
coedge $-1 $272 $111 $108 $183 forward $189 $-1 #
edge $-1 $191 -43.904651146098274 $273 -39.152983466755671 $182 $274 forward 7 unknown #
coedge $-1 $110 $109 $269 $275 reversed $43 $-1 #
coedge $-1 $276 $277 $109 $186 forward $177 $-1 #
edge $-1 $278 19.51450496239066 $190 25.544457736284301 $185 $279 forward 7 unknown #
edge $-1 $280 33.893286048790259 $191 39.923238822683899 $180 $281 forward 7 unknown #
coedge $-1 $111 $272 $276 $282 forward $189 $-1 #
loop $-1 $-1 $182 $176 #
vertex $-1 $186 $283 #
vertex $-1 $112 $284 #
straight-curve $-1 17.824357593688092 19.961619411341964 1.426278992991147 -1 0 0 I I #
coedge $-1 $193 $193 $-1 $285 reversed $115 $-1 #
edge $-1 $286 0 $286 6.2831853071796004 $116 $287 forward 7 unknown #
vertex $-1 $119 $288 #
ellipse-curve $-1 35.648715187376183 18.105414632736007 3.8021128326624436 0 0.78801076186113728 0.61566146476048833 0.5 0 0 1 I I #
face $-1 $-1 $135 $18 $-1 $289 reversed single #
loop $-1 $-1 $213 $120 #
plane-surface $-1 0 19.961619411341964 0 0 -1 0 0 0 -1 forward_v I I I I #
coedge $-1 $290 $211 $214 $291 forward $121 $-1 #
coedge $-1 $217 $123 $124 $205 reversed $75 $-1 #
coedge $-1 $211 $290 $123 $203 reversed $121 $-1 #
edge $-1 $218 -6.1779466723337499 $292 6.1779466723337499 $202 $293 forward 7 unknown #
coedge $-1 $125 $124 $290 $294 forward $49 $-1 #
edge $-1 $209 -46.921597949156165 $292 46.921597949156165 $201 $295 forward 7 unknown #
coedge $-1 $214 $213 $125 $207 reversed $198 $-1 #
edge $-1 $296 -46.921597949156165 $208 46.921597949156165 $206 $297 forward 7 unknown #
vertex $-1 $127 $298 #
vertex $-1 $220 $299 #
straight-curve $-1 46.921597949156165 0 -6.1779466723337499 0 -1 0 I I #
coedge $-1 $200 $202 $128 $212 reversed $121 $-1 #
edge $-1 $215 -19.961619411341964 $218 19.961619411341964 $211 $300 forward 7 unknown #
coedge $-1 $206 $129 $134 $221 forward $198 $-1 #
coedge $-1 $129 $206 $200 $291 reversed $198 $-1 #
vertex $-1 $130 $301 #
straight-curve $-1 0 19.961619411341964 6.1779466723337499 -1 0 0 I I #
coedge $-1 $131 $201 $133 $220 reversed $75 $-1 #
vertex $-1 $212 $302 #
straight-curve $-1 0 -19.961619411341964 6.1779466723337499 1 0 0 I I #
edge $-1 $136 -6.1779466723337499 $209 6.1779466723337499 $133 $303 forward 7 unknown #
edge $-1 $137 -6.1779466723337499 $208 6.1779466723337499 $134 $304 forward 7 unknown #
point $-1 46.921597949156165 -19.961619411341964 6.1779466723337499 #
point $-1 46.921597949156165 19.961619411341964 6.1779466723337499 #
face $-1 $-1 $154 $19 $-1 $305 reversed single #
loop $-1 $-1 $150 $139 #
plane-surface $-1 0 -19.961619411341964 0 0 1 0 0 0 1 forward_v I I I I #
coedge $-1 $306 $307 $147 $237 forward $140 $-1 #
coedge $-1 $238 $142 $144 $233 reversed $83 $-1 #
edge $-1 $235 -0.50386447016178648 $155 2.4961355298382126 $153 $308 forward 7 unknown #
coedge $-1 $144 $143 $309 $310 reversed $53 $-1 #
coedge $-1 $242 $241 $143 $232 forward $225 $-1 #
edge $-1 $311 -46.921597949156165 $234 46.921597949156165 $231 $312 forward 7 unknown #
edge $-1 $313 -46.921597949156165 $235 46.921597949156165 $228 $314 forward 7 unknown #
vertex $-1 $232 $315 #
vertex $-1 $146 $316 #
straight-curve $-1 46.921597949156165 -8.0369398170504862 0.49227105967642659 0 1 0 I I #
edge $-1 $243 -11.924679594291478 $239 -4.1492000398094948 $227 $317 forward 7 unknown #
coedge $-1 $148 $228 $306 $318 reversed $83 $-1 #
vertex $-1 $237 $319 #
straight-curve $-1 0 -12.186139856859981 3.4922710596764257 -1 0 0 I I #
coedge $-1 $231 $150 $307 $320 forward $225 $-1 #
coedge $-1 $150 $231 $152 $245 reversed $225 $-1 #
vertex $-1 $320 $321 #
straight-curve $-1 0 -19.961619411341964 3.4922710596764257 -1 0 0 I I #
edge $-1 $156 -3.4922710596764257 $234 -0.49227105967642659 $152 $322 forward 7 unknown #
point $-1 46.921597949156165 -12.186139856859981 3.4922710596764257 #
point $-1 46.921597949156165 -19.961619411341964 3.4922710596764257 #
loop $-1 $-1 $251 $158 #
plane-surface $-1 -46.921597949156165 0 0 1 0 0 0 0 -1 forward_v I I I I #
coedge $-1 $162 $161 $257 $323 reversed $57 $-1 #
coedge $-1 $324 $325 $162 $252 forward $248 $-1 #
edge $-1 $254 -25.544457736284301 $326 -19.51450496239066 $251 $327 forward 7 unknown #
coedge $-1 $168 $163 $325 $328 reversed $91 $-1 #
vertex $-1 $164 $329 #
straight-curve $-1 -17.824357593688092 19.961619411341964 1.426278992991147 -1 0 0 I I #
coedge $-1 $330 $165 $168 $261 forward $159 $-1 #
coedge $-1 $165 $330 $250 $323 forward $159 $-1 #
vertex $-1 $166 $331 #
straight-curve $-1 -24.375832425596201 34.665934007549325 6.1779466723337464 0 1 0 I I #
straight-curve $-1 -24.375832425596201 -4.6175802802143977 32.886220833618417 0 -0.61566146476048833 0.78801076186113728 I I #
edge $-1 $169 24.375832425596201 $332 46.921597949156165 $168 $333 forward 7 unknown #
point $-1 -24.375832425596201 19.961619411341964 6.1779466723337499 #
point $-1 -24.375832425596201 19.961619411341964 1.4262789929911435 #
edge $-1 $334 1 $334 0 $172 $-1 forward 7 unknown #
vertex $-1 $173 $335 #
ellipse-curve $-1 -35.648715187376183 17.317403870874855 3.1864513679019444 0 0.78801076186113728 0.61566146476048833 0.5 0 0 1 I I #
point $-1 -35.148715187376183 18.105414632735993 3.8021128326624325 #
plane-surface $-1 0 19.961619411341964 0 0 -1 0 0 0 -1 forward_v I I I I #
coedge $-1 $336 $179 $184 $275 forward $106 $-1 #
coedge $-1 $179 $336 $272 $337 forward $106 $-1 #
edge $-1 $273 14.704314596207361 $280 18.416724153419288 $179 $338 forward 7 unknown #
coedge $-1 $188 $182 $270 $337 reversed $189 $-1 #
vertex $-1 $183 $339 #
straight-curve $-1 24.375832425596201 19.961619411341964 45.330930139089418 0 0 1 I I #
edge $-1 $280 6.5514748319081093 $278 29.097240355468074 $269 $340 forward 7 unknown #
coedge $-1 $277 $185 $188 $282 reversed $177 $-1 #
coedge $-1 $185 $276 $336 $341 reversed $177 $-1 #
vertex $-1 $341 $342 #
straight-curve $-1 46.921597949156165 4.2348811449087842 21.555586595090158 0 0.61566146476048833 -0.78801076186113728 I I #
vertex $-1 $275 $343 #
straight-curve $-1 24.375832425596201 -4.6175802802143977 32.886220833618417 0 0.61566146476048833 -0.78801076186113728 I I #
edge $-1 $344 -6.1779466723337499 $190 -1.4262789929911435 $276 $345 forward 7 unknown #
point $-1 46.921597949156165 19.961619411341964 1.4262789929911435 #
point $-1 24.375832425596201 19.961619411341964 1.4262789929911435 #
edge $-1 $346 1 $346 0 $193 $-1 forward 7 unknown #
vertex $-1 $194 $347 #
ellipse-curve $-1 35.648715187376183 17.317403870874855 3.1864513679019444 0 0.78801076186113728 0.61566146476048833 0.5 0 0 1 I I #
point $-1 36.148715187376183 18.105414632735993 3.8021128326624325 #
plane-surface $-1 46.921597949156165 0 0 -1 0 0 0 0 1 forward_v I I I I #
coedge $-1 $202 $200 $204 $294 reversed $121 $-1 #
edge $-1 $215 -6.1779466723337499 $296 6.1779466723337499 $214 $348 forward 7 unknown #
vertex $-1 $294 $349 #
straight-curve $-1 -46.921597949156165 -19.961619411341964 0 0 0 -1 I I #
edge $-1 $292 -19.961619411341964 $296 19.961619411341964 $290 $350 forward 7 unknown #
straight-curve $-1 0 -19.961619411341964 -6.1779466723337499 -1 0 0 I I #
vertex $-1 $207 $351 #
straight-curve $-1 0 19.961619411341964 -6.1779466723337499 1 0 0 I I #
point $-1 46.921597949156165 19.961619411341964 -6.1779466723337499 #
point $-1 46.921597949156165 -19.961619411341964 -6.1779466723337499 #
straight-curve $-1 -46.921597949156165 0 6.1779466723337499 0 -1 0 I I #
point $-1 -46.921597949156165 19.961619411341964 6.1779466723337499 #
point $-1 -46.921597949156165 -19.961619411341964 6.1779466723337499 #
straight-curve $-1 46.921597949156165 -19.961619411341964 0 0 0 -1 I I #
straight-curve $-1 46.921597949156165 19.961619411341964 0 0 0 -1 I I #
plane-surface $-1 46.921597949156165 0 0 -1 0 0 0 0 1 forward_v I I I I #
coedge $-1 $309 $227 $238 $318 forward $140 $-1 #
coedge $-1 $227 $309 $241 $320 reversed $140 $-1 #
straight-curve $-1 46.921597949156165 -12.186139856859981 0.99613552983821307 0 0 1 I I #
coedge $-1 $307 $306 $230 $310 forward $140 $-1 #
edge $-1 $313 4.1492000398094948 $311 11.924679594291478 $309 $352 forward 7 unknown #
vertex $-1 $232 $353 #
straight-curve $-1 0 -19.961619411341964 0.49227105967642659 1 0 0 I I #
vertex $-1 $310 $354 #
straight-curve $-1 0 -12.186139856859981 0.49227105967642659 1 0 0 I I #
point $-1 46.921597949156165 -19.961619411341964 0.49227105967642659 #
point $-1 46.921597949156165 -12.186139856859981 0.49227105967642659 #
straight-curve $-1 -46.921597949156165 -8.0369398170504862 3.4922710596764257 0 1 0 I I #
edge $-1 $239 -2.4961355298382126 $313 0.50386447016178648 $306 $355 forward 7 unknown #
point $-1 -46.921597949156165 -12.186139856859981 3.4922710596764257 #
edge $-1 $243 -3.4922710596764257 $311 -0.49227105967642659 $307 $356 forward 7 unknown #
point $-1 -46.921597949156165 -19.961619411341964 3.4922710596764257 #
straight-curve $-1 46.921597949156165 -19.961619411341964 0 0 0 -1 I I #
edge $-1 $326 -29.097240355468074 $258 -6.5514748319081093 $257 $357 forward 7 unknown #
coedge $-1 $325 $251 $330 $358 reversed $248 $-1 #
coedge $-1 $251 $324 $253 $328 forward $248 $-1 #
vertex $-1 $252 $359 #
straight-curve $-1 -46.921597949156165 4.2348811449087842 21.555586595090158 0 -0.61566146476048833 0.78801076186113728 I I #
edge $-1 $332 -6.1779466723337499 $254 -1.4262789929911468 $253 $360 forward 7 unknown #
point $-1 -46.921597949156165 19.961619411341964 1.4262789929911468 #
coedge $-1 $257 $256 $324 $358 forward $159 $-1 #
point $-1 -24.375832425596201 16.249209854130036 6.1779466723337499 #
vertex $-1 $261 $361 #
straight-curve $-1 0 19.961619411341964 6.1779466723337499 -1 0 0 I I #
vertex $-1 $264 $362 #
point $-1 -35.148715187376183 17.317403870874855 3.1864513679019444 #
coedge $-1 $270 $269 $277 $341 forward $106 $-1 #
edge $-1 $344 -46.921597949156165 $273 -24.375832425596201 $272 $363 forward 7 unknown #
straight-curve $-1 24.375832425596201 34.665934007549325 6.1779466723337464 0 -1 0 I I #
point $-1 24.375832425596201 19.961619411341964 6.1779466723337499 #
straight-curve $-1 17.824357593688092 16.249209854130036 6.1779466723337499 1 0 0 I I #
edge $-1 $278 16.249209854130036 $344 19.961619411341964 $277 $364 forward 7 unknown #
point $-1 46.921597949156165 16.249209854130036 6.1779466723337499 #
point $-1 24.375832425596201 16.249209854130036 6.1779466723337499 #
vertex $-1 $341 $365 #
straight-curve $-1 46.921597949156165 19.961619411341964 0 0 0 -1 I I #
vertex $-1 $285 $366 #
point $-1 36.148715187376183 17.317403870874855 3.1864513679019444 #
straight-curve $-1 -46.921597949156165 19.961619411341964 0 0 0 -1 I I #
point $-1 -46.921597949156165 -19.961619411341964 -6.1779466723337499 #
straight-curve $-1 -46.921597949156165 0 -6.1779466723337499 0 1 0 I I #
point $-1 -46.921597949156165 19.961619411341964 -6.1779466723337499 #
straight-curve $-1 -46.921597949156165 -8.0369398170504862 0.49227105967642659 0 -1 0 I I #
point $-1 -46.921597949156165 -19.961619411341964 0.49227105967642659 #
point $-1 -46.921597949156165 -12.186139856859981 0.49227105967642659 #
straight-curve $-1 -46.921597949156165 -12.186139856859981 0.99613552983821307 0 0 -1 I I #
straight-curve $-1 -46.921597949156165 -19.961619411341964 0 0 0 -1 I I #
straight-curve $-1 -17.824357593688092 16.249209854130036 6.1779466723337499 1 0 0 I I #
edge $-1 $332 -19.961619411341964 $326 -16.249209854130036 $324 $367 forward 7 unknown #
point $-1 -46.921597949156165 16.249209854130036 6.1779466723337499 #
straight-curve $-1 -46.921597949156165 19.961619411341964 0 0 0 -1 I I #
point $-1 -46.921597949156165 19.961619411341964 6.1779466723337499 #
point $-1 -35.648715187376183 16.92339848994429 2.8786206355216999 #
straight-curve $-1 0 19.961619411341964 6.1779466723337499 -1 0 0 I I #
straight-curve $-1 46.921597949156165 0 6.1779466723337499 0 1 0 I I #
point $-1 46.921597949156165 19.961619411341964 6.1779466723337499 #
point $-1 35.648715187376183 16.92339848994429 2.8786206355216999 #
straight-curve $-1 -46.921597949156165 0 6.1779466723337499 0 -1 0 I I #
End-of-ACIS-data 