500 0 9 0           
7 Unknown 11 ACIS 5.0 NT 24 Fri Mar 26 17:29:07 1999 
-1 9.9999999999999995e-007 1e-010 
body $-1 $9 $-1 $10 #
body $-1 $11 $-1 $12 #
body $-1 $13 $-1 $14 #
body $-1 $15 $-1 $16 #
body $-1 $17 $-1 $18 #
body $-1 $19 $-1 $20 #
body $-1 $21 $-1 $22 #
body $-1 $23 $-1 $24 #
body $-1 $25 $-1 $26 #
lump $-1 $-1 $27 $0 #
transform $-1 1 0 0 0 1 0 0 0 1 40.181890316476945 19.760827513254323 5.168499406013475 1 rotate no_reflect no_shear #
lump $-1 $-1 $28 $1 #
transform $-1 1 0 0 0 1 0 0 0 1 40.181890316476945 19.760827513254323 5.168499406013475 1 rotate no_reflect no_shear #
lump $-1 $-1 $29 $2 #
transform $-1 1 0 0 0 1 0 0 0 1 40.181890316476945 19.760827513254323 5.168499406013475 1 rotate no_reflect no_shear #
lump $-1 $-1 $30 $3 #
transform $-1 1 0 0 0 1 0 0 0 1 40.181890316476945 19.760827513254323 5.168499406013475 1 rotate no_reflect no_shear #
lump $-1 $-1 $31 $4 #
transform $-1 1 0 0 0 1 0 0 0 1 40.181890316476945 19.760827513254323 5.168499406013475 1 rotate no_reflect no_shear #
lump $-1 $-1 $32 $5 #
transform $-1 1 0 0 0 1 0 0 0 1 40.181890316476945 19.760827513254323 5.168499406013475 1 rotate no_reflect no_shear #
lump $-1 $-1 $33 $6 #
transform $-1 1 0 0 0 1 0 0 0 1 40.181890316476945 19.760827513254323 5.168499406013475 1 rotate no_reflect no_shear #
lump $-1 $-1 $34 $7 #
transform $-1 1 0 0 0 1 0 0 0 1 40.181890316476945 19.760827513254323 5.168499406013475 1 rotate no_reflect no_shear #
lump $-1 $-1 $35 $8 #
transform $-1 1 0 0 0 1 0 0 0 1 40.181890316476945 19.760827513254323 5.168499406013475 1 rotate no_reflect no_shear #
shell $-1 $-1 $-1 $36 $-1 $9 #
shell $-1 $-1 $-1 $37 $-1 $11 #
shell $-1 $-1 $-1 $38 $-1 $13 #
shell $-1 $-1 $-1 $39 $-1 $15 #
shell $-1 $-1 $-1 $40 $-1 $17 #
shell $-1 $-1 $-1 $41 $-1 $19 #
shell $-1 $-1 $-1 $42 $-1 $21 #
shell $-1 $-1 $-1 $43 $-1 $23 #
shell $-1 $-1 $-1 $44 $-1 $25 #
face $-1 $45 $46 $27 $-1 $47 forward single #
face $-1 $48 $49 $28 $-1 $50 reversed single #
face $-1 $51 $52 $29 $-1 $53 reversed single #
face $-1 $54 $55 $30 $-1 $56 reversed single #
face $-1 $57 $58 $31 $-1 $59 forward single #
face $-1 $60 $61 $32 $-1 $62 forward single #
face $-1 $63 $64 $33 $-1 $65 reversed single #
face $-1 $66 $67 $34 $-1 $68 forward single #
face $-1 $69 $70 $35 $-1 $71 forward single #
face $-1 $72 $73 $27 $-1 $74 reversed single #
loop $-1 $-1 $75 $36 #
plane-surface $-1 0 0 5.168499406013475 0 0 1 1 0 0 forward_v I I I I #
face $-1 $76 $77 $28 $-1 $78 reversed single #
loop $-1 $-1 $79 $37 #
plane-surface $-1 0 -13.774475815294936 3.668499406013475 0 -1 0 0 0 -1 forward_v I I I I #
face $-1 $80 $81 $29 $-1 $82 reversed single #
loop $-1 $-1 $83 $38 #
plane-surface $-1 0 16.767651664274627 2.168499406013475 0 0 1 1 0 0 forward_v I I I I #
face $-1 $84 $85 $30 $-1 $86 reversed single #
loop $-1 $-1 $87 $39 #
plane-surface $-1 28.302069740904493 -6.4832035293275538 113.11995017324379 0 -1 0 -0.62932039886446345 0 -0.77714595512881146 forward_v I I I I #
face $-1 $88 $89 $31 $-1 $90 forward single #
loop $-1 $91 $92 $40 #
cone-surface $-1 36.657796797828063 -11.691255162161397 2.1493770923452562 -0.62932039886446345 0 -0.77714595512881146 0.38857297756440573 0 -0.31466019943223172 1 I I 0 1 0.5 forward I I I I #
face $-1 $93 $94 $32 $-1 $95 forward single #
loop $-1 $96 $97 $41 #
cone-surface $-1 36.657796797828063 -8.5664241824610912 2.1493770923452562 -0.62932039886446345 0 -0.77714595512881146 0.38857297756440573 0 -0.31466019943223172 1 I I 0 1 0.5 forward I I I I #
face $-1 $98 $99 $33 $-1 $100 reversed single #
loop $-1 $-1 $101 $42 #
plane-surface $-1 -40.181890316476967 -10.128839672311244 0.090996633297784513 -0.62932039886446345 0 0.77714595512881146 0.77714595512881146 0 0.62932039886446345 forward_v I I I I #
face $-1 $102 $103 $34 $-1 $104 forward single #
loop $-1 $105 $106 $43 #
cone-surface $-1 -36.657796797828077 -11.691255162161397 2.1493770923452589 0.62932039886446345 0 -0.77714595512881146 0.38857297756440573 0 0.31466019943223172 1 I I 0 1 0.5 forward I I I I #
face $-1 $107 $108 $35 $-1 $109 forward single #
loop $-1 $110 $111 $44 #
cone-surface $-1 -36.657796797828077 -8.5664241824610912 2.1493770923452589 0.62932039886446345 0 -0.77714595512881146 0.38857297756440573 0 0.31466019943223172 1 I I 0 1 0.5 forward I I I I #
face $-1 $112 $113 $27 $-1 $114 reversed single #
loop $-1 $-1 $115 $45 #
plane-surface $-1 0 0 -5.168499406013475 0 0 1 1 0 0 forward_v I I I I #
coedge $-1 $116 $117 $118 $119 forward $46 $-1 #
face $-1 $120 $121 $28 $-1 $122 reversed single #
loop $-1 $-1 $123 $48 #
plane-surface $-1 0 -16.767651664274631 2.168499406013475 0 0 1 1 0 0 forward_v I I I I #
coedge $-1 $124 $125 $126 $127 reversed $49 $-1 #
face $-1 $128 $129 $29 $-1 $130 forward single #
loop $-1 $-1 $131 $51 #
plane-surface $-1 0 13.774475815294934 3.668499406013475 0 1 0 0 0 1 forward_v I I I I #
coedge $-1 $132 $133 $134 $135 reversed $52 $-1 #
face $-1 $136 $137 $30 $-1 $138 forward single #
loop $-1 $-1 $139 $54 #
plane-surface $-1 -22.272496741282289 -10.128839672311244 50.665563115484559 0.62932039886446345 0 0.77714595512881146 0.77714595512881146 0 -0.62932039886446345 forward_v I I I I #
coedge $-1 $140 $141 $142 $143 reversed $55 $-1 #
face $-1 $-1 $144 $31 $-1 $145 forward single #
loop $-1 $146 $147 $57 #
cone-surface $-1 36.111469983167005 -11.691255162161397 1.4747196762526817 -0.62932039886446345 0 -0.77714595512881146 0.19428648878220287 0 -0.15733009971611586 1 I I -0.70710678118654779 0.70710678118654713 0.25 forward I I I I #
loop $-1 $-1 $148 $40 #
coedge $-1 $92 $92 $149 $150 reversed $58 $-1 #
face $-1 $-1 $151 $32 $-1 $152 forward single #
loop $-1 $153 $154 $60 #
cone-surface $-1 36.111469983167005 -8.5664241824610912 1.4747196762526817 -0.62932039886446345 0 -0.77714595512881146 0.19428648878220287 0 -0.15733009971611586 1 I I -0.70710678118654779 0.70710678118654713 0.25 forward I I I I #
loop $-1 $-1 $155 $41 #
coedge $-1 $97 $97 $156 $157 reversed $61 $-1 #
face $-1 $158 $159 $33 $-1 $160 reversed single #
loop $-1 $-1 $161 $63 #
plane-surface $-1 -90.756456798663748 -6.4832035293275538 62.545383691057019 0 -1 0 0.62932039886446345 0 -0.77714595512881146 forward_v I I I I #
coedge $-1 $162 $163 $164 $165 reversed $64 $-1 #
face $-1 $-1 $166 $34 $-1 $167 forward single #
loop $-1 $168 $169 $66 #
cone-surface $-1 -36.111469983167019 -11.691255162161397 1.4747196762526844 0.62932039886446345 0 -0.77714595512881146 0.19428648878220287 0 0.15733009971611586 1 I I -0.70710678118654779 0.70710678118654713 0.25 forward I I I I #
loop $-1 $-1 $170 $43 #
coedge $-1 $106 $106 $171 $172 reversed $67 $-1 #
face $-1 $-1 $173 $35 $-1 $174 forward single #
loop $-1 $175 $176 $69 #
cone-surface $-1 -36.111469983167019 -8.5664241824610912 1.4747196762526844 0.62932039886446345 0 -0.77714595512881146 0.19428648878220287 0 0.15733009971611586 1 I I -0.70710678118654779 0.70710678118654713 0.25 forward I I I I #
loop $-1 $-1 $177 $44 #
coedge $-1 $111 $111 $178 $179 reversed $70 $-1 #
face $-1 $180 $181 $27 $-1 $182 reversed single #
loop $-1 $-1 $183 $72 #
plane-surface $-1 0 -19.760827513254323 0 0 1 0 0 0 1 forward_v I I I I #
coedge $-1 $184 $185 $186 $187 forward $73 $-1 #
coedge $-1 $188 $75 $189 $190 forward $46 $-1 #
coedge $-1 $75 $188 $191 $192 forward $46 $-1 #
coedge $-1 $193 $194 $75 $119 reversed $195 $-1 #
edge $-1 $196 -19.760827513254323 $197 19.760827513254323 $118 $198 forward 7 unknown #
face $-1 $199 $200 $28 $-1 $201 reversed single #
loop $-1 $-1 $202 $76 #
plane-surface $-1 -40.181890316476945 0 0 1 0 0 0 0 -1 forward_v I I I I #
coedge $-1 $203 $204 $205 $206 reversed $77 $-1 #
coedge $-1 $207 $79 $208 $209 reversed $49 $-1 #
coedge $-1 $79 $207 $202 $210 reversed $49 $-1 #
coedge $-1 $211 $212 $79 $127 forward $213 $-1 #
edge $-1 $214 -40.181890316476945 $215 40.181890316476945 $126 $216 forward 7 unknown #
face $-1 $217 $218 $29 $-1 $219 reversed single #
loop $-1 $-1 $220 $80 #
plane-surface $-1 0 0 5.168499406013475 0 0 1 1 0 0 forward_v I I I I #
coedge $-1 $221 $222 $223 $224 reversed $81 $-1 #
coedge $-1 $225 $83 $221 $226 forward $52 $-1 #
coedge $-1 $83 $225 $227 $228 reversed $52 $-1 #
coedge $-1 $229 $230 $83 $135 forward $218 $-1 #
edge $-1 $231 5.3906499831576209 $232 11.377001681117006 $134 $233 forward 7 unknown #
face $-1 $234 $235 $30 $-1 $236 forward single #
loop $-1 $-1 $142 $84 #
plane-surface $-1 0 0 5.168499406013475 0 0 1 1 0 0 forward_v I I I I #
coedge $-1 $237 $238 $239 $240 reversed $85 $-1 #
coedge $-1 $141 $87 $241 $242 reversed $55 $-1 #
coedge $-1 $87 $140 $237 $243 reversed $55 $-1 #
coedge $-1 $239 $244 $87 $143 forward $137 $-1 #
edge $-1 $245 -26.030855446024699 $246 -19.76066183861683 $142 $247 forward 7 unknown #
loop $-1 $-1 $149 $88 #
plane-surface $-1 -22.272496741282289 -10.128839672311244 50.665563115484559 0.62932039886446345 0 0.77714595512881146 0.77714595512881146 0 -0.62932039886446345 forward_v I I I I #
loop $-1 $-1 $248 $57 #
coedge $-1 $147 $147 $148 $249 reversed $89 $-1 #
coedge $-1 $148 $148 $147 $249 forward $91 $-1 #
coedge $-1 $149 $149 $92 $150 forward $144 $-1 #
edge $-1 $250 0 $250 6.2831853071796004 $149 $251 forward 7 unknown #
loop $-1 $-1 $156 $93 #
plane-surface $-1 -22.272496741282289 -10.128839672311244 50.665563115484559 0.62932039886446345 0 0.77714595512881146 0.77714595512881146 0 -0.62932039886446345 forward_v I I I I #
loop $-1 $-1 $252 $60 #
coedge $-1 $154 $154 $155 $253 reversed $94 $-1 #
coedge $-1 $155 $155 $154 $253 forward $96 $-1 #
coedge $-1 $156 $156 $97 $157 forward $151 $-1 #
edge $-1 $254 0 $254 6.2831853071796004 $156 $255 forward 7 unknown #
face $-1 $256 $257 $33 $-1 $258 forward single #
loop $-1 $-1 $259 $98 #
plane-surface $-1 -40.181890316476945 0 0 1 0 0 0 0 -1 forward_v I I I I #
coedge $-1 $260 $261 $262 $263 reversed $99 $-1 #
coedge $-1 $264 $101 $265 $266 reversed $64 $-1 #
coedge $-1 $101 $264 $260 $267 forward $64 $-1 #
coedge $-1 $262 $268 $101 $165 forward $257 $-1 #
edge $-1 $269 -8.7100559791393124 $270 -1.4187836931719318 $164 $271 forward 7 unknown #
loop $-1 $-1 $171 $102 #
plane-surface $-1 -40.181890316476967 -10.128839672311244 0.090996633297784513 -0.62932039886446345 0 0.77714595512881146 0.77714595512881146 0 0.62932039886446345 forward_v I I I I #
loop $-1 $-1 $272 $66 #
coedge $-1 $169 $169 $170 $273 reversed $103 $-1 #
coedge $-1 $170 $170 $169 $273 forward $105 $-1 #
coedge $-1 $171 $171 $106 $172 forward $166 $-1 #
edge $-1 $274 0 $274 6.2831853071796004 $171 $275 forward 7 unknown #
loop $-1 $-1 $178 $107 #
plane-surface $-1 -40.181890316476967 -10.128839672311244 0.090996633297784513 -0.62932039886446345 0 0.77714595512881146 0.77714595512881146 0 0.62932039886446345 forward_v I I I I #
loop $-1 $-1 $276 $69 #
coedge $-1 $176 $176 $177 $277 reversed $108 $-1 #
coedge $-1 $177 $177 $176 $277 forward $110 $-1 #
coedge $-1 $178 $178 $111 $179 forward $173 $-1 #
edge $-1 $278 0 $278 6.2831853071796004 $178 $279 forward 7 unknown #
face $-1 $280 $281 $27 $-1 $282 reversed single #
loop $-1 $-1 $283 $112 #
plane-surface $-1 -40.181890316476945 0 0 1 0 0 0 0 -1 forward_v I I I I #
coedge $-1 $284 $191 $285 $286 forward $113 $-1 #
coedge $-1 $287 $115 $284 $288 forward $73 $-1 #
coedge $-1 $115 $287 $289 $290 forward $73 $-1 #
coedge $-1 $194 $193 $115 $187 reversed $195 $-1 #
edge $-1 $291 -19.760827513254323 $292 19.760827513254323 $186 $293 forward 7 unknown #
coedge $-1 $117 $116 $294 $295 forward $46 $-1 #
coedge $-1 $296 $297 $116 $190 reversed $281 $-1 #
edge $-1 $197 -40.181890316476945 $298 40.181890316476945 $189 $299 forward 7 unknown #
coedge $-1 $183 $300 $117 $192 reversed $113 $-1 #
edge $-1 $301 -40.181890316476945 $196 40.181890316476945 $191 $302 forward 7 unknown #
coedge $-1 $186 $118 $300 $303 forward $195 $-1 #
coedge $-1 $118 $186 $296 $304 reversed $195 $-1 #
loop $-1 $-1 $193 $280 #
vertex $-1 $119 $305 #
vertex $-1 $119 $306 #
straight-curve $-1 40.181890316476945 0 5.168499406013475 0 1 0 I I #
face $-1 $307 $213 $28 $-1 $308 forward single #
loop $-1 $-1 $309 $120 #
plane-surface $-1 0 -19.760827513254323 0 0 1 0 0 0 1 forward_v I I I I #
coedge $-1 $310 $311 $125 $210 forward $121 $-1 #
coedge $-1 $312 $123 $309 $313 reversed $77 $-1 #
coedge $-1 $123 $312 $207 $314 forward $77 $-1 #
coedge $-1 $208 $315 $123 $206 forward $316 $-1 #
edge $-1 $317 -11.377001681117008 $318 -5.3906499831576209 $205 $319 forward 7 unknown #
coedge $-1 $125 $124 $204 $314 reversed $49 $-1 #
coedge $-1 $320 $205 $124 $209 forward $316 $-1 #
edge $-1 $318 0.33424970300673751 $214 3.3342497030067375 $208 $321 forward 7 unknown #
edge $-1 $215 -3.3342497030067375 $322 -0.33424970300673751 $202 $323 forward 7 unknown #
coedge $-1 $324 $126 $311 $325 forward $213 $-1 #
coedge $-1 $126 $324 $320 $326 forward $213 $-1 #
loop $-1 $-1 $126 $199 #
vertex $-1 $209 $327 #
vertex $-1 $325 $328 #
straight-curve $-1 0 -13.774475815294936 5.168499406013475 -1 0 0 I I #
face $-1 $329 $330 $29 $-1 $331 reversed single #
loop $-1 $-1 $230 $128 #
plane-surface $-1 40.181890316476945 0 0 -1 0 0 0 0 1 forward_v I I I I #
coedge $-1 $332 $333 $222 $334 forward $129 $-1 #
coedge $-1 $335 $131 $132 $226 reversed $81 $-1 #
coedge $-1 $131 $335 $220 $334 reversed $81 $-1 #
coedge $-1 $336 $337 $131 $224 forward $330 $-1 #
edge $-1 $338 0.33424970300673751 $339 3.3342497030067375 $223 $340 forward 7 unknown #
coedge $-1 $133 $132 $337 $341 reversed $52 $-1 #
edge $-1 $231 -40.181890316476945 $338 40.181890316476945 $221 $342 forward 7 unknown #
coedge $-1 $343 $344 $133 $228 forward $345 $-1 #
edge $-1 $232 -40.181890316476945 $346 40.181890316476945 $227 $347 forward 7 unknown #
coedge $-1 $348 $134 $344 $349 reversed $218 $-1 #
coedge $-1 $134 $348 $335 $350 forward $218 $-1 #
vertex $-1 $135 $351 #
vertex $-1 $228 $352 #
straight-curve $-1 40.181890316476945 8.3838258321373136 2.168499406013475 0 1 0 I I #
face $-1 $-1 $353 $30 $-1 $354 reversed single #
loop $-1 $-1 $355 $136 #
plane-surface $-1 0 -13.774475815294936 3.668499406013475 0 -1 0 0 0 -1 forward_v I I I I #
coedge $-1 $356 $139 $141 $243 forward $85 $-1 #
coedge $-1 $139 $356 $355 $357 forward $85 $-1 #
coedge $-1 $358 $142 $139 $240 forward $137 $-1 #
edge $-1 $246 1.4187836931719318 $359 8.7100559791393124 $239 $360 forward 7 unknown #
coedge $-1 $361 $362 $140 $242 forward $353 $-1 #
edge $-1 $363 -56.468978453324119 $245 -51.391475680608423 $241 $364 forward 7 unknown #
edge $-1 $246 72.295548962921472 $363 80.36378063295389 $141 $365 forward 7 unknown #
coedge $-1 $142 $358 $361 $366 forward $137 $-1 #
vertex $-1 $242 $367 #
vertex $-1 $143 $368 #
straight-curve $-1 14.151034870452246 -6.4832035293275538 5.1684994060134741 -1 0 0 I I #
coedge $-1 $248 $248 $-1 $369 reversed $146 $-1 #
edge $-1 $370 0 $370 6.2831853071796004 $147 $371 forward 7 unknown #
vertex $-1 $150 $372 #
ellipse-curve $-1 37.046793512773 -11.691255162161397 2.6297480196556253 0.62932039886446345 0 0.77714595512881146 0.38857297756440573 0 -0.31466019943223172 1 I I #
coedge $-1 $252 $252 $-1 $373 reversed $153 $-1 #
edge $-1 $374 0 $374 6.2831853071796004 $154 $375 forward 7 unknown #
vertex $-1 $157 $376 #
ellipse-curve $-1 37.046793512773 -8.5664241824610912 2.6297480196556253 0.62932039886446345 0 0.77714595512881146 0.38857297756440573 0 -0.31466019943223172 1 I I #
face $-1 $-1 $377 $33 $-1 $378 forward single #
loop $-1 $-1 $262 $158 #
plane-surface $-1 0 0 5.168499406013475 0 0 1 1 0 0 forward_v I I I I #
coedge $-1 $379 $380 $261 $381 forward $159 $-1 #
coedge $-1 $261 $161 $163 $267 reversed $99 $-1 #
coedge $-1 $161 $260 $259 $381 reversed $99 $-1 #
coedge $-1 $382 $164 $161 $263 forward $257 $-1 #
edge $-1 $270 -11.466531690262769 $383 -5.196338082854929 $262 $384 forward 7 unknown #
coedge $-1 $163 $162 $379 $385 reversed $64 $-1 #
coedge $-1 $386 $387 $162 $266 forward $377 $-1 #
edge $-1 $388 -16.739294500371869 $269 -8.6710628303394888 $265 $389 forward 7 unknown #
edge $-1 $390 2.743042963972496e-014 $270 8.0682316700324073 $260 $391 forward 7 unknown #
coedge $-1 $164 $382 $386 $392 forward $257 $-1 #
vertex $-1 $266 $393 #
vertex $-1 $165 $394 #
straight-curve $-1 -33.911696709069105 -5.0644198361556221 5.168499406013475 0 1 0 I I #
coedge $-1 $272 $272 $-1 $395 reversed $168 $-1 #
edge $-1 $396 0 $396 6.2831853071796004 $169 $397 forward 7 unknown #
vertex $-1 $172 $398 #
ellipse-curve $-1 -37.046793512773021 -11.691255162161397 2.62974801965564 -0.62932039886446345 0 0.77714595512881146 0.38857297756440573 0 0.31466019943223172 1 I I #
coedge $-1 $276 $276 $-1 $399 reversed $175 $-1 #
edge $-1 $400 0 $400 6.2831853071796004 $176 $401 forward 7 unknown #
vertex $-1 $179 $402 #
ellipse-curve $-1 -37.046793512773021 -8.5664241824610912 2.62974801965564 -0.62932039886446345 0 0.77714595512881146 0.38857297756440573 0 0.31466019943223172 1 I I #
face $-1 $-1 $195 $27 $-1 $403 reversed single #
loop $-1 $-1 $296 $180 #
plane-surface $-1 0 19.760827513254323 0 0 -1 0 0 0 -1 forward_v I I I I #
coedge $-1 $404 $294 $297 $405 forward $181 $-1 #
coedge $-1 $300 $183 $184 $288 reversed $113 $-1 #
coedge $-1 $294 $404 $183 $286 reversed $181 $-1 #
edge $-1 $301 -5.168499406013475 $406 5.168499406013475 $285 $407 forward 7 unknown #
coedge $-1 $185 $184 $404 $408 forward $73 $-1 #
edge $-1 $292 -40.181890316476945 $406 40.181890316476945 $284 $409 forward 7 unknown #
coedge $-1 $297 $296 $185 $290 reversed $281 $-1 #
edge $-1 $410 -40.181890316476945 $291 40.181890316476945 $289 $411 forward 7 unknown #
vertex $-1 $187 $412 #
vertex $-1 $303 $413 #
straight-curve $-1 40.181890316476945 0 -5.168499406013475 0 -1 0 I I #
coedge $-1 $283 $285 $188 $295 reversed $181 $-1 #
edge $-1 $298 -19.760827513254323 $301 19.760827513254323 $294 $414 forward 7 unknown #
coedge $-1 $289 $189 $194 $304 forward $281 $-1 #
coedge $-1 $189 $289 $283 $405 reversed $281 $-1 #
vertex $-1 $190 $415 #
straight-curve $-1 0 19.760827513254323 5.168499406013475 -1 0 0 I I #
coedge $-1 $191 $284 $193 $303 reversed $113 $-1 #
vertex $-1 $295 $416 #
straight-curve $-1 0 -19.760827513254323 5.168499406013475 1 0 0 I I #
edge $-1 $196 -5.168499406013475 $292 5.168499406013475 $193 $417 forward 7 unknown #
edge $-1 $197 -5.168499406013475 $291 5.168499406013475 $194 $418 forward 7 unknown #
point $-1 40.181890316476945 -19.760827513254323 5.168499406013475 #
point $-1 40.181890316476945 19.760827513254323 5.168499406013475 #
face $-1 $-1 $316 $28 $-1 $419 reversed single #
plane-surface $-1 0 0 5.168499406013475 0 0 1 1 0 0 forward_v I I I I #
coedge $-1 $420 $421 $203 $313 forward $200 $-1 #
coedge $-1 $422 $202 $312 $423 forward $121 $-1 #
coedge $-1 $202 $422 $211 $325 reversed $121 $-1 #
coedge $-1 $204 $203 $310 $423 reversed $77 $-1 #
edge $-1 $424 -40.181890316476945 $317 40.181890316476945 $309 $425 forward 7 unknown #
edge $-1 $322 -40.181890316476945 $318 40.181890316476945 $207 $426 forward 7 unknown #
coedge $-1 $205 $320 $420 $427 forward $316 $-1 #
loop $-1 $-1 $208 $307 #
vertex $-1 $313 $428 #
vertex $-1 $206 $429 #
straight-curve $-1 40.181890316476945 -8.3838258321373154 2.168499406013475 0 1 0 I I #
coedge $-1 $315 $208 $212 $326 reversed $316 $-1 #
straight-curve $-1 40.181890316476945 -13.774475815294936 1.8342497030067375 0 0 1 I I #
vertex $-1 $423 $430 #
straight-curve $-1 -40.181890316476945 -13.774475815294936 1.8342497030067375 0 0 -1 I I #
coedge $-1 $212 $211 $431 $432 forward $213 $-1 #
edge $-1 $215 13.774475815294936 $433 19.760827513254323 $311 $434 forward 7 unknown #
edge $-1 $435 -19.760827513254323 $214 -13.774475815294936 $320 $436 forward 7 unknown #
point $-1 40.181890316476945 -13.774475815294936 5.168499406013475 #
point $-1 -40.181890316476945 -13.774475815294936 5.168499406013475 #
face $-1 $-1 $345 $29 $-1 $437 reversed single #
loop $-1 $-1 $223 $217 #
plane-surface $-1 -40.181890316476945 0 0 1 0 0 0 0 -1 forward_v I I I I #
coedge $-1 $438 $220 $348 $439 forward $129 $-1 #
coedge $-1 $220 $438 $336 $440 forward $129 $-1 #
edge $-1 $339 -40.181890316476945 $441 40.181890316476945 $220 $442 forward 7 unknown #
coedge $-1 $222 $221 $230 $350 reversed $81 $-1 #
coedge $-1 $443 $223 $333 $440 reversed $330 $-1 #
coedge $-1 $223 $443 $225 $341 forward $330 $-1 #
vertex $-1 $341 $444 #
vertex $-1 $224 $445 #
straight-curve $-1 -40.181890316476945 13.774475815294934 1.8342497030067375 0 0 1 I I #
edge $-1 $346 -11.377001681117006 $338 -5.3906499831576209 $337 $446 forward 7 unknown #
straight-curve $-1 0 13.774475815294934 2.168499406013475 -1 0 0 I I #
coedge $-1 $447 $227 $443 $448 reversed $345 $-1 #
coedge $-1 $227 $447 $229 $349 forward $345 $-1 #
loop $-1 $-1 $227 $329 #
vertex $-1 $228 $449 #
straight-curve $-1 0 19.760827513254323 2.168499406013475 -1 0 0 I I #
coedge $-1 $230 $229 $332 $439 reversed $218 $-1 #
edge $-1 $450 -5.168499406013475 $232 -2.168499406013475 $229 $451 forward 7 unknown #
edge $-1 $441 -3.3342497030067375 $231 -0.33424970300673751 $230 $452 forward 7 unknown #
point $-1 40.181890316476945 13.774475815294934 2.168499406013475 #
point $-1 40.181890316476945 19.76082751325432 2.168499406013475 #
loop $-1 $-1 $241 $234 #
plane-surface $-1 40.181890316476945 0 0 -1 0 0 0 0 1 forward_v I I I I #
coedge $-1 $453 $454 $238 $357 reversed $235 $-1 #
coedge $-1 $238 $237 $362 $455 reversed $85 $-1 #
edge $-1 $456 -80.36378063295389 $359 -72.295548962921472 $355 $457 forward 7 unknown #
coedge $-1 $244 $239 $454 $458 forward $137 $-1 #
vertex $-1 $458 $459 #
straight-curve $-1 33.911696709069069 -5.0644198361556221 5.1684994060134741 0 -1 0 I I #
coedge $-1 $460 $241 $244 $366 reversed $353 $-1 #
coedge $-1 $241 $460 $356 $455 forward $353 $-1 #
vertex $-1 $242 $461 #
straight-curve $-1 40.181890316476945 -6.4832035293275538 56.559975086621897 0 0 1 I I #
straight-curve $-1 -22.272496741282289 -6.4832035293275538 50.665563115484559 0.77714595512881146 0 -0.62932039886446345 I I #
edge $-1 $462 -13.774475815294936 $245 -6.4832035293275538 $361 $463 forward 7 unknown #
point $-1 40.181890316476945 -6.4832035293275538 5.168499406013475 #
point $-1 33.911696709069076 -6.4832035293275538 5.1684994060134741 #
edge $-1 $464 1 $464 0 $248 $-1 forward 7 unknown #
vertex $-1 $249 $465 #
ellipse-curve $-1 36.268800082883118 -11.691255162161397 1.6690061650348844 0.62932039886446345 0 0.77714595512881146 0.38857297756440573 0 -0.31466019943223172 1 I I #
point $-1 37.435366490337408 -11.691255162161397 2.3150878202233964 #
edge $-1 $466 1 $466 0 $252 $-1 forward 7 unknown #
vertex $-1 $253 $467 #
ellipse-curve $-1 36.268800082883118 -8.5664241824610912 1.6690061650348844 0.62932039886446345 0 0.77714595512881146 0.38857297756440573 0 -0.31466019943223172 1 I I #
point $-1 37.435366490337408 -8.5664241824610912 2.3150878202233964 #
loop $-1 $-1 $265 $256 #
plane-surface $-1 0 -13.774475815294936 3.668499406013475 0 -1 0 0 0 -1 forward_v I I I I #
coedge $-1 $468 $259 $264 $385 forward $159 $-1 #
coedge $-1 $259 $468 $382 $469 reversed $159 $-1 #
edge $-1 $383 26.104192439515035 $390 31.181695212230707 $259 $470 forward 7 unknown #
coedge $-1 $268 $262 $380 $469 forward $257 $-1 #
vertex $-1 $469 $471 #
straight-curve $-1 -45.378228399331874 -6.4832035293275538 5.1684994060134741 -1 0 0 I I #
edge $-1 $390 1.4187836931719318 $388 8.7100559791393124 $379 $472 forward 7 unknown #
coedge $-1 $387 $265 $268 $392 reversed $377 $-1 #
coedge $-1 $265 $386 $468 $473 reversed $377 $-1 #
vertex $-1 $473 $474 #
straight-curve $-1 -27.173015303802988 -13.774475815294936 10.625376124981546 0.77714595512881146 0 0.62932039886446345 I I #
vertex $-1 $385 $475 #
straight-curve $-1 -40.181890316476967 -6.4832035293275538 0.090996633297784513 0.77714595512881146 0 0.62932039886446345 I I #
edge $-1 $476 -40.181890316476945 $269 -33.911696709069105 $268 $477 forward 7 unknown #
point $-1 -33.911696709069105 -13.774475815294934 5.168499406013475 #
point $-1 -33.911696709069105 -6.4832035293275538 5.168499406013475 #
edge $-1 $478 1 $478 0 $272 $-1 forward 7 unknown #
vertex $-1 $273 $479 #
ellipse-curve $-1 -36.268800082883132 -11.691255162161397 1.6690061650348871 -0.62932039886446345 0 0.77714595512881146 0.38857297756440573 0 0.31466019943223172 1 I I #
point $-1 -36.658220535208606 -11.691255162161397 2.9444082190878627 #
edge $-1 $480 1 $480 0 $276 $-1 forward 7 unknown #
vertex $-1 $277 $481 #
ellipse-curve $-1 -36.268800082883132 -8.5664241824610912 1.6690061650348871 -0.62932039886446345 0 0.77714595512881146 0.38857297756440573 0 0.31466019943223172 1 I I #
point $-1 -36.658220535208606 -8.5664241824610912 2.9444082190878627 #
plane-surface $-1 40.181890316476945 0 0 -1 0 0 0 0 1 forward_v I I I I #
coedge $-1 $285 $283 $287 $408 reversed $181 $-1 #
edge $-1 $298 -5.168499406013475 $410 5.168499406013475 $297 $482 forward 7 unknown #
vertex $-1 $408 $483 #
straight-curve $-1 -40.181890316476945 -19.760827513254323 0 0 0 -1 I I #
edge $-1 $406 -19.760827513254323 $410 19.760827513254323 $404 $484 forward 7 unknown #
straight-curve $-1 0 -19.760827513254323 -5.168499406013475 -1 0 0 I I #
vertex $-1 $290 $485 #
straight-curve $-1 0 19.760827513254323 -5.168499406013475 1 0 0 I I #
point $-1 40.181890316476945 19.760827513254323 -5.168499406013475 #
point $-1 40.181890316476945 -19.760827513254323 -5.168499406013475 #
straight-curve $-1 -40.181890316476945 0 5.168499406013475 0 -1 0 I I #
point $-1 -40.181890316476945 19.760827513254323 5.168499406013475 #
point $-1 -40.181890316476945 -19.760827513254323 5.168499406013475 #
straight-curve $-1 40.181890316476945 -19.760827513254323 0 0 0 -1 I I #
straight-curve $-1 40.181890316476945 19.760827513254323 0 0 0 -1 I I #
plane-surface $-1 40.181890316476945 0 0 -1 0 0 0 0 1 forward_v I I I I #
coedge $-1 $431 $309 $315 $427 reversed $200 $-1 #
coedge $-1 $309 $431 $422 $486 forward $200 $-1 #
coedge $-1 $311 $310 $421 $486 reversed $121 $-1 #
edge $-1 $322 5.3906499831576209 $424 11.377001681117008 $310 $487 forward 7 unknown #
vertex $-1 $313 $488 #
straight-curve $-1 0 -19.760827513254323 2.168499406013475 1 0 0 I I #
straight-curve $-1 0 -13.774475815294936 2.168499406013475 1 0 0 I I #
edge $-1 $435 -5.168499406013475 $317 -2.168499406013475 $315 $489 forward 7 unknown #
point $-1 40.181890316476945 -19.760827513254323 2.168499406013475 #
point $-1 40.181890316476945 -13.774475815294936 2.168499406013475 #
point $-1 -40.181890316476945 -13.774475815294936 2.168499406013475 #
coedge $-1 $421 $420 $324 $432 reversed $200 $-1 #
edge $-1 $433 -40.181890316476945 $435 40.181890316476945 $431 $490 forward 7 unknown #
vertex $-1 $325 $491 #
straight-curve $-1 -40.181890316476945 0 5.168499406013475 0 -1 0 I I #
vertex $-1 $326 $492 #
straight-curve $-1 40.181890316476945 0 5.168499406013475 0 1 0 I I #
plane-surface $-1 0 19.760827513254323 0 0 -1 0 0 0 -1 forward_v I I I I #
coedge $-1 $333 $332 $447 $493 forward $129 $-1 #
edge $-1 $441 13.774475815294934 $450 19.760827513254323 $348 $494 forward 7 unknown #
edge $-1 $495 -19.760827513254323 $339 -13.774475815294934 $336 $496 forward 7 unknown #
vertex $-1 $439 $497 #
straight-curve $-1 0 13.774475815294934 5.168499406013475 1 0 0 I I #
coedge $-1 $337 $336 $343 $448 forward $330 $-1 #
point $-1 -40.181890316476945 13.774475815294934 2.168499406013475 #
point $-1 -40.181890316476945 13.774475815294934 5.168499406013475 #
straight-curve $-1 -40.181890316476945 8.3838258321373136 2.168499406013475 0 -1 0 I I #
coedge $-1 $344 $343 $438 $493 reversed $345 $-1 #
edge $-1 $495 -5.168499406013475 $346 -2.168499406013475 $343 $498 forward 7 unknown #
point $-1 -40.181890316476945 19.76082751325432 2.168499406013475 #
vertex $-1 $439 $499 #
straight-curve $-1 40.181890316476945 19.760827513254323 0 0 0 -1 I I #
straight-curve $-1 40.181890316476945 13.774475815294934 1.8342497030067375 0 0 -1 I I #
coedge $-1 $454 $355 $460 $500 reversed $235 $-1 #
coedge $-1 $355 $453 $358 $458 reversed $235 $-1 #
edge $-1 $456 -8.7100559791393124 $363 -1.4187836931719318 $362 $501 forward 7 unknown #
vertex $-1 $500 $502 #
straight-curve $-1 -22.272496741282289 -13.774475815294934 50.665563115484559 -0.77714595512881146 0 0.62932039886446345 I I #
edge $-1 $359 33.911696709069076 $462 40.181890316476945 $358 $503 forward 7 unknown #
point $-1 33.911696709069076 -13.774475815294934 5.1684994060134741 #
coedge $-1 $362 $361 $453 $500 forward $353 $-1 #
point $-1 40.181890316476945 -6.4832035293275538 0.090996633297777407 #
vertex $-1 $366 $504 #
straight-curve $-1 40.181890316476945 0 5.168499406013475 0 1 0 I I #
vertex $-1 $369 $505 #
point $-1 36.657373060447526 -11.691255162161397 1.3543459656026526 #
vertex $-1 $373 $506 #
point $-1 36.657373060447526 -8.5664241824610912 1.3543459656026526 #
coedge $-1 $380 $379 $387 $473 forward $159 $-1 #
edge $-1 $383 6.4832035293275538 $476 13.774475815294936 $380 $507 forward 7 unknown #
straight-curve $-1 -40.181890316476945 -6.4832035293275538 31.272691845528509 0 0 -1 I I #
point $-1 -40.181890316476945 -6.4832035293275538 5.168499406013475 #
straight-curve $-1 -40.181890316476945 -5.0644198361556221 0.090996633297796503 0 -1 0 I I #
edge $-1 $388 -31.181695212230707 $476 -26.104192439515035 $468 $508 forward 7 unknown #
point $-1 -40.181890316476945 -13.774475815294934 0.090996633297801777 #
point $-1 -40.181890316476945 -6.4832035293275538 0.090996633297801777 #
vertex $-1 $473 $509 #
straight-curve $-1 0 -13.774475815294936 5.168499406013475 1 0 0 I I #
vertex $-1 $395 $510 #
point $-1 -35.880227105318731 -11.691255162161397 1.9836663644671189 #
vertex $-1 $399 $511 #
point $-1 -35.880227105318731 -8.5664241824610912 1.9836663644671189 #
straight-curve $-1 -40.181890316476945 19.760827513254323 0 0 0 -1 I I #
point $-1 -40.181890316476945 -19.760827513254323 -5.168499406013475 #
straight-curve $-1 -40.181890316476945 0 -5.168499406013475 0 1 0 I I #
point $-1 -40.181890316476945 19.760827513254323 -5.168499406013475 #
edge $-1 $433 -5.168499406013475 $424 -2.168499406013475 $422 $512 forward 7 unknown #
straight-curve $-1 -40.181890316476945 -8.3838258321373154 2.168499406013475 0 -1 0 I I #
point $-1 -40.181890316476945 -19.760827513254323 2.168499406013475 #
straight-curve $-1 40.181890316476945 -19.760827513254323 0 0 0 -1 I I #
straight-curve $-1 0 -19.760827513254323 5.168499406013475 1 0 0 I I #
point $-1 -40.181890316476945 -19.760827513254323 5.168499406013475 #
point $-1 40.181890316476945 -19.760827513254323 5.168499406013475 #
edge $-1 $450 -40.181890316476945 $495 40.181890316476945 $447 $513 forward 7 unknown #
straight-curve $-1 40.181890316476945 0 5.168499406013475 0 1 0 I I #
vertex $-1 $493 $514 #
straight-curve $-1 -40.181890316476945 0 5.168499406013475 0 -1 0 I I #
point $-1 40.181890316476945 13.774475815294934 5.168499406013475 #
straight-curve $-1 -40.181890316476945 19.760827513254323 0 0 0 -1 I I #
point $-1 40.181890316476945 19.760827513254323 5.168499406013475 #
edge $-1 $462 51.391475680608423 $456 56.468978453324119 $460 $515 forward 7 unknown #
straight-curve $-1 40.181890316476952 -5.0644198361556221 0.090996633297773855 0 1 0 I I #
point $-1 40.181890316476945 -13.774475815294934 0.090996633297777407 #
straight-curve $-1 0 -13.774475815294936 5.168499406013475 1 0 0 I I #
point $-1 40.181890316476945 -13.774475815294936 5.168499406013475 #
point $-1 35.954139883450893 -11.691255162161397 1.2804331874704791 #
point $-1 35.954139883450893 -8.5664241824610912 1.2804331874704791 #
straight-curve $-1 -40.181890316476945 0 5.168499406013475 0 -1 0 I I #
straight-curve $-1 -40.181890316476945 -13.774475815294934 31.272691845528509 0 0 1 I I #
point $-1 -40.181890316476945 -13.774475815294936 5.168499406013475 #
point $-1 -35.954139883450907 -11.691255162161397 1.2804331874704817 #
point $-1 -35.954139883450907 -8.5664241824610912 1.2804331874704817 #
straight-curve $-1 -40.181890316476945 -19.760827513254323 0 0 0 -1 I I #
straight-curve $-1 0 19.760827513254323 5.168499406013475 -1 0 0 I I #
point $-1 -40.181890316476945 19.760827513254323 5.168499406013475 #
straight-curve $-1 40.181890316476945 -13.774475815294934 56.559975086621897 0 0 -1 I I #
End-of-ACIS-data 