500 0 15 0           
7 Unknown 11 ACIS 5.0 NT 24 Thu Mar 25 22:02:25 1999 
-1 9.9999999999999995e-007 1e-010 
body $-1 $15 $-1 $16 #
body $-1 $17 $-1 $18 #
body $-1 $19 $-1 $20 #
body $-1 $21 $-1 $22 #
body $-1 $23 $-1 $24 #
body $-1 $25 $-1 $26 #
body $-1 $27 $-1 $28 #
body $-1 $29 $-1 $30 #
body $-1 $31 $-1 $32 #
body $-1 $33 $-1 $34 #
body $-1 $35 $-1 $36 #
body $-1 $37 $-1 $38 #
body $-1 $39 $-1 $40 #
body $-1 $41 $-1 $42 #
body $-1 $43 $-1 $44 #
lump $-1 $-1 $45 $0 #
transform $-1 1 0 0 0 1 0 0 0 1 48.232673116245003 25.817661781296916 6.8058656250034035 1 rotate no_reflect no_shear #
lump $-1 $-1 $46 $1 #
transform $-1 1 0 0 0 1 0 0 0 1 48.232673116245003 25.817661781296916 6.8058656250034035 1 rotate no_reflect no_shear #
lump $-1 $-1 $47 $2 #
transform $-1 1 0 0 0 1 0 0 0 1 48.232673116245003 25.817661781296916 6.8058656250034035 1 rotate no_reflect no_shear #
lump $-1 $-1 $48 $3 #
transform $-1 1 0 0 0 1 0 0 0 1 48.232673116245003 25.817661781296916 6.8058656250034035 1 rotate no_reflect no_shear #
lump $-1 $-1 $49 $4 #
transform $-1 1 0 0 0 1 0 0 0 1 48.232673116245003 25.817661781296916 6.8058656250034035 1 rotate no_reflect no_shear #
lump $-1 $-1 $50 $5 #
transform $-1 1 0 0 0 1 0 0 0 1 48.232673116245003 25.817661781296916 6.8058656250034035 1 rotate no_reflect no_shear #
lump $-1 $-1 $51 $6 #
transform $-1 1 0 0 0 1 0 0 0 1 48.232673116245003 25.817661781296916 6.8058656250034035 1 rotate no_reflect no_shear #
lump $-1 $-1 $52 $7 #
transform $-1 1 0 0 0 1 0 0 0 1 48.232673116245003 25.817661781296916 6.8058656250034035 1 rotate no_reflect no_shear #
lump $-1 $-1 $53 $8 #
transform $-1 1 0 0 0 1 0 0 0 1 48.232673116245003 25.817661781296916 6.8058656250034035 1 rotate no_reflect no_shear #
lump $-1 $-1 $54 $9 #
transform $-1 1 0 0 0 1 0 0 0 1 48.232673116245003 25.817661781296916 6.8058656250034035 1 rotate no_reflect no_shear #
lump $-1 $-1 $55 $10 #
transform $-1 1 0 0 0 1 0 0 0 1 48.232673116245003 25.817661781296916 6.8058656250034035 1 rotate no_reflect no_shear #
lump $-1 $-1 $56 $11 #
transform $-1 1 0 0 0 1 0 0 0 1 48.232673116245003 25.817661781296916 6.8058656250034035 1 rotate no_reflect no_shear #
lump $-1 $-1 $57 $12 #
transform $-1 1 0 0 0 1 0 0 0 1 48.232673116245003 25.817661781296916 6.8058656250034035 1 rotate no_reflect no_shear #
lump $-1 $-1 $58 $13 #
transform $-1 1 0 0 0 1 0 0 0 1 48.232673116245003 25.817661781296916 6.8058656250034035 1 rotate no_reflect no_shear #
lump $-1 $-1 $59 $14 #
transform $-1 1 0 0 0 1 0 0 0 1 48.232673116245003 25.817661781296916 6.8058656250034035 1 rotate no_reflect no_shear #
shell $-1 $-1 $-1 $60 $-1 $15 #
shell $-1 $-1 $-1 $61 $-1 $17 #
shell $-1 $-1 $-1 $62 $-1 $19 #
shell $-1 $-1 $-1 $63 $-1 $21 #
shell $-1 $-1 $-1 $64 $-1 $23 #
shell $-1 $-1 $-1 $65 $-1 $25 #
shell $-1 $-1 $-1 $66 $-1 $27 #
shell $-1 $-1 $-1 $67 $-1 $29 #
shell $-1 $-1 $-1 $68 $-1 $31 #
shell $-1 $-1 $-1 $69 $-1 $33 #
shell $-1 $-1 $-1 $70 $-1 $35 #
shell $-1 $-1 $-1 $71 $-1 $37 #
shell $-1 $-1 $-1 $72 $-1 $39 #
shell $-1 $-1 $-1 $73 $-1 $41 #
shell $-1 $-1 $-1 $74 $-1 $43 #
face $-1 $75 $76 $45 $-1 $77 forward single #
face $-1 $78 $79 $46 $-1 $80 forward single #
face $-1 $81 $82 $47 $-1 $83 forward single #
face $-1 $84 $85 $48 $-1 $86 reversed single #
face $-1 $87 $88 $49 $-1 $89 forward single #
face $-1 $90 $91 $50 $-1 $92 forward single #
face $-1 $93 $94 $51 $-1 $95 forward single #
face $-1 $96 $97 $52 $-1 $98 reversed single #
face $-1 $99 $100 $53 $-1 $101 forward single #
face $-1 $102 $103 $54 $-1 $104 forward single #
face $-1 $105 $106 $55 $-1 $107 forward single #
face $-1 $108 $109 $56 $-1 $110 reversed single #
face $-1 $111 $112 $57 $-1 $113 forward single #
face $-1 $114 $115 $58 $-1 $116 forward single #
face $-1 $117 $118 $59 $-1 $119 forward single #
face $-1 $120 $121 $45 $-1 $122 reversed single #
loop $-1 $-1 $123 $60 #
plane-surface $-1 0 0 6.8058656250034035 0 0 1 1 0 0 forward_v I I I I #
face $-1 $124 $125 $46 $-1 $126 reversed single #
loop $-1 $-1 $127 $61 #
plane-surface $-1 -48.232673116245003 0 0 1 0 0 0 0 -1 forward_v I I I I #
face $-1 $128 $129 $47 $-1 $130 reversed single #
loop $-1 $-1 $131 $62 #
plane-surface $-1 48.232673116245003 0 0 -1 0 0 0 0 1 forward_v I I I I #
face $-1 $132 $133 $48 $-1 $134 reversed single #
loop $-1 $-1 $135 $63 #
plane-surface $-1 -11.891865926954644 85.154854490424015 95.716809437409012 1 0 0 0 -0.87461971476443456 -0.48480960649040278 forward_v I I I I #
face $-1 $136 $137 $49 $-1 $138 forward single #
loop $-1 $139 $140 $64 #
cone-surface $-1 -8.2456033891331302 24.543995297582331 5.0546334714514813 0 -0.87461971476443456 -0.48480960649040278 0.5 0 0 1 I I 0 1 0.5 forward I I I I #
face $-1 $141 $142 $50 $-1 $143 forward single #
loop $-1 $144 $145 $65 #
cone-surface $-1 -2.7762095824008526 24.543995297582331 5.0546334714514813 0 -0.87461971476443456 -0.48480960649040278 0.5 0 0 1 I I 0 1 0.5 forward I I I I #
face $-1 $146 $147 $51 $-1 $148 forward single #
loop $-1 $149 $150 $66 #
cone-surface $-1 2.693184224331425 24.543995297582331 5.0546334714514813 0 -0.87461971476443456 -0.48480960649040278 0.5 0 0 1 I I 0 1 0.5 forward I I I I #
face $-1 $151 $152 $52 $-1 $153 reversed single #
loop $-1 $-1 $154 $67 #
plane-surface $-1 -12.809552577051967 -100.7853168247032 61.596615523360498 -1 0 0 0 -0.77714596973225614 0.62932038083071107 forward_v I I I I #
face $-1 $155 $156 $53 $-1 $157 forward single #
loop $-1 $158 $159 $68 #
cone-surface $-1 -29.18133620790373 -21.286541153863741 2.1181977420994222 0 0.77714596973225614 -0.62932038083071107 1.5 0 0 1 I I 0 1 1.5 forward I I I I #
face $-1 $160 $161 $54 $-1 $162 forward single #
loop $-1 $163 $164 $69 #
cone-surface $-1 -23.041917346334316 -21.286541153863741 2.1181977420994222 0 0.77714596973225614 -0.62932038083071107 1.5 0 0 1 I I 0 1 1.5 forward I I I I #
face $-1 $165 $166 $55 $-1 $167 forward single #
loop $-1 $168 $169 $70 #
cone-surface $-1 -16.902498484764905 -21.286541153863741 2.1181977420994222 0 0.77714596973225614 -0.62932038083071107 1.5 0 0 1 I I 0 1 1.5 forward I I I I #
face $-1 $170 $171 $56 $-1 $172 reversed single #
loop $-1 $-1 $173 $71 #
plane-surface $-1 33.274282115616671 -100.7853168247032 61.596615523360498 -1 0 0 0 -0.77714596973225614 0.62932038083071107 forward_v I I I I #
face $-1 $174 $175 $57 $-1 $176 forward single #
loop $-1 $177 $178 $72 #
cone-surface $-1 16.902498484764912 -21.286541153863741 2.1181977420994222 0 0.77714596973225614 -0.62932038083071107 1.5 0 0 1 I I 0 1 1.5 forward I I I I #
face $-1 $179 $180 $58 $-1 $181 forward single #
loop $-1 $182 $183 $73 #
cone-surface $-1 23.041917346334323 -21.286541153863741 2.1181977420994222 0 0.77714596973225614 -0.62932038083071107 1.5 0 0 1 I I 0 1 1.5 forward I I I I #
face $-1 $184 $185 $59 $-1 $186 forward single #
loop $-1 $187 $188 $74 #
cone-surface $-1 29.181336207903733 -21.286541153863741 2.1181977420994222 0 0.77714596973225614 -0.62932038083071107 1.5 0 0 1 I I 0 1 1.5 forward I I I I #
face $-1 $189 $190 $45 $-1 $191 reversed single #
loop $-1 $-1 $192 $75 #
plane-surface $-1 0 0 -6.8058656250034035 0 0 1 1 0 0 forward_v I I I I #
coedge $-1 $193 $194 $195 $196 forward $76 $-1 #
face $-1 $197 $198 $46 $-1 $199 forward single #
loop $-1 $-1 $200 $78 #
plane-surface $-1 0 25.817661781296916 0 0 -1 0 0 0 -1 forward_v I I I I #
coedge $-1 $201 $202 $203 $204 forward $79 $-1 #
face $-1 $205 $206 $47 $-1 $207 forward single #
loop $-1 $-1 $208 $81 #
plane-surface $-1 0 -25.817661781296916 0 0 1 0 0 0 1 forward_v I I I I #
coedge $-1 $209 $210 $211 $212 forward $82 $-1 #
face $-1 $213 $214 $48 $-1 $215 reversed single #
loop $-1 $-1 $216 $84 #
plane-surface $-1 -2.7762095824008526 0.78436088391117664 48.949482890475075 0 0.87461971476443456 0.48480960649040278 1 0 0 forward_v I I I I #
coedge $-1 $217 $218 $219 $220 reversed $85 $-1 #
face $-1 $-1 $221 $49 $-1 $222 forward single #
loop $-1 $223 $224 $87 #
cone-surface $-1 -8.2456033891331302 23.888030511509005 4.6910262665836795 0 -0.87461971476443456 -0.48480960649040278 0.25 0 0 1 I I -0.70710678118654746 0.70710678118654746 0.25 forward I I I I #
loop $-1 $-1 $225 $64 #
coedge $-1 $140 $140 $226 $227 reversed $88 $-1 #
face $-1 $-1 $228 $50 $-1 $229 forward single #
loop $-1 $230 $231 $90 #
cone-surface $-1 -2.7762095824008526 23.888030511509005 4.6910262665836795 0 -0.87461971476443456 -0.48480960649040278 0.25 0 0 1 I I -0.70710678118654746 0.70710678118654746 0.25 forward I I I I #
loop $-1 $-1 $232 $65 #
coedge $-1 $145 $145 $233 $234 reversed $91 $-1 #
face $-1 $-1 $235 $51 $-1 $236 forward single #
loop $-1 $237 $238 $93 #
cone-surface $-1 2.693184224331425 23.888030511509005 4.6910262665836795 0 -0.87461971476443456 -0.48480960649040278 0.25 0 0 1 I I -0.70710678118654746 0.70710678118654746 0.25 forward I I I I #
loop $-1 $-1 $239 $66 #
coedge $-1 $150 $150 $240 $241 reversed $94 $-1 #
face $-1 $242 $243 $52 $-1 $244 reversed single #
loop $-1 $-1 $245 $96 #
plane-surface $-1 -23.041917346334319 -25.81766178129692 0.88900709536348899 0 -0.77714596973225614 0.62932038083071107 1 0 0 forward_v I I I I #
coedge $-1 $246 $247 $248 $249 reversed $97 $-1 #
face $-1 $-1 $250 $53 $-1 $251 forward single #
loop $-1 $252 $253 $99 #
cone-surface $-1 -29.18133620790373 -18.568249766707353 -0.083031161607644677 0 0.77714596973225614 -0.62932038083071107 0.75 0 0 1 I I -0.70710678118654757 0.70710678118654757 0.75 forward I I I I #
loop $-1 $-1 $254 $68 #
coedge $-1 $159 $159 $255 $256 reversed $100 $-1 #
face $-1 $-1 $257 $54 $-1 $258 forward single #
loop $-1 $259 $260 $102 #
cone-surface $-1 -23.041917346334316 -18.568249766707353 -0.083031161607644677 0 0.77714596973225614 -0.62932038083071107 0.75 0 0 1 I I -0.70710678118654757 0.70710678118654757 0.75 forward I I I I #
loop $-1 $-1 $261 $69 #
coedge $-1 $164 $164 $262 $263 reversed $103 $-1 #
face $-1 $-1 $264 $55 $-1 $265 forward single #
loop $-1 $266 $267 $105 #
cone-surface $-1 -16.902498484764905 -18.568249766707353 -0.083031161607644677 0 0.77714596973225614 -0.62932038083071107 0.75 0 0 1 I I -0.70710678118654757 0.70710678118654757 0.75 forward I I I I #
loop $-1 $-1 $268 $70 #
coedge $-1 $169 $169 $269 $270 reversed $106 $-1 #
face $-1 $271 $272 $56 $-1 $273 reversed single #
loop $-1 $-1 $274 $108 #
plane-surface $-1 23.041917346334323 -25.81766178129692 0.88900709536348899 0 -0.77714596973225614 0.62932038083071107 1 0 0 forward_v I I I I #
coedge $-1 $275 $276 $277 $278 reversed $109 $-1 #
face $-1 $-1 $279 $57 $-1 $280 forward single #
loop $-1 $281 $282 $111 #
cone-surface $-1 16.902498484764912 -18.568249766707353 -0.083031161607644677 0 0.77714596973225614 -0.62932038083071107 0.75 0 0 1 I I -0.70710678118654757 0.70710678118654757 0.75 forward I I I I #
loop $-1 $-1 $283 $72 #
coedge $-1 $178 $178 $284 $285 reversed $112 $-1 #
face $-1 $-1 $286 $58 $-1 $287 forward single #
loop $-1 $288 $289 $114 #
cone-surface $-1 23.041917346334323 -18.568249766707353 -0.083031161607644677 0 0.77714596973225614 -0.62932038083071107 0.75 0 0 1 I I -0.70710678118654757 0.70710678118654757 0.75 forward I I I I #
loop $-1 $-1 $290 $73 #
coedge $-1 $183 $183 $291 $292 reversed $115 $-1 #
face $-1 $-1 $293 $59 $-1 $294 forward single #
loop $-1 $295 $296 $117 #
cone-surface $-1 29.181336207903733 -18.568249766707353 -0.083031161607644677 0 0.77714596973225614 -0.62932038083071107 0.75 0 0 1 I I -0.70710678118654757 0.70710678118654757 0.75 forward I I I I #
loop $-1 $-1 $297 $74 #
coedge $-1 $188 $188 $298 $299 reversed $118 $-1 #
face $-1 $300 $301 $45 $-1 $302 reversed single #
loop $-1 $-1 $303 $120 #
plane-surface $-1 0 -25.817661781296916 0 0 1 0 0 0 1 forward_v I I I I #
coedge $-1 $304 $305 $306 $307 forward $121 $-1 #
coedge $-1 $308 $123 $309 $310 forward $76 $-1 #
coedge $-1 $123 $308 $311 $312 forward $76 $-1 #
coedge $-1 $313 $314 $123 $196 reversed $315 $-1 #
edge $-1 $316 -25.817661781296916 $317 25.817661781296916 $195 $318 forward 7 unknown #
face $-1 $319 $320 $46 $-1 $321 reversed single #
loop $-1 $-1 $203 $124 #
plane-surface $-1 -50.758742413876121 0 1.113479987582533 0 0 1 1 0 0 forward_v I I I I #
coedge $-1 $322 $323 $202 $324 forward $125 $-1 #
coedge $-1 $325 $127 $326 $327 reversed $79 $-1 #
coedge $-1 $127 $325 $200 $324 reversed $79 $-1 #
coedge $-1 $328 $329 $127 $204 reversed $198 $-1 #
edge $-1 $330 -25.817661781296916 $331 25.817661781296916 $203 $332 forward 7 unknown #
face $-1 $333 $334 $47 $-1 $335 reversed single #
loop $-1 $-1 $336 $128 #
plane-surface $-1 50.758742413876114 0 1.113479987582533 0 0 1 1 0 0 forward_v I I I I #
coedge $-1 $337 $338 $210 $339 forward $129 $-1 #
coedge $-1 $340 $131 $341 $342 reversed $82 $-1 #
coedge $-1 $131 $340 $208 $339 reversed $82 $-1 #
coedge $-1 $343 $344 $131 $212 reversed $206 $-1 #
edge $-1 $345 -25.817661781296916 $346 25.817661781296916 $211 $347 forward 7 unknown #
face $-1 $348 $349 $48 $-1 $350 reversed single #
loop $-1 $-1 $351 $132 #
plane-surface $-1 6.3394467621529387 85.154854490424015 95.716809437409012 -1 0 0 0 0.87461971476443456 0.48480960649040278 forward_v I I I I #
coedge $-1 $352 $353 $354 $355 reversed $133 $-1 #
coedge $-1 $218 $135 $356 $357 reversed $85 $-1 #
coedge $-1 $135 $217 $352 $358 reversed $85 $-1 #
coedge $-1 $354 $359 $135 $220 forward $360 $-1 #
edge $-1 $361 16.759765463915091 $362 18.432478716579823 $219 $363 forward 7 unknown #
loop $-1 $-1 $226 $136 #
plane-surface $-1 -2.7762095824008526 0.78436088391117664 48.949482890475075 0 0.87461971476443456 0.48480960649040278 1 0 0 forward_v I I I I #
loop $-1 $-1 $364 $87 #
coedge $-1 $224 $224 $225 $365 reversed $137 $-1 #
coedge $-1 $225 $225 $224 $365 forward $139 $-1 #
coedge $-1 $226 $226 $140 $227 forward $221 $-1 #
edge $-1 $366 -3.3750601679248526e-016 $366 6.2831853071796004 $226 $367 forward 7 unknown #
loop $-1 $-1 $233 $141 #
plane-surface $-1 -2.7762095824008526 0.78436088391117664 48.949482890475075 0 0.87461971476443456 0.48480960649040278 1 0 0 forward_v I I I I #
loop $-1 $-1 $368 $90 #
coedge $-1 $231 $231 $232 $369 reversed $142 $-1 #
coedge $-1 $232 $232 $231 $369 forward $144 $-1 #
coedge $-1 $233 $233 $145 $234 forward $228 $-1 #
edge $-1 $370 -3.3750601679248526e-016 $370 6.2831853071796004 $233 $371 forward 7 unknown #
loop $-1 $-1 $240 $146 #
plane-surface $-1 -2.7762095824008526 0.78436088391117664 48.949482890475075 0 0.87461971476443456 0.48480960649040278 1 0 0 forward_v I I I I #
loop $-1 $-1 $372 $93 #
coedge $-1 $238 $238 $239 $373 reversed $147 $-1 #
coedge $-1 $239 $239 $238 $373 forward $149 $-1 #
coedge $-1 $240 $240 $150 $241 forward $235 $-1 #
edge $-1 $374 -3.3750601679248526e-016 $374 6.2831853071796004 $240 $375 forward 7 unknown #
face $-1 $376 $377 $52 $-1 $378 forward single #
loop $-1 $-1 $379 $151 #
plane-surface $-1 -33.274282115616671 -100.7853168247032 61.596615523360498 1 0 0 0 0.77714596973225614 -0.62932038083071107 forward_v I I I I #
coedge $-1 $380 $381 $382 $383 reversed $152 $-1 #
coedge $-1 $247 $154 $384 $385 reversed $97 $-1 #
coedge $-1 $154 $246 $380 $386 reversed $97 $-1 #
coedge $-1 $382 $387 $154 $249 forward $377 $-1 #
edge $-1 $388 24.574996631054685 $389 29.366374066206657 $248 $390 forward 7 unknown #
loop $-1 $-1 $255 $155 #
plane-surface $-1 -23.041917346334319 -25.81766178129692 0.88900709536348899 0 -0.77714596973225614 0.62932038083071107 1 0 0 forward_v I I I I #
loop $-1 $-1 $391 $99 #
coedge $-1 $253 $253 $254 $392 reversed $156 $-1 #
coedge $-1 $254 $254 $253 $392 forward $158 $-1 #
coedge $-1 $255 $255 $159 $256 forward $250 $-1 #
edge $-1 $393 1.5005284599667004e-015 $393 6.2831853071796022 $255 $394 forward 7 unknown #
loop $-1 $-1 $262 $160 #
plane-surface $-1 -23.041917346334319 -25.81766178129692 0.88900709536348899 0 -0.77714596973225614 0.62932038083071107 1 0 0 forward_v I I I I #
loop $-1 $-1 $395 $102 #
coedge $-1 $260 $260 $261 $396 reversed $161 $-1 #
coedge $-1 $261 $261 $260 $396 forward $163 $-1 #
coedge $-1 $262 $262 $164 $263 forward $257 $-1 #
edge $-1 $397 1.5005284599667004e-015 $397 6.2831853071796022 $262 $398 forward 7 unknown #
loop $-1 $-1 $269 $165 #
plane-surface $-1 -23.041917346334319 -25.81766178129692 0.88900709536348899 0 -0.77714596973225614 0.62932038083071107 1 0 0 forward_v I I I I #
loop $-1 $-1 $399 $105 #
coedge $-1 $267 $267 $268 $400 reversed $166 $-1 #
coedge $-1 $268 $268 $267 $400 forward $168 $-1 #
coedge $-1 $269 $269 $169 $270 forward $264 $-1 #
edge $-1 $401 1.5005284599667004e-015 $401 6.2831853071796022 $269 $402 forward 7 unknown #
face $-1 $403 $404 $56 $-1 $405 reversed single #
loop $-1 $-1 $406 $170 #
plane-surface $-1 12.809552577051971 -100.7853168247032 61.596615523360498 1 0 0 0 0.77714596973225614 -0.62932038083071107 forward_v I I I I #
coedge $-1 $407 $408 $409 $410 reversed $171 $-1 #
coedge $-1 $276 $173 $411 $412 reversed $109 $-1 #
coedge $-1 $173 $275 $407 $413 reversed $109 $-1 #
coedge $-1 $409 $414 $173 $278 forward $415 $-1 #
edge $-1 $416 24.574996631054685 $417 29.366374066206657 $277 $418 forward 7 unknown #
loop $-1 $-1 $284 $174 #
plane-surface $-1 23.041917346334323 -25.81766178129692 0.88900709536348899 0 -0.77714596973225614 0.62932038083071107 1 0 0 forward_v I I I I #
loop $-1 $-1 $419 $111 #
coedge $-1 $282 $282 $283 $420 reversed $175 $-1 #
coedge $-1 $283 $283 $282 $420 forward $177 $-1 #
coedge $-1 $284 $284 $178 $285 forward $279 $-1 #
edge $-1 $421 1.5005284599667004e-015 $421 6.2831853071796022 $284 $422 forward 7 unknown #
loop $-1 $-1 $291 $179 #
plane-surface $-1 23.041917346334323 -25.81766178129692 0.88900709536348899 0 -0.77714596973225614 0.62932038083071107 1 0 0 forward_v I I I I #
loop $-1 $-1 $423 $114 #
coedge $-1 $289 $289 $290 $424 reversed $180 $-1 #
coedge $-1 $290 $290 $289 $424 forward $182 $-1 #
coedge $-1 $291 $291 $183 $292 forward $286 $-1 #
edge $-1 $425 1.5005284599667004e-015 $425 6.2831853071796022 $291 $426 forward 7 unknown #
loop $-1 $-1 $298 $184 #
plane-surface $-1 23.041917346334323 -25.81766178129692 0.88900709536348899 0 -0.77714596973225614 0.62932038083071107 1 0 0 forward_v I I I I #
loop $-1 $-1 $427 $117 #
coedge $-1 $296 $296 $297 $428 reversed $185 $-1 #
coedge $-1 $297 $297 $296 $428 forward $187 $-1 #
coedge $-1 $298 $298 $188 $299 forward $293 $-1 #
edge $-1 $429 1.5005284599667004e-015 $429 6.2831853071796022 $298 $430 forward 7 unknown #
face $-1 $431 $432 $45 $-1 $433 reversed single #
loop $-1 $-1 $434 $189 #
plane-surface $-1 -48.232673116245003 0 0 1 0 0 0 0 -1 forward_v I I I I #
coedge $-1 $435 $311 $436 $437 forward $190 $-1 #
coedge $-1 $438 $192 $435 $439 forward $121 $-1 #
coedge $-1 $192 $438 $440 $441 forward $121 $-1 #
coedge $-1 $314 $313 $192 $307 reversed $315 $-1 #
edge $-1 $442 -25.817661781296916 $443 25.817661781296916 $306 $444 forward 7 unknown #
coedge $-1 $194 $193 $445 $446 forward $76 $-1 #
coedge $-1 $447 $448 $193 $310 reversed $432 $-1 #
edge $-1 $317 -48.232673116245003 $449 48.232673116245003 $309 $450 forward 7 unknown #
coedge $-1 $303 $451 $194 $312 reversed $190 $-1 #
edge $-1 $452 -48.232673116245003 $316 48.232673116245003 $311 $453 forward 7 unknown #
coedge $-1 $306 $195 $451 $454 forward $315 $-1 #
coedge $-1 $195 $306 $447 $455 reversed $315 $-1 #
loop $-1 $-1 $313 $431 #
vertex $-1 $196 $456 #
vertex $-1 $196 $457 #
straight-curve $-1 48.232673116245003 0 6.8058656250034035 0 1 0 I I #
face $-1 $458 $459 $46 $-1 $460 reversed single #
loop $-1 $-1 $461 $197 #
plane-surface $-1 -50.758742413876121 0 -1.886520012417467 0 0 1 1 0 0 forward_v I I I I #
coedge $-1 $462 $200 $463 $464 reversed $125 $-1 #
coedge $-1 $200 $462 $328 $465 reversed $125 $-1 #
edge $-1 $330 -1.113479987582533 $466 1.886520012417467 $200 $467 forward 7 unknown #
coedge $-1 $202 $201 $461 $468 forward $79 $-1 #
coedge $-1 $469 $470 $201 $327 forward $471 $-1 #
edge $-1 $472 -1.886520012417467 $331 1.113479987582533 $326 $473 forward 7 unknown #
coedge $-1 $474 $203 $323 $465 forward $198 $-1 #
coedge $-1 $203 $474 $469 $475 forward $198 $-1 #
vertex $-1 $324 $476 #
vertex $-1 $475 $477 #
straight-curve $-1 -48.232673116245003 0 1.113479987582533 0 -1 0 I I #
face $-1 $478 $479 $47 $-1 $480 reversed single #
loop $-1 $-1 $481 $205 #
plane-surface $-1 50.758742413876114 0 -1.886520012417467 0 0 1 1 0 0 forward_v I I I I #
coedge $-1 $344 $343 $482 $483 forward $206 $-1 #
coedge $-1 $484 $208 $485 $486 reversed $129 $-1 #
coedge $-1 $208 $484 $343 $487 reversed $129 $-1 #
edge $-1 $345 -1.113479987582533 $488 1.886520012417467 $208 $489 forward 7 unknown #
coedge $-1 $210 $209 $490 $491 forward $82 $-1 #
coedge $-1 $492 $493 $209 $342 forward $494 $-1 #
edge $-1 $495 -1.886520012417467 $346 1.113479987582533 $341 $496 forward 7 unknown #
coedge $-1 $336 $211 $338 $487 forward $206 $-1 #
coedge $-1 $211 $336 $492 $497 forward $206 $-1 #
vertex $-1 $339 $498 #
vertex $-1 $497 $499 #
straight-curve $-1 48.232673116245003 0 1.113479987582533 0 1 0 I I #
face $-1 $-1 $360 $48 $-1 $500 forward single #
loop $-1 $-1 $501 $213 #
plane-surface $-1 0 25.817661781296916 0 0 -1 0 0 0 -1 forward_v I I I I #
coedge $-1 $502 $503 $504 $505 reversed $214 $-1 #
coedge $-1 $506 $216 $218 $358 forward $133 $-1 #
coedge $-1 $216 $506 $502 $507 forward $133 $-1 #
coedge $-1 $504 $219 $216 $355 forward $360 $-1 #
edge $-1 $362 -10.503761135754218 $508 7.727551553353365 $354 $509 forward 7 unknown #
coedge $-1 $510 $511 $217 $357 forward $349 $-1 #
edge $-1 $512 -44.070193794314534 $361 -41.0525390937011 $356 $513 forward 7 unknown #
edge $-1 $362 48.185075815290091 $512 51.635323562593832 $218 $514 forward 7 unknown #
coedge $-1 $219 $504 $510 $515 forward $360 $-1 #
loop $-1 $-1 $504 $348 #
vertex $-1 $357 $516 #
vertex $-1 $220 $517 #
straight-curve $-1 -11.891865926954644 42.577427245212007 6.8058656250034062 0 -1 0 I I #
coedge $-1 $364 $364 $-1 $518 reversed $223 $-1 #
edge $-1 $519 0 $519 6.2831853071796004 $224 $520 forward 7 unknown #
vertex $-1 $227 $521 #
ellipse-curve $-1 -8.2456033891331302 24.981305154964552 5.2970382746966846 0 0.87461971476443456 0.48480960649040278 0.5 0 0 1 I I #
coedge $-1 $368 $368 $-1 $522 reversed $230 $-1 #
edge $-1 $523 0 $523 6.2831853071796004 $231 $524 forward 7 unknown #
vertex $-1 $234 $525 #
ellipse-curve $-1 -2.7762095824008526 24.981305154964552 5.2970382746966846 0 0.87461971476443456 0.48480960649040278 0.5 0 0 1 I I #
coedge $-1 $372 $372 $-1 $526 reversed $237 $-1 #
edge $-1 $527 0 $527 6.2831853071796004 $238 $528 forward 7 unknown #
vertex $-1 $241 $529 #
ellipse-curve $-1 2.693184224331425 24.981305154964552 5.2970382746966846 0 0.87461971476443456 0.48480960649040278 0.5 0 0 1 I I #
face $-1 $-1 $530 $52 $-1 $531 reversed single #
loop $-1 $-1 $248 $242 #
plane-surface $-1 0 0 6.8058656250034035 0 0 1 1 0 0 forward_v I I I I #
coedge $-1 $532 $533 $534 $535 reversed $243 $-1 #
coedge $-1 $536 $245 $247 $386 forward $152 $-1 #
coedge $-1 $245 $536 $532 $537 forward $152 $-1 #
coedge $-1 $534 $248 $245 $383 forward $377 $-1 #
edge $-1 $389 1.2885939038848075 $538 21.753323442449513 $382 $539 forward 7 unknown #
coedge $-1 $540 $541 $246 $385 forward $530 $-1 #
edge $-1 $542 -29.909300666316756 $388 -23.992442136676846 $384 $543 forward 7 unknown #
edge $-1 $389 -7.6135742319790998 $542 -5.6870165216907905e-015 $247 $544 forward 7 unknown #
coedge $-1 $248 $534 $540 $545 forward $377 $-1 #
vertex $-1 $385 $546 #
vertex $-1 $249 $547 #
straight-curve $-1 -12.809552577051967 -50.392658412351601 6.8058656250034026 0 1 0 I I #
coedge $-1 $391 $391 $-1 $548 reversed $252 $-1 #
edge $-1 $549 0 $549 6.2831853071796004 $253 $550 forward 7 unknown #
vertex $-1 $256 $551 #
ellipse-curve $-1 -29.18133620790373 -23.42197306372093 3.8474363601834498 0 -0.77714596973225614 0.62932038083071107 1.5 0 0 1 I I #
coedge $-1 $395 $395 $-1 $552 reversed $259 $-1 #
edge $-1 $553 0 $553 6.2831853071796004 $260 $554 forward 7 unknown #
vertex $-1 $263 $555 #
ellipse-curve $-1 -23.041917346334316 -23.42197306372093 3.8474363601834498 0 -0.77714596973225614 0.62932038083071107 1.5 0 0 1 I I #
coedge $-1 $399 $399 $-1 $556 reversed $266 $-1 #
edge $-1 $557 0 $557 6.2831853071796004 $267 $558 forward 7 unknown #
vertex $-1 $270 $559 #
ellipse-curve $-1 -16.902498484764905 -23.42197306372093 3.8474363601834498 0 -0.77714596973225614 0.62932038083071107 1.5 0 0 1 I I #
face $-1 $-1 $415 $56 $-1 $560 forward single #
loop $-1 $-1 $561 $271 #
plane-surface $-1 0 -25.817661781296916 0 0 1 0 0 0 1 forward_v I I I I #
coedge $-1 $562 $563 $564 $565 reversed $272 $-1 #
coedge $-1 $566 $274 $276 $413 forward $171 $-1 #
coedge $-1 $274 $566 $562 $567 forward $171 $-1 #
coedge $-1 $564 $277 $274 $410 forward $415 $-1 #
edge $-1 $417 -21.75332344244951 $568 -1.2885939038848093 $409 $569 forward 7 unknown #
coedge $-1 $570 $571 $275 $412 forward $404 $-1 #
edge $-1 $572 -29.909300666316756 $416 -23.992442136676846 $411 $573 forward 7 unknown #
edge $-1 $417 -7.6135742319790998 $572 -5.6870165216907905e-015 $276 $574 forward 7 unknown #
coedge $-1 $277 $564 $570 $575 forward $415 $-1 #
loop $-1 $-1 $564 $403 #
vertex $-1 $412 $576 #
vertex $-1 $278 $577 #
straight-curve $-1 33.274282115616671 -50.392658412351601 6.8058656250034026 0 1 0 I I #
coedge $-1 $419 $419 $-1 $578 reversed $281 $-1 #
edge $-1 $579 0 $579 6.2831853071796004 $282 $580 forward 7 unknown #
vertex $-1 $285 $581 #
ellipse-curve $-1 16.902498484764912 -23.42197306372093 3.8474363601834498 0 -0.77714596973225614 0.62932038083071107 1.5 0 0 1 I I #
coedge $-1 $423 $423 $-1 $582 reversed $288 $-1 #
edge $-1 $583 0 $583 6.2831853071796004 $289 $584 forward 7 unknown #
vertex $-1 $292 $585 #
ellipse-curve $-1 23.041917346334323 -23.42197306372093 3.8474363601834498 0 -0.77714596973225614 0.62932038083071107 1.5 0 0 1 I I #
coedge $-1 $427 $427 $-1 $586 reversed $295 $-1 #
edge $-1 $587 0 $587 6.2831853071796004 $296 $588 forward 7 unknown #
vertex $-1 $299 $589 #
ellipse-curve $-1 29.181336207903733 -23.42197306372093 3.8474363601834498 0 -0.77714596973225614 0.62932038083071107 1.5 0 0 1 I I #
face $-1 $-1 $315 $45 $-1 $590 reversed single #
loop $-1 $-1 $447 $300 #
plane-surface $-1 0 25.817661781296916 0 0 -1 0 0 0 -1 forward_v I I I I #
coedge $-1 $591 $445 $448 $592 forward $301 $-1 #
coedge $-1 $451 $303 $304 $439 reversed $190 $-1 #
coedge $-1 $445 $591 $303 $437 reversed $301 $-1 #
edge $-1 $452 -6.8058656250034035 $593 6.8058656250034035 $436 $594 forward 7 unknown #
coedge $-1 $305 $304 $591 $595 forward $121 $-1 #
edge $-1 $443 -48.232673116245003 $593 48.232673116245003 $435 $596 forward 7 unknown #
coedge $-1 $448 $447 $305 $441 reversed $432 $-1 #
edge $-1 $597 -48.232673116245003 $442 48.232673116245003 $440 $598 forward 7 unknown #
vertex $-1 $307 $599 #
vertex $-1 $454 $600 #
straight-curve $-1 48.232673116245003 0 -6.8058656250034035 0 -1 0 I I #
coedge $-1 $434 $436 $308 $446 reversed $301 $-1 #
edge $-1 $449 -25.817661781296916 $452 25.817661781296916 $445 $601 forward 7 unknown #
coedge $-1 $440 $309 $314 $455 forward $432 $-1 #
coedge $-1 $309 $440 $434 $592 reversed $432 $-1 #
vertex $-1 $310 $602 #
straight-curve $-1 0 25.817661781296916 6.8058656250034035 -1 0 0 I I #
coedge $-1 $311 $435 $313 $454 reversed $190 $-1 #
vertex $-1 $446 $603 #
straight-curve $-1 0 -25.817661781296916 6.8058656250034035 1 0 0 I I #
edge $-1 $316 -6.8058656250034035 $443 6.8058656250034035 $313 $604 forward 7 unknown #
edge $-1 $317 -6.8058656250034035 $442 6.8058656250034035 $314 $605 forward 7 unknown #
point $-1 48.232673116245003 -25.817661781296916 6.8058656250034035 #
point $-1 48.232673116245003 25.817661781296916 6.8058656250034035 #
face $-1 $-1 $471 $46 $-1 $606 reversed single #
loop $-1 $-1 $607 $319 #
plane-surface $-1 -53.284811711507238 0 -0.38652001241746703 1 0 0 0 0 -1 forward_v I I I I #
coedge $-1 $608 $463 $325 $468 reversed $320 $-1 #
coedge $-1 $323 $322 $607 $609 reversed $125 $-1 #
coedge $-1 $461 $610 $322 $464 forward $320 $-1 #
edge $-1 $611 -2.5260692976311176 $466 2.5260692976311176 $322 $612 forward 7 unknown #
edge $-1 $330 -2.5260692976311176 $613 2.5260692976311176 $323 $614 forward 7 unknown #
vertex $-1 $324 $615 #
straight-curve $-1 -48.232673116245003 25.817661781296916 0 0 0 -1 I I #
edge $-1 $472 -25.817661781296916 $466 25.817661781296916 $461 $616 forward 7 unknown #
coedge $-1 $617 $326 $329 $475 reversed $471 $-1 #
coedge $-1 $326 $617 $608 $618 reversed $471 $-1 #
loop $-1 $-1 $326 $458 #
vertex $-1 $327 $619 #
straight-curve $-1 -48.232673116245003 -25.817661781296916 0 0 0 1 I I #
coedge $-1 $329 $328 $620 $621 forward $198 $-1 #
edge $-1 $622 -2.5260692976311176 $331 2.5260692976311176 $469 $623 forward 7 unknown #
point $-1 -48.232673116245003 25.817661781296916 1.113479987582533 #
point $-1 -48.232673116245003 -25.817661781296916 1.113479987582533 #
face $-1 $-1 $494 $47 $-1 $624 reversed single #
loop $-1 $-1 $625 $333 #
plane-surface $-1 53.284811711507231 0 -0.38652001241746703 -1 0 0 0 0 1 forward_v I I I I #
coedge $-1 $485 $626 $627 $628 forward $334 $-1 #
coedge $-1 $625 $629 $336 $483 reversed $479 $-1 #
edge $-1 $630 -25.817661781296916 $631 25.817661781296916 $482 $632 forward 7 unknown #
coedge $-1 $338 $337 $625 $633 reversed $129 $-1 #
coedge $-1 $490 $481 $337 $486 forward $334 $-1 #
edge $-1 $634 -2.5260692976311176 $488 2.5260692976311176 $337 $635 forward 7 unknown #
edge $-1 $345 -2.5260692976311176 $630 2.5260692976311176 $338 $636 forward 7 unknown #
vertex $-1 $339 $637 #
straight-curve $-1 48.232673116245003 -25.817661781296916 0 0 0 -1 I I #
coedge $-1 $626 $485 $340 $491 reversed $334 $-1 #
edge $-1 $495 -25.817661781296916 $488 25.817661781296916 $490 $638 forward 7 unknown #
coedge $-1 $639 $341 $344 $497 reversed $494 $-1 #
coedge $-1 $341 $639 $626 $640 reversed $494 $-1 #
loop $-1 $-1 $341 $478 #
vertex $-1 $342 $641 #
straight-curve $-1 48.232673116245003 25.817661781296916 0 0 0 1 I I #
edge $-1 $631 -2.5260692976311176 $346 2.5260692976311176 $492 $642 forward 7 unknown #
point $-1 48.232673116244996 -25.817661781296916 1.113479987582533 #
point $-1 48.232673116244996 25.817661781296916 1.113479987582533 #
plane-surface $-1 0 0 6.8058656250034035 0 0 1 1 0 0 forward_v I I I I #
coedge $-1 $511 $510 $503 $643 forward $349 $-1 #
coedge $-1 $503 $351 $353 $507 reversed $214 $-1 #
coedge $-1 $351 $502 $501 $643 reversed $214 $-1 #
coedge $-1 $359 $354 $351 $505 forward $360 $-1 #
edge $-1 $508 -18.432478716579823 $644 -16.759765463915091 $504 $645 forward 7 unknown #
coedge $-1 $353 $352 $511 $646 reversed $133 $-1 #
edge $-1 $647 -51.635323562593832 $508 -48.185075815290091 $502 $648 forward 7 unknown #
vertex $-1 $355 $649 #
straight-curve $-1 -1.3881047912004263 24.144948528632185 6.8058656250034062 1 0 0 I I #
coedge $-1 $501 $356 $359 $515 reversed $349 $-1 #
coedge $-1 $356 $501 $506 $646 forward $349 $-1 #
vertex $-1 $357 $650 #
straight-curve $-1 -11.891865926954644 25.817661781296916 47.858404718704506 0 0 1 I I #
straight-curve $-1 -11.891865926954644 0.78436088391117664 48.949482890475075 0 0.48480960649040278 -0.87461971476443456 I I #
edge $-1 $644 -6.3394467621529387 $361 11.891865926954644 $510 $651 forward 7 unknown #
point $-1 -11.891865926954644 25.817661781296916 6.8058656250034035 #
point $-1 -11.891865926954644 24.144948528632185 6.8058656250034062 #
edge $-1 $652 1 $652 0 $364 $-1 forward 7 unknown #
vertex $-1 $365 $653 #
ellipse-curve $-1 -8.2456033891331302 24.106685440200113 4.8122286682062798 0 0.87461971476443456 0.48480960649040278 0.5 0 0 1 I I #
point $-1 -7.7456033891331302 24.981305154964549 5.2970382746966829 #
edge $-1 $654 1 $654 0 $368 $-1 forward 7 unknown #
vertex $-1 $369 $655 #
ellipse-curve $-1 -2.7762095824008526 24.106685440200113 4.8122286682062798 0 0.87461971476443456 0.48480960649040278 0.5 0 0 1 I I #
point $-1 -2.2762095824008526 24.981305154964549 5.2970382746966829 #
edge $-1 $656 1 $656 0 $372 $-1 forward 7 unknown #
vertex $-1 $373 $657 #
ellipse-curve $-1 2.693184224331425 24.106685440200113 4.8122286682062798 0 0.87461971476443456 0.48480960649040278 0.5 0 0 1 I I #
point $-1 3.193184224331425 24.981305154964549 5.2970382746966829 #
loop $-1 $-1 $384 $376 #
plane-surface $-1 0 -25.817661781296916 0 0 1 0 0 0 1 forward_v I I I I #
coedge $-1 $533 $379 $381 $537 reversed $243 $-1 #
coedge $-1 $379 $532 $658 $659 reversed $243 $-1 #
coedge $-1 $387 $382 $379 $535 forward $377 $-1 #
edge $-1 $538 -29.366374066206657 $660 -24.574996631054685 $534 $661 forward 7 unknown #
coedge $-1 $381 $380 $541 $662 reversed $152 $-1 #
edge $-1 $663 5.6870165216907905e-015 $538 7.6135742319790998 $532 $664 forward 7 unknown #
vertex $-1 $383 $665 #
straight-curve $-1 -11.52095867316716 -21.026284346144948 6.8058656250034035 -1 0 0 I I #
coedge $-1 $658 $384 $387 $545 reversed $530 $-1 #
coedge $-1 $384 $658 $536 $662 forward $530 $-1 #
vertex $-1 $385 $666 #
straight-curve $-1 -12.809552577051967 -25.817661781296913 30.798307761680249 0 0 1 I I #
straight-curve $-1 -12.809552577051967 -25.81766178129692 0.88900709536348899 0 -0.62932038083071107 -0.77714596973225614 I I #
edge $-1 $660 -33.274282115616671 $388 -12.809552577051967 $540 $667 forward 7 unknown #
point $-1 -12.809552577051967 -25.817661781296916 6.8058656250034035 #
point $-1 -12.809552577051967 -21.026284346144944 6.8058656250034035 #
edge $-1 $668 1 $668 0 $391 $-1 forward 7 unknown #
vertex $-1 $392 $669 #
ellipse-curve $-1 -29.18133620790373 -19.151109244006545 0.38895912401538862 0 -0.77714596973225614 0.62932038083071107 1.5 0 0 1 I I #
point $-1 -27.68133620790373 -23.421973063720934 3.8474363601834556 #
edge $-1 $670 1 $670 0 $395 $-1 forward 7 unknown #
vertex $-1 $396 $671 #
ellipse-curve $-1 -23.041917346334316 -19.151109244006545 0.38895912401538862 0 -0.77714596973225614 0.62932038083071107 1.5 0 0 1 I I #
point $-1 -21.541917346334316 -23.421973063720934 3.8474363601834556 #
edge $-1 $672 1 $672 0 $399 $-1 forward 7 unknown #
vertex $-1 $400 $673 #
ellipse-curve $-1 -16.902498484764905 -19.151109244006545 0.38895912401538862 0 -0.77714596973225614 0.62932038083071107 1.5 0 0 1 I I #
point $-1 -15.402498484764905 -23.421973063720934 3.8474363601834556 #
plane-surface $-1 0 0 6.8058656250034035 0 0 1 1 0 0 forward_v I I I I #
coedge $-1 $571 $570 $563 $674 forward $404 $-1 #
coedge $-1 $563 $406 $408 $567 reversed $272 $-1 #
coedge $-1 $406 $562 $561 $674 reversed $272 $-1 #
coedge $-1 $414 $409 $406 $565 forward $415 $-1 #
edge $-1 $568 -29.366374066206657 $675 -24.574996631054685 $564 $676 forward 7 unknown #
coedge $-1 $408 $407 $571 $677 reversed $171 $-1 #
edge $-1 $678 5.6870165216907905e-015 $568 7.6135742319790998 $562 $679 forward 7 unknown #
vertex $-1 $410 $680 #
straight-curve $-1 11.520958673167161 -21.026284346144948 6.8058656250034035 -1 0 0 I I #
coedge $-1 $561 $411 $414 $575 reversed $404 $-1 #
coedge $-1 $411 $561 $566 $677 forward $404 $-1 #
vertex $-1 $412 $681 #
straight-curve $-1 33.274282115616671 -25.817661781296913 30.798307761680249 0 0 1 I I #
straight-curve $-1 33.274282115616671 -25.81766178129692 0.88900709536348899 0 -0.62932038083071107 -0.77714596973225614 I I #
edge $-1 $675 12.809552577051971 $416 33.274282115616671 $570 $682 forward 7 unknown #
point $-1 33.274282115616671 -25.817661781296916 6.8058656250034035 #
point $-1 33.274282115616671 -21.026284346144944 6.8058656250034035 #
edge $-1 $683 1 $683 0 $419 $-1 forward 7 unknown #
vertex $-1 $420 $684 #
ellipse-curve $-1 16.902498484764912 -19.151109244006545 0.38895912401538862 0 -0.77714596973225614 0.62932038083071107 1.5 0 0 1 I I #
point $-1 18.402498484764912 -23.421973063720934 3.8474363601834556 #
edge $-1 $685 1 $685 0 $423 $-1 forward 7 unknown #
vertex $-1 $424 $686 #
ellipse-curve $-1 23.041917346334323 -19.151109244006545 0.38895912401538862 0 -0.77714596973225614 0.62932038083071107 1.5 0 0 1 I I #
point $-1 24.541917346334323 -23.421973063720934 3.8474363601834556 #
edge $-1 $687 1 $687 0 $427 $-1 forward 7 unknown #
vertex $-1 $428 $688 #
ellipse-curve $-1 29.181336207903733 -19.151109244006545 0.38895912401538862 0 -0.77714596973225614 0.62932038083071107 1.5 0 0 1 I I #
point $-1 30.681336207903733 -23.421973063720934 3.8474363601834556 #
plane-surface $-1 48.232673116245003 0 0 -1 0 0 0 0 1 forward_v I I I I #
coedge $-1 $436 $434 $438 $595 reversed $301 $-1 #
edge $-1 $449 -6.8058656250034035 $597 6.8058656250034035 $448 $689 forward 7 unknown #
vertex $-1 $595 $690 #
straight-curve $-1 -48.232673116245003 -25.817661781296916 0 0 0 -1 I I #
edge $-1 $593 -25.817661781296916 $597 25.817661781296916 $591 $691 forward 7 unknown #
straight-curve $-1 0 -25.817661781296916 -6.8058656250034035 -1 0 0 I I #
vertex $-1 $441 $692 #
straight-curve $-1 0 25.817661781296916 -6.8058656250034035 1 0 0 I I #
point $-1 48.232673116245003 25.817661781296916 -6.8058656250034035 #
point $-1 48.232673116245003 -25.817661781296916 -6.8058656250034035 #
straight-curve $-1 -48.232673116245003 0 6.8058656250034035 0 -1 0 I I #
point $-1 -48.232673116245003 25.817661781296916 6.8058656250034035 #
point $-1 -48.232673116245003 -25.817661781296916 6.8058656250034035 #
straight-curve $-1 48.232673116245003 -25.817661781296916 0 0 0 -1 I I #
straight-curve $-1 48.232673116245003 25.817661781296916 0 0 0 -1 I I #
plane-surface $-1 0 -25.817661781296916 0 0 1 0 0 0 1 forward_v I I I I #
coedge $-1 $693 $620 $462 $609 forward $459 $-1 #
coedge $-1 $610 $461 $470 $618 forward $320 $-1 #
edge $-1 $613 -1.5 $611 1.5 $462 $694 forward 7 unknown #
coedge $-1 $463 $608 $693 $695 forward $320 $-1 #
vertex $-1 $464 $696 #
straight-curve $-1 -50.758742413876121 25.817661781296916 -1.886520012417467 1 0 0 I I #
vertex $-1 $465 $697 #
straight-curve $-1 -50.758742413876121 25.817661781296916 1.113479987582533 -1 0 0 I I #
point $-1 -48.232673116245003 25.817661781296916 -1.886520012417467 #
straight-curve $-1 -48.232673116245003 0 -1.886520012417467 0 1 0 I I #
coedge $-1 $470 $469 $698 $699 forward $471 $-1 #
edge $-1 $472 -2.5260692976311176 $700 2.5260692976311176 $470 $701 forward 7 unknown #
point $-1 -48.232673116245003 -25.817661781296916 -1.886520012417467 #
coedge $-1 $607 $698 $474 $621 reversed $459 $-1 #
edge $-1 $613 -25.817661781296916 $622 25.817661781296916 $620 $702 forward 7 unknown #
vertex $-1 $621 $703 #
straight-curve $-1 -50.758742413876121 -25.817661781296916 1.113479987582533 1 0 0 I I #
plane-surface $-1 0 25.817661781296916 0 0 -1 0 0 0 -1 forward_v I I I I #
coedge $-1 $627 $482 $484 $633 forward $479 $-1 #
coedge $-1 $481 $490 $493 $640 forward $334 $-1 #
coedge $-1 $629 $625 $481 $628 reversed $479 $-1 #
edge $-1 $704 -25.817661781296916 $634 25.817661781296916 $627 $705 forward 7 unknown #
coedge $-1 $482 $627 $639 $706 reversed $479 $-1 #
vertex $-1 $483 $707 #
vertex $-1 $483 $708 #
straight-curve $-1 53.284811711507231 0 1.113479987582533 0 1 0 I I #
edge $-1 $630 -1.5 $634 1.5 $625 $709 forward 7 unknown #
vertex $-1 $633 $710 #
straight-curve $-1 50.758742413876114 -25.817661781296916 -1.886520012417467 -1 0 0 I I #
straight-curve $-1 50.758742413876114 -25.817661781296916 1.113479987582533 1 0 0 I I #
point $-1 48.232673116244996 -25.817661781296916 -1.886520012417467 #
straight-curve $-1 48.232673116245003 0 -1.886520012417467 0 -1 0 I I #
coedge $-1 $493 $492 $629 $706 forward $494 $-1 #
edge $-1 $495 -2.5260692976311176 $704 2.5260692976311176 $493 $711 forward 7 unknown #
point $-1 48.232673116244996 25.817661781296916 -1.886520012417467 #
straight-curve $-1 50.758742413876114 25.817661781296916 1.113479987582533 -1 0 0 I I #
edge $-1 $644 41.0525390937011 $647 44.070193794314534 $501 $712 forward 7 unknown #
vertex $-1 $515 $713 #
straight-curve $-1 6.3394467621529387 42.577427245212007 6.8058656250034062 0 1 0 I I #
edge $-1 $647 -7.727551553353365 $512 10.503761135754218 $511 $714 forward 7 unknown #
vertex $-1 $646 $715 #
straight-curve $-1 6.3394467621529387 0.78436088391117664 48.949482890475075 0 -0.48480960649040278 0.87461971476443456 I I #
point $-1 6.3394467621529387 24.144948528632185 6.8058656250034062 #
point $-1 -11.891865926954644 25.817661781296916 3.788210924389972 #
straight-curve $-1 0 25.817661781296916 6.8058656250034035 -1 0 0 I I #
vertex $-1 $518 $716 #
point $-1 -7.7456033891331302 24.106685440200113 4.8122286682062798 #
vertex $-1 $522 $717 #
point $-1 -2.2762095824008526 24.106685440200113 4.8122286682062798 #
vertex $-1 $526 $718 #
point $-1 3.193184224331425 24.106685440200113 4.8122286682062798 #
coedge $-1 $541 $540 $533 $659 forward $530 $-1 #
edge $-1 $660 23.992442136676846 $663 29.909300666316756 $658 $719 forward 7 unknown #
vertex $-1 $545 $720 #
straight-curve $-1 -33.274282115616671 -50.392658412351601 6.8058656250034026 0 -1 0 I I #
edge $-1 $663 -21.753323442449513 $542 -1.2885939038848075 $541 $721 forward 7 unknown #
vertex $-1 $662 $722 #
straight-curve $-1 -33.274282115616671 -25.81766178129692 0.88900709536348899 0 0.62932038083071107 0.77714596973225614 I I #
point $-1 -33.274282115616671 -21.026284346144944 6.8058656250034035 #
point $-1 -12.809552577051967 -25.817661781296916 0.88900709536349343 #
straight-curve $-1 0 -25.817661781296916 6.8058656250034035 1 0 0 I I #
vertex $-1 $548 $723 #
point $-1 -27.68133620790373 -19.151109244006545 0.38895912401538862 #
vertex $-1 $552 $724 #
point $-1 -21.541917346334316 -19.151109244006545 0.38895912401538862 #
vertex $-1 $556 $725 #
point $-1 -15.402498484764905 -19.151109244006545 0.38895912401538862 #
edge $-1 $675 23.992442136676846 $678 29.909300666316756 $561 $726 forward 7 unknown #
vertex $-1 $575 $727 #
straight-curve $-1 12.809552577051971 -50.392658412351601 6.8058656250034026 0 -1 0 I I #
edge $-1 $678 1.2885939038848093 $572 21.75332344244951 $571 $728 forward 7 unknown #
vertex $-1 $677 $729 #
straight-curve $-1 12.809552577051971 -25.81766178129692 0.88900709536348899 0 0.62932038083071107 0.77714596973225614 I I #
point $-1 12.809552577051971 -21.026284346144944 6.8058656250034035 #
point $-1 33.274282115616671 -25.817661781296916 0.88900709536349343 #
straight-curve $-1 0 -25.817661781296916 6.8058656250034035 1 0 0 I I #
vertex $-1 $578 $730 #
point $-1 18.402498484764912 -19.151109244006545 0.38895912401538862 #
vertex $-1 $582 $731 #
point $-1 24.541917346334323 -19.151109244006545 0.38895912401538862 #
vertex $-1 $586 $732 #
point $-1 30.681336207903733 -19.151109244006545 0.38895912401538862 #
straight-curve $-1 -48.232673116245003 25.817661781296916 0 0 0 -1 I I #
point $-1 -48.232673116245003 -25.817661781296916 -6.8058656250034035 #
straight-curve $-1 -48.232673116245003 0 -6.8058656250034035 0 1 0 I I #
point $-1 -48.232673116245003 25.817661781296916 -6.8058656250034035 #
coedge $-1 $698 $607 $610 $695 reversed $459 $-1 #
straight-curve $-1 -53.284811711507238 25.817661781296916 -0.38652001241746703 0 0 -1 I I #
edge $-1 $700 -25.817661781296916 $611 25.817661781296916 $693 $733 forward 7 unknown #
point $-1 -53.284811711507238 25.817661781296916 -1.886520012417467 #
point $-1 -53.284811711507238 25.817661781296916 1.113479987582533 #
coedge $-1 $620 $693 $617 $699 reversed $459 $-1 #
edge $-1 $622 -1.5 $700 1.5 $698 $734 forward 7 unknown #
vertex $-1 $695 $735 #
straight-curve $-1 -50.758742413876121 -25.817661781296916 -1.886520012417467 -1 0 0 I I #
straight-curve $-1 -53.284811711507238 0 1.113479987582533 0 -1 0 I I #
point $-1 -53.284811711507238 -25.817661781296916 1.113479987582533 #
vertex $-1 $628 $736 #
straight-curve $-1 53.284811711507231 0 -1.886520012417467 0 -1 0 I I #
edge $-1 $631 -1.5 $704 1.5 $629 $737 forward 7 unknown #
point $-1 53.284811711507231 -25.817661781296916 1.113479987582533 #
point $-1 53.284811711507231 25.817661781296916 1.113479987582533 #
straight-curve $-1 53.284811711507231 -25.817661781296916 -0.38652001241746703 0 0 -1 I I #
point $-1 53.284811711507231 -25.817661781296916 -1.886520012417467 #
straight-curve $-1 50.758742413876114 25.817661781296916 -1.886520012417467 1 0 0 I I #
straight-curve $-1 6.3394467621529387 25.817661781296916 47.858404718704506 0 0 -1 I I #
point $-1 6.3394467621529387 25.817661781296916 6.8058656250034035 #
straight-curve $-1 -1.3881047912004263 25.817661781296916 3.788210924389972 -1 0 0 I I #
point $-1 6.3394467621529387 25.817661781296916 3.788210924389972 #
point $-1 -8.2456033891331302 23.669375582817896 4.5698238649610792 #
point $-1 -2.7762095824008526 23.669375582817896 4.5698238649610792 #
point $-1 2.693184224331425 23.669375582817896 4.5698238649610792 #
straight-curve $-1 -33.274282115616671 -25.817661781296913 30.798307761680249 0 0 -1 I I #
point $-1 -33.274282115616671 -25.817661781296916 6.8058656250034035 #
straight-curve $-1 -11.52095867316716 -25.817661781296916 0.88900709536349365 1 0 0 I I #
point $-1 -33.274282115616671 -25.817661781296916 0.88900709536349343 #
point $-1 -29.18133620790373 -17.985390289408162 -0.55502144723067803 #
point $-1 -23.041917346334316 -17.985390289408162 -0.55502144723067803 #
point $-1 -16.902498484764905 -17.985390289408162 -0.55502144723067803 #
straight-curve $-1 12.809552577051971 -25.817661781296913 30.798307761680249 0 0 -1 I I #
point $-1 12.809552577051971 -25.817661781296916 6.8058656250034035 #
straight-curve $-1 11.520958673167161 -25.817661781296916 0.88900709536349365 1 0 0 I I #
point $-1 12.809552577051971 -25.817661781296916 0.88900709536349343 #
point $-1 16.902498484764912 -17.985390289408162 -0.55502144723067803 #
point $-1 23.041917346334323 -17.985390289408162 -0.55502144723067803 #
point $-1 29.181336207903733 -17.985390289408162 -0.55502144723067803 #
straight-curve $-1 -53.284811711507238 0 -1.886520012417467 0 1 0 I I #
straight-curve $-1 -53.284811711507238 -25.817661781296916 -0.38652001241746703 0 0 -1 I I #
point $-1 -53.284811711507238 -25.817661781296916 -1.886520012417467 #
point $-1 53.284811711507231 25.817661781296916 -1.886520012417467 #
straight-curve $-1 53.284811711507231 25.817661781296916 -0.38652001241746703 0 0 -1 I I #
End-of-ACIS-data 