500 0 7 0           
7 Unknown 11 ACIS 5.0 NT 24 Thu Mar 25 20:05:14 1999 
-1 9.9999999999999995e-007 1e-010 
body $-1 $7 $-1 $8 #
body $-1 $9 $-1 $10 #
body $-1 $11 $-1 $12 #
body $-1 $13 $-1 $14 #
body $-1 $15 $-1 $16 #
body $-1 $17 $-1 $18 #
body $-1 $19 $-1 $20 #
lump $-1 $-1 $21 $0 #
transform $-1 1 0 0 0 1 0 0 0 1 67.459334086123235 34.221092655609532 14.57897710885895 1 rotate no_reflect no_shear #
lump $-1 $-1 $22 $1 #
transform $-1 1 0 0 0 1 0 0 0 1 67.459334086123235 34.221092655609532 14.57897710885895 1 rotate no_reflect no_shear #
lump $-1 $-1 $23 $2 #
transform $-1 1 0 0 0 1 0 0 0 1 67.459334086123235 34.221092655609532 14.57897710885895 1 rotate no_reflect no_shear #
lump $-1 $-1 $24 $3 #
transform $-1 1 0 0 0 1 0 0 0 1 67.459334086123235 34.221092655609532 14.57897710885895 1 rotate no_reflect no_shear #
lump $-1 $-1 $25 $4 #
transform $-1 1 0 0 0 1 0 0 0 1 67.459334086123235 34.221092655609532 14.57897710885895 1 rotate no_reflect no_shear #
lump $-1 $-1 $26 $5 #
transform $-1 1 0 0 0 1 0 0 0 1 67.459334086123235 34.221092655609532 14.57897710885895 1 rotate no_reflect no_shear #
lump $-1 $-1 $27 $6 #
transform $-1 1 0 0 0 1 0 0 0 1 67.459334086123235 34.221092655609532 14.57897710885895 1 rotate no_reflect no_shear #
shell $-1 $-1 $-1 $28 $-1 $7 #
shell $-1 $-1 $-1 $29 $-1 $9 #
shell $-1 $-1 $-1 $30 $-1 $11 #
shell $-1 $-1 $-1 $31 $-1 $13 #
shell $-1 $-1 $-1 $32 $-1 $15 #
shell $-1 $-1 $-1 $33 $-1 $17 #
shell $-1 $-1 $-1 $34 $-1 $19 #
face $-1 $35 $36 $21 $-1 $37 forward single #
face $-1 $38 $39 $22 $-1 $40 reversed single #
face $-1 $41 $42 $23 $-1 $43 forward single #
face $-1 $44 $45 $24 $-1 $46 reversed single #
face $-1 $47 $48 $25 $-1 $49 forward single #
face $-1 $50 $51 $26 $-1 $52 reversed single #
face $-1 $53 $54 $27 $-1 $55 forward single #
face $-1 $56 $57 $21 $-1 $58 reversed single #
loop $-1 $-1 $59 $28 #
plane-surface $-1 0 0 14.57897710885895 0 0 1 1 0 0 forward_v I I I I #
face $-1 $60 $61 $22 $-1 $62 reversed single #
loop $-1 $-1 $63 $29 #
plane-surface $-1 -59.834929938904594 -30.360624721934631 0 0 -1 0 0 0 -1 forward_v I I I I #
face $-1 $64 $65 $23 $-1 $66 reversed single #
loop $-1 $-1 $67 $30 #
plane-surface $-1 62.40644846906919 0 12.235709876247036 0 0 1 1 0 0 forward_v I I I I #
face $-1 $68 $69 $24 $-1 $70 reversed single #
loop $-1 $-1 $71 $31 #
plane-surface $-1 23.940502422633259 76.179959128119208 149.93256096933186 -1 0 0 0 0.68199836817093118 0.7313536940579346 forward_v I I I I #
face $-1 $72 $73 $25 $-1 $74 forward single #
loop $-1 $75 $76 $32 #
cone-surface $-1 11.197035628772312 26.289566838865781 6.823115811256125 0 -0.68199836817093118 -0.7313536940579346 3 0 0 1 I I 0 1 3 forward I I I I #
face $-1 $77 $78 $26 $-1 $79 reversed single #
loop $-1 $-1 $80 $33 #
plane-surface $-1 23.940502422633259 -126.23540418487698 103.25510227302796 -1 0 0 0 -0.68199836817093118 0.7313536940579346 forward_v I I I I #
face $-1 $81 $82 $27 $-1 $83 forward single #
loop $-1 $84 $85 $34 #
cone-surface $-1 11.197035628772312 -26.289566838865774 6.8231158112561179 0 0.68199836817093118 -0.7313536940579346 3 0 0 1 I I 0 1 3 forward I I I I #
face $-1 $86 $87 $21 $-1 $88 reversed single #
loop $-1 $-1 $89 $35 #
plane-surface $-1 0 0 -14.57897710885895 0 0 1 1 0 0 forward_v I I I I #
coedge $-1 $90 $91 $92 $93 forward $36 $-1 #
face $-1 $94 $95 $22 $-1 $96 forward single #
loop $-1 $-1 $97 $38 #
plane-surface $-1 -52.210525791685953 -32.290858688772083 0 -1 0 0 0 0 1 forward_v I I I I #
coedge $-1 $98 $99 $100 $101 forward $39 $-1 #
face $-1 $102 $103 $23 $-1 $104 reversed single #
loop $-1 $-1 $105 $41 #
plane-surface $-1 62.40644846906919 0 6.9824372933344208 0 0 1 1 0 0 forward_v I I I I #
coedge $-1 $106 $107 $108 $109 reversed $42 $-1 #
face $-1 $110 $111 $24 $-1 $112 reversed single #
loop $-1 $-1 $113 $44 #
plane-surface $-1 11.197035628772312 -15.834352401148251 51.259294604182699 0 0.68199836817093118 0.7313536940579346 1 0 0 forward_v I I I I #
coedge $-1 $114 $115 $116 $117 reversed $45 $-1 #
face $-1 $-1 $118 $25 $-1 $119 forward single #
loop $-1 $120 $121 $47 #
cone-surface $-1 11.197035628772312 22.695354057531958 2.9687945730564564 0 -0.68199836817093118 -0.7313536940579346 1.5 0 0 1 I I -0.70710678118654757 0.70710678118654757 1.5 forward I I I I #
loop $-1 $-1 $122 $32 #
coedge $-1 $76 $76 $123 $124 reversed $48 $-1 #
face $-1 $125 $126 $26 $-1 $127 reversed single #
loop $-1 $-1 $128 $50 #
plane-surface $-1 11.197035628772312 -34.221092655609525 4.5818359078787978 0 -0.68199836817093118 0.7313536940579346 1 0 0 forward_v I I I I #
coedge $-1 $129 $130 $131 $132 reversed $51 $-1 #
face $-1 $-1 $133 $27 $-1 $134 forward single #
loop $-1 $135 $136 $53 #
cone-surface $-1 11.197035628772312 -22.695354057531951 2.9687945730564493 0 0.68199836817093118 -0.7313536940579346 1.5 0 0 1 I I -0.70710678118654757 0.70710678118654757 1.5 forward I I I I #
loop $-1 $-1 $137 $34 #
coedge $-1 $85 $85 $138 $139 reversed $54 $-1 #
face $-1 $140 $141 $21 $-1 $142 reversed single #
loop $-1 $-1 $143 $56 #
plane-surface $-1 0 -34.221092655609532 0 0 1 0 0 0 1 forward_v I I I I #
coedge $-1 $144 $145 $146 $147 forward $57 $-1 #
coedge $-1 $148 $59 $149 $150 forward $36 $-1 #
coedge $-1 $59 $148 $151 $152 forward $36 $-1 #
coedge $-1 $153 $154 $59 $93 reversed $155 $-1 #
edge $-1 $156 -34.221092655609532 $157 34.221092655609532 $92 $158 forward 7 unknown #
face $-1 $159 $160 $22 $-1 $161 reversed single #
loop $-1 $-1 $162 $60 #
plane-surface $-1 0 0 14.57897710885895 0 0 1 1 0 0 forward_v I I I I #
coedge $-1 $163 $164 $165 $166 reversed $61 $-1 #
coedge $-1 $167 $63 $168 $169 reversed $39 $-1 #
coedge $-1 $63 $167 $170 $171 reversed $39 $-1 #
coedge $-1 $164 $163 $63 $101 reversed $61 $-1 #
edge $-1 $172 -14.57897710885895 $173 14.57897710885895 $100 $174 forward 7 unknown #
face $-1 $175 $176 $23 $-1 $177 reversed single #
loop $-1 $-1 $178 $64 #
plane-surface $-1 57.353562852015152 0 9.6090735847907283 1 0 0 0 0 -1 forward_v I I I I #
coedge $-1 $179 $180 $181 $182 reversed $65 $-1 #
coedge $-1 $183 $67 $184 $185 reversed $42 $-1 #
coedge $-1 $67 $183 $186 $187 reversed $42 $-1 #
coedge $-1 $188 $189 $67 $109 forward $190 $-1 #
edge $-1 $191 -34.221092655609532 $192 34.221092655609532 $108 $193 forward 7 unknown #
face $-1 $194 $195 $24 $-1 $196 reversed single #
loop $-1 $-1 $197 $68 #
plane-surface $-1 -1.5464311650886344 76.179959128119208 149.93256096933186 1 0 0 0 -0.68199836817093118 -0.7313536940579346 forward_v I I I I #
coedge $-1 $198 $199 $200 $201 reversed $69 $-1 #
coedge $-1 $115 $71 $202 $203 reversed $45 $-1 #
coedge $-1 $71 $114 $198 $204 reversed $45 $-1 #
coedge $-1 $200 $205 $71 $117 forward $195 $-1 #
edge $-1 $206 60.387303375806979 $207 70.384444576787118 $116 $208 forward 7 unknown #
loop $-1 $-1 $123 $72 #
plane-surface $-1 11.197035628772312 -15.834352401148251 51.259294604182699 0 0.68199836817093118 0.7313536940579346 1 0 0 forward_v I I I I #
loop $-1 $-1 $209 $47 #
coedge $-1 $121 $121 $122 $210 reversed $73 $-1 #
coedge $-1 $122 $122 $121 $210 forward $75 $-1 #
coedge $-1 $123 $123 $76 $124 forward $118 $-1 #
edge $-1 $211 1.168968942669424e-016 $211 6.2831853071796004 $123 $212 forward 7 unknown #
face $-1 $213 $214 $26 $-1 $215 reversed single #
loop $-1 $-1 $216 $77 #
plane-surface $-1 -1.5464311650886344 -126.23540418487698 103.25510227302796 1 0 0 0 0.68199836817093118 -0.7313536940579346 forward_v I I I I #
coedge $-1 $217 $218 $219 $220 reversed $78 $-1 #
coedge $-1 $130 $80 $221 $222 reversed $51 $-1 #
coedge $-1 $80 $129 $217 $223 reversed $51 $-1 #
coedge $-1 $219 $224 $80 $132 forward $225 $-1 #
edge $-1 $226 28.89660943682896 $227 39.617230612161634 $131 $228 forward 7 unknown #
loop $-1 $-1 $138 $81 #
plane-surface $-1 11.197035628772312 -34.221092655609525 4.5818359078787978 0 -0.68199836817093118 0.7313536940579346 1 0 0 forward_v I I I I #
loop $-1 $-1 $229 $53 #
coedge $-1 $136 $136 $137 $230 reversed $82 $-1 #
coedge $-1 $137 $137 $136 $230 forward $84 $-1 #
coedge $-1 $138 $138 $85 $139 forward $133 $-1 #
edge $-1 $231 -6.3761794378729929e-016 $231 6.2831853071795996 $138 $232 forward 7 unknown #
face $-1 $233 $234 $21 $-1 $235 reversed single #
loop $-1 $-1 $236 $86 #
plane-surface $-1 -67.459334086123235 0 0 1 0 0 0 0 -1 forward_v I I I I #
coedge $-1 $237 $151 $238 $239 forward $87 $-1 #
coedge $-1 $240 $89 $237 $241 forward $57 $-1 #
coedge $-1 $89 $240 $242 $243 forward $57 $-1 #
coedge $-1 $154 $153 $89 $147 reversed $155 $-1 #
edge $-1 $244 -34.221092655609532 $245 34.221092655609532 $146 $246 forward 7 unknown #
coedge $-1 $91 $90 $247 $248 forward $36 $-1 #
coedge $-1 $249 $250 $90 $150 reversed $234 $-1 #
edge $-1 $157 -67.459334086123235 $251 67.459334086123235 $149 $252 forward 7 unknown #
coedge $-1 $143 $253 $91 $152 reversed $87 $-1 #
edge $-1 $254 -67.459334086123235 $156 67.459334086123235 $151 $255 forward 7 unknown #
coedge $-1 $146 $92 $253 $256 forward $155 $-1 #
coedge $-1 $92 $146 $249 $257 reversed $155 $-1 #
loop $-1 $-1 $153 $233 #
vertex $-1 $93 $258 #
vertex $-1 $93 $259 #
straight-curve $-1 67.459334086123235 0 14.57897710885895 0 1 0 I I #
face $-1 $260 $261 $22 $-1 $262 reversed single #
loop $-1 $-1 $263 $94 #
plane-surface $-1 -67.459334086123235 0 0 1 0 0 0 0 -1 forward_v I I I I #
coedge $-1 $170 $264 $164 $265 forward $95 $-1 #
coedge $-1 $100 $97 $266 $267 reversed $61 $-1 #
coedge $-1 $97 $100 $162 $265 reversed $61 $-1 #
coedge $-1 $268 $269 $97 $166 forward $270 $-1 #
edge $-1 $271 -14.57897710885895 $272 14.57897710885895 $165 $273 forward 7 unknown #
coedge $-1 $99 $98 $263 $274 reversed $39 $-1 #
coedge $-1 $266 $275 $98 $169 forward $261 $-1 #
edge $-1 $276 -37.541869116670938 $173 -22.293060822233656 $168 $277 forward 7 unknown #
coedge $-1 $278 $162 $99 $171 forward $95 $-1 #
edge $-1 $172 22.293060822233656 $279 37.541869116670938 $170 $280 forward 7 unknown #
vertex $-1 $171 $281 #
vertex $-1 $169 $282 #
straight-curve $-1 -52.210525791685953 -30.360624721934631 0 0 0 -1 I I #
face $-1 $283 $284 $23 $-1 $285 reversed single #
loop $-1 $-1 $286 $102 #
plane-surface $-1 0 34.221092655609532 0 0 -1 0 0 0 -1 forward_v I I I I #
coedge $-1 $287 $288 $289 $290 reversed $103 $-1 #
coedge $-1 $291 $105 $292 $293 reversed $65 $-1 #
coedge $-1 $105 $291 $286 $294 reversed $65 $-1 #
coedge $-1 $189 $188 $105 $182 forward $190 $-1 #
edge $-1 $295 -34.221092655609532 $296 34.221092655609532 $181 $297 forward 7 unknown #
coedge $-1 $107 $106 $288 $298 forward $42 $-1 #
coedge $-1 $299 $289 $106 $185 forward $176 $-1 #
edge $-1 $300 26.150338617480557 $191 36.256109851588626 $184 $301 forward 7 unknown #
coedge $-1 $302 $303 $107 $187 forward $284 $-1 #
edge $-1 $192 -36.256109851588626 $304 -26.150338617480557 $186 $305 forward 7 unknown #
coedge $-1 $181 $108 $303 $306 forward $190 $-1 #
coedge $-1 $108 $181 $299 $307 reversed $190 $-1 #
loop $-1 $-1 $181 $283 #
vertex $-1 $307 $308 #
vertex $-1 $306 $309 #
straight-curve $-1 67.459334086123235 0 12.235709876247036 0 -1 0 I I #
face $-1 $-1 $310 $24 $-1 $311 forward single #
loop $-1 $-1 $116 $110 #
plane-surface $-1 0 34.221092655609532 0 0 -1 0 0 0 -1 forward_v I I I I #
coedge $-1 $312 $313 $314 $315 reversed $111 $-1 #
coedge $-1 $316 $113 $115 $204 forward $69 $-1 #
coedge $-1 $113 $316 $312 $317 forward $69 $-1 #
coedge $-1 $314 $116 $113 $201 forward $195 $-1 #
edge $-1 $207 -18.341984608247103 $318 7.1449489794747905 $200 $319 forward 7 unknown #
coedge $-1 $320 $321 $114 $203 forward $310 $-1 #
edge $-1 $322 -14.589508083782725 $206 -3.8688869084500723 $202 $323 forward 7 unknown #
edge $-1 $207 -68.442185311219077 $322 -53.783585426600993 $115 $324 forward 7 unknown #
coedge $-1 $116 $314 $320 $325 reversed $195 $-1 #
vertex $-1 $325 $326 #
vertex $-1 $117 $327 #
straight-curve $-1 23.940502422633259 34.221092655609532 74.96628048466593 0 0 -1 I I #
coedge $-1 $209 $209 $-1 $328 reversed $120 $-1 #
edge $-1 $329 0 $329 6.2831853071796004 $121 $330 forward 7 unknown #
vertex $-1 $124 $331 #
ellipse-curve $-1 11.197035628772312 28.860782067943205 9.5804065083688847 0 0.68199836817093118 0.7313536940579346 3 0 0 1 I I #
face $-1 $-1 $225 $26 $-1 $332 forward single #
loop $-1 $-1 $333 $125 #
plane-surface $-1 0 -34.221092655609532 0 0 1 0 0 0 1 forward_v I I I I #
coedge $-1 $334 $335 $336 $337 reversed $126 $-1 #
coedge $-1 $338 $128 $130 $223 forward $78 $-1 #
coedge $-1 $128 $338 $334 $339 forward $78 $-1 #
coedge $-1 $336 $131 $128 $220 forward $225 $-1 #
edge $-1 $227 -18.341984608247103 $340 7.1449489794747905 $219 $341 forward 7 unknown #
coedge $-1 $342 $343 $129 $222 forward $214 $-1 #
edge $-1 $344 -47.045715228635189 $226 -37.048574027655029 $221 $345 forward 7 unknown #
edge $-1 $227 -14.658599884618113 $344 9.4367341760026555e-015 $130 $346 forward 7 unknown #
coedge $-1 $131 $336 $342 $347 forward $225 $-1 #
loop $-1 $-1 $336 $213 #
vertex $-1 $222 $348 #
vertex $-1 $132 $349 #
straight-curve $-1 23.940502422633259 -63.117702092438492 14.57897710885895 0 1 0 I I #
coedge $-1 $229 $229 $-1 $350 reversed $135 $-1 #
edge $-1 $351 0 $351 6.2831853071796004 $136 $352 forward 7 unknown #
vertex $-1 $139 $353 #
ellipse-curve $-1 11.197035628772312 -28.860782067943191 9.5804065083688723 0 -0.68199836817093118 0.7313536940579346 3 0 0 1 I I #
face $-1 $-1 $155 $21 $-1 $354 reversed single #
loop $-1 $-1 $249 $140 #
plane-surface $-1 0 34.221092655609532 0 0 -1 0 0 0 -1 forward_v I I I I #
coedge $-1 $355 $247 $250 $356 forward $141 $-1 #
coedge $-1 $253 $143 $144 $241 reversed $87 $-1 #
coedge $-1 $247 $355 $143 $239 reversed $141 $-1 #
edge $-1 $254 -14.57897710885895 $357 14.57897710885895 $238 $358 forward 7 unknown #
coedge $-1 $145 $144 $355 $359 forward $57 $-1 #
edge $-1 $245 -67.459334086123235 $357 67.459334086123235 $237 $360 forward 7 unknown #
coedge $-1 $250 $249 $145 $243 reversed $234 $-1 #
edge $-1 $361 -67.459334086123235 $244 67.459334086123235 $242 $362 forward 7 unknown #
vertex $-1 $147 $363 #
vertex $-1 $256 $364 #
straight-curve $-1 67.459334086123235 0 -14.57897710885895 0 -1 0 I I #
coedge $-1 $236 $238 $148 $248 reversed $141 $-1 #
edge $-1 $251 -34.221092655609532 $254 34.221092655609532 $247 $365 forward 7 unknown #
coedge $-1 $242 $149 $154 $257 forward $234 $-1 #
coedge $-1 $149 $242 $236 $356 reversed $234 $-1 #
vertex $-1 $150 $366 #
straight-curve $-1 0 34.221092655609532 14.57897710885895 -1 0 0 I I #
coedge $-1 $151 $237 $153 $256 reversed $87 $-1 #
vertex $-1 $248 $367 #
straight-curve $-1 0 -34.221092655609532 14.57897710885895 1 0 0 I I #
edge $-1 $156 -14.57897710885895 $245 14.57897710885895 $153 $368 forward 7 unknown #
edge $-1 $157 -14.57897710885895 $244 14.57897710885895 $154 $369 forward 7 unknown #
point $-1 67.459334086123235 -34.221092655609532 14.57897710885895 #
point $-1 67.459334086123235 34.221092655609532 14.57897710885895 #
face $-1 $-1 $270 $22 $-1 $370 reversed single #
loop $-1 $-1 $266 $159 #
plane-surface $-1 0 0 -14.57897710885895 0 0 1 1 0 0 forward_v I I I I #
coedge $-1 $371 $372 $167 $274 forward $160 $-1 #
coedge $-1 $162 $278 $268 $373 forward $95 $-1 #
edge $-1 $272 -18.07566331122349 $172 -14.215195377548589 $162 $374 forward 7 unknown #
coedge $-1 $375 $168 $163 $267 forward $261 $-1 #
edge $-1 $173 14.215195377548589 $271 18.07566331122349 $266 $376 forward 7 unknown #
coedge $-1 $377 $165 $264 $373 reversed $270 $-1 #
coedge $-1 $165 $377 $375 $378 reversed $270 $-1 #
loop $-1 $-1 $165 $260 #
vertex $-1 $378 $379 #
vertex $-1 $166 $380 #
straight-curve $-1 -52.210525791685953 -34.221092655609532 0 0 0 1 I I #
edge $-1 $279 -14.57897710885895 $276 14.57897710885895 $263 $381 forward 7 unknown #
coedge $-1 $168 $375 $371 $382 forward $261 $-1 #
vertex $-1 $169 $383 #
straight-curve $-1 -29.917464969452297 -30.360624721934631 -14.57897710885895 1 0 0 I I #
coedge $-1 $264 $170 $372 $384 forward $95 $-1 #
vertex $-1 $384 $385 #
straight-curve $-1 -29.917464969452297 -30.360624721934631 14.57897710885895 -1 0 0 I I #
point $-1 -52.210525791685953 -30.360624721934631 14.57897710885895 #
point $-1 -52.210525791685953 -30.360624721934631 -14.57897710885895 #
face $-1 $-1 $190 $23 $-1 $386 reversed single #
loop $-1 $-1 $186 $175 #
plane-surface $-1 0 -34.221092655609532 0 0 1 0 0 0 1 forward_v I I I I #
coedge $-1 $289 $299 $180 $294 forward $176 $-1 #
coedge $-1 $387 $178 $291 $388 reversed $103 $-1 #
coedge $-1 $178 $387 $183 $298 reversed $103 $-1 #
coedge $-1 $184 $286 $178 $290 forward $176 $-1 #
edge $-1 $389 2.1779005009390566 $300 7.4311730838516716 $289 $390 forward 7 unknown #
coedge $-1 $180 $179 $287 $388 forward $65 $-1 #
coedge $-1 $303 $302 $179 $293 forward $284 $-1 #
edge $-1 $391 26.150338617480557 $295 36.256109851588626 $292 $392 forward 7 unknown #
edge $-1 $296 -36.256109851588626 $389 -26.150338617480557 $286 $393 forward 7 unknown #
vertex $-1 $293 $394 #
vertex $-1 $182 $395 #
straight-curve $-1 67.459334086123235 0 6.9824372933344208 0 1 0 I I #
edge $-1 $300 -34.221092655609532 $304 34.221092655609532 $288 $396 forward 7 unknown #
coedge $-1 $286 $184 $189 $307 forward $176 $-1 #
vertex $-1 $185 $397 #
straight-curve $-1 31.203224234534595 34.221092655609532 12.235709876247036 1 0 0 I I #
coedge $-1 $292 $186 $387 $398 forward $284 $-1 #
coedge $-1 $186 $292 $188 $306 reversed $284 $-1 #
vertex $-1 $187 $399 #
straight-curve $-1 31.203224234534595 -34.221092655609532 12.235709876247036 -1 0 0 I I #
edge $-1 $192 -12.235709876247036 $295 -6.9824372933344208 $188 $400 forward 7 unknown #
edge $-1 $191 -12.235709876247036 $296 -6.9824372933344208 $189 $401 forward 7 unknown #
point $-1 67.459334086123221 34.221092655609532 12.235709876247036 #
point $-1 67.459334086123221 -34.221092655609532 12.235709876247036 #
loop $-1 $-1 $202 $194 #
plane-surface $-1 0 0 14.57897710885895 0 0 1 1 0 0 forward_v I I I I #
coedge $-1 $313 $197 $199 $317 reversed $111 $-1 #
coedge $-1 $197 $312 $402 $403 reversed $111 $-1 #
coedge $-1 $205 $200 $197 $315 forward $195 $-1 #
edge $-1 $318 -70.384444576787118 $404 -60.387303375806979 $314 $405 forward 7 unknown #
coedge $-1 $199 $198 $321 $406 reversed $69 $-1 #
edge $-1 $407 53.783585426600993 $318 68.442185311219077 $312 $408 forward 7 unknown #
vertex $-1 $201 $409 #
straight-curve $-1 5.598517814386156 34.221092655609532 4.5818359078788085 -1 0 0 I I #
coedge $-1 $402 $202 $205 $325 forward $310 $-1 #
coedge $-1 $202 $402 $316 $406 forward $310 $-1 #
vertex $-1 $203 $410 #
straight-curve $-1 23.940502422633259 38.089979564059604 14.57897710885895 0 1 0 I I #
straight-curve $-1 23.940502422633259 -15.834352401148251 51.259294604182699 0 -0.7313536940579346 0.68199836817093118 I I #
edge $-1 $206 -23.940502422633259 $404 1.5464311650886344 $205 $411 forward 7 unknown #
point $-1 23.940502422633259 34.221092655609532 14.57897710885895 #
point $-1 23.940502422633259 34.221092655609532 4.581835907878812 #
edge $-1 $412 1 $412 0 $209 $-1 forward 7 unknown #
vertex $-1 $210 $413 #
ellipse-curve $-1 11.197035628772312 23.718351609788353 4.0658251141433581 0 0.68199836817093118 0.7313536940579346 3 0 0 1 I I #
point $-1 14.197035628772312 28.860782067943212 9.5804065083688918 #
plane-surface $-1 0 0 14.57897710885895 0 0 1 1 0 0 forward_v I I I I #
coedge $-1 $343 $342 $335 $414 forward $214 $-1 #
coedge $-1 $335 $216 $218 $339 reversed $126 $-1 #
coedge $-1 $216 $334 $333 $414 reversed $126 $-1 #
coedge $-1 $224 $219 $216 $337 forward $225 $-1 #
edge $-1 $340 -39.617230612161634 $415 -28.89660943682896 $336 $416 forward 7 unknown #
coedge $-1 $218 $217 $343 $417 reversed $78 $-1 #
edge $-1 $418 -9.4367341760026555e-015 $340 14.658599884618113 $334 $419 forward 7 unknown #
vertex $-1 $220 $420 #
straight-curve $-1 5.598517814386156 -23.500471480276854 14.57897710885895 -1 0 0 I I #
coedge $-1 $333 $221 $224 $347 reversed $214 $-1 #
coedge $-1 $221 $333 $338 $417 forward $214 $-1 #
vertex $-1 $222 $421 #
straight-curve $-1 23.940502422633259 -34.221092655609532 51.627551136513979 0 0 1 I I #
straight-curve $-1 23.940502422633259 -34.221092655609525 4.5818359078787978 0 -0.7313536940579346 -0.68199836817093118 I I #
edge $-1 $415 -1.5464311650886344 $226 23.940502422633259 $342 $422 forward 7 unknown #
point $-1 23.940502422633259 -34.221092655609532 14.57897710885895 #
point $-1 23.940502422633259 -23.500471480276854 14.57897710885895 #
edge $-1 $423 1 $423 0 $229 $-1 forward 7 unknown #
vertex $-1 $230 $424 #
ellipse-curve $-1 11.197035628772312 -23.718351609788346 4.065825114143351 0 -0.68199836817093118 0.7313536940579346 3 0 0 1 I I #
point $-1 14.197035628772312 -28.860782067943205 9.5804065083688847 #
plane-surface $-1 67.459334086123235 0 0 -1 0 0 0 0 1 forward_v I I I I #
coedge $-1 $238 $236 $240 $359 reversed $141 $-1 #
edge $-1 $251 -14.57897710885895 $361 14.57897710885895 $250 $425 forward 7 unknown #
vertex $-1 $359 $426 #
straight-curve $-1 -67.459334086123235 -34.221092655609532 0 0 0 -1 I I #
edge $-1 $357 -34.221092655609532 $361 34.221092655609532 $355 $427 forward 7 unknown #
straight-curve $-1 0 -34.221092655609532 -14.57897710885895 -1 0 0 I I #
vertex $-1 $243 $428 #
straight-curve $-1 0 34.221092655609532 -14.57897710885895 1 0 0 I I #
point $-1 67.459334086123235 34.221092655609532 -14.57897710885895 #
point $-1 67.459334086123235 -34.221092655609532 -14.57897710885895 #
straight-curve $-1 -67.459334086123235 0 14.57897710885895 0 -1 0 I I #
point $-1 -67.459334086123235 34.221092655609532 14.57897710885895 #
point $-1 -67.459334086123235 -34.221092655609532 14.57897710885895 #
straight-curve $-1 67.459334086123235 -34.221092655609532 0 0 0 -1 I I #
straight-curve $-1 67.459334086123235 34.221092655609532 0 0 0 -1 I I #
plane-surface $-1 0 -34.221092655609532 0 0 1 0 0 0 1 forward_v I I I I #
coedge $-1 $429 $263 $275 $382 reversed $160 $-1 #
coedge $-1 $263 $429 $278 $384 reversed $160 $-1 #
edge $-1 $430 -67.459334086123235 $272 -52.210525791685953 $268 $431 forward 7 unknown #
straight-curve $-1 -52.210525791685953 -16.145429344386041 14.57897710885895 0 1 0 I I #
coedge $-1 $275 $266 $269 $378 forward $261 $-1 #
straight-curve $-1 -52.210525791685953 -16.145429344386041 -14.57897710885895 0 -1 0 I I #
coedge $-1 $269 $268 $429 $432 forward $270 $-1 #
edge $-1 $271 52.210525791685953 $433 67.459334086123235 $269 $434 forward 7 unknown #
point $-1 -52.210525791685953 -34.221092655609532 -14.57897710885895 #
point $-1 -52.210525791685953 -34.221092655609532 14.57897710885895 #
straight-curve $-1 -67.459334086123235 -30.360624721934631 0 0 0 -1 I I #
edge $-1 $433 -34.221092655609532 $276 -30.360624721934631 $371 $435 forward 7 unknown #
point $-1 -67.459334086123235 -30.360624721934631 -14.57897710885895 #
edge $-1 $279 30.360624721934631 $430 34.221092655609532 $372 $436 forward 7 unknown #
point $-1 -67.459334086123235 -30.360624721934631 14.57897710885895 #
plane-surface $-1 67.459334086123235 0 0 -1 0 0 0 0 1 forward_v I I I I #
coedge $-1 $288 $287 $302 $398 reversed $103 $-1 #
edge $-1 $391 -34.221092655609532 $389 34.221092655609532 $287 $437 forward 7 unknown #
vertex $-1 $294 $438 #
straight-curve $-1 57.353562852015152 34.221092655609532 4.8045367923953641 0 0 1 I I #
vertex $-1 $293 $439 #
straight-curve $-1 31.203224234534595 -34.221092655609532 6.9824372933344208 1 0 0 I I #
straight-curve $-1 31.203224234534595 34.221092655609532 6.9824372933344208 -1 0 0 I I #
point $-1 67.459334086123221 -34.221092655609532 6.9824372933344208 #
point $-1 67.459334086123221 34.221092655609532 6.9824372933344208 #
straight-curve $-1 57.353562852015152 0 12.235709876247036 0 -1 0 I I #
point $-1 57.353562852015152 34.221092655609532 12.235709876247036 #
edge $-1 $304 -7.4311730838516716 $391 -2.1779005009390566 $302 $440 forward 7 unknown #
point $-1 57.353562852015152 -34.221092655609532 12.235709876247036 #
straight-curve $-1 67.459334086123235 -34.221092655609532 0 0 0 -1 I I #
straight-curve $-1 67.459334086123235 34.221092655609532 0 0 0 -1 I I #
coedge $-1 $321 $320 $313 $403 forward $310 $-1 #
edge $-1 $404 3.8688869084500723 $407 14.589508083782725 $402 $441 forward 7 unknown #
vertex $-1 $403 $442 #
straight-curve $-1 -1.5464311650886344 34.221092655609532 74.96628048466593 0 0 1 I I #
edge $-1 $407 -7.1449489794747905 $322 18.341984608247103 $321 $443 forward 7 unknown #
vertex $-1 $406 $444 #
straight-curve $-1 -1.5464311650886344 -15.834352401148251 51.259294604182699 0 0.7313536940579346 -0.68199836817093118 I I #
point $-1 -1.5464311650886344 34.221092655609532 4.581835907878812 #
point $-1 23.940502422633259 23.500471480276879 14.57897710885895 #
straight-curve $-1 0 34.221092655609532 14.57897710885895 -1 0 0 I I #
vertex $-1 $328 $445 #
point $-1 14.197035628772312 23.718351609788353 4.0658251141433581 #
edge $-1 $415 37.048574027655029 $418 47.045715228635189 $333 $446 forward 7 unknown #
vertex $-1 $347 $447 #
straight-curve $-1 -1.5464311650886344 -63.117702092438492 14.57897710885895 0 -1 0 I I #
edge $-1 $418 -7.1449489794747905 $344 18.341984608247103 $343 $448 forward 7 unknown #
vertex $-1 $417 $449 #
straight-curve $-1 -1.5464311650886344 -34.221092655609525 4.5818359078787978 0 0.7313536940579346 0.68199836817093118 I I #
point $-1 -1.5464311650886344 -23.500471480276854 14.57897710885895 #
point $-1 23.940502422633259 -34.221092655609532 4.5818359078787916 #
straight-curve $-1 0 -34.221092655609532 14.57897710885895 1 0 0 I I #
vertex $-1 $350 $450 #
point $-1 14.197035628772312 -23.718351609788346 4.065825114143351 #
straight-curve $-1 -67.459334086123235 34.221092655609532 0 0 0 -1 I I #
point $-1 -67.459334086123235 -34.221092655609532 -14.57897710885895 #
straight-curve $-1 -67.459334086123235 0 -14.57897710885895 0 1 0 I I #
point $-1 -67.459334086123235 34.221092655609532 -14.57897710885895 #
coedge $-1 $372 $371 $377 $432 reversed $160 $-1 #
vertex $-1 $384 $451 #
straight-curve $-1 0 -34.221092655609532 14.57897710885895 1 0 0 I I #
edge $-1 $430 -14.57897710885895 $433 14.57897710885895 $429 $452 forward 7 unknown #
vertex $-1 $382 $453 #
straight-curve $-1 0 -34.221092655609532 -14.57897710885895 -1 0 0 I I #
straight-curve $-1 -67.459334086123235 0 -14.57897710885895 0 1 0 I I #
straight-curve $-1 -67.459334086123235 0 14.57897710885895 0 -1 0 I I #
straight-curve $-1 57.353562852015152 0 6.9824372933344208 0 1 0 I I #
point $-1 57.353562852015152 34.221092655609532 6.9824372933344208 #
point $-1 57.353562852015152 -34.221092655609532 6.9824372933344208 #
straight-curve $-1 57.353562852015152 -34.221092655609532 4.8045367923953641 0 0 -1 I I #
straight-curve $-1 -1.5464311650886344 38.089979564059604 14.57897710885895 0 -1 0 I I #
point $-1 -1.5464311650886344 34.221092655609532 14.57897710885895 #
straight-curve $-1 5.598517814386156 23.500471480276879 14.57897710885895 1 0 0 I I #
point $-1 -1.5464311650886344 23.500471480276879 14.57897710885895 #
point $-1 11.197035628772312 21.672356505275562 1.8717640319695545 #
straight-curve $-1 -1.5464311650886344 -34.221092655609532 51.627551136513979 0 0 -1 I I #
point $-1 -1.5464311650886344 -34.221092655609532 14.57897710885895 #
straight-curve $-1 5.598517814386156 -34.221092655609532 4.5818359078787889 1 0 0 I I #
point $-1 -1.5464311650886344 -34.221092655609532 4.5818359078787916 #
point $-1 11.197035628772312 -21.672356505275555 1.8717640319695474 #
point $-1 -67.459334086123235 -34.221092655609532 14.57897710885895 #
straight-curve $-1 -67.459334086123235 -34.221092655609532 0 0 0 -1 I I #
point $-1 -67.459334086123235 -34.221092655609532 -14.57897710885895 #
End-of-ACIS-data 