500 0 5 0           
7 Unknown 11 ACIS 5.0 NT 24 Fri Mar 26 15:30:21 1999 
-1 9.9999999999999995e-007 1e-010 
body $-1 $5 $-1 $6 #
body $-1 $7 $-1 $8 #
body $-1 $9 $-1 $10 #
body $-1 $11 $-1 $12 #
body $-1 $13 $-1 $14 #
lump $-1 $-1 $15 $0 #
transform $-1 1 0 0 0 1 0 0 0 1 70.993377483443709 36.485747148692042 9.4166788250915179 1 rotate no_reflect no_shear #
lump $-1 $-1 $16 $1 #
transform $-1 1 0 0 0 1 0 0 0 1 70.993377483443709 36.485747148692042 9.4166788250915179 1 rotate no_reflect no_shear #
lump $-1 $-1 $17 $2 #
transform $-1 1 0 0 0 1 0 0 0 1 70.993377483443709 36.485747148692042 9.4166788250915179 1 rotate no_reflect no_shear #
lump $-1 $-1 $18 $3 #
transform $-1 1 0 0 0 1 0 0 0 1 70.993377483443709 36.485747148692042 9.4166788250915179 1 rotate no_reflect no_shear #
lump $-1 $-1 $19 $4 #
transform $-1 1 0 0 0 1 0 0 0 1 70.993377483443709 36.485747148692042 9.4166788250915179 1 rotate no_reflect no_shear #
shell $-1 $-1 $-1 $20 $-1 $5 #
shell $-1 $-1 $-1 $21 $-1 $7 #
shell $-1 $-1 $-1 $22 $-1 $9 #
shell $-1 $-1 $-1 $23 $-1 $11 #
shell $-1 $-1 $-1 $24 $-1 $13 #
face $-1 $25 $26 $15 $-1 $27 forward single #
face $-1 $28 $29 $16 $-1 $30 forward single #
face $-1 $31 $32 $17 $-1 $33 forward single #
face $-1 $34 $35 $18 $-1 $36 forward single #
face $-1 $37 $38 $19 $-1 $39 reversed single #
face $-1 $40 $41 $15 $-1 $42 reversed single #
loop $-1 $-1 $43 $20 #
plane-surface $-1 0 0 9.4166788250915179 0 0 1 1 0 0 forward_v I I I I #
face $-1 $44 $45 $16 $-1 $46 forward single #
loop $-1 $-1 $47 $21 #
plane-surface $-1 -64.834512602145423 -31.897792475665639 0 0 -1 0 0 0 -1 forward_v I I I I #
face $-1 $48 $49 $17 $-1 $50 reversed single #
loop $-1 $-1 $51 $22 #
plane-surface $-1 77.095909548698586 0 -4.2897085935964885 0 0 1 1 0 0 forward_v I I I I #
face $-1 $52 $53 $18 $-1 $54 forward single #
loop $-1 $-1 $55 $23 #
plane-surface $-1 -13.121522161010926 74.56515555125452 158.20046839517155 1 0 0 0 -0.6560590369687036 -0.75470957328743171 forward_v I I I I #
face $-1 $56 $57 $19 $-1 $58 reversed single #
loop $-1 $59 $60 $24 #
cone-surface $-1 -3.7807228760016898 30.713594438821783 3.7868082621708479 0 -0.6560590369687036 -0.75470957328743171 2 0 0 1 I I 0 1 2 forward I I I I #
face $-1 $61 $62 $15 $-1 $63 reversed single #
loop $-1 $-1 $64 $25 #
plane-surface $-1 0 0 -9.4166788250915179 0 0 1 1 0 0 forward_v I I I I #
coedge $-1 $65 $66 $67 $68 forward $26 $-1 #
face $-1 $69 $70 $16 $-1 $71 forward single #
loop $-1 $-1 $72 $28 #
plane-surface $-1 -58.675647720847138 -34.19176981217884 0 -1 0 0 0 0 1 forward_v I I I I #
coedge $-1 $73 $74 $75 $76 reversed $29 $-1 #
face $-1 $77 $78 $17 $-1 $79 forward single #
loop $-1 $-1 $80 $31 #
plane-surface $-1 83.198441613953463 0 -6.8531937093440032 -1 0 0 0 0 1 forward_v I I I I #
coedge $-1 $81 $82 $83 $84 forward $32 $-1 #
face $-1 $85 $86 $18 $-1 $87 forward single #
loop $-1 $-1 $88 $34 #
plane-surface $-1 -3.7807228760016898 -18.586538174632935 51.041705141644826 0 0.6560590369687036 0.75470957328743171 1 0 0 forward_v I I I I #
coedge $-1 $89 $90 $91 $92 reversed $35 $-1 #
face $-1 $93 $94 $19 $-1 $95 forward single #
loop $-1 $96 $97 $37 #
cone-surface $-1 -3.7807228760016898 27.879468252660189 0.52651910514062727 0 -0.6560590369687036 -0.75470957328743171 1 0 0 1 I I -0.70710678118654746 0.70710678118654746 1 forward I I I I #
loop $-1 $-1 $98 $24 #
coedge $-1 $60 $60 $99 $100 reversed $38 $-1 #
face $-1 $101 $102 $15 $-1 $103 reversed single #
loop $-1 $-1 $104 $40 #
plane-surface $-1 0 -36.485747148692042 0 0 1 0 0 0 1 forward_v I I I I #
coedge $-1 $105 $106 $107 $108 forward $41 $-1 #
coedge $-1 $109 $43 $110 $111 forward $26 $-1 #
coedge $-1 $43 $109 $112 $113 forward $26 $-1 #
coedge $-1 $114 $115 $43 $68 reversed $116 $-1 #
edge $-1 $117 -36.485747148692042 $118 36.485747148692042 $67 $119 forward 7 unknown #
face $-1 $120 $121 $16 $-1 $122 reversed single #
loop $-1 $-1 $123 $44 #
plane-surface $-1 0 0 9.4166788250915179 0 0 1 1 0 0 forward_v I I I I #
coedge $-1 $124 $125 $126 $127 reversed $45 $-1 #
coedge $-1 $128 $47 $123 $129 reversed $29 $-1 #
coedge $-1 $47 $128 $130 $131 reversed $29 $-1 #
coedge $-1 $125 $124 $47 $76 forward $45 $-1 #
edge $-1 $132 -9.4166788250915179 $133 9.4166788250915179 $75 $134 forward 7 unknown #
face $-1 $135 $136 $17 $-1 $137 forward single #
loop $-1 $-1 $138 $48 #
plane-surface $-1 -64.834512602145423 -31.897792475665639 0 0 -1 0 0 0 -1 forward_v I I I I #
coedge $-1 $139 $83 $140 $141 forward $49 $-1 #
coedge $-1 $142 $51 $143 $144 forward $32 $-1 #
coedge $-1 $51 $142 $145 $146 forward $32 $-1 #
coedge $-1 $80 $147 $51 $84 reversed $49 $-1 #
edge $-1 $148 -36.485747148692042 $149 36.485747148692042 $83 $150 forward 7 unknown #
face $-1 $151 $152 $18 $-1 $153 forward single #
loop $-1 $-1 $154 $52 #
plane-surface $-1 5.5600764090075465 74.56515555125452 158.20046839517155 -1 0 0 0 0.6560590369687036 0.75470957328743171 forward_v I I I I #
coedge $-1 $155 $156 $157 $158 reversed $53 $-1 #
coedge $-1 $90 $55 $156 $159 forward $35 $-1 #
coedge $-1 $55 $89 $160 $161 reversed $35 $-1 #
coedge $-1 $162 $157 $55 $92 forward $152 $-1 #
edge $-1 $163 -7.9850017482898892 $164 -0.79683062693521833 $91 $165 forward 7 unknown #
face $-1 $166 $167 $19 $-1 $168 forward single #
loop $-1 $-1 $169 $56 #
plane-surface $-1 -13.121522161010926 74.56515555125452 158.20046839517155 1 0 0 0 -0.6560590369687036 -0.75470957328743171 forward_v I I I I #
loop $-1 $-1 $170 $37 #
coedge $-1 $97 $97 $98 $171 forward $57 $-1 #
coedge $-1 $98 $98 $97 $171 reversed $59 $-1 #
coedge $-1 $99 $99 $60 $100 forward $167 $-1 #
edge $-1 $172 2.2759546572294781e-015 $172 6.2831853071796031 $99 $173 forward 7 unknown #
face $-1 $174 $175 $15 $-1 $176 reversed single #
loop $-1 $-1 $177 $61 #
plane-surface $-1 -70.993377483443709 0 0 1 0 0 0 0 -1 forward_v I I I I #
coedge $-1 $178 $112 $179 $180 forward $62 $-1 #
coedge $-1 $181 $64 $178 $182 forward $41 $-1 #
coedge $-1 $64 $181 $183 $184 forward $41 $-1 #
coedge $-1 $115 $114 $64 $108 reversed $116 $-1 #
edge $-1 $185 -36.485747148692042 $186 36.485747148692042 $107 $187 forward 7 unknown #
coedge $-1 $66 $65 $188 $189 forward $26 $-1 #
coedge $-1 $190 $191 $65 $111 reversed $175 $-1 #
edge $-1 $118 -70.993377483443709 $192 70.993377483443709 $110 $193 forward 7 unknown #
coedge $-1 $104 $194 $66 $113 reversed $62 $-1 #
edge $-1 $195 -70.993377483443709 $117 70.993377483443709 $112 $196 forward 7 unknown #
coedge $-1 $107 $67 $194 $197 forward $116 $-1 #
coedge $-1 $67 $107 $190 $198 reversed $116 $-1 #
loop $-1 $-1 $114 $174 #
vertex $-1 $68 $199 #
vertex $-1 $68 $200 #
straight-curve $-1 70.993377483443709 0 9.4166788250915179 0 1 0 I I #
face $-1 $201 $202 $16 $-1 $203 reversed single #
loop $-1 $-1 $126 $69 #
plane-surface $-1 0 -36.485747148692042 0 0 1 0 0 0 1 forward_v I I I I #
coedge $-1 $204 $205 $73 $129 forward $70 $-1 #
coedge $-1 $75 $72 $204 $206 reversed $45 $-1 #
coedge $-1 $72 $75 $207 $208 reversed $45 $-1 #
coedge $-1 $209 $210 $72 $127 forward $121 $-1 #
edge $-1 $211 -9.4166788250915179 $212 9.4166788250915179 $126 $213 forward 7 unknown #
coedge $-1 $74 $73 $214 $215 reversed $29 $-1 #
edge $-1 $216 -38.576121182370997 $132 -26.258391419774426 $123 $217 forward 7 unknown #
coedge $-1 $218 $207 $74 $131 forward $202 $-1 #
edge $-1 $133 26.258391419774426 $219 38.576121182370997 $130 $220 forward 7 unknown #
vertex $-1 $129 $221 #
vertex $-1 $131 $222 #
straight-curve $-1 -58.675647720847138 -31.897792475665639 0 0 0 -1 I I #
face $-1 $223 $224 $17 $-1 $225 forward single #
loop $-1 $-1 $226 $77 #
plane-surface $-1 -58.675647720847138 -34.19176981217884 0 -1 0 0 0 0 1 forward_v I I I I #
coedge $-1 $227 $228 $229 $230 reversed $78 $-1 #
coedge $-1 $147 $80 $231 $232 reversed $49 $-1 #
coedge $-1 $145 $233 $80 $141 reversed $234 $-1 #
edge $-1 $148 -2.5634851157475147 $235 2.5634851157475147 $80 $236 forward 7 unknown #
coedge $-1 $82 $81 $237 $238 reversed $32 $-1 #
coedge $-1 $239 $240 $81 $144 reversed $241 $-1 #
edge $-1 $149 -6.1025320652548771 $242 6.1025320652548771 $143 $243 forward 7 unknown #
coedge $-1 $244 $140 $82 $146 reversed $234 $-1 #
edge $-1 $245 -6.1025320652548771 $148 6.1025320652548771 $145 $246 forward 7 unknown #
coedge $-1 $83 $139 $239 $247 reversed $49 $-1 #
vertex $-1 $84 $248 #
vertex $-1 $84 $249 #
straight-curve $-1 83.198441613953463 0 -4.2897085935964885 0 1 0 I I #
face $-1 $250 $251 $18 $-1 $252 forward single #
loop $-1 $-1 $253 $85 #
plane-surface $-1 0 0 9.4166788250915179 0 0 1 1 0 0 forward_v I I I I #
coedge $-1 $254 $255 $253 $256 reversed $86 $-1 #
coedge $-1 $257 $88 $255 $258 reversed $53 $-1 #
coedge $-1 $88 $257 $89 $159 reversed $53 $-1 #
coedge $-1 $91 $253 $88 $158 forward $152 $-1 #
edge $-1 $259 -7.4504378470083914 $163 11.231160723010081 $157 $260 forward 7 unknown #
edge $-1 $163 63.447074075650569 $261 72.971494297384055 $89 $262 forward 7 unknown #
coedge $-1 $263 $264 $90 $161 forward $265 $-1 #
edge $-1 $164 69.683555372494254 $261 75.932137330849983 $160 $266 forward 7 unknown #
coedge $-1 $267 $91 $264 $268 forward $152 $-1 #
vertex $-1 $158 $269 #
vertex $-1 $268 $270 #
straight-curve $-1 -13.121522161010926 37.28257777562726 9.4166788250915232 0 1 0 I I #
face $-1 $271 $272 $19 $-1 $273 forward single #
loop $-1 $274 $99 $93 #
plane-surface $-1 -3.7807228760016898 -18.586538174632935 51.041705141644826 0 0.6560590369687036 0.75470957328743171 1 0 0 forward_v I I I I #
coedge $-1 $275 $276 $277 $278 reversed $94 $-1 #
coedge $-1 $170 $170 $-1 $279 forward $96 $-1 #
edge $-1 $280 0 $280 6.2831853071796004 $97 $281 forward 7 unknown #
vertex $-1 $100 $282 #
ellipse-curve $-1 -3.7807228760016898 32.891661588014699 6.2923878459136624 0 -0.6560590369687036 -0.75470957328743171 2 0 0 1 I I #
face $-1 $-1 $116 $15 $-1 $283 reversed single #
loop $-1 $-1 $190 $101 #
plane-surface $-1 0 36.485747148692042 0 0 -1 0 0 0 -1 forward_v I I I I #
coedge $-1 $284 $188 $191 $285 forward $102 $-1 #
coedge $-1 $194 $104 $105 $182 reversed $62 $-1 #
coedge $-1 $188 $284 $104 $180 reversed $102 $-1 #
edge $-1 $195 -9.4166788250915179 $286 9.4166788250915179 $179 $287 forward 7 unknown #
coedge $-1 $106 $105 $284 $288 forward $41 $-1 #
edge $-1 $186 -70.993377483443709 $286 70.993377483443709 $178 $289 forward 7 unknown #
coedge $-1 $191 $190 $106 $184 reversed $175 $-1 #
edge $-1 $290 -70.993377483443709 $185 70.993377483443709 $183 $291 forward 7 unknown #
vertex $-1 $108 $292 #
vertex $-1 $197 $293 #
straight-curve $-1 70.993377483443709 0 -9.4166788250915179 0 -1 0 I I #
coedge $-1 $177 $179 $109 $189 reversed $102 $-1 #
edge $-1 $192 -36.485747148692042 $195 36.485747148692042 $188 $294 forward 7 unknown #
coedge $-1 $183 $110 $115 $198 forward $175 $-1 #
coedge $-1 $110 $183 $177 $285 reversed $175 $-1 #
vertex $-1 $111 $295 #
straight-curve $-1 0 36.485747148692042 9.4166788250915179 -1 0 0 I I #
coedge $-1 $112 $178 $114 $197 reversed $62 $-1 #
vertex $-1 $189 $296 #
straight-curve $-1 0 -36.485747148692042 9.4166788250915179 1 0 0 I I #
edge $-1 $117 -9.4166788250915179 $186 9.4166788250915179 $114 $297 forward 7 unknown #
edge $-1 $118 -9.4166788250915179 $185 9.4166788250915179 $115 $298 forward 7 unknown #
point $-1 70.993377483443709 -36.485747148692042 9.4166788250915179 #
point $-1 70.993377483443709 36.485747148692042 9.4166788250915179 #
face $-1 $299 $300 $16 $-1 $301 reversed single #
loop $-1 $-1 $130 $120 #
plane-surface $-1 0 0 -9.4166788250915179 0 0 1 1 0 0 forward_v I I I I #
coedge $-1 $302 $123 $124 $206 forward $70 $-1 #
coedge $-1 $123 $303 $304 $305 forward $70 $-1 #
edge $-1 $132 14.801907569576219 $211 19.389862242602621 $204 $306 forward 7 unknown #
coedge $-1 $130 $307 $125 $208 forward $202 $-1 #
edge $-1 $212 -19.389862242602621 $133 -14.801907569576219 $207 $308 forward 7 unknown #
coedge $-1 $309 $126 $307 $310 reversed $121 $-1 #
coedge $-1 $126 $309 $302 $311 reversed $121 $-1 #
vertex $-1 $311 $312 #
vertex $-1 $127 $313 #
straight-curve $-1 -58.675647720847138 -36.485747148692042 0 0 0 -1 I I #
coedge $-1 $304 $314 $128 $215 forward $300 $-1 #
edge $-1 $219 -9.4166788250915179 $216 9.4166788250915179 $214 $315 forward 7 unknown #
vertex $-1 $215 $316 #
straight-curve $-1 -32.417256301072712 -31.897792475665639 9.4166788250915179 1 0 0 I I #
coedge $-1 $317 $130 $314 $318 forward $202 $-1 #
vertex $-1 $318 $319 #
straight-curve $-1 -32.417256301072712 -31.897792475665639 -9.4166788250915179 -1 0 0 I I #
point $-1 -58.675647720847138 -31.897792475665639 9.4166788250915179 #
point $-1 -58.675647720847138 -31.897792475665639 -9.4166788250915179 #
face $-1 $320 $234 $17 $-1 $321 reversed single #
loop $-1 $-1 $322 $135 #
plane-surface $-1 0 0 9.4166788250915179 0 0 1 1 0 0 forward_v I I I I #
coedge $-1 $323 $324 $325 $326 reversed $136 $-1 #
coedge $-1 $327 $138 $322 $328 reversed $78 $-1 #
coedge $-1 $138 $327 $329 $330 reversed $78 $-1 #
coedge $-1 $324 $323 $138 $230 forward $136 $-1 #
edge $-1 $331 -9.4166788250915179 $332 9.4166788250915179 $229 $333 forward 7 unknown #
coedge $-1 $334 $335 $139 $232 forward $336 $-1 #
edge $-1 $337 -36.485747148692042 $235 36.485747148692042 $139 $338 forward 7 unknown #
coedge $-1 $140 $325 $334 $339 reversed $234 $-1 #
loop $-1 $-1 $325 $223 #
vertex $-1 $141 $340 #
straight-curve $-1 83.198441613953463 -36.485747148692042 -6.8531937093440032 0 0 -1 I I #
coedge $-1 $341 $342 $142 $238 forward $343 $-1 #
edge $-1 $245 -36.485747148692042 $242 36.485747148692042 $237 $344 forward 7 unknown #
coedge $-1 $345 $143 $147 $247 forward $241 $-1 #
coedge $-1 $143 $346 $341 $347 forward $241 $-1 #
loop $-1 $-1 $240 $348 #
vertex $-1 $144 $349 #
straight-curve $-1 77.095909548698586 36.485747148692042 -4.2897085935964885 -1 0 0 I I #
coedge $-1 $350 $145 $342 $351 reversed $234 $-1 #
vertex $-1 $351 $352 #
straight-curve $-1 77.095909548698586 -36.485747148692042 -4.2897085935964885 1 0 0 I I #
edge $-1 $149 -2.5634851157475147 $337 2.5634851157475147 $147 $353 forward 7 unknown #
point $-1 83.198441613953463 -36.485747148692042 -4.2897085935964885 #
point $-1 83.198441613953463 36.485747148692042 -4.2897085935964885 #
face $-1 $354 $355 $18 $-1 $356 reversed single #
loop $-1 $-1 $357 $151 #
plane-surface $-1 77.095909548698586 0 -4.2897085935964885 0 0 1 1 0 0 forward_v I I I I #
coedge $-1 $157 $358 $154 $256 forward $152 $-1 #
coedge $-1 $255 $154 $359 $360 reversed $86 $-1 #
coedge $-1 $154 $254 $155 $258 forward $86 $-1 #
edge $-1 $361 0.79683062693521833 $259 7.9850017482898892 $253 $362 forward 7 unknown #
coedge $-1 $156 $155 $263 $363 reversed $53 $-1 #
edge $-1 $364 -72.971494297384055 $259 -63.447074075650569 $255 $365 forward 7 unknown #
vertex $-1 $158 $366 #
straight-curve $-1 -1.8903614380008449 29.297576027337374 9.4166788250915197 -1 0 0 I I #
vertex $-1 $363 $367 #
straight-curve $-1 -13.121522161010926 -18.586538174632935 51.041705141644826 0 0.75470957328743171 -0.6560590369687036 I I #
coedge $-1 $359 $160 $257 $363 forward $265 $-1 #
coedge $-1 $160 $368 $162 $268 reversed $265 $-1 #
loop $-1 $-1 $359 $369 #
straight-curve $-1 -13.121522161010926 36.485747148692042 79.100234197585777 0 0 -1 I I #
coedge $-1 $370 $162 $371 $372 forward $152 $-1 #
edge $-1 $164 13.121522161010926 $373 70.993377483443709 $264 $374 forward 7 unknown #
point $-1 -13.121522161010926 29.297576027337371 9.4166788250915161 #
point $-1 -13.121522161010926 36.485747148692042 9.4166788250915179 #
face $-1 $375 $376 $19 $-1 $377 forward single #
loop $-1 $-1 $378 $166 #
plane-surface $-1 5.5600764090075465 74.56515555125452 158.20046839517155 -1 0 0 0 0.6560590369687036 0.75470957328743171 forward_v I I I I #
loop $-1 $-1 $379 $93 #
coedge $-1 $276 $169 $380 $381 forward $94 $-1 #
coedge $-1 $169 $275 $382 $383 reversed $94 $-1 #
coedge $-1 $384 $385 $169 $278 forward $376 $-1 #
edge $-1 $386 -7.9850017482898892 $387 -0.79683062693521833 $277 $388 forward 7 unknown #
edge $-1 $389 1 $389 0 $170 $-1 forward 7 unknown #
vertex $-1 $171 $390 #
ellipse-curve $-1 -3.7807228760016898 28.535527289628892 1.2812286784280591 0 0.6560590369687036 0.75470957328743171 2 0 0 1 I I #
point $-1 -1.7807228760016898 32.891661588014671 6.2923878459136366 #
plane-surface $-1 70.993377483443709 0 0 -1 0 0 0 0 1 forward_v I I I I #
coedge $-1 $179 $177 $181 $288 reversed $102 $-1 #
edge $-1 $192 -9.4166788250915179 $290 9.4166788250915179 $191 $391 forward 7 unknown #
vertex $-1 $288 $392 #
straight-curve $-1 -70.993377483443709 -36.485747148692042 0 0 0 -1 I I #
edge $-1 $286 -36.485747148692042 $290 36.485747148692042 $284 $393 forward 7 unknown #
straight-curve $-1 0 -36.485747148692042 -9.4166788250915179 -1 0 0 I I #
vertex $-1 $184 $394 #
straight-curve $-1 0 36.485747148692042 -9.4166788250915179 1 0 0 I I #
point $-1 70.993377483443709 36.485747148692042 -9.4166788250915179 #
point $-1 70.993377483443709 -36.485747148692042 -9.4166788250915179 #
straight-curve $-1 -70.993377483443709 0 9.4166788250915179 0 -1 0 I I #
point $-1 -70.993377483443709 36.485747148692042 9.4166788250915179 #
point $-1 -70.993377483443709 -36.485747148692042 9.4166788250915179 #
straight-curve $-1 70.993377483443709 -36.485747148692042 0 0 0 -1 I I #
straight-curve $-1 70.993377483443709 36.485747148692042 0 0 0 -1 I I #
face $-1 $395 $396 $16 $-1 $397 reversed single #
loop $-1 $-1 $214 $201 #
plane-surface $-1 -70.993377483443709 0 0 1 0 0 0 0 -1 forward_v I I I I #
coedge $-1 $398 $204 $210 $311 forward $70 $-1 #
coedge $-1 $205 $398 $399 $400 forward $70 $-1 #
coedge $-1 $401 $214 $205 $305 reversed $300 $-1 #
edge $-1 $402 -36.485747148692042 $216 31.897792475665639 $304 $403 forward 7 unknown #
straight-curve $-1 -58.675647720847138 -17.09588490608942 9.4166788250915179 0 -1 0 I I #
coedge $-1 $207 $404 $209 $310 forward $202 $-1 #
straight-curve $-1 -58.675647720847138 -17.09588490608942 -9.4166788250915179 0 1 0 I I #
coedge $-1 $210 $209 $405 $406 reversed $121 $-1 #
edge $-1 $407 -70.993377483443709 $212 58.675647720847138 $209 $408 forward 7 unknown #
edge $-1 $211 -58.675647720847138 $409 70.993377483443709 $210 $410 forward 7 unknown #
point $-1 -58.675647720847138 -36.485747148692042 9.4166788250915179 #
point $-1 -58.675647720847138 -36.485747148692042 -9.4166788250915179 #
coedge $-1 $214 $401 $218 $318 reversed $300 $-1 #
straight-curve $-1 -70.993377483443709 -31.897792475665639 0 0 0 1 I I #
point $-1 -70.993377483443709 -31.897792475665639 9.4166788250915179 #
coedge $-1 $404 $218 $411 $412 forward $202 $-1 #
edge $-1 $219 -31.897792475665639 $413 36.485747148692042 $314 $414 forward 7 unknown #
point $-1 -70.993377483443709 -31.897792475665639 -9.4166788250915179 #
face $-1 $415 $336 $17 $-1 $416 reversed single #
plane-surface $-1 0 -36.485747148692042 0 0 1 0 0 0 1 forward_v I I I I #
coedge $-1 $417 $418 $227 $328 forward $224 $-1 #
coedge $-1 $229 $226 $417 $419 reversed $136 $-1 #
coedge $-1 $226 $229 $420 $421 reversed $136 $-1 #
coedge $-1 $233 $350 $226 $326 forward $234 $-1 #
edge $-1 $422 -9.4166788250915179 $423 9.4166788250915179 $325 $424 forward 7 unknown #
coedge $-1 $228 $227 $425 $426 reversed $78 $-1 #
edge $-1 $427 -38.576121182370997 $331 -26.258391419774426 $322 $428 forward 7 unknown #
coedge $-1 $429 $420 $228 $330 forward $336 $-1 #
edge $-1 $332 26.258391419774426 $430 38.576121182370997 $329 $431 forward 7 unknown #
vertex $-1 $328 $432 #
vertex $-1 $330 $433 #
straight-curve $-1 -58.675647720847138 -31.897792475665639 0 0 0 -1 I I #
coedge $-1 $420 $231 $233 $339 forward $336 $-1 #
coedge $-1 $231 $429 $345 $434 forward $336 $-1 #
loop $-1 $-1 $329 $320 #
vertex $-1 $232 $435 #
straight-curve $-1 83.198441613953463 0 -9.4166788250915179 0 -1 0 I I #
edge $-1 $235 -6.1025320652548771 $423 135.77155726954572 $233 $436 forward 7 unknown #
point $-1 83.198441613953463 -36.485747148692042 -9.4166788250915179 #
coedge $-1 $437 $237 $240 $347 reversed $343 $-1 #
coedge $-1 $237 $437 $244 $351 forward $343 $-1 #
loop $-1 $-1 $237 $438 #
straight-curve $-1 70.993377483443709 0 -4.2897085935964885 0 1 0 I I #
coedge $-1 $439 $239 $335 $434 reversed $241 $-1 #
coedge $-1 $240 $439 $440 $441 reversed $241 $-1 #
edge $-1 $442 -9.4166788250915179 $242 4.2897085935964885 $341 $443 forward 7 unknown #
face $-1 $438 $241 $17 $-1 $444 reversed single #
point $-1 70.993377483443709 36.485747148692042 -4.2897085935964885 #
coedge $-1 $325 $244 $445 $446 reversed $234 $-1 #
edge $-1 $447 -9.4166788250915179 $245 4.2897085935964885 $342 $448 forward 7 unknown #
point $-1 70.993377483443709 -36.485747148692042 -4.2897085935964885 #
straight-curve $-1 83.198441613953463 36.485747148692042 -6.8531937093440032 0 0 -1 I I #
face $-1 $449 $450 $18 $-1 $451 forward single #
loop $-1 $-1 $452 $250 #
plane-surface $-1 83.198441613953463 0 -6.8531937093440032 -1 0 0 0 0 1 forward_v I I I I #
coedge $-1 $453 $454 $455 $456 forward $251 $-1 #
coedge $-1 $253 $457 $458 $459 forward $152 $-1 #
coedge $-1 $458 $263 $254 $360 forward $265 $-1 #
edge $-1 $364 -75.932137330849983 $361 -69.683555372494254 $359 $460 forward 7 unknown #
vertex $-1 $360 $461 #
straight-curve $-1 5.5600764090075465 37.28257777562726 9.4166788250915232 0 -1 0 I I #
edge $-1 $261 -11.231160723010081 $364 7.4504378470083914 $263 $462 forward 7 unknown #
vertex $-1 $363 $463 #
straight-curve $-1 5.5600764090075465 -18.586538174632935 51.041705141644826 0 -0.75470957328743171 0.6560590369687036 I I #
point $-1 5.5600764090075465 29.297576027337371 9.4166788250915161 #
point $-1 -13.121522161010926 36.485747148692042 3.1680968667357945 #
coedge $-1 $264 $464 $465 $466 reversed $265 $-1 #
face $-1 $467 $265 $18 $-1 $468 reversed single #
coedge $-1 $469 $267 $470 $471 forward $152 $-1 #
coedge $-1 $465 $472 $267 $372 reversed $473 $-1 #
edge $-1 $373 -36.485747148692042 $474 31.897792475665639 $371 $475 forward 7 unknown #
vertex $-1 $268 $476 #
straight-curve $-1 0 36.485747148692042 9.4166788250915179 -1 0 0 I I #
face $-1 $477 $478 $19 $-1 $479 forward single #
loop $-1 $-1 $480 $271 #
plane-surface $-1 0 0 9.4166788250915179 0 0 1 1 0 0 forward_v I I I I #
coedge $-1 $481 $482 $480 $483 reversed $272 $-1 #
coedge $-1 $484 $380 $385 $485 reversed $274 $-1 #
coedge $-1 $379 $486 $275 $381 reversed $274 $-1 #
edge $-1 $386 63.447074075650569 $487 72.971494297384055 $275 $488 forward 7 unknown #
coedge $-1 $489 $490 $276 $383 forward $491 $-1 #
edge $-1 $387 69.683555372494254 $487 75.932137330849983 $382 $492 forward 7 unknown #
coedge $-1 $493 $277 $490 $494 forward $376 $-1 #
coedge $-1 $277 $480 $379 $485 forward $376 $-1 #
vertex $-1 $485 $495 #
vertex $-1 $494 $496 #
straight-curve $-1 -13.121522161010926 37.28257777562726 9.4166788250915232 0 1 0 I I #
vertex $-1 $279 $497 #
point $-1 -1.7807228760016898 28.535527289628892 1.2812286784280591 #
straight-curve $-1 -70.993377483443709 36.485747148692042 0 0 0 -1 I I #
point $-1 -70.993377483443709 -36.485747148692042 -9.4166788250915179 #
straight-curve $-1 -70.993377483443709 0 -9.4166788250915179 0 1 0 I I #
point $-1 -70.993377483443709 36.485747148692042 -9.4166788250915179 #
face $-1 $-1 $498 $16 $-1 $499 reversed single #
loop $-1 $-1 $500 $299 #
plane-surface $-1 0 36.485747148692042 0 0 -1 0 0 0 -1 forward_v I I I I #
coedge $-1 $303 $302 $501 $502 forward $70 $-1 #
coedge $-1 $500 $503 $303 $400 reversed $396 $-1 #
edge $-1 $504 -70.993377483443709 $402 70.993377483443709 $399 $505 forward 7 unknown #
coedge $-1 $314 $304 $503 $506 forward $300 $-1 #
vertex $-1 $400 $507 #
straight-curve $-1 -70.993377483443709 0 9.4166788250915179 0 -1 0 I I #
coedge $-1 $307 $317 $508 $509 forward $202 $-1 #
coedge $-1 $508 $501 $309 $406 forward $498 $-1 #
edge $-1 $409 -9.4166788250915179 $407 9.4166788250915179 $405 $510 forward 7 unknown #
vertex $-1 $406 $511 #
straight-curve $-1 0 -36.485747148692042 -9.4166788250915179 -1 0 0 I I #
vertex $-1 $502 $512 #
straight-curve $-1 0 -36.485747148692042 9.4166788250915179 1 0 0 I I #
coedge $-1 $503 $500 $317 $412 reversed $396 $-1 #
edge $-1 $413 -70.993377483443709 $513 70.993377483443709 $411 $514 forward 7 unknown #
vertex $-1 $412 $515 #
straight-curve $-1 -70.993377483443709 0 -9.4166788250915179 0 1 0 I I #
face $-1 $348 $516 $17 $-1 $517 reversed single #
plane-surface $-1 0 0 -9.4166788250915179 0 0 1 1 0 0 forward_v I I I I #
coedge $-1 $445 $322 $323 $419 forward $224 $-1 #
coedge $-1 $322 $440 $518 $519 forward $224 $-1 #
edge $-1 $331 14.801907569576219 $422 19.389862242602621 $417 $520 forward 7 unknown #
coedge $-1 $329 $334 $324 $421 forward $336 $-1 #
edge $-1 $423 -19.389862242602621 $332 -14.801907569576219 $420 $521 forward 7 unknown #
vertex $-1 $446 $522 #
vertex $-1 $326 $523 #
straight-curve $-1 -58.675647720847138 -36.485747148692042 0 0 0 -1 I I #
coedge $-1 $518 $524 $327 $426 forward $516 $-1 #
edge $-1 $430 -9.4166788250915179 $427 9.4166788250915179 $425 $525 forward 7 unknown #
vertex $-1 $426 $526 #
straight-curve $-1 -32.417256301072712 -31.897792475665639 9.4166788250915179 1 0 0 I I #
coedge $-1 $335 $329 $524 $527 forward $336 $-1 #
vertex $-1 $527 $528 #
straight-curve $-1 -32.417256301072712 -31.897792475665639 -9.4166788250915179 -1 0 0 I I #
point $-1 -58.675647720847138 -31.897792475665639 9.4166788250915179 #
point $-1 -58.675647720847138 -31.897792475665639 -9.4166788250915179 #
edge $-1 $529 -148.08928703214229 $337 6.1025320652548771 $345 $530 forward 7 unknown #
point $-1 83.198441613953463 36.485747148692042 -9.4166788250915179 #
straight-curve $-1 77.095909548698586 -36.485747148692042 -9.4166788250915179 -1 0 0 I I #
coedge $-1 $342 $341 $531 $532 reversed $343 $-1 #
face $-1 $-1 $343 $17 $-1 $533 reversed single #
coedge $-1 $346 $345 $534 $535 reversed $241 $-1 #
coedge $-1 $418 $531 $346 $441 forward $224 $-1 #
edge $-1 $442 -70.993377483443709 $536 70.993377483443709 $346 $537 forward 7 unknown #
vertex $-1 $532 $538 #
straight-curve $-1 70.993377483443709 36.485747148692042 0 0 0 -1 I I #
plane-surface $-1 0 36.485747148692042 0 0 -1 0 0 0 -1 forward_v I I I I #
coedge $-1 $531 $417 $350 $446 forward $224 $-1 #
edge $-1 $422 -58.675647720847138 $447 70.993377483443709 $350 $539 forward 7 unknown #
vertex $-1 $532 $540 #
straight-curve $-1 70.993377483443709 -36.485747148692042 0 0 0 -1 I I #
face $-1 $541 $542 $18 $-1 $543 forward single #
loop $-1 $-1 $544 $354 #
plane-surface $-1 -64.834512602145423 -31.897792475665639 0 0 -1 0 0 0 -1 forward_v I I I I #
coedge $-1 $545 $455 $546 $547 forward $355 $-1 #
coedge $-1 $548 $357 $549 $550 forward $251 $-1 #
coedge $-1 $357 $548 $551 $552 forward $251 $-1 #
coedge $-1 $452 $553 $357 $456 reversed $355 $-1 #
edge $-1 $554 -36.485747148692042 $555 36.485747148692042 $455 $556 forward 7 unknown #
coedge $-1 $358 $557 $558 $559 forward $152 $-1 #
coedge $-1 $560 $359 $358 $459 reversed $265 $-1 #
edge $-1 $561 -70.993377483443709 $361 -5.5600764090075465 $458 $374 forward 7 unknown #
straight-curve $-1 5.5600764090075465 36.485747148692042 79.100234197585777 0 0 1 I I #
point $-1 5.5600764090075465 36.485747148692042 9.4166788250915179 #
straight-curve $-1 -1.8903614380008449 36.485747148692042 3.168096866735798 1 0 0 I I #
point $-1 5.5600764090075465 36.485747148692042 3.1680968667357945 #
coedge $-1 $368 $562 $563 $564 reversed $265 $-1 #
coedge $-1 $565 $371 $368 $466 forward $473 $-1 #
edge $-1 $373 -9.4166788250915179 $566 9.4166788250915179 $368 $567 forward 7 unknown #
face $-1 $-1 $568 $18 $-1 $569 reversed single #
plane-surface $-1 0 36.485747148692042 0 0 -1 0 0 0 -1 forward_v I I I I #
coedge $-1 $557 $370 $570 $571 forward $152 $-1 #
coedge $-1 $572 $544 $370 $471 reversed $450 $-1 #
edge $-1 $474 -38.576121182370997 $573 -26.258391419774426 $370 $574 forward 7 unknown #
coedge $-1 $371 $565 $572 $575 forward $473 $-1 #
loop $-1 $-1 $472 $576 #
vertex $-1 $575 $577 #
straight-curve $-1 -70.993377483443709 0 9.4166788250915179 0 -1 0 I I #
point $-1 -70.993377483443709 36.485747148692042 9.4166788250915179 #
face $-1 $578 $579 $19 $-1 $580 reversed single #
loop $-1 $-1 $581 $375 #
plane-surface $-1 77.095909548698586 0 -4.2897085935964885 0 0 1 1 0 0 forward_v I I I I #
coedge $-1 $385 $582 $378 $483 forward $376 $-1 #
coedge $-1 $482 $378 $583 $584 reversed $272 $-1 #
coedge $-1 $378 $481 $484 $585 forward $272 $-1 #
edge $-1 $586 0.79683062693521833 $587 7.9850017482898892 $480 $588 forward 7 unknown #
coedge $-1 $486 $379 $482 $585 reversed $274 $-1 #
edge $-1 $587 -7.4504378470083914 $386 11.231160723010081 $385 $589 forward 7 unknown #
coedge $-1 $380 $484 $489 $590 reversed $274 $-1 #
vertex $-1 $590 $591 #
straight-curve $-1 -13.121522161010926 -18.586538174632935 51.041705141644826 0 0.75470957328743171 -0.6560590369687036 I I #
coedge $-1 $583 $382 $486 $590 forward $491 $-1 #
coedge $-1 $382 $592 $384 $494 reversed $491 $-1 #
loop $-1 $-1 $583 $593 #
straight-curve $-1 -13.121522161010926 36.485747148692042 79.100234197585777 0 0 -1 I I #
coedge $-1 $594 $384 $595 $596 forward $376 $-1 #
edge $-1 $387 13.121522161010926 $597 70.993377483443709 $490 $598 forward 7 unknown #
point $-1 -13.121522161010926 29.297576027337371 9.4166788250915161 #
point $-1 -13.121522161010926 36.485747148692042 9.4166788250915179 #
point $-1 -3.7807228760016898 27.223409215691486 -0.22819046814680444 #
loop $-1 $-1 $405 $395 #
plane-surface $-1 70.993377483443709 0 0 -1 0 0 0 0 1 forward_v I I I I #
coedge $-1 $411 $399 $599 $600 forward $396 $-1 #
coedge $-1 $405 $599 $398 $502 reversed $498 $-1 #
edge $-1 $409 -36.485747148692042 $504 36.485747148692042 $501 $601 forward 7 unknown #
coedge $-1 $399 $411 $401 $506 reversed $396 $-1 #
vertex $-1 $502 $602 #
straight-curve $-1 0 36.485747148692042 9.4166788250915179 -1 0 0 I I #
edge $-1 $402 -9.4166788250915179 $413 9.4166788250915179 $503 $603 forward 7 unknown #
point $-1 -70.993377483443709 36.485747148692042 9.4166788250915179 #
coedge $-1 $599 $405 $404 $509 reversed $498 $-1 #
edge $-1 $513 -36.485747148692042 $407 36.485747148692042 $508 $604 forward 7 unknown #
straight-curve $-1 70.993377483443709 -36.485747148692042 0 0 0 -1 I I #
point $-1 70.993377483443709 -36.485747148692042 -9.4166788250915179 #
point $-1 70.993377483443709 -36.485747148692042 9.4166788250915179 #
vertex $-1 $509 $605 #
straight-curve $-1 0 36.485747148692042 -9.4166788250915179 1 0 0 I I #
point $-1 -70.993377483443709 36.485747148692042 -9.4166788250915179 #
loop $-1 $-1 $425 $415 #
plane-surface $-1 -70.993377483443709 0 0 1 0 0 0 0 -1 forward_v I I I I #
coedge $-1 $534 $425 $418 $519 reversed $516 $-1 #
edge $-1 $536 -36.485747148692042 $427 31.897792475665639 $518 $606 forward 7 unknown #
straight-curve $-1 -58.675647720847138 -17.09588490608942 9.4166788250915179 0 -1 0 I I #
straight-curve $-1 -58.675647720847138 -17.09588490608942 -9.4166788250915179 0 1 0 I I #
point $-1 -58.675647720847138 -36.485747148692042 9.4166788250915179 #
point $-1 -58.675647720847138 -36.485747148692042 -9.4166788250915179 #
coedge $-1 $425 $534 $429 $527 reversed $516 $-1 #
straight-curve $-1 -70.993377483443709 -31.897792475665639 0 0 0 1 I I #
point $-1 -70.993377483443709 -31.897792475665639 9.4166788250915179 #
edge $-1 $430 -31.897792475665639 $529 36.485747148692042 $524 $607 forward 7 unknown #
point $-1 -70.993377483443709 -31.897792475665639 -9.4166788250915179 #
vertex $-1 $434 $608 #
straight-curve $-1 77.095909548698586 36.485747148692042 -9.4166788250915179 1 0 0 I I #
coedge $-1 $440 $445 $437 $532 forward $224 $-1 #
edge $-1 $447 -36.485747148692042 $442 36.485747148692042 $437 $609 forward 7 unknown #
plane-surface $-1 70.993377483443709 0 0 -1 0 0 0 0 1 forward_v I I I I #
coedge $-1 $524 $518 $439 $535 forward $516 $-1 #
edge $-1 $536 -9.4166788250915179 $529 9.4166788250915179 $439 $610 forward 7 unknown #
vertex $-1 $441 $611 #
straight-curve $-1 0 36.485747148692042 9.4166788250915179 -1 0 0 I I #
point $-1 70.993377483443709 36.485747148692042 9.4166788250915179 #
straight-curve $-1 0 -36.485747148692042 9.4166788250915179 1 0 0 I I #
point $-1 70.993377483443709 -36.485747148692042 9.4166788250915179 #
face $-1 $612 $613 $18 $-1 $614 reversed single #
loop $-1 $-1 $615 $449 #
plane-surface $-1 -58.675647720847138 -34.19176981217884 0 -1 0 0 0 0 1 forward_v I I I I #
coedge $-1 $470 $616 $617 $618 reversed $450 $-1 #
coedge $-1 $553 $452 $619 $620 reversed $355 $-1 #
coedge $-1 $551 $621 $452 $547 reversed $613 $-1 #
edge $-1 $554 -2.5634851157475147 $622 2.5634851157475147 $452 $623 forward 7 unknown #
coedge $-1 $454 $453 $624 $625 reversed $251 $-1 #
coedge $-1 $562 $560 $453 $550 reversed $265 $-1 #
edge $-1 $555 -6.1025320652548771 $626 6.1025320652548771 $549 $627 forward 7 unknown #
coedge $-1 $628 $546 $454 $552 reversed $613 $-1 #
edge $-1 $629 -6.1025320652548771 $554 6.1025320652548771 $551 $630 forward 7 unknown #
coedge $-1 $455 $545 $562 $631 reversed $355 $-1 #
vertex $-1 $456 $632 #
vertex $-1 $456 $633 #
straight-curve $-1 83.198441613953463 0 -4.2897085935964885 0 1 0 I I #
coedge $-1 $457 $469 $634 $635 forward $152 $-1 #
coedge $-1 $636 $637 $457 $559 reversed $568 $-1 #
edge $-1 $638 -36.485747148692042 $561 36.485747148692042 $558 $639 forward 7 unknown #
coedge $-1 $549 $458 $637 $640 forward $265 $-1 #
vertex $-1 $559 $641 #
coedge $-1 $464 $549 $553 $631 forward $265 $-1 #
coedge $-1 $619 $642 $464 $564 forward $643 $-1 #
edge $-1 $566 -148.08928703214229 $644 6.1025320652548771 $464 $645 forward 7 unknown #
coedge $-1 $472 $465 $642 $646 reversed $473 $-1 #
vertex $-1 $564 $647 #
straight-curve $-1 -70.993377483443709 36.485747148692042 0 0 0 -1 I I #
loop $-1 $-1 $624 $467 #
plane-surface $-1 70.993377483443709 0 0 -1 0 0 0 0 1 forward_v I I I I #
coedge $-1 $617 $615 $469 $571 reversed $542 $-1 #
edge $-1 $573 14.801907569576219 $648 19.389862242602621 $469 $649 forward 7 unknown #
coedge $-1 $616 $470 $472 $575 reversed $450 $-1 #
vertex $-1 $471 $650 #
straight-curve $-1 -32.417256301072712 -31.897792475665639 9.4166788250915179 1 0 0 I I #
edge $-1 $651 -9.4166788250915179 $474 9.4166788250915179 $472 $652 forward 7 unknown #
face $-1 $369 $473 $18 $-1 $653 reversed single #
point $-1 -70.993377483443709 -31.897792475665639 9.4166788250915179 #
face $-1 $654 $655 $19 $-1 $656 forward single #
loop $-1 $-1 $657 $477 #
plane-surface $-1 83.198441613953463 0 -6.8531937093440032 -1 0 0 0 0 1 forward_v I I I I #
coedge $-1 $658 $659 $660 $661 forward $478 $-1 #
coedge $-1 $480 $662 $663 $664 forward $376 $-1 #
coedge $-1 $663 $489 $481 $584 forward $491 $-1 #
edge $-1 $665 -75.932137330849983 $586 -69.683555372494254 $583 $666 forward 7 unknown #
edge $-1 $665 -72.971494297384055 $587 -63.447074075650569 $482 $667 forward 7 unknown #
vertex $-1 $584 $668 #
vertex $-1 $485 $669 #
straight-curve $-1 5.5600764090075465 37.28257777562726 9.4166788250915232 0 -1 0 I I #
straight-curve $-1 -1.8903614380008449 29.297576027337374 9.4166788250915197 -1 0 0 I I #
edge $-1 $487 -11.231160723010081 $665 7.4504378470083914 $489 $670 forward 7 unknown #
point $-1 -13.121522161010926 36.485747148692042 3.1680968667357945 #
coedge $-1 $490 $671 $672 $673 reversed $491 $-1 #
face $-1 $674 $491 $19 $-1 $675 reversed single #
coedge $-1 $676 $493 $677 $678 forward $376 $-1 #
coedge $-1 $672 $679 $493 $596 reversed $680 $-1 #
edge $-1 $597 -36.485747148692042 $681 31.897792475665639 $595 $682 forward 7 unknown #
vertex $-1 $494 $683 #
straight-curve $-1 0 36.485747148692042 9.4166788250915179 -1 0 0 I I #
coedge $-1 $501 $508 $500 $600 reversed $498 $-1 #
edge $-1 $504 -9.4166788250915179 $513 9.4166788250915179 $599 $684 forward 7 unknown #
straight-curve $-1 70.993377483443709 0 9.4166788250915179 0 1 0 I I #
point $-1 70.993377483443709 36.485747148692042 9.4166788250915179 #
straight-curve $-1 -70.993377483443709 36.485747148692042 0 0 0 -1 I I #
straight-curve $-1 70.993377483443709 0 -9.4166788250915179 0 -1 0 I I #
point $-1 70.993377483443709 36.485747148692042 -9.4166788250915179 #
straight-curve $-1 -70.993377483443709 0 9.4166788250915179 0 -1 0 I I #
straight-curve $-1 -70.993377483443709 0 -9.4166788250915179 0 1 0 I I #
point $-1 -70.993377483443709 36.485747148692042 -9.4166788250915179 #
straight-curve $-1 70.993377483443709 0 9.4166788250915179 0 1 0 I I #
straight-curve $-1 -70.993377483443709 36.485747148692042 0 0 0 -1 I I #
point $-1 -70.993377483443709 36.485747148692042 9.4166788250915179 #
face $-1 $576 $643 $18 $-1 $685 reversed single #
loop $-1 $-1 $686 $541 #
plane-surface $-1 0 -36.485747148692042 0 0 1 0 0 0 1 forward_v I I I I #
coedge $-1 $570 $687 $686 $688 reversed $542 $-1 #
coedge $-1 $544 $572 $689 $690 reversed $450 $-1 #
coedge $-1 $687 $570 $544 $618 forward $542 $-1 #
edge $-1 $573 -9.4166788250915179 $691 9.4166788250915179 $617 $692 forward 7 unknown #
coedge $-1 $693 $563 $545 $620 forward $643 $-1 #
edge $-1 $644 -36.485747148692042 $622 36.485747148692042 $545 $694 forward 7 unknown #
coedge $-1 $546 $686 $693 $695 reversed $613 $-1 #
vertex $-1 $547 $696 #
straight-curve $-1 83.198441613953463 -36.485747148692042 -6.8531937093440032 0 0 -1 I I #
coedge $-1 $637 $636 $548 $625 forward $568 $-1 #
edge $-1 $629 -36.485747148692042 $626 36.485747148692042 $624 $697 forward 7 unknown #
vertex $-1 $550 $698 #
straight-curve $-1 77.095909548698586 36.485747148692042 -4.2897085935964885 -1 0 0 I I #
coedge $-1 $634 $551 $636 $699 reversed $613 $-1 #
vertex $-1 $699 $700 #
straight-curve $-1 77.095909548698586 -36.485747148692042 -4.2897085935964885 1 0 0 I I #
edge $-1 $555 -2.5634851157475147 $644 2.5634851157475147 $553 $701 forward 7 unknown #
point $-1 83.198441613953463 -36.485747148692042 -4.2897085935964885 #
point $-1 83.198441613953463 36.485747148692042 -4.2897085935964885 #
coedge $-1 $686 $628 $557 $635 reversed $613 $-1 #
edge $-1 $648 -58.675647720847138 $638 70.993377483443709 $634 $702 forward 7 unknown #
coedge $-1 $624 $558 $628 $699 forward $568 $-1 #
coedge $-1 $558 $624 $560 $640 reversed $568 $-1 #
vertex $-1 $559 $703 #
straight-curve $-1 70.993377483443709 0 9.4166788250915179 0 1 0 I I #
edge $-1 $561 -9.4166788250915179 $626 4.2897085935964885 $637 $704 forward 7 unknown #
point $-1 70.993377483443709 36.485747148692042 9.4166788250915179 #
coedge $-1 $563 $689 $565 $646 forward $643 $-1 #
loop $-1 $-1 $689 $612 #
vertex $-1 $620 $705 #
straight-curve $-1 77.095909548698586 36.485747148692042 -9.4166788250915179 1 0 0 I I #
edge $-1 $651 -31.897792475665639 $566 36.485747148692042 $565 $706 forward 7 unknown #
point $-1 -70.993377483443709 36.485747148692042 -9.4166788250915179 #
vertex $-1 $635 $707 #
straight-curve $-1 -58.675647720847138 -17.09588490608942 9.4166788250915179 0 -1 0 I I #
point $-1 -58.675647720847138 -31.897792475665639 9.4166788250915179 #
vertex $-1 $646 $708 #
straight-curve $-1 -70.993377483443709 -31.897792475665639 0 0 0 1 I I #
plane-surface $-1 -70.993377483443709 0 0 1 0 0 0 0 -1 forward_v I I I I #
face $-1 $709 $710 $19 $-1 $711 forward single #
loop $-1 $-1 $712 $578 #
plane-surface $-1 -64.834512602145423 -31.897792475665639 0 0 -1 0 0 0 -1 forward_v I I I I #
coedge $-1 $713 $660 $714 $715 forward $579 $-1 #
coedge $-1 $716 $581 $717 $718 forward $478 $-1 #
coedge $-1 $581 $716 $719 $720 forward $478 $-1 #
coedge $-1 $657 $721 $581 $661 reversed $579 $-1 #
edge $-1 $722 -36.485747148692042 $723 36.485747148692042 $660 $724 forward 7 unknown #
coedge $-1 $582 $725 $726 $727 forward $376 $-1 #
coedge $-1 $728 $583 $582 $664 reversed $491 $-1 #
edge $-1 $729 -70.993377483443709 $586 -5.5600764090075465 $663 $598 forward 7 unknown #
vertex $-1 $590 $730 #
straight-curve $-1 5.5600764090075465 36.485747148692042 79.100234197585777 0 0 1 I I #
straight-curve $-1 5.5600764090075465 -18.586538174632935 51.041705141644826 0 -0.75470957328743171 0.6560590369687036 I I #
point $-1 5.5600764090075465 36.485747148692042 9.4166788250915179 #
point $-1 5.5600764090075465 29.297576027337371 9.4166788250915161 #
straight-curve $-1 -1.8903614380008449 36.485747148692042 3.168096866735798 1 0 0 I I #
coedge $-1 $592 $731 $732 $733 reversed $491 $-1 #
coedge $-1 $734 $595 $592 $673 forward $680 $-1 #
edge $-1 $597 -9.4166788250915179 $735 9.4166788250915179 $592 $736 forward 7 unknown #
face $-1 $-1 $737 $19 $-1 $738 reversed single #
plane-surface $-1 0 36.485747148692042 0 0 -1 0 0 0 -1 forward_v I I I I #
coedge $-1 $725 $594 $739 $740 forward $376 $-1 #
coedge $-1 $741 $712 $594 $678 reversed $655 $-1 #
edge $-1 $681 -38.576121182370997 $742 -26.258391419774426 $594 $743 forward 7 unknown #
coedge $-1 $595 $734 $741 $744 forward $680 $-1 #
loop $-1 $-1 $679 $745 #
vertex $-1 $744 $746 #
straight-curve $-1 -70.993377483443709 0 9.4166788250915179 0 -1 0 I I #
point $-1 -70.993377483443709 36.485747148692042 9.4166788250915179 #
straight-curve $-1 70.993377483443709 36.485747148692042 0 0 0 -1 I I #
plane-surface $-1 0 0 -9.4166788250915179 0 0 1 1 0 0 forward_v I I I I #
coedge $-1 $621 $634 $615 $688 forward $613 $-1 #
coedge $-1 $615 $617 $747 $748 reversed $542 $-1 #
edge $-1 $648 -9.4166788250915179 $749 9.4166788250915179 $686 $750 forward 7 unknown #
coedge $-1 $642 $747 $616 $690 forward $643 $-1 #
edge $-1 $691 26.258391419774426 $651 38.576121182370997 $689 $751 forward 7 unknown #
vertex $-1 $690 $752 #
straight-curve $-1 -58.675647720847138 -31.897792475665639 0 0 0 -1 I I #
coedge $-1 $747 $619 $621 $695 forward $643 $-1 #
straight-curve $-1 83.198441613953463 0 -9.4166788250915179 0 -1 0 I I #
edge $-1 $622 -6.1025320652548771 $749 135.77155726954572 $621 $753 forward 7 unknown #
point $-1 83.198441613953463 -36.485747148692042 -9.4166788250915179 #
straight-curve $-1 70.993377483443709 0 -4.2897085935964885 0 1 0 I I #
point $-1 70.993377483443709 36.485747148692042 -4.2897085935964885 #
edge $-1 $638 -9.4166788250915179 $629 4.2897085935964885 $636 $754 forward 7 unknown #
point $-1 70.993377483443709 -36.485747148692042 -4.2897085935964885 #
straight-curve $-1 83.198441613953463 36.485747148692042 -6.8531937093440032 0 0 -1 I I #
straight-curve $-1 0 -36.485747148692042 9.4166788250915179 1 0 0 I I #
point $-1 70.993377483443709 -36.485747148692042 9.4166788250915179 #
straight-curve $-1 70.993377483443709 36.485747148692042 0 0 0 -1 I I #
point $-1 83.198441613953463 36.485747148692042 -9.4166788250915179 #
straight-curve $-1 -70.993377483443709 0 -9.4166788250915179 0 1 0 I I #
point $-1 -58.675647720847138 -36.485747148692042 9.4166788250915179 #
point $-1 -70.993377483443709 -31.897792475665639 -9.4166788250915179 #
face $-1 $755 $756 $19 $-1 $757 reversed single #
loop $-1 $-1 $758 $654 #
plane-surface $-1 -58.675647720847138 -34.19176981217884 0 -1 0 0 0 0 1 forward_v I I I I #
coedge $-1 $677 $759 $760 $761 reversed $655 $-1 #
coedge $-1 $721 $657 $762 $763 reversed $579 $-1 #
coedge $-1 $719 $764 $657 $715 reversed $756 $-1 #
edge $-1 $722 -2.5634851157475147 $765 2.5634851157475147 $657 $766 forward 7 unknown #
coedge $-1 $659 $658 $767 $768 reversed $478 $-1 #
coedge $-1 $731 $728 $658 $718 reversed $491 $-1 #
edge $-1 $723 -6.1025320652548771 $769 6.1025320652548771 $717 $770 forward 7 unknown #
coedge $-1 $771 $714 $659 $720 reversed $756 $-1 #
edge $-1 $772 -6.1025320652548771 $722 6.1025320652548771 $719 $773 forward 7 unknown #
coedge $-1 $660 $713 $731 $774 reversed $579 $-1 #
vertex $-1 $661 $775 #
vertex $-1 $661 $776 #
straight-curve $-1 83.198441613953463 0 -4.2897085935964885 0 1 0 I I #
coedge $-1 $662 $676 $777 $778 forward $376 $-1 #
coedge $-1 $779 $780 $662 $727 reversed $737 $-1 #
edge $-1 $781 -36.485747148692042 $729 36.485747148692042 $726 $782 forward 7 unknown #
coedge $-1 $717 $663 $780 $783 forward $491 $-1 #
vertex $-1 $727 $784 #
point $-1 5.5600764090075465 36.485747148692042 3.1680968667357945 #
coedge $-1 $671 $717 $721 $774 forward $491 $-1 #
coedge $-1 $762 $785 $671 $733 forward $786 $-1 #
edge $-1 $735 -148.08928703214229 $787 6.1025320652548771 $671 $788 forward 7 unknown #
coedge $-1 $679 $672 $785 $789 reversed $680 $-1 #
vertex $-1 $733 $790 #
straight-curve $-1 -70.993377483443709 36.485747148692042 0 0 0 -1 I I #
loop $-1 $-1 $767 $674 #
plane-surface $-1 70.993377483443709 0 0 -1 0 0 0 0 1 forward_v I I I I #
coedge $-1 $760 $758 $676 $740 reversed $710 $-1 #
edge $-1 $742 14.801907569576219 $791 19.389862242602621 $676 $792 forward 7 unknown #
coedge $-1 $759 $677 $679 $744 reversed $655 $-1 #
vertex $-1 $678 $793 #
straight-curve $-1 -32.417256301072712 -31.897792475665639 9.4166788250915179 1 0 0 I I #
edge $-1 $794 -9.4166788250915179 $681 9.4166788250915179 $679 $795 forward 7 unknown #
face $-1 $593 $680 $19 $-1 $796 reversed single #
point $-1 -70.993377483443709 -31.897792475665639 9.4166788250915179 #
coedge $-1 $689 $693 $687 $748 forward $643 $-1 #
edge $-1 $749 -19.389862242602621 $691 -14.801907569576219 $747 $797 forward 7 unknown #
vertex $-1 $688 $798 #
straight-curve $-1 -58.675647720847138 -36.485747148692042 0 0 0 -1 I I #
straight-curve $-1 -32.417256301072712 -31.897792475665639 -9.4166788250915179 -1 0 0 I I #
point $-1 -58.675647720847138 -31.897792475665639 -9.4166788250915179 #
straight-curve $-1 77.095909548698586 -36.485747148692042 -9.4166788250915179 -1 0 0 I I #
straight-curve $-1 70.993377483443709 -36.485747148692042 0 0 0 -1 I I #
face $-1 $745 $786 $19 $-1 $799 reversed single #
loop $-1 $-1 $800 $709 #
plane-surface $-1 0 -36.485747148692042 0 0 1 0 0 0 1 forward_v I I I I #
coedge $-1 $739 $801 $800 $802 reversed $710 $-1 #
coedge $-1 $712 $741 $803 $804 reversed $655 $-1 #
coedge $-1 $801 $739 $712 $761 forward $710 $-1 #
edge $-1 $742 -9.4166788250915179 $805 9.4166788250915179 $760 $806 forward 7 unknown #
coedge $-1 $807 $732 $713 $763 forward $786 $-1 #
edge $-1 $787 -36.485747148692042 $765 36.485747148692042 $713 $808 forward 7 unknown #
coedge $-1 $714 $800 $807 $809 reversed $756 $-1 #
vertex $-1 $715 $810 #
straight-curve $-1 83.198441613953463 -36.485747148692042 -6.8531937093440032 0 0 -1 I I #
coedge $-1 $780 $779 $716 $768 forward $737 $-1 #
edge $-1 $772 -36.485747148692042 $769 36.485747148692042 $767 $811 forward 7 unknown #
vertex $-1 $718 $812 #
straight-curve $-1 77.095909548698586 36.485747148692042 -4.2897085935964885 -1 0 0 I I #
coedge $-1 $777 $719 $779 $813 reversed $756 $-1 #
vertex $-1 $813 $814 #
straight-curve $-1 77.095909548698586 -36.485747148692042 -4.2897085935964885 1 0 0 I I #
edge $-1 $723 -2.5634851157475147 $787 2.5634851157475147 $721 $815 forward 7 unknown #
point $-1 83.198441613953463 -36.485747148692042 -4.2897085935964885 #
point $-1 83.198441613953463 36.485747148692042 -4.2897085935964885 #
coedge $-1 $800 $771 $725 $778 reversed $756 $-1 #
edge $-1 $791 -58.675647720847138 $781 70.993377483443709 $777 $816 forward 7 unknown #
coedge $-1 $767 $726 $771 $813 forward $737 $-1 #
coedge $-1 $726 $767 $728 $783 reversed $737 $-1 #
vertex $-1 $727 $817 #
straight-curve $-1 70.993377483443709 0 9.4166788250915179 0 1 0 I I #
edge $-1 $729 -9.4166788250915179 $769 4.2897085935964885 $780 $818 forward 7 unknown #
point $-1 70.993377483443709 36.485747148692042 9.4166788250915179 #
coedge $-1 $732 $803 $734 $789 forward $786 $-1 #
loop $-1 $-1 $803 $755 #
vertex $-1 $763 $819 #
straight-curve $-1 77.095909548698586 36.485747148692042 -9.4166788250915179 1 0 0 I I #
edge $-1 $794 -31.897792475665639 $735 36.485747148692042 $734 $820 forward 7 unknown #
point $-1 -70.993377483443709 36.485747148692042 -9.4166788250915179 #
vertex $-1 $778 $821 #
straight-curve $-1 -58.675647720847138 -17.09588490608942 9.4166788250915179 0 -1 0 I I #
point $-1 -58.675647720847138 -31.897792475665639 9.4166788250915179 #
vertex $-1 $789 $822 #
straight-curve $-1 -70.993377483443709 -31.897792475665639 0 0 0 1 I I #
plane-surface $-1 -70.993377483443709 0 0 1 0 0 0 0 -1 forward_v I I I I #
straight-curve $-1 -58.675647720847138 -17.09588490608942 -9.4166788250915179 0 1 0 I I #
point $-1 -58.675647720847138 -36.485747148692042 -9.4166788250915179 #
plane-surface $-1 0 0 -9.4166788250915179 0 0 1 1 0 0 forward_v I I I I #
coedge $-1 $764 $777 $758 $802 forward $756 $-1 #
coedge $-1 $758 $760 $823 $824 reversed $710 $-1 #
edge $-1 $791 -9.4166788250915179 $825 9.4166788250915179 $800 $826 forward 7 unknown #
coedge $-1 $785 $823 $759 $804 forward $786 $-1 #
edge $-1 $805 26.258391419774426 $794 38.576121182370997 $803 $827 forward 7 unknown #
vertex $-1 $804 $828 #
straight-curve $-1 -58.675647720847138 -31.897792475665639 0 0 0 -1 I I #
coedge $-1 $823 $762 $764 $809 forward $786 $-1 #
straight-curve $-1 83.198441613953463 0 -9.4166788250915179 0 -1 0 I I #
edge $-1 $765 -6.1025320652548771 $825 135.77155726954572 $764 $829 forward 7 unknown #
point $-1 83.198441613953463 -36.485747148692042 -9.4166788250915179 #
straight-curve $-1 70.993377483443709 0 -4.2897085935964885 0 1 0 I I #
point $-1 70.993377483443709 36.485747148692042 -4.2897085935964885 #
edge $-1 $781 -9.4166788250915179 $772 4.2897085935964885 $779 $830 forward 7 unknown #
point $-1 70.993377483443709 -36.485747148692042 -4.2897085935964885 #
straight-curve $-1 83.198441613953463 36.485747148692042 -6.8531937093440032 0 0 -1 I I #
straight-curve $-1 0 -36.485747148692042 9.4166788250915179 1 0 0 I I #
point $-1 70.993377483443709 -36.485747148692042 9.4166788250915179 #
straight-curve $-1 70.993377483443709 36.485747148692042 0 0 0 -1 I I #
point $-1 83.198441613953463 36.485747148692042 -9.4166788250915179 #
straight-curve $-1 -70.993377483443709 0 -9.4166788250915179 0 1 0 I I #
point $-1 -58.675647720847138 -36.485747148692042 9.4166788250915179 #
point $-1 -70.993377483443709 -31.897792475665639 -9.4166788250915179 #
coedge $-1 $803 $807 $801 $824 forward $786 $-1 #
edge $-1 $825 -19.389862242602621 $805 -14.801907569576219 $823 $831 forward 7 unknown #
vertex $-1 $802 $832 #
straight-curve $-1 -58.675647720847138 -36.485747148692042 0 0 0 -1 I I #
straight-curve $-1 -32.417256301072712 -31.897792475665639 -9.4166788250915179 -1 0 0 I I #
point $-1 -58.675647720847138 -31.897792475665639 -9.4166788250915179 #
straight-curve $-1 77.095909548698586 -36.485747148692042 -9.4166788250915179 -1 0 0 I I #
straight-curve $-1 70.993377483443709 -36.485747148692042 0 0 0 -1 I I #
straight-curve $-1 -58.675647720847138 -17.09588490608942 -9.4166788250915179 0 1 0 I I #
point $-1 -58.675647720847138 -36.485747148692042 -9.4166788250915179 #
End-of-ACIS-data 