500 0 8 0           
7 Unknown 11 ACIS 5.0 NT 24 Thu Mar 25 15:12:20 1999 
-1 9.9999999999999995e-007 1e-010 
body $-1 $8 $-1 $9 #
body $-1 $10 $-1 $11 #
body $-1 $12 $-1 $13 #
body $-1 $14 $-1 $15 #
body $-1 $16 $-1 $17 #
body $-1 $18 $-1 $19 #
body $-1 $20 $-1 $21 #
body $-1 $22 $-1 $23 #
lump $-1 $-1 $24 $0 #
transform $-1 1 0 0 0 1 0 0 0 1 62.024597918637653 36.552244353418885 14.02297901296909 1 rotate no_reflect no_shear #
lump $-1 $-1 $25 $1 #
transform $-1 1 0 0 0 1 0 0 0 1 62.024597918637653 36.552244353418885 14.02297901296909 1 rotate no_reflect no_shear #
lump $-1 $-1 $26 $2 #
transform $-1 1 0 0 0 1 0 0 0 1 62.024597918637653 36.552244353418885 14.02297901296909 1 rotate no_reflect no_shear #
lump $-1 $-1 $27 $3 #
transform $-1 1 0 0 0 1 0 0 0 1 62.024597918637653 36.552244353418885 14.02297901296909 1 rotate no_reflect no_shear #
lump $-1 $-1 $28 $4 #
transform $-1 1 0 0 0 1 0 0 0 1 62.024597918637653 36.552244353418885 14.02297901296909 1 rotate no_reflect no_shear #
lump $-1 $-1 $29 $5 #
transform $-1 1 0 0 0 1 0 0 0 1 62.024597918637653 36.552244353418885 14.02297901296909 1 rotate no_reflect no_shear #
lump $-1 $-1 $30 $6 #
transform $-1 1 0 0 0 1 0 0 0 1 62.024597918637653 36.552244353418885 14.02297901296909 1 rotate no_reflect no_shear #
lump $-1 $-1 $31 $7 #
transform $-1 1 0 0 0 1 0 0 0 1 62.024597918637653 36.552244353418885 14.02297901296909 1 rotate no_reflect no_shear #
shell $-1 $-1 $-1 $32 $-1 $8 #
shell $-1 $-1 $-1 $33 $-1 $10 #
shell $-1 $-1 $-1 $34 $-1 $12 #
shell $-1 $-1 $-1 $35 $-1 $14 #
shell $-1 $-1 $-1 $36 $-1 $16 #
shell $-1 $-1 $-1 $37 $-1 $18 #
shell $-1 $-1 $-1 $38 $-1 $20 #
shell $-1 $-1 $-1 $39 $-1 $22 #
face $-1 $40 $41 $24 $-1 $42 forward single #
face $-1 $43 $44 $25 $-1 $45 reversed single #
face $-1 $46 $47 $26 $-1 $48 reversed single #
face $-1 $49 $50 $27 $-1 $51 forward single #
face $-1 $52 $53 $28 $-1 $54 reversed single #
face $-1 $55 $56 $29 $-1 $57 forward single #
face $-1 $58 $59 $30 $-1 $60 reversed single #
face $-1 $61 $62 $31 $-1 $63 forward single #
face $-1 $64 $65 $24 $-1 $66 reversed single #
loop $-1 $-1 $67 $32 #
plane-surface $-1 0 0 14.02297901296909 0 0 1 1 0 0 forward_v I I I I #
face $-1 $68 $69 $25 $-1 $70 reversed single #
loop $-1 $-1 $71 $33 #
plane-surface $-1 0 -29.742705088531984 9.0962130901472662 0 0 1 1 0 0 forward_v I I I I #
face $-1 $72 $73 $26 $-1 $74 reversed single #
loop $-1 $-1 $75 $34 #
plane-surface $-1 31.561142795769257 -13.648479063775675 183.09750606843377 0 -1 0 -0.57357644374324357 0 -0.81915203911291934 forward_v I I I I #
face $-1 $76 $77 $27 $-1 $78 forward single #
loop $-1 $79 $80 $35 #
cone-surface $-1 57.834509146014256 -18.290822443710379 9.9581930699313101 -0.57357644374324357 0 -0.81915203911291934 1.228728058669379 0 -0.86036466561486535 1 I I 0 1 1.5 forward I I I I #
face $-1 $81 $82 $28 $-1 $83 reversed single #
loop $-1 $-1 $84 $36 #
plane-surface $-1 -134.9388867220552 -10.410238037847037 101.55483549081056 0 1 0 -0.5877852598018023 0 0.80901698891910034 forward_v I I I I #
face $-1 $85 $86 $29 $-1 $87 forward single #
loop $-1 $88 $89 $37 #
cone-surface $-1 -52.702660961610242 -7.3328062672345276 6.9284174204283451 0.5877852598018023 0 -0.80901698891910034 1.2135254833786506 0 0.88167788970270344 1 I I 0 1 1.5 forward I I I I #
face $-1 $90 $91 $30 $-1 $92 reversed single #
loop $-1 $-1 $93 $38 #
plane-surface $-1 -134.9388867220552 19.332467050684951 101.55483549081056 0 1 0 -0.5877852598018023 0 0.80901698891910034 forward_v I I I I #
face $-1 $94 $95 $31 $-1 $96 forward single #
loop $-1 $97 $98 $39 #
cone-surface $-1 -52.702660961610242 22.40989882129746 6.9284174204283451 0.5877852598018023 0 -0.80901698891910034 1.2135254833786506 0 0.88167788970270344 1 I I 0 1 1.5 forward I I I I #
face $-1 $99 $100 $24 $-1 $101 reversed single #
loop $-1 $-1 $102 $40 #
plane-surface $-1 0 0 -14.02297901296909 0 0 1 1 0 0 forward_v I I I I #
coedge $-1 $103 $104 $105 $106 forward $41 $-1 #
face $-1 $107 $108 $25 $-1 $109 reversed single #
loop $-1 $-1 $110 $43 #
plane-surface $-1 0 -22.933165823645083 11.559596051558179 0 -1 0 0 0 -1 forward_v I I I I #
coedge $-1 $111 $112 $113 $114 reversed $44 $-1 #
face $-1 $115 $116 $26 $-1 $117 forward single #
loop $-1 $-1 $118 $46 #
plane-surface $-1 -39.590553801784282 -18.290822443710379 81.482354348011839 0.57357644374324357 0 0.81915203911291934 0.81915203911291934 0 -0.57357644374324357 forward_v I I I I #
coedge $-1 $119 $120 $121 $122 reversed $47 $-1 #
face $-1 $-1 $123 $27 $-1 $124 forward single #
loop $-1 $125 $126 $49 #
cone-surface $-1 55.850828615596313 -18.290822443710379 7.1252037288142258 -0.57357644374324357 0 -0.81915203911291934 0.61436402933468948 0 -0.43018233280743268 1 I I -0.70710678118654757 0.70710678118654757 0.75 forward I I I I #
loop $-1 $-1 $127 $35 #
coedge $-1 $80 $80 $128 $129 reversed $50 $-1 #
face $-1 $130 $131 $28 $-1 $132 reversed single #
loop $-1 $-1 $133 $52 #
plane-surface $-1 -62.024597918637681 -7.3328062672345276 1.1969285967022927 -0.5877852598018023 0 0.80901698891910034 0.80901698891910034 0 0.5877852598018023 forward_v I I I I #
coedge $-1 $134 $135 $136 $137 reversed $53 $-1 #
face $-1 $-1 $138 $29 $-1 $139 forward single #
loop $-1 $140 $141 $55 #
cone-surface $-1 -51.766656839438596 -7.3328062672345276 5.6401182943316694 0.5877852598018023 0 -0.80901698891910034 0.60676274168932531 0 0.44083894485135172 1 I I -0.70710678118654757 0.70710678118654757 0.75 forward I I I I #
loop $-1 $-1 $142 $37 #
coedge $-1 $89 $89 $143 $144 reversed $56 $-1 #
face $-1 $145 $146 $30 $-1 $147 reversed single #
loop $-1 $-1 $148 $58 #
plane-surface $-1 -62.024597918637681 22.40989882129746 1.1969285967022927 -0.5877852598018023 0 0.80901698891910034 0.80901698891910034 0 0.5877852598018023 forward_v I I I I #
coedge $-1 $149 $150 $151 $152 reversed $59 $-1 #
face $-1 $-1 $153 $31 $-1 $154 forward single #
loop $-1 $155 $156 $61 #
cone-surface $-1 -51.766656839438596 22.40989882129746 5.6401182943316694 0.5877852598018023 0 -0.80901698891910034 0.60676274168932531 0 0.44083894485135172 1 I I -0.70710678118654757 0.70710678118654757 0.75 forward I I I I #
loop $-1 $-1 $157 $39 #
coedge $-1 $98 $98 $158 $159 reversed $62 $-1 #
face $-1 $160 $161 $24 $-1 $162 reversed single #
loop $-1 $-1 $163 $64 #
plane-surface $-1 0 -36.552244353418885 0 0 1 0 0 0 1 forward_v I I I I #
coedge $-1 $164 $165 $166 $167 forward $65 $-1 #
coedge $-1 $168 $67 $169 $170 forward $41 $-1 #
coedge $-1 $67 $168 $171 $172 forward $41 $-1 #
coedge $-1 $173 $174 $67 $106 reversed $175 $-1 #
edge $-1 $176 -36.552244353418885 $177 36.552244353418885 $105 $178 forward 7 unknown #
face $-1 $179 $180 $25 $-1 $181 reversed single #
loop $-1 $-1 $182 $68 #
plane-surface $-1 -62.024597918637653 0 0 1 0 0 0 0 -1 forward_v I I I I #
coedge $-1 $183 $184 $185 $186 reversed $69 $-1 #
coedge $-1 $187 $71 $188 $189 reversed $44 $-1 #
coedge $-1 $71 $187 $183 $190 forward $44 $-1 #
coedge $-1 $185 $191 $71 $114 forward $192 $-1 #
edge $-1 $193 -21.680891809152893 $194 -8.0618132793790913 $113 $195 forward 7 unknown #
face $-1 $196 $197 $26 $-1 $198 reversed single #
loop $-1 $-1 $199 $72 #
plane-surface $-1 0 -22.933165823645083 11.559596051558179 0 -1 0 0 0 -1 forward_v I I I I #
coedge $-1 $200 $201 $202 $203 reversed $73 $-1 #
coedge $-1 $120 $75 $204 $205 reversed $47 $-1 #
coedge $-1 $75 $119 $200 $206 reversed $47 $-1 #
coedge $-1 $202 $207 $75 $122 forward $208 $-1 #
edge $-1 $209 -46.244026520753025 $210 -40.970845370727233 $121 $211 forward 7 unknown #
loop $-1 $-1 $128 $76 #
plane-surface $-1 -39.590553801784282 -18.290822443710379 81.482354348011839 0.57357644374324357 0 0.81915203911291934 0.81915203911291934 0 -0.57357644374324357 forward_v I I I I #
loop $-1 $-1 $212 $49 #
coedge $-1 $126 $126 $127 $213 reversed $77 $-1 #
coedge $-1 $127 $127 $126 $213 forward $79 $-1 #
coedge $-1 $128 $128 $80 $129 forward $123 $-1 #
edge $-1 $214 0 $214 6.2831853071796004 $128 $215 forward 7 unknown #
face $-1 $216 $217 $28 $-1 $218 forward single #
loop $-1 $-1 $219 $81 #
plane-surface $-1 -134.9388867220552 -4.2553744966220179 101.55483549081056 0 -1 0 0.5877852598018023 0 -0.80901698891910034 forward_v I I I I #
coedge $-1 $220 $221 $222 $223 reversed $82 $-1 #
coedge $-1 $135 $84 $224 $225 reversed $53 $-1 #
coedge $-1 $84 $134 $220 $226 reversed $53 $-1 #
coedge $-1 $222 $227 $84 $137 forward $217 $-1 #
edge $-1 $228 5.4448454423899477 $229 23.098389001804165 $136 $230 forward 7 unknown #
loop $-1 $-1 $143 $85 #
plane-surface $-1 -62.024597918637681 -7.3328062672345276 1.1969285967022927 -0.5877852598018023 0 0.80901698891910034 0.80901698891910034 0 0.5877852598018023 forward_v I I I I #
loop $-1 $-1 $231 $55 #
coedge $-1 $141 $141 $142 $232 reversed $86 $-1 #
coedge $-1 $142 $142 $141 $232 forward $88 $-1 #
coedge $-1 $143 $143 $89 $144 forward $138 $-1 #
edge $-1 $233 0 $233 6.2831853071796004 $143 $234 forward 7 unknown #
face $-1 $235 $236 $30 $-1 $237 forward single #
loop $-1 $-1 $238 $90 #
plane-surface $-1 -134.9388867220552 25.48733059190997 101.55483549081056 0 -1 0 0.5877852598018023 0 -0.80901698891910034 forward_v I I I I #
coedge $-1 $239 $240 $241 $242 reversed $91 $-1 #
coedge $-1 $150 $93 $243 $244 reversed $59 $-1 #
coedge $-1 $93 $149 $239 $245 reversed $59 $-1 #
coedge $-1 $241 $246 $93 $152 forward $236 $-1 #
edge $-1 $247 5.4448454423899477 $248 23.098389001804165 $151 $249 forward 7 unknown #
loop $-1 $-1 $158 $94 #
plane-surface $-1 -62.024597918637681 22.40989882129746 1.1969285967022927 -0.5877852598018023 0 0.80901698891910034 0.80901698891910034 0 0.5877852598018023 forward_v I I I I #
loop $-1 $-1 $250 $61 #
coedge $-1 $156 $156 $157 $251 reversed $95 $-1 #
coedge $-1 $157 $157 $156 $251 forward $97 $-1 #
coedge $-1 $158 $158 $98 $159 forward $153 $-1 #
edge $-1 $252 0 $252 6.2831853071796004 $158 $253 forward 7 unknown #
face $-1 $254 $255 $24 $-1 $256 reversed single #
loop $-1 $-1 $257 $99 #
plane-surface $-1 -62.024597918637653 0 0 1 0 0 0 0 -1 forward_v I I I I #
coedge $-1 $258 $171 $259 $260 forward $100 $-1 #
coedge $-1 $261 $102 $258 $262 forward $65 $-1 #
coedge $-1 $102 $261 $263 $264 forward $65 $-1 #
coedge $-1 $174 $173 $102 $167 reversed $175 $-1 #
edge $-1 $265 -36.552244353418885 $266 36.552244353418885 $166 $267 forward 7 unknown #
coedge $-1 $104 $103 $268 $269 forward $41 $-1 #
coedge $-1 $270 $271 $103 $170 reversed $255 $-1 #
edge $-1 $177 -62.024597918637653 $272 62.024597918637653 $169 $273 forward 7 unknown #
coedge $-1 $163 $274 $104 $172 reversed $100 $-1 #
edge $-1 $275 -62.024597918637653 $176 62.024597918637653 $171 $276 forward 7 unknown #
coedge $-1 $166 $105 $274 $277 forward $175 $-1 #
coedge $-1 $105 $166 $270 $278 reversed $175 $-1 #
loop $-1 $-1 $173 $254 #
vertex $-1 $106 $279 #
vertex $-1 $106 $280 #
straight-curve $-1 62.024597918637653 0 14.02297901296909 0 1 0 I I #
face $-1 $281 $282 $25 $-1 $283 forward single #
loop $-1 $-1 $188 $107 #
plane-surface $-1 0 -36.552244353418885 0 0 1 0 0 0 1 forward_v I I I I #
coedge $-1 $284 $285 $286 $287 forward $108 $-1 #
coedge $-1 $286 $110 $112 $190 reversed $69 $-1 #
coedge $-1 $110 $286 $288 $289 reversed $69 $-1 #
coedge $-1 $290 $113 $110 $186 forward $192 $-1 #
edge $-1 $194 3.3164150643681767 $291 8.2431809871900015 $185 $292 forward 7 unknown #
coedge $-1 $112 $111 $284 $293 reversed $44 $-1 #
coedge $-1 $294 $295 $111 $189 forward $180 $-1 #
edge $-1 $296 -62.024597918637653 $193 62.024597918637653 $188 $297 forward 7 unknown #
edge $-1 $298 -62.024597918637653 $194 62.024597918637653 $183 $299 forward 7 unknown #
coedge $-1 $113 $290 $294 $300 forward $192 $-1 #
loop $-1 $-1 $185 $281 #
vertex $-1 $189 $301 #
vertex $-1 $114 $302 #
straight-curve $-1 62.024597918637653 -14.871352544265992 9.0962130901472662 0 1 0 I I #
face $-1 $-1 $208 $26 $-1 $303 forward single #
loop $-1 $-1 $304 $115 #
plane-surface $-1 62.024597918637653 0 0 -1 0 0 0 0 1 forward_v I I I I #
coedge $-1 $305 $306 $201 $307 forward $116 $-1 #
coedge $-1 $308 $118 $120 $206 forward $73 $-1 #
coedge $-1 $118 $308 $199 $307 reversed $73 $-1 #
coedge $-1 $309 $121 $118 $203 forward $208 $-1 #
edge $-1 $210 4.503067841920485 $310 13.787754601789894 $202 $311 forward 7 unknown #
coedge $-1 $312 $304 $119 $205 forward $197 $-1 #
edge $-1 $313 -81.218095283758586 $209 -77.525774021247798 $204 $314 forward 7 unknown #
edge $-1 $210 117.61183024671136 $313 124.04919583727531 $120 $315 forward 7 unknown #
coedge $-1 $121 $309 $312 $316 forward $208 $-1 #
loop $-1 $-1 $202 $196 #
vertex $-1 $205 $317 #
vertex $-1 $122 $318 #
straight-curve $-1 15.780571397884628 -13.648479063775675 14.022979012969088 -1 0 0 I I #
coedge $-1 $212 $212 $-1 $319 reversed $125 $-1 #
edge $-1 $320 0 $320 6.2831853071796004 $126 $321 forward 7 unknown #
vertex $-1 $129 $322 #
ellipse-curve $-1 59.38800734362475 -18.290822443710379 12.176818381713691 0.57357644374324357 0 0.81915203911291934 1.228728058669379 0 -0.86036466561486535 1 I I #
face $-1 $-1 $323 $28 $-1 $324 reversed single #
loop $-1 $-1 $136 $130 #
plane-surface $-1 0 0 14.02297901296909 0 0 1 1 0 0 forward_v I I I I #
coedge $-1 $325 $326 $327 $328 reversed $131 $-1 #
coedge $-1 $329 $133 $135 $226 forward $82 $-1 #
coedge $-1 $133 $329 $325 $330 forward $82 $-1 #
coedge $-1 $327 $136 $133 $223 forward $217 $-1 #
edge $-1 $229 -6.7438349042297734 $331 -0.58897136300475417 $222 $332 forward 7 unknown #
coedge $-1 $333 $334 $134 $225 forward $323 $-1 #
edge $-1 $335 -49.580489148702966 $228 -36.754438732436192 $224 $336 forward 7 unknown #
edge $-1 $229 -21.820980030345883 $335 -3.5131498542109719e-014 $135 $337 forward 7 unknown #
coedge $-1 $136 $327 $333 $338 forward $217 $-1 #
vertex $-1 $225 $339 #
vertex $-1 $137 $340 #
straight-curve $-1 -67.469443361027601 -10.410238037847037 14.022979012969088 1 0 0 I I #
coedge $-1 $231 $231 $-1 $341 reversed $140 $-1 #
edge $-1 $342 0 $342 6.2831853071796004 $141 $343 forward 7 unknown #
vertex $-1 $144 $344 #
ellipse-curve $-1 -53.197826138930537 -7.3328062672345276 7.6099538048357038 -0.5877852598018023 0 0.80901698891910034 1.2135254833786506 0 0.88167788970270344 1 I I #
face $-1 $-1 $345 $30 $-1 $346 reversed single #
loop $-1 $-1 $151 $145 #
plane-surface $-1 0 0 14.02297901296909 0 0 1 1 0 0 forward_v I I I I #
coedge $-1 $347 $348 $349 $350 reversed $146 $-1 #
coedge $-1 $351 $148 $150 $245 forward $91 $-1 #
coedge $-1 $148 $351 $347 $352 forward $91 $-1 #
coedge $-1 $349 $151 $148 $242 forward $236 $-1 #
edge $-1 $248 8.1275176400362206 $353 14.28238118126124 $241 $354 forward 7 unknown #
coedge $-1 $355 $356 $149 $244 forward $345 $-1 #
edge $-1 $357 -49.580489148702966 $247 -36.754438732436192 $243 $358 forward 7 unknown #
edge $-1 $248 -21.820980030345883 $357 -3.5131498542109719e-014 $150 $359 forward 7 unknown #
coedge $-1 $151 $349 $355 $360 forward $236 $-1 #
vertex $-1 $152 $361 #
vertex $-1 $152 $362 #
straight-curve $-1 -67.469443361027601 19.332467050684951 14.022979012969088 1 0 0 I I #
coedge $-1 $250 $250 $-1 $363 reversed $155 $-1 #
edge $-1 $364 0 $364 6.2831853071796004 $156 $365 forward 7 unknown #
vertex $-1 $159 $366 #
ellipse-curve $-1 -53.197826138930537 22.40989882129746 7.6099538048357038 -0.5877852598018023 0 0.80901698891910034 1.2135254833786506 0 0.88167788970270344 1 I I #
face $-1 $-1 $175 $24 $-1 $367 reversed single #
loop $-1 $-1 $270 $160 #
plane-surface $-1 0 36.552244353418885 0 0 -1 0 0 0 -1 forward_v I I I I #
coedge $-1 $368 $268 $271 $369 forward $161 $-1 #
coedge $-1 $274 $163 $164 $262 reversed $100 $-1 #
coedge $-1 $268 $368 $163 $260 reversed $161 $-1 #
edge $-1 $275 -14.02297901296909 $370 14.02297901296909 $259 $371 forward 7 unknown #
coedge $-1 $165 $164 $368 $372 forward $65 $-1 #
edge $-1 $266 -62.024597918637653 $370 62.024597918637653 $258 $373 forward 7 unknown #
coedge $-1 $271 $270 $165 $264 reversed $255 $-1 #
edge $-1 $374 -62.024597918637653 $265 62.024597918637653 $263 $375 forward 7 unknown #
vertex $-1 $167 $376 #
vertex $-1 $277 $377 #
straight-curve $-1 62.024597918637653 0 -14.02297901296909 0 -1 0 I I #
coedge $-1 $257 $259 $168 $269 reversed $161 $-1 #
edge $-1 $272 -36.552244353418885 $275 36.552244353418885 $268 $378 forward 7 unknown #
coedge $-1 $263 $169 $174 $278 forward $255 $-1 #
coedge $-1 $169 $263 $257 $369 reversed $255 $-1 #
vertex $-1 $170 $379 #
straight-curve $-1 0 36.552244353418885 14.02297901296909 -1 0 0 I I #
coedge $-1 $171 $258 $173 $277 reversed $100 $-1 #
vertex $-1 $269 $380 #
straight-curve $-1 0 -36.552244353418885 14.02297901296909 1 0 0 I I #
edge $-1 $176 -14.02297901296909 $266 14.02297901296909 $173 $381 forward 7 unknown #
edge $-1 $177 -14.02297901296909 $265 14.02297901296909 $174 $382 forward 7 unknown #
point $-1 62.024597918637653 -36.552244353418885 14.02297901296909 #
point $-1 62.024597918637653 36.552244353418885 14.02297901296909 #
face $-1 $-1 $192 $25 $-1 $383 reversed single #
loop $-1 $-1 $288 $179 #
plane-surface $-1 0 0 14.02297901296909 0 0 1 1 0 0 forward_v I I I I #
coedge $-1 $384 $182 $187 $293 forward $108 $-1 #
coedge $-1 $182 $384 $385 $386 reversed $108 $-1 #
coedge $-1 $184 $183 $182 $287 reversed $69 $-1 #
edge $-1 $387 -8.2431809871900015 $298 -3.3164150643681767 $182 $388 forward 7 unknown #
coedge $-1 $385 $389 $184 $289 forward $282 $-1 #
edge $-1 $291 -62.024597918637653 $387 62.024597918637653 $288 $390 forward 7 unknown #
coedge $-1 $191 $185 $389 $391 reversed $192 $-1 #
vertex $-1 $186 $392 #
straight-curve $-1 62.024597918637653 -22.933165823645083 5.7797980257790895 0 0 1 I I #
edge $-1 $298 8.0618132793790913 $296 21.680891809152893 $284 $393 forward 7 unknown #
coedge $-1 $394 $188 $191 $300 reversed $180 $-1 #
coedge $-1 $188 $394 $384 $395 forward $180 $-1 #
vertex $-1 $189 $396 #
straight-curve $-1 0 -36.552244353418885 9.0962130901472662 1 0 0 I I #
vertex $-1 $293 $397 #
straight-curve $-1 0 -22.933165823645083 9.0962130901472662 1 0 0 I I #
edge $-1 $398 -14.02297901296909 $193 -9.0962130901472662 $191 $399 forward 7 unknown #
point $-1 62.024597918637653 -36.552244353418885 9.0962130901472662 #
point $-1 62.024597918637653 -22.933165823645083 9.0962130901472662 #
plane-surface $-1 0 0 14.02297901296909 0 0 1 1 0 0 forward_v I I I I #
coedge $-1 $204 $400 $308 $401 forward $197 $-1 #
coedge $-1 $306 $199 $400 $402 reversed $116 $-1 #
coedge $-1 $199 $305 $309 $403 reversed $116 $-1 #
edge $-1 $310 81.343465288341562 $404 87.780830878905505 $199 $405 forward 7 unknown #
coedge $-1 $201 $200 $304 $401 reversed $73 $-1 #
coedge $-1 $207 $202 $306 $403 forward $208 $-1 #
vertex $-1 $403 $406 #
straight-curve $-1 56.751416768611847 -9.1454112218551895 14.022979012969095 0 -1 0 I I #
coedge $-1 $400 $204 $207 $316 reversed $197 $-1 #
vertex $-1 $205 $407 #
straight-curve $-1 62.024597918637653 -13.648479063775675 91.548753034216887 0 0 1 I I #
straight-curve $-1 -39.590553801784282 -13.648479063775675 81.482354348011839 0.81915203911291934 0 -0.57357644374324357 I I #
edge $-1 $408 -22.933165823645083 $209 -13.648479063775675 $312 $409 forward 7 unknown #
point $-1 62.024597918637653 -13.648479063775675 14.02297901296909 #
point $-1 56.751416768611861 -13.648479063775675 14.022979012969088 #
edge $-1 $410 1 $410 0 $212 $-1 forward 7 unknown #
vertex $-1 $213 $411 #
ellipse-curve $-1 56.281010948403747 -18.290822443710379 7.7395677581489153 0.57357644374324357 0 0.81915203911291934 1.228728058669379 0 -0.86036466561486535 1 I I #
point $-1 60.61673540229414 -18.290822443710379 11.316453716098842 #
loop $-1 $-1 $224 $216 #
plane-surface $-1 -62.024597918637653 0 0 1 0 0 0 0 -1 forward_v I I I I #
coedge $-1 $326 $219 $221 $330 reversed $131 $-1 #
coedge $-1 $219 $325 $412 $413 reversed $131 $-1 #
coedge $-1 $227 $222 $219 $328 forward $217 $-1 #
edge $-1 $331 -23.098389001804165 $414 -5.4448454423899477 $327 $415 forward 7 unknown #
coedge $-1 $221 $220 $334 $416 reversed $82 $-1 #
edge $-1 $417 3.5131498542109719e-014 $331 21.820980030345883 $325 $418 forward 7 unknown #
vertex $-1 $223 $419 #
straight-curve $-1 -44.371054359223436 -3.6664031336172638 14.02297901296909 0 1 0 I I #
coedge $-1 $412 $224 $227 $338 reversed $323 $-1 #
coedge $-1 $224 $412 $329 $416 forward $323 $-1 #
vertex $-1 $225 $420 #
straight-curve $-1 -62.024597918637653 -10.410238037847037 50.77741774540528 0 0 1 I I #
straight-curve $-1 -62.024597918637681 -10.410238037847037 1.1969285967022927 -0.80901698891910034 0 -0.5877852598018023 I I #
edge $-1 $414 4.2553744966220179 $228 10.410238037847037 $333 $421 forward 7 unknown #
point $-1 -62.024597918637653 -10.410238037847037 14.02297901296909 #
point $-1 -44.371054359223436 -10.410238037847037 14.022979012969088 #
edge $-1 $422 1 $422 0 $231 $-1 forward 7 unknown #
vertex $-1 $232 $423 #
ellipse-curve $-1 -52.207495784289947 -7.3328062672345276 6.2468810360209943 -0.5877852598018023 0 0.80901698891910034 1.2135254833786506 0 0.88167788970270344 1 I I #
point $-1 -51.984300655551884 -7.3328062672345276 8.4916316945383983 #
loop $-1 $-1 $243 $235 #
plane-surface $-1 -62.024597918637653 0 0 1 0 0 0 0 -1 forward_v I I I I #
coedge $-1 $348 $238 $240 $352 reversed $146 $-1 #
coedge $-1 $238 $347 $424 $425 reversed $146 $-1 #
coedge $-1 $246 $241 $238 $350 forward $236 $-1 #
edge $-1 $353 -23.098389001804165 $426 -5.4448454423899477 $349 $427 forward 7 unknown #
coedge $-1 $240 $239 $356 $428 reversed $91 $-1 #
edge $-1 $429 3.5131498542109719e-014 $353 21.820980030345883 $347 $430 forward 7 unknown #
vertex $-1 $242 $431 #
straight-curve $-1 -44.371054359223436 11.20494941064873 14.02297901296909 0 1 0 I I #
coedge $-1 $424 $243 $246 $360 reversed $345 $-1 #
coedge $-1 $243 $424 $351 $428 forward $345 $-1 #
vertex $-1 $244 $432 #
straight-curve $-1 -62.024597918637653 19.332467050684951 50.77741774540528 0 0 1 I I #
straight-curve $-1 -62.024597918637681 19.332467050684951 1.1969285967022927 -0.80901698891910034 0 -0.5877852598018023 I I #
edge $-1 $426 -25.48733059190997 $247 -19.332467050684951 $355 $433 forward 7 unknown #
point $-1 -62.024597918637653 19.332467050684951 14.02297901296909 #
point $-1 -44.371054359223436 19.332467050684951 14.022979012969088 #
edge $-1 $434 1 $434 0 $250 $-1 forward 7 unknown #
vertex $-1 $251 $435 #
ellipse-curve $-1 -52.207495784289947 22.40989882129746 6.2468810360209943 -0.5877852598018023 0 0.80901698891910034 1.2135254833786506 0 0.88167788970270344 1 I I #
point $-1 -51.984300655551884 22.40989882129746 8.4916316945383983 #
plane-surface $-1 62.024597918637653 0 0 -1 0 0 0 0 1 forward_v I I I I #
coedge $-1 $259 $257 $261 $372 reversed $161 $-1 #
edge $-1 $272 -14.02297901296909 $374 14.02297901296909 $271 $436 forward 7 unknown #
vertex $-1 $372 $437 #
straight-curve $-1 -62.024597918637653 -36.552244353418885 0 0 0 -1 I I #
edge $-1 $370 -36.552244353418885 $374 36.552244353418885 $368 $438 forward 7 unknown #
straight-curve $-1 0 -36.552244353418885 -14.02297901296909 -1 0 0 I I #
vertex $-1 $264 $439 #
straight-curve $-1 0 36.552244353418885 -14.02297901296909 1 0 0 I I #
point $-1 62.024597918637653 36.552244353418885 -14.02297901296909 #
point $-1 62.024597918637653 -36.552244353418885 -14.02297901296909 #
straight-curve $-1 -62.024597918637653 0 14.02297901296909 0 -1 0 I I #
point $-1 -62.024597918637653 36.552244353418885 14.02297901296909 #
point $-1 -62.024597918637653 -36.552244353418885 14.02297901296909 #
straight-curve $-1 62.024597918637653 -36.552244353418885 0 0 0 -1 I I #
straight-curve $-1 62.024597918637653 36.552244353418885 0 0 0 -1 I I #
plane-surface $-1 62.024597918637653 0 0 -1 0 0 0 0 1 forward_v I I I I #
coedge $-1 $285 $284 $295 $395 reversed $108 $-1 #
coedge $-1 $440 $288 $285 $386 forward $282 $-1 #
edge $-1 $387 22.933165823645083 $441 36.552244353418885 $285 $442 forward 7 unknown #
vertex $-1 $386 $443 #
straight-curve $-1 -62.024597918637653 -22.933165823645083 5.7797980257790895 0 0 -1 I I #
coedge $-1 $288 $440 $290 $391 forward $282 $-1 #
straight-curve $-1 0 -22.933165823645083 14.02297901296909 -1 0 0 I I #
edge $-1 $398 -36.552244353418885 $291 -22.933165823645083 $290 $444 forward 7 unknown #
point $-1 62.024597918637653 -22.933165823645083 14.022979012969092 #
straight-curve $-1 -62.024597918637653 -14.871352544265992 9.0962130901472662 0 -1 0 I I #
coedge $-1 $295 $294 $440 $445 reversed $180 $-1 #
edge $-1 $441 -14.02297901296909 $296 -9.0962130901472662 $384 $446 forward 7 unknown #
point $-1 -62.024597918637653 -36.552244353418885 9.0962130901472662 #
point $-1 -62.024597918637653 -22.933165823645083 9.0962130901472662 #
vertex $-1 $391 $447 #
straight-curve $-1 62.024597918637653 -36.552244353418885 0 0 0 -1 I I #
coedge $-1 $304 $312 $305 $402 forward $197 $-1 #
edge $-1 $404 -13.787754601789894 $313 -4.503067841920485 $304 $448 forward 7 unknown #
edge $-1 $408 -8.2431809871900015 $404 -4.5508597246792055 $400 $449 forward 7 unknown #
edge $-1 $310 56.751416768611861 $408 62.024597918637653 $309 $450 forward 7 unknown #
vertex $-1 $307 $451 #
straight-curve $-1 -9.8812486908441066 -22.933165823645083 60.679674554808017 0.81915203911291934 0 -0.57357644374324357 I I #
point $-1 56.751416768611861 -22.933165823645083 14.02297901296909 #
point $-1 62.024597918637653 -13.648479063775675 10.3306577504583 #
vertex $-1 $316 $452 #
straight-curve $-1 62.024597918637653 0 14.02297901296909 0 1 0 I I #
vertex $-1 $319 $453 #
point $-1 57.509739007073122 -18.290822443710379 6.8792030925340502 #
coedge $-1 $334 $333 $326 $413 forward $323 $-1 #
edge $-1 $414 36.754438732436192 $417 49.580489148702966 $412 $454 forward 7 unknown #
vertex $-1 $338 $455 #
straight-curve $-1 -67.469443361027601 -4.2553744966220179 14.022979012969088 -1 0 0 I I #
edge $-1 $417 0.58897136300475417 $335 6.7438349042297734 $334 $456 forward 7 unknown #
vertex $-1 $416 $457 #
straight-curve $-1 -62.024597918637681 -4.2553744966220179 1.1969285967022927 0.80901698891910034 0 0.5877852598018023 I I #
point $-1 -44.371054359223436 -4.2553744966220179 14.022979012969088 #
point $-1 -62.024597918637653 -10.410238037847037 1.1969285967023133 #
straight-curve $-1 -62.024597918637653 0 14.02297901296909 0 -1 0 I I #
vertex $-1 $341 $458 #
point $-1 -50.9939703009113 -7.3328062672345276 7.1285589257236985 #
coedge $-1 $356 $355 $348 $425 forward $345 $-1 #
edge $-1 $426 36.754438732436192 $429 49.580489148702966 $424 $459 forward 7 unknown #
vertex $-1 $360 $460 #
straight-curve $-1 -67.469443361027601 25.48733059190997 14.022979012969088 -1 0 0 I I #
edge $-1 $429 -14.28238118126124 $357 -8.1275176400362206 $356 $461 forward 7 unknown #
vertex $-1 $428 $462 #
straight-curve $-1 -62.024597918637681 25.48733059190997 1.1969285967022927 0.80901698891910034 0 0.5877852598018023 I I #
point $-1 -44.371054359223436 25.48733059190997 14.022979012969088 #
point $-1 -62.024597918637653 19.332467050684951 1.1969285967023133 #
straight-curve $-1 -62.024597918637653 0 14.02297901296909 0 -1 0 I I #
vertex $-1 $363 $463 #
point $-1 -50.9939703009113 22.40989882129746 7.1285589257236985 #
straight-curve $-1 -62.024597918637653 36.552244353418885 0 0 0 -1 I I #
point $-1 -62.024597918637653 -36.552244353418885 -14.02297901296909 #
straight-curve $-1 -62.024597918637653 0 -14.02297901296909 0 1 0 I I #
point $-1 -62.024597918637653 36.552244353418885 -14.02297901296909 #
coedge $-1 $389 $385 $394 $445 forward $282 $-1 #
vertex $-1 $386 $464 #
straight-curve $-1 -62.024597918637653 0 14.02297901296909 0 -1 0 I I #
point $-1 -62.024597918637653 -22.933165823645083 14.022979012969092 #
straight-curve $-1 62.024597918637653 0 14.02297901296909 0 1 0 I I #
edge $-1 $441 -62.024597918637653 $398 62.024597918637653 $394 $465 forward 7 unknown #
straight-curve $-1 -62.024597918637653 -36.552244353418885 0 0 0 -1 I I #
point $-1 62.024597918637653 -36.552244353418885 14.02297901296909 #
straight-curve $-1 62.024597918637667 -9.1454112218551895 10.330657750458286 0 1 0 I I #
straight-curve $-1 62.024597918637653 -22.933165823645083 5.7797980257790895 0 0 -1 I I #
straight-curve $-1 0 -22.933165823645083 14.02297901296909 1 0 0 I I #
point $-1 62.024597918637653 -22.933165823645083 10.330657750458295 #
point $-1 62.024597918637653 -22.933165823645083 14.022979012969092 #
point $-1 55.42064628278888 -18.290822443710379 6.5108396994795363 #
straight-curve $-1 -62.024597918637653 -4.2553744966220179 50.77741774540528 0 0 -1 I I #
point $-1 -62.024597918637653 -4.2553744966220179 14.02297901296909 #
straight-curve $-1 -62.024597918637653 -3.6664031336172638 1.1969285967023151 0 -1 0 I I #
point $-1 -62.024597918637653 -4.2553744966220179 1.1969285967023133 #
point $-1 -51.325817894587246 -7.3328062672345276 5.0333555526423446 #
straight-curve $-1 -62.024597918637653 25.48733059190997 50.77741774540528 0 0 -1 I I #
point $-1 -62.024597918637653 25.48733059190997 14.02297901296909 #
straight-curve $-1 -62.024597918637653 11.20494941064873 1.1969285967023151 0 -1 0 I I #
point $-1 -62.024597918637653 25.48733059190997 1.1969285967023133 #
point $-1 -51.325817894587246 22.40989882129746 5.0333555526423446 #
point $-1 -62.024597918637653 -36.552244353418885 14.02297901296909 #
straight-curve $-1 0 -36.552244353418885 14.02297901296909 1 0 0 I I #
End-of-ACIS-data 