500 0 5 0           
7 Unknown 11 ACIS 5.0 NT 24 Fri Mar 26 15:48:58 1999 
-1 9.9999999999999995e-007 1e-010 
body $-1 $5 $-1 $6 #
body $-1 $7 $-1 $8 #
body $-1 $9 $-1 $10 #
body $-1 $11 $-1 $12 #
body $-1 $13 $-1 $14 #
lump $-1 $-1 $15 $0 #
transform $-1 1 0 0 0 1 0 0 0 1 40.416272469252604 22.94329917906942 10.644648928491621 1 rotate no_reflect no_shear #
lump $-1 $-1 $16 $1 #
transform $-1 1 0 0 0 1 0 0 0 1 40.416272469252604 22.94329917906942 10.644648928491621 1 rotate no_reflect no_shear #
lump $-1 $-1 $17 $2 #
transform $-1 1 0 0 0 1 0 0 0 1 40.416272469252604 22.94329917906942 10.644648928491621 1 rotate no_reflect no_shear #
lump $-1 $-1 $18 $3 #
transform $-1 1 0 0 0 1 0 0 0 1 40.416272469252604 22.94329917906942 10.644648928491621 1 rotate no_reflect no_shear #
lump $-1 $-1 $19 $4 #
transform $-1 1 0 0 0 1 0 0 0 1 40.416272469252604 22.94329917906942 10.644648928491621 1 rotate no_reflect no_shear #
shell $-1 $-1 $-1 $20 $-1 $5 #
shell $-1 $-1 $-1 $21 $-1 $7 #
shell $-1 $-1 $-1 $22 $-1 $9 #
shell $-1 $-1 $-1 $23 $-1 $11 #
shell $-1 $-1 $-1 $24 $-1 $13 #
face $-1 $25 $26 $15 $-1 $27 forward single #
face $-1 $28 $29 $16 $-1 $30 reversed single #
face $-1 $31 $32 $17 $-1 $33 reversed single #
face $-1 $34 $35 $18 $-1 $36 reversed single #
face $-1 $37 $38 $19 $-1 $39 forward single #
face $-1 $40 $41 $15 $-1 $42 reversed single #
loop $-1 $-1 $43 $20 #
plane-surface $-1 0 0 10.644648928491621 0 0 1 1 0 0 forward_v I I I I #
face $-1 $44 $45 $16 $-1 $46 reversed single #
loop $-1 $-1 $47 $21 #
plane-surface $-1 -34.866137509459627 -5.594213940076072 0 0 1 0 0 0 1 forward_v I I I I #
face $-1 $48 $49 $17 $-1 $50 reversed single #
loop $-1 $-1 $51 $22 #
plane-surface $-1 34.86613750945962 -5.594213940076072 0 0 1 0 0 0 1 forward_v I I I I #
face $-1 $52 $53 $18 $-1 $54 reversed single #
loop $-1 $-1 $55 $23 #
plane-surface $-1 8.2959077087938873 -81.089366581971376 61.377463577114909 -1 0 0 0 -0.71933980857756763 0.69465836192734942 forward_v I I I I #
face $-1 $56 $57 $19 $-1 $58 forward single #
loop $-1 $59 $60 $24 #
cone-surface $-1 4.9282392988013015 -19.068603496129995 6.7201833899058228 0 0.71933980857756763 -0.69465836192734942 1 0 0 1 I I 0 1 1 forward I I I I #
face $-1 $61 $62 $15 $-1 $63 reversed single #
loop $-1 $-1 $64 $25 #
plane-surface $-1 0 0 -10.644648928491621 0 0 1 1 0 0 forward_v I I I I #
coedge $-1 $65 $66 $67 $68 forward $26 $-1 #
face $-1 $69 $70 $16 $-1 $71 reversed single #
loop $-1 $-1 $72 $28 #
plane-surface $-1 -34.866137509459627 -1.6540013220861756 0 0 -1 0 0 0 -1 forward_v I I I I #
coedge $-1 $73 $74 $75 $76 reversed $29 $-1 #
face $-1 $77 $78 $17 $-1 $79 reversed single #
loop $-1 $-1 $80 $31 #
plane-surface $-1 29.316002549666642 -3.6241076310811238 0 1 0 0 0 0 -1 forward_v I I I I #
coedge $-1 $81 $82 $83 $84 forward $32 $-1 #
face $-1 $85 $86 $18 $-1 $87 reversed single #
loop $-1 $-1 $88 $34 #
plane-surface $-1 4.9282392988013015 -22.943299179069406 5.2264603197140218 0 -0.71933980857756763 0.69465836192734942 1 0 0 forward_v I I I I #
coedge $-1 $89 $90 $91 $92 reversed $35 $-1 #
face $-1 $-1 $93 $19 $-1 $94 forward single #
loop $-1 $95 $96 $37 #
cone-surface $-1 4.9282392988013015 -17.450379806449099 5.1574829747451503 0 0.71933980857756763 -0.69465836192734942 0.5 0 0 1 I I -0.70710678118654746 0.70710678118654746 0.5 forward I I I I #
loop $-1 $-1 $97 $24 #
coedge $-1 $60 $60 $98 $99 reversed $38 $-1 #
face $-1 $100 $101 $15 $-1 $102 reversed single #
loop $-1 $-1 $103 $40 #
plane-surface $-1 0 -22.94329917906942 0 0 1 0 0 0 1 forward_v I I I I #
coedge $-1 $104 $105 $106 $107 forward $41 $-1 #
coedge $-1 $108 $43 $109 $110 forward $26 $-1 #
coedge $-1 $43 $108 $111 $112 forward $26 $-1 #
coedge $-1 $113 $114 $43 $68 reversed $115 $-1 #
edge $-1 $116 -22.94329917906942 $117 22.94329917906942 $67 $118 forward 7 unknown #
face $-1 $119 $120 $16 $-1 $121 reversed single #
loop $-1 $-1 $122 $44 #
plane-surface $-1 -29.316002549666649 -3.6241076310811238 0 -1 0 0 0 0 1 forward_v I I I I #
coedge $-1 $123 $124 $125 $126 forward $45 $-1 #
coedge $-1 $127 $47 $128 $129 reversed $29 $-1 #
coedge $-1 $47 $127 $130 $131 reversed $29 $-1 #
coedge $-1 $132 $133 $47 $76 forward $134 $-1 #
edge $-1 $135 -10.644648928491621 $136 10.644648928491621 $75 $137 forward 7 unknown #
face $-1 $138 $139 $17 $-1 $140 reversed single #
loop $-1 $-1 $141 $48 #
plane-surface $-1 34.86613750945962 -1.6540013220861756 0 0 -1 0 0 0 -1 forward_v I I I I #
coedge $-1 $142 $143 $144 $145 forward $49 $-1 #
coedge $-1 $146 $51 $147 $148 reversed $32 $-1 #
coedge $-1 $51 $146 $149 $150 reversed $32 $-1 #
coedge $-1 $143 $142 $51 $84 reversed $49 $-1 #
edge $-1 $151 -10.644648928491621 $152 10.644648928491621 $83 $153 forward 7 unknown #
face $-1 $154 $155 $18 $-1 $156 forward single #
loop $-1 $-1 $157 $52 #
plane-surface $-1 1.5605708888087158 -81.089366581971376 61.377463577114909 1 0 0 0 0.71933980857756763 -0.69465836192734942 forward_v I I I I #
coedge $-1 $158 $159 $160 $161 reversed $53 $-1 #
coedge $-1 $90 $55 $162 $163 reversed $35 $-1 #
coedge $-1 $55 $89 $158 $164 reversed $35 $-1 #
coedge $-1 $160 $165 $55 $92 forward $155 $-1 #
edge $-1 $166 17.601384111916268 $167 22.833667907010899 $91 $168 forward 7 unknown #
loop $-1 $-1 $98 $56 #
plane-surface $-1 4.9282392988013015 -22.943299179069406 5.2264603197140218 0 -0.71933980857756763 0.69465836192734942 1 0 0 forward_v I I I I #
loop $-1 $-1 $169 $37 #
coedge $-1 $96 $96 $97 $170 reversed $57 $-1 #
coedge $-1 $97 $97 $96 $170 forward $59 $-1 #
coedge $-1 $98 $98 $60 $99 forward $93 $-1 #
edge $-1 $171 7.2658820753662974e-016 $171 6.2831853071796013 $98 $172 forward 7 unknown #
face $-1 $173 $174 $15 $-1 $175 reversed single #
loop $-1 $-1 $176 $61 #
plane-surface $-1 -40.416272469252604 0 0 1 0 0 0 0 -1 forward_v I I I I #
coedge $-1 $177 $111 $178 $179 forward $62 $-1 #
coedge $-1 $180 $64 $177 $181 forward $41 $-1 #
coedge $-1 $64 $180 $182 $183 forward $41 $-1 #
coedge $-1 $114 $113 $64 $107 reversed $115 $-1 #
edge $-1 $184 -22.94329917906942 $185 22.94329917906942 $106 $186 forward 7 unknown #
coedge $-1 $66 $65 $187 $188 forward $26 $-1 #
coedge $-1 $189 $190 $65 $110 reversed $174 $-1 #
edge $-1 $117 -40.416272469252604 $191 40.416272469252604 $109 $192 forward 7 unknown #
coedge $-1 $103 $193 $66 $112 reversed $62 $-1 #
edge $-1 $194 -40.416272469252604 $116 40.416272469252604 $111 $195 forward 7 unknown #
coedge $-1 $106 $67 $193 $196 forward $115 $-1 #
coedge $-1 $67 $106 $189 $197 reversed $115 $-1 #
loop $-1 $-1 $113 $173 #
vertex $-1 $68 $198 #
vertex $-1 $68 $199 #
straight-curve $-1 40.416272469252604 0 10.644648928491621 0 1 0 I I #
face $-1 $200 $201 $16 $-1 $202 forward single #
loop $-1 $-1 $203 $69 #
plane-surface $-1 0 0 -10.644648928491621 0 0 1 1 0 0 forward_v I I I I #
coedge $-1 $204 $205 $127 $206 forward $70 $-1 #
coedge $-1 $207 $72 $203 $208 reversed $45 $-1 #
coedge $-1 $72 $207 $209 $210 reversed $45 $-1 #
coedge $-1 $205 $204 $72 $126 reversed $70 $-1 #
edge $-1 $211 -10.644648928491621 $212 10.644648928491621 $125 $213 forward 7 unknown #
coedge $-1 $74 $73 $122 $206 reversed $29 $-1 #
coedge $-1 $214 $215 $73 $129 forward $120 $-1 #
edge $-1 $216 11.882933794936836 $135 22.983203714522791 $128 $217 forward 7 unknown #
coedge $-1 $218 $219 $74 $131 forward $201 $-1 #
edge $-1 $136 -22.983203714522791 $220 -11.882933794936836 $130 $221 forward 7 unknown #
coedge $-1 $222 $75 $219 $223 reversed $134 $-1 #
coedge $-1 $75 $222 $214 $224 reversed $134 $-1 #
loop $-1 $-1 $222 $200 #
vertex $-1 $224 $225 #
vertex $-1 $76 $226 #
straight-curve $-1 -40.416272469252604 -5.594213940076072 0 0 0 1 I I #
face $-1 $227 $228 $17 $-1 $229 forward single #
loop $-1 $-1 $147 $77 #
plane-surface $-1 0 0 -10.644648928491621 0 0 1 1 0 0 forward_v I I I I #
coedge $-1 $230 $231 $232 $233 reversed $78 $-1 #
coedge $-1 $83 $80 $234 $235 reversed $49 $-1 #
coedge $-1 $80 $83 $236 $237 reversed $49 $-1 #
coedge $-1 $231 $230 $80 $145 reversed $78 $-1 #
edge $-1 $238 -10.644648928491621 $239 10.644648928491621 $144 $240 forward 7 unknown #
coedge $-1 $82 $81 $241 $242 reversed $32 $-1 #
coedge $-1 $234 $243 $81 $148 forward $139 $-1 #
edge $-1 $244 -22.983203714522787 $152 -11.882933794936832 $147 $245 forward 7 unknown #
coedge $-1 $246 $236 $82 $150 forward $228 $-1 #
edge $-1 $151 11.882933794936832 $247 22.983203714522787 $149 $248 forward 7 unknown #
vertex $-1 $150 $249 #
vertex $-1 $148 $250 #
straight-curve $-1 29.316002549666642 -5.594213940076072 0 0 0 -1 I I #
face $-1 $-1 $251 $18 $-1 $252 reversed single #
loop $-1 $-1 $91 $85 #
plane-surface $-1 0 0 10.644648928491621 0 0 1 1 0 0 forward_v I I I I #
coedge $-1 $253 $254 $255 $256 reversed $86 $-1 #
coedge $-1 $257 $88 $90 $164 forward $53 $-1 #
coedge $-1 $88 $257 $253 $258 forward $53 $-1 #
coedge $-1 $255 $91 $88 $161 forward $155 $-1 #
edge $-1 $167 -5.8317880593932365 $259 0.90354876059193501 $160 $260 forward 7 unknown #
coedge $-1 $261 $262 $89 $163 forward $251 $-1 #
edge $-1 $263 -25.462271468843447 $166 -20.044082860065835 $162 $264 forward 7 unknown #
edge $-1 $167 -7.5321684469146781 $263 2.0733024663016622e-014 $90 $265 forward 7 unknown #
coedge $-1 $91 $255 $261 $266 forward $155 $-1 #
vertex $-1 $92 $267 #
vertex $-1 $92 $268 #
straight-curve $-1 8.2959077087938873 -40.544683290985688 10.64464892849162 0 1 0 I I #
coedge $-1 $169 $169 $-1 $269 reversed $95 $-1 #
edge $-1 $270 0 $270 6.2831853071796004 $96 $271 forward 7 unknown #
vertex $-1 $99 $272 #
ellipse-curve $-1 4.9282392988013015 -20.327157281522105 7.9355546241028154 0 -0.71933980857756763 0.69465836192734942 1 0 0 1 I I #
face $-1 $-1 $115 $15 $-1 $273 reversed single #
loop $-1 $-1 $189 $100 #
plane-surface $-1 0 22.94329917906942 0 0 -1 0 0 0 -1 forward_v I I I I #
coedge $-1 $274 $187 $190 $275 forward $101 $-1 #
coedge $-1 $193 $103 $104 $181 reversed $62 $-1 #
coedge $-1 $187 $274 $103 $179 reversed $101 $-1 #
edge $-1 $194 -10.644648928491621 $276 10.644648928491621 $178 $277 forward 7 unknown #
coedge $-1 $105 $104 $274 $278 forward $41 $-1 #
edge $-1 $185 -40.416272469252604 $276 40.416272469252604 $177 $279 forward 7 unknown #
coedge $-1 $190 $189 $105 $183 reversed $174 $-1 #
edge $-1 $280 -40.416272469252604 $184 40.416272469252604 $182 $281 forward 7 unknown #
vertex $-1 $107 $282 #
vertex $-1 $196 $283 #
straight-curve $-1 40.416272469252604 0 -10.644648928491621 0 -1 0 I I #
coedge $-1 $176 $178 $108 $188 reversed $101 $-1 #
edge $-1 $191 -22.94329917906942 $194 22.94329917906942 $187 $284 forward 7 unknown #
coedge $-1 $182 $109 $114 $197 forward $174 $-1 #
coedge $-1 $109 $182 $176 $275 reversed $174 $-1 #
vertex $-1 $110 $285 #
straight-curve $-1 0 22.94329917906942 10.644648928491621 -1 0 0 I I #
coedge $-1 $111 $177 $113 $196 reversed $62 $-1 #
vertex $-1 $188 $286 #
straight-curve $-1 0 -22.94329917906942 10.644648928491621 1 0 0 I I #
edge $-1 $116 -10.644648928491621 $185 10.644648928491621 $113 $287 forward 7 unknown #
edge $-1 $117 -10.644648928491621 $184 10.644648928491621 $114 $288 forward 7 unknown #
point $-1 40.416272469252604 -22.94329917906942 10.644648928491621 #
point $-1 40.416272469252604 22.94329917906942 10.644648928491621 #
face $-1 $-1 $134 $16 $-1 $289 reversed single #
loop $-1 $-1 $209 $119 #
plane-surface $-1 0 0 10.644648928491621 0 0 1 1 0 0 forward_v I I I I #
coedge $-1 $215 $214 $123 $208 forward $120 $-1 #
coedge $-1 $125 $122 $215 $290 reversed $70 $-1 #
coedge $-1 $122 $125 $218 $291 reversed $70 $-1 #
edge $-1 $220 -10.644648928491621 $216 10.644648928491621 $122 $292 forward 7 unknown #
coedge $-1 $124 $123 $222 $293 reversed $45 $-1 #
edge $-1 $294 -22.983203714522791 $212 -11.882933794936836 $203 $295 forward 7 unknown #
coedge $-1 $219 $218 $124 $210 forward $201 $-1 #
edge $-1 $211 11.882933794936836 $296 22.983203714522791 $209 $297 forward 7 unknown #
vertex $-1 $210 $298 #
vertex $-1 $208 $299 #
straight-curve $-1 -29.316002549666649 -1.6540013220861756 0 0 0 -1 I I #
coedge $-1 $203 $128 $133 $224 forward $120 $-1 #
coedge $-1 $128 $203 $204 $290 forward $120 $-1 #
vertex $-1 $129 $300 #
straight-curve $-1 -17.433068754729813 -5.594213940076072 -10.644648928491621 -1 0 0 I I #
coedge $-1 $209 $130 $205 $291 forward $201 $-1 #
coedge $-1 $130 $209 $132 $223 forward $201 $-1 #
vertex $-1 $131 $301 #
straight-curve $-1 -17.433068754729813 -5.594213940076072 10.644648928491621 1 0 0 I I #
coedge $-1 $133 $132 $207 $293 forward $134 $-1 #
edge $-1 $296 1.6540013220861756 $136 5.594213940076072 $132 $302 forward 7 unknown #
edge $-1 $135 -5.594213940076072 $294 -1.6540013220861756 $133 $303 forward 7 unknown #
point $-1 -40.416272469252604 -5.594213940076072 -10.644648928491621 #
point $-1 -40.416272469252604 -5.594213940076072 10.644648928491621 #
face $-1 $-1 $304 $17 $-1 $305 reversed single #
loop $-1 $-1 $149 $138 #
plane-surface $-1 0 0 10.644648928491621 0 0 1 1 0 0 forward_v I I I I #
coedge $-1 $144 $141 $306 $307 reversed $78 $-1 #
coedge $-1 $141 $144 $308 $309 reversed $78 $-1 #
coedge $-1 $310 $311 $141 $233 forward $304 $-1 #
edge $-1 $312 -10.644648928491621 $313 10.644648928491621 $232 $314 forward 7 unknown #
coedge $-1 $306 $147 $142 $235 forward $139 $-1 #
edge $-1 $152 -3.7821601245355101 $239 0.15805249345438632 $234 $315 forward 7 unknown #
coedge $-1 $149 $308 $143 $237 forward $228 $-1 #
edge $-1 $238 -0.15805249345438632 $151 3.7821601245355101 $236 $316 forward 7 unknown #
vertex $-1 $237 $317 #
vertex $-1 $235 $318 #
straight-curve $-1 29.316002549666642 -1.6540013220861756 0 0 0 -1 I I #
coedge $-1 $311 $310 $146 $242 forward $304 $-1 #
edge $-1 $247 -10.644648928491621 $244 10.644648928491621 $241 $319 forward 7 unknown #
coedge $-1 $147 $306 $311 $320 forward $139 $-1 #
vertex $-1 $242 $321 #
straight-curve $-1 17.43306875472981 -5.594213940076072 -10.644648928491621 -1 0 0 I I #
coedge $-1 $308 $149 $310 $322 forward $228 $-1 #
vertex $-1 $322 $323 #
straight-curve $-1 17.43306875472981 -5.594213940076072 10.644648928491621 1 0 0 I I #
point $-1 29.316002549666642 -5.594213940076072 10.644648928491621 #
point $-1 29.316002549666642 -5.594213940076072 -10.644648928491621 #
loop $-1 $-1 $162 $154 #
plane-surface $-1 0 -22.94329917906942 0 0 1 0 0 0 1 forward_v I I I I #
coedge $-1 $254 $157 $159 $258 reversed $86 $-1 #
coedge $-1 $157 $253 $324 $325 reversed $86 $-1 #
coedge $-1 $165 $160 $157 $256 forward $155 $-1 #
edge $-1 $259 -22.833667907010899 $326 -17.601384111916268 $255 $327 forward 7 unknown #
coedge $-1 $159 $158 $262 $328 reversed $53 $-1 #
edge $-1 $329 -2.0733024663016622e-014 $259 7.5321684469146781 $253 $330 forward 7 unknown #
vertex $-1 $161 $331 #
straight-curve $-1 2.4641196494006508 -17.711015383974789 10.644648928491621 -1 0 0 I I #
coedge $-1 $324 $162 $165 $266 reversed $251 $-1 #
coedge $-1 $162 $324 $257 $328 forward $251 $-1 #
vertex $-1 $163 $332 #
straight-curve $-1 8.2959077087938873 -22.94329917906942 30.688731788557455 0 0 1 I I #
straight-curve $-1 8.2959077087938873 -22.943299179069406 5.2264603197140218 0 -0.69465836192734942 -0.71933980857756763 I I #
edge $-1 $326 1.5605708888087158 $166 8.2959077087938873 $261 $333 forward 7 unknown #
point $-1 8.2959077087938873 -22.94329917906942 10.644648928491621 #
point $-1 8.2959077087938873 -17.711015383974789 10.644648928491621 #
edge $-1 $334 1 $334 0 $169 $-1 forward 7 unknown #
vertex $-1 $170 $335 #
ellipse-curve $-1 4.9282392988013015 -17.810049710737882 5.5048121557088248 0 -0.71933980857756763 0.69465836192734942 1 0 0 1 I I #
point $-1 5.9282392988013015 -20.327157281522108 7.9355546241028199 #
plane-surface $-1 40.416272469252604 0 0 -1 0 0 0 0 1 forward_v I I I I #
coedge $-1 $178 $176 $180 $278 reversed $101 $-1 #
edge $-1 $191 -10.644648928491621 $280 10.644648928491621 $190 $336 forward 7 unknown #
vertex $-1 $278 $337 #
straight-curve $-1 -40.416272469252604 -22.94329917906942 0 0 0 -1 I I #
edge $-1 $276 -22.94329917906942 $280 22.94329917906942 $274 $338 forward 7 unknown #
straight-curve $-1 0 -22.94329917906942 -10.644648928491621 -1 0 0 I I #
vertex $-1 $183 $339 #
straight-curve $-1 0 22.94329917906942 -10.644648928491621 1 0 0 I I #
point $-1 40.416272469252604 22.94329917906942 -10.644648928491621 #
point $-1 40.416272469252604 -22.94329917906942 -10.644648928491621 #
straight-curve $-1 -40.416272469252604 0 10.644648928491621 0 -1 0 I I #
point $-1 -40.416272469252604 22.94329917906942 10.644648928491621 #
point $-1 -40.416272469252604 -22.94329917906942 10.644648928491621 #
straight-curve $-1 40.416272469252604 -22.94329917906942 0 0 0 -1 I I #
straight-curve $-1 40.416272469252604 22.94329917906942 0 0 0 -1 I I #
plane-surface $-1 -40.416272469252604 0 0 1 0 0 0 0 -1 forward_v I I I I #
edge $-1 $212 -0.15805249345438632 $216 3.7821601245355101 $215 $340 forward 7 unknown #
edge $-1 $220 -3.7821601245355101 $211 0.15805249345438632 $218 $341 forward 7 unknown #
straight-curve $-1 -29.316002549666649 -5.594213940076072 0 0 0 -1 I I #
edge $-1 $296 -10.644648928491621 $294 10.644648928491621 $222 $342 forward 7 unknown #
vertex $-1 $293 $343 #
straight-curve $-1 -17.433068754729813 -1.6540013220861756 -10.644648928491621 1 0 0 I I #
vertex $-1 $223 $344 #
straight-curve $-1 -17.433068754729813 -1.6540013220861756 10.644648928491621 -1 0 0 I I #
point $-1 -29.316002549666649 -1.6540013220861756 10.644648928491621 #
point $-1 -29.316002549666649 -1.6540013220861756 -10.644648928491621 #
point $-1 -29.316002549666649 -5.594213940076072 -10.644648928491621 #
point $-1 -29.316002549666649 -5.594213940076072 10.644648928491621 #
straight-curve $-1 -40.416272469252604 0 10.644648928491621 0 -1 0 I I #
straight-curve $-1 -40.416272469252604 0 -10.644648928491621 0 1 0 I I #
loop $-1 $-1 $241 $227 #
plane-surface $-1 40.416272469252604 0 0 -1 0 0 0 0 1 forward_v I I I I #
coedge $-1 $243 $234 $230 $307 forward $139 $-1 #
edge $-1 $239 11.882933794936832 $312 22.983203714522787 $306 $345 forward 7 unknown #
coedge $-1 $236 $246 $231 $309 forward $228 $-1 #
edge $-1 $313 -22.983203714522787 $238 -11.882933794936832 $308 $346 forward 7 unknown #
coedge $-1 $241 $232 $246 $322 reversed $304 $-1 #
coedge $-1 $232 $241 $243 $320 reversed $304 $-1 #
vertex $-1 $320 $347 #
vertex $-1 $233 $348 #
straight-curve $-1 40.416272469252604 -1.6540013220861756 0 0 0 1 I I #
straight-curve $-1 29.316002549666642 -1.8120538155405619 -10.644648928491621 0 1 0 I I #
straight-curve $-1 29.316002549666642 -1.8120538155405619 10.644648928491621 0 -1 0 I I #
point $-1 29.316002549666642 -1.6540013220861756 10.644648928491621 #
point $-1 29.316002549666642 -1.6540013220861756 -10.644648928491621 #
straight-curve $-1 40.416272469252604 -5.594213940076072 0 0 0 -1 I I #
edge $-1 $312 1.6540013220861756 $244 5.594213940076072 $311 $349 forward 7 unknown #
point $-1 40.416272469252597 -5.594213940076072 -10.644648928491621 #
edge $-1 $247 -5.594213940076072 $313 -1.6540013220861756 $310 $350 forward 7 unknown #
point $-1 40.416272469252597 -5.594213940076072 10.644648928491621 #
coedge $-1 $262 $261 $254 $325 forward $251 $-1 #
edge $-1 $326 20.044082860065835 $329 25.462271468843447 $324 $351 forward 7 unknown #
vertex $-1 $266 $352 #
straight-curve $-1 1.5605708888087158 -40.544683290985688 10.64464892849162 0 -1 0 I I #
edge $-1 $329 -0.90354876059193501 $263 5.8317880593932365 $262 $353 forward 7 unknown #
vertex $-1 $328 $354 #
straight-curve $-1 1.5605708888087158 -22.943299179069406 5.2264603197140218 0 0.69465836192734942 0.71933980857756763 I I #
point $-1 1.5605708888087158 -17.711015383974789 10.644648928491621 #
point $-1 8.2959077087938873 -22.94329917906942 5.2264603197140067 #
straight-curve $-1 0 -22.94329917906942 10.644648928491621 1 0 0 I I #
vertex $-1 $269 $355 #
point $-1 5.9282392988013015 -17.810049710737882 5.5048121557088248 #
straight-curve $-1 -40.416272469252604 22.94329917906942 0 0 0 -1 I I #
point $-1 -40.416272469252604 -22.94329917906942 -10.644648928491621 #
straight-curve $-1 -40.416272469252604 0 -10.644648928491621 0 1 0 I I #
point $-1 -40.416272469252604 22.94329917906942 -10.644648928491621 #
straight-curve $-1 -29.316002549666649 -1.8120538155405619 -10.644648928491621 0 -1 0 I I #
straight-curve $-1 -29.316002549666649 -1.8120538155405619 10.644648928491621 0 1 0 I I #
straight-curve $-1 -40.416272469252604 -1.6540013220861756 0 0 0 -1 I I #
point $-1 -40.416272469252604 -1.6540013220861756 -10.644648928491621 #
point $-1 -40.416272469252604 -1.6540013220861756 10.644648928491621 #
straight-curve $-1 17.43306875472981 -1.6540013220861756 -10.644648928491621 1 0 0 I I #
straight-curve $-1 17.43306875472981 -1.6540013220861756 10.644648928491621 -1 0 0 I I #
point $-1 40.416272469252597 -1.6540013220861756 -10.644648928491621 #
point $-1 40.416272469252597 -1.6540013220861756 10.644648928491621 #
straight-curve $-1 40.416272469252604 0 -10.644648928491621 0 -1 0 I I #
straight-curve $-1 40.416272469252604 0 10.644648928491621 0 1 0 I I #
straight-curve $-1 1.5605708888087158 -22.94329917906942 30.688731788557455 0 0 -1 I I #
point $-1 1.5605708888087158 -22.94329917906942 10.644648928491621 #
straight-curve $-1 2.4641196494006508 -22.94329917906942 5.2264603197140067 1 0 0 I I #
point $-1 1.5605708888087158 -22.94329917906942 5.2264603197140067 #
point $-1 4.9282392988013015 -17.090709902160317 4.8101537937814758 #
End-of-ACIS-data 