500 0 10 0           
7 Unknown 11 ACIS 5.0 NT 24 Fri Mar 26 02:42:24 1999 
-1 9.9999999999999995e-007 1e-010 
body $-1 $10 $-1 $11 #
body $-1 $12 $-1 $13 #
body $-1 $14 $-1 $15 #
body $-1 $16 $-1 $17 #
body $-1 $18 $-1 $19 #
body $-1 $20 $-1 $21 #
body $-1 $22 $-1 $23 #
body $-1 $24 $-1 $25 #
body $-1 $26 $-1 $27 #
body $-1 $28 $-1 $29 #
lump $-1 $-1 $30 $0 #
transform $-1 1 0 0 0 1 0 0 0 1 52.04748680074465 30.865540002625501 11.435236548047509 1 rotate no_reflect no_shear #
lump $-1 $-1 $31 $1 #
transform $-1 1 0 0 0 1 0 0 0 1 52.04748680074465 30.865540002625501 11.435236548047509 1 rotate no_reflect no_shear #
lump $-1 $-1 $32 $2 #
transform $-1 1 0 0 0 1 0 0 0 1 52.04748680074465 30.865540002625501 11.435236548047509 1 rotate no_reflect no_shear #
lump $-1 $-1 $33 $3 #
transform $-1 1 0 0 0 1 0 0 0 1 52.04748680074465 30.865540002625501 11.435236548047509 1 rotate no_reflect no_shear #
lump $-1 $-1 $34 $4 #
transform $-1 1 0 0 0 1 0 0 0 1 52.04748680074465 30.865540002625501 11.435236548047509 1 rotate no_reflect no_shear #
lump $-1 $-1 $35 $5 #
transform $-1 1 0 0 0 1 0 0 0 1 52.04748680074465 30.865540002625501 11.435236548047509 1 rotate no_reflect no_shear #
lump $-1 $-1 $36 $6 #
transform $-1 1 0 0 0 1 0 0 0 1 52.04748680074465 30.865540002625501 11.435236548047509 1 rotate no_reflect no_shear #
lump $-1 $-1 $37 $7 #
transform $-1 1 0 0 0 1 0 0 0 1 52.04748680074465 30.865540002625501 11.435236548047509 1 rotate no_reflect no_shear #
lump $-1 $-1 $38 $8 #
transform $-1 1 0 0 0 1 0 0 0 1 52.04748680074465 30.865540002625501 11.435236548047509 1 rotate no_reflect no_shear #
lump $-1 $-1 $39 $9 #
transform $-1 1 0 0 0 1 0 0 0 1 52.04748680074465 30.865540002625501 11.435236548047509 1 rotate no_reflect no_shear #
shell $-1 $-1 $-1 $40 $-1 $10 #
shell $-1 $-1 $-1 $41 $-1 $12 #
shell $-1 $-1 $-1 $42 $-1 $14 #
shell $-1 $-1 $-1 $43 $-1 $16 #
shell $-1 $-1 $-1 $44 $-1 $18 #
shell $-1 $-1 $-1 $45 $-1 $20 #
shell $-1 $-1 $-1 $46 $-1 $22 #
shell $-1 $-1 $-1 $47 $-1 $24 #
shell $-1 $-1 $-1 $48 $-1 $26 #
shell $-1 $-1 $-1 $49 $-1 $28 #
face $-1 $50 $51 $30 $-1 $52 forward single #
face $-1 $53 $54 $31 $-1 $55 reversed single #
face $-1 $56 $57 $32 $-1 $58 reversed single #
face $-1 $59 $60 $33 $-1 $61 forward single #
face $-1 $62 $63 $34 $-1 $64 reversed single #
face $-1 $65 $66 $35 $-1 $67 forward single #
face $-1 $68 $69 $36 $-1 $70 forward single #
face $-1 $71 $72 $37 $-1 $73 reversed single #
face $-1 $74 $75 $38 $-1 $76 forward single #
face $-1 $77 $78 $39 $-1 $79 forward single #
face $-1 $80 $81 $30 $-1 $82 reversed single #
loop $-1 $-1 $83 $40 #
plane-surface $-1 0 0 11.435236548047509 0 0 1 1 0 0 forward_v I I I I #
face $-1 $84 $85 $31 $-1 $86 reversed single #
loop $-1 $-1 $87 $41 #
plane-surface $-1 -47.335029553448486 -24.097507638634148 0 0 -1 0 0 0 -1 forward_v I I I I #
face $-1 $88 $89 $32 $-1 $90 reversed single #
loop $-1 $-1 $91 $42 #
plane-surface $-1 -18.705266971327603 -94.95280582779003 84.462996343742191 -1 0 0 0 -0.61566148304635926 0.78801074757464917 forward_v I I I I #
face $-1 $92 $93 $33 $-1 $94 forward single #
loop $-1 $95 $96 $43 #
cone-surface $-1 -28.876223805244798 -23.322198560743828 4.6523905474530398 0 0.61566148304635926 -0.78801074757464917 2 0 0 1 I I 0 1 2 forward I I I I #
face $-1 $97 $98 $34 $-1 $99 reversed single #
loop $-1 $-1 $100 $44 #
plane-surface $-1 -27.461383542595243 60.821337802468172 118.31167826422113 1 0 0 0 -0.70710678939079041 -0.70710677298230451 forward_v I I I I #
face $-1 $101 $102 $35 $-1 $103 forward single #
loop $-1 $104 $105 $45 #
cone-surface $-1 -22.530817253841832 24.305034320338571 4.8747307771222053 0 -0.70710678939079041 -0.70710677298230451 2 0 0 1 I I 0 1 2 forward I I I I #
face $-1 $106 $107 $36 $-1 $108 forward single #
loop $-1 $109 $110 $46 #
cone-surface $-1 -15.134967820711722 24.305034320338571 4.8747307771222053 0 -0.70710678939079041 -0.70710677298230451 2 0 0 1 I I 0 1 2 forward I I I I #
face $-1 $111 $112 $37 $-1 $113 reversed single #
loop $-1 $-1 $114 $47 #
plane-surface $-1 19.62931602655064 60.821337802468172 118.31167826422113 1 0 0 0 -0.70710678939079041 -0.70710677298230451 forward_v I I I I #
face $-1 $115 $116 $38 $-1 $117 forward single #
loop $-1 $118 $119 $48 #
cone-surface $-1 24.559882315304051 24.305034320338571 4.8747307771222053 0 -0.70710678939079041 -0.70710677298230451 2 0 0 1 I I 0 1 2 forward I I I I #
face $-1 $120 $121 $39 $-1 $122 forward single #
loop $-1 $123 $124 $49 #
cone-surface $-1 31.955731748434161 24.305034320338571 4.8747307771222053 0 -0.70710678939079041 -0.70710677298230451 2 0 0 1 I I 0 1 2 forward I I I I #
face $-1 $125 $126 $30 $-1 $127 reversed single #
loop $-1 $-1 $128 $50 #
plane-surface $-1 0 0 -11.435236548047509 0 0 1 1 0 0 forward_v I I I I #
coedge $-1 $129 $130 $131 $132 forward $51 $-1 #
face $-1 $133 $134 $31 $-1 $135 forward single #
loop $-1 $-1 $136 $53 #
plane-surface $-1 -42.622572306152321 -27.481523820629825 0 -1 0 0 0 0 1 forward_v I I I I #
coedge $-1 $137 $138 $139 $140 forward $54 $-1 #
face $-1 $141 $142 $32 $-1 $143 reversed single #
loop $-1 $-1 $144 $56 #
plane-surface $-1 -28.876223805244798 -30.865540002625508 2.4350383772692368 0 -0.61566148304635926 0.78801074757464917 1 0 0 forward_v I I I I #
coedge $-1 $145 $146 $147 $148 reversed $57 $-1 #
face $-1 $-1 $149 $33 $-1 $150 forward single #
loop $-1 $151 $152 $59 #
cone-surface $-1 -28.876223805244798 -20.923059687877117 1.5816328846730539 0 0.61566148304635926 -0.78801074757464917 1 0 0 1 I I -0.70710678118654746 0.70710678118654746 1 forward I I I I #
loop $-1 $-1 $153 $43 #
coedge $-1 $96 $96 $154 $155 reversed $60 $-1 #
face $-1 $156 $157 $34 $-1 $158 reversed single #
loop $-1 $-1 $159 $62 #
plane-surface $-1 -18.832892537276777 -12.784924772600014 44.705417397193855 0 0.70710678939079041 0.70710677298230451 1 0 0 forward_v I I I I #
coedge $-1 $160 $161 $162 $163 reversed $63 $-1 #
face $-1 $-1 $164 $35 $-1 $165 forward single #
loop $-1 $166 $167 $65 #
cone-surface $-1 -22.530817253841832 22.22756419771941 2.797260702710954 0 -0.70710678939079041 -0.70710677298230451 1 0 0 1 I I -0.70710678118654746 0.70710678118654746 1 forward I I I I #
loop $-1 $-1 $168 $45 #
coedge $-1 $105 $105 $169 $170 reversed $66 $-1 #
face $-1 $-1 $171 $36 $-1 $172 forward single #
loop $-1 $173 $174 $68 #
cone-surface $-1 -15.134967820711722 22.22756419771941 2.797260702710954 0 -0.70710678939079041 -0.70710677298230451 1 0 0 1 I I -0.70710678118654746 0.70710678118654746 1 forward I I I I #
loop $-1 $-1 $175 $46 #
coedge $-1 $110 $110 $176 $177 reversed $69 $-1 #
face $-1 $178 $179 $37 $-1 $180 reversed single #
loop $-1 $-1 $181 $71 #
plane-surface $-1 28.257807031869106 -12.784924772600014 44.705417397193855 0 0.70710678939079041 0.70710677298230451 1 0 0 forward_v I I I I #
coedge $-1 $182 $183 $184 $185 reversed $72 $-1 #
face $-1 $-1 $186 $38 $-1 $187 forward single #
loop $-1 $188 $189 $74 #
cone-surface $-1 24.559882315304051 22.22756419771941 2.797260702710954 0 -0.70710678939079041 -0.70710677298230451 1 0 0 1 I I -0.70710678118654746 0.70710678118654746 1 forward I I I I #
loop $-1 $-1 $190 $48 #
coedge $-1 $119 $119 $191 $192 reversed $75 $-1 #
face $-1 $-1 $193 $39 $-1 $194 forward single #
loop $-1 $195 $196 $77 #
cone-surface $-1 31.955731748434161 22.22756419771941 2.797260702710954 0 -0.70710678939079041 -0.70710677298230451 1 0 0 1 I I -0.70710678118654746 0.70710678118654746 1 forward I I I I #
loop $-1 $-1 $197 $49 #
coedge $-1 $124 $124 $198 $199 reversed $78 $-1 #
face $-1 $200 $201 $30 $-1 $202 reversed single #
loop $-1 $-1 $203 $80 #
plane-surface $-1 0 -30.865540002625501 0 0 1 0 0 0 1 forward_v I I I I #
coedge $-1 $204 $205 $206 $207 forward $81 $-1 #
coedge $-1 $208 $83 $209 $210 forward $51 $-1 #
coedge $-1 $83 $208 $211 $212 forward $51 $-1 #
coedge $-1 $213 $214 $83 $132 reversed $215 $-1 #
edge $-1 $216 -30.865540002625501 $217 30.865540002625501 $131 $218 forward 7 unknown #
face $-1 $219 $220 $31 $-1 $221 reversed single #
loop $-1 $-1 $222 $84 #
plane-surface $-1 0 0 11.435236548047509 0 0 1 1 0 0 forward_v I I I I #
coedge $-1 $223 $224 $225 $226 reversed $85 $-1 #
coedge $-1 $227 $87 $228 $229 reversed $54 $-1 #
coedge $-1 $87 $227 $230 $231 reversed $54 $-1 #
coedge $-1 $224 $223 $87 $140 reversed $85 $-1 #
edge $-1 $232 -11.435236548047509 $233 11.435236548047509 $139 $234 forward 7 unknown #
face $-1 $235 $236 $32 $-1 $237 forward single #
loop $-1 $-1 $238 $88 #
plane-surface $-1 -39.047180639161994 -94.95280582779003 84.462996343742191 1 0 0 0 0.61566148304635926 -0.78801074757464917 forward_v I I I I #
coedge $-1 $239 $240 $241 $242 reversed $89 $-1 #
coedge $-1 $146 $91 $243 $244 reversed $57 $-1 #
coedge $-1 $91 $145 $239 $245 reversed $57 $-1 #
coedge $-1 $241 $246 $91 $148 forward $236 $-1 #
edge $-1 $247 16.610862911269514 $248 28.130591015392159 $147 $249 forward 7 unknown #
loop $-1 $-1 $154 $92 #
plane-surface $-1 -28.876223805244798 -30.865540002625508 2.4350383772692368 0 -0.61566148304635926 0.78801074757464917 1 0 0 forward_v I I I I #
loop $-1 $-1 $250 $59 #
coedge $-1 $152 $152 $153 $251 reversed $93 $-1 #
coedge $-1 $153 $153 $152 $251 forward $95 $-1 #
coedge $-1 $154 $154 $96 $155 forward $149 $-1 #
edge $-1 $252 5.4681724308235081e-016 $252 6.2831853071796013 $154 $253 forward 7 unknown #
face $-1 $254 $255 $34 $-1 $256 reversed single #
loop $-1 $-1 $257 $97 #
plane-surface $-1 -10.204401531958313 60.821337802468172 118.31167826422113 -1 0 0 0 0.70710678939079041 0.70710677298230451 forward_v I I I I #
coedge $-1 $258 $259 $260 $261 reversed $98 $-1 #
coedge $-1 $161 $100 $262 $263 reversed $63 $-1 #
coedge $-1 $100 $160 $258 $264 reversed $63 $-1 #
coedge $-1 $260 $265 $100 $163 forward $266 $-1 #
edge $-1 $267 -0.45487110139141507 $268 9.9254135967257291 $162 $269 forward 7 unknown #
loop $-1 $-1 $169 $101 #
plane-surface $-1 -18.832892537276777 -12.784924772600014 44.705417397193855 0 0.70710678939079041 0.70710677298230451 1 0 0 forward_v I I I I #
loop $-1 $-1 $270 $65 #
coedge $-1 $167 $167 $168 $271 reversed $102 $-1 #
coedge $-1 $168 $168 $167 $271 forward $104 $-1 #
coedge $-1 $169 $169 $105 $170 forward $164 $-1 #
edge $-1 $272 3.1401843708551829e-016 $272 6.2831853071796004 $169 $273 forward 7 unknown #
loop $-1 $-1 $176 $106 #
plane-surface $-1 -18.832892537276777 -12.784924772600014 44.705417397193855 0 0.70710678939079041 0.70710677298230451 1 0 0 forward_v I I I I #
loop $-1 $-1 $274 $68 #
coedge $-1 $174 $174 $175 $275 reversed $107 $-1 #
coedge $-1 $175 $175 $174 $275 forward $109 $-1 #
coedge $-1 $176 $176 $110 $177 forward $171 $-1 #
edge $-1 $276 3.1401843708551829e-016 $276 6.2831853071796004 $176 $277 forward 7 unknown #
face $-1 $278 $279 $37 $-1 $280 forward single #
loop $-1 $-1 $281 $111 #
plane-surface $-1 36.886298037187572 60.821337802468172 118.31167826422113 -1 0 0 0 0.70710678939079041 0.70710677298230451 forward_v I I I I #
coedge $-1 $282 $283 $284 $285 reversed $112 $-1 #
coedge $-1 $183 $114 $286 $287 reversed $72 $-1 #
coedge $-1 $114 $182 $282 $288 reversed $72 $-1 #
coedge $-1 $284 $289 $114 $185 forward $279 $-1 #
edge $-1 $290 -0.45487110139141507 $291 9.9254135967257291 $184 $292 forward 7 unknown #
loop $-1 $-1 $191 $115 #
plane-surface $-1 28.257807031869106 -12.784924772600014 44.705417397193855 0 0.70710678939079041 0.70710677298230451 1 0 0 forward_v I I I I #
loop $-1 $-1 $293 $74 #
coedge $-1 $189 $189 $190 $294 reversed $116 $-1 #
coedge $-1 $190 $190 $189 $294 forward $118 $-1 #
coedge $-1 $191 $191 $119 $192 forward $186 $-1 #
edge $-1 $295 3.1401843708551829e-016 $295 6.2831853071796004 $191 $296 forward 7 unknown #
loop $-1 $-1 $198 $120 #
plane-surface $-1 28.257807031869106 -12.784924772600014 44.705417397193855 0 0.70710678939079041 0.70710677298230451 1 0 0 forward_v I I I I #
loop $-1 $-1 $297 $77 #
coedge $-1 $196 $196 $197 $298 reversed $121 $-1 #
coedge $-1 $197 $197 $196 $298 forward $123 $-1 #
coedge $-1 $198 $198 $124 $199 forward $193 $-1 #
edge $-1 $299 3.1401843708551829e-016 $299 6.2831853071796004 $198 $300 forward 7 unknown #
face $-1 $301 $302 $30 $-1 $303 reversed single #
loop $-1 $-1 $304 $125 #
plane-surface $-1 -52.04748680074465 0 0 1 0 0 0 0 -1 forward_v I I I I #
coedge $-1 $305 $211 $306 $307 forward $126 $-1 #
coedge $-1 $308 $128 $305 $309 forward $81 $-1 #
coedge $-1 $128 $308 $310 $311 forward $81 $-1 #
coedge $-1 $214 $213 $128 $207 reversed $215 $-1 #
edge $-1 $312 -30.865540002625501 $313 30.865540002625501 $206 $314 forward 7 unknown #
coedge $-1 $130 $129 $315 $316 forward $51 $-1 #
coedge $-1 $317 $318 $129 $210 reversed $302 $-1 #
edge $-1 $217 -52.04748680074465 $319 52.04748680074465 $209 $320 forward 7 unknown #
coedge $-1 $203 $321 $130 $212 reversed $126 $-1 #
edge $-1 $322 -52.04748680074465 $216 52.04748680074465 $211 $323 forward 7 unknown #
coedge $-1 $206 $131 $321 $324 forward $215 $-1 #
coedge $-1 $131 $206 $317 $325 reversed $215 $-1 #
loop $-1 $-1 $213 $301 #
vertex $-1 $132 $326 #
vertex $-1 $132 $327 #
straight-curve $-1 52.04748680074465 0 11.435236548047509 0 1 0 I I #
face $-1 $328 $329 $31 $-1 $330 reversed single #
loop $-1 $-1 $331 $133 #
plane-surface $-1 -52.04748680074465 0 0 1 0 0 0 0 -1 forward_v I I I I #
coedge $-1 $230 $332 $224 $333 forward $134 $-1 #
coedge $-1 $139 $136 $334 $335 reversed $85 $-1 #
coedge $-1 $136 $139 $222 $333 reversed $85 $-1 #
coedge $-1 $336 $337 $136 $226 forward $338 $-1 #
edge $-1 $339 -11.435236548047509 $340 11.435236548047509 $225 $341 forward 7 unknown #
coedge $-1 $138 $137 $331 $342 reversed $54 $-1 #
coedge $-1 $334 $343 $137 $229 forward $329 $-1 #
edge $-1 $344 -28.379972024020407 $233 -18.955057529428078 $228 $345 forward 7 unknown #
coedge $-1 $346 $222 $138 $231 forward $134 $-1 #
edge $-1 $232 18.955057529428078 $347 28.379972024020407 $230 $348 forward 7 unknown #
vertex $-1 $231 $349 #
vertex $-1 $229 $350 #
straight-curve $-1 -42.622572306152321 -24.097507638634148 0 0 0 -1 I I #
face $-1 $-1 $351 $32 $-1 $352 reversed single #
loop $-1 $-1 $147 $141 #
plane-surface $-1 0 0 11.435236548047509 0 0 1 1 0 0 forward_v I I I I #
coedge $-1 $353 $354 $355 $356 reversed $142 $-1 #
coedge $-1 $357 $144 $146 $245 forward $89 $-1 #
coedge $-1 $144 $357 $353 $358 forward $89 $-1 #
coedge $-1 $355 $147 $144 $242 forward $236 $-1 #
edge $-1 $248 4.267155068705204 $359 24.609068736539594 $241 $360 forward 7 unknown #
coedge $-1 $361 $362 $145 $244 forward $351 $-1 #
edge $-1 $363 -39.796459794601851 $247 -30.796261623823586 $243 $364 forward 7 unknown #
edge $-1 $248 -14.618744908718869 $363 -9.1534652039358102e-015 $146 $365 forward 7 unknown #
coedge $-1 $147 $355 $361 $366 forward $236 $-1 #
vertex $-1 $244 $367 #
vertex $-1 $148 $368 #
straight-curve $-1 -18.705266971327603 -47.476402913895015 11.435236548047506 0 1 0 I I #
coedge $-1 $250 $250 $-1 $369 reversed $151 $-1 #
edge $-1 $370 0 $370 6.2831853071796004 $152 $371 forward 7 unknown #
vertex $-1 $155 $372 #
ellipse-curve $-1 -28.876223805244798 -25.10567595056418 6.9351374626583748 0 -0.61566148304635926 0.78801074757464917 2 0 0 1 I I #
face $-1 $-1 $266 $34 $-1 $373 forward single #
loop $-1 $-1 $374 $156 #
plane-surface $-1 0 30.865540002625501 0 0 -1 0 0 0 -1 forward_v I I I I #
coedge $-1 $375 $376 $377 $378 reversed $157 $-1 #
coedge $-1 $379 $159 $161 $264 forward $98 $-1 #
coedge $-1 $159 $379 $375 $380 forward $98 $-1 #
coedge $-1 $377 $162 $159 $261 forward $266 $-1 #
edge $-1 $268 -18.044937273956855 $381 -0.78795526331992427 $260 $382 forward 7 unknown #
coedge $-1 $383 $384 $160 $263 forward $255 $-1 #
edge $-1 $385 -58.100887523055782 $267 -47.720602584063059 $262 $386 forward 7 unknown #
edge $-1 $268 47.051140433555105 $385 61.731080005251044 $161 $387 forward 7 unknown #
coedge $-1 $162 $377 $383 $388 forward $266 $-1 #
loop $-1 $-1 $377 $254 #
vertex $-1 $263 $389 #
vertex $-1 $163 $390 #
straight-curve $-1 -27.461383542595243 30.410668901234086 11.435236548047513 0 -1 0 I I #
coedge $-1 $270 $270 $-1 $391 reversed $166 $-1 #
edge $-1 $392 0 $392 6.2831853071796004 $167 $393 forward 7 unknown #
vertex $-1 $170 $394 #
ellipse-curve $-1 -22.530817253841832 25.675397653566932 6.245094078551146 0 0.70710678939079041 0.70710677298230451 2 0 0 1 I I #
coedge $-1 $274 $274 $-1 $395 reversed $173 $-1 #
edge $-1 $396 0 $396 6.2831853071796004 $174 $397 forward 7 unknown #
vertex $-1 $177 $398 #
ellipse-curve $-1 -15.134967820711722 25.675397653566932 6.245094078551146 0 0.70710678939079041 0.70710677298230451 2 0 0 1 I I #
face $-1 $-1 $399 $37 $-1 $400 reversed single #
loop $-1 $-1 $184 $178 #
plane-surface $-1 0 0 11.435236548047509 0 0 1 1 0 0 forward_v I I I I #
coedge $-1 $401 $402 $403 $404 reversed $179 $-1 #
coedge $-1 $405 $181 $183 $288 forward $112 $-1 #
coedge $-1 $181 $405 $401 $406 forward $112 $-1 #
coedge $-1 $403 $184 $181 $285 forward $279 $-1 #
edge $-1 $291 5.500412510616087 $407 22.757394521253019 $284 $408 forward 7 unknown #
coedge $-1 $409 $410 $182 $287 forward $399 $-1 #
edge $-1 $411 -58.100887523055782 $290 -47.720602584063059 $286 $412 forward 7 unknown #
edge $-1 $291 47.051140433555105 $411 61.731080005251044 $183 $413 forward 7 unknown #
coedge $-1 $184 $403 $409 $414 forward $279 $-1 #
vertex $-1 $287 $415 #
vertex $-1 $185 $416 #
straight-curve $-1 19.62931602655064 30.410668901234086 11.435236548047513 0 -1 0 I I #
coedge $-1 $293 $293 $-1 $417 reversed $188 $-1 #
edge $-1 $418 0 $418 6.2831853071796004 $189 $419 forward 7 unknown #
vertex $-1 $192 $420 #
ellipse-curve $-1 24.559882315304051 25.675397653566932 6.245094078551146 0 0.70710678939079041 0.70710677298230451 2 0 0 1 I I #
coedge $-1 $297 $297 $-1 $421 reversed $195 $-1 #
edge $-1 $422 0 $422 6.2831853071796004 $196 $423 forward 7 unknown #
vertex $-1 $199 $424 #
ellipse-curve $-1 31.955731748434161 25.675397653566932 6.245094078551146 0 0.70710678939079041 0.70710677298230451 2 0 0 1 I I #
face $-1 $-1 $215 $30 $-1 $425 reversed single #
loop $-1 $-1 $317 $200 #
plane-surface $-1 0 30.865540002625501 0 0 -1 0 0 0 -1 forward_v I I I I #
coedge $-1 $426 $315 $318 $427 forward $201 $-1 #
coedge $-1 $321 $203 $204 $309 reversed $126 $-1 #
coedge $-1 $315 $426 $203 $307 reversed $201 $-1 #
edge $-1 $322 -11.435236548047509 $428 11.435236548047509 $306 $429 forward 7 unknown #
coedge $-1 $205 $204 $426 $430 forward $81 $-1 #
edge $-1 $313 -52.04748680074465 $428 52.04748680074465 $305 $431 forward 7 unknown #
coedge $-1 $318 $317 $205 $311 reversed $302 $-1 #
edge $-1 $432 -52.04748680074465 $312 52.04748680074465 $310 $433 forward 7 unknown #
vertex $-1 $207 $434 #
vertex $-1 $324 $435 #
straight-curve $-1 52.04748680074465 0 -11.435236548047509 0 -1 0 I I #
coedge $-1 $304 $306 $208 $316 reversed $201 $-1 #
edge $-1 $319 -30.865540002625501 $322 30.865540002625501 $315 $436 forward 7 unknown #
coedge $-1 $310 $209 $214 $325 forward $302 $-1 #
coedge $-1 $209 $310 $304 $427 reversed $302 $-1 #
vertex $-1 $210 $437 #
straight-curve $-1 0 30.865540002625501 11.435236548047509 -1 0 0 I I #
coedge $-1 $211 $305 $213 $324 reversed $126 $-1 #
vertex $-1 $316 $438 #
straight-curve $-1 0 -30.865540002625501 11.435236548047509 1 0 0 I I #
edge $-1 $216 -11.435236548047509 $313 11.435236548047509 $213 $439 forward 7 unknown #
edge $-1 $217 -11.435236548047509 $312 11.435236548047509 $214 $440 forward 7 unknown #
point $-1 52.04748680074465 -30.865540002625501 11.435236548047509 #
point $-1 52.04748680074465 30.865540002625501 11.435236548047509 #
face $-1 $-1 $338 $31 $-1 $441 reversed single #
loop $-1 $-1 $334 $219 #
plane-surface $-1 0 0 -11.435236548047509 0 0 1 1 0 0 forward_v I I I I #
coedge $-1 $442 $443 $227 $342 forward $220 $-1 #
coedge $-1 $222 $346 $336 $444 forward $134 $-1 #
edge $-1 $340 -17.124778092310589 $232 -10.356745728319236 $222 $445 forward 7 unknown #
coedge $-1 $446 $228 $223 $335 forward $329 $-1 #
edge $-1 $233 10.356745728319236 $339 17.124778092310589 $334 $447 forward 7 unknown #
coedge $-1 $448 $225 $332 $444 reversed $338 $-1 #
coedge $-1 $225 $448 $446 $449 reversed $338 $-1 #
loop $-1 $-1 $225 $328 #
vertex $-1 $449 $450 #
vertex $-1 $226 $451 #
straight-curve $-1 -42.622572306152321 -30.865540002625501 0 0 0 1 I I #
edge $-1 $347 -11.435236548047509 $344 11.435236548047509 $331 $452 forward 7 unknown #
coedge $-1 $228 $446 $442 $453 forward $329 $-1 #
vertex $-1 $229 $454 #
straight-curve $-1 -23.667514776724243 -24.097507638634148 -11.435236548047509 1 0 0 I I #
coedge $-1 $332 $230 $443 $455 forward $134 $-1 #
vertex $-1 $455 $456 #
straight-curve $-1 -23.667514776724243 -24.097507638634148 11.435236548047509 -1 0 0 I I #
point $-1 -42.622572306152321 -24.097507638634148 11.435236548047509 #
point $-1 -42.622572306152321 -24.097507638634148 -11.435236548047509 #
loop $-1 $-1 $243 $235 #
plane-surface $-1 0 -30.865540002625501 0 0 1 0 0 0 1 forward_v I I I I #
coedge $-1 $354 $238 $240 $358 reversed $142 $-1 #
coedge $-1 $238 $353 $457 $458 reversed $142 $-1 #
coedge $-1 $246 $241 $238 $356 forward $236 $-1 #
edge $-1 $359 -28.130591015392159 $459 -16.610862911269514 $355 $460 forward 7 unknown #
coedge $-1 $240 $239 $362 $461 reversed $89 $-1 #
edge $-1 $462 9.1534652039358102e-015 $359 14.618744908718869 $353 $463 forward 7 unknown #
vertex $-1 $242 $464 #
straight-curve $-1 -14.438111902622399 -19.345811898502856 11.435236548047509 -1 0 0 I I #
coedge $-1 $457 $243 $246 $366 reversed $351 $-1 #
coedge $-1 $243 $457 $357 $461 forward $351 $-1 #
vertex $-1 $244 $465 #
straight-curve $-1 -18.705266971327603 -30.865540002625501 42.231498171871095 0 0 1 I I #
straight-curve $-1 -18.705266971327603 -30.865540002625508 2.4350383772692368 0 -0.78801074757464917 -0.61566148304635926 I I #
edge $-1 $459 -39.047180639161994 $247 -18.705266971327603 $361 $466 forward 7 unknown #
point $-1 -18.705266971327603 -30.865540002625501 11.435236548047509 #
point $-1 -18.705266971327603 -19.345811898502856 11.435236548047509 #
edge $-1 $467 1 $467 0 $250 $-1 forward 7 unknown #
vertex $-1 $251 $468 #
ellipse-curve $-1 -28.876223805244798 -21.538721170923477 2.369643632247703 0 -0.61566148304635926 0.78801074757464917 2 0 0 1 I I #
point $-1 -26.876223805244798 -25.10567595056418 6.9351374626583766 #
plane-surface $-1 0 0 11.435236548047509 0 0 1 1 0 0 forward_v I I I I #
coedge $-1 $384 $383 $376 $469 forward $255 $-1 #
coedge $-1 $376 $257 $259 $380 reversed $157 $-1 #
coedge $-1 $257 $375 $374 $469 reversed $157 $-1 #
coedge $-1 $265 $260 $257 $378 forward $266 $-1 #
edge $-1 $381 -9.9254135967257291 $470 0.45487110139141507 $377 $471 forward 7 unknown #
coedge $-1 $259 $258 $384 $472 reversed $98 $-1 #
edge $-1 $473 -61.731080005251044 $381 -47.051140433555105 $375 $474 forward 7 unknown #
vertex $-1 $261 $475 #
straight-curve $-1 -9.4164462686383885 20.485255304508357 11.435236548047509 1 0 0 I I #
coedge $-1 $374 $262 $265 $388 reversed $255 $-1 #
coedge $-1 $262 $374 $379 $472 forward $255 $-1 #
vertex $-1 $263 $476 #
straight-curve $-1 -27.461383542595243 30.865540002625501 59.155839132110565 0 0 1 I I #
straight-curve $-1 -27.461383542595243 -12.784924772600014 44.705417397193855 0 0.70710677298230451 -0.70710678939079041 I I #
edge $-1 $470 10.204401531958313 $267 27.461383542595243 $383 $477 forward 7 unknown #
point $-1 -27.461383542595243 30.865540002625501 11.435236548047509 #
point $-1 -27.461383542595243 20.485255304508357 11.435236548047513 #
edge $-1 $478 1 $478 0 $270 $-1 forward 7 unknown #
vertex $-1 $271 $479 #
ellipse-curve $-1 -22.530817253841832 22.934670987110199 3.5043674756932583 0 0.70710678939079041 0.70710677298230451 2 0 0 1 I I #
point $-1 -20.530817253841832 25.675397653566939 6.2450940785511522 #
edge $-1 $480 1 $480 0 $274 $-1 forward 7 unknown #
vertex $-1 $275 $481 #
ellipse-curve $-1 -15.134967820711722 22.934670987110199 3.5043674756932583 0 0.70710678939079041 0.70710677298230451 2 0 0 1 I I #
point $-1 -13.134967820711722 25.675397653566939 6.2450940785511522 #
loop $-1 $-1 $286 $278 #
plane-surface $-1 0 30.865540002625501 0 0 -1 0 0 0 -1 forward_v I I I I #
coedge $-1 $402 $281 $283 $406 reversed $179 $-1 #
coedge $-1 $281 $401 $482 $483 reversed $179 $-1 #
coedge $-1 $289 $284 $281 $404 forward $279 $-1 #
edge $-1 $407 -9.9254135967257291 $484 0.45487110139141507 $403 $485 forward 7 unknown #
coedge $-1 $283 $282 $410 $486 reversed $112 $-1 #
edge $-1 $487 -61.731080005251044 $407 -47.051140433555105 $401 $488 forward 7 unknown #
vertex $-1 $285 $489 #
straight-curve $-1 14.128903515934553 20.485255304508357 11.435236548047509 1 0 0 I I #
coedge $-1 $482 $286 $289 $414 reversed $399 $-1 #
coedge $-1 $286 $482 $405 $486 forward $399 $-1 #
vertex $-1 $287 $490 #
straight-curve $-1 19.62931602655064 30.865540002625501 59.155839132110565 0 0 1 I I #
straight-curve $-1 19.62931602655064 -12.784924772600014 44.705417397193855 0 0.70710677298230451 -0.70710678939079041 I I #
edge $-1 $484 -36.886298037187572 $290 -19.62931602655064 $409 $491 forward 7 unknown #
point $-1 19.62931602655064 30.865540002625501 11.435236548047509 #
point $-1 19.62931602655064 20.485255304508357 11.435236548047513 #
edge $-1 $492 1 $492 0 $293 $-1 forward 7 unknown #
vertex $-1 $294 $493 #
ellipse-curve $-1 24.559882315304051 22.934670987110199 3.5043674756932583 0 0.70710678939079041 0.70710677298230451 2 0 0 1 I I #
point $-1 26.559882315304051 25.675397653566939 6.2450940785511522 #
edge $-1 $494 1 $494 0 $297 $-1 forward 7 unknown #
vertex $-1 $298 $495 #
ellipse-curve $-1 31.955731748434161 22.934670987110199 3.5043674756932583 0 0.70710678939079041 0.70710677298230451 2 0 0 1 I I #
point $-1 33.955731748434161 25.675397653566939 6.2450940785511522 #
plane-surface $-1 52.04748680074465 0 0 -1 0 0 0 0 1 forward_v I I I I #
coedge $-1 $306 $304 $308 $430 reversed $201 $-1 #
edge $-1 $319 -11.435236548047509 $432 11.435236548047509 $318 $496 forward 7 unknown #
vertex $-1 $430 $497 #
straight-curve $-1 -52.04748680074465 -30.865540002625501 0 0 0 -1 I I #
edge $-1 $428 -30.865540002625501 $432 30.865540002625501 $426 $498 forward 7 unknown #
straight-curve $-1 0 -30.865540002625501 -11.435236548047509 -1 0 0 I I #
vertex $-1 $311 $499 #
straight-curve $-1 0 30.865540002625501 -11.435236548047509 1 0 0 I I #
point $-1 52.04748680074465 30.865540002625501 -11.435236548047509 #
point $-1 52.04748680074465 -30.865540002625501 -11.435236548047509 #
straight-curve $-1 -52.04748680074465 0 11.435236548047509 0 -1 0 I I #
point $-1 -52.04748680074465 30.865540002625501 11.435236548047509 #
point $-1 -52.04748680074465 -30.865540002625501 11.435236548047509 #
straight-curve $-1 52.04748680074465 -30.865540002625501 0 0 0 -1 I I #
straight-curve $-1 52.04748680074465 30.865540002625501 0 0 0 -1 I I #
plane-surface $-1 0 -30.865540002625501 0 0 1 0 0 0 1 forward_v I I I I #
coedge $-1 $500 $331 $343 $453 reversed $220 $-1 #
coedge $-1 $331 $500 $346 $455 reversed $220 $-1 #
edge $-1 $501 -52.04748680074465 $340 -42.622572306152321 $336 $502 forward 7 unknown #
straight-curve $-1 -42.622572306152321 -13.740761910314912 11.435236548047509 0 1 0 I I #
coedge $-1 $343 $334 $337 $449 forward $329 $-1 #
straight-curve $-1 -42.622572306152321 -13.740761910314912 -11.435236548047509 0 -1 0 I I #
coedge $-1 $337 $336 $500 $503 forward $338 $-1 #
edge $-1 $339 42.622572306152321 $504 52.04748680074465 $337 $505 forward 7 unknown #
point $-1 -42.622572306152321 -30.865540002625501 -11.435236548047509 #
point $-1 -42.622572306152321 -30.865540002625501 11.435236548047509 #
straight-curve $-1 -52.04748680074465 -24.097507638634148 0 0 0 -1 I I #
edge $-1 $504 -30.865540002625501 $344 -24.097507638634148 $442 $506 forward 7 unknown #
point $-1 -52.04748680074465 -24.097507638634148 -11.435236548047509 #
edge $-1 $347 24.097507638634148 $501 30.865540002625501 $443 $507 forward 7 unknown #
point $-1 -52.04748680074465 -24.097507638634148 11.435236548047509 #
coedge $-1 $362 $361 $354 $458 forward $351 $-1 #
edge $-1 $459 30.796261623823586 $462 39.796459794601851 $457 $508 forward 7 unknown #
vertex $-1 $366 $509 #
straight-curve $-1 -39.047180639161994 -47.476402913895015 11.435236548047506 0 -1 0 I I #
edge $-1 $462 -24.609068736539594 $363 -4.267155068705204 $362 $510 forward 7 unknown #
vertex $-1 $461 $511 #
straight-curve $-1 -39.047180639161994 -30.865540002625508 2.4350383772692368 0 0.78801074757464917 0.61566148304635926 I I #
point $-1 -39.047180639161994 -19.345811898502856 11.435236548047509 #
point $-1 -18.705266971327603 -30.865540002625501 2.4350383772692425 #
straight-curve $-1 0 -30.865540002625501 11.435236548047509 1 0 0 I I #
vertex $-1 $369 $512 #
point $-1 -26.876223805244798 -21.538721170923477 2.369643632247703 #
edge $-1 $470 47.720602584063059 $473 58.100887523055782 $374 $513 forward 7 unknown #
vertex $-1 $388 $514 #
straight-curve $-1 -10.204401531958313 30.410668901234086 11.435236548047513 0 1 0 I I #
edge $-1 $473 0.78795526331992427 $385 18.044937273956855 $384 $515 forward 7 unknown #
vertex $-1 $472 $516 #
straight-curve $-1 -10.204401531958313 -12.784924772600014 44.705417397193855 0 -0.70710677298230451 0.70710678939079041 I I #
point $-1 -10.204401531958313 20.485255304508357 11.435236548047513 #
point $-1 -27.461383542595243 30.865540002625501 1.0549516090547826 #
straight-curve $-1 0 30.865540002625501 11.435236548047509 -1 0 0 I I #
vertex $-1 $391 $517 #
point $-1 -20.530817253841832 22.934670987110199 3.5043674756932583 #
vertex $-1 $395 $518 #
point $-1 -13.134967820711722 22.934670987110199 3.5043674756932583 #
coedge $-1 $410 $409 $402 $483 forward $399 $-1 #
edge $-1 $484 47.720602584063059 $487 58.100887523055782 $482 $519 forward 7 unknown #
vertex $-1 $414 $520 #
straight-curve $-1 36.886298037187572 30.410668901234086 11.435236548047513 0 1 0 I I #
edge $-1 $487 -22.757394521253019 $411 -5.500412510616087 $410 $521 forward 7 unknown #
vertex $-1 $486 $522 #
straight-curve $-1 36.886298037187572 -12.784924772600014 44.705417397193855 0 -0.70710677298230451 0.70710678939079041 I I #
point $-1 36.886298037187572 20.485255304508357 11.435236548047513 #
point $-1 19.62931602655064 30.865540002625501 1.0549516090547826 #
straight-curve $-1 0 30.865540002625501 11.435236548047509 -1 0 0 I I #
vertex $-1 $417 $523 #
point $-1 26.559882315304051 22.934670987110199 3.5043674756932583 #
vertex $-1 $421 $524 #
point $-1 33.955731748434161 22.934670987110199 3.5043674756932583 #
straight-curve $-1 -52.04748680074465 30.865540002625501 0 0 0 -1 I I #
point $-1 -52.04748680074465 -30.865540002625501 -11.435236548047509 #
straight-curve $-1 -52.04748680074465 0 -11.435236548047509 0 1 0 I I #
point $-1 -52.04748680074465 30.865540002625501 -11.435236548047509 #
coedge $-1 $443 $442 $448 $503 reversed $220 $-1 #
vertex $-1 $455 $525 #
straight-curve $-1 0 -30.865540002625501 11.435236548047509 1 0 0 I I #
edge $-1 $501 -11.435236548047509 $504 11.435236548047509 $500 $526 forward 7 unknown #
vertex $-1 $453 $527 #
straight-curve $-1 0 -30.865540002625501 -11.435236548047509 -1 0 0 I I #
straight-curve $-1 -52.04748680074465 0 -11.435236548047509 0 1 0 I I #
straight-curve $-1 -52.04748680074465 0 11.435236548047509 0 -1 0 I I #
straight-curve $-1 -39.047180639161994 -30.865540002625501 42.231498171871095 0 0 -1 I I #
point $-1 -39.047180639161994 -30.865540002625501 11.435236548047509 #
straight-curve $-1 -14.438111902622399 -30.865540002625501 2.435038377269243 1 0 0 I I #
point $-1 -39.047180639161994 -30.865540002625501 2.4350383772692425 #
point $-1 -28.876223805244798 -20.307398204830758 0.79362213709840468 #
straight-curve $-1 -10.204401531958313 30.865540002625501 59.155839132110565 0 0 -1 I I #
point $-1 -10.204401531958313 30.865540002625501 11.435236548047509 #
straight-curve $-1 -9.4164462686383885 30.865540002625501 1.0549516090547861 -1 0 0 I I #
point $-1 -10.204401531958313 30.865540002625501 1.0549516090547826 #
point $-1 -22.530817253841832 21.520457408328621 2.0901539297286496 #
point $-1 -15.134967820711722 21.520457408328621 2.0901539297286496 #
straight-curve $-1 36.886298037187572 30.865540002625501 59.155839132110565 0 0 -1 I I #
point $-1 36.886298037187572 30.865540002625501 11.435236548047509 #
straight-curve $-1 14.128903515934553 30.865540002625501 1.0549516090547861 -1 0 0 I I #
point $-1 36.886298037187572 30.865540002625501 1.0549516090547826 #
point $-1 24.559882315304051 21.520457408328621 2.0901539297286496 #
point $-1 31.955731748434161 21.520457408328621 2.0901539297286496 #
point $-1 -52.04748680074465 -30.865540002625501 11.435236548047509 #
straight-curve $-1 -52.04748680074465 -30.865540002625501 0 0 0 -1 I I #
point $-1 -52.04748680074465 -30.865540002625501 -11.435236548047509 #
End-of-ACIS-data 