500 0 9 0           
7 Unknown 11 ACIS 5.0 NT 24 Thu Mar 25 21:12:11 1999 
-1 9.9999999999999995e-007 1e-010 
body $-1 $9 $-1 $10 #
body $-1 $11 $-1 $12 #
body $-1 $13 $-1 $14 #
body $-1 $15 $-1 $16 #
body $-1 $17 $-1 $18 #
body $-1 $19 $-1 $20 #
body $-1 $21 $-1 $22 #
body $-1 $23 $-1 $24 #
body $-1 $25 $-1 $26 #
lump $-1 $-1 $27 $0 #
transform $-1 1 0 0 0 1 0 0 0 1 42.834559160130617 28.362551633102139 7.2404270119502181 1 rotate no_reflect no_shear #
lump $-1 $-1 $28 $1 #
transform $-1 1 0 0 0 1 0 0 0 1 42.834559160130617 28.362551633102139 7.2404270119502181 1 rotate no_reflect no_shear #
lump $-1 $-1 $29 $2 #
transform $-1 1 0 0 0 1 0 0 0 1 42.834559160130617 28.362551633102139 7.2404270119502181 1 rotate no_reflect no_shear #
lump $-1 $-1 $30 $3 #
transform $-1 1 0 0 0 1 0 0 0 1 42.834559160130617 28.362551633102139 7.2404270119502181 1 rotate no_reflect no_shear #
lump $-1 $-1 $31 $4 #
transform $-1 1 0 0 0 1 0 0 0 1 42.834559160130617 28.362551633102139 7.2404270119502181 1 rotate no_reflect no_shear #
lump $-1 $-1 $32 $5 #
transform $-1 1 0 0 0 1 0 0 0 1 42.834559160130617 28.362551633102139 7.2404270119502181 1 rotate no_reflect no_shear #
lump $-1 $-1 $33 $6 #
transform $-1 1 0 0 0 1 0 0 0 1 42.834559160130617 28.362551633102139 7.2404270119502181 1 rotate no_reflect no_shear #
lump $-1 $-1 $34 $7 #
transform $-1 1 0 0 0 1 0 0 0 1 42.834559160130617 28.362551633102139 7.2404270119502181 1 rotate no_reflect no_shear #
lump $-1 $-1 $35 $8 #
transform $-1 1 0 0 0 1 0 0 0 1 42.834559160130617 28.362551633102139 7.2404270119502181 1 rotate no_reflect no_shear #
shell $-1 $-1 $-1 $36 $-1 $9 #
shell $-1 $-1 $-1 $37 $-1 $11 #
shell $-1 $-1 $-1 $38 $-1 $13 #
shell $-1 $-1 $-1 $39 $-1 $15 #
shell $-1 $-1 $-1 $40 $-1 $17 #
shell $-1 $-1 $-1 $41 $-1 $19 #
shell $-1 $-1 $-1 $42 $-1 $21 #
shell $-1 $-1 $-1 $43 $-1 $23 #
shell $-1 $-1 $-1 $44 $-1 $25 #
face $-1 $45 $46 $27 $-1 $47 forward single #
face $-1 $48 $49 $28 $-1 $50 reversed single #
face $-1 $51 $52 $29 $-1 $53 reversed single #
face $-1 $54 $55 $30 $-1 $56 reversed single #
face $-1 $57 $58 $31 $-1 $59 forward single #
face $-1 $60 $61 $32 $-1 $62 forward single #
face $-1 $63 $64 $33 $-1 $65 reversed single #
face $-1 $66 $67 $34 $-1 $68 forward single #
face $-1 $69 $70 $35 $-1 $71 forward single #
face $-1 $72 $73 $27 $-1 $74 reversed single #
loop $-1 $-1 $75 $36 #
plane-surface $-1 0 0 7.2404270119502181 0 0 1 1 0 0 forward_v I I I I #
face $-1 $76 $77 $28 $-1 $78 reversed single #
loop $-1 $-1 $79 $37 #
plane-surface $-1 -41.162346888688752 -22.489937117114728 0 0 -1 0 0 0 -1 forward_v I I I I #
face $-1 $80 $81 $29 $-1 $82 reversed single #
loop $-1 $-1 $83 $38 #
plane-surface $-1 -41.162346888688752 22.489937117114721 0 0 1 0 0 0 1 forward_v I I I I #
face $-1 $84 $85 $30 $-1 $86 reversed single #
loop $-1 $-1 $87 $39 #
plane-surface $-1 -101.2607580571912 -17.066802238108405 64.614363498638724 0 1 0 -0.68199836817093118 0 0.7313536940579346 forward_v I I I I #
face $-1 $88 $89 $31 $-1 $90 forward single #
loop $-1 $91 $92 $40 #
cone-surface $-1 -39.474640948395958 -13.957404142648318 4.0333255937464561 0.68199836817093118 0 -0.7313536940579346 0.7313536940579346 0 0.68199836817093118 1 I I 0 1 1 forward I I I I #
face $-1 $93 $94 $32 $-1 $95 forward single #
loop $-1 $96 $97 $41 #
cone-surface $-1 -39.474640948395958 -9.2933069994581885 4.0333255937464561 0.68199836817093118 0 -0.7313536940579346 0.7313536940579346 0 0.68199836817093118 1 I I 0 1 1 forward I I I I #
face $-1 $98 $99 $33 $-1 $100 reversed single #
loop $-1 $-1 $101 $42 #
plane-surface $-1 -101.2607580571912 5.423134879006323 64.614363498638724 0 1 0 -0.68199836817093118 0 0.7313536940579346 forward_v I I I I #
face $-1 $102 $103 $34 $-1 $104 forward single #
loop $-1 $105 $106 $43 #
cone-surface $-1 -39.474640948395958 8.5325329744664096 4.0333255937464561 0.68199836817093118 0 -0.7313536940579346 0.7313536940579346 0 0.68199836817093118 1 I I 0 1 1 forward I I I I #
face $-1 $107 $108 $35 $-1 $109 forward single #
loop $-1 $110 $111 $44 #
cone-surface $-1 -39.474640948395958 13.196630117656543 4.0333255937464561 0.68199836817093118 0 -0.7313536940579346 0.7313536940579346 0 0.68199836817093118 1 I I 0 1 1 forward I I I I #
face $-1 $112 $113 $27 $-1 $114 reversed single #
loop $-1 $-1 $115 $45 #
plane-surface $-1 0 0 -7.2404270119502181 0 0 1 1 0 0 forward_v I I I I #
coedge $-1 $116 $117 $118 $119 forward $46 $-1 #
face $-1 $120 $121 $28 $-1 $122 forward single #
loop $-1 $-1 $123 $48 #
plane-surface $-1 -39.490134617246888 -25.426244375108432 0 -1 0 0 0 0 1 forward_v I I I I #
coedge $-1 $124 $125 $126 $127 forward $49 $-1 #
face $-1 $128 $129 $29 $-1 $130 reversed single #
loop $-1 $-1 $131 $51 #
plane-surface $-1 -39.490134617246888 25.426244375108428 0 -1 0 0 0 0 1 forward_v I I I I #
coedge $-1 $132 $133 $134 $135 reversed $52 $-1 #
face $-1 $136 $137 $30 $-1 $138 reversed single #
loop $-1 $-1 $139 $54 #
plane-surface $-1 -42.83455916013061 -11.625355571053252 1.959937348429392 -0.68199836817093118 0 0.7313536940579346 0.7313536940579346 0 0.68199836817093118 forward_v I I I I #
coedge $-1 $140 $141 $142 $143 reversed $55 $-1 #
face $-1 $-1 $144 $31 $-1 $145 forward single #
loop $-1 $146 $147 $57 #
cone-surface $-1 -38.605039434025841 -13.957404142648318 3.1007921602741346 0.68199836817093118 0 -0.7313536940579346 0.3656768470289673 0 0.34099918408546559 1 I I -0.70710678118654746 0.70710678118654746 0.5 forward I I I I #
loop $-1 $-1 $148 $40 #
coedge $-1 $92 $92 $149 $150 reversed $58 $-1 #
face $-1 $-1 $151 $32 $-1 $152 forward single #
loop $-1 $153 $154 $60 #
cone-surface $-1 -38.605039434025841 -9.2933069994581885 3.1007921602741346 0.68199836817093118 0 -0.7313536940579346 0.3656768470289673 0 0.34099918408546559 1 I I -0.70710678118654746 0.70710678118654746 0.5 forward I I I I #
loop $-1 $-1 $155 $41 #
coedge $-1 $97 $97 $156 $157 reversed $61 $-1 #
face $-1 $158 $159 $33 $-1 $160 reversed single #
loop $-1 $-1 $161 $63 #
plane-surface $-1 -42.83455916013061 10.864581546061476 1.959937348429392 -0.68199836817093118 0 0.7313536940579346 0.7313536940579346 0 0.68199836817093118 forward_v I I I I #
coedge $-1 $162 $163 $164 $165 reversed $64 $-1 #
face $-1 $-1 $166 $34 $-1 $167 forward single #
loop $-1 $168 $169 $66 #
cone-surface $-1 -38.605039434025841 8.5325329744664096 3.1007921602741346 0.68199836817093118 0 -0.7313536940579346 0.3656768470289673 0 0.34099918408546559 1 I I -0.70710678118654746 0.70710678118654746 0.5 forward I I I I #
loop $-1 $-1 $170 $43 #
coedge $-1 $106 $106 $171 $172 reversed $67 $-1 #
face $-1 $-1 $173 $35 $-1 $174 forward single #
loop $-1 $175 $176 $69 #
cone-surface $-1 -38.605039434025841 13.196630117656543 3.1007921602741346 0.68199836817093118 0 -0.7313536940579346 0.3656768470289673 0 0.34099918408546559 1 I I -0.70710678118654746 0.70710678118654746 0.5 forward I I I I #
loop $-1 $-1 $177 $44 #
coedge $-1 $111 $111 $178 $179 reversed $70 $-1 #
face $-1 $180 $181 $27 $-1 $182 reversed single #
loop $-1 $-1 $183 $72 #
plane-surface $-1 0 -28.362551633102139 0 0 1 0 0 0 1 forward_v I I I I #
coedge $-1 $184 $185 $186 $187 forward $73 $-1 #
coedge $-1 $188 $75 $189 $190 forward $46 $-1 #
coedge $-1 $75 $188 $191 $192 forward $46 $-1 #
coedge $-1 $193 $194 $75 $119 reversed $195 $-1 #
edge $-1 $196 -28.362551633102139 $197 28.362551633102139 $118 $198 forward 7 unknown #
face $-1 $199 $200 $28 $-1 $201 reversed single #
loop $-1 $-1 $202 $76 #
plane-surface $-1 0 0 7.2404270119502181 0 0 1 1 0 0 forward_v I I I I #
coedge $-1 $203 $204 $205 $206 reversed $77 $-1 #
coedge $-1 $207 $79 $208 $209 reversed $49 $-1 #
coedge $-1 $79 $207 $210 $211 reversed $49 $-1 #
coedge $-1 $204 $203 $79 $127 reversed $77 $-1 #
edge $-1 $212 -7.2404270119502181 $213 7.2404270119502181 $126 $214 forward 7 unknown #
face $-1 $215 $216 $29 $-1 $217 reversed single #
loop $-1 $-1 $218 $80 #
plane-surface $-1 0 0 -7.2404270119502181 0 0 1 1 0 0 forward_v I I I I #
coedge $-1 $219 $220 $221 $222 forward $81 $-1 #
coedge $-1 $221 $83 $223 $224 reversed $52 $-1 #
coedge $-1 $83 $221 $225 $226 reversed $52 $-1 #
coedge $-1 $227 $228 $83 $135 forward $216 $-1 #
edge $-1 $229 -7.2404270119502181 $230 7.2404270119502181 $134 $231 forward 7 unknown #
face $-1 $232 $233 $30 $-1 $234 forward single #
loop $-1 $-1 $235 $84 #
plane-surface $-1 -101.2607580571912 -6.1839089039980983 64.614363498638724 0 -1 0 0.68199836817093118 0 -0.7313536940579346 forward_v I I I I #
coedge $-1 $236 $237 $238 $239 reversed $85 $-1 #
coedge $-1 $141 $87 $240 $241 reversed $55 $-1 #
coedge $-1 $87 $140 $236 $242 reversed $55 $-1 #
coedge $-1 $238 $243 $87 $143 forward $233 $-1 #
edge $-1 $244 7.7958198684649815 $245 13.458451631365008 $142 $246 forward 7 unknown #
loop $-1 $-1 $149 $88 #
plane-surface $-1 -42.83455916013061 -11.625355571053252 1.959937348429392 -0.68199836817093118 0 0.7313536940579346 0.7313536940579346 0 0.68199836817093118 forward_v I I I I #
loop $-1 $-1 $247 $57 #
coedge $-1 $147 $147 $148 $248 reversed $89 $-1 #
coedge $-1 $148 $148 $147 $248 forward $91 $-1 #
coedge $-1 $149 $149 $92 $150 forward $144 $-1 #
edge $-1 $249 0 $249 6.2831853071796004 $149 $250 forward 7 unknown #
loop $-1 $-1 $156 $93 #
plane-surface $-1 -42.83455916013061 -11.625355571053252 1.959937348429392 -0.68199836817093118 0 0.7313536940579346 0.7313536940579346 0 0.68199836817093118 forward_v I I I I #
loop $-1 $-1 $251 $60 #
coedge $-1 $154 $154 $155 $252 reversed $94 $-1 #
coedge $-1 $155 $155 $154 $252 forward $96 $-1 #
coedge $-1 $156 $156 $97 $157 forward $151 $-1 #
edge $-1 $253 0 $253 6.2831853071796004 $156 $254 forward 7 unknown #
face $-1 $255 $256 $33 $-1 $257 forward single #
loop $-1 $-1 $258 $98 #
plane-surface $-1 -101.2607580571912 16.30602821311663 64.614363498638724 0 -1 0 0.68199836817093118 0 -0.7313536940579346 forward_v I I I I #
coedge $-1 $259 $260 $261 $262 reversed $99 $-1 #
coedge $-1 $163 $101 $263 $264 reversed $64 $-1 #
coedge $-1 $101 $162 $259 $265 reversed $64 $-1 #
coedge $-1 $261 $266 $101 $165 forward $256 $-1 #
edge $-1 $267 7.7958198684649815 $268 13.458451631365008 $164 $269 forward 7 unknown #
loop $-1 $-1 $171 $102 #
plane-surface $-1 -42.83455916013061 10.864581546061476 1.959937348429392 -0.68199836817093118 0 0.7313536940579346 0.7313536940579346 0 0.68199836817093118 forward_v I I I I #
loop $-1 $-1 $270 $66 #
coedge $-1 $169 $169 $170 $271 reversed $103 $-1 #
coedge $-1 $170 $170 $169 $271 forward $105 $-1 #
coedge $-1 $171 $171 $106 $172 forward $166 $-1 #
edge $-1 $272 0 $272 6.2831853071796004 $171 $273 forward 7 unknown #
loop $-1 $-1 $178 $107 #
plane-surface $-1 -42.83455916013061 10.864581546061476 1.959937348429392 -0.68199836817093118 0 0.7313536940579346 0.7313536940579346 0 0.68199836817093118 forward_v I I I I #
loop $-1 $-1 $274 $69 #
coedge $-1 $176 $176 $177 $275 reversed $108 $-1 #
coedge $-1 $177 $177 $176 $275 forward $110 $-1 #
coedge $-1 $178 $178 $111 $179 forward $173 $-1 #
edge $-1 $276 0 $276 6.2831853071796004 $178 $277 forward 7 unknown #
face $-1 $278 $279 $27 $-1 $280 reversed single #
loop $-1 $-1 $281 $112 #
plane-surface $-1 -42.834559160130617 0 0 1 0 0 0 0 -1 forward_v I I I I #
coedge $-1 $282 $191 $283 $284 forward $113 $-1 #
coedge $-1 $285 $115 $282 $286 forward $73 $-1 #
coedge $-1 $115 $285 $287 $288 forward $73 $-1 #
coedge $-1 $194 $193 $115 $187 reversed $195 $-1 #
edge $-1 $289 -28.362551633102139 $290 28.362551633102139 $186 $291 forward 7 unknown #
coedge $-1 $117 $116 $292 $293 forward $46 $-1 #
coedge $-1 $294 $295 $116 $190 reversed $279 $-1 #
edge $-1 $197 -42.834559160130617 $296 42.834559160130617 $189 $297 forward 7 unknown #
coedge $-1 $183 $298 $117 $192 reversed $113 $-1 #
edge $-1 $299 -42.834559160130617 $196 42.834559160130617 $191 $300 forward 7 unknown #
coedge $-1 $186 $118 $298 $301 forward $195 $-1 #
coedge $-1 $118 $186 $294 $302 reversed $195 $-1 #
loop $-1 $-1 $193 $278 #
vertex $-1 $119 $303 #
vertex $-1 $119 $304 #
straight-curve $-1 42.834559160130617 0 7.2404270119502181 0 1 0 I I #
face $-1 $305 $306 $28 $-1 $307 reversed single #
loop $-1 $-1 $308 $120 #
plane-surface $-1 -42.834559160130617 0 0 1 0 0 0 0 -1 forward_v I I I I #
coedge $-1 $210 $309 $204 $310 forward $121 $-1 #
coedge $-1 $126 $123 $311 $312 reversed $77 $-1 #
coedge $-1 $123 $126 $202 $310 reversed $77 $-1 #
coedge $-1 $313 $314 $123 $206 forward $315 $-1 #
edge $-1 $316 -7.2404270119502181 $317 7.2404270119502181 $205 $318 forward 7 unknown #
coedge $-1 $125 $124 $308 $319 reversed $49 $-1 #
coedge $-1 $311 $320 $124 $209 forward $306 $-1 #
edge $-1 $321 -22.253385715786241 $213 -18.908961172902512 $208 $322 forward 7 unknown #
coedge $-1 $323 $202 $125 $211 forward $121 $-1 #
edge $-1 $212 18.908961172902512 $324 22.253385715786241 $210 $325 forward 7 unknown #
vertex $-1 $211 $326 #
vertex $-1 $209 $327 #
straight-curve $-1 -39.490134617246888 -22.489937117114728 0 0 0 -1 I I #
face $-1 $328 $329 $29 $-1 $330 forward single #
loop $-1 $-1 $134 $128 #
plane-surface $-1 -42.834559160130617 0 0 1 0 0 0 0 -1 forward_v I I I I #
coedge $-1 $223 $331 $219 $332 forward $129 $-1 #
coedge $-1 $333 $131 $218 $332 reversed $81 $-1 #
coedge $-1 $131 $333 $334 $335 reversed $81 $-1 #
coedge $-1 $133 $132 $131 $222 reversed $52 $-1 #
edge $-1 $336 -7.2404270119502181 $337 7.2404270119502181 $131 $338 forward 7 unknown #
coedge $-1 $339 $218 $132 $224 forward $129 $-1 #
edge $-1 $337 18.908961172902512 $229 22.253385715786241 $223 $340 forward 7 unknown #
coedge $-1 $334 $341 $133 $226 forward $329 $-1 #
edge $-1 $230 -22.253385715786241 $336 -18.908961172902512 $225 $342 forward 7 unknown #
coedge $-1 $343 $134 $341 $344 reversed $216 $-1 #
coedge $-1 $134 $343 $339 $345 reversed $216 $-1 #
vertex $-1 $345 $346 #
vertex $-1 $135 $347 #
straight-curve $-1 -42.834559160130617 22.489937117114721 0 0 0 1 I I #
face $-1 $-1 $348 $30 $-1 $349 reversed single #
loop $-1 $-1 $142 $136 #
plane-surface $-1 0 0 7.2404270119502181 0 0 1 1 0 0 forward_v I I I I #
coedge $-1 $350 $351 $352 $353 reversed $137 $-1 #
coedge $-1 $354 $139 $141 $242 forward $85 $-1 #
coedge $-1 $139 $354 $350 $355 forward $85 $-1 #
coedge $-1 $352 $142 $139 $239 forward $233 $-1 #
edge $-1 $245 -11.254124452581779 $356 -0.3712311184714725 $238 $357 forward 7 unknown #
coedge $-1 $358 $359 $140 $241 forward $348 $-1 #
edge $-1 $360 -30.347244400889977 $244 -25.066754737369145 $240 $361 forward 7 unknown #
edge $-1 $245 -7.7426719915513962 $360 9.739602292442716e-015 $141 $362 forward 7 unknown #
coedge $-1 $142 $352 $358 $363 forward $233 $-1 #
vertex $-1 $143 $364 #
vertex $-1 $143 $365 #
straight-curve $-1 -50.630379028595598 -17.066802238108405 7.2404270119502172 1 0 0 I I #
coedge $-1 $247 $247 $-1 $366 reversed $146 $-1 #
edge $-1 $367 0 $367 6.2831853071796004 $147 $368 forward 7 unknown #
vertex $-1 $150 $369 #
ellipse-curve $-1 -40.0032432786806 -13.957404142648318 4.6001821801898028 -0.68199836817093118 0 0.7313536940579346 0.7313536940579346 0 0.68199836817093118 1 I I #
coedge $-1 $251 $251 $-1 $370 reversed $153 $-1 #
edge $-1 $371 0 $371 6.2831853071796004 $154 $372 forward 7 unknown #
vertex $-1 $157 $373 #
ellipse-curve $-1 -40.0032432786806 -9.2933069994581885 4.6001821801898028 -0.68199836817093118 0 0.7313536940579346 0.7313536940579346 0 0.68199836817093118 1 I I #
face $-1 $-1 $374 $33 $-1 $375 reversed single #
loop $-1 $-1 $164 $158 #
plane-surface $-1 0 0 7.2404270119502181 0 0 1 1 0 0 forward_v I I I I #
coedge $-1 $376 $377 $378 $379 reversed $159 $-1 #
coedge $-1 $380 $161 $163 $265 forward $99 $-1 #
coedge $-1 $161 $380 $376 $381 forward $99 $-1 #
coedge $-1 $378 $164 $161 $262 forward $256 $-1 #
edge $-1 $268 -0.0091558940244151898 $382 10.873737440085891 $261 $383 forward 7 unknown #
coedge $-1 $384 $385 $162 $264 forward $374 $-1 #
edge $-1 $386 -30.347244400889977 $267 -25.066754737369145 $263 $387 forward 7 unknown #
edge $-1 $268 -7.7426719915513962 $386 9.739602292442716e-015 $163 $388 forward 7 unknown #
coedge $-1 $164 $378 $384 $389 forward $256 $-1 #
vertex $-1 $165 $390 #
vertex $-1 $165 $391 #
straight-curve $-1 -50.630379028595598 5.423134879006323 7.2404270119502172 1 0 0 I I #
coedge $-1 $270 $270 $-1 $392 reversed $168 $-1 #
edge $-1 $393 0 $393 6.2831853071796004 $169 $394 forward 7 unknown #
vertex $-1 $172 $395 #
ellipse-curve $-1 -40.0032432786806 8.5325329744664096 4.6001821801898028 -0.68199836817093118 0 0.7313536940579346 0.7313536940579346 0 0.68199836817093118 1 I I #
coedge $-1 $274 $274 $-1 $396 reversed $175 $-1 #
edge $-1 $397 0 $397 6.2831853071796004 $176 $398 forward 7 unknown #
vertex $-1 $179 $399 #
ellipse-curve $-1 -40.0032432786806 13.196630117656543 4.6001821801898028 -0.68199836817093118 0 0.7313536940579346 0.7313536940579346 0 0.68199836817093118 1 I I #
face $-1 $-1 $195 $27 $-1 $400 reversed single #
loop $-1 $-1 $294 $180 #
plane-surface $-1 0 28.362551633102139 0 0 -1 0 0 0 -1 forward_v I I I I #
coedge $-1 $401 $292 $295 $402 forward $181 $-1 #
coedge $-1 $298 $183 $184 $286 reversed $113 $-1 #
coedge $-1 $292 $401 $183 $284 reversed $181 $-1 #
edge $-1 $299 -7.2404270119502181 $403 7.2404270119502181 $283 $404 forward 7 unknown #
coedge $-1 $185 $184 $401 $405 forward $73 $-1 #
edge $-1 $290 -42.834559160130617 $403 42.834559160130617 $282 $406 forward 7 unknown #
coedge $-1 $295 $294 $185 $288 reversed $279 $-1 #
edge $-1 $407 -42.834559160130617 $289 42.834559160130617 $287 $408 forward 7 unknown #
vertex $-1 $187 $409 #
vertex $-1 $301 $410 #
straight-curve $-1 42.834559160130617 0 -7.2404270119502181 0 -1 0 I I #
coedge $-1 $281 $283 $188 $293 reversed $181 $-1 #
edge $-1 $296 -28.362551633102139 $299 28.362551633102139 $292 $411 forward 7 unknown #
coedge $-1 $287 $189 $194 $302 forward $279 $-1 #
coedge $-1 $189 $287 $281 $402 reversed $279 $-1 #
vertex $-1 $190 $412 #
straight-curve $-1 0 28.362551633102139 7.2404270119502181 -1 0 0 I I #
coedge $-1 $191 $282 $193 $301 reversed $113 $-1 #
vertex $-1 $293 $413 #
straight-curve $-1 0 -28.362551633102139 7.2404270119502181 1 0 0 I I #
edge $-1 $196 -7.2404270119502181 $290 7.2404270119502181 $193 $414 forward 7 unknown #
edge $-1 $197 -7.2404270119502181 $289 7.2404270119502181 $194 $415 forward 7 unknown #
point $-1 42.834559160130617 -28.362551633102139 7.2404270119502181 #
point $-1 42.834559160130617 28.362551633102139 7.2404270119502181 #
face $-1 $-1 $315 $28 $-1 $416 reversed single #
loop $-1 $-1 $311 $199 #
plane-surface $-1 0 0 -7.2404270119502181 0 0 1 1 0 0 forward_v I I I I #
coedge $-1 $417 $418 $207 $319 forward $200 $-1 #
coedge $-1 $202 $323 $313 $419 forward $121 $-1 #
edge $-1 $317 -15.64942944554792 $212 -9.776814929560512 $202 $420 forward 7 unknown #
coedge $-1 $421 $208 $203 $312 forward $306 $-1 #
edge $-1 $213 9.776814929560512 $316 15.64942944554792 $311 $422 forward 7 unknown #
coedge $-1 $423 $205 $309 $419 reversed $315 $-1 #
coedge $-1 $205 $423 $421 $424 reversed $315 $-1 #
loop $-1 $-1 $205 $305 #
vertex $-1 $424 $425 #
vertex $-1 $206 $426 #
straight-curve $-1 -39.490134617246888 -28.362551633102139 0 0 0 1 I I #
edge $-1 $324 -7.2404270119502181 $321 7.2404270119502181 $308 $427 forward 7 unknown #
coedge $-1 $208 $421 $417 $428 forward $306 $-1 #
vertex $-1 $209 $429 #
straight-curve $-1 -20.581173444344376 -22.489937117114728 -7.2404270119502181 1 0 0 I I #
coedge $-1 $309 $210 $418 $430 forward $121 $-1 #
vertex $-1 $430 $431 #
straight-curve $-1 -20.581173444344376 -22.489937117114728 7.2404270119502181 -1 0 0 I I #
point $-1 -39.490134617246888 -22.489937117114728 7.2404270119502181 #
point $-1 -39.490134617246888 -22.489937117114728 -7.2404270119502181 #
face $-1 $-1 $432 $29 $-1 $433 reversed single #
loop $-1 $-1 $334 $215 #
plane-surface $-1 0 0 7.2404270119502181 0 0 1 1 0 0 forward_v I I I I #
coedge $-1 $218 $339 $434 $435 forward $129 $-1 #
edge $-1 $436 -15.649429445547922 $337 -9.7768149295605067 $218 $437 forward 7 unknown #
coedge $-1 $220 $219 $438 $439 reversed $81 $-1 #
coedge $-1 $440 $225 $220 $335 forward $329 $-1 #
edge $-1 $336 9.7768149295605067 $441 15.649429445547922 $334 $442 forward 7 unknown #
vertex $-1 $226 $443 #
vertex $-1 $224 $444 #
straight-curve $-1 -39.490134617246888 22.489937117114721 0 0 0 -1 I I #
coedge $-1 $331 $223 $228 $345 forward $129 $-1 #
straight-curve $-1 -20.581173444344376 22.489937117114721 -7.2404270119502181 -1 0 0 I I #
coedge $-1 $225 $440 $227 $344 forward $329 $-1 #
straight-curve $-1 -20.581173444344376 22.489937117114721 7.2404270119502181 1 0 0 I I #
coedge $-1 $228 $227 $445 $446 forward $216 $-1 #
edge $-1 $447 -28.362551633102139 $230 -22.489937117114721 $227 $448 forward 7 unknown #
edge $-1 $229 22.489937117114721 $449 28.362551633102139 $228 $450 forward 7 unknown #
point $-1 -42.834559160130617 22.489937117114721 -7.2404270119502181 #
point $-1 -42.834559160130617 22.489937117114721 7.2404270119502181 #
loop $-1 $-1 $240 $232 #
plane-surface $-1 -42.834559160130617 0 0 1 0 0 0 0 -1 forward_v I I I I #
coedge $-1 $351 $235 $237 $355 reversed $137 $-1 #
coedge $-1 $235 $350 $451 $452 reversed $137 $-1 #
coedge $-1 $243 $238 $235 $353 forward $233 $-1 #
edge $-1 $356 -13.458451631365008 $453 -7.7958198684649815 $352 $454 forward 7 unknown #
coedge $-1 $237 $236 $359 $455 reversed $85 $-1 #
edge $-1 $456 -9.739602292442716e-015 $356 7.7426719915513962 $350 $457 forward 7 unknown #
vertex $-1 $239 $458 #
straight-curve $-1 -37.17192739723059 -5.8126777855266258 7.2404270119502181 0 1 0 I I #
coedge $-1 $451 $240 $243 $363 reversed $348 $-1 #
coedge $-1 $240 $451 $354 $455 forward $348 $-1 #
vertex $-1 $241 $459 #
straight-curve $-1 -42.834559160130617 -17.066802238108405 32.307181749319362 0 0 1 I I #
straight-curve $-1 -42.83455916013061 -17.066802238108405 1.959937348429392 -0.7313536940579346 0 -0.68199836817093118 I I #
edge $-1 $453 6.1839089039980983 $244 17.066802238108405 $358 $460 forward 7 unknown #
point $-1 -42.834559160130617 -17.066802238108405 7.2404270119502181 #
point $-1 -37.17192739723059 -17.066802238108405 7.2404270119502181 #
edge $-1 $461 1 $461 0 $247 $-1 forward 7 unknown #
vertex $-1 $248 $462 #
ellipse-curve $-1 -38.946038618111309 -13.957404142648318 3.4664690073031021 -0.68199836817093118 0 0.7313536940579346 0.7313536940579346 0 0.68199836817093118 1 I I #
point $-1 -39.27188958462267 -13.957404142648318 5.2821805483607411 #
edge $-1 $463 1 $463 0 $251 $-1 forward 7 unknown #
vertex $-1 $252 $464 #
ellipse-curve $-1 -38.946038618111309 -9.2933069994581885 3.4664690073031021 -0.68199836817093118 0 0.7313536940579346 0.7313536940579346 0 0.68199836817093118 1 I I #
point $-1 -39.27188958462267 -9.2933069994581885 5.2821805483607411 #
loop $-1 $-1 $263 $255 #
plane-surface $-1 -42.834559160130617 0 0 1 0 0 0 0 -1 forward_v I I I I #
coedge $-1 $377 $258 $260 $381 reversed $159 $-1 #
coedge $-1 $258 $376 $465 $466 reversed $159 $-1 #
coedge $-1 $266 $261 $258 $379 forward $256 $-1 #
edge $-1 $382 -13.458451631365008 $467 -7.7958198684649815 $378 $468 forward 7 unknown #
coedge $-1 $260 $259 $385 $469 reversed $99 $-1 #
edge $-1 $470 -9.739602292442716e-015 $382 7.7426719915513962 $376 $471 forward 7 unknown #
vertex $-1 $262 $472 #
straight-curve $-1 -37.17192739723059 5.4322907730307382 7.2404270119502181 0 1 0 I I #
coedge $-1 $465 $263 $266 $389 reversed $374 $-1 #
coedge $-1 $263 $465 $380 $469 forward $374 $-1 #
vertex $-1 $264 $473 #
straight-curve $-1 -42.834559160130617 5.423134879006323 32.307181749319362 0 0 1 I I #
straight-curve $-1 -42.83455916013061 5.423134879006323 1.959937348429392 -0.7313536940579346 0 -0.68199836817093118 I I #
edge $-1 $467 -16.30602821311663 $267 -5.423134879006323 $384 $474 forward 7 unknown #
point $-1 -42.834559160130617 5.423134879006323 7.2404270119502181 #
point $-1 -37.17192739723059 5.423134879006323 7.2404270119502181 #
edge $-1 $475 1 $475 0 $270 $-1 forward 7 unknown #
vertex $-1 $271 $476 #
ellipse-curve $-1 -38.946038618111309 8.5325329744664096 3.4664690073031021 -0.68199836817093118 0 0.7313536940579346 0.7313536940579346 0 0.68199836817093118 1 I I #
point $-1 -39.27188958462267 8.5325329744664096 5.2821805483607411 #
edge $-1 $477 1 $477 0 $274 $-1 forward 7 unknown #
vertex $-1 $275 $478 #
ellipse-curve $-1 -38.946038618111309 13.196630117656543 3.4664690073031021 -0.68199836817093118 0 0.7313536940579346 0.7313536940579346 0 0.68199836817093118 1 I I #
point $-1 -39.27188958462267 13.196630117656543 5.2821805483607411 #
plane-surface $-1 42.834559160130617 0 0 -1 0 0 0 0 1 forward_v I I I I #
coedge $-1 $283 $281 $285 $405 reversed $181 $-1 #
edge $-1 $296 -7.2404270119502181 $407 7.2404270119502181 $295 $479 forward 7 unknown #
vertex $-1 $405 $480 #
straight-curve $-1 -42.834559160130617 -28.362551633102139 0 0 0 -1 I I #
edge $-1 $403 -28.362551633102139 $407 28.362551633102139 $401 $481 forward 7 unknown #
straight-curve $-1 0 -28.362551633102139 -7.2404270119502181 -1 0 0 I I #
vertex $-1 $288 $482 #
straight-curve $-1 0 28.362551633102139 -7.2404270119502181 1 0 0 I I #
point $-1 42.834559160130617 28.362551633102139 -7.2404270119502181 #
point $-1 42.834559160130617 -28.362551633102139 -7.2404270119502181 #
straight-curve $-1 -42.834559160130617 0 7.2404270119502181 0 -1 0 I I #
point $-1 -42.834559160130617 28.362551633102139 7.2404270119502181 #
point $-1 -42.834559160130617 -28.362551633102139 7.2404270119502181 #
straight-curve $-1 42.834559160130617 -28.362551633102139 0 0 0 -1 I I #
straight-curve $-1 42.834559160130617 28.362551633102139 0 0 0 -1 I I #
plane-surface $-1 0 -28.362551633102139 0 0 1 0 0 0 1 forward_v I I I I #
coedge $-1 $483 $308 $320 $428 reversed $200 $-1 #
coedge $-1 $308 $483 $323 $430 reversed $200 $-1 #
edge $-1 $484 -42.834559160130617 $317 -39.490134617246888 $313 $485 forward 7 unknown #
straight-curve $-1 -39.490134617246888 -12.713122187554216 7.2404270119502181 0 1 0 I I #
coedge $-1 $320 $311 $314 $424 forward $306 $-1 #
straight-curve $-1 -39.490134617246888 -12.713122187554216 -7.2404270119502181 0 -1 0 I I #
coedge $-1 $314 $313 $483 $486 forward $315 $-1 #
edge $-1 $316 39.490134617246888 $487 42.834559160130617 $314 $488 forward 7 unknown #
point $-1 -39.490134617246888 -28.362551633102136 -7.2404270119502181 #
point $-1 -39.490134617246888 -28.362551633102136 7.2404270119502181 #
straight-curve $-1 -42.834559160130617 -22.489937117114728 0 0 0 -1 I I #
edge $-1 $487 -28.362551633102139 $321 -22.489937117114728 $417 $489 forward 7 unknown #
point $-1 -42.834559160130617 -22.489937117114728 -7.2404270119502181 #
edge $-1 $324 22.489937117114728 $484 28.362551633102139 $418 $490 forward 7 unknown #
point $-1 -42.834559160130617 -22.489937117114728 7.2404270119502181 #
loop $-1 $-1 $438 $328 #
plane-surface $-1 0 28.362551633102139 0 0 -1 0 0 0 -1 forward_v I I I I #
coedge $-1 $445 $438 $331 $435 reversed $432 $-1 #
edge $-1 $449 -42.834559160130617 $436 -39.490134617246888 $434 $491 forward 7 unknown #
vertex $-1 $332 $492 #
straight-curve $-1 -39.490134617246888 12.713122187554214 -7.2404270119502181 0 -1 0 I I #
coedge $-1 $434 $493 $333 $439 forward $432 $-1 #
edge $-1 $441 -7.2404270119502181 $436 7.2404270119502181 $438 $494 forward 7 unknown #
coedge $-1 $341 $334 $493 $495 forward $329 $-1 #
vertex $-1 $495 $496 #
straight-curve $-1 -39.490134617246888 12.713122187554214 7.2404270119502181 0 1 0 I I #
point $-1 -39.490134617246888 22.489937117114721 7.2404270119502181 #
point $-1 -39.490134617246888 22.489937117114721 -7.2404270119502181 #
coedge $-1 $493 $434 $343 $446 reversed $432 $-1 #
edge $-1 $447 -7.2404270119502181 $449 7.2404270119502181 $445 $497 forward 7 unknown #
vertex $-1 $495 $498 #
straight-curve $-1 -42.834559160130617 0 7.2404270119502181 0 -1 0 I I #
vertex $-1 $435 $499 #
straight-curve $-1 -42.834559160130617 0 -7.2404270119502181 0 1 0 I I #
coedge $-1 $359 $358 $351 $452 forward $348 $-1 #
edge $-1 $453 25.066754737369145 $456 30.347244400889977 $451 $500 forward 7 unknown #
vertex $-1 $363 $501 #
straight-curve $-1 -50.630379028595598 -6.1839089039980983 7.2404270119502172 -1 0 0 I I #
edge $-1 $456 0.3712311184714725 $360 11.254124452581779 $359 $502 forward 7 unknown #
vertex $-1 $455 $503 #
straight-curve $-1 -42.83455916013061 -6.1839089039980983 1.959937348429392 0.7313536940579346 0 0.68199836817093118 I I #
point $-1 -37.17192739723059 -6.1839089039980983 7.2404270119502181 #
point $-1 -42.834559160130617 -17.066802238108405 1.9599373484293854 #
straight-curve $-1 -42.834559160130617 0 7.2404270119502181 0 -1 0 I I #
vertex $-1 $366 $504 #
point $-1 -38.214684924053373 -13.957404142648318 4.1484673754740333 #
vertex $-1 $370 $505 #
point $-1 -38.214684924053373 -9.2933069994581885 4.1484673754740333 #
coedge $-1 $385 $384 $377 $466 forward $374 $-1 #
edge $-1 $467 25.066754737369145 $470 30.347244400889977 $465 $506 forward 7 unknown #
vertex $-1 $389 $507 #
straight-curve $-1 -50.630379028595598 16.30602821311663 7.2404270119502172 -1 0 0 I I #
edge $-1 $470 -10.873737440085891 $386 0.0091558940244151898 $385 $508 forward 7 unknown #
vertex $-1 $469 $509 #
straight-curve $-1 -42.83455916013061 16.30602821311663 1.959937348429392 0.7313536940579346 0 0.68199836817093118 I I #
point $-1 -37.17192739723059 16.30602821311663 7.2404270119502181 #
point $-1 -42.834559160130617 5.423134879006323 1.9599373484293854 #
straight-curve $-1 -42.834559160130617 0 7.2404270119502181 0 -1 0 I I #
vertex $-1 $392 $510 #
point $-1 -38.214684924053373 8.5325329744664096 4.1484673754740333 #
vertex $-1 $396 $511 #
point $-1 -38.214684924053373 13.196630117656543 4.1484673754740333 #
straight-curve $-1 -42.834559160130617 28.362551633102139 0 0 0 -1 I I #
point $-1 -42.834559160130617 -28.362551633102139 -7.2404270119502181 #
straight-curve $-1 -42.834559160130617 0 -7.2404270119502181 0 1 0 I I #
point $-1 -42.834559160130617 28.362551633102139 -7.2404270119502181 #
coedge $-1 $418 $417 $423 $486 reversed $200 $-1 #
vertex $-1 $430 $512 #
straight-curve $-1 0 -28.362551633102139 7.2404270119502181 1 0 0 I I #
edge $-1 $484 -7.2404270119502181 $487 7.2404270119502181 $483 $513 forward 7 unknown #
vertex $-1 $428 $514 #
straight-curve $-1 0 -28.362551633102139 -7.2404270119502181 -1 0 0 I I #
straight-curve $-1 -42.834559160130617 0 -7.2404270119502181 0 1 0 I I #
straight-curve $-1 -42.834559160130617 0 7.2404270119502181 0 -1 0 I I #
straight-curve $-1 0 28.362551633102139 -7.2404270119502181 1 0 0 I I #
point $-1 -39.490134617246888 28.362551633102136 -7.2404270119502181 #
coedge $-1 $438 $445 $440 $495 reversed $432 $-1 #
straight-curve $-1 -39.490134617246888 28.362551633102139 0 0 0 -1 I I #
edge $-1 $441 39.490134617246888 $447 42.834559160130617 $493 $515 forward 7 unknown #
point $-1 -39.490134617246888 28.362551633102136 7.2404270119502181 #
straight-curve $-1 -42.834559160130617 28.362551633102139 0 0 0 -1 I I #
point $-1 -42.834559160130617 28.362551633102139 7.2404270119502181 #
point $-1 -42.834559160130617 28.362551633102139 -7.2404270119502181 #
straight-curve $-1 -42.834559160130617 -6.1839089039980983 32.307181749319362 0 0 -1 I I #
point $-1 -42.834559160130617 -6.1839089039980983 7.2404270119502181 #
straight-curve $-1 -42.834559160130617 -5.8126777855266258 1.9599373484293789 0 -1 0 I I #
point $-1 -42.834559160130617 -6.1839089039980983 1.9599373484293854 #
point $-1 -38.264040249940372 -13.957404142648318 2.7351153132451671 #
point $-1 -38.264040249940372 -9.2933069994581885 2.7351153132451671 #
straight-curve $-1 -42.834559160130617 16.30602821311663 32.307181749319362 0 0 -1 I I #
point $-1 -42.834559160130617 16.30602821311663 7.2404270119502181 #
straight-curve $-1 -42.834559160130617 5.4322907730307382 1.9599373484293789 0 -1 0 I I #
point $-1 -42.834559160130617 16.30602821311663 1.9599373484293854 #
point $-1 -38.264040249940372 8.5325329744664096 2.7351153132451671 #
point $-1 -38.264040249940372 13.196630117656543 2.7351153132451671 #
point $-1 -42.834559160130617 -28.362551633102139 7.2404270119502181 #
straight-curve $-1 -42.834559160130617 -28.362551633102139 0 0 0 -1 I I #
point $-1 -42.834559160130617 -28.362551633102139 -7.2404270119502181 #
straight-curve $-1 0 28.362551633102139 7.2404270119502181 -1 0 0 I I #
End-of-ACIS-data 