500 0 8 0           
7 Unknown 11 ACIS 5.0 NT 24 Fri Mar 26 17:47:01 1999 
-1 9.9999999999999995e-007 1e-010 
body $-1 $8 $-1 $9 #
body $-1 $10 $-1 $11 #
body $-1 $12 $-1 $13 #
body $-1 $14 $-1 $15 #
body $-1 $16 $-1 $17 #
body $-1 $18 $-1 $19 #
body $-1 $20 $-1 $21 #
body $-1 $22 $-1 $23 #
lump $-1 $-1 $24 $0 #
transform $-1 1 0 0 0 1 0 0 0 1 61.438642536698509 31.028511372853831 12.175994291037602 1 rotate no_reflect no_shear #
lump $-1 $-1 $25 $1 #
transform $-1 1 0 0 0 1 0 0 0 1 61.438642536698509 31.028511372853831 12.175994291037602 1 rotate no_reflect no_shear #
lump $-1 $-1 $26 $2 #
transform $-1 1 0 0 0 1 0 0 0 1 61.438642536698509 31.028511372853831 12.175994291037602 1 rotate no_reflect no_shear #
lump $-1 $-1 $27 $3 #
transform $-1 1 0 0 0 1 0 0 0 1 61.438642536698509 31.028511372853831 12.175994291037602 1 rotate no_reflect no_shear #
lump $-1 $-1 $28 $4 #
transform $-1 1 0 0 0 1 0 0 0 1 61.438642536698509 31.028511372853831 12.175994291037602 1 rotate no_reflect no_shear #
lump $-1 $-1 $29 $5 #
transform $-1 1 0 0 0 1 0 0 0 1 61.438642536698509 31.028511372853831 12.175994291037602 1 rotate no_reflect no_shear #
lump $-1 $-1 $30 $6 #
transform $-1 1 0 0 0 1 0 0 0 1 61.438642536698509 31.028511372853831 12.175994291037602 1 rotate no_reflect no_shear #
lump $-1 $-1 $31 $7 #
transform $-1 1 0 0 0 1 0 0 0 1 61.438642536698509 31.028511372853831 12.175994291037602 1 rotate no_reflect no_shear #
shell $-1 $-1 $-1 $32 $-1 $8 #
shell $-1 $-1 $-1 $33 $-1 $10 #
shell $-1 $-1 $-1 $34 $-1 $12 #
shell $-1 $-1 $-1 $35 $-1 $14 #
shell $-1 $-1 $-1 $36 $-1 $16 #
shell $-1 $-1 $-1 $37 $-1 $18 #
shell $-1 $-1 $-1 $38 $-1 $20 #
shell $-1 $-1 $-1 $39 $-1 $22 #
face $-1 $40 $41 $24 $-1 $42 forward single #
face $-1 $43 $44 $25 $-1 $45 forward single #
face $-1 $46 $47 $26 $-1 $48 forward single #
face $-1 $49 $50 $27 $-1 $51 reversed single #
face $-1 $52 $53 $28 $-1 $54 forward single #
face $-1 $55 $56 $29 $-1 $57 reversed single #
face $-1 $58 $59 $30 $-1 $60 forward single #
face $-1 $61 $62 $31 $-1 $63 forward single #
face $-1 $64 $65 $24 $-1 $66 reversed single #
loop $-1 $-1 $67 $32 #
plane-surface $-1 0 0 12.175994291037602 0 0 1 1 0 0 forward_v I I I I #
face $-1 $68 $69 $25 $-1 $70 reversed single #
loop $-1 $-1 $71 $33 #
plane-surface $-1 -61.438642536698509 0 0 1 0 0 0 0 -1 forward_v I I I I #
face $-1 $72 $73 $26 $-1 $74 reversed single #
loop $-1 $-1 $75 $34 #
plane-surface $-1 61.438642536698509 0 0 -1 0 0 0 0 1 forward_v I I I I #
face $-1 $76 $77 $27 $-1 $78 reversed single #
loop $-1 $-1 $79 $35 #
plane-surface $-1 49.439957655613334 -99.740618076678714 110.60846098953972 -1 0 0 0 -0.55919291073839883 0.82903756765294845 forward_v I I I I #
face $-1 $80 $81 $28 $-1 $82 forward single #
loop $-1 $83 $84 $36 #
cone-surface $-1 40.158366435223755 -27.70158247775365 9.3026109011922777 0 0.55919291073839883 -0.82903756765294845 1.5 0 0 1 I I 0 1 1.5 forward I I I I #
face $-1 $85 $86 $29 $-1 $87 reversed single #
loop $-1 $-1 $88 $37 #
plane-surface $-1 10.659469255810912 104.39317437913975 118.54444764637637 1 0 0 0 -0.85716730853699208 -0.51503806187062418 forward_v I I I I #
face $-1 $89 $90 $30 $-1 $91 forward single #
loop $-1 $92 $93 $38 #
cone-surface $-1 15.65267455854935 26.993807482411356 6.5213159912612619 0 -0.85716730853699208 -0.51503806187062418 1.5 0 0 1 I I 0 1 1.5 forward I I I I #
face $-1 $94 $95 $31 $-1 $96 forward single #
loop $-1 $97 $98 $39 #
cone-surface $-1 23.142482512657011 26.993807482411356 6.5213159912612619 0 -0.85716730853699208 -0.51503806187062418 1.5 0 0 1 I I 0 1 1.5 forward I I I I #
face $-1 $99 $100 $24 $-1 $101 reversed single #
loop $-1 $-1 $102 $40 #
plane-surface $-1 0 0 -12.175994291037602 0 0 1 1 0 0 forward_v I I I I #
coedge $-1 $103 $104 $105 $106 forward $41 $-1 #
face $-1 $107 $108 $25 $-1 $109 reversed single #
loop $-1 $-1 $110 $43 #
plane-surface $-1 0 0 -12.175994291037602 0 0 1 1 0 0 forward_v I I I I #
coedge $-1 $111 $112 $113 $114 forward $44 $-1 #
face $-1 $115 $116 $26 $-1 $117 reversed single #
loop $-1 $-1 $118 $46 #
plane-surface $-1 0 0 -12.175994291037602 0 0 1 1 0 0 forward_v I I I I #
coedge $-1 $119 $120 $121 $122 forward $47 $-1 #
face $-1 $123 $124 $27 $-1 $125 reversed single #
loop $-1 $-1 $126 $49 #
plane-surface $-1 40.158366435223755 -31.028511372853828 8.7385754524927108 0 -0.55919291073839883 0.82903756765294845 1 0 0 forward_v I I I I #
coedge $-1 $127 $128 $129 $130 reversed $50 $-1 #
face $-1 $-1 $131 $28 $-1 $132 forward single #
loop $-1 $133 $134 $52 #
cone-surface $-1 40.158366435223755 -26.503350352644624 7.52615875487969 0 0.55919291073839883 -0.82903756765294845 0.75 0 0 1 I I -0.70710678118654757 0.70710678118654757 0.75 forward I I I I #
loop $-1 $-1 $135 $36 #
coedge $-1 $84 $84 $136 $137 reversed $53 $-1 #
face $-1 $138 $139 $29 $-1 $140 reversed single #
loop $-1 $-1 $141 $55 #
plane-surface $-1 19.397578535603188 -0.93321734755667762 55.257968894249792 0 0.85716730853699208 0.51503806187062418 1 0 0 forward_v I I I I #
coedge $-1 $142 $143 $144 $145 reversed $56 $-1 #
face $-1 $-1 $146 $30 $-1 $147 forward single #
loop $-1 $148 $149 $58 #
cone-surface $-1 15.65267455854935 25.35396195225589 5.5359974248544237 0 -0.85716730853699208 -0.51503806187062418 0.75 0 0 1 I I -0.70710678118654757 0.70710678118654757 0.75 forward I I I I #
loop $-1 $-1 $150 $38 #
coedge $-1 $93 $93 $151 $152 reversed $59 $-1 #
face $-1 $-1 $153 $31 $-1 $154 forward single #
loop $-1 $155 $156 $61 #
cone-surface $-1 23.142482512657011 25.35396195225589 5.5359974248544237 0 -0.85716730853699208 -0.51503806187062418 0.75 0 0 1 I I -0.70710678118654757 0.70710678118654757 0.75 forward I I I I #
loop $-1 $-1 $157 $39 #
coedge $-1 $98 $98 $158 $159 reversed $62 $-1 #
face $-1 $160 $161 $24 $-1 $162 reversed single #
loop $-1 $-1 $163 $64 #
plane-surface $-1 0 -31.028511372853831 0 0 1 0 0 0 1 forward_v I I I I #
coedge $-1 $164 $165 $166 $167 forward $65 $-1 #
coedge $-1 $168 $67 $169 $170 forward $41 $-1 #
coedge $-1 $67 $168 $171 $172 forward $41 $-1 #
coedge $-1 $173 $174 $67 $106 reversed $175 $-1 #
edge $-1 $176 -31.028511372853831 $177 31.028511372853831 $105 $178 forward 7 unknown #
face $-1 $179 $180 $25 $-1 $181 reversed single #
loop $-1 $-1 $182 $68 #
plane-surface $-1 -67.437984977241086 -9.6765227907786269 0 0 1 0 0 0 1 forward_v I I I I #
coedge $-1 $183 $184 $112 $185 forward $69 $-1 #
coedge $-1 $186 $71 $187 $188 reversed $44 $-1 #
coedge $-1 $71 $186 $110 $185 reversed $44 $-1 #
coedge $-1 $189 $190 $71 $114 reversed $191 $-1 #
edge $-1 $192 -12.175994291037602 $193 12.175994291037602 $113 $194 forward 7 unknown #
face $-1 $195 $196 $26 $-1 $197 reversed single #
loop $-1 $-1 $121 $72 #
plane-surface $-1 67.437984977241072 -9.6765227907786269 0 0 1 0 0 0 1 forward_v I I I I #
coedge $-1 $198 $199 $120 $200 forward $73 $-1 #
coedge $-1 $201 $75 $202 $203 reversed $47 $-1 #
coedge $-1 $75 $201 $118 $200 reversed $47 $-1 #
coedge $-1 $204 $205 $75 $122 reversed $116 $-1 #
edge $-1 $206 -12.175994291037602 $207 12.175994291037602 $121 $208 forward 7 unknown #
face $-1 $209 $210 $27 $-1 $211 forward single #
loop $-1 $-1 $212 $76 #
plane-surface $-1 30.876775214834176 -99.740618076678714 110.60846098953972 1 0 0 0 0.55919291073839883 -0.82903756765294845 forward_v I I I I #
coedge $-1 $213 $214 $215 $216 reversed $77 $-1 #
coedge $-1 $128 $79 $217 $218 reversed $50 $-1 #
coedge $-1 $79 $127 $213 $219 reversed $50 $-1 #
coedge $-1 $215 $220 $79 $130 forward $210 $-1 #
edge $-1 $221 18.841797665485526 $222 23.937980571575423 $129 $223 forward 7 unknown #
loop $-1 $-1 $136 $80 #
plane-surface $-1 40.158366435223755 -31.028511372853828 8.7385754524927108 0 -0.55919291073839883 0.82903756765294845 1 0 0 forward_v I I I I #
loop $-1 $-1 $224 $52 #
coedge $-1 $134 $134 $135 $225 reversed $81 $-1 #
coedge $-1 $135 $135 $134 $225 forward $83 $-1 #
coedge $-1 $136 $136 $84 $137 forward $131 $-1 #
edge $-1 $226 -1.3244348687123848e-015 $226 6.2831853071795996 $136 $227 forward 7 unknown #
face $-1 $228 $229 $29 $-1 $230 reversed single #
loop $-1 $-1 $231 $85 #
plane-surface $-1 28.135687815395464 104.39317437913975 118.54444764637637 -1 0 0 0 0.85716730853699208 0.51503806187062418 forward_v I I I I #
coedge $-1 $232 $233 $234 $235 reversed $86 $-1 #
coedge $-1 $143 $88 $236 $237 reversed $56 $-1 #
coedge $-1 $88 $142 $232 $238 reversed $56 $-1 #
coedge $-1 $234 $239 $88 $145 forward $240 $-1 #
edge $-1 $241 21.168075816716044 $242 27.243543500095562 $144 $243 forward 7 unknown #
loop $-1 $-1 $151 $89 #
plane-surface $-1 19.397578535603188 -0.93321734755667762 55.257968894249792 0 0.85716730853699208 0.51503806187062418 1 0 0 forward_v I I I I #
loop $-1 $-1 $244 $58 #
coedge $-1 $149 $149 $150 $245 reversed $90 $-1 #
coedge $-1 $150 $150 $149 $245 forward $92 $-1 #
coedge $-1 $151 $151 $93 $152 forward $146 $-1 #
edge $-1 $246 0 $246 6.2831853071796004 $151 $247 forward 7 unknown #
loop $-1 $-1 $158 $94 #
plane-surface $-1 19.397578535603188 -0.93321734755667762 55.257968894249792 0 0.85716730853699208 0.51503806187062418 1 0 0 forward_v I I I I #
loop $-1 $-1 $248 $61 #
coedge $-1 $156 $156 $157 $249 reversed $95 $-1 #
coedge $-1 $157 $157 $156 $249 forward $97 $-1 #
coedge $-1 $158 $158 $98 $159 forward $153 $-1 #
edge $-1 $250 0 $250 6.2831853071796004 $158 $251 forward 7 unknown #
face $-1 $252 $253 $24 $-1 $254 reversed single #
loop $-1 $-1 $255 $99 #
plane-surface $-1 -61.438642536698509 0 0 1 0 0 0 0 -1 forward_v I I I I #
coedge $-1 $256 $171 $257 $258 forward $100 $-1 #
coedge $-1 $259 $102 $256 $260 forward $65 $-1 #
coedge $-1 $102 $259 $261 $262 forward $65 $-1 #
coedge $-1 $174 $173 $102 $167 reversed $175 $-1 #
edge $-1 $263 -31.028511372853831 $264 31.028511372853831 $166 $265 forward 7 unknown #
coedge $-1 $104 $103 $266 $267 forward $41 $-1 #
coedge $-1 $268 $269 $103 $170 reversed $253 $-1 #
edge $-1 $177 -61.438642536698509 $270 61.438642536698509 $169 $271 forward 7 unknown #
coedge $-1 $163 $272 $104 $172 reversed $100 $-1 #
edge $-1 $273 -61.438642536698509 $176 61.438642536698509 $171 $274 forward 7 unknown #
coedge $-1 $166 $105 $272 $275 forward $175 $-1 #
coedge $-1 $105 $166 $268 $276 reversed $175 $-1 #
loop $-1 $-1 $173 $252 #
vertex $-1 $106 $277 #
vertex $-1 $106 $278 #
straight-curve $-1 61.438642536698509 0 12.175994291037602 0 1 0 I I #
face $-1 $279 $191 $25 $-1 $280 reversed single #
loop $-1 $-1 $281 $107 #
plane-surface $-1 -73.437327417783663 -8.1765227907786269 0 1 0 0 0 0 -1 forward_v I I I I #
coedge $-1 $282 $283 $284 $285 forward $108 $-1 #
coedge $-1 $286 $110 $282 $287 forward $69 $-1 #
coedge $-1 $110 $286 $189 $288 forward $69 $-1 #
edge $-1 $192 6.6765227907786269 $289 9.6765227907786269 $110 $290 forward 7 unknown #
coedge $-1 $112 $111 $291 $292 forward $44 $-1 #
coedge $-1 $293 $294 $111 $188 forward $295 $-1 #
edge $-1 $296 -9.6765227907786269 $193 -6.6765227907786269 $187 $297 forward 7 unknown #
coedge $-1 $298 $113 $184 $288 reversed $191 $-1 #
coedge $-1 $113 $298 $293 $299 reversed $191 $-1 #
loop $-1 $-1 $113 $179 #
vertex $-1 $185 $300 #
vertex $-1 $299 $301 #
straight-curve $-1 -61.438642536698509 -6.6765227907786269 0 0 0 1 I I #
face $-1 $302 $303 $26 $-1 $304 reversed single #
loop $-1 $-1 $305 $115 #
plane-surface $-1 67.437984977241072 -6.6765227907786269 0 0 -1 0 0 0 -1 forward_v I I I I #
coedge $-1 $306 $118 $307 $308 forward $73 $-1 #
coedge $-1 $118 $306 $204 $309 forward $73 $-1 #
edge $-1 $206 -9.6765227907786269 $310 -6.6765227907786269 $118 $311 forward 7 unknown #
coedge $-1 $120 $119 $312 $313 forward $47 $-1 #
coedge $-1 $314 $315 $119 $203 forward $316 $-1 #
edge $-1 $317 6.6765227907786269 $207 9.6765227907786269 $202 $318 forward 7 unknown #
coedge $-1 $319 $121 $199 $309 reversed $116 $-1 #
coedge $-1 $121 $319 $314 $320 reversed $116 $-1 #
vertex $-1 $200 $321 #
vertex $-1 $320 $322 #
straight-curve $-1 61.438642536698509 -9.6765227907786269 0 0 0 1 I I #
face $-1 $-1 $323 $27 $-1 $324 reversed single #
loop $-1 $-1 $129 $123 #
plane-surface $-1 0 0 12.175994291037602 0 0 1 1 0 0 forward_v I I I I #
coedge $-1 $325 $326 $327 $328 reversed $124 $-1 #
coedge $-1 $329 $126 $128 $219 forward $77 $-1 #
coedge $-1 $126 $329 $325 $330 forward $77 $-1 #
coedge $-1 $327 $129 $126 $216 forward $210 $-1 #
edge $-1 $222 -29.360774438001457 $331 -10.797591997222298 $215 $332 forward 7 unknown #
coedge $-1 $333 $334 $127 $218 forward $323 $-1 #
edge $-1 $335 -46.56565504227715 $221 -43.128236203732257 $217 $336 forward 7 unknown #
edge $-1 $222 -6.1471073265322236 $335 3.9386592583744142e-015 $128 $337 forward 7 unknown #
coedge $-1 $129 $327 $333 $338 forward $210 $-1 #
vertex $-1 $130 $339 #
vertex $-1 $130 $340 #
straight-curve $-1 49.439957655613334 -49.870309038339357 12.175994291037604 0 1 0 I I #
coedge $-1 $224 $224 $-1 $341 reversed $133 $-1 #
edge $-1 $342 0 $342 6.2831853071796004 $134 $343 forward 7 unknown #
vertex $-1 $137 $344 #
ellipse-curve $-1 40.158366435223755 -28.480419919808881 10.457284871765157 0 -0.55919291073839883 0.82903756765294845 1.5 0 0 1 I I #
face $-1 $-1 $240 $29 $-1 $345 forward single #
loop $-1 $-1 $346 $138 #
plane-surface $-1 0 31.028511372853831 0 0 -1 0 0 0 -1 forward_v I I I I #
coedge $-1 $347 $348 $349 $350 reversed $139 $-1 #
coedge $-1 $351 $141 $143 $238 forward $86 $-1 #
coedge $-1 $141 $351 $347 $352 forward $86 $-1 #
coedge $-1 $349 $144 $141 $235 forward $240 $-1 #
edge $-1 $242 0.96067998800931775 $353 18.43689854759387 $234 $354 forward 7 unknown #
coedge $-1 $355 $356 $142 $237 forward $229 $-1 #
edge $-1 $357 -57.207506091695507 $241 -47.096229532150581 $236 $358 forward 7 unknown #
edge $-1 $242 50.260869930683953 $357 62.057022745707648 $143 $359 forward 7 unknown #
coedge $-1 $144 $349 $355 $360 forward $240 $-1 #
loop $-1 $-1 $349 $228 #
vertex $-1 $237 $361 #
vertex $-1 $145 $362 #
straight-curve $-1 10.659469255810912 52.196587189569875 12.175994291037604 0 -1 0 I I #
coedge $-1 $244 $244 $-1 $363 reversed $148 $-1 #
edge $-1 $364 0 $364 6.2831853071796004 $149 $365 forward 7 unknown #
vertex $-1 $152 $366 #
ellipse-curve $-1 15.65267455854935 27.990777531164078 7.1203560112651321 0 0.85716730853699208 0.51503806187062418 1.5 0 0 1 I I #
coedge $-1 $248 $248 $-1 $367 reversed $155 $-1 #
edge $-1 $368 0 $368 6.2831853071796004 $156 $369 forward 7 unknown #
vertex $-1 $159 $370 #
ellipse-curve $-1 23.142482512657011 27.990777531164078 7.1203560112651321 0 0.85716730853699208 0.51503806187062418 1.5 0 0 1 I I #
face $-1 $-1 $175 $24 $-1 $371 reversed single #
loop $-1 $-1 $268 $160 #
plane-surface $-1 0 31.028511372853831 0 0 -1 0 0 0 -1 forward_v I I I I #
coedge $-1 $372 $266 $269 $373 forward $161 $-1 #
coedge $-1 $272 $163 $164 $260 reversed $100 $-1 #
coedge $-1 $266 $372 $163 $258 reversed $161 $-1 #
edge $-1 $273 -12.175994291037602 $374 12.175994291037602 $257 $375 forward 7 unknown #
coedge $-1 $165 $164 $372 $376 forward $65 $-1 #
edge $-1 $264 -61.438642536698509 $374 61.438642536698509 $256 $377 forward 7 unknown #
coedge $-1 $269 $268 $165 $262 reversed $253 $-1 #
edge $-1 $378 -61.438642536698509 $263 61.438642536698509 $261 $379 forward 7 unknown #
vertex $-1 $167 $380 #
vertex $-1 $275 $381 #
straight-curve $-1 61.438642536698509 0 -12.175994291037602 0 -1 0 I I #
coedge $-1 $255 $257 $168 $267 reversed $161 $-1 #
edge $-1 $270 -31.028511372853831 $273 31.028511372853831 $266 $382 forward 7 unknown #
coedge $-1 $261 $169 $174 $276 forward $253 $-1 #
coedge $-1 $169 $261 $255 $373 reversed $253 $-1 #
vertex $-1 $170 $383 #
straight-curve $-1 0 31.028511372853831 12.175994291037602 -1 0 0 I I #
coedge $-1 $171 $256 $173 $275 reversed $100 $-1 #
vertex $-1 $267 $384 #
straight-curve $-1 0 -31.028511372853831 12.175994291037602 1 0 0 I I #
edge $-1 $176 -12.175994291037602 $264 12.175994291037602 $173 $385 forward 7 unknown #
edge $-1 $177 -12.175994291037602 $263 12.175994291037602 $174 $386 forward 7 unknown #
point $-1 61.438642536698509 -31.028511372853831 12.175994291037602 #
point $-1 61.438642536698509 31.028511372853831 12.175994291037602 #
face $-1 $-1 $295 $25 $-1 $387 forward single #
plane-surface $-1 -67.437984977241086 -6.6765227907786269 0 0 -1 0 0 0 -1 forward_v I I I I #
coedge $-1 $388 $389 $298 $390 forward $180 $-1 #
coedge $-1 $291 $182 $183 $287 reversed $108 $-1 #
coedge $-1 $182 $291 $294 $391 reversed $108 $-1 #
coedge $-1 $389 $388 $182 $285 reversed $180 $-1 #
edge $-1 $392 -12.175994291037602 $393 12.175994291037602 $284 $394 forward 7 unknown #
coedge $-1 $184 $183 $388 $395 forward $69 $-1 #
edge $-1 $289 -5.9993424405425841 $393 5.999342440542577 $282 $396 forward 7 unknown #
edge $-1 $397 -5.999342440542577 $192 5.9993424405425841 $189 $398 forward 7 unknown #
vertex $-1 $287 $399 #
straight-curve $-1 -61.438642536698509 0 -12.175994291037602 0 -1 0 I I #
coedge $-1 $283 $282 $186 $292 reversed $108 $-1 #
edge $-1 $296 -12.175994291037602 $289 12.175994291037602 $291 $400 forward 7 unknown #
coedge $-1 $401 $187 $190 $299 forward $295 $-1 #
coedge $-1 $187 $401 $283 $391 forward $295 $-1 #
loop $-1 $-1 $187 $279 #
vertex $-1 $188 $402 #
straight-curve $-1 -61.438642536698509 0 12.175994291037602 0 1 0 I I #
coedge $-1 $190 $189 $281 $390 reversed $191 $-1 #
edge $-1 $193 -5.9993424405425841 $403 5.999342440542577 $190 $404 forward 7 unknown #
point $-1 -61.438642536698502 -6.6765227907786269 -12.175994291037602 #
point $-1 -61.438642536698502 -6.6765227907786269 12.175994291037602 #
face $-1 $-1 $316 $26 $-1 $405 forward single #
loop $-1 $-1 $406 $195 #
plane-surface $-1 73.437327417783649 -8.1765227907786269 0 -1 0 0 0 0 1 forward_v I I I I #
coedge $-1 $307 $407 $408 $409 forward $196 $-1 #
coedge $-1 $199 $198 $410 $411 forward $73 $-1 #
coedge $-1 $312 $305 $198 $308 reversed $196 $-1 #
edge $-1 $310 -5.999342440542577 $412 5.999342440542577 $307 $413 forward 7 unknown #
edge $-1 $414 -5.999342440542577 $206 5.999342440542577 $204 $415 forward 7 unknown #
vertex $-1 $308 $416 #
straight-curve $-1 61.438642536698509 0 -12.175994291037602 0 1 0 I I #
coedge $-1 $407 $307 $201 $313 reversed $196 $-1 #
edge $-1 $317 -12.175994291037602 $310 12.175994291037602 $312 $417 forward 7 unknown #
coedge $-1 $418 $202 $205 $320 forward $316 $-1 #
coedge $-1 $202 $418 $407 $419 forward $316 $-1 #
loop $-1 $-1 $202 $302 #
vertex $-1 $203 $420 #
straight-curve $-1 61.438642536698509 0 12.175994291037602 0 -1 0 I I #
coedge $-1 $205 $204 $406 $421 reversed $116 $-1 #
edge $-1 $207 -5.999342440542577 $422 5.999342440542577 $205 $423 forward 7 unknown #
point $-1 61.438642536698495 -9.6765227907786269 -12.175994291037602 #
point $-1 61.438642536698495 -9.6765227907786269 12.175994291037602 #
loop $-1 $-1 $217 $209 #
plane-surface $-1 0 -31.028511372853831 0 0 1 0 0 0 1 forward_v I I I I #
coedge $-1 $326 $212 $214 $330 reversed $124 $-1 #
coedge $-1 $212 $325 $424 $425 reversed $124 $-1 #
coedge $-1 $220 $215 $212 $328 forward $210 $-1 #
edge $-1 $331 -23.937980571575423 $426 -18.841797665485526 $327 $427 forward 7 unknown #
coedge $-1 $214 $213 $334 $428 reversed $77 $-1 #
edge $-1 $429 -3.9386592583744142e-015 $331 6.1471073265322236 $325 $430 forward 7 unknown #
vertex $-1 $216 $431 #
straight-curve $-1 20.079183217611877 -25.932328466763934 12.175994291037602 -1 0 0 I I #
coedge $-1 $424 $217 $220 $338 reversed $323 $-1 #
coedge $-1 $217 $424 $329 $428 forward $323 $-1 #
vertex $-1 $218 $432 #
straight-curve $-1 49.439957655613334 -31.028511372853828 55.304230494769861 0 0 1 I I #
straight-curve $-1 49.439957655613334 -31.028511372853828 8.7385754524927108 0 -0.82903756765294845 -0.55919291073839883 I I #
edge $-1 $426 30.876775214834176 $221 49.439957655613334 $333 $433 forward 7 unknown #
point $-1 49.439957655613334 -31.028511372853831 12.175994291037602 #
point $-1 49.439957655613334 -25.932328466763934 12.175994291037602 #
edge $-1 $434 1 $434 0 $224 $-1 forward 7 unknown #
vertex $-1 $225 $435 #
ellipse-curve $-1 40.158366435223755 -26.922745035698423 8.1479369306194016 0 -0.55919291073839883 0.82903756765294845 1.5 0 0 1 I I #
point $-1 41.658366435223755 -28.480419919808881 10.457284871765154 #
plane-surface $-1 0 0 12.175994291037602 0 0 1 1 0 0 forward_v I I I I #
coedge $-1 $356 $355 $348 $436 forward $229 $-1 #
coedge $-1 $348 $231 $233 $352 reversed $139 $-1 #
coedge $-1 $231 $347 $346 $436 reversed $139 $-1 #
coedge $-1 $239 $234 $231 $350 forward $240 $-1 #
edge $-1 $353 -27.243543500095562 $437 -21.168075816716044 $349 $438 forward 7 unknown #
coedge $-1 $233 $232 $356 $439 reversed $86 $-1 #
edge $-1 $440 -62.057022745707648 $353 -50.260869930683953 $347 $441 forward 7 unknown #
vertex $-1 $235 $442 #
straight-curve $-1 9.6987892678015939 24.953043689474306 12.175994291037604 1 0 0 I I #
coedge $-1 $346 $236 $239 $360 reversed $229 $-1 #
coedge $-1 $236 $346 $351 $439 forward $229 $-1 #
vertex $-1 $237 $443 #
straight-curve $-1 10.659469255810912 31.028511372853828 59.272223823188185 0 0 1 I I #
straight-curve $-1 10.659469255810912 -0.93321734755667762 55.257968894249792 0 0.51503806187062418 -0.85716730853699208 I I #
edge $-1 $437 -28.135687815395464 $241 -10.659469255810912 $355 $444 forward 7 unknown #
point $-1 10.659469255810912 31.028511372853831 12.175994291037602 #
point $-1 10.659469255810912 24.953043689474313 12.175994291037604 #
edge $-1 $445 1 $445 0 $244 $-1 forward 7 unknown #
vertex $-1 $245 $446 #
ellipse-curve $-1 15.65267455854935 25.996837433658634 5.9222759712573918 0 0.85716730853699208 0.51503806187062418 1.5 0 0 1 I I #
point $-1 17.15267455854935 27.990777531164078 7.1203560112651321 #
edge $-1 $447 1 $447 0 $248 $-1 forward 7 unknown #
vertex $-1 $249 $448 #
ellipse-curve $-1 23.142482512657011 25.996837433658634 5.9222759712573918 0 0.85716730853699208 0.51503806187062418 1.5 0 0 1 I I #
point $-1 24.642482512657011 27.990777531164078 7.1203560112651321 #
plane-surface $-1 61.438642536698509 0 0 -1 0 0 0 0 1 forward_v I I I I #
coedge $-1 $257 $255 $259 $376 reversed $161 $-1 #
edge $-1 $270 -12.175994291037602 $378 12.175994291037602 $269 $449 forward 7 unknown #
vertex $-1 $376 $450 #
straight-curve $-1 -61.438642536698509 -31.028511372853831 0 0 0 -1 I I #
edge $-1 $374 -31.028511372853831 $378 31.028511372853831 $372 $451 forward 7 unknown #
straight-curve $-1 0 -31.028511372853831 -12.175994291037602 -1 0 0 I I #
vertex $-1 $262 $452 #
straight-curve $-1 0 31.028511372853831 -12.175994291037602 1 0 0 I I #
point $-1 61.438642536698509 31.028511372853831 -12.175994291037602 #
point $-1 61.438642536698509 -31.028511372853831 -12.175994291037602 #
straight-curve $-1 -61.438642536698509 0 12.175994291037602 0 -1 0 I I #
point $-1 -61.438642536698509 31.028511372853831 12.175994291037602 #
point $-1 -61.438642536698509 -31.028511372853831 12.175994291037602 #
straight-curve $-1 61.438642536698509 -31.028511372853831 0 0 0 -1 I I #
straight-curve $-1 61.438642536698509 31.028511372853831 0 0 0 -1 I I #
plane-surface $-1 0 0 12.175994291037602 0 0 1 1 0 0 forward_v I I I I #
coedge $-1 $284 $281 $286 $395 reversed $180 $-1 #
coedge $-1 $281 $284 $401 $453 reversed $180 $-1 #
edge $-1 $403 -12.175994291037602 $397 12.175994291037602 $298 $454 forward 7 unknown #
edge $-1 $392 -5.999342440542577 $296 5.9993424405425841 $283 $455 forward 7 unknown #
vertex $-1 $453 $456 #
vertex $-1 $395 $457 #
straight-curve $-1 -73.437327417783663 -9.6765227907786269 0 0 0 -1 I I #
edge $-1 $393 -1.5 $397 1.5 $388 $458 forward 7 unknown #
straight-curve $-1 -67.437984977241086 -9.6765227907786269 -12.175994291037602 -1 0 0 I I #
vertex $-1 $288 $459 #
straight-curve $-1 -67.437984977241086 -6.6765227907786269 -12.175994291037602 1 0 0 I I #
point $-1 -61.438642536698502 -9.6765227907786269 -12.175994291037602 #
straight-curve $-1 -61.438642536698509 -9.6765227907786269 0 0 0 -1 I I #
coedge $-1 $294 $293 $389 $453 forward $295 $-1 #
point $-1 -61.438642536698502 -9.6765227907786269 12.175994291037602 #
vertex $-1 $299 $460 #
straight-curve $-1 -67.437984977241086 -6.6765227907786269 12.175994291037602 -1 0 0 I I #
plane-surface $-1 0 0 12.175994291037602 0 0 1 1 0 0 forward_v I I I I #
coedge $-1 $410 $461 $319 $421 forward $303 $-1 #
coedge $-1 $305 $312 $315 $419 reversed $196 $-1 #
coedge $-1 $461 $410 $305 $409 reversed $303 $-1 #
edge $-1 $462 -12.175994291037602 $412 12.175994291037602 $408 $463 forward 7 unknown #
coedge $-1 $408 $406 $306 $411 reversed $303 $-1 #
edge $-1 $412 -1.5 $414 1.5 $410 $464 forward 7 unknown #
vertex $-1 $411 $465 #
straight-curve $-1 67.437984977241072 -6.6765227907786269 -12.175994291037602 1 0 0 I I #
vertex $-1 $421 $466 #
straight-curve $-1 67.437984977241072 -9.6765227907786269 -12.175994291037602 -1 0 0 I I #
point $-1 61.438642536698495 -6.6765227907786269 -12.175994291037602 #
straight-curve $-1 61.438642536698509 -6.6765227907786269 0 0 0 -1 I I #
coedge $-1 $315 $314 $461 $467 forward $316 $-1 #
edge $-1 $462 -5.999342440542577 $317 5.999342440542577 $407 $468 forward 7 unknown #
point $-1 61.438642536698495 -6.6765227907786269 12.175994291037602 #
edge $-1 $422 -12.175994291037602 $414 12.175994291037602 $406 $469 forward 7 unknown #
vertex $-1 $467 $470 #
straight-curve $-1 67.437984977241072 -9.6765227907786269 12.175994291037602 1 0 0 I I #
coedge $-1 $334 $333 $326 $425 forward $323 $-1 #
edge $-1 $426 43.128236203732257 $429 46.56565504227715 $424 $471 forward 7 unknown #
vertex $-1 $338 $472 #
straight-curve $-1 30.876775214834176 -49.870309038339357 12.175994291037604 0 -1 0 I I #
edge $-1 $429 10.797591997222298 $335 29.360774438001457 $334 $473 forward 7 unknown #
vertex $-1 $428 $474 #
straight-curve $-1 30.876775214834176 -31.028511372853828 8.7385754524927108 0 0.82903756765294845 0.55919291073839883 I I #
point $-1 30.876775214834176 -25.932328466763934 12.175994291037602 #
point $-1 49.439957655613334 -31.028511372853831 8.7385754524927091 #
straight-curve $-1 0 -31.028511372853831 12.175994291037602 1 0 0 I I #
vertex $-1 $341 $475 #
point $-1 41.658366435223755 -26.922745035698423 8.1479369306194016 #
edge $-1 $437 47.096229532150581 $440 57.207506091695507 $346 $476 forward 7 unknown #
vertex $-1 $360 $477 #
straight-curve $-1 28.135687815395464 52.196587189569875 12.175994291037604 0 1 0 I I #
edge $-1 $440 -18.43689854759387 $357 -0.96067998800931775 $356 $478 forward 7 unknown #
vertex $-1 $439 $479 #
straight-curve $-1 28.135687815395464 -0.93321734755667762 55.257968894249792 0 -0.51503806187062418 0.85716730853699208 I I #
point $-1 28.135687815395464 24.953043689474313 12.175994291037604 #
point $-1 10.659469255810912 31.028511372853828 2.0647177314926779 #
straight-curve $-1 0 31.028511372853831 12.175994291037602 -1 0 0 I I #
vertex $-1 $363 $480 #
point $-1 17.15267455854935 25.996837433658634 5.9222759712573918 #
vertex $-1 $367 $481 #
point $-1 24.642482512657011 25.996837433658634 5.9222759712573918 #
straight-curve $-1 -61.438642536698509 31.028511372853831 0 0 0 -1 I I #
point $-1 -61.438642536698509 -31.028511372853831 -12.175994291037602 #
straight-curve $-1 -61.438642536698509 0 -12.175994291037602 0 1 0 I I #
point $-1 -61.438642536698509 31.028511372853831 -12.175994291037602 #
edge $-1 $403 -1.5 $392 1.5 $389 $482 forward 7 unknown #
straight-curve $-1 -73.437327417783663 -6.6765227907786269 0 0 0 -1 I I #
straight-curve $-1 -67.437984977241086 -9.6765227907786269 12.175994291037602 1 0 0 I I #
point $-1 -73.437327417783663 -9.6765227907786269 12.175994291037602 #
point $-1 -73.437327417783663 -9.6765227907786269 -12.175994291037602 #
straight-curve $-1 -73.437327417783663 -8.1765227907786269 -12.175994291037602 0 1 0 I I #
point $-1 -73.437327417783663 -6.6765227907786269 -12.175994291037602 #
point $-1 -73.437327417783663 -6.6765227907786269 12.175994291037602 #
coedge $-1 $406 $408 $418 $467 reversed $303 $-1 #
vertex $-1 $467 $483 #
straight-curve $-1 73.437327417783649 -6.6765227907786269 0 0 0 -1 I I #
straight-curve $-1 73.437327417783649 -8.1765227907786269 -12.175994291037602 0 -1 0 I I #
point $-1 73.437327417783649 -6.6765227907786269 -12.175994291037602 #
point $-1 73.437327417783649 -9.6765227907786269 -12.175994291037602 #
edge $-1 $422 -1.5 $462 1.5 $461 $484 forward 7 unknown #
straight-curve $-1 67.437984977241072 -6.6765227907786269 12.175994291037602 -1 0 0 I I #
straight-curve $-1 73.437327417783649 -9.6765227907786269 0 0 0 -1 I I #
point $-1 73.437327417783649 -9.6765227907786269 12.175994291037602 #
straight-curve $-1 30.876775214834176 -31.028511372853828 55.304230494769861 0 0 -1 I I #
point $-1 30.876775214834176 -31.028511372853831 12.175994291037602 #
straight-curve $-1 20.079183217611877 -31.028511372853831 8.7385754524927055 1 0 0 I I #
point $-1 30.876775214834176 -31.028511372853831 8.7385754524927091 #
point $-1 40.158366435223755 -26.083955669590825 6.9043805791399784 #
straight-curve $-1 28.135687815395464 31.028511372853828 59.272223823188185 0 0 -1 I I #
point $-1 28.135687815395464 31.028511372853831 12.175994291037602 #
straight-curve $-1 9.6987892678015939 31.028511372853828 2.0647177314926672 -1 0 0 I I #
point $-1 28.135687815395464 31.028511372853828 2.0647177314926779 #
point $-1 15.65267455854935 24.711086470853147 5.1497188784514556 #
point $-1 23.142482512657011 24.711086470853147 5.1497188784514556 #
straight-curve $-1 -73.437327417783663 -8.1765227907786269 12.175994291037602 0 -1 0 I I #
point $-1 73.437327417783649 -6.6765227907786269 12.175994291037602 #
straight-curve $-1 73.437327417783649 -8.1765227907786269 12.175994291037602 0 1 0 I I #
End-of-ACIS-data 