500 0 4 0           
7 Unknown 11 ACIS 5.0 NT 24 Fri Mar 26 03:21:26 1999 
-1 9.9999999999999995e-007 1e-010 
body $-1 $4 $-1 $5 #
body $-1 $6 $-1 $7 #
body $-1 $8 $-1 $9 #
body $-1 $10 $-1 $11 #
lump $-1 $-1 $12 $0 #
transform $-1 1 0 0 0 1 0 0 0 1 42.550126651814324 28.499897447209058 10.751107283714155 1 rotate no_reflect no_shear #
lump $-1 $-1 $13 $1 #
transform $-1 1 0 0 0 0.68199835119979291 0.73135370988377701 0 -0.73135370988377701 0.68199835119979291 10.716939000969219 -62.238385965657969 75.867692433534927 1 rotate no_reflect no_shear #
lump $-1 $-1 $14 $2 #
transform $-1 1 0 0 0 -0.68199835119979291 -0.73135370988377701 0 0.73135370988377701 -0.68199835119979291 6.1239651434109827 2.855949922937894 18.599505894517002 1 rotate no_reflect no_shear #
lump $-1 $-1 $15 $3 #
transform $-1 1 0 0 0 -0.68199835119979291 -0.73135370988377701 0 0.73135370988377701 -0.68199835119979291 15.309912858527456 2.855949922937894 18.599505894517002 1 rotate no_reflect no_shear #
shell $-1 $-1 $-1 $16 $-1 $4 #
shell $-1 $-1 $-1 $17 $-1 $6 #
shell $-1 $-1 $-1 $18 $-1 $8 #
shell $-1 $-1 $-1 $19 $-1 $10 #
face $-1 $20 $21 $12 $-1 $22 forward single #
face $-1 $23 $24 $13 $-1 $25 forward single #
face $-1 $26 $27 $14 $-1 $28 forward single #
face $-1 $29 $30 $15 $-1 $31 forward single #
face $-1 $32 $33 $12 $-1 $34 reversed single #
loop $-1 $-1 $35 $16 #
plane-surface $-1 0 0 10.751107283714155 0 0 1 1 0 0 forward_v I I I I #
face $-1 $36 $37 $13 $-1 $38 reversed single #
loop $-1 $-1 $39 $17 #
plane-surface $-1 0 0 85.100253303628648 0 0 1 1 0 0 forward_v I I I I #
face $-1 $40 $41 $14 $-1 $42 forward single #
loop $-1 $43 $44 $18 #
cone-surface $-1 0 0 -1.0317697683645122 0 0 1 1 0 0 1 I I 0 1 1 forward I I I I #
face $-1 $45 $46 $15 $-1 $47 forward single #
loop $-1 $48 $49 $19 #
cone-surface $-1 0 0 -1.0317697683645122 0 0 1 1 0 0 1 I I 0 1 1 forward I I I I #
face $-1 $50 $51 $12 $-1 $52 reversed single #
loop $-1 $-1 $53 $20 #
plane-surface $-1 0 0 -10.751107283714155 0 0 1 1 0 0 forward_v I I I I #
coedge $-1 $54 $55 $56 $57 forward $21 $-1 #
face $-1 $58 $59 $13 $-1 $60 reversed single #
loop $-1 $-1 $61 $23 #
plane-surface $-1 0 0 -85.100253303628648 0 0 1 1 0 0 forward_v I I I I #
coedge $-1 $62 $63 $64 $65 forward $24 $-1 #
face $-1 $-1 $66 $14 $-1 $67 forward single #
loop $-1 $-1 $68 $26 #
plane-surface $-1 0 0 -1.5635395367290243 0 0 -1 -1 0 0 forward_v I I I I #
loop $-1 $-1 $69 $18 #
coedge $-1 $44 $44 $68 $70 reversed $27 $-1 #
face $-1 $-1 $71 $15 $-1 $72 forward single #
loop $-1 $-1 $73 $29 #
plane-surface $-1 0 0 -1.5635395367290243 0 0 -1 -1 0 0 forward_v I I I I #
loop $-1 $-1 $74 $19 #
coedge $-1 $49 $49 $73 $75 reversed $30 $-1 #
face $-1 $76 $77 $12 $-1 $78 reversed single #
loop $-1 $-1 $79 $32 #
plane-surface $-1 0 -28.499897447209058 0 0 1 0 0 0 1 forward_v I I I I #
coedge $-1 $80 $81 $82 $83 forward $33 $-1 #
coedge $-1 $84 $35 $85 $86 forward $21 $-1 #
coedge $-1 $35 $84 $87 $88 forward $21 $-1 #
coedge $-1 $89 $90 $35 $57 reversed $91 $-1 #
edge $-1 $92 -28.499897447209058 $93 28.499897447209058 $56 $94 forward 7 unknown #
face $-1 $95 $96 $13 $-1 $97 reversed single #
loop $-1 $-1 $98 $36 #
plane-surface $-1 0 -170.2005066072573 0 0 1 0 0 0 1 forward_v I I I I #
coedge $-1 $99 $100 $101 $102 forward $37 $-1 #
coedge $-1 $103 $39 $104 $105 forward $24 $-1 #
coedge $-1 $39 $103 $106 $107 forward $24 $-1 #
coedge $-1 $108 $109 $39 $65 reversed $110 $-1 #
edge $-1 $111 -170.2005066072573 $112 170.2005066072573 $64 $113 forward 7 unknown #
loop $-1 $114 $115 $40 #
cone-surface $-1 0 0 0 0 0 1 0.5 0 0 1 I I -0.70710678118654691 0.70710678118654813 0.5 forward I I I I #
coedge $-1 $68 $68 $44 $70 forward $41 $-1 #
coedge $-1 $69 $69 $115 $116 forward $43 $-1 #
edge $-1 $117 0 $117 6.2831853071796004 $68 $118 forward 7 unknown #
loop $-1 $119 $120 $45 #
cone-surface $-1 0 0 0 0 0 1 0.5 0 0 1 I I -0.70710678118654691 0.70710678118654813 0.5 forward I I I I #
coedge $-1 $73 $73 $49 $75 forward $46 $-1 #
coedge $-1 $74 $74 $120 $121 forward $48 $-1 #
edge $-1 $122 0 $122 6.2831853071796004 $73 $123 forward 7 unknown #
face $-1 $124 $125 $12 $-1 $126 reversed single #
loop $-1 $-1 $127 $50 #
plane-surface $-1 -42.550126651814324 0 0 1 0 0 0 0 -1 forward_v I I I I #
coedge $-1 $128 $87 $129 $130 forward $51 $-1 #
coedge $-1 $131 $53 $128 $132 forward $33 $-1 #
coedge $-1 $53 $131 $133 $134 forward $33 $-1 #
coedge $-1 $90 $89 $53 $83 reversed $91 $-1 #
edge $-1 $135 -28.499897447209058 $136 28.499897447209058 $82 $137 forward 7 unknown #
coedge $-1 $55 $54 $138 $139 forward $21 $-1 #
coedge $-1 $140 $141 $54 $86 reversed $125 $-1 #
edge $-1 $93 -42.550126651814324 $142 42.550126651814324 $85 $143 forward 7 unknown #
coedge $-1 $79 $144 $55 $88 reversed $51 $-1 #
edge $-1 $145 -42.550126651814324 $92 42.550126651814324 $87 $146 forward 7 unknown #
coedge $-1 $82 $56 $144 $147 forward $91 $-1 #
coedge $-1 $56 $82 $140 $148 reversed $91 $-1 #
loop $-1 $-1 $89 $124 #
vertex $-1 $57 $149 #
vertex $-1 $57 $150 #
straight-curve $-1 42.550126651814324 0 10.751107283714155 0 1 0 I I #
face $-1 $151 $152 $13 $-1 $153 reversed single #
loop $-1 $-1 $154 $58 #
plane-surface $-1 -10.716939000969219 0 0 1 0 0 0 0 -1 forward_v I I I I #
coedge $-1 $155 $106 $156 $157 forward $59 $-1 #
coedge $-1 $158 $61 $155 $159 forward $37 $-1 #
coedge $-1 $61 $158 $160 $161 forward $37 $-1 #
coedge $-1 $109 $108 $61 $102 reversed $110 $-1 #
edge $-1 $162 -170.2005066072573 $163 170.2005066072573 $101 $164 forward 7 unknown #
coedge $-1 $63 $62 $165 $166 forward $24 $-1 #
coedge $-1 $167 $168 $62 $105 reversed $152 $-1 #
edge $-1 $112 -10.716939000969219 $169 10.716939000969219 $104 $170 forward 7 unknown #
coedge $-1 $98 $171 $63 $107 reversed $59 $-1 #
edge $-1 $172 -10.716939000969219 $111 10.716939000969219 $106 $173 forward 7 unknown #
coedge $-1 $101 $64 $171 $174 forward $110 $-1 #
coedge $-1 $64 $101 $167 $175 reversed $110 $-1 #
loop $-1 $-1 $108 $151 #
vertex $-1 $65 $176 #
vertex $-1 $65 $177 #
straight-curve $-1 10.716939000969219 0 85.100253303628648 0 1 0 I I #
loop $-1 $-1 $178 $40 #
coedge $-1 $115 $115 $69 $116 reversed $66 $-1 #
edge $-1 $179 0 $179 6.2831853071796004 $115 $180 forward 7 unknown #
vertex $-1 $70 $181 #
ellipse-curve $-1 0 0 -1.5635395367290243 0 0 -1 1 0 0 1 I I #
loop $-1 $-1 $182 $45 #
coedge $-1 $120 $120 $74 $121 reversed $71 $-1 #
edge $-1 $183 0 $183 6.2831853071796004 $120 $184 forward 7 unknown #
vertex $-1 $75 $185 #
ellipse-curve $-1 0 0 -1.5635395367290243 0 0 -1 1 0 0 1 I I #
face $-1 $-1 $91 $12 $-1 $186 reversed single #
loop $-1 $-1 $140 $76 #
plane-surface $-1 0 28.499897447209058 0 0 -1 0 0 0 -1 forward_v I I I I #
coedge $-1 $187 $138 $141 $188 forward $77 $-1 #
coedge $-1 $144 $79 $80 $132 reversed $51 $-1 #
coedge $-1 $138 $187 $79 $130 reversed $77 $-1 #
edge $-1 $145 -10.751107283714155 $189 10.751107283714155 $129 $190 forward 7 unknown #
coedge $-1 $81 $80 $187 $191 forward $33 $-1 #
edge $-1 $136 -42.550126651814324 $189 42.550126651814324 $128 $192 forward 7 unknown #
coedge $-1 $141 $140 $81 $134 reversed $125 $-1 #
edge $-1 $193 -42.550126651814324 $135 42.550126651814324 $133 $194 forward 7 unknown #
vertex $-1 $83 $195 #
vertex $-1 $147 $196 #
straight-curve $-1 42.550126651814324 0 -10.751107283714155 0 -1 0 I I #
coedge $-1 $127 $129 $84 $139 reversed $77 $-1 #
edge $-1 $142 -28.499897447209058 $145 28.499897447209058 $138 $197 forward 7 unknown #
coedge $-1 $133 $85 $90 $148 forward $125 $-1 #
coedge $-1 $85 $133 $127 $188 reversed $125 $-1 #
vertex $-1 $86 $198 #
straight-curve $-1 0 28.499897447209058 10.751107283714155 -1 0 0 I I #
coedge $-1 $87 $128 $89 $147 reversed $51 $-1 #
vertex $-1 $139 $199 #
straight-curve $-1 0 -28.499897447209058 10.751107283714155 1 0 0 I I #
edge $-1 $92 -10.751107283714155 $136 10.751107283714155 $89 $200 forward 7 unknown #
edge $-1 $93 -10.751107283714155 $135 10.751107283714155 $90 $201 forward 7 unknown #
point $-1 42.550126651814324 -28.499897447209058 10.751107283714155 #
point $-1 42.550126651814324 28.499897447209058 10.751107283714155 #
face $-1 $-1 $110 $13 $-1 $202 reversed single #
loop $-1 $-1 $167 $95 #
plane-surface $-1 0 170.2005066072573 0 0 -1 0 0 0 -1 forward_v I I I I #
coedge $-1 $203 $165 $168 $204 forward $96 $-1 #
coedge $-1 $171 $98 $99 $159 reversed $59 $-1 #
coedge $-1 $165 $203 $98 $157 reversed $96 $-1 #
edge $-1 $172 -85.100253303628648 $205 85.100253303628648 $156 $206 forward 7 unknown #
coedge $-1 $100 $99 $203 $207 forward $37 $-1 #
edge $-1 $163 -10.716939000969219 $205 10.716939000969219 $155 $208 forward 7 unknown #
coedge $-1 $168 $167 $100 $161 reversed $152 $-1 #
edge $-1 $209 -10.716939000969219 $162 10.716939000969219 $160 $210 forward 7 unknown #
vertex $-1 $102 $211 #
vertex $-1 $174 $212 #
straight-curve $-1 10.716939000969219 0 -85.100253303628648 0 -1 0 I I #
coedge $-1 $154 $156 $103 $166 reversed $96 $-1 #
edge $-1 $169 -170.2005066072573 $172 170.2005066072573 $165 $213 forward 7 unknown #
coedge $-1 $160 $104 $109 $175 forward $152 $-1 #
coedge $-1 $104 $160 $154 $204 reversed $152 $-1 #
vertex $-1 $105 $214 #
straight-curve $-1 0 170.2005066072573 85.100253303628648 -1 0 0 I I #
coedge $-1 $106 $155 $108 $174 reversed $59 $-1 #
vertex $-1 $166 $215 #
straight-curve $-1 0 -170.2005066072573 85.100253303628648 1 0 0 I I #
edge $-1 $111 -85.100253303628648 $163 85.100253303628648 $108 $216 forward 7 unknown #
edge $-1 $112 -85.100253303628648 $162 85.100253303628648 $109 $217 forward 7 unknown #
point $-1 10.716939000969219 -170.2005066072573 85.100253303628648 #
point $-1 10.716939000969219 170.2005066072573 85.100253303628648 #
coedge $-1 $178 $178 $-1 $218 reversed $114 $-1 #
vertex $-1 $116 $219 #
ellipse-curve $-1 0 0 -0.50000000000000089 0 0 -1 1 0 0 1 I I #
point $-1 1 0 -1.5635395367290243 #
coedge $-1 $182 $182 $-1 $220 reversed $119 $-1 #
vertex $-1 $121 $221 #
ellipse-curve $-1 0 0 -0.50000000000000089 0 0 -1 1 0 0 1 I I #
point $-1 1 0 -1.5635395367290243 #
plane-surface $-1 42.550126651814324 0 0 -1 0 0 0 0 1 forward_v I I I I #
coedge $-1 $129 $127 $131 $191 reversed $77 $-1 #
edge $-1 $142 -10.751107283714155 $193 10.751107283714155 $141 $222 forward 7 unknown #
vertex $-1 $191 $223 #
straight-curve $-1 -42.550126651814324 -28.499897447209058 0 0 0 -1 I I #
edge $-1 $189 -28.499897447209058 $193 28.499897447209058 $187 $224 forward 7 unknown #
straight-curve $-1 0 -28.499897447209058 -10.751107283714155 -1 0 0 I I #
vertex $-1 $134 $225 #
straight-curve $-1 0 28.499897447209058 -10.751107283714155 1 0 0 I I #
point $-1 42.550126651814324 28.499897447209058 -10.751107283714155 #
point $-1 42.550126651814324 -28.499897447209058 -10.751107283714155 #
straight-curve $-1 -42.550126651814324 0 10.751107283714155 0 -1 0 I I #
point $-1 -42.550126651814324 28.499897447209058 10.751107283714155 #
point $-1 -42.550126651814324 -28.499897447209058 10.751107283714155 #
straight-curve $-1 42.550126651814324 -28.499897447209058 0 0 0 -1 I I #
straight-curve $-1 42.550126651814324 28.499897447209058 0 0 0 -1 I I #
plane-surface $-1 10.716939000969219 0 0 -1 0 0 0 0 1 forward_v I I I I #
coedge $-1 $156 $154 $158 $207 reversed $96 $-1 #
edge $-1 $169 -85.100253303628648 $209 85.100253303628648 $168 $226 forward 7 unknown #
vertex $-1 $207 $227 #
straight-curve $-1 -10.716939000969219 -170.2005066072573 0 0 0 -1 I I #
edge $-1 $205 -170.2005066072573 $209 170.2005066072573 $203 $228 forward 7 unknown #
straight-curve $-1 0 -170.2005066072573 -85.100253303628648 -1 0 0 I I #
vertex $-1 $161 $229 #
straight-curve $-1 0 170.2005066072573 -85.100253303628648 1 0 0 I I #
point $-1 10.716939000969219 170.2005066072573 -85.100253303628648 #
point $-1 10.716939000969219 -170.2005066072573 -85.100253303628648 #
straight-curve $-1 -10.716939000969219 0 85.100253303628648 0 -1 0 I I #
point $-1 -10.716939000969219 170.2005066072573 85.100253303628648 #
point $-1 -10.716939000969219 -170.2005066072573 85.100253303628648 #
straight-curve $-1 10.716939000969219 -170.2005066072573 0 0 0 -1 I I #
straight-curve $-1 10.716939000969219 170.2005066072573 0 0 0 -1 I I #
edge $-1 $230 1 $230 0 $178 $-1 forward 7 unknown #
point $-1 1 0 -0.50000000000000089 #
edge $-1 $231 1 $231 0 $182 $-1 forward 7 unknown #
point $-1 1 0 -0.50000000000000089 #
straight-curve $-1 -42.550126651814324 28.499897447209058 0 0 0 -1 I I #
point $-1 -42.550126651814324 -28.499897447209058 -10.751107283714155 #
straight-curve $-1 -42.550126651814324 0 -10.751107283714155 0 1 0 I I #
point $-1 -42.550126651814324 28.499897447209058 -10.751107283714155 #
straight-curve $-1 -10.716939000969219 170.2005066072573 0 0 0 -1 I I #
point $-1 -10.716939000969219 -170.2005066072573 -85.100253303628648 #
straight-curve $-1 -10.716939000969219 0 -85.100253303628648 0 1 0 I I #
point $-1 -10.716939000969219 170.2005066072573 -85.100253303628648 #
vertex $-1 $218 $232 #
vertex $-1 $220 $233 #
point $-1 0 0 0.50000000000000089 #
point $-1 0 0 0.50000000000000089 #
End-of-ACIS-data 