500 0 8 0           
7 Unknown 11 ACIS 5.0 NT 24 Fri Mar 26 01:35:25 1999 
-1 9.9999999999999995e-007 1e-010 
body $-1 $8 $-1 $9 #
body $-1 $10 $-1 $11 #
body $-1 $12 $-1 $13 #
body $-1 $14 $-1 $15 #
body $-1 $16 $-1 $17 #
body $-1 $18 $-1 $19 #
body $-1 $20 $-1 $21 #
body $-1 $22 $-1 $23 #
lump $-1 $-1 $24 $0 #
transform $-1 1 0 0 0 1 0 0 0 1 45.0038148136845 20.783584926499202 7.2408596699096526 1 rotate no_reflect no_shear #
lump $-1 $-1 $25 $1 #
transform $-1 1 0 0 0 1 0 0 0 1 45.0038148136845 20.783584926499202 7.2408596699096526 1 rotate no_reflect no_shear #
lump $-1 $-1 $26 $2 #
transform $-1 1 0 0 0 1 0 0 0 1 45.0038148136845 20.783584926499202 7.2408596699096526 1 rotate no_reflect no_shear #
lump $-1 $-1 $27 $3 #
transform $-1 1 0 0 0 1 0 0 0 1 45.0038148136845 20.783584926499202 7.2408596699096526 1 rotate no_reflect no_shear #
lump $-1 $-1 $28 $4 #
transform $-1 1 0 0 0 1 0 0 0 1 45.0038148136845 20.783584926499202 7.2408596699096526 1 rotate no_reflect no_shear #
lump $-1 $-1 $29 $5 #
transform $-1 1 0 0 0 1 0 0 0 1 45.0038148136845 20.783584926499202 7.2408596699096526 1 rotate no_reflect no_shear #
lump $-1 $-1 $30 $6 #
transform $-1 1 0 0 0 1 0 0 0 1 45.0038148136845 20.783584926499202 7.2408596699096526 1 rotate no_reflect no_shear #
lump $-1 $-1 $31 $7 #
transform $-1 1 0 0 0 1 0 0 0 1 45.0038148136845 20.783584926499202 7.2408596699096526 1 rotate no_reflect no_shear #
shell $-1 $-1 $-1 $32 $-1 $8 #
shell $-1 $-1 $-1 $33 $-1 $10 #
shell $-1 $-1 $-1 $34 $-1 $12 #
shell $-1 $-1 $-1 $35 $-1 $14 #
shell $-1 $-1 $-1 $36 $-1 $16 #
shell $-1 $-1 $-1 $37 $-1 $18 #
shell $-1 $-1 $-1 $38 $-1 $20 #
shell $-1 $-1 $-1 $39 $-1 $22 #
face $-1 $40 $41 $24 $-1 $42 forward single #
face $-1 $43 $44 $25 $-1 $45 reversed single #
face $-1 $46 $47 $26 $-1 $48 reversed single #
face $-1 $49 $50 $27 $-1 $51 forward single #
face $-1 $52 $53 $28 $-1 $54 forward single #
face $-1 $55 $56 $29 $-1 $57 forward single #
face $-1 $58 $59 $30 $-1 $60 reversed single #
face $-1 $61 $62 $31 $-1 $63 forward single #
face $-1 $64 $65 $24 $-1 $66 reversed single #
loop $-1 $-1 $67 $32 #
plane-surface $-1 0 0 7.2408596699096526 0 0 1 1 0 0 forward_v I I I I #
face $-1 $68 $69 $25 $-1 $70 reversed single #
loop $-1 $-1 $71 $33 #
plane-surface $-1 -40.839956990984327 -17.783584926499202 0 0 -1 0 0 0 -1 forward_v I I I I #
face $-1 $72 $73 $26 $-1 $74 reversed single #
loop $-1 $-1 $75 $34 #
plane-surface $-1 16.208539218160553 -76.197815668372613 74.647681246300351 -1 0 0 0 -0.61566148304635926 0.78801074757464917 forward_v I I I I #
face $-1 $76 $77 $27 $-1 $78 forward single #
loop $-1 $79 $80 $35 #
cone-surface $-1 5.0815049203562879 -18.13387220290566 4.9727534182994662 0 0.61566148304635926 -0.78801074757464917 0.5 0 0 1 I I 0 1 0.5 forward I I I I #
face $-1 $81 $82 $28 $-1 $83 forward single #
loop $-1 $84 $85 $36 #
cone-surface $-1 9.2541427820328863 -18.13387220290566 4.9727534182994662 0 0.61566148304635926 -0.78801074757464917 0.5 0 0 1 I I 0 1 0.5 forward I I I I #
face $-1 $86 $87 $29 $-1 $88 forward single #
loop $-1 $89 $90 $37 #
cone-surface $-1 13.426780643709485 -18.13387220290566 4.9727534182994662 0 0.61566148304635926 -0.78801074757464917 0.5 0 0 1 I I 0 1 0.5 forward I I I I #
face $-1 $91 $92 $30 $-1 $93 reversed single #
loop $-1 $-1 $94 $38 #
plane-surface $-1 -36.676099168284154 33.229403349086368 101.33015208585481 1 0 0 0 -0.52991927123019833 -0.84804809178421925 forward_v I I I I #
face $-1 $95 $96 $31 $-1 $97 forward single #
loop $-1 $98 $99 $39 #
cone-surface $-1 -24.473967055566007 16.433691174065796 3.61148488290182 0 -0.52991927123019833 -0.84804809178421925 1 0 0 1 I I 0 1 1 forward I I I I #
face $-1 $100 $101 $24 $-1 $102 reversed single #
loop $-1 $-1 $103 $40 #
plane-surface $-1 0 0 -7.2408596699096526 0 0 1 1 0 0 forward_v I I I I #
coedge $-1 $104 $105 $106 $107 forward $41 $-1 #
face $-1 $108 $109 $25 $-1 $110 forward single #
loop $-1 $-1 $111 $43 #
plane-surface $-1 -36.676099168284154 -19.283584926499202 0 -1 0 0 0 0 1 forward_v I I I I #
coedge $-1 $112 $113 $114 $115 forward $44 $-1 #
face $-1 $116 $117 $26 $-1 $118 reversed single #
loop $-1 $-1 $119 $46 #
plane-surface $-1 9.2541427820328863 -20.783584926499188 3.7207017362151618 0 -0.61566148304635926 0.78801074757464917 1 0 0 forward_v I I I I #
coedge $-1 $120 $121 $122 $123 reversed $47 $-1 #
face $-1 $-1 $124 $27 $-1 $125 forward single #
loop $-1 $126 $127 $49 #
cone-surface $-1 5.0815049203562879 -17.583042408669733 4.2677234466428535 0 0.61566148304635926 -0.78801074757464917 0.25 0 0 1 I I -0.70710678118654746 0.70710678118654746 0.25 forward I I I I #
loop $-1 $-1 $128 $35 #
coedge $-1 $80 $80 $129 $130 reversed $50 $-1 #
face $-1 $-1 $131 $28 $-1 $132 forward single #
loop $-1 $133 $134 $52 #
cone-surface $-1 9.2541427820328863 -17.583042408669733 4.2677234466428535 0 0.61566148304635926 -0.78801074757464917 0.25 0 0 1 I I -0.70710678118654746 0.70710678118654746 0.25 forward I I I I #
loop $-1 $-1 $135 $36 #
coedge $-1 $85 $85 $136 $137 reversed $53 $-1 #
face $-1 $-1 $138 $29 $-1 $139 forward single #
loop $-1 $140 $141 $55 #
cone-surface $-1 13.426780643709485 -17.583042408669733 4.2677234466428535 0 0.61566148304635926 -0.78801074757464917 0.25 0 0 1 I I -0.70710678118654746 0.70710678118654746 0.25 forward I I I I #
loop $-1 $-1 $142 $37 #
coedge $-1 $90 $90 $143 $144 reversed $56 $-1 #
face $-1 $145 $146 $30 $-1 $147 reversed single #
loop $-1 $-1 $148 $58 #
plane-surface $-1 -24.473967055566007 -14.467374148206616 24.999353534343769 0 0.52991927123019833 0.84804809178421925 1 0 0 forward_v I I I I #
coedge $-1 $149 $150 $151 $152 reversed $59 $-1 #
face $-1 $-1 $153 $31 $-1 $154 forward single #
loop $-1 $155 $156 $61 #
cone-surface $-1 -24.473967055566007 15.234552126745591 1.6924612955862157 0 -0.52991927123019833 -0.84804809178421925 0.5 0 0 1 I I -0.70710678118654746 0.70710678118654746 0.5 forward I I I I #
loop $-1 $-1 $157 $39 #
coedge $-1 $99 $99 $158 $159 reversed $62 $-1 #
face $-1 $160 $161 $24 $-1 $162 reversed single #
loop $-1 $-1 $163 $64 #
plane-surface $-1 0 -20.783584926499202 0 0 1 0 0 0 1 forward_v I I I I #
coedge $-1 $164 $165 $166 $167 forward $65 $-1 #
coedge $-1 $168 $67 $169 $170 forward $41 $-1 #
coedge $-1 $67 $168 $171 $172 forward $41 $-1 #
coedge $-1 $173 $174 $67 $107 reversed $175 $-1 #
edge $-1 $176 -20.783584926499202 $177 20.783584926499202 $106 $178 forward 7 unknown #
face $-1 $179 $180 $25 $-1 $181 reversed single #
loop $-1 $-1 $182 $68 #
plane-surface $-1 0 0 7.2408596699096526 0 0 1 1 0 0 forward_v I I I I #
coedge $-1 $183 $184 $185 $186 reversed $69 $-1 #
coedge $-1 $187 $71 $188 $189 reversed $44 $-1 #
coedge $-1 $71 $187 $190 $191 reversed $44 $-1 #
coedge $-1 $184 $183 $71 $115 reversed $69 $-1 #
edge $-1 $192 -7.2408596699096526 $193 7.2408596699096526 $114 $194 forward 7 unknown #
face $-1 $195 $196 $26 $-1 $197 forward single #
loop $-1 $-1 $198 $72 #
plane-surface $-1 2.2997463459052199 -76.197815668372613 74.647681246300351 1 0 0 0 0.61566148304635926 -0.78801074757464917 forward_v I I I I #
coedge $-1 $199 $200 $201 $202 reversed $73 $-1 #
coedge $-1 $121 $75 $203 $204 reversed $47 $-1 #
coedge $-1 $75 $120 $199 $205 reversed $47 $-1 #
coedge $-1 $201 $206 $75 $123 forward $196 $-1 #
edge $-1 $207 17.315322907687104 $208 21.820919507925552 $122 $209 forward 7 unknown #
loop $-1 $-1 $129 $76 #
plane-surface $-1 9.2541427820328863 -20.783584926499188 3.7207017362151618 0 -0.61566148304635926 0.78801074757464917 1 0 0 forward_v I I I I #
loop $-1 $-1 $210 $49 #
coedge $-1 $127 $127 $128 $211 reversed $77 $-1 #
coedge $-1 $128 $128 $127 $211 forward $79 $-1 #
coedge $-1 $129 $129 $80 $130 forward $124 $-1 #
edge $-1 $212 5.6971171385661636e-016 $212 6.2831853071796013 $129 $213 forward 7 unknown #
loop $-1 $-1 $136 $81 #
plane-surface $-1 9.2541427820328863 -20.783584926499188 3.7207017362151618 0 -0.61566148304635926 0.78801074757464917 1 0 0 forward_v I I I I #
loop $-1 $-1 $214 $52 #
coedge $-1 $134 $134 $135 $215 reversed $82 $-1 #
coedge $-1 $135 $135 $134 $215 forward $84 $-1 #
coedge $-1 $136 $136 $85 $137 forward $131 $-1 #
edge $-1 $216 5.6971171385661636e-016 $216 6.2831853071796013 $136 $217 forward 7 unknown #
loop $-1 $-1 $143 $86 #
plane-surface $-1 9.2541427820328863 -20.783584926499188 3.7207017362151618 0 -0.61566148304635926 0.78801074757464917 1 0 0 forward_v I I I I #
loop $-1 $-1 $218 $55 #
coedge $-1 $141 $141 $142 $219 reversed $87 $-1 #
coedge $-1 $142 $142 $141 $219 forward $89 $-1 #
coedge $-1 $143 $143 $90 $144 forward $138 $-1 #
edge $-1 $220 5.6971171385661636e-016 $220 6.2831853071796013 $143 $221 forward 7 unknown #
face $-1 $222 $223 $30 $-1 $224 reversed single #
loop $-1 $-1 $225 $91 #
plane-surface $-1 -12.271834942847859 33.229403349086368 101.33015208585481 -1 0 0 0 0.52991927123019833 0.84804809178421925 forward_v I I I I #
coedge $-1 $226 $227 $228 $229 reversed $92 $-1 #
coedge $-1 $150 $94 $230 $231 reversed $59 $-1 #
coedge $-1 $94 $149 $226 $232 reversed $59 $-1 #
coedge $-1 $228 $233 $94 $152 forward $234 $-1 #
edge $-1 $235 -4.1688832519560179 $236 2.6625454295005433 $151 $237 forward 7 unknown #
loop $-1 $-1 $158 $95 #
plane-surface $-1 -24.473967055566007 -14.467374148206616 24.999353534343769 0 0.52991927123019833 0.84804809178421925 1 0 0 forward_v I I I I #
loop $-1 $-1 $238 $61 #
coedge $-1 $156 $156 $157 $239 reversed $96 $-1 #
coedge $-1 $157 $157 $156 $239 forward $98 $-1 #
coedge $-1 $158 $158 $99 $159 forward $153 $-1 #
edge $-1 $240 9.2873079643517867e-017 $240 6.2831853071796004 $158 $241 forward 7 unknown #
face $-1 $242 $243 $24 $-1 $244 reversed single #
loop $-1 $-1 $245 $100 #
plane-surface $-1 -45.0038148136845 0 0 1 0 0 0 0 -1 forward_v I I I I #
coedge $-1 $246 $171 $247 $248 forward $101 $-1 #
coedge $-1 $249 $103 $246 $250 forward $65 $-1 #
coedge $-1 $103 $249 $251 $252 forward $65 $-1 #
coedge $-1 $174 $173 $103 $167 reversed $175 $-1 #
edge $-1 $253 -20.783584926499202 $254 20.783584926499202 $166 $255 forward 7 unknown #
coedge $-1 $105 $104 $256 $257 forward $41 $-1 #
coedge $-1 $258 $259 $104 $170 reversed $243 $-1 #
edge $-1 $177 -45.0038148136845 $260 45.0038148136845 $169 $261 forward 7 unknown #
coedge $-1 $163 $262 $105 $172 reversed $101 $-1 #
edge $-1 $263 -45.0038148136845 $176 45.0038148136845 $171 $264 forward 7 unknown #
coedge $-1 $166 $106 $262 $265 forward $175 $-1 #
coedge $-1 $106 $166 $258 $266 reversed $175 $-1 #
loop $-1 $-1 $173 $242 #
vertex $-1 $107 $267 #
vertex $-1 $107 $268 #
straight-curve $-1 45.0038148136845 0 7.2408596699096526 0 1 0 I I #
face $-1 $269 $270 $25 $-1 $271 reversed single #
loop $-1 $-1 $272 $108 #
plane-surface $-1 -45.0038148136845 0 0 1 0 0 0 0 -1 forward_v I I I I #
coedge $-1 $190 $273 $184 $274 forward $109 $-1 #
coedge $-1 $114 $111 $275 $276 reversed $69 $-1 #
coedge $-1 $111 $114 $182 $274 reversed $69 $-1 #
coedge $-1 $277 $278 $111 $186 forward $279 $-1 #
edge $-1 $280 -7.2408596699096526 $281 7.2408596699096526 $185 $282 forward 7 unknown #
coedge $-1 $113 $112 $272 $283 reversed $44 $-1 #
coedge $-1 $275 $284 $112 $189 forward $270 $-1 #
edge $-1 $285 -24.583836318192336 $193 -16.25612067279199 $188 $286 forward 7 unknown #
coedge $-1 $287 $182 $113 $191 forward $109 $-1 #
edge $-1 $192 16.25612067279199 $288 24.583836318192336 $190 $289 forward 7 unknown #
vertex $-1 $191 $290 #
vertex $-1 $189 $291 #
straight-curve $-1 -36.676099168284154 -17.783584926499202 0 0 0 -1 I I #
face $-1 $-1 $292 $26 $-1 $293 reversed single #
loop $-1 $-1 $122 $116 #
plane-surface $-1 0 0 7.2408596699096526 0 0 1 1 0 0 forward_v I I I I #
coedge $-1 $294 $295 $296 $297 reversed $117 $-1 #
coedge $-1 $298 $119 $121 $205 forward $73 $-1 #
coedge $-1 $119 $298 $294 $299 forward $73 $-1 #
coedge $-1 $296 $122 $119 $202 forward $196 $-1 #
edge $-1 $208 -11.58146782714411 $300 2.3273250451112233 $201 $301 forward 7 unknown #
coedge $-1 $302 $303 $120 $204 forward $292 $-1 #
edge $-1 $304 -33.603138886935028 $207 -30.082980953240522 $203 $305 forward 7 unknown #
edge $-1 $208 -5.7176841992394447 $304 1.8033521786330445e-014 $121 $306 forward 7 unknown #
coedge $-1 $122 $296 $302 $307 forward $196 $-1 #
vertex $-1 $204 $308 #
vertex $-1 $123 $309 #
straight-curve $-1 16.208539218160553 -38.098907834186306 7.2408596699096535 0 1 0 I I #
coedge $-1 $210 $210 $-1 $310 reversed $126 $-1 #
edge $-1 $311 0 $311 6.2831853071796004 $127 $312 forward 7 unknown #
vertex $-1 $130 $313 #
ellipse-curve $-1 5.0815049203562879 -18.530786626379982 5.4807807030623978 0 -0.61566148304635926 0.78801074757464917 0.5 0 0 1 I I #
coedge $-1 $214 $214 $-1 $314 reversed $133 $-1 #
edge $-1 $315 0 $315 6.2831853071796004 $134 $316 forward 7 unknown #
vertex $-1 $137 $317 #
ellipse-curve $-1 9.2541427820328863 -18.530786626379982 5.4807807030623978 0 -0.61566148304635926 0.78801074757464917 0.5 0 0 1 I I #
coedge $-1 $218 $218 $-1 $318 reversed $140 $-1 #
edge $-1 $319 0 $319 6.2831853071796004 $141 $320 forward 7 unknown #
vertex $-1 $144 $321 #
ellipse-curve $-1 13.426780643709485 -18.530786626379982 5.4807807030623978 0 -0.61566148304635926 0.78801074757464917 0.5 0 0 1 I I #
face $-1 $-1 $234 $30 $-1 $322 forward single #
loop $-1 $-1 $323 $145 #
plane-surface $-1 0 20.783584926499202 0 0 -1 0 0 0 -1 forward_v I I I I #
coedge $-1 $324 $325 $326 $327 reversed $146 $-1 #
coedge $-1 $328 $148 $150 $232 forward $92 $-1 #
coedge $-1 $148 $328 $324 $329 forward $92 $-1 #
coedge $-1 $326 $151 $148 $229 forward $234 $-1 #
edge $-1 $236 -24.43911564050115 $330 -0.034851415064855118 $228 $331 forward 7 unknown #
coedge $-1 $332 $333 $149 $231 forward $223 $-1 #
edge $-1 $334 -47.692966864186417 $235 -43.42421637301775 $230 $335 forward 7 unknown #
edge $-1 $236 33.511696646185527 $334 41.567169852998404 $150 $336 forward 7 unknown #
coedge $-1 $151 $326 $332 $337 forward $234 $-1 #
loop $-1 $-1 $326 $222 #
vertex $-1 $231 $338 #
vertex $-1 $152 $339 #
straight-curve $-1 -36.676099168284154 16.614701674543184 7.2408596699096535 0 -1 0 I I #
coedge $-1 $238 $238 $-1 $340 reversed $155 $-1 #
edge $-1 $341 0 $341 6.2831853071796004 $156 $342 forward 7 unknown #
vertex $-1 $159 $343 #
ellipse-curve $-1 -24.473967055566007 17.367870585770909 5.106484424325326 0 0.52991927123019833 0.84804809178421925 1 0 0 1 I I #
face $-1 $-1 $175 $24 $-1 $344 reversed single #
loop $-1 $-1 $258 $160 #
plane-surface $-1 0 20.783584926499202 0 0 -1 0 0 0 -1 forward_v I I I I #
coedge $-1 $345 $256 $259 $346 forward $161 $-1 #
coedge $-1 $262 $163 $164 $250 reversed $101 $-1 #
coedge $-1 $256 $345 $163 $248 reversed $161 $-1 #
edge $-1 $263 -7.2408596699096526 $347 7.2408596699096526 $247 $348 forward 7 unknown #
coedge $-1 $165 $164 $345 $349 forward $65 $-1 #
edge $-1 $254 -45.0038148136845 $347 45.0038148136845 $246 $350 forward 7 unknown #
coedge $-1 $259 $258 $165 $252 reversed $243 $-1 #
edge $-1 $351 -45.0038148136845 $253 45.0038148136845 $251 $352 forward 7 unknown #
vertex $-1 $167 $353 #
vertex $-1 $265 $354 #
straight-curve $-1 45.0038148136845 0 -7.2408596699096526 0 -1 0 I I #
coedge $-1 $245 $247 $168 $257 reversed $161 $-1 #
edge $-1 $260 -20.783584926499202 $263 20.783584926499202 $256 $355 forward 7 unknown #
coedge $-1 $251 $169 $174 $266 forward $243 $-1 #
coedge $-1 $169 $251 $245 $346 reversed $243 $-1 #
vertex $-1 $170 $356 #
straight-curve $-1 0 20.783584926499202 7.2408596699096526 -1 0 0 I I #
coedge $-1 $171 $246 $173 $265 reversed $101 $-1 #
vertex $-1 $257 $357 #
straight-curve $-1 0 -20.783584926499202 7.2408596699096526 1 0 0 I I #
edge $-1 $176 -7.2408596699096526 $254 7.2408596699096526 $173 $358 forward 7 unknown #
edge $-1 $177 -7.2408596699096526 $253 7.2408596699096526 $174 $359 forward 7 unknown #
point $-1 45.0038148136845 -20.783584926499202 7.2408596699096526 #
point $-1 45.0038148136845 20.783584926499202 7.2408596699096526 #
face $-1 $-1 $279 $25 $-1 $360 reversed single #
loop $-1 $-1 $275 $179 #
plane-surface $-1 0 0 -7.2408596699096526 0 0 1 1 0 0 forward_v I I I I #
coedge $-1 $361 $362 $187 $283 forward $180 $-1 #
coedge $-1 $182 $287 $277 $363 forward $109 $-1 #
edge $-1 $281 -11.141792463249601 $192 -8.141792463249601 $182 $364 forward 7 unknown #
coedge $-1 $365 $188 $183 $276 forward $270 $-1 #
edge $-1 $193 8.141792463249601 $280 11.141792463249601 $275 $366 forward 7 unknown #
coedge $-1 $367 $185 $273 $363 reversed $279 $-1 #
coedge $-1 $185 $367 $365 $368 reversed $279 $-1 #
loop $-1 $-1 $185 $269 #
vertex $-1 $368 $369 #
vertex $-1 $186 $370 #
straight-curve $-1 -36.676099168284154 -20.783584926499202 0 0 0 1 I I #
edge $-1 $288 -7.2408596699096526 $285 7.2408596699096526 $272 $371 forward 7 unknown #
coedge $-1 $188 $365 $361 $372 forward $270 $-1 #
vertex $-1 $189 $373 #
straight-curve $-1 -20.419978495492163 -17.783584926499202 -7.2408596699096526 1 0 0 I I #
coedge $-1 $273 $190 $362 $374 forward $109 $-1 #
vertex $-1 $374 $375 #
straight-curve $-1 -20.419978495492163 -17.783584926499202 7.2408596699096526 -1 0 0 I I #
point $-1 -36.676099168284154 -17.783584926499202 7.2408596699096526 #
point $-1 -36.676099168284154 -17.783584926499202 -7.2408596699096526 #
loop $-1 $-1 $203 $195 #
plane-surface $-1 0 -20.783584926499202 0 0 1 0 0 0 1 forward_v I I I I #
coedge $-1 $295 $198 $200 $299 reversed $117 $-1 #
coedge $-1 $198 $294 $376 $377 reversed $117 $-1 #
coedge $-1 $206 $201 $198 $297 forward $196 $-1 #
edge $-1 $300 -21.820919507925552 $378 -17.315322907687104 $296 $379 forward 7 unknown #
coedge $-1 $200 $199 $303 $380 reversed $73 $-1 #
edge $-1 $381 -1.8033521786330445e-014 $300 5.7176841992394447 $294 $382 forward 7 unknown #
vertex $-1 $202 $383 #
straight-curve $-1 4.6270713910164432 -16.277988326260754 7.2408596699096526 -1 0 0 I I #
coedge $-1 $376 $203 $206 $307 reversed $292 $-1 #
coedge $-1 $203 $376 $298 $380 forward $292 $-1 #
vertex $-1 $204 $384 #
straight-curve $-1 16.208539218160553 -20.783584926499202 37.323840623150176 0 0 1 I I #
straight-curve $-1 16.208539218160553 -20.783584926499188 3.7207017362151618 0 -0.78801074757464917 -0.61566148304635926 I I #
edge $-1 $378 2.2997463459052199 $207 16.208539218160553 $302 $385 forward 7 unknown #
point $-1 16.208539218160553 -20.783584926499202 7.2408596699096526 #
point $-1 16.208539218160553 -16.277988326260754 7.2408596699096535 #
edge $-1 $386 1 $386 0 $210 $-1 forward 7 unknown #
vertex $-1 $211 $387 #
ellipse-curve $-1 5.0815049203562879 -17.736957779431322 4.4647261335365158 0 -0.61566148304635926 0.78801074757464917 0.5 0 0 1 I I #
point $-1 5.5815049203562879 -18.530786626379996 5.4807807030624165 #
edge $-1 $388 1 $388 0 $214 $-1 forward 7 unknown #
vertex $-1 $215 $389 #
ellipse-curve $-1 9.2541427820328863 -17.736957779431322 4.4647261335365158 0 -0.61566148304635926 0.78801074757464917 0.5 0 0 1 I I #
point $-1 9.7541427820328863 -18.530786626379996 5.4807807030624165 #
edge $-1 $390 1 $390 0 $218 $-1 forward 7 unknown #
vertex $-1 $219 $391 #
ellipse-curve $-1 13.426780643709485 -17.736957779431322 4.4647261335365158 0 -0.61566148304635926 0.78801074757464917 0.5 0 0 1 I I #
point $-1 13.926780643709485 -18.530786626379996 5.4807807030624165 #
plane-surface $-1 0 0 7.2408596699096526 0 0 1 1 0 0 forward_v I I I I #
coedge $-1 $333 $332 $325 $392 forward $223 $-1 #
coedge $-1 $325 $225 $227 $329 reversed $146 $-1 #
coedge $-1 $225 $324 $323 $392 reversed $146 $-1 #
coedge $-1 $233 $228 $225 $327 forward $234 $-1 #
edge $-1 $330 -2.6625454295005433 $393 4.1688832519560179 $326 $394 forward 7 unknown #
coedge $-1 $227 $226 $333 $395 reversed $92 $-1 #
edge $-1 $396 -41.567169852998404 $330 -33.511696646185527 $324 $397 forward 7 unknown #
vertex $-1 $229 $398 #
straight-curve $-1 -12.236983527783003 13.952156245042639 7.2408596699096517 1 0 0 I I #
coedge $-1 $323 $230 $233 $337 reversed $223 $-1 #
coedge $-1 $230 $323 $328 $395 forward $223 $-1 #
vertex $-1 $231 $399 #
straight-curve $-1 -36.676099168284154 20.783584926499202 50.665076042927403 0 0 1 I I #
straight-curve $-1 -36.676099168284154 -14.467374148206616 24.999353534343769 0 0.84804809178421925 -0.52991927123019833 I I #
edge $-1 $393 12.271834942847859 $235 36.676099168284154 $332 $400 forward 7 unknown #
point $-1 -36.676099168284154 20.783584926499202 7.2408596699096526 #
point $-1 -36.676099168284154 13.952156245042641 7.2408596699096535 #
edge $-1 $401 1 $401 0 $238 $-1 forward 7 unknown #
vertex $-1 $239 $402 #
ellipse-curve $-1 -24.473967055566007 15.49951176236069 2.1164853414783256 0 0.52991927123019833 0.84804809178421925 1 0 0 1 I I #
point $-1 -23.473967055566007 17.367870585770902 5.1064844243253145 #
plane-surface $-1 45.0038148136845 0 0 -1 0 0 0 0 1 forward_v I I I I #
coedge $-1 $247 $245 $249 $349 reversed $161 $-1 #
edge $-1 $260 -7.2408596699096526 $351 7.2408596699096526 $259 $403 forward 7 unknown #
vertex $-1 $349 $404 #
straight-curve $-1 -45.0038148136845 -20.783584926499202 0 0 0 -1 I I #
edge $-1 $347 -20.783584926499202 $351 20.783584926499202 $345 $405 forward 7 unknown #
straight-curve $-1 0 -20.783584926499202 -7.2408596699096526 -1 0 0 I I #
vertex $-1 $252 $406 #
straight-curve $-1 0 20.783584926499202 -7.2408596699096526 1 0 0 I I #
point $-1 45.0038148136845 20.783584926499202 -7.2408596699096526 #
point $-1 45.0038148136845 -20.783584926499202 -7.2408596699096526 #
straight-curve $-1 -45.0038148136845 0 7.2408596699096526 0 -1 0 I I #
point $-1 -45.0038148136845 20.783584926499202 7.2408596699096526 #
point $-1 -45.0038148136845 -20.783584926499202 7.2408596699096526 #
straight-curve $-1 45.0038148136845 -20.783584926499202 0 0 0 -1 I I #
straight-curve $-1 45.0038148136845 20.783584926499202 0 0 0 -1 I I #
plane-surface $-1 0 -20.783584926499202 0 0 1 0 0 0 1 forward_v I I I I #
coedge $-1 $407 $272 $284 $372 reversed $180 $-1 #
coedge $-1 $272 $407 $287 $374 reversed $180 $-1 #
edge $-1 $408 -45.0038148136845 $281 -36.676099168284154 $277 $409 forward 7 unknown #
straight-curve $-1 -36.676099168284154 -9.641792463249601 7.2408596699096526 0 1 0 I I #
coedge $-1 $284 $275 $278 $368 forward $270 $-1 #
straight-curve $-1 -36.676099168284154 -9.641792463249601 -7.2408596699096526 0 -1 0 I I #
coedge $-1 $278 $277 $407 $410 forward $279 $-1 #
edge $-1 $280 36.676099168284154 $411 45.0038148136845 $278 $412 forward 7 unknown #
point $-1 -36.676099168284154 -20.783584926499202 -7.2408596699096526 #
point $-1 -36.676099168284154 -20.783584926499202 7.2408596699096526 #
straight-curve $-1 -45.0038148136845 -17.783584926499202 0 0 0 -1 I I #
edge $-1 $411 -20.783584926499202 $285 -17.783584926499202 $361 $413 forward 7 unknown #
point $-1 -45.0038148136845 -17.783584926499202 -7.2408596699096526 #
edge $-1 $288 17.783584926499202 $408 20.783584926499202 $362 $414 forward 7 unknown #
point $-1 -45.0038148136845 -17.783584926499202 7.2408596699096526 #
coedge $-1 $303 $302 $295 $377 forward $292 $-1 #
edge $-1 $378 30.082980953240522 $381 33.603138886935028 $376 $415 forward 7 unknown #
vertex $-1 $307 $416 #
straight-curve $-1 2.2997463459052199 -38.098907834186306 7.2408596699096535 0 -1 0 I I #
edge $-1 $381 -2.3273250451112233 $304 11.58146782714411 $303 $417 forward 7 unknown #
vertex $-1 $380 $418 #
straight-curve $-1 2.2997463459052199 -20.783584926499188 3.7207017362151618 0 0.78801074757464917 0.61566148304635926 I I #
point $-1 2.2997463459052199 -16.277988326260754 7.2408596699096535 #
point $-1 16.208539218160553 -20.783584926499202 3.7207017362151507 #
straight-curve $-1 0 -20.783584926499202 7.2408596699096526 1 0 0 I I #
vertex $-1 $310 $419 #
point $-1 5.5815049203562879 -17.736957779431322 4.4647261335365158 #
vertex $-1 $314 $420 #
point $-1 9.7541427820328863 -17.736957779431322 4.4647261335365158 #
vertex $-1 $318 $421 #
point $-1 13.926780643709485 -17.736957779431322 4.4647261335365158 #
edge $-1 $393 43.42421637301775 $396 47.692966864186417 $323 $422 forward 7 unknown #
vertex $-1 $337 $423 #
straight-curve $-1 -12.271834942847859 16.614701674543184 7.2408596699096535 0 1 0 I I #
edge $-1 $396 0.034851415064855118 $334 24.43911564050115 $333 $424 forward 7 unknown #
vertex $-1 $395 $425 #
straight-curve $-1 -12.271834942847859 -14.467374148206616 24.999353534343769 0 -0.84804809178421925 0.52991927123019833 I I #
point $-1 -12.271834942847859 13.952156245042641 7.2408596699096535 #
point $-1 -36.676099168284154 20.783584926499202 2.9721091787409861 #
straight-curve $-1 0 20.783584926499202 7.2408596699096526 -1 0 0 I I #
vertex $-1 $340 $426 #
point $-1 -23.473967055566007 15.49951176236069 2.1164853414783256 #
straight-curve $-1 -45.0038148136845 20.783584926499202 0 0 0 -1 I I #
point $-1 -45.0038148136845 -20.783584926499202 -7.2408596699096526 #
straight-curve $-1 -45.0038148136845 0 -7.2408596699096526 0 1 0 I I #
point $-1 -45.0038148136845 20.783584926499202 -7.2408596699096526 #
coedge $-1 $362 $361 $367 $410 reversed $180 $-1 #
vertex $-1 $374 $427 #
straight-curve $-1 0 -20.783584926499202 7.2408596699096526 1 0 0 I I #
edge $-1 $408 -7.2408596699096526 $411 7.2408596699096526 $407 $428 forward 7 unknown #
vertex $-1 $372 $429 #
straight-curve $-1 0 -20.783584926499202 -7.2408596699096526 -1 0 0 I I #
straight-curve $-1 -45.0038148136845 0 -7.2408596699096526 0 1 0 I I #
straight-curve $-1 -45.0038148136845 0 7.2408596699096526 0 -1 0 I I #
straight-curve $-1 2.2997463459052199 -20.783584926499202 37.323840623150176 0 0 -1 I I #
point $-1 2.2997463459052199 -20.783584926499202 7.2408596699096526 #
straight-curve $-1 4.6270713910164432 -20.783584926499202 3.7207017362151498 1 0 0 I I #
point $-1 2.2997463459052199 -20.783584926499202 3.7207017362151507 #
point $-1 5.0815049203562879 -17.429127037908145 4.0707207597491912 #
point $-1 9.2541427820328863 -17.429127037908145 4.0707207597491912 #
point $-1 13.426780643709485 -17.429127037908145 4.0707207597491912 #
straight-curve $-1 -12.271834942847859 20.783584926499202 50.665076042927403 0 0 -1 I I #
point $-1 -12.271834942847859 20.783584926499202 7.2408596699096526 #
straight-curve $-1 -12.236983527783003 20.783584926499202 2.9721091787409861 -1 0 0 I I #
point $-1 -12.271834942847859 20.783584926499202 2.9721091787409861 #
point $-1 -24.473967055566007 14.969592491130491 1.2684372496941061 #
point $-1 -45.0038148136845 -20.783584926499202 7.2408596699096526 #
straight-curve $-1 -45.0038148136845 -20.783584926499202 0 0 0 -1 I I #
point $-1 -45.0038148136845 -20.783584926499202 -7.2408596699096526 #
End-of-ACIS-data 