500 0 6 0           
7 Unknown 11 ACIS 5.0 NT 24 Fri Mar 26 19:50:12 1999 
-1 9.9999999999999995e-007 1e-010 
body $-1 $6 $-1 $7 #
body $-1 $8 $-1 $9 #
body $-1 $10 $-1 $11 #
body $-1 $12 $-1 $13 #
body $-1 $14 $-1 $15 #
body $-1 $16 $-1 $17 #
lump $-1 $-1 $18 $0 #
transform $-1 1 0 0 0 1 0 0 0 1 67.919553209021274 27.938904196104495 6.3960965586308873 1 rotate no_reflect no_shear #
lump $-1 $-1 $19 $1 #
transform $-1 1 0 0 0 1 0 0 0 1 67.919553209021274 27.938904196104495 6.3960965586308873 1 rotate no_reflect no_shear #
lump $-1 $-1 $20 $2 #
transform $-1 1 0 0 0 1 0 0 0 1 67.919553209021274 27.938904196104495 6.3960965586308873 1 rotate no_reflect no_shear #
lump $-1 $-1 $21 $3 #
transform $-1 1 0 0 0 1 0 0 0 1 67.919553209021274 27.938904196104495 6.3960965586308873 1 rotate no_reflect no_shear #
lump $-1 $-1 $22 $4 #
transform $-1 1 0 0 0 1 0 0 0 1 67.919553209021274 27.938904196104495 6.3960965586308873 1 rotate no_reflect no_shear #
lump $-1 $-1 $23 $5 #
transform $-1 1 0 0 0 1 0 0 0 1 67.919553209021274 27.938904196104495 6.3960965586308873 1 rotate no_reflect no_shear #
shell $-1 $-1 $-1 $24 $-1 $6 #
shell $-1 $-1 $-1 $25 $-1 $8 #
shell $-1 $-1 $-1 $26 $-1 $10 #
shell $-1 $-1 $-1 $27 $-1 $12 #
shell $-1 $-1 $-1 $28 $-1 $14 #
shell $-1 $-1 $-1 $29 $-1 $16 #
face $-1 $30 $31 $18 $-1 $32 forward single #
face $-1 $33 $34 $19 $-1 $35 forward single #
face $-1 $36 $37 $20 $-1 $38 reversed single #
face $-1 $39 $40 $21 $-1 $41 forward single #
face $-1 $42 $43 $22 $-1 $44 forward single #
face $-1 $45 $46 $23 $-1 $47 forward single #
face $-1 $48 $49 $18 $-1 $50 reversed single #
loop $-1 $-1 $51 $24 #
plane-surface $-1 0 0 6.3960965586308873 0 0 1 1 0 0 forward_v I I I I #
face $-1 $52 $53 $19 $-1 $54 reversed single #
loop $-1 $-1 $55 $25 #
plane-surface $-1 0 -24.601909127264083 -1.1879446086981125 0 0 1 1 0 0 forward_v I I I I #
face $-1 $56 $57 $20 $-1 $58 reversed single #
loop $-1 $-1 $59 $26 #
plane-surface $-1 1.107675027340612 60.080595090986343 146.53727731623138 1 0 0 0 -0.57357644374324357 -0.81915203911291934 forward_v I I I I #
face $-1 $60 $61 $21 $-1 $62 forward single #
loop $-1 $63 $64 $27 #
cone-surface $-1 5.1351322826623687 24.748709418347733 3.493985871732697 0 -0.57357644374324357 -0.81915203911291934 1 0 0 1 I I 0 1 1 forward I I I I #
face $-1 $65 $66 $22 $-1 $67 forward single #
loop $-1 $68 $69 $28 #
cone-surface $-1 11.176318165645014 24.748709418347733 3.493985871732697 0 -0.57357644374324357 -0.81915203911291934 1 0 0 1 I I 0 1 1 forward I I I I #
face $-1 $70 $71 $23 $-1 $72 forward single #
loop $-1 $73 $74 $29 #
cone-surface $-1 17.21750404862766 24.748709418347733 3.493985871732697 0 -0.57357644374324357 -0.81915203911291934 1 0 0 1 I I 0 1 1 forward I I I I #
face $-1 $75 $76 $18 $-1 $77 reversed single #
loop $-1 $-1 $78 $30 #
plane-surface $-1 0 0 -6.3960965586308873 0 0 1 1 0 0 forward_v I I I I #
coedge $-1 $79 $80 $81 $82 forward $31 $-1 #
face $-1 $83 $84 $19 $-1 $85 reversed single #
loop $-1 $-1 $86 $33 #
plane-surface $-1 0 -24.601909127264083 -4.1879446086981122 0 0 1 1 0 0 forward_v I I I I #
coedge $-1 $87 $88 $89 $90 reversed $34 $-1 #
face $-1 $91 $92 $20 $-1 $93 reversed single #
loop $-1 $-1 $94 $36 #
plane-surface $-1 11.176318165645029 -17.83351648953451 35.264396302614983 0 0.57357644374324357 0.81915203911291934 1 0 0 forward_v I I I I #
coedge $-1 $95 $96 $97 $98 reversed $37 $-1 #
face $-1 $-1 $99 $21 $-1 $100 forward single #
loop $-1 $101 $102 $39 #
cone-surface $-1 5.1351322826623687 23.543834788765743 1.7732466041707937 0 -0.57357644374324357 -0.81915203911291934 0.5 0 0 1 I I -0.70710678118654746 0.70710678118654746 0.5 forward I I I I #
loop $-1 $-1 $103 $27 #
coedge $-1 $64 $64 $104 $105 reversed $40 $-1 #
face $-1 $-1 $106 $22 $-1 $107 forward single #
loop $-1 $108 $109 $42 #
cone-surface $-1 11.176318165645014 23.543834788765743 1.7732466041707937 0 -0.57357644374324357 -0.81915203911291934 0.5 0 0 1 I I -0.70710678118654746 0.70710678118654746 0.5 forward I I I I #
loop $-1 $-1 $110 $28 #
coedge $-1 $69 $69 $111 $112 reversed $43 $-1 #
face $-1 $-1 $113 $23 $-1 $114 forward single #
loop $-1 $115 $116 $45 #
cone-surface $-1 17.21750404862766 23.543834788765743 1.7732466041707937 0 -0.57357644374324357 -0.81915203911291934 0.5 0 0 1 I I -0.70710678118654746 0.70710678118654746 0.5 forward I I I I #
loop $-1 $-1 $117 $29 #
coedge $-1 $74 $74 $118 $119 reversed $46 $-1 #
face $-1 $120 $121 $18 $-1 $122 reversed single #
loop $-1 $-1 $123 $48 #
plane-surface $-1 0 -27.938904196104495 0 0 1 0 0 0 1 forward_v I I I I #
coedge $-1 $124 $125 $126 $127 forward $49 $-1 #
coedge $-1 $128 $51 $129 $130 forward $31 $-1 #
coedge $-1 $51 $128 $131 $132 forward $31 $-1 #
coedge $-1 $133 $134 $51 $82 reversed $135 $-1 #
edge $-1 $136 -27.938904196104495 $137 27.938904196104495 $81 $138 forward 7 unknown #
face $-1 $139 $140 $19 $-1 $141 reversed single #
loop $-1 $-1 $142 $52 #
plane-surface $-1 0 -21.26491405842367 -2.6879446086981122 0 -1 0 0 0 -1 forward_v I I I I #
coedge $-1 $143 $144 $145 $146 reversed $53 $-1 #
coedge $-1 $147 $55 $148 $149 forward $34 $-1 #
coedge $-1 $55 $147 $150 $151 reversed $34 $-1 #
coedge $-1 $152 $153 $55 $90 forward $154 $-1 #
edge $-1 $155 8.963959494791629 $156 15.637949632472454 $89 $157 forward 7 unknown #
face $-1 $158 $159 $20 $-1 $160 reversed single #
loop $-1 $-1 $161 $56 #
plane-surface $-1 21.244961303949445 60.080595090986343 146.53727731623138 -1 0 0 0 0.57357644374324357 0.81915203911291934 forward_v I I I I #
coedge $-1 $162 $163 $164 $165 reversed $57 $-1 #
coedge $-1 $96 $59 $166 $167 reversed $37 $-1 #
coedge $-1 $59 $95 $162 $168 reversed $37 $-1 #
coedge $-1 $164 $169 $59 $98 forward $170 $-1 #
edge $-1 $171 2.1013933493886761 $172 6.6456100894815044 $97 $173 forward 7 unknown #
loop $-1 $-1 $104 $60 #
plane-surface $-1 11.176318165645029 -17.83351648953451 35.264396302614983 0 0.57357644374324357 0.81915203911291934 1 0 0 forward_v I I I I #
loop $-1 $-1 $174 $39 #
coedge $-1 $102 $102 $103 $175 reversed $61 $-1 #
coedge $-1 $103 $103 $102 $175 forward $63 $-1 #
coedge $-1 $104 $104 $64 $105 forward $99 $-1 #
edge $-1 $176 -2.4770028632626468e-015 $176 6.2831853071795978 $104 $177 forward 7 unknown #
loop $-1 $-1 $111 $65 #
plane-surface $-1 11.176318165645029 -17.83351648953451 35.264396302614983 0 0.57357644374324357 0.81915203911291934 1 0 0 forward_v I I I I #
loop $-1 $-1 $178 $42 #
coedge $-1 $109 $109 $110 $179 reversed $66 $-1 #
coedge $-1 $110 $110 $109 $179 forward $68 $-1 #
coedge $-1 $111 $111 $69 $112 forward $106 $-1 #
edge $-1 $180 -2.4770028632626468e-015 $180 6.2831853071795978 $111 $181 forward 7 unknown #
loop $-1 $-1 $118 $70 #
plane-surface $-1 11.176318165645029 -17.83351648953451 35.264396302614983 0 0.57357644374324357 0.81915203911291934 1 0 0 forward_v I I I I #
loop $-1 $-1 $182 $45 #
coedge $-1 $116 $116 $117 $183 reversed $71 $-1 #
coedge $-1 $117 $117 $116 $183 forward $73 $-1 #
coedge $-1 $118 $118 $74 $119 forward $113 $-1 #
edge $-1 $184 -2.4770028632626468e-015 $184 6.2831853071795978 $118 $185 forward 7 unknown #
face $-1 $186 $187 $18 $-1 $188 reversed single #
loop $-1 $-1 $189 $75 #
plane-surface $-1 -67.919553209021274 0 0 1 0 0 0 0 -1 forward_v I I I I #
coedge $-1 $190 $131 $191 $192 forward $76 $-1 #
coedge $-1 $193 $78 $190 $194 forward $49 $-1 #
coedge $-1 $78 $193 $195 $196 forward $49 $-1 #
coedge $-1 $134 $133 $78 $127 reversed $135 $-1 #
edge $-1 $197 -27.938904196104495 $198 27.938904196104495 $126 $199 forward 7 unknown #
coedge $-1 $80 $79 $200 $201 forward $31 $-1 #
coedge $-1 $202 $203 $79 $130 reversed $187 $-1 #
edge $-1 $137 -67.919553209021274 $204 67.919553209021274 $129 $205 forward 7 unknown #
coedge $-1 $123 $206 $80 $132 reversed $76 $-1 #
edge $-1 $207 -67.919553209021274 $136 67.919553209021274 $131 $208 forward 7 unknown #
coedge $-1 $126 $81 $206 $209 forward $135 $-1 #
coedge $-1 $81 $126 $202 $210 reversed $135 $-1 #
loop $-1 $-1 $133 $186 #
vertex $-1 $82 $211 #
vertex $-1 $82 $212 #
straight-curve $-1 67.919553209021274 0 6.3960965586308873 0 1 0 I I #
face $-1 $213 $214 $19 $-1 $215 reversed single #
loop $-1 $-1 $216 $83 #
plane-surface $-1 -67.919553209021274 0 0 1 0 0 0 0 -1 forward_v I I I I #
coedge $-1 $217 $148 $153 $218 reversed $84 $-1 #
coedge $-1 $219 $86 $220 $221 reversed $53 $-1 #
coedge $-1 $86 $219 $217 $222 forward $53 $-1 #
coedge $-1 $153 $152 $86 $146 forward $154 $-1 #
edge $-1 $223 -15.637949632472454 $224 -8.963959494791629 $145 $225 forward 7 unknown #
coedge $-1 $88 $87 $216 $226 reversed $34 $-1 #
coedge $-1 $142 $227 $87 $149 reversed $84 $-1 #
edge $-1 $155 -67.919553209021274 $228 67.919553209021274 $148 $229 forward 7 unknown #
coedge $-1 $230 $231 $88 $151 forward $214 $-1 #
edge $-1 $156 -67.919553209021274 $232 67.919553209021274 $150 $233 forward 7 unknown #
coedge $-1 $145 $89 $231 $234 forward $154 $-1 #
coedge $-1 $89 $145 $142 $218 forward $154 $-1 #
loop $-1 $-1 $89 $213 #
vertex $-1 $90 $235 #
vertex $-1 $234 $236 #
straight-curve $-1 67.919553209021274 -12.300954563632041 -1.1879446086981125 0 -1 0 I I #
face $-1 $-1 $170 $20 $-1 $237 forward single #
loop $-1 $-1 $238 $91 #
plane-surface $-1 0 27.938904196104495 0 0 -1 0 0 0 -1 forward_v I I I I #
coedge $-1 $239 $240 $241 $242 reversed $92 $-1 #
coedge $-1 $243 $94 $96 $168 forward $57 $-1 #
coedge $-1 $94 $243 $239 $244 forward $57 $-1 #
coedge $-1 $241 $97 $94 $165 forward $170 $-1 #
edge $-1 $172 -4.4804840554819023 $245 15.656802221126931 $164 $246 forward 7 unknown #
coedge $-1 $247 $248 $95 $167 forward $159 $-1 #
edge $-1 $249 -70.054436977270313 $171 -66.872542099484804 $166 $250 forward 7 unknown #
edge $-1 $172 50.330344035025846 $249 55.877808392209005 $96 $251 forward 7 unknown #
coedge $-1 $97 $241 $247 $252 forward $170 $-1 #
loop $-1 $-1 $241 $158 #
vertex $-1 $167 $253 #
vertex $-1 $98 $254 #
straight-curve $-1 1.107675027340612 30.040297545493171 6.3960965586308873 0 -1 0 I I #
coedge $-1 $174 $174 $-1 $255 reversed $101 $-1 #
edge $-1 $256 0 $256 6.2831853071796004 $102 $257 forward 7 unknown #
vertex $-1 $105 $258 #
ellipse-curve $-1 5.1351322826623687 25.666795826058088 4.8051491197381218 0 0.57357644374324357 0.81915203911291934 1 0 0 1 I I #
coedge $-1 $178 $178 $-1 $259 reversed $108 $-1 #
edge $-1 $260 0 $260 6.2831853071796004 $109 $261 forward 7 unknown #
vertex $-1 $112 $262 #
ellipse-curve $-1 11.176318165645014 25.666795826058088 4.8051491197381218 0 0.57357644374324357 0.81915203911291934 1 0 0 1 I I #
coedge $-1 $182 $182 $-1 $263 reversed $115 $-1 #
edge $-1 $264 0 $264 6.2831853071796004 $116 $265 forward 7 unknown #
vertex $-1 $119 $266 #
ellipse-curve $-1 17.21750404862766 25.666795826058088 4.8051491197381218 0 0.57357644374324357 0.81915203911291934 1 0 0 1 I I #
face $-1 $-1 $135 $18 $-1 $267 reversed single #
loop $-1 $-1 $202 $120 #
plane-surface $-1 0 27.938904196104495 0 0 -1 0 0 0 -1 forward_v I I I I #
coedge $-1 $268 $200 $203 $269 forward $121 $-1 #
coedge $-1 $206 $123 $124 $194 reversed $76 $-1 #
coedge $-1 $200 $268 $123 $192 reversed $121 $-1 #
edge $-1 $207 -6.3960965586308873 $270 6.3960965586308873 $191 $271 forward 7 unknown #
coedge $-1 $125 $124 $268 $272 forward $49 $-1 #
edge $-1 $198 -67.919553209021274 $270 67.919553209021274 $190 $273 forward 7 unknown #
coedge $-1 $203 $202 $125 $196 reversed $187 $-1 #
edge $-1 $274 -67.919553209021274 $197 67.919553209021274 $195 $275 forward 7 unknown #
vertex $-1 $127 $276 #
vertex $-1 $209 $277 #
straight-curve $-1 67.919553209021274 0 -6.3960965586308873 0 -1 0 I I #
coedge $-1 $189 $191 $128 $201 reversed $121 $-1 #
edge $-1 $204 -27.938904196104495 $207 27.938904196104495 $200 $278 forward 7 unknown #
coedge $-1 $195 $129 $134 $210 forward $187 $-1 #
coedge $-1 $129 $195 $189 $269 reversed $187 $-1 #
vertex $-1 $130 $279 #
straight-curve $-1 0 27.938904196104495 6.3960965586308873 -1 0 0 I I #
coedge $-1 $131 $190 $133 $209 reversed $76 $-1 #
vertex $-1 $201 $280 #
straight-curve $-1 0 -27.938904196104495 6.3960965586308873 1 0 0 I I #
edge $-1 $136 -6.3960965586308873 $198 6.3960965586308873 $133 $281 forward 7 unknown #
edge $-1 $137 -6.3960965586308873 $197 6.3960965586308873 $134 $282 forward 7 unknown #
point $-1 67.919553209021274 -27.938904196104495 6.3960965586308873 #
point $-1 67.919553209021274 27.938904196104495 6.3960965586308873 #
face $-1 $-1 $154 $19 $-1 $283 reversed single #
loop $-1 $-1 $150 $139 #
plane-surface $-1 0 -27.938904196104495 0 0 1 0 0 0 1 forward_v I I I I #
coedge $-1 $284 $285 $147 $226 forward $140 $-1 #
coedge $-1 $227 $142 $144 $222 reversed $84 $-1 #
edge $-1 $224 -2.8439723043490561 $155 0.15602769565094365 $153 $286 forward 7 unknown #
coedge $-1 $144 $143 $287 $288 reversed $53 $-1 #
coedge $-1 $231 $230 $143 $221 forward $214 $-1 #
edge $-1 $289 -67.919553209021274 $223 67.919553209021274 $220 $290 forward 7 unknown #
edge $-1 $291 -67.919553209021274 $224 67.919553209021274 $217 $292 forward 7 unknown #
vertex $-1 $221 $293 #
vertex $-1 $146 $294 #
straight-curve $-1 67.919553209021274 -12.300954563632041 -4.1879446086981122 0 1 0 I I #
edge $-1 $232 -15.637949632472454 $228 -8.963959494791629 $216 $295 forward 7 unknown #
coedge $-1 $148 $217 $284 $296 reversed $84 $-1 #
vertex $-1 $226 $297 #
straight-curve $-1 0 -21.26491405842367 -1.1879446086981125 -1 0 0 I I #
coedge $-1 $220 $150 $285 $298 forward $214 $-1 #
coedge $-1 $150 $220 $152 $234 reversed $214 $-1 #
vertex $-1 $298 $299 #
straight-curve $-1 0 -27.938904196104495 -1.1879446086981125 -1 0 0 I I #
edge $-1 $156 1.1879446086981125 $223 4.1879446086981122 $152 $300 forward 7 unknown #
point $-1 67.919553209021274 -21.26491405842367 -1.1879446086981125 #
point $-1 67.919553209021274 -27.938904196104495 -1.1879446086981125 #
plane-surface $-1 0 0 6.3960965586308873 0 0 1 1 0 0 forward_v I I I I #
coedge $-1 $248 $247 $240 $301 forward $159 $-1 #
coedge $-1 $240 $161 $163 $244 reversed $92 $-1 #
coedge $-1 $161 $239 $238 $301 reversed $92 $-1 #
coedge $-1 $169 $164 $161 $242 forward $170 $-1 #
edge $-1 $245 -6.6456100894815044 $302 -2.1013933493886761 $241 $303 forward 7 unknown #
coedge $-1 $163 $162 $248 $304 reversed $57 $-1 #
edge $-1 $305 -55.877808392209005 $245 -50.330344035025846 $239 $306 forward 7 unknown #
vertex $-1 $165 $307 #
straight-curve $-1 5.5881590828225143 23.394687456011667 6.3960965586308873 1 0 0 I I #
coedge $-1 $238 $166 $169 $252 reversed $159 $-1 #
coedge $-1 $166 $238 $243 $304 forward $159 $-1 #
vertex $-1 $167 $308 #
straight-curve $-1 1.107675027340612 27.938904196104495 73.268638658115691 0 0 1 I I #
straight-curve $-1 1.107675027340612 -17.83351648953451 35.264396302614983 0 0.81915203911291934 -0.57357644374324357 I I #
edge $-1 $302 -21.244961303949445 $171 -1.107675027340612 $247 $309 forward 7 unknown #
point $-1 1.107675027340612 27.938904196104495 6.3960965586308873 #
point $-1 1.107675027340612 23.394687456011667 6.3960965586308873 #
edge $-1 $310 1 $310 0 $174 $-1 forward 7 unknown #
vertex $-1 $175 $311 #
ellipse-curve $-1 5.1351322826623687 23.830623010637364 2.1828226237272532 0 0.57357644374324357 0.81915203911291934 1 0 0 1 I I #
point $-1 6.1351322826623687 25.666795826058099 4.8051491197381413 #
edge $-1 $312 1 $312 0 $178 $-1 forward 7 unknown #
vertex $-1 $179 $313 #
ellipse-curve $-1 11.176318165645014 23.830623010637364 2.1828226237272532 0 0.57357644374324357 0.81915203911291934 1 0 0 1 I I #
point $-1 12.176318165645014 25.666795826058099 4.8051491197381413 #
edge $-1 $314 1 $314 0 $182 $-1 forward 7 unknown #
vertex $-1 $183 $315 #
ellipse-curve $-1 17.21750404862766 23.830623010637364 2.1828226237272532 0 0.57357644374324357 0.81915203911291934 1 0 0 1 I I #
point $-1 18.21750404862766 25.666795826058099 4.8051491197381413 #
plane-surface $-1 67.919553209021274 0 0 -1 0 0 0 0 1 forward_v I I I I #
coedge $-1 $191 $189 $193 $272 reversed $121 $-1 #
edge $-1 $204 -6.3960965586308873 $274 6.3960965586308873 $203 $316 forward 7 unknown #
vertex $-1 $272 $317 #
straight-curve $-1 -67.919553209021274 -27.938904196104495 0 0 0 -1 I I #
edge $-1 $270 -27.938904196104495 $274 27.938904196104495 $268 $318 forward 7 unknown #
straight-curve $-1 0 -27.938904196104495 -6.3960965586308873 -1 0 0 I I #
vertex $-1 $196 $319 #
straight-curve $-1 0 27.938904196104495 -6.3960965586308873 1 0 0 I I #
point $-1 67.919553209021274 27.938904196104495 -6.3960965586308873 #
point $-1 67.919553209021274 -27.938904196104495 -6.3960965586308873 #
straight-curve $-1 -67.919553209021274 0 6.3960965586308873 0 -1 0 I I #
point $-1 -67.919553209021274 27.938904196104495 6.3960965586308873 #
point $-1 -67.919553209021274 -27.938904196104495 6.3960965586308873 #
straight-curve $-1 67.919553209021274 -27.938904196104495 0 0 0 -1 I I #
straight-curve $-1 67.919553209021274 27.938904196104495 0 0 0 -1 I I #
plane-surface $-1 67.919553209021274 0 0 -1 0 0 0 0 1 forward_v I I I I #
coedge $-1 $287 $216 $227 $296 forward $140 $-1 #
coedge $-1 $216 $287 $230 $298 reversed $140 $-1 #
straight-curve $-1 67.919553209021274 -21.26491405842367 -1.3439723043490561 0 0 1 I I #
coedge $-1 $285 $284 $219 $288 forward $140 $-1 #
edge $-1 $291 8.963959494791629 $289 15.637949632472454 $287 $320 forward 7 unknown #
vertex $-1 $221 $321 #
straight-curve $-1 0 -27.938904196104495 -4.1879446086981122 1 0 0 I I #
vertex $-1 $288 $322 #
straight-curve $-1 0 -21.26491405842367 -4.1879446086981122 1 0 0 I I #
point $-1 67.919553209021274 -27.938904196104495 -4.1879446086981122 #
point $-1 67.919553209021274 -21.26491405842367 -4.1879446086981122 #
straight-curve $-1 -67.919553209021274 -12.300954563632041 -1.1879446086981125 0 1 0 I I #
edge $-1 $228 -0.15602769565094365 $291 2.8439723043490561 $284 $323 forward 7 unknown #
point $-1 -67.919553209021274 -21.26491405842367 -1.1879446086981125 #
edge $-1 $232 1.1879446086981125 $289 4.1879446086981122 $285 $324 forward 7 unknown #
point $-1 -67.919553209021274 -27.938904196104495 -1.1879446086981125 #
straight-curve $-1 67.919553209021274 -27.938904196104495 0 0 0 -1 I I #
edge $-1 $302 66.872542099484804 $305 70.054436977270313 $238 $325 forward 7 unknown #
vertex $-1 $252 $326 #
straight-curve $-1 21.244961303949445 30.040297545493171 6.3960965586308873 0 1 0 I I #
edge $-1 $305 -15.656802221126931 $249 4.4804840554819023 $248 $327 forward 7 unknown #
vertex $-1 $304 $328 #
straight-curve $-1 21.244961303949445 -17.83351648953451 35.264396302614983 0 -0.81915203911291934 0.57357644374324357 I I #
point $-1 21.244961303949445 23.394687456011667 6.3960965586308873 #
point $-1 1.107675027340612 27.938904196104495 3.2142016808453704 #
straight-curve $-1 0 27.938904196104495 6.3960965586308873 -1 0 0 I I #
vertex $-1 $255 $329 #
point $-1 6.1351322826623687 23.830623010637364 2.1828226237272532 #
vertex $-1 $259 $330 #
point $-1 12.176318165645014 23.830623010637364 2.1828226237272532 #
vertex $-1 $263 $331 #
point $-1 18.21750404862766 23.830623010637364 2.1828226237272532 #
straight-curve $-1 -67.919553209021274 27.938904196104495 0 0 0 -1 I I #
point $-1 -67.919553209021274 -27.938904196104495 -6.3960965586308873 #
straight-curve $-1 -67.919553209021274 0 -6.3960965586308873 0 1 0 I I #
point $-1 -67.919553209021274 27.938904196104495 -6.3960965586308873 #
straight-curve $-1 -67.919553209021274 -12.300954563632041 -4.1879446086981122 0 -1 0 I I #
point $-1 -67.919553209021274 -27.938904196104495 -4.1879446086981122 #
point $-1 -67.919553209021274 -21.26491405842367 -4.1879446086981122 #
straight-curve $-1 -67.919553209021274 -21.26491405842367 -1.3439723043490561 0 0 -1 I I #
straight-curve $-1 -67.919553209021274 -27.938904196104495 0 0 0 -1 I I #
straight-curve $-1 21.244961303949445 27.938904196104495 73.268638658115691 0 0 -1 I I #
point $-1 21.244961303949445 27.938904196104495 6.3960965586308873 #
straight-curve $-1 5.5881590828225143 27.938904196104502 3.2142016808453686 -1 0 0 I I #
point $-1 21.244961303949445 27.938904196104495 3.2142016808453704 #
point $-1 5.1351322826623687 23.257046566894122 1.363670584614334 #
point $-1 11.176318165645014 23.257046566894122 1.363670584614334 #
point $-1 17.21750404862766 23.257046566894122 1.363670584614334 #
End-of-ACIS-data 