500 0 6 0           
7 Unknown 11 ACIS 5.0 NT 24 Fri Mar 26 18:10:48 1999 
-1 9.9999999999999995e-007 1e-010 
body $-1 $6 $-1 $7 #
body $-1 $8 $-1 $9 #
body $-1 $10 $-1 $11 #
body $-1 $12 $-1 $13 #
body $-1 $14 $-1 $15 #
body $-1 $16 $-1 $17 #
lump $-1 $-1 $18 $0 #
transform $-1 1 0 0 0 1 0 0 0 1 51.079439680166018 31.012594892090423 13.511920787925368 1 rotate no_reflect no_shear #
lump $-1 $-1 $19 $1 #
transform $-1 1 0 0 0 1 0 0 0 1 51.079439680166018 31.012594892090423 13.511920787925368 1 rotate no_reflect no_shear #
lump $-1 $-1 $20 $2 #
transform $-1 1 0 0 0 1 0 0 0 1 51.079439680166018 31.012594892090423 13.511920787925368 1 rotate no_reflect no_shear #
lump $-1 $-1 $21 $3 #
transform $-1 1 0 0 0 1 0 0 0 1 51.079439680166018 31.012594892090423 13.511920787925368 1 rotate no_reflect no_shear #
lump $-1 $-1 $22 $4 #
transform $-1 1 0 0 0 1 0 0 0 1 51.079439680166018 31.012594892090423 13.511920787925368 1 rotate no_reflect no_shear #
lump $-1 $-1 $23 $5 #
transform $-1 1 0 0 0 1 0 0 0 1 51.079439680166018 31.012594892090423 13.511920787925368 1 rotate no_reflect no_shear #
shell $-1 $-1 $-1 $24 $-1 $6 #
shell $-1 $-1 $-1 $25 $-1 $8 #
shell $-1 $-1 $-1 $26 $-1 $10 #
shell $-1 $-1 $-1 $27 $-1 $12 #
shell $-1 $-1 $-1 $28 $-1 $14 #
shell $-1 $-1 $-1 $29 $-1 $16 #
face $-1 $30 $31 $18 $-1 $32 forward single #
face $-1 $33 $34 $19 $-1 $35 reversed single #
face $-1 $36 $37 $20 $-1 $38 reversed single #
face $-1 $39 $40 $21 $-1 $41 forward single #
face $-1 $42 $43 $22 $-1 $44 reversed single #
face $-1 $45 $46 $23 $-1 $47 forward single #
face $-1 $48 $49 $18 $-1 $50 reversed single #
loop $-1 $-1 $51 $24 #
plane-surface $-1 0 0 13.511920787925368 0 0 1 1 0 0 forward_v I I I I #
face $-1 $52 $53 $19 $-1 $54 reversed single #
loop $-1 $-1 $55 $25 #
plane-surface $-1 -44.643943598503157 -9.6745062447370351 0 0 1 0 0 0 1 forward_v I I I I #
face $-1 $56 $57 $20 $-1 $58 reversed single #
loop $-1 $-1 $59 $26 #
plane-surface $-1 6.4354960816628584 -86.652309094109711 92.170801940932279 -1 0 0 0 -0.54463904215088732 0.83867056331134215 forward_v I I I I #
face $-1 $60 $61 $21 $-1 $62 forward single #
loop $-1 $63 $64 $27 #
cone-surface $-1 -1.1764005305780358 -24.71088970957598 8.620154285663455 0 0.54463904215088732 -0.83867056331134215 2 0 0 1 I I 0 1 2 forward I I I I #
face $-1 $65 $66 $22 $-1 $67 reversed single #
loop $-1 $-1 $68 $28 #
plane-surface $-1 43.467543067925121 -31.012594892090419 6.4931570405471604 0 -0.54463904215088732 0.83867056331134215 1 0 0 forward_v I I I I #
face $-1 $69 $70 $23 $-1 $71 forward single #
loop $-1 $72 $73 $29 #
cone-surface $-1 43.467543067925121 -24.71088970957598 8.620154285663455 0 0.54463904215088732 -0.83867056331134215 2 0 0 1 I I 0 1 2 forward I I I I #
face $-1 $74 $75 $18 $-1 $76 reversed single #
loop $-1 $-1 $77 $30 #
plane-surface $-1 0 0 -13.511920787925368 0 0 1 1 0 0 forward_v I I I I #
coedge $-1 $78 $79 $80 $81 forward $31 $-1 #
face $-1 $82 $83 $19 $-1 $84 reversed single #
loop $-1 $-1 $85 $33 #
plane-surface $-1 -44.643943598503157 -3.9887533162396913 0 0 -1 0 0 0 -1 forward_v I I I I #
coedge $-1 $86 $87 $88 $89 reversed $34 $-1 #
face $-1 $90 $91 $20 $-1 $92 reversed single #
loop $-1 $-1 $93 $36 #
plane-surface $-1 -1.1764005305780358 -31.012594892090419 6.4931570405471604 0 -0.54463904215088732 0.83867056331134215 1 0 0 forward_v I I I I #
coedge $-1 $94 $95 $96 $97 reversed $37 $-1 #
face $-1 $-1 $98 $21 $-1 $99 forward single #
loop $-1 $100 $101 $39 #
cone-surface $-1 -1.1764005305780358 -23.268519576187892 6.3990990937792933 0 0.54463904215088732 -0.83867056331134215 1 0 0 1 I I -0.70710678118654724 0.70710678118654791 1 forward I I I I #
loop $-1 $-1 $102 $27 #
coedge $-1 $64 $64 $103 $104 reversed $40 $-1 #
face $-1 $105 $106 $22 $-1 $107 reversed single #
loop $-1 $-1 $108 $42 #
plane-surface $-1 35.855646455684223 -86.652309094109711 92.170801940932279 1 0 0 0 0.54463904215088732 -0.83867056331134215 forward_v I I I I #
coedge $-1 $109 $110 $111 $112 reversed $43 $-1 #
face $-1 $-1 $113 $23 $-1 $114 forward single #
loop $-1 $115 $116 $45 #
cone-surface $-1 43.467543067925121 -23.268519576187892 6.3990990937792933 0 0.54463904215088732 -0.83867056331134215 1 0 0 1 I I -0.70710678118654724 0.70710678118654791 1 forward I I I I #
loop $-1 $-1 $117 $29 #
coedge $-1 $73 $73 $118 $119 reversed $46 $-1 #
face $-1 $120 $121 $18 $-1 $122 reversed single #
loop $-1 $-1 $123 $48 #
plane-surface $-1 0 -31.012594892090423 0 0 1 0 0 0 1 forward_v I I I I #
coedge $-1 $124 $125 $126 $127 forward $49 $-1 #
coedge $-1 $128 $51 $129 $130 forward $31 $-1 #
coedge $-1 $51 $128 $131 $132 forward $31 $-1 #
coedge $-1 $133 $134 $51 $81 reversed $135 $-1 #
edge $-1 $136 -31.012594892090423 $137 31.012594892090423 $80 $138 forward 7 unknown #
face $-1 $139 $140 $19 $-1 $141 reversed single #
loop $-1 $-1 $142 $52 #
plane-surface $-1 -38.208447516840295 -6.8316297804883632 0 -1 0 0 0 0 1 forward_v I I I I #
coedge $-1 $143 $144 $145 $146 forward $53 $-1 #
coedge $-1 $147 $55 $148 $149 reversed $34 $-1 #
coedge $-1 $55 $147 $150 $151 reversed $34 $-1 #
coedge $-1 $152 $153 $55 $89 forward $154 $-1 #
edge $-1 $155 -13.511920787925368 $156 13.511920787925368 $88 $157 forward 7 unknown #
face $-1 $158 $159 $20 $-1 $160 reversed single #
loop $-1 $-1 $161 $56 #
plane-surface $-1 -8.78829714281893 -86.652309094109711 92.170801940932279 1 0 0 0 0.54463904215088732 -0.83867056331134215 forward_v I I I I #
coedge $-1 $162 $163 $164 $165 reversed $57 $-1 #
coedge $-1 $95 $59 $166 $167 reversed $37 $-1 #
coedge $-1 $59 $94 $162 $168 reversed $37 $-1 #
coedge $-1 $164 $169 $59 $97 forward $170 $-1 #
edge $-1 $171 12.313559654964433 $172 23.121507837518941 $96 $173 forward 7 unknown #
loop $-1 $-1 $103 $60 #
plane-surface $-1 -1.1764005305780358 -31.012594892090419 6.4931570405471604 0 -0.54463904215088732 0.83867056331134215 1 0 0 forward_v I I I I #
loop $-1 $-1 $174 $39 #
coedge $-1 $101 $101 $102 $175 reversed $61 $-1 #
coedge $-1 $102 $102 $101 $175 forward $63 $-1 #
coedge $-1 $103 $103 $64 $104 forward $98 $-1 #
edge $-1 $176 -1.0831780670733354e-015 $176 6.2831853071795996 $103 $177 forward 7 unknown #
face $-1 $178 $179 $22 $-1 $180 forward single #
loop $-1 $-1 $181 $65 #
plane-surface $-1 0 -31.012594892090423 0 0 1 0 0 0 1 forward_v I I I I #
coedge $-1 $182 $183 $184 $185 reversed $66 $-1 #
coedge $-1 $186 $68 $187 $188 reversed $43 $-1 #
coedge $-1 $68 $186 $182 $189 forward $43 $-1 #
coedge $-1 $184 $190 $68 $112 forward $179 $-1 #
edge $-1 $191 -29.345668146203458 $192 -14.121874921721663 $111 $193 forward 7 unknown #
loop $-1 $-1 $118 $69 #
plane-surface $-1 43.467543067925121 -31.012594892090419 6.4931570405471604 0 -0.54463904215088732 0.83867056331134215 1 0 0 forward_v I I I I #
loop $-1 $-1 $194 $45 #
coedge $-1 $116 $116 $117 $195 reversed $70 $-1 #
coedge $-1 $117 $117 $116 $195 forward $72 $-1 #
coedge $-1 $118 $118 $73 $119 forward $113 $-1 #
edge $-1 $196 -1.0831780670733354e-015 $196 6.2831853071795996 $118 $197 forward 7 unknown #
face $-1 $198 $199 $18 $-1 $200 reversed single #
loop $-1 $-1 $201 $74 #
plane-surface $-1 -51.079439680166018 0 0 1 0 0 0 0 -1 forward_v I I I I #
coedge $-1 $202 $131 $203 $204 forward $75 $-1 #
coedge $-1 $205 $77 $202 $206 forward $49 $-1 #
coedge $-1 $77 $205 $207 $208 forward $49 $-1 #
coedge $-1 $134 $133 $77 $127 reversed $135 $-1 #
edge $-1 $209 -31.012594892090423 $210 31.012594892090423 $126 $211 forward 7 unknown #
coedge $-1 $79 $78 $212 $213 forward $31 $-1 #
coedge $-1 $214 $215 $78 $130 reversed $199 $-1 #
edge $-1 $137 -51.079439680166018 $216 51.079439680166018 $129 $217 forward 7 unknown #
coedge $-1 $123 $218 $79 $132 reversed $75 $-1 #
edge $-1 $219 -51.079439680166018 $136 51.079439680166018 $131 $220 forward 7 unknown #
coedge $-1 $126 $80 $218 $221 forward $135 $-1 #
coedge $-1 $80 $126 $214 $222 reversed $135 $-1 #
loop $-1 $-1 $133 $198 #
vertex $-1 $81 $223 #
vertex $-1 $81 $224 #
straight-curve $-1 51.079439680166018 0 13.511920787925368 0 1 0 I I #
face $-1 $225 $226 $19 $-1 $227 forward single #
loop $-1 $-1 $228 $82 #
plane-surface $-1 0 0 -13.511920787925368 0 0 1 1 0 0 forward_v I I I I #
coedge $-1 $229 $230 $147 $231 forward $83 $-1 #
coedge $-1 $232 $85 $228 $233 reversed $53 $-1 #
coedge $-1 $85 $232 $234 $235 reversed $53 $-1 #
coedge $-1 $230 $229 $85 $146 reversed $83 $-1 #
edge $-1 $236 -13.511920787925368 $237 13.511920787925368 $145 $238 forward 7 unknown #
coedge $-1 $87 $86 $142 $231 reversed $34 $-1 #
coedge $-1 $239 $240 $86 $149 forward $140 $-1 #
edge $-1 $241 15.886475717588716 $155 28.75746788091444 $148 $242 forward 7 unknown #
coedge $-1 $243 $244 $87 $151 forward $226 $-1 #
edge $-1 $156 -28.75746788091444 $245 -15.886475717588716 $150 $246 forward 7 unknown #
coedge $-1 $247 $88 $244 $248 reversed $154 $-1 #
coedge $-1 $88 $247 $239 $249 reversed $154 $-1 #
loop $-1 $-1 $247 $225 #
vertex $-1 $249 $250 #
vertex $-1 $89 $251 #
straight-curve $-1 -51.079439680166018 -9.6745062447370351 0 0 0 1 I I #
face $-1 $-1 $170 $20 $-1 $252 forward single #
loop $-1 $-1 $253 $90 #
plane-surface $-1 0 -31.012594892090423 0 0 1 0 0 0 1 forward_v I I I I #
coedge $-1 $254 $255 $256 $257 reversed $91 $-1 #
coedge $-1 $258 $93 $95 $168 forward $57 $-1 #
coedge $-1 $93 $258 $254 $259 forward $57 $-1 #
coedge $-1 $256 $96 $93 $165 forward $170 $-1 #
edge $-1 $172 -7.0236963469518763 $260 8.2000968775299121 $164 $261 forward 7 unknown #
coedge $-1 $262 $263 $94 $167 forward $159 $-1 #
edge $-1 $264 -39.592243929918979 $171 -32.57348018254077 $166 $265 forward 7 unknown #
edge $-1 $172 -12.887000754958223 $264 4.4307663135772214e-015 $95 $266 forward 7 unknown #
coedge $-1 $96 $256 $262 $267 forward $170 $-1 #
loop $-1 $-1 $256 $158 #
vertex $-1 $167 $268 #
vertex $-1 $97 $269 #
straight-curve $-1 6.4354960816628584 -43.326154547054855 13.511920787925369 0 1 0 I I #
coedge $-1 $174 $174 $-1 $270 reversed $100 $-1 #
edge $-1 $271 0 $271 6.2831853071796004 $101 $272 forward 7 unknown #
vertex $-1 $104 $273 #
ellipse-curve $-1 -1.1764005305780358 -25.608620800813174 10.002538914236261 0 -0.54463904215088732 0.83867056331134215 2 0 0 1 I I #
face $-1 $-1 $274 $22 $-1 $275 reversed single #
loop $-1 $-1 $184 $105 #
plane-surface $-1 0 0 13.511920787925368 0 0 1 1 0 0 forward_v I I I I #
coedge $-1 $276 $277 $183 $278 forward $106 $-1 #
coedge $-1 $183 $108 $110 $189 reversed $66 $-1 #
coedge $-1 $108 $182 $181 $278 reversed $66 $-1 #
coedge $-1 $279 $111 $108 $185 forward $179 $-1 #
edge $-1 $192 -23.121507837518941 $280 -12.313559654964433 $184 $281 forward 7 unknown #
coedge $-1 $110 $109 $276 $282 reversed $43 $-1 #
coedge $-1 $283 $284 $109 $188 forward $274 $-1 #
edge $-1 $285 -11.236461798398517 $191 1.6505389565597084 $187 $286 forward 7 unknown #
edge $-1 $287 -4.4307663135772214e-015 $192 12.887000754958223 $182 $288 forward 7 unknown #
coedge $-1 $111 $279 $283 $289 forward $179 $-1 #
vertex $-1 $188 $290 #
vertex $-1 $112 $291 #
straight-curve $-1 21.73377153396256 -20.204646709535918 13.511920787925368 -1 0 0 I I #
coedge $-1 $194 $194 $-1 $292 reversed $115 $-1 #
edge $-1 $293 0 $293 6.2831853071796004 $116 $294 forward 7 unknown #
vertex $-1 $119 $295 #
ellipse-curve $-1 43.467543067925121 -25.608620800813174 10.002538914236261 0 -0.54463904215088732 0.83867056331134215 2 0 0 1 I I #
face $-1 $-1 $135 $18 $-1 $296 reversed single #
loop $-1 $-1 $214 $120 #
plane-surface $-1 0 31.012594892090423 0 0 -1 0 0 0 -1 forward_v I I I I #
coedge $-1 $297 $212 $215 $298 forward $121 $-1 #
coedge $-1 $218 $123 $124 $206 reversed $75 $-1 #
coedge $-1 $212 $297 $123 $204 reversed $121 $-1 #
edge $-1 $219 -13.511920787925368 $299 13.511920787925368 $203 $300 forward 7 unknown #
coedge $-1 $125 $124 $297 $301 forward $49 $-1 #
edge $-1 $210 -51.079439680166018 $299 51.079439680166018 $202 $302 forward 7 unknown #
coedge $-1 $215 $214 $125 $208 reversed $199 $-1 #
edge $-1 $303 -51.079439680166018 $209 51.079439680166018 $207 $304 forward 7 unknown #
vertex $-1 $127 $305 #
vertex $-1 $221 $306 #
straight-curve $-1 51.079439680166018 0 -13.511920787925368 0 -1 0 I I #
coedge $-1 $201 $203 $128 $213 reversed $121 $-1 #
edge $-1 $216 -31.012594892090423 $219 31.012594892090423 $212 $307 forward 7 unknown #
coedge $-1 $207 $129 $134 $222 forward $199 $-1 #
coedge $-1 $129 $207 $201 $298 reversed $199 $-1 #
vertex $-1 $130 $308 #
straight-curve $-1 0 31.012594892090423 13.511920787925368 -1 0 0 I I #
coedge $-1 $131 $202 $133 $221 reversed $75 $-1 #
vertex $-1 $213 $309 #
straight-curve $-1 0 -31.012594892090423 13.511920787925368 1 0 0 I I #
edge $-1 $136 -13.511920787925368 $210 13.511920787925368 $133 $310 forward 7 unknown #
edge $-1 $137 -13.511920787925368 $209 13.511920787925368 $134 $311 forward 7 unknown #
point $-1 51.079439680166018 -31.012594892090423 13.511920787925368 #
point $-1 51.079439680166018 31.012594892090423 13.511920787925368 #
face $-1 $-1 $154 $19 $-1 $312 reversed single #
loop $-1 $-1 $234 $139 #
plane-surface $-1 0 0 13.511920787925368 0 0 1 1 0 0 forward_v I I I I #
coedge $-1 $240 $239 $143 $233 forward $140 $-1 #
coedge $-1 $145 $142 $240 $313 reversed $83 $-1 #
coedge $-1 $142 $145 $243 $314 reversed $83 $-1 #
edge $-1 $245 -13.511920787925368 $241 13.511920787925368 $142 $315 forward 7 unknown #
coedge $-1 $144 $143 $247 $316 reversed $53 $-1 #
edge $-1 $317 -28.75746788091444 $237 -15.886475717588716 $228 $318 forward 7 unknown #
coedge $-1 $244 $243 $144 $235 forward $226 $-1 #
edge $-1 $236 15.886475717588716 $319 28.75746788091444 $234 $320 forward 7 unknown #
vertex $-1 $235 $321 #
vertex $-1 $233 $322 #
straight-curve $-1 -38.208447516840295 -3.9887533162396913 0 0 0 -1 I I #
coedge $-1 $228 $148 $153 $249 forward $140 $-1 #
coedge $-1 $148 $228 $229 $313 forward $140 $-1 #
vertex $-1 $149 $323 #
straight-curve $-1 -22.321971799251578 -9.6745062447370351 -13.511920787925368 -1 0 0 I I #
coedge $-1 $234 $150 $230 $314 forward $226 $-1 #
coedge $-1 $150 $234 $152 $248 forward $226 $-1 #
vertex $-1 $151 $324 #
straight-curve $-1 -22.321971799251578 -9.6745062447370351 13.511920787925368 1 0 0 I I #
coedge $-1 $153 $152 $232 $316 forward $154 $-1 #
edge $-1 $319 3.9887533162396913 $156 9.6745062447370351 $152 $325 forward 7 unknown #
edge $-1 $155 -9.6745062447370351 $317 -3.9887533162396913 $153 $326 forward 7 unknown #
point $-1 -51.079439680166018 -9.6745062447370351 -13.511920787925368 #
point $-1 -51.079439680166018 -9.6745062447370351 13.511920787925368 #
plane-surface $-1 0 0 13.511920787925368 0 0 1 1 0 0 forward_v I I I I #
coedge $-1 $263 $262 $255 $327 forward $159 $-1 #
coedge $-1 $255 $161 $163 $259 reversed $91 $-1 #
coedge $-1 $161 $254 $253 $327 reversed $91 $-1 #
coedge $-1 $169 $164 $161 $257 forward $170 $-1 #
edge $-1 $260 -23.121507837518941 $328 -12.313559654964433 $256 $329 forward 7 unknown #
coedge $-1 $163 $162 $263 $330 reversed $57 $-1 #
edge $-1 $331 -4.4307663135772214e-015 $260 12.887000754958223 $254 $332 forward 7 unknown #
vertex $-1 $165 $333 #
straight-curve $-1 -0.58820026528901792 -20.204646709535918 13.511920787925368 -1 0 0 I I #
coedge $-1 $253 $166 $169 $267 reversed $159 $-1 #
coedge $-1 $166 $253 $258 $330 forward $159 $-1 #
vertex $-1 $167 $334 #
straight-curve $-1 6.4354960816628584 -31.012594892090423 46.085400970466139 0 0 1 I I #
straight-curve $-1 6.4354960816628584 -31.012594892090419 6.4931570405471604 0 -0.83867056331134215 -0.54463904215088732 I I #
edge $-1 $328 -8.78829714281893 $171 6.4354960816628584 $262 $335 forward 7 unknown #
point $-1 6.4354960816628584 -31.012594892090423 13.511920787925368 #
point $-1 6.4354960816628584 -20.204646709535915 13.511920787925368 #
edge $-1 $336 1 $336 0 $174 $-1 forward 7 unknown #
vertex $-1 $175 $337 #
ellipse-curve $-1 -1.1764005305780358 -23.813158618338779 7.2377696570906362 0 -0.54463904215088732 0.83867056331134215 2 0 0 1 I I #
point $-1 0.82359946942196416 -25.608620800813185 10.002538914236274 #
loop $-1 $-1 $187 $178 #
plane-surface $-1 51.079439680166018 0 0 -1 0 0 0 0 1 forward_v I I I I #
coedge $-1 $338 $181 $186 $282 forward $106 $-1 #
coedge $-1 $181 $338 $279 $339 reversed $106 $-1 #
edge $-1 $280 32.57348018254077 $287 39.592243929918979 $181 $340 forward 7 unknown #
coedge $-1 $190 $184 $277 $339 forward $179 $-1 #
vertex $-1 $339 $341 #
straight-curve $-1 35.855646455684223 -43.326154547054855 13.511920787925369 0 -1 0 I I #
edge $-1 $287 14.121874921721663 $285 29.345668146203458 $276 $342 forward 7 unknown #
coedge $-1 $284 $187 $190 $289 reversed $274 $-1 #
coedge $-1 $187 $283 $338 $343 forward $274 $-1 #
vertex $-1 $282 $344 #
straight-curve $-1 51.079439680166018 -21.58890514600116 12.612972831591962 0 0.83867056331134215 0.54463904215088732 I I #
vertex $-1 $282 $345 #
straight-curve $-1 35.855646455684223 -31.012594892090419 6.4931570405471604 0 0.83867056331134215 0.54463904215088732 I I #
edge $-1 $346 -31.012594892090423 $191 -20.204646709535915 $283 $347 forward 7 unknown #
point $-1 51.079439680166018 -20.204646709535915 13.511920787925368 #
point $-1 35.855646455684223 -20.204646709535915 13.511920787925368 #
edge $-1 $348 1 $348 0 $194 $-1 forward 7 unknown #
vertex $-1 $195 $349 #
ellipse-curve $-1 43.467543067925121 -23.813158618338779 7.2377696570906362 0 -0.54463904215088732 0.83867056331134215 2 0 0 1 I I #
point $-1 45.467543067925121 -25.608620800813185 10.002538914236274 #
plane-surface $-1 51.079439680166018 0 0 -1 0 0 0 0 1 forward_v I I I I #
coedge $-1 $203 $201 $205 $301 reversed $121 $-1 #
edge $-1 $216 -13.511920787925368 $303 13.511920787925368 $215 $350 forward 7 unknown #
vertex $-1 $301 $351 #
straight-curve $-1 -51.079439680166018 -31.012594892090423 0 0 0 -1 I I #
edge $-1 $299 -31.012594892090423 $303 31.012594892090423 $297 $352 forward 7 unknown #
straight-curve $-1 0 -31.012594892090423 -13.511920787925368 -1 0 0 I I #
vertex $-1 $208 $353 #
straight-curve $-1 0 31.012594892090423 -13.511920787925368 1 0 0 I I #
point $-1 51.079439680166018 31.012594892090423 -13.511920787925368 #
point $-1 51.079439680166018 -31.012594892090423 -13.511920787925368 #
straight-curve $-1 -51.079439680166018 0 13.511920787925368 0 -1 0 I I #
point $-1 -51.079439680166018 31.012594892090423 13.511920787925368 #
point $-1 -51.079439680166018 -31.012594892090423 13.511920787925368 #
straight-curve $-1 51.079439680166018 -31.012594892090423 0 0 0 -1 I I #
straight-curve $-1 51.079439680166018 31.012594892090423 0 0 0 -1 I I #
plane-surface $-1 -51.079439680166018 0 0 1 0 0 0 0 -1 forward_v I I I I #
edge $-1 $237 0.5729384259955097 $241 6.2586913544928535 $240 $354 forward 7 unknown #
edge $-1 $245 -6.2586913544928535 $236 -0.5729384259955097 $243 $355 forward 7 unknown #
straight-curve $-1 -38.208447516840295 -9.6745062447370351 0 0 0 -1 I I #
edge $-1 $319 -13.511920787925368 $317 13.511920787925368 $247 $356 forward 7 unknown #
vertex $-1 $316 $357 #
straight-curve $-1 -22.321971799251578 -3.9887533162396913 -13.511920787925368 1 0 0 I I #
vertex $-1 $248 $358 #
straight-curve $-1 -22.321971799251578 -3.9887533162396913 13.511920787925368 -1 0 0 I I #
point $-1 -38.208447516840295 -3.9887533162396913 13.511920787925368 #
point $-1 -38.208447516840295 -3.9887533162396913 -13.511920787925368 #
point $-1 -38.208447516840295 -9.6745062447370351 -13.511920787925368 #
point $-1 -38.208447516840295 -9.6745062447370351 13.511920787925368 #
straight-curve $-1 -51.079439680166018 0 13.511920787925368 0 -1 0 I I #
straight-curve $-1 -51.079439680166018 0 -13.511920787925368 0 1 0 I I #
edge $-1 $328 32.57348018254077 $331 39.592243929918979 $253 $359 forward 7 unknown #
vertex $-1 $267 $360 #
straight-curve $-1 -8.78829714281893 -43.326154547054855 13.511920787925369 0 -1 0 I I #
edge $-1 $331 -8.2000968775299121 $264 7.0236963469518763 $263 $361 forward 7 unknown #
vertex $-1 $330 $362 #
straight-curve $-1 -8.78829714281893 -31.012594892090419 6.4931570405471604 0 0.83867056331134215 0.54463904215088732 I I #
point $-1 -8.78829714281893 -20.204646709535915 13.511920787925368 #
point $-1 6.4354960816628584 -31.012594892090423 6.4931570405471577 #
straight-curve $-1 0 -31.012594892090423 13.511920787925368 1 0 0 I I #
vertex $-1 $270 $363 #
point $-1 0.82359946942196416 -23.813158618338779 7.2377696570906362 #
coedge $-1 $277 $276 $284 $343 reversed $106 $-1 #
edge $-1 $280 35.855646455684223 $346 51.079439680166018 $277 $364 forward 7 unknown #
straight-curve $-1 35.855646455684223 -31.012594892090423 46.085400970466139 0 0 -1 I I #
point $-1 35.855646455684223 -31.012594892090423 13.511920787925368 #
straight-curve $-1 21.73377153396256 -31.012594892090423 6.4931570405471586 1 0 0 I I #
edge $-1 $346 -13.511920787925368 $285 -6.4931570405471577 $284 $365 forward 7 unknown #
point $-1 51.079439680166018 -31.012594892090423 6.4931570405471577 #
point $-1 35.855646455684223 -31.012594892090423 6.4931570405471577 #
vertex $-1 $289 $366 #
straight-curve $-1 51.079439680166018 0 13.511920787925368 0 1 0 I I #
vertex $-1 $292 $367 #
point $-1 45.467543067925121 -23.813158618338779 7.2377696570906362 #
straight-curve $-1 -51.079439680166018 31.012594892090423 0 0 0 -1 I I #
point $-1 -51.079439680166018 -31.012594892090423 -13.511920787925368 #
straight-curve $-1 -51.079439680166018 0 -13.511920787925368 0 1 0 I I #
point $-1 -51.079439680166018 31.012594892090423 -13.511920787925368 #
straight-curve $-1 -38.208447516840295 -3.4158148902441816 -13.511920787925368 0 -1 0 I I #
straight-curve $-1 -38.208447516840295 -3.4158148902441816 13.511920787925368 0 1 0 I I #
straight-curve $-1 -51.079439680166018 -3.9887533162396913 0 0 0 -1 I I #
point $-1 -51.079439680166018 -3.9887533162396913 -13.511920787925368 #
point $-1 -51.079439680166018 -3.9887533162396913 13.511920787925368 #
straight-curve $-1 -8.78829714281893 -31.012594892090423 46.085400970466139 0 0 -1 I I #
point $-1 -8.78829714281893 -31.012594892090423 13.511920787925368 #
straight-curve $-1 -0.58820026528901792 -31.012594892090423 6.4931570405471586 1 0 0 I I #
point $-1 -8.78829714281893 -31.012594892090423 6.4931570405471577 #
point $-1 -1.1764005305780358 -22.723880534037004 5.5604285304679504 #
straight-curve $-1 0 -31.012594892090423 13.511920787925368 1 0 0 I I #
straight-curve $-1 51.079439680166018 -31.012594892090423 0 0 0 -1 I I #
point $-1 51.079439680166018 -31.012594892090423 13.511920787925368 #
point $-1 43.467543067925121 -22.723880534037004 5.5604285304679504 #
End-of-ACIS-data 