500 0 16 0           
7 Unknown 11 ACIS 5.0 NT 24 Thu Mar 25 22:47:32 1999 
-1 9.9999999999999995e-007 1e-010 
body $-1 $16 $-1 $17 #
body $-1 $18 $-1 $19 #
body $-1 $20 $-1 $21 #
body $-1 $22 $-1 $23 #
body $-1 $24 $-1 $25 #
body $-1 $26 $-1 $27 #
body $-1 $28 $-1 $29 #
body $-1 $30 $-1 $31 #
body $-1 $32 $-1 $33 #
body $-1 $34 $-1 $35 #
body $-1 $36 $-1 $37 #
body $-1 $38 $-1 $39 #
body $-1 $40 $-1 $41 #
body $-1 $42 $-1 $43 #
body $-1 $44 $-1 $45 #
body $-1 $46 $-1 $47 #
lump $-1 $-1 $48 $0 #
transform $-1 1 0 0 0 1 0 0 0 1 67.139500106814779 27.025457033260423 11.681971749860956 1 rotate no_reflect no_shear #
lump $-1 $-1 $49 $1 #
transform $-1 1 0 0 0 1 0 0 0 1 67.139500106814779 27.025457033260423 11.681971749860956 1 rotate no_reflect no_shear #
lump $-1 $-1 $50 $2 #
transform $-1 1 0 0 0 1 0 0 0 1 67.139500106814779 27.025457033260423 11.681971749860956 1 rotate no_reflect no_shear #
lump $-1 $-1 $51 $3 #
transform $-1 1 0 0 0 1 0 0 0 1 67.139500106814779 27.025457033260423 11.681971749860956 1 rotate no_reflect no_shear #
lump $-1 $-1 $52 $4 #
transform $-1 1 0 0 0 1 0 0 0 1 67.139500106814779 27.025457033260423 11.681971749860956 1 rotate no_reflect no_shear #
lump $-1 $-1 $53 $5 #
transform $-1 1 0 0 0 1 0 0 0 1 67.139500106814779 27.025457033260423 11.681971749860956 1 rotate no_reflect no_shear #
lump $-1 $-1 $54 $6 #
transform $-1 1 0 0 0 1 0 0 0 1 67.139500106814779 27.025457033260423 11.681971749860956 1 rotate no_reflect no_shear #
lump $-1 $-1 $55 $7 #
transform $-1 1 0 0 0 1 0 0 0 1 67.139500106814779 27.025457033260423 11.681971749860956 1 rotate no_reflect no_shear #
lump $-1 $-1 $56 $8 #
transform $-1 1 0 0 0 1 0 0 0 1 67.139500106814779 27.025457033260423 11.681971749860956 1 rotate no_reflect no_shear #
lump $-1 $-1 $57 $9 #
transform $-1 1 0 0 0 1 0 0 0 1 67.139500106814779 27.025457033260423 11.681971749860956 1 rotate no_reflect no_shear #
lump $-1 $-1 $58 $10 #
transform $-1 1 0 0 0 1 0 0 0 1 67.139500106814779 27.025457033260423 11.681971749860956 1 rotate no_reflect no_shear #
lump $-1 $-1 $59 $11 #
transform $-1 1 0 0 0 1 0 0 0 1 67.139500106814779 27.025457033260423 11.681971749860956 1 rotate no_reflect no_shear #
lump $-1 $-1 $60 $12 #
transform $-1 1 0 0 0 1 0 0 0 1 67.139500106814779 27.025457033260423 11.681971749860956 1 rotate no_reflect no_shear #
lump $-1 $-1 $61 $13 #
transform $-1 1 0 0 0 1 0 0 0 1 67.139500106814779 27.025457033260423 11.681971749860956 1 rotate no_reflect no_shear #
lump $-1 $-1 $62 $14 #
transform $-1 1 0 0 0 1 0 0 0 1 67.139500106814779 27.025457033260423 11.681971749860956 1 rotate no_reflect no_shear #
lump $-1 $-1 $63 $15 #
transform $-1 1 0 0 0 1 0 0 0 1 67.139500106814779 27.025457033260423 11.681971749860956 1 rotate no_reflect no_shear #
shell $-1 $-1 $-1 $64 $-1 $16 #
shell $-1 $-1 $-1 $65 $-1 $18 #
shell $-1 $-1 $-1 $66 $-1 $20 #
shell $-1 $-1 $-1 $67 $-1 $22 #
shell $-1 $-1 $-1 $68 $-1 $24 #
shell $-1 $-1 $-1 $69 $-1 $26 #
shell $-1 $-1 $-1 $70 $-1 $28 #
shell $-1 $-1 $-1 $71 $-1 $30 #
shell $-1 $-1 $-1 $72 $-1 $32 #
shell $-1 $-1 $-1 $73 $-1 $34 #
shell $-1 $-1 $-1 $74 $-1 $36 #
shell $-1 $-1 $-1 $75 $-1 $38 #
shell $-1 $-1 $-1 $76 $-1 $40 #
shell $-1 $-1 $-1 $77 $-1 $42 #
shell $-1 $-1 $-1 $78 $-1 $44 #
shell $-1 $-1 $-1 $79 $-1 $46 #
face $-1 $80 $81 $48 $-1 $82 forward single #
face $-1 $83 $84 $49 $-1 $85 reversed single #
face $-1 $86 $87 $50 $-1 $88 reversed single #
face $-1 $89 $90 $51 $-1 $91 forward single #
face $-1 $92 $93 $52 $-1 $94 forward single #
face $-1 $95 $96 $53 $-1 $97 forward single #
face $-1 $98 $99 $54 $-1 $100 reversed single #
face $-1 $101 $102 $55 $-1 $103 forward single #
face $-1 $104 $105 $56 $-1 $106 forward single #
face $-1 $107 $108 $57 $-1 $109 forward single #
face $-1 $110 $111 $58 $-1 $112 reversed single #
face $-1 $113 $114 $59 $-1 $115 forward single #
face $-1 $116 $117 $60 $-1 $118 forward single #
face $-1 $119 $120 $61 $-1 $121 reversed single #
face $-1 $122 $123 $62 $-1 $124 forward single #
face $-1 $125 $126 $63 $-1 $127 forward single #
face $-1 $128 $129 $48 $-1 $130 reversed single #
loop $-1 $-1 $131 $64 #
plane-surface $-1 0 0 11.681971749860956 0 0 1 1 0 0 forward_v I I I I #
face $-1 $132 $133 $49 $-1 $134 reversed single #
loop $-1 $-1 $135 $65 #
plane-surface $-1 0 -22.94169397698094 7.1883681752402282 0 0 1 1 0 0 forward_v I I I I #
face $-1 $136 $137 $50 $-1 $138 reversed single #
loop $-1 $-1 $139 $66 #
plane-surface $-1 -165.34494507253723 -11.027272727953342 93.161727669909084 0 1 0 -0.73135370988377701 0 0.68199835119979291 forward_v I I I I #
face $-1 $140 $141 $51 $-1 $142 forward single #
loop $-1 $143 $144 $67 #
cone-surface $-1 -61.783671281219775 -8.8248323056108404 6.0290924272661437 0.73135370988377701 0 -0.68199835119979291 0.34099917559989645 0 0.36567685494188851 1 I I 0 1 0.5 forward I I I I #
face $-1 $145 $146 $52 $-1 $147 forward single #
loop $-1 $148 $149 $68 #
cone-surface $-1 -61.783671281219775 -5.5211716720970863 6.0290924272661437 0.73135370988377701 0 -0.68199835119979291 0.34099917559989645 0 0.36567685494188851 1 I I 0 1 0.5 forward I I I I #
face $-1 $150 $151 $53 $-1 $152 forward single #
loop $-1 $153 $154 $69 #
cone-surface $-1 -61.783671281219775 -2.2175110385833321 6.0290924272661437 0.73135370988377701 0 -0.68199835119979291 0.34099917559989645 0 0.36567685494188851 1 I I 0 1 0.5 forward I I I I #
face $-1 $155 $156 $54 $-1 $157 reversed single #
loop $-1 $-1 $158 $70 #
plane-surface $-1 -165.34494507253723 8.1825967287998012 93.161727669909084 0 1 0 -0.73135370988377701 0 0.68199835119979291 forward_v I I I I #
face $-1 $159 $160 $55 $-1 $161 forward single #
loop $-1 $162 $163 $71 #
cone-surface $-1 -61.783671281219775 10.385037151142299 6.0290924272661437 0.73135370988377701 0 -0.68199835119979291 0.34099917559989645 0 0.36567685494188851 1 I I 0 1 0.5 forward I I I I #
face $-1 $164 $165 $56 $-1 $166 forward single #
loop $-1 $167 $168 $72 #
cone-surface $-1 -61.783671281219775 13.688697784656057 6.0290924272661437 0.73135370988377701 0 -0.68199835119979291 0.34099917559989645 0 0.36567685494188851 1 I I 0 1 0.5 forward I I I I #
face $-1 $169 $170 $57 $-1 $171 forward single #
loop $-1 $172 $173 $73 #
cone-surface $-1 -61.783671281219775 16.992358418169808 6.0290924272661437 0.73135370988377701 0 -0.68199835119979291 0.34099917559989645 0 0.36567685494188851 1 I I 0 1 0.5 forward I I I I #
face $-1 $174 $175 $58 $-1 $176 reversed single #
loop $-1 $-1 $177 $74 #
plane-surface $-1 34.163854683707882 -1.5149753824902579 193.39100071390089 0 -1 0 -0.57357644374324357 0 -0.81915203911291934 forward_v I I I I #
face $-1 $178 $179 $59 $-1 $180 forward single #
loop $-1 $181 $182 $75 #
cone-surface $-1 62.942909263227648 -6.0344366021285119 8.4462584536714083 -0.57357644374324357 0 -0.81915203911291934 0.40957601955645967 0 -0.28678822187162178 1 I I 0 1 0.5 forward I I I I #
face $-1 $183 $184 $60 $-1 $185 forward single #
loop $-1 $186 $187 $76 #
cone-surface $-1 62.942909263227648 -3.3227598703455605 8.4462584536714083 -0.57357644374324357 0 -0.81915203911291934 0.40957601955645967 0 -0.28678822187162178 1 I I 0 1 0.5 forward I I I I #
face $-1 $188 $189 $61 $-1 $190 reversed single #
loop $-1 $-1 $191 $77 #
plane-surface $-1 34.163854683707882 21.426718594490687 193.39100071390089 0 -1 0 -0.57357644374324357 0 -0.81915203911291934 forward_v I I I I #
face $-1 $192 $193 $62 $-1 $194 forward single #
loop $-1 $195 $196 $78 #
cone-surface $-1 62.942909263227648 16.907257374852428 8.4462584536714083 -0.57357644374324357 0 -0.81915203911291934 0.40957601955645967 0 -0.28678822187162178 1 I I 0 1 0.5 forward I I I I #
face $-1 $197 $198 $63 $-1 $199 forward single #
loop $-1 $200 $201 $79 #
cone-surface $-1 62.942909263227648 19.618934106635379 8.4462584536714083 -0.57357644374324357 0 -0.81915203911291934 0.40957601955645967 0 -0.28678822187162178 1 I I 0 1 0.5 forward I I I I #
face $-1 $202 $203 $48 $-1 $204 reversed single #
loop $-1 $-1 $205 $80 #
plane-surface $-1 0 0 -11.681971749860956 0 0 1 1 0 0 forward_v I I I I #
coedge $-1 $206 $207 $208 $209 forward $81 $-1 #
face $-1 $210 $211 $49 $-1 $212 reversed single #
loop $-1 $-1 $213 $83 #
plane-surface $-1 0 -18.857930920701456 9.4351699625505923 0 -1 0 0 0 -1 forward_v I I I I #
coedge $-1 $214 $215 $216 $217 reversed $84 $-1 #
face $-1 $218 $219 $50 $-1 $220 reversed single #
loop $-1 $-1 $221 $86 #
plane-surface $-1 -67.139500106814765 -5.5211716720970863 1.5836709234570918 -0.73135370988377701 0 0.68199835119979291 0.68199835119979291 0 0.73135370988377701 forward_v I I I I #
coedge $-1 $222 $223 $224 $225 reversed $87 $-1 #
face $-1 $-1 $226 $51 $-1 $227 forward single #
loop $-1 $228 $229 $89 #
cone-surface $-1 -60.953412846249094 -8.8248323056108404 5.2548639300733058 0.73135370988377701 0 -0.68199835119979291 0.17049958779994823 0 0.18283842747094425 1 I I -0.70710678118654624 0.70710678118654879 0.25 forward I I I I #
loop $-1 $-1 $230 $67 #
coedge $-1 $144 $144 $231 $232 reversed $90 $-1 #
face $-1 $-1 $233 $52 $-1 $234 forward single #
loop $-1 $235 $236 $92 #
cone-surface $-1 -60.953412846249094 -5.5211716720970863 5.2548639300733058 0.73135370988377701 0 -0.68199835119979291 0.17049958779994823 0 0.18283842747094425 1 I I -0.70710678118654624 0.70710678118654879 0.25 forward I I I I #
loop $-1 $-1 $237 $68 #
coedge $-1 $149 $149 $238 $239 reversed $93 $-1 #
face $-1 $-1 $240 $53 $-1 $241 forward single #
loop $-1 $242 $243 $95 #
cone-surface $-1 -60.953412846249094 -2.2175110385833321 5.2548639300733058 0.73135370988377701 0 -0.68199835119979291 0.17049958779994823 0 0.18283842747094425 1 I I -0.70710678118654624 0.70710678118654879 0.25 forward I I I I #
loop $-1 $-1 $244 $69 #
coedge $-1 $154 $154 $245 $246 reversed $96 $-1 #
face $-1 $247 $248 $54 $-1 $249 reversed single #
loop $-1 $-1 $250 $98 #
plane-surface $-1 -67.139500106814765 13.688697784656057 1.5836709234570918 -0.73135370988377701 0 0.68199835119979291 0.68199835119979291 0 0.73135370988377701 forward_v I I I I #
coedge $-1 $251 $252 $253 $254 reversed $99 $-1 #
face $-1 $-1 $255 $55 $-1 $256 forward single #
loop $-1 $257 $258 $101 #
cone-surface $-1 -60.953412846249094 10.385037151142299 5.2548639300733058 0.73135370988377701 0 -0.68199835119979291 0.17049958779994823 0 0.18283842747094425 1 I I -0.70710678118654624 0.70710678118654879 0.25 forward I I I I #
loop $-1 $-1 $259 $71 #
coedge $-1 $163 $163 $260 $261 reversed $102 $-1 #
face $-1 $-1 $262 $56 $-1 $263 forward single #
loop $-1 $264 $265 $104 #
cone-surface $-1 -60.953412846249094 13.688697784656057 5.2548639300733058 0.73135370988377701 0 -0.68199835119979291 0.17049958779994823 0 0.18283842747094425 1 I I -0.70710678118654624 0.70710678118654879 0.25 forward I I I I #
loop $-1 $-1 $266 $72 #
coedge $-1 $168 $168 $267 $268 reversed $105 $-1 #
face $-1 $-1 $269 $57 $-1 $270 forward single #
loop $-1 $271 $272 $107 #
cone-surface $-1 -60.953412846249094 16.992358418169808 5.2548639300733058 0.73135370988377701 0 -0.68199835119979291 0.17049958779994823 0 0.18283842747094425 1 I I -0.70710678118654624 0.70710678118654879 0.25 forward I I I I #
loop $-1 $-1 $273 $73 #
coedge $-1 $173 $173 $274 $275 reversed $108 $-1 #
face $-1 $276 $277 $58 $-1 $278 reversed single #
loop $-1 $-1 $279 $110 #
plane-surface $-1 -42.855416728224 -4.6785982362370362 83.396083878862115 0.57357644374324357 0 0.81915203911291934 0.81915203911291934 0 -0.57357644374324357 forward_v I I I I #
coedge $-1 $280 $281 $282 $283 reversed $111 $-1 #
face $-1 $-1 $284 $59 $-1 $285 forward single #
loop $-1 $286 $287 $113 #
cone-surface $-1 62.391200563627791 -6.0344366021285119 7.6583367891689775 -0.57357644374324357 0 -0.81915203911291934 0.20478800977822983 0 -0.14339411093581089 1 I I -0.70710678118654746 0.70710678118654746 0.25 forward I I I I #
loop $-1 $-1 $288 $75 #
coedge $-1 $182 $182 $289 $290 reversed $114 $-1 #
face $-1 $-1 $291 $60 $-1 $292 forward single #
loop $-1 $293 $294 $116 #
cone-surface $-1 62.391200563627791 -3.3227598703455605 7.6583367891689775 -0.57357644374324357 0 -0.81915203911291934 0.20478800977822983 0 -0.14339411093581089 1 I I -0.70710678118654746 0.70710678118654746 0.25 forward I I I I #
loop $-1 $-1 $295 $76 #
coedge $-1 $187 $187 $296 $297 reversed $117 $-1 #
face $-1 $298 $299 $61 $-1 $300 reversed single #
loop $-1 $-1 $301 $119 #
plane-surface $-1 -42.855416728224 18.263095740743907 83.396083878862115 0.57357644374324357 0 0.81915203911291934 0.81915203911291934 0 -0.57357644374324357 forward_v I I I I #
coedge $-1 $302 $303 $304 $305 reversed $120 $-1 #
face $-1 $-1 $306 $62 $-1 $307 forward single #
loop $-1 $308 $309 $122 #
cone-surface $-1 62.391200563627791 16.907257374852428 7.6583367891689775 -0.57357644374324357 0 -0.81915203911291934 0.20478800977822983 0 -0.14339411093581089 1 I I -0.70710678118654746 0.70710678118654746 0.25 forward I I I I #
loop $-1 $-1 $310 $78 #
coedge $-1 $196 $196 $311 $312 reversed $123 $-1 #
face $-1 $-1 $313 $63 $-1 $314 forward single #
loop $-1 $315 $316 $125 #
cone-surface $-1 62.391200563627791 19.618934106635379 7.6583367891689775 -0.57357644374324357 0 -0.81915203911291934 0.20478800977822983 0 -0.14339411093581089 1 I I -0.70710678118654746 0.70710678118654746 0.25 forward I I I I #
loop $-1 $-1 $317 $79 #
coedge $-1 $201 $201 $318 $319 reversed $126 $-1 #
face $-1 $320 $321 $48 $-1 $322 reversed single #
loop $-1 $-1 $323 $128 #
plane-surface $-1 0 -27.025457033260423 0 0 1 0 0 0 1 forward_v I I I I #
coedge $-1 $324 $325 $326 $327 forward $129 $-1 #
coedge $-1 $328 $131 $329 $330 forward $81 $-1 #
coedge $-1 $131 $328 $331 $332 forward $81 $-1 #
coedge $-1 $333 $334 $131 $209 reversed $335 $-1 #
edge $-1 $336 -27.025457033260423 $337 27.025457033260423 $208 $338 forward 7 unknown #
face $-1 $339 $340 $49 $-1 $341 reversed single #
loop $-1 $-1 $342 $132 #
plane-surface $-1 -67.139500106814779 0 0 1 0 0 0 0 -1 forward_v I I I I #
coedge $-1 $343 $344 $345 $346 reversed $133 $-1 #
coedge $-1 $347 $135 $348 $349 reversed $84 $-1 #
coedge $-1 $135 $347 $343 $350 forward $84 $-1 #
coedge $-1 $345 $351 $135 $217 forward $352 $-1 #
edge $-1 $353 -15.554610044769953 $354 -7.3870839322109862 $216 $355 forward 7 unknown #
face $-1 $356 $357 $50 $-1 $358 forward single #
loop $-1 $-1 $359 $136 #
plane-surface $-1 -165.34494507253723 -0.015070616240829615 93.161727669909084 0 -1 0 0.73135370988377701 0 -0.68199835119979291 forward_v I I I I #
coedge $-1 $360 $361 $362 $363 reversed $137 $-1 #
coedge $-1 $223 $139 $364 $365 reversed $87 $-1 #
coedge $-1 $139 $222 $360 $366 reversed $87 $-1 #
coedge $-1 $362 $367 $139 $225 forward $357 $-1 #
edge $-1 $368 15.532972429453835 $369 24.949790065644407 $224 $370 forward 7 unknown #
loop $-1 $-1 $231 $140 #
plane-surface $-1 -67.139500106814765 -5.5211716720970863 1.5836709234570918 -0.73135370988377701 0 0.68199835119979291 0.68199835119979291 0 0.73135370988377701 forward_v I I I I #
loop $-1 $-1 $371 $89 #
coedge $-1 $229 $229 $230 $372 reversed $141 $-1 #
coedge $-1 $230 $230 $229 $372 forward $143 $-1 #
coedge $-1 $231 $231 $144 $232 forward $226 $-1 #
edge $-1 $373 0 $373 6.2831853071796004 $231 $374 forward 7 unknown #
loop $-1 $-1 $238 $145 #
plane-surface $-1 -67.139500106814765 -5.5211716720970863 1.5836709234570918 -0.73135370988377701 0 0.68199835119979291 0.68199835119979291 0 0.73135370988377701 forward_v I I I I #
loop $-1 $-1 $375 $92 #
coedge $-1 $236 $236 $237 $376 reversed $146 $-1 #
coedge $-1 $237 $237 $236 $376 forward $148 $-1 #
coedge $-1 $238 $238 $149 $239 forward $233 $-1 #
edge $-1 $377 0 $377 6.2831853071796004 $238 $378 forward 7 unknown #
loop $-1 $-1 $245 $150 #
plane-surface $-1 -67.139500106814765 -5.5211716720970863 1.5836709234570918 -0.73135370988377701 0 0.68199835119979291 0.68199835119979291 0 0.73135370988377701 forward_v I I I I #
loop $-1 $-1 $379 $95 #
coedge $-1 $243 $243 $244 $380 reversed $151 $-1 #
coedge $-1 $244 $244 $243 $380 forward $153 $-1 #
coedge $-1 $245 $245 $154 $246 forward $240 $-1 #
edge $-1 $381 0 $381 6.2831853071796004 $245 $382 forward 7 unknown #
face $-1 $383 $384 $54 $-1 $385 forward single #
loop $-1 $-1 $386 $155 #
plane-surface $-1 -165.34494507253723 19.194798840512313 93.161727669909084 0 -1 0 0.73135370988377701 0 -0.68199835119979291 forward_v I I I I #
coedge $-1 $387 $388 $389 $390 reversed $156 $-1 #
coedge $-1 $252 $158 $391 $392 reversed $99 $-1 #
coedge $-1 $158 $251 $387 $393 reversed $99 $-1 #
coedge $-1 $389 $394 $158 $254 forward $384 $-1 #
edge $-1 $395 15.532972429453835 $396 24.949790065644407 $253 $397 forward 7 unknown #
loop $-1 $-1 $260 $159 #
plane-surface $-1 -67.139500106814765 13.688697784656057 1.5836709234570918 -0.73135370988377701 0 0.68199835119979291 0.68199835119979291 0 0.73135370988377701 forward_v I I I I #
loop $-1 $-1 $398 $101 #
coedge $-1 $258 $258 $259 $399 reversed $160 $-1 #
coedge $-1 $259 $259 $258 $399 forward $162 $-1 #
coedge $-1 $260 $260 $163 $261 forward $255 $-1 #
edge $-1 $400 0 $400 6.2831853071796004 $260 $401 forward 7 unknown #
loop $-1 $-1 $267 $164 #
plane-surface $-1 -67.139500106814765 13.688697784656057 1.5836709234570918 -0.73135370988377701 0 0.68199835119979291 0.68199835119979291 0 0.73135370988377701 forward_v I I I I #
loop $-1 $-1 $402 $104 #
coedge $-1 $265 $265 $266 $403 reversed $165 $-1 #
coedge $-1 $266 $266 $265 $403 forward $167 $-1 #
coedge $-1 $267 $267 $168 $268 forward $262 $-1 #
edge $-1 $404 0 $404 6.2831853071796004 $267 $405 forward 7 unknown #
loop $-1 $-1 $274 $169 #
plane-surface $-1 -67.139500106814765 13.688697784656057 1.5836709234570918 -0.73135370988377701 0 0.68199835119979291 0.68199835119979291 0 0.73135370988377701 forward_v I I I I #
loop $-1 $-1 $406 $107 #
coedge $-1 $272 $272 $273 $407 reversed $170 $-1 #
coedge $-1 $273 $273 $272 $407 forward $172 $-1 #
coedge $-1 $274 $274 $173 $275 forward $269 $-1 #
edge $-1 $408 0 $408 6.2831853071796004 $274 $409 forward 7 unknown #
face $-1 $410 $411 $58 $-1 $412 reversed single #
loop $-1 $-1 $413 $174 #
plane-surface $-1 34.163854683707882 -7.8422210899838145 193.39100071390089 0 1 0 0.57357644374324357 0 0.81915203911291934 forward_v I I I I #
coedge $-1 $414 $415 $416 $417 reversed $175 $-1 #
coedge $-1 $281 $177 $418 $419 reversed $111 $-1 #
coedge $-1 $177 $280 $414 $420 reversed $111 $-1 #
coedge $-1 $416 $421 $177 $283 forward $422 $-1 #
edge $-1 $423 -50.057572764960838 $424 -42.481020255114643 $282 $425 forward 7 unknown #
loop $-1 $-1 $289 $178 #
plane-surface $-1 -42.855416728224 -4.6785982362370362 83.396083878862115 0.57357644374324357 0 0.81915203911291934 0.81915203911291934 0 -0.57357644374324357 forward_v I I I I #
loop $-1 $-1 $426 $113 #
coedge $-1 $287 $287 $288 $427 reversed $179 $-1 #
coedge $-1 $288 $288 $287 $427 forward $181 $-1 #
coedge $-1 $289 $289 $182 $290 forward $284 $-1 #
edge $-1 $428 0 $428 6.2831853071796004 $289 $429 forward 7 unknown #
loop $-1 $-1 $296 $183 #
plane-surface $-1 -42.855416728224 -4.6785982362370362 83.396083878862115 0.57357644374324357 0 0.81915203911291934 0.81915203911291934 0 -0.57357644374324357 forward_v I I I I #
loop $-1 $-1 $430 $116 #
coedge $-1 $294 $294 $295 $431 reversed $184 $-1 #
coedge $-1 $295 $295 $294 $431 forward $186 $-1 #
coedge $-1 $296 $296 $187 $297 forward $291 $-1 #
edge $-1 $432 0 $432 6.2831853071796004 $296 $433 forward 7 unknown #
face $-1 $434 $435 $61 $-1 $436 reversed single #
loop $-1 $-1 $437 $188 #
plane-surface $-1 34.163854683707882 15.099472886997129 193.39100071390089 0 1 0 0.57357644374324357 0 0.81915203911291934 forward_v I I I I #
coedge $-1 $438 $439 $440 $441 reversed $189 $-1 #
coedge $-1 $303 $191 $442 $443 reversed $120 $-1 #
coedge $-1 $191 $302 $438 $444 reversed $120 $-1 #
coedge $-1 $440 $445 $191 $305 forward $446 $-1 #
edge $-1 $447 -50.057572764960838 $448 -42.481020255114643 $304 $449 forward 7 unknown #
loop $-1 $-1 $311 $192 #
plane-surface $-1 -42.855416728224 18.263095740743907 83.396083878862115 0.57357644374324357 0 0.81915203911291934 0.81915203911291934 0 -0.57357644374324357 forward_v I I I I #
loop $-1 $-1 $450 $122 #
coedge $-1 $309 $309 $310 $451 reversed $193 $-1 #
coedge $-1 $310 $310 $309 $451 forward $195 $-1 #
coedge $-1 $311 $311 $196 $312 forward $306 $-1 #
edge $-1 $452 0 $452 6.2831853071796004 $311 $453 forward 7 unknown #
loop $-1 $-1 $318 $197 #
plane-surface $-1 -42.855416728224 18.263095740743907 83.396083878862115 0.57357644374324357 0 0.81915203911291934 0.81915203911291934 0 -0.57357644374324357 forward_v I I I I #
loop $-1 $-1 $454 $125 #
coedge $-1 $316 $316 $317 $455 reversed $198 $-1 #
coedge $-1 $317 $317 $316 $455 forward $200 $-1 #
coedge $-1 $318 $318 $201 $319 forward $313 $-1 #
edge $-1 $456 0 $456 6.2831853071796004 $318 $457 forward 7 unknown #
face $-1 $458 $459 $48 $-1 $460 reversed single #
loop $-1 $-1 $461 $202 #
plane-surface $-1 -67.139500106814779 0 0 1 0 0 0 0 -1 forward_v I I I I #
coedge $-1 $462 $331 $463 $464 forward $203 $-1 #
coedge $-1 $465 $205 $462 $466 forward $129 $-1 #
coedge $-1 $205 $465 $467 $468 forward $129 $-1 #
coedge $-1 $334 $333 $205 $327 reversed $335 $-1 #
edge $-1 $469 -27.025457033260423 $470 27.025457033260423 $326 $471 forward 7 unknown #
coedge $-1 $207 $206 $472 $473 forward $81 $-1 #
coedge $-1 $474 $475 $206 $330 reversed $459 $-1 #
edge $-1 $337 -67.139500106814779 $476 67.139500106814779 $329 $477 forward 7 unknown #
coedge $-1 $323 $478 $207 $332 reversed $203 $-1 #
edge $-1 $479 -67.139500106814779 $336 67.139500106814779 $331 $480 forward 7 unknown #
coedge $-1 $326 $208 $478 $481 forward $335 $-1 #
coedge $-1 $208 $326 $474 $482 reversed $335 $-1 #
loop $-1 $-1 $333 $458 #
vertex $-1 $209 $483 #
vertex $-1 $209 $484 #
straight-curve $-1 67.139500106814779 0 11.681971749860956 0 1 0 I I #
face $-1 $485 $486 $49 $-1 $487 forward single #
loop $-1 $-1 $348 $210 #
plane-surface $-1 0 -27.025457033260423 0 0 1 0 0 0 1 forward_v I I I I #
coedge $-1 $488 $489 $490 $491 forward $211 $-1 #
coedge $-1 $490 $213 $215 $350 reversed $133 $-1 #
coedge $-1 $213 $490 $492 $493 reversed $133 $-1 #
coedge $-1 $494 $216 $213 $346 forward $352 $-1 #
edge $-1 $354 2.4707831939649321 $495 6.9643867685856602 $345 $496 forward 7 unknown #
coedge $-1 $215 $214 $488 $497 reversed $84 $-1 #
coedge $-1 $498 $499 $214 $349 forward $340 $-1 #
edge $-1 $500 -67.139500106814779 $353 67.139500106814779 $348 $501 forward 7 unknown #
edge $-1 $502 -67.139500106814779 $354 67.139500106814779 $343 $503 forward 7 unknown #
coedge $-1 $216 $494 $498 $504 forward $352 $-1 #
loop $-1 $-1 $345 $485 #
vertex $-1 $349 $505 #
vertex $-1 $217 $506 #
straight-curve $-1 67.139500106814779 -11.47084698849047 7.1883681752402282 0 1 0 I I #
face $-1 $-1 $507 $50 $-1 $508 reversed single #
loop $-1 $-1 $224 $218 #
plane-surface $-1 0 0 11.681971749860956 0 0 1 1 0 0 forward_v I I I I #
coedge $-1 $509 $510 $511 $512 reversed $219 $-1 #
coedge $-1 $513 $221 $223 $366 forward $137 $-1 #
coedge $-1 $221 $513 $509 $514 forward $137 $-1 #
coedge $-1 $511 $224 $221 $363 forward $357 $-1 #
edge $-1 $369 -8.2666868919047989 $515 2.7455152198077135 $362 $516 forward 7 unknown #
coedge $-1 $517 $518 $222 $365 forward $507 $-1 #
edge $-1 $519 -44.997192911497464 $368 -34.898892085093586 $364 $520 forward 7 unknown #
edge $-1 $369 -13.807683874343969 $519 2.0896906529347916e-014 $223 $521 forward 7 unknown #
coedge $-1 $224 $511 $517 $522 forward $357 $-1 #
vertex $-1 $365 $523 #
vertex $-1 $225 $524 #
straight-curve $-1 -82.672472536268614 -11.027272727953342 11.681971749860956 1 0 0 I I #
coedge $-1 $371 $371 $-1 $525 reversed $228 $-1 #
edge $-1 $526 0 $526 6.2831853071796004 $229 $527 forward 7 unknown #
vertex $-1 $232 $528 #
ellipse-curve $-1 -62.431091288719493 -8.8248323056108404 6.6328213366590187 -0.73135370988377701 0 0.68199835119979291 0.34099917559989645 0 0.36567685494188851 1 I I #
coedge $-1 $375 $375 $-1 $529 reversed $235 $-1 #
edge $-1 $530 0 $530 6.2831853071796004 $236 $531 forward 7 unknown #
vertex $-1 $239 $532 #
ellipse-curve $-1 -62.431091288719493 -5.5211716720970863 6.6328213366590187 -0.73135370988377701 0 0.68199835119979291 0.34099917559989645 0 0.36567685494188851 1 I I #
coedge $-1 $379 $379 $-1 $533 reversed $242 $-1 #
edge $-1 $534 0 $534 6.2831853071796004 $243 $535 forward 7 unknown #
vertex $-1 $246 $536 #
ellipse-curve $-1 -62.431091288719493 -2.2175110385833321 6.6328213366590187 -0.73135370988377701 0 0.68199835119979291 0.34099917559989645 0 0.36567685494188851 1 I I #
face $-1 $-1 $537 $54 $-1 $538 reversed single #
loop $-1 $-1 $253 $247 #
plane-surface $-1 0 0 11.681971749860956 0 0 1 1 0 0 forward_v I I I I #
coedge $-1 $539 $540 $541 $542 reversed $248 $-1 #
coedge $-1 $543 $250 $252 $393 forward $156 $-1 #
coedge $-1 $250 $543 $539 $544 forward $156 $-1 #
coedge $-1 $541 $253 $250 $390 forward $384 $-1 #
edge $-1 $396 1.3382478364717727 $545 12.350449948184284 $389 $546 forward 7 unknown #
coedge $-1 $547 $548 $251 $392 forward $537 $-1 #
edge $-1 $549 -44.997192911497464 $395 -34.898892085093586 $391 $550 forward 7 unknown #
edge $-1 $396 -13.807683874343969 $549 2.0896906529347916e-014 $252 $551 forward 7 unknown #
coedge $-1 $253 $541 $547 $552 forward $384 $-1 #
vertex $-1 $254 $553 #
vertex $-1 $254 $554 #
straight-curve $-1 -82.672472536268614 8.1825967287998012 11.681971749860956 1 0 0 I I #
coedge $-1 $398 $398 $-1 $555 reversed $257 $-1 #
edge $-1 $556 0 $556 6.2831853071796004 $258 $557 forward 7 unknown #
vertex $-1 $261 $558 #
ellipse-curve $-1 -62.431091288719493 10.385037151142299 6.6328213366590187 -0.73135370988377701 0 0.68199835119979291 0.34099917559989645 0 0.36567685494188851 1 I I #
coedge $-1 $402 $402 $-1 $559 reversed $264 $-1 #
edge $-1 $560 0 $560 6.2831853071796004 $265 $561 forward 7 unknown #
vertex $-1 $268 $562 #
ellipse-curve $-1 -62.431091288719493 13.688697784656057 6.6328213366590187 -0.73135370988377701 0 0.68199835119979291 0.34099917559989645 0 0.36567685494188851 1 I I #
coedge $-1 $406 $406 $-1 $563 reversed $271 $-1 #
edge $-1 $564 0 $564 6.2831853071796004 $272 $565 forward 7 unknown #
vertex $-1 $275 $566 #
ellipse-curve $-1 -62.431091288719493 16.992358418169808 6.6328213366590187 -0.73135370988377701 0 0.68199835119979291 0.34099917559989645 0 0.36567685494188851 1 I I #
face $-1 $-1 $422 $58 $-1 $567 forward single #
loop $-1 $-1 $568 $276 #
plane-surface $-1 67.139500106814779 0 0 -1 0 0 0 0 1 forward_v I I I I #
coedge $-1 $569 $570 $571 $572 reversed $277 $-1 #
coedge $-1 $573 $279 $281 $420 forward $175 $-1 #
coedge $-1 $279 $573 $569 $574 forward $175 $-1 #
coedge $-1 $571 $282 $279 $417 forward $422 $-1 #
edge $-1 $424 -0.82432373562826022 $575 5.5029219718652964 $416 $576 forward 7 unknown #
coedge $-1 $577 $578 $280 $419 forward $411 $-1 #
edge $-1 $579 -90.318687890020215 $423 -85.013528607089484 $418 $580 forward 7 unknown #
edge $-1 $424 125.02973738074809 $579 134.27900021362956 $281 $581 forward 7 unknown #
coedge $-1 $282 $571 $577 $582 forward $422 $-1 #
loop $-1 $-1 $571 $410 #
vertex $-1 $419 $583 #
vertex $-1 $283 $584 #
straight-curve $-1 17.081927341853941 -1.5149753824902579 11.681971749860963 -1 0 0 I I #
coedge $-1 $426 $426 $-1 $585 reversed $286 $-1 #
edge $-1 $586 0 $586 6.2831853071796004 $287 $587 forward 7 unknown #
vertex $-1 $290 $588 #
ellipse-curve $-1 63.351223851891689 -6.0344366021285119 9.0293921083955944 0.57357644374324357 0 0.81915203911291934 0.40957601955645967 0 -0.28678822187162178 1 I I #
coedge $-1 $430 $430 $-1 $589 reversed $293 $-1 #
edge $-1 $590 0 $590 6.2831853071796004 $294 $591 forward 7 unknown #
vertex $-1 $297 $592 #
ellipse-curve $-1 63.351223851891689 -3.3227598703455605 9.0293921083955944 0.57357644374324357 0 0.81915203911291934 0.40957601955645967 0 -0.28678822187162178 1 I I #
face $-1 $-1 $446 $61 $-1 $593 forward single #
loop $-1 $-1 $594 $298 #
plane-surface $-1 67.139500106814779 0 0 -1 0 0 0 0 1 forward_v I I I I #
coedge $-1 $595 $596 $597 $598 reversed $299 $-1 #
coedge $-1 $599 $301 $303 $444 forward $189 $-1 #
coedge $-1 $301 $599 $595 $600 forward $189 $-1 #
coedge $-1 $597 $304 $301 $441 forward $446 $-1 #
edge $-1 $448 -12.295170724118734 $601 -5.9679250166251752 $440 $602 forward 7 unknown #
coedge $-1 $603 $604 $302 $443 forward $435 $-1 #
edge $-1 $605 -90.318687890020215 $447 -85.013528607089484 $442 $606 forward 7 unknown #
edge $-1 $448 125.02973738074809 $605 134.27900021362956 $303 $607 forward 7 unknown #
coedge $-1 $304 $597 $603 $608 forward $446 $-1 #
loop $-1 $-1 $597 $434 #
vertex $-1 $443 $609 #
vertex $-1 $305 $610 #
straight-curve $-1 17.081927341853941 21.426718594490687 11.681971749860963 -1 0 0 I I #
coedge $-1 $450 $450 $-1 $611 reversed $308 $-1 #
edge $-1 $612 0 $612 6.2831853071796004 $309 $613 forward 7 unknown #
vertex $-1 $312 $614 #
ellipse-curve $-1 63.351223851891689 16.907257374852428 9.0293921083955944 0.57357644374324357 0 0.81915203911291934 0.40957601955645967 0 -0.28678822187162178 1 I I #
coedge $-1 $454 $454 $-1 $615 reversed $315 $-1 #
edge $-1 $616 0 $616 6.2831853071796004 $316 $617 forward 7 unknown #
vertex $-1 $319 $618 #
ellipse-curve $-1 63.351223851891689 19.618934106635379 9.0293921083955944 0.57357644374324357 0 0.81915203911291934 0.40957601955645967 0 -0.28678822187162178 1 I I #
face $-1 $-1 $335 $48 $-1 $619 reversed single #
loop $-1 $-1 $474 $320 #
plane-surface $-1 0 27.025457033260423 0 0 -1 0 0 0 -1 forward_v I I I I #
coedge $-1 $620 $472 $475 $621 forward $321 $-1 #
coedge $-1 $478 $323 $324 $466 reversed $203 $-1 #
coedge $-1 $472 $620 $323 $464 reversed $321 $-1 #
edge $-1 $479 -11.681971749860956 $622 11.681971749860956 $463 $623 forward 7 unknown #
coedge $-1 $325 $324 $620 $624 forward $129 $-1 #
edge $-1 $470 -67.139500106814779 $622 67.139500106814779 $462 $625 forward 7 unknown #
coedge $-1 $475 $474 $325 $468 reversed $459 $-1 #
edge $-1 $626 -67.139500106814779 $469 67.139500106814779 $467 $627 forward 7 unknown #
vertex $-1 $327 $628 #
vertex $-1 $481 $629 #
straight-curve $-1 67.139500106814779 0 -11.681971749860956 0 -1 0 I I #
coedge $-1 $461 $463 $328 $473 reversed $321 $-1 #
edge $-1 $476 -27.025457033260423 $479 27.025457033260423 $472 $630 forward 7 unknown #
coedge $-1 $467 $329 $334 $482 forward $459 $-1 #
coedge $-1 $329 $467 $461 $621 reversed $459 $-1 #
vertex $-1 $330 $631 #
straight-curve $-1 0 27.025457033260423 11.681971749860956 -1 0 0 I I #
coedge $-1 $331 $462 $333 $481 reversed $203 $-1 #
vertex $-1 $473 $632 #
straight-curve $-1 0 -27.025457033260423 11.681971749860956 1 0 0 I I #
edge $-1 $336 -11.681971749860956 $470 11.681971749860956 $333 $633 forward 7 unknown #
edge $-1 $337 -11.681971749860956 $469 11.681971749860956 $334 $634 forward 7 unknown #
point $-1 67.139500106814779 -27.025457033260423 11.681971749860956 #
point $-1 67.139500106814779 27.025457033260423 11.681971749860956 #
face $-1 $-1 $352 $49 $-1 $635 reversed single #
loop $-1 $-1 $492 $339 #
plane-surface $-1 0 0 11.681971749860956 0 0 1 1 0 0 forward_v I I I I #
coedge $-1 $636 $342 $347 $497 forward $211 $-1 #
coedge $-1 $342 $636 $637 $638 reversed $211 $-1 #
coedge $-1 $344 $343 $342 $491 reversed $133 $-1 #
edge $-1 $639 -6.9643867685856602 $502 -2.4707831939649321 $342 $640 forward 7 unknown #
coedge $-1 $637 $641 $344 $493 forward $486 $-1 #
edge $-1 $495 -67.139500106814779 $639 67.139500106814779 $492 $642 forward 7 unknown #
coedge $-1 $351 $345 $641 $643 reversed $352 $-1 #
vertex $-1 $346 $644 #
straight-curve $-1 67.139500106814779 -18.857930920701456 4.7175849812752961 0 0 1 I I #
edge $-1 $502 7.3870839322109862 $500 15.554610044769953 $488 $645 forward 7 unknown #
coedge $-1 $646 $348 $351 $504 reversed $340 $-1 #
coedge $-1 $348 $646 $636 $647 forward $340 $-1 #
vertex $-1 $349 $648 #
straight-curve $-1 0 -27.025457033260423 7.1883681752402282 1 0 0 I I #
vertex $-1 $497 $649 #
straight-curve $-1 0 -18.857930920701456 7.1883681752402282 1 0 0 I I #
edge $-1 $650 -11.681971749860956 $353 -7.1883681752402282 $351 $651 forward 7 unknown #
point $-1 67.139500106814779 -27.025457033260423 7.1883681752402282 #
point $-1 67.139500106814779 -18.857930920701456 7.1883681752402282 #
loop $-1 $-1 $364 $356 #
plane-surface $-1 -67.139500106814779 0 0 1 0 0 0 0 -1 forward_v I I I I #
coedge $-1 $510 $359 $361 $514 reversed $219 $-1 #
coedge $-1 $359 $509 $652 $653 reversed $219 $-1 #
coedge $-1 $367 $362 $359 $512 forward $357 $-1 #
edge $-1 $515 -24.949790065644407 $654 -15.532972429453835 $511 $655 forward 7 unknown #
coedge $-1 $361 $360 $518 $656 reversed $137 $-1 #
edge $-1 $657 -2.0896906529347916e-014 $515 13.807683874343969 $509 $658 forward 7 unknown #
vertex $-1 $363 $659 #
straight-curve $-1 -57.722682470624214 -2.7605858360485431 11.681971749860956 0 1 0 I I #
coedge $-1 $652 $364 $367 $522 reversed $507 $-1 #
coedge $-1 $364 $652 $513 $656 forward $507 $-1 #
vertex $-1 $365 $660 #
straight-curve $-1 -67.139500106814779 -11.027272727953342 46.580863834954542 0 0 1 I I #
straight-curve $-1 -67.139500106814765 -11.027272727953342 1.5836709234570918 -0.68199835119979291 0 -0.73135370988377701 I I #
edge $-1 $654 0.015070616240829615 $368 11.027272727953342 $517 $661 forward 7 unknown #
point $-1 -67.139500106814779 -11.027272727953342 11.681971749860956 #
point $-1 -57.722682470624207 -11.027272727953342 11.681971749860956 #
edge $-1 $662 1 $662 0 $371 $-1 forward 7 unknown #
vertex $-1 $372 $663 #
ellipse-curve $-1 -61.136251273720042 -8.8248323056108404 5.4253635178732544 -0.73135370988377701 0 0.68199835119979291 0.34099917559989645 0 0.36567685494188851 1 I I #
point $-1 -62.09009211311961 -8.8248323056108404 6.9984981916009215 #
edge $-1 $664 1 $664 0 $375 $-1 forward 7 unknown #
vertex $-1 $376 $665 #
ellipse-curve $-1 -61.136251273720042 -5.5211716720970863 5.4253635178732544 -0.73135370988377701 0 0.68199835119979291 0.34099917559989645 0 0.36567685494188851 1 I I #
point $-1 -62.09009211311961 -5.5211716720970863 6.9984981916009215 #
edge $-1 $666 1 $666 0 $379 $-1 forward 7 unknown #
vertex $-1 $380 $667 #
ellipse-curve $-1 -61.136251273720042 -2.2175110385833321 5.4253635178732544 -0.73135370988377701 0 0.68199835119979291 0.34099917559989645 0 0.36567685494188851 1 I I #
point $-1 -62.09009211311961 -2.2175110385833321 6.9984981916009215 #
loop $-1 $-1 $391 $383 #
plane-surface $-1 -67.139500106814779 0 0 1 0 0 0 0 -1 forward_v I I I I #
coedge $-1 $540 $386 $388 $544 reversed $248 $-1 #
coedge $-1 $386 $539 $668 $669 reversed $248 $-1 #
coedge $-1 $394 $389 $386 $542 forward $384 $-1 #
edge $-1 $545 -24.949790065644407 $670 -15.532972429453835 $541 $671 forward 7 unknown #
coedge $-1 $388 $387 $548 $672 reversed $156 $-1 #
edge $-1 $673 -2.0896906529347916e-014 $545 13.807683874343969 $539 $674 forward 7 unknown #
vertex $-1 $390 $675 #
straight-curve $-1 -57.722682470624214 6.8443488923280285 11.681971749860956 0 1 0 I I #
coedge $-1 $668 $391 $394 $552 reversed $537 $-1 #
coedge $-1 $391 $668 $543 $672 forward $537 $-1 #
vertex $-1 $392 $676 #
straight-curve $-1 -67.139500106814779 8.1825967287998012 46.580863834954542 0 0 1 I I #
straight-curve $-1 -67.139500106814765 8.1825967287998012 1.5836709234570918 -0.68199835119979291 0 -0.73135370988377701 I I #
edge $-1 $670 -19.194798840512313 $395 -8.1825967287998012 $547 $677 forward 7 unknown #
point $-1 -67.139500106814779 8.1825967287998012 11.681971749860956 #
point $-1 -57.722682470624207 8.1825967287998012 11.681971749860956 #
edge $-1 $678 1 $678 0 $398 $-1 forward 7 unknown #
vertex $-1 $399 $679 #
ellipse-curve $-1 -61.136251273720042 10.385037151142299 5.4253635178732544 -0.73135370988377701 0 0.68199835119979291 0.34099917559989645 0 0.36567685494188851 1 I I #
point $-1 -62.09009211311961 10.385037151142299 6.9984981916009215 #
edge $-1 $680 1 $680 0 $402 $-1 forward 7 unknown #
vertex $-1 $403 $681 #
ellipse-curve $-1 -61.136251273720042 13.688697784656057 5.4253635178732544 -0.73135370988377701 0 0.68199835119979291 0.34099917559989645 0 0.36567685494188851 1 I I #
point $-1 -62.09009211311961 13.688697784656057 6.9984981916009215 #
edge $-1 $682 1 $682 0 $406 $-1 forward 7 unknown #
vertex $-1 $407 $683 #
ellipse-curve $-1 -61.136251273720042 16.992358418169808 5.4253635178732544 -0.73135370988377701 0 0.68199835119979291 0.34099917559989645 0 0.36567685494188851 1 I I #
point $-1 -62.09009211311961 16.992358418169808 6.9984981916009215 #
plane-surface $-1 0 0 11.681971749860956 0 0 1 1 0 0 forward_v I I I I #
coedge $-1 $578 $577 $570 $684 forward $411 $-1 #
coedge $-1 $570 $413 $415 $574 reversed $277 $-1 #
coedge $-1 $413 $569 $568 $684 reversed $277 $-1 #
coedge $-1 $421 $416 $413 $572 forward $422 $-1 #
edge $-1 $575 42.481020255114643 $685 50.057572764960838 $571 $686 forward 7 unknown #
coedge $-1 $415 $414 $578 $687 reversed $175 $-1 #
edge $-1 $688 -134.27900021362956 $575 -125.02973738074809 $569 $689 forward 7 unknown #
vertex $-1 $417 $690 #
straight-curve $-1 59.562947596968556 -2.3392991181185181 11.681971749860956 0 -1 0 I I #
coedge $-1 $568 $418 $421 $582 reversed $411 $-1 #
coedge $-1 $418 $568 $573 $687 forward $411 $-1 #
vertex $-1 $419 $691 #
straight-curve $-1 67.139500106814779 -1.5149753824902579 96.695500356950447 0 0 1 I I #
straight-curve $-1 -42.855416728224 -1.5149753824902579 83.396083878862115 0.81915203911291934 0 -0.57357644374324357 I I #
edge $-1 $685 -7.8422210899838145 $423 -1.5149753824902579 $577 $692 forward 7 unknown #
point $-1 67.139500106814779 -1.5149753824902579 11.681971749860956 #
point $-1 59.562947596968584 -1.5149753824902579 11.681971749860949 #
edge $-1 $693 1 $693 0 $426 $-1 forward 7 unknown #
vertex $-1 $427 $694 #
ellipse-curve $-1 62.5345946745636 -6.0344366021285119 7.8631247989472071 0.57357644374324357 0 0.81915203911291934 0.40957601955645967 0 -0.28678822187162178 1 I I #
point $-1 63.760799871448157 -6.0344366021285119 8.7426038865239892 #
edge $-1 $695 1 $695 0 $430 $-1 forward 7 unknown #
vertex $-1 $431 $696 #
ellipse-curve $-1 62.5345946745636 -3.3227598703455605 7.8631247989472071 0.57357644374324357 0 0.81915203911291934 0.40957601955645967 0 -0.28678822187162178 1 I I #
point $-1 63.760799871448157 -3.3227598703455605 8.7426038865239892 #
plane-surface $-1 0 0 11.681971749860956 0 0 1 1 0 0 forward_v I I I I #
coedge $-1 $604 $603 $596 $697 forward $435 $-1 #
coedge $-1 $596 $437 $439 $600 reversed $299 $-1 #
coedge $-1 $437 $595 $594 $697 reversed $299 $-1 #
coedge $-1 $445 $440 $437 $598 forward $446 $-1 #
edge $-1 $601 42.481020255114643 $698 50.057572764960838 $597 $699 forward 7 unknown #
coedge $-1 $439 $438 $604 $700 reversed $189 $-1 #
edge $-1 $701 -134.27900021362956 $601 -125.02973738074809 $595 $702 forward 7 unknown #
vertex $-1 $441 $703 #
straight-curve $-1 59.562947596968556 9.1315478703719535 11.681971749860956 0 -1 0 I I #
coedge $-1 $594 $442 $445 $608 reversed $435 $-1 #
coedge $-1 $442 $594 $599 $700 forward $435 $-1 #
vertex $-1 $443 $704 #
straight-curve $-1 67.139500106814779 21.426718594490687 96.695500356950447 0 0 1 I I #
straight-curve $-1 -42.855416728224 21.426718594490687 83.396083878862115 0.81915203911291934 0 -0.57357644374324357 I I #
edge $-1 $698 15.099472886997129 $447 21.426718594490687 $603 $705 forward 7 unknown #
point $-1 67.139500106814779 21.426718594490687 11.681971749860956 #
point $-1 59.562947596968584 21.426718594490687 11.681971749860949 #
edge $-1 $706 1 $706 0 $450 $-1 forward 7 unknown #
vertex $-1 $451 $707 #
ellipse-curve $-1 62.5345946745636 16.907257374852428 7.8631247989472071 0.57357644374324357 0 0.81915203911291934 0.40957601955645967 0 -0.28678822187162178 1 I I #
point $-1 63.760799871448157 16.907257374852428 8.7426038865239892 #
edge $-1 $708 1 $708 0 $454 $-1 forward 7 unknown #
vertex $-1 $455 $709 #
ellipse-curve $-1 62.5345946745636 19.618934106635379 7.8631247989472071 0.57357644374324357 0 0.81915203911291934 0.40957601955645967 0 -0.28678822187162178 1 I I #
point $-1 63.760799871448157 19.618934106635379 8.7426038865239892 #
plane-surface $-1 67.139500106814779 0 0 -1 0 0 0 0 1 forward_v I I I I #
coedge $-1 $463 $461 $465 $624 reversed $321 $-1 #
edge $-1 $476 -11.681971749860956 $626 11.681971749860956 $475 $710 forward 7 unknown #
vertex $-1 $624 $711 #
straight-curve $-1 -67.139500106814779 -27.025457033260423 0 0 0 -1 I I #
edge $-1 $622 -27.025457033260423 $626 27.025457033260423 $620 $712 forward 7 unknown #
straight-curve $-1 0 -27.025457033260423 -11.681971749860956 -1 0 0 I I #
vertex $-1 $468 $713 #
straight-curve $-1 0 27.025457033260423 -11.681971749860956 1 0 0 I I #
point $-1 67.139500106814779 27.025457033260423 -11.681971749860956 #
point $-1 67.139500106814779 -27.025457033260423 -11.681971749860956 #
straight-curve $-1 -67.139500106814779 0 11.681971749860956 0 -1 0 I I #
point $-1 -67.139500106814779 27.025457033260423 11.681971749860956 #
point $-1 -67.139500106814779 -27.025457033260423 11.681971749860956 #
straight-curve $-1 67.139500106814779 -27.025457033260423 0 0 0 -1 I I #
straight-curve $-1 67.139500106814779 27.025457033260423 0 0 0 -1 I I #
plane-surface $-1 67.139500106814779 0 0 -1 0 0 0 0 1 forward_v I I I I #
coedge $-1 $489 $488 $499 $647 reversed $211 $-1 #
coedge $-1 $714 $492 $489 $638 forward $486 $-1 #
edge $-1 $639 18.857930920701456 $715 27.025457033260423 $489 $716 forward 7 unknown #
vertex $-1 $638 $717 #
straight-curve $-1 -67.139500106814779 -18.857930920701456 4.7175849812752961 0 0 -1 I I #
coedge $-1 $492 $714 $494 $643 forward $486 $-1 #
straight-curve $-1 0 -18.857930920701456 11.681971749860956 -1 0 0 I I #
edge $-1 $650 -27.025457033260423 $495 -18.857930920701456 $494 $718 forward 7 unknown #
point $-1 67.139500106814779 -18.857930920701456 11.681971749860956 #
straight-curve $-1 -67.139500106814779 -11.47084698849047 7.1883681752402282 0 -1 0 I I #
coedge $-1 $499 $498 $714 $719 reversed $340 $-1 #
edge $-1 $715 -11.681971749860956 $500 -7.1883681752402282 $636 $720 forward 7 unknown #
point $-1 -67.139500106814779 -27.025457033260423 7.1883681752402282 #
point $-1 -67.139500106814779 -18.857930920701456 7.1883681752402282 #
vertex $-1 $643 $721 #
straight-curve $-1 67.139500106814779 -27.025457033260423 0 0 0 -1 I I #
coedge $-1 $518 $517 $510 $653 forward $507 $-1 #
edge $-1 $654 34.898892085093586 $657 44.997192911497464 $652 $722 forward 7 unknown #
vertex $-1 $522 $723 #
straight-curve $-1 -82.672472536268614 -0.015070616240829615 11.681971749860956 -1 0 0 I I #
edge $-1 $657 -2.7455152198077135 $519 8.2666868919047989 $518 $724 forward 7 unknown #
vertex $-1 $656 $725 #
straight-curve $-1 -67.139500106814765 -0.015070616240829615 1.5836709234570918 0.68199835119979291 0 0.73135370988377701 I I #
point $-1 -57.722682470624207 -0.015070616240829615 11.681971749860956 #
point $-1 -67.139500106814779 -11.027272727953342 1.5836709234570765 #
straight-curve $-1 -67.139500106814779 0 11.681971749860956 0 -1 0 I I #
vertex $-1 $525 $726 #
point $-1 -60.795252098120145 -8.8248323056108404 5.7910403728151429 #
vertex $-1 $529 $727 #
point $-1 -60.795252098120145 -5.5211716720970863 5.7910403728151429 #
vertex $-1 $533 $728 #
point $-1 -60.795252098120145 -2.2175110385833321 5.7910403728151429 #
coedge $-1 $548 $547 $540 $669 forward $537 $-1 #
edge $-1 $670 34.898892085093586 $673 44.997192911497464 $668 $729 forward 7 unknown #
vertex $-1 $552 $730 #
straight-curve $-1 -82.672472536268614 19.194798840512313 11.681971749860956 -1 0 0 I I #
edge $-1 $673 -12.350449948184284 $549 -1.3382478364717727 $548 $731 forward 7 unknown #
vertex $-1 $672 $732 #
straight-curve $-1 -67.139500106814765 19.194798840512313 1.5836709234570918 0.68199835119979291 0 0.73135370988377701 I I #
point $-1 -57.722682470624207 19.194798840512313 11.681971749860956 #
point $-1 -67.139500106814779 8.1825967287998012 1.5836709234570765 #
straight-curve $-1 -67.139500106814779 0 11.681971749860956 0 -1 0 I I #
vertex $-1 $555 $733 #
point $-1 -60.795252098120145 10.385037151142299 5.7910403728151429 #
vertex $-1 $559 $734 #
point $-1 -60.795252098120145 13.688697784656057 5.7910403728151429 #
vertex $-1 $563 $735 #
point $-1 -60.795252098120145 16.992358418169808 5.7910403728151429 #
edge $-1 $685 85.013528607089484 $688 90.318687890020215 $568 $736 forward 7 unknown #
vertex $-1 $582 $737 #
straight-curve $-1 17.081927341853941 -7.8422210899838145 11.681971749860963 1 0 0 I I #
edge $-1 $688 -5.5029219718652964 $579 0.82432373562826022 $578 $738 forward 7 unknown #
vertex $-1 $687 $739 #
straight-curve $-1 -42.855416728224 -7.8422210899838145 83.396083878862115 -0.81915203911291934 0 0.57357644374324357 I I #
point $-1 59.562947596968584 -7.8422210899838145 11.681971749860949 #
point $-1 67.139500106814779 -1.5149753824902579 6.3768124669302324 #
straight-curve $-1 67.139500106814779 0 11.681971749860956 0 1 0 I I #
vertex $-1 $585 $740 #
point $-1 62.944170694120061 -6.0344366021285119 7.5763365770755859 #
vertex $-1 $589 $741 #
point $-1 62.944170694120061 -3.3227598703455605 7.5763365770755859 #
edge $-1 $698 85.013528607089484 $701 90.318687890020215 $594 $742 forward 7 unknown #
vertex $-1 $608 $743 #
straight-curve $-1 17.081927341853941 15.099472886997129 11.681971749860963 1 0 0 I I #
edge $-1 $701 5.9679250166251752 $605 12.295170724118734 $604 $744 forward 7 unknown #
vertex $-1 $700 $745 #
straight-curve $-1 -42.855416728224 15.099472886997129 83.396083878862115 -0.81915203911291934 0 0.57357644374324357 I I #
point $-1 59.562947596968584 15.099472886997129 11.681971749860949 #
point $-1 67.139500106814779 21.426718594490687 6.3768124669302324 #
straight-curve $-1 67.139500106814779 0 11.681971749860956 0 1 0 I I #
vertex $-1 $611 $746 #
point $-1 62.944170694120061 16.907257374852428 7.5763365770755859 #
vertex $-1 $615 $747 #
point $-1 62.944170694120061 19.618934106635379 7.5763365770755859 #
straight-curve $-1 -67.139500106814779 27.025457033260423 0 0 0 -1 I I #
point $-1 -67.139500106814779 -27.025457033260423 -11.681971749860956 #
straight-curve $-1 -67.139500106814779 0 -11.681971749860956 0 1 0 I I #
point $-1 -67.139500106814779 27.025457033260423 -11.681971749860956 #
coedge $-1 $641 $637 $646 $719 forward $486 $-1 #
vertex $-1 $638 $748 #
straight-curve $-1 -67.139500106814779 0 11.681971749860956 0 -1 0 I I #
point $-1 -67.139500106814779 -18.857930920701456 11.681971749860956 #
straight-curve $-1 67.139500106814779 0 11.681971749860956 0 1 0 I I #
edge $-1 $715 -67.139500106814779 $650 67.139500106814779 $646 $749 forward 7 unknown #
straight-curve $-1 -67.139500106814779 -27.025457033260423 0 0 0 -1 I I #
point $-1 67.139500106814779 -27.025457033260423 11.681971749860956 #
straight-curve $-1 -67.139500106814779 -0.015070616240829615 46.580863834954542 0 0 -1 I I #
point $-1 -67.139500106814779 -0.015070616240829615 11.681971749860956 #
straight-curve $-1 -67.139500106814779 -2.7605858360485431 1.5836709234570803 0 -1 0 I I #
point $-1 -67.139500106814779 -0.015070616240829615 1.5836709234570765 #
point $-1 -60.770574418778146 -8.8248323056108404 5.0843643422733571 #
point $-1 -60.770574418778146 -5.5211716720970863 5.0843643422733571 #
point $-1 -60.770574418778146 -2.2175110385833321 5.0843643422733571 #
straight-curve $-1 -67.139500106814779 19.194798840512313 46.580863834954542 0 0 -1 I I #
point $-1 -67.139500106814779 19.194798840512313 11.681971749860956 #
straight-curve $-1 -67.139500106814779 6.8443488923280285 1.5836709234570803 0 -1 0 I I #
point $-1 -67.139500106814779 19.194798840512313 1.5836709234570765 #
point $-1 -60.770574418778146 10.385037151142299 5.0843643422733571 #
point $-1 -60.770574418778146 13.688697784656057 5.0843643422733571 #
point $-1 -60.770574418778146 16.992358418169808 5.0843643422733571 #
straight-curve $-1 67.139500106814779 -7.8422210899838145 96.695500356950447 0 0 -1 I I #
point $-1 67.139500106814779 -7.8422210899838145 11.681971749860956 #
straight-curve $-1 67.139500106814779 -2.3392991181185181 6.3768124669302253 0 1 0 I I #
point $-1 67.139500106814779 -7.8422210899838145 6.3768124669302324 #
point $-1 62.247806452691982 -6.0344366021285119 7.453548779390748 #
point $-1 62.247806452691982 -3.3227598703455605 7.453548779390748 #
straight-curve $-1 67.139500106814779 15.099472886997129 96.695500356950447 0 0 -1 I I #
point $-1 67.139500106814779 15.099472886997129 11.681971749860956 #
straight-curve $-1 67.139500106814779 9.1315478703719535 6.3768124669302253 0 1 0 I I #
point $-1 67.139500106814779 15.099472886997129 6.3768124669302324 #
point $-1 62.247806452691982 16.907257374852428 7.453548779390748 #
point $-1 62.247806452691982 19.618934106635379 7.453548779390748 #
point $-1 -67.139500106814779 -27.025457033260423 11.681971749860956 #
straight-curve $-1 0 -27.025457033260423 11.681971749860956 1 0 0 I I #
End-of-ACIS-data 