500 0 12 0           
7 Unknown 11 ACIS 5.0 NT 24 Fri Mar 26 14:21:30 1999 
-1 9.9999999999999995e-007 1e-010 
body $-1 $12 $-1 $13 #
body $-1 $14 $-1 $15 #
body $-1 $16 $-1 $17 #
body $-1 $18 $-1 $19 #
body $-1 $20 $-1 $21 #
body $-1 $22 $-1 $23 #
body $-1 $24 $-1 $25 #
body $-1 $26 $-1 $27 #
body $-1 $28 $-1 $29 #
body $-1 $30 $-1 $31 #
body $-1 $32 $-1 $33 #
body $-1 $34 $-1 $35 #
lump $-1 $-1 $36 $0 #
transform $-1 1 0 0 0 1 0 0 0 1 54.221625415814692 34.0581704808422 8.9485460103370702 1 rotate no_reflect no_shear #
lump $-1 $-1 $37 $1 #
transform $-1 1 0 0 0 1 0 0 0 1 54.221625415814692 34.0581704808422 8.9485460103370702 1 rotate no_reflect no_shear #
lump $-1 $-1 $38 $2 #
transform $-1 1 0 0 0 1 0 0 0 1 54.221625415814692 34.0581704808422 8.9485460103370702 1 rotate no_reflect no_shear #
lump $-1 $-1 $39 $3 #
transform $-1 1 0 0 0 1 0 0 0 1 54.221625415814692 34.0581704808422 8.9485460103370702 1 rotate no_reflect no_shear #
lump $-1 $-1 $40 $4 #
transform $-1 1 0 0 0 1 0 0 0 1 54.221625415814692 34.0581704808422 8.9485460103370702 1 rotate no_reflect no_shear #
lump $-1 $-1 $41 $5 #
transform $-1 1 0 0 0 1 0 0 0 1 54.221625415814692 34.0581704808422 8.9485460103370702 1 rotate no_reflect no_shear #
lump $-1 $-1 $42 $6 #
transform $-1 1 0 0 0 1 0 0 0 1 54.221625415814692 34.0581704808422 8.9485460103370702 1 rotate no_reflect no_shear #
lump $-1 $-1 $43 $7 #
transform $-1 1 0 0 0 1 0 0 0 1 54.221625415814692 34.0581704808422 8.9485460103370702 1 rotate no_reflect no_shear #
lump $-1 $-1 $44 $8 #
transform $-1 1 0 0 0 1 0 0 0 1 54.221625415814692 34.0581704808422 8.9485460103370702 1 rotate no_reflect no_shear #
lump $-1 $-1 $45 $9 #
transform $-1 1 0 0 0 1 0 0 0 1 54.221625415814692 34.0581704808422 8.9485460103370702 1 rotate no_reflect no_shear #
lump $-1 $-1 $46 $10 #
transform $-1 1 0 0 0 1 0 0 0 1 54.221625415814692 34.0581704808422 8.9485460103370702 1 rotate no_reflect no_shear #
lump $-1 $-1 $47 $11 #
transform $-1 1 0 0 0 1 0 0 0 1 54.221625415814692 34.0581704808422 8.9485460103370702 1 rotate no_reflect no_shear #
shell $-1 $-1 $-1 $48 $-1 $12 #
shell $-1 $-1 $-1 $49 $-1 $14 #
shell $-1 $-1 $-1 $50 $-1 $16 #
shell $-1 $-1 $-1 $51 $-1 $18 #
shell $-1 $-1 $-1 $52 $-1 $20 #
shell $-1 $-1 $-1 $53 $-1 $22 #
shell $-1 $-1 $-1 $54 $-1 $24 #
shell $-1 $-1 $-1 $55 $-1 $26 #
shell $-1 $-1 $-1 $56 $-1 $28 #
shell $-1 $-1 $-1 $57 $-1 $30 #
shell $-1 $-1 $-1 $58 $-1 $32 #
shell $-1 $-1 $-1 $59 $-1 $34 #
face $-1 $60 $61 $36 $-1 $62 forward single #
face $-1 $63 $64 $37 $-1 $65 reversed single #
face $-1 $66 $67 $38 $-1 $68 reversed single #
face $-1 $69 $70 $39 $-1 $71 forward single #
face $-1 $72 $73 $40 $-1 $74 forward single #
face $-1 $75 $76 $41 $-1 $77 reversed single #
face $-1 $78 $79 $42 $-1 $80 forward single #
face $-1 $81 $82 $43 $-1 $83 forward single #
face $-1 $84 $85 $44 $-1 $86 reversed single #
face $-1 $87 $88 $45 $-1 $89 forward single #
face $-1 $90 $91 $46 $-1 $92 forward single #
face $-1 $93 $94 $47 $-1 $95 forward single #
face $-1 $96 $97 $36 $-1 $98 reversed single #
loop $-1 $-1 $99 $48 #
plane-surface $-1 0 0 8.9485460103370702 0 0 1 1 0 0 forward_v I I I I #
face $-1 $100 $101 $37 $-1 $102 reversed single #
loop $-1 $-1 $103 $49 #
plane-surface $-1 0 -29.269189508330541 5.9485460103370702 0 0 1 1 0 0 forward_v I I I I #
face $-1 $104 $105 $38 $-1 $106 reversed single #
loop $-1 $-1 $107 $50 #
plane-surface $-1 -136.06478662778676 -9.49487536746269 72.276534809690688 0 1 0 -0.75470958851134928 0 0.65605901945558964 forward_v I I I I #
face $-1 $108 $109 $39 $-1 $110 forward single #
loop $-1 $111 $112 $51 #
cone-surface $-1 -49.519071757715238 -5.4137735560414484 3.9056508468688067 0.75470958851134928 0 -0.65605901945558964 1.3121180389111793 0 1.5094191770226986 1 I I 0 1 2 forward I I I I #
face $-1 $113 $114 $40 $-1 $115 forward single #
loop $-1 $116 $117 $52 #
cone-surface $-1 -49.519071757715238 0.7078791610904176 3.9056508468688067 0.75470958851134928 0 -0.65605901945558964 1.3121180389111793 0 1.5094191770226986 1 I I 0 1 2 forward I I I I #
face $-1 $118 $119 $41 $-1 $120 reversed single #
loop $-1 $-1 $121 $53 #
plane-surface $-1 -136.06478662778676 19.774314140867851 72.276534809690688 0 1 0 -0.75470958851134928 0 0.65605901945558964 forward_v I I I I #
face $-1 $122 $123 $42 $-1 $124 forward single #
loop $-1 $125 $126 $54 #
cone-surface $-1 -49.519071757715238 23.855415952289093 3.9056508468688067 0.75470958851134928 0 -0.65605901945558964 1.3121180389111793 0 1.5094191770226986 1 I I 0 1 2 forward I I I I #
face $-1 $127 $128 $43 $-1 $129 forward single #
loop $-1 $130 $131 $55 #
cone-surface $-1 -49.519071757715238 29.977068669420952 3.9056508468688067 0.75470958851134928 0 -0.65605901945558964 1.3121180389111793 0 1.5094191770226986 1 I I 0 1 2 forward I I I I #
face $-1 $132 $133 $44 $-1 $134 reversed single #
loop $-1 $-1 $135 $56 #
plane-surface $-1 86.107362898434701 15.852675575459294 154.25918813747055 0 -1 0 -0.83867057594974714 0 -0.54463902268945019 forward_v I I I I #
face $-1 $136 $137 $45 $-1 $138 forward single #
loop $-1 $139 $140 $57 #
cone-surface $-1 52.276199329256102 9.9890741803866021 6.326252671043548 -0.83867057594974714 0 -0.54463902268945019 0.2723195113447251 0 -0.41933528797487357 1 I I 0 1 0.5 forward I I I I #
face $-1 $141 $142 $46 $-1 $143 forward single #
loop $-1 $144 $145 $58 #
cone-surface $-1 52.276199329256102 12.187924703538862 6.326252671043548 -0.83867057594974714 0 -0.54463902268945019 0.2723195113447251 0 -0.41933528797487357 1 I I 0 1 0.5 forward I I I I #
face $-1 $146 $147 $47 $-1 $148 forward single #
loop $-1 $149 $150 $59 #
cone-surface $-1 52.276199329256102 14.386775226691121 6.326252671043548 -0.83867057594974714 0 -0.54463902268945019 0.2723195113447251 0 -0.41933528797487357 1 I I 0 1 0.5 forward I I I I #
face $-1 $151 $152 $36 $-1 $153 reversed single #
loop $-1 $-1 $154 $60 #
plane-surface $-1 0 0 -8.9485460103370702 0 0 1 1 0 0 forward_v I I I I #
coedge $-1 $155 $156 $157 $158 forward $61 $-1 #
face $-1 $159 $160 $37 $-1 $161 reversed single #
loop $-1 $-1 $162 $63 #
plane-surface $-1 0 -24.480208535818882 7.4485460103370702 0 -1 0 0 0 -1 forward_v I I I I #
coedge $-1 $163 $164 $165 $166 reversed $64 $-1 #
face $-1 $167 $168 $38 $-1 $169 reversed single #
loop $-1 $-1 $170 $66 #
plane-surface $-1 -54.221625415814714 -2.3529471974755154 1.1313620025153597 -0.75470958851134928 0 0.65605901945558964 0.65605901945558964 0 0.75470958851134928 forward_v I I I I #
coedge $-1 $171 $172 $173 $174 reversed $67 $-1 #
face $-1 $-1 $175 $39 $-1 $176 forward single #
loop $-1 $177 $178 $69 #
cone-surface $-1 -47.459495616942974 -5.4137735560414484 2.1152886678558112 0.75470958851134928 0 -0.65605901945558964 0.65605901945558964 0 0.75470958851134928 1 I I -0.70710678118654746 0.70710678118654746 1 forward I I I I #
loop $-1 $-1 $179 $51 #
coedge $-1 $112 $112 $180 $181 reversed $70 $-1 #
face $-1 $-1 $182 $40 $-1 $183 forward single #
loop $-1 $184 $185 $72 #
cone-surface $-1 -47.459495616942974 0.7078791610904176 2.1152886678558112 0.75470958851134928 0 -0.65605901945558964 0.65605901945558964 0 0.75470958851134928 1 I I -0.70710678118654746 0.70710678118654746 1 forward I I I I #
loop $-1 $-1 $186 $52 #
coedge $-1 $117 $117 $187 $188 reversed $73 $-1 #
face $-1 $189 $190 $41 $-1 $191 forward single #
loop $-1 $-1 $192 $75 #
plane-surface $-1 -54.221625415814714 26.916242310855026 1.1313620025153597 -0.75470958851134928 0 0.65605901945558964 0.65605901945558964 0 0.75470958851134928 forward_v I I I I #
coedge $-1 $193 $194 $195 $196 reversed $76 $-1 #
face $-1 $-1 $197 $42 $-1 $198 forward single #
loop $-1 $199 $200 $78 #
cone-surface $-1 -47.459495616942974 23.855415952289093 2.1152886678558112 0.75470958851134928 0 -0.65605901945558964 0.65605901945558964 0 0.75470958851134928 1 I I -0.70710678118654746 0.70710678118654746 1 forward I I I I #
loop $-1 $-1 $201 $54 #
coedge $-1 $126 $126 $202 $203 reversed $79 $-1 #
face $-1 $-1 $204 $43 $-1 $205 forward single #
loop $-1 $206 $207 $81 #
cone-surface $-1 -47.459495616942974 29.977068669420952 2.1152886678558112 0.75470958851134928 0 -0.65605901945558964 0.65605901945558964 0 0.75470958851134928 1 I I -0.70710678118654746 0.70710678118654746 1 forward I I I I #
loop $-1 $-1 $208 $55 #
coedge $-1 $131 $131 $209 $210 reversed $82 $-1 #
face $-1 $211 $212 $44 $-1 $213 reversed single #
loop $-1 $-1 $214 $84 #
plane-surface $-1 -4.840800734390811 12.187924703538862 95.196761987265006 0.83867057594974714 0 0.54463902268945019 0.54463902268945019 0 -0.83867057594974714 forward_v I I I I #
coedge $-1 $215 $216 $217 $218 reversed $85 $-1 #
face $-1 $-1 $219 $45 $-1 $220 forward single #
loop $-1 $221 $222 $87 #
cone-surface $-1 51.64719639729379 9.9890741803866021 5.9177734040264607 -0.83867057594974714 0 -0.54463902268945019 0.13615975567236255 0 -0.20966764398743679 1 I I -0.70710678118654746 0.70710678118654746 0.25 forward I I I I #
loop $-1 $-1 $223 $57 #
coedge $-1 $140 $140 $224 $225 reversed $88 $-1 #
face $-1 $-1 $226 $46 $-1 $227 forward single #
loop $-1 $228 $229 $90 #
cone-surface $-1 51.64719639729379 12.187924703538862 5.9177734040264607 -0.83867057594974714 0 -0.54463902268945019 0.13615975567236255 0 -0.20966764398743679 1 I I -0.70710678118654746 0.70710678118654746 0.25 forward I I I I #
loop $-1 $-1 $230 $58 #
coedge $-1 $145 $145 $231 $232 reversed $91 $-1 #
face $-1 $-1 $233 $47 $-1 $234 forward single #
loop $-1 $235 $236 $93 #
cone-surface $-1 51.64719639729379 14.386775226691121 5.9177734040264607 -0.83867057594974714 0 -0.54463902268945019 0.13615975567236255 0 -0.20966764398743679 1 I I -0.70710678118654746 0.70710678118654746 0.25 forward I I I I #
loop $-1 $-1 $237 $59 #
coedge $-1 $150 $150 $238 $239 reversed $94 $-1 #
face $-1 $240 $241 $36 $-1 $242 reversed single #
loop $-1 $-1 $243 $96 #
plane-surface $-1 0 -34.0581704808422 0 0 1 0 0 0 1 forward_v I I I I #
coedge $-1 $244 $245 $246 $247 forward $97 $-1 #
coedge $-1 $248 $99 $249 $250 forward $61 $-1 #
coedge $-1 $99 $248 $251 $252 forward $61 $-1 #
coedge $-1 $253 $254 $99 $158 reversed $255 $-1 #
edge $-1 $256 -34.0581704808422 $257 34.0581704808422 $157 $258 forward 7 unknown #
face $-1 $259 $260 $37 $-1 $261 reversed single #
loop $-1 $-1 $262 $100 #
plane-surface $-1 -54.221625415814692 0 0 1 0 0 0 0 -1 forward_v I I I I #
coedge $-1 $263 $264 $265 $266 reversed $101 $-1 #
coedge $-1 $267 $103 $268 $269 reversed $64 $-1 #
coedge $-1 $103 $267 $263 $270 forward $64 $-1 #
coedge $-1 $265 $271 $103 $166 forward $272 $-1 #
edge $-1 $273 -19.42357572667693 $274 -9.8456137816536113 $165 $275 forward 7 unknown #
face $-1 $276 $277 $38 $-1 $278 forward single #
loop $-1 $-1 $279 $104 #
plane-surface $-1 -136.06478662778676 4.7889809725116592 72.276534809690688 0 -1 0 0.75470958851134928 0 -0.65605901945558964 forward_v I I I I #
coedge $-1 $280 $281 $282 $283 reversed $105 $-1 #
coedge $-1 $172 $107 $284 $285 reversed $67 $-1 #
coedge $-1 $107 $171 $280 $286 reversed $67 $-1 #
coedge $-1 $282 $287 $107 $174 forward $277 $-1 #
edge $-1 $288 13.810767898078687 $289 20.606142109755723 $173 $290 forward 7 unknown #
loop $-1 $-1 $180 $108 #
plane-surface $-1 -54.221625415814714 -2.3529471974755154 1.1313620025153597 -0.75470958851134928 0 0.65605901945558964 0.65605901945558964 0 0.75470958851134928 forward_v I I I I #
loop $-1 $-1 $291 $69 #
coedge $-1 $178 $178 $179 $292 reversed $109 $-1 #
coedge $-1 $179 $179 $178 $292 forward $111 $-1 #
coedge $-1 $180 $180 $112 $181 forward $175 $-1 #
edge $-1 $293 0 $293 6.2831853071796004 $180 $294 forward 7 unknown #
loop $-1 $-1 $187 $113 #
plane-surface $-1 -54.221625415814714 -2.3529471974755154 1.1313620025153597 -0.75470958851134928 0 0.65605901945558964 0.65605901945558964 0 0.75470958851134928 forward_v I I I I #
loop $-1 $-1 $295 $72 #
coedge $-1 $185 $185 $186 $296 reversed $114 $-1 #
coedge $-1 $186 $186 $185 $296 forward $116 $-1 #
coedge $-1 $187 $187 $117 $188 forward $182 $-1 #
edge $-1 $297 0 $297 6.2831853071796004 $187 $298 forward 7 unknown #
face $-1 $299 $300 $41 $-1 $301 reversed single #
loop $-1 $-1 $195 $118 #
plane-surface $-1 0 0 8.9485460103370702 0 0 1 1 0 0 forward_v I I I I #
coedge $-1 $302 $303 $304 $305 reversed $119 $-1 #
coedge $-1 $194 $121 $306 $307 reversed $76 $-1 #
coedge $-1 $121 $193 $302 $308 reversed $76 $-1 #
coedge $-1 $304 $309 $121 $196 forward $190 $-1 #
edge $-1 $310 13.810767898078687 $311 20.606142109755723 $195 $312 forward 7 unknown #
loop $-1 $-1 $202 $122 #
plane-surface $-1 -54.221625415814714 26.916242310855026 1.1313620025153597 -0.75470958851134928 0 0.65605901945558964 0.65605901945558964 0 0.75470958851134928 forward_v I I I I #
loop $-1 $-1 $313 $78 #
coedge $-1 $200 $200 $201 $314 reversed $123 $-1 #
coedge $-1 $201 $201 $200 $314 forward $125 $-1 #
coedge $-1 $202 $202 $126 $203 forward $197 $-1 #
edge $-1 $315 0 $315 6.2831853071796004 $202 $316 forward 7 unknown #
loop $-1 $-1 $209 $127 #
plane-surface $-1 -54.221625415814714 26.916242310855026 1.1313620025153597 -0.75470958851134928 0 0.65605901945558964 0.65605901945558964 0 0.75470958851134928 forward_v I I I I #
loop $-1 $-1 $317 $81 #
coedge $-1 $207 $207 $208 $318 reversed $128 $-1 #
coedge $-1 $208 $208 $207 $318 forward $130 $-1 #
coedge $-1 $209 $209 $131 $210 forward $204 $-1 #
edge $-1 $319 0 $319 6.2831853071796004 $209 $320 forward 7 unknown #
face $-1 $321 $322 $44 $-1 $323 reversed single #
loop $-1 $-1 $324 $132 #
plane-surface $-1 86.107362898434701 8.5231738316184291 154.25918813747055 0 1 0 0.83867057594974714 0 0.54463902268945019 forward_v I I I I #
coedge $-1 $325 $326 $327 $328 reversed $133 $-1 #
coedge $-1 $216 $135 $329 $330 reversed $85 $-1 #
coedge $-1 $135 $215 $325 $331 reversed $85 $-1 #
coedge $-1 $327 $332 $135 $218 forward $333 $-1 #
edge $-1 $334 -11.167943966597342 $335 -8.1157623694299446 $217 $336 forward 7 unknown #
loop $-1 $-1 $224 $136 #
plane-surface $-1 -4.840800734390811 12.187924703538862 95.196761987265006 0.83867057594974714 0 0.54463902268945019 0.54463902268945019 0 -0.83867057594974714 forward_v I I I I #
loop $-1 $-1 $337 $87 #
coedge $-1 $222 $222 $223 $338 reversed $137 $-1 #
coedge $-1 $223 $223 $222 $338 forward $139 $-1 #
coedge $-1 $224 $224 $140 $225 forward $219 $-1 #
edge $-1 $339 0 $339 6.2831853071796004 $224 $340 forward 7 unknown #
loop $-1 $-1 $231 $141 #
plane-surface $-1 -4.840800734390811 12.187924703538862 95.196761987265006 0.83867057594974714 0 0.54463902268945019 0.54463902268945019 0 -0.83867057594974714 forward_v I I I I #
loop $-1 $-1 $341 $90 #
coedge $-1 $229 $229 $230 $342 reversed $142 $-1 #
coedge $-1 $230 $230 $229 $342 forward $144 $-1 #
coedge $-1 $231 $231 $145 $232 forward $226 $-1 #
edge $-1 $343 0 $343 6.2831853071796004 $231 $344 forward 7 unknown #
loop $-1 $-1 $238 $146 #
plane-surface $-1 -4.840800734390811 12.187924703538862 95.196761987265006 0.83867057594974714 0 0.54463902268945019 0.54463902268945019 0 -0.83867057594974714 forward_v I I I I #
loop $-1 $-1 $345 $93 #
coedge $-1 $236 $236 $237 $346 reversed $147 $-1 #
coedge $-1 $237 $237 $236 $346 forward $149 $-1 #
coedge $-1 $238 $238 $150 $239 forward $233 $-1 #
edge $-1 $347 0 $347 6.2831853071796004 $238 $348 forward 7 unknown #
face $-1 $349 $350 $36 $-1 $351 reversed single #
loop $-1 $-1 $352 $151 #
plane-surface $-1 -54.221625415814692 0 0 1 0 0 0 0 -1 forward_v I I I I #
coedge $-1 $353 $251 $354 $355 forward $152 $-1 #
coedge $-1 $356 $154 $353 $357 forward $97 $-1 #
coedge $-1 $154 $356 $358 $359 forward $97 $-1 #
coedge $-1 $254 $253 $154 $247 reversed $255 $-1 #
edge $-1 $360 -34.0581704808422 $361 34.0581704808422 $246 $362 forward 7 unknown #
coedge $-1 $156 $155 $363 $364 forward $61 $-1 #
coedge $-1 $365 $366 $155 $250 reversed $350 $-1 #
edge $-1 $257 -54.221625415814692 $367 54.221625415814692 $249 $368 forward 7 unknown #
coedge $-1 $243 $369 $156 $252 reversed $152 $-1 #
edge $-1 $370 -54.221625415814692 $256 54.221625415814692 $251 $371 forward 7 unknown #
coedge $-1 $246 $157 $369 $372 forward $255 $-1 #
coedge $-1 $157 $246 $365 $373 reversed $255 $-1 #
loop $-1 $-1 $253 $349 #
vertex $-1 $158 $374 #
vertex $-1 $158 $375 #
straight-curve $-1 54.221625415814692 0 8.9485460103370702 0 1 0 I I #
face $-1 $376 $377 $37 $-1 $378 forward single #
loop $-1 $-1 $268 $159 #
plane-surface $-1 0 -34.0581704808422 0 0 1 0 0 0 1 forward_v I I I I #
coedge $-1 $379 $380 $381 $382 forward $160 $-1 #
coedge $-1 $381 $162 $164 $270 reversed $101 $-1 #
coedge $-1 $162 $381 $383 $384 reversed $101 $-1 #
coedge $-1 $385 $165 $162 $266 forward $272 $-1 #
edge $-1 $274 2.2242730051685351 $386 5.2242730051685351 $265 $387 forward 7 unknown #
coedge $-1 $164 $163 $379 $388 reversed $64 $-1 #
coedge $-1 $389 $390 $163 $269 forward $260 $-1 #
edge $-1 $391 -54.221625415814692 $273 54.221625415814692 $268 $392 forward 7 unknown #
edge $-1 $393 -54.221625415814692 $274 54.221625415814692 $263 $394 forward 7 unknown #
coedge $-1 $165 $385 $389 $395 forward $272 $-1 #
loop $-1 $-1 $265 $376 #
vertex $-1 $269 $396 #
vertex $-1 $166 $397 #
straight-curve $-1 54.221625415814692 -14.634594754165271 5.9485460103370702 0 1 0 I I #
face $-1 $-1 $398 $38 $-1 $399 reversed single #
loop $-1 $-1 $173 $167 #
plane-surface $-1 0 0 8.9485460103370702 0 0 1 1 0 0 forward_v I I I I #
coedge $-1 $400 $401 $402 $403 reversed $168 $-1 #
coedge $-1 $404 $170 $172 $286 forward $105 $-1 #
coedge $-1 $170 $404 $400 $405 forward $105 $-1 #
coedge $-1 $402 $173 $170 $283 forward $277 $-1 #
edge $-1 $289 -8.3184017687249323 $406 5.9654545712494169 $282 $407 forward 7 unknown #
coedge $-1 $408 $409 $171 $285 forward $398 $-1 #
edge $-1 $410 -35.006905402329963 $288 -27.189721394508275 $284 $411 forward 7 unknown #
edge $-1 $289 -10.357870268007277 $410 -3.2418450280676821e-014 $172 $412 forward 7 unknown #
coedge $-1 $173 $402 $408 $413 forward $277 $-1 #
vertex $-1 $285 $414 #
vertex $-1 $174 $415 #
straight-curve $-1 -68.03239331389338 -9.49487536746269 8.9485460103370684 1 0 0 I I #
coedge $-1 $291 $291 $-1 $416 reversed $177 $-1 #
edge $-1 $417 0 $417 6.2831853071796004 $178 $418 forward 7 unknown #
vertex $-1 $181 $419 #
ellipse-curve $-1 -50.823938309976171 -5.4137735560414484 5.0399540064262283 -0.75470958851134928 0 0.65605901945558964 1.3121180389111793 0 1.5094191770226986 1 I I #
coedge $-1 $295 $295 $-1 $420 reversed $184 $-1 #
edge $-1 $421 0 $421 6.2831853071796004 $185 $422 forward 7 unknown #
vertex $-1 $188 $423 #
ellipse-curve $-1 -50.823938309976171 0.7078791610904176 5.0399540064262283 -0.75470958851134928 0 0.65605901945558964 1.3121180389111793 0 1.5094191770226986 1 I I #
face $-1 $-1 $424 $41 $-1 $425 reversed single #
loop $-1 $-1 $426 $189 #
plane-surface $-1 0 34.0581704808422 0 0 -1 0 0 0 -1 forward_v I I I I #
coedge $-1 $427 $192 $194 $308 forward $119 $-1 #
coedge $-1 $192 $427 $426 $428 reversed $119 $-1 #
coedge $-1 $429 $195 $192 $305 forward $190 $-1 #
edge $-1 $311 6.3161929854403382 $430 20.600049325414687 $304 $431 forward 7 unknown #
coedge $-1 $432 $433 $193 $307 forward $424 $-1 #
edge $-1 $434 -35.006905402329963 $310 -27.189721394508275 $306 $435 forward 7 unknown #
edge $-1 $311 -10.357870268007277 $434 -3.2418450280676821e-014 $194 $436 forward 7 unknown #
coedge $-1 $195 $429 $432 $437 forward $190 $-1 #
vertex $-1 $307 $438 #
vertex $-1 $196 $439 #
straight-curve $-1 -68.03239331389338 19.774314140867851 8.9485460103370684 1 0 0 I I #
coedge $-1 $313 $313 $-1 $440 reversed $199 $-1 #
edge $-1 $441 0 $441 6.2831853071796004 $200 $442 forward 7 unknown #
vertex $-1 $203 $443 #
ellipse-curve $-1 -50.823938309976171 23.855415952289093 5.0399540064262283 -0.75470958851134928 0 0.65605901945558964 1.3121180389111793 0 1.5094191770226986 1 I I #
coedge $-1 $317 $317 $-1 $444 reversed $206 $-1 #
edge $-1 $445 0 $445 6.2831853071796004 $207 $446 forward 7 unknown #
vertex $-1 $210 $447 #
ellipse-curve $-1 -50.823938309976171 29.977068669420952 5.0399540064262283 -0.75470958851134928 0 0.65605901945558964 1.3121180389111793 0 1.5094191770226986 1 I I #
face $-1 $-1 $333 $44 $-1 $448 forward single #
loop $-1 $-1 $449 $211 #
plane-surface $-1 54.221625415814692 0 0 -1 0 0 0 0 1 forward_v I I I I #
coedge $-1 $450 $451 $452 $453 reversed $212 $-1 #
coedge $-1 $454 $214 $216 $331 forward $133 $-1 #
coedge $-1 $214 $454 $450 $455 forward $133 $-1 #
coedge $-1 $452 $217 $214 $328 forward $333 $-1 #
edge $-1 $335 -9.7587132236898633 $456 -2.4292114798489983 $327 $457 forward 7 unknown #
coedge $-1 $458 $459 $215 $330 forward $322 $-1 #
edge $-1 $460 -72.880995714295736 $334 -68.181048058398204 $329 $461 forward 7 unknown #
edge $-1 $335 102.83920582197212 $460 108.44325083162934 $216 $462 forward 7 unknown #
coedge $-1 $217 $452 $458 $463 forward $333 $-1 #
loop $-1 $-1 $452 $321 #
vertex $-1 $330 $464 #
vertex $-1 $218 $465 #
straight-curve $-1 43.053681449217351 15.852675575459294 8.9485460103370684 -1 0 0 I I #
coedge $-1 $337 $337 $-1 $466 reversed $221 $-1 #
edge $-1 $467 0 $467 6.2831853071796004 $222 $468 forward 7 unknown #
vertex $-1 $225 $469 #
ellipse-curve $-1 52.695534617231004 9.9890741803866021 6.5985721823882928 0.83867057594974714 0 0.54463902268945019 0.2723195113447251 0 -0.41933528797487357 1 I I #
coedge $-1 $341 $341 $-1 $470 reversed $228 $-1 #
edge $-1 $471 0 $471 6.2831853071796004 $229 $472 forward 7 unknown #
vertex $-1 $232 $473 #
ellipse-curve $-1 52.695534617231004 12.187924703538862 6.5985721823882928 0.83867057594974714 0 0.54463902268945019 0.2723195113447251 0 -0.41933528797487357 1 I I #
coedge $-1 $345 $345 $-1 $474 reversed $235 $-1 #
edge $-1 $475 0 $475 6.2831853071796004 $236 $476 forward 7 unknown #
vertex $-1 $239 $477 #
ellipse-curve $-1 52.695534617231004 14.386775226691121 6.5985721823882928 0.83867057594974714 0 0.54463902268945019 0.2723195113447251 0 -0.41933528797487357 1 I I #
face $-1 $-1 $255 $36 $-1 $478 reversed single #
loop $-1 $-1 $365 $240 #
plane-surface $-1 0 34.0581704808422 0 0 -1 0 0 0 -1 forward_v I I I I #
coedge $-1 $479 $363 $366 $480 forward $241 $-1 #
coedge $-1 $369 $243 $244 $357 reversed $152 $-1 #
coedge $-1 $363 $479 $243 $355 reversed $241 $-1 #
edge $-1 $370 -8.9485460103370702 $481 8.9485460103370702 $354 $482 forward 7 unknown #
coedge $-1 $245 $244 $479 $483 forward $97 $-1 #
edge $-1 $361 -54.221625415814692 $481 54.221625415814692 $353 $484 forward 7 unknown #
coedge $-1 $366 $365 $245 $359 reversed $350 $-1 #
edge $-1 $485 -54.221625415814692 $360 54.221625415814692 $358 $486 forward 7 unknown #
vertex $-1 $247 $487 #
vertex $-1 $372 $488 #
straight-curve $-1 54.221625415814692 0 -8.9485460103370702 0 -1 0 I I #
coedge $-1 $352 $354 $248 $364 reversed $241 $-1 #
edge $-1 $367 -34.0581704808422 $370 34.0581704808422 $363 $489 forward 7 unknown #
coedge $-1 $358 $249 $254 $373 forward $350 $-1 #
coedge $-1 $249 $358 $352 $480 reversed $350 $-1 #
vertex $-1 $250 $490 #
straight-curve $-1 0 34.0581704808422 8.9485460103370702 -1 0 0 I I #
coedge $-1 $251 $353 $253 $372 reversed $152 $-1 #
vertex $-1 $364 $491 #
straight-curve $-1 0 -34.0581704808422 8.9485460103370702 1 0 0 I I #
edge $-1 $256 -8.9485460103370702 $361 8.9485460103370702 $253 $492 forward 7 unknown #
edge $-1 $257 -8.9485460103370702 $360 8.9485460103370702 $254 $493 forward 7 unknown #
point $-1 54.221625415814692 -34.0581704808422 8.9485460103370702 #
point $-1 54.221625415814692 34.0581704808422 8.9485460103370702 #
face $-1 $-1 $272 $37 $-1 $494 reversed single #
loop $-1 $-1 $383 $259 #
plane-surface $-1 0 0 8.9485460103370702 0 0 1 1 0 0 forward_v I I I I #
coedge $-1 $495 $262 $267 $388 forward $160 $-1 #
coedge $-1 $262 $495 $496 $497 reversed $160 $-1 #
coedge $-1 $264 $263 $262 $382 reversed $101 $-1 #
edge $-1 $498 -5.2242730051685351 $393 -2.2242730051685351 $262 $499 forward 7 unknown #
coedge $-1 $496 $500 $264 $384 forward $377 $-1 #
edge $-1 $386 -54.221625415814692 $498 54.221625415814692 $383 $501 forward 7 unknown #
coedge $-1 $271 $265 $500 $502 reversed $272 $-1 #
vertex $-1 $266 $503 #
straight-curve $-1 54.221625415814692 -24.480208535818882 3.7242730051685351 0 0 1 I I #
edge $-1 $393 9.8456137816536113 $391 19.42357572667693 $379 $504 forward 7 unknown #
coedge $-1 $505 $268 $271 $395 reversed $260 $-1 #
coedge $-1 $268 $505 $495 $506 forward $260 $-1 #
vertex $-1 $269 $507 #
straight-curve $-1 0 -34.0581704808422 5.9485460103370702 1 0 0 I I #
vertex $-1 $388 $508 #
straight-curve $-1 0 -24.480208535818882 5.9485460103370702 1 0 0 I I #
edge $-1 $509 -8.9485460103370702 $273 -5.9485460103370702 $271 $510 forward 7 unknown #
point $-1 54.221625415814692 -34.0581704808422 5.9485460103370702 #
point $-1 54.221625415814692 -24.480208535818882 5.9485460103370702 #
loop $-1 $-1 $284 $276 #
plane-surface $-1 -54.221625415814692 0 0 1 0 0 0 0 -1 forward_v I I I I #
coedge $-1 $401 $279 $281 $405 reversed $168 $-1 #
coedge $-1 $279 $400 $511 $512 reversed $168 $-1 #
coedge $-1 $287 $282 $279 $403 forward $277 $-1 #
edge $-1 $406 -20.606142109755723 $513 -13.810767898078687 $402 $514 forward 7 unknown #
coedge $-1 $281 $280 $409 $515 reversed $105 $-1 #
edge $-1 $516 3.2418450280676821e-014 $406 10.357870268007277 $400 $517 forward 7 unknown #
vertex $-1 $283 $518 #
straight-curve $-1 -47.426251204137657 -1.1764735987377577 8.9485460103370684 0 1 0 I I #
coedge $-1 $511 $284 $287 $413 reversed $398 $-1 #
coedge $-1 $284 $511 $404 $515 forward $398 $-1 #
vertex $-1 $285 $519 #
straight-curve $-1 -54.221625415814692 -9.49487536746269 36.138267404845344 0 0 1 I I #
straight-curve $-1 -54.221625415814714 -9.49487536746269 1.1313620025153597 -0.65605901945558964 0 -0.75470958851134928 I I #
edge $-1 $513 -4.7889809725116592 $288 9.49487536746269 $408 $520 forward 7 unknown #
point $-1 -54.221625415814692 -9.49487536746269 8.9485460103370702 #
point $-1 -47.426251204137657 -9.49487536746269 8.9485460103370702 #
edge $-1 $521 1 $521 0 $291 $-1 forward 7 unknown #
vertex $-1 $292 $522 #
ellipse-curve $-1 -48.21420520545432 -5.4137735560414484 2.7713476873114007 -0.75470958851134928 0 0.65605901945558964 1.3121180389111793 0 1.5094191770226986 1 I I #
point $-1 -49.511820271064977 -5.4137735560414484 6.5493731834489104 #
edge $-1 $523 1 $523 0 $295 $-1 forward 7 unknown #
vertex $-1 $296 $524 #
ellipse-curve $-1 -48.21420520545432 0.7078791610904176 2.7713476873114007 -0.75470958851134928 0 0.65605901945558964 1.3121180389111793 0 1.5094191770226986 1 I I #
point $-1 -49.511820271064977 0.7078791610904176 6.5493731834489104 #
loop $-1 $-1 $306 $299 #
plane-surface $-1 -54.221625415814692 0 0 1 0 0 0 0 -1 forward_v I I I I #
coedge $-1 $525 $526 $303 $428 forward $300 $-1 #
coedge $-1 $303 $302 $433 $527 reversed $119 $-1 #
edge $-1 $430 7.0014980580986919 $528 17.359368326105937 $426 $529 forward 7 unknown #
coedge $-1 $309 $304 $526 $530 forward $190 $-1 #
vertex $-1 $530 $531 #
straight-curve $-1 -47.426251204137657 13.458121155427513 8.9485460103370684 0 1 0 I I #
coedge $-1 $532 $306 $309 $437 reversed $424 $-1 #
coedge $-1 $306 $532 $427 $527 forward $424 $-1 #
vertex $-1 $307 $533 #
straight-curve $-1 -54.221625415814692 19.774314140867851 36.138267404845344 0 0 1 I I #
straight-curve $-1 -54.221625415814714 19.774314140867851 1.1313620025153597 -0.65605901945558964 0 -0.75470958851134928 I I #
edge $-1 $534 -34.0581704808422 $310 -19.774314140867851 $432 $535 forward 7 unknown #
point $-1 -54.221625415814692 19.774314140867851 8.9485460103370702 #
point $-1 -47.426251204137657 19.774314140867851 8.9485460103370702 #
edge $-1 $536 1 $536 0 $313 $-1 forward 7 unknown #
vertex $-1 $314 $537 #
ellipse-curve $-1 -48.21420520545432 23.855415952289093 2.7713476873114007 -0.75470958851134928 0 0.65605901945558964 1.3121180389111793 0 1.5094191770226986 1 I I #
point $-1 -49.511820271064977 23.855415952289093 6.5493731834489104 #
edge $-1 $538 1 $538 0 $317 $-1 forward 7 unknown #
vertex $-1 $318 $539 #
ellipse-curve $-1 -48.21420520545432 29.977068669420952 2.7713476873114007 -0.75470958851134928 0 0.65605901945558964 1.3121180389111793 0 1.5094191770226986 1 I I #
point $-1 -49.511820271064977 29.977068669420952 6.5493731834489104 #
plane-surface $-1 0 0 8.9485460103370702 0 0 1 1 0 0 forward_v I I I I #
coedge $-1 $459 $458 $451 $540 forward $322 $-1 #
coedge $-1 $451 $324 $326 $455 reversed $212 $-1 #
coedge $-1 $324 $450 $449 $540 reversed $212 $-1 #
coedge $-1 $332 $327 $324 $453 forward $333 $-1 #
edge $-1 $456 8.1157623694299446 $541 11.167943966597342 $452 $542 forward 7 unknown #
coedge $-1 $326 $325 $459 $543 reversed $133 $-1 #
edge $-1 $544 -108.44325083162934 $456 -102.83920582197212 $450 $545 forward 7 unknown #
vertex $-1 $328 $546 #
straight-curve $-1 51.169443818647295 6.0939623517694308 8.9485460103370684 0 -1 0 I I #
coedge $-1 $449 $329 $332 $463 reversed $322 $-1 #
coedge $-1 $329 $449 $454 $543 forward $322 $-1 #
vertex $-1 $330 $547 #
straight-curve $-1 54.221625415814692 15.852675575459294 77.129594068735273 0 0 1 I I #
straight-curve $-1 -4.840800734390811 15.852675575459294 95.196761987265006 0.54463902268945019 0 -0.83867057594974714 I I #
edge $-1 $541 8.5231738316184291 $334 15.852675575459294 $458 $548 forward 7 unknown #
point $-1 54.221625415814692 15.852675575459294 8.9485460103370702 #
point $-1 51.169443818647295 15.852675575459294 8.9485460103370684 #
edge $-1 $549 1 $549 0 $337 $-1 forward 7 unknown #
vertex $-1 $338 $550 #
ellipse-curve $-1 51.856864041281227 9.9890741803866021 6.0539331596988228 0.83867057594974714 0 0.54463902268945019 0.2723195113447251 0 -0.41933528797487357 1 I I #
point $-1 52.967854128575702 9.9890741803866021 6.1792368944133997 #
edge $-1 $551 1 $551 0 $341 $-1 forward 7 unknown #
vertex $-1 $342 $552 #
ellipse-curve $-1 51.856864041281227 12.187924703538862 6.0539331596988228 0.83867057594974714 0 0.54463902268945019 0.2723195113447251 0 -0.41933528797487357 1 I I #
point $-1 52.967854128575702 12.187924703538862 6.1792368944133997 #
edge $-1 $553 1 $553 0 $345 $-1 forward 7 unknown #
vertex $-1 $346 $554 #
ellipse-curve $-1 51.856864041281227 14.386775226691121 6.0539331596988228 0.83867057594974714 0 0.54463902268945019 0.2723195113447251 0 -0.41933528797487357 1 I I #
point $-1 52.967854128575702 14.386775226691121 6.1792368944133997 #
plane-surface $-1 54.221625415814692 0 0 -1 0 0 0 0 1 forward_v I I I I #
coedge $-1 $354 $352 $356 $483 reversed $241 $-1 #
edge $-1 $367 -8.9485460103370702 $485 8.9485460103370702 $366 $555 forward 7 unknown #
vertex $-1 $483 $556 #
straight-curve $-1 -54.221625415814692 -34.0581704808422 0 0 0 -1 I I #
edge $-1 $481 -34.0581704808422 $485 34.0581704808422 $479 $557 forward 7 unknown #
straight-curve $-1 0 -34.0581704808422 -8.9485460103370702 -1 0 0 I I #
vertex $-1 $359 $558 #
straight-curve $-1 0 34.0581704808422 -8.9485460103370702 1 0 0 I I #
point $-1 54.221625415814692 34.0581704808422 -8.9485460103370702 #
point $-1 54.221625415814692 -34.0581704808422 -8.9485460103370702 #
straight-curve $-1 -54.221625415814692 0 8.9485460103370702 0 -1 0 I I #
point $-1 -54.221625415814692 34.0581704808422 8.9485460103370702 #
point $-1 -54.221625415814692 -34.0581704808422 8.9485460103370702 #
straight-curve $-1 54.221625415814692 -34.0581704808422 0 0 0 -1 I I #
straight-curve $-1 54.221625415814692 34.0581704808422 0 0 0 -1 I I #
plane-surface $-1 54.221625415814692 0 0 -1 0 0 0 0 1 forward_v I I I I #
coedge $-1 $380 $379 $390 $506 reversed $160 $-1 #
coedge $-1 $559 $383 $380 $497 forward $377 $-1 #
edge $-1 $498 24.480208535818882 $560 34.0581704808422 $380 $561 forward 7 unknown #
vertex $-1 $497 $562 #
straight-curve $-1 -54.221625415814692 -24.480208535818882 3.7242730051685351 0 0 -1 I I #
coedge $-1 $383 $559 $385 $502 forward $377 $-1 #
straight-curve $-1 0 -24.480208535818882 8.9485460103370702 -1 0 0 I I #
edge $-1 $509 -34.0581704808422 $386 -24.480208535818882 $385 $563 forward 7 unknown #
point $-1 54.221625415814692 -24.480208535818882 8.9485460103370702 #
straight-curve $-1 -54.221625415814692 -14.634594754165271 5.9485460103370702 0 -1 0 I I #
coedge $-1 $390 $389 $559 $564 reversed $260 $-1 #
edge $-1 $560 -8.9485460103370702 $391 -5.9485460103370702 $495 $565 forward 7 unknown #
point $-1 -54.221625415814692 -34.0581704808422 5.9485460103370702 #
point $-1 -54.221625415814692 -24.480208535818882 5.9485460103370702 #
vertex $-1 $502 $566 #
straight-curve $-1 54.221625415814692 -34.0581704808422 0 0 0 -1 I I #
coedge $-1 $409 $408 $401 $512 forward $398 $-1 #
edge $-1 $513 27.189721394508275 $516 35.006905402329963 $511 $567 forward 7 unknown #
vertex $-1 $413 $568 #
straight-curve $-1 -68.03239331389338 4.7889809725116592 8.9485460103370684 -1 0 0 I I #
edge $-1 $516 -5.9654545712494169 $410 8.3184017687249323 $409 $569 forward 7 unknown #
vertex $-1 $515 $570 #
straight-curve $-1 -54.221625415814714 4.7889809725116592 1.1313620025153597 0.65605901945558964 0 0.75470958851134928 I I #
point $-1 -47.426251204137657 4.7889809725116592 8.9485460103370702 #
point $-1 -54.221625415814692 -9.49487536746269 1.1313620025153841 #
straight-curve $-1 -54.221625415814692 0 8.9485460103370702 0 -1 0 I I #
vertex $-1 $416 $571 #
point $-1 -46.90208716654314 -5.4137735560414484 4.2807668643340993 #
vertex $-1 $420 $572 #
point $-1 -46.90208716654314 0.7078791610904176 4.2807668643340993 #
coedge $-1 $526 $426 $532 $573 reversed $300 $-1 #
coedge $-1 $426 $525 $429 $530 reversed $300 $-1 #
edge $-1 $528 -20.600049325414687 $434 -6.3161929854403382 $433 $574 forward 7 unknown #
vertex $-1 $428 $575 #
straight-curve $-1 -42.832855253421215 34.0581704808422 14.232643728727746 -0.65605901945558975 0 -0.75470958851134939 I I #
edge $-1 $430 47.426251204137657 $534 54.221625415814692 $526 $576 forward 7 unknown #
point $-1 -47.426251204137657 34.0581704808422 8.9485460103370702 #
coedge $-1 $433 $432 $525 $573 forward $424 $-1 #
point $-1 -54.221625415814692 19.774314140867851 1.1313620025153841 #
vertex $-1 $530 $577 #
straight-curve $-1 -54.221625415814692 0 8.9485460103370702 0 -1 0 I I #
vertex $-1 $440 $578 #
point $-1 -46.90208716654314 23.855415952289093 4.2807668643340993 #
vertex $-1 $444 $579 #
point $-1 -46.90208716654314 29.977068669420952 4.2807668643340993 #
edge $-1 $541 68.181048058398204 $544 72.880995714295736 $449 $580 forward 7 unknown #
vertex $-1 $463 $581 #
straight-curve $-1 43.053681449217351 8.5231738316184291 8.9485460103370684 1 0 0 I I #
edge $-1 $544 2.4292114798489983 $460 9.7587132236898633 $459 $582 forward 7 unknown #
vertex $-1 $543 $583 #
straight-curve $-1 -4.840800734390811 8.5231738316184291 95.196761987265006 -0.54463902268945019 0 0.83867057594974714 I I #
point $-1 51.169443818647295 8.5231738316184291 8.9485460103370684 #
point $-1 54.221625415814692 15.852675575459294 4.2485983544395367 #
straight-curve $-1 54.221625415814692 0 8.9485460103370702 0 1 0 I I #
vertex $-1 $466 $584 #
point $-1 52.129183552625953 9.9890741803866021 5.6345978717239493 #
vertex $-1 $470 $585 #
point $-1 52.129183552625953 12.187924703538862 5.6345978717239493 #
vertex $-1 $474 $586 #
point $-1 52.129183552625953 14.386775226691121 5.6345978717239493 #
straight-curve $-1 -54.221625415814692 34.0581704808422 0 0 0 -1 I I #
point $-1 -54.221625415814692 -34.0581704808422 -8.9485460103370702 #
straight-curve $-1 -54.221625415814692 0 -8.9485460103370702 0 1 0 I I #
point $-1 -54.221625415814692 34.0581704808422 -8.9485460103370702 #
coedge $-1 $500 $496 $505 $564 forward $377 $-1 #
vertex $-1 $497 $587 #
straight-curve $-1 -54.221625415814692 0 8.9485460103370702 0 -1 0 I I #
point $-1 -54.221625415814692 -24.480208535818882 8.9485460103370702 #
straight-curve $-1 54.221625415814692 0 8.9485460103370702 0 1 0 I I #
edge $-1 $560 -54.221625415814692 $509 54.221625415814692 $505 $588 forward 7 unknown #
straight-curve $-1 -54.221625415814692 -34.0581704808422 0 0 0 -1 I I #
point $-1 54.221625415814692 -34.0581704808422 8.9485460103370702 #
straight-curve $-1 -54.221625415814692 4.7889809725116592 36.138267404845344 0 0 -1 I I #
point $-1 -54.221625415814692 4.7889809725116592 8.9485460103370702 #
straight-curve $-1 -54.221625415814692 -1.1764735987377577 1.1313620025153803 0 -1 0 I I #
point $-1 -54.221625415814692 4.7889809725116592 1.1313620025153841 #
point $-1 -46.704786028431627 -5.4137735560414484 1.4592296484002216 #
point $-1 -46.704786028431627 0.7078791610904176 1.4592296484002216 #
edge $-1 $534 -8.9485460103370702 $528 -1.1313620025153841 $525 $589 forward 7 unknown #
straight-curve $-1 -54.221625415814692 13.458121155427513 1.1313620025153803 0 -1 0 I I #
point $-1 -54.221625415814692 34.0581704808422 1.1313620025153841 #
straight-curve $-1 0 34.0581704808422 8.9485460103370702 -1 0 0 I I #
point $-1 -54.221625415814692 34.0581704808422 8.9485460103370702 #
point $-1 -46.704786028431627 23.855415952289093 1.4592296484002216 #
point $-1 -46.704786028431627 29.977068669420952 1.4592296484002216 #
straight-curve $-1 54.221625415814692 8.5231738316184291 77.129594068735273 0 0 -1 I I #
point $-1 54.221625415814692 8.5231738316184291 8.9485460103370702 #
straight-curve $-1 54.221625415814685 6.0939623517694308 4.2485983544395367 0 1 0 I I #
point $-1 54.221625415814692 8.5231738316184291 4.2485983544395367 #
point $-1 51.437528753306353 9.9890741803866021 5.7816136483540985 #
point $-1 51.437528753306353 12.187924703538862 5.7816136483540985 #
point $-1 51.437528753306353 14.386775226691121 5.7816136483540985 #
point $-1 -54.221625415814692 -34.0581704808422 8.9485460103370702 #
straight-curve $-1 0 -34.0581704808422 8.9485460103370702 1 0 0 I I #
straight-curve $-1 -54.221625415814692 34.0581704808422 0 0 0 -1 I I #
End-of-ACIS-data 