500 0 6 0           
7 Unknown 11 ACIS 5.0 NT 24 Thu Mar 25 15:10:24 1999 
-1 9.9999999999999995e-007 1e-010 
body $-1 $6 $-1 $7 #
body $-1 $8 $-1 $9 #
body $-1 $10 $-1 $11 #
body $-1 $12 $-1 $13 #
body $-1 $14 $-1 $15 #
body $-1 $16 $-1 $17 #
lump $-1 $-1 $18 $0 #
transform $-1 1 0 0 0 1 0 0 0 1 53.779717398602251 28.206819215693788 10.472170083399703 1 rotate no_reflect no_shear #
lump $-1 $-1 $19 $1 #
transform $-1 1 0 0 0 1 0 0 0 1 53.779717398602251 28.206819215693788 10.472170083399703 1 rotate no_reflect no_shear #
lump $-1 $-1 $20 $2 #
transform $-1 1 0 0 0 1 0 0 0 1 53.779717398602251 28.206819215693788 10.472170083399703 1 rotate no_reflect no_shear #
lump $-1 $-1 $21 $3 #
transform $-1 1 0 0 0 1 0 0 0 1 53.779717398602251 28.206819215693788 10.472170083399703 1 rotate no_reflect no_shear #
lump $-1 $-1 $22 $4 #
transform $-1 1 0 0 0 1 0 0 0 1 53.779717398602251 28.206819215693788 10.472170083399703 1 rotate no_reflect no_shear #
lump $-1 $-1 $23 $5 #
transform $-1 1 0 0 0 1 0 0 0 1 53.779717398602251 28.206819215693788 10.472170083399703 1 rotate no_reflect no_shear #
shell $-1 $-1 $-1 $24 $-1 $6 #
shell $-1 $-1 $-1 $25 $-1 $8 #
shell $-1 $-1 $-1 $26 $-1 $10 #
shell $-1 $-1 $-1 $27 $-1 $12 #
shell $-1 $-1 $-1 $28 $-1 $14 #
shell $-1 $-1 $-1 $29 $-1 $16 #
face $-1 $30 $31 $18 $-1 $32 forward single #
face $-1 $33 $34 $19 $-1 $35 reversed single #
face $-1 $36 $37 $20 $-1 $38 reversed single #
face $-1 $39 $40 $21 $-1 $41 forward single #
face $-1 $42 $43 $22 $-1 $44 reversed single #
face $-1 $45 $46 $23 $-1 $47 forward single #
face $-1 $48 $49 $18 $-1 $50 reversed single #
loop $-1 $-1 $51 $24 #
plane-surface $-1 0 0 10.472170083399703 0 0 1 1 0 0 forward_v I I I I #
face $-1 $52 $53 $19 $-1 $54 reversed single #
loop $-1 $-1 $55 $25 #
plane-surface $-1 0 -21.720743712093537 7.0055228805847793 0 0 1 1 0 0 forward_v I I I I #
face $-1 $56 $57 $20 $-1 $58 reversed single #
loop $-1 $-1 $59 $26 #
plane-surface $-1 40.52228362253512 10.749936841463537 152.81818200652853 0 -1 0 -0.64278761758704617 0 -0.76604443648966558 forward_v I I I I #
face $-1 $60 $61 $21 $-1 $62 forward single #
loop $-1 $63 $64 $27 #
cone-surface $-1 46.011981521534445 5.1868401567195512 3.145518751290437 -0.64278761758704617 0 -0.76604443648966558 1.5320888729793312 0 -1.2855752351740923 1 I I 0 1 2 forward I I I I #
face $-1 $65 $66 $22 $-1 $67 reversed single #
loop $-1 $-1 $68 $28 #
plane-surface $-1 -122.91759024090658 -0.37625652802443454 83.680309164224212 0 1 0 -0.64278761758704617 0 0.76604443648966558 forward_v I I I I #
face $-1 $69 $70 $23 $-1 $71 forward single #
loop $-1 $72 $73 $29 #
cone-surface $-1 -46.011981521534437 5.1868401567195512 3.1455187512904246 0.64278761758704617 0 -0.76604443648966558 1.5320888729793312 0 1.2855752351740923 1 I I 0 1 2 forward I I I I #
face $-1 $74 $75 $18 $-1 $76 reversed single #
loop $-1 $-1 $77 $30 #
plane-surface $-1 0 0 -10.472170083399703 0 0 1 1 0 0 forward_v I I I I #
coedge $-1 $78 $79 $80 $81 forward $31 $-1 #
face $-1 $82 $83 $19 $-1 $84 reversed single #
loop $-1 $-1 $85 $33 #
plane-surface $-1 0 -15.234668208493286 8.7388464819922405 0 -1 0 0 0 -1 forward_v I I I I #
coedge $-1 $86 $87 $88 $89 reversed $34 $-1 #
face $-1 $90 $91 $20 $-1 $92 reversed single #
loop $-1 $-1 $93 $36 #
plane-surface $-1 -28.615589219769198 5.1868401567195512 70.422875388157081 0.64278761758704617 0 0.76604443648966558 0.76604443648966558 0 -0.64278761758704617 forward_v I I I I #
coedge $-1 $94 $95 $96 $97 reversed $37 $-1 #
face $-1 $-1 $98 $21 $-1 $99 forward single #
loop $-1 $100 $101 $39 #
cone-surface $-1 43.075877871536328 5.1868401567195512 -0.35359324853503438 -0.64278761758704617 0 -0.76604443648966558 0.76604443648966558 0 -0.64278761758704617 1 I I -0.70710678118654746 0.70710678118654746 1 forward I I I I #
loop $-1 $-1 $102 $27 #
coedge $-1 $64 $64 $103 $104 reversed $40 $-1 #
face $-1 $105 $106 $22 $-1 $107 reversed single #
loop $-1 $-1 $108 $42 #
plane-surface $-1 -53.779717398602259 5.1868401567195512 1.2850025458527625 -0.64278761758704617 0 0.76604443648966558 0.76604443648966558 0 0.64278761758704617 forward_v I I I I #
coedge $-1 $109 $110 $111 $112 reversed $43 $-1 #
face $-1 $-1 $113 $23 $-1 $114 forward single #
loop $-1 $115 $116 $45 #
cone-surface $-1 -43.075877871536321 5.1868401567195512 -0.35359324853504681 0.64278761758704617 0 -0.76604443648966558 0.76604443648966558 0 0.64278761758704617 1 I I -0.70710678118654746 0.70710678118654746 1 forward I I I I #
loop $-1 $-1 $117 $29 #
coedge $-1 $73 $73 $118 $119 reversed $46 $-1 #
face $-1 $120 $121 $18 $-1 $122 reversed single #
loop $-1 $-1 $123 $48 #
plane-surface $-1 0 -28.206819215693788 0 0 1 0 0 0 1 forward_v I I I I #
coedge $-1 $124 $125 $126 $127 forward $49 $-1 #
coedge $-1 $128 $51 $129 $130 forward $31 $-1 #
coedge $-1 $51 $128 $131 $132 forward $31 $-1 #
coedge $-1 $133 $134 $51 $81 reversed $135 $-1 #
edge $-1 $136 -28.206819215693788 $137 28.206819215693788 $80 $138 forward 7 unknown #
face $-1 $139 $140 $19 $-1 $141 reversed single #
loop $-1 $-1 $142 $52 #
plane-surface $-1 -53.779717398602251 0 0 1 0 0 0 0 -1 forward_v I I I I #
coedge $-1 $143 $144 $145 $146 reversed $53 $-1 #
coedge $-1 $147 $55 $148 $149 reversed $34 $-1 #
coedge $-1 $55 $147 $143 $150 forward $34 $-1 #
coedge $-1 $145 $151 $55 $89 forward $152 $-1 #
edge $-1 $153 -17.346447359647019 $154 -4.3742963524465175 $88 $155 forward 7 unknown #
face $-1 $156 $157 $20 $-1 $158 reversed single #
loop $-1 $-1 $159 $56 #
plane-surface $-1 40.52228362253512 -0.37625652802443454 152.81818200652853 0 1 0 0.64278761758704617 0 0.76604443648966558 forward_v I I I I #
coedge $-1 $160 $161 $162 $163 reversed $57 $-1 #
coedge $-1 $95 $59 $164 $165 reversed $37 $-1 #
coedge $-1 $59 $94 $160 $166 reversed $37 $-1 #
coedge $-1 $162 $167 $59 $97 forward $168 $-1 #
edge $-1 $169 -33.518575587334695 $170 -22.569735898021232 $96 $171 forward 7 unknown #
loop $-1 $-1 $103 $60 #
plane-surface $-1 -28.615589219769198 5.1868401567195512 70.422875388157081 0.64278761758704617 0 0.76604443648966558 0.76604443648966558 0 -0.64278761758704617 forward_v I I I I #
loop $-1 $-1 $172 $39 #
coedge $-1 $101 $101 $102 $173 reversed $61 $-1 #
coedge $-1 $102 $102 $101 $173 forward $63 $-1 #
coedge $-1 $103 $103 $64 $104 forward $98 $-1 #
edge $-1 $174 0 $174 6.2831853071796004 $103 $175 forward 7 unknown #
face $-1 $176 $177 $22 $-1 $178 forward single #
loop $-1 $-1 $179 $65 #
plane-surface $-1 -122.91759024090658 10.749936841463537 83.680309164224212 0 -1 0 0.64278761758704617 0 -0.76604443648966558 forward_v I I I I #
coedge $-1 $180 $181 $182 $183 reversed $66 $-1 #
coedge $-1 $110 $68 $184 $185 reversed $43 $-1 #
coedge $-1 $68 $109 $180 $186 reversed $43 $-1 #
coedge $-1 $182 $187 $68 $112 forward $177 $-1 #
edge $-1 $188 7.6790777218510371 $189 18.627917411164489 $111 $190 forward 7 unknown #
loop $-1 $-1 $118 $69 #
plane-surface $-1 -53.779717398602259 5.1868401567195512 1.2850025458527625 -0.64278761758704617 0 0.76604443648966558 0.76604443648966558 0 0.64278761758704617 forward_v I I I I #
loop $-1 $-1 $191 $45 #
coedge $-1 $116 $116 $117 $192 reversed $70 $-1 #
coedge $-1 $117 $117 $116 $192 forward $72 $-1 #
coedge $-1 $118 $118 $73 $119 forward $113 $-1 #
edge $-1 $193 0 $193 6.2831853071796004 $118 $194 forward 7 unknown #
face $-1 $195 $196 $18 $-1 $197 reversed single #
loop $-1 $-1 $198 $74 #
plane-surface $-1 -53.779717398602251 0 0 1 0 0 0 0 -1 forward_v I I I I #
coedge $-1 $199 $131 $200 $201 forward $75 $-1 #
coedge $-1 $202 $77 $199 $203 forward $49 $-1 #
coedge $-1 $77 $202 $204 $205 forward $49 $-1 #
coedge $-1 $134 $133 $77 $127 reversed $135 $-1 #
edge $-1 $206 -28.206819215693788 $207 28.206819215693788 $126 $208 forward 7 unknown #
coedge $-1 $79 $78 $209 $210 forward $31 $-1 #
coedge $-1 $211 $212 $78 $130 reversed $196 $-1 #
edge $-1 $137 -53.779717398602251 $213 53.779717398602251 $129 $214 forward 7 unknown #
coedge $-1 $123 $215 $79 $132 reversed $75 $-1 #
edge $-1 $216 -53.779717398602251 $136 53.779717398602251 $131 $217 forward 7 unknown #
coedge $-1 $126 $80 $215 $218 forward $135 $-1 #
coedge $-1 $80 $126 $211 $219 reversed $135 $-1 #
loop $-1 $-1 $133 $195 #
vertex $-1 $81 $220 #
vertex $-1 $81 $221 #
straight-curve $-1 53.779717398602251 0 10.472170083399703 0 1 0 I I #
face $-1 $222 $223 $19 $-1 $224 forward single #
loop $-1 $-1 $148 $82 #
plane-surface $-1 0 -28.206819215693788 0 0 1 0 0 0 1 forward_v I I I I #
coedge $-1 $225 $226 $227 $228 forward $83 $-1 #
coedge $-1 $227 $85 $87 $150 reversed $53 $-1 #
coedge $-1 $85 $227 $229 $230 reversed $53 $-1 #
coedge $-1 $231 $88 $85 $146 forward $152 $-1 #
edge $-1 $154 2.6360996395886591 $232 6.1027468424035813 $145 $233 forward 7 unknown #
coedge $-1 $87 $86 $225 $234 reversed $34 $-1 #
coedge $-1 $235 $236 $86 $149 forward $140 $-1 #
edge $-1 $237 -53.779717398602251 $153 53.779717398602251 $148 $238 forward 7 unknown #
edge $-1 $239 -53.779717398602251 $154 53.779717398602251 $143 $240 forward 7 unknown #
coedge $-1 $88 $231 $235 $241 forward $152 $-1 #
loop $-1 $-1 $145 $222 #
vertex $-1 $149 $242 #
vertex $-1 $89 $243 #
straight-curve $-1 53.779717398602251 -10.860371856046768 7.0055228805847793 0 1 0 I I #
face $-1 $-1 $168 $20 $-1 $244 forward single #
loop $-1 $-1 $245 $90 #
plane-surface $-1 53.779717398602251 0 0 -1 0 0 0 0 1 forward_v I I I I #
coedge $-1 $246 $247 $248 $249 reversed $91 $-1 #
coedge $-1 $250 $93 $95 $166 forward $57 $-1 #
coedge $-1 $93 $250 $246 $251 forward $57 $-1 #
coedge $-1 $248 $96 $93 $163 forward $168 $-1 #
edge $-1 $170 -8.1565167631037614 $252 2.9696766063842102 $162 $253 forward 7 unknown #
coedge $-1 $254 $255 $94 $165 forward $157 $-1 #
edge $-1 $256 -75.124088457411503 $169 -65.936920919864562 $164 $257 forward 7 unknown #
edge $-1 $170 93.266739533355832 $256 107.5594347972045 $95 $258 forward 7 unknown #
coedge $-1 $96 $248 $254 $259 forward $168 $-1 #
loop $-1 $-1 $248 $156 #
vertex $-1 $165 $260 #
vertex $-1 $97 $261 #
straight-curve $-1 20.26114181126756 10.749936841463537 10.472170083399703 -1 0 0 I I #
coedge $-1 $172 $172 $-1 $262 reversed $100 $-1 #
edge $-1 $263 0 $263 6.2831853071796004 $101 $264 forward 7 unknown #
vertex $-1 $104 $265 #
ellipse-curve $-1 48.305297553945515 5.1868401567195512 5.8785863146262365 0.64278761758704617 0 0.76604443648966558 1.5320888729793312 0 -1.2855752351740923 1 I I #
face $-1 $-1 $266 $22 $-1 $267 reversed single #
loop $-1 $-1 $111 $105 #
plane-surface $-1 0 0 10.472170083399703 0 0 1 1 0 0 forward_v I I I I #
coedge $-1 $268 $269 $270 $271 reversed $106 $-1 #
coedge $-1 $272 $108 $110 $186 forward $66 $-1 #
coedge $-1 $108 $272 $268 $273 forward $66 $-1 #
coedge $-1 $270 $111 $108 $183 forward $177 $-1 #
edge $-1 $189 -2.9696766063842102 $274 8.1565167631037614 $182 $275 forward 7 unknown #
coedge $-1 $276 $277 $109 $185 forward $266 $-1 #
edge $-1 $278 -40.555152036259337 $188 -31.367984498712403 $184 $279 forward 7 unknown #
edge $-1 $189 -14.29269526384866 $278 -9.2967162063127932e-015 $110 $280 forward 7 unknown #
coedge $-1 $111 $270 $276 $281 forward $177 $-1 #
vertex $-1 $185 $282 #
vertex $-1 $112 $283 #
straight-curve $-1 -61.458795120453289 -0.37625652802443454 10.472170083399703 1 0 0 I I #
coedge $-1 $191 $191 $-1 $284 reversed $115 $-1 #
edge $-1 $285 0 $285 6.2831853071796004 $116 $286 forward 7 unknown #
vertex $-1 $119 $287 #
ellipse-curve $-1 -48.305297553945522 5.1868401567195512 5.87858631462624 -0.64278761758704617 0 0.76604443648966558 1.5320888729793312 0 1.2855752351740923 1 I I #
face $-1 $-1 $135 $18 $-1 $288 reversed single #
loop $-1 $-1 $211 $120 #
plane-surface $-1 0 28.206819215693788 0 0 -1 0 0 0 -1 forward_v I I I I #
coedge $-1 $289 $209 $212 $290 forward $121 $-1 #
coedge $-1 $215 $123 $124 $203 reversed $75 $-1 #
coedge $-1 $209 $289 $123 $201 reversed $121 $-1 #
edge $-1 $216 -10.472170083399703 $291 10.472170083399703 $200 $292 forward 7 unknown #
coedge $-1 $125 $124 $289 $293 forward $49 $-1 #
edge $-1 $207 -53.779717398602251 $291 53.779717398602251 $199 $294 forward 7 unknown #
coedge $-1 $212 $211 $125 $205 reversed $196 $-1 #
edge $-1 $295 -53.779717398602251 $206 53.779717398602251 $204 $296 forward 7 unknown #
vertex $-1 $127 $297 #
vertex $-1 $218 $298 #
straight-curve $-1 53.779717398602251 0 -10.472170083399703 0 -1 0 I I #
coedge $-1 $198 $200 $128 $210 reversed $121 $-1 #
edge $-1 $213 -28.206819215693788 $216 28.206819215693788 $209 $299 forward 7 unknown #
coedge $-1 $204 $129 $134 $219 forward $196 $-1 #
coedge $-1 $129 $204 $198 $290 reversed $196 $-1 #
vertex $-1 $130 $300 #
straight-curve $-1 0 28.206819215693788 10.472170083399703 -1 0 0 I I #
coedge $-1 $131 $199 $133 $218 reversed $75 $-1 #
vertex $-1 $210 $301 #
straight-curve $-1 0 -28.206819215693788 10.472170083399703 1 0 0 I I #
edge $-1 $136 -10.472170083399703 $207 10.472170083399703 $133 $302 forward 7 unknown #
edge $-1 $137 -10.472170083399703 $206 10.472170083399703 $134 $303 forward 7 unknown #
point $-1 53.779717398602251 -28.206819215693788 10.472170083399703 #
point $-1 53.779717398602251 28.206819215693788 10.472170083399703 #
face $-1 $-1 $152 $19 $-1 $304 reversed single #
loop $-1 $-1 $229 $139 #
plane-surface $-1 0 0 10.472170083399703 0 0 1 1 0 0 forward_v I I I I #
coedge $-1 $305 $142 $147 $234 forward $83 $-1 #
coedge $-1 $142 $305 $306 $307 reversed $83 $-1 #
coedge $-1 $144 $143 $142 $228 reversed $53 $-1 #
edge $-1 $308 -6.1027468424035813 $239 -2.6360996395886591 $142 $309 forward 7 unknown #
coedge $-1 $306 $310 $144 $230 forward $223 $-1 #
edge $-1 $232 -53.779717398602251 $308 53.779717398602251 $229 $311 forward 7 unknown #
coedge $-1 $151 $145 $310 $312 reversed $152 $-1 #
vertex $-1 $146 $313 #
straight-curve $-1 53.779717398602251 -15.234668208493286 4.3694232409961202 0 0 1 I I #
edge $-1 $239 4.3742963524465175 $237 17.346447359647019 $225 $314 forward 7 unknown #
coedge $-1 $315 $148 $151 $241 reversed $140 $-1 #
coedge $-1 $148 $315 $305 $316 forward $140 $-1 #
vertex $-1 $149 $317 #
straight-curve $-1 0 -28.206819215693788 7.0055228805847793 1 0 0 I I #
vertex $-1 $234 $318 #
straight-curve $-1 0 -15.234668208493286 7.0055228805847793 1 0 0 I I #
edge $-1 $319 -10.472170083399703 $153 -7.0055228805847793 $151 $320 forward 7 unknown #
point $-1 53.779717398602251 -28.206819215693788 7.0055228805847793 #
point $-1 53.779717398602251 -15.234668208493286 7.0055228805847793 #
plane-surface $-1 0 0 10.472170083399703 0 0 1 1 0 0 forward_v I I I I #
coedge $-1 $255 $254 $247 $321 forward $157 $-1 #
coedge $-1 $247 $159 $161 $251 reversed $91 $-1 #
coedge $-1 $159 $246 $245 $321 reversed $91 $-1 #
coedge $-1 $167 $162 $159 $249 forward $168 $-1 #
edge $-1 $252 22.569735898021232 $322 33.518575587334695 $248 $323 forward 7 unknown #
coedge $-1 $161 $160 $255 $324 reversed $57 $-1 #
edge $-1 $325 -107.5594347972045 $252 -93.266739533355832 $246 $326 forward 7 unknown #
vertex $-1 $163 $327 #
straight-curve $-1 42.830877709288785 2.5934200783597756 10.472170083399703 0 -1 0 I I #
coedge $-1 $245 $164 $167 $259 reversed $157 $-1 #
coedge $-1 $164 $245 $250 $324 forward $157 $-1 #
vertex $-1 $165 $328 #
straight-curve $-1 53.779717398602251 10.749936841463537 76.409091003264265 0 0 1 I I #
straight-curve $-1 -28.615589219769198 10.749936841463537 70.422875388157081 0.76604443648966558 0 -0.64278761758704617 I I #
edge $-1 $322 -0.37625652802443454 $169 10.749936841463537 $254 $329 forward 7 unknown #
point $-1 53.779717398602251 10.749936841463537 10.472170083399703 #
point $-1 42.830877709288792 10.749936841463537 10.472170083399703 #
edge $-1 $330 1 $330 0 $172 $-1 forward 7 unknown #
vertex $-1 $173 $331 #
ellipse-curve $-1 43.718665489123374 5.1868401567195512 0.4124511879546312 0.64278761758704617 0 0.76604443648966558 1.5320888729793312 0 -1.2855752351740923 1 I I #
point $-1 49.837386426924851 5.1868401567195512 4.5930110794521504 #
loop $-1 $-1 $184 $176 #
plane-surface $-1 -53.779717398602251 0 0 1 0 0 0 0 -1 forward_v I I I I #
coedge $-1 $269 $179 $181 $273 reversed $106 $-1 #
coedge $-1 $179 $268 $332 $333 reversed $106 $-1 #
coedge $-1 $187 $182 $179 $271 forward $177 $-1 #
edge $-1 $274 -18.627917411164489 $334 -7.6790777218510371 $270 $335 forward 7 unknown #
coedge $-1 $181 $180 $277 $336 reversed $66 $-1 #
edge $-1 $337 9.2967162063127932e-015 $274 14.29269526384866 $268 $338 forward 7 unknown #
vertex $-1 $183 $339 #
straight-curve $-1 -42.830877709288792 2.5934200783597756 10.472170083399703 0 1 0 I I #
coedge $-1 $332 $184 $187 $281 reversed $266 $-1 #
coedge $-1 $184 $332 $272 $336 forward $266 $-1 #
vertex $-1 $185 $340 #
straight-curve $-1 -53.779717398602251 -0.37625652802443454 41.840154582112106 0 0 1 I I #
straight-curve $-1 -53.779717398602259 -0.37625652802443454 1.2850025458527625 -0.76604443648966558 0 -0.64278761758704617 I I #
edge $-1 $334 -10.749936841463537 $188 0.37625652802443454 $276 $341 forward 7 unknown #
point $-1 -53.779717398602251 -0.37625652802443454 10.472170083399703 #
point $-1 -42.830877709288799 -0.37625652802443454 10.472170083399703 #
edge $-1 $342 1 $342 0 $191 $-1 forward 7 unknown #
vertex $-1 $192 $343 #
ellipse-curve $-1 -43.718665489123367 5.1868401567195512 0.41245118795461877 -0.64278761758704617 0 0.76604443648966558 1.5320888729793312 0 1.2855752351740923 1 I I #
point $-1 -46.773208680966178 5.1868401567195512 7.1641615498003226 #
plane-surface $-1 53.779717398602251 0 0 -1 0 0 0 0 1 forward_v I I I I #
coedge $-1 $200 $198 $202 $293 reversed $121 $-1 #
edge $-1 $213 -10.472170083399703 $295 10.472170083399703 $212 $344 forward 7 unknown #
vertex $-1 $293 $345 #
straight-curve $-1 -53.779717398602251 -28.206819215693788 0 0 0 -1 I I #
edge $-1 $291 -28.206819215693788 $295 28.206819215693788 $289 $346 forward 7 unknown #
straight-curve $-1 0 -28.206819215693788 -10.472170083399703 -1 0 0 I I #
vertex $-1 $205 $347 #
straight-curve $-1 0 28.206819215693788 -10.472170083399703 1 0 0 I I #
point $-1 53.779717398602251 28.206819215693788 -10.472170083399703 #
point $-1 53.779717398602251 -28.206819215693788 -10.472170083399703 #
straight-curve $-1 -53.779717398602251 0 10.472170083399703 0 -1 0 I I #
point $-1 -53.779717398602251 28.206819215693788 10.472170083399703 #
point $-1 -53.779717398602251 -28.206819215693788 10.472170083399703 #
straight-curve $-1 53.779717398602251 -28.206819215693788 0 0 0 -1 I I #
straight-curve $-1 53.779717398602251 28.206819215693788 0 0 0 -1 I I #
plane-surface $-1 53.779717398602251 0 0 -1 0 0 0 0 1 forward_v I I I I #
coedge $-1 $226 $225 $236 $316 reversed $83 $-1 #
coedge $-1 $348 $229 $226 $307 forward $223 $-1 #
edge $-1 $308 15.234668208493286 $349 28.206819215693788 $226 $350 forward 7 unknown #
vertex $-1 $307 $351 #
straight-curve $-1 -53.779717398602251 -15.234668208493286 4.3694232409961202 0 0 -1 I I #
coedge $-1 $229 $348 $231 $312 forward $223 $-1 #
straight-curve $-1 0 -15.234668208493286 10.472170083399703 -1 0 0 I I #
edge $-1 $319 -28.206819215693788 $232 -15.234668208493286 $231 $352 forward 7 unknown #
point $-1 53.779717398602251 -15.234668208493286 10.472170083399702 #
straight-curve $-1 -53.779717398602251 -10.860371856046768 7.0055228805847793 0 -1 0 I I #
coedge $-1 $236 $235 $348 $353 reversed $140 $-1 #
edge $-1 $349 -10.472170083399703 $237 -7.0055228805847793 $305 $354 forward 7 unknown #
point $-1 -53.779717398602251 -28.206819215693788 7.0055228805847793 #
point $-1 -53.779717398602251 -15.234668208493286 7.0055228805847793 #
vertex $-1 $312 $355 #
straight-curve $-1 53.779717398602251 -28.206819215693788 0 0 0 -1 I I #
edge $-1 $322 65.936920919864562 $325 75.124088457411503 $245 $356 forward 7 unknown #
vertex $-1 $259 $357 #
straight-curve $-1 20.26114181126756 -0.37625652802443454 10.472170083399703 1 0 0 I I #
edge $-1 $325 -2.9696766063842102 $256 8.1565167631037614 $255 $358 forward 7 unknown #
vertex $-1 $324 $359 #
straight-curve $-1 -28.615589219769198 -0.37625652802443454 70.422875388157081 -0.76604443648966558 0 0.64278761758704617 I I #
point $-1 42.830877709288792 -0.37625652802443454 10.472170083399703 #
point $-1 53.779717398602251 10.749936841463537 1.2850025458527625 #
straight-curve $-1 53.779717398602251 0 10.472170083399703 0 1 0 I I #
vertex $-1 $262 $360 #
point $-1 45.250754362102704 5.1868401567195512 -0.87312404721946113 #
coedge $-1 $277 $276 $269 $333 forward $266 $-1 #
edge $-1 $334 31.367984498712403 $337 40.555152036259337 $332 $361 forward 7 unknown #
vertex $-1 $281 $362 #
straight-curve $-1 -61.458795120453289 10.749936841463537 10.472170083399703 -1 0 0 I I #
edge $-1 $337 -8.1565167631037614 $278 2.9696766063842102 $277 $363 forward 7 unknown #
vertex $-1 $336 $364 #
straight-curve $-1 -53.779717398602259 10.749936841463537 1.2850025458527625 0.76604443648966558 0 0.64278761758704617 I I #
point $-1 -42.830877709288799 10.749936841463537 10.472170083399703 #
point $-1 -53.779717398602251 -0.37625652802443454 1.2850025458527685 #
straight-curve $-1 -53.779717398602251 0 10.472170083399703 0 -1 0 I I #
vertex $-1 $284 $365 #
point $-1 -42.186576616144038 5.1868401567195512 1.6980264231287112 #
straight-curve $-1 -53.779717398602251 28.206819215693788 0 0 0 -1 I I #
point $-1 -53.779717398602251 -28.206819215693788 -10.472170083399703 #
straight-curve $-1 -53.779717398602251 0 -10.472170083399703 0 1 0 I I #
point $-1 -53.779717398602251 28.206819215693788 -10.472170083399703 #
coedge $-1 $310 $306 $315 $353 forward $223 $-1 #
vertex $-1 $307 $366 #
straight-curve $-1 -53.779717398602251 0 10.472170083399703 0 -1 0 I I #
point $-1 -53.779717398602251 -15.234668208493286 10.472170083399702 #
straight-curve $-1 53.779717398602251 0 10.472170083399703 0 1 0 I I #
edge $-1 $349 -53.779717398602251 $319 53.779717398602251 $315 $367 forward 7 unknown #
straight-curve $-1 -53.779717398602251 -28.206819215693788 0 0 0 -1 I I #
point $-1 53.779717398602251 -28.206819215693788 10.472170083399703 #
straight-curve $-1 53.779717398602251 -0.37625652802443454 76.409091003264265 0 0 -1 I I #
point $-1 53.779717398602251 -0.37625652802443454 10.472170083399703 #
straight-curve $-1 53.779717398602244 2.5934200783597756 1.2850025458527696 0 1 0 I I #
point $-1 53.779717398602251 -0.37625652802443454 1.2850025458527625 #
point $-1 42.433090253949281 5.1868401567195512 -1.1196376850247001 #
straight-curve $-1 -53.779717398602251 10.749936841463537 41.840154582112106 0 0 -1 I I #
point $-1 -53.779717398602251 10.749936841463537 10.472170083399703 #
straight-curve $-1 -53.779717398602251 2.5934200783597756 1.2850025458527723 0 -1 0 I I #
point $-1 -53.779717398602251 10.749936841463537 1.2850025458527685 #
point $-1 -42.433090253949274 5.1868401567195512 -1.1196376850247125 #
point $-1 -53.779717398602251 -28.206819215693788 10.472170083399703 #
straight-curve $-1 0 -28.206819215693788 10.472170083399703 1 0 0 I I #
End-of-ACIS-data 