500 0 4 0           
7 Unknown 11 ACIS 5.0 NT 24 Thu Mar 25 17:16:19 1999 
-1 9.9999999999999995e-007 1e-010 
body $-1 $4 $-1 $5 #
body $-1 $6 $-1 $7 #
body $-1 $8 $-1 $9 #
body $-1 $10 $-1 $11 #
lump $-1 $-1 $12 $0 #
transform $-1 1 0 0 0 1 0 0 0 1 68.632465590380562 28.633690019022112 10.085888957229818 1 rotate no_reflect no_shear #
lump $-1 $-1 $13 $1 #
transform $-1 1 0 0 0 1 0 0 0 1 68.632465590380562 28.633690019022112 10.085888957229818 1 rotate no_reflect no_shear #
lump $-1 $-1 $14 $2 #
transform $-1 1 0 0 0 1 0 0 0 1 68.632465590380562 28.633690019022112 10.085888957229818 1 rotate no_reflect no_shear #
lump $-1 $-1 $15 $3 #
transform $-1 1 0 0 0 1 0 0 0 1 68.632465590380562 28.633690019022112 10.085888957229818 1 rotate no_reflect no_shear #
shell $-1 $-1 $-1 $16 $-1 $4 #
shell $-1 $-1 $-1 $17 $-1 $6 #
shell $-1 $-1 $-1 $18 $-1 $8 #
shell $-1 $-1 $-1 $19 $-1 $10 #
face $-1 $20 $21 $12 $-1 $22 forward single #
face $-1 $23 $24 $13 $-1 $25 forward single #
face $-1 $26 $27 $14 $-1 $28 reversed single #
face $-1 $29 $30 $15 $-1 $31 forward single #
face $-1 $32 $33 $12 $-1 $34 reversed single #
loop $-1 $-1 $35 $16 #
plane-surface $-1 0 0 10.085888957229818 0 0 1 1 0 0 forward_v I I I I #
face $-1 $36 $37 $13 $-1 $38 reversed single #
loop $-1 $-1 $39 $17 #
plane-surface $-1 -62.856443477001477 0 -6.6765648424781201 0 0 1 1 0 0 forward_v I I I I #
face $-1 $40 $41 $14 $-1 $42 reversed single #
loop $-1 $-1 $43 $18 #
plane-surface $-1 -52.920542100138647 70.512198502411337 145.40111605325069 1 0 0 0 -0.62932039886446345 -0.77714595512881146 forward_v I I I I #
face $-1 $44 $45 $15 $-1 $46 forward single #
loop $-1 $47 $48 $19 #
cone-surface $-1 -41.075707921317239 23.373427526765838 5.5321855463419842 0 -0.62932039886446345 -0.77714595512881146 1.5 0 0 1 I I 0 1 1.5 forward I I I I #
face $-1 $49 $50 $12 $-1 $51 reversed single #
loop $-1 $-1 $52 $20 #
plane-surface $-1 0 0 -10.085888957229818 0 0 1 1 0 0 forward_v I I I I #
coedge $-1 $53 $54 $55 $56 forward $21 $-1 #
face $-1 $57 $58 $13 $-1 $59 reversed single #
loop $-1 $-1 $60 $23 #
plane-surface $-1 -57.080421363622392 0 -8.381226899853969 -1 0 0 0 0 1 forward_v I I I I #
coedge $-1 $61 $62 $63 $64 forward $24 $-1 #
face $-1 $65 $66 $14 $-1 $67 reversed single #
loop $-1 $-1 $68 $26 #
plane-surface $-1 -41.075707921317239 -15.871422738368381 38.726230005087515 0 0.62932039886446345 0.77714595512881146 1 0 0 forward_v I I I I #
coedge $-1 $69 $70 $71 $72 reversed $27 $-1 #
face $-1 $-1 $73 $15 $-1 $74 forward single #
loop $-1 $75 $76 $29 #
cone-surface $-1 -41.075707921317239 22.209793616548211 4.0952173689110918 0 -0.62932039886446345 -0.77714595512881146 0.75 0 0 1 I I -0.70710678118654757 0.70710678118654757 0.75 forward I I I I #
loop $-1 $-1 $77 $19 #
coedge $-1 $48 $48 $78 $79 reversed $30 $-1 #
face $-1 $80 $81 $12 $-1 $82 reversed single #
loop $-1 $-1 $83 $32 #
plane-surface $-1 0 -28.633690019022112 0 0 1 0 0 0 1 forward_v I I I I #
coedge $-1 $84 $85 $86 $87 forward $33 $-1 #
coedge $-1 $88 $35 $89 $90 forward $21 $-1 #
coedge $-1 $35 $88 $91 $92 forward $21 $-1 #
coedge $-1 $93 $94 $35 $56 reversed $95 $-1 #
edge $-1 $96 -28.633690019022112 $97 28.633690019022112 $55 $98 forward 7 unknown #
face $-1 $99 $100 $13 $-1 $101 reversed single #
loop $-1 $-1 $102 $36 #
plane-surface $-1 0 0 -10.085888957229818 0 0 1 1 0 0 forward_v I I I I #
coedge $-1 $103 $63 $104 $105 reversed $37 $-1 #
coedge $-1 $106 $39 $107 $108 reversed $24 $-1 #
coedge $-1 $39 $106 $109 $110 reversed $24 $-1 #
coedge $-1 $60 $111 $39 $64 reversed $37 $-1 #
edge $-1 $112 -28.633690019022112 $113 28.633690019022112 $63 $114 forward 7 unknown #
face $-1 $115 $116 $14 $-1 $117 reversed single #
loop $-1 $-1 $118 $40 #
plane-surface $-1 -29.230873742495831 70.512198502411337 145.40111605325069 -1 0 0 0 0.62932039886446345 0.77714595512881146 forward_v I I I I #
coedge $-1 $119 $120 $121 $122 reversed $41 $-1 #
coedge $-1 $70 $43 $123 $124 reversed $27 $-1 #
coedge $-1 $43 $69 $119 $125 reversed $27 $-1 #
coedge $-1 $121 $126 $43 $72 forward $127 $-1 #
edge $-1 $128 6.622409232183557 $129 15.759646994557542 $71 $130 forward 7 unknown #
loop $-1 $-1 $78 $44 #
plane-surface $-1 -41.075707921317239 -15.871422738368381 38.726230005087515 0 0.62932039886446345 0.77714595512881146 1 0 0 forward_v I I I I #
loop $-1 $-1 $131 $29 #
coedge $-1 $76 $76 $77 $132 reversed $45 $-1 #
coedge $-1 $77 $77 $76 $132 forward $47 $-1 #
coedge $-1 $78 $78 $48 $79 forward $73 $-1 #
edge $-1 $133 -3.5012125054442799e-016 $133 6.2831853071796004 $78 $134 forward 7 unknown #
face $-1 $135 $136 $12 $-1 $137 reversed single #
loop $-1 $-1 $138 $49 #
plane-surface $-1 -68.632465590380562 0 0 1 0 0 0 0 -1 forward_v I I I I #
coedge $-1 $139 $91 $140 $141 forward $50 $-1 #
coedge $-1 $142 $52 $139 $143 forward $33 $-1 #
coedge $-1 $52 $142 $144 $145 forward $33 $-1 #
coedge $-1 $94 $93 $52 $87 reversed $95 $-1 #
edge $-1 $146 -28.633690019022112 $147 28.633690019022112 $86 $148 forward 7 unknown #
coedge $-1 $54 $53 $149 $150 forward $21 $-1 #
coedge $-1 $151 $152 $53 $90 reversed $136 $-1 #
edge $-1 $97 -68.632465590380562 $153 68.632465590380562 $89 $154 forward 7 unknown #
coedge $-1 $83 $155 $54 $92 reversed $50 $-1 #
edge $-1 $156 -68.632465590380562 $96 68.632465590380562 $91 $157 forward 7 unknown #
coedge $-1 $86 $55 $155 $158 forward $95 $-1 #
coedge $-1 $55 $86 $151 $159 reversed $95 $-1 #
loop $-1 $-1 $93 $135 #
vertex $-1 $56 $160 #
vertex $-1 $56 $161 #
straight-curve $-1 68.632465590380562 0 10.085888957229818 0 1 0 I I #
face $-1 $162 $163 $13 $-1 $164 reversed single #
loop $-1 $-1 $104 $57 #
plane-surface $-1 0 -28.633690019022112 0 0 1 0 0 0 1 forward_v I I I I #
coedge $-1 $165 $166 $103 $167 forward $58 $-1 #
coedge $-1 $111 $60 $102 $167 reversed $37 $-1 #
coedge $-1 $109 $168 $60 $105 forward $100 $-1 #
edge $-1 $169 -5.8952755073028333 $112 -2.4859513925511356 $104 $170 forward 7 unknown #
coedge $-1 $62 $61 $171 $172 reversed $24 $-1 #
coedge $-1 $173 $174 $61 $108 forward $175 $-1 #
edge $-1 $176 -37.204243851879824 $113 -25.652199625121654 $107 $177 forward 7 unknown #
coedge $-1 $178 $104 $62 $110 forward $100 $-1 #
edge $-1 $112 25.652199625121654 $179 37.204243851879824 $109 $180 forward 7 unknown #
coedge $-1 $63 $103 $173 $181 reversed $37 $-1 #
vertex $-1 $110 $182 #
vertex $-1 $108 $183 #
straight-curve $-1 -57.080421363622392 0 -6.6765648424781201 0 1 0 I I #
face $-1 $-1 $127 $14 $-1 $184 forward single #
loop $-1 $-1 $185 $65 #
plane-surface $-1 0 28.633690019022112 0 0 -1 0 0 0 -1 forward_v I I I I #
coedge $-1 $186 $187 $188 $189 reversed $66 $-1 #
coedge $-1 $190 $68 $70 $125 forward $41 $-1 #
coedge $-1 $68 $190 $186 $191 forward $41 $-1 #
coedge $-1 $188 $71 $68 $122 forward $127 $-1 #
edge $-1 $129 -32.382688139480024 $192 -8.6930197818372115 $121 $193 forward 7 unknown #
coedge $-1 $194 $195 $69 $124 forward $116 $-1 #
edge $-1 $196 -70.013858469002628 $128 -62.614669069395525 $123 $197 forward 7 unknown #
edge $-1 $129 45.509951845730583 $196 57.267380038044209 $70 $198 forward 7 unknown #
coedge $-1 $71 $188 $194 $199 forward $127 $-1 #
loop $-1 $-1 $188 $115 #
vertex $-1 $124 $200 #
vertex $-1 $72 $201 #
straight-curve $-1 -52.920542100138647 35.256099251205669 10.085888957229812 0 -1 0 I I #
coedge $-1 $131 $131 $-1 $202 reversed $75 $-1 #
edge $-1 $203 0 $203 6.2831853071796004 $76 $204 forward 7 unknown #
vertex $-1 $79 $205 #
ellipse-curve $-1 -41.075707921317239 24.065071137835119 6.3862942574262727 0 0.62932039886446345 0.77714595512881146 1.5 0 0 1 I I #
face $-1 $-1 $95 $12 $-1 $206 reversed single #
loop $-1 $-1 $151 $80 #
plane-surface $-1 0 28.633690019022112 0 0 -1 0 0 0 -1 forward_v I I I I #
coedge $-1 $207 $149 $152 $208 forward $81 $-1 #
coedge $-1 $155 $83 $84 $143 reversed $50 $-1 #
coedge $-1 $149 $207 $83 $141 reversed $81 $-1 #
edge $-1 $156 -10.085888957229818 $209 10.085888957229818 $140 $210 forward 7 unknown #
coedge $-1 $85 $84 $207 $211 forward $33 $-1 #
edge $-1 $147 -68.632465590380562 $209 68.632465590380562 $139 $212 forward 7 unknown #
coedge $-1 $152 $151 $85 $145 reversed $136 $-1 #
edge $-1 $213 -68.632465590380562 $146 68.632465590380562 $144 $214 forward 7 unknown #
vertex $-1 $87 $215 #
vertex $-1 $158 $216 #
straight-curve $-1 68.632465590380562 0 -10.085888957229818 0 -1 0 I I #
coedge $-1 $138 $140 $88 $150 reversed $81 $-1 #
edge $-1 $153 -28.633690019022112 $156 28.633690019022112 $149 $217 forward 7 unknown #
coedge $-1 $144 $89 $94 $159 forward $136 $-1 #
coedge $-1 $89 $144 $138 $208 reversed $136 $-1 #
vertex $-1 $90 $218 #
straight-curve $-1 0 28.633690019022112 10.085888957229818 -1 0 0 I I #
coedge $-1 $91 $139 $93 $158 reversed $50 $-1 #
vertex $-1 $150 $219 #
straight-curve $-1 0 -28.633690019022112 10.085888957229818 1 0 0 I I #
edge $-1 $96 -10.085888957229818 $147 10.085888957229818 $93 $220 forward 7 unknown #
edge $-1 $97 -10.085888957229818 $146 10.085888957229818 $94 $221 forward 7 unknown #
point $-1 68.632465590380562 -28.633690019022112 10.085888957229818 #
point $-1 68.632465590380562 28.633690019022112 10.085888957229818 #
face $-1 $-1 $175 $13 $-1 $222 reversed single #
loop $-1 $-1 $171 $99 #
plane-surface $-1 -68.632465590380562 0 0 1 0 0 0 0 -1 forward_v I I I I #
coedge $-1 $223 $102 $168 $224 forward $58 $-1 #
coedge $-1 $102 $223 $225 $226 forward $58 $-1 #
edge $-1 $227 -28.633690019022112 $169 28.633690019022112 $102 $228 forward 7 unknown #
coedge $-1 $104 $178 $165 $224 reversed $100 $-1 #
vertex $-1 $224 $229 #
straight-curve $-1 -57.080421363622392 -28.633690019022112 -4.1906134499269845 0 0 1 I I #
coedge $-1 $230 $231 $106 $172 forward $163 $-1 #
edge $-1 $179 -28.633690019022112 $176 28.633690019022112 $171 $232 forward 7 unknown #
coedge $-1 $225 $107 $111 $181 forward $175 $-1 #
coedge $-1 $107 $225 $230 $233 reversed $175 $-1 #
loop $-1 $-1 $173 $162 #
vertex $-1 $233 $234 #
straight-curve $-1 -31.428221738500739 28.633690019022112 -6.6765648424781201 1 0 0 I I #
coedge $-1 $168 $109 $231 $235 forward $100 $-1 #
vertex $-1 $235 $236 #
straight-curve $-1 -31.428221738500739 -28.633690019022112 -6.6765648424781201 -1 0 0 I I #
edge $-1 $113 2.4859513925511356 $227 5.8952755073028333 $173 $237 forward 7 unknown #
point $-1 -57.080421363622392 -28.633690019022112 -6.6765648424781201 #
point $-1 -57.080421363622392 28.633690019022112 -6.6765648424781201 #
plane-surface $-1 0 0 10.085888957229818 0 0 1 1 0 0 forward_v I I I I #
coedge $-1 $195 $194 $187 $238 forward $116 $-1 #
coedge $-1 $187 $118 $120 $191 reversed $66 $-1 #
coedge $-1 $118 $186 $185 $238 reversed $66 $-1 #
coedge $-1 $126 $121 $118 $189 forward $127 $-1 #
edge $-1 $192 -15.759646994557542 $239 -6.622409232183557 $188 $240 forward 7 unknown #
coedge $-1 $120 $119 $195 $241 reversed $41 $-1 #
edge $-1 $242 -57.267380038044209 $192 -45.509951845730583 $186 $243 forward 7 unknown #
vertex $-1 $122 $244 #
straight-curve $-1 -20.537853960658619 19.496452256648134 10.085888957229816 1 0 0 I I #
coedge $-1 $185 $123 $126 $199 reversed $116 $-1 #
coedge $-1 $123 $185 $190 $241 forward $116 $-1 #
vertex $-1 $124 $245 #
straight-curve $-1 -52.920542100138647 28.633690019022112 72.700558026625345 0 0 1 I I #
straight-curve $-1 -52.920542100138647 -15.871422738368381 38.726230005087515 0 0.77714595512881146 -0.62932039886446345 I I #
edge $-1 $239 29.230873742495831 $128 52.920542100138647 $194 $246 forward 7 unknown #
point $-1 -52.920542100138647 28.633690019022112 10.085888957229818 #
point $-1 -52.920542100138647 19.496452256648126 10.08588895722982 #
edge $-1 $247 1 $247 0 $131 $-1 forward 7 unknown #
vertex $-1 $132 $248 #
ellipse-curve $-1 -41.075707921317239 22.68178391569656 4.6780768352577002 0 0.62932039886446345 0.77714595512881146 1.5 0 0 1 I I #
point $-1 -39.575707921317239 24.065071137835115 6.3862942574262691 #
plane-surface $-1 68.632465590380562 0 0 -1 0 0 0 0 1 forward_v I I I I #
coedge $-1 $140 $138 $142 $211 reversed $81 $-1 #
edge $-1 $153 -10.085888957229818 $213 10.085888957229818 $152 $249 forward 7 unknown #
vertex $-1 $211 $250 #
straight-curve $-1 -68.632465590380562 -28.633690019022112 0 0 0 -1 I I #
edge $-1 $209 -28.633690019022112 $213 28.633690019022112 $207 $251 forward 7 unknown #
straight-curve $-1 0 -28.633690019022112 -10.085888957229818 -1 0 0 I I #
vertex $-1 $145 $252 #
straight-curve $-1 0 28.633690019022112 -10.085888957229818 1 0 0 I I #
point $-1 68.632465590380562 28.633690019022112 -10.085888957229818 #
point $-1 68.632465590380562 -28.633690019022112 -10.085888957229818 #
straight-curve $-1 -68.632465590380562 0 10.085888957229818 0 -1 0 I I #
point $-1 -68.632465590380562 28.633690019022112 10.085888957229818 #
point $-1 -68.632465590380562 -28.633690019022112 10.085888957229818 #
straight-curve $-1 68.632465590380562 -28.633690019022112 0 0 0 -1 I I #
straight-curve $-1 68.632465590380562 28.633690019022112 0 0 0 -1 I I #
plane-surface $-1 0 28.633690019022112 0 0 -1 0 0 0 -1 forward_v I I I I #
coedge $-1 $166 $165 $253 $254 forward $58 $-1 #
edge $-1 $169 57.080421363622392 $255 68.632465590380562 $168 $256 forward 7 unknown #
coedge $-1 $174 $173 $166 $226 reversed $175 $-1 #
edge $-1 $257 -68.632465590380562 $227 -57.080421363622392 $225 $258 forward 7 unknown #
vertex $-1 $181 $259 #
straight-curve $-1 -57.080421363622392 0 -10.085888957229818 0 -1 0 I I #
point $-1 -57.080421363622392 -28.633690019022112 -10.085888957229818 #
coedge $-1 $253 $171 $174 $233 forward $163 $-1 #
coedge $-1 $171 $253 $178 $235 reversed $163 $-1 #
straight-curve $-1 -68.632465590380562 0 -6.6765648424781201 0 1 0 I I #
edge $-1 $176 6.6765648424781201 $257 10.085888957229818 $174 $260 forward 7 unknown #
point $-1 -68.632465590380562 28.633690019022112 -6.6765648424781201 #
edge $-1 $179 6.6765648424781201 $255 10.085888957229818 $231 $261 forward 7 unknown #
point $-1 -68.632465590380562 -28.633690019022112 -6.6765648424781201 #
straight-curve $-1 -57.080421363622392 28.633690019022112 -4.1906134499269845 0 0 -1 I I #
edge $-1 $239 62.614669069395525 $242 70.013858469002628 $185 $262 forward 7 unknown #
vertex $-1 $199 $263 #
straight-curve $-1 -29.230873742495831 35.256099251205669 10.085888957229812 0 1 0 I I #
edge $-1 $242 8.6930197818372115 $196 32.382688139480024 $195 $264 forward 7 unknown #
vertex $-1 $241 $265 #
straight-curve $-1 -29.230873742495831 -15.871422738368381 38.726230005087515 0 -0.77714595512881146 0.62932039886446345 I I #
point $-1 -29.230873742495831 19.496452256648126 10.08588895722982 #
point $-1 -52.920542100138647 28.633690019022112 2.6866995576227239 #
straight-curve $-1 0 28.633690019022112 10.085888957229818 -1 0 0 I I #
vertex $-1 $202 $266 #
point $-1 -39.575707921317239 22.68178391569656 4.6780768352577002 #
straight-curve $-1 -68.632465590380562 28.633690019022112 0 0 0 -1 I I #
point $-1 -68.632465590380562 -28.633690019022112 -10.085888957229818 #
straight-curve $-1 -68.632465590380562 0 -10.085888957229818 0 1 0 I I #
point $-1 -68.632465590380562 28.633690019022112 -10.085888957229818 #
coedge $-1 $231 $230 $223 $254 reversed $163 $-1 #
edge $-1 $255 -28.633690019022112 $257 28.633690019022112 $253 $267 forward 7 unknown #
vertex $-1 $254 $268 #
straight-curve $-1 0 -28.633690019022112 -10.085888957229818 -1 0 0 I I #
vertex $-1 $226 $269 #
straight-curve $-1 0 28.633690019022112 -10.085888957229818 1 0 0 I I #
point $-1 -57.080421363622392 28.633690019022112 -10.085888957229818 #
straight-curve $-1 -68.632465590380562 28.633690019022112 0 0 0 -1 I I #
straight-curve $-1 -68.632465590380562 -28.633690019022112 0 0 0 -1 I I #
straight-curve $-1 -29.230873742495831 28.633690019022112 72.700558026625345 0 0 -1 I I #
point $-1 -29.230873742495831 28.633690019022112 10.085888957229818 #
straight-curve $-1 -20.537853960658619 28.633690019022112 2.6866995576227275 -1 0 0 I I #
point $-1 -29.230873742495831 28.633690019022112 2.6866995576227239 #
point $-1 -41.075707921317239 21.737803317399862 3.5123579025644833 #
straight-curve $-1 -68.632465590380562 0 -10.085888957229818 0 1 0 I I #
point $-1 -68.632465590380562 -28.633690019022112 -10.085888957229818 #
point $-1 -68.632465590380562 28.633690019022112 -10.085888957229818 #
End-of-ACIS-data 