500 0 6 0           
7 Unknown 11 ACIS 5.0 NT 24 Thu Mar 25 23:45:45 1999 
-1 9.9999999999999995e-007 1e-010 
body $-1 $6 $-1 $7 #
body $-1 $8 $-1 $9 #
body $-1 $10 $-1 $11 #
body $-1 $12 $-1 $13 #
body $-1 $14 $-1 $15 #
body $-1 $16 $-1 $17 #
lump $-1 $-1 $18 $0 #
transform $-1 1 0 0 0 1 0 0 0 1 67.257911923581645 36.721214768299681 14.710787374463314 1 rotate no_reflect no_shear #
lump $-1 $-1 $19 $1 #
transform $-1 1 0 0 0 1 0 0 0 1 67.257911923581645 36.721214768299681 14.710787374463314 1 rotate no_reflect no_shear #
lump $-1 $-1 $20 $2 #
transform $-1 1 0 0 0 1 0 0 0 1 67.257911923581645 36.721214768299681 14.710787374463314 1 rotate no_reflect no_shear #
lump $-1 $-1 $21 $3 #
transform $-1 1 0 0 0 1 0 0 0 1 67.257911923581645 36.721214768299681 14.710787374463314 1 rotate no_reflect no_shear #
lump $-1 $-1 $22 $4 #
transform $-1 1 0 0 0 1 0 0 0 1 67.257911923581645 36.721214768299681 14.710787374463314 1 rotate no_reflect no_shear #
lump $-1 $-1 $23 $5 #
transform $-1 1 0 0 0 1 0 0 0 1 67.257911923581645 36.721214768299681 14.710787374463314 1 rotate no_reflect no_shear #
shell $-1 $-1 $-1 $24 $-1 $6 #
shell $-1 $-1 $-1 $25 $-1 $8 #
shell $-1 $-1 $-1 $26 $-1 $10 #
shell $-1 $-1 $-1 $27 $-1 $12 #
shell $-1 $-1 $-1 $28 $-1 $14 #
shell $-1 $-1 $-1 $29 $-1 $16 #
face $-1 $30 $31 $18 $-1 $32 forward single #
face $-1 $33 $34 $19 $-1 $35 forward single #
face $-1 $36 $37 $20 $-1 $38 forward single #
face $-1 $39 $40 $21 $-1 $41 reversed single #
face $-1 $42 $43 $22 $-1 $44 forward single #
face $-1 $45 $46 $23 $-1 $47 forward single #
face $-1 $48 $49 $18 $-1 $50 reversed single #
loop $-1 $-1 $51 $24 #
plane-surface $-1 0 0 14.710787374463314 0 0 1 1 0 0 forward_v I I I I #
face $-1 $52 $53 $19 $-1 $54 reversed single #
loop $-1 $-1 $55 $25 #
plane-surface $-1 -67.257911923581645 0 0 1 0 0 0 0 -1 forward_v I I I I #
face $-1 $56 $57 $20 $-1 $58 reversed single #
loop $-1 $-1 $59 $26 #
plane-surface $-1 67.257911923581645 0 0 -1 0 0 0 0 1 forward_v I I I I #
face $-1 $60 $61 $21 $-1 $62 reversed single #
loop $-1 $-1 $63 $27 #
plane-surface $-1 54.569416718450967 -150.79710415078705 81.910760265473868 -1 0 0 0 -0.84804810408105047 0.52991925155115449 forward_v I I I I #
face $-1 $64 $65 $22 $-1 $66 forward single #
loop $-1 $67 $68 $28 #
cone-surface $-1 44.057317534582367 -34.857139918899883 12.301748288226833 0 0.84804810408105047 -0.52991925155115449 0.5 0 0 1 I I 0 1 0.5 forward I I I I #
face $-1 $69 $70 $23 $-1 $71 forward single #
loop $-1 $72 $73 $29 #
cone-surface $-1 50.364577044903527 -34.857139918899883 12.301748288226833 0 0.84804810408105047 -0.52991925155115449 0.5 0 0 1 I I 0 1 0.5 forward I I I I #
face $-1 $74 $75 $18 $-1 $76 reversed single #
loop $-1 $-1 $77 $30 #
plane-surface $-1 0 0 -14.710787374463314 0 0 1 1 0 0 forward_v I I I I #
coedge $-1 $78 $79 $80 $81 forward $31 $-1 #
face $-1 $82 $83 $19 $-1 $84 forward single #
loop $-1 $-1 $85 $33 #
plane-surface $-1 0 36.721214768299681 0 0 -1 0 0 0 -1 forward_v I I I I #
coedge $-1 $86 $87 $88 $89 forward $34 $-1 #
face $-1 $90 $91 $20 $-1 $92 forward single #
loop $-1 $-1 $93 $36 #
plane-surface $-1 0 36.721214768299681 0 0 -1 0 0 0 -1 forward_v I I I I #
coedge $-1 $94 $95 $96 $97 forward $37 $-1 #
face $-1 $98 $99 $21 $-1 $100 reversed single #
loop $-1 $-1 $101 $39 #
plane-surface $-1 47.210947289742947 -36.72121476829966 10.628235570598164 0 -0.84804810408105047 0.52991925155115449 1 0 0 forward_v I I I I #
coedge $-1 $102 $103 $104 $105 reversed $40 $-1 #
face $-1 $-1 $106 $22 $-1 $107 forward single #
loop $-1 $108 $109 $42 #
cone-surface $-1 44.057317534582367 -34.056583750943247 11.801505291035136 0 0.84804810408105047 -0.52991925155115449 0.25 0 0 1 I I -0.70710678118654746 0.70710678118654746 0.25 forward I I I I #
loop $-1 $-1 $110 $28 #
coedge $-1 $68 $68 $111 $112 reversed $43 $-1 #
face $-1 $-1 $113 $23 $-1 $114 forward single #
loop $-1 $115 $116 $45 #
cone-surface $-1 50.364577044903527 -34.056583750943247 11.801505291035136 0 0.84804810408105047 -0.52991925155115449 0.25 0 0 1 I I -0.70710678118654746 0.70710678118654746 0.25 forward I I I I #
loop $-1 $-1 $117 $29 #
coedge $-1 $73 $73 $118 $119 reversed $46 $-1 #
face $-1 $120 $121 $18 $-1 $122 reversed single #
loop $-1 $-1 $123 $48 #
plane-surface $-1 0 -36.721214768299681 0 0 1 0 0 0 1 forward_v I I I I #
coedge $-1 $124 $125 $126 $127 forward $49 $-1 #
coedge $-1 $128 $51 $129 $130 forward $31 $-1 #
coedge $-1 $51 $128 $131 $132 forward $31 $-1 #
coedge $-1 $133 $134 $51 $81 reversed $135 $-1 #
edge $-1 $136 -36.721214768299681 $137 36.721214768299681 $80 $138 forward 7 unknown #
face $-1 $139 $140 $19 $-1 $141 reversed single #
loop $-1 $-1 $88 $52 #
plane-surface $-1 -73.602159526146977 0 -10.778422903717621 0 0 1 1 0 0 forward_v I I I I #
coedge $-1 $142 $143 $87 $144 forward $53 $-1 #
coedge $-1 $145 $55 $146 $147 reversed $34 $-1 #
coedge $-1 $55 $145 $85 $144 reversed $34 $-1 #
coedge $-1 $148 $149 $55 $89 reversed $83 $-1 #
edge $-1 $150 -36.721214768299681 $151 36.721214768299681 $88 $152 forward 7 unknown #
face $-1 $153 $154 $20 $-1 $155 reversed single #
loop $-1 $-1 $156 $56 #
plane-surface $-1 73.602159526146977 0 -10.778422903717621 0 0 1 1 0 0 forward_v I I I I #
coedge $-1 $157 $158 $94 $159 forward $57 $-1 #
coedge $-1 $160 $59 $93 $159 reversed $37 $-1 #
coedge $-1 $59 $160 $161 $162 reversed $37 $-1 #
coedge $-1 $163 $164 $59 $97 reversed $91 $-1 #
edge $-1 $165 -36.721214768299681 $166 36.721214768299681 $96 $167 forward 7 unknown #
face $-1 $168 $169 $21 $-1 $170 forward single #
loop $-1 $-1 $171 $60 #
plane-surface $-1 39.852477861034927 -150.79710415078705 81.910760265473868 1 0 0 0 0.84804810408105047 -0.52991925155115449 forward_v I I I I #
coedge $-1 $172 $173 $174 $175 reversed $61 $-1 #
coedge $-1 $103 $63 $176 $177 reversed $40 $-1 #
coedge $-1 $63 $102 $172 $178 reversed $40 $-1 #
coedge $-1 $174 $179 $63 $105 forward $169 $-1 #
edge $-1 $180 38.677337307093843 $181 41.228398722020714 $104 $182 forward 7 unknown #
loop $-1 $-1 $111 $64 #
plane-surface $-1 47.210947289742947 -36.72121476829966 10.628235570598164 0 -0.84804810408105047 0.52991925155115449 1 0 0 forward_v I I I I #
loop $-1 $-1 $183 $42 #
coedge $-1 $109 $109 $110 $184 reversed $65 $-1 #
coedge $-1 $110 $110 $109 $184 forward $67 $-1 #
coedge $-1 $111 $111 $68 $112 forward $106 $-1 #
edge $-1 $185 3.1495090838143414e-018 $185 6.2831853071796004 $111 $186 forward 7 unknown #
loop $-1 $-1 $118 $69 #
plane-surface $-1 47.210947289742947 -36.72121476829966 10.628235570598164 0 -0.84804810408105047 0.52991925155115449 1 0 0 forward_v I I I I #
loop $-1 $-1 $187 $45 #
coedge $-1 $116 $116 $117 $188 reversed $70 $-1 #
coedge $-1 $117 $117 $116 $188 forward $72 $-1 #
coedge $-1 $118 $118 $73 $119 forward $113 $-1 #
edge $-1 $189 3.1495090838143414e-018 $189 6.2831853071796004 $118 $190 forward 7 unknown #
face $-1 $191 $192 $18 $-1 $193 reversed single #
loop $-1 $-1 $194 $74 #
plane-surface $-1 -67.257911923581645 0 0 1 0 0 0 0 -1 forward_v I I I I #
coedge $-1 $195 $131 $194 $196 forward $75 $-1 #
coedge $-1 $197 $77 $195 $198 forward $49 $-1 #
coedge $-1 $77 $197 $199 $200 forward $49 $-1 #
coedge $-1 $134 $133 $77 $127 reversed $135 $-1 #
edge $-1 $201 -36.721214768299681 $202 36.721214768299681 $126 $203 forward 7 unknown #
coedge $-1 $79 $78 $204 $205 forward $31 $-1 #
coedge $-1 $206 $207 $78 $130 reversed $192 $-1 #
edge $-1 $137 -67.257911923581645 $208 67.257911923581645 $129 $209 forward 7 unknown #
coedge $-1 $123 $210 $79 $132 reversed $75 $-1 #
edge $-1 $211 -67.257911923581645 $136 67.257911923581645 $131 $212 forward 7 unknown #
coedge $-1 $126 $80 $210 $213 forward $135 $-1 #
coedge $-1 $80 $126 $206 $214 reversed $135 $-1 #
loop $-1 $-1 $134 $191 #
vertex $-1 $81 $215 #
vertex $-1 $81 $216 #
straight-curve $-1 67.257911923581645 0 14.710787374463314 0 1 0 I I #
face $-1 $217 $218 $19 $-1 $219 reversed single #
loop $-1 $-1 $220 $82 #
plane-surface $-1 -79.946407128712309 0 -12.744605139090467 1 0 0 0 0 -1 forward_v I I I I #
coedge $-1 $221 $85 $222 $223 reversed $53 $-1 #
coedge $-1 $85 $221 $148 $224 reversed $53 $-1 #
edge $-1 $150 10.778422903717621 $225 14.710787374463314 $85 $226 forward 7 unknown #
coedge $-1 $87 $86 $227 $228 reversed $34 $-1 #
coedge $-1 $229 $230 $86 $147 forward $231 $-1 #
edge $-1 $232 -14.710787374463314 $151 -10.778422903717621 $146 $233 forward 7 unknown #
coedge $-1 $234 $88 $143 $224 forward $83 $-1 #
coedge $-1 $88 $234 $229 $235 forward $83 $-1 #
vertex $-1 $144 $236 #
vertex $-1 $235 $237 #
straight-curve $-1 -67.257911923581645 0 -10.778422903717621 0 -1 0 I I #
face $-1 $238 $239 $20 $-1 $240 reversed single #
loop $-1 $-1 $241 $90 #
plane-surface $-1 79.946407128712309 0 -12.744605139090467 -1 0 0 0 0 1 forward_v I I I I #
coedge $-1 $164 $163 $242 $243 forward $91 $-1 #
coedge $-1 $244 $93 $164 $245 reversed $57 $-1 #
coedge $-1 $93 $244 $246 $247 reversed $57 $-1 #
edge $-1 $248 -14.710787374463314 $166 -10.778422903717621 $93 $249 forward 7 unknown #
coedge $-1 $95 $94 $250 $251 reversed $37 $-1 #
coedge $-1 $252 $253 $95 $162 forward $254 $-1 #
edge $-1 $165 10.778422903717621 $255 14.710787374463314 $161 $256 forward 7 unknown #
coedge $-1 $156 $96 $253 $257 forward $91 $-1 #
coedge $-1 $96 $156 $157 $245 forward $91 $-1 #
vertex $-1 $162 $258 #
vertex $-1 $245 $259 #
straight-curve $-1 67.257911923581645 0 -10.778422903717621 0 1 0 I I #
face $-1 $-1 $260 $21 $-1 $261 reversed single #
loop $-1 $-1 $104 $98 #
plane-surface $-1 0 0 14.710787374463314 0 0 1 1 0 0 forward_v I I I I #
coedge $-1 $262 $263 $264 $265 reversed $99 $-1 #
coedge $-1 $266 $101 $103 $178 forward $61 $-1 #
coedge $-1 $101 $266 $262 $267 forward $61 $-1 #
coedge $-1 $264 $104 $101 $175 forward $169 $-1 #
edge $-1 $181 -30.963943073579493 $268 -16.247004216163454 $174 $269 forward 7 unknown #
coedge $-1 $270 $271 $102 $177 forward $260 $-1 #
edge $-1 $272 -30.327144562138805 $180 -26.244592758273619 $176 $273 forward 7 unknown #
edge $-1 $181 -4.8140568727395774 $272 3.9918193188544054e-014 $103 $274 forward 7 unknown #
coedge $-1 $104 $264 $270 $275 forward $169 $-1 #
vertex $-1 $177 $276 #
vertex $-1 $105 $277 #
straight-curve $-1 54.569416718450967 -75.398552075393525 14.710787374463315 0 1 0 I I #
coedge $-1 $183 $183 $-1 $278 reversed $108 $-1 #
edge $-1 $279 0 $279 6.2831853071796004 $109 $280 forward 7 unknown #
vertex $-1 $112 $281 #
ellipse-curve $-1 44.057317534582367 -35.445684060836243 12.669511472530731 0 -0.84804810408105047 0.52991925155115449 0.5 0 0 1 I I #
coedge $-1 $187 $187 $-1 $282 reversed $115 $-1 #
edge $-1 $283 0 $283 6.2831853071796004 $116 $284 forward 7 unknown #
vertex $-1 $119 $285 #
ellipse-curve $-1 50.364577044903527 -35.445684060836243 12.669511472530731 0 -0.84804810408105047 0.52991925155115449 0.5 0 0 1 I I #
face $-1 $-1 $135 $18 $-1 $286 reversed single #
loop $-1 $-1 $206 $120 #
plane-surface $-1 0 36.721214768299681 0 0 -1 0 0 0 -1 forward_v I I I I #
coedge $-1 $204 $287 $123 $196 reversed $121 $-1 #
coedge $-1 $210 $123 $124 $198 reversed $75 $-1 #
edge $-1 $211 -14.710787374463314 $288 14.710787374463314 $194 $289 forward 7 unknown #
coedge $-1 $125 $124 $287 $290 forward $49 $-1 #
edge $-1 $202 -67.257911923581645 $288 67.257911923581645 $195 $291 forward 7 unknown #
coedge $-1 $207 $206 $125 $200 reversed $192 $-1 #
edge $-1 $292 -67.257911923581645 $201 67.257911923581645 $199 $293 forward 7 unknown #
vertex $-1 $127 $294 #
vertex $-1 $213 $295 #
straight-curve $-1 67.257911923581645 0 -14.710787374463314 0 -1 0 I I #
coedge $-1 $296 $194 $128 $205 reversed $121 $-1 #
edge $-1 $208 -36.721214768299681 $211 36.721214768299681 $204 $297 forward 7 unknown #
coedge $-1 $199 $129 $134 $214 forward $192 $-1 #
coedge $-1 $129 $199 $296 $298 reversed $192 $-1 #
vertex $-1 $130 $299 #
straight-curve $-1 0 36.721214768299681 14.710787374463314 -1 0 0 I I #
coedge $-1 $131 $195 $133 $213 reversed $75 $-1 #
vertex $-1 $205 $300 #
straight-curve $-1 0 -36.721214768299681 14.710787374463314 1 0 0 I I #
edge $-1 $136 -14.710787374463314 $202 14.710787374463314 $133 $301 forward 7 unknown #
edge $-1 $137 -14.710787374463314 $201 14.710787374463314 $134 $302 forward 7 unknown #
point $-1 67.257911923581645 -36.721214768299681 14.710787374463314 #
point $-1 67.257911923581645 36.721214768299681 14.710787374463314 #
face $-1 $-1 $231 $19 $-1 $303 reversed single #
loop $-1 $-1 $227 $139 #
plane-surface $-1 0 0 -14.710787374463314 0 0 1 1 0 0 forward_v I I I I #
coedge $-1 $304 $305 $221 $306 forward $140 $-1 #
coedge $-1 $143 $142 $220 $306 reversed $53 $-1 #
coedge $-1 $227 $307 $142 $223 forward $218 $-1 #
edge $-1 $308 -79.946407128712309 $225 -67.257911923581645 $142 $309 forward 7 unknown #
edge $-1 $150 -6.344247602565332 $310 6.344247602565332 $143 $311 forward 7 unknown #
vertex $-1 $144 $312 #
straight-curve $-1 -67.257911923581645 36.721214768299681 0 0 0 -1 I I #
coedge $-1 $313 $222 $145 $228 forward $218 $-1 #
edge $-1 $225 -36.721214768299681 $232 36.721214768299681 $227 $314 forward 7 unknown #
coedge $-1 $315 $146 $149 $235 reversed $231 $-1 #
coedge $-1 $146 $315 $313 $316 reversed $231 $-1 #
loop $-1 $-1 $146 $217 #
vertex $-1 $316 $317 #
straight-curve $-1 -67.257911923581645 -36.721214768299681 0 0 0 1 I I #
coedge $-1 $149 $148 $305 $318 forward $83 $-1 #
edge $-1 $319 -6.344247602565332 $151 6.344247602565332 $229 $320 forward 7 unknown #
point $-1 -67.257911923581645 36.721214768299681 -10.778422903717621 #
point $-1 -67.257911923581645 -36.721214768299681 -10.778422903717621 #
face $-1 $-1 $254 $20 $-1 $321 reversed single #
loop $-1 $-1 $250 $153 #
plane-surface $-1 0 0 -14.710787374463314 0 0 1 1 0 0 forward_v I I I I #
coedge $-1 $322 $242 $323 $324 forward $154 $-1 #
coedge $-1 $241 $325 $156 $243 reversed $154 $-1 #
edge $-1 $326 -36.721214768299681 $327 36.721214768299681 $242 $328 forward 7 unknown #
coedge $-1 $158 $157 $325 $329 forward $57 $-1 #
edge $-1 $327 -6.344247602565332 $166 6.344247602565332 $157 $330 forward 7 unknown #
coedge $-1 $331 $250 $158 $247 forward $239 $-1 #
edge $-1 $248 -6.344247602565332 $332 6.344247602565332 $158 $333 forward 7 unknown #
vertex $-1 $247 $334 #
straight-curve $-1 67.257911923581645 36.721214768299681 0 0 0 1 I I #
coedge $-1 $246 $335 $160 $251 forward $239 $-1 #
edge $-1 $255 -36.721214768299681 $248 36.721214768299681 $250 $336 forward 7 unknown #
coedge $-1 $323 $161 $335 $337 reversed $254 $-1 #
coedge $-1 $161 $323 $163 $257 reversed $254 $-1 #
loop $-1 $-1 $161 $238 #
vertex $-1 $162 $338 #
straight-curve $-1 67.257911923581645 -36.721214768299681 0 0 0 -1 I I #
edge $-1 $165 -6.344247602565332 $326 6.344247602565332 $253 $339 forward 7 unknown #
point $-1 67.257911923581645 -36.721214768299681 -10.778422903717621 #
point $-1 67.257911923581645 36.721214768299681 -10.778422903717621 #
loop $-1 $-1 $176 $168 #
plane-surface $-1 0 -36.721214768299681 0 0 1 0 0 0 1 forward_v I I I I #
coedge $-1 $263 $171 $173 $267 reversed $99 $-1 #
coedge $-1 $171 $262 $340 $341 reversed $99 $-1 #
coedge $-1 $179 $174 $171 $265 forward $169 $-1 #
edge $-1 $268 -41.228398722020714 $342 -38.677337307093843 $264 $343 forward 7 unknown #
coedge $-1 $173 $172 $271 $344 reversed $61 $-1 #
edge $-1 $345 -3.9918193188544054e-014 $268 4.8140568727395774 $262 $346 forward 7 unknown #
vertex $-1 $175 $347 #
straight-curve $-1 23.605473644871473 -34.170153353372811 14.710787374463315 -1 0 0 I I #
coedge $-1 $340 $176 $179 $275 reversed $260 $-1 #
coedge $-1 $176 $340 $266 $344 forward $260 $-1 #
vertex $-1 $177 $348 #
straight-curve $-1 54.569416718450967 -36.721214768299681 40.955380132736934 0 0 1 I I #
straight-curve $-1 54.569416718450967 -36.72121476829966 10.628235570598164 0 -0.52991925155115449 -0.84804810408105047 I I #
edge $-1 $342 39.852477861034927 $180 54.569416718450967 $270 $349 forward 7 unknown #
point $-1 54.569416718450967 -36.721214768299681 14.710787374463314 #
point $-1 54.569416718450967 -34.170153353372811 14.710787374463314 #
edge $-1 $350 1 $350 0 $183 $-1 forward 7 unknown #
vertex $-1 $184 $351 #
ellipse-curve $-1 44.057317534582367 -34.268595776963508 11.933985103922925 0 -0.84804810408105047 0.52991925155115449 0.5 0 0 1 I I #
point $-1 44.557317534582367 -35.445684060836257 12.66951147253074 #
edge $-1 $352 1 $352 0 $187 $-1 forward 7 unknown #
vertex $-1 $188 $353 #
ellipse-curve $-1 50.364577044903527 -34.268595776963508 11.933985103922925 0 -0.84804810408105047 0.52991925155115449 0.5 0 0 1 I I #
point $-1 50.864577044903527 -35.445684060836257 12.66951147253074 #
plane-surface $-1 67.257911923581645 0 0 -1 0 0 0 0 1 forward_v I I I I #
coedge $-1 $194 $296 $197 $290 reversed $121 $-1 #
vertex $-1 $290 $354 #
straight-curve $-1 -67.257911923581645 -36.721214768299681 0 0 0 -1 I I #
edge $-1 $288 -36.721214768299681 $292 36.721214768299681 $287 $355 forward 7 unknown #
straight-curve $-1 0 -36.721214768299681 -14.710787374463314 -1 0 0 I I #
vertex $-1 $200 $356 #
straight-curve $-1 0 36.721214768299681 -14.710787374463314 1 0 0 I I #
point $-1 67.257911923581645 36.721214768299681 -14.710787374463314 #
point $-1 67.257911923581645 -36.721214768299681 -14.710787374463314 #
coedge $-1 $287 $204 $207 $298 forward $121 $-1 #
straight-curve $-1 -67.257911923581645 0 14.710787374463314 0 -1 0 I I #
edge $-1 $208 -14.710787374463314 $292 14.710787374463314 $207 $357 forward 7 unknown #
point $-1 -67.257911923581645 36.721214768299681 14.710787374463314 #
point $-1 -67.257911923581645 -36.721214768299681 14.710787374463314 #
straight-curve $-1 67.257911923581645 -36.721214768299681 0 0 0 -1 I I #
straight-curve $-1 67.257911923581645 36.721214768299681 0 0 0 -1 I I #
plane-surface $-1 0 -36.721214768299681 0 0 1 0 0 0 1 forward_v I I I I #
coedge $-1 $358 $220 $307 $359 reversed $140 $-1 #
coedge $-1 $220 $358 $234 $318 reversed $140 $-1 #
edge $-1 $310 -1.9661822353728464 $308 1.9661822353728464 $221 $360 forward 7 unknown #
coedge $-1 $222 $313 $304 $359 forward $218 $-1 #
vertex $-1 $223 $361 #
straight-curve $-1 0 36.721214768299681 -14.710787374463314 1 0 0 I I #
vertex $-1 $224 $362 #
straight-curve $-1 -73.602159526146977 36.721214768299681 -10.778422903717621 -1 0 0 I I #
point $-1 -67.257911923581645 36.721214768299681 -14.710787374463314 #
coedge $-1 $307 $227 $230 $316 forward $218 $-1 #
straight-curve $-1 -67.257911923581645 0 -14.710787374463314 0 -1 0 I I #
coedge $-1 $230 $229 $358 $363 forward $231 $-1 #
edge $-1 $232 -6.344247602565332 $364 6.344247602565332 $230 $365 forward 7 unknown #
point $-1 -67.257911923581645 -36.721214768299681 -14.710787374463314 #
edge $-1 $310 -36.721214768299681 $319 36.721214768299681 $305 $366 forward 7 unknown #
vertex $-1 $318 $367 #
straight-curve $-1 -73.602159526146977 -36.721214768299681 -10.778422903717621 1 0 0 I I #
plane-surface $-1 0 -36.721214768299681 0 0 1 0 0 0 1 forward_v I I I I #
coedge $-1 $325 $241 $331 $368 reversed $154 $-1 #
coedge $-1 $253 $252 $241 $324 reversed $254 $-1 #
edge $-1 $326 -1.9661822353728464 $369 1.9661822353728464 $241 $370 forward 7 unknown #
coedge $-1 $242 $322 $244 $329 reversed $154 $-1 #
vertex $-1 $243 $371 #
vertex $-1 $243 $372 #
straight-curve $-1 79.946407128712309 0 -10.778422903717621 0 1 0 I I #
edge $-1 $327 -1.9661822353728464 $332 1.9661822353728464 $325 $373 forward 7 unknown #
straight-curve $-1 73.602159526146977 36.721214768299681 -10.778422903717621 -1 0 0 I I #
coedge $-1 $335 $246 $322 $368 forward $239 $-1 #
vertex $-1 $368 $374 #
straight-curve $-1 73.602159526146977 36.721214768299681 -14.710787374463314 1 0 0 I I #
point $-1 67.257911923581645 36.721214768299681 -14.710787374463314 #
coedge $-1 $250 $331 $252 $337 forward $239 $-1 #
straight-curve $-1 67.257911923581645 0 -14.710787374463314 0 1 0 I I #
edge $-1 $369 -6.344247602565332 $255 6.344247602565332 $252 $375 forward 7 unknown #
point $-1 67.257911923581645 -36.721214768299681 -14.710787374463314 #
straight-curve $-1 73.602159526146977 -36.721214768299681 -10.778422903717621 1 0 0 I I #
coedge $-1 $271 $270 $263 $341 forward $260 $-1 #
edge $-1 $342 26.244592758273619 $345 30.327144562138805 $340 $376 forward 7 unknown #
vertex $-1 $275 $377 #
straight-curve $-1 39.852477861034927 -75.398552075393525 14.710787374463315 0 -1 0 I I #
edge $-1 $345 16.247004216163454 $272 30.963943073579493 $271 $378 forward 7 unknown #
vertex $-1 $344 $379 #
straight-curve $-1 39.852477861034927 -36.72121476829966 10.628235570598164 0 0.52991925155115449 0.84804810408105047 I I #
point $-1 39.852477861034927 -34.170153353372811 14.710787374463314 #
point $-1 54.569416718450967 -36.721214768299681 10.628235570598131 #
straight-curve $-1 0 -36.721214768299681 14.710787374463314 1 0 0 I I #
vertex $-1 $278 $380 #
point $-1 44.557317534582367 -34.268595776963508 11.933985103922925 #
vertex $-1 $282 $381 #
point $-1 50.864577044903527 -34.268595776963508 11.933985103922925 #
point $-1 -67.257911923581645 -36.721214768299681 -14.710787374463314 #
straight-curve $-1 -67.257911923581645 0 -14.710787374463314 0 1 0 I I #
point $-1 -67.257911923581645 36.721214768299681 -14.710787374463314 #
straight-curve $-1 -67.257911923581645 36.721214768299681 0 0 0 -1 I I #
coedge $-1 $305 $304 $315 $363 reversed $140 $-1 #
edge $-1 $364 -36.721214768299681 $308 36.721214768299681 $304 $382 forward 7 unknown #
straight-curve $-1 -79.946407128712309 36.721214768299681 -12.744605139090467 0 0 -1 I I #
point $-1 -79.946407128712309 36.721214768299681 -14.710787374463314 #
point $-1 -79.946407128712309 36.721214768299681 -10.778422903717621 #
edge $-1 $319 -1.9661822353728464 $364 1.9661822353728464 $358 $383 forward 7 unknown #
vertex $-1 $359 $384 #
straight-curve $-1 -73.602159526146977 -36.721214768299681 -14.710787374463314 -1 0 0 I I #
straight-curve $-1 -79.946407128712309 0 -10.778422903717621 0 -1 0 I I #
point $-1 -79.946407128712309 -36.721214768299681 -10.778422903717621 #
edge $-1 $332 -36.721214768299681 $369 36.721214768299681 $322 $385 forward 7 unknown #
vertex $-1 $324 $386 #
straight-curve $-1 79.946407128712309 -36.721214768299681 -12.744605139090467 0 0 -1 I I #
point $-1 79.946407128712309 -36.721214768299681 -10.778422903717621 #
point $-1 79.946407128712309 36.721214768299681 -10.778422903717621 #
straight-curve $-1 79.946407128712309 36.721214768299681 -12.744605139090467 0 0 -1 I I #
point $-1 79.946407128712309 36.721214768299681 -14.710787374463314 #
straight-curve $-1 73.602159526146977 -36.721214768299681 -14.710787374463314 -1 0 0 I I #
straight-curve $-1 39.852477861034927 -36.721214768299681 40.955380132736934 0 0 -1 I I #
point $-1 39.852477861034927 -36.721214768299681 14.710787374463314 #
straight-curve $-1 23.605473644871473 -36.721214768299681 10.628235570598141 1 0 0 I I #
point $-1 39.852477861034927 -36.721214768299681 10.628235570598131 #
point $-1 44.057317534582367 -33.844571724922986 11.669025478147347 #
point $-1 50.364577044903527 -33.844571724922986 11.669025478147347 #
straight-curve $-1 -79.946407128712309 0 -14.710787374463314 0 1 0 I I #
straight-curve $-1 -79.946407128712309 -36.721214768299681 -12.744605139090467 0 0 -1 I I #
point $-1 -79.946407128712309 -36.721214768299681 -14.710787374463314 #
straight-curve $-1 79.946407128712309 0 -14.710787374463314 0 -1 0 I I #
point $-1 79.946407128712309 -36.721214768299681 -14.710787374463314 #
End-of-ACIS-data 