500 0 3 0           
7 Unknown 11 ACIS 5.0 NT 24 Fri Mar 26 16:51:27 1999 
-1 9.9999999999999995e-007 1e-010 
body $-1 $3 $-1 $4 #
body $-1 $5 $-1 $6 #
body $-1 $7 $-1 $8 #
lump $-1 $-1 $9 $0 #
transform $-1 1 0 0 0 1 0 0 0 1 41.633350627155373 16.749015512626265 8.3536526327767966 1 rotate no_reflect no_shear #
lump $-1 $-1 $10 $1 #
transform $-1 1 0 0 0 1 0 0 0 1 41.633350627155373 16.749015512626265 8.3536526327767966 1 rotate no_reflect no_shear #
lump $-1 $-1 $11 $2 #
transform $-1 1 0 0 0 1 0 0 0 1 41.633350627155373 16.749015512626265 8.3536526327767966 1 rotate no_reflect no_shear #
shell $-1 $-1 $-1 $12 $-1 $3 #
shell $-1 $-1 $-1 $13 $-1 $5 #
shell $-1 $-1 $-1 $14 $-1 $7 #
face $-1 $15 $16 $9 $-1 $17 forward single #
face $-1 $18 $19 $10 $-1 $20 forward single #
face $-1 $21 $22 $11 $-1 $23 reversed single #
face $-1 $24 $25 $9 $-1 $26 reversed single #
loop $-1 $-1 $27 $12 #
plane-surface $-1 0 0 8.3536526327767966 0 0 1 1 0 0 forward_v I I I I #
face $-1 $28 $29 $10 $-1 $30 forward single #
loop $-1 $-1 $31 $13 #
plane-surface $-1 -32.235645228716045 -12.758535790537067 0 1 0 0 0 0 -1 forward_v I I I I #
face $-1 $32 $33 $11 $-1 $34 forward single #
loop $-1 $-1 $35 $14 #
plane-surface $-1 0 11.74551997139227 6.6958246116766382 0 0 1 1 0 0 forward_v I I I I #
face $-1 $36 $37 $9 $-1 $38 reversed single #
loop $-1 $-1 $39 $15 #
plane-surface $-1 0 0 -8.3536526327767966 0 0 1 1 0 0 forward_v I I I I #
coedge $-1 $40 $41 $42 $43 forward $16 $-1 #
face $-1 $44 $45 $10 $-1 $46 forward single #
loop $-1 $-1 $47 $18 #
plane-surface $-1 -30.735645228716045 -8.7680560684478692 0 0 -1 0 0 0 -1 forward_v I I I I #
coedge $-1 $48 $49 $50 $51 reversed $19 $-1 #
face $-1 $52 $53 $11 $-1 $54 forward single #
loop $-1 $-1 $55 $21 #
plane-surface $-1 0 11.74551997139227 3.6958246116766382 0 0 1 1 0 0 forward_v I I I I #
coedge $-1 $56 $57 $58 $59 reversed $22 $-1 #
face $-1 $60 $61 $9 $-1 $62 reversed single #
loop $-1 $-1 $63 $24 #
plane-surface $-1 0 -16.749015512626265 0 0 1 0 0 0 1 forward_v I I I I #
coedge $-1 $64 $65 $66 $67 forward $25 $-1 #
coedge $-1 $68 $27 $69 $70 forward $16 $-1 #
coedge $-1 $27 $68 $71 $72 forward $16 $-1 #
coedge $-1 $73 $74 $27 $43 reversed $75 $-1 #
edge $-1 $76 -16.749015512626265 $77 16.749015512626265 $42 $78 forward 7 unknown #
face $-1 $79 $80 $10 $-1 $81 forward single #
loop $-1 $-1 $82 $28 #
plane-surface $-1 -29.235645228716045 -12.758535790537067 0 -1 0 0 0 0 1 forward_v I I I I #
coedge $-1 $83 $84 $85 $86 reversed $29 $-1 #
coedge $-1 $87 $31 $88 $89 reversed $19 $-1 #
coedge $-1 $31 $87 $90 $91 reversed $19 $-1 #
coedge $-1 $84 $83 $31 $51 forward $29 $-1 #
edge $-1 $92 -8.3536526327767966 $93 8.3536526327767966 $50 $94 forward 7 unknown #
face $-1 $95 $96 $11 $-1 $97 reversed single #
loop $-1 $-1 $98 $32 #
plane-surface $-1 0 6.7420244301582741 5.1958246116766382 0 1 0 0 0 1 forward_v I I I I #
coedge $-1 $99 $100 $101 $102 reversed $33 $-1 #
coedge $-1 $103 $35 $104 $105 reversed $22 $-1 #
coedge $-1 $35 $103 $106 $107 reversed $22 $-1 #
coedge $-1 $108 $109 $35 $59 forward $110 $-1 #
edge $-1 $111 0.86926444446213935 $112 10.87625552693013 $58 $113 forward 7 unknown #
face $-1 $114 $115 $9 $-1 $116 reversed single #
loop $-1 $-1 $117 $36 #
plane-surface $-1 -41.633350627155373 0 0 1 0 0 0 0 -1 forward_v I I I I #
coedge $-1 $118 $71 $119 $120 forward $37 $-1 #
coedge $-1 $121 $39 $118 $122 forward $25 $-1 #
coedge $-1 $39 $121 $123 $124 forward $25 $-1 #
coedge $-1 $74 $73 $39 $67 reversed $75 $-1 #
edge $-1 $125 -16.749015512626265 $126 16.749015512626265 $66 $127 forward 7 unknown #
coedge $-1 $41 $40 $128 $129 forward $16 $-1 #
coedge $-1 $130 $131 $40 $70 reversed $115 $-1 #
edge $-1 $77 -41.633350627155373 $132 41.633350627155373 $69 $133 forward 7 unknown #
coedge $-1 $63 $134 $41 $72 reversed $37 $-1 #
edge $-1 $135 -41.633350627155373 $76 41.633350627155373 $71 $136 forward 7 unknown #
coedge $-1 $66 $42 $134 $137 forward $75 $-1 #
coedge $-1 $42 $66 $130 $138 reversed $75 $-1 #
loop $-1 $-1 $73 $114 #
vertex $-1 $43 $139 #
vertex $-1 $43 $140 #
straight-curve $-1 41.633350627155373 0 8.3536526327767966 0 1 0 I I #
face $-1 $141 $142 $10 $-1 $143 reversed single #
loop $-1 $-1 $88 $44 #
plane-surface $-1 0 0 8.3536526327767966 0 0 1 1 0 0 forward_v I I I I #
coedge $-1 $144 $145 $146 $147 reversed $45 $-1 #
coedge $-1 $50 $47 $148 $149 reversed $29 $-1 #
coedge $-1 $47 $50 $150 $151 reversed $29 $-1 #
coedge $-1 $145 $144 $47 $86 forward $45 $-1 #
edge $-1 $152 -8.3536526327767966 $153 8.3536526327767966 $85 $154 forward 7 unknown #
coedge $-1 $49 $48 $155 $156 reversed $19 $-1 #
coedge $-1 $148 $157 $48 $89 forward $80 $-1 #
edge $-1 $158 -10.369747617357731 $92 -2.3887881731793357 $88 $159 forward 7 unknown #
coedge $-1 $160 $150 $49 $91 forward $161 $-1 #
edge $-1 $93 2.3887881731793357 $162 10.369747617357731 $90 $163 forward 7 unknown #
vertex $-1 $89 $164 #
vertex $-1 $91 $165 #
straight-curve $-1 -32.235645228716045 -8.7680560684478692 0 0 0 -1 I I #
face $-1 $166 $167 $11 $-1 $97 reversed single #
loop $-1 $-1 $168 $52 #
plane-surface $-1 0 16.749015512626265 0 0 -1 0 0 0 -1 forward_v I I I I #
coedge $-1 $104 $169 $170 $171 reversed $53 $-1 #
coedge $-1 $172 $55 $168 $173 reversed $33 $-1 #
coedge $-1 $55 $172 $169 $174 reversed $33 $-1 #
coedge $-1 $109 $175 $55 $102 forward $110 $-1 #
edge $-1 $176 -10.87625552693013 $177 -0.86926444446213935 $101 $178 forward 7 unknown #
coedge $-1 $57 $56 $179 $180 reversed $22 $-1 #
coedge $-1 $181 $98 $56 $105 forward $53 $-1 #
edge $-1 $182 -41.633350627155373 $111 41.633350627155373 $104 $183 forward 7 unknown #
coedge $-1 $184 $185 $57 $107 forward $167 $-1 #
edge $-1 $112 -41.633350627155373 $186 41.633350627155373 $106 $187 forward 7 unknown #
coedge $-1 $188 $58 $185 $189 reversed $110 $-1 #
coedge $-1 $58 $101 $181 $190 forward $110 $-1 #
loop $-1 $-1 $58 $191 #
vertex $-1 $59 $192 #
vertex $-1 $107 $193 #
straight-curve $-1 41.633350627155373 5.8727599856961348 6.6958246116766382 0 1 0 I I #
face $-1 $-1 $75 $9 $-1 $194 reversed single #
loop $-1 $-1 $130 $60 #
plane-surface $-1 0 16.749015512626265 0 0 -1 0 0 0 -1 forward_v I I I I #
coedge $-1 $195 $128 $131 $196 forward $61 $-1 #
coedge $-1 $134 $63 $64 $122 reversed $37 $-1 #
coedge $-1 $128 $195 $63 $120 reversed $61 $-1 #
edge $-1 $135 -8.3536526327767966 $197 8.3536526327767966 $119 $198 forward 7 unknown #
coedge $-1 $65 $64 $195 $199 forward $25 $-1 #
edge $-1 $126 -41.633350627155373 $197 41.633350627155373 $118 $200 forward 7 unknown #
coedge $-1 $131 $130 $65 $124 reversed $115 $-1 #
edge $-1 $201 -41.633350627155373 $125 41.633350627155373 $123 $202 forward 7 unknown #
vertex $-1 $67 $203 #
vertex $-1 $137 $204 #
straight-curve $-1 41.633350627155373 0 -8.3536526327767966 0 -1 0 I I #
coedge $-1 $117 $119 $68 $129 reversed $61 $-1 #
edge $-1 $132 -16.749015512626265 $135 16.749015512626265 $128 $205 forward 7 unknown #
coedge $-1 $123 $69 $74 $138 forward $115 $-1 #
coedge $-1 $69 $123 $117 $196 reversed $115 $-1 #
vertex $-1 $70 $206 #
straight-curve $-1 0 16.749015512626265 8.3536526327767966 -1 0 0 I I #
coedge $-1 $71 $118 $73 $137 reversed $37 $-1 #
vertex $-1 $129 $207 #
straight-curve $-1 0 -16.749015512626265 8.3536526327767966 1 0 0 I I #
edge $-1 $76 -8.3536526327767966 $126 8.3536526327767966 $73 $208 forward 7 unknown #
edge $-1 $77 -8.3536526327767966 $125 8.3536526327767966 $74 $209 forward 7 unknown #
point $-1 41.633350627155373 -16.749015512626265 8.3536526327767966 #
point $-1 41.633350627155373 16.749015512626265 8.3536526327767966 #
face $-1 $210 $161 $10 $-1 $211 reversed single #
loop $-1 $-1 $146 $79 #
plane-surface $-1 0 -16.749015512626265 0 0 1 0 0 0 1 forward_v I I I I #
coedge $-1 $85 $82 $212 $213 reversed $45 $-1 #
coedge $-1 $82 $85 $214 $215 reversed $45 $-1 #
coedge $-1 $216 $217 $82 $147 forward $142 $-1 #
edge $-1 $218 -8.3536526327767966 $219 8.3536526327767966 $146 $220 forward 7 unknown #
coedge $-1 $212 $88 $83 $149 forward $80 $-1 #
edge $-1 $92 -16.867822614358023 $152 -13.867822614358023 $148 $221 forward 7 unknown #
coedge $-1 $90 $214 $84 $151 forward $161 $-1 #
edge $-1 $153 13.867822614358023 $93 16.867822614358023 $150 $222 forward 7 unknown #
vertex $-1 $149 $223 #
vertex $-1 $151 $224 #
straight-curve $-1 -29.235645228716045 -8.7680560684478692 0 0 0 -1 I I #
coedge $-1 $225 $226 $87 $156 forward $227 $-1 #
edge $-1 $162 -8.3536526327767966 $158 8.3536526327767966 $155 $228 forward 7 unknown #
coedge $-1 $88 $229 $225 $230 forward $80 $-1 #
vertex $-1 $156 $231 #
straight-curve $-1 -32.235645228716045 -6.3792678952685336 8.3536526327767966 0 1 0 I I #
coedge $-1 $232 $90 $226 $233 forward $161 $-1 #
loop $-1 $-1 $90 $141 #
vertex $-1 $233 $234 #
straight-curve $-1 -32.235645228716045 -6.3792678952685336 -8.3536526327767966 0 -1 0 I I #
point $-1 -32.235645228716045 -8.7680560684478692 8.3536526327767966 #
point $-1 -32.235645228716045 -8.7680560684478692 -8.3536526327767966 #
face $-1 $235 $236 $11 $-1 $237 reversed single #
loop $-1 $-1 $106 $95 #
coedge $-1 $238 $239 $99 $173 forward $96 $-1 #
coedge $-1 $98 $181 $100 $174 forward $53 $-1 #
coedge $-1 $240 $179 $98 $171 forward $236 $-1 #
edge $-1 $182 -4.0979123058383191 $241 -1.0979123058383191 $170 $242 forward 7 unknown #
coedge $-1 $100 $99 $240 $243 reversed $33 $-1 #
edge $-1 $244 -41.633350627155373 $176 41.633350627155373 $168 $245 forward 7 unknown #
edge $-1 $177 -41.633350627155373 $241 41.633350627155373 $169 $246 forward 7 unknown #
coedge $-1 $101 $247 $238 $248 reversed $110 $-1 #
vertex $-1 $248 $249 #
vertex $-1 $102 $250 #
straight-curve $-1 41.633350627155373 5.8727599856961348 3.6958246116766382 0 -1 0 I I #
coedge $-1 $170 $251 $103 $180 forward $236 $-1 #
edge $-1 $186 -10.87625552693013 $182 -0.86926444446213935 $179 $252 forward 7 unknown #
coedge $-1 $169 $104 $109 $190 reversed $53 $-1 #
vertex $-1 $180 $253 #
straight-curve $-1 0 6.7420244301582741 6.6958246116766382 1 0 0 I I #
coedge $-1 $254 $106 $251 $255 reversed $167 $-1 #
coedge $-1 $106 $254 $108 $189 forward $167 $-1 #
vertex $-1 $180 $256 #
straight-curve $-1 0 16.749015512626265 6.6958246116766382 -1 0 0 I I #
coedge $-1 $257 $108 $258 $259 reversed $110 $-1 #
edge $-1 $260 -8.3536526327767966 $112 -6.6958246116766382 $108 $261 forward 7 unknown #
edge $-1 $177 1.0979123058383191 $111 4.0979123058383191 $109 $262 forward 7 unknown #
face $-1 $-1 $110 $11 $-1 $263 reversed single #
point $-1 41.633350627155373 6.7420244301582741 6.6958246116766382 #
point $-1 41.633350627155373 16.749015512626265 6.6958246116766382 #
plane-surface $-1 41.633350627155373 0 0 -1 0 0 0 0 1 forward_v I I I I #
coedge $-1 $119 $117 $121 $199 reversed $61 $-1 #
edge $-1 $132 -8.3536526327767966 $201 8.3536526327767966 $131 $264 forward 7 unknown #
vertex $-1 $199 $265 #
straight-curve $-1 -41.633350627155373 -16.749015512626265 0 0 0 -1 I I #
edge $-1 $197 -16.749015512626265 $201 16.749015512626265 $195 $266 forward 7 unknown #
straight-curve $-1 0 -16.749015512626265 -8.3536526327767966 -1 0 0 I I #
vertex $-1 $124 $267 #
straight-curve $-1 0 16.749015512626265 -8.3536526327767966 1 0 0 I I #
point $-1 41.633350627155373 16.749015512626265 -8.3536526327767966 #
point $-1 41.633350627155373 -16.749015512626265 -8.3536526327767966 #
straight-curve $-1 -41.633350627155373 0 8.3536526327767966 0 -1 0 I I #
point $-1 -41.633350627155373 16.749015512626265 8.3536526327767966 #
point $-1 -41.633350627155373 -16.749015512626265 8.3536526327767966 #
straight-curve $-1 41.633350627155373 -16.749015512626265 0 0 0 -1 I I #
straight-curve $-1 41.633350627155373 16.749015512626265 0 0 0 -1 I I #
face $-1 $268 $227 $10 $-1 $143 reversed single #
plane-surface $-1 0 0 -8.3536526327767966 0 0 1 1 0 0 forward_v I I I I #
coedge $-1 $269 $148 $144 $213 forward $80 $-1 #
edge $-1 $152 2.3887881731793357 $218 10.369747617357731 $212 $270 forward 7 unknown #
coedge $-1 $150 $271 $145 $215 forward $161 $-1 #
edge $-1 $219 -10.369747617357731 $153 -2.3887881731793357 $214 $272 forward 7 unknown #
coedge $-1 $273 $146 $271 $274 reversed $142 $-1 #
coedge $-1 $146 $273 $269 $275 reversed $142 $-1 #
vertex $-1 $275 $276 #
vertex $-1 $147 $277 #
straight-curve $-1 -29.235645228716045 -16.749015512626265 0 0 0 -1 I I #
straight-curve $-1 -15.367822614358023 -8.7680560684478692 8.3536526327767966 1 0 0 I I #
straight-curve $-1 -15.367822614358023 -8.7680560684478692 -8.3536526327767966 -1 0 0 I I #
point $-1 -29.235645228716045 -8.7680560684478692 8.3536526327767966 #
point $-1 -29.235645228716045 -8.7680560684478692 -8.3536526327767966 #
coedge $-1 $278 $155 $157 $230 reversed $227 $-1 #
coedge $-1 $155 $278 $160 $233 reversed $227 $-1 #
loop $-1 $-1 $155 $210 #
straight-curve $-1 -32.235645228716045 -16.749015512626265 0 0 0 1 I I #
coedge $-1 $157 $279 $280 $281 forward $80 $-1 #
edge $-1 $282 -41.633350627155373 $158 -32.235645228716045 $225 $283 forward 7 unknown #
point $-1 -32.235645228716045 -16.749015512626265 8.3536526327767966 #
coedge $-1 $284 $160 $285 $286 forward $161 $-1 #
edge $-1 $162 32.235645228716045 $287 41.633350627155373 $226 $288 forward 7 unknown #
point $-1 -32.235645228716045 -16.749015512626265 -8.3536526327767966 #
face $-1 $289 $290 $11 $-1 $291 forward single #
loop $-1 $-1 $179 $166 #
plane-surface $-1 -41.633350627155373 0 0 1 0 0 0 0 -1 forward_v I I I I #
coedge $-1 $292 $168 $175 $248 forward $96 $-1 #
coedge $-1 $168 $292 $293 $294 reversed $96 $-1 #
coedge $-1 $293 $170 $172 $243 forward $236 $-1 #
vertex $-1 $243 $295 #
straight-curve $-1 -41.633350627155373 6.7420244301582741 2.5979123058383191 0 0 -1 I I #
edge $-1 $241 0.86926444446213935 $244 10.87625552693013 $240 $296 forward 7 unknown #
vertex $-1 $294 $297 #
straight-curve $-1 0 16.749015512626265 3.6958246116766382 1 0 0 I I #
straight-curve $-1 0 6.7420244301582741 3.6958246116766382 -1 0 0 I I #
coedge $-1 $175 $257 $298 $299 reversed $110 $-1 #
edge $-1 $176 -3.6958246116766382 $300 8.3536526327767966 $175 $261 forward 7 unknown #
point $-1 41.633350627155373 16.749015512626265 3.6958246116766382 #
point $-1 41.633350627155373 6.7420244301582741 3.6958246116766382 #
coedge $-1 $179 $301 $184 $255 forward $236 $-1 #
straight-curve $-1 -41.633350627155373 5.8727599856961348 6.6958246116766382 0 -1 0 I I #
point $-1 -41.633350627155373 6.7420244301582741 6.6958246116766382 #
coedge $-1 $185 $184 $302 $303 reversed $167 $-1 #
edge $-1 $304 -8.3536526327767966 $186 -6.6958246116766382 $184 $305 forward 7 unknown #
point $-1 -41.633350627155373 16.749015512626265 6.6958246116766382 #
coedge $-1 $247 $188 $306 $307 forward $110 $-1 #
coedge $-1 $302 $308 $188 $259 forward $309 $-1 #
edge $-1 $310 -16.749015512626265 $260 16.749015512626265 $188 $311 forward 7 unknown #
vertex $-1 $259 $312 #
straight-curve $-1 41.633350627155373 16.749015512626265 0 0 0 -1 I I #
straight-curve $-1 41.633350627155373 6.7420244301582741 2.5979123058383191 0 0 1 I I #
plane-surface $-1 41.633350627155373 0 0 -1 0 0 0 0 1 forward_v I I I I #
straight-curve $-1 -41.633350627155373 16.749015512626265 0 0 0 -1 I I #
point $-1 -41.633350627155373 -16.749015512626265 -8.3536526327767966 #
straight-curve $-1 -41.633350627155373 0 -8.3536526327767966 0 1 0 I I #
point $-1 -41.633350627155373 16.749015512626265 -8.3536526327767966 #
face $-1 $313 $314 $10 $-1 $315 reversed single #
coedge $-1 $316 $212 $217 $275 forward $80 $-1 #
straight-curve $-1 -29.235645228716045 -6.3792678952685336 8.3536526327767966 0 -1 0 I I #
coedge $-1 $214 $317 $216 $274 forward $161 $-1 #
straight-curve $-1 -29.235645228716045 -6.3792678952685336 -8.3536526327767966 0 1 0 I I #
coedge $-1 $217 $216 $318 $319 reversed $142 $-1 #
edge $-1 $320 -41.633350627155373 $219 29.235645228716045 $216 $288 forward 7 unknown #
edge $-1 $218 -29.235645228716045 $321 41.633350627155373 $217 $283 forward 7 unknown #
point $-1 -29.235645228716045 -16.749015512626265 8.3536526327767966 #
point $-1 -29.235645228716045 -16.749015512626265 -8.3536526327767966 #
coedge $-1 $226 $225 $322 $323 forward $227 $-1 #
coedge $-1 $229 $316 $324 $325 forward $80 $-1 #
coedge $-1 $326 $322 $229 $281 reversed $314 $-1 #
edge $-1 $327 -16.749015512626265 $282 16.749015512626265 $280 $328 forward 7 unknown #
vertex $-1 $281 $329 #
straight-curve $-1 0 -16.749015512626265 8.3536526327767966 1 0 0 I I #
coedge $-1 $317 $232 $330 $331 forward $161 $-1 #
coedge $-1 $322 $326 $232 $286 reversed $314 $-1 #
edge $-1 $287 -16.749015512626265 $332 16.749015512626265 $285 $333 forward 7 unknown #
vertex $-1 $286 $334 #
straight-curve $-1 0 -16.749015512626265 -8.3536526327767966 -1 0 0 I I #
face $-1 $335 $336 $11 $-1 $337 forward single #
loop $-1 $-1 $338 $235 #
plane-surface $-1 -32.235645228716045 -12.758535790537067 0 1 0 0 0 0 -1 forward_v I I I I #
coedge $-1 $239 $238 $339 $340 reversed $96 $-1 #
coedge $-1 $341 $240 $239 $294 forward $236 $-1 #
edge $-1 $244 -3.6958246116766382 $342 8.3536526327767966 $239 $305 forward 7 unknown #
point $-1 -41.633350627155373 6.7420244301582741 3.6958246116766382 #
straight-curve $-1 -41.633350627155373 5.8727599856961348 3.6958246116766382 0 1 0 I I #
point $-1 -41.633350627155373 16.749015512626265 3.6958246116766382 #
coedge $-1 $343 $339 $247 $299 forward $344 $-1 #
edge $-1 $300 -16.749015512626265 $345 16.749015512626265 $247 $346 forward 7 unknown #
vertex $-1 $299 $347 #
coedge $-1 $251 $348 $349 $350 reversed $236 $-1 #
coedge $-1 $349 $258 $254 $303 forward $309 $-1 #
edge $-1 $260 -41.633350627155373 $304 41.633350627155373 $254 $351 forward 7 unknown #
vertex $-1 $303 $352 #
straight-curve $-1 -41.633350627155373 16.749015512626265 0 0 0 -1 I I #
coedge $-1 $353 $354 $257 $307 reversed $355 $-1 #
edge $-1 $310 -8.3536526327767966 $345 8.3536526327767966 $257 $356 forward 7 unknown #
coedge $-1 $258 $357 $353 $358 forward $309 $-1 #
loop $-1 $-1 $359 $360 #
vertex $-1 $259 $361 #
straight-curve $-1 41.633350627155373 0 8.3536526327767966 0 1 0 I I #
point $-1 41.633350627155373 16.749015512626265 8.3536526327767966 #
face $-1 $362 $363 $10 $-1 $364 reversed single #
loop $-1 $-1 $326 $268 #
plane-surface $-1 -41.633350627155373 0 0 1 0 0 0 0 -1 forward_v I I I I #
coedge $-1 $279 $269 $365 $366 forward $80 $-1 #
coedge $-1 $271 $284 $367 $368 forward $161 $-1 #
coedge $-1 $367 $365 $273 $319 forward $369 $-1 #
edge $-1 $321 -8.3536526327767966 $320 8.3536526327767966 $318 $370 forward 7 unknown #
vertex $-1 $319 $371 #
vertex $-1 $366 $372 #
coedge $-1 $280 $285 $278 $323 reversed $314 $-1 #
edge $-1 $282 -8.3536526327767966 $287 8.3536526327767966 $322 $373 forward 7 unknown #
coedge $-1 $374 $375 $279 $325 reversed $363 $-1 #
edge $-1 $376 -41.633350627155373 $327 41.633350627155373 $324 $377 forward 7 unknown #
coedge $-1 $285 $280 $375 $378 forward $314 $-1 #
vertex $-1 $325 $379 #
straight-curve $-1 -41.633350627155373 0 8.3536526327767966 0 -1 0 I I #
point $-1 -41.633350627155373 -16.749015512626265 8.3536526327767966 #
coedge $-1 $375 $374 $284 $331 reversed $363 $-1 #
edge $-1 $332 -41.633350627155373 $380 41.633350627155373 $330 $381 forward 7 unknown #
vertex $-1 $331 $382 #
straight-curve $-1 -41.633350627155373 0 -8.3536526327767966 0 1 0 I I #
point $-1 -41.633350627155373 -16.749015512626265 -8.3536526327767966 #
face $-1 $360 $383 $11 $-1 $384 forward single #
loop $-1 $-1 $385 $289 #
plane-surface $-1 -30.735645228716045 -8.7680560684478692 0 0 -1 0 0 0 -1 forward_v I I I I #
coedge $-1 $386 $387 $388 $389 reversed $290 $-1 #
coedge $-1 $298 $390 $292 $340 forward $344 $-1 #
edge $-1 $342 -41.633350627155373 $300 41.633350627155373 $292 $391 forward 7 unknown #
coedge $-1 $348 $293 $390 $392 reversed $236 $-1 #
vertex $-1 $340 $393 #
coedge $-1 $394 $298 $354 $395 forward $344 $-1 #
loop $-1 $-1 $396 $397 #
vertex $-1 $307 $398 #
straight-curve $-1 41.633350627155373 0 -8.3536526327767966 0 -1 0 I I #
point $-1 41.633350627155373 16.749015512626265 -8.3536526327767966 #
coedge $-1 $301 $341 $399 $400 reversed $236 $-1 #
coedge $-1 $401 $302 $301 $350 forward $309 $-1 #
edge $-1 $304 -16.749015512626265 $402 16.749015512626265 $301 $403 forward 7 unknown #
straight-curve $-1 0 16.749015512626265 8.3536526327767966 -1 0 0 I I #
point $-1 -41.633350627155373 16.749015512626265 8.3536526327767966 #
coedge $-1 $404 $306 $308 $358 reversed $355 $-1 #
coedge $-1 $306 $404 $343 $395 reversed $355 $-1 #
loop $-1 $-1 $404 $405 #
straight-curve $-1 41.633350627155373 -16.749015512626265 0 0 0 -1 I I #
coedge $-1 $308 $406 $407 $408 forward $309 $-1 #
edge $-1 $409 -29.235645228716045 $310 41.633350627155373 $353 $410 forward 7 unknown #
coedge $-1 $406 $401 $386 $411 forward $309 $-1 #
face $-1 $405 $309 $11 $-1 $412 forward single #
point $-1 41.633350627155373 -16.749015512626265 8.3536526327767966 #
face $-1 $-1 $369 $10 $-1 $413 reversed single #
loop $-1 $-1 $374 $313 #
plane-surface $-1 0 16.749015512626265 0 0 -1 0 0 0 -1 forward_v I I I I #
coedge $-1 $318 $414 $316 $366 reversed $369 $-1 #
edge $-1 $321 -16.749015512626265 $376 16.749015512626265 $365 $415 forward 7 unknown #
coedge $-1 $414 $318 $317 $368 reversed $369 $-1 #
edge $-1 $380 -16.749015512626265 $320 16.749015512626265 $367 $416 forward 7 unknown #
loop $-1 $-1 $318 $362 #
straight-curve $-1 41.633350627155373 -16.749015512626265 0 0 0 -1 I I #
point $-1 41.633350627155373 -16.749015512626265 -8.3536526327767966 #
point $-1 41.633350627155373 -16.749015512626265 8.3536526327767966 #
straight-curve $-1 -41.633350627155373 -16.749015512626265 0 0 0 -1 I I #
coedge $-1 $330 $324 $414 $417 forward $363 $-1 #
coedge $-1 $324 $330 $326 $378 reversed $363 $-1 #
vertex $-1 $366 $418 #
straight-curve $-1 0 16.749015512626265 8.3536526327767966 -1 0 0 I I #
edge $-1 $327 -8.3536526327767966 $332 8.3536526327767966 $375 $419 forward 7 unknown #
point $-1 -41.633350627155373 16.749015512626265 8.3536526327767966 #
vertex $-1 $368 $420 #
straight-curve $-1 0 16.749015512626265 -8.3536526327767966 1 0 0 I I #
point $-1 -41.633350627155373 16.749015512626265 -8.3536526327767966 #
loop $-1 $-1 $421 $335 #
plane-surface $-1 -29.235645228716045 -12.758535790537067 0 -1 0 0 0 0 1 forward_v I I I I #
coedge $-1 $422 $423 $424 $425 reversed $336 $-1 #
coedge $-1 $426 $338 $359 $411 reversed $290 $-1 #
coedge $-1 $338 $426 $396 $427 reversed $290 $-1 #
coedge $-1 $423 $422 $338 $389 forward $336 $-1 #
edge $-1 $428 -8.3536526327767966 $429 8.3536526327767966 $388 $430 forward 7 unknown #
coedge $-1 $339 $431 $341 $392 forward $344 $-1 #
straight-curve $-1 0 16.749015512626265 -8.3536526327767966 1 0 0 I I #
edge $-1 $432 -16.749015512626265 $342 16.749015512626265 $341 $433 forward 7 unknown #
point $-1 -41.633350627155373 16.749015512626265 -8.3536526327767966 #
coedge $-1 $434 $343 $435 $436 forward $344 $-1 #
edge $-1 $345 -41.633350627155373 $437 29.235645228716045 $354 $438 forward 7 unknown #
coedge $-1 $431 $434 $387 $427 forward $344 $-1 #
face $-1 $439 $344 $11 $-1 $440 reversed single #
point $-1 41.633350627155373 -16.749015512626265 -8.3536526327767966 #
coedge $-1 $441 $442 $348 $400 forward $443 $-1 #
edge $-1 $402 -8.3536526327767966 $432 8.3536526327767966 $348 $444 forward 7 unknown #
coedge $-1 $359 $349 $442 $445 forward $309 $-1 #
vertex $-1 $350 $446 #
straight-curve $-1 -41.633350627155373 0 8.3536526327767966 0 -1 0 I I #
coedge $-1 $354 $353 $421 $447 forward $355 $-1 #
face $-1 $397 $355 $11 $-1 $448 reversed single #
coedge $-1 $357 $359 $422 $449 forward $309 $-1 #
coedge $-1 $424 $421 $357 $408 reversed $383 $-1 #
edge $-1 $450 2.3887881731793357 $409 10.369747617357731 $357 $451 forward 7 unknown #
vertex $-1 $358 $452 #
straight-curve $-1 0 -16.749015512626265 8.3536526327767966 1 0 0 I I #
edge $-1 $453 -10.369747617357731 $428 -2.3887881731793357 $359 $454 forward 7 unknown #
plane-surface $-1 0 0 8.3536526327767966 0 0 1 1 0 0 forward_v I I I I #
plane-surface $-1 41.633350627155373 0 0 -1 0 0 0 0 1 forward_v I I I I #
coedge $-1 $365 $367 $374 $417 reversed $369 $-1 #
straight-curve $-1 41.633350627155373 0 8.3536526327767966 0 1 0 I I #
straight-curve $-1 41.633350627155373 0 -8.3536526327767966 0 -1 0 I I #
edge $-1 $376 -8.3536526327767966 $380 8.3536526327767966 $414 $455 forward 7 unknown #
point $-1 41.633350627155373 16.749015512626265 8.3536526327767966 #
straight-curve $-1 -41.633350627155373 16.749015512626265 0 0 0 -1 I I #
point $-1 41.633350627155373 16.749015512626265 -8.3536526327767966 #
coedge $-1 $407 $435 $404 $447 reversed $383 $-1 #
coedge $-1 $388 $385 $406 $449 reversed $336 $-1 #
coedge $-1 $385 $388 $434 $456 reversed $336 $-1 #
coedge $-1 $435 $407 $385 $425 forward $383 $-1 #
edge $-1 $450 -8.3536526327767966 $457 8.3536526327767966 $424 $458 forward 7 unknown #
coedge $-1 $387 $386 $459 $460 reversed $290 $-1 #
edge $-1 $429 2.3887881731793357 $461 10.369747617357731 $396 $462 forward 7 unknown #
vertex $-1 $411 $463 #
vertex $-1 $427 $464 #
straight-curve $-1 -32.235645228716045 -8.7680560684478692 0 0 0 -1 I I #
coedge $-1 $390 $396 $441 $465 forward $344 $-1 #
vertex $-1 $392 $466 #
straight-curve $-1 -41.633350627155373 0 -8.3536526327767966 0 1 0 I I #
coedge $-1 $396 $394 $423 $456 forward $344 $-1 #
coedge $-1 $421 $424 $394 $436 reversed $383 $-1 #
edge $-1 $437 -10.369747617357731 $457 -2.3887881731793357 $394 $467 forward 7 unknown #
vertex $-1 $447 $468 #
straight-curve $-1 0 -16.749015512626265 -8.3536526327767966 -1 0 0 I I #
face $-1 $191 $443 $11 $-1 $448 reversed single #
plane-surface $-1 0 0 -8.3536526327767966 0 0 1 1 0 0 forward_v I I I I #
coedge $-1 $459 $399 $431 $465 reversed $443 $-1 #
coedge $-1 $399 $459 $401 $445 reversed $443 $-1 #
loop $-1 $-1 $459 $439 #
straight-curve $-1 -41.633350627155373 -16.749015512626265 0 0 0 -1 I I #
edge $-1 $402 -41.633350627155373 $453 -32.235645228716045 $442 $410 forward 7 unknown #
point $-1 -41.633350627155373 -16.749015512626265 8.3536526327767966 #
edge $-1 $409 -8.3536526327767966 $437 8.3536526327767966 $404 $469 forward 7 unknown #
plane-surface $-1 0 -16.749015512626265 0 0 1 0 0 0 1 forward_v I I I I #
edge $-1 $428 -16.867822614358023 $450 -13.867822614358023 $406 $470 forward 7 unknown #
vertex $-1 $449 $471 #
straight-curve $-1 -29.235645228716045 -6.3792678952685336 8.3536526327767966 0 -1 0 I I #
point $-1 -29.235645228716045 -16.749015512626265 8.3536526327767966 #
vertex $-1 $460 $472 #
straight-curve $-1 -32.235645228716045 -6.3792678952685336 8.3536526327767966 0 1 0 I I #
straight-curve $-1 41.633350627155373 16.749015512626265 0 0 0 -1 I I #
edge $-1 $457 13.867822614358023 $429 16.867822614358023 $434 $473 forward 7 unknown #
vertex $-1 $456 $474 #
straight-curve $-1 -29.235645228716045 -8.7680560684478692 0 0 0 -1 I I #
coedge $-1 $442 $441 $426 $460 forward $443 $-1 #
edge $-1 $461 -8.3536526327767966 $453 8.3536526327767966 $459 $475 forward 7 unknown #
vertex $-1 $465 $476 #
straight-curve $-1 -32.235645228716045 -6.3792678952685336 -8.3536526327767966 0 -1 0 I I #
point $-1 -32.235645228716045 -8.7680560684478692 8.3536526327767966 #
point $-1 -32.235645228716045 -8.7680560684478692 -8.3536526327767966 #
edge $-1 $461 32.235645228716045 $432 41.633350627155373 $441 $438 forward 7 unknown #
point $-1 -41.633350627155373 -16.749015512626265 -8.3536526327767966 #
straight-curve $-1 -29.235645228716045 -6.3792678952685336 -8.3536526327767966 0 1 0 I I #
point $-1 -29.235645228716045 -16.749015512626265 -8.3536526327767966 #
straight-curve $-1 -29.235645228716045 -16.749015512626265 0 0 0 -1 I I #
straight-curve $-1 -15.367822614358023 -8.7680560684478692 8.3536526327767966 1 0 0 I I #
point $-1 -29.235645228716045 -8.7680560684478692 8.3536526327767966 #
point $-1 -32.235645228716045 -16.749015512626265 8.3536526327767966 #
straight-curve $-1 -15.367822614358023 -8.7680560684478692 -8.3536526327767966 -1 0 0 I I #
point $-1 -29.235645228716045 -8.7680560684478692 -8.3536526327767966 #
straight-curve $-1 -32.235645228716045 -16.749015512626265 0 0 0 1 I I #
point $-1 -32.235645228716045 -16.749015512626265 -8.3536526327767966 #
End-of-ACIS-data 