500 0 7 0           
7 Unknown 11 ACIS 5.0 NT 24 Fri Mar 26 00:26:39 1999 
-1 9.9999999999999995e-007 1e-010 
body $-1 $7 $-1 $8 #
body $-1 $9 $-1 $10 #
body $-1 $11 $-1 $12 #
body $-1 $13 $-1 $14 #
body $-1 $15 $-1 $16 #
body $-1 $17 $-1 $18 #
body $-1 $19 $-1 $20 #
lump $-1 $-1 $21 $0 #
transform $-1 1 0 0 0 1 0 0 0 1 78.426465651417587 50.193225231967475 24.227609757189978 1 rotate no_reflect no_shear #
lump $-1 $-1 $22 $1 #
transform $-1 1 0 0 0 1 0 0 0 1 78.426465651417587 50.193225231967475 24.227609757189978 1 rotate no_reflect no_shear #
lump $-1 $-1 $23 $2 #
transform $-1 1 0 0 0 1 0 0 0 1 78.426465651417587 50.193225231967475 24.227609757189978 1 rotate no_reflect no_shear #
lump $-1 $-1 $24 $3 #
transform $-1 1 0 0 0 1 0 0 0 1 78.426465651417587 50.193225231967475 24.227609757189978 1 rotate no_reflect no_shear #
lump $-1 $-1 $25 $4 #
transform $-1 1 0 0 0 1 0 0 0 1 78.426465651417587 50.193225231967475 24.227609757189978 1 rotate no_reflect no_shear #
lump $-1 $-1 $26 $5 #
transform $-1 1 0 0 0 1 0 0 0 1 78.426465651417587 50.193225231967475 24.227609757189978 1 rotate no_reflect no_shear #
lump $-1 $-1 $27 $6 #
transform $-1 1 0 0 0 1 0 0 0 1 78.426465651417587 50.193225231967475 24.227609757189978 1 rotate no_reflect no_shear #
shell $-1 $-1 $-1 $28 $-1 $7 #
shell $-1 $-1 $-1 $29 $-1 $9 #
shell $-1 $-1 $-1 $30 $-1 $11 #
shell $-1 $-1 $-1 $31 $-1 $13 #
shell $-1 $-1 $-1 $32 $-1 $15 #
shell $-1 $-1 $-1 $33 $-1 $17 #
shell $-1 $-1 $-1 $34 $-1 $19 #
face $-1 $35 $36 $21 $-1 $37 reversed single #
face $-1 $38 $39 $22 $-1 $40 forward single #
face $-1 $41 $42 $23 $-1 $43 reversed single #
face $-1 $44 $45 $24 $-1 $46 forward single #
face $-1 $47 $48 $25 $-1 $49 reversed single #
face $-1 $50 $51 $26 $-1 $52 forward single #
face $-1 $53 $54 $27 $-1 $55 forward single #
face $-1 $56 $57 $21 $-1 $58 forward single #
loop $-1 $-1 $59 $28 #
plane-surface $-1 0 -50.193225231967475 0 0 1 0 0 0 1 forward_v I I I I #
face $-1 $60 $61 $22 $-1 $62 reversed single #
loop $-1 $-1 $63 $29 #
plane-surface $-1 0 -50.193225231967475 0 0 1 0 0 0 1 forward_v I I I I #
face $-1 $64 $65 $23 $-1 $66 reversed single #
loop $-1 $-1 $67 $30 #
plane-surface $-1 78.42646822513673 41.102020372509067 228.78064291376145 0 1 0 0.70710678939079041 0 0.70710677298230451 forward_v I I I I #
face $-1 $68 $69 $24 $-1 $70 forward single #
loop $-1 $71 $72 $31 #
cone-surface $-1 69.074770984400359 45.647622802238274 14.87591490641584 -0.70710678939079041 0 -0.70710677298230451 1.0606601594734568 0 -1.0606601840861856 1 I I 0 1 1.5 forward I I I I #
face $-1 $73 $74 $25 $-1 $75 reversed single #
loop $-1 $-1 $76 $32 #
plane-surface $-1 -202.02826354751738 41.914025093789732 100.9742313376768 0 1 0 -0.78801076186113728 0 0.61566146476048833 forward_v I I I I #
face $-1 $77 $78 $26 $-1 $79 forward single #
loop $-1 $80 $81 $33 #
cone-surface $-1 -70.207525892876944 44.279510847554803 13.945077743613647 0.78801076186113728 0 -0.61566146476048833 0.30783073238024417 0 0.39400538093056864 1 I I 0 1 0.5 forward I I I I #
face $-1 $82 $83 $27 $-1 $84 forward single #
loop $-1 $85 $86 $34 #
cone-surface $-1 -70.207525892876944 47.827739478202403 13.945077743613647 0.78801076186113728 0 -0.61566146476048833 0.30783073238024417 0 0.39400538093056864 1 I I 0 1 0.5 forward I I I I #
face $-1 $87 $88 $21 $-1 $89 reversed single #
loop $-1 $-1 $90 $35 #
plane-surface $-1 0 0 24.227609757189978 0 0 1 1 0 0 forward_v I I I I #
coedge $-1 $91 $92 $93 $94 reversed $36 $-1 #
face $-1 $95 $96 $22 $-1 $97 reversed single #
loop $-1 $-1 $98 $38 #
plane-surface $-1 0 0 -24.227609757189978 0 0 1 1 0 0 forward_v I I I I #
coedge $-1 $99 $100 $101 $102 forward $39 $-1 #
face $-1 $103 $104 $23 $-1 $105 reversed single #
loop $-1 $-1 $106 $41 #
plane-surface $-1 -32.485304434945263 45.647622802238274 117.86887282739858 0.70710678939079041 0 0.70710677298230451 0.70710677298230451 0 -0.70710678939079041 forward_v I I I I #
coedge $-1 $107 $108 $109 $110 reversed $42 $-1 #
face $-1 $-1 $111 $24 $-1 $112 forward single #
loop $-1 $113 $114 $44 #
cone-surface $-1 67.82800081989474 45.647622802238274 13.629144770841652 -0.70710678939079041 0 -0.70710677298230451 0.53033007973672841 0 -0.53033009204309278 1 I I -0.70710678118654757 0.70710678118654757 0.75 forward I I I I #
loop $-1 $-1 $115 $31 #
coedge $-1 $72 $72 $116 $117 reversed $45 $-1 #
face $-1 $118 $119 $25 $-1 $120 reversed single #
loop $-1 $-1 $121 $47 #
plane-surface $-1 -78.426465651417615 46.053625162878603 4.4059258997970403 -0.78801076186113728 0 0.61566146476048833 0.61566146476048833 0 0.78801076186113728 forward_v I I I I #
coedge $-1 $122 $123 $124 $125 reversed $48 $-1 #
face $-1 $-1 $126 $26 $-1 $127 forward single #
loop $-1 $128 $129 $50 #
cone-surface $-1 -69.534781575353108 44.279510847554803 13.41947229254367 0.78801076186113728 0 -0.61566146476048833 0.15391536619012208 0 0.19700269046528432 1 I I -0.70710678118654746 0.70710678118654746 0.25 forward I I I I #
loop $-1 $-1 $130 $33 #
coedge $-1 $81 $81 $131 $132 reversed $51 $-1 #
face $-1 $-1 $133 $27 $-1 $134 forward single #
loop $-1 $135 $136 $53 #
cone-surface $-1 -69.534781575353108 47.827739478202403 13.41947229254367 0.78801076186113728 0 -0.61566146476048833 0.15391536619012208 0 0.19700269046528432 1 I I -0.70710678118654746 0.70710678118654746 0.25 forward I I I I #
loop $-1 $-1 $137 $34 #
coedge $-1 $86 $86 $138 $139 reversed $54 $-1 #
face $-1 $140 $141 $21 $-1 $142 reversed single #
loop $-1 $-1 $143 $56 #
plane-surface $-1 0 0 -24.227609757189978 0 0 1 1 0 0 forward_v I I I I #
coedge $-1 $144 $145 $146 $147 forward $57 $-1 #
coedge $-1 $148 $59 $149 $150 reversed $36 $-1 #
coedge $-1 $59 $148 $151 $152 forward $36 $-1 #
coedge $-1 $153 $143 $59 $94 forward $88 $-1 #
edge $-1 $154 -78.426465651417587 $155 78.426465651417587 $59 $156 forward 7 unknown #
face $-1 $157 $158 $22 $-1 $159 reversed single #
loop $-1 $-1 $160 $60 #
plane-surface $-1 -36.58812600025577 -79.627785823358877 0 0 1 0 0 0 1 forward_v I I I I #
coedge $-1 $161 $162 $100 $163 forward $61 $-1 #
coedge $-1 $164 $63 $165 $166 reversed $39 $-1 #
coedge $-1 $63 $164 $98 $163 reversed $39 $-1 #
coedge $-1 $167 $168 $63 $102 reversed $158 $-1 #
edge $-1 $169 -24.227609757189978 $170 24.227609757189978 $101 $171 forward 7 unknown #
face $-1 $172 $173 $23 $-1 $174 forward single #
loop $-1 $-1 $175 $64 #
plane-surface $-1 0 50.193225231967475 0 0 -1 0 0 0 -1 forward_v I I I I #
coedge $-1 $176 $177 $178 $179 reversed $65 $-1 #
coedge $-1 $108 $67 $180 $181 reversed $42 $-1 #
coedge $-1 $67 $107 $176 $182 reversed $42 $-1 #
coedge $-1 $178 $183 $67 $110 forward $184 $-1 #
edge $-1 $185 90.162711699690746 $186 107.43322128956412 $109 $187 forward 7 unknown #
loop $-1 $-1 $116 $68 #
plane-surface $-1 -32.485304434945263 45.647622802238274 117.86887282739858 0.70710678939079041 0 0.70710677298230451 0.70710677298230451 0 -0.70710678939079041 forward_v I I I I #
loop $-1 $-1 $188 $44 #
coedge $-1 $114 $114 $115 $189 reversed $69 $-1 #
coedge $-1 $115 $115 $114 $189 forward $71 $-1 #
coedge $-1 $116 $116 $72 $117 forward $111 $-1 #
edge $-1 $190 0 $190 6.2831853071796004 $116 $191 forward 7 unknown #
face $-1 $192 $193 $25 $-1 $194 reversed single #
loop $-1 $-1 $195 $73 #
plane-surface $-1 0 50.193225231967475 0 0 -1 0 0 0 -1 forward_v I I I I #
coedge $-1 $196 $197 $198 $199 reversed $74 $-1 #
coedge $-1 $123 $76 $200 $201 reversed $48 $-1 #
coedge $-1 $76 $122 $196 $202 reversed $48 $-1 #
coedge $-1 $198 $203 $76 $125 forward $204 $-1 #
edge $-1 $205 22.587666122341105 $206 38.07406238530524 $124 $207 forward 7 unknown #
loop $-1 $-1 $131 $77 #
plane-surface $-1 -78.426465651417615 46.053625162878603 4.4059258997970403 -0.78801076186113728 0 0.61566146476048833 0.61566146476048833 0 0.78801076186113728 forward_v I I I I #
loop $-1 $-1 $208 $50 #
coedge $-1 $129 $129 $130 $209 reversed $78 $-1 #
coedge $-1 $130 $130 $129 $209 forward $80 $-1 #
coedge $-1 $131 $131 $81 $132 forward $126 $-1 #
edge $-1 $210 0 $210 6.2831853071796004 $131 $211 forward 7 unknown #
loop $-1 $-1 $138 $82 #
plane-surface $-1 -78.426465651417615 46.053625162878603 4.4059258997970403 -0.78801076186113728 0 0.61566146476048833 0.61566146476048833 0 0.78801076186113728 forward_v I I I I #
loop $-1 $-1 $212 $53 #
coedge $-1 $136 $136 $137 $213 reversed $83 $-1 #
coedge $-1 $137 $137 $136 $213 forward $85 $-1 #
coedge $-1 $138 $138 $86 $139 forward $133 $-1 #
edge $-1 $214 0 $214 6.2831853071796004 $138 $215 forward 7 unknown #
face $-1 $216 $217 $21 $-1 $218 reversed single #
loop $-1 $-1 $219 $87 #
plane-surface $-1 -78.426465651417587 0 0 1 0 0 0 0 -1 forward_v I I I I #
coedge $-1 $93 $220 $221 $222 forward $88 $-1 #
coedge $-1 $223 $90 $224 $225 forward $57 $-1 #
coedge $-1 $90 $223 $148 $226 forward $57 $-1 #
coedge $-1 $149 $227 $90 $147 reversed $228 $-1 #
edge $-1 $229 -50.193225231967475 $230 50.193225231967475 $146 $231 forward 7 unknown #
coedge $-1 $92 $91 $145 $226 reversed $36 $-1 #
coedge $-1 $221 $146 $91 $150 forward $228 $-1 #
edge $-1 $229 -24.227609757189978 $154 24.227609757189978 $149 $232 forward 7 unknown #
coedge $-1 $233 $234 $92 $152 reversed $141 $-1 #
edge $-1 $235 -24.227609757189978 $155 24.227609757189978 $151 $236 forward 7 unknown #
coedge $-1 $220 $93 $234 $237 forward $88 $-1 #
vertex $-1 $150 $238 #
vertex $-1 $237 $239 #
straight-curve $-1 0 -50.193225231967475 -24.227609757189978 -1 0 0 I I #
face $-1 $240 $241 $22 $-1 $242 reversed single #
loop $-1 $-1 $101 $95 #
plane-surface $-1 -43.205005863473914 -64.910505527663176 0 1 0 0 0 0 -1 forward_v I I I I #
coedge $-1 $243 $244 $245 $246 forward $96 $-1 #
coedge $-1 $247 $98 $248 $249 forward $61 $-1 #
coedge $-1 $98 $247 $167 $250 forward $61 $-1 #
edge $-1 $169 -43.205005863473914 $251 -29.971246137037628 $98 $252 forward 7 unknown #
coedge $-1 $100 $99 $253 $254 forward $39 $-1 #
coedge $-1 $255 $256 $99 $166 forward $257 $-1 #
edge $-1 $258 29.971246137037628 $170 43.205005863473914 $165 $259 forward 7 unknown #
coedge $-1 $245 $101 $162 $250 reversed $158 $-1 #
coedge $-1 $101 $245 $255 $260 reversed $158 $-1 #
vertex $-1 $163 $261 #
vertex $-1 $260 $262 #
straight-curve $-1 -43.205005863473914 -50.193225231967475 0 0 0 1 I I #
face $-1 $-1 $184 $23 $-1 $263 reversed single #
loop $-1 $-1 $264 $103 #
plane-surface $-1 0 0 24.227609757189978 0 0 1 1 0 0 forward_v I I I I #
coedge $-1 $265 $266 $177 $267 forward $104 $-1 #
coedge $-1 $268 $106 $108 $182 forward $65 $-1 #
coedge $-1 $106 $268 $175 $267 reversed $65 $-1 #
coedge $-1 $269 $109 $106 $179 forward $184 $-1 #
edge $-1 $186 18.27820897138993 $270 27.369413830848337 $178 $271 forward 7 unknown #
coedge $-1 $272 $264 $107 $181 forward $173 $-1 #
edge $-1 $273 21.942722349739803 $185 39.213231538849222 $180 $274 forward 7 unknown #
edge $-1 $186 -156.85293130283517 $273 -132.42874269512455 $108 $275 forward 7 unknown #
coedge $-1 $109 $269 $272 $276 reversed $184 $-1 #
loop $-1 $-1 $178 $172 #
vertex $-1 $276 $277 #
vertex $-1 $110 $278 #
straight-curve $-1 78.426465651417587 41.102020372509067 114.39032145688073 0 0 -1 I I #
coedge $-1 $188 $188 $-1 $279 reversed $113 $-1 #
edge $-1 $280 0 $280 6.2831853071796004 $114 $281 forward 7 unknown #
vertex $-1 $117 $282 #
ellipse-curve $-1 69.791211056862878 45.647622802238274 15.5923549622533 0.70710678939079041 0 0.70710677298230451 1.0606601594734568 0 -1.0606601840861856 1 I I #
face $-1 $-1 $204 $25 $-1 $283 forward single #
loop $-1 $-1 $284 $118 #
plane-surface $-1 -78.426465651417587 0 0 1 0 0 0 0 -1 forward_v I I I I #
coedge $-1 $285 $286 $197 $287 forward $119 $-1 #
coedge $-1 $288 $121 $123 $202 forward $74 $-1 #
coedge $-1 $121 $288 $195 $287 reversed $74 $-1 #
coedge $-1 $289 $124 $121 $199 forward $204 $-1 #
edge $-1 $206 18.88721251235043 $290 27.166412650528173 $198 $291 forward 7 unknown #
coedge $-1 $292 $284 $122 $201 forward $193 $-1 #
edge $-1 $293 -46.081189769041323 $205 -26.259505911648422 $200 $294 forward 7 unknown #
edge $-1 $206 -25.154077604952683 $293 -4.6193811539156697e-014 $123 $295 forward 7 unknown #
coedge $-1 $124 $289 $292 $296 forward $204 $-1 #
loop $-1 $-1 $198 $192 #
vertex $-1 $201 $297 #
vertex $-1 $125 $298 #
straight-curve $-1 -101.01413177375869 41.914025093789732 24.227609757189981 1 0 0 I I #
coedge $-1 $208 $208 $-1 $299 reversed $128 $-1 #
edge $-1 $300 0 $300 6.2831853071796004 $129 $301 forward 7 unknown #
vertex $-1 $132 $302 #
ellipse-curve $-1 -70.683267519935526 44.279510847554803 14.316767828493521 -0.78801076186113728 0 0.61566146476048833 0.30783073238024417 0 0.39400538093056864 1 I I #
coedge $-1 $212 $212 $-1 $303 reversed $135 $-1 #
edge $-1 $304 0 $304 6.2831853071796004 $136 $305 forward 7 unknown #
vertex $-1 $139 $306 #
ellipse-curve $-1 -70.683267519935526 47.827739478202403 14.316767828493521 -0.78801076186113728 0 0.61566146476048833 0.30783073238024417 0 0.39400538093056864 1 I I #
face $-1 $-1 $228 $21 $-1 $307 reversed single #
loop $-1 $-1 $308 $140 #
plane-surface $-1 0 50.193225231967475 0 0 -1 0 0 0 -1 forward_v I I I I #
coedge $-1 $234 $233 $309 $310 forward $141 $-1 #
coedge $-1 $143 $153 $311 $312 forward $88 $-1 #
coedge $-1 $227 $149 $143 $222 reversed $228 $-1 #
edge $-1 $313 -50.193225231967475 $154 50.193225231967475 $221 $314 forward 7 unknown #
coedge $-1 $145 $144 $233 $315 forward $57 $-1 #
coedge $-1 $308 $309 $144 $225 reversed $217 $-1 #
edge $-1 $230 -78.426465651417587 $316 78.426465651417587 $224 $317 forward 7 unknown #
edge $-1 $235 -78.426465651417587 $229 78.426465651417587 $148 $318 forward 7 unknown #
coedge $-1 $146 $221 $308 $319 reversed $228 $-1 #
loop $-1 $-1 $149 $216 #
vertex $-1 $147 $320 #
vertex $-1 $147 $321 #
straight-curve $-1 78.426465651417587 0 24.227609757189978 0 1 0 I I #
straight-curve $-1 78.426465651417587 -50.193225231967475 0 0 0 -1 I I #
coedge $-1 $219 $151 $223 $315 reversed $141 $-1 #
coedge $-1 $151 $219 $153 $237 reversed $141 $-1 #
vertex $-1 $315 $322 #
straight-curve $-1 -78.426465651417587 -50.193225231967475 0 0 0 -1 I I #
edge $-1 $155 -50.193225231967475 $323 50.193225231967475 $234 $324 forward 7 unknown #
point $-1 78.426465651417587 -50.193225231967475 -24.227609757189978 #
point $-1 -78.426465651417587 -50.193225231967475 -24.227609757189978 #
face $-1 $-1 $257 $22 $-1 $325 forward single #
loop $-1 $-1 $326 $157 #
plane-surface $-1 -29.971246137037628 -64.910505527663176 0 -1 0 0 0 0 1 forward_v I I I I #
coedge $-1 $327 $160 $247 $328 reversed $96 $-1 #
coedge $-1 $160 $327 $329 $330 reversed $96 $-1 #
coedge $-1 $168 $167 $160 $246 reversed $158 $-1 #
edge $-1 $331 -24.227609757189978 $332 24.227609757189978 $245 $333 forward 7 unknown #
coedge $-1 $162 $161 $243 $328 forward $61 $-1 #
coedge $-1 $253 $326 $161 $249 reversed $241 $-1 #
edge $-1 $251 -14.717280295695701 $334 14.717280295695701 $248 $335 forward 7 unknown #
edge $-1 $332 -14.717280295695701 $169 14.717280295695701 $167 $336 forward 7 unknown #
vertex $-1 $249 $337 #
straight-curve $-1 0 -50.193225231967475 -24.227609757189978 1 0 0 I I #
coedge $-1 $338 $248 $164 $254 reversed $241 $-1 #
edge $-1 $258 -24.227609757189978 $251 24.227609757189978 $253 $339 forward 7 unknown #
coedge $-1 $329 $165 $168 $260 forward $257 $-1 #
coedge $-1 $165 $329 $338 $340 forward $257 $-1 #
loop $-1 $-1 $165 $240 #
vertex $-1 $166 $341 #
straight-curve $-1 0 -50.193225231967475 24.227609757189978 -1 0 0 I I #
edge $-1 $170 -14.717280295695701 $331 14.717280295695701 $168 $342 forward 7 unknown #
point $-1 -43.205005863473914 -50.193225231967475 -24.227609757189978 #
point $-1 -43.205005863473914 -50.193225231967475 24.227609757189978 #
plane-surface $-1 78.426465651417587 0 0 -1 0 0 0 0 1 forward_v I I I I #
coedge $-1 $180 $343 $268 $344 forward $173 $-1 #
coedge $-1 $266 $175 $343 $345 reversed $104 $-1 #
coedge $-1 $175 $265 $269 $346 forward $104 $-1 #
edge $-1 $270 -103.69470179161759 $347 -79.270513183906985 $175 $348 forward 7 unknown #
coedge $-1 $177 $176 $264 $344 reversed $65 $-1 #
coedge $-1 $183 $178 $266 $346 reversed $184 $-1 #
vertex $-1 $179 $349 #
straight-curve $-1 78.426465651417587 22.823811401119137 6.957100167316618 0 1 0 I I #
coedge $-1 $343 $180 $183 $276 forward $173 $-1 #
vertex $-1 $181 $350 #
straight-curve $-1 39.213234112568365 41.102020372509067 24.227609757189981 1 0 0 I I #
straight-curve $-1 -32.485304434945263 41.102020372509067 117.86887282739858 -0.70710677298230451 0 0.70710678939079041 I I #
edge $-1 $185 41.102020372509067 $351 50.193225231967475 $183 $352 forward 7 unknown #
point $-1 78.426465651417587 41.102020372509067 24.227609757189978 #
point $-1 78.426465651417587 41.102020372509067 6.9571001673166109 #
edge $-1 $353 1 $353 0 $188 $-1 forward 7 unknown #
vertex $-1 $189 $354 #
ellipse-curve $-1 68.358330911937827 45.647622802238274 14.159474850578381 0.70710678939079041 0 0.70710677298230451 1.0606601594734568 0 -1.0606601840861856 1 I I #
point $-1 70.851871216336335 45.647622802238274 14.531694778167113 #
plane-surface $-1 0 0 24.227609757189978 0 0 1 1 0 0 forward_v I I I I #
coedge $-1 $200 $355 $288 $356 forward $193 $-1 #
coedge $-1 $286 $195 $355 $357 reversed $119 $-1 #
coedge $-1 $195 $285 $289 $358 reversed $119 $-1 #
edge $-1 $290 -2.7479597579841339 $359 22.406117846968506 $195 $360 forward 7 unknown #
coedge $-1 $197 $196 $284 $356 reversed $74 $-1 #
coedge $-1 $203 $198 $286 $358 forward $204 $-1 #
vertex $-1 $358 $361 #
straight-curve $-1 -62.940069388453445 23.026812581439302 24.227609757189978 0 1 0 I I #
coedge $-1 $355 $200 $203 $296 reversed $193 $-1 #
vertex $-1 $201 $362 #
straight-curve $-1 -78.426465651417587 41.914025093789732 50.487115668838399 0 0 1 I I #
straight-curve $-1 -78.426465651417615 41.914025093789732 4.4059258997970403 -0.61566146476048833 0 -0.78801076186113728 I I #
edge $-1 $363 -50.193225231967475 $205 -41.914025093789732 $292 $364 forward 7 unknown #
point $-1 -78.426465651417587 41.914025093789732 24.227609757189978 #
point $-1 -62.940069388453452 41.914025093789732 24.227609757189978 #
edge $-1 $365 1 $365 0 $208 $-1 forward 7 unknown #
vertex $-1 $209 $366 #
ellipse-curve $-1 -69.731784265818391 44.279510847554803 13.573387658733791 -0.78801076186113728 0 0.61566146476048833 0.30783073238024417 0 0.39400538093056864 1 I I #
point $-1 -70.375436787555245 44.279510847554803 14.710773209424069 #
edge $-1 $367 1 $367 0 $212 $-1 forward 7 unknown #
vertex $-1 $213 $368 #
ellipse-curve $-1 -69.731784265818391 47.827739478202403 13.573387658733791 -0.78801076186113728 0 0.61566146476048833 0.30783073238024417 0 0.39400538093056864 1 I I #
point $-1 -70.375436787555245 47.827739478202403 14.710773209424069 #
plane-surface $-1 78.426465651417587 0 0 -1 0 0 0 0 1 forward_v I I I I #
coedge $-1 $311 $224 $227 $319 forward $217 $-1 #
coedge $-1 $224 $311 $219 $310 reversed $217 $-1 #
edge $-1 $316 -24.227609757189978 $323 24.227609757189978 $309 $369 forward 7 unknown #
coedge $-1 $309 $308 $220 $312 reversed $217 $-1 #
edge $-1 $323 -78.426465651417587 $313 78.426465651417587 $311 $370 forward 7 unknown #
vertex $-1 $222 $371 #
straight-curve $-1 78.426465651417587 0 -24.227609757189978 0 -1 0 I I #
edge $-1 $316 -50.193225231967475 $235 50.193225231967475 $233 $372 forward 7 unknown #
vertex $-1 $225 $373 #
straight-curve $-1 0 50.193225231967475 24.227609757189978 -1 0 0 I I #
straight-curve $-1 0 -50.193225231967475 24.227609757189978 1 0 0 I I #
edge $-1 $230 -24.227609757189978 $313 24.227609757189978 $227 $374 forward 7 unknown #
point $-1 78.426465651417587 -50.193225231967475 24.227609757189978 #
point $-1 78.426465651417587 50.193225231967475 24.227609757189978 #
point $-1 -78.426465651417587 -50.193225231967475 24.227609757189978 #
vertex $-1 $312 $375 #
straight-curve $-1 -78.426465651417587 0 -24.227609757189978 0 1 0 I I #
plane-surface $-1 0 0 24.227609757189978 0 0 1 1 0 0 forward_v I I I I #
coedge $-1 $248 $338 $327 $376 forward $241 $-1 #
coedge $-1 $244 $243 $326 $376 reversed $96 $-1 #
edge $-1 $334 -6.6168798632181414 $332 6.6168798632181449 $243 $377 forward 7 unknown #
coedge $-1 $256 $255 $244 $330 forward $257 $-1 #
edge $-1 $331 -6.6168798632181449 $378 6.6168798632181414 $244 $379 forward 7 unknown #
vertex $-1 $260 $380 #
vertex $-1 $250 $381 #
straight-curve $-1 -43.205005863473914 -79.627785823358877 0 0 0 -1 I I #
vertex $-1 $376 $382 #
straight-curve $-1 -29.971246137037628 -64.910505527663176 -24.227609757189978 0 -1 0 I I #
straight-curve $-1 -43.205005863473914 -64.910505527663176 -24.227609757189978 0 1 0 I I #
point $-1 -29.971246137037628 -50.193225231967475 -24.227609757189978 #
coedge $-1 $326 $253 $256 $340 reversed $241 $-1 #
straight-curve $-1 -29.971246137037628 -50.193225231967475 0 0 0 -1 I I #
edge $-1 $378 -14.717280295695701 $258 14.717280295695701 $338 $383 forward 7 unknown #
point $-1 -29.971246137037628 -50.193225231967475 24.227609757189978 #
straight-curve $-1 -43.205005863473914 -64.910505527663176 24.227609757189978 0 -1 0 I I #
coedge $-1 $264 $272 $265 $345 forward $173 $-1 #
edge $-1 $347 -27.369413830848345 $273 -18.27820897138993 $264 $384 forward 7 unknown #
edge $-1 $351 -78.426465651417587 $347 -61.155956462308168 $265 $385 forward 7 unknown #
edge $-1 $351 -24.227609757189978 $270 -6.9571001673166233 $269 $386 forward 7 unknown #
vertex $-1 $344 $387 #
straight-curve $-1 5.1032396921844807 50.193225231967475 80.280327828022777 -0.70710677298230462 0 0.70710678939079052 I I #
point $-1 78.426465651417587 50.193225231967475 6.9571001673166233 #
point $-1 61.155956462308168 41.102020372509067 24.227609757189995 #
vertex $-1 $276 $388 #
straight-curve $-1 78.426465651417587 0 24.227609757189978 0 1 0 I I #
vertex $-1 $279 $389 #
point $-1 69.418991071411284 45.647622802238274 13.098814666492196 #
coedge $-1 $284 $292 $285 $357 forward $193 $-1 #
edge $-1 $359 -27.166412650528173 $293 -18.88721251235043 $284 $390 forward 7 unknown #
edge $-1 $363 -24.227609757189978 $359 -4.4059258997970767 $285 $391 forward 7 unknown #
edge $-1 $290 62.940069388453452 $363 78.426465651417587 $286 $392 forward 7 unknown #
vertex $-1 $356 $393 #
straight-curve $-1 -64.63188231815684 50.193225231967475 22.062187894737153 -0.61566146476048833 0 -0.78801076186113728 I I #
point $-1 -62.940069388453452 50.193225231967475 24.227609757189978 #
point $-1 -78.426465651417587 41.914025093789732 4.4059258997970767 #
vertex $-1 $358 $394 #
straight-curve $-1 -78.426465651417587 0 24.227609757189978 0 -1 0 I I #
vertex $-1 $299 $395 #
point $-1 -69.423953533438151 44.279510847554803 13.96739303966436 #
vertex $-1 $303 $396 #
point $-1 -69.423953533438151 47.827739478202403 13.96739303966436 #
straight-curve $-1 -78.426465651417587 50.193225231967475 0 0 0 -1 I I #
straight-curve $-1 0 50.193225231967475 -24.227609757189978 1 0 0 I I #
point $-1 78.426465651417587 50.193225231967475 -24.227609757189978 #
straight-curve $-1 -78.426465651417587 0 24.227609757189978 0 -1 0 I I #
point $-1 -78.426465651417587 50.193225231967475 24.227609757189978 #
straight-curve $-1 78.426465651417587 50.193225231967475 0 0 0 -1 I I #
point $-1 -78.426465651417587 50.193225231967475 -24.227609757189978 #
edge $-1 $378 -24.227609757189978 $334 24.227609757189978 $326 $397 forward 7 unknown #
straight-curve $-1 -36.58812600025577 -79.627785823358877 -24.227609757189978 -1 0 0 I I #
vertex $-1 $340 $398 #
straight-curve $-1 -36.58812600025577 -79.627785823358877 24.227609757189978 1 0 0 I I #
point $-1 -43.205005863473914 -79.627785823358877 24.227609757189978 #
point $-1 -43.205005863473914 -79.627785823358877 -24.227609757189978 #
point $-1 -29.971246137037628 -79.627785823358877 -24.227609757189978 #
straight-curve $-1 -29.971246137037628 -64.910505527663176 24.227609757189978 0 1 0 I I #
straight-curve $-1 61.15595646230819 22.823811401119137 24.227609757189967 0 -1 0 I I #
straight-curve $-1 0 50.193225231967475 24.227609757189978 -1 0 0 I I #
straight-curve $-1 78.426465651417587 50.193225231967475 0 0 0 -1 I I #
point $-1 61.155956462308168 50.193225231967482 24.227609757189995 #
point $-1 78.426465651417587 50.193225231967475 24.227609757189978 #
point $-1 67.297670727851653 45.647622802238274 13.098814691104923 #
straight-curve $-1 -78.426465651417587 23.026812581439302 4.4059258997970758 0 -1 0 I I #
straight-curve $-1 -78.426465651417587 50.193225231967475 0 0 0 -1 I I #
straight-curve $-1 0 50.193225231967475 24.227609757189978 -1 0 0 I I #
point $-1 -78.426465651417587 50.193225231967475 4.4059258997970767 #
point $-1 -78.426465651417587 50.193225231967475 24.227609757189978 #
point $-1 -69.337778884887825 44.279510847554803 13.265556926353549 #
point $-1 -69.337778884887825 47.827739478202403 13.265556926353549 #
straight-curve $-1 -29.971246137037628 -79.627785823358877 0 0 0 -1 I I #
point $-1 -29.971246137037628 -79.627785823358877 24.227609757189978 #
End-of-ACIS-data 