500 0 5 0           
7 Unknown 11 ACIS 5.0 NT 24 Thu Mar 25 23:23:53 1999 
-1 9.9999999999999995e-007 1e-010 
body $-1 $5 $-1 $6 #
body $-1 $7 $-1 $8 #
body $-1 $9 $-1 $10 #
body $-1 $11 $-1 $12 #
body $-1 $13 $-1 $14 #
lump $-1 $-1 $15 $0 #
transform $-1 1 0 0 0 1 0 0 0 1 79.422589800714135 50.202484067336982 15.392905581106845 1 rotate no_reflect no_shear #
lump $-1 $-1 $16 $1 #
transform $-1 1 0 0 0 1 0 0 0 1 79.422589800714135 50.202484067336982 15.392905581106845 1 rotate no_reflect no_shear #
lump $-1 $-1 $17 $2 #
transform $-1 1 0 0 0 1 0 0 0 1 79.422589800714135 50.202484067336982 15.392905581106845 1 rotate no_reflect no_shear #
lump $-1 $-1 $18 $3 #
transform $-1 1 0 0 0 1 0 0 0 1 79.422589800714135 50.202484067336982 15.392905581106845 1 rotate no_reflect no_shear #
lump $-1 $-1 $19 $4 #
transform $-1 1 0 0 0 1 0 0 0 1 79.422589800714135 50.202484067336982 15.392905581106845 1 rotate no_reflect no_shear #
shell $-1 $-1 $-1 $20 $-1 $5 #
shell $-1 $-1 $-1 $21 $-1 $7 #
shell $-1 $-1 $-1 $22 $-1 $9 #
shell $-1 $-1 $-1 $23 $-1 $11 #
shell $-1 $-1 $-1 $24 $-1 $13 #
face $-1 $25 $26 $15 $-1 $27 forward single #
face $-1 $28 $29 $16 $-1 $30 reversed single #
face $-1 $31 $32 $17 $-1 $33 reversed single #
face $-1 $34 $35 $18 $-1 $36 reversed single #
face $-1 $37 $38 $19 $-1 $39 forward single #
face $-1 $40 $41 $15 $-1 $42 reversed single #
loop $-1 $-1 $43 $20 #
plane-surface $-1 0 0 15.392905581106845 0 0 1 1 0 0 forward_v I I I I #
face $-1 $44 $45 $16 $-1 $46 reversed single #
loop $-1 $-1 $47 $21 #
plane-surface $-1 -73.873984519044711 0 10.405185139295149 0 0 1 1 0 0 forward_v I I I I #
face $-1 $48 $49 $17 $-1 $50 reversed single #
loop $-1 $-1 $51 $22 #
plane-surface $-1 73.873984519044726 0 10.405185139295149 0 0 1 1 0 0 forward_v I I I I #
face $-1 $52 $53 $18 $-1 $54 reversed single #
loop $-1 $-1 $55 $23 #
plane-surface $-1 50.750928641960243 -177.06188640321056 100.83933703976666 -1 0 0 0 -0.79863551827123203 0.60181501223851219 forward_v I I I I #
face $-1 $56 $57 $19 $-1 $58 forward single #
loop $-1 $59 $60 $24 #
cone-surface $-1 30.701213410747911 -45.071076274024982 9.3331391260658325 0 0.79863551827123203 -0.60181501223851219 1.5 0 0 1 I I 0 1 1.5 forward I I I I #
face $-1 $61 $62 $15 $-1 $63 reversed single #
loop $-1 $-1 $64 $25 #
plane-surface $-1 0 0 -15.392905581106845 0 0 1 1 0 0 forward_v I I I I #
coedge $-1 $65 $66 $67 $68 forward $26 $-1 #
face $-1 $69 $70 $16 $-1 $71 reversed single #
loop $-1 $-1 $72 $28 #
plane-surface $-1 -68.325379237375287 0 12.899045360200997 -1 0 0 0 0 1 forward_v I I I I #
coedge $-1 $73 $74 $75 $76 forward $29 $-1 #
face $-1 $77 $78 $17 $-1 $79 forward single #
loop $-1 $-1 $80 $31 #
plane-surface $-1 68.325379237375301 0 12.899045360200997 1 0 0 0 0 -1 forward_v I I I I #
coedge $-1 $81 $82 $83 $84 reversed $32 $-1 #
face $-1 $85 $86 $18 $-1 $87 reversed single #
loop $-1 $-1 $88 $34 #
plane-surface $-1 30.701213410747911 -50.202484067336968 5.2439233339044335 0 -0.79863551827123203 0.60181501223851219 1 0 0 forward_v I I I I #
coedge $-1 $89 $90 $91 $92 reversed $35 $-1 #
face $-1 $-1 $93 $19 $-1 $94 forward single #
loop $-1 $95 $96 $37 #
cone-surface $-1 30.701213410747911 -43.164595071689249 7.8965025354471443 0 0.79863551827123203 -0.60181501223851219 0.75 0 0 1 I I -0.70710678118654757 0.70710678118654757 0.75 forward I I I I #
loop $-1 $-1 $97 $24 #
coedge $-1 $60 $60 $98 $99 reversed $38 $-1 #
face $-1 $100 $101 $15 $-1 $102 reversed single #
loop $-1 $-1 $103 $40 #
plane-surface $-1 0 -50.202484067336982 0 0 1 0 0 0 1 forward_v I I I I #
coedge $-1 $104 $105 $106 $107 forward $41 $-1 #
coedge $-1 $108 $43 $109 $110 forward $26 $-1 #
coedge $-1 $43 $108 $111 $112 forward $26 $-1 #
coedge $-1 $113 $114 $43 $68 reversed $115 $-1 #
edge $-1 $116 -50.202484067336982 $117 50.202484067336982 $67 $118 forward 7 unknown #
face $-1 $119 $120 $16 $-1 $121 reversed single #
loop $-1 $-1 $122 $44 #
plane-surface $-1 0 50.202484067336982 0 0 -1 0 0 0 -1 forward_v I I I I #
coedge $-1 $75 $123 $124 $125 reversed $45 $-1 #
coedge $-1 $126 $47 $127 $128 reversed $29 $-1 #
coedge $-1 $47 $126 $129 $130 reversed $29 $-1 #
coedge $-1 $131 $72 $47 $76 reversed $45 $-1 #
edge $-1 $132 -50.202484067336982 $133 50.202484067336982 $75 $134 forward 7 unknown #
face $-1 $135 $136 $17 $-1 $137 reversed single #
loop $-1 $-1 $138 $48 #
plane-surface $-1 0 0 15.392905581106845 0 0 1 1 0 0 forward_v I I I I #
coedge $-1 $139 $140 $141 $142 reversed $49 $-1 #
coedge $-1 $143 $51 $144 $145 reversed $32 $-1 #
coedge $-1 $51 $143 $146 $147 reversed $32 $-1 #
coedge $-1 $148 $149 $51 $84 forward $150 $-1 #
edge $-1 $151 -50.202484067336982 $152 50.202484067336982 $83 $153 forward 7 unknown #
face $-1 $154 $155 $18 $-1 $156 forward single #
loop $-1 $-1 $157 $52 #
plane-surface $-1 10.651498179535579 -177.06188640321056 100.83933703976666 1 0 0 0 0.79863551827123203 -0.60181501223851219 forward_v I I I I #
coedge $-1 $158 $159 $160 $161 reversed $53 $-1 #
coedge $-1 $90 $55 $162 $163 reversed $35 $-1 #
coedge $-1 $55 $89 $158 $164 reversed $35 $-1 #
coedge $-1 $160 $165 $55 $92 forward $155 $-1 #
edge $-1 $166 38.3284591342683 $167 45.976265593627701 $91 $168 forward 7 unknown #
loop $-1 $-1 $98 $56 #
plane-surface $-1 30.701213410747911 -50.202484067336968 5.2439233339044335 0 -0.79863551827123203 0.60181501223851219 1 0 0 forward_v I I I I #
loop $-1 $-1 $169 $37 #
coedge $-1 $96 $96 $97 $170 reversed $57 $-1 #
coedge $-1 $97 $97 $96 $170 forward $59 $-1 #
coedge $-1 $98 $98 $60 $99 forward $93 $-1 #
edge $-1 $171 9.3232920540117349e-016 $171 6.2831853071796013 $98 $172 forward 7 unknown #
face $-1 $173 $174 $15 $-1 $175 reversed single #
loop $-1 $-1 $176 $61 #
plane-surface $-1 -79.422589800714135 0 0 1 0 0 0 0 -1 forward_v I I I I #
coedge $-1 $177 $111 $178 $179 forward $62 $-1 #
coedge $-1 $180 $64 $177 $181 forward $41 $-1 #
coedge $-1 $64 $180 $182 $183 forward $41 $-1 #
coedge $-1 $114 $113 $64 $107 reversed $115 $-1 #
edge $-1 $184 -50.202484067336982 $185 50.202484067336982 $106 $186 forward 7 unknown #
coedge $-1 $66 $65 $187 $188 forward $26 $-1 #
coedge $-1 $189 $190 $65 $110 reversed $174 $-1 #
edge $-1 $117 -79.422589800714135 $191 79.422589800714135 $109 $192 forward 7 unknown #
coedge $-1 $103 $193 $66 $112 reversed $62 $-1 #
edge $-1 $194 -79.422589800714135 $116 79.422589800714135 $111 $195 forward 7 unknown #
coedge $-1 $106 $67 $193 $196 forward $115 $-1 #
coedge $-1 $67 $106 $189 $197 reversed $115 $-1 #
loop $-1 $-1 $113 $173 #
vertex $-1 $68 $198 #
vertex $-1 $68 $199 #
straight-curve $-1 79.422589800714135 0 15.392905581106845 0 1 0 I I #
face $-1 $200 $201 $16 $-1 $202 forward single #
loop $-1 $-1 $203 $69 #
plane-surface $-1 -79.422589800714135 0 0 1 0 0 0 0 -1 forward_v I I I I #
coedge $-1 $129 $204 $131 $205 forward $70 $-1 #
coedge $-1 $72 $131 $206 $207 reversed $45 $-1 #
coedge $-1 $208 $127 $72 $125 forward $209 $-1 #
edge $-1 $133 3.9556624591946505 $210 8.9433829010063466 $124 $211 forward 7 unknown #
coedge $-1 $74 $73 $203 $212 reversed $29 $-1 #
coedge $-1 $124 $213 $73 $128 forward $209 $-1 #
edge $-1 $214 -42.48559754119178 $133 -31.388386977852932 $127 $215 forward 7 unknown #
coedge $-1 $216 $122 $74 $130 forward $70 $-1 #
edge $-1 $132 31.388386977852932 $217 42.48559754119178 $129 $218 forward 7 unknown #
coedge $-1 $123 $75 $122 $205 reversed $45 $-1 #
vertex $-1 $130 $219 #
vertex $-1 $128 $220 #
straight-curve $-1 -68.325379237375287 0 10.405185139295149 0 -1 0 I I #
face $-1 $221 $222 $17 $-1 $223 reversed single #
loop $-1 $-1 $224 $77 #
plane-surface $-1 0 -50.202484067336982 0 0 1 0 0 0 1 forward_v I I I I #
coedge $-1 $225 $226 $140 $227 forward $78 $-1 #
coedge $-1 $228 $80 $143 $229 reversed $49 $-1 #
coedge $-1 $80 $228 $138 $227 reversed $49 $-1 #
coedge $-1 $230 $146 $80 $142 forward $222 $-1 #
edge $-1 $231 3.9556624591946505 $232 8.9433829010063466 $141 $233 forward 7 unknown #
coedge $-1 $82 $81 $139 $229 forward $32 $-1 #
coedge $-1 $234 $224 $81 $145 forward $136 $-1 #
edge $-1 $235 31.388386977852939 $151 42.485597541191787 $144 $236 forward 7 unknown #
coedge $-1 $141 $237 $82 $147 forward $222 $-1 #
edge $-1 $152 -42.485597541191787 $231 -31.388386977852939 $146 $238 forward 7 unknown #
coedge $-1 $239 $83 $237 $240 reversed $150 $-1 #
coedge $-1 $83 $239 $234 $241 forward $150 $-1 #
loop $-1 $-1 $83 $221 #
vertex $-1 $145 $242 #
vertex $-1 $84 $243 #
straight-curve $-1 79.422589800714135 0 10.405185139295149 0 1 0 I I #
face $-1 $-1 $244 $18 $-1 $245 reversed single #
loop $-1 $-1 $91 $85 #
plane-surface $-1 0 0 15.392905581106845 0 0 1 1 0 0 forward_v I I I I #
coedge $-1 $246 $247 $248 $249 reversed $86 $-1 #
coedge $-1 $250 $88 $90 $164 forward $53 $-1 #
coedge $-1 $88 $250 $246 $251 forward $53 $-1 #
coedge $-1 $248 $91 $88 $161 forward $155 $-1 #
edge $-1 $167 -35.400321936586288 $252 4.6991085258383762 $160 $253 forward 7 unknown #
coedge $-1 $254 $255 $89 $163 forward $244 $-1 #
edge $-1 $256 -45.175745185978919 $166 -35.026762938776486 $162 $257 forward 7 unknown #
edge $-1 $167 -12.707902434857173 $256 2.3448253187574213e-014 $90 $258 forward 7 unknown #
coedge $-1 $91 $248 $254 $259 forward $155 $-1 #
vertex $-1 $163 $260 #
vertex $-1 $92 $261 #
straight-curve $-1 50.750928641960243 -88.530943201605282 15.392905581106845 0 1 0 I I #
coedge $-1 $169 $169 $-1 $262 reversed $95 $-1 #
edge $-1 $263 0 $263 6.2831853071796004 $96 $264 forward 7 unknown #
vertex $-1 $99 $265 #
ellipse-curve $-1 30.701213410747911 -46.378580837657282 10.318414457505629 0 -0.79863551827123203 0.60181501223851219 1.5 0 0 1 I I #
face $-1 $-1 $115 $15 $-1 $266 reversed single #
loop $-1 $-1 $189 $100 #
plane-surface $-1 0 50.202484067336982 0 0 -1 0 0 0 -1 forward_v I I I I #
coedge $-1 $267 $187 $190 $268 forward $101 $-1 #
coedge $-1 $193 $103 $104 $181 reversed $62 $-1 #
coedge $-1 $187 $267 $103 $179 reversed $101 $-1 #
edge $-1 $194 -15.392905581106845 $269 15.392905581106845 $178 $270 forward 7 unknown #
coedge $-1 $105 $104 $267 $271 forward $41 $-1 #
edge $-1 $185 -79.422589800714135 $269 79.422589800714135 $177 $272 forward 7 unknown #
coedge $-1 $190 $189 $105 $183 reversed $174 $-1 #
edge $-1 $273 -79.422589800714135 $184 79.422589800714135 $182 $274 forward 7 unknown #
vertex $-1 $107 $275 #
vertex $-1 $196 $276 #
straight-curve $-1 79.422589800714135 0 -15.392905581106845 0 -1 0 I I #
coedge $-1 $176 $178 $108 $188 reversed $101 $-1 #
edge $-1 $191 -50.202484067336982 $194 50.202484067336982 $187 $277 forward 7 unknown #
coedge $-1 $182 $109 $114 $197 forward $174 $-1 #
coedge $-1 $109 $182 $176 $268 reversed $174 $-1 #
vertex $-1 $110 $278 #
straight-curve $-1 0 50.202484067336982 15.392905581106845 -1 0 0 I I #
coedge $-1 $111 $177 $113 $196 reversed $62 $-1 #
vertex $-1 $188 $279 #
straight-curve $-1 0 -50.202484067336982 15.392905581106845 1 0 0 I I #
edge $-1 $116 -15.392905581106845 $185 15.392905581106845 $113 $280 forward 7 unknown #
edge $-1 $117 -15.392905581106845 $184 15.392905581106845 $114 $281 forward 7 unknown #
point $-1 79.422589800714135 -50.202484067336982 15.392905581106845 #
point $-1 79.422589800714135 50.202484067336982 15.392905581106845 #
face $-1 $-1 $209 $16 $-1 $282 reversed single #
loop $-1 $-1 $206 $119 #
plane-surface $-1 0 0 15.392905581106845 0 0 1 1 0 0 forward_v I I I I #
coedge $-1 $283 $284 $126 $212 forward $120 $-1 #
coedge $-1 $122 $216 $285 $286 reversed $70 $-1 #
edge $-1 $287 -8.9433829010063466 $132 -3.9556624591946505 $122 $288 forward 7 unknown #
coedge $-1 $285 $289 $123 $207 forward $201 $-1 #
edge $-1 $210 -50.202484067336982 $287 50.202484067336982 $206 $290 forward 7 unknown #
coedge $-1 $213 $124 $289 $291 reversed $209 $-1 #
loop $-1 $-1 $124 $200 #
vertex $-1 $125 $292 #
straight-curve $-1 -68.325379237375287 -50.202484067336982 6.4495226801004986 0 0 1 I I #
edge $-1 $217 -50.202484067336982 $214 50.202484067336982 $203 $293 forward 7 unknown #
coedge $-1 $127 $208 $283 $294 forward $209 $-1 #
vertex $-1 $212 $295 #
straight-curve $-1 -36.936992259522356 -50.202484067336982 10.405185139295149 1 0 0 I I #
coedge $-1 $204 $129 $284 $296 reversed $70 $-1 #
vertex $-1 $212 $297 #
straight-curve $-1 -36.936992259522356 50.202484067336982 10.405185139295149 -1 0 0 I I #
point $-1 -68.325379237375287 50.202484067336982 10.405185139295149 #
point $-1 -68.325379237375287 -50.202484067336982 10.405185139295149 #
face $-1 $-1 $150 $17 $-1 $298 reversed single #
loop $-1 $-1 $141 $135 #
plane-surface $-1 0 50.202484067336982 0 0 -1 0 0 0 -1 forward_v I I I I #
coedge $-1 $144 $299 $228 $300 forward $136 $-1 #
coedge $-1 $301 $138 $299 $302 forward $78 $-1 #
coedge $-1 $138 $301 $230 $303 forward $78 $-1 #
edge $-1 $232 -50.202484067336982 $304 50.202484067336982 $138 $305 forward 7 unknown #
coedge $-1 $140 $139 $224 $300 reversed $49 $-1 #
edge $-1 $235 -50.202484067336982 $231 50.202484067336982 $139 $306 forward 7 unknown #
coedge $-1 $237 $141 $226 $303 reversed $222 $-1 #
vertex $-1 $147 $307 #
vertex $-1 $142 $308 #
straight-curve $-1 68.325379237375301 50.202484067336982 6.4495226801004986 0 0 1 I I #
coedge $-1 $299 $144 $149 $241 reversed $136 $-1 #
vertex $-1 $145 $309 #
straight-curve $-1 36.936992259522363 -50.202484067336982 10.405185139295149 1 0 0 I I #
coedge $-1 $146 $230 $148 $240 forward $222 $-1 #
straight-curve $-1 36.936992259522363 50.202484067336982 10.405185139295149 -1 0 0 I I #
coedge $-1 $149 $148 $301 $310 reversed $150 $-1 #
edge $-1 $311 -15.392905581106845 $152 -10.405185139295149 $148 $312 forward 7 unknown #
edge $-1 $313 -15.392905581106845 $151 -10.405185139295149 $149 $314 forward 7 unknown #
point $-1 79.42258980071415 -50.202484067336982 10.405185139295149 #
point $-1 79.42258980071415 50.202484067336982 10.405185139295149 #
loop $-1 $-1 $162 $154 #
plane-surface $-1 0 -50.202484067336982 0 0 1 0 0 0 1 forward_v I I I I #
coedge $-1 $247 $157 $159 $251 reversed $86 $-1 #
coedge $-1 $157 $246 $315 $316 reversed $86 $-1 #
coedge $-1 $165 $160 $157 $249 forward $155 $-1 #
edge $-1 $252 -45.976265593627701 $317 -38.3284591342683 $248 $318 forward 7 unknown #
coedge $-1 $159 $158 $255 $319 reversed $53 $-1 #
edge $-1 $320 -2.3448253187574213e-014 $252 12.707902434857173 $246 $321 forward 7 unknown #
vertex $-1 $161 $322 #
straight-curve $-1 15.350606705373956 -42.554677607977574 15.392905581106845 -1 0 0 I I #
coedge $-1 $315 $162 $165 $259 reversed $244 $-1 #
coedge $-1 $162 $315 $250 $319 forward $244 $-1 #
vertex $-1 $163 $323 #
straight-curve $-1 50.750928641960243 -50.202484067336982 50.419668519883331 0 0 1 I I #
straight-curve $-1 50.750928641960243 -50.202484067336968 5.2439233339044335 0 -0.60181501223851219 -0.79863551827123203 I I #
edge $-1 $317 10.651498179535579 $166 50.750928641960243 $254 $324 forward 7 unknown #
point $-1 50.750928641960243 -50.202484067336982 15.392905581106845 #
point $-1 50.750928641960243 -42.554677607977581 15.392905581106845 #
edge $-1 $325 1 $325 0 $169 $-1 forward 7 unknown #
vertex $-1 $170 $326 #
ellipse-curve $-1 30.701213410747911 -43.763571710392675 8.3478637946260292 0 -0.79863551827123203 0.60181501223851219 1.5 0 0 1 I I #
point $-1 32.201213410747911 -46.378580837657289 10.318414457505636 #
plane-surface $-1 79.422589800714135 0 0 -1 0 0 0 0 1 forward_v I I I I #
coedge $-1 $178 $176 $180 $271 reversed $101 $-1 #
edge $-1 $191 -15.392905581106845 $273 15.392905581106845 $190 $327 forward 7 unknown #
vertex $-1 $271 $328 #
straight-curve $-1 -79.422589800714135 -50.202484067336982 0 0 0 -1 I I #
edge $-1 $269 -50.202484067336982 $273 50.202484067336982 $267 $329 forward 7 unknown #
straight-curve $-1 0 -50.202484067336982 -15.392905581106845 -1 0 0 I I #
vertex $-1 $183 $330 #
straight-curve $-1 0 50.202484067336982 -15.392905581106845 1 0 0 I I #
point $-1 79.422589800714135 50.202484067336982 -15.392905581106845 #
point $-1 79.422589800714135 -50.202484067336982 -15.392905581106845 #
straight-curve $-1 -79.422589800714135 0 15.392905581106845 0 -1 0 I I #
point $-1 -79.422589800714135 50.202484067336982 15.392905581106845 #
point $-1 -79.422589800714135 -50.202484067336982 15.392905581106845 #
straight-curve $-1 79.422589800714135 -50.202484067336982 0 0 0 -1 I I #
straight-curve $-1 79.422589800714135 50.202484067336982 0 0 0 -1 I I #
plane-surface $-1 0 -50.202484067336982 0 0 1 0 0 0 1 forward_v I I I I #
coedge $-1 $331 $203 $213 $294 reversed $120 $-1 #
coedge $-1 $203 $331 $216 $296 forward $120 $-1 #
coedge $-1 $332 $206 $204 $286 forward $201 $-1 #
edge $-1 $287 68.325379237375287 $333 79.422589800714135 $204 $334 forward 7 unknown #
vertex $-1 $286 $335 #
straight-curve $-1 -68.325379237375287 50.202484067336982 6.4495226801004986 0 0 -1 I I #
coedge $-1 $206 $332 $208 $291 forward $201 $-1 #
straight-curve $-1 -68.325379237375287 0 15.392905581106845 0 1 0 I I #
edge $-1 $336 -79.422589800714135 $210 -68.325379237375287 $208 $337 forward 7 unknown #
point $-1 -68.325379237375287 -50.202484067336982 15.392905581106845 #
straight-curve $-1 -79.422589800714135 0 10.405185139295149 0 -1 0 I I #
edge $-1 $336 -15.392905581106845 $214 -10.405185139295149 $283 $338 forward 7 unknown #
point $-1 -79.422589800714135 -50.202484067336982 10.405185139295149 #
edge $-1 $333 -15.392905581106845 $217 -10.405185139295149 $216 $339 forward 7 unknown #
point $-1 -79.422589800714135 50.202484067336982 10.405185139295149 #
plane-surface $-1 79.422589800714135 0 0 -1 0 0 0 0 1 forward_v I I I I #
coedge $-1 $224 $234 $225 $302 reversed $136 $-1 #
edge $-1 $304 -8.9433829010063466 $235 -3.9556624591946505 $224 $340 forward 7 unknown #
coedge $-1 $226 $225 $239 $310 forward $78 $-1 #
edge $-1 $304 68.325379237375301 $313 79.422589800714135 $299 $341 forward 7 unknown #
edge $-1 $311 -79.422589800714135 $232 -68.325379237375301 $230 $342 forward 7 unknown #
vertex $-1 $302 $343 #
straight-curve $-1 68.325379237375301 0 15.392905581106845 0 -1 0 I I #
straight-curve $-1 68.325379237375301 0 10.405185139295149 0 1 0 I I #
point $-1 68.325379237375301 50.202484067336982 10.405185139295149 #
point $-1 68.325379237375301 50.202484067336982 15.392905581106845 #
point $-1 68.325379237375301 -50.202484067336982 10.405185139295149 #
edge $-1 $313 -50.202484067336982 $311 50.202484067336982 $239 $344 forward 7 unknown #
vertex $-1 $310 $345 #
straight-curve $-1 79.422589800714135 50.202484067336982 0 0 0 -1 I I #
vertex $-1 $310 $346 #
straight-curve $-1 79.422589800714135 -50.202484067336982 0 0 0 -1 I I #
coedge $-1 $255 $254 $247 $316 forward $244 $-1 #
edge $-1 $317 35.026762938776486 $320 45.175745185978919 $315 $347 forward 7 unknown #
vertex $-1 $259 $348 #
straight-curve $-1 10.651498179535579 -88.530943201605282 15.392905581106845 0 -1 0 I I #
edge $-1 $320 -4.6991085258383762 $256 35.400321936586288 $255 $349 forward 7 unknown #
vertex $-1 $319 $350 #
straight-curve $-1 10.651498179535579 -50.202484067336968 5.2439233339044335 0 0.60181501223851219 0.79863551827123203 I I #
point $-1 10.651498179535579 -42.554677607977581 15.392905581106845 #
point $-1 50.750928641960243 -50.202484067336982 5.2439233339044149 #
straight-curve $-1 0 -50.202484067336982 15.392905581106845 1 0 0 I I #
vertex $-1 $262 $351 #
point $-1 32.201213410747911 -43.763571710392675 8.3478637946260292 #
straight-curve $-1 -79.422589800714135 50.202484067336982 0 0 0 -1 I I #
point $-1 -79.422589800714135 -50.202484067336982 -15.392905581106845 #
straight-curve $-1 -79.422589800714135 0 -15.392905581106845 0 1 0 I I #
point $-1 -79.422589800714135 50.202484067336982 -15.392905581106845 #
coedge $-1 $284 $283 $332 $352 reversed $120 $-1 #
coedge $-1 $289 $285 $331 $352 forward $201 $-1 #
vertex $-1 $286 $353 #
straight-curve $-1 0 50.202484067336982 15.392905581106845 -1 0 0 I I #
point $-1 -68.325379237375287 50.202484067336982 15.392905581106845 #
vertex $-1 $352 $354 #
straight-curve $-1 0 -50.202484067336982 15.392905581106845 1 0 0 I I #
straight-curve $-1 -79.422589800714135 -50.202484067336982 0 0 0 -1 I I #
straight-curve $-1 -79.422589800714135 50.202484067336982 0 0 0 -1 I I #
straight-curve $-1 68.325379237375301 -50.202484067336982 6.4495226801004986 0 0 -1 I I #
straight-curve $-1 0 -50.202484067336982 15.392905581106845 1 0 0 I I #
straight-curve $-1 0 50.202484067336982 15.392905581106845 -1 0 0 I I #
point $-1 68.325379237375301 -50.202484067336982 15.392905581106845 #
straight-curve $-1 79.422589800714135 0 15.392905581106845 0 1 0 I I #
point $-1 79.422589800714135 50.202484067336982 15.392905581106845 #
point $-1 79.422589800714135 -50.202484067336982 15.392905581106845 #
straight-curve $-1 10.651498179535579 -50.202484067336982 50.419668519883331 0 0 -1 I I #
point $-1 10.651498179535579 -50.202484067336982 15.392905581106845 #
straight-curve $-1 15.350606705373956 -50.202484067336982 5.2439233339044113 1 0 0 I I #
point $-1 10.651498179535579 -50.202484067336982 5.2439233339044149 #
point $-1 30.701213410747911 -42.565618432985822 7.4451412762682603 #
edge $-1 $333 -50.202484067336982 $336 50.202484067336982 $331 $355 forward 7 unknown #
point $-1 -79.422589800714135 50.202484067336982 15.392905581106845 #
point $-1 -79.422589800714135 -50.202484067336982 15.392905581106845 #
straight-curve $-1 -79.422589800714135 0 15.392905581106845 0 -1 0 I I #
End-of-ACIS-data 