500 0 8 0           
7 Unknown 11 ACIS 5.0 NT 24 Fri Mar 26 02:09:38 1999 
-1 9.9999999999999995e-007 1e-010 
body $-1 $8 $-1 $9 #
body $-1 $10 $-1 $11 #
body $-1 $12 $-1 $13 #
body $-1 $14 $-1 $15 #
body $-1 $16 $-1 $17 #
body $-1 $18 $-1 $19 #
body $-1 $20 $-1 $21 #
body $-1 $22 $-1 $23 #
lump $-1 $-1 $24 $0 #
transform $-1 1 0 0 0 1 0 0 0 1 43.999145481734672 25.292626861763544 6.4796580764511269 1 rotate no_reflect no_shear #
lump $-1 $-1 $25 $1 #
transform $-1 1 0 0 0 1 0 0 0 1 43.999145481734672 25.292626861763544 6.4796580764511269 1 rotate no_reflect no_shear #
lump $-1 $-1 $26 $2 #
transform $-1 1 0 0 0 1 0 0 0 1 43.999145481734672 25.292626861763544 6.4796580764511269 1 rotate no_reflect no_shear #
lump $-1 $-1 $27 $3 #
transform $-1 1 0 0 0 1 0 0 0 1 43.999145481734672 25.292626861763544 6.4796580764511269 1 rotate no_reflect no_shear #
lump $-1 $-1 $28 $4 #
transform $-1 1 0 0 0 1 0 0 0 1 43.999145481734672 25.292626861763544 6.4796580764511269 1 rotate no_reflect no_shear #
lump $-1 $-1 $29 $5 #
transform $-1 1 0 0 0 1 0 0 0 1 43.999145481734672 25.292626861763544 6.4796580764511269 1 rotate no_reflect no_shear #
lump $-1 $-1 $30 $6 #
transform $-1 1 0 0 0 1 0 0 0 1 43.999145481734672 25.292626861763544 6.4796580764511269 1 rotate no_reflect no_shear #
lump $-1 $-1 $31 $7 #
transform $-1 1 0 0 0 1 0 0 0 1 43.999145481734672 25.292626861763544 6.4796580764511269 1 rotate no_reflect no_shear #
shell $-1 $-1 $-1 $32 $-1 $8 #
shell $-1 $-1 $-1 $33 $-1 $10 #
shell $-1 $-1 $-1 $34 $-1 $12 #
shell $-1 $-1 $-1 $35 $-1 $14 #
shell $-1 $-1 $-1 $36 $-1 $16 #
shell $-1 $-1 $-1 $37 $-1 $18 #
shell $-1 $-1 $-1 $38 $-1 $20 #
shell $-1 $-1 $-1 $39 $-1 $22 #
face $-1 $40 $41 $24 $-1 $42 forward single #
face $-1 $43 $44 $25 $-1 $45 forward single #
face $-1 $46 $47 $26 $-1 $48 reversed single #
face $-1 $49 $50 $27 $-1 $51 forward single #
face $-1 $52 $53 $28 $-1 $54 forward single #
face $-1 $55 $56 $29 $-1 $57 reversed single #
face $-1 $58 $59 $30 $-1 $60 forward single #
face $-1 $61 $62 $31 $-1 $63 forward single #
face $-1 $64 $65 $24 $-1 $66 reversed single #
loop $-1 $-1 $67 $32 #
plane-surface $-1 0 0 6.4796580764511269 0 0 1 1 0 0 forward_v I I I I #
face $-1 $68 $69 $25 $-1 $70 reversed single #
loop $-1 $-1 $71 $33 #
plane-surface $-1 0 -23.06937464361167 -2.9968542197027972 0 0 1 1 0 0 forward_v I I I I #
face $-1 $72 $73 $26 $-1 $74 reversed single #
loop $-1 $-1 $75 $34 #
plane-surface $-1 -34.137036530942709 43.106286478577637 102.91904082054027 -1 0 0 0 0.64278761758704617 0.76604443648966558 forward_v I I I I #
face $-1 $76 $77 $27 $-1 $78 forward single #
loop $-1 $79 $80 $35 #
cone-surface $-1 -41.181400067222683 22.518595746136775 3.9064053328041242 0 -0.64278761758704617 -0.76604443648966558 1 0 0 1 I I 0 1 1 forward I I I I #
face $-1 $81 $82 $28 $-1 $83 forward single #
loop $-1 $84 $85 $36 #
cone-surface $-1 -36.954781945454698 22.518595746136775 3.9064053328041242 0 -0.64278761758704617 -0.76604443648966558 1 0 0 1 I I 0 1 1 forward I I I I #
face $-1 $86 $87 $29 $-1 $88 reversed single #
loop $-1 $-1 $89 $37 #
plane-surface $-1 39.06809100633869 -13.457925321562513 35.508439607375763 0 0.64278761758704617 0.76604443648966558 1 0 0 forward_v I I I I #
face $-1 $90 $91 $30 $-1 $92 forward single #
loop $-1 $93 $94 $38 #
cone-surface $-1 36.954781945454698 22.518595746136775 3.9064053328041242 0 -0.64278761758704617 -0.76604443648966558 1 0 0 1 I I 0 1 1 forward I I I I #
face $-1 $95 $96 $31 $-1 $97 forward single #
loop $-1 $98 $99 $39 #
cone-surface $-1 41.181400067222683 22.518595746136775 3.9064053328041242 0 -0.64278761758704617 -0.76604443648966558 1 0 0 1 I I 0 1 1 forward I I I I #
face $-1 $100 $101 $24 $-1 $102 reversed single #
loop $-1 $-1 $103 $40 #
plane-surface $-1 0 0 -6.4796580764511269 0 0 1 1 0 0 forward_v I I I I #
coedge $-1 $104 $105 $106 $107 forward $41 $-1 #
face $-1 $108 $109 $25 $-1 $110 reversed single #
loop $-1 $-1 $111 $43 #
plane-surface $-1 0 -20.846122425459797 -4.738256148076962 0 -1 0 0 0 -1 forward_v I I I I #
coedge $-1 $112 $113 $114 $115 reversed $44 $-1 #
face $-1 $116 $117 $26 $-1 $118 reversed single #
loop $-1 $-1 $119 $46 #
plane-surface $-1 -39.06809100633869 -13.457925321562513 35.508439607375763 0 0.64278761758704617 0.76604443648966558 1 0 0 forward_v I I I I #
coedge $-1 $120 $121 $122 $123 reversed $47 $-1 #
face $-1 $-1 $124 $27 $-1 $125 forward single #
loop $-1 $126 $127 $49 #
cone-surface $-1 -41.181400067222683 21.500869936620617 2.6935269684410805 0 -0.64278761758704617 -0.76604443648966558 0.5 0 0 1 I I -0.70710678118654746 0.70710678118654746 0.5 forward I I I I #
loop $-1 $-1 $128 $35 #
coedge $-1 $80 $80 $129 $130 reversed $50 $-1 #
face $-1 $-1 $131 $28 $-1 $132 forward single #
loop $-1 $133 $134 $52 #
cone-surface $-1 -36.954781945454698 21.500869936620617 2.6935269684410805 0 -0.64278761758704617 -0.76604443648966558 0.5 0 0 1 I I -0.70710678118654746 0.70710678118654746 0.5 forward I I I I #
loop $-1 $-1 $135 $36 #
coedge $-1 $85 $85 $136 $137 reversed $53 $-1 #
face $-1 $138 $139 $29 $-1 $140 forward single #
loop $-1 $-1 $141 $55 #
plane-surface $-1 34.137036530942709 43.106286478577637 102.91904082054027 1 0 0 0 -0.64278761758704617 -0.76604443648966558 forward_v I I I I #
coedge $-1 $142 $143 $144 $145 reversed $56 $-1 #
face $-1 $-1 $146 $30 $-1 $147 forward single #
loop $-1 $148 $149 $58 #
cone-surface $-1 36.954781945454698 21.500869936620617 2.6935269684410805 0 -0.64278761758704617 -0.76604443648966558 0.5 0 0 1 I I -0.70710678118654746 0.70710678118654746 0.5 forward I I I I #
loop $-1 $-1 $150 $38 #
coedge $-1 $94 $94 $151 $152 reversed $59 $-1 #
face $-1 $-1 $153 $31 $-1 $154 forward single #
loop $-1 $155 $156 $61 #
cone-surface $-1 41.181400067222683 21.500869936620617 2.6935269684410805 0 -0.64278761758704617 -0.76604443648966558 0.5 0 0 1 I I -0.70710678118654746 0.70710678118654746 0.5 forward I I I I #
loop $-1 $-1 $157 $39 #
coedge $-1 $99 $99 $158 $159 reversed $62 $-1 #
face $-1 $160 $161 $24 $-1 $162 reversed single #
loop $-1 $-1 $163 $64 #
plane-surface $-1 0 -25.292626861763544 0 0 1 0 0 0 1 forward_v I I I I #
coedge $-1 $164 $165 $166 $167 forward $65 $-1 #
coedge $-1 $168 $67 $169 $170 forward $41 $-1 #
coedge $-1 $67 $168 $171 $172 forward $41 $-1 #
coedge $-1 $173 $174 $67 $107 reversed $175 $-1 #
edge $-1 $176 -25.292626861763544 $177 25.292626861763544 $106 $178 forward 7 unknown #
face $-1 $179 $180 $25 $-1 $181 reversed single #
loop $-1 $-1 $182 $68 #
plane-surface $-1 0 0 -6.4796580764511269 0 0 1 1 0 0 forward_v I I I I #
coedge $-1 $183 $184 $185 $186 reversed $69 $-1 #
coedge $-1 $187 $71 $184 $188 forward $44 $-1 #
coedge $-1 $71 $187 $189 $190 reversed $44 $-1 #
coedge $-1 $191 $185 $71 $115 forward $180 $-1 #
edge $-1 $192 9.3114351036539613 $193 13.757939539957709 $114 $194 forward 7 unknown #
face $-1 $195 $196 $26 $-1 $197 forward single #
loop $-1 $-1 $122 $72 #
plane-surface $-1 0 25.292626861763544 0 0 -1 0 0 0 -1 forward_v I I I I #
coedge $-1 $198 $199 $200 $201 reversed $73 $-1 #
coedge $-1 $121 $75 $202 $203 reversed $47 $-1 #
coedge $-1 $75 $120 $198 $204 reversed $47 $-1 #
coedge $-1 $200 $205 $75 $123 forward $117 $-1 #
edge $-1 $206 44.979862333819014 $207 48.466655528876601 $122 $208 forward 7 unknown #
loop $-1 $-1 $129 $76 #
plane-surface $-1 -39.06809100633869 -13.457925321562513 35.508439607375763 0 0.64278761758704617 0.76604443648966558 1 0 0 forward_v I I I I #
loop $-1 $-1 $209 $49 #
coedge $-1 $127 $127 $128 $210 reversed $77 $-1 #
coedge $-1 $128 $128 $127 $210 forward $79 $-1 #
coedge $-1 $129 $129 $80 $130 forward $124 $-1 #
edge $-1 $211 -1.1418201807825422e-015 $211 6.2831853071795996 $129 $212 forward 7 unknown #
loop $-1 $-1 $136 $81 #
plane-surface $-1 -39.06809100633869 -13.457925321562513 35.508439607375763 0 0.64278761758704617 0.76604443648966558 1 0 0 forward_v I I I I #
loop $-1 $-1 $213 $52 #
coedge $-1 $134 $134 $135 $214 reversed $82 $-1 #
coedge $-1 $135 $135 $134 $214 forward $84 $-1 #
coedge $-1 $136 $136 $85 $137 forward $131 $-1 #
edge $-1 $215 -1.1418201807825422e-015 $215 6.2831853071795996 $136 $216 forward 7 unknown #
face $-1 $217 $218 $29 $-1 $219 reversed single #
loop $-1 $-1 $220 $86 #
plane-surface $-1 0 0 6.4796580764511269 0 0 1 1 0 0 forward_v I I I I #
coedge $-1 $221 $222 $223 $224 reversed $87 $-1 #
coedge $-1 $225 $89 $226 $227 reversed $56 $-1 #
coedge $-1 $89 $225 $221 $228 forward $56 $-1 #
coedge $-1 $223 $229 $89 $145 forward $218 $-1 #
edge $-1 $230 -24.465099978565327 $231 -14.602991027773363 $144 $232 forward 7 unknown #
loop $-1 $-1 $151 $90 #
plane-surface $-1 39.06809100633869 -13.457925321562513 35.508439607375763 0 0.64278761758704617 0.76604443648966558 1 0 0 forward_v I I I I #
loop $-1 $-1 $233 $58 #
coedge $-1 $149 $149 $150 $234 reversed $91 $-1 #
coedge $-1 $150 $150 $149 $234 forward $93 $-1 #
coedge $-1 $151 $151 $94 $152 forward $146 $-1 #
edge $-1 $235 -1.1418201807825422e-015 $235 6.2831853071795996 $151 $236 forward 7 unknown #
loop $-1 $-1 $158 $95 #
plane-surface $-1 39.06809100633869 -13.457925321562513 35.508439607375763 0 0.64278761758704617 0.76604443648966558 1 0 0 forward_v I I I I #
loop $-1 $-1 $237 $61 #
coedge $-1 $156 $156 $157 $238 reversed $96 $-1 #
coedge $-1 $157 $157 $156 $238 forward $98 $-1 #
coedge $-1 $158 $158 $99 $159 forward $153 $-1 #
edge $-1 $239 -1.1418201807825422e-015 $239 6.2831853071795996 $158 $240 forward 7 unknown #
face $-1 $241 $242 $24 $-1 $243 reversed single #
loop $-1 $-1 $244 $100 #
plane-surface $-1 -43.999145481734672 0 0 1 0 0 0 0 -1 forward_v I I I I #
coedge $-1 $245 $171 $246 $247 forward $101 $-1 #
coedge $-1 $248 $103 $245 $249 forward $65 $-1 #
coedge $-1 $103 $248 $250 $251 forward $65 $-1 #
coedge $-1 $174 $173 $103 $167 reversed $175 $-1 #
edge $-1 $252 -25.292626861763544 $253 25.292626861763544 $166 $254 forward 7 unknown #
coedge $-1 $105 $104 $255 $256 forward $41 $-1 #
coedge $-1 $257 $258 $104 $170 reversed $242 $-1 #
edge $-1 $177 -43.999145481734672 $259 43.999145481734672 $169 $260 forward 7 unknown #
coedge $-1 $163 $261 $105 $172 reversed $101 $-1 #
edge $-1 $262 -43.999145481734672 $176 43.999145481734672 $171 $263 forward 7 unknown #
coedge $-1 $166 $106 $261 $264 forward $175 $-1 #
coedge $-1 $106 $166 $257 $265 reversed $175 $-1 #
loop $-1 $-1 $173 $241 #
vertex $-1 $107 $266 #
vertex $-1 $107 $267 #
straight-curve $-1 43.999145481734672 0 6.4796580764511269 0 1 0 I I #
face $-1 $268 $269 $25 $-1 $270 reversed single #
loop $-1 $-1 $185 $108 #
plane-surface $-1 43.999145481734672 0 0 -1 0 0 0 0 1 forward_v I I I I #
coedge $-1 $271 $272 $183 $273 forward $109 $-1 #
coedge $-1 $274 $111 $182 $273 reversed $69 $-1 #
coedge $-1 $111 $274 $112 $188 reversed $69 $-1 #
coedge $-1 $114 $275 $111 $186 forward $180 $-1 #
edge $-1 $276 -4.1105300024126459 $192 -0.62772614566431617 $185 $277 forward 7 unknown #
coedge $-1 $113 $112 $278 $279 reversed $44 $-1 #
edge $-1 $192 -43.999145481734672 $280 43.999145481734672 $184 $281 forward 7 unknown #
coedge $-1 $282 $283 $113 $190 forward $269 $-1 #
edge $-1 $193 -43.999145481734672 $284 43.999145481734672 $189 $285 forward 7 unknown #
coedge $-1 $275 $114 $283 $286 forward $180 $-1 #
vertex $-1 $115 $287 #
vertex $-1 $286 $288 #
straight-curve $-1 43.999145481734672 -11.534687321805835 -2.9968542197027972 0 -1 0 I I #
face $-1 $-1 $289 $26 $-1 $290 reversed single #
loop $-1 $-1 $202 $116 #
plane-surface $-1 0 0 6.4796580764511269 0 0 1 1 0 0 forward_v I I I I #
coedge $-1 $291 $119 $121 $204 forward $73 $-1 #
coedge $-1 $119 $291 $292 $293 reversed $73 $-1 #
coedge $-1 $294 $122 $119 $201 forward $117 $-1 #
edge $-1 $207 14.602991027773363 $295 24.465099978565327 $200 $296 forward 7 unknown #
coedge $-1 $297 $298 $120 $203 forward $196 $-1 #
edge $-1 $299 -0.41591460733355134 $206 3.7394836224747259 $202 $300 forward 7 unknown #
edge $-1 $207 -50.585253723527074 $299 -45.160766537313648 $121 $301 forward 7 unknown #
coedge $-1 $122 $294 $297 $302 reversed $117 $-1 #
vertex $-1 $302 $303 #
vertex $-1 $123 $304 #
straight-curve $-1 -34.137036530942709 25.292626861763544 51.459520410270137 0 0 -1 I I #
coedge $-1 $209 $209 $-1 $305 reversed $126 $-1 #
edge $-1 $306 0 $306 6.2831853071796004 $127 $307 forward 7 unknown #
vertex $-1 $130 $308 #
ellipse-curve $-1 -41.181400067222683 23.214927746859409 4.7362614789223336 0 0.64278761758704617 0.76604443648966558 1 0 0 1 I I #
coedge $-1 $213 $213 $-1 $309 reversed $133 $-1 #
edge $-1 $310 0 $310 6.2831853071796004 $134 $311 forward 7 unknown #
vertex $-1 $137 $312 #
ellipse-curve $-1 -36.954781945454698 23.214927746859409 4.7362614789223336 0 0.64278761758704617 0.76604443648966558 1 0 0 1 I I #
face $-1 $-1 $313 $29 $-1 $314 reversed single #
loop $-1 $-1 $223 $138 #
plane-surface $-1 0 25.292626861763544 0 0 -1 0 0 0 -1 forward_v I I I I #
coedge $-1 $315 $316 $222 $317 forward $139 $-1 #
coedge $-1 $222 $141 $143 $228 reversed $87 $-1 #
coedge $-1 $141 $221 $220 $317 reversed $87 $-1 #
coedge $-1 $318 $144 $141 $224 forward $218 $-1 #
edge $-1 $231 -48.466655528876601 $319 -44.979862333819014 $223 $320 forward 7 unknown #
coedge $-1 $143 $142 $315 $321 reversed $56 $-1 #
coedge $-1 $322 $323 $142 $227 forward $313 $-1 #
edge $-1 $324 28.593889477946185 $230 34.018376664159611 $226 $325 forward 7 unknown #
edge $-1 $326 45.160766537313648 $231 50.585253723527074 $221 $327 forward 7 unknown #
coedge $-1 $144 $318 $322 $328 forward $218 $-1 #
vertex $-1 $227 $329 #
vertex $-1 $145 $330 #
straight-curve $-1 19.534045503169345 25.292626861763541 2.9928648813935421 -1 0 0 I I #
coedge $-1 $233 $233 $-1 $331 reversed $148 $-1 #
edge $-1 $332 0 $332 6.2831853071796004 $149 $333 forward 7 unknown #
vertex $-1 $152 $334 #
ellipse-curve $-1 36.954781945454698 23.214927746859409 4.7362614789223336 0 0.64278761758704617 0.76604443648966558 1 0 0 1 I I #
coedge $-1 $237 $237 $-1 $335 reversed $155 $-1 #
edge $-1 $336 0 $336 6.2831853071796004 $156 $337 forward 7 unknown #
vertex $-1 $159 $338 #
ellipse-curve $-1 41.181400067222683 23.214927746859409 4.7362614789223336 0 0.64278761758704617 0.76604443648966558 1 0 0 1 I I #
face $-1 $-1 $175 $24 $-1 $339 reversed single #
loop $-1 $-1 $257 $160 #
plane-surface $-1 0 25.292626861763544 0 0 -1 0 0 0 -1 forward_v I I I I #
coedge $-1 $340 $255 $258 $341 forward $161 $-1 #
coedge $-1 $261 $163 $164 $249 reversed $101 $-1 #
coedge $-1 $255 $340 $163 $247 reversed $161 $-1 #
edge $-1 $262 -6.4796580764511269 $342 6.4796580764511269 $246 $343 forward 7 unknown #
coedge $-1 $165 $164 $340 $344 forward $65 $-1 #
edge $-1 $253 -43.999145481734672 $342 43.999145481734672 $245 $345 forward 7 unknown #
coedge $-1 $258 $257 $165 $251 reversed $242 $-1 #
edge $-1 $346 -43.999145481734672 $252 43.999145481734672 $250 $347 forward 7 unknown #
vertex $-1 $167 $348 #
vertex $-1 $264 $349 #
straight-curve $-1 43.999145481734672 0 -6.4796580764511269 0 -1 0 I I #
coedge $-1 $244 $246 $168 $256 reversed $161 $-1 #
edge $-1 $259 -25.292626861763544 $262 25.292626861763544 $255 $350 forward 7 unknown #
coedge $-1 $250 $169 $174 $265 forward $242 $-1 #
coedge $-1 $169 $250 $244 $341 reversed $242 $-1 #
vertex $-1 $170 $351 #
straight-curve $-1 0 25.292626861763544 6.4796580764511269 -1 0 0 I I #
coedge $-1 $171 $245 $173 $264 reversed $101 $-1 #
vertex $-1 $256 $352 #
straight-curve $-1 0 -25.292626861763544 6.4796580764511269 1 0 0 I I #
edge $-1 $176 -6.4796580764511269 $253 6.4796580764511269 $173 $353 forward 7 unknown #
edge $-1 $177 -6.4796580764511269 $252 6.4796580764511269 $174 $354 forward 7 unknown #
point $-1 43.999145481734672 -25.292626861763544 6.4796580764511269 #
point $-1 43.999145481734672 25.292626861763544 6.4796580764511269 #
face $-1 $-1 $355 $25 $-1 $356 reversed single #
loop $-1 $-1 $189 $179 #
plane-surface $-1 0 -25.292626861763544 0 0 1 0 0 0 1 forward_v I I I I #
coedge $-1 $357 $182 $275 $358 forward $109 $-1 #
coedge $-1 $182 $357 $359 $360 forward $109 $-1 #
edge $-1 $361 -43.999145481734672 $276 43.999145481734672 $182 $362 forward 7 unknown #
coedge $-1 $184 $183 $363 $364 reversed $69 $-1 #
coedge $-1 $185 $191 $271 $358 reversed $180 $-1 #
vertex $-1 $358 $365 #
straight-curve $-1 43.999145481734672 -20.846122425459797 -2.369128074038481 0 0 1 I I #
coedge $-1 $363 $366 $187 $279 forward $355 $-1 #
edge $-1 $284 -13.757939539957709 $280 -9.3114351036539613 $278 $367 forward 7 unknown #
vertex $-1 $279 $368 #
straight-curve $-1 0 -20.846122425459797 -2.9968542197027972 -1 0 0 I I #
coedge $-1 $369 $189 $366 $370 forward $269 $-1 #
coedge $-1 $189 $369 $191 $286 reversed $269 $-1 #
vertex $-1 $370 $371 #
straight-curve $-1 0 -25.292626861763544 -2.9968542197027972 -1 0 0 I I #
edge $-1 $193 2.9968542197027972 $372 6.4796580764511269 $191 $373 forward 7 unknown #
point $-1 43.999145481734672 -20.846122425459797 -2.9968542197027972 #
point $-1 43.999145481734672 -25.292626861763544 -2.9968542197027972 #
loop $-1 $-1 $292 $195 #
plane-surface $-1 -43.999145481734672 0 0 1 0 0 0 0 -1 forward_v I I I I #
coedge $-1 $199 $198 $298 $374 reversed $73 $-1 #
coedge $-1 $375 $376 $199 $293 forward $289 $-1 #
edge $-1 $295 -34.018376664159604 $377 -28.593889477946185 $292 $378 forward 7 unknown #
coedge $-1 $205 $200 $376 $379 reversed $117 $-1 #
vertex $-1 $201 $380 #
straight-curve $-1 -19.534045503169345 25.292626861763541 2.9928648813935421 -1 0 0 I I #
coedge $-1 $381 $202 $205 $302 forward $196 $-1 #
coedge $-1 $202 $381 $291 $374 forward $196 $-1 #
vertex $-1 $203 $382 #
straight-curve $-1 -34.137036530942709 21.553143239288818 6.4796580764511233 0 1 0 I I #
straight-curve $-1 -34.137036530942709 -13.457925321562513 35.508439607375763 0 -0.76604443648966558 0.64278761758704617 I I #
edge $-1 $206 34.137036530942709 $383 43.999145481734672 $205 $384 forward 7 unknown #
point $-1 -34.137036530942709 25.292626861763544 6.4796580764511269 #
point $-1 -34.137036530942709 25.292626861763544 2.9928648813935368 #
edge $-1 $385 1 $385 0 $209 $-1 forward 7 unknown #
vertex $-1 $210 $386 #
ellipse-curve $-1 -41.181400067222683 21.822263745414141 3.0765491866859134 0 0.64278761758704617 0.76604443648966558 1 0 0 1 I I #
point $-1 -40.181400067222683 23.214927746859409 4.7362614789223354 #
edge $-1 $387 1 $387 0 $213 $-1 forward 7 unknown #
vertex $-1 $214 $388 #
ellipse-curve $-1 -36.954781945454698 21.822263745414141 3.0765491866859134 0 0.64278761758704617 0.76604443648966558 1 0 0 1 I I #
point $-1 -35.954781945454698 23.214927746859409 4.7362614789223354 #
loop $-1 $-1 $226 $217 #
plane-surface $-1 43.999145481734672 0 0 -1 0 0 0 0 1 forward_v I I I I #
coedge $-1 $389 $220 $225 $321 forward $139 $-1 #
coedge $-1 $220 $389 $318 $390 forward $139 $-1 #
edge $-1 $319 -3.7394836224747259 $326 0.41591460733355134 $220 $391 forward 7 unknown #
coedge $-1 $229 $223 $316 $390 reversed $218 $-1 #
vertex $-1 $317 $392 #
straight-curve $-1 34.137036530942709 25.292626861763544 51.459520410270137 0 0 1 I I #
edge $-1 $326 14.602991027773363 $324 24.465099978565327 $315 $393 forward 7 unknown #
coedge $-1 $323 $226 $229 $328 reversed $313 $-1 #
coedge $-1 $226 $322 $389 $394 reversed $313 $-1 #
vertex $-1 $394 $395 #
straight-curve $-1 43.999145481734672 -0.76696132022579455 24.859456171527459 0 0.76604443648966558 -0.64278761758704617 I I #
vertex $-1 $321 $396 #
straight-curve $-1 34.137036530942709 -13.457925321562513 35.508439607375763 0 0.76604443648966558 -0.64278761758704617 I I #
edge $-1 $397 -6.4796580764511269 $230 -2.9928648813935368 $322 $398 forward 7 unknown #
point $-1 43.999145481734672 25.292626861763544 2.9928648813935368 #
point $-1 34.137036530942709 25.292626861763544 2.9928648813935368 #
edge $-1 $399 1 $399 0 $233 $-1 forward 7 unknown #
vertex $-1 $234 $400 #
ellipse-curve $-1 36.954781945454698 21.822263745414141 3.0765491866859134 0 0.64278761758704617 0.76604443648966558 1 0 0 1 I I #
point $-1 37.954781945454698 23.214927746859409 4.7362614789223354 #
edge $-1 $401 1 $401 0 $237 $-1 forward 7 unknown #
vertex $-1 $238 $402 #
ellipse-curve $-1 41.181400067222683 21.822263745414141 3.0765491866859134 0 0.64278761758704617 0.76604443648966558 1 0 0 1 I I #
point $-1 42.181400067222683 23.214927746859409 4.7362614789223354 #
plane-surface $-1 43.999145481734672 0 0 -1 0 0 0 0 1 forward_v I I I I #
coedge $-1 $246 $244 $248 $344 reversed $161 $-1 #
edge $-1 $259 -6.4796580764511269 $346 6.4796580764511269 $258 $403 forward 7 unknown #
vertex $-1 $344 $404 #
straight-curve $-1 -43.999145481734672 -25.292626861763544 0 0 0 -1 I I #
edge $-1 $342 -25.292626861763544 $346 25.292626861763544 $340 $405 forward 7 unknown #
straight-curve $-1 0 -25.292626861763544 -6.4796580764511269 -1 0 0 I I #
vertex $-1 $251 $406 #
straight-curve $-1 0 25.292626861763544 -6.4796580764511269 1 0 0 I I #
point $-1 43.999145481734672 25.292626861763544 -6.4796580764511269 #
point $-1 43.999145481734672 -25.292626861763544 -6.4796580764511269 #
straight-curve $-1 -43.999145481734672 0 6.4796580764511269 0 -1 0 I I #
point $-1 -43.999145481734672 25.292626861763544 6.4796580764511269 #
point $-1 -43.999145481734672 -25.292626861763544 6.4796580764511269 #
straight-curve $-1 43.999145481734672 -25.292626861763544 0 0 0 -1 I I #
straight-curve $-1 43.999145481734672 25.292626861763544 0 0 0 -1 I I #
loop $-1 $-1 $363 $268 #
plane-surface $-1 -43.999145481734672 0 0 1 0 0 0 0 -1 forward_v I I I I #
coedge $-1 $272 $271 $369 $407 forward $109 $-1 #
edge $-1 $276 20.846122425459797 $372 25.292626861763544 $275 $408 forward 7 unknown #
coedge $-1 $366 $363 $272 $360 reversed $355 $-1 #
edge $-1 $409 -25.292626861763544 $361 -20.846122425459797 $359 $410 forward 7 unknown #
vertex $-1 $364 $411 #
straight-curve $-1 0 -20.846122425459797 -6.4796580764511269 1 0 0 I I #
coedge $-1 $359 $278 $274 $364 forward $355 $-1 #
edge $-1 $280 0.62772614566431617 $361 4.1105300024126459 $363 $412 forward 7 unknown #
point $-1 43.999145481734672 -20.846122425459797 -6.4796580764511269 #
coedge $-1 $278 $359 $282 $370 reversed $355 $-1 #
straight-curve $-1 -43.999145481734672 -11.534687321805835 -2.9968542197027972 0 1 0 I I #
point $-1 -43.999145481734672 -20.846122425459797 -2.9968542197027972 #
coedge $-1 $283 $282 $357 $407 reversed $269 $-1 #
edge $-1 $284 2.9968542197027972 $409 6.4796580764511269 $366 $413 forward 7 unknown #
point $-1 -43.999145481734672 -25.292626861763544 -2.9968542197027972 #
vertex $-1 $286 $414 #
straight-curve $-1 43.999145481734672 -25.292626861763544 0 0 0 -1 I I #
edge $-1 $377 -24.465099978565327 $299 -14.602991027773363 $298 $415 forward 7 unknown #
coedge $-1 $376 $292 $381 $416 reversed $289 $-1 #
coedge $-1 $292 $375 $294 $379 forward $289 $-1 #
vertex $-1 $293 $417 #
straight-curve $-1 -43.999145481734672 -0.76696132022579455 24.859456171527459 0 -0.76604443648966558 0.64278761758704617 I I #
edge $-1 $383 -6.4796580764511269 $295 -2.992864881393539 $294 $418 forward 7 unknown #
point $-1 -43.999145481734672 25.292626861763544 2.992864881393539 #
coedge $-1 $298 $297 $375 $416 forward $196 $-1 #
point $-1 -34.137036530942709 21.137228631955267 6.4796580764511269 #
vertex $-1 $302 $419 #
straight-curve $-1 0 25.292626861763544 6.4796580764511269 -1 0 0 I I #
vertex $-1 $305 $420 #
point $-1 -40.181400067222683 21.822263745414141 3.0765491866859134 #
vertex $-1 $309 $421 #
point $-1 -35.954781945454698 21.822263745414141 3.0765491866859134 #
coedge $-1 $316 $315 $323 $394 forward $139 $-1 #
edge $-1 $397 -43.999145481734672 $319 -34.137036530942709 $318 $422 forward 7 unknown #
straight-curve $-1 34.137036530942709 21.553143239288818 6.4796580764511233 0 -1 0 I I #
point $-1 34.137036530942709 25.292626861763544 6.4796580764511269 #
straight-curve $-1 19.534045503169345 21.137228631955267 6.4796580764511305 1 0 0 I I #
edge $-1 $324 21.137228631955267 $397 25.292626861763544 $323 $423 forward 7 unknown #
point $-1 43.999145481734672 21.137228631955267 6.4796580764511269 #
point $-1 34.137036530942709 21.137228631955267 6.4796580764511269 #
vertex $-1 $394 $424 #
straight-curve $-1 43.999145481734672 25.292626861763544 0 0 0 -1 I I #
vertex $-1 $331 $425 #
point $-1 37.954781945454698 21.822263745414141 3.0765491866859134 #
vertex $-1 $335 $426 #
point $-1 42.181400067222683 21.822263745414141 3.0765491866859134 #
straight-curve $-1 -43.999145481734672 25.292626861763544 0 0 0 -1 I I #
point $-1 -43.999145481734672 -25.292626861763544 -6.4796580764511269 #
straight-curve $-1 -43.999145481734672 0 -6.4796580764511269 0 1 0 I I #
point $-1 -43.999145481734672 25.292626861763544 -6.4796580764511269 #
edge $-1 $372 -43.999145481734672 $409 43.999145481734672 $369 $427 forward 7 unknown #
straight-curve $-1 43.999145481734672 0 -6.4796580764511269 0 -1 0 I I #
vertex $-1 $360 $428 #
straight-curve $-1 -43.999145481734672 0 -6.4796580764511269 0 1 0 I I #
point $-1 -43.999145481734672 -20.846122425459797 -6.4796580764511269 #
straight-curve $-1 -43.999145481734672 -20.846122425459797 -2.369128074038481 0 0 -1 I I #
straight-curve $-1 -43.999145481734672 -25.292626861763544 0 0 0 -1 I I #
point $-1 43.999145481734672 -25.292626861763544 -6.4796580764511269 #
straight-curve $-1 -19.534045503169345 21.137228631955267 6.4796580764511305 1 0 0 I I #
edge $-1 $383 -25.292626861763544 $377 -21.137228631955267 $375 $429 forward 7 unknown #
point $-1 -43.999145481734672 21.137228631955267 6.4796580764511269 #
straight-curve $-1 -43.999145481734672 25.292626861763544 0 0 0 -1 I I #
point $-1 -43.999145481734672 25.292626861763544 6.4796580764511269 #
point $-1 -41.181400067222683 21.179476127827094 2.3105047501962477 #
point $-1 -36.954781945454698 21.179476127827094 2.3105047501962477 #
straight-curve $-1 0 25.292626861763544 6.4796580764511269 -1 0 0 I I #
straight-curve $-1 43.999145481734672 0 6.4796580764511269 0 1 0 I I #
point $-1 43.999145481734672 25.292626861763544 6.4796580764511269 #
point $-1 36.954781945454698 21.179476127827094 2.3105047501962477 #
point $-1 41.181400067222683 21.179476127827094 2.3105047501962477 #
straight-curve $-1 0 -25.292626861763544 -6.4796580764511269 -1 0 0 I I #
point $-1 -43.999145481734672 -25.292626861763544 -6.4796580764511269 #
straight-curve $-1 -43.999145481734672 0 6.4796580764511269 0 -1 0 I I #
End-of-ACIS-data 