500 0 10 0           
7 Unknown 11 ACIS 5.0 NT 24 Thu Mar 25 15:52:25 1999 
-1 9.9999999999999995e-007 1e-010 
body $-1 $10 $-1 $11 #
body $-1 $12 $-1 $13 #
body $-1 $14 $-1 $15 #
body $-1 $16 $-1 $17 #
body $-1 $18 $-1 $19 #
body $-1 $20 $-1 $21 #
body $-1 $22 $-1 $23 #
body $-1 $24 $-1 $25 #
body $-1 $26 $-1 $27 #
body $-1 $28 $-1 $29 #
lump $-1 $-1 $30 $0 #
transform $-1 1 0 0 0 1 0 0 0 1 72.940458388012331 35.462280966884613 14.480151812022138 1 rotate no_reflect no_shear #
lump $-1 $-1 $31 $1 #
transform $-1 1 0 0 0 1 0 0 0 1 72.940458388012331 35.462280966884613 14.480151812022138 1 rotate no_reflect no_shear #
lump $-1 $-1 $32 $2 #
transform $-1 1 0 0 0 1 0 0 0 1 72.940458388012331 35.462280966884613 14.480151812022138 1 rotate no_reflect no_shear #
lump $-1 $-1 $33 $3 #
transform $-1 1 0 0 0 1 0 0 0 1 72.940458388012331 35.462280966884613 14.480151812022138 1 rotate no_reflect no_shear #
lump $-1 $-1 $34 $4 #
transform $-1 1 0 0 0 1 0 0 0 1 72.940458388012331 35.462280966884613 14.480151812022138 1 rotate no_reflect no_shear #
lump $-1 $-1 $35 $5 #
transform $-1 1 0 0 0 1 0 0 0 1 72.940458388012331 35.462280966884613 14.480151812022138 1 rotate no_reflect no_shear #
lump $-1 $-1 $36 $6 #
transform $-1 1 0 0 0 1 0 0 0 1 72.940458388012331 35.462280966884613 14.480151812022138 1 rotate no_reflect no_shear #
lump $-1 $-1 $37 $7 #
transform $-1 1 0 0 0 1 0 0 0 1 72.940458388012331 35.462280966884613 14.480151812022138 1 rotate no_reflect no_shear #
lump $-1 $-1 $38 $8 #
transform $-1 1 0 0 0 1 0 0 0 1 72.940458388012331 35.462280966884613 14.480151812022138 1 rotate no_reflect no_shear #
lump $-1 $-1 $39 $9 #
transform $-1 1 0 0 0 1 0 0 0 1 72.940458388012331 35.462280966884613 14.480151812022138 1 rotate no_reflect no_shear #
shell $-1 $-1 $-1 $40 $-1 $10 #
shell $-1 $-1 $-1 $41 $-1 $12 #
shell $-1 $-1 $-1 $42 $-1 $14 #
shell $-1 $-1 $-1 $43 $-1 $16 #
shell $-1 $-1 $-1 $44 $-1 $18 #
shell $-1 $-1 $-1 $45 $-1 $20 #
shell $-1 $-1 $-1 $46 $-1 $22 #
shell $-1 $-1 $-1 $47 $-1 $24 #
shell $-1 $-1 $-1 $48 $-1 $26 #
shell $-1 $-1 $-1 $49 $-1 $28 #
face $-1 $50 $51 $30 $-1 $52 forward single #
face $-1 $53 $54 $31 $-1 $55 forward single #
face $-1 $56 $57 $32 $-1 $58 reversed single #
face $-1 $59 $60 $33 $-1 $61 forward single #
face $-1 $62 $63 $34 $-1 $64 reversed single #
face $-1 $65 $66 $35 $-1 $67 forward single #
face $-1 $68 $69 $36 $-1 $70 forward single #
face $-1 $71 $72 $37 $-1 $73 reversed single #
face $-1 $74 $75 $38 $-1 $76 forward single #
face $-1 $77 $78 $39 $-1 $79 forward single #
face $-1 $80 $81 $30 $-1 $82 reversed single #
loop $-1 $-1 $83 $40 #
plane-surface $-1 0 0 14.480151812022138 0 0 1 1 0 0 forward_v I I I I #
face $-1 $84 $85 $31 $-1 $86 reversed single #
loop $-1 $-1 $87 $41 #
plane-surface $-1 -72.940458388012331 0 0 1 0 0 0 0 -1 forward_v I I I I #
face $-1 $88 $89 $32 $-1 $90 reversed single #
loop $-1 $-1 $91 $42 #
plane-surface $-1 55.23619793347217 -35.462280966884606 6.9549392260643685 0 -0.66913061440640931 0.74314481823134659 1 0 0 forward_v I I I I #
face $-1 $92 $93 $33 $-1 $94 forward single #
loop $-1 $95 $96 $43 #
cone-surface $-1 55.23619793347217 -29.488540087915776 8.7240590338450481 0 0.66913061440640931 -0.74314481823134659 2.5 0 0 1 I I 0 1 2.5 forward I I I I #
face $-1 $97 $98 $34 $-1 $99 reversed single #
loop $-1 $-1 $100 $44 #
plane-surface $-1 -13.777496991155317 83.081887785709966 162.06777495887235 1 0 0 0 -0.68199836817093118 -0.7313536940579346 forward_v I I I I #
face $-1 $101 $102 $35 $-1 $103 forward single #
loop $-1 $104 $105 $45 #
cone-surface $-1 -8.2517178065562717 30.197158062274447 9.3944059451119539 0 -0.68199836817093118 -0.7313536940579346 1.5 0 0 1 I I 0 1 1.5 forward I I I I #
face $-1 $106 $107 $36 $-1 $108 forward single #
loop $-1 $109 $110 $46 #
cone-surface $-1 0.036950970342303435 30.197158062274447 9.3944059451119539 0 -0.68199836817093118 -0.7313536940579346 1.5 0 0 1 I I 0 1 1.5 forward I I I I #
face $-1 $111 $112 $37 $-1 $113 reversed single #
loop $-1 $-1 $114 $47 #
plane-surface $-1 63.270344814964005 -16.408659402818273 55.377227582168587 0 0.68199836817093118 0.7313536940579346 1 0 0 forward_v I I I I #
face $-1 $115 $116 $38 $-1 $117 forward single #
loop $-1 $118 $119 $48 #
cone-surface $-1 59.126010426514739 30.197158062274447 9.3944059451119539 0 -0.68199836817093118 -0.7313536940579346 1.5 0 0 1 I I 0 1 1.5 forward I I I I #
face $-1 $120 $121 $39 $-1 $122 forward single #
loop $-1 $123 $124 $49 #
cone-surface $-1 67.4146792034133 30.197158062274447 9.3944059451119539 0 -0.68199836817093118 -0.7313536940579346 1.5 0 0 1 I I 0 1 1.5 forward I I I I #
face $-1 $125 $126 $30 $-1 $127 reversed single #
loop $-1 $-1 $128 $50 #
plane-surface $-1 0 0 -14.480151812022138 0 0 1 1 0 0 forward_v I I I I #
coedge $-1 $129 $130 $131 $132 forward $51 $-1 #
face $-1 $133 $134 $31 $-1 $135 forward single #
loop $-1 $-1 $136 $53 #
plane-surface $-1 0 35.462280966884613 0 0 -1 0 0 0 -1 forward_v I I I I #
coedge $-1 $137 $138 $139 $140 forward $54 $-1 #
face $-1 $141 $142 $32 $-1 $143 reversed single #
loop $-1 $-1 $144 $56 #
plane-surface $-1 37.531937478932001 -133.07566843939625 115.36558660700541 1 0 0 0 0.66913061440640931 -0.74314481823134659 forward_v I I I I #
coedge $-1 $145 $146 $147 $148 reversed $57 $-1 #
face $-1 $-1 $149 $33 $-1 $150 forward single #
loop $-1 $151 $152 $59 #
cone-surface $-1 55.23619793347217 -26.857183487293018 5.8016415258576526 0 0.66913061440640931 -0.74314481823134659 1.25 0 0 1 I I -0.70710678118654746 0.70710678118654746 1.25 forward I I I I #
loop $-1 $-1 $153 $43 #
coedge $-1 $96 $96 $154 $155 reversed $60 $-1 #
face $-1 $156 $157 $34 $-1 $158 reversed single #
loop $-1 $-1 $159 $62 #
plane-surface $-1 -4.1073834181069913 -16.408659402818273 55.377227582168587 0 0.68199836817093118 0.7313536940579346 1 0 0 forward_v I I I I #
coedge $-1 $160 $161 $162 $163 reversed $63 $-1 #
face $-1 $-1 $164 $35 $-1 $165 forward single #
loop $-1 $166 $167 $65 #
cone-surface $-1 -8.2517178065562717 28.427634860102621 7.4968246736194768 0 -0.68199836817093118 -0.7313536940579346 0.75 0 0 1 I I -0.70710678118654757 0.70710678118654757 0.75 forward I I I I #
loop $-1 $-1 $168 $45 #
coedge $-1 $105 $105 $169 $170 reversed $66 $-1 #
face $-1 $-1 $171 $36 $-1 $172 forward single #
loop $-1 $173 $174 $68 #
cone-surface $-1 0.036950970342303435 28.427634860102621 7.4968246736194768 0 -0.68199836817093118 -0.7313536940579346 0.75 0 0 1 I I -0.70710678118654757 0.70710678118654757 0.75 forward I I I I #
loop $-1 $-1 $175 $46 #
coedge $-1 $110 $110 $176 $177 reversed $69 $-1 #
face $-1 $178 $179 $37 $-1 $180 forward single #
loop $-1 $-1 $181 $71 #
plane-surface $-1 53.600231241915679 83.081887785709966 162.06777495887235 1 0 0 0 -0.68199836817093118 -0.7313536940579346 forward_v I I I I #
coedge $-1 $182 $183 $184 $185 reversed $72 $-1 #
face $-1 $-1 $186 $38 $-1 $187 forward single #
loop $-1 $188 $189 $74 #
cone-surface $-1 59.126010426514739 28.427634860102621 7.4968246736194768 0 -0.68199836817093118 -0.7313536940579346 0.75 0 0 1 I I -0.70710678118654757 0.70710678118654757 0.75 forward I I I I #
loop $-1 $-1 $190 $48 #
coedge $-1 $119 $119 $191 $192 reversed $75 $-1 #
face $-1 $-1 $193 $39 $-1 $194 forward single #
loop $-1 $195 $196 $77 #
cone-surface $-1 67.4146792034133 28.427634860102621 7.4968246736194768 0 -0.68199836817093118 -0.7313536940579346 0.75 0 0 1 I I -0.70710678118654757 0.70710678118654757 0.75 forward I I I I #
loop $-1 $-1 $197 $49 #
coedge $-1 $124 $124 $198 $199 reversed $78 $-1 #
face $-1 $200 $201 $30 $-1 $202 reversed single #
loop $-1 $-1 $203 $80 #
plane-surface $-1 0 -35.462280966884613 0 0 1 0 0 0 1 forward_v I I I I #
coedge $-1 $204 $205 $206 $207 forward $81 $-1 #
coedge $-1 $208 $83 $209 $210 forward $51 $-1 #
coedge $-1 $83 $208 $211 $212 forward $51 $-1 #
coedge $-1 $213 $214 $83 $132 reversed $215 $-1 #
edge $-1 $216 -35.462280966884613 $217 35.462280966884613 $131 $218 forward 7 unknown #
face $-1 $219 $220 $31 $-1 $221 reversed single #
loop $-1 $-1 $139 $84 #
plane-surface $-1 -78.503188542953666 0 8.5000993122135711 0 0 1 1 0 0 forward_v I I I I #
coedge $-1 $222 $223 $138 $224 forward $85 $-1 #
coedge $-1 $225 $87 $226 $227 reversed $54 $-1 #
coedge $-1 $87 $225 $136 $224 reversed $54 $-1 #
coedge $-1 $228 $229 $87 $140 reversed $134 $-1 #
edge $-1 $230 -35.462280966884613 $231 35.462280966884613 $139 $232 forward 7 unknown #
face $-1 $233 $234 $32 $-1 $235 forward single #
loop $-1 $-1 $236 $88 #
plane-surface $-1 0 -35.462280966884613 0 0 1 0 0 0 1 forward_v I I I I #
coedge $-1 $237 $238 $239 $240 reversed $89 $-1 #
coedge $-1 $241 $91 $242 $243 reversed $57 $-1 #
coedge $-1 $91 $241 $237 $244 forward $57 $-1 #
coedge $-1 $239 $245 $91 $148 forward $234 $-1 #
edge $-1 $246 -45.322359421276246 $247 -9.9138385121959161 $147 $248 forward 7 unknown #
loop $-1 $-1 $154 $92 #
plane-surface $-1 55.23619793347217 -35.462280966884606 6.9549392260643685 0 -0.66913061440640931 0.74314481823134659 1 0 0 forward_v I I I I #
loop $-1 $-1 $249 $59 #
coedge $-1 $152 $152 $153 $250 reversed $93 $-1 #
coedge $-1 $153 $153 $152 $250 forward $95 $-1 #
coedge $-1 $154 $154 $96 $155 forward $149 $-1 #
edge $-1 $251 -3.1554152922525962e-016 $251 6.2831853071796004 $154 $252 forward 7 unknown #
face $-1 $253 $254 $34 $-1 $255 forward single #
loop $-1 $-1 $256 $97 #
plane-surface $-1 5.5627301549413346 83.081887785709966 162.06777495887235 -1 0 0 0 0.68199836817093118 0.7313536940579346 forward_v I I I I #
coedge $-1 $257 $258 $259 $260 reversed $98 $-1 #
coedge $-1 $161 $100 $261 $262 reversed $63 $-1 #
coedge $-1 $100 $160 $257 $263 reversed $63 $-1 #
coedge $-1 $259 $264 $100 $163 forward $254 $-1 #
edge $-1 $265 6.0786629259703702 $266 14.092859883103429 $162 $267 forward 7 unknown #
loop $-1 $-1 $169 $101 #
plane-surface $-1 -4.1073834181069913 -16.408659402818273 55.377227582168587 0 0.68199836817093118 0.7313536940579346 1 0 0 forward_v I I I I #
loop $-1 $-1 $268 $65 #
coedge $-1 $167 $167 $168 $269 reversed $102 $-1 #
coedge $-1 $168 $168 $167 $269 forward $104 $-1 #
coedge $-1 $169 $169 $105 $170 forward $164 $-1 #
edge $-1 $270 -1.0414420990407142e-015 $270 6.2831853071795996 $169 $271 forward 7 unknown #
loop $-1 $-1 $176 $106 #
plane-surface $-1 -4.1073834181069913 -16.408659402818273 55.377227582168587 0 0.68199836817093118 0.7313536940579346 1 0 0 forward_v I I I I #
loop $-1 $-1 $272 $68 #
coedge $-1 $174 $174 $175 $273 reversed $107 $-1 #
coedge $-1 $175 $175 $174 $273 forward $109 $-1 #
coedge $-1 $176 $176 $110 $177 forward $171 $-1 #
edge $-1 $274 -1.0414420990407142e-015 $274 6.2831853071795996 $176 $275 forward 7 unknown #
face $-1 $276 $277 $37 $-1 $278 reversed single #
loop $-1 $-1 $279 $111 #
plane-surface $-1 0 0 14.480151812022138 0 0 1 1 0 0 forward_v I I I I #
coedge $-1 $280 $281 $282 $283 reversed $112 $-1 #
coedge $-1 $284 $114 $285 $286 reversed $72 $-1 #
coedge $-1 $114 $284 $280 $287 forward $72 $-1 #
coedge $-1 $282 $288 $114 $185 forward $289 $-1 #
edge $-1 $290 -41.305285980530329 $291 -21.965058834433677 $184 $292 forward 7 unknown #
loop $-1 $-1 $191 $115 #
plane-surface $-1 63.270344814964005 -16.408659402818273 55.377227582168587 0 0.68199836817093118 0.7313536940579346 1 0 0 forward_v I I I I #
loop $-1 $-1 $293 $74 #
coedge $-1 $189 $189 $190 $294 reversed $116 $-1 #
coedge $-1 $190 $190 $189 $294 forward $118 $-1 #
coedge $-1 $191 $191 $119 $192 forward $186 $-1 #
edge $-1 $295 -1.0414420990407142e-015 $295 6.2831853071795996 $191 $296 forward 7 unknown #
loop $-1 $-1 $198 $120 #
plane-surface $-1 63.270344814964005 -16.408659402818273 55.377227582168587 0 0.68199836817093118 0.7313536940579346 1 0 0 forward_v I I I I #
loop $-1 $-1 $297 $77 #
coedge $-1 $196 $196 $197 $298 reversed $121 $-1 #
coedge $-1 $197 $197 $196 $298 forward $123 $-1 #
coedge $-1 $198 $198 $124 $199 forward $193 $-1 #
edge $-1 $299 -1.0414420990407142e-015 $299 6.2831853071795996 $198 $300 forward 7 unknown #
face $-1 $301 $302 $30 $-1 $303 reversed single #
loop $-1 $-1 $304 $125 #
plane-surface $-1 -72.940458388012331 0 0 1 0 0 0 0 -1 forward_v I I I I #
coedge $-1 $305 $211 $306 $307 forward $126 $-1 #
coedge $-1 $308 $128 $305 $309 forward $81 $-1 #
coedge $-1 $128 $308 $310 $311 forward $81 $-1 #
coedge $-1 $214 $213 $128 $207 reversed $215 $-1 #
edge $-1 $312 -35.462280966884613 $313 35.462280966884613 $206 $314 forward 7 unknown #
coedge $-1 $130 $129 $315 $316 forward $51 $-1 #
coedge $-1 $317 $318 $129 $210 reversed $302 $-1 #
edge $-1 $217 -72.940458388012331 $319 72.940458388012331 $209 $320 forward 7 unknown #
coedge $-1 $203 $321 $130 $212 reversed $126 $-1 #
edge $-1 $322 -72.940458388012331 $216 72.940458388012331 $211 $323 forward 7 unknown #
coedge $-1 $206 $131 $321 $324 forward $215 $-1 #
coedge $-1 $131 $206 $317 $325 reversed $215 $-1 #
loop $-1 $-1 $213 $301 #
vertex $-1 $132 $326 #
vertex $-1 $132 $327 #
straight-curve $-1 72.940458388012331 0 14.480151812022138 0 1 0 I I #
face $-1 $328 $329 $31 $-1 $330 reversed single #
loop $-1 $-1 $331 $133 #
plane-surface $-1 -78.503188542953666 0 2.150963500450306 0 0 1 1 0 0 forward_v I I I I #
coedge $-1 $332 $136 $333 $334 reversed $85 $-1 #
coedge $-1 $136 $332 $228 $335 reversed $85 $-1 #
edge $-1 $230 -8.5000993122135711 $336 -2.150963500450306 $136 $337 forward 7 unknown #
coedge $-1 $138 $137 $331 $338 forward $54 $-1 #
coedge $-1 $339 $340 $137 $227 forward $341 $-1 #
edge $-1 $342 2.150963500450306 $231 8.5000993122135711 $226 $343 forward 7 unknown #
coedge $-1 $344 $139 $223 $335 forward $134 $-1 #
coedge $-1 $139 $344 $339 $345 forward $134 $-1 #
vertex $-1 $224 $346 #
vertex $-1 $345 $347 #
straight-curve $-1 -72.940458388012331 0 8.5000993122135711 0 -1 0 I I #
face $-1 $-1 $348 $32 $-1 $349 reversed single #
loop $-1 $-1 $239 $141 #
plane-surface $-1 0 0 14.480151812022138 0 0 1 1 0 0 forward_v I I I I #
coedge $-1 $350 $351 $238 $352 forward $142 $-1 #
coedge $-1 $238 $144 $146 $244 reversed $89 $-1 #
coedge $-1 $144 $237 $236 $352 reversed $89 $-1 #
coedge $-1 $353 $147 $144 $240 forward $234 $-1 #
edge $-1 $247 -39.433148345521715 $354 -31.075553252813513 $239 $355 forward 7 unknown #
coedge $-1 $146 $145 $350 $356 reversed $57 $-1 #
coedge $-1 $357 $358 $145 $243 forward $348 $-1 #
edge $-1 $359 -10.849923792854366 $246 0.39632981434823777 $242 $360 forward 7 unknown #
edge $-1 $361 -9.4405131238556439e-015 $247 11.246253607202593 $237 $362 forward 7 unknown #
coedge $-1 $147 $353 $357 $363 forward $234 $-1 #
vertex $-1 $243 $364 #
vertex $-1 $148 $365 #
straight-curve $-1 27.618098966736085 -27.104685874176404 14.480151812022138 -1 0 0 I I #
coedge $-1 $249 $249 $-1 $366 reversed $151 $-1 #
edge $-1 $367 0 $367 6.2831853071796004 $152 $368 forward 7 unknown #
vertex $-1 $155 $369 #
ellipse-curve $-1 55.23619793347217 -31.283483420530512 10.717545519043249 0 -0.66913061440640931 0.74314481823134659 2.5 0 0 1 I I #
face $-1 $-1 $370 $34 $-1 $371 reversed single #
loop $-1 $-1 $162 $156 #
plane-surface $-1 0 0 14.480151812022138 0 0 1 1 0 0 forward_v I I I I #
coedge $-1 $372 $373 $374 $375 reversed $157 $-1 #
coedge $-1 $376 $159 $161 $263 forward $98 $-1 #
coedge $-1 $159 $376 $372 $377 forward $98 $-1 #
coedge $-1 $374 $162 $159 $260 forward $254 $-1 #
edge $-1 $266 -11.723805282101821 $378 7.6164218639948302 $259 $379 forward 7 unknown #
coedge $-1 $380 $381 $160 $262 forward $370 $-1 #
edge $-1 $382 -74.027095399336332 $265 -66.553735667414031 $261 $383 forward 7 unknown #
edge $-1 $266 59.966530242336738 $382 70.924561933769212 $161 $384 forward 7 unknown #
coedge $-1 $162 $374 $380 $385 forward $254 $-1 #
vertex $-1 $163 $386 #
vertex $-1 $163 $387 #
straight-curve $-1 -13.777496991155317 41.540943892854983 14.480151812022143 0 -1 0 I I #
coedge $-1 $268 $268 $-1 $388 reversed $166 $-1 #
edge $-1 $389 0 $389 6.2831853071796004 $167 $390 forward 7 unknown #
vertex $-1 $170 $391 #
ellipse-curve $-1 -8.2517178065562717 31.45518248831808 10.743471946060986 0 0.68199836817093118 0.7313536940579346 1.5 0 0 1 I I #
coedge $-1 $272 $272 $-1 $392 reversed $173 $-1 #
edge $-1 $393 0 $393 6.2831853071796004 $174 $394 forward 7 unknown #
vertex $-1 $177 $395 #
ellipse-curve $-1 0.036950970342303435 31.45518248831808 10.743471946060986 0 0.68199836817093118 0.7313536940579346 1.5 0 0 1 I I #
face $-1 $-1 $289 $37 $-1 $396 reversed single #
loop $-1 $-1 $285 $178 #
plane-surface $-1 72.940458388012331 0 0 -1 0 0 0 0 1 forward_v I I I I #
coedge $-1 $397 $398 $281 $399 forward $179 $-1 #
coedge $-1 $281 $181 $183 $287 reversed $112 $-1 #
coedge $-1 $181 $280 $279 $399 reversed $112 $-1 #
coedge $-1 $400 $184 $181 $283 forward $289 $-1 #
edge $-1 $291 -74.027095399336332 $401 -66.553735667414031 $282 $402 forward 7 unknown #
coedge $-1 $183 $182 $397 $403 reversed $72 $-1 #
coedge $-1 $404 $405 $182 $286 forward $277 $-1 #
edge $-1 $406 35.082673985507313 $290 46.040705676939787 $285 $407 forward 7 unknown #
edge $-1 $408 59.966530242336738 $291 70.924561933769212 $280 $409 forward 7 unknown #
coedge $-1 $184 $400 $404 $410 forward $289 $-1 #
loop $-1 $-1 $282 $276 #
vertex $-1 $185 $411 #
vertex $-1 $185 $412 #
straight-curve $-1 31.635172407482003 35.462280966884606 7.0067920800998422 -1 0 0 I I #
coedge $-1 $293 $293 $-1 $413 reversed $188 $-1 #
edge $-1 $414 0 $414 6.2831853071796004 $189 $415 forward 7 unknown #
vertex $-1 $192 $416 #
ellipse-curve $-1 59.126010426514739 31.45518248831808 10.743471946060986 0 0.68199836817093118 0.7313536940579346 1.5 0 0 1 I I #
coedge $-1 $297 $297 $-1 $417 reversed $195 $-1 #
edge $-1 $418 0 $418 6.2831853071796004 $196 $419 forward 7 unknown #
vertex $-1 $199 $420 #
ellipse-curve $-1 67.4146792034133 31.45518248831808 10.743471946060986 0 0.68199836817093118 0.7313536940579346 1.5 0 0 1 I I #
face $-1 $-1 $215 $30 $-1 $421 reversed single #
loop $-1 $-1 $317 $200 #
plane-surface $-1 0 35.462280966884613 0 0 -1 0 0 0 -1 forward_v I I I I #
coedge $-1 $422 $315 $318 $423 forward $201 $-1 #
coedge $-1 $321 $203 $204 $309 reversed $126 $-1 #
coedge $-1 $315 $422 $203 $307 reversed $201 $-1 #
edge $-1 $322 -14.480151812022138 $424 14.480151812022138 $306 $425 forward 7 unknown #
coedge $-1 $205 $204 $422 $426 forward $81 $-1 #
edge $-1 $313 -72.940458388012331 $424 72.940458388012331 $305 $427 forward 7 unknown #
coedge $-1 $318 $317 $205 $311 reversed $302 $-1 #
edge $-1 $428 -72.940458388012331 $312 72.940458388012331 $310 $429 forward 7 unknown #
vertex $-1 $207 $430 #
vertex $-1 $324 $431 #
straight-curve $-1 72.940458388012331 0 -14.480151812022138 0 -1 0 I I #
coedge $-1 $304 $306 $208 $316 reversed $201 $-1 #
edge $-1 $319 -35.462280966884613 $322 35.462280966884613 $315 $432 forward 7 unknown #
coedge $-1 $310 $209 $214 $325 forward $302 $-1 #
coedge $-1 $209 $310 $304 $423 reversed $302 $-1 #
vertex $-1 $210 $433 #
straight-curve $-1 0 35.462280966884613 14.480151812022138 -1 0 0 I I #
coedge $-1 $211 $305 $213 $324 reversed $126 $-1 #
vertex $-1 $316 $434 #
straight-curve $-1 0 -35.462280966884613 14.480151812022138 1 0 0 I I #
edge $-1 $216 -14.480151812022138 $313 14.480151812022138 $213 $435 forward 7 unknown #
edge $-1 $217 -14.480151812022138 $312 14.480151812022138 $214 $436 forward 7 unknown #
point $-1 72.940458388012331 -35.462280966884613 14.480151812022138 #
point $-1 72.940458388012331 35.462280966884613 14.480151812022138 #
face $-1 $-1 $341 $31 $-1 $437 reversed single #
loop $-1 $-1 $438 $219 #
plane-surface $-1 -84.065918697895 0 5.3255314063319386 1 0 0 0 0 -1 forward_v I I I I #
coedge $-1 $439 $333 $225 $338 reversed $220 $-1 #
coedge $-1 $223 $222 $438 $440 reversed $85 $-1 #
coedge $-1 $331 $441 $222 $334 forward $220 $-1 #
edge $-1 $442 -5.5627301549413346 $336 5.5627301549413346 $222 $443 forward 7 unknown #
edge $-1 $230 -5.5627301549413346 $444 5.5627301549413346 $223 $445 forward 7 unknown #
vertex $-1 $224 $446 #
straight-curve $-1 -72.940458388012331 35.462280966884613 0 0 0 -1 I I #
edge $-1 $342 -35.462280966884613 $336 35.462280966884613 $331 $447 forward 7 unknown #
coedge $-1 $448 $226 $229 $345 reversed $341 $-1 #
coedge $-1 $226 $448 $439 $449 reversed $341 $-1 #
loop $-1 $-1 $226 $328 #
vertex $-1 $227 $450 #
straight-curve $-1 -72.940458388012331 -35.462280966884613 0 0 0 1 I I #
coedge $-1 $229 $228 $451 $452 forward $134 $-1 #
edge $-1 $453 -5.5627301549413346 $231 5.5627301549413346 $339 $454 forward 7 unknown #
point $-1 -72.940458388012331 35.462280966884613 8.5000993122135711 #
point $-1 -72.940458388012331 -35.462280966884613 8.5000993122135711 #
loop $-1 $-1 $242 $233 #
plane-surface $-1 72.940458388012331 0 0 -1 0 0 0 0 1 forward_v I I I I #
coedge $-1 $455 $236 $241 $356 forward $142 $-1 #
coedge $-1 $236 $455 $353 $456 reversed $142 $-1 #
edge $-1 $354 43.20264149148057 $361 50.727854077438344 $236 $457 forward 7 unknown #
coedge $-1 $245 $239 $351 $456 forward $234 $-1 #
vertex $-1 $456 $458 #
straight-curve $-1 37.531937478932001 -66.537834219698127 14.480151812022136 0 -1 0 I I #
edge $-1 $361 9.9138385121959161 $359 45.322359421276246 $350 $459 forward 7 unknown #
coedge $-1 $358 $242 $245 $363 reversed $348 $-1 #
coedge $-1 $242 $357 $455 $460 forward $348 $-1 #
vertex $-1 $356 $461 #
straight-curve $-1 72.940458388012331 -27.399216322019893 14.214955399839724 0 0.74314481823134659 0.66913061440640931 I I #
vertex $-1 $356 $462 #
straight-curve $-1 37.531937478932001 -35.462280966884606 6.9549392260643685 0 0.74314481823134659 0.66913061440640931 I I #
edge $-1 $463 -35.462280966884613 $246 -27.104685874176408 $357 $464 forward 7 unknown #
point $-1 72.940458388012331 -27.104685874176408 14.480151812022138 #
point $-1 37.531937478932001 -27.104685874176408 14.480151812022138 #
edge $-1 $465 1 $465 0 $249 $-1 forward 7 unknown #
vertex $-1 $250 $466 #
ellipse-curve $-1 55.23619793347217 -27.69359675530103 6.730572548646836 0 -0.66913061440640931 0.74314481823134659 2.5 0 0 1 I I #
point $-1 57.73619793347217 -31.283483420530523 10.717545519043259 #
loop $-1 $-1 $261 $253 #
plane-surface $-1 0 35.462280966884613 0 0 -1 0 0 0 -1 forward_v I I I I #
coedge $-1 $373 $256 $258 $377 reversed $157 $-1 #
coedge $-1 $256 $372 $467 $468 reversed $157 $-1 #
coedge $-1 $264 $259 $256 $375 forward $254 $-1 #
edge $-1 $378 -14.092859883103429 $469 -6.0786629259703702 $374 $470 forward 7 unknown #
coedge $-1 $258 $257 $381 $471 reversed $98 $-1 #
edge $-1 $472 -70.924561933769212 $378 -59.966530242336738 $372 $473 forward 7 unknown #
vertex $-1 $260 $474 #
straight-curve $-1 -2.0536917090534956 27.448084009751557 14.480151812022132 1 0 0 I I #
coedge $-1 $467 $261 $264 $385 reversed $370 $-1 #
coedge $-1 $261 $467 $376 $471 forward $370 $-1 #
vertex $-1 $262 $475 #
straight-curve $-1 -13.777496991155317 35.462280966884613 81.033887479436174 0 0 1 I I #
straight-curve $-1 -13.777496991155317 -16.408659402818273 55.377227582168587 0 0.7313536940579346 -0.68199836817093118 I I #
edge $-1 $469 -5.5627301549413346 $265 13.777496991155317 $380 $476 forward 7 unknown #
point $-1 -13.777496991155317 35.462280966884613 14.480151812022138 #
point $-1 -13.777496991155317 27.448084009751554 14.480151812022136 #
edge $-1 $477 1 $477 0 $268 $-1 forward 7 unknown #
vertex $-1 $269 $478 #
ellipse-curve $-1 -8.2517178065562717 28.939133636230821 8.0453399441629276 0 0.68199836817093118 0.7313536940579346 1.5 0 0 1 I I #
point $-1 -6.7517178065562717 31.455182488318073 10.74347194606098 #
edge $-1 $479 1 $479 0 $272 $-1 forward 7 unknown #
vertex $-1 $273 $480 #
ellipse-curve $-1 0.036950970342303435 28.939133636230821 8.0453399441629276 0 0.68199836817093118 0.7313536940579346 1.5 0 0 1 I I #
point $-1 1.5369509703423034 31.455182488318073 10.74347194606098 #
plane-surface $-1 0 35.462280966884613 0 0 -1 0 0 0 -1 forward_v I I I I #
coedge $-1 $481 $279 $284 $403 forward $179 $-1 #
coedge $-1 $279 $481 $400 $482 forward $179 $-1 #
edge $-1 $401 6.0786629259703702 $408 14.092859883103429 $279 $483 forward 7 unknown #
coedge $-1 $288 $282 $398 $482 reversed $289 $-1 #
vertex $-1 $283 $484 #
straight-curve $-1 53.600231241915679 35.462280966884613 81.033887479436174 0 0 1 I I #
edge $-1 $408 21.965058834433677 $406 41.305285980530329 $397 $485 forward 7 unknown #
coedge $-1 $405 $285 $288 $410 reversed $277 $-1 #
coedge $-1 $285 $404 $481 $486 reversed $277 $-1 #
vertex $-1 $486 $487 #
straight-curve $-1 72.940458388012331 1.7902407930205797 38.406478221210897 0 0.7313536940579346 -0.68199836817093118 I I #
vertex $-1 $403 $488 #
straight-curve $-1 53.600231241915679 -16.408659402818273 55.377227582168587 0 0.7313536940579346 -0.68199836817093118 I I #
edge $-1 $489 -14.480151812022138 $290 -7.0067920800998369 $404 $490 forward 7 unknown #
point $-1 72.940458388012331 35.462280966884613 7.0067920800998369 #
point $-1 53.600231241915679 35.462280966884613 7.0067920800998422 #
edge $-1 $491 1 $491 0 $293 $-1 forward 7 unknown #
vertex $-1 $294 $492 #
ellipse-curve $-1 59.126010426514739 28.939133636230821 8.0453399441629276 0 0.68199836817093118 0.7313536940579346 1.5 0 0 1 I I #
point $-1 60.626010426514739 31.455182488318073 10.74347194606098 #
edge $-1 $493 1 $493 0 $297 $-1 forward 7 unknown #
vertex $-1 $298 $494 #
ellipse-curve $-1 67.4146792034133 28.939133636230821 8.0453399441629276 0 0.68199836817093118 0.7313536940579346 1.5 0 0 1 I I #
point $-1 68.9146792034133 31.455182488318073 10.74347194606098 #
plane-surface $-1 72.940458388012331 0 0 -1 0 0 0 0 1 forward_v I I I I #
coedge $-1 $306 $304 $308 $426 reversed $201 $-1 #
edge $-1 $319 -14.480151812022138 $428 14.480151812022138 $318 $495 forward 7 unknown #
vertex $-1 $426 $496 #
straight-curve $-1 -72.940458388012331 -35.462280966884613 0 0 0 -1 I I #
edge $-1 $424 -35.462280966884613 $428 35.462280966884613 $422 $497 forward 7 unknown #
straight-curve $-1 0 -35.462280966884613 -14.480151812022138 -1 0 0 I I #
vertex $-1 $311 $498 #
straight-curve $-1 0 35.462280966884613 -14.480151812022138 1 0 0 I I #
point $-1 72.940458388012331 35.462280966884613 -14.480151812022138 #
point $-1 72.940458388012331 -35.462280966884613 -14.480151812022138 #
straight-curve $-1 -72.940458388012331 0 14.480151812022138 0 -1 0 I I #
point $-1 -72.940458388012331 35.462280966884613 14.480151812022138 #
point $-1 -72.940458388012331 -35.462280966884613 14.480151812022138 #
straight-curve $-1 72.940458388012331 -35.462280966884613 0 0 0 -1 I I #
straight-curve $-1 72.940458388012331 35.462280966884613 0 0 0 -1 I I #
plane-surface $-1 0 -35.462280966884613 0 0 1 0 0 0 1 forward_v I I I I #
coedge $-1 $499 $451 $332 $440 forward $329 $-1 #
coedge $-1 $441 $331 $340 $449 forward $220 $-1 #
edge $-1 $444 -3.1745679058816325 $442 3.1745679058816325 $332 $500 forward 7 unknown #
coedge $-1 $333 $439 $499 $501 forward $220 $-1 #
vertex $-1 $334 $502 #
straight-curve $-1 -78.503188542953666 35.462280966884613 2.150963500450306 1 0 0 I I #
vertex $-1 $335 $503 #
straight-curve $-1 -78.503188542953666 35.462280966884613 8.5000993122135711 -1 0 0 I I #
point $-1 -72.940458388012331 35.462280966884613 2.150963500450306 #
straight-curve $-1 -72.940458388012331 0 2.150963500450306 0 1 0 I I #
coedge $-1 $340 $339 $504 $505 forward $341 $-1 #
edge $-1 $342 -5.5627301549413346 $506 5.5627301549413346 $340 $507 forward 7 unknown #
point $-1 -72.940458388012331 -35.462280966884613 2.150963500450306 #
coedge $-1 $438 $504 $344 $452 reversed $329 $-1 #
edge $-1 $444 -35.462280966884613 $453 35.462280966884613 $451 $508 forward 7 unknown #
vertex $-1 $452 $509 #
straight-curve $-1 -78.503188542953666 -35.462280966884613 8.5000993122135711 1 0 0 I I #
coedge $-1 $351 $350 $358 $460 reversed $142 $-1 #
edge $-1 $354 37.531937478932001 $463 72.940458388012331 $351 $510 forward 7 unknown #
straight-curve $-1 37.531937478932001 -35.462280966884613 57.682793303502706 0 0 -1 I I #
point $-1 37.531937478932001 -35.462280966884613 14.480151812022138 #
straight-curve $-1 27.618098966736085 -35.462280966884613 6.9549392260643561 1 0 0 I I #
edge $-1 $463 -14.480151812022138 $359 -6.9549392260643623 $358 $511 forward 7 unknown #
point $-1 72.940458388012331 -35.462280966884613 6.9549392260643623 #
point $-1 37.531937478932001 -35.462280966884613 6.9549392260643623 #
vertex $-1 $363 $512 #
straight-curve $-1 72.940458388012331 0 14.480151812022138 0 1 0 I I #
vertex $-1 $366 $513 #
point $-1 57.73619793347217 -27.69359675530103 6.730572548646836 #
coedge $-1 $381 $380 $373 $468 forward $370 $-1 #
edge $-1 $469 66.553735667414031 $472 74.027095399336332 $467 $514 forward 7 unknown #
vertex $-1 $385 $515 #
straight-curve $-1 5.5627301549413346 41.540943892854983 14.480151812022143 0 1 0 I I #
edge $-1 $472 -7.6164218639948302 $382 11.723805282101821 $381 $516 forward 7 unknown #
vertex $-1 $471 $517 #
straight-curve $-1 5.5627301549413346 -16.408659402818273 55.377227582168587 0 -0.7313536940579346 0.68199836817093118 I I #
point $-1 5.5627301549413346 27.448084009751554 14.480151812022136 #
point $-1 -13.777496991155317 35.462280966884613 7.0067920800998422 #
straight-curve $-1 0 35.462280966884613 14.480151812022138 -1 0 0 I I #
vertex $-1 $388 $518 #
point $-1 -6.7517178065562717 28.939133636230821 8.0453399441629276 #
vertex $-1 $392 $519 #
point $-1 1.5369509703423034 28.939133636230821 8.0453399441629276 #
coedge $-1 $398 $397 $405 $486 forward $179 $-1 #
edge $-1 $489 -72.940458388012331 $401 -53.600231241915679 $400 $520 forward 7 unknown #
straight-curve $-1 53.600231241915679 41.540943892854983 14.480151812022143 0 -1 0 I I #
point $-1 53.600231241915679 35.462280966884613 14.480151812022138 #
straight-curve $-1 31.635172407482003 27.448084009751557 14.480151812022132 1 0 0 I I #
edge $-1 $406 27.448084009751554 $489 35.462280966884613 $405 $521 forward 7 unknown #
point $-1 72.940458388012331 27.448084009751554 14.480151812022136 #
point $-1 53.600231241915679 27.448084009751554 14.480151812022136 #
vertex $-1 $486 $522 #
straight-curve $-1 72.940458388012331 35.462280966884613 0 0 0 -1 I I #
vertex $-1 $413 $523 #
point $-1 60.626010426514739 28.939133636230821 8.0453399441629276 #
vertex $-1 $417 $524 #
point $-1 68.9146792034133 28.939133636230821 8.0453399441629276 #
straight-curve $-1 -72.940458388012331 35.462280966884613 0 0 0 -1 I I #
point $-1 -72.940458388012331 -35.462280966884613 -14.480151812022138 #
straight-curve $-1 -72.940458388012331 0 -14.480151812022138 0 1 0 I I #
point $-1 -72.940458388012331 35.462280966884613 -14.480151812022138 #
coedge $-1 $504 $438 $441 $501 reversed $329 $-1 #
straight-curve $-1 -84.065918697895 35.462280966884613 5.3255314063319386 0 0 -1 I I #
edge $-1 $506 -35.462280966884613 $442 35.462280966884613 $499 $525 forward 7 unknown #
point $-1 -84.065918697895 35.462280966884613 2.150963500450306 #
point $-1 -84.065918697895 35.462280966884613 8.5000993122135711 #
coedge $-1 $451 $499 $448 $505 reversed $329 $-1 #
edge $-1 $453 -3.1745679058816325 $506 3.1745679058816325 $504 $526 forward 7 unknown #
vertex $-1 $501 $527 #
straight-curve $-1 -78.503188542953666 -35.462280966884613 2.150963500450306 -1 0 0 I I #
straight-curve $-1 -84.065918697895 0 8.5000993122135711 0 -1 0 I I #
point $-1 -84.065918697895 -35.462280966884613 8.5000993122135711 #
straight-curve $-1 0 -35.462280966884613 14.480151812022138 1 0 0 I I #
straight-curve $-1 72.940458388012331 -35.462280966884613 0 0 0 -1 I I #
point $-1 72.940458388012331 -35.462280966884613 14.480151812022138 #
point $-1 55.23619793347217 -26.020770219285005 4.8727105030684692 #
straight-curve $-1 5.5627301549413346 35.462280966884613 81.033887479436174 0 0 -1 I I #
point $-1 5.5627301549413346 35.462280966884613 14.480151812022138 #
straight-curve $-1 -2.0536917090534956 35.462280966884606 7.0067920800998422 -1 0 0 I I #
point $-1 5.5627301549413346 35.462280966884613 7.0067920800998422 #
point $-1 -8.2517178065562717 27.916136083974422 6.948309403076026 #
point $-1 0.036950970342303435 27.916136083974422 6.948309403076026 #
straight-curve $-1 0 35.462280966884613 14.480151812022138 -1 0 0 I I #
straight-curve $-1 72.940458388012331 0 14.480151812022138 0 1 0 I I #
point $-1 72.940458388012331 35.462280966884613 14.480151812022138 #
point $-1 59.126010426514739 27.916136083974422 6.948309403076026 #
point $-1 67.4146792034133 27.916136083974422 6.948309403076026 #
straight-curve $-1 -84.065918697895 0 2.150963500450306 0 1 0 I I #
straight-curve $-1 -84.065918697895 -35.462280966884613 5.3255314063319386 0 0 -1 I I #
point $-1 -84.065918697895 -35.462280966884613 2.150963500450306 #
End-of-ACIS-data 