500 0 8 0           
7 Unknown 11 ACIS 5.0 NT 24 Thu Mar 25 20:47:52 1999 
-1 9.9999999999999995e-007 1e-010 
body $-1 $8 $-1 $9 #
body $-1 $10 $-1 $11 #
body $-1 $12 $-1 $13 #
body $-1 $14 $-1 $15 #
body $-1 $16 $-1 $17 #
body $-1 $18 $-1 $19 #
body $-1 $20 $-1 $21 #
body $-1 $22 $-1 $23 #
lump $-1 $-1 $24 $0 #
transform $-1 1 0 0 0 1 0 0 0 1 54.401074251533558 33.401864453392996 12.733320396944119 1 rotate no_reflect no_shear #
lump $-1 $-1 $25 $1 #
transform $-1 1 0 0 0 1 0 0 0 1 54.401074251533558 33.401864453392996 12.733320396944119 1 rotate no_reflect no_shear #
lump $-1 $-1 $26 $2 #
transform $-1 1 0 0 0 1 0 0 0 1 54.401074251533558 33.401864453392996 12.733320396944119 1 rotate no_reflect no_shear #
lump $-1 $-1 $27 $3 #
transform $-1 1 0 0 0 1 0 0 0 1 54.401074251533558 33.401864453392996 12.733320396944119 1 rotate no_reflect no_shear #
lump $-1 $-1 $28 $4 #
transform $-1 1 0 0 0 1 0 0 0 1 54.401074251533558 33.401864453392996 12.733320396944119 1 rotate no_reflect no_shear #
lump $-1 $-1 $29 $5 #
transform $-1 1 0 0 0 1 0 0 0 1 54.401074251533558 33.401864453392996 12.733320396944119 1 rotate no_reflect no_shear #
lump $-1 $-1 $30 $6 #
transform $-1 1 0 0 0 1 0 0 0 1 54.401074251533558 33.401864453392996 12.733320396944119 1 rotate no_reflect no_shear #
lump $-1 $-1 $31 $7 #
transform $-1 1 0 0 0 1 0 0 0 1 54.401074251533558 33.401864453392996 12.733320396944119 1 rotate no_reflect no_shear #
shell $-1 $-1 $-1 $32 $-1 $8 #
shell $-1 $-1 $-1 $33 $-1 $10 #
shell $-1 $-1 $-1 $34 $-1 $12 #
shell $-1 $-1 $-1 $35 $-1 $14 #
shell $-1 $-1 $-1 $36 $-1 $16 #
shell $-1 $-1 $-1 $37 $-1 $18 #
shell $-1 $-1 $-1 $38 $-1 $20 #
shell $-1 $-1 $-1 $39 $-1 $22 #
face $-1 $40 $41 $24 $-1 $42 forward single #
face $-1 $43 $44 $25 $-1 $45 forward single #
face $-1 $46 $47 $26 $-1 $48 forward single #
face $-1 $49 $50 $27 $-1 $51 reversed single #
face $-1 $52 $53 $28 $-1 $54 forward single #
face $-1 $55 $56 $29 $-1 $57 reversed single #
face $-1 $58 $59 $30 $-1 $60 forward single #
face $-1 $61 $62 $31 $-1 $63 forward single #
face $-1 $64 $65 $24 $-1 $66 reversed single #
loop $-1 $-1 $67 $32 #
plane-surface $-1 0 0 12.733320396944119 0 0 1 1 0 0 forward_v I I I I #
face $-1 $68 $69 $25 $-1 $70 reversed single #
loop $-1 $-1 $71 $33 #
plane-surface $-1 0 -27.770264290836327 3.9759345331451286 0 0 1 1 0 0 forward_v I I I I #
face $-1 $72 $73 $26 $-1 $74 reversed single #
loop $-1 $-1 $75 $34 #
plane-surface $-1 0 27.77026429083633 3.9759345331451286 0 0 1 1 0 0 forward_v I I I I #
face $-1 $76 $77 $27 $-1 $78 reversed single #
loop $-1 $-1 $79 $35 #
plane-surface $-1 -19.801811634553218 -17.580646008698807 80.030306454425045 0.73135370988377701 0 0.68199835119979291 0.68199835119979291 0 -0.73135370988377701 forward_v I I I I #
face $-1 $80 $81 $28 $-1 $82 forward single #
loop $-1 $83 $84 $36 #
cone-surface $-1 46.855167398009975 -17.580646008698807 4.8961658387105871 -0.73135370988377701 0 -0.68199835119979291 1.3639967023995858 0 -1.462707419767554 1 I I 0 1 2 forward I I I I #
face $-1 $85 $86 $29 $-1 $87 reversed single #
loop $-1 $-1 $88 $37 #
plane-surface $-1 -112.05742949455869 15.961932358045523 100.43021101251261 0 -1 0 0.52991927123019833 0 -0.84804809178421925 forward_v I I I I #
face $-1 $89 $90 $30 $-1 $91 forward single #
loop $-1 $92 $93 $38 #
cone-surface $-1 -50.145268413005446 7.2326760293050469 9.4916547466600907 0.52991927123019833 0 -0.84804809178421925 1.2720721376763289 0 0.79487890684529749 1 I I 0 1 1.5 forward I I I I #
face $-1 $94 $95 $31 $-1 $96 forward single #
loop $-1 $97 $98 $39 #
cone-surface $-1 -50.145268413005446 12.470229826549328 9.4916547466600907 0.52991927123019833 0 -0.84804809178421925 1.2720721376763289 0 0.79487890684529749 1 I I 0 1 1.5 forward I I I I #
face $-1 $99 $100 $24 $-1 $101 reversed single #
loop $-1 $-1 $102 $40 #
plane-surface $-1 0 0 -12.733320396944119 0 0 1 1 0 0 forward_v I I I I #
coedge $-1 $103 $104 $105 $106 forward $41 $-1 #
face $-1 $107 $108 $25 $-1 $109 reversed single #
loop $-1 $-1 $110 $43 #
plane-surface $-1 0 -27.770264290836327 0.087971931398680425 0 0 1 1 0 0 forward_v I I I I #
coedge $-1 $111 $112 $113 $114 reversed $44 $-1 #
face $-1 $115 $116 $26 $-1 $117 reversed single #
loop $-1 $-1 $118 $46 #
plane-surface $-1 0 27.77026429083633 0.087971931398680425 0 0 1 1 0 0 forward_v I I I I #
coedge $-1 $119 $120 $121 $122 reversed $47 $-1 #
face $-1 $123 $124 $27 $-1 $125 forward single #
loop $-1 $-1 $126 $49 #
plane-surface $-1 59.771043316490548 -13.022627889117956 154.23319234051183 0 -1 0 -0.73135370988377701 0 -0.68199835119979291 forward_v I I I I #
coedge $-1 $127 $128 $129 $130 reversed $50 $-1 #
face $-1 $-1 $131 $28 $-1 $132 forward single #
loop $-1 $133 $134 $52 #
cone-surface $-1 44.301623164889051 -17.580646008698807 2.5149473760586893 -0.73135370988377701 0 -0.68199835119979291 0.68199835119979291 0 -0.73135370988377701 1 I I -0.70710678118654746 0.70710678118654746 1 forward I I I I #
loop $-1 $-1 $135 $36 #
coedge $-1 $84 $84 $136 $137 reversed $53 $-1 #
face $-1 $138 $139 $29 $-1 $140 reversed single #
loop $-1 $-1 $141 $55 #
plane-surface $-1 -54.401074251533551 9.8514529279271912 8.1607565924633008 -0.52991927123019833 0 0.84804809178421925 0.84804809178421925 0 0.52991927123019833 forward_v I I I I #
coedge $-1 $142 $143 $144 $145 reversed $56 $-1 #
face $-1 $-1 $146 $30 $-1 $147 forward single #
loop $-1 $148 $149 $58 #
cone-surface $-1 -49.150838925157636 7.2326760293050469 7.9002349297782963 0.52991927123019833 0 -0.84804809178421925 0.63603606883816444 0 0.39743945342264875 1 I I -0.70710678118654757 0.70710678118654757 0.75 forward I I I I #
loop $-1 $-1 $150 $38 #
coedge $-1 $93 $93 $151 $152 reversed $59 $-1 #
face $-1 $-1 $153 $31 $-1 $154 forward single #
loop $-1 $155 $156 $61 #
cone-surface $-1 -49.150838925157636 12.470229826549328 7.9002349297782963 0.52991927123019833 0 -0.84804809178421925 0.63603606883816444 0 0.39743945342264875 1 I I -0.70710678118654757 0.70710678118654757 0.75 forward I I I I #
loop $-1 $-1 $157 $39 #
coedge $-1 $98 $98 $158 $159 reversed $62 $-1 #
face $-1 $160 $161 $24 $-1 $162 reversed single #
loop $-1 $-1 $163 $64 #
plane-surface $-1 0 -33.401864453392996 0 0 1 0 0 0 1 forward_v I I I I #
coedge $-1 $164 $165 $166 $167 forward $65 $-1 #
coedge $-1 $168 $67 $169 $170 forward $41 $-1 #
coedge $-1 $67 $168 $171 $172 forward $41 $-1 #
coedge $-1 $173 $174 $67 $106 reversed $175 $-1 #
edge $-1 $176 -33.401864453392996 $177 33.401864453392996 $105 $178 forward 7 unknown #
face $-1 $179 $180 $25 $-1 $181 reversed single #
loop $-1 $-1 $182 $68 #
plane-surface $-1 0 -22.138664128279657 2.0319532322719045 0 -1 0 0 0 -1 forward_v I I I I #
coedge $-1 $183 $184 $185 $186 reversed $69 $-1 #
coedge $-1 $187 $71 $188 $189 forward $44 $-1 #
coedge $-1 $71 $187 $190 $191 reversed $44 $-1 #
coedge $-1 $192 $193 $71 $114 forward $194 $-1 #
edge $-1 $195 8.2535319828614941 $196 19.516732307974834 $113 $197 forward 7 unknown #
face $-1 $198 $199 $26 $-1 $200 reversed single #
loop $-1 $-1 $201 $72 #
plane-surface $-1 0 22.138664128279661 2.0319532322719045 0 1 0 0 0 1 forward_v I I I I #
coedge $-1 $202 $203 $204 $205 reversed $73 $-1 #
coedge $-1 $206 $75 $207 $208 reversed $47 $-1 #
coedge $-1 $75 $206 $209 $210 forward $47 $-1 #
coedge $-1 $211 $212 $75 $122 forward $199 $-1 #
edge $-1 $213 -19.516732307974838 $214 -8.2535319828614959 $121 $215 forward 7 unknown #
face $-1 $216 $217 $27 $-1 $218 reversed single #
loop $-1 $-1 $219 $76 #
plane-surface $-1 0 -22.138664128279657 2.0319532322719045 0 -1 0 0 0 -1 forward_v I I I I #
coedge $-1 $220 $221 $222 $223 reversed $77 $-1 #
coedge $-1 $224 $79 $219 $225 reversed $50 $-1 #
coedge $-1 $79 $224 $220 $226 forward $50 $-1 #
coedge $-1 $222 $227 $79 $130 forward $217 $-1 #
edge $-1 $228 -13.348341123930254 $229 -4.2323048847685527 $129 $230 forward 7 unknown #
loop $-1 $-1 $136 $80 #
plane-surface $-1 -19.801811634553218 -17.580646008698807 80.030306454425045 0.73135370988377701 0 0.68199835119979291 0.68199835119979291 0 -0.73135370988377701 forward_v I I I I #
loop $-1 $-1 $231 $52 #
coedge $-1 $134 $134 $135 $232 reversed $81 $-1 #
coedge $-1 $135 $135 $134 $232 forward $83 $-1 #
coedge $-1 $136 $136 $84 $137 forward $131 $-1 #
edge $-1 $233 0 $233 6.2831853071796004 $136 $234 forward 7 unknown #
face $-1 $235 $236 $29 $-1 $237 forward single #
loop $-1 $-1 $238 $85 #
plane-surface $-1 -112.05742949455869 3.7409734978088593 100.43021101251261 0 1 0 -0.52991927123019833 0 0.84804809178421925 forward_v I I I I #
coedge $-1 $239 $240 $241 $242 reversed $86 $-1 #
coedge $-1 $143 $88 $243 $244 reversed $56 $-1 #
coedge $-1 $88 $142 $239 $245 reversed $56 $-1 #
coedge $-1 $241 $246 $88 $145 forward $247 $-1 #
edge $-1 $248 37.481785109312185 $249 42.054348913793007 $144 $250 forward 7 unknown #
loop $-1 $-1 $151 $89 #
plane-surface $-1 -54.401074251533551 9.8514529279271912 8.1607565924633008 -0.52991927123019833 0 0.84804809178421925 0.84804809178421925 0 0.52991927123019833 forward_v I I I I #
loop $-1 $-1 $251 $58 #
coedge $-1 $149 $149 $150 $252 reversed $90 $-1 #
coedge $-1 $150 $150 $149 $252 forward $92 $-1 #
coedge $-1 $151 $151 $93 $152 forward $146 $-1 #
edge $-1 $253 0 $253 6.2831853071796004 $151 $254 forward 7 unknown #
loop $-1 $-1 $158 $94 #
plane-surface $-1 -54.401074251533551 9.8514529279271912 8.1607565924633008 -0.52991927123019833 0 0.84804809178421925 0.84804809178421925 0 0.52991927123019833 forward_v I I I I #
loop $-1 $-1 $255 $61 #
coedge $-1 $156 $156 $157 $256 reversed $95 $-1 #
coedge $-1 $157 $157 $156 $256 forward $97 $-1 #
coedge $-1 $158 $158 $98 $159 forward $153 $-1 #
edge $-1 $257 0 $257 6.2831853071796004 $158 $258 forward 7 unknown #
face $-1 $259 $260 $24 $-1 $261 reversed single #
loop $-1 $-1 $262 $99 #
plane-surface $-1 -54.401074251533558 0 0 1 0 0 0 0 -1 forward_v I I I I #
coedge $-1 $263 $171 $264 $265 forward $100 $-1 #
coedge $-1 $266 $102 $263 $267 forward $65 $-1 #
coedge $-1 $102 $266 $268 $269 forward $65 $-1 #
coedge $-1 $174 $173 $102 $167 reversed $175 $-1 #
edge $-1 $270 -33.401864453392996 $271 33.401864453392996 $166 $272 forward 7 unknown #
coedge $-1 $104 $103 $273 $274 forward $41 $-1 #
coedge $-1 $275 $276 $103 $170 reversed $260 $-1 #
edge $-1 $177 -54.401074251533558 $277 54.401074251533558 $169 $278 forward 7 unknown #
coedge $-1 $163 $279 $104 $172 reversed $100 $-1 #
edge $-1 $280 -54.401074251533558 $176 54.401074251533558 $171 $281 forward 7 unknown #
coedge $-1 $166 $105 $279 $282 forward $175 $-1 #
coedge $-1 $105 $166 $275 $283 reversed $175 $-1 #
loop $-1 $-1 $173 $259 #
vertex $-1 $106 $284 #
vertex $-1 $106 $285 #
straight-curve $-1 54.401074251533558 0 12.733320396944119 0 1 0 I I #
face $-1 $286 $287 $25 $-1 $288 reversed single #
loop $-1 $-1 $289 $107 #
plane-surface $-1 -54.401074251533558 0 0 1 0 0 0 0 -1 forward_v I I I I #
coedge $-1 $290 $188 $193 $291 reversed $108 $-1 #
coedge $-1 $292 $110 $293 $294 reversed $69 $-1 #
coedge $-1 $110 $292 $290 $295 forward $69 $-1 #
coedge $-1 $193 $192 $110 $186 forward $194 $-1 #
edge $-1 $296 -19.516732307974834 $297 -8.2535319828614941 $185 $298 forward 7 unknown #
coedge $-1 $112 $111 $289 $299 reversed $44 $-1 #
coedge $-1 $182 $300 $111 $189 reversed $108 $-1 #
edge $-1 $195 -54.401074251533558 $301 54.401074251533558 $188 $302 forward 7 unknown #
coedge $-1 $303 $304 $112 $191 forward $287 $-1 #
edge $-1 $196 -54.401074251533558 $305 54.401074251533558 $190 $306 forward 7 unknown #
coedge $-1 $185 $113 $304 $307 forward $194 $-1 #
coedge $-1 $113 $185 $182 $291 forward $194 $-1 #
loop $-1 $-1 $113 $286 #
vertex $-1 $114 $308 #
vertex $-1 $307 $309 #
straight-curve $-1 54.401074251533558 -13.885132145418163 3.9759345331451286 0 -1 0 I I #
face $-1 $310 $311 $26 $-1 $312 reversed single #
loop $-1 $-1 $121 $115 #
plane-surface $-1 54.401074251533558 0 0 -1 0 0 0 0 1 forward_v I I I I #
coedge $-1 $313 $209 $314 $315 reversed $116 $-1 #
coedge $-1 $316 $118 $313 $317 forward $73 $-1 #
coedge $-1 $118 $316 $318 $319 reversed $73 $-1 #
coedge $-1 $212 $211 $118 $205 forward $199 $-1 #
edge $-1 $320 8.2535319828614959 $321 19.516732307974838 $204 $322 forward 7 unknown #
coedge $-1 $120 $119 $323 $324 reversed $47 $-1 #
coedge $-1 $325 $326 $119 $208 forward $327 $-1 #
edge $-1 $328 -54.401074251533558 $213 54.401074251533558 $207 $329 forward 7 unknown #
coedge $-1 $201 $330 $120 $210 reversed $116 $-1 #
edge $-1 $331 -54.401074251533558 $214 54.401074251533558 $209 $332 forward 7 unknown #
coedge $-1 $204 $121 $330 $333 forward $199 $-1 #
coedge $-1 $121 $204 $325 $334 reversed $199 $-1 #
vertex $-1 $334 $335 #
vertex $-1 $122 $336 #
straight-curve $-1 54.401074251533558 13.885132145418165 3.9759345331451286 0 -1 0 I I #
face $-1 $-1 $337 $27 $-1 $338 forward single #
loop $-1 $-1 $227 $123 #
plane-surface $-1 54.401074251533558 0 0 -1 0 0 0 0 1 forward_v I I I I #
coedge $-1 $339 $340 $127 $225 forward $124 $-1 #
coedge $-1 $221 $126 $128 $226 reversed $77 $-1 #
coedge $-1 $126 $220 $341 $342 reversed $77 $-1 #
coedge $-1 $343 $129 $126 $223 forward $217 $-1 #
edge $-1 $229 -76.659144666874639 $344 -64.383275773311794 $222 $345 forward 7 unknown #
coedge $-1 $128 $127 $346 $347 reversed $50 $-1 #
edge $-1 $348 56.74242210604114 $228 73.527554563376526 $219 $349 forward 7 unknown #
edge $-1 $350 92.017016045731708 $229 108.80214850306709 $220 $351 forward 7 unknown #
coedge $-1 $129 $343 $339 $352 forward $217 $-1 #
vertex $-1 $225 $353 #
vertex $-1 $130 $354 #
straight-curve $-1 54.401074251533558 -8.7903230043494034 0.45745150338129292 0 1 0 I I #
coedge $-1 $231 $231 $-1 $355 reversed $133 $-1 #
edge $-1 $356 0 $356 6.2831853071796004 $134 $357 forward 7 unknown #
vertex $-1 $137 $358 #
ellipse-curve $-1 48.677357921247136 -17.580646008698807 6.5953859501627061 0.73135370988377701 0 0.68199835119979291 1.3639967023995858 0 -1.462707419767554 1 I I #
face $-1 $-1 $247 $29 $-1 $359 reversed single #
loop $-1 $-1 $360 $138 #
plane-surface $-1 0 0 12.733320396944119 0 0 1 1 0 0 forward_v I I I I #
coedge $-1 $361 $362 $363 $364 reversed $139 $-1 #
coedge $-1 $365 $141 $143 $245 forward $86 $-1 #
coedge $-1 $141 $365 $361 $366 forward $86 $-1 #
coedge $-1 $363 $144 $141 $242 forward $247 $-1 #
edge $-1 $249 -11.036205894081927 $367 1.1847529661547362 $241 $368 forward 7 unknown #
coedge $-1 $369 $370 $142 $244 forward $236 $-1 #
edge $-1 $371 -8.9452721039517158 $248 -1.6276404957457871 $243 $372 forward 7 unknown #
edge $-1 $249 -7.9083955554844352e-015 $371 8.6287932006429777 $143 $373 forward 7 unknown #
coedge $-1 $144 $363 $369 $374 reversed $247 $-1 #
loop $-1 $-1 $363 $235 #
vertex $-1 $374 $375 #
vertex $-1 $145 $376 #
straight-curve $-1 -54.401074251533558 15.961932358045523 50.215105506256307 0 0 -1 I I #
coedge $-1 $251 $251 $-1 $377 reversed $148 $-1 #
edge $-1 $378 0 $378 6.2831853071796004 $149 $379 forward 7 unknown #
vertex $-1 $152 $380 #
ellipse-curve $-1 -50.742258447430601 7.2326760293050469 10.447038494703703 -0.52991927123019833 0 0.84804809178421925 1.2720721376763289 0 0.79487890684529749 1 I I #
coedge $-1 $255 $255 $-1 $381 reversed $155 $-1 #
edge $-1 $382 0 $382 6.2831853071796004 $156 $383 forward 7 unknown #
vertex $-1 $159 $384 #
ellipse-curve $-1 -50.742258447430601 12.470229826549328 10.447038494703703 -0.52991927123019833 0 0.84804809178421925 1.2720721376763289 0 0.79487890684529749 1 I I #
face $-1 $-1 $175 $24 $-1 $385 reversed single #
loop $-1 $-1 $275 $160 #
plane-surface $-1 0 33.401864453392996 0 0 -1 0 0 0 -1 forward_v I I I I #
coedge $-1 $386 $273 $276 $387 forward $161 $-1 #
coedge $-1 $279 $163 $164 $267 reversed $100 $-1 #
coedge $-1 $273 $386 $163 $265 reversed $161 $-1 #
edge $-1 $280 -12.733320396944119 $388 12.733320396944119 $264 $389 forward 7 unknown #
coedge $-1 $165 $164 $386 $390 forward $65 $-1 #
edge $-1 $271 -54.401074251533558 $388 54.401074251533558 $263 $391 forward 7 unknown #
coedge $-1 $276 $275 $165 $269 reversed $260 $-1 #
edge $-1 $392 -54.401074251533558 $270 54.401074251533558 $268 $393 forward 7 unknown #
vertex $-1 $167 $394 #
vertex $-1 $282 $395 #
straight-curve $-1 54.401074251533558 0 -12.733320396944119 0 -1 0 I I #
coedge $-1 $262 $264 $168 $274 reversed $161 $-1 #
edge $-1 $277 -33.401864453392996 $280 33.401864453392996 $273 $396 forward 7 unknown #
coedge $-1 $268 $169 $174 $283 forward $260 $-1 #
coedge $-1 $169 $268 $262 $387 reversed $260 $-1 #
vertex $-1 $170 $397 #
straight-curve $-1 0 33.401864453392996 12.733320396944119 -1 0 0 I I #
coedge $-1 $171 $263 $173 $282 reversed $100 $-1 #
vertex $-1 $274 $398 #
straight-curve $-1 0 -33.401864453392996 12.733320396944119 1 0 0 I I #
edge $-1 $176 -12.733320396944119 $271 12.733320396944119 $173 $399 forward 7 unknown #
edge $-1 $177 -12.733320396944119 $270 12.733320396944119 $174 $400 forward 7 unknown #
point $-1 54.401074251533558 -33.401864453392996 12.733320396944119 #
point $-1 54.401074251533558 33.401864453392996 12.733320396944119 #
face $-1 $-1 $194 $25 $-1 $401 reversed single #
loop $-1 $-1 $190 $179 #
plane-surface $-1 0 -33.401864453392996 0 0 1 0 0 0 1 forward_v I I I I #
coedge $-1 $402 $403 $187 $299 forward $180 $-1 #
coedge $-1 $300 $182 $184 $295 reversed $108 $-1 #
edge $-1 $297 -0.92800468473727182 $195 2.9599579170091763 $193 $404 forward 7 unknown #
coedge $-1 $184 $183 $405 $406 reversed $69 $-1 #
coedge $-1 $304 $303 $183 $294 forward $287 $-1 #
edge $-1 $407 -54.401074251533558 $296 54.401074251533558 $293 $408 forward 7 unknown #
edge $-1 $409 -54.401074251533558 $297 54.401074251533558 $290 $410 forward 7 unknown #
vertex $-1 $294 $411 #
vertex $-1 $186 $412 #
straight-curve $-1 54.401074251533558 -13.885132145418163 0.087971931398680425 0 1 0 I I #
edge $-1 $305 -19.516732307974834 $301 -8.2535319828614941 $289 $413 forward 7 unknown #
coedge $-1 $188 $290 $402 $414 reversed $108 $-1 #
vertex $-1 $299 $415 #
straight-curve $-1 0 -22.138664128279657 3.9759345331451286 -1 0 0 I I #
coedge $-1 $293 $190 $403 $416 forward $287 $-1 #
coedge $-1 $190 $293 $192 $307 reversed $287 $-1 #
vertex $-1 $416 $417 #
straight-curve $-1 0 -33.401864453392996 3.9759345331451286 -1 0 0 I I #
edge $-1 $196 -3.9759345331451286 $296 -0.087971931398680425 $192 $418 forward 7 unknown #
point $-1 54.401074251533558 -22.138664128279657 3.9759345331451286 #
point $-1 54.401074251533558 -33.401864453392996 3.9759345331451286 #
face $-1 $-1 $327 $26 $-1 $419 reversed single #
loop $-1 $-1 $323 $198 #
plane-surface $-1 -54.401074251533558 0 0 1 0 0 0 0 -1 forward_v I I I I #
coedge $-1 $330 $201 $202 $317 reversed $116 $-1 #
coedge $-1 $323 $420 $201 $315 forward $311 $-1 #
edge $-1 $421 -0.92800468473727182 $331 2.9599579170091763 $314 $422 forward 7 unknown #
coedge $-1 $203 $202 $420 $423 reversed $73 $-1 #
edge $-1 $320 -54.401074251533558 $421 54.401074251533558 $313 $424 forward 7 unknown #
coedge $-1 $326 $325 $203 $319 forward $327 $-1 #
edge $-1 $321 -54.401074251533558 $425 54.401074251533558 $318 $426 forward 7 unknown #
vertex $-1 $205 $427 #
vertex $-1 $319 $428 #
straight-curve $-1 54.401074251533558 13.885132145418165 0.087971931398680425 0 1 0 I I #
coedge $-1 $429 $314 $206 $324 forward $311 $-1 #
edge $-1 $331 8.2535319828614959 $328 19.516732307974838 $323 $430 forward 7 unknown #
coedge $-1 $318 $207 $212 $334 forward $327 $-1 #
coedge $-1 $207 $318 $429 $431 reversed $327 $-1 #
loop $-1 $-1 $207 $310 #
vertex $-1 $431 $432 #
straight-curve $-1 0 33.401864453392996 3.9759345331451286 1 0 0 I I #
coedge $-1 $209 $313 $211 $333 reversed $116 $-1 #
vertex $-1 $324 $433 #
straight-curve $-1 0 22.138664128279661 3.9759345331451286 1 0 0 I I #
edge $-1 $214 -2.9599579170091763 $320 0.92800468473727182 $211 $434 forward 7 unknown #
edge $-1 $213 -3.9759345331451286 $321 -0.087971931398680425 $212 $435 forward 7 unknown #
point $-1 54.401074251533558 33.401864453393003 3.9759345331451286 #
point $-1 54.401074251533558 22.138664128279661 3.9759345331451286 #
loop $-1 $-1 $436 $216 #
plane-surface $-1 0 0 12.733320396944119 0 0 1 1 0 0 forward_v I I I I #
coedge $-1 $340 $219 $227 $352 reversed $124 $-1 #
coedge $-1 $219 $339 $436 $437 reversed $124 $-1 #
coedge $-1 $346 $438 $221 $342 forward $337 $-1 #
edge $-1 $344 -24.515552593288284 $350 -13.068119932715419 $341 $439 forward 7 unknown #
coedge $-1 $227 $222 $438 $440 reversed $217 $-1 #
vertex $-1 $342 $441 #
straight-curve $-1 54.401074251533558 -13.022627889117956 77.116596170255917 0 0 1 I I #
coedge $-1 $436 $341 $224 $347 forward $337 $-1 #
edge $-1 $350 4.2323048847685527 $348 13.348341123930254 $346 $442 forward 7 unknown #
vertex $-1 $437 $443 #
straight-curve $-1 4.2554032715579559 -22.138664128279657 54.232101311988558 0.68199835119979291 0 -0.73135370988377701 I I #
vertex $-1 $347 $444 #
straight-curve $-1 -19.801811634553218 -13.022627889117956 80.030306454425045 0.68199835119979291 0 -0.73135370988377701 I I #
edge $-1 $445 64.383275773311794 $228 76.659144666874639 $227 $446 forward 7 unknown #
point $-1 54.401074251533558 -22.138664128279657 0.45745150338128504 #
point $-1 54.401074251533558 -13.022627889117956 0.45745150338127871 #
edge $-1 $447 1 $447 0 $231 $-1 forward 7 unknown #
vertex $-1 $232 $448 #
ellipse-curve $-1 45.032976874772828 -17.580646008698807 3.1969457272584823 0.73135370988377701 0 0.68199835119979291 1.3639967023995858 0 -1.462707419767554 1 I I #
point $-1 50.041354623646704 -17.580646008698807 5.132678530395137 #
plane-surface $-1 -54.401074251533558 0 0 1 0 0 0 0 -1 forward_v I I I I #
coedge $-1 $370 $369 $362 $449 forward $236 $-1 #
coedge $-1 $362 $238 $240 $366 reversed $139 $-1 #
coedge $-1 $238 $361 $360 $449 reversed $139 $-1 #
coedge $-1 $246 $241 $238 $364 forward $247 $-1 #
edge $-1 $367 -42.054348913793007 $450 -37.481785109312185 $363 $451 forward 7 unknown #
coedge $-1 $240 $239 $370 $452 reversed $86 $-1 #
edge $-1 $453 -8.6287932006429777 $367 7.9083955554844352e-015 $361 $454 forward 7 unknown #
vertex $-1 $242 $455 #
straight-curve $-1 -54.401074251533558 4.9257264639635956 8.1607565924632972 0 -1 0 I I #
coedge $-1 $360 $243 $246 $374 forward $236 $-1 #
coedge $-1 $243 $360 $365 $452 forward $236 $-1 #
vertex $-1 $244 $456 #
straight-curve $-1 -56.028714747279345 15.961932358045523 12.733320396944123 -1 0 0 I I #
straight-curve $-1 -54.401074251533551 15.961932358045523 8.1607565924633008 0.84804809178421925 0 0.52991927123019833 I I #
edge $-1 $248 -15.961932358045523 $450 -3.7409734978088593 $246 $457 forward 7 unknown #
point $-1 -54.401074251533558 15.961932358045523 12.733320396944119 #
point $-1 -54.401074251533558 15.961932358045523 8.1607565924632972 #
edge $-1 $458 1 $458 0 $251 $-1 forward 7 unknown #
vertex $-1 $252 $459 #
ellipse-curve $-1 -49.548278378580285 7.2326760293050469 8.5362709986164607 -0.52991927123019833 0 0.84804809178421925 1.2720721376763289 0 0.79487890684529749 1 I I #
point $-1 -49.470186309754283 7.2326760293050469 11.241917401549017 #
edge $-1 $460 1 $460 0 $255 $-1 forward 7 unknown #
vertex $-1 $256 $461 #
ellipse-curve $-1 -49.548278378580285 12.470229826549328 8.5362709986164607 -0.52991927123019833 0 0.84804809178421925 1.2720721376763289 0 0.79487890684529749 1 I I #
point $-1 -49.470186309754283 12.470229826549328 11.241917401549017 #
plane-surface $-1 54.401074251533558 0 0 -1 0 0 0 0 1 forward_v I I I I #
coedge $-1 $264 $262 $266 $390 reversed $161 $-1 #
edge $-1 $277 -12.733320396944119 $392 12.733320396944119 $276 $462 forward 7 unknown #
vertex $-1 $390 $463 #
straight-curve $-1 -54.401074251533558 -33.401864453392996 0 0 0 -1 I I #
edge $-1 $388 -33.401864453392996 $392 33.401864453392996 $386 $464 forward 7 unknown #
straight-curve $-1 0 -33.401864453392996 -12.733320396944119 -1 0 0 I I #
vertex $-1 $269 $465 #
straight-curve $-1 0 33.401864453392996 -12.733320396944119 1 0 0 I I #
point $-1 54.401074251533558 33.401864453392996 -12.733320396944119 #
point $-1 54.401074251533558 -33.401864453392996 -12.733320396944119 #
straight-curve $-1 -54.401074251533558 0 12.733320396944119 0 -1 0 I I #
point $-1 -54.401074251533558 33.401864453392996 12.733320396944119 #
point $-1 -54.401074251533558 -33.401864453392996 12.733320396944119 #
straight-curve $-1 54.401074251533558 -33.401864453392996 0 0 0 -1 I I #
straight-curve $-1 54.401074251533558 33.401864453392996 0 0 0 -1 I I #
plane-surface $-1 54.401074251533558 0 0 -1 0 0 0 0 1 forward_v I I I I #
coedge $-1 $405 $289 $300 $414 forward $180 $-1 #
coedge $-1 $289 $405 $303 $416 reversed $180 $-1 #
straight-curve $-1 54.401074251533558 -22.138664128279657 1.0159766161359522 0 0 1 I I #
coedge $-1 $403 $402 $292 $406 forward $180 $-1 #
edge $-1 $409 8.2535319828614941 $407 19.516732307974834 $405 $466 forward 7 unknown #
vertex $-1 $294 $467 #
straight-curve $-1 0 -33.401864453392996 0.087971931398680425 1 0 0 I I #
vertex $-1 $406 $468 #
straight-curve $-1 0 -22.138664128279657 0.087971931398680425 1 0 0 I I #
point $-1 54.401074251533558 -33.401864453392996 0.087971931398680425 #
point $-1 54.401074251533558 -22.138664128279657 0.087971931398680425 #
straight-curve $-1 -54.401074251533558 -13.885132145418163 3.9759345331451286 0 1 0 I I #
edge $-1 $301 -2.9599579170091763 $409 0.92800468473727182 $402 $469 forward 7 unknown #
point $-1 -54.401074251533558 -22.138664128279657 3.9759345331451286 #
edge $-1 $305 -3.9759345331451286 $407 -0.087971931398680425 $403 $470 forward 7 unknown #
point $-1 -54.401074251533558 -33.401864453392996 3.9759345331451286 #
straight-curve $-1 54.401074251533558 -33.401864453392996 0 0 0 -1 I I #
plane-surface $-1 0 33.401864453392996 0 0 -1 0 0 0 -1 forward_v I I I I #
coedge $-1 $314 $429 $316 $423 forward $311 $-1 #
vertex $-1 $423 $471 #
straight-curve $-1 -54.401074251533558 22.138664128279661 1.0159766161359522 0 0 1 I I #
edge $-1 $425 -19.516732307974838 $421 -8.2535319828614959 $420 $472 forward 7 unknown #
straight-curve $-1 0 22.138664128279661 0.087971931398680425 -1 0 0 I I #
vertex $-1 $319 $473 #
straight-curve $-1 0 33.401864453392996 0.087971931398680425 -1 0 0 I I #
point $-1 54.401074251533558 22.138664128279661 0.087971931398680425 #
point $-1 54.401074251533558 33.401864453393003 0.087971931398680425 #
coedge $-1 $420 $323 $326 $431 forward $311 $-1 #
straight-curve $-1 -54.401074251533558 13.885132145418165 3.9759345331451286 0 1 0 I I #
edge $-1 $328 -3.9759345331451286 $425 -0.087971931398680425 $326 $474 forward 7 unknown #
point $-1 -54.401074251533558 33.401864453393003 3.9759345331451286 #
point $-1 -54.401074251533558 22.138664128279661 3.9759345331451286 #
straight-curve $-1 54.401074251533558 22.138664128279661 1.0159766161359522 0 0 -1 I I #
straight-curve $-1 54.401074251533558 33.401864453392996 0 0 0 -1 I I #
coedge $-1 $438 $346 $340 $437 forward $337 $-1 #
edge $-1 $348 13.068119932715419 $445 24.515552593288284 $436 $475 forward 7 unknown #
coedge $-1 $341 $436 $343 $440 forward $337 $-1 #
straight-curve $-1 29.885521658245274 -13.022627889117956 12.733320396944123 -1 0 0 I I #
edge $-1 $445 -22.138664128279657 $344 -13.022627889117956 $343 $476 forward 7 unknown #
point $-1 54.401074251533558 -13.022627889117956 12.733320396944119 #
straight-curve $-1 42.953641590960693 -8.7903230043494034 12.733320396944123 0 -1 0 I I #
point $-1 42.953641590960693 -22.138664128279657 12.733320396944123 #
point $-1 42.953641590960693 -13.022627889117956 12.733320396944123 #
vertex $-1 $440 $477 #
straight-curve $-1 54.401074251533558 -22.138664128279657 77.116596170255917 0 0 -1 I I #
vertex $-1 $355 $478 #
point $-1 46.396973577172417 -17.580646008698807 1.7342383074909282 #
edge $-1 $450 1.6276404957457871 $453 8.9452721039517158 $360 $479 forward 7 unknown #
vertex $-1 $449 $480 #
straight-curve $-1 -54.401074251533558 3.7409734978088593 50.215105506256307 0 0 1 I I #
edge $-1 $453 -1.1847529661547362 $371 11.036205894081927 $370 $481 forward 7 unknown #
vertex $-1 $452 $482 #
straight-curve $-1 -54.401074251533551 3.7409734978088593 8.1607565924633008 -0.84804809178421925 0 -0.52991927123019833 I I #
point $-1 -54.401074251533558 3.7409734978088593 8.1607565924632972 #
point $-1 -47.083442643327629 15.961932358045523 12.733320396944119 #
straight-curve $-1 -54.401074251533558 0 12.733320396944119 0 -1 0 I I #
vertex $-1 $377 $483 #
point $-1 -48.276206240903953 7.2326760293050469 9.3311499054617588 #
vertex $-1 $381 $484 #
point $-1 -48.276206240903953 12.470229826549328 9.3311499054617588 #
straight-curve $-1 -54.401074251533558 33.401864453392996 0 0 0 -1 I I #
point $-1 -54.401074251533558 -33.401864453392996 -12.733320396944119 #
straight-curve $-1 -54.401074251533558 0 -12.733320396944119 0 1 0 I I #
point $-1 -54.401074251533558 33.401864453392996 -12.733320396944119 #
straight-curve $-1 -54.401074251533558 -13.885132145418163 0.087971931398680425 0 -1 0 I I #
point $-1 -54.401074251533558 -33.401864453392996 0.087971931398680425 #
point $-1 -54.401074251533558 -22.138664128279657 0.087971931398680425 #
straight-curve $-1 -54.401074251533558 -22.138664128279657 1.0159766161359522 0 0 -1 I I #
straight-curve $-1 -54.401074251533558 -33.401864453392996 0 0 0 -1 I I #
point $-1 -54.401074251533558 22.138664128279661 0.087971931398680425 #
straight-curve $-1 -54.401074251533558 13.885132145418165 0.087971931398680425 0 -1 0 I I #
point $-1 -54.401074251533558 33.401864453393003 0.087971931398680425 #
straight-curve $-1 -54.401074251533558 33.401864453392996 0 0 0 -1 I I #
straight-curve $-1 29.885521658245274 -22.138664128279657 12.733320396944123 1 0 0 I I #
straight-curve $-1 54.401074251533558 0 12.733320396944119 0 1 0 I I #
point $-1 54.401074251533558 -22.138664128279657 12.733320396944119 #
point $-1 43.570269455005274 -17.580646008698807 1.8329490248588964 #
straight-curve $-1 -56.028714747279345 3.7409734978088593 12.733320396944123 1 0 0 I I #
point $-1 -54.401074251533558 3.7409734978088593 12.733320396944119 #
straight-curve $-1 -47.083442643327629 4.9257264639635956 12.733320396944119 0 1 0 I I #
point $-1 -47.083442643327629 3.7409734978088593 12.733320396944119 #
point $-1 -48.753399471734987 7.2326760293050469 7.264198860940132 #
point $-1 -48.753399471734987 12.470229826549328 7.264198860940132 #
End-of-ACIS-data 