500 0 7 0           
7 Unknown 11 ACIS 5.0 NT 24 Thu Mar 25 22:53:50 1999 
-1 9.9999999999999995e-007 1e-010 
body $-1 $7 $-1 $8 #
body $-1 $9 $-1 $10 #
body $-1 $11 $-1 $12 #
body $-1 $13 $-1 $14 #
body $-1 $15 $-1 $16 #
body $-1 $17 $-1 $18 #
body $-1 $19 $-1 $20 #
lump $-1 $-1 $21 $0 #
transform $-1 1 0 0 0 1 0 0 0 1 67.996459852900784 45.831361217663989 10.534205568856306 1 rotate no_reflect no_shear #
lump $-1 $-1 $22 $1 #
transform $-1 1 0 0 0 1 0 0 0 1 -3.7630521440479736 45.831361217663989 9.0124134520440897 1 rotate no_reflect no_shear #
lump $-1 $-1 $23 $2 #
transform $-1 1 0 0 0 1 0 0 0 1 139.75597184984954 45.831361217663989 9.0124134520440897 1 rotate no_reflect no_shear #
lump $-1 $-1 $24 $3 #
transform $-1 1 0 0 0 0.7313536940579346 -0.68199836817093118 0 0.68199836817093118 0.7313536940579346 65.248777982466692 117.37180109700088 178.48773696961013 1 rotate no_reflect no_shear #
lump $-1 $-1 $25 $4 #
transform $-1 1 0 0 0 -0.7313536940579346 0.68199836817093118 0 -0.68199836817093118 -0.7313536940579346 65.248777982466692 86.1059389219824 15.450939582834749 1 rotate no_reflect no_shear #
lump $-1 $-1 $26 $5 #
transform $-1 1 0 0 0 0.7313536940579346 0.68199836817093118 0 -0.68199836817093118 0.7313536940579346 65.248777982466692 -92.746949322157135 115.97390984661145 1 rotate no_reflect no_shear #
lump $-1 $-1 $27 $6 #
transform $-1 1 0 0 0 -0.7313536940579346 -0.68199836817093118 0 0.68199836817093118 -0.7313536940579346 65.248777982466692 5.5567835133455823 15.45093958283476 1 rotate no_reflect no_shear #
shell $-1 $-1 $-1 $28 $-1 $7 #
shell $-1 $-1 $-1 $29 $-1 $9 #
shell $-1 $-1 $-1 $30 $-1 $11 #
shell $-1 $-1 $-1 $31 $-1 $13 #
shell $-1 $-1 $-1 $32 $-1 $15 #
shell $-1 $-1 $-1 $33 $-1 $17 #
shell $-1 $-1 $-1 $34 $-1 $19 #
face $-1 $35 $36 $21 $-1 $37 forward single #
face $-1 $38 $39 $22 $-1 $40 forward single #
face $-1 $41 $42 $23 $-1 $43 forward single #
face $-1 $44 $45 $24 $-1 $46 forward single #
face $-1 $47 $48 $25 $-1 $49 forward single #
face $-1 $50 $51 $26 $-1 $52 forward single #
face $-1 $53 $54 $27 $-1 $55 forward single #
face $-1 $56 $57 $21 $-1 $58 reversed single #
loop $-1 $-1 $59 $28 #
plane-surface $-1 0 0 10.534205568856306 0 0 1 1 0 0 forward_v I I I I #
face $-1 $60 $61 $22 $-1 $62 reversed single #
loop $-1 $-1 $63 $29 #
plane-surface $-1 0 0 2.4954239645380873 0 0 1 1 0 0 forward_v I I I I #
face $-1 $64 $65 $23 $-1 $66 reversed single #
loop $-1 $-1 $67 $30 #
plane-surface $-1 0 0 2.4954239645380873 0 0 1 1 0 0 forward_v I I I I #
face $-1 $68 $69 $24 $-1 $70 reversed single #
loop $-1 $-1 $71 $31 #
plane-surface $-1 0 0 135.99291970580157 0 0 1 1 0 0 forward_v I I I I #
face $-1 $72 $73 $25 $-1 $74 forward single #
loop $-1 $75 $76 $32 #
cone-surface $-1 0 0 -2.6589556566057322 0 0 1 1.5 0 0 1 I I 0 1 1.5 forward I I I I #
face $-1 $77 $78 $26 $-1 $79 reversed single #
loop $-1 $-1 $80 $33 #
plane-surface $-1 0 0 135.99291970580157 0 0 1 1 0 0 forward_v I I I I #
face $-1 $81 $82 $27 $-1 $83 forward single #
loop $-1 $84 $85 $34 #
cone-surface $-1 0 0 -2.6589556566057322 0 0 1 1.5 0 0 1 I I 0 1 1.5 forward I I I I #
face $-1 $86 $87 $21 $-1 $88 reversed single #
loop $-1 $-1 $89 $35 #
plane-surface $-1 0 0 -10.534205568856306 0 0 1 1 0 0 forward_v I I I I #
coedge $-1 $90 $91 $92 $93 forward $36 $-1 #
face $-1 $94 $95 $22 $-1 $96 reversed single #
loop $-1 $-1 $97 $38 #
plane-surface $-1 0 0 -2.4954239645380873 0 0 1 1 0 0 forward_v I I I I #
coedge $-1 $98 $99 $100 $101 forward $39 $-1 #
face $-1 $102 $103 $23 $-1 $104 reversed single #
loop $-1 $-1 $105 $41 #
plane-surface $-1 0 0 -2.4954239645380873 0 0 1 1 0 0 forward_v I I I I #
coedge $-1 $106 $107 $108 $109 forward $42 $-1 #
face $-1 $110 $111 $24 $-1 $112 reversed single #
loop $-1 $-1 $113 $44 #
plane-surface $-1 0 0 -135.99291970580157 0 0 1 1 0 0 forward_v I I I I #
coedge $-1 $114 $115 $116 $117 forward $45 $-1 #
face $-1 $-1 $118 $25 $-1 $119 forward single #
loop $-1 $-1 $120 $47 #
plane-surface $-1 0 0 -4.5679113132114635 0 0 -1 -1 0 0 forward_v I I I I #
loop $-1 $-1 $121 $32 #
coedge $-1 $76 $76 $120 $122 reversed $48 $-1 #
face $-1 $123 $124 $26 $-1 $125 reversed single #
loop $-1 $-1 $126 $50 #
plane-surface $-1 0 0 -135.99291970580157 0 0 1 1 0 0 forward_v I I I I #
coedge $-1 $127 $128 $129 $130 forward $51 $-1 #
face $-1 $-1 $131 $27 $-1 $132 forward single #
loop $-1 $-1 $133 $53 #
plane-surface $-1 0 0 -4.5679113132114635 0 0 -1 -1 0 0 forward_v I I I I #
loop $-1 $-1 $134 $34 #
coedge $-1 $85 $85 $133 $135 reversed $54 $-1 #
face $-1 $136 $137 $21 $-1 $138 reversed single #
loop $-1 $-1 $139 $56 #
plane-surface $-1 0 -45.831361217663989 0 0 1 0 0 0 1 forward_v I I I I #
coedge $-1 $140 $141 $142 $143 forward $57 $-1 #
coedge $-1 $144 $59 $145 $146 forward $36 $-1 #
coedge $-1 $59 $144 $147 $148 forward $36 $-1 #
coedge $-1 $149 $150 $59 $93 reversed $151 $-1 #
edge $-1 $152 -45.831361217663989 $153 45.831361217663989 $92 $154 forward 7 unknown #
face $-1 $155 $156 $22 $-1 $157 reversed single #
loop $-1 $-1 $158 $60 #
plane-surface $-1 0 -45.831361217663989 0 0 1 0 0 0 1 forward_v I I I I #
coedge $-1 $159 $160 $161 $162 forward $61 $-1 #
coedge $-1 $163 $63 $164 $165 forward $39 $-1 #
coedge $-1 $63 $163 $166 $167 forward $39 $-1 #
coedge $-1 $168 $169 $63 $101 reversed $170 $-1 #
edge $-1 $171 -45.831361217663989 $172 45.831361217663989 $100 $173 forward 7 unknown #
face $-1 $174 $175 $23 $-1 $176 reversed single #
loop $-1 $-1 $177 $64 #
plane-surface $-1 0 -45.831361217663989 0 0 1 0 0 0 1 forward_v I I I I #
coedge $-1 $178 $179 $180 $181 forward $65 $-1 #
coedge $-1 $182 $67 $183 $184 forward $42 $-1 #
coedge $-1 $67 $182 $185 $186 forward $42 $-1 #
coedge $-1 $187 $188 $67 $109 reversed $189 $-1 #
edge $-1 $190 -45.831361217663989 $191 45.831361217663989 $108 $192 forward 7 unknown #
face $-1 $193 $194 $24 $-1 $195 reversed single #
loop $-1 $-1 $196 $68 #
plane-surface $-1 0 -271.98583941160314 0 0 1 0 0 0 1 forward_v I I I I #
coedge $-1 $197 $198 $199 $200 forward $69 $-1 #
coedge $-1 $201 $71 $202 $203 forward $45 $-1 #
coedge $-1 $71 $201 $204 $205 forward $45 $-1 #
coedge $-1 $206 $207 $71 $117 reversed $208 $-1 #
edge $-1 $209 -271.98583941160314 $210 271.98583941160314 $116 $211 forward 7 unknown #
loop $-1 $212 $213 $72 #
cone-surface $-1 0 0 0 0 0 1 0.75 0 0 1 I I -0.70710678118654757 0.70710678118654757 0.75 forward I I I I #
coedge $-1 $120 $120 $76 $122 forward $73 $-1 #
coedge $-1 $121 $121 $213 $214 forward $75 $-1 #
edge $-1 $215 0 $215 6.2831853071796004 $120 $216 forward 7 unknown #
face $-1 $217 $218 $26 $-1 $219 reversed single #
loop $-1 $-1 $220 $77 #
plane-surface $-1 0 -271.98583941160314 0 0 1 0 0 0 1 forward_v I I I I #
coedge $-1 $221 $222 $223 $224 forward $78 $-1 #
coedge $-1 $225 $80 $226 $227 forward $51 $-1 #
coedge $-1 $80 $225 $228 $229 forward $51 $-1 #
coedge $-1 $230 $231 $80 $130 reversed $232 $-1 #
edge $-1 $233 -271.98583941160314 $234 271.98583941160314 $129 $235 forward 7 unknown #
loop $-1 $236 $237 $81 #
cone-surface $-1 0 0 0 0 0 1 0.75 0 0 1 I I -0.70710678118654757 0.70710678118654757 0.75 forward I I I I #
coedge $-1 $133 $133 $85 $135 forward $82 $-1 #
coedge $-1 $134 $134 $237 $238 forward $84 $-1 #
edge $-1 $239 0 $239 6.2831853071796004 $133 $240 forward 7 unknown #
face $-1 $241 $242 $21 $-1 $243 reversed single #
loop $-1 $-1 $244 $86 #
plane-surface $-1 -67.996459852900784 0 0 1 0 0 0 0 -1 forward_v I I I I #
coedge $-1 $245 $147 $246 $247 forward $87 $-1 #
coedge $-1 $248 $89 $245 $249 forward $57 $-1 #
coedge $-1 $89 $248 $250 $251 forward $57 $-1 #
coedge $-1 $150 $149 $89 $143 reversed $151 $-1 #
edge $-1 $252 -45.831361217663989 $253 45.831361217663989 $142 $254 forward 7 unknown #
coedge $-1 $91 $90 $255 $256 forward $36 $-1 #
coedge $-1 $257 $258 $90 $146 reversed $242 $-1 #
edge $-1 $153 -67.996459852900784 $259 67.996459852900784 $145 $260 forward 7 unknown #
coedge $-1 $139 $261 $91 $148 reversed $87 $-1 #
edge $-1 $262 -67.996459852900784 $152 67.996459852900784 $147 $263 forward 7 unknown #
coedge $-1 $142 $92 $261 $264 forward $151 $-1 #
coedge $-1 $92 $142 $257 $265 reversed $151 $-1 #
loop $-1 $-1 $149 $241 #
vertex $-1 $93 $266 #
vertex $-1 $93 $267 #
straight-curve $-1 67.996459852900784 0 10.534205568856306 0 1 0 I I #
face $-1 $268 $269 $22 $-1 $270 reversed single #
loop $-1 $-1 $271 $94 #
plane-surface $-1 -3.7630521440479736 0 0 1 0 0 0 0 -1 forward_v I I I I #
coedge $-1 $272 $166 $273 $274 forward $95 $-1 #
coedge $-1 $275 $97 $272 $276 forward $61 $-1 #
coedge $-1 $97 $275 $277 $278 forward $61 $-1 #
coedge $-1 $169 $168 $97 $162 reversed $170 $-1 #
edge $-1 $279 -45.831361217663989 $280 45.831361217663989 $161 $281 forward 7 unknown #
coedge $-1 $99 $98 $282 $283 forward $39 $-1 #
coedge $-1 $284 $285 $98 $165 reversed $269 $-1 #
edge $-1 $172 -3.7630521440479736 $286 3.7630521440479736 $164 $287 forward 7 unknown #
coedge $-1 $158 $288 $99 $167 reversed $95 $-1 #
edge $-1 $289 -3.7630521440479736 $171 3.7630521440479736 $166 $290 forward 7 unknown #
coedge $-1 $161 $100 $288 $291 forward $170 $-1 #
coedge $-1 $100 $161 $284 $292 reversed $170 $-1 #
loop $-1 $-1 $168 $268 #
vertex $-1 $101 $293 #
vertex $-1 $101 $294 #
straight-curve $-1 3.7630521440479736 0 2.4954239645380873 0 1 0 I I #
face $-1 $295 $296 $23 $-1 $297 reversed single #
loop $-1 $-1 $298 $102 #
plane-surface $-1 -3.7630521440479754 0 0 1 0 0 0 0 -1 forward_v I I I I #
coedge $-1 $299 $185 $300 $301 forward $103 $-1 #
coedge $-1 $302 $105 $299 $303 forward $65 $-1 #
coedge $-1 $105 $302 $304 $305 forward $65 $-1 #
coedge $-1 $188 $187 $105 $181 reversed $189 $-1 #
edge $-1 $306 -45.831361217663989 $307 45.831361217663989 $180 $308 forward 7 unknown #
coedge $-1 $107 $106 $309 $310 forward $42 $-1 #
coedge $-1 $311 $312 $106 $184 reversed $296 $-1 #
edge $-1 $191 -3.7630521440479754 $313 3.7630521440479754 $183 $314 forward 7 unknown #
coedge $-1 $177 $315 $107 $186 reversed $103 $-1 #
edge $-1 $316 -3.7630521440479754 $190 3.7630521440479754 $185 $317 forward 7 unknown #
coedge $-1 $180 $108 $315 $318 forward $189 $-1 #
coedge $-1 $108 $180 $311 $319 reversed $189 $-1 #
loop $-1 $-1 $187 $295 #
vertex $-1 $109 $320 #
vertex $-1 $109 $321 #
straight-curve $-1 3.7630521440479754 0 2.4954239645380873 0 1 0 I I #
face $-1 $322 $323 $24 $-1 $324 reversed single #
loop $-1 $-1 $325 $110 #
plane-surface $-1 -17.601861761575734 0 0 1 0 0 0 0 -1 forward_v I I I I #
coedge $-1 $326 $204 $327 $328 forward $111 $-1 #
coedge $-1 $329 $113 $326 $330 forward $69 $-1 #
coedge $-1 $113 $329 $331 $332 forward $69 $-1 #
coedge $-1 $207 $206 $113 $200 reversed $208 $-1 #
edge $-1 $333 -271.98583941160314 $334 271.98583941160314 $199 $335 forward 7 unknown #
coedge $-1 $115 $114 $336 $337 forward $45 $-1 #
coedge $-1 $338 $339 $114 $203 reversed $323 $-1 #
edge $-1 $210 -17.601861761575734 $340 17.601861761575734 $202 $341 forward 7 unknown #
coedge $-1 $196 $342 $115 $205 reversed $111 $-1 #
edge $-1 $343 -17.601861761575734 $209 17.601861761575734 $204 $344 forward 7 unknown #
coedge $-1 $199 $116 $342 $345 forward $208 $-1 #
coedge $-1 $116 $199 $338 $346 reversed $208 $-1 #
loop $-1 $-1 $206 $322 #
vertex $-1 $117 $347 #
vertex $-1 $117 $348 #
straight-curve $-1 17.601861761575734 0 135.99291970580157 0 1 0 I I #
loop $-1 $-1 $349 $72 #
coedge $-1 $213 $213 $121 $214 reversed $118 $-1 #
edge $-1 $350 0 $350 6.2831853071796004 $213 $351 forward 7 unknown #
vertex $-1 $122 $352 #
ellipse-curve $-1 0 0 -4.5679113132114635 0 0 -1 1.5 0 0 1 I I #
face $-1 $353 $354 $26 $-1 $355 reversed single #
loop $-1 $-1 $356 $123 #
plane-surface $-1 -17.601861761575734 0 0 1 0 0 0 0 -1 forward_v I I I I #
coedge $-1 $357 $228 $358 $359 forward $124 $-1 #
coedge $-1 $360 $126 $357 $361 forward $78 $-1 #
coedge $-1 $126 $360 $362 $363 forward $78 $-1 #
coedge $-1 $231 $230 $126 $224 reversed $232 $-1 #
edge $-1 $364 -271.98583941160314 $365 271.98583941160314 $223 $366 forward 7 unknown #
coedge $-1 $128 $127 $367 $368 forward $51 $-1 #
coedge $-1 $369 $370 $127 $227 reversed $354 $-1 #
edge $-1 $234 -17.601861761575734 $371 17.601861761575734 $226 $372 forward 7 unknown #
coedge $-1 $220 $373 $128 $229 reversed $124 $-1 #
edge $-1 $374 -17.601861761575734 $233 17.601861761575734 $228 $375 forward 7 unknown #
coedge $-1 $223 $129 $373 $376 forward $232 $-1 #
coedge $-1 $129 $223 $369 $377 reversed $232 $-1 #
loop $-1 $-1 $230 $353 #
vertex $-1 $130 $378 #
vertex $-1 $130 $379 #
straight-curve $-1 17.601861761575734 0 135.99291970580157 0 1 0 I I #
loop $-1 $-1 $380 $81 #
coedge $-1 $237 $237 $134 $238 reversed $131 $-1 #
edge $-1 $381 0 $381 6.2831853071796004 $237 $382 forward 7 unknown #
vertex $-1 $135 $383 #
ellipse-curve $-1 0 0 -4.5679113132114635 0 0 -1 1.5 0 0 1 I I #
face $-1 $-1 $151 $21 $-1 $384 reversed single #
loop $-1 $-1 $257 $136 #
plane-surface $-1 0 45.831361217663989 0 0 -1 0 0 0 -1 forward_v I I I I #
coedge $-1 $385 $255 $258 $386 forward $137 $-1 #
coedge $-1 $261 $139 $140 $249 reversed $87 $-1 #
coedge $-1 $255 $385 $139 $247 reversed $137 $-1 #
edge $-1 $262 -10.534205568856306 $387 10.534205568856306 $246 $388 forward 7 unknown #
coedge $-1 $141 $140 $385 $389 forward $57 $-1 #
edge $-1 $253 -67.996459852900784 $387 67.996459852900784 $245 $390 forward 7 unknown #
coedge $-1 $258 $257 $141 $251 reversed $242 $-1 #
edge $-1 $391 -67.996459852900784 $252 67.996459852900784 $250 $392 forward 7 unknown #
vertex $-1 $143 $393 #
vertex $-1 $264 $394 #
straight-curve $-1 67.996459852900784 0 -10.534205568856306 0 -1 0 I I #
coedge $-1 $244 $246 $144 $256 reversed $137 $-1 #
edge $-1 $259 -45.831361217663989 $262 45.831361217663989 $255 $395 forward 7 unknown #
coedge $-1 $250 $145 $150 $265 forward $242 $-1 #
coedge $-1 $145 $250 $244 $386 reversed $242 $-1 #
vertex $-1 $146 $396 #
straight-curve $-1 0 45.831361217663989 10.534205568856306 -1 0 0 I I #
coedge $-1 $147 $245 $149 $264 reversed $87 $-1 #
vertex $-1 $256 $397 #
straight-curve $-1 0 -45.831361217663989 10.534205568856306 1 0 0 I I #
edge $-1 $152 -10.534205568856306 $253 10.534205568856306 $149 $398 forward 7 unknown #
edge $-1 $153 -10.534205568856306 $252 10.534205568856306 $150 $399 forward 7 unknown #
point $-1 67.996459852900784 -45.831361217663989 10.534205568856306 #
point $-1 67.996459852900784 45.831361217663989 10.534205568856306 #
face $-1 $-1 $170 $22 $-1 $400 reversed single #
loop $-1 $-1 $284 $155 #
plane-surface $-1 0 45.831361217663989 0 0 -1 0 0 0 -1 forward_v I I I I #
coedge $-1 $401 $282 $285 $402 forward $156 $-1 #
coedge $-1 $288 $158 $159 $276 reversed $95 $-1 #
coedge $-1 $282 $401 $158 $274 reversed $156 $-1 #
edge $-1 $289 -2.4954239645380873 $403 2.4954239645380873 $273 $404 forward 7 unknown #
coedge $-1 $160 $159 $401 $405 forward $61 $-1 #
edge $-1 $280 -3.7630521440479736 $403 3.7630521440479736 $272 $406 forward 7 unknown #
coedge $-1 $285 $284 $160 $278 reversed $269 $-1 #
edge $-1 $407 -3.7630521440479736 $279 3.7630521440479736 $277 $408 forward 7 unknown #
vertex $-1 $162 $409 #
vertex $-1 $291 $410 #
straight-curve $-1 3.7630521440479736 0 -2.4954239645380873 0 -1 0 I I #
coedge $-1 $271 $273 $163 $283 reversed $156 $-1 #
edge $-1 $286 -45.831361217663989 $289 45.831361217663989 $282 $411 forward 7 unknown #
coedge $-1 $277 $164 $169 $292 forward $269 $-1 #
coedge $-1 $164 $277 $271 $402 reversed $269 $-1 #
vertex $-1 $165 $412 #
straight-curve $-1 0 45.831361217663989 2.4954239645380873 -1 0 0 I I #
coedge $-1 $166 $272 $168 $291 reversed $95 $-1 #
vertex $-1 $283 $413 #
straight-curve $-1 0 -45.831361217663989 2.4954239645380873 1 0 0 I I #
edge $-1 $171 -2.4954239645380873 $280 2.4954239645380873 $168 $414 forward 7 unknown #
edge $-1 $172 -2.4954239645380873 $279 2.4954239645380873 $169 $415 forward 7 unknown #
point $-1 3.7630521440479736 -45.831361217663989 2.4954239645380873 #
point $-1 3.7630521440479736 45.831361217663989 2.4954239645380873 #
face $-1 $-1 $189 $23 $-1 $416 reversed single #
loop $-1 $-1 $311 $174 #
plane-surface $-1 0 45.831361217663989 0 0 -1 0 0 0 -1 forward_v I I I I #
coedge $-1 $417 $309 $312 $418 forward $175 $-1 #
coedge $-1 $315 $177 $178 $303 reversed $103 $-1 #
coedge $-1 $309 $417 $177 $301 reversed $175 $-1 #
edge $-1 $316 -2.4954239645380873 $419 2.4954239645380873 $300 $420 forward 7 unknown #
coedge $-1 $179 $178 $417 $421 forward $65 $-1 #
edge $-1 $307 -3.7630521440479754 $419 3.7630521440479754 $299 $422 forward 7 unknown #
coedge $-1 $312 $311 $179 $305 reversed $296 $-1 #
edge $-1 $423 -3.7630521440479754 $306 3.7630521440479754 $304 $424 forward 7 unknown #
vertex $-1 $181 $425 #
vertex $-1 $318 $426 #
straight-curve $-1 3.7630521440479754 0 -2.4954239645380873 0 -1 0 I I #
coedge $-1 $298 $300 $182 $310 reversed $175 $-1 #
edge $-1 $313 -45.831361217663989 $316 45.831361217663989 $309 $427 forward 7 unknown #
coedge $-1 $304 $183 $188 $319 forward $296 $-1 #
coedge $-1 $183 $304 $298 $418 reversed $296 $-1 #
vertex $-1 $184 $428 #
straight-curve $-1 0 45.831361217663989 2.4954239645380873 -1 0 0 I I #
coedge $-1 $185 $299 $187 $318 reversed $103 $-1 #
vertex $-1 $310 $429 #
straight-curve $-1 0 -45.831361217663989 2.4954239645380873 1 0 0 I I #
edge $-1 $190 -2.4954239645380873 $307 2.4954239645380873 $187 $430 forward 7 unknown #
edge $-1 $191 -2.4954239645380873 $306 2.4954239645380873 $188 $431 forward 7 unknown #
point $-1 3.7630521440479754 -45.831361217663989 2.4954239645380873 #
point $-1 3.7630521440479754 45.831361217663989 2.4954239645380873 #
face $-1 $-1 $208 $24 $-1 $432 reversed single #
loop $-1 $-1 $338 $193 #
plane-surface $-1 0 271.98583941160314 0 0 -1 0 0 0 -1 forward_v I I I I #
coedge $-1 $433 $336 $339 $434 forward $194 $-1 #
coedge $-1 $342 $196 $197 $330 reversed $111 $-1 #
coedge $-1 $336 $433 $196 $328 reversed $194 $-1 #
edge $-1 $343 -135.99291970580157 $435 135.99291970580157 $327 $436 forward 7 unknown #
coedge $-1 $198 $197 $433 $437 forward $69 $-1 #
edge $-1 $334 -17.601861761575734 $435 17.601861761575734 $326 $438 forward 7 unknown #
coedge $-1 $339 $338 $198 $332 reversed $323 $-1 #
edge $-1 $439 -17.601861761575734 $333 17.601861761575734 $331 $440 forward 7 unknown #
vertex $-1 $200 $441 #
vertex $-1 $345 $442 #
straight-curve $-1 17.601861761575734 0 -135.99291970580157 0 -1 0 I I #
coedge $-1 $325 $327 $201 $337 reversed $194 $-1 #
edge $-1 $340 -271.98583941160314 $343 271.98583941160314 $336 $443 forward 7 unknown #
coedge $-1 $331 $202 $207 $346 forward $323 $-1 #
coedge $-1 $202 $331 $325 $434 reversed $323 $-1 #
vertex $-1 $203 $444 #
straight-curve $-1 0 271.98583941160314 135.99291970580157 -1 0 0 I I #
coedge $-1 $204 $326 $206 $345 reversed $111 $-1 #
vertex $-1 $337 $445 #
straight-curve $-1 0 -271.98583941160314 135.99291970580157 1 0 0 I I #
edge $-1 $209 -135.99291970580157 $334 135.99291970580157 $206 $446 forward 7 unknown #
edge $-1 $210 -135.99291970580157 $333 135.99291970580157 $207 $447 forward 7 unknown #
point $-1 17.601861761575734 -271.98583941160314 135.99291970580157 #
point $-1 17.601861761575734 271.98583941160314 135.99291970580157 #
coedge $-1 $349 $349 $-1 $448 reversed $212 $-1 #
vertex $-1 $214 $449 #
ellipse-curve $-1 0 0 -0.75 0 0 -1 1.5 0 0 1 I I #
point $-1 1.5 0 -4.5679113132114635 #
face $-1 $-1 $232 $26 $-1 $450 reversed single #
loop $-1 $-1 $369 $217 #
plane-surface $-1 0 271.98583941160314 0 0 -1 0 0 0 -1 forward_v I I I I #
coedge $-1 $451 $367 $370 $452 forward $218 $-1 #
coedge $-1 $373 $220 $221 $361 reversed $124 $-1 #
coedge $-1 $367 $451 $220 $359 reversed $218 $-1 #
edge $-1 $374 -135.99291970580157 $453 135.99291970580157 $358 $454 forward 7 unknown #
coedge $-1 $222 $221 $451 $455 forward $78 $-1 #
edge $-1 $365 -17.601861761575734 $453 17.601861761575734 $357 $456 forward 7 unknown #
coedge $-1 $370 $369 $222 $363 reversed $354 $-1 #
edge $-1 $457 -17.601861761575734 $364 17.601861761575734 $362 $458 forward 7 unknown #
vertex $-1 $224 $459 #
vertex $-1 $376 $460 #
straight-curve $-1 17.601861761575734 0 -135.99291970580157 0 -1 0 I I #
coedge $-1 $356 $358 $225 $368 reversed $218 $-1 #
edge $-1 $371 -271.98583941160314 $374 271.98583941160314 $367 $461 forward 7 unknown #
coedge $-1 $362 $226 $231 $377 forward $354 $-1 #
coedge $-1 $226 $362 $356 $452 reversed $354 $-1 #
vertex $-1 $227 $462 #
straight-curve $-1 0 271.98583941160314 135.99291970580157 -1 0 0 I I #
coedge $-1 $228 $357 $230 $376 reversed $124 $-1 #
vertex $-1 $368 $463 #
straight-curve $-1 0 -271.98583941160314 135.99291970580157 1 0 0 I I #
edge $-1 $233 -135.99291970580157 $365 135.99291970580157 $230 $464 forward 7 unknown #
edge $-1 $234 -135.99291970580157 $364 135.99291970580157 $231 $465 forward 7 unknown #
point $-1 17.601861761575734 -271.98583941160314 135.99291970580157 #
point $-1 17.601861761575734 271.98583941160314 135.99291970580157 #
coedge $-1 $380 $380 $-1 $466 reversed $236 $-1 #
vertex $-1 $238 $467 #
ellipse-curve $-1 0 0 -0.75 0 0 -1 1.5 0 0 1 I I #
point $-1 1.5 0 -4.5679113132114635 #
plane-surface $-1 67.996459852900784 0 0 -1 0 0 0 0 1 forward_v I I I I #
coedge $-1 $246 $244 $248 $389 reversed $137 $-1 #
edge $-1 $259 -10.534205568856306 $391 10.534205568856306 $258 $468 forward 7 unknown #
vertex $-1 $389 $469 #
straight-curve $-1 -67.996459852900784 -45.831361217663989 0 0 0 -1 I I #
edge $-1 $387 -45.831361217663989 $391 45.831361217663989 $385 $470 forward 7 unknown #
straight-curve $-1 0 -45.831361217663989 -10.534205568856306 -1 0 0 I I #
vertex $-1 $251 $471 #
straight-curve $-1 0 45.831361217663989 -10.534205568856306 1 0 0 I I #
point $-1 67.996459852900784 45.831361217663989 -10.534205568856306 #
point $-1 67.996459852900784 -45.831361217663989 -10.534205568856306 #
straight-curve $-1 -67.996459852900784 0 10.534205568856306 0 -1 0 I I #
point $-1 -67.996459852900784 45.831361217663989 10.534205568856306 #
point $-1 -67.996459852900784 -45.831361217663989 10.534205568856306 #
straight-curve $-1 67.996459852900784 -45.831361217663989 0 0 0 -1 I I #
straight-curve $-1 67.996459852900784 45.831361217663989 0 0 0 -1 I I #
plane-surface $-1 3.7630521440479736 0 0 -1 0 0 0 0 1 forward_v I I I I #
coedge $-1 $273 $271 $275 $405 reversed $156 $-1 #
edge $-1 $286 -2.4954239645380873 $407 2.4954239645380873 $285 $472 forward 7 unknown #
vertex $-1 $405 $473 #
straight-curve $-1 -3.7630521440479736 -45.831361217663989 0 0 0 -1 I I #
edge $-1 $403 -45.831361217663989 $407 45.831361217663989 $401 $474 forward 7 unknown #
straight-curve $-1 0 -45.831361217663989 -2.4954239645380873 -1 0 0 I I #
vertex $-1 $278 $475 #
straight-curve $-1 0 45.831361217663989 -2.4954239645380873 1 0 0 I I #
point $-1 3.7630521440479736 45.831361217663989 -2.4954239645380873 #
point $-1 3.7630521440479736 -45.831361217663989 -2.4954239645380873 #
straight-curve $-1 -3.7630521440479736 0 2.4954239645380873 0 -1 0 I I #
point $-1 -3.7630521440479736 45.831361217663989 2.4954239645380873 #
point $-1 -3.7630521440479736 -45.831361217663989 2.4954239645380873 #
straight-curve $-1 3.7630521440479736 -45.831361217663989 0 0 0 -1 I I #
straight-curve $-1 3.7630521440479736 45.831361217663989 0 0 0 -1 I I #
plane-surface $-1 3.7630521440479754 0 0 -1 0 0 0 0 1 forward_v I I I I #
coedge $-1 $300 $298 $302 $421 reversed $175 $-1 #
edge $-1 $313 -2.4954239645380873 $423 2.4954239645380873 $312 $476 forward 7 unknown #
vertex $-1 $421 $477 #
straight-curve $-1 -3.7630521440479754 -45.831361217663989 0 0 0 -1 I I #
edge $-1 $419 -45.831361217663989 $423 45.831361217663989 $417 $478 forward 7 unknown #
straight-curve $-1 0 -45.831361217663989 -2.4954239645380873 -1 0 0 I I #
vertex $-1 $305 $479 #
straight-curve $-1 0 45.831361217663989 -2.4954239645380873 1 0 0 I I #
point $-1 3.7630521440479754 45.831361217663989 -2.4954239645380873 #
point $-1 3.7630521440479754 -45.831361217663989 -2.4954239645380873 #
straight-curve $-1 -3.7630521440479754 0 2.4954239645380873 0 -1 0 I I #
point $-1 -3.7630521440479754 45.831361217663989 2.4954239645380873 #
point $-1 -3.7630521440479754 -45.831361217663989 2.4954239645380873 #
straight-curve $-1 3.7630521440479754 -45.831361217663989 0 0 0 -1 I I #
straight-curve $-1 3.7630521440479754 45.831361217663989 0 0 0 -1 I I #
plane-surface $-1 17.601861761575734 0 0 -1 0 0 0 0 1 forward_v I I I I #
coedge $-1 $327 $325 $329 $437 reversed $194 $-1 #
edge $-1 $340 -135.99291970580157 $439 135.99291970580157 $339 $480 forward 7 unknown #
vertex $-1 $437 $481 #
straight-curve $-1 -17.601861761575734 -271.98583941160314 0 0 0 -1 I I #
edge $-1 $435 -271.98583941160314 $439 271.98583941160314 $433 $482 forward 7 unknown #
straight-curve $-1 0 -271.98583941160314 -135.99291970580157 -1 0 0 I I #
vertex $-1 $332 $483 #
straight-curve $-1 0 271.98583941160314 -135.99291970580157 1 0 0 I I #
point $-1 17.601861761575734 271.98583941160314 -135.99291970580157 #
point $-1 17.601861761575734 -271.98583941160314 -135.99291970580157 #
straight-curve $-1 -17.601861761575734 0 135.99291970580157 0 -1 0 I I #
point $-1 -17.601861761575734 271.98583941160314 135.99291970580157 #
point $-1 -17.601861761575734 -271.98583941160314 135.99291970580157 #
straight-curve $-1 17.601861761575734 -271.98583941160314 0 0 0 -1 I I #
straight-curve $-1 17.601861761575734 271.98583941160314 0 0 0 -1 I I #
edge $-1 $484 1 $484 0 $349 $-1 forward 7 unknown #
point $-1 1.5 0 -0.75 #
plane-surface $-1 17.601861761575734 0 0 -1 0 0 0 0 1 forward_v I I I I #
coedge $-1 $358 $356 $360 $455 reversed $218 $-1 #
edge $-1 $371 -135.99291970580157 $457 135.99291970580157 $370 $485 forward 7 unknown #
vertex $-1 $455 $486 #
straight-curve $-1 -17.601861761575734 -271.98583941160314 0 0 0 -1 I I #
edge $-1 $453 -271.98583941160314 $457 271.98583941160314 $451 $487 forward 7 unknown #
straight-curve $-1 0 -271.98583941160314 -135.99291970580157 -1 0 0 I I #
vertex $-1 $363 $488 #
straight-curve $-1 0 271.98583941160314 -135.99291970580157 1 0 0 I I #
point $-1 17.601861761575734 271.98583941160314 -135.99291970580157 #
point $-1 17.601861761575734 -271.98583941160314 -135.99291970580157 #
straight-curve $-1 -17.601861761575734 0 135.99291970580157 0 -1 0 I I #
point $-1 -17.601861761575734 271.98583941160314 135.99291970580157 #
point $-1 -17.601861761575734 -271.98583941160314 135.99291970580157 #
straight-curve $-1 17.601861761575734 -271.98583941160314 0 0 0 -1 I I #
straight-curve $-1 17.601861761575734 271.98583941160314 0 0 0 -1 I I #
edge $-1 $489 1 $489 0 $380 $-1 forward 7 unknown #
point $-1 1.5 0 -0.75 #
straight-curve $-1 -67.996459852900784 45.831361217663989 0 0 0 -1 I I #
point $-1 -67.996459852900784 -45.831361217663989 -10.534205568856306 #
straight-curve $-1 -67.996459852900784 0 -10.534205568856306 0 1 0 I I #
point $-1 -67.996459852900784 45.831361217663989 -10.534205568856306 #
straight-curve $-1 -3.7630521440479736 45.831361217663989 0 0 0 -1 I I #
point $-1 -3.7630521440479736 -45.831361217663989 -2.4954239645380873 #
straight-curve $-1 -3.7630521440479736 0 -2.4954239645380873 0 1 0 I I #
point $-1 -3.7630521440479736 45.831361217663989 -2.4954239645380873 #
straight-curve $-1 -3.7630521440479754 45.831361217663989 0 0 0 -1 I I #
point $-1 -3.7630521440479754 -45.831361217663989 -2.4954239645380873 #
straight-curve $-1 -3.7630521440479754 0 -2.4954239645380873 0 1 0 I I #
point $-1 -3.7630521440479754 45.831361217663989 -2.4954239645380873 #
straight-curve $-1 -17.601861761575734 271.98583941160314 0 0 0 -1 I I #
point $-1 -17.601861761575734 -271.98583941160314 -135.99291970580157 #
straight-curve $-1 -17.601861761575734 0 -135.99291970580157 0 1 0 I I #
point $-1 -17.601861761575734 271.98583941160314 -135.99291970580157 #
vertex $-1 $448 $490 #
straight-curve $-1 -17.601861761575734 271.98583941160314 0 0 0 -1 I I #
point $-1 -17.601861761575734 -271.98583941160314 -135.99291970580157 #
straight-curve $-1 -17.601861761575734 0 -135.99291970580157 0 1 0 I I #
point $-1 -17.601861761575734 271.98583941160314 -135.99291970580157 #
vertex $-1 $466 $491 #
point $-1 0 0 0.75 #
point $-1 0 0 0.75 #
End-of-ACIS-data 