500 0 17 0           
7 Unknown 11 ACIS 5.0 NT 24 Thu Mar 25 20:27:05 1999 
-1 9.9999999999999995e-007 1e-010 
body $-1 $17 $-1 $18 #
body $-1 $19 $-1 $20 #
body $-1 $21 $-1 $22 #
body $-1 $23 $-1 $24 #
body $-1 $25 $-1 $26 #
body $-1 $27 $-1 $28 #
body $-1 $29 $-1 $30 #
body $-1 $31 $-1 $32 #
body $-1 $33 $-1 $34 #
body $-1 $35 $-1 $36 #
body $-1 $37 $-1 $38 #
body $-1 $39 $-1 $40 #
body $-1 $41 $-1 $42 #
body $-1 $43 $-1 $44 #
body $-1 $45 $-1 $46 #
body $-1 $47 $-1 $48 #
body $-1 $49 $-1 $50 #
lump $-1 $-1 $51 $0 #
transform $-1 1 0 0 0 1 0 0 0 1 55.859859004486225 23.48493922640775 7.0836832285616129 1 rotate no_reflect no_shear #
lump $-1 $-1 $52 $1 #
transform $-1 1 0 0 0 1 0 0 0 1 55.859859004486225 23.48493922640775 7.0836832285616129 1 rotate no_reflect no_shear #
lump $-1 $-1 $53 $2 #
transform $-1 1 0 0 0 1 0 0 0 1 55.859859004486225 23.48493922640775 7.0836832285616129 1 rotate no_reflect no_shear #
lump $-1 $-1 $54 $3 #
transform $-1 1 0 0 0 1 0 0 0 1 55.859859004486225 23.48493922640775 7.0836832285616129 1 rotate no_reflect no_shear #
lump $-1 $-1 $55 $4 #
transform $-1 1 0 0 0 1 0 0 0 1 55.859859004486225 23.48493922640775 7.0836832285616129 1 rotate no_reflect no_shear #
lump $-1 $-1 $56 $5 #
transform $-1 1 0 0 0 1 0 0 0 1 55.859859004486225 23.48493922640775 7.0836832285616129 1 rotate no_reflect no_shear #
lump $-1 $-1 $57 $6 #
transform $-1 1 0 0 0 1 0 0 0 1 55.859859004486225 23.48493922640775 7.0836832285616129 1 rotate no_reflect no_shear #
lump $-1 $-1 $58 $7 #
transform $-1 1 0 0 0 1 0 0 0 1 55.859859004486225 23.48493922640775 7.0836832285616129 1 rotate no_reflect no_shear #
lump $-1 $-1 $59 $8 #
transform $-1 1 0 0 0 1 0 0 0 1 55.859859004486225 23.48493922640775 7.0836832285616129 1 rotate no_reflect no_shear #
lump $-1 $-1 $60 $9 #
transform $-1 1 0 0 0 1 0 0 0 1 55.859859004486225 23.48493922640775 7.0836832285616129 1 rotate no_reflect no_shear #
lump $-1 $-1 $61 $10 #
transform $-1 1 0 0 0 1 0 0 0 1 55.859859004486225 23.48493922640775 7.0836832285616129 1 rotate no_reflect no_shear #
lump $-1 $-1 $62 $11 #
transform $-1 1 0 0 0 1 0 0 0 1 55.859859004486225 23.48493922640775 7.0836832285616129 1 rotate no_reflect no_shear #
lump $-1 $-1 $63 $12 #
transform $-1 1 0 0 0 1 0 0 0 1 55.859859004486225 23.48493922640775 7.0836832285616129 1 rotate no_reflect no_shear #
lump $-1 $-1 $64 $13 #
transform $-1 1 0 0 0 1 0 0 0 1 55.859859004486225 23.48493922640775 7.0836832285616129 1 rotate no_reflect no_shear #
lump $-1 $-1 $65 $14 #
transform $-1 1 0 0 0 1 0 0 0 1 55.859859004486225 23.48493922640775 7.0836832285616129 1 rotate no_reflect no_shear #
lump $-1 $-1 $66 $15 #
transform $-1 1 0 0 0 1 0 0 0 1 55.859859004486225 23.48493922640775 7.0836832285616129 1 rotate no_reflect no_shear #
lump $-1 $-1 $67 $16 #
transform $-1 1 0 0 0 1 0 0 0 1 55.859859004486225 23.48493922640775 7.0836832285616129 1 rotate no_reflect no_shear #
shell $-1 $-1 $-1 $68 $-1 $17 #
shell $-1 $-1 $-1 $69 $-1 $19 #
shell $-1 $-1 $-1 $70 $-1 $21 #
shell $-1 $-1 $-1 $71 $-1 $23 #
shell $-1 $-1 $-1 $72 $-1 $25 #
shell $-1 $-1 $-1 $73 $-1 $27 #
shell $-1 $-1 $-1 $74 $-1 $29 #
shell $-1 $-1 $-1 $75 $-1 $31 #
shell $-1 $-1 $-1 $76 $-1 $33 #
shell $-1 $-1 $-1 $77 $-1 $35 #
shell $-1 $-1 $-1 $78 $-1 $37 #
shell $-1 $-1 $-1 $79 $-1 $39 #
shell $-1 $-1 $-1 $80 $-1 $41 #
shell $-1 $-1 $-1 $81 $-1 $43 #
shell $-1 $-1 $-1 $82 $-1 $45 #
shell $-1 $-1 $-1 $83 $-1 $47 #
shell $-1 $-1 $-1 $84 $-1 $49 #
face $-1 $85 $86 $51 $-1 $87 forward single #
face $-1 $88 $89 $52 $-1 $90 forward single #
face $-1 $91 $92 $53 $-1 $93 reversed single #
face $-1 $94 $95 $54 $-1 $96 forward single #
face $-1 $97 $98 $55 $-1 $99 forward single #
face $-1 $100 $101 $56 $-1 $102 reversed single #
face $-1 $103 $104 $57 $-1 $105 forward single #
face $-1 $106 $107 $58 $-1 $108 forward single #
face $-1 $109 $110 $59 $-1 $111 reversed single #
face $-1 $112 $113 $60 $-1 $114 forward single #
face $-1 $115 $116 $61 $-1 $117 forward single #
face $-1 $118 $119 $62 $-1 $120 reversed single #
face $-1 $121 $122 $63 $-1 $123 forward single #
face $-1 $124 $125 $64 $-1 $126 forward single #
face $-1 $127 $128 $65 $-1 $129 reversed single #
face $-1 $130 $131 $66 $-1 $132 forward single #
face $-1 $133 $134 $67 $-1 $135 forward single #
face $-1 $136 $137 $51 $-1 $138 reversed single #
loop $-1 $-1 $139 $68 #
plane-surface $-1 0 0 7.0836832285616129 0 0 1 1 0 0 forward_v I I I I #
face $-1 $140 $141 $52 $-1 $142 reversed single #
loop $-1 $-1 $143 $69 #
plane-surface $-1 0 -23.48493922640775 0 0 1 0 0 0 1 forward_v I I I I #
face $-1 $144 $145 $53 $-1 $146 reversed single #
loop $-1 $-1 $147 $70 #
plane-surface $-1 -138.88379027182077 -4.2353739418746308 77.512225217660728 0 1 0 -0.74314483375859142 0 0.66913059716165679 forward_v I I I I #
face $-1 $148 $149 $54 $-1 $150 forward single #
loop $-1 $151 $152 $71 #
cone-surface $-1 -52.616363800769072 -1.7358785692193734 3.753779404807474 0.74314483375859142 0 -0.66913059716165679 0.66913059716165679 0 0.74314483375859142 1 I I 0 1 1 forward I I I I #
face $-1 $153 $154 $55 $-1 $155 forward single #
loop $-1 $156 $157 $72 #
cone-surface $-1 -52.616363800769072 2.0133644897635108 3.753779404807474 0.74314483375859142 0 -0.66913059716165679 0.66913059716165679 0 0.74314483375859142 1 I I 0 1 1 forward I I I I #
face $-1 $158 $159 $56 $-1 $160 reversed single #
loop $-1 $-1 $161 $73 #
plane-surface $-1 -138.88379027182077 14.736705422114355 77.512225217660728 0 1 0 -0.74314483375859142 0 0.66913059716165679 forward_v I I I I #
face $-1 $162 $163 $57 $-1 $164 forward single #
loop $-1 $165 $166 $74 #
cone-surface $-1 -52.616363800769072 17.236200794769612 3.753779404807474 0.74314483375859142 0 -0.66913059716165679 0.66913059716165679 0 0.74314483375859142 1 I I 0 1 1 forward I I I I #
face $-1 $167 $168 $58 $-1 $169 forward single #
loop $-1 $170 $171 $75 #
cone-surface $-1 -52.616363800769072 20.985443853752496 3.753779404807474 0.74314483375859142 0 -0.66913059716165679 0.66913059716165679 0 0.74314483375859142 1 I I 0 1 1 forward I I I I #
face $-1 $172 $173 $59 $-1 $174 reversed single #
loop $-1 $-1 $175 $76 #
plane-surface $-1 55.85986083763764 -7.2030369269505385 160.45133366097727 0 -1 0 -0.70710678939079041 0 -0.70710677298230451 forward_v I I I I #
face $-1 $176 $177 $60 $-1 $178 forward single #
loop $-1 $179 $180 $77 #
cone-surface $-1 53.192360683300741 -12.386024480250311 4.4161848618850268 -0.70710678939079041 0 -0.70710677298230451 0.35355338649115226 0 -0.35355339469539521 1 I I 0 1 0.5 forward I I I I #
face $-1 $181 $182 $61 $-1 $183 forward single #
loop $-1 $184 $185 $78 #
cone-surface $-1 53.192360683300741 -9.2762319482704463 4.4161848618850268 -0.70710678939079041 0 -0.70710677298230451 0.35355338649115226 0 -0.35355339469539521 1 I I 0 1 0.5 forward I I I I #
face $-1 $186 $187 $62 $-1 $188 reversed single #
loop $-1 $-1 $189 $79 #
plane-surface $-1 55.85986083763764 5.4450159823754536 160.45133366097727 0 -1 0 -0.70710678939079041 0 -0.70710677298230451 forward_v I I I I #
face $-1 $190 $191 $63 $-1 $192 forward single #
loop $-1 $193 $194 $80 #
cone-surface $-1 53.192360683300741 0.26202842907568069 4.4161848618850268 -0.70710678939079041 0 -0.70710677298230451 0.35355338649115226 0 -0.35355339469539521 1 I I 0 1 0.5 forward I I I I #
face $-1 $195 $196 $64 $-1 $197 forward single #
loop $-1 $198 $199 $81 #
cone-surface $-1 53.192360683300741 3.3718209610555441 4.4161848618850268 -0.70710678939079041 0 -0.70710677298230451 0.35355338649115226 0 -0.35355339469539521 1 I I 0 1 0.5 forward I I I I #
face $-1 $200 $201 $65 $-1 $202 reversed single #
loop $-1 $-1 $203 $82 #
plane-surface $-1 55.85986083763764 18.093068891701442 160.45133366097727 0 -1 0 -0.70710678939079041 0 -0.70710677298230451 forward_v I I I I #
face $-1 $204 $205 $66 $-1 $206 forward single #
loop $-1 $207 $208 $83 #
cone-surface $-1 53.192360683300741 12.910081338401671 4.4161848618850268 -0.70710678939079041 0 -0.70710677298230451 0.35355338649115226 0 -0.35355339469539521 1 I I 0 1 0.5 forward I I I I #
face $-1 $209 $210 $67 $-1 $211 forward single #
loop $-1 $212 $213 $84 #
cone-surface $-1 53.192360683300741 16.019873870381534 4.4161848618850268 -0.70710678939079041 0 -0.70710677298230451 0.35355338649115226 0 -0.35355339469539521 1 I I 0 1 0.5 forward I I I I #
face $-1 $214 $215 $51 $-1 $216 reversed single #
loop $-1 $-1 $217 $85 #
plane-surface $-1 0 0 -7.0836832285616129 0 0 1 1 0 0 forward_v I I I I #
coedge $-1 $218 $219 $220 $221 forward $86 $-1 #
face $-1 $222 $223 $52 $-1 $224 forward single #
loop $-1 $-1 $225 $88 #
plane-surface $-1 -55.859859004486225 0 0 1 0 0 0 0 -1 forward_v I I I I #
coedge $-1 $226 $227 $228 $229 forward $89 $-1 #
face $-1 $230 $231 $53 $-1 $232 reversed single #
loop $-1 $-1 $233 $91 #
plane-surface $-1 -55.859859004486225 0.13874296027206867 2.7571435915850913 -0.74314483375859142 0 0.66913059716165679 0.66913059716165679 0 0.74314483375859142 forward_v I I I I #
coedge $-1 $234 $235 $236 $237 reversed $92 $-1 #
face $-1 $-1 $238 $54 $-1 $239 forward single #
loop $-1 $240 $241 $94 #
cone-surface $-1 -50.949113025168764 -1.7358785692193734 2.2525801009607722 0.74314483375859142 0 -0.66913059716165679 0.3345652985808284 0 0.37157241687929571 1 I I -0.70710678118654746 0.70710678118654746 0.5 forward I I I I #
loop $-1 $-1 $242 $71 #
coedge $-1 $152 $152 $243 $244 reversed $95 $-1 #
face $-1 $-1 $245 $55 $-1 $246 forward single #
loop $-1 $247 $248 $97 #
cone-surface $-1 -50.949113025168764 2.0133644897635108 2.2525801009607722 0.74314483375859142 0 -0.66913059716165679 0.3345652985808284 0 0.37157241687929571 1 I I -0.70710678118654746 0.70710678118654746 0.5 forward I I I I #
loop $-1 $-1 $249 $72 #
coedge $-1 $157 $157 $250 $251 reversed $98 $-1 #
face $-1 $252 $253 $56 $-1 $254 forward single #
loop $-1 $-1 $255 $100 #
plane-surface $-1 -55.859859004486225 19.110822324261054 2.7571435915850913 -0.74314483375859142 0 0.66913059716165679 0.66913059716165679 0 0.74314483375859142 forward_v I I I I #
coedge $-1 $256 $257 $258 $259 reversed $101 $-1 #
face $-1 $-1 $260 $57 $-1 $261 forward single #
loop $-1 $262 $263 $103 #
cone-surface $-1 -50.949113025168764 17.236200794769612 2.2525801009607722 0.74314483375859142 0 -0.66913059716165679 0.3345652985808284 0 0.37157241687929571 1 I I -0.70710678118654746 0.70710678118654746 0.5 forward I I I I #
loop $-1 $-1 $264 $74 #
coedge $-1 $166 $166 $265 $266 reversed $104 $-1 #
face $-1 $-1 $267 $58 $-1 $268 forward single #
loop $-1 $269 $270 $106 #
cone-surface $-1 -50.949113025168764 20.985443853752496 2.2525801009607722 0.74314483375859142 0 -0.66913059716165679 0.3345652985808284 0 0.37157241687929571 1 I I -0.70710678118654746 0.70710678118654746 0.5 forward I I I I #
loop $-1 $-1 $271 $75 #
coedge $-1 $171 $171 $272 $273 reversed $107 $-1 #
face $-1 $274 $275 $59 $-1 $276 reversed single #
loop $-1 $-1 $277 $109 #
plane-surface $-1 -23.137910275331336 -10.83112821426038 81.453564381159708 0.70710678939079041 0 0.70710677298230451 0.70710677298230451 0 -0.70710678939079041 forward_v I I I I #
coedge $-1 $278 $279 $280 $281 reversed $110 $-1 #
face $-1 $-1 $282 $60 $-1 $283 forward single #
loop $-1 $284 $285 $112 #
cone-surface $-1 52.662030591257647 -12.386024480250311 3.8858547821482983 -0.70710678939079041 0 -0.70710677298230451 0.17677669324557613 0 -0.1767766973476976 1 I I -0.70710678118654746 0.70710678118654746 0.25 forward I I I I #
loop $-1 $-1 $286 $77 #
coedge $-1 $180 $180 $287 $288 reversed $113 $-1 #
face $-1 $-1 $289 $61 $-1 $290 forward single #
loop $-1 $291 $292 $115 #
cone-surface $-1 52.662030591257647 -9.2762319482704463 3.8858547821482983 -0.70710678939079041 0 -0.70710677298230451 0.17677669324557613 0 -0.1767766973476976 1 I I -0.70710678118654746 0.70710678118654746 0.25 forward I I I I #
loop $-1 $-1 $293 $78 #
coedge $-1 $185 $185 $294 $295 reversed $116 $-1 #
face $-1 $296 $297 $62 $-1 $298 reversed single #
loop $-1 $-1 $299 $118 #
plane-surface $-1 -23.137910275331336 1.8169246950656124 81.453564381159708 0.70710678939079041 0 0.70710677298230451 0.70710677298230451 0 -0.70710678939079041 forward_v I I I I #
coedge $-1 $300 $301 $302 $303 reversed $119 $-1 #
face $-1 $-1 $304 $63 $-1 $305 forward single #
loop $-1 $306 $307 $121 #
cone-surface $-1 52.662030591257647 0.26202842907568069 3.8858547821482983 -0.70710678939079041 0 -0.70710677298230451 0.17677669324557613 0 -0.1767766973476976 1 I I -0.70710678118654746 0.70710678118654746 0.25 forward I I I I #
loop $-1 $-1 $308 $80 #
coedge $-1 $194 $194 $309 $310 reversed $122 $-1 #
face $-1 $-1 $311 $64 $-1 $312 forward single #
loop $-1 $313 $314 $124 #
cone-surface $-1 52.662030591257647 3.3718209610555441 3.8858547821482983 -0.70710678939079041 0 -0.70710677298230451 0.17677669324557613 0 -0.1767766973476976 1 I I -0.70710678118654746 0.70710678118654746 0.25 forward I I I I #
loop $-1 $-1 $315 $81 #
coedge $-1 $199 $199 $316 $317 reversed $125 $-1 #
face $-1 $318 $319 $65 $-1 $320 reversed single #
loop $-1 $-1 $321 $127 #
plane-surface $-1 -23.137910275331336 14.464977604391603 81.453564381159708 0.70710678939079041 0 0.70710677298230451 0.70710677298230451 0 -0.70710678939079041 forward_v I I I I #
coedge $-1 $322 $323 $324 $325 reversed $128 $-1 #
face $-1 $-1 $326 $66 $-1 $327 forward single #
loop $-1 $328 $329 $130 #
cone-surface $-1 52.662030591257647 12.910081338401671 3.8858547821482983 -0.70710678939079041 0 -0.70710677298230451 0.17677669324557613 0 -0.1767766973476976 1 I I -0.70710678118654746 0.70710678118654746 0.25 forward I I I I #
loop $-1 $-1 $330 $83 #
coedge $-1 $208 $208 $331 $332 reversed $131 $-1 #
face $-1 $-1 $333 $67 $-1 $334 forward single #
loop $-1 $335 $336 $133 #
cone-surface $-1 52.662030591257647 16.019873870381534 3.8858547821482983 -0.70710678939079041 0 -0.70710677298230451 0.17677669324557613 0 -0.1767766973476976 1 I I -0.70710678118654746 0.70710678118654746 0.25 forward I I I I #
loop $-1 $-1 $337 $84 #
coedge $-1 $213 $213 $338 $339 reversed $134 $-1 #
face $-1 $340 $341 $51 $-1 $342 reversed single #
loop $-1 $-1 $343 $136 #
plane-surface $-1 0 -23.48493922640775 0 0 1 0 0 0 1 forward_v I I I I #
coedge $-1 $344 $345 $346 $347 forward $137 $-1 #
coedge $-1 $348 $139 $349 $350 forward $86 $-1 #
coedge $-1 $139 $348 $351 $352 forward $86 $-1 #
coedge $-1 $353 $354 $139 $221 reversed $355 $-1 #
edge $-1 $356 -23.48493922640775 $357 23.48493922640775 $220 $358 forward 7 unknown #
face $-1 $359 $360 $52 $-1 $361 reversed single #
loop $-1 $-1 $362 $140 #
plane-surface $-1 0 -27.997799088826515 2.1071798410956588 0 0 1 1 0 0 forward_v I I I I #
coedge $-1 $363 $364 $227 $365 forward $141 $-1 #
coedge $-1 $366 $143 $367 $368 reversed $89 $-1 #
coedge $-1 $143 $366 $225 $365 reversed $89 $-1 #
coedge $-1 $369 $362 $143 $229 reversed $223 $-1 #
edge $-1 $370 -55.859859004486225 $371 55.859859004486225 $228 $372 forward 7 unknown #
face $-1 $373 $374 $53 $-1 $375 forward single #
loop $-1 $-1 $376 $144 #
plane-surface $-1 -138.88379027182077 4.5128598624187681 77.512225217660728 0 -1 0 0.74314483375859142 0 -0.66913059716165679 forward_v I I I I #
coedge $-1 $377 $378 $379 $380 reversed $145 $-1 #
coedge $-1 $235 $147 $381 $382 reversed $92 $-1 #
coedge $-1 $147 $234 $377 $383 reversed $92 $-1 #
coedge $-1 $379 $384 $147 $237 forward $374 $-1 #
edge $-1 $385 13.582036131424161 $386 17.477669821416434 $236 $387 forward 7 unknown #
loop $-1 $-1 $243 $148 #
plane-surface $-1 -55.859859004486225 0.13874296027206867 2.7571435915850913 -0.74314483375859142 0 0.66913059716165679 0.66913059716165679 0 0.74314483375859142 forward_v I I I I #
loop $-1 $-1 $388 $94 #
coedge $-1 $241 $241 $242 $389 reversed $149 $-1 #
coedge $-1 $242 $242 $241 $389 forward $151 $-1 #
coedge $-1 $243 $243 $152 $244 forward $238 $-1 #
edge $-1 $390 0 $390 6.2831853071796004 $243 $391 forward 7 unknown #
loop $-1 $-1 $250 $153 #
plane-surface $-1 -55.859859004486225 0.13874296027206867 2.7571435915850913 -0.74314483375859142 0 0.66913059716165679 0.66913059716165679 0 0.74314483375859142 forward_v I I I I #
loop $-1 $-1 $392 $97 #
coedge $-1 $248 $248 $249 $393 reversed $154 $-1 #
coedge $-1 $249 $249 $248 $393 forward $156 $-1 #
coedge $-1 $250 $250 $157 $251 forward $245 $-1 #
edge $-1 $394 0 $394 6.2831853071796004 $250 $395 forward 7 unknown #
face $-1 $396 $397 $56 $-1 $398 reversed single #
loop $-1 $-1 $258 $158 #
plane-surface $-1 0 0 7.0836832285616129 0 0 1 1 0 0 forward_v I I I I #
coedge $-1 $399 $400 $401 $402 reversed $159 $-1 #
coedge $-1 $257 $161 $403 $404 reversed $101 $-1 #
coedge $-1 $161 $256 $399 $405 reversed $101 $-1 #
coedge $-1 $401 $406 $161 $259 forward $253 $-1 #
edge $-1 $407 13.582036131424161 $408 17.477669821416434 $258 $409 forward 7 unknown #
loop $-1 $-1 $265 $162 #
plane-surface $-1 -55.859859004486225 19.110822324261054 2.7571435915850913 -0.74314483375859142 0 0.66913059716165679 0.66913059716165679 0 0.74314483375859142 forward_v I I I I #
loop $-1 $-1 $410 $103 #
coedge $-1 $263 $263 $264 $411 reversed $163 $-1 #
coedge $-1 $264 $264 $263 $411 forward $165 $-1 #
coedge $-1 $265 $265 $166 $266 forward $260 $-1 #
edge $-1 $412 0 $412 6.2831853071796004 $265 $413 forward 7 unknown #
loop $-1 $-1 $272 $167 #
plane-surface $-1 -55.859859004486225 19.110822324261054 2.7571435915850913 -0.74314483375859142 0 0.66913059716165679 0.66913059716165679 0 0.74314483375859142 forward_v I I I I #
loop $-1 $-1 $414 $106 #
coedge $-1 $270 $270 $271 $415 reversed $168 $-1 #
coedge $-1 $271 $271 $270 $415 forward $170 $-1 #
coedge $-1 $272 $272 $171 $273 forward $267 $-1 #
edge $-1 $416 0 $416 6.2831853071796004 $272 $417 forward 7 unknown #
face $-1 $418 $419 $59 $-1 $420 reversed single #
loop $-1 $-1 $421 $172 #
plane-surface $-1 55.85986083763764 -14.459219501570221 160.45133366097727 0 1 0 0.70710678939079041 0 0.70710677298230451 forward_v I I I I #
coedge $-1 $422 $423 $424 $425 reversed $173 $-1 #
coedge $-1 $279 $175 $426 $427 reversed $110 $-1 #
coedge $-1 $175 $278 $422 $428 reversed $110 $-1 #
coedge $-1 $424 $429 $175 $281 forward $430 $-1 #
edge $-1 $431 -27.929928585667405 $432 -23.302038732687187 $280 $433 forward 7 unknown #
loop $-1 $-1 $287 $176 #
plane-surface $-1 -23.137910275331336 -10.83112821426038 81.453564381159708 0.70710678939079041 0 0.70710677298230451 0.70710677298230451 0 -0.70710678939079041 forward_v I I I I #
loop $-1 $-1 $434 $112 #
coedge $-1 $285 $285 $286 $435 reversed $177 $-1 #
coedge $-1 $286 $286 $285 $435 forward $179 $-1 #
coedge $-1 $287 $287 $180 $288 forward $282 $-1 #
edge $-1 $436 0 $436 6.2831853071796004 $287 $437 forward 7 unknown #
loop $-1 $-1 $294 $181 #
plane-surface $-1 -23.137910275331336 -10.83112821426038 81.453564381159708 0.70710678939079041 0 0.70710677298230451 0.70710677298230451 0 -0.70710678939079041 forward_v I I I I #
loop $-1 $-1 $438 $115 #
coedge $-1 $292 $292 $293 $439 reversed $182 $-1 #
coedge $-1 $293 $293 $292 $439 forward $184 $-1 #
coedge $-1 $294 $294 $185 $295 forward $289 $-1 #
edge $-1 $440 0 $440 6.2831853071796004 $294 $441 forward 7 unknown #
face $-1 $442 $443 $62 $-1 $444 reversed single #
loop $-1 $-1 $445 $186 #
plane-surface $-1 55.85986083763764 -1.8111665922442288 160.45133366097727 0 1 0 0.70710678939079041 0 0.70710677298230451 forward_v I I I I #
coedge $-1 $446 $447 $448 $449 reversed $187 $-1 #
coedge $-1 $301 $189 $450 $451 reversed $119 $-1 #
coedge $-1 $189 $300 $446 $452 reversed $119 $-1 #
coedge $-1 $448 $453 $189 $303 forward $454 $-1 #
edge $-1 $455 -27.929928585667405 $456 -23.302038732687187 $302 $457 forward 7 unknown #
loop $-1 $-1 $309 $190 #
plane-surface $-1 -23.137910275331336 1.8169246950656124 81.453564381159708 0.70710678939079041 0 0.70710677298230451 0.70710677298230451 0 -0.70710678939079041 forward_v I I I I #
loop $-1 $-1 $458 $121 #
coedge $-1 $307 $307 $308 $459 reversed $191 $-1 #
coedge $-1 $308 $308 $307 $459 forward $193 $-1 #
coedge $-1 $309 $309 $194 $310 forward $304 $-1 #
edge $-1 $460 0 $460 6.2831853071796004 $309 $461 forward 7 unknown #
loop $-1 $-1 $316 $195 #
plane-surface $-1 -23.137910275331336 1.8169246950656124 81.453564381159708 0.70710678939079041 0 0.70710677298230451 0.70710677298230451 0 -0.70710678939079041 forward_v I I I I #
loop $-1 $-1 $462 $124 #
coedge $-1 $314 $314 $315 $463 reversed $196 $-1 #
coedge $-1 $315 $315 $314 $463 forward $198 $-1 #
coedge $-1 $316 $316 $199 $317 forward $311 $-1 #
edge $-1 $464 0 $464 6.2831853071796004 $316 $465 forward 7 unknown #
face $-1 $466 $467 $65 $-1 $468 reversed single #
loop $-1 $-1 $469 $200 #
plane-surface $-1 55.85986083763764 10.836886317081762 160.45133366097727 0 1 0 0.70710678939079041 0 0.70710677298230451 forward_v I I I I #
coedge $-1 $470 $471 $472 $473 reversed $201 $-1 #
coedge $-1 $323 $203 $474 $475 reversed $128 $-1 #
coedge $-1 $203 $322 $470 $476 reversed $128 $-1 #
coedge $-1 $472 $477 $203 $325 forward $478 $-1 #
edge $-1 $479 -27.929928585667405 $480 -23.302038732687187 $324 $481 forward 7 unknown #
loop $-1 $-1 $331 $204 #
plane-surface $-1 -23.137910275331336 14.464977604391603 81.453564381159708 0.70710678939079041 0 0.70710677298230451 0.70710677298230451 0 -0.70710678939079041 forward_v I I I I #
loop $-1 $-1 $482 $130 #
coedge $-1 $329 $329 $330 $483 reversed $205 $-1 #
coedge $-1 $330 $330 $329 $483 forward $207 $-1 #
coedge $-1 $331 $331 $208 $332 forward $326 $-1 #
edge $-1 $484 0 $484 6.2831853071796004 $331 $485 forward 7 unknown #
loop $-1 $-1 $338 $209 #
plane-surface $-1 -23.137910275331336 14.464977604391603 81.453564381159708 0.70710678939079041 0 0.70710677298230451 0.70710677298230451 0 -0.70710678939079041 forward_v I I I I #
loop $-1 $-1 $486 $133 #
coedge $-1 $336 $336 $337 $487 reversed $210 $-1 #
coedge $-1 $337 $337 $336 $487 forward $212 $-1 #
coedge $-1 $338 $338 $213 $339 forward $333 $-1 #
edge $-1 $488 0 $488 6.2831853071796004 $338 $489 forward 7 unknown #
face $-1 $490 $491 $51 $-1 $492 reversed single #
loop $-1 $-1 $493 $214 #
plane-surface $-1 -55.859859004486225 0 0 1 0 0 0 0 -1 forward_v I I I I #
coedge $-1 $494 $351 $495 $496 forward $215 $-1 #
coedge $-1 $497 $217 $494 $498 forward $137 $-1 #
coedge $-1 $217 $497 $499 $500 forward $137 $-1 #
coedge $-1 $354 $353 $217 $347 reversed $355 $-1 #
edge $-1 $501 -23.48493922640775 $502 23.48493922640775 $346 $503 forward 7 unknown #
coedge $-1 $219 $218 $504 $505 forward $86 $-1 #
coedge $-1 $506 $507 $218 $350 reversed $491 $-1 #
edge $-1 $357 -55.859859004486225 $508 55.859859004486225 $349 $509 forward 7 unknown #
coedge $-1 $343 $510 $219 $352 reversed $215 $-1 #
edge $-1 $511 -55.859859004486225 $356 55.859859004486225 $351 $512 forward 7 unknown #
coedge $-1 $346 $220 $510 $513 forward $355 $-1 #
coedge $-1 $220 $346 $506 $514 reversed $355 $-1 #
loop $-1 $-1 $353 $490 #
vertex $-1 $221 $515 #
vertex $-1 $221 $516 #
straight-curve $-1 55.859859004486225 0 7.0836832285616129 0 1 0 I I #
face $-1 $517 $518 $52 $-1 $519 reversed single #
loop $-1 $-1 $520 $222 #
plane-surface $-1 0 -27.997799088826515 -1.8379520061293184 0 0 1 1 0 0 forward_v I I I I #
coedge $-1 $228 $521 $522 $523 forward $223 $-1 #
coedge $-1 $524 $225 $525 $526 reversed $141 $-1 #
coedge $-1 $225 $524 $369 $527 reversed $141 $-1 #
edge $-1 $370 -2.1071798410956588 $528 1.8379520061293184 $225 $529 forward 7 unknown #
coedge $-1 $227 $226 $530 $531 forward $89 $-1 #
coedge $-1 $522 $532 $226 $368 forward $533 $-1 #
edge $-1 $534 -1.8379520061293184 $371 2.1071798410956588 $367 $535 forward 7 unknown #
coedge $-1 $521 $228 $364 $527 forward $223 $-1 #
vertex $-1 $365 $536 #
vertex $-1 $523 $537 #
straight-curve $-1 0 -23.48493922640775 2.1071798410956588 1 0 0 I I #
face $-1 $-1 $538 $53 $-1 $539 reversed single #
loop $-1 $-1 $236 $230 #
plane-surface $-1 0 0 7.0836832285616129 0 0 1 1 0 0 forward_v I I I I #
coedge $-1 $540 $541 $542 $543 reversed $231 $-1 #
coedge $-1 $544 $233 $235 $383 forward $145 $-1 #
coedge $-1 $233 $544 $540 $545 forward $145 $-1 #
coedge $-1 $542 $236 $233 $380 forward $374 $-1 #
edge $-1 $386 -4.3047454220106651 $546 4.4434883822827338 $379 $547 forward 7 unknown #
coedge $-1 $548 $549 $234 $382 forward $538 $-1 #
edge $-1 $550 -35.998969017245273 $385 -31.672429380268753 $381 $551 forward 7 unknown #
edge $-1 $386 -5.8219332765784717 $550 0 $235 $552 forward 7 unknown #
coedge $-1 $236 $542 $548 $553 forward $374 $-1 #
vertex $-1 $382 $554 #
vertex $-1 $237 $555 #
straight-curve $-1 -69.441895135910386 -4.2353739418746308 7.0836832285616111 1 0 0 I I #
coedge $-1 $388 $388 $-1 $556 reversed $240 $-1 #
edge $-1 $557 0 $557 6.2831853071796004 $241 $558 forward 7 unknown #
vertex $-1 $244 $559 #
ellipse-curve $-1 -53.912042159490092 -1.7358785692193734 4.9204134100733503 -0.74314483375859142 0 0.66913059716165679 0.66913059716165679 0 0.74314483375859142 1 I I #
coedge $-1 $392 $392 $-1 $560 reversed $247 $-1 #
edge $-1 $561 0 $561 6.2831853071796004 $248 $562 forward 7 unknown #
vertex $-1 $251 $563 #
ellipse-curve $-1 -53.912042159490092 2.0133644897635108 4.9204134100733503 -0.74314483375859142 0 0.66913059716165679 0.66913059716165679 0 0.74314483375859142 1 I I #
face $-1 $-1 $564 $56 $-1 $565 reversed single #
loop $-1 $-1 $566 $252 #
plane-surface $-1 0 23.48493922640775 0 0 -1 0 0 0 -1 forward_v I I I I #
coedge $-1 $567 $255 $257 $405 forward $159 $-1 #
coedge $-1 $255 $567 $566 $568 reversed $159 $-1 #
coedge $-1 $569 $258 $255 $402 forward $253 $-1 #
edge $-1 $408 5.1812942599838276 $570 13.929528064277227 $401 $571 forward 7 unknown #
coedge $-1 $572 $573 $256 $404 forward $564 $-1 #
edge $-1 $574 -35.998969017245273 $407 -31.672429380268753 $403 $575 forward 7 unknown #
edge $-1 $408 -5.8219332765784717 $574 0 $257 $576 forward 7 unknown #
coedge $-1 $258 $569 $572 $577 forward $253 $-1 #
vertex $-1 $404 $578 #
vertex $-1 $259 $579 #
straight-curve $-1 -69.441895135910386 14.736705422114355 7.0836832285616111 1 0 0 I I #
coedge $-1 $410 $410 $-1 $580 reversed $262 $-1 #
edge $-1 $581 0 $581 6.2831853071796004 $263 $582 forward 7 unknown #
vertex $-1 $266 $583 #
ellipse-curve $-1 -53.912042159490092 17.236200794769612 4.9204134100733503 -0.74314483375859142 0 0.66913059716165679 0.66913059716165679 0 0.74314483375859142 1 I I #
coedge $-1 $414 $414 $-1 $584 reversed $269 $-1 #
edge $-1 $585 0 $585 6.2831853071796004 $270 $586 forward 7 unknown #
vertex $-1 $273 $587 #
ellipse-curve $-1 -53.912042159490092 20.985443853752496 4.9204134100733503 -0.74314483375859142 0 0.66913059716165679 0.66913059716165679 0 0.74314483375859142 1 I I #
face $-1 $-1 $430 $59 $-1 $588 forward single #
loop $-1 $-1 $589 $274 #
plane-surface $-1 55.859859004486225 0 0 -1 0 0 0 0 1 forward_v I I I I #
coedge $-1 $590 $591 $592 $593 reversed $275 $-1 #
coedge $-1 $594 $277 $279 $428 forward $173 $-1 #
coedge $-1 $277 $594 $590 $595 forward $173 $-1 #
coedge $-1 $592 $280 $277 $425 forward $430 $-1 #
edge $-1 $432 1.7874728198203487 $596 9.0436553944400302 $424 $597 forward 7 unknown #
coedge $-1 $598 $599 $278 $427 forward $419 $-1 #
edge $-1 $600 -77.769873562297903 $431 -73.141983601927024 $426 $601 forward 7 unknown #
edge $-1 $432 105.17489333778236 $600 111.71971800897248 $279 $602 forward 7 unknown #
coedge $-1 $280 $592 $598 $603 forward $430 $-1 #
loop $-1 $-1 $592 $418 #
vertex $-1 $427 $604 #
vertex $-1 $281 $605 #
straight-curve $-1 27.92993041881882 -7.2030369269505385 7.0836832285616111 -1 0 0 I I #
coedge $-1 $434 $434 $-1 $606 reversed $284 $-1 #
edge $-1 $607 0 $607 6.2831853071796004 $285 $608 forward 7 unknown #
vertex $-1 $288 $609 #
ellipse-curve $-1 53.545914077996123 -12.386024480250311 4.7697382483761688 0.70710678939079041 0 0.70710677298230451 0.35355338649115226 0 -0.35355339469539521 1 I I #
coedge $-1 $438 $438 $-1 $610 reversed $291 $-1 #
edge $-1 $611 0 $611 6.2831853071796004 $292 $612 forward 7 unknown #
vertex $-1 $295 $613 #
ellipse-curve $-1 53.545914077996123 -9.2762319482704463 4.7697382483761688 0.70710678939079041 0 0.70710677298230451 0.35355338649115226 0 -0.35355339469539521 1 I I #
face $-1 $-1 $454 $62 $-1 $614 forward single #
loop $-1 $-1 $615 $296 #
plane-surface $-1 55.859859004486225 0 0 -1 0 0 0 0 1 forward_v I I I I #
coedge $-1 $616 $617 $618 $619 reversed $297 $-1 #
coedge $-1 $620 $299 $301 $452 forward $187 $-1 #
coedge $-1 $299 $620 $616 $621 forward $187 $-1 #
coedge $-1 $618 $302 $299 $449 forward $454 $-1 #
edge $-1 $456 -4.5365536348426474 $622 2.719628939777035 $448 $623 forward 7 unknown #
coedge $-1 $624 $625 $300 $451 forward $443 $-1 #
edge $-1 $626 -77.769873562297903 $455 -73.141983601927024 $450 $627 forward 7 unknown #
edge $-1 $456 105.17489333778236 $626 111.71971800897248 $301 $628 forward 7 unknown #
coedge $-1 $302 $618 $624 $629 forward $454 $-1 #
loop $-1 $-1 $618 $442 #
vertex $-1 $451 $630 #
vertex $-1 $303 $631 #
straight-curve $-1 27.92993041881882 5.4450159823754536 7.0836832285616111 -1 0 0 I I #
coedge $-1 $458 $458 $-1 $632 reversed $306 $-1 #
edge $-1 $633 0 $633 6.2831853071796004 $307 $634 forward 7 unknown #
vertex $-1 $310 $635 #
ellipse-curve $-1 53.545914077996123 0.26202842907568069 4.7697382483761688 0.70710678939079041 0 0.70710677298230451 0.35355338649115226 0 -0.35355339469539521 1 I I #
coedge $-1 $462 $462 $-1 $636 reversed $313 $-1 #
edge $-1 $637 0 $637 6.2831853071796004 $314 $638 forward 7 unknown #
vertex $-1 $317 $639 #
ellipse-curve $-1 53.545914077996123 3.3718209610555441 4.7697382483761688 0.70710678939079041 0 0.70710677298230451 0.35355338649115226 0 -0.35355339469539521 1 I I #
face $-1 $-1 $478 $65 $-1 $640 forward single #
loop $-1 $-1 $641 $318 #
plane-surface $-1 55.859859004486225 0 0 -1 0 0 0 0 1 forward_v I I I I #
coedge $-1 $642 $643 $644 $645 reversed $319 $-1 #
coedge $-1 $646 $321 $323 $476 forward $201 $-1 #
coedge $-1 $321 $646 $642 $647 forward $201 $-1 #
coedge $-1 $644 $324 $321 $473 forward $478 $-1 #
edge $-1 $480 -10.860580089505641 $648 -3.6043975148859602 $472 $649 forward 7 unknown #
coedge $-1 $650 $651 $322 $475 forward $467 $-1 #
edge $-1 $652 -77.769873562297903 $479 -73.141983601927024 $474 $653 forward 7 unknown #
edge $-1 $480 105.17489333778236 $652 111.71971800897248 $323 $654 forward 7 unknown #
coedge $-1 $324 $644 $650 $655 forward $478 $-1 #
loop $-1 $-1 $644 $466 #
vertex $-1 $475 $656 #
vertex $-1 $325 $657 #
straight-curve $-1 27.92993041881882 18.093068891701442 7.0836832285616111 -1 0 0 I I #
coedge $-1 $482 $482 $-1 $658 reversed $328 $-1 #
edge $-1 $659 0 $659 6.2831853071796004 $329 $660 forward 7 unknown #
vertex $-1 $332 $661 #
ellipse-curve $-1 53.545914077996123 12.910081338401671 4.7697382483761688 0.70710678939079041 0 0.70710677298230451 0.35355338649115226 0 -0.35355339469539521 1 I I #
coedge $-1 $486 $486 $-1 $662 reversed $335 $-1 #
edge $-1 $663 0 $663 6.2831853071796004 $336 $664 forward 7 unknown #
vertex $-1 $339 $665 #
ellipse-curve $-1 53.545914077996123 16.019873870381534 4.7697382483761688 0.70710678939079041 0 0.70710677298230451 0.35355338649115226 0 -0.35355339469539521 1 I I #
face $-1 $-1 $355 $51 $-1 $666 reversed single #
loop $-1 $-1 $506 $340 #
plane-surface $-1 0 23.48493922640775 0 0 -1 0 0 0 -1 forward_v I I I I #
coedge $-1 $667 $504 $507 $668 forward $341 $-1 #
coedge $-1 $510 $343 $344 $498 reversed $215 $-1 #
coedge $-1 $504 $667 $343 $496 reversed $341 $-1 #
edge $-1 $511 -7.0836832285616129 $669 7.0836832285616129 $495 $670 forward 7 unknown #
coedge $-1 $345 $344 $667 $671 forward $137 $-1 #
edge $-1 $502 -55.859859004486225 $669 55.859859004486225 $494 $672 forward 7 unknown #
coedge $-1 $507 $506 $345 $500 reversed $491 $-1 #
edge $-1 $673 -55.859859004486225 $501 55.859859004486225 $499 $674 forward 7 unknown #
vertex $-1 $347 $675 #
vertex $-1 $513 $676 #
straight-curve $-1 55.859859004486225 0 -7.0836832285616129 0 -1 0 I I #
coedge $-1 $493 $495 $348 $505 reversed $341 $-1 #
edge $-1 $508 -23.48493922640775 $511 23.48493922640775 $504 $677 forward 7 unknown #
coedge $-1 $499 $349 $354 $514 forward $491 $-1 #
coedge $-1 $349 $499 $493 $668 reversed $491 $-1 #
vertex $-1 $350 $678 #
straight-curve $-1 0 23.48493922640775 7.0836832285616129 -1 0 0 I I #
coedge $-1 $351 $494 $353 $513 reversed $215 $-1 #
vertex $-1 $505 $679 #
straight-curve $-1 0 -23.48493922640775 7.0836832285616129 1 0 0 I I #
edge $-1 $356 -7.0836832285616129 $502 7.0836832285616129 $353 $680 forward 7 unknown #
edge $-1 $357 -7.0836832285616129 $501 7.0836832285616129 $354 $681 forward 7 unknown #
point $-1 55.859859004486225 -23.48493922640775 7.0836832285616129 #
point $-1 55.859859004486225 23.48493922640775 7.0836832285616129 #
face $-1 $-1 $533 $52 $-1 $682 reversed single #
loop $-1 $-1 $683 $359 #
plane-surface $-1 0 -32.510658951245276 0.1346139174831702 0 1 0 0 0 1 forward_v I I I I #
coedge $-1 $684 $530 $532 $685 forward $360 $-1 #
coedge $-1 $362 $369 $686 $687 forward $223 $-1 #
coedge $-1 $688 $367 $362 $523 reversed $533 $-1 #
edge $-1 $689 -4.512859862418761 $371 4.5128598624187646 $522 $690 forward 7 unknown #
coedge $-1 $364 $363 $683 $691 reversed $141 $-1 #
coedge $-1 $530 $684 $363 $526 forward $360 $-1 #
edge $-1 $692 -4.512859862418761 $528 4.5128598624187646 $363 $693 forward 7 unknown #
edge $-1 $370 -4.5128598624187646 $694 4.512859862418761 $364 $695 forward 7 unknown #
vertex $-1 $365 $696 #
straight-curve $-1 -55.859859004486225 -23.48493922640775 0 0 0 -1 I I #
coedge $-1 $520 $525 $366 $531 reversed $360 $-1 #
edge $-1 $534 -55.859859004486225 $528 55.859859004486225 $530 $697 forward 7 unknown #
coedge $-1 $367 $688 $520 $685 reversed $533 $-1 #
loop $-1 $-1 $367 $517 #
vertex $-1 $368 $698 #
straight-curve $-1 55.859859004486225 -23.48493922640775 0 0 0 1 I I #
point $-1 -55.859859004486225 -23.48493922640775 2.1071798410956588 #
point $-1 55.859859004486225 -23.48493922640775 2.1071798410956588 #
loop $-1 $-1 $381 $373 #
plane-surface $-1 -55.859859004486225 0 0 1 0 0 0 0 -1 forward_v I I I I #
coedge $-1 $541 $376 $378 $545 reversed $231 $-1 #
coedge $-1 $376 $540 $699 $700 reversed $231 $-1 #
coedge $-1 $384 $379 $376 $543 forward $374 $-1 #
edge $-1 $546 -17.477669821416434 $701 -13.582036131424161 $542 $702 forward 7 unknown #
coedge $-1 $378 $377 $549 $703 reversed $145 $-1 #
edge $-1 $704 0 $546 5.8219332765784717 $540 $705 forward 7 unknown #
vertex $-1 $380 $706 #
straight-curve $-1 -51.964225314493945 0.069371480136034336 7.0836832285616129 0 1 0 I I #
coedge $-1 $699 $381 $384 $553 reversed $538 $-1 #
coedge $-1 $381 $699 $544 $703 forward $538 $-1 #
vertex $-1 $382 $707 #
straight-curve $-1 -55.859859004486225 -4.2353739418746308 38.756112608830364 0 0 1 I I #
straight-curve $-1 -55.859859004486225 -4.2353739418746308 2.7571435915850913 -0.66913059716165679 0 -0.74314483375859142 I I #
edge $-1 $701 -4.5128598624187681 $385 4.2353739418746308 $548 $708 forward 7 unknown #
point $-1 -55.859859004486225 -4.2353739418746308 7.0836832285616129 #
point $-1 -51.964225314493952 -4.2353739418746308 7.0836832285616129 #
edge $-1 $709 1 $709 0 $388 $-1 forward 7 unknown #
vertex $-1 $389 $710 #
ellipse-curve $-1 -51.32068544204806 -1.7358785692193734 2.5871453995416007 -0.74314483375859142 0 0.66913059716165679 0.66913059716165679 0 0.74314483375859142 1 I I #
point $-1 -53.24291156232843 -1.7358785692193734 5.6635582438319396 #
edge $-1 $711 1 $711 0 $392 $-1 forward 7 unknown #
vertex $-1 $393 $712 #
ellipse-curve $-1 -51.32068544204806 2.0133644897635108 2.5871453995416007 -0.74314483375859142 0 0.66913059716165679 0.66913059716165679 0 0.74314483375859142 1 I I #
point $-1 -53.24291156232843 2.0133644897635108 5.6635582438319396 #
loop $-1 $-1 $403 $396 #
plane-surface $-1 -55.859859004486225 0 0 1 0 0 0 0 -1 forward_v I I I I #
coedge $-1 $713 $714 $400 $568 forward $397 $-1 #
coedge $-1 $400 $399 $573 $715 reversed $159 $-1 #
edge $-1 $570 11.842358621931904 $716 17.664291898510374 $566 $717 forward 7 unknown #
coedge $-1 $406 $401 $714 $718 forward $253 $-1 #
vertex $-1 $718 $719 #
straight-curve $-1 -51.964225314493945 9.5554111621305271 7.0836832285616129 0 1 0 I I #
coedge $-1 $720 $403 $406 $577 reversed $564 $-1 #
coedge $-1 $403 $720 $567 $715 forward $564 $-1 #
vertex $-1 $404 $721 #
straight-curve $-1 -55.859859004486225 14.736705422114355 38.756112608830364 0 0 1 I I #
straight-curve $-1 -55.859859004486225 14.736705422114355 2.7571435915850913 -0.66913059716165679 0 -0.74314483375859142 I I #
edge $-1 $722 -23.48493922640775 $407 -14.736705422114355 $572 $723 forward 7 unknown #
point $-1 -55.859859004486225 14.736705422114355 7.0836832285616129 #
point $-1 -51.964225314493952 14.736705422114355 7.0836832285616129 #
edge $-1 $724 1 $724 0 $410 $-1 forward 7 unknown #
vertex $-1 $411 $725 #
ellipse-curve $-1 -51.32068544204806 17.236200794769612 2.5871453995416007 -0.74314483375859142 0 0.66913059716165679 0.66913059716165679 0 0.74314483375859142 1 I I #
point $-1 -53.24291156232843 17.236200794769612 5.6635582438319396 #
edge $-1 $726 1 $726 0 $414 $-1 forward 7 unknown #
vertex $-1 $415 $727 #
ellipse-curve $-1 -51.32068544204806 20.985443853752496 2.5871453995416007 -0.74314483375859142 0 0.66913059716165679 0.66913059716165679 0 0.74314483375859142 1 I I #
point $-1 -53.24291156232843 20.985443853752496 5.6635582438319396 #
plane-surface $-1 0 0 7.0836832285616129 0 0 1 1 0 0 forward_v I I I I #
coedge $-1 $599 $598 $591 $728 forward $419 $-1 #
coedge $-1 $591 $421 $423 $595 reversed $275 $-1 #
coedge $-1 $421 $590 $589 $728 reversed $275 $-1 #
coedge $-1 $429 $424 $421 $593 forward $430 $-1 #
edge $-1 $596 23.302038732687187 $729 27.929928585667405 $592 $730 forward 7 unknown #
coedge $-1 $423 $422 $599 $731 reversed $173 $-1 #
edge $-1 $732 -111.71971800897248 $596 -105.17489333778236 $590 $733 forward 7 unknown #
vertex $-1 $425 $734 #
straight-curve $-1 51.231969151506007 -5.4155641071301899 7.0836832285616111 0 -1 0 I I #
coedge $-1 $589 $426 $429 $603 reversed $419 $-1 #
coedge $-1 $426 $589 $594 $731 forward $419 $-1 #
vertex $-1 $427 $735 #
straight-curve $-1 55.859859004486225 -7.2030369269505385 80.225666830488635 0 0 1 I I #
straight-curve $-1 -23.137910275331336 -7.2030369269505385 81.453564381159708 0.70710677298230451 0 -0.70710678939079041 I I #
edge $-1 $729 -14.459219501570221 $431 -7.2030369269505385 $598 $736 forward 7 unknown #
point $-1 55.859859004486225 -7.2030369269505385 7.0836832285616129 #
point $-1 51.231969151506007 -7.2030369269505385 7.0836832285616111 #
edge $-1 $737 1 $737 0 $434 $-1 forward 7 unknown #
vertex $-1 $435 $738 #
ellipse-curve $-1 52.838807288605345 -12.386024480250311 4.0626314753938741 0.70710678939079041 0 0.70710677298230451 0.35355338649115226 0 -0.35355339469539521 1 I I #
point $-1 53.899467464487287 -12.386024480250311 4.4161848536807842 #
edge $-1 $739 1 $739 0 $438 $-1 forward 7 unknown #
vertex $-1 $439 $740 #
ellipse-curve $-1 52.838807288605345 -9.2762319482704463 4.0626314753938741 0.70710678939079041 0 0.70710677298230451 0.35355338649115226 0 -0.35355339469539521 1 I I #
point $-1 53.899467464487287 -9.2762319482704463 4.4161848536807842 #
plane-surface $-1 0 0 7.0836832285616129 0 0 1 1 0 0 forward_v I I I I #
coedge $-1 $625 $624 $617 $741 forward $443 $-1 #
coedge $-1 $617 $445 $447 $621 reversed $297 $-1 #
coedge $-1 $445 $616 $615 $741 reversed $297 $-1 #
coedge $-1 $453 $448 $445 $619 forward $454 $-1 #
edge $-1 $622 23.302038732687187 $742 27.929928585667405 $618 $743 forward 7 unknown #
coedge $-1 $447 $446 $625 $744 reversed $187 $-1 #
edge $-1 $745 -111.71971800897248 $622 -105.17489333778236 $616 $746 forward 7 unknown #
vertex $-1 $449 $747 #
straight-curve $-1 51.231969151506007 0.90846234753280619 7.0836832285616111 0 -1 0 I I #
coedge $-1 $615 $450 $453 $629 reversed $443 $-1 #
coedge $-1 $450 $615 $620 $744 forward $443 $-1 #
vertex $-1 $451 $748 #
straight-curve $-1 55.859859004486225 5.4450159823754536 80.225666830488635 0 0 1 I I #
straight-curve $-1 -23.137910275331336 5.4450159823754536 81.453564381159708 0.70710677298230451 0 -0.70710678939079041 I I #
edge $-1 $742 -1.8111665922442288 $455 5.4450159823754536 $624 $749 forward 7 unknown #
point $-1 55.859859004486225 5.4450159823754536 7.0836832285616129 #
point $-1 51.231969151506007 5.4450159823754536 7.0836832285616111 #
edge $-1 $750 1 $750 0 $458 $-1 forward 7 unknown #
vertex $-1 $459 $751 #
ellipse-curve $-1 52.838807288605345 0.26202842907568069 4.0626314753938741 0.70710678939079041 0 0.70710677298230451 0.35355338649115226 0 -0.35355339469539521 1 I I #
point $-1 53.899467464487287 0.26202842907568069 4.4161848536807842 #
edge $-1 $752 1 $752 0 $462 $-1 forward 7 unknown #
vertex $-1 $463 $753 #
ellipse-curve $-1 52.838807288605345 3.3718209610555441 4.0626314753938741 0.70710678939079041 0 0.70710677298230451 0.35355338649115226 0 -0.35355339469539521 1 I I #
point $-1 53.899467464487287 3.3718209610555441 4.4161848536807842 #
plane-surface $-1 0 0 7.0836832285616129 0 0 1 1 0 0 forward_v I I I I #
coedge $-1 $651 $650 $643 $754 forward $467 $-1 #
coedge $-1 $643 $469 $471 $647 reversed $319 $-1 #
coedge $-1 $469 $642 $641 $754 reversed $319 $-1 #
coedge $-1 $477 $472 $469 $645 forward $478 $-1 #
edge $-1 $648 23.302038732687187 $755 27.929928585667405 $644 $756 forward 7 unknown #
coedge $-1 $471 $470 $651 $757 reversed $201 $-1 #
edge $-1 $758 -111.71971800897248 $648 -105.17489333778236 $642 $759 forward 7 unknown #
vertex $-1 $473 $760 #
straight-curve $-1 51.231969151506007 7.2324888021958014 7.0836832285616111 0 -1 0 I I #
coedge $-1 $641 $474 $477 $655 reversed $467 $-1 #
coedge $-1 $474 $641 $646 $757 forward $467 $-1 #
vertex $-1 $475 $761 #
straight-curve $-1 55.859859004486225 18.093068891701442 80.225666830488635 0 0 1 I I #
straight-curve $-1 -23.137910275331336 18.093068891701442 81.453564381159708 0.70710677298230451 0 -0.70710678939079041 I I #
edge $-1 $755 10.836886317081762 $479 18.093068891701442 $650 $762 forward 7 unknown #
point $-1 55.859859004486225 18.093068891701442 7.0836832285616129 #
point $-1 51.231969151506007 18.093068891701442 7.0836832285616111 #
edge $-1 $763 1 $763 0 $482 $-1 forward 7 unknown #
vertex $-1 $483 $764 #
ellipse-curve $-1 52.838807288605345 12.910081338401671 4.0626314753938741 0.70710678939079041 0 0.70710677298230451 0.35355338649115226 0 -0.35355339469539521 1 I I #
point $-1 53.899467464487287 12.910081338401671 4.4161848536807842 #
edge $-1 $765 1 $765 0 $486 $-1 forward 7 unknown #
vertex $-1 $487 $766 #
ellipse-curve $-1 52.838807288605345 16.019873870381534 4.0626314753938741 0.70710678939079041 0 0.70710677298230451 0.35355338649115226 0 -0.35355339469539521 1 I I #
point $-1 53.899467464487287 16.019873870381534 4.4161848536807842 #
plane-surface $-1 55.859859004486225 0 0 -1 0 0 0 0 1 forward_v I I I I #
coedge $-1 $495 $493 $497 $671 reversed $341 $-1 #
edge $-1 $508 -7.0836832285616129 $673 7.0836832285616129 $507 $767 forward 7 unknown #
vertex $-1 $671 $768 #
straight-curve $-1 -55.859859004486225 -23.48493922640775 0 0 0 -1 I I #
edge $-1 $669 -23.48493922640775 $673 23.48493922640775 $667 $769 forward 7 unknown #
straight-curve $-1 0 -23.48493922640775 -7.0836832285616129 -1 0 0 I I #
vertex $-1 $500 $770 #
straight-curve $-1 0 23.48493922640775 -7.0836832285616129 1 0 0 I I #
point $-1 55.859859004486225 23.48493922640775 -7.0836832285616129 #
point $-1 55.859859004486225 -23.48493922640775 -7.0836832285616129 #
straight-curve $-1 -55.859859004486225 0 7.0836832285616129 0 -1 0 I I #
point $-1 -55.859859004486225 23.48493922640775 7.0836832285616129 #
point $-1 -55.859859004486225 -23.48493922640775 7.0836832285616129 #
straight-curve $-1 55.859859004486225 -23.48493922640775 0 0 0 -1 I I #
straight-curve $-1 55.859859004486225 23.48493922640775 0 0 0 -1 I I #
plane-surface $-1 55.859859004486225 0 0 -1 0 0 0 0 1 forward_v I I I I #
coedge $-1 $771 $686 $524 $691 forward $518 $-1 #
coedge $-1 $525 $520 $771 $772 forward $360 $-1 #
edge $-1 $534 -4.5128598624187646 $773 4.512859862418761 $532 $774 forward 7 unknown #
coedge $-1 $683 $775 $521 $687 reversed $518 $-1 #
edge $-1 $694 -55.859859004486225 $689 55.859859004486225 $686 $776 forward 7 unknown #
coedge $-1 $532 $522 $775 $777 forward $533 $-1 #
vertex $-1 $523 $778 #
straight-curve $-1 55.859859004486225 -27.997799088826515 2.1071798410956588 0 1 0 I I #
edge $-1 $694 -1.9725659236124886 $692 1.9725659236124886 $524 $779 forward 7 unknown #
vertex $-1 $526 $780 #
straight-curve $-1 -55.859859004486225 -27.997799088826515 -1.8379520061293184 0 1 0 I I #
vertex $-1 $527 $781 #
straight-curve $-1 -55.859859004486225 -27.997799088826515 2.1071798410956588 0 -1 0 I I #
point $-1 -55.859859004486225 -23.48493922640775 -1.8379520061293184 #
straight-curve $-1 0 -23.48493922640775 -1.8379520061293184 -1 0 0 I I #
point $-1 55.859859004486225 -23.48493922640775 -1.8379520061293184 #
coedge $-1 $549 $548 $541 $700 forward $538 $-1 #
edge $-1 $701 31.672429380268753 $704 35.998969017245273 $699 $782 forward 7 unknown #
vertex $-1 $553 $783 #
straight-curve $-1 -69.441895135910386 4.5128598624187681 7.0836832285616111 -1 0 0 I I #
edge $-1 $704 -4.4434883822827338 $550 4.3047454220106651 $549 $784 forward 7 unknown #
vertex $-1 $703 $785 #
straight-curve $-1 -55.859859004486225 4.5128598624187681 2.7571435915850913 0.66913059716165679 0 0.74314483375859142 I I #
point $-1 -51.964225314493952 4.5128598624187681 7.0836832285616129 #
point $-1 -55.859859004486225 -4.2353739418746308 2.7571435915850913 #
straight-curve $-1 -55.859859004486225 0 7.0836832285616129 0 -1 0 I I #
vertex $-1 $556 $786 #
point $-1 -50.651554844886405 -1.7358785692193734 3.3302902333001922 #
vertex $-1 $560 $787 #
point $-1 -50.651554844886405 2.0133644897635108 3.3302902333001922 #
coedge $-1 $714 $566 $720 $788 reversed $397 $-1 #
coedge $-1 $566 $713 $569 $718 reversed $397 $-1 #
edge $-1 $716 -13.929528064277227 $574 -5.1812942599838276 $573 $789 forward 7 unknown #
vertex $-1 $568 $790 #
straight-curve $-1 -44.040140817998157 23.48493922640775 15.884270857966817 -0.66913059716165679 0 -0.74314483375859142 I I #
edge $-1 $570 51.964225314493952 $722 55.859859004486225 $714 $791 forward 7 unknown #
point $-1 -51.964225314493952 23.484939226407754 7.0836832285616129 #
coedge $-1 $573 $572 $713 $788 forward $564 $-1 #
point $-1 -55.859859004486225 14.736705422114355 2.7571435915850913 #
vertex $-1 $718 $792 #
straight-curve $-1 -55.859859004486225 0 7.0836832285616129 0 -1 0 I I #
vertex $-1 $580 $793 #
point $-1 -50.651554844886405 17.236200794769612 3.3302902333001922 #
vertex $-1 $584 $794 #
point $-1 -50.651554844886405 20.985443853752496 3.3302902333001922 #
edge $-1 $729 73.141983601927024 $732 77.769873562297903 $589 $795 forward 7 unknown #
vertex $-1 $603 $796 #
straight-curve $-1 27.92993041881882 -14.459219501570221 7.0836832285616111 1 0 0 I I #
edge $-1 $732 -9.0436553944400302 $600 -1.7874728198203487 $599 $797 forward 7 unknown #
vertex $-1 $731 $798 #
straight-curve $-1 -23.137910275331336 -14.459219501570221 81.453564381159708 -0.70710677298230451 0 0.70710678939079041 I I #
point $-1 51.231969151506007 -14.459219501570221 7.0836832285616111 #
point $-1 55.859859004486225 -7.2030369269505385 2.4557932681907317 #
straight-curve $-1 55.859859004486225 0 7.0836832285616129 0 1 0 I I #
vertex $-1 $606 $799 #
point $-1 53.192360675096495 -12.386024480250311 3.7090780806984793 #
vertex $-1 $610 $800 #
point $-1 53.192360675096495 -9.2762319482704463 3.7090780806984793 #
edge $-1 $742 73.141983601927024 $745 77.769873562297903 $615 $801 forward 7 unknown #
vertex $-1 $629 $802 #
straight-curve $-1 27.92993041881882 -1.8111665922442288 7.0836832285616111 1 0 0 I I #
edge $-1 $745 -2.719628939777035 $626 4.5365536348426474 $625 $803 forward 7 unknown #
vertex $-1 $744 $804 #
straight-curve $-1 -23.137910275331336 -1.8111665922442288 81.453564381159708 -0.70710677298230451 0 0.70710678939079041 I I #
point $-1 51.231969151506007 -1.8111665922442288 7.0836832285616111 #
point $-1 55.859859004486225 5.4450159823754536 2.4557932681907317 #
straight-curve $-1 55.859859004486225 0 7.0836832285616129 0 1 0 I I #
vertex $-1 $632 $805 #
point $-1 53.192360675096495 0.26202842907568069 3.7090780806984793 #
vertex $-1 $636 $806 #
point $-1 53.192360675096495 3.3718209610555441 3.7090780806984793 #
edge $-1 $755 73.141983601927024 $758 77.769873562297903 $641 $807 forward 7 unknown #
vertex $-1 $655 $808 #
straight-curve $-1 27.92993041881882 10.836886317081762 7.0836832285616111 1 0 0 I I #
edge $-1 $758 3.6043975148859602 $652 10.860580089505641 $651 $809 forward 7 unknown #
vertex $-1 $757 $810 #
straight-curve $-1 -23.137910275331336 10.836886317081762 81.453564381159708 -0.70710677298230451 0 0.70710678939079041 I I #
point $-1 51.231969151506007 10.836886317081762 7.0836832285616111 #
point $-1 55.859859004486225 18.093068891701442 2.4557932681907317 #
straight-curve $-1 55.859859004486225 0 7.0836832285616129 0 1 0 I I #
vertex $-1 $658 $811 #
point $-1 53.192360675096495 12.910081338401671 3.7090780806984793 #
vertex $-1 $662 $812 #
point $-1 53.192360675096495 16.019873870381534 3.7090780806984793 #
straight-curve $-1 -55.859859004486225 23.48493922640775 0 0 0 -1 I I #
point $-1 -55.859859004486225 -23.48493922640775 -7.0836832285616129 #
straight-curve $-1 -55.859859004486225 0 -7.0836832285616129 0 1 0 I I #
point $-1 -55.859859004486225 23.48493922640775 -7.0836832285616129 #
coedge $-1 $775 $683 $684 $772 reversed $518 $-1 #
edge $-1 $773 -55.859859004486225 $692 55.859859004486225 $771 $813 forward 7 unknown #
vertex $-1 $777 $814 #
straight-curve $-1 55.859859004486225 -27.997799088826515 -1.8379520061293184 0 -1 0 I I #
coedge $-1 $686 $771 $688 $777 reversed $518 $-1 #
straight-curve $-1 0 -32.510658951245276 2.1071798410956588 1 0 0 I I #
edge $-1 $689 -1.9725659236124886 $773 1.9725659236124886 $688 $815 forward 7 unknown #
point $-1 55.859859004486225 -32.510658951245276 2.1071798410956588 #
straight-curve $-1 -55.859859004486225 -32.510658951245276 0.1346139174831702 0 0 -1 I I #
point $-1 -55.859859004486225 -32.510658951245276 -1.8379520061293184 #
point $-1 -55.859859004486225 -32.510658951245276 2.1071798410956588 #
straight-curve $-1 -55.859859004486225 4.5128598624187681 38.756112608830364 0 0 -1 I I #
point $-1 -55.859859004486225 4.5128598624187681 7.0836832285616129 #
straight-curve $-1 -55.859859004486225 0.069371480136034336 2.7571435915850926 0 -1 0 I I #
point $-1 -55.859859004486225 4.5128598624187681 2.7571435915850913 #
point $-1 -50.577540608289468 -1.7358785692193734 1.9180148023799437 #
point $-1 -50.577540608289468 2.0133644897635108 1.9180148023799437 #
edge $-1 $722 -7.0836832285616129 $716 -2.7571435915850913 $713 $816 forward 7 unknown #
straight-curve $-1 -55.859859004486225 9.5554111621305271 2.7571435915850926 0 -1 0 I I #
point $-1 -55.859859004486225 23.484939226407754 2.7571435915850913 #
straight-curve $-1 0 23.48493922640775 7.0836832285616129 -1 0 0 I I #
point $-1 -55.859859004486225 23.48493922640775 7.0836832285616129 #
point $-1 -50.577540608289468 17.236200794769612 1.9180148023799437 #
point $-1 -50.577540608289468 20.985443853752496 1.9180148023799437 #
straight-curve $-1 55.859859004486225 -14.459219501570221 80.225666830488635 0 0 -1 I I #
point $-1 55.859859004486225 -14.459219501570221 7.0836832285616129 #
straight-curve $-1 55.859859004486225 -5.4155641071301899 2.4557932681907246 0 1 0 I I #
point $-1 55.859859004486225 -14.459219501570221 2.4557932681907317 #
point $-1 52.485253893909949 -12.386024480250311 3.7090780889027219 #
point $-1 52.485253893909949 -9.2762319482704463 3.7090780889027219 #
straight-curve $-1 55.859859004486225 -1.8111665922442288 80.225666830488635 0 0 -1 I I #
point $-1 55.859859004486225 -1.8111665922442288 7.0836832285616129 #
straight-curve $-1 55.859859004486225 0.90846234753280619 2.4557932681907246 0 1 0 I I #
point $-1 55.859859004486225 -1.8111665922442288 2.4557932681907317 #
point $-1 52.485253893909949 0.26202842907568069 3.7090780889027219 #
point $-1 52.485253893909949 3.3718209610555441 3.7090780889027219 #
straight-curve $-1 55.859859004486225 10.836886317081762 80.225666830488635 0 0 -1 I I #
point $-1 55.859859004486225 10.836886317081762 7.0836832285616129 #
straight-curve $-1 55.859859004486225 7.2324888021958014 2.4557932681907246 0 1 0 I I #
point $-1 55.859859004486225 10.836886317081762 2.4557932681907317 #
point $-1 52.485253893909949 12.910081338401671 3.7090780889027219 #
point $-1 52.485253893909949 16.019873870381534 3.7090780889027219 #
straight-curve $-1 0 -32.510658951245276 -1.8379520061293184 -1 0 0 I I #
point $-1 55.859859004486225 -32.510658951245276 -1.8379520061293184 #
straight-curve $-1 55.859859004486225 -32.510658951245276 0.1346139174831702 0 0 -1 I I #
straight-curve $-1 -55.859859004486225 23.48493922640775 0 0 0 -1 I I #
End-of-ACIS-data 