500 0 7 0           
7 Unknown 11 ACIS 5.0 NT 24 Fri Mar 26 18:04:31 1999 
-1 9.9999999999999995e-007 1e-010 
body $-1 $7 $-1 $8 #
body $-1 $9 $-1 $10 #
body $-1 $11 $-1 $12 #
body $-1 $13 $-1 $14 #
body $-1 $15 $-1 $16 #
body $-1 $17 $-1 $18 #
body $-1 $19 $-1 $20 #
lump $-1 $-1 $21 $0 #
transform $-1 1 0 0 0 1 0 0 0 1 54.399853511154518 36.231096015197551 8.3896432696100174 1 rotate no_reflect no_shear #
lump $-1 $-1 $22 $1 #
transform $-1 1 0 0 0 1 0 0 0 1 54.399853511154518 36.231096015197551 8.3896432696100174 1 rotate no_reflect no_shear #
lump $-1 $-1 $23 $2 #
transform $-1 1 0 0 0 1 0 0 0 1 54.399853511154518 36.231096015197551 8.3896432696100174 1 rotate no_reflect no_shear #
lump $-1 $-1 $24 $3 #
transform $-1 1 0 0 0 1 0 0 0 1 54.399853511154518 36.231096015197551 8.3896432696100174 1 rotate no_reflect no_shear #
lump $-1 $-1 $25 $4 #
transform $-1 1 0 0 0 1 0 0 0 1 54.399853511154518 36.231096015197551 8.3896432696100174 1 rotate no_reflect no_shear #
lump $-1 $-1 $26 $5 #
transform $-1 1 0 0 0 1 0 0 0 1 54.399853511154518 36.231096015197551 8.3896432696100174 1 rotate no_reflect no_shear #
lump $-1 $-1 $27 $6 #
transform $-1 1 0 0 0 1 0 0 0 1 54.399853511154518 36.231096015197551 8.3896432696100174 1 rotate no_reflect no_shear #
shell $-1 $-1 $-1 $28 $-1 $7 #
shell $-1 $-1 $-1 $29 $-1 $9 #
shell $-1 $-1 $-1 $30 $-1 $11 #
shell $-1 $-1 $-1 $31 $-1 $13 #
shell $-1 $-1 $-1 $32 $-1 $15 #
shell $-1 $-1 $-1 $33 $-1 $17 #
shell $-1 $-1 $-1 $34 $-1 $19 #
face $-1 $35 $36 $21 $-1 $37 forward single #
face $-1 $38 $39 $22 $-1 $40 reversed single #
face $-1 $41 $42 $23 $-1 $43 reversed single #
face $-1 $44 $45 $24 $-1 $46 reversed single #
face $-1 $47 $48 $25 $-1 $49 forward single #
face $-1 $50 $51 $26 $-1 $52 reversed single #
face $-1 $53 $54 $27 $-1 $55 forward single #
face $-1 $56 $57 $21 $-1 $58 reversed single #
loop $-1 $-1 $59 $28 #
plane-surface $-1 0 0 8.3896432696100174 0 0 1 1 0 0 forward_v I I I I #
face $-1 $60 $61 $22 $-1 $62 reversed single #
loop $-1 $-1 $63 $29 #
plane-surface $-1 -50.812365032415464 -33.784491532480729 0 0 1 0 0 0 1 forward_v I I I I #
face $-1 $64 $65 $23 $-1 $66 reversed single #
loop $-1 $-1 $67 $30 #
plane-surface $-1 45.190960948970528 0 6.509469087605952 1 0 0 0 0 -1 forward_v I I I I #
face $-1 $68 $69 $24 $-1 $70 reversed single #
loop $-1 $-1 $71 $31 #
plane-surface $-1 31.943713170472122 -36.231096015197551 2.2762924041911958 0 -0.70710678939079041 0.70710677298230451 1 0 0 forward_v I I I I #
face $-1 $72 $73 $25 $-1 $74 forward single #
loop $-1 $75 $76 $32 #
cone-surface $-1 31.943713170472122 -31.166572506545535 3.3251197366198584 0 0.70710678939079041 -0.70710677298230451 1.5 0 0 1 I I 0 1 1.5 forward I I I I #
face $-1 $77 $78 $26 $-1 $79 reversed single #
loop $-1 $-1 $80 $33 #
plane-surface $-1 18.69646539197371 61.925600764564379 130.44781009698789 1 0 0 0 -0.70710678939079041 -0.70710677298230451 forward_v I I I I #
face $-1 $81 $82 $27 $-1 $83 forward single #
loop $-1 $84 $85 $34 #
cone-surface $-1 31.943713170472122 31.166572506545542 3.3251197366198513 0 -0.70710678939079041 -0.70710677298230451 1.5 0 0 1 I I 0 1 1.5 forward I I I I #
face $-1 $86 $87 $21 $-1 $88 reversed single #
loop $-1 $-1 $89 $35 #
plane-surface $-1 0 0 -8.3896432696100174 0 0 1 1 0 0 forward_v I I I I #
coedge $-1 $90 $91 $92 $93 forward $36 $-1 #
face $-1 $94 $95 $22 $-1 $96 reversed single #
loop $-1 $-1 $97 $38 #
plane-surface $-1 -50.812365032415464 -30.784491532480729 0 0 -1 0 0 0 -1 forward_v I I I I #
coedge $-1 $98 $99 $100 $101 reversed $39 $-1 #
face $-1 $102 $103 $23 $-1 $104 reversed single #
loop $-1 $-1 $105 $41 #
plane-surface $-1 49.795407230062523 0 4.6292949056018857 0 0 1 1 0 0 forward_v I I I I #
coedge $-1 $106 $107 $108 $109 reversed $42 $-1 #
face $-1 $110 $111 $24 $-1 $112 reversed single #
loop $-1 $-1 $113 $44 #
plane-surface $-1 18.69646539197371 -113.16410753440113 79.209302138156318 1 0 0 0 0.70710678939079041 -0.70710677298230451 forward_v I I I I #
coedge $-1 $114 $115 $116 $117 reversed $45 $-1 #
face $-1 $-1 $118 $25 $-1 $119 forward single #
loop $-1 $120 $121 $47 #
cone-surface $-1 31.943713170472122 -28.628394267629371 0.78694155660238074 0 0.70710678939079041 -0.70710677298230451 0.75 0 0 1 I I -0.70710678118654757 0.70710678118654757 0.75 forward I I I I #
loop $-1 $-1 $122 $32 #
coedge $-1 $76 $76 $123 $124 reversed $48 $-1 #
face $-1 $125 $126 $26 $-1 $127 forward single #
loop $-1 $-1 $128 $50 #
plane-surface $-1 31.943713170472122 -15.007410754639196 53.514800363022772 0 0.70710678939079041 0.70710677298230451 1 0 0 forward_v I I I I #
coedge $-1 $129 $130 $131 $132 reversed $51 $-1 #
face $-1 $-1 $133 $27 $-1 $134 forward single #
loop $-1 $135 $136 $53 #
cone-surface $-1 31.943713170472122 28.628394267629375 0.78694155660237364 0 -0.70710678939079041 -0.70710677298230451 0.75 0 0 1 I I -0.70710678118654757 0.70710678118654757 0.75 forward I I I I #
loop $-1 $-1 $137 $34 #
coedge $-1 $85 $85 $138 $139 reversed $54 $-1 #
face $-1 $140 $141 $21 $-1 $142 reversed single #
loop $-1 $-1 $143 $56 #
plane-surface $-1 0 -36.231096015197551 0 0 1 0 0 0 1 forward_v I I I I #
coedge $-1 $144 $145 $146 $147 forward $57 $-1 #
coedge $-1 $148 $59 $149 $150 forward $36 $-1 #
coedge $-1 $59 $148 $151 $152 forward $36 $-1 #
coedge $-1 $153 $154 $59 $93 reversed $155 $-1 #
edge $-1 $156 -36.231096015197551 $157 36.231096015197551 $92 $158 forward 7 unknown #
face $-1 $159 $160 $22 $-1 $161 reversed single #
loop $-1 $-1 $162 $60 #
plane-surface $-1 -47.22487655367641 -32.284491532480729 0 -1 0 0 0 0 1 forward_v I I I I #
coedge $-1 $163 $164 $165 $166 forward $61 $-1 #
coedge $-1 $167 $63 $168 $169 reversed $39 $-1 #
coedge $-1 $63 $167 $170 $171 reversed $39 $-1 #
coedge $-1 $172 $173 $63 $101 forward $174 $-1 #
edge $-1 $175 -8.3896432696100174 $176 8.3896432696100174 $100 $177 forward 7 unknown #
face $-1 $178 $179 $23 $-1 $180 reversed single #
loop $-1 $-1 $181 $64 #
plane-surface $-1 0 -36.231096015197551 0 0 1 0 0 0 1 forward_v I I I I #
coedge $-1 $182 $183 $184 $185 reversed $65 $-1 #
coedge $-1 $186 $67 $181 $187 reversed $42 $-1 #
coedge $-1 $67 $186 $188 $189 reversed $42 $-1 #
coedge $-1 $183 $182 $67 $109 forward $65 $-1 #
edge $-1 $190 -36.231096015197551 $191 36.231096015197551 $67 $192 forward 7 unknown #
face $-1 $193 $194 $24 $-1 $195 forward single #
loop $-1 $-1 $196 $68 #
plane-surface $-1 0 -36.231096015197551 0 0 1 0 0 0 1 forward_v I I I I #
coedge $-1 $197 $198 $199 $200 reversed $69 $-1 #
coedge $-1 $201 $71 $202 $203 reversed $45 $-1 #
coedge $-1 $71 $201 $197 $204 forward $45 $-1 #
coedge $-1 $199 $205 $71 $117 forward $206 $-1 #
edge $-1 $207 -29.219104363734466 $208 -2.724608806737649 $116 $209 forward 7 unknown #
loop $-1 $-1 $123 $72 #
plane-surface $-1 31.943713170472122 -36.231096015197551 2.2762924041911958 0 -0.70710678939079041 0.70710677298230451 1 0 0 forward_v I I I I #
loop $-1 $-1 $210 $47 #
coedge $-1 $121 $121 $122 $211 reversed $73 $-1 #
coedge $-1 $122 $122 $121 $211 forward $75 $-1 #
coedge $-1 $123 $123 $76 $124 forward $118 $-1 #
edge $-1 $212 0 $212 6.2831853071796004 $123 $213 forward 7 unknown #
face $-1 $214 $215 $26 $-1 $216 forward single #
loop $-1 $-1 $217 $77 #
plane-surface $-1 45.190960948970528 0 6.509469087605952 1 0 0 0 0 -1 forward_v I I I I #
coedge $-1 $218 $219 $220 $221 reversed $78 $-1 #
coedge $-1 $130 $80 $222 $223 reversed $51 $-1 #
coedge $-1 $80 $129 $218 $224 reversed $51 $-1 #
coedge $-1 $220 $225 $80 $132 forward $215 $-1 #
edge $-1 $226 -5.2682956329153612 $227 0.84505509064255335 $131 $228 forward 7 unknown #
loop $-1 $-1 $138 $81 #
plane-surface $-1 31.943713170472122 -15.007410754639196 53.514800363022772 0 0.70710678939079041 0.70710677298230451 1 0 0 forward_v I I I I #
loop $-1 $-1 $229 $53 #
coedge $-1 $136 $136 $137 $230 reversed $82 $-1 #
coedge $-1 $137 $137 $136 $230 forward $84 $-1 #
coedge $-1 $138 $138 $85 $139 forward $133 $-1 #
edge $-1 $231 -1.2560741369730886e-015 $231 6.2831853071795996 $138 $232 forward 7 unknown #
face $-1 $233 $234 $21 $-1 $235 reversed single #
loop $-1 $-1 $236 $86 #
plane-surface $-1 -54.399853511154518 0 0 1 0 0 0 0 -1 forward_v I I I I #
coedge $-1 $237 $151 $238 $239 forward $87 $-1 #
coedge $-1 $240 $89 $237 $241 forward $57 $-1 #
coedge $-1 $89 $240 $242 $243 forward $57 $-1 #
coedge $-1 $154 $153 $89 $147 reversed $155 $-1 #
edge $-1 $244 -36.231096015197551 $245 36.231096015197551 $146 $246 forward 7 unknown #
coedge $-1 $91 $90 $247 $248 forward $36 $-1 #
coedge $-1 $249 $250 $90 $150 reversed $234 $-1 #
edge $-1 $157 -54.399853511154518 $251 54.399853511154518 $149 $252 forward 7 unknown #
coedge $-1 $143 $253 $91 $152 reversed $87 $-1 #
edge $-1 $254 -54.399853511154518 $156 54.399853511154518 $151 $255 forward 7 unknown #
coedge $-1 $146 $92 $253 $256 forward $155 $-1 #
coedge $-1 $92 $146 $249 $257 reversed $155 $-1 #
loop $-1 $-1 $153 $233 #
vertex $-1 $93 $258 #
vertex $-1 $93 $259 #
straight-curve $-1 54.399853511154518 0 8.3896432696100174 0 1 0 I I #
face $-1 $260 $261 $22 $-1 $262 forward single #
loop $-1 $-1 $263 $94 #
plane-surface $-1 0 0 -8.3896432696100174 0 0 1 1 0 0 forward_v I I I I #
coedge $-1 $264 $265 $167 $266 forward $95 $-1 #
coedge $-1 $267 $97 $263 $268 reversed $61 $-1 #
coedge $-1 $97 $267 $269 $270 reversed $61 $-1 #
coedge $-1 $265 $264 $97 $166 reversed $95 $-1 #
edge $-1 $271 -8.3896432696100174 $272 8.3896432696100174 $165 $273 forward 7 unknown #
coedge $-1 $99 $98 $162 $266 reversed $39 $-1 #
coedge $-1 $274 $275 $98 $169 forward $160 $-1 #
edge $-1 $276 21.818694037468678 $175 28.993670994946786 $168 $277 forward 7 unknown #
coedge $-1 $278 $279 $99 $171 forward $261 $-1 #
edge $-1 $176 -28.993670994946786 $280 -21.818694037468678 $170 $281 forward 7 unknown #
coedge $-1 $282 $100 $279 $283 reversed $174 $-1 #
coedge $-1 $100 $282 $274 $284 reversed $174 $-1 #
loop $-1 $-1 $282 $260 #
vertex $-1 $284 $285 #
vertex $-1 $101 $286 #
straight-curve $-1 -54.399853511154518 -33.784491532480729 0 0 0 1 I I #
face $-1 $287 $288 $23 $-1 $289 forward single #
loop $-1 $-1 $184 $102 #
plane-surface $-1 54.399853511154518 0 0 -1 0 0 0 0 1 forward_v I I I I #
coedge $-1 $290 $291 $106 $187 forward $103 $-1 #
coedge $-1 $108 $105 $290 $292 reversed $65 $-1 #
coedge $-1 $105 $108 $293 $294 reversed $65 $-1 #
coedge $-1 $295 $296 $105 $185 forward $179 $-1 #
edge $-1 $297 -36.231096015197551 $298 36.231096015197551 $184 $299 forward 7 unknown #
coedge $-1 $107 $106 $300 $301 reversed $42 $-1 #
edge $-1 $302 -5.1349087258070432 $190 -1.3745603617989097 $181 $303 forward 7 unknown #
coedge $-1 $304 $293 $107 $189 forward $305 $-1 #
edge $-1 $191 1.3745603617989097 $306 5.1349087258070432 $188 $307 forward 7 unknown #
vertex $-1 $292 $308 #
vertex $-1 $294 $309 #
straight-curve $-1 45.190960948970528 0 4.6292949056018857 0 1 0 I I #
face $-1 $-1 $206 $24 $-1 $310 forward single #
loop $-1 $-1 $202 $110 #
plane-surface $-1 45.190960948970528 0 6.509469087605952 1 0 0 0 0 -1 forward_v I I I I #
coedge $-1 $311 $312 $198 $313 forward $111 $-1 #
coedge $-1 $198 $113 $115 $204 reversed $69 $-1 #
coedge $-1 $113 $197 $196 $313 reversed $69 $-1 #
coedge $-1 $314 $116 $113 $200 forward $206 $-1 #
edge $-1 $208 -26.464308475560898 $315 -20.350957752003012 $199 $316 forward 7 unknown #
coedge $-1 $115 $114 $311 $317 reversed $45 $-1 #
coedge $-1 $318 $319 $114 $203 forward $194 $-1 #
edge $-1 $320 -14.306280679225869 $207 -5.6606970741161016 $202 $321 forward 7 unknown #
edge $-1 $322 0 $208 8.6455836051097688 $197 $323 forward 7 unknown #
coedge $-1 $116 $314 $318 $324 forward $206 $-1 #
loop $-1 $-1 $199 $193 #
vertex $-1 $203 $325 #
vertex $-1 $117 $326 #
straight-curve $-1 15.971856585236061 -30.117745291639665 8.3896432696100174 -1 0 0 I I #
coedge $-1 $210 $210 $-1 $327 reversed $120 $-1 #
edge $-1 $328 0 $328 6.2831853071796004 $121 $329 forward 7 unknown #
vertex $-1 $124 $330 #
ellipse-curve $-1 31.943713170472122 -33.174420653418608 5.3329678369006075 0 -0.70710678939079041 0.70710677298230451 1.5 0 0 1 I I #
face $-1 $-1 $331 $26 $-1 $332 reversed single #
loop $-1 $-1 $220 $125 #
plane-surface $-1 0 0 8.3896432696100174 0 0 1 1 0 0 forward_v I I I I #
coedge $-1 $333 $334 $219 $335 reversed $126 $-1 #
coedge $-1 $336 $128 $130 $224 forward $78 $-1 #
coedge $-1 $128 $336 $217 $335 forward $78 $-1 #
coedge $-1 $337 $131 $128 $221 forward $215 $-1 #
edge $-1 $227 2.724608806737649 $338 29.219104363734466 $220 $339 forward 7 unknown #
coedge $-1 $340 $341 $129 $223 forward $331 $-1 #
edge $-1 $342 -62.947612644302772 $226 -56.834261778883928 $222 $343 forward 7 unknown #
edge $-1 $227 63.81660842528531 $342 72.462192030395116 $130 $344 forward 7 unknown #
coedge $-1 $131 $337 $340 $345 forward $215 $-1 #
vertex $-1 $223 $346 #
vertex $-1 $132 $347 #
straight-curve $-1 18.69646539197371 30.96280038228219 8.3896432696100192 0 -1 0 I I #
coedge $-1 $229 $229 $-1 $348 reversed $135 $-1 #
edge $-1 $349 0 $349 6.2831853071796004 $136 $350 forward 7 unknown #
vertex $-1 $139 $351 #
ellipse-curve $-1 31.943713170472122 33.174420653418601 5.3329678369005835 0 0.70710678939079041 0.70710677298230451 1.5 0 0 1 I I #
face $-1 $-1 $155 $21 $-1 $352 reversed single #
loop $-1 $-1 $249 $140 #
plane-surface $-1 0 36.231096015197551 0 0 -1 0 0 0 -1 forward_v I I I I #
coedge $-1 $353 $247 $250 $354 forward $141 $-1 #
coedge $-1 $253 $143 $144 $241 reversed $87 $-1 #
coedge $-1 $247 $353 $143 $239 reversed $141 $-1 #
edge $-1 $254 -8.3896432696100174 $355 8.3896432696100174 $238 $356 forward 7 unknown #
coedge $-1 $145 $144 $353 $357 forward $57 $-1 #
edge $-1 $245 -54.399853511154518 $355 54.399853511154518 $237 $358 forward 7 unknown #
coedge $-1 $250 $249 $145 $243 reversed $234 $-1 #
edge $-1 $359 -54.399853511154518 $244 54.399853511154518 $242 $360 forward 7 unknown #
vertex $-1 $147 $361 #
vertex $-1 $256 $362 #
straight-curve $-1 54.399853511154518 0 -8.3896432696100174 0 -1 0 I I #
coedge $-1 $236 $238 $148 $248 reversed $141 $-1 #
edge $-1 $251 -36.231096015197551 $254 36.231096015197551 $247 $363 forward 7 unknown #
coedge $-1 $242 $149 $154 $257 forward $234 $-1 #
coedge $-1 $149 $242 $236 $354 reversed $234 $-1 #
vertex $-1 $150 $364 #
straight-curve $-1 0 36.231096015197551 8.3896432696100174 -1 0 0 I I #
coedge $-1 $151 $237 $153 $256 reversed $87 $-1 #
vertex $-1 $248 $365 #
straight-curve $-1 0 -36.231096015197551 8.3896432696100174 1 0 0 I I #
edge $-1 $156 -8.3896432696100174 $245 8.3896432696100174 $153 $366 forward 7 unknown #
edge $-1 $157 -8.3896432696100174 $244 8.3896432696100174 $154 $367 forward 7 unknown #
point $-1 54.399853511154518 -36.231096015197551 8.3896432696100174 #
point $-1 54.399853511154518 36.231096015197551 8.3896432696100174 #
face $-1 $-1 $174 $22 $-1 $368 reversed single #
loop $-1 $-1 $269 $159 #
plane-surface $-1 0 0 8.3896432696100174 0 0 1 1 0 0 forward_v I I I I #
coedge $-1 $275 $274 $163 $268 forward $160 $-1 #
coedge $-1 $165 $162 $275 $369 reversed $95 $-1 #
coedge $-1 $162 $165 $278 $370 reversed $95 $-1 #
edge $-1 $280 -8.3896432696100174 $276 8.3896432696100174 $162 $371 forward 7 unknown #
coedge $-1 $164 $163 $282 $372 reversed $61 $-1 #
edge $-1 $373 -28.993670994946786 $272 -21.818694037468678 $263 $374 forward 7 unknown #
coedge $-1 $279 $278 $164 $270 forward $261 $-1 #
edge $-1 $271 21.818694037468678 $375 28.993670994946786 $269 $376 forward 7 unknown #
vertex $-1 $270 $377 #
vertex $-1 $268 $378 #
straight-curve $-1 -47.22487655367641 -30.784491532480729 0 0 0 -1 I I #
coedge $-1 $263 $168 $173 $284 forward $160 $-1 #
coedge $-1 $168 $263 $264 $369 forward $160 $-1 #
vertex $-1 $169 $379 #
straight-curve $-1 -25.406182516207732 -33.784491532480729 -8.3896432696100174 -1 0 0 I I #
coedge $-1 $269 $170 $265 $370 forward $261 $-1 #
coedge $-1 $170 $269 $172 $283 forward $261 $-1 #
vertex $-1 $171 $380 #
straight-curve $-1 -25.406182516207732 -33.784491532480729 8.3896432696100174 1 0 0 I I #
coedge $-1 $173 $172 $267 $372 forward $174 $-1 #
edge $-1 $375 30.784491532480729 $176 33.784491532480729 $172 $381 forward 7 unknown #
edge $-1 $175 -33.784491532480729 $373 -30.784491532480729 $173 $382 forward 7 unknown #
point $-1 -54.399853511154518 -33.784491532480729 -8.3896432696100174 #
point $-1 -54.399853511154518 -33.784491532480729 8.3896432696100174 #
face $-1 $-1 $305 $23 $-1 $383 reversed single #
loop $-1 $-1 $300 $178 #
plane-surface $-1 0 0 8.3896432696100174 0 0 1 1 0 0 forward_v I I I I #
coedge $-1 $384 $181 $182 $292 forward $103 $-1 #
coedge $-1 $181 $384 $385 $386 reversed $103 $-1 #
edge $-1 $190 20.293257333939266 $297 29.502149896123257 $290 $387 forward 7 unknown #
coedge $-1 $188 $388 $183 $294 forward $305 $-1 #
edge $-1 $298 -29.502149896123257 $191 -20.293257333939266 $293 $389 forward 7 unknown #
coedge $-1 $390 $184 $388 $391 reversed $179 $-1 #
coedge $-1 $184 $390 $384 $392 forward $179 $-1 #
vertex $-1 $185 $393 #
vertex $-1 $185 $394 #
straight-curve $-1 54.399853511154518 0 4.6292949056018857 0 1 0 I I #
coedge $-1 $385 $395 $186 $301 forward $288 $-1 #
edge $-1 $306 -36.231096015197551 $302 36.231096015197551 $300 $396 forward 7 unknown #
vertex $-1 $386 $397 #
straight-curve $-1 45.190960948970528 -36.231096015197551 3.254734543802976 0 0 -1 I I #
coedge $-1 $388 $188 $395 $398 reversed $305 $-1 #
loop $-1 $-1 $188 $287 #
vertex $-1 $189 $399 #
straight-curve $-1 45.190960948970528 36.231096015197551 3.254734543802976 0 0 1 I I #
point $-1 45.190960948970528 -36.231096015197551 4.6292949056018857 #
point $-1 45.190960948970528 36.231096015197551 4.6292949056018857 #
plane-surface $-1 0 0 8.3896432696100174 0 0 1 1 0 0 forward_v I I I I #
coedge $-1 $400 $196 $201 $317 forward $111 $-1 #
coedge $-1 $196 $400 $314 $401 reversed $111 $-1 #
edge $-1 $315 31.21500779946814 $322 37.328358664886963 $196 $402 forward 7 unknown #
coedge $-1 $205 $199 $312 $401 forward $206 $-1 #
vertex $-1 $401 $403 #
straight-curve $-1 18.69646539197371 -56.582053767200563 8.3896432696100192 0 -1 0 I I #
edge $-1 $322 2.724608806737649 $320 29.219104363734473 $311 $404 forward 7 unknown #
coedge $-1 $319 $202 $205 $324 reversed $194 $-1 #
coedge $-1 $202 $318 $400 $405 reversed $194 $-1 #
vertex $-1 $405 $406 #
straight-curve $-1 45.190960948970528 -26.115028050731055 12.392360603402095 0 0.70710677298230462 0.70710678939079052 I I #
vertex $-1 $317 $407 #
straight-curve $-1 18.69646539197371 -36.231096015197551 2.2762924041911958 0 0.70710677298230451 0.70710678939079041 I I #
edge $-1 $408 -36.231096015197551 $207 -30.117745291639665 $205 $409 forward 7 unknown #
point $-1 45.190960948970528 -30.117745291639665 8.3896432696100174 #
point $-1 18.69646539197371 -30.117745291639665 8.3896432696100156 #
edge $-1 $410 1 $410 0 $210 $-1 forward 7 unknown #
vertex $-1 $211 $411 #
ellipse-curve $-1 31.943713170472122 -29.158724359672465 1.3172716363391093 0 -0.70710678939079041 0.70710677298230451 1.5 0 0 1 I I #
point $-1 33.443713170472122 -33.174420653418608 5.3329678369006075 #
loop $-1 $-1 $222 $214 #
plane-surface $-1 0 36.231096015197551 0 0 -1 0 0 0 -1 forward_v I I I I #
coedge $-1 $334 $217 $412 $413 reversed $126 $-1 #
coedge $-1 $217 $333 $337 $414 reversed $126 $-1 #
edge $-1 $415 -72.462192030395116 $338 -63.81660842528531 $217 $416 forward 7 unknown #
coedge $-1 $219 $218 $341 $417 reversed $78 $-1 #
coedge $-1 $225 $220 $334 $414 forward $215 $-1 #
vertex $-1 $414 $418 #
straight-curve $-1 15.971856585236061 30.117745291639643 8.3896432696100156 1 0 0 I I #
coedge $-1 $412 $222 $225 $345 reversed $331 $-1 #
coedge $-1 $222 $412 $336 $417 forward $331 $-1 #
vertex $-1 $223 $419 #
straight-curve $-1 18.69646539197371 36.231096015197551 65.223905048493947 0 0 1 I I #
straight-curve $-1 18.69646539197371 -15.007410754639196 53.514800363022772 0 0.70710677298230451 -0.70710678939079041 I I #
edge $-1 $420 -45.190960948970528 $226 -18.69646539197371 $340 $421 forward 7 unknown #
point $-1 18.69646539197371 36.231096015197551 8.3896432696100174 #
point $-1 18.69646539197371 30.117745291639636 8.3896432696100192 #
edge $-1 $422 1 $422 0 $229 $-1 forward 7 unknown #
vertex $-1 $230 $423 #
ellipse-curve $-1 31.943713170472122 29.158724359672469 1.3172716363391022 0 0.70710678939079041 0.70710677298230451 1.5 0 0 1 I I #
point $-1 33.443713170472122 33.174420653418615 5.3329678369006004 #
plane-surface $-1 54.399853511154518 0 0 -1 0 0 0 0 1 forward_v I I I I #
coedge $-1 $238 $236 $240 $357 reversed $141 $-1 #
edge $-1 $251 -8.3896432696100174 $359 8.3896432696100174 $250 $424 forward 7 unknown #
vertex $-1 $357 $425 #
straight-curve $-1 -54.399853511154518 -36.231096015197551 0 0 0 -1 I I #
edge $-1 $355 -36.231096015197551 $359 36.231096015197551 $353 $426 forward 7 unknown #
straight-curve $-1 0 -36.231096015197551 -8.3896432696100174 -1 0 0 I I #
vertex $-1 $243 $427 #
straight-curve $-1 0 36.231096015197551 -8.3896432696100174 1 0 0 I I #
point $-1 54.399853511154518 36.231096015197551 -8.3896432696100174 #
point $-1 54.399853511154518 -36.231096015197551 -8.3896432696100174 #
straight-curve $-1 -54.399853511154518 0 8.3896432696100174 0 -1 0 I I #
point $-1 -54.399853511154518 36.231096015197551 8.3896432696100174 #
point $-1 -54.399853511154518 -36.231096015197551 8.3896432696100174 #
straight-curve $-1 54.399853511154518 -36.231096015197551 0 0 0 -1 I I #
straight-curve $-1 54.399853511154518 36.231096015197551 0 0 0 -1 I I #
plane-surface $-1 -54.399853511154518 0 0 1 0 0 0 0 -1 forward_v I I I I #
edge $-1 $272 14.642245766240364 $276 17.642245766240364 $275 $428 forward 7 unknown #
edge $-1 $280 -17.642245766240364 $271 -14.642245766240364 $278 $429 forward 7 unknown #
straight-curve $-1 -47.22487655367641 -33.784491532480729 0 0 0 -1 I I #
edge $-1 $375 -8.3896432696100174 $373 8.3896432696100174 $282 $430 forward 7 unknown #
vertex $-1 $372 $431 #
straight-curve $-1 -25.406182516207732 -30.784491532480729 -8.3896432696100174 1 0 0 I I #
vertex $-1 $283 $432 #
straight-curve $-1 -25.406182516207732 -30.784491532480729 8.3896432696100174 -1 0 0 I I #
point $-1 -47.22487655367641 -30.784491532480729 8.3896432696100174 #
point $-1 -47.22487655367641 -30.784491532480729 -8.3896432696100174 #
point $-1 -47.22487655367641 -33.784491532480729 -8.3896432696100174 #
point $-1 -47.22487655367641 -33.784491532480729 8.3896432696100174 #
straight-curve $-1 -54.399853511154518 0 8.3896432696100174 0 -1 0 I I #
straight-curve $-1 -54.399853511154518 0 -8.3896432696100174 0 1 0 I I #
plane-surface $-1 0 36.231096015197551 0 0 -1 0 0 0 -1 forward_v I I I I #
coedge $-1 $291 $290 $296 $392 reversed $103 $-1 #
coedge $-1 $433 $300 $291 $386 forward $288 $-1 #
edge $-1 $302 45.190960948970528 $434 54.399853511154518 $291 $435 forward 7 unknown #
straight-curve $-1 24.897703615031261 -36.231096015197551 4.6292949056018857 1 0 0 I I #
coedge $-1 $293 $304 $295 $391 forward $305 $-1 #
straight-curve $-1 24.897703615031261 36.231096015197551 4.6292949056018857 -1 0 0 I I #
coedge $-1 $296 $295 $433 $436 reversed $179 $-1 #
edge $-1 $437 -8.3896432696100174 $298 -4.6292949056018857 $295 $438 forward 7 unknown #
edge $-1 $434 -8.3896432696100174 $297 -4.6292949056018857 $296 $439 forward 7 unknown #
point $-1 54.399853511154518 -36.231096015197551 4.6292949056018857 #
point $-1 54.399853511154518 36.231096015197551 4.6292949056018857 #
coedge $-1 $300 $433 $304 $398 forward $288 $-1 #
straight-curve $-1 45.190960948970528 0 8.3896432696100174 0 -1 0 I I #
point $-1 45.190960948970528 -36.231096015197551 8.3896432696100192 #
edge $-1 $437 -54.399853511154518 $306 -45.190960948970528 $304 $440 forward 7 unknown #
point $-1 45.190960948970528 36.231096015197551 8.3896432696100192 #
coedge $-1 $312 $311 $319 $405 forward $111 $-1 #
edge $-1 $315 18.69646539197371 $408 45.190960948970528 $312 $441 forward 7 unknown #
straight-curve $-1 18.69646539197371 -36.231096015197551 39.604651069078159 0 0 -1 I I #
point $-1 18.69646539197371 -36.231096015197551 8.3896432696100174 #
straight-curve $-1 15.971856585236061 -36.231096015197551 2.2762924041911958 1 0 0 I I #
edge $-1 $320 -37.328358664886963 $408 -31.21500779946814 $400 $442 forward 7 unknown #
point $-1 45.190960948970535 -36.231096015197551 2.2762924041911958 #
point $-1 18.69646539197371 -36.231096015197551 2.2762924041911958 #
vertex $-1 $324 $443 #
straight-curve $-1 45.190960948970528 0 8.3896432696100174 0 1 0 I I #
vertex $-1 $327 $444 #
point $-1 33.443713170472122 -29.158724359672465 1.3172716363391093 #
coedge $-1 $341 $340 $333 $413 forward $331 $-1 #
edge $-1 $420 56.834261778883928 $415 62.947612644302772 $412 $445 forward 7 unknown #
edge $-1 $338 30.11774529163964 $420 36.231096015197551 $337 $446 forward 7 unknown #
vertex $-1 $413 $447 #
straight-curve $-1 45.190960948970535 -15.007410754639196 53.514800363022772 0 -0.70710677298230451 0.70710678939079041 I I #
edge $-1 $415 -29.219104363734473 $342 -2.724608806737649 $341 $448 forward 7 unknown #
point $-1 45.190960948970528 30.11774529163964 8.3896432696100174 #
point $-1 18.69646539197371 36.231096015197544 2.2762924041911745 #
vertex $-1 $345 $449 #
straight-curve $-1 0 36.231096015197551 8.3896432696100174 -1 0 0 I I #
vertex $-1 $348 $450 #
point $-1 33.443713170472122 29.158724359672469 1.3172716363391022 #
straight-curve $-1 -54.399853511154518 36.231096015197551 0 0 0 -1 I I #
point $-1 -54.399853511154518 -36.231096015197551 -8.3896432696100174 #
straight-curve $-1 -54.399853511154518 0 -8.3896432696100174 0 1 0 I I #
point $-1 -54.399853511154518 36.231096015197551 -8.3896432696100174 #
straight-curve $-1 -47.22487655367641 -16.142245766240364 -8.3896432696100174 0 -1 0 I I #
straight-curve $-1 -47.22487655367641 -16.142245766240364 8.3896432696100174 0 1 0 I I #
straight-curve $-1 -54.399853511154518 -30.784491532480729 0 0 0 -1 I I #
point $-1 -54.399853511154518 -30.784491532480729 -8.3896432696100174 #
point $-1 -54.399853511154518 -30.784491532480729 8.3896432696100174 #
coedge $-1 $395 $385 $390 $436 forward $288 $-1 #
vertex $-1 $436 $451 #
straight-curve $-1 0 -36.231096015197551 8.3896432696100174 1 0 0 I I #
edge $-1 $434 -36.231096015197551 $437 36.231096015197551 $390 $452 forward 7 unknown #
vertex $-1 $436 $453 #
straight-curve $-1 54.399853511154518 36.231096015197551 0 0 0 -1 I I #
straight-curve $-1 54.399853511154518 -36.231096015197551 0 0 0 -1 I I #
straight-curve $-1 0 36.231096015197551 8.3896432696100174 -1 0 0 I I #
straight-curve $-1 0 -36.231096015197551 8.3896432696100174 1 0 0 I I #
straight-curve $-1 45.190960948970535 -36.231096015197551 39.604651069078159 0 0 1 I I #
point $-1 45.190960948970528 -36.231096015197551 8.3896432696100192 #
point $-1 31.943713170472122 -28.098064175586277 0.25661147686565233 #
straight-curve $-1 45.190960948970535 36.231096015197551 65.223905048493947 0 0 -1 I I #
straight-curve $-1 45.190960948970528 0 8.3896432696100174 0 1 0 I I #
point $-1 45.190960948970535 36.231096015197544 2.2762924041911745 #
straight-curve $-1 15.971856585236061 36.231096015197551 2.2762924041911674 -1 0 0 I I #
point $-1 45.190960948970528 36.231096015197551 8.3896432696100192 #
point $-1 31.943713170472122 28.098064175586281 0.25661147686564523 #
point $-1 54.399853511154518 -36.231096015197551 8.3896432696100174 #
straight-curve $-1 54.399853511154518 0 8.3896432696100174 0 1 0 I I #
point $-1 54.399853511154518 36.231096015197551 8.3896432696100174 #
End-of-ACIS-data 