500 0 15 0           
7 Unknown 11 ACIS 5.0 NT 24 Thu Mar 25 15:51:51 1999 
-1 9.9999999999999995e-007 1e-010 
body $-1 $15 $-1 $16 #
body $-1 $17 $-1 $18 #
body $-1 $19 $-1 $20 #
body $-1 $21 $-1 $22 #
body $-1 $23 $-1 $24 #
body $-1 $25 $-1 $26 #
body $-1 $27 $-1 $28 #
body $-1 $29 $-1 $30 #
body $-1 $31 $-1 $32 #
body $-1 $33 $-1 $34 #
body $-1 $35 $-1 $36 #
body $-1 $37 $-1 $38 #
body $-1 $39 $-1 $40 #
body $-1 $41 $-1 $42 #
body $-1 $43 $-1 $44 #
lump $-1 $-1 $45 $0 #
transform $-1 1 0 0 0 1 0 0 0 1 46.258735923337504 27.610960942064722 10.669070127624082 1 rotate no_reflect no_shear #
lump $-1 $-1 $46 $1 #
transform $-1 1 0 0 0 1 0 0 0 1 46.258735923337504 27.610960942064722 10.669070127624082 1 rotate no_reflect no_shear #
lump $-1 $-1 $47 $2 #
transform $-1 1 0 0 0 1 0 0 0 1 46.258735923337504 27.610960942064722 10.669070127624082 1 rotate no_reflect no_shear #
lump $-1 $-1 $48 $3 #
transform $-1 1 0 0 0 1 0 0 0 1 46.258735923337504 27.610960942064722 10.669070127624082 1 rotate no_reflect no_shear #
lump $-1 $-1 $49 $4 #
transform $-1 1 0 0 0 1 0 0 0 1 46.258735923337504 27.610960942064722 10.669070127624082 1 rotate no_reflect no_shear #
lump $-1 $-1 $50 $5 #
transform $-1 1 0 0 0 1 0 0 0 1 46.258735923337504 27.610960942064722 10.669070127624082 1 rotate no_reflect no_shear #
lump $-1 $-1 $51 $6 #
transform $-1 1 0 0 0 1 0 0 0 1 46.258735923337504 27.610960942064722 10.669070127624082 1 rotate no_reflect no_shear #
lump $-1 $-1 $52 $7 #
transform $-1 1 0 0 0 1 0 0 0 1 46.258735923337504 27.610960942064722 10.669070127624082 1 rotate no_reflect no_shear #
lump $-1 $-1 $53 $8 #
transform $-1 1 0 0 0 1 0 0 0 1 46.258735923337504 27.610960942064722 10.669070127624082 1 rotate no_reflect no_shear #
lump $-1 $-1 $54 $9 #
transform $-1 1 0 0 0 1 0 0 0 1 46.258735923337504 27.610960942064722 10.669070127624082 1 rotate no_reflect no_shear #
lump $-1 $-1 $55 $10 #
transform $-1 1 0 0 0 1 0 0 0 1 46.258735923337504 27.610960942064722 10.669070127624082 1 rotate no_reflect no_shear #
lump $-1 $-1 $56 $11 #
transform $-1 1 0 0 0 1 0 0 0 1 46.258735923337504 27.610960942064722 10.669070127624082 1 rotate no_reflect no_shear #
lump $-1 $-1 $57 $12 #
transform $-1 1 0 0 0 1 0 0 0 1 46.258735923337504 27.610960942064722 10.669070127624082 1 rotate no_reflect no_shear #
lump $-1 $-1 $58 $13 #
transform $-1 1 0 0 0 1 0 0 0 1 46.258735923337504 27.610960942064722 10.669070127624082 1 rotate no_reflect no_shear #
lump $-1 $-1 $59 $14 #
transform $-1 1 0 0 0 1 0 0 0 1 46.258735923337504 27.610960942064722 10.669070127624082 1 rotate no_reflect no_shear #
shell $-1 $-1 $-1 $60 $-1 $15 #
shell $-1 $-1 $-1 $61 $-1 $17 #
shell $-1 $-1 $-1 $62 $-1 $19 #
shell $-1 $-1 $-1 $63 $-1 $21 #
shell $-1 $-1 $-1 $64 $-1 $23 #
shell $-1 $-1 $-1 $65 $-1 $25 #
shell $-1 $-1 $-1 $66 $-1 $27 #
shell $-1 $-1 $-1 $67 $-1 $29 #
shell $-1 $-1 $-1 $68 $-1 $31 #
shell $-1 $-1 $-1 $69 $-1 $33 #
shell $-1 $-1 $-1 $70 $-1 $35 #
shell $-1 $-1 $-1 $71 $-1 $37 #
shell $-1 $-1 $-1 $72 $-1 $39 #
shell $-1 $-1 $-1 $73 $-1 $41 #
shell $-1 $-1 $-1 $74 $-1 $43 #
face $-1 $75 $76 $45 $-1 $77 forward single #
face $-1 $78 $79 $46 $-1 $80 forward single #
face $-1 $81 $82 $47 $-1 $83 forward single #
face $-1 $84 $85 $48 $-1 $86 reversed single #
face $-1 $87 $88 $49 $-1 $89 forward single #
face $-1 $90 $91 $50 $-1 $92 forward single #
face $-1 $93 $94 $51 $-1 $95 forward single #
face $-1 $96 $97 $52 $-1 $98 reversed single #
face $-1 $99 $100 $53 $-1 $101 forward single #
face $-1 $102 $103 $54 $-1 $104 forward single #
face $-1 $105 $106 $55 $-1 $107 forward single #
face $-1 $108 $109 $56 $-1 $110 reversed single #
face $-1 $111 $112 $57 $-1 $113 forward single #
face $-1 $114 $115 $58 $-1 $116 forward single #
face $-1 $117 $118 $59 $-1 $119 forward single #
face $-1 $120 $121 $45 $-1 $122 reversed single #
loop $-1 $-1 $123 $60 #
plane-surface $-1 0 0 10.669070127624082 0 0 1 1 0 0 forward_v I I I I #
face $-1 $124 $125 $46 $-1 $126 reversed single #
loop $-1 $-1 $127 $61 #
plane-surface $-1 0 -27.610960942064722 0 0 1 0 0 0 1 forward_v I I I I #
face $-1 $128 $129 $47 $-1 $130 reversed single #
loop $-1 $-1 $131 $62 #
plane-surface $-1 0 27.610960942064722 0 0 -1 0 0 0 -1 forward_v I I I I #
face $-1 $132 $133 $48 $-1 $134 reversed single #
loop $-1 $-1 $135 $63 #
plane-surface $-1 -93.908757152652242 -15.107723746435578 80.93520609194816 0 1 0 -0.51503808176128008 0 0.85716729658548041 forward_v I I I I #
face $-1 $136 $137 $49 $-1 $138 forward single #
loop $-1 $139 $140 $64 #
cone-surface $-1 -38.328452671670277 -13.876899740039157 5.4676583981621691 0.51503808176128008 0 -0.85716729658548041 0.4285836482927402 0 0.25751904088064004 1 I I 0 1 0.5 forward I I I I #
face $-1 $141 $142 $50 $-1 $143 forward single #
loop $-1 $144 $145 $65 #
cone-surface $-1 -38.328452671670277 -12.030663730444523 5.4676583981621691 0.51503808176128008 0 -0.85716729658548041 0.4285836482927402 0 0.25751904088064004 1 I I 0 1 0.5 forward I I I I #
face $-1 $146 $147 $51 $-1 $148 forward single #
loop $-1 $149 $150 $66 #
cone-surface $-1 -38.328452671670277 -10.184427720849889 5.4676583981621691 0.51503808176128008 0 -0.85716729658548041 0.4285836482927402 0 0.25751904088064004 1 I I 0 1 0.5 forward I I I I #
face $-1 $151 $152 $52 $-1 $153 reversed single #
loop $-1 $-1 $154 $67 #
plane-surface $-1 -93.908757152652242 2.6645352591003757e-015 80.93520609194816 0 1 0 -0.51503808176128008 0 0.85716729658548041 forward_v I I I I #
face $-1 $155 $156 $53 $-1 $157 forward single #
loop $-1 $158 $159 $68 #
cone-surface $-1 -38.328452671670277 1.2308240063964249 5.4676583981621691 0.51503808176128008 0 -0.85716729658548041 0.4285836482927402 0 0.25751904088064004 1 I I 0 1 0.5 forward I I I I #
face $-1 $160 $161 $54 $-1 $162 forward single #
loop $-1 $163 $164 $69 #
cone-surface $-1 -38.328452671670277 3.0770600159910586 5.4676583981621691 0.51503808176128008 0 -0.85716729658548041 0.4285836482927402 0 0.25751904088064004 1 I I 0 1 0.5 forward I I I I #
face $-1 $165 $166 $55 $-1 $167 forward single #
loop $-1 $168 $169 $70 #
cone-surface $-1 -38.328452671670277 4.9232960255856923 5.4676583981621691 0.51503808176128008 0 -0.85716729658548041 0.4285836482927402 0 0.25751904088064004 1 I I 0 1 0.5 forward I I I I #
face $-1 $170 $171 $56 $-1 $172 reversed single #
loop $-1 $-1 $173 $71 #
plane-surface $-1 28.049403304202762 0.8921173098152817 130.72608776052382 0 -1 0 -0.6018150307709319 0 -0.79863550430605224 forward_v I I I I #
face $-1 $174 $175 $57 $-1 $176 forward single #
loop $-1 $177 $178 $72 #
cone-surface $-1 39.553847287601506 -4.8100918582064978 5.389832434152086 -0.6018150307709319 0 -0.79863550430605224 0.39931775215302612 0 -0.30090751538546595 1 I I 0 1 0.5 forward I I I I #
face $-1 $179 $180 $58 $-1 $181 forward single #
loop $-1 $182 $183 $73 #
cone-surface $-1 39.553847287601506 -2.6717634201983316 5.389832434152086 -0.6018150307709319 0 -0.79863550430605224 0.39931775215302612 0 -0.30090751538546595 1 I I 0 1 0.5 forward I I I I #
face $-1 $184 $185 $59 $-1 $186 forward single #
loop $-1 $187 $188 $74 #
cone-surface $-1 39.553847287601506 -0.53343498219016539 5.389832434152086 -0.6018150307709319 0 -0.79863550430605224 0.39931775215302612 0 -0.30090751538546595 1 I I 0 1 0.5 forward I I I I #
face $-1 $189 $190 $45 $-1 $191 reversed single #
loop $-1 $-1 $192 $75 #
plane-surface $-1 0 0 -10.669070127624082 0 0 1 1 0 0 forward_v I I I I #
coedge $-1 $193 $194 $195 $196 forward $76 $-1 #
face $-1 $197 $198 $46 $-1 $199 reversed single #
loop $-1 $-1 $200 $78 #
plane-surface $-1 0 0 -10.669070127624082 0 0 1 1 0 0 forward_v I I I I #
coedge $-1 $201 $202 $203 $204 forward $79 $-1 #
face $-1 $205 $206 $47 $-1 $207 forward single #
loop $-1 $-1 $208 $81 #
plane-surface $-1 -46.258735923337504 0 0 1 0 0 0 0 -1 forward_v I I I I #
coedge $-1 $209 $210 $211 $212 forward $82 $-1 #
face $-1 $213 $214 $48 $-1 $215 reversed single #
loop $-1 $-1 $216 $84 #
plane-surface $-1 -46.258735923337511 -12.030663730444523 1.6322548622104449 -0.51503808176128008 0 0.85716729658548041 0.85716729658548041 0 0.51503808176128008 forward_v I I I I #
coedge $-1 $217 $218 $219 $220 reversed $85 $-1 #
face $-1 $-1 $221 $49 $-1 $222 forward single #
loop $-1 $223 $224 $87 #
cone-surface $-1 -37.789302879425222 -13.876899740039157 4.5703624772606961 0.51503808176128008 0 -0.85716729658548041 0.2142918241463701 0 0.12875952044032002 1 I I -0.70710678118654746 0.70710678118654746 0.25 forward I I I I #
loop $-1 $-1 $225 $64 #
coedge $-1 $140 $140 $226 $227 reversed $88 $-1 #
face $-1 $-1 $228 $50 $-1 $229 forward single #
loop $-1 $230 $231 $90 #
cone-surface $-1 -37.789302879425222 -12.030663730444523 4.5703624772606961 0.51503808176128008 0 -0.85716729658548041 0.2142918241463701 0 0.12875952044032002 1 I I -0.70710678118654746 0.70710678118654746 0.25 forward I I I I #
loop $-1 $-1 $232 $65 #
coedge $-1 $145 $145 $233 $234 reversed $91 $-1 #
face $-1 $-1 $235 $51 $-1 $236 forward single #
loop $-1 $237 $238 $93 #
cone-surface $-1 -37.789302879425222 -10.184427720849889 4.5703624772606961 0.51503808176128008 0 -0.85716729658548041 0.2142918241463701 0 0.12875952044032002 1 I I -0.70710678118654746 0.70710678118654746 0.25 forward I I I I #
loop $-1 $-1 $239 $66 #
coedge $-1 $150 $150 $240 $241 reversed $94 $-1 #
face $-1 $242 $243 $52 $-1 $244 reversed single #
loop $-1 $-1 $245 $96 #
plane-surface $-1 -46.258735923337511 3.0770600159910586 1.6322548622104449 -0.51503808176128008 0 0.85716729658548041 0.85716729658548041 0 0.51503808176128008 forward_v I I I I #
coedge $-1 $246 $247 $248 $249 reversed $97 $-1 #
face $-1 $-1 $250 $53 $-1 $251 forward single #
loop $-1 $252 $253 $99 #
cone-surface $-1 -37.789302879425222 1.2308240063964249 4.5703624772606961 0.51503808176128008 0 -0.85716729658548041 0.2142918241463701 0 0.12875952044032002 1 I I -0.70710678118654746 0.70710678118654746 0.25 forward I I I I #
loop $-1 $-1 $254 $68 #
coedge $-1 $159 $159 $255 $256 reversed $100 $-1 #
face $-1 $-1 $257 $54 $-1 $258 forward single #
loop $-1 $259 $260 $102 #
cone-surface $-1 -37.789302879425222 3.0770600159910586 4.5703624772606961 0.51503808176128008 0 -0.85716729658548041 0.2142918241463701 0 0.12875952044032002 1 I I -0.70710678118654746 0.70710678118654746 0.25 forward I I I I #
loop $-1 $-1 $261 $69 #
coedge $-1 $164 $164 $262 $263 reversed $103 $-1 #
face $-1 $-1 $264 $55 $-1 $265 forward single #
loop $-1 $266 $267 $105 #
cone-surface $-1 -37.789302879425222 4.9232960255856923 4.5703624772606961 0.51503808176128008 0 -0.85716729658548041 0.2142918241463701 0 0.12875952044032002 1 I I -0.70710678118654746 0.70710678118654746 0.25 forward I I I I #
loop $-1 $-1 $268 $70 #
coedge $-1 $169 $169 $269 $270 reversed $106 $-1 #
face $-1 $271 $272 $56 $-1 $273 reversed single #
loop $-1 $-1 $274 $108 #
plane-surface $-1 -27.629001862052782 -2.6717634201983316 56.838349975133539 0.6018150307709319 0 0.79863550430605224 0.79863550430605224 0 -0.6018150307709319 forward_v I I I I #
coedge $-1 $275 $276 $277 $278 reversed $109 $-1 #
face $-1 $-1 $279 $57 $-1 $280 forward single #
loop $-1 $281 $282 $111 #
cone-surface $-1 39.008022525128105 -4.8100918582064978 4.6654985239766233 -0.6018150307709319 0 -0.79863550430605224 0.19965887607651306 0 -0.15045375769273298 1 I I -0.70710678118654746 0.70710678118654746 0.25 forward I I I I #
loop $-1 $-1 $283 $72 #
coedge $-1 $178 $178 $284 $285 reversed $112 $-1 #
face $-1 $-1 $286 $58 $-1 $287 forward single #
loop $-1 $288 $289 $114 #
cone-surface $-1 39.008022525128105 -2.6717634201983316 4.6654985239766233 -0.6018150307709319 0 -0.79863550430605224 0.19965887607651306 0 -0.15045375769273298 1 I I -0.70710678118654746 0.70710678118654746 0.25 forward I I I I #
loop $-1 $-1 $290 $73 #
coedge $-1 $183 $183 $291 $292 reversed $115 $-1 #
face $-1 $-1 $293 $59 $-1 $294 forward single #
loop $-1 $295 $296 $117 #
cone-surface $-1 39.008022525128105 -0.53343498219016539 4.6654985239766233 -0.6018150307709319 0 -0.79863550430605224 0.19965887607651306 0 -0.15045375769273298 1 I I -0.70710678118654746 0.70710678118654746 0.25 forward I I I I #
loop $-1 $-1 $297 $74 #
coedge $-1 $188 $188 $298 $299 reversed $118 $-1 #
face $-1 $300 $301 $45 $-1 $302 reversed single #
loop $-1 $-1 $303 $120 #
plane-surface $-1 0 -27.610960942064722 0 0 1 0 0 0 1 forward_v I I I I #
coedge $-1 $304 $305 $306 $307 forward $121 $-1 #
coedge $-1 $308 $123 $309 $310 forward $76 $-1 #
coedge $-1 $123 $308 $311 $312 forward $76 $-1 #
coedge $-1 $313 $314 $123 $196 reversed $315 $-1 #
edge $-1 $316 -27.610960942064722 $317 27.610960942064722 $195 $318 forward 7 unknown #
face $-1 $319 $320 $46 $-1 $321 forward single #
loop $-1 $-1 $322 $124 #
plane-surface $-1 46.258735923337504 0 0 -1 0 0 0 0 1 forward_v I I I I #
coedge $-1 $323 $324 $325 $326 forward $125 $-1 #
coedge $-1 $325 $127 $322 $327 reversed $79 $-1 #
coedge $-1 $127 $325 $328 $329 reversed $79 $-1 #
coedge $-1 $330 $331 $127 $204 reversed $320 $-1 #
edge $-1 $332 -46.258735923337504 $333 46.258735923337504 $203 $334 forward 7 unknown #
face $-1 $335 $336 $47 $-1 $337 reversed single #
loop $-1 $-1 $338 $128 #
plane-surface $-1 0 33.862579539879292 -5.1797103058029066 0 0 1 1 0 0 forward_v I I I I #
coedge $-1 $339 $340 $209 $341 forward $129 $-1 #
coedge $-1 $342 $131 $208 $341 reversed $82 $-1 #
coedge $-1 $131 $342 $343 $344 reversed $82 $-1 #
coedge $-1 $338 $345 $131 $212 reversed $206 $-1 #
edge $-1 $346 -46.258735923337504 $347 46.258735923337504 $211 $348 forward 7 unknown #
face $-1 $349 $350 $48 $-1 $351 reversed single #
loop $-1 $-1 $352 $132 #
plane-surface $-1 -93.908757152652242 -8.9536037144534681 80.93520609194816 0 -1 0 0.51503808176128008 0 -0.85716729658548041 forward_v I I I I #
coedge $-1 $353 $354 $355 $356 reversed $133 $-1 #
coedge $-1 $218 $135 $357 $358 reversed $85 $-1 #
coedge $-1 $135 $217 $353 $359 reversed $85 $-1 #
coedge $-1 $355 $360 $135 $220 forward $361 $-1 #
edge $-1 $362 0.69564265298861727 $363 15.735428612713633 $219 $364 forward 7 unknown #
loop $-1 $-1 $226 $136 #
plane-surface $-1 -46.258735923337511 -12.030663730444523 1.6322548622104449 -0.51503808176128008 0 0.85716729658548041 0.85716729658548041 0 0.51503808176128008 forward_v I I I I #
loop $-1 $-1 $365 $87 #
coedge $-1 $224 $224 $225 $366 reversed $137 $-1 #
coedge $-1 $225 $225 $224 $366 forward $139 $-1 #
coedge $-1 $226 $226 $140 $227 forward $221 $-1 #
edge $-1 $367 0 $367 6.2831853071796004 $226 $368 forward 7 unknown #
loop $-1 $-1 $233 $141 #
plane-surface $-1 -46.258735923337511 -12.030663730444523 1.6322548622104449 -0.51503808176128008 0 0.85716729658548041 0.85716729658548041 0 0.51503808176128008 forward_v I I I I #
loop $-1 $-1 $369 $90 #
coedge $-1 $231 $231 $232 $370 reversed $142 $-1 #
coedge $-1 $232 $232 $231 $370 forward $144 $-1 #
coedge $-1 $233 $233 $145 $234 forward $228 $-1 #
edge $-1 $371 0 $371 6.2831853071796004 $233 $372 forward 7 unknown #
loop $-1 $-1 $240 $146 #
plane-surface $-1 -46.258735923337511 -12.030663730444523 1.6322548622104449 -0.51503808176128008 0 0.85716729658548041 0.85716729658548041 0 0.51503808176128008 forward_v I I I I #
loop $-1 $-1 $373 $93 #
coedge $-1 $238 $238 $239 $374 reversed $147 $-1 #
coedge $-1 $239 $239 $238 $374 forward $149 $-1 #
coedge $-1 $240 $240 $150 $241 forward $235 $-1 #
edge $-1 $375 0 $375 6.2831853071796004 $240 $376 forward 7 unknown #
face $-1 $377 $378 $52 $-1 $379 forward single #
loop $-1 $-1 $380 $151 #
plane-surface $-1 -93.908757152652242 6.1541200319821145 80.93520609194816 0 -1 0 0.51503808176128008 0 -0.85716729658548041 forward_v I I I I #
coedge $-1 $381 $382 $383 $384 reversed $152 $-1 #
coedge $-1 $247 $154 $385 $386 reversed $97 $-1 #
coedge $-1 $154 $246 $381 $387 reversed $97 $-1 #
coedge $-1 $383 $388 $154 $249 forward $378 $-1 #
edge $-1 $389 0.69564265298861727 $390 15.735428612713633 $248 $391 forward 7 unknown #
loop $-1 $-1 $255 $155 #
plane-surface $-1 -46.258735923337511 3.0770600159910586 1.6322548622104449 -0.51503808176128008 0 0.85716729658548041 0.85716729658548041 0 0.51503808176128008 forward_v I I I I #
loop $-1 $-1 $392 $99 #
coedge $-1 $253 $253 $254 $393 reversed $156 $-1 #
coedge $-1 $254 $254 $253 $393 forward $158 $-1 #
coedge $-1 $255 $255 $159 $256 forward $250 $-1 #
edge $-1 $394 0 $394 6.2831853071796004 $255 $395 forward 7 unknown #
loop $-1 $-1 $262 $160 #
plane-surface $-1 -46.258735923337511 3.0770600159910586 1.6322548622104449 -0.51503808176128008 0 0.85716729658548041 0.85716729658548041 0 0.51503808176128008 forward_v I I I I #
loop $-1 $-1 $396 $102 #
coedge $-1 $260 $260 $261 $397 reversed $161 $-1 #
coedge $-1 $261 $261 $260 $397 forward $163 $-1 #
coedge $-1 $262 $262 $164 $263 forward $257 $-1 #
edge $-1 $398 0 $398 6.2831853071796004 $262 $399 forward 7 unknown #
loop $-1 $-1 $269 $165 #
plane-surface $-1 -46.258735923337511 3.0770600159910586 1.6322548622104449 -0.51503808176128008 0 0.85716729658548041 0.85716729658548041 0 0.51503808176128008 forward_v I I I I #
loop $-1 $-1 $400 $105 #
coedge $-1 $267 $267 $268 $401 reversed $166 $-1 #
coedge $-1 $268 $268 $267 $401 forward $168 $-1 #
coedge $-1 $269 $269 $169 $270 forward $264 $-1 #
edge $-1 $402 0 $402 6.2831853071796004 $269 $403 forward 7 unknown #
face $-1 $404 $405 $56 $-1 $406 forward single #
loop $-1 $-1 $407 $170 #
plane-surface $-1 28.049403304202762 -6.2356441502119448 130.72608776052382 0 1 0 0.6018150307709319 0 0.79863550430605224 forward_v I I I I #
coedge $-1 $408 $409 $410 $411 reversed $171 $-1 #
coedge $-1 $276 $173 $412 $413 reversed $109 $-1 #
coedge $-1 $173 $275 $408 $414 reversed $109 $-1 #
coedge $-1 $410 $415 $173 $278 forward $405 $-1 #
edge $-1 $416 -32.234034271236126 $417 -19.614999009325469 $277 $418 forward 7 unknown #
loop $-1 $-1 $284 $174 #
plane-surface $-1 -27.629001862052782 -2.6717634201983316 56.838349975133539 0.6018150307709319 0 0.79863550430605224 0.79863550430605224 0 -0.6018150307709319 forward_v I I I I #
loop $-1 $-1 $419 $111 #
coedge $-1 $282 $282 $283 $420 reversed $175 $-1 #
coedge $-1 $283 $283 $282 $420 forward $177 $-1 #
coedge $-1 $284 $284 $178 $285 forward $279 $-1 #
edge $-1 $421 0 $421 6.2831853071796004 $284 $422 forward 7 unknown #
loop $-1 $-1 $291 $179 #
plane-surface $-1 -27.629001862052782 -2.6717634201983316 56.838349975133539 0.6018150307709319 0 0.79863550430605224 0.79863550430605224 0 -0.6018150307709319 forward_v I I I I #
loop $-1 $-1 $423 $114 #
coedge $-1 $289 $289 $290 $424 reversed $180 $-1 #
coedge $-1 $290 $290 $289 $424 forward $182 $-1 #
coedge $-1 $291 $291 $183 $292 forward $286 $-1 #
edge $-1 $425 0 $425 6.2831853071796004 $291 $426 forward 7 unknown #
loop $-1 $-1 $298 $184 #
plane-surface $-1 -27.629001862052782 -2.6717634201983316 56.838349975133539 0.6018150307709319 0 0.79863550430605224 0.79863550430605224 0 -0.6018150307709319 forward_v I I I I #
loop $-1 $-1 $427 $117 #
coedge $-1 $296 $296 $297 $428 reversed $185 $-1 #
coedge $-1 $297 $297 $296 $428 forward $187 $-1 #
coedge $-1 $298 $298 $188 $299 forward $293 $-1 #
edge $-1 $429 0 $429 6.2831853071796004 $298 $430 forward 7 unknown #
face $-1 $431 $432 $45 $-1 $433 reversed single #
loop $-1 $-1 $434 $189 #
plane-surface $-1 -46.258735923337504 0 0 1 0 0 0 0 -1 forward_v I I I I #
coedge $-1 $435 $311 $436 $437 forward $190 $-1 #
coedge $-1 $438 $192 $435 $439 forward $121 $-1 #
coedge $-1 $192 $438 $440 $441 forward $121 $-1 #
coedge $-1 $314 $313 $192 $307 reversed $315 $-1 #
edge $-1 $442 -27.610960942064722 $443 27.610960942064722 $306 $444 forward 7 unknown #
coedge $-1 $194 $193 $445 $446 forward $76 $-1 #
coedge $-1 $447 $448 $193 $310 reversed $432 $-1 #
edge $-1 $317 -46.258735923337504 $449 46.258735923337504 $309 $450 forward 7 unknown #
coedge $-1 $303 $451 $194 $312 reversed $190 $-1 #
edge $-1 $452 -46.258735923337504 $316 46.258735923337504 $311 $453 forward 7 unknown #
coedge $-1 $306 $195 $451 $454 forward $315 $-1 #
coedge $-1 $195 $306 $447 $455 reversed $315 $-1 #
loop $-1 $-1 $313 $431 #
vertex $-1 $196 $456 #
vertex $-1 $196 $457 #
straight-curve $-1 46.258735923337504 0 10.669070127624082 0 1 0 I I #
face $-1 $458 $459 $46 $-1 $460 reversed single #
loop $-1 $-1 $331 $197 #
plane-surface $-1 0 -33.862579539879292 -5.1797103058029066 0 0 1 1 0 0 forward_v I I I I #
coedge $-1 $461 $462 $201 $327 forward $198 $-1 #
coedge $-1 $463 $200 $462 $464 forward $125 $-1 #
coedge $-1 $200 $463 $465 $466 forward $125 $-1 #
coedge $-1 $202 $201 $200 $326 reversed $79 $-1 #
edge $-1 $467 -46.258735923337504 $468 46.258735923337504 $200 $469 forward 7 unknown #
edge $-1 $468 -10.669070127624082 $333 -5.1797103058029066 $322 $470 forward 7 unknown #
coedge $-1 $465 $471 $202 $329 forward $472 $-1 #
edge $-1 $332 5.1797103058029066 $467 10.669070127624082 $328 $473 forward 7 unknown #
coedge $-1 $474 $203 $471 $475 forward $320 $-1 #
coedge $-1 $203 $474 $461 $476 forward $320 $-1 #
vertex $-1 $329 $477 #
vertex $-1 $476 $478 #
straight-curve $-1 0 -27.610960942064722 -5.1797103058029066 1 0 0 I I #
face $-1 $479 $480 $47 $-1 $481 reversed single #
loop $-1 $-1 $482 $205 #
plane-surface $-1 0 40.114198137693862 -7.9243902167134941 0 -1 0 0 0 -1 forward_v I I I I #
coedge $-1 $483 $211 $484 $485 forward $206 $-1 #
coedge $-1 $486 $208 $345 $487 reversed $129 $-1 #
coedge $-1 $208 $486 $488 $489 reversed $129 $-1 #
edge $-1 $490 -10.669070127624082 $347 -5.1797103058029066 $208 $491 forward 7 unknown #
coedge $-1 $210 $209 $492 $493 reversed $82 $-1 #
coedge $-1 $494 $484 $210 $344 forward $495 $-1 #
edge $-1 $346 5.1797103058029066 $496 10.669070127624082 $343 $497 forward 7 unknown #
coedge $-1 $211 $483 $339 $487 forward $206 $-1 #
vertex $-1 $344 $498 #
vertex $-1 $487 $499 #
straight-curve $-1 0 27.610960942064722 -5.1797103058029066 -1 0 0 I I #
face $-1 $-1 $361 $48 $-1 $500 forward single #
loop $-1 $-1 $501 $213 #
plane-surface $-1 -46.258735923337504 0 0 1 0 0 0 0 -1 forward_v I I I I #
coedge $-1 $502 $503 $504 $505 reversed $214 $-1 #
coedge $-1 $506 $216 $218 $359 forward $133 $-1 #
coedge $-1 $216 $506 $502 $507 forward $133 $-1 #
coedge $-1 $504 $219 $216 $356 forward $361 $-1 #
edge $-1 $363 -9.0923918812133167 $508 -2.9382718492312065 $355 $509 forward 7 unknown #
coedge $-1 $510 $511 $217 $358 forward $350 $-1 #
edge $-1 $512 -38.835348183763628 $362 -29.798532918349999 $357 $513 forward 7 unknown #
edge $-1 $363 -17.545916671851455 $512 -8.2634070795339233e-015 $218 $514 forward 7 unknown #
coedge $-1 $219 $504 $510 $515 forward $361 $-1 #
loop $-1 $-1 $504 $349 #
vertex $-1 $358 $516 #
vertex $-1 $220 $517 #
straight-curve $-1 -46.954378576326121 -15.107723746435578 10.669070127624082 1 0 0 I I #
coedge $-1 $365 $365 $-1 $518 reversed $223 $-1 #
edge $-1 $519 0 $519 6.2831853071796004 $224 $520 forward 7 unknown #
vertex $-1 $227 $521 #
ellipse-curve $-1 -38.738842943475007 -13.876899740039157 6.1506624949172615 -0.51503808176128008 0 0.85716729658548041 0.4285836482927402 0 0.25751904088064004 1 I I #
coedge $-1 $369 $369 $-1 $522 reversed $230 $-1 #
edge $-1 $523 0 $523 6.2831853071796004 $231 $524 forward 7 unknown #
vertex $-1 $234 $525 #
ellipse-curve $-1 -38.738842943475007 -12.030663730444523 6.1506624949172615 -0.51503808176128008 0 0.85716729658548041 0.4285836482927402 0 0.25751904088064004 1 I I #
coedge $-1 $373 $373 $-1 $526 reversed $237 $-1 #
edge $-1 $527 0 $527 6.2831853071796004 $238 $528 forward 7 unknown #
vertex $-1 $241 $529 #
ellipse-curve $-1 -38.738842943475007 -10.184427720849889 6.1506624949172615 -0.51503808176128008 0 0.85716729658548041 0.4285836482927402 0 0.25751904088064004 1 I I #
face $-1 $-1 $530 $52 $-1 $531 reversed single #
loop $-1 $-1 $248 $242 #
plane-surface $-1 0 0 10.669070127624082 0 0 1 1 0 0 forward_v I I I I #
coedge $-1 $532 $533 $534 $535 reversed $243 $-1 #
coedge $-1 $536 $245 $247 $387 forward $152 $-1 #
coedge $-1 $245 $536 $532 $537 forward $152 $-1 #
coedge $-1 $534 $248 $245 $384 forward $378 $-1 #
edge $-1 $390 -1.5385300079955266 $538 4.6155900239865852 $383 $539 forward 7 unknown #
coedge $-1 $540 $541 $246 $386 forward $530 $-1 #
edge $-1 $542 -38.835348183763628 $389 -29.798532918349999 $385 $543 forward 7 unknown #
edge $-1 $390 -17.545916671851455 $542 -8.2634070795339233e-015 $247 $544 forward 7 unknown #
coedge $-1 $248 $534 $540 $545 forward $378 $-1 #
vertex $-1 $249 $546 #
vertex $-1 $249 $547 #
straight-curve $-1 -46.954378576326121 2.6645352591003757e-015 10.669070127624082 1 0 0 I I #
coedge $-1 $392 $392 $-1 $548 reversed $252 $-1 #
edge $-1 $549 0 $549 6.2831853071796004 $253 $550 forward 7 unknown #
vertex $-1 $256 $551 #
ellipse-curve $-1 -38.738842943475007 1.2308240063964249 6.1506624949172615 -0.51503808176128008 0 0.85716729658548041 0.4285836482927402 0 0.25751904088064004 1 I I #
coedge $-1 $396 $396 $-1 $552 reversed $259 $-1 #
edge $-1 $553 0 $553 6.2831853071796004 $260 $554 forward 7 unknown #
vertex $-1 $263 $555 #
ellipse-curve $-1 -38.738842943475007 3.0770600159910586 6.1506624949172615 -0.51503808176128008 0 0.85716729658548041 0.4285836482927402 0 0.25751904088064004 1 I I #
coedge $-1 $400 $400 $-1 $556 reversed $266 $-1 #
edge $-1 $557 0 $557 6.2831853071796004 $267 $558 forward 7 unknown #
vertex $-1 $270 $559 #
ellipse-curve $-1 -38.738842943475007 4.9232960255856923 6.1506624949172615 -0.51503808176128008 0 0.85716729658548041 0.4285836482927402 0 0.25751904088064004 1 I I #
face $-1 $-1 $560 $56 $-1 $561 reversed single #
loop $-1 $-1 $277 $271 #
plane-surface $-1 0 0 10.669070127624082 0 0 1 1 0 0 forward_v I I I I #
coedge $-1 $562 $563 $564 $565 reversed $272 $-1 #
coedge $-1 $566 $274 $276 $414 forward $171 $-1 #
coedge $-1 $274 $566 $562 $567 forward $171 $-1 #
coedge $-1 $564 $277 $274 $411 forward $405 $-1 #
edge $-1 $417 -2.2279990199144475 $568 4.8997624401127791 $410 $569 forward 7 unknown #
coedge $-1 $570 $571 $275 $413 forward $560 $-1 #
edge $-1 $572 -64.203099071383917 $416 -54.693973752637831 $412 $573 forward 7 unknown #
edge $-1 $417 76.716727710117326 $572 92.517471846675022 $276 $574 forward 7 unknown #
coedge $-1 $277 $564 $570 $575 forward $405 $-1 #
vertex $-1 $413 $576 #
vertex $-1 $278 $577 #
straight-curve $-1 14.024701652101381 0.8921173098152817 10.669070127624082 -1 0 0 I I #
coedge $-1 $419 $419 $-1 $578 reversed $281 $-1 #
edge $-1 $579 0 $579 6.2831853071796004 $282 $580 forward 7 unknown #
vertex $-1 $285 $581 #
ellipse-curve $-1 39.949218292382177 -4.8100918582064978 5.9145074682510383 0.6018150307709319 0 0.79863550430605224 0.39931775215302612 0 -0.30090751538546595 1 I I #
coedge $-1 $423 $423 $-1 $582 reversed $288 $-1 #
edge $-1 $583 0 $583 6.2831853071796004 $289 $584 forward 7 unknown #
vertex $-1 $292 $585 #
ellipse-curve $-1 39.949218292382177 -2.6717634201983316 5.9145074682510383 0.6018150307709319 0 0.79863550430605224 0.39931775215302612 0 -0.30090751538546595 1 I I #
coedge $-1 $427 $427 $-1 $586 reversed $295 $-1 #
edge $-1 $587 0 $587 6.2831853071796004 $296 $588 forward 7 unknown #
vertex $-1 $299 $589 #
ellipse-curve $-1 39.949218292382177 -0.53343498219016539 5.9145074682510383 0.6018150307709319 0 0.79863550430605224 0.39931775215302612 0 -0.30090751538546595 1 I I #
face $-1 $-1 $315 $45 $-1 $590 reversed single #
loop $-1 $-1 $447 $300 #
plane-surface $-1 0 27.610960942064722 0 0 -1 0 0 0 -1 forward_v I I I I #
coedge $-1 $591 $445 $448 $592 forward $301 $-1 #
coedge $-1 $451 $303 $304 $439 reversed $190 $-1 #
coedge $-1 $445 $591 $303 $437 reversed $301 $-1 #
edge $-1 $452 -10.669070127624082 $593 10.669070127624082 $436 $594 forward 7 unknown #
coedge $-1 $305 $304 $591 $595 forward $121 $-1 #
edge $-1 $443 -46.258735923337504 $593 46.258735923337504 $435 $596 forward 7 unknown #
coedge $-1 $448 $447 $305 $441 reversed $432 $-1 #
edge $-1 $597 -46.258735923337504 $442 46.258735923337504 $440 $598 forward 7 unknown #
vertex $-1 $307 $599 #
vertex $-1 $454 $600 #
straight-curve $-1 46.258735923337504 0 -10.669070127624082 0 -1 0 I I #
coedge $-1 $434 $436 $308 $446 reversed $301 $-1 #
edge $-1 $449 -27.610960942064722 $452 27.610960942064722 $445 $601 forward 7 unknown #
coedge $-1 $440 $309 $314 $455 forward $432 $-1 #
coedge $-1 $309 $440 $434 $592 reversed $432 $-1 #
vertex $-1 $310 $602 #
straight-curve $-1 0 27.610960942064722 10.669070127624082 -1 0 0 I I #
coedge $-1 $311 $435 $313 $454 reversed $190 $-1 #
vertex $-1 $446 $603 #
straight-curve $-1 0 -27.610960942064722 10.669070127624082 1 0 0 I I #
edge $-1 $316 -10.669070127624082 $443 10.669070127624082 $313 $604 forward 7 unknown #
edge $-1 $317 -10.669070127624082 $442 10.669070127624082 $314 $605 forward 7 unknown #
point $-1 46.258735923337504 -27.610960942064722 10.669070127624082 #
point $-1 46.258735923337504 27.610960942064722 10.669070127624082 #
face $-1 $-1 $472 $46 $-1 $606 reversed single #
loop $-1 $-1 $607 $319 #
plane-surface $-1 0 -40.114198137693862 -7.9243902167134941 0 1 0 0 0 1 forward_v I I I I #
coedge $-1 $608 $322 $331 $476 reversed $198 $-1 #
coedge $-1 $322 $608 $323 $464 reversed $198 $-1 #
coedge $-1 $324 $323 $609 $610 forward $125 $-1 #
edge $-1 $468 27.610960942064722 $611 40.114198137693862 $462 $612 forward 7 unknown #
coedge $-1 $613 $328 $324 $466 reversed $472 $-1 #
edge $-1 $614 -40.114198137693862 $467 -27.610960942064722 $465 $615 forward 7 unknown #
vertex $-1 $329 $616 #
vertex $-1 $464 $617 #
straight-curve $-1 0 -27.610960942064722 -10.669070127624082 1 0 0 I I #
straight-curve $-1 46.258735923337504 -27.610960942064722 0 0 0 1 I I #
coedge $-1 $328 $613 $330 $475 reversed $472 $-1 #
loop $-1 $-1 $328 $458 #
straight-curve $-1 -46.258735923337504 -27.610960942064722 0 0 0 -1 I I #
coedge $-1 $331 $330 $618 $619 forward $320 $-1 #
edge $-1 $332 -6.25161859781457 $620 6.25161859781457 $471 $621 forward 7 unknown #
edge $-1 $622 -6.25161859781457 $333 6.25161859781457 $461 $623 forward 7 unknown #
point $-1 -46.258735923337504 -27.610960942064722 -5.1797103058029066 #
point $-1 46.258735923337504 -27.610960942064722 -5.1797103058029066 #
face $-1 $-1 $495 $47 $-1 $624 reversed single #
loop $-1 $-1 $492 $335 #
plane-surface $-1 0 0 -10.669070127624082 0 0 1 1 0 0 forward_v I I I I #
coedge $-1 $625 $626 $627 $628 forward $336 $-1 #
coedge $-1 $345 $338 $626 $629 forward $206 $-1 #
coedge $-1 $343 $627 $338 $485 reversed $495 $-1 #
edge $-1 $346 -6.25161859781457 $630 6.25161859781457 $484 $631 forward 7 unknown #
coedge $-1 $340 $339 $632 $633 forward $129 $-1 #
edge $-1 $634 -6.25161859781457 $347 6.25161859781457 $339 $635 forward 7 unknown #
coedge $-1 $636 $492 $340 $489 forward $480 $-1 #
edge $-1 $490 -6.25161859781457 $637 6.25161859781457 $340 $638 forward 7 unknown #
vertex $-1 $489 $639 #
straight-curve $-1 -46.258735923337504 27.610960942064722 0 0 0 1 I I #
coedge $-1 $488 $640 $342 $493 forward $480 $-1 #
edge $-1 $496 -46.258735923337504 $490 46.258735923337504 $492 $641 forward 7 unknown #
coedge $-1 $627 $343 $640 $642 reversed $495 $-1 #
loop $-1 $-1 $343 $479 #
vertex $-1 $344 $643 #
straight-curve $-1 46.258735923337504 27.610960942064722 0 0 0 -1 I I #
point $-1 46.258735923337504 27.610960942064722 -5.1797103058029066 #
point $-1 -46.258735923337504 27.610960942064722 -5.1797103058029066 #
plane-surface $-1 0 0 10.669070127624082 0 0 1 1 0 0 forward_v I I I I #
coedge $-1 $511 $510 $503 $644 forward $350 $-1 #
coedge $-1 $503 $352 $354 $507 reversed $214 $-1 #
coedge $-1 $352 $502 $501 $644 reversed $214 $-1 #
coedge $-1 $360 $355 $352 $505 forward $361 $-1 #
edge $-1 $508 -15.735428612713633 $645 -0.69564265298861727 $504 $646 forward 7 unknown #
coedge $-1 $354 $353 $511 $647 reversed $133 $-1 #
edge $-1 $648 8.2634070795339233e-015 $508 17.545916671851455 $502 $649 forward 7 unknown #
vertex $-1 $356 $650 #
straight-curve $-1 -31.218949963612491 -6.0153318652222616 10.669070127624082 0 1 0 I I #
coedge $-1 $501 $357 $360 $515 reversed $350 $-1 #
coedge $-1 $357 $501 $506 $647 forward $350 $-1 #
vertex $-1 $358 $651 #
straight-curve $-1 -46.258735923337504 -15.107723746435578 40.46760304597408 0 0 1 I I #
straight-curve $-1 -46.258735923337511 -15.107723746435578 1.6322548622104449 -0.85716729658548041 0 -0.51503808176128008 I I #
edge $-1 $645 8.9536037144534681 $362 15.107723746435578 $510 $652 forward 7 unknown #
point $-1 -46.258735923337504 -15.107723746435578 10.669070127624082 #
point $-1 -31.218949963612488 -15.107723746435578 10.669070127624082 #
edge $-1 $653 1 $653 0 $365 $-1 forward 7 unknown #
vertex $-1 $366 $654 #
ellipse-curve $-1 -37.918062399865541 -13.876899740039157 4.7846543014070662 -0.51503808176128008 0 0.85716729658548041 0.4285836482927402 0 0.25751904088064004 1 I I #
point $-1 -38.31025929518227 -13.876899740039157 6.4081815357979126 #
edge $-1 $655 1 $655 0 $369 $-1 forward 7 unknown #
vertex $-1 $370 $656 #
ellipse-curve $-1 -37.918062399865541 -12.030663730444523 4.7846543014070662 -0.51503808176128008 0 0.85716729658548041 0.4285836482927402 0 0.25751904088064004 1 I I #
point $-1 -38.31025929518227 -12.030663730444523 6.4081815357979126 #
edge $-1 $657 1 $657 0 $373 $-1 forward 7 unknown #
vertex $-1 $374 $658 #
ellipse-curve $-1 -37.918062399865541 -10.184427720849889 4.7846543014070662 -0.51503808176128008 0 0.85716729658548041 0.4285836482927402 0 0.25751904088064004 1 I I #
point $-1 -38.31025929518227 -10.184427720849889 6.4081815357979126 #
loop $-1 $-1 $385 $377 #
plane-surface $-1 -46.258735923337504 0 0 1 0 0 0 0 -1 forward_v I I I I #
coedge $-1 $533 $380 $382 $537 reversed $243 $-1 #
coedge $-1 $380 $532 $659 $660 reversed $243 $-1 #
coedge $-1 $388 $383 $380 $535 forward $378 $-1 #
edge $-1 $538 -15.735428612713633 $661 -0.69564265298861727 $534 $662 forward 7 unknown #
coedge $-1 $382 $381 $541 $663 reversed $152 $-1 #
edge $-1 $664 8.2634070795339233e-015 $538 17.545916671851455 $532 $665 forward 7 unknown #
vertex $-1 $384 $666 #
straight-curve $-1 -31.218949963612491 1.5385300079955293 10.669070127624082 0 1 0 I I #
coedge $-1 $659 $385 $388 $545 reversed $530 $-1 #
coedge $-1 $385 $659 $536 $663 forward $530 $-1 #
vertex $-1 $386 $667 #
straight-curve $-1 -46.258735923337504 2.6645352591003757e-015 40.46760304597408 0 0 1 I I #
straight-curve $-1 -46.258735923337511 2.6645352591003757e-015 1.6322548622104449 -0.85716729658548041 0 -0.51503808176128008 I I #
edge $-1 $661 -6.1541200319821145 $389 -2.6645352591003757e-015 $540 $668 forward 7 unknown #
point $-1 -46.258735923337504 2.6645352591003757e-015 10.669070127624082 #
point $-1 -31.218949963612488 2.6645352591003757e-015 10.669070127624082 #
edge $-1 $669 1 $669 0 $392 $-1 forward 7 unknown #
vertex $-1 $393 $670 #
ellipse-curve $-1 -37.918062399865541 1.2308240063964249 4.7846543014070662 -0.51503808176128008 0 0.85716729658548041 0.4285836482927402 0 0.25751904088064004 1 I I #
point $-1 -38.31025929518227 1.2308240063964249 6.4081815357979126 #
edge $-1 $671 1 $671 0 $396 $-1 forward 7 unknown #
vertex $-1 $397 $672 #
ellipse-curve $-1 -37.918062399865541 3.0770600159910586 4.7846543014070662 -0.51503808176128008 0 0.85716729658548041 0.4285836482927402 0 0.25751904088064004 1 I I #
point $-1 -38.31025929518227 3.0770600159910586 6.4081815357979126 #
edge $-1 $673 1 $673 0 $400 $-1 forward 7 unknown #
vertex $-1 $401 $674 #
ellipse-curve $-1 -37.918062399865541 4.9232960255856923 4.7846543014070662 -0.51503808176128008 0 0.85716729658548041 0.4285836482927402 0 0.25751904088064004 1 I I #
point $-1 -38.31025929518227 4.9232960255856923 6.4081815357979126 #
loop $-1 $-1 $412 $404 #
plane-surface $-1 46.258735923337504 0 0 -1 0 0 0 0 1 forward_v I I I I #
coedge $-1 $563 $407 $409 $567 reversed $272 $-1 #
coedge $-1 $407 $562 $675 $676 reversed $272 $-1 #
coedge $-1 $415 $410 $407 $565 forward $405 $-1 #
edge $-1 $568 19.614999009325469 $677 32.234034271236126 $564 $678 forward 7 unknown #
coedge $-1 $409 $408 $571 $679 reversed $171 $-1 #
edge $-1 $680 -92.517471846675022 $568 -76.716727710117326 $562 $681 forward 7 unknown #
vertex $-1 $411 $682 #
straight-curve $-1 33.639700661426865 -1.3358817100991658 10.669070127624078 0 -1 0 I I #
coedge $-1 $675 $412 $415 $575 reversed $560 $-1 #
coedge $-1 $412 $675 $566 $679 forward $560 $-1 #
vertex $-1 $413 $683 #
straight-curve $-1 46.258735923337504 0.8921173098152817 65.363043880261912 0 0 1 I I #
straight-curve $-1 -27.629001862052782 0.8921173098152817 56.838349975133539 0.79863550430605224 0 -0.6018150307709319 I I #
edge $-1 $677 -6.2356441502119448 $416 0.8921173098152817 $570 $684 forward 7 unknown #
point $-1 46.258735923337504 0.8921173098152817 10.669070127624082 #
point $-1 33.639700661426851 0.8921173098152817 10.669070127624089 #
edge $-1 $685 1 $685 0 $419 $-1 forward 7 unknown #
vertex $-1 $420 $686 #
ellipse-curve $-1 39.158476282820835 -4.8100918582064978 4.8651574000531363 0.6018150307709319 0 0.79863550430605224 0.39931775215302612 0 -0.30090751538546595 1 I I #
point $-1 40.348536044535201 -4.8100918582064978 5.6135999528655702 #
edge $-1 $687 1 $687 0 $423 $-1 forward 7 unknown #
vertex $-1 $424 $688 #
ellipse-curve $-1 39.158476282820835 -2.6717634201983316 4.8651574000531363 0.6018150307709319 0 0.79863550430605224 0.39931775215302612 0 -0.30090751538546595 1 I I #
point $-1 40.348536044535201 -2.6717634201983316 5.6135999528655702 #
edge $-1 $689 1 $689 0 $427 $-1 forward 7 unknown #
vertex $-1 $428 $690 #
ellipse-curve $-1 39.158476282820835 -0.53343498219016539 4.8651574000531363 0.6018150307709319 0 0.79863550430605224 0.39931775215302612 0 -0.30090751538546595 1 I I #
point $-1 40.348536044535201 -0.53343498219016539 5.6135999528655702 #
plane-surface $-1 46.258735923337504 0 0 -1 0 0 0 0 1 forward_v I I I I #
coedge $-1 $436 $434 $438 $595 reversed $301 $-1 #
edge $-1 $449 -10.669070127624082 $597 10.669070127624082 $448 $691 forward 7 unknown #
vertex $-1 $595 $692 #
straight-curve $-1 -46.258735923337504 -27.610960942064722 0 0 0 -1 I I #
edge $-1 $593 -27.610960942064722 $597 27.610960942064722 $591 $693 forward 7 unknown #
straight-curve $-1 0 -27.610960942064722 -10.669070127624082 -1 0 0 I I #
vertex $-1 $441 $694 #
straight-curve $-1 0 27.610960942064722 -10.669070127624082 1 0 0 I I #
point $-1 46.258735923337504 27.610960942064722 -10.669070127624082 #
point $-1 46.258735923337504 -27.610960942064722 -10.669070127624082 #
straight-curve $-1 -46.258735923337504 0 10.669070127624082 0 -1 0 I I #
point $-1 -46.258735923337504 27.610960942064722 10.669070127624082 #
point $-1 -46.258735923337504 -27.610960942064722 10.669070127624082 #
straight-curve $-1 46.258735923337504 -27.610960942064722 0 0 0 -1 I I #
straight-curve $-1 46.258735923337504 27.610960942064722 0 0 0 -1 I I #
plane-surface $-1 -46.258735923337504 0 0 1 0 0 0 0 -1 forward_v I I I I #
coedge $-1 $609 $618 $613 $695 forward $459 $-1 #
coedge $-1 $462 $461 $696 $697 forward $198 $-1 #
coedge $-1 $696 $607 $463 $610 reversed $459 $-1 #
edge $-1 $611 -46.258735923337504 $614 46.258735923337504 $609 $698 forward 7 unknown #
vertex $-1 $697 $699 #
straight-curve $-1 46.258735923337504 0 -10.669070127624082 0 -1 0 I I #
coedge $-1 $471 $465 $607 $695 reversed $472 $-1 #
vertex $-1 $466 $700 #
straight-curve $-1 -46.258735923337504 0 -10.669070127624082 0 1 0 I I #
point $-1 -46.258735923337504 -27.610960942064722 -10.669070127624082 #
point $-1 46.258735923337504 -27.610960942064722 -10.669070127624082 #
coedge $-1 $607 $696 $474 $619 reversed $459 $-1 #
edge $-1 $620 -46.258735923337504 $622 46.258735923337504 $618 $701 forward 7 unknown #
vertex $-1 $475 $702 #
straight-curve $-1 -46.258735923337504 -33.862579539879292 -5.1797103058029066 0 -1 0 I I #
vertex $-1 $476 $703 #
straight-curve $-1 46.258735923337504 -33.862579539879292 -5.1797103058029066 0 1 0 I I #
plane-surface $-1 46.258735923337504 0 0 -1 0 0 0 0 1 forward_v I I I I #
coedge $-1 $632 $482 $636 $704 reversed $336 $-1 #
coedge $-1 $482 $632 $483 $629 reversed $336 $-1 #
coedge $-1 $484 $494 $482 $628 reversed $495 $-1 #
edge $-1 $630 -2.7446799109105875 $705 2.7446799109105875 $627 $706 forward 7 unknown #
edge $-1 $630 -46.258735923337504 $634 46.258735923337504 $626 $707 forward 7 unknown #
vertex $-1 $485 $708 #
straight-curve $-1 46.258735923337504 33.862579539879292 -5.1797103058029066 0 1 0 I I #
coedge $-1 $626 $625 $486 $633 reversed $336 $-1 #
edge $-1 $634 -2.7446799109105875 $637 2.7446799109105875 $632 $709 forward 7 unknown #
vertex $-1 $629 $710 #
straight-curve $-1 -46.258735923337504 33.862579539879292 -5.1797103058029066 0 -1 0 I I #
coedge $-1 $640 $488 $625 $704 forward $480 $-1 #
vertex $-1 $704 $711 #
straight-curve $-1 -46.258735923337504 33.862579539879292 -10.669070127624082 0 1 0 I I #
point $-1 -46.258735923337504 27.610960942064722 -10.669070127624082 #
coedge $-1 $492 $636 $494 $642 forward $480 $-1 #
straight-curve $-1 0 27.610960942064722 -10.669070127624082 -1 0 0 I I #
edge $-1 $705 -40.114198137693862 $496 -27.610960942064722 $494 $712 forward 7 unknown #
point $-1 46.258735923337504 27.610960942064722 -10.669070127624082 #
edge $-1 $645 29.798532918349999 $648 38.835348183763628 $501 $713 forward 7 unknown #
vertex $-1 $515 $714 #
straight-curve $-1 -46.954378576326121 -8.9536037144534681 10.669070127624082 -1 0 0 I I #
edge $-1 $648 2.9382718492312065 $512 9.0923918812133167 $511 $715 forward 7 unknown #
vertex $-1 $647 $716 #
straight-curve $-1 -46.258735923337511 -8.9536037144534681 1.6322548622104449 0.85716729658548041 0 0.51503808176128008 I I #
point $-1 -31.218949963612488 -8.9536037144534681 10.669070127624082 #
point $-1 -46.258735923337504 -15.107723746435578 1.6322548622104491 #
straight-curve $-1 -46.258735923337504 0 10.669070127624082 0 -1 0 I I #
vertex $-1 $518 $717 #
point $-1 -37.489478751572804 -13.876899740039157 5.0421733422877066 #
vertex $-1 $522 $718 #
point $-1 -37.489478751572804 -12.030663730444523 5.0421733422877066 #
vertex $-1 $526 $719 #
point $-1 -37.489478751572804 -10.184427720849889 5.0421733422877066 #
coedge $-1 $541 $540 $533 $660 forward $530 $-1 #
edge $-1 $661 29.798532918349999 $664 38.835348183763628 $659 $720 forward 7 unknown #
vertex $-1 $545 $721 #
straight-curve $-1 -46.954378576326121 6.1541200319821145 10.669070127624082 -1 0 0 I I #
edge $-1 $664 -4.6155900239865852 $542 1.5385300079955266 $541 $722 forward 7 unknown #
vertex $-1 $663 $723 #
straight-curve $-1 -46.258735923337511 6.1541200319821145 1.6322548622104449 0.85716729658548041 0 0.51503808176128008 I I #
point $-1 -31.218949963612488 6.1541200319821145 10.669070127624082 #
point $-1 -46.258735923337504 2.6645352591003757e-015 1.6322548622104491 #
straight-curve $-1 -46.258735923337504 0 10.669070127624082 0 -1 0 I I #
vertex $-1 $548 $724 #
point $-1 -37.489478751572804 1.2308240063964249 5.0421733422877066 #
vertex $-1 $552 $725 #
point $-1 -37.489478751572804 3.0770600159910586 5.0421733422877066 #
vertex $-1 $556 $726 #
point $-1 -37.489478751572804 4.9232960255856923 5.0421733422877066 #
coedge $-1 $571 $570 $563 $676 forward $560 $-1 #
edge $-1 $677 54.693973752637831 $680 64.203099071383917 $675 $727 forward 7 unknown #
vertex $-1 $575 $728 #
straight-curve $-1 14.024701652101381 -6.2356441502119448 10.669070127624082 1 0 0 I I #
edge $-1 $680 -4.8997624401127791 $572 2.2279990199144475 $571 $729 forward 7 unknown #
vertex $-1 $679 $730 #
straight-curve $-1 -27.629001862052782 -6.2356441502119448 56.838349975133539 -0.79863550430605224 0 0.6018150307709319 I I #
point $-1 33.639700661426851 -6.2356441502119448 10.669070127624089 #
point $-1 46.258735923337504 0.8921173098152817 1.1599448088779951 #
straight-curve $-1 46.258735923337504 0 10.669070127624082 0 1 0 I I #
vertex $-1 $578 $731 #
point $-1 39.557794034973867 -4.8100918582064978 4.5642498846676709 #
vertex $-1 $582 $732 #
point $-1 39.557794034973867 -2.6717634201983316 4.5642498846676709 #
vertex $-1 $586 $733 #
point $-1 39.557794034973867 -0.53343498219016539 4.5642498846676709 #
straight-curve $-1 -46.258735923337504 27.610960942064722 0 0 0 -1 I I #
point $-1 -46.258735923337504 -27.610960942064722 -10.669070127624082 #
straight-curve $-1 -46.258735923337504 0 -10.669070127624082 0 1 0 I I #
point $-1 -46.258735923337504 27.610960942064722 -10.669070127624082 #
edge $-1 $620 -2.7446799109105875 $614 2.7446799109105875 $613 $734 forward 7 unknown #
coedge $-1 $618 $609 $608 $697 reversed $459 $-1 #
edge $-1 $622 -2.7446799109105875 $611 2.7446799109105875 $608 $735 forward 7 unknown #
straight-curve $-1 0 -40.114198137693862 -10.669070127624082 -1 0 0 I I #
point $-1 46.258735923337504 -40.114198137693862 -10.669070127624082 #
point $-1 -46.258735923337504 -40.114198137693862 -10.669070127624082 #
straight-curve $-1 0 -40.114198137693862 -5.1797103058029066 1 0 0 I I #
point $-1 -46.258735923337504 -40.114198137693862 -5.1797103058029066 #
point $-1 46.258735923337504 -40.114198137693862 -5.1797103058029066 #
edge $-1 $637 -46.258735923337504 $705 46.258735923337504 $625 $736 forward 7 unknown #
vertex $-1 $642 $737 #
straight-curve $-1 46.258735923337504 40.114198137693862 -7.9243902167134941 0 0 -1 I I #
straight-curve $-1 0 40.114198137693862 -5.1797103058029066 -1 0 0 I I #
point $-1 46.258735923337504 40.114198137693862 -5.1797103058029066 #
straight-curve $-1 -46.258735923337504 40.114198137693862 -7.9243902167134941 0 0 -1 I I #
point $-1 -46.258735923337504 40.114198137693862 -5.1797103058029066 #
point $-1 -46.258735923337504 40.114198137693862 -10.669070127624082 #
straight-curve $-1 46.258735923337504 0 -10.669070127624082 0 -1 0 I I #
straight-curve $-1 -46.258735923337504 -8.9536037144534681 40.46760304597408 0 0 -1 I I #
point $-1 -46.258735923337504 -8.9536037144534681 10.669070127624082 #
straight-curve $-1 -46.258735923337504 -6.0153318652222616 1.6322548622104511 0 -1 0 I I #
point $-1 -46.258735923337504 -8.9536037144534681 1.6322548622104491 #
point $-1 -37.660543358984903 -13.876899740039157 4.3560706531143261 #
point $-1 -37.660543358984903 -12.030663730444523 4.3560706531143261 #
point $-1 -37.660543358984903 -10.184427720849889 4.3560706531143261 #
straight-curve $-1 -46.258735923337504 6.1541200319821145 40.46760304597408 0 0 -1 I I #
point $-1 -46.258735923337504 6.1541200319821145 10.669070127624082 #
straight-curve $-1 -46.258735923337504 1.5385300079955293 1.6322548622104511 0 -1 0 I I #
point $-1 -46.258735923337504 6.1541200319821145 1.6322548622104491 #
point $-1 -37.660543358984903 1.2308240063964249 4.3560706531143261 #
point $-1 -37.660543358984903 3.0770600159910586 4.3560706531143261 #
point $-1 -37.660543358984903 4.9232960255856923 4.3560706531143261 #
straight-curve $-1 46.258735923337504 -6.2356441502119448 65.363043880261912 0 0 -1 I I #
point $-1 46.258735923337504 -6.2356441502119448 10.669070127624082 #
straight-curve $-1 46.258735923337504 -1.3358817100991658 1.1599448088779951 0 1 0 I I #
point $-1 46.258735923337504 -6.2356441502119448 1.1599448088779951 #
point $-1 38.857568767435374 -4.8100918582064978 4.4658396479001103 #
point $-1 38.857568767435374 -2.6717634201983316 4.4658396479001103 #
point $-1 38.857568767435374 -0.53343498219016539 4.4658396479001103 #
straight-curve $-1 -46.258735923337504 -40.114198137693862 -7.9243902167134941 0 0 -1 I I #
straight-curve $-1 46.258735923337504 -40.114198137693862 -7.9243902167134941 0 0 -1 I I #
straight-curve $-1 0 40.114198137693862 -10.669070127624082 1 0 0 I I #
point $-1 46.258735923337504 40.114198137693862 -10.669070127624082 #
End-of-ACIS-data 