500 0 6 0           
7 Unknown 11 ACIS 5.0 NT 24 Thu Mar 25 16:05:13 1999 
-1 9.9999999999999995e-007 1e-010 
body $-1 $6 $-1 $7 #
body $-1 $8 $-1 $9 #
body $-1 $10 $-1 $11 #
body $-1 $12 $-1 $13 #
body $-1 $14 $-1 $15 #
body $-1 $16 $-1 $17 #
lump $-1 $-1 $18 $0 #
transform $-1 1 0 0 0 1 0 0 0 1 42.214423047578357 17.528512700535199 5.5876514087618734 1 rotate no_reflect no_shear #
lump $-1 $-1 $19 $1 #
transform $-1 1 0 0 0 1 0 0 0 1 42.214423047578357 17.528512700535199 5.5876514087618734 1 rotate no_reflect no_shear #
lump $-1 $-1 $20 $2 #
transform $-1 1 0 0 0 1 0 0 0 1 42.214423047578357 17.528512700535199 5.5876514087618734 1 rotate no_reflect no_shear #
lump $-1 $-1 $21 $3 #
transform $-1 1 0 0 0 1 0 0 0 1 42.214423047578357 17.528512700535199 5.5876514087618734 1 rotate no_reflect no_shear #
lump $-1 $-1 $22 $4 #
transform $-1 1 0 0 0 1 0 0 0 1 42.214423047578357 17.528512700535199 5.5876514087618734 1 rotate no_reflect no_shear #
lump $-1 $-1 $23 $5 #
transform $-1 1 0 0 0 1 0 0 0 1 42.214423047578357 17.528512700535199 5.5876514087618734 1 rotate no_reflect no_shear #
shell $-1 $-1 $-1 $24 $-1 $6 #
shell $-1 $-1 $-1 $25 $-1 $8 #
shell $-1 $-1 $-1 $26 $-1 $10 #
shell $-1 $-1 $-1 $27 $-1 $12 #
shell $-1 $-1 $-1 $28 $-1 $14 #
shell $-1 $-1 $-1 $29 $-1 $16 #
face $-1 $30 $31 $18 $-1 $32 forward single #
face $-1 $33 $34 $19 $-1 $35 forward single #
face $-1 $36 $37 $20 $-1 $38 forward single #
face $-1 $39 $40 $21 $-1 $41 reversed single #
face $-1 $42 $43 $22 $-1 $44 forward single #
face $-1 $45 $46 $23 $-1 $47 forward single #
face $-1 $48 $49 $18 $-1 $50 reversed single #
loop $-1 $-1 $51 $24 #
plane-surface $-1 0 0 5.5876514087618734 0 0 1 1 0 0 forward_v I I I I #
face $-1 $52 $53 $19 $-1 $54 reversed single #
loop $-1 $-1 $55 $25 #
plane-surface $-1 -42.214423047578357 0 0 1 0 0 0 0 -1 forward_v I I I I #
face $-1 $56 $57 $20 $-1 $58 reversed single #
loop $-1 $-1 $59 $26 #
plane-surface $-1 42.214423047578357 0 0 -1 0 0 0 0 1 forward_v I I I I #
face $-1 $60 $61 $21 $-1 $62 reversed single #
loop $-1 $-1 $63 $27 #
plane-surface $-1 5.4230382025759489 71.842457053288072 73.81912854414368 1 0 0 0 -0.85716730853699208 -0.51503806187062418 forward_v I I I I #
face $-1 $64 $65 $22 $-1 $66 forward single #
loop $-1 $67 $68 $28 #
cone-surface $-1 11.248359489880258 15.462020101968452 2.651972263785471 0 -0.85716730853699208 -0.51503806187062418 1 0 0 1 I I 0 1 1 forward I I I I #
face $-1 $69 $70 $23 $-1 $71 forward single #
loop $-1 $72 $73 $29 #
cone-surface $-1 19.986341420836716 15.462020101968452 2.651972263785471 0 -0.85716730853699208 -0.51503806187062418 1 0 0 1 I I 0 1 1 forward I I I I #
face $-1 $74 $75 $18 $-1 $76 reversed single #
loop $-1 $-1 $77 $30 #
plane-surface $-1 0 0 -5.5876514087618734 0 0 1 1 0 0 forward_v I I I I #
coedge $-1 $78 $79 $80 $81 forward $31 $-1 #
face $-1 $82 $83 $19 $-1 $84 reversed single #
loop $-1 $-1 $85 $33 #
plane-surface $-1 0 0 -5.5876514087618734 0 0 1 1 0 0 forward_v I I I I #
coedge $-1 $86 $87 $88 $89 forward $34 $-1 #
face $-1 $90 $91 $20 $-1 $92 reversed single #
loop $-1 $-1 $93 $36 #
plane-surface $-1 0 0 -5.5876514087618734 0 0 1 1 0 0 forward_v I I I I #
coedge $-1 $94 $95 $96 $97 forward $37 $-1 #
face $-1 $98 $99 $21 $-1 $100 reversed single #
loop $-1 $-1 $101 $39 #
plane-surface $-1 15.617350455358483 -0.52718971698133998 30.335059285320952 0 0.85716730853699208 0.51503806187062418 1 0 0 forward_v I I I I #
coedge $-1 $102 $103 $104 $105 reversed $40 $-1 #
face $-1 $-1 $106 $22 $-1 $107 forward single #
loop $-1 $108 $109 $42 #
cone-surface $-1 11.248359489880258 14.559923906062696 2.109938203768456 0 -0.85716730853699208 -0.51503806187062418 0.5 0 0 1 I I -0.70710678118654746 0.70710678118654746 0.5 forward I I I I #
loop $-1 $-1 $110 $28 #
coedge $-1 $68 $68 $111 $112 reversed $43 $-1 #
face $-1 $-1 $113 $23 $-1 $114 forward single #
loop $-1 $115 $116 $45 #
cone-surface $-1 19.986341420836716 14.559923906062696 2.109938203768456 0 -0.85716730853699208 -0.51503806187062418 0.5 0 0 1 I I -0.70710678118654746 0.70710678118654746 0.5 forward I I I I #
loop $-1 $-1 $117 $29 #
coedge $-1 $73 $73 $118 $119 reversed $46 $-1 #
face $-1 $120 $121 $18 $-1 $122 reversed single #
loop $-1 $-1 $123 $48 #
plane-surface $-1 0 -17.528512700535199 0 0 1 0 0 0 1 forward_v I I I I #
coedge $-1 $124 $125 $126 $127 forward $49 $-1 #
coedge $-1 $128 $51 $129 $130 forward $31 $-1 #
coedge $-1 $51 $128 $131 $132 forward $31 $-1 #
coedge $-1 $133 $134 $51 $81 reversed $135 $-1 #
edge $-1 $136 -17.528512700535199 $137 17.528512700535199 $80 $138 forward 7 unknown #
face $-1 $139 $140 $19 $-1 $141 reversed single #
loop $-1 $-1 $142 $52 #
plane-surface $-1 -45.883364966612469 -9.3873248906574531 0 0 1 0 0 0 1 forward_v I I I I #
coedge $-1 $143 $144 $87 $145 forward $53 $-1 #
coedge $-1 $146 $55 $147 $148 reversed $34 $-1 #
coedge $-1 $55 $146 $85 $145 reversed $34 $-1 #
coedge $-1 $149 $150 $55 $89 reversed $151 $-1 #
edge $-1 $152 -5.5876514087618734 $153 5.5876514087618734 $88 $154 forward 7 unknown #
face $-1 $155 $156 $20 $-1 $157 reversed single #
loop $-1 $-1 $96 $56 #
plane-surface $-1 45.883364966612469 -9.3873248906574531 0 0 1 0 0 0 1 forward_v I I I I #
coedge $-1 $158 $159 $95 $160 forward $57 $-1 #
coedge $-1 $161 $59 $162 $163 reversed $37 $-1 #
coedge $-1 $59 $161 $93 $160 reversed $37 $-1 #
coedge $-1 $164 $165 $59 $97 reversed $91 $-1 #
edge $-1 $166 -5.5876514087618734 $167 5.5876514087618734 $96 $168 forward 7 unknown #
face $-1 $169 $170 $21 $-1 $171 reversed single #
loop $-1 $-1 $172 $60 #
plane-surface $-1 25.811662708141018 71.842457053288072 73.81912854414368 -1 0 0 0 0.85716730853699208 0.51503806187062418 forward_v I I I I #
coedge $-1 $173 $174 $175 $176 reversed $61 $-1 #
coedge $-1 $103 $63 $177 $178 reversed $40 $-1 #
coedge $-1 $63 $102 $173 $179 reversed $40 $-1 #
coedge $-1 $175 $180 $63 $105 forward $181 $-1 #
edge $-1 $182 18.392715826108837 $183 21.578675939967809 $104 $184 forward 7 unknown #
loop $-1 $-1 $111 $64 #
plane-surface $-1 15.617350455358483 -0.52718971698133998 30.335059285320952 0 0.85716730853699208 0.51503806187062418 1 0 0 forward_v I I I I #
loop $-1 $-1 $185 $42 #
coedge $-1 $109 $109 $110 $186 reversed $65 $-1 #
coedge $-1 $110 $110 $109 $186 forward $67 $-1 #
coedge $-1 $111 $111 $68 $112 forward $106 $-1 #
edge $-1 $187 -5.3423263099783492e-016 $187 6.2831853071795996 $111 $188 forward 7 unknown #
loop $-1 $-1 $118 $69 #
plane-surface $-1 15.617350455358483 -0.52718971698133998 30.335059285320952 0 0.85716730853699208 0.51503806187062418 1 0 0 forward_v I I I I #
loop $-1 $-1 $189 $45 #
coedge $-1 $116 $116 $117 $190 reversed $70 $-1 #
coedge $-1 $117 $117 $116 $190 forward $72 $-1 #
coedge $-1 $118 $118 $73 $119 forward $113 $-1 #
edge $-1 $191 -5.3423263099783492e-016 $191 6.2831853071795996 $118 $192 forward 7 unknown #
face $-1 $193 $194 $18 $-1 $195 reversed single #
loop $-1 $-1 $196 $74 #
plane-surface $-1 -42.214423047578357 0 0 1 0 0 0 0 -1 forward_v I I I I #
coedge $-1 $197 $131 $198 $199 forward $75 $-1 #
coedge $-1 $200 $77 $197 $201 forward $49 $-1 #
coedge $-1 $77 $200 $202 $203 forward $49 $-1 #
coedge $-1 $134 $133 $77 $127 reversed $135 $-1 #
edge $-1 $204 -17.528512700535199 $205 17.528512700535199 $126 $206 forward 7 unknown #
coedge $-1 $79 $78 $207 $208 forward $31 $-1 #
coedge $-1 $209 $210 $78 $130 reversed $194 $-1 #
edge $-1 $137 -42.214423047578357 $211 42.214423047578357 $129 $212 forward 7 unknown #
coedge $-1 $123 $213 $79 $132 reversed $75 $-1 #
edge $-1 $214 -42.214423047578357 $136 42.214423047578357 $131 $215 forward 7 unknown #
coedge $-1 $126 $80 $213 $216 forward $135 $-1 #
coedge $-1 $80 $126 $209 $217 reversed $135 $-1 #
loop $-1 $-1 $133 $193 #
vertex $-1 $81 $218 #
vertex $-1 $81 $219 #
straight-curve $-1 42.214423047578357 0 5.5876514087618734 0 1 0 I I #
face $-1 $220 $151 $19 $-1 $221 reversed single #
loop $-1 $-1 $222 $82 #
plane-surface $-1 -49.55230688564658 -7.8702673868344526 0 1 0 0 0 0 -1 forward_v I I I I #
coedge $-1 $223 $224 $225 $226 forward $83 $-1 #
coedge $-1 $227 $85 $223 $228 forward $53 $-1 #
coedge $-1 $85 $227 $149 $229 forward $53 $-1 #
edge $-1 $152 6.3532098830114521 $230 9.3873248906574531 $85 $231 forward 7 unknown #
coedge $-1 $87 $86 $232 $233 forward $34 $-1 #
coedge $-1 $234 $235 $86 $148 forward $236 $-1 #
edge $-1 $237 -9.3873248906574531 $153 -6.3532098830114521 $147 $238 forward 7 unknown #
coedge $-1 $239 $88 $144 $229 reversed $151 $-1 #
coedge $-1 $88 $239 $234 $240 reversed $151 $-1 #
loop $-1 $-1 $88 $139 #
vertex $-1 $145 $241 #
vertex $-1 $240 $242 #
straight-curve $-1 -42.214423047578357 -6.3532098830114521 0 0 0 1 I I #
face $-1 $243 $244 $20 $-1 $245 reversed single #
loop $-1 $-1 $246 $90 #
plane-surface $-1 45.883364966612469 -6.3532098830114521 0 0 -1 0 0 0 -1 forward_v I I I I #
coedge $-1 $247 $93 $248 $249 forward $57 $-1 #
coedge $-1 $93 $247 $164 $250 forward $57 $-1 #
edge $-1 $166 -9.3873248906574531 $251 -6.3532098830114521 $93 $252 forward 7 unknown #
coedge $-1 $95 $94 $253 $254 forward $37 $-1 #
coedge $-1 $255 $256 $94 $163 forward $257 $-1 #
edge $-1 $258 6.3532098830114521 $167 9.3873248906574531 $162 $259 forward 7 unknown #
coedge $-1 $260 $96 $159 $250 reversed $91 $-1 #
coedge $-1 $96 $260 $255 $261 reversed $91 $-1 #
vertex $-1 $160 $262 #
vertex $-1 $261 $263 #
straight-curve $-1 42.214423047578357 -9.3873248906574531 0 0 0 1 I I #
face $-1 $-1 $181 $21 $-1 $264 forward single #
loop $-1 $-1 $265 $98 #
plane-surface $-1 0 17.528512700535199 0 0 -1 0 0 0 -1 forward_v I I I I #
coedge $-1 $266 $267 $268 $269 reversed $99 $-1 #
coedge $-1 $270 $101 $103 $179 forward $61 $-1 #
coedge $-1 $101 $270 $266 $271 forward $61 $-1 #
coedge $-1 $268 $104 $101 $176 forward $181 $-1 #
edge $-1 $183 -2.3856370251032928 $272 18.002987480461776 $175 $273 forward 7 unknown #
coedge $-1 $274 $275 $102 $178 forward $170 $-1 #
edge $-1 $276 -36.624241095099364 $182 -31.321912863309969 $177 $277 forward 7 unknown #
edge $-1 $183 28.871152259408735 $276 35.057025401070405 $103 $278 forward 7 unknown #
coedge $-1 $104 $268 $274 $279 forward $181 $-1 #
loop $-1 $-1 $268 $169 #
vertex $-1 $178 $280 #
vertex $-1 $105 $281 #
straight-curve $-1 5.4230382025759489 35.921228526644036 5.5876514087618716 0 -1 0 I I #
coedge $-1 $185 $185 $-1 $282 reversed $108 $-1 #
edge $-1 $283 0 $283 6.2831853071796004 $109 $284 forward 7 unknown #
vertex $-1 $112 $285 #
ellipse-curve $-1 11.248359489880258 15.935532643605713 2.9364872928671746 0 0.85716730853699208 0.51503806187062418 1 0 0 1 I I #
coedge $-1 $189 $189 $-1 $286 reversed $115 $-1 #
edge $-1 $287 0 $287 6.2831853071796004 $116 $288 forward 7 unknown #
vertex $-1 $119 $289 #
ellipse-curve $-1 19.986341420836716 15.935532643605713 2.9364872928671746 0 0.85716730853699208 0.51503806187062418 1 0 0 1 I I #
face $-1 $-1 $135 $18 $-1 $290 reversed single #
loop $-1 $-1 $209 $120 #
plane-surface $-1 0 17.528512700535199 0 0 -1 0 0 0 -1 forward_v I I I I #
coedge $-1 $291 $207 $210 $292 forward $121 $-1 #
coedge $-1 $213 $123 $124 $201 reversed $75 $-1 #
coedge $-1 $207 $291 $123 $199 reversed $121 $-1 #
edge $-1 $214 -5.5876514087618734 $293 5.5876514087618734 $198 $294 forward 7 unknown #
coedge $-1 $125 $124 $291 $295 forward $49 $-1 #
edge $-1 $205 -42.214423047578357 $293 42.214423047578357 $197 $296 forward 7 unknown #
coedge $-1 $210 $209 $125 $203 reversed $194 $-1 #
edge $-1 $297 -42.214423047578357 $204 42.214423047578357 $202 $298 forward 7 unknown #
vertex $-1 $127 $299 #
vertex $-1 $216 $300 #
straight-curve $-1 42.214423047578357 0 -5.5876514087618734 0 -1 0 I I #
coedge $-1 $196 $198 $128 $208 reversed $121 $-1 #
edge $-1 $211 -17.528512700535199 $214 17.528512700535199 $207 $301 forward 7 unknown #
coedge $-1 $202 $129 $134 $217 forward $194 $-1 #
coedge $-1 $129 $202 $196 $292 reversed $194 $-1 #
vertex $-1 $130 $302 #
straight-curve $-1 0 17.528512700535199 5.5876514087618734 -1 0 0 I I #
coedge $-1 $131 $197 $133 $216 reversed $75 $-1 #
vertex $-1 $208 $303 #
straight-curve $-1 0 -17.528512700535199 5.5876514087618734 1 0 0 I I #
edge $-1 $136 -5.5876514087618734 $205 5.5876514087618734 $133 $304 forward 7 unknown #
edge $-1 $137 -5.5876514087618734 $204 5.5876514087618734 $134 $305 forward 7 unknown #
point $-1 42.214423047578357 -17.528512700535199 5.5876514087618734 #
point $-1 42.214423047578357 17.528512700535199 5.5876514087618734 #
face $-1 $-1 $236 $19 $-1 $306 forward single #
plane-surface $-1 -45.883364966612469 -6.3532098830114521 0 0 -1 0 0 0 -1 forward_v I I I I #
coedge $-1 $307 $308 $239 $309 forward $140 $-1 #
coedge $-1 $232 $142 $143 $228 reversed $83 $-1 #
coedge $-1 $142 $232 $235 $310 reversed $83 $-1 #
coedge $-1 $308 $307 $142 $226 reversed $140 $-1 #
edge $-1 $311 -5.5876514087618734 $312 5.5876514087618734 $225 $313 forward 7 unknown #
coedge $-1 $144 $143 $307 $314 forward $53 $-1 #
edge $-1 $230 -3.6689419190341113 $312 3.6689419190341113 $223 $315 forward 7 unknown #
edge $-1 $316 -3.6689419190341113 $152 3.6689419190341113 $149 $317 forward 7 unknown #
vertex $-1 $228 $318 #
straight-curve $-1 -42.214423047578357 0 -5.5876514087618734 0 -1 0 I I #
coedge $-1 $224 $223 $146 $233 reversed $83 $-1 #
edge $-1 $237 -5.5876514087618734 $230 5.5876514087618734 $232 $319 forward 7 unknown #
coedge $-1 $320 $147 $150 $240 forward $236 $-1 #
coedge $-1 $147 $320 $224 $310 forward $236 $-1 #
loop $-1 $-1 $147 $220 #
vertex $-1 $148 $321 #
straight-curve $-1 -42.214423047578357 0 5.5876514087618734 0 1 0 I I #
coedge $-1 $150 $149 $222 $309 reversed $151 $-1 #
edge $-1 $153 -3.6689419190341113 $322 3.6689419190341113 $150 $323 forward 7 unknown #
point $-1 -42.214423047578357 -6.3532098830114521 -5.5876514087618734 #
point $-1 -42.214423047578357 -6.3532098830114521 5.5876514087618734 #
face $-1 $-1 $257 $20 $-1 $324 forward single #
loop $-1 $-1 $325 $155 #
plane-surface $-1 49.55230688564658 -7.8702673868344526 0 -1 0 0 0 0 1 forward_v I I I I #
coedge $-1 $248 $326 $327 $328 forward $156 $-1 #
coedge $-1 $159 $158 $329 $330 forward $57 $-1 #
coedge $-1 $253 $246 $158 $249 reversed $156 $-1 #
edge $-1 $251 -3.6689419190341113 $331 3.6689419190341113 $248 $332 forward 7 unknown #
edge $-1 $333 -3.6689419190341113 $166 3.6689419190341113 $164 $334 forward 7 unknown #
vertex $-1 $249 $335 #
straight-curve $-1 42.214423047578357 0 -5.5876514087618734 0 1 0 I I #
coedge $-1 $326 $248 $161 $254 reversed $156 $-1 #
edge $-1 $258 -5.5876514087618734 $251 5.5876514087618734 $253 $336 forward 7 unknown #
coedge $-1 $337 $162 $165 $261 forward $257 $-1 #
coedge $-1 $162 $337 $326 $338 forward $257 $-1 #
loop $-1 $-1 $162 $243 #
vertex $-1 $163 $339 #
straight-curve $-1 42.214423047578357 0 5.5876514087618734 0 -1 0 I I #
coedge $-1 $165 $164 $325 $340 reversed $91 $-1 #
edge $-1 $167 -3.6689419190341113 $341 3.6689419190341113 $165 $342 forward 7 unknown #
point $-1 42.214423047578357 -9.3873248906574531 -5.5876514087618734 #
point $-1 42.214423047578357 -9.3873248906574531 5.5876514087618734 #
plane-surface $-1 0 0 5.5876514087618734 0 0 1 1 0 0 forward_v I I I I #
coedge $-1 $275 $274 $267 $343 forward $170 $-1 #
coedge $-1 $267 $172 $174 $271 reversed $99 $-1 #
coedge $-1 $172 $266 $265 $343 reversed $99 $-1 #
coedge $-1 $180 $175 $172 $269 forward $181 $-1 #
edge $-1 $272 -21.578675939967809 $344 -18.392715826108837 $268 $345 forward 7 unknown #
coedge $-1 $174 $173 $275 $346 reversed $61 $-1 #
edge $-1 $347 -35.057025401070405 $272 -28.871152259408735 $266 $348 forward 7 unknown #
vertex $-1 $176 $349 #
straight-curve $-1 7.8086752276792417 14.342552586676224 5.5876514087618734 1 0 0 I I #
coedge $-1 $265 $177 $180 $279 reversed $170 $-1 #
coedge $-1 $177 $265 $270 $346 forward $170 $-1 #
vertex $-1 $178 $350 #
straight-curve $-1 5.4230382025759489 17.528512700535199 36.90956427207184 0 0 1 I I #
straight-curve $-1 5.4230382025759489 -0.52718971698133998 30.335059285320952 0 0.51503806187062418 -0.85716730853699208 I I #
edge $-1 $344 -25.811662708141018 $182 -5.4230382025759489 $274 $351 forward 7 unknown #
point $-1 5.4230382025759489 17.528512700535199 5.5876514087618734 #
point $-1 5.4230382025759489 14.342552586676227 5.5876514087618716 #
edge $-1 $352 1 $352 0 $185 $-1 forward 7 unknown #
vertex $-1 $186 $353 #
ellipse-curve $-1 11.248359489880258 14.988507560331193 2.3674572347037679 0 0.85716730853699208 0.51503806187062418 1 0 0 1 I I #
point $-1 12.248359489880258 15.935532643605711 2.9364872928671741 #
edge $-1 $354 1 $354 0 $189 $-1 forward 7 unknown #
vertex $-1 $190 $355 #
ellipse-curve $-1 19.986341420836716 14.988507560331193 2.3674572347037679 0 0.85716730853699208 0.51503806187062418 1 0 0 1 I I #
point $-1 20.986341420836716 15.935532643605711 2.9364872928671741 #
plane-surface $-1 42.214423047578357 0 0 -1 0 0 0 0 1 forward_v I I I I #
coedge $-1 $198 $196 $200 $295 reversed $121 $-1 #
edge $-1 $211 -5.5876514087618734 $297 5.5876514087618734 $210 $356 forward 7 unknown #
vertex $-1 $295 $357 #
straight-curve $-1 -42.214423047578357 -17.528512700535199 0 0 0 -1 I I #
edge $-1 $293 -17.528512700535199 $297 17.528512700535199 $291 $358 forward 7 unknown #
straight-curve $-1 0 -17.528512700535199 -5.5876514087618734 -1 0 0 I I #
vertex $-1 $203 $359 #
straight-curve $-1 0 17.528512700535199 -5.5876514087618734 1 0 0 I I #
point $-1 42.214423047578357 17.528512700535199 -5.5876514087618734 #
point $-1 42.214423047578357 -17.528512700535199 -5.5876514087618734 #
straight-curve $-1 -42.214423047578357 0 5.5876514087618734 0 -1 0 I I #
point $-1 -42.214423047578357 17.528512700535199 5.5876514087618734 #
point $-1 -42.214423047578357 -17.528512700535199 5.5876514087618734 #
straight-curve $-1 42.214423047578357 -17.528512700535199 0 0 0 -1 I I #
straight-curve $-1 42.214423047578357 17.528512700535199 0 0 0 -1 I I #
plane-surface $-1 0 0 5.5876514087618734 0 0 1 1 0 0 forward_v I I I I #
coedge $-1 $225 $222 $227 $314 reversed $140 $-1 #
coedge $-1 $222 $225 $320 $360 reversed $140 $-1 #
edge $-1 $322 -5.5876514087618734 $316 5.5876514087618734 $239 $361 forward 7 unknown #
edge $-1 $311 -3.6689419190341113 $237 3.6689419190341113 $224 $362 forward 7 unknown #
vertex $-1 $360 $363 #
vertex $-1 $314 $364 #
straight-curve $-1 -49.55230688564658 -9.3873248906574531 0 0 0 -1 I I #
edge $-1 $312 -1.5170575038230005 $316 1.5170575038230005 $307 $365 forward 7 unknown #
straight-curve $-1 -45.883364966612469 -9.3873248906574531 -5.5876514087618734 -1 0 0 I I #
vertex $-1 $229 $366 #
straight-curve $-1 -45.883364966612469 -6.3532098830114521 -5.5876514087618734 1 0 0 I I #
point $-1 -42.214423047578357 -9.3873248906574531 -5.5876514087618734 #
straight-curve $-1 -42.214423047578357 -9.3873248906574531 0 0 0 -1 I I #
coedge $-1 $235 $234 $308 $360 forward $236 $-1 #
point $-1 -42.214423047578357 -9.3873248906574531 5.5876514087618734 #
vertex $-1 $240 $367 #
straight-curve $-1 -45.883364966612469 -6.3532098830114521 5.5876514087618734 -1 0 0 I I #
plane-surface $-1 0 0 5.5876514087618734 0 0 1 1 0 0 forward_v I I I I #
coedge $-1 $329 $368 $260 $340 forward $244 $-1 #
coedge $-1 $246 $253 $256 $338 reversed $156 $-1 #
coedge $-1 $368 $329 $246 $328 reversed $244 $-1 #
edge $-1 $369 -5.5876514087618734 $331 5.5876514087618734 $327 $370 forward 7 unknown #
coedge $-1 $327 $325 $247 $330 reversed $244 $-1 #
edge $-1 $331 -1.5170575038230005 $333 1.5170575038230005 $329 $371 forward 7 unknown #
vertex $-1 $330 $372 #
straight-curve $-1 45.883364966612469 -6.3532098830114521 -5.5876514087618734 1 0 0 I I #
vertex $-1 $340 $373 #
straight-curve $-1 45.883364966612469 -9.3873248906574531 -5.5876514087618734 -1 0 0 I I #
point $-1 42.214423047578357 -6.3532098830114521 -5.5876514087618734 #
straight-curve $-1 42.214423047578357 -6.3532098830114521 0 0 0 -1 I I #
coedge $-1 $256 $255 $368 $374 forward $257 $-1 #
edge $-1 $369 -3.6689419190341113 $258 3.6689419190341113 $326 $375 forward 7 unknown #
point $-1 42.214423047578357 -6.3532098830114521 5.5876514087618734 #
edge $-1 $341 -5.5876514087618734 $333 5.5876514087618734 $325 $376 forward 7 unknown #
vertex $-1 $374 $377 #
straight-curve $-1 45.883364966612469 -9.3873248906574531 5.5876514087618734 1 0 0 I I #
edge $-1 $344 31.321912863309969 $347 36.624241095099364 $265 $378 forward 7 unknown #
vertex $-1 $279 $379 #
straight-curve $-1 25.811662708141018 35.921228526644036 5.5876514087618716 0 1 0 I I #
edge $-1 $347 -18.002987480461776 $276 2.3856370251032928 $275 $380 forward 7 unknown #
vertex $-1 $346 $381 #
straight-curve $-1 25.811662708141018 -0.52718971698133998 30.335059285320952 0 -0.51503806187062418 0.85716730853699208 I I #
point $-1 25.811662708141018 14.342552586676227 5.5876514087618716 #
point $-1 5.4230382025759489 17.528512700535199 0.28532317697247578 #
straight-curve $-1 0 17.528512700535199 5.5876514087618734 -1 0 0 I I #
vertex $-1 $282 $382 #
point $-1 12.248359489880258 14.988507560331193 2.3674572347037679 #
vertex $-1 $286 $383 #
point $-1 20.986341420836716 14.988507560331193 2.3674572347037679 #
straight-curve $-1 -42.214423047578357 17.528512700535199 0 0 0 -1 I I #
point $-1 -42.214423047578357 -17.528512700535199 -5.5876514087618734 #
straight-curve $-1 -42.214423047578357 0 -5.5876514087618734 0 1 0 I I #
point $-1 -42.214423047578357 17.528512700535199 -5.5876514087618734 #
edge $-1 $322 -1.5170575038230005 $311 1.5170575038230005 $308 $384 forward 7 unknown #
straight-curve $-1 -49.55230688564658 -6.3532098830114521 0 0 0 -1 I I #
straight-curve $-1 -45.883364966612469 -9.3873248906574531 5.5876514087618734 1 0 0 I I #
point $-1 -49.55230688564658 -9.3873248906574531 5.5876514087618734 #
point $-1 -49.55230688564658 -9.3873248906574531 -5.5876514087618734 #
straight-curve $-1 -49.55230688564658 -7.8702673868344526 -5.5876514087618734 0 1 0 I I #
point $-1 -49.55230688564658 -6.3532098830114521 -5.5876514087618734 #
point $-1 -49.55230688564658 -6.3532098830114521 5.5876514087618734 #
coedge $-1 $325 $327 $337 $374 reversed $244 $-1 #
vertex $-1 $374 $385 #
straight-curve $-1 49.55230688564658 -6.3532098830114521 0 0 0 -1 I I #
straight-curve $-1 49.55230688564658 -7.8702673868344526 -5.5876514087618734 0 -1 0 I I #
point $-1 49.55230688564658 -6.3532098830114521 -5.5876514087618734 #
point $-1 49.55230688564658 -9.3873248906574531 -5.5876514087618734 #
edge $-1 $341 -1.5170575038230005 $369 1.5170575038230005 $368 $386 forward 7 unknown #
straight-curve $-1 45.883364966612469 -6.3532098830114521 5.5876514087618734 -1 0 0 I I #
straight-curve $-1 49.55230688564658 -9.3873248906574531 0 0 0 -1 I I #
point $-1 49.55230688564658 -9.3873248906574531 5.5876514087618734 #
straight-curve $-1 25.811662708141018 17.528512700535199 36.90956427207184 0 0 -1 I I #
point $-1 25.811662708141018 17.528512700535199 5.5876514087618734 #
straight-curve $-1 7.8086752276792417 17.528512700535199 0.28532317697247223 -1 0 0 I I #
point $-1 25.811662708141018 17.528512700535199 0.28532317697247578 #
point $-1 11.248359489880258 14.1313402517942 1.8524191728331438 #
point $-1 19.986341420836716 14.1313402517942 1.8524191728331438 #
straight-curve $-1 -49.55230688564658 -7.8702673868344526 5.5876514087618734 0 -1 0 I I #
point $-1 49.55230688564658 -6.3532098830114521 5.5876514087618734 #
straight-curve $-1 49.55230688564658 -7.8702673868344526 5.5876514087618734 0 1 0 I I #
End-of-ACIS-data 