500 0 11 0           
7 Unknown 11 ACIS 5.0 NT 24 Thu Mar 25 22:54:23 1999 
-1 9.9999999999999995e-007 1e-010 
body $-1 $11 $-1 $12 #
body $-1 $13 $-1 $14 #
body $-1 $15 $-1 $16 #
body $-1 $17 $-1 $18 #
body $-1 $19 $-1 $20 #
body $-1 $21 $-1 $22 #
body $-1 $23 $-1 $24 #
body $-1 $25 $-1 $26 #
body $-1 $27 $-1 $28 #
body $-1 $29 $-1 $30 #
body $-1 $31 $-1 $32 #
lump $-1 $-1 $33 $0 #
transform $-1 1 0 0 0 1 0 0 0 1 46.551713614307076 26.971779014484689 5.417815249959923 1 rotate no_reflect no_shear #
lump $-1 $-1 $34 $1 #
transform $-1 1 0 0 0 1 0 0 0 1 46.551713614307076 26.971779014484689 5.417815249959923 1 rotate no_reflect no_shear #
lump $-1 $-1 $35 $2 #
transform $-1 1 0 0 0 1 0 0 0 1 46.551713614307076 26.971779014484689 5.417815249959923 1 rotate no_reflect no_shear #
lump $-1 $-1 $36 $3 #
transform $-1 1 0 0 0 1 0 0 0 1 46.551713614307076 26.971779014484689 5.417815249959923 1 rotate no_reflect no_shear #
lump $-1 $-1 $37 $4 #
transform $-1 1 0 0 0 1 0 0 0 1 46.551713614307076 26.971779014484689 5.417815249959923 1 rotate no_reflect no_shear #
lump $-1 $-1 $38 $5 #
transform $-1 1 0 0 0 1 0 0 0 1 46.551713614307076 26.971779014484689 5.417815249959923 1 rotate no_reflect no_shear #
lump $-1 $-1 $39 $6 #
transform $-1 1 0 0 0 1 0 0 0 1 46.551713614307076 26.971779014484689 5.417815249959923 1 rotate no_reflect no_shear #
lump $-1 $-1 $40 $7 #
transform $-1 1 0 0 0 1 0 0 0 1 46.551713614307076 26.971779014484689 5.417815249959923 1 rotate no_reflect no_shear #
lump $-1 $-1 $41 $8 #
transform $-1 1 0 0 0 1 0 0 0 1 46.551713614307076 26.971779014484689 5.417815249959923 1 rotate no_reflect no_shear #
lump $-1 $-1 $42 $9 #
transform $-1 1 0 0 0 1 0 0 0 1 46.551713614307076 26.971779014484689 5.417815249959923 1 rotate no_reflect no_shear #
lump $-1 $-1 $43 $10 #
transform $-1 1 0 0 0 1 0 0 0 1 46.551713614307076 26.971779014484689 5.417815249959923 1 rotate no_reflect no_shear #
shell $-1 $-1 $-1 $44 $-1 $11 #
shell $-1 $-1 $-1 $45 $-1 $13 #
shell $-1 $-1 $-1 $46 $-1 $15 #
shell $-1 $-1 $-1 $47 $-1 $17 #
shell $-1 $-1 $-1 $48 $-1 $19 #
shell $-1 $-1 $-1 $49 $-1 $21 #
shell $-1 $-1 $-1 $50 $-1 $23 #
shell $-1 $-1 $-1 $51 $-1 $25 #
shell $-1 $-1 $-1 $52 $-1 $27 #
shell $-1 $-1 $-1 $53 $-1 $29 #
shell $-1 $-1 $-1 $54 $-1 $31 #
face $-1 $55 $56 $33 $-1 $57 reversed single #
face $-1 $58 $59 $34 $-1 $60 forward single #
face $-1 $61 $62 $35 $-1 $63 forward single #
face $-1 $64 $65 $36 $-1 $66 reversed single #
face $-1 $67 $68 $37 $-1 $69 forward single #
face $-1 $70 $71 $38 $-1 $72 forward single #
face $-1 $73 $74 $39 $-1 $75 forward single #
face $-1 $76 $77 $40 $-1 $78 reversed single #
face $-1 $79 $80 $41 $-1 $81 forward single #
face $-1 $82 $83 $42 $-1 $84 forward single #
face $-1 $85 $86 $43 $-1 $87 forward single #
face $-1 $88 $89 $33 $-1 $90 forward single #
loop $-1 $-1 $91 $44 #
plane-surface $-1 0 26.971779014484689 0 0 -1 0 0 0 -1 forward_v I I I I #
face $-1 $92 $93 $34 $-1 $94 forward single #
loop $-1 $-1 $95 $45 #
plane-surface $-1 0 -26.971779014484689 0 0 1 0 0 0 1 forward_v I I I I #
face $-1 $96 $97 $35 $-1 $98 reversed single #
loop $-1 $-1 $99 $46 #
plane-surface $-1 0 26.971779014484689 0 0 -1 0 0 0 -1 forward_v I I I I #
face $-1 $100 $101 $36 $-1 $102 reversed single #
loop $-1 $-1 $103 $47 #
plane-surface $-1 55.736419691451374 -8.7199202034485239 133.10605842354943 0 -1 0 -0.75470958851134928 0 -0.65605901945558964 forward_v I I I I #
face $-1 $104 $105 $37 $-1 $106 forward single #
loop $-1 $107 $108 $48 #
cone-surface $-1 44.583933901243881 -17.665845035043862 3.2602111128952922 -0.75470958851134928 0 -0.65605901945558964 0.32802950972779482 0 -0.37735479425567464 1 I I 0 1 0.5 forward I I I I #
face $-1 $109 $110 $38 $-1 $111 forward single #
loop $-1 $112 $113 $49 #
cone-surface $-1 44.583933901243881 -14.31112322319561 3.2602111128952922 -0.75470958851134928 0 -0.65605901945558964 0.32802950972779482 0 -0.37735479425567464 1 I I 0 1 0.5 forward I I I I #
face $-1 $114 $115 $39 $-1 $116 forward single #
loop $-1 $117 $118 $50 #
cone-surface $-1 44.583933901243881 -10.956401411347358 3.2602111128952922 -0.75470958851134928 0 -0.65605901945558964 0.32802950972779482 0 -0.37735479425567464 1 I I 0 1 0.5 forward I I I I #
face $-1 $119 $120 $40 $-1 $121 reversed single #
loop $-1 $-1 $122 $51 #
plane-surface $-1 -116.81776286701081 -19.902326242942696 62.840009170845697 0 1 0 -0.75470958851134928 0 0.65605901945558964 forward_v I I I I #
face $-1 $123 $124 $41 $-1 $125 forward single #
loop $-1 $126 $127 $52 #
cone-surface $-1 -44.583933901243867 -17.665845035043862 3.2602111128952957 0.75470958851134928 0 -0.65605901945558964 0.32802950972779482 0 0.37735479425567464 1 I I 0 1 0.5 forward I I I I #
face $-1 $128 $129 $42 $-1 $130 forward single #
loop $-1 $131 $132 $53 #
cone-surface $-1 -44.583933901243867 -14.31112322319561 3.2602111128952957 0.75470958851134928 0 -0.65605901945558964 0.32802950972779482 0 0.37735479425567464 1 I I 0 1 0.5 forward I I I I #
face $-1 $133 $134 $43 $-1 $135 forward single #
loop $-1 $136 $137 $54 #
cone-surface $-1 -44.583933901243867 -10.956401411347358 3.2602111128952957 0.75470958851134928 0 -0.65605901945558964 0.32802950972779482 0 0.37735479425567464 1 I I 0 1 0.5 forward I I I I #
face $-1 $138 $139 $33 $-1 $140 reversed single #
loop $-1 $-1 $141 $55 #
plane-surface $-1 0 0 5.417815249959923 0 0 1 1 0 0 forward_v I I I I #
coedge $-1 $142 $143 $144 $145 reversed $56 $-1 #
face $-1 $146 $147 $34 $-1 $148 reversed single #
loop $-1 $-1 $149 $58 #
plane-surface $-1 0 0 5.417815249959923 0 0 1 1 0 0 forward_v I I I I #
coedge $-1 $150 $151 $152 $153 forward $59 $-1 #
face $-1 $154 $155 $35 $-1 $156 reversed single #
loop $-1 $-1 $157 $61 #
plane-surface $-1 0 0 -5.417815249959923 0 0 1 1 0 0 forward_v I I I I #
coedge $-1 $158 $159 $160 $161 forward $62 $-1 #
face $-1 $162 $163 $36 $-1 $164 reversed single #
loop $-1 $-1 $165 $64 #
plane-surface $-1 -14.529629561252364 -14.31112322319561 72.024715247989974 0.75470958851134928 0 0.65605901945558964 0.65605901945558964 0 -0.75470958851134928 forward_v I I I I #
coedge $-1 $166 $167 $168 $169 reversed $65 $-1 #
face $-1 $-1 $170 $37 $-1 $171 forward single #
loop $-1 $172 $173 $67 #
cone-surface $-1 44.017901709860368 -17.665845035043862 2.7681668483035997 -0.75470958851134928 0 -0.65605901945558964 0.16401475486389741 0 -0.18867739712783732 1 I I -0.70710678118654746 0.70710678118654746 0.25 forward I I I I #
loop $-1 $-1 $174 $48 #
coedge $-1 $108 $108 $175 $176 reversed $68 $-1 #
face $-1 $-1 $177 $38 $-1 $178 forward single #
loop $-1 $179 $180 $70 #
cone-surface $-1 44.017901709860368 -14.31112322319561 2.7681668483035997 -0.75470958851134928 0 -0.65605901945558964 0.16401475486389741 0 -0.18867739712783732 1 I I -0.70710678118654746 0.70710678118654746 0.25 forward I I I I #
loop $-1 $-1 $181 $49 #
coedge $-1 $113 $113 $182 $183 reversed $71 $-1 #
face $-1 $-1 $184 $39 $-1 $185 forward single #
loop $-1 $186 $187 $73 #
cone-surface $-1 44.017901709860368 -10.956401411347358 2.7681668483035997 -0.75470958851134928 0 -0.65605901945558964 0.16401475486389741 0 -0.18867739712783732 1 I I -0.70710678118654746 0.70710678118654746 0.25 forward I I I I #
loop $-1 $-1 $188 $50 #
coedge $-1 $118 $118 $189 $190 reversed $74 $-1 #
face $-1 $191 $192 $40 $-1 $193 reversed single #
loop $-1 $-1 $194 $76 #
plane-surface $-1 -46.551713614307076 -14.31112322319561 1.7586659952862504 -0.75470958851134928 0 0.65605901945558964 0.65605901945558964 0 0.75470958851134928 forward_v I I I I #
coedge $-1 $195 $196 $197 $198 reversed $77 $-1 #
face $-1 $-1 $199 $41 $-1 $200 forward single #
loop $-1 $201 $202 $79 #
cone-surface $-1 -44.017901709860354 -17.665845035043862 2.7681668483036033 0.75470958851134928 0 -0.65605901945558964 0.16401475486389741 0 0.18867739712783732 1 I I -0.70710678118654746 0.70710678118654746 0.25 forward I I I I #
loop $-1 $-1 $203 $52 #
coedge $-1 $127 $127 $204 $205 reversed $80 $-1 #
face $-1 $-1 $206 $42 $-1 $207 forward single #
loop $-1 $208 $209 $82 #
cone-surface $-1 -44.017901709860354 -14.31112322319561 2.7681668483036033 0.75470958851134928 0 -0.65605901945558964 0.16401475486389741 0 0.18867739712783732 1 I I -0.70710678118654746 0.70710678118654746 0.25 forward I I I I #
loop $-1 $-1 $210 $53 #
coedge $-1 $132 $132 $211 $212 reversed $83 $-1 #
face $-1 $-1 $213 $43 $-1 $214 forward single #
loop $-1 $215 $216 $85 #
cone-surface $-1 -44.017901709860354 -10.956401411347358 2.7681668483036033 0.75470958851134928 0 -0.65605901945558964 0.16401475486389741 0 0.18867739712783732 1 I I -0.70710678118654746 0.70710678118654746 0.25 forward I I I I #
loop $-1 $-1 $217 $54 #
coedge $-1 $137 $137 $218 $219 reversed $86 $-1 #
face $-1 $220 $221 $33 $-1 $222 reversed single #
loop $-1 $-1 $223 $88 #
plane-surface $-1 0 0 -5.417815249959923 0 0 1 1 0 0 forward_v I I I I #
coedge $-1 $224 $225 $226 $227 forward $89 $-1 #
coedge $-1 $228 $91 $229 $230 reversed $56 $-1 #
coedge $-1 $91 $228 $231 $232 forward $56 $-1 #
coedge $-1 $223 $233 $91 $145 forward $139 $-1 #
edge $-1 $234 -46.551713614307076 $235 46.551713614307076 $91 $236 forward 7 unknown #
face $-1 $237 $238 $34 $-1 $239 reversed single #
loop $-1 $-1 $240 $92 #
plane-surface $-1 -46.551713614307076 0 0 1 0 0 0 0 -1 forward_v I I I I #
coedge $-1 $241 $242 $243 $244 forward $93 $-1 #
coedge $-1 $243 $95 $240 $245 reversed $59 $-1 #
coedge $-1 $95 $243 $246 $247 reversed $59 $-1 #
coedge $-1 $248 $249 $95 $153 reversed $238 $-1 #
edge $-1 $250 -46.551713614307076 $251 46.551713614307076 $152 $252 forward 7 unknown #
face $-1 $253 $254 $35 $-1 $255 reversed single #
loop $-1 $-1 $256 $96 #
plane-surface $-1 -38.716083114387231 29.131343949535015 0 1 0 0 0 0 -1 forward_v I I I I #
coedge $-1 $257 $258 $159 $259 forward $97 $-1 #
coedge $-1 $260 $99 $261 $262 reversed $62 $-1 #
coedge $-1 $99 $260 $157 $259 reversed $62 $-1 #
coedge $-1 $263 $264 $99 $161 reversed $265 $-1 #
edge $-1 $266 -5.417815249959923 $267 5.417815249959923 $160 $268 forward 7 unknown #
face $-1 $269 $270 $36 $-1 $271 reversed single #
loop $-1 $-1 $272 $100 #
plane-surface $-1 55.736419691451374 -19.902326242942696 133.10605842354943 0 1 0 0.75470958851134928 0 0.65605901945558964 forward_v I I I I #
coedge $-1 $273 $274 $275 $276 reversed $101 $-1 #
coedge $-1 $167 $103 $277 $278 reversed $65 $-1 #
coedge $-1 $103 $166 $273 $279 reversed $65 $-1 #
coedge $-1 $275 $280 $103 $169 forward $281 $-1 #
edge $-1 $282 -18.683503768581389 $283 -15.502653930966311 $168 $284 forward 7 unknown #
loop $-1 $-1 $175 $104 #
plane-surface $-1 -14.529629561252364 -14.31112322319561 72.024715247989974 0.75470958851134928 0 0.65605901945558964 0.65605901945558964 0 -0.75470958851134928 forward_v I I I I #
loop $-1 $-1 $285 $67 #
coedge $-1 $173 $173 $174 $286 reversed $105 $-1 #
coedge $-1 $174 $174 $173 $286 forward $107 $-1 #
coedge $-1 $175 $175 $108 $176 forward $170 $-1 #
edge $-1 $287 0 $287 6.2831853071796004 $175 $288 forward 7 unknown #
loop $-1 $-1 $182 $109 #
plane-surface $-1 -14.529629561252364 -14.31112322319561 72.024715247989974 0.75470958851134928 0 0.65605901945558964 0.65605901945558964 0 -0.75470958851134928 forward_v I I I I #
loop $-1 $-1 $289 $70 #
coedge $-1 $180 $180 $181 $290 reversed $110 $-1 #
coedge $-1 $181 $181 $180 $290 forward $112 $-1 #
coedge $-1 $182 $182 $113 $183 forward $177 $-1 #
edge $-1 $291 0 $291 6.2831853071796004 $182 $292 forward 7 unknown #
loop $-1 $-1 $189 $114 #
plane-surface $-1 -14.529629561252364 -14.31112322319561 72.024715247989974 0.75470958851134928 0 0.65605901945558964 0.65605901945558964 0 -0.75470958851134928 forward_v I I I I #
loop $-1 $-1 $293 $73 #
coedge $-1 $187 $187 $188 $294 reversed $115 $-1 #
coedge $-1 $188 $188 $187 $294 forward $117 $-1 #
coedge $-1 $189 $189 $118 $190 forward $184 $-1 #
edge $-1 $295 0 $295 6.2831853071796004 $189 $296 forward 7 unknown #
face $-1 $297 $298 $40 $-1 $299 forward single #
loop $-1 $-1 $300 $119 #
plane-surface $-1 -116.81776286701081 -8.7199202034485239 62.840009170845697 0 -1 0 0.75470958851134928 0 -0.65605901945558964 forward_v I I I I #
coedge $-1 $301 $302 $303 $304 reversed $120 $-1 #
coedge $-1 $196 $122 $305 $306 reversed $77 $-1 #
coedge $-1 $122 $195 $301 $307 reversed $77 $-1 #
coedge $-1 $303 $308 $122 $198 forward $298 $-1 #
edge $-1 $309 11.857167819198331 $310 15.038017656813402 $197 $311 forward 7 unknown #
loop $-1 $-1 $204 $123 #
plane-surface $-1 -46.551713614307076 -14.31112322319561 1.7586659952862504 -0.75470958851134928 0 0.65605901945558964 0.65605901945558964 0 0.75470958851134928 forward_v I I I I #
loop $-1 $-1 $312 $79 #
coedge $-1 $202 $202 $203 $313 reversed $124 $-1 #
coedge $-1 $203 $203 $202 $313 forward $126 $-1 #
coedge $-1 $204 $204 $127 $205 forward $199 $-1 #
edge $-1 $314 0 $314 6.2831853071796004 $204 $315 forward 7 unknown #
loop $-1 $-1 $211 $128 #
plane-surface $-1 -46.551713614307076 -14.31112322319561 1.7586659952862504 -0.75470958851134928 0 0.65605901945558964 0.65605901945558964 0 0.75470958851134928 forward_v I I I I #
loop $-1 $-1 $316 $82 #
coedge $-1 $209 $209 $210 $317 reversed $129 $-1 #
coedge $-1 $210 $210 $209 $317 forward $131 $-1 #
coedge $-1 $211 $211 $132 $212 forward $206 $-1 #
edge $-1 $318 0 $318 6.2831853071796004 $211 $319 forward 7 unknown #
loop $-1 $-1 $218 $133 #
plane-surface $-1 -46.551713614307076 -14.31112322319561 1.7586659952862504 -0.75470958851134928 0 0.65605901945558964 0.65605901945558964 0 0.75470958851134928 forward_v I I I I #
loop $-1 $-1 $320 $85 #
coedge $-1 $216 $216 $217 $321 reversed $134 $-1 #
coedge $-1 $217 $217 $216 $321 forward $136 $-1 #
coedge $-1 $218 $218 $137 $219 forward $213 $-1 #
edge $-1 $322 0 $322 6.2831853071796004 $218 $323 forward 7 unknown #
face $-1 $324 $325 $33 $-1 $326 reversed single #
loop $-1 $-1 $327 $138 #
plane-surface $-1 0 -26.971779014484689 0 0 1 0 0 0 1 forward_v I I I I #
coedge $-1 $328 $144 $329 $330 forward $139 $-1 #
coedge $-1 $331 $141 $228 $332 forward $89 $-1 #
coedge $-1 $141 $331 $333 $334 forward $89 $-1 #
coedge $-1 $335 $231 $141 $227 reversed $336 $-1 #
edge $-1 $337 -26.971779014484689 $338 26.971779014484689 $226 $339 forward 7 unknown #
coedge $-1 $143 $142 $224 $332 reversed $56 $-1 #
coedge $-1 $340 $341 $142 $230 forward $325 $-1 #
edge $-1 $342 -5.417815249959923 $234 5.417815249959923 $142 $343 forward 7 unknown #
coedge $-1 $226 $329 $143 $232 reversed $336 $-1 #
edge $-1 $338 -5.417815249959923 $235 5.417815249959923 $231 $344 forward 7 unknown #
coedge $-1 $144 $328 $340 $345 forward $139 $-1 #
vertex $-1 $145 $346 #
vertex $-1 $330 $347 #
straight-curve $-1 0 26.971779014484689 -5.417815249959923 1 0 0 I I #
face $-1 $348 $349 $34 $-1 $350 reversed single #
loop $-1 $-1 $248 $146 #
plane-surface $-1 0 -30.506505400255683 2.417815249959923 0 0 1 1 0 0 forward_v I I I I #
coedge $-1 $351 $352 $150 $245 forward $147 $-1 #
coedge $-1 $353 $149 $352 $354 forward $93 $-1 #
coedge $-1 $149 $353 $355 $356 forward $93 $-1 #
coedge $-1 $151 $150 $149 $244 reversed $59 $-1 #
edge $-1 $357 -46.551713614307076 $358 46.551713614307076 $149 $359 forward 7 unknown #
edge $-1 $358 -5.417815249959923 $251 -2.417815249959923 $240 $360 forward 7 unknown #
coedge $-1 $355 $361 $151 $247 forward $362 $-1 #
edge $-1 $250 2.417815249959923 $357 5.417815249959923 $246 $363 forward 7 unknown #
coedge $-1 $364 $152 $361 $365 forward $238 $-1 #
coedge $-1 $152 $364 $351 $366 forward $238 $-1 #
vertex $-1 $247 $367 #
vertex $-1 $245 $368 #
straight-curve $-1 0 -26.971779014484689 2.417815249959923 -1 0 0 I I #
face $-1 $369 $265 $35 $-1 $370 reversed single #
loop $-1 $-1 $371 $154 #
plane-surface $-1 -37.216083114387231 31.290908884585342 0 0 -1 0 0 0 -1 forward_v I I I I #
coedge $-1 $372 $373 $374 $375 forward $155 $-1 #
coedge $-1 $376 $157 $372 $377 forward $97 $-1 #
coedge $-1 $157 $376 $263 $378 forward $97 $-1 #
edge $-1 $266 35.716083114387231 $379 38.716083114387231 $157 $380 forward 7 unknown #
coedge $-1 $159 $158 $381 $382 forward $62 $-1 #
coedge $-1 $383 $384 $158 $262 forward $385 $-1 #
edge $-1 $386 -38.716083114387231 $267 -35.716083114387231 $261 $387 forward 7 unknown #
coedge $-1 $388 $160 $258 $378 reversed $265 $-1 #
coedge $-1 $160 $388 $383 $389 reversed $265 $-1 #
loop $-1 $-1 $160 $253 #
vertex $-1 $259 $390 #
vertex $-1 $389 $391 #
straight-curve $-1 -35.716083114387231 26.971779014484689 0 0 0 1 I I #
face $-1 $-1 $281 $36 $-1 $392 forward single #
loop $-1 $-1 $393 $162 #
plane-surface $-1 46.551713614307076 0 0 -1 0 0 0 0 1 forward_v I I I I #
coedge $-1 $394 $395 $396 $397 reversed $163 $-1 #
coedge $-1 $398 $165 $167 $279 forward $101 $-1 #
coedge $-1 $165 $398 $394 $399 forward $101 $-1 #
coedge $-1 $396 $168 $165 $276 forward $281 $-1 #
edge $-1 $283 1.564358591850719 $400 12.746764631344892 $275 $401 forward 7 unknown #
coedge $-1 $402 $403 $166 $278 forward $270 $-1 #
edge $-1 $404 -64.794363216488463 $282 -61.135213961814792 $277 $405 forward 7 unknown #
edge $-1 $283 88.255006974816553 $404 93.103427228614152 $167 $406 forward 7 unknown #
coedge $-1 $168 $396 $402 $407 forward $281 $-1 #
loop $-1 $-1 $396 $269 #
vertex $-1 $278 $408 #
vertex $-1 $169 $409 #
straight-curve $-1 27.868209845725687 -8.7199202034485239 5.4178152499599221 -1 0 0 I I #
coedge $-1 $285 $285 $-1 $410 reversed $172 $-1 #
edge $-1 $411 0 $411 6.2831853071796004 $173 $412 forward 7 unknown #
vertex $-1 $176 $413 #
ellipse-curve $-1 44.961288695499547 -17.665845035043862 3.5882406226230779 0.75470958851134928 0 0.65605901945558964 0.32802950972779482 0 -0.37735479425567464 1 I I #
coedge $-1 $289 $289 $-1 $414 reversed $179 $-1 #
edge $-1 $415 0 $415 6.2831853071796004 $180 $416 forward 7 unknown #
vertex $-1 $183 $417 #
ellipse-curve $-1 44.961288695499547 -14.31112322319561 3.5882406226230779 0.75470958851134928 0 0.65605901945558964 0.32802950972779482 0 -0.37735479425567464 1 I I #
coedge $-1 $293 $293 $-1 $418 reversed $186 $-1 #
edge $-1 $419 0 $419 6.2831853071796004 $187 $420 forward 7 unknown #
vertex $-1 $190 $421 #
ellipse-curve $-1 44.961288695499547 -10.956401411347358 3.5882406226230779 0.75470958851134928 0 0.65605901945558964 0.32802950972779482 0 -0.37735479425567464 1 I I #
face $-1 $-1 $422 $40 $-1 $423 reversed single #
loop $-1 $-1 $197 $191 #
plane-surface $-1 0 0 5.417815249959923 0 0 1 1 0 0 forward_v I I I I #
coedge $-1 $424 $425 $426 $427 reversed $192 $-1 #
coedge $-1 $428 $194 $196 $307 forward $120 $-1 #
coedge $-1 $194 $428 $424 $429 forward $120 $-1 #
coedge $-1 $426 $197 $194 $304 forward $298 $-1 #
edge $-1 $310 -12.746764631344892 $430 -1.564358591850719 $303 $431 forward 7 unknown #
coedge $-1 $432 $433 $195 $306 forward $422 $-1 #
edge $-1 $434 -29.661338590136598 $309 -26.002189335462926 $305 $435 forward 7 unknown #
edge $-1 $310 -4.8484202537975944 $434 0 $196 $436 forward 7 unknown #
coedge $-1 $197 $426 $432 $437 forward $298 $-1 #
vertex $-1 $306 $438 #
vertex $-1 $198 $439 #
straight-curve $-1 -58.408881433505407 -19.902326242942696 5.4178152499599221 1 0 0 I I #
coedge $-1 $312 $312 $-1 $440 reversed $201 $-1 #
edge $-1 $441 0 $441 6.2831853071796004 $202 $442 forward 7 unknown #
vertex $-1 $205 $443 #
ellipse-curve $-1 -44.96128869549954 -17.665845035043862 3.5882406226230885 -0.75470958851134928 0 0.65605901945558964 0.32802950972779482 0 0.37735479425567464 1 I I #
coedge $-1 $316 $316 $-1 $444 reversed $208 $-1 #
edge $-1 $445 0 $445 6.2831853071796004 $209 $446 forward 7 unknown #
vertex $-1 $212 $447 #
ellipse-curve $-1 -44.96128869549954 -14.31112322319561 3.5882406226230885 -0.75470958851134928 0 0.65605901945558964 0.32802950972779482 0 0.37735479425567464 1 I I #
coedge $-1 $320 $320 $-1 $448 reversed $215 $-1 #
edge $-1 $449 0 $449 6.2831853071796004 $216 $450 forward 7 unknown #
vertex $-1 $219 $451 #
ellipse-curve $-1 -44.96128869549954 -10.956401411347358 3.5882406226230885 -0.75470958851134928 0 0.65605901945558964 0.32802950972779482 0 0.37735479425567464 1 I I #
face $-1 $-1 $336 $33 $-1 $452 reversed single #
loop $-1 $-1 $229 $220 #
plane-surface $-1 -46.551713614307076 0 0 1 0 0 0 0 -1 forward_v I I I I #
coedge $-1 $453 $333 $454 $455 forward $221 $-1 #
coedge $-1 $233 $223 $453 $456 forward $139 $-1 #
coedge $-1 $231 $335 $223 $330 reversed $336 $-1 #
edge $-1 $235 -26.971779014484689 $457 26.971779014484689 $329 $458 forward 7 unknown #
coedge $-1 $225 $224 $341 $459 forward $89 $-1 #
edge $-1 $338 -46.551713614307076 $342 46.551713614307076 $228 $460 forward 7 unknown #
coedge $-1 $327 $461 $225 $334 reversed $221 $-1 #
edge $-1 $462 -46.551713614307076 $337 46.551713614307076 $333 $463 forward 7 unknown #
coedge $-1 $329 $226 $461 $464 forward $336 $-1 #
loop $-1 $-1 $335 $324 #
vertex $-1 $227 $465 #
vertex $-1 $227 $466 #
straight-curve $-1 46.551713614307076 0 5.417815249959923 0 1 0 I I #
coedge $-1 $454 $229 $233 $345 reversed $325 $-1 #
coedge $-1 $229 $454 $331 $459 reversed $325 $-1 #
vertex $-1 $332 $467 #
straight-curve $-1 -46.551713614307076 26.971779014484689 0 0 0 -1 I I #
straight-curve $-1 46.551713614307076 26.971779014484689 0 0 0 -1 I I #
edge $-1 $468 -26.971779014484689 $234 26.971779014484689 $340 $469 forward 7 unknown #
point $-1 -46.551713614307076 26.971779014484689 -5.417815249959923 #
point $-1 46.551713614307076 26.971779014484689 -5.417815249959923 #
face $-1 $-1 $362 $34 $-1 $470 reversed single #
loop $-1 $-1 $471 $237 #
plane-surface $-1 0 -34.041231786026678 3.917815249959923 0 1 0 0 0 1 forward_v I I I I #
coedge $-1 $472 $240 $249 $366 reversed $147 $-1 #
coedge $-1 $240 $472 $241 $354 reversed $147 $-1 #
coedge $-1 $242 $241 $473 $474 forward $93 $-1 #
edge $-1 $358 26.971779014484689 $475 34.041231786026678 $352 $476 forward 7 unknown #
coedge $-1 $477 $246 $242 $356 reversed $362 $-1 #
edge $-1 $478 -34.041231786026678 $357 -26.971779014484689 $355 $479 forward 7 unknown #
vertex $-1 $247 $480 #
vertex $-1 $354 $481 #
straight-curve $-1 0 -26.971779014484689 5.417815249959923 -1 0 0 I I #
straight-curve $-1 -46.551713614307076 -26.971779014484689 0 0 0 -1 I I #
coedge $-1 $246 $477 $248 $365 reversed $362 $-1 #
loop $-1 $-1 $246 $348 #
straight-curve $-1 46.551713614307076 -26.971779014484689 0 0 0 1 I I #
coedge $-1 $249 $248 $482 $483 forward $238 $-1 #
edge $-1 $250 -3.5347263857709947 $484 3.5347263857709947 $361 $485 forward 7 unknown #
edge $-1 $486 -3.5347263857709947 $251 3.5347263857709947 $351 $487 forward 7 unknown #
point $-1 46.551713614307076 -26.971779014484689 2.417815249959923 #
point $-1 -46.551713614307076 -26.971779014484689 2.417815249959923 #
face $-1 $-1 $385 $35 $-1 $488 forward single #
plane-surface $-1 -35.716083114387231 29.131343949535015 0 -1 0 0 0 0 1 forward_v I I I I #
coedge $-1 $489 $490 $388 $491 forward $254 $-1 #
coedge $-1 $381 $256 $257 $377 reversed $155 $-1 #
coedge $-1 $256 $381 $384 $492 reversed $155 $-1 #
coedge $-1 $490 $489 $256 $375 reversed $254 $-1 #
edge $-1 $493 -5.417815249959923 $494 5.417815249959923 $374 $495 forward 7 unknown #
coedge $-1 $258 $257 $489 $496 forward $97 $-1 #
edge $-1 $379 -2.1595649350503265 $494 2.1595649350503265 $372 $497 forward 7 unknown #
edge $-1 $498 -2.1595649350503265 $266 2.1595649350503265 $263 $499 forward 7 unknown #
vertex $-1 $377 $500 #
straight-curve $-1 0 26.971779014484689 -5.417815249959923 -1 0 0 I I #
coedge $-1 $373 $372 $260 $382 reversed $155 $-1 #
edge $-1 $386 -5.417815249959923 $379 5.417815249959923 $381 $501 forward 7 unknown #
coedge $-1 $502 $261 $264 $389 forward $385 $-1 #
coedge $-1 $261 $502 $373 $492 forward $385 $-1 #
loop $-1 $-1 $261 $369 #
vertex $-1 $262 $503 #
straight-curve $-1 0 26.971779014484689 5.417815249959923 1 0 0 I I #
coedge $-1 $264 $263 $371 $491 reversed $265 $-1 #
edge $-1 $267 -2.1595649350503265 $504 2.1595649350503265 $264 $505 forward 7 unknown #
point $-1 -35.716083114387231 26.971779014484689 -5.417815249959923 #
point $-1 -35.716083114387231 26.971779014484689 5.417815249959923 #
plane-surface $-1 0 0 5.417815249959923 0 0 1 1 0 0 forward_v I I I I #
coedge $-1 $403 $402 $395 $506 forward $270 $-1 #
coedge $-1 $395 $272 $274 $399 reversed $163 $-1 #
coedge $-1 $272 $394 $393 $506 reversed $163 $-1 #
coedge $-1 $280 $275 $272 $397 forward $281 $-1 #
edge $-1 $400 15.502653930966311 $507 18.683503768581389 $396 $508 forward 7 unknown #
coedge $-1 $274 $273 $403 $509 reversed $101 $-1 #
edge $-1 $510 -93.103427228614152 $400 -88.255006974816553 $394 $511 forward 7 unknown #
vertex $-1 $276 $512 #
straight-curve $-1 43.370863776692005 -7.1555616115978049 5.4178152499599221 0 -1 0 I I #
coedge $-1 $393 $277 $280 $407 reversed $270 $-1 #
coedge $-1 $277 $393 $398 $509 forward $270 $-1 #
vertex $-1 $278 $513 #
straight-curve $-1 46.551713614307076 -8.7199202034485239 66.553029211774714 0 0 1 I I #
straight-curve $-1 -14.529629561252364 -8.7199202034485239 72.024715247989974 0.65605901945558964 0 -0.75470958851134928 I I #
edge $-1 $507 -19.902326242942696 $282 -8.7199202034485239 $402 $514 forward 7 unknown #
point $-1 46.551713614307076 -8.7199202034485239 5.417815249959923 #
point $-1 43.370863776691998 -8.7199202034485239 5.4178152499599292 #
edge $-1 $515 1 $515 0 $285 $-1 forward 7 unknown #
vertex $-1 $286 $516 #
ellipse-curve $-1 44.206579106988208 -17.665845035043862 2.9321816031674972 0.75470958851134928 0 0.65605901945558964 0.32802950972779482 0 -0.37735479425567464 1 I I #
point $-1 45.289318205227346 -17.665845035043862 3.2108858283674122 #
edge $-1 $517 1 $517 0 $289 $-1 forward 7 unknown #
vertex $-1 $290 $518 #
ellipse-curve $-1 44.206579106988208 -14.31112322319561 2.9321816031674972 0.75470958851134928 0 0.65605901945558964 0.32802950972779482 0 -0.37735479425567464 1 I I #
point $-1 45.289318205227346 -14.31112322319561 3.2108858283674122 #
edge $-1 $519 1 $519 0 $293 $-1 forward 7 unknown #
vertex $-1 $294 $520 #
ellipse-curve $-1 44.206579106988208 -10.956401411347358 2.9321816031674972 0.75470958851134928 0 0.65605901945558964 0.32802950972779482 0 -0.37735479425567464 1 I I #
point $-1 45.289318205227346 -10.956401411347358 3.2108858283674122 #
loop $-1 $-1 $305 $297 #
plane-surface $-1 -46.551713614307076 0 0 1 0 0 0 0 -1 forward_v I I I I #
coedge $-1 $425 $300 $302 $429 reversed $192 $-1 #
coedge $-1 $300 $424 $521 $522 reversed $192 $-1 #
coedge $-1 $308 $303 $300 $427 forward $298 $-1 #
edge $-1 $430 -15.038017656813402 $523 -11.857167819198331 $426 $524 forward 7 unknown #
coedge $-1 $302 $301 $433 $525 reversed $120 $-1 #
edge $-1 $526 0 $430 4.8484202537975944 $424 $527 forward 7 unknown #
vertex $-1 $304 $528 #
straight-curve $-1 -43.370863776692005 -7.1555616115978049 5.4178152499599221 0 1 0 I I #
coedge $-1 $521 $305 $308 $437 reversed $422 $-1 #
coedge $-1 $305 $521 $428 $525 forward $422 $-1 #
vertex $-1 $306 $529 #
straight-curve $-1 -46.551713614307076 -19.902326242942696 31.420004585422848 0 0 1 I I #
straight-curve $-1 -46.551713614307076 -19.902326242942696 1.7586659952862504 -0.65605901945558964 0 -0.75470958851134928 I I #
edge $-1 $523 8.7199202034485239 $309 19.902326242942696 $432 $530 forward 7 unknown #
point $-1 -46.551713614307076 -19.902326242942696 5.417815249959923 #
point $-1 -43.370863776692005 -19.902326242942696 5.417815249959923 #
edge $-1 $531 1 $531 0 $312 $-1 forward 7 unknown #
vertex $-1 $313 $532 #
ellipse-curve $-1 -44.206579106988194 -17.665845035043862 2.9321816031675008 -0.75470958851134928 0 0.65605901945558964 0.32802950972779482 0 0.37735479425567464 1 I I #
point $-1 -44.633259185771749 -17.665845035043862 3.9655954168787648 #
edge $-1 $533 1 $533 0 $316 $-1 forward 7 unknown #
vertex $-1 $317 $534 #
ellipse-curve $-1 -44.206579106988194 -14.31112322319561 2.9321816031675008 -0.75470958851134928 0 0.65605901945558964 0.32802950972779482 0 0.37735479425567464 1 I I #
point $-1 -44.633259185771749 -14.31112322319561 3.9655954168787648 #
edge $-1 $535 1 $535 0 $320 $-1 forward 7 unknown #
vertex $-1 $321 $536 #
ellipse-curve $-1 -44.206579106988194 -10.956401411347358 2.9321816031675008 -0.75470958851134928 0 0.65605901945558964 0.32802950972779482 0 0.37735479425567464 1 I I #
point $-1 -44.633259185771749 -10.956401411347358 3.9655954168787648 #
plane-surface $-1 46.551713614307076 0 0 -1 0 0 0 0 1 forward_v I I I I #
coedge $-1 $461 $327 $328 $456 reversed $221 $-1 #
coedge $-1 $341 $340 $327 $455 reversed $325 $-1 #
edge $-1 $462 -5.417815249959923 $468 5.417815249959923 $454 $537 forward 7 unknown #
edge $-1 $457 -46.551713614307076 $468 46.551713614307076 $453 $538 forward 7 unknown #
vertex $-1 $464 $539 #
straight-curve $-1 46.551713614307076 0 -5.417815249959923 0 -1 0 I I #
edge $-1 $342 -26.971779014484689 $462 26.971779014484689 $341 $540 forward 7 unknown #
straight-curve $-1 0 26.971779014484689 5.417815249959923 -1 0 0 I I #
coedge $-1 $333 $453 $335 $464 reversed $221 $-1 #
vertex $-1 $459 $541 #
straight-curve $-1 0 -26.971779014484689 5.417815249959923 1 0 0 I I #
edge $-1 $337 -5.417815249959923 $457 5.417815249959923 $335 $542 forward 7 unknown #
point $-1 46.551713614307076 -26.971779014484689 5.417815249959923 #
point $-1 46.551713614307076 26.971779014484689 5.417815249959923 #
point $-1 -46.551713614307076 26.971779014484689 5.417815249959923 #
vertex $-1 $345 $543 #
straight-curve $-1 -46.551713614307076 0 -5.417815249959923 0 1 0 I I #
plane-surface $-1 46.551713614307076 0 0 -1 0 0 0 0 1 forward_v I I I I #
coedge $-1 $482 $473 $472 $544 forward $349 $-1 #
coedge $-1 $352 $351 $471 $544 reversed $147 $-1 #
coedge $-1 $471 $545 $353 $474 reversed $349 $-1 #
edge $-1 $475 -46.551713614307076 $478 46.551713614307076 $473 $546 forward 7 unknown #
vertex $-1 $354 $547 #
straight-curve $-1 -46.551713614307076 0 5.417815249959923 0 -1 0 I I #
coedge $-1 $361 $355 $545 $548 forward $362 $-1 #
vertex $-1 $356 $549 #
straight-curve $-1 46.551713614307076 0 5.417815249959923 0 1 0 I I #
point $-1 46.551713614307076 -26.971779014484689 5.417815249959923 #
point $-1 -46.551713614307076 -26.971779014484689 5.417815249959923 #
coedge $-1 $545 $471 $364 $483 reversed $349 $-1 #
edge $-1 $484 -46.551713614307076 $486 46.551713614307076 $482 $550 forward 7 unknown #
vertex $-1 $548 $551 #
straight-curve $-1 46.551713614307076 -30.506505400255683 2.417815249959923 0 -1 0 I I #
vertex $-1 $366 $552 #
straight-curve $-1 -46.551713614307076 -30.506505400255683 2.417815249959923 0 1 0 I I #
plane-surface $-1 0 0 5.417815249959923 0 0 1 1 0 0 forward_v I I I I #
coedge $-1 $374 $371 $376 $496 reversed $254 $-1 #
coedge $-1 $371 $374 $502 $553 reversed $254 $-1 #
edge $-1 $504 -5.417815249959923 $498 5.417815249959923 $388 $554 forward 7 unknown #
edge $-1 $493 -2.1595649350503265 $386 2.1595649350503265 $373 $555 forward 7 unknown #
vertex $-1 $553 $556 #
vertex $-1 $496 $557 #
straight-curve $-1 -38.716083114387231 31.290908884585342 0 0 0 -1 I I #
edge $-1 $494 -1.5 $498 1.5 $489 $558 forward 7 unknown #
straight-curve $-1 -38.716083114387231 29.131343949535015 -5.417815249959923 0 1 0 I I #
vertex $-1 $378 $559 #
straight-curve $-1 -35.716083114387231 29.131343949535015 -5.417815249959923 0 -1 0 I I #
point $-1 -38.716083114387231 26.971779014484689 -5.417815249959923 #
straight-curve $-1 -38.716083114387231 26.971779014484689 0 0 0 -1 I I #
coedge $-1 $384 $383 $490 $553 forward $385 $-1 #
point $-1 -38.716083114387231 26.971779014484689 5.417815249959923 #
vertex $-1 $389 $560 #
straight-curve $-1 -35.716083114387231 29.131343949535015 5.417815249959923 0 1 0 I I #
edge $-1 $507 61.135213961814792 $510 64.794363216488463 $393 $561 forward 7 unknown #
vertex $-1 $407 $562 #
straight-curve $-1 27.868209845725687 -19.902326242942696 5.4178152499599221 1 0 0 I I #
edge $-1 $510 -12.746764631344892 $404 -1.564358591850719 $403 $563 forward 7 unknown #
vertex $-1 $509 $564 #
straight-curve $-1 -14.529629561252364 -19.902326242942696 72.024715247989974 -0.65605901945558964 0 0.75470958851134928 I I #
point $-1 43.370863776691998 -19.902326242942696 5.4178152499599292 #
point $-1 46.551713614307076 -8.7199202034485239 1.7586659952862504 #
straight-curve $-1 46.551713614307076 0 5.417815249959923 0 1 0 I I #
vertex $-1 $410 $565 #
point $-1 44.534608616716 -17.665845035043862 2.5548268089118227 #
vertex $-1 $414 $566 #
point $-1 44.534608616716 -14.31112322319561 2.5548268089118227 #
vertex $-1 $418 $567 #
point $-1 44.534608616716 -10.956401411347358 2.5548268089118227 #
coedge $-1 $433 $432 $425 $522 forward $422 $-1 #
edge $-1 $523 26.002189335462926 $526 29.661338590136598 $521 $568 forward 7 unknown #
vertex $-1 $437 $569 #
straight-curve $-1 -58.408881433505407 -8.7199202034485239 5.4178152499599221 -1 0 0 I I #
edge $-1 $526 1.564358591850719 $434 12.746764631344892 $433 $570 forward 7 unknown #
vertex $-1 $525 $571 #
straight-curve $-1 -46.551713614307076 -8.7199202034485239 1.7586659952862504 0.65605901945558964 0 0.75470958851134928 I I #
point $-1 -43.370863776692005 -8.7199202034485239 5.417815249959923 #
point $-1 -46.551713614307076 -19.902326242942696 1.7586659952862504 #
straight-curve $-1 -46.551713614307076 0 5.417815249959923 0 -1 0 I I #
vertex $-1 $440 $572 #
point $-1 -43.878549597260395 -17.665845035043862 3.3095363974231753 #
vertex $-1 $444 $573 #
point $-1 -43.878549597260395 -14.31112322319561 3.3095363974231753 #
vertex $-1 $448 $574 #
point $-1 -43.878549597260395 -10.956401411347358 3.3095363974231753 #
straight-curve $-1 -46.551713614307076 -26.971779014484689 0 0 0 -1 I I #
straight-curve $-1 0 -26.971779014484689 -5.417815249959923 -1 0 0 I I #
point $-1 46.551713614307076 -26.971779014484689 -5.417815249959923 #
straight-curve $-1 -46.551713614307076 0 5.417815249959923 0 -1 0 I I #
point $-1 -46.551713614307076 -26.971779014484689 5.417815249959923 #
straight-curve $-1 46.551713614307076 -26.971779014484689 0 0 0 -1 I I #
point $-1 -46.551713614307076 -26.971779014484689 -5.417815249959923 #
edge $-1 $475 -1.5 $486 1.5 $472 $575 forward 7 unknown #
coedge $-1 $473 $482 $477 $548 reversed $349 $-1 #
straight-curve $-1 0 -34.041231786026678 5.417815249959923 1 0 0 I I #
point $-1 -46.551713614307076 -34.041231786026678 5.417815249959923 #
edge $-1 $478 -1.5 $484 1.5 $477 $576 forward 7 unknown #
point $-1 46.551713614307076 -34.041231786026678 5.417815249959923 #
straight-curve $-1 0 -34.041231786026678 2.417815249959923 -1 0 0 I I #
point $-1 46.551713614307076 -34.041231786026678 2.417815249959923 #
point $-1 -46.551713614307076 -34.041231786026678 2.417815249959923 #
edge $-1 $504 -1.5 $493 1.5 $490 $577 forward 7 unknown #
straight-curve $-1 -35.716083114387231 31.290908884585342 0 0 0 -1 I I #
straight-curve $-1 -38.716083114387231 29.131343949535015 5.417815249959923 0 -1 0 I I #
point $-1 -38.716083114387231 31.290908884585342 5.417815249959923 #
point $-1 -38.716083114387231 31.290908884585342 -5.417815249959923 #
straight-curve $-1 -37.216083114387231 31.290908884585342 -5.417815249959923 1 0 0 I I #
point $-1 -35.716083114387231 31.290908884585342 -5.417815249959923 #
point $-1 -35.716083114387231 31.290908884585342 5.417815249959923 #
straight-curve $-1 46.551713614307076 -19.902326242942696 66.553029211774714 0 0 -1 I I #
point $-1 46.551713614307076 -19.902326242942696 5.417815249959923 #
straight-curve $-1 46.551713614307076 -7.1555616115978049 1.7586659952862362 0 1 0 I I #
point $-1 46.551713614307076 -19.902326242942696 1.7586659952862504 #
point $-1 43.829224312732528 -17.665845035043862 2.6041520934397022 #
point $-1 43.829224312732528 -14.31112322319561 2.6041520934397022 #
point $-1 43.829224312732528 -10.956401411347358 2.6041520934397022 #
straight-curve $-1 -46.551713614307076 -8.7199202034485239 31.420004585422848 0 0 -1 I I #
point $-1 -46.551713614307076 -8.7199202034485239 5.417815249959923 #
straight-curve $-1 -46.551713614307076 -7.1555616115978049 1.7586659952862536 0 -1 0 I I #
point $-1 -46.551713614307076 -8.7199202034485239 1.7586659952862504 #
point $-1 -43.829224312732514 -17.665845035043862 2.6041520934397058 #
point $-1 -43.829224312732514 -14.31112322319561 2.6041520934397058 #
point $-1 -43.829224312732514 -10.956401411347358 2.6041520934397058 #
straight-curve $-1 -46.551713614307076 -34.041231786026678 3.917815249959923 0 0 -1 I I #
straight-curve $-1 46.551713614307076 -34.041231786026678 3.917815249959923 0 0 -1 I I #
straight-curve $-1 -37.216083114387231 31.290908884585342 5.417815249959923 -1 0 0 I I #
End-of-ACIS-data 