500 0 17 0           
7 Unknown 11 ACIS 5.0 NT 24 Fri Mar 26 16:12:16 1999 
-1 9.9999999999999995e-007 1e-010 
body $-1 $17 $-1 $18 #
body $-1 $19 $-1 $20 #
body $-1 $21 $-1 $22 #
body $-1 $23 $-1 $24 #
body $-1 $25 $-1 $26 #
body $-1 $27 $-1 $28 #
body $-1 $29 $-1 $30 #
body $-1 $31 $-1 $32 #
body $-1 $33 $-1 $34 #
body $-1 $35 $-1 $36 #
body $-1 $37 $-1 $38 #
body $-1 $39 $-1 $40 #
body $-1 $41 $-1 $42 #
body $-1 $43 $-1 $44 #
body $-1 $45 $-1 $46 #
body $-1 $47 $-1 $48 #
body $-1 $49 $-1 $50 #
lump $-1 $-1 $51 $0 #
transform $-1 1 0 0 0 1 0 0 0 1 53.17545091097751 34.134235109293734 10.795197961076362 1 rotate no_reflect no_shear #
lump $-1 $-1 $52 $1 #
transform $-1 1 0 0 0 1 0 0 0 1 53.17545091097751 34.134235109293734 10.795197961076362 1 rotate no_reflect no_shear #
lump $-1 $-1 $53 $2 #
transform $-1 1 0 0 0 1 0 0 0 1 53.17545091097751 34.134235109293734 10.795197961076362 1 rotate no_reflect no_shear #
lump $-1 $-1 $54 $3 #
transform $-1 1 0 0 0 1 0 0 0 1 53.17545091097751 34.134235109293734 10.795197961076362 1 rotate no_reflect no_shear #
lump $-1 $-1 $55 $4 #
transform $-1 1 0 0 0 1 0 0 0 1 53.17545091097751 34.134235109293734 10.795197961076362 1 rotate no_reflect no_shear #
lump $-1 $-1 $56 $5 #
transform $-1 1 0 0 0 1 0 0 0 1 53.17545091097751 34.134235109293734 10.795197961076362 1 rotate no_reflect no_shear #
lump $-1 $-1 $57 $6 #
transform $-1 1 0 0 0 1 0 0 0 1 53.17545091097751 34.134235109293734 10.795197961076362 1 rotate no_reflect no_shear #
lump $-1 $-1 $58 $7 #
transform $-1 1 0 0 0 1 0 0 0 1 53.17545091097751 34.134235109293734 10.795197961076362 1 rotate no_reflect no_shear #
lump $-1 $-1 $59 $8 #
transform $-1 1 0 0 0 1 0 0 0 1 53.17545091097751 34.134235109293734 10.795197961076362 1 rotate no_reflect no_shear #
lump $-1 $-1 $60 $9 #
transform $-1 1 0 0 0 1 0 0 0 1 53.17545091097751 34.134235109293734 10.795197961076362 1 rotate no_reflect no_shear #
lump $-1 $-1 $61 $10 #
transform $-1 1 0 0 0 1 0 0 0 1 53.17545091097751 34.134235109293734 10.795197961076362 1 rotate no_reflect no_shear #
lump $-1 $-1 $62 $11 #
transform $-1 1 0 0 0 1 0 0 0 1 53.17545091097751 34.134235109293734 10.795197961076362 1 rotate no_reflect no_shear #
lump $-1 $-1 $63 $12 #
transform $-1 1 0 0 0 1 0 0 0 1 53.17545091097751 34.134235109293734 10.795197961076362 1 rotate no_reflect no_shear #
lump $-1 $-1 $64 $13 #
transform $-1 1 0 0 0 1 0 0 0 1 53.17545091097751 34.134235109293734 10.795197961076362 1 rotate no_reflect no_shear #
lump $-1 $-1 $65 $14 #
transform $-1 1 0 0 0 1 0 0 0 1 53.17545091097751 34.134235109293734 10.795197961076362 1 rotate no_reflect no_shear #
lump $-1 $-1 $66 $15 #
transform $-1 1 0 0 0 1 0 0 0 1 53.17545091097751 34.134235109293734 10.795197961076362 1 rotate no_reflect no_shear #
lump $-1 $-1 $67 $16 #
transform $-1 1 0 0 0 1 0 0 0 1 53.17545091097751 34.134235109293734 10.795197961076362 1 rotate no_reflect no_shear #
shell $-1 $-1 $-1 $68 $-1 $17 #
shell $-1 $-1 $-1 $69 $-1 $19 #
shell $-1 $-1 $-1 $70 $-1 $21 #
shell $-1 $-1 $-1 $71 $-1 $23 #
shell $-1 $-1 $-1 $72 $-1 $25 #
shell $-1 $-1 $-1 $73 $-1 $27 #
shell $-1 $-1 $-1 $74 $-1 $29 #
shell $-1 $-1 $-1 $75 $-1 $31 #
shell $-1 $-1 $-1 $76 $-1 $33 #
shell $-1 $-1 $-1 $77 $-1 $35 #
shell $-1 $-1 $-1 $78 $-1 $37 #
shell $-1 $-1 $-1 $79 $-1 $39 #
shell $-1 $-1 $-1 $80 $-1 $41 #
shell $-1 $-1 $-1 $81 $-1 $43 #
shell $-1 $-1 $-1 $82 $-1 $45 #
shell $-1 $-1 $-1 $83 $-1 $47 #
shell $-1 $-1 $-1 $84 $-1 $49 #
face $-1 $85 $86 $51 $-1 $87 forward single #
face $-1 $88 $89 $52 $-1 $90 reversed single #
face $-1 $91 $92 $53 $-1 $93 reversed single #
face $-1 $94 $95 $54 $-1 $96 forward single #
face $-1 $97 $98 $55 $-1 $99 forward single #
face $-1 $100 $101 $56 $-1 $102 reversed single #
face $-1 $103 $104 $57 $-1 $105 forward single #
face $-1 $106 $107 $58 $-1 $108 forward single #
face $-1 $109 $110 $59 $-1 $111 reversed single #
face $-1 $112 $113 $60 $-1 $114 forward single #
face $-1 $115 $116 $61 $-1 $117 forward single #
face $-1 $118 $119 $62 $-1 $120 reversed single #
face $-1 $121 $122 $63 $-1 $123 forward single #
face $-1 $124 $125 $64 $-1 $126 forward single #
face $-1 $127 $128 $65 $-1 $129 reversed single #
face $-1 $130 $131 $66 $-1 $132 forward single #
face $-1 $133 $134 $67 $-1 $135 forward single #
face $-1 $136 $137 $51 $-1 $138 reversed single #
loop $-1 $-1 $139 $68 #
plane-surface $-1 0 0 10.795197961076362 0 0 1 1 0 0 forward_v I I I I #
face $-1 $140 $141 $52 $-1 $142 reversed single #
loop $-1 $-1 $143 $69 #
plane-surface $-1 0 -28.142154029055725 6.7751422782049957 0 0 1 1 0 0 forward_v I I I I #
face $-1 $144 $145 $53 $-1 $146 reversed single #
loop $-1 $-1 $147 $70 #
plane-surface $-1 -140.29301041544977 3.7478909905062707 68.090676746346219 0 1 0 -0.81915205242281985 0 0.57357642473473569 forward_v I I I I #
face $-1 $148 $149 $54 $-1 $150 forward single #
loop $-1 $151 $152 $71 #
cone-surface $-1 -51.46877853348785 5.8376608966694121 8.655964124168003 0.81915205242281985 0 -0.57357642473473569 0.14339410618368392 0 0.20478801310570496 1 I I 0 1 0.25 forward I I I I #
face $-1 $153 $154 $55 $-1 $155 forward single #
loop $-1 $156 $157 $72 #
cone-surface $-1 -51.46877853348785 8.9723157559141242 8.655964124168003 0.81915205242281985 0 -0.57357642473473569 0.14339410618368392 0 0.20478801310570496 1 I I 0 1 0.25 forward I I I I #
face $-1 $158 $159 $56 $-1 $160 reversed single #
loop $-1 $-1 $161 $73 #
plane-surface $-1 76.703648261378049 -11.440670635856184 154.40156153176841 0 -1 0 -0.80901700255871778 0 -0.5877852410284794 forward_v I I I I #
face $-1 $162 $163 $57 $-1 $164 forward single #
loop $-1 $165 $166 $74 #
cone-surface $-1 50.974633375333703 -16.826583155907326 8.0288979896938919 -0.80901700255871778 0 -0.5877852410284794 0.2938926205142397 0 -0.40450850127935889 1 I I 0 1 0.5 forward I I I I #
face $-1 $167 $168 $58 $-1 $169 forward single #
loop $-1 $170 $171 $75 #
cone-surface $-1 50.974633375333703 -13.595035643876638 8.0288979896938919 -0.80901700255871778 0 -0.5877852410284794 0.2938926205142397 0 -0.40450850127935889 1 I I 0 1 0.5 forward I I I I #
face $-1 $172 $173 $59 $-1 $174 reversed single #
loop $-1 $-1 $175 $76 #
plane-surface $-1 76.703648261378049 2.6945896842304808 154.40156153176841 0 -1 0 -0.80901700255871778 0 -0.5877852410284794 forward_v I I I I #
face $-1 $176 $177 $60 $-1 $178 forward single #
loop $-1 $179 $180 $77 #
cone-surface $-1 50.974633375333703 -2.6913228358206638 8.0288979896938919 -0.80901700255871778 0 -0.5877852410284794 0.2938926205142397 0 -0.40450850127935889 1 I I 0 1 0.5 forward I I I I #
face $-1 $181 $182 $61 $-1 $183 forward single #
loop $-1 $184 $185 $78 #
cone-surface $-1 50.974633375333703 0.54022467621002335 8.0288979896938919 -0.80901700255871778 0 -0.5877852410284794 0.2938926205142397 0 -0.40450850127935889 1 I I 0 1 0.5 forward I I I I #
face $-1 $186 $187 $62 $-1 $188 reversed single #
loop $-1 $-1 $189 $79 #
plane-surface $-1 76.703648261378049 16.829850004317144 154.40156153176841 0 -1 0 -0.80901700255871778 0 -0.5877852410284794 forward_v I I I I #
face $-1 $190 $191 $63 $-1 $192 forward single #
loop $-1 $193 $194 $80 #
cone-surface $-1 50.974633375333703 11.443937484266002 8.0288979896938919 -0.80901700255871778 0 -0.5877852410284794 0.2938926205142397 0 -0.40450850127935889 1 I I 0 1 0.5 forward I I I I #
face $-1 $195 $196 $64 $-1 $197 forward single #
loop $-1 $198 $199 $81 #
cone-surface $-1 50.974633375333703 14.675484996296689 8.0288979896938919 -0.80901700255871778 0 -0.5877852410284794 0.2938926205142397 0 -0.40450850127935889 1 I I 0 1 0.5 forward I I I I #
face $-1 $200 $201 $65 $-1 $202 reversed single #
loop $-1 $-1 $203 $82 #
plane-surface $-1 76.703648261378049 30.96511032440381 154.40156153176841 0 -1 0 -0.80901700255871778 0 -0.5877852410284794 forward_v I I I I #
face $-1 $204 $205 $66 $-1 $206 forward single #
loop $-1 $207 $208 $83 #
cone-surface $-1 50.974633375333703 25.579197804352667 8.0288979896938919 -0.80901700255871778 0 -0.5877852410284794 0.2938926205142397 0 -0.40450850127935889 1 I I 0 1 0.5 forward I I I I #
face $-1 $209 $210 $67 $-1 $211 forward single #
loop $-1 $212 $213 $84 #
cone-surface $-1 50.974633375333703 28.810745316383354 8.0288979896938919 -0.80901700255871778 0 -0.5877852410284794 0.2938926205142397 0 -0.40450850127935889 1 I I 0 1 0.5 forward I I I I #
face $-1 $214 $215 $51 $-1 $216 reversed single #
loop $-1 $-1 $217 $85 #
plane-surface $-1 0 0 -10.795197961076362 0 0 1 1 0 0 forward_v I I I I #
coedge $-1 $218 $219 $220 $221 forward $86 $-1 #
face $-1 $222 $223 $52 $-1 $224 reversed single #
loop $-1 $-1 $225 $88 #
plane-surface $-1 0 -22.150072948817716 8.7851701196406786 0 -1 0 0 0 -1 forward_v I I I I #
coedge $-1 $226 $227 $228 $229 reversed $89 $-1 #
face $-1 $230 $231 $53 $-1 $232 reversed single #
loop $-1 $-1 $233 $91 #
plane-surface $-1 -53.175450910977489 7.4049883262917646 7.0903067119943657 -0.81915205242281985 0 0.57357642473473569 0.57357642473473569 0 0.81915205242281985 forward_v I I I I #
coedge $-1 $234 $235 $236 $237 reversed $92 $-1 #
face $-1 $-1 $238 $54 $-1 $239 forward single #
loop $-1 $240 $241 $94 #
cone-surface $-1 -50.956808500723589 5.8376608966694121 8.2974788587087929 0.81915205242281985 0 -0.57357642473473569 0.071697053091841961 0 0.10239400655285248 1 I I -0.70710678118654746 0.70710678118654746 0.125 forward I I I I #
loop $-1 $-1 $242 $71 #
coedge $-1 $152 $152 $243 $244 reversed $95 $-1 #
face $-1 $-1 $245 $55 $-1 $246 forward single #
loop $-1 $247 $248 $97 #
cone-surface $-1 -50.956808500723589 8.9723157559141242 8.2974788587087929 0.81915205242281985 0 -0.57357642473473569 0.071697053091841961 0 0.10239400655285248 1 I I -0.70710678118654746 0.70710678118654746 0.125 forward I I I I #
loop $-1 $-1 $249 $72 #
coedge $-1 $157 $157 $250 $251 reversed $98 $-1 #
face $-1 $252 $253 $56 $-1 $254 reversed single #
loop $-1 $-1 $255 $100 #
plane-surface $-1 -9.3360395500364746 -15.210809399891986 91.890071070754431 0.80901700255871778 0 0.5877852410284794 0.5877852410284794 0 -0.80901700255871778 forward_v I I I I #
coedge $-1 $256 $257 $258 $259 reversed $101 $-1 #
face $-1 $-1 $260 $57 $-1 $261 forward single #
loop $-1 $262 $263 $103 #
cone-surface $-1 50.367870623414667 -16.826583155907326 7.5880590589225321 -0.80901700255871778 0 -0.5877852410284794 0.14694631025711985 0 -0.20225425063967944 1 I I -0.70710678118654746 0.70710678118654746 0.25 forward I I I I #
loop $-1 $-1 $264 $74 #
coedge $-1 $166 $166 $265 $266 reversed $104 $-1 #
face $-1 $-1 $267 $58 $-1 $268 forward single #
loop $-1 $269 $270 $106 #
cone-surface $-1 50.367870623414667 -13.595035643876638 7.5880590589225321 -0.80901700255871778 0 -0.5877852410284794 0.14694631025711985 0 -0.20225425063967944 1 I I -0.70710678118654746 0.70710678118654746 0.25 forward I I I I #
loop $-1 $-1 $271 $75 #
coedge $-1 $171 $171 $272 $273 reversed $107 $-1 #
face $-1 $274 $275 $59 $-1 $276 reversed single #
loop $-1 $-1 $277 $109 #
plane-surface $-1 -9.3360395500364746 -1.0755490798053202 91.890071070754431 0.80901700255871778 0 0.5877852410284794 0.5877852410284794 0 -0.80901700255871778 forward_v I I I I #
coedge $-1 $278 $279 $280 $281 reversed $110 $-1 #
face $-1 $-1 $282 $60 $-1 $283 forward single #
loop $-1 $284 $285 $112 #
cone-surface $-1 50.367870623414667 -2.6913228358206638 7.5880590589225321 -0.80901700255871778 0 -0.5877852410284794 0.14694631025711985 0 -0.20225425063967944 1 I I -0.70710678118654746 0.70710678118654746 0.25 forward I I I I #
loop $-1 $-1 $286 $77 #
coedge $-1 $180 $180 $287 $288 reversed $113 $-1 #
face $-1 $-1 $289 $61 $-1 $290 forward single #
loop $-1 $291 $292 $115 #
cone-surface $-1 50.367870623414667 0.54022467621002335 7.5880590589225321 -0.80901700255871778 0 -0.5877852410284794 0.14694631025711985 0 -0.20225425063967944 1 I I -0.70710678118654746 0.70710678118654746 0.25 forward I I I I #
loop $-1 $-1 $293 $78 #
coedge $-1 $185 $185 $294 $295 reversed $116 $-1 #
face $-1 $296 $297 $62 $-1 $298 reversed single #
loop $-1 $-1 $299 $118 #
plane-surface $-1 -9.3360395500364746 13.059711240281345 91.890071070754431 0.80901700255871778 0 0.5877852410284794 0.5877852410284794 0 -0.80901700255871778 forward_v I I I I #
coedge $-1 $300 $301 $302 $303 reversed $119 $-1 #
face $-1 $-1 $304 $63 $-1 $305 forward single #
loop $-1 $306 $307 $121 #
cone-surface $-1 50.367870623414667 11.443937484266002 7.5880590589225321 -0.80901700255871778 0 -0.5877852410284794 0.14694631025711985 0 -0.20225425063967944 1 I I -0.70710678118654746 0.70710678118654746 0.25 forward I I I I #
loop $-1 $-1 $308 $80 #
coedge $-1 $194 $194 $309 $310 reversed $122 $-1 #
face $-1 $-1 $311 $64 $-1 $312 forward single #
loop $-1 $313 $314 $124 #
cone-surface $-1 50.367870623414667 14.675484996296689 7.5880590589225321 -0.80901700255871778 0 -0.5877852410284794 0.14694631025711985 0 -0.20225425063967944 1 I I -0.70710678118654746 0.70710678118654746 0.25 forward I I I I #
loop $-1 $-1 $315 $81 #
coedge $-1 $199 $199 $316 $317 reversed $125 $-1 #
face $-1 $318 $319 $65 $-1 $320 reversed single #
loop $-1 $-1 $321 $127 #
plane-surface $-1 -9.3360395500364746 27.19497156036801 91.890071070754431 0.80901700255871778 0 0.5877852410284794 0.5877852410284794 0 -0.80901700255871778 forward_v I I I I #
coedge $-1 $322 $323 $324 $325 reversed $128 $-1 #
face $-1 $-1 $326 $66 $-1 $327 forward single #
loop $-1 $328 $329 $130 #
cone-surface $-1 50.367870623414667 25.579197804352667 7.5880590589225321 -0.80901700255871778 0 -0.5877852410284794 0.14694631025711985 0 -0.20225425063967944 1 I I -0.70710678118654746 0.70710678118654746 0.25 forward I I I I #
loop $-1 $-1 $330 $83 #
coedge $-1 $208 $208 $331 $332 reversed $131 $-1 #
face $-1 $-1 $333 $67 $-1 $334 forward single #
loop $-1 $335 $336 $133 #
cone-surface $-1 50.367870623414667 28.810745316383354 7.5880590589225321 -0.80901700255871778 0 -0.5877852410284794 0.14694631025711985 0 -0.20225425063967944 1 I I -0.70710678118654746 0.70710678118654746 0.25 forward I I I I #
loop $-1 $-1 $337 $84 #
coedge $-1 $213 $213 $338 $339 reversed $134 $-1 #
face $-1 $340 $341 $51 $-1 $342 reversed single #
loop $-1 $-1 $343 $136 #
plane-surface $-1 0 -34.134235109293734 0 0 1 0 0 0 1 forward_v I I I I #
coedge $-1 $344 $345 $346 $347 forward $137 $-1 #
coedge $-1 $348 $139 $349 $350 forward $86 $-1 #
coedge $-1 $139 $348 $351 $352 forward $86 $-1 #
coedge $-1 $353 $354 $139 $221 reversed $355 $-1 #
edge $-1 $356 -34.134235109293734 $357 34.134235109293734 $220 $358 forward 7 unknown #
face $-1 $359 $360 $52 $-1 $361 reversed single #
loop $-1 $-1 $362 $140 #
plane-surface $-1 -53.17545091097751 0 0 1 0 0 0 0 -1 forward_v I I I I #
coedge $-1 $363 $364 $365 $366 reversed $141 $-1 #
coedge $-1 $367 $143 $368 $369 reversed $89 $-1 #
coedge $-1 $143 $367 $363 $370 forward $89 $-1 #
coedge $-1 $365 $371 $143 $229 forward $372 $-1 #
edge $-1 $373 -20.063158094765871 $374 -8.0789959342898534 $228 $375 forward 7 unknown #
face $-1 $376 $377 $53 $-1 $378 forward single #
loop $-1 $-1 $379 $144 #
plane-surface $-1 -140.29301041544977 11.062085662077259 68.090676746346219 0 -1 0 0.81915205242281985 0 -0.57357642473473569 forward_v I I I I #
coedge $-1 $380 $381 $382 $383 reversed $145 $-1 #
coedge $-1 $235 $147 $384 $385 reversed $92 $-1 #
coedge $-1 $147 $234 $380 $386 reversed $92 $-1 #
coedge $-1 $382 $387 $147 $237 forward $377 $-1 #
edge $-1 $388 16.971054296747376 $389 19.565246999303902 $236 $390 forward 7 unknown #
loop $-1 $-1 $243 $148 #
plane-surface $-1 -53.175450910977489 7.4049883262917646 7.0903067119943657 -0.81915205242281985 0 0.57357642473473569 0.57357642473473569 0 0.81915205242281985 forward_v I I I I #
loop $-1 $-1 $391 $94 #
coedge $-1 $241 $241 $242 $392 reversed $149 $-1 #
coedge $-1 $242 $242 $241 $392 forward $151 $-1 #
coedge $-1 $243 $243 $152 $244 forward $238 $-1 #
edge $-1 $393 0 $393 6.2831853071796004 $243 $394 forward 7 unknown #
loop $-1 $-1 $250 $153 #
plane-surface $-1 -53.175450910977489 7.4049883262917646 7.0903067119943657 -0.81915205242281985 0 0.57357642473473569 0.57357642473473569 0 0.81915205242281985 forward_v I I I I #
loop $-1 $-1 $395 $97 #
coedge $-1 $248 $248 $249 $396 reversed $154 $-1 #
coedge $-1 $249 $249 $248 $396 forward $156 $-1 #
coedge $-1 $250 $250 $157 $251 forward $245 $-1 #
edge $-1 $397 0 $397 6.2831853071796004 $250 $398 forward 7 unknown #
face $-1 $399 $400 $56 $-1 $401 reversed single #
loop $-1 $-1 $402 $158 #
plane-surface $-1 76.703648261378049 -18.980948163927785 154.40156153176841 0 1 0 0.80901700255871778 0 0.5877852410284794 forward_v I I I I #
coedge $-1 $403 $404 $405 $406 reversed $159 $-1 #
coedge $-1 $257 $161 $407 $408 reversed $101 $-1 #
coedge $-1 $161 $256 $403 $409 reversed $101 $-1 #
coedge $-1 $405 $410 $161 $259 forward $411 $-1 #
edge $-1 $412 -14.823626780288485 $413 -11.231008711559596 $258 $414 forward 7 unknown #
loop $-1 $-1 $265 $162 #
plane-surface $-1 -9.3360395500364746 -15.210809399891986 91.890071070754431 0.80901700255871778 0 0.5877852410284794 0.5877852410284794 0 -0.80901700255871778 forward_v I I I I #
loop $-1 $-1 $415 $103 #
coedge $-1 $263 $263 $264 $416 reversed $163 $-1 #
coedge $-1 $264 $264 $263 $416 forward $165 $-1 #
coedge $-1 $265 $265 $166 $266 forward $260 $-1 #
edge $-1 $417 0 $417 6.2831853071796004 $265 $418 forward 7 unknown #
loop $-1 $-1 $272 $167 #
plane-surface $-1 -9.3360395500364746 -15.210809399891986 91.890071070754431 0.80901700255871778 0 0.5877852410284794 0.5877852410284794 0 -0.80901700255871778 forward_v I I I I #
loop $-1 $-1 $419 $106 #
coedge $-1 $270 $270 $271 $420 reversed $168 $-1 #
coedge $-1 $271 $271 $270 $420 forward $170 $-1 #
coedge $-1 $272 $272 $171 $273 forward $267 $-1 #
edge $-1 $421 0 $421 6.2831853071796004 $272 $422 forward 7 unknown #
face $-1 $423 $424 $59 $-1 $425 reversed single #
loop $-1 $-1 $426 $172 #
plane-surface $-1 76.703648261378049 -4.8456878438411213 154.40156153176841 0 1 0 0.80901700255871778 0 0.5877852410284794 forward_v I I I I #
coedge $-1 $427 $428 $429 $430 reversed $173 $-1 #
coedge $-1 $279 $175 $431 $432 reversed $110 $-1 #
coedge $-1 $175 $278 $427 $433 reversed $110 $-1 #
coedge $-1 $429 $434 $175 $281 forward $435 $-1 #
edge $-1 $436 -14.823626780288485 $437 -11.231008711559596 $280 $438 forward 7 unknown #
loop $-1 $-1 $287 $176 #
plane-surface $-1 -9.3360395500364746 -1.0755490798053202 91.890071070754431 0.80901700255871778 0 0.5877852410284794 0.5877852410284794 0 -0.80901700255871778 forward_v I I I I #
loop $-1 $-1 $439 $112 #
coedge $-1 $285 $285 $286 $440 reversed $177 $-1 #
coedge $-1 $286 $286 $285 $440 forward $179 $-1 #
coedge $-1 $287 $287 $180 $288 forward $282 $-1 #
edge $-1 $441 0 $441 6.2831853071796004 $287 $442 forward 7 unknown #
loop $-1 $-1 $294 $181 #
plane-surface $-1 -9.3360395500364746 -1.0755490798053202 91.890071070754431 0.80901700255871778 0 0.5877852410284794 0.5877852410284794 0 -0.80901700255871778 forward_v I I I I #
loop $-1 $-1 $443 $115 #
coedge $-1 $292 $292 $293 $444 reversed $182 $-1 #
coedge $-1 $293 $293 $292 $444 forward $184 $-1 #
coedge $-1 $294 $294 $185 $295 forward $289 $-1 #
edge $-1 $445 0 $445 6.2831853071796004 $294 $446 forward 7 unknown #
face $-1 $447 $448 $62 $-1 $449 reversed single #
loop $-1 $-1 $450 $186 #
plane-surface $-1 76.703648261378049 9.2895724762455441 154.40156153176841 0 1 0 0.80901700255871778 0 0.5877852410284794 forward_v I I I I #
coedge $-1 $451 $452 $453 $454 reversed $187 $-1 #
coedge $-1 $301 $189 $455 $456 reversed $119 $-1 #
coedge $-1 $189 $300 $451 $457 reversed $119 $-1 #
coedge $-1 $453 $458 $189 $303 forward $459 $-1 #
edge $-1 $460 -14.823626780288485 $461 -11.231008711559596 $302 $462 forward 7 unknown #
loop $-1 $-1 $309 $190 #
plane-surface $-1 -9.3360395500364746 13.059711240281345 91.890071070754431 0.80901700255871778 0 0.5877852410284794 0.5877852410284794 0 -0.80901700255871778 forward_v I I I I #
loop $-1 $-1 $463 $121 #
coedge $-1 $307 $307 $308 $464 reversed $191 $-1 #
coedge $-1 $308 $308 $307 $464 forward $193 $-1 #
coedge $-1 $309 $309 $194 $310 forward $304 $-1 #
edge $-1 $465 0 $465 6.2831853071796004 $309 $466 forward 7 unknown #
loop $-1 $-1 $316 $195 #
plane-surface $-1 -9.3360395500364746 13.059711240281345 91.890071070754431 0.80901700255871778 0 0.5877852410284794 0.5877852410284794 0 -0.80901700255871778 forward_v I I I I #
loop $-1 $-1 $467 $124 #
coedge $-1 $314 $314 $315 $468 reversed $196 $-1 #
coedge $-1 $315 $315 $314 $468 forward $198 $-1 #
coedge $-1 $316 $316 $199 $317 forward $311 $-1 #
edge $-1 $469 0 $469 6.2831853071796004 $316 $470 forward 7 unknown #
face $-1 $471 $472 $65 $-1 $473 reversed single #
loop $-1 $-1 $474 $200 #
plane-surface $-1 76.703648261378049 23.424832796332211 154.40156153176841 0 1 0 0.80901700255871778 0 0.5877852410284794 forward_v I I I I #
coedge $-1 $475 $476 $477 $478 reversed $201 $-1 #
coedge $-1 $323 $203 $479 $480 reversed $128 $-1 #
coedge $-1 $203 $322 $475 $481 reversed $128 $-1 #
coedge $-1 $477 $482 $203 $325 forward $483 $-1 #
edge $-1 $484 -14.823626780288485 $485 -11.231008711559596 $324 $486 forward 7 unknown #
loop $-1 $-1 $331 $204 #
plane-surface $-1 -9.3360395500364746 27.19497156036801 91.890071070754431 0.80901700255871778 0 0.5877852410284794 0.5877852410284794 0 -0.80901700255871778 forward_v I I I I #
loop $-1 $-1 $487 $130 #
coedge $-1 $329 $329 $330 $488 reversed $205 $-1 #
coedge $-1 $330 $330 $329 $488 forward $207 $-1 #
coedge $-1 $331 $331 $208 $332 forward $326 $-1 #
edge $-1 $489 0 $489 6.2831853071796004 $331 $490 forward 7 unknown #
loop $-1 $-1 $338 $209 #
plane-surface $-1 -9.3360395500364746 27.19497156036801 91.890071070754431 0.80901700255871778 0 0.5877852410284794 0.5877852410284794 0 -0.80901700255871778 forward_v I I I I #
loop $-1 $-1 $491 $133 #
coedge $-1 $336 $336 $337 $492 reversed $210 $-1 #
coedge $-1 $337 $337 $336 $492 forward $212 $-1 #
coedge $-1 $338 $338 $213 $339 forward $333 $-1 #
edge $-1 $493 0 $493 6.2831853071796004 $338 $494 forward 7 unknown #
face $-1 $495 $496 $51 $-1 $497 reversed single #
loop $-1 $-1 $498 $214 #
plane-surface $-1 -53.17545091097751 0 0 1 0 0 0 0 -1 forward_v I I I I #
coedge $-1 $499 $351 $500 $501 forward $215 $-1 #
coedge $-1 $502 $217 $499 $503 forward $137 $-1 #
coedge $-1 $217 $502 $504 $505 forward $137 $-1 #
coedge $-1 $354 $353 $217 $347 reversed $355 $-1 #
edge $-1 $506 -34.134235109293734 $507 34.134235109293734 $346 $508 forward 7 unknown #
coedge $-1 $219 $218 $509 $510 forward $86 $-1 #
coedge $-1 $511 $512 $218 $350 reversed $496 $-1 #
edge $-1 $357 -53.17545091097751 $513 53.17545091097751 $349 $514 forward 7 unknown #
coedge $-1 $343 $515 $219 $352 reversed $215 $-1 #
edge $-1 $516 -53.17545091097751 $356 53.17545091097751 $351 $517 forward 7 unknown #
coedge $-1 $346 $220 $515 $518 forward $355 $-1 #
coedge $-1 $220 $346 $511 $519 reversed $355 $-1 #
loop $-1 $-1 $353 $495 #
vertex $-1 $221 $520 #
vertex $-1 $221 $521 #
straight-curve $-1 53.17545091097751 0 10.795197961076362 0 1 0 I I #
face $-1 $522 $523 $52 $-1 $524 forward single #
loop $-1 $-1 $368 $222 #
plane-surface $-1 0 -34.134235109293734 0 0 1 0 0 0 1 forward_v I I I I #
coedge $-1 $525 $526 $527 $528 forward $223 $-1 #
coedge $-1 $527 $225 $227 $370 reversed $141 $-1 #
coedge $-1 $225 $527 $529 $530 reversed $141 $-1 #
coedge $-1 $531 $228 $225 $366 forward $372 $-1 #
edge $-1 $374 2.3825572183846564 $532 6.4026129012560222 $365 $533 forward 7 unknown #
coedge $-1 $227 $226 $525 $534 reversed $89 $-1 #
coedge $-1 $535 $536 $226 $369 forward $360 $-1 #
edge $-1 $537 -53.17545091097751 $373 53.17545091097751 $368 $538 forward 7 unknown #
edge $-1 $539 -53.17545091097751 $374 53.17545091097751 $363 $540 forward 7 unknown #
coedge $-1 $228 $531 $535 $541 forward $372 $-1 #
loop $-1 $-1 $365 $522 #
vertex $-1 $369 $542 #
vertex $-1 $229 $543 #
straight-curve $-1 53.17545091097751 -14.071077014527862 6.7751422782049957 0 1 0 I I #
face $-1 $-1 $544 $53 $-1 $545 reversed single #
loop $-1 $-1 $236 $230 #
plane-surface $-1 0 0 10.795197961076362 0 0 1 1 0 0 forward_v I I I I #
coedge $-1 $546 $547 $548 $549 reversed $231 $-1 #
coedge $-1 $550 $233 $235 $386 forward $145 $-1 #
coedge $-1 $233 $550 $546 $551 forward $145 $-1 #
coedge $-1 $548 $236 $233 $383 forward $377 $-1 #
edge $-1 $389 0.045396827360388414 $552 7.3595914989313762 $382 $553 forward 7 unknown #
coedge $-1 $554 $555 $234 $385 forward $544 $-1 #
edge $-1 $556 -26.955031661178772 $388 -23.250140412096748 $384 $557 forward 7 unknown #
edge $-1 $389 -4.5228370460941631 $556 3.6963324824065977e-014 $235 $558 forward 7 unknown #
coedge $-1 $236 $548 $554 $559 forward $377 $-1 #
vertex $-1 $385 $560 #
vertex $-1 $237 $561 #
straight-curve $-1 -70.146505207724886 3.7478909905062707 10.795197961076362 1 0 0 I I #
coedge $-1 $391 $391 $-1 $562 reversed $240 $-1 #
edge $-1 $563 0 $563 6.2831853071796004 $241 $564 forward 7 unknown #
vertex $-1 $244 $565 #
ellipse-curve $-1 -51.87835455969924 5.8376608966694121 8.9427523365353583 -0.81915205242281985 0 0.57357642473473569 0.14339410618368392 0 0.20478801310570496 1 I I #
coedge $-1 $395 $395 $-1 $566 reversed $247 $-1 #
edge $-1 $567 0 $567 6.2831853071796004 $248 $568 forward 7 unknown #
vertex $-1 $251 $569 #
ellipse-curve $-1 -51.87835455969924 8.9723157559141242 8.9427523365353583 -0.81915205242281985 0 0.57357642473473569 0.14339410618368392 0 0.20478801310570496 1 I I #
face $-1 $-1 $411 $56 $-1 $570 forward single #
loop $-1 $-1 $571 $252 #
plane-surface $-1 53.17545091097751 0 0 -1 0 0 0 0 1 forward_v I I I I #
coedge $-1 $572 $573 $574 $575 reversed $253 $-1 #
coedge $-1 $576 $255 $257 $409 forward $159 $-1 #
coedge $-1 $255 $576 $572 $577 forward $159 $-1 #
coedge $-1 $574 $258 $255 $406 forward $411 $-1 #
edge $-1 $413 3.8352659359101917 $578 11.375543463981792 $405 $579 forward 7 unknown #
coedge $-1 $580 $581 $256 $408 forward $400 $-1 #
edge $-1 $582 -71.350397506544311 $412 -66.405582804807835 $407 $583 forward 7 unknown #
edge $-1 $413 100.23877477629685 $582 106.35090182195503 $257 $584 forward 7 unknown #
coedge $-1 $258 $574 $580 $585 forward $411 $-1 #
loop $-1 $-1 $574 $399 #
vertex $-1 $408 $586 #
vertex $-1 $259 $587 #
straight-curve $-1 38.351824130689025 -11.440670635856184 10.795197961076354 -1 0 0 I I #
coedge $-1 $415 $415 $-1 $588 reversed $262 $-1 #
edge $-1 $589 0 $589 6.2831853071796004 $263 $590 forward 7 unknown #
vertex $-1 $266 $591 #
ellipse-curve $-1 51.379141876613062 -16.826583155907326 8.3227906102081324 0.80901700255871778 0 0.5877852410284794 0.2938926205142397 0 -0.40450850127935889 1 I I #
coedge $-1 $419 $419 $-1 $592 reversed $269 $-1 #
edge $-1 $593 0 $593 6.2831853071796004 $270 $594 forward 7 unknown #
vertex $-1 $273 $595 #
ellipse-curve $-1 51.379141876613062 -13.595035643876638 8.3227906102081324 0.80901700255871778 0 0.5877852410284794 0.2938926205142397 0 -0.40450850127935889 1 I I #
face $-1 $-1 $435 $59 $-1 $596 forward single #
loop $-1 $-1 $597 $274 #
plane-surface $-1 53.17545091097751 0 0 -1 0 0 0 0 1 forward_v I I I I #
coedge $-1 $598 $599 $600 $601 reversed $275 $-1 #
coedge $-1 $602 $277 $279 $433 forward $173 $-1 #
coedge $-1 $277 $602 $598 $603 forward $173 $-1 #
coedge $-1 $600 $280 $277 $430 forward $435 $-1 #
edge $-1 $437 -3.232364224133141 $604 4.3079133039384612 $429 $605 forward 7 unknown #
coedge $-1 $606 $607 $278 $432 forward $424 $-1 #
edge $-1 $608 -71.350397506544311 $436 -66.405582804807835 $431 $609 forward 7 unknown #
edge $-1 $437 100.23877477629685 $608 106.35090182195503 $279 $610 forward 7 unknown #
coedge $-1 $280 $600 $606 $611 forward $435 $-1 #
loop $-1 $-1 $600 $423 #
vertex $-1 $432 $612 #
vertex $-1 $281 $613 #
straight-curve $-1 38.351824130689025 2.6945896842304808 10.795197961076354 -1 0 0 I I #
coedge $-1 $439 $439 $-1 $614 reversed $284 $-1 #
edge $-1 $615 0 $615 6.2831853071796004 $285 $616 forward 7 unknown #
vertex $-1 $288 $617 #
ellipse-curve $-1 51.379141876613062 -2.6913228358206638 8.3227906102081324 0.80901700255871778 0 0.5877852410284794 0.2938926205142397 0 -0.40450850127935889 1 I I #
coedge $-1 $443 $443 $-1 $618 reversed $291 $-1 #
edge $-1 $619 0 $619 6.2831853071796004 $292 $620 forward 7 unknown #
vertex $-1 $295 $621 #
ellipse-curve $-1 51.379141876613062 0.54022467621002335 8.3227906102081324 0.80901700255871778 0 0.5877852410284794 0.2938926205142397 0 -0.40450850127935889 1 I I #
face $-1 $-1 $459 $62 $-1 $622 forward single #
loop $-1 $-1 $623 $296 #
plane-surface $-1 53.17545091097751 0 0 -1 0 0 0 0 1 forward_v I I I I #
coedge $-1 $624 $625 $626 $627 reversed $297 $-1 #
coedge $-1 $628 $299 $301 $457 forward $187 $-1 #
coedge $-1 $299 $628 $624 $629 forward $187 $-1 #
coedge $-1 $626 $302 $299 $454 forward $459 $-1 #
edge $-1 $461 -10.299994384176472 $630 -2.7597168561048715 $453 $631 forward 7 unknown #
coedge $-1 $632 $633 $300 $456 forward $448 $-1 #
edge $-1 $634 -71.350397506544311 $460 -66.405582804807835 $455 $635 forward 7 unknown #
edge $-1 $461 100.23877477629685 $634 106.35090182195503 $301 $636 forward 7 unknown #
coedge $-1 $302 $626 $632 $637 forward $459 $-1 #
loop $-1 $-1 $626 $447 #
vertex $-1 $456 $638 #
vertex $-1 $303 $639 #
straight-curve $-1 38.351824130689025 16.829850004317144 10.795197961076354 -1 0 0 I I #
coedge $-1 $463 $463 $-1 $640 reversed $306 $-1 #
edge $-1 $641 0 $641 6.2831853071796004 $307 $642 forward 7 unknown #
vertex $-1 $310 $643 #
ellipse-curve $-1 51.379141876613062 11.443937484266002 8.3227906102081324 0.80901700255871778 0 0.5877852410284794 0.2938926205142397 0 -0.40450850127935889 1 I I #
coedge $-1 $467 $467 $-1 $644 reversed $313 $-1 #
edge $-1 $645 0 $645 6.2831853071796004 $314 $646 forward 7 unknown #
vertex $-1 $317 $647 #
ellipse-curve $-1 51.379141876613062 14.675484996296689 8.3227906102081324 0.80901700255871778 0 0.5877852410284794 0.2938926205142397 0 -0.40450850127935889 1 I I #
face $-1 $-1 $483 $65 $-1 $648 forward single #
loop $-1 $-1 $649 $318 #
plane-surface $-1 53.17545091097751 0 0 -1 0 0 0 0 1 forward_v I I I I #
coedge $-1 $650 $651 $652 $653 reversed $319 $-1 #
coedge $-1 $654 $321 $323 $481 forward $201 $-1 #
coedge $-1 $321 $654 $650 $655 forward $201 $-1 #
coedge $-1 $652 $324 $321 $478 forward $483 $-1 #
edge $-1 $485 -17.367624544219805 $656 -9.8273470161482059 $477 $657 forward 7 unknown #
coedge $-1 $658 $659 $322 $480 forward $472 $-1 #
edge $-1 $660 -71.350397506544311 $484 -66.405582804807835 $479 $661 forward 7 unknown #
edge $-1 $485 100.23877477629685 $660 106.35090182195503 $323 $662 forward 7 unknown #
coedge $-1 $324 $652 $658 $663 forward $483 $-1 #
loop $-1 $-1 $652 $471 #
vertex $-1 $480 $664 #
vertex $-1 $325 $665 #
straight-curve $-1 38.351824130689025 30.96511032440381 10.795197961076354 -1 0 0 I I #
coedge $-1 $487 $487 $-1 $666 reversed $328 $-1 #
edge $-1 $667 0 $667 6.2831853071796004 $329 $668 forward 7 unknown #
vertex $-1 $332 $669 #
ellipse-curve $-1 51.379141876613062 25.579197804352667 8.3227906102081324 0.80901700255871778 0 0.5877852410284794 0.2938926205142397 0 -0.40450850127935889 1 I I #
coedge $-1 $491 $491 $-1 $670 reversed $335 $-1 #
edge $-1 $671 0 $671 6.2831853071796004 $336 $672 forward 7 unknown #
vertex $-1 $339 $673 #
ellipse-curve $-1 51.379141876613062 28.810745316383354 8.3227906102081324 0.80901700255871778 0 0.5877852410284794 0.2938926205142397 0 -0.40450850127935889 1 I I #
face $-1 $-1 $355 $51 $-1 $674 reversed single #
loop $-1 $-1 $511 $340 #
plane-surface $-1 0 34.134235109293734 0 0 -1 0 0 0 -1 forward_v I I I I #
coedge $-1 $675 $509 $512 $676 forward $341 $-1 #
coedge $-1 $515 $343 $344 $503 reversed $215 $-1 #
coedge $-1 $509 $675 $343 $501 reversed $341 $-1 #
edge $-1 $516 -10.795197961076362 $677 10.795197961076362 $500 $678 forward 7 unknown #
coedge $-1 $345 $344 $675 $679 forward $137 $-1 #
edge $-1 $507 -53.17545091097751 $677 53.17545091097751 $499 $680 forward 7 unknown #
coedge $-1 $512 $511 $345 $505 reversed $496 $-1 #
edge $-1 $681 -53.17545091097751 $506 53.17545091097751 $504 $682 forward 7 unknown #
vertex $-1 $347 $683 #
vertex $-1 $518 $684 #
straight-curve $-1 53.17545091097751 0 -10.795197961076362 0 -1 0 I I #
coedge $-1 $498 $500 $348 $510 reversed $341 $-1 #
edge $-1 $513 -34.134235109293734 $516 34.134235109293734 $509 $685 forward 7 unknown #
coedge $-1 $504 $349 $354 $519 forward $496 $-1 #
coedge $-1 $349 $504 $498 $676 reversed $496 $-1 #
vertex $-1 $350 $686 #
straight-curve $-1 0 34.134235109293734 10.795197961076362 -1 0 0 I I #
coedge $-1 $351 $499 $353 $518 reversed $215 $-1 #
vertex $-1 $510 $687 #
straight-curve $-1 0 -34.134235109293734 10.795197961076362 1 0 0 I I #
edge $-1 $356 -10.795197961076362 $507 10.795197961076362 $353 $688 forward 7 unknown #
edge $-1 $357 -10.795197961076362 $506 10.795197961076362 $354 $689 forward 7 unknown #
point $-1 53.17545091097751 -34.134235109293734 10.795197961076362 #
point $-1 53.17545091097751 34.134235109293734 10.795197961076362 #
face $-1 $-1 $372 $52 $-1 $690 reversed single #
loop $-1 $-1 $529 $359 #
plane-surface $-1 0 0 10.795197961076362 0 0 1 1 0 0 forward_v I I I I #
coedge $-1 $691 $362 $367 $534 forward $223 $-1 #
coedge $-1 $362 $691 $692 $693 reversed $223 $-1 #
coedge $-1 $364 $363 $362 $528 reversed $141 $-1 #
edge $-1 $694 -6.4026129012560222 $539 -2.3825572183846564 $362 $695 forward 7 unknown #
coedge $-1 $692 $696 $364 $530 forward $523 $-1 #
edge $-1 $532 -53.17545091097751 $694 53.17545091097751 $529 $697 forward 7 unknown #
coedge $-1 $371 $365 $696 $698 reversed $372 $-1 #
vertex $-1 $366 $699 #
straight-curve $-1 53.17545091097751 -22.150072948817716 4.3925850598203393 0 0 1 I I #
edge $-1 $539 8.0789959342898534 $537 20.063158094765871 $525 $700 forward 7 unknown #
coedge $-1 $701 $368 $371 $541 reversed $360 $-1 #
coedge $-1 $368 $701 $691 $702 forward $360 $-1 #
vertex $-1 $369 $703 #
straight-curve $-1 0 -34.134235109293734 6.7751422782049957 1 0 0 I I #
vertex $-1 $534 $704 #
straight-curve $-1 0 -22.150072948817716 6.7751422782049957 1 0 0 I I #
edge $-1 $705 -10.795197961076362 $373 -6.7751422782049957 $371 $706 forward 7 unknown #
point $-1 53.17545091097751 -34.134235109293734 6.7751422782049957 #
point $-1 53.17545091097751 -22.150072948817716 6.7751422782049957 #
loop $-1 $-1 $384 $376 #
plane-surface $-1 -53.17545091097751 0 0 1 0 0 0 0 -1 forward_v I I I I #
coedge $-1 $547 $379 $381 $551 reversed $231 $-1 #
coedge $-1 $379 $546 $707 $708 reversed $231 $-1 #
coedge $-1 $387 $382 $379 $549 forward $377 $-1 #
edge $-1 $552 -19.565246999303902 $709 -16.971054296747376 $548 $710 forward 7 unknown #
coedge $-1 $381 $380 $555 $711 reversed $145 $-1 #
edge $-1 $712 -3.6963324824065977e-014 $552 4.5228370460941631 $546 $713 forward 7 unknown #
vertex $-1 $383 $714 #
straight-curve $-1 -50.581258208420984 3.7024941631458823 10.795197961076363 0 1 0 I I #
coedge $-1 $707 $384 $387 $559 reversed $544 $-1 #
coedge $-1 $384 $707 $550 $711 forward $544 $-1 #
vertex $-1 $385 $715 #
straight-curve $-1 -53.17545091097751 3.7478909905062707 34.045338373173109 0 0 1 I I #
straight-curve $-1 -53.175450910977489 3.7478909905062707 7.0903067119943657 -0.57357642473473569 0 -0.81915205242281985 I I #
edge $-1 $709 -11.062085662077259 $388 -3.7478909905062707 $554 $716 forward 7 unknown #
point $-1 -53.17545091097751 3.7478909905062707 10.795197961076362 #
point $-1 -50.581258208420984 3.7478909905062707 10.795197961076362 #
edge $-1 $717 1 $717 0 $391 $-1 forward 7 unknown #
vertex $-1 $392 $718 #
ellipse-curve $-1 -51.059202507276439 5.8376608966694121 8.3691759118006352 -0.81915205242281985 0 0.57357642473473569 0.14339410618368392 0 0.20478801310570496 1 I I #
point $-1 -51.734960453515576 5.8376608966694121 9.1475403496410763 #
edge $-1 $719 1 $719 0 $395 $-1 forward 7 unknown #
vertex $-1 $396 $720 #
ellipse-curve $-1 -51.059202507276439 8.9723157559141242 8.3691759118006352 -0.81915205242281985 0 0.57357642473473569 0.14339410618368392 0 0.20478801310570496 1 I I #
point $-1 -51.734960453515576 8.9723157559141242 9.1475403496410763 #
plane-surface $-1 0 0 10.795197961076362 0 0 1 1 0 0 forward_v I I I I #
coedge $-1 $581 $580 $573 $721 forward $400 $-1 #
coedge $-1 $573 $402 $404 $577 reversed $253 $-1 #
coedge $-1 $402 $572 $571 $721 reversed $253 $-1 #
coedge $-1 $410 $405 $402 $575 forward $411 $-1 #
edge $-1 $578 11.231008711559596 $722 14.823626780288485 $574 $723 forward 7 unknown #
coedge $-1 $404 $403 $581 $724 reversed $159 $-1 #
edge $-1 $725 -106.35090182195503 $578 -100.23877477629685 $572 $726 forward 7 unknown #
vertex $-1 $406 $727 #
straight-curve $-1 49.582832842248614 -7.6054046999459928 10.795197961076362 0 -1 0 I I #
coedge $-1 $571 $407 $410 $585 reversed $400 $-1 #
coedge $-1 $407 $571 $576 $724 forward $400 $-1 #
vertex $-1 $408 $728 #
straight-curve $-1 53.17545091097751 -11.440670635856184 77.200780765884204 0 0 1 I I #
straight-curve $-1 -9.3360395500364746 -11.440670635856184 91.890071070754431 0.5877852410284794 0 -0.80901700255871778 I I #
edge $-1 $722 -18.980948163927785 $412 -11.440670635856184 $580 $729 forward 7 unknown #
point $-1 53.17545091097751 -11.440670635856184 10.795197961076362 #
point $-1 49.582832842248621 -11.440670635856184 10.795197961076354 #
edge $-1 $730 1 $730 0 $415 $-1 forward 7 unknown #
vertex $-1 $416 $731 #
ellipse-curve $-1 50.570124874054343 -16.826583155907326 7.7350053691796523 0.80901700255871778 0 0.5877852410284794 0.2938926205142397 0 -0.40450850127935889 1 I I #
point $-1 51.673034497127304 -16.826583155907326 7.9182821089287723 #
edge $-1 $732 1 $732 0 $419 $-1 forward 7 unknown #
vertex $-1 $420 $733 #
ellipse-curve $-1 50.570124874054343 -13.595035643876638 7.7350053691796523 0.80901700255871778 0 0.5877852410284794 0.2938926205142397 0 -0.40450850127935889 1 I I #
point $-1 51.673034497127304 -13.595035643876638 7.9182821089287723 #
plane-surface $-1 0 0 10.795197961076362 0 0 1 1 0 0 forward_v I I I I #
coedge $-1 $607 $606 $599 $734 forward $424 $-1 #
coedge $-1 $599 $426 $428 $603 reversed $275 $-1 #
coedge $-1 $426 $598 $597 $734 reversed $275 $-1 #
coedge $-1 $434 $429 $426 $601 forward $435 $-1 #
edge $-1 $604 11.231008711559596 $735 14.823626780288485 $600 $736 forward 7 unknown #
coedge $-1 $428 $427 $607 $737 reversed $173 $-1 #
edge $-1 $738 -106.35090182195503 $604 -100.23877477629685 $598 $739 forward 7 unknown #
vertex $-1 $430 $740 #
straight-curve $-1 49.582832842248614 -0.53777453990266011 10.795197961076362 0 -1 0 I I #
coedge $-1 $597 $431 $434 $611 reversed $424 $-1 #
coedge $-1 $431 $597 $602 $737 forward $424 $-1 #
vertex $-1 $432 $741 #
straight-curve $-1 53.17545091097751 2.6945896842304808 77.200780765884204 0 0 1 I I #
straight-curve $-1 -9.3360395500364746 2.6945896842304808 91.890071070754431 0.5877852410284794 0 -0.80901700255871778 I I #
edge $-1 $735 -4.8456878438411213 $436 2.6945896842304808 $606 $742 forward 7 unknown #
point $-1 53.17545091097751 2.6945896842304808 10.795197961076362 #
point $-1 49.582832842248621 2.6945896842304808 10.795197961076354 #
edge $-1 $743 1 $743 0 $439 $-1 forward 7 unknown #
vertex $-1 $440 $744 #
ellipse-curve $-1 50.570124874054343 -2.6913228358206638 7.7350053691796523 0.80901700255871778 0 0.5877852410284794 0.2938926205142397 0 -0.40450850127935889 1 I I #
point $-1 51.673034497127304 -2.6913228358206638 7.9182821089287723 #
edge $-1 $745 1 $745 0 $443 $-1 forward 7 unknown #
vertex $-1 $444 $746 #
ellipse-curve $-1 50.570124874054343 0.54022467621002335 7.7350053691796523 0.80901700255871778 0 0.5877852410284794 0.2938926205142397 0 -0.40450850127935889 1 I I #
point $-1 51.673034497127304 0.54022467621002335 7.9182821089287723 #
plane-surface $-1 0 0 10.795197961076362 0 0 1 1 0 0 forward_v I I I I #
coedge $-1 $633 $632 $625 $747 forward $448 $-1 #
coedge $-1 $625 $450 $452 $629 reversed $297 $-1 #
coedge $-1 $450 $624 $623 $747 reversed $297 $-1 #
coedge $-1 $458 $453 $450 $627 forward $459 $-1 #
edge $-1 $630 11.231008711559596 $748 14.823626780288485 $626 $749 forward 7 unknown #
coedge $-1 $452 $451 $633 $750 reversed $187 $-1 #
edge $-1 $751 -106.35090182195503 $630 -100.23877477629685 $624 $752 forward 7 unknown #
vertex $-1 $454 $753 #
straight-curve $-1 49.582832842248614 6.5298556201406726 10.795197961076362 0 -1 0 I I #
coedge $-1 $623 $455 $458 $637 reversed $448 $-1 #
coedge $-1 $455 $623 $628 $750 forward $448 $-1 #
vertex $-1 $456 $754 #
straight-curve $-1 53.17545091097751 16.829850004317144 77.200780765884204 0 0 1 I I #
straight-curve $-1 -9.3360395500364746 16.829850004317144 91.890071070754431 0.5877852410284794 0 -0.80901700255871778 I I #
edge $-1 $748 9.2895724762455441 $460 16.829850004317144 $632 $755 forward 7 unknown #
point $-1 53.17545091097751 16.829850004317144 10.795197961076362 #
point $-1 49.582832842248621 16.829850004317144 10.795197961076354 #
edge $-1 $756 1 $756 0 $463 $-1 forward 7 unknown #
vertex $-1 $464 $757 #
ellipse-curve $-1 50.570124874054343 11.443937484266002 7.7350053691796523 0.80901700255871778 0 0.5877852410284794 0.2938926205142397 0 -0.40450850127935889 1 I I #
point $-1 51.673034497127304 11.443937484266002 7.9182821089287723 #
edge $-1 $758 1 $758 0 $467 $-1 forward 7 unknown #
vertex $-1 $468 $759 #
ellipse-curve $-1 50.570124874054343 14.675484996296689 7.7350053691796523 0.80901700255871778 0 0.5877852410284794 0.2938926205142397 0 -0.40450850127935889 1 I I #
point $-1 51.673034497127304 14.675484996296689 7.9182821089287723 #
plane-surface $-1 0 0 10.795197961076362 0 0 1 1 0 0 forward_v I I I I #
coedge $-1 $659 $658 $651 $760 forward $472 $-1 #
coedge $-1 $651 $474 $476 $655 reversed $319 $-1 #
coedge $-1 $474 $650 $649 $760 reversed $319 $-1 #
coedge $-1 $482 $477 $474 $653 forward $483 $-1 #
edge $-1 $656 11.231008711559596 $761 14.823626780288485 $652 $762 forward 7 unknown #
coedge $-1 $476 $475 $659 $763 reversed $201 $-1 #
edge $-1 $764 -106.35090182195503 $656 -100.23877477629685 $650 $765 forward 7 unknown #
vertex $-1 $478 $766 #
straight-curve $-1 49.582832842248614 13.597485780184005 10.795197961076362 0 -1 0 I I #
coedge $-1 $649 $479 $482 $663 reversed $472 $-1 #
coedge $-1 $479 $649 $654 $763 forward $472 $-1 #
vertex $-1 $480 $767 #
straight-curve $-1 53.17545091097751 30.96511032440381 77.200780765884204 0 0 1 I I #
straight-curve $-1 -9.3360395500364746 30.96511032440381 91.890071070754431 0.5877852410284794 0 -0.80901700255871778 I I #
edge $-1 $761 23.424832796332211 $484 30.96511032440381 $658 $768 forward 7 unknown #
point $-1 53.17545091097751 30.96511032440381 10.795197961076362 #
point $-1 49.582832842248621 30.96511032440381 10.795197961076354 #
edge $-1 $769 1 $769 0 $487 $-1 forward 7 unknown #
vertex $-1 $488 $770 #
ellipse-curve $-1 50.570124874054343 25.579197804352667 7.7350053691796523 0.80901700255871778 0 0.5877852410284794 0.2938926205142397 0 -0.40450850127935889 1 I I #
point $-1 51.673034497127304 25.579197804352667 7.9182821089287723 #
edge $-1 $771 1 $771 0 $491 $-1 forward 7 unknown #
vertex $-1 $492 $772 #
ellipse-curve $-1 50.570124874054343 28.810745316383354 7.7350053691796523 0.80901700255871778 0 0.5877852410284794 0.2938926205142397 0 -0.40450850127935889 1 I I #
point $-1 51.673034497127304 28.810745316383354 7.9182821089287723 #
plane-surface $-1 53.17545091097751 0 0 -1 0 0 0 0 1 forward_v I I I I #
coedge $-1 $500 $498 $502 $679 reversed $341 $-1 #
edge $-1 $513 -10.795197961076362 $681 10.795197961076362 $512 $773 forward 7 unknown #
vertex $-1 $679 $774 #
straight-curve $-1 -53.17545091097751 -34.134235109293734 0 0 0 -1 I I #
edge $-1 $677 -34.134235109293734 $681 34.134235109293734 $675 $775 forward 7 unknown #
straight-curve $-1 0 -34.134235109293734 -10.795197961076362 -1 0 0 I I #
vertex $-1 $505 $776 #
straight-curve $-1 0 34.134235109293734 -10.795197961076362 1 0 0 I I #
point $-1 53.17545091097751 34.134235109293734 -10.795197961076362 #
point $-1 53.17545091097751 -34.134235109293734 -10.795197961076362 #
straight-curve $-1 -53.17545091097751 0 10.795197961076362 0 -1 0 I I #
point $-1 -53.17545091097751 34.134235109293734 10.795197961076362 #
point $-1 -53.17545091097751 -34.134235109293734 10.795197961076362 #
straight-curve $-1 53.17545091097751 -34.134235109293734 0 0 0 -1 I I #
straight-curve $-1 53.17545091097751 34.134235109293734 0 0 0 -1 I I #
plane-surface $-1 53.17545091097751 0 0 -1 0 0 0 0 1 forward_v I I I I #
coedge $-1 $526 $525 $536 $702 reversed $223 $-1 #
coedge $-1 $777 $529 $526 $693 forward $523 $-1 #
edge $-1 $694 22.150072948817716 $778 34.134235109293734 $526 $779 forward 7 unknown #
vertex $-1 $693 $780 #
straight-curve $-1 -53.17545091097751 -22.150072948817716 4.3925850598203393 0 0 -1 I I #
coedge $-1 $529 $777 $531 $698 forward $523 $-1 #
straight-curve $-1 0 -22.150072948817716 10.795197961076362 -1 0 0 I I #
edge $-1 $705 -34.134235109293734 $532 -22.150072948817716 $531 $781 forward 7 unknown #
point $-1 53.17545091097751 -22.150072948817716 10.795197961076362 #
straight-curve $-1 -53.17545091097751 -14.071077014527862 6.7751422782049957 0 -1 0 I I #
coedge $-1 $536 $535 $777 $782 reversed $360 $-1 #
edge $-1 $778 -10.795197961076362 $537 -6.7751422782049957 $691 $783 forward 7 unknown #
point $-1 -53.17545091097751 -34.134235109293734 6.7751422782049957 #
point $-1 -53.17545091097751 -22.150072948817716 6.7751422782049957 #
vertex $-1 $698 $784 #
straight-curve $-1 53.17545091097751 -34.134235109293734 0 0 0 -1 I I #
coedge $-1 $555 $554 $547 $708 forward $544 $-1 #
edge $-1 $709 23.250140412096748 $712 26.955031661178772 $707 $785 forward 7 unknown #
vertex $-1 $559 $786 #
straight-curve $-1 -70.146505207724886 11.062085662077259 10.795197961076362 -1 0 0 I I #
edge $-1 $712 -7.3595914989313762 $556 -0.045396827360388414 $555 $787 forward 7 unknown #
vertex $-1 $711 $788 #
straight-curve $-1 -53.175450910977489 11.062085662077259 7.0903067119943657 0.57357642473473569 0 0.81915205242281985 I I #
point $-1 -50.581258208420984 11.062085662077259 10.795197961076362 #
point $-1 -53.17545091097751 3.7478909905062707 7.0903067119943355 #
straight-curve $-1 -53.17545091097751 0 10.795197961076362 0 -1 0 I I #
vertex $-1 $562 $789 #
point $-1 -50.915808401092761 5.8376608966694121 8.5739639249063391 #
vertex $-1 $566 $790 #
point $-1 -50.915808401092761 8.9723157559141242 8.5739639249063391 #
edge $-1 $722 66.405582804807835 $725 71.350397506544311 $571 $791 forward 7 unknown #
vertex $-1 $585 $792 #
straight-curve $-1 38.351824130689025 -18.980948163927785 10.795197961076354 1 0 0 I I #
edge $-1 $725 -11.375543463981792 $582 -3.8352659359101917 $581 $793 forward 7 unknown #
vertex $-1 $724 $794 #
straight-curve $-1 -9.3360395500364746 -18.980948163927785 91.890071070754431 -0.5877852410284794 0 0.80901700255871778 I I #
point $-1 49.582832842248621 -18.980948163927785 10.795197961076354 #
point $-1 53.175450910977517 -11.440670635856184 5.8503832593398926 #
straight-curve $-1 53.17545091097751 0 10.795197961076362 0 1 0 I I #
vertex $-1 $588 $795 #
point $-1 50.864017494568586 -16.826583155907326 7.3304968679002931 #
vertex $-1 $592 $796 #
point $-1 50.864017494568586 -13.595035643876638 7.3304968679002931 #
edge $-1 $735 66.405582804807835 $738 71.350397506544311 $597 $797 forward 7 unknown #
vertex $-1 $611 $798 #
straight-curve $-1 38.351824130689025 -4.8456878438411213 10.795197961076354 1 0 0 I I #
edge $-1 $738 -4.3079133039384612 $608 3.232364224133141 $607 $799 forward 7 unknown #
vertex $-1 $737 $800 #
straight-curve $-1 -9.3360395500364746 -4.8456878438411213 91.890071070754431 -0.5877852410284794 0 0.80901700255871778 I I #
point $-1 49.582832842248621 -4.8456878438411213 10.795197961076354 #
point $-1 53.175450910977517 2.6945896842304808 5.8503832593398926 #
straight-curve $-1 53.17545091097751 0 10.795197961076362 0 1 0 I I #
vertex $-1 $614 $801 #
point $-1 50.864017494568586 -2.6913228358206638 7.3304968679002931 #
vertex $-1 $618 $802 #
point $-1 50.864017494568586 0.54022467621002335 7.3304968679002931 #
edge $-1 $748 66.405582804807835 $751 71.350397506544311 $623 $803 forward 7 unknown #
vertex $-1 $637 $804 #
straight-curve $-1 38.351824130689025 9.2895724762455441 10.795197961076354 1 0 0 I I #
edge $-1 $751 2.7597168561048715 $634 10.299994384176472 $633 $805 forward 7 unknown #
vertex $-1 $750 $806 #
straight-curve $-1 -9.3360395500364746 9.2895724762455441 91.890071070754431 -0.5877852410284794 0 0.80901700255871778 I I #
point $-1 49.582832842248621 9.2895724762455441 10.795197961076354 #
point $-1 53.175450910977517 16.829850004317144 5.8503832593398926 #
straight-curve $-1 53.17545091097751 0 10.795197961076362 0 1 0 I I #
vertex $-1 $640 $807 #
point $-1 50.864017494568586 11.443937484266002 7.3304968679002931 #
vertex $-1 $644 $808 #
point $-1 50.864017494568586 14.675484996296689 7.3304968679002931 #
edge $-1 $761 66.405582804807835 $764 71.350397506544311 $649 $809 forward 7 unknown #
vertex $-1 $663 $810 #
straight-curve $-1 38.351824130689025 23.424832796332211 10.795197961076354 1 0 0 I I #
edge $-1 $764 9.8273470161482059 $660 17.367624544219805 $659 $811 forward 7 unknown #
vertex $-1 $763 $812 #
straight-curve $-1 -9.3360395500364746 23.424832796332211 91.890071070754431 -0.5877852410284794 0 0.80901700255871778 I I #
point $-1 49.582832842248621 23.424832796332211 10.795197961076354 #
point $-1 53.175450910977517 30.96511032440381 5.8503832593398926 #
straight-curve $-1 53.17545091097751 0 10.795197961076362 0 1 0 I I #
vertex $-1 $666 $813 #
point $-1 50.864017494568586 25.579197804352667 7.3304968679002931 #
vertex $-1 $670 $814 #
point $-1 50.864017494568586 28.810745316383354 7.3304968679002931 #
straight-curve $-1 -53.17545091097751 34.134235109293734 0 0 0 -1 I I #
point $-1 -53.17545091097751 -34.134235109293734 -10.795197961076362 #
straight-curve $-1 -53.17545091097751 0 -10.795197961076362 0 1 0 I I #
point $-1 -53.17545091097751 34.134235109293734 -10.795197961076362 #
coedge $-1 $696 $692 $701 $782 forward $523 $-1 #
vertex $-1 $693 $815 #
straight-curve $-1 -53.17545091097751 0 10.795197961076362 0 -1 0 I I #
point $-1 -53.17545091097751 -22.150072948817716 10.795197961076362 #
straight-curve $-1 53.17545091097751 0 10.795197961076362 0 1 0 I I #
edge $-1 $778 -53.17545091097751 $705 53.17545091097751 $701 $816 forward 7 unknown #
straight-curve $-1 -53.17545091097751 -34.134235109293734 0 0 0 -1 I I #
point $-1 53.17545091097751 -34.134235109293734 10.795197961076362 #
straight-curve $-1 -53.17545091097751 11.062085662077259 34.045338373173109 0 0 -1 I I #
point $-1 -53.17545091097751 11.062085662077259 10.795197961076362 #
straight-curve $-1 -53.17545091097751 3.7024941631458823 7.0903067119943373 0 -1 0 I I #
point $-1 -53.17545091097751 11.062085662077259 7.0903067119943355 #
point $-1 -50.85441449417074 5.8376608966694121 8.2257818056169505 #
point $-1 -50.85441449417074 8.9723157559141242 8.2257818056169505 #
straight-curve $-1 53.17545091097751 -18.980948163927785 77.200780765884204 0 0 -1 I I #
point $-1 53.17545091097751 -18.980948163927785 10.795197961076362 #
straight-curve $-1 53.17545091097751 -7.6054046999459928 5.8503832593399068 0 1 0 I I #
point $-1 53.175450910977517 -18.980948163927785 5.8503832593398926 #
point $-1 50.165616372774991 -16.826583155907326 7.4411127486654118 #
point $-1 50.165616372774991 -13.595035643876638 7.4411127486654118 #
straight-curve $-1 53.17545091097751 -4.8456878438411213 77.200780765884204 0 0 -1 I I #
point $-1 53.17545091097751 -4.8456878438411213 10.795197961076362 #
straight-curve $-1 53.17545091097751 -0.53777453990266011 5.8503832593399068 0 1 0 I I #
point $-1 53.175450910977517 -4.8456878438411213 5.8503832593398926 #
point $-1 50.165616372774991 -2.6913228358206638 7.4411127486654118 #
point $-1 50.165616372774991 0.54022467621002335 7.4411127486654118 #
straight-curve $-1 53.17545091097751 9.2895724762455441 77.200780765884204 0 0 -1 I I #
point $-1 53.17545091097751 9.2895724762455441 10.795197961076362 #
straight-curve $-1 53.17545091097751 6.5298556201406726 5.8503832593399068 0 1 0 I I #
point $-1 53.175450910977517 9.2895724762455441 5.8503832593398926 #
point $-1 50.165616372774991 11.443937484266002 7.4411127486654118 #
point $-1 50.165616372774991 14.675484996296689 7.4411127486654118 #
straight-curve $-1 53.17545091097751 23.424832796332211 77.200780765884204 0 0 -1 I I #
point $-1 53.17545091097751 23.424832796332211 10.795197961076362 #
straight-curve $-1 53.17545091097751 13.597485780184005 5.8503832593399068 0 1 0 I I #
point $-1 53.175450910977517 23.424832796332211 5.8503832593398926 #
point $-1 50.165616372774991 25.579197804352667 7.4411127486654118 #
point $-1 50.165616372774991 28.810745316383354 7.4411127486654118 #
point $-1 -53.17545091097751 -34.134235109293734 10.795197961076362 #
straight-curve $-1 0 -34.134235109293734 10.795197961076362 1 0 0 I I #
End-of-ACIS-data 