500 0 6 0           
7 Unknown 11 ACIS 5.0 NT 24 Thu Mar 25 19:43:45 1999 
-1 9.9999999999999995e-007 1e-010 
body $-1 $6 $-1 $7 #
body $-1 $8 $-1 $9 #
body $-1 $10 $-1 $11 #
body $-1 $12 $-1 $13 #
body $-1 $14 $-1 $15 #
body $-1 $16 $-1 $17 #
lump $-1 $-1 $18 $0 #
transform $-1 1 0 0 0 1 0 0 0 1 49.219031342509233 30.264289235877872 8.0866712843960418 1 rotate no_reflect no_shear #
lump $-1 $-1 $19 $1 #
transform $-1 1 0 0 0 1 0 0 0 1 5.0838377917823383 30.264289235877872 2.2145490107813046 1 rotate no_reflect no_shear #
lump $-1 $-1 $20 $2 #
transform $-1 1 0 0 0 1 0 0 0 1 93.354224893236136 30.264289235877872 2.2145490107813046 1 rotate no_reflect no_shear #
lump $-1 $-1 $21 $3 #
transform $-1 1 0 0 0 0.69465836192734942 -0.71933980857756763 0 0.71933980857756763 0.69465836192734942 71.346750372290103 89.292312469362656 123.95052545648531 1 rotate no_reflect no_shear #
lump $-1 $-1 $22 $4 #
transform $-1 1 0 0 0 -0.69465836192734942 0.71933980857756763 0 -0.71933980857756763 -0.69465836192734942 67.857038450210354 55.482169621097732 11.160327127258022 1 rotate no_reflect no_shear #
lump $-1 $-1 $23 $5 #
transform $-1 1 0 0 0 -0.69465836192734942 0.71933980857756763 0 -0.71933980857756763 -0.69465836192734942 74.836462294369852 55.482169621097732 11.160327127258022 1 rotate no_reflect no_shear #
shell $-1 $-1 $-1 $24 $-1 $6 #
shell $-1 $-1 $-1 $25 $-1 $8 #
shell $-1 $-1 $-1 $26 $-1 $10 #
shell $-1 $-1 $-1 $27 $-1 $12 #
shell $-1 $-1 $-1 $28 $-1 $14 #
shell $-1 $-1 $-1 $29 $-1 $16 #
face $-1 $30 $31 $18 $-1 $32 forward single #
face $-1 $33 $34 $19 $-1 $35 forward single #
face $-1 $36 $37 $20 $-1 $38 forward single #
face $-1 $39 $40 $21 $-1 $41 forward single #
face $-1 $42 $43 $22 $-1 $44 forward single #
face $-1 $45 $46 $23 $-1 $47 forward single #
face $-1 $48 $49 $18 $-1 $50 reversed single #
loop $-1 $-1 $51 $24 #
plane-surface $-1 0 0 8.0866712843960418 0 0 1 1 0 0 forward_v I I I I #
face $-1 $52 $53 $19 $-1 $54 reversed single #
loop $-1 $-1 $55 $25 #
plane-surface $-1 0 0 2.2145490107813046 0 0 1 1 0 0 forward_v I I I I #
face $-1 $56 $57 $20 $-1 $58 reversed single #
loop $-1 $-1 $59 $26 #
plane-surface $-1 0 0 2.2145490107813046 0 0 1 1 0 0 forward_v I I I I #
face $-1 $60 $61 $21 $-1 $62 reversed single #
loop $-1 $-1 $63 $27 #
plane-surface $-1 0 0 98.438062685018465 0 0 1 1 0 0 forward_v I I I I #
face $-1 $64 $65 $22 $-1 $66 forward single #
loop $-1 $67 $68 $28 #
cone-surface $-1 0 0 -2.3667867061372725 0 0 1 1 0 0 1 I I 0 1 1 forward I I I I #
face $-1 $69 $70 $23 $-1 $71 forward single #
loop $-1 $72 $73 $29 #
cone-surface $-1 0 0 -2.3667867061372725 0 0 1 1 0 0 1 I I 0 1 1 forward I I I I #
face $-1 $74 $75 $18 $-1 $76 reversed single #
loop $-1 $-1 $77 $30 #
plane-surface $-1 0 0 -8.0866712843960418 0 0 1 1 0 0 forward_v I I I I #
coedge $-1 $78 $79 $80 $81 forward $31 $-1 #
face $-1 $82 $83 $19 $-1 $84 reversed single #
loop $-1 $-1 $85 $33 #
plane-surface $-1 0 0 -2.2145490107813046 0 0 1 1 0 0 forward_v I I I I #
coedge $-1 $86 $87 $88 $89 forward $34 $-1 #
face $-1 $90 $91 $20 $-1 $92 reversed single #
loop $-1 $-1 $93 $36 #
plane-surface $-1 0 0 -2.2145490107813046 0 0 1 1 0 0 forward_v I I I I #
coedge $-1 $94 $95 $96 $97 forward $37 $-1 #
face $-1 $98 $99 $21 $-1 $100 reversed single #
loop $-1 $-1 $101 $39 #
plane-surface $-1 0 0 -98.438062685018465 0 0 1 1 0 0 forward_v I I I I #
coedge $-1 $102 $103 $104 $105 forward $40 $-1 #
face $-1 $-1 $106 $22 $-1 $107 forward single #
loop $-1 $-1 $108 $42 #
plane-surface $-1 0 0 -4.233573412274545 0 0 -1 -1 0 0 forward_v I I I I #
loop $-1 $-1 $109 $28 #
coedge $-1 $68 $68 $108 $110 reversed $43 $-1 #
face $-1 $-1 $111 $23 $-1 $112 forward single #
loop $-1 $-1 $113 $45 #
plane-surface $-1 0 0 -4.233573412274545 0 0 -1 -1 0 0 forward_v I I I I #
loop $-1 $-1 $114 $29 #
coedge $-1 $73 $73 $113 $115 reversed $46 $-1 #
face $-1 $116 $117 $18 $-1 $118 reversed single #
loop $-1 $-1 $119 $48 #
plane-surface $-1 0 -30.264289235877872 0 0 1 0 0 0 1 forward_v I I I I #
coedge $-1 $120 $121 $122 $123 forward $49 $-1 #
coedge $-1 $124 $51 $125 $126 forward $31 $-1 #
coedge $-1 $51 $124 $127 $128 forward $31 $-1 #
coedge $-1 $129 $130 $51 $81 reversed $131 $-1 #
edge $-1 $132 -30.264289235877872 $133 30.264289235877872 $80 $134 forward 7 unknown #
face $-1 $135 $136 $19 $-1 $137 reversed single #
loop $-1 $-1 $138 $52 #
plane-surface $-1 0 -30.264289235877872 0 0 1 0 0 0 1 forward_v I I I I #
coedge $-1 $139 $140 $141 $142 forward $53 $-1 #
coedge $-1 $143 $55 $144 $145 forward $34 $-1 #
coedge $-1 $55 $143 $146 $147 forward $34 $-1 #
coedge $-1 $148 $149 $55 $89 reversed $150 $-1 #
edge $-1 $151 -30.264289235877872 $152 30.264289235877872 $88 $153 forward 7 unknown #
face $-1 $154 $155 $20 $-1 $156 reversed single #
loop $-1 $-1 $157 $56 #
plane-surface $-1 0 -30.264289235877872 0 0 1 0 0 0 1 forward_v I I I I #
coedge $-1 $158 $159 $160 $161 forward $57 $-1 #
coedge $-1 $162 $59 $163 $164 forward $37 $-1 #
coedge $-1 $59 $162 $165 $166 forward $37 $-1 #
coedge $-1 $167 $168 $59 $97 reversed $169 $-1 #
edge $-1 $170 -30.264289235877872 $171 30.264289235877872 $96 $172 forward 7 unknown #
face $-1 $173 $174 $21 $-1 $175 reversed single #
loop $-1 $-1 $176 $60 #
plane-surface $-1 0 -196.87612537003693 0 0 1 0 0 0 1 forward_v I I I I #
coedge $-1 $177 $178 $179 $180 forward $61 $-1 #
coedge $-1 $181 $63 $182 $183 forward $40 $-1 #
coedge $-1 $63 $181 $184 $185 forward $40 $-1 #
coedge $-1 $186 $187 $63 $105 reversed $188 $-1 #
edge $-1 $189 -196.87612537003693 $190 196.87612537003693 $104 $191 forward 7 unknown #
loop $-1 $192 $193 $64 #
cone-surface $-1 0 0 0 0 0 1 0.5 0 0 1 I I -0.70710678118654746 0.70710678118654746 0.5 forward I I I I #
coedge $-1 $108 $108 $68 $110 forward $65 $-1 #
coedge $-1 $109 $109 $193 $194 forward $67 $-1 #
edge $-1 $195 0 $195 6.2831853071796004 $108 $196 forward 7 unknown #
loop $-1 $197 $198 $69 #
cone-surface $-1 0 0 0 0 0 1 0.5 0 0 1 I I -0.70710678118654746 0.70710678118654746 0.5 forward I I I I #
coedge $-1 $113 $113 $73 $115 forward $70 $-1 #
coedge $-1 $114 $114 $198 $199 forward $72 $-1 #
edge $-1 $200 0 $200 6.2831853071796004 $113 $201 forward 7 unknown #
face $-1 $202 $203 $18 $-1 $204 reversed single #
loop $-1 $-1 $205 $74 #
plane-surface $-1 -49.219031342509233 0 0 1 0 0 0 0 -1 forward_v I I I I #
coedge $-1 $206 $127 $207 $208 forward $75 $-1 #
coedge $-1 $209 $77 $206 $210 forward $49 $-1 #
coedge $-1 $77 $209 $211 $212 forward $49 $-1 #
coedge $-1 $130 $129 $77 $123 reversed $131 $-1 #
edge $-1 $213 -30.264289235877872 $214 30.264289235877872 $122 $215 forward 7 unknown #
coedge $-1 $79 $78 $216 $217 forward $31 $-1 #
coedge $-1 $218 $219 $78 $126 reversed $203 $-1 #
edge $-1 $133 -49.219031342509233 $220 49.219031342509233 $125 $221 forward 7 unknown #
coedge $-1 $119 $222 $79 $128 reversed $75 $-1 #
edge $-1 $223 -49.219031342509233 $132 49.219031342509233 $127 $224 forward 7 unknown #
coedge $-1 $122 $80 $222 $225 forward $131 $-1 #
coedge $-1 $80 $122 $218 $226 reversed $131 $-1 #
loop $-1 $-1 $129 $202 #
vertex $-1 $81 $227 #
vertex $-1 $81 $228 #
straight-curve $-1 49.219031342509233 0 8.0866712843960418 0 1 0 I I #
face $-1 $229 $230 $19 $-1 $231 reversed single #
loop $-1 $-1 $232 $82 #
plane-surface $-1 -5.0838377917823383 0 0 1 0 0 0 0 -1 forward_v I I I I #
coedge $-1 $233 $146 $234 $235 forward $83 $-1 #
coedge $-1 $236 $85 $233 $237 forward $53 $-1 #
coedge $-1 $85 $236 $238 $239 forward $53 $-1 #
coedge $-1 $149 $148 $85 $142 reversed $150 $-1 #
edge $-1 $240 -30.264289235877872 $241 30.264289235877872 $141 $242 forward 7 unknown #
coedge $-1 $87 $86 $243 $244 forward $34 $-1 #
coedge $-1 $245 $246 $86 $145 reversed $230 $-1 #
edge $-1 $152 -5.0838377917823383 $247 5.0838377917823383 $144 $248 forward 7 unknown #
coedge $-1 $138 $249 $87 $147 reversed $83 $-1 #
edge $-1 $250 -5.0838377917823383 $151 5.0838377917823383 $146 $251 forward 7 unknown #
coedge $-1 $141 $88 $249 $252 forward $150 $-1 #
coedge $-1 $88 $141 $245 $253 reversed $150 $-1 #
loop $-1 $-1 $148 $229 #
vertex $-1 $89 $254 #
vertex $-1 $89 $255 #
straight-curve $-1 5.0838377917823383 0 2.2145490107813046 0 1 0 I I #
face $-1 $256 $257 $20 $-1 $258 reversed single #
loop $-1 $-1 $259 $90 #
plane-surface $-1 -5.0838377917823365 0 0 1 0 0 0 0 -1 forward_v I I I I #
coedge $-1 $260 $165 $261 $262 forward $91 $-1 #
coedge $-1 $263 $93 $260 $264 forward $57 $-1 #
coedge $-1 $93 $263 $265 $266 forward $57 $-1 #
coedge $-1 $168 $167 $93 $161 reversed $169 $-1 #
edge $-1 $267 -30.264289235877872 $268 30.264289235877872 $160 $269 forward 7 unknown #
coedge $-1 $95 $94 $270 $271 forward $37 $-1 #
coedge $-1 $272 $273 $94 $164 reversed $257 $-1 #
edge $-1 $171 -5.0838377917823365 $274 5.0838377917823365 $163 $275 forward 7 unknown #
coedge $-1 $157 $276 $95 $166 reversed $91 $-1 #
edge $-1 $277 -5.0838377917823365 $170 5.0838377917823365 $165 $278 forward 7 unknown #
coedge $-1 $160 $96 $276 $279 forward $169 $-1 #
coedge $-1 $96 $160 $272 $280 reversed $169 $-1 #
loop $-1 $-1 $167 $256 #
vertex $-1 $97 $281 #
vertex $-1 $97 $282 #
straight-curve $-1 5.0838377917823365 0 2.2145490107813046 0 1 0 I I #
face $-1 $283 $284 $21 $-1 $285 reversed single #
loop $-1 $-1 $286 $98 #
plane-surface $-1 -8.1426611515194267 0 0 1 0 0 0 0 -1 forward_v I I I I #
coedge $-1 $287 $184 $288 $289 forward $99 $-1 #
coedge $-1 $290 $101 $287 $291 forward $61 $-1 #
coedge $-1 $101 $290 $292 $293 forward $61 $-1 #
coedge $-1 $187 $186 $101 $180 reversed $188 $-1 #
edge $-1 $294 -196.87612537003693 $295 196.87612537003693 $179 $296 forward 7 unknown #
coedge $-1 $103 $102 $297 $298 forward $40 $-1 #
coedge $-1 $299 $300 $102 $183 reversed $284 $-1 #
edge $-1 $190 -8.1426611515194267 $301 8.1426611515194267 $182 $302 forward 7 unknown #
coedge $-1 $176 $303 $103 $185 reversed $99 $-1 #
edge $-1 $304 -8.1426611515194267 $189 8.1426611515194267 $184 $305 forward 7 unknown #
coedge $-1 $179 $104 $303 $306 forward $188 $-1 #
coedge $-1 $104 $179 $299 $307 reversed $188 $-1 #
loop $-1 $-1 $186 $283 #
vertex $-1 $105 $308 #
vertex $-1 $105 $309 #
straight-curve $-1 8.1426611515194267 0 98.438062685018465 0 1 0 I I #
loop $-1 $-1 $310 $64 #
coedge $-1 $193 $193 $109 $194 reversed $106 $-1 #
edge $-1 $311 0 $311 6.2831853071796004 $193 $312 forward 7 unknown #
vertex $-1 $110 $313 #
ellipse-curve $-1 0 0 -4.233573412274545 0 0 -1 1 0 0 1 I I #
loop $-1 $-1 $314 $69 #
coedge $-1 $198 $198 $114 $199 reversed $111 $-1 #
edge $-1 $315 0 $315 6.2831853071796004 $198 $316 forward 7 unknown #
vertex $-1 $115 $317 #
ellipse-curve $-1 0 0 -4.233573412274545 0 0 -1 1 0 0 1 I I #
face $-1 $-1 $131 $18 $-1 $318 reversed single #
loop $-1 $-1 $218 $116 #
plane-surface $-1 0 30.264289235877872 0 0 -1 0 0 0 -1 forward_v I I I I #
coedge $-1 $319 $216 $219 $320 forward $117 $-1 #
coedge $-1 $222 $119 $120 $210 reversed $75 $-1 #
coedge $-1 $216 $319 $119 $208 reversed $117 $-1 #
edge $-1 $223 -8.0866712843960418 $321 8.0866712843960418 $207 $322 forward 7 unknown #
coedge $-1 $121 $120 $319 $323 forward $49 $-1 #
edge $-1 $214 -49.219031342509233 $321 49.219031342509233 $206 $324 forward 7 unknown #
coedge $-1 $219 $218 $121 $212 reversed $203 $-1 #
edge $-1 $325 -49.219031342509233 $213 49.219031342509233 $211 $326 forward 7 unknown #
vertex $-1 $123 $327 #
vertex $-1 $225 $328 #
straight-curve $-1 49.219031342509233 0 -8.0866712843960418 0 -1 0 I I #
coedge $-1 $205 $207 $124 $217 reversed $117 $-1 #
edge $-1 $220 -30.264289235877872 $223 30.264289235877872 $216 $329 forward 7 unknown #
coedge $-1 $211 $125 $130 $226 forward $203 $-1 #
coedge $-1 $125 $211 $205 $320 reversed $203 $-1 #
vertex $-1 $126 $330 #
straight-curve $-1 0 30.264289235877872 8.0866712843960418 -1 0 0 I I #
coedge $-1 $127 $206 $129 $225 reversed $75 $-1 #
vertex $-1 $217 $331 #
straight-curve $-1 0 -30.264289235877872 8.0866712843960418 1 0 0 I I #
edge $-1 $132 -8.0866712843960418 $214 8.0866712843960418 $129 $332 forward 7 unknown #
edge $-1 $133 -8.0866712843960418 $213 8.0866712843960418 $130 $333 forward 7 unknown #
point $-1 49.219031342509233 -30.264289235877872 8.0866712843960418 #
point $-1 49.219031342509233 30.264289235877872 8.0866712843960418 #
face $-1 $-1 $150 $19 $-1 $334 reversed single #
loop $-1 $-1 $245 $135 #
plane-surface $-1 0 30.264289235877872 0 0 -1 0 0 0 -1 forward_v I I I I #
coedge $-1 $335 $243 $246 $336 forward $136 $-1 #
coedge $-1 $249 $138 $139 $237 reversed $83 $-1 #
coedge $-1 $243 $335 $138 $235 reversed $136 $-1 #
edge $-1 $250 -2.2145490107813046 $337 2.2145490107813046 $234 $338 forward 7 unknown #
coedge $-1 $140 $139 $335 $339 forward $53 $-1 #
edge $-1 $241 -5.0838377917823383 $337 5.0838377917823383 $233 $340 forward 7 unknown #
coedge $-1 $246 $245 $140 $239 reversed $230 $-1 #
edge $-1 $341 -5.0838377917823383 $240 5.0838377917823383 $238 $342 forward 7 unknown #
vertex $-1 $142 $343 #
vertex $-1 $252 $344 #
straight-curve $-1 5.0838377917823383 0 -2.2145490107813046 0 -1 0 I I #
coedge $-1 $232 $234 $143 $244 reversed $136 $-1 #
edge $-1 $247 -30.264289235877872 $250 30.264289235877872 $243 $345 forward 7 unknown #
coedge $-1 $238 $144 $149 $253 forward $230 $-1 #
coedge $-1 $144 $238 $232 $336 reversed $230 $-1 #
vertex $-1 $145 $346 #
straight-curve $-1 0 30.264289235877872 2.2145490107813046 -1 0 0 I I #
coedge $-1 $146 $233 $148 $252 reversed $83 $-1 #
vertex $-1 $244 $347 #
straight-curve $-1 0 -30.264289235877872 2.2145490107813046 1 0 0 I I #
edge $-1 $151 -2.2145490107813046 $241 2.2145490107813046 $148 $348 forward 7 unknown #
edge $-1 $152 -2.2145490107813046 $240 2.2145490107813046 $149 $349 forward 7 unknown #
point $-1 5.0838377917823383 -30.264289235877872 2.2145490107813046 #
point $-1 5.0838377917823383 30.264289235877872 2.2145490107813046 #
face $-1 $-1 $169 $20 $-1 $350 reversed single #
loop $-1 $-1 $272 $154 #
plane-surface $-1 0 30.264289235877872 0 0 -1 0 0 0 -1 forward_v I I I I #
coedge $-1 $351 $270 $273 $352 forward $155 $-1 #
coedge $-1 $276 $157 $158 $264 reversed $91 $-1 #
coedge $-1 $270 $351 $157 $262 reversed $155 $-1 #
edge $-1 $277 -2.2145490107813046 $353 2.2145490107813046 $261 $354 forward 7 unknown #
coedge $-1 $159 $158 $351 $355 forward $57 $-1 #
edge $-1 $268 -5.0838377917823365 $353 5.0838377917823365 $260 $356 forward 7 unknown #
coedge $-1 $273 $272 $159 $266 reversed $257 $-1 #
edge $-1 $357 -5.0838377917823365 $267 5.0838377917823365 $265 $358 forward 7 unknown #
vertex $-1 $161 $359 #
vertex $-1 $279 $360 #
straight-curve $-1 5.0838377917823365 0 -2.2145490107813046 0 -1 0 I I #
coedge $-1 $259 $261 $162 $271 reversed $155 $-1 #
edge $-1 $274 -30.264289235877872 $277 30.264289235877872 $270 $361 forward 7 unknown #
coedge $-1 $265 $163 $168 $280 forward $257 $-1 #
coedge $-1 $163 $265 $259 $352 reversed $257 $-1 #
vertex $-1 $164 $362 #
straight-curve $-1 0 30.264289235877872 2.2145490107813046 -1 0 0 I I #
coedge $-1 $165 $260 $167 $279 reversed $91 $-1 #
vertex $-1 $271 $363 #
straight-curve $-1 0 -30.264289235877872 2.2145490107813046 1 0 0 I I #
edge $-1 $170 -2.2145490107813046 $268 2.2145490107813046 $167 $364 forward 7 unknown #
edge $-1 $171 -2.2145490107813046 $267 2.2145490107813046 $168 $365 forward 7 unknown #
point $-1 5.0838377917823365 -30.264289235877872 2.2145490107813046 #
point $-1 5.0838377917823365 30.264289235877872 2.2145490107813046 #
face $-1 $-1 $188 $21 $-1 $366 reversed single #
loop $-1 $-1 $299 $173 #
plane-surface $-1 0 196.87612537003693 0 0 -1 0 0 0 -1 forward_v I I I I #
coedge $-1 $367 $297 $300 $368 forward $174 $-1 #
coedge $-1 $303 $176 $177 $291 reversed $99 $-1 #
coedge $-1 $297 $367 $176 $289 reversed $174 $-1 #
edge $-1 $304 -98.438062685018465 $369 98.438062685018465 $288 $370 forward 7 unknown #
coedge $-1 $178 $177 $367 $371 forward $61 $-1 #
edge $-1 $295 -8.1426611515194267 $369 8.1426611515194267 $287 $372 forward 7 unknown #
coedge $-1 $300 $299 $178 $293 reversed $284 $-1 #
edge $-1 $373 -8.1426611515194267 $294 8.1426611515194267 $292 $374 forward 7 unknown #
vertex $-1 $180 $375 #
vertex $-1 $306 $376 #
straight-curve $-1 8.1426611515194267 0 -98.438062685018465 0 -1 0 I I #
coedge $-1 $286 $288 $181 $298 reversed $174 $-1 #
edge $-1 $301 -196.87612537003693 $304 196.87612537003693 $297 $377 forward 7 unknown #
coedge $-1 $292 $182 $187 $307 forward $284 $-1 #
coedge $-1 $182 $292 $286 $368 reversed $284 $-1 #
vertex $-1 $183 $378 #
straight-curve $-1 0 196.87612537003693 98.438062685018465 -1 0 0 I I #
coedge $-1 $184 $287 $186 $306 reversed $99 $-1 #
vertex $-1 $298 $379 #
straight-curve $-1 0 -196.87612537003693 98.438062685018465 1 0 0 I I #
edge $-1 $189 -98.438062685018465 $295 98.438062685018465 $186 $380 forward 7 unknown #
edge $-1 $190 -98.438062685018465 $294 98.438062685018465 $187 $381 forward 7 unknown #
point $-1 8.1426611515194267 -196.87612537003693 98.438062685018465 #
point $-1 8.1426611515194267 196.87612537003693 98.438062685018465 #
coedge $-1 $310 $310 $-1 $382 reversed $192 $-1 #
vertex $-1 $194 $383 #
ellipse-curve $-1 0 0 -0.5 0 0 -1 1 0 0 1 I I #
point $-1 1 0 -4.233573412274545 #
coedge $-1 $314 $314 $-1 $384 reversed $197 $-1 #
vertex $-1 $199 $385 #
ellipse-curve $-1 0 0 -0.5 0 0 -1 1 0 0 1 I I #
point $-1 1 0 -4.233573412274545 #
plane-surface $-1 49.219031342509233 0 0 -1 0 0 0 0 1 forward_v I I I I #
coedge $-1 $207 $205 $209 $323 reversed $117 $-1 #
edge $-1 $220 -8.0866712843960418 $325 8.0866712843960418 $219 $386 forward 7 unknown #
vertex $-1 $323 $387 #
straight-curve $-1 -49.219031342509233 -30.264289235877872 0 0 0 -1 I I #
edge $-1 $321 -30.264289235877872 $325 30.264289235877872 $319 $388 forward 7 unknown #
straight-curve $-1 0 -30.264289235877872 -8.0866712843960418 -1 0 0 I I #
vertex $-1 $212 $389 #
straight-curve $-1 0 30.264289235877872 -8.0866712843960418 1 0 0 I I #
point $-1 49.219031342509233 30.264289235877872 -8.0866712843960418 #
point $-1 49.219031342509233 -30.264289235877872 -8.0866712843960418 #
straight-curve $-1 -49.219031342509233 0 8.0866712843960418 0 -1 0 I I #
point $-1 -49.219031342509233 30.264289235877872 8.0866712843960418 #
point $-1 -49.219031342509233 -30.264289235877872 8.0866712843960418 #
straight-curve $-1 49.219031342509233 -30.264289235877872 0 0 0 -1 I I #
straight-curve $-1 49.219031342509233 30.264289235877872 0 0 0 -1 I I #
plane-surface $-1 5.0838377917823383 0 0 -1 0 0 0 0 1 forward_v I I I I #
coedge $-1 $234 $232 $236 $339 reversed $136 $-1 #
edge $-1 $247 -2.2145490107813046 $341 2.2145490107813046 $246 $390 forward 7 unknown #
vertex $-1 $339 $391 #
straight-curve $-1 -5.0838377917823383 -30.264289235877872 0 0 0 -1 I I #
edge $-1 $337 -30.264289235877872 $341 30.264289235877872 $335 $392 forward 7 unknown #
straight-curve $-1 0 -30.264289235877872 -2.2145490107813046 -1 0 0 I I #
vertex $-1 $239 $393 #
straight-curve $-1 0 30.264289235877872 -2.2145490107813046 1 0 0 I I #
point $-1 5.0838377917823383 30.264289235877872 -2.2145490107813046 #
point $-1 5.0838377917823383 -30.264289235877872 -2.2145490107813046 #
straight-curve $-1 -5.0838377917823383 0 2.2145490107813046 0 -1 0 I I #
point $-1 -5.0838377917823383 30.264289235877872 2.2145490107813046 #
point $-1 -5.0838377917823383 -30.264289235877872 2.2145490107813046 #
straight-curve $-1 5.0838377917823383 -30.264289235877872 0 0 0 -1 I I #
straight-curve $-1 5.0838377917823383 30.264289235877872 0 0 0 -1 I I #
plane-surface $-1 5.0838377917823365 0 0 -1 0 0 0 0 1 forward_v I I I I #
coedge $-1 $261 $259 $263 $355 reversed $155 $-1 #
edge $-1 $274 -2.2145490107813046 $357 2.2145490107813046 $273 $394 forward 7 unknown #
vertex $-1 $355 $395 #
straight-curve $-1 -5.0838377917823365 -30.264289235877872 0 0 0 -1 I I #
edge $-1 $353 -30.264289235877872 $357 30.264289235877872 $351 $396 forward 7 unknown #
straight-curve $-1 0 -30.264289235877872 -2.2145490107813046 -1 0 0 I I #
vertex $-1 $266 $397 #
straight-curve $-1 0 30.264289235877872 -2.2145490107813046 1 0 0 I I #
point $-1 5.0838377917823365 30.264289235877872 -2.2145490107813046 #
point $-1 5.0838377917823365 -30.264289235877872 -2.2145490107813046 #
straight-curve $-1 -5.0838377917823365 0 2.2145490107813046 0 -1 0 I I #
point $-1 -5.0838377917823365 30.264289235877872 2.2145490107813046 #
point $-1 -5.0838377917823365 -30.264289235877872 2.2145490107813046 #
straight-curve $-1 5.0838377917823365 -30.264289235877872 0 0 0 -1 I I #
straight-curve $-1 5.0838377917823365 30.264289235877872 0 0 0 -1 I I #
plane-surface $-1 8.1426611515194267 0 0 -1 0 0 0 0 1 forward_v I I I I #
coedge $-1 $288 $286 $290 $371 reversed $174 $-1 #
edge $-1 $301 -98.438062685018465 $373 98.438062685018465 $300 $398 forward 7 unknown #
vertex $-1 $371 $399 #
straight-curve $-1 -8.1426611515194267 -196.87612537003693 0 0 0 -1 I I #
edge $-1 $369 -196.87612537003693 $373 196.87612537003693 $367 $400 forward 7 unknown #
straight-curve $-1 0 -196.87612537003693 -98.438062685018465 -1 0 0 I I #
vertex $-1 $293 $401 #
straight-curve $-1 0 196.87612537003693 -98.438062685018465 1 0 0 I I #
point $-1 8.1426611515194267 196.87612537003693 -98.438062685018465 #
point $-1 8.1426611515194267 -196.87612537003693 -98.438062685018465 #
straight-curve $-1 -8.1426611515194267 0 98.438062685018465 0 -1 0 I I #
point $-1 -8.1426611515194267 196.87612537003693 98.438062685018465 #
point $-1 -8.1426611515194267 -196.87612537003693 98.438062685018465 #
straight-curve $-1 8.1426611515194267 -196.87612537003693 0 0 0 -1 I I #
straight-curve $-1 8.1426611515194267 196.87612537003693 0 0 0 -1 I I #
edge $-1 $402 1 $402 0 $310 $-1 forward 7 unknown #
point $-1 1 0 -0.5 #
edge $-1 $403 1 $403 0 $314 $-1 forward 7 unknown #
point $-1 1 0 -0.5 #
straight-curve $-1 -49.219031342509233 30.264289235877872 0 0 0 -1 I I #
point $-1 -49.219031342509233 -30.264289235877872 -8.0866712843960418 #
straight-curve $-1 -49.219031342509233 0 -8.0866712843960418 0 1 0 I I #
point $-1 -49.219031342509233 30.264289235877872 -8.0866712843960418 #
straight-curve $-1 -5.0838377917823383 30.264289235877872 0 0 0 -1 I I #
point $-1 -5.0838377917823383 -30.264289235877872 -2.2145490107813046 #
straight-curve $-1 -5.0838377917823383 0 -2.2145490107813046 0 1 0 I I #
point $-1 -5.0838377917823383 30.264289235877872 -2.2145490107813046 #
straight-curve $-1 -5.0838377917823365 30.264289235877872 0 0 0 -1 I I #
point $-1 -5.0838377917823365 -30.264289235877872 -2.2145490107813046 #
straight-curve $-1 -5.0838377917823365 0 -2.2145490107813046 0 1 0 I I #
point $-1 -5.0838377917823365 30.264289235877872 -2.2145490107813046 #
straight-curve $-1 -8.1426611515194267 196.87612537003693 0 0 0 -1 I I #
point $-1 -8.1426611515194267 -196.87612537003693 -98.438062685018465 #
straight-curve $-1 -8.1426611515194267 0 -98.438062685018465 0 1 0 I I #
point $-1 -8.1426611515194267 196.87612537003693 -98.438062685018465 #
vertex $-1 $382 $404 #
vertex $-1 $384 $405 #
point $-1 0 0 0.5 #
point $-1 0 0 0.5 #
End-of-ACIS-data 