500 0 14 0           
7 Unknown 11 ACIS 5.0 NT 24 Fri Mar 26 03:15:23 1999 
-1 9.9999999999999995e-007 1e-010 
body $-1 $14 $-1 $15 #
body $-1 $16 $-1 $17 #
body $-1 $18 $-1 $19 #
body $-1 $20 $-1 $21 #
body $-1 $22 $-1 $23 #
body $-1 $24 $-1 $25 #
body $-1 $26 $-1 $27 #
body $-1 $28 $-1 $29 #
body $-1 $30 $-1 $31 #
body $-1 $32 $-1 $33 #
body $-1 $34 $-1 $35 #
body $-1 $36 $-1 $37 #
body $-1 $38 $-1 $39 #
body $-1 $40 $-1 $41 #
lump $-1 $-1 $42 $0 #
transform $-1 1 0 0 0 1 0 0 0 1 53.93475142674032 30.702826773517398 14.059471568608554 1 rotate no_reflect no_shear #
lump $-1 $-1 $43 $1 #
transform $-1 1 0 0 0 1 0 0 0 1 53.93475142674032 30.702826773517398 14.059471568608554 1 rotate no_reflect no_shear #
lump $-1 $-1 $44 $2 #
transform $-1 1 0 0 0 1 0 0 0 1 53.93475142674032 30.702826773517398 14.059471568608554 1 rotate no_reflect no_shear #
lump $-1 $-1 $45 $3 #
transform $-1 1 0 0 0 1 0 0 0 1 53.93475142674032 30.702826773517398 14.059471568608554 1 rotate no_reflect no_shear #
lump $-1 $-1 $46 $4 #
transform $-1 1 0 0 0 1 0 0 0 1 53.93475142674032 30.702826773517398 14.059471568608554 1 rotate no_reflect no_shear #
lump $-1 $-1 $47 $5 #
transform $-1 1 0 0 0 1 0 0 0 1 53.93475142674032 30.702826773517398 14.059471568608554 1 rotate no_reflect no_shear #
lump $-1 $-1 $48 $6 #
transform $-1 1 0 0 0 1 0 0 0 1 53.93475142674032 30.702826773517398 14.059471568608554 1 rotate no_reflect no_shear #
lump $-1 $-1 $49 $7 #
transform $-1 1 0 0 0 1 0 0 0 1 53.93475142674032 30.702826773517398 14.059471568608554 1 rotate no_reflect no_shear #
lump $-1 $-1 $50 $8 #
transform $-1 1 0 0 0 1 0 0 0 1 53.93475142674032 30.702826773517398 14.059471568608554 1 rotate no_reflect no_shear #
lump $-1 $-1 $51 $9 #
transform $-1 1 0 0 0 1 0 0 0 1 53.93475142674032 30.702826773517398 14.059471568608554 1 rotate no_reflect no_shear #
lump $-1 $-1 $52 $10 #
transform $-1 1 0 0 0 1 0 0 0 1 53.93475142674032 30.702826773517398 14.059471568608554 1 rotate no_reflect no_shear #
lump $-1 $-1 $53 $11 #
transform $-1 1 0 0 0 1 0 0 0 1 53.93475142674032 30.702826773517398 14.059471568608554 1 rotate no_reflect no_shear #
lump $-1 $-1 $54 $12 #
transform $-1 1 0 0 0 1 0 0 0 1 53.93475142674032 30.702826773517398 14.059471568608554 1 rotate no_reflect no_shear #
lump $-1 $-1 $55 $13 #
transform $-1 1 0 0 0 1 0 0 0 1 53.93475142674032 30.702826773517398 14.059471568608554 1 rotate no_reflect no_shear #
shell $-1 $-1 $-1 $56 $-1 $14 #
shell $-1 $-1 $-1 $57 $-1 $16 #
shell $-1 $-1 $-1 $58 $-1 $18 #
shell $-1 $-1 $-1 $59 $-1 $20 #
shell $-1 $-1 $-1 $60 $-1 $22 #
shell $-1 $-1 $-1 $61 $-1 $24 #
shell $-1 $-1 $-1 $62 $-1 $26 #
shell $-1 $-1 $-1 $63 $-1 $28 #
shell $-1 $-1 $-1 $64 $-1 $30 #
shell $-1 $-1 $-1 $65 $-1 $32 #
shell $-1 $-1 $-1 $66 $-1 $34 #
shell $-1 $-1 $-1 $67 $-1 $36 #
shell $-1 $-1 $-1 $68 $-1 $38 #
shell $-1 $-1 $-1 $69 $-1 $40 #
face $-1 $70 $71 $42 $-1 $72 forward single #
face $-1 $73 $74 $43 $-1 $75 reversed single #
face $-1 $76 $77 $44 $-1 $78 reversed single #
face $-1 $79 $80 $45 $-1 $81 forward single #
face $-1 $82 $83 $46 $-1 $84 forward single #
face $-1 $85 $86 $47 $-1 $87 forward single #
face $-1 $88 $89 $48 $-1 $90 reversed single #
face $-1 $91 $92 $49 $-1 $93 forward single #
face $-1 $94 $95 $50 $-1 $96 forward single #
face $-1 $97 $98 $51 $-1 $99 forward single #
face $-1 $100 $101 $52 $-1 $102 reversed single #
face $-1 $103 $104 $53 $-1 $105 forward single #
face $-1 $106 $107 $54 $-1 $108 forward single #
face $-1 $109 $110 $55 $-1 $111 forward single #
face $-1 $112 $113 $42 $-1 $114 reversed single #
loop $-1 $-1 $115 $56 #
plane-surface $-1 0 0 14.059471568608554 0 0 1 1 0 0 forward_v I I I I #
face $-1 $116 $117 $43 $-1 $118 reversed single #
loop $-1 $-1 $119 $57 #
plane-surface $-1 -42.133091920896575 -25.604010327359799 0 1 0 0 0 0 -1 forward_v I I I I #
face $-1 $120 $121 $44 $-1 $122 reversed single #
loop $-1 $-1 $123 $58 #
plane-surface $-1 30.070594791441479 -9.751067188128431 156.03013421793406 0 -1 0 -0.5877852598018023 0 -0.80901698891910034 forward_v I I I I #
face $-1 $124 $125 $45 $-1 $126 forward single #
loop $-1 $127 $128 $59 #
cone-surface $-1 47.55284644491357 -14.912434740511438 9.1670520000808988 -0.5877852598018023 0 -0.80901698891910034 0.40450849445955017 0 -0.29389262990090115 1 I I 0 1 0.5 forward I I I I #
face $-1 $129 $130 $46 $-1 $131 forward single #
loop $-1 $132 $133 $60 #
cone-surface $-1 47.55284644491357 -12.97692190836781 9.1670520000808988 -0.5877852598018023 0 -0.80901698891910034 0.40450849445955017 0 -0.29389262990090115 1 I I 0 1 0.5 forward I I I I #
face $-1 $134 $135 $47 $-1 $136 forward single #
loop $-1 $137 $138 $61 #
cone-surface $-1 47.55284644491357 -11.041409076224184 9.1670520000808988 -0.5877852598018023 0 -0.80901698891910034 0.40450849445955017 0 -0.29389262990090115 1 I I 0 1 0.5 forward I I I I #
face $-1 $139 $140 $48 $-1 $141 reversed single #
loop $-1 $-1 $142 $62 #
plane-surface $-1 30.070594791441479 26.400409520922388 156.03013421793406 0 -1 0 -0.5877852598018023 0 -0.80901698891910034 forward_v I I I I #
face $-1 $143 $144 $49 $-1 $145 forward single #
loop $-1 $146 $147 $63 #
cone-surface $-1 47.55284644491357 21.239041968539379 9.1670520000808988 -0.5877852598018023 0 -0.80901698891910034 0.40450849445955017 0 -0.29389262990090115 1 I I 0 1 0.5 forward I I I I #
face $-1 $148 $149 $50 $-1 $150 forward single #
loop $-1 $151 $152 $64 #
cone-surface $-1 47.55284644491357 23.174554800683008 9.1670520000808988 -0.5877852598018023 0 -0.80901698891910034 0.40450849445955017 0 -0.29389262990090115 1 I I 0 1 0.5 forward I I I I #
face $-1 $153 $154 $51 $-1 $155 forward single #
loop $-1 $156 $157 $65 #
cone-surface $-1 47.55284644491357 25.110067632826631 9.1670520000808988 -0.5877852598018023 0 -0.80901698891910034 0.40450849445955017 0 -0.29389262990090115 1 I I 0 1 0.5 forward I I I I #
face $-1 $158 $159 $52 $-1 $160 reversed single #
loop $-1 $-1 $161 $66 #
plane-surface $-1 -140.08316774378997 22.188146243268793 73.818863897722366 0 1 0 -0.79863551827123203 0 0.60181501223851219 forward_v I I I I #
face $-1 $162 $163 $53 $-1 $164 forward single #
loop $-1 $165 $166 $67 #
cone-surface $-1 -51.591982466814329 23.891082349318513 11.179517137081373 0.79863551827123203 0 -0.60181501223851219 0.15045375305962805 0 0.19965887956780801 1 I I 0 1 0.25 forward I I I I #
face $-1 $167 $168 $54 $-1 $169 forward single #
loop $-1 $170 $171 $68 #
cone-surface $-1 -51.591982466814329 26.445486508393092 11.179517137081373 0.79863551827123203 0 -0.60181501223851219 0.15045375305962805 0 0.19965887956780801 1 I I 0 1 0.25 forward I I I I #
face $-1 $172 $173 $55 $-1 $174 forward single #
loop $-1 $175 $176 $69 #
cone-surface $-1 -51.591982466814329 28.999890667467671 11.179517137081373 0.79863551827123203 0 -0.60181501223851219 0.15045375305962805 0 0.19965887956780801 1 I I 0 1 0.25 forward I I I I #
face $-1 $177 $178 $42 $-1 $179 reversed single #
loop $-1 $-1 $180 $70 #
plane-surface $-1 0 0 -14.059471568608554 0 0 1 1 0 0 forward_v I I I I #
coedge $-1 $181 $182 $183 $184 forward $71 $-1 #
face $-1 $185 $186 $43 $-1 $187 reversed single #
loop $-1 $-1 $188 $73 #
plane-surface $-1 -40.484717888329556 -20.505193881202199 0 0 -1 0 0 0 -1 forward_v I I I I #
coedge $-1 $189 $190 $191 $192 forward $74 $-1 #
face $-1 $193 $194 $44 $-1 $195 reversed single #
loop $-1 $-1 $196 $76 #
plane-surface $-1 -33.333508967982894 -12.97692190836781 68.761873823210848 0.5877852598018023 0 0.80901698891910034 0.80901698891910034 0 -0.5877852598018023 forward_v I I I I #
coedge $-1 $197 $198 $199 $200 reversed $77 $-1 #
face $-1 $-1 $201 $45 $-1 $202 forward single #
loop $-1 $203 $204 $79 #
cone-surface $-1 47.012427345532515 -14.912434740511438 8.4232289367345068 -0.5877852598018023 0 -0.80901698891910034 0.20225424722977509 0 -0.14694631495045057 1 I I -0.70710678118654746 0.70710678118654746 0.25 forward I I I I #
loop $-1 $-1 $205 $59 #
coedge $-1 $128 $128 $206 $207 reversed $80 $-1 #
face $-1 $-1 $208 $46 $-1 $209 forward single #
loop $-1 $210 $211 $82 #
cone-surface $-1 47.012427345532515 -12.97692190836781 8.4232289367345068 -0.5877852598018023 0 -0.80901698891910034 0.20225424722977509 0 -0.14694631495045057 1 I I -0.70710678118654746 0.70710678118654746 0.25 forward I I I I #
loop $-1 $-1 $212 $60 #
coedge $-1 $133 $133 $213 $214 reversed $83 $-1 #
face $-1 $-1 $215 $47 $-1 $216 forward single #
loop $-1 $217 $218 $85 #
cone-surface $-1 47.012427345532515 -11.041409076224184 8.4232289367345068 -0.5877852598018023 0 -0.80901698891910034 0.20225424722977509 0 -0.14694631495045057 1 I I -0.70710678118654746 0.70710678118654746 0.25 forward I I I I #
loop $-1 $-1 $219 $61 #
coedge $-1 $138 $138 $220 $221 reversed $86 $-1 #
face $-1 $222 $223 $48 $-1 $224 reversed single #
loop $-1 $-1 $225 $88 #
plane-surface $-1 -33.333508967982894 23.174554800683008 68.761873823210848 0.5877852598018023 0 0.80901698891910034 0.80901698891910034 0 -0.5877852598018023 forward_v I I I I #
coedge $-1 $226 $227 $228 $229 reversed $89 $-1 #
face $-1 $-1 $230 $49 $-1 $231 forward single #
loop $-1 $232 $233 $91 #
cone-surface $-1 47.012427345532515 21.239041968539379 8.4232289367345068 -0.5877852598018023 0 -0.80901698891910034 0.20225424722977509 0 -0.14694631495045057 1 I I -0.70710678118654746 0.70710678118654746 0.25 forward I I I I #
loop $-1 $-1 $234 $63 #
coedge $-1 $147 $147 $235 $236 reversed $92 $-1 #
face $-1 $-1 $237 $50 $-1 $238 forward single #
loop $-1 $239 $240 $94 #
cone-surface $-1 47.012427345532515 23.174554800683008 8.4232289367345068 -0.5877852598018023 0 -0.80901698891910034 0.20225424722977509 0 -0.14694631495045057 1 I I -0.70710678118654746 0.70710678118654746 0.25 forward I I I I #
loop $-1 $-1 $241 $64 #
coedge $-1 $152 $152 $242 $243 reversed $95 $-1 #
face $-1 $-1 $244 $51 $-1 $245 forward single #
loop $-1 $246 $247 $97 #
cone-surface $-1 47.012427345532515 25.110067632826631 8.4232289367345068 -0.5877852598018023 0 -0.80901698891910034 0.20225424722977509 0 -0.14694631495045057 1 I I -0.70710678118654746 0.70710678118654746 0.25 forward I I I I #
loop $-1 $-1 $248 $65 #
coedge $-1 $157 $157 $249 $250 reversed $98 $-1 #
face $-1 $251 $252 $52 $-1 $253 forward single #
loop $-1 $-1 $254 $100 #
plane-surface $-1 -53.93475142674032 26.445486508393099 8.9013777177926841 -0.79863551827123203 0 0.60181501223851219 0.60181501223851219 0 0.79863551827123203 forward_v I I I I #
coedge $-1 $255 $256 $257 $258 reversed $101 $-1 #
face $-1 $-1 $259 $53 $-1 $260 forward single #
loop $-1 $261 $262 $103 #
cone-surface $-1 -51.092835267894806 23.891082349318513 10.803382754432302 0.79863551827123203 0 -0.60181501223851219 0.075226876529814024 0 0.099829439783904003 1 I I -0.70710678118654746 0.70710678118654746 0.125 forward I I I I #
loop $-1 $-1 $263 $67 #
coedge $-1 $166 $166 $264 $265 reversed $104 $-1 #
face $-1 $-1 $266 $54 $-1 $267 forward single #
loop $-1 $268 $269 $106 #
cone-surface $-1 -51.092835267894806 26.445486508393092 10.803382754432302 0.79863551827123203 0 -0.60181501223851219 0.075226876529814024 0 0.099829439783904003 1 I I -0.70710678118654746 0.70710678118654746 0.125 forward I I I I #
loop $-1 $-1 $270 $68 #
coedge $-1 $171 $171 $271 $272 reversed $107 $-1 #
face $-1 $-1 $273 $55 $-1 $274 forward single #
loop $-1 $275 $276 $109 #
cone-surface $-1 -51.092835267894806 28.999890667467671 10.803382754432302 0.79863551827123203 0 -0.60181501223851219 0.075226876529814024 0 0.099829439783904003 1 I I -0.70710678118654746 0.70710678118654746 0.125 forward I I I I #
loop $-1 $-1 $277 $69 #
coedge $-1 $176 $176 $278 $279 reversed $110 $-1 #
face $-1 $280 $281 $42 $-1 $282 reversed single #
loop $-1 $-1 $283 $112 #
plane-surface $-1 0 -30.702826773517398 0 0 1 0 0 0 1 forward_v I I I I #
coedge $-1 $284 $285 $286 $287 forward $113 $-1 #
coedge $-1 $288 $115 $289 $290 forward $71 $-1 #
coedge $-1 $115 $288 $291 $292 forward $71 $-1 #
coedge $-1 $293 $294 $115 $184 reversed $295 $-1 #
edge $-1 $296 -30.702826773517398 $297 30.702826773517398 $183 $298 forward 7 unknown #
face $-1 $299 $300 $43 $-1 $301 forward single #
loop $-1 $-1 $302 $116 #
plane-surface $-1 -38.836343855762536 -25.604010327359799 0 -1 0 0 0 0 1 forward_v I I I I #
coedge $-1 $303 $304 $305 $306 forward $117 $-1 #
coedge $-1 $307 $119 $308 $309 reversed $74 $-1 #
coedge $-1 $119 $307 $310 $311 reversed $74 $-1 #
coedge $-1 $304 $303 $119 $192 reversed $117 $-1 #
edge $-1 $312 -14.059471568608554 $313 14.059471568608554 $191 $314 forward 7 unknown #
face $-1 $315 $316 $44 $-1 $317 reversed single #
loop $-1 $-1 $318 $120 #
plane-surface $-1 30.070594791441479 -16.202776628607189 156.03013421793406 0 1 0 0.5877852598018023 0 0.80901698891910034 forward_v I I I I #
coedge $-1 $319 $320 $321 $322 reversed $121 $-1 #
coedge $-1 $198 $123 $323 $324 reversed $77 $-1 #
coedge $-1 $123 $197 $319 $325 reversed $77 $-1 #
coedge $-1 $321 $326 $123 $200 forward $327 $-1 #
edge $-1 $328 -38.89945403101958 $329 -26.922589636227251 $199 $330 forward 7 unknown #
loop $-1 $-1 $206 $124 #
plane-surface $-1 -33.333508967982894 -12.97692190836781 68.761873823210848 0.5877852598018023 0 0.80901698891910034 0.80901698891910034 0 -0.5877852598018023 forward_v I I I I #
loop $-1 $-1 $331 $79 #
coedge $-1 $204 $204 $205 $332 reversed $125 $-1 #
coedge $-1 $205 $205 $204 $332 forward $127 $-1 #
coedge $-1 $206 $206 $128 $207 forward $201 $-1 #
edge $-1 $333 0 $333 6.2831853071796004 $206 $334 forward 7 unknown #
loop $-1 $-1 $213 $129 #
plane-surface $-1 -33.333508967982894 -12.97692190836781 68.761873823210848 0.5877852598018023 0 0.80901698891910034 0.80901698891910034 0 -0.5877852598018023 forward_v I I I I #
loop $-1 $-1 $335 $82 #
coedge $-1 $211 $211 $212 $336 reversed $130 $-1 #
coedge $-1 $212 $212 $211 $336 forward $132 $-1 #
coedge $-1 $213 $213 $133 $214 forward $208 $-1 #
edge $-1 $337 0 $337 6.2831853071796004 $213 $338 forward 7 unknown #
loop $-1 $-1 $220 $134 #
plane-surface $-1 -33.333508967982894 -12.97692190836781 68.761873823210848 0.5877852598018023 0 0.80901698891910034 0.80901698891910034 0 -0.5877852598018023 forward_v I I I I #
loop $-1 $-1 $339 $85 #
coedge $-1 $218 $218 $219 $340 reversed $135 $-1 #
coedge $-1 $219 $219 $218 $340 forward $137 $-1 #
coedge $-1 $220 $220 $138 $221 forward $215 $-1 #
edge $-1 $341 0 $341 6.2831853071796004 $220 $342 forward 7 unknown #
face $-1 $343 $344 $48 $-1 $345 reversed single #
loop $-1 $-1 $346 $139 #
plane-surface $-1 30.070594791441479 19.948700080443629 156.03013421793406 0 1 0 0.5877852598018023 0 0.80901698891910034 forward_v I I I I #
coedge $-1 $347 $348 $349 $350 reversed $140 $-1 #
coedge $-1 $227 $142 $351 $352 reversed $89 $-1 #
coedge $-1 $142 $226 $347 $353 reversed $89 $-1 #
coedge $-1 $349 $354 $142 $229 forward $355 $-1 #
edge $-1 $356 -38.89945403101958 $357 -26.922589636227251 $228 $358 forward 7 unknown #
loop $-1 $-1 $235 $143 #
plane-surface $-1 -33.333508967982894 23.174554800683008 68.761873823210848 0.5877852598018023 0 0.80901698891910034 0.80901698891910034 0 -0.5877852598018023 forward_v I I I I #
loop $-1 $-1 $359 $91 #
coedge $-1 $233 $233 $234 $360 reversed $144 $-1 #
coedge $-1 $234 $234 $233 $360 forward $146 $-1 #
coedge $-1 $235 $235 $147 $236 forward $230 $-1 #
edge $-1 $361 0 $361 6.2831853071796004 $235 $362 forward 7 unknown #
loop $-1 $-1 $242 $148 #
plane-surface $-1 -33.333508967982894 23.174554800683008 68.761873823210848 0.5877852598018023 0 0.80901698891910034 0.80901698891910034 0 -0.5877852598018023 forward_v I I I I #
loop $-1 $-1 $363 $94 #
coedge $-1 $240 $240 $241 $364 reversed $149 $-1 #
coedge $-1 $241 $241 $240 $364 forward $151 $-1 #
coedge $-1 $242 $242 $152 $243 forward $237 $-1 #
edge $-1 $365 0 $365 6.2831853071796004 $242 $366 forward 7 unknown #
loop $-1 $-1 $249 $153 #
plane-surface $-1 -33.333508967982894 23.174554800683008 68.761873823210848 0.5877852598018023 0 0.80901698891910034 0.80901698891910034 0 -0.5877852598018023 forward_v I I I I #
loop $-1 $-1 $367 $97 #
coedge $-1 $247 $247 $248 $368 reversed $154 $-1 #
coedge $-1 $248 $248 $247 $368 forward $156 $-1 #
coedge $-1 $249 $249 $157 $250 forward $244 $-1 #
edge $-1 $369 0 $369 6.2831853071796004 $249 $370 forward 7 unknown #
face $-1 $371 $372 $52 $-1 $373 reversed single #
loop $-1 $-1 $257 $158 #
plane-surface $-1 0 0 14.059471568608554 0 0 1 1 0 0 forward_v I I I I #
coedge $-1 $374 $375 $376 $377 reversed $159 $-1 #
coedge $-1 $256 $161 $378 $379 reversed $101 $-1 #
coedge $-1 $161 $255 $374 $380 reversed $101 $-1 #
coedge $-1 $376 $381 $161 $258 forward $252 $-1 #
edge $-1 $382 16.106832445154666 $383 19.993734846735428 $257 $384 forward 7 unknown #
loop $-1 $-1 $264 $162 #
plane-surface $-1 -53.93475142674032 26.445486508393099 8.9013777177926841 -0.79863551827123203 0 0.60181501223851219 0.60181501223851219 0 0.79863551827123203 forward_v I I I I #
loop $-1 $-1 $385 $103 #
coedge $-1 $262 $262 $263 $386 reversed $163 $-1 #
coedge $-1 $263 $263 $262 $386 forward $165 $-1 #
coedge $-1 $264 $264 $166 $265 forward $259 $-1 #
edge $-1 $387 0 $387 6.2831853071796004 $264 $388 forward 7 unknown #
loop $-1 $-1 $271 $167 #
plane-surface $-1 -53.93475142674032 26.445486508393099 8.9013777177926841 -0.79863551827123203 0 0.60181501223851219 0.60181501223851219 0 0.79863551827123203 forward_v I I I I #
loop $-1 $-1 $389 $106 #
coedge $-1 $269 $269 $270 $390 reversed $168 $-1 #
coedge $-1 $270 $270 $269 $390 forward $170 $-1 #
coedge $-1 $271 $271 $171 $272 forward $266 $-1 #
edge $-1 $391 0 $391 6.2831853071796004 $271 $392 forward 7 unknown #
loop $-1 $-1 $278 $172 #
plane-surface $-1 -53.93475142674032 26.445486508393099 8.9013777177926841 -0.79863551827123203 0 0.60181501223851219 0.60181501223851219 0 0.79863551827123203 forward_v I I I I #
loop $-1 $-1 $393 $109 #
coedge $-1 $276 $276 $277 $394 reversed $173 $-1 #
coedge $-1 $277 $277 $276 $394 forward $175 $-1 #
coedge $-1 $278 $278 $176 $279 forward $273 $-1 #
edge $-1 $395 0 $395 6.2831853071796004 $278 $396 forward 7 unknown #
face $-1 $397 $398 $42 $-1 $399 reversed single #
loop $-1 $-1 $400 $177 #
plane-surface $-1 -53.93475142674032 0 0 1 0 0 0 0 -1 forward_v I I I I #
coedge $-1 $401 $291 $402 $403 forward $178 $-1 #
coedge $-1 $404 $180 $401 $405 forward $113 $-1 #
coedge $-1 $180 $404 $406 $407 forward $113 $-1 #
coedge $-1 $294 $293 $180 $287 reversed $295 $-1 #
edge $-1 $408 -30.702826773517398 $409 30.702826773517398 $286 $410 forward 7 unknown #
coedge $-1 $182 $181 $411 $412 forward $71 $-1 #
coedge $-1 $413 $414 $181 $290 reversed $398 $-1 #
edge $-1 $297 -53.93475142674032 $415 53.93475142674032 $289 $416 forward 7 unknown #
coedge $-1 $283 $417 $182 $292 reversed $178 $-1 #
edge $-1 $418 -53.93475142674032 $296 53.93475142674032 $291 $419 forward 7 unknown #
coedge $-1 $286 $183 $417 $420 forward $295 $-1 #
coedge $-1 $183 $286 $413 $421 reversed $295 $-1 #
loop $-1 $-1 $293 $397 #
vertex $-1 $184 $422 #
vertex $-1 $184 $423 #
straight-curve $-1 53.93475142674032 0 14.059471568608554 0 1 0 I I #
face $-1 $424 $425 $43 $-1 $426 reversed single #
loop $-1 $-1 $427 $185 #
plane-surface $-1 0 0 14.059471568608554 0 0 1 1 0 0 forward_v I I I I #
coedge $-1 $428 $429 $430 $431 reversed $186 $-1 #
coedge $-1 $191 $188 $432 $433 reversed $117 $-1 #
coedge $-1 $188 $191 $434 $435 reversed $117 $-1 #
coedge $-1 $429 $428 $188 $306 reversed $186 $-1 #
edge $-1 $436 -14.059471568608554 $437 14.059471568608554 $305 $438 forward 7 unknown #
coedge $-1 $190 $189 $439 $440 reversed $74 $-1 #
coedge $-1 $432 $441 $189 $309 forward $425 $-1 #
edge $-1 $442 -17.9008216098375 $313 -7.7031887175223002 $308 $443 forward 7 unknown #
coedge $-1 $444 $434 $190 $311 forward $300 $-1 #
edge $-1 $312 7.7031887175223002 $445 17.9008216098375 $310 $446 forward 7 unknown #
vertex $-1 $311 $447 #
vertex $-1 $309 $448 #
straight-curve $-1 -42.133091920896575 -20.505193881202199 0 0 0 -1 I I #
face $-1 $-1 $327 $44 $-1 $449 forward single #
loop $-1 $-1 $450 $193 #
plane-surface $-1 53.93475142674032 0 0 -1 0 0 0 0 1 forward_v I I I I #
coedge $-1 $451 $452 $453 $454 reversed $194 $-1 #
coedge $-1 $455 $196 $198 $325 forward $121 $-1 #
coedge $-1 $196 $455 $451 $456 forward $121 $-1 #
coedge $-1 $453 $199 $196 $322 forward $327 $-1 #
edge $-1 $329 3.2626062339445259 $457 9.7143156744232844 $321 $458 forward 7 unknown #
coedge $-1 $459 $460 $197 $324 forward $316 $-1 #
edge $-1 $461 -72.657297045180556 $328 -63.955595540358473 $323 $462 forward 7 unknown #
edge $-1 $329 93.065284204383786 $461 107.86950285348064 $198 $463 forward 7 unknown #
coedge $-1 $199 $453 $459 $464 forward $327 $-1 #
loop $-1 $-1 $453 $315 #
vertex $-1 $324 $465 #
vertex $-1 $200 $466 #
straight-curve $-1 15.03529739572074 -9.751067188128431 14.059471568608558 -1 0 0 I I #
coedge $-1 $331 $331 $-1 $467 reversed $203 $-1 #
edge $-1 $468 0 $468 6.2831853071796004 $204 $469 forward 7 unknown #
vertex $-1 $207 $470 #
ellipse-curve $-1 47.946319229344162 -14.912434740511438 9.7086208161975023 0.5877852598018023 0 0.80901698891910034 0.40450849445955017 0 -0.29389262990090115 1 I I #
coedge $-1 $335 $335 $-1 $471 reversed $210 $-1 #
edge $-1 $472 0 $472 6.2831853071796004 $211 $473 forward 7 unknown #
vertex $-1 $214 $474 #
ellipse-curve $-1 47.946319229344162 -12.97692190836781 9.7086208161975023 0.5877852598018023 0 0.80901698891910034 0.40450849445955017 0 -0.29389262990090115 1 I I #
coedge $-1 $339 $339 $-1 $475 reversed $217 $-1 #
edge $-1 $476 0 $476 6.2831853071796004 $218 $477 forward 7 unknown #
vertex $-1 $221 $478 #
ellipse-curve $-1 47.946319229344162 -11.041409076224184 9.7086208161975023 0.5877852598018023 0 0.80901698891910034 0.40450849445955017 0 -0.29389262990090115 1 I I #
face $-1 $-1 $355 $48 $-1 $479 forward single #
loop $-1 $-1 $480 $222 #
plane-surface $-1 53.93475142674032 0 0 -1 0 0 0 0 1 forward_v I I I I #
coedge $-1 $481 $482 $483 $484 reversed $223 $-1 #
coedge $-1 $485 $225 $227 $353 forward $140 $-1 #
coedge $-1 $225 $485 $481 $486 forward $140 $-1 #
coedge $-1 $483 $228 $225 $350 forward $355 $-1 #
edge $-1 $357 -14.813132120580883 $487 -8.361422680102125 $349 $488 forward 7 unknown #
coedge $-1 $489 $490 $226 $352 forward $344 $-1 #
edge $-1 $491 -72.657297045180556 $356 -63.955595540358473 $351 $492 forward 7 unknown #
edge $-1 $357 93.065284204383786 $491 107.86950285348064 $227 $493 forward 7 unknown #
coedge $-1 $228 $483 $489 $494 forward $355 $-1 #
loop $-1 $-1 $483 $343 #
vertex $-1 $352 $495 #
vertex $-1 $229 $496 #
straight-curve $-1 15.03529739572074 26.400409520922388 14.059471568608558 -1 0 0 I I #
coedge $-1 $359 $359 $-1 $497 reversed $232 $-1 #
edge $-1 $498 0 $498 6.2831853071796004 $233 $499 forward 7 unknown #
vertex $-1 $236 $500 #
ellipse-curve $-1 47.946319229344162 21.239041968539379 9.7086208161975023 0.5877852598018023 0 0.80901698891910034 0.40450849445955017 0 -0.29389262990090115 1 I I #
coedge $-1 $363 $363 $-1 $501 reversed $239 $-1 #
edge $-1 $502 0 $502 6.2831853071796004 $240 $503 forward 7 unknown #
vertex $-1 $243 $504 #
ellipse-curve $-1 47.946319229344162 23.174554800683008 9.7086208161975023 0.5877852598018023 0 0.80901698891910034 0.40450849445955017 0 -0.29389262990090115 1 I I #
coedge $-1 $367 $367 $-1 $505 reversed $246 $-1 #
edge $-1 $506 0 $506 6.2831853071796004 $247 $507 forward 7 unknown #
vertex $-1 $250 $508 #
ellipse-curve $-1 47.946319229344162 25.110067632826631 9.7086208161975023 0.5877852598018023 0 0.80901698891910034 0.40450849445955017 0 -0.29389262990090115 1 I I #
face $-1 $-1 $509 $52 $-1 $510 reversed single #
loop $-1 $-1 $511 $251 #
plane-surface $-1 0 30.702826773517398 0 0 -1 0 0 0 -1 forward_v I I I I #
coedge $-1 $512 $254 $256 $380 forward $159 $-1 #
coedge $-1 $254 $512 $511 $513 reversed $159 $-1 #
coedge $-1 $514 $257 $254 $377 forward $252 $-1 #
edge $-1 $383 8.9654029890722438 $515 17.480083519320857 $376 $516 forward 7 unknown #
coedge $-1 $517 $518 $255 $379 forward $509 $-1 #
edge $-1 $519 -28.008054231068499 $382 -22.849960380252629 $378 $520 forward 7 unknown #
edge $-1 $383 -6.458633172215217 $519 0 $256 $521 forward 7 unknown #
coedge $-1 $257 $514 $517 $522 forward $252 $-1 #
vertex $-1 $379 $523 #
vertex $-1 $258 $524 #
straight-curve $-1 -70.041583871894986 22.188146243268793 14.059471568608554 1 0 0 I I #
coedge $-1 $385 $385 $-1 $525 reversed $261 $-1 #
edge $-1 $526 0 $526 6.2831853071796004 $262 $527 forward 7 unknown #
vertex $-1 $265 $528 #
ellipse-curve $-1 -51.991300225949935 23.891082349318513 11.480424643200623 -0.79863551827123203 0 0.60181501223851219 0.15045375305962805 0 0.19965887956780801 1 I I #
coedge $-1 $389 $389 $-1 $529 reversed $268 $-1 #
edge $-1 $530 0 $530 6.2831853071796004 $269 $531 forward 7 unknown #
vertex $-1 $272 $532 #
ellipse-curve $-1 -51.991300225949935 26.445486508393092 11.480424643200623 -0.79863551827123203 0 0.60181501223851219 0.15045375305962805 0 0.19965887956780801 1 I I #
coedge $-1 $393 $393 $-1 $533 reversed $275 $-1 #
edge $-1 $534 0 $534 6.2831853071796004 $276 $535 forward 7 unknown #
vertex $-1 $279 $536 #
ellipse-curve $-1 -51.991300225949935 28.999890667467671 11.480424643200623 -0.79863551827123203 0 0.60181501223851219 0.15045375305962805 0 0.19965887956780801 1 I I #
face $-1 $-1 $295 $42 $-1 $537 reversed single #
loop $-1 $-1 $413 $280 #
plane-surface $-1 0 30.702826773517398 0 0 -1 0 0 0 -1 forward_v I I I I #
coedge $-1 $538 $411 $414 $539 forward $281 $-1 #
coedge $-1 $417 $283 $284 $405 reversed $178 $-1 #
coedge $-1 $411 $538 $283 $403 reversed $281 $-1 #
edge $-1 $418 -14.059471568608554 $540 14.059471568608554 $402 $541 forward 7 unknown #
coedge $-1 $285 $284 $538 $542 forward $113 $-1 #
edge $-1 $409 -53.93475142674032 $540 53.93475142674032 $401 $543 forward 7 unknown #
coedge $-1 $414 $413 $285 $407 reversed $398 $-1 #
edge $-1 $544 -53.93475142674032 $408 53.93475142674032 $406 $545 forward 7 unknown #
vertex $-1 $287 $546 #
vertex $-1 $420 $547 #
straight-curve $-1 53.93475142674032 0 -14.059471568608554 0 -1 0 I I #
coedge $-1 $400 $402 $288 $412 reversed $281 $-1 #
edge $-1 $415 -30.702826773517398 $418 30.702826773517398 $411 $548 forward 7 unknown #
coedge $-1 $406 $289 $294 $421 forward $398 $-1 #
coedge $-1 $289 $406 $400 $539 reversed $398 $-1 #
vertex $-1 $290 $549 #
straight-curve $-1 0 30.702826773517398 14.059471568608554 -1 0 0 I I #
coedge $-1 $291 $401 $293 $420 reversed $178 $-1 #
vertex $-1 $412 $550 #
straight-curve $-1 0 -30.702826773517398 14.059471568608554 1 0 0 I I #
edge $-1 $296 -14.059471568608554 $409 14.059471568608554 $293 $551 forward 7 unknown #
edge $-1 $297 -14.059471568608554 $408 14.059471568608554 $294 $552 forward 7 unknown #
point $-1 53.93475142674032 -30.702826773517398 14.059471568608554 #
point $-1 53.93475142674032 30.702826773517398 14.059471568608554 #
face $-1 $-1 $553 $43 $-1 $554 reversed single #
loop $-1 $-1 $555 $299 #
plane-surface $-1 0 0 -14.059471568608554 0 0 1 1 0 0 forward_v I I I I #
coedge $-1 $434 $444 $429 $556 forward $300 $-1 #
coedge $-1 $305 $302 $555 $557 reversed $186 $-1 #
coedge $-1 $302 $305 $427 $556 reversed $186 $-1 #
coedge $-1 $558 $559 $302 $431 forward $553 $-1 #
edge $-1 $560 -14.059471568608554 $561 14.059471568608554 $430 $562 forward 7 unknown #
coedge $-1 $555 $308 $303 $433 forward $425 $-1 #
edge $-1 $313 -21.890732976731798 $437 -18.593984911597758 $432 $563 forward 7 unknown #
coedge $-1 $310 $427 $304 $435 forward $300 $-1 #
edge $-1 $436 18.593984911597758 $312 21.890732976731798 $434 $564 forward 7 unknown #
vertex $-1 $435 $565 #
vertex $-1 $433 $566 #
straight-curve $-1 -38.836343855762536 -20.505193881202199 0 0 0 -1 I I #
coedge $-1 $559 $558 $307 $440 forward $553 $-1 #
edge $-1 $445 -14.059471568608554 $442 14.059471568608554 $439 $567 forward 7 unknown #
coedge $-1 $308 $555 $559 $568 forward $425 $-1 #
vertex $-1 $309 $569 #
straight-curve $-1 -42.133091920896575 -12.802005163679899 -14.059471568608554 0 1 0 I I #
coedge $-1 $427 $310 $558 $570 forward $300 $-1 #
vertex $-1 $570 $571 #
straight-curve $-1 -42.133091920896575 -12.802005163679899 14.059471568608554 0 -1 0 I I #
point $-1 -42.133091920896575 -20.505193881202199 14.059471568608554 #
point $-1 -42.133091920896575 -20.505193881202199 -14.059471568608554 #
plane-surface $-1 0 0 14.059471568608554 0 0 1 1 0 0 forward_v I I I I #
coedge $-1 $460 $459 $452 $572 forward $316 $-1 #
coedge $-1 $452 $318 $320 $456 reversed $194 $-1 #
coedge $-1 $318 $451 $450 $572 reversed $194 $-1 #
coedge $-1 $326 $321 $318 $454 forward $327 $-1 #
edge $-1 $457 26.922589636227251 $573 38.89945403101958 $453 $574 forward 7 unknown #
coedge $-1 $320 $319 $460 $575 reversed $121 $-1 #
edge $-1 $576 -107.86950285348064 $457 -93.065284204383786 $451 $577 forward 7 unknown #
vertex $-1 $322 $578 #
straight-curve $-1 41.95788703194799 -6.4884609541839051 14.059471568608558 0 -1 0 I I #
coedge $-1 $450 $323 $326 $464 reversed $316 $-1 #
coedge $-1 $323 $450 $455 $575 forward $316 $-1 #
vertex $-1 $324 $579 #
straight-curve $-1 53.93475142674032 -9.751067188128431 78.015067108967031 0 0 1 I I #
straight-curve $-1 -33.333508967982894 -9.751067188128431 68.761873823210848 0.80901698891910034 0 -0.5877852598018023 I I #
edge $-1 $573 -16.202776628607189 $328 -9.751067188128431 $459 $580 forward 7 unknown #
point $-1 53.93475142674032 -9.751067188128431 14.059471568608554 #
point $-1 41.95788703194799 -9.751067188128431 14.059471568608558 #
edge $-1 $581 1 $581 0 $331 $-1 forward 7 unknown #
vertex $-1 $332 $582 #
ellipse-curve $-1 47.159373660482963 -14.912434740511438 8.6254831839642812 0.5877852598018023 0 0.80901698891910034 0.40450849445955017 0 -0.29389262990090115 1 I I #
point $-1 48.350827723803725 -14.912434740511438 9.4147281862966175 #
edge $-1 $583 1 $583 0 $335 $-1 forward 7 unknown #
vertex $-1 $336 $584 #
ellipse-curve $-1 47.159373660482963 -12.97692190836781 8.6254831839642812 0.5877852598018023 0 0.80901698891910034 0.40450849445955017 0 -0.29389262990090115 1 I I #
point $-1 48.350827723803725 -12.97692190836781 9.4147281862966175 #
edge $-1 $585 1 $585 0 $339 $-1 forward 7 unknown #
vertex $-1 $340 $586 #
ellipse-curve $-1 47.159373660482963 -11.041409076224184 8.6254831839642812 0.5877852598018023 0 0.80901698891910034 0.40450849445955017 0 -0.29389262990090115 1 I I #
point $-1 48.350827723803725 -11.041409076224184 9.4147281862966175 #
plane-surface $-1 0 0 14.059471568608554 0 0 1 1 0 0 forward_v I I I I #
coedge $-1 $490 $489 $482 $587 forward $344 $-1 #
coedge $-1 $482 $346 $348 $486 reversed $223 $-1 #
coedge $-1 $346 $481 $480 $587 reversed $223 $-1 #
coedge $-1 $354 $349 $346 $484 forward $355 $-1 #
edge $-1 $487 26.922589636227251 $588 38.89945403101958 $483 $589 forward 7 unknown #
coedge $-1 $348 $347 $490 $590 reversed $140 $-1 #
edge $-1 $591 -107.86950285348064 $487 -93.065284204383786 $481 $592 forward 7 unknown #
vertex $-1 $350 $593 #
straight-curve $-1 41.95788703194799 11.587277400341504 14.059471568608558 0 -1 0 I I #
coedge $-1 $480 $351 $354 $494 reversed $344 $-1 #
coedge $-1 $351 $480 $485 $590 forward $344 $-1 #
vertex $-1 $352 $594 #
straight-curve $-1 53.93475142674032 26.400409520922388 78.015067108967031 0 0 1 I I #
straight-curve $-1 -33.333508967982894 26.400409520922388 68.761873823210848 0.80901698891910034 0 -0.5877852598018023 I I #
edge $-1 $588 19.948700080443629 $356 26.400409520922388 $489 $595 forward 7 unknown #
point $-1 53.93475142674032 26.400409520922388 14.059471568608554 #
point $-1 41.95788703194799 26.400409520922388 14.059471568608558 #
edge $-1 $596 1 $596 0 $359 $-1 forward 7 unknown #
vertex $-1 $360 $597 #
ellipse-curve $-1 47.159373660482963 21.239041968539379 8.6254831839642812 0.5877852598018023 0 0.80901698891910034 0.40450849445955017 0 -0.29389262990090115 1 I I #
point $-1 48.350827723803725 21.239041968539379 9.4147281862966175 #
edge $-1 $598 1 $598 0 $363 $-1 forward 7 unknown #
vertex $-1 $364 $599 #
ellipse-curve $-1 47.159373660482963 23.174554800683008 8.6254831839642812 0.5877852598018023 0 0.80901698891910034 0.40450849445955017 0 -0.29389262990090115 1 I I #
point $-1 48.350827723803725 23.174554800683008 9.4147281862966175 #
edge $-1 $600 1 $600 0 $367 $-1 forward 7 unknown #
vertex $-1 $368 $601 #
ellipse-curve $-1 47.159373660482963 25.110067632826631 8.6254831839642812 0.5877852598018023 0 0.80901698891910034 0.40450849445955017 0 -0.29389262990090115 1 I I #
point $-1 48.350827723803725 25.110067632826631 9.4147281862966175 #
loop $-1 $-1 $378 $371 #
plane-surface $-1 -53.93475142674032 0 0 1 0 0 0 0 -1 forward_v I I I I #
coedge $-1 $602 $603 $375 $513 forward $372 $-1 #
coedge $-1 $375 $374 $518 $604 reversed $159 $-1 #
edge $-1 $515 6.2162601692785246 $605 12.674893341493743 $511 $606 forward 7 unknown #
coedge $-1 $381 $376 $603 $607 forward $252 $-1 #
vertex $-1 $607 $608 #
straight-curve $-1 -50.047849025159557 13.22274325419655 14.059471568608554 0 1 0 I I #
coedge $-1 $609 $378 $381 $522 reversed $509 $-1 #
coedge $-1 $378 $609 $512 $604 forward $509 $-1 #
vertex $-1 $379 $610 #
straight-curve $-1 -53.93475142674032 22.188146243268793 36.909431948861183 0 0 1 I I #
straight-curve $-1 -53.93475142674032 22.188146243268793 8.9013777177926841 -0.60181501223851219 0 -0.79863551827123203 I I #
edge $-1 $611 -30.702826773517398 $382 -22.188146243268793 $517 $612 forward 7 unknown #
point $-1 -53.93475142674032 22.188146243268793 14.059471568608554 #
point $-1 -50.047849025159557 22.188146243268793 14.059471568608554 #
edge $-1 $613 1 $613 0 $385 $-1 forward 7 unknown #
vertex $-1 $386 $614 #
ellipse-curve $-1 -51.192664707678709 23.891082349318513 10.878609630962117 -0.79863551827123203 0 0.60181501223851219 0.15045375305962805 0 0.19965887956780801 1 I I #
point $-1 -51.840846472890313 23.891082349318513 11.680083522768436 #
edge $-1 $615 1 $615 0 $389 $-1 forward 7 unknown #
vertex $-1 $390 $616 #
ellipse-curve $-1 -51.192664707678709 26.445486508393092 10.878609630962117 -0.79863551827123203 0 0.60181501223851219 0.15045375305962805 0 0.19965887956780801 1 I I #
point $-1 -51.840846472890313 26.445486508393092 11.680083522768436 #
edge $-1 $617 1 $617 0 $393 $-1 forward 7 unknown #
vertex $-1 $394 $618 #
ellipse-curve $-1 -51.192664707678709 28.999890667467671 10.878609630962117 -0.79863551827123203 0 0.60181501223851219 0.15045375305962805 0 0.19965887956780801 1 I I #
point $-1 -51.840846472890313 28.999890667467671 11.680083522768436 #
plane-surface $-1 53.93475142674032 0 0 -1 0 0 0 0 1 forward_v I I I I #
coedge $-1 $402 $400 $404 $542 reversed $281 $-1 #
edge $-1 $415 -14.059471568608554 $544 14.059471568608554 $414 $619 forward 7 unknown #
vertex $-1 $542 $620 #
straight-curve $-1 -53.93475142674032 -30.702826773517398 0 0 0 -1 I I #
edge $-1 $540 -30.702826773517398 $544 30.702826773517398 $538 $621 forward 7 unknown #
straight-curve $-1 0 -30.702826773517398 -14.059471568608554 -1 0 0 I I #
vertex $-1 $407 $622 #
straight-curve $-1 0 30.702826773517398 -14.059471568608554 1 0 0 I I #
point $-1 53.93475142674032 30.702826773517398 -14.059471568608554 #
point $-1 53.93475142674032 -30.702826773517398 -14.059471568608554 #
straight-curve $-1 -53.93475142674032 0 14.059471568608554 0 -1 0 I I #
point $-1 -53.93475142674032 30.702826773517398 14.059471568608554 #
point $-1 -53.93475142674032 -30.702826773517398 14.059471568608554 #
straight-curve $-1 53.93475142674032 -30.702826773517398 0 0 0 -1 I I #
straight-curve $-1 53.93475142674032 30.702826773517398 0 0 0 -1 I I #
loop $-1 $-1 $430 $424 #
plane-surface $-1 0 -30.702826773517398 0 0 1 0 0 0 1 forward_v I I I I #
coedge $-1 $441 $432 $428 $557 forward $425 $-1 #
edge $-1 $561 -17.9008216098375 $436 -7.7031887175223002 $427 $623 forward 7 unknown #
edge $-1 $437 7.7031887175223002 $560 17.9008216098375 $555 $624 forward 7 unknown #
coedge $-1 $439 $430 $444 $570 reversed $553 $-1 #
coedge $-1 $430 $439 $441 $568 reversed $553 $-1 #
vertex $-1 $568 $625 #
vertex $-1 $431 $626 #
straight-curve $-1 -38.836343855762536 -30.702826773517398 0 0 0 1 I I #
straight-curve $-1 -20.242358944164778 -20.505193881202199 -14.059471568608554 1 0 0 I I #
straight-curve $-1 -20.242358944164778 -20.505193881202199 14.059471568608554 -1 0 0 I I #
point $-1 -38.836343855762536 -20.505193881202199 14.059471568608554 #
point $-1 -38.836343855762536 -20.505193881202199 -14.059471568608554 #
straight-curve $-1 -42.133091920896575 -30.702826773517398 0 0 0 -1 I I #
edge $-1 $560 38.836343855762536 $442 42.133091920896575 $559 $627 forward 7 unknown #
point $-1 -42.133091920896575 -30.702826773517398 -14.059471568608554 #
edge $-1 $445 -42.133091920896575 $561 -38.836343855762536 $558 $628 forward 7 unknown #
point $-1 -42.133091920896575 -30.702826773517398 14.059471568608554 #
edge $-1 $573 63.955595540358473 $576 72.657297045180556 $450 $629 forward 7 unknown #
vertex $-1 $464 $630 #
straight-curve $-1 15.03529739572074 -16.202776628607189 14.059471568608558 1 0 0 I I #
edge $-1 $576 -9.7143156744232844 $461 -3.2626062339445259 $460 $631 forward 7 unknown #
vertex $-1 $575 $632 #
straight-curve $-1 -33.333508967982894 -16.202776628607189 68.761873823210848 -0.80901698891910034 0 0.5877852598018023 I I #
point $-1 41.95788703194799 -16.202776628607189 14.059471568608558 #
point $-1 53.93475142674032 -9.751067188128431 5.3577700637864751 #
straight-curve $-1 53.93475142674032 0 14.059471568608554 0 1 0 I I #
vertex $-1 $467 $633 #
point $-1 47.563882154942519 -14.912434740511438 8.3315905540633803 #
vertex $-1 $471 $634 #
point $-1 47.563882154942519 -12.97692190836781 8.3315905540633803 #
vertex $-1 $475 $635 #
point $-1 47.563882154942519 -11.041409076224184 8.3315905540633803 #
edge $-1 $588 63.955595540358473 $591 72.657297045180556 $480 $636 forward 7 unknown #
vertex $-1 $494 $637 #
straight-curve $-1 15.03529739572074 19.948700080443629 14.059471568608558 1 0 0 I I #
edge $-1 $591 8.361422680102125 $491 14.813132120580883 $490 $638 forward 7 unknown #
vertex $-1 $590 $639 #
straight-curve $-1 -33.333508967982894 19.948700080443629 68.761873823210848 -0.80901698891910034 0 0.5877852598018023 I I #
point $-1 41.95788703194799 19.948700080443629 14.059471568608558 #
point $-1 53.93475142674032 26.400409520922388 5.3577700637864751 #
straight-curve $-1 53.93475142674032 0 14.059471568608554 0 1 0 I I #
vertex $-1 $497 $640 #
point $-1 47.563882154942519 21.239041968539379 8.3315905540633803 #
vertex $-1 $501 $641 #
point $-1 47.563882154942519 23.174554800683008 8.3315905540633803 #
vertex $-1 $505 $642 #
point $-1 47.563882154942519 25.110067632826631 8.3315905540633803 #
coedge $-1 $603 $511 $609 $643 reversed $372 $-1 #
coedge $-1 $511 $602 $514 $607 reversed $372 $-1 #
edge $-1 $605 -17.480083519320857 $519 -8.9654029890722438 $518 $644 forward 7 unknown #
vertex $-1 $513 $645 #
straight-curve $-1 -46.306810335307425 30.702826773517398 19.023997730609125 -0.60181501223851219 0 -0.79863551827123203 I I #
edge $-1 $515 50.047849025159557 $611 53.93475142674032 $603 $646 forward 7 unknown #
point $-1 -50.047849025159557 30.702826773517405 14.059471568608554 #
coedge $-1 $518 $517 $602 $643 forward $509 $-1 #
point $-1 -53.93475142674032 22.188146243268793 8.9013777177926841 #
vertex $-1 $607 $647 #
straight-curve $-1 -53.93475142674032 0 14.059471568608554 0 -1 0 I I #
vertex $-1 $525 $648 #
point $-1 -51.04221095461908 23.891082349318513 11.078268510529924 #
vertex $-1 $529 $649 #
point $-1 -51.04221095461908 26.445486508393092 11.078268510529924 #
vertex $-1 $533 $650 #
point $-1 -51.04221095461908 28.999890667467671 11.078268510529924 #
straight-curve $-1 -53.93475142674032 30.702826773517398 0 0 0 -1 I I #
point $-1 -53.93475142674032 -30.702826773517398 -14.059471568608554 #
straight-curve $-1 -53.93475142674032 0 -14.059471568608554 0 1 0 I I #
point $-1 -53.93475142674032 30.702826773517398 -14.059471568608554 #
straight-curve $-1 -38.836343855762536 -12.802005163679899 14.059471568608554 0 1 0 I I #
straight-curve $-1 -38.836343855762536 -12.802005163679899 -14.059471568608554 0 -1 0 I I #
point $-1 -38.836343855762536 -30.702826773517398 -14.059471568608554 #
point $-1 -38.836343855762536 -30.702826773517398 14.059471568608554 #
straight-curve $-1 0 -30.702826773517398 -14.059471568608554 -1 0 0 I I #
straight-curve $-1 0 -30.702826773517398 14.059471568608554 1 0 0 I I #
straight-curve $-1 53.93475142674032 -16.202776628607189 78.015067108967031 0 0 -1 I I #
point $-1 53.93475142674032 -16.202776628607189 14.059471568608554 #
straight-curve $-1 53.934751426740327 -6.4884609541839051 5.357770063786468 0 1 0 I I #
point $-1 53.93475142674032 -16.202776628607189 5.3577700637864751 #
point $-1 46.865481030582067 -14.912434740511438 8.2209746895047324 #
point $-1 46.865481030582067 -12.97692190836781 8.2209746895047324 #
point $-1 46.865481030582067 -11.041409076224184 8.2209746895047324 #
straight-curve $-1 53.93475142674032 19.948700080443629 78.015067108967031 0 0 -1 I I #
point $-1 53.93475142674032 19.948700080443629 14.059471568608554 #
straight-curve $-1 53.934751426740327 11.587277400341504 5.357770063786468 0 1 0 I I #
point $-1 53.93475142674032 19.948700080443629 5.3577700637864751 #
point $-1 46.865481030582067 21.239041968539379 8.2209746895047324 #
point $-1 46.865481030582067 23.174554800683008 8.2209746895047324 #
point $-1 46.865481030582067 25.110067632826631 8.2209746895047324 #
edge $-1 $611 -14.059471568608554 $605 -8.9013777177926841 $602 $651 forward 7 unknown #
straight-curve $-1 -53.93475142674032 13.22274325419655 8.9013777177926841 0 -1 0 I I #
point $-1 -53.93475142674032 30.702826773517405 8.9013777177926841 #
straight-curve $-1 0 30.702826773517398 14.059471568608554 -1 0 0 I I #
point $-1 -53.93475142674032 30.702826773517398 14.059471568608554 #
point $-1 -50.993005828110903 23.891082349318513 10.728155877902488 #
point $-1 -50.993005828110903 26.445486508393092 10.728155877902488 #
point $-1 -50.993005828110903 28.999890667467671 10.728155877902488 #
straight-curve $-1 -53.93475142674032 30.702826773517398 0 0 0 -1 I I #
End-of-ACIS-data 