500 0 8 0           
7 Unknown 11 ACIS 5.0 NT 24 Thu Mar 25 22:40:03 1999 
-1 9.9999999999999995e-007 1e-010 
body $-1 $8 $-1 $9 #
body $-1 $10 $-1 $11 #
body $-1 $12 $-1 $13 #
body $-1 $14 $-1 $15 #
body $-1 $16 $-1 $17 #
body $-1 $18 $-1 $19 #
body $-1 $20 $-1 $21 #
body $-1 $22 $-1 $23 #
lump $-1 $-1 $24 $0 #
transform $-1 1 0 0 0 1 0 0 0 1 63.124485000152589 27.337889623452416 10.185359975343163 1 rotate no_reflect no_shear #
lump $-1 $-1 $25 $1 #
transform $-1 1 0 0 0 1 0 0 0 1 63.124485000152589 27.337889623452416 10.185359975343163 1 rotate no_reflect no_shear #
lump $-1 $-1 $26 $2 #
transform $-1 1 0 0 0 1 0 0 0 1 63.124485000152589 27.337889623452416 10.185359975343163 1 rotate no_reflect no_shear #
lump $-1 $-1 $27 $3 #
transform $-1 1 0 0 0 1 0 0 0 1 63.124485000152589 27.337889623452416 10.185359975343163 1 rotate no_reflect no_shear #
lump $-1 $-1 $28 $4 #
transform $-1 1 0 0 0 1 0 0 0 1 63.124485000152589 27.337889623452416 10.185359975343163 1 rotate no_reflect no_shear #
lump $-1 $-1 $29 $5 #
transform $-1 1 0 0 0 1 0 0 0 1 63.124485000152589 27.337889623452416 10.185359975343163 1 rotate no_reflect no_shear #
lump $-1 $-1 $30 $6 #
transform $-1 1 0 0 0 1 0 0 0 1 63.124485000152589 27.337889623452416 10.185359975343163 1 rotate no_reflect no_shear #
lump $-1 $-1 $31 $7 #
transform $-1 1 0 0 0 1 0 0 0 1 63.124485000152589 27.337889623452416 10.185359975343163 1 rotate no_reflect no_shear #
shell $-1 $-1 $-1 $32 $-1 $8 #
shell $-1 $-1 $-1 $33 $-1 $10 #
shell $-1 $-1 $-1 $34 $-1 $12 #
shell $-1 $-1 $-1 $35 $-1 $14 #
shell $-1 $-1 $-1 $36 $-1 $16 #
shell $-1 $-1 $-1 $37 $-1 $18 #
shell $-1 $-1 $-1 $38 $-1 $20 #
shell $-1 $-1 $-1 $39 $-1 $22 #
face $-1 $40 $41 $24 $-1 $42 forward single #
face $-1 $43 $44 $25 $-1 $45 forward single #
face $-1 $46 $47 $26 $-1 $48 reversed single #
face $-1 $49 $50 $27 $-1 $51 forward single #
face $-1 $52 $53 $28 $-1 $54 forward single #
face $-1 $55 $56 $29 $-1 $57 reversed single #
face $-1 $58 $59 $30 $-1 $60 forward single #
face $-1 $61 $62 $31 $-1 $63 forward single #
face $-1 $64 $65 $24 $-1 $66 reversed single #
loop $-1 $-1 $67 $32 #
plane-surface $-1 0 0 10.185359975343163 0 0 1 1 0 0 forward_v I I I I #
face $-1 $68 $69 $25 $-1 $70 reversed single #
loop $-1 $-1 $71 $33 #
plane-surface $-1 0 -27.337889623452416 0 0 1 0 0 0 1 forward_v I I I I #
face $-1 $72 $73 $26 $-1 $74 reversed single #
loop $-1 $-1 $75 $34 #
plane-surface $-1 50.669956399935487 21.835218641199418 178.24755015265046 0 -1 0 -0.6560590369687036 0 -0.75470957328743171 forward_v I I I I #
face $-1 $76 $77 $27 $-1 $78 forward single #
loop $-1 $79 $80 $35 #
cone-surface $-1 56.830270206030434 12.699852940097234 4.5688511786184289 -0.6560590369687036 0 -0.75470957328743171 0.75470957328743171 0 -0.6560590369687036 1 I I 0 1 1 forward I I I I #
face $-1 $81 $82 $28 $-1 $83 forward single #
loop $-1 $84 $85 $36 #
cone-surface $-1 56.830270206030434 18.181072360758545 4.5688511786184289 -0.6560590369687036 0 -0.75470957328743171 0.75470957328743171 0 -0.6560590369687036 1 I I 0 1 1 forward I I I I #
face $-1 $86 $87 $29 $-1 $88 reversed single #
loop $-1 $-1 $89 $37 #
plane-surface $-1 -167.78962564611857 -8.9791957731493532 72.941918303648379 0 1 0 -0.82903758062907751 0 0.55919289150049634 forward_v I I I I #
face $-1 $90 $91 $30 $-1 $92 forward single #
loop $-1 $93 $94 $38 #
cone-surface $-1 -59.451169736740802 -5.0361007479394395 5.5708636611707192 0.82903758062907751 0 -0.55919289150049634 0.55919289150049634 0 0.82903758062907751 1 I I 0 1 1 forward I I I I #
face $-1 $95 $96 $31 $-1 $97 forward single #
loop $-1 $98 $99 $39 #
cone-surface $-1 -59.451169736740802 0.87854178987543108 5.5708636611707192 0.82903758062907751 0 -0.55919289150049634 0.55919289150049634 0 0.82903758062907751 1 I I 0 1 1 forward I I I I #
face $-1 $100 $101 $24 $-1 $102 reversed single #
loop $-1 $-1 $103 $40 #
plane-surface $-1 0 0 -10.185359975343163 0 0 1 1 0 0 forward_v I I I I #
coedge $-1 $104 $105 $106 $107 forward $41 $-1 #
face $-1 $108 $109 $25 $-1 $110 reversed single #
loop $-1 $-1 $111 $43 #
plane-surface $-1 0 0 -10.185359975343163 0 0 1 1 0 0 forward_v I I I I #
coedge $-1 $112 $113 $114 $115 forward $44 $-1 #
face $-1 $116 $117 $26 $-1 $118 reversed single #
loop $-1 $-1 $119 $46 #
plane-surface $-1 -32.156821276755494 15.440462650427886 82.966243875742364 0.6560590369687036 0 0.75470957328743171 0.75470957328743171 0 -0.6560590369687036 forward_v I I I I #
coedge $-1 $120 $121 $122 $123 reversed $47 $-1 #
face $-1 $-1 $124 $27 $-1 $125 forward single #
loop $-1 $126 $127 $49 #
cone-surface $-1 55.986265181329401 12.699852940097234 3.5979344833958447 -0.6560590369687036 0 -0.75470957328743171 0.37735478664371586 0 -0.3280295184843518 1 I I -0.70710678118654746 0.70710678118654746 0.5 forward I I I I #
loop $-1 $-1 $128 $35 #
coedge $-1 $80 $80 $129 $130 reversed $50 $-1 #
face $-1 $-1 $131 $28 $-1 $132 forward single #
loop $-1 $133 $134 $52 #
cone-surface $-1 55.986265181329401 18.181072360758545 3.5979344833958447 -0.6560590369687036 0 -0.75470957328743171 0.37735478664371586 0 -0.3280295184843518 1 I I -0.70710678118654746 0.70710678118654746 0.5 forward I I I I #
loop $-1 $-1 $135 $36 #
coedge $-1 $85 $85 $136 $137 reversed $53 $-1 #
face $-1 $138 $139 $29 $-1 $140 reversed single #
loop $-1 $-1 $141 $55 #
plane-surface $-1 -63.124485000152589 -2.0787794790320078 2.3443917202183115 -0.82903758062907751 0 0.55919289150049634 0.55919289150049634 0 0.82903758062907751 forward_v I I I I #
coedge $-1 $142 $143 $144 $145 reversed $56 $-1 #
face $-1 $-1 $146 $30 $-1 $147 forward single #
loop $-1 $148 $149 $58 #
cone-surface $-1 -58.007735534840137 -5.0361007479394395 4.5972550288104461 0.82903758062907751 0 -0.55919289150049634 0.27959644575024817 0 0.41451879031453875 1 I I -0.70710678118654746 0.70710678118654746 0.5 forward I I I I #
loop $-1 $-1 $150 $38 #
coedge $-1 $94 $94 $151 $152 reversed $59 $-1 #
face $-1 $-1 $153 $31 $-1 $154 forward single #
loop $-1 $155 $156 $61 #
cone-surface $-1 -58.007735534840137 0.87854178987543108 4.5972550288104461 0.82903758062907751 0 -0.55919289150049634 0.27959644575024817 0 0.41451879031453875 1 I I -0.70710678118654746 0.70710678118654746 0.5 forward I I I I #
loop $-1 $-1 $157 $39 #
coedge $-1 $99 $99 $158 $159 reversed $62 $-1 #
face $-1 $160 $161 $24 $-1 $162 reversed single #
loop $-1 $-1 $163 $64 #
plane-surface $-1 0 -27.337889623452416 0 0 1 0 0 0 1 forward_v I I I I #
coedge $-1 $164 $165 $166 $167 forward $65 $-1 #
coedge $-1 $168 $67 $169 $170 forward $41 $-1 #
coedge $-1 $67 $168 $171 $172 forward $41 $-1 #
coedge $-1 $173 $174 $67 $107 reversed $175 $-1 #
edge $-1 $176 -27.337889623452416 $177 27.337889623452416 $106 $178 forward 7 unknown #
face $-1 $179 $180 $25 $-1 $181 reversed single #
loop $-1 $-1 $182 $68 #
plane-surface $-1 -59.182482439343531 -35.967970277678873 0 0 1 0 0 0 1 forward_v I I I I #
coedge $-1 $183 $184 $113 $185 forward $69 $-1 #
coedge $-1 $186 $71 $187 $188 reversed $44 $-1 #
coedge $-1 $71 $186 $111 $185 reversed $44 $-1 #
coedge $-1 $189 $190 $71 $115 reversed $180 $-1 #
edge $-1 $191 -10.185359975343163 $192 10.185359975343163 $114 $193 forward 7 unknown #
face $-1 $194 $195 $26 $-1 $196 forward single #
loop $-1 $-1 $197 $72 #
plane-surface $-1 50.669956399935487 9.0457066596563536 178.24755015265046 0 1 0 0.6560590369687036 0 0.75470957328743171 forward_v I I I I #
coedge $-1 $198 $199 $200 $201 reversed $73 $-1 #
coedge $-1 $121 $75 $202 $203 reversed $47 $-1 #
coedge $-1 $75 $120 $198 $204 reversed $47 $-1 #
coedge $-1 $200 $205 $75 $123 forward $195 $-1 #
edge $-1 $206 -37.789506800184846 $207 -26.233028224373847 $122 $208 forward 7 unknown #
loop $-1 $-1 $129 $76 #
plane-surface $-1 -32.156821276755494 15.440462650427886 82.966243875742364 0.6560590369687036 0 0.75470957328743171 0.75470957328743171 0 -0.6560590369687036 forward_v I I I I #
loop $-1 $-1 $209 $49 #
coedge $-1 $127 $127 $128 $210 reversed $77 $-1 #
coedge $-1 $128 $128 $127 $210 forward $79 $-1 #
coedge $-1 $129 $129 $80 $130 forward $124 $-1 #
edge $-1 $211 0 $211 6.2831853071796004 $129 $212 forward 7 unknown #
loop $-1 $-1 $136 $81 #
plane-surface $-1 -32.156821276755494 15.440462650427886 82.966243875742364 0.6560590369687036 0 0.75470957328743171 0.75470957328743171 0 -0.6560590369687036 forward_v I I I I #
loop $-1 $-1 $213 $52 #
coedge $-1 $134 $134 $135 $214 reversed $82 $-1 #
coedge $-1 $135 $135 $134 $214 forward $84 $-1 #
coedge $-1 $136 $136 $85 $137 forward $131 $-1 #
edge $-1 $215 0 $215 6.2831853071796004 $136 $216 forward 7 unknown #
face $-1 $217 $218 $29 $-1 $219 reversed single #
loop $-1 $-1 $220 $86 #
plane-surface $-1 -167.78962564611857 4.8216368150853377 72.941918303648379 0 -1 0 0.82903758062907751 0 -0.55919289150049634 forward_v I I I I #
coedge $-1 $221 $222 $223 $224 reversed $87 $-1 #
coedge $-1 $143 $89 $225 $226 reversed $56 $-1 #
coedge $-1 $89 $142 $221 $227 reversed $56 $-1 #
coedge $-1 $223 $228 $89 $145 forward $229 $-1 #
edge $-1 $230 20.770327822906694 $231 26.059127526558008 $144 $232 forward 7 unknown #
loop $-1 $-1 $151 $90 #
plane-surface $-1 -63.124485000152589 -2.0787794790320078 2.3443917202183115 -0.82903758062907751 0 0.55919289150049634 0.55919289150049634 0 0.82903758062907751 forward_v I I I I #
loop $-1 $-1 $233 $58 #
coedge $-1 $149 $149 $150 $234 reversed $91 $-1 #
coedge $-1 $150 $150 $149 $234 forward $93 $-1 #
coedge $-1 $151 $151 $94 $152 forward $146 $-1 #
edge $-1 $235 0 $235 6.2831853071796004 $151 $236 forward 7 unknown #
loop $-1 $-1 $158 $95 #
plane-surface $-1 -63.124485000152589 -2.0787794790320078 2.3443917202183115 -0.82903758062907751 0 0.55919289150049634 0.55919289150049634 0 0.82903758062907751 forward_v I I I I #
loop $-1 $-1 $237 $61 #
coedge $-1 $156 $156 $157 $238 reversed $96 $-1 #
coedge $-1 $157 $157 $156 $238 forward $98 $-1 #
coedge $-1 $158 $158 $99 $159 forward $153 $-1 #
edge $-1 $239 0 $239 6.2831853071796004 $158 $240 forward 7 unknown #
face $-1 $241 $242 $24 $-1 $243 reversed single #
loop $-1 $-1 $244 $100 #
plane-surface $-1 -63.124485000152589 0 0 1 0 0 0 0 -1 forward_v I I I I #
coedge $-1 $245 $171 $246 $247 forward $101 $-1 #
coedge $-1 $248 $103 $245 $249 forward $65 $-1 #
coedge $-1 $103 $248 $250 $251 forward $65 $-1 #
coedge $-1 $174 $173 $103 $167 reversed $175 $-1 #
edge $-1 $252 -27.337889623452416 $253 27.337889623452416 $166 $254 forward 7 unknown #
coedge $-1 $105 $104 $255 $256 forward $41 $-1 #
coedge $-1 $257 $258 $104 $170 reversed $242 $-1 #
edge $-1 $177 -63.124485000152589 $259 63.124485000152589 $169 $260 forward 7 unknown #
coedge $-1 $163 $261 $105 $172 reversed $101 $-1 #
edge $-1 $262 -63.124485000152589 $176 63.124485000152589 $171 $263 forward 7 unknown #
coedge $-1 $166 $106 $261 $264 forward $175 $-1 #
coedge $-1 $106 $166 $257 $265 reversed $175 $-1 #
loop $-1 $-1 $173 $241 #
vertex $-1 $107 $266 #
vertex $-1 $107 $267 #
straight-curve $-1 63.124485000152589 0 10.185359975343163 0 1 0 I I #
face $-1 $268 $269 $25 $-1 $270 reversed single #
loop $-1 $-1 $114 $108 #
plane-surface $-1 -62.194013035648261 -31.652929950565646 0 1 0 0 0 0 -1 forward_v I I I I #
coedge $-1 $271 $272 $273 $274 forward $109 $-1 #
coedge $-1 $275 $111 $276 $277 forward $69 $-1 #
coedge $-1 $111 $275 $189 $278 forward $69 $-1 #
edge $-1 $191 -62.194013035648261 $279 -56.1709518430388 $111 $280 forward 7 unknown #
coedge $-1 $113 $112 $281 $282 forward $44 $-1 #
coedge $-1 $283 $284 $112 $188 forward $285 $-1 #
edge $-1 $286 56.1709518430388 $192 62.194013035648261 $187 $287 forward 7 unknown #
coedge $-1 $273 $114 $184 $278 reversed $180 $-1 #
coedge $-1 $114 $273 $283 $288 reversed $180 $-1 #
vertex $-1 $185 $289 #
vertex $-1 $288 $290 #
straight-curve $-1 -62.194013035648261 -27.337889623452416 0 0 0 1 I I #
face $-1 $-1 $291 $26 $-1 $292 reversed single #
loop $-1 $-1 $122 $116 #
plane-surface $-1 0 0 10.185359975343163 0 0 1 1 0 0 forward_v I I I I #
coedge $-1 $293 $294 $295 $296 reversed $117 $-1 #
coedge $-1 $297 $119 $121 $204 forward $73 $-1 #
coedge $-1 $119 $297 $293 $298 forward $73 $-1 #
coedge $-1 $295 $122 $119 $201 forward $195 $-1 #
edge $-1 $207 -14.114987315985475 $299 -1.3254753344424106 $200 $300 forward 7 unknown #
coedge $-1 $301 $302 $120 $203 forward $291 $-1 #
edge $-1 $303 -88.984308877273818 $206 -78.93841510098207 $202 $304 forward 7 unknown #
edge $-1 $207 110.93648558928565 $303 126.24897000030518 $121 $305 forward 7 unknown #
coedge $-1 $122 $295 $301 $306 forward $195 $-1 #
vertex $-1 $123 $307 #
vertex $-1 $123 $308 #
straight-curve $-1 25.334978199967743 21.835218641199418 10.185359975343161 -1 0 0 I I #
coedge $-1 $209 $209 $-1 $309 reversed $126 $-1 #
edge $-1 $310 0 $310 6.2831853071796004 $127 $311 forward 7 unknown #
vertex $-1 $130 $312 #
ellipse-curve $-1 57.346245712247097 12.699852940097234 5.1624130871972742 0.6560590369687036 0 0.75470957328743171 0.75470957328743171 0 -0.6560590369687036 1 I I #
coedge $-1 $213 $213 $-1 $313 reversed $133 $-1 #
edge $-1 $314 0 $314 6.2831853071796004 $134 $315 forward 7 unknown #
vertex $-1 $137 $316 #
ellipse-curve $-1 57.346245712247097 18.181072360758545 5.1624130871972742 0.6560590369687036 0 0.75470957328743171 0.75470957328743171 0 -0.6560590369687036 1 I I #
face $-1 $-1 $229 $29 $-1 $317 forward single #
loop $-1 $-1 $318 $138 #
plane-surface $-1 -63.124485000152589 0 0 1 0 0 0 0 -1 forward_v I I I I #
coedge $-1 $319 $320 $321 $322 reversed $139 $-1 #
coedge $-1 $323 $141 $143 $227 forward $87 $-1 #
coedge $-1 $141 $323 $319 $324 forward $87 $-1 #
coedge $-1 $321 $144 $141 $224 forward $229 $-1 #
edge $-1 $231 -7.9398060336333494 $325 5.8610265546013416 $223 $326 forward 7 unknown #
coedge $-1 $327 $328 $142 $226 forward $218 $-1 #
edge $-1 $329 -34.126567431605878 $230 -26.285599176481028 $225 $330 forward 7 unknown #
edge $-1 $231 -9.4579165508698537 $329 0 $143 $331 forward 7 unknown #
coedge $-1 $144 $321 $327 $332 forward $229 $-1 #
loop $-1 $-1 $321 $217 #
vertex $-1 $226 $333 #
vertex $-1 $145 $334 #
straight-curve $-1 -83.894812823059283 -8.9791957731493532 10.185359975343161 1 0 0 I I #
coedge $-1 $233 $233 $-1 $335 reversed $148 $-1 #
edge $-1 $336 0 $336 6.2831853071796004 $149 $337 forward 7 unknown #
vertex $-1 $152 $338 #
ellipse-curve $-1 -60.480085148326928 -5.0361007479394395 6.2648758477807425 -0.82903758062907751 0 0.55919289150049634 0.55919289150049634 0 0.82903758062907751 1 I I #
coedge $-1 $237 $237 $-1 $339 reversed $155 $-1 #
edge $-1 $340 0 $340 6.2831853071796004 $156 $341 forward 7 unknown #
vertex $-1 $159 $342 #
ellipse-curve $-1 -60.480085148326928 0.87854178987543108 6.2648758477807425 -0.82903758062907751 0 0.55919289150049634 0.55919289150049634 0 0.82903758062907751 1 I I #
face $-1 $-1 $175 $24 $-1 $343 reversed single #
loop $-1 $-1 $257 $160 #
plane-surface $-1 0 27.337889623452416 0 0 -1 0 0 0 -1 forward_v I I I I #
coedge $-1 $344 $255 $258 $345 forward $161 $-1 #
coedge $-1 $261 $163 $164 $249 reversed $101 $-1 #
coedge $-1 $255 $344 $163 $247 reversed $161 $-1 #
edge $-1 $262 -10.185359975343163 $346 10.185359975343163 $246 $347 forward 7 unknown #
coedge $-1 $165 $164 $344 $348 forward $65 $-1 #
edge $-1 $253 -63.124485000152589 $346 63.124485000152589 $245 $349 forward 7 unknown #
coedge $-1 $258 $257 $165 $251 reversed $242 $-1 #
edge $-1 $350 -63.124485000152589 $252 63.124485000152589 $250 $351 forward 7 unknown #
vertex $-1 $167 $352 #
vertex $-1 $264 $353 #
straight-curve $-1 63.124485000152589 0 -10.185359975343163 0 -1 0 I I #
coedge $-1 $244 $246 $168 $256 reversed $161 $-1 #
edge $-1 $259 -27.337889623452416 $262 27.337889623452416 $255 $354 forward 7 unknown #
coedge $-1 $250 $169 $174 $265 forward $242 $-1 #
coedge $-1 $169 $250 $244 $345 reversed $242 $-1 #
vertex $-1 $170 $355 #
straight-curve $-1 0 27.337889623452416 10.185359975343163 -1 0 0 I I #
coedge $-1 $171 $245 $173 $264 reversed $101 $-1 #
vertex $-1 $256 $356 #
straight-curve $-1 0 -27.337889623452416 10.185359975343163 1 0 0 I I #
edge $-1 $176 -10.185359975343163 $253 10.185359975343163 $173 $357 forward 7 unknown #
edge $-1 $177 -10.185359975343163 $252 10.185359975343163 $174 $358 forward 7 unknown #
point $-1 63.124485000152589 -27.337889623452416 10.185359975343163 #
point $-1 63.124485000152589 27.337889623452416 10.185359975343163 #
face $-1 $-1 $285 $25 $-1 $359 forward single #
loop $-1 $-1 $360 $179 #
plane-surface $-1 -56.1709518430388 -31.652929950565646 0 -1 0 0 0 0 1 forward_v I I I I #
coedge $-1 $361 $182 $275 $362 reversed $109 $-1 #
coedge $-1 $182 $361 $363 $364 reversed $109 $-1 #
coedge $-1 $190 $189 $182 $274 reversed $180 $-1 #
edge $-1 $365 -10.185359975343163 $366 10.185359975343163 $273 $367 forward 7 unknown #
coedge $-1 $184 $183 $271 $362 forward $69 $-1 #
coedge $-1 $281 $360 $183 $277 reversed $269 $-1 #
edge $-1 $279 -4.3150403271132305 $368 4.3150403271132269 $276 $369 forward 7 unknown #
edge $-1 $366 -4.3150403271132269 $191 4.3150403271132305 $189 $370 forward 7 unknown #
vertex $-1 $277 $371 #
straight-curve $-1 0 -27.337889623452416 -10.185359975343163 1 0 0 I I #
coedge $-1 $372 $276 $186 $282 reversed $269 $-1 #
edge $-1 $286 -10.185359975343163 $279 10.185359975343163 $281 $373 forward 7 unknown #
coedge $-1 $363 $187 $190 $288 forward $285 $-1 #
coedge $-1 $187 $363 $372 $374 forward $285 $-1 #
loop $-1 $-1 $187 $268 #
vertex $-1 $188 $375 #
straight-curve $-1 0 -27.337889623452416 10.185359975343163 -1 0 0 I I #
edge $-1 $192 -4.3150403271132305 $365 4.3150403271132269 $190 $376 forward 7 unknown #
point $-1 -62.194013035648261 -27.337889623452416 -10.185359975343163 #
point $-1 -62.194013035648261 -27.337889623452416 10.185359975343163 #
loop $-1 $-1 $202 $194 #
plane-surface $-1 63.124485000152589 0 0 -1 0 0 0 0 1 forward_v I I I I #
coedge $-1 $294 $197 $199 $298 reversed $117 $-1 #
coedge $-1 $197 $293 $377 $378 reversed $117 $-1 #
coedge $-1 $205 $200 $197 $296 forward $195 $-1 #
edge $-1 $299 26.233028224373847 $379 37.789506800184846 $295 $380 forward 7 unknown #
coedge $-1 $199 $198 $302 $381 reversed $73 $-1 #
edge $-1 $382 -126.24897000030518 $299 -110.93648558928565 $293 $383 forward 7 unknown #
vertex $-1 $201 $384 #
straight-curve $-1 51.568006424341583 7.720231325213943 10.185359975343175 0 -1 0 I I #
coedge $-1 $377 $202 $205 $306 reversed $291 $-1 #
coedge $-1 $202 $377 $297 $381 forward $291 $-1 #
vertex $-1 $203 $385 #
straight-curve $-1 63.124485000152589 21.835218641199418 89.123775076325231 0 0 1 I I #
straight-curve $-1 -32.156821276755494 21.835218641199418 82.966243875742364 0.75470957328743171 0 -0.6560590369687036 I I #
edge $-1 $379 9.0457066596563536 $206 21.835218641199418 $301 $386 forward 7 unknown #
point $-1 63.124485000152589 21.835218641199418 10.185359975343163 #
point $-1 51.56800642434159 21.835218641199418 10.185359975343161 #
edge $-1 $387 1 $387 0 $209 $-1 forward 7 unknown #
vertex $-1 $210 $388 #
ellipse-curve $-1 56.31429469981375 12.699852940097234 3.9752892700395606 0.6560590369687036 0 0.75470957328743171 0.75470957328743171 0 -0.6560590369687036 1 I I #
point $-1 58.100955285534546 12.699852940097234 4.5063540502285928 #
edge $-1 $389 1 $389 0 $213 $-1 forward 7 unknown #
vertex $-1 $214 $390 #
ellipse-curve $-1 56.31429469981375 18.181072360758545 3.9752892700395606 0.6560590369687036 0 0.75470957328743171 0.75470957328743171 0 -0.6560590369687036 1 I I #
point $-1 58.100955285534546 18.181072360758545 4.5063540502285928 #
plane-surface $-1 0 0 10.185359975343163 0 0 1 1 0 0 forward_v I I I I #
coedge $-1 $328 $327 $320 $391 forward $218 $-1 #
coedge $-1 $320 $220 $222 $324 reversed $139 $-1 #
coedge $-1 $220 $319 $318 $391 reversed $139 $-1 #
coedge $-1 $228 $223 $220 $322 forward $229 $-1 #
edge $-1 $325 -26.059127526558008 $392 -20.770327822906694 $321 $393 forward 7 unknown #
coedge $-1 $222 $221 $328 $394 reversed $87 $-1 #
edge $-1 $395 0 $325 9.4579165508698537 $319 $396 forward 7 unknown #
vertex $-1 $224 $397 #
straight-curve $-1 -57.835685296501275 -1.0393897395160039 10.185359975343163 0 1 0 I I #
coedge $-1 $318 $225 $228 $332 reversed $218 $-1 #
coedge $-1 $225 $318 $323 $394 forward $218 $-1 #
vertex $-1 $226 $398 #
straight-curve $-1 -63.124485000152589 -8.9791957731493532 36.470959151824189 0 0 1 I I #
straight-curve $-1 -63.124485000152589 -8.9791957731493532 2.3443917202183115 -0.55919289150049634 0 -0.82903758062907751 I I #
edge $-1 $392 -4.8216368150853377 $230 8.9791957731493532 $327 $399 forward 7 unknown #
point $-1 -63.124485000152589 -8.9791957731493532 10.185359975343163 #
point $-1 -57.835685296501275 -8.9791957731493532 10.185359975343163 #
edge $-1 $400 1 $400 0 $233 $-1 forward 7 unknown #
vertex $-1 $234 $401 #
ellipse-curve $-1 -58.422254325154675 -5.0361007479394395 4.8768514745606941 -0.82903758062907751 0 0.55919289150049634 0.55919289150049634 0 0.82903758062907751 1 I I #
point $-1 -59.920892256826441 -5.0361007479394395 7.093913428409822 #
edge $-1 $402 1 $402 0 $237 $-1 forward 7 unknown #
vertex $-1 $238 $403 #
ellipse-curve $-1 -58.422254325154675 0.87854178987543108 4.8768514745606941 -0.82903758062907751 0 0.55919289150049634 0.55919289150049634 0 0.82903758062907751 1 I I #
point $-1 -59.920892256826441 0.87854178987543108 7.093913428409822 #
plane-surface $-1 63.124485000152589 0 0 -1 0 0 0 0 1 forward_v I I I I #
coedge $-1 $246 $244 $248 $348 reversed $161 $-1 #
edge $-1 $259 -10.185359975343163 $350 10.185359975343163 $258 $404 forward 7 unknown #
vertex $-1 $348 $405 #
straight-curve $-1 -63.124485000152589 -27.337889623452416 0 0 0 -1 I I #
edge $-1 $346 -27.337889623452416 $350 27.337889623452416 $344 $406 forward 7 unknown #
straight-curve $-1 0 -27.337889623452416 -10.185359975343163 -1 0 0 I I #
vertex $-1 $251 $407 #
straight-curve $-1 0 27.337889623452416 -10.185359975343163 1 0 0 I I #
point $-1 63.124485000152589 27.337889623452416 -10.185359975343163 #
point $-1 63.124485000152589 -27.337889623452416 -10.185359975343163 #
straight-curve $-1 -63.124485000152589 0 10.185359975343163 0 -1 0 I I #
point $-1 -63.124485000152589 27.337889623452416 10.185359975343163 #
point $-1 -63.124485000152589 -27.337889623452416 10.185359975343163 #
straight-curve $-1 63.124485000152589 -27.337889623452416 0 0 0 -1 I I #
straight-curve $-1 63.124485000152589 27.337889623452416 0 0 0 -1 I I #
plane-surface $-1 0 0 10.185359975343163 0 0 1 1 0 0 forward_v I I I I #
coedge $-1 $276 $372 $361 $408 forward $269 $-1 #
coedge $-1 $272 $271 $360 $408 reversed $109 $-1 #
edge $-1 $368 -3.0115305963047305 $366 3.0115305963047305 $271 $409 forward 7 unknown #
coedge $-1 $284 $283 $272 $364 forward $285 $-1 #
edge $-1 $365 -3.0115305963047305 $410 3.0115305963047305 $272 $411 forward 7 unknown #
vertex $-1 $288 $412 #
vertex $-1 $278 $413 #
straight-curve $-1 -62.194013035648261 -35.967970277678873 0 0 0 -1 I I #
vertex $-1 $408 $414 #
straight-curve $-1 -56.1709518430388 -31.652929950565646 -10.185359975343163 0 -1 0 I I #
straight-curve $-1 -62.194013035648261 -31.652929950565646 -10.185359975343163 0 1 0 I I #
point $-1 -56.1709518430388 -27.337889623452416 -10.185359975343163 #
coedge $-1 $360 $281 $284 $374 reversed $269 $-1 #
straight-curve $-1 -56.1709518430388 -27.337889623452416 0 0 0 -1 I I #
edge $-1 $410 -4.3150403271132269 $286 4.3150403271132305 $372 $415 forward 7 unknown #
point $-1 -56.1709518430388 -27.337889623452416 10.185359975343163 #
straight-curve $-1 -62.194013035648261 -31.652929950565646 10.185359975343163 0 -1 0 I I #
coedge $-1 $302 $301 $294 $378 forward $291 $-1 #
edge $-1 $379 78.93841510098207 $382 88.984308877273818 $377 $416 forward 7 unknown #
vertex $-1 $306 $417 #
straight-curve $-1 25.334978199967743 9.0457066596563536 10.185359975343161 1 0 0 I I #
edge $-1 $382 1.3254753344424106 $303 14.114987315985475 $302 $418 forward 7 unknown #
vertex $-1 $381 $419 #
straight-curve $-1 -32.156821276755494 9.0457066596563536 82.966243875742364 -0.75470957328743171 0 0.6560590369687036 I I #
point $-1 51.56800642434159 9.0457066596563536 10.185359975343161 #
point $-1 63.124485000152589 21.835218641199418 0.13946619905141233 #
straight-curve $-1 63.124485000152589 0 10.185359975343163 0 1 0 I I #
vertex $-1 $309 $420 #
point $-1 57.069004273101186 12.699852940097234 3.319230233070857 #
vertex $-1 $313 $421 #
point $-1 57.069004273101186 18.181072360758545 3.319230233070857 #
edge $-1 $392 26.285599176481028 $395 34.126567431605878 $318 $422 forward 7 unknown #
vertex $-1 $332 $423 #
straight-curve $-1 -83.894812823059283 4.8216368150853377 10.185359975343161 -1 0 0 I I #
edge $-1 $395 -5.8610265546013416 $329 7.9398060336333494 $328 $424 forward 7 unknown #
vertex $-1 $394 $425 #
straight-curve $-1 -63.124485000152589 4.8216368150853377 2.3443917202183115 0.55919289150049634 0 0.82903758062907751 I I #
point $-1 -57.835685296501275 4.8216368150853377 10.185359975343163 #
point $-1 -63.124485000152589 -8.9791957731493532 2.3443917202183115 #
straight-curve $-1 -63.124485000152589 0 10.185359975343163 0 -1 0 I I #
vertex $-1 $335 $426 #
point $-1 -57.863061433654181 -5.0361007479394395 5.7058890551897719 #
vertex $-1 $339 $427 #
point $-1 -57.863061433654181 0.87854178987543108 5.7058890551897719 #
straight-curve $-1 -63.124485000152589 27.337889623452416 0 0 0 -1 I I #
point $-1 -63.124485000152589 -27.337889623452416 -10.185359975343163 #
straight-curve $-1 -63.124485000152589 0 -10.185359975343163 0 1 0 I I #
point $-1 -63.124485000152589 27.337889623452416 -10.185359975343163 #
edge $-1 $410 -10.185359975343163 $368 10.185359975343163 $360 $428 forward 7 unknown #
straight-curve $-1 -59.182482439343531 -35.967970277678873 -10.185359975343163 -1 0 0 I I #
vertex $-1 $374 $429 #
straight-curve $-1 -59.182482439343531 -35.967970277678873 10.185359975343163 1 0 0 I I #
point $-1 -62.194013035648261 -35.967970277678873 10.185359975343163 #
point $-1 -62.194013035648261 -35.967970277678873 -10.185359975343163 #
point $-1 -56.1709518430388 -35.967970277678873 -10.185359975343163 #
straight-curve $-1 -56.1709518430388 -31.652929950565646 10.185359975343163 0 1 0 I I #
straight-curve $-1 63.124485000152589 9.0457066596563536 89.123775076325231 0 0 -1 I I #
point $-1 63.124485000152589 9.0457066596563536 10.185359975343163 #
straight-curve $-1 63.124485000152589 7.720231325213943 0.13946619905140523 0 1 0 I I #
point $-1 63.124485000152589 9.0457066596563536 0.13946619905141233 #
point $-1 55.658235662845051 12.699852940097234 3.2205796967521287 #
point $-1 55.658235662845051 18.181072360758545 3.2205796967521287 #
straight-curve $-1 -63.124485000152589 4.8216368150853377 36.470959151824189 0 0 -1 I I #
point $-1 -63.124485000152589 4.8216368150853377 10.185359975343163 #
straight-curve $-1 -63.124485000152589 -1.0393897395160039 2.3443917202183076 0 -1 0 I I #
point $-1 -63.124485000152589 4.8216368150853377 2.3443917202183115 #
point $-1 -57.593216744525598 -5.0361007479394395 4.3176585830601981 #
point $-1 -57.593216744525598 0.87854178987543108 4.3176585830601981 #
straight-curve $-1 -56.1709518430388 -35.967970277678873 0 0 0 -1 I I #
point $-1 -56.1709518430388 -35.967970277678873 10.185359975343163 #
End-of-ACIS-data 