500 0 6 0           
7 Unknown 11 ACIS 5.0 NT 24 Fri Mar 26 18:37:36 1999 
-1 9.9999999999999995e-007 1e-010 
body $-1 $6 $-1 $7 #
body $-1 $8 $-1 $9 #
body $-1 $10 $-1 $11 #
body $-1 $12 $-1 $13 #
body $-1 $14 $-1 $15 #
body $-1 $16 $-1 $17 #
lump $-1 $-1 $18 $0 #
transform $-1 1 0 0 0 1 0 0 0 1 50.508133182775353 21.321871158505203 10.109652604140885 1 rotate no_reflect no_shear #
lump $-1 $-1 $19 $1 #
transform $-1 1 0 0 0 1 0 0 0 1 50.508133182775353 21.321871158505203 10.109652604140885 1 rotate no_reflect no_shear #
lump $-1 $-1 $20 $2 #
transform $-1 1 0 0 0 1 0 0 0 1 50.508133182775353 21.321871158505203 10.109652604140885 1 rotate no_reflect no_shear #
lump $-1 $-1 $21 $3 #
transform $-1 1 0 0 0 1 0 0 0 1 50.508133182775353 21.321871158505203 10.109652604140885 1 rotate no_reflect no_shear #
lump $-1 $-1 $22 $4 #
transform $-1 1 0 0 0 1 0 0 0 1 50.508133182775353 21.321871158505203 10.109652604140885 1 rotate no_reflect no_shear #
lump $-1 $-1 $23 $5 #
transform $-1 1 0 0 0 1 0 0 0 1 50.508133182775353 21.321871158505203 10.109652604140885 1 rotate no_reflect no_shear #
shell $-1 $-1 $-1 $24 $-1 $6 #
shell $-1 $-1 $-1 $25 $-1 $8 #
shell $-1 $-1 $-1 $26 $-1 $10 #
shell $-1 $-1 $-1 $27 $-1 $12 #
shell $-1 $-1 $-1 $28 $-1 $14 #
shell $-1 $-1 $-1 $29 $-1 $16 #
face $-1 $30 $31 $18 $-1 $32 forward single #
face $-1 $33 $34 $19 $-1 $35 reversed single #
face $-1 $36 $37 $20 $-1 $38 reversed single #
face $-1 $39 $40 $21 $-1 $41 reversed single #
face $-1 $42 $43 $22 $-1 $44 forward single #
face $-1 $45 $46 $23 $-1 $47 forward single #
face $-1 $48 $49 $18 $-1 $50 reversed single #
loop $-1 $-1 $51 $24 #
plane-surface $-1 0 0 10.109652604140885 0 0 1 1 0 0 forward_v I I I I #
face $-1 $52 $53 $19 $-1 $54 reversed single #
loop $-1 $-1 $55 $25 #
plane-surface $-1 0 -11.721085775442283 7.5708392131165585 0 -1 0 0 0 -1 forward_v I I I I #
face $-1 $56 $57 $20 $-1 $58 reversed single #
loop $-1 $-1 $59 $26 #
plane-surface $-1 0 16.521478466973747 5.0320258220922316 0 0 1 1 0 0 forward_v I I I I #
face $-1 $60 $61 $21 $-1 $62 reversed single #
loop $-1 $-1 $63 $27 #
plane-surface $-1 -50.508133182775367 -8.5166480772954749 1.9616800193498989 -0.69465837861970381 0 0.71933979245794832 0.71933979245794832 0 0.69465837861970381 forward_v I I I I #
face $-1 $64 $65 $22 $-1 $66 forward single #
loop $-1 $67 $68 $28 #
cone-surface $-1 -45.931754015513746 -9.889978519358392 5.665316194286798 0.69465837861970381 0 -0.71933979245794832 0.35966989622897416 0 0.3473291893098519 1 I I 0 1 0.5 forward I I I I #
face $-1 $69 $70 $23 $-1 $71 forward single #
loop $-1 $72 $73 $29 #
cone-surface $-1 -45.931754015513746 -7.143317635232556 5.665316194286798 0.69465837861970381 0 -0.71933979245794832 0.35966989622897416 0 0.3473291893098519 1 I I 0 1 0.5 forward I I I I #
face $-1 $74 $75 $18 $-1 $76 reversed single #
loop $-1 $-1 $77 $30 #
plane-surface $-1 0 0 -10.109652604140885 0 0 1 1 0 0 forward_v I I I I #
coedge $-1 $78 $79 $80 $81 forward $31 $-1 #
face $-1 $82 $83 $19 $-1 $84 reversed single #
loop $-1 $-1 $85 $33 #
plane-surface $-1 0 -16.521478466973743 5.0320258220922316 0 0 1 1 0 0 forward_v I I I I #
coedge $-1 $86 $87 $88 $89 reversed $34 $-1 #
face $-1 $90 $91 $20 $-1 $92 forward single #
loop $-1 $-1 $93 $36 #
plane-surface $-1 0 11.721085775442287 7.5708392131165585 0 1 0 0 0 1 forward_v I I I I #
coedge $-1 $94 $95 $96 $97 reversed $37 $-1 #
face $-1 $98 $99 $21 $-1 $100 reversed single #
loop $-1 $-1 $101 $39 #
plane-surface $-1 -120.67992899048494 -5.3122103791486674 74.626700101621964 0 -1 0 0.69465837861970381 0 -0.71933979245794832 forward_v I I I I #
coedge $-1 $102 $103 $104 $105 reversed $40 $-1 #
face $-1 $-1 $106 $22 $-1 $107 forward single #
loop $-1 $108 $109 $42 #
cone-surface $-1 -45.400446461560918 -9.889978519358392 5.1151311287137222 0.69465837861970381 0 -0.71933979245794832 0.17983494811448708 0 0.17366459465492595 1 I I -0.70710678118654746 0.70710678118654746 0.25 forward I I I I #
loop $-1 $-1 $110 $28 #
coedge $-1 $68 $68 $111 $112 reversed $43 $-1 #
face $-1 $-1 $113 $23 $-1 $114 forward single #
loop $-1 $115 $116 $45 #
cone-surface $-1 -45.400446461560918 -7.143317635232556 5.1151311287137222 0.69465837861970381 0 -0.71933979245794832 0.17983494811448708 0 0.17366459465492595 1 I I -0.70710678118654746 0.70710678118654746 0.25 forward I I I I #
loop $-1 $-1 $117 $29 #
coedge $-1 $73 $73 $118 $119 reversed $46 $-1 #
face $-1 $120 $121 $18 $-1 $122 reversed single #
loop $-1 $-1 $123 $48 #
plane-surface $-1 0 -21.321871158505203 0 0 1 0 0 0 1 forward_v I I I I #
coedge $-1 $124 $125 $126 $127 forward $49 $-1 #
coedge $-1 $128 $51 $129 $130 forward $31 $-1 #
coedge $-1 $51 $128 $131 $132 forward $31 $-1 #
coedge $-1 $133 $134 $51 $81 reversed $135 $-1 #
edge $-1 $136 -21.321871158505203 $137 21.321871158505203 $80 $138 forward 7 unknown #
face $-1 $139 $140 $19 $-1 $141 reversed single #
loop $-1 $-1 $142 $52 #
plane-surface $-1 -50.508133182775353 0 0 1 0 0 0 0 -1 forward_v I I I I #
coedge $-1 $143 $144 $145 $146 reversed $53 $-1 #
coedge $-1 $147 $55 $148 $149 reversed $34 $-1 #
coedge $-1 $55 $147 $142 $150 reversed $34 $-1 #
coedge $-1 $151 $152 $55 $89 forward $153 $-1 #
edge $-1 $154 -50.508133182775353 $155 50.508133182775353 $88 $156 forward 7 unknown #
face $-1 $157 $158 $20 $-1 $159 reversed single #
loop $-1 $-1 $160 $56 #
plane-surface $-1 0 0 10.109652604140885 0 0 1 1 0 0 forward_v I I I I #
coedge $-1 $161 $162 $163 $164 reversed $57 $-1 #
coedge $-1 $165 $59 $161 $166 forward $37 $-1 #
coedge $-1 $59 $165 $167 $168 reversed $37 $-1 #
coedge $-1 $169 $170 $59 $97 forward $158 $-1 #
edge $-1 $171 3.4603465419554134 $172 13.061131925018334 $96 $173 forward 7 unknown #
face $-1 $174 $175 $21 $-1 $176 forward single #
loop $-1 $-1 $177 $60 #
plane-surface $-1 -50.508133182775353 0 0 1 0 0 0 0 -1 forward_v I I I I #
coedge $-1 $178 $179 $180 $181 reversed $61 $-1 #
coedge $-1 $182 $63 $183 $184 reversed $40 $-1 #
coedge $-1 $63 $182 $178 $185 forward $40 $-1 #
coedge $-1 $180 $186 $63 $105 forward $175 $-1 #
edge $-1 $187 -7.4627617367945458 $188 -1.05388634050093 $104 $189 forward 7 unknown #
loop $-1 $-1 $111 $64 #
plane-surface $-1 -50.508133182775367 -8.5166480772954749 1.9616800193498989 -0.69465837861970381 0 0.71933979245794832 0.71933979245794832 0 0.69465837861970381 forward_v I I I I #
loop $-1 $-1 $190 $42 #
coedge $-1 $109 $109 $110 $191 reversed $65 $-1 #
coedge $-1 $110 $110 $109 $191 forward $67 $-1 #
coedge $-1 $111 $111 $68 $112 forward $106 $-1 #
edge $-1 $192 0 $192 6.2831853071796004 $111 $193 forward 7 unknown #
loop $-1 $-1 $118 $69 #
plane-surface $-1 -50.508133182775367 -8.5166480772954749 1.9616800193498989 -0.69465837861970381 0 0.71933979245794832 0.71933979245794832 0 0.69465837861970381 forward_v I I I I #
loop $-1 $-1 $194 $45 #
coedge $-1 $116 $116 $117 $195 reversed $70 $-1 #
coedge $-1 $117 $117 $116 $195 forward $72 $-1 #
coedge $-1 $118 $118 $73 $119 forward $113 $-1 #
edge $-1 $196 0 $196 6.2831853071796004 $118 $197 forward 7 unknown #
face $-1 $198 $199 $18 $-1 $200 reversed single #
loop $-1 $-1 $201 $74 #
plane-surface $-1 -50.508133182775353 0 0 1 0 0 0 0 -1 forward_v I I I I #
coedge $-1 $202 $131 $203 $204 forward $75 $-1 #
coedge $-1 $205 $77 $202 $206 forward $49 $-1 #
coedge $-1 $77 $205 $207 $208 forward $49 $-1 #
coedge $-1 $134 $133 $77 $127 reversed $135 $-1 #
edge $-1 $209 -21.321871158505203 $210 21.321871158505203 $126 $211 forward 7 unknown #
coedge $-1 $79 $78 $212 $213 forward $31 $-1 #
coedge $-1 $214 $215 $78 $130 reversed $199 $-1 #
edge $-1 $137 -50.508133182775353 $216 50.508133182775353 $129 $217 forward 7 unknown #
coedge $-1 $123 $218 $79 $132 reversed $75 $-1 #
edge $-1 $219 -50.508133182775353 $136 50.508133182775353 $131 $220 forward 7 unknown #
coedge $-1 $126 $80 $218 $221 forward $135 $-1 #
coedge $-1 $80 $126 $214 $222 reversed $135 $-1 #
loop $-1 $-1 $133 $198 #
vertex $-1 $81 $223 #
vertex $-1 $81 $224 #
straight-curve $-1 50.508133182775353 0 10.109652604140885 0 1 0 I I #
face $-1 $225 $153 $19 $-1 $226 forward single #
loop $-1 $-1 $227 $82 #
plane-surface $-1 0 -21.321871158505203 0 0 1 0 0 0 1 forward_v I I I I #
coedge $-1 $228 $229 $87 $150 forward $83 $-1 #
coedge $-1 $230 $85 $227 $231 reversed $53 $-1 #
coedge $-1 $85 $230 $147 $232 forward $53 $-1 #
coedge $-1 $148 $233 $85 $146 forward $234 $-1 #
edge $-1 $235 -13.061131925018332 $236 -3.4603465419554116 $145 $237 forward 7 unknown #
coedge $-1 $87 $86 $144 $232 reversed $34 $-1 #
coedge $-1 $238 $145 $86 $149 forward $234 $-1 #
edge $-1 $236 1.2466062155339523 $154 6.3242329975826062 $148 $239 forward 7 unknown #
edge $-1 $155 -6.3242329975826062 $240 -1.2466062155339523 $142 $241 forward 7 unknown #
coedge $-1 $242 $88 $229 $243 forward $153 $-1 #
coedge $-1 $88 $242 $238 $244 forward $153 $-1 #
loop $-1 $-1 $88 $139 #
vertex $-1 $149 $245 #
vertex $-1 $243 $246 #
straight-curve $-1 0 -11.721085775442283 10.109652604140885 -1 0 0 I I #
face $-1 $247 $248 $20 $-1 $249 reversed single #
loop $-1 $-1 $170 $90 #
plane-surface $-1 50.508133182775353 0 0 -1 0 0 0 0 1 forward_v I I I I #
coedge $-1 $250 $251 $162 $252 forward $91 $-1 #
coedge $-1 $253 $93 $94 $166 reversed $57 $-1 #
coedge $-1 $93 $253 $160 $252 reversed $57 $-1 #
coedge $-1 $254 $255 $93 $164 forward $248 $-1 #
edge $-1 $256 1.2466062155339523 $257 6.3242329975826062 $163 $258 forward 7 unknown #
coedge $-1 $95 $94 $255 $259 reversed $37 $-1 #
edge $-1 $171 -50.508133182775353 $256 50.508133182775353 $161 $260 forward 7 unknown #
coedge $-1 $261 $262 $95 $168 forward $263 $-1 #
edge $-1 $172 -50.508133182775353 $264 50.508133182775353 $167 $265 forward 7 unknown #
coedge $-1 $266 $96 $262 $267 reversed $158 $-1 #
coedge $-1 $96 $266 $253 $268 forward $158 $-1 #
vertex $-1 $97 $269 #
vertex $-1 $168 $270 #
straight-curve $-1 50.508133182775353 8.2607392334868734 5.0320258220922316 0 1 0 I I #
face $-1 $-1 $271 $21 $-1 $272 forward single #
loop $-1 $-1 $180 $98 #
plane-surface $-1 0 0 10.109652604140885 0 0 1 1 0 0 forward_v I I I I #
coedge $-1 $273 $274 $179 $275 forward $99 $-1 #
coedge $-1 $179 $101 $103 $185 reversed $61 $-1 #
coedge $-1 $101 $178 $177 $275 reversed $61 $-1 #
coedge $-1 $276 $104 $101 $181 forward $175 $-1 #
edge $-1 $188 -18.269303728394497 $277 -9.8318313124671164 $180 $278 forward 7 unknown #
coedge $-1 $103 $102 $273 $279 reversed $40 $-1 #
coedge $-1 $280 $281 $102 $184 forward $271 $-1 #
edge $-1 $282 -20.114479736048878 $187 -8.3850126547173183 $183 $283 forward 7 unknown #
edge $-1 $284 1.9785632286268914e-014 $188 11.729467081331581 $178 $285 forward 7 unknown #
coedge $-1 $104 $276 $280 $286 forward $175 $-1 #
vertex $-1 $184 $287 #
vertex $-1 $105 $288 #
straight-curve $-1 -42.070660766847972 -4.2583240386477375 10.109652604140885 0 1 0 I I #
coedge $-1 $190 $190 $-1 $289 reversed $108 $-1 #
edge $-1 $290 0 $290 6.2831853071796004 $109 $291 forward 7 unknown #
vertex $-1 $112 $292 #
ellipse-curve $-1 -46.289396974811659 -9.889978519358392 6.0356663117453992 -0.69465837861970381 0 0.71933979245794832 0.35966989622897416 0 0.3473291893098519 1 I I #
coedge $-1 $194 $194 $-1 $293 reversed $115 $-1 #
edge $-1 $294 0 $294 6.2831853071796004 $116 $295 forward 7 unknown #
vertex $-1 $119 $296 #
ellipse-curve $-1 -46.289396974811659 -7.143317635232556 6.0356663117453992 -0.69465837861970381 0 0.71933979245794832 0.35966989622897416 0 0.3473291893098519 1 I I #
face $-1 $-1 $135 $18 $-1 $297 reversed single #
loop $-1 $-1 $214 $120 #
plane-surface $-1 0 21.321871158505203 0 0 -1 0 0 0 -1 forward_v I I I I #
coedge $-1 $298 $212 $215 $299 forward $121 $-1 #
coedge $-1 $218 $123 $124 $206 reversed $75 $-1 #
coedge $-1 $212 $298 $123 $204 reversed $121 $-1 #
edge $-1 $219 -10.109652604140885 $300 10.109652604140885 $203 $301 forward 7 unknown #
coedge $-1 $125 $124 $298 $302 forward $49 $-1 #
edge $-1 $210 -50.508133182775353 $300 50.508133182775353 $202 $303 forward 7 unknown #
coedge $-1 $215 $214 $125 $208 reversed $199 $-1 #
edge $-1 $304 -50.508133182775353 $209 50.508133182775353 $207 $305 forward 7 unknown #
vertex $-1 $127 $306 #
vertex $-1 $221 $307 #
straight-curve $-1 50.508133182775353 0 -10.109652604140885 0 -1 0 I I #
coedge $-1 $201 $203 $128 $213 reversed $121 $-1 #
edge $-1 $216 -21.321871158505203 $219 21.321871158505203 $212 $308 forward 7 unknown #
coedge $-1 $207 $129 $134 $222 forward $199 $-1 #
coedge $-1 $129 $207 $201 $299 reversed $199 $-1 #
vertex $-1 $130 $309 #
straight-curve $-1 0 21.321871158505203 10.109652604140885 -1 0 0 I I #
coedge $-1 $131 $202 $133 $221 reversed $75 $-1 #
vertex $-1 $213 $310 #
straight-curve $-1 0 -21.321871158505203 10.109652604140885 1 0 0 I I #
edge $-1 $136 -10.109652604140885 $210 10.109652604140885 $133 $311 forward 7 unknown #
edge $-1 $137 -10.109652604140885 $209 10.109652604140885 $134 $312 forward 7 unknown #
point $-1 50.508133182775353 -21.321871158505203 10.109652604140885 #
point $-1 50.508133182775353 21.321871158505203 10.109652604140885 #
face $-1 $-1 $234 $19 $-1 $313 reversed single #
plane-surface $-1 0 0 10.109652604140885 0 0 1 1 0 0 forward_v I I I I #
coedge $-1 $314 $315 $143 $231 forward $140 $-1 #
coedge $-1 $316 $142 $230 $317 forward $83 $-1 #
coedge $-1 $142 $316 $151 $243 reversed $83 $-1 #
coedge $-1 $144 $143 $228 $317 reversed $53 $-1 #
edge $-1 $318 -50.508133182775353 $235 50.508133182775353 $227 $319 forward 7 unknown #
edge $-1 $240 -50.508133182775353 $236 50.508133182775353 $147 $320 forward 7 unknown #
coedge $-1 $145 $238 $314 $321 forward $234 $-1 #
loop $-1 $-1 $148 $225 #
vertex $-1 $231 $322 #
vertex $-1 $146 $323 #
straight-curve $-1 50.508133182775353 -8.2607392334868717 5.0320258220922316 0 1 0 I I #
coedge $-1 $233 $148 $152 $244 reversed $234 $-1 #
straight-curve $-1 50.508133182775353 -11.721085775442283 3.7854196065582792 0 0 1 I I #
vertex $-1 $317 $324 #
straight-curve $-1 -50.508133182775353 -11.721085775442283 3.7854196065582792 0 0 -1 I I #
coedge $-1 $152 $151 $325 $326 forward $153 $-1 #
edge $-1 $155 11.721085775442283 $327 21.321871158505203 $229 $328 forward 7 unknown #
edge $-1 $329 -21.321871158505203 $154 -11.721085775442283 $238 $330 forward 7 unknown #
point $-1 50.508133182775353 -11.721085775442283 10.109652604140885 #
point $-1 -50.508133182775353 -11.721085775442283 10.109652604140885 #
face $-1 $-1 $263 $20 $-1 $331 reversed single #
loop $-1 $-1 $163 $157 #
plane-surface $-1 -50.508133182775353 0 0 1 0 0 0 0 -1 forward_v I I I I #
coedge $-1 $332 $160 $266 $333 forward $91 $-1 #
coedge $-1 $160 $332 $254 $334 forward $91 $-1 #
edge $-1 $257 -50.508133182775353 $335 50.508133182775353 $160 $336 forward 7 unknown #
coedge $-1 $162 $161 $170 $268 reversed $57 $-1 #
coedge $-1 $337 $163 $251 $334 reversed $248 $-1 #
coedge $-1 $163 $337 $165 $259 forward $248 $-1 #
vertex $-1 $259 $338 #
vertex $-1 $164 $339 #
straight-curve $-1 -50.508133182775353 11.721085775442287 3.7854196065582792 0 0 1 I I #
edge $-1 $264 -13.061131925018334 $256 -3.4603465419554134 $255 $340 forward 7 unknown #
straight-curve $-1 0 11.721085775442287 5.0320258220922316 -1 0 0 I I #
coedge $-1 $341 $167 $337 $342 reversed $263 $-1 #
coedge $-1 $167 $341 $169 $267 forward $263 $-1 #
loop $-1 $-1 $167 $247 #
vertex $-1 $168 $343 #
straight-curve $-1 0 21.321871158505203 5.0320258220922316 -1 0 0 I I #
coedge $-1 $170 $169 $250 $333 reversed $158 $-1 #
edge $-1 $344 -10.109652604140885 $172 -5.0320258220922316 $169 $345 forward 7 unknown #
edge $-1 $335 -6.3242329975826062 $171 -1.2466062155339523 $170 $346 forward 7 unknown #
point $-1 50.508133182775353 11.721085775442287 5.0320258220922316 #
point $-1 50.508133182775353 21.321871158505207 5.0320258220922316 #
loop $-1 $-1 $183 $174 #
plane-surface $-1 0 -11.721085775442283 7.5708392131165585 0 -1 0 0 0 -1 forward_v I I I I #
coedge $-1 $347 $177 $182 $279 forward $99 $-1 #
coedge $-1 $177 $347 $276 $348 reversed $99 $-1 #
edge $-1 $277 27.203697446670098 $284 35.351670031461069 $177 $349 forward 7 unknown #
coedge $-1 $186 $180 $274 $348 forward $175 $-1 #
vertex $-1 $348 $350 #
straight-curve $-1 -60.339964495242469 -5.3122103791486674 10.109652604140884 -1 0 0 I I #
edge $-1 $284 1.05388634050093 $282 7.4627617367945458 $273 $351 forward 7 unknown #
coedge $-1 $281 $183 $186 $286 reversed $271 $-1 #
coedge $-1 $183 $280 $347 $352 reversed $271 $-1 #
vertex $-1 $352 $353 #
straight-curve $-1 -36.038987504046347 -11.721085775442283 15.934371899572518 0.71933979245794832 0 0.69465837861970381 I I #
vertex $-1 $279 $354 #
straight-curve $-1 -50.508133182775367 -5.3122103791486674 1.9616800193498989 0.71933979245794832 0 0.69465837861970381 I I #
edge $-1 $355 -50.508133182775353 $187 -42.070660766847972 $186 $356 forward 7 unknown #
point $-1 -42.070660766847972 -11.721085775442283 10.109652604140885 #
point $-1 -42.070660766847972 -5.3122103791486674 10.109652604140885 #
edge $-1 $357 1 $357 0 $190 $-1 forward 7 unknown #
vertex $-1 $191 $358 #
ellipse-curve $-1 -45.574111056215841 -9.889978519358392 5.2949660768282092 -0.69465837861970381 0 0.71933979245794832 0.35966989622897416 0 0.3473291893098519 1 I I #
point $-1 -45.92972707858268 -9.889978519358392 6.3829955010552393 #
edge $-1 $359 1 $359 0 $194 $-1 forward 7 unknown #
vertex $-1 $195 $360 #
ellipse-curve $-1 -45.574111056215841 -7.143317635232556 5.2949660768282092 -0.69465837861970381 0 0.71933979245794832 0.35966989622897416 0 0.3473291893098519 1 I I #
point $-1 -45.92972707858268 -7.143317635232556 6.3829955010552393 #
plane-surface $-1 50.508133182775353 0 0 -1 0 0 0 0 1 forward_v I I I I #
coedge $-1 $203 $201 $205 $302 reversed $121 $-1 #
edge $-1 $216 -10.109652604140885 $304 10.109652604140885 $215 $361 forward 7 unknown #
vertex $-1 $302 $362 #
straight-curve $-1 -50.508133182775353 -21.321871158505203 0 0 0 -1 I I #
edge $-1 $300 -21.321871158505203 $304 21.321871158505203 $298 $363 forward 7 unknown #
straight-curve $-1 0 -21.321871158505203 -10.109652604140885 -1 0 0 I I #
vertex $-1 $208 $364 #
straight-curve $-1 0 21.321871158505203 -10.109652604140885 1 0 0 I I #
point $-1 50.508133182775353 21.321871158505203 -10.109652604140885 #
point $-1 50.508133182775353 -21.321871158505203 -10.109652604140885 #
straight-curve $-1 -50.508133182775353 0 10.109652604140885 0 -1 0 I I #
point $-1 -50.508133182775353 21.321871158505203 10.109652604140885 #
point $-1 -50.508133182775353 -21.321871158505203 10.109652604140885 #
straight-curve $-1 50.508133182775353 -21.321871158505203 0 0 0 -1 I I #
straight-curve $-1 50.508133182775353 21.321871158505203 0 0 0 -1 I I #
plane-surface $-1 50.508133182775353 0 0 -1 0 0 0 0 1 forward_v I I I I #
coedge $-1 $325 $227 $233 $321 reversed $140 $-1 #
coedge $-1 $227 $325 $316 $365 forward $140 $-1 #
coedge $-1 $229 $228 $315 $365 reversed $83 $-1 #
edge $-1 $240 3.4603465419554116 $318 13.061131925018332 $228 $366 forward 7 unknown #
vertex $-1 $231 $367 #
straight-curve $-1 0 -21.321871158505203 5.0320258220922316 1 0 0 I I #
straight-curve $-1 0 -11.721085775442283 5.0320258220922316 1 0 0 I I #
edge $-1 $329 -10.109652604140885 $235 -5.0320258220922316 $233 $368 forward 7 unknown #
point $-1 50.508133182775353 -21.321871158505203 5.0320258220922316 #
point $-1 50.508133182775353 -11.721085775442283 5.0320258220922316 #
point $-1 -50.508133182775353 -11.721085775442283 5.0320258220922316 #
coedge $-1 $315 $314 $242 $326 reversed $140 $-1 #
edge $-1 $327 -50.508133182775353 $329 50.508133182775353 $325 $369 forward 7 unknown #
vertex $-1 $243 $370 #
straight-curve $-1 -50.508133182775353 0 10.109652604140885 0 -1 0 I I #
vertex $-1 $244 $371 #
straight-curve $-1 50.508133182775353 0 10.109652604140885 0 1 0 I I #
plane-surface $-1 0 21.321871158505203 0 0 -1 0 0 0 -1 forward_v I I I I #
coedge $-1 $251 $250 $341 $372 forward $91 $-1 #
edge $-1 $335 11.721085775442287 $344 21.321871158505203 $266 $373 forward 7 unknown #
edge $-1 $374 -21.321871158505203 $257 -11.721085775442287 $254 $375 forward 7 unknown #
vertex $-1 $333 $376 #
straight-curve $-1 0 11.721085775442287 10.109652604140885 1 0 0 I I #
coedge $-1 $255 $254 $261 $342 forward $248 $-1 #
point $-1 -50.508133182775353 11.721085775442287 5.0320258220922316 #
point $-1 -50.508133182775353 11.721085775442287 10.109652604140885 #
straight-curve $-1 -50.508133182775353 8.2607392334868734 5.0320258220922316 0 -1 0 I I #
coedge $-1 $262 $261 $332 $372 reversed $263 $-1 #
edge $-1 $374 -10.109652604140885 $264 -5.0320258220922316 $261 $377 forward 7 unknown #
point $-1 -50.508133182775353 21.321871158505207 5.0320258220922316 #
vertex $-1 $333 $378 #
straight-curve $-1 50.508133182775353 21.321871158505203 0 0 0 -1 I I #
straight-curve $-1 50.508133182775353 11.721085775442287 3.7854196065582792 0 0 -1 I I #
coedge $-1 $274 $273 $281 $352 forward $99 $-1 #
edge $-1 $277 5.3122103791486674 $355 11.721085775442283 $274 $379 forward 7 unknown #
straight-curve $-1 -50.508133182775353 -5.3122103791486674 37.313350050810982 0 0 -1 I I #
point $-1 -50.508133182775353 -5.3122103791486674 10.109652604140885 #
straight-curve $-1 -50.508133182775353 -4.2583240386477375 1.9616800193499138 0 -1 0 I I #
edge $-1 $282 -35.351670031461069 $355 -27.203697446670098 $347 $380 forward 7 unknown #
point $-1 -50.508133182775353 -11.721085775442283 1.9616800193499127 #
point $-1 -50.508133182775353 -5.3122103791486674 1.9616800193499127 #
vertex $-1 $352 $381 #
straight-curve $-1 0 -11.721085775442283 10.109652604140885 1 0 0 I I #
vertex $-1 $289 $382 #
point $-1 -45.214441159986869 -9.889978519358392 5.6422952661380616 #
vertex $-1 $293 $383 #
point $-1 -45.214441159986869 -7.143317635232556 5.6422952661380616 #
straight-curve $-1 -50.508133182775353 21.321871158505203 0 0 0 -1 I I #
point $-1 -50.508133182775353 -21.321871158505203 -10.109652604140885 #
straight-curve $-1 -50.508133182775353 0 -10.109652604140885 0 1 0 I I #
point $-1 -50.508133182775353 21.321871158505203 -10.109652604140885 #
edge $-1 $327 -10.109652604140885 $318 -5.0320258220922316 $316 $384 forward 7 unknown #
straight-curve $-1 -50.508133182775353 -8.2607392334868717 5.0320258220922316 0 -1 0 I I #
point $-1 -50.508133182775353 -21.321871158505203 5.0320258220922316 #
straight-curve $-1 50.508133182775353 -21.321871158505203 0 0 0 -1 I I #
straight-curve $-1 0 -21.321871158505203 10.109652604140885 1 0 0 I I #
point $-1 -50.508133182775353 -21.321871158505203 10.109652604140885 #
point $-1 50.508133182775353 -21.321871158505203 10.109652604140885 #
edge $-1 $344 -50.508133182775353 $374 50.508133182775353 $341 $385 forward 7 unknown #
straight-curve $-1 50.508133182775353 0 10.109652604140885 0 1 0 I I #
vertex $-1 $372 $386 #
straight-curve $-1 -50.508133182775353 0 10.109652604140885 0 -1 0 I I #
point $-1 50.508133182775353 11.721085775442287 10.109652604140885 #
straight-curve $-1 -50.508133182775353 21.321871158505203 0 0 0 -1 I I #
point $-1 50.508133182775353 21.321871158505203 10.109652604140885 #
straight-curve $-1 -50.508133182775353 0 10.109652604140885 0 -1 0 I I #
straight-curve $-1 -50.508133182775353 -11.721085775442283 37.313350050810982 0 0 1 I I #
point $-1 -50.508133182775353 -11.721085775442283 10.109652604140885 #
point $-1 -45.226781866905995 -9.889978519358392 4.9352961805992352 #
point $-1 -45.226781866905995 -7.143317635232556 4.9352961805992352 #
straight-curve $-1 -50.508133182775353 -21.321871158505203 0 0 0 -1 I I #
straight-curve $-1 0 21.321871158505203 10.109652604140885 -1 0 0 I I #
point $-1 -50.508133182775353 21.321871158505203 10.109652604140885 #
End-of-ACIS-data 