500 0 12 0           
7 Unknown 11 ACIS 5.0 NT 24 Fri Mar 26 01:09:28 1999 
-1 9.9999999999999995e-007 1e-010 
body $-1 $12 $-1 $13 #
body $-1 $14 $-1 $15 #
body $-1 $16 $-1 $17 #
body $-1 $18 $-1 $19 #
body $-1 $20 $-1 $21 #
body $-1 $22 $-1 $23 #
body $-1 $24 $-1 $25 #
body $-1 $26 $-1 $27 #
body $-1 $28 $-1 $29 #
body $-1 $30 $-1 $31 #
body $-1 $32 $-1 $33 #
body $-1 $34 $-1 $35 #
lump $-1 $-1 $36 $0 #
transform $-1 1 0 0 0 1 0 0 0 1 48.014160588396862 20.48137236268985 4.4043670180126799 1 rotate no_reflect no_shear #
lump $-1 $-1 $37 $1 #
transform $-1 1 0 0 0 1 0 0 0 1 48.014160588396862 20.48137236268985 4.4043670180126799 1 rotate no_reflect no_shear #
lump $-1 $-1 $38 $2 #
transform $-1 1 0 0 0 1 0 0 0 1 48.014160588396862 20.48137236268985 4.4043670180126799 1 rotate no_reflect no_shear #
lump $-1 $-1 $39 $3 #
transform $-1 1 0 0 0 1 0 0 0 1 48.014160588396862 20.48137236268985 4.4043670180126799 1 rotate no_reflect no_shear #
lump $-1 $-1 $40 $4 #
transform $-1 1 0 0 0 1 0 0 0 1 48.014160588396862 20.48137236268985 4.4043670180126799 1 rotate no_reflect no_shear #
lump $-1 $-1 $41 $5 #
transform $-1 1 0 0 0 1 0 0 0 1 48.014160588396862 20.48137236268985 4.4043670180126799 1 rotate no_reflect no_shear #
lump $-1 $-1 $42 $6 #
transform $-1 1 0 0 0 1 0 0 0 1 48.014160588396862 20.48137236268985 4.4043670180126799 1 rotate no_reflect no_shear #
lump $-1 $-1 $43 $7 #
transform $-1 1 0 0 0 1 0 0 0 1 48.014160588396862 20.48137236268985 4.4043670180126799 1 rotate no_reflect no_shear #
lump $-1 $-1 $44 $8 #
transform $-1 1 0 0 0 1 0 0 0 1 48.014160588396862 20.48137236268985 4.4043670180126799 1 rotate no_reflect no_shear #
lump $-1 $-1 $45 $9 #
transform $-1 1 0 0 0 1 0 0 0 1 48.014160588396862 20.48137236268985 4.4043670180126799 1 rotate no_reflect no_shear #
lump $-1 $-1 $46 $10 #
transform $-1 1 0 0 0 1 0 0 0 1 48.014160588396862 20.48137236268985 4.4043670180126799 1 rotate no_reflect no_shear #
lump $-1 $-1 $47 $11 #
transform $-1 1 0 0 0 1 0 0 0 1 48.014160588396862 20.48137236268985 4.4043670180126799 1 rotate no_reflect no_shear #
shell $-1 $-1 $-1 $48 $-1 $12 #
shell $-1 $-1 $-1 $49 $-1 $14 #
shell $-1 $-1 $-1 $50 $-1 $16 #
shell $-1 $-1 $-1 $51 $-1 $18 #
shell $-1 $-1 $-1 $52 $-1 $20 #
shell $-1 $-1 $-1 $53 $-1 $22 #
shell $-1 $-1 $-1 $54 $-1 $24 #
shell $-1 $-1 $-1 $55 $-1 $26 #
shell $-1 $-1 $-1 $56 $-1 $28 #
shell $-1 $-1 $-1 $57 $-1 $30 #
shell $-1 $-1 $-1 $58 $-1 $32 #
shell $-1 $-1 $-1 $59 $-1 $34 #
face $-1 $60 $61 $36 $-1 $62 forward single #
face $-1 $63 $64 $37 $-1 $65 forward single #
face $-1 $66 $67 $38 $-1 $68 reversed single #
face $-1 $69 $70 $39 $-1 $71 forward single #
face $-1 $72 $73 $40 $-1 $74 forward single #
face $-1 $75 $76 $41 $-1 $77 reversed single #
face $-1 $78 $79 $42 $-1 $80 forward single #
face $-1 $81 $82 $43 $-1 $83 forward single #
face $-1 $84 $85 $44 $-1 $86 reversed single #
face $-1 $87 $88 $45 $-1 $89 forward single #
face $-1 $90 $91 $46 $-1 $92 forward single #
face $-1 $93 $94 $47 $-1 $95 forward single #
face $-1 $96 $97 $36 $-1 $98 reversed single #
loop $-1 $-1 $99 $48 #
plane-surface $-1 0 0 4.4043670180126799 0 0 1 1 0 0 forward_v I I I I #
face $-1 $100 $101 $37 $-1 $102 reversed single #
loop $-1 $-1 $103 $49 #
plane-surface $-1 -48.014160588396862 0 0 1 0 0 0 0 -1 forward_v I I I I #
face $-1 $104 $105 $38 $-1 $106 reversed single #
loop $-1 $-1 $107 $50 #
plane-surface $-1 2.3519336005953662 -83.481620275658514 73.762354804802953 -1 0 0 0 -0.6560590369687036 0.75470957328743171 forward_v I I I I #
face $-1 $108 $109 $39 $-1 $110 forward single #
loop $-1 $111 $112 $51 #
cone-surface $-1 -6.7718917374600665 -17.494693471403455 1.4722813804730863 0 0.6560590369687036 -0.75470957328743171 1 0 0 1 I I 0 1 1 forward I I I I #
face $-1 $113 $114 $40 $-1 $115 forward single #
loop $-1 $116 $117 $52 #
cone-surface $-1 -1.2975965346268055 -17.494693471403455 1.4722813804730863 0 0.6560590369687036 -0.75470957328743171 1 0 0 1 I I 0 1 1 forward I I I I #
face $-1 $118 $119 $41 $-1 $120 reversed single #
loop $-1 $-1 $121 $53 #
plane-surface $-1 41.62748285175806 -20.481372362689854 1.2888615059565183 0 -0.6560590369687036 0.75470957328743171 1 0 0 forward_v I I I I #
face $-1 $122 $123 $42 $-1 $124 forward single #
loop $-1 $125 $126 $54 #
cone-surface $-1 38.890335250341423 -17.494693471403455 1.4722813804730863 0 0.6560590369687036 -0.75470957328743171 1 0 0 1 I I 0 1 1 forward I I I I #
face $-1 $127 $128 $43 $-1 $129 forward single #
loop $-1 $130 $131 $55 #
cone-surface $-1 44.364630453174684 -17.494693471403455 1.4722813804730863 0 0.6560590369687036 -0.75470957328743171 1 0 0 1 I I 0 1 1 forward I I I I #
face $-1 $132 $133 $44 $-1 $134 reversed single #
loop $-1 $-1 $135 $56 #
plane-surface $-1 -1.6957998494442243 47.32322789909081 101.99115727775533 1 0 0 0 -0.61566148304635926 -0.78801074757464917 forward_v I I I I #
face $-1 $136 $137 $45 $-1 $138 forward single #
loop $-1 $139 $140 $57 #
cone-surface $-1 2.8576858653377428 17.410653187858731 1.5283336426008254 0 -0.61566148304635926 -0.78801074757464917 1 0 0 1 I I 0 1 1 forward I I I I #
face $-1 $141 $142 $46 $-1 $143 forward single #
loop $-1 $144 $145 $58 #
cone-surface $-1 9.6879144375106918 17.410653187858731 1.5283336426008254 0 -0.61566148304635926 -0.78801074757464917 1 0 0 1 I I 0 1 1 forward I I I I #
face $-1 $146 $147 $47 $-1 $148 forward single #
loop $-1 $149 $150 $59 #
cone-surface $-1 16.518143009683641 17.410653187858731 1.5283336426008254 0 -0.61566148304635926 -0.78801074757464917 1 0 0 1 I I 0 1 1 forward I I I I #
face $-1 $151 $152 $36 $-1 $153 reversed single #
loop $-1 $-1 $154 $60 #
plane-surface $-1 0 0 -4.4043670180126799 0 0 1 1 0 0 forward_v I I I I #
coedge $-1 $155 $156 $157 $158 forward $61 $-1 #
face $-1 $159 $160 $37 $-1 $161 reversed single #
loop $-1 $-1 $162 $63 #
plane-surface $-1 0 20.48137236268985 0 0 -1 0 0 0 -1 forward_v I I I I #
coedge $-1 $163 $164 $165 $166 forward $64 $-1 #
face $-1 $167 $168 $38 $-1 $169 reversed single #
loop $-1 $-1 $170 $66 #
plane-surface $-1 -4.034744136043436 -20.481372362689854 1.2888615059565183 0 -0.6560590369687036 0.75470957328743171 1 0 0 forward_v I I I I #
coedge $-1 $171 $172 $173 $174 reversed $67 $-1 #
face $-1 $-1 $175 $39 $-1 $176 forward single #
loop $-1 $177 $178 $69 #
cone-surface $-1 -6.7718917374600665 -15.971974580169519 -0.27940628768214282 0 0.6560590369687036 -0.75470957328743171 0.5 0 0 1 I I -0.70710678118654768 0.70710678118654735 0.5 forward I I I I #
loop $-1 $-1 $179 $51 #
coedge $-1 $112 $112 $180 $181 reversed $70 $-1 #
face $-1 $-1 $182 $40 $-1 $183 forward single #
loop $-1 $184 $185 $72 #
cone-surface $-1 -1.2975965346268055 -15.971974580169519 -0.27940628768214282 0 0.6560590369687036 -0.75470957328743171 0.5 0 0 1 I I -0.70710678118654768 0.70710678118654735 0.5 forward I I I I #
loop $-1 $-1 $186 $52 #
coedge $-1 $117 $117 $187 $188 reversed $73 $-1 #
face $-1 $189 $190 $41 $-1 $191 reversed single #
loop $-1 $-1 $192 $75 #
plane-surface $-1 35.240805115119258 -83.481620275658514 73.762354804802953 1 0 0 0 0.6560590369687036 -0.75470957328743171 forward_v I I I I #
coedge $-1 $193 $194 $195 $196 reversed $76 $-1 #
face $-1 $-1 $197 $42 $-1 $198 forward single #
loop $-1 $199 $200 $78 #
cone-surface $-1 38.890335250341423 -15.971974580169519 -0.27940628768214282 0 0.6560590369687036 -0.75470957328743171 0.5 0 0 1 I I -0.70710678118654768 0.70710678118654735 0.5 forward I I I I #
loop $-1 $-1 $201 $54 #
coedge $-1 $126 $126 $202 $203 reversed $79 $-1 #
face $-1 $-1 $204 $43 $-1 $205 forward single #
loop $-1 $206 $207 $81 #
cone-surface $-1 44.364630453174684 -15.971974580169519 -0.27940628768214282 0 0.6560590369687036 -0.75470957328743171 0.5 0 0 1 I I -0.70710678118654768 0.70710678118654735 0.5 forward I I I I #
loop $-1 $-1 $208 $55 #
coedge $-1 $131 $131 $209 $210 reversed $82 $-1 #
face $-1 $211 $212 $44 $-1 $213 reversed single #
loop $-1 $-1 $214 $84 #
plane-surface $-1 9.6879144375106847 -11.797710731066118 26.319808118891601 0 0.61566148304635926 0.78801074757464917 1 0 0 forward_v I I I I #
coedge $-1 $215 $216 $217 $218 reversed $85 $-1 #
face $-1 $-1 $219 $45 $-1 $220 forward single #
loop $-1 $221 $222 $87 #
cone-surface $-1 2.8576858653377428 16.146402375181378 -0.089833573399468847 0 -0.61566148304635926 -0.78801074757464917 0.5 0 0 1 I I -0.70710678118654735 0.70710678118654768 0.5 forward I I I I #
loop $-1 $-1 $223 $57 #
coedge $-1 $140 $140 $224 $225 reversed $88 $-1 #
face $-1 $-1 $226 $46 $-1 $227 forward single #
loop $-1 $228 $229 $90 #
cone-surface $-1 9.6879144375106918 16.146402375181378 -0.089833573399468847 0 -0.61566148304635926 -0.78801074757464917 0.5 0 0 1 I I -0.70710678118654735 0.70710678118654768 0.5 forward I I I I #
loop $-1 $-1 $230 $58 #
coedge $-1 $145 $145 $231 $232 reversed $91 $-1 #
face $-1 $-1 $233 $47 $-1 $234 forward single #
loop $-1 $235 $236 $93 #
cone-surface $-1 16.518143009683641 16.146402375181378 -0.089833573399468847 0 -0.61566148304635926 -0.78801074757464917 0.5 0 0 1 I I -0.70710678118654735 0.70710678118654768 0.5 forward I I I I #
loop $-1 $-1 $237 $59 #
coedge $-1 $150 $150 $238 $239 reversed $94 $-1 #
face $-1 $240 $241 $36 $-1 $242 reversed single #
loop $-1 $-1 $243 $96 #
plane-surface $-1 0 -20.48137236268985 0 0 1 0 0 0 1 forward_v I I I I #
coedge $-1 $244 $245 $246 $247 forward $97 $-1 #
coedge $-1 $248 $99 $249 $250 forward $61 $-1 #
coedge $-1 $99 $248 $251 $252 forward $61 $-1 #
coedge $-1 $253 $254 $99 $158 reversed $255 $-1 #
edge $-1 $256 -20.48137236268985 $257 20.48137236268985 $157 $258 forward 7 unknown #
face $-1 $259 $260 $37 $-1 $261 reversed single #
loop $-1 $-1 $165 $100 #
plane-surface $-1 -50.366094188992236 0 1.4043670180126799 0 0 1 1 0 0 forward_v I I I I #
coedge $-1 $262 $263 $163 $264 forward $101 $-1 #
coedge $-1 $265 $103 $162 $264 reversed $64 $-1 #
coedge $-1 $103 $265 $266 $267 reversed $64 $-1 #
coedge $-1 $268 $269 $103 $166 reversed $160 $-1 #
edge $-1 $270 -20.48137236268985 $271 20.48137236268985 $165 $272 forward 7 unknown #
face $-1 $273 $274 $38 $-1 $275 reversed single #
loop $-1 $-1 $276 $104 #
plane-surface $-1 -10.421421872682238 -83.481620275658514 73.762354804802953 1 0 0 0 0.6560590369687036 -0.75470957328743171 forward_v I I I I #
coedge $-1 $277 $278 $279 $280 reversed $105 $-1 #
coedge $-1 $172 $107 $281 $282 reversed $67 $-1 #
coedge $-1 $107 $171 $277 $283 reversed $67 $-1 #
coedge $-1 $279 $284 $107 $174 forward $285 $-1 #
edge $-1 $286 21.259437775139407 $287 24.843416812213032 $173 $288 forward 7 unknown #
loop $-1 $-1 $180 $108 #
plane-surface $-1 -4.034744136043436 -20.481372362689854 1.2888615059565183 0 -0.6560590369687036 0.75470957328743171 1 0 0 forward_v I I I I #
loop $-1 $-1 $289 $69 #
coedge $-1 $178 $178 $179 $290 reversed $109 $-1 #
coedge $-1 $179 $179 $178 $290 forward $111 $-1 #
coedge $-1 $180 $180 $112 $181 forward $175 $-1 #
edge $-1 $291 -2.913487393424246e-016 $291 6.2831853071796004 $180 $292 forward 7 unknown #
loop $-1 $-1 $187 $113 #
plane-surface $-1 -4.034744136043436 -20.481372362689854 1.2888615059565183 0 -0.6560590369687036 0.75470957328743171 1 0 0 forward_v I I I I #
loop $-1 $-1 $293 $72 #
coedge $-1 $185 $185 $186 $294 reversed $114 $-1 #
coedge $-1 $186 $186 $185 $294 forward $116 $-1 #
coedge $-1 $187 $187 $117 $188 forward $182 $-1 #
edge $-1 $295 -2.913487393424246e-016 $295 6.2831853071796004 $187 $296 forward 7 unknown #
face $-1 $297 $298 $41 $-1 $299 reversed single #
loop $-1 $-1 $300 $118 #
plane-surface $-1 0 -20.48137236268985 0 0 1 0 0 0 1 forward_v I I I I #
coedge $-1 $301 $302 $303 $304 reversed $119 $-1 #
coedge $-1 $305 $121 $306 $307 reversed $76 $-1 #
coedge $-1 $121 $305 $301 $308 forward $76 $-1 #
coedge $-1 $303 $309 $121 $196 forward $310 $-1 #
edge $-1 $311 -27.200419162517832 $312 -14.427063689240228 $195 $313 forward 7 unknown #
loop $-1 $-1 $202 $122 #
plane-surface $-1 41.62748285175806 -20.481372362689854 1.2888615059565183 0 -0.6560590369687036 0.75470957328743171 1 0 0 forward_v I I I I #
loop $-1 $-1 $314 $78 #
coedge $-1 $200 $200 $201 $315 reversed $123 $-1 #
coedge $-1 $201 $201 $200 $315 forward $125 $-1 #
coedge $-1 $202 $202 $126 $203 forward $197 $-1 #
edge $-1 $316 -2.913487393424246e-016 $316 6.2831853071796004 $202 $317 forward 7 unknown #
loop $-1 $-1 $209 $127 #
plane-surface $-1 41.62748285175806 -20.481372362689854 1.2888615059565183 0 -0.6560590369687036 0.75470957328743171 1 0 0 forward_v I I I I #
loop $-1 $-1 $318 $81 #
coedge $-1 $207 $207 $208 $319 reversed $128 $-1 #
coedge $-1 $208 $208 $207 $319 forward $130 $-1 #
coedge $-1 $209 $209 $131 $210 forward $204 $-1 #
edge $-1 $320 -2.913487393424246e-016 $320 6.2831853071796004 $209 $321 forward 7 unknown #
face $-1 $322 $323 $44 $-1 $324 reversed single #
loop $-1 $-1 $325 $132 #
plane-surface $-1 21.071628724465594 47.32322789909081 101.99115727775533 -1 0 0 0 0.61566148304635926 0.78801074757464917 forward_v I I I I #
coedge $-1 $326 $327 $328 $329 reversed $133 $-1 #
coedge $-1 $216 $135 $330 $331 reversed $85 $-1 #
coedge $-1 $135 $215 $326 $332 reversed $85 $-1 #
coedge $-1 $328 $333 $135 $218 forward $334 $-1 #
edge $-1 $335 3.1802415868555549 $336 7.4088397942094382 $217 $337 forward 7 unknown #
loop $-1 $-1 $224 $136 #
plane-surface $-1 9.6879144375106847 -11.797710731066118 26.319808118891601 0 0.61566148304635926 0.78801074757464917 1 0 0 forward_v I I I I #
loop $-1 $-1 $338 $87 #
coedge $-1 $222 $222 $223 $339 reversed $137 $-1 #
coedge $-1 $223 $223 $222 $339 forward $139 $-1 #
coedge $-1 $224 $224 $140 $225 forward $219 $-1 #
edge $-1 $340 8.2022586462352626e-016 $340 6.2831853071796013 $224 $341 forward 7 unknown #
loop $-1 $-1 $231 $141 #
plane-surface $-1 9.6879144375106847 -11.797710731066118 26.319808118891601 0 0.61566148304635926 0.78801074757464917 1 0 0 forward_v I I I I #
loop $-1 $-1 $342 $90 #
coedge $-1 $229 $229 $230 $343 reversed $142 $-1 #
coedge $-1 $230 $230 $229 $343 forward $144 $-1 #
coedge $-1 $231 $231 $145 $232 forward $226 $-1 #
edge $-1 $344 8.2022586462352626e-016 $344 6.2831853071796013 $231 $345 forward 7 unknown #
loop $-1 $-1 $238 $146 #
plane-surface $-1 9.6879144375106847 -11.797710731066118 26.319808118891601 0 0.61566148304635926 0.78801074757464917 1 0 0 forward_v I I I I #
loop $-1 $-1 $346 $93 #
coedge $-1 $236 $236 $237 $347 reversed $147 $-1 #
coedge $-1 $237 $237 $236 $347 forward $149 $-1 #
coedge $-1 $238 $238 $150 $239 forward $233 $-1 #
edge $-1 $348 8.2022586462352626e-016 $348 6.2831853071796013 $238 $349 forward 7 unknown #
face $-1 $350 $351 $36 $-1 $352 reversed single #
loop $-1 $-1 $353 $151 #
plane-surface $-1 -48.014160588396862 0 0 1 0 0 0 0 -1 forward_v I I I I #
coedge $-1 $354 $251 $355 $356 forward $152 $-1 #
coedge $-1 $357 $154 $354 $358 forward $97 $-1 #
coedge $-1 $154 $357 $359 $360 forward $97 $-1 #
coedge $-1 $254 $253 $154 $247 reversed $255 $-1 #
edge $-1 $361 -20.48137236268985 $362 20.48137236268985 $246 $363 forward 7 unknown #
coedge $-1 $156 $155 $364 $365 forward $61 $-1 #
coedge $-1 $366 $367 $155 $250 reversed $351 $-1 #
edge $-1 $257 -48.014160588396862 $368 48.014160588396862 $249 $369 forward 7 unknown #
coedge $-1 $243 $370 $156 $252 reversed $152 $-1 #
edge $-1 $371 -48.014160588396862 $256 48.014160588396862 $251 $372 forward 7 unknown #
coedge $-1 $246 $157 $370 $373 forward $255 $-1 #
coedge $-1 $157 $246 $366 $374 reversed $255 $-1 #
loop $-1 $-1 $253 $350 #
vertex $-1 $158 $375 #
vertex $-1 $158 $376 #
straight-curve $-1 48.014160588396862 0 4.4043670180126799 0 1 0 I I #
face $-1 $377 $378 $37 $-1 $379 forward single #
loop $-1 $-1 $380 $159 #
plane-surface $-1 -52.718027789587609 0 2.9043670180126799 1 0 0 0 0 -1 forward_v I I I I #
coedge $-1 $381 $162 $269 $382 reversed $101 $-1 #
coedge $-1 $162 $381 $383 $384 reversed $101 $-1 #
edge $-1 $385 -4.4043670180126799 $271 -1.4043670180126799 $162 $386 forward 7 unknown #
coedge $-1 $164 $163 $387 $388 reversed $64 $-1 #
coedge $-1 $389 $390 $164 $267 forward $391 $-1 #
edge $-1 $270 1.4043670180126799 $392 4.4043670180126799 $266 $393 forward 7 unknown #
coedge $-1 $394 $165 $390 $395 forward $160 $-1 #
coedge $-1 $165 $394 $262 $382 forward $160 $-1 #
vertex $-1 $267 $396 #
vertex $-1 $264 $397 #
straight-curve $-1 -48.014160588396862 0 1.4043670180126799 0 1 0 I I #
face $-1 $-1 $285 $38 $-1 $398 forward single #
loop $-1 $-1 $399 $167 #
plane-surface $-1 0 -20.48137236268985 0 0 1 0 0 0 1 forward_v I I I I #
coedge $-1 $400 $401 $402 $403 reversed $168 $-1 #
coedge $-1 $404 $170 $172 $283 forward $105 $-1 #
coedge $-1 $170 $404 $400 $405 forward $105 $-1 #
coedge $-1 $402 $173 $170 $280 forward $285 $-1 #
edge $-1 $287 -4.3693056686170841 $406 8.4040498046605201 $279 $407 forward 7 unknown #
coedge $-1 $408 $409 $171 $282 forward $274 $-1 #
edge $-1 $410 -35.592315896444958 $286 -32.476810384388799 $281 $411 forward 7 unknown #
edge $-1 $287 -4.7488188356511927 $410 -4.72070819993692e-015 $172 $412 forward 7 unknown #
coedge $-1 $173 $402 $408 $413 forward $285 $-1 #
loop $-1 $-1 $402 $273 #
vertex $-1 $282 $414 #
vertex $-1 $174 $415 #
straight-curve $-1 2.3519336005953662 -41.740810137829257 4.4043670180126782 0 1 0 I I #
coedge $-1 $289 $289 $-1 $416 reversed $177 $-1 #
edge $-1 $417 0 $417 6.2831853071796004 $178 $418 forward 7 unknown #
vertex $-1 $181 $419 #
ellipse-curve $-1 -6.7718917374600665 -18.689382844153037 2.8466142619846 0 -0.6560590369687036 0.75470957328743171 1 0 0 1 I I #
coedge $-1 $293 $293 $-1 $420 reversed $184 $-1 #
edge $-1 $421 0 $421 6.2831853071796004 $185 $422 forward 7 unknown #
vertex $-1 $188 $423 #
ellipse-curve $-1 -1.2975965346268055 -18.689382844153037 2.8466142619846 0 -0.6560590369687036 0.75470957328743171 1 0 0 1 I I #
face $-1 $-1 $310 $41 $-1 $424 forward single #
loop $-1 $-1 $306 $189 #
plane-surface $-1 48.014160588396862 0 0 -1 0 0 0 0 1 forward_v I I I I #
coedge $-1 $425 $426 $302 $427 forward $190 $-1 #
coedge $-1 $302 $192 $194 $308 reversed $119 $-1 #
coedge $-1 $192 $301 $300 $427 reversed $119 $-1 #
coedge $-1 $428 $195 $192 $304 forward $310 $-1 #
edge $-1 $312 -24.843416812213032 $429 -21.259437775139407 $303 $430 forward 7 unknown #
coedge $-1 $194 $193 $425 $431 reversed $76 $-1 #
coedge $-1 $432 $433 $193 $307 forward $298 $-1 #
edge $-1 $434 -7.3059592789013905 $311 -2.5571404432502032 $306 $435 forward 7 unknown #
edge $-1 $436 4.72070819993692e-015 $312 4.7488188356511927 $301 $437 forward 7 unknown #
coedge $-1 $195 $428 $432 $438 forward $310 $-1 #
loop $-1 $-1 $303 $297 #
vertex $-1 $307 $439 #
vertex $-1 $196 $440 #
straight-curve $-1 20.81374142587903 -16.897393325616225 4.4043670180126799 -1 0 0 I I #
coedge $-1 $314 $314 $-1 $441 reversed $199 $-1 #
edge $-1 $442 0 $442 6.2831853071796004 $200 $443 forward 7 unknown #
vertex $-1 $203 $444 #
ellipse-curve $-1 38.890335250341423 -18.689382844153037 2.8466142619846 0 -0.6560590369687036 0.75470957328743171 1 0 0 1 I I #
coedge $-1 $318 $318 $-1 $445 reversed $206 $-1 #
edge $-1 $446 0 $446 6.2831853071796004 $207 $447 forward 7 unknown #
vertex $-1 $210 $448 #
ellipse-curve $-1 44.364630453174684 -18.689382844153037 2.8466142619846 0 -0.6560590369687036 0.75470957328743171 1 0 0 1 I I #
face $-1 $-1 $334 $44 $-1 $449 forward single #
loop $-1 $-1 $450 $211 #
plane-surface $-1 0 20.48137236268985 0 0 -1 0 0 0 -1 forward_v I I I I #
coedge $-1 $451 $452 $453 $454 reversed $212 $-1 #
coedge $-1 $455 $214 $216 $332 forward $133 $-1 #
coedge $-1 $214 $455 $451 $456 forward $133 $-1 #
coedge $-1 $453 $217 $214 $329 forward $334 $-1 #
edge $-1 $336 -6.5397570681995667 $457 16.227671505710251 $328 $458 forward 7 unknown #
coedge $-1 $459 $460 $215 $331 forward $323 $-1 #
edge $-1 $461 -49.894954687262754 $335 -46.591211620864989 $330 $462 forward 7 unknown #
edge $-1 $336 35.59657653494736 $461 40.962744725379693 $216 $463 forward 7 unknown #
coedge $-1 $217 $453 $459 $464 forward $334 $-1 #
loop $-1 $-1 $453 $322 #
vertex $-1 $331 $465 #
vertex $-1 $218 $466 #
straight-curve $-1 -1.6957998494442243 23.661613949545405 4.4043670180126782 0 -1 0 I I #
coedge $-1 $338 $338 $-1 $467 reversed $221 $-1 #
edge $-1 $468 0 $468 6.2831853071796004 $222 $469 forward 7 unknown #
vertex $-1 $225 $470 #
ellipse-curve $-1 2.8576858653377428 18.367073259012905 2.7524954848137964 0 0.61566148304635926 0.78801074757464917 1 0 0 1 I I #
coedge $-1 $342 $342 $-1 $471 reversed $228 $-1 #
edge $-1 $472 0 $472 6.2831853071796004 $229 $473 forward 7 unknown #
vertex $-1 $232 $474 #
ellipse-curve $-1 9.6879144375106918 18.367073259012905 2.7524954848137964 0 0.61566148304635926 0.78801074757464917 1 0 0 1 I I #
coedge $-1 $346 $346 $-1 $475 reversed $235 $-1 #
edge $-1 $476 0 $476 6.2831853071796004 $236 $477 forward 7 unknown #
vertex $-1 $239 $478 #
ellipse-curve $-1 16.518143009683641 18.367073259012905 2.7524954848137964 0 0.61566148304635926 0.78801074757464917 1 0 0 1 I I #
face $-1 $-1 $255 $36 $-1 $479 reversed single #
loop $-1 $-1 $366 $240 #
plane-surface $-1 0 20.48137236268985 0 0 -1 0 0 0 -1 forward_v I I I I #
coedge $-1 $480 $364 $367 $481 forward $241 $-1 #
coedge $-1 $370 $243 $244 $358 reversed $152 $-1 #
coedge $-1 $364 $480 $243 $356 reversed $241 $-1 #
edge $-1 $371 -4.4043670180126799 $482 4.4043670180126799 $355 $483 forward 7 unknown #
coedge $-1 $245 $244 $480 $484 forward $97 $-1 #
edge $-1 $362 -48.014160588396862 $482 48.014160588396862 $354 $485 forward 7 unknown #
coedge $-1 $367 $366 $245 $360 reversed $351 $-1 #
edge $-1 $486 -48.014160588396862 $361 48.014160588396862 $359 $487 forward 7 unknown #
vertex $-1 $247 $488 #
vertex $-1 $373 $489 #
straight-curve $-1 48.014160588396862 0 -4.4043670180126799 0 -1 0 I I #
coedge $-1 $353 $355 $248 $365 reversed $241 $-1 #
edge $-1 $368 -20.48137236268985 $371 20.48137236268985 $364 $490 forward 7 unknown #
coedge $-1 $359 $249 $254 $374 forward $351 $-1 #
coedge $-1 $249 $359 $353 $481 reversed $351 $-1 #
vertex $-1 $250 $491 #
straight-curve $-1 0 20.48137236268985 4.4043670180126799 -1 0 0 I I #
coedge $-1 $251 $354 $253 $373 reversed $152 $-1 #
vertex $-1 $365 $492 #
straight-curve $-1 0 -20.48137236268985 4.4043670180126799 1 0 0 I I #
edge $-1 $256 -4.4043670180126799 $362 4.4043670180126799 $253 $493 forward 7 unknown #
edge $-1 $257 -4.4043670180126799 $361 4.4043670180126799 $254 $494 forward 7 unknown #
point $-1 48.014160588396862 -20.48137236268985 4.4043670180126799 #
point $-1 48.014160588396862 20.48137236268985 4.4043670180126799 #
face $-1 $-1 $391 $37 $-1 $495 reversed single #
loop $-1 $-1 $387 $259 #
plane-surface $-1 0 0 4.4043670180126799 0 0 1 1 0 0 forward_v I I I I #
coedge $-1 $496 $497 $381 $498 forward $260 $-1 #
coedge $-1 $263 $262 $380 $498 reversed $101 $-1 #
edge $-1 $499 -2.3519336005953733 $271 2.3519336005953733 $262 $500 forward 7 unknown #
coedge $-1 $501 $387 $263 $384 forward $378 $-1 #
edge $-1 $385 48.014160588396862 $502 52.718027789587609 $263 $503 forward 7 unknown #
vertex $-1 $384 $504 #
straight-curve $-1 -48.014160588396862 20.48137236268985 0 0 0 -1 I I #
coedge $-1 $383 $505 $265 $388 forward $378 $-1 #
edge $-1 $392 -20.48137236268985 $385 20.48137236268985 $387 $506 forward 7 unknown #
coedge $-1 $507 $266 $505 $508 reversed $391 $-1 #
coedge $-1 $266 $507 $268 $395 reversed $391 $-1 #
loop $-1 $-1 $266 $377 #
vertex $-1 $267 $509 #
straight-curve $-1 -48.014160588396862 -20.48137236268985 0 0 0 1 I I #
coedge $-1 $269 $268 $496 $510 forward $160 $-1 #
edge $-1 $270 -2.3519336005953733 $511 2.3519336005953733 $390 $512 forward 7 unknown #
point $-1 -48.014160588396862 -20.48137236268985 1.4043670180126799 #
point $-1 -48.014160588396862 20.48137236268985 1.4043670180126799 #
plane-surface $-1 0 0 4.4043670180126799 0 0 1 1 0 0 forward_v I I I I #
coedge $-1 $409 $408 $401 $513 forward $274 $-1 #
coedge $-1 $401 $276 $278 $405 reversed $168 $-1 #
coedge $-1 $276 $400 $399 $513 reversed $168 $-1 #
coedge $-1 $284 $279 $276 $403 forward $285 $-1 #
edge $-1 $406 -24.843416812213032 $514 -21.259437775139407 $402 $515 forward 7 unknown #
coedge $-1 $278 $277 $409 $516 reversed $105 $-1 #
edge $-1 $517 4.72070819993692e-015 $406 4.7488188356511927 $400 $518 forward 7 unknown #
vertex $-1 $280 $519 #
straight-curve $-1 -2.017372068021718 -16.897393325616225 4.4043670180126799 -1 0 0 I I #
coedge $-1 $399 $281 $284 $413 reversed $274 $-1 #
coedge $-1 $281 $399 $404 $516 forward $274 $-1 #
vertex $-1 $282 $520 #
straight-curve $-1 2.3519336005953662 -20.48137236268985 36.881177402401477 0 0 1 I I #
straight-curve $-1 2.3519336005953662 -20.481372362689854 1.2888615059565183 0 -0.75470957328743171 -0.6560590369687036 I I #
edge $-1 $514 -10.421421872682238 $286 2.3519336005953662 $408 $521 forward 7 unknown #
point $-1 2.3519336005953662 -20.48137236268985 4.4043670180126799 #
point $-1 2.3519336005953662 -16.897393325616225 4.4043670180126799 #
edge $-1 $522 1 $522 0 $289 $-1 forward 7 unknown #
vertex $-1 $290 $523 #
ellipse-curve $-1 -6.7718917374600665 -16.300004098653872 0.097948498961572872 0 -0.6560590369687036 0.75470957328743171 1 0 0 1 I I #
point $-1 -5.7718917374600665 -18.689382844153037 2.8466142619845995 #
edge $-1 $524 1 $524 0 $293 $-1 forward 7 unknown #
vertex $-1 $294 $525 #
ellipse-curve $-1 -1.2975965346268055 -16.300004098653872 0.097948498961572872 0 -0.6560590369687036 0.75470957328743171 1 0 0 1 I I #
point $-1 -0.29759653462680546 -18.689382844153037 2.8466142619845995 #
plane-surface $-1 0 0 4.4043670180126799 0 0 1 1 0 0 forward_v I I I I #
coedge $-1 $526 $300 $305 $431 forward $190 $-1 #
coedge $-1 $300 $526 $428 $527 reversed $190 $-1 #
edge $-1 $429 32.476810384388799 $436 35.592315896444958 $300 $528 forward 7 unknown #
coedge $-1 $309 $303 $426 $527 forward $310 $-1 #
vertex $-1 $527 $529 #
straight-curve $-1 35.240805115119258 -41.740810137829257 4.4043670180126782 0 -1 0 I I #
edge $-1 $436 14.427063689240228 $434 27.200419162517832 $425 $530 forward 7 unknown #
coedge $-1 $433 $306 $309 $438 reversed $298 $-1 #
coedge $-1 $306 $432 $526 $531 forward $298 $-1 #
vertex $-1 $307 $532 #
straight-curve $-1 48.014160588396862 -14.96749495285483 6.0820021146051317 0 0.75470957328743171 0.6560590369687036 I I #
vertex $-1 $431 $533 #
straight-curve $-1 35.240805115119258 -20.481372362689854 1.2888615059565183 0 0.75470957328743171 0.6560590369687036 I I #
edge $-1 $534 -20.48137236268985 $311 -16.897393325616225 $432 $535 forward 7 unknown #
point $-1 48.014160588396862 -16.897393325616225 4.4043670180126799 #
point $-1 35.240805115119258 -16.897393325616225 4.4043670180126799 #
edge $-1 $536 1 $536 0 $314 $-1 forward 7 unknown #
vertex $-1 $315 $537 #
ellipse-curve $-1 38.890335250341423 -16.300004098653872 0.097948498961572872 0 -0.6560590369687036 0.75470957328743171 1 0 0 1 I I #
point $-1 39.890335250341423 -18.689382844153037 2.8466142619845995 #
edge $-1 $538 1 $538 0 $318 $-1 forward 7 unknown #
vertex $-1 $319 $539 #
ellipse-curve $-1 44.364630453174684 -16.300004098653872 0.097948498961572872 0 -0.6560590369687036 0.75470957328743171 1 0 0 1 I I #
point $-1 45.364630453174684 -18.689382844153037 2.8466142619845995 #
plane-surface $-1 0 0 4.4043670180126799 0 0 1 1 0 0 forward_v I I I I #
coedge $-1 $460 $459 $452 $540 forward $323 $-1 #
coedge $-1 $452 $325 $327 $456 reversed $212 $-1 #
coedge $-1 $325 $451 $450 $540 reversed $212 $-1 #
coedge $-1 $333 $328 $325 $454 forward $334 $-1 #
edge $-1 $457 -7.4088397942094382 $541 -3.1802415868555549 $453 $542 forward 7 unknown #
coedge $-1 $327 $326 $460 $543 reversed $133 $-1 #
edge $-1 $544 -40.962744725379693 $457 -35.59657653494736 $451 $545 forward 7 unknown #
vertex $-1 $329 $546 #
straight-curve $-1 4.8439572187553424 16.252774155335963 4.4043670180126764 1 0 0 I I #
coedge $-1 $450 $330 $333 $464 reversed $323 $-1 #
coedge $-1 $330 $450 $455 $543 forward $323 $-1 #
vertex $-1 $331 $547 #
straight-curve $-1 -1.6957998494442243 20.48137236268985 50.995578638877667 0 0 1 I I #
straight-curve $-1 -1.6957998494442243 -11.797710731066118 26.319808118891601 0 0.78801074757464917 -0.61566148304635926 I I #
edge $-1 $541 -21.071628724465594 $335 1.6957998494442243 $459 $548 forward 7 unknown #
point $-1 -1.6957998494442243 20.48137236268985 4.4043670180126799 #
point $-1 -1.6957998494442243 16.252774155335967 4.4043670180126782 #
edge $-1 $549 1 $549 0 $338 $-1 forward 7 unknown #
vertex $-1 $339 $550 #
ellipse-curve $-1 2.8576858653377428 16.454233116704557 0.30417180038785591 0 0.61566148304635926 0.78801074757464917 1 0 0 1 I I #
point $-1 3.8576858653377428 18.367073259012905 2.752495484813795 #
edge $-1 $551 1 $551 0 $342 $-1 forward 7 unknown #
vertex $-1 $343 $552 #
ellipse-curve $-1 9.6879144375106918 16.454233116704557 0.30417180038785591 0 0.61566148304635926 0.78801074757464917 1 0 0 1 I I #
point $-1 10.687914437510692 18.367073259012905 2.752495484813795 #
edge $-1 $553 1 $553 0 $346 $-1 forward 7 unknown #
vertex $-1 $347 $554 #
ellipse-curve $-1 16.518143009683641 16.454233116704557 0.30417180038785591 0 0.61566148304635926 0.78801074757464917 1 0 0 1 I I #
point $-1 17.518143009683641 18.367073259012905 2.752495484813795 #
plane-surface $-1 48.014160588396862 0 0 -1 0 0 0 0 1 forward_v I I I I #
coedge $-1 $355 $353 $357 $484 reversed $241 $-1 #
edge $-1 $368 -4.4043670180126799 $486 4.4043670180126799 $367 $555 forward 7 unknown #
vertex $-1 $484 $556 #
straight-curve $-1 -48.014160588396862 -20.48137236268985 0 0 0 -1 I I #
edge $-1 $482 -20.48137236268985 $486 20.48137236268985 $480 $557 forward 7 unknown #
straight-curve $-1 0 -20.48137236268985 -4.4043670180126799 -1 0 0 I I #
vertex $-1 $360 $558 #
straight-curve $-1 0 20.48137236268985 -4.4043670180126799 1 0 0 I I #
point $-1 48.014160588396862 20.48137236268985 -4.4043670180126799 #
point $-1 48.014160588396862 -20.48137236268985 -4.4043670180126799 #
straight-curve $-1 -48.014160588396862 0 4.4043670180126799 0 -1 0 I I #
point $-1 -48.014160588396862 20.48137236268985 4.4043670180126799 #
point $-1 -48.014160588396862 -20.48137236268985 4.4043670180126799 #
straight-curve $-1 48.014160588396862 -20.48137236268985 0 0 0 -1 I I #
straight-curve $-1 48.014160588396862 20.48137236268985 0 0 0 -1 I I #
plane-surface $-1 0 -20.48137236268985 0 0 1 0 0 0 1 forward_v I I I I #
coedge $-1 $559 $380 $394 $510 reversed $260 $-1 #
coedge $-1 $380 $559 $501 $560 reversed $260 $-1 #
edge $-1 $502 -1.5 $499 1.5 $381 $561 forward 7 unknown #
vertex $-1 $382 $562 #
straight-curve $-1 -50.366094188992236 20.48137236268985 1.4043670180126799 1 0 0 I I #
coedge $-1 $505 $383 $497 $560 forward $378 $-1 #
vertex $-1 $384 $563 #
straight-curve $-1 0 20.48137236268985 4.4043670180126799 -1 0 0 I I #
point $-1 -48.014160588396862 20.48137236268985 4.4043670180126799 #
coedge $-1 $387 $501 $389 $508 forward $378 $-1 #
straight-curve $-1 -48.014160588396862 0 4.4043670180126799 0 1 0 I I #
coedge $-1 $390 $389 $559 $564 forward $391 $-1 #
edge $-1 $565 -52.718027789587609 $392 -48.014160588396862 $389 $566 forward 7 unknown #
point $-1 -48.014160588396862 -20.48137236268985 4.4043670180126799 #
edge $-1 $511 -20.48137236268985 $499 20.48137236268985 $496 $567 forward 7 unknown #
vertex $-1 $510 $568 #
straight-curve $-1 -50.366094188992236 -20.48137236268985 1.4043670180126799 -1 0 0 I I #
edge $-1 $514 32.476810384388799 $517 35.592315896444958 $399 $569 forward 7 unknown #
vertex $-1 $413 $570 #
straight-curve $-1 -10.421421872682238 -41.740810137829257 4.4043670180126782 0 -1 0 I I #
edge $-1 $517 -8.4040498046605201 $410 4.3693056686170841 $409 $571 forward 7 unknown #
vertex $-1 $516 $572 #
straight-curve $-1 -10.421421872682238 -20.481372362689854 1.2888615059565183 0 0.75470957328743171 0.6560590369687036 I I #
point $-1 -10.421421872682238 -16.897393325616225 4.4043670180126799 #
point $-1 2.3519336005953662 -20.48137236268985 1.2888615059565214 #
straight-curve $-1 0 -20.48137236268985 4.4043670180126799 1 0 0 I I #
vertex $-1 $416 $573 #
point $-1 -5.7718917374600665 -16.300004098653872 0.097948498961572872 #
vertex $-1 $420 $574 #
point $-1 -0.29759653462680546 -16.300004098653872 0.097948498961572872 #
coedge $-1 $426 $425 $433 $531 reversed $190 $-1 #
edge $-1 $429 35.240805115119258 $534 48.014160588396862 $426 $575 forward 7 unknown #
straight-curve $-1 35.240805115119258 -20.48137236268985 36.881177402401477 0 0 -1 I I #
point $-1 35.240805115119258 -20.48137236268985 4.4043670180126799 #
straight-curve $-1 20.81374142587903 -20.48137236268985 1.288861505956524 1 0 0 I I #
edge $-1 $534 -4.4043670180126799 $434 -1.2888615059565214 $433 $576 forward 7 unknown #
point $-1 48.014160588396862 -20.48137236268985 1.2888615059565214 #
point $-1 35.240805115119258 -20.48137236268985 1.2888615059565214 #
vertex $-1 $438 $577 #
straight-curve $-1 48.014160588396862 0 4.4043670180126799 0 1 0 I I #
vertex $-1 $441 $578 #
point $-1 39.890335250341423 -16.300004098653872 0.097948498961572872 #
vertex $-1 $445 $579 #
point $-1 45.364630453174684 -16.300004098653872 0.097948498961572872 #
edge $-1 $541 46.591211620864989 $544 49.894954687262754 $450 $580 forward 7 unknown #
vertex $-1 $464 $581 #
straight-curve $-1 21.071628724465594 23.661613949545405 4.4043670180126782 0 1 0 I I #
edge $-1 $544 -16.227671505710251 $461 6.5397570681995667 $460 $582 forward 7 unknown #
vertex $-1 $543 $583 #
straight-curve $-1 21.071628724465594 -11.797710731066118 26.319808118891601 0 -0.78801074757464917 0.61566148304635926 I I #
point $-1 21.071628724465594 16.252774155335967 4.4043670180126782 #
point $-1 -1.6957998494442243 20.481372362689854 1.1006239516149101 #
straight-curve $-1 0 20.48137236268985 4.4043670180126799 -1 0 0 I I #
vertex $-1 $467 $584 #
point $-1 3.8576858653377428 16.454233116704557 0.30417180038785591 #
vertex $-1 $471 $585 #
point $-1 10.687914437510692 16.454233116704557 0.30417180038785591 #
vertex $-1 $475 $586 #
point $-1 17.518143009683641 16.454233116704557 0.30417180038785591 #
straight-curve $-1 -48.014160588396862 20.48137236268985 0 0 0 -1 I I #
point $-1 -48.014160588396862 -20.48137236268985 -4.4043670180126799 #
straight-curve $-1 -48.014160588396862 0 -4.4043670180126799 0 1 0 I I #
point $-1 -48.014160588396862 20.48137236268985 -4.4043670180126799 #
coedge $-1 $497 $496 $507 $564 reversed $260 $-1 #
edge $-1 $502 -20.48137236268985 $565 20.48137236268985 $497 $587 forward 7 unknown #
straight-curve $-1 -52.718027789587609 20.48137236268985 2.9043670180126799 0 0 -1 I I #
point $-1 -52.718027789587609 20.48137236268985 1.4043670180126799 #
point $-1 -52.718027789587609 20.48137236268985 4.4043670180126799 #
edge $-1 $565 -1.5 $511 1.5 $559 $588 forward 7 unknown #
vertex $-1 $560 $589 #
straight-curve $-1 0 -20.48137236268985 4.4043670180126799 1 0 0 I I #
straight-curve $-1 -52.718027789587609 0 1.4043670180126799 0 1 0 I I #
point $-1 -52.718027789587609 -20.48137236268985 1.4043670180126799 #
straight-curve $-1 -10.421421872682238 -20.48137236268985 36.881177402401477 0 0 -1 I I #
point $-1 -10.421421872682238 -20.48137236268985 4.4043670180126799 #
straight-curve $-1 -2.017372068021718 -20.48137236268985 1.288861505956524 1 0 0 I I #
point $-1 -10.421421872682238 -20.48137236268985 1.2888615059565214 #
point $-1 -6.7718917374600665 -15.643945061685168 -0.65676107432585851 #
point $-1 -1.2975965346268055 -15.643945061685168 -0.65676107432585851 #
straight-curve $-1 0 -20.48137236268985 4.4043670180126799 1 0 0 I I #
straight-curve $-1 48.014160588396862 -20.48137236268985 0 0 0 -1 I I #
point $-1 48.014160588396862 -20.48137236268985 4.4043670180126799 #
point $-1 38.890335250341423 -15.643945061685168 -0.65676107432585851 #
point $-1 44.364630453174684 -15.643945061685168 -0.65676107432585851 #
straight-curve $-1 21.071628724465594 20.48137236268985 50.995578638877667 0 0 -1 I I #
point $-1 21.071628724465594 20.48137236268985 4.4043670180126799 #
straight-curve $-1 4.8439572187553424 20.481372362689854 1.1006239516149066 -1 0 0 I I #
point $-1 21.071628724465594 20.481372362689854 1.1006239516149101 #
point $-1 2.8576858653377428 15.838571633658198 -0.4838389471867936 #
point $-1 9.6879144375106918 15.838571633658198 -0.4838389471867936 #
point $-1 16.518143009683641 15.838571633658198 -0.4838389471867936 #
straight-curve $-1 -52.718027789587609 0 4.4043670180126799 0 -1 0 I I #
straight-curve $-1 -52.718027789587609 -20.48137236268985 2.9043670180126799 0 0 -1 I I #
point $-1 -52.718027789587609 -20.48137236268985 4.4043670180126799 #
End-of-ACIS-data 