600 0 2 0           
109 GICL ACIS Healer - Source: /gicl/data5/repository/Drexel/CICIRELLO-THESISDATA/Part10002.smdg.deltas.sat - 6 0 18 ACIS 6.0.3 Solaris 24 Fri Apr 12 10:13:59 2002 
1 9.999999999999999547e-07 1.000000000000000036e-10 
body $-1 $2 $-1 $-1 #
body $-1 $3 $-1 $-1 #
lump $-1 $-1 $4 $0 #
lump $-1 $-1 $5 $1 #
shell $-1 $-1 $-1 $6 $-1 $2 #
shell $-1 $-1 $-1 $7 $-1 $3 #
face $-1 $8 $9 $4 $-1 $10 forward single #
face $-1 $11 $12 $5 $-1 $13 forward single #
face $-1 $14 $15 $4 $-1 $16 reversed single #
loop $-1 $-1 $17 $6 #
plane-surface $-1 62.55684072389904316 34.78684976342995583 27.19079549977013599 0 0 1 1 0 0 forward_v I I I I #
face $-1 $18 $19 $5 $-1 $20 reversed single #
loop $-1 $-1 $21 $7 #
plane-surface $-1 0 34.78684976342995583 13.595397749885068 1 0 0 0 0 -1 forward_v I I I I #
face $-1 $22 $23 $4 $-1 $24 reversed single #
loop $-1 $-1 $25 $8 #
plane-surface $-1 62.55684072389904316 34.78684976342995583 0 0 0 1 1 0 0 forward_v I I I I #
coedge $-1 $26 $27 $28 $29 forward $9 $-1 #
face $-1 $30 $31 $5 $-1 $32 forward single #
loop $-1 $-1 $33 $11 #
plane-surface $-1 62.55684072389904316 69.57369952685991166 13.595397749885068 0 -1 0 0 0 -1 forward_v I I I I #
coedge $-1 $34 $35 $36 $37 forward $12 $-1 #
face $-1 $38 $39 $4 $-1 $40 reversed single #
loop $-1 $-1 $41 $14 #
plane-surface $-1 62.55684072389904316 0 13.595397749885068 0 1 0 0 0 1 forward_v I I I I #
coedge $-1 $42 $43 $44 $45 forward $15 $-1 #
coedge $-1 $46 $17 $47 $48 forward $9 $-1 #
coedge $-1 $17 $46 $49 $50 forward $9 $-1 #
coedge $-1 $51 $52 $17 $29 reversed $53 $-1 #
edge $-1 $54 -34.78684976342995583 $55 34.78684976342995583 $28 $56 forward 7 unknown #
face $-1 $57 $58 $5 $-1 $59 reversed single #
loop $-1 $-1 $36 $18 #
plane-surface $-1 -4.62627731336797865 34.78684976342995583 8.114655075105833504 0 0 1 1 0 0 forward_v I I I I #
coedge $-1 $60 $61 $35 $62 forward $19 $-1 #
coedge $-1 $63 $21 $64 $65 reversed $12 $-1 #
coedge $-1 $21 $63 $33 $62 reversed $12 $-1 #
coedge $-1 $66 $67 $21 $37 reversed $31 $-1 #
edge $-1 $68 -34.78684976342995583 $69 34.78684976342995583 $36 $70 forward 7 unknown #
face $-1 $71 $72 $4 $-1 $73 reversed single #
loop $-1 $-1 $74 $22 #
plane-surface $-1 0 34.78684976342995583 13.595397749885068 1 0 0 0 0 -1 forward_v I I I I #
coedge $-1 $75 $49 $74 $76 forward $23 $-1 #
coedge $-1 $77 $25 $75 $78 forward $15 $-1 #
coedge $-1 $25 $77 $79 $80 forward $15 $-1 #
coedge $-1 $52 $51 $25 $45 reversed $53 $-1 #
edge $-1 $81 -34.78684976342995583 $82 34.78684976342995583 $44 $83 forward 7 unknown #
coedge $-1 $27 $26 $84 $85 forward $9 $-1 #
coedge $-1 $86 $87 $26 $48 reversed $72 $-1 #
edge $-1 $55 -62.55684072389904316 $88 62.55684072389904316 $47 $89 forward 7 unknown #
coedge $-1 $41 $90 $27 $50 reversed $23 $-1 #
edge $-1 $91 -62.55684072389904316 $54 62.55684072389904316 $49 $92 forward 7 unknown #
coedge $-1 $44 $28 $90 $93 forward $53 $-1 #
coedge $-1 $28 $44 $86 $94 reversed $53 $-1 #
loop $-1 $-1 $51 $71 #
vertex $-1 $29 $95 #
vertex $-1 $29 $96 #
straight-curve $-1 125.1136814477980863 34.78684976342995583 27.19079549977013599 0 1 0 I I #
face $-1 $97 $98 $5 $-1 $99 reversed single #
loop $-1 $-1 $100 $30 #
plane-surface $-1 -4.62627731336797865 34.78684976342995583 2.898473507308811037 0 0 1 1 0 0 forward_v I I I I #
coedge $-1 $101 $33 $102 $103 reversed $19 $-1 #
coedge $-1 $33 $101 $66 $104 reversed $19 $-1 #
edge $-1 $68 5.480742674779234491 $105 10.69692424257625696 $33 $106 forward 7 unknown #
coedge $-1 $35 $34 $100 $107 forward $12 $-1 #
coedge $-1 $108 $109 $34 $65 forward $110 $-1 #
edge $-1 $111 -10.69692424257625696 $69 -5.480742674779234491 $64 $112 forward 7 unknown #
coedge $-1 $113 $36 $61 $104 forward $31 $-1 #
coedge $-1 $36 $113 $108 $114 forward $31 $-1 #
vertex $-1 $62 $115 #
vertex $-1 $114 $116 #
straight-curve $-1 0 34.78684976342995583 8.114655075105833504 0 -1 0 I I #
face $-1 $-1 $53 $4 $-1 $117 reversed single #
loop $-1 $-1 $86 $38 #
plane-surface $-1 62.55684072389904316 69.57369952685991166 13.595397749885068 0 -1 0 0 0 -1 forward_v I I I I #
coedge $-1 $84 $118 $41 $76 reversed $39 $-1 #
coedge $-1 $90 $41 $42 $78 reversed $23 $-1 #
edge $-1 $91 -13.595397749885068 $119 13.595397749885068 $74 $120 forward 7 unknown #
coedge $-1 $43 $42 $118 $121 forward $15 $-1 #
edge $-1 $82 -62.55684072389904316 $119 62.55684072389904316 $75 $122 forward 7 unknown #
coedge $-1 $87 $86 $43 $80 reversed $72 $-1 #
edge $-1 $123 -62.55684072389904316 $81 62.55684072389904316 $79 $124 forward 7 unknown #
vertex $-1 $45 $125 #
vertex $-1 $93 $126 #
straight-curve $-1 125.1136814477980863 34.78684976342995583 0 0 -1 0 I I #
coedge $-1 $127 $74 $46 $85 reversed $39 $-1 #
edge $-1 $88 -34.78684976342995583 $91 34.78684976342995583 $84 $128 forward 7 unknown #
coedge $-1 $79 $47 $52 $94 forward $72 $-1 #
coedge $-1 $47 $79 $127 $129 reversed $72 $-1 #
vertex $-1 $48 $130 #
straight-curve $-1 62.55684072389904316 69.57369952685991166 27.19079549977013599 -1 0 0 I I #
coedge $-1 $49 $75 $51 $93 reversed $23 $-1 #
vertex $-1 $85 $131 #
straight-curve $-1 62.55684072389904316 0 27.19079549977013599 1 0 0 I I #
edge $-1 $54 -13.595397749885068 $82 13.595397749885068 $51 $132 forward 7 unknown #
edge $-1 $55 -13.595397749885068 $81 13.595397749885068 $52 $133 forward 7 unknown #
point $-1 125.1136814477980863 0 27.19079549977013599 #
point $-1 125.1136814477980863 69.57369952685991166 27.19079549977013599 #
face $-1 $-1 $110 $5 $-1 $134 reversed single #
loop $-1 $-1 $135 $57 #
plane-surface $-1 -9.252554626735957299 34.78684976342995583 5.50656429120732227 1 0 0 0 0 -1 forward_v I I I I #
coedge $-1 $136 $102 $63 $107 reversed $58 $-1 #
coedge $-1 $61 $60 $135 $137 reversed $19 $-1 #
coedge $-1 $100 $138 $60 $103 forward $58 $-1 #
edge $-1 $139 -4.62627731336797865 $105 4.62627731336797865 $60 $140 forward 7 unknown #
edge $-1 $68 -4.62627731336797865 $141 4.62627731336797865 $61 $142 forward 7 unknown #
vertex $-1 $62 $143 #
straight-curve $-1 0 69.57369952685991166 13.595397749885068 0 0 -1 I I #
edge $-1 $111 -34.78684976342995583 $105 34.78684976342995583 $100 $144 forward 7 unknown #
coedge $-1 $145 $64 $67 $114 reversed $110 $-1 #
coedge $-1 $64 $145 $136 $146 reversed $110 $-1 #
loop $-1 $-1 $64 $97 #
vertex $-1 $65 $147 #
straight-curve $-1 0 0 13.595397749885068 0 0 1 I I #
coedge $-1 $67 $66 $148 $149 forward $31 $-1 #
edge $-1 $150 -4.62627731336797865 $69 4.62627731336797865 $108 $151 forward 7 unknown #
point $-1 0 69.57369952685991166 8.114655075105833504 #
point $-1 0 0 8.114655075105833504 #
plane-surface $-1 125.1136814477980863 34.78684976342995583 13.595397749885068 -1 0 0 0 0 1 forward_v I I I I #
coedge $-1 $74 $127 $77 $121 reversed $39 $-1 #
vertex $-1 $121 $152 #
straight-curve $-1 0 0 13.595397749885068 0 0 -1 I I #
edge $-1 $119 -34.78684976342995583 $123 34.78684976342995583 $118 $153 forward 7 unknown #
straight-curve $-1 62.55684072389904316 0 0 -1 0 0 I I #
vertex $-1 $80 $154 #
straight-curve $-1 62.55684072389904316 69.57369952685991166 0 1 0 0 I I #
point $-1 125.1136814477980863 69.57369952685991166 0 #
point $-1 125.1136814477980863 0 0 #
coedge $-1 $118 $84 $87 $129 forward $39 $-1 #
straight-curve $-1 0 34.78684976342995583 27.19079549977013599 0 -1 0 I I #
edge $-1 $88 -13.595397749885068 $123 13.595397749885068 $87 $155 forward 7 unknown #
point $-1 0 69.57369952685991166 27.19079549977013599 #
point $-1 0 0 27.19079549977013599 #
straight-curve $-1 125.1136814477980863 0 13.595397749885068 0 0 -1 I I #
straight-curve $-1 125.1136814477980863 69.57369952685991166 13.595397749885068 0 0 -1 I I #
plane-surface $-1 62.55684072389904316 0 13.595397749885068 0 1 0 0 0 1 forward_v I I I I #
coedge $-1 $156 $148 $101 $137 forward $98 $-1 #
coedge $-1 $138 $100 $109 $146 forward $58 $-1 #
edge $-1 $141 -2.608090783898511233 $139 2.608090783898511233 $101 $157 forward 7 unknown #
coedge $-1 $102 $136 $156 $158 forward $58 $-1 #
vertex $-1 $103 $159 #
straight-curve $-1 -4.62627731336797865 69.57369952685991166 2.898473507308811037 1 0 0 I I #
vertex $-1 $104 $160 #
straight-curve $-1 -4.62627731336797865 69.57369952685991166 8.114655075105833504 -1 0 0 I I #
point $-1 0 69.57369952685991166 2.898473507308811037 #
straight-curve $-1 0 34.78684976342995583 2.898473507308811037 0 1 0 I I #
coedge $-1 $109 $108 $161 $162 forward $110 $-1 #
edge $-1 $111 -4.62627731336797865 $163 4.62627731336797865 $109 $164 forward 7 unknown #
point $-1 0 0 2.898473507308811037 #
coedge $-1 $135 $161 $113 $149 reversed $98 $-1 #
edge $-1 $141 -34.78684976342995583 $150 34.78684976342995583 $148 $165 forward 7 unknown #
vertex $-1 $149 $166 #
straight-curve $-1 -4.62627731336797865 0 8.114655075105833504 1 0 0 I I #
point $-1 0 0 0 #
straight-curve $-1 0 34.78684976342995583 0 0 1 0 I I #
point $-1 0 69.57369952685991166 0 #
straight-curve $-1 0 69.57369952685991166 13.595397749885068 0 0 -1 I I #
coedge $-1 $161 $135 $138 $158 reversed $98 $-1 #
straight-curve $-1 -9.252554626735957299 69.57369952685991166 5.50656429120732227 0 0 -1 I I #
edge $-1 $163 -34.78684976342995583 $139 34.78684976342995583 $156 $167 forward 7 unknown #
point $-1 -9.252554626735957299 69.57369952685991166 2.898473507308811037 #
point $-1 -9.252554626735957299 69.57369952685991166 8.114655075105833504 #
coedge $-1 $148 $156 $145 $162 reversed $98 $-1 #
edge $-1 $150 -2.608090783898511233 $163 2.608090783898511233 $161 $168 forward 7 unknown #
vertex $-1 $158 $169 #
straight-curve $-1 -4.62627731336797865 0 2.898473507308811037 -1 0 0 I I #
straight-curve $-1 -9.252554626735957299 34.78684976342995583 8.114655075105833504 0 -1 0 I I #
point $-1 -9.252554626735957299 0 8.114655075105833504 #
straight-curve $-1 -9.252554626735957299 34.78684976342995583 2.898473507308811037 0 1 0 I I #
straight-curve $-1 -9.252554626735957299 0 5.50656429120732227 0 0 -1 I I #
point $-1 -9.252554626735957299 0 2.898473507308811037 #
End-of-ACIS-data 