500 0 8 0           
7 Unknown 11 ACIS 5.0 NT 24 Fri Mar 26 18:40:24 1999 
-1 9.9999999999999995e-007 1e-010 
body $-1 $8 $-1 $9 #
body $-1 $10 $-1 $11 #
body $-1 $12 $-1 $13 #
body $-1 $14 $-1 $15 #
body $-1 $16 $-1 $17 #
body $-1 $18 $-1 $19 #
body $-1 $20 $-1 $21 #
body $-1 $22 $-1 $23 #
lump $-1 $-1 $24 $0 #
transform $-1 1 0 0 0 1 0 0 0 1 52.690816980498667 25.094831740295607 11.625400796075052 1 rotate no_reflect no_shear #
lump $-1 $-1 $25 $1 #
transform $-1 1 0 0 0 1 0 0 0 1 52.690816980498667 25.094831740295607 11.625400796075052 1 rotate no_reflect no_shear #
lump $-1 $-1 $26 $2 #
transform $-1 1 0 0 0 1 0 0 0 1 52.690816980498667 25.094831740295607 11.625400796075052 1 rotate no_reflect no_shear #
lump $-1 $-1 $27 $3 #
transform $-1 1 0 0 0 1 0 0 0 1 52.690816980498667 25.094831740295607 11.625400796075052 1 rotate no_reflect no_shear #
lump $-1 $-1 $28 $4 #
transform $-1 1 0 0 0 1 0 0 0 1 52.690816980498667 25.094831740295607 11.625400796075052 1 rotate no_reflect no_shear #
lump $-1 $-1 $29 $5 #
transform $-1 1 0 0 0 1 0 0 0 1 52.690816980498667 25.094831740295607 11.625400796075052 1 rotate no_reflect no_shear #
lump $-1 $-1 $30 $6 #
transform $-1 1 0 0 0 1 0 0 0 1 52.690816980498667 25.094831740295607 11.625400796075052 1 rotate no_reflect no_shear #
lump $-1 $-1 $31 $7 #
transform $-1 1 0 0 0 1 0 0 0 1 52.690816980498667 25.094831740295607 11.625400796075052 1 rotate no_reflect no_shear #
shell $-1 $-1 $-1 $32 $-1 $8 #
shell $-1 $-1 $-1 $33 $-1 $10 #
shell $-1 $-1 $-1 $34 $-1 $12 #
shell $-1 $-1 $-1 $35 $-1 $14 #
shell $-1 $-1 $-1 $36 $-1 $16 #
shell $-1 $-1 $-1 $37 $-1 $18 #
shell $-1 $-1 $-1 $38 $-1 $20 #
shell $-1 $-1 $-1 $39 $-1 $22 #
face $-1 $40 $41 $24 $-1 $42 forward single #
face $-1 $43 $44 $25 $-1 $45 reversed single #
face $-1 $46 $47 $26 $-1 $48 reversed single #
face $-1 $49 $50 $27 $-1 $51 forward single #
face $-1 $52 $53 $28 $-1 $54 forward single #
face $-1 $55 $56 $29 $-1 $57 reversed single #
face $-1 $58 $59 $30 $-1 $60 forward single #
face $-1 $61 $62 $31 $-1 $63 forward single #
face $-1 $64 $65 $24 $-1 $66 reversed single #
loop $-1 $-1 $67 $32 #
plane-surface $-1 0 0 11.625400796075052 0 0 1 1 0 0 forward_v I I I I #
face $-1 $68 $69 $25 $-1 $70 reversed single #
loop $-1 $-1 $71 $33 #
plane-surface $-1 -33.945634299743425 -21.244048555372977 0 1 0 0 0 0 -1 forward_v I I I I #
face $-1 $72 $73 $26 $-1 $74 reversed single #
loop $-1 $-1 $75 $34 #
plane-surface $-1 -110.08576916131167 -5.252900404723535 91.224984983031192 0 1 0 -0.54463904215088732 0 0.83867056331134215 forward_v I I I I #
face $-1 $76 $77 $27 $-1 $78 forward single #
loop $-1 $79 $80 $35 #
cone-surface $-1 -45.123604359298881 -2.6518479505389152 5.9930235308516044 0.54463904215088732 0 -0.83867056331134215 0.83867056331134215 0 0.54463904215088732 1 I I 0 1 1 forward I I I I #
face $-1 $81 $82 $28 $-1 $83 forward single #
loop $-1 $84 $85 $36 #
cone-surface $-1 -45.123604359298881 1.2497307307380119 5.9930235308516044 0.54463904215088732 0 -0.83867056331134215 0.83867056331134215 0 0.54463904215088732 1 I I 0 1 1 forward I I I I #
face $-1 $86 $87 $29 $-1 $88 reversed single #
loop $-1 $-1 $89 $37 #
plane-surface $-1 -110.08576916131167 15.991148150649442 91.224984983031192 0 1 0 -0.54463904215088732 0 0.83867056331134215 forward_v I I I I #
face $-1 $90 $91 $30 $-1 $92 forward single #
loop $-1 $93 $94 $38 #
cone-surface $-1 -45.123604359298881 18.592200604834058 5.9930235308516044 0.54463904215088732 0 -0.83867056331134215 0.83867056331134215 0 0.54463904215088732 1 I I 0 1 1 forward I I I I #
face $-1 $95 $96 $31 $-1 $97 forward single #
loop $-1 $98 $99 $39 #
cone-surface $-1 -45.123604359298881 22.493779286110989 5.9930235308516044 0.54463904215088732 0 -0.83867056331134215 0.83867056331134215 0 0.54463904215088732 1 I I 0 1 1 forward I I I I #
face $-1 $100 $101 $24 $-1 $102 reversed single #
loop $-1 $-1 $103 $40 #
plane-surface $-1 0 0 -11.625400796075052 0 0 1 1 0 0 forward_v I I I I #
coedge $-1 $104 $105 $106 $107 forward $41 $-1 #
face $-1 $108 $109 $25 $-1 $110 reversed single #
loop $-1 $-1 $111 $43 #
plane-surface $-1 -31.692824844045994 -17.393265370450347 0 0 -1 0 0 0 -1 forward_v I I I I #
coedge $-1 $112 $113 $114 $115 forward $44 $-1 #
face $-1 $116 $117 $26 $-1 $118 reversed single #
loop $-1 $-1 $119 $46 #
plane-surface $-1 -52.690816980498667 -0.70105860990045343 2.844510666291896 -0.54463904215088732 0 0.83867056331134215 0.83867056331134215 0 0.54463904215088732 forward_v I I I I #
coedge $-1 $120 $121 $122 $123 reversed $47 $-1 #
face $-1 $-1 $124 $27 $-1 $125 forward single #
loop $-1 $126 $127 $49 #
cone-surface $-1 -44.044764622067959 -2.6518479505389152 4.3317560488640563 0.54463904215088732 0 -0.83867056331134215 0.41933528165567108 0 0.27231952107544366 1 I I -0.70710678118654746 0.70710678118654746 0.5 forward I I I I #
loop $-1 $-1 $128 $35 #
coedge $-1 $80 $80 $129 $130 reversed $50 $-1 #
face $-1 $-1 $131 $28 $-1 $132 forward single #
loop $-1 $133 $134 $52 #
cone-surface $-1 -44.044764622067959 1.2497307307380119 4.3317560488640563 0.54463904215088732 0 -0.83867056331134215 0.41933528165567108 0 0.27231952107544366 1 I I -0.70710678118654746 0.70710678118654746 0.5 forward I I I I #
loop $-1 $-1 $135 $36 #
coedge $-1 $85 $85 $136 $137 reversed $53 $-1 #
face $-1 $138 $139 $29 $-1 $140 forward single #
loop $-1 $-1 $141 $55 #
plane-surface $-1 -52.690816980498667 20.542989945472524 2.844510666291896 -0.54463904215088732 0 0.83867056331134215 0.83867056331134215 0 0.54463904215088732 forward_v I I I I #
coedge $-1 $142 $143 $144 $145 reversed $56 $-1 #
face $-1 $-1 $146 $30 $-1 $147 forward single #
loop $-1 $148 $149 $58 #
cone-surface $-1 -44.044764622067959 18.592200604834058 4.3317560488640563 0.54463904215088732 0 -0.83867056331134215 0.41933528165567108 0 0.27231952107544366 1 I I -0.70710678118654746 0.70710678118654746 0.5 forward I I I I #
loop $-1 $-1 $150 $38 #
coedge $-1 $94 $94 $151 $152 reversed $59 $-1 #
face $-1 $-1 $153 $31 $-1 $154 forward single #
loop $-1 $155 $156 $61 #
cone-surface $-1 -44.044764622067959 22.493779286110989 4.3317560488640563 0.54463904215088732 0 -0.83867056331134215 0.41933528165567108 0 0.27231952107544366 1 I I -0.70710678118654746 0.70710678118654746 0.5 forward I I I I #
loop $-1 $-1 $157 $39 #
coedge $-1 $99 $99 $158 $159 reversed $62 $-1 #
face $-1 $160 $161 $24 $-1 $162 reversed single #
loop $-1 $-1 $163 $64 #
plane-surface $-1 0 -25.094831740295607 0 0 1 0 0 0 1 forward_v I I I I #
coedge $-1 $164 $165 $166 $167 forward $65 $-1 #
coedge $-1 $168 $67 $169 $170 forward $41 $-1 #
coedge $-1 $67 $168 $171 $172 forward $41 $-1 #
coedge $-1 $173 $174 $67 $107 reversed $175 $-1 #
edge $-1 $176 -25.094831740295607 $177 25.094831740295607 $106 $178 forward 7 unknown #
face $-1 $179 $180 $25 $-1 $181 forward single #
loop $-1 $-1 $182 $68 #
plane-surface $-1 -29.440015388348563 -21.244048555372977 0 -1 0 0 0 0 1 forward_v I I I I #
coedge $-1 $183 $184 $185 $186 forward $69 $-1 #
coedge $-1 $187 $71 $188 $189 reversed $44 $-1 #
coedge $-1 $71 $187 $190 $191 reversed $44 $-1 #
coedge $-1 $184 $183 $71 $115 reversed $69 $-1 #
edge $-1 $192 -11.625400796075052 $193 11.625400796075052 $114 $194 forward 7 unknown #
face $-1 $195 $196 $26 $-1 $197 reversed single #
loop $-1 $-1 $198 $72 #
plane-surface $-1 -110.08576916131167 3.8507831849226282 91.224984983031192 0 -1 0 0.54463904215088732 0 -0.83867056331134215 forward_v I I I I #
coedge $-1 $199 $200 $201 $202 reversed $73 $-1 #
coedge $-1 $121 $75 $203 $204 reversed $47 $-1 #
coedge $-1 $75 $120 $199 $205 reversed $47 $-1 #
coedge $-1 $201 $206 $75 $123 forward $207 $-1 #
edge $-1 $208 2.3520676001571701 $209 15.873452410245832 $122 $210 forward 7 unknown #
loop $-1 $-1 $129 $76 #
plane-surface $-1 -52.690816980498667 -0.70105860990045343 2.844510666291896 -0.54463904215088732 0 0.83867056331134215 0.83867056331134215 0 0.54463904215088732 forward_v I I I I #
loop $-1 $-1 $211 $49 #
coedge $-1 $127 $127 $128 $212 reversed $77 $-1 #
coedge $-1 $128 $128 $127 $212 forward $79 $-1 #
coedge $-1 $129 $129 $80 $130 forward $124 $-1 #
edge $-1 $213 0 $213 6.2831853071796004 $129 $214 forward 7 unknown #
loop $-1 $-1 $136 $81 #
plane-surface $-1 -52.690816980498667 -0.70105860990045343 2.844510666291896 -0.54463904215088732 0 0.83867056331134215 0.83867056331134215 0 0.54463904215088732 forward_v I I I I #
loop $-1 $-1 $215 $52 #
coedge $-1 $134 $134 $135 $216 reversed $82 $-1 #
coedge $-1 $135 $135 $134 $216 forward $84 $-1 #
coedge $-1 $136 $136 $85 $137 forward $131 $-1 #
edge $-1 $217 0 $217 6.2831853071796004 $136 $218 forward 7 unknown #
face $-1 $219 $220 $29 $-1 $221 reversed single #
loop $-1 $-1 $144 $86 #
plane-surface $-1 0 0 11.625400796075052 0 0 1 1 0 0 forward_v I I I I #
coedge $-1 $222 $223 $224 $225 reversed $87 $-1 #
coedge $-1 $143 $89 $226 $227 reversed $56 $-1 #
coedge $-1 $89 $142 $222 $228 reversed $56 $-1 #
coedge $-1 $224 $229 $89 $145 forward $139 $-1 #
edge $-1 $230 2.3520676001571701 $231 15.873452410245832 $144 $232 forward 7 unknown #
loop $-1 $-1 $151 $90 #
plane-surface $-1 -52.690816980498667 20.542989945472524 2.844510666291896 -0.54463904215088732 0 0.83867056331134215 0.83867056331134215 0 0.54463904215088732 forward_v I I I I #
loop $-1 $-1 $233 $58 #
coedge $-1 $149 $149 $150 $234 reversed $91 $-1 #
coedge $-1 $150 $150 $149 $234 forward $93 $-1 #
coedge $-1 $151 $151 $94 $152 forward $146 $-1 #
edge $-1 $235 0 $235 6.2831853071796004 $151 $236 forward 7 unknown #
loop $-1 $-1 $158 $95 #
plane-surface $-1 -52.690816980498667 20.542989945472524 2.844510666291896 -0.54463904215088732 0 0.83867056331134215 0.83867056331134215 0 0.54463904215088732 forward_v I I I I #
loop $-1 $-1 $237 $61 #
coedge $-1 $156 $156 $157 $238 reversed $96 $-1 #
coedge $-1 $157 $157 $156 $238 forward $98 $-1 #
coedge $-1 $158 $158 $99 $159 forward $153 $-1 #
edge $-1 $239 0 $239 6.2831853071796004 $158 $240 forward 7 unknown #
face $-1 $241 $242 $24 $-1 $243 reversed single #
loop $-1 $-1 $244 $100 #
plane-surface $-1 -52.690816980498667 0 0 1 0 0 0 0 -1 forward_v I I I I #
coedge $-1 $245 $171 $246 $247 forward $101 $-1 #
coedge $-1 $248 $103 $245 $249 forward $65 $-1 #
coedge $-1 $103 $248 $250 $251 forward $65 $-1 #
coedge $-1 $174 $173 $103 $167 reversed $175 $-1 #
edge $-1 $252 -25.094831740295607 $253 25.094831740295607 $166 $254 forward 7 unknown #
coedge $-1 $105 $104 $255 $256 forward $41 $-1 #
coedge $-1 $257 $258 $104 $170 reversed $242 $-1 #
edge $-1 $177 -52.690816980498667 $259 52.690816980498667 $169 $260 forward 7 unknown #
coedge $-1 $163 $261 $105 $172 reversed $101 $-1 #
edge $-1 $262 -52.690816980498667 $176 52.690816980498667 $171 $263 forward 7 unknown #
coedge $-1 $166 $106 $261 $264 forward $175 $-1 #
coedge $-1 $106 $166 $257 $265 reversed $175 $-1 #
loop $-1 $-1 $173 $241 #
vertex $-1 $107 $266 #
vertex $-1 $107 $267 #
straight-curve $-1 52.690816980498667 0 11.625400796075052 0 1 0 I I #
face $-1 $268 $269 $25 $-1 $270 reversed single #
loop $-1 $-1 $271 $108 #
plane-surface $-1 0 0 11.625400796075052 0 0 1 1 0 0 forward_v I I I I #
coedge $-1 $272 $273 $274 $275 reversed $109 $-1 #
coedge $-1 $114 $111 $276 $277 reversed $69 $-1 #
coedge $-1 $111 $114 $278 $279 reversed $69 $-1 #
coedge $-1 $273 $272 $111 $186 reversed $109 $-1 #
edge $-1 $280 -11.625400796075052 $281 11.625400796075052 $185 $282 forward 7 unknown #
coedge $-1 $113 $112 $283 $284 reversed $44 $-1 #
coedge $-1 $276 $285 $112 $189 forward $269 $-1 #
edge $-1 $286 -14.472807462609119 $193 -6.7712410927638587 $188 $287 forward 7 unknown #
coedge $-1 $288 $278 $113 $191 forward $180 $-1 #
edge $-1 $192 6.7712410927638587 $289 14.472807462609119 $190 $290 forward 7 unknown #
vertex $-1 $191 $291 #
vertex $-1 $189 $292 #
straight-curve $-1 -33.945634299743425 -17.393265370450347 0 0 0 -1 I I #
face $-1 $-1 $207 $26 $-1 $293 forward single #
loop $-1 $-1 $294 $116 #
plane-surface $-1 -52.690816980498667 0 0 1 0 0 0 0 -1 forward_v I I I I #
coedge $-1 $295 $296 $297 $298 reversed $117 $-1 #
coedge $-1 $299 $119 $121 $205 forward $73 $-1 #
coedge $-1 $119 $299 $295 $300 forward $73 $-1 #
coedge $-1 $297 $122 $119 $202 forward $207 $-1 #
edge $-1 $209 -4.9023710997733083 $301 4.2013124898728549 $201 $302 forward 7 unknown #
coedge $-1 $303 $304 $120 $204 forward $196 $-1 #
edge $-1 $305 -42.7679818252237 $208 -33.98709169544054 $203 $306 forward 7 unknown #
edge $-1 $209 -16.122403004943763 $305 0 $121 $307 forward 7 unknown #
coedge $-1 $122 $297 $303 $308 forward $207 $-1 #
loop $-1 $-1 $297 $195 #
vertex $-1 $204 $309 #
vertex $-1 $123 $310 #
straight-curve $-1 -55.042884580655837 -5.252900404723535 11.625400796075049 1 0 0 I I #
coedge $-1 $211 $211 $-1 $311 reversed $126 $-1 #
edge $-1 $312 0 $312 6.2831853071796004 $127 $313 forward 7 unknown #
vertex $-1 $130 $314 #
ellipse-curve $-1 -45.93012457545435 -2.6518479505389152 7.2349557311834687 -0.54463904215088732 0 0.83867056331134215 0.83867056331134215 0 0.54463904215088732 1 I I #
coedge $-1 $215 $215 $-1 $315 reversed $133 $-1 #
edge $-1 $316 0 $316 6.2831853071796004 $134 $317 forward 7 unknown #
vertex $-1 $137 $318 #
ellipse-curve $-1 -45.93012457545435 1.2497307307380119 7.2349557311834687 -0.54463904215088732 0 0.83867056331134215 0.83867056331134215 0 0.54463904215088732 1 I I #
face $-1 $-1 $319 $29 $-1 $320 reversed single #
loop $-1 $-1 $321 $138 #
plane-surface $-1 0 25.094831740295607 0 0 -1 0 0 0 -1 forward_v I I I I #
coedge $-1 $322 $141 $143 $228 forward $87 $-1 #
coedge $-1 $141 $322 $321 $323 reversed $87 $-1 #
coedge $-1 $324 $144 $141 $225 forward $139 $-1 #
edge $-1 $231 5.7196531779131803 $325 14.823336767559342 $224 $326 forward 7 unknown #
coedge $-1 $327 $328 $142 $227 forward $319 $-1 #
edge $-1 $329 -42.7679818252237 $230 -33.98709169544054 $226 $330 forward 7 unknown #
edge $-1 $231 -16.122403004943763 $329 0 $143 $331 forward 7 unknown #
coedge $-1 $144 $324 $327 $332 forward $139 $-1 #
vertex $-1 $227 $333 #
vertex $-1 $145 $334 #
straight-curve $-1 -55.042884580655837 15.991148150649442 11.625400796075049 1 0 0 I I #
coedge $-1 $233 $233 $-1 $335 reversed $148 $-1 #
edge $-1 $336 0 $336 6.2831853071796004 $149 $337 forward 7 unknown #
vertex $-1 $152 $338 #
ellipse-curve $-1 -45.93012457545435 18.592200604834058 7.2349557311834687 -0.54463904215088732 0 0.83867056331134215 0.83867056331134215 0 0.54463904215088732 1 I I #
coedge $-1 $237 $237 $-1 $339 reversed $155 $-1 #
edge $-1 $340 0 $340 6.2831853071796004 $156 $341 forward 7 unknown #
vertex $-1 $159 $342 #
ellipse-curve $-1 -45.93012457545435 22.493779286110989 7.2349557311834687 -0.54463904215088732 0 0.83867056331134215 0.83867056331134215 0 0.54463904215088732 1 I I #
face $-1 $-1 $175 $24 $-1 $343 reversed single #
loop $-1 $-1 $257 $160 #
plane-surface $-1 0 25.094831740295607 0 0 -1 0 0 0 -1 forward_v I I I I #
coedge $-1 $344 $255 $258 $345 forward $161 $-1 #
coedge $-1 $261 $163 $164 $249 reversed $101 $-1 #
coedge $-1 $255 $344 $163 $247 reversed $161 $-1 #
edge $-1 $262 -11.625400796075052 $346 11.625400796075052 $246 $347 forward 7 unknown #
coedge $-1 $165 $164 $344 $348 forward $65 $-1 #
edge $-1 $253 -52.690816980498667 $346 52.690816980498667 $245 $349 forward 7 unknown #
coedge $-1 $258 $257 $165 $251 reversed $242 $-1 #
edge $-1 $350 -52.690816980498667 $252 52.690816980498667 $250 $351 forward 7 unknown #
vertex $-1 $167 $352 #
vertex $-1 $264 $353 #
straight-curve $-1 52.690816980498667 0 -11.625400796075052 0 -1 0 I I #
coedge $-1 $244 $246 $168 $256 reversed $161 $-1 #
edge $-1 $259 -25.094831740295607 $262 25.094831740295607 $255 $354 forward 7 unknown #
coedge $-1 $250 $169 $174 $265 forward $242 $-1 #
coedge $-1 $169 $250 $244 $345 reversed $242 $-1 #
vertex $-1 $170 $355 #
straight-curve $-1 0 25.094831740295607 11.625400796075052 -1 0 0 I I #
coedge $-1 $171 $245 $173 $264 reversed $101 $-1 #
vertex $-1 $256 $356 #
straight-curve $-1 0 -25.094831740295607 11.625400796075052 1 0 0 I I #
edge $-1 $176 -11.625400796075052 $253 11.625400796075052 $173 $357 forward 7 unknown #
edge $-1 $177 -11.625400796075052 $252 11.625400796075052 $174 $358 forward 7 unknown #
point $-1 52.690816980498667 -25.094831740295607 11.625400796075052 #
point $-1 52.690816980498667 25.094831740295607 11.625400796075052 #
face $-1 $-1 $359 $25 $-1 $360 reversed single #
loop $-1 $-1 $361 $179 #
plane-surface $-1 0 0 -11.625400796075052 0 0 1 1 0 0 forward_v I I I I #
coedge $-1 $278 $288 $273 $362 forward $180 $-1 #
coedge $-1 $185 $182 $361 $363 reversed $109 $-1 #
coedge $-1 $182 $185 $271 $362 reversed $109 $-1 #
coedge $-1 $364 $365 $182 $275 forward $359 $-1 #
edge $-1 $366 -11.625400796075052 $367 11.625400796075052 $274 $368 forward 7 unknown #
coedge $-1 $361 $188 $183 $277 forward $269 $-1 #
edge $-1 $193 -18.099221877720428 $281 -13.593602966325566 $276 $369 forward 7 unknown #
coedge $-1 $190 $271 $184 $279 forward $180 $-1 #
edge $-1 $280 13.593602966325566 $192 18.099221877720428 $278 $370 forward 7 unknown #
vertex $-1 $279 $371 #
vertex $-1 $277 $372 #
straight-curve $-1 -29.440015388348563 -17.393265370450347 0 0 0 -1 I I #
coedge $-1 $365 $364 $187 $284 forward $359 $-1 #
edge $-1 $289 -11.625400796075052 $286 11.625400796075052 $283 $373 forward 7 unknown #
coedge $-1 $188 $361 $365 $374 forward $269 $-1 #
vertex $-1 $189 $375 #
straight-curve $-1 -33.945634299743425 -10.622024277686489 -11.625400796075052 0 1 0 I I #
coedge $-1 $271 $190 $364 $376 forward $180 $-1 #
vertex $-1 $376 $377 #
straight-curve $-1 -33.945634299743425 -10.622024277686489 11.625400796075052 0 -1 0 I I #
point $-1 -33.945634299743425 -17.393265370450347 11.625400796075052 #
point $-1 -33.945634299743425 -17.393265370450347 -11.625400796075052 #
plane-surface $-1 0 0 11.625400796075052 0 0 1 1 0 0 forward_v I I I I #
coedge $-1 $304 $303 $296 $378 forward $196 $-1 #
coedge $-1 $296 $198 $200 $300 reversed $117 $-1 #
coedge $-1 $198 $295 $294 $378 reversed $117 $-1 #
coedge $-1 $206 $201 $198 $298 forward $207 $-1 #
edge $-1 $301 -15.873452410245832 $379 -2.3520676001571701 $297 $380 forward 7 unknown #
coedge $-1 $200 $199 $304 $381 reversed $73 $-1 #
edge $-1 $382 0 $301 16.122403004943763 $295 $383 forward 7 unknown #
vertex $-1 $202 $384 #
straight-curve $-1 -39.169432170410005 -0.35052930495022672 11.625400796075052 0 1 0 I I #
coedge $-1 $294 $203 $206 $308 reversed $196 $-1 #
coedge $-1 $203 $294 $299 $381 forward $196 $-1 #
vertex $-1 $204 $385 #
straight-curve $-1 -52.690816980498667 -5.252900404723535 45.612492491515596 0 0 1 I I #
straight-curve $-1 -52.690816980498667 -5.252900404723535 2.844510666291896 -0.83867056331134215 0 -0.54463904215088732 I I #
edge $-1 $379 -3.8507831849226282 $208 5.252900404723535 $303 $386 forward 7 unknown #
point $-1 -52.690816980498667 -5.252900404723535 11.625400796075052 #
point $-1 -39.169432170410005 -5.252900404723535 11.625400796075052 #
edge $-1 $387 1 $387 0 $211 $-1 forward 7 unknown #
vertex $-1 $212 $388 #
ellipse-curve $-1 -44.317084143143404 -2.6518479505389152 4.7510913305197278 -0.54463904215088732 0 0.83867056331134215 0.83867056331134215 0 0.54463904215088732 1 I I #
point $-1 -45.091454012143011 -2.6518479505389152 7.7795947733343684 #
edge $-1 $389 1 $389 0 $215 $-1 forward 7 unknown #
vertex $-1 $216 $390 #
ellipse-curve $-1 -44.317084143143404 1.2497307307380119 4.7510913305197278 -0.54463904215088732 0 0.83867056331134215 0.83867056331134215 0 0.54463904215088732 1 I I #
point $-1 -45.091454012143011 1.2497307307380119 7.7795947733343684 #
loop $-1 $-1 $226 $219 #
plane-surface $-1 -52.690816980498667 0 0 1 0 0 0 0 -1 forward_v I I I I #
coedge $-1 $391 $392 $223 $323 forward $220 $-1 #
coedge $-1 $223 $222 $328 $393 reversed $87 $-1 #
edge $-1 $325 5.1980997919024654 $394 21.320502796846228 $321 $395 forward 7 unknown #
coedge $-1 $229 $224 $392 $396 forward $139 $-1 #
vertex $-1 $396 $397 #
straight-curve $-1 -39.169432170410005 10.271494972736262 11.625400796075052 0 1 0 I I #
coedge $-1 $398 $226 $229 $332 reversed $319 $-1 #
coedge $-1 $226 $398 $322 $393 forward $319 $-1 #
vertex $-1 $227 $399 #
straight-curve $-1 -52.690816980498667 15.991148150649442 45.612492491515596 0 0 1 I I #
straight-curve $-1 -52.690816980498667 15.991148150649442 2.844510666291896 -0.83867056331134215 0 -0.54463904215088732 I I #
edge $-1 $400 -25.094831740295607 $230 -15.991148150649442 $327 $401 forward 7 unknown #
point $-1 -52.690816980498667 15.991148150649442 11.625400796075052 #
point $-1 -39.169432170410005 15.991148150649442 11.625400796075052 #
edge $-1 $402 1 $402 0 $233 $-1 forward 7 unknown #
vertex $-1 $234 $403 #
ellipse-curve $-1 -44.317084143143404 18.592200604834058 4.7510913305197278 -0.54463904215088732 0 0.83867056331134215 0.83867056331134215 0 0.54463904215088732 1 I I #
point $-1 -45.091454012143011 18.592200604834058 7.7795947733343684 #
edge $-1 $404 1 $404 0 $237 $-1 forward 7 unknown #
vertex $-1 $238 $405 #
ellipse-curve $-1 -44.317084143143404 22.493779286110989 4.7510913305197278 -0.54463904215088732 0 0.83867056331134215 0.83867056331134215 0 0.54463904215088732 1 I I #
point $-1 -45.091454012143011 22.493779286110989 7.7795947733343684 #
plane-surface $-1 52.690816980498667 0 0 -1 0 0 0 0 1 forward_v I I I I #
coedge $-1 $246 $244 $248 $348 reversed $161 $-1 #
edge $-1 $259 -11.625400796075052 $350 11.625400796075052 $258 $406 forward 7 unknown #
vertex $-1 $348 $407 #
straight-curve $-1 -52.690816980498667 -25.094831740295607 0 0 0 -1 I I #
edge $-1 $346 -25.094831740295607 $350 25.094831740295607 $344 $408 forward 7 unknown #
straight-curve $-1 0 -25.094831740295607 -11.625400796075052 -1 0 0 I I #
vertex $-1 $251 $409 #
straight-curve $-1 0 25.094831740295607 -11.625400796075052 1 0 0 I I #
point $-1 52.690816980498667 25.094831740295607 -11.625400796075052 #
point $-1 52.690816980498667 -25.094831740295607 -11.625400796075052 #
straight-curve $-1 -52.690816980498667 0 11.625400796075052 0 -1 0 I I #
point $-1 -52.690816980498667 25.094831740295607 11.625400796075052 #
point $-1 -52.690816980498667 -25.094831740295607 11.625400796075052 #
straight-curve $-1 52.690816980498667 -25.094831740295607 0 0 0 -1 I I #
straight-curve $-1 52.690816980498667 25.094831740295607 0 0 0 -1 I I #
loop $-1 $-1 $274 $268 #
plane-surface $-1 0 -25.094831740295607 0 0 1 0 0 0 1 forward_v I I I I #
coedge $-1 $285 $276 $272 $363 forward $269 $-1 #
edge $-1 $367 -14.472807462609119 $280 -6.7712410927638587 $271 $410 forward 7 unknown #
edge $-1 $281 6.7712410927638587 $366 14.472807462609119 $361 $411 forward 7 unknown #
coedge $-1 $283 $274 $288 $376 reversed $359 $-1 #
coedge $-1 $274 $283 $285 $374 reversed $359 $-1 #
vertex $-1 $374 $412 #
vertex $-1 $275 $413 #
straight-curve $-1 -29.440015388348563 -25.094831740295607 0 0 0 1 I I #
straight-curve $-1 -15.846412422022997 -17.393265370450347 -11.625400796075052 1 0 0 I I #
straight-curve $-1 -15.846412422022997 -17.393265370450347 11.625400796075052 -1 0 0 I I #
point $-1 -29.440015388348563 -17.393265370450347 11.625400796075052 #
point $-1 -29.440015388348563 -17.393265370450347 -11.625400796075052 #
straight-curve $-1 -33.945634299743425 -25.094831740295607 0 0 0 -1 I I #
edge $-1 $366 29.440015388348563 $286 33.945634299743425 $365 $414 forward 7 unknown #
point $-1 -33.945634299743425 -25.094831740295607 -11.625400796075052 #
edge $-1 $289 -33.945634299743425 $367 -29.440015388348563 $364 $415 forward 7 unknown #
point $-1 -33.945634299743425 -25.094831740295607 11.625400796075052 #
edge $-1 $379 33.98709169544054 $382 42.7679818252237 $294 $416 forward 7 unknown #
vertex $-1 $308 $417 #
straight-curve $-1 -55.042884580655837 3.8507831849226282 11.625400796075049 -1 0 0 I I #
edge $-1 $382 -4.2013124898728549 $305 4.9023710997733083 $304 $418 forward 7 unknown #
vertex $-1 $381 $419 #
straight-curve $-1 -52.690816980498667 3.8507831849226282 2.844510666291896 0.83867056331134215 0 0.54463904215088732 I I #
point $-1 -39.169432170410005 3.8507831849226282 11.625400796075052 #
point $-1 -52.690816980498667 -5.252900404723535 2.844510666291896 #
straight-curve $-1 -52.690816980498667 0 11.625400796075052 0 -1 0 I I #
vertex $-1 $311 $420 #
point $-1 -43.478413579832058 -2.6518479505389152 5.2957303726706151 #
vertex $-1 $315 $421 #
point $-1 -43.478413579832058 1.2497307307380119 5.2957303726706151 #
coedge $-1 $392 $321 $398 $422 reversed $220 $-1 #
coedge $-1 $321 $391 $324 $396 reversed $220 $-1 #
edge $-1 $394 -14.823336767559342 $329 -5.7196531779131803 $328 $423 forward 7 unknown #
vertex $-1 $323 $424 #
straight-curve $-1 -34.809938889786594 25.094831740295607 14.456488887741537 -0.83867056331134215 0 -0.54463904215088732 I I #
edge $-1 $325 39.169432170410005 $400 52.690816980498667 $392 $425 forward 7 unknown #
point $-1 -39.169432170410005 25.094831740295604 11.625400796075052 #
coedge $-1 $328 $327 $391 $422 forward $319 $-1 #
point $-1 -52.690816980498667 15.991148150649442 2.844510666291896 #
vertex $-1 $396 $426 #
straight-curve $-1 -52.690816980498667 0 11.625400796075052 0 -1 0 I I #
vertex $-1 $335 $427 #
point $-1 -43.478413579832058 18.592200604834058 5.2957303726706151 #
vertex $-1 $339 $428 #
point $-1 -43.478413579832058 22.493779286110989 5.2957303726706151 #
straight-curve $-1 -52.690816980498667 25.094831740295607 0 0 0 -1 I I #
point $-1 -52.690816980498667 -25.094831740295607 -11.625400796075052 #
straight-curve $-1 -52.690816980498667 0 -11.625400796075052 0 1 0 I I #
point $-1 -52.690816980498667 25.094831740295607 -11.625400796075052 #
straight-curve $-1 -29.440015388348563 -10.622024277686489 11.625400796075052 0 1 0 I I #
straight-curve $-1 -29.440015388348563 -10.622024277686489 -11.625400796075052 0 -1 0 I I #
point $-1 -29.440015388348563 -25.094831740295607 -11.625400796075052 #
point $-1 -29.440015388348563 -25.094831740295607 11.625400796075052 #
straight-curve $-1 0 -25.094831740295607 -11.625400796075052 -1 0 0 I I #
straight-curve $-1 0 -25.094831740295607 11.625400796075052 1 0 0 I I #
straight-curve $-1 -52.690816980498667 3.8507831849226282 45.612492491515596 0 0 -1 I I #
point $-1 -52.690816980498667 3.8507831849226282 11.625400796075052 #
straight-curve $-1 -52.690816980498667 -0.35052930495022672 2.8445106662918982 0 -1 0 I I #
point $-1 -52.690816980498667 3.8507831849226282 2.844510666291896 #
point $-1 -43.772445100992513 -2.6518479505389152 3.9124207672083853 #
point $-1 -43.772445100992513 1.2497307307380119 3.9124207672083853 #
edge $-1 $400 -11.625400796075052 $394 -2.844510666291896 $391 $429 forward 7 unknown #
straight-curve $-1 -52.690816980498667 10.271494972736262 2.8445106662918982 0 -1 0 I I #
point $-1 -52.690816980498667 25.094831740295604 2.844510666291896 #
straight-curve $-1 0 25.094831740295607 11.625400796075052 -1 0 0 I I #
point $-1 -52.690816980498667 25.094831740295607 11.625400796075052 #
point $-1 -43.772445100992513 18.592200604834058 3.9124207672083853 #
point $-1 -43.772445100992513 22.493779286110989 3.9124207672083853 #
straight-curve $-1 -52.690816980498667 25.094831740295607 0 0 0 -1 I I #
End-of-ACIS-data 