500 0 5 0           
7 Unknown 11 ACIS 5.0 NT 24 Fri Mar 26 17:44:51 1999 
-1 9.9999999999999995e-007 1e-010 
body $-1 $5 $-1 $6 #
body $-1 $7 $-1 $8 #
body $-1 $9 $-1 $10 #
body $-1 $11 $-1 $12 #
body $-1 $13 $-1 $14 #
lump $-1 $-1 $15 $0 #
transform $-1 1 0 0 0 1 0 0 0 1 61.287270729697561 28.856284801498489 11.288181969225368 1 rotate no_reflect no_shear #
lump $-1 $-1 $16 $1 #
transform $-1 1 0 0 0 1 0 0 0 1 61.287270729697561 28.856284801498489 11.288181969225368 1 rotate no_reflect no_shear #
lump $-1 $-1 $17 $2 #
transform $-1 1 0 0 0 1 0 0 0 1 61.287270729697561 28.856284801498489 11.288181969225368 1 rotate no_reflect no_shear #
lump $-1 $-1 $18 $3 #
transform $-1 1 0 0 0 1 0 0 0 1 61.287270729697561 28.856284801498489 11.288181969225368 1 rotate no_reflect no_shear #
lump $-1 $-1 $19 $4 #
transform $-1 1 0 0 0 1 0 0 0 1 61.287270729697561 28.856284801498489 11.288181969225368 1 rotate no_reflect no_shear #
shell $-1 $-1 $-1 $20 $-1 $5 #
shell $-1 $-1 $-1 $21 $-1 $7 #
shell $-1 $-1 $-1 $22 $-1 $9 #
shell $-1 $-1 $-1 $23 $-1 $11 #
shell $-1 $-1 $-1 $24 $-1 $13 #
face $-1 $25 $26 $15 $-1 $27 forward single #
face $-1 $28 $29 $16 $-1 $30 reversed single #
face $-1 $31 $32 $17 $-1 $33 forward single #
face $-1 $34 $35 $18 $-1 $36 reversed single #
face $-1 $37 $38 $19 $-1 $39 reversed single #
face $-1 $40 $41 $15 $-1 $42 reversed single #
loop $-1 $-1 $43 $20 #
plane-surface $-1 0 0 11.288181969225368 0 0 1 1 0 0 forward_v I I I I #
face $-1 $44 $45 $16 $-1 $46 forward single #
loop $-1 $-1 $47 $21 #
plane-surface $-1 -54.858753242025522 0 -1.2566153977044312 0 0 1 1 0 0 forward_v I I I I #
face $-1 $48 $49 $17 $-1 $50 forward single #
loop $-1 $-1 $51 $22 #
plane-surface $-1 37.162091436309176 -17.855257626629189 175.94848300281939 0 -1 0 -0.6018150307709319 0 -0.79863550430605224 forward_v I I I I #
face $-1 $52 $53 $18 $-1 $54 reversed single #
loop $-1 $55 $56 $23 #
cone-surface $-1 56.097266163432579 -25.713134180107261 7.0642074890339908 -0.6018150307709319 0 -0.79863550430605224 0.79863550430605224 0 -0.6018150307709319 1 I I 0 1 1 forward I I I I #
face $-1 $57 $58 $19 $-1 $59 reversed single #
loop $-1 $60 $61 $24 #
cone-surface $-1 56.097266163432579 -20.998408248020418 7.0642074890339908 -0.6018150307709319 0 -0.79863550430605224 0.79863550430605224 0 -0.6018150307709319 1 I I 0 1 1 forward I I I I #
face $-1 $62 $63 $15 $-1 $64 reversed single #
loop $-1 $-1 $65 $25 #
plane-surface $-1 0 0 -11.288181969225368 0 0 1 1 0 0 forward_v I I I I #
coedge $-1 $66 $67 $68 $69 forward $26 $-1 #
face $-1 $70 $71 $16 $-1 $72 forward single #
loop $-1 $-1 $73 $28 #
plane-surface $-1 -54.858753242025522 0 -7.4536609060392625 0 0 1 1 0 0 forward_v I I I I #
coedge $-1 $74 $75 $76 $77 reversed $29 $-1 #
face $-1 $78 $79 $17 $-1 $80 reversed single #
loop $-1 $-1 $81 $31 #
plane-surface $-1 -36.605110003809564 -23.355771214063839 78.056102269312262 0.6018150307709319 0 0.79863550430605224 0.79863550430605224 0 -0.6018150307709319 forward_v I I I I #
coedge $-1 $82 $83 $84 $85 reversed $32 $-1 #
face $-1 $86 $87 $18 $-1 $88 forward single #
loop $-1 $89 $90 $34 #
cone-surface $-1 55.250533885573709 -25.713134180107261 5.9405558267055003 -0.6018150307709319 0 -0.79863550430605224 0.39931775215302612 0 -0.30090751538546595 1 I I -0.70710678118654746 0.70710678118654746 0.5 forward I I I I #
loop $-1 $-1 $91 $23 #
coedge $-1 $56 $56 $92 $93 reversed $35 $-1 #
face $-1 $94 $95 $19 $-1 $96 reversed single #
loop $-1 $97 $98 $37 #
cone-surface $-1 55.250533885573709 -20.998408248020418 5.9405558267055003 -0.6018150307709319 0 -0.79863550430605224 0.39931775215302612 0 -0.30090751538546595 1 I I -0.70710678118654746 0.70710678118654746 0.5 forward I I I I #
loop $-1 $-1 $99 $24 #
coedge $-1 $61 $61 $100 $101 reversed $38 $-1 #
face $-1 $102 $103 $15 $-1 $104 reversed single #
loop $-1 $-1 $105 $40 #
plane-surface $-1 0 -28.856284801498489 0 0 1 0 0 0 1 forward_v I I I I #
coedge $-1 $106 $107 $108 $109 forward $41 $-1 #
coedge $-1 $110 $43 $111 $112 forward $26 $-1 #
coedge $-1 $43 $110 $113 $114 forward $26 $-1 #
coedge $-1 $115 $116 $43 $69 reversed $117 $-1 #
edge $-1 $118 -28.856284801498489 $119 28.856284801498489 $68 $120 forward 7 unknown #
face $-1 $121 $122 $16 $-1 $123 reversed single #
loop $-1 $-1 $124 $44 #
plane-surface $-1 -48.430235754353482 0 -4.3551381518718468 -1 0 0 0 0 1 forward_v I I I I #
coedge $-1 $125 $126 $127 $128 reversed $45 $-1 #
coedge $-1 $129 $47 $130 $131 reversed $29 $-1 #
coedge $-1 $47 $129 $132 $133 reversed $29 $-1 #
coedge $-1 $134 $124 $47 $77 forward $71 $-1 #
edge $-1 $135 -28.856284801498489 $136 28.856284801498489 $76 $137 forward 7 unknown #
face $-1 $138 $139 $17 $-1 $140 reversed single #
loop $-1 $-1 $141 $48 #
plane-surface $-1 61.287270729697561 0 0 -1 0 0 0 0 1 forward_v I I I I #
coedge $-1 $142 $143 $144 $145 reversed $49 $-1 #
coedge $-1 $83 $51 $143 $146 forward $32 $-1 #
coedge $-1 $51 $82 $141 $147 reversed $32 $-1 #
coedge $-1 $148 $144 $51 $85 forward $149 $-1 #
edge $-1 $150 33.417865403959766 $151 42.706225011542969 $84 $152 forward 7 unknown #
face $-1 $153 $154 $18 $-1 $155 forward single #
loop $-1 $-1 $156 $52 #
plane-surface $-1 37.162091436309176 -17.855257626629189 175.94848300281939 0 -1 0 -0.6018150307709319 0 -0.79863550430605224 forward_v I I I I #
loop $-1 $-1 $157 $34 #
coedge $-1 $90 $90 $91 $158 forward $53 $-1 #
coedge $-1 $91 $91 $90 $158 reversed $55 $-1 #
coedge $-1 $92 $92 $56 $93 forward $154 $-1 #
edge $-1 $159 0 $159 6.2831853071796004 $92 $160 forward 7 unknown #
face $-1 $161 $162 $19 $-1 $163 reversed single #
loop $-1 $164 $165 $57 #
cone-surface $-1 56.097266163432579 -25.713134180107261 7.0642074890339908 -0.6018150307709319 0 -0.79863550430605224 0.79863550430605224 0 -0.6018150307709319 1 I I 0 1 1 forward I I I I #
loop $-1 $-1 $166 $37 #
coedge $-1 $98 $98 $99 $167 forward $58 $-1 #
coedge $-1 $99 $99 $98 $167 reversed $60 $-1 #
coedge $-1 $100 $100 $61 $101 forward $168 $-1 #
edge $-1 $169 0 $169 6.2831853071796004 $100 $170 forward 7 unknown #
face $-1 $171 $172 $15 $-1 $173 reversed single #
loop $-1 $-1 $174 $62 #
plane-surface $-1 -61.287270729697561 0 0 1 0 0 0 0 -1 forward_v I I I I #
coedge $-1 $175 $113 $176 $177 forward $63 $-1 #
coedge $-1 $178 $65 $175 $179 forward $41 $-1 #
coedge $-1 $65 $178 $180 $181 forward $41 $-1 #
coedge $-1 $116 $115 $65 $109 reversed $117 $-1 #
edge $-1 $182 -28.856284801498489 $183 28.856284801498489 $108 $184 forward 7 unknown #
coedge $-1 $67 $66 $185 $186 forward $26 $-1 #
coedge $-1 $187 $188 $66 $112 reversed $172 $-1 #
edge $-1 $119 -61.287270729697561 $189 61.287270729697561 $111 $190 forward 7 unknown #
coedge $-1 $105 $191 $67 $114 reversed $63 $-1 #
edge $-1 $192 -61.287270729697561 $118 61.287270729697561 $113 $193 forward 7 unknown #
coedge $-1 $108 $68 $191 $194 forward $117 $-1 #
coedge $-1 $68 $108 $187 $195 reversed $117 $-1 #
loop $-1 $-1 $115 $171 #
vertex $-1 $69 $196 #
vertex $-1 $69 $197 #
straight-curve $-1 61.287270729697561 0 11.288181969225368 0 1 0 I I #
face $-1 $198 $199 $16 $-1 $123 reversed single #
loop $-1 $-1 $200 $70 #
plane-surface $-1 -61.287270729697561 0 0 1 0 0 0 0 -1 forward_v I I I I #
coedge $-1 $76 $127 $201 $202 reversed $71 $-1 #
coedge $-1 $203 $73 $204 $205 reversed $45 $-1 #
coedge $-1 $73 $203 $206 $207 reversed $45 $-1 #
coedge $-1 $124 $134 $73 $128 forward $71 $-1 #
edge $-1 $208 -28.856284801498489 $209 28.856284801498489 $127 $210 forward 7 unknown #
coedge $-1 $75 $74 $211 $212 reversed $29 $-1 #
coedge $-1 $201 $213 $74 $131 forward $214 $-1 #
edge $-1 $215 -33.857894108684803 $135 -21.000859133340722 $130 $216 forward 7 unknown #
coedge $-1 $217 $218 $75 $133 forward $219 $-1 #
edge $-1 $136 21.000859133340722 $220 33.857894108684803 $132 $221 forward 7 unknown #
coedge $-1 $127 $76 $218 $222 reversed $71 $-1 #
vertex $-1 $131 $223 #
vertex $-1 $133 $224 #
straight-curve $-1 -48.430235754353482 0 -1.2566153977044312 0 1 0 I I #
face $-1 $225 $226 $17 $-1 $227 forward single #
loop $-1 $-1 $228 $78 #
plane-surface $-1 -54.858753242025522 0 -1.2566153977044312 0 0 1 1 0 0 forward_v I I I I #
coedge $-1 $229 $230 $83 $147 forward $79 $-1 #
coedge $-1 $231 $81 $232 $233 reversed $49 $-1 #
coedge $-1 $81 $231 $82 $146 reversed $49 $-1 #
coedge $-1 $84 $234 $81 $145 forward $149 $-1 #
edge $-1 $235 -17.178399194466571 $150 -6.1773720195972697 $144 $236 forward 7 unknown #
edge $-1 $150 110.94425510535429 $237 122.57454145939512 $82 $238 forward 7 unknown #
edge $-1 $151 76.686059532184331 $237 83.685340672216171 $141 $239 forward 7 unknown #
coedge $-1 $240 $84 $230 $241 forward $149 $-1 #
loop $-1 $-1 $84 $242 #
vertex $-1 $145 $243 #
vertex $-1 $241 $244 #
straight-curve $-1 18.581045718154588 -17.855257626629189 11.288181969225363 1 0 0 I I #
face $-1 $245 $246 $18 $-1 $247 reversed single #
loop $-1 $248 $92 $86 #
plane-surface $-1 -36.605110003809564 -23.355771214063839 78.056102269312262 0.6018150307709319 0 0.79863550430605224 0.79863550430605224 0 -0.6018150307709319 forward_v I I I I #
coedge $-1 $249 $250 $251 $252 reversed $87 $-1 #
coedge $-1 $157 $157 $-1 $253 forward $89 $-1 #
edge $-1 $254 0 $254 6.2831853071796004 $90 $255 forward 7 unknown #
vertex $-1 $93 $256 #
ellipse-curve $-1 56.643090925905966 -25.713134180107261 7.7885413992094392 -0.6018150307709319 0 -0.79863550430605224 0.79863550430605224 0 -0.6018150307709319 1 I I #
face $-1 $257 $258 $19 $-1 $259 forward single #
loop $-1 $260 $261 $94 #
cone-surface $-1 55.250533885573709 -25.713134180107261 5.9405558267055003 -0.6018150307709319 0 -0.79863550430605224 0.39931775215302612 0 -0.30090751538546595 1 I I -0.70710678118654746 0.70710678118654746 0.5 forward I I I I #
loop $-1 $-1 $262 $57 #
coedge $-1 $165 $165 $263 $264 reversed $95 $-1 #
coedge $-1 $166 $166 $-1 $265 forward $97 $-1 #
edge $-1 $266 0 $266 6.2831853071796004 $98 $267 forward 7 unknown #
loop $-1 $268 $100 $257 #
vertex $-1 $101 $269 #
ellipse-curve $-1 56.643090925905966 -20.998408248020418 7.7885413992094392 -0.6018150307709319 0 -0.79863550430605224 0.79863550430605224 0 -0.6018150307709319 1 I I #
face $-1 $-1 $117 $15 $-1 $270 reversed single #
loop $-1 $-1 $187 $102 #
plane-surface $-1 0 28.856284801498489 0 0 -1 0 0 0 -1 forward_v I I I I #
coedge $-1 $271 $185 $188 $272 forward $103 $-1 #
coedge $-1 $191 $105 $106 $179 reversed $63 $-1 #
coedge $-1 $185 $271 $105 $177 reversed $103 $-1 #
edge $-1 $192 -11.288181969225368 $273 11.288181969225368 $176 $274 forward 7 unknown #
coedge $-1 $107 $106 $271 $275 forward $41 $-1 #
edge $-1 $183 -61.287270729697561 $273 61.287270729697561 $175 $276 forward 7 unknown #
coedge $-1 $188 $187 $107 $181 reversed $172 $-1 #
edge $-1 $277 -61.287270729697561 $182 61.287270729697561 $180 $278 forward 7 unknown #
vertex $-1 $109 $279 #
vertex $-1 $194 $280 #
straight-curve $-1 61.287270729697561 0 -11.288181969225368 0 -1 0 I I #
coedge $-1 $174 $176 $110 $186 reversed $103 $-1 #
edge $-1 $189 -28.856284801498489 $192 28.856284801498489 $185 $281 forward 7 unknown #
coedge $-1 $180 $111 $116 $195 forward $172 $-1 #
coedge $-1 $111 $180 $174 $272 reversed $172 $-1 #
vertex $-1 $112 $282 #
straight-curve $-1 0 28.856284801498489 11.288181969225368 -1 0 0 I I #
coedge $-1 $113 $175 $115 $194 reversed $63 $-1 #
vertex $-1 $186 $283 #
straight-curve $-1 0 -28.856284801498489 11.288181969225368 1 0 0 I I #
edge $-1 $118 -11.288181969225368 $183 11.288181969225368 $115 $284 forward 7 unknown #
edge $-1 $119 -11.288181969225368 $182 11.288181969225368 $116 $285 forward 7 unknown #
point $-1 61.287270729697561 -28.856284801498489 11.288181969225368 #
point $-1 61.287270729697561 28.856284801498489 11.288181969225368 #
face $-1 $286 $214 $16 $-1 $287 reversed single #
loop $-1 $-1 $211 $121 #
coedge $-1 $288 $289 $203 $290 forward $122 $-1 #
coedge $-1 $206 $130 $124 $202 forward $214 $-1 #
edge $-1 $135 -0.92095367823149221 $209 5.276091830103339 $201 $291 forward 7 unknown #
coedge $-1 $126 $125 $200 $290 reversed $45 $-1 #
coedge $-1 $218 $292 $125 $205 forward $219 $-1 #
edge $-1 $293 -33.857894108684803 $208 -21.000859133340722 $204 $294 forward 7 unknown #
coedge $-1 $295 $201 $126 $207 forward $214 $-1 #
edge $-1 $209 21.000859133340722 $296 33.857894108684803 $206 $297 forward 7 unknown #
vertex $-1 $205 $298 #
vertex $-1 $207 $299 #
straight-curve $-1 -48.430235754353482 0 -7.4536609060392625 0 -1 0 I I #
coedge $-1 $300 $301 $129 $212 forward $199 $-1 #
edge $-1 $220 -28.856284801498489 $215 28.856284801498489 $211 $302 forward 7 unknown #
coedge $-1 $130 $303 $300 $304 forward $214 $-1 #
loop $-1 $-1 $130 $198 #
vertex $-1 $131 $305 #
straight-curve $-1 -27.429376621012761 -28.856284801498489 -1.2566153977044312 1 0 0 I I #
coedge $-1 $306 $132 $301 $307 reversed $219 $-1 #
coedge $-1 $132 $204 $134 $222 forward $219 $-1 #
loop $-1 $-1 $132 $308 #
vertex $-1 $212 $309 #
straight-curve $-1 -27.429376621012761 28.856284801498489 -1.2566153977044312 -1 0 0 I I #
edge $-1 $208 -5.276091830103339 $136 0.92095367823149221 $218 $310 forward 7 unknown #
point $-1 -48.430235754353482 -28.856284801498489 -1.2566153977044312 #
point $-1 -48.430235754353482 28.856284801498489 -1.2566153977044312 #
face $-1 $311 $312 $17 $-1 $313 forward single #
loop $-1 $-1 $314 $138 #
plane-surface $-1 -54.858753242025522 0 -7.4536609060392625 0 0 1 1 0 0 forward_v I I I I #
coedge $-1 $315 $316 $317 $318 reversed $139 $-1 #
coedge $-1 $319 $141 $231 $320 forward $79 $-1 #
coedge $-1 $141 $321 $148 $241 reversed $79 $-1 #
coedge $-1 $143 $142 $229 $320 reversed $49 $-1 #
coedge $-1 $322 $323 $142 $233 forward $324 $-1 #
edge $-1 $325 -84.469803420827063 $235 -72.8395170667862 $232 $326 forward 7 unknown #
coedge $-1 $144 $327 $322 $328 forward $149 $-1 #
vertex $-1 $233 $329 #
straight-curve $-1 51.99891112211435 -11.67788560703192 11.28818196922537 0 1 0 I I #
vertex $-1 $320 $330 #
straight-curve $-1 -36.605110003809564 -17.855257626629189 78.056102269312262 0.79863550430605224 0 -0.6018150307709319 I I #
straight-curve $-1 61.287270729697561 -17.855257626629189 87.974241501409693 0 0 -1 I I #
coedge $-1 $327 $148 $331 $332 forward $149 $-1 #
edge $-1 $151 -17.855257626629189 $333 28.856284801498489 $230 $334 forward 7 unknown #
face $-1 $335 $149 $17 $-1 $336 forward single #
point $-1 51.998911122114357 -17.855257626629189 11.288181969225363 #
point $-1 61.287270729697561 -17.855257626629189 11.288181969225368 #
face $-1 $337 $338 $18 $-1 $339 reversed single #
loop $-1 $-1 $340 $153 #
plane-surface $-1 61.287270729697561 0 0 -1 0 0 0 0 1 forward_v I I I I #
loop $-1 $-1 $341 $86 #
coedge $-1 $250 $156 $342 $343 forward $87 $-1 #
coedge $-1 $156 $249 $340 $344 reversed $87 $-1 #
coedge $-1 $345 $346 $156 $252 forward $347 $-1 #
edge $-1 $348 33.417865403959766 $349 42.706225011542969 $251 $350 forward 7 unknown #
edge $-1 $351 1 $351 0 $157 $-1 forward 7 unknown #
vertex $-1 $158 $352 #
ellipse-curve $-1 55.551441400959177 -25.713134180107261 6.3398735788585263 0.6018150307709319 0 0.79863550430605224 0.79863550430605224 0 -0.6018150307709319 1 I I #
point $-1 57.441726430212029 -25.713134180107261 7.1867263684385225 #
face $-1 $353 $168 $19 $-1 $354 forward single #
loop $-1 $-1 $355 $161 #
plane-surface $-1 37.162091436309176 -17.855257626629189 175.94848300281939 0 -1 0 -0.6018150307709319 0 -0.79863550430605224 forward_v I I I I #
loop $-1 $-1 $356 $94 #
coedge $-1 $261 $261 $262 $357 forward $162 $-1 #
coedge $-1 $262 $262 $261 $357 reversed $164 $-1 #
coedge $-1 $263 $263 $165 $264 forward $268 $-1 #
edge $-1 $358 0 $358 6.2831853071796004 $263 $359 forward 7 unknown #
edge $-1 $360 1 $360 0 $166 $-1 forward 7 unknown #
vertex $-1 $167 $361 #
ellipse-curve $-1 55.551441400959177 -20.998408248020418 6.3398735788585263 0.6018150307709319 0 0.79863550430605224 0.79863550430605224 0 -0.6018150307709319 1 I I #
loop $-1 $362 $263 $257 #
point $-1 57.441726430212029 -20.998408248020418 7.1867263684385225 #
plane-surface $-1 61.287270729697561 0 0 -1 0 0 0 0 1 forward_v I I I I #
coedge $-1 $176 $174 $178 $275 reversed $103 $-1 #
edge $-1 $189 -11.288181969225368 $277 11.288181969225368 $188 $363 forward 7 unknown #
vertex $-1 $275 $364 #
straight-curve $-1 -61.287270729697561 -28.856284801498489 0 0 0 -1 I I #
edge $-1 $273 -28.856284801498489 $277 28.856284801498489 $271 $365 forward 7 unknown #
straight-curve $-1 0 -28.856284801498489 -11.288181969225368 -1 0 0 I I #
vertex $-1 $181 $366 #
straight-curve $-1 0 28.856284801498489 -11.288181969225368 1 0 0 I I #
point $-1 61.287270729697561 28.856284801498489 -11.288181969225368 #
point $-1 61.287270729697561 -28.856284801498489 -11.288181969225368 #
straight-curve $-1 -61.287270729697561 0 11.288181969225368 0 -1 0 I I #
point $-1 -61.287270729697561 28.856284801498489 11.288181969225368 #
point $-1 -61.287270729697561 -28.856284801498489 11.288181969225368 #
straight-curve $-1 61.287270729697561 -28.856284801498489 0 0 0 -1 I I #
straight-curve $-1 61.287270729697561 28.856284801498489 0 0 0 -1 I I #
face $-1 $367 $368 $16 $-1 $369 forward single #
plane-surface $-1 0 -28.856284801498489 0 0 1 0 0 0 1 forward_v I I I I #
coedge $-1 $370 $200 $292 $371 forward $122 $-1 #
coedge $-1 $200 $370 $295 $372 reversed $122 $-1 #
edge $-1 $296 -28.856284801498489 $293 28.856284801498489 $200 $373 forward 7 unknown #
straight-curve $-1 -48.430235754353482 -28.856284801498489 -2.1775690759359234 0 0 -1 I I #
coedge $-1 $204 $374 $288 $371 reversed $219 $-1 #
vertex $-1 $371 $375 #
straight-curve $-1 -27.429376621012761 28.856284801498489 -7.4536609060392625 1 0 0 I I #
coedge $-1 $376 $206 $289 $372 forward $214 $-1 #
vertex $-1 $372 $377 #
straight-curve $-1 -27.429376621012761 -28.856284801498489 -7.4536609060392625 -1 0 0 I I #
point $-1 -48.430235754353482 28.856284801498489 -7.4536609060392625 #
point $-1 -48.430235754353482 -28.856284801498489 -7.4536609060392625 #
coedge $-1 $378 $211 $213 $304 reversed $199 $-1 #
coedge $-1 $211 $378 $217 $307 forward $199 $-1 #
straight-curve $-1 -61.287270729697561 0 -1.2566153977044312 0 -1 0 I I #
coedge $-1 $213 $379 $380 $381 reversed $214 $-1 #
edge $-1 $382 -11.288181969225368 $215 1.2566153977044312 $300 $383 forward 7 unknown #
point $-1 -61.287270729697561 -28.856284801498489 -1.2566153977044312 #
coedge $-1 $384 $217 $385 $386 reversed $219 $-1 #
edge $-1 $387 -11.288181969225368 $220 1.2566153977044312 $217 $388 forward 7 unknown #
face $-1 $389 $219 $16 $-1 $390 reversed single #
point $-1 -61.287270729697561 28.856284801498489 -1.2566153977044312 #
straight-curve $-1 -48.430235754353482 28.856284801498489 -2.1775690759359234 0 0 1 I I #
face $-1 $391 $392 $17 $-1 $393 reversed single #
loop $-1 $-1 $394 $225 #
plane-surface $-1 -48.430235754353482 0 -4.3551381518718468 -1 0 0 0 0 1 forward_v I I I I #
coedge $-1 $395 $396 $397 $398 reversed $226 $-1 #
coedge $-1 $399 $228 $400 $401 reversed $139 $-1 #
coedge $-1 $228 $399 $402 $403 reversed $139 $-1 #
coedge $-1 $404 $394 $228 $318 forward $312 $-1 #
edge $-1 $405 -28.856284801498489 $406 28.856284801498489 $317 $407 forward 7 unknown #
coedge $-1 $408 $229 $323 $409 forward $79 $-1 #
edge $-1 $237 6.1773720195972697 $325 17.178399194466571 $229 $410 forward 7 unknown #
coedge $-1 $230 $408 $411 $412 reversed $79 $-1 #
coedge $-1 $413 $232 $234 $328 reversed $324 $-1 #
coedge $-1 $232 $414 $319 $409 reversed $324 $-1 #
loop $-1 $-1 $232 $415 #
vertex $-1 $409 $416 #
straight-curve $-1 -6.1733133239277471 -28.856284801498489 55.124098174113122 -0.79863550430605224 0 0.6018150307709319 I I #
coedge $-1 $234 $240 $417 $418 forward $149 $-1 #
edge $-1 $419 -61.287270729697561 $235 51.99891112211435 $322 $420 forward 7 unknown #
point $-1 51.99891112211435 -28.856284801498489 11.288181969225368 #
point $-1 61.287270729697561 -17.855257626629189 4.2889008291935227 #
coedge $-1 $411 $421 $240 $332 reversed $422 $-1 #
edge $-1 $333 -61.287270729697561 $423 61.287270729697561 $331 $424 forward 7 unknown #
vertex $-1 $241 $425 #
straight-curve $-1 61.287270729697561 0 11.288181969225368 0 1 0 I I #
face $-1 $426 $427 $17 $-1 $428 reversed single #
plane-surface $-1 0 0 11.288181969225368 0 0 1 1 0 0 forward_v I I I I #
face $-1 $429 $430 $18 $-1 $431 forward single #
loop $-1 $-1 $432 $245 #
plane-surface $-1 -54.858753242025522 0 -1.2566153977044312 0 0 1 1 0 0 forward_v I I I I #
coedge $-1 $433 $434 $250 $344 forward $246 $-1 #
coedge $-1 $435 $342 $346 $436 reversed $248 $-1 #
coedge $-1 $341 $437 $249 $343 reversed $248 $-1 #
edge $-1 $348 110.94425510535429 $438 122.57454145939512 $249 $439 forward 7 unknown #
edge $-1 $349 76.686059532184331 $438 83.685340672216171 $340 $440 forward 7 unknown #
coedge $-1 $441 $251 $434 $442 forward $347 $-1 #
coedge $-1 $251 $443 $341 $436 forward $347 $-1 #
loop $-1 $-1 $251 $444 #
vertex $-1 $436 $445 #
vertex $-1 $442 $446 #
straight-curve $-1 18.581045718154588 -17.855257626629189 11.288181969225363 1 0 0 I I #
vertex $-1 $253 $447 #
point $-1 56.350076905265226 -25.713134180107261 5.7380585480875945 #
face $-1 $448 $449 $19 $-1 $450 reversed single #
plane-surface $-1 -36.605110003809564 -23.355771214063839 78.056102269312262 0.6018150307709319 0 0.79863550430605224 0.79863550430605224 0 -0.6018150307709319 forward_v I I I I #
coedge $-1 $451 $452 $453 $454 reversed $258 $-1 #
coedge $-1 $356 $356 $-1 $455 forward $260 $-1 #
edge $-1 $456 0 $456 6.2831853071796004 $261 $457 forward 7 unknown #
vertex $-1 $264 $458 #
ellipse-curve $-1 56.643090925905966 -25.713134180107261 7.7885413992094392 -0.6018150307709319 0 -0.79863550430605224 0.79863550430605224 0 -0.6018150307709319 1 I I #
vertex $-1 $265 $459 #
point $-1 56.350076905265226 -20.998408248020418 5.7380585480875945 #
loop $-1 $-1 $460 $257 #
straight-curve $-1 -61.287270729697561 28.856284801498489 0 0 0 -1 I I #
point $-1 -61.287270729697561 -28.856284801498489 -11.288181969225368 #
straight-curve $-1 -61.287270729697561 0 -11.288181969225368 0 1 0 I I #
point $-1 -61.287270729697561 28.856284801498489 -11.288181969225368 #
face $-1 $308 $461 $16 $-1 $462 reversed single #
loop $-1 $-1 $463 $286 #
plane-surface $-1 0 0 11.288181969225368 0 0 1 1 0 0 forward_v I I I I #
coedge $-1 $289 $288 $464 $465 reversed $122 $-1 #
edge $-1 $293 7.4536609060392625 $466 11.288181969225368 $292 $388 forward 7 unknown #
edge $-1 $296 7.4536609060392625 $467 11.288181969225368 $289 $383 forward 7 unknown #
straight-curve $-1 -61.287270729697561 0 -7.4536609060392625 0 1 0 I I #
coedge $-1 $292 $384 $468 $469 reversed $219 $-1 #
point $-1 -61.287270729697561 28.856284801498489 -7.4536609060392625 #
coedge $-1 $379 $295 $470 $471 reversed $214 $-1 #
point $-1 -61.287270729697561 -28.856284801498489 -7.4536609060392625 #
coedge $-1 $301 $300 $472 $473 reversed $199 $-1 #
coedge $-1 $303 $376 $474 $475 reversed $214 $-1 #
coedge $-1 $463 $472 $303 $381 forward $368 $-1 #
edge $-1 $382 -61.287270729697561 $476 61.287270729697561 $303 $477 forward 7 unknown #
vertex $-1 $473 $478 #
straight-curve $-1 -61.287270729697561 -28.856284801498489 0 0 0 -1 I I #
coedge $-1 $374 $306 $479 $480 forward $219 $-1 #
coedge $-1 $472 $463 $306 $386 forward $368 $-1 #
edge $-1 $481 -61.287270729697561 $387 61.287270729697561 $306 $482 forward 7 unknown #
vertex $-1 $386 $483 #
straight-curve $-1 -61.287270729697561 28.856284801498489 0 0 0 -1 I I #
face $-1 $-1 $484 $16 $-1 $485 reversed single #
plane-surface $-1 0 28.856284801498489 0 0 -1 0 0 0 -1 forward_v I I I I #
face $-1 $415 $486 $17 $-1 $393 reversed single #
loop $-1 $-1 $487 $311 #
plane-surface $-1 -61.287270729697561 0 0 1 0 0 0 0 -1 forward_v I I I I #
coedge $-1 $317 $397 $488 $489 reversed $312 $-1 #
coedge $-1 $490 $314 $491 $492 reversed $226 $-1 #
coedge $-1 $314 $490 $493 $494 reversed $226 $-1 #
coedge $-1 $394 $404 $314 $398 forward $312 $-1 #
edge $-1 $495 -28.856284801498489 $496 28.856284801498489 $397 $497 forward 7 unknown #
coedge $-1 $316 $315 $498 $499 reversed $139 $-1 #
coedge $-1 $488 $413 $315 $401 forward $324 $-1 #
edge $-1 $500 -33.857894108684803 $405 -21.000859133340722 $400 $501 forward 7 unknown #
coedge $-1 $421 $502 $316 $403 forward $422 $-1 #
edge $-1 $406 21.000859133340722 $503 33.857894108684803 $402 $504 forward 7 unknown #
coedge $-1 $397 $317 $502 $505 reversed $312 $-1 #
vertex $-1 $401 $506 #
vertex $-1 $403 $507 #
straight-curve $-1 -48.430235754353482 0 -1.2566153977044312 0 1 0 I I #
coedge $-1 $321 $319 $508 $509 reversed $79 $-1 #
edge $-1 $325 -4.28890082919352 $510 11.288181969225368 $319 $511 forward 7 unknown #
straight-curve $-1 61.287270729697553 -11.67788560703192 4.2889008291935298 0 -1 0 I I #
coedge $-1 $512 $331 $321 $412 forward $422 $-1 #
edge $-1 $333 -11.288181969225368 $513 11.288181969225368 $321 $514 forward 7 unknown #
coedge $-1 $400 $322 $515 $516 forward $324 $-1 #
coedge $-1 $323 $517 $518 $519 reversed $324 $-1 #
face $-1 $242 $324 $17 $-1 $520 reversed single #
point $-1 61.287270729697561 -28.856284801498489 4.28890082919352 #
coedge $-1 $521 $515 $327 $418 reversed $486 $-1 #
edge $-1 $423 -28.856284801498489 $419 28.856284801498489 $417 $522 forward 7 unknown #
vertex $-1 $418 $523 #
straight-curve $-1 0 -28.856284801498489 11.288181969225368 1 0 0 I I #
coedge $-1 $331 $402 $521 $524 reversed $422 $-1 #
loop $-1 $-1 $402 $426 #
vertex $-1 $332 $525 #
straight-curve $-1 0 28.856284801498489 11.288181969225368 -1 0 0 I I #
point $-1 61.287270729697561 28.856284801498489 11.288181969225368 #
face $-1 $-1 $422 $17 $-1 $526 reversed single #
loop $-1 $-1 $508 $335 #
plane-surface $-1 0 0 -11.288181969225368 0 0 1 1 0 0 forward_v I I I I #
face $-1 $527 $528 $18 $-1 $529 forward single #
loop $-1 $-1 $530 $337 #
plane-surface $-1 -54.858753242025522 0 -7.4536609060392625 0 0 1 1 0 0 forward_v I I I I #
coedge $-1 $531 $532 $533 $534 reversed $338 $-1 #
coedge $-1 $535 $340 $437 $536 forward $246 $-1 #
coedge $-1 $340 $537 $345 $442 reversed $246 $-1 #
coedge $-1 $437 $341 $538 $539 reversed $248 $-1 #
edge $-1 $540 -17.178399194466571 $348 -6.1773720195972697 $346 $541 forward 7 unknown #
coedge $-1 $342 $435 $433 $536 reversed $248 $-1 #
vertex $-1 $536 $542 #
straight-curve $-1 -36.605110003809564 -17.855257626629189 78.056102269312262 0.79863550430605224 0 -0.6018150307709319 I I #
straight-curve $-1 61.287270729697561 -17.855257626629189 87.974241501409693 0 0 -1 I I #
coedge $-1 $543 $345 $544 $545 forward $347 $-1 #
edge $-1 $349 -17.855257626629189 $546 28.856284801498489 $434 $547 forward 7 unknown #
coedge $-1 $346 $543 $548 $549 forward $347 $-1 #
face $-1 $550 $347 $18 $-1 $551 forward single #
point $-1 51.998911122114357 -17.855257626629189 11.288181969225363 #
point $-1 61.287270729697561 -17.855257626629189 11.288181969225368 #
point $-1 54.949626370188241 -25.713134180107261 5.5412380745524743 #
face $-1 $552 $553 $19 $-1 $554 reversed single #
loop $-1 $-1 $555 $353 #
plane-surface $-1 61.287270729697561 0 0 -1 0 0 0 0 1 forward_v I I I I #
coedge $-1 $452 $355 $556 $557 forward $258 $-1 #
coedge $-1 $355 $451 $555 $558 reversed $258 $-1 #
coedge $-1 $559 $560 $355 $454 forward $561 $-1 #
edge $-1 $562 33.417865403959766 $563 42.706225011542969 $453 $564 forward 7 unknown #
edge $-1 $565 1 $565 0 $356 $-1 forward 7 unknown #
vertex $-1 $357 $566 #
ellipse-curve $-1 55.551441400959177 -25.713134180107261 6.3398735788585263 0.6018150307709319 0 0.79863550430605224 0.79863550430605224 0 -0.6018150307709319 1 I I #
point $-1 57.441726430212029 -25.713134180107261 7.1867263684385225 #
point $-1 54.949626370188241 -20.998408248020418 5.5412380745524743 #
coedge $-1 $567 $556 $560 $568 reversed $362 $-1 #
loop $-1 $-1 $569 $367 #
plane-surface $-1 0 0 -11.288181969225368 0 0 1 1 0 0 forward_v I I I I #
coedge $-1 $385 $380 $570 $571 forward $368 $-1 #
coedge $-1 $468 $470 $370 $465 forward $461 $-1 #
edge $-1 $467 -28.856284801498489 $466 28.856284801498489 $370 $572 forward 7 unknown #
vertex $-1 $469 $573 #
vertex $-1 $465 $574 #
coedge $-1 $569 $464 $374 $469 forward $461 $-1 #
edge $-1 $466 -61.287270729697561 $575 61.287270729697561 $374 $576 forward 7 unknown #
coedge $-1 $464 $569 $376 $471 forward $461 $-1 #
edge $-1 $577 -61.287270729697561 $467 61.287270729697561 $376 $578 forward 7 unknown #
coedge $-1 $380 $385 $378 $473 forward $368 $-1 #
edge $-1 $387 -28.856284801498489 $382 28.856284801498489 $378 $579 forward 7 unknown #
coedge $-1 $580 $570 $379 $475 forward $484 $-1 #
edge $-1 $476 -11.288181969225368 $577 11.288181969225368 $474 $581 forward 7 unknown #
vertex $-1 $571 $582 #
straight-curve $-1 0 -28.856284801498489 11.288181969225368 1 0 0 I I #
point $-1 -61.287270729697561 -28.856284801498489 11.288181969225368 #
coedge $-1 $570 $580 $384 $480 reversed $484 $-1 #
edge $-1 $481 -11.288181969225368 $575 11.288181969225368 $479 $583 forward 7 unknown #
vertex $-1 $571 $584 #
straight-curve $-1 0 28.856284801498489 11.288181969225368 -1 0 0 I I #
point $-1 -61.287270729697561 28.856284801498489 11.288181969225368 #
loop $-1 $-1 $474 $389 #
plane-surface $-1 61.287270729697561 0 0 -1 0 0 0 0 1 forward_v I I I I #
loop $-1 $-1 $498 $391 #
coedge $-1 $585 $586 $490 $587 forward $392 $-1 #
coedge $-1 $493 $400 $394 $489 forward $324 $-1 #
edge $-1 $405 -0.92095367823149221 $496 5.276091830103339 $488 $588 forward 7 unknown #
coedge $-1 $396 $395 $487 $587 reversed $226 $-1 #
coedge $-1 $502 $589 $395 $492 forward $422 $-1 #
edge $-1 $590 -33.857894108684803 $495 -21.000859133340722 $491 $591 forward 7 unknown #
coedge $-1 $517 $488 $396 $494 forward $324 $-1 #
edge $-1 $496 21.000859133340722 $592 33.857894108684803 $493 $593 forward 7 unknown #
vertex $-1 $492 $594 #
vertex $-1 $494 $595 #
straight-curve $-1 -48.430235754353482 0 -7.4536609060392625 0 -1 0 I I #
coedge $-1 $515 $521 $399 $499 forward $486 $-1 #
edge $-1 $503 -28.856284801498489 $500 28.856284801498489 $498 $596 forward 7 unknown #
vertex $-1 $401 $597 #
straight-curve $-1 -27.429376621012761 -28.856284801498489 -1.2566153977044312 1 0 0 I I #
coedge $-1 $402 $491 $404 $505 forward $422 $-1 #
vertex $-1 $499 $598 #
straight-curve $-1 -27.429376621012761 28.856284801498489 -1.2566153977044312 -1 0 0 I I #
edge $-1 $495 -5.276091830103339 $406 0.92095367823149221 $502 $599 forward 7 unknown #
point $-1 -48.430235754353482 -28.856284801498489 -1.2566153977044312 #
point $-1 -48.430235754353482 28.856284801498489 -1.2566153977044312 #
coedge $-1 $518 $600 $408 $509 forward $427 $-1 #
edge $-1 $513 -28.856284801498489 $510 28.856284801498489 $408 $601 forward 7 unknown #
vertex $-1 $409 $602 #
straight-curve $-1 61.287270729697561 -28.856284801498489 0 0 0 -1 I I #
coedge $-1 $589 $411 $600 $603 reversed $422 $-1 #
vertex $-1 $509 $604 #
straight-curve $-1 61.287270729697561 28.856284801498489 0 0 0 -1 I I #
coedge $-1 $417 $498 $413 $516 reversed $486 $-1 #
edge $-1 $419 -11.288181969225368 $500 1.2566153977044312 $515 $605 forward 7 unknown #
coedge $-1 $414 $493 $586 $606 forward $324 $-1 #
coedge $-1 $607 $508 $414 $519 forward $427 $-1 #
edge $-1 $510 -61.287270729697561 $608 61.287270729697561 $414 $609 forward 7 unknown #
plane-surface $-1 0 -28.856284801498489 0 0 1 0 0 0 1 forward_v I I I I #
coedge $-1 $498 $417 $421 $524 forward $486 $-1 #
straight-curve $-1 -61.287270729697561 0 11.288181969225368 0 -1 0 I I #
point $-1 -61.287270729697561 -28.856284801498489 11.288181969225368 #
edge $-1 $423 -11.288181969225368 $503 1.2566153977044312 $421 $610 forward 7 unknown #
point $-1 -61.287270729697561 28.856284801498489 11.288181969225368 #
plane-surface $-1 0 28.856284801498489 0 0 -1 0 0 0 -1 forward_v I I I I #
face $-1 $611 $612 $18 $-1 $613 reversed single #
loop $-1 $-1 $614 $429 #
plane-surface $-1 -48.430235754353482 0 -4.3551381518718468 -1 0 0 0 0 1 forward_v I I I I #
coedge $-1 $615 $616 $617 $618 reversed $430 $-1 #
coedge $-1 $619 $432 $620 $621 reversed $338 $-1 #
coedge $-1 $432 $619 $622 $623 reversed $338 $-1 #
coedge $-1 $624 $614 $432 $534 forward $528 $-1 #
edge $-1 $625 -28.856284801498489 $626 28.856284801498489 $533 $627 forward 7 unknown #
coedge $-1 $628 $433 $629 $630 forward $246 $-1 #
edge $-1 $438 6.1773720195972697 $631 17.178399194466571 $433 $632 forward 7 unknown #
coedge $-1 $434 $628 $633 $634 reversed $246 $-1 #
coedge $-1 $548 $629 $435 $539 forward $635 $-1 #
edge $-1 $631 -84.469803420827063 $540 -72.8395170667862 $538 $636 forward 7 unknown #
vertex $-1 $539 $637 #
straight-curve $-1 51.99891112211435 -11.67788560703192 11.28818196922537 0 1 0 I I #
point $-1 61.287270729697561 -17.855257626629189 4.2889008291935227 #
coedge $-1 $443 $441 $638 $639 forward $347 $-1 #
coedge $-1 $633 $640 $441 $545 reversed $641 $-1 #
edge $-1 $546 -61.287270729697561 $642 61.287270729697561 $544 $643 forward 7 unknown #
vertex $-1 $442 $644 #
straight-curve $-1 61.287270729697561 0 11.288181969225368 0 1 0 I I #
coedge $-1 $645 $538 $443 $549 reversed $635 $-1 #
edge $-1 $646 -61.287270729697561 $540 51.99891112211435 $548 $647 forward 7 unknown #
face $-1 $648 $649 $18 $-1 $650 reversed single #
plane-surface $-1 0 0 11.288181969225368 0 0 1 1 0 0 forward_v I I I I #
face $-1 $651 $652 $19 $-1 $653 forward single #
loop $-1 $-1 $654 $448 #
plane-surface $-1 -54.858753242025522 0 -1.2566153977044312 0 0 1 1 0 0 forward_v I I I I #
coedge $-1 $655 $656 $452 $558 forward $449 $-1 #
coedge $-1 $460 $657 $451 $557 reversed $362 $-1 #
edge $-1 $562 110.94425510535429 $658 122.57454145939512 $451 $659 forward 7 unknown #
edge $-1 $563 76.686059532184331 $658 83.685340672216171 $555 $660 forward 7 unknown #
coedge $-1 $661 $453 $656 $662 forward $561 $-1 #
coedge $-1 $453 $663 $460 $568 forward $561 $-1 #
loop $-1 $-1 $453 $664 #
vertex $-1 $568 $665 #
vertex $-1 $662 $666 #
straight-curve $-1 18.581045718154588 -17.855257626629189 11.288181969225363 1 0 0 I I #
vertex $-1 $455 $667 #
point $-1 56.350076905265226 -25.713134180107261 5.7380585480875945 #
coedge $-1 $657 $460 $668 $669 reversed $362 $-1 #
edge $-1 $670 -17.178399194466571 $562 -6.1773720195972697 $560 $671 forward 7 unknown #
coedge $-1 $470 $468 $580 $672 forward $461 $-1 #
coedge $-1 $474 $479 $463 $571 reversed $484 $-1 #
edge $-1 $476 -28.856284801498489 $481 28.856284801498489 $570 $673 forward 7 unknown #
straight-curve $-1 -61.287270729697561 0 -11.288181969225368 0 1 0 I I #
point $-1 -61.287270729697561 28.856284801498489 -11.288181969225368 #
point $-1 -61.287270729697561 -28.856284801498489 -11.288181969225368 #
vertex $-1 $672 $674 #
straight-curve $-1 0 28.856284801498489 -11.288181969225368 1 0 0 I I #
vertex $-1 $475 $675 #
straight-curve $-1 0 -28.856284801498489 -11.288181969225368 -1 0 0 I I #
straight-curve $-1 -61.287270729697561 0 11.288181969225368 0 -1 0 I I #
coedge $-1 $479 $474 $569 $672 reversed $484 $-1 #
straight-curve $-1 61.287270729697561 -28.856284801498489 0 0 0 -1 I I #
point $-1 61.287270729697561 -28.856284801498489 11.288181969225368 #
straight-curve $-1 61.287270729697561 28.856284801498489 0 0 0 -1 I I #
point $-1 61.287270729697561 28.856284801498489 11.288181969225368 #
coedge $-1 $676 $487 $589 $677 forward $392 $-1 #
coedge $-1 $487 $676 $517 $606 reversed $392 $-1 #
edge $-1 $592 -28.856284801498489 $590 28.856284801498489 $487 $678 forward 7 unknown #
straight-curve $-1 -48.430235754353482 -28.856284801498489 -2.1775690759359234 0 0 -1 I I #
coedge $-1 $491 $512 $585 $677 reversed $422 $-1 #
vertex $-1 $677 $679 #
straight-curve $-1 -27.429376621012761 28.856284801498489 -7.4536609060392625 1 0 0 I I #
vertex $-1 $606 $680 #
straight-curve $-1 -27.429376621012761 -28.856284801498489 -7.4536609060392625 -1 0 0 I I #
point $-1 -48.430235754353482 28.856284801498489 -7.4536609060392625 #
point $-1 -48.430235754353482 -28.856284801498489 -7.4536609060392625 #
straight-curve $-1 -61.287270729697561 0 -1.2566153977044312 0 -1 0 I I #
point $-1 -61.287270729697561 -28.856284801498489 -1.2566153977044312 #
point $-1 -61.287270729697561 28.856284801498489 -1.2566153977044312 #
straight-curve $-1 -48.430235754353482 28.856284801498489 -2.1775690759359234 0 0 1 I I #
coedge $-1 $508 $607 $512 $603 forward $427 $-1 #
straight-curve $-1 61.287270729697561 0 -11.288181969225368 0 -1 0 I I #
point $-1 61.287270729697561 -28.856284801498489 -11.288181969225368 #
edge $-1 $681 -61.287270729697561 $513 61.287270729697561 $512 $682 forward 7 unknown #
point $-1 61.287270729697561 28.856284801498489 -11.288181969225368 #
straight-curve $-1 -61.287270729697561 -28.856284801498489 0 0 0 -1 I I #
edge $-1 $592 7.4536609060392625 $608 11.288181969225368 $586 $605 forward 7 unknown #
coedge $-1 $600 $518 $676 $683 forward $427 $-1 #
vertex $-1 $683 $684 #
straight-curve $-1 0 -28.856284801498489 -11.288181969225368 -1 0 0 I I #
straight-curve $-1 -61.287270729697561 28.856284801498489 0 0 0 -1 I I #
face $-1 $685 $686 $18 $-1 $613 reversed single #
loop $-1 $-1 $687 $527 #
plane-surface $-1 -61.287270729697561 0 0 1 0 0 0 0 -1 forward_v I I I I #
coedge $-1 $533 $617 $688 $689 reversed $528 $-1 #
coedge $-1 $690 $530 $691 $692 reversed $430 $-1 #
coedge $-1 $530 $690 $693 $694 reversed $430 $-1 #
coedge $-1 $614 $624 $530 $618 forward $528 $-1 #
edge $-1 $695 -28.856284801498489 $696 28.856284801498489 $617 $697 forward 7 unknown #
coedge $-1 $532 $531 $698 $699 reversed $338 $-1 #
coedge $-1 $688 $645 $531 $621 forward $635 $-1 #
edge $-1 $700 -33.857894108684803 $625 -21.000859133340722 $620 $701 forward 7 unknown #
coedge $-1 $640 $702 $532 $623 forward $641 $-1 #
edge $-1 $626 21.000859133340722 $703 33.857894108684803 $622 $704 forward 7 unknown #
coedge $-1 $617 $533 $702 $705 reversed $528 $-1 #
vertex $-1 $621 $706 #
vertex $-1 $623 $707 #
straight-curve $-1 -48.430235754353482 0 -1.2566153977044312 0 1 0 I I #
coedge $-1 $537 $535 $708 $709 reversed $246 $-1 #
coedge $-1 $538 $710 $535 $630 reversed $635 $-1 #
edge $-1 $631 -4.28890082919352 $711 11.288181969225368 $535 $712 forward 7 unknown #
vertex $-1 $630 $713 #
straight-curve $-1 61.287270729697553 -11.67788560703192 4.2889008291935298 0 -1 0 I I #
coedge $-1 $714 $544 $537 $634 forward $641 $-1 #
edge $-1 $546 -11.288181969225368 $715 11.288181969225368 $537 $716 forward 7 unknown #
loop $-1 $-1 $538 $685 #
straight-curve $-1 -6.1733133239277471 -28.856284801498489 55.124098174113122 -0.79863550430605224 0 0.6018150307709319 I I #
point $-1 51.99891112211435 -28.856284801498489 11.288181969225368 #
coedge $-1 $717 $718 $543 $639 reversed $686 $-1 #
edge $-1 $642 -28.856284801498489 $646 28.856284801498489 $638 $719 forward 7 unknown #
coedge $-1 $544 $622 $717 $720 reversed $641 $-1 #
loop $-1 $-1 $622 $648 #
vertex $-1 $545 $721 #
straight-curve $-1 0 28.856284801498489 11.288181969225368 -1 0 0 I I #
point $-1 61.287270729697561 28.856284801498489 11.288181969225368 #
coedge $-1 $620 $548 $718 $722 forward $635 $-1 #
vertex $-1 $639 $723 #
straight-curve $-1 0 -28.856284801498489 11.288181969225368 1 0 0 I I #
face $-1 $-1 $641 $18 $-1 $724 reversed single #
loop $-1 $-1 $708 $550 #
plane-surface $-1 0 0 -11.288181969225368 0 0 1 1 0 0 forward_v I I I I #
face $-1 $725 $726 $19 $-1 $727 forward single #
loop $-1 $-1 $728 $552 #
plane-surface $-1 -54.858753242025522 0 -7.4536609060392625 0 0 1 1 0 0 forward_v I I I I #
coedge $-1 $729 $730 $731 $732 reversed $553 $-1 #
coedge $-1 $733 $555 $657 $734 forward $449 $-1 #
coedge $-1 $555 $735 $559 $662 reversed $449 $-1 #
coedge $-1 $556 $567 $655 $734 reversed $362 $-1 #
vertex $-1 $734 $736 #
straight-curve $-1 -36.605110003809564 -17.855257626629189 78.056102269312262 0.79863550430605224 0 -0.6018150307709319 I I #
straight-curve $-1 61.287270729697561 -17.855257626629189 87.974241501409693 0 0 -1 I I #
coedge $-1 $737 $559 $738 $739 forward $561 $-1 #
edge $-1 $563 -17.855257626629189 $740 28.856284801498489 $656 $741 forward 7 unknown #
coedge $-1 $560 $737 $742 $743 forward $561 $-1 #
face $-1 $744 $561 $19 $-1 $745 forward single #
point $-1 51.998911122114357 -17.855257626629189 11.288181969225363 #
point $-1 61.287270729697561 -17.855257626629189 11.288181969225368 #
point $-1 54.949626370188241 -25.713134180107261 5.5412380745524743 #
coedge $-1 $742 $746 $567 $669 forward $747 $-1 #
edge $-1 $748 -84.469803420827063 $670 -72.8395170667862 $668 $749 forward 7 unknown #
vertex $-1 $669 $750 #
straight-curve $-1 51.99891112211435 -11.67788560703192 11.28818196922537 0 1 0 I I #
edge $-1 $575 -28.856284801498489 $577 28.856284801498489 $580 $751 forward 7 unknown #
straight-curve $-1 61.287270729697561 0 11.288181969225368 0 1 0 I I #
point $-1 61.287270729697561 28.856284801498489 -11.288181969225368 #
point $-1 61.287270729697561 -28.856284801498489 -11.288181969225368 #
coedge $-1 $586 $585 $607 $683 reversed $392 $-1 #
edge $-1 $590 7.4536609060392625 $681 11.288181969225368 $589 $610 forward 7 unknown #
straight-curve $-1 -61.287270729697561 0 -7.4536609060392625 0 1 0 I I #
point $-1 -61.287270729697561 28.856284801498489 -7.4536609060392625 #
point $-1 -61.287270729697561 -28.856284801498489 -7.4536609060392625 #
vertex $-1 $603 $752 #
straight-curve $-1 0 28.856284801498489 -11.288181969225368 1 0 0 I I #
edge $-1 $608 -28.856284801498489 $681 28.856284801498489 $676 $753 forward 7 unknown #
point $-1 -61.287270729697561 -28.856284801498489 -11.288181969225368 #
face $-1 $444 $635 $18 $-1 $754 reversed single #
loop $-1 $-1 $698 $611 #
coedge $-1 $755 $756 $690 $757 forward $612 $-1 #
coedge $-1 $693 $620 $614 $689 forward $635 $-1 #
edge $-1 $625 -0.92095367823149221 $696 5.276091830103339 $688 $758 forward 7 unknown #
coedge $-1 $616 $615 $687 $757 reversed $430 $-1 #
coedge $-1 $702 $759 $615 $692 forward $641 $-1 #
edge $-1 $760 -33.857894108684803 $695 -21.000859133340722 $691 $761 forward 7 unknown #
coedge $-1 $762 $688 $616 $694 forward $635 $-1 #
edge $-1 $696 21.000859133340722 $763 33.857894108684803 $693 $764 forward 7 unknown #
vertex $-1 $692 $765 #
vertex $-1 $694 $766 #
straight-curve $-1 -48.430235754353482 0 -7.4536609060392625 0 -1 0 I I #
coedge $-1 $718 $717 $619 $699 forward $686 $-1 #
edge $-1 $703 -28.856284801498489 $700 28.856284801498489 $698 $767 forward 7 unknown #
vertex $-1 $621 $768 #
straight-curve $-1 -27.429376621012761 -28.856284801498489 -1.2566153977044312 1 0 0 I I #
coedge $-1 $622 $691 $624 $705 forward $641 $-1 #
vertex $-1 $699 $769 #
straight-curve $-1 -27.429376621012761 28.856284801498489 -1.2566153977044312 -1 0 0 I I #
edge $-1 $695 -5.276091830103339 $626 0.92095367823149221 $702 $770 forward 7 unknown #
point $-1 -48.430235754353482 -28.856284801498489 -1.2566153977044312 #
point $-1 -48.430235754353482 28.856284801498489 -1.2566153977044312 #
coedge $-1 $771 $772 $628 $709 forward $649 $-1 #
edge $-1 $715 -28.856284801498489 $711 28.856284801498489 $628 $773 forward 7 unknown #
coedge $-1 $629 $762 $771 $774 reversed $635 $-1 #
vertex $-1 $630 $775 #
straight-curve $-1 61.287270729697561 -28.856284801498489 0 0 0 -1 I I #
point $-1 61.287270729697561 -28.856284801498489 4.28890082919352 #
coedge $-1 $759 $633 $772 $776 reversed $641 $-1 #
vertex $-1 $709 $777 #
straight-curve $-1 61.287270729697561 28.856284801498489 0 0 0 -1 I I #
coedge $-1 $698 $638 $640 $720 forward $686 $-1 #
coedge $-1 $638 $698 $645 $722 reversed $686 $-1 #
straight-curve $-1 -61.287270729697561 0 11.288181969225368 0 -1 0 I I #
edge $-1 $642 -11.288181969225368 $703 1.2566153977044312 $640 $778 forward 7 unknown #
point $-1 -61.287270729697561 28.856284801498489 11.288181969225368 #
edge $-1 $646 -11.288181969225368 $700 1.2566153977044312 $718 $779 forward 7 unknown #
point $-1 -61.287270729697561 -28.856284801498489 11.288181969225368 #
plane-surface $-1 0 28.856284801498489 0 0 -1 0 0 0 -1 forward_v I I I I #
face $-1 $780 $781 $19 $-1 $782 reversed single #
loop $-1 $-1 $783 $651 #
plane-surface $-1 -48.430235754353482 0 -4.3551381518718468 -1 0 0 0 0 1 forward_v I I I I #
coedge $-1 $784 $785 $786 $787 reversed $652 $-1 #
coedge $-1 $788 $654 $789 $790 reversed $553 $-1 #
coedge $-1 $654 $788 $791 $792 reversed $553 $-1 #
coedge $-1 $793 $783 $654 $732 forward $726 $-1 #
edge $-1 $794 -28.856284801498489 $795 28.856284801498489 $731 $796 forward 7 unknown #
coedge $-1 $797 $655 $746 $798 forward $449 $-1 #
edge $-1 $658 6.1773720195972697 $748 17.178399194466571 $655 $799 forward 7 unknown #
coedge $-1 $656 $797 $800 $801 reversed $449 $-1 #
point $-1 61.287270729697561 -17.855257626629189 4.2889008291935227 #
coedge $-1 $663 $661 $802 $803 forward $561 $-1 #
coedge $-1 $800 $804 $661 $739 reversed $805 $-1 #
edge $-1 $740 -61.287270729697561 $806 61.287270729697561 $738 $807 forward 7 unknown #
vertex $-1 $662 $808 #
straight-curve $-1 61.287270729697561 0 11.288181969225368 0 1 0 I I #
coedge $-1 $809 $668 $663 $743 reversed $747 $-1 #
edge $-1 $810 -61.287270729697561 $670 51.99891112211435 $742 $811 forward 7 unknown #
face $-1 $812 $813 $19 $-1 $814 reversed single #
plane-surface $-1 0 0 11.288181969225368 0 0 1 1 0 0 forward_v I I I I #
coedge $-1 $668 $815 $733 $798 reversed $747 $-1 #
loop $-1 $-1 $668 $816 #
vertex $-1 $798 $817 #
straight-curve $-1 -6.1733133239277471 -28.856284801498489 55.124098174113122 -0.79863550430605224 0 0.6018150307709319 I I #
point $-1 51.99891112211435 -28.856284801498489 11.288181969225368 #
straight-curve $-1 61.287270729697561 0 -11.288181969225368 0 -1 0 I I #
point $-1 -61.287270729697561 28.856284801498489 -11.288181969225368 #
straight-curve $-1 -61.287270729697561 0 -11.288181969225368 0 1 0 I I #
plane-surface $-1 0 -28.856284801498489 0 0 1 0 0 0 1 forward_v I I I I #
coedge $-1 $818 $687 $759 $819 forward $612 $-1 #
coedge $-1 $687 $818 $762 $820 reversed $612 $-1 #
edge $-1 $763 -28.856284801498489 $760 28.856284801498489 $687 $821 forward 7 unknown #
straight-curve $-1 -48.430235754353482 -28.856284801498489 -2.1775690759359234 0 0 -1 I I #
coedge $-1 $691 $714 $755 $819 reversed $641 $-1 #
vertex $-1 $819 $822 #
straight-curve $-1 -27.429376621012761 28.856284801498489 -7.4536609060392625 1 0 0 I I #
coedge $-1 $710 $693 $756 $820 forward $635 $-1 #
vertex $-1 $820 $823 #
straight-curve $-1 -27.429376621012761 -28.856284801498489 -7.4536609060392625 -1 0 0 I I #
point $-1 -48.430235754353482 28.856284801498489 -7.4536609060392625 #
point $-1 -48.430235754353482 -28.856284801498489 -7.4536609060392625 #
straight-curve $-1 -61.287270729697561 0 -1.2566153977044312 0 -1 0 I I #
point $-1 -61.287270729697561 -28.856284801498489 -1.2566153977044312 #
point $-1 -61.287270729697561 28.856284801498489 -1.2566153977044312 #
straight-curve $-1 -48.430235754353482 28.856284801498489 -2.1775690759359234 0 0 1 I I #
coedge $-1 $824 $708 $710 $774 forward $649 $-1 #
coedge $-1 $708 $824 $714 $776 forward $649 $-1 #
straight-curve $-1 61.287270729697561 0 -11.288181969225368 0 -1 0 I I #
edge $-1 $711 -61.287270729697561 $825 61.287270729697561 $710 $826 forward 7 unknown #
point $-1 61.287270729697561 -28.856284801498489 -11.288181969225368 #
edge $-1 $827 -61.287270729697561 $715 61.287270729697561 $714 $828 forward 7 unknown #
point $-1 61.287270729697561 28.856284801498489 -11.288181969225368 #
straight-curve $-1 -61.287270729697561 28.856284801498489 0 0 0 -1 I I #
straight-curve $-1 -61.287270729697561 -28.856284801498489 0 0 0 -1 I I #
face $-1 $816 $829 $19 $-1 $782 reversed single #
loop $-1 $-1 $830 $725 #
plane-surface $-1 -61.287270729697561 0 0 1 0 0 0 0 -1 forward_v I I I I #
coedge $-1 $731 $786 $831 $832 reversed $726 $-1 #
coedge $-1 $833 $728 $834 $835 reversed $652 $-1 #
coedge $-1 $728 $833 $836 $837 reversed $652 $-1 #
coedge $-1 $783 $793 $728 $787 forward $726 $-1 #
edge $-1 $838 -28.856284801498489 $839 28.856284801498489 $786 $840 forward 7 unknown #
coedge $-1 $730 $729 $841 $842 reversed $553 $-1 #
coedge $-1 $831 $809 $729 $790 forward $747 $-1 #
edge $-1 $843 -33.857894108684803 $794 -21.000859133340722 $789 $844 forward 7 unknown #
coedge $-1 $804 $845 $730 $792 forward $805 $-1 #
edge $-1 $795 21.000859133340722 $846 33.857894108684803 $791 $847 forward 7 unknown #
coedge $-1 $786 $731 $845 $848 reversed $726 $-1 #
vertex $-1 $790 $849 #
vertex $-1 $792 $850 #
straight-curve $-1 -48.430235754353482 0 -1.2566153977044312 0 1 0 I I #
coedge $-1 $735 $733 $851 $852 reversed $449 $-1 #
edge $-1 $748 -4.28890082919352 $853 11.288181969225368 $733 $854 forward 7 unknown #
straight-curve $-1 61.287270729697553 -11.67788560703192 4.2889008291935298 0 -1 0 I I #
coedge $-1 $855 $738 $735 $801 forward $805 $-1 #
edge $-1 $740 -11.288181969225368 $856 11.288181969225368 $735 $857 forward 7 unknown #
coedge $-1 $858 $859 $737 $803 reversed $829 $-1 #
edge $-1 $806 -28.856284801498489 $810 28.856284801498489 $802 $860 forward 7 unknown #
coedge $-1 $738 $791 $858 $861 reversed $805 $-1 #
loop $-1 $-1 $791 $812 #
vertex $-1 $739 $862 #
straight-curve $-1 0 28.856284801498489 11.288181969225368 -1 0 0 I I #
point $-1 61.287270729697561 28.856284801498489 11.288181969225368 #
coedge $-1 $789 $742 $859 $863 forward $747 $-1 #
vertex $-1 $803 $864 #
straight-curve $-1 0 -28.856284801498489 11.288181969225368 1 0 0 I I #
face $-1 $-1 $805 $19 $-1 $865 reversed single #
loop $-1 $-1 $851 $744 #
plane-surface $-1 0 0 -11.288181969225368 0 0 1 1 0 0 forward_v I I I I #
coedge $-1 $746 $866 $867 $868 reversed $747 $-1 #
face $-1 $664 $747 $19 $-1 $869 reversed single #
point $-1 61.287270729697561 -28.856284801498489 4.28890082919352 #
coedge $-1 $756 $755 $824 $870 reversed $612 $-1 #
edge $-1 $760 7.4536609060392625 $827 11.288181969225368 $759 $778 forward 7 unknown #
edge $-1 $763 7.4536609060392625 $825 11.288181969225368 $756 $779 forward 7 unknown #
straight-curve $-1 -61.287270729697561 0 -7.4536609060392625 0 1 0 I I #
point $-1 -61.287270729697561 28.856284801498489 -7.4536609060392625 #
point $-1 -61.287270729697561 -28.856284801498489 -7.4536609060392625 #
coedge $-1 $772 $771 $818 $870 forward $649 $-1 #
vertex $-1 $870 $871 #
straight-curve $-1 0 -28.856284801498489 -11.288181969225368 -1 0 0 I I #
vertex $-1 $776 $872 #
straight-curve $-1 0 28.856284801498489 -11.288181969225368 1 0 0 I I #
loop $-1 $-1 $841 $780 #
coedge $-1 $873 $874 $833 $875 forward $781 $-1 #
coedge $-1 $836 $789 $783 $832 forward $747 $-1 #
edge $-1 $794 -0.92095367823149221 $839 5.276091830103339 $831 $876 forward 7 unknown #
coedge $-1 $785 $784 $830 $875 reversed $652 $-1 #
coedge $-1 $845 $877 $784 $835 forward $805 $-1 #
edge $-1 $878 -33.857894108684803 $838 -21.000859133340722 $834 $879 forward 7 unknown #
coedge $-1 $866 $831 $785 $837 forward $747 $-1 #
edge $-1 $839 21.000859133340722 $880 33.857894108684803 $836 $881 forward 7 unknown #
vertex $-1 $835 $882 #
vertex $-1 $837 $883 #
straight-curve $-1 -48.430235754353482 0 -7.4536609060392625 0 -1 0 I I #
coedge $-1 $859 $858 $788 $842 forward $829 $-1 #
edge $-1 $846 -28.856284801498489 $843 28.856284801498489 $841 $884 forward 7 unknown #
vertex $-1 $790 $885 #
straight-curve $-1 -27.429376621012761 -28.856284801498489 -1.2566153977044312 1 0 0 I I #
coedge $-1 $791 $834 $793 $848 forward $805 $-1 #
vertex $-1 $842 $886 #
straight-curve $-1 -27.429376621012761 28.856284801498489 -1.2566153977044312 -1 0 0 I I #
edge $-1 $838 -5.276091830103339 $795 0.92095367823149221 $845 $887 forward 7 unknown #
point $-1 -48.430235754353482 -28.856284801498489 -1.2566153977044312 #
point $-1 -48.430235754353482 28.856284801498489 -1.2566153977044312 #
coedge $-1 $867 $888 $797 $852 forward $813 $-1 #
edge $-1 $856 -28.856284801498489 $853 28.856284801498489 $797 $889 forward 7 unknown #
vertex $-1 $798 $890 #
straight-curve $-1 61.287270729697561 -28.856284801498489 0 0 0 -1 I I #
coedge $-1 $877 $800 $888 $891 reversed $805 $-1 #
vertex $-1 $852 $892 #
straight-curve $-1 61.287270729697561 28.856284801498489 0 0 0 -1 I I #
coedge $-1 $841 $802 $804 $861 forward $829 $-1 #
coedge $-1 $802 $841 $809 $863 reversed $829 $-1 #
straight-curve $-1 -61.287270729697561 0 11.288181969225368 0 -1 0 I I #
edge $-1 $806 -11.288181969225368 $846 1.2566153977044312 $804 $893 forward 7 unknown #
point $-1 -61.287270729697561 28.856284801498489 11.288181969225368 #
edge $-1 $810 -11.288181969225368 $843 1.2566153977044312 $859 $894 forward 7 unknown #
point $-1 -61.287270729697561 -28.856284801498489 11.288181969225368 #
plane-surface $-1 0 28.856284801498489 0 0 -1 0 0 0 -1 forward_v I I I I #
coedge $-1 $815 $836 $874 $895 forward $747 $-1 #
coedge $-1 $896 $851 $815 $868 forward $813 $-1 #
edge $-1 $853 -61.287270729697561 $897 61.287270729697561 $815 $898 forward 7 unknown #
plane-surface $-1 0 -28.856284801498489 0 0 1 0 0 0 1 forward_v I I I I #
edge $-1 $825 -28.856284801498489 $827 28.856284801498489 $818 $899 forward 7 unknown #
point $-1 -61.287270729697561 -28.856284801498489 -11.288181969225368 #
point $-1 -61.287270729697561 28.856284801498489 -11.288181969225368 #
coedge $-1 $900 $830 $877 $901 forward $781 $-1 #
coedge $-1 $830 $900 $866 $895 reversed $781 $-1 #
edge $-1 $880 -28.856284801498489 $878 28.856284801498489 $830 $902 forward 7 unknown #
straight-curve $-1 -48.430235754353482 -28.856284801498489 -2.1775690759359234 0 0 -1 I I #
coedge $-1 $834 $855 $873 $901 reversed $805 $-1 #
vertex $-1 $901 $903 #
straight-curve $-1 -27.429376621012761 28.856284801498489 -7.4536609060392625 1 0 0 I I #
vertex $-1 $895 $904 #
straight-curve $-1 -27.429376621012761 -28.856284801498489 -7.4536609060392625 -1 0 0 I I #
point $-1 -48.430235754353482 28.856284801498489 -7.4536609060392625 #
point $-1 -48.430235754353482 -28.856284801498489 -7.4536609060392625 #
straight-curve $-1 -61.287270729697561 0 -1.2566153977044312 0 -1 0 I I #
point $-1 -61.287270729697561 -28.856284801498489 -1.2566153977044312 #
point $-1 -61.287270729697561 28.856284801498489 -1.2566153977044312 #
straight-curve $-1 -48.430235754353482 28.856284801498489 -2.1775690759359234 0 0 1 I I #
coedge $-1 $851 $896 $855 $891 forward $813 $-1 #
straight-curve $-1 61.287270729697561 0 -11.288181969225368 0 -1 0 I I #
point $-1 61.287270729697561 -28.856284801498489 -11.288181969225368 #
edge $-1 $905 -61.287270729697561 $856 61.287270729697561 $855 $906 forward 7 unknown #
point $-1 61.287270729697561 28.856284801498489 -11.288181969225368 #
straight-curve $-1 -61.287270729697561 28.856284801498489 0 0 0 -1 I I #
straight-curve $-1 -61.287270729697561 -28.856284801498489 0 0 0 -1 I I #
edge $-1 $880 7.4536609060392625 $897 11.288181969225368 $874 $894 forward 7 unknown #
coedge $-1 $888 $867 $900 $907 forward $813 $-1 #
vertex $-1 $907 $908 #
straight-curve $-1 0 -28.856284801498489 -11.288181969225368 -1 0 0 I I #
straight-curve $-1 -61.287270729697561 0 -11.288181969225368 0 1 0 I I #
coedge $-1 $874 $873 $896 $907 reversed $781 $-1 #
edge $-1 $878 7.4536609060392625 $905 11.288181969225368 $877 $893 forward 7 unknown #
straight-curve $-1 -61.287270729697561 0 -7.4536609060392625 0 1 0 I I #
point $-1 -61.287270729697561 28.856284801498489 -7.4536609060392625 #
point $-1 -61.287270729697561 -28.856284801498489 -7.4536609060392625 #
vertex $-1 $891 $909 #
straight-curve $-1 0 28.856284801498489 -11.288181969225368 1 0 0 I I #
edge $-1 $897 -28.856284801498489 $905 28.856284801498489 $900 $910 forward 7 unknown #
point $-1 -61.287270729697561 -28.856284801498489 -11.288181969225368 #
point $-1 -61.287270729697561 28.856284801498489 -11.288181969225368 #
straight-curve $-1 -61.287270729697561 0 -11.288181969225368 0 1 0 I I #
End-of-ACIS-data 