500 0 5 0           
7 Unknown 11 ACIS 5.0 NT 24 Thu Mar 25 15:19:22 1999 
-1 9.9999999999999995e-007 1e-010 
body $-1 $5 $-1 $6 #
body $-1 $7 $-1 $8 #
body $-1 $9 $-1 $10 #
body $-1 $11 $-1 $12 #
body $-1 $13 $-1 $14 #
lump $-1 $-1 $15 $0 #
transform $-1 1 0 0 0 1 0 0 0 1 71.785637989440602 40.221164127803519 10.125564833224013 1 rotate no_reflect no_shear #
lump $-1 $-1 $16 $1 #
transform $-1 1 0 0 0 1 0 0 0 1 71.785637989440602 40.221164127803519 10.125564833224013 1 rotate no_reflect no_shear #
lump $-1 $-1 $17 $2 #
transform $-1 1 0 0 0 1 0 0 0 1 71.785637989440602 40.221164127803519 10.125564833224013 1 rotate no_reflect no_shear #
lump $-1 $-1 $18 $3 #
transform $-1 1 0 0 0 1 0 0 0 1 71.785637989440602 40.221164127803519 10.125564833224013 1 rotate no_reflect no_shear #
lump $-1 $-1 $19 $4 #
transform $-1 1 0 0 0 1 0 0 0 1 71.785637989440602 40.221164127803519 10.125564833224013 1 rotate no_reflect no_shear #
shell $-1 $-1 $-1 $20 $-1 $5 #
shell $-1 $-1 $-1 $21 $-1 $7 #
shell $-1 $-1 $-1 $22 $-1 $9 #
shell $-1 $-1 $-1 $23 $-1 $11 #
shell $-1 $-1 $-1 $24 $-1 $13 #
face $-1 $25 $26 $15 $-1 $27 forward single #
face $-1 $28 $29 $16 $-1 $30 reversed single #
face $-1 $31 $32 $17 $-1 $33 reversed single #
face $-1 $34 $35 $18 $-1 $36 reversed single #
face $-1 $37 $38 $19 $-1 $39 forward single #
face $-1 $40 $41 $15 $-1 $42 reversed single #
loop $-1 $-1 $43 $20 #
plane-surface $-1 0 0 10.125564833224013 0 0 1 1 0 0 forward_v I I I I #
face $-1 $44 $45 $16 $-1 $46 reversed single #
loop $-1 $-1 $47 $21 #
plane-surface $-1 -68.026203371174049 -33.773650441022575 0 0 1 0 0 0 1 forward_v I I I I #
face $-1 $48 $49 $17 $-1 $50 reversed single #
loop $-1 $-1 $51 $22 #
plane-surface $-1 68.026203371174063 -33.773650441022575 0 0 1 0 0 0 1 forward_v I I I I #
face $-1 $52 $53 $18 $-1 $54 reversed single #
loop $-1 $-1 $55 $23 #
plane-surface $-1 3.2187974748116268 -148.57578274387433 98.573517064302706 -1 0 0 0 -0.75470958851134928 0.65605901945558964 forward_v I I I I #
face $-1 $56 $57 $19 $-1 $58 forward single #
loop $-1 $59 $60 $24 #
cone-surface $-1 -6.3193269528828324 -35.653747846571257 5.4535124838161941 0 0.75470958851134928 -0.65605901945558964 1.5 0 0 1 I I 0 1 1.5 forward I I I I #
face $-1 $61 $62 $15 $-1 $63 reversed single #
loop $-1 $-1 $64 $25 #
plane-surface $-1 0 0 -10.125564833224013 0 0 1 1 0 0 forward_v I I I I #
coedge $-1 $65 $66 $67 $68 forward $26 $-1 #
face $-1 $69 $70 $16 $-1 $71 reversed single #
loop $-1 $-1 $72 $28 #
plane-surface $-1 -68.026203371174049 -28.396195864320482 0 0 -1 0 0 0 -1 forward_v I I I I #
coedge $-1 $73 $74 $75 $76 reversed $29 $-1 #
face $-1 $77 $78 $17 $-1 $79 reversed single #
loop $-1 $-1 $80 $31 #
plane-surface $-1 64.26676875290751 -31.084923152671529 0 1 0 0 0 0 -1 forward_v I I I I #
coedge $-1 $81 $82 $83 $84 forward $32 $-1 #
face $-1 $85 $86 $18 $-1 $87 reversed single #
loop $-1 $-1 $88 $34 #
plane-surface $-1 -6.3193269528828324 -40.221164127803533 4.3822865236100483 0 -0.75470958851134928 0.65605901945558964 1 0 0 forward_v I I I I #
coedge $-1 $89 $90 $91 $92 reversed $35 $-1 #
face $-1 $-1 $93 $19 $-1 $94 forward single #
loop $-1 $95 $96 $37 #
cone-surface $-1 -6.3193269528828324 -33.016577143327716 3.1610550246236677 0 0.75470958851134928 -0.65605901945558964 0.75 0 0 1 I I -0.70710678118654757 0.70710678118654757 0.75 forward I I I I #
loop $-1 $-1 $97 $24 #
coedge $-1 $60 $60 $98 $99 reversed $38 $-1 #
face $-1 $100 $101 $15 $-1 $102 reversed single #
loop $-1 $-1 $103 $40 #
plane-surface $-1 0 -40.221164127803519 0 0 1 0 0 0 1 forward_v I I I I #
coedge $-1 $104 $105 $106 $107 forward $41 $-1 #
coedge $-1 $108 $43 $109 $110 forward $26 $-1 #
coedge $-1 $43 $108 $111 $112 forward $26 $-1 #
coedge $-1 $113 $114 $43 $68 reversed $115 $-1 #
edge $-1 $116 -40.221164127803519 $117 40.221164127803519 $67 $118 forward 7 unknown #
face $-1 $119 $120 $16 $-1 $121 reversed single #
loop $-1 $-1 $122 $44 #
plane-surface $-1 -64.266768752907495 -31.084923152671529 0 -1 0 0 0 0 1 forward_v I I I I #
coedge $-1 $123 $124 $125 $126 forward $45 $-1 #
coedge $-1 $127 $47 $128 $129 reversed $29 $-1 #
coedge $-1 $47 $127 $130 $131 reversed $29 $-1 #
coedge $-1 $132 $133 $47 $76 forward $134 $-1 #
edge $-1 $135 -10.125564833224013 $136 10.125564833224013 $75 $137 forward 7 unknown #
face $-1 $138 $139 $17 $-1 $140 reversed single #
loop $-1 $-1 $141 $48 #
plane-surface $-1 68.026203371174063 -28.396195864320482 0 0 -1 0 0 0 -1 forward_v I I I I #
coedge $-1 $142 $143 $144 $145 forward $49 $-1 #
coedge $-1 $146 $51 $147 $148 reversed $32 $-1 #
coedge $-1 $51 $146 $149 $150 reversed $32 $-1 #
coedge $-1 $143 $142 $51 $84 reversed $49 $-1 #
edge $-1 $151 -10.125564833224013 $152 10.125564833224013 $83 $153 forward 7 unknown #
face $-1 $154 $155 $18 $-1 $156 forward single #
loop $-1 $-1 $157 $52 #
plane-surface $-1 -15.857451380577292 -148.57578274387433 98.573517064302706 1 0 0 0 0.75470958851134928 -0.65605901945558964 forward_v I I I I #
coedge $-1 $158 $159 $160 $161 reversed $53 $-1 #
coedge $-1 $90 $55 $162 $163 reversed $35 $-1 #
coedge $-1 $55 $89 $158 $164 reversed $35 $-1 #
coedge $-1 $160 $165 $55 $92 forward $155 $-1 #
edge $-1 $166 34.066727244133645 $167 39.0592827828781 $91 $168 forward 7 unknown #
loop $-1 $-1 $98 $56 #
plane-surface $-1 -6.3193269528828324 -40.221164127803533 4.3822865236100483 0 -0.75470958851134928 0.65605901945558964 1 0 0 forward_v I I I I #
loop $-1 $-1 $169 $37 #
coedge $-1 $96 $96 $97 $170 reversed $57 $-1 #
coedge $-1 $97 $97 $96 $170 forward $59 $-1 #
coedge $-1 $98 $98 $60 $99 forward $93 $-1 #
edge $-1 $171 -9.1418081457882859e-016 $171 6.2831853071795996 $98 $172 forward 7 unknown #
face $-1 $173 $174 $15 $-1 $175 reversed single #
loop $-1 $-1 $176 $61 #
plane-surface $-1 -71.785637989440602 0 0 1 0 0 0 0 -1 forward_v I I I I #
coedge $-1 $177 $111 $178 $179 forward $62 $-1 #
coedge $-1 $180 $64 $177 $181 forward $41 $-1 #
coedge $-1 $64 $180 $182 $183 forward $41 $-1 #
coedge $-1 $114 $113 $64 $107 reversed $115 $-1 #
edge $-1 $184 -40.221164127803519 $185 40.221164127803519 $106 $186 forward 7 unknown #
coedge $-1 $66 $65 $187 $188 forward $26 $-1 #
coedge $-1 $189 $190 $65 $110 reversed $174 $-1 #
edge $-1 $117 -71.785637989440602 $191 71.785637989440602 $109 $192 forward 7 unknown #
coedge $-1 $103 $193 $66 $112 reversed $62 $-1 #
edge $-1 $194 -71.785637989440602 $116 71.785637989440602 $111 $195 forward 7 unknown #
coedge $-1 $106 $67 $193 $196 forward $115 $-1 #
coedge $-1 $67 $106 $189 $197 reversed $115 $-1 #
loop $-1 $-1 $113 $173 #
vertex $-1 $68 $198 #
vertex $-1 $68 $199 #
straight-curve $-1 71.785637989440602 0 10.125564833224013 0 1 0 I I #
face $-1 $200 $201 $16 $-1 $202 forward single #
loop $-1 $-1 $203 $69 #
plane-surface $-1 0 0 -10.125564833224013 0 0 1 1 0 0 forward_v I I I I #
coedge $-1 $204 $205 $127 $206 forward $70 $-1 #
coedge $-1 $207 $72 $203 $208 reversed $45 $-1 #
coedge $-1 $72 $207 $209 $210 reversed $45 $-1 #
coedge $-1 $205 $204 $72 $126 reversed $70 $-1 #
edge $-1 $211 -10.125564833224013 $212 10.125564833224013 $125 $213 forward 7 unknown #
coedge $-1 $74 $73 $122 $206 reversed $29 $-1 #
coedge $-1 $214 $215 $73 $129 forward $120 $-1 #
edge $-1 $216 30.253667067320471 $135 37.772536303853578 $128 $217 forward 7 unknown #
coedge $-1 $218 $219 $74 $131 forward $201 $-1 #
edge $-1 $136 -37.772536303853578 $220 -30.253667067320471 $130 $221 forward 7 unknown #
coedge $-1 $222 $75 $219 $223 reversed $134 $-1 #
coedge $-1 $75 $222 $214 $224 reversed $134 $-1 #
loop $-1 $-1 $222 $200 #
vertex $-1 $224 $225 #
vertex $-1 $76 $226 #
straight-curve $-1 -71.785637989440602 -33.773650441022575 0 0 0 1 I I #
face $-1 $227 $228 $17 $-1 $229 forward single #
loop $-1 $-1 $147 $77 #
plane-surface $-1 0 0 -10.125564833224013 0 0 1 1 0 0 forward_v I I I I #
coedge $-1 $230 $231 $232 $233 reversed $78 $-1 #
coedge $-1 $83 $80 $234 $235 reversed $49 $-1 #
coedge $-1 $80 $83 $236 $237 reversed $49 $-1 #
coedge $-1 $231 $230 $80 $145 reversed $78 $-1 #
edge $-1 $238 -10.125564833224013 $239 10.125564833224013 $144 $240 forward 7 unknown #
coedge $-1 $82 $81 $241 $242 reversed $32 $-1 #
coedge $-1 $234 $243 $81 $148 forward $139 $-1 #
edge $-1 $244 -37.772536303853585 $152 -30.253667067320478 $147 $245 forward 7 unknown #
coedge $-1 $246 $236 $82 $150 forward $228 $-1 #
edge $-1 $151 30.253667067320478 $247 37.772536303853585 $149 $248 forward 7 unknown #
vertex $-1 $150 $249 #
vertex $-1 $148 $250 #
straight-curve $-1 64.26676875290751 -33.773650441022575 0 0 0 -1 I I #
face $-1 $-1 $251 $18 $-1 $252 reversed single #
loop $-1 $-1 $91 $85 #
plane-surface $-1 0 0 10.125564833224013 0 0 1 1 0 0 forward_v I I I I #
coedge $-1 $253 $254 $255 $256 reversed $86 $-1 #
coedge $-1 $257 $88 $90 $164 forward $53 $-1 #
coedge $-1 $88 $257 $253 $258 forward $53 $-1 #
coedge $-1 $255 $91 $88 $161 forward $155 $-1 #
edge $-1 $167 -6.378460951253043 $259 12.697787904135875 $160 $260 forward 7 unknown #
coedge $-1 $261 $262 $89 $163 forward $251 $-1 #
edge $-1 $263 -44.904472008541291 $166 -39.161193698927342 $162 $264 forward 7 unknown #
edge $-1 $167 -7.6099183010811844 $263 -2.1388861263899031e-014 $90 $265 forward 7 unknown #
coedge $-1 $91 $255 $261 $266 forward $155 $-1 #
vertex $-1 $92 $267 #
vertex $-1 $92 $268 #
straight-curve $-1 3.2187974748116268 -74.287891371937164 10.125564833224011 0 1 0 I I #
coedge $-1 $169 $169 $-1 $269 reversed $95 $-1 #
edge $-1 $270 0 $270 6.2831853071796004 $96 $271 forward 7 unknown #
vertex $-1 $99 $272 #
ellipse-curve $-1 -6.3193269528828324 -37.724886358431291 7.2539256784170361 0 -0.75470958851134928 0.65605901945558964 1.5 0 0 1 I I #
face $-1 $-1 $115 $15 $-1 $273 reversed single #
loop $-1 $-1 $189 $100 #
plane-surface $-1 0 40.221164127803519 0 0 -1 0 0 0 -1 forward_v I I I I #
coedge $-1 $274 $187 $190 $275 forward $101 $-1 #
coedge $-1 $193 $103 $104 $181 reversed $62 $-1 #
coedge $-1 $187 $274 $103 $179 reversed $101 $-1 #
edge $-1 $194 -10.125564833224013 $276 10.125564833224013 $178 $277 forward 7 unknown #
coedge $-1 $105 $104 $274 $278 forward $41 $-1 #
edge $-1 $185 -71.785637989440602 $276 71.785637989440602 $177 $279 forward 7 unknown #
coedge $-1 $190 $189 $105 $183 reversed $174 $-1 #
edge $-1 $280 -71.785637989440602 $184 71.785637989440602 $182 $281 forward 7 unknown #
vertex $-1 $107 $282 #
vertex $-1 $196 $283 #
straight-curve $-1 71.785637989440602 0 -10.125564833224013 0 -1 0 I I #
coedge $-1 $176 $178 $108 $188 reversed $101 $-1 #
edge $-1 $191 -40.221164127803519 $194 40.221164127803519 $187 $284 forward 7 unknown #
coedge $-1 $182 $109 $114 $197 forward $174 $-1 #
coedge $-1 $109 $182 $176 $275 reversed $174 $-1 #
vertex $-1 $110 $285 #
straight-curve $-1 0 40.221164127803519 10.125564833224013 -1 0 0 I I #
coedge $-1 $111 $177 $113 $196 reversed $62 $-1 #
vertex $-1 $188 $286 #
straight-curve $-1 0 -40.221164127803519 10.125564833224013 1 0 0 I I #
edge $-1 $116 -10.125564833224013 $185 10.125564833224013 $113 $287 forward 7 unknown #
edge $-1 $117 -10.125564833224013 $184 10.125564833224013 $114 $288 forward 7 unknown #
point $-1 71.785637989440602 -40.221164127803519 10.125564833224013 #
point $-1 71.785637989440602 40.221164127803519 10.125564833224013 #
face $-1 $-1 $134 $16 $-1 $289 reversed single #
loop $-1 $-1 $209 $119 #
plane-surface $-1 0 0 10.125564833224013 0 0 1 1 0 0 forward_v I I I I #
coedge $-1 $215 $214 $123 $208 forward $120 $-1 #
coedge $-1 $125 $122 $215 $290 reversed $70 $-1 #
coedge $-1 $122 $125 $218 $291 reversed $70 $-1 #
edge $-1 $220 -10.125564833224013 $216 10.125564833224013 $122 $292 forward 7 unknown #
coedge $-1 $124 $123 $222 $293 reversed $45 $-1 #
edge $-1 $294 -37.772536303853578 $212 -30.253667067320471 $203 $295 forward 7 unknown #
coedge $-1 $219 $218 $124 $210 forward $201 $-1 #
edge $-1 $211 30.253667067320471 $296 37.772536303853578 $209 $297 forward 7 unknown #
vertex $-1 $210 $298 #
vertex $-1 $208 $299 #
straight-curve $-1 -64.266768752907495 -28.396195864320482 0 0 0 -1 I I #
coedge $-1 $203 $128 $133 $224 forward $120 $-1 #
coedge $-1 $128 $203 $204 $290 forward $120 $-1 #
vertex $-1 $129 $300 #
straight-curve $-1 -34.013101685587024 -33.773650441022575 -10.125564833224013 -1 0 0 I I #
coedge $-1 $209 $130 $205 $291 forward $201 $-1 #
coedge $-1 $130 $209 $132 $223 forward $201 $-1 #
vertex $-1 $131 $301 #
straight-curve $-1 -34.013101685587024 -33.773650441022575 10.125564833224013 1 0 0 I I #
coedge $-1 $133 $132 $207 $293 forward $134 $-1 #
edge $-1 $296 28.396195864320482 $136 33.773650441022575 $132 $302 forward 7 unknown #
edge $-1 $135 -33.773650441022575 $294 -28.396195864320482 $133 $303 forward 7 unknown #
point $-1 -71.785637989440602 -33.773650441022575 -10.125564833224013 #
point $-1 -71.785637989440602 -33.773650441022575 10.125564833224013 #
face $-1 $-1 $304 $17 $-1 $305 reversed single #
loop $-1 $-1 $149 $138 #
plane-surface $-1 0 0 10.125564833224013 0 0 1 1 0 0 forward_v I I I I #
coedge $-1 $144 $141 $306 $307 reversed $78 $-1 #
coedge $-1 $141 $144 $308 $309 reversed $78 $-1 #
coedge $-1 $310 $311 $141 $233 forward $304 $-1 #
edge $-1 $312 -10.125564833224013 $313 10.125564833224013 $232 $314 forward 7 unknown #
coedge $-1 $306 $147 $142 $235 forward $139 $-1 #
edge $-1 $152 -18.231188864686811 $239 -12.853734287984718 $234 $315 forward 7 unknown #
coedge $-1 $149 $308 $143 $237 forward $228 $-1 #
edge $-1 $238 12.853734287984718 $151 18.231188864686811 $236 $316 forward 7 unknown #
vertex $-1 $237 $317 #
vertex $-1 $235 $318 #
straight-curve $-1 64.26676875290751 -28.396195864320482 0 0 0 -1 I I #
coedge $-1 $311 $310 $146 $242 forward $304 $-1 #
edge $-1 $247 -10.125564833224013 $244 10.125564833224013 $241 $319 forward 7 unknown #
coedge $-1 $147 $306 $311 $320 forward $139 $-1 #
vertex $-1 $242 $321 #
straight-curve $-1 34.013101685587031 -33.773650441022575 -10.125564833224013 -1 0 0 I I #
coedge $-1 $308 $149 $310 $322 forward $228 $-1 #
vertex $-1 $322 $323 #
straight-curve $-1 34.013101685587031 -33.773650441022575 10.125564833224013 1 0 0 I I #
point $-1 64.26676875290751 -33.773650441022575 10.125564833224013 #
point $-1 64.26676875290751 -33.773650441022575 -10.125564833224013 #
loop $-1 $-1 $162 $154 #
plane-surface $-1 0 -40.221164127803519 0 0 1 0 0 0 1 forward_v I I I I #
coedge $-1 $254 $157 $159 $258 reversed $86 $-1 #
coedge $-1 $157 $253 $324 $325 reversed $86 $-1 #
coedge $-1 $165 $160 $157 $256 forward $155 $-1 #
edge $-1 $259 -39.0592827828781 $326 -34.066727244133645 $255 $327 forward 7 unknown #
coedge $-1 $159 $158 $262 $328 reversed $53 $-1 #
edge $-1 $329 2.1388861263899031e-014 $259 7.6099183010811844 $253 $330 forward 7 unknown #
vertex $-1 $161 $331 #
straight-curve $-1 -3.1596634764414162 -35.228608589059064 10.125564833224013 -1 0 0 I I #
coedge $-1 $324 $162 $165 $266 reversed $251 $-1 #
coedge $-1 $162 $324 $257 $328 forward $251 $-1 #
vertex $-1 $163 $332 #
straight-curve $-1 3.2187974748116268 -40.221164127803519 49.286758532151353 0 0 1 I I #
straight-curve $-1 3.2187974748116268 -40.221164127803533 4.3822865236100483 0 -0.65605901945558964 -0.75470958851134928 I I #
edge $-1 $326 -15.857451380577292 $166 3.2187974748116268 $261 $333 forward 7 unknown #
point $-1 3.2187974748116268 -40.221164127803519 10.125564833224013 #
point $-1 3.2187974748116268 -35.228608589059064 10.125564833224013 #
edge $-1 $334 1 $334 0 $169 $-1 forward 7 unknown #
vertex $-1 $170 $335 #
ellipse-curve $-1 -6.3193269528828324 -33.582609334711229 3.6530992892153602 0 -0.75470958851134928 0.65605901945558964 1.5 0 0 1 I I #
point $-1 -4.8193269528828324 -37.724886358431284 7.2539256784170281 #
plane-surface $-1 71.785637989440602 0 0 -1 0 0 0 0 1 forward_v I I I I #
coedge $-1 $178 $176 $180 $278 reversed $101 $-1 #
edge $-1 $191 -10.125564833224013 $280 10.125564833224013 $190 $336 forward 7 unknown #
vertex $-1 $278 $337 #
straight-curve $-1 -71.785637989440602 -40.221164127803519 0 0 0 -1 I I #
edge $-1 $276 -40.221164127803519 $280 40.221164127803519 $274 $338 forward 7 unknown #
straight-curve $-1 0 -40.221164127803519 -10.125564833224013 -1 0 0 I I #
vertex $-1 $183 $339 #
straight-curve $-1 0 40.221164127803519 -10.125564833224013 1 0 0 I I #
point $-1 71.785637989440602 40.221164127803519 -10.125564833224013 #
point $-1 71.785637989440602 -40.221164127803519 -10.125564833224013 #
straight-curve $-1 -71.785637989440602 0 10.125564833224013 0 -1 0 I I #
point $-1 -71.785637989440602 40.221164127803519 10.125564833224013 #
point $-1 -71.785637989440602 -40.221164127803519 10.125564833224013 #
straight-curve $-1 71.785637989440602 -40.221164127803519 0 0 0 -1 I I #
straight-curve $-1 71.785637989440602 40.221164127803519 0 0 0 -1 I I #
plane-surface $-1 -71.785637989440602 0 0 1 0 0 0 0 -1 forward_v I I I I #
edge $-1 $212 12.853734287984718 $216 18.231188864686811 $215 $340 forward 7 unknown #
edge $-1 $220 -18.231188864686811 $211 -12.853734287984718 $218 $341 forward 7 unknown #
straight-curve $-1 -64.266768752907495 -33.773650441022575 0 0 0 -1 I I #
edge $-1 $296 -10.125564833224013 $294 10.125564833224013 $222 $342 forward 7 unknown #
vertex $-1 $293 $343 #
straight-curve $-1 -34.013101685587024 -28.396195864320482 -10.125564833224013 1 0 0 I I #
vertex $-1 $223 $344 #
straight-curve $-1 -34.013101685587024 -28.396195864320482 10.125564833224013 -1 0 0 I I #
point $-1 -64.266768752907495 -28.396195864320482 10.125564833224013 #
point $-1 -64.266768752907495 -28.396195864320482 -10.125564833224013 #
point $-1 -64.266768752907495 -33.773650441022575 -10.125564833224013 #
point $-1 -64.266768752907495 -33.773650441022575 10.125564833224013 #
straight-curve $-1 -71.785637989440602 0 10.125564833224013 0 -1 0 I I #
straight-curve $-1 -71.785637989440602 0 -10.125564833224013 0 1 0 I I #
loop $-1 $-1 $241 $227 #
plane-surface $-1 71.785637989440602 0 0 -1 0 0 0 0 1 forward_v I I I I #
coedge $-1 $243 $234 $230 $307 forward $139 $-1 #
edge $-1 $239 30.253667067320478 $312 37.772536303853585 $306 $345 forward 7 unknown #
coedge $-1 $236 $246 $231 $309 forward $228 $-1 #
edge $-1 $313 -37.772536303853585 $238 -30.253667067320478 $308 $346 forward 7 unknown #
coedge $-1 $241 $232 $246 $322 reversed $304 $-1 #
coedge $-1 $232 $241 $243 $320 reversed $304 $-1 #
vertex $-1 $320 $347 #
vertex $-1 $233 $348 #
straight-curve $-1 71.785637989440602 -28.396195864320482 0 0 0 1 I I #
straight-curve $-1 64.26676875290751 -15.542461576335764 -10.125564833224013 0 1 0 I I #
straight-curve $-1 64.26676875290751 -15.542461576335764 10.125564833224013 0 -1 0 I I #
point $-1 64.26676875290751 -28.396195864320482 10.125564833224013 #
point $-1 64.26676875290751 -28.396195864320482 -10.125564833224013 #
straight-curve $-1 71.785637989440602 -33.773650441022575 0 0 0 -1 I I #
edge $-1 $312 28.396195864320482 $244 33.773650441022575 $311 $349 forward 7 unknown #
point $-1 71.785637989440616 -33.773650441022575 -10.125564833224013 #
edge $-1 $247 -33.773650441022575 $313 -28.396195864320482 $310 $350 forward 7 unknown #
point $-1 71.785637989440616 -33.773650441022575 10.125564833224013 #
coedge $-1 $262 $261 $254 $325 forward $251 $-1 #
edge $-1 $326 39.161193698927342 $329 44.904472008541291 $324 $351 forward 7 unknown #
vertex $-1 $266 $352 #
straight-curve $-1 -15.857451380577292 -74.287891371937164 10.125564833224011 0 -1 0 I I #
edge $-1 $329 -12.697787904135875 $263 6.378460951253043 $262 $353 forward 7 unknown #
vertex $-1 $328 $354 #
straight-curve $-1 -15.857451380577292 -40.221164127803533 4.3822865236100483 0 0.65605901945558964 0.75470958851134928 I I #
point $-1 -15.857451380577292 -35.228608589059064 10.125564833224013 #
point $-1 3.2187974748116268 -40.221164127803519 4.3822865236100643 #
straight-curve $-1 0 -40.221164127803519 10.125564833224013 1 0 0 I I #
vertex $-1 $269 $355 #
point $-1 -4.8193269528828324 -33.582609334711229 3.6530992892153602 #
straight-curve $-1 -71.785637989440602 40.221164127803519 0 0 0 -1 I I #
point $-1 -71.785637989440602 -40.221164127803519 -10.125564833224013 #
straight-curve $-1 -71.785637989440602 0 -10.125564833224013 0 1 0 I I #
point $-1 -71.785637989440602 40.221164127803519 -10.125564833224013 #
straight-curve $-1 -64.266768752907495 -15.542461576335764 -10.125564833224013 0 -1 0 I I #
straight-curve $-1 -64.266768752907495 -15.542461576335764 10.125564833224013 0 1 0 I I #
straight-curve $-1 -71.785637989440602 -28.396195864320482 0 0 0 -1 I I #
point $-1 -71.785637989440602 -28.396195864320482 -10.125564833224013 #
point $-1 -71.785637989440602 -28.396195864320482 10.125564833224013 #
straight-curve $-1 34.013101685587031 -28.396195864320482 -10.125564833224013 1 0 0 I I #
straight-curve $-1 34.013101685587031 -28.396195864320482 10.125564833224013 -1 0 0 I I #
point $-1 71.785637989440616 -28.396195864320482 -10.125564833224013 #
point $-1 71.785637989440616 -28.396195864320482 10.125564833224013 #
straight-curve $-1 71.785637989440602 0 -10.125564833224013 0 -1 0 I I #
straight-curve $-1 71.785637989440602 0 10.125564833224013 0 1 0 I I #
straight-curve $-1 -15.857451380577292 -40.221164127803519 49.286758532151353 0 0 -1 I I #
point $-1 -15.857451380577292 -40.221164127803519 10.125564833224013 #
straight-curve $-1 -3.1596634764414162 -40.221164127803519 4.3822865236100679 1 0 0 I I #
point $-1 -15.857451380577292 -40.221164127803519 4.3822865236100643 #
point $-1 -6.3193269528828324 -32.450544951944202 2.6690107600319752 #
End-of-ACIS-data 