500 0 10 0           
7 Unknown 11 ACIS 5.0 NT 24 Fri Mar 26 01:20:18 1999 
-1 9.9999999999999995e-007 1e-010 
body $-1 $10 $-1 $11 #
body $-1 $12 $-1 $13 #
body $-1 $14 $-1 $15 #
body $-1 $16 $-1 $17 #
body $-1 $18 $-1 $19 #
body $-1 $20 $-1 $21 #
body $-1 $22 $-1 $23 #
body $-1 $24 $-1 $25 #
body $-1 $26 $-1 $27 #
body $-1 $28 $-1 $29 #
lump $-1 $-1 $30 $0 #
transform $-1 1 0 0 0 1 0 0 0 1 62.575151829584641 29.596154302332739 11.196897085752978 1 rotate no_reflect no_shear #
lump $-1 $-1 $31 $1 #
transform $-1 1 0 0 0 1 0 0 0 1 62.575151829584641 29.596154302332739 11.196897085752978 1 rotate no_reflect no_shear #
lump $-1 $-1 $32 $2 #
transform $-1 1 0 0 0 1 0 0 0 1 62.575151829584641 29.596154302332739 11.196897085752978 1 rotate no_reflect no_shear #
lump $-1 $-1 $33 $3 #
transform $-1 1 0 0 0 1 0 0 0 1 62.575151829584641 29.596154302332739 11.196897085752978 1 rotate no_reflect no_shear #
lump $-1 $-1 $34 $4 #
transform $-1 1 0 0 0 1 0 0 0 1 62.575151829584641 29.596154302332739 11.196897085752978 1 rotate no_reflect no_shear #
lump $-1 $-1 $35 $5 #
transform $-1 1 0 0 0 1 0 0 0 1 62.575151829584641 29.596154302332739 11.196897085752978 1 rotate no_reflect no_shear #
lump $-1 $-1 $36 $6 #
transform $-1 1 0 0 0 1 0 0 0 1 62.575151829584641 29.596154302332739 11.196897085752978 1 rotate no_reflect no_shear #
lump $-1 $-1 $37 $7 #
transform $-1 1 0 0 0 1 0 0 0 1 62.575151829584641 29.596154302332739 11.196897085752978 1 rotate no_reflect no_shear #
lump $-1 $-1 $38 $8 #
transform $-1 1 0 0 0 1 0 0 0 1 62.575151829584641 29.596154302332739 11.196897085752978 1 rotate no_reflect no_shear #
lump $-1 $-1 $39 $9 #
transform $-1 1 0 0 0 1 0 0 0 1 62.575151829584641 29.596154302332739 11.196897085752978 1 rotate no_reflect no_shear #
shell $-1 $-1 $-1 $40 $-1 $10 #
shell $-1 $-1 $-1 $41 $-1 $12 #
shell $-1 $-1 $-1 $42 $-1 $14 #
shell $-1 $-1 $-1 $43 $-1 $16 #
shell $-1 $-1 $-1 $44 $-1 $18 #
shell $-1 $-1 $-1 $45 $-1 $20 #
shell $-1 $-1 $-1 $46 $-1 $22 #
shell $-1 $-1 $-1 $47 $-1 $24 #
shell $-1 $-1 $-1 $48 $-1 $26 #
shell $-1 $-1 $-1 $49 $-1 $28 #
face $-1 $50 $51 $30 $-1 $52 forward single #
face $-1 $53 $54 $31 $-1 $55 reversed single #
face $-1 $56 $57 $32 $-1 $58 reversed single #
face $-1 $59 $60 $33 $-1 $61 forward single #
face $-1 $62 $63 $34 $-1 $64 forward single #
face $-1 $65 $66 $35 $-1 $67 forward single #
face $-1 $68 $69 $36 $-1 $70 reversed single #
face $-1 $71 $72 $37 $-1 $73 forward single #
face $-1 $74 $75 $38 $-1 $76 forward single #
face $-1 $77 $78 $39 $-1 $79 forward single #
face $-1 $80 $81 $30 $-1 $82 reversed single #
loop $-1 $-1 $83 $40 #
plane-surface $-1 0 0 11.196897085752978 0 0 1 1 0 0 forward_v I I I I #
face $-1 $84 $85 $31 $-1 $86 reversed single #
loop $-1 $-1 $87 $41 #
plane-surface $-1 -57.342622817800645 0 8.1968970857529779 0 0 1 1 0 0 forward_v I I I I #
face $-1 $88 $89 $32 $-1 $90 reversed single #
loop $-1 $-1 $91 $42 #
plane-surface $-1 -39.797855645796439 55.270074778395397 136.10913104625078 1 0 0 0 -0.5877852598018023 -0.80901698891910034 forward_v I I I I #
face $-1 $92 $93 $33 $-1 $94 forward single #
loop $-1 $95 $96 $43 #
cone-surface $-1 -34.34909022019778 21.41961001061458 4.9198241308079034 0 -0.5877852598018023 -0.80901698891910034 1.5 0 0 1 I I 0 1 1.5 forward I I I I #
face $-1 $97 $98 $34 $-1 $99 forward single #
loop $-1 $100 $101 $44 #
cone-surface $-1 -26.175942081799782 21.41961001061458 4.9198241308079034 0 -0.5877852598018023 -0.80901698891910034 1.5 0 0 1 I I 0 1 1.5 forward I I I I #
face $-1 $102 $103 $35 $-1 $104 forward single #
loop $-1 $105 $106 $45 #
cone-surface $-1 -18.002793943401784 21.41961001061458 4.9198241308079034 0 -0.5877852598018023 -0.80901698891910034 1.5 0 0 1 I I 0 1 1.5 forward I I I I #
face $-1 $107 $108 $36 $-1 $109 reversed single #
loop $-1 $-1 $110 $46 #
plane-surface $-1 17.5447671720042 55.270074778395397 136.10913104625078 1 0 0 0 -0.5877852598018023 -0.80901698891910034 forward_v I I I I #
face $-1 $111 $112 $37 $-1 $113 forward single #
loop $-1 $114 $115 $47 #
cone-surface $-1 22.993532597602865 21.41961001061458 4.9198241308079034 0 -0.5877852598018023 -0.80901698891910034 1.5 0 0 1 I I 0 1 1.5 forward I I I I #
face $-1 $116 $117 $38 $-1 $118 forward single #
loop $-1 $119 $120 $48 #
cone-surface $-1 31.166680736000856 21.41961001061458 4.9198241308079034 0 -0.5877852598018023 -0.80901698891910034 1.5 0 0 1 I I 0 1 1.5 forward I I I I #
face $-1 $121 $122 $39 $-1 $123 forward single #
loop $-1 $124 $125 $49 #
cone-surface $-1 39.339828874398862 21.41961001061458 4.9198241308079034 0 -0.5877852598018023 -0.80901698891910034 1.5 0 0 1 I I 0 1 1.5 forward I I I I #
face $-1 $126 $127 $30 $-1 $128 reversed single #
loop $-1 $-1 $129 $50 #
plane-surface $-1 0 0 -11.196897085752978 0 0 1 1 0 0 forward_v I I I I #
coedge $-1 $130 $131 $132 $133 forward $51 $-1 #
face $-1 $134 $135 $31 $-1 $136 reversed single #
loop $-1 $-1 $137 $53 #
plane-surface $-1 -52.11009380601665 0 9.6968970857529779 -1 0 0 0 0 1 forward_v I I I I #
coedge $-1 $138 $139 $140 $141 forward $54 $-1 #
face $-1 $142 $143 $32 $-1 $144 reversed single #
loop $-1 $-1 $145 $56 #
plane-surface $-1 -26.175942081799782 -18.29142897218388 34.860409217598573 0 0.5877852598018023 0.80901698891910034 1 0 0 forward_v I I I I #
coedge $-1 $146 $147 $148 $149 reversed $57 $-1 #
face $-1 $-1 $150 $33 $-1 $151 forward single #
loop $-1 $152 $153 $59 #
cone-surface $-1 -34.34909022019778 20.461003592616333 3.6004156139815908 0 -0.5877852598018023 -0.80901698891910034 0.75 0 0 1 I I -0.70710678118654757 0.70710678118654757 0.75 forward I I I I #
loop $-1 $-1 $154 $43 #
coedge $-1 $96 $96 $155 $156 reversed $60 $-1 #
face $-1 $-1 $157 $34 $-1 $158 forward single #
loop $-1 $159 $160 $62 #
cone-surface $-1 -26.175942081799782 20.461003592616333 3.6004156139815908 0 -0.5877852598018023 -0.80901698891910034 0.75 0 0 1 I I -0.70710678118654757 0.70710678118654757 0.75 forward I I I I #
loop $-1 $-1 $161 $44 #
coedge $-1 $101 $101 $162 $163 reversed $63 $-1 #
face $-1 $-1 $164 $35 $-1 $165 forward single #
loop $-1 $166 $167 $65 #
cone-surface $-1 -18.002793943401784 20.461003592616333 3.6004156139815908 0 -0.5877852598018023 -0.80901698891910034 0.75 0 0 1 I I -0.70710678118654757 0.70710678118654757 0.75 forward I I I I #
loop $-1 $-1 $168 $45 #
coedge $-1 $106 $106 $169 $170 reversed $66 $-1 #
face $-1 $171 $172 $36 $-1 $173 reversed single #
loop $-1 $-1 $174 $68 #
plane-surface $-1 31.166680736000856 -18.29142897218388 34.860409217598573 0 0.5877852598018023 0.80901698891910034 1 0 0 forward_v I I I I #
coedge $-1 $175 $176 $177 $178 reversed $69 $-1 #
face $-1 $-1 $179 $37 $-1 $180 forward single #
loop $-1 $181 $182 $71 #
cone-surface $-1 22.993532597602865 20.461003592616333 3.6004156139815908 0 -0.5877852598018023 -0.80901698891910034 0.75 0 0 1 I I -0.70710678118654757 0.70710678118654757 0.75 forward I I I I #
loop $-1 $-1 $183 $47 #
coedge $-1 $115 $115 $184 $185 reversed $72 $-1 #
face $-1 $-1 $186 $38 $-1 $187 forward single #
loop $-1 $188 $189 $74 #
cone-surface $-1 31.166680736000856 20.461003592616333 3.6004156139815908 0 -0.5877852598018023 -0.80901698891910034 0.75 0 0 1 I I -0.70710678118654757 0.70710678118654757 0.75 forward I I I I #
loop $-1 $-1 $190 $48 #
coedge $-1 $120 $120 $191 $192 reversed $75 $-1 #
face $-1 $-1 $193 $39 $-1 $194 forward single #
loop $-1 $195 $196 $77 #
cone-surface $-1 39.339828874398862 20.461003592616333 3.6004156139815908 0 -0.5877852598018023 -0.80901698891910034 0.75 0 0 1 I I -0.70710678118654757 0.70710678118654757 0.75 forward I I I I #
loop $-1 $-1 $197 $49 #
coedge $-1 $125 $125 $198 $199 reversed $78 $-1 #
face $-1 $200 $201 $30 $-1 $202 reversed single #
loop $-1 $-1 $203 $80 #
plane-surface $-1 0 -29.596154302332739 0 0 1 0 0 0 1 forward_v I I I I #
coedge $-1 $204 $205 $206 $207 forward $81 $-1 #
coedge $-1 $208 $83 $209 $210 forward $51 $-1 #
coedge $-1 $83 $208 $211 $212 forward $51 $-1 #
coedge $-1 $213 $214 $83 $133 reversed $215 $-1 #
edge $-1 $216 -29.596154302332739 $217 29.596154302332739 $132 $218 forward 7 unknown #
face $-1 $219 $220 $31 $-1 $221 reversed single #
loop $-1 $-1 $222 $84 #
plane-surface $-1 0 29.596154302332739 0 0 -1 0 0 0 -1 forward_v I I I I #
coedge $-1 $140 $223 $224 $225 reversed $85 $-1 #
coedge $-1 $226 $87 $227 $228 reversed $54 $-1 #
coedge $-1 $87 $226 $229 $230 reversed $54 $-1 #
coedge $-1 $231 $137 $87 $141 reversed $85 $-1 #
edge $-1 $232 -29.596154302332739 $233 29.596154302332739 $140 $234 forward 7 unknown #
face $-1 $235 $236 $32 $-1 $237 forward single #
loop $-1 $-1 $238 $88 #
plane-surface $-1 -12.554028517803125 55.270074778395397 136.10913104625078 -1 0 0 0 0.5877852598018023 0.80901698891910034 forward_v I I I I #
coedge $-1 $239 $240 $241 $242 reversed $89 $-1 #
coedge $-1 $147 $91 $243 $244 reversed $57 $-1 #
coedge $-1 $91 $146 $239 $245 reversed $57 $-1 #
coedge $-1 $241 $246 $91 $149 forward $236 $-1 #
edge $-1 $247 -1.9611169131350401 $248 13.356436724007501 $148 $249 forward 7 unknown #
loop $-1 $-1 $155 $92 #
plane-surface $-1 -26.175942081799782 -18.29142897218388 34.860409217598573 0 0.5877852598018023 0.80901698891910034 1 0 0 forward_v I I I I #
loop $-1 $-1 $250 $59 #
coedge $-1 $153 $153 $154 $251 reversed $93 $-1 #
coedge $-1 $154 $154 $153 $251 forward $95 $-1 #
coedge $-1 $155 $155 $96 $156 forward $150 $-1 #
edge $-1 $252 5.2013437286777665e-016 $252 6.2831853071796013 $155 $253 forward 7 unknown #
loop $-1 $-1 $162 $97 #
plane-surface $-1 -26.175942081799782 -18.29142897218388 34.860409217598573 0 0.5877852598018023 0.80901698891910034 1 0 0 forward_v I I I I #
loop $-1 $-1 $254 $62 #
coedge $-1 $160 $160 $161 $255 reversed $98 $-1 #
coedge $-1 $161 $161 $160 $255 forward $100 $-1 #
coedge $-1 $162 $162 $101 $163 forward $157 $-1 #
edge $-1 $256 5.2013437286777665e-016 $256 6.2831853071796013 $162 $257 forward 7 unknown #
loop $-1 $-1 $169 $102 #
plane-surface $-1 -26.175942081799782 -18.29142897218388 34.860409217598573 0 0.5877852598018023 0.80901698891910034 1 0 0 forward_v I I I I #
loop $-1 $-1 $258 $65 #
coedge $-1 $167 $167 $168 $259 reversed $103 $-1 #
coedge $-1 $168 $168 $167 $259 forward $105 $-1 #
coedge $-1 $169 $169 $106 $170 forward $164 $-1 #
edge $-1 $260 5.2013437286777665e-016 $260 6.2831853071796013 $169 $261 forward 7 unknown #
face $-1 $262 $263 $36 $-1 $264 forward single #
loop $-1 $-1 $265 $107 #
plane-surface $-1 44.788594299997513 55.270074778395397 136.10913104625078 -1 0 0 0 0.5877852598018023 0.80901698891910034 forward_v I I I I #
coedge $-1 $266 $267 $268 $269 reversed $108 $-1 #
coedge $-1 $176 $110 $270 $271 reversed $69 $-1 #
coedge $-1 $110 $175 $266 $272 reversed $69 $-1 #
coedge $-1 $268 $273 $110 $178 forward $263 $-1 #
edge $-1 $274 -1.9611169131350401 $275 13.356436724007501 $177 $276 forward 7 unknown #
loop $-1 $-1 $184 $111 #
plane-surface $-1 31.166680736000856 -18.29142897218388 34.860409217598573 0 0.5877852598018023 0.80901698891910034 1 0 0 forward_v I I I I #
loop $-1 $-1 $277 $71 #
coedge $-1 $182 $182 $183 $278 reversed $112 $-1 #
coedge $-1 $183 $183 $182 $278 forward $114 $-1 #
coedge $-1 $184 $184 $115 $185 forward $179 $-1 #
edge $-1 $279 5.2013437286777665e-016 $279 6.2831853071796013 $184 $280 forward 7 unknown #
loop $-1 $-1 $191 $116 #
plane-surface $-1 31.166680736000856 -18.29142897218388 34.860409217598573 0 0.5877852598018023 0.80901698891910034 1 0 0 forward_v I I I I #
loop $-1 $-1 $281 $74 #
coedge $-1 $189 $189 $190 $282 reversed $117 $-1 #
coedge $-1 $190 $190 $189 $282 forward $119 $-1 #
coedge $-1 $191 $191 $120 $192 forward $186 $-1 #
edge $-1 $283 5.2013437286777665e-016 $283 6.2831853071796013 $191 $284 forward 7 unknown #
loop $-1 $-1 $198 $121 #
plane-surface $-1 31.166680736000856 -18.29142897218388 34.860409217598573 0 0.5877852598018023 0.80901698891910034 1 0 0 forward_v I I I I #
loop $-1 $-1 $285 $77 #
coedge $-1 $196 $196 $197 $286 reversed $122 $-1 #
coedge $-1 $197 $197 $196 $286 forward $124 $-1 #
coedge $-1 $198 $198 $125 $199 forward $193 $-1 #
edge $-1 $287 5.2013437286777665e-016 $287 6.2831853071796013 $198 $288 forward 7 unknown #
face $-1 $289 $290 $30 $-1 $291 reversed single #
loop $-1 $-1 $292 $126 #
plane-surface $-1 -62.575151829584641 0 0 1 0 0 0 0 -1 forward_v I I I I #
coedge $-1 $293 $211 $294 $295 forward $127 $-1 #
coedge $-1 $296 $129 $293 $297 forward $81 $-1 #
coedge $-1 $129 $296 $298 $299 forward $81 $-1 #
coedge $-1 $214 $213 $129 $207 reversed $215 $-1 #
edge $-1 $300 -29.596154302332739 $301 29.596154302332739 $206 $302 forward 7 unknown #
coedge $-1 $131 $130 $303 $304 forward $51 $-1 #
coedge $-1 $305 $306 $130 $210 reversed $290 $-1 #
edge $-1 $217 -62.575151829584641 $307 62.575151829584641 $209 $308 forward 7 unknown #
coedge $-1 $203 $309 $131 $212 reversed $127 $-1 #
edge $-1 $310 -62.575151829584641 $216 62.575151829584641 $211 $311 forward 7 unknown #
coedge $-1 $206 $132 $309 $312 forward $215 $-1 #
coedge $-1 $132 $206 $305 $313 reversed $215 $-1 #
loop $-1 $-1 $213 $289 #
vertex $-1 $133 $314 #
vertex $-1 $133 $315 #
straight-curve $-1 62.575151829584641 0 11.196897085752978 0 1 0 I I #
face $-1 $316 $317 $31 $-1 $318 forward single #
loop $-1 $-1 $319 $134 #
plane-surface $-1 -62.575151829584641 0 0 1 0 0 0 0 -1 forward_v I I I I #
coedge $-1 $229 $320 $231 $321 forward $135 $-1 #
coedge $-1 $137 $231 $322 $323 reversed $85 $-1 #
coedge $-1 $324 $227 $137 $225 forward $325 $-1 #
edge $-1 $233 3.348448542876489 $326 6.348448542876489 $224 $327 forward 7 unknown #
coedge $-1 $139 $138 $319 $328 reversed $54 $-1 #
coedge $-1 $224 $329 $138 $228 forward $325 $-1 #
edge $-1 $330 -33.903840420684318 $233 -23.438782397116327 $227 $331 forward 7 unknown #
coedge $-1 $332 $222 $139 $230 forward $135 $-1 #
edge $-1 $232 23.438782397116327 $333 33.903840420684318 $229 $334 forward 7 unknown #
coedge $-1 $223 $140 $222 $321 reversed $85 $-1 #
vertex $-1 $230 $335 #
vertex $-1 $228 $336 #
straight-curve $-1 -52.11009380601665 0 8.1968970857529779 0 -1 0 I I #
face $-1 $-1 $337 $32 $-1 $338 reversed single #
loop $-1 $-1 $148 $142 #
plane-surface $-1 0 0 11.196897085752978 0 0 1 1 0 0 forward_v I I I I #
coedge $-1 $339 $340 $341 $342 reversed $143 $-1 #
coedge $-1 $343 $145 $147 $245 forward $89 $-1 #
coedge $-1 $145 $343 $339 $344 forward $89 $-1 #
coedge $-1 $341 $148 $145 $242 forward $236 $-1 #
edge $-1 $248 -26.709884604896548 $345 0.5339425230967656 $241 $346 forward 7 unknown #
coedge $-1 $347 $348 $146 $244 forward $337 $-1 #
edge $-1 $349 -67.986522796988567 $247 -56.857668437372411 $243 $350 forward 7 unknown #
edge $-1 $248 40.258770932474192 $349 59.19230860466547 $147 $351 forward 7 unknown #
coedge $-1 $148 $341 $347 $352 forward $236 $-1 #
vertex $-1 $244 $353 #
vertex $-1 $149 $354 #
straight-curve $-1 -39.797855645796439 27.635037389197699 11.19689708575298 0 -1 0 I I #
coedge $-1 $250 $250 $-1 $355 reversed $152 $-1 #
edge $-1 $356 0 $356 6.2831853071796004 $153 $357 forward 7 unknown #
vertex $-1 $156 $358 #
ellipse-curve $-1 -34.34909022019778 21.937377483761477 5.6324699059448973 0 0.5877852598018023 0.80901698891910034 1.5 0 0 1 I I #
coedge $-1 $254 $254 $-1 $359 reversed $159 $-1 #
edge $-1 $360 0 $360 6.2831853071796004 $160 $361 forward 7 unknown #
vertex $-1 $163 $362 #
ellipse-curve $-1 -26.175942081799782 21.937377483761477 5.6324699059448973 0 0.5877852598018023 0.80901698891910034 1.5 0 0 1 I I #
coedge $-1 $258 $258 $-1 $363 reversed $166 $-1 #
edge $-1 $364 0 $364 6.2831853071796004 $167 $365 forward 7 unknown #
vertex $-1 $170 $366 #
ellipse-curve $-1 -18.002793943401784 21.937377483761477 5.6324699059448973 0 0.5877852598018023 0.80901698891910034 1.5 0 0 1 I I #
face $-1 $-1 $367 $36 $-1 $368 reversed single #
loop $-1 $-1 $177 $171 #
plane-surface $-1 0 0 11.196897085752978 0 0 1 1 0 0 forward_v I I I I #
coedge $-1 $369 $370 $371 $372 reversed $172 $-1 #
coedge $-1 $373 $174 $176 $272 forward $108 $-1 #
coedge $-1 $174 $373 $369 $374 forward $108 $-1 #
coedge $-1 $371 $177 $174 $269 forward $263 $-1 #
edge $-1 $275 1.9614268040037715 $375 29.205253931997085 $268 $376 forward 7 unknown #
coedge $-1 $377 $378 $175 $271 forward $367 $-1 #
edge $-1 $379 -67.986522796988567 $274 -56.857668437372411 $270 $380 forward 7 unknown #
edge $-1 $275 40.258770932474192 $379 59.19230860466547 $176 $381 forward 7 unknown #
coedge $-1 $177 $371 $377 $382 forward $263 $-1 #
vertex $-1 $178 $383 #
vertex $-1 $178 $384 #
straight-curve $-1 17.5447671720042 27.635037389197699 11.19689708575298 0 -1 0 I I #
coedge $-1 $277 $277 $-1 $385 reversed $181 $-1 #
edge $-1 $386 0 $386 6.2831853071796004 $182 $387 forward 7 unknown #
vertex $-1 $185 $388 #
ellipse-curve $-1 22.993532597602865 21.937377483761477 5.6324699059448973 0 0.5877852598018023 0.80901698891910034 1.5 0 0 1 I I #
coedge $-1 $281 $281 $-1 $389 reversed $188 $-1 #
edge $-1 $390 0 $390 6.2831853071796004 $189 $391 forward 7 unknown #
vertex $-1 $192 $392 #
ellipse-curve $-1 31.166680736000856 21.937377483761477 5.6324699059448973 0 0.5877852598018023 0.80901698891910034 1.5 0 0 1 I I #
coedge $-1 $285 $285 $-1 $393 reversed $195 $-1 #
edge $-1 $394 0 $394 6.2831853071796004 $196 $395 forward 7 unknown #
vertex $-1 $199 $396 #
ellipse-curve $-1 39.339828874398862 21.937377483761477 5.6324699059448973 0 0.5877852598018023 0.80901698891910034 1.5 0 0 1 I I #
face $-1 $-1 $215 $30 $-1 $397 reversed single #
loop $-1 $-1 $305 $200 #
plane-surface $-1 0 29.596154302332739 0 0 -1 0 0 0 -1 forward_v I I I I #
coedge $-1 $398 $303 $306 $399 forward $201 $-1 #
coedge $-1 $309 $203 $204 $297 reversed $127 $-1 #
coedge $-1 $303 $398 $203 $295 reversed $201 $-1 #
edge $-1 $310 -11.196897085752978 $400 11.196897085752978 $294 $401 forward 7 unknown #
coedge $-1 $205 $204 $398 $402 forward $81 $-1 #
edge $-1 $301 -62.575151829584641 $400 62.575151829584641 $293 $403 forward 7 unknown #
coedge $-1 $306 $305 $205 $299 reversed $290 $-1 #
edge $-1 $404 -62.575151829584641 $300 62.575151829584641 $298 $405 forward 7 unknown #
vertex $-1 $207 $406 #
vertex $-1 $312 $407 #
straight-curve $-1 62.575151829584641 0 -11.196897085752978 0 -1 0 I I #
coedge $-1 $292 $294 $208 $304 reversed $201 $-1 #
edge $-1 $307 -29.596154302332739 $310 29.596154302332739 $303 $408 forward 7 unknown #
coedge $-1 $298 $209 $214 $313 forward $290 $-1 #
coedge $-1 $209 $298 $292 $399 reversed $290 $-1 #
vertex $-1 $210 $409 #
straight-curve $-1 0 29.596154302332739 11.196897085752978 -1 0 0 I I #
coedge $-1 $211 $293 $213 $312 reversed $127 $-1 #
vertex $-1 $304 $410 #
straight-curve $-1 0 -29.596154302332739 11.196897085752978 1 0 0 I I #
edge $-1 $216 -11.196897085752978 $301 11.196897085752978 $213 $411 forward 7 unknown #
edge $-1 $217 -11.196897085752978 $300 11.196897085752978 $214 $412 forward 7 unknown #
point $-1 62.575151829584641 -29.596154302332739 11.196897085752978 #
point $-1 62.575151829584641 29.596154302332739 11.196897085752978 #
face $-1 $-1 $325 $31 $-1 $413 reversed single #
loop $-1 $-1 $322 $219 #
plane-surface $-1 0 0 11.196897085752978 0 0 1 1 0 0 forward_v I I I I #
coedge $-1 $414 $415 $226 $328 forward $220 $-1 #
coedge $-1 $222 $332 $416 $417 reversed $135 $-1 #
edge $-1 $418 -6.348448542876489 $232 -3.348448542876489 $222 $419 forward 7 unknown #
coedge $-1 $416 $420 $223 $323 forward $317 $-1 #
edge $-1 $326 -29.596154302332739 $418 29.596154302332739 $322 $421 forward 7 unknown #
coedge $-1 $329 $224 $420 $422 reversed $325 $-1 #
loop $-1 $-1 $224 $316 #
vertex $-1 $225 $423 #
straight-curve $-1 -52.11009380601665 -29.596154302332739 4.848448542876489 0 0 1 I I #
edge $-1 $333 -29.596154302332739 $330 29.596154302332739 $319 $424 forward 7 unknown #
coedge $-1 $227 $324 $414 $425 forward $325 $-1 #
vertex $-1 $328 $426 #
straight-curve $-1 -28.671311408900323 -29.596154302332739 8.1968970857529779 1 0 0 I I #
coedge $-1 $320 $229 $415 $427 reversed $135 $-1 #
vertex $-1 $328 $428 #
straight-curve $-1 -28.671311408900323 29.596154302332739 8.1968970857529779 -1 0 0 I I #
point $-1 -52.11009380601665 29.596154302332739 8.1968970857529779 #
point $-1 -52.11009380601665 -29.596154302332739 8.1968970857529779 #
loop $-1 $-1 $243 $235 #
plane-surface $-1 0 29.596154302332739 0 0 -1 0 0 0 -1 forward_v I I I I #
coedge $-1 $340 $238 $240 $344 reversed $143 $-1 #
coedge $-1 $238 $339 $429 $430 reversed $143 $-1 #
coedge $-1 $246 $241 $238 $342 forward $236 $-1 #
edge $-1 $345 -13.356436724007501 $431 1.9611169131350401 $341 $432 forward 7 unknown #
coedge $-1 $240 $239 $348 $433 reversed $89 $-1 #
edge $-1 $434 -59.19230860466547 $345 -40.258770932474192 $339 $435 forward 7 unknown #
vertex $-1 $242 $436 #
straight-curve $-1 -13.087971040899891 14.278600665190202 11.196897085752978 1 0 0 I I #
coedge $-1 $429 $243 $246 $352 reversed $337 $-1 #
coedge $-1 $243 $429 $343 $433 forward $337 $-1 #
vertex $-1 $244 $437 #
straight-curve $-1 -39.797855645796439 29.596154302332739 68.05456552312539 0 0 1 I I #
straight-curve $-1 -39.797855645796439 -18.29142897218388 34.860409217598573 0 0.80901698891910034 -0.5877852598018023 I I #
edge $-1 $431 12.554028517803125 $247 39.797855645796439 $347 $438 forward 7 unknown #
point $-1 -39.797855645796439 29.596154302332739 11.196897085752978 #
point $-1 -39.797855645796439 14.278600665190197 11.19689708575298 #
edge $-1 $439 1 $439 0 $250 $-1 forward 7 unknown #
vertex $-1 $251 $440 #
ellipse-curve $-1 -34.34909022019778 20.901842537467683 4.2071783556709157 0 0.5877852598018023 0.80901698891910034 1.5 0 0 1 I I #
point $-1 -32.84909022019778 21.937377483761473 5.6324699059448911 #
edge $-1 $441 1 $441 0 $254 $-1 forward 7 unknown #
vertex $-1 $255 $442 #
ellipse-curve $-1 -26.175942081799782 20.901842537467683 4.2071783556709157 0 0.5877852598018023 0.80901698891910034 1.5 0 0 1 I I #
point $-1 -24.675942081799782 21.937377483761473 5.6324699059448911 #
edge $-1 $443 1 $443 0 $258 $-1 forward 7 unknown #
vertex $-1 $259 $444 #
ellipse-curve $-1 -18.002793943401784 20.901842537467683 4.2071783556709157 0 0.5877852598018023 0.80901698891910034 1.5 0 0 1 I I #
point $-1 -16.502793943401784 21.937377483761473 5.6324699059448911 #
loop $-1 $-1 $270 $262 #
plane-surface $-1 0 29.596154302332739 0 0 -1 0 0 0 -1 forward_v I I I I #
coedge $-1 $370 $265 $267 $374 reversed $172 $-1 #
coedge $-1 $265 $369 $445 $446 reversed $172 $-1 #
coedge $-1 $273 $268 $265 $372 forward $263 $-1 #
edge $-1 $375 -13.356436724007501 $447 1.9611169131350401 $371 $448 forward 7 unknown #
coedge $-1 $267 $266 $378 $449 reversed $108 $-1 #
edge $-1 $450 -59.19230860466547 $375 -40.258770932474192 $369 $451 forward 7 unknown #
vertex $-1 $269 $452 #
straight-curve $-1 15.583340368000428 14.278600665190202 11.196897085752978 1 0 0 I I #
coedge $-1 $445 $270 $273 $382 reversed $367 $-1 #
coedge $-1 $270 $445 $373 $449 forward $367 $-1 #
vertex $-1 $271 $453 #
straight-curve $-1 17.5447671720042 29.596154302332739 68.05456552312539 0 0 1 I I #
straight-curve $-1 17.5447671720042 -18.29142897218388 34.860409217598573 0 0.80901698891910034 -0.5877852598018023 I I #
edge $-1 $447 -44.788594299997513 $274 -17.5447671720042 $377 $454 forward 7 unknown #
point $-1 17.5447671720042 29.596154302332739 11.196897085752978 #
point $-1 17.5447671720042 14.278600665190197 11.19689708575298 #
edge $-1 $455 1 $455 0 $277 $-1 forward 7 unknown #
vertex $-1 $278 $456 #
ellipse-curve $-1 22.993532597602865 20.901842537467683 4.2071783556709157 0 0.5877852598018023 0.80901698891910034 1.5 0 0 1 I I #
point $-1 24.493532597602865 21.937377483761473 5.6324699059448911 #
edge $-1 $457 1 $457 0 $281 $-1 forward 7 unknown #
vertex $-1 $282 $458 #
ellipse-curve $-1 31.166680736000856 20.901842537467683 4.2071783556709157 0 0.5877852598018023 0.80901698891910034 1.5 0 0 1 I I #
point $-1 32.666680736000856 21.937377483761473 5.6324699059448911 #
edge $-1 $459 1 $459 0 $285 $-1 forward 7 unknown #
vertex $-1 $286 $460 #
ellipse-curve $-1 39.339828874398862 20.901842537467683 4.2071783556709157 0 0.5877852598018023 0.80901698891910034 1.5 0 0 1 I I #
point $-1 40.839828874398862 21.937377483761473 5.6324699059448911 #
plane-surface $-1 62.575151829584641 0 0 -1 0 0 0 0 1 forward_v I I I I #
coedge $-1 $294 $292 $296 $402 reversed $201 $-1 #
edge $-1 $307 -11.196897085752978 $404 11.196897085752978 $306 $461 forward 7 unknown #
vertex $-1 $402 $462 #
straight-curve $-1 -62.575151829584641 -29.596154302332739 0 0 0 -1 I I #
edge $-1 $400 -29.596154302332739 $404 29.596154302332739 $398 $463 forward 7 unknown #
straight-curve $-1 0 -29.596154302332739 -11.196897085752978 -1 0 0 I I #
vertex $-1 $299 $464 #
straight-curve $-1 0 29.596154302332739 -11.196897085752978 1 0 0 I I #
point $-1 62.575151829584641 29.596154302332739 -11.196897085752978 #
point $-1 62.575151829584641 -29.596154302332739 -11.196897085752978 #
straight-curve $-1 -62.575151829584641 0 11.196897085752978 0 -1 0 I I #
point $-1 -62.575151829584641 29.596154302332739 11.196897085752978 #
point $-1 -62.575151829584641 -29.596154302332739 11.196897085752978 #
straight-curve $-1 62.575151829584641 -29.596154302332739 0 0 0 -1 I I #
straight-curve $-1 62.575151829584641 29.596154302332739 0 0 0 -1 I I #
plane-surface $-1 0 -29.596154302332739 0 0 1 0 0 0 1 forward_v I I I I #
coedge $-1 $465 $319 $329 $425 reversed $220 $-1 #
coedge $-1 $319 $465 $332 $427 forward $220 $-1 #
coedge $-1 $466 $322 $320 $417 forward $317 $-1 #
edge $-1 $418 52.11009380601665 $467 62.575151829584641 $320 $468 forward 7 unknown #
vertex $-1 $417 $469 #
straight-curve $-1 -52.11009380601665 29.596154302332739 4.848448542876489 0 0 -1 I I #
coedge $-1 $322 $466 $324 $422 forward $317 $-1 #
straight-curve $-1 -52.11009380601665 0 11.196897085752978 0 1 0 I I #
edge $-1 $470 -62.575151829584641 $326 -52.11009380601665 $324 $471 forward 7 unknown #
point $-1 -52.11009380601665 -29.596154302332739 11.196897085752978 #
straight-curve $-1 -62.575151829584641 0 8.1968970857529779 0 -1 0 I I #
edge $-1 $470 -11.196897085752978 $330 -8.1968970857529779 $414 $472 forward 7 unknown #
point $-1 -62.575151829584641 -29.596154302332739 8.1968970857529779 #
edge $-1 $467 -11.196897085752978 $333 -8.1968970857529779 $332 $473 forward 7 unknown #
point $-1 -62.575151829584641 29.596154302332739 8.1968970857529779 #
coedge $-1 $348 $347 $340 $430 forward $337 $-1 #
edge $-1 $431 56.857668437372411 $434 67.986522796988567 $429 $474 forward 7 unknown #
vertex $-1 $352 $475 #
straight-curve $-1 -12.554028517803125 27.635037389197699 11.19689708575298 0 1 0 I I #
edge $-1 $434 -0.5339425230967656 $349 26.709884604896548 $348 $476 forward 7 unknown #
vertex $-1 $433 $477 #
straight-curve $-1 -12.554028517803125 -18.29142897218388 34.860409217598573 0 -0.80901698891910034 0.5877852598018023 I I #
point $-1 -12.554028517803125 14.278600665190197 11.19689708575298 #
point $-1 -39.797855645796439 29.596154302332735 0.068042726136823717 #
straight-curve $-1 0 29.596154302332739 11.196897085752978 -1 0 0 I I #
vertex $-1 $355 $478 #
point $-1 -32.84909022019778 20.901842537467683 4.2071783556709157 #
vertex $-1 $359 $479 #
point $-1 -24.675942081799782 20.901842537467683 4.2071783556709157 #
vertex $-1 $363 $480 #
point $-1 -16.502793943401784 20.901842537467683 4.2071783556709157 #
coedge $-1 $378 $377 $370 $446 forward $367 $-1 #
edge $-1 $447 56.857668437372411 $450 67.986522796988567 $445 $481 forward 7 unknown #
vertex $-1 $382 $482 #
straight-curve $-1 44.788594299997513 27.635037389197699 11.19689708575298 0 1 0 I I #
edge $-1 $450 -29.205253931997085 $379 -1.9614268040037715 $378 $483 forward 7 unknown #
vertex $-1 $449 $484 #
straight-curve $-1 44.788594299997513 -18.29142897218388 34.860409217598573 0 -0.80901698891910034 0.5877852598018023 I I #
point $-1 44.788594299997513 14.278600665190197 11.19689708575298 #
point $-1 17.5447671720042 29.596154302332735 0.068042726136823717 #
straight-curve $-1 0 29.596154302332739 11.196897085752978 -1 0 0 I I #
vertex $-1 $385 $485 #
point $-1 24.493532597602865 20.901842537467683 4.2071783556709157 #
vertex $-1 $389 $486 #
point $-1 32.666680736000856 20.901842537467683 4.2071783556709157 #
vertex $-1 $393 $487 #
point $-1 40.839828874398862 20.901842537467683 4.2071783556709157 #
straight-curve $-1 -62.575151829584641 29.596154302332739 0 0 0 -1 I I #
point $-1 -62.575151829584641 -29.596154302332739 -11.196897085752978 #
straight-curve $-1 -62.575151829584641 0 -11.196897085752978 0 1 0 I I #
point $-1 -62.575151829584641 29.596154302332739 -11.196897085752978 #
coedge $-1 $415 $414 $466 $488 reversed $220 $-1 #
coedge $-1 $420 $416 $465 $488 forward $317 $-1 #
vertex $-1 $417 $489 #
straight-curve $-1 0 29.596154302332739 11.196897085752978 -1 0 0 I I #
point $-1 -52.11009380601665 29.596154302332739 11.196897085752978 #
vertex $-1 $488 $490 #
straight-curve $-1 0 -29.596154302332739 11.196897085752978 1 0 0 I I #
straight-curve $-1 -62.575151829584641 -29.596154302332739 0 0 0 -1 I I #
straight-curve $-1 -62.575151829584641 29.596154302332739 0 0 0 -1 I I #
straight-curve $-1 -12.554028517803125 29.596154302332739 68.05456552312539 0 0 -1 I I #
point $-1 -12.554028517803125 29.596154302332739 11.196897085752978 #
straight-curve $-1 -13.087971040899891 29.596154302332742 0.068042726136816611 -1 0 0 I I #
point $-1 -12.554028517803125 29.596154302332735 0.068042726136823717 #
point $-1 -34.34909022019778 20.020164647764982 2.9936528722922655 #
point $-1 -26.175942081799782 20.020164647764982 2.9936528722922655 #
point $-1 -18.002793943401784 20.020164647764982 2.9936528722922655 #
straight-curve $-1 44.788594299997513 29.596154302332739 68.05456552312539 0 0 -1 I I #
point $-1 44.788594299997513 29.596154302332739 11.196897085752978 #
straight-curve $-1 15.583340368000428 29.596154302332742 0.068042726136816611 -1 0 0 I I #
point $-1 44.788594299997513 29.596154302332735 0.068042726136823717 #
point $-1 22.993532597602865 20.020164647764982 2.9936528722922655 #
point $-1 31.166680736000856 20.020164647764982 2.9936528722922655 #
point $-1 39.339828874398862 20.020164647764982 2.9936528722922655 #
edge $-1 $467 -29.596154302332739 $470 29.596154302332739 $465 $491 forward 7 unknown #
point $-1 -62.575151829584641 29.596154302332739 11.196897085752978 #
point $-1 -62.575151829584641 -29.596154302332739 11.196897085752978 #
straight-curve $-1 -62.575151829584641 0 11.196897085752978 0 -1 0 I I #
End-of-ACIS-data 