500 0 5 0           
7 Unknown 11 ACIS 5.0 NT 24 Thu Mar 25 17:44:32 1999 
-1 9.9999999999999995e-007 1e-010 
body $-1 $5 $-1 $6 #
body $-1 $7 $-1 $8 #
body $-1 $9 $-1 $10 #
body $-1 $11 $-1 $12 #
body $-1 $13 $-1 $14 #
lump $-1 $-1 $15 $0 #
transform $-1 1 0 0 0 1 0 0 0 1 69.402752769554738 29.327412813900747 6.6812119258157994 1 rotate no_reflect no_shear #
lump $-1 $-1 $16 $1 #
transform $-1 1 0 0 0 1 0 0 0 1 69.402752769554738 29.327412813900747 6.6812119258157994 1 rotate no_reflect no_shear #
lump $-1 $-1 $17 $2 #
transform $-1 1 0 0 0 1 0 0 0 1 69.402752769554738 29.327412813900747 6.6812119258157994 1 rotate no_reflect no_shear #
lump $-1 $-1 $18 $3 #
transform $-1 1 0 0 0 1 0 0 0 1 69.402752769554738 29.327412813900747 6.6812119258157994 1 rotate no_reflect no_shear #
lump $-1 $-1 $19 $4 #
transform $-1 1 0 0 0 1 0 0 0 1 69.402752769554738 29.327412813900747 6.6812119258157994 1 rotate no_reflect no_shear #
shell $-1 $-1 $-1 $20 $-1 $5 #
shell $-1 $-1 $-1 $21 $-1 $7 #
shell $-1 $-1 $-1 $22 $-1 $9 #
shell $-1 $-1 $-1 $23 $-1 $11 #
shell $-1 $-1 $-1 $24 $-1 $13 #
face $-1 $25 $26 $15 $-1 $27 forward single #
face $-1 $28 $29 $16 $-1 $30 forward single #
face $-1 $31 $32 $17 $-1 $33 reversed single #
face $-1 $34 $35 $18 $-1 $36 forward single #
face $-1 $37 $38 $19 $-1 $39 forward single #
face $-1 $40 $41 $15 $-1 $42 reversed single #
loop $-1 $-1 $43 $20 #
plane-surface $-1 0 0 6.6812119258157994 0 0 1 1 0 0 forward_v I I I I #
face $-1 $44 $45 $16 $-1 $46 reversed single #
loop $-1 $-1 $47 $21 #
plane-surface $-1 -69.402752769554738 0 0 1 0 0 0 0 -1 forward_v I I I I #
face $-1 $48 $49 $17 $-1 $50 reversed single #
loop $-1 $-1 $51 $22 #
plane-surface $-1 100.11093927006716 20.266960627105881 196.0123318436091 0 -1 0 -0.80901700255871778 0 -0.5877852410284794 forward_v I I I I #
face $-1 $52 $53 $18 $-1 $54 forward single #
loop $-1 $55 $56 $23 #
cone-surface $-1 66.260616471022104 13.872975962204361 3.32356448259352 -0.80901700255871778 0 -0.5877852410284794 0.5877852410284794 0 -0.80901700255871778 1 I I 0 1 1 forward I I I I #
face $-1 $57 $58 $19 $-1 $59 forward single #
loop $-1 $60 $61 $24 #
cone-surface $-1 66.260616471022104 17.709366761145272 3.32356448259352 -0.80901700255871778 0 -0.5877852410284794 0.5877852410284794 0 -0.80901700255871778 1 I I 0 1 1 forward I I I I #
face $-1 $62 $63 $15 $-1 $64 reversed single #
loop $-1 $-1 $65 $25 #
plane-surface $-1 0 0 -6.6812119258157994 0 0 1 1 0 0 forward_v I I I I #
coedge $-1 $66 $67 $68 $69 forward $26 $-1 #
face $-1 $70 $71 $16 $-1 $72 forward single #
loop $-1 $-1 $73 $28 #
plane-surface $-1 0 29.327412813900747 0 0 -1 0 0 0 -1 forward_v I I I I #
coedge $-1 $74 $75 $76 $77 forward $29 $-1 #
face $-1 $78 $79 $17 $-1 $80 reversed single #
loop $-1 $-1 $81 $31 #
plane-surface $-1 -12.185074759830684 15.791171361674817 114.42450431422371 0.80901700255871778 0 0.5877852410284794 0.5877852410284794 0 -0.80901700255871778 forward_v I I I I #
coedge $-1 $82 $83 $84 $85 reversed $32 $-1 #
face $-1 $-1 $86 $18 $-1 $87 forward single #
loop $-1 $88 $89 $34 #
cone-surface $-1 64.36784456814253 13.872975962204361 1.9483852396019499 -0.80901700255871778 0 -0.5877852410284794 0.2938926205142397 0 -0.40450850127935889 1 I I -0.70710678118654746 0.70710678118654746 0.5 forward I I I I #
loop $-1 $-1 $90 $23 #
coedge $-1 $56 $56 $91 $92 reversed $35 $-1 #
face $-1 $-1 $93 $19 $-1 $94 forward single #
loop $-1 $95 $96 $37 #
cone-surface $-1 64.36784456814253 17.709366761145272 1.9483852396019499 -0.80901700255871778 0 -0.5877852410284794 0.2938926205142397 0 -0.40450850127935889 1 I I -0.70710678118654746 0.70710678118654746 0.5 forward I I I I #
loop $-1 $-1 $97 $24 #
coedge $-1 $61 $61 $98 $99 reversed $38 $-1 #
face $-1 $100 $101 $15 $-1 $102 reversed single #
loop $-1 $-1 $103 $40 #
plane-surface $-1 0 -29.327412813900747 0 0 1 0 0 0 1 forward_v I I I I #
coedge $-1 $104 $105 $106 $107 forward $41 $-1 #
coedge $-1 $108 $43 $109 $110 forward $26 $-1 #
coedge $-1 $43 $108 $111 $112 forward $26 $-1 #
coedge $-1 $113 $114 $43 $69 reversed $115 $-1 #
edge $-1 $116 -29.327412813900747 $117 29.327412813900747 $68 $118 forward 7 unknown #
face $-1 $119 $120 $16 $-1 $121 reversed single #
loop $-1 $-1 $76 $44 #
plane-surface $-1 -72.020696160504357 0 3.9081677383792797 0 0 1 1 0 0 forward_v I I I I #
coedge $-1 $122 $123 $75 $124 forward $45 $-1 #
coedge $-1 $125 $47 $126 $127 reversed $29 $-1 #
coedge $-1 $47 $125 $73 $124 reversed $29 $-1 #
coedge $-1 $128 $129 $47 $77 reversed $71 $-1 #
edge $-1 $130 -29.327412813900747 $131 29.327412813900747 $76 $132 forward 7 unknown #
face $-1 $133 $134 $17 $-1 $135 forward single #
loop $-1 $-1 $136 $48 #
plane-surface $-1 100.11093927006716 11.315382096243752 196.0123318436091 0 1 0 0.80901700255871778 0 0.5877852410284794 forward_v I I I I #
coedge $-1 $137 $138 $139 $140 reversed $49 $-1 #
coedge $-1 $83 $51 $141 $142 reversed $32 $-1 #
coedge $-1 $51 $82 $137 $143 reversed $32 $-1 #
coedge $-1 $139 $144 $51 $85 forward $134 $-1 #
edge $-1 $145 -19.347283134521156 $146 -16.039537340656288 $84 $147 forward 7 unknown #
loop $-1 $-1 $91 $52 #
plane-surface $-1 -12.185074759830684 15.791171361674817 114.42450431422371 0.80901700255871778 0 0.5877852410284794 0.5877852410284794 0 -0.80901700255871778 forward_v I I I I #
loop $-1 $-1 $148 $34 #
coedge $-1 $89 $89 $90 $149 reversed $53 $-1 #
coedge $-1 $90 $90 $89 $149 forward $55 $-1 #
coedge $-1 $91 $91 $56 $92 forward $86 $-1 #
edge $-1 $150 0 $150 6.2831853071796004 $91 $151 forward 7 unknown #
loop $-1 $-1 $98 $57 #
plane-surface $-1 -12.185074759830684 15.791171361674817 114.42450431422371 0.80901700255871778 0 0.5877852410284794 0.5877852410284794 0 -0.80901700255871778 forward_v I I I I #
loop $-1 $-1 $152 $37 #
coedge $-1 $96 $96 $97 $153 reversed $58 $-1 #
coedge $-1 $97 $97 $96 $153 forward $60 $-1 #
coedge $-1 $98 $98 $61 $99 forward $93 $-1 #
edge $-1 $154 0 $154 6.2831853071796004 $98 $155 forward 7 unknown #
face $-1 $156 $157 $15 $-1 $158 reversed single #
loop $-1 $-1 $159 $62 #
plane-surface $-1 -69.402752769554738 0 0 1 0 0 0 0 -1 forward_v I I I I #
coedge $-1 $160 $111 $161 $162 forward $63 $-1 #
coedge $-1 $163 $65 $160 $164 forward $41 $-1 #
coedge $-1 $65 $163 $165 $166 forward $41 $-1 #
coedge $-1 $114 $113 $65 $107 reversed $115 $-1 #
edge $-1 $167 -29.327412813900747 $168 29.327412813900747 $106 $169 forward 7 unknown #
coedge $-1 $67 $66 $170 $171 forward $26 $-1 #
coedge $-1 $172 $173 $66 $110 reversed $157 $-1 #
edge $-1 $117 -69.402752769554738 $174 69.402752769554738 $109 $175 forward 7 unknown #
coedge $-1 $103 $176 $67 $112 reversed $63 $-1 #
edge $-1 $177 -69.402752769554738 $116 69.402752769554738 $111 $178 forward 7 unknown #
coedge $-1 $106 $68 $176 $179 forward $115 $-1 #
coedge $-1 $68 $106 $172 $180 reversed $115 $-1 #
loop $-1 $-1 $113 $156 #
vertex $-1 $69 $181 #
vertex $-1 $69 $182 #
straight-curve $-1 69.402752769554738 0 6.6812119258157994 0 1 0 I I #
face $-1 $183 $184 $16 $-1 $185 reversed single #
loop $-1 $-1 $186 $70 #
plane-surface $-1 -72.020696160504357 0 0.1083979479697903 0 0 1 1 0 0 forward_v I I I I #
coedge $-1 $187 $73 $188 $189 reversed $45 $-1 #
coedge $-1 $73 $187 $128 $190 reversed $45 $-1 #
edge $-1 $130 -3.9081677383792797 $191 -0.1083979479697903 $73 $192 forward 7 unknown #
coedge $-1 $75 $74 $186 $193 forward $29 $-1 #
coedge $-1 $194 $195 $74 $127 forward $196 $-1 #
edge $-1 $197 0.1083979479697903 $131 3.9081677383792797 $126 $198 forward 7 unknown #
coedge $-1 $199 $76 $123 $190 forward $71 $-1 #
coedge $-1 $76 $199 $194 $200 forward $71 $-1 #
vertex $-1 $124 $201 #
vertex $-1 $200 $202 #
straight-curve $-1 -69.402752769554738 0 3.9081677383792797 0 -1 0 I I #
face $-1 $-1 $203 $17 $-1 $204 reversed single #
loop $-1 $-1 $84 $78 #
plane-surface $-1 0 0 6.6812119258157994 0 0 1 1 0 0 forward_v I I I I #
coedge $-1 $205 $206 $207 $208 reversed $79 $-1 #
coedge $-1 $209 $81 $83 $143 forward $49 $-1 #
coedge $-1 $81 $209 $205 $210 forward $49 $-1 #
coedge $-1 $207 $84 $81 $140 forward $134 $-1 #
edge $-1 $146 -12.371374946268473 $211 -3.4197964154063438 $139 $212 forward 7 unknown #
coedge $-1 $213 $214 $82 $142 forward $203 $-1 #
edge $-1 $215 -95.877675637478731 $145 -91.32495399598875 $141 $216 forward 7 unknown #
edge $-1 $146 133.17803216451929 $215 138.80550553910953 $83 $217 forward 7 unknown #
coedge $-1 $84 $207 $213 $218 forward $134 $-1 #
vertex $-1 $142 $219 #
vertex $-1 $85 $220 #
straight-curve $-1 50.055469635033582 20.266960627105881 6.681211925815802 -1 0 0 I I #
coedge $-1 $148 $148 $-1 $221 reversed $88 $-1 #
edge $-1 $222 0 $222 6.2831853071796004 $89 $223 forward 7 unknown #
vertex $-1 $92 $224 #
ellipse-curve $-1 67.748879872622297 13.872975962204361 4.4048511050708319 0.80901700255871778 0 0.5877852410284794 0.5877852410284794 0 -0.80901700255871778 1 I I #
coedge $-1 $152 $152 $-1 $225 reversed $95 $-1 #
edge $-1 $226 0 $226 6.2831853071796004 $96 $227 forward 7 unknown #
vertex $-1 $99 $228 #
ellipse-curve $-1 67.748879872622297 17.709366761145272 4.4048511050708319 0.80901700255871778 0 0.5877852410284794 0.5877852410284794 0 -0.80901700255871778 1 I I #
face $-1 $-1 $115 $15 $-1 $229 reversed single #
loop $-1 $-1 $172 $100 #
plane-surface $-1 0 29.327412813900747 0 0 -1 0 0 0 -1 forward_v I I I I #
coedge $-1 $230 $170 $173 $231 forward $101 $-1 #
coedge $-1 $176 $103 $104 $164 reversed $63 $-1 #
coedge $-1 $170 $230 $103 $162 reversed $101 $-1 #
edge $-1 $177 -6.6812119258157994 $232 6.6812119258157994 $161 $233 forward 7 unknown #
coedge $-1 $105 $104 $230 $234 forward $41 $-1 #
edge $-1 $168 -69.402752769554738 $232 69.402752769554738 $160 $235 forward 7 unknown #
coedge $-1 $173 $172 $105 $166 reversed $157 $-1 #
edge $-1 $236 -69.402752769554738 $167 69.402752769554738 $165 $237 forward 7 unknown #
vertex $-1 $107 $238 #
vertex $-1 $179 $239 #
straight-curve $-1 69.402752769554738 0 -6.6812119258157994 0 -1 0 I I #
coedge $-1 $159 $161 $108 $171 reversed $101 $-1 #
edge $-1 $174 -29.327412813900747 $177 29.327412813900747 $170 $240 forward 7 unknown #
coedge $-1 $165 $109 $114 $180 forward $157 $-1 #
coedge $-1 $109 $165 $159 $231 reversed $157 $-1 #
vertex $-1 $110 $241 #
straight-curve $-1 0 29.327412813900747 6.6812119258157994 -1 0 0 I I #
coedge $-1 $111 $160 $113 $179 reversed $63 $-1 #
vertex $-1 $171 $242 #
straight-curve $-1 0 -29.327412813900747 6.6812119258157994 1 0 0 I I #
edge $-1 $116 -6.6812119258157994 $168 6.6812119258157994 $113 $243 forward 7 unknown #
edge $-1 $117 -6.6812119258157994 $167 6.6812119258157994 $114 $244 forward 7 unknown #
point $-1 69.402752769554738 -29.327412813900747 6.6812119258157994 #
point $-1 69.402752769554738 29.327412813900747 6.6812119258157994 #
face $-1 $-1 $196 $16 $-1 $245 reversed single #
loop $-1 $-1 $246 $119 #
plane-surface $-1 -74.638639551453977 0 2.008282843174535 1 0 0 0 0 -1 forward_v I I I I #
coedge $-1 $247 $188 $125 $193 reversed $120 $-1 #
coedge $-1 $123 $122 $246 $248 reversed $45 $-1 #
coedge $-1 $186 $249 $122 $189 forward $120 $-1 #
edge $-1 $250 -2.6179433909496197 $191 2.6179433909496197 $122 $251 forward 7 unknown #
edge $-1 $130 -2.6179433909496197 $252 2.6179433909496197 $123 $253 forward 7 unknown #
vertex $-1 $124 $254 #
straight-curve $-1 -69.402752769554738 29.327412813900747 0 0 0 -1 I I #
edge $-1 $197 -29.327412813900747 $191 29.327412813900747 $186 $255 forward 7 unknown #
coedge $-1 $256 $126 $129 $200 reversed $196 $-1 #
coedge $-1 $126 $256 $247 $257 reversed $196 $-1 #
loop $-1 $-1 $126 $183 #
vertex $-1 $127 $258 #
straight-curve $-1 -69.402752769554738 -29.327412813900747 0 0 0 1 I I #
coedge $-1 $129 $128 $259 $260 forward $71 $-1 #
edge $-1 $261 -2.6179433909496197 $131 2.6179433909496197 $194 $262 forward 7 unknown #
point $-1 -69.402752769554738 29.327412813900747 3.9081677383792797 #
point $-1 -69.402752769554738 -29.327412813900747 3.9081677383792797 #
loop $-1 $-1 $141 $133 #
plane-surface $-1 69.402752769554738 0 0 -1 0 0 0 0 1 forward_v I I I I #
coedge $-1 $206 $136 $138 $210 reversed $79 $-1 #
coedge $-1 $136 $205 $263 $264 reversed $79 $-1 #
coedge $-1 $144 $139 $136 $208 forward $134 $-1 #
edge $-1 $211 16.039537340656288 $265 19.347283134521156 $207 $266 forward 7 unknown #
coedge $-1 $138 $137 $214 $267 reversed $49 $-1 #
edge $-1 $268 -138.80550553910953 $211 -133.17803216451929 $205 $269 forward 7 unknown #
vertex $-1 $140 $270 #
straight-curve $-1 66.09500697568987 7.8955856808374083 6.681211925815802 0 -1 0 I I #
coedge $-1 $263 $141 $144 $218 reversed $203 $-1 #
coedge $-1 $141 $263 $209 $267 forward $203 $-1 #
vertex $-1 $142 $271 #
straight-curve $-1 69.402752769554738 20.266960627105881 98.006165921804552 0 0 1 I I #
straight-curve $-1 -12.185074759830684 20.266960627105881 114.42450431422371 0.5877852410284794 0 -0.80901700255871778 I I #
edge $-1 $265 11.315382096243752 $145 20.266960627105881 $213 $272 forward 7 unknown #
point $-1 69.402752769554738 20.266960627105881 6.6812119258157994 #
point $-1 66.09500697568987 20.266960627105881 6.681211925815802 #
edge $-1 $273 1 $273 0 $148 $-1 forward 7 unknown #
vertex $-1 $149 $274 #
ellipse-curve $-1 64.772353069421882 13.872975962204361 2.2422778601161895 0.80901700255871778 0 0.5877852410284794 0.5877852410284794 0 -0.80901700255871778 1 I I #
point $-1 68.33666511365081 13.872975962204361 3.5958341025121321 #
edge $-1 $275 1 $275 0 $152 $-1 forward 7 unknown #
vertex $-1 $153 $276 #
ellipse-curve $-1 64.772353069421882 17.709366761145272 2.2422778601161895 0.80901700255871778 0 0.5877852410284794 0.5877852410284794 0 -0.80901700255871778 1 I I #
point $-1 68.33666511365081 17.709366761145272 3.5958341025121321 #
plane-surface $-1 69.402752769554738 0 0 -1 0 0 0 0 1 forward_v I I I I #
coedge $-1 $161 $159 $163 $234 reversed $101 $-1 #
edge $-1 $174 -6.6812119258157994 $236 6.6812119258157994 $173 $277 forward 7 unknown #
vertex $-1 $234 $278 #
straight-curve $-1 -69.402752769554738 -29.327412813900747 0 0 0 -1 I I #
edge $-1 $232 -29.327412813900747 $236 29.327412813900747 $230 $279 forward 7 unknown #
straight-curve $-1 0 -29.327412813900747 -6.6812119258157994 -1 0 0 I I #
vertex $-1 $166 $280 #
straight-curve $-1 0 29.327412813900747 -6.6812119258157994 1 0 0 I I #
point $-1 69.402752769554738 29.327412813900747 -6.6812119258157994 #
point $-1 69.402752769554738 -29.327412813900747 -6.6812119258157994 #
straight-curve $-1 -69.402752769554738 0 6.6812119258157994 0 -1 0 I I #
point $-1 -69.402752769554738 29.327412813900747 6.6812119258157994 #
point $-1 -69.402752769554738 -29.327412813900747 6.6812119258157994 #
straight-curve $-1 69.402752769554738 -29.327412813900747 0 0 0 -1 I I #
straight-curve $-1 69.402752769554738 29.327412813900747 0 0 0 -1 I I #
plane-surface $-1 0 -29.327412813900747 0 0 1 0 0 0 1 forward_v I I I I #
coedge $-1 $281 $259 $187 $248 forward $184 $-1 #
coedge $-1 $249 $186 $195 $257 forward $120 $-1 #
edge $-1 $252 -1.8998848952047447 $250 1.8998848952047447 $187 $282 forward 7 unknown #
coedge $-1 $188 $247 $281 $283 forward $120 $-1 #
vertex $-1 $189 $284 #
straight-curve $-1 -72.020696160504357 29.327412813900747 0.1083979479697903 1 0 0 I I #
vertex $-1 $190 $285 #
straight-curve $-1 -72.020696160504357 29.327412813900747 3.9081677383792797 -1 0 0 I I #
point $-1 -69.402752769554738 29.327412813900747 0.1083979479697903 #
straight-curve $-1 -69.402752769554738 0 0.1083979479697903 0 1 0 I I #
coedge $-1 $195 $194 $286 $287 forward $196 $-1 #
edge $-1 $197 -2.6179433909496197 $288 2.6179433909496197 $195 $289 forward 7 unknown #
point $-1 -69.402752769554738 -29.327412813900747 0.1083979479697903 #
coedge $-1 $246 $286 $199 $260 reversed $184 $-1 #
edge $-1 $252 -29.327412813900747 $261 29.327412813900747 $259 $290 forward 7 unknown #
vertex $-1 $260 $291 #
straight-curve $-1 -72.020696160504357 -29.327412813900747 3.9081677383792797 1 0 0 I I #
coedge $-1 $214 $213 $206 $264 forward $203 $-1 #
edge $-1 $265 91.32495399598875 $268 95.877675637478731 $263 $292 forward 7 unknown #
vertex $-1 $218 $293 #
straight-curve $-1 50.055469635033582 11.315382096243752 6.681211925815802 1 0 0 I I #
edge $-1 $268 3.4197964154063438 $215 12.371374946268473 $214 $294 forward 7 unknown #
vertex $-1 $267 $295 #
straight-curve $-1 -12.185074759830684 11.315382096243752 114.42450431422371 -0.5877852410284794 0 0.80901700255871778 I I #
point $-1 66.09500697568987 11.315382096243752 6.681211925815802 #
point $-1 69.402752769554752 20.266960627105881 2.1284902843258209 #
straight-curve $-1 69.402752769554738 0 6.6812119258157994 0 1 0 I I #
vertex $-1 $221 $296 #
point $-1 65.360138310450367 13.872975962204361 1.4332608575574719 #
vertex $-1 $225 $297 #
point $-1 65.360138310450367 17.709366761145272 1.4332608575574719 #
straight-curve $-1 -69.402752769554738 29.327412813900747 0 0 0 -1 I I #
point $-1 -69.402752769554738 -29.327412813900747 -6.6812119258157994 #
straight-curve $-1 -69.402752769554738 0 -6.6812119258157994 0 1 0 I I #
point $-1 -69.402752769554738 29.327412813900747 -6.6812119258157994 #
coedge $-1 $286 $246 $249 $283 reversed $184 $-1 #
straight-curve $-1 -74.638639551453977 29.327412813900747 2.008282843174535 0 0 -1 I I #
edge $-1 $288 -29.327412813900747 $250 29.327412813900747 $281 $298 forward 7 unknown #
point $-1 -74.638639551453977 29.327412813900747 0.1083979479697903 #
point $-1 -74.638639551453977 29.327412813900747 3.9081677383792797 #
coedge $-1 $259 $281 $256 $287 reversed $184 $-1 #
edge $-1 $261 -1.8998848952047447 $288 1.8998848952047447 $286 $299 forward 7 unknown #
vertex $-1 $283 $300 #
straight-curve $-1 -72.020696160504357 -29.327412813900747 0.1083979479697903 -1 0 0 I I #
straight-curve $-1 -74.638639551453977 0 3.9081677383792797 0 -1 0 I I #
point $-1 -74.638639551453977 -29.327412813900747 3.9081677383792797 #
straight-curve $-1 69.402752769554738 11.315382096243752 98.006165921804552 0 0 -1 I I #
point $-1 69.402752769554738 11.315382096243752 6.6812119258157994 #
straight-curve $-1 69.402752769554738 7.8955856808374083 2.1284902843258351 0 1 0 I I #
point $-1 69.402752769554752 11.315382096243752 2.1284902843258209 #
point $-1 63.963336066863171 13.872975962204361 1.6544926190877103 #
point $-1 63.963336066863171 17.709366761145272 1.6544926190877103 #
straight-curve $-1 -74.638639551453977 0 0.1083979479697903 0 1 0 I I #
straight-curve $-1 -74.638639551453977 -29.327412813900747 2.008282843174535 0 0 -1 I I #
point $-1 -74.638639551453977 -29.327412813900747 0.1083979479697903 #
End-of-ACIS-data 