500 0 10 0           
7 Unknown 11 ACIS 5.0 NT 24 Fri Mar 26 16:27:21 1999 
-1 9.9999999999999995e-007 1e-010 
body $-1 $10 $-1 $11 #
body $-1 $12 $-1 $13 #
body $-1 $14 $-1 $15 #
body $-1 $16 $-1 $17 #
body $-1 $18 $-1 $19 #
body $-1 $20 $-1 $21 #
body $-1 $22 $-1 $23 #
body $-1 $24 $-1 $25 #
body $-1 $26 $-1 $27 #
body $-1 $28 $-1 $29 #
lump $-1 $-1 $30 $0 #
transform $-1 1 0 0 0 1 0 0 0 1 72.452162236396376 36.000987880621814 10.281711621010377 1 rotate no_reflect no_shear #
lump $-1 $-1 $31 $1 #
transform $-1 1 0 0 0 1 0 0 0 1 72.452162236396376 36.000987880621814 10.281711621010377 1 rotate no_reflect no_shear #
lump $-1 $-1 $32 $2 #
transform $-1 1 0 0 0 1 0 0 0 1 72.452162236396376 36.000987880621814 10.281711621010377 1 rotate no_reflect no_shear #
lump $-1 $-1 $33 $3 #
transform $-1 1 0 0 0 1 0 0 0 1 72.452162236396376 36.000987880621814 10.281711621010377 1 rotate no_reflect no_shear #
lump $-1 $-1 $34 $4 #
transform $-1 1 0 0 0 1 0 0 0 1 72.452162236396376 36.000987880621814 10.281711621010377 1 rotate no_reflect no_shear #
lump $-1 $-1 $35 $5 #
transform $-1 1 0 0 0 1 0 0 0 1 72.452162236396376 36.000987880621814 10.281711621010377 1 rotate no_reflect no_shear #
lump $-1 $-1 $36 $6 #
transform $-1 1 0 0 0 1 0 0 0 1 72.452162236396376 36.000987880621814 10.281711621010377 1 rotate no_reflect no_shear #
lump $-1 $-1 $37 $7 #
transform $-1 1 0 0 0 1 0 0 0 1 72.452162236396376 36.000987880621814 10.281711621010377 1 rotate no_reflect no_shear #
lump $-1 $-1 $38 $8 #
transform $-1 1 0 0 0 1 0 0 0 1 72.452162236396376 36.000987880621814 10.281711621010377 1 rotate no_reflect no_shear #
lump $-1 $-1 $39 $9 #
transform $-1 1 0 0 0 1 0 0 0 1 72.452162236396376 36.000987880621814 10.281711621010377 1 rotate no_reflect no_shear #
shell $-1 $-1 $-1 $40 $-1 $10 #
shell $-1 $-1 $-1 $41 $-1 $12 #
shell $-1 $-1 $-1 $42 $-1 $14 #
shell $-1 $-1 $-1 $43 $-1 $16 #
shell $-1 $-1 $-1 $44 $-1 $18 #
shell $-1 $-1 $-1 $45 $-1 $20 #
shell $-1 $-1 $-1 $46 $-1 $22 #
shell $-1 $-1 $-1 $47 $-1 $24 #
shell $-1 $-1 $-1 $48 $-1 $26 #
shell $-1 $-1 $-1 $49 $-1 $28 #
face $-1 $50 $51 $30 $-1 $52 forward single #
face $-1 $53 $54 $31 $-1 $55 reversed single #
face $-1 $56 $57 $32 $-1 $58 reversed single #
face $-1 $59 $60 $33 $-1 $61 forward single #
face $-1 $62 $63 $34 $-1 $64 reversed single #
face $-1 $65 $66 $35 $-1 $67 forward single #
face $-1 $68 $69 $36 $-1 $70 reversed single #
face $-1 $71 $72 $37 $-1 $73 forward single #
face $-1 $74 $75 $38 $-1 $76 reversed single #
face $-1 $77 $78 $39 $-1 $79 forward single #
face $-1 $80 $81 $30 $-1 $82 reversed single #
loop $-1 $-1 $83 $40 #
plane-surface $-1 0 0 10.281711621010377 0 0 1 1 0 0 forward_v I I I I #
face $-1 $84 $85 $31 $-1 $86 reversed single #
loop $-1 $-1 $87 $41 #
plane-surface $-1 -70.952162236396376 -28.922430914282238 0 0 -1 0 0 0 -1 forward_v I I I I #
face $-1 $88 $89 $32 $-1 $90 reversed single #
loop $-1 $-1 $91 $42 #
plane-surface $-1 58.157272912252367 -13.007505019744812 210.80816478791181 0 -1 0 -0.6560590369687036 0 -0.75470957328743171 forward_v I I I I #
face $-1 $92 $93 $33 $-1 $94 forward single #
loop $-1 $95 $96 $43 #
cone-surface $-1 69.562704532591141 -20.964967967013525 7.5883014150113119 -0.6560590369687036 0 -0.75470957328743171 0.75470957328743171 0 -0.6560590369687036 1 I I 0 1 1 forward I I I I #
face $-1 $97 $98 $34 $-1 $99 reversed single #
loop $-1 $-1 $100 $44 #
plane-surface $-1 58.157272912252367 20.086061986084392 210.80816478791181 0 1 0 0.6560590369687036 0 0.75470957328743171 forward_v I I I I #
face $-1 $101 $102 $35 $-1 $103 forward single #
loop $-1 $104 $105 $45 #
cone-surface $-1 69.562704532591141 28.043524933353105 7.5883014150113119 -0.6560590369687036 0 -0.75470957328743171 0.75470957328743171 0 -0.6560590369687036 1 I I 0 1 1 forward I I I I #
face $-1 $106 $107 $36 $-1 $108 reversed single #
loop $-1 $-1 $109 $46 #
plane-surface $-1 -72.452162236396376 -20.964967967013525 6.3816923313258656 -0.6560590369687036 0 0.75470957328743171 0.75470957328743171 0 0.6560590369687036 forward_v I I I I #
face $-1 $110 $111 $37 $-1 $112 forward single #
loop $-1 $113 $114 $47 #
cone-surface $-1 -69.562704532591141 -20.964967967013525 7.5883014150113191 0.6560590369687036 0 -0.75470957328743171 0.75470957328743171 0 0.6560590369687036 1 I I 0 1 1 forward I I I I #
face $-1 $115 $116 $38 $-1 $117 reversed single #
loop $-1 $-1 $118 $48 #
plane-surface $-1 -167.51795380261734 20.086061986084392 115.74237322169083 0 1 0 -0.6560590369687036 0 0.75470957328743171 forward_v I I I I #
face $-1 $119 $120 $39 $-1 $121 forward single #
loop $-1 $122 $123 $49 #
cone-surface $-1 -69.562704532591141 28.043524933353105 7.5883014150113191 0.6560590369687036 0 -0.75470957328743171 0.75470957328743171 0 0.6560590369687036 1 I I 0 1 1 forward I I I I #
face $-1 $124 $125 $30 $-1 $126 reversed single #
loop $-1 $-1 $127 $50 #
plane-surface $-1 0 0 -10.281711621010377 0 0 1 1 0 0 forward_v I I I I #
coedge $-1 $128 $129 $130 $131 forward $51 $-1 #
face $-1 $132 $133 $31 $-1 $134 forward single #
loop $-1 $-1 $135 $53 #
plane-surface $-1 -69.452162236396376 -32.461709397452026 0 -1 0 0 0 0 1 forward_v I I I I #
coedge $-1 $136 $137 $138 $139 forward $54 $-1 #
face $-1 $140 $141 $32 $-1 $142 reversed single #
loop $-1 $-1 $143 $56 #
plane-surface $-1 -36.908518653968599 -20.964967967013525 101.44748389754685 0.6560590369687036 0 0.75470957328743171 0.75470957328743171 0 -0.6560590369687036 forward_v I I I I #
coedge $-1 $144 $145 $146 $147 reversed $57 $-1 #
face $-1 $-1 $148 $33 $-1 $149 forward single #
loop $-1 $150 $151 $59 #
cone-surface $-1 68.588446751610931 -20.964967967013525 6.4675460672107867 -0.6560590369687036 0 -0.75470957328743171 0.37735478664371586 0 -0.3280295184843518 1 I I -0.70710678118654746 0.70710678118654746 0.5 forward I I I I #
loop $-1 $-1 $152 $43 #
coedge $-1 $96 $96 $153 $154 reversed $60 $-1 #
face $-1 $155 $156 $34 $-1 $157 reversed single #
loop $-1 $-1 $158 $62 #
plane-surface $-1 -36.908518653968599 28.043524933353105 101.44748389754685 0.6560590369687036 0 0.75470957328743171 0.75470957328743171 0 -0.6560590369687036 forward_v I I I I #
coedge $-1 $159 $160 $161 $162 reversed $63 $-1 #
face $-1 $-1 $163 $35 $-1 $164 forward single #
loop $-1 $165 $166 $65 #
cone-surface $-1 68.588446751610931 28.043524933353105 6.4675460672107867 -0.6560590369687036 0 -0.75470957328743171 0.37735478664371586 0 -0.3280295184843518 1 I I -0.70710678118654746 0.70710678118654746 0.5 forward I I I I #
loop $-1 $-1 $167 $45 #
coedge $-1 $105 $105 $168 $169 reversed $66 $-1 #
face $-1 $170 $171 $36 $-1 $172 reversed single #
loop $-1 $-1 $173 $68 #
plane-surface $-1 -167.51795380261734 -13.007505019744812 115.74237322169083 0 -1 0 0.6560590369687036 0 -0.75470957328743171 forward_v I I I I #
coedge $-1 $174 $175 $176 $177 reversed $69 $-1 #
face $-1 $-1 $178 $37 $-1 $179 forward single #
loop $-1 $180 $181 $71 #
cone-surface $-1 -68.588446751610931 -20.964967967013525 6.4675460672107938 0.6560590369687036 0 -0.75470957328743171 0.37735478664371586 0 0.3280295184843518 1 I I -0.70710678118654746 0.70710678118654746 0.5 forward I I I I #
loop $-1 $-1 $182 $47 #
coedge $-1 $114 $114 $183 $184 reversed $72 $-1 #
face $-1 $185 $186 $38 $-1 $187 reversed single #
loop $-1 $-1 $188 $74 #
plane-surface $-1 -72.452162236396376 28.043524933353105 6.3816923313258656 -0.6560590369687036 0 0.75470957328743171 0.75470957328743171 0 0.6560590369687036 forward_v I I I I #
coedge $-1 $189 $190 $191 $192 reversed $75 $-1 #
face $-1 $-1 $193 $39 $-1 $194 forward single #
loop $-1 $195 $196 $77 #
cone-surface $-1 -68.588446751610931 28.043524933353105 6.4675460672107938 0.6560590369687036 0 -0.75470957328743171 0.37735478664371586 0 0.3280295184843518 1 I I -0.70710678118654746 0.70710678118654746 0.5 forward I I I I #
loop $-1 $-1 $197 $49 #
coedge $-1 $123 $123 $198 $199 reversed $78 $-1 #
face $-1 $200 $201 $30 $-1 $202 reversed single #
loop $-1 $-1 $203 $80 #
plane-surface $-1 0 -36.000987880621814 0 0 1 0 0 0 1 forward_v I I I I #
coedge $-1 $204 $205 $206 $207 forward $81 $-1 #
coedge $-1 $208 $83 $209 $210 forward $51 $-1 #
coedge $-1 $83 $208 $211 $212 forward $51 $-1 #
coedge $-1 $213 $214 $83 $131 reversed $215 $-1 #
edge $-1 $216 -36.000987880621814 $217 36.000987880621814 $130 $218 forward 7 unknown #
face $-1 $219 $220 $31 $-1 $221 reversed single #
loop $-1 $-1 $222 $84 #
plane-surface $-1 0 0 10.281711621010377 0 0 1 1 0 0 forward_v I I I I #
coedge $-1 $223 $224 $225 $226 reversed $85 $-1 #
coedge $-1 $227 $87 $228 $229 reversed $54 $-1 #
coedge $-1 $87 $227 $230 $231 reversed $54 $-1 #
coedge $-1 $224 $223 $87 $139 reversed $85 $-1 #
edge $-1 $232 -10.281711621010377 $233 10.281711621010377 $138 $234 forward 7 unknown #
face $-1 $235 $236 $32 $-1 $237 reversed single #
loop $-1 $-1 $238 $88 #
plane-surface $-1 58.157272912252367 -28.922430914282238 210.80816478791181 0 1 0 0.6560590369687036 0 0.75470957328743171 forward_v I I I I #
coedge $-1 $239 $240 $241 $242 reversed $89 $-1 #
coedge $-1 $145 $91 $243 $244 reversed $57 $-1 #
coedge $-1 $91 $144 $239 $245 reversed $57 $-1 #
coedge $-1 $241 $246 $91 $147 forward $247 $-1 #
edge $-1 $248 -43.373525780270192 $249 -38.887066897651444 $146 $250 forward 7 unknown #
loop $-1 $-1 $153 $92 #
plane-surface $-1 -36.908518653968599 -20.964967967013525 101.44748389754685 0.6560590369687036 0 0.75470957328743171 0.75470957328743171 0 -0.6560590369687036 forward_v I I I I #
loop $-1 $-1 $251 $59 #
coedge $-1 $151 $151 $152 $252 reversed $93 $-1 #
coedge $-1 $152 $152 $151 $252 forward $95 $-1 #
coedge $-1 $153 $153 $96 $154 forward $148 $-1 #
edge $-1 $253 0 $253 6.2831853071796004 $153 $254 forward 7 unknown #
face $-1 $255 $256 $34 $-1 $257 reversed single #
loop $-1 $-1 $161 $97 #
plane-surface $-1 72.452162236396376 0 0 -1 0 0 0 0 1 forward_v I I I I #
coedge $-1 $258 $259 $260 $261 reversed $98 $-1 #
coedge $-1 $160 $100 $262 $263 reversed $63 $-1 #
coedge $-1 $100 $159 $258 $264 reversed $63 $-1 #
coedge $-1 $260 $265 $100 $162 forward $156 $-1 #
edge $-1 $266 95.12237077294553 $267 99.022390062630024 $161 $268 forward 7 unknown #
loop $-1 $-1 $168 $101 #
plane-surface $-1 -36.908518653968599 28.043524933353105 101.44748389754685 0.6560590369687036 0 0.75470957328743171 0.75470957328743171 0 -0.6560590369687036 forward_v I I I I #
loop $-1 $-1 $269 $65 #
coedge $-1 $166 $166 $167 $270 reversed $102 $-1 #
coedge $-1 $167 $167 $166 $270 forward $104 $-1 #
coedge $-1 $168 $168 $105 $169 forward $163 $-1 #
edge $-1 $271 0 $271 6.2831853071796004 $168 $272 forward 7 unknown #
face $-1 $273 $274 $36 $-1 $275 forward single #
loop $-1 $-1 $276 $106 #
plane-surface $-1 -72.452162236396376 0 0 1 0 0 0 0 -1 forward_v I I I I #
coedge $-1 $277 $278 $279 $280 reversed $107 $-1 #
coedge $-1 $281 $109 $282 $283 reversed $69 $-1 #
coedge $-1 $109 $281 $277 $284 forward $69 $-1 #
coedge $-1 $279 $285 $109 $177 forward $286 $-1 #
edge $-1 $287 -18.439946930775477 $288 -2.5250210362380496 $176 $289 forward 7 unknown #
loop $-1 $-1 $183 $110 #
plane-surface $-1 -72.452162236396376 -20.964967967013525 6.3816923313258656 -0.6560590369687036 0 0.75470957328743171 0.75470957328743171 0 0.6560590369687036 forward_v I I I I #
loop $-1 $-1 $290 $71 #
coedge $-1 $181 $181 $182 $291 reversed $111 $-1 #
coedge $-1 $182 $182 $181 $291 forward $113 $-1 #
coedge $-1 $183 $183 $114 $184 forward $178 $-1 #
edge $-1 $292 0 $292 6.2831853071796004 $183 $293 forward 7 unknown #
face $-1 $294 $295 $38 $-1 $296 reversed single #
loop $-1 $-1 $297 $115 #
plane-surface $-1 0 36.000987880621814 0 0 -1 0 0 0 -1 forward_v I I I I #
coedge $-1 $298 $299 $300 $301 reversed $116 $-1 #
coedge $-1 $190 $118 $302 $303 reversed $75 $-1 #
coedge $-1 $118 $189 $298 $304 reversed $75 $-1 #
coedge $-1 $300 $305 $118 $192 forward $306 $-1 #
edge $-1 $307 11.306814664912295 $308 15.793273547531058 $191 $309 forward 7 unknown #
loop $-1 $-1 $198 $119 #
plane-surface $-1 -72.452162236396376 28.043524933353105 6.3816923313258656 -0.6560590369687036 0 0.75470957328743171 0.75470957328743171 0 0.6560590369687036 forward_v I I I I #
loop $-1 $-1 $310 $77 #
coedge $-1 $196 $196 $197 $311 reversed $120 $-1 #
coedge $-1 $197 $197 $196 $311 forward $122 $-1 #
coedge $-1 $198 $198 $123 $199 forward $193 $-1 #
edge $-1 $312 0 $312 6.2831853071796004 $198 $313 forward 7 unknown #
face $-1 $314 $315 $30 $-1 $316 reversed single #
loop $-1 $-1 $317 $124 #
plane-surface $-1 -72.452162236396376 0 0 1 0 0 0 0 -1 forward_v I I I I #
coedge $-1 $318 $211 $319 $320 forward $125 $-1 #
coedge $-1 $321 $127 $318 $322 forward $81 $-1 #
coedge $-1 $127 $321 $323 $324 forward $81 $-1 #
coedge $-1 $214 $213 $127 $207 reversed $215 $-1 #
edge $-1 $325 -36.000987880621814 $326 36.000987880621814 $206 $327 forward 7 unknown #
coedge $-1 $129 $128 $328 $329 forward $51 $-1 #
coedge $-1 $330 $331 $128 $210 reversed $315 $-1 #
edge $-1 $217 -72.452162236396376 $332 72.452162236396376 $209 $333 forward 7 unknown #
coedge $-1 $203 $334 $129 $212 reversed $125 $-1 #
edge $-1 $335 -72.452162236396376 $216 72.452162236396376 $211 $336 forward 7 unknown #
coedge $-1 $206 $130 $334 $337 forward $215 $-1 #
coedge $-1 $130 $206 $330 $338 reversed $215 $-1 #
loop $-1 $-1 $213 $314 #
vertex $-1 $131 $339 #
vertex $-1 $131 $340 #
straight-curve $-1 72.452162236396376 0 10.281711621010377 0 1 0 I I #
face $-1 $341 $342 $31 $-1 $343 reversed single #
loop $-1 $-1 $344 $132 #
plane-surface $-1 -72.452162236396376 0 0 1 0 0 0 0 -1 forward_v I I I I #
coedge $-1 $230 $345 $224 $346 forward $133 $-1 #
coedge $-1 $138 $135 $347 $348 reversed $85 $-1 #
coedge $-1 $135 $138 $222 $346 reversed $85 $-1 #
coedge $-1 $349 $350 $135 $226 forward $351 $-1 #
edge $-1 $352 -10.281711621010377 $353 10.281711621010377 $225 $354 forward 7 unknown #
coedge $-1 $137 $136 $344 $355 reversed $54 $-1 #
coedge $-1 $347 $356 $136 $229 forward $342 $-1 #
edge $-1 $357 -36.976081118198188 $233 -33.976081118198188 $228 $358 forward 7 unknown #
coedge $-1 $359 $222 $137 $231 forward $133 $-1 #
edge $-1 $232 33.976081118198188 $360 36.976081118198188 $230 $361 forward 7 unknown #
vertex $-1 $231 $362 #
vertex $-1 $229 $363 #
straight-curve $-1 -69.452162236396376 -28.922430914282238 0 0 0 -1 I I #
face $-1 $-1 $247 $32 $-1 $364 forward single #
loop $-1 $-1 $365 $140 #
plane-surface $-1 72.452162236396376 0 0 -1 0 0 0 0 1 forward_v I I I I #
coedge $-1 $366 $367 $368 $369 reversed $141 $-1 #
coedge $-1 $370 $143 $145 $245 forward $89 $-1 #
coedge $-1 $143 $370 $366 $371 forward $89 $-1 #
coedge $-1 $368 $146 $143 $242 forward $247 $-1 #
edge $-1 $249 2.5250210362380496 $372 18.439946930775477 $241 $373 forward 7 unknown #
coedge $-1 $374 $375 $144 $244 forward $236 $-1 #
edge $-1 $376 -99.022390062630024 $248 -95.12237077294553 $243 $377 forward 7 unknown #
edge $-1 $249 138.95970810457018 $376 144.90432447279275 $145 $378 forward 7 unknown #
coedge $-1 $146 $368 $374 $379 forward $247 $-1 #
loop $-1 $-1 $368 $235 #
vertex $-1 $244 $380 #
vertex $-1 $147 $381 #
straight-curve $-1 29.078636456126183 -13.007505019744812 10.281711621010373 -1 0 0 I I #
coedge $-1 $251 $251 $-1 $382 reversed $150 $-1 #
edge $-1 $383 0 $383 6.2831853071796004 $151 $384 forward 7 unknown #
vertex $-1 $154 $385 #
ellipse-curve $-1 70.208932795087009 -20.964967967013525 8.3317019761681212 0.6560590369687036 0 0.75470957328743171 0.75470957328743171 0 -0.6560590369687036 1 I I #
face $-1 $-1 $386 $34 $-1 $387 forward single #
loop $-1 $-1 $388 $155 #
plane-surface $-1 0 36.000987880621814 0 0 -1 0 0 0 -1 forward_v I I I I #
coedge $-1 $389 $158 $160 $264 forward $98 $-1 #
coedge $-1 $158 $389 $388 $390 reversed $98 $-1 #
coedge $-1 $391 $161 $158 $261 forward $156 $-1 #
edge $-1 $267 6.0642995194078395 $392 21.979225413945262 $260 $393 forward 7 unknown #
coedge $-1 $394 $395 $159 $263 forward $386 $-1 #
edge $-1 $396 38.887066897651444 $266 43.373525780270192 $262 $397 forward 7 unknown #
edge $-1 $267 -144.90432447279275 $396 -138.95970810457018 $160 $398 forward 7 unknown #
coedge $-1 $161 $391 $394 $399 reversed $156 $-1 #
vertex $-1 $399 $400 #
vertex $-1 $162 $401 #
straight-curve $-1 72.452162236396376 20.086061986084392 105.4040823939559 0 0 -1 I I #
coedge $-1 $269 $269 $-1 $402 reversed $165 $-1 #
edge $-1 $403 0 $403 6.2831853071796004 $166 $404 forward 7 unknown #
vertex $-1 $169 $405 #
ellipse-curve $-1 70.208932795087009 28.043524933353105 8.3317019761681212 0.6560590369687036 0 0.75470957328743171 0.75470957328743171 0 -0.6560590369687036 1 I I #
face $-1 $-1 $286 $36 $-1 $406 forward single #
loop $-1 $-1 $282 $170 #
plane-surface $-1 -70.952162236396376 -28.922430914282238 0 0 -1 0 0 0 -1 forward_v I I I I #
coedge $-1 $407 $408 $278 $409 forward $171 $-1 #
coedge $-1 $278 $173 $175 $284 reversed $107 $-1 #
coedge $-1 $173 $277 $276 $409 reversed $107 $-1 #
coedge $-1 $410 $176 $173 $280 forward $286 $-1 #
edge $-1 $288 -15.793273547531058 $411 -11.306814664912295 $279 $412 forward 7 unknown #
coedge $-1 $175 $174 $407 $413 reversed $69 $-1 #
coedge $-1 $414 $415 $174 $283 forward $274 $-1 #
edge $-1 $416 1.5273512825945339 $287 7.4719676508171364 $282 $417 forward 7 unknown #
edge $-1 $418 0 $288 5.9446163682226025 $277 $419 forward 7 unknown #
coedge $-1 $176 $410 $414 $420 forward $286 $-1 #
loop $-1 $-1 $279 $273 #
vertex $-1 $177 $421 #
vertex $-1 $177 $422 #
straight-curve $-1 -67.965703353777627 -10.482483983506762 10.281711621010379 0 1 0 I I #
coedge $-1 $290 $290 $-1 $423 reversed $180 $-1 #
edge $-1 $424 0 $424 6.2831853071796004 $181 $425 forward 7 unknown #
vertex $-1 $184 $426 #
ellipse-curve $-1 -70.208932795086994 -20.964967967013525 8.3317019761681212 -0.6560590369687036 0 0.75470957328743171 0.75470957328743171 0 0.6560590369687036 1 I I #
face $-1 $-1 $306 $38 $-1 $427 forward single #
loop $-1 $-1 $428 $185 #
plane-surface $-1 -72.452162236396376 0 0 1 0 0 0 0 -1 forward_v I I I I #
coedge $-1 $429 $430 $299 $431 forward $186 $-1 #
coedge $-1 $432 $188 $190 $304 forward $116 $-1 #
coedge $-1 $188 $432 $297 $431 reversed $116 $-1 #
coedge $-1 $433 $191 $188 $301 forward $306 $-1 #
edge $-1 $308 6.0642995194078395 $434 21.979225413945269 $300 $435 forward 7 unknown #
coedge $-1 $436 $428 $189 $303 forward $295 $-1 #
edge $-1 $437 -51.489494279519548 $307 -47.58947498983504 $302 $438 forward 7 unknown #
edge $-1 $308 -5.9446163682226025 $437 0 $190 $439 forward 7 unknown #
coedge $-1 $191 $433 $436 $440 forward $306 $-1 #
loop $-1 $-1 $300 $294 #
vertex $-1 $303 $441 #
vertex $-1 $192 $442 #
straight-curve $-1 -83.758976901308671 20.086061986084392 10.281711621010373 1 0 0 I I #
coedge $-1 $310 $310 $-1 $443 reversed $195 $-1 #
edge $-1 $444 0 $444 6.2831853071796004 $196 $445 forward 7 unknown #
vertex $-1 $199 $446 #
ellipse-curve $-1 -70.208932795086994 28.043524933353105 8.3317019761681212 -0.6560590369687036 0 0.75470957328743171 0.75470957328743171 0 0.6560590369687036 1 I I #
face $-1 $-1 $215 $30 $-1 $447 reversed single #
loop $-1 $-1 $330 $200 #
plane-surface $-1 0 36.000987880621814 0 0 -1 0 0 0 -1 forward_v I I I I #
coedge $-1 $448 $328 $331 $449 forward $201 $-1 #
coedge $-1 $334 $203 $204 $322 reversed $125 $-1 #
coedge $-1 $328 $448 $203 $320 reversed $201 $-1 #
edge $-1 $335 -10.281711621010377 $450 10.281711621010377 $319 $451 forward 7 unknown #
coedge $-1 $205 $204 $448 $452 forward $81 $-1 #
edge $-1 $326 -72.452162236396376 $450 72.452162236396376 $318 $453 forward 7 unknown #
coedge $-1 $331 $330 $205 $324 reversed $315 $-1 #
edge $-1 $454 -72.452162236396376 $325 72.452162236396376 $323 $455 forward 7 unknown #
vertex $-1 $207 $456 #
vertex $-1 $337 $457 #
straight-curve $-1 72.452162236396376 0 -10.281711621010377 0 -1 0 I I #
coedge $-1 $317 $319 $208 $329 reversed $201 $-1 #
edge $-1 $332 -36.000987880621814 $335 36.000987880621814 $328 $458 forward 7 unknown #
coedge $-1 $323 $209 $214 $338 forward $315 $-1 #
coedge $-1 $209 $323 $317 $449 reversed $315 $-1 #
vertex $-1 $210 $459 #
straight-curve $-1 0 36.000987880621814 10.281711621010377 -1 0 0 I I #
coedge $-1 $211 $318 $213 $337 reversed $125 $-1 #
vertex $-1 $329 $460 #
straight-curve $-1 0 -36.000987880621814 10.281711621010377 1 0 0 I I #
edge $-1 $216 -10.281711621010377 $326 10.281711621010377 $213 $461 forward 7 unknown #
edge $-1 $217 -10.281711621010377 $325 10.281711621010377 $214 $462 forward 7 unknown #
point $-1 72.452162236396376 -36.000987880621814 10.281711621010377 #
point $-1 72.452162236396376 36.000987880621814 10.281711621010377 #
face $-1 $-1 $351 $31 $-1 $463 reversed single #
loop $-1 $-1 $347 $219 #
plane-surface $-1 0 0 -10.281711621010377 0 0 1 1 0 0 forward_v I I I I #
coedge $-1 $464 $465 $227 $355 forward $220 $-1 #
coedge $-1 $222 $359 $349 $466 forward $133 $-1 #
edge $-1 $353 -19.770133181895801 $232 -12.691576215556225 $222 $467 forward 7 unknown #
coedge $-1 $468 $228 $223 $348 forward $342 $-1 #
edge $-1 $233 12.691576215556225 $352 19.770133181895801 $347 $469 forward 7 unknown #
coedge $-1 $470 $225 $345 $466 reversed $351 $-1 #
coedge $-1 $225 $470 $468 $471 reversed $351 $-1 #
loop $-1 $-1 $225 $341 #
vertex $-1 $471 $472 #
vertex $-1 $226 $473 #
straight-curve $-1 -69.452162236396376 -36.000987880621814 0 0 0 1 I I #
edge $-1 $360 -10.281711621010377 $357 10.281711621010377 $344 $474 forward 7 unknown #
coedge $-1 $228 $468 $464 $475 forward $342 $-1 #
vertex $-1 $229 $476 #
straight-curve $-1 -35.476081118198188 -28.922430914282238 -10.281711621010377 1 0 0 I I #
coedge $-1 $345 $230 $465 $477 forward $133 $-1 #
vertex $-1 $477 $478 #
straight-curve $-1 -35.476081118198188 -28.922430914282238 10.281711621010377 -1 0 0 I I #
point $-1 -69.452162236396376 -28.922430914282238 10.281711621010377 #
point $-1 -69.452162236396376 -28.922430914282238 -10.281711621010377 #
plane-surface $-1 0 0 10.281711621010377 0 0 1 1 0 0 forward_v I I I I #
coedge $-1 $375 $374 $367 $479 forward $236 $-1 #
coedge $-1 $367 $238 $240 $371 reversed $141 $-1 #
coedge $-1 $238 $366 $365 $479 reversed $141 $-1 #
coedge $-1 $246 $241 $238 $369 forward $247 $-1 #
edge $-1 $372 38.887066897651444 $480 43.373525780270192 $368 $481 forward 7 unknown #
coedge $-1 $240 $239 $375 $482 reversed $89 $-1 #
edge $-1 $483 -144.90432447279275 $372 -138.95970810457018 $366 $484 forward 7 unknown #
vertex $-1 $242 $485 #
straight-curve $-1 67.965703353777613 -10.482483983506762 10.281711621010388 0 -1 0 I I #
coedge $-1 $365 $243 $246 $379 reversed $236 $-1 #
coedge $-1 $243 $365 $370 $482 forward $236 $-1 #
vertex $-1 $244 $486 #
straight-curve $-1 72.452162236396376 -13.007505019744812 105.4040823939559 0 0 1 I I #
straight-curve $-1 -36.908518653968599 -13.007505019744812 101.44748389754685 0.75470957328743171 0 -0.6560590369687036 I I #
edge $-1 $480 -28.922430914282238 $248 -13.007505019744812 $374 $487 forward 7 unknown #
point $-1 72.452162236396376 -13.007505019744812 10.281711621010377 #
point $-1 67.965703353777627 -13.007505019744812 10.281711621010373 #
edge $-1 $488 1 $488 0 $251 $-1 forward 7 unknown #
vertex $-1 $252 $489 #
ellipse-curve $-1 68.916476270095288 -20.964967967013525 6.8449008538545026 0.6560590369687036 0 0.75470957328743171 0.75470957328743171 0 -0.6560590369687036 1 I I #
point $-1 70.963642368374437 -20.964967967013525 7.6756429391994168 #
loop $-1 $-1 $262 $255 #
plane-surface $-1 0 0 10.281711621010377 0 0 1 1 0 0 forward_v I I I I #
coedge $-1 $490 $491 $259 $390 forward $256 $-1 #
coedge $-1 $259 $258 $395 $492 reversed $98 $-1 #
edge $-1 $392 -97.698948996427504 $493 -91.754332628204935 $388 $494 forward 7 unknown #
coedge $-1 $265 $260 $491 $495 reversed $156 $-1 #
vertex $-1 $390 $496 #
straight-curve $-1 72.45216223639639 14.021762466676552 6.3816923313258656 0 1 0 I I #
coedge $-1 $497 $262 $265 $399 forward $386 $-1 #
coedge $-1 $262 $497 $389 $492 forward $386 $-1 #
vertex $-1 $263 $498 #
straight-curve $-1 29.078636456126183 20.086061986084392 10.281711621010373 1 0 0 I I #
straight-curve $-1 -36.908518653968599 20.086061986084392 101.44748389754685 -0.75470957328743171 0 0.6560590369687036 I I #
edge $-1 $266 20.086061986084392 $499 36.000987880621814 $265 $500 forward 7 unknown #
point $-1 72.452162236396376 20.086061986084392 10.281711621010377 #
point $-1 72.452162236396362 20.086061986084392 6.3816923313258798 #
edge $-1 $501 1 $501 0 $269 $-1 forward 7 unknown #
vertex $-1 $270 $502 #
ellipse-curve $-1 68.916476270095288 28.043524933353105 6.8449008538545026 0.6560590369687036 0 0.75470957328743171 0.75470957328743171 0 -0.6560590369687036 1 I I #
point $-1 70.963642368374437 28.043524933353105 7.6756429391994168 #
plane-surface $-1 0 0 10.281711621010377 0 0 1 1 0 0 forward_v I I I I #
coedge $-1 $503 $276 $281 $413 forward $171 $-1 #
coedge $-1 $276 $503 $410 $504 reversed $171 $-1 #
edge $-1 $411 47.58947498983504 $418 51.489494279519548 $276 $505 forward 7 unknown #
coedge $-1 $285 $279 $408 $504 forward $286 $-1 #
vertex $-1 $504 $506 #
straight-curve $-1 -83.758976901308671 -13.007505019744812 10.281711621010373 -1 0 0 I I #
edge $-1 $418 2.5250210362380496 $416 18.439946930775477 $407 $507 forward 7 unknown #
coedge $-1 $415 $282 $285 $420 reversed $274 $-1 #
coedge $-1 $282 $414 $503 $508 reversed $274 $-1 #
vertex $-1 $508 $509 #
straight-curve $-1 -73.60486887114331 -28.922430914282238 5.3796597197539837 0.75470957328743171 0 0.6560590369687036 I I #
vertex $-1 $413 $510 #
straight-curve $-1 -72.452162236396376 -13.007505019744812 6.3816923313258656 0.75470957328743171 0 0.6560590369687036 I I #
edge $-1 $511 -36.976081118198188 $287 -32.489622235579425 $285 $512 forward 7 unknown #
point $-1 -67.965703353777613 -28.922430914282238 10.281711621010377 #
point $-1 -67.965703353777613 -13.007505019744812 10.281711621010377 #
edge $-1 $513 1 $513 0 $290 $-1 forward 7 unknown #
vertex $-1 $291 $514 #
ellipse-curve $-1 -68.916476270095288 -20.964967967013525 6.8449008538545097 -0.6560590369687036 0 0.75470957328743171 0.75470957328743171 0 0.6560590369687036 1 I I #
point $-1 -69.45422322179958 -20.964967967013525 8.9877610131368311 #
plane-surface $-1 0 0 10.281711621010377 0 0 1 1 0 0 forward_v I I I I #
coedge $-1 $302 $515 $432 $516 forward $295 $-1 #
coedge $-1 $430 $297 $515 $517 reversed $186 $-1 #
coedge $-1 $297 $429 $433 $518 reversed $186 $-1 #
edge $-1 $434 19.302170391808531 $519 25.246786760031135 $297 $520 forward 7 unknown #
coedge $-1 $299 $298 $428 $516 reversed $116 $-1 #
coedge $-1 $305 $300 $430 $518 forward $306 $-1 #
vertex $-1 $518 $521 #
straight-curve $-1 -67.965703353777627 14.021762466676552 10.281711621010379 0 1 0 I I #
coedge $-1 $515 $302 $305 $440 reversed $295 $-1 #
vertex $-1 $303 $522 #
straight-curve $-1 -72.452162236396376 20.086061986084392 57.871186610845413 0 0 1 I I #
straight-curve $-1 -72.452162236396376 20.086061986084392 6.3816923313258656 -0.75470957328743171 0 -0.6560590369687036 I I #
edge $-1 $523 -36.000987880621814 $307 -20.086061986084392 $436 $524 forward 7 unknown #
point $-1 -72.452162236396376 20.086061986084392 10.281711621010377 #
point $-1 -67.965703353777613 20.086061986084392 10.281711621010377 #
edge $-1 $525 1 $525 0 $310 $-1 forward 7 unknown #
vertex $-1 $311 $526 #
ellipse-curve $-1 -68.916476270095288 28.043524933353105 6.8449008538545097 -0.6560590369687036 0 0.75470957328743171 0.75470957328743171 0 0.6560590369687036 1 I I #
point $-1 -69.45422322179958 28.043524933353105 8.9877610131368311 #
plane-surface $-1 72.452162236396376 0 0 -1 0 0 0 0 1 forward_v I I I I #
coedge $-1 $319 $317 $321 $452 reversed $201 $-1 #
edge $-1 $332 -10.281711621010377 $454 10.281711621010377 $331 $527 forward 7 unknown #
vertex $-1 $452 $528 #
straight-curve $-1 -72.452162236396376 -36.000987880621814 0 0 0 -1 I I #
edge $-1 $450 -36.000987880621814 $454 36.000987880621814 $448 $529 forward 7 unknown #
straight-curve $-1 0 -36.000987880621814 -10.281711621010377 -1 0 0 I I #
vertex $-1 $324 $530 #
straight-curve $-1 0 36.000987880621814 -10.281711621010377 1 0 0 I I #
point $-1 72.452162236396376 36.000987880621814 -10.281711621010377 #
point $-1 72.452162236396376 -36.000987880621814 -10.281711621010377 #
straight-curve $-1 -72.452162236396376 0 10.281711621010377 0 -1 0 I I #
point $-1 -72.452162236396376 36.000987880621814 10.281711621010377 #
point $-1 -72.452162236396376 -36.000987880621814 10.281711621010377 #
straight-curve $-1 72.452162236396376 -36.000987880621814 0 0 0 -1 I I #
straight-curve $-1 72.452162236396376 36.000987880621814 0 0 0 -1 I I #
plane-surface $-1 0 -36.000987880621814 0 0 1 0 0 0 1 forward_v I I I I #
coedge $-1 $531 $344 $356 $475 reversed $220 $-1 #
coedge $-1 $344 $531 $359 $477 reversed $220 $-1 #
edge $-1 $532 -72.452162236396376 $353 -69.452162236396376 $349 $533 forward 7 unknown #
straight-curve $-1 -69.452162236396376 -16.230854698726013 10.281711621010377 0 1 0 I I #
coedge $-1 $356 $347 $350 $471 forward $342 $-1 #
straight-curve $-1 -69.452162236396376 -16.230854698726013 -10.281711621010377 0 -1 0 I I #
coedge $-1 $350 $349 $531 $534 forward $351 $-1 #
edge $-1 $352 69.452162236396376 $535 72.452162236396376 $350 $536 forward 7 unknown #
point $-1 -69.452162236396376 -36.000987880621814 -10.281711621010377 #
point $-1 -69.452162236396376 -36.000987880621814 10.281711621010377 #
straight-curve $-1 -72.452162236396376 -28.922430914282238 0 0 0 -1 I I #
edge $-1 $535 -36.000987880621814 $357 -28.922430914282238 $464 $537 forward 7 unknown #
point $-1 -72.452162236396376 -28.922430914282238 -10.281711621010377 #
edge $-1 $360 28.922430914282238 $532 36.000987880621814 $465 $538 forward 7 unknown #
point $-1 -72.452162236396376 -28.922430914282238 10.281711621010377 #
edge $-1 $480 95.12237077294553 $483 99.022390062630024 $365 $539 forward 7 unknown #
vertex $-1 $379 $540 #
straight-curve $-1 29.078636456126183 -28.922430914282238 10.281711621010373 1 0 0 I I #
edge $-1 $483 -18.439946930775477 $376 -2.5250210362380496 $375 $541 forward 7 unknown #
vertex $-1 $482 $542 #
straight-curve $-1 -36.908518653968599 -28.922430914282238 101.44748389754685 -0.75470957328743171 0 0.6560590369687036 I I #
point $-1 67.965703353777627 -28.922430914282238 10.281711621010373 #
point $-1 72.452162236396362 -13.007505019744812 6.3816923313258798 #
straight-curve $-1 72.452162236396376 0 10.281711621010377 0 1 0 I I #
vertex $-1 $382 $543 #
point $-1 69.671185843382716 -20.964967967013525 6.188841816885799 #
coedge $-1 $491 $388 $497 $544 reversed $256 $-1 #
coedge $-1 $388 $490 $391 $495 forward $256 $-1 #
edge $-1 $493 -21.979225413945269 $396 -6.0642995194078395 $395 $545 forward 7 unknown #
vertex $-1 $390 $546 #
straight-curve $-1 -1.2821698713279837 36.000987880621814 70.477970722776604 -0.75470957328743171 0 0.6560590369687036 I I #
edge $-1 $499 -10.281711621010377 $392 -6.3816923313258735 $391 $547 forward 7 unknown #
point $-1 72.452162236396376 36.000987880621814 6.3816923313258735 #
coedge $-1 $395 $394 $490 $544 forward $386 $-1 #
point $-1 67.965703353777627 20.086061986084392 10.281711621010373 #
vertex $-1 $399 $548 #
straight-curve $-1 72.452162236396376 0 10.281711621010377 0 1 0 I I #
vertex $-1 $402 $549 #
point $-1 69.671185843382716 28.043524933353105 6.188841816885799 #
coedge $-1 $408 $407 $415 $508 forward $171 $-1 #
edge $-1 $411 13.007505019744812 $511 28.922430914282238 $408 $550 forward 7 unknown #
straight-curve $-1 -72.452162236396376 -13.007505019744812 57.871186610845413 0 0 -1 I I #
point $-1 -72.452162236396376 -13.007505019744812 10.281711621010377 #
straight-curve $-1 -72.452162236396376 -10.482483983506762 6.3816923313258709 0 -1 0 I I #
edge $-1 $416 6.3816923313258656 $511 10.281711621010377 $503 $551 forward 7 unknown #
point $-1 -72.452162236396376 -28.922430914282238 6.3816923313258656 #
point $-1 -72.452162236396376 -13.007505019744812 6.3816923313258656 #
vertex $-1 $508 $552 #
straight-curve $-1 -35.476081118198188 -28.922430914282238 10.281711621010377 1 0 0 I I #
vertex $-1 $423 $553 #
point $-1 -68.161766696807845 -20.964967967013525 7.5009598908232133 #
coedge $-1 $428 $436 $429 $517 forward $295 $-1 #
edge $-1 $519 -21.979225413945269 $437 -6.0642995194078395 $428 $554 forward 7 unknown #
edge $-1 $523 -10.281711621010377 $519 -6.3816923313258656 $429 $555 forward 7 unknown #
edge $-1 $434 67.965703353777613 $523 72.452162236396376 $430 $556 forward 7 unknown #
vertex $-1 $431 $557 #
straight-curve $-1 -53.3981705738545 36.000987880621814 22.94507493966611 -0.75470957328743171 0 -0.6560590369687036 I I #
point $-1 -67.965703353777613 36.000987880621821 10.281711621010377 #
point $-1 -72.452162236396376 20.086061986084392 6.3816923313258656 #
vertex $-1 $518 $558 #
straight-curve $-1 -72.452162236396376 0 10.281711621010377 0 -1 0 I I #
vertex $-1 $443 $559 #
point $-1 -68.161766696807845 28.043524933353105 7.5009598908232133 #
straight-curve $-1 -72.452162236396376 36.000987880621814 0 0 0 -1 I I #
point $-1 -72.452162236396376 -36.000987880621814 -10.281711621010377 #
straight-curve $-1 -72.452162236396376 0 -10.281711621010377 0 1 0 I I #
point $-1 -72.452162236396376 36.000987880621814 -10.281711621010377 #
coedge $-1 $465 $464 $470 $534 reversed $220 $-1 #
vertex $-1 $477 $560 #
straight-curve $-1 0 -36.000987880621814 10.281711621010377 1 0 0 I I #
edge $-1 $532 -10.281711621010377 $535 10.281711621010377 $531 $561 forward 7 unknown #
vertex $-1 $475 $562 #
straight-curve $-1 0 -36.000987880621814 -10.281711621010377 -1 0 0 I I #
straight-curve $-1 -72.452162236396376 0 -10.281711621010377 0 1 0 I I #
straight-curve $-1 -72.452162236396376 0 10.281711621010377 0 -1 0 I I #
straight-curve $-1 72.452162236396376 -28.922430914282238 105.4040823939559 0 0 -1 I I #
point $-1 72.452162236396376 -28.922430914282238 10.281711621010377 #
straight-curve $-1 72.45216223639639 -10.482483983506762 6.3816923313258656 0 1 0 I I #
point $-1 72.452162236396362 -28.922430914282238 6.3816923313258798 #
point $-1 68.260417233126574 -20.964967967013525 6.0901912805670708 #
edge $-1 $499 -72.452162236396376 $493 -67.965703353777627 $490 $563 forward 7 unknown #
straight-curve $-1 67.965703353777613 14.021762466676552 10.281711621010388 0 -1 0 I I #
point $-1 67.965703353777627 36.000987880621821 10.281711621010373 #
straight-curve $-1 72.452162236396376 36.000987880621814 0 0 0 -1 I I #
point $-1 72.452162236396376 36.000987880621814 10.281711621010377 #
point $-1 68.260417233126574 28.043524933353105 6.0901912805670708 #
straight-curve $-1 -72.452162236396376 0 10.281711621010377 0 -1 0 I I #
straight-curve $-1 -72.452162236396376 -28.922430914282238 0 0 0 1 I I #
point $-1 -72.452162236396376 -28.922430914282238 10.281711621010377 #
point $-1 -68.260417233126574 -20.964967967013525 6.0901912805670779 #
straight-curve $-1 -72.452162236396376 14.021762466676552 6.3816923313258709 0 -1 0 I I #
straight-curve $-1 -72.452162236396376 36.000987880621814 0 0 0 -1 I I #
straight-curve $-1 0 36.000987880621814 10.281711621010377 -1 0 0 I I #
point $-1 -72.452162236396376 36.000987880621821 6.3816923313258656 #
point $-1 -72.452162236396376 36.000987880621814 10.281711621010377 #
point $-1 -68.260417233126574 28.043524933353105 6.0901912805670779 #
point $-1 -72.452162236396376 -36.000987880621814 10.281711621010377 #
straight-curve $-1 -72.452162236396376 -36.000987880621814 0 0 0 -1 I I #
point $-1 -72.452162236396376 -36.000987880621814 -10.281711621010377 #
straight-curve $-1 0 36.000987880621814 10.281711621010377 -1 0 0 I I #
End-of-ACIS-data 