500 0 8 0           
7 Unknown 11 ACIS 5.0 NT 24 Fri Mar 26 18:43:26 1999 
-1 9.9999999999999995e-007 1e-010 
body $-1 $8 $-1 $9 #
body $-1 $10 $-1 $11 #
body $-1 $12 $-1 $13 #
body $-1 $14 $-1 $15 #
body $-1 $16 $-1 $17 #
body $-1 $18 $-1 $19 #
body $-1 $20 $-1 $21 #
body $-1 $22 $-1 $23 #
lump $-1 $-1 $24 $0 #
transform $-1 1 0 0 0 1 0 0 0 1 79.238258003479103 40.743365768786198 10.750170692789025 1 rotate no_reflect no_shear #
lump $-1 $-1 $25 $1 #
transform $-1 1 0 0 0 1 0 0 0 1 79.238258003479103 40.743365768786198 10.750170692789025 1 rotate no_reflect no_shear #
lump $-1 $-1 $26 $2 #
transform $-1 1 0 0 0 1 0 0 0 1 79.238258003479103 40.743365768786198 10.750170692789025 1 rotate no_reflect no_shear #
lump $-1 $-1 $27 $3 #
transform $-1 1 0 0 0 1 0 0 0 1 79.238258003479103 40.743365768786198 10.750170692789025 1 rotate no_reflect no_shear #
lump $-1 $-1 $28 $4 #
transform $-1 1 0 0 0 1 0 0 0 1 79.238258003479103 40.743365768786198 10.750170692789025 1 rotate no_reflect no_shear #
lump $-1 $-1 $29 $5 #
transform $-1 1 0 0 0 1 0 0 0 1 79.238258003479103 40.743365768786198 10.750170692789025 1 rotate no_reflect no_shear #
lump $-1 $-1 $30 $6 #
transform $-1 1 0 0 0 1 0 0 0 1 79.238258003479103 40.743365768786198 10.750170692789025 1 rotate no_reflect no_shear #
lump $-1 $-1 $31 $7 #
transform $-1 1 0 0 0 1 0 0 0 1 79.238258003479103 40.743365768786198 10.750170692789025 1 rotate no_reflect no_shear #
shell $-1 $-1 $-1 $32 $-1 $8 #
shell $-1 $-1 $-1 $33 $-1 $10 #
shell $-1 $-1 $-1 $34 $-1 $12 #
shell $-1 $-1 $-1 $35 $-1 $14 #
shell $-1 $-1 $-1 $36 $-1 $16 #
shell $-1 $-1 $-1 $37 $-1 $18 #
shell $-1 $-1 $-1 $38 $-1 $20 #
shell $-1 $-1 $-1 $39 $-1 $22 #
face $-1 $40 $41 $24 $-1 $42 reversed single #
face $-1 $43 $44 $25 $-1 $45 forward single #
face $-1 $46 $47 $26 $-1 $48 reversed single #
face $-1 $49 $50 $27 $-1 $51 forward single #
face $-1 $52 $53 $28 $-1 $54 forward single #
face $-1 $55 $56 $29 $-1 $57 reversed single #
face $-1 $58 $59 $30 $-1 $60 forward single #
face $-1 $61 $62 $31 $-1 $63 forward single #
face $-1 $64 $65 $24 $-1 $66 forward single #
loop $-1 $-1 $67 $32 #
plane-surface $-1 0 -40.743365768786198 0 0 1 0 0 0 1 forward_v I I I I #
face $-1 $68 $69 $25 $-1 $70 forward single #
loop $-1 $-1 $71 $33 #
plane-surface $-1 0 -40.743365768786198 0 0 1 0 0 0 1 forward_v I I I I #
face $-1 $72 $73 $26 $-1 $74 reversed single #
loop $-1 $-1 $75 $34 #
plane-surface $-1 87.059923293990664 -15.428839877122652 225.94578384360864 0 -1 0 -0.73135370988377701 0 -0.68199835119979291 forward_v I I I I #
face $-1 $76 $77 $27 $-1 $78 forward single #
loop $-1 $79 $80 $35 #
cone-surface $-1 72.108900820951376 -28.214883599426361 3.5289241077040248 -0.73135370988377701 0 -0.68199835119979291 1.7049958779994823 0 -1.8283842747094425 1 I I 0 1 2.5 forward I I I I #
face $-1 $81 $82 $28 $-1 $83 forward single #
loop $-1 $84 $85 $36 #
cone-surface $-1 72.108900820951376 -20.543257366044138 3.5289241077040248 -0.73135370988377701 0 -0.68199835119979291 1.7049958779994823 0 -1.8283842747094425 1 I I 0 1 2.5 forward I I I I #
face $-1 $86 $87 $29 $-1 $88 reversed single #
loop $-1 $-1 $89 $37 #
plane-surface $-1 -195.14064591462375 -33.329301088347847 110.04339593246398 0 1 0 -0.73135370988377701 0 0.68199835119979291 forward_v I I I I #
face $-1 $90 $91 $30 $-1 $92 forward single #
loop $-1 $93 $94 $38 #
cone-surface $-1 -72.108900820951376 -28.214883599426361 3.5289241077040248 0.73135370988377701 0 -0.68199835119979291 1.7049958779994823 0 1.8283842747094425 1 I I 0 1 2.5 forward I I I I #
face $-1 $95 $96 $31 $-1 $97 forward single #
loop $-1 $98 $99 $39 #
cone-surface $-1 -72.108900820951376 -20.543257366044138 3.5289241077040248 0.73135370988377701 0 -0.68199835119979291 1.7049958779994823 0 1.8283842747094425 1 I I 0 1 2.5 forward I I I I #
face $-1 $100 $101 $24 $-1 $102 reversed single #
loop $-1 $-1 $103 $40 #
plane-surface $-1 0 0 10.750170692789025 0 0 1 1 0 0 forward_v I I I I #
coedge $-1 $104 $105 $106 $107 reversed $41 $-1 #
face $-1 $108 $109 $25 $-1 $110 reversed single #
loop $-1 $-1 $111 $43 #
plane-surface $-1 0 0 10.750170692789025 0 0 1 1 0 0 forward_v I I I I #
coedge $-1 $112 $113 $114 $115 forward $44 $-1 #
face $-1 $116 $117 $26 $-1 $118 reversed single #
loop $-1 $-1 $119 $46 #
plane-surface $-1 -28.842464617153993 -24.379070482735248 117.86506122297556 0.73135370988377701 0 0.68199835119979291 0.68199835119979291 0 -0.73135370988377701 forward_v I I I I #
coedge $-1 $120 $121 $122 $123 reversed $47 $-1 #
face $-1 $-1 $124 $27 $-1 $125 forward single #
loop $-1 $126 $127 $49 #
cone-surface $-1 68.162588340093322 -28.214883599426361 -0.15107172590165696 -0.73135370988377701 0 -0.68199835119979291 0.85249793899974113 0 -0.91419213735472127 1 I I -0.70710678118654746 0.70710678118654746 1.25 forward I I I I #
loop $-1 $-1 $128 $35 #
coedge $-1 $80 $80 $129 $130 reversed $50 $-1 #
face $-1 $-1 $131 $28 $-1 $132 forward single #
loop $-1 $133 $134 $52 #
cone-surface $-1 68.162588340093322 -20.543257366044138 -0.15107172590165696 -0.73135370988377701 0 -0.68199835119979291 0.85249793899974113 0 -0.91419213735472127 1 I I -0.70710678118654746 0.70710678118654746 1.25 forward I I I I #
loop $-1 $-1 $135 $36 #
coedge $-1 $85 $85 $136 $137 reversed $53 $-1 #
face $-1 $138 $139 $29 $-1 $140 reversed single #
loop $-1 $-1 $141 $55 #
plane-surface $-1 -79.238258003479089 -24.379070482735248 1.9626733118308977 -0.73135370988377701 0 0.68199835119979291 0.68199835119979291 0 0.73135370988377701 forward_v I I I I #
coedge $-1 $142 $143 $144 $145 reversed $56 $-1 #
face $-1 $-1 $146 $30 $-1 $147 forward single #
loop $-1 $148 $149 $58 #
cone-surface $-1 -68.162588340093322 -28.214883599426361 -0.15107172590165696 0.73135370988377701 0 -0.68199835119979291 0.85249793899974113 0 0.91419213735472127 1 I I -0.70710678118654746 0.70710678118654746 1.25 forward I I I I #
loop $-1 $-1 $150 $38 #
coedge $-1 $94 $94 $151 $152 reversed $59 $-1 #
face $-1 $-1 $153 $31 $-1 $154 forward single #
loop $-1 $155 $156 $61 #
cone-surface $-1 -68.162588340093322 -20.543257366044138 -0.15107172590165696 0.73135370988377701 0 -0.68199835119979291 0.85249793899974113 0 0.91419213735472127 1 I I -0.70710678118654746 0.70710678118654746 1.25 forward I I I I #
loop $-1 $-1 $157 $39 #
coedge $-1 $99 $99 $158 $159 reversed $62 $-1 #
face $-1 $160 $161 $24 $-1 $162 reversed single #
loop $-1 $-1 $163 $64 #
plane-surface $-1 0 0 -10.750170692789025 0 0 1 1 0 0 forward_v I I I I #
coedge $-1 $164 $165 $166 $167 forward $65 $-1 #
coedge $-1 $168 $67 $169 $170 reversed $41 $-1 #
coedge $-1 $67 $168 $171 $172 forward $41 $-1 #
coedge $-1 $173 $163 $67 $107 forward $101 $-1 #
edge $-1 $174 -79.238258003479103 $175 79.238258003479103 $67 $176 forward 7 unknown #
face $-1 $177 $178 $25 $-1 $179 reversed single #
loop $-1 $-1 $180 $68 #
plane-surface $-1 -79.238258003479103 0 0 1 0 0 0 0 -1 forward_v I I I I #
coedge $-1 $181 $182 $113 $183 forward $69 $-1 #
coedge $-1 $184 $71 $185 $186 reversed $44 $-1 #
coedge $-1 $71 $184 $111 $183 reversed $44 $-1 #
coedge $-1 $187 $188 $71 $115 reversed $189 $-1 #
edge $-1 $190 -10.750170692789025 $191 10.750170692789025 $114 $192 forward 7 unknown #
face $-1 $193 $194 $26 $-1 $195 forward single #
loop $-1 $-1 $196 $72 #
plane-surface $-1 87.059923293990664 -33.329301088347847 225.94578384360864 0 1 0 0.73135370988377701 0 0.68199835119979291 forward_v I I I I #
coedge $-1 $197 $198 $199 $200 reversed $73 $-1 #
coedge $-1 $121 $75 $201 $202 reversed $47 $-1 #
coedge $-1 $75 $120 $197 $203 reversed $47 $-1 #
coedge $-1 $199 $204 $75 $123 forward $194 $-1 #
edge $-1 $205 -35.708296356483771 $206 -27.513822678434963 $122 $207 forward 7 unknown #
loop $-1 $-1 $129 $76 #
plane-surface $-1 -28.842464617153993 -24.379070482735248 117.86506122297556 0.73135370988377701 0 0.68199835119979291 0.68199835119979291 0 -0.73135370988377701 forward_v I I I I #
loop $-1 $-1 $208 $49 #
coedge $-1 $127 $127 $128 $209 reversed $77 $-1 #
coedge $-1 $128 $128 $127 $209 forward $79 $-1 #
coedge $-1 $129 $129 $80 $130 forward $124 $-1 #
edge $-1 $210 0 $210 6.2831853071796004 $129 $211 forward 7 unknown #
loop $-1 $-1 $136 $81 #
plane-surface $-1 -28.842464617153993 -24.379070482735248 117.86506122297556 0.73135370988377701 0 0.68199835119979291 0.68199835119979291 0 -0.73135370988377701 forward_v I I I I #
loop $-1 $-1 $212 $52 #
coedge $-1 $134 $134 $135 $213 reversed $82 $-1 #
coedge $-1 $135 $135 $134 $213 forward $84 $-1 #
coedge $-1 $136 $136 $85 $137 forward $131 $-1 #
edge $-1 $214 0 $214 6.2831853071796004 $136 $215 forward 7 unknown #
face $-1 $216 $217 $29 $-1 $218 reversed single #
loop $-1 $-1 $219 $86 #
plane-surface $-1 -195.14064591462375 -15.428839877122652 110.04339593246398 0 -1 0 0.73135370988377701 0 -0.68199835119979291 forward_v I I I I #
coedge $-1 $220 $221 $222 $223 reversed $87 $-1 #
coedge $-1 $143 $89 $224 $225 reversed $56 $-1 #
coedge $-1 $89 $142 $220 $226 reversed $56 $-1 #
coedge $-1 $222 $227 $89 $145 forward $228 $-1 #
edge $-1 $229 18.33206495383277 $230 26.526538631881579 $144 $231 forward 7 unknown #
loop $-1 $-1 $151 $90 #
plane-surface $-1 -79.238258003479089 -24.379070482735248 1.9626733118308977 -0.73135370988377701 0 0.68199835119979291 0.68199835119979291 0 0.73135370988377701 forward_v I I I I #
loop $-1 $-1 $232 $58 #
coedge $-1 $149 $149 $150 $233 reversed $91 $-1 #
coedge $-1 $150 $150 $149 $233 forward $93 $-1 #
coedge $-1 $151 $151 $94 $152 forward $146 $-1 #
edge $-1 $234 0 $234 6.2831853071796004 $151 $235 forward 7 unknown #
loop $-1 $-1 $158 $95 #
plane-surface $-1 -79.238258003479089 -24.379070482735248 1.9626733118308977 -0.73135370988377701 0 0.68199835119979291 0.68199835119979291 0 0.73135370988377701 forward_v I I I I #
loop $-1 $-1 $236 $61 #
coedge $-1 $156 $156 $157 $237 reversed $96 $-1 #
coedge $-1 $157 $157 $156 $237 forward $98 $-1 #
coedge $-1 $158 $158 $99 $159 forward $153 $-1 #
edge $-1 $238 0 $238 6.2831853071796004 $158 $239 forward 7 unknown #
face $-1 $240 $241 $24 $-1 $242 reversed single #
loop $-1 $-1 $243 $100 #
plane-surface $-1 -79.238258003479103 0 0 1 0 0 0 0 -1 forward_v I I I I #
coedge $-1 $106 $244 $245 $246 forward $101 $-1 #
coedge $-1 $247 $103 $248 $249 forward $65 $-1 #
coedge $-1 $103 $247 $168 $250 forward $65 $-1 #
coedge $-1 $169 $251 $103 $167 reversed $252 $-1 #
edge $-1 $253 -40.743365768786198 $254 40.743365768786198 $166 $255 forward 7 unknown #
coedge $-1 $105 $104 $165 $250 reversed $41 $-1 #
coedge $-1 $245 $166 $104 $170 forward $252 $-1 #
edge $-1 $253 -10.750170692789025 $174 10.750170692789025 $169 $256 forward 7 unknown #
coedge $-1 $257 $258 $105 $172 reversed $161 $-1 #
edge $-1 $259 -10.750170692789025 $175 10.750170692789025 $171 $260 forward 7 unknown #
coedge $-1 $244 $106 $258 $261 forward $101 $-1 #
vertex $-1 $170 $262 #
vertex $-1 $261 $263 #
straight-curve $-1 0 -40.743365768786198 -10.750170692789025 -1 0 0 I I #
face $-1 $264 $189 $25 $-1 $265 reversed single #
loop $-1 $-1 $266 $108 #
plane-surface $-1 -77.462988719267827 -48.157430449224556 0 0 1 0 0 0 1 forward_v I I I I #
coedge $-1 $267 $268 $184 $269 forward $109 $-1 #
coedge $-1 $270 $111 $268 $271 forward $69 $-1 #
coedge $-1 $111 $270 $187 $272 forward $69 $-1 #
edge $-1 $190 75.68771943505655 $273 79.238258003479103 $111 $274 forward 7 unknown #
coedge $-1 $113 $112 $180 $269 reversed $44 $-1 #
coedge $-1 $275 $276 $112 $186 forward $277 $-1 #
edge $-1 $278 -79.238258003479103 $191 -75.68771943505655 $185 $279 forward 7 unknown #
coedge $-1 $280 $114 $182 $272 reversed $189 $-1 #
coedge $-1 $114 $280 $275 $281 reversed $189 $-1 #
loop $-1 $-1 $280 $177 #
vertex $-1 $183 $282 #
vertex $-1 $281 $283 #
straight-curve $-1 -75.68771943505655 -40.743365768786198 0 0 0 -1 I I #
face $-1 $-1 $284 $26 $-1 $285 reversed single #
loop $-1 $-1 $122 $116 #
plane-surface $-1 0 0 10.750170692789025 0 0 1 1 0 0 forward_v I I I I #
coedge $-1 $286 $287 $288 $289 reversed $117 $-1 #
coedge $-1 $290 $119 $121 $203 forward $73 $-1 #
coedge $-1 $119 $290 $286 $291 forward $73 $-1 #
coedge $-1 $288 $122 $119 $200 forward $194 $-1 #
edge $-1 $206 3.2393046357550279 $292 21.139765846980225 $199 $293 forward 7 unknown #
coedge $-1 $294 $295 $120 $202 forward $284 $-1 #
edge $-1 $296 -111.01021860997344 $205 -102.22272122901529 $201 $297 forward 7 unknown #
edge $-1 $206 146.46112965942112 $296 158.47651600695821 $121 $298 forward 7 unknown #
coedge $-1 $122 $288 $294 $299 forward $194 $-1 #
vertex $-1 $202 $300 #
vertex $-1 $123 $301 #
straight-curve $-1 43.529961646995332 -15.428839877122652 10.750170692789027 -1 0 0 I I #
coedge $-1 $208 $208 $-1 $302 reversed $126 $-1 #
edge $-1 $303 0 $303 6.2831853071796004 $127 $304 forward 7 unknown #
vertex $-1 $130 $305 #
ellipse-curve $-1 75.141021164454699 -28.214883599426361 6.3564220023099587 0.73135370988377701 0 0.68199835119979291 1.7049958779994823 0 -1.8283842747094425 1 I I #
coedge $-1 $212 $212 $-1 $306 reversed $133 $-1 #
edge $-1 $307 0 $307 6.2831853071796004 $134 $308 forward 7 unknown #
vertex $-1 $137 $309 #
ellipse-curve $-1 75.141021164454699 -20.543257366044138 6.3564220023099587 0.73135370988377701 0 0.68199835119979291 1.7049958779994823 0 -1.8283842747094425 1 I I #
face $-1 $-1 $228 $29 $-1 $310 forward single #
loop $-1 $-1 $311 $138 #
plane-surface $-1 -79.238258003479103 0 0 1 0 0 0 0 -1 forward_v I I I I #
coedge $-1 $312 $313 $314 $315 reversed $139 $-1 #
coedge $-1 $316 $141 $143 $226 forward $87 $-1 #
coedge $-1 $141 $316 $312 $317 forward $87 $-1 #
coedge $-1 $314 $144 $141 $223 forward $228 $-1 #
edge $-1 $230 -21.139765846980225 $318 -3.2393046357550279 $222 $319 forward 7 unknown #
coedge $-1 $320 $321 $142 $225 forward $217 $-1 #
edge $-1 $322 -53.059024654401107 $229 -44.271527273442963 $224 $323 forward 7 unknown #
edge $-1 $230 -12.015386347537081 $322 2.0896906529347916e-014 $143 $324 forward 7 unknown #
coedge $-1 $144 $314 $320 $325 forward $228 $-1 #
loop $-1 $-1 $314 $216 #
vertex $-1 $225 $326 #
vertex $-1 $145 $327 #
straight-curve $-1 -97.570322957311873 -33.329301088347847 10.750170692789027 1 0 0 I I #
coedge $-1 $232 $232 $-1 $328 reversed $148 $-1 #
edge $-1 $329 0 $329 6.2831853071796004 $149 $330 forward 7 unknown #
vertex $-1 $152 $331 #
ellipse-curve $-1 -75.141021164454699 -28.214883599426361 6.3564220023099551 -0.73135370988377701 0 0.68199835119979291 1.7049958779994823 0 1.8283842747094425 1 I I #
coedge $-1 $236 $236 $-1 $332 reversed $155 $-1 #
edge $-1 $333 0 $333 6.2831853071796004 $156 $334 forward 7 unknown #
vertex $-1 $159 $335 #
ellipse-curve $-1 -75.141021164454699 -20.543257366044138 6.3564220023099551 -0.73135370988377701 0 0.68199835119979291 1.7049958779994823 0 1.8283842747094425 1 I I #
face $-1 $-1 $252 $24 $-1 $336 reversed single #
loop $-1 $-1 $337 $160 #
plane-surface $-1 0 40.743365768786198 0 0 -1 0 0 0 -1 forward_v I I I I #
coedge $-1 $258 $257 $338 $339 forward $161 $-1 #
coedge $-1 $163 $173 $340 $341 forward $101 $-1 #
coedge $-1 $251 $169 $163 $246 reversed $252 $-1 #
edge $-1 $342 -40.743365768786198 $174 40.743365768786198 $245 $343 forward 7 unknown #
coedge $-1 $165 $164 $257 $344 forward $65 $-1 #
coedge $-1 $337 $338 $164 $249 reversed $241 $-1 #
edge $-1 $254 -79.238258003479103 $345 79.238258003479103 $248 $346 forward 7 unknown #
edge $-1 $259 -79.238258003479103 $253 79.238258003479103 $168 $347 forward 7 unknown #
coedge $-1 $166 $245 $337 $348 reversed $252 $-1 #
loop $-1 $-1 $169 $240 #
vertex $-1 $167 $349 #
vertex $-1 $167 $350 #
straight-curve $-1 79.238258003479103 0 10.750170692789025 0 1 0 I I #
straight-curve $-1 79.238258003479103 -40.743365768786198 0 0 0 -1 I I #
coedge $-1 $243 $171 $247 $344 reversed $161 $-1 #
coedge $-1 $171 $243 $173 $261 reversed $161 $-1 #
vertex $-1 $344 $351 #
straight-curve $-1 -79.238258003479103 -40.743365768786198 0 0 0 -1 I I #
edge $-1 $175 -40.743365768786198 $352 40.743365768786198 $258 $353 forward 7 unknown #
point $-1 79.238258003479103 -40.743365768786198 -10.750170692789025 #
point $-1 -79.238258003479103 -40.743365768786198 -10.750170692789025 #
face $-1 $-1 $277 $25 $-1 $354 reversed single #
plane-surface $-1 -75.68771943505655 -44.450398109005377 0 -1 0 0 0 0 1 forward_v I I I I #
coedge $-1 $355 $356 $357 $358 forward $178 $-1 #
coedge $-1 $357 $180 $276 $359 reversed $109 $-1 #
coedge $-1 $180 $357 $181 $271 reversed $109 $-1 #
edge $-1 $273 -10.750170692789025 $278 10.750170692789025 $180 $360 forward 7 unknown #
coedge $-1 $182 $181 $356 $361 forward $69 $-1 #
edge $-1 $273 40.743365768786198 $362 48.157430449224556 $268 $363 forward 7 unknown #
edge $-1 $364 -3.7070323402191789 $190 3.7070323402191789 $187 $365 forward 7 unknown #
vertex $-1 $271 $366 #
straight-curve $-1 0 -40.743365768786198 10.750170692789025 -1 0 0 I I #
coedge $-1 $367 $185 $188 $281 forward $277 $-1 #
coedge $-1 $185 $367 $267 $359 forward $277 $-1 #
loop $-1 $-1 $185 $264 #
vertex $-1 $269 $368 #
straight-curve $-1 0 -40.743365768786198 -10.750170692789025 1 0 0 I I #
coedge $-1 $188 $187 $369 $370 forward $189 $-1 #
edge $-1 $191 -3.7070323402191789 $371 3.7070323402191789 $188 $372 forward 7 unknown #
point $-1 -75.68771943505655 -40.743365768786198 10.750170692789025 #
point $-1 -75.68771943505655 -40.743365768786198 -10.750170692789025 #
loop $-1 $-1 $201 $193 #
plane-surface $-1 79.238258003479103 0 0 -1 0 0 0 0 1 forward_v I I I I #
coedge $-1 $287 $196 $198 $291 reversed $117 $-1 #
coedge $-1 $196 $286 $373 $374 reversed $117 $-1 #
coedge $-1 $204 $199 $196 $289 forward $194 $-1 #
edge $-1 $292 27.513822678434963 $375 35.708296356483771 $288 $376 forward 7 unknown #
coedge $-1 $198 $197 $295 $377 reversed $73 $-1 #
edge $-1 $378 -158.47651600695821 $292 -146.46112965942112 $286 $379 forward 7 unknown #
vertex $-1 $200 $380 #
straight-curve $-1 71.043784325430309 -12.189535241367624 10.750170692789013 0 -1 0 I I #
coedge $-1 $373 $201 $204 $299 reversed $284 $-1 #
coedge $-1 $201 $373 $290 $377 forward $284 $-1 #
vertex $-1 $202 $381 #
straight-curve $-1 79.238258003479103 -15.428839877122652 112.97289192180432 0 0 1 I I #
straight-curve $-1 -28.842464617153993 -15.428839877122652 117.86506122297556 0.68199835119979291 0 -0.73135370988377701 I I #
edge $-1 $375 -33.329301088347847 $205 -15.428839877122652 $294 $382 forward 7 unknown #
point $-1 79.238258003479103 -15.428839877122652 10.750170692789025 #
point $-1 71.043784325430295 -15.428839877122652 10.750170692789027 #
edge $-1 $383 1 $383 0 $208 $-1 forward 7 unknown #
vertex $-1 $209 $384 #
ellipse-curve $-1 69.07678047744804 -28.214883599426361 0.70142621309808417 0.73135370988377701 0 0.68199835119979291 1.7049958779994823 0 -1.8283842747094425 1 I I #
point $-1 76.846017042454193 -28.214883599426361 4.5280377276005224 #
edge $-1 $385 1 $385 0 $212 $-1 forward 7 unknown #
vertex $-1 $213 $386 #
ellipse-curve $-1 69.07678047744804 -20.543257366044138 0.70142621309808417 0.73135370988377701 0 0.68199835119979291 1.7049958779994823 0 -1.8283842747094425 1 I I #
point $-1 76.846017042454193 -20.543257366044138 4.5280377276005224 #
plane-surface $-1 0 0 10.750170692789025 0 0 1 1 0 0 forward_v I I I I #
coedge $-1 $321 $320 $313 $387 forward $217 $-1 #
coedge $-1 $313 $219 $221 $317 reversed $139 $-1 #
coedge $-1 $219 $312 $311 $387 reversed $139 $-1 #
coedge $-1 $227 $222 $219 $315 forward $228 $-1 #
edge $-1 $318 -26.526538631881579 $388 -18.33206495383277 $314 $389 forward 7 unknown #
coedge $-1 $221 $220 $321 $390 reversed $87 $-1 #
edge $-1 $391 -2.0896906529347916e-014 $318 12.015386347537081 $312 $392 forward 7 unknown #
vertex $-1 $223 $393 #
straight-curve $-1 -71.043784325430295 -12.189535241367624 10.750170692789023 0 1 0 I I #
coedge $-1 $311 $224 $227 $325 reversed $217 $-1 #
coedge $-1 $224 $311 $316 $390 forward $217 $-1 #
vertex $-1 $225 $394 #
straight-curve $-1 -79.238258003479103 -33.329301088347847 55.02169796623199 0 0 1 I I #
straight-curve $-1 -79.238258003479089 -33.329301088347847 1.9626733118308977 -0.68199835119979291 0 -0.73135370988377701 I I #
edge $-1 $388 15.428839877122652 $229 33.329301088347847 $320 $395 forward 7 unknown #
point $-1 -79.238258003479103 -33.329301088347847 10.750170692789025 #
point $-1 -71.043784325430295 -33.329301088347847 10.750170692789025 #
edge $-1 $396 1 $396 0 $232 $-1 forward 7 unknown #
vertex $-1 $233 $397 #
ellipse-curve $-1 -69.07678047744804 -28.214883599426361 0.70142621309808417 -0.73135370988377701 0 0.68199835119979291 1.7049958779994823 0 1.8283842747094425 1 I I #
point $-1 -73.436025286455234 -28.214883599426361 8.1848062770194066 #
edge $-1 $398 1 $398 0 $236 $-1 forward 7 unknown #
vertex $-1 $237 $399 #
ellipse-curve $-1 -69.07678047744804 -20.543257366044138 0.70142621309808417 -0.73135370988377701 0 0.68199835119979291 1.7049958779994823 0 1.8283842747094425 1 I I #
point $-1 -73.436025286455234 -20.543257366044138 8.1848062770194066 #
plane-surface $-1 79.238258003479103 0 0 -1 0 0 0 0 1 forward_v I I I I #
coedge $-1 $340 $248 $251 $348 forward $241 $-1 #
coedge $-1 $248 $340 $243 $339 reversed $241 $-1 #
edge $-1 $345 -10.750170692789025 $352 10.750170692789025 $338 $400 forward 7 unknown #
coedge $-1 $338 $337 $244 $341 reversed $241 $-1 #
edge $-1 $352 -79.238258003479103 $342 79.238258003479103 $340 $401 forward 7 unknown #
vertex $-1 $246 $402 #
straight-curve $-1 79.238258003479103 0 -10.750170692789025 0 -1 0 I I #
edge $-1 $345 -40.743365768786198 $259 40.743365768786198 $257 $403 forward 7 unknown #
vertex $-1 $249 $404 #
straight-curve $-1 0 40.743365768786198 10.750170692789025 -1 0 0 I I #
straight-curve $-1 0 -40.743365768786198 10.750170692789025 1 0 0 I I #
edge $-1 $254 -10.750170692789025 $342 10.750170692789025 $251 $405 forward 7 unknown #
point $-1 79.238258003479103 -40.743365768786198 10.750170692789025 #
point $-1 79.238258003479103 40.743365768786198 10.750170692789025 #
point $-1 -79.238258003479103 -40.743365768786198 10.750170692789025 #
vertex $-1 $341 $406 #
straight-curve $-1 -79.238258003479103 0 -10.750170692789025 0 1 0 I I #
plane-surface $-1 0 0 -10.750170692789025 0 0 1 1 0 0 forward_v I I I I #
coedge $-1 $369 $266 $367 $407 reversed $178 $-1 #
coedge $-1 $266 $369 $270 $361 reversed $178 $-1 #
coedge $-1 $268 $267 $266 $358 reversed $109 $-1 #
edge $-1 $362 -10.750170692789025 $408 10.750170692789025 $357 $409 forward 7 unknown #
edge $-1 $408 -48.157430449224556 $278 -40.743365768786198 $267 $410 forward 7 unknown #
straight-curve $-1 -79.238258003479103 -40.743365768786198 0 0 0 -1 I I #
edge $-1 $362 -1.7752692842112765 $364 1.7752692842112765 $356 $411 forward 7 unknown #
vertex $-1 $271 $412 #
straight-curve $-1 -79.238258003479103 0 10.750170692789025 0 -1 0 I I #
vertex $-1 $272 $413 #
straight-curve $-1 -75.68771943505655 -44.450398109005377 10.750170692789025 0 1 0 I I #
point $-1 -79.238258003479103 -40.743365768786198 10.750170692789025 #
coedge $-1 $276 $275 $355 $407 forward $277 $-1 #
point $-1 -79.238258003479103 -40.743365768786198 -10.750170692789025 #
coedge $-1 $356 $355 $280 $370 reversed $178 $-1 #
edge $-1 $364 -10.750170692789025 $371 10.750170692789025 $280 $414 forward 7 unknown #
vertex $-1 $370 $415 #
straight-curve $-1 -75.68771943505655 -44.450398109005377 -10.750170692789025 0 -1 0 I I #
coedge $-1 $295 $294 $287 $374 forward $284 $-1 #
edge $-1 $375 102.22272122901529 $378 111.01021860997344 $373 $416 forward 7 unknown #
vertex $-1 $299 $417 #
straight-curve $-1 43.529961646995332 -33.329301088347847 10.750170692789027 1 0 0 I I #
edge $-1 $378 -21.139765846980225 $296 -3.2393046357550279 $295 $418 forward 7 unknown #
vertex $-1 $377 $419 #
straight-curve $-1 -28.842464617153993 -33.329301088347847 117.86506122297556 -0.68199835119979291 0 0.73135370988377701 I I #
point $-1 71.043784325430295 -33.329301088347847 10.750170692789027 #
point $-1 79.238258003479118 -15.428839877122652 1.9626733118308834 #
straight-curve $-1 79.238258003479103 0 10.750170692789025 0 1 0 I I #
vertex $-1 $302 $420 #
point $-1 70.781776355447519 -28.214883599426361 -1.1269580616113584 #
vertex $-1 $306 $421 #
point $-1 70.781776355447519 -20.543257366044138 -1.1269580616113584 #
edge $-1 $388 44.271527273442963 $391 53.059024654401107 $311 $422 forward 7 unknown #
vertex $-1 $325 $423 #
straight-curve $-1 -97.570322957311873 -15.428839877122652 10.750170692789027 -1 0 0 I I #
edge $-1 $391 3.2393046357550279 $322 21.139765846980225 $321 $424 forward 7 unknown #
vertex $-1 $390 $425 #
straight-curve $-1 -79.238258003479089 -15.428839877122652 1.9626733118308977 0.68199835119979291 0 0.73135370988377701 I I #
point $-1 -71.043784325430295 -15.428839877122652 10.750170692789025 #
point $-1 -79.238258003479103 -33.329301088347847 1.9626733118308823 #
straight-curve $-1 -79.238258003479103 0 10.750170692789025 0 -1 0 I I #
vertex $-1 $328 $426 #
point $-1 -67.37178459944856 -28.214883599426361 2.5298104878075267 #
vertex $-1 $332 $427 #
point $-1 -67.37178459944856 -20.543257366044138 2.5298104878075267 #
straight-curve $-1 -79.238258003479103 40.743365768786198 0 0 0 -1 I I #
straight-curve $-1 0 40.743365768786198 -10.750170692789025 1 0 0 I I #
point $-1 79.238258003479103 40.743365768786198 -10.750170692789025 #
straight-curve $-1 -79.238258003479103 0 10.750170692789025 0 -1 0 I I #
point $-1 -79.238258003479103 40.743365768786198 10.750170692789025 #
straight-curve $-1 79.238258003479103 40.743365768786198 0 0 0 -1 I I #
point $-1 -79.238258003479103 40.743365768786198 -10.750170692789025 #
edge $-1 $371 -1.7752692842112765 $408 1.7752692842112765 $355 $428 forward 7 unknown #
vertex $-1 $359 $429 #
straight-curve $-1 -79.238258003479103 -48.157430449224556 0 0 0 -1 I I #
straight-curve $-1 -79.238258003479103 0 -10.750170692789025 0 1 0 I I #
straight-curve $-1 -77.462988719267827 -48.157430449224556 10.750170692789025 1 0 0 I I #
point $-1 -79.238258003479103 -48.157430449224556 10.750170692789025 #
point $-1 -75.68771943505655 -48.157430449224556 10.750170692789025 #
straight-curve $-1 -75.68771943505655 -48.157430449224556 0 0 0 -1 I I #
point $-1 -75.68771943505655 -48.157430449224556 -10.750170692789025 #
straight-curve $-1 79.238258003479103 -33.329301088347847 112.97289192180432 0 0 -1 I I #
point $-1 79.238258003479103 -33.329301088347847 10.750170692789025 #
straight-curve $-1 79.238258003479089 -12.189535241367624 1.9626733118309048 0 1 0 I I #
point $-1 79.238258003479118 -33.329301088347847 1.9626733118308834 #
point $-1 67.248396202738604 -28.214883599426361 -1.0035696649013981 #
point $-1 67.248396202738604 -20.543257366044138 -1.0035696649013981 #
straight-curve $-1 -79.238258003479103 -15.428839877122652 55.02169796623199 0 0 -1 I I #
point $-1 -79.238258003479103 -15.428839877122652 10.750170692789025 #
straight-curve $-1 -79.238258003479103 -12.189535241367624 1.962673311830887 0 -1 0 I I #
point $-1 -79.238258003479103 -15.428839877122652 1.9626733118308823 #
point $-1 -67.248396202738604 -28.214883599426361 -1.0035696649013981 #
point $-1 -67.248396202738604 -20.543257366044138 -1.0035696649013981 #
straight-curve $-1 -77.462988719267827 -48.157430449224556 -10.750170692789025 -1 0 0 I I #
point $-1 -79.238258003479103 -48.157430449224556 -10.750170692789025 #
End-of-ACIS-data 