500 0 5 0           
7 Unknown 11 ACIS 5.0 NT 24 Thu Mar 25 23:57:37 1999 
-1 9.9999999999999995e-007 1e-010 
body $-1 $5 $-1 $6 #
body $-1 $7 $-1 $8 #
body $-1 $9 $-1 $10 #
body $-1 $11 $-1 $12 #
body $-1 $13 $-1 $14 #
lump $-1 $-1 $15 $0 #
transform $-1 1 0 0 0 1 0 0 0 1 79.473860896633809 53.146855968242399 12.883737327571637 1 rotate no_reflect no_shear #
lump $-1 $-1 $16 $1 #
transform $-1 1 0 0 0 1 0 0 0 1 79.473860896633809 53.146855968242399 12.883737327571637 1 rotate no_reflect no_shear #
lump $-1 $-1 $17 $2 #
transform $-1 1 0 0 0 1 0 0 0 1 79.473860896633809 53.146855968242399 12.883737327571637 1 rotate no_reflect no_shear #
lump $-1 $-1 $18 $3 #
transform $-1 1 0 0 0 1 0 0 0 1 79.473860896633809 53.146855968242399 12.883737327571637 1 rotate no_reflect no_shear #
lump $-1 $-1 $19 $4 #
transform $-1 1 0 0 0 1 0 0 0 1 79.473860896633809 53.146855968242399 12.883737327571637 1 rotate no_reflect no_shear #
shell $-1 $-1 $-1 $20 $-1 $5 #
shell $-1 $-1 $-1 $21 $-1 $7 #
shell $-1 $-1 $-1 $22 $-1 $9 #
shell $-1 $-1 $-1 $23 $-1 $11 #
shell $-1 $-1 $-1 $24 $-1 $13 #
face $-1 $25 $26 $15 $-1 $27 forward single #
face $-1 $28 $29 $16 $-1 $30 forward single #
face $-1 $31 $32 $17 $-1 $33 reversed single #
face $-1 $34 $35 $18 $-1 $36 forward single #
face $-1 $37 $38 $19 $-1 $39 forward single #
face $-1 $40 $41 $15 $-1 $42 reversed single #
loop $-1 $-1 $43 $20 #
plane-surface $-1 0 0 12.883737327571637 0 0 1 1 0 0 forward_v I I I I #
face $-1 $44 $45 $16 $-1 $46 reversed single #
loop $-1 $-1 $47 $21 #
plane-surface $-1 0 -48.505832361511473 0.20027023642600206 0 0 1 1 0 0 forward_v I I I I #
face $-1 $48 $49 $17 $-1 $50 reversed single #
loop $-1 $-1 $51 $22 #
plane-surface $-1 -212.77863827889371 -43.864808754780547 92.483930441860835 0 1 0 -0.83867057594974714 0 0.54463902268945019 forward_v I I I I #
face $-1 $52 $53 $18 $-1 $54 forward single #
loop $-1 $55 $56 $23 #
cone-surface $-1 -76.157505297860794 -35.740865878163049 8.7151074654843477 0.83867057594974714 0 -0.54463902268945019 1.0892780453789004 0 1.6773411518994943 1 I I 0 1 2 forward I I I I #
face $-1 $57 $58 $19 $-1 $59 forward single #
loop $-1 $60 $61 $24 #
cone-surface $-1 -76.157505297860794 -23.554951563236795 8.7151074654843477 0.83867057594974714 0 -0.54463902268945019 1.0892780453789004 0 1.6773411518994943 1 I I 0 1 2 forward I I I I #
face $-1 $62 $63 $15 $-1 $64 reversed single #
loop $-1 $-1 $65 $25 #
plane-surface $-1 0 0 -12.883737327571637 0 0 1 1 0 0 forward_v I I I I #
coedge $-1 $66 $67 $68 $69 forward $26 $-1 #
face $-1 $70 $71 $16 $-1 $72 reversed single #
loop $-1 $-1 $73 $28 #
plane-surface $-1 0 -48.505832361511473 -6.6143055599262741 0 0 1 1 0 0 forward_v I I I I #
coedge $-1 $74 $75 $76 $77 reversed $29 $-1 #
face $-1 $78 $79 $17 $-1 $80 reversed single #
loop $-1 $-1 $81 $31 #
plane-surface $-1 -79.473860896633767 -29.647908720699917 5.9147985856609324 -0.83867057594974714 0 0.54463902268945019 0.54463902268945019 0 0.83867057594974714 forward_v I I I I #
coedge $-1 $82 $83 $84 $85 reversed $32 $-1 #
face $-1 $-1 $86 $18 $-1 $87 forward single #
loop $-1 $88 $89 $34 #
cone-surface $-1 -74.265319918094178 -35.740865878163049 7.4863079516629512 0.83867057594974714 0 -0.54463902268945019 0.54463902268945019 0 0.83867057594974714 1 I I -0.70710678118654746 0.70710678118654746 1 forward I I I I #
loop $-1 $-1 $90 $23 #
coedge $-1 $56 $56 $91 $92 reversed $35 $-1 #
face $-1 $-1 $93 $19 $-1 $94 forward single #
loop $-1 $95 $96 $37 #
cone-surface $-1 -74.265319918094178 -23.554951563236795 7.4863079516629512 0.83867057594974714 0 -0.54463902268945019 0.54463902268945019 0 0.83867057594974714 1 I I -0.70710678118654746 0.70710678118654746 1 forward I I I I #
loop $-1 $-1 $97 $24 #
coedge $-1 $61 $61 $98 $99 reversed $38 $-1 #
face $-1 $100 $101 $15 $-1 $102 reversed single #
loop $-1 $-1 $103 $40 #
plane-surface $-1 0 -53.146855968242399 0 0 1 0 0 0 1 forward_v I I I I #
coedge $-1 $104 $105 $106 $107 forward $41 $-1 #
coedge $-1 $108 $43 $109 $110 forward $26 $-1 #
coedge $-1 $43 $108 $111 $112 forward $26 $-1 #
coedge $-1 $113 $114 $43 $69 reversed $115 $-1 #
edge $-1 $116 -53.146855968242399 $117 53.146855968242399 $68 $118 forward 7 unknown #
face $-1 $119 $120 $16 $-1 $121 reversed single #
loop $-1 $-1 $122 $44 #
plane-surface $-1 0 -43.864808754780547 -3.207017661750136 0 -1 0 0 0 -1 forward_v I I I I #
coedge $-1 $123 $124 $125 $126 reversed $45 $-1 #
coedge $-1 $127 $47 $128 $129 forward $29 $-1 #
coedge $-1 $47 $127 $130 $131 reversed $29 $-1 #
coedge $-1 $132 $133 $47 $77 forward $134 $-1 #
edge $-1 $135 19.611892574024811 $136 28.893939787486662 $76 $137 forward 7 unknown #
face $-1 $138 $139 $17 $-1 $140 reversed single #
loop $-1 $-1 $141 $48 #
plane-surface $-1 -212.77863827889371 -15.431008686619284 92.483930441860835 0 -1 0 0.83867057594974714 0 -0.54463902268945019 forward_v I I I I #
coedge $-1 $142 $143 $144 $145 reversed $49 $-1 #
coedge $-1 $83 $51 $146 $147 reversed $32 $-1 #
coedge $-1 $51 $82 $142 $148 reversed $32 $-1 #
coedge $-1 $144 $149 $51 $85 forward $150 $-1 #
edge $-1 $151 26.915458242813045 $152 31.441139832725355 $84 $153 forward 7 unknown #
loop $-1 $-1 $91 $52 #
plane-surface $-1 -79.473860896633767 -29.647908720699917 5.9147985856609324 -0.83867057594974714 0 0.54463902268945019 0.54463902268945019 0 0.83867057594974714 forward_v I I I I #
loop $-1 $-1 $154 $34 #
coedge $-1 $89 $89 $90 $155 reversed $53 $-1 #
coedge $-1 $90 $90 $89 $155 forward $55 $-1 #
coedge $-1 $91 $91 $56 $92 forward $86 $-1 #
edge $-1 $156 0 $156 6.2831853071796004 $91 $157 forward 7 unknown #
loop $-1 $-1 $98 $57 #
plane-surface $-1 -79.473860896633767 -29.647908720699917 5.9147985856609324 -0.83867057594974714 0 0.54463902268945019 0.54463902268945019 0 0.83867057594974714 forward_v I I I I #
loop $-1 $-1 $158 $37 #
coedge $-1 $96 $96 $97 $159 reversed $58 $-1 #
coedge $-1 $97 $97 $96 $159 forward $60 $-1 #
coedge $-1 $98 $98 $61 $99 forward $93 $-1 #
edge $-1 $160 0 $160 6.2831853071796004 $98 $161 forward 7 unknown #
face $-1 $162 $163 $15 $-1 $164 reversed single #
loop $-1 $-1 $165 $62 #
plane-surface $-1 -79.473860896633809 0 0 1 0 0 0 0 -1 forward_v I I I I #
coedge $-1 $166 $111 $167 $168 forward $63 $-1 #
coedge $-1 $169 $65 $166 $170 forward $41 $-1 #
coedge $-1 $65 $169 $171 $172 forward $41 $-1 #
coedge $-1 $114 $113 $65 $107 reversed $115 $-1 #
edge $-1 $173 -53.146855968242399 $174 53.146855968242399 $106 $175 forward 7 unknown #
coedge $-1 $67 $66 $176 $177 forward $26 $-1 #
coedge $-1 $178 $179 $66 $110 reversed $163 $-1 #
edge $-1 $117 -79.473860896633809 $180 79.473860896633809 $109 $181 forward 7 unknown #
coedge $-1 $103 $182 $67 $112 reversed $63 $-1 #
edge $-1 $183 -79.473860896633809 $116 79.473860896633809 $111 $184 forward 7 unknown #
coedge $-1 $106 $68 $182 $185 forward $115 $-1 #
coedge $-1 $68 $106 $178 $186 reversed $115 $-1 #
loop $-1 $-1 $113 $162 #
vertex $-1 $69 $187 #
vertex $-1 $69 $188 #
straight-curve $-1 79.473860896633809 0 12.883737327571637 0 1 0 I I #
face $-1 $189 $190 $16 $-1 $191 reversed single #
loop $-1 $-1 $192 $70 #
plane-surface $-1 -79.473860896633809 0 0 1 0 0 0 0 -1 forward_v I I I I #
coedge $-1 $193 $128 $133 $194 reversed $71 $-1 #
coedge $-1 $195 $73 $196 $197 reversed $45 $-1 #
coedge $-1 $73 $195 $193 $198 forward $45 $-1 #
coedge $-1 $133 $132 $73 $126 forward $134 $-1 #
edge $-1 $199 -28.893939787486662 $200 -19.611892574024811 $125 $201 forward 7 unknown #
coedge $-1 $75 $74 $192 $202 reversed $29 $-1 #
coedge $-1 $122 $203 $74 $129 reversed $71 $-1 #
edge $-1 $135 -79.473860896633809 $204 79.473860896633809 $128 $205 forward 7 unknown #
coedge $-1 $206 $207 $75 $131 forward $190 $-1 #
edge $-1 $136 -79.473860896633809 $208 79.473860896633809 $130 $209 forward 7 unknown #
coedge $-1 $125 $76 $207 $210 forward $134 $-1 #
coedge $-1 $76 $125 $122 $194 forward $134 $-1 #
loop $-1 $-1 $76 $189 #
vertex $-1 $77 $211 #
vertex $-1 $210 $212 #
straight-curve $-1 79.473860896633809 -24.252916180755737 0.20027023642600206 0 -1 0 I I #
face $-1 $-1 $150 $17 $-1 $213 forward single #
loop $-1 $-1 $214 $78 #
plane-surface $-1 -79.473860896633809 0 0 1 0 0 0 0 -1 forward_v I I I I #
coedge $-1 $215 $216 $217 $218 reversed $79 $-1 #
coedge $-1 $219 $81 $83 $148 forward $49 $-1 #
coedge $-1 $81 $219 $215 $220 forward $49 $-1 #
coedge $-1 $217 $84 $81 $145 forward $150 $-1 #
edge $-1 $152 -29.040854394430589 $221 -0.60705432626932598 $144 $222 forward 7 unknown #
coedge $-1 $223 $224 $82 $147 forward $139 $-1 #
edge $-1 $225 -40.327166635269549 $151 -33.35822789335878 $146 $226 forward 7 unknown #
edge $-1 $152 -8.3095066665702113 $225 7.8341151973915139e-014 $83 $227 forward 7 unknown #
coedge $-1 $84 $217 $223 $228 forward $150 $-1 #
loop $-1 $-1 $217 $138 #
vertex $-1 $147 $229 #
vertex $-1 $85 $230 #
straight-curve $-1 -106.38931913944685 -43.864808754780547 12.883737327571637 1 0 0 I I #
coedge $-1 $154 $154 $-1 $231 reversed $88 $-1 #
edge $-1 $232 0 $232 6.2831853071796004 $89 $233 forward 7 unknown #
vertex $-1 $92 $234 #
ellipse-curve $-1 -77.211020101677633 -35.740865878163049 9.3992679566162725 -0.83867057594974714 0 0.54463902268945019 1.0892780453789004 0 1.6773411518994943 1 I I #
coedge $-1 $158 $158 $-1 $235 reversed $95 $-1 #
edge $-1 $236 0 $236 6.2831853071796004 $96 $237 forward 7 unknown #
vertex $-1 $99 $238 #
ellipse-curve $-1 -77.211020101677633 -23.554951563236795 9.3992679566162725 -0.83867057594974714 0 0.54463902268945019 1.0892780453789004 0 1.6773411518994943 1 I I #
face $-1 $-1 $115 $15 $-1 $239 reversed single #
loop $-1 $-1 $178 $100 #
plane-surface $-1 0 53.146855968242399 0 0 -1 0 0 0 -1 forward_v I I I I #
coedge $-1 $240 $176 $179 $241 forward $101 $-1 #
coedge $-1 $182 $103 $104 $170 reversed $63 $-1 #
coedge $-1 $176 $240 $103 $168 reversed $101 $-1 #
edge $-1 $183 -12.883737327571637 $242 12.883737327571637 $167 $243 forward 7 unknown #
coedge $-1 $105 $104 $240 $244 forward $41 $-1 #
edge $-1 $174 -79.473860896633809 $242 79.473860896633809 $166 $245 forward 7 unknown #
coedge $-1 $179 $178 $105 $172 reversed $163 $-1 #
edge $-1 $246 -79.473860896633809 $173 79.473860896633809 $171 $247 forward 7 unknown #
vertex $-1 $107 $248 #
vertex $-1 $185 $249 #
straight-curve $-1 79.473860896633809 0 -12.883737327571637 0 -1 0 I I #
coedge $-1 $165 $167 $108 $177 reversed $101 $-1 #
edge $-1 $180 -53.146855968242399 $183 53.146855968242399 $176 $250 forward 7 unknown #
coedge $-1 $171 $109 $114 $186 forward $163 $-1 #
coedge $-1 $109 $171 $165 $241 reversed $163 $-1 #
vertex $-1 $110 $251 #
straight-curve $-1 0 53.146855968242399 12.883737327571637 -1 0 0 I I #
coedge $-1 $111 $166 $113 $185 reversed $63 $-1 #
vertex $-1 $177 $252 #
straight-curve $-1 0 -53.146855968242399 12.883737327571637 1 0 0 I I #
edge $-1 $116 -12.883737327571637 $174 12.883737327571637 $113 $253 forward 7 unknown #
edge $-1 $117 -12.883737327571637 $173 12.883737327571637 $114 $254 forward 7 unknown #
point $-1 79.473860896633809 -53.146855968242399 12.883737327571637 #
point $-1 79.473860896633809 53.146855968242399 12.883737327571637 #
face $-1 $-1 $134 $16 $-1 $255 reversed single #
loop $-1 $-1 $130 $119 #
plane-surface $-1 0 -53.146855968242399 0 0 1 0 0 0 1 forward_v I I I I #
coedge $-1 $256 $257 $127 $202 forward $120 $-1 #
coedge $-1 $203 $122 $124 $198 reversed $71 $-1 #
edge $-1 $200 -5.0107967290512061 $135 1.8037790673010701 $133 $258 forward 7 unknown #
coedge $-1 $124 $123 $259 $260 reversed $45 $-1 #
coedge $-1 $207 $206 $123 $197 forward $190 $-1 #
edge $-1 $261 -79.473860896633809 $199 79.473860896633809 $196 $262 forward 7 unknown #
edge $-1 $263 -79.473860896633809 $200 79.473860896633809 $193 $264 forward 7 unknown #
vertex $-1 $197 $265 #
vertex $-1 $126 $266 #
straight-curve $-1 79.473860896633809 -24.252916180755737 -6.6143055599262741 0 1 0 I I #
edge $-1 $208 -28.893939787486662 $204 -19.611892574024811 $192 $267 forward 7 unknown #
coedge $-1 $128 $193 $256 $268 reversed $71 $-1 #
vertex $-1 $202 $269 #
straight-curve $-1 0 -43.864808754780547 0.20027023642600206 -1 0 0 I I #
coedge $-1 $196 $130 $257 $270 forward $190 $-1 #
coedge $-1 $130 $196 $132 $210 reversed $190 $-1 #
vertex $-1 $270 $271 #
straight-curve $-1 0 -53.146855968242399 0.20027023642600206 -1 0 0 I I #
edge $-1 $136 -0.20027023642600206 $199 6.6143055599262741 $132 $272 forward 7 unknown #
point $-1 79.473860896633809 -43.864808754780547 0.20027023642600206 #
point $-1 79.473860896633809 -53.146855968242399 0.20027023642600206 #
plane-surface $-1 0 0 12.883737327571637 0 0 1 1 0 0 forward_v I I I I #
coedge $-1 $224 $223 $216 $273 forward $139 $-1 #
coedge $-1 $216 $141 $143 $220 reversed $79 $-1 #
coedge $-1 $141 $215 $214 $273 reversed $79 $-1 #
coedge $-1 $149 $144 $141 $218 forward $150 $-1 #
edge $-1 $221 -31.441139832725355 $274 -26.915458242813045 $217 $275 forward 7 unknown #
coedge $-1 $143 $142 $224 $276 reversed $49 $-1 #
edge $-1 $277 -7.8341151973915139e-014 $221 8.3095066665702113 $215 $278 forward 7 unknown #
vertex $-1 $145 $279 #
straight-curve $-1 -74.948179306721499 -14.823954360349958 12.883737327571637 0 1 0 I I #
coedge $-1 $214 $146 $149 $228 reversed $139 $-1 #
coedge $-1 $146 $214 $219 $276 forward $139 $-1 #
vertex $-1 $147 $280 #
straight-curve $-1 -79.473860896633809 -43.864808754780547 46.241965220930418 0 0 1 I I #
straight-curve $-1 -79.473860896633767 -43.864808754780547 5.9147985856609324 -0.54463902268945019 0 -0.83867057594974714 I I #
edge $-1 $274 15.431008686619284 $151 43.864808754780547 $223 $281 forward 7 unknown #
point $-1 -79.473860896633809 -43.864808754780547 12.883737327571637 #
point $-1 -74.948179306721499 -43.864808754780547 12.883737327571637 #
edge $-1 $282 1 $282 0 $154 $-1 forward 7 unknown #
vertex $-1 $155 $283 #
ellipse-curve $-1 -75.103990494043927 -35.740865878163049 8.0309469743524016 -0.83867057594974714 0 0.54463902268945019 1.0892780453789004 0 1.6773411518994943 1 I I #
point $-1 -76.121742056298771 -35.740865878163049 11.076609108515786 #
edge $-1 $284 1 $284 0 $158 $-1 forward 7 unknown #
vertex $-1 $159 $285 #
ellipse-curve $-1 -75.103990494043927 -23.554951563236795 8.0309469743524016 -0.83867057594974714 0 0.54463902268945019 1.0892780453789004 0 1.6773411518994943 1 I I #
point $-1 -76.121742056298771 -23.554951563236795 11.076609108515786 #
plane-surface $-1 79.473860896633809 0 0 -1 0 0 0 0 1 forward_v I I I I #
coedge $-1 $167 $165 $169 $244 reversed $101 $-1 #
edge $-1 $180 -12.883737327571637 $246 12.883737327571637 $179 $286 forward 7 unknown #
vertex $-1 $244 $287 #
straight-curve $-1 -79.473860896633809 -53.146855968242399 0 0 0 -1 I I #
edge $-1 $242 -53.146855968242399 $246 53.146855968242399 $240 $288 forward 7 unknown #
straight-curve $-1 0 -53.146855968242399 -12.883737327571637 -1 0 0 I I #
vertex $-1 $172 $289 #
straight-curve $-1 0 53.146855968242399 -12.883737327571637 1 0 0 I I #
point $-1 79.473860896633809 53.146855968242399 -12.883737327571637 #
point $-1 79.473860896633809 -53.146855968242399 -12.883737327571637 #
straight-curve $-1 -79.473860896633809 0 12.883737327571637 0 -1 0 I I #
point $-1 -79.473860896633809 53.146855968242399 12.883737327571637 #
point $-1 -79.473860896633809 -53.146855968242399 12.883737327571637 #
straight-curve $-1 79.473860896633809 -53.146855968242399 0 0 0 -1 I I #
straight-curve $-1 79.473860896633809 53.146855968242399 0 0 0 -1 I I #
plane-surface $-1 79.473860896633809 0 0 -1 0 0 0 0 1 forward_v I I I I #
coedge $-1 $259 $192 $203 $268 forward $120 $-1 #
coedge $-1 $192 $259 $206 $270 reversed $120 $-1 #
straight-curve $-1 79.473860896633809 -43.864808754780547 -1.603508830875068 0 0 1 I I #
coedge $-1 $257 $256 $195 $260 forward $120 $-1 #
edge $-1 $263 19.611892574024811 $261 28.893939787486662 $259 $290 forward 7 unknown #
vertex $-1 $197 $291 #
straight-curve $-1 0 -53.146855968242399 -6.6143055599262741 1 0 0 I I #
vertex $-1 $260 $292 #
straight-curve $-1 0 -43.864808754780547 -6.6143055599262741 1 0 0 I I #
point $-1 79.473860896633809 -53.146855968242399 -6.6143055599262741 #
point $-1 79.473860896633809 -43.864808754780547 -6.6143055599262741 #
straight-curve $-1 -79.473860896633809 -24.252916180755737 0.20027023642600206 0 1 0 I I #
edge $-1 $204 -1.8037790673010701 $263 5.0107967290512061 $256 $293 forward 7 unknown #
point $-1 -79.473860896633809 -43.864808754780547 0.20027023642600206 #
edge $-1 $208 -0.20027023642600206 $261 6.6143055599262741 $257 $294 forward 7 unknown #
point $-1 -79.473860896633809 -53.146855968242399 0.20027023642600206 #
straight-curve $-1 79.473860896633809 -53.146855968242399 0 0 0 -1 I I #
edge $-1 $274 33.35822789335878 $277 40.327166635269549 $214 $295 forward 7 unknown #
vertex $-1 $228 $296 #
straight-curve $-1 -106.38931913944685 -15.431008686619284 12.883737327571637 -1 0 0 I I #
edge $-1 $277 0.60705432626932598 $225 29.040854394430589 $224 $297 forward 7 unknown #
vertex $-1 $276 $298 #
straight-curve $-1 -79.473860896633767 -15.431008686619284 5.9147985856609324 0.54463902268945019 0 0.83867057594974714 I I #
point $-1 -74.948179306721499 -15.431008686619284 12.883737327571637 #
point $-1 -79.473860896633809 -43.864808754780547 5.9147985856608667 #
straight-curve $-1 -79.473860896633809 0 12.883737327571637 0 -1 0 I I #
vertex $-1 $231 $299 #
point $-1 -74.014712448665023 -35.740865878163049 9.7082881262518956 #
vertex $-1 $235 $300 #
point $-1 -74.014712448665023 -23.554951563236795 9.7082881262518956 #
straight-curve $-1 -79.473860896633809 53.146855968242399 0 0 0 -1 I I #
point $-1 -79.473860896633809 -53.146855968242399 -12.883737327571637 #
straight-curve $-1 -79.473860896633809 0 -12.883737327571637 0 1 0 I I #
point $-1 -79.473860896633809 53.146855968242399 -12.883737327571637 #
straight-curve $-1 -79.473860896633809 -24.252916180755737 -6.6143055599262741 0 -1 0 I I #
point $-1 -79.473860896633809 -53.146855968242399 -6.6143055599262741 #
point $-1 -79.473860896633809 -43.864808754780547 -6.6143055599262741 #
straight-curve $-1 -79.473860896633809 -43.864808754780547 -1.603508830875068 0 0 -1 I I #
straight-curve $-1 -79.473860896633809 -53.146855968242399 0 0 0 -1 I I #
straight-curve $-1 -79.473860896633809 -15.431008686619284 46.241965220930418 0 0 -1 I I #
point $-1 -79.473860896633809 -15.431008686619284 12.883737327571637 #
straight-curve $-1 -79.473860896633809 -14.823954360349958 5.9147985856608845 0 -1 0 I I #
point $-1 -79.473860896633809 -15.431008686619284 5.9147985856608667 #
point $-1 -73.42664934214443 -35.740865878163049 6.9416689289735007 #
point $-1 -73.42664934214443 -23.554951563236795 6.9416689289735007 #
End-of-ACIS-data 