500 0 6 0           
7 Unknown 11 ACIS 5.0 NT 24 Thu Mar 25 23:17:42 1999 
-1 9.9999999999999995e-007 1e-010 
body $-1 $6 $-1 $7 #
body $-1 $8 $-1 $9 #
body $-1 $10 $-1 $11 #
body $-1 $12 $-1 $13 #
body $-1 $14 $-1 $15 #
body $-1 $16 $-1 $17 #
lump $-1 $-1 $18 $0 #
transform $-1 1 0 0 0 1 0 0 0 1 41.312295907467877 19.863615552005545 4.0561979436635731 1 rotate no_reflect no_shear #
lump $-1 $-1 $19 $1 #
transform $-1 1 0 0 0 1 0 0 0 1 41.312295907467877 19.863615552005545 4.0561979436635731 1 rotate no_reflect no_shear #
lump $-1 $-1 $20 $2 #
transform $-1 1 0 0 0 1 0 0 0 1 41.312295907467877 19.863615552005545 4.0561979436635731 1 rotate no_reflect no_shear #
lump $-1 $-1 $21 $3 #
transform $-1 1 0 0 0 1 0 0 0 1 41.312295907467877 19.863615552005545 4.0561979436635731 1 rotate no_reflect no_shear #
lump $-1 $-1 $22 $4 #
transform $-1 1 0 0 0 1 0 0 0 1 41.312295907467877 19.863615552005545 4.0561979436635731 1 rotate no_reflect no_shear #
lump $-1 $-1 $23 $5 #
transform $-1 1 0 0 0 1 0 0 0 1 41.312295907467877 19.863615552005545 4.0561979436635731 1 rotate no_reflect no_shear #
shell $-1 $-1 $-1 $24 $-1 $6 #
shell $-1 $-1 $-1 $25 $-1 $8 #
shell $-1 $-1 $-1 $26 $-1 $10 #
shell $-1 $-1 $-1 $27 $-1 $12 #
shell $-1 $-1 $-1 $28 $-1 $14 #
shell $-1 $-1 $-1 $29 $-1 $16 #
face $-1 $30 $31 $18 $-1 $32 forward single #
face $-1 $33 $34 $19 $-1 $35 forward single #
face $-1 $36 $37 $20 $-1 $38 reversed single #
face $-1 $39 $40 $21 $-1 $41 forward single #
face $-1 $42 $43 $22 $-1 $44 forward single #
face $-1 $45 $46 $23 $-1 $47 forward single #
face $-1 $48 $49 $18 $-1 $50 reversed single #
loop $-1 $-1 $51 $24 #
plane-surface $-1 0 0 4.0561979436635731 0 0 1 1 0 0 forward_v I I I I #
face $-1 $52 $53 $19 $-1 $54 reversed single #
loop $-1 $-1 $55 $25 #
plane-surface $-1 0 -18.224329526344942 -0.2233487586129943 0 0 1 1 0 0 forward_v I I I I #
face $-1 $56 $57 $20 $-1 $58 reversed single #
loop $-1 $-1 $59 $26 #
plane-surface $-1 67.597562492304434 13.226592072960663 114.54759261745532 0 1 0 0.84804810408105047 0 0.52991925155115449 forward_v I I I I #
face $-1 $60 $61 $21 $-1 $62 forward single #
loop $-1 $63 $64 $27 #
cone-surface $-1 39.464124635558605 14.55399676876964 1.8765169564145769 -0.84804810408105047 0 -0.52991925155115449 0.26495962577557725 0 -0.42402405204052523 1 I I 0 1 0.5 forward I I I I #
face $-1 $65 $66 $22 $-1 $67 forward single #
loop $-1 $68 $69 $28 #
cone-surface $-1 39.464124635558605 16.545103812483102 1.8765169564145769 -0.84804810408105047 0 -0.52991925155115449 0.26495962577557725 0 -0.42402405204052523 1 I I 0 1 0.5 forward I I I I #
face $-1 $70 $71 $23 $-1 $72 forward single #
loop $-1 $73 $74 $29 #
cone-surface $-1 39.464124635558605 18.536210856196565 1.8765169564145769 -0.84804810408105047 0 -0.52991925155115449 0.26495962577557725 0 -0.42402405204052523 1 I I 0 1 0.5 forward I I I I #
face $-1 $75 $76 $18 $-1 $77 reversed single #
loop $-1 $-1 $78 $30 #
plane-surface $-1 0 0 -4.0561979436635731 0 0 1 1 0 0 forward_v I I I I #
coedge $-1 $79 $80 $81 $82 forward $31 $-1 #
face $-1 $83 $84 $19 $-1 $85 reversed single #
loop $-1 $-1 $86 $33 #
plane-surface $-1 0 -18.224329526344942 -3.2233487586129943 0 0 1 1 0 0 forward_v I I I I #
coedge $-1 $87 $88 $89 $90 reversed $34 $-1 #
face $-1 $91 $92 $20 $-1 $93 forward single #
loop $-1 $-1 $94 $36 #
plane-surface $-1 -2.4720659468225108 16.545103812483102 70.763230763164927 0.84804810408105047 0 0.52991925155115449 0.52991925155115449 0 -0.84804810408105047 forward_v I I I I #
coedge $-1 $95 $96 $97 $98 reversed $37 $-1 #
face $-1 $-1 $99 $21 $-1 $100 forward single #
loop $-1 $101 $102 $39 #
cone-surface $-1 38.454532775453266 14.55399676876964 1.2456539660905896 -0.84804810408105047 0 -0.52991925155115449 0.13247981288778862 0 -0.21201202602026262 1 I I -0.70710678118654746 0.70710678118654746 0.25 forward I I I I #
loop $-1 $-1 $103 $27 #
coedge $-1 $64 $64 $104 $105 reversed $40 $-1 #
face $-1 $-1 $106 $22 $-1 $107 forward single #
loop $-1 $108 $109 $42 #
cone-surface $-1 38.454532775453266 16.545103812483102 1.2456539660905896 -0.84804810408105047 0 -0.52991925155115449 0.13247981288778862 0 -0.21201202602026262 1 I I -0.70710678118654746 0.70710678118654746 0.25 forward I I I I #
loop $-1 $-1 $110 $28 #
coedge $-1 $69 $69 $111 $112 reversed $43 $-1 #
face $-1 $-1 $113 $23 $-1 $114 forward single #
loop $-1 $115 $116 $45 #
cone-surface $-1 38.454532775453266 18.536210856196565 1.2456539660905896 -0.84804810408105047 0 -0.52991925155115449 0.13247981288778862 0 -0.21201202602026262 1 I I -0.70710678118654746 0.70710678118654746 0.25 forward I I I I #
loop $-1 $-1 $117 $29 #
coedge $-1 $74 $74 $118 $119 reversed $46 $-1 #
face $-1 $120 $121 $18 $-1 $122 reversed single #
loop $-1 $-1 $123 $48 #
plane-surface $-1 0 -19.863615552005545 0 0 1 0 0 0 1 forward_v I I I I #
coedge $-1 $124 $125 $126 $127 forward $49 $-1 #
coedge $-1 $128 $51 $129 $130 forward $31 $-1 #
coedge $-1 $51 $128 $131 $132 forward $31 $-1 #
coedge $-1 $133 $134 $51 $82 reversed $135 $-1 #
edge $-1 $136 -19.863615552005545 $137 19.863615552005545 $81 $138 forward 7 unknown #
face $-1 $139 $140 $19 $-1 $141 reversed single #
loop $-1 $-1 $142 $52 #
plane-surface $-1 0 -16.585043500684339 -1.7233487586129943 0 -1 0 0 0 -1 forward_v I I I I #
coedge $-1 $143 $144 $145 $146 reversed $53 $-1 #
coedge $-1 $147 $55 $148 $149 forward $34 $-1 #
coedge $-1 $55 $147 $150 $151 reversed $34 $-1 #
coedge $-1 $152 $153 $55 $90 forward $154 $-1 #
edge $-1 $155 7.4728787375118682 $156 10.751450788833074 $89 $157 forward 7 unknown #
face $-1 $158 $159 $20 $-1 $160 reversed single #
loop $-1 $-1 $161 $56 #
plane-surface $-1 0 0 4.0561979436635731 0 0 1 1 0 0 forward_v I I I I #
coedge $-1 $162 $163 $164 $165 reversed $57 $-1 #
coedge $-1 $96 $59 $166 $167 reversed $37 $-1 #
coedge $-1 $59 $95 $162 $168 reversed $37 $-1 #
coedge $-1 $164 $169 $59 $98 forward $159 $-1 #
edge $-1 $170 53.217598365064092 $171 56.580193984689664 $97 $172 forward 7 unknown #
loop $-1 $-1 $104 $60 #
plane-surface $-1 -2.4720659468225108 16.545103812483102 70.763230763164927 0.84804810408105047 0 0.52991925155115449 0.52991925155115449 0 -0.84804810408105047 forward_v I I I I #
loop $-1 $-1 $173 $39 #
coedge $-1 $102 $102 $103 $174 reversed $61 $-1 #
coedge $-1 $103 $103 $102 $174 forward $63 $-1 #
coedge $-1 $104 $104 $64 $105 forward $99 $-1 #
edge $-1 $175 0 $175 6.2831853071796004 $104 $176 forward 7 unknown #
loop $-1 $-1 $111 $65 #
plane-surface $-1 -2.4720659468225108 16.545103812483102 70.763230763164927 0.84804810408105047 0 0.52991925155115449 0.52991925155115449 0 -0.84804810408105047 forward_v I I I I #
loop $-1 $-1 $177 $42 #
coedge $-1 $109 $109 $110 $178 reversed $66 $-1 #
coedge $-1 $110 $110 $109 $178 forward $68 $-1 #
coedge $-1 $111 $111 $69 $112 forward $106 $-1 #
edge $-1 $179 0 $179 6.2831853071796004 $111 $180 forward 7 unknown #
loop $-1 $-1 $118 $70 #
plane-surface $-1 -2.4720659468225108 16.545103812483102 70.763230763164927 0.84804810408105047 0 0.52991925155115449 0.52991925155115449 0 -0.84804810408105047 forward_v I I I I #
loop $-1 $-1 $181 $45 #
coedge $-1 $116 $116 $117 $182 reversed $71 $-1 #
coedge $-1 $117 $117 $116 $182 forward $73 $-1 #
coedge $-1 $118 $118 $74 $119 forward $113 $-1 #
edge $-1 $183 0 $183 6.2831853071796004 $118 $184 forward 7 unknown #
face $-1 $185 $186 $18 $-1 $187 reversed single #
loop $-1 $-1 $188 $75 #
plane-surface $-1 -41.312295907467877 0 0 1 0 0 0 0 -1 forward_v I I I I #
coedge $-1 $189 $131 $190 $191 forward $76 $-1 #
coedge $-1 $192 $78 $189 $193 forward $49 $-1 #
coedge $-1 $78 $192 $194 $195 forward $49 $-1 #
coedge $-1 $134 $133 $78 $127 reversed $135 $-1 #
edge $-1 $196 -19.863615552005545 $197 19.863615552005545 $126 $198 forward 7 unknown #
coedge $-1 $80 $79 $199 $200 forward $31 $-1 #
coedge $-1 $201 $202 $79 $130 reversed $186 $-1 #
edge $-1 $137 -41.312295907467877 $203 41.312295907467877 $129 $204 forward 7 unknown #
coedge $-1 $123 $205 $80 $132 reversed $76 $-1 #
edge $-1 $206 -41.312295907467877 $136 41.312295907467877 $131 $207 forward 7 unknown #
coedge $-1 $126 $81 $205 $208 forward $135 $-1 #
coedge $-1 $81 $126 $201 $209 reversed $135 $-1 #
loop $-1 $-1 $133 $185 #
vertex $-1 $82 $210 #
vertex $-1 $82 $211 #
straight-curve $-1 41.312295907467877 0 4.0561979436635731 0 1 0 I I #
face $-1 $212 $213 $19 $-1 $214 reversed single #
loop $-1 $-1 $215 $83 #
plane-surface $-1 -41.312295907467877 0 0 1 0 0 0 0 -1 forward_v I I I I #
coedge $-1 $216 $148 $153 $217 reversed $84 $-1 #
coedge $-1 $218 $86 $219 $220 reversed $53 $-1 #
coedge $-1 $86 $218 $216 $221 forward $53 $-1 #
coedge $-1 $153 $152 $86 $146 forward $154 $-1 #
edge $-1 $222 -10.751450788833074 $223 -7.4728787375118682 $145 $224 forward 7 unknown #
coedge $-1 $88 $87 $215 $225 reversed $34 $-1 #
coedge $-1 $142 $226 $87 $149 reversed $84 $-1 #
edge $-1 $155 -41.312295907467877 $227 41.312295907467877 $148 $228 forward 7 unknown #
coedge $-1 $229 $230 $88 $151 forward $213 $-1 #
edge $-1 $156 -41.312295907467877 $231 41.312295907467877 $150 $232 forward 7 unknown #
coedge $-1 $145 $89 $230 $233 forward $154 $-1 #
coedge $-1 $89 $145 $142 $217 forward $154 $-1 #
loop $-1 $-1 $89 $212 #
vertex $-1 $90 $234 #
vertex $-1 $233 $235 #
straight-curve $-1 41.312295907467877 -9.1121647631724709 -0.2233487586129943 0 -1 0 I I #
face $-1 $-1 $236 $20 $-1 $237 reversed single #
loop $-1 $-1 $97 $91 #
plane-surface $-1 41.312295907467877 0 0 -1 0 0 0 0 1 forward_v I I I I #
coedge $-1 $166 $238 $239 $240 forward $92 $-1 #
coedge $-1 $239 $94 $96 $168 forward $57 $-1 #
coedge $-1 $94 $239 $241 $242 reversed $57 $-1 #
coedge $-1 $243 $97 $94 $165 forward $159 $-1 #
edge $-1 $171 4.9540401667191123 $244 11.59106364576399 $164 $245 forward 7 unknown #
coedge $-1 $246 $161 $95 $167 forward $92 $-1 #
edge $-1 $247 5.412331785667277 $170 7.5135146613156607 $166 $248 forward 7 unknown #
edge $-1 $171 -82.624591814935727 $247 -78.65949171808532 $96 $249 forward 7 unknown #
coedge $-1 $97 $243 $246 $250 reversed $159 $-1 #
vertex $-1 $250 $251 #
vertex $-1 $98 $252 #
straight-curve $-1 41.312295907467877 13.226592072960663 57.273796308727661 0 0 -1 I I #
coedge $-1 $173 $173 $-1 $253 reversed $101 $-1 #
edge $-1 $254 0 $254 6.2831853071796004 $102 $255 forward 7 unknown #
vertex $-1 $105 $256 #
ellipse-curve $-1 40.261704469643696 14.55399676876964 2.374900133850784 0.84804810408105047 0 0.52991925155115449 0.26495962577557725 0 -0.42402405204052523 1 I I #
coedge $-1 $177 $177 $-1 $257 reversed $108 $-1 #
edge $-1 $258 0 $258 6.2831853071796004 $109 $259 forward 7 unknown #
vertex $-1 $112 $260 #
ellipse-curve $-1 40.261704469643696 16.545103812483102 2.374900133850784 0.84804810408105047 0 0.52991925155115449 0.26495962577557725 0 -0.42402405204052523 1 I I #
coedge $-1 $181 $181 $-1 $261 reversed $115 $-1 #
edge $-1 $262 0 $262 6.2831853071796004 $116 $263 forward 7 unknown #
vertex $-1 $119 $264 #
ellipse-curve $-1 40.261704469643696 18.536210856196565 2.374900133850784 0.84804810408105047 0 0.52991925155115449 0.26495962577557725 0 -0.42402405204052523 1 I I #
face $-1 $-1 $135 $18 $-1 $265 reversed single #
loop $-1 $-1 $201 $120 #
plane-surface $-1 0 19.863615552005545 0 0 -1 0 0 0 -1 forward_v I I I I #
coedge $-1 $266 $199 $202 $267 forward $121 $-1 #
coedge $-1 $205 $123 $124 $193 reversed $76 $-1 #
coedge $-1 $199 $266 $123 $191 reversed $121 $-1 #
edge $-1 $206 -4.0561979436635731 $268 4.0561979436635731 $190 $269 forward 7 unknown #
coedge $-1 $125 $124 $266 $270 forward $49 $-1 #
edge $-1 $197 -41.312295907467877 $268 41.312295907467877 $189 $271 forward 7 unknown #
coedge $-1 $202 $201 $125 $195 reversed $186 $-1 #
edge $-1 $272 -41.312295907467877 $196 41.312295907467877 $194 $273 forward 7 unknown #
vertex $-1 $127 $274 #
vertex $-1 $208 $275 #
straight-curve $-1 41.312295907467877 0 -4.0561979436635731 0 -1 0 I I #
coedge $-1 $188 $190 $128 $200 reversed $121 $-1 #
edge $-1 $203 -19.863615552005545 $206 19.863615552005545 $199 $276 forward 7 unknown #
coedge $-1 $194 $129 $134 $209 forward $186 $-1 #
coedge $-1 $129 $194 $188 $267 reversed $186 $-1 #
vertex $-1 $130 $277 #
straight-curve $-1 0 19.863615552005545 4.0561979436635731 -1 0 0 I I #
coedge $-1 $131 $189 $133 $208 reversed $76 $-1 #
vertex $-1 $200 $278 #
straight-curve $-1 0 -19.863615552005545 4.0561979436635731 1 0 0 I I #
edge $-1 $136 -4.0561979436635731 $197 4.0561979436635731 $133 $279 forward 7 unknown #
edge $-1 $137 -4.0561979436635731 $196 4.0561979436635731 $134 $280 forward 7 unknown #
point $-1 41.312295907467877 -19.863615552005545 4.0561979436635731 #
point $-1 41.312295907467877 19.863615552005545 4.0561979436635731 #
face $-1 $-1 $154 $19 $-1 $281 reversed single #
loop $-1 $-1 $150 $139 #
plane-surface $-1 0 -19.863615552005545 0 0 1 0 0 0 1 forward_v I I I I #
coedge $-1 $282 $283 $147 $225 forward $140 $-1 #
coedge $-1 $226 $142 $144 $221 reversed $84 $-1 #
edge $-1 $223 -2.3616743793064972 $155 0.63832562069350285 $153 $284 forward 7 unknown #
coedge $-1 $144 $143 $285 $286 reversed $53 $-1 #
coedge $-1 $230 $229 $143 $220 forward $213 $-1 #
edge $-1 $287 -41.312295907467877 $222 41.312295907467877 $219 $288 forward 7 unknown #
edge $-1 $289 -41.312295907467877 $223 41.312295907467877 $216 $290 forward 7 unknown #
vertex $-1 $220 $291 #
vertex $-1 $146 $292 #
straight-curve $-1 41.312295907467877 -9.1121647631724709 -3.2233487586129943 0 1 0 I I #
edge $-1 $231 -10.751450788833074 $227 -7.4728787375118682 $215 $293 forward 7 unknown #
coedge $-1 $148 $216 $282 $294 reversed $84 $-1 #
vertex $-1 $225 $295 #
straight-curve $-1 0 -16.585043500684339 -0.2233487586129943 -1 0 0 I I #
coedge $-1 $219 $150 $283 $296 forward $213 $-1 #
coedge $-1 $150 $219 $152 $233 reversed $213 $-1 #
vertex $-1 $296 $297 #
straight-curve $-1 0 -19.863615552005545 -0.2233487586129943 -1 0 0 I I #
edge $-1 $156 0.2233487586129943 $222 3.2233487586129943 $152 $298 forward 7 unknown #
point $-1 41.312295907467877 -16.585043500684339 -0.2233487586129943 #
point $-1 41.312295907467877 -19.863615552005545 -0.2233487586129943 #
loop $-1 $-1 $241 $158 #
plane-surface $-1 0 19.863615552005545 0 0 -1 0 0 0 -1 forward_v I I I I #
coedge $-1 $161 $246 $299 $300 forward $92 $-1 #
coedge $-1 $163 $162 $161 $240 reversed $57 $-1 #
edge $-1 $301 -11.59106364576399 $247 -4.9540401667191123 $161 $302 forward 7 unknown #
coedge $-1 $299 $303 $163 $242 forward $236 $-1 #
edge $-1 $244 -51.96428230309715 $301 -47.999182206246736 $241 $304 forward 7 unknown #
coedge $-1 $169 $164 $303 $305 reversed $159 $-1 #
vertex $-1 $242 $306 #
straight-curve $-1 41.31229590746787 8.2725519062415511 0.69360232403800381 0 1 0 I I #
coedge $-1 $238 $166 $169 $250 forward $92 $-1 #
vertex $-1 $167 $307 #
straight-curve $-1 33.798781246152217 13.226592072960663 4.0561979436635767 1 0 0 I I #
straight-curve $-1 -2.4720659468225108 13.226592072960663 70.763230763164927 -0.52991925155115449 0 0.84804810408105047 I I #
edge $-1 $170 13.226592072960663 $308 19.863615552005545 $169 $309 forward 7 unknown #
point $-1 41.312295907467877 13.226592072960663 4.0561979436635731 #
point $-1 41.312295907467877 13.226592072960663 0.69360232403799671 #
edge $-1 $310 1 $310 0 $173 $-1 forward 7 unknown #
vertex $-1 $174 $311 #
ellipse-curve $-1 38.666544801473528 14.55399676876964 1.3781337789783783 0.84804810408105047 0 0.52991925155115449 0.26495962577557725 0 -0.42402405204052523 1 I I #
point $-1 40.526664095419264 14.55399676876964 1.9508760818102506 #
edge $-1 $312 1 $312 0 $177 $-1 forward 7 unknown #
vertex $-1 $178 $313 #
ellipse-curve $-1 38.666544801473528 16.545103812483102 1.3781337789783783 0.84804810408105047 0 0.52991925155115449 0.26495962577557725 0 -0.42402405204052523 1 I I #
point $-1 40.526664095419264 16.545103812483102 1.9508760818102506 #
edge $-1 $314 1 $314 0 $181 $-1 forward 7 unknown #
vertex $-1 $182 $315 #
ellipse-curve $-1 38.666544801473528 18.536210856196565 1.3781337789783783 0.84804810408105047 0 0.52991925155115449 0.26495962577557725 0 -0.42402405204052523 1 I I #
point $-1 40.526664095419264 18.536210856196565 1.9508760818102506 #
plane-surface $-1 41.312295907467877 0 0 -1 0 0 0 0 1 forward_v I I I I #
coedge $-1 $190 $188 $192 $270 reversed $121 $-1 #
edge $-1 $203 -4.0561979436635731 $272 4.0561979436635731 $202 $316 forward 7 unknown #
vertex $-1 $270 $317 #
straight-curve $-1 -41.312295907467877 -19.863615552005545 0 0 0 -1 I I #
edge $-1 $268 -19.863615552005545 $272 19.863615552005545 $266 $318 forward 7 unknown #
straight-curve $-1 0 -19.863615552005545 -4.0561979436635731 -1 0 0 I I #
vertex $-1 $195 $319 #
straight-curve $-1 0 19.863615552005545 -4.0561979436635731 1 0 0 I I #
point $-1 41.312295907467877 19.863615552005545 -4.0561979436635731 #
point $-1 41.312295907467877 -19.863615552005545 -4.0561979436635731 #
straight-curve $-1 -41.312295907467877 0 4.0561979436635731 0 -1 0 I I #
point $-1 -41.312295907467877 19.863615552005545 4.0561979436635731 #
point $-1 -41.312295907467877 -19.863615552005545 4.0561979436635731 #
straight-curve $-1 41.312295907467877 -19.863615552005545 0 0 0 -1 I I #
straight-curve $-1 41.312295907467877 19.863615552005545 0 0 0 -1 I I #
plane-surface $-1 41.312295907467877 0 0 -1 0 0 0 0 1 forward_v I I I I #
coedge $-1 $285 $215 $226 $294 forward $140 $-1 #
coedge $-1 $215 $285 $229 $296 reversed $140 $-1 #
straight-curve $-1 41.312295907467877 -16.585043500684339 -0.86167437930649715 0 0 1 I I #
coedge $-1 $283 $282 $218 $286 forward $140 $-1 #
edge $-1 $289 7.4728787375118682 $287 10.751450788833074 $285 $320 forward 7 unknown #
vertex $-1 $220 $321 #
straight-curve $-1 0 -19.863615552005545 -3.2233487586129943 1 0 0 I I #
vertex $-1 $286 $322 #
straight-curve $-1 0 -16.585043500684339 -3.2233487586129943 1 0 0 I I #
point $-1 41.312295907467877 -19.863615552005545 -3.2233487586129943 #
point $-1 41.312295907467877 -16.585043500684339 -3.2233487586129943 #
straight-curve $-1 -41.312295907467877 -9.1121647631724709 -0.2233487586129943 0 1 0 I I #
edge $-1 $227 -0.63832562069350285 $289 2.3616743793064972 $282 $323 forward 7 unknown #
point $-1 -41.312295907467877 -16.585043500684339 -0.2233487586129943 #
edge $-1 $231 0.2233487586129943 $287 3.2233487586129943 $283 $324 forward 7 unknown #
point $-1 -41.312295907467877 -19.863615552005545 -0.2233487586129943 #
straight-curve $-1 41.312295907467877 -19.863615552005545 0 0 0 -1 I I #
coedge $-1 $303 $241 $238 $300 reversed $236 $-1 #
edge $-1 $308 -41.312295907467877 $301 -39.211113031819494 $299 $325 forward 7 unknown #
vertex $-1 $242 $326 #
straight-curve $-1 39.211113031819494 8.2725519062415511 4.0561979436635767 0 -1 0 I I #
coedge $-1 $241 $299 $243 $305 forward $236 $-1 #
straight-curve $-1 13.775422322017734 19.863615552005545 44.761813411112016 -0.52991925155115449 0 0.84804810408105047 I I #
edge $-1 $308 -4.0561979436635731 $244 -0.69360232403799671 $243 $327 forward 7 unknown #
point $-1 41.312295907467877 19.863615552005541 0.69360232403799671 #
point $-1 39.211113031819494 13.226592072960663 4.0561979436635767 #
vertex $-1 $250 $328 #
straight-curve $-1 41.312295907467877 0 4.0561979436635731 0 1 0 I I #
vertex $-1 $253 $329 #
point $-1 38.931504427249109 14.55399676876964 0.95410972693785301 #
vertex $-1 $257 $330 #
point $-1 38.931504427249109 16.545103812483102 0.95410972693785301 #
vertex $-1 $261 $331 #
point $-1 38.931504427249109 18.536210856196565 0.95410972693785301 #
straight-curve $-1 -41.312295907467877 19.863615552005545 0 0 0 -1 I I #
point $-1 -41.312295907467877 -19.863615552005545 -4.0561979436635731 #
straight-curve $-1 -41.312295907467877 0 -4.0561979436635731 0 1 0 I I #
point $-1 -41.312295907467877 19.863615552005545 -4.0561979436635731 #
straight-curve $-1 -41.312295907467877 -9.1121647631724709 -3.2233487586129943 0 -1 0 I I #
point $-1 -41.312295907467877 -19.863615552005545 -3.2233487586129943 #
point $-1 -41.312295907467877 -16.585043500684339 -3.2233487586129943 #
straight-curve $-1 -41.312295907467877 -16.585043500684339 -0.86167437930649715 0 0 -1 I I #
straight-curve $-1 -41.312295907467877 -19.863615552005545 0 0 0 -1 I I #
straight-curve $-1 0 19.863615552005545 4.0561979436635731 -1 0 0 I I #
point $-1 39.211113031819494 19.863615552005541 4.0561979436635767 #
straight-curve $-1 41.312295907467877 19.863615552005545 0 0 0 -1 I I #
point $-1 41.312295907467877 19.863615552005545 4.0561979436635731 #
point $-1 38.242520749433005 14.55399676876964 1.113174153202801 #
point $-1 38.242520749433005 16.545103812483102 1.113174153202801 #
point $-1 38.242520749433005 18.536210856196565 1.113174153202801 #
End-of-ACIS-data 