500 0 9 0           
7 Unknown 11 ACIS 5.0 NT 24 Fri Mar 26 15:48:27 1999 
-1 9.9999999999999995e-007 1e-010 
body $-1 $9 $-1 $10 #
body $-1 $11 $-1 $12 #
body $-1 $13 $-1 $14 #
body $-1 $15 $-1 $16 #
body $-1 $17 $-1 $18 #
body $-1 $19 $-1 $20 #
body $-1 $21 $-1 $22 #
body $-1 $23 $-1 $24 #
body $-1 $25 $-1 $26 #
lump $-1 $-1 $27 $0 #
transform $-1 1 0 0 0 1 0 0 0 1 57.650685140537732 40.178658593810106 8.8200046163907615 1 rotate no_reflect no_shear #
lump $-1 $-1 $28 $1 #
transform $-1 1 0 0 0 1 0 0 0 1 57.650685140537732 40.178658593810106 8.8200046163907615 1 rotate no_reflect no_shear #
lump $-1 $-1 $29 $2 #
transform $-1 1 0 0 0 1 0 0 0 1 57.650685140537732 40.178658593810106 8.8200046163907615 1 rotate no_reflect no_shear #
lump $-1 $-1 $30 $3 #
transform $-1 1 0 0 0 1 0 0 0 1 57.650685140537732 40.178658593810106 8.8200046163907615 1 rotate no_reflect no_shear #
lump $-1 $-1 $31 $4 #
transform $-1 1 0 0 0 1 0 0 0 1 57.650685140537732 40.178658593810106 8.8200046163907615 1 rotate no_reflect no_shear #
lump $-1 $-1 $32 $5 #
transform $-1 1 0 0 0 1 0 0 0 1 57.650685140537732 40.178658593810106 8.8200046163907615 1 rotate no_reflect no_shear #
lump $-1 $-1 $33 $6 #
transform $-1 1 0 0 0 1 0 0 0 1 57.650685140537732 40.178658593810106 8.8200046163907615 1 rotate no_reflect no_shear #
lump $-1 $-1 $34 $7 #
transform $-1 1 0 0 0 1 0 0 0 1 57.650685140537732 40.178658593810106 8.8200046163907615 1 rotate no_reflect no_shear #
lump $-1 $-1 $35 $8 #
transform $-1 1 0 0 0 1 0 0 0 1 57.650685140537732 40.178658593810106 8.8200046163907615 1 rotate no_reflect no_shear #
shell $-1 $-1 $-1 $36 $-1 $9 #
shell $-1 $-1 $-1 $37 $-1 $11 #
shell $-1 $-1 $-1 $38 $-1 $13 #
shell $-1 $-1 $-1 $39 $-1 $15 #
shell $-1 $-1 $-1 $40 $-1 $17 #
shell $-1 $-1 $-1 $41 $-1 $19 #
shell $-1 $-1 $-1 $42 $-1 $21 #
shell $-1 $-1 $-1 $43 $-1 $23 #
shell $-1 $-1 $-1 $44 $-1 $25 #
face $-1 $45 $46 $27 $-1 $47 forward single #
face $-1 $48 $49 $28 $-1 $50 forward single #
face $-1 $51 $52 $29 $-1 $53 reversed single #
face $-1 $54 $55 $30 $-1 $56 reversed single #
face $-1 $57 $58 $31 $-1 $59 forward single #
face $-1 $60 $61 $32 $-1 $62 forward single #
face $-1 $63 $64 $33 $-1 $65 forward single #
face $-1 $66 $67 $34 $-1 $68 reversed single #
face $-1 $69 $70 $35 $-1 $71 forward single #
face $-1 $72 $73 $27 $-1 $74 reversed single #
loop $-1 $-1 $75 $36 #
plane-surface $-1 0 0 8.8200046163907615 0 0 1 1 0 0 forward_v I I I I #
face $-1 $76 $77 $28 $-1 $78 reversed single #
loop $-1 $-1 $79 $37 #
plane-surface $-1 -52.449140781646733 0 -4.4486825249798088 0 0 1 1 0 0 forward_v I I I I #
face $-1 $80 $81 $29 $-1 $82 reversed single #
loop $-1 $-1 $83 $38 #
plane-surface $-1 52.63905337837663 0 4.4935806471763478 0 0 1 1 0 0 forward_v I I I I #
face $-1 $84 $85 $30 $-1 $86 reversed single #
loop $-1 $-1 $87 $39 #
plane-surface $-1 -2.3773116334020798 62.469505657671839 144.40306847904628 1 0 0 0 -0.69465837861970381 -0.71933979245794832 forward_v I I I I #
face $-1 $88 $89 $31 $-1 $90 forward single #
loop $-1 $91 $92 $40 #
cone-surface $-1 2.1542321677415117 38.031256491734418 6.711250631845358 0 -0.69465837861970381 -0.71933979245794832 1 0 0 1 I I 0 1 1 forward I I I I #
face $-1 $93 $94 $32 $-1 $95 forward single #
loop $-1 $96 $97 $41 #
cone-surface $-1 8.9515478694569168 38.031256491734418 6.711250631845358 0 -0.69465837861970381 -0.71933979245794832 1 0 0 1 I I 0 1 1 forward I I I I #
face $-1 $98 $99 $33 $-1 $100 forward single #
loop $-1 $101 $102 $42 #
cone-surface $-1 15.748863571172322 38.031256491734418 6.711250631845358 0 -0.69465837861970381 -0.71933979245794832 1 0 0 1 I I 0 1 1 forward I I I I #
face $-1 $103 $104 $34 $-1 $105 reversed single #
loop $-1 $-1 $106 $43 #
plane-surface $-1 42.904772516606073 -129.78465381235443 78.171207318593773 -1 0 0 0 -0.77714596973225614 0.62932038083071107 forward_v I I I I #
face $-1 $107 $108 $35 $-1 $109 forward single #
loop $-1 $110 $111 $44 #
cone-surface $-1 36.733567655088038 -38.338891012059037 6.7776176663251446 0 0.77714596973225614 -0.62932038083071107 0.5 0 0 1 I I 0 1 0.5 forward I I I I #
face $-1 $112 $113 $27 $-1 $114 reversed single #
loop $-1 $-1 $115 $45 #
plane-surface $-1 0 0 -8.8200046163907615 0 0 1 1 0 0 forward_v I I I I #
coedge $-1 $116 $117 $118 $119 forward $46 $-1 #
face $-1 $120 $121 $28 $-1 $122 reversed single #
loop $-1 $-1 $123 $48 #
plane-surface $-1 -47.247596422755734 0 -6.6343435706852851 -1 0 0 0 0 1 forward_v I I I I #
coedge $-1 $124 $125 $126 $127 forward $49 $-1 #
face $-1 $128 $129 $29 $-1 $130 reversed single #
loop $-1 $-1 $131 $51 #
plane-surface $-1 47.627421616215521 0 6.6567926317835546 1 0 0 0 0 -1 forward_v I I I I #
coedge $-1 $132 $133 $134 $135 reversed $52 $-1 #
face $-1 $136 $137 $30 $-1 $138 reversed single #
loop $-1 $-1 $139 $54 #
plane-surface $-1 8.9515478694569168 -17.625557274410149 61.462204710940412 0 0.69465837861970381 0.71933979245794832 1 0 0 forward_v I I I I #
coedge $-1 $140 $141 $142 $143 reversed $55 $-1 #
face $-1 $-1 $144 $31 $-1 $145 forward single #
loop $-1 $146 $147 $57 #
cone-surface $-1 2.1542321677415117 37.182336761998464 5.8321685376869112 0 -0.69465837861970381 -0.71933979245794832 0.5 0 0 1 I I -0.70710678118654746 0.70710678118654746 0.5 forward I I I I #
loop $-1 $-1 $148 $40 #
coedge $-1 $92 $92 $149 $150 reversed $58 $-1 #
face $-1 $-1 $151 $32 $-1 $152 forward single #
loop $-1 $153 $154 $60 #
cone-surface $-1 8.9515478694569168 37.182336761998464 5.8321685376869112 0 -0.69465837861970381 -0.71933979245794832 0.5 0 0 1 I I -0.70710678118654746 0.70710678118654746 0.5 forward I I I I #
loop $-1 $-1 $155 $41 #
coedge $-1 $97 $97 $156 $157 reversed $61 $-1 #
face $-1 $-1 $158 $33 $-1 $159 forward single #
loop $-1 $160 $161 $63 #
cone-surface $-1 15.748863571172322 37.182336761998464 5.8321685376869112 0 -0.69465837861970381 -0.71933979245794832 0.5 0 0 1 I I -0.70710678118654746 0.70710678118654746 0.5 forward I I I I #
loop $-1 $-1 $162 $42 #
coedge $-1 $102 $102 $163 $164 reversed $64 $-1 #
face $-1 $165 $166 $34 $-1 $167 reversed single #
loop $-1 $-1 $168 $66 #
plane-surface $-1 36.733567655088038 -40.178658593810098 5.609705063004526 0 -0.77714596973225614 0.62932038083071107 1 0 0 forward_v I I I I #
coedge $-1 $169 $170 $171 $172 reversed $67 $-1 #
face $-1 $-1 $173 $35 $-1 $174 forward single #
loop $-1 $175 $176 $69 #
cone-surface $-1 36.733567655088038 -37.604661562979587 6.1830503977449656 0 0.77714596973225614 -0.62932038083071107 0.25 0 0 1 I I -0.70710678118654746 0.70710678118654746 0.25 forward I I I I #
loop $-1 $-1 $177 $44 #
coedge $-1 $111 $111 $178 $179 reversed $70 $-1 #
face $-1 $180 $181 $27 $-1 $182 reversed single #
loop $-1 $-1 $183 $72 #
plane-surface $-1 0 -40.178658593810106 0 0 1 0 0 0 1 forward_v I I I I #
coedge $-1 $184 $185 $186 $187 forward $73 $-1 #
coedge $-1 $188 $75 $189 $190 forward $46 $-1 #
coedge $-1 $75 $188 $191 $192 forward $46 $-1 #
coedge $-1 $193 $194 $75 $119 reversed $195 $-1 #
edge $-1 $196 -40.178658593810106 $197 40.178658593810106 $118 $198 forward 7 unknown #
face $-1 $199 $200 $28 $-1 $201 reversed single #
loop $-1 $-1 $202 $76 #
plane-surface $-1 0 0 -8.8200046163907615 0 0 1 1 0 0 forward_v I I I I #
coedge $-1 $203 $126 $204 $205 reversed $77 $-1 #
coedge $-1 $206 $79 $207 $208 reversed $49 $-1 #
coedge $-1 $79 $206 $209 $210 reversed $49 $-1 #
coedge $-1 $123 $211 $79 $127 reversed $77 $-1 #
edge $-1 $212 -40.178658593810106 $213 40.178658593810106 $126 $214 forward 7 unknown #
face $-1 $215 $216 $29 $-1 $217 reversed single #
loop $-1 $-1 $134 $80 #
plane-surface $-1 57.650685140537732 0 0 -1 0 0 0 0 1 forward_v I I I I #
coedge $-1 $218 $219 $220 $221 reversed $81 $-1 #
coedge $-1 $222 $83 $223 $224 reversed $52 $-1 #
coedge $-1 $83 $222 $225 $226 reversed $52 $-1 #
coedge $-1 $227 $228 $83 $135 forward $129 $-1 #
edge $-1 $229 -40.178658593810106 $230 40.178658593810106 $134 $231 forward 7 unknown #
face $-1 $232 $233 $30 $-1 $234 reversed single #
loop $-1 $-1 $235 $84 #
plane-surface $-1 20.280407372315914 62.469505657671839 144.40306847904628 -1 0 0 0 0.69465837861970381 0.71933979245794832 forward_v I I I I #
coedge $-1 $236 $237 $238 $239 reversed $85 $-1 #
coedge $-1 $141 $87 $240 $241 reversed $55 $-1 #
coedge $-1 $87 $140 $236 $242 reversed $55 $-1 #
coedge $-1 $238 $243 $87 $143 forward $244 $-1 #
edge $-1 $245 -8.9439057649741862 $246 -5.652282641675054 $142 $247 forward 7 unknown #
loop $-1 $-1 $149 $88 #
plane-surface $-1 8.9515478694569168 -17.625557274410149 61.462204710940412 0 0.69465837861970381 0.71933979245794832 1 0 0 forward_v I I I I #
loop $-1 $-1 $248 $57 #
coedge $-1 $147 $147 $148 $249 reversed $89 $-1 #
coedge $-1 $148 $148 $147 $249 forward $91 $-1 #
coedge $-1 $149 $149 $92 $150 forward $144 $-1 #
edge $-1 $250 0 $250 6.2831853071796004 $149 $251 forward 7 unknown #
loop $-1 $-1 $156 $93 #
plane-surface $-1 8.9515478694569168 -17.625557274410149 61.462204710940412 0 0.69465837861970381 0.71933979245794832 1 0 0 forward_v I I I I #
loop $-1 $-1 $252 $60 #
coedge $-1 $154 $154 $155 $253 reversed $94 $-1 #
coedge $-1 $155 $155 $154 $253 forward $96 $-1 #
coedge $-1 $156 $156 $97 $157 forward $151 $-1 #
edge $-1 $254 0 $254 6.2831853071796004 $156 $255 forward 7 unknown #
loop $-1 $-1 $163 $98 #
plane-surface $-1 8.9515478694569168 -17.625557274410149 61.462204710940412 0 0.69465837861970381 0.71933979245794832 1 0 0 forward_v I I I I #
loop $-1 $-1 $256 $63 #
coedge $-1 $161 $161 $162 $257 reversed $99 $-1 #
coedge $-1 $162 $162 $161 $257 forward $101 $-1 #
coedge $-1 $163 $163 $102 $164 forward $158 $-1 #
edge $-1 $258 0 $258 6.2831853071796004 $163 $259 forward 7 unknown #
face $-1 $260 $261 $34 $-1 $262 forward single #
loop $-1 $-1 $263 $103 #
plane-surface $-1 30.562362793570003 -129.78465381235443 78.171207318593773 1 0 0 0 0.77714596973225614 -0.62932038083071107 forward_v I I I I #
coedge $-1 $264 $265 $266 $267 reversed $104 $-1 #
coedge $-1 $170 $106 $268 $269 reversed $67 $-1 #
coedge $-1 $106 $169 $264 $270 reversed $67 $-1 #
coedge $-1 $266 $271 $106 $172 forward $261 $-1 #
edge $-1 $272 24.713668312367112 $273 27.313317562576479 $171 $274 forward 7 unknown #
loop $-1 $-1 $178 $107 #
plane-surface $-1 36.733567655088038 -40.178658593810098 5.609705063004526 0 -0.77714596973225614 0.62932038083071107 1 0 0 forward_v I I I I #
loop $-1 $-1 $275 $69 #
coedge $-1 $176 $176 $177 $276 reversed $108 $-1 #
coedge $-1 $177 $177 $176 $276 forward $110 $-1 #
coedge $-1 $178 $178 $111 $179 forward $173 $-1 #
edge $-1 $277 -3.4212262671158982e-015 $277 6.2831853071795969 $178 $278 forward 7 unknown #
face $-1 $279 $280 $27 $-1 $281 reversed single #
loop $-1 $-1 $282 $112 #
plane-surface $-1 -57.650685140537732 0 0 1 0 0 0 0 -1 forward_v I I I I #
coedge $-1 $283 $191 $284 $285 forward $113 $-1 #
coedge $-1 $286 $115 $283 $287 forward $73 $-1 #
coedge $-1 $115 $286 $288 $289 forward $73 $-1 #
coedge $-1 $194 $193 $115 $187 reversed $195 $-1 #
edge $-1 $290 -40.178658593810106 $291 40.178658593810106 $186 $292 forward 7 unknown #
coedge $-1 $117 $116 $293 $294 forward $46 $-1 #
coedge $-1 $295 $296 $116 $190 reversed $280 $-1 #
edge $-1 $197 -57.650685140537732 $297 57.650685140537732 $189 $298 forward 7 unknown #
coedge $-1 $183 $299 $117 $192 reversed $113 $-1 #
edge $-1 $300 -57.650685140537732 $196 57.650685140537732 $191 $301 forward 7 unknown #
coedge $-1 $186 $118 $299 $302 forward $195 $-1 #
coedge $-1 $118 $186 $295 $303 reversed $195 $-1 #
loop $-1 $-1 $193 $279 #
vertex $-1 $119 $304 #
vertex $-1 $119 $305 #
straight-curve $-1 57.650685140537732 0 8.8200046163907615 0 1 0 I I #
face $-1 $306 $307 $28 $-1 $308 reversed single #
loop $-1 $-1 $204 $120 #
plane-surface $-1 0 -40.178658593810106 0 0 1 0 0 0 1 forward_v I I I I #
coedge $-1 $309 $310 $203 $311 forward $121 $-1 #
coedge $-1 $211 $123 $202 $311 reversed $77 $-1 #
coedge $-1 $209 $312 $123 $205 forward $200 $-1 #
edge $-1 $313 -5.5028328310481189 $212 -1.1315107396371662 $204 $314 forward 7 unknown #
coedge $-1 $125 $124 $315 $316 reversed $49 $-1 #
coedge $-1 $317 $318 $124 $208 forward $319 $-1 #
edge $-1 $320 -31.426114749714365 $213 -21.023026031932368 $207 $321 forward 7 unknown #
coedge $-1 $322 $204 $125 $210 forward $200 $-1 #
edge $-1 $212 21.023026031932368 $323 31.426114749714365 $209 $324 forward 7 unknown #
coedge $-1 $126 $203 $317 $325 reversed $77 $-1 #
vertex $-1 $210 $326 #
vertex $-1 $208 $327 #
straight-curve $-1 -47.247596422755734 0 -4.4486825249798088 0 1 0 I I #
face $-1 $328 $329 $29 $-1 $330 reversed single #
loop $-1 $-1 $225 $128 #
plane-surface $-1 0 40.178658593810106 0 0 -1 0 0 0 -1 forward_v I I I I #
coedge $-1 $331 $131 $222 $332 reversed $81 $-1 #
coedge $-1 $131 $331 $333 $334 reversed $81 $-1 #
coedge $-1 $335 $225 $131 $221 forward $216 $-1 #
edge $-1 $336 1.1651843312845704 $337 5.4916083004989842 $220 $338 forward 7 unknown #
coedge $-1 $133 $132 $218 $332 forward $52 $-1 #
coedge $-1 $339 $340 $132 $224 forward $329 $-1 #
edge $-1 $341 21.307894927027206 $229 31.331158451349424 $223 $342 forward 7 unknown #
coedge $-1 $220 $343 $133 $226 forward $216 $-1 #
edge $-1 $230 -31.331158451349424 $336 -21.307894927027206 $225 $344 forward 7 unknown #
coedge $-1 $345 $134 $343 $346 reversed $129 $-1 #
coedge $-1 $134 $345 $339 $347 forward $129 $-1 #
vertex $-1 $135 $348 #
vertex $-1 $135 $349 #
straight-curve $-1 57.650685140537732 0 4.4935806471763478 0 1 0 I I #
face $-1 $-1 $244 $30 $-1 $350 forward single #
loop $-1 $-1 $351 $136 #
plane-surface $-1 0 40.178658593810106 0 0 -1 0 0 0 -1 forward_v I I I I #
coedge $-1 $352 $353 $354 $355 reversed $137 $-1 #
coedge $-1 $356 $139 $141 $242 forward $85 $-1 #
coedge $-1 $139 $356 $352 $357 forward $85 $-1 #
coedge $-1 $354 $142 $139 $239 forward $244 $-1 #
edge $-1 $246 -6.8530855681305383 $358 15.804633437587455 $238 $359 forward 7 unknown #
coedge $-1 $360 $361 $140 $241 forward $233 $-1 #
edge $-1 $362 -66.560213196364259 $245 -63.38152962313238 $240 $363 forward 7 unknown #
edge $-1 $246 75.781422516130107 $362 80.357317187620225 $141 $364 forward 7 unknown #
coedge $-1 $142 $354 $360 $365 forward $244 $-1 #
loop $-1 $-1 $354 $232 #
vertex $-1 $241 $366 #
vertex $-1 $143 $367 #
straight-curve $-1 -2.3773116334020798 31.234752828835919 8.8200046163907615 0 -1 0 I I #
coedge $-1 $248 $248 $-1 $368 reversed $146 $-1 #
edge $-1 $369 0 $369 6.2831853071796004 $147 $370 forward 7 unknown #
vertex $-1 $150 $371 #
ellipse-curve $-1 2.1542321677415117 38.532847032160525 7.2306628297748317 0 0.69465837861970381 0.71933979245794832 1 0 0 1 I I #
coedge $-1 $252 $252 $-1 $372 reversed $153 $-1 #
edge $-1 $373 0 $373 6.2831853071796004 $154 $374 forward 7 unknown #
vertex $-1 $157 $375 #
ellipse-curve $-1 8.9515478694569168 38.532847032160525 7.2306628297748317 0 0.69465837861970381 0.71933979245794832 1 0 0 1 I I #
coedge $-1 $256 $256 $-1 $376 reversed $160 $-1 #
edge $-1 $377 0 $377 6.2831853071796004 $161 $378 forward 7 unknown #
vertex $-1 $164 $379 #
ellipse-curve $-1 15.748863571172322 38.532847032160525 7.2306628297748317 0 0.69465837861970381 0.71933979245794832 1 0 0 1 I I #
face $-1 $-1 $380 $34 $-1 $381 reversed single #
loop $-1 $-1 $171 $165 #
plane-surface $-1 0 0 8.8200046163907615 0 0 1 1 0 0 forward_v I I I I #
coedge $-1 $382 $383 $384 $385 reversed $166 $-1 #
coedge $-1 $386 $168 $170 $270 forward $104 $-1 #
coedge $-1 $168 $386 $382 $387 forward $104 $-1 #
coedge $-1 $384 $171 $168 $267 forward $261 $-1 #
edge $-1 $273 -24.537988689062054 $388 -12.195578966025984 $266 $389 forward 7 unknown #
coedge $-1 $390 $391 $169 $269 forward $380 $-1 #
edge $-1 $392 -33.475898596292367 $272 -30.265599042906125 $268 $393 forward 7 unknown #
edge $-1 $273 -4.1308836157154021 $392 1.1374033043381581e-014 $170 $394 forward 7 unknown #
coedge $-1 $171 $384 $390 $395 forward $261 $-1 #
vertex $-1 $172 $396 #
vertex $-1 $172 $397 #
straight-curve $-1 42.904772516606073 -64.892326906177217 8.8200046163907615 0 1 0 I I #
coedge $-1 $275 $275 $-1 $398 reversed $175 $-1 #
edge $-1 $399 0 $399 6.2831853071796004 $176 $400 forward 7 unknown #
vertex $-1 $179 $401 #
ellipse-curve $-1 36.733567655088038 -38.878833968705415 7.2148548396976429 0 -0.77714596973225614 0.62932038083071107 0.5 0 0 1 I I #
face $-1 $-1 $195 $27 $-1 $402 reversed single #
loop $-1 $-1 $295 $180 #
plane-surface $-1 0 40.178658593810106 0 0 -1 0 0 0 -1 forward_v I I I I #
coedge $-1 $403 $293 $296 $404 forward $181 $-1 #
coedge $-1 $299 $183 $184 $287 reversed $113 $-1 #
coedge $-1 $293 $403 $183 $285 reversed $181 $-1 #
edge $-1 $300 -8.8200046163907615 $405 8.8200046163907615 $284 $406 forward 7 unknown #
coedge $-1 $185 $184 $403 $407 forward $73 $-1 #
edge $-1 $291 -57.650685140537732 $405 57.650685140537732 $283 $408 forward 7 unknown #
coedge $-1 $296 $295 $185 $289 reversed $280 $-1 #
edge $-1 $409 -57.650685140537732 $290 57.650685140537732 $288 $410 forward 7 unknown #
vertex $-1 $187 $411 #
vertex $-1 $302 $412 #
straight-curve $-1 57.650685140537732 0 -8.8200046163907615 0 -1 0 I I #
coedge $-1 $282 $284 $188 $294 reversed $181 $-1 #
edge $-1 $297 -40.178658593810106 $300 40.178658593810106 $293 $413 forward 7 unknown #
coedge $-1 $288 $189 $194 $303 forward $280 $-1 #
coedge $-1 $189 $288 $282 $404 reversed $280 $-1 #
vertex $-1 $190 $414 #
straight-curve $-1 0 40.178658593810106 8.8200046163907615 -1 0 0 I I #
coedge $-1 $191 $283 $193 $302 reversed $113 $-1 #
vertex $-1 $294 $415 #
straight-curve $-1 0 -40.178658593810106 8.8200046163907615 1 0 0 I I #
edge $-1 $196 -8.8200046163907615 $291 8.8200046163907615 $193 $416 forward 7 unknown #
edge $-1 $197 -8.8200046163907615 $290 8.8200046163907615 $194 $417 forward 7 unknown #
point $-1 57.650685140537732 -40.178658593810106 8.8200046163907615 #
point $-1 57.650685140537732 40.178658593810106 8.8200046163907615 #
face $-1 $-1 $319 $28 $-1 $418 reversed single #
loop $-1 $-1 $315 $199 #
plane-surface $-1 -57.650685140537732 0 0 1 0 0 0 0 -1 forward_v I I I I #
coedge $-1 $419 $202 $312 $420 forward $121 $-1 #
coedge $-1 $202 $419 $421 $422 forward $121 $-1 #
edge $-1 $423 -40.178658593810106 $313 40.178658593810106 $202 $424 forward 7 unknown #
coedge $-1 $204 $322 $309 $420 reversed $200 $-1 #
vertex $-1 $420 $425 #
straight-curve $-1 -47.247596422755734 -40.178658593810106 -3.3171717853426426 0 0 1 I I #
coedge $-1 $426 $427 $206 $316 forward $307 $-1 #
edge $-1 $323 -40.178658593810106 $320 40.178658593810106 $315 $428 forward 7 unknown #
coedge $-1 $421 $207 $211 $325 forward $319 $-1 #
coedge $-1 $207 $421 $426 $429 reversed $319 $-1 #
loop $-1 $-1 $317 $306 #
vertex $-1 $429 $430 #
straight-curve $-1 -26.224570390823366 40.178658593810106 -4.4486825249798088 1 0 0 I I #
coedge $-1 $312 $209 $427 $431 forward $200 $-1 #
vertex $-1 $431 $432 #
straight-curve $-1 -26.224570390823366 -40.178658593810106 -4.4486825249798088 -1 0 0 I I #
edge $-1 $213 1.1315107396371662 $423 5.5028328310481189 $317 $433 forward 7 unknown #
point $-1 -47.247596422755734 -40.178658593810106 -4.4486825249798088 #
point $-1 -47.247596422755734 40.178658593810106 -4.4486825249798088 #
face $-1 $-1 $434 $29 $-1 $435 forward single #
loop $-1 $-1 $223 $215 #
plane-surface $-1 0 -40.178658593810106 0 0 1 0 0 0 1 forward_v I I I I #
coedge $-1 $219 $218 $340 $436 reversed $81 $-1 #
edge $-1 $341 -40.178658593810106 $336 40.178658593810106 $218 $437 forward 7 unknown #
coedge $-1 $438 $439 $219 $334 forward $434 $-1 #
edge $-1 $337 -40.178658593810106 $440 40.178658593810106 $333 $441 forward 7 unknown #
coedge $-1 $343 $220 $439 $442 reversed $216 $-1 #
vertex $-1 $226 $443 #
vertex $-1 $221 $444 #
straight-curve $-1 47.627421616215521 40.178658593810106 3.3283963158917773 0 0 1 I I #
coedge $-1 $445 $223 $228 $347 reversed $329 $-1 #
coedge $-1 $223 $445 $331 $436 forward $329 $-1 #
vertex $-1 $224 $446 #
straight-curve $-1 26.319526689188315 -40.178658593810106 4.4935806471763478 1 0 0 I I #
coedge $-1 $225 $335 $227 $346 forward $216 $-1 #
straight-curve $-1 26.319526689188315 40.178658593810106 4.4935806471763478 -1 0 0 I I #
coedge $-1 $228 $227 $447 $448 reversed $129 $-1 #
edge $-1 $449 -8.8200046163907615 $230 -4.4935806471763478 $227 $450 forward 7 unknown #
edge $-1 $451 -8.8200046163907615 $229 -4.4935806471763478 $228 $452 forward 7 unknown #
point $-1 57.650685140537739 -40.178658593810106 4.4935806471763478 #
point $-1 57.650685140537739 40.178658593810106 4.4935806471763478 #
plane-surface $-1 0 0 8.8200046163907615 0 0 1 1 0 0 forward_v I I I I #
coedge $-1 $361 $360 $353 $453 forward $233 $-1 #
coedge $-1 $353 $235 $237 $357 reversed $137 $-1 #
coedge $-1 $235 $352 $351 $453 reversed $137 $-1 #
coedge $-1 $243 $238 $235 $355 forward $244 $-1 #
edge $-1 $358 5.652282641675054 $454 8.9439057649741862 $354 $455 forward 7 unknown #
coedge $-1 $237 $236 $361 $456 reversed $85 $-1 #
edge $-1 $457 -80.357317187620225 $358 -75.781422516130107 $352 $458 forward 7 unknown #
vertex $-1 $239 $459 #
straight-curve $-1 4.4757739347284584 36.88703547051098 8.8200046163907615 1 0 0 I I #
coedge $-1 $351 $240 $243 $365 reversed $233 $-1 #
coedge $-1 $240 $351 $356 $456 forward $233 $-1 #
vertex $-1 $241 $460 #
straight-curve $-1 -2.3773116334020798 40.178658593810106 72.201534239523141 0 0 1 I I #
straight-curve $-1 -2.3773116334020798 -17.625557274410149 61.462204710940412 0 0.71933979245794832 -0.69465837861970381 I I #
edge $-1 $454 -20.280407372315914 $245 2.3773116334020798 $360 $461 forward 7 unknown #
point $-1 -2.3773116334020798 40.178658593810106 8.8200046163907615 #
point $-1 -2.3773116334020798 36.887035470510973 8.8200046163907544 #
edge $-1 $462 1 $462 0 $248 $-1 forward 7 unknown #
vertex $-1 $249 $463 #
ellipse-curve $-1 2.1542321677415117 37.529665951308317 6.1918384339158852 0 0.69465837861970381 0.71933979245794832 1 0 0 1 I I #
point $-1 3.1542321677415117 38.532847032160525 7.2306628297748317 #
edge $-1 $464 1 $464 0 $252 $-1 forward 7 unknown #
vertex $-1 $253 $465 #
ellipse-curve $-1 8.9515478694569168 37.529665951308317 6.1918384339158852 0 0.69465837861970381 0.71933979245794832 1 0 0 1 I I #
point $-1 9.9515478694569168 38.532847032160525 7.2306628297748317 #
edge $-1 $466 1 $466 0 $256 $-1 forward 7 unknown #
vertex $-1 $257 $467 #
ellipse-curve $-1 15.748863571172322 37.529665951308317 6.1918384339158852 0 0.69465837861970381 0.71933979245794832 1 0 0 1 I I #
point $-1 16.748863571172322 38.532847032160525 7.2306628297748317 #
loop $-1 $-1 $268 $260 #
plane-surface $-1 0 -40.178658593810106 0 0 1 0 0 0 1 forward_v I I I I #
coedge $-1 $383 $263 $265 $387 reversed $166 $-1 #
coedge $-1 $263 $382 $468 $469 reversed $166 $-1 #
coedge $-1 $271 $266 $263 $385 forward $261 $-1 #
edge $-1 $388 -27.313317562576479 $470 -24.713668312367112 $384 $471 forward 7 unknown #
coedge $-1 $265 $264 $391 $472 reversed $104 $-1 #
edge $-1 $473 -1.1374033043381581e-014 $388 4.1308836157154021 $382 $474 forward 7 unknown #
vertex $-1 $267 $475 #
straight-curve $-1 18.366783827544019 -37.579009343600738 8.8200046163907615 -1 0 0 I I #
coedge $-1 $468 $268 $271 $395 reversed $380 $-1 #
coedge $-1 $268 $468 $386 $472 forward $380 $-1 #
vertex $-1 $269 $476 #
straight-curve $-1 42.904772516606073 -40.178658593810106 39.085603659296886 0 0 1 I I #
straight-curve $-1 42.904772516606073 -40.178658593810098 5.609705063004526 0 -0.62932038083071107 -0.77714596973225614 I I #
edge $-1 $470 30.562362793570003 $272 42.904772516606073 $390 $477 forward 7 unknown #
point $-1 42.904772516606073 -40.178658593810106 8.8200046163907615 #
point $-1 42.904772516606073 -37.579009343600738 8.8200046163907615 #
edge $-1 $478 1 $478 0 $275 $-1 forward 7 unknown #
vertex $-1 $276 $479 #
ellipse-curve $-1 36.733567655088038 -37.798948055412652 6.3403804929526437 0 -0.77714596973225614 0.62932038083071107 0.5 0 0 1 I I #
point $-1 37.233567655088038 -38.878833968705422 7.2148548396976464 #
plane-surface $-1 57.650685140537732 0 0 -1 0 0 0 0 1 forward_v I I I I #
coedge $-1 $284 $282 $286 $407 reversed $181 $-1 #
edge $-1 $297 -8.8200046163907615 $409 8.8200046163907615 $296 $480 forward 7 unknown #
vertex $-1 $407 $481 #
straight-curve $-1 -57.650685140537732 -40.178658593810106 0 0 0 -1 I I #
edge $-1 $405 -40.178658593810106 $409 40.178658593810106 $403 $482 forward 7 unknown #
straight-curve $-1 0 -40.178658593810106 -8.8200046163907615 -1 0 0 I I #
vertex $-1 $289 $483 #
straight-curve $-1 0 40.178658593810106 -8.8200046163907615 1 0 0 I I #
point $-1 57.650685140537732 40.178658593810106 -8.8200046163907615 #
point $-1 57.650685140537732 -40.178658593810106 -8.8200046163907615 #
straight-curve $-1 -57.650685140537732 0 8.8200046163907615 0 -1 0 I I #
point $-1 -57.650685140537732 40.178658593810106 8.8200046163907615 #
point $-1 -57.650685140537732 -40.178658593810106 8.8200046163907615 #
straight-curve $-1 57.650685140537732 -40.178658593810106 0 0 0 -1 I I #
straight-curve $-1 57.650685140537732 40.178658593810106 0 0 0 -1 I I #
plane-surface $-1 0 40.178658593810106 0 0 -1 0 0 0 -1 forward_v I I I I #
coedge $-1 $310 $309 $484 $485 forward $121 $-1 #
edge $-1 $313 47.247596422755734 $486 57.650685140537732 $312 $487 forward 7 unknown #
coedge $-1 $318 $317 $310 $422 reversed $319 $-1 #
edge $-1 $488 -57.650685140537732 $423 -47.247596422755734 $421 $489 forward 7 unknown #
vertex $-1 $325 $490 #
straight-curve $-1 -47.247596422755734 0 -8.8200046163907615 0 -1 0 I I #
point $-1 -47.247596422755734 -40.178658593810106 -8.8200046163907615 #
coedge $-1 $484 $315 $318 $429 forward $307 $-1 #
coedge $-1 $315 $484 $322 $431 reversed $307 $-1 #
straight-curve $-1 -57.650685140537732 0 -4.4486825249798088 0 1 0 I I #
edge $-1 $320 4.4486825249798088 $488 8.8200046163907615 $318 $491 forward 7 unknown #
point $-1 -57.650685140537732 40.178658593810106 -4.4486825249798088 #
edge $-1 $323 4.4486825249798088 $486 8.8200046163907615 $427 $492 forward 7 unknown #
point $-1 -57.650685140537732 -40.178658593810106 -4.4486825249798088 #
straight-curve $-1 -47.247596422755734 40.178658593810106 -3.3171717853426426 0 0 -1 I I #
loop $-1 $-1 $333 $328 #
plane-surface $-1 0 0 8.8200046163907615 0 0 1 1 0 0 forward_v I I I I #
edge $-1 $440 -5.4916083004989842 $341 -1.1651843312845704 $340 $493 forward 7 unknown #
straight-curve $-1 47.627421616215521 0 4.4935806471763478 0 1 0 I I #
coedge $-1 $447 $333 $445 $494 forward $434 $-1 #
coedge $-1 $333 $447 $335 $442 forward $434 $-1 #
vertex $-1 $494 $495 #
straight-curve $-1 47.627421616215521 0 8.8200046163907615 0 -1 0 I I #
edge $-1 $449 -57.650685140537732 $337 -47.627421616215521 $335 $496 forward 7 unknown #
point $-1 47.627421616215521 40.178658593810106 4.4935806471763478 #
point $-1 47.627421616215521 40.178658593810106 8.8200046163907615 #
coedge $-1 $340 $339 $438 $494 reversed $329 $-1 #
point $-1 47.627421616215521 -40.178658593810106 4.4935806471763478 #
coedge $-1 $439 $438 $345 $448 forward $434 $-1 #
edge $-1 $451 -40.178658593810106 $449 40.178658593810106 $345 $497 forward 7 unknown #
vertex $-1 $448 $498 #
straight-curve $-1 57.650685140537732 40.178658593810106 0 0 0 -1 I I #
vertex $-1 $448 $499 #
straight-curve $-1 57.650685140537732 -40.178658593810106 0 0 0 -1 I I #
edge $-1 $454 63.38152962313238 $457 66.560213196364259 $351 $500 forward 7 unknown #
vertex $-1 $365 $501 #
straight-curve $-1 20.280407372315914 31.234752828835919 8.8200046163907615 0 1 0 I I #
edge $-1 $457 -15.804633437587455 $362 6.8530855681305383 $361 $502 forward 7 unknown #
vertex $-1 $456 $503 #
straight-curve $-1 20.280407372315914 -17.625557274410149 61.462204710940412 0 -0.71933979245794832 0.69465837861970381 I I #
point $-1 20.280407372315914 36.887035470510973 8.8200046163907544 #
point $-1 -2.3773116334020798 40.178658593810106 5.6413210431588894 #
straight-curve $-1 0 40.178658593810106 8.8200046163907615 -1 0 0 I I #
vertex $-1 $368 $504 #
point $-1 3.1542321677415117 37.529665951308317 6.1918384339158852 #
vertex $-1 $372 $505 #
point $-1 9.9515478694569168 37.529665951308317 6.1918384339158852 #
vertex $-1 $376 $506 #
point $-1 16.748863571172322 37.529665951308317 6.1918384339158852 #
coedge $-1 $391 $390 $383 $469 forward $380 $-1 #
edge $-1 $470 30.265599042906125 $473 33.475898596292367 $468 $507 forward 7 unknown #
vertex $-1 $395 $508 #
straight-curve $-1 30.562362793570003 -64.892326906177217 8.8200046163907615 0 -1 0 I I #
edge $-1 $473 12.195578966025984 $392 24.537988689062054 $391 $509 forward 7 unknown #
vertex $-1 $472 $510 #
straight-curve $-1 30.562362793570003 -40.178658593810098 5.609705063004526 0 0.62932038083071107 0.77714596973225614 I I #
point $-1 30.562362793570003 -37.579009343600738 8.8200046163907615 #
point $-1 42.904772516606073 -40.178658593810106 5.6097050630045171 #
straight-curve $-1 0 -40.178658593810106 8.8200046163907615 1 0 0 I I #
vertex $-1 $398 $511 #
point $-1 37.233567655088038 -37.798948055412652 6.3403804929526437 #
straight-curve $-1 -57.650685140537732 40.178658593810106 0 0 0 -1 I I #
point $-1 -57.650685140537732 -40.178658593810106 -8.8200046163907615 #
straight-curve $-1 -57.650685140537732 0 -8.8200046163907615 0 1 0 I I #
point $-1 -57.650685140537732 40.178658593810106 -8.8200046163907615 #
coedge $-1 $427 $426 $419 $485 reversed $307 $-1 #
edge $-1 $486 -40.178658593810106 $488 40.178658593810106 $484 $512 forward 7 unknown #
vertex $-1 $485 $513 #
straight-curve $-1 0 -40.178658593810106 -8.8200046163907615 -1 0 0 I I #
vertex $-1 $422 $514 #
straight-curve $-1 0 40.178658593810106 -8.8200046163907615 1 0 0 I I #
point $-1 -47.247596422755734 40.178658593810106 -8.8200046163907615 #
straight-curve $-1 -57.650685140537732 40.178658593810106 0 0 0 -1 I I #
straight-curve $-1 -57.650685140537732 -40.178658593810106 0 0 0 -1 I I #
straight-curve $-1 47.627421616215521 -40.178658593810106 3.3283963158917773 0 0 -1 I I #
edge $-1 $440 47.627421616215521 $451 57.650685140537732 $445 $515 forward 7 unknown #
point $-1 47.627421616215521 -40.178658593810106 8.8200046163907615 #
straight-curve $-1 0 40.178658593810106 8.8200046163907615 -1 0 0 I I #
straight-curve $-1 57.650685140537732 0 8.8200046163907615 0 1 0 I I #
point $-1 57.650685140537732 40.178658593810106 8.8200046163907615 #
point $-1 57.650685140537732 -40.178658593810106 8.8200046163907615 #
straight-curve $-1 20.280407372315914 40.178658593810106 72.201534239523141 0 0 -1 I I #
point $-1 20.280407372315914 40.178658593810106 8.8200046163907615 #
straight-curve $-1 4.4757739347284584 40.178658593810106 5.6413210431588965 -1 0 0 I I #
point $-1 20.280407372315914 40.178658593810106 5.6413210431588894 #
point $-1 2.1542321677415117 36.83500757268861 5.4724986414579373 #
point $-1 8.9515478694569168 36.83500757268861 5.4724986414579373 #
point $-1 15.748863571172322 36.83500757268861 5.4724986414579373 #
straight-curve $-1 30.562362793570003 -40.178658593810106 39.085603659296886 0 0 -1 I I #
point $-1 30.562362793570003 -40.178658593810106 8.8200046163907615 #
straight-curve $-1 18.366783827544019 -40.178658593810106 5.60970506300451 1 0 0 I I #
point $-1 30.562362793570003 -40.178658593810106 5.6097050630045171 #
point $-1 36.733567655088038 -37.410375070546522 6.0257203025372874 #
straight-curve $-1 -57.650685140537732 0 -8.8200046163907615 0 1 0 I I #
point $-1 -57.650685140537732 -40.178658593810106 -8.8200046163907615 #
point $-1 -57.650685140537732 40.178658593810106 -8.8200046163907615 #
straight-curve $-1 0 -40.178658593810106 8.8200046163907615 1 0 0 I I #
End-of-ACIS-data 