500 0 5 0           
7 Unknown 11 ACIS 5.0 NT 24 Thu Mar 25 16:38:55 1999 
-1 9.9999999999999995e-007 1e-010 
body $-1 $5 $-1 $6 #
body $-1 $7 $-1 $8 #
body $-1 $9 $-1 $10 #
body $-1 $11 $-1 $12 #
body $-1 $13 $-1 $14 #
lump $-1 $-1 $15 $0 #
transform $-1 1 0 0 0 1 0 0 0 1 77.275307473982963 51.874708496985349 21.027882569059059 1 rotate no_reflect no_shear #
lump $-1 $-1 $16 $1 #
transform $-1 1 0 0 0 1 0 0 0 1 77.275307473982963 51.874708496985349 21.027882569059059 1 rotate no_reflect no_shear #
lump $-1 $-1 $17 $2 #
transform $-1 1 0 0 0 1 0 0 0 1 77.275307473982963 51.874708496985349 21.027882569059059 1 rotate no_reflect no_shear #
lump $-1 $-1 $18 $3 #
transform $-1 1 0 0 0 1 0 0 0 1 77.275307473982963 51.874708496985349 21.027882569059059 1 rotate no_reflect no_shear #
lump $-1 $-1 $19 $4 #
transform $-1 1 0 0 0 1 0 0 0 1 77.275307473982963 51.874708496985349 21.027882569059059 1 rotate no_reflect no_shear #
shell $-1 $-1 $-1 $20 $-1 $5 #
shell $-1 $-1 $-1 $21 $-1 $7 #
shell $-1 $-1 $-1 $22 $-1 $9 #
shell $-1 $-1 $-1 $23 $-1 $11 #
shell $-1 $-1 $-1 $24 $-1 $13 #
face $-1 $25 $26 $15 $-1 $27 forward single #
face $-1 $28 $29 $16 $-1 $30 forward single #
face $-1 $31 $32 $17 $-1 $33 reversed single #
face $-1 $34 $35 $18 $-1 $36 forward single #
face $-1 $37 $38 $19 $-1 $39 forward single #
face $-1 $40 $41 $15 $-1 $42 reversed single #
loop $-1 $-1 $43 $20 #
plane-surface $-1 0 0 21.027882569059059 0 0 1 1 0 0 forward_v I I I I #
face $-1 $44 $45 $16 $-1 $46 reversed single #
loop $-1 $-1 $47 $21 #
plane-surface $-1 -77.275307473982963 0 0 1 0 0 0 0 -1 forward_v I I I I #
face $-1 $48 $49 $17 $-1 $50 reversed single #
loop $-1 $-1 $51 $22 #
plane-surface $-1 92.521813586517396 49.369780302208113 224.93666532389688 0 -1 0 -0.75470958851134928 0 -0.65605901945558964 forward_v I I I I #
face $-1 $52 $53 $18 $-1 $54 forward single #
loop $-1 $55 $56 $23 #
cone-surface $-1 68.333156571049017 34.93675634451499 11.528766291063944 -0.75470958851134928 0 -0.65605901945558964 1.3121180389111793 0 -1.5094191770226986 1 I I 0 1 2 forward I I I I #
face $-1 $57 $58 $19 $-1 $59 forward single #
loop $-1 $60 $61 $24 #
cone-surface $-1 68.333156571049017 43.596570719130867 11.528766291063944 -0.75470958851134928 0 -0.65605901945558964 1.3121180389111793 0 -1.5094191770226986 1 I I 0 1 2 forward I I I I #
face $-1 $62 $63 $15 $-1 $64 reversed single #
loop $-1 $-1 $65 $25 #
plane-surface $-1 0 0 -21.027882569059059 0 0 1 1 0 0 forward_v I I I I #
coedge $-1 $66 $67 $68 $69 forward $26 $-1 #
face $-1 $70 $71 $16 $-1 $72 forward single #
loop $-1 $-1 $73 $28 #
plane-surface $-1 0 51.874708496985349 0 0 -1 0 0 0 -1 forward_v I I I I #
coedge $-1 $74 $75 $76 $77 forward $29 $-1 #
face $-1 $78 $79 $17 $-1 $80 reversed single #
loop $-1 $-1 $81 $31 #
plane-surface $-1 -24.119017425037953 39.266663531822928 123.54234042487596 0.75470958851134928 0 0.65605901945558964 0.65605901945558964 0 -0.75470958851134928 forward_v I I I I #
coedge $-1 $82 $83 $84 $85 reversed $32 $-1 #
face $-1 $-1 $86 $18 $-1 $87 forward single #
loop $-1 $88 $89 $34 #
cone-surface $-1 64.776230341799845 34.93675634451499 8.4367775714824518 -0.75470958851134928 0 -0.65605901945558964 0.65605901945558964 0 -0.75470958851134928 1 I I -0.70710678118654746 0.70710678118654746 1 forward I I I I #
loop $-1 $-1 $90 $23 #
coedge $-1 $56 $56 $91 $92 reversed $35 $-1 #
face $-1 $-1 $93 $19 $-1 $94 forward single #
loop $-1 $95 $96 $37 #
cone-surface $-1 64.776230341799845 43.596570719130867 8.4367775714824518 -0.75470958851134928 0 -0.65605901945558964 0.65605901945558964 0 -0.75470958851134928 1 I I -0.70710678118654746 0.70710678118654746 1 forward I I I I #
loop $-1 $-1 $97 $24 #
coedge $-1 $61 $61 $98 $99 reversed $38 $-1 #
face $-1 $100 $101 $15 $-1 $102 reversed single #
loop $-1 $-1 $103 $40 #
plane-surface $-1 0 -51.874708496985349 0 0 1 0 0 0 1 forward_v I I I I #
coedge $-1 $104 $105 $106 $107 forward $41 $-1 #
coedge $-1 $108 $43 $109 $110 forward $26 $-1 #
coedge $-1 $43 $108 $111 $112 forward $26 $-1 #
coedge $-1 $113 $114 $43 $69 reversed $115 $-1 #
edge $-1 $116 -51.874708496985349 $117 51.874708496985349 $68 $118 forward 7 unknown #
face $-1 $119 $120 $16 $-1 $121 reversed single #
loop $-1 $-1 $76 $44 #
plane-surface $-1 -84.586172230481537 0 3.915599326626813 0 0 1 1 0 0 forward_v I I I I #
coedge $-1 $122 $123 $75 $124 forward $45 $-1 #
coedge $-1 $125 $47 $126 $127 reversed $29 $-1 #
coedge $-1 $47 $125 $73 $124 reversed $29 $-1 #
coedge $-1 $128 $129 $47 $77 reversed $71 $-1 #
edge $-1 $130 -51.874708496985349 $131 51.874708496985349 $76 $132 forward 7 unknown #
face $-1 $133 $134 $17 $-1 $135 forward single #
loop $-1 $-1 $136 $48 #
plane-surface $-1 92.521813586517396 29.163546761437743 224.93666532389688 0 1 0 0.75470958851134928 0 0.65605901945558964 forward_v I I I I #
coedge $-1 $137 $138 $139 $140 reversed $49 $-1 #
coedge $-1 $83 $51 $141 $142 reversed $32 $-1 #
coedge $-1 $51 $82 $137 $143 reversed $32 $-1 #
coedge $-1 $139 $144 $51 $85 forward $134 $-1 #
edge $-1 $145 -31.014400680724265 $146 -18.734532156332037 $84 $147 forward 7 unknown #
loop $-1 $-1 $91 $52 #
plane-surface $-1 -24.119017425037953 39.266663531822928 123.54234042487596 0.75470958851134928 0 0.65605901945558964 0.65605901945558964 0 -0.75470958851134928 forward_v I I I I #
loop $-1 $-1 $148 $34 #
coedge $-1 $89 $89 $90 $149 reversed $53 $-1 #
coedge $-1 $90 $90 $89 $149 forward $55 $-1 #
coedge $-1 $91 $91 $56 $92 forward $86 $-1 #
edge $-1 $150 0 $150 6.2831853071796004 $91 $151 forward 7 unknown #
loop $-1 $-1 $98 $57 #
plane-surface $-1 -24.119017425037953 39.266663531822928 123.54234042487596 0.75470958851134928 0 0.65605901945558964 0.65605901945558964 0 -0.75470958851134928 forward_v I I I I #
loop $-1 $-1 $152 $37 #
coedge $-1 $96 $96 $97 $153 reversed $58 $-1 #
coedge $-1 $97 $97 $96 $153 forward $60 $-1 #
coedge $-1 $98 $98 $61 $99 forward $93 $-1 #
edge $-1 $154 0 $154 6.2831853071796004 $98 $155 forward 7 unknown #
face $-1 $156 $157 $15 $-1 $158 reversed single #
loop $-1 $-1 $159 $62 #
plane-surface $-1 -77.275307473982963 0 0 1 0 0 0 0 -1 forward_v I I I I #
coedge $-1 $160 $111 $161 $162 forward $63 $-1 #
coedge $-1 $163 $65 $160 $164 forward $41 $-1 #
coedge $-1 $65 $163 $165 $166 forward $41 $-1 #
coedge $-1 $114 $113 $65 $107 reversed $115 $-1 #
edge $-1 $167 -51.874708496985349 $168 51.874708496985349 $106 $169 forward 7 unknown #
coedge $-1 $67 $66 $170 $171 forward $26 $-1 #
coedge $-1 $172 $173 $66 $110 reversed $157 $-1 #
edge $-1 $117 -77.275307473982963 $174 77.275307473982963 $109 $175 forward 7 unknown #
coedge $-1 $103 $176 $67 $112 reversed $63 $-1 #
edge $-1 $177 -77.275307473982963 $116 77.275307473982963 $111 $178 forward 7 unknown #
coedge $-1 $106 $68 $176 $179 forward $115 $-1 #
coedge $-1 $68 $106 $172 $180 reversed $115 $-1 #
loop $-1 $-1 $113 $156 #
vertex $-1 $69 $181 #
vertex $-1 $69 $182 #
straight-curve $-1 77.275307473982963 0 21.027882569059059 0 1 0 I I #
face $-1 $183 $184 $16 $-1 $185 reversed single #
loop $-1 $-1 $186 $70 #
plane-surface $-1 -84.586172230481537 0 -2.1089240042186308 0 0 1 1 0 0 forward_v I I I I #
coedge $-1 $187 $73 $188 $189 reversed $45 $-1 #
coedge $-1 $73 $187 $128 $190 reversed $45 $-1 #
edge $-1 $130 -3.915599326626813 $191 2.1089240042186308 $73 $192 forward 7 unknown #
coedge $-1 $75 $74 $186 $193 forward $29 $-1 #
coedge $-1 $194 $195 $74 $127 forward $196 $-1 #
edge $-1 $197 -2.1089240042186308 $131 3.915599326626813 $126 $198 forward 7 unknown #
coedge $-1 $199 $76 $123 $190 forward $71 $-1 #
coedge $-1 $76 $199 $194 $200 forward $71 $-1 #
vertex $-1 $124 $201 #
vertex $-1 $200 $202 #
straight-curve $-1 -77.275307473982963 0 3.915599326626813 0 -1 0 I I #
face $-1 $-1 $203 $17 $-1 $204 reversed single #
loop $-1 $-1 $84 $78 #
plane-surface $-1 0 0 21.027882569059059 0 0 1 1 0 0 forward_v I I I I #
coedge $-1 $205 $206 $207 $208 reversed $79 $-1 #
coedge $-1 $209 $81 $83 $143 forward $49 $-1 #
coedge $-1 $81 $209 $205 $210 forward $49 $-1 #
coedge $-1 $207 $84 $81 $140 forward $134 $-1 #
edge $-1 $146 -29.736448536296649 $211 -9.5302149955262792 $139 $212 forward 7 unknown #
coedge $-1 $213 $214 $82 $142 forward $203 $-1 #
edge $-1 $215 -105.56682324862783 $145 -91.440450092889378 $141 $216 forward 7 unknown #
edge $-1 $146 135.83298717328449 $215 154.55061494796595 $83 $217 forward 7 unknown #
coedge $-1 $84 $207 $213 $218 forward $134 $-1 #
vertex $-1 $142 $219 #
vertex $-1 $85 $220 #
straight-curve $-1 46.260906793258698 49.369780302208113 21.027882569059059 -1 0 0 I I #
coedge $-1 $148 $148 $-1 $221 reversed $88 $-1 #
edge $-1 $222 0 $222 6.2831853071796004 $89 $223 forward 7 unknown #
vertex $-1 $92 $224 #
ellipse-curve $-1 71.135373211786842 34.93675634451499 13.964695991189849 0.75470958851134928 0 0.65605901945558964 1.3121180389111793 0 -1.5094191770226986 1 I I #
coedge $-1 $152 $152 $-1 $225 reversed $95 $-1 #
edge $-1 $226 0 $226 6.2831853071796004 $96 $227 forward 7 unknown #
vertex $-1 $99 $228 #
ellipse-curve $-1 71.135373211786842 43.596570719130867 13.964695991189849 0.75470958851134928 0 0.65605901945558964 1.3121180389111793 0 -1.5094191770226986 1 I I #
face $-1 $-1 $115 $15 $-1 $229 reversed single #
loop $-1 $-1 $172 $100 #
plane-surface $-1 0 51.874708496985349 0 0 -1 0 0 0 -1 forward_v I I I I #
coedge $-1 $230 $170 $173 $231 forward $101 $-1 #
coedge $-1 $176 $103 $104 $164 reversed $63 $-1 #
coedge $-1 $170 $230 $103 $162 reversed $101 $-1 #
edge $-1 $177 -21.027882569059059 $232 21.027882569059059 $161 $233 forward 7 unknown #
coedge $-1 $105 $104 $230 $234 forward $41 $-1 #
edge $-1 $168 -77.275307473982963 $232 77.275307473982963 $160 $235 forward 7 unknown #
coedge $-1 $173 $172 $105 $166 reversed $157 $-1 #
edge $-1 $236 -77.275307473982963 $167 77.275307473982963 $165 $237 forward 7 unknown #
vertex $-1 $107 $238 #
vertex $-1 $179 $239 #
straight-curve $-1 77.275307473982963 0 -21.027882569059059 0 -1 0 I I #
coedge $-1 $159 $161 $108 $171 reversed $101 $-1 #
edge $-1 $174 -51.874708496985349 $177 51.874708496985349 $170 $240 forward 7 unknown #
coedge $-1 $165 $109 $114 $180 forward $157 $-1 #
coedge $-1 $109 $165 $159 $231 reversed $157 $-1 #
vertex $-1 $110 $241 #
straight-curve $-1 0 51.874708496985349 21.027882569059059 -1 0 0 I I #
coedge $-1 $111 $160 $113 $179 reversed $63 $-1 #
vertex $-1 $171 $242 #
straight-curve $-1 0 -51.874708496985349 21.027882569059059 1 0 0 I I #
edge $-1 $116 -21.027882569059059 $168 21.027882569059059 $113 $243 forward 7 unknown #
edge $-1 $117 -21.027882569059059 $167 21.027882569059059 $114 $244 forward 7 unknown #
point $-1 77.275307473982963 -51.874708496985349 21.027882569059059 #
point $-1 77.275307473982963 51.874708496985349 21.027882569059059 #
face $-1 $-1 $196 $16 $-1 $245 reversed single #
loop $-1 $-1 $246 $119 #
plane-surface $-1 -91.897036986980112 0 0.90333766120409109 1 0 0 0 0 -1 forward_v I I I I #
coedge $-1 $247 $188 $125 $193 reversed $120 $-1 #
coedge $-1 $123 $122 $246 $248 reversed $45 $-1 #
coedge $-1 $186 $249 $122 $189 forward $120 $-1 #
edge $-1 $250 -7.3108647564985745 $191 7.3108647564985745 $122 $251 forward 7 unknown #
edge $-1 $130 -7.3108647564985745 $252 7.3108647564985745 $123 $253 forward 7 unknown #
vertex $-1 $124 $254 #
straight-curve $-1 -77.275307473982963 51.874708496985349 0 0 0 -1 I I #
edge $-1 $197 -51.874708496985349 $191 51.874708496985349 $186 $255 forward 7 unknown #
coedge $-1 $256 $126 $129 $200 reversed $196 $-1 #
coedge $-1 $126 $256 $247 $257 reversed $196 $-1 #
loop $-1 $-1 $126 $183 #
vertex $-1 $127 $258 #
straight-curve $-1 -77.275307473982963 -51.874708496985349 0 0 0 1 I I #
coedge $-1 $129 $128 $259 $260 forward $71 $-1 #
edge $-1 $261 -7.3108647564985745 $131 7.3108647564985745 $194 $262 forward 7 unknown #
point $-1 -77.275307473982963 51.874708496985349 3.915599326626813 #
point $-1 -77.275307473982963 -51.874708496985349 3.915599326626813 #
loop $-1 $-1 $141 $133 #
plane-surface $-1 77.275307473982963 0 0 -1 0 0 0 0 1 forward_v I I I I #
coedge $-1 $206 $136 $138 $210 reversed $79 $-1 #
coedge $-1 $136 $205 $263 $264 reversed $79 $-1 #
coedge $-1 $144 $139 $136 $208 forward $134 $-1 #
edge $-1 $211 18.734532156332037 $265 31.014400680724265 $207 $266 forward 7 unknown #
coedge $-1 $138 $137 $214 $267 reversed $49 $-1 #
edge $-1 $268 -154.55061494796595 $211 -135.83298717328449 $205 $269 forward 7 unknown #
vertex $-1 $140 $270 #
straight-curve $-1 64.995438949590735 19.633331765911464 21.027882569059059 0 -1 0 I I #
coedge $-1 $263 $141 $144 $218 reversed $203 $-1 #
coedge $-1 $141 $263 $209 $267 forward $203 $-1 #
vertex $-1 $142 $271 #
straight-curve $-1 77.275307473982963 49.369780302208113 112.46833266194844 0 0 1 I I #
straight-curve $-1 -24.119017425037953 49.369780302208113 123.54234042487596 0.65605901945558964 0 -0.75470958851134928 I I #
edge $-1 $265 29.163546761437743 $145 49.369780302208113 $213 $272 forward 7 unknown #
point $-1 77.275307473982963 49.369780302208113 21.027882569059059 #
point $-1 64.995438949590735 49.369780302208113 21.027882569059059 #
edge $-1 $273 1 $273 0 $148 $-1 forward 7 unknown #
vertex $-1 $149 $274 #
ellipse-curve $-1 65.530939930311192 34.93675634451499 9.0928365909380418 0.75470958851134928 0 0.65605901945558964 1.3121180389111793 0 -1.5094191770226986 1 I I #
point $-1 72.447491250698022 34.93675634451499 12.455276814167146 #
edge $-1 $275 1 $275 0 $152 $-1 forward 7 unknown #
vertex $-1 $153 $276 #
ellipse-curve $-1 65.530939930311192 43.596570719130867 9.0928365909380418 0.75470958851134928 0 0.65605901945558964 1.3121180389111793 0 -1.5094191770226986 1 I I #
point $-1 72.447491250698022 43.596570719130867 12.455276814167146 #
plane-surface $-1 77.275307473982963 0 0 -1 0 0 0 0 1 forward_v I I I I #
coedge $-1 $161 $159 $163 $234 reversed $101 $-1 #
edge $-1 $174 -21.027882569059059 $236 21.027882569059059 $173 $277 forward 7 unknown #
vertex $-1 $234 $278 #
straight-curve $-1 -77.275307473982963 -51.874708496985349 0 0 0 -1 I I #
edge $-1 $232 -51.874708496985349 $236 51.874708496985349 $230 $279 forward 7 unknown #
straight-curve $-1 0 -51.874708496985349 -21.027882569059059 -1 0 0 I I #
vertex $-1 $166 $280 #
straight-curve $-1 0 51.874708496985349 -21.027882569059059 1 0 0 I I #
point $-1 77.275307473982963 51.874708496985349 -21.027882569059059 #
point $-1 77.275307473982963 -51.874708496985349 -21.027882569059059 #
straight-curve $-1 -77.275307473982963 0 21.027882569059059 0 -1 0 I I #
point $-1 -77.275307473982963 51.874708496985349 21.027882569059059 #
point $-1 -77.275307473982963 -51.874708496985349 21.027882569059059 #
straight-curve $-1 77.275307473982963 -51.874708496985349 0 0 0 -1 I I #
straight-curve $-1 77.275307473982963 51.874708496985349 0 0 0 -1 I I #
plane-surface $-1 0 -51.874708496985349 0 0 1 0 0 0 1 forward_v I I I I #
coedge $-1 $281 $259 $187 $248 forward $184 $-1 #
coedge $-1 $249 $186 $195 $257 forward $120 $-1 #
edge $-1 $252 -3.0122616654227219 $250 3.0122616654227219 $187 $282 forward 7 unknown #
coedge $-1 $188 $247 $281 $283 forward $120 $-1 #
vertex $-1 $189 $284 #
straight-curve $-1 -84.586172230481537 51.874708496985349 -2.1089240042186308 1 0 0 I I #
vertex $-1 $190 $285 #
straight-curve $-1 -84.586172230481537 51.874708496985349 3.915599326626813 -1 0 0 I I #
point $-1 -77.275307473982963 51.874708496985349 -2.1089240042186308 #
straight-curve $-1 -77.275307473982963 0 -2.1089240042186308 0 1 0 I I #
coedge $-1 $195 $194 $286 $287 forward $196 $-1 #
edge $-1 $197 -7.3108647564985745 $288 7.3108647564985745 $195 $289 forward 7 unknown #
point $-1 -77.275307473982963 -51.874708496985349 -2.1089240042186308 #
coedge $-1 $246 $286 $199 $260 reversed $184 $-1 #
edge $-1 $252 -51.874708496985349 $261 51.874708496985349 $259 $290 forward 7 unknown #
vertex $-1 $260 $291 #
straight-curve $-1 -84.586172230481537 -51.874708496985349 3.915599326626813 1 0 0 I I #
coedge $-1 $214 $213 $206 $264 forward $203 $-1 #
edge $-1 $265 91.440450092889378 $268 105.56682324862783 $263 $292 forward 7 unknown #
vertex $-1 $218 $293 #
straight-curve $-1 46.260906793258698 29.163546761437743 21.027882569059059 1 0 0 I I #
edge $-1 $268 9.5302149955262792 $215 29.736448536296649 $214 $294 forward 7 unknown #
vertex $-1 $267 $295 #
straight-curve $-1 -24.119017425037953 29.163546761437743 123.54234042487596 -0.65605901945558964 0 0.75470958851134928 I I #
point $-1 64.995438949590735 29.163546761437743 21.027882569059059 #
point $-1 77.275307473982963 49.369780302208113 6.9015094133206105 #
straight-curve $-1 77.275307473982963 0 21.027882569059059 0 1 0 I I #
vertex $-1 $221 $296 #
point $-1 66.843057969222372 34.93675634451499 7.5834174139153427 #
vertex $-1 $225 $297 #
point $-1 66.843057969222372 43.596570719130867 7.5834174139153427 #
straight-curve $-1 -77.275307473982963 51.874708496985349 0 0 0 -1 I I #
point $-1 -77.275307473982963 -51.874708496985349 -21.027882569059059 #
straight-curve $-1 -77.275307473982963 0 -21.027882569059059 0 1 0 I I #
point $-1 -77.275307473982963 51.874708496985349 -21.027882569059059 #
coedge $-1 $286 $246 $249 $283 reversed $184 $-1 #
straight-curve $-1 -91.897036986980112 51.874708496985349 0.90333766120409109 0 0 -1 I I #
edge $-1 $288 -51.874708496985349 $250 51.874708496985349 $281 $298 forward 7 unknown #
point $-1 -91.897036986980112 51.874708496985349 -2.1089240042186308 #
point $-1 -91.897036986980112 51.874708496985349 3.915599326626813 #
coedge $-1 $259 $281 $256 $287 reversed $184 $-1 #
edge $-1 $261 -3.0122616654227219 $288 3.0122616654227219 $286 $299 forward 7 unknown #
vertex $-1 $283 $300 #
straight-curve $-1 -84.586172230481537 -51.874708496985349 -2.1089240042186308 -1 0 0 I I #
straight-curve $-1 -91.897036986980112 0 3.915599326626813 0 -1 0 I I #
point $-1 -91.897036986980112 -51.874708496985349 3.915599326626813 #
straight-curve $-1 77.275307473982963 29.163546761437743 112.46833266194844 0 0 -1 I I #
point $-1 77.275307473982963 29.163546761437743 21.027882569059059 #
straight-curve $-1 77.275307473982963 19.633331765911464 6.9015094133206176 0 1 0 I I #
point $-1 77.275307473982963 29.163546761437743 6.9015094133206105 #
point $-1 64.021520753288499 34.93675634451499 7.7807185520268618 #
point $-1 64.021520753288499 43.596570719130867 7.7807185520268618 #
straight-curve $-1 -91.897036986980112 0 -2.1089240042186308 0 1 0 I I #
straight-curve $-1 -91.897036986980112 -51.874708496985349 0.90333766120409109 0 0 -1 I I #
point $-1 -91.897036986980112 -51.874708496985349 -2.1089240042186308 #
End-of-ACIS-data 