500 0 8 0           
7 Unknown 11 ACIS 5.0 NT 24 Thu Mar 25 23:18:43 1999 
-1 9.9999999999999995e-007 1e-010 
body $-1 $8 $-1 $9 #
body $-1 $10 $-1 $11 #
body $-1 $12 $-1 $13 #
body $-1 $14 $-1 $15 #
body $-1 $16 $-1 $17 #
body $-1 $18 $-1 $19 #
body $-1 $20 $-1 $21 #
body $-1 $22 $-1 $23 #
lump $-1 $-1 $24 $0 #
transform $-1 1 0 0 0 1 0 0 0 1 63.578600421155429 32.619758933691045 8.2579248727913441 1 rotate no_reflect no_shear #
lump $-1 $-1 $25 $1 #
transform $-1 1 0 0 0 1 0 0 0 1 63.578600421155429 32.619758933691045 8.2579248727913441 1 rotate no_reflect no_shear #
lump $-1 $-1 $26 $2 #
transform $-1 1 0 0 0 1 0 0 0 1 63.578600421155429 32.619758933691045 8.2579248727913441 1 rotate no_reflect no_shear #
lump $-1 $-1 $27 $3 #
transform $-1 1 0 0 0 1 0 0 0 1 63.578600421155429 32.619758933691045 8.2579248727913441 1 rotate no_reflect no_shear #
lump $-1 $-1 $28 $4 #
transform $-1 1 0 0 0 1 0 0 0 1 63.578600421155429 32.619758933691045 8.2579248727913441 1 rotate no_reflect no_shear #
lump $-1 $-1 $29 $5 #
transform $-1 1 0 0 0 1 0 0 0 1 63.578600421155429 32.619758933691045 8.2579248727913441 1 rotate no_reflect no_shear #
lump $-1 $-1 $30 $6 #
transform $-1 1 0 0 0 1 0 0 0 1 63.578600421155429 32.619758933691045 8.2579248727913441 1 rotate no_reflect no_shear #
lump $-1 $-1 $31 $7 #
transform $-1 1 0 0 0 1 0 0 0 1 63.578600421155429 32.619758933691045 8.2579248727913441 1 rotate no_reflect no_shear #
shell $-1 $-1 $-1 $32 $-1 $8 #
shell $-1 $-1 $-1 $33 $-1 $10 #
shell $-1 $-1 $-1 $34 $-1 $12 #
shell $-1 $-1 $-1 $35 $-1 $14 #
shell $-1 $-1 $-1 $36 $-1 $16 #
shell $-1 $-1 $-1 $37 $-1 $18 #
shell $-1 $-1 $-1 $38 $-1 $20 #
shell $-1 $-1 $-1 $39 $-1 $22 #
face $-1 $40 $41 $24 $-1 $42 forward single #
face $-1 $43 $44 $25 $-1 $45 forward single #
face $-1 $46 $47 $26 $-1 $48 reversed single #
face $-1 $49 $50 $27 $-1 $51 forward single #
face $-1 $52 $53 $28 $-1 $54 forward single #
face $-1 $55 $56 $29 $-1 $57 reversed single #
face $-1 $58 $59 $30 $-1 $60 forward single #
face $-1 $61 $62 $31 $-1 $63 forward single #
face $-1 $64 $65 $24 $-1 $66 reversed single #
loop $-1 $-1 $67 $32 #
plane-surface $-1 0 0 8.2579248727913441 0 0 1 1 0 0 forward_v I I I I #
face $-1 $68 $69 $25 $-1 $70 forward single #
loop $-1 $-1 $71 $33 #
plane-surface $-1 0 -32.619758933691045 0 0 1 0 0 0 1 forward_v I I I I #
face $-1 $72 $73 $26 $-1 $74 reversed single #
loop $-1 $-1 $75 $34 #
plane-surface $-1 -156.57549099561601 18.0537228690429 90.747204295730967 0 1 0 -0.73135370988377701 0 0.68199835119979291 forward_v I I I I #
face $-1 $76 $77 $27 $-1 $78 forward single #
loop $-1 $79 $80 $35 #
cone-surface $-1 -60.311458234487667 22.215447458942371 4.9353241749303756 0.73135370988377701 0 -0.68199835119979291 0.68199835119979291 0 0.73135370988377701 1 I I 0 1 1 forward I I I I #
face $-1 $81 $82 $28 $-1 $83 forward single #
loop $-1 $84 $85 $36 #
cone-surface $-1 -60.311458234487667 28.458034343791574 4.9353241749303756 0.73135370988377701 0 -0.68199835119979291 0.68199835119979291 0 0.73135370988377701 1 I I 0 1 1 forward I I I I #
face $-1 $86 $87 $29 $-1 $88 reversed single #
loop $-1 $-1 $89 $37 #
plane-surface $-1 69.854489677979089 18.0537228690429 183.74409487019156 0 1 0 0.73135370988377701 0 0.68199835119979291 forward_v I I I I #
face $-1 $90 $91 $30 $-1 $92 forward single #
loop $-1 $93 $94 $38 #
cone-surface $-1 60.311458234487674 22.215447458942371 4.9353241749303773 -0.73135370988377701 0 -0.68199835119979291 0.68199835119979291 0 -0.73135370988377701 1 I I 0 1 1 forward I I I I #
face $-1 $95 $96 $31 $-1 $97 forward single #
loop $-1 $98 $99 $39 #
cone-surface $-1 60.311458234487674 28.458034343791574 4.9353241749303773 -0.73135370988377701 0 -0.68199835119979291 0.68199835119979291 0 -0.73135370988377701 1 I I 0 1 1 forward I I I I #
face $-1 $100 $101 $24 $-1 $102 reversed single #
loop $-1 $-1 $103 $40 #
plane-surface $-1 0 0 -8.2579248727913441 0 0 1 1 0 0 forward_v I I I I #
coedge $-1 $104 $105 $106 $107 forward $41 $-1 #
face $-1 $108 $109 $25 $-1 $110 reversed single #
loop $-1 $-1 $111 $43 #
plane-surface $-1 0 0 8.2579248727913441 0 0 1 1 0 0 forward_v I I I I #
coedge $-1 $112 $113 $114 $115 forward $44 $-1 #
face $-1 $116 $117 $26 $-1 $118 forward single #
loop $-1 $-1 $119 $46 #
plane-surface $-1 -63.578600421155429 25.336740901366973 4.026202978094048 -0.73135370988377701 0 0.68199835119979291 0.68199835119979291 0 0.73135370988377701 forward_v I I I I #
coedge $-1 $120 $121 $122 $123 reversed $47 $-1 #
face $-1 $-1 $124 $27 $-1 $125 forward single #
loop $-1 $126 $127 $49 #
cone-surface $-1 -58.651711398513136 22.215447458942371 3.3875852488181586 0.73135370988377701 0 -0.68199835119979291 0.34099917559989645 0 0.36567685494188851 1 I I -0.70710678118654746 0.70710678118654746 0.5 forward I I I I #
loop $-1 $-1 $128 $35 #
coedge $-1 $80 $80 $129 $130 reversed $50 $-1 #
face $-1 $-1 $131 $28 $-1 $132 forward single #
loop $-1 $133 $134 $52 #
cone-surface $-1 -58.651711398513136 28.458034343791574 3.3875852488181586 0.73135370988377701 0 -0.68199835119979291 0.34099917559989645 0 0.36567685494188851 1 I I -0.70710678118654746 0.70710678118654746 0.5 forward I I I I #
loop $-1 $-1 $135 $36 #
coedge $-1 $85 $85 $136 $137 reversed $53 $-1 #
face $-1 $138 $139 $29 $-1 $140 reversed single #
loop $-1 $-1 $141 $55 #
plane-surface $-1 -23.14240089648149 25.336740901366973 97.023093552554641 0.73135370988377701 0 0.68199835119979291 0.68199835119979291 0 -0.73135370988377701 forward_v I I I I #
coedge $-1 $142 $143 $144 $145 reversed $56 $-1 #
face $-1 $-1 $146 $30 $-1 $147 forward single #
loop $-1 $148 $149 $58 #
cone-surface $-1 58.651711398513143 22.215447458942371 3.3875852488181604 -0.73135370988377701 0 -0.68199835119979291 0.34099917559989645 0 -0.36567685494188851 1 I I -0.70710678118654746 0.70710678118654746 0.5 forward I I I I #
loop $-1 $-1 $150 $38 #
coedge $-1 $94 $94 $151 $152 reversed $59 $-1 #
face $-1 $-1 $153 $31 $-1 $154 forward single #
loop $-1 $155 $156 $61 #
cone-surface $-1 58.651711398513143 28.458034343791574 3.3875852488181604 -0.73135370988377701 0 -0.68199835119979291 0.34099917559989645 0 -0.36567685494188851 1 I I -0.70710678118654746 0.70710678118654746 0.5 forward I I I I #
loop $-1 $-1 $157 $39 #
coedge $-1 $99 $99 $158 $159 reversed $62 $-1 #
face $-1 $160 $161 $24 $-1 $162 reversed single #
loop $-1 $-1 $163 $64 #
plane-surface $-1 0 -32.619758933691045 0 0 1 0 0 0 1 forward_v I I I I #
coedge $-1 $164 $165 $166 $167 forward $65 $-1 #
coedge $-1 $168 $67 $169 $170 forward $41 $-1 #
coedge $-1 $67 $168 $171 $172 forward $41 $-1 #
coedge $-1 $173 $174 $67 $107 reversed $175 $-1 #
edge $-1 $176 -32.619758933691045 $177 32.619758933691045 $106 $178 forward 7 unknown #
face $-1 $179 $180 $25 $-1 $181 reversed single #
loop $-1 $-1 $182 $68 #
plane-surface $-1 -63.578600421155429 0 0 1 0 0 0 0 -1 forward_v I I I I #
coedge $-1 $183 $184 $185 $186 forward $69 $-1 #
coedge $-1 $185 $71 $182 $187 reversed $44 $-1 #
coedge $-1 $71 $185 $188 $189 reversed $44 $-1 #
coedge $-1 $190 $191 $71 $115 reversed $180 $-1 #
edge $-1 $192 -63.578600421155429 $193 63.578600421155429 $114 $194 forward 7 unknown #
face $-1 $195 $196 $26 $-1 $197 reversed single #
loop $-1 $-1 $122 $72 #
plane-surface $-1 0 0 8.2579248727913441 0 0 1 1 0 0 forward_v I I I I #
coedge $-1 $198 $199 $200 $201 reversed $73 $-1 #
coedge $-1 $121 $75 $202 $203 reversed $47 $-1 #
coedge $-1 $75 $120 $198 $204 reversed $47 $-1 #
coedge $-1 $200 $205 $75 $123 forward $117 $-1 #
edge $-1 $206 14.709145076652575 $207 18.655289487922808 $122 $208 forward 7 unknown #
loop $-1 $-1 $129 $76 #
plane-surface $-1 -63.578600421155429 25.336740901366973 4.026202978094048 -0.73135370988377701 0 0.68199835119979291 0.68199835119979291 0 0.73135370988377701 forward_v I I I I #
loop $-1 $-1 $209 $49 #
coedge $-1 $127 $127 $128 $210 reversed $77 $-1 #
coedge $-1 $128 $128 $127 $210 forward $79 $-1 #
coedge $-1 $129 $129 $80 $130 forward $124 $-1 #
edge $-1 $211 0 $211 6.2831853071796004 $129 $212 forward 7 unknown #
loop $-1 $-1 $136 $81 #
plane-surface $-1 -63.578600421155429 25.336740901366973 4.026202978094048 -0.73135370988377701 0 0.68199835119979291 0.68199835119979291 0 0.73135370988377701 forward_v I I I I #
loop $-1 $-1 $213 $52 #
coedge $-1 $134 $134 $135 $214 reversed $82 $-1 #
coedge $-1 $135 $135 $134 $214 forward $84 $-1 #
coedge $-1 $136 $136 $85 $137 forward $131 $-1 #
edge $-1 $215 0 $215 6.2831853071796004 $136 $216 forward 7 unknown #
face $-1 $217 $218 $29 $-1 $219 forward single #
loop $-1 $-1 $144 $86 #
plane-surface $-1 63.578600421155429 0 0 -1 0 0 0 0 1 forward_v I I I I #
coedge $-1 $220 $221 $222 $223 reversed $87 $-1 #
coedge $-1 $143 $89 $224 $225 reversed $56 $-1 #
coedge $-1 $89 $142 $220 $226 reversed $56 $-1 #
coedge $-1 $222 $227 $89 $145 forward $139 $-1 #
edge $-1 $228 83.614122562304431 $229 87.845844457001718 $144 $230 forward 7 unknown #
loop $-1 $-1 $151 $90 #
plane-surface $-1 -23.14240089648149 25.336740901366973 97.023093552554641 0.73135370988377701 0 0.68199835119979291 0.68199835119979291 0 -0.73135370988377701 forward_v I I I I #
loop $-1 $-1 $231 $58 #
coedge $-1 $149 $149 $150 $232 reversed $91 $-1 #
coedge $-1 $150 $150 $149 $232 forward $93 $-1 #
coedge $-1 $151 $151 $94 $152 forward $146 $-1 #
edge $-1 $233 0 $233 6.2831853071796004 $151 $234 forward 7 unknown #
loop $-1 $-1 $158 $95 #
plane-surface $-1 -23.14240089648149 25.336740901366973 97.023093552554641 0.73135370988377701 0 0.68199835119979291 0.68199835119979291 0 -0.73135370988377701 forward_v I I I I #
loop $-1 $-1 $235 $61 #
coedge $-1 $156 $156 $157 $236 reversed $96 $-1 #
coedge $-1 $157 $157 $156 $236 forward $98 $-1 #
coedge $-1 $158 $158 $99 $159 forward $153 $-1 #
edge $-1 $237 0 $237 6.2831853071796004 $158 $238 forward 7 unknown #
face $-1 $239 $240 $24 $-1 $241 reversed single #
loop $-1 $-1 $242 $100 #
plane-surface $-1 -63.578600421155429 0 0 1 0 0 0 0 -1 forward_v I I I I #
coedge $-1 $243 $171 $244 $245 forward $101 $-1 #
coedge $-1 $246 $103 $243 $247 forward $65 $-1 #
coedge $-1 $103 $246 $248 $249 forward $65 $-1 #
coedge $-1 $174 $173 $103 $167 reversed $175 $-1 #
edge $-1 $250 -32.619758933691045 $251 32.619758933691045 $166 $252 forward 7 unknown #
coedge $-1 $105 $104 $253 $254 forward $41 $-1 #
coedge $-1 $255 $256 $104 $170 reversed $240 $-1 #
edge $-1 $177 -63.578600421155429 $257 63.578600421155429 $169 $258 forward 7 unknown #
coedge $-1 $163 $259 $105 $172 reversed $101 $-1 #
edge $-1 $260 -63.578600421155429 $176 63.578600421155429 $171 $261 forward 7 unknown #
coedge $-1 $166 $106 $259 $262 forward $175 $-1 #
coedge $-1 $106 $166 $255 $263 reversed $175 $-1 #
loop $-1 $-1 $173 $239 #
vertex $-1 $107 $264 #
vertex $-1 $107 $265 #
straight-curve $-1 63.578600421155429 0 8.2579248727913441 0 1 0 I I #
face $-1 $266 $267 $25 $-1 $268 reversed single #
loop $-1 $-1 $190 $108 #
plane-surface $-1 0 -37.79645488154334 5.2468455919558554 0 0 1 1 0 0 forward_v I I I I #
coedge $-1 $269 $270 $112 $187 forward $109 $-1 #
coedge $-1 $271 $111 $270 $272 forward $69 $-1 #
coedge $-1 $111 $271 $273 $274 forward $69 $-1 #
coedge $-1 $113 $112 $111 $186 reversed $44 $-1 #
edge $-1 $275 -63.578600421155429 $276 63.578600421155429 $111 $277 forward 7 unknown #
edge $-1 $276 -8.2579248727913441 $193 -5.2468455919558554 $182 $278 forward 7 unknown #
coedge $-1 $273 $279 $113 $189 forward $280 $-1 #
edge $-1 $192 5.2468455919558554 $275 8.2579248727913441 $188 $281 forward 7 unknown #
coedge $-1 $282 $114 $279 $283 forward $180 $-1 #
coedge $-1 $114 $282 $269 $284 forward $180 $-1 #
vertex $-1 $189 $285 #
vertex $-1 $187 $286 #
straight-curve $-1 0 -32.619758933691045 5.2468455919558554 -1 0 0 I I #
face $-1 $-1 $287 $26 $-1 $288 reversed single #
loop $-1 $-1 $289 $116 #
plane-surface $-1 0 32.619758933691045 0 0 -1 0 0 0 -1 forward_v I I I I #
coedge $-1 $290 $119 $121 $204 forward $73 $-1 #
coedge $-1 $119 $290 $289 $291 reversed $73 $-1 #
coedge $-1 $292 $122 $119 $201 forward $117 $-1 #
edge $-1 $207 5.3853524183594139 $293 19.951388483007559 $200 $294 forward 7 unknown #
coedge $-1 $295 $296 $120 $203 forward $287 $-1 #
edge $-1 $297 -41.347399169771435 $206 -37.115677275074141 $202 $298 forward 7 unknown #
edge $-1 $207 -5.7861494889658491 $297 0 $121 $299 forward 7 unknown #
coedge $-1 $122 $292 $295 $300 forward $117 $-1 #
vertex $-1 $203 $301 #
vertex $-1 $123 $302 #
straight-curve $-1 -78.287745497808004 18.0537228690429 8.2579248727913424 1 0 0 I I #
coedge $-1 $209 $209 $-1 $303 reversed $126 $-1 #
edge $-1 $304 0 $304 6.2831853071796004 $127 $305 forward 7 unknown #
vertex $-1 $130 $306 #
ellipse-curve $-1 -61.605528215520309 22.215447458942371 6.142063925442697 -0.73135370988377701 0 0.68199835119979291 0.68199835119979291 0 0.73135370988377701 1 I I #
coedge $-1 $213 $213 $-1 $307 reversed $133 $-1 #
edge $-1 $308 0 $308 6.2831853071796004 $134 $309 forward 7 unknown #
vertex $-1 $137 $310 #
ellipse-curve $-1 -61.605528215520309 28.458034343791574 6.142063925442697 -0.73135370988377701 0 0.68199835119979291 0.68199835119979291 0 0.73135370988377701 1 I I #
face $-1 $-1 $311 $29 $-1 $312 reversed single #
loop $-1 $-1 $224 $138 #
plane-surface $-1 0 0 8.2579248727913441 0 0 1 1 0 0 forward_v I I I I #
coedge $-1 $313 $141 $143 $226 forward $87 $-1 #
coedge $-1 $141 $313 $314 $315 reversed $87 $-1 #
coedge $-1 $316 $144 $141 $223 forward $139 $-1 #
edge $-1 $229 5.3853524183594139 $317 19.951388483007559 $222 $318 forward 7 unknown #
coedge $-1 $319 $320 $142 $225 forward $218 $-1 #
edge $-1 $321 24.705211170895659 $228 28.651355582165884 $224 $322 forward 7 unknown #
edge $-1 $229 -127.15720084231084 $321 -121.371051353345 $143 $323 forward 7 unknown #
coedge $-1 $144 $316 $319 $324 reversed $139 $-1 #
vertex $-1 $324 $325 #
vertex $-1 $145 $326 #
straight-curve $-1 63.578600421155429 18.0537228690429 91.87204743509578 0 0 -1 I I #
coedge $-1 $231 $231 $-1 $327 reversed $148 $-1 #
edge $-1 $328 0 $328 6.2831853071796004 $149 $329 forward 7 unknown #
vertex $-1 $152 $330 #
ellipse-curve $-1 61.605528215520323 22.215447458942371 6.1420639254427023 0.73135370988377701 0 0.68199835119979291 0.68199835119979291 0 -0.73135370988377701 1 I I #
coedge $-1 $235 $235 $-1 $331 reversed $155 $-1 #
edge $-1 $332 0 $332 6.2831853071796004 $156 $333 forward 7 unknown #
vertex $-1 $159 $334 #
ellipse-curve $-1 61.605528215520323 28.458034343791574 6.1420639254427023 0.73135370988377701 0 0.68199835119979291 0.68199835119979291 0 -0.73135370988377701 1 I I #
face $-1 $-1 $175 $24 $-1 $335 reversed single #
loop $-1 $-1 $255 $160 #
plane-surface $-1 0 32.619758933691045 0 0 -1 0 0 0 -1 forward_v I I I I #
coedge $-1 $336 $253 $256 $337 forward $161 $-1 #
coedge $-1 $259 $163 $164 $247 reversed $101 $-1 #
coedge $-1 $253 $336 $163 $245 reversed $161 $-1 #
edge $-1 $260 -8.2579248727913441 $338 8.2579248727913441 $244 $339 forward 7 unknown #
coedge $-1 $165 $164 $336 $340 forward $65 $-1 #
edge $-1 $251 -63.578600421155429 $338 63.578600421155429 $243 $341 forward 7 unknown #
coedge $-1 $256 $255 $165 $249 reversed $240 $-1 #
edge $-1 $342 -63.578600421155429 $250 63.578600421155429 $248 $343 forward 7 unknown #
vertex $-1 $167 $344 #
vertex $-1 $262 $345 #
straight-curve $-1 63.578600421155429 0 -8.2579248727913441 0 -1 0 I I #
coedge $-1 $242 $244 $168 $254 reversed $161 $-1 #
edge $-1 $257 -32.619758933691045 $260 32.619758933691045 $253 $346 forward 7 unknown #
coedge $-1 $248 $169 $174 $263 forward $240 $-1 #
coedge $-1 $169 $248 $242 $337 reversed $240 $-1 #
vertex $-1 $170 $347 #
straight-curve $-1 0 32.619758933691045 8.2579248727913441 -1 0 0 I I #
coedge $-1 $171 $243 $173 $262 reversed $101 $-1 #
vertex $-1 $254 $348 #
straight-curve $-1 0 -32.619758933691045 8.2579248727913441 1 0 0 I I #
edge $-1 $176 -8.2579248727913441 $251 8.2579248727913441 $173 $349 forward 7 unknown #
edge $-1 $177 -8.2579248727913441 $250 8.2579248727913441 $174 $350 forward 7 unknown #
point $-1 63.578600421155429 -32.619758933691045 8.2579248727913441 #
point $-1 63.578600421155429 32.619758933691045 8.2579248727913441 #
face $-1 $-1 $280 $25 $-1 $351 reversed single #
loop $-1 $-1 $352 $179 #
plane-surface $-1 0 -42.973150829395635 6.7523852323735998 0 1 0 0 0 1 forward_v I I I I #
coedge $-1 $353 $182 $191 $284 reversed $109 $-1 #
coedge $-1 $182 $353 $183 $272 reversed $109 $-1 #
coedge $-1 $184 $183 $354 $355 forward $69 $-1 #
edge $-1 $276 32.619758933691045 $356 42.973150829395635 $270 $357 forward 7 unknown #
coedge $-1 $358 $188 $184 $274 reversed $280 $-1 #
edge $-1 $359 -42.973150829395635 $275 -32.619758933691045 $273 $360 forward 7 unknown #
vertex $-1 $189 $361 #
vertex $-1 $272 $362 #
straight-curve $-1 0 -32.619758933691045 8.2579248727913441 -1 0 0 I I #
straight-curve $-1 -63.578600421155429 -32.619758933691045 0 0 0 -1 I I #
coedge $-1 $188 $358 $190 $283 reversed $280 $-1 #
loop $-1 $-1 $188 $266 #
straight-curve $-1 63.578600421155429 -32.619758933691045 0 0 0 1 I I #
coedge $-1 $191 $190 $363 $364 forward $180 $-1 #
edge $-1 $192 -5.1766959478522949 $365 5.1766959478522949 $279 $366 forward 7 unknown #
edge $-1 $367 -5.1766959478522949 $193 5.1766959478522949 $269 $368 forward 7 unknown #
point $-1 63.578600421155429 -32.619758933691045 5.2468455919558554 #
point $-1 -63.578600421155429 -32.619758933691045 5.2468455919558554 #
loop $-1 $-1 $202 $195 #
plane-surface $-1 -63.578600421155429 0 0 1 0 0 0 0 -1 forward_v I I I I #
coedge $-1 $369 $370 $199 $291 forward $196 $-1 #
coedge $-1 $199 $198 $296 $371 reversed $73 $-1 #
edge $-1 $293 14.421811598056287 $372 20.207961087022134 $289 $373 forward 7 unknown #
coedge $-1 $205 $200 $370 $374 forward $117 $-1 #
vertex $-1 $374 $375 #
straight-curve $-1 -59.632456009885196 12.668370450683486 8.2579248727913424 0 1 0 I I #
coedge $-1 $376 $202 $205 $300 reversed $287 $-1 #
coedge $-1 $202 $376 $290 $371 forward $287 $-1 #
vertex $-1 $203 $377 #
straight-curve $-1 -63.578600421155429 18.0537228690429 45.373602147865483 0 0 1 I I #
straight-curve $-1 -63.578600421155429 18.0537228690429 4.026202978094048 -0.68199835119979291 0 -0.73135370988377701 I I #
edge $-1 $378 -32.619758933691045 $206 -18.0537228690429 $295 $379 forward 7 unknown #
point $-1 -63.578600421155429 18.0537228690429 8.2579248727913441 #
point $-1 -59.632456009885196 18.0537228690429 8.2579248727913441 #
edge $-1 $380 1 $380 0 $209 $-1 forward 7 unknown #
vertex $-1 $210 $381 #
ellipse-curve $-1 -59.017388253455024 22.215447458942371 3.728584424418055 -0.73135370988377701 0 0.68199835119979291 0.68199835119979291 0 0.73135370988377701 1 I I #
point $-1 -60.923529864320514 22.215447458942371 6.873417635326474 #
edge $-1 $382 1 $382 0 $213 $-1 forward 7 unknown #
vertex $-1 $214 $383 #
ellipse-curve $-1 -59.017388253455024 28.458034343791574 3.728584424418055 -0.73135370988377701 0 0.68199835119979291 0.68199835119979291 0 0.73135370988377701 1 I I #
point $-1 -60.923529864320514 28.458034343791574 6.873417635326474 #
loop $-1 $-1 $314 $217 #
plane-surface $-1 0 32.619758933691045 0 0 -1 0 0 0 -1 forward_v I I I I #
coedge $-1 $221 $220 $320 $384 reversed $87 $-1 #
coedge $-1 $385 $386 $221 $315 forward $311 $-1 #
edge $-1 $317 -83.786561508177527 $387 -78.000412019211709 $314 $388 forward 7 unknown #
coedge $-1 $227 $222 $386 $389 reversed $139 $-1 #
vertex $-1 $223 $390 #
straight-curve $-1 63.578600421155429 12.668370450683486 4.0262029780940694 0 1 0 I I #
coedge $-1 $391 $224 $227 $324 forward $218 $-1 #
coedge $-1 $224 $391 $313 $384 forward $218 $-1 #
vertex $-1 $225 $392 #
straight-curve $-1 34.927244838989544 18.0537228690429 8.2579248727913495 1 0 0 I I #
straight-curve $-1 -23.14240089648149 18.0537228690429 97.023093552554641 -0.68199835119979291 0 0.73135370988377701 I I #
edge $-1 $228 18.0537228690429 $393 32.619758933691045 $227 $394 forward 7 unknown #
point $-1 63.578600421155429 18.0537228690429 8.2579248727913441 #
point $-1 63.578600421155429 18.0537228690429 4.0262029780940622 #
edge $-1 $395 1 $395 0 $231 $-1 forward 7 unknown #
vertex $-1 $232 $396 #
ellipse-curve $-1 59.017388253455032 22.215447458942371 3.7285844244180568 0.73135370988377701 0 0.68199835119979291 0.68199835119979291 0 -0.73135370988377701 1 I I #
point $-1 62.287526566720111 22.215447458942371 5.4107102155589217 #
edge $-1 $397 1 $397 0 $235 $-1 forward 7 unknown #
vertex $-1 $236 $398 #
ellipse-curve $-1 59.017388253455032 28.458034343791574 3.7285844244180568 0.73135370988377701 0 0.68199835119979291 0.68199835119979291 0 -0.73135370988377701 1 I I #
point $-1 62.287526566720111 28.458034343791574 5.4107102155589217 #
plane-surface $-1 63.578600421155429 0 0 -1 0 0 0 0 1 forward_v I I I I #
coedge $-1 $244 $242 $246 $340 reversed $161 $-1 #
edge $-1 $257 -8.2579248727913441 $342 8.2579248727913441 $256 $399 forward 7 unknown #
vertex $-1 $340 $400 #
straight-curve $-1 -63.578600421155429 -32.619758933691045 0 0 0 -1 I I #
edge $-1 $338 -32.619758933691045 $342 32.619758933691045 $336 $401 forward 7 unknown #
straight-curve $-1 0 -32.619758933691045 -8.2579248727913441 -1 0 0 I I #
vertex $-1 $249 $402 #
straight-curve $-1 0 32.619758933691045 -8.2579248727913441 1 0 0 I I #
point $-1 63.578600421155429 32.619758933691045 -8.2579248727913441 #
point $-1 63.578600421155429 -32.619758933691045 -8.2579248727913441 #
straight-curve $-1 -63.578600421155429 0 8.2579248727913441 0 -1 0 I I #
point $-1 -63.578600421155429 32.619758933691045 8.2579248727913441 #
point $-1 -63.578600421155429 -32.619758933691045 8.2579248727913441 #
straight-curve $-1 63.578600421155429 -32.619758933691045 0 0 0 -1 I I #
straight-curve $-1 63.578600421155429 32.619758933691045 0 0 0 -1 I I #
plane-surface $-1 63.578600421155429 0 0 -1 0 0 0 0 1 forward_v I I I I #
coedge $-1 $363 $354 $353 $403 forward $267 $-1 #
coedge $-1 $270 $269 $352 $403 reversed $109 $-1 #
coedge $-1 $352 $404 $271 $355 reversed $267 $-1 #
edge $-1 $356 -63.578600421155429 $359 63.578600421155429 $354 $405 forward 7 unknown #
vertex $-1 $272 $406 #
straight-curve $-1 -63.578600421155429 0 8.2579248727913441 0 -1 0 I I #
coedge $-1 $279 $273 $404 $407 forward $280 $-1 #
vertex $-1 $274 $408 #
straight-curve $-1 63.578600421155429 0 8.2579248727913441 0 1 0 I I #
point $-1 63.578600421155429 -32.619758933691045 8.2579248727913441 #
point $-1 -63.578600421155429 -32.619758933691045 8.2579248727913441 #
coedge $-1 $404 $352 $282 $364 reversed $267 $-1 #
edge $-1 $365 -63.578600421155429 $367 63.578600421155429 $363 $409 forward 7 unknown #
vertex $-1 $407 $410 #
straight-curve $-1 63.578600421155429 -37.79645488154334 5.2468455919558554 0 -1 0 I I #
vertex $-1 $284 $411 #
straight-curve $-1 -63.578600421155429 -37.79645488154334 5.2468455919558554 0 1 0 I I #
coedge $-1 $370 $289 $376 $412 reversed $196 $-1 #
coedge $-1 $289 $369 $292 $374 reversed $196 $-1 #
edge $-1 $372 -19.951388483007559 $297 -5.3853524183594139 $296 $413 forward 7 unknown #
vertex $-1 $291 $414 #
straight-curve $-1 -49.796804278696754 32.619758933691045 18.805370288274691 -0.68199835119979291 0 -0.73135370988377701 I I #
edge $-1 $293 59.632456009885196 $378 63.578600421155429 $370 $415 forward 7 unknown #
point $-1 -59.632456009885196 32.619758933691045 8.2579248727913441 #
coedge $-1 $296 $295 $369 $412 forward $287 $-1 #
point $-1 -63.578600421155429 18.0537228690429 4.026202978094048 #
vertex $-1 $374 $416 #
straight-curve $-1 -63.578600421155429 0 8.2579248727913441 0 -1 0 I I #
vertex $-1 $303 $417 #
point $-1 -58.33538990225523 22.215447458942371 4.4599381343018321 #
vertex $-1 $307 $418 #
point $-1 -58.33538990225523 28.458034343791574 4.4599381343018321 #
edge $-1 $387 -19.951388483007559 $321 -5.3853524183594139 $320 $419 forward 7 unknown #
coedge $-1 $386 $314 $391 $420 reversed $311 $-1 #
coedge $-1 $314 $385 $316 $389 forward $311 $-1 #
vertex $-1 $315 $421 #
straight-curve $-1 6.4363036198783021 32.619758933691045 65.303815575504984 -0.68199835119979291 0 0.73135370988377701 I I #
edge $-1 $393 -8.2579248727913441 $317 -4.0262029780940729 $316 $422 forward 7 unknown #
point $-1 63.578600421155429 32.619758933691045 4.0262029780940729 #
coedge $-1 $320 $319 $385 $420 forward $218 $-1 #
point $-1 59.632456009885203 18.0537228690429 8.2579248727913495 #
vertex $-1 $324 $423 #
straight-curve $-1 63.578600421155429 0 8.2579248727913441 0 1 0 I I #
vertex $-1 $327 $424 #
point $-1 59.699386604654826 22.215447458942371 2.9972307145342798 #
vertex $-1 $331 $425 #
point $-1 59.699386604654826 28.458034343791574 2.9972307145342798 #
straight-curve $-1 -63.578600421155429 32.619758933691045 0 0 0 -1 I I #
point $-1 -63.578600421155429 -32.619758933691045 -8.2579248727913441 #
straight-curve $-1 -63.578600421155429 0 -8.2579248727913441 0 1 0 I I #
point $-1 -63.578600421155429 32.619758933691045 -8.2579248727913441 #
edge $-1 $356 -1.5055396404177444 $367 1.5055396404177444 $353 $426 forward 7 unknown #
coedge $-1 $354 $363 $358 $407 reversed $267 $-1 #
straight-curve $-1 0 -42.973150829395635 8.2579248727913441 1 0 0 I I #
point $-1 -63.578600421155429 -42.973150829395635 8.2579248727913441 #
edge $-1 $359 -1.5055396404177444 $365 1.5055396404177444 $358 $427 forward 7 unknown #
point $-1 63.578600421155429 -42.973150829395635 8.2579248727913441 #
straight-curve $-1 0 -42.973150829395635 5.2468455919558554 -1 0 0 I I #
point $-1 63.578600421155429 -42.973150829395635 5.2468455919558554 #
point $-1 -63.578600421155429 -42.973150829395635 5.2468455919558554 #
edge $-1 $378 -8.2579248727913441 $372 -4.026202978094048 $369 $428 forward 7 unknown #
straight-curve $-1 -63.578600421155429 12.668370450683486 4.0262029780940498 0 -1 0 I I #
point $-1 -63.578600421155429 32.619758933691045 4.026202978094048 #
straight-curve $-1 0 32.619758933691045 8.2579248727913441 -1 0 0 I I #
point $-1 -63.578600421155429 32.619758933691045 8.2579248727913441 #
point $-1 -58.286034543571247 22.215447458942371 3.0465860732182621 #
point $-1 -58.286034543571247 28.458034343791574 3.0465860732182621 #
straight-curve $-1 59.63245600988521 12.668370450683486 8.2579248727913352 0 -1 0 I I #
edge $-1 $393 -63.578600421155429 $387 -59.632456009885203 $385 $429 forward 7 unknown #
point $-1 59.632456009885203 32.619758933691045 8.2579248727913495 #
straight-curve $-1 63.578600421155429 32.619758933691045 0 0 0 -1 I I #
point $-1 63.578600421155429 32.619758933691045 8.2579248727913441 #
point $-1 58.286034543571255 22.215447458942371 3.0465860732182639 #
point $-1 58.286034543571255 28.458034343791574 3.0465860732182639 #
straight-curve $-1 -63.578600421155429 -42.973150829395635 6.7523852323735998 0 0 -1 I I #
straight-curve $-1 63.578600421155429 -42.973150829395635 6.7523852323735998 0 0 -1 I I #
straight-curve $-1 -63.578600421155429 32.619758933691045 0 0 0 -1 I I #
straight-curve $-1 0 32.619758933691045 8.2579248727913441 -1 0 0 I I #
End-of-ACIS-data 