500 0 14 0           
7 Unknown 11 ACIS 5.0 NT 24 Thu Mar 25 15:43:46 1999 
-1 9.9999999999999995e-007 1e-010 
body $-1 $14 $-1 $15 #
body $-1 $16 $-1 $17 #
body $-1 $18 $-1 $19 #
body $-1 $20 $-1 $21 #
body $-1 $22 $-1 $23 #
body $-1 $24 $-1 $25 #
body $-1 $26 $-1 $27 #
body $-1 $28 $-1 $29 #
body $-1 $30 $-1 $31 #
body $-1 $32 $-1 $33 #
body $-1 $34 $-1 $35 #
body $-1 $36 $-1 $37 #
body $-1 $38 $-1 $39 #
body $-1 $40 $-1 $41 #
lump $-1 $-1 $42 $0 #
transform $-1 1 0 0 0 1 0 0 0 1 53.589281899472027 24.212241702955222 6.2633944386403897 1 rotate no_reflect no_shear #
lump $-1 $-1 $43 $1 #
transform $-1 1 0 0 0 1 0 0 0 1 53.589281899472027 24.212241702955222 6.2633944386403897 1 rotate no_reflect no_shear #
lump $-1 $-1 $44 $2 #
transform $-1 1 0 0 0 1 0 0 0 1 53.589281899472027 24.212241702955222 6.2633944386403897 1 rotate no_reflect no_shear #
lump $-1 $-1 $45 $3 #
transform $-1 1 0 0 0 1 0 0 0 1 53.589281899472027 24.212241702955222 6.2633944386403897 1 rotate no_reflect no_shear #
lump $-1 $-1 $46 $4 #
transform $-1 1 0 0 0 1 0 0 0 1 53.589281899472027 24.212241702955222 6.2633944386403897 1 rotate no_reflect no_shear #
lump $-1 $-1 $47 $5 #
transform $-1 1 0 0 0 1 0 0 0 1 53.589281899472027 24.212241702955222 6.2633944386403897 1 rotate no_reflect no_shear #
lump $-1 $-1 $48 $6 #
transform $-1 1 0 0 0 1 0 0 0 1 53.589281899472027 24.212241702955222 6.2633944386403897 1 rotate no_reflect no_shear #
lump $-1 $-1 $49 $7 #
transform $-1 1 0 0 0 1 0 0 0 1 53.589281899472027 24.212241702955222 6.2633944386403897 1 rotate no_reflect no_shear #
lump $-1 $-1 $50 $8 #
transform $-1 1 0 0 0 1 0 0 0 1 53.589281899472027 24.212241702955222 6.2633944386403897 1 rotate no_reflect no_shear #
lump $-1 $-1 $51 $9 #
transform $-1 1 0 0 0 1 0 0 0 1 53.589281899472027 24.212241702955222 6.2633944386403897 1 rotate no_reflect no_shear #
lump $-1 $-1 $52 $10 #
transform $-1 1 0 0 0 1 0 0 0 1 53.589281899472027 24.212241702955222 6.2633944386403897 1 rotate no_reflect no_shear #
lump $-1 $-1 $53 $11 #
transform $-1 1 0 0 0 1 0 0 0 1 53.589281899472027 24.212241702955222 6.2633944386403897 1 rotate no_reflect no_shear #
lump $-1 $-1 $54 $12 #
transform $-1 1 0 0 0 1 0 0 0 1 53.589281899472027 24.212241702955222 6.2633944386403897 1 rotate no_reflect no_shear #
lump $-1 $-1 $55 $13 #
transform $-1 1 0 0 0 1 0 0 0 1 53.589281899472027 24.212241702955222 6.2633944386403897 1 rotate no_reflect no_shear #
shell $-1 $-1 $-1 $56 $-1 $14 #
shell $-1 $-1 $-1 $57 $-1 $16 #
shell $-1 $-1 $-1 $58 $-1 $18 #
shell $-1 $-1 $-1 $59 $-1 $20 #
shell $-1 $-1 $-1 $60 $-1 $22 #
shell $-1 $-1 $-1 $61 $-1 $24 #
shell $-1 $-1 $-1 $62 $-1 $26 #
shell $-1 $-1 $-1 $63 $-1 $28 #
shell $-1 $-1 $-1 $64 $-1 $30 #
shell $-1 $-1 $-1 $65 $-1 $32 #
shell $-1 $-1 $-1 $66 $-1 $34 #
shell $-1 $-1 $-1 $67 $-1 $36 #
shell $-1 $-1 $-1 $68 $-1 $38 #
shell $-1 $-1 $-1 $69 $-1 $40 #
face $-1 $70 $71 $42 $-1 $72 forward single #
face $-1 $73 $74 $43 $-1 $75 reversed single #
face $-1 $76 $77 $44 $-1 $78 reversed single #
face $-1 $79 $80 $45 $-1 $81 forward single #
face $-1 $82 $83 $46 $-1 $84 forward single #
face $-1 $85 $86 $47 $-1 $87 reversed single #
face $-1 $88 $89 $48 $-1 $90 forward single #
face $-1 $91 $92 $49 $-1 $93 forward single #
face $-1 $94 $95 $50 $-1 $96 reversed single #
face $-1 $97 $98 $51 $-1 $99 forward single #
face $-1 $100 $101 $52 $-1 $102 forward single #
face $-1 $103 $104 $53 $-1 $105 reversed single #
face $-1 $106 $107 $54 $-1 $108 forward single #
face $-1 $109 $110 $55 $-1 $111 forward single #
face $-1 $112 $113 $42 $-1 $114 reversed single #
loop $-1 $-1 $115 $56 #
plane-surface $-1 0 0 6.2633944386403897 0 0 1 1 0 0 forward_v I I I I #
face $-1 $116 $117 $43 $-1 $118 reversed single #
loop $-1 $-1 $119 $57 #
plane-surface $-1 -48.92030494907165 -21.484376395643864 0 1 0 0 0 0 -1 forward_v I I I I #
face $-1 $120 $121 $44 $-1 $122 reversed single #
loop $-1 $-1 $123 $58 #
plane-surface $-1 53.589283658109991 -0.29354645659478606 154.54227369564472 0 -1 0 -0.70710678939079041 0 -0.70710677298230451 forward_v I I I I #
face $-1 $124 $125 $45 $-1 $126 forward single #
loop $-1 $127 $128 $59 #
cone-surface $-1 51.588478911435026 -5.139758115724625 4.2625914205830355 -0.70710678939079041 0 -0.70710677298230451 0.35355338649115226 0 -0.35355339469539521 1 I I 0 1 0.5 forward I I I I #
face $-1 $129 $130 $46 $-1 $131 forward single #
loop $-1 $132 $133 $60 #
cone-surface $-1 51.588478911435026 -2.2320311202467202 4.2625914205830355 -0.70710678939079041 0 -0.70710677298230451 0.35355338649115226 0 -0.35355339469539521 1 I I 0 1 0.5 forward I I I I #
face $-1 $134 $135 $47 $-1 $136 reversed single #
loop $-1 $-1 $137 $61 #
plane-surface $-1 53.589283658109991 21.190829939049074 154.54227369564472 0 -1 0 -0.70710678939079041 0 -0.70710677298230451 forward_v I I I I #
face $-1 $138 $139 $48 $-1 $140 forward single #
loop $-1 $141 $142 $62 #
cone-surface $-1 51.588478911435026 16.344618279919235 4.2625914205830355 -0.70710678939079041 0 -0.70710677298230451 0.35355338649115226 0 -0.35355339469539521 1 I I 0 1 0.5 forward I I I I #
face $-1 $143 $144 $49 $-1 $145 forward single #
loop $-1 $146 $147 $63 #
cone-surface $-1 51.588478911435026 19.252345275397143 4.2625914205830355 -0.70710678939079041 0 -0.70710677298230451 0.35355338649115226 0 -0.35355339469539521 1 I I 0 1 0.5 forward I I I I #
face $-1 $148 $149 $50 $-1 $150 reversed single #
loop $-1 $-1 $151 $64 #
plane-surface $-1 -129.37597203885935 -7.0782427793765628 78.755583556257363 0 1 0 -0.70710678939079041 0 0.70710677298230451 forward_v I I I I #
face $-1 $152 $153 $51 $-1 $154 forward single #
loop $-1 $155 $156 $65 #
cone-surface $-1 -51.588478911435026 -5.139758115724625 4.262591420583032 0.70710678939079041 0 -0.70710677298230451 0.35355338649115226 0 0.35355339469539521 1 I I 0 1 0.5 forward I I I I #
face $-1 $157 $158 $52 $-1 $159 forward single #
loop $-1 $160 $161 $66 #
cone-surface $-1 -51.588478911435026 -2.2320311202467202 4.262591420583032 0.70710678939079041 0 -0.70710677298230451 0.35355338649115226 0 0.35355339469539521 1 I I 0 1 0.5 forward I I I I #
face $-1 $162 $163 $53 $-1 $164 reversed single #
loop $-1 $-1 $165 $67 #
plane-surface $-1 -129.37597203885935 14.406133616267297 78.755583556257363 0 1 0 -0.70710678939079041 0 0.70710677298230451 forward_v I I I I #
face $-1 $166 $167 $54 $-1 $168 forward single #
loop $-1 $169 $170 $68 #
cone-surface $-1 -51.588478911435026 16.344618279919235 4.262591420583032 0.70710678939079041 0 -0.70710677298230451 0.35355338649115226 0 0.35355339469539521 1 I I 0 1 0.5 forward I I I I #
face $-1 $171 $172 $55 $-1 $173 forward single #
loop $-1 $174 $175 $69 #
cone-surface $-1 -51.588478911435026 19.252345275397143 4.262591420583032 0.70710678939079041 0 -0.70710677298230451 0.35355338649115226 0 0.35355339469539521 1 I I 0 1 0.5 forward I I I I #
face $-1 $176 $177 $42 $-1 $178 reversed single #
loop $-1 $-1 $179 $70 #
plane-surface $-1 0 0 -6.2633944386403897 0 0 1 1 0 0 forward_v I I I I #
coedge $-1 $180 $181 $182 $183 forward $71 $-1 #
face $-1 $184 $185 $43 $-1 $186 reversed single #
loop $-1 $-1 $187 $73 #
plane-surface $-1 -47.177576184261682 -18.756511088332509 0 0 -1 0 0 0 -1 forward_v I I I I #
coedge $-1 $188 $189 $190 $191 forward $74 $-1 #
face $-1 $192 $193 $44 $-1 $194 reversed single #
loop $-1 $-1 $195 $76 #
plane-surface $-1 -22.197406481277341 -3.6858946179856744 78.755585314895356 0.70710678939079041 0 0.70710677298230451 0.70710677298230451 0 -0.70710678939079041 forward_v I I I I #
coedge $-1 $196 $197 $198 $199 reversed $77 $-1 #
face $-1 $-1 $200 $45 $-1 $201 forward single #
loop $-1 $202 $203 $79 #
cone-surface $-1 51.058148819391931 -5.139758115724625 3.732261340846307 -0.70710678939079041 0 -0.70710677298230451 0.17677669324557613 0 -0.1767766973476976 1 I I -0.70710678118654746 0.70710678118654746 0.25 forward I I I I #
loop $-1 $-1 $204 $59 #
coedge $-1 $128 $128 $205 $206 reversed $80 $-1 #
face $-1 $-1 $207 $46 $-1 $208 forward single #
loop $-1 $209 $210 $82 #
cone-surface $-1 51.058148819391931 -2.2320311202467202 3.732261340846307 -0.70710678939079041 0 -0.70710677298230451 0.17677669324557613 0 -0.1767766973476976 1 I I -0.70710678118654746 0.70710678118654746 0.25 forward I I I I #
loop $-1 $-1 $211 $60 #
coedge $-1 $133 $133 $212 $213 reversed $83 $-1 #
face $-1 $214 $215 $47 $-1 $216 reversed single #
loop $-1 $-1 $217 $85 #
plane-surface $-1 -22.197406481277341 17.798481777658186 78.755585314895356 0.70710678939079041 0 0.70710677298230451 0.70710677298230451 0 -0.70710678939079041 forward_v I I I I #
coedge $-1 $218 $219 $220 $221 reversed $86 $-1 #
face $-1 $-1 $222 $48 $-1 $223 forward single #
loop $-1 $224 $225 $88 #
cone-surface $-1 51.058148819391931 16.344618279919235 3.732261340846307 -0.70710678939079041 0 -0.70710677298230451 0.17677669324557613 0 -0.1767766973476976 1 I I -0.70710678118654746 0.70710678118654746 0.25 forward I I I I #
loop $-1 $-1 $226 $62 #
coedge $-1 $142 $142 $227 $228 reversed $89 $-1 #
face $-1 $-1 $229 $49 $-1 $230 forward single #
loop $-1 $231 $232 $91 #
cone-surface $-1 51.058148819391931 19.252345275397143 3.732261340846307 -0.70710678939079041 0 -0.70710677298230451 0.17677669324557613 0 -0.1767766973476976 1 I I -0.70710678118654746 0.70710678118654746 0.25 forward I I I I #
loop $-1 $-1 $233 $63 #
coedge $-1 $147 $147 $234 $235 reversed $92 $-1 #
face $-1 $236 $237 $50 $-1 $238 reversed single #
loop $-1 $-1 $239 $94 #
plane-surface $-1 -53.589281899472013 -3.6858946179856744 2.9688951755079955 -0.70710678939079041 0 0.70710677298230451 0.70710677298230451 0 0.70710678939079041 forward_v I I I I #
coedge $-1 $240 $241 $242 $243 reversed $95 $-1 #
face $-1 $-1 $244 $51 $-1 $245 forward single #
loop $-1 $246 $247 $97 #
cone-surface $-1 -51.058148819391931 -5.139758115724625 3.7322613408463035 0.70710678939079041 0 -0.70710677298230451 0.17677669324557613 0 0.1767766973476976 1 I I -0.70710678118654746 0.70710678118654746 0.25 forward I I I I #
loop $-1 $-1 $248 $65 #
coedge $-1 $156 $156 $249 $250 reversed $98 $-1 #
face $-1 $-1 $251 $52 $-1 $252 forward single #
loop $-1 $253 $254 $100 #
cone-surface $-1 -51.058148819391931 -2.2320311202467202 3.7322613408463035 0.70710678939079041 0 -0.70710677298230451 0.17677669324557613 0 0.1767766973476976 1 I I -0.70710678118654746 0.70710678118654746 0.25 forward I I I I #
loop $-1 $-1 $255 $66 #
coedge $-1 $161 $161 $256 $257 reversed $101 $-1 #
face $-1 $258 $259 $53 $-1 $260 reversed single #
loop $-1 $-1 $261 $103 #
plane-surface $-1 -53.589281899472013 17.798481777658186 2.9688951755079955 -0.70710678939079041 0 0.70710677298230451 0.70710677298230451 0 0.70710678939079041 forward_v I I I I #
coedge $-1 $262 $263 $264 $265 reversed $104 $-1 #
face $-1 $-1 $266 $54 $-1 $267 forward single #
loop $-1 $268 $269 $106 #
cone-surface $-1 -51.058148819391931 16.344618279919235 3.7322613408463035 0.70710678939079041 0 -0.70710677298230451 0.17677669324557613 0 0.1767766973476976 1 I I -0.70710678118654746 0.70710678118654746 0.25 forward I I I I #
loop $-1 $-1 $270 $68 #
coedge $-1 $170 $170 $271 $272 reversed $107 $-1 #
face $-1 $-1 $273 $55 $-1 $274 forward single #
loop $-1 $275 $276 $109 #
cone-surface $-1 -51.058148819391931 19.252345275397143 3.7322613408463035 0.70710678939079041 0 -0.70710677298230451 0.17677669324557613 0 0.1767766973476976 1 I I -0.70710678118654746 0.70710678118654746 0.25 forward I I I I #
loop $-1 $-1 $277 $69 #
coedge $-1 $175 $175 $278 $279 reversed $110 $-1 #
face $-1 $280 $281 $42 $-1 $282 reversed single #
loop $-1 $-1 $283 $112 #
plane-surface $-1 0 -24.212241702955222 0 0 1 0 0 0 1 forward_v I I I I #
coedge $-1 $284 $285 $286 $287 forward $113 $-1 #
coedge $-1 $288 $115 $289 $290 forward $71 $-1 #
coedge $-1 $115 $288 $291 $292 forward $71 $-1 #
coedge $-1 $293 $294 $115 $183 reversed $295 $-1 #
edge $-1 $296 -24.212241702955222 $297 24.212241702955222 $182 $298 forward 7 unknown #
face $-1 $299 $300 $43 $-1 $301 forward single #
loop $-1 $-1 $302 $116 #
plane-surface $-1 -45.434847419451714 -21.484376395643864 0 -1 0 0 0 0 1 forward_v I I I I #
coedge $-1 $303 $304 $305 $306 forward $117 $-1 #
coedge $-1 $307 $119 $308 $309 reversed $74 $-1 #
coedge $-1 $119 $307 $310 $311 reversed $74 $-1 #
coedge $-1 $304 $303 $119 $191 reversed $117 $-1 #
edge $-1 $312 -6.2633944386403897 $313 6.2633944386403897 $190 $314 forward 7 unknown #
face $-1 $315 $316 $44 $-1 $317 reversed single #
loop $-1 $-1 $318 $120 #
plane-surface $-1 53.589283658109991 -7.0782427793765628 154.54227369564472 0 1 0 0.70710678939079041 0 0.70710677298230451 forward_v I I I I #
coedge $-1 $319 $320 $321 $322 reversed $121 $-1 #
coedge $-1 $197 $123 $323 $324 reversed $77 $-1 #
coedge $-1 $123 $196 $319 $325 reversed $77 $-1 #
coedge $-1 $321 $326 $123 $199 forward $327 $-1 #
edge $-1 $328 -26.794640070417032 $329 -23.500140883733877 $198 $330 forward 7 unknown #
loop $-1 $-1 $205 $124 #
plane-surface $-1 -22.197406481277341 -3.6858946179856744 78.755585314895356 0.70710678939079041 0 0.70710677298230451 0.70710677298230451 0 -0.70710678939079041 forward_v I I I I #
loop $-1 $-1 $331 $79 #
coedge $-1 $203 $203 $204 $332 reversed $125 $-1 #
coedge $-1 $204 $204 $203 $332 forward $127 $-1 #
coedge $-1 $205 $205 $128 $206 forward $200 $-1 #
edge $-1 $333 0 $333 6.2831853071796004 $205 $334 forward 7 unknown #
loop $-1 $-1 $212 $129 #
plane-surface $-1 -22.197406481277341 -3.6858946179856744 78.755585314895356 0.70710678939079041 0 0.70710677298230451 0.70710677298230451 0 -0.70710678939079041 forward_v I I I I #
loop $-1 $-1 $335 $82 #
coedge $-1 $210 $210 $211 $336 reversed $130 $-1 #
coedge $-1 $211 $211 $210 $336 forward $132 $-1 #
coedge $-1 $212 $212 $133 $213 forward $207 $-1 #
edge $-1 $337 0 $337 6.2831853071796004 $212 $338 forward 7 unknown #
face $-1 $339 $340 $47 $-1 $341 reversed single #
loop $-1 $-1 $342 $134 #
plane-surface $-1 53.589283658109991 14.406133616267297 154.54227369564472 0 1 0 0.70710678939079041 0 0.70710677298230451 forward_v I I I I #
coedge $-1 $343 $344 $345 $346 reversed $135 $-1 #
coedge $-1 $219 $137 $347 $348 reversed $86 $-1 #
coedge $-1 $137 $218 $343 $349 reversed $86 $-1 #
coedge $-1 $345 $350 $137 $221 forward $351 $-1 #
edge $-1 $352 -26.794640070417032 $353 -23.500140883733877 $220 $354 forward 7 unknown #
loop $-1 $-1 $227 $138 #
plane-surface $-1 -22.197406481277341 17.798481777658186 78.755585314895356 0.70710678939079041 0 0.70710677298230451 0.70710677298230451 0 -0.70710678939079041 forward_v I I I I #
loop $-1 $-1 $355 $88 #
coedge $-1 $225 $225 $226 $356 reversed $139 $-1 #
coedge $-1 $226 $226 $225 $356 forward $141 $-1 #
coedge $-1 $227 $227 $142 $228 forward $222 $-1 #
edge $-1 $357 0 $357 6.2831853071796004 $227 $358 forward 7 unknown #
loop $-1 $-1 $234 $143 #
plane-surface $-1 -22.197406481277341 17.798481777658186 78.755585314895356 0.70710678939079041 0 0.70710677298230451 0.70710677298230451 0 -0.70710678939079041 forward_v I I I I #
loop $-1 $-1 $359 $91 #
coedge $-1 $232 $232 $233 $360 reversed $144 $-1 #
coedge $-1 $233 $233 $232 $360 forward $146 $-1 #
coedge $-1 $234 $234 $147 $235 forward $229 $-1 #
edge $-1 $361 0 $361 6.2831853071796004 $234 $362 forward 7 unknown #
face $-1 $363 $364 $50 $-1 $365 reversed single #
loop $-1 $-1 $366 $148 #
plane-surface $-1 -129.37597203885935 -0.29354645659478606 78.755583556257363 0 -1 0 0.70710678939079041 0 -0.70710677298230451 forward_v I I I I #
coedge $-1 $367 $368 $369 $370 reversed $149 $-1 #
coedge $-1 $241 $151 $371 $372 reversed $95 $-1 #
coedge $-1 $151 $240 $367 $373 reversed $95 $-1 #
coedge $-1 $369 $374 $151 $243 forward $375 $-1 #
edge $-1 $376 11.098704119957645 $377 14.393203306640856 $242 $378 forward 7 unknown #
loop $-1 $-1 $249 $152 #
plane-surface $-1 -53.589281899472013 -3.6858946179856744 2.9688951755079955 -0.70710678939079041 0 0.70710677298230451 0.70710677298230451 0 0.70710678939079041 forward_v I I I I #
loop $-1 $-1 $379 $97 #
coedge $-1 $247 $247 $248 $380 reversed $153 $-1 #
coedge $-1 $248 $248 $247 $380 forward $155 $-1 #
coedge $-1 $249 $249 $156 $250 forward $244 $-1 #
edge $-1 $381 0 $381 6.2831853071796004 $249 $382 forward 7 unknown #
loop $-1 $-1 $256 $157 #
plane-surface $-1 -53.589281899472013 -3.6858946179856744 2.9688951755079955 -0.70710678939079041 0 0.70710677298230451 0.70710677298230451 0 0.70710678939079041 forward_v I I I I #
loop $-1 $-1 $383 $100 #
coedge $-1 $254 $254 $255 $384 reversed $158 $-1 #
coedge $-1 $255 $255 $254 $384 forward $160 $-1 #
coedge $-1 $256 $256 $161 $257 forward $251 $-1 #
edge $-1 $385 0 $385 6.2831853071796004 $256 $386 forward 7 unknown #
face $-1 $387 $388 $53 $-1 $389 forward single #
loop $-1 $-1 $390 $162 #
plane-surface $-1 -129.37597203885935 21.190829939049074 78.755583556257363 0 -1 0 0.70710678939079041 0 -0.70710677298230451 forward_v I I I I #
coedge $-1 $391 $392 $393 $394 reversed $163 $-1 #
coedge $-1 $263 $165 $395 $396 reversed $104 $-1 #
coedge $-1 $165 $262 $391 $397 reversed $104 $-1 #
coedge $-1 $393 $398 $165 $265 forward $388 $-1 #
edge $-1 $399 11.098704119957645 $400 14.393203306640856 $264 $401 forward 7 unknown #
loop $-1 $-1 $271 $166 #
plane-surface $-1 -53.589281899472013 17.798481777658186 2.9688951755079955 -0.70710678939079041 0 0.70710677298230451 0.70710677298230451 0 0.70710678939079041 forward_v I I I I #
loop $-1 $-1 $402 $106 #
coedge $-1 $269 $269 $270 $403 reversed $167 $-1 #
coedge $-1 $270 $270 $269 $403 forward $169 $-1 #
coedge $-1 $271 $271 $170 $272 forward $266 $-1 #
edge $-1 $404 0 $404 6.2831853071796004 $271 $405 forward 7 unknown #
loop $-1 $-1 $278 $171 #
plane-surface $-1 -53.589281899472013 17.798481777658186 2.9688951755079955 -0.70710678939079041 0 0.70710677298230451 0.70710677298230451 0 0.70710678939079041 forward_v I I I I #
loop $-1 $-1 $406 $109 #
coedge $-1 $276 $276 $277 $407 reversed $172 $-1 #
coedge $-1 $277 $277 $276 $407 forward $174 $-1 #
coedge $-1 $278 $278 $175 $279 forward $273 $-1 #
edge $-1 $408 0 $408 6.2831853071796004 $278 $409 forward 7 unknown #
face $-1 $410 $411 $42 $-1 $412 reversed single #
loop $-1 $-1 $413 $176 #
plane-surface $-1 -53.589281899472027 0 0 1 0 0 0 0 -1 forward_v I I I I #
coedge $-1 $414 $291 $415 $416 forward $177 $-1 #
coedge $-1 $417 $179 $414 $418 forward $113 $-1 #
coedge $-1 $179 $417 $419 $420 forward $113 $-1 #
coedge $-1 $294 $293 $179 $287 reversed $295 $-1 #
edge $-1 $421 -24.212241702955222 $422 24.212241702955222 $286 $423 forward 7 unknown #
coedge $-1 $181 $180 $424 $425 forward $71 $-1 #
coedge $-1 $426 $427 $180 $290 reversed $411 $-1 #
edge $-1 $297 -53.589281899472027 $428 53.589281899472027 $289 $429 forward 7 unknown #
coedge $-1 $283 $430 $181 $292 reversed $177 $-1 #
edge $-1 $431 -53.589281899472027 $296 53.589281899472027 $291 $432 forward 7 unknown #
coedge $-1 $286 $182 $430 $433 forward $295 $-1 #
coedge $-1 $182 $286 $426 $434 reversed $295 $-1 #
loop $-1 $-1 $293 $410 #
vertex $-1 $183 $435 #
vertex $-1 $183 $436 #
straight-curve $-1 53.589281899472027 0 6.2633944386403897 0 1 0 I I #
face $-1 $437 $438 $43 $-1 $439 reversed single #
loop $-1 $-1 $440 $184 #
plane-surface $-1 0 0 6.2633944386403897 0 0 1 1 0 0 forward_v I I I I #
coedge $-1 $441 $442 $443 $444 reversed $185 $-1 #
coedge $-1 $190 $187 $445 $446 reversed $117 $-1 #
coedge $-1 $187 $190 $447 $448 reversed $117 $-1 #
coedge $-1 $442 $441 $187 $306 reversed $185 $-1 #
edge $-1 $449 -6.2633944386403897 $450 6.2633944386403897 $305 $451 forward 7 unknown #
coedge $-1 $189 $188 $452 $453 reversed $74 $-1 #
coedge $-1 $445 $454 $188 $309 forward $438 $-1 #
edge $-1 $455 -13.470053505133286 $313 -8.0143228905105772 $308 $456 forward 7 unknown #
coedge $-1 $457 $447 $189 $311 forward $300 $-1 #
edge $-1 $312 8.0143228905105772 $458 13.470053505133286 $310 $459 forward 7 unknown #
vertex $-1 $311 $460 #
vertex $-1 $309 $461 #
straight-curve $-1 -48.92030494907165 -18.756511088332509 0 0 0 -1 I I #
face $-1 $-1 $327 $44 $-1 $462 forward single #
loop $-1 $-1 $463 $192 #
plane-surface $-1 53.589281899472027 0 0 -1 0 0 0 0 1 forward_v I I I I #
coedge $-1 $464 $465 $466 $467 reversed $193 $-1 #
coedge $-1 $468 $195 $197 $325 forward $121 $-1 #
coedge $-1 $195 $468 $464 $469 forward $121 $-1 #
coedge $-1 $466 $198 $195 $322 forward $327 $-1 #
edge $-1 $329 -1.5494008523980511 $470 5.2352954703837256 $321 $471 forward 7 unknown #
coedge $-1 $472 $473 $196 $324 forward $316 $-1 #
edge $-1 $474 -74.302241672314324 $328 -71.007742409181972 $323 $475 forward 7 unknown #
edge $-1 $329 102.51943831385186 $474 107.17856379894407 $197 $476 forward 7 unknown #
coedge $-1 $198 $466 $472 $477 forward $327 $-1 #
loop $-1 $-1 $466 $315 #
vertex $-1 $324 $478 #
vertex $-1 $199 $479 #
straight-curve $-1 26.794641829054996 -0.29354645659478606 6.2633944386403897 -1 0 0 I I #
coedge $-1 $331 $331 $-1 $480 reversed $202 $-1 #
edge $-1 $481 0 $481 6.2831853071796004 $203 $482 forward 7 unknown #
vertex $-1 $206 $483 #
ellipse-curve $-1 51.942032306130443 -5.139758115724625 4.616144807074213 0.70710678939079041 0 0.70710677298230451 0.35355338649115226 0 -0.35355339469539521 1 I I #
coedge $-1 $335 $335 $-1 $484 reversed $209 $-1 #
edge $-1 $485 0 $485 6.2831853071796004 $210 $486 forward 7 unknown #
vertex $-1 $213 $487 #
ellipse-curve $-1 51.942032306130443 -2.2320311202467202 4.616144807074213 0.70710678939079041 0 0.70710677298230451 0.35355338649115226 0 -0.35355339469539521 1 I I #
face $-1 $-1 $351 $47 $-1 $488 forward single #
loop $-1 $-1 $489 $214 #
plane-surface $-1 53.589281899472027 0 0 -1 0 0 0 0 1 forward_v I I I I #
coedge $-1 $490 $491 $492 $493 reversed $215 $-1 #
coedge $-1 $494 $217 $219 $349 forward $135 $-1 #
coedge $-1 $217 $494 $490 $495 forward $135 $-1 #
coedge $-1 $492 $220 $217 $346 forward $351 $-1 #
edge $-1 $353 -12.291589050219981 $496 -5.5068927274382045 $345 $497 forward 7 unknown #
coedge $-1 $498 $499 $218 $348 forward $340 $-1 #
edge $-1 $500 -74.302241672314324 $352 -71.007742409181972 $347 $501 forward 7 unknown #
edge $-1 $353 102.51943831385186 $500 107.17856379894407 $219 $502 forward 7 unknown #
coedge $-1 $220 $492 $498 $503 forward $351 $-1 #
loop $-1 $-1 $492 $339 #
vertex $-1 $348 $504 #
vertex $-1 $221 $505 #
straight-curve $-1 26.794641829054996 21.190829939049074 6.2633944386403897 -1 0 0 I I #
coedge $-1 $355 $355 $-1 $506 reversed $224 $-1 #
edge $-1 $507 0 $507 6.2831853071796004 $225 $508 forward 7 unknown #
vertex $-1 $228 $509 #
ellipse-curve $-1 51.942032306130443 16.344618279919235 4.616144807074213 0.70710678939079041 0 0.70710677298230451 0.35355338649115226 0 -0.35355339469539521 1 I I #
coedge $-1 $359 $359 $-1 $510 reversed $231 $-1 #
edge $-1 $511 0 $511 6.2831853071796004 $232 $512 forward 7 unknown #
vertex $-1 $235 $513 #
ellipse-curve $-1 51.942032306130443 19.252345275397143 4.616144807074213 0.70710678939079041 0 0.70710677298230451 0.35355338649115226 0 -0.35355339469539521 1 I I #
face $-1 $-1 $375 $50 $-1 $514 forward single #
loop $-1 $-1 $515 $236 #
plane-surface $-1 -53.589281899472027 0 0 1 0 0 0 0 -1 forward_v I I I I #
coedge $-1 $516 $517 $518 $519 reversed $237 $-1 #
coedge $-1 $520 $239 $241 $373 forward $149 $-1 #
coedge $-1 $239 $520 $516 $521 forward $149 $-1 #
coedge $-1 $518 $242 $239 $370 forward $375 $-1 #
edge $-1 $377 -5.2352954703837256 $522 1.5494008523980511 $369 $523 forward 7 unknown #
coedge $-1 $524 $525 $240 $372 forward $364 $-1 #
edge $-1 $526 -36.4088966026207 $376 -33.114397339488292 $371 $527 forward 7 unknown #
edge $-1 $377 -4.6591254850922557 $526 2.0097183471152325e-014 $241 $528 forward 7 unknown #
coedge $-1 $242 $518 $524 $529 forward $375 $-1 #
loop $-1 $-1 $518 $363 #
vertex $-1 $372 $530 #
vertex $-1 $243 $531 #
straight-curve $-1 -64.687986019429673 -7.0782427793765628 6.2633944386403897 1 0 0 I I #
coedge $-1 $379 $379 $-1 $532 reversed $246 $-1 #
edge $-1 $533 0 $533 6.2831853071796004 $247 $534 forward 7 unknown #
vertex $-1 $250 $535 #
ellipse-curve $-1 -51.942032306130422 -5.139758115724625 4.6161448070741846 -0.70710678939079041 0 0.70710677298230451 0.35355338649115226 0 0.35355339469539521 1 I I #
coedge $-1 $383 $383 $-1 $536 reversed $253 $-1 #
edge $-1 $537 0 $537 6.2831853071796004 $254 $538 forward 7 unknown #
vertex $-1 $257 $539 #
ellipse-curve $-1 -51.942032306130422 -2.2320311202467202 4.6161448070741846 -0.70710678939079041 0 0.70710677298230451 0.35355338649115226 0 0.35355339469539521 1 I I #
face $-1 $-1 $540 $53 $-1 $541 reversed single #
loop $-1 $-1 $264 $258 #
plane-surface $-1 0 0 6.2633944386403897 0 0 1 1 0 0 forward_v I I I I #
coedge $-1 $542 $543 $544 $545 reversed $259 $-1 #
coedge $-1 $546 $261 $263 $397 forward $163 $-1 #
coedge $-1 $261 $546 $542 $547 forward $163 $-1 #
coedge $-1 $544 $264 $261 $394 forward $388 $-1 #
edge $-1 $400 5.5068927274382045 $548 12.291589050219981 $393 $549 forward 7 unknown #
coedge $-1 $550 $551 $262 $396 forward $540 $-1 #
edge $-1 $552 -36.4088966026207 $399 -33.114397339488292 $395 $553 forward 7 unknown #
edge $-1 $400 -4.6591254850922557 $552 2.0097183471152325e-014 $263 $554 forward 7 unknown #
coedge $-1 $264 $544 $550 $555 forward $388 $-1 #
vertex $-1 $396 $556 #
vertex $-1 $265 $557 #
straight-curve $-1 -64.687986019429673 14.406133616267297 6.2633944386403897 1 0 0 I I #
coedge $-1 $402 $402 $-1 $558 reversed $268 $-1 #
edge $-1 $559 0 $559 6.2831853071796004 $269 $560 forward 7 unknown #
vertex $-1 $272 $561 #
ellipse-curve $-1 -51.942032306130422 16.344618279919235 4.6161448070741846 -0.70710678939079041 0 0.70710677298230451 0.35355338649115226 0 0.35355339469539521 1 I I #
coedge $-1 $406 $406 $-1 $562 reversed $275 $-1 #
edge $-1 $563 0 $563 6.2831853071796004 $276 $564 forward 7 unknown #
vertex $-1 $279 $565 #
ellipse-curve $-1 -51.942032306130422 19.252345275397143 4.6161448070741846 -0.70710678939079041 0 0.70710677298230451 0.35355338649115226 0 0.35355339469539521 1 I I #
face $-1 $-1 $295 $42 $-1 $566 reversed single #
loop $-1 $-1 $426 $280 #
plane-surface $-1 0 24.212241702955222 0 0 -1 0 0 0 -1 forward_v I I I I #
coedge $-1 $567 $424 $427 $568 forward $281 $-1 #
coedge $-1 $430 $283 $284 $418 reversed $177 $-1 #
coedge $-1 $424 $567 $283 $416 reversed $281 $-1 #
edge $-1 $431 -6.2633944386403897 $569 6.2633944386403897 $415 $570 forward 7 unknown #
coedge $-1 $285 $284 $567 $571 forward $113 $-1 #
edge $-1 $422 -53.589281899472027 $569 53.589281899472027 $414 $572 forward 7 unknown #
coedge $-1 $427 $426 $285 $420 reversed $411 $-1 #
edge $-1 $573 -53.589281899472027 $421 53.589281899472027 $419 $574 forward 7 unknown #
vertex $-1 $287 $575 #
vertex $-1 $433 $576 #
straight-curve $-1 53.589281899472027 0 -6.2633944386403897 0 -1 0 I I #
coedge $-1 $413 $415 $288 $425 reversed $281 $-1 #
edge $-1 $428 -24.212241702955222 $431 24.212241702955222 $424 $577 forward 7 unknown #
coedge $-1 $419 $289 $294 $434 forward $411 $-1 #
coedge $-1 $289 $419 $413 $568 reversed $411 $-1 #
vertex $-1 $290 $578 #
straight-curve $-1 0 24.212241702955222 6.2633944386403897 -1 0 0 I I #
coedge $-1 $291 $414 $293 $433 reversed $177 $-1 #
vertex $-1 $425 $579 #
straight-curve $-1 0 -24.212241702955222 6.2633944386403897 1 0 0 I I #
edge $-1 $296 -6.2633944386403897 $422 6.2633944386403897 $293 $580 forward 7 unknown #
edge $-1 $297 -6.2633944386403897 $421 6.2633944386403897 $294 $581 forward 7 unknown #
point $-1 53.589281899472027 -24.212241702955222 6.2633944386403897 #
point $-1 53.589281899472027 24.212241702955222 6.2633944386403897 #
face $-1 $-1 $582 $43 $-1 $583 reversed single #
loop $-1 $-1 $584 $299 #
plane-surface $-1 0 0 -6.2633944386403897 0 0 1 1 0 0 forward_v I I I I #
coedge $-1 $447 $457 $442 $585 forward $300 $-1 #
coedge $-1 $305 $302 $584 $586 reversed $185 $-1 #
coedge $-1 $302 $305 $440 $585 reversed $185 $-1 #
coedge $-1 $587 $588 $302 $444 forward $582 $-1 #
edge $-1 $589 -6.2633944386403897 $590 6.2633944386403897 $443 $591 forward 7 unknown #
coedge $-1 $584 $308 $303 $446 forward $438 $-1 #
edge $-1 $313 -25.331516856940809 $450 -21.846059327320873 $445 $592 forward 7 unknown #
coedge $-1 $310 $440 $304 $448 forward $300 $-1 #
edge $-1 $449 21.846059327320873 $312 25.331516856940809 $447 $593 forward 7 unknown #
vertex $-1 $448 $594 #
vertex $-1 $446 $595 #
straight-curve $-1 -45.434847419451714 -18.756511088332509 0 0 0 -1 I I #
coedge $-1 $588 $587 $307 $453 forward $582 $-1 #
edge $-1 $458 -6.2633944386403897 $455 6.2633944386403897 $452 $596 forward 7 unknown #
coedge $-1 $308 $584 $588 $597 forward $438 $-1 #
vertex $-1 $309 $598 #
straight-curve $-1 -48.92030494907165 -10.742188197821932 -6.2633944386403897 0 1 0 I I #
coedge $-1 $440 $310 $587 $599 forward $300 $-1 #
vertex $-1 $599 $600 #
straight-curve $-1 -48.92030494907165 -10.742188197821932 6.2633944386403897 0 -1 0 I I #
point $-1 -48.92030494907165 -18.756511088332509 6.2633944386403897 #
point $-1 -48.92030494907165 -18.756511088332509 -6.2633944386403897 #
plane-surface $-1 0 0 6.2633944386403897 0 0 1 1 0 0 forward_v I I I I #
coedge $-1 $473 $472 $465 $601 forward $316 $-1 #
coedge $-1 $465 $318 $320 $469 reversed $193 $-1 #
coedge $-1 $318 $464 $463 $601 reversed $193 $-1 #
coedge $-1 $326 $321 $318 $467 forward $327 $-1 #
edge $-1 $470 23.500140883733877 $602 26.794640070417032 $466 $603 forward 7 unknown #
coedge $-1 $320 $319 $473 $604 reversed $121 $-1 #
edge $-1 $605 -107.17856379894407 $470 -102.51943831385186 $464 $606 forward 7 unknown #
vertex $-1 $322 $607 #
straight-curve $-1 50.294782712788873 -1.8429473089928372 6.2633944386403826 0 -1 0 I I #
coedge $-1 $463 $323 $326 $477 reversed $316 $-1 #
coedge $-1 $323 $463 $468 $604 forward $316 $-1 #
vertex $-1 $324 $608 #
straight-curve $-1 53.589281899472027 -0.29354645659478606 77.271136847822362 0 0 1 I I #
straight-curve $-1 -22.197406481277341 -0.29354645659478606 78.755585314895356 0.70710677298230451 0 -0.70710678939079041 I I #
edge $-1 $602 -7.0782427793765628 $328 -0.29354645659478606 $472 $609 forward 7 unknown #
point $-1 53.589281899472027 -0.29354645659478606 6.2633944386403897 #
point $-1 50.294782712788873 -0.29354645659478606 6.2633944386403897 #
edge $-1 $610 1 $610 0 $331 $-1 forward 7 unknown #
vertex $-1 $332 $611 #
ellipse-curve $-1 51.234925516739629 -5.139758115724625 3.9090380340918833 0.70710678939079041 0 0.70710677298230451 0.35355338649115226 0 -0.35355339469539521 1 I I #
point $-1 52.295585692621572 -5.139758115724625 4.2625914123787929 #
edge $-1 $612 1 $612 0 $335 $-1 forward 7 unknown #
vertex $-1 $336 $613 #
ellipse-curve $-1 51.234925516739629 -2.2320311202467202 3.9090380340918833 0.70710678939079041 0 0.70710677298230451 0.35355338649115226 0 -0.35355339469539521 1 I I #
point $-1 52.295585692621572 -2.2320311202467202 4.2625914123787929 #
plane-surface $-1 0 0 6.2633944386403897 0 0 1 1 0 0 forward_v I I I I #
coedge $-1 $499 $498 $491 $614 forward $340 $-1 #
coedge $-1 $491 $342 $344 $495 reversed $215 $-1 #
coedge $-1 $342 $490 $489 $614 reversed $215 $-1 #
coedge $-1 $350 $345 $342 $493 forward $351 $-1 #
edge $-1 $496 23.500140883733877 $615 26.794640070417032 $492 $616 forward 7 unknown #
coedge $-1 $344 $343 $499 $617 reversed $135 $-1 #
edge $-1 $618 -107.17856379894407 $496 -102.51943831385186 $490 $619 forward 7 unknown #
vertex $-1 $346 $620 #
straight-curve $-1 50.294782712788873 8.8992408888290928 6.2633944386403826 0 -1 0 I I #
coedge $-1 $489 $347 $350 $503 reversed $340 $-1 #
coedge $-1 $347 $489 $494 $617 forward $340 $-1 #
vertex $-1 $348 $621 #
straight-curve $-1 53.589281899472027 21.190829939049074 77.271136847822362 0 0 1 I I #
straight-curve $-1 -22.197406481277341 21.190829939049074 78.755585314895356 0.70710677298230451 0 -0.70710678939079041 I I #
edge $-1 $615 14.406133616267297 $352 21.190829939049074 $498 $622 forward 7 unknown #
point $-1 53.589281899472027 21.190829939049074 6.2633944386403897 #
point $-1 50.294782712788873 21.190829939049074 6.2633944386403897 #
edge $-1 $623 1 $623 0 $355 $-1 forward 7 unknown #
vertex $-1 $356 $624 #
ellipse-curve $-1 51.234925516739629 16.344618279919235 3.9090380340918833 0.70710678939079041 0 0.70710677298230451 0.35355338649115226 0 -0.35355339469539521 1 I I #
point $-1 52.295585692621572 16.344618279919235 4.2625914123787929 #
edge $-1 $625 1 $625 0 $359 $-1 forward 7 unknown #
vertex $-1 $360 $626 #
ellipse-curve $-1 51.234925516739629 19.252345275397143 3.9090380340918833 0.70710678939079041 0 0.70710677298230451 0.35355338649115226 0 -0.35355339469539521 1 I I #
point $-1 52.295585692621572 19.252345275397143 4.2625914123787929 #
plane-surface $-1 0 0 6.2633944386403897 0 0 1 1 0 0 forward_v I I I I #
coedge $-1 $525 $524 $517 $627 forward $364 $-1 #
coedge $-1 $517 $366 $368 $521 reversed $237 $-1 #
coedge $-1 $366 $516 $515 $627 reversed $237 $-1 #
coedge $-1 $374 $369 $366 $519 forward $375 $-1 #
edge $-1 $522 -14.393203306640856 $628 -11.098704119957645 $518 $629 forward 7 unknown #
coedge $-1 $368 $367 $525 $630 reversed $149 $-1 #
edge $-1 $631 -2.0097183471152325e-014 $522 4.6591254850922557 $516 $632 forward 7 unknown #
vertex $-1 $370 $633 #
straight-curve $-1 -50.294782712788816 -1.8429473089928372 6.2633944386403897 0 1 0 I I #
coedge $-1 $515 $371 $374 $529 reversed $364 $-1 #
coedge $-1 $371 $515 $520 $630 forward $364 $-1 #
vertex $-1 $372 $634 #
straight-curve $-1 -53.589281899472027 -7.0782427793765628 39.377791778128682 0 0 1 I I #
straight-curve $-1 -53.589281899472013 -7.0782427793765628 2.9688951755079955 -0.70710677298230451 0 -0.70710678939079041 I I #
edge $-1 $628 0.29354645659478606 $376 7.0782427793765628 $524 $635 forward 7 unknown #
point $-1 -53.589281899472027 -7.0782427793765628 6.2633944386403897 #
point $-1 -50.294782712788816 -7.0782427793765628 6.2633944386403897 #
edge $-1 $636 1 $636 0 $379 $-1 forward 7 unknown #
vertex $-1 $380 $637 #
ellipse-curve $-1 -51.234925516739629 -5.139758115724625 3.9090380340918798 -0.70710678939079041 0 0.70710677298230451 0.35355338649115226 0 0.35355339469539521 1 I I #
point $-1 -51.588478919639265 -5.139758115724625 4.969698201769579 #
edge $-1 $638 1 $638 0 $383 $-1 forward 7 unknown #
vertex $-1 $384 $639 #
ellipse-curve $-1 -51.234925516739629 -2.2320311202467202 3.9090380340918798 -0.70710678939079041 0 0.70710677298230451 0.35355338649115226 0 0.35355339469539521 1 I I #
point $-1 -51.588478919639265 -2.2320311202467202 4.969698201769579 #
loop $-1 $-1 $395 $387 #
plane-surface $-1 -53.589281899472027 0 0 1 0 0 0 0 -1 forward_v I I I I #
coedge $-1 $543 $390 $392 $547 reversed $259 $-1 #
coedge $-1 $390 $542 $640 $641 reversed $259 $-1 #
coedge $-1 $398 $393 $390 $545 forward $388 $-1 #
edge $-1 $548 -14.393203306640856 $642 -11.098704119957645 $544 $643 forward 7 unknown #
coedge $-1 $392 $391 $551 $644 reversed $163 $-1 #
edge $-1 $645 -2.0097183471152325e-014 $548 4.6591254850922557 $542 $646 forward 7 unknown #
vertex $-1 $394 $647 #
straight-curve $-1 -50.294782712788816 8.8992408888290928 6.2633944386403897 0 1 0 I I #
coedge $-1 $640 $395 $398 $555 reversed $540 $-1 #
coedge $-1 $395 $640 $546 $644 forward $540 $-1 #
vertex $-1 $396 $648 #
straight-curve $-1 -53.589281899472027 14.406133616267297 39.377791778128682 0 0 1 I I #
straight-curve $-1 -53.589281899472013 14.406133616267297 2.9688951755079955 -0.70710677298230451 0 -0.70710678939079041 I I #
edge $-1 $642 -21.190829939049074 $399 -14.406133616267297 $550 $649 forward 7 unknown #
point $-1 -53.589281899472027 14.406133616267297 6.2633944386403897 #
point $-1 -50.294782712788816 14.406133616267297 6.2633944386403897 #
edge $-1 $650 1 $650 0 $402 $-1 forward 7 unknown #
vertex $-1 $403 $651 #
ellipse-curve $-1 -51.234925516739629 16.344618279919235 3.9090380340918798 -0.70710678939079041 0 0.70710677298230451 0.35355338649115226 0 0.35355339469539521 1 I I #
point $-1 -51.588478919639265 16.344618279919235 4.969698201769579 #
edge $-1 $652 1 $652 0 $406 $-1 forward 7 unknown #
vertex $-1 $407 $653 #
ellipse-curve $-1 -51.234925516739629 19.252345275397143 3.9090380340918798 -0.70710678939079041 0 0.70710677298230451 0.35355338649115226 0 0.35355339469539521 1 I I #
point $-1 -51.588478919639265 19.252345275397143 4.969698201769579 #
plane-surface $-1 53.589281899472027 0 0 -1 0 0 0 0 1 forward_v I I I I #
coedge $-1 $415 $413 $417 $571 reversed $281 $-1 #
edge $-1 $428 -6.2633944386403897 $573 6.2633944386403897 $427 $654 forward 7 unknown #
vertex $-1 $571 $655 #
straight-curve $-1 -53.589281899472027 -24.212241702955222 0 0 0 -1 I I #
edge $-1 $569 -24.212241702955222 $573 24.212241702955222 $567 $656 forward 7 unknown #
straight-curve $-1 0 -24.212241702955222 -6.2633944386403897 -1 0 0 I I #
vertex $-1 $420 $657 #
straight-curve $-1 0 24.212241702955222 -6.2633944386403897 1 0 0 I I #
point $-1 53.589281899472027 24.212241702955222 -6.2633944386403897 #
point $-1 53.589281899472027 -24.212241702955222 -6.2633944386403897 #
straight-curve $-1 -53.589281899472027 0 6.2633944386403897 0 -1 0 I I #
point $-1 -53.589281899472027 24.212241702955222 6.2633944386403897 #
point $-1 -53.589281899472027 -24.212241702955222 6.2633944386403897 #
straight-curve $-1 53.589281899472027 -24.212241702955222 0 0 0 -1 I I #
straight-curve $-1 53.589281899472027 24.212241702955222 0 0 0 -1 I I #
loop $-1 $-1 $443 $437 #
plane-surface $-1 0 -24.212241702955222 0 0 1 0 0 0 1 forward_v I I I I #
coedge $-1 $454 $445 $441 $586 forward $438 $-1 #
edge $-1 $590 -13.470053505133286 $449 -8.0143228905105772 $440 $658 forward 7 unknown #
edge $-1 $450 8.0143228905105772 $589 13.470053505133286 $584 $659 forward 7 unknown #
coedge $-1 $452 $443 $457 $599 reversed $582 $-1 #
coedge $-1 $443 $452 $454 $597 reversed $582 $-1 #
vertex $-1 $597 $660 #
vertex $-1 $444 $661 #
straight-curve $-1 -45.434847419451714 -24.212241702955222 0 0 0 1 I I #
straight-curve $-1 -23.588788092130841 -18.756511088332509 -6.2633944386403897 1 0 0 I I #
straight-curve $-1 -23.588788092130841 -18.756511088332509 6.2633944386403897 -1 0 0 I I #
point $-1 -45.434847419451714 -18.756511088332509 6.2633944386403897 #
point $-1 -45.434847419451714 -18.756511088332509 -6.2633944386403897 #
straight-curve $-1 -48.92030494907165 -24.212241702955222 0 0 0 -1 I I #
edge $-1 $589 45.434847419451714 $455 48.92030494907165 $588 $662 forward 7 unknown #
point $-1 -48.92030494907165 -24.212241702955218 -6.2633944386403897 #
edge $-1 $458 -48.92030494907165 $590 -45.434847419451714 $587 $663 forward 7 unknown #
point $-1 -48.92030494907165 -24.212241702955218 6.2633944386403897 #
edge $-1 $602 71.007742409181972 $605 74.302241672314324 $463 $664 forward 7 unknown #
vertex $-1 $477 $665 #
straight-curve $-1 26.794641829054996 -7.0782427793765628 6.2633944386403897 1 0 0 I I #
edge $-1 $605 -5.2352954703837256 $474 1.5494008523980511 $473 $666 forward 7 unknown #
vertex $-1 $604 $667 #
straight-curve $-1 -22.197406481277341 -7.0782427793765628 78.755585314895356 -0.70710677298230451 0 0.70710678939079041 I I #
point $-1 50.294782712788873 -7.0782427793765628 6.2633944386403897 #
point $-1 53.589281899472027 -0.29354645659478606 2.9688951755080382 #
straight-curve $-1 53.589281899472027 0 6.2633944386403897 0 1 0 I I #
vertex $-1 $480 $668 #
point $-1 51.588478903230779 -5.139758115724625 3.5554846393964881 #
vertex $-1 $484 $669 #
point $-1 51.588478903230779 -2.2320311202467202 3.5554846393964881 #
edge $-1 $615 71.007742409181972 $618 74.302241672314324 $489 $670 forward 7 unknown #
vertex $-1 $503 $671 #
straight-curve $-1 26.794641829054996 14.406133616267297 6.2633944386403897 1 0 0 I I #
edge $-1 $618 5.5068927274382045 $500 12.291589050219981 $499 $672 forward 7 unknown #
vertex $-1 $617 $673 #
straight-curve $-1 -22.197406481277341 14.406133616267297 78.755585314895356 -0.70710677298230451 0 0.70710678939079041 I I #
point $-1 50.294782712788873 14.406133616267297 6.2633944386403897 #
point $-1 53.589281899472027 21.190829939049074 2.9688951755080382 #
straight-curve $-1 53.589281899472027 0 6.2633944386403897 0 1 0 I I #
vertex $-1 $506 $674 #
point $-1 51.588478903230779 16.344618279919235 3.5554846393964881 #
vertex $-1 $510 $675 #
point $-1 51.588478903230779 19.252345275397143 3.5554846393964881 #
edge $-1 $628 33.114397339488292 $631 36.4088966026207 $515 $676 forward 7 unknown #
vertex $-1 $529 $677 #
straight-curve $-1 -64.687986019429673 -0.29354645659478606 6.2633944386403897 -1 0 0 I I #
edge $-1 $631 -1.5494008523980511 $526 5.2352954703837256 $525 $678 forward 7 unknown #
vertex $-1 $630 $679 #
straight-curve $-1 -53.589281899472013 -0.29354645659478606 2.9688951755079955 0.70710677298230451 0 0.70710678939079041 I I #
point $-1 -50.294782712788816 -0.29354645659478606 6.2633944386403897 #
point $-1 -53.589281899472027 -7.0782427793765628 2.9688951755079813 #
straight-curve $-1 -53.589281899472027 0 6.2633944386403897 0 -1 0 I I #
vertex $-1 $532 $680 #
point $-1 -50.881372130248479 -5.139758115724625 4.2625914287872746 #
vertex $-1 $536 $681 #
point $-1 -50.881372130248479 -2.2320311202467202 4.2625914287872746 #
coedge $-1 $551 $550 $543 $641 forward $540 $-1 #
edge $-1 $642 33.114397339488292 $645 36.4088966026207 $640 $682 forward 7 unknown #
vertex $-1 $555 $683 #
straight-curve $-1 -64.687986019429673 21.190829939049074 6.2633944386403897 -1 0 0 I I #
edge $-1 $645 -12.291589050219981 $552 -5.5068927274382045 $551 $684 forward 7 unknown #
vertex $-1 $644 $685 #
straight-curve $-1 -53.589281899472013 21.190829939049074 2.9688951755079955 0.70710677298230451 0 0.70710678939079041 I I #
point $-1 -50.294782712788816 21.190829939049074 6.2633944386403897 #
point $-1 -53.589281899472027 14.406133616267297 2.9688951755079813 #
straight-curve $-1 -53.589281899472027 0 6.2633944386403897 0 -1 0 I I #
vertex $-1 $558 $686 #
point $-1 -50.881372130248479 16.344618279919235 4.2625914287872746 #
vertex $-1 $562 $687 #
point $-1 -50.881372130248479 19.252345275397143 4.2625914287872746 #
straight-curve $-1 -53.589281899472027 24.212241702955222 0 0 0 -1 I I #
point $-1 -53.589281899472027 -24.212241702955222 -6.2633944386403897 #
straight-curve $-1 -53.589281899472027 0 -6.2633944386403897 0 1 0 I I #
point $-1 -53.589281899472027 24.212241702955222 -6.2633944386403897 #
straight-curve $-1 -45.434847419451714 -10.742188197821932 6.2633944386403897 0 1 0 I I #
straight-curve $-1 -45.434847419451714 -10.742188197821932 -6.2633944386403897 0 -1 0 I I #
point $-1 -45.434847419451714 -24.212241702955218 -6.2633944386403897 #
point $-1 -45.434847419451714 -24.212241702955218 6.2633944386403897 #
straight-curve $-1 0 -24.212241702955222 -6.2633944386403897 -1 0 0 I I #
straight-curve $-1 0 -24.212241702955222 6.2633944386403897 1 0 0 I I #
straight-curve $-1 53.589281899472027 -7.0782427793765628 77.271136847822362 0 0 -1 I I #
point $-1 53.589281899472027 -7.0782427793765628 6.2633944386403897 #
straight-curve $-1 53.589281899472027 -1.8429473089928372 2.9688951755080382 0 1 0 I I #
point $-1 53.589281899472027 -7.0782427793765628 2.9688951755080382 #
point $-1 50.881372122044233 -5.139758115724625 3.5554846476007307 #
point $-1 50.881372122044233 -2.2320311202467202 3.5554846476007307 #
straight-curve $-1 53.589281899472027 14.406133616267297 77.271136847822362 0 0 -1 I I #
point $-1 53.589281899472027 14.406133616267297 6.2633944386403897 #
straight-curve $-1 53.589281899472027 8.8992408888290928 2.9688951755080382 0 1 0 I I #
point $-1 53.589281899472027 14.406133616267297 2.9688951755080382 #
point $-1 50.881372122044233 16.344618279919235 3.5554846476007307 #
point $-1 50.881372122044233 19.252345275397143 3.5554846476007307 #
straight-curve $-1 -53.589281899472027 -0.29354645659478606 39.377791778128682 0 0 -1 I I #
point $-1 -53.589281899472027 -0.29354645659478606 6.2633944386403897 #
straight-curve $-1 -53.589281899472027 -1.8429473089928372 2.9688951755079813 0 -1 0 I I #
point $-1 -53.589281899472027 -0.29354645659478606 2.9688951755079813 #
point $-1 -50.881372122044233 -5.139758115724625 3.5554846476007271 #
point $-1 -50.881372122044233 -2.2320311202467202 3.5554846476007271 #
straight-curve $-1 -53.589281899472027 21.190829939049074 39.377791778128682 0 0 -1 I I #
point $-1 -53.589281899472027 21.190829939049074 6.2633944386403897 #
straight-curve $-1 -53.589281899472027 8.8992408888290928 2.9688951755079813 0 -1 0 I I #
point $-1 -53.589281899472027 21.190829939049074 2.9688951755079813 #
point $-1 -50.881372122044233 16.344618279919235 3.5554846476007271 #
point $-1 -50.881372122044233 19.252345275397143 3.5554846476007271 #
End-of-ACIS-data 