500 0 2 0           
7 Unknown 11 ACIS 5.0 NT 24 Fri Mar 26 00:34:50 1999 
-1 9.9999999999999995e-007 1e-010 
body $-1 $2 $-1 $3 #
body $-1 $4 $-1 $5 #
lump $-1 $-1 $6 $0 #
transform $-1 1 0 0 0 1 0 0 0 1 48.738059633167516 33.195189430135585 10.391541965380283 1 rotate no_reflect no_shear #
lump $-1 $-1 $7 $1 #
transform $-1 1 0 0 0 1 0 0 0 1 48.738059633167516 33.195189430135585 10.391541965380283 1 rotate no_reflect no_shear #
shell $-1 $-1 $-1 $8 $-1 $2 #
shell $-1 $-1 $-1 $9 $-1 $4 #
face $-1 $10 $11 $6 $-1 $12 forward single #
face $-1 $13 $14 $7 $-1 $15 reversed single #
face $-1 $16 $17 $6 $-1 $18 reversed single #
loop $-1 $-1 $19 $8 #
plane-surface $-1 0 0 10.391541965380283 0 0 1 1 0 0 forward_v I I I I #
face $-1 $20 $21 $7 $-1 $22 forward single #
loop $-1 $-1 $23 $9 #
plane-surface $-1 -43.204042643396605 0 -5.4699336472328604 0 0 1 1 0 0 forward_v I I I I #
face $-1 $24 $25 $6 $-1 $26 reversed single #
loop $-1 $-1 $27 $10 #
plane-surface $-1 0 0 -10.391541965380283 0 0 1 1 0 0 forward_v I I I I #
coedge $-1 $28 $29 $30 $31 forward $11 $-1 #
face $-1 $32 $33 $7 $-1 $34 reversed single #
loop $-1 $-1 $35 $13 #
plane-surface $-1 -37.670025653625693 0 -7.9307378063065714 -1 0 0 0 0 1 forward_v I I I I #
coedge $-1 $36 $37 $38 $39 reversed $14 $-1 #
face $-1 $40 $41 $6 $-1 $42 reversed single #
loop $-1 $-1 $43 $16 #
plane-surface $-1 0 -33.195189430135585 0 0 1 0 0 0 1 forward_v I I I I #
coedge $-1 $44 $45 $46 $47 forward $17 $-1 #
coedge $-1 $48 $19 $49 $50 forward $11 $-1 #
coedge $-1 $19 $48 $51 $52 forward $11 $-1 #
coedge $-1 $53 $54 $19 $31 reversed $55 $-1 #
edge $-1 $56 -33.195189430135585 $57 33.195189430135585 $30 $58 forward 7 unknown #
face $-1 $59 $60 $7 $-1 $61 reversed single #
loop $-1 $-1 $62 $20 #
plane-surface $-1 -48.738059633167516 0 0 1 0 0 0 0 -1 forward_v I I I I #
coedge $-1 $38 $63 $64 $65 reversed $21 $-1 #
coedge $-1 $66 $23 $67 $68 reversed $14 $-1 #
coedge $-1 $23 $66 $69 $70 reversed $14 $-1 #
coedge $-1 $71 $35 $23 $39 forward $21 $-1 #
edge $-1 $72 -33.195189430135585 $73 33.195189430135585 $38 $74 forward 7 unknown #
face $-1 $75 $76 $6 $-1 $77 reversed single #
loop $-1 $-1 $78 $24 #
plane-surface $-1 -48.738059633167516 0 0 1 0 0 0 0 -1 forward_v I I I I #
coedge $-1 $79 $51 $80 $81 forward $25 $-1 #
coedge $-1 $82 $27 $79 $83 forward $17 $-1 #
coedge $-1 $27 $82 $84 $85 forward $17 $-1 #
coedge $-1 $54 $53 $27 $47 reversed $55 $-1 #
edge $-1 $86 -33.195189430135585 $87 33.195189430135585 $46 $88 forward 7 unknown #
coedge $-1 $29 $28 $89 $90 forward $11 $-1 #
coedge $-1 $91 $92 $28 $50 reversed $76 $-1 #
edge $-1 $57 -48.738059633167516 $93 48.738059633167516 $49 $94 forward 7 unknown #
coedge $-1 $43 $95 $29 $52 reversed $25 $-1 #
edge $-1 $96 -48.738059633167516 $56 48.738059633167516 $51 $97 forward 7 unknown #
coedge $-1 $46 $30 $95 $98 forward $55 $-1 #
coedge $-1 $30 $46 $91 $99 reversed $55 $-1 #
loop $-1 $-1 $53 $75 #
vertex $-1 $31 $100 #
vertex $-1 $31 $101 #
straight-curve $-1 48.738059633167516 0 10.391541965380283 0 1 0 I I #
face $-1 $102 $103 $7 $-1 $104 forward single #
loop $-1 $-1 $67 $32 #
plane-surface $-1 0 -33.195189430135585 0 0 1 0 0 0 1 forward_v I I I I #
coedge $-1 $105 $106 $66 $107 forward $33 $-1 #
coedge $-1 $35 $71 $108 $109 reversed $21 $-1 #
coedge $-1 $110 $67 $35 $65 forward $60 $-1 #
edge $-1 $72 1.5045647440795746 $111 6.4261730622269972 $64 $112 forward 7 unknown #
coedge $-1 $37 $36 $62 $107 reversed $14 $-1 #
coedge $-1 $64 $113 $36 $68 forward $60 $-1 #
edge $-1 $114 -27.136038311469214 $72 -16.068004331927391 $67 $115 forward 7 unknown #
coedge $-1 $116 $117 $37 $70 forward $118 $-1 #
edge $-1 $73 16.068004331927391 $119 27.136038311469214 $69 $120 forward 7 unknown #
coedge $-1 $63 $38 $117 $121 reversed $21 $-1 #
vertex $-1 $68 $122 #
vertex $-1 $70 $123 #
straight-curve $-1 -37.670025653625693 0 -5.4699336472328604 0 1 0 I I #
face $-1 $-1 $55 $6 $-1 $124 reversed single #
loop $-1 $-1 $91 $40 #
plane-surface $-1 0 33.195189430135585 0 0 -1 0 0 0 -1 forward_v I I I I #
coedge $-1 $125 $89 $92 $126 forward $41 $-1 #
coedge $-1 $95 $43 $44 $83 reversed $25 $-1 #
coedge $-1 $89 $125 $43 $81 reversed $41 $-1 #
edge $-1 $96 -10.391541965380283 $127 10.391541965380283 $80 $128 forward 7 unknown #
coedge $-1 $45 $44 $125 $129 forward $17 $-1 #
edge $-1 $87 -48.738059633167516 $127 48.738059633167516 $79 $130 forward 7 unknown #
coedge $-1 $92 $91 $45 $85 reversed $76 $-1 #
edge $-1 $131 -48.738059633167516 $86 48.738059633167516 $84 $132 forward 7 unknown #
vertex $-1 $47 $133 #
vertex $-1 $98 $134 #
straight-curve $-1 48.738059633167516 0 -10.391541965380283 0 -1 0 I I #
coedge $-1 $78 $80 $48 $90 reversed $41 $-1 #
edge $-1 $93 -33.195189430135585 $96 33.195189430135585 $89 $135 forward 7 unknown #
coedge $-1 $84 $49 $54 $99 forward $76 $-1 #
coedge $-1 $49 $84 $78 $126 reversed $76 $-1 #
vertex $-1 $50 $136 #
straight-curve $-1 0 33.195189430135585 10.391541965380283 -1 0 0 I I #
coedge $-1 $51 $79 $53 $98 reversed $25 $-1 #
vertex $-1 $90 $137 #
straight-curve $-1 0 -33.195189430135585 10.391541965380283 1 0 0 I I #
edge $-1 $56 -10.391541965380283 $87 10.391541965380283 $53 $138 forward 7 unknown #
edge $-1 $57 -10.391541965380283 $86 10.391541965380283 $54 $139 forward 7 unknown #
point $-1 48.738059633167516 -33.195189430135585 10.391541965380283 #
point $-1 48.738059633167516 33.195189430135585 10.391541965380283 #
face $-1 $140 $141 $7 $-1 $142 reversed single #
loop $-1 $-1 $143 $59 #
plane-surface $-1 0 0 10.391541965380283 0 0 1 1 0 0 forward_v I I I I #
coedge $-1 $144 $62 $113 $145 reversed $33 $-1 #
coedge $-1 $62 $144 $116 $146 forward $33 $-1 #
edge $-1 $119 -33.195189430135585 $114 33.195189430135585 $62 $147 forward 7 unknown #
coedge $-1 $148 $149 $63 $109 forward $141 $-1 #
edge $-1 $111 -33.195189430135585 $150 33.195189430135585 $108 $151 forward 7 unknown #
coedge $-1 $152 $64 $149 $153 reversed $60 $-1 #
vertex $-1 $65 $154 #
straight-curve $-1 -37.670025653625693 -33.195189430135585 -3.9653689031532857 0 0 -1 I I #
coedge $-1 $67 $155 $105 $145 forward $60 $-1 #
vertex $-1 $68 $156 #
straight-curve $-1 -21.602021321698302 -33.195189430135585 -5.4699336472328604 1 0 0 I I #
coedge $-1 $157 $69 $106 $146 reversed $118 $-1 #
coedge $-1 $69 $158 $71 $121 forward $118 $-1 #
loop $-1 $-1 $69 $140 #
vertex $-1 $107 $159 #
straight-curve $-1 -21.602021321698302 33.195189430135585 -5.4699336472328604 -1 0 0 I I #
edge $-1 $150 -6.4261730622269972 $73 -1.5045647440795746 $117 $160 forward 7 unknown #
point $-1 -37.670025653625693 -33.195189430135585 -5.4699336472328604 #
point $-1 -37.670025653625693 33.195189430135585 -5.4699336472328604 #
plane-surface $-1 48.738059633167516 0 0 -1 0 0 0 0 1 forward_v I I I I #
coedge $-1 $80 $78 $82 $129 reversed $41 $-1 #
edge $-1 $93 -10.391541965380283 $131 10.391541965380283 $92 $161 forward 7 unknown #
vertex $-1 $129 $162 #
straight-curve $-1 -48.738059633167516 -33.195189430135585 0 0 0 -1 I I #
edge $-1 $127 -33.195189430135585 $131 33.195189430135585 $125 $163 forward 7 unknown #
straight-curve $-1 0 -33.195189430135585 -10.391541965380283 -1 0 0 I I #
vertex $-1 $85 $164 #
straight-curve $-1 0 33.195189430135585 -10.391541965380283 1 0 0 I I #
point $-1 48.738059633167516 33.195189430135585 -10.391541965380283 #
point $-1 48.738059633167516 -33.195189430135585 -10.391541965380283 #
straight-curve $-1 -48.738059633167516 0 10.391541965380283 0 -1 0 I I #
point $-1 -48.738059633167516 33.195189430135585 10.391541965380283 #
point $-1 -48.738059633167516 -33.195189430135585 10.391541965380283 #
straight-curve $-1 48.738059633167516 -33.195189430135585 0 0 0 -1 I I #
straight-curve $-1 48.738059633167516 33.195189430135585 0 0 0 -1 I I #
face $-1 $165 $118 $7 $-1 $166 reversed single #
loop $-1 $-1 $108 $102 #
plane-surface $-1 0 0 -10.391541965380283 0 0 1 1 0 0 forward_v I I I I #
coedge $-1 $167 $168 $169 $170 forward $103 $-1 #
coedge $-1 $106 $105 $171 $172 reversed $33 $-1 #
edge $-1 $173 -10.391541965380283 $114 5.4699336472328604 $105 $174 forward 7 unknown #
edge $-1 $175 -10.391541965380283 $119 5.4699336472328604 $116 $176 forward 7 unknown #
straight-curve $-1 -48.738059633167516 0 -5.4699336472328604 0 -1 0 I I #
coedge $-1 $177 $108 $158 $178 forward $141 $-1 #
coedge $-1 $108 $177 $110 $153 forward $141 $-1 #
vertex $-1 $178 $179 #
straight-curve $-1 -37.670025653625693 0 -10.391541965380283 0 1 0 I I #
coedge $-1 $155 $110 $180 $181 reversed $60 $-1 #
edge $-1 $182 -48.738059633167516 $111 37.670025653625693 $110 $183 forward 7 unknown #
point $-1 -37.670025653625693 -33.195189430135585 -10.391541965380283 #
coedge $-1 $113 $152 $168 $184 reversed $60 $-1 #
point $-1 -48.738059633167516 -33.195189430135585 -5.4699336472328604 #
coedge $-1 $185 $116 $167 $186 reversed $118 $-1 #
coedge $-1 $117 $185 $148 $178 reversed $118 $-1 #
point $-1 -48.738059633167516 33.195189430135585 -5.4699336472328604 #
straight-curve $-1 -37.670025653625693 33.195189430135585 -3.9653689031532857 0 0 1 I I #
straight-curve $-1 -48.738059633167516 33.195189430135585 0 0 0 -1 I I #
point $-1 -48.738059633167516 -33.195189430135585 -10.391541965380283 #
straight-curve $-1 -48.738059633167516 0 -10.391541965380283 0 1 0 I I #
point $-1 -48.738059633167516 33.195189430135585 -10.391541965380283 #
face $-1 $-1 $187 $7 $-1 $188 reversed single #
plane-surface $-1 0 33.195189430135585 0 0 -1 0 0 0 -1 forward_v I I I I #
coedge $-1 $171 $143 $157 $186 forward $103 $-1 #
coedge $-1 $143 $171 $155 $184 forward $103 $-1 #
coedge $-1 $180 $189 $143 $170 reversed $187 $-1 #
edge $-1 $190 -33.195189430135585 $191 33.195189430135585 $169 $192 forward 7 unknown #
coedge $-1 $168 $167 $144 $172 forward $103 $-1 #
edge $-1 $175 -33.195189430135585 $173 33.195189430135585 $144 $193 forward 7 unknown #
vertex $-1 $172 $194 #
straight-curve $-1 -48.738059633167516 -33.195189430135585 0 0 0 -1 I I #
vertex $-1 $186 $195 #
straight-curve $-1 -48.738059633167516 33.195189430135585 0 0 0 -1 I I #
coedge $-1 $149 $148 $196 $197 forward $141 $-1 #
edge $-1 $150 -37.670025653625693 $198 48.738059633167516 $158 $199 forward 7 unknown #
point $-1 -37.670025653625693 33.195189430135585 -10.391541965380283 #
coedge $-1 $196 $169 $152 $181 forward $187 $-1 #
edge $-1 $190 -10.391541965380283 $182 10.391541965380283 $180 $200 forward 7 unknown #
vertex $-1 $181 $201 #
straight-curve $-1 0 -33.195189430135585 -10.391541965380283 -1 0 0 I I #
edge $-1 $173 -48.738059633167516 $190 48.738059633167516 $155 $202 forward 7 unknown #
coedge $-1 $158 $157 $189 $203 forward $118 $-1 #
edge $-1 $191 -48.738059633167516 $175 48.738059633167516 $157 $204 forward 7 unknown #
loop $-1 $-1 $180 $165 #
plane-surface $-1 48.738059633167516 0 0 -1 0 0 0 0 1 forward_v I I I I #
coedge $-1 $169 $196 $185 $203 reversed $187 $-1 #
vertex $-1 $170 $205 #
vertex $-1 $170 $206 #
straight-curve $-1 48.738059633167516 0 10.391541965380283 0 1 0 I I #
straight-curve $-1 -48.738059633167516 0 10.391541965380283 0 -1 0 I I #
point $-1 -48.738059633167516 -33.195189430135585 10.391541965380283 #
point $-1 -48.738059633167516 33.195189430135585 10.391541965380283 #
coedge $-1 $189 $180 $177 $197 reversed $187 $-1 #
edge $-1 $198 -33.195189430135585 $182 33.195189430135585 $196 $207 forward 7 unknown #
vertex $-1 $197 $208 #
straight-curve $-1 0 33.195189430135585 -10.391541965380283 1 0 0 I I #
straight-curve $-1 48.738059633167516 -33.195189430135585 0 0 0 -1 I I #
point $-1 48.738059633167516 -33.195189430135585 -10.391541965380283 #
straight-curve $-1 0 -33.195189430135585 10.391541965380283 1 0 0 I I #
edge $-1 $191 -10.391541965380283 $198 10.391541965380283 $189 $209 forward 7 unknown #
straight-curve $-1 0 33.195189430135585 10.391541965380283 -1 0 0 I I #
point $-1 48.738059633167516 -33.195189430135585 10.391541965380283 #
point $-1 48.738059633167516 33.195189430135585 10.391541965380283 #
straight-curve $-1 48.738059633167516 0 -10.391541965380283 0 -1 0 I I #
point $-1 48.738059633167516 33.195189430135585 -10.391541965380283 #
straight-curve $-1 48.738059633167516 33.195189430135585 0 0 0 -1 I I #
End-of-ACIS-data 