500 0 6 0           
7 Unknown 11 ACIS 5.0 NT 24 Fri Mar 26 15:34:44 1999 
-1 9.9999999999999995e-007 1e-010 
body $-1 $6 $-1 $7 #
body $-1 $8 $-1 $9 #
body $-1 $10 $-1 $11 #
body $-1 $12 $-1 $13 #
body $-1 $14 $-1 $15 #
body $-1 $16 $-1 $17 #
lump $-1 $-1 $18 $0 #
transform $-1 1 0 0 0 1 0 0 0 1 48.052003540147098 24.787835805508784 6.2066798196318667 1 rotate no_reflect no_shear #
lump $-1 $-1 $19 $1 #
transform $-1 1 0 0 0 1 0 0 0 1 48.052003540147098 24.787835805508784 6.2066798196318667 1 rotate no_reflect no_shear #
lump $-1 $-1 $20 $2 #
transform $-1 1 0 0 0 1 0 0 0 1 48.052003540147098 24.787835805508784 6.2066798196318667 1 rotate no_reflect no_shear #
lump $-1 $-1 $21 $3 #
transform $-1 1 0 0 0 1 0 0 0 1 48.052003540147098 24.787835805508784 6.2066798196318667 1 rotate no_reflect no_shear #
lump $-1 $-1 $22 $4 #
transform $-1 1 0 0 0 1 0 0 0 1 48.052003540147098 24.787835805508784 6.2066798196318667 1 rotate no_reflect no_shear #
lump $-1 $-1 $23 $5 #
transform $-1 1 0 0 0 1 0 0 0 1 48.052003540147098 24.787835805508784 6.2066798196318667 1 rotate no_reflect no_shear #
shell $-1 $-1 $-1 $24 $-1 $6 #
shell $-1 $-1 $-1 $25 $-1 $8 #
shell $-1 $-1 $-1 $26 $-1 $10 #
shell $-1 $-1 $-1 $27 $-1 $12 #
shell $-1 $-1 $-1 $28 $-1 $14 #
shell $-1 $-1 $-1 $29 $-1 $16 #
face $-1 $30 $31 $18 $-1 $32 forward single #
face $-1 $33 $34 $19 $-1 $35 reversed single #
face $-1 $36 $37 $20 $-1 $38 forward single #
face $-1 $39 $40 $21 $-1 $41 forward single #
face $-1 $42 $43 $22 $-1 $44 reversed single #
face $-1 $45 $46 $23 $-1 $47 forward single #
face $-1 $48 $49 $18 $-1 $50 reversed single #
loop $-1 $-1 $51 $24 #
plane-surface $-1 0 0 6.2066798196318667 0 0 1 1 0 0 forward_v I I I I #
face $-1 $52 $53 $19 $-1 $54 reversed single #
loop $-1 $-1 $55 $25 #
plane-surface $-1 8.4043290076698938 -89.093969110063938 71.825130963929325 -1 0 0 0 -0.66913061440640931 0.74314481823134659 forward_v I I I I #
face $-1 $56 $57 $20 $-1 $58 forward single #
loop $-1 $59 $60 $26 #
cone-surface $-1 -1.9768512364995843 -20.620037203126799 2.2549917515103952 0 0.66913061440640931 -0.74314481823134659 1 0 0 1 I I 0 1 1 forward I I I I #
face $-1 $61 $62 $21 $-1 $63 forward single #
loop $-1 $64 $65 $27 #
cone-surface $-1 4.251856910002104 -20.620037203126799 2.2549917515103952 0 0.66913061440640931 -0.74314481823134659 1 0 0 1 I I 0 1 1 forward I I I I #
face $-1 $66 $67 $22 $-1 $68 reversed single #
loop $-1 $-1 $69 $28 #
plane-surface $-1 -27.589683944301015 41.168794004806195 107.97482723684458 -1 0 0 0 0.5877852598018023 0.80901698891910034 forward_v I I I I #
face $-1 $70 $71 $23 $-1 $72 forward single #
loop $-1 $73 $74 $29 #
cone-surface $-1 -37.820843742224056 20.150267288004841 2.1140080027976773 0 -0.5877852598018023 -0.80901698891910034 1.5 0 0 1 I I 0 1 1.5 forward I I I I #
face $-1 $75 $76 $18 $-1 $77 reversed single #
loop $-1 $-1 $78 $30 #
plane-surface $-1 0 0 -6.2066798196318667 0 0 1 1 0 0 forward_v I I I I #
coedge $-1 $79 $80 $81 $82 forward $31 $-1 #
face $-1 $83 $84 $19 $-1 $85 reversed single #
loop $-1 $-1 $86 $33 #
plane-surface $-1 1.1375028367512598 -24.787835805508777 0.40593609094004535 0 -0.66913061440640931 0.74314481823134659 1 0 0 forward_v I I I I #
coedge $-1 $87 $88 $89 $90 reversed $34 $-1 #
face $-1 $-1 $91 $20 $-1 $92 forward single #
loop $-1 $93 $94 $36 #
cone-surface $-1 -1.9768512364995843 -19.338862513593533 0.83210313861915264 0 0.66913061440640931 -0.74314481823134659 0.5 0 0 1 I I -0.70710678118654746 0.70710678118654746 0.5 forward I I I I #
loop $-1 $-1 $95 $26 #
coedge $-1 $60 $60 $96 $97 reversed $37 $-1 #
face $-1 $-1 $98 $21 $-1 $99 forward single #
loop $-1 $100 $101 $39 #
cone-surface $-1 4.251856910002104 -19.338862513593533 0.83210313861915264 0 0.66913061440640931 -0.74314481823134659 0.5 0 0 1 I I -0.70710678118654746 0.70710678118654746 0.5 forward I I I I #
loop $-1 $-1 $102 $27 #
coedge $-1 $65 $65 $103 $104 reversed $40 $-1 #
face $-1 $105 $106 $22 $-1 $107 reversed single #
loop $-1 $-1 $108 $42 #
plane-surface $-1 -37.820843742224056 -15.319724764878778 30.225052805685067 0 0.5877852598018023 0.80901698891910034 1 0 0 forward_v I I I I #
coedge $-1 $109 $110 $111 $112 reversed $43 $-1 #
face $-1 $-1 $113 $23 $-1 $114 forward single #
loop $-1 $115 $116 $45 #
cone-surface $-1 -37.820843742224056 18.596413264916009 -0.024688539887045557 0 -0.5877852598018023 -0.80901698891910034 0.75 0 0 1 I I -0.70710678118654746 0.70710678118654768 0.75 forward I I I I #
loop $-1 $-1 $117 $29 #
coedge $-1 $74 $74 $118 $119 reversed $46 $-1 #
face $-1 $120 $121 $18 $-1 $122 reversed single #
loop $-1 $-1 $123 $48 #
plane-surface $-1 0 -24.787835805508784 0 0 1 0 0 0 1 forward_v I I I I #
coedge $-1 $124 $125 $126 $127 forward $49 $-1 #
coedge $-1 $128 $51 $129 $130 forward $31 $-1 #
coedge $-1 $51 $128 $131 $132 forward $31 $-1 #
coedge $-1 $133 $134 $51 $82 reversed $135 $-1 #
edge $-1 $136 -24.787835805508784 $137 24.787835805508784 $81 $138 forward 7 unknown #
face $-1 $139 $140 $19 $-1 $141 reversed single #
loop $-1 $-1 $142 $52 #
plane-surface $-1 -6.1293233341673741 -89.093969110063938 71.825130963929325 1 0 0 0 0.66913061440640931 -0.74314481823134659 forward_v I I I I #
coedge $-1 $143 $144 $145 $146 reversed $53 $-1 #
coedge $-1 $88 $55 $147 $148 reversed $34 $-1 #
coedge $-1 $55 $87 $143 $149 reversed $34 $-1 #
coedge $-1 $145 $150 $55 $90 forward $151 $-1 #
edge $-1 $152 19.759148749523185 $153 26.201527189627061 $89 $154 forward 7 unknown #
loop $-1 $-1 $96 $56 #
plane-surface $-1 1.1375028367512598 -24.787835805508777 0.40593609094004535 0 -0.66913061440640931 0.74314481823134659 1 0 0 forward_v I I I I #
loop $-1 $-1 $155 $36 #
coedge $-1 $94 $94 $95 $156 reversed $57 $-1 #
coedge $-1 $95 $95 $94 $156 forward $59 $-1 #
coedge $-1 $96 $96 $60 $97 forward $91 $-1 #
edge $-1 $157 9.9406829196622665e-016 $157 6.2831853071796013 $96 $158 forward 7 unknown #
loop $-1 $-1 $103 $61 #
plane-surface $-1 1.1375028367512598 -24.787835805508777 0.40593609094004535 0 -0.66913061440640931 0.74314481823134659 1 0 0 forward_v I I I I #
loop $-1 $-1 $159 $39 #
coedge $-1 $101 $101 $102 $160 reversed $62 $-1 #
coedge $-1 $102 $102 $101 $160 forward $64 $-1 #
coedge $-1 $103 $103 $65 $104 forward $98 $-1 #
edge $-1 $161 9.9406829196622665e-016 $161 6.2831853071796013 $103 $162 forward 7 unknown #
face $-1 $163 $164 $22 $-1 $165 forward single #
loop $-1 $-1 $111 $66 #
plane-surface $-1 0 24.787835805508784 0 0 -1 0 0 0 -1 forward_v I I I I #
coedge $-1 $166 $167 $168 $169 reversed $67 $-1 #
coedge $-1 $110 $69 $170 $171 reversed $43 $-1 #
coedge $-1 $69 $109 $166 $172 reversed $43 $-1 #
coedge $-1 $168 $173 $69 $112 forward $106 $-1 #
edge $-1 $174 47.780733798790422 $175 52.902209830468024 $111 $176 forward 7 unknown #
loop $-1 $-1 $118 $70 #
plane-surface $-1 -37.820843742224056 -15.319724764878778 30.225052805685067 0 0.5877852598018023 0.80901698891910034 1 0 0 forward_v I I I I #
loop $-1 $-1 $177 $45 #
coedge $-1 $116 $116 $117 $178 reversed $71 $-1 #
coedge $-1 $117 $117 $116 $178 forward $73 $-1 #
coedge $-1 $118 $118 $74 $119 forward $113 $-1 #
edge $-1 $179 -1.9122895279978898e-015 $179 6.2831853071795987 $118 $180 forward 7 unknown #
face $-1 $181 $182 $18 $-1 $183 reversed single #
loop $-1 $-1 $184 $75 #
plane-surface $-1 -48.052003540147098 0 0 1 0 0 0 0 -1 forward_v I I I I #
coedge $-1 $185 $131 $186 $187 forward $76 $-1 #
coedge $-1 $188 $78 $185 $189 forward $49 $-1 #
coedge $-1 $78 $188 $190 $191 forward $49 $-1 #
coedge $-1 $134 $133 $78 $127 reversed $135 $-1 #
edge $-1 $192 -24.787835805508784 $193 24.787835805508784 $126 $194 forward 7 unknown #
coedge $-1 $80 $79 $195 $196 forward $31 $-1 #
coedge $-1 $197 $198 $79 $130 reversed $182 $-1 #
edge $-1 $137 -48.052003540147098 $199 48.052003540147098 $129 $200 forward 7 unknown #
coedge $-1 $123 $201 $80 $132 reversed $76 $-1 #
edge $-1 $202 -48.052003540147098 $136 48.052003540147098 $131 $203 forward 7 unknown #
coedge $-1 $126 $81 $201 $204 forward $135 $-1 #
coedge $-1 $81 $126 $197 $205 reversed $135 $-1 #
loop $-1 $-1 $133 $181 #
vertex $-1 $82 $206 #
vertex $-1 $82 $207 #
straight-curve $-1 48.052003540147098 0 6.2066798196318667 0 1 0 I I #
face $-1 $-1 $151 $19 $-1 $208 forward single #
loop $-1 $-1 $209 $83 #
plane-surface $-1 0 -24.787835805508784 0 0 1 0 0 0 1 forward_v I I I I #
coedge $-1 $210 $211 $212 $213 reversed $84 $-1 #
coedge $-1 $214 $86 $88 $149 forward $53 $-1 #
coedge $-1 $86 $214 $210 $215 forward $53 $-1 #
coedge $-1 $212 $89 $86 $146 forward $151 $-1 #
edge $-1 $153 -7.8355775892942638 $216 6.698074752543004 $145 $217 forward 7 unknown #
coedge $-1 $218 $219 $87 $148 forward $140 $-1 #
edge $-1 $220 -35.506629391024624 $152 -29.705885662332797 $147 $221 forward 7 unknown #
edge $-1 $153 -8.6690753700422203 $220 9.5519457560449789e-015 $88 $222 forward 7 unknown #
coedge $-1 $89 $212 $218 $223 forward $151 $-1 #
loop $-1 $-1 $212 $139 #
vertex $-1 $148 $224 #
vertex $-1 $90 $225 #
straight-curve $-1 8.4043290076698938 -44.546984555031969 6.2066798196318658 0 1 0 I I #
coedge $-1 $155 $155 $-1 $226 reversed $93 $-1 #
edge $-1 $227 0 $227 6.2831853071796004 $94 $228 forward 7 unknown #
vertex $-1 $97 $229 #
ellipse-curve $-1 -1.9768512364995843 -21.566646585456848 3.3063079552859511 0 -0.66913061440640931 0.74314481823134659 1 0 0 1 I I #
coedge $-1 $159 $159 $-1 $230 reversed $100 $-1 #
edge $-1 $231 0 $231 6.2831853071796004 $101 $232 forward 7 unknown #
vertex $-1 $104 $233 #
ellipse-curve $-1 4.251856910002104 -21.566646585456848 3.3063079552859511 0 -0.66913061440640931 0.74314481823134659 1 0 0 1 I I #
face $-1 $-1 $234 $22 $-1 $235 reversed single #
loop $-1 $-1 $170 $105 #
plane-surface $-1 0 0 6.2066798196318667 0 0 1 1 0 0 forward_v I I I I #
coedge $-1 $236 $108 $110 $172 forward $67 $-1 #
coedge $-1 $108 $236 $237 $238 reversed $67 $-1 #
coedge $-1 $239 $111 $108 $169 forward $106 $-1 #
edge $-1 $175 8.6792620731889869 $240 29.14158166903507 $168 $241 forward 7 unknown #
coedge $-1 $242 $243 $109 $171 forward $164 $-1 #
edge $-1 $244 -2.8456680754272519 $174 4.2034388031056871 $170 $245 forward 7 unknown #
edge $-1 $175 -49.575671611017569 $244 -40.862496269729618 $110 $246 forward 7 unknown #
coedge $-1 $111 $239 $242 $247 reversed $106 $-1 #
vertex $-1 $247 $248 #
vertex $-1 $112 $249 #
straight-curve $-1 -27.589683944301015 24.787835805508784 53.987413618422288 0 0 -1 I I #
coedge $-1 $177 $177 $-1 $250 reversed $115 $-1 #
edge $-1 $251 0 $251 6.2831853071796004 $116 $252 forward 7 unknown #
vertex $-1 $119 $253 #
ellipse-curve $-1 -37.820843742224056 21.263282366242315 3.6459418037930655 0 0.5877852598018023 0.80901698891910034 1.5 0 0 1 I I #
face $-1 $-1 $135 $18 $-1 $254 reversed single #
loop $-1 $-1 $197 $120 #
plane-surface $-1 0 24.787835805508784 0 0 -1 0 0 0 -1 forward_v I I I I #
coedge $-1 $255 $195 $198 $256 forward $121 $-1 #
coedge $-1 $201 $123 $124 $189 reversed $76 $-1 #
coedge $-1 $195 $255 $123 $187 reversed $121 $-1 #
edge $-1 $202 -6.2066798196318667 $257 6.2066798196318667 $186 $258 forward 7 unknown #
coedge $-1 $125 $124 $255 $259 forward $49 $-1 #
edge $-1 $193 -48.052003540147098 $257 48.052003540147098 $185 $260 forward 7 unknown #
coedge $-1 $198 $197 $125 $191 reversed $182 $-1 #
edge $-1 $261 -48.052003540147098 $192 48.052003540147098 $190 $262 forward 7 unknown #
vertex $-1 $127 $263 #
vertex $-1 $204 $264 #
straight-curve $-1 48.052003540147098 0 -6.2066798196318667 0 -1 0 I I #
coedge $-1 $184 $186 $128 $196 reversed $121 $-1 #
edge $-1 $199 -24.787835805508784 $202 24.787835805508784 $195 $265 forward 7 unknown #
coedge $-1 $190 $129 $134 $205 forward $182 $-1 #
coedge $-1 $129 $190 $184 $256 reversed $182 $-1 #
vertex $-1 $130 $266 #
straight-curve $-1 0 24.787835805508784 6.2066798196318667 -1 0 0 I I #
coedge $-1 $131 $185 $133 $204 reversed $76 $-1 #
vertex $-1 $196 $267 #
straight-curve $-1 0 -24.787835805508784 6.2066798196318667 1 0 0 I I #
edge $-1 $136 -6.2066798196318667 $193 6.2066798196318667 $133 $268 forward 7 unknown #
edge $-1 $137 -6.2066798196318667 $192 6.2066798196318667 $134 $269 forward 7 unknown #
point $-1 48.052003540147098 -24.787835805508784 6.2066798196318667 #
point $-1 48.052003540147098 24.787835805508784 6.2066798196318667 #
plane-surface $-1 0 0 6.2066798196318667 0 0 1 1 0 0 forward_v I I I I #
coedge $-1 $219 $218 $211 $270 forward $140 $-1 #
coedge $-1 $211 $142 $144 $215 reversed $84 $-1 #
coedge $-1 $142 $210 $209 $270 reversed $84 $-1 #
coedge $-1 $150 $145 $142 $213 forward $151 $-1 #
edge $-1 $216 -26.201527189627061 $271 -19.759148749523185 $212 $272 forward 7 unknown #
coedge $-1 $144 $143 $219 $273 reversed $53 $-1 #
edge $-1 $274 -9.5519457560449789e-015 $216 8.6690753700422203 $210 $275 forward 7 unknown #
vertex $-1 $146 $276 #
straight-curve $-1 0.56875141837562992 -18.345457365404908 6.2066798196318667 -1 0 0 I I #
coedge $-1 $209 $147 $150 $223 reversed $140 $-1 #
coedge $-1 $147 $209 $214 $273 forward $140 $-1 #
vertex $-1 $148 $277 #
straight-curve $-1 8.4043290076698938 -24.787835805508784 35.912565481964663 0 0 1 I I #
straight-curve $-1 8.4043290076698938 -24.787835805508777 0.40593609094004535 0 -0.74314481823134659 -0.66913061440640931 I I #
edge $-1 $271 -6.1293233341673741 $152 8.4043290076698938 $218 $278 forward 7 unknown #
point $-1 8.4043290076698938 -24.787835805508784 6.2066798196318667 #
point $-1 8.4043290076698938 -18.345457365404908 6.2066798196318667 #
edge $-1 $279 1 $279 0 $155 $-1 forward 7 unknown #
vertex $-1 $156 $280 #
ellipse-curve $-1 -1.9768512364995843 -19.673427820796739 1.203675547734826 0 -0.66913061440640931 0.74314481823134659 1 0 0 1 I I #
point $-1 -0.97685123649958427 -21.566646585456859 3.3063079552859644 #
edge $-1 $281 1 $281 0 $159 $-1 forward 7 unknown #
vertex $-1 $160 $282 #
ellipse-curve $-1 4.251856910002104 -19.673427820796739 1.203675547734826 0 -0.66913061440640931 0.74314481823134659 1 0 0 1 I I #
point $-1 5.251856910002104 -21.566646585456859 3.3063079552859644 #
loop $-1 $-1 $237 $163 #
plane-surface $-1 -48.052003540147098 0 0 1 0 0 0 0 -1 forward_v I I I I #
coedge $-1 $167 $166 $243 $283 reversed $67 $-1 #
coedge $-1 $284 $285 $167 $238 forward $234 $-1 #
edge $-1 $240 -34.495792552885376 $286 -25.782617211597419 $237 $287 forward 7 unknown #
coedge $-1 $173 $168 $285 $288 reversed $106 $-1 #
vertex $-1 $169 $289 #
straight-curve $-1 -18.910421871112028 24.787835805508784 1.0852037879542653 -1 0 0 I I #
coedge $-1 $290 $170 $173 $247 forward $164 $-1 #
coedge $-1 $170 $290 $236 $283 forward $164 $-1 #
vertex $-1 $171 $291 #
straight-curve $-1 -27.589683944301015 20.584397002403097 6.2066798196318658 0 1 0 I I #
straight-curve $-1 -27.589683944301015 -15.319724764878778 30.225052805685067 0 -0.80901698891910034 0.5877852598018023 I I #
edge $-1 $174 27.589683944301015 $292 48.052003540147098 $173 $293 forward 7 unknown #
point $-1 -27.589683944301015 24.787835805508784 6.2066798196318667 #
point $-1 -27.589683944301015 24.787835805508784 1.0852037879542671 #
edge $-1 $294 1 $294 0 $177 $-1 forward 7 unknown #
vertex $-1 $178 $295 #
ellipse-curve $-1 -37.820843742224056 19.03725220976736 0.58207420180227987 0 0.5877852598018023 0.80901698891910034 1.5 0 0 1 I I #
point $-1 -36.320843742224056 21.263282366242318 3.6459418037930753 #
plane-surface $-1 48.052003540147098 0 0 -1 0 0 0 0 1 forward_v I I I I #
coedge $-1 $186 $184 $188 $259 reversed $121 $-1 #
edge $-1 $199 -6.2066798196318667 $261 6.2066798196318667 $198 $296 forward 7 unknown #
vertex $-1 $259 $297 #
straight-curve $-1 -48.052003540147098 -24.787835805508784 0 0 0 -1 I I #
edge $-1 $257 -24.787835805508784 $261 24.787835805508784 $255 $298 forward 7 unknown #
straight-curve $-1 0 -24.787835805508784 -6.2066798196318667 -1 0 0 I I #
vertex $-1 $191 $299 #
straight-curve $-1 0 24.787835805508784 -6.2066798196318667 1 0 0 I I #
point $-1 48.052003540147098 24.787835805508784 -6.2066798196318667 #
point $-1 48.052003540147098 -24.787835805508784 -6.2066798196318667 #
straight-curve $-1 -48.052003540147098 0 6.2066798196318667 0 -1 0 I I #
point $-1 -48.052003540147098 24.787835805508784 6.2066798196318667 #
point $-1 -48.052003540147098 -24.787835805508784 6.2066798196318667 #
straight-curve $-1 48.052003540147098 -24.787835805508784 0 0 0 -1 I I #
straight-curve $-1 48.052003540147098 24.787835805508784 0 0 0 -1 I I #
edge $-1 $271 29.705885662332797 $274 35.506629391024624 $209 $300 forward 7 unknown #
vertex $-1 $223 $301 #
straight-curve $-1 -6.1293233341673741 -44.546984555031969 6.2066798196318658 0 -1 0 I I #
edge $-1 $274 -6.698074752543004 $220 7.8355775892942638 $219 $302 forward 7 unknown #
vertex $-1 $273 $303 #
straight-curve $-1 -6.1293233341673741 -24.787835805508777 0.40593609094004535 0 0.74314481823134659 0.66913061440640931 I I #
point $-1 -6.1293233341673741 -18.345457365404908 6.2066798196318667 #
point $-1 8.4043290076698938 -24.787835805508784 0.40593609094003896 #
straight-curve $-1 0 -24.787835805508784 6.2066798196318667 1 0 0 I I #
vertex $-1 $226 $304 #
point $-1 -0.97685123649958427 -19.673427820796739 1.203675547734826 #
vertex $-1 $230 $305 #
point $-1 5.251856910002104 -19.673427820796739 1.203675547734826 #
edge $-1 $286 -29.14158166903507 $244 -8.6792620731889869 $243 $306 forward 7 unknown #
coedge $-1 $285 $237 $290 $307 reversed $234 $-1 #
coedge $-1 $237 $284 $239 $288 forward $234 $-1 #
vertex $-1 $238 $308 #
straight-curve $-1 -48.052003540147098 -3.119846416004469 21.361322175721075 0 -0.80901698891910034 0.5877852598018023 I I #
edge $-1 $292 -6.2066798196318667 $240 -1.0852037879542678 $239 $309 forward 7 unknown #
point $-1 -48.052003540147098 24.787835805508784 1.0852037879542678 #
coedge $-1 $243 $242 $284 $307 forward $164 $-1 #
point $-1 -27.589683944301015 17.738728926975845 6.2066798196318658 #
vertex $-1 $247 $310 #
straight-curve $-1 0 24.787835805508784 6.2066798196318667 -1 0 0 I I #
vertex $-1 $250 $311 #
point $-1 -36.320843742224056 19.03725220976736 0.58207420180227987 #
straight-curve $-1 -48.052003540147098 24.787835805508784 0 0 0 -1 I I #
point $-1 -48.052003540147098 -24.787835805508784 -6.2066798196318667 #
straight-curve $-1 -48.052003540147098 0 -6.2066798196318667 0 1 0 I I #
point $-1 -48.052003540147098 24.787835805508784 -6.2066798196318667 #
straight-curve $-1 -6.1293233341673741 -24.787835805508784 35.912565481964663 0 0 -1 I I #
point $-1 -6.1293233341673741 -24.787835805508784 6.2066798196318667 #
straight-curve $-1 0.56875141837562992 -24.787835805508784 0.4059360909400393 1 0 0 I I #
point $-1 -6.1293233341673741 -24.787835805508784 0.40593609094003896 #
point $-1 -1.9768512364995843 -19.004297206390326 0.46053072950347934 #
point $-1 4.251856910002104 -19.004297206390326 0.46053072950347934 #
straight-curve $-1 -18.910421871112028 17.738728926975849 6.2066798196318658 1 0 0 I I #
edge $-1 $292 -24.787835805508784 $286 -17.738728926975845 $284 $312 forward 7 unknown #
point $-1 -48.052003540147098 17.738728926975845 6.2066798196318658 #
straight-curve $-1 -48.052003540147098 24.787835805508784 0 0 0 -1 I I #
point $-1 -48.052003540147098 24.787835805508784 6.2066798196318667 #
point $-1 -37.820843742224056 18.155574320064659 -0.63145128157637098 #
straight-curve $-1 -48.052003540147098 0 6.2066798196318667 0 -1 0 I I #
End-of-ACIS-data 