500 0 13 0           
7 Unknown 11 ACIS 5.0 NT 24 Thu Mar 25 15:47:39 1999 
-1 9.9999999999999995e-007 1e-010 
body $-1 $13 $-1 $14 #
body $-1 $15 $-1 $16 #
body $-1 $17 $-1 $18 #
body $-1 $19 $-1 $20 #
body $-1 $21 $-1 $22 #
body $-1 $23 $-1 $24 #
body $-1 $25 $-1 $26 #
body $-1 $27 $-1 $28 #
body $-1 $29 $-1 $30 #
body $-1 $31 $-1 $32 #
body $-1 $33 $-1 $34 #
body $-1 $35 $-1 $36 #
body $-1 $37 $-1 $38 #
lump $-1 $-1 $39 $0 #
transform $-1 1 0 0 0 1 0 0 0 1 53.982360301522874 24.365127038769877 5.0735709188583256 1 rotate no_reflect no_shear #
lump $-1 $-1 $40 $1 #
transform $-1 1 0 0 0 1 0 0 0 1 53.982360301522874 24.365127038769877 5.0735709188583256 1 rotate no_reflect no_shear #
lump $-1 $-1 $41 $2 #
transform $-1 1 0 0 0 1 0 0 0 1 53.982360301522874 24.365127038769877 5.0735709188583256 1 rotate no_reflect no_shear #
lump $-1 $-1 $42 $3 #
transform $-1 1 0 0 0 1 0 0 0 1 53.982360301522874 24.365127038769877 5.0735709188583256 1 rotate no_reflect no_shear #
lump $-1 $-1 $43 $4 #
transform $-1 1 0 0 0 1 0 0 0 1 53.982360301522874 24.365127038769877 5.0735709188583256 1 rotate no_reflect no_shear #
lump $-1 $-1 $44 $5 #
transform $-1 1 0 0 0 1 0 0 0 1 53.982360301522874 24.365127038769877 5.0735709188583256 1 rotate no_reflect no_shear #
lump $-1 $-1 $45 $6 #
transform $-1 1 0 0 0 1 0 0 0 1 53.982360301522874 24.365127038769877 5.0735709188583256 1 rotate no_reflect no_shear #
lump $-1 $-1 $46 $7 #
transform $-1 1 0 0 0 1 0 0 0 1 53.982360301522874 24.365127038769877 5.0735709188583256 1 rotate no_reflect no_shear #
lump $-1 $-1 $47 $8 #
transform $-1 1 0 0 0 1 0 0 0 1 53.982360301522874 24.365127038769877 5.0735709188583256 1 rotate no_reflect no_shear #
lump $-1 $-1 $48 $9 #
transform $-1 1 0 0 0 1 0 0 0 1 53.982360301522874 24.365127038769877 5.0735709188583256 1 rotate no_reflect no_shear #
lump $-1 $-1 $49 $10 #
transform $-1 1 0 0 0 1 0 0 0 1 53.982360301522874 24.365127038769877 5.0735709188583256 1 rotate no_reflect no_shear #
lump $-1 $-1 $50 $11 #
transform $-1 1 0 0 0 1 0 0 0 1 53.982360301522874 24.365127038769877 5.0735709188583256 1 rotate no_reflect no_shear #
lump $-1 $-1 $51 $12 #
transform $-1 1 0 0 0 1 0 0 0 1 53.982360301522874 24.365127038769877 5.0735709188583256 1 rotate no_reflect no_shear #
shell $-1 $-1 $-1 $52 $-1 $13 #
shell $-1 $-1 $-1 $53 $-1 $15 #
shell $-1 $-1 $-1 $54 $-1 $17 #
shell $-1 $-1 $-1 $55 $-1 $19 #
shell $-1 $-1 $-1 $56 $-1 $21 #
shell $-1 $-1 $-1 $57 $-1 $23 #
shell $-1 $-1 $-1 $58 $-1 $25 #
shell $-1 $-1 $-1 $59 $-1 $27 #
shell $-1 $-1 $-1 $60 $-1 $29 #
shell $-1 $-1 $-1 $61 $-1 $31 #
shell $-1 $-1 $-1 $62 $-1 $33 #
shell $-1 $-1 $-1 $63 $-1 $35 #
shell $-1 $-1 $-1 $64 $-1 $37 #
face $-1 $65 $66 $39 $-1 $67 forward single #
face $-1 $68 $69 $40 $-1 $70 forward single #
face $-1 $71 $72 $41 $-1 $73 forward single #
face $-1 $74 $75 $42 $-1 $76 reversed single #
face $-1 $77 $78 $43 $-1 $79 forward single #
face $-1 $80 $81 $44 $-1 $82 reversed single #
face $-1 $83 $84 $45 $-1 $85 forward single #
face $-1 $86 $87 $46 $-1 $88 reversed single #
face $-1 $89 $90 $47 $-1 $91 forward single #
face $-1 $92 $93 $48 $-1 $94 reversed single #
face $-1 $95 $96 $49 $-1 $97 forward single #
face $-1 $98 $99 $50 $-1 $100 reversed single #
face $-1 $101 $102 $51 $-1 $103 forward single #
face $-1 $104 $105 $39 $-1 $106 reversed single #
loop $-1 $-1 $107 $52 #
plane-surface $-1 0 0 5.0735709188583256 0 0 1 1 0 0 forward_v I I I I #
face $-1 $108 $109 $40 $-1 $110 reversed single #
loop $-1 $-1 $111 $53 #
plane-surface $-1 0 -24.365127038769877 0 0 1 0 0 0 1 forward_v I I I I #
face $-1 $112 $113 $41 $-1 $114 reversed single #
loop $-1 $-1 $115 $54 #
plane-surface $-1 0 24.365127038769877 0 0 -1 0 0 0 -1 forward_v I I I I #
face $-1 $116 $117 $42 $-1 $118 reversed single #
loop $-1 $-1 $119 $55 #
plane-surface $-1 -143.48917106356623 -18.848929138905685 61.897068491818658 0 1 0 -0.82903758062907751 0 0.55919289150049634 forward_v I I I I #
face $-1 $120 $121 $43 $-1 $122 forward single #
loop $-1 $123 $124 $56 #
cone-surface $-1 -52.255880366750617 -15.637949295775204 2.9417097479375394 0.82903758062907751 0 -0.55919289150049634 0.55919289150049634 0 0.82903758062907751 1 I I 0 1 1 forward I I I I #
face $-1 $125 $126 $44 $-1 $127 reversed single #
loop $-1 $-1 $128 $57 #
plane-surface $-1 -143.48917106356623 -8.4236296083888824 61.897068491818658 0 1 0 -0.82903758062907751 0 0.55919289150049634 forward_v I I I I #
face $-1 $129 $130 $45 $-1 $131 forward single #
loop $-1 $132 $133 $58 #
cone-surface $-1 -52.255880366750617 -5.2126497652584014 2.9417097479375394 0.82903758062907751 0 -0.55919289150049634 0.55919289150049634 0 0.82903758062907751 1 I I 0 1 1 forward I I I I #
face $-1 $134 $135 $46 $-1 $136 reversed single #
loop $-1 $-1 $137 $59 #
plane-surface $-1 -143.48917106356623 2.0016699221279199 61.897068491818658 0 1 0 -0.82903758062907751 0 0.55919289150049634 forward_v I I I I #
face $-1 $138 $139 $47 $-1 $140 forward single #
loop $-1 $141 $142 $60 #
cone-surface $-1 -52.255880366750617 5.2126497652584014 2.9417097479375394 0.82903758062907751 0 -0.55919289150049634 0.55919289150049634 0 0.82903758062907751 1 I I 0 1 1 forward I I I I #
face $-1 $143 $144 $48 $-1 $145 reversed single #
loop $-1 $-1 $146 $61 #
plane-surface $-1 -143.48917106356623 12.426969452644727 61.897068491818658 0 1 0 -0.82903758062907751 0 0.55919289150049634 forward_v I I I I #
face $-1 $147 $148 $49 $-1 $149 forward single #
loop $-1 $150 $151 $62 #
cone-surface $-1 -52.255880366750617 15.637949295775208 2.9417097479375394 0.82903758062907751 0 -0.55919289150049634 0.55919289150049634 0 0.82903758062907751 1 I I 0 1 1 forward I I I I #
face $-1 $152 $153 $50 $-1 $154 reversed single #
loop $-1 $-1 $155 $63 #
plane-surface $-1 22.237329270945821 -9.3475204379797141 150.72730311257871 0 -1 0 -0.54463904215088732 0 -0.83867056331134215 forward_v I I I I #
face $-1 $156 $157 $51 $-1 $158 forward single #
loop $-1 $159 $160 $64 #
cone-surface $-1 50.488582748140459 -12.861350846394531 2.2268212540823082 -0.54463904215088732 0 -0.83867056331134215 1.2580058449670133 0 -0.81695856322633098 1 I I 0 1 1.5 forward I I I I #
face $-1 $161 $162 $39 $-1 $163 reversed single #
loop $-1 $-1 $164 $65 #
plane-surface $-1 0 0 -5.0735709188583256 0 0 1 1 0 0 forward_v I I I I #
coedge $-1 $165 $166 $167 $168 forward $66 $-1 #
face $-1 $169 $170 $40 $-1 $171 forward single #
loop $-1 $-1 $172 $68 #
plane-surface $-1 -53.982360301522874 0 0 1 0 0 0 0 -1 forward_v I I I I #
coedge $-1 $173 $174 $175 $176 forward $69 $-1 #
face $-1 $177 $178 $41 $-1 $179 forward single #
loop $-1 $-1 $180 $71 #
plane-surface $-1 53.982360301522874 0 0 -1 0 0 0 0 1 forward_v I I I I #
coedge $-1 $181 $182 $183 $184 forward $72 $-1 #
face $-1 $185 $186 $42 $-1 $187 reversed single #
loop $-1 $-1 $188 $74 #
plane-surface $-1 -53.98236030152286 -15.637949295775204 1.5239641977582963 -0.82903758062907751 0 0.55919289150049634 0.55919289150049634 0 0.82903758062907751 forward_v I I I I #
coedge $-1 $189 $190 $191 $192 reversed $75 $-1 #
face $-1 $-1 $193 $43 $-1 $194 forward single #
loop $-1 $195 $196 $77 #
cone-surface $-1 -51.312001586790643 -15.637949295775204 2.3050554918165176 0.82903758062907751 0 -0.55919289150049634 0.27959644575024817 0 0.41451879031453875 1 I I -0.70710678118654746 0.70710678118654746 0.5 forward I I I I #
loop $-1 $-1 $197 $56 #
coedge $-1 $124 $124 $198 $199 reversed $78 $-1 #
face $-1 $200 $201 $44 $-1 $202 reversed single #
loop $-1 $-1 $203 $80 #
plane-surface $-1 -53.98236030152286 -5.2126497652584014 1.5239641977582963 -0.82903758062907751 0 0.55919289150049634 0.55919289150049634 0 0.82903758062907751 forward_v I I I I #
coedge $-1 $204 $205 $206 $207 reversed $81 $-1 #
face $-1 $-1 $208 $45 $-1 $209 forward single #
loop $-1 $210 $211 $83 #
cone-surface $-1 -51.312001586790643 -5.2126497652584014 2.3050554918165176 0.82903758062907751 0 -0.55919289150049634 0.27959644575024817 0 0.41451879031453875 1 I I -0.70710678118654746 0.70710678118654746 0.5 forward I I I I #
loop $-1 $-1 $212 $58 #
coedge $-1 $133 $133 $213 $214 reversed $84 $-1 #
face $-1 $215 $216 $46 $-1 $217 reversed single #
loop $-1 $-1 $218 $86 #
plane-surface $-1 -53.98236030152286 5.2126497652584014 1.5239641977582963 -0.82903758062907751 0 0.55919289150049634 0.55919289150049634 0 0.82903758062907751 forward_v I I I I #
coedge $-1 $219 $220 $221 $222 reversed $87 $-1 #
face $-1 $-1 $223 $47 $-1 $224 forward single #
loop $-1 $225 $226 $89 #
cone-surface $-1 -51.312001586790643 5.2126497652584014 2.3050554918165176 0.82903758062907751 0 -0.55919289150049634 0.27959644575024817 0 0.41451879031453875 1 I I -0.70710678118654746 0.70710678118654746 0.5 forward I I I I #
loop $-1 $-1 $227 $60 #
coedge $-1 $142 $142 $228 $229 reversed $90 $-1 #
face $-1 $230 $231 $48 $-1 $232 reversed single #
loop $-1 $-1 $233 $92 #
plane-surface $-1 -53.98236030152286 15.637949295775208 1.5239641977582963 -0.82903758062907751 0 0.55919289150049634 0.55919289150049634 0 0.82903758062907751 forward_v I I I I #
coedge $-1 $234 $235 $236 $237 reversed $93 $-1 #
face $-1 $-1 $238 $49 $-1 $239 forward single #
loop $-1 $240 $241 $95 #
cone-surface $-1 -51.312001586790643 15.637949295775208 2.3050554918165176 0.82903758062907751 0 -0.55919289150049634 0.27959644575024817 0 0.41451879031453875 1 I I -0.70710678118654746 0.70710678118654746 0.5 forward I I I I #
loop $-1 $-1 $242 $62 #
coedge $-1 $151 $151 $243 $244 reversed $96 $-1 #
face $-1 $245 $246 $50 $-1 $247 reversed single #
loop $-1 $-1 $248 $98 #
plane-surface $-1 -36.564472744385185 -12.861350846394529 60.180470066670665 0.54463904215088732 0 0.83867056331134215 0.83867056331134215 0 -0.54463904215088732 forward_v I I I I #
coedge $-1 $249 $250 $251 $252 reversed $99 $-1 #
face $-1 $-1 $253 $51 $-1 $254 forward single #
loop $-1 $255 $256 $101 #
cone-surface $-1 49.431151595347856 -12.861350846394531 0.59852010058211125 -0.54463904215088732 0 -0.83867056331134215 0.62900292248350664 0 -0.40847928161316549 1 I I -0.70710678118654746 0.70710678118654768 0.75 forward I I I I #
loop $-1 $-1 $257 $64 #
coedge $-1 $160 $160 $258 $259 reversed $102 $-1 #
face $-1 $260 $261 $39 $-1 $262 reversed single #
loop $-1 $-1 $263 $104 #
plane-surface $-1 0 -24.365127038769877 0 0 1 0 0 0 1 forward_v I I I I #
coedge $-1 $264 $265 $266 $267 forward $105 $-1 #
coedge $-1 $268 $107 $269 $270 forward $66 $-1 #
coedge $-1 $107 $268 $271 $272 forward $66 $-1 #
coedge $-1 $273 $274 $107 $168 reversed $275 $-1 #
edge $-1 $276 -24.365127038769877 $277 24.365127038769877 $167 $278 forward 7 unknown #
face $-1 $279 $280 $40 $-1 $281 reversed single #
loop $-1 $-1 $282 $108 #
plane-surface $-1 0 -26.123152574867142 2.0192349359015012 0 0 1 1 0 0 forward_v I I I I #
coedge $-1 $283 $284 $174 $285 forward $109 $-1 #
coedge $-1 $286 $111 $287 $288 reversed $69 $-1 #
coedge $-1 $111 $286 $172 $285 reversed $69 $-1 #
coedge $-1 $289 $282 $111 $176 reversed $170 $-1 #
edge $-1 $290 -53.982360301522874 $291 53.982360301522874 $175 $292 forward 7 unknown #
face $-1 $293 $294 $41 $-1 $295 reversed single #
loop $-1 $-1 $296 $112 #
plane-surface $-1 0 26.123152574867142 2.0192349359015012 0 0 1 1 0 0 forward_v I I I I #
coedge $-1 $297 $298 $182 $299 forward $113 $-1 #
coedge $-1 $300 $115 $301 $302 reversed $72 $-1 #
coedge $-1 $115 $300 $180 $299 reversed $72 $-1 #
coedge $-1 $296 $303 $115 $184 reversed $178 $-1 #
edge $-1 $304 -53.982360301522874 $305 53.982360301522874 $183 $306 forward 7 unknown #
face $-1 $307 $308 $42 $-1 $309 reversed single #
loop $-1 $-1 $310 $116 #
plane-surface $-1 -143.48917106356623 -12.426969452644723 61.897068491818658 0 -1 0 0.82903758062907751 0 -0.55919289150049634 forward_v I I I I #
coedge $-1 $311 $312 $313 $314 reversed $117 $-1 #
coedge $-1 $190 $119 $315 $316 reversed $75 $-1 #
coedge $-1 $119 $189 $311 $317 reversed $75 $-1 #
coedge $-1 $313 $318 $119 $192 forward $319 $-1 #
edge $-1 $320 17.762225230260242 $321 20.156465120513914 $191 $322 forward 7 unknown #
loop $-1 $-1 $198 $120 #
plane-surface $-1 -53.98236030152286 -15.637949295775204 1.5239641977582963 -0.82903758062907751 0 0.55919289150049634 0.55919289150049634 0 0.82903758062907751 forward_v I I I I #
loop $-1 $-1 $323 $77 #
coedge $-1 $196 $196 $197 $324 reversed $121 $-1 #
coedge $-1 $197 $197 $196 $324 forward $123 $-1 #
coedge $-1 $198 $198 $124 $199 forward $193 $-1 #
edge $-1 $325 0 $325 6.2831853071796004 $198 $326 forward 7 unknown #
face $-1 $327 $328 $44 $-1 $329 forward single #
loop $-1 $-1 $330 $125 #
plane-surface $-1 -143.48917106356623 -2.0016699221279199 61.897068491818658 0 -1 0 0.82903758062907751 0 -0.55919289150049634 forward_v I I I I #
coedge $-1 $331 $332 $333 $334 reversed $126 $-1 #
coedge $-1 $205 $128 $335 $336 reversed $81 $-1 #
coedge $-1 $128 $204 $331 $337 reversed $81 $-1 #
coedge $-1 $333 $338 $128 $207 forward $328 $-1 #
edge $-1 $339 17.762225230260242 $340 20.156465120513914 $206 $341 forward 7 unknown #
loop $-1 $-1 $213 $129 #
plane-surface $-1 -53.98236030152286 -5.2126497652584014 1.5239641977582963 -0.82903758062907751 0 0.55919289150049634 0.55919289150049634 0 0.82903758062907751 forward_v I I I I #
loop $-1 $-1 $342 $83 #
coedge $-1 $211 $211 $212 $343 reversed $130 $-1 #
coedge $-1 $212 $212 $211 $343 forward $132 $-1 #
coedge $-1 $213 $213 $133 $214 forward $208 $-1 #
edge $-1 $344 0 $344 6.2831853071796004 $213 $345 forward 7 unknown #
face $-1 $346 $347 $46 $-1 $348 forward single #
loop $-1 $-1 $349 $134 #
plane-surface $-1 -143.48917106356623 8.4236296083888824 61.897068491818658 0 -1 0 0.82903758062907751 0 -0.55919289150049634 forward_v I I I I #
coedge $-1 $350 $351 $352 $353 reversed $135 $-1 #
coedge $-1 $220 $137 $354 $355 reversed $87 $-1 #
coedge $-1 $137 $219 $350 $356 reversed $87 $-1 #
coedge $-1 $352 $357 $137 $222 forward $347 $-1 #
edge $-1 $358 17.762225230260242 $359 20.156465120513914 $221 $360 forward 7 unknown #
loop $-1 $-1 $228 $138 #
plane-surface $-1 -53.98236030152286 5.2126497652584014 1.5239641977582963 -0.82903758062907751 0 0.55919289150049634 0.55919289150049634 0 0.82903758062907751 forward_v I I I I #
loop $-1 $-1 $361 $89 #
coedge $-1 $226 $226 $227 $362 reversed $139 $-1 #
coedge $-1 $227 $227 $226 $362 forward $141 $-1 #
coedge $-1 $228 $228 $142 $229 forward $223 $-1 #
edge $-1 $363 0 $363 6.2831853071796004 $228 $364 forward 7 unknown #
face $-1 $365 $366 $48 $-1 $367 forward single #
loop $-1 $-1 $368 $143 #
plane-surface $-1 -143.48917106356623 18.848929138905689 61.897068491818658 0 -1 0 0.82903758062907751 0 -0.55919289150049634 forward_v I I I I #
coedge $-1 $369 $370 $371 $372 reversed $144 $-1 #
coedge $-1 $235 $146 $373 $374 reversed $93 $-1 #
coedge $-1 $146 $234 $369 $375 reversed $93 $-1 #
coedge $-1 $371 $376 $146 $237 forward $366 $-1 #
edge $-1 $377 17.762225230260242 $378 20.156465120513914 $236 $379 forward 7 unknown #
loop $-1 $-1 $243 $147 #
plane-surface $-1 -53.98236030152286 15.637949295775208 1.5239641977582963 -0.82903758062907751 0 0.55919289150049634 0.55919289150049634 0 0.82903758062907751 forward_v I I I I #
loop $-1 $-1 $380 $95 #
coedge $-1 $241 $241 $242 $381 reversed $148 $-1 #
coedge $-1 $242 $242 $241 $381 forward $150 $-1 #
coedge $-1 $243 $243 $151 $244 forward $238 $-1 #
edge $-1 $382 0 $382 6.2831853071796004 $243 $383 forward 7 unknown #
face $-1 $384 $385 $50 $-1 $386 forward single #
loop $-1 $-1 $387 $152 #
plane-surface $-1 22.237329270945821 -16.375181254809345 150.72730311257871 0 1 0 0.54463904215088732 0 0.83867056331134215 forward_v I I I I #
coedge $-1 $388 $389 $390 $391 reversed $153 $-1 #
coedge $-1 $250 $155 $392 $393 reversed $99 $-1 #
coedge $-1 $155 $249 $388 $394 reversed $99 $-1 #
coedge $-1 $390 $395 $155 $252 forward $385 $-1 #
edge $-1 $396 -42.863695666049964 $397 -37.17404430164396 $251 $398 forward 7 unknown #
loop $-1 $-1 $258 $156 #
plane-surface $-1 -36.564472744385185 -12.861350846394529 60.180470066670665 0.54463904215088732 0 0.83867056331134215 0.83867056331134215 0 -0.54463904215088732 forward_v I I I I #
loop $-1 $-1 $399 $101 #
coedge $-1 $256 $256 $257 $400 reversed $157 $-1 #
coedge $-1 $257 $257 $256 $400 forward $159 $-1 #
coedge $-1 $258 $258 $160 $259 forward $253 $-1 #
edge $-1 $401 0 $401 6.2831853071796004 $258 $402 forward 7 unknown #
face $-1 $403 $404 $39 $-1 $405 reversed single #
loop $-1 $-1 $406 $161 #
plane-surface $-1 -53.982360301522874 0 0 1 0 0 0 0 -1 forward_v I I I I #
coedge $-1 $407 $271 $408 $409 forward $162 $-1 #
coedge $-1 $410 $164 $407 $411 forward $105 $-1 #
coedge $-1 $164 $410 $412 $413 forward $105 $-1 #
coedge $-1 $274 $273 $164 $267 reversed $275 $-1 #
edge $-1 $414 -24.365127038769877 $415 24.365127038769877 $266 $416 forward 7 unknown #
coedge $-1 $166 $165 $417 $418 forward $66 $-1 #
coedge $-1 $419 $420 $165 $270 reversed $404 $-1 #
edge $-1 $277 -53.982360301522874 $421 53.982360301522874 $269 $422 forward 7 unknown #
coedge $-1 $263 $423 $166 $272 reversed $162 $-1 #
edge $-1 $424 -53.982360301522874 $276 53.982360301522874 $271 $425 forward 7 unknown #
coedge $-1 $266 $167 $423 $426 forward $275 $-1 #
coedge $-1 $167 $266 $419 $427 reversed $275 $-1 #
loop $-1 $-1 $273 $403 #
vertex $-1 $168 $428 #
vertex $-1 $168 $429 #
straight-curve $-1 53.982360301522874 0 5.0735709188583256 0 1 0 I I #
face $-1 $430 $431 $40 $-1 $432 reversed single #
loop $-1 $-1 $433 $169 #
plane-surface $-1 0 -26.123152574867142 -0.98076506409849884 0 0 1 1 0 0 forward_v I I I I #
coedge $-1 $175 $434 $435 $436 forward $170 $-1 #
coedge $-1 $437 $172 $438 $439 reversed $109 $-1 #
coedge $-1 $172 $437 $289 $440 reversed $109 $-1 #
edge $-1 $290 -2.0192349359015012 $441 0.98076506409849884 $172 $442 forward 7 unknown #
coedge $-1 $174 $173 $443 $444 forward $69 $-1 #
coedge $-1 $435 $445 $173 $288 forward $446 $-1 #
edge $-1 $447 -0.98076506409849884 $291 2.0192349359015012 $287 $448 forward 7 unknown #
coedge $-1 $434 $175 $284 $440 forward $170 $-1 #
vertex $-1 $285 $449 #
vertex $-1 $436 $450 #
straight-curve $-1 0 -24.365127038769877 2.0192349359015012 1 0 0 I I #
face $-1 $451 $452 $41 $-1 $453 reversed single #
loop $-1 $-1 $454 $177 #
plane-surface $-1 0 26.123152574867142 -0.98076506409849884 0 0 1 1 0 0 forward_v I I I I #
coedge $-1 $455 $183 $298 $456 forward $178 $-1 #
coedge $-1 $457 $180 $454 $458 reversed $113 $-1 #
coedge $-1 $180 $457 $296 $456 reversed $113 $-1 #
edge $-1 $304 -2.0192349359015012 $459 0.98076506409849884 $180 $460 forward 7 unknown #
coedge $-1 $182 $181 $461 $462 forward $72 $-1 #
coedge $-1 $463 $464 $181 $302 forward $465 $-1 #
edge $-1 $466 -0.98076506409849884 $305 2.0192349359015012 $301 $467 forward 7 unknown #
coedge $-1 $183 $455 $463 $468 forward $178 $-1 #
vertex $-1 $299 $469 #
vertex $-1 $468 $470 #
straight-curve $-1 0 24.365127038769877 2.0192349359015012 -1 0 0 I I #
face $-1 $-1 $319 $42 $-1 $471 forward single #
loop $-1 $-1 $472 $185 #
plane-surface $-1 -53.982360301522874 0 0 1 0 0 0 0 -1 forward_v I I I I #
coedge $-1 $473 $474 $475 $476 reversed $186 $-1 #
coedge $-1 $477 $188 $190 $317 forward $117 $-1 #
coedge $-1 $188 $477 $473 $478 forward $117 $-1 #
coedge $-1 $475 $191 $188 $314 forward $319 $-1 #
edge $-1 $321 -11.029954491018083 $479 -4.6079948047571211 $313 $480 forward 7 unknown #
coedge $-1 $481 $482 $189 $316 forward $308 $-1 #
edge $-1 $483 -29.424570048151054 $320 -25.874963327051002 $315 $484 forward 7 unknown #
edge $-1 $321 -4.2815992954222555 $483 2.5434524534472062e-014 $190 $485 forward 7 unknown #
coedge $-1 $191 $475 $481 $486 forward $319 $-1 #
loop $-1 $-1 $475 $307 #
vertex $-1 $316 $487 #
vertex $-1 $192 $488 #
straight-curve $-1 -71.744585531783116 -18.848929138905685 5.0735709188583265 1 0 0 I I #
coedge $-1 $323 $323 $-1 $489 reversed $195 $-1 #
edge $-1 $490 0 $490 6.2831853071796004 $196 $491 forward 7 unknown #
vertex $-1 $199 $492 #
ellipse-curve $-1 -52.785240356396038 -15.637949295775204 3.2987675583083038 -0.82903758062907751 0 0.55919289150049634 0.55919289150049634 0 0.82903758062907751 1 I I #
face $-1 $-1 $493 $44 $-1 $494 reversed single #
loop $-1 $-1 $206 $200 #
plane-surface $-1 0 0 5.0735709188583256 0 0 1 1 0 0 forward_v I I I I #
coedge $-1 $495 $496 $497 $498 reversed $201 $-1 #
coedge $-1 $499 $203 $205 $337 forward $126 $-1 #
coedge $-1 $203 $499 $495 $500 forward $126 $-1 #
coedge $-1 $497 $206 $203 $334 forward $328 $-1 #
edge $-1 $340 -5.8173047257596817 $501 0.60465496050128076 $333 $502 forward 7 unknown #
coedge $-1 $503 $504 $204 $336 forward $493 $-1 #
edge $-1 $505 -29.424570048151054 $339 -25.874963327051002 $335 $506 forward 7 unknown #
edge $-1 $340 -4.2815992954222555 $505 2.5434524534472062e-014 $205 $507 forward 7 unknown #
coedge $-1 $206 $497 $503 $508 forward $328 $-1 #
vertex $-1 $207 $509 #
vertex $-1 $207 $510 #
straight-curve $-1 -71.744585531783116 -8.4236296083888824 5.0735709188583265 1 0 0 I I #
coedge $-1 $342 $342 $-1 $511 reversed $210 $-1 #
edge $-1 $512 0 $512 6.2831853071796004 $211 $513 forward 7 unknown #
vertex $-1 $214 $514 #
ellipse-curve $-1 -52.785240356396038 -5.2126497652584014 3.2987675583083038 -0.82903758062907751 0 0.55919289150049634 0.55919289150049634 0 0.82903758062907751 1 I I #
face $-1 $-1 $515 $46 $-1 $516 reversed single #
loop $-1 $-1 $221 $215 #
plane-surface $-1 0 0 5.0735709188583256 0 0 1 1 0 0 forward_v I I I I #
coedge $-1 $517 $518 $519 $520 reversed $216 $-1 #
coedge $-1 $521 $218 $220 $356 forward $135 $-1 #
coedge $-1 $218 $521 $517 $522 forward $135 $-1 #
coedge $-1 $519 $221 $218 $353 forward $347 $-1 #
edge $-1 $359 -0.60465496050128076 $523 5.8173047257596817 $352 $524 forward 7 unknown #
coedge $-1 $525 $526 $219 $355 forward $515 $-1 #
edge $-1 $527 -29.424570048151054 $358 -25.874963327051002 $354 $528 forward 7 unknown #
edge $-1 $359 -4.2815992954222555 $527 2.5434524534472062e-014 $220 $529 forward 7 unknown #
coedge $-1 $221 $519 $525 $530 forward $347 $-1 #
vertex $-1 $222 $531 #
vertex $-1 $222 $532 #
straight-curve $-1 -71.744585531783116 2.0016699221279199 5.0735709188583265 1 0 0 I I #
coedge $-1 $361 $361 $-1 $533 reversed $225 $-1 #
edge $-1 $534 0 $534 6.2831853071796004 $226 $535 forward 7 unknown #
vertex $-1 $229 $536 #
ellipse-curve $-1 -52.785240356396038 5.2126497652584014 3.2987675583083038 -0.82903758062907751 0 0.55919289150049634 0.55919289150049634 0 0.82903758062907751 1 I I #
face $-1 $-1 $537 $48 $-1 $538 reversed single #
loop $-1 $-1 $236 $230 #
plane-surface $-1 0 0 5.0735709188583256 0 0 1 1 0 0 forward_v I I I I #
coedge $-1 $539 $540 $541 $542 reversed $231 $-1 #
coedge $-1 $543 $233 $235 $375 forward $144 $-1 #
coedge $-1 $233 $543 $539 $544 forward $144 $-1 #
coedge $-1 $541 $236 $233 $372 forward $366 $-1 #
edge $-1 $378 4.6079948047571229 $545 11.029954491018085 $371 $546 forward 7 unknown #
coedge $-1 $547 $548 $234 $374 forward $537 $-1 #
edge $-1 $549 -29.424570048151054 $377 -25.874963327051002 $373 $550 forward 7 unknown #
edge $-1 $378 -4.2815992954222555 $549 2.5434524534472062e-014 $235 $551 forward 7 unknown #
coedge $-1 $236 $541 $547 $552 forward $366 $-1 #
vertex $-1 $237 $553 #
vertex $-1 $237 $554 #
straight-curve $-1 -71.744585531783116 12.426969452644727 5.0735709188583265 1 0 0 I I #
coedge $-1 $380 $380 $-1 $555 reversed $240 $-1 #
edge $-1 $556 0 $556 6.2831853071796004 $241 $557 forward 7 unknown #
vertex $-1 $244 $558 #
ellipse-curve $-1 -52.785240356396038 15.637949295775208 3.2987675583083038 -0.82903758062907751 0 0.55919289150049634 0.55919289150049634 0 0.82903758062907751 1 I I #
face $-1 $-1 $559 $50 $-1 $560 reversed single #
loop $-1 $-1 $251 $245 #
plane-surface $-1 0 0 5.0735709188583256 0 0 1 1 0 0 forward_v I I I I #
coedge $-1 $561 $562 $563 $564 reversed $246 $-1 #
coedge $-1 $565 $248 $250 $394 forward $153 $-1 #
coedge $-1 $248 $565 $561 $566 forward $153 $-1 #
coedge $-1 $563 $251 $248 $391 forward $385 $-1 #
edge $-1 $397 2.9168450147824494 $567 9.94450583161208 $390 $568 forward 7 unknown #
coedge $-1 $569 $570 $249 $393 forward $559 $-1 #
edge $-1 $571 -73.984983504949696 $396 -70.290080637431032 $392 $572 forward 7 unknown #
edge $-1 $397 101.18058912960829 $571 107.96472060304578 $250 $573 forward 7 unknown #
coedge $-1 $251 $563 $569 $574 forward $385 $-1 #
vertex $-1 $393 $575 #
vertex $-1 $252 $576 #
straight-curve $-1 11.118664635472911 -9.3475204379797141 5.0735709188583229 -1 0 0 I I #
coedge $-1 $399 $399 $-1 $577 reversed $255 $-1 #
edge $-1 $578 0 $578 6.2831853071796004 $256 $579 forward 7 unknown #
vertex $-1 $259 $580 #
ellipse-curve $-1 51.137534619319879 -12.861350846394531 3.2261194850989767 0.54463904215088732 0 0.83867056331134215 1.2580058449670133 0 -0.81695856322633098 1 I I #
face $-1 $-1 $275 $39 $-1 $581 reversed single #
loop $-1 $-1 $419 $260 #
plane-surface $-1 0 24.365127038769877 0 0 -1 0 0 0 -1 forward_v I I I I #
coedge $-1 $582 $417 $420 $583 forward $261 $-1 #
coedge $-1 $423 $263 $264 $411 reversed $162 $-1 #
coedge $-1 $417 $582 $263 $409 reversed $261 $-1 #
edge $-1 $424 -5.0735709188583256 $584 5.0735709188583256 $408 $585 forward 7 unknown #
coedge $-1 $265 $264 $582 $586 forward $105 $-1 #
edge $-1 $415 -53.982360301522874 $584 53.982360301522874 $407 $587 forward 7 unknown #
coedge $-1 $420 $419 $265 $413 reversed $404 $-1 #
edge $-1 $588 -53.982360301522874 $414 53.982360301522874 $412 $589 forward 7 unknown #
vertex $-1 $267 $590 #
vertex $-1 $426 $591 #
straight-curve $-1 53.982360301522874 0 -5.0735709188583256 0 -1 0 I I #
coedge $-1 $406 $408 $268 $418 reversed $261 $-1 #
edge $-1 $421 -24.365127038769877 $424 24.365127038769877 $417 $592 forward 7 unknown #
coedge $-1 $412 $269 $274 $427 forward $404 $-1 #
coedge $-1 $269 $412 $406 $583 reversed $404 $-1 #
vertex $-1 $270 $593 #
straight-curve $-1 0 24.365127038769877 5.0735709188583256 -1 0 0 I I #
coedge $-1 $271 $407 $273 $426 reversed $162 $-1 #
vertex $-1 $418 $594 #
straight-curve $-1 0 -24.365127038769877 5.0735709188583256 1 0 0 I I #
edge $-1 $276 -5.0735709188583256 $415 5.0735709188583256 $273 $595 forward 7 unknown #
edge $-1 $277 -5.0735709188583256 $414 5.0735709188583256 $274 $596 forward 7 unknown #
point $-1 53.982360301522874 -24.365127038769877 5.0735709188583256 #
point $-1 53.982360301522874 24.365127038769877 5.0735709188583256 #
face $-1 $-1 $446 $40 $-1 $597 reversed single #
loop $-1 $-1 $598 $279 #
plane-surface $-1 0 -27.881178110964406 0.51923493590150116 0 1 0 0 0 1 forward_v I I I I #
coedge $-1 $599 $443 $445 $600 forward $280 $-1 #
coedge $-1 $282 $289 $601 $602 forward $170 $-1 #
coedge $-1 $603 $287 $282 $436 reversed $446 $-1 #
edge $-1 $604 -1.7580255360972643 $291 1.7580255360972643 $435 $605 forward 7 unknown #
coedge $-1 $284 $283 $598 $606 reversed $109 $-1 #
coedge $-1 $443 $599 $283 $439 forward $280 $-1 #
edge $-1 $607 -1.7580255360972643 $441 1.7580255360972643 $283 $608 forward 7 unknown #
edge $-1 $290 -1.7580255360972643 $609 1.7580255360972643 $284 $610 forward 7 unknown #
vertex $-1 $285 $611 #
straight-curve $-1 -53.982360301522874 -24.365127038769877 0 0 0 -1 I I #
coedge $-1 $433 $438 $286 $444 reversed $280 $-1 #
edge $-1 $447 -53.982360301522874 $441 53.982360301522874 $443 $612 forward 7 unknown #
coedge $-1 $287 $603 $433 $600 reversed $446 $-1 #
loop $-1 $-1 $287 $430 #
vertex $-1 $288 $613 #
straight-curve $-1 53.982360301522874 -24.365127038769877 0 0 0 1 I I #
point $-1 -53.982360301522874 -24.365127038769877 2.0192349359015012 #
point $-1 53.982360301522874 -24.365127038769877 2.0192349359015012 #
face $-1 $-1 $465 $41 $-1 $614 reversed single #
loop $-1 $-1 $615 $293 #
plane-surface $-1 0 27.881178110964406 0.51923493590150116 0 -1 0 0 0 -1 forward_v I I I I #
coedge $-1 $461 $616 $297 $458 forward $294 $-1 #
coedge $-1 $303 $296 $617 $618 forward $178 $-1 #
edge $-1 $304 -1.7580255360972643 $619 1.7580255360972643 $298 $620 forward 7 unknown #
coedge $-1 $298 $297 $615 $621 reversed $113 $-1 #
edge $-1 $622 -1.7580255360972643 $459 1.7580255360972643 $297 $623 forward 7 unknown #
vertex $-1 $299 $624 #
straight-curve $-1 53.982360301522874 24.365127038769877 0 0 0 -1 I I #
coedge $-1 $625 $454 $300 $462 reversed $294 $-1 #
edge $-1 $466 -53.982360301522874 $459 53.982360301522874 $461 $626 forward 7 unknown #
coedge $-1 $627 $301 $303 $468 reversed $465 $-1 #
coedge $-1 $301 $627 $625 $628 reversed $465 $-1 #
loop $-1 $-1 $301 $451 #
vertex $-1 $302 $629 #
straight-curve $-1 -53.982360301522874 24.365127038769877 0 0 0 1 I I #
edge $-1 $630 -1.7580255360972643 $305 1.7580255360972643 $463 $631 forward 7 unknown #
point $-1 53.982360301522874 24.365127038769877 2.0192349359015012 #
point $-1 -53.982360301522874 24.365127038769877 2.0192349359015012 #
plane-surface $-1 0 0 5.0735709188583256 0 0 1 1 0 0 forward_v I I I I #
coedge $-1 $482 $481 $474 $632 forward $308 $-1 #
coedge $-1 $474 $310 $312 $478 reversed $186 $-1 #
coedge $-1 $310 $473 $472 $632 reversed $186 $-1 #
coedge $-1 $318 $313 $310 $476 forward $319 $-1 #
edge $-1 $479 -20.156465120513914 $633 -17.762225230260242 $475 $634 forward 7 unknown #
coedge $-1 $312 $311 $482 $635 reversed $117 $-1 #
edge $-1 $636 -2.5434524534472062e-014 $479 4.2815992954222555 $473 $637 forward 7 unknown #
vertex $-1 $314 $638 #
straight-curve $-1 -51.588120411269202 -7.8189746478876021 5.0735709188583247 0 1 0 I I #
coedge $-1 $472 $315 $318 $486 reversed $308 $-1 #
coedge $-1 $315 $472 $477 $635 forward $308 $-1 #
vertex $-1 $316 $639 #
straight-curve $-1 -53.982360301522874 -18.848929138905685 30.948534245909329 0 0 1 I I #
straight-curve $-1 -53.98236030152286 -18.848929138905685 1.5239641977582963 -0.55919289150049634 0 -0.82903758062907751 I I #
edge $-1 $633 12.426969452644723 $320 18.848929138905685 $481 $640 forward 7 unknown #
point $-1 -53.982360301522874 -18.848929138905685 5.0735709188583256 #
point $-1 -51.588120411269202 -18.848929138905685 5.0735709188583265 #
edge $-1 $641 1 $641 0 $323 $-1 forward 7 unknown #
vertex $-1 $324 $642 #
ellipse-curve $-1 -51.726520377105182 -15.637949295775204 2.5846519375667656 -0.82903758062907751 0 0.55919289150049634 0.55919289150049634 0 0.82903758062907751 1 I I #
point $-1 -52.226047464895551 -15.637949295775204 4.12780513893739 #
loop $-1 $-1 $335 $327 #
plane-surface $-1 -53.982360301522874 0 0 1 0 0 0 0 -1 forward_v I I I I #
coedge $-1 $496 $330 $332 $500 reversed $201 $-1 #
coedge $-1 $330 $495 $643 $644 reversed $201 $-1 #
coedge $-1 $338 $333 $330 $498 forward $328 $-1 #
edge $-1 $501 -20.156465120513914 $645 -17.762225230260242 $497 $646 forward 7 unknown #
coedge $-1 $332 $331 $504 $647 reversed $126 $-1 #
edge $-1 $648 -2.5434524534472062e-014 $501 4.2815992954222555 $495 $649 forward 7 unknown #
vertex $-1 $334 $650 #
straight-curve $-1 -51.588120411269202 -2.6063248826292007 5.0735709188583247 0 1 0 I I #
coedge $-1 $643 $335 $338 $508 reversed $493 $-1 #
coedge $-1 $335 $643 $499 $647 forward $493 $-1 #
vertex $-1 $336 $651 #
straight-curve $-1 -53.982360301522874 -8.4236296083888824 30.948534245909329 0 0 1 I I #
straight-curve $-1 -53.98236030152286 -8.4236296083888824 1.5239641977582963 -0.55919289150049634 0 -0.82903758062907751 I I #
edge $-1 $645 2.0016699221279199 $339 8.4236296083888824 $503 $652 forward 7 unknown #
point $-1 -53.982360301522874 -8.4236296083888824 5.0735709188583256 #
point $-1 -51.588120411269202 -8.4236296083888824 5.0735709188583265 #
edge $-1 $653 1 $653 0 $342 $-1 forward 7 unknown #
vertex $-1 $343 $654 #
ellipse-curve $-1 -51.726520377105182 -5.2126497652584014 2.5846519375667656 -0.82903758062907751 0 0.55919289150049634 0.55919289150049634 0 0.82903758062907751 1 I I #
point $-1 -52.226047464895551 -5.2126497652584014 4.12780513893739 #
loop $-1 $-1 $354 $346 #
plane-surface $-1 -53.982360301522874 0 0 1 0 0 0 0 -1 forward_v I I I I #
coedge $-1 $518 $349 $351 $522 reversed $216 $-1 #
coedge $-1 $349 $517 $655 $656 reversed $216 $-1 #
coedge $-1 $357 $352 $349 $520 forward $347 $-1 #
edge $-1 $523 -20.156465120513914 $657 -17.762225230260242 $519 $658 forward 7 unknown #
coedge $-1 $351 $350 $526 $659 reversed $135 $-1 #
edge $-1 $660 -2.5434524534472062e-014 $523 4.2815992954222555 $517 $661 forward 7 unknown #
vertex $-1 $353 $662 #
straight-curve $-1 -51.588120411269202 2.6063248826292007 5.0735709188583247 0 1 0 I I #
coedge $-1 $655 $354 $357 $530 reversed $515 $-1 #
coedge $-1 $354 $655 $521 $659 forward $515 $-1 #
vertex $-1 $355 $663 #
straight-curve $-1 -53.982360301522874 2.0016699221279199 30.948534245909329 0 0 1 I I #
straight-curve $-1 -53.98236030152286 2.0016699221279199 1.5239641977582963 -0.55919289150049634 0 -0.82903758062907751 I I #
edge $-1 $657 -8.4236296083888824 $358 -2.0016699221279199 $525 $664 forward 7 unknown #
point $-1 -53.982360301522874 2.0016699221279199 5.0735709188583256 #
point $-1 -51.588120411269202 2.0016699221279199 5.0735709188583265 #
edge $-1 $665 1 $665 0 $361 $-1 forward 7 unknown #
vertex $-1 $362 $666 #
ellipse-curve $-1 -51.726520377105182 5.2126497652584014 2.5846519375667656 -0.82903758062907751 0 0.55919289150049634 0.55919289150049634 0 0.82903758062907751 1 I I #
point $-1 -52.226047464895551 5.2126497652584014 4.12780513893739 #
loop $-1 $-1 $373 $365 #
plane-surface $-1 -53.982360301522874 0 0 1 0 0 0 0 -1 forward_v I I I I #
coedge $-1 $540 $368 $370 $544 reversed $231 $-1 #
coedge $-1 $368 $539 $667 $668 reversed $231 $-1 #
coedge $-1 $376 $371 $368 $542 forward $366 $-1 #
edge $-1 $545 -20.156465120513914 $669 -17.762225230260242 $541 $670 forward 7 unknown #
coedge $-1 $370 $369 $548 $671 reversed $144 $-1 #
edge $-1 $672 -2.5434524534472062e-014 $545 4.2815992954222555 $539 $673 forward 7 unknown #
vertex $-1 $372 $674 #
straight-curve $-1 -51.588120411269202 7.8189746478876039 5.0735709188583247 0 1 0 I I #
coedge $-1 $667 $373 $376 $552 reversed $537 $-1 #
coedge $-1 $373 $667 $543 $671 forward $537 $-1 #
vertex $-1 $374 $675 #
straight-curve $-1 -53.982360301522874 12.426969452644727 30.948534245909329 0 0 1 I I #
straight-curve $-1 -53.98236030152286 12.426969452644727 1.5239641977582963 -0.55919289150049634 0 -0.82903758062907751 I I #
edge $-1 $669 -18.848929138905689 $377 -12.426969452644727 $547 $676 forward 7 unknown #
point $-1 -53.982360301522874 12.426969452644727 5.0735709188583256 #
point $-1 -51.588120411269202 12.426969452644727 5.0735709188583265 #
edge $-1 $677 1 $677 0 $380 $-1 forward 7 unknown #
vertex $-1 $381 $678 #
ellipse-curve $-1 -51.726520377105182 15.637949295775208 2.5846519375667656 -0.82903758062907751 0 0.55919289150049634 0.55919289150049634 0 0.82903758062907751 1 I I #
point $-1 -52.226047464895551 15.637949295775208 4.12780513893739 #
loop $-1 $-1 $392 $384 #
plane-surface $-1 53.982360301522874 0 0 -1 0 0 0 0 1 forward_v I I I I #
coedge $-1 $562 $387 $389 $566 reversed $246 $-1 #
coedge $-1 $387 $561 $679 $680 reversed $246 $-1 #
coedge $-1 $395 $390 $387 $564 forward $385 $-1 #
edge $-1 $567 37.17404430164396 $681 42.863695666049964 $563 $682 forward 7 unknown #
coedge $-1 $389 $388 $570 $683 reversed $153 $-1 #
edge $-1 $684 -107.96472060304578 $567 -101.18058912960829 $561 $685 forward 7 unknown #
vertex $-1 $391 $686 #
straight-curve $-1 48.292708937116871 -6.4306754231972647 5.0735709188583158 0 -1 0 I I #
coedge $-1 $679 $392 $395 $574 reversed $559 $-1 #
coedge $-1 $392 $679 $565 $683 forward $559 $-1 #
vertex $-1 $393 $687 #
straight-curve $-1 53.982360301522874 -9.3475204379797141 75.363651556289355 0 0 1 I I #
straight-curve $-1 -36.564472744385185 -9.3475204379797141 60.180470066670665 0.83867056331134215 0 -0.54463904215088732 I I #
edge $-1 $681 -16.375181254809345 $396 -9.3475204379797141 $569 $688 forward 7 unknown #
point $-1 53.982360301522874 -9.3475204379797141 5.0735709188583256 #
point $-1 48.292708937116871 -9.3475204379797141 5.0735709188583229 #
edge $-1 $689 1 $689 0 $399 $-1 forward 7 unknown #
vertex $-1 $400 $690 #
ellipse-curve $-1 49.839630876961024 -12.861350846394531 1.227523023065618 0.54463904215088732 0 0.83867056331134215 1.2580058449670133 0 -0.81695856322633098 1 I I #
point $-1 52.395540464286903 -12.861350846394531 2.4091609218726679 #
plane-surface $-1 53.982360301522874 0 0 -1 0 0 0 0 1 forward_v I I I I #
coedge $-1 $408 $406 $410 $586 reversed $261 $-1 #
edge $-1 $421 -5.0735709188583256 $588 5.0735709188583256 $420 $691 forward 7 unknown #
vertex $-1 $586 $692 #
straight-curve $-1 -53.982360301522874 -24.365127038769877 0 0 0 -1 I I #
edge $-1 $584 -24.365127038769877 $588 24.365127038769877 $582 $693 forward 7 unknown #
straight-curve $-1 0 -24.365127038769877 -5.0735709188583256 -1 0 0 I I #
vertex $-1 $413 $694 #
straight-curve $-1 0 24.365127038769877 -5.0735709188583256 1 0 0 I I #
point $-1 53.982360301522874 24.365127038769877 -5.0735709188583256 #
point $-1 53.982360301522874 -24.365127038769877 -5.0735709188583256 #
straight-curve $-1 -53.982360301522874 0 5.0735709188583256 0 -1 0 I I #
point $-1 -53.982360301522874 24.365127038769877 5.0735709188583256 #
point $-1 -53.982360301522874 -24.365127038769877 5.0735709188583256 #
straight-curve $-1 53.982360301522874 -24.365127038769877 0 0 0 -1 I I #
straight-curve $-1 53.982360301522874 24.365127038769877 0 0 0 -1 I I #
plane-surface $-1 53.982360301522874 0 0 -1 0 0 0 0 1 forward_v I I I I #
coedge $-1 $695 $601 $437 $606 forward $431 $-1 #
coedge $-1 $438 $433 $695 $696 forward $280 $-1 #
edge $-1 $447 -1.7580255360972643 $697 1.7580255360972643 $445 $698 forward 7 unknown #
coedge $-1 $598 $699 $434 $602 reversed $431 $-1 #
edge $-1 $609 -53.982360301522874 $604 53.982360301522874 $601 $700 forward 7 unknown #
coedge $-1 $445 $435 $699 $701 forward $446 $-1 #
vertex $-1 $436 $702 #
straight-curve $-1 53.982360301522874 -26.123152574867142 2.0192349359015012 0 1 0 I I #
edge $-1 $609 -1.5 $607 1.5 $437 $703 forward 7 unknown #
vertex $-1 $439 $704 #
straight-curve $-1 -53.982360301522874 -26.123152574867142 -0.98076506409849884 0 1 0 I I #
vertex $-1 $440 $705 #
straight-curve $-1 -53.982360301522874 -26.123152574867142 2.0192349359015012 0 -1 0 I I #
point $-1 -53.982360301522874 -24.365127038769877 -0.98076506409849884 #
straight-curve $-1 0 -24.365127038769877 -0.98076506409849884 -1 0 0 I I #
point $-1 53.982360301522874 -24.365127038769877 -0.98076506409849884 #
plane-surface $-1 -53.982360301522874 0 0 1 0 0 0 0 -1 forward_v I I I I #
coedge $-1 $706 $617 $457 $621 forward $452 $-1 #
coedge $-1 $454 $625 $706 $707 forward $294 $-1 #
coedge $-1 $615 $708 $455 $618 reversed $452 $-1 #
edge $-1 $619 -53.982360301522874 $630 53.982360301522874 $617 $709 forward 7 unknown #
vertex $-1 $456 $710 #
straight-curve $-1 53.982360301522874 26.123152574867142 2.0192349359015012 0 1 0 I I #
edge $-1 $619 -1.5 $622 1.5 $457 $711 forward 7 unknown #
vertex $-1 $458 $712 #
straight-curve $-1 53.982360301522874 26.123152574867142 -0.98076506409849884 0 -1 0 I I #
point $-1 53.982360301522874 24.365127038769877 -0.98076506409849884 #
coedge $-1 $616 $461 $464 $628 forward $294 $-1 #
straight-curve $-1 0 24.365127038769877 -0.98076506409849884 1 0 0 I I #
coedge $-1 $464 $463 $708 $713 forward $465 $-1 #
edge $-1 $466 -1.7580255360972643 $714 1.7580255360972643 $464 $715 forward 7 unknown #
point $-1 -53.982360301522874 24.365127038769877 -0.98076506409849884 #
vertex $-1 $618 $716 #
straight-curve $-1 -53.982360301522874 26.123152574867142 2.0192349359015012 0 -1 0 I I #
edge $-1 $633 25.874963327051002 $636 29.424570048151054 $472 $717 forward 7 unknown #
vertex $-1 $486 $718 #
straight-curve $-1 -71.744585531783116 -12.426969452644723 5.0735709188583265 -1 0 0 I I #
edge $-1 $636 4.6079948047571211 $483 11.029954491018083 $482 $719 forward 7 unknown #
vertex $-1 $635 $720 #
straight-curve $-1 -53.98236030152286 -12.426969452644723 1.5239641977582963 0.55919289150049634 0 0.82903758062907751 I I #
point $-1 -51.588120411269202 -12.426969452644723 5.0735709188583265 #
point $-1 -53.982360301522874 -18.848929138905685 1.5239641977582752 #
straight-curve $-1 -53.982360301522874 0 5.0735709188583256 0 -1 0 I I #
vertex $-1 $489 $721 #
point $-1 -51.167327485604687 -15.637949295775204 3.4136895181958433 #
coedge $-1 $504 $503 $496 $644 forward $493 $-1 #
edge $-1 $645 25.874963327051002 $648 29.424570048151054 $643 $722 forward 7 unknown #
vertex $-1 $508 $723 #
straight-curve $-1 -71.744585531783116 -2.0016699221279199 5.0735709188583265 -1 0 0 I I #
edge $-1 $648 -0.60465496050128076 $505 5.8173047257596817 $504 $724 forward 7 unknown #
vertex $-1 $647 $725 #
straight-curve $-1 -53.98236030152286 -2.0016699221279199 1.5239641977582963 0.55919289150049634 0 0.82903758062907751 I I #
point $-1 -51.588120411269202 -2.0016699221279199 5.0735709188583265 #
point $-1 -53.982360301522874 -8.4236296083888824 1.5239641977582752 #
straight-curve $-1 -53.982360301522874 0 5.0735709188583256 0 -1 0 I I #
vertex $-1 $511 $726 #
point $-1 -51.167327485604687 -5.2126497652584014 3.4136895181958433 #
coedge $-1 $526 $525 $518 $656 forward $515 $-1 #
edge $-1 $657 25.874963327051002 $660 29.424570048151054 $655 $727 forward 7 unknown #
vertex $-1 $530 $728 #
straight-curve $-1 -71.744585531783116 8.4236296083888824 5.0735709188583265 -1 0 0 I I #
edge $-1 $660 -5.8173047257596817 $527 0.60465496050128076 $526 $729 forward 7 unknown #
vertex $-1 $659 $730 #
straight-curve $-1 -53.98236030152286 8.4236296083888824 1.5239641977582963 0.55919289150049634 0 0.82903758062907751 I I #
point $-1 -51.588120411269202 8.4236296083888824 5.0735709188583265 #
point $-1 -53.982360301522874 2.0016699221279199 1.5239641977582752 #
straight-curve $-1 -53.982360301522874 0 5.0735709188583256 0 -1 0 I I #
vertex $-1 $533 $731 #
point $-1 -51.167327485604687 5.2126497652584014 3.4136895181958433 #
coedge $-1 $548 $547 $540 $668 forward $537 $-1 #
edge $-1 $669 25.874963327051002 $672 29.424570048151054 $667 $732 forward 7 unknown #
vertex $-1 $552 $733 #
straight-curve $-1 -71.744585531783116 18.848929138905689 5.0735709188583265 -1 0 0 I I #
edge $-1 $672 -11.029954491018085 $549 -4.6079948047571229 $548 $734 forward 7 unknown #
vertex $-1 $671 $735 #
straight-curve $-1 -53.98236030152286 18.848929138905689 1.5239641977582963 0.55919289150049634 0 0.82903758062907751 I I #
point $-1 -51.588120411269202 18.848929138905689 5.0735709188583265 #
point $-1 -53.982360301522874 12.426969452644727 1.5239641977582752 #
straight-curve $-1 -53.982360301522874 0 5.0735709188583256 0 -1 0 I I #
vertex $-1 $555 $736 #
point $-1 -51.167327485604687 15.637949295775208 3.4136895181958433 #
coedge $-1 $570 $569 $562 $680 forward $559 $-1 #
edge $-1 $681 70.290080637431032 $684 73.984983504949696 $679 $737 forward 7 unknown #
vertex $-1 $574 $738 #
straight-curve $-1 11.118664635472911 -16.375181254809345 5.0735709188583229 1 0 0 I I #
edge $-1 $684 -9.94450583161208 $571 -2.9168450147824494 $570 $739 forward 7 unknown #
vertex $-1 $683 $740 #
straight-curve $-1 -36.564472744385185 -16.375181254809345 60.180470066670665 -0.83867056331134215 0 0.54463904215088732 I I #
point $-1 48.292708937116871 -16.375181254809345 5.0735709188583229 #
point $-1 53.982360301522874 -9.3475204379797141 1.3786680513396519 #
straight-curve $-1 53.982360301522874 0 5.0735709188583256 0 1 0 I I #
vertex $-1 $577 $741 #
point $-1 51.097636721928033 -12.861350846394531 0.41056445983928702 #
straight-curve $-1 -53.982360301522874 24.365127038769877 0 0 0 -1 I I #
point $-1 -53.982360301522874 -24.365127038769877 -5.0735709188583256 #
straight-curve $-1 -53.982360301522874 0 -5.0735709188583256 0 1 0 I I #
point $-1 -53.982360301522874 24.365127038769877 -5.0735709188583256 #
coedge $-1 $699 $598 $599 $696 reversed $431 $-1 #
edge $-1 $697 -53.982360301522874 $607 53.982360301522874 $695 $742 forward 7 unknown #
vertex $-1 $701 $743 #
straight-curve $-1 53.982360301522874 -26.123152574867142 -0.98076506409849884 0 -1 0 I I #
coedge $-1 $601 $695 $603 $701 reversed $431 $-1 #
straight-curve $-1 0 -27.881178110964406 2.0192349359015012 1 0 0 I I #
edge $-1 $604 -1.5 $697 1.5 $603 $744 forward 7 unknown #
point $-1 53.982360301522874 -27.881178110964406 2.0192349359015012 #
straight-curve $-1 -53.982360301522874 -27.881178110964406 0.51923493590150116 0 0 -1 I I #
point $-1 -53.982360301522874 -27.881178110964406 -0.98076506409849884 #
point $-1 -53.982360301522874 -27.881178110964406 2.0192349359015012 #
coedge $-1 $708 $615 $616 $707 reversed $452 $-1 #
edge $-1 $714 -53.982360301522874 $622 53.982360301522874 $706 $745 forward 7 unknown #
coedge $-1 $617 $706 $627 $713 reversed $452 $-1 #
straight-curve $-1 0 27.881178110964406 2.0192349359015012 -1 0 0 I I #
point $-1 53.982360301522874 27.881178110964406 2.0192349359015012 #
straight-curve $-1 53.982360301522874 27.881178110964406 0.51923493590150116 0 0 -1 I I #
point $-1 53.982360301522874 27.881178110964406 -0.98076506409849884 #
edge $-1 $630 -1.5 $714 1.5 $708 $746 forward 7 unknown #
vertex $-1 $707 $747 #
straight-curve $-1 -53.982360301522874 26.123152574867142 -0.98076506409849884 0 1 0 I I #
point $-1 -53.982360301522874 27.881178110964406 2.0192349359015012 #
straight-curve $-1 -53.982360301522874 -12.426969452644723 30.948534245909329 0 0 -1 I I #
point $-1 -53.982360301522874 -12.426969452644723 5.0735709188583256 #
straight-curve $-1 -53.982360301522874 -7.8189746478876021 1.5239641977582739 0 -1 0 I I #
point $-1 -53.982360301522874 -12.426969452644723 1.5239641977582752 #
point $-1 -50.897482796476105 -15.637949295775204 2.0254590460662696 #
straight-curve $-1 -53.982360301522874 -2.0016699221279199 30.948534245909329 0 0 -1 I I #
point $-1 -53.982360301522874 -2.0016699221279199 5.0735709188583256 #
straight-curve $-1 -53.982360301522874 -2.6063248826292007 1.5239641977582739 0 -1 0 I I #
point $-1 -53.982360301522874 -2.0016699221279199 1.5239641977582752 #
point $-1 -50.897482796476105 -5.2126497652584014 2.0254590460662696 #
straight-curve $-1 -53.982360301522874 8.4236296083888824 30.948534245909329 0 0 -1 I I #
point $-1 -53.982360301522874 8.4236296083888824 5.0735709188583256 #
straight-curve $-1 -53.982360301522874 2.6063248826292007 1.5239641977582739 0 -1 0 I I #
point $-1 -53.982360301522874 8.4236296083888824 1.5239641977582752 #
point $-1 -50.897482796476105 5.2126497652584014 2.0254590460662696 #
straight-curve $-1 -53.982360301522874 18.848929138905689 30.948534245909329 0 0 -1 I I #
point $-1 -53.982360301522874 18.848929138905689 5.0735709188583256 #
straight-curve $-1 -53.982360301522874 7.8189746478876039 1.5239641977582739 0 -1 0 I I #
point $-1 -53.982360301522874 18.848929138905689 1.5239641977582752 #
point $-1 -50.897482796476105 15.637949295775208 2.0254590460662696 #
straight-curve $-1 53.982360301522874 -16.375181254809345 75.363651556289355 0 0 -1 I I #
point $-1 53.982360301522874 -16.375181254809345 5.0735709188583256 #
straight-curve $-1 53.982360301522874 -6.4306754231972647 1.3786680513396519 0 1 0 I I #
point $-1 53.982360301522874 -16.375181254809345 1.3786680513396519 #
point $-1 49.022672313734688 -12.861350846394531 -0.030482821901395507 #
straight-curve $-1 0 -27.881178110964406 -0.98076506409849884 -1 0 0 I I #
point $-1 53.982360301522874 -27.881178110964406 -0.98076506409849884 #
straight-curve $-1 53.982360301522874 -27.881178110964406 0.51923493590150116 0 0 -1 I I #
straight-curve $-1 0 27.881178110964406 -0.98076506409849884 1 0 0 I I #
straight-curve $-1 -53.982360301522874 27.881178110964406 0.51923493590150116 0 0 -1 I I #
point $-1 -53.982360301522874 27.881178110964406 -0.98076506409849884 #
End-of-ACIS-data 