500 0 5 0           
7 Unknown 11 ACIS 5.0 NT 24 Thu Mar 25 19:38:54 1999 
-1 9.9999999999999995e-007 1e-010 
body $-1 $5 $-1 $6 #
body $-1 $7 $-1 $8 #
body $-1 $9 $-1 $10 #
body $-1 $11 $-1 $12 #
body $-1 $13 $-1 $14 #
lump $-1 $-1 $15 $0 #
transform $-1 1 0 0 0 1 0 0 0 1 70.470900601214638 37.185674998174434 18.492062697004698 1 rotate no_reflect no_shear #
lump $-1 $-1 $16 $1 #
transform $-1 1 0 0 0 1 0 0 0 1 70.470900601214638 37.185674998174434 18.492062697004698 1 rotate no_reflect no_shear #
lump $-1 $-1 $17 $2 #
transform $-1 1 0 0 0 1 0 0 0 1 70.470900601214638 37.185674998174434 18.492062697004698 1 rotate no_reflect no_shear #
lump $-1 $-1 $18 $3 #
transform $-1 1 0 0 0 1 0 0 0 1 70.470900601214638 37.185674998174434 18.492062697004698 1 rotate no_reflect no_shear #
lump $-1 $-1 $19 $4 #
transform $-1 1 0 0 0 1 0 0 0 1 70.470900601214638 37.185674998174434 18.492062697004698 1 rotate no_reflect no_shear #
shell $-1 $-1 $-1 $20 $-1 $5 #
shell $-1 $-1 $-1 $21 $-1 $7 #
shell $-1 $-1 $-1 $22 $-1 $9 #
shell $-1 $-1 $-1 $23 $-1 $11 #
shell $-1 $-1 $-1 $24 $-1 $13 #
face $-1 $25 $26 $15 $-1 $27 forward single #
face $-1 $28 $29 $16 $-1 $30 forward single #
face $-1 $31 $32 $17 $-1 $33 forward single #
face $-1 $34 $35 $18 $-1 $36 forward single #
face $-1 $37 $38 $19 $-1 $39 reversed single #
face $-1 $40 $41 $15 $-1 $42 reversed single #
loop $-1 $-1 $43 $20 #
plane-surface $-1 0 0 18.492062697004698 0 0 1 1 0 0 forward_v I I I I #
face $-1 $44 $45 $16 $-1 $46 reversed single #
loop $-1 $-1 $47 $21 #
plane-surface $-1 -79.892185257921213 0 -12.317733001187271 0 0 1 1 0 0 forward_v I I I I #
face $-1 $48 $49 $17 $-1 $50 reversed single #
loop $-1 $-1 $51 $22 #
plane-surface $-1 79.892185257921213 0 -12.317733001187271 0 0 1 1 0 0 forward_v I I I I #
face $-1 $52 $53 $18 $-1 $54 forward single #
loop $-1 $-1 $55 $23 #
plane-surface $-1 51.628331287801487 -143.55580378770821 100.54620067453207 -1 0 0 0 -0.75470958851134928 0.65605901945558964 forward_v I I I I #
face $-1 $56 $57 $19 $-1 $58 reversed single #
loop $-1 $59 $60 $24 #
cone-surface $-1 40.56732330802015 -30.976080534149748 11.822107290482421 0 0.75470958851134928 -0.65605901945558964 3 0 0 1 I I 0 1 3 forward I I I I #
face $-1 $61 $62 $15 $-1 $63 reversed single #
loop $-1 $-1 $64 $25 #
plane-surface $-1 0 0 -18.492062697004698 0 0 1 1 0 0 forward_v I I I I #
coedge $-1 $65 $66 $67 $68 forward $26 $-1 #
face $-1 $69 $70 $16 $-1 $71 forward single #
loop $-1 $-1 $72 $28 #
plane-surface $-1 -89.313469914627788 0 -15.404897849095985 1 0 0 0 0 -1 forward_v I I I I #
coedge $-1 $73 $74 $75 $76 reversed $29 $-1 #
face $-1 $77 $78 $17 $-1 $79 forward single #
loop $-1 $-1 $80 $31 #
plane-surface $-1 89.313469914627788 0 -15.404897849095985 -1 0 0 0 0 1 forward_v I I I I #
coedge $-1 $81 $82 $83 $84 forward $32 $-1 #
face $-1 $85 $86 $18 $-1 $87 forward single #
loop $-1 $-1 $88 $34 #
plane-surface $-1 40.56732330802015 -37.18567499817442 8.0800607773616804 0 -0.75470958851134928 0.65605901945558964 1 0 0 forward_v I I I I #
coedge $-1 $89 $90 $91 $92 reversed $35 $-1 #
face $-1 $93 $94 $19 $-1 $95 forward single #
loop $-1 $96 $97 $37 #
cone-surface $-1 40.56732330802015 -28.159929163316114 9.3740643145982681 0 0.75470958851134928 -0.65605901945558964 1.5 0 0 1 I I -0.70710678118654757 0.70710678118654757 1.5 forward I I I I #
loop $-1 $-1 $98 $24 #
coedge $-1 $60 $60 $99 $100 reversed $38 $-1 #
face $-1 $101 $102 $15 $-1 $103 reversed single #
loop $-1 $-1 $104 $40 #
plane-surface $-1 0 -37.185674998174434 0 0 1 0 0 0 1 forward_v I I I I #
coedge $-1 $105 $106 $107 $108 forward $41 $-1 #
coedge $-1 $109 $43 $110 $111 forward $26 $-1 #
coedge $-1 $43 $109 $112 $113 forward $26 $-1 #
coedge $-1 $114 $115 $43 $68 reversed $116 $-1 #
edge $-1 $117 -37.185674998174434 $118 37.185674998174434 $67 $119 forward 7 unknown #
face $-1 $120 $121 $16 $-1 $122 reversed single #
loop $-1 $-1 $123 $44 #
plane-surface $-1 0 0 18.492062697004698 0 0 1 1 0 0 forward_v I I I I #
coedge $-1 $124 $125 $126 $127 forward $45 $-1 #
coedge $-1 $128 $47 $129 $130 forward $29 $-1 #
coedge $-1 $47 $128 $131 $132 forward $29 $-1 #
coedge $-1 $133 $134 $47 $76 forward $135 $-1 #
edge $-1 $136 -37.185674998174434 $137 37.185674998174434 $75 $138 forward 7 unknown #
face $-1 $139 $140 $17 $-1 $141 reversed single #
loop $-1 $-1 $142 $48 #
plane-surface $-1 -79.892185257921213 0 -12.317733001187271 0 0 1 1 0 0 forward_v I I I I #
coedge $-1 $143 $83 $144 $145 forward $49 $-1 #
coedge $-1 $146 $51 $147 $148 forward $32 $-1 #
coedge $-1 $51 $146 $149 $150 forward $32 $-1 #
coedge $-1 $80 $151 $51 $84 reversed $49 $-1 #
edge $-1 $152 -37.185674998174434 $153 37.185674998174434 $83 $154 forward 7 unknown #
face $-1 $155 $156 $18 $-1 $157 forward single #
loop $-1 $-1 $158 $52 #
plane-surface $-1 29.506315328238813 -143.55580378770821 100.54620067453207 1 0 0 0 0.75470958851134928 -0.65605901945558964 forward_v I I I I #
coedge $-1 $159 $160 $161 $162 reversed $53 $-1 #
coedge $-1 $90 $55 $160 $163 forward $35 $-1 #
coedge $-1 $55 $89 $164 $165 reversed $35 $-1 #
coedge $-1 $166 $161 $55 $92 forward $156 $-1 #
edge $-1 $167 -43.643241847595846 $168 -34.592226895679673 $91 $169 forward 7 unknown #
face $-1 $170 $171 $19 $-1 $172 forward single #
loop $-1 $-1 $173 $56 #
plane-surface $-1 51.628331287801487 -143.55580378770821 100.54620067453207 -1 0 0 0 -0.75470958851134928 0.65605901945558964 forward_v I I I I #
loop $-1 $-1 $174 $37 #
coedge $-1 $97 $97 $98 $175 forward $57 $-1 #
coedge $-1 $98 $98 $97 $175 reversed $59 $-1 #
coedge $-1 $99 $99 $60 $100 forward $171 $-1 #
edge $-1 $176 -6.8052933050826196e-016 $176 6.2831853071795996 $99 $177 forward 7 unknown #
face $-1 $178 $179 $15 $-1 $180 reversed single #
loop $-1 $-1 $181 $61 #
plane-surface $-1 -70.470900601214638 0 0 1 0 0 0 0 -1 forward_v I I I I #
coedge $-1 $182 $112 $183 $184 forward $62 $-1 #
coedge $-1 $185 $64 $182 $186 forward $41 $-1 #
coedge $-1 $64 $185 $187 $188 forward $41 $-1 #
coedge $-1 $115 $114 $64 $108 reversed $116 $-1 #
edge $-1 $189 -37.185674998174434 $190 37.185674998174434 $107 $191 forward 7 unknown #
coedge $-1 $66 $65 $192 $193 forward $26 $-1 #
coedge $-1 $194 $195 $65 $111 reversed $179 $-1 #
edge $-1 $118 -70.470900601214638 $196 70.470900601214638 $110 $197 forward 7 unknown #
coedge $-1 $104 $198 $66 $113 reversed $62 $-1 #
edge $-1 $199 -70.470900601214638 $117 70.470900601214638 $112 $200 forward 7 unknown #
coedge $-1 $107 $67 $198 $201 forward $116 $-1 #
coedge $-1 $67 $107 $194 $202 reversed $116 $-1 #
loop $-1 $-1 $114 $178 #
vertex $-1 $68 $203 #
vertex $-1 $68 $204 #
straight-curve $-1 70.470900601214638 0 18.492062697004698 0 1 0 I I #
face $-1 $205 $206 $16 $-1 $207 reversed single #
loop $-1 $-1 $208 $69 #
plane-surface $-1 0 0 -18.492062697004698 0 0 1 1 0 0 forward_v I I I I #
coedge $-1 $209 $210 $211 $212 forward $70 $-1 #
coedge $-1 $213 $72 $214 $215 reversed $45 $-1 #
coedge $-1 $72 $213 $128 $216 reversed $45 $-1 #
coedge $-1 $129 $217 $72 $127 reversed $218 $-1 #
edge $-1 $219 -3.0871648479087135 $220 3.0871648479087135 $126 $221 forward 7 unknown #
coedge $-1 $74 $73 $125 $216 forward $29 $-1 #
coedge $-1 $222 $126 $73 $130 reversed $218 $-1 #
edge $-1 $136 -9.4212846567065753 $219 9.4212846567065753 $129 $223 forward 7 unknown #
coedge $-1 $224 $225 $74 $132 reversed $206 $-1 #
edge $-1 $226 -9.4212846567065753 $137 9.4212846567065753 $131 $227 forward 7 unknown #
coedge $-1 $228 $75 $225 $229 reversed $135 $-1 #
coedge $-1 $75 $228 $222 $230 forward $135 $-1 #
loop $-1 $-1 $75 $205 #
vertex $-1 $230 $231 #
vertex $-1 $132 $232 #
straight-curve $-1 -70.470900601214638 0 -12.317733001187271 0 -1 0 I I #
face $-1 $233 $234 $17 $-1 $235 forward single #
loop $-1 $-1 $236 $77 #
plane-surface $-1 -89.313469914627788 0 -15.404897849095985 1 0 0 0 0 -1 forward_v I I I I #
coedge $-1 $237 $238 $239 $240 reversed $78 $-1 #
coedge $-1 $151 $80 $241 $242 reversed $49 $-1 #
coedge $-1 $149 $243 $80 $145 reversed $244 $-1 #
edge $-1 $152 -3.0871648479087135 $245 3.0871648479087135 $80 $246 forward 7 unknown #
coedge $-1 $82 $81 $247 $248 reversed $32 $-1 #
coedge $-1 $249 $250 $81 $148 reversed $251 $-1 #
edge $-1 $153 -9.4212846567065753 $252 9.4212846567065753 $147 $253 forward 7 unknown #
coedge $-1 $254 $144 $82 $150 reversed $244 $-1 #
edge $-1 $255 -9.4212846567065753 $152 9.4212846567065753 $149 $256 forward 7 unknown #
coedge $-1 $83 $143 $249 $257 reversed $49 $-1 #
vertex $-1 $84 $258 #
vertex $-1 $84 $259 #
straight-curve $-1 89.313469914627788 0 -12.317733001187271 0 1 0 I I #
face $-1 $260 $261 $18 $-1 $262 forward single #
loop $-1 $-1 $263 $85 #
plane-surface $-1 0 0 18.492062697004698 0 0 1 1 0 0 forward_v I I I I #
coedge $-1 $264 $265 $263 $266 reversed $86 $-1 #
coedge $-1 $267 $88 $265 $268 reversed $53 $-1 #
coedge $-1 $88 $267 $89 $163 reversed $53 $-1 #
coedge $-1 $91 $263 $88 $162 forward $156 $-1 #
edge $-1 $269 9.2226536742287379 $167 31.344669633791412 $161 $270 forward 7 unknown #
edge $-1 $167 -13.79603767878516 $271 2.1388861263899031e-014 $89 $272 forward 7 unknown #
coedge $-1 $273 $274 $90 $165 forward $275 $-1 #
edge $-1 $168 31.781037640261339 $271 42.193039559904371 $164 $276 forward 7 unknown #
coedge $-1 $277 $91 $274 $278 forward $156 $-1 #
vertex $-1 $162 $279 #
vertex $-1 $278 $280 #
straight-curve $-1 51.628331287801487 -71.777901893854107 18.492062697004698 0 -1 0 I I #
face $-1 $281 $282 $19 $-1 $283 forward single #
loop $-1 $284 $99 $93 #
plane-surface $-1 40.56732330802015 -37.18567499817442 8.0800607773616804 0 -0.75470958851134928 0.65605901945558964 1 0 0 forward_v I I I I #
coedge $-1 $285 $286 $287 $288 reversed $94 $-1 #
coedge $-1 $174 $174 $-1 $289 forward $96 $-1 #
edge $-1 $290 0 $290 6.2831853071796004 $97 $291 forward 7 unknown #
vertex $-1 $100 $292 #
ellipse-curve $-1 40.56732330802015 -32.660167522216348 13.28606173718318 0 0.75470958851134928 -0.65605901945558964 3 0 0 1 I I #
face $-1 $-1 $116 $15 $-1 $293 reversed single #
loop $-1 $-1 $194 $101 #
plane-surface $-1 0 37.185674998174434 0 0 -1 0 0 0 -1 forward_v I I I I #
coedge $-1 $294 $192 $195 $295 forward $102 $-1 #
coedge $-1 $198 $104 $105 $186 reversed $62 $-1 #
coedge $-1 $192 $294 $104 $184 reversed $102 $-1 #
edge $-1 $199 -18.492062697004698 $296 18.492062697004698 $183 $297 forward 7 unknown #
coedge $-1 $106 $105 $294 $298 forward $41 $-1 #
edge $-1 $190 -70.470900601214638 $296 70.470900601214638 $182 $299 forward 7 unknown #
coedge $-1 $195 $194 $106 $188 reversed $179 $-1 #
edge $-1 $300 -70.470900601214638 $189 70.470900601214638 $187 $301 forward 7 unknown #
vertex $-1 $108 $302 #
vertex $-1 $201 $303 #
straight-curve $-1 70.470900601214638 0 -18.492062697004698 0 -1 0 I I #
coedge $-1 $181 $183 $109 $193 reversed $102 $-1 #
edge $-1 $196 -37.185674998174434 $199 37.185674998174434 $192 $304 forward 7 unknown #
coedge $-1 $187 $110 $115 $202 forward $179 $-1 #
coedge $-1 $110 $187 $181 $295 reversed $179 $-1 #
vertex $-1 $111 $305 #
straight-curve $-1 0 37.185674998174434 18.492062697004698 -1 0 0 I I #
coedge $-1 $112 $182 $114 $201 reversed $62 $-1 #
vertex $-1 $193 $306 #
straight-curve $-1 0 -37.185674998174434 18.492062697004698 1 0 0 I I #
edge $-1 $117 -18.492062697004698 $190 18.492062697004698 $114 $307 forward 7 unknown #
edge $-1 $118 -18.492062697004698 $189 18.492062697004698 $115 $308 forward 7 unknown #
point $-1 70.470900601214638 -37.185674998174434 18.492062697004698 #
point $-1 70.470900601214638 37.185674998174434 18.492062697004698 #
face $-1 $309 $135 $16 $-1 $310 reversed single #
loop $-1 $-1 $225 $120 #
plane-surface $-1 0 -37.185674998174434 0 0 1 0 0 0 1 forward_v I I I I #
coedge $-1 $311 $312 $313 $314 forward $121 $-1 #
coedge $-1 $315 $123 $316 $317 forward $70 $-1 #
coedge $-1 $123 $315 $318 $319 forward $70 $-1 #
coedge $-1 $320 $321 $123 $212 reversed $322 $-1 #
edge $-1 $323 -37.185674998174434 $324 37.185674998174434 $211 $325 forward 7 unknown #
coedge $-1 $125 $124 $224 $326 reversed $45 $-1 #
coedge $-1 $312 $311 $124 $215 forward $121 $-1 #
edge $-1 $327 -37.185674998174434 $220 37.185674998174434 $124 $328 forward 7 unknown #
edge $-1 $219 -37.185674998174434 $226 37.185674998174434 $125 $329 forward 7 unknown #
coedge $-1 $126 $330 $312 $331 reversed $218 $-1 #
loop $-1 $-1 $330 $309 #
vertex $-1 $130 $332 #
vertex $-1 $331 $333 #
straight-curve $-1 -89.313469914627788 37.185674998174434 -15.404897849095985 0 0 -1 I I #
coedge $-1 $316 $129 $134 $230 reversed $218 $-1 #
straight-curve $-1 -79.892185257921213 37.185674998174434 -12.317733001187271 -1 0 0 I I #
coedge $-1 $334 $131 $213 $326 forward $206 $-1 #
coedge $-1 $131 $318 $133 $229 forward $206 $-1 #
vertex $-1 $216 $335 #
straight-curve $-1 -79.892185257921213 -37.185674998174434 -12.317733001187271 1 0 0 I I #
coedge $-1 $134 $133 $315 $336 reversed $135 $-1 #
edge $-1 $337 -18.492062697004698 $137 12.317733001187271 $133 $338 forward 7 unknown #
edge $-1 $339 -18.492062697004698 $136 12.317733001187271 $222 $340 forward 7 unknown #
point $-1 -70.470900601214638 37.185674998174434 -12.317733001187271 #
point $-1 -70.470900601214638 -37.185674998174434 -12.317733001187271 #
face $-1 $341 $342 $17 $-1 $343 reversed single #
loop $-1 $-1 $344 $139 #
plane-surface $-1 0 0 18.492062697004698 0 0 1 1 0 0 forward_v I I I I #
coedge $-1 $345 $346 $347 $348 forward $140 $-1 #
coedge $-1 $349 $142 $350 $351 forward $78 $-1 #
coedge $-1 $142 $349 $352 $353 forward $78 $-1 #
coedge $-1 $354 $355 $142 $240 forward $356 $-1 #
edge $-1 $357 -37.185674998174434 $358 37.185674998174434 $239 $359 forward 7 unknown #
coedge $-1 $360 $361 $143 $242 forward $342 $-1 #
edge $-1 $362 -37.185674998174434 $245 37.185674998174434 $143 $363 forward 7 unknown #
coedge $-1 $144 $364 $360 $365 reversed $244 $-1 #
loop $-1 $-1 $366 $341 #
vertex $-1 $145 $367 #
straight-curve $-1 89.313469914627788 -37.185674998174434 -15.404897849095985 0 0 -1 I I #
coedge $-1 $368 $369 $146 $248 forward $370 $-1 #
edge $-1 $255 -37.185674998174434 $252 37.185674998174434 $247 $371 forward 7 unknown #
coedge $-1 $372 $147 $151 $257 forward $251 $-1 #
coedge $-1 $147 $373 $368 $374 forward $251 $-1 #
loop $-1 $-1 $250 $375 #
vertex $-1 $148 $376 #
straight-curve $-1 79.892185257921213 37.185674998174434 -12.317733001187271 -1 0 0 I I #
coedge $-1 $377 $149 $369 $378 reversed $244 $-1 #
vertex $-1 $378 $379 #
straight-curve $-1 79.892185257921213 -37.185674998174434 -12.317733001187271 1 0 0 I I #
edge $-1 $153 -3.0871648479087135 $362 3.0871648479087135 $151 $380 forward 7 unknown #
point $-1 89.313469914627788 -37.185674998174434 -12.317733001187271 #
point $-1 89.313469914627788 37.185674998174434 -12.317733001187271 #
face $-1 $381 $382 $18 $-1 $383 reversed single #
loop $-1 $-1 $384 $155 #
plane-surface $-1 79.892185257921213 0 -12.317733001187271 0 0 1 1 0 0 forward_v I I I I #
coedge $-1 $161 $385 $158 $266 forward $156 $-1 #
coedge $-1 $265 $158 $386 $387 reversed $86 $-1 #
coedge $-1 $158 $264 $159 $268 forward $86 $-1 #
edge $-1 $388 34.592226895679673 $269 43.643241847595846 $263 $389 forward 7 unknown #
coedge $-1 $160 $159 $273 $390 reversed $53 $-1 #
edge $-1 $391 -2.1388861263899031e-014 $269 13.79603767878516 $265 $392 forward 7 unknown #
vertex $-1 $162 $393 #
straight-curve $-1 20.283661654010075 -28.134660046258258 18.492062697004698 1 0 0 I I #
vertex $-1 $390 $394 #
straight-curve $-1 51.628331287801487 -37.18567499817442 8.0800607773616804 0 -0.65605901945558964 -0.75470958851134928 I I #
coedge $-1 $386 $164 $267 $390 forward $275 $-1 #
coedge $-1 $164 $395 $166 $278 reversed $275 $-1 #
loop $-1 $-1 $386 $396 #
straight-curve $-1 51.628331287801487 -37.185674998174434 50.273100337266037 0 0 -1 I I #
coedge $-1 $397 $166 $398 $399 forward $156 $-1 #
edge $-1 $168 51.628331287801487 $400 70.470900601214638 $274 $401 forward 7 unknown #
point $-1 51.628331287801487 -28.134660046258261 18.492062697004698 #
point $-1 51.628331287801487 -37.185674998174434 18.492062697004698 #
face $-1 $402 $403 $19 $-1 $404 forward single #
loop $-1 $-1 $405 $170 #
plane-surface $-1 29.506315328238813 -143.55580378770821 100.54620067453207 1 0 0 0 0.75470958851134928 -0.65605901945558964 forward_v I I I I #
loop $-1 $-1 $406 $93 #
coedge $-1 $286 $173 $407 $408 forward $94 $-1 #
coedge $-1 $173 $285 $409 $410 reversed $94 $-1 #
coedge $-1 $411 $412 $173 $288 forward $403 $-1 #
edge $-1 $413 -43.643241847595846 $414 -34.592226895679673 $287 $415 forward 7 unknown #
edge $-1 $416 1 $416 0 $174 $-1 forward 7 unknown #
vertex $-1 $175 $417 #
ellipse-curve $-1 40.56732330802015 -29.291993546083138 10.358152843781653 0 -0.75470958851134928 0.65605901945558964 3 0 0 1 I I #
point $-1 43.56732330802015 -32.660167522216355 13.286061737183189 #
plane-surface $-1 70.470900601214638 0 0 -1 0 0 0 0 1 forward_v I I I I #
coedge $-1 $183 $181 $185 $298 reversed $102 $-1 #
edge $-1 $196 -18.492062697004698 $300 18.492062697004698 $195 $418 forward 7 unknown #
vertex $-1 $298 $419 #
straight-curve $-1 -70.470900601214638 -37.185674998174434 0 0 0 -1 I I #
edge $-1 $296 -37.185674998174434 $300 37.185674998174434 $294 $420 forward 7 unknown #
straight-curve $-1 0 -37.185674998174434 -18.492062697004698 -1 0 0 I I #
vertex $-1 $188 $421 #
straight-curve $-1 0 37.185674998174434 -18.492062697004698 1 0 0 I I #
point $-1 70.470900601214638 37.185674998174434 -18.492062697004698 #
point $-1 70.470900601214638 -37.185674998174434 -18.492062697004698 #
straight-curve $-1 -70.470900601214638 0 18.492062697004698 0 -1 0 I I #
point $-1 -70.470900601214638 37.185674998174434 18.492062697004698 #
point $-1 -70.470900601214638 -37.185674998174434 18.492062697004698 #
straight-curve $-1 70.470900601214638 -37.185674998174434 0 0 0 -1 I I #
straight-curve $-1 70.470900601214638 37.185674998174434 0 0 0 -1 I I #
face $-1 $422 $218 $16 $-1 $423 reversed single #
plane-surface $-1 -70.470900601214638 0 0 1 0 0 0 0 -1 forward_v I I I I #
coedge $-1 $214 $208 $334 $424 forward $121 $-1 #
coedge $-1 $208 $214 $217 $331 forward $121 $-1 #
coedge $-1 $321 $320 $208 $314 reversed $322 $-1 #
edge $-1 $425 -37.185674998174434 $426 37.185674998174434 $313 $427 forward 7 unknown #
coedge $-1 $210 $209 $228 $336 forward $70 $-1 #
coedge $-1 $330 $222 $209 $317 reversed $218 $-1 #
edge $-1 $324 -70.470900601214638 $339 70.470900601214638 $316 $428 forward 7 unknown #
coedge $-1 $225 $429 $210 $319 reversed $206 $-1 #
edge $-1 $337 -70.470900601214638 $323 70.470900601214638 $318 $430 forward 7 unknown #
coedge $-1 $313 $211 $429 $431 forward $322 $-1 #
coedge $-1 $211 $313 $330 $432 reversed $322 $-1 #
loop $-1 $-1 $320 $422 #
vertex $-1 $212 $433 #
vertex $-1 $212 $434 #
straight-curve $-1 70.470900601214638 0 18.492062697004698 0 1 0 I I #
edge $-1 $226 -3.0871648479087135 $327 3.0871648479087135 $213 $435 forward 7 unknown #
vertex $-1 $215 $436 #
straight-curve $-1 -89.313469914627788 0 -18.492062697004698 0 1 0 I I #
straight-curve $-1 -89.313469914627788 0 -12.317733001187271 0 -1 0 I I #
coedge $-1 $217 $316 $321 $432 forward $218 $-1 #
edge $-1 $220 -89.313469914627788 $425 70.470900601214638 $217 $437 forward 7 unknown #
point $-1 -89.313469914627788 37.185674998174434 -12.317733001187271 #
point $-1 -89.313469914627788 37.185674998174434 -18.492062697004698 #
coedge $-1 $429 $224 $311 $424 reversed $206 $-1 #
point $-1 -89.313469914627788 -37.185674998174434 -12.317733001187271 #
edge $-1 $339 -37.185674998174434 $337 37.185674998174434 $228 $438 forward 7 unknown #
vertex $-1 $336 $439 #
straight-curve $-1 -70.470900601214638 -37.185674998174434 0 0 0 -1 I I #
vertex $-1 $317 $440 #
straight-curve $-1 -70.470900601214638 37.185674998174434 0 0 0 -1 I I #
face $-1 $441 $244 $17 $-1 $442 reversed single #
loop $-1 $-1 $360 $233 #
plane-surface $-1 0 0 -18.492062697004698 0 0 1 1 0 0 forward_v I I I I #
coedge $-1 $443 $444 $445 $446 forward $234 $-1 #
coedge $-1 $447 $236 $448 $449 reversed $140 $-1 #
coedge $-1 $236 $447 $349 $450 reversed $140 $-1 #
coedge $-1 $350 $372 $236 $348 reversed $251 $-1 #
edge $-1 $451 -3.0871648479087135 $452 3.0871648479087135 $347 $453 forward 7 unknown #
coedge $-1 $238 $237 $346 $450 forward $78 $-1 #
coedge $-1 $454 $347 $237 $351 reversed $251 $-1 #
edge $-1 $357 -9.4212846567065753 $451 9.4212846567065753 $350 $455 forward 7 unknown #
coedge $-1 $364 $366 $238 $353 reversed $244 $-1 #
edge $-1 $456 -9.4212846567065753 $358 9.4212846567065753 $352 $457 forward 7 unknown #
coedge $-1 $458 $239 $366 $459 reversed $356 $-1 #
coedge $-1 $239 $458 $454 $460 forward $356 $-1 #
loop $-1 $-1 $239 $441 #
vertex $-1 $460 $461 #
vertex $-1 $353 $462 #
straight-curve $-1 -70.470900601214638 0 -12.317733001187271 0 -1 0 I I #
coedge $-1 $448 $241 $243 $365 forward $342 $-1 #
coedge $-1 $241 $448 $372 $463 forward $342 $-1 #
vertex $-1 $242 $464 #
straight-curve $-1 89.313469914627788 0 -18.492062697004698 0 -1 0 I I #
coedge $-1 $243 $352 $447 $465 forward $244 $-1 #
edge $-1 $245 -9.4212846567065753 $466 169.205655172549 $243 $467 forward 7 unknown #
coedge $-1 $352 $377 $354 $459 forward $244 $-1 #
point $-1 89.313469914627788 -37.185674998174434 -18.492062697004698 #
coedge $-1 $445 $247 $250 $374 reversed $370 $-1 #
coedge $-1 $247 $445 $254 $378 forward $370 $-1 #
loop $-1 $-1 $247 $468 #
straight-curve $-1 70.470900601214638 0 -12.317733001187271 0 1 0 I I #
coedge $-1 $347 $249 $361 $463 reversed $251 $-1 #
coedge $-1 $250 $454 $443 $469 reversed $251 $-1 #
edge $-1 $470 -18.492062697004698 $252 12.317733001187271 $368 $471 forward 7 unknown #
face $-1 $468 $251 $17 $-1 $472 reversed single #
point $-1 70.470900601214638 37.185674998174434 -12.317733001187271 #
coedge $-1 $366 $254 $444 $473 reversed $244 $-1 #
edge $-1 $474 -18.492062697004698 $255 12.317733001187271 $369 $475 forward 7 unknown #
point $-1 70.470900601214638 -37.185674998174434 -12.317733001187271 #
straight-curve $-1 89.313469914627788 37.185674998174434 -15.404897849095985 0 0 -1 I I #
face $-1 $476 $477 $18 $-1 $478 forward single #
loop $-1 $-1 $479 $260 #
plane-surface $-1 89.313469914627788 0 -15.404897849095985 -1 0 0 0 0 1 forward_v I I I I #
coedge $-1 $480 $481 $482 $483 forward $261 $-1 #
coedge $-1 $263 $484 $485 $486 forward $156 $-1 #
coedge $-1 $485 $273 $264 $387 forward $275 $-1 #
edge $-1 $391 -42.193039559904371 $388 -31.781037640261339 $386 $487 forward 7 unknown #
vertex $-1 $387 $488 #
straight-curve $-1 29.506315328238813 -71.777901893854107 18.492062697004698 0 1 0 I I #
edge $-1 $271 -31.344669633791412 $391 -9.2226536742287379 $273 $489 forward 7 unknown #
vertex $-1 $390 $490 #
straight-curve $-1 29.506315328238813 -37.18567499817442 8.0800607773616804 0 0.65605901945558964 0.75470958851134928 I I #
point $-1 29.506315328238813 -28.134660046258261 18.492062697004698 #
point $-1 51.628331287801487 -37.185674998174434 8.0800607773616644 #
coedge $-1 $274 $491 $492 $493 reversed $275 $-1 #
face $-1 $494 $275 $18 $-1 $495 reversed single #
coedge $-1 $484 $277 $496 $497 forward $156 $-1 #
coedge $-1 $492 $498 $277 $399 reversed $499 $-1 #
edge $-1 $400 -37.185674998174434 $500 37.185674998174434 $398 $501 forward 7 unknown #
vertex $-1 $399 $502 #
straight-curve $-1 0 -37.185674998174434 18.492062697004698 1 0 0 I I #
face $-1 $503 $504 $19 $-1 $505 forward single #
loop $-1 $-1 $506 $281 #
plane-surface $-1 0 0 18.492062697004698 0 0 1 1 0 0 forward_v I I I I #
coedge $-1 $507 $508 $506 $509 reversed $282 $-1 #
coedge $-1 $510 $407 $412 $511 reversed $284 $-1 #
coedge $-1 $406 $512 $285 $408 reversed $284 $-1 #
edge $-1 $413 -13.79603767878516 $513 2.1388861263899031e-014 $285 $514 forward 7 unknown #
coedge $-1 $515 $516 $286 $410 forward $517 $-1 #
edge $-1 $414 31.781037640261339 $513 42.193039559904371 $409 $518 forward 7 unknown #
coedge $-1 $519 $287 $516 $520 forward $403 $-1 #
coedge $-1 $287 $506 $406 $511 forward $403 $-1 #
vertex $-1 $511 $521 #
vertex $-1 $520 $522 #
straight-curve $-1 51.628331287801487 -71.777901893854107 18.492062697004698 0 -1 0 I I #
vertex $-1 $289 $523 #
point $-1 43.56732330802015 -29.291993546083138 10.358152843781653 #
straight-curve $-1 -70.470900601214638 37.185674998174434 0 0 0 -1 I I #
point $-1 -70.470900601214638 -37.185674998174434 -18.492062697004698 #
straight-curve $-1 -70.470900601214638 0 -18.492062697004698 0 1 0 I I #
point $-1 -70.470900601214638 37.185674998174434 -18.492062697004698 #
face $-1 $-1 $322 $16 $-1 $524 reversed single #
plane-surface $-1 0 37.185674998174434 0 0 -1 0 0 0 -1 forward_v I I I I #
edge $-1 $426 -150.36308585913585 $327 9.4212846567065753 $334 $525 forward 7 unknown #
vertex $-1 $314 $526 #
vertex $-1 $431 $527 #
straight-curve $-1 70.470900601214638 0 -18.492062697004698 0 -1 0 I I #
straight-curve $-1 0 37.185674998174434 18.492062697004698 -1 0 0 I I #
coedge $-1 $318 $334 $320 $431 reversed $206 $-1 #
straight-curve $-1 0 -37.185674998174434 18.492062697004698 1 0 0 I I #
edge $-1 $323 -18.492062697004698 $426 18.492062697004698 $320 $528 forward 7 unknown #
edge $-1 $324 -18.492062697004698 $425 18.492062697004698 $321 $529 forward 7 unknown #
point $-1 70.470900601214638 -37.185674998174434 18.492062697004698 #
point $-1 70.470900601214638 37.185674998174434 18.492062697004698 #
straight-curve $-1 -89.313469914627788 -37.185674998174434 -15.404897849095985 0 0 -1 I I #
point $-1 -89.313469914627788 -37.185674998174434 -18.492062697004698 #
straight-curve $-1 0 37.185674998174434 -18.492062697004698 1 0 0 I I #
straight-curve $-1 -70.470900601214638 0 18.492062697004698 0 -1 0 I I #
point $-1 -70.470900601214638 -37.185674998174434 18.492062697004698 #
point $-1 -70.470900601214638 37.185674998174434 18.492062697004698 #
face $-1 $375 $356 $17 $-1 $530 reversed single #
plane-surface $-1 0 -37.185674998174434 0 0 1 0 0 0 1 forward_v I I I I #
coedge $-1 $531 $344 $373 $469 forward $234 $-1 #
coedge $-1 $344 $531 $377 $473 forward $234 $-1 #
coedge $-1 $369 $368 $344 $446 reversed $370 $-1 #
edge $-1 $474 -37.185674998174434 $470 37.185674998174434 $445 $532 forward 7 unknown #
coedge $-1 $346 $345 $364 $465 reversed $140 $-1 #
coedge $-1 $361 $360 $345 $449 forward $342 $-1 #
edge $-1 $466 -37.185674998174434 $452 37.185674998174434 $345 $533 forward 7 unknown #
edge $-1 $451 -37.185674998174434 $456 37.185674998174434 $346 $534 forward 7 unknown #
vertex $-1 $351 $535 #
vertex $-1 $463 $536 #
straight-curve $-1 -89.313469914627788 37.185674998174434 -15.404897849095985 0 0 -1 I I #
coedge $-1 $373 $350 $355 $460 reversed $251 $-1 #
straight-curve $-1 -79.892185257921213 37.185674998174434 -12.317733001187271 -1 0 0 I I #
vertex $-1 $450 $537 #
straight-curve $-1 -79.892185257921213 -37.185674998174434 -12.317733001187271 1 0 0 I I #
coedge $-1 $355 $354 $531 $538 reversed $356 $-1 #
edge $-1 $539 -18.492062697004698 $358 12.317733001187271 $354 $540 forward 7 unknown #
edge $-1 $541 -18.492062697004698 $357 12.317733001187271 $454 $542 forward 7 unknown #
point $-1 -70.470900601214638 37.185674998174434 -12.317733001187271 #
point $-1 -70.470900601214638 -37.185674998174434 -12.317733001187271 #
edge $-1 $452 -169.205655172549 $362 9.4212846567065753 $372 $543 forward 7 unknown #
point $-1 89.313469914627788 37.185674998174434 -18.492062697004698 #
edge $-1 $456 -3.0871648479087135 $466 3.0871648479087135 $447 $544 forward 7 unknown #
vertex $-1 $449 $545 #
straight-curve $-1 79.892185257921213 -37.185674998174434 -18.492062697004698 -1 0 0 I I #
face $-1 $-1 $370 $17 $-1 $546 reversed single #
edge $-1 $470 -70.470900601214638 $541 70.470900601214638 $373 $547 forward 7 unknown #
vertex $-1 $446 $548 #
straight-curve $-1 70.470900601214638 37.185674998174434 0 0 0 -1 I I #
plane-surface $-1 0 37.185674998174434 0 0 -1 0 0 0 -1 forward_v I I I I #
edge $-1 $539 -70.470900601214638 $474 70.470900601214638 $377 $549 forward 7 unknown #
vertex $-1 $446 $550 #
straight-curve $-1 70.470900601214638 -37.185674998174434 0 0 0 -1 I I #
face $-1 $551 $552 $18 $-1 $553 reversed single #
loop $-1 $-1 $554 $381 #
plane-surface $-1 -79.892185257921213 0 -12.317733001187271 0 0 1 1 0 0 forward_v I I I I #
coedge $-1 $555 $482 $556 $557 forward $382 $-1 #
coedge $-1 $558 $384 $559 $560 forward $261 $-1 #
coedge $-1 $384 $558 $491 $561 forward $261 $-1 #
coedge $-1 $479 $562 $384 $483 reversed $382 $-1 #
edge $-1 $563 -37.185674998174434 $564 37.185674998174434 $482 $565 forward 7 unknown #
coedge $-1 $385 $397 $566 $567 forward $156 $-1 #
coedge $-1 $568 $386 $385 $486 reversed $275 $-1 #
edge $-1 $569 -70.470900601214638 $388 29.506315328238813 $485 $401 forward 7 unknown #
straight-curve $-1 29.506315328238813 -37.185674998174434 50.273100337266037 0 0 1 I I #
point $-1 29.506315328238813 -37.185674998174434 18.492062697004698 #
straight-curve $-1 20.283661654010075 -37.185674998174434 8.0800607773616662 -1 0 0 I I #
point $-1 29.506315328238813 -37.185674998174434 8.0800607773616644 #
coedge $-1 $395 $556 $481 $561 reversed $275 $-1 #
coedge $-1 $570 $398 $395 $493 forward $499 $-1 #
edge $-1 $400 -18.492062697004698 $571 12.317733001187271 $492 $572 forward 7 unknown #
face $-1 $573 $574 $18 $-1 $575 reversed single #
plane-surface $-1 0 -37.185674998174434 0 0 1 0 0 0 1 forward_v I I I I #
coedge $-1 $576 $577 $397 $497 reversed $578 $-1 #
edge $-1 $500 -70.470900601214638 $579 70.470900601214638 $496 $580 forward 7 unknown #
coedge $-1 $398 $570 $576 $581 reversed $499 $-1 #
loop $-1 $-1 $570 $582 #
vertex $-1 $399 $583 #
straight-curve $-1 70.470900601214638 0 18.492062697004698 0 1 0 I I #
point $-1 70.470900601214638 -37.185674998174434 18.492062697004698 #
face $-1 $584 $585 $19 $-1 $586 reversed single #
loop $-1 $-1 $587 $402 #
plane-surface $-1 79.892185257921213 0 -12.317733001187271 0 0 1 1 0 0 forward_v I I I I #
coedge $-1 $412 $588 $405 $509 forward $403 $-1 #
coedge $-1 $508 $405 $589 $590 reversed $282 $-1 #
coedge $-1 $405 $507 $510 $591 forward $282 $-1 #
edge $-1 $592 34.592226895679673 $593 43.643241847595846 $506 $594 forward 7 unknown #
coedge $-1 $512 $406 $508 $591 reversed $284 $-1 #
edge $-1 $593 9.2226536742287379 $413 31.344669633791412 $412 $595 forward 7 unknown #
coedge $-1 $407 $510 $515 $596 reversed $284 $-1 #
vertex $-1 $596 $597 #
straight-curve $-1 51.628331287801487 -37.18567499817442 8.0800607773616804 0 -0.65605901945558964 -0.75470958851134928 I I #
coedge $-1 $589 $409 $512 $596 forward $517 $-1 #
coedge $-1 $409 $598 $411 $520 reversed $517 $-1 #
loop $-1 $-1 $589 $599 #
straight-curve $-1 51.628331287801487 -37.185674998174434 50.273100337266037 0 0 -1 I I #
coedge $-1 $600 $411 $601 $602 forward $403 $-1 #
edge $-1 $414 51.628331287801487 $603 70.470900601214638 $516 $604 forward 7 unknown #
point $-1 51.628331287801487 -28.134660046258261 18.492062697004698 #
point $-1 51.628331287801487 -37.185674998174434 18.492062697004698 #
point $-1 40.56732330802015 -27.027864780549091 8.3899757854148831 #
plane-surface $-1 70.470900601214638 0 0 -1 0 0 0 0 1 forward_v I I I I #
straight-curve $-1 -79.892185257921213 -37.185674998174434 -18.492062697004698 -1 0 0 I I #
point $-1 70.470900601214638 37.185674998174434 -18.492062697004698 #
point $-1 70.470900601214638 -37.185674998174434 -18.492062697004698 #
straight-curve $-1 70.470900601214638 -37.185674998174434 0 0 0 -1 I I #
straight-curve $-1 70.470900601214638 37.185674998174434 0 0 0 -1 I I #
plane-surface $-1 -70.470900601214638 0 0 1 0 0 0 0 -1 forward_v I I I I #
coedge $-1 $444 $443 $458 $538 forward $234 $-1 #
straight-curve $-1 70.470900601214638 0 18.492062697004698 0 1 0 I I #
straight-curve $-1 -89.313469914627788 0 -18.492062697004698 0 1 0 I I #
straight-curve $-1 -89.313469914627788 0 -12.317733001187271 0 -1 0 I I #
point $-1 -89.313469914627788 37.185674998174434 -12.317733001187271 #
point $-1 -89.313469914627788 37.185674998174434 -18.492062697004698 #
point $-1 -89.313469914627788 -37.185674998174434 -12.317733001187271 #
edge $-1 $541 -37.185674998174434 $539 37.185674998174434 $458 $605 forward 7 unknown #
vertex $-1 $538 $606 #
straight-curve $-1 -70.470900601214638 -37.185674998174434 0 0 0 -1 I I #
vertex $-1 $469 $607 #
straight-curve $-1 -70.470900601214638 37.185674998174434 0 0 0 -1 I I #
straight-curve $-1 79.892185257921213 37.185674998174434 -18.492062697004698 1 0 0 I I #
straight-curve $-1 -89.313469914627788 -37.185674998174434 -15.404897849095985 0 0 -1 I I #
point $-1 -89.313469914627788 -37.185674998174434 -18.492062697004698 #
plane-surface $-1 70.470900601214638 0 0 -1 0 0 0 0 1 forward_v I I I I #
straight-curve $-1 0 37.185674998174434 18.492062697004698 -1 0 0 I I #
point $-1 70.470900601214638 37.185674998174434 18.492062697004698 #
straight-curve $-1 0 -37.185674998174434 18.492062697004698 1 0 0 I I #
point $-1 70.470900601214638 -37.185674998174434 18.492062697004698 #
face $-1 $396 $608 $18 $-1 $609 reversed single #
loop $-1 $-1 $610 $476 #
plane-surface $-1 -89.313469914627788 0 -15.404897849095985 1 0 0 0 0 -1 forward_v I I I I #
coedge $-1 $611 $612 $613 $614 reversed $477 $-1 #
coedge $-1 $562 $479 $615 $616 reversed $382 $-1 #
coedge $-1 $491 $617 $479 $557 reversed $275 $-1 #
edge $-1 $563 -3.0871648479087135 $618 3.0871648479087135 $479 $619 forward 7 unknown #
coedge $-1 $481 $480 $570 $620 reversed $261 $-1 #
coedge $-1 $621 $576 $480 $560 reversed $578 $-1 #
edge $-1 $564 -9.4212846567065753 $622 9.4212846567065753 $559 $623 forward 7 unknown #
edge $-1 $571 -9.4212846567065753 $563 9.4212846567065753 $491 $624 forward 7 unknown #
coedge $-1 $482 $555 $621 $625 reversed $382 $-1 #
vertex $-1 $483 $626 #
vertex $-1 $483 $627 #
straight-curve $-1 89.313469914627788 0 -12.317733001187271 0 1 0 I I #
coedge $-1 $628 $629 $484 $567 reversed $574 $-1 #
edge $-1 $579 -37.185674998174434 $569 37.185674998174434 $566 $630 forward 7 unknown #
coedge $-1 $631 $485 $629 $632 forward $275 $-1 #
vertex $-1 $567 $633 #
coedge $-1 $498 $492 $558 $620 forward $499 $-1 #
vertex $-1 $493 $634 #
straight-curve $-1 70.470900601214638 -37.185674998174434 0 0 0 -1 I I #
face $-1 $582 $578 $18 $-1 $635 reversed single #
loop $-1 $-1 $613 $494 #
plane-surface $-1 -70.470900601214638 0 0 1 0 0 0 0 -1 forward_v I I I I #
coedge $-1 $559 $496 $498 $581 forward $578 $-1 #
coedge $-1 $496 $636 $628 $637 reversed $578 $-1 #
loop $-1 $-1 $576 $573 #
vertex $-1 $497 $638 #
straight-curve $-1 0 37.185674998174434 18.492062697004698 -1 0 0 I I #
edge $-1 $500 -18.492062697004698 $622 12.317733001187271 $498 $639 forward 7 unknown #
face $-1 $-1 $499 $18 $-1 $640 reversed single #
point $-1 70.470900601214638 37.185674998174434 18.492062697004698 #
face $-1 $641 $642 $19 $-1 $643 forward single #
loop $-1 $-1 $644 $503 #
plane-surface $-1 89.313469914627788 0 -15.404897849095985 -1 0 0 0 0 1 forward_v I I I I #
coedge $-1 $645 $646 $647 $648 forward $504 $-1 #
coedge $-1 $506 $649 $650 $651 forward $403 $-1 #
coedge $-1 $650 $515 $507 $590 forward $517 $-1 #
edge $-1 $652 -42.193039559904371 $592 -31.781037640261339 $589 $653 forward 7 unknown #
edge $-1 $652 -2.1388861263899031e-014 $593 13.79603767878516 $508 $654 forward 7 unknown #
vertex $-1 $590 $655 #
vertex $-1 $511 $656 #
straight-curve $-1 29.506315328238813 -71.777901893854107 18.492062697004698 0 1 0 I I #
straight-curve $-1 20.283661654010075 -28.134660046258258 18.492062697004698 1 0 0 I I #
edge $-1 $513 -31.344669633791412 $652 -9.2226536742287379 $515 $657 forward 7 unknown #
point $-1 51.628331287801487 -37.185674998174434 8.0800607773616644 #
coedge $-1 $516 $658 $659 $660 reversed $517 $-1 #
face $-1 $661 $517 $19 $-1 $662 reversed single #
coedge $-1 $649 $519 $663 $664 forward $403 $-1 #
coedge $-1 $659 $665 $519 $602 reversed $666 $-1 #
edge $-1 $603 -37.185674998174434 $667 37.185674998174434 $601 $668 forward 7 unknown #
vertex $-1 $602 $669 #
straight-curve $-1 0 -37.185674998174434 18.492062697004698 1 0 0 I I #
straight-curve $-1 -70.470900601214638 0 18.492062697004698 0 -1 0 I I #
point $-1 -70.470900601214638 -37.185674998174434 18.492062697004698 #
point $-1 -70.470900601214638 37.185674998174434 18.492062697004698 #
loop $-1 $-1 $670 $551 #
plane-surface $-1 0 0 -18.492062697004698 0 0 1 1 0 0 forward_v I I I I #
coedge $-1 $671 $672 $673 $674 forward $552 $-1 #
coedge $-1 $675 $554 $636 $676 forward $477 $-1 #
coedge $-1 $554 $675 $631 $677 forward $477 $-1 #
coedge $-1 $629 $628 $554 $614 forward $574 $-1 #
edge $-1 $678 -37.185674998174434 $679 37.185674998174434 $613 $680 forward 7 unknown #
coedge $-1 $670 $681 $555 $616 forward $608 $-1 #
edge $-1 $682 -37.185674998174434 $618 37.185674998174434 $555 $683 forward 7 unknown #
coedge $-1 $556 $684 $670 $685 reversed $275 $-1 #
vertex $-1 $557 $686 #
straight-curve $-1 89.313469914627788 -37.185674998174434 -15.404897849095985 0 0 -1 I I #
edge $-1 $571 -37.185674998174434 $622 37.185674998174434 $570 $687 forward 7 unknown #
coedge $-1 $688 $559 $562 $625 forward $578 $-1 #
vertex $-1 $560 $689 #
straight-curve $-1 79.892185257921213 37.185674998174434 -12.317733001187271 -1 0 0 I I #
straight-curve $-1 79.892185257921213 -37.185674998174434 -12.317733001187271 1 0 0 I I #
edge $-1 $564 -3.0871648479087135 $682 3.0871648479087135 $562 $690 forward 7 unknown #
point $-1 89.313469914627788 -37.185674998174434 -12.317733001187271 #
point $-1 89.313469914627788 37.185674998174434 -12.317733001187271 #
coedge $-1 $613 $566 $577 $637 forward $574 $-1 #
coedge $-1 $566 $613 $568 $632 reversed $574 $-1 #
straight-curve $-1 -70.470900601214638 0 18.492062697004698 0 -1 0 I I #
coedge $-1 $684 $568 $612 $677 reversed $275 $-1 #
edge $-1 $569 -18.492062697004698 $679 12.317733001187271 $629 $691 forward 7 unknown #
point $-1 -70.470900601214638 -37.185674998174434 18.492062697004698 #
point $-1 70.470900601214638 -37.185674998174434 -12.317733001187271 #
plane-surface $-1 0 37.185674998174434 0 0 -1 0 0 0 -1 forward_v I I I I #
coedge $-1 $577 $673 $611 $676 reversed $578 $-1 #
edge $-1 $579 -18.492062697004698 $678 12.317733001187271 $577 $692 forward 7 unknown #
point $-1 -70.470900601214638 37.185674998174434 18.492062697004698 #
straight-curve $-1 70.470900601214638 37.185674998174434 0 0 0 -1 I I #
plane-surface $-1 70.470900601214638 0 0 -1 0 0 0 0 1 forward_v I I I I #
face $-1 $693 $694 $19 $-1 $695 reversed single #
loop $-1 $-1 $696 $584 #
plane-surface $-1 -79.892185257921213 0 -12.317733001187271 0 0 1 1 0 0 forward_v I I I I #
coedge $-1 $697 $647 $698 $699 forward $585 $-1 #
coedge $-1 $700 $587 $701 $702 forward $504 $-1 #
coedge $-1 $587 $700 $658 $703 forward $504 $-1 #
coedge $-1 $644 $704 $587 $648 reversed $585 $-1 #
edge $-1 $705 -37.185674998174434 $706 37.185674998174434 $647 $707 forward 7 unknown #
coedge $-1 $588 $600 $708 $709 forward $403 $-1 #
coedge $-1 $710 $589 $588 $651 reversed $517 $-1 #
edge $-1 $711 -70.470900601214638 $592 29.506315328238813 $650 $604 forward 7 unknown #
vertex $-1 $596 $712 #
straight-curve $-1 29.506315328238813 -37.185674998174434 50.273100337266037 0 0 1 I I #
straight-curve $-1 29.506315328238813 -37.18567499817442 8.0800607773616804 0 0.65605901945558964 0.75470958851134928 I I #
point $-1 29.506315328238813 -37.185674998174434 18.492062697004698 #
point $-1 29.506315328238813 -28.134660046258261 18.492062697004698 #
straight-curve $-1 20.283661654010075 -37.185674998174434 8.0800607773616662 -1 0 0 I I #
coedge $-1 $598 $698 $646 $703 reversed $517 $-1 #
coedge $-1 $713 $601 $598 $660 forward $666 $-1 #
edge $-1 $603 -18.492062697004698 $714 12.317733001187271 $659 $715 forward 7 unknown #
face $-1 $716 $717 $19 $-1 $718 reversed single #
plane-surface $-1 0 -37.185674998174434 0 0 1 0 0 0 1 forward_v I I I I #
coedge $-1 $719 $720 $600 $664 reversed $721 $-1 #
edge $-1 $667 -70.470900601214638 $722 70.470900601214638 $663 $723 forward 7 unknown #
coedge $-1 $601 $713 $719 $724 reversed $666 $-1 #
loop $-1 $-1 $713 $725 #
vertex $-1 $602 $726 #
straight-curve $-1 70.470900601214638 0 18.492062697004698 0 1 0 I I #
point $-1 70.470900601214638 -37.185674998174434 18.492062697004698 #
coedge $-1 $727 $615 $617 $685 forward $608 $-1 #
coedge $-1 $728 $610 $727 $729 reversed $552 $-1 #
coedge $-1 $610 $728 $675 $730 reversed $552 $-1 #
coedge $-1 $636 $688 $610 $674 reversed $578 $-1 #
edge $-1 $731 -3.0871648479087135 $732 3.0871648479087135 $673 $733 forward 7 unknown #
coedge $-1 $612 $611 $672 $730 forward $477 $-1 #
edge $-1 $678 -9.4212846567065753 $731 9.4212846567065753 $636 $734 forward 7 unknown #
edge $-1 $735 -9.4212846567065753 $679 9.4212846567065753 $631 $736 forward 7 unknown #
vertex $-1 $637 $737 #
vertex $-1 $677 $738 #
straight-curve $-1 -70.470900601214638 0 -12.317733001187271 0 -1 0 I I #
coedge $-1 $615 $727 $688 $739 forward $608 $-1 #
vertex $-1 $616 $740 #
straight-curve $-1 89.313469914627788 0 -18.492062697004698 0 -1 0 I I #
coedge $-1 $617 $631 $728 $741 forward $275 $-1 #
edge $-1 $618 -9.4212846567065753 $742 169.205655172549 $617 $743 forward 7 unknown #
point $-1 89.313469914627788 -37.185674998174434 -18.492062697004698 #
straight-curve $-1 70.470900601214638 0 -12.317733001187271 0 1 0 I I #
coedge $-1 $673 $621 $681 $739 reversed $578 $-1 #
point $-1 70.470900601214638 37.185674998174434 -12.317733001187271 #
straight-curve $-1 89.313469914627788 37.185674998174434 -15.404897849095985 0 0 -1 I I #
straight-curve $-1 -70.470900601214638 -37.185674998174434 0 0 0 -1 I I #
straight-curve $-1 -70.470900601214638 37.185674998174434 0 0 0 -1 I I #
face $-1 $599 $744 $19 $-1 $745 reversed single #
loop $-1 $-1 $746 $641 #
plane-surface $-1 -89.313469914627788 0 -15.404897849095985 1 0 0 0 0 -1 forward_v I I I I #
coedge $-1 $747 $748 $749 $750 reversed $642 $-1 #
coedge $-1 $704 $644 $751 $752 reversed $585 $-1 #
coedge $-1 $658 $753 $644 $699 reversed $517 $-1 #
edge $-1 $705 -3.0871648479087135 $754 3.0871648479087135 $644 $755 forward 7 unknown #
coedge $-1 $646 $645 $713 $756 reversed $504 $-1 #
coedge $-1 $757 $719 $645 $702 reversed $721 $-1 #
edge $-1 $706 -9.4212846567065753 $758 9.4212846567065753 $701 $759 forward 7 unknown #
edge $-1 $714 -9.4212846567065753 $705 9.4212846567065753 $658 $760 forward 7 unknown #
coedge $-1 $647 $697 $757 $761 reversed $585 $-1 #
vertex $-1 $648 $762 #
vertex $-1 $648 $763 #
straight-curve $-1 89.313469914627788 0 -12.317733001187271 0 1 0 I I #
coedge $-1 $764 $765 $649 $709 reversed $717 $-1 #
edge $-1 $722 -37.185674998174434 $711 37.185674998174434 $708 $766 forward 7 unknown #
coedge $-1 $767 $650 $765 $768 forward $517 $-1 #
vertex $-1 $709 $769 #
point $-1 29.506315328238813 -37.185674998174434 8.0800607773616644 #
coedge $-1 $665 $659 $700 $756 forward $666 $-1 #
vertex $-1 $660 $770 #
straight-curve $-1 70.470900601214638 -37.185674998174434 0 0 0 -1 I I #
face $-1 $725 $721 $19 $-1 $771 reversed single #
loop $-1 $-1 $749 $661 #
plane-surface $-1 -70.470900601214638 0 0 1 0 0 0 0 -1 forward_v I I I I #
coedge $-1 $701 $663 $665 $724 forward $721 $-1 #
coedge $-1 $663 $772 $764 $773 reversed $721 $-1 #
loop $-1 $-1 $719 $716 #
vertex $-1 $664 $774 #
straight-curve $-1 0 37.185674998174434 18.492062697004698 -1 0 0 I I #
edge $-1 $667 -18.492062697004698 $758 12.317733001187271 $665 $775 forward 7 unknown #
face $-1 $-1 $666 $19 $-1 $776 reversed single #
point $-1 70.470900601214638 37.185674998174434 18.492062697004698 #
coedge $-1 $681 $670 $671 $729 forward $608 $-1 #
coedge $-1 $672 $671 $684 $741 reversed $552 $-1 #
edge $-1 $742 -37.185674998174434 $732 37.185674998174434 $671 $777 forward 7 unknown #
edge $-1 $731 -37.185674998174434 $735 37.185674998174434 $672 $778 forward 7 unknown #
vertex $-1 $676 $779 #
vertex $-1 $739 $780 #
straight-curve $-1 -89.313469914627788 37.185674998174434 -15.404897849095985 0 0 -1 I I #
straight-curve $-1 -79.892185257921213 37.185674998174434 -12.317733001187271 -1 0 0 I I #
vertex $-1 $730 $781 #
straight-curve $-1 -79.892185257921213 -37.185674998174434 -12.317733001187271 1 0 0 I I #
point $-1 -70.470900601214638 37.185674998174434 -12.317733001187271 #
point $-1 -70.470900601214638 -37.185674998174434 -12.317733001187271 #
edge $-1 $732 -169.205655172549 $682 9.4212846567065753 $688 $782 forward 7 unknown #
point $-1 89.313469914627788 37.185674998174434 -18.492062697004698 #
edge $-1 $735 -3.0871648479087135 $742 3.0871648479087135 $728 $783 forward 7 unknown #
vertex $-1 $729 $784 #
straight-curve $-1 79.892185257921213 -37.185674998174434 -18.492062697004698 -1 0 0 I I #
loop $-1 $-1 $785 $693 #
plane-surface $-1 0 0 -18.492062697004698 0 0 1 1 0 0 forward_v I I I I #
coedge $-1 $786 $787 $788 $789 forward $694 $-1 #
coedge $-1 $790 $696 $772 $791 forward $642 $-1 #
coedge $-1 $696 $790 $767 $792 forward $642 $-1 #
coedge $-1 $765 $764 $696 $750 forward $717 $-1 #
edge $-1 $793 -37.185674998174434 $794 37.185674998174434 $749 $795 forward 7 unknown #
coedge $-1 $785 $796 $697 $752 forward $744 $-1 #
edge $-1 $797 -37.185674998174434 $754 37.185674998174434 $697 $798 forward 7 unknown #
coedge $-1 $698 $799 $785 $800 reversed $517 $-1 #
vertex $-1 $699 $801 #
straight-curve $-1 89.313469914627788 -37.185674998174434 -15.404897849095985 0 0 -1 I I #
edge $-1 $714 -37.185674998174434 $758 37.185674998174434 $713 $802 forward 7 unknown #
coedge $-1 $803 $701 $704 $761 forward $721 $-1 #
vertex $-1 $702 $804 #
straight-curve $-1 79.892185257921213 37.185674998174434 -12.317733001187271 -1 0 0 I I #
straight-curve $-1 79.892185257921213 -37.185674998174434 -12.317733001187271 1 0 0 I I #
edge $-1 $706 -3.0871648479087135 $797 3.0871648479087135 $704 $805 forward 7 unknown #
point $-1 89.313469914627788 -37.185674998174434 -12.317733001187271 #
point $-1 89.313469914627788 37.185674998174434 -12.317733001187271 #
coedge $-1 $749 $708 $720 $773 forward $717 $-1 #
coedge $-1 $708 $749 $710 $768 reversed $717 $-1 #
straight-curve $-1 -70.470900601214638 0 18.492062697004698 0 -1 0 I I #
coedge $-1 $799 $710 $748 $792 reversed $517 $-1 #
edge $-1 $711 -18.492062697004698 $794 12.317733001187271 $765 $806 forward 7 unknown #
point $-1 -70.470900601214638 -37.185674998174434 18.492062697004698 #
point $-1 70.470900601214638 -37.185674998174434 -12.317733001187271 #
plane-surface $-1 0 37.185674998174434 0 0 -1 0 0 0 -1 forward_v I I I I #
coedge $-1 $720 $788 $747 $791 reversed $721 $-1 #
edge $-1 $722 -18.492062697004698 $793 12.317733001187271 $720 $807 forward 7 unknown #
point $-1 -70.470900601214638 37.185674998174434 18.492062697004698 #
straight-curve $-1 70.470900601214638 37.185674998174434 0 0 0 -1 I I #
plane-surface $-1 70.470900601214638 0 0 -1 0 0 0 0 1 forward_v I I I I #
straight-curve $-1 -89.313469914627788 0 -18.492062697004698 0 1 0 I I #
straight-curve $-1 -89.313469914627788 0 -12.317733001187271 0 -1 0 I I #
point $-1 -89.313469914627788 37.185674998174434 -12.317733001187271 #
point $-1 -89.313469914627788 37.185674998174434 -18.492062697004698 #
point $-1 -89.313469914627788 -37.185674998174434 -12.317733001187271 #
straight-curve $-1 79.892185257921213 37.185674998174434 -18.492062697004698 1 0 0 I I #
straight-curve $-1 -89.313469914627788 -37.185674998174434 -15.404897849095985 0 0 -1 I I #
point $-1 -89.313469914627788 -37.185674998174434 -18.492062697004698 #
coedge $-1 $808 $751 $753 $800 forward $744 $-1 #
coedge $-1 $809 $746 $808 $810 reversed $694 $-1 #
coedge $-1 $746 $809 $790 $811 reversed $694 $-1 #
coedge $-1 $772 $803 $746 $789 reversed $721 $-1 #
edge $-1 $812 -3.0871648479087135 $813 3.0871648479087135 $788 $814 forward 7 unknown #
coedge $-1 $748 $747 $787 $811 forward $642 $-1 #
edge $-1 $793 -9.4212846567065753 $812 9.4212846567065753 $772 $815 forward 7 unknown #
edge $-1 $816 -9.4212846567065753 $794 9.4212846567065753 $767 $817 forward 7 unknown #
vertex $-1 $773 $818 #
vertex $-1 $792 $819 #
straight-curve $-1 -70.470900601214638 0 -12.317733001187271 0 -1 0 I I #
coedge $-1 $751 $808 $803 $820 forward $744 $-1 #
vertex $-1 $752 $821 #
straight-curve $-1 89.313469914627788 0 -18.492062697004698 0 -1 0 I I #
coedge $-1 $753 $767 $809 $822 forward $517 $-1 #
edge $-1 $754 -9.4212846567065753 $823 169.205655172549 $753 $824 forward 7 unknown #
point $-1 89.313469914627788 -37.185674998174434 -18.492062697004698 #
straight-curve $-1 70.470900601214638 0 -12.317733001187271 0 1 0 I I #
coedge $-1 $788 $757 $796 $820 reversed $721 $-1 #
point $-1 70.470900601214638 37.185674998174434 -12.317733001187271 #
straight-curve $-1 89.313469914627788 37.185674998174434 -15.404897849095985 0 0 -1 I I #
straight-curve $-1 -70.470900601214638 -37.185674998174434 0 0 0 -1 I I #
straight-curve $-1 -70.470900601214638 37.185674998174434 0 0 0 -1 I I #
coedge $-1 $796 $785 $786 $810 forward $744 $-1 #
coedge $-1 $787 $786 $799 $822 reversed $694 $-1 #
edge $-1 $823 -37.185674998174434 $813 37.185674998174434 $786 $825 forward 7 unknown #
edge $-1 $812 -37.185674998174434 $816 37.185674998174434 $787 $826 forward 7 unknown #
vertex $-1 $791 $827 #
vertex $-1 $820 $828 #
straight-curve $-1 -89.313469914627788 37.185674998174434 -15.404897849095985 0 0 -1 I I #
straight-curve $-1 -79.892185257921213 37.185674998174434 -12.317733001187271 -1 0 0 I I #
vertex $-1 $811 $829 #
straight-curve $-1 -79.892185257921213 -37.185674998174434 -12.317733001187271 1 0 0 I I #
point $-1 -70.470900601214638 37.185674998174434 -12.317733001187271 #
point $-1 -70.470900601214638 -37.185674998174434 -12.317733001187271 #
edge $-1 $813 -169.205655172549 $797 9.4212846567065753 $803 $830 forward 7 unknown #
point $-1 89.313469914627788 37.185674998174434 -18.492062697004698 #
edge $-1 $816 -3.0871648479087135 $823 3.0871648479087135 $809 $831 forward 7 unknown #
vertex $-1 $810 $832 #
straight-curve $-1 79.892185257921213 -37.185674998174434 -18.492062697004698 -1 0 0 I I #
straight-curve $-1 -89.313469914627788 0 -18.492062697004698 0 1 0 I I #
straight-curve $-1 -89.313469914627788 0 -12.317733001187271 0 -1 0 I I #
point $-1 -89.313469914627788 37.185674998174434 -12.317733001187271 #
point $-1 -89.313469914627788 37.185674998174434 -18.492062697004698 #
point $-1 -89.313469914627788 -37.185674998174434 -12.317733001187271 #
straight-curve $-1 79.892185257921213 37.185674998174434 -18.492062697004698 1 0 0 I I #
straight-curve $-1 -89.313469914627788 -37.185674998174434 -15.404897849095985 0 0 -1 I I #
point $-1 -89.313469914627788 -37.185674998174434 -18.492062697004698 #
End-of-ACIS-data 