500 0 8 0           
7 Unknown 11 ACIS 5.0 NT 24 Fri Mar 26 15:14:16 1999 
-1 9.9999999999999995e-007 1e-010 
body $-1 $8 $-1 $9 #
body $-1 $10 $-1 $11 #
body $-1 $12 $-1 $13 #
body $-1 $14 $-1 $15 #
body $-1 $16 $-1 $17 #
body $-1 $18 $-1 $19 #
body $-1 $20 $-1 $21 #
body $-1 $22 $-1 $23 #
lump $-1 $-1 $24 $0 #
transform $-1 1 0 0 0 1 0 0 0 1 69.856868190557577 28.725591051959984 10.983262657383364 1 rotate no_reflect no_shear #
lump $-1 $-1 $25 $1 #
transform $-1 1 0 0 0 1 0 0 0 1 69.856868190557577 28.725591051959984 10.983262657383364 1 rotate no_reflect no_shear #
lump $-1 $-1 $26 $2 #
transform $-1 1 0 0 0 1 0 0 0 1 69.856868190557577 28.725591051959984 10.983262657383364 1 rotate no_reflect no_shear #
lump $-1 $-1 $27 $3 #
transform $-1 1 0 0 0 1 0 0 0 1 69.856868190557577 28.725591051959984 10.983262657383364 1 rotate no_reflect no_shear #
lump $-1 $-1 $28 $4 #
transform $-1 1 0 0 0 1 0 0 0 1 69.856868190557577 28.725591051959984 10.983262657383364 1 rotate no_reflect no_shear #
lump $-1 $-1 $29 $5 #
transform $-1 1 0 0 0 1 0 0 0 1 69.856868190557577 28.725591051959984 10.983262657383364 1 rotate no_reflect no_shear #
lump $-1 $-1 $30 $6 #
transform $-1 1 0 0 0 1 0 0 0 1 69.856868190557577 28.725591051959984 10.983262657383364 1 rotate no_reflect no_shear #
lump $-1 $-1 $31 $7 #
transform $-1 1 0 0 0 1 0 0 0 1 69.856868190557577 28.725591051959984 10.983262657383364 1 rotate no_reflect no_shear #
shell $-1 $-1 $-1 $32 $-1 $8 #
shell $-1 $-1 $-1 $33 $-1 $10 #
shell $-1 $-1 $-1 $34 $-1 $12 #
shell $-1 $-1 $-1 $35 $-1 $14 #
shell $-1 $-1 $-1 $36 $-1 $16 #
shell $-1 $-1 $-1 $37 $-1 $18 #
shell $-1 $-1 $-1 $38 $-1 $20 #
shell $-1 $-1 $-1 $39 $-1 $22 #
face $-1 $40 $41 $24 $-1 $42 forward single #
face $-1 $43 $44 $25 $-1 $45 forward single #
face $-1 $46 $47 $26 $-1 $48 reversed single #
face $-1 $49 $50 $27 $-1 $51 forward single #
face $-1 $52 $53 $28 $-1 $54 forward single #
face $-1 $55 $56 $29 $-1 $57 reversed single #
face $-1 $58 $59 $30 $-1 $60 forward single #
face $-1 $61 $62 $31 $-1 $63 forward single #
face $-1 $64 $65 $24 $-1 $66 reversed single #
loop $-1 $-1 $67 $32 #
plane-surface $-1 0 0 10.983262657383364 0 0 1 1 0 0 forward_v I I I I #
face $-1 $68 $69 $25 $-1 $70 reversed single #
loop $-1 $-1 $71 $33 #
plane-surface $-1 0 -22.833424432280001 -7.6076699904487981 0 0 1 1 0 0 forward_v I I I I #
face $-1 $72 $73 $26 $-1 $74 reversed single #
loop $-1 $-1 $75 $34 #
plane-surface $-1 -161.5173275320513 -10.550687111835519 111.07131546664077 0 1 0 -0.6560590369687036 0 0.75470957328743171 forward_v I I I I #
face $-1 $76 $77 $27 $-1 $78 forward single #
loop $-1 $79 $80 $35 #
cone-surface $-1 -66.138578618602892 -8.5769006693916197 7.5716616555701659 0.6560590369687036 0 -0.75470957328743171 0.37735478664371586 0 0.3280295184843518 1 I I 0 1 0.5 forward I I I I #
face $-1 $81 $82 $28 $-1 $83 forward single #
loop $-1 $84 $85 $36 #
cone-surface $-1 -66.138578618602892 -5.6162210057257695 7.5716616555701659 0.6560590369687036 0 -0.75470957328743171 0.37735478664371586 0 0.3280295184843518 1 I I 0 1 0.5 forward I I I I #
face $-1 $86 $87 $29 $-1 $88 reversed single #
loop $-1 $-1 $89 $37 #
plane-surface $-1 56.074033165467156 -3.6424345632818707 202.7317748081345 0 -1 0 -0.6560590369687036 0 -0.75470957328743171 forward_v I I I I #
face $-1 $90 $91 $30 $-1 $92 forward single #
loop $-1 $93 $94 $38 #
cone-surface $-1 66.138578618602878 -8.5769006693916197 7.5716616555701624 -0.6560590369687036 0 -0.75470957328743171 0.37735478664371586 0 -0.3280295184843518 1 I I 0 1 0.5 forward I I I I #
face $-1 $95 $96 $31 $-1 $97 forward single #
loop $-1 $98 $99 $39 #
cone-surface $-1 66.138578618602878 -5.6162210057257695 7.5716616555701624 -0.6560590369687036 0 -0.75470957328743171 0.37735478664371586 0 -0.3280295184843518 1 I I 0 1 0.5 forward I I I I #
face $-1 $100 $101 $24 $-1 $102 reversed single #
loop $-1 $-1 $103 $40 #
plane-surface $-1 0 0 -10.983262657383364 0 0 1 1 0 0 forward_v I I I I #
coedge $-1 $104 $105 $106 $107 forward $41 $-1 #
face $-1 $108 $109 $25 $-1 $110 reversed single #
loop $-1 $-1 $111 $43 #
plane-surface $-1 0 -16.941257812600018 -9.2954663239160809 0 -1 0 0 0 -1 forward_v I I I I #
coedge $-1 $112 $113 $114 $115 reversed $44 $-1 #
face $-1 $116 $117 $26 $-1 $118 reversed single #
loop $-1 $-1 $119 $46 #
plane-surface $-1 -69.856868190557563 -7.0965608375586946 5.6280211000566283 -0.6560590369687036 0 0.75470957328743171 0.75470957328743171 0 0.6560590369687036 forward_v I I I I #
coedge $-1 $120 $121 $122 $123 reversed $47 $-1 #
face $-1 $-1 $124 $27 $-1 $125 forward single #
loop $-1 $126 $127 $49 #
cone-surface $-1 -65.336524571934902 -8.5769006693916197 6.6490040390984753 0.6560590369687036 0 -0.75470957328743171 0.18867739332185793 0 0.1640147592421759 1 I I -0.70710678118654746 0.70710678118654746 0.25 forward I I I I #
loop $-1 $-1 $128 $35 #
coedge $-1 $80 $80 $129 $130 reversed $50 $-1 #
face $-1 $-1 $131 $28 $-1 $132 forward single #
loop $-1 $133 $134 $52 #
cone-surface $-1 -65.336524571934902 -5.6162210057257695 6.6490040390984753 0.6560590369687036 0 -0.75470957328743171 0.18867739332185793 0 0.1640147592421759 1 I I -0.70710678118654746 0.70710678118654746 0.25 forward I I I I #
loop $-1 $-1 $135 $36 #
coedge $-1 $85 $85 $136 $137 reversed $53 $-1 #
face $-1 $138 $139 $29 $-1 $140 reversed single #
loop $-1 $-1 $141 $55 #
plane-surface $-1 -35.586426176026578 -7.0965608375586946 97.288480441550362 0.6560590369687036 0 0.75470957328743171 0.75470957328743171 0 -0.6560590369687036 forward_v I I I I #
coedge $-1 $142 $143 $144 $145 reversed $56 $-1 #
face $-1 $-1 $146 $30 $-1 $147 forward single #
loop $-1 $148 $149 $58 #
cone-surface $-1 65.336524571934888 -8.5769006693916197 6.6490040390984717 -0.6560590369687036 0 -0.75470957328743171 0.18867739332185793 0 -0.1640147592421759 1 I I -0.70710678118654746 0.70710678118654746 0.25 forward I I I I #
loop $-1 $-1 $150 $38 #
coedge $-1 $94 $94 $151 $152 reversed $59 $-1 #
face $-1 $-1 $153 $31 $-1 $154 forward single #
loop $-1 $155 $156 $61 #
cone-surface $-1 65.336524571934888 -5.6162210057257695 6.6490040390984717 -0.6560590369687036 0 -0.75470957328743171 0.18867739332185793 0 -0.1640147592421759 1 I I -0.70710678118654746 0.70710678118654746 0.25 forward I I I I #
loop $-1 $-1 $157 $39 #
coedge $-1 $99 $99 $158 $159 reversed $62 $-1 #
face $-1 $160 $161 $24 $-1 $162 reversed single #
loop $-1 $-1 $163 $64 #
plane-surface $-1 0 -28.725591051959984 0 0 1 0 0 0 1 forward_v I I I I #
coedge $-1 $164 $165 $166 $167 forward $65 $-1 #
coedge $-1 $168 $67 $169 $170 forward $41 $-1 #
coedge $-1 $67 $168 $171 $172 forward $41 $-1 #
coedge $-1 $173 $174 $67 $107 reversed $175 $-1 #
edge $-1 $176 -28.725591051959984 $177 28.725591051959984 $106 $178 forward 7 unknown #
face $-1 $179 $180 $25 $-1 $181 reversed single #
loop $-1 $-1 $182 $68 #
plane-surface $-1 0 0 -10.983262657383364 0 0 1 1 0 0 forward_v I I I I #
coedge $-1 $183 $184 $185 $186 reversed $69 $-1 #
coedge $-1 $187 $71 $184 $188 forward $44 $-1 #
coedge $-1 $71 $187 $189 $190 reversed $44 $-1 #
coedge $-1 $191 $185 $71 $115 forward $180 $-1 #
edge $-1 $192 5.5245455964600172 $193 17.308878835819982 $114 $194 forward 7 unknown #
face $-1 $195 $196 $26 $-1 $197 forward single #
loop $-1 $-1 $198 $72 #
plane-surface $-1 -161.5173275320513 -3.6424345632818707 111.07131546664077 0 -1 0 0.6560590369687036 0 -0.75470957328743171 forward_v I I I I #
coedge $-1 $199 $200 $201 $202 reversed $73 $-1 #
coedge $-1 $121 $75 $203 $204 reversed $47 $-1 #
coedge $-1 $75 $120 $199 $205 reversed $47 $-1 #
coedge $-1 $201 $206 $75 $123 forward $196 $-1 #
edge $-1 $207 10.901795575468071 $208 17.062296144525845 $122 $209 forward 7 unknown #
loop $-1 $-1 $129 $76 #
plane-surface $-1 -69.856868190557563 -7.0965608375586946 5.6280211000566283 -0.6560590369687036 0 0.75470957328743171 0.75470957328743171 0 0.6560590369687036 forward_v I I I I #
loop $-1 $-1 $210 $49 #
coedge $-1 $127 $127 $128 $211 reversed $77 $-1 #
coedge $-1 $128 $128 $127 $211 forward $79 $-1 #
coedge $-1 $129 $129 $80 $130 forward $124 $-1 #
edge $-1 $212 0 $212 6.2831853071796004 $129 $213 forward 7 unknown #
loop $-1 $-1 $136 $81 #
plane-surface $-1 -69.856868190557563 -7.0965608375586946 5.6280211000566283 -0.6560590369687036 0 0.75470957328743171 0.75470957328743171 0 0.6560590369687036 forward_v I I I I #
loop $-1 $-1 $214 $52 #
coedge $-1 $134 $134 $135 $215 reversed $82 $-1 #
coedge $-1 $135 $135 $134 $215 forward $84 $-1 #
coedge $-1 $136 $136 $85 $137 forward $131 $-1 #
edge $-1 $216 0 $216 6.2831853071796004 $136 $217 forward 7 unknown #
face $-1 $218 $219 $29 $-1 $220 reversed single #
loop $-1 $-1 $221 $86 #
plane-surface $-1 56.074033165467156 -10.550687111835519 202.7317748081345 0 1 0 0.6560590369687036 0 0.75470957328743171 forward_v I I I I #
coedge $-1 $222 $223 $224 $225 reversed $87 $-1 #
coedge $-1 $143 $89 $226 $227 reversed $56 $-1 #
coedge $-1 $89 $142 $222 $228 reversed $56 $-1 #
coedge $-1 $224 $229 $89 $145 forward $230 $-1 #
edge $-1 $231 -41.819851607823999 $232 -35.659351038766225 $144 $233 forward 7 unknown #
loop $-1 $-1 $151 $90 #
plane-surface $-1 -35.586426176026578 -7.0965608375586946 97.288480441550362 0.6560590369687036 0 0.75470957328743171 0.75470957328743171 0 -0.6560590369687036 forward_v I I I I #
loop $-1 $-1 $234 $58 #
coedge $-1 $149 $149 $150 $235 reversed $91 $-1 #
coedge $-1 $150 $150 $149 $235 forward $93 $-1 #
coedge $-1 $151 $151 $94 $152 forward $146 $-1 #
edge $-1 $236 0 $236 6.2831853071796004 $151 $237 forward 7 unknown #
loop $-1 $-1 $158 $95 #
plane-surface $-1 -35.586426176026578 -7.0965608375586946 97.288480441550362 0.6560590369687036 0 0.75470957328743171 0.75470957328743171 0 -0.6560590369687036 forward_v I I I I #
loop $-1 $-1 $238 $61 #
coedge $-1 $156 $156 $157 $239 reversed $96 $-1 #
coedge $-1 $157 $157 $156 $239 forward $98 $-1 #
coedge $-1 $158 $158 $99 $159 forward $153 $-1 #
edge $-1 $240 0 $240 6.2831853071796004 $158 $241 forward 7 unknown #
face $-1 $242 $243 $24 $-1 $244 reversed single #
loop $-1 $-1 $245 $100 #
plane-surface $-1 -69.856868190557577 0 0 1 0 0 0 0 -1 forward_v I I I I #
coedge $-1 $246 $171 $247 $248 forward $101 $-1 #
coedge $-1 $249 $103 $246 $250 forward $65 $-1 #
coedge $-1 $103 $249 $251 $252 forward $65 $-1 #
coedge $-1 $174 $173 $103 $167 reversed $175 $-1 #
edge $-1 $253 -28.725591051959984 $254 28.725591051959984 $166 $255 forward 7 unknown #
coedge $-1 $105 $104 $256 $257 forward $41 $-1 #
coedge $-1 $258 $259 $104 $170 reversed $243 $-1 #
edge $-1 $177 -69.856868190557577 $260 69.856868190557577 $169 $261 forward 7 unknown #
coedge $-1 $163 $262 $105 $172 reversed $101 $-1 #
edge $-1 $263 -69.856868190557577 $176 69.856868190557577 $171 $264 forward 7 unknown #
coedge $-1 $166 $106 $262 $265 forward $175 $-1 #
coedge $-1 $106 $166 $258 $266 reversed $175 $-1 #
loop $-1 $-1 $173 $242 #
vertex $-1 $107 $267 #
vertex $-1 $107 $268 #
straight-curve $-1 69.856868190557577 0 10.983262657383364 0 1 0 I I #
face $-1 $269 $270 $25 $-1 $271 reversed single #
loop $-1 $-1 $185 $108 #
plane-surface $-1 69.856868190557577 0 0 -1 0 0 0 0 1 forward_v I I I I #
coedge $-1 $272 $273 $183 $274 forward $109 $-1 #
coedge $-1 $275 $111 $182 $274 reversed $69 $-1 #
coedge $-1 $111 $275 $112 $188 reversed $69 $-1 #
coedge $-1 $114 $276 $111 $186 forward $180 $-1 #
edge $-1 $277 -6.3355294954253232 $192 -2.9599368284907577 $185 $278 forward 7 unknown #
coedge $-1 $113 $112 $279 $280 reversed $44 $-1 #
edge $-1 $192 -69.856868190557577 $281 69.856868190557577 $184 $282 forward 7 unknown #
coedge $-1 $283 $284 $113 $190 forward $270 $-1 #
edge $-1 $193 -69.856868190557577 $285 69.856868190557577 $189 $286 forward 7 unknown #
coedge $-1 $276 $114 $284 $287 forward $180 $-1 #
vertex $-1 $115 $288 #
vertex $-1 $287 $289 #
straight-curve $-1 69.856868190557577 -11.416712216140001 -7.6076699904487981 0 -1 0 I I #
face $-1 $-1 $290 $26 $-1 $291 reversed single #
loop $-1 $-1 $122 $116 #
plane-surface $-1 0 0 10.983262657383364 0 0 1 1 0 0 forward_v I I I I #
coedge $-1 $292 $293 $294 $295 reversed $117 $-1 #
coedge $-1 $296 $119 $121 $205 forward $73 $-1 #
coedge $-1 $119 $296 $292 $297 forward $73 $-1 #
coedge $-1 $294 $122 $119 $202 forward $196 $-1 #
edge $-1 $208 -7.0024066930561712 $298 -0.094154144502523351 $201 $299 forward 7 unknown #
coedge $-1 $300 $301 $120 $204 forward $290 $-1 #
edge $-1 $302 -49.90763663326377 $207 -44.552395075937021 $203 $303 forward 7 unknown #
edge $-1 $208 -8.1627433745451192 $302 1.888283279974768e-014 $121 $304 forward 7 unknown #
coedge $-1 $122 $294 $300 $305 forward $196 $-1 #
vertex $-1 $204 $306 #
vertex $-1 $123 $307 #
straight-curve $-1 -80.758663766025649 -10.550687111835519 10.983262657383364 1 0 0 I I #
coedge $-1 $210 $210 $-1 $308 reversed $126 $-1 #
edge $-1 $309 0 $309 6.2831853071796004 $127 $310 forward 7 unknown #
vertex $-1 $130 $311 #
ellipse-curve $-1 -66.77661790602869 -8.5769006693916197 8.305641878719987 -0.6560590369687036 0 0.75470957328743171 0.37735478664371586 0 0.3280295184843518 1 I I #
coedge $-1 $214 $214 $-1 $312 reversed $133 $-1 #
edge $-1 $313 0 $313 6.2831853071796004 $134 $314 forward 7 unknown #
vertex $-1 $137 $315 #
ellipse-curve $-1 -66.77661790602869 -5.6162210057257695 8.305641878719987 -0.6560590369687036 0 0.75470957328743171 0.37735478664371586 0 0.3280295184843518 1 I I #
face $-1 $-1 $230 $29 $-1 $316 forward single #
loop $-1 $-1 $317 $138 #
plane-surface $-1 69.856868190557577 0 0 -1 0 0 0 0 1 forward_v I I I I #
coedge $-1 $318 $319 $320 $321 reversed $139 $-1 #
coedge $-1 $322 $141 $143 $228 forward $87 $-1 #
coedge $-1 $141 $322 $318 $323 forward $87 $-1 #
coedge $-1 $320 $144 $141 $225 forward $230 $-1 #
edge $-1 $232 0.094154144502523351 $324 7.0024066930561712 $224 $325 forward 7 unknown #
coedge $-1 $326 $327 $142 $227 forward $219 $-1 #
edge $-1 $328 -95.737866304010637 $231 -90.382624746683888 $226 $329 forward 7 unknown #
edge $-1 $232 131.55099300657002 $328 139.71373638111521 $143 $330 forward 7 unknown #
coedge $-1 $144 $320 $326 $331 forward $230 $-1 #
loop $-1 $-1 $320 $218 #
vertex $-1 $227 $332 #
vertex $-1 $145 $333 #
straight-curve $-1 28.037016582733578 -3.6424345632818707 10.983262657383364 -1 0 0 I I #
coedge $-1 $234 $234 $-1 $334 reversed $148 $-1 #
edge $-1 $335 0 $335 6.2831853071796004 $149 $336 forward 7 unknown #
vertex $-1 $152 $337 #
ellipse-curve $-1 66.77661790602869 -8.5769006693916197 8.3056418787199959 0.6560590369687036 0 0.75470957328743171 0.37735478664371586 0 -0.3280295184843518 1 I I #
coedge $-1 $238 $238 $-1 $338 reversed $155 $-1 #
edge $-1 $339 0 $339 6.2831853071796004 $156 $340 forward 7 unknown #
vertex $-1 $159 $341 #
ellipse-curve $-1 66.77661790602869 -5.6162210057257695 8.3056418787199959 0.6560590369687036 0 0.75470957328743171 0.37735478664371586 0 -0.3280295184843518 1 I I #
face $-1 $-1 $175 $24 $-1 $342 reversed single #
loop $-1 $-1 $258 $160 #
plane-surface $-1 0 28.725591051959984 0 0 -1 0 0 0 -1 forward_v I I I I #
coedge $-1 $343 $256 $259 $344 forward $161 $-1 #
coedge $-1 $262 $163 $164 $250 reversed $101 $-1 #
coedge $-1 $256 $343 $163 $248 reversed $161 $-1 #
edge $-1 $263 -10.983262657383364 $345 10.983262657383364 $247 $346 forward 7 unknown #
coedge $-1 $165 $164 $343 $347 forward $65 $-1 #
edge $-1 $254 -69.856868190557577 $345 69.856868190557577 $246 $348 forward 7 unknown #
coedge $-1 $259 $258 $165 $252 reversed $243 $-1 #
edge $-1 $349 -69.856868190557577 $253 69.856868190557577 $251 $350 forward 7 unknown #
vertex $-1 $167 $351 #
vertex $-1 $265 $352 #
straight-curve $-1 69.856868190557577 0 -10.983262657383364 0 -1 0 I I #
coedge $-1 $245 $247 $168 $257 reversed $161 $-1 #
edge $-1 $260 -28.725591051959984 $263 28.725591051959984 $256 $353 forward 7 unknown #
coedge $-1 $251 $169 $174 $266 forward $243 $-1 #
coedge $-1 $169 $251 $245 $344 reversed $243 $-1 #
vertex $-1 $170 $354 #
straight-curve $-1 0 28.725591051959984 10.983262657383364 -1 0 0 I I #
coedge $-1 $171 $246 $173 $265 reversed $101 $-1 #
vertex $-1 $257 $355 #
straight-curve $-1 0 -28.725591051959984 10.983262657383364 1 0 0 I I #
edge $-1 $176 -10.983262657383364 $254 10.983262657383364 $173 $356 forward 7 unknown #
edge $-1 $177 -10.983262657383364 $253 10.983262657383364 $174 $357 forward 7 unknown #
point $-1 69.856868190557577 -28.725591051959984 10.983262657383364 #
point $-1 69.856868190557577 28.725591051959984 10.983262657383364 #
face $-1 $-1 $358 $25 $-1 $359 reversed single #
loop $-1 $-1 $189 $179 #
plane-surface $-1 0 -28.725591051959984 0 0 1 0 0 0 1 forward_v I I I I #
coedge $-1 $360 $182 $276 $361 forward $109 $-1 #
coedge $-1 $182 $360 $362 $363 forward $109 $-1 #
edge $-1 $364 -69.856868190557577 $277 69.856868190557577 $182 $365 forward 7 unknown #
coedge $-1 $184 $183 $366 $367 reversed $69 $-1 #
coedge $-1 $185 $191 $272 $361 reversed $180 $-1 #
vertex $-1 $361 $368 #
straight-curve $-1 69.856868190557577 -16.941257812600018 -4.6477331619580404 0 0 1 I I #
coedge $-1 $366 $369 $187 $280 forward $358 $-1 #
edge $-1 $285 -17.308878835819982 $281 -5.5245455964600172 $279 $370 forward 7 unknown #
vertex $-1 $280 $371 #
straight-curve $-1 0 -16.941257812600018 -7.6076699904487981 -1 0 0 I I #
coedge $-1 $372 $189 $369 $373 forward $270 $-1 #
coedge $-1 $189 $372 $191 $287 reversed $270 $-1 #
vertex $-1 $373 $374 #
straight-curve $-1 0 -28.725591051959984 -7.6076699904487981 -1 0 0 I I #
edge $-1 $193 7.6076699904487981 $375 10.983262657383364 $191 $376 forward 7 unknown #
point $-1 69.856868190557577 -16.941257812600018 -7.6076699904487981 #
point $-1 69.856868190557577 -28.725591051959984 -7.6076699904487981 #
loop $-1 $-1 $203 $195 #
plane-surface $-1 -69.856868190557577 0 0 1 0 0 0 0 -1 forward_v I I I I #
coedge $-1 $293 $198 $200 $297 reversed $117 $-1 #
coedge $-1 $198 $292 $377 $378 reversed $117 $-1 #
coedge $-1 $206 $201 $198 $295 forward $196 $-1 #
edge $-1 $298 -17.062296144525845 $379 -10.901795575468071 $294 $380 forward 7 unknown #
coedge $-1 $200 $199 $301 $381 reversed $73 $-1 #
edge $-1 $382 -1.888283279974768e-014 $298 8.1627433745451192 $292 $383 forward 7 unknown #
vertex $-1 $202 $384 #
straight-curve $-1 -63.69636762149981 -3.5482804187793473 10.983262657383365 0 1 0 I I #
coedge $-1 $377 $203 $206 $305 reversed $290 $-1 #
coedge $-1 $203 $377 $296 $381 forward $290 $-1 #
vertex $-1 $204 $385 #
straight-curve $-1 -69.856868190557577 -10.550687111835519 55.535657733320384 0 0 1 I I #
straight-curve $-1 -69.856868190557563 -10.550687111835519 5.6280211000566283 -0.75470957328743171 0 -0.6560590369687036 I I #
edge $-1 $379 3.6424345632818707 $207 10.550687111835519 $300 $386 forward 7 unknown #
point $-1 -69.856868190557577 -10.550687111835519 10.983262657383364 #
point $-1 -63.696367621499803 -10.550687111835519 10.983262657383364 #
edge $-1 $387 1 $387 0 $210 $-1 forward 7 unknown #
vertex $-1 $211 $388 #
ellipse-curve $-1 -65.50053933117708 -8.5769006693916197 6.8376814324203332 -0.6560590369687036 0 0.75470957328743171 0.37735478664371586 0 0.3280295184843518 1 I I #
point $-1 -66.399263119384997 -8.5769006693916197 8.6336713972043508 #
edge $-1 $389 1 $389 0 $214 $-1 forward 7 unknown #
vertex $-1 $215 $390 #
ellipse-curve $-1 -65.50053933117708 -5.6162210057257695 6.8376814324203332 -0.6560590369687036 0 0.75470957328743171 0.37735478664371586 0 0.3280295184843518 1 I I #
point $-1 -66.399263119384997 -5.6162210057257695 8.6336713972043508 #
plane-surface $-1 0 0 10.983262657383364 0 0 1 1 0 0 forward_v I I I I #
coedge $-1 $327 $326 $319 $391 forward $219 $-1 #
coedge $-1 $319 $221 $223 $323 reversed $139 $-1 #
coedge $-1 $221 $318 $317 $391 reversed $139 $-1 #
coedge $-1 $229 $224 $221 $321 forward $230 $-1 #
edge $-1 $324 35.659351038766225 $392 41.819851607823999 $320 $393 forward 7 unknown #
coedge $-1 $223 $222 $327 $394 reversed $87 $-1 #
edge $-1 $395 -139.71373638111521 $324 -131.55099300657002 $318 $396 forward 7 unknown #
vertex $-1 $225 $397 #
straight-curve $-1 63.696367621499789 -3.5482804187793473 10.983262657383371 0 -1 0 I I #
coedge $-1 $317 $226 $229 $331 reversed $219 $-1 #
coedge $-1 $226 $317 $322 $394 forward $219 $-1 #
vertex $-1 $227 $398 #
straight-curve $-1 69.856868190557577 -3.6424345632818707 101.36588740406725 0 0 1 I I #
straight-curve $-1 -35.586426176026578 -3.6424345632818707 97.288480441550362 0.75470957328743171 0 -0.6560590369687036 I I #
edge $-1 $392 -10.550687111835519 $231 -3.6424345632818707 $326 $399 forward 7 unknown #
point $-1 69.856868190557577 -3.6424345632818707 10.983262657383364 #
point $-1 63.696367621499803 -3.6424345632818707 10.983262657383364 #
edge $-1 $400 1 $400 0 $234 $-1 forward 7 unknown #
vertex $-1 $235 $401 #
ellipse-curve $-1 65.500539331177066 -8.5769006693916197 6.8376814324203297 0.6560590369687036 0 0.75470957328743171 0.37735478664371586 0 -0.3280295184843518 1 I I #
point $-1 67.153972692672411 -8.5769006693916197 7.9776123602356437 #
edge $-1 $402 1 $402 0 $238 $-1 forward 7 unknown #
vertex $-1 $239 $403 #
ellipse-curve $-1 65.500539331177066 -5.6162210057257695 6.8376814324203297 0.6560590369687036 0 0.75470957328743171 0.37735478664371586 0 -0.3280295184843518 1 I I #
point $-1 67.153972692672411 -5.6162210057257695 7.9776123602356437 #
plane-surface $-1 69.856868190557577 0 0 -1 0 0 0 0 1 forward_v I I I I #
coedge $-1 $247 $245 $249 $347 reversed $161 $-1 #
edge $-1 $260 -10.983262657383364 $349 10.983262657383364 $259 $404 forward 7 unknown #
vertex $-1 $347 $405 #
straight-curve $-1 -69.856868190557577 -28.725591051959984 0 0 0 -1 I I #
edge $-1 $345 -28.725591051959984 $349 28.725591051959984 $343 $406 forward 7 unknown #
straight-curve $-1 0 -28.725591051959984 -10.983262657383364 -1 0 0 I I #
vertex $-1 $252 $407 #
straight-curve $-1 0 28.725591051959984 -10.983262657383364 1 0 0 I I #
point $-1 69.856868190557577 28.725591051959984 -10.983262657383364 #
point $-1 69.856868190557577 -28.725591051959984 -10.983262657383364 #
straight-curve $-1 -69.856868190557577 0 10.983262657383364 0 -1 0 I I #
point $-1 -69.856868190557577 28.725591051959984 10.983262657383364 #
point $-1 -69.856868190557577 -28.725591051959984 10.983262657383364 #
straight-curve $-1 69.856868190557577 -28.725591051959984 0 0 0 -1 I I #
straight-curve $-1 69.856868190557577 28.725591051959984 0 0 0 -1 I I #
loop $-1 $-1 $366 $269 #
plane-surface $-1 -69.856868190557577 0 0 1 0 0 0 0 -1 forward_v I I I I #
coedge $-1 $273 $272 $372 $408 forward $109 $-1 #
edge $-1 $277 16.941257812600018 $375 28.725591051959984 $276 $409 forward 7 unknown #
coedge $-1 $369 $366 $273 $363 reversed $358 $-1 #
edge $-1 $410 -28.725591051959984 $364 -16.941257812600018 $362 $411 forward 7 unknown #
vertex $-1 $367 $412 #
straight-curve $-1 0 -16.941257812600018 -10.983262657383364 1 0 0 I I #
coedge $-1 $362 $279 $275 $367 forward $358 $-1 #
edge $-1 $281 2.9599368284907577 $364 6.3355294954253232 $366 $413 forward 7 unknown #
point $-1 69.856868190557577 -16.941257812600018 -10.983262657383364 #
coedge $-1 $279 $362 $283 $373 reversed $358 $-1 #
straight-curve $-1 -69.856868190557577 -11.416712216140001 -7.6076699904487981 0 1 0 I I #
point $-1 -69.856868190557577 -16.941257812600018 -7.6076699904487981 #
coedge $-1 $284 $283 $360 $408 reversed $270 $-1 #
edge $-1 $285 7.6076699904487981 $410 10.983262657383364 $369 $414 forward 7 unknown #
point $-1 -69.856868190557577 -28.725591051959984 -7.6076699904487981 #
vertex $-1 $287 $415 #
straight-curve $-1 69.856868190557577 -28.725591051959984 0 0 0 -1 I I #
coedge $-1 $301 $300 $293 $378 forward $290 $-1 #
edge $-1 $379 44.552395075937021 $382 49.90763663326377 $377 $416 forward 7 unknown #
vertex $-1 $305 $417 #
straight-curve $-1 -80.758663766025649 -3.6424345632818707 10.983262657383364 -1 0 0 I I #
edge $-1 $382 0.094154144502523351 $302 7.0024066930561712 $301 $418 forward 7 unknown #
vertex $-1 $381 $419 #
straight-curve $-1 -69.856868190557563 -3.6424345632818707 5.6280211000566283 0.75470957328743171 0 0.6560590369687036 I I #
point $-1 -63.696367621499803 -3.6424345632818707 10.983262657383364 #
point $-1 -69.856868190557577 -10.550687111835519 5.6280211000566158 #
straight-curve $-1 -69.856868190557577 0 10.983262657383364 0 -1 0 I I #
vertex $-1 $308 $420 #
point $-1 -65.123184544533359 -8.5769006693916197 7.1657109509046855 #
vertex $-1 $312 $421 #
point $-1 -65.123184544533359 -5.6162210057257695 7.1657109509046855 #
edge $-1 $392 90.382624746683888 $395 95.737866304010637 $317 $422 forward 7 unknown #
vertex $-1 $331 $423 #
straight-curve $-1 28.037016582733578 -10.550687111835519 10.983262657383364 1 0 0 I I #
edge $-1 $395 -7.0024066930561712 $328 -0.094154144502523351 $327 $424 forward 7 unknown #
vertex $-1 $394 $425 #
straight-curve $-1 -35.586426176026578 -10.550687111835519 97.288480441550362 -0.75470957328743171 0 0.6560590369687036 I I #
point $-1 63.696367621499803 -10.550687111835519 10.983262657383364 #
point $-1 69.856868190557591 -3.6424345632818707 5.628021100056614 #
straight-curve $-1 69.856868190557577 0 10.983262657383364 0 1 0 I I #
vertex $-1 $334 $426 #
point $-1 65.877894117820773 -8.5769006693916197 6.5096519139359774 #
vertex $-1 $338 $427 #
point $-1 65.877894117820773 -5.6162210057257695 6.5096519139359774 #
straight-curve $-1 -69.856868190557577 28.725591051959984 0 0 0 -1 I I #
point $-1 -69.856868190557577 -28.725591051959984 -10.983262657383364 #
straight-curve $-1 -69.856868190557577 0 -10.983262657383364 0 1 0 I I #
point $-1 -69.856868190557577 28.725591051959984 -10.983262657383364 #
edge $-1 $375 -69.856868190557577 $410 69.856868190557577 $372 $428 forward 7 unknown #
straight-curve $-1 69.856868190557577 0 -10.983262657383364 0 -1 0 I I #
vertex $-1 $363 $429 #
straight-curve $-1 -69.856868190557577 0 -10.983262657383364 0 1 0 I I #
point $-1 -69.856868190557577 -16.941257812600018 -10.983262657383364 #
straight-curve $-1 -69.856868190557577 -16.941257812600018 -4.6477331619580404 0 0 -1 I I #
straight-curve $-1 -69.856868190557577 -28.725591051959984 0 0 0 -1 I I #
point $-1 69.856868190557577 -28.725591051959984 -10.983262657383364 #
straight-curve $-1 -69.856868190557577 -3.6424345632818707 55.535657733320384 0 0 -1 I I #
point $-1 -69.856868190557577 -3.6424345632818707 10.983262657383364 #
straight-curve $-1 -69.856868190557577 -3.5482804187793473 5.6280211000566256 0 -1 0 I I #
point $-1 -69.856868190557577 -3.6424345632818707 5.6280211000566158 #
point $-1 -65.172509812692724 -8.5769006693916197 6.4603266457766173 #
point $-1 -65.172509812692724 -5.6162210057257695 6.4603266457766173 #
straight-curve $-1 69.856868190557577 -10.550687111835519 101.36588740406725 0 0 -1 I I #
point $-1 69.856868190557577 -10.550687111835519 10.983262657383364 #
straight-curve $-1 69.856868190557563 -3.5482804187793473 5.628021100056614 0 1 0 I I #
point $-1 69.856868190557591 -10.550687111835519 5.628021100056614 #
point $-1 65.172509812692709 -8.5769006693916197 6.4603266457766138 #
point $-1 65.172509812692709 -5.6162210057257695 6.4603266457766138 #
straight-curve $-1 0 -28.725591051959984 -10.983262657383364 -1 0 0 I I #
point $-1 -69.856868190557577 -28.725591051959984 -10.983262657383364 #
End-of-ACIS-data 