500 0 7 0           
7 Unknown 11 ACIS 5.0 NT 24 Fri Mar 26 18:50:03 1999 
-1 9.9999999999999995e-007 1e-010 
body $-1 $7 $-1 $8 #
body $-1 $9 $-1 $10 #
body $-1 $11 $-1 $12 #
body $-1 $13 $-1 $14 #
body $-1 $15 $-1 $16 #
body $-1 $17 $-1 $18 #
body $-1 $19 $-1 $20 #
lump $-1 $-1 $21 $0 #
transform $-1 1 0 0 0 1 0 0 0 1 54.438917203283793 30.509850627799423 7.0031033827266773 1 rotate no_reflect no_shear #
lump $-1 $-1 $22 $1 #
transform $-1 1 0 0 0 1 0 0 0 1 54.438917203283793 30.509850627799423 7.0031033827266773 1 rotate no_reflect no_shear #
lump $-1 $-1 $23 $2 #
transform $-1 1 0 0 0 1 0 0 0 1 54.438917203283793 30.509850627799423 7.0031033827266773 1 rotate no_reflect no_shear #
lump $-1 $-1 $24 $3 #
transform $-1 1 0 0 0 1 0 0 0 1 54.438917203283793 30.509850627799423 7.0031033827266773 1 rotate no_reflect no_shear #
lump $-1 $-1 $25 $4 #
transform $-1 1 0 0 0 1 0 0 0 1 54.438917203283793 30.509850627799423 7.0031033827266773 1 rotate no_reflect no_shear #
lump $-1 $-1 $26 $5 #
transform $-1 1 0 0 0 1 0 0 0 1 54.438917203283793 30.509850627799423 7.0031033827266773 1 rotate no_reflect no_shear #
lump $-1 $-1 $27 $6 #
transform $-1 1 0 0 0 1 0 0 0 1 54.438917203283793 30.509850627799423 7.0031033827266773 1 rotate no_reflect no_shear #
shell $-1 $-1 $-1 $28 $-1 $7 #
shell $-1 $-1 $-1 $29 $-1 $9 #
shell $-1 $-1 $-1 $30 $-1 $11 #
shell $-1 $-1 $-1 $31 $-1 $13 #
shell $-1 $-1 $-1 $32 $-1 $15 #
shell $-1 $-1 $-1 $33 $-1 $17 #
shell $-1 $-1 $-1 $34 $-1 $19 #
face $-1 $35 $36 $21 $-1 $37 forward single #
face $-1 $38 $39 $22 $-1 $40 forward single #
face $-1 $41 $42 $23 $-1 $43 reversed single #
face $-1 $44 $45 $24 $-1 $46 forward single #
face $-1 $47 $48 $25 $-1 $49 reversed single #
face $-1 $50 $51 $26 $-1 $52 forward single #
face $-1 $53 $54 $27 $-1 $55 forward single #
face $-1 $56 $57 $21 $-1 $58 reversed single #
loop $-1 $-1 $59 $28 #
plane-surface $-1 0 0 7.0031033827266773 0 0 1 1 0 0 forward_v I I I I #
face $-1 $60 $61 $22 $-1 $62 reversed single #
loop $-1 $-1 $63 $29 #
plane-surface $-1 -51.087237523886863 0 -3.7866812492385078 0 0 1 1 0 0 forward_v I I I I #
face $-1 $64 $65 $23 $-1 $66 reversed single #
loop $-1 $-1 $67 $30 #
plane-surface $-1 20.886893527316118 45.140661836573727 127.5258893013454 1 0 0 0 -0.5877852598018023 -0.80901698891910034 forward_v I I I I #
face $-1 $68 $69 $24 $-1 $70 forward single #
loop $-1 $71 $72 $31 #
cone-surface $-1 29.188355247825641 27.277315108111303 4.086819656758097 0 -0.5877852598018023 -0.80901698891910034 1 0 0 1 I I 0 1 1 forward I I I I #
face $-1 $73 $74 $25 $-1 $75 reversed single #
loop $-1 $-1 $76 $32 #
plane-surface $-1 45.283922826719277 -117.46355633733789 66.807942286581778 -1 0 0 0 -0.79863551827123203 0.60181501223851219 forward_v I I I I #
face $-1 $77 $78 $26 $-1 $79 forward single #
loop $-1 $80 $81 $33 #
cone-surface $-1 25.736961152151949 -26.592209976250771 2.815095545921654 0 0.79863551827123203 -0.60181501223851219 1.5 0 0 1 I I 0 1 1.5 forward I I I I #
face $-1 $82 $83 $27 $-1 $84 forward single #
loop $-1 $85 $86 $34 #
cone-surface $-1 37.465138156892351 -26.592209976250771 2.815095545921654 0 0.79863551827123203 -0.60181501223851219 1.5 0 0 1 I I 0 1 1.5 forward I I I I #
face $-1 $87 $88 $21 $-1 $89 reversed single #
loop $-1 $-1 $90 $35 #
plane-surface $-1 0 0 -7.0031033827266773 0 0 1 1 0 0 forward_v I I I I #
coedge $-1 $91 $92 $93 $94 forward $36 $-1 #
face $-1 $95 $96 $22 $-1 $97 reversed single #
loop $-1 $-1 $98 $38 #
plane-surface $-1 -47.735557844489932 0 -5.3948923159825926 -1 0 0 0 0 1 forward_v I I I I #
coedge $-1 $99 $100 $101 $102 forward $39 $-1 #
face $-1 $103 $104 $23 $-1 $105 reversed single #
loop $-1 $-1 $106 $41 #
plane-surface $-1 29.188355247825641 -18.85612434674821 39.441871549711664 0 0.5877852598018023 0.80901698891910034 1 0 0 forward_v I I I I #
coedge $-1 $107 $108 $109 $110 reversed $42 $-1 #
face $-1 $-1 $111 $24 $-1 $112 forward single #
loop $-1 $113 $114 $44 #
cone-surface $-1 29.188355247825641 26.10980786785219 2.4798838306127324 0 -0.5877852598018023 -0.80901698891910034 0.5 0 0 1 I I -0.70710678118654746 0.70710678118654746 0.5 forward I I I I #
loop $-1 $-1 $115 $31 #
coedge $-1 $72 $72 $116 $117 reversed $45 $-1 #
face $-1 $118 $119 $25 $-1 $120 reversed single #
loop $-1 $-1 $121 $47 #
plane-surface $-1 31.601049654522143 -30.509850627799409 1.2836270406906038 0 -0.79863551827123203 0.60181501223851219 1 0 0 forward_v I I I I #
coedge $-1 $122 $123 $124 $125 reversed $48 $-1 #
face $-1 $-1 $126 $26 $-1 $127 forward single #
loop $-1 $128 $129 $50 #
cone-surface $-1 25.736961152151949 -24.230559905733173 1.0354646209557812 0 0.79863551827123203 -0.60181501223851219 0.75 0 0 1 I I -0.70710678118654757 0.70710678118654757 0.75 forward I I I I #
loop $-1 $-1 $130 $33 #
coedge $-1 $81 $81 $131 $132 reversed $51 $-1 #
face $-1 $-1 $133 $27 $-1 $134 forward single #
loop $-1 $135 $136 $53 #
cone-surface $-1 37.465138156892351 -24.230559905733173 1.0354646209557812 0 0.79863551827123203 -0.60181501223851219 0.75 0 0 1 I I -0.70710678118654757 0.70710678118654757 0.75 forward I I I I #
loop $-1 $-1 $137 $34 #
coedge $-1 $86 $86 $138 $139 reversed $54 $-1 #
face $-1 $140 $141 $21 $-1 $142 reversed single #
loop $-1 $-1 $143 $56 #
plane-surface $-1 0 -30.509850627799423 0 0 1 0 0 0 1 forward_v I I I I #
coedge $-1 $144 $145 $146 $147 forward $57 $-1 #
coedge $-1 $148 $59 $149 $150 forward $36 $-1 #
coedge $-1 $59 $148 $151 $152 forward $36 $-1 #
coedge $-1 $153 $154 $59 $94 reversed $155 $-1 #
edge $-1 $156 -30.509850627799423 $157 30.509850627799423 $93 $158 forward 7 unknown #
face $-1 $159 $160 $22 $-1 $161 reversed single #
loop $-1 $-1 $162 $60 #
plane-surface $-1 0 0 -7.0031033827266773 0 0 1 1 0 0 forward_v I I I I #
coedge $-1 $163 $101 $164 $165 reversed $61 $-1 #
coedge $-1 $166 $63 $167 $168 reversed $39 $-1 #
coedge $-1 $63 $166 $169 $170 reversed $39 $-1 #
coedge $-1 $98 $171 $63 $102 reversed $61 $-1 #
edge $-1 $172 -30.509850627799423 $173 30.509850627799423 $101 $174 forward 7 unknown #
face $-1 $175 $176 $23 $-1 $177 reversed single #
loop $-1 $-1 $178 $64 #
plane-surface $-1 37.489816968335163 45.140661836573727 127.5258893013454 -1 0 0 0 0.5877852598018023 0.80901698891910034 forward_v I I I I #
coedge $-1 $179 $180 $181 $182 reversed $65 $-1 #
coedge $-1 $108 $67 $183 $184 reversed $42 $-1 #
coedge $-1 $67 $107 $179 $185 reversed $42 $-1 #
coedge $-1 $181 $186 $67 $110 forward $187 $-1 #
edge $-1 $188 -7.9395197095125596 $189 -3.2216778908527033 $109 $190 forward 7 unknown #
loop $-1 $-1 $116 $68 #
plane-surface $-1 29.188355247825641 -18.85612434674821 39.441871549711664 0 0.5877852598018023 0.80901698891910034 1 0 0 forward_v I I I I #
loop $-1 $-1 $191 $44 #
coedge $-1 $114 $114 $115 $192 reversed $69 $-1 #
coedge $-1 $115 $115 $114 $192 forward $71 $-1 #
coedge $-1 $116 $116 $72 $117 forward $111 $-1 #
edge $-1 $193 2.696862379639668e-016 $193 6.2831853071796004 $116 $194 forward 7 unknown #
face $-1 $195 $196 $25 $-1 $197 forward single #
loop $-1 $-1 $198 $73 #
plane-surface $-1 17.918176482325009 -117.46355633733789 66.807942286581778 1 0 0 0 0.79863551827123203 -0.60181501223851219 forward_v I I I I #
coedge $-1 $199 $200 $201 $202 reversed $74 $-1 #
coedge $-1 $123 $76 $203 $204 reversed $48 $-1 #
coedge $-1 $76 $122 $199 $205 reversed $48 $-1 #
coedge $-1 $201 $206 $76 $125 forward $196 $-1 #
edge $-1 $207 28.221927540869522 $208 32.531861980338491 $124 $209 forward 7 unknown #
loop $-1 $-1 $131 $77 #
plane-surface $-1 31.601049654522143 -30.509850627799409 1.2836270406906038 0 -0.79863551827123203 0.60181501223851219 1 0 0 forward_v I I I I #
loop $-1 $-1 $210 $50 #
coedge $-1 $129 $129 $130 $211 reversed $78 $-1 #
coedge $-1 $130 $130 $129 $211 forward $80 $-1 #
coedge $-1 $131 $131 $81 $132 forward $126 $-1 #
edge $-1 $212 -2.0167856967305835e-017 $212 6.2831853071796004 $131 $213 forward 7 unknown #
loop $-1 $-1 $138 $82 #
plane-surface $-1 31.601049654522143 -30.509850627799409 1.2836270406906038 0 -0.79863551827123203 0.60181501223851219 1 0 0 forward_v I I I I #
loop $-1 $-1 $214 $53 #
coedge $-1 $136 $136 $137 $215 reversed $83 $-1 #
coedge $-1 $137 $137 $136 $215 forward $85 $-1 #
coedge $-1 $138 $138 $86 $139 forward $133 $-1 #
edge $-1 $216 -2.0167856967305835e-017 $216 6.2831853071796004 $138 $217 forward 7 unknown #
face $-1 $218 $219 $21 $-1 $220 reversed single #
loop $-1 $-1 $221 $87 #
plane-surface $-1 -54.438917203283793 0 0 1 0 0 0 0 -1 forward_v I I I I #
coedge $-1 $222 $151 $223 $224 forward $88 $-1 #
coedge $-1 $225 $90 $222 $226 forward $57 $-1 #
coedge $-1 $90 $225 $227 $228 forward $57 $-1 #
coedge $-1 $154 $153 $90 $147 reversed $155 $-1 #
edge $-1 $229 -30.509850627799423 $230 30.509850627799423 $146 $231 forward 7 unknown #
coedge $-1 $92 $91 $232 $233 forward $36 $-1 #
coedge $-1 $234 $235 $91 $150 reversed $219 $-1 #
edge $-1 $157 -54.438917203283793 $236 54.438917203283793 $149 $237 forward 7 unknown #
coedge $-1 $143 $238 $92 $152 reversed $88 $-1 #
edge $-1 $239 -54.438917203283793 $156 54.438917203283793 $151 $240 forward 7 unknown #
coedge $-1 $146 $93 $238 $241 forward $155 $-1 #
coedge $-1 $93 $146 $234 $242 reversed $155 $-1 #
loop $-1 $-1 $153 $218 #
vertex $-1 $94 $243 #
vertex $-1 $94 $244 #
straight-curve $-1 54.438917203283793 0 7.0031033827266773 0 1 0 I I #
face $-1 $245 $246 $22 $-1 $247 reversed single #
loop $-1 $-1 $164 $95 #
plane-surface $-1 0 -30.509850627799423 0 0 1 0 0 0 1 forward_v I I I I #
coedge $-1 $248 $249 $163 $250 forward $96 $-1 #
coedge $-1 $171 $98 $162 $250 reversed $61 $-1 #
coedge $-1 $169 $251 $98 $165 forward $160 $-1 #
edge $-1 $252 -4.3056572247353806 $172 -1.0892350912472115 $164 $253 forward 7 unknown #
coedge $-1 $100 $99 $254 $255 reversed $39 $-1 #
coedge $-1 $256 $257 $99 $168 forward $258 $-1 #
edge $-1 $259 -28.895298441340362 $173 -22.191939082546501 $167 $260 forward 7 unknown #
coedge $-1 $261 $164 $100 $170 forward $160 $-1 #
edge $-1 $172 22.191939082546501 $262 28.895298441340362 $169 $263 forward 7 unknown #
coedge $-1 $101 $163 $256 $264 reversed $61 $-1 #
vertex $-1 $170 $265 #
vertex $-1 $168 $266 #
straight-curve $-1 -47.735557844489932 0 -3.7866812492385078 0 1 0 I I #
face $-1 $-1 $187 $23 $-1 $267 forward single #
loop $-1 $-1 $268 $103 #
plane-surface $-1 0 30.509850627799423 0 0 -1 0 0 0 -1 forward_v I I I I #
coedge $-1 $269 $270 $271 $272 reversed $104 $-1 #
coedge $-1 $273 $106 $108 $185 forward $65 $-1 #
coedge $-1 $106 $273 $269 $274 forward $65 $-1 #
coedge $-1 $271 $109 $106 $182 forward $187 $-1 #
edge $-1 $189 6.2927159034032982 $275 22.895639344422342 $181 $276 forward 7 unknown #
coedge $-1 $277 $278 $107 $184 forward $176 $-1 #
edge $-1 $279 -60.187554056511573 $188 -56.759841267946022 $183 $280 forward 7 unknown #
edge $-1 $189 55.188128021317084 $279 61.019701255598854 $108 $281 forward 7 unknown #
coedge $-1 $109 $271 $277 $282 forward $187 $-1 #
loop $-1 $-1 $271 $175 #
vertex $-1 $184 $283 #
vertex $-1 $110 $284 #
straight-curve $-1 20.886893527316118 22.570330918286864 7.0031033827266782 0 -1 0 I I #
coedge $-1 $191 $191 $-1 $285 reversed $113 $-1 #
edge $-1 $286 0 $286 6.2831853071796004 $114 $287 forward 7 unknown #
vertex $-1 $117 $288 #
ellipse-curve $-1 29.188355247825641 28.150929718469506 5.2892469884438977 0 0.5877852598018023 0.80901698891910034 1 0 0 1 I I #
face $-1 $-1 $289 $25 $-1 $290 reversed single #
loop $-1 $-1 $124 $118 #
plane-surface $-1 0 0 7.0031033827266773 0 0 1 1 0 0 forward_v I I I I #
coedge $-1 $291 $292 $293 $294 reversed $119 $-1 #
coedge $-1 $295 $121 $123 $205 forward $74 $-1 #
coedge $-1 $121 $295 $291 $296 forward $74 $-1 #
coedge $-1 $293 $124 $121 $202 forward $196 $-1 #
edge $-1 $208 -29.483397999458205 $297 -2.1176516550639377 $201 $298 forward 7 unknown #
coedge $-1 $299 $300 $122 $204 forward $289 $-1 #
edge $-1 $301 -32.120344102600306 $207 -26.400867760564211 $203 $302 forward 7 unknown #
edge $-1 $208 -7.161560200098223 $301 2.3625585895707848e-014 $123 $303 forward 7 unknown #
coedge $-1 $124 $293 $299 $304 forward $196 $-1 #
vertex $-1 $125 $305 #
vertex $-1 $125 $306 #
straight-curve $-1 45.283922826719277 -58.731778168668946 7.0031033827266782 0 1 0 I I #
coedge $-1 $210 $210 $-1 $307 reversed $128 $-1 #
edge $-1 $308 0 $308 6.2831853071796004 $129 $309 forward 7 unknown #
vertex $-1 $132 $310 #
ellipse-curve $-1 25.736961152151949 -28.354883408064936 4.1433652117086348 0 -0.79863551827123203 0.60181501223851219 1.5 0 0 1 I I #
coedge $-1 $214 $214 $-1 $311 reversed $135 $-1 #
edge $-1 $312 0 $312 6.2831853071796004 $136 $313 forward 7 unknown #
vertex $-1 $139 $314 #
ellipse-curve $-1 37.465138156892351 -28.354883408064936 4.1433652117086348 0 -0.79863551827123203 0.60181501223851219 1.5 0 0 1 I I #
face $-1 $-1 $155 $21 $-1 $315 reversed single #
loop $-1 $-1 $234 $140 #
plane-surface $-1 0 30.509850627799423 0 0 -1 0 0 0 -1 forward_v I I I I #
coedge $-1 $316 $232 $235 $317 forward $141 $-1 #
coedge $-1 $238 $143 $144 $226 reversed $88 $-1 #
coedge $-1 $232 $316 $143 $224 reversed $141 $-1 #
edge $-1 $239 -7.0031033827266773 $318 7.0031033827266773 $223 $319 forward 7 unknown #
coedge $-1 $145 $144 $316 $320 forward $57 $-1 #
edge $-1 $230 -54.438917203283793 $318 54.438917203283793 $222 $321 forward 7 unknown #
coedge $-1 $235 $234 $145 $228 reversed $219 $-1 #
edge $-1 $322 -54.438917203283793 $229 54.438917203283793 $227 $323 forward 7 unknown #
vertex $-1 $147 $324 #
vertex $-1 $241 $325 #
straight-curve $-1 54.438917203283793 0 -7.0031033827266773 0 -1 0 I I #
coedge $-1 $221 $223 $148 $233 reversed $141 $-1 #
edge $-1 $236 -30.509850627799423 $239 30.509850627799423 $232 $326 forward 7 unknown #
coedge $-1 $227 $149 $154 $242 forward $219 $-1 #
coedge $-1 $149 $227 $221 $317 reversed $219 $-1 #
vertex $-1 $150 $327 #
straight-curve $-1 0 30.509850627799423 7.0031033827266773 -1 0 0 I I #
coedge $-1 $151 $222 $153 $241 reversed $88 $-1 #
vertex $-1 $233 $328 #
straight-curve $-1 0 -30.509850627799423 7.0031033827266773 1 0 0 I I #
edge $-1 $156 -7.0031033827266773 $230 7.0031033827266773 $153 $329 forward 7 unknown #
edge $-1 $157 -7.0031033827266773 $229 7.0031033827266773 $154 $330 forward 7 unknown #
point $-1 54.438917203283793 -30.509850627799423 7.0031033827266773 #
point $-1 54.438917203283793 30.509850627799423 7.0031033827266773 #
face $-1 $-1 $258 $22 $-1 $331 reversed single #
loop $-1 $-1 $254 $159 #
plane-surface $-1 -54.438917203283793 0 0 1 0 0 0 0 -1 forward_v I I I I #
coedge $-1 $332 $162 $251 $333 forward $96 $-1 #
coedge $-1 $162 $332 $334 $335 forward $96 $-1 #
edge $-1 $336 -30.509850627799423 $252 30.509850627799423 $162 $337 forward 7 unknown #
coedge $-1 $164 $261 $248 $333 reversed $160 $-1 #
vertex $-1 $333 $338 #
straight-curve $-1 -47.735557844489932 -30.509850627799423 -2.6974461579912963 0 0 1 I I #
coedge $-1 $339 $340 $166 $255 forward $246 $-1 #
edge $-1 $262 -30.509850627799423 $259 30.509850627799423 $254 $341 forward 7 unknown #
coedge $-1 $334 $167 $171 $264 forward $258 $-1 #
coedge $-1 $167 $334 $339 $342 reversed $258 $-1 #
loop $-1 $-1 $256 $245 #
vertex $-1 $342 $343 #
straight-curve $-1 -25.543618761943431 30.509850627799423 -3.7866812492385078 1 0 0 I I #
coedge $-1 $251 $169 $340 $344 forward $160 $-1 #
vertex $-1 $344 $345 #
straight-curve $-1 -25.543618761943431 -30.509850627799423 -3.7866812492385078 -1 0 0 I I #
edge $-1 $173 1.0892350912472115 $336 4.3056572247353806 $256 $346 forward 7 unknown #
point $-1 -47.735557844489932 -30.509850627799423 -3.7866812492385078 #
point $-1 -47.735557844489932 30.509850627799423 -3.7866812492385078 #
plane-surface $-1 0 0 7.0031033827266773 0 0 1 1 0 0 forward_v I I I I #
coedge $-1 $278 $277 $270 $347 forward $176 $-1 #
coedge $-1 $270 $178 $180 $274 reversed $104 $-1 #
coedge $-1 $178 $269 $268 $347 reversed $104 $-1 #
coedge $-1 $186 $181 $178 $272 forward $187 $-1 #
edge $-1 $275 3.2216778908527033 $348 7.9395197095125596 $271 $349 forward 7 unknown #
coedge $-1 $180 $179 $278 $350 reversed $65 $-1 #
edge $-1 $351 -61.019701255598854 $275 -55.188128021317084 $269 $352 forward 7 unknown #
vertex $-1 $182 $353 #
straight-curve $-1 14.59417762391282 25.792008809139571 7.0031033827266782 1 0 0 I I #
coedge $-1 $268 $183 $186 $282 reversed $176 $-1 #
coedge $-1 $183 $268 $273 $350 forward $176 $-1 #
vertex $-1 $184 $354 #
straight-curve $-1 20.886893527316118 30.509850627799423 63.762944650672701 0 0 1 I I #
straight-curve $-1 20.886893527316118 -18.85612434674821 39.441871549711664 0 0.80901698891910034 -0.5877852598018023 I I #
edge $-1 $348 -37.489816968335163 $188 -20.886893527316118 $277 $355 forward 7 unknown #
point $-1 20.886893527316118 30.509850627799423 7.0031033827266773 #
point $-1 20.886893527316118 25.792008809139567 7.0031033827266782 #
edge $-1 $356 1 $356 0 $191 $-1 forward 7 unknown #
vertex $-1 $192 $357 #
ellipse-curve $-1 29.188355247825641 26.403700497753093 2.8843923250722825 0 0.5877852598018023 0.80901698891910034 1 0 0 1 I I #
point $-1 30.188355247825641 28.150929718469516 5.2892469884439119 #
loop $-1 $-1 $203 $195 #
plane-surface $-1 0 -30.509850627799423 0 0 1 0 0 0 1 forward_v I I I I #
coedge $-1 $292 $198 $200 $296 reversed $119 $-1 #
coedge $-1 $198 $291 $358 $359 reversed $119 $-1 #
coedge $-1 $206 $201 $198 $294 forward $196 $-1 #
edge $-1 $297 -32.531861980338491 $360 -28.221927540869522 $293 $361 forward 7 unknown #
coedge $-1 $200 $199 $300 $362 reversed $74 $-1 #
edge $-1 $363 -2.3625585895707848e-014 $297 7.161560200098223 $291 $364 forward 7 unknown #
vertex $-1 $202 $365 #
straight-curve $-1 15.800524827261071 -26.199916188330455 7.0031033827266782 -1 0 0 I I #
coedge $-1 $358 $203 $206 $304 reversed $289 $-1 #
coedge $-1 $203 $358 $295 $362 forward $289 $-1 #
vertex $-1 $204 $366 #
straight-curve $-1 45.283922826719277 -30.509850627799423 33.403971143290889 0 0 1 I I #
straight-curve $-1 45.283922826719277 -30.509850627799409 1.2836270406906038 0 -0.60181501223851219 -0.79863551827123203 I I #
edge $-1 $360 17.918176482325009 $207 45.283922826719277 $299 $367 forward 7 unknown #
point $-1 45.283922826719277 -30.509850627799423 7.0031033827266773 #
point $-1 45.283922826719277 -26.199916188330455 7.0031033827266773 #
edge $-1 $368 1 $368 0 $210 $-1 forward 7 unknown #
vertex $-1 $211 $369 #
ellipse-curve $-1 25.736961152151949 -24.829536544436596 1.4868258801346652 0 -0.79863551827123203 0.60181501223851219 1.5 0 0 1 I I #
point $-1 27.236961152151949 -28.354883408064946 4.1433652117086428 #
edge $-1 $370 1 $370 0 $214 $-1 forward 7 unknown #
vertex $-1 $215 $371 #
ellipse-curve $-1 37.465138156892351 -24.829536544436596 1.4868258801346652 0 -0.79863551827123203 0.60181501223851219 1.5 0 0 1 I I #
point $-1 38.965138156892351 -28.354883408064946 4.1433652117086428 #
plane-surface $-1 54.438917203283793 0 0 -1 0 0 0 0 1 forward_v I I I I #
coedge $-1 $223 $221 $225 $320 reversed $141 $-1 #
edge $-1 $236 -7.0031033827266773 $322 7.0031033827266773 $235 $372 forward 7 unknown #
vertex $-1 $320 $373 #
straight-curve $-1 -54.438917203283793 -30.509850627799423 0 0 0 -1 I I #
edge $-1 $318 -30.509850627799423 $322 30.509850627799423 $316 $374 forward 7 unknown #
straight-curve $-1 0 -30.509850627799423 -7.0031033827266773 -1 0 0 I I #
vertex $-1 $228 $375 #
straight-curve $-1 0 30.509850627799423 -7.0031033827266773 1 0 0 I I #
point $-1 54.438917203283793 30.509850627799423 -7.0031033827266773 #
point $-1 54.438917203283793 -30.509850627799423 -7.0031033827266773 #
straight-curve $-1 -54.438917203283793 0 7.0031033827266773 0 -1 0 I I #
point $-1 -54.438917203283793 30.509850627799423 7.0031033827266773 #
point $-1 -54.438917203283793 -30.509850627799423 7.0031033827266773 #
straight-curve $-1 54.438917203283793 -30.509850627799423 0 0 0 -1 I I #
straight-curve $-1 54.438917203283793 30.509850627799423 0 0 0 -1 I I #
plane-surface $-1 0 30.509850627799423 0 0 -1 0 0 0 -1 forward_v I I I I #
coedge $-1 $249 $248 $376 $377 forward $96 $-1 #
edge $-1 $252 47.735557844489932 $378 54.438917203283793 $251 $379 forward 7 unknown #
coedge $-1 $257 $256 $249 $335 reversed $258 $-1 #
edge $-1 $380 -54.438917203283793 $336 -47.735557844489932 $334 $381 forward 7 unknown #
vertex $-1 $264 $382 #
straight-curve $-1 -47.735557844489932 0 -7.0031033827266773 0 -1 0 I I #
point $-1 -47.735557844489932 -30.509850627799423 -7.0031033827266773 #
coedge $-1 $376 $254 $257 $342 forward $246 $-1 #
coedge $-1 $254 $376 $261 $344 reversed $246 $-1 #
straight-curve $-1 -54.438917203283793 0 -3.7866812492385078 0 1 0 I I #
edge $-1 $259 3.7866812492385078 $380 7.0031033827266773 $257 $383 forward 7 unknown #
point $-1 -54.438917203283793 30.509850627799423 -3.7866812492385078 #
edge $-1 $262 3.7866812492385078 $378 7.0031033827266773 $340 $384 forward 7 unknown #
point $-1 -54.438917203283793 -30.509850627799423 -3.7866812492385078 #
straight-curve $-1 -47.735557844489932 30.509850627799423 -2.6974461579912963 0 0 -1 I I #
edge $-1 $348 56.759841267946022 $351 60.187554056511573 $268 $385 forward 7 unknown #
vertex $-1 $282 $386 #
straight-curve $-1 37.489816968335163 22.570330918286864 7.0031033827266782 0 1 0 I I #
edge $-1 $351 -22.895639344422342 $279 -6.2927159034032982 $278 $387 forward 7 unknown #
vertex $-1 $350 $388 #
straight-curve $-1 37.489816968335163 -18.85612434674821 39.441871549711664 0 -0.80901698891910034 0.5877852598018023 I I #
point $-1 37.489816968335163 25.792008809139567 7.0031033827266782 #
point $-1 20.886893527316118 30.509850627799423 3.5753905941611279 #
straight-curve $-1 0 30.509850627799423 7.0031033827266773 -1 0 0 I I #
vertex $-1 $285 $389 #
point $-1 30.188355247825641 26.403700497753093 2.8843923250722825 #
coedge $-1 $300 $299 $292 $359 forward $289 $-1 #
edge $-1 $360 26.400867760564211 $363 32.120344102600306 $358 $390 forward 7 unknown #
vertex $-1 $304 $391 #
straight-curve $-1 17.918176482325009 -58.731778168668946 7.0031033827266782 0 -1 0 I I #
edge $-1 $363 2.1176516550639377 $301 29.483397999458205 $300 $392 forward 7 unknown #
vertex $-1 $362 $393 #
straight-curve $-1 17.918176482325009 -30.509850627799409 1.2836270406906038 0 0.60181501223851219 0.79863551827123203 I I #
point $-1 17.918176482325009 -26.199916188330455 7.0031033827266773 #
point $-1 45.283922826719277 -30.509850627799423 1.283627040690585 #
straight-curve $-1 0 -30.509850627799423 7.0031033827266773 1 0 0 I I #
vertex $-1 $307 $394 #
point $-1 27.236961152151949 -24.829536544436596 1.4868258801346652 #
vertex $-1 $311 $395 #
point $-1 38.965138156892351 -24.829536544436596 1.4868258801346652 #
straight-curve $-1 -54.438917203283793 30.509850627799423 0 0 0 -1 I I #
point $-1 -54.438917203283793 -30.509850627799423 -7.0031033827266773 #
straight-curve $-1 -54.438917203283793 0 -7.0031033827266773 0 1 0 I I #
point $-1 -54.438917203283793 30.509850627799423 -7.0031033827266773 #
coedge $-1 $340 $339 $332 $377 reversed $246 $-1 #
edge $-1 $378 -30.509850627799423 $380 30.509850627799423 $376 $396 forward 7 unknown #
vertex $-1 $377 $397 #
straight-curve $-1 0 -30.509850627799423 -7.0031033827266773 -1 0 0 I I #
vertex $-1 $335 $398 #
straight-curve $-1 0 30.509850627799423 -7.0031033827266773 1 0 0 I I #
point $-1 -47.735557844489932 30.509850627799423 -7.0031033827266773 #
straight-curve $-1 -54.438917203283793 30.509850627799423 0 0 0 -1 I I #
straight-curve $-1 -54.438917203283793 -30.509850627799423 0 0 0 -1 I I #
straight-curve $-1 37.489816968335163 30.509850627799423 63.762944650672701 0 0 -1 I I #
point $-1 37.489816968335163 30.509850627799423 7.0031033827266773 #
straight-curve $-1 14.59417762391282 30.509850627799423 3.5753905941611279 -1 0 0 I I #
point $-1 37.489816968335163 30.509850627799423 3.5753905941611279 #
point $-1 29.188355247825641 25.815915237951288 2.0753753361531824 #
straight-curve $-1 17.918176482325009 -30.509850627799423 33.403971143290889 0 0 -1 I I #
point $-1 17.918176482325009 -30.509850627799423 7.0031033827266773 #
straight-curve $-1 15.800524827261071 -30.509850627799423 1.2836270406905856 1 0 0 I I #
point $-1 17.918176482325009 -30.509850627799423 1.283627040690585 #
point $-1 25.736961152151949 -23.63158326702975 0.58410336177689703 #
point $-1 37.465138156892351 -23.63158326702975 0.58410336177689703 #
straight-curve $-1 -54.438917203283793 0 -7.0031033827266773 0 1 0 I I #
point $-1 -54.438917203283793 -30.509850627799423 -7.0031033827266773 #
point $-1 -54.438917203283793 30.509850627799423 -7.0031033827266773 #
End-of-ACIS-data 