500 0 6 0           
7 Unknown 11 ACIS 5.0 NT 24 Fri Mar 26 02:52:27 1999 
-1 9.9999999999999995e-007 1e-010 
body $-1 $6 $-1 $7 #
body $-1 $8 $-1 $9 #
body $-1 $10 $-1 $11 #
body $-1 $12 $-1 $13 #
body $-1 $14 $-1 $15 #
body $-1 $16 $-1 $17 #
lump $-1 $-1 $18 $0 #
transform $-1 1 0 0 0 1 0 0 0 1 72.282479323709822 47.92875235042095 20.207687596409055 1 rotate no_reflect no_shear #
lump $-1 $-1 $19 $1 #
transform $-1 1 0 0 0 1 0 0 0 1 72.282479323709822 47.92875235042095 20.207687596409055 1 rotate no_reflect no_shear #
lump $-1 $-1 $20 $2 #
transform $-1 1 0 0 0 1 0 0 0 1 72.282479323709822 47.92875235042095 20.207687596409055 1 rotate no_reflect no_shear #
lump $-1 $-1 $21 $3 #
transform $-1 1 0 0 0 1 0 0 0 1 72.282479323709822 47.92875235042095 20.207687596409055 1 rotate no_reflect no_shear #
lump $-1 $-1 $22 $4 #
transform $-1 1 0 0 0 1 0 0 0 1 72.282479323709822 47.92875235042095 20.207687596409055 1 rotate no_reflect no_shear #
lump $-1 $-1 $23 $5 #
transform $-1 1 0 0 0 1 0 0 0 1 72.282479323709822 47.92875235042095 20.207687596409055 1 rotate no_reflect no_shear #
shell $-1 $-1 $-1 $24 $-1 $6 #
shell $-1 $-1 $-1 $25 $-1 $8 #
shell $-1 $-1 $-1 $26 $-1 $10 #
shell $-1 $-1 $-1 $27 $-1 $12 #
shell $-1 $-1 $-1 $28 $-1 $14 #
shell $-1 $-1 $-1 $29 $-1 $16 #
face $-1 $30 $31 $18 $-1 $32 forward single #
face $-1 $33 $34 $19 $-1 $35 forward single #
face $-1 $36 $37 $20 $-1 $38 reversed single #
face $-1 $39 $40 $21 $-1 $41 forward single #
face $-1 $42 $43 $22 $-1 $44 reversed single #
face $-1 $45 $46 $23 $-1 $47 forward single #
face $-1 $48 $49 $18 $-1 $50 reversed single #
loop $-1 $-1 $51 $24 #
plane-surface $-1 0 0 20.207687596409055 0 0 1 1 0 0 forward_v I I I I #
face $-1 $52 $53 $19 $-1 $54 reversed single #
loop $-1 $-1 $55 $25 #
plane-surface $-1 0 -36.83806393604705 10.13410428823266 0 0 1 1 0 0 forward_v I I I I #
face $-1 $56 $57 $20 $-1 $58 reversed single #
loop $-1 $-1 $59 $26 #
plane-surface $-1 -51.633875461090653 -18.629007363957488 79.171807571888507 0.51503808176128008 0 0.85716729658548041 0.85716729658548041 0 -0.51503808176128008 forward_v I I I I #
face $-1 $60 $61 $21 $-1 $62 forward single #
loop $-1 $63 $64 $27 #
cone-surface $-1 58.500095673155698 -18.629007363957488 10.979322616513961 -0.51503808176128008 0 -0.85716729658548041 2.1429182414637009 0 -1.2875952044032002 1 I I 0 1 2.5 forward I I I I #
face $-1 $65 $66 $22 $-1 $67 reversed single #
loop $-1 $-1 $68 $28 #
plane-surface $-1 -72.282479323709808 -18.629007363957488 4.7153485802227237 -0.51503808176128008 0 0.85716729658548041 0.85716729658548041 0 0.51503808176128008 forward_v I I I I #
face $-1 $69 $70 $23 $-1 $71 forward single #
loop $-1 $72 $73 $29 #
cone-surface $-1 -58.500095673155691 -18.629007363957488 10.979322616513958 0.51503808176128008 0 -0.85716729658548041 2.1429182414637009 0 1.2875952044032002 1 I I 0 1 2.5 forward I I I I #
face $-1 $74 $75 $18 $-1 $76 reversed single #
loop $-1 $-1 $77 $30 #
plane-surface $-1 0 0 -20.207687596409055 0 0 1 1 0 0 forward_v I I I I #
coedge $-1 $78 $79 $80 $81 forward $31 $-1 #
face $-1 $82 $83 $19 $-1 $84 reversed single #
loop $-1 $-1 $85 $33 #
plane-surface $-1 0 -36.83806393604705 5.4650041938568243 0 0 1 1 0 0 forward_v I I I I #
coedge $-1 $86 $87 $88 $89 reversed $34 $-1 #
face $-1 $90 $91 $20 $-1 $92 forward single #
loop $-1 $-1 $93 $36 #
plane-surface $-1 22.822583530575145 -11.510639206241827 203.08816235668897 0 -1 0 -0.51503808176128008 0 -0.85716729658548041 forward_v I I I I #
coedge $-1 $94 $95 $96 $97 reversed $37 $-1 #
face $-1 $-1 $98 $21 $-1 $99 forward single #
loop $-1 $100 $101 $39 #
cone-surface $-1 56.9657051661232 -18.629007363957488 8.4256680239801973 -0.51503808176128008 0 -0.85716729658548041 1.0714591207318505 0 -0.64379760220160009 1 I I -0.70710678118654746 0.70710678118654746 1.25 forward I I I I #
loop $-1 $-1 $102 $27 #
coedge $-1 $64 $64 $103 $104 reversed $40 $-1 #
face $-1 $105 $106 $22 $-1 $107 forward single #
loop $-1 $-1 $108 $42 #
plane-surface $-1 -146.73893831537561 -11.510639206241827 128.63170336502318 0 -1 0 0.51503808176128008 0 -0.85716729658548041 forward_v I I I I #
coedge $-1 $109 $110 $111 $112 reversed $43 $-1 #
face $-1 $-1 $113 $23 $-1 $114 forward single #
loop $-1 $115 $116 $45 #
cone-surface $-1 -56.965705166123193 -18.629007363957488 8.4256680239801938 0.51503808176128008 0 -0.85716729658548041 1.0714591207318505 0 0.64379760220160009 1 I I -0.70710678118654746 0.70710678118654746 1.25 forward I I I I #
loop $-1 $-1 $117 $29 #
coedge $-1 $73 $73 $118 $119 reversed $46 $-1 #
face $-1 $120 $121 $18 $-1 $122 reversed single #
loop $-1 $-1 $123 $48 #
plane-surface $-1 0 -47.92875235042095 0 0 1 0 0 0 1 forward_v I I I I #
coedge $-1 $124 $125 $126 $127 forward $49 $-1 #
coedge $-1 $128 $51 $129 $130 forward $31 $-1 #
coedge $-1 $51 $128 $131 $132 forward $31 $-1 #
coedge $-1 $133 $134 $51 $81 reversed $135 $-1 #
edge $-1 $136 -47.92875235042095 $137 47.92875235042095 $80 $138 forward 7 unknown #
face $-1 $139 $140 $19 $-1 $141 reversed single #
loop $-1 $-1 $142 $52 #
plane-surface $-1 0 -25.747375521673149 7.799554241044742 0 -1 0 0 0 -1 forward_v I I I I #
coedge $-1 $143 $144 $145 $146 reversed $53 $-1 #
coedge $-1 $147 $55 $148 $149 forward $34 $-1 #
coedge $-1 $55 $147 $150 $151 reversed $34 $-1 #
coedge $-1 $152 $153 $55 $89 forward $154 $-1 #
edge $-1 $155 7.3283435536496242 $156 29.509720382397425 $88 $157 forward 7 unknown #
face $-1 $158 $159 $20 $-1 $160 reversed single #
loop $-1 $-1 $161 $56 #
plane-surface $-1 0 -25.747375521673149 7.799554241044742 0 -1 0 0 0 -1 forward_v I I I I #
coedge $-1 $162 $163 $164 $165 reversed $57 $-1 #
coedge $-1 $166 $59 $161 $167 forward $37 $-1 #
coedge $-1 $59 $166 $162 $168 forward $37 $-1 #
coedge $-1 $164 $169 $59 $97 forward $159 $-1 #
edge $-1 $170 -16.432871839694407 $171 -2.1961355242630827 $96 $172 forward 7 unknown #
loop $-1 $-1 $103 $60 #
plane-surface $-1 -51.633875461090653 -18.629007363957488 79.171807571888507 0.51503808176128008 0 0.85716729658548041 0.85716729658548041 0 -0.51503808176128008 forward_v I I I I #
loop $-1 $-1 $173 $39 #
coedge $-1 $101 $101 $102 $174 reversed $61 $-1 #
coedge $-1 $102 $102 $101 $174 forward $63 $-1 #
coedge $-1 $103 $103 $64 $104 forward $98 $-1 #
edge $-1 $175 0 $175 6.2831853071796004 $103 $176 forward 7 unknown #
face $-1 $177 $178 $22 $-1 $179 forward single #
loop $-1 $-1 $180 $65 #
plane-surface $-1 0 0 20.207687596409055 0 0 1 1 0 0 forward_v I I I I #
coedge $-1 $181 $182 $183 $184 reversed $66 $-1 #
coedge $-1 $185 $68 $186 $187 forward $43 $-1 #
coedge $-1 $68 $185 $181 $188 forward $43 $-1 #
coedge $-1 $183 $180 $68 $112 forward $106 $-1 #
edge $-1 $189 -16.432871839694407 $190 -2.1961355242630827 $111 $191 forward 7 unknown #
loop $-1 $-1 $118 $69 #
plane-surface $-1 -72.282479323709808 -18.629007363957488 4.7153485802227237 -0.51503808176128008 0 0.85716729658548041 0.85716729658548041 0 0.51503808176128008 forward_v I I I I #
loop $-1 $-1 $192 $45 #
coedge $-1 $116 $116 $117 $193 reversed $70 $-1 #
coedge $-1 $117 $117 $116 $193 forward $72 $-1 #
coedge $-1 $118 $118 $73 $119 forward $113 $-1 #
edge $-1 $194 0 $194 6.2831853071796004 $118 $195 forward 7 unknown #
face $-1 $196 $197 $18 $-1 $198 reversed single #
loop $-1 $-1 $199 $74 #
plane-surface $-1 -72.282479323709822 0 0 1 0 0 0 0 -1 forward_v I I I I #
coedge $-1 $200 $131 $201 $202 forward $75 $-1 #
coedge $-1 $203 $77 $200 $204 forward $49 $-1 #
coedge $-1 $77 $203 $205 $206 forward $49 $-1 #
coedge $-1 $134 $133 $77 $127 reversed $135 $-1 #
edge $-1 $207 -47.92875235042095 $208 47.92875235042095 $126 $209 forward 7 unknown #
coedge $-1 $79 $78 $210 $211 forward $31 $-1 #
coedge $-1 $212 $213 $78 $130 reversed $197 $-1 #
edge $-1 $137 -72.282479323709822 $214 72.282479323709822 $129 $215 forward 7 unknown #
coedge $-1 $123 $216 $79 $132 reversed $75 $-1 #
edge $-1 $217 -72.282479323709822 $136 72.282479323709822 $131 $218 forward 7 unknown #
coedge $-1 $126 $80 $216 $219 forward $135 $-1 #
coedge $-1 $80 $126 $212 $220 reversed $135 $-1 #
loop $-1 $-1 $133 $196 #
vertex $-1 $81 $221 #
vertex $-1 $81 $222 #
straight-curve $-1 72.282479323709822 0 20.207687596409055 0 1 0 I I #
face $-1 $223 $224 $19 $-1 $225 reversed single #
loop $-1 $-1 $226 $82 #
plane-surface $-1 -72.282479323709822 0 0 1 0 0 0 0 -1 forward_v I I I I #
coedge $-1 $227 $148 $153 $228 reversed $83 $-1 #
coedge $-1 $229 $85 $230 $231 reversed $53 $-1 #
coedge $-1 $85 $229 $227 $232 forward $53 $-1 #
coedge $-1 $153 $152 $85 $146 forward $154 $-1 #
edge $-1 $233 -29.509720382397425 $234 -7.3283435536496242 $145 $235 forward 7 unknown #
coedge $-1 $87 $86 $226 $236 reversed $34 $-1 #
coedge $-1 $142 $237 $86 $149 reversed $83 $-1 #
edge $-1 $155 -72.282479323709822 $238 72.282479323709822 $148 $239 forward 7 unknown #
coedge $-1 $240 $241 $87 $151 forward $224 $-1 #
edge $-1 $156 -72.282479323709822 $242 72.282479323709822 $150 $243 forward 7 unknown #
coedge $-1 $145 $88 $241 $244 forward $154 $-1 #
coedge $-1 $88 $145 $142 $228 forward $154 $-1 #
loop $-1 $-1 $88 $223 #
vertex $-1 $89 $245 #
vertex $-1 $244 $246 #
straight-curve $-1 72.282479323709822 -18.419031968023525 10.13410428823266 0 -1 0 I I #
face $-1 $-1 $247 $20 $-1 $248 forward single #
loop $-1 $-1 $169 $90 #
plane-surface $-1 72.282479323709822 0 0 -1 0 0 0 0 1 forward_v I I I I #
coedge $-1 $249 $250 $94 $167 reversed $91 $-1 #
coedge $-1 $163 $93 $95 $168 reversed $57 $-1 #
coedge $-1 $93 $162 $251 $252 reversed $57 $-1 #
coedge $-1 $253 $96 $93 $165 forward $159 $-1 #
edge $-1 $171 -96.828732598121775 $254 -81.336393581935425 $164 $255 forward 7 unknown #
coedge $-1 $95 $94 $256 $257 reversed $37 $-1 #
edge $-1 $170 -144.56495864741964 $258 -114.48497123521304 $161 $259 forward 7 unknown #
edge $-1 $260 114.48497123521304 $171 144.56495864741964 $162 $261 forward 7 unknown #
coedge $-1 $96 $253 $249 $262 forward $159 $-1 #
vertex $-1 $97 $263 #
vertex $-1 $97 $264 #
straight-curve $-1 72.282479323709822 -9.3145036819787439 4.7153485802227166 0 1 0 I I #
coedge $-1 $173 $173 $-1 $265 reversed $100 $-1 #
edge $-1 $266 0 $266 6.2831853071796004 $101 $267 forward 7 unknown #
vertex $-1 $104 $268 #
ellipse-curve $-1 59.390688577986602 -18.629007363957488 12.461518088315882 0.51503808176128008 0 0.85716729658548041 2.1429182414637009 0 -1.2875952044032002 1 I I #
face $-1 $-1 $269 $22 $-1 $270 reversed single #
loop $-1 $-1 $186 $105 #
plane-surface $-1 0 -25.747375521673149 7.799554241044742 0 -1 0 0 0 -1 forward_v I I I I #
coedge $-1 $111 $271 $272 $273 forward $106 $-1 #
coedge $-1 $182 $108 $110 $188 reversed $66 $-1 #
coedge $-1 $108 $181 $274 $275 reversed $66 $-1 #
coedge $-1 $271 $111 $108 $184 forward $106 $-1 #
edge $-1 $190 -26.870571325424393 $276 -1.0869898339779809 $183 $277 forward 7 unknown #
coedge $-1 $110 $109 $278 $279 reversed $43 $-1 #
coedge $-1 $272 $280 $109 $187 reversed $178 $-1 #
edge $-1 $189 -30.079987412206584 $281 1.6755537013839907e-014 $186 $282 forward 7 unknown #
edge $-1 $283 -1.6755537013839907e-014 $190 30.079987412206584 $181 $284 forward 7 unknown #
vertex $-1 $273 $285 #
vertex $-1 $112 $286 #
straight-curve $-1 -46.49889783226341 -9.3145036819787439 20.207687596409055 0 1 0 I I #
coedge $-1 $192 $192 $-1 $287 reversed $115 $-1 #
edge $-1 $288 0 $288 6.2831853071796004 $116 $289 forward 7 unknown #
vertex $-1 $119 $290 #
ellipse-curve $-1 -59.390688577986602 -18.629007363957488 12.461518088315891 -0.51503808176128008 0 0.85716729658548041 2.1429182414637009 0 1.2875952044032002 1 I I #
face $-1 $-1 $135 $18 $-1 $291 reversed single #
loop $-1 $-1 $212 $120 #
plane-surface $-1 0 47.92875235042095 0 0 -1 0 0 0 -1 forward_v I I I I #
coedge $-1 $292 $210 $213 $293 forward $121 $-1 #
coedge $-1 $216 $123 $124 $204 reversed $75 $-1 #
coedge $-1 $210 $292 $123 $202 reversed $121 $-1 #
edge $-1 $217 -20.207687596409055 $294 20.207687596409055 $201 $295 forward 7 unknown #
coedge $-1 $125 $124 $292 $296 forward $49 $-1 #
edge $-1 $208 -72.282479323709822 $294 72.282479323709822 $200 $297 forward 7 unknown #
coedge $-1 $213 $212 $125 $206 reversed $197 $-1 #
edge $-1 $298 -72.282479323709822 $207 72.282479323709822 $205 $299 forward 7 unknown #
vertex $-1 $127 $300 #
vertex $-1 $219 $301 #
straight-curve $-1 72.282479323709822 0 -20.207687596409055 0 -1 0 I I #
coedge $-1 $199 $201 $128 $211 reversed $121 $-1 #
edge $-1 $214 -47.92875235042095 $217 47.92875235042095 $210 $302 forward 7 unknown #
coedge $-1 $205 $129 $134 $220 forward $197 $-1 #
coedge $-1 $129 $205 $199 $293 reversed $197 $-1 #
vertex $-1 $130 $303 #
straight-curve $-1 0 47.92875235042095 20.207687596409055 -1 0 0 I I #
coedge $-1 $131 $200 $133 $219 reversed $75 $-1 #
vertex $-1 $211 $304 #
straight-curve $-1 0 -47.92875235042095 20.207687596409055 1 0 0 I I #
edge $-1 $136 -20.207687596409055 $208 20.207687596409055 $133 $305 forward 7 unknown #
edge $-1 $137 -20.207687596409055 $207 20.207687596409055 $134 $306 forward 7 unknown #
point $-1 72.282479323709822 -47.92875235042095 20.207687596409055 #
point $-1 72.282479323709822 47.92875235042095 20.207687596409055 #
face $-1 $-1 $154 $19 $-1 $307 reversed single #
loop $-1 $-1 $150 $139 #
plane-surface $-1 0 -47.92875235042095 0 0 1 0 0 0 1 forward_v I I I I #
coedge $-1 $308 $309 $147 $236 forward $140 $-1 #
coedge $-1 $237 $142 $144 $232 reversed $83 $-1 #
edge $-1 $234 1.5652270733344533 $155 6.2343271677102887 $153 $310 forward 7 unknown #
coedge $-1 $144 $143 $311 $312 reversed $53 $-1 #
coedge $-1 $241 $240 $143 $231 forward $224 $-1 #
edge $-1 $313 -72.282479323709822 $233 72.282479323709822 $230 $314 forward 7 unknown #
edge $-1 $315 -72.282479323709822 $234 72.282479323709822 $227 $316 forward 7 unknown #
vertex $-1 $231 $317 #
vertex $-1 $146 $318 #
straight-curve $-1 72.282479323709822 -18.419031968023525 5.4650041938568243 0 1 0 I I #
edge $-1 $242 -29.509720382397425 $238 -7.3283435536496242 $226 $319 forward 7 unknown #
coedge $-1 $148 $227 $308 $320 reversed $83 $-1 #
vertex $-1 $236 $321 #
straight-curve $-1 0 -25.747375521673149 10.13410428823266 -1 0 0 I I #
coedge $-1 $230 $150 $309 $322 forward $224 $-1 #
coedge $-1 $150 $230 $152 $244 reversed $224 $-1 #
vertex $-1 $322 $323 #
straight-curve $-1 0 -47.92875235042095 10.13410428823266 -1 0 0 I I #
edge $-1 $156 -10.13410428823266 $233 -5.4650041938568243 $152 $324 forward 7 unknown #
point $-1 72.282479323709822 -25.747375521673149 10.13410428823266 #
point $-1 72.282479323709822 -47.92875235042095 10.13410428823266 #
loop $-1 $-1 $325 $158 #
plane-surface $-1 0 0 20.207687596409055 0 0 1 1 0 0 forward_v I I I I #
coedge $-1 $250 $161 $169 $262 reversed $91 $-1 #
coedge $-1 $161 $249 $325 $326 reversed $91 $-1 #
coedge $-1 $256 $327 $163 $252 forward $247 $-1 #
edge $-1 $254 -60.87118755842225 $260 -35.087606066975823 $251 $328 forward 7 unknown #
coedge $-1 $169 $164 $327 $329 reversed $159 $-1 #
vertex $-1 $165 $330 #
straight-curve $-1 72.282479323709822 -11.510639206241827 101.54408117834448 0 0 1 I I #
coedge $-1 $325 $251 $166 $257 forward $247 $-1 #
edge $-1 $260 2.1961355242630827 $258 16.432871839694407 $256 $331 forward 7 unknown #
vertex $-1 $326 $332 #
straight-curve $-1 -51.633875461090653 -25.747375521673149 79.171807571888507 -0.85716729658548041 0 0.51503808176128008 I I #
vertex $-1 $257 $333 #
straight-curve $-1 -51.633875461090653 -11.510639206241827 79.171807571888507 0.85716729658548041 0 -0.51503808176128008 I I #
edge $-1 $334 81.336393581935425 $170 96.828732598121775 $169 $335 forward 7 unknown #
point $-1 72.282479323709808 -25.747375521673149 4.7153485802227095 #
point $-1 72.282479323709808 -11.510639206241827 4.7153485802227095 #
edge $-1 $336 1 $336 0 $173 $-1 forward 7 unknown #
vertex $-1 $174 $337 #
ellipse-curve $-1 57.609502768324802 -18.629007363957488 9.4971271447120476 0.51503808176128008 0 0.85716729658548041 2.1429182414637009 0 -1.2875952044032002 1 I I #
point $-1 61.533606819450306 -18.629007363957488 11.173922883912677 #
loop $-1 $-1 $338 $177 #
plane-surface $-1 -72.282479323709822 0 0 1 0 0 0 0 -1 forward_v I I I I #
coedge $-1 $180 $183 $339 $340 forward $106 $-1 #
coedge $-1 $280 $186 $180 $273 reversed $178 $-1 #
edge $-1 $341 1.0869898339779809 $189 26.870571325424393 $180 $342 forward 7 unknown #
coedge $-1 $278 $339 $182 $275 forward $269 $-1 #
edge $-1 $276 44.108164086102533 $283 59.600503102288876 $274 $343 forward 7 unknown #
vertex $-1 $340 $344 #
straight-curve $-1 -73.369469157687803 -11.510639206241827 20.207687596409059 -1 0 0 I I #
coedge $-1 $338 $274 $185 $279 forward $269 $-1 #
edge $-1 $283 2.1961355242630827 $281 16.432871839694407 $278 $345 forward 7 unknown #
coedge $-1 $186 $272 $338 $346 reversed $178 $-1 #
vertex $-1 $346 $347 #
straight-curve $-1 -72.282479323709808 -25.747375521673149 4.7153485802227237 -0.85716729658548041 0 -0.51503808176128008 I I #
vertex $-1 $279 $348 #
straight-curve $-1 -72.282479323709808 -11.510639206241827 4.7153485802227237 0.85716729658548041 0 0.51503808176128008 I I #
point $-1 -46.49889783226341 -25.747375521673149 20.207687596409055 #
point $-1 -46.49889783226341 -11.510639206241827 20.207687596409055 #
edge $-1 $349 1 $349 0 $192 $-1 forward 7 unknown #
vertex $-1 $193 $350 #
ellipse-curve $-1 -57.609502768324795 -18.629007363957488 9.497127144712044 -0.51503808176128008 0 0.85716729658548041 2.1429182414637009 0 1.2875952044032002 1 I I #
point $-1 -57.247770336522898 -18.629007363957488 13.749113292719073 #
plane-surface $-1 72.282479323709822 0 0 -1 0 0 0 0 1 forward_v I I I I #
coedge $-1 $201 $199 $203 $296 reversed $121 $-1 #
edge $-1 $214 -20.207687596409055 $298 20.207687596409055 $213 $351 forward 7 unknown #
vertex $-1 $296 $352 #
straight-curve $-1 -72.282479323709822 -47.92875235042095 0 0 0 -1 I I #
edge $-1 $294 -47.92875235042095 $298 47.92875235042095 $292 $353 forward 7 unknown #
straight-curve $-1 0 -47.92875235042095 -20.207687596409055 -1 0 0 I I #
vertex $-1 $206 $354 #
straight-curve $-1 0 47.92875235042095 -20.207687596409055 1 0 0 I I #
point $-1 72.282479323709822 47.92875235042095 -20.207687596409055 #
point $-1 72.282479323709822 -47.92875235042095 -20.207687596409055 #
straight-curve $-1 -72.282479323709822 0 20.207687596409055 0 -1 0 I I #
point $-1 -72.282479323709822 47.92875235042095 20.207687596409055 #
point $-1 -72.282479323709822 -47.92875235042095 20.207687596409055 #
straight-curve $-1 72.282479323709822 -47.92875235042095 0 0 0 -1 I I #
straight-curve $-1 72.282479323709822 47.92875235042095 0 0 0 -1 I I #
plane-surface $-1 72.282479323709822 0 0 -1 0 0 0 0 1 forward_v I I I I #
coedge $-1 $311 $226 $237 $320 forward $140 $-1 #
coedge $-1 $226 $311 $240 $322 reversed $140 $-1 #
straight-curve $-1 72.282479323709822 -25.747375521673149 3.899777120522371 0 0 1 I I #
coedge $-1 $309 $308 $229 $312 forward $140 $-1 #
edge $-1 $315 7.3283435536496242 $313 29.509720382397425 $311 $355 forward 7 unknown #
vertex $-1 $231 $356 #
straight-curve $-1 0 -47.92875235042095 5.4650041938568243 1 0 0 I I #
vertex $-1 $312 $357 #
straight-curve $-1 0 -25.747375521673149 5.4650041938568243 1 0 0 I I #
point $-1 72.282479323709822 -47.92875235042095 5.4650041938568243 #
point $-1 72.282479323709822 -25.747375521673149 5.4650041938568243 #
straight-curve $-1 -72.282479323709822 -18.419031968023525 10.13410428823266 0 1 0 I I #
edge $-1 $238 -6.2343271677102887 $315 -1.5652270733344533 $308 $358 forward 7 unknown #
point $-1 -72.282479323709822 -25.747375521673149 10.13410428823266 #
edge $-1 $242 -10.13410428823266 $313 -5.4650041938568243 $309 $359 forward 7 unknown #
point $-1 -72.282479323709822 -47.92875235042095 10.13410428823266 #
straight-curve $-1 72.282479323709822 -47.92875235042095 0 0 0 -1 I I #
coedge $-1 $327 $256 $250 $326 forward $247 $-1 #
edge $-1 $258 35.087606066975823 $334 60.87118755842225 $325 $360 forward 7 unknown #
coedge $-1 $251 $325 $253 $329 forward $247 $-1 #
straight-curve $-1 11.411291765287572 -11.510639206241827 20.207687596409059 -1 0 0 I I #
edge $-1 $334 -25.747375521673149 $254 -11.510639206241827 $253 $361 forward 7 unknown #
point $-1 72.282479323709822 -11.510639206241827 20.207687596409055 #
straight-curve $-1 46.498897832263395 -9.3145036819787439 20.207687596409052 0 -1 0 I I #
point $-1 46.498897832263395 -25.747375521673149 20.207687596409059 #
point $-1 46.498897832263395 -11.510639206241827 20.207687596409059 #
vertex $-1 $329 $362 #
straight-curve $-1 72.282479323709822 -25.747375521673149 101.54408117834448 0 0 -1 I I #
vertex $-1 $265 $363 #
point $-1 59.752421009788499 -18.629007363957488 8.2095319403088478 #
coedge $-1 $339 $278 $280 $346 forward $269 $-1 #
coedge $-1 $274 $338 $271 $340 reversed $269 $-1 #
edge $-1 $276 11.510639206241827 $341 25.747375521673149 $339 $364 forward 7 unknown #
vertex $-1 $346 $365 #
straight-curve $-1 -73.369469157687803 -25.747375521673149 20.207687596409059 1 0 0 I I #
straight-curve $-1 -72.282479323709822 -11.510639206241827 64.315851682511592 0 0 -1 I I #
point $-1 -72.282479323709822 -11.510639206241827 20.207687596409055 #
straight-curve $-1 -72.282479323709822 -9.3145036819787439 4.7153485802227229 0 -1 0 I I #
edge $-1 $281 -59.600503102288876 $341 -44.108164086102533 $338 $366 forward 7 unknown #
point $-1 -72.282479323709822 -25.747375521673149 4.7153485802227149 #
point $-1 -72.282479323709822 -11.510639206241827 4.7153485802227149 #
vertex $-1 $287 $367 #
point $-1 -55.466584526861091 -18.629007363957488 10.784722349115246 #
straight-curve $-1 -72.282479323709822 47.92875235042095 0 0 0 -1 I I #
point $-1 -72.282479323709822 -47.92875235042095 -20.207687596409055 #
straight-curve $-1 -72.282479323709822 0 -20.207687596409055 0 1 0 I I #
point $-1 -72.282479323709822 47.92875235042095 -20.207687596409055 #
straight-curve $-1 -72.282479323709822 -18.419031968023525 5.4650041938568243 0 -1 0 I I #
point $-1 -72.282479323709822 -47.92875235042095 5.4650041938568243 #
point $-1 -72.282479323709822 -25.747375521673149 5.4650041938568243 #
straight-curve $-1 -72.282479323709822 -25.747375521673149 3.899777120522371 0 0 -1 I I #
straight-curve $-1 -72.282479323709822 -47.92875235042095 0 0 0 -1 I I #
straight-curve $-1 11.411291765287572 -25.747375521673149 20.207687596409059 1 0 0 I I #
straight-curve $-1 72.282479323709822 0 20.207687596409055 0 1 0 I I #
point $-1 72.282479323709822 -25.747375521673149 20.207687596409055 #
point $-1 56.321907563921599 -18.629007363957488 7.3542089032483471 #
straight-curve $-1 -72.282479323709822 0 20.207687596409055 0 -1 0 I I #
point $-1 -72.282479323709822 -25.747375521673149 20.207687596409055 #
straight-curve $-1 -72.282479323709822 -25.747375521673149 64.315851682511592 0 0 1 I I #
point $-1 -56.321907563921592 -18.629007363957488 7.3542089032483435 #
End-of-ACIS-data 