500 0 10 0           
7 Unknown 11 ACIS 5.0 NT 24 Thu Mar 25 15:10:58 1999 
-1 9.9999999999999995e-007 1e-010 
body $-1 $10 $-1 $11 #
body $-1 $12 $-1 $13 #
body $-1 $14 $-1 $15 #
body $-1 $16 $-1 $17 #
body $-1 $18 $-1 $19 #
body $-1 $20 $-1 $21 #
body $-1 $22 $-1 $23 #
body $-1 $24 $-1 $25 #
body $-1 $26 $-1 $27 #
body $-1 $28 $-1 $29 #
lump $-1 $-1 $30 $0 #
transform $-1 1 0 0 0 1 0 0 0 1 65.677053132724993 35.779933331469884 15.231286234952057 1 rotate no_reflect no_shear #
lump $-1 $-1 $31 $1 #
transform $-1 1 0 0 0 1 0 0 0 1 65.677053132724993 35.779933331469884 15.231286234952057 1 rotate no_reflect no_shear #
lump $-1 $-1 $32 $2 #
transform $-1 1 0 0 0 1 0 0 0 1 65.677053132724993 35.779933331469884 15.231286234952057 1 rotate no_reflect no_shear #
lump $-1 $-1 $33 $3 #
transform $-1 1 0 0 0 1 0 0 0 1 65.677053132724993 35.779933331469884 15.231286234952057 1 rotate no_reflect no_shear #
lump $-1 $-1 $34 $4 #
transform $-1 1 0 0 0 1 0 0 0 1 65.677053132724993 35.779933331469884 15.231286234952057 1 rotate no_reflect no_shear #
lump $-1 $-1 $35 $5 #
transform $-1 1 0 0 0 1 0 0 0 1 65.677053132724993 35.779933331469884 15.231286234952057 1 rotate no_reflect no_shear #
lump $-1 $-1 $36 $6 #
transform $-1 1 0 0 0 1 0 0 0 1 65.677053132724993 35.779933331469884 15.231286234952057 1 rotate no_reflect no_shear #
lump $-1 $-1 $37 $7 #
transform $-1 1 0 0 0 1 0 0 0 1 65.677053132724993 35.779933331469884 15.231286234952057 1 rotate no_reflect no_shear #
lump $-1 $-1 $38 $8 #
transform $-1 1 0 0 0 1 0 0 0 1 65.677053132724993 35.779933331469884 15.231286234952057 1 rotate no_reflect no_shear #
lump $-1 $-1 $39 $9 #
transform $-1 1 0 0 0 1 0 0 0 1 65.677053132724993 35.779933331469884 15.231286234952057 1 rotate no_reflect no_shear #
shell $-1 $-1 $-1 $40 $-1 $10 #
shell $-1 $-1 $-1 $41 $-1 $12 #
shell $-1 $-1 $-1 $42 $-1 $14 #
shell $-1 $-1 $-1 $43 $-1 $16 #
shell $-1 $-1 $-1 $44 $-1 $18 #
shell $-1 $-1 $-1 $45 $-1 $20 #
shell $-1 $-1 $-1 $46 $-1 $22 #
shell $-1 $-1 $-1 $47 $-1 $24 #
shell $-1 $-1 $-1 $48 $-1 $26 #
shell $-1 $-1 $-1 $49 $-1 $28 #
face $-1 $50 $51 $30 $-1 $52 forward single #
face $-1 $53 $54 $31 $-1 $55 forward single #
face $-1 $56 $57 $32 $-1 $58 reversed single #
face $-1 $59 $60 $33 $-1 $61 reversed single #
face $-1 $62 $63 $34 $-1 $64 forward single #
face $-1 $65 $66 $35 $-1 $67 forward single #
face $-1 $68 $69 $36 $-1 $70 reversed single #
face $-1 $71 $72 $37 $-1 $73 forward single #
face $-1 $74 $75 $38 $-1 $76 forward single #
face $-1 $77 $78 $39 $-1 $79 forward single #
face $-1 $80 $81 $30 $-1 $82 reversed single #
loop $-1 $-1 $83 $40 #
plane-surface $-1 0 0 15.231286234952057 0 0 1 1 0 0 forward_v I I I I #
face $-1 $84 $85 $31 $-1 $86 reversed single #
loop $-1 $-1 $87 $41 #
plane-surface $-1 -59.002029213245038 0 -11.157183285800143 0 0 1 1 0 0 forward_v I I I I #
face $-1 $88 $89 $32 $-1 $90 reversed single #
loop $-1 $-1 $91 $42 #
plane-surface $-1 57.535410720905659 0 11.499860498007751 0 0 1 1 0 0 forward_v I I I I #
face $-1 $92 $93 $33 $-1 $94 reversed single #
loop $-1 $-1 $95 $43 #
plane-surface $-1 -30.15965619052459 -118.44375187892797 106.31319481784925 -1 0 0 0 -0.62932039886446345 0.77714595512881146 forward_v I I I I #
face $-1 $96 $97 $34 $-1 $98 forward single #
loop $-1 $99 $100 $44 #
cone-surface $-1 -45.99347697855351 -27.738330693332035 8.1879177958814964 0 0.62932039886446345 -0.77714595512881146 2 0 0 1 I I 0 1 2 forward I I I I #
face $-1 $101 $102 $35 $-1 $103 forward single #
loop $-1 $104 $105 $45 #
cone-surface $-1 -36.493184505736153 -27.738330693332035 8.1879177958814964 0 0.62932039886446345 -0.77714595512881146 2 0 0 1 I I 0 1 2 forward I I I I #
face $-1 $106 $107 $36 $-1 $108 reversed single #
loop $-1 $-1 $109 $46 #
plane-surface $-1 -1.4759771636768875 115.97191348912943 127.71997124699817 1 0 0 0 -0.87461971476443456 -0.48480960649040278 forward_v I I I I #
face $-1 $110 $111 $37 $-1 $112 forward single #
loop $-1 $113 $114 $47 #
cone-surface $-1 3.7050240844307467 29.771553574267646 7.1275495518716268 0 -0.87461971476443456 -0.48480960649040278 2 0 0 1 I I 0 1 2 forward I I I I #
face $-1 $115 $116 $38 $-1 $117 forward single #
loop $-1 $118 $119 $48 #
cone-surface $-1 11.476525956592198 29.771553574267646 7.1275495518716268 0 -0.87461971476443456 -0.48480960649040278 2 0 0 1 I I 0 1 2 forward I I I I #
face $-1 $120 $121 $39 $-1 $122 forward single #
loop $-1 $123 $124 $49 #
cone-surface $-1 19.248027828753649 29.771553574267646 7.1275495518716268 0 -0.87461971476443456 -0.48480960649040278 2 0 0 1 I I 0 1 2 forward I I I I #
face $-1 $125 $126 $30 $-1 $127 reversed single #
loop $-1 $-1 $128 $50 #
plane-surface $-1 0 0 -15.231286234952057 0 0 1 1 0 0 forward_v I I I I #
coedge $-1 $129 $130 $131 $132 forward $51 $-1 #
face $-1 $133 $134 $31 $-1 $135 reversed single #
loop $-1 $-1 $136 $53 #
plane-surface $-1 -52.327005293765083 0 -13.1942347603761 -1 0 0 0 0 1 forward_v I I I I #
coedge $-1 $137 $138 $139 $140 forward $54 $-1 #
face $-1 $141 $142 $32 $-1 $143 reversed single #
loop $-1 $-1 $144 $56 #
plane-surface $-1 49.393768309086326 0 13.365573366479905 1 0 0 0 0 -1 forward_v I I I I #
coedge $-1 $145 $146 $147 $148 reversed $57 $-1 #
face $-1 $149 $150 $33 $-1 $151 reversed single #
loop $-1 $-1 $152 $59 #
plane-surface $-1 -41.243330742144835 -35.779933331469863 4.2318824440947225 0 -0.62932039886446345 0.77714595512881146 1 0 0 forward_v I I I I #
coedge $-1 $153 $154 $155 $156 reversed $60 $-1 #
face $-1 $-1 $157 $34 $-1 $158 forward single #
loop $-1 $159 $160 $62 #
cone-surface $-1 -45.99347697855351 -25.858973749147815 5.8671052971107951 0 0.62932039886446345 -0.77714595512881146 1 0 0 1 I I -0.70710678118654746 0.70710678118654746 1 forward I I I I #
loop $-1 $-1 $161 $44 #
coedge $-1 $100 $100 $162 $163 reversed $63 $-1 #
face $-1 $-1 $164 $35 $-1 $165 forward single #
loop $-1 $166 $167 $65 #
cone-surface $-1 -36.493184505736153 -25.858973749147815 5.8671052971107951 0 0.62932039886446345 -0.77714595512881146 1 0 0 1 I I -0.70710678118654746 0.70710678118654746 1 forward I I I I #
loop $-1 $-1 $168 $45 #
coedge $-1 $105 $105 $169 $170 reversed $66 $-1 #
face $-1 $171 $172 $36 $-1 $173 reversed single #
loop $-1 $-1 $174 $68 #
plane-surface $-1 11.476525956592198 1.0870225341043351 64.038238677546815 0 0.87461971476443456 0.48480960649040278 1 0 0 forward_v I I I I #
coedge $-1 $175 $176 $177 $178 reversed $69 $-1 #
face $-1 $-1 $179 $37 $-1 $180 forward single #
loop $-1 $181 $182 $71 #
cone-surface $-1 3.7050240844307467 26.707942246352282 5.4293621256640865 0 -0.87461971476443456 -0.48480960649040278 1 0 0 1 I I -0.70710678118654746 0.70710678118654746 1 forward I I I I #
loop $-1 $-1 $183 $47 #
coedge $-1 $114 $114 $184 $185 reversed $72 $-1 #
face $-1 $-1 $186 $38 $-1 $187 forward single #
loop $-1 $188 $189 $74 #
cone-surface $-1 11.476525956592198 26.707942246352282 5.4293621256640865 0 -0.87461971476443456 -0.48480960649040278 1 0 0 1 I I -0.70710678118654746 0.70710678118654746 1 forward I I I I #
loop $-1 $-1 $190 $48 #
coedge $-1 $119 $119 $191 $192 reversed $75 $-1 #
face $-1 $-1 $193 $39 $-1 $194 forward single #
loop $-1 $195 $196 $77 #
cone-surface $-1 19.248027828753649 26.707942246352282 5.4293621256640865 0 -0.87461971476443456 -0.48480960649040278 1 0 0 1 I I -0.70710678118654746 0.70710678118654746 1 forward I I I I #
loop $-1 $-1 $197 $49 #
coedge $-1 $124 $124 $198 $199 reversed $78 $-1 #
face $-1 $200 $201 $30 $-1 $202 reversed single #
loop $-1 $-1 $203 $80 #
plane-surface $-1 0 -35.779933331469884 0 0 1 0 0 0 1 forward_v I I I I #
coedge $-1 $204 $205 $206 $207 forward $81 $-1 #
coedge $-1 $208 $83 $209 $210 forward $51 $-1 #
coedge $-1 $83 $208 $211 $212 forward $51 $-1 #
coedge $-1 $213 $214 $83 $132 reversed $215 $-1 #
edge $-1 $216 -35.779933331469884 $217 35.779933331469884 $131 $218 forward 7 unknown #
face $-1 $219 $220 $31 $-1 $221 reversed single #
loop $-1 $-1 $222 $84 #
plane-surface $-1 0 0 -15.231286234952057 0 0 1 1 0 0 forward_v I I I I #
coedge $-1 $223 $139 $224 $225 reversed $85 $-1 #
coedge $-1 $226 $87 $227 $228 reversed $54 $-1 #
coedge $-1 $87 $226 $229 $230 reversed $54 $-1 #
coedge $-1 $136 $231 $87 $140 reversed $85 $-1 #
edge $-1 $232 -35.779933331469884 $233 35.779933331469884 $139 $234 forward 7 unknown #
face $-1 $235 $236 $32 $-1 $237 reversed single #
loop $-1 $-1 $147 $88 #
plane-surface $-1 65.677053132724993 0 0 -1 0 0 0 0 1 forward_v I I I I #
coedge $-1 $238 $239 $240 $241 reversed $89 $-1 #
coedge $-1 $242 $91 $243 $244 reversed $57 $-1 #
coedge $-1 $91 $242 $245 $246 reversed $57 $-1 #
coedge $-1 $247 $248 $91 $148 forward $142 $-1 #
edge $-1 $249 -35.779933331469884 $250 35.779933331469884 $147 $251 forward 7 unknown #
face $-1 $252 $253 $33 $-1 $254 forward single #
loop $-1 $-1 $255 $92 #
plane-surface $-1 -52.327005293765083 -118.44375187892797 106.31319481784925 1 0 0 0 0.62932039886446345 -0.77714595512881146 forward_v I I I I #
coedge $-1 $256 $257 $258 $259 reversed $93 $-1 #
coedge $-1 $154 $95 $260 $261 reversed $60 $-1 #
coedge $-1 $95 $153 $256 $262 reversed $60 $-1 #
coedge $-1 $258 $263 $95 $156 forward $253 $-1 #
edge $-1 $264 23.4419426079941 $265 37.025074793630303 $155 $266 forward 7 unknown #
loop $-1 $-1 $162 $96 #
plane-surface $-1 -41.243330742144835 -35.779933331469863 4.2318824440947225 0 -0.62932039886446345 0.77714595512881146 1 0 0 forward_v I I I I #
loop $-1 $-1 $267 $62 #
coedge $-1 $160 $160 $161 $268 reversed $97 $-1 #
coedge $-1 $161 $161 $160 $268 forward $99 $-1 #
coedge $-1 $162 $162 $100 $163 forward $157 $-1 #
edge $-1 $269 1.4142554541371539e-015 $269 6.2831853071796022 $162 $270 forward 7 unknown #
loop $-1 $-1 $169 $101 #
plane-surface $-1 -41.243330742144835 -35.779933331469863 4.2318824440947225 0 -0.62932039886446345 0.77714595512881146 1 0 0 forward_v I I I I #
loop $-1 $-1 $271 $65 #
coedge $-1 $167 $167 $168 $272 reversed $102 $-1 #
coedge $-1 $168 $168 $167 $272 forward $104 $-1 #
coedge $-1 $169 $169 $105 $170 forward $164 $-1 #
edge $-1 $273 1.4142554541371539e-015 $273 6.2831853071796022 $169 $274 forward 7 unknown #
face $-1 $275 $276 $36 $-1 $277 reversed single #
loop $-1 $-1 $278 $106 #
plane-surface $-1 24.429029076861283 115.97191348912943 127.71997124699817 -1 0 0 0 0.87461971476443456 0.48480960649040278 forward_v I I I I #
coedge $-1 $279 $280 $281 $282 reversed $107 $-1 #
coedge $-1 $176 $109 $283 $284 reversed $69 $-1 #
coedge $-1 $109 $175 $279 $285 reversed $69 $-1 #
coedge $-1 $281 $286 $109 $178 forward $287 $-1 #
edge $-1 $288 22.206023413094833 $289 29.844799701197481 $177 $290 forward 7 unknown #
loop $-1 $-1 $184 $110 #
plane-surface $-1 11.476525956592198 1.0870225341043351 64.038238677546815 0 0.87461971476443456 0.48480960649040278 1 0 0 forward_v I I I I #
loop $-1 $-1 $291 $71 #
coedge $-1 $182 $182 $183 $292 reversed $111 $-1 #
coedge $-1 $183 $183 $182 $292 forward $113 $-1 #
coedge $-1 $184 $184 $114 $185 forward $179 $-1 #
edge $-1 $293 -2.7055933090932172e-016 $293 6.2831853071796004 $184 $294 forward 7 unknown #
loop $-1 $-1 $191 $115 #
plane-surface $-1 11.476525956592198 1.0870225341043351 64.038238677546815 0 0.87461971476443456 0.48480960649040278 1 0 0 forward_v I I I I #
loop $-1 $-1 $295 $74 #
coedge $-1 $189 $189 $190 $296 reversed $116 $-1 #
coedge $-1 $190 $190 $189 $296 forward $118 $-1 #
coedge $-1 $191 $191 $119 $192 forward $186 $-1 #
edge $-1 $297 -2.7055933090932172e-016 $297 6.2831853071796004 $191 $298 forward 7 unknown #
loop $-1 $-1 $198 $120 #
plane-surface $-1 11.476525956592198 1.0870225341043351 64.038238677546815 0 0.87461971476443456 0.48480960649040278 1 0 0 forward_v I I I I #
loop $-1 $-1 $299 $77 #
coedge $-1 $196 $196 $197 $300 reversed $121 $-1 #
coedge $-1 $197 $197 $196 $300 forward $123 $-1 #
coedge $-1 $198 $198 $124 $199 forward $193 $-1 #
edge $-1 $301 -2.7055933090932172e-016 $301 6.2831853071796004 $198 $302 forward 7 unknown #
face $-1 $303 $304 $30 $-1 $305 reversed single #
loop $-1 $-1 $306 $125 #
plane-surface $-1 -65.677053132724993 0 0 1 0 0 0 0 -1 forward_v I I I I #
coedge $-1 $307 $211 $308 $309 forward $126 $-1 #
coedge $-1 $310 $128 $307 $311 forward $81 $-1 #
coedge $-1 $128 $310 $312 $313 forward $81 $-1 #
coedge $-1 $214 $213 $128 $207 reversed $215 $-1 #
edge $-1 $314 -35.779933331469884 $315 35.779933331469884 $206 $316 forward 7 unknown #
coedge $-1 $130 $129 $317 $318 forward $51 $-1 #
coedge $-1 $319 $320 $129 $210 reversed $304 $-1 #
edge $-1 $217 -65.677053132724993 $321 65.677053132724993 $209 $322 forward 7 unknown #
coedge $-1 $203 $323 $130 $212 reversed $126 $-1 #
edge $-1 $324 -65.677053132724993 $216 65.677053132724993 $211 $325 forward 7 unknown #
coedge $-1 $206 $131 $323 $326 forward $215 $-1 #
coedge $-1 $131 $206 $319 $327 reversed $215 $-1 #
loop $-1 $-1 $213 $303 #
vertex $-1 $132 $328 #
vertex $-1 $132 $329 #
straight-curve $-1 65.677053132724993 0 15.231286234952057 0 1 0 I I #
face $-1 $330 $331 $31 $-1 $332 reversed single #
loop $-1 $-1 $224 $133 #
plane-surface $-1 0 -35.779933331469884 0 0 1 0 0 0 1 forward_v I I I I #
coedge $-1 $333 $334 $223 $335 forward $134 $-1 #
coedge $-1 $231 $136 $222 $335 reversed $85 $-1 #
coedge $-1 $229 $336 $136 $225 forward $220 $-1 #
edge $-1 $337 -8.6341688547640061 $232 -4.5600659056120927 $224 $338 forward 7 unknown #
coedge $-1 $138 $137 $339 $340 reversed $54 $-1 #
coedge $-1 $341 $342 $137 $228 forward $343 $-1 #
edge $-1 $344 -36.176038526102474 $233 -22.825990687142564 $227 $345 forward 7 unknown #
coedge $-1 $346 $224 $138 $230 forward $220 $-1 #
edge $-1 $232 22.825990687142564 $347 36.176038526102474 $229 $348 forward 7 unknown #
coedge $-1 $139 $223 $341 $349 reversed $85 $-1 #
vertex $-1 $230 $350 #
vertex $-1 $228 $351 #
straight-curve $-1 -52.327005293765083 0 -11.157183285800143 0 1 0 I I #
face $-1 $352 $353 $32 $-1 $354 reversed single #
loop $-1 $-1 $245 $141 #
plane-surface $-1 0 35.779933331469884 0 0 -1 0 0 0 -1 forward_v I I I I #
coedge $-1 $355 $144 $242 $356 reversed $89 $-1 #
coedge $-1 $144 $355 $357 $358 reversed $89 $-1 #
coedge $-1 $359 $245 $144 $241 forward $236 $-1 #
edge $-1 $360 4.8170738147677978 $361 8.5484995517121085 $240 $362 forward 7 unknown #
coedge $-1 $146 $145 $238 $356 forward $57 $-1 #
coedge $-1 $363 $364 $145 $244 forward $353 $-1 #
edge $-1 $365 20.626062948633496 $249 36.909347772272163 $243 $366 forward 7 unknown #
coedge $-1 $240 $367 $146 $246 forward $236 $-1 #
edge $-1 $250 -36.909347772272163 $360 -20.626062948633496 $245 $368 forward 7 unknown #
coedge $-1 $369 $147 $367 $370 reversed $142 $-1 #
coedge $-1 $147 $369 $363 $371 forward $142 $-1 #
vertex $-1 $148 $372 #
vertex $-1 $148 $373 #
straight-curve $-1 65.677053132724993 0 11.499860498007751 0 1 0 I I #
face $-1 $-1 $374 $33 $-1 $375 reversed single #
loop $-1 $-1 $155 $149 #
plane-surface $-1 0 0 15.231286234952057 0 0 1 1 0 0 forward_v I I I I #
coedge $-1 $376 $377 $378 $379 reversed $150 $-1 #
coedge $-1 $380 $152 $154 $262 forward $93 $-1 #
coedge $-1 $152 $380 $376 $381 forward $93 $-1 #
coedge $-1 $378 $155 $152 $259 forward $253 $-1 #
edge $-1 $265 9.5379908194521725 $382 31.705339922692666 $258 $383 forward 7 unknown #
coedge $-1 $384 $385 $153 $261 forward $374 $-1 #
edge $-1 $386 -48.924714964829917 $264 -37.925311173972567 $260 $387 forward 7 unknown #
edge $-1 $265 -17.478225416980759 $386 2.7185889540884995e-014 $154 $388 forward 7 unknown #
coedge $-1 $155 $378 $384 $389 forward $253 $-1 #
vertex $-1 $261 $390 #
vertex $-1 $156 $391 #
straight-curve $-1 -30.15965619052459 -59.221875939463985 15.231286234952059 0 1 0 I I #
coedge $-1 $267 $267 $-1 $392 reversed $159 $-1 #
edge $-1 $393 0 $393 6.2831853071796004 $160 $394 forward 7 unknown #
vertex $-1 $163 $395 #
ellipse-curve $-1 -45.99347697855351 -28.988367238651787 9.7315843395233781 0 -0.62932039886446345 0.77714595512881146 2 0 0 1 I I #
coedge $-1 $271 $271 $-1 $396 reversed $166 $-1 #
edge $-1 $397 0 $397 6.2831853071796004 $167 $398 forward 7 unknown #
vertex $-1 $170 $399 #
ellipse-curve $-1 -36.493184505736153 -28.988367238651787 9.7315843395233781 0 -0.62932039886446345 0.77714595512881146 2 0 0 1 I I #
face $-1 $-1 $287 $36 $-1 $400 forward single #
loop $-1 $-1 $401 $171 #
plane-surface $-1 0 35.779933331469884 0 0 -1 0 0 0 -1 forward_v I I I I #
coedge $-1 $402 $403 $404 $405 reversed $172 $-1 #
coedge $-1 $406 $174 $176 $285 forward $107 $-1 #
coedge $-1 $174 $406 $402 $407 forward $107 $-1 #
coedge $-1 $404 $177 $174 $282 forward $287 $-1 #
edge $-1 $289 -7.2142401419729865 $408 18.690766098565184 $281 $409 forward 7 unknown #
coedge $-1 $410 $411 $175 $284 forward $276 $-1 #
edge $-1 $412 -62.409417115273669 $288 -48.628699388547027 $283 $413 forward 7 unknown #
edge $-1 $289 55.803627129237718 $412 71.559866662939839 $176 $414 forward 7 unknown #
coedge $-1 $177 $404 $410 $415 forward $287 $-1 #
loop $-1 $-1 $404 $275 #
vertex $-1 $284 $416 #
vertex $-1 $178 $417 #
straight-curve $-1 -1.4759771636768875 57.985956744564717 15.231286234952059 0 -1 0 I I #
coedge $-1 $291 $291 $-1 $418 reversed $181 $-1 #
edge $-1 $419 0 $419 6.2831853071796004 $182 $420 forward 7 unknown #
vertex $-1 $185 $421 #
ellipse-curve $-1 3.7050240844307467 31.960545187418553 8.3409273715887515 0 0.87461971476443456 0.48480960649040278 2 0 0 1 I I #
coedge $-1 $295 $295 $-1 $422 reversed $188 $-1 #
edge $-1 $423 0 $423 6.2831853071796004 $189 $424 forward 7 unknown #
vertex $-1 $192 $425 #
ellipse-curve $-1 11.476525956592198 31.960545187418553 8.3409273715887515 0 0.87461971476443456 0.48480960649040278 2 0 0 1 I I #
coedge $-1 $299 $299 $-1 $426 reversed $195 $-1 #
edge $-1 $427 0 $427 6.2831853071796004 $196 $428 forward 7 unknown #
vertex $-1 $199 $429 #
ellipse-curve $-1 19.248027828753649 31.960545187418553 8.3409273715887515 0 0.87461971476443456 0.48480960649040278 2 0 0 1 I I #
face $-1 $-1 $215 $30 $-1 $430 reversed single #
loop $-1 $-1 $319 $200 #
plane-surface $-1 0 35.779933331469884 0 0 -1 0 0 0 -1 forward_v I I I I #
coedge $-1 $431 $317 $320 $432 forward $201 $-1 #
coedge $-1 $323 $203 $204 $311 reversed $126 $-1 #
coedge $-1 $317 $431 $203 $309 reversed $201 $-1 #
edge $-1 $324 -15.231286234952057 $433 15.231286234952057 $308 $434 forward 7 unknown #
coedge $-1 $205 $204 $431 $435 forward $81 $-1 #
edge $-1 $315 -65.677053132724993 $433 65.677053132724993 $307 $436 forward 7 unknown #
coedge $-1 $320 $319 $205 $313 reversed $304 $-1 #
edge $-1 $437 -65.677053132724993 $314 65.677053132724993 $312 $438 forward 7 unknown #
vertex $-1 $207 $439 #
vertex $-1 $326 $440 #
straight-curve $-1 65.677053132724993 0 -15.231286234952057 0 -1 0 I I #
coedge $-1 $306 $308 $208 $318 reversed $201 $-1 #
edge $-1 $321 -35.779933331469884 $324 35.779933331469884 $317 $441 forward 7 unknown #
coedge $-1 $312 $209 $214 $327 forward $304 $-1 #
coedge $-1 $209 $312 $306 $432 reversed $304 $-1 #
vertex $-1 $210 $442 #
straight-curve $-1 0 35.779933331469884 15.231286234952057 -1 0 0 I I #
coedge $-1 $211 $307 $213 $326 reversed $126 $-1 #
vertex $-1 $318 $443 #
straight-curve $-1 0 -35.779933331469884 15.231286234952057 1 0 0 I I #
edge $-1 $216 -15.231286234952057 $315 15.231286234952057 $213 $444 forward 7 unknown #
edge $-1 $217 -15.231286234952057 $314 15.231286234952057 $214 $445 forward 7 unknown #
point $-1 65.677053132724993 -35.779933331469884 15.231286234952057 #
point $-1 65.677053132724993 35.779933331469884 15.231286234952057 #
face $-1 $-1 $343 $31 $-1 $446 reversed single #
loop $-1 $-1 $339 $219 #
plane-surface $-1 -65.677053132724993 0 0 1 0 0 0 0 -1 forward_v I I I I #
coedge $-1 $447 $222 $336 $448 forward $134 $-1 #
coedge $-1 $222 $447 $449 $450 forward $134 $-1 #
edge $-1 $451 -35.779933331469884 $337 35.779933331469884 $222 $452 forward 7 unknown #
coedge $-1 $224 $346 $333 $448 reversed $220 $-1 #
vertex $-1 $448 $453 #
straight-curve $-1 -52.327005293765083 -35.779933331469884 -6.5971173801880498 0 0 1 I I #
coedge $-1 $454 $455 $226 $340 forward $331 $-1 #
edge $-1 $347 -35.779933331469884 $344 35.779933331469884 $339 $456 forward 7 unknown #
coedge $-1 $449 $227 $231 $349 forward $343 $-1 #
coedge $-1 $227 $449 $454 $457 reversed $343 $-1 #
loop $-1 $-1 $341 $330 #
vertex $-1 $457 $458 #
straight-curve $-1 -29.501014606622519 35.779933331469884 -11.157183285800143 1 0 0 I I #
coedge $-1 $336 $229 $455 $459 forward $220 $-1 #
vertex $-1 $459 $460 #
straight-curve $-1 -29.501014606622519 -35.779933331469884 -11.157183285800143 -1 0 0 I I #
edge $-1 $233 4.5600659056120927 $451 8.6341688547640061 $341 $461 forward 7 unknown #
point $-1 -52.327005293765083 -35.779933331469884 -11.157183285800143 #
point $-1 -52.327005293765083 35.779933331469884 -11.157183285800143 #
face $-1 $-1 $462 $32 $-1 $463 forward single #
loop $-1 $-1 $243 $235 #
plane-surface $-1 0 -35.779933331469884 0 0 1 0 0 0 1 forward_v I I I I #
coedge $-1 $239 $238 $364 $464 reversed $89 $-1 #
edge $-1 $365 -35.779933331469884 $360 35.779933331469884 $238 $465 forward 7 unknown #
coedge $-1 $466 $467 $239 $358 forward $462 $-1 #
edge $-1 $361 -35.779933331469884 $468 35.779933331469884 $357 $469 forward 7 unknown #
coedge $-1 $367 $240 $467 $470 reversed $236 $-1 #
vertex $-1 $246 $471 #
vertex $-1 $241 $472 #
straight-curve $-1 49.393768309086326 35.779933331469884 6.6827866832399527 0 0 1 I I #
coedge $-1 $473 $243 $248 $371 reversed $353 $-1 #
coedge $-1 $243 $473 $355 $464 forward $353 $-1 #
vertex $-1 $244 $474 #
straight-curve $-1 28.76770536045283 -35.779933331469884 11.499860498007751 1 0 0 I I #
coedge $-1 $245 $359 $247 $370 forward $236 $-1 #
straight-curve $-1 28.76770536045283 35.779933331469884 11.499860498007751 -1 0 0 I I #
coedge $-1 $248 $247 $475 $476 reversed $142 $-1 #
edge $-1 $477 -15.231286234952057 $250 -11.499860498007751 $247 $478 forward 7 unknown #
edge $-1 $479 -15.231286234952057 $249 -11.499860498007751 $248 $480 forward 7 unknown #
point $-1 65.677053132724993 -35.779933331469884 11.499860498007751 #
point $-1 65.677053132724993 35.779933331469884 11.499860498007751 #
loop $-1 $-1 $260 $252 #
plane-surface $-1 0 -35.779933331469884 0 0 1 0 0 0 1 forward_v I I I I #
coedge $-1 $377 $255 $257 $381 reversed $150 $-1 #
coedge $-1 $255 $376 $481 $482 reversed $150 $-1 #
coedge $-1 $263 $258 $255 $379 forward $253 $-1 #
edge $-1 $382 -37.025074793630303 $483 -23.4419426079941 $378 $484 forward 7 unknown #
coedge $-1 $257 $256 $385 $485 reversed $93 $-1 #
edge $-1 $486 -2.7185889540884995e-014 $382 17.478225416980759 $376 $487 forward 7 unknown #
vertex $-1 $259 $488 #
straight-curve $-1 -20.621665371072417 -22.196801145833685 15.231286234952057 -1 0 0 I I #
coedge $-1 $481 $260 $263 $389 reversed $374 $-1 #
coedge $-1 $260 $481 $380 $485 forward $374 $-1 #
vertex $-1 $261 $489 #
straight-curve $-1 -30.15965619052459 -35.779933331469884 53.156597408924625 0 0 1 I I #
straight-curve $-1 -30.15965619052459 -35.779933331469863 4.2318824440947225 0 -0.77714595512881146 -0.62932039886446345 I I #
edge $-1 $483 -52.327005293765083 $264 -30.15965619052459 $384 $490 forward 7 unknown #
point $-1 -30.15965619052459 -35.779933331469884 15.231286234952057 #
point $-1 -30.15965619052459 -22.196801145833682 15.231286234952057 #
edge $-1 $491 1 $491 0 $267 $-1 forward 7 unknown #
vertex $-1 $268 $492 #
ellipse-curve $-1 -45.99347697855351 -26.48829414801228 6.6442512522396067 0 -0.62932039886446345 0.77714595512881146 2 0 0 1 I I #
point $-1 -43.99347697855351 -28.98836723865179 9.731584339523387 #
edge $-1 $493 1 $493 0 $271 $-1 forward 7 unknown #
vertex $-1 $272 $494 #
ellipse-curve $-1 -36.493184505736153 -26.48829414801228 6.6442512522396067 0 -0.62932039886446345 0.77714595512881146 2 0 0 1 I I #
point $-1 -34.493184505736153 -28.98836723865179 9.731584339523387 #
plane-surface $-1 0 0 15.231286234952057 0 0 1 1 0 0 forward_v I I I I #
coedge $-1 $411 $410 $403 $495 forward $276 $-1 #
coedge $-1 $403 $278 $280 $407 reversed $172 $-1 #
coedge $-1 $278 $402 $401 $495 reversed $172 $-1 #
coedge $-1 $286 $281 $278 $405 forward $287 $-1 #
edge $-1 $408 -29.844799701197481 $496 -22.206023413094833 $404 $497 forward 7 unknown #
coedge $-1 $280 $279 $411 $498 reversed $107 $-1 #
edge $-1 $499 -71.559866662939839 $408 -55.803627129237718 $402 $500 forward 7 unknown #
vertex $-1 $282 $501 #
straight-curve $-1 5.738262978296099 28.141157043367237 15.231286234952062 1 0 0 I I #
coedge $-1 $401 $283 $286 $415 reversed $276 $-1 #
coedge $-1 $283 $401 $406 $498 forward $276 $-1 #
vertex $-1 $284 $502 #
straight-curve $-1 -1.4759771636768875 35.779933331469884 63.859985623499085 0 0 1 I I #
straight-curve $-1 -1.4759771636768875 1.0870225341043351 64.038238677546815 0 0.48480960649040278 -0.87461971476443456 I I #
edge $-1 $496 -24.429029076861283 $288 1.4759771636768875 $410 $503 forward 7 unknown #
point $-1 -1.4759771636768875 35.779933331469884 15.231286234952057 #
point $-1 -1.4759771636768875 28.141157043367237 15.231286234952059 #
edge $-1 $504 1 $504 0 $291 $-1 forward 7 unknown #
vertex $-1 $292 $505 #
ellipse-curve $-1 3.7050240844307467 27.582561961116717 5.9141717321544895 0 0.87461971476443456 0.48480960649040278 2 0 0 1 I I #
point $-1 5.7050240844307467 31.960545187418575 8.340927371588764 #
edge $-1 $506 1 $506 0 $295 $-1 forward 7 unknown #
vertex $-1 $296 $507 #
ellipse-curve $-1 11.476525956592198 27.582561961116717 5.9141717321544895 0 0.87461971476443456 0.48480960649040278 2 0 0 1 I I #
point $-1 13.476525956592198 31.960545187418575 8.340927371588764 #
edge $-1 $508 1 $508 0 $299 $-1 forward 7 unknown #
vertex $-1 $300 $509 #
ellipse-curve $-1 19.248027828753649 27.582561961116717 5.9141717321544895 0 0.87461971476443456 0.48480960649040278 2 0 0 1 I I #
point $-1 21.248027828753649 31.960545187418575 8.340927371588764 #
plane-surface $-1 65.677053132724993 0 0 -1 0 0 0 0 1 forward_v I I I I #
coedge $-1 $308 $306 $310 $435 reversed $201 $-1 #
edge $-1 $321 -15.231286234952057 $437 15.231286234952057 $320 $510 forward 7 unknown #
vertex $-1 $435 $511 #
straight-curve $-1 -65.677053132724993 -35.779933331469884 0 0 0 -1 I I #
edge $-1 $433 -35.779933331469884 $437 35.779933331469884 $431 $512 forward 7 unknown #
straight-curve $-1 0 -35.779933331469884 -15.231286234952057 -1 0 0 I I #
vertex $-1 $313 $513 #
straight-curve $-1 0 35.779933331469884 -15.231286234952057 1 0 0 I I #
point $-1 65.677053132724993 35.779933331469884 -15.231286234952057 #
point $-1 65.677053132724993 -35.779933331469884 -15.231286234952057 #
straight-curve $-1 -65.677053132724993 0 15.231286234952057 0 -1 0 I I #
point $-1 -65.677053132724993 35.779933331469884 15.231286234952057 #
point $-1 -65.677053132724993 -35.779933331469884 15.231286234952057 #
straight-curve $-1 65.677053132724993 -35.779933331469884 0 0 0 -1 I I #
straight-curve $-1 65.677053132724993 35.779933331469884 0 0 0 -1 I I #
plane-surface $-1 0 35.779933331469884 0 0 -1 0 0 0 -1 forward_v I I I I #
coedge $-1 $334 $333 $514 $515 forward $134 $-1 #
edge $-1 $337 52.327005293765083 $516 65.677053132724993 $336 $517 forward 7 unknown #
coedge $-1 $342 $341 $334 $450 reversed $343 $-1 #
edge $-1 $518 -65.677053132724993 $451 -52.327005293765083 $449 $519 forward 7 unknown #
vertex $-1 $349 $520 #
straight-curve $-1 -52.327005293765083 0 -15.231286234952057 0 -1 0 I I #
point $-1 -52.327005293765083 -35.779933331469884 -15.231286234952057 #
coedge $-1 $514 $339 $342 $457 forward $331 $-1 #
coedge $-1 $339 $514 $346 $459 reversed $331 $-1 #
straight-curve $-1 -65.677053132724993 0 -11.157183285800143 0 1 0 I I #
edge $-1 $344 11.157183285800143 $518 15.231286234952057 $342 $521 forward 7 unknown #
point $-1 -65.677053132724993 35.779933331469884 -11.157183285800143 #
edge $-1 $347 11.157183285800143 $516 15.231286234952057 $455 $522 forward 7 unknown #
point $-1 -65.677053132724993 -35.779933331469884 -11.157183285800143 #
straight-curve $-1 -52.327005293765083 35.779933331469884 -6.5971173801880498 0 0 -1 I I #
loop $-1 $-1 $357 $352 #
plane-surface $-1 0 0 15.231286234952057 0 0 1 1 0 0 forward_v I I I I #
edge $-1 $468 -8.5484995517121085 $365 -4.8170738147677978 $364 $523 forward 7 unknown #
straight-curve $-1 49.393768309086326 0 11.499860498007751 0 1 0 I I #
coedge $-1 $475 $357 $473 $524 forward $462 $-1 #
coedge $-1 $357 $475 $359 $470 forward $462 $-1 #
vertex $-1 $524 $525 #
straight-curve $-1 49.393768309086326 0 15.231286234952057 0 -1 0 I I #
edge $-1 $477 -65.677053132724993 $361 -49.393768309086326 $359 $526 forward 7 unknown #
point $-1 49.393768309086326 35.779933331469884 11.499860498007751 #
point $-1 49.393768309086326 35.779933331469884 15.23128623495206 #
coedge $-1 $364 $363 $466 $524 reversed $353 $-1 #
point $-1 49.393768309086326 -35.779933331469884 11.499860498007751 #
coedge $-1 $467 $466 $369 $476 forward $462 $-1 #
edge $-1 $479 -35.779933331469884 $477 35.779933331469884 $369 $527 forward 7 unknown #
vertex $-1 $476 $528 #
straight-curve $-1 65.677053132724993 35.779933331469884 0 0 0 -1 I I #
vertex $-1 $476 $529 #
straight-curve $-1 65.677053132724993 -35.779933331469884 0 0 0 -1 I I #
coedge $-1 $385 $384 $377 $482 forward $374 $-1 #
edge $-1 $483 37.925311173972567 $486 48.924714964829917 $481 $530 forward 7 unknown #
vertex $-1 $389 $531 #
straight-curve $-1 -52.327005293765083 -59.221875939463985 15.231286234952059 0 -1 0 I I #
edge $-1 $486 -31.705339922692666 $386 -9.5379908194521725 $385 $532 forward 7 unknown #
vertex $-1 $485 $533 #
straight-curve $-1 -52.327005293765083 -35.779933331469863 4.2318824440947225 0 0.77714595512881146 0.62932039886446345 I I #
point $-1 -52.327005293765083 -22.196801145833682 15.231286234952057 #
point $-1 -30.15965619052459 -35.779933331469884 4.2318824440947056 #
straight-curve $-1 0 -35.779933331469884 15.231286234952057 1 0 0 I I #
vertex $-1 $392 $534 #
point $-1 -43.99347697855351 -26.48829414801228 6.6442512522396067 #
vertex $-1 $396 $535 #
point $-1 -34.493184505736153 -26.48829414801228 6.6442512522396067 #
edge $-1 $496 48.628699388547027 $499 62.409417115273669 $401 $536 forward 7 unknown #
vertex $-1 $415 $537 #
straight-curve $-1 24.429029076861283 57.985956744564717 15.231286234952059 0 1 0 I I #
edge $-1 $499 -18.690766098565184 $412 7.2142401419729865 $411 $538 forward 7 unknown #
vertex $-1 $498 $539 #
straight-curve $-1 24.429029076861283 1.0870225341043351 64.038238677546815 0 -0.48480960649040278 0.87461971476443456 I I #
point $-1 24.429029076861283 28.141157043367237 15.231286234952059 #
point $-1 -1.4759771636768875 35.779933331469884 1.4505685082254161 #
straight-curve $-1 0 35.779933331469884 15.231286234952057 -1 0 0 I I #
vertex $-1 $418 $540 #
point $-1 5.7050240844307467 27.582561961116717 5.9141717321544895 #
vertex $-1 $422 $541 #
point $-1 13.476525956592198 27.582561961116717 5.9141717321544895 #
vertex $-1 $426 $542 #
point $-1 21.248027828753649 27.582561961116717 5.9141717321544895 #
straight-curve $-1 -65.677053132724993 35.779933331469884 0 0 0 -1 I I #
point $-1 -65.677053132724993 -35.779933331469884 -15.231286234952057 #
straight-curve $-1 -65.677053132724993 0 -15.231286234952057 0 1 0 I I #
point $-1 -65.677053132724993 35.779933331469884 -15.231286234952057 #
coedge $-1 $455 $454 $447 $515 reversed $331 $-1 #
edge $-1 $516 -35.779933331469884 $518 35.779933331469884 $514 $543 forward 7 unknown #
vertex $-1 $515 $544 #
straight-curve $-1 0 -35.779933331469884 -15.231286234952057 -1 0 0 I I #
vertex $-1 $450 $545 #
straight-curve $-1 0 35.779933331469884 -15.231286234952057 1 0 0 I I #
point $-1 -52.327005293765083 35.779933331469884 -15.231286234952057 #
straight-curve $-1 -65.677053132724993 35.779933331469884 0 0 0 -1 I I #
straight-curve $-1 -65.677053132724993 -35.779933331469884 0 0 0 -1 I I #
straight-curve $-1 49.393768309086326 -35.779933331469884 6.6827866832399527 0 0 -1 I I #
edge $-1 $468 49.393768309086326 $479 65.677053132724993 $473 $546 forward 7 unknown #
point $-1 49.393768309086326 -35.779933331469884 15.23128623495206 #
straight-curve $-1 0 35.779933331469884 15.231286234952057 -1 0 0 I I #
straight-curve $-1 65.677053132724993 0 15.231286234952057 0 1 0 I I #
point $-1 65.677053132724993 35.779933331469884 15.231286234952057 #
point $-1 65.677053132724993 -35.779933331469884 15.231286234952057 #
straight-curve $-1 -52.327005293765083 -35.779933331469884 53.156597408924625 0 0 -1 I I #
point $-1 -52.327005293765083 -35.779933331469884 15.231286234952057 #
straight-curve $-1 -20.621665371072417 -35.779933331469884 4.2318824440947065 1 0 0 I I #
point $-1 -52.327005293765083 -35.779933331469884 4.2318824440947056 #
point $-1 -45.99347697855351 -25.22965335028335 5.0899593419819835 #
point $-1 -36.493184505736153 -25.22965335028335 5.0899593419819835 #
straight-curve $-1 24.429029076861283 35.779933331469884 63.859985623499085 0 0 -1 I I #
point $-1 24.429029076861283 35.779933331469884 15.231286234952057 #
straight-curve $-1 5.738262978296099 35.779933331469877 1.4505685082254196 -1 0 0 I I #
point $-1 24.429029076861283 35.779933331469884 1.4505685082254161 #
point $-1 3.7050240844307467 25.833322531587847 4.9445525191736834 #
point $-1 11.476525956592198 25.833322531587847 4.9445525191736834 #
point $-1 19.248027828753649 25.833322531587847 4.9445525191736834 #
straight-curve $-1 -65.677053132724993 0 -15.231286234952057 0 1 0 I I #
point $-1 -65.677053132724993 -35.779933331469884 -15.231286234952057 #
point $-1 -65.677053132724993 35.779933331469884 -15.231286234952057 #
straight-curve $-1 0 -35.779933331469884 15.231286234952057 1 0 0 I I #
End-of-ACIS-data 