500 0 12 0           
7 Unknown 11 ACIS 5.0 NT 24 Fri Mar 26 15:47:05 1999 
-1 9.9999999999999995e-007 1e-010 
body $-1 $12 $-1 $13 #
body $-1 $14 $-1 $15 #
body $-1 $16 $-1 $17 #
body $-1 $18 $-1 $19 #
body $-1 $20 $-1 $21 #
body $-1 $22 $-1 $23 #
body $-1 $24 $-1 $25 #
body $-1 $26 $-1 $27 #
body $-1 $28 $-1 $29 #
body $-1 $30 $-1 $31 #
body $-1 $32 $-1 $33 #
body $-1 $34 $-1 $35 #
lump $-1 $-1 $36 $0 #
transform $-1 1 0 0 0 1 0 0 0 1 46.915494247260966 24.326987412870029 10.528009207646253 1 rotate no_reflect no_shear #
lump $-1 $-1 $37 $1 #
transform $-1 1 0 0 0 1 0 0 0 1 46.915494247260966 24.326987412870029 10.528009207646253 1 rotate no_reflect no_shear #
lump $-1 $-1 $38 $2 #
transform $-1 1 0 0 0 1 0 0 0 1 46.915494247260966 24.326987412870029 10.528009207646253 1 rotate no_reflect no_shear #
lump $-1 $-1 $39 $3 #
transform $-1 1 0 0 0 1 0 0 0 1 46.915494247260966 24.326987412870029 10.528009207646253 1 rotate no_reflect no_shear #
lump $-1 $-1 $40 $4 #
transform $-1 1 0 0 0 1 0 0 0 1 46.915494247260966 24.326987412870029 10.528009207646253 1 rotate no_reflect no_shear #
lump $-1 $-1 $41 $5 #
transform $-1 1 0 0 0 1 0 0 0 1 46.915494247260966 24.326987412870029 10.528009207646253 1 rotate no_reflect no_shear #
lump $-1 $-1 $42 $6 #
transform $-1 1 0 0 0 1 0 0 0 1 46.915494247260966 24.326987412870029 10.528009207646253 1 rotate no_reflect no_shear #
lump $-1 $-1 $43 $7 #
transform $-1 1 0 0 0 1 0 0 0 1 46.915494247260966 24.326987412870029 10.528009207646253 1 rotate no_reflect no_shear #
lump $-1 $-1 $44 $8 #
transform $-1 1 0 0 0 1 0 0 0 1 46.915494247260966 24.326987412870029 10.528009207646253 1 rotate no_reflect no_shear #
lump $-1 $-1 $45 $9 #
transform $-1 1 0 0 0 1 0 0 0 1 46.915494247260966 24.326987412870029 10.528009207646253 1 rotate no_reflect no_shear #
lump $-1 $-1 $46 $10 #
transform $-1 1 0 0 0 1 0 0 0 1 46.915494247260966 24.326987412870029 10.528009207646253 1 rotate no_reflect no_shear #
lump $-1 $-1 $47 $11 #
transform $-1 1 0 0 0 1 0 0 0 1 46.915494247260966 24.326987412870029 10.528009207646253 1 rotate no_reflect no_shear #
shell $-1 $-1 $-1 $48 $-1 $12 #
shell $-1 $-1 $-1 $49 $-1 $14 #
shell $-1 $-1 $-1 $50 $-1 $16 #
shell $-1 $-1 $-1 $51 $-1 $18 #
shell $-1 $-1 $-1 $52 $-1 $20 #
shell $-1 $-1 $-1 $53 $-1 $22 #
shell $-1 $-1 $-1 $54 $-1 $24 #
shell $-1 $-1 $-1 $55 $-1 $26 #
shell $-1 $-1 $-1 $56 $-1 $28 #
shell $-1 $-1 $-1 $57 $-1 $30 #
shell $-1 $-1 $-1 $58 $-1 $32 #
shell $-1 $-1 $-1 $59 $-1 $34 #
face $-1 $60 $61 $36 $-1 $62 forward single #
face $-1 $63 $64 $37 $-1 $65 reversed single #
face $-1 $66 $67 $38 $-1 $68 reversed single #
face $-1 $69 $70 $39 $-1 $71 reversed single #
face $-1 $72 $73 $40 $-1 $74 forward single #
face $-1 $75 $76 $41 $-1 $77 forward single #
face $-1 $78 $79 $42 $-1 $80 reversed single #
face $-1 $81 $82 $43 $-1 $83 forward single #
face $-1 $84 $85 $44 $-1 $86 forward single #
face $-1 $87 $88 $45 $-1 $89 reversed single #
face $-1 $90 $91 $46 $-1 $92 forward single #
face $-1 $93 $94 $47 $-1 $95 forward single #
face $-1 $96 $97 $36 $-1 $98 reversed single #
loop $-1 $-1 $99 $48 #
plane-surface $-1 0 0 10.528009207646253 0 0 1 1 0 0 forward_v I I I I #
face $-1 $100 $101 $37 $-1 $102 reversed single #
loop $-1 $-1 $103 $49 #
plane-surface $-1 0 -20.497866251542195 5.5043684970156725 0 0 1 1 0 0 forward_v I I I I #
face $-1 $104 $105 $38 $-1 $106 reversed single #
loop $-1 $-1 $107 $50 #
plane-surface $-1 0 20.497866251542195 5.5043684970156725 0 0 1 1 0 0 forward_v I I I I #
face $-1 $108 $109 $39 $-1 $110 reversed single #
loop $-1 $-1 $111 $51 #
plane-surface $-1 23.872893383593549 -9.7493658713271749 131.52470882475421 0 -1 0 -0.57357644374324357 0 -0.81915203911291934 forward_v I I I I #
face $-1 $112 $113 $40 $-1 $114 forward single #
loop $-1 $115 $116 $52 #
cone-surface $-1 39.713334568151623 -14.691779599103736 5.2762378712089681 -0.57357644374324357 0 -0.81915203911291934 0.40957601955645967 0 -0.28678822187162178 1 I I 0 1 0.5 forward I I I I #
face $-1 $117 $118 $41 $-1 $119 forward single #
loop $-1 $120 $121 $53 #
cone-surface $-1 39.713334568151623 -11.726331362437799 5.2762378712089681 -0.57357644374324357 0 -0.81915203911291934 0.40957601955645967 0 -0.28678822187162178 1 I I 0 1 0.5 forward I I I I #
face $-1 $122 $123 $42 $-1 $124 reversed single #
loop $-1 $-1 $125 $54 #
plane-surface $-1 23.872893383593549 1.3631308554823991 131.52470882475421 0 -1 0 -0.57357644374324357 0 -0.81915203911291934 forward_v I I I I #
face $-1 $126 $127 $43 $-1 $128 forward single #
loop $-1 $129 $130 $55 #
cone-surface $-1 39.713334568151623 -3.5792828722941614 5.2762378712089681 -0.57357644374324357 0 -0.81915203911291934 0.40957601955645967 0 -0.28678822187162178 1 I I 0 1 0.5 forward I I I I #
face $-1 $131 $132 $44 $-1 $133 forward single #
loop $-1 $134 $135 $56 #
cone-surface $-1 39.713334568151623 -0.61383463562822627 5.2762378712089681 -0.57357644374324357 0 -0.81915203911291934 0.40957601955645967 0 -0.28678822187162178 1 I I 0 1 0.5 forward I I I I #
face $-1 $136 $137 $45 $-1 $138 reversed single #
loop $-1 $-1 $139 $57 #
plane-surface $-1 23.872893383593549 12.475627582291974 131.52470882475421 0 -1 0 -0.57357644374324357 0 -0.81915203911291934 forward_v I I I I #
face $-1 $140 $141 $46 $-1 $142 forward single #
loop $-1 $143 $144 $58 #
cone-surface $-1 39.713334568151623 7.533213854515413 5.2762378712089681 -0.57357644374324357 0 -0.81915203911291934 0.40957601955645967 0 -0.28678822187162178 1 I I 0 1 0.5 forward I I I I #
face $-1 $145 $146 $47 $-1 $147 forward single #
loop $-1 $148 $149 $59 #
cone-surface $-1 39.713334568151623 10.498662091181348 5.2762378712089681 -0.57357644374324357 0 -0.81915203911291934 0.40957601955645967 0 -0.28678822187162178 1 I I 0 1 0.5 forward I I I I #
face $-1 $150 $151 $36 $-1 $152 reversed single #
loop $-1 $-1 $153 $60 #
plane-surface $-1 0 0 -10.528009207646253 0 0 1 1 0 0 forward_v I I I I #
coedge $-1 $154 $155 $156 $157 forward $61 $-1 #
face $-1 $158 $159 $37 $-1 $160 reversed single #
loop $-1 $-1 $161 $63 #
plane-surface $-1 0 -16.668745090214362 8.0161888523309628 0 -1 0 0 0 -1 forward_v I I I I #
coedge $-1 $162 $163 $164 $165 reversed $64 $-1 #
face $-1 $166 $167 $38 $-1 $168 forward single #
loop $-1 $-1 $169 $66 #
plane-surface $-1 0 16.668745090214362 8.0161888523309628 0 1 0 0 0 1 forward_v I I I I #
coedge $-1 $170 $171 $172 $173 reversed $67 $-1 #
face $-1 $174 $175 $39 $-1 $176 forward single #
loop $-1 $-1 $177 $69 #
plane-surface $-1 -29.946351310007543 -13.209055480770768 54.662863267485704 0.57357644374324357 0 0.81915203911291934 0.81915203911291934 0 -0.57357644374324357 forward_v I I I I #
coedge $-1 $178 $179 $180 $181 reversed $70 $-1 #
face $-1 $-1 $182 $40 $-1 $183 forward single #
loop $-1 $184 $185 $72 #
cone-surface $-1 39.28315223534419 -14.691779599103736 4.6618738418742787 -0.57357644374324357 0 -0.81915203911291934 0.20478800977822983 0 -0.14339411093581089 1 I I -0.70710678118654746 0.70710678118654746 0.25 forward I I I I #
loop $-1 $-1 $186 $52 #
coedge $-1 $116 $116 $187 $188 reversed $73 $-1 #
face $-1 $-1 $189 $41 $-1 $190 forward single #
loop $-1 $191 $192 $75 #
cone-surface $-1 39.28315223534419 -11.726331362437799 4.6618738418742787 -0.57357644374324357 0 -0.81915203911291934 0.20478800977822983 0 -0.14339411093581089 1 I I -0.70710678118654746 0.70710678118654746 0.25 forward I I I I #
loop $-1 $-1 $193 $53 #
coedge $-1 $121 $121 $194 $195 reversed $76 $-1 #
face $-1 $196 $197 $42 $-1 $198 reversed single #
loop $-1 $-1 $199 $78 #
plane-surface $-1 -29.946351310007543 -2.0965587539611938 54.662863267485704 0.57357644374324357 0 0.81915203911291934 0.81915203911291934 0 -0.57357644374324357 forward_v I I I I #
coedge $-1 $200 $201 $202 $203 reversed $79 $-1 #
face $-1 $-1 $204 $43 $-1 $205 forward single #
loop $-1 $206 $207 $81 #
cone-surface $-1 39.28315223534419 -3.5792828722941614 4.6618738418742787 -0.57357644374324357 0 -0.81915203911291934 0.20478800977822983 0 -0.14339411093581089 1 I I -0.70710678118654746 0.70710678118654746 0.25 forward I I I I #
loop $-1 $-1 $208 $55 #
coedge $-1 $130 $130 $209 $210 reversed $82 $-1 #
face $-1 $-1 $211 $44 $-1 $212 forward single #
loop $-1 $213 $214 $84 #
cone-surface $-1 39.28315223534419 -0.61383463562822627 4.6618738418742787 -0.57357644374324357 0 -0.81915203911291934 0.20478800977822983 0 -0.14339411093581089 1 I I -0.70710678118654746 0.70710678118654746 0.25 forward I I I I #
loop $-1 $-1 $215 $56 #
coedge $-1 $135 $135 $216 $217 reversed $85 $-1 #
face $-1 $218 $219 $45 $-1 $220 reversed single #
loop $-1 $-1 $221 $87 #
plane-surface $-1 -29.946351310007543 9.0159379728483806 54.662863267485704 0.57357644374324357 0 0.81915203911291934 0.81915203911291934 0 -0.57357644374324357 forward_v I I I I #
coedge $-1 $222 $223 $224 $225 reversed $88 $-1 #
face $-1 $-1 $226 $46 $-1 $227 forward single #
loop $-1 $228 $229 $90 #
cone-surface $-1 39.28315223534419 7.533213854515413 4.6618738418742787 -0.57357644374324357 0 -0.81915203911291934 0.20478800977822983 0 -0.14339411093581089 1 I I -0.70710678118654746 0.70710678118654746 0.25 forward I I I I #
loop $-1 $-1 $230 $58 #
coedge $-1 $144 $144 $231 $232 reversed $91 $-1 #
face $-1 $-1 $233 $47 $-1 $234 forward single #
loop $-1 $235 $236 $93 #
cone-surface $-1 39.28315223534419 10.498662091181348 4.6618738418742787 -0.57357644374324357 0 -0.81915203911291934 0.20478800977822983 0 -0.14339411093581089 1 I I -0.70710678118654746 0.70710678118654746 0.25 forward I I I I #
loop $-1 $-1 $237 $59 #
coedge $-1 $149 $149 $238 $239 reversed $94 $-1 #
face $-1 $240 $241 $36 $-1 $242 reversed single #
loop $-1 $-1 $243 $96 #
plane-surface $-1 0 -24.326987412870029 0 0 1 0 0 0 1 forward_v I I I I #
coedge $-1 $244 $245 $246 $247 forward $97 $-1 #
coedge $-1 $248 $99 $249 $250 forward $61 $-1 #
coedge $-1 $99 $248 $251 $252 forward $61 $-1 #
coedge $-1 $253 $254 $99 $157 reversed $255 $-1 #
edge $-1 $256 -24.326987412870029 $257 24.326987412870029 $156 $258 forward 7 unknown #
face $-1 $259 $260 $37 $-1 $261 reversed single #
loop $-1 $-1 $262 $100 #
plane-surface $-1 -46.915494247260966 0 0 1 0 0 0 0 -1 forward_v I I I I #
coedge $-1 $263 $264 $265 $266 reversed $101 $-1 #
coedge $-1 $267 $103 $268 $269 reversed $64 $-1 #
coedge $-1 $103 $267 $263 $270 forward $64 $-1 #
coedge $-1 $265 $271 $103 $165 forward $272 $-1 #
edge $-1 $273 -14.078054287098931 $274 -6.4198119644432641 $164 $275 forward 7 unknown #
face $-1 $276 $277 $38 $-1 $278 reversed single #
loop $-1 $-1 $279 $104 #
plane-surface $-1 0 0 10.528009207646253 0 0 1 1 0 0 forward_v I I I I #
coedge $-1 $280 $281 $282 $283 reversed $105 $-1 #
coedge $-1 $284 $107 $280 $285 forward $67 $-1 #
coedge $-1 $107 $284 $286 $287 reversed $67 $-1 #
coedge $-1 $288 $289 $107 $173 forward $277 $-1 #
edge $-1 $290 6.4198119644432641 $291 14.078054287098931 $172 $292 forward 7 unknown #
face $-1 $293 $294 $39 $-1 $295 forward single #
loop $-1 $-1 $180 $108 #
plane-surface $-1 0 0 10.528009207646253 0 0 1 1 0 0 forward_v I I I I #
coedge $-1 $296 $297 $298 $299 reversed $109 $-1 #
coedge $-1 $179 $111 $300 $301 reversed $70 $-1 #
coedge $-1 $111 $178 $296 $302 reversed $70 $-1 #
coedge $-1 $298 $303 $111 $181 forward $175 $-1 #
edge $-1 $304 -34.979047555464192 $305 -21.148304640988727 $180 $306 forward 7 unknown #
loop $-1 $-1 $187 $112 #
plane-surface $-1 -29.946351310007543 -13.209055480770768 54.662863267485704 0.57357644374324357 0 0.81915203911291934 0.81915203911291934 0 -0.57357644374324357 forward_v I I I I #
loop $-1 $-1 $307 $72 #
coedge $-1 $185 $185 $186 $308 reversed $113 $-1 #
coedge $-1 $186 $186 $185 $308 forward $115 $-1 #
coedge $-1 $187 $187 $116 $188 forward $182 $-1 #
edge $-1 $309 0 $309 6.2831853071796004 $187 $310 forward 7 unknown #
loop $-1 $-1 $194 $117 #
plane-surface $-1 -29.946351310007543 -13.209055480770768 54.662863267485704 0.57357644374324357 0 0.81915203911291934 0.81915203911291934 0 -0.57357644374324357 forward_v I I I I #
loop $-1 $-1 $311 $75 #
coedge $-1 $192 $192 $193 $312 reversed $118 $-1 #
coedge $-1 $193 $193 $192 $312 forward $120 $-1 #
coedge $-1 $194 $194 $121 $195 forward $189 $-1 #
edge $-1 $313 0 $313 6.2831853071796004 $194 $314 forward 7 unknown #
face $-1 $315 $316 $42 $-1 $317 reversed single #
loop $-1 $-1 $318 $122 #
plane-surface $-1 23.872893383593549 -5.5562483634047872 131.52470882475421 0 1 0 0.57357644374324357 0 0.81915203911291934 forward_v I I I I #
coedge $-1 $319 $320 $321 $322 reversed $123 $-1 #
coedge $-1 $201 $125 $323 $324 reversed $79 $-1 #
coedge $-1 $125 $200 $319 $325 reversed $79 $-1 #
coedge $-1 $321 $326 $125 $203 forward $327 $-1 #
edge $-1 $328 -34.979047555464192 $329 -21.148304640988727 $202 $330 forward 7 unknown #
loop $-1 $-1 $209 $126 #
plane-surface $-1 -29.946351310007543 -2.0965587539611938 54.662863267485704 0.57357644374324357 0 0.81915203911291934 0.81915203911291934 0 -0.57357644374324357 forward_v I I I I #
loop $-1 $-1 $331 $81 #
coedge $-1 $207 $207 $208 $332 reversed $127 $-1 #
coedge $-1 $208 $208 $207 $332 forward $129 $-1 #
coedge $-1 $209 $209 $130 $210 forward $204 $-1 #
edge $-1 $333 0 $333 6.2831853071796004 $209 $334 forward 7 unknown #
loop $-1 $-1 $216 $131 #
plane-surface $-1 -29.946351310007543 -2.0965587539611938 54.662863267485704 0.57357644374324357 0 0.81915203911291934 0.81915203911291934 0 -0.57357644374324357 forward_v I I I I #
loop $-1 $-1 $335 $84 #
coedge $-1 $214 $214 $215 $336 reversed $132 $-1 #
coedge $-1 $215 $215 $214 $336 forward $134 $-1 #
coedge $-1 $216 $216 $135 $217 forward $211 $-1 #
edge $-1 $337 0 $337 6.2831853071796004 $216 $338 forward 7 unknown #
face $-1 $339 $340 $45 $-1 $341 reversed single #
loop $-1 $-1 $342 $136 #
plane-surface $-1 23.872893383593549 5.5562483634047872 131.52470882475421 0 1 0 0.57357644374324357 0 0.81915203911291934 forward_v I I I I #
coedge $-1 $343 $344 $345 $346 reversed $137 $-1 #
coedge $-1 $223 $139 $347 $348 reversed $88 $-1 #
coedge $-1 $139 $222 $343 $349 reversed $88 $-1 #
coedge $-1 $345 $350 $139 $225 forward $351 $-1 #
edge $-1 $352 -34.979047555464192 $353 -21.148304640988727 $224 $354 forward 7 unknown #
loop $-1 $-1 $231 $140 #
plane-surface $-1 -29.946351310007543 9.0159379728483806 54.662863267485704 0.57357644374324357 0 0.81915203911291934 0.81915203911291934 0 -0.57357644374324357 forward_v I I I I #
loop $-1 $-1 $355 $90 #
coedge $-1 $229 $229 $230 $356 reversed $141 $-1 #
coedge $-1 $230 $230 $229 $356 forward $143 $-1 #
coedge $-1 $231 $231 $144 $232 forward $226 $-1 #
edge $-1 $357 0 $357 6.2831853071796004 $231 $358 forward 7 unknown #
loop $-1 $-1 $238 $145 #
plane-surface $-1 -29.946351310007543 9.0159379728483806 54.662863267485704 0.57357644374324357 0 0.81915203911291934 0.81915203911291934 0 -0.57357644374324357 forward_v I I I I #
loop $-1 $-1 $359 $93 #
coedge $-1 $236 $236 $237 $360 reversed $146 $-1 #
coedge $-1 $237 $237 $236 $360 forward $148 $-1 #
coedge $-1 $238 $238 $149 $239 forward $233 $-1 #
edge $-1 $361 0 $361 6.2831853071796004 $238 $362 forward 7 unknown #
face $-1 $363 $364 $36 $-1 $365 reversed single #
loop $-1 $-1 $366 $150 #
plane-surface $-1 -46.915494247260966 0 0 1 0 0 0 0 -1 forward_v I I I I #
coedge $-1 $367 $251 $368 $369 forward $151 $-1 #
coedge $-1 $370 $153 $367 $371 forward $97 $-1 #
coedge $-1 $153 $370 $372 $373 forward $97 $-1 #
coedge $-1 $254 $253 $153 $247 reversed $255 $-1 #
edge $-1 $374 -24.326987412870029 $375 24.326987412870029 $246 $376 forward 7 unknown #
coedge $-1 $155 $154 $377 $378 forward $61 $-1 #
coedge $-1 $379 $380 $154 $250 reversed $364 $-1 #
edge $-1 $257 -46.915494247260966 $381 46.915494247260966 $249 $382 forward 7 unknown #
coedge $-1 $243 $383 $155 $252 reversed $151 $-1 #
edge $-1 $384 -46.915494247260966 $256 46.915494247260966 $251 $385 forward 7 unknown #
coedge $-1 $246 $156 $383 $386 forward $255 $-1 #
coedge $-1 $156 $246 $379 $387 reversed $255 $-1 #
loop $-1 $-1 $253 $363 #
vertex $-1 $157 $388 #
vertex $-1 $157 $389 #
straight-curve $-1 46.915494247260966 0 10.528009207646253 0 1 0 I I #
face $-1 $390 $391 $37 $-1 $392 forward single #
loop $-1 $-1 $268 $158 #
plane-surface $-1 0 -24.326987412870029 0 0 1 0 0 0 1 forward_v I I I I #
coedge $-1 $393 $394 $395 $396 forward $159 $-1 #
coedge $-1 $395 $161 $163 $270 reversed $101 $-1 #
coedge $-1 $161 $395 $397 $398 reversed $101 $-1 #
coedge $-1 $399 $164 $161 $266 forward $272 $-1 #
edge $-1 $274 1.4962740708501912 $400 6.5199147814807716 $265 $401 forward 7 unknown #
coedge $-1 $163 $162 $393 $402 reversed $64 $-1 #
coedge $-1 $403 $404 $162 $269 forward $260 $-1 #
edge $-1 $405 -46.915494247260966 $273 46.915494247260966 $268 $406 forward 7 unknown #
edge $-1 $407 -46.915494247260966 $274 46.915494247260966 $263 $408 forward 7 unknown #
coedge $-1 $164 $399 $403 $409 forward $272 $-1 #
loop $-1 $-1 $265 $390 #
vertex $-1 $269 $410 #
vertex $-1 $165 $411 #
straight-curve $-1 46.915494247260966 -10.248933125771098 5.5043684970156725 0 1 0 I I #
face $-1 $412 $413 $38 $-1 $414 reversed single #
loop $-1 $-1 $289 $166 #
plane-surface $-1 46.915494247260966 0 0 -1 0 0 0 0 1 forward_v I I I I #
coedge $-1 $415 $416 $281 $417 forward $167 $-1 #
coedge $-1 $418 $169 $170 $285 reversed $105 $-1 #
coedge $-1 $169 $418 $279 $417 reversed $105 $-1 #
coedge $-1 $419 $420 $169 $283 forward $413 $-1 #
edge $-1 $421 1.4962740708501912 $422 6.5199147814807716 $282 $423 forward 7 unknown #
coedge $-1 $171 $170 $420 $424 reversed $67 $-1 #
edge $-1 $290 -46.915494247260966 $421 46.915494247260966 $280 $425 forward 7 unknown #
coedge $-1 $426 $427 $171 $287 forward $428 $-1 #
edge $-1 $291 -46.915494247260966 $429 46.915494247260966 $286 $430 forward 7 unknown #
coedge $-1 $431 $172 $427 $432 reversed $277 $-1 #
coedge $-1 $172 $431 $418 $433 forward $277 $-1 #
vertex $-1 $173 $434 #
vertex $-1 $287 $435 #
straight-curve $-1 46.915494247260966 10.248933125771098 5.5043684970156725 0 1 0 I I #
face $-1 $-1 $436 $39 $-1 $437 reversed single #
loop $-1 $-1 $438 $174 #
plane-surface $-1 0 -16.668745090214362 8.0161888523309628 0 -1 0 0 0 -1 forward_v I I I I #
coedge $-1 $439 $177 $179 $302 forward $109 $-1 #
coedge $-1 $177 $439 $438 $440 forward $109 $-1 #
coedge $-1 $441 $180 $177 $299 forward $175 $-1 #
edge $-1 $305 3.1448381309417908 $442 10.064217349828978 $298 $443 forward 7 unknown #
coedge $-1 $444 $445 $178 $301 forward $436 $-1 #
edge $-1 $446 -64.918735838492495 $304 -55.234345204730857 $300 $447 forward 7 unknown #
edge $-1 $305 76.946768894149415 $446 93.830988494521918 $179 $448 forward 7 unknown #
coedge $-1 $180 $441 $444 $449 forward $175 $-1 #
vertex $-1 $301 $450 #
vertex $-1 $181 $451 #
straight-curve $-1 11.936446691796775 -9.7493658713271749 10.528009207646249 -1 0 0 I I #
coedge $-1 $307 $307 $-1 $452 reversed $184 $-1 #
edge $-1 $453 0 $453 6.2831853071796004 $185 $454 forward 7 unknown #
vertex $-1 $188 $455 #
ellipse-curve $-1 40.000122790023241 -14.691779599103736 5.6858138907654219 0.57357644374324357 0 0.81915203911291934 0.40957601955645967 0 -0.28678822187162178 1 I I #
coedge $-1 $311 $311 $-1 $456 reversed $191 $-1 #
edge $-1 $457 0 $457 6.2831853071796004 $192 $458 forward 7 unknown #
vertex $-1 $195 $459 #
ellipse-curve $-1 40.000122790023241 -11.726331362437799 5.6858138907654219 0.57357644374324357 0 0.81915203911291934 0.40957601955645967 0 -0.28678822187162178 1 I I #
face $-1 $-1 $327 $42 $-1 $460 forward single #
loop $-1 $-1 $461 $196 #
plane-surface $-1 46.915494247260966 0 0 -1 0 0 0 0 1 forward_v I I I I #
coedge $-1 $462 $463 $464 $465 reversed $197 $-1 #
coedge $-1 $466 $199 $201 $325 forward $123 $-1 #
coedge $-1 $199 $466 $462 $467 forward $123 $-1 #
coedge $-1 $464 $202 $199 $322 forward $327 $-1 #
edge $-1 $329 -2.411410232462996 $468 4.5079689864241903 $321 $469 forward 7 unknown #
coedge $-1 $470 $471 $200 $324 forward $316 $-1 #
edge $-1 $472 -64.918735838492495 $328 -55.234345204730857 $323 $473 forward 7 unknown #
edge $-1 $329 76.946768894149415 $472 93.830988494521918 $201 $474 forward 7 unknown #
coedge $-1 $202 $464 $470 $475 forward $327 $-1 #
loop $-1 $-1 $464 $315 #
vertex $-1 $324 $476 #
vertex $-1 $203 $477 #
straight-curve $-1 11.936446691796775 1.3631308554823991 10.528009207646249 -1 0 0 I I #
coedge $-1 $331 $331 $-1 $478 reversed $206 $-1 #
edge $-1 $479 0 $479 6.2831853071796004 $207 $480 forward 7 unknown #
vertex $-1 $210 $481 #
ellipse-curve $-1 40.000122790023241 -3.5792828722941614 5.6858138907654219 0.57357644374324357 0 0.81915203911291934 0.40957601955645967 0 -0.28678822187162178 1 I I #
coedge $-1 $335 $335 $-1 $482 reversed $213 $-1 #
edge $-1 $483 0 $483 6.2831853071796004 $214 $484 forward 7 unknown #
vertex $-1 $217 $485 #
ellipse-curve $-1 40.000122790023241 -0.61383463562822627 5.6858138907654219 0.57357644374324357 0 0.81915203911291934 0.40957601955645967 0 -0.28678822187162178 1 I I #
face $-1 $-1 $351 $45 $-1 $486 forward single #
loop $-1 $-1 $487 $218 #
plane-surface $-1 46.915494247260966 0 0 -1 0 0 0 0 1 forward_v I I I I #
coedge $-1 $488 $489 $490 $491 reversed $219 $-1 #
coedge $-1 $492 $221 $223 $349 forward $137 $-1 #
coedge $-1 $221 $492 $488 $493 forward $137 $-1 #
coedge $-1 $490 $224 $221 $346 forward $351 $-1 #
edge $-1 $353 -7.9676585958677837 $494 -1.0482793769805969 $345 $495 forward 7 unknown #
coedge $-1 $496 $497 $222 $348 forward $340 $-1 #
edge $-1 $498 -64.918735838492495 $352 -55.234345204730857 $347 $499 forward 7 unknown #
edge $-1 $353 76.946768894149415 $498 93.830988494521918 $223 $500 forward 7 unknown #
coedge $-1 $224 $490 $496 $501 forward $351 $-1 #
loop $-1 $-1 $490 $339 #
vertex $-1 $348 $502 #
vertex $-1 $225 $503 #
straight-curve $-1 11.936446691796775 12.475627582291974 10.528009207646249 -1 0 0 I I #
coedge $-1 $355 $355 $-1 $504 reversed $228 $-1 #
edge $-1 $505 0 $505 6.2831853071796004 $229 $506 forward 7 unknown #
vertex $-1 $232 $507 #
ellipse-curve $-1 40.000122790023241 7.533213854515413 5.6858138907654219 0.57357644374324357 0 0.81915203911291934 0.40957601955645967 0 -0.28678822187162178 1 I I #
coedge $-1 $359 $359 $-1 $508 reversed $235 $-1 #
edge $-1 $509 0 $509 6.2831853071796004 $236 $510 forward 7 unknown #
vertex $-1 $239 $511 #
ellipse-curve $-1 40.000122790023241 10.498662091181348 5.6858138907654219 0.57357644374324357 0 0.81915203911291934 0.40957601955645967 0 -0.28678822187162178 1 I I #
face $-1 $-1 $255 $36 $-1 $512 reversed single #
loop $-1 $-1 $379 $240 #
plane-surface $-1 0 24.326987412870029 0 0 -1 0 0 0 -1 forward_v I I I I #
coedge $-1 $513 $377 $380 $514 forward $241 $-1 #
coedge $-1 $383 $243 $244 $371 reversed $151 $-1 #
coedge $-1 $377 $513 $243 $369 reversed $241 $-1 #
edge $-1 $384 -10.528009207646253 $515 10.528009207646253 $368 $516 forward 7 unknown #
coedge $-1 $245 $244 $513 $517 forward $97 $-1 #
edge $-1 $375 -46.915494247260966 $515 46.915494247260966 $367 $518 forward 7 unknown #
coedge $-1 $380 $379 $245 $373 reversed $364 $-1 #
edge $-1 $519 -46.915494247260966 $374 46.915494247260966 $372 $520 forward 7 unknown #
vertex $-1 $247 $521 #
vertex $-1 $386 $522 #
straight-curve $-1 46.915494247260966 0 -10.528009207646253 0 -1 0 I I #
coedge $-1 $366 $368 $248 $378 reversed $241 $-1 #
edge $-1 $381 -24.326987412870029 $384 24.326987412870029 $377 $523 forward 7 unknown #
coedge $-1 $372 $249 $254 $387 forward $364 $-1 #
coedge $-1 $249 $372 $366 $514 reversed $364 $-1 #
vertex $-1 $250 $524 #
straight-curve $-1 0 24.326987412870029 10.528009207646253 -1 0 0 I I #
coedge $-1 $251 $367 $253 $386 reversed $151 $-1 #
vertex $-1 $378 $525 #
straight-curve $-1 0 -24.326987412870029 10.528009207646253 1 0 0 I I #
edge $-1 $256 -10.528009207646253 $375 10.528009207646253 $253 $526 forward 7 unknown #
edge $-1 $257 -10.528009207646253 $374 10.528009207646253 $254 $527 forward 7 unknown #
point $-1 46.915494247260966 -24.326987412870029 10.528009207646253 #
point $-1 46.915494247260966 24.326987412870029 10.528009207646253 #
face $-1 $-1 $272 $37 $-1 $528 reversed single #
loop $-1 $-1 $397 $259 #
plane-surface $-1 0 0 10.528009207646253 0 0 1 1 0 0 forward_v I I I I #
coedge $-1 $529 $262 $267 $402 forward $159 $-1 #
coedge $-1 $262 $529 $530 $531 reversed $159 $-1 #
coedge $-1 $264 $263 $262 $396 reversed $101 $-1 #
edge $-1 $532 -6.5199147814807716 $407 -1.4962740708501912 $262 $533 forward 7 unknown #
coedge $-1 $530 $534 $264 $398 forward $391 $-1 #
edge $-1 $400 -46.915494247260966 $532 46.915494247260966 $397 $535 forward 7 unknown #
coedge $-1 $271 $265 $534 $536 reversed $272 $-1 #
vertex $-1 $266 $537 #
straight-curve $-1 46.915494247260966 -16.668745090214362 4.0080944261654814 0 0 1 I I #
edge $-1 $407 6.4198119644432641 $405 14.078054287098931 $393 $538 forward 7 unknown #
coedge $-1 $539 $268 $271 $409 reversed $260 $-1 #
coedge $-1 $268 $539 $529 $540 forward $260 $-1 #
vertex $-1 $269 $541 #
straight-curve $-1 0 -24.326987412870029 5.5043684970156725 1 0 0 I I #
vertex $-1 $402 $542 #
straight-curve $-1 0 -16.668745090214362 5.5043684970156725 1 0 0 I I #
edge $-1 $543 -10.528009207646253 $273 -5.5043684970156725 $271 $544 forward 7 unknown #
point $-1 46.915494247260966 -24.326987412870029 5.5043684970156725 #
point $-1 46.915494247260966 -16.668745090214362 5.5043684970156725 #
face $-1 $-1 $428 $38 $-1 $545 reversed single #
loop $-1 $-1 $282 $276 #
plane-surface $-1 -46.915494247260966 0 0 1 0 0 0 0 -1 forward_v I I I I #
coedge $-1 $546 $279 $431 $547 forward $167 $-1 #
coedge $-1 $279 $546 $419 $548 forward $167 $-1 #
edge $-1 $422 -46.915494247260966 $549 46.915494247260966 $279 $550 forward 7 unknown #
coedge $-1 $281 $280 $289 $433 reversed $105 $-1 #
coedge $-1 $551 $282 $416 $548 reversed $413 $-1 #
coedge $-1 $282 $551 $284 $424 forward $413 $-1 #
vertex $-1 $424 $552 #
vertex $-1 $283 $553 #
straight-curve $-1 -46.915494247260966 16.668745090214362 4.0080944261654814 0 0 1 I I #
edge $-1 $429 -14.078054287098931 $421 -6.4198119644432641 $420 $554 forward 7 unknown #
straight-curve $-1 0 16.668745090214362 5.5043684970156725 -1 0 0 I I #
coedge $-1 $555 $286 $551 $556 reversed $428 $-1 #
coedge $-1 $286 $555 $288 $432 forward $428 $-1 #
loop $-1 $-1 $286 $412 #
vertex $-1 $287 $557 #
straight-curve $-1 0 24.326987412870029 5.5043684970156725 -1 0 0 I I #
coedge $-1 $289 $288 $415 $547 reversed $277 $-1 #
edge $-1 $558 -10.528009207646253 $291 -5.5043684970156725 $288 $559 forward 7 unknown #
edge $-1 $549 -6.5199147814807716 $290 -1.4962740708501912 $289 $560 forward 7 unknown #
point $-1 46.915494247260966 16.668745090214362 5.5043684970156725 #
point $-1 46.915494247260966 24.326987412870029 5.5043684970156725 #
loop $-1 $-1 $300 $293 #
plane-surface $-1 46.915494247260966 0 0 -1 0 0 0 0 1 forward_v I I I I #
coedge $-1 $561 $562 $297 $440 reversed $294 $-1 #
coedge $-1 $297 $296 $445 $563 reversed $109 $-1 #
edge $-1 $564 -93.830988494521918 $442 -76.946768894149415 $438 $565 forward 7 unknown #
coedge $-1 $303 $298 $562 $566 forward $175 $-1 #
vertex $-1 $566 $567 #
straight-curve $-1 33.084751332785494 -6.6045277403853841 10.528009207646253 0 -1 0 I I #
coedge $-1 $568 $300 $303 $449 reversed $436 $-1 #
coedge $-1 $300 $568 $439 $563 forward $436 $-1 #
vertex $-1 $301 $569 #
straight-curve $-1 46.915494247260966 -9.7493658713271749 65.762354412377107 0 0 1 I I #
straight-curve $-1 -29.946351310007543 -9.7493658713271749 54.662863267485704 0.81915203911291934 0 -0.57357644374324357 I I #
edge $-1 $570 -16.668745090214362 $304 -9.7493658713271749 $444 $571 forward 7 unknown #
point $-1 46.915494247260966 -9.7493658713271749 10.528009207646253 #
point $-1 33.084751332785501 -9.7493658713271749 10.528009207646249 #
edge $-1 $572 1 $572 0 $307 $-1 forward 7 unknown #
vertex $-1 $308 $573 #
ellipse-curve $-1 39.426546346279999 -14.691779599103736 4.8666618516525082 0.57357644374324357 0 0.81915203911291934 0.40957601955645967 0 -0.28678822187162178 1 I I #
point $-1 40.409698809579702 -14.691779599103736 5.3990256688938061 #
edge $-1 $574 1 $574 0 $311 $-1 forward 7 unknown #
vertex $-1 $312 $575 #
ellipse-curve $-1 39.426546346279999 -11.726331362437799 4.8666618516525082 0.57357644374324357 0 0.81915203911291934 0.40957601955645967 0 -0.28678822187162178 1 I I #
point $-1 40.409698809579702 -11.726331362437799 5.3990256688938061 #
plane-surface $-1 0 0 10.528009207646253 0 0 1 1 0 0 forward_v I I I I #
coedge $-1 $471 $470 $463 $576 forward $316 $-1 #
coedge $-1 $463 $318 $320 $467 reversed $197 $-1 #
coedge $-1 $318 $462 $461 $576 reversed $197 $-1 #
coedge $-1 $326 $321 $318 $465 forward $327 $-1 #
edge $-1 $468 21.148304640988727 $577 34.979047555464192 $464 $578 forward 7 unknown #
coedge $-1 $320 $319 $471 $579 reversed $123 $-1 #
edge $-1 $580 -93.830988494521918 $468 -76.946768894149415 $462 $581 forward 7 unknown #
vertex $-1 $322 $582 #
straight-curve $-1 33.084751332785494 -1.0482793769805969 10.528009207646253 0 -1 0 I I #
coedge $-1 $461 $323 $326 $475 reversed $316 $-1 #
coedge $-1 $323 $461 $466 $579 forward $316 $-1 #
vertex $-1 $324 $583 #
straight-curve $-1 46.915494247260966 1.3631308554823991 65.762354412377107 0 0 1 I I #
straight-curve $-1 -29.946351310007543 1.3631308554823991 54.662863267485704 0.81915203911291934 0 -0.57357644374324357 I I #
edge $-1 $577 -5.5562483634047872 $328 1.3631308554823991 $470 $584 forward 7 unknown #
point $-1 46.915494247260966 1.3631308554823991 10.528009207646253 #
point $-1 33.084751332785501 1.3631308554823991 10.528009207646249 #
edge $-1 $585 1 $585 0 $331 $-1 forward 7 unknown #
vertex $-1 $332 $586 #
ellipse-curve $-1 39.426546346279999 -3.5792828722941614 4.8666618516525082 0.57357644374324357 0 0.81915203911291934 0.40957601955645967 0 -0.28678822187162178 1 I I #
point $-1 40.409698809579702 -3.5792828722941614 5.3990256688938061 #
edge $-1 $587 1 $587 0 $335 $-1 forward 7 unknown #
vertex $-1 $336 $588 #
ellipse-curve $-1 39.426546346279999 -0.61383463562822627 4.8666618516525082 0.57357644374324357 0 0.81915203911291934 0.40957601955645967 0 -0.28678822187162178 1 I I #
point $-1 40.409698809579702 -0.61383463562822627 5.3990256688938061 #
plane-surface $-1 0 0 10.528009207646253 0 0 1 1 0 0 forward_v I I I I #
coedge $-1 $497 $496 $489 $589 forward $340 $-1 #
coedge $-1 $489 $342 $344 $493 reversed $219 $-1 #
coedge $-1 $342 $488 $487 $589 reversed $219 $-1 #
coedge $-1 $350 $345 $342 $491 forward $351 $-1 #
edge $-1 $494 21.148304640988727 $590 34.979047555464192 $490 $591 forward 7 unknown #
coedge $-1 $344 $343 $497 $592 reversed $137 $-1 #
edge $-1 $593 -93.830988494521918 $494 -76.946768894149415 $488 $594 forward 7 unknown #
vertex $-1 $346 $595 #
straight-curve $-1 33.084751332785494 4.5079689864241903 10.528009207646253 0 -1 0 I I #
coedge $-1 $487 $347 $350 $501 reversed $340 $-1 #
coedge $-1 $347 $487 $492 $592 forward $340 $-1 #
vertex $-1 $348 $596 #
straight-curve $-1 46.915494247260966 12.475627582291974 65.762354412377107 0 0 1 I I #
straight-curve $-1 -29.946351310007543 12.475627582291974 54.662863267485704 0.81915203911291934 0 -0.57357644374324357 I I #
edge $-1 $590 5.5562483634047872 $352 12.475627582291974 $496 $597 forward 7 unknown #
point $-1 46.915494247260966 12.475627582291974 10.528009207646253 #
point $-1 33.084751332785501 12.475627582291974 10.528009207646249 #
edge $-1 $598 1 $598 0 $355 $-1 forward 7 unknown #
vertex $-1 $356 $599 #
ellipse-curve $-1 39.426546346279999 7.533213854515413 4.8666618516525082 0.57357644374324357 0 0.81915203911291934 0.40957601955645967 0 -0.28678822187162178 1 I I #
point $-1 40.409698809579702 7.533213854515413 5.3990256688938061 #
edge $-1 $600 1 $600 0 $359 $-1 forward 7 unknown #
vertex $-1 $360 $601 #
ellipse-curve $-1 39.426546346279999 10.498662091181348 4.8666618516525082 0.57357644374324357 0 0.81915203911291934 0.40957601955645967 0 -0.28678822187162178 1 I I #
point $-1 40.409698809579702 10.498662091181348 5.3990256688938061 #
plane-surface $-1 46.915494247260966 0 0 -1 0 0 0 0 1 forward_v I I I I #
coedge $-1 $368 $366 $370 $517 reversed $241 $-1 #
edge $-1 $381 -10.528009207646253 $519 10.528009207646253 $380 $602 forward 7 unknown #
vertex $-1 $517 $603 #
straight-curve $-1 -46.915494247260966 -24.326987412870029 0 0 0 -1 I I #
edge $-1 $515 -24.326987412870029 $519 24.326987412870029 $513 $604 forward 7 unknown #
straight-curve $-1 0 -24.326987412870029 -10.528009207646253 -1 0 0 I I #
vertex $-1 $373 $605 #
straight-curve $-1 0 24.326987412870029 -10.528009207646253 1 0 0 I I #
point $-1 46.915494247260966 24.326987412870029 -10.528009207646253 #
point $-1 46.915494247260966 -24.326987412870029 -10.528009207646253 #
straight-curve $-1 -46.915494247260966 0 10.528009207646253 0 -1 0 I I #
point $-1 -46.915494247260966 24.326987412870029 10.528009207646253 #
point $-1 -46.915494247260966 -24.326987412870029 10.528009207646253 #
straight-curve $-1 46.915494247260966 -24.326987412870029 0 0 0 -1 I I #
straight-curve $-1 46.915494247260966 24.326987412870029 0 0 0 -1 I I #
plane-surface $-1 46.915494247260966 0 0 -1 0 0 0 0 1 forward_v I I I I #
coedge $-1 $394 $393 $404 $540 reversed $159 $-1 #
coedge $-1 $606 $397 $394 $531 forward $391 $-1 #
edge $-1 $532 16.668745090214362 $607 24.326987412870029 $394 $608 forward 7 unknown #
vertex $-1 $531 $609 #
straight-curve $-1 -46.915494247260966 -16.668745090214362 4.0080944261654814 0 0 -1 I I #
coedge $-1 $397 $606 $399 $536 forward $391 $-1 #
straight-curve $-1 0 -16.668745090214362 10.528009207646253 -1 0 0 I I #
edge $-1 $543 -24.326987412870029 $400 -16.668745090214362 $399 $610 forward 7 unknown #
point $-1 46.915494247260966 -16.668745090214362 10.528009207646253 #
straight-curve $-1 -46.915494247260966 -10.248933125771098 5.5043684970156725 0 -1 0 I I #
coedge $-1 $404 $403 $606 $611 reversed $260 $-1 #
edge $-1 $607 -10.528009207646253 $405 -5.5043684970156725 $529 $612 forward 7 unknown #
point $-1 -46.915494247260966 -24.326987412870029 5.5043684970156725 #
point $-1 -46.915494247260966 -16.668745090214362 5.5043684970156725 #
vertex $-1 $536 $613 #
straight-curve $-1 46.915494247260966 -24.326987412870029 0 0 0 -1 I I #
plane-surface $-1 0 24.326987412870029 0 0 -1 0 0 0 -1 forward_v I I I I #
coedge $-1 $416 $415 $555 $614 forward $167 $-1 #
edge $-1 $549 16.668745090214362 $558 24.326987412870029 $431 $615 forward 7 unknown #
edge $-1 $616 -24.326987412870029 $422 -16.668745090214362 $419 $617 forward 7 unknown #
vertex $-1 $547 $618 #
straight-curve $-1 0 16.668745090214362 10.528009207646253 1 0 0 I I #
coedge $-1 $420 $419 $426 $556 forward $413 $-1 #
point $-1 -46.915494247260966 16.668745090214362 5.5043684970156725 #
point $-1 -46.915494247260966 16.668745090214362 10.528009207646253 #
straight-curve $-1 -46.915494247260966 10.248933125771098 5.5043684970156725 0 -1 0 I I #
coedge $-1 $427 $426 $546 $614 reversed $428 $-1 #
edge $-1 $616 -10.528009207646253 $429 -5.5043684970156725 $426 $619 forward 7 unknown #
point $-1 -46.915494247260966 24.326987412870029 5.5043684970156725 #
vertex $-1 $547 $620 #
straight-curve $-1 46.915494247260966 24.326987412870029 0 0 0 -1 I I #
straight-curve $-1 46.915494247260966 16.668745090214362 4.0080944261654814 0 0 -1 I I #
coedge $-1 $562 $438 $568 $621 reversed $294 $-1 #
coedge $-1 $438 $561 $441 $566 reversed $294 $-1 #
edge $-1 $564 -10.064217349828978 $446 -3.1448381309417908 $445 $622 forward 7 unknown #
vertex $-1 $621 $623 #
straight-curve $-1 -29.946351310007543 -16.668745090214362 54.662863267485704 -0.81915203911291934 0 0.57357644374324357 I I #
edge $-1 $442 33.084751332785501 $570 46.915494247260966 $441 $624 forward 7 unknown #
point $-1 33.084751332785501 -16.668745090214362 10.528009207646249 #
coedge $-1 $445 $444 $561 $621 forward $436 $-1 #
point $-1 46.915494247260966 -9.7493658713271749 0.84361857388461203 #
vertex $-1 $449 $625 #
straight-curve $-1 46.915494247260966 0 10.528009207646253 0 1 0 I I #
vertex $-1 $452 $626 #
point $-1 39.836122365836459 -14.691779599103736 4.5798736297808871 #
vertex $-1 $456 $627 #
point $-1 39.836122365836459 -11.726331362437799 4.5798736297808871 #
edge $-1 $577 55.234345204730857 $580 64.918735838492495 $461 $628 forward 7 unknown #
vertex $-1 $475 $629 #
straight-curve $-1 11.936446691796775 -5.5562483634047872 10.528009207646249 1 0 0 I I #
edge $-1 $580 -4.5079689864241903 $472 2.411410232462996 $471 $630 forward 7 unknown #
vertex $-1 $579 $631 #
straight-curve $-1 -29.946351310007543 -5.5562483634047872 54.662863267485704 -0.81915203911291934 0 0.57357644374324357 I I #
point $-1 33.084751332785501 -5.5562483634047872 10.528009207646249 #
point $-1 46.915494247260966 1.3631308554823991 0.84361857388461203 #
straight-curve $-1 46.915494247260966 0 10.528009207646253 0 1 0 I I #
vertex $-1 $478 $632 #
point $-1 39.836122365836459 -3.5792828722941614 4.5798736297808871 #
vertex $-1 $482 $633 #
point $-1 39.836122365836459 -0.61383463562822627 4.5798736297808871 #
edge $-1 $590 55.234345204730857 $593 64.918735838492495 $487 $634 forward 7 unknown #
vertex $-1 $501 $635 #
straight-curve $-1 11.936446691796775 5.5562483634047872 10.528009207646249 1 0 0 I I #
edge $-1 $593 1.0482793769805969 $498 7.9676585958677837 $497 $636 forward 7 unknown #
vertex $-1 $592 $637 #
straight-curve $-1 -29.946351310007543 5.5562483634047872 54.662863267485704 -0.81915203911291934 0 0.57357644374324357 I I #
point $-1 33.084751332785501 5.5562483634047872 10.528009207646249 #
point $-1 46.915494247260966 12.475627582291974 0.84361857388461203 #
straight-curve $-1 46.915494247260966 0 10.528009207646253 0 1 0 I I #
vertex $-1 $504 $638 #
point $-1 39.836122365836459 7.533213854515413 4.5798736297808871 #
vertex $-1 $508 $639 #
point $-1 39.836122365836459 10.498662091181348 4.5798736297808871 #
straight-curve $-1 -46.915494247260966 24.326987412870029 0 0 0 -1 I I #
point $-1 -46.915494247260966 -24.326987412870029 -10.528009207646253 #
straight-curve $-1 -46.915494247260966 0 -10.528009207646253 0 1 0 I I #
point $-1 -46.915494247260966 24.326987412870029 -10.528009207646253 #
coedge $-1 $534 $530 $539 $611 forward $391 $-1 #
vertex $-1 $531 $640 #
straight-curve $-1 -46.915494247260966 0 10.528009207646253 0 -1 0 I I #
point $-1 -46.915494247260966 -16.668745090214362 10.528009207646253 #
straight-curve $-1 46.915494247260966 0 10.528009207646253 0 1 0 I I #
edge $-1 $607 -46.915494247260966 $543 46.915494247260966 $539 $641 forward 7 unknown #
straight-curve $-1 -46.915494247260966 -24.326987412870029 0 0 0 -1 I I #
point $-1 46.915494247260966 -24.326987412870029 10.528009207646253 #
edge $-1 $558 -46.915494247260966 $616 46.915494247260966 $555 $642 forward 7 unknown #
straight-curve $-1 46.915494247260966 0 10.528009207646253 0 1 0 I I #
vertex $-1 $614 $643 #
straight-curve $-1 -46.915494247260966 0 10.528009207646253 0 -1 0 I I #
point $-1 46.915494247260966 16.668745090214362 10.528009207646253 #
straight-curve $-1 -46.915494247260966 24.326987412870029 0 0 0 -1 I I #
point $-1 46.915494247260966 24.326987412870029 10.528009207646253 #
edge $-1 $570 55.234345204730857 $564 64.918735838492495 $568 $644 forward 7 unknown #
straight-curve $-1 46.915494247260973 -6.6045277403853841 0.84361857388461203 0 1 0 I I #
point $-1 46.915494247260966 -16.668745090214362 0.84361857388461203 #
straight-curve $-1 0 -16.668745090214362 10.528009207646253 1 0 0 I I #
point $-1 46.915494247260966 -16.668745090214362 10.528009207646253 #
point $-1 39.139758124408381 -14.691779599103736 4.4570858320960491 #
point $-1 39.139758124408381 -11.726331362437799 4.4570858320960491 #
straight-curve $-1 46.915494247260966 -5.5562483634047872 65.762354412377107 0 0 -1 I I #
point $-1 46.915494247260966 -5.5562483634047872 10.528009207646253 #
straight-curve $-1 46.915494247260973 -1.0482793769805969 0.84361857388461203 0 1 0 I I #
point $-1 46.915494247260966 -5.5562483634047872 0.84361857388461203 #
point $-1 39.139758124408381 -3.5792828722941614 4.4570858320960491 #
point $-1 39.139758124408381 -0.61383463562822627 4.4570858320960491 #
straight-curve $-1 46.915494247260966 5.5562483634047872 65.762354412377107 0 0 -1 I I #
point $-1 46.915494247260966 5.5562483634047872 10.528009207646253 #
straight-curve $-1 46.915494247260973 4.5079689864241903 0.84361857388461203 0 1 0 I I #
point $-1 46.915494247260966 5.5562483634047872 0.84361857388461203 #
point $-1 39.139758124408381 7.533213854515413 4.4570858320960491 #
point $-1 39.139758124408381 10.498662091181348 4.4570858320960491 #
point $-1 -46.915494247260966 -24.326987412870029 10.528009207646253 #
straight-curve $-1 0 -24.326987412870029 10.528009207646253 1 0 0 I I #
straight-curve $-1 0 24.326987412870029 10.528009207646253 -1 0 0 I I #
point $-1 -46.915494247260966 24.326987412870029 10.528009207646253 #
straight-curve $-1 46.915494247260966 -16.668745090214362 65.762354412377107 0 0 -1 I I #
End-of-ACIS-data 