500 0 5 0           
7 Unknown 11 ACIS 5.0 NT 24 Fri Mar 26 00:56:57 1999 
-1 9.9999999999999995e-007 1e-010 
body $-1 $5 $-1 $6 #
body $-1 $7 $-1 $8 #
body $-1 $9 $-1 $10 #
body $-1 $11 $-1 $12 #
body $-1 $13 $-1 $14 #
lump $-1 $-1 $15 $0 #
transform $-1 1 0 0 0 1 0 0 0 1 73.145542771691026 45.612664876498911 18.855332141641075 1 rotate no_reflect no_shear #
lump $-1 $-1 $16 $1 #
transform $-1 1 0 0 0 1 0 0 0 1 73.145542771691026 45.612664876498911 18.855332141641075 1 rotate no_reflect no_shear #
lump $-1 $-1 $17 $2 #
transform $-1 1 0 0 0 1 0 0 0 1 73.145542771691026 45.612664876498911 18.855332141641075 1 rotate no_reflect no_shear #
lump $-1 $-1 $18 $3 #
transform $-1 1 0 0 0 1 0 0 0 1 73.145542771691026 45.612664876498911 18.855332141641075 1 rotate no_reflect no_shear #
lump $-1 $-1 $19 $4 #
transform $-1 1 0 0 0 1 0 0 0 1 73.145542771691026 45.612664876498911 18.855332141641075 1 rotate no_reflect no_shear #
shell $-1 $-1 $-1 $20 $-1 $5 #
shell $-1 $-1 $-1 $21 $-1 $7 #
shell $-1 $-1 $-1 $22 $-1 $9 #
shell $-1 $-1 $-1 $23 $-1 $11 #
shell $-1 $-1 $-1 $24 $-1 $13 #
face $-1 $25 $26 $15 $-1 $27 forward single #
face $-1 $28 $29 $16 $-1 $30 forward single #
face $-1 $31 $32 $17 $-1 $33 forward single #
face $-1 $34 $35 $18 $-1 $36 reversed single #
face $-1 $37 $38 $19 $-1 $39 reversed single #
face $-1 $40 $41 $15 $-1 $42 reversed single #
loop $-1 $-1 $43 $20 #
plane-surface $-1 0 0 18.855332141641075 0 0 1 1 0 0 forward_v I I I I #
face $-1 $44 $45 $16 $-1 $46 forward single #
loop $-1 $-1 $47 $21 #
plane-surface $-1 -64.350977838464871 0 9.2046843756734127 0 0 1 1 0 0 forward_v I I I I #
face $-1 $48 $49 $17 $-1 $50 forward single #
loop $-1 $-1 $51 $22 #
plane-surface $-1 59.958178011795184 -45.61266487649894 6.0862565287503543 0 -0.55919291073839883 0.82903756765294845 1 0 0 forward_v I I I I #
face $-1 $52 $53 $18 $-1 $54 reversed single #
loop $-1 $55 $56 $23 #
cone-surface $-1 54.30645025755409 -34.871406881292138 10.579355510652238 0 0.55919291073839883 -0.82903756765294845 2.5 0 0 1 I I 0 1 2.5 forward I I I I #
face $-1 $57 $58 $19 $-1 $59 reversed single #
loop $-1 $60 $61 $24 #
cone-surface $-1 65.609905766036263 -34.871406881292138 10.579355510652238 0 0.55919291073839883 -0.82903756765294845 2.5 0 0 1 I I 0 1 2.5 forward I I I I #
face $-1 $62 $63 $15 $-1 $64 reversed single #
loop $-1 $-1 $65 $25 #
plane-surface $-1 0 0 -18.855332141641075 0 0 1 1 0 0 forward_v I I I I #
coedge $-1 $66 $67 $68 $69 forward $26 $-1 #
face $-1 $70 $71 $16 $-1 $72 forward single #
loop $-1 $-1 $73 $28 #
plane-surface $-1 -55.556412905238709 0 14.030008258657244 -1 0 0 0 0 1 forward_v I I I I #
coedge $-1 $74 $75 $76 $77 reversed $29 $-1 #
face $-1 $78 $79 $17 $-1 $80 forward single #
loop $-1 $-1 $81 $31 #
plane-surface $-1 46.770813251899327 -127.41760281658284 127.36706225694522 1 0 0 0 0.55919291073839883 -0.82903756765294845 forward_v I I I I #
coedge $-1 $82 $83 $84 $85 reversed $32 $-1 #
face $-1 $86 $87 $18 $-1 $88 forward single #
loop $-1 $89 $90 $34 #
cone-surface $-1 54.30645025755409 -32.896624122503347 7.6516197265426023 0 0.55919291073839883 -0.82903756765294845 1.25 0 0 1 I I -0.70710678118654746 0.70710678118654746 1.25 forward I I I I #
loop $-1 $-1 $91 $23 #
coedge $-1 $56 $56 $92 $93 reversed $35 $-1 #
face $-1 $94 $95 $19 $-1 $96 reversed single #
loop $-1 $97 $98 $37 #
cone-surface $-1 65.609905766036263 -32.896624122503347 7.6516197265426023 0 0.55919291073839883 -0.82903756765294845 1.25 0 0 1 I I -0.70710678118654746 0.70710678118654746 1.25 forward I I I I #
loop $-1 $-1 $99 $24 #
coedge $-1 $61 $61 $100 $101 reversed $38 $-1 #
face $-1 $102 $103 $15 $-1 $104 reversed single #
loop $-1 $-1 $105 $40 #
plane-surface $-1 0 -45.612664876498911 0 0 1 0 0 0 1 forward_v I I I I #
coedge $-1 $106 $107 $108 $109 forward $41 $-1 #
coedge $-1 $110 $43 $111 $112 forward $26 $-1 #
coedge $-1 $43 $110 $113 $114 forward $26 $-1 #
coedge $-1 $115 $116 $43 $69 reversed $117 $-1 #
edge $-1 $118 -45.612664876498911 $119 45.612664876498911 $68 $120 forward 7 unknown #
face $-1 $121 $122 $16 $-1 $123 reversed single #
loop $-1 $-1 $124 $44 #
plane-surface $-1 0 0 18.855332141641075 0 0 1 1 0 0 forward_v I I I I #
coedge $-1 $125 $76 $126 $127 reversed $45 $-1 #
coedge $-1 $128 $47 $129 $130 reversed $29 $-1 #
coedge $-1 $47 $128 $131 $132 reversed $29 $-1 #
coedge $-1 $73 $133 $47 $77 forward $45 $-1 #
edge $-1 $134 -45.612664876498911 $135 45.612664876498911 $76 $136 forward 7 unknown #
face $-1 $137 $138 $17 $-1 $139 reversed single #
loop $-1 $-1 $140 $48 #
plane-surface $-1 0 0 18.855332141641075 0 0 1 1 0 0 forward_v I I I I #
coedge $-1 $141 $142 $140 $143 reversed $49 $-1 #
coedge $-1 $144 $51 $142 $145 reversed $32 $-1 #
coedge $-1 $51 $144 $146 $147 reversed $32 $-1 #
coedge $-1 $148 $140 $51 $85 forward $79 $-1 #
edge $-1 $149 16.791724246001735 $150 43.166453765793449 $84 $151 forward 7 unknown #
face $-1 $152 $153 $18 $-1 $154 forward single #
loop $-1 $155 $92 $52 #
plane-surface $-1 59.958178011795184 -45.61266487649894 6.0862565287503543 0 -0.55919291073839883 0.82903756765294845 1 0 0 forward_v I I I I #
loop $-1 $-1 $156 $34 #
coedge $-1 $90 $90 $91 $157 forward $53 $-1 #
coedge $-1 $91 $91 $90 $157 reversed $55 $-1 #
coedge $-1 $92 $92 $56 $93 forward $87 $-1 #
edge $-1 $158 -2.2454013726313318e-015 $158 6.2831853071795978 $92 $159 forward 7 unknown #
face $-1 $160 $161 $19 $-1 $162 reversed single #
loop $-1 $163 $164 $57 #
cone-surface $-1 54.30645025755409 -34.871406881292138 10.579355510652238 0 0.55919291073839883 -0.82903756765294845 2.5 0 0 1 I I 0 1 2.5 forward I I I I #
loop $-1 $-1 $165 $37 #
coedge $-1 $98 $98 $99 $166 forward $58 $-1 #
coedge $-1 $99 $99 $98 $166 reversed $60 $-1 #
coedge $-1 $100 $100 $61 $101 forward $167 $-1 #
edge $-1 $168 -2.2454013726313318e-015 $168 6.2831853071795978 $100 $169 forward 7 unknown #
face $-1 $170 $171 $15 $-1 $172 reversed single #
loop $-1 $-1 $173 $62 #
plane-surface $-1 -73.145542771691026 0 0 1 0 0 0 0 -1 forward_v I I I I #
coedge $-1 $174 $113 $175 $176 forward $63 $-1 #
coedge $-1 $177 $65 $174 $178 forward $41 $-1 #
coedge $-1 $65 $177 $179 $180 forward $41 $-1 #
coedge $-1 $116 $115 $65 $109 reversed $117 $-1 #
edge $-1 $181 -45.612664876498911 $182 45.612664876498911 $108 $183 forward 7 unknown #
coedge $-1 $67 $66 $184 $185 forward $26 $-1 #
coedge $-1 $186 $187 $66 $112 reversed $171 $-1 #
edge $-1 $119 -73.145542771691026 $188 73.145542771691026 $111 $189 forward 7 unknown #
coedge $-1 $105 $190 $67 $114 reversed $63 $-1 #
edge $-1 $191 -73.145542771691026 $118 73.145542771691026 $113 $192 forward 7 unknown #
coedge $-1 $108 $68 $190 $193 forward $117 $-1 #
coedge $-1 $68 $108 $186 $194 reversed $117 $-1 #
loop $-1 $-1 $115 $170 #
vertex $-1 $69 $195 #
vertex $-1 $69 $196 #
straight-curve $-1 73.145542771691026 0 18.855332141641075 0 1 0 I I #
face $-1 $197 $198 $16 $-1 $199 reversed single #
loop $-1 $-1 $126 $70 #
plane-surface $-1 0 -45.612664876498911 0 0 1 0 0 0 1 forward_v I I I I #
coedge $-1 $200 $201 $125 $202 forward $71 $-1 #
coedge $-1 $133 $73 $124 $202 reversed $45 $-1 #
coedge $-1 $131 $203 $73 $127 forward $122 $-1 #
edge $-1 $204 -11.840328012312453 $135 -2.1896802463447909 $126 $205 forward 7 unknown #
coedge $-1 $75 $74 $206 $207 reversed $29 $-1 #
coedge $-1 $208 $209 $74 $130 forward $210 $-1 #
edge $-1 $211 -40.970053852458591 $134 -23.380923986006273 $129 $212 forward 7 unknown #
coedge $-1 $213 $126 $75 $132 forward $122 $-1 #
edge $-1 $135 23.380923986006273 $214 40.970053852458591 $131 $215 forward 7 unknown #
coedge $-1 $76 $125 $208 $216 reversed $45 $-1 #
vertex $-1 $130 $217 #
vertex $-1 $132 $218 #
straight-curve $-1 -55.556412905238709 0 9.2046843756734127 0 -1 0 I I #
face $-1 $219 $220 $17 $-1 $221 forward single #
loop $-1 $-1 $146 $78 #
plane-surface $-1 73.145542771691026 0 0 -1 0 0 0 0 1 forward_v I I I I #
coedge $-1 $84 $222 $81 $143 forward $79 $-1 #
coedge $-1 $142 $81 $223 $224 reversed $49 $-1 #
coedge $-1 $81 $141 $82 $145 forward $49 $-1 #
edge $-1 $225 18.09613653179251 $149 37.027069281474382 $140 $226 forward 7 unknown #
coedge $-1 $83 $82 $227 $228 reversed $32 $-1 #
edge $-1 $229 3.4489252521598177e-014 $149 22.834830999608894 $142 $230 forward 7 unknown #
coedge $-1 $231 $232 $83 $147 forward $138 $-1 #
edge $-1 $150 -5.6292203798242628 $233 17.205610619784597 $146 $234 forward 7 unknown #
coedge $-1 $235 $84 $232 $236 forward $79 $-1 #
vertex $-1 $85 $237 #
vertex $-1 $236 $238 #
straight-curve $-1 29.979089005897592 -26.681732126817032 18.855332141641075 1 0 0 I I #
face $-1 $239 $240 $18 $-1 $241 forward single #
loop $-1 $-1 $242 $86 #
plane-surface $-1 46.770813251899327 -127.41760281658284 127.36706225694522 1 0 0 0 0.55919291073839883 -0.82903756765294845 forward_v I I I I #
loop $-1 $-1 $243 $52 #
coedge $-1 $156 $156 $-1 $244 forward $89 $-1 #
edge $-1 $245 0 $245 6.2831853071796004 $90 $246 forward 7 unknown #
vertex $-1 $93 $247 #
ellipse-curve $-1 54.30645025755409 -36.147198501657961 12.470794335195734 0 0.55919291073839883 -0.82903756765294845 2.5 0 0 1 I I #
face $-1 $248 $167 $19 $-1 $249 forward single #
loop $-1 $250 $251 $94 #
cone-surface $-1 54.30645025755409 -32.896624122503347 7.6516197265426023 0 0.55919291073839883 -0.82903756765294845 1.25 0 0 1 I I -0.70710678118654746 0.70710678118654746 1.25 forward I I I I #
loop $-1 $-1 $252 $57 #
coedge $-1 $164 $164 $253 $254 reversed $95 $-1 #
coedge $-1 $165 $165 $-1 $255 forward $97 $-1 #
edge $-1 $256 0 $256 6.2831853071796004 $98 $257 forward 7 unknown #
loop $-1 $258 $100 $160 #
vertex $-1 $101 $259 #
ellipse-curve $-1 65.609905766036263 -36.147198501657961 12.470794335195734 0 0.55919291073839883 -0.82903756765294845 2.5 0 0 1 I I #
face $-1 $-1 $117 $15 $-1 $260 reversed single #
loop $-1 $-1 $186 $102 #
plane-surface $-1 0 45.612664876498911 0 0 -1 0 0 0 -1 forward_v I I I I #
coedge $-1 $261 $184 $187 $262 forward $103 $-1 #
coedge $-1 $190 $105 $106 $178 reversed $63 $-1 #
coedge $-1 $184 $261 $105 $176 reversed $103 $-1 #
edge $-1 $191 -18.855332141641075 $263 18.855332141641075 $175 $264 forward 7 unknown #
coedge $-1 $107 $106 $261 $265 forward $41 $-1 #
edge $-1 $182 -73.145542771691026 $263 73.145542771691026 $174 $266 forward 7 unknown #
coedge $-1 $187 $186 $107 $180 reversed $171 $-1 #
edge $-1 $267 -73.145542771691026 $181 73.145542771691026 $179 $268 forward 7 unknown #
vertex $-1 $109 $269 #
vertex $-1 $193 $270 #
straight-curve $-1 73.145542771691026 0 -18.855332141641075 0 -1 0 I I #
coedge $-1 $173 $175 $110 $185 reversed $103 $-1 #
edge $-1 $188 -45.612664876498911 $191 45.612664876498911 $184 $271 forward 7 unknown #
coedge $-1 $179 $111 $116 $194 forward $171 $-1 #
coedge $-1 $111 $179 $173 $262 reversed $171 $-1 #
vertex $-1 $112 $272 #
straight-curve $-1 0 45.612664876498911 18.855332141641075 -1 0 0 I I #
coedge $-1 $113 $174 $115 $193 reversed $63 $-1 #
vertex $-1 $185 $273 #
straight-curve $-1 0 -45.612664876498911 18.855332141641075 1 0 0 I I #
edge $-1 $118 -18.855332141641075 $182 18.855332141641075 $115 $274 forward 7 unknown #
edge $-1 $119 -18.855332141641075 $181 18.855332141641075 $116 $275 forward 7 unknown #
point $-1 73.145542771691026 -45.612664876498911 18.855332141641075 #
point $-1 73.145542771691026 45.612664876498911 18.855332141641075 #
face $-1 $276 $277 $16 $-1 $278 reversed single #
loop $-1 $-1 $279 $121 #
plane-surface $-1 0 0 -18.855332141641075 0 0 1 1 0 0 forward_v I I I I #
coedge $-1 $280 $124 $203 $281 forward $71 $-1 #
coedge $-1 $124 $280 $282 $283 forward $71 $-1 #
edge $-1 $284 -45.612664876498911 $204 45.612664876498911 $124 $285 forward 7 unknown #
coedge $-1 $126 $286 $200 $281 reversed $122 $-1 #
vertex $-1 $281 $287 #
straight-curve $-1 -55.556412905238709 -45.612664876498911 7.0150041293286218 0 0 -1 I I #
coedge $-1 $288 $289 $128 $207 forward $277 $-1 #
edge $-1 $214 -45.612664876498911 $211 45.612664876498911 $206 $290 forward 7 unknown #
coedge $-1 $282 $129 $133 $216 forward $210 $-1 #
coedge $-1 $129 $291 $288 $292 reversed $210 $-1 #
loop $-1 $-1 $208 $276 #
vertex $-1 $292 $293 #
straight-curve $-1 -32.175488919232436 45.612664876498911 9.2046843756734127 1 0 0 I I #
coedge $-1 $294 $131 $289 $295 forward $122 $-1 #
vertex $-1 $295 $296 #
straight-curve $-1 -32.175488919232436 -45.612664876498911 9.2046843756734127 -1 0 0 I I #
edge $-1 $134 2.1896802463447909 $284 11.840328012312453 $208 $297 forward 7 unknown #
point $-1 -55.556412905238709 45.612664876498911 9.2046843756734127 #
point $-1 -55.556412905238709 -45.612664876498911 9.2046843756734127 #
face $-1 $298 $299 $17 $-1 $300 forward single #
loop $-1 $-1 $301 $137 #
plane-surface $-1 -64.350977838464871 0 9.2046843756734127 0 0 1 1 0 0 forward_v I I I I #
coedge $-1 $140 $302 $303 $304 forward $79 $-1 #
coedge $-1 $303 $227 $141 $224 forward $305 $-1 #
edge $-1 $229 -57.597274599722233 $225 -44.828198986831538 $223 $306 forward 7 unknown #
vertex $-1 $224 $307 #
straight-curve $-1 46.770813251899327 -63.708801408291421 18.855332141641071 0 1 0 I I #
coedge $-1 $223 $308 $144 $228 forward $305 $-1 #
edge $-1 $233 -43.166453765793449 $229 -16.791724246001735 $227 $309 forward 7 unknown #
vertex $-1 $228 $310 #
straight-curve $-1 46.770813251899327 -45.61266487649894 6.0862565287503543 0 0.82903756765294845 0.55919291073839883 I I #
coedge $-1 $311 $146 $308 $312 forward $138 $-1 #
coedge $-1 $146 $313 $148 $236 reversed $138 $-1 #
vertex $-1 $312 $314 #
straight-curve $-1 73.145542771691026 -31.348567298288948 15.70751201225923 0 -0.82903756765294845 -0.55919291073839883 I I #
coedge $-1 $302 $148 $315 $316 forward $79 $-1 #
edge $-1 $150 -26.681732126817035 $317 45.612664876498911 $232 $318 forward 7 unknown #
point $-1 46.770813251899327 -26.681732126817035 18.855332141641075 #
point $-1 73.145542771691041 -26.681732126817035 18.855332141641075 #
face $-1 $319 $320 $18 $-1 $321 reversed single #
loop $-1 $-1 $322 $152 #
plane-surface $-1 0 0 18.855332141641075 0 0 1 1 0 0 forward_v I I I I #
coedge $-1 $323 $324 $322 $325 reversed $153 $-1 #
coedge $-1 $326 $327 $328 $329 reversed $155 $-1 #
edge $-1 $330 1 $330 0 $156 $-1 forward 7 unknown #
vertex $-1 $157 $331 #
ellipse-curve $-1 54.30645025755409 -33.595615260926344 8.6879166861087871 0 -0.55919291073839883 0.82903756765294845 2.5 0 0 1 I I #
point $-1 56.80645025755409 -36.147198501657925 12.470794335195691 #
face $-1 $332 $333 $19 $-1 $334 forward single #
plane-surface $-1 59.958178011795184 -45.61266487649894 6.0862565287503543 0 -0.55919291073839883 0.82903756765294845 1 0 0 forward_v I I I I #
loop $-1 $-1 $335 $94 #
coedge $-1 $251 $251 $252 $336 forward $161 $-1 #
coedge $-1 $252 $252 $251 $336 reversed $163 $-1 #
coedge $-1 $253 $253 $164 $254 forward $258 $-1 #
edge $-1 $337 -2.2454013726313318e-015 $337 6.2831853071795978 $253 $338 forward 7 unknown #
edge $-1 $339 1 $339 0 $165 $-1 forward 7 unknown #
vertex $-1 $166 $340 #
ellipse-curve $-1 65.609905766036263 -33.595615260926344 8.6879166861087871 0 -0.55919291073839883 0.82903756765294845 2.5 0 0 1 I I #
loop $-1 $341 $253 $160 #
point $-1 68.109905766036263 -36.147198501657925 12.470794335195691 #
plane-surface $-1 73.145542771691026 0 0 -1 0 0 0 0 1 forward_v I I I I #
coedge $-1 $175 $173 $177 $265 reversed $103 $-1 #
edge $-1 $188 -18.855332141641075 $267 18.855332141641075 $187 $342 forward 7 unknown #
vertex $-1 $265 $343 #
straight-curve $-1 -73.145542771691026 -45.612664876498911 0 0 0 -1 I I #
edge $-1 $263 -45.612664876498911 $267 45.612664876498911 $261 $344 forward 7 unknown #
straight-curve $-1 0 -45.612664876498911 -18.855332141641075 -1 0 0 I I #
vertex $-1 $180 $345 #
straight-curve $-1 0 45.612664876498911 -18.855332141641075 1 0 0 I I #
point $-1 73.145542771691026 45.612664876498911 -18.855332141641075 #
point $-1 73.145542771691026 -45.612664876498911 -18.855332141641075 #
straight-curve $-1 -73.145542771691026 0 18.855332141641075 0 -1 0 I I #
point $-1 -73.145542771691026 45.612664876498911 18.855332141641075 #
point $-1 -73.145542771691026 -45.612664876498911 18.855332141641075 #
straight-curve $-1 73.145542771691026 -45.612664876498911 0 0 0 -1 I I #
straight-curve $-1 73.145542771691026 45.612664876498911 0 0 0 -1 I I #
face $-1 $346 $210 $16 $-1 $347 reversed single #
loop $-1 $-1 $206 $197 #
plane-surface $-1 -73.145542771691026 0 0 1 0 0 0 0 -1 forward_v I I I I #
coedge $-1 $348 $349 $350 $351 forward $198 $-1 #
coedge $-1 $201 $200 $352 $353 forward $71 $-1 #
edge $-1 $204 -55.556412905238709 $354 73.145542771691026 $203 $355 forward 7 unknown #
coedge $-1 $356 $208 $201 $283 reversed $210 $-1 #
edge $-1 $357 -73.145542771691026 $284 55.556412905238709 $282 $358 forward 7 unknown #
vertex $-1 $202 $359 #
straight-curve $-1 -55.556412905238709 0 18.855332141641075 0 -1 0 I I #
coedge $-1 $203 $294 $360 $361 reversed $122 $-1 #
point $-1 -55.556412905238709 -45.612664876498911 18.855332141641075 #
coedge $-1 $362 $206 $209 $292 forward $277 $-1 #
coedge $-1 $206 $362 $213 $295 reversed $277 $-1 #
straight-curve $-1 -73.145542771691026 0 9.2046843756734127 0 1 0 I I #
coedge $-1 $209 $356 $349 $363 reversed $210 $-1 #
edge $-1 $211 -9.2046843756734127 $364 18.855332141641075 $209 $365 forward 7 unknown #
point $-1 -73.145542771691026 45.612664876498911 9.2046843756734127 #
coedge $-1 $286 $213 $348 $366 reversed $122 $-1 #
edge $-1 $214 -9.2046843756734127 $367 18.855332141641075 $289 $368 forward 7 unknown #
point $-1 -73.145542771691026 -45.612664876498911 9.2046843756734127 #
straight-curve $-1 -55.556412905238709 45.612664876498911 7.0150041293286218 0 0 1 I I #
face $-1 $369 $305 $17 $-1 $370 reversed single #
loop $-1 $-1 $371 $219 #
plane-surface $-1 -55.556412905238709 0 14.030008258657244 -1 0 0 0 0 1 forward_v I I I I #
coedge $-1 $372 $373 $374 $375 reversed $220 $-1 #
coedge $-1 $222 $235 $376 $377 forward $79 $-1 #
coedge $-1 $378 $223 $222 $304 reversed $305 $-1 #
edge $-1 $379 -55.556412905238709 $225 46.770813251899327 $303 $380 forward 7 unknown #
loop $-1 $-1 $223 $298 #
straight-curve $-1 46.770813251899327 -45.612664876498911 63.683531128472609 0 0 1 I I #
point $-1 46.770813251899327 -45.612664876498911 18.855332141641075 #
coedge $-1 $227 $381 $231 $312 reversed $305 $-1 #
straight-curve $-1 29.979089005897592 -45.612664876498911 6.0862565287503738 -1 0 0 I I #
point $-1 46.770813251899327 -45.612664876498911 6.0862565287503738 #
coedge $-1 $313 $231 $382 $383 reversed $138 $-1 #
edge $-1 $233 -6.0862565287503738 $384 18.855332141641075 $231 $385 forward 7 unknown #
coedge $-1 $232 $311 $386 $387 reversed $138 $-1 #
point $-1 73.145542771691041 -45.612664876498911 6.0862565287503738 #
coedge $-1 $386 $388 $235 $316 reversed $389 $-1 #
edge $-1 $317 -73.145542771691026 $390 55.556412905238709 $315 $391 forward 7 unknown #
vertex $-1 $236 $392 #
straight-curve $-1 73.145542771691026 0 18.855332141641075 0 1 0 I I #
face $-1 $393 $394 $18 $-1 $395 forward single #
loop $-1 $-1 $396 $239 #
plane-surface $-1 73.145542771691026 0 0 -1 0 0 0 0 1 forward_v I I I I #
coedge $-1 $328 $397 $242 $325 forward $240 $-1 #
coedge $-1 $324 $242 $398 $399 reversed $153 $-1 #
coedge $-1 $242 $323 $326 $400 forward $153 $-1 #
edge $-1 $401 18.09613653179251 $402 37.027069281474382 $322 $403 forward 7 unknown #
coedge $-1 $404 $243 $324 $400 reversed $155 $-1 #
coedge $-1 $243 $404 $396 $405 reversed $155 $-1 #
coedge $-1 $406 $322 $243 $329 forward $240 $-1 #
edge $-1 $402 16.791724246001735 $407 43.166453765793449 $328 $408 forward 7 unknown #
vertex $-1 $244 $409 #
point $-1 56.80645025755409 -33.595615260926344 8.6879166861087871 #
face $-1 $410 $411 $19 $-1 $412 forward single #
loop $-1 $-1 $413 $248 #
plane-surface $-1 46.770813251899327 -127.41760281658284 127.36706225694522 1 0 0 0 0.55919291073839883 -0.82903756765294845 forward_v I I I I #
coedge $-1 $335 $335 $-1 $414 forward $250 $-1 #
edge $-1 $415 0 $415 6.2831853071796004 $251 $416 forward 7 unknown #
vertex $-1 $254 $417 #
ellipse-curve $-1 54.30645025755409 -36.147198501657961 12.470794335195734 0 0.55919291073839883 -0.82903756765294845 2.5 0 0 1 I I #
vertex $-1 $255 $418 #
point $-1 68.109905766036263 -33.595615260926344 8.6879166861087871 #
loop $-1 $-1 $419 $160 #
straight-curve $-1 -73.145542771691026 45.612664876498911 0 0 0 -1 I I #
point $-1 -73.145542771691026 -45.612664876498911 -18.855332141641075 #
straight-curve $-1 -73.145542771691026 0 -18.855332141641075 0 1 0 I I #
point $-1 -73.145542771691026 45.612664876498911 -18.855332141641075 #
face $-1 $-1 $420 $16 $-1 $421 reversed single #
plane-surface $-1 0 45.612664876498911 0 0 -1 0 0 0 -1 forward_v I I I I #
coedge $-1 $422 $279 $294 $366 forward $198 $-1 #
coedge $-1 $279 $422 $291 $363 forward $198 $-1 #
coedge $-1 $423 $360 $279 $351 reversed $420 $-1 #
edge $-1 $424 -45.612664876498911 $425 45.612664876498911 $350 $426 forward 7 unknown #
coedge $-1 $360 $423 $280 $353 reversed $420 $-1 #
edge $-1 $354 -45.612664876498911 $357 45.612664876498911 $352 $427 forward 7 unknown #
vertex $-1 $353 $428 #
straight-curve $-1 0 -45.612664876498911 18.855332141641075 1 0 0 I I #
coedge $-1 $291 $282 $423 $429 forward $210 $-1 #
vertex $-1 $353 $430 #
straight-curve $-1 0 45.612664876498911 18.855332141641075 -1 0 0 I I #
point $-1 -55.556412905238709 45.612664876498911 18.855332141641075 #
coedge $-1 $350 $352 $286 $361 forward $420 $-1 #
edge $-1 $354 -18.855332141641075 $425 18.855332141641075 $360 $431 forward 7 unknown #
coedge $-1 $289 $288 $422 $432 reversed $277 $-1 #
edge $-1 $364 -73.145542771691026 $424 73.145542771691026 $291 $433 forward 7 unknown #
vertex $-1 $363 $434 #
straight-curve $-1 -73.145542771691026 45.612664876498911 0 0 0 -1 I I #
edge $-1 $425 -73.145542771691026 $367 73.145542771691026 $294 $435 forward 7 unknown #
vertex $-1 $432 $436 #
straight-curve $-1 -73.145542771691026 -45.612664876498911 0 0 0 -1 I I #
face $-1 $437 $438 $17 $-1 $439 reversed single #
plane-surface $-1 0 -45.612664876498911 0 0 1 0 0 0 1 forward_v I I I I #
coedge $-1 $376 $374 $378 $440 reversed $299 $-1 #
coedge $-1 $441 $301 $442 $443 reversed $220 $-1 #
coedge $-1 $301 $441 $444 $445 reversed $220 $-1 #
coedge $-1 $371 $446 $301 $375 forward $299 $-1 #
edge $-1 $447 -45.612664876498911 $448 45.612664876498911 $374 $449 forward 7 unknown #
coedge $-1 $446 $371 $302 $377 reversed $299 $-1 #
edge $-1 $390 -45.612664876498911 $379 45.612664876498911 $302 $450 forward 7 unknown #
coedge $-1 $444 $303 $371 $440 forward $305 $-1 #
vertex $-1 $304 $451 #
straight-curve $-1 0 -45.612664876498911 18.855332141641075 1 0 0 I I #
coedge $-1 $308 $452 $453 $454 reversed $305 $-1 #
coedge $-1 $453 $455 $311 $383 forward $438 $-1 #
edge $-1 $456 -45.612664876498911 $384 45.612664876498911 $311 $457 forward 7 unknown #
vertex $-1 $312 $458 #
straight-curve $-1 73.145542771691026 -45.612664876498911 0 0 0 -1 I I #
coedge $-1 $459 $315 $313 $387 forward $389 $-1 #
edge $-1 $317 -18.855332141641075 $456 18.855332141641075 $313 $460 forward 7 unknown #
coedge $-1 $315 $442 $446 $461 forward $389 $-1 #
loop $-1 $-1 $388 $462 #
vertex $-1 $377 $463 #
straight-curve $-1 0 45.612664876498911 18.855332141641075 -1 0 0 I I #
point $-1 73.145542771691026 45.612664876498911 18.855332141641075 #
face $-1 $464 $465 $18 $-1 $466 forward single #
loop $-1 $-1 $467 $319 #
plane-surface $-1 -64.350977838464871 0 9.2046843756734127 0 0 1 1 0 0 forward_v I I I I #
coedge $-1 $468 $469 $327 $405 forward $320 $-1 #
coedge $-1 $322 $470 $471 $472 forward $240 $-1 #
coedge $-1 $471 $473 $323 $399 forward $474 $-1 #
edge $-1 $475 -57.597274599722233 $401 -44.828198986831538 $398 $476 forward 7 unknown #
edge $-1 $475 3.4489252521598177e-014 $402 22.834830999608894 $324 $477 forward 7 unknown #
vertex $-1 $399 $478 #
vertex $-1 $329 $479 #
straight-curve $-1 46.770813251899327 -63.708801408291421 18.855332141641071 0 1 0 I I #
coedge $-1 $327 $326 $473 $480 reversed $155 $-1 #
edge $-1 $407 -5.6292203798242628 $481 17.205610619784597 $396 $482 forward 7 unknown #
coedge $-1 $483 $328 $469 $484 forward $240 $-1 #
vertex $-1 $484 $485 #
straight-curve $-1 29.979089005897592 -26.681732126817032 18.855332141641075 1 0 0 I I #
point $-1 54.30645025755409 -32.19763298408035 6.6153227669764165 #
face $-1 $486 $487 $19 $-1 $488 reversed single #
loop $-1 $-1 $489 $332 #
plane-surface $-1 0 0 18.855332141641075 0 0 1 1 0 0 forward_v I I I I #
coedge $-1 $490 $491 $489 $492 reversed $333 $-1 #
edge $-1 $493 1 $493 0 $335 $-1 forward 7 unknown #
vertex $-1 $336 $494 #
ellipse-curve $-1 54.30645025755409 -33.595615260926344 8.6879166861087871 0 -0.55919291073839883 0.82903756765294845 2.5 0 0 1 I I #
point $-1 56.80645025755409 -36.147198501657925 12.470794335195691 #
point $-1 65.609905766036263 -32.19763298408035 6.6153227669764165 #
coedge $-1 $495 $496 $497 $498 reversed $341 $-1 #
loop $-1 $-1 $360 $346 #
plane-surface $-1 73.145542771691026 0 0 -1 0 0 0 0 1 forward_v I I I I #
coedge $-1 $349 $348 $362 $432 forward $198 $-1 #
coedge $-1 $352 $350 $356 $429 reversed $420 $-1 #
vertex $-1 $351 $499 #
vertex $-1 $361 $500 #
straight-curve $-1 73.145542771691026 0 -18.855332141641075 0 -1 0 I I #
straight-curve $-1 73.145542771691026 0 18.855332141641075 0 1 0 I I #
point $-1 73.145542771691026 -45.612664876498911 18.855332141641075 #
edge $-1 $357 -18.855332141641075 $424 18.855332141641075 $423 $501 forward 7 unknown #
point $-1 73.145542771691026 45.612664876498911 18.855332141641075 #
straight-curve $-1 73.145542771691026 -45.612664876498911 0 0 0 -1 I I #
edge $-1 $367 -45.612664876498911 $364 45.612664876498911 $362 $502 forward 7 unknown #
straight-curve $-1 0 45.612664876498911 -18.855332141641075 1 0 0 I I #
point $-1 -73.145542771691026 45.612664876498911 -18.855332141641075 #
straight-curve $-1 0 -45.612664876498911 -18.855332141641075 -1 0 0 I I #
point $-1 -73.145542771691026 -45.612664876498911 -18.855332141641075 #
face $-1 $462 $503 $17 $-1 $504 reversed single #
loop $-1 $-1 $382 $369 #
plane-surface $-1 0 0 -18.855332141641075 0 0 1 1 0 0 forward_v I I I I #
edge $-1 $379 -11.840328012312453 $448 -2.1896802463447909 $378 $505 forward 7 unknown #
coedge $-1 $373 $372 $506 $507 reversed $220 $-1 #
coedge $-1 $388 $508 $372 $443 forward $389 $-1 #
edge $-1 $509 -40.970053852458591 $447 -23.380923986006273 $442 $510 forward 7 unknown #
coedge $-1 $452 $378 $373 $445 forward $305 $-1 #
edge $-1 $448 23.380923986006273 $511 40.970053852458591 $444 $512 forward 7 unknown #
coedge $-1 $374 $376 $388 $461 reversed $299 $-1 #
vertex $-1 $443 $513 #
vertex $-1 $445 $514 #
straight-curve $-1 -55.556412905238709 0 9.2046843756734127 0 -1 0 I I #
straight-curve $-1 -55.556412905238709 0 18.855332141641075 0 -1 0 I I #
point $-1 -55.556412905238709 -45.612664876498911 18.855332141641075 #
coedge $-1 $381 $444 $515 $516 forward $305 $-1 #
coedge $-1 $517 $382 $381 $454 forward $438 $-1 #
edge $-1 $384 -73.145542771691026 $518 73.145542771691026 $381 $519 forward 7 unknown #
coedge $-1 $382 $517 $459 $520 forward $438 $-1 #
vertex $-1 $383 $521 #
straight-curve $-1 73.145542771691026 0 -18.855332141641075 0 -1 0 I I #
point $-1 73.145542771691026 -45.612664876498911 -18.855332141641075 #
coedge $-1 $508 $386 $455 $520 reversed $389 $-1 #
straight-curve $-1 73.145542771691026 45.612664876498911 0 0 0 -1 I I #
edge $-1 $447 2.1896802463447909 $390 11.840328012312453 $388 $522 forward 7 unknown #
face $-1 $-1 $389 $17 $-1 $523 reversed single #
point $-1 -55.556412905238709 45.612664876498911 18.855332141641075 #
face $-1 $524 $474 $18 $-1 $525 reversed single #
loop $-1 $-1 $526 $393 #
plane-surface $-1 -55.556412905238709 0 14.030008258657244 -1 0 0 0 0 1 forward_v I I I I #
coedge $-1 $527 $528 $529 $530 reversed $394 $-1 #
coedge $-1 $531 $396 $532 $533 forward $320 $-1 #
coedge $-1 $396 $534 $406 $484 reversed $320 $-1 #
coedge $-1 $397 $483 $535 $536 forward $240 $-1 #
coedge $-1 $537 $398 $397 $472 reversed $474 $-1 #
edge $-1 $538 -55.556412905238709 $401 46.770813251899327 $471 $539 forward 7 unknown #
coedge $-1 $398 $532 $404 $480 forward $474 $-1 #
loop $-1 $-1 $398 $464 #
vertex $-1 $480 $540 #
straight-curve $-1 46.770813251899327 -45.612664876498911 63.683531128472609 0 0 1 I I #
straight-curve $-1 46.770813251899327 -45.61266487649894 6.0862565287503543 0 0.82903756765294845 0.55919291073839883 I I #
point $-1 46.770813251899327 -45.612664876498911 18.855332141641075 #
point $-1 46.770813251899327 -26.681732126817035 18.855332141641075 #
edge $-1 $481 -43.166453765793449 $475 -16.791724246001735 $473 $541 forward 7 unknown #
vertex $-1 $533 $542 #
straight-curve $-1 73.145542771691026 -31.348567298288948 15.70751201225923 0 -0.82903756765294845 -0.55919291073839883 I I #
coedge $-1 $470 $406 $543 $544 forward $240 $-1 #
edge $-1 $407 -26.681732126817035 $545 45.612664876498911 $469 $546 forward 7 unknown #
point $-1 73.145542771691041 -26.681732126817035 18.855332141641075 #
face $-1 $547 $548 $19 $-1 $549 forward single #
loop $-1 $-1 $550 $410 #
plane-surface $-1 73.145542771691026 0 0 -1 0 0 0 0 1 forward_v I I I I #
coedge $-1 $497 $551 $413 $492 forward $411 $-1 #
coedge $-1 $491 $413 $552 $553 reversed $333 $-1 #
coedge $-1 $413 $490 $495 $554 forward $333 $-1 #
edge $-1 $555 18.09613653179251 $556 37.027069281474382 $489 $557 forward 7 unknown #
vertex $-1 $414 $558 #
point $-1 56.80645025755409 -33.595615260926344 8.6879166861087871 #
coedge $-1 $559 $419 $491 $554 reversed $341 $-1 #
coedge $-1 $419 $559 $550 $560 reversed $341 $-1 #
coedge $-1 $561 $489 $419 $498 forward $411 $-1 #
edge $-1 $556 16.791724246001735 $562 43.166453765793449 $497 $563 forward 7 unknown #
point $-1 73.145542771691026 45.612664876498911 -18.855332141641075 #
point $-1 73.145542771691026 -45.612664876498911 -18.855332141641075 #
straight-curve $-1 73.145542771691026 45.612664876498911 0 0 0 -1 I I #
straight-curve $-1 -73.145542771691026 0 -18.855332141641075 0 1 0 I I #
loop $-1 $-1 $506 $437 #
plane-surface $-1 -73.145542771691026 0 0 1 0 0 0 0 -1 forward_v I I I I #
straight-curve $-1 -55.556412905238709 -45.612664876498911 7.0150041293286218 0 0 -1 I I #
coedge $-1 $564 $515 $441 $507 forward $503 $-1 #
edge $-1 $511 -45.612664876498911 $509 45.612664876498911 $506 $565 forward 7 unknown #
coedge $-1 $442 $459 $564 $566 reversed $389 $-1 #
vertex $-1 $566 $567 #
straight-curve $-1 -32.175488919232436 45.612664876498911 9.2046843756734127 1 0 0 I I #
vertex $-1 $516 $568 #
straight-curve $-1 -32.175488919232436 -45.612664876498911 9.2046843756734127 -1 0 0 I I #
point $-1 -55.556412905238709 45.612664876498911 9.2046843756734127 #
point $-1 -55.556412905238709 -45.612664876498911 9.2046843756734127 #
coedge $-1 $506 $569 $452 $516 reversed $503 $-1 #
edge $-1 $511 -9.2046843756734127 $518 18.855332141641075 $515 $570 forward 7 unknown #
coedge $-1 $455 $453 $569 $571 forward $438 $-1 #
vertex $-1 $571 $572 #
straight-curve $-1 0 -45.612664876498911 -18.855332141641075 -1 0 0 I I #
edge $-1 $573 -73.145542771691026 $456 73.145542771691026 $459 $574 forward 7 unknown #
point $-1 73.145542771691026 45.612664876498911 -18.855332141641075 #
straight-curve $-1 -55.556412905238709 45.612664876498911 7.0150041293286218 0 0 1 I I #
plane-surface $-1 0 45.612664876498911 0 0 -1 0 0 0 -1 forward_v I I I I #
face $-1 $575 $576 $18 $-1 $577 reversed single #
plane-surface $-1 0 -45.612664876498911 0 0 1 0 0 0 1 forward_v I I I I #
coedge $-1 $535 $529 $537 $578 reversed $465 $-1 #
coedge $-1 $579 $467 $580 $581 reversed $394 $-1 #
coedge $-1 $467 $579 $582 $583 reversed $394 $-1 #
coedge $-1 $526 $584 $467 $530 forward $465 $-1 #
edge $-1 $585 -45.612664876498911 $586 45.612664876498911 $529 $587 forward 7 unknown #
coedge $-1 $534 $468 $588 $589 reversed $320 $-1 #
coedge $-1 $473 $590 $468 $533 reversed $474 $-1 #
edge $-1 $481 -6.0862565287503738 $591 18.855332141641075 $468 $592 forward 7 unknown #
coedge $-1 $469 $531 $593 $594 reversed $320 $-1 #
coedge $-1 $584 $526 $470 $536 reversed $465 $-1 #
edge $-1 $595 -45.612664876498911 $538 45.612664876498911 $470 $596 forward 7 unknown #
coedge $-1 $582 $471 $526 $578 forward $474 $-1 #
vertex $-1 $472 $597 #
straight-curve $-1 0 -45.612664876498911 18.855332141641075 1 0 0 I I #
point $-1 46.770813251899327 -45.612664876498911 6.0862565287503738 #
straight-curve $-1 29.979089005897592 -45.612664876498911 6.0862565287503738 -1 0 0 I I #
point $-1 73.145542771691041 -45.612664876498911 6.0862565287503738 #
coedge $-1 $593 $598 $483 $544 reversed $599 $-1 #
edge $-1 $545 -73.145542771691026 $595 55.556412905238709 $543 $600 forward 7 unknown #
vertex $-1 $484 $601 #
straight-curve $-1 73.145542771691026 0 18.855332141641075 0 1 0 I I #
face $-1 $602 $603 $19 $-1 $604 forward single #
loop $-1 $-1 $605 $486 #
plane-surface $-1 -64.350977838464871 0 9.2046843756734127 0 0 1 1 0 0 forward_v I I I I #
coedge $-1 $606 $607 $496 $560 forward $487 $-1 #
coedge $-1 $489 $608 $609 $610 forward $411 $-1 #
coedge $-1 $609 $611 $490 $553 forward $612 $-1 #
edge $-1 $613 -57.597274599722233 $555 -44.828198986831538 $552 $614 forward 7 unknown #
edge $-1 $613 3.4489252521598177e-014 $556 22.834830999608894 $491 $615 forward 7 unknown #
vertex $-1 $553 $616 #
vertex $-1 $498 $617 #
straight-curve $-1 46.770813251899327 -63.708801408291421 18.855332141641071 0 1 0 I I #
point $-1 54.30645025755409 -32.19763298408035 6.6153227669764165 #
coedge $-1 $496 $495 $611 $618 reversed $341 $-1 #
edge $-1 $562 -5.6292203798242628 $619 17.205610619784597 $550 $620 forward 7 unknown #
coedge $-1 $621 $497 $607 $622 forward $411 $-1 #
vertex $-1 $622 $623 #
straight-curve $-1 29.979089005897592 -26.681732126817032 18.855332141641075 1 0 0 I I #
coedge $-1 $569 $506 $508 $566 forward $503 $-1 #
straight-curve $-1 -73.145542771691026 0 9.2046843756734127 0 1 0 I I #
edge $-1 $509 -9.2046843756734127 $573 18.855332141641075 $508 $624 forward 7 unknown #
point $-1 -73.145542771691026 45.612664876498911 9.2046843756734127 #
point $-1 -73.145542771691026 -45.612664876498911 9.2046843756734127 #
coedge $-1 $515 $564 $517 $571 reversed $503 $-1 #
straight-curve $-1 -73.145542771691026 -45.612664876498911 0 0 0 -1 I I #
edge $-1 $518 -45.612664876498911 $573 45.612664876498911 $569 $625 forward 7 unknown #
point $-1 -73.145542771691026 -45.612664876498911 -18.855332141641075 #
vertex $-1 $520 $626 #
straight-curve $-1 0 45.612664876498911 -18.855332141641075 1 0 0 I I #
face $-1 $627 $628 $18 $-1 $629 reversed single #
loop $-1 $-1 $588 $524 #
plane-surface $-1 0 0 -18.855332141641075 0 0 1 1 0 0 forward_v I I I I #
edge $-1 $538 -11.840328012312453 $586 -2.1896802463447909 $537 $630 forward 7 unknown #
coedge $-1 $528 $527 $631 $632 reversed $394 $-1 #
coedge $-1 $598 $633 $527 $581 forward $599 $-1 #
edge $-1 $634 -40.970053852458591 $585 -23.380923986006273 $580 $635 forward 7 unknown #
coedge $-1 $636 $537 $528 $583 forward $474 $-1 #
edge $-1 $586 23.380923986006273 $637 40.970053852458591 $582 $638 forward 7 unknown #
coedge $-1 $529 $535 $598 $639 reversed $465 $-1 #
vertex $-1 $581 $640 #
vertex $-1 $583 $641 #
straight-curve $-1 -55.556412905238709 0 9.2046843756734127 0 -1 0 I I #
coedge $-1 $642 $643 $531 $589 forward $576 $-1 #
edge $-1 $644 -45.612664876498911 $591 45.612664876498911 $531 $645 forward 7 unknown #
coedge $-1 $532 $636 $642 $646 reversed $474 $-1 #
vertex $-1 $533 $647 #
straight-curve $-1 73.145542771691026 -45.612664876498911 0 0 0 -1 I I #
coedge $-1 $648 $543 $534 $594 forward $599 $-1 #
edge $-1 $545 -18.855332141641075 $644 18.855332141641075 $534 $649 forward 7 unknown #
vertex $-1 $536 $650 #
straight-curve $-1 -55.556412905238709 0 18.855332141641075 0 -1 0 I I #
point $-1 -55.556412905238709 -45.612664876498911 18.855332141641075 #
coedge $-1 $543 $580 $584 $639 forward $599 $-1 #
loop $-1 $-1 $598 $627 #
straight-curve $-1 0 45.612664876498911 18.855332141641075 -1 0 0 I I #
point $-1 73.145542771691026 45.612664876498911 18.855332141641075 #
face $-1 $651 $612 $19 $-1 $652 reversed single #
loop $-1 $-1 $653 $547 #
plane-surface $-1 -55.556412905238709 0 14.030008258657244 -1 0 0 0 0 1 forward_v I I I I #
coedge $-1 $654 $655 $656 $657 reversed $548 $-1 #
coedge $-1 $658 $550 $659 $660 forward $487 $-1 #
coedge $-1 $550 $661 $561 $622 reversed $487 $-1 #
coedge $-1 $551 $621 $662 $663 forward $411 $-1 #
coedge $-1 $664 $552 $551 $610 reversed $612 $-1 #
edge $-1 $665 -55.556412905238709 $555 46.770813251899327 $609 $666 forward 7 unknown #
coedge $-1 $552 $659 $559 $618 forward $612 $-1 #
loop $-1 $-1 $552 $602 #
vertex $-1 $618 $667 #
straight-curve $-1 46.770813251899327 -45.612664876498911 63.683531128472609 0 0 1 I I #
straight-curve $-1 46.770813251899327 -45.61266487649894 6.0862565287503543 0 0.82903756765294845 0.55919291073839883 I I #
point $-1 46.770813251899327 -45.612664876498911 18.855332141641075 #
point $-1 46.770813251899327 -26.681732126817035 18.855332141641075 #
edge $-1 $619 -43.166453765793449 $613 -16.791724246001735 $611 $668 forward 7 unknown #
vertex $-1 $660 $669 #
straight-curve $-1 73.145542771691026 -31.348567298288948 15.70751201225923 0 -0.82903756765294845 -0.55919291073839883 I I #
coedge $-1 $608 $561 $670 $671 forward $411 $-1 #
edge $-1 $562 -26.681732126817035 $672 45.612664876498911 $607 $673 forward 7 unknown #
point $-1 73.145542771691041 -26.681732126817035 18.855332141641075 #
straight-curve $-1 -73.145542771691026 45.612664876498911 0 0 0 -1 I I #
straight-curve $-1 -73.145542771691026 0 -18.855332141641075 0 1 0 I I #
point $-1 -73.145542771691026 45.612664876498911 -18.855332141641075 #
face $-1 $-1 $599 $18 $-1 $674 reversed single #
loop $-1 $-1 $631 $575 #
plane-surface $-1 -73.145542771691026 0 0 1 0 0 0 0 -1 forward_v I I I I #
straight-curve $-1 -55.556412905238709 -45.612664876498911 7.0150041293286218 0 0 -1 I I #
coedge $-1 $675 $676 $579 $632 forward $628 $-1 #
edge $-1 $637 -45.612664876498911 $634 45.612664876498911 $631 $677 forward 7 unknown #
coedge $-1 $580 $648 $675 $678 reversed $599 $-1 #
vertex $-1 $678 $679 #
straight-curve $-1 -32.175488919232436 45.612664876498911 9.2046843756734127 1 0 0 I I #
coedge $-1 $590 $582 $676 $680 forward $474 $-1 #
vertex $-1 $680 $681 #
straight-curve $-1 -32.175488919232436 -45.612664876498911 9.2046843756734127 -1 0 0 I I #
edge $-1 $585 2.1896802463447909 $595 11.840328012312453 $598 $682 forward 7 unknown #
point $-1 -55.556412905238709 45.612664876498911 9.2046843756734127 #
point $-1 -55.556412905238709 -45.612664876498911 9.2046843756734127 #
coedge $-1 $683 $588 $590 $646 forward $576 $-1 #
coedge $-1 $588 $683 $648 $684 forward $576 $-1 #
vertex $-1 $589 $685 #
straight-curve $-1 73.145542771691026 0 -18.855332141641075 0 -1 0 I I #
edge $-1 $591 -73.145542771691026 $686 73.145542771691026 $590 $687 forward 7 unknown #
point $-1 73.145542771691026 -45.612664876498911 -18.855332141641075 #
coedge $-1 $633 $593 $643 $684 reversed $599 $-1 #
straight-curve $-1 73.145542771691026 45.612664876498911 0 0 0 -1 I I #
point $-1 -55.556412905238709 45.612664876498911 18.855332141641075 #
face $-1 $688 $689 $19 $-1 $690 reversed single #
plane-surface $-1 0 -45.612664876498911 0 0 1 0 0 0 1 forward_v I I I I #
coedge $-1 $662 $656 $664 $691 reversed $603 $-1 #
coedge $-1 $692 $605 $693 $694 reversed $548 $-1 #
coedge $-1 $605 $692 $695 $696 reversed $548 $-1 #
coedge $-1 $653 $697 $605 $657 forward $603 $-1 #
edge $-1 $698 -45.612664876498911 $699 45.612664876498911 $656 $700 forward 7 unknown #
coedge $-1 $661 $606 $701 $702 reversed $487 $-1 #
coedge $-1 $611 $703 $606 $660 reversed $612 $-1 #
edge $-1 $619 -6.0862565287503738 $704 18.855332141641075 $606 $705 forward 7 unknown #
coedge $-1 $607 $658 $706 $707 reversed $487 $-1 #
coedge $-1 $697 $653 $608 $663 reversed $603 $-1 #
edge $-1 $708 -45.612664876498911 $665 45.612664876498911 $608 $709 forward 7 unknown #
coedge $-1 $695 $609 $653 $691 forward $612 $-1 #
vertex $-1 $610 $710 #
straight-curve $-1 0 -45.612664876498911 18.855332141641075 1 0 0 I I #
point $-1 46.770813251899327 -45.612664876498911 6.0862565287503738 #
straight-curve $-1 29.979089005897592 -45.612664876498911 6.0862565287503738 -1 0 0 I I #
point $-1 73.145542771691041 -45.612664876498911 6.0862565287503738 #
coedge $-1 $706 $711 $621 $671 reversed $712 $-1 #
edge $-1 $672 -73.145542771691026 $708 55.556412905238709 $670 $713 forward 7 unknown #
vertex $-1 $622 $714 #
straight-curve $-1 73.145542771691026 0 18.855332141641075 0 1 0 I I #
plane-surface $-1 0 45.612664876498911 0 0 -1 0 0 0 -1 forward_v I I I I #
coedge $-1 $715 $631 $633 $678 forward $628 $-1 #
coedge $-1 $631 $715 $636 $680 reversed $628 $-1 #
straight-curve $-1 -73.145542771691026 0 9.2046843756734127 0 1 0 I I #
edge $-1 $634 -9.2046843756734127 $716 18.855332141641075 $633 $717 forward 7 unknown #
point $-1 -73.145542771691026 45.612664876498911 9.2046843756734127 #
edge $-1 $637 -9.2046843756734127 $686 18.855332141641075 $676 $718 forward 7 unknown #
point $-1 -73.145542771691026 -45.612664876498911 9.2046843756734127 #
straight-curve $-1 -55.556412905238709 45.612664876498911 7.0150041293286218 0 0 1 I I #
coedge $-1 $643 $642 $715 $719 forward $576 $-1 #
edge $-1 $716 -73.145542771691026 $644 73.145542771691026 $648 $720 forward 7 unknown #
point $-1 73.145542771691026 45.612664876498911 -18.855332141641075 #
vertex $-1 $719 $721 #
straight-curve $-1 0 -45.612664876498911 -18.855332141641075 -1 0 0 I I #
face $-1 $722 $723 $19 $-1 $724 reversed single #
loop $-1 $-1 $701 $651 #
plane-surface $-1 0 0 -18.855332141641075 0 0 1 1 0 0 forward_v I I I I #
edge $-1 $665 -11.840328012312453 $699 -2.1896802463447909 $664 $725 forward 7 unknown #
coedge $-1 $655 $654 $726 $727 reversed $548 $-1 #
coedge $-1 $711 $728 $654 $694 forward $712 $-1 #
edge $-1 $729 -40.970053852458591 $698 -23.380923986006273 $693 $730 forward 7 unknown #
coedge $-1 $731 $664 $655 $696 forward $612 $-1 #
edge $-1 $699 23.380923986006273 $732 40.970053852458591 $695 $733 forward 7 unknown #
coedge $-1 $656 $662 $711 $734 reversed $603 $-1 #
vertex $-1 $694 $735 #
vertex $-1 $696 $736 #
straight-curve $-1 -55.556412905238709 0 9.2046843756734127 0 -1 0 I I #
coedge $-1 $737 $738 $658 $702 forward $689 $-1 #
edge $-1 $739 -45.612664876498911 $704 45.612664876498911 $658 $740 forward 7 unknown #
coedge $-1 $659 $731 $737 $741 reversed $612 $-1 #
vertex $-1 $660 $742 #
straight-curve $-1 73.145542771691026 -45.612664876498911 0 0 0 -1 I I #
coedge $-1 $743 $670 $661 $707 forward $712 $-1 #
edge $-1 $672 -18.855332141641075 $739 18.855332141641075 $661 $744 forward 7 unknown #
vertex $-1 $663 $745 #
straight-curve $-1 -55.556412905238709 0 18.855332141641075 0 -1 0 I I #
point $-1 -55.556412905238709 -45.612664876498911 18.855332141641075 #
coedge $-1 $670 $693 $697 $734 forward $712 $-1 #
loop $-1 $-1 $711 $722 #
straight-curve $-1 0 45.612664876498911 18.855332141641075 -1 0 0 I I #
point $-1 73.145542771691026 45.612664876498911 18.855332141641075 #
coedge $-1 $676 $675 $683 $719 reversed $628 $-1 #
vertex $-1 $684 $746 #
straight-curve $-1 -73.145542771691026 45.612664876498911 0 0 0 -1 I I #
straight-curve $-1 -73.145542771691026 -45.612664876498911 0 0 0 -1 I I #
edge $-1 $686 -45.612664876498911 $716 45.612664876498911 $715 $747 forward 7 unknown #
straight-curve $-1 0 45.612664876498911 -18.855332141641075 1 0 0 I I #
point $-1 -73.145542771691026 -45.612664876498911 -18.855332141641075 #
face $-1 $-1 $712 $19 $-1 $748 reversed single #
loop $-1 $-1 $726 $688 #
plane-surface $-1 -73.145542771691026 0 0 1 0 0 0 0 -1 forward_v I I I I #
straight-curve $-1 -55.556412905238709 -45.612664876498911 7.0150041293286218 0 0 -1 I I #
coedge $-1 $749 $750 $692 $727 forward $723 $-1 #
edge $-1 $732 -45.612664876498911 $729 45.612664876498911 $726 $751 forward 7 unknown #
coedge $-1 $693 $743 $749 $752 reversed $712 $-1 #
vertex $-1 $752 $753 #
straight-curve $-1 -32.175488919232436 45.612664876498911 9.2046843756734127 1 0 0 I I #
coedge $-1 $703 $695 $750 $754 forward $612 $-1 #
vertex $-1 $754 $755 #
straight-curve $-1 -32.175488919232436 -45.612664876498911 9.2046843756734127 -1 0 0 I I #
edge $-1 $698 2.1896802463447909 $708 11.840328012312453 $711 $756 forward 7 unknown #
point $-1 -55.556412905238709 45.612664876498911 9.2046843756734127 #
point $-1 -55.556412905238709 -45.612664876498911 9.2046843756734127 #
coedge $-1 $757 $701 $703 $741 forward $689 $-1 #
coedge $-1 $701 $757 $743 $758 forward $689 $-1 #
vertex $-1 $702 $759 #
straight-curve $-1 73.145542771691026 0 -18.855332141641075 0 -1 0 I I #
edge $-1 $704 -73.145542771691026 $760 73.145542771691026 $703 $761 forward 7 unknown #
point $-1 73.145542771691026 -45.612664876498911 -18.855332141641075 #
coedge $-1 $728 $706 $738 $758 reversed $712 $-1 #
straight-curve $-1 73.145542771691026 45.612664876498911 0 0 0 -1 I I #
point $-1 -55.556412905238709 45.612664876498911 18.855332141641075 #
point $-1 -73.145542771691026 45.612664876498911 -18.855332141641075 #
straight-curve $-1 -73.145542771691026 0 -18.855332141641075 0 1 0 I I #
plane-surface $-1 0 45.612664876498911 0 0 -1 0 0 0 -1 forward_v I I I I #
coedge $-1 $762 $726 $728 $752 forward $723 $-1 #
coedge $-1 $726 $762 $731 $754 reversed $723 $-1 #
straight-curve $-1 -73.145542771691026 0 9.2046843756734127 0 1 0 I I #
edge $-1 $729 -9.2046843756734127 $763 18.855332141641075 $728 $764 forward 7 unknown #
point $-1 -73.145542771691026 45.612664876498911 9.2046843756734127 #
edge $-1 $732 -9.2046843756734127 $760 18.855332141641075 $750 $765 forward 7 unknown #
point $-1 -73.145542771691026 -45.612664876498911 9.2046843756734127 #
straight-curve $-1 -55.556412905238709 45.612664876498911 7.0150041293286218 0 0 1 I I #
coedge $-1 $738 $737 $762 $766 forward $689 $-1 #
edge $-1 $763 -73.145542771691026 $739 73.145542771691026 $743 $767 forward 7 unknown #
point $-1 73.145542771691026 45.612664876498911 -18.855332141641075 #
vertex $-1 $766 $768 #
straight-curve $-1 0 -45.612664876498911 -18.855332141641075 -1 0 0 I I #
coedge $-1 $750 $749 $757 $766 reversed $723 $-1 #
vertex $-1 $758 $769 #
straight-curve $-1 -73.145542771691026 45.612664876498911 0 0 0 -1 I I #
straight-curve $-1 -73.145542771691026 -45.612664876498911 0 0 0 -1 I I #
edge $-1 $760 -45.612664876498911 $763 45.612664876498911 $762 $770 forward 7 unknown #
straight-curve $-1 0 45.612664876498911 -18.855332141641075 1 0 0 I I #
point $-1 -73.145542771691026 -45.612664876498911 -18.855332141641075 #
point $-1 -73.145542771691026 45.612664876498911 -18.855332141641075 #
straight-curve $-1 -73.145542771691026 0 -18.855332141641075 0 1 0 I I #
End-of-ACIS-data 