500 0 7 0           
7 Unknown 11 ACIS 5.0 NT 24 Fri Mar 26 19:53:04 1999 
-1 9.9999999999999995e-007 1e-010 
body $-1 $7 $-1 $8 #
body $-1 $9 $-1 $10 #
body $-1 $11 $-1 $12 #
body $-1 $13 $-1 $14 #
body $-1 $15 $-1 $16 #
body $-1 $17 $-1 $18 #
body $-1 $19 $-1 $20 #
lump $-1 $-1 $21 $0 #
transform $-1 1 0 0 0 1 0 0 0 1 77.526779992065187 31.373420068141229 11.139110438268631 1 rotate no_reflect no_shear #
lump $-1 $-1 $22 $1 #
transform $-1 1 0 0 0 1 0 0 0 1 77.526779992065187 31.373420068141229 11.139110438268631 1 rotate no_reflect no_shear #
lump $-1 $-1 $23 $2 #
transform $-1 1 0 0 0 1 0 0 0 1 77.526779992065187 31.373420068141229 11.139110438268631 1 rotate no_reflect no_shear #
lump $-1 $-1 $24 $3 #
transform $-1 1 0 0 0 1 0 0 0 1 77.526779992065187 31.373420068141229 11.139110438268631 1 rotate no_reflect no_shear #
lump $-1 $-1 $25 $4 #
transform $-1 1 0 0 0 1 0 0 0 1 77.526779992065187 31.373420068141229 11.139110438268631 1 rotate no_reflect no_shear #
lump $-1 $-1 $26 $5 #
transform $-1 1 0 0 0 1 0 0 0 1 77.526779992065187 31.373420068141229 11.139110438268631 1 rotate no_reflect no_shear #
lump $-1 $-1 $27 $6 #
transform $-1 1 0 0 0 1 0 0 0 1 77.526779992065187 31.373420068141229 11.139110438268631 1 rotate no_reflect no_shear #
shell $-1 $-1 $-1 $28 $-1 $7 #
shell $-1 $-1 $-1 $29 $-1 $9 #
shell $-1 $-1 $-1 $30 $-1 $11 #
shell $-1 $-1 $-1 $31 $-1 $13 #
shell $-1 $-1 $-1 $32 $-1 $15 #
shell $-1 $-1 $-1 $33 $-1 $17 #
shell $-1 $-1 $-1 $34 $-1 $19 #
face $-1 $35 $36 $21 $-1 $37 forward single #
face $-1 $38 $39 $22 $-1 $40 forward single #
face $-1 $41 $42 $23 $-1 $43 forward single #
face $-1 $44 $45 $24 $-1 $46 reversed single #
face $-1 $47 $48 $25 $-1 $49 forward single #
face $-1 $50 $51 $26 $-1 $52 reversed single #
face $-1 $53 $54 $27 $-1 $55 forward single #
face $-1 $56 $57 $21 $-1 $58 reversed single #
loop $-1 $-1 $59 $28 #
plane-surface $-1 0 0 11.139110438268631 0 0 1 1 0 0 forward_v I I I I #
face $-1 $60 $61 $22 $-1 $62 reversed single #
loop $-1 $-1 $63 $29 #
plane-surface $-1 0 -31.373420068141229 0 0 1 0 0 0 1 forward_v I I I I #
face $-1 $64 $65 $23 $-1 $66 reversed single #
loop $-1 $-1 $67 $30 #
plane-surface $-1 0 31.373420068141229 0 0 -1 0 0 0 -1 forward_v I I I I #
face $-1 $68 $69 $24 $-1 $70 reversed single #
loop $-1 $-1 $71 $31 #
plane-surface $-1 126.85379111049197 -7.4280027496503376 219.79555431400706 0 -1 0 -0.84804810408105047 0 -0.52991925155115449 forward_v I I I I #
face $-1 $72 $73 $25 $-1 $74 forward single #
loop $-1 $75 $76 $32 #
cone-surface $-1 74.799028581672033 -11.141905766393663 7.9100754245274718 -0.84804810408105047 0 -0.52991925155115449 0.52991925155115449 0 -0.84804810408105047 1 I I 0 1 1 forward I I I I #
face $-1 $77 $78 $26 $-1 $79 reversed single #
loop $-1 $-1 $80 $33 #
plane-surface $-1 126.85379111049197 9.7185700790452305 219.79555431400706 0 -1 0 -0.84804810408105047 0 -0.52991925155115449 forward_v I I I I #
face $-1 $81 $82 $27 $-1 $83 forward single #
loop $-1 $84 $85 $34 #
cone-surface $-1 74.799028581672033 6.0046670623019054 7.9100754245274718 -0.84804810408105047 0 -0.52991925155115449 0.52991925155115449 0 -0.84804810408105047 1 I I 0 1 1 forward I I I I #
face $-1 $86 $87 $21 $-1 $88 reversed single #
loop $-1 $-1 $89 $35 #
plane-surface $-1 0 0 -11.139110438268631 0 0 1 1 0 0 forward_v I I I I #
coedge $-1 $90 $91 $92 $93 forward $36 $-1 #
face $-1 $94 $95 $22 $-1 $96 reversed single #
loop $-1 $-1 $97 $38 #
plane-surface $-1 0 0 -11.139110438268631 0 0 1 1 0 0 forward_v I I I I #
coedge $-1 $98 $99 $100 $101 forward $39 $-1 #
face $-1 $102 $103 $23 $-1 $104 forward single #
loop $-1 $-1 $105 $41 #
plane-surface $-1 -77.526779992065187 0 0 1 0 0 0 0 -1 forward_v I I I I #
coedge $-1 $106 $107 $108 $109 forward $42 $-1 #
face $-1 $110 $111 $24 $-1 $112 reversed single #
loop $-1 $-1 $113 $44 #
plane-surface $-1 -4.6390864650672228 -11.141905766393663 137.62968785687465 0.84804810408105047 0 0.52991925155115449 0.52991925155115449 0 -0.84804810408105047 forward_v I I I I #
coedge $-1 $114 $115 $116 $117 reversed $45 $-1 #
face $-1 $-1 $118 $25 $-1 $119 forward single #
loop $-1 $120 $121 $47 #
cone-surface $-1 73.21014509579625 -11.141905766393663 6.917230863487319 -0.84804810408105047 0 -0.52991925155115449 0.26495962577557725 0 -0.42402405204052523 1 I I -0.70710678118654746 0.70710678118654746 0.5 forward I I I I #
loop $-1 $-1 $122 $32 #
coedge $-1 $76 $76 $123 $124 reversed $48 $-1 #
face $-1 $125 $126 $26 $-1 $127 reversed single #
loop $-1 $-1 $128 $50 #
plane-surface $-1 -4.6390864650672228 6.0046670623019054 137.62968785687465 0.84804810408105047 0 0.52991925155115449 0.52991925155115449 0 -0.84804810408105047 forward_v I I I I #
coedge $-1 $129 $130 $131 $132 reversed $51 $-1 #
face $-1 $-1 $133 $27 $-1 $134 forward single #
loop $-1 $135 $136 $53 #
cone-surface $-1 73.21014509579625 6.0046670623019054 6.917230863487319 -0.84804810408105047 0 -0.52991925155115449 0.26495962577557725 0 -0.42402405204052523 1 I I -0.70710678118654746 0.70710678118654746 0.5 forward I I I I #
loop $-1 $-1 $137 $34 #
coedge $-1 $85 $85 $138 $139 reversed $54 $-1 #
face $-1 $140 $141 $21 $-1 $142 reversed single #
loop $-1 $-1 $143 $56 #
plane-surface $-1 0 -31.373420068141229 0 0 1 0 0 0 1 forward_v I I I I #
coedge $-1 $144 $145 $146 $147 forward $57 $-1 #
coedge $-1 $148 $59 $149 $150 forward $36 $-1 #
coedge $-1 $59 $148 $151 $152 forward $36 $-1 #
coedge $-1 $153 $154 $59 $93 reversed $155 $-1 #
edge $-1 $156 -31.373420068141229 $157 31.373420068141229 $92 $158 forward 7 unknown #
face $-1 $159 $160 $22 $-1 $161 forward single #
loop $-1 $-1 $162 $60 #
plane-surface $-1 77.526779992065187 0 0 -1 0 0 0 0 1 forward_v I I I I #
coedge $-1 $163 $164 $165 $166 forward $61 $-1 #
coedge $-1 $165 $63 $162 $167 reversed $39 $-1 #
coedge $-1 $63 $165 $168 $169 reversed $39 $-1 #
coedge $-1 $170 $171 $63 $101 reversed $160 $-1 #
edge $-1 $172 -77.526779992065187 $173 77.526779992065187 $100 $174 forward 7 unknown #
face $-1 $175 $176 $23 $-1 $177 reversed single #
loop $-1 $-1 $178 $64 #
plane-surface $-1 0 38.486843687864052 -6.831344098608227 0 0 1 1 0 0 forward_v I I I I #
coedge $-1 $179 $180 $106 $181 forward $65 $-1 #
coedge $-1 $182 $67 $105 $181 reversed $42 $-1 #
coedge $-1 $67 $182 $183 $184 reversed $42 $-1 #
coedge $-1 $178 $185 $67 $109 reversed $103 $-1 #
edge $-1 $186 -77.526779992065187 $187 77.526779992065187 $108 $188 forward 7 unknown #
face $-1 $189 $190 $24 $-1 $191 forward single #
loop $-1 $-1 $192 $68 #
plane-surface $-1 126.85379111049197 -14.855808783136988 219.79555431400706 0 1 0 0.84804810408105047 0 0.52991925155115449 forward_v I I I I #
coedge $-1 $193 $194 $195 $196 reversed $69 $-1 #
coedge $-1 $115 $71 $197 $198 reversed $45 $-1 #
coedge $-1 $71 $114 $193 $199 reversed $45 $-1 #
coedge $-1 $195 $200 $71 $117 forward $190 $-1 #
edge $-1 $201 -14.099884436819202 $202 -10.974100483703374 $116 $203 forward 7 unknown #
loop $-1 $-1 $123 $72 #
plane-surface $-1 -4.6390864650672228 -11.141905766393663 137.62968785687465 0.84804810408105047 0 0.52991925155115449 0.52991925155115449 0 -0.84804810408105047 forward_v I I I I #
loop $-1 $-1 $204 $47 #
coedge $-1 $121 $121 $122 $205 reversed $73 $-1 #
coedge $-1 $122 $122 $121 $205 forward $75 $-1 #
coedge $-1 $123 $123 $76 $124 forward $118 $-1 #
edge $-1 $206 0 $206 6.2831853071796004 $123 $207 forward 7 unknown #
face $-1 $208 $209 $26 $-1 $210 reversed single #
loop $-1 $-1 $211 $77 #
plane-surface $-1 126.85379111049197 2.2907640455585803 219.79555431400706 0 1 0 0.84804810408105047 0 0.52991925155115449 forward_v I I I I #
coedge $-1 $212 $213 $214 $215 reversed $78 $-1 #
coedge $-1 $130 $80 $216 $217 reversed $51 $-1 #
coedge $-1 $80 $129 $212 $218 reversed $51 $-1 #
coedge $-1 $214 $219 $80 $132 forward $220 $-1 #
edge $-1 $221 -14.099884436819202 $222 -10.974100483703374 $131 $223 forward 7 unknown #
loop $-1 $-1 $138 $81 #
plane-surface $-1 -4.6390864650672228 6.0046670623019054 137.62968785687465 0.84804810408105047 0 0.52991925155115449 0.52991925155115449 0 -0.84804810408105047 forward_v I I I I #
loop $-1 $-1 $224 $53 #
coedge $-1 $136 $136 $137 $225 reversed $82 $-1 #
coedge $-1 $137 $137 $136 $225 forward $84 $-1 #
coedge $-1 $138 $138 $85 $139 forward $133 $-1 #
edge $-1 $226 0 $226 6.2831853071796004 $138 $227 forward 7 unknown #
face $-1 $228 $229 $21 $-1 $230 reversed single #
loop $-1 $-1 $231 $86 #
plane-surface $-1 -77.526779992065187 0 0 1 0 0 0 0 -1 forward_v I I I I #
coedge $-1 $232 $151 $233 $234 forward $87 $-1 #
coedge $-1 $235 $89 $232 $236 forward $57 $-1 #
coedge $-1 $89 $235 $237 $238 forward $57 $-1 #
coedge $-1 $154 $153 $89 $147 reversed $155 $-1 #
edge $-1 $239 -31.373420068141229 $240 31.373420068141229 $146 $241 forward 7 unknown #
coedge $-1 $91 $90 $242 $243 forward $36 $-1 #
coedge $-1 $244 $245 $90 $150 reversed $229 $-1 #
edge $-1 $157 -77.526779992065187 $246 77.526779992065187 $149 $247 forward 7 unknown #
coedge $-1 $143 $248 $91 $152 reversed $87 $-1 #
edge $-1 $249 -77.526779992065187 $156 77.526779992065187 $151 $250 forward 7 unknown #
coedge $-1 $146 $92 $248 $251 forward $155 $-1 #
coedge $-1 $92 $146 $244 $252 reversed $155 $-1 #
loop $-1 $-1 $153 $228 #
vertex $-1 $93 $253 #
vertex $-1 $93 $254 #
straight-curve $-1 77.526779992065187 0 11.139110438268631 0 1 0 I I #
face $-1 $255 $256 $22 $-1 $257 reversed single #
loop $-1 $-1 $171 $94 #
plane-surface $-1 0 -38.486843687864059 -6.831344098608227 0 0 1 1 0 0 forward_v I I I I #
coedge $-1 $258 $259 $98 $167 forward $95 $-1 #
coedge $-1 $260 $97 $259 $261 forward $61 $-1 #
coedge $-1 $97 $260 $262 $263 forward $61 $-1 #
coedge $-1 $99 $98 $97 $166 reversed $39 $-1 #
edge $-1 $264 -77.526779992065187 $265 77.526779992065187 $97 $266 forward 7 unknown #
edge $-1 $265 -11.139110438268631 $173 -6.831344098608227 $162 $267 forward 7 unknown #
coedge $-1 $262 $268 $99 $169 forward $269 $-1 #
edge $-1 $172 6.831344098608227 $264 11.139110438268631 $168 $270 forward 7 unknown #
coedge $-1 $271 $100 $268 $272 forward $160 $-1 #
coedge $-1 $100 $271 $258 $273 forward $160 $-1 #
vertex $-1 $169 $274 #
vertex $-1 $273 $275 #
straight-curve $-1 0 -31.373420068141229 -6.831344098608227 1 0 0 I I #
face $-1 $276 $277 $23 $-1 $278 reversed single #
loop $-1 $-1 $279 $102 #
plane-surface $-1 0 45.600267307586883 -8.9852272684384289 0 -1 0 0 0 -1 forward_v I I I I #
coedge $-1 $280 $108 $281 $282 forward $103 $-1 #
coedge $-1 $283 $105 $185 $284 reversed $65 $-1 #
coedge $-1 $105 $283 $285 $286 reversed $65 $-1 #
edge $-1 $287 -11.139110438268631 $187 -6.831344098608227 $105 $288 forward 7 unknown #
coedge $-1 $107 $106 $289 $290 reversed $42 $-1 #
coedge $-1 $291 $281 $107 $184 forward $292 $-1 #
edge $-1 $186 6.831344098608227 $293 11.139110438268631 $183 $294 forward 7 unknown #
coedge $-1 $108 $280 $179 $284 forward $103 $-1 #
vertex $-1 $184 $295 #
vertex $-1 $284 $296 #
straight-curve $-1 0 31.373420068141229 -6.831344098608227 -1 0 0 I I #
face $-1 $-1 $297 $24 $-1 $298 reversed single #
loop $-1 $-1 $116 $110 #
plane-surface $-1 0 0 11.139110438268631 0 0 1 1 0 0 forward_v I I I I #
coedge $-1 $299 $300 $301 $302 reversed $111 $-1 #
coedge $-1 $303 $113 $115 $199 forward $69 $-1 #
coedge $-1 $113 $303 $299 $304 forward $69 $-1 #
coedge $-1 $301 $116 $113 $196 forward $190 $-1 #
edge $-1 $202 1.8570498664535062 $305 9.2848558999401565 $195 $306 forward 7 unknown #
coedge $-1 $307 $308 $114 $198 forward $297 $-1 #
edge $-1 $309 -103.76096687568807 $201 -98.758666718734901 $197 $310 forward 7 unknown #
edge $-1 $202 149.15495572703614 $309 155.05355998413035 $115 $311 forward 7 unknown #
coedge $-1 $116 $301 $307 $312 forward $190 $-1 #
vertex $-1 $198 $313 #
vertex $-1 $117 $314 #
straight-curve $-1 63.426895555245984 -7.4280027496503376 11.139110438268631 -1 0 0 I I #
coedge $-1 $204 $204 $-1 $315 reversed $120 $-1 #
edge $-1 $316 0 $316 6.2831853071796004 $121 $317 forward 7 unknown #
vertex $-1 $124 $318 #
ellipse-curve $-1 75.963888015507266 -11.141905766393663 8.637960359792034 0.84804810408105047 0 0.52991925155115449 0.52991925155115449 0 -0.84804810408105047 1 I I #
face $-1 $-1 $220 $26 $-1 $319 forward single #
loop $-1 $-1 $320 $125 #
plane-surface $-1 77.526779992065187 0 0 -1 0 0 0 0 1 forward_v I I I I #
coedge $-1 $321 $322 $323 $324 reversed $126 $-1 #
coedge $-1 $325 $128 $130 $218 forward $78 $-1 #
coedge $-1 $128 $325 $321 $326 forward $78 $-1 #
coedge $-1 $323 $131 $128 $215 forward $220 $-1 #
edge $-1 $222 -6.7162365478942778 $327 0.71156948559237243 $214 $328 forward 7 unknown #
coedge $-1 $329 $330 $129 $217 forward $209 $-1 #
edge $-1 $331 -103.76096687568807 $221 -98.758666718734901 $216 $332 forward 7 unknown #
edge $-1 $222 149.15495572703614 $331 155.05355998413035 $130 $333 forward 7 unknown #
coedge $-1 $131 $323 $329 $334 forward $220 $-1 #
loop $-1 $-1 $323 $208 #
vertex $-1 $217 $335 #
vertex $-1 $132 $336 #
straight-curve $-1 63.426895555245984 9.7185700790452305 11.139110438268631 -1 0 0 I I #
coedge $-1 $224 $224 $-1 $337 reversed $135 $-1 #
edge $-1 $338 0 $338 6.2831853071796004 $136 $339 forward 7 unknown #
vertex $-1 $139 $340 #
ellipse-curve $-1 75.963888015507266 6.0046670623019054 8.637960359792034 0.84804810408105047 0 0.52991925155115449 0.52991925155115449 0 -0.84804810408105047 1 I I #
face $-1 $-1 $155 $21 $-1 $341 reversed single #
loop $-1 $-1 $244 $140 #
plane-surface $-1 0 31.373420068141229 0 0 -1 0 0 0 -1 forward_v I I I I #
coedge $-1 $342 $242 $245 $343 forward $141 $-1 #
coedge $-1 $248 $143 $144 $236 reversed $87 $-1 #
coedge $-1 $242 $342 $143 $234 reversed $141 $-1 #
edge $-1 $249 -11.139110438268631 $344 11.139110438268631 $233 $345 forward 7 unknown #
coedge $-1 $145 $144 $342 $346 forward $57 $-1 #
edge $-1 $240 -77.526779992065187 $344 77.526779992065187 $232 $347 forward 7 unknown #
coedge $-1 $245 $244 $145 $238 reversed $229 $-1 #
edge $-1 $348 -77.526779992065187 $239 77.526779992065187 $237 $349 forward 7 unknown #
vertex $-1 $147 $350 #
vertex $-1 $251 $351 #
straight-curve $-1 77.526779992065187 0 -11.139110438268631 0 -1 0 I I #
coedge $-1 $231 $233 $148 $243 reversed $141 $-1 #
edge $-1 $246 -31.373420068141229 $249 31.373420068141229 $242 $352 forward 7 unknown #
coedge $-1 $237 $149 $154 $252 forward $229 $-1 #
coedge $-1 $149 $237 $231 $343 reversed $229 $-1 #
vertex $-1 $150 $353 #
straight-curve $-1 0 31.373420068141229 11.139110438268631 -1 0 0 I I #
coedge $-1 $151 $232 $153 $251 reversed $87 $-1 #
vertex $-1 $243 $354 #
straight-curve $-1 0 -31.373420068141229 11.139110438268631 1 0 0 I I #
edge $-1 $156 -11.139110438268631 $240 11.139110438268631 $153 $355 forward 7 unknown #
edge $-1 $157 -11.139110438268631 $239 11.139110438268631 $154 $356 forward 7 unknown #
point $-1 77.526779992065187 -31.373420068141229 11.139110438268631 #
point $-1 77.526779992065187 31.373420068141229 11.139110438268631 #
face $-1 $-1 $269 $22 $-1 $357 reversed single #
loop $-1 $-1 $358 $159 #
plane-surface $-1 0 -45.60026730758689 -8.9852272684384289 0 1 0 0 0 1 forward_v I I I I #
coedge $-1 $359 $162 $171 $273 reversed $95 $-1 #
coedge $-1 $162 $359 $163 $261 reversed $95 $-1 #
coedge $-1 $164 $163 $360 $361 forward $61 $-1 #
edge $-1 $265 31.373420068141229 $362 45.60026730758689 $259 $363 forward 7 unknown #
coedge $-1 $364 $168 $164 $263 reversed $269 $-1 #
edge $-1 $365 -45.60026730758689 $264 -31.373420068141229 $262 $366 forward 7 unknown #
vertex $-1 $169 $367 #
vertex $-1 $261 $368 #
straight-curve $-1 0 -31.373420068141229 -11.139110438268631 1 0 0 I I #
straight-curve $-1 77.526779992065187 -31.373420068141229 0 0 0 1 I I #
coedge $-1 $168 $364 $170 $272 reversed $269 $-1 #
loop $-1 $-1 $168 $255 #
straight-curve $-1 -77.526779992065187 -31.373420068141229 0 0 0 -1 I I #
coedge $-1 $171 $170 $369 $370 forward $160 $-1 #
edge $-1 $172 -7.1134236197228304 $371 7.1134236197228304 $268 $372 forward 7 unknown #
edge $-1 $373 -7.1134236197228304 $173 7.1134236197228304 $258 $374 forward 7 unknown #
point $-1 -77.526779992065187 -31.373420068141229 -6.831344098608227 #
point $-1 77.526779992065187 -31.373420068141229 -6.831344098608227 #
face $-1 $-1 $292 $23 $-1 $375 reversed single #
loop $-1 $-1 $289 $175 #
plane-surface $-1 0 0 -11.139110438268631 0 0 1 1 0 0 forward_v I I I I #
coedge $-1 $376 $377 $378 $379 forward $176 $-1 #
coedge $-1 $185 $178 $377 $380 forward $103 $-1 #
coedge $-1 $183 $378 $178 $282 reversed $292 $-1 #
edge $-1 $186 -7.1134236197228304 $381 7.1134236197228304 $281 $382 forward 7 unknown #
coedge $-1 $180 $179 $383 $384 forward $65 $-1 #
edge $-1 $385 -7.1134236197228304 $187 7.1134236197228304 $179 $386 forward 7 unknown #
coedge $-1 $387 $289 $180 $286 forward $277 $-1 #
edge $-1 $287 -7.1134236197228233 $388 7.1134236197228304 $180 $389 forward 7 unknown #
vertex $-1 $286 $390 #
straight-curve $-1 -77.526779992065187 31.373420068141229 0 0 0 1 I I #
coedge $-1 $285 $391 $182 $290 forward $277 $-1 #
edge $-1 $293 -77.526779992065187 $287 77.526779992065187 $289 $392 forward 7 unknown #
coedge $-1 $378 $183 $391 $393 reversed $292 $-1 #
loop $-1 $-1 $183 $276 #
vertex $-1 $184 $394 #
straight-curve $-1 77.526779992065187 31.373420068141229 0 0 0 -1 I I #
point $-1 77.526779992065187 31.373420068141222 -6.831344098608227 #
point $-1 -77.526779992065187 31.373420068141222 -6.831344098608227 #
loop $-1 $-1 $197 $189 #
plane-surface $-1 77.526779992065187 0 0 -1 0 0 0 0 1 forward_v I I I I #
coedge $-1 $300 $192 $194 $304 reversed $111 $-1 #
coedge $-1 $192 $299 $395 $396 reversed $111 $-1 #
coedge $-1 $200 $195 $192 $302 forward $190 $-1 #
edge $-1 $305 10.974100483703374 $397 14.099884436819202 $301 $398 forward 7 unknown #
coedge $-1 $194 $193 $308 $399 reversed $69 $-1 #
edge $-1 $400 -155.05355998413035 $305 -149.15495572703614 $299 $401 forward 7 unknown #
vertex $-1 $196 $402 #
straight-curve $-1 74.400996038949359 -5.5709528831968314 11.139110438268631 0 -1 0 I I #
coedge $-1 $395 $197 $200 $312 reversed $297 $-1 #
coedge $-1 $197 $395 $303 $399 forward $297 $-1 #
vertex $-1 $198 $403 #
straight-curve $-1 77.526779992065187 -7.4280027496503376 109.89777715700353 0 0 1 I I #
straight-curve $-1 -4.6390864650672228 -7.4280027496503376 137.62968785687465 0.52991925155115449 0 -0.84804810408105047 I I #
edge $-1 $397 -14.855808783136988 $201 -7.4280027496503376 $307 $404 forward 7 unknown #
point $-1 77.526779992065187 -7.4280027496503376 11.139110438268631 #
point $-1 74.400996038949359 -7.4280027496503376 11.139110438268631 #
edge $-1 $405 1 $405 0 $204 $-1 forward 7 unknown #
vertex $-1 $205 $406 #
ellipse-curve $-1 73.634169147836772 -11.141905766393663 7.1821904892628963 0.84804810408105047 0 0.52991925155115449 0.52991925155115449 0 -0.84804810408105047 1 I I #
point $-1 76.493807267058443 -11.141905766393663 7.7899122557109974 #
plane-surface $-1 0 0 11.139110438268631 0 0 1 1 0 0 forward_v I I I I #
coedge $-1 $330 $329 $322 $407 forward $209 $-1 #
coedge $-1 $322 $211 $213 $326 reversed $126 $-1 #
coedge $-1 $211 $321 $320 $407 reversed $126 $-1 #
coedge $-1 $219 $214 $211 $324 forward $220 $-1 #
edge $-1 $327 10.974100483703374 $408 14.099884436819202 $323 $409 forward 7 unknown #
coedge $-1 $213 $212 $330 $410 reversed $78 $-1 #
edge $-1 $411 -155.05355998413035 $327 -149.15495572703614 $321 $412 forward 7 unknown #
vertex $-1 $215 $413 #
straight-curve $-1 74.400996038949359 3.0023335311509527 11.139110438268631 0 -1 0 I I #
coedge $-1 $320 $216 $219 $334 reversed $209 $-1 #
coedge $-1 $216 $320 $325 $410 forward $209 $-1 #
vertex $-1 $217 $414 #
straight-curve $-1 77.526779992065187 9.7185700790452305 109.89777715700353 0 0 1 I I #
straight-curve $-1 -4.6390864650672228 9.7185700790452305 137.62968785687465 0.52991925155115449 0 -0.84804810408105047 I I #
edge $-1 $408 2.2907640455585803 $221 9.7185700790452305 $329 $415 forward 7 unknown #
point $-1 77.526779992065187 9.7185700790452305 11.139110438268631 #
point $-1 74.400996038949359 9.7185700790452305 11.139110438268631 #
edge $-1 $416 1 $416 0 $224 $-1 forward 7 unknown #
vertex $-1 $225 $417 #
ellipse-curve $-1 73.634169147836772 6.0046670623019054 7.1821904892628963 0.84804810408105047 0 0.52991925155115449 0.52991925155115449 0 -0.84804810408105047 1 I I #
point $-1 76.493807267058443 6.0046670623019054 7.7899122557109974 #
plane-surface $-1 77.526779992065187 0 0 -1 0 0 0 0 1 forward_v I I I I #
coedge $-1 $233 $231 $235 $346 reversed $141 $-1 #
edge $-1 $246 -11.139110438268631 $348 11.139110438268631 $245 $418 forward 7 unknown #
vertex $-1 $346 $419 #
straight-curve $-1 -77.526779992065187 -31.373420068141229 0 0 0 -1 I I #
edge $-1 $344 -31.373420068141229 $348 31.373420068141229 $342 $420 forward 7 unknown #
straight-curve $-1 0 -31.373420068141229 -11.139110438268631 -1 0 0 I I #
vertex $-1 $238 $421 #
straight-curve $-1 0 31.373420068141229 -11.139110438268631 1 0 0 I I #
point $-1 77.526779992065187 31.373420068141229 -11.139110438268631 #
point $-1 77.526779992065187 -31.373420068141229 -11.139110438268631 #
straight-curve $-1 -77.526779992065187 0 11.139110438268631 0 -1 0 I I #
point $-1 -77.526779992065187 31.373420068141229 11.139110438268631 #
point $-1 -77.526779992065187 -31.373420068141229 11.139110438268631 #
straight-curve $-1 77.526779992065187 -31.373420068141229 0 0 0 -1 I I #
straight-curve $-1 77.526779992065187 31.373420068141229 0 0 0 -1 I I #
plane-surface $-1 -77.526779992065187 0 0 1 0 0 0 0 -1 forward_v I I I I #
coedge $-1 $360 $369 $364 $422 forward $256 $-1 #
coedge $-1 $259 $258 $423 $424 forward $95 $-1 #
coedge $-1 $423 $358 $260 $361 reversed $256 $-1 #
edge $-1 $362 -77.526779992065187 $365 77.526779992065187 $360 $425 forward 7 unknown #
vertex $-1 $424 $426 #
straight-curve $-1 77.526779992065187 0 -11.139110438268631 0 -1 0 I I #
coedge $-1 $268 $262 $358 $422 reversed $269 $-1 #
vertex $-1 $263 $427 #
straight-curve $-1 -77.526779992065187 0 -11.139110438268631 0 1 0 I I #
point $-1 -77.526779992065187 -31.373420068141229 -11.139110438268631 #
point $-1 77.526779992065187 -31.373420068141229 -11.139110438268631 #
coedge $-1 $358 $423 $271 $370 reversed $256 $-1 #
edge $-1 $371 -77.526779992065187 $373 77.526779992065187 $369 $428 forward 7 unknown #
vertex $-1 $272 $429 #
straight-curve $-1 -77.526779992065187 -38.486843687864059 -6.831344098608227 0 -1 0 I I #
vertex $-1 $273 $430 #
straight-curve $-1 77.526779992065187 -38.486843687864059 -6.831344098608227 0 1 0 I I #
plane-surface $-1 77.526779992065187 0 0 -1 0 0 0 0 1 forward_v I I I I #
coedge $-1 $383 $279 $387 $431 reversed $176 $-1 #
coedge $-1 $279 $383 $280 $380 reversed $176 $-1 #
coedge $-1 $281 $291 $279 $379 reversed $292 $-1 #
edge $-1 $381 -2.1538831698302019 $432 2.1538831698302019 $378 $433 forward 7 unknown #
edge $-1 $381 -77.526779992065187 $385 77.526779992065187 $377 $434 forward 7 unknown #
vertex $-1 $282 $435 #
straight-curve $-1 77.526779992065187 38.486843687864052 -6.831344098608227 0 1 0 I I #
coedge $-1 $377 $376 $283 $384 reversed $176 $-1 #
edge $-1 $385 -2.1538831698302019 $388 2.1538831698302019 $383 $436 forward 7 unknown #
vertex $-1 $380 $437 #
straight-curve $-1 -77.526779992065187 38.486843687864052 -6.831344098608227 0 -1 0 I I #
coedge $-1 $391 $285 $376 $431 forward $277 $-1 #
vertex $-1 $431 $438 #
straight-curve $-1 -77.526779992065187 38.486843687864052 -11.139110438268631 0 1 0 I I #
point $-1 -77.526779992065187 31.373420068141229 -11.139110438268631 #
coedge $-1 $289 $387 $291 $393 forward $277 $-1 #
straight-curve $-1 0 31.373420068141229 -11.139110438268631 -1 0 0 I I #
edge $-1 $432 -45.600267307586883 $293 -31.373420068141229 $291 $439 forward 7 unknown #
point $-1 77.526779992065187 31.373420068141229 -11.139110438268631 #
coedge $-1 $308 $307 $300 $396 forward $297 $-1 #
edge $-1 $397 98.758666718734901 $400 103.76096687568807 $395 $440 forward 7 unknown #
vertex $-1 $312 $441 #
straight-curve $-1 63.426895555245984 -14.855808783136988 11.139110438268631 1 0 0 I I #
edge $-1 $400 -9.2848558999401565 $309 -1.8570498664535062 $308 $442 forward 7 unknown #
vertex $-1 $399 $443 #
straight-curve $-1 -4.6390864650672228 -14.855808783136988 137.62968785687465 -0.52991925155115449 0 0.84804810408105047 I I #
point $-1 74.400996038949359 -14.855808783136988 11.139110438268631 #
point $-1 77.526779992065187 -7.4280027496503376 6.1368102813154621 #
straight-curve $-1 77.526779992065187 0 11.139110438268631 0 1 0 I I #
vertex $-1 $315 $444 #
point $-1 74.164088399387936 -11.141905766393663 6.3341423851818455 #
edge $-1 $408 98.758666718734901 $411 103.76096687568807 $320 $445 forward 7 unknown #
vertex $-1 $334 $446 #
straight-curve $-1 63.426895555245984 2.2907640455585803 11.139110438268631 1 0 0 I I #
edge $-1 $411 -0.71156948559237243 $331 6.7162365478942778 $330 $447 forward 7 unknown #
vertex $-1 $410 $448 #
straight-curve $-1 -4.6390864650672228 2.2907640455585803 137.62968785687465 -0.52991925155115449 0 0.84804810408105047 I I #
point $-1 74.400996038949359 2.2907640455585803 11.139110438268631 #
point $-1 77.526779992065187 9.7185700790452305 6.1368102813154621 #
straight-curve $-1 77.526779992065187 0 11.139110438268631 0 1 0 I I #
vertex $-1 $337 $449 #
point $-1 74.164088399387936 6.0046670623019054 6.3341423851818455 #
straight-curve $-1 -77.526779992065187 31.373420068141229 0 0 0 -1 I I #
point $-1 -77.526779992065187 -31.373420068141229 -11.139110438268631 #
straight-curve $-1 -77.526779992065187 0 -11.139110438268631 0 1 0 I I #
point $-1 -77.526779992065187 31.373420068141229 -11.139110438268631 #
edge $-1 $371 -2.1538831698302019 $365 2.1538831698302019 $364 $450 forward 7 unknown #
coedge $-1 $369 $360 $359 $424 reversed $256 $-1 #
edge $-1 $373 -2.1538831698302019 $362 2.1538831698302019 $359 $451 forward 7 unknown #
straight-curve $-1 0 -45.60026730758689 -11.139110438268631 -1 0 0 I I #
point $-1 77.526779992065187 -45.60026730758689 -11.139110438268631 #
point $-1 -77.526779992065187 -45.60026730758689 -11.139110438268631 #
straight-curve $-1 0 -45.60026730758689 -6.831344098608227 1 0 0 I I #
point $-1 -77.526779992065187 -45.60026730758689 -6.831344098608227 #
point $-1 77.526779992065187 -45.60026730758689 -6.831344098608227 #
edge $-1 $388 -77.526779992065187 $432 77.526779992065187 $376 $452 forward 7 unknown #
vertex $-1 $393 $453 #
straight-curve $-1 77.526779992065187 45.600267307586883 -8.9852272684384289 0 0 -1 I I #
straight-curve $-1 0 45.600267307586883 -6.831344098608227 -1 0 0 I I #
point $-1 77.526779992065187 45.600267307586883 -6.831344098608227 #
straight-curve $-1 -77.526779992065187 45.600267307586883 -8.9852272684384289 0 0 -1 I I #
point $-1 -77.526779992065187 45.600267307586883 -6.831344098608227 #
point $-1 -77.526779992065187 45.600267307586883 -11.139110438268631 #
straight-curve $-1 77.526779992065187 0 -11.139110438268631 0 -1 0 I I #
straight-curve $-1 77.526779992065187 -14.855808783136988 109.89777715700353 0 0 -1 I I #
point $-1 77.526779992065187 -14.855808783136988 11.139110438268631 #
straight-curve $-1 77.526779992065187 -5.5709528831968314 6.1368102813154763 0 1 0 I I #
point $-1 77.526779992065187 -14.855808783136988 6.1368102813154621 #
point $-1 72.786121043755728 -11.141905766393663 6.6522712377117417 #
straight-curve $-1 77.526779992065187 2.2907640455585803 109.89777715700353 0 0 -1 I I #
point $-1 77.526779992065187 2.2907640455585803 11.139110438268631 #
straight-curve $-1 77.526779992065187 3.0023335311509527 6.1368102813154763 0 1 0 I I #
point $-1 77.526779992065187 2.2907640455585803 6.1368102813154621 #
point $-1 72.786121043755728 6.0046670623019054 6.6522712377117417 #
straight-curve $-1 -77.526779992065187 -45.60026730758689 -8.9852272684384289 0 0 -1 I I #
straight-curve $-1 77.526779992065187 -45.60026730758689 -8.9852272684384289 0 0 -1 I I #
straight-curve $-1 0 45.600267307586883 -11.139110438268631 1 0 0 I I #
point $-1 77.526779992065187 45.600267307586883 -11.139110438268631 #
End-of-ACIS-data 