500 0 6 0           
7 Unknown 11 ACIS 5.0 NT 24 Fri Mar 26 17:30:00 1999 
-1 9.9999999999999995e-007 1e-010 
body $-1 $6 $-1 $7 #
body $-1 $8 $-1 $9 #
body $-1 $10 $-1 $11 #
body $-1 $12 $-1 $13 #
body $-1 $14 $-1 $15 #
body $-1 $16 $-1 $17 #
lump $-1 $-1 $18 $0 #
transform $-1 1 0 0 0 1 0 0 0 1 44.419080172124396 28.701257091838414 8.2631626034509136 1 rotate no_reflect no_shear #
lump $-1 $-1 $19 $1 #
transform $-1 1 0 0 0 1 0 0 0 1 44.419080172124396 28.701257091838414 8.2631626034509136 1 rotate no_reflect no_shear #
lump $-1 $-1 $20 $2 #
transform $-1 1 0 0 0 1 0 0 0 1 44.419080172124396 28.701257091838414 8.2631626034509136 1 rotate no_reflect no_shear #
lump $-1 $-1 $21 $3 #
transform $-1 1 0 0 0 1 0 0 0 1 44.419080172124396 28.701257091838414 8.2631626034509136 1 rotate no_reflect no_shear #
lump $-1 $-1 $22 $4 #
transform $-1 1 0 0 0 1 0 0 0 1 44.419080172124396 28.701257091838414 8.2631626034509136 1 rotate no_reflect no_shear #
lump $-1 $-1 $23 $5 #
transform $-1 1 0 0 0 1 0 0 0 1 44.419080172124396 28.701257091838414 8.2631626034509136 1 rotate no_reflect no_shear #
shell $-1 $-1 $-1 $24 $-1 $6 #
shell $-1 $-1 $-1 $25 $-1 $8 #
shell $-1 $-1 $-1 $26 $-1 $10 #
shell $-1 $-1 $-1 $27 $-1 $12 #
shell $-1 $-1 $-1 $28 $-1 $14 #
shell $-1 $-1 $-1 $29 $-1 $16 #
face $-1 $30 $31 $18 $-1 $32 reversed single #
face $-1 $33 $34 $19 $-1 $35 forward single #
face $-1 $36 $37 $20 $-1 $38 reversed single #
face $-1 $39 $40 $21 $-1 $41 forward single #
face $-1 $42 $43 $22 $-1 $44 reversed single #
face $-1 $45 $46 $23 $-1 $47 forward single #
face $-1 $48 $49 $18 $-1 $50 forward single #
loop $-1 $-1 $51 $24 #
plane-surface $-1 -44.419080172124396 0 0 1 0 0 0 0 -1 forward_v I I I I #
face $-1 $52 $53 $19 $-1 $54 reversed single #
loop $-1 $-1 $55 $25 #
plane-surface $-1 -44.419080172124396 0 0 1 0 0 0 0 -1 forward_v I I I I #
face $-1 $56 $57 $20 $-1 $58 reversed single #
loop $-1 $-1 $59 $26 #
plane-surface $-1 -23.584821766145581 -88.145589905720698 68.742675121159209 -1 0 0 0 -0.66913061440640931 0.74314481823134659 forward_v I I I I #
face $-1 $60 $61 $21 $-1 $62 forward single #
loop $-1 $63 $64 $27 #
cone-surface $-1 -29.663234546732554 -24.110247037589577 3.811026355419338 0 0.66913061440640931 -0.74314481823134659 2 0 0 1 I I 0 1 2 forward I I I I #
face $-1 $65 $66 $22 $-1 $67 reversed single #
loop $-1 $-1 $68 $28 #
plane-surface $-1 38.340667391537423 -28.7012570918384 2.7230566001252186 0 -0.66913061440640931 0.74314481823134659 1 0 0 forward_v I I I I #
face $-1 $69 $70 $23 $-1 $71 forward single #
loop $-1 $72 $73 $29 #
cone-surface $-1 38.340667391537423 -24.110247037589577 3.811026355419338 0 0.66913061440640931 -0.74314481823134659 2 0 0 1 I I 0 1 2 forward I I I I #
face $-1 $74 $75 $18 $-1 $76 reversed single #
loop $-1 $-1 $77 $30 #
plane-surface $-1 0 0 8.2631626034509136 0 0 1 1 0 0 forward_v I I I I #
coedge $-1 $78 $79 $80 $81 reversed $31 $-1 #
face $-1 $82 $83 $19 $-1 $84 reversed single #
loop $-1 $-1 $85 $33 #
plane-surface $-1 0 0 -8.2631626034509136 0 0 1 1 0 0 forward_v I I I I #
coedge $-1 $86 $87 $88 $89 forward $34 $-1 #
face $-1 $90 $91 $20 $-1 $92 reversed single #
loop $-1 $-1 $93 $36 #
plane-surface $-1 -29.663234546732554 -28.7012570918384 2.7230566001252186 0 -0.66913061440640931 0.74314481823134659 1 0 0 forward_v I I I I #
coedge $-1 $94 $95 $96 $97 reversed $37 $-1 #
face $-1 $-1 $98 $21 $-1 $99 forward single #
loop $-1 $100 $101 $39 #
cone-surface $-1 -29.663234546732554 -21.926561832324065 1.3857982908192579 0 0.66913061440640931 -0.74314481823134659 1 0 0 1 I I -0.70710678118654746 0.70710678118654746 1 forward I I I I #
loop $-1 $-1 $102 $27 #
coedge $-1 $64 $64 $103 $104 reversed $40 $-1 #
face $-1 $105 $106 $22 $-1 $107 reversed single #
loop $-1 $-1 $108 $42 #
plane-surface $-1 32.26225461095045 -88.145589905720698 68.742675121159209 1 0 0 0 0.66913061440640931 -0.74314481823134659 forward_v I I I I #
coedge $-1 $109 $110 $111 $112 reversed $43 $-1 #
face $-1 $-1 $113 $23 $-1 $114 forward single #
loop $-1 $115 $116 $45 #
cone-surface $-1 38.340667391537423 -21.926561832324065 1.3857982908192579 0 0.66913061440640931 -0.74314481823134659 1 0 0 1 I I -0.70710678118654746 0.70710678118654746 1 forward I I I I #
loop $-1 $-1 $117 $29 #
coedge $-1 $73 $73 $118 $119 reversed $46 $-1 #
face $-1 $120 $121 $18 $-1 $122 reversed single #
loop $-1 $-1 $123 $48 #
plane-surface $-1 0 0 -8.2631626034509136 0 0 1 1 0 0 forward_v I I I I #
coedge $-1 $124 $125 $126 $127 forward $49 $-1 #
coedge $-1 $128 $51 $129 $130 reversed $31 $-1 #
coedge $-1 $51 $128 $131 $132 forward $31 $-1 #
coedge $-1 $133 $134 $51 $81 forward $75 $-1 #
edge $-1 $135 -28.701257091838414 $136 28.701257091838414 $51 $137 forward 7 unknown #
face $-1 $138 $139 $19 $-1 $140 reversed single #
loop $-1 $-1 $141 $52 #
plane-surface $-1 -48.75779659452683 -16.215501638959008 0 0 1 0 0 0 1 forward_v I I I I #
coedge $-1 $142 $143 $87 $144 forward $53 $-1 #
coedge $-1 $145 $55 $146 $147 reversed $34 $-1 #
coedge $-1 $55 $145 $85 $144 reversed $34 $-1 #
coedge $-1 $148 $149 $55 $89 reversed $150 $-1 #
edge $-1 $151 -8.2631626034509136 $152 8.2631626034509136 $88 $153 forward 7 unknown #
face $-1 $154 $155 $20 $-1 $156 forward single #
loop $-1 $-1 $157 $56 #
plane-surface $-1 -35.741647327319527 -88.145589905720698 68.742675121159209 1 0 0 0 0.66913061440640931 -0.74314481823134659 forward_v I I I I #
coedge $-1 $158 $159 $160 $161 reversed $57 $-1 #
coedge $-1 $95 $59 $162 $163 reversed $37 $-1 #
coedge $-1 $59 $94 $158 $164 reversed $37 $-1 #
coedge $-1 $160 $165 $59 $97 forward $155 $-1 #
edge $-1 $166 15.371537861021935 $167 21.524448787801433 $96 $168 forward 7 unknown #
loop $-1 $-1 $103 $60 #
plane-surface $-1 -29.663234546732554 -28.7012570918384 2.7230566001252186 0 -0.66913061440640931 0.74314481823134659 1 0 0 forward_v I I I I #
loop $-1 $-1 $169 $39 #
coedge $-1 $101 $101 $102 $170 reversed $61 $-1 #
coedge $-1 $102 $102 $101 $170 forward $63 $-1 #
coedge $-1 $103 $103 $64 $104 forward $98 $-1 #
edge $-1 $171 4.9703414598311332e-016 $171 6.2831853071796013 $103 $172 forward 7 unknown #
face $-1 $173 $174 $22 $-1 $175 forward single #
loop $-1 $-1 $176 $65 #
plane-surface $-1 0 -28.701257091838414 0 0 1 0 0 0 1 forward_v I I I I #
coedge $-1 $177 $178 $179 $180 reversed $66 $-1 #
coedge $-1 $181 $68 $182 $183 reversed $43 $-1 #
coedge $-1 $68 $181 $177 $184 forward $43 $-1 #
coedge $-1 $179 $185 $68 $112 forward $174 $-1 #
edge $-1 $186 -25.248746476355684 $187 -13.091920915181738 $111 $188 forward 7 unknown #
loop $-1 $-1 $118 $69 #
plane-surface $-1 38.340667391537423 -28.7012570918384 2.7230566001252186 0 -0.66913061440640931 0.74314481823134659 1 0 0 forward_v I I I I #
loop $-1 $-1 $189 $45 #
coedge $-1 $116 $116 $117 $190 reversed $70 $-1 #
coedge $-1 $117 $117 $116 $190 forward $72 $-1 #
coedge $-1 $118 $118 $73 $119 forward $113 $-1 #
edge $-1 $191 4.9703414598311332e-016 $191 6.2831853071796013 $118 $192 forward 7 unknown #
face $-1 $193 $194 $18 $-1 $195 reversed single #
loop $-1 $-1 $129 $74 #
plane-surface $-1 0 -28.701257091838414 0 0 1 0 0 0 1 forward_v I I I I #
coedge $-1 $134 $133 $196 $197 forward $75 $-1 #
coedge $-1 $198 $77 $199 $200 forward $49 $-1 #
coedge $-1 $77 $198 $201 $202 forward $49 $-1 #
coedge $-1 $203 $204 $77 $127 reversed $205 $-1 #
edge $-1 $206 -28.701257091838414 $207 28.701257091838414 $126 $208 forward 7 unknown #
coedge $-1 $79 $78 $198 $209 reversed $31 $-1 #
coedge $-1 $210 $201 $78 $130 forward $121 $-1 #
edge $-1 $211 -8.2631626034509136 $135 8.2631626034509136 $78 $212 forward 7 unknown #
coedge $-1 $199 $213 $79 $132 reversed $194 $-1 #
edge $-1 $214 -8.2631626034509136 $136 8.2631626034509136 $131 $215 forward 7 unknown #
coedge $-1 $123 $80 $213 $216 forward $75 $-1 #
coedge $-1 $80 $123 $210 $217 forward $75 $-1 #
vertex $-1 $81 $218 #
vertex $-1 $216 $219 #
straight-curve $-1 -44.419080172124396 0 -8.2631626034509136 0 1 0 I I #
face $-1 $220 $150 $19 $-1 $221 reversed single #
loop $-1 $-1 $222 $82 #
plane-surface $-1 -53.096513016929265 -14.195216761947798 0 1 0 0 0 0 -1 forward_v I I I I #
coedge $-1 $223 $224 $225 $226 forward $83 $-1 #
coedge $-1 $227 $85 $223 $228 forward $53 $-1 #
coedge $-1 $85 $227 $148 $229 forward $53 $-1 #
edge $-1 $151 12.174931884936587 $230 16.215501638959008 $85 $231 forward 7 unknown #
coedge $-1 $87 $86 $232 $233 forward $34 $-1 #
coedge $-1 $234 $235 $86 $147 forward $236 $-1 #
edge $-1 $237 -16.215501638959008 $152 -12.174931884936587 $146 $238 forward 7 unknown #
coedge $-1 $239 $88 $143 $229 reversed $150 $-1 #
coedge $-1 $88 $239 $234 $240 reversed $150 $-1 #
loop $-1 $-1 $88 $138 #
vertex $-1 $144 $241 #
vertex $-1 $240 $242 #
straight-curve $-1 -44.419080172124396 -12.174931884936587 0 0 0 1 I I #
face $-1 $-1 $243 $20 $-1 $244 reversed single #
loop $-1 $-1 $96 $90 #
plane-surface $-1 0 0 8.2631626034509136 0 0 1 1 0 0 forward_v I I I I #
coedge $-1 $245 $246 $247 $248 reversed $91 $-1 #
coedge $-1 $249 $93 $95 $164 forward $57 $-1 #
coedge $-1 $93 $249 $245 $250 forward $57 $-1 #
coedge $-1 $247 $96 $93 $161 forward $155 $-1 #
edge $-1 $167 8.7532044927793038 $251 20.91003005395325 $160 $252 forward 7 unknown #
coedge $-1 $253 $254 $94 $163 forward $243 $-1 #
edge $-1 $255 -31.6482809604544 $166 -26.108174957128689 $162 $256 forward 7 unknown #
edge $-1 $167 -8.2795584061571645 $255 1.9178179933549516e-014 $95 $257 forward 7 unknown #
coedge $-1 $96 $247 $253 $258 forward $155 $-1 #
vertex $-1 $97 $259 #
vertex $-1 $97 $260 #
straight-curve $-1 -23.584821766145581 -44.072794952860349 8.2631626034509154 0 1 0 I I #
coedge $-1 $169 $169 $-1 $261 reversed $100 $-1 #
edge $-1 $262 0 $262 6.2831853071796004 $101 $263 forward 7 unknown #
vertex $-1 $104 $264 #
ellipse-curve $-1 -29.663234546732554 -25.624801628448665 5.4931096017880581 0 -0.66913061440640931 0.74314481823134659 2 0 0 1 I I #
face $-1 $-1 $265 $22 $-1 $266 reversed single #
loop $-1 $-1 $179 $105 #
plane-surface $-1 0 0 8.2631626034509136 0 0 1 1 0 0 forward_v I I I I #
coedge $-1 $267 $268 $178 $269 forward $106 $-1 #
coedge $-1 $178 $108 $110 $184 reversed $66 $-1 #
coedge $-1 $108 $177 $176 $269 reversed $66 $-1 #
coedge $-1 $270 $111 $108 $180 forward $174 $-1 #
edge $-1 $187 -21.524448787801433 $271 -15.371537861021935 $179 $272 forward 7 unknown #
coedge $-1 $110 $109 $267 $273 reversed $43 $-1 #
coedge $-1 $274 $275 $109 $183 forward $265 $-1 #
edge $-1 $276 -9.7535549743101075 $186 -1.4739965681529252 $182 $277 forward 7 unknown #
edge $-1 $278 -1.9178179933549516e-014 $187 8.2795584061571645 $177 $279 forward 7 unknown #
coedge $-1 $111 $270 $274 $280 forward $174 $-1 #
vertex $-1 $183 $281 #
vertex $-1 $112 $282 #
straight-curve $-1 19.170333695768711 -22.548346165058916 8.2631626034509136 -1 0 0 I I #
coedge $-1 $189 $189 $-1 $283 reversed $115 $-1 #
edge $-1 $284 0 $284 6.2831853071796004 $116 $285 forward 7 unknown #
vertex $-1 $119 $286 #
ellipse-curve $-1 38.340667391537423 -25.624801628448665 5.4931096017880581 0 -0.66913061440640931 0.74314481823134659 2 0 0 1 I I #
face $-1 $-1 $205 $18 $-1 $287 reversed single #
loop $-1 $-1 $288 $120 #
plane-surface $-1 0 28.701257091838414 0 0 -1 0 0 0 -1 forward_v I I I I #
coedge $-1 $204 $203 $123 $197 reversed $205 $-1 #
edge $-1 $289 -28.701257091838414 $290 28.701257091838414 $196 $291 forward 7 unknown #
coedge $-1 $125 $124 $128 $209 forward $49 $-1 #
coedge $-1 $288 $131 $124 $200 reversed $194 $-1 #
edge $-1 $207 -44.419080172124396 $214 44.419080172124396 $199 $292 forward 7 unknown #
coedge $-1 $129 $293 $125 $202 reversed $121 $-1 #
edge $-1 $211 -44.419080172124396 $206 44.419080172124396 $201 $294 forward 7 unknown #
coedge $-1 $196 $126 $293 $295 forward $205 $-1 #
coedge $-1 $126 $196 $288 $296 reversed $205 $-1 #
loop $-1 $-1 $203 $193 #
vertex $-1 $127 $297 #
vertex $-1 $127 $298 #
straight-curve $-1 44.419080172124396 0 8.2631626034509136 0 1 0 I I #
edge $-1 $214 -28.701257091838414 $211 28.701257091838414 $128 $299 forward 7 unknown #
coedge $-1 $293 $129 $134 $217 reversed $121 $-1 #
vertex $-1 $209 $300 #
straight-curve $-1 -44.419080172124396 -28.701257091838414 0 0 0 -1 I I #
coedge $-1 $131 $288 $133 $216 reversed $194 $-1 #
vertex $-1 $200 $301 #
straight-curve $-1 -44.419080172124396 28.701257091838414 0 0 0 -1 I I #
edge $-1 $136 -44.419080172124396 $289 44.419080172124396 $213 $302 forward 7 unknown #
edge $-1 $290 -44.419080172124396 $135 44.419080172124396 $210 $303 forward 7 unknown #
point $-1 -44.419080172124396 -28.701257091838414 -8.2631626034509136 #
point $-1 -44.419080172124396 28.701257091838414 -8.2631626034509136 #
face $-1 $-1 $236 $19 $-1 $304 forward single #
plane-surface $-1 -48.75779659452683 -12.174931884936587 0 0 -1 0 0 0 -1 forward_v I I I I #
coedge $-1 $305 $306 $239 $307 forward $139 $-1 #
coedge $-1 $232 $141 $142 $228 reversed $83 $-1 #
coedge $-1 $141 $232 $235 $308 reversed $83 $-1 #
coedge $-1 $306 $305 $141 $226 reversed $139 $-1 #
edge $-1 $309 -8.2631626034509136 $310 8.2631626034509136 $225 $311 forward 7 unknown #
coedge $-1 $143 $142 $305 $312 forward $53 $-1 #
edge $-1 $230 -4.3387164224024346 $310 4.3387164224024346 $223 $313 forward 7 unknown #
edge $-1 $314 -4.3387164224024346 $151 4.3387164224024346 $148 $315 forward 7 unknown #
vertex $-1 $228 $316 #
straight-curve $-1 -44.419080172124396 0 -8.2631626034509136 0 -1 0 I I #
coedge $-1 $224 $223 $145 $233 reversed $83 $-1 #
edge $-1 $237 -8.2631626034509136 $230 8.2631626034509136 $232 $317 forward 7 unknown #
coedge $-1 $318 $146 $149 $240 forward $236 $-1 #
coedge $-1 $146 $318 $224 $308 forward $236 $-1 #
loop $-1 $-1 $146 $220 #
vertex $-1 $147 $319 #
straight-curve $-1 -44.419080172124396 0 8.2631626034509136 0 1 0 I I #
coedge $-1 $149 $148 $222 $307 reversed $150 $-1 #
edge $-1 $152 -4.3387164224024346 $320 4.3387164224024346 $149 $321 forward 7 unknown #
point $-1 -44.419080172124396 -12.174931884936587 -8.2631626034509136 #
point $-1 -44.419080172124396 -12.174931884936587 8.2631626034509136 #
loop $-1 $-1 $162 $154 #
plane-surface $-1 0 -28.701257091838414 0 0 1 0 0 0 1 forward_v I I I I #
coedge $-1 $246 $157 $159 $250 reversed $91 $-1 #
coedge $-1 $157 $245 $322 $323 reversed $91 $-1 #
coedge $-1 $165 $160 $157 $248 forward $155 $-1 #
edge $-1 $251 -21.524448787801433 $324 -15.371537861021935 $247 $325 forward 7 unknown #
coedge $-1 $159 $158 $254 $326 reversed $57 $-1 #
edge $-1 $327 -1.9178179933549516e-014 $251 8.2795584061571645 $245 $328 forward 7 unknown #
vertex $-1 $161 $329 #
straight-curve $-1 -14.831617273366277 -22.548346165058916 8.2631626034509136 -1 0 0 I I #
coedge $-1 $322 $162 $165 $258 reversed $243 $-1 #
coedge $-1 $162 $322 $249 $326 forward $243 $-1 #
vertex $-1 $163 $330 #
straight-curve $-1 -23.584821766145581 -28.701257091838414 34.371337560579605 0 0 1 I I #
straight-curve $-1 -23.584821766145581 -28.7012570918384 2.7230566001252186 0 -0.74314481823134659 -0.66913061440640931 I I #
edge $-1 $324 -35.741647327319527 $166 -23.584821766145581 $253 $331 forward 7 unknown #
point $-1 -23.584821766145581 -28.701257091838414 8.2631626034509136 #
point $-1 -23.584821766145581 -22.548346165058916 8.2631626034509118 #
edge $-1 $332 1 $332 0 $169 $-1 forward 7 unknown #
vertex $-1 $170 $333 #
ellipse-curve $-1 -29.663234546732554 -22.595692446730475 2.1289431090506046 0 -0.66913061440640931 0.74314481823134659 2 0 0 1 I I #
point $-1 -27.663234546732554 -25.624801628448676 5.4931096017880714 #
loop $-1 $-1 $182 $173 #
plane-surface $-1 44.419080172124396 0 0 -1 0 0 0 0 1 forward_v I I I I #
coedge $-1 $334 $176 $181 $273 forward $106 $-1 #
coedge $-1 $176 $334 $270 $335 reversed $106 $-1 #
edge $-1 $271 26.108174957128689 $278 31.6482809604544 $176 $336 forward 7 unknown #
coedge $-1 $185 $179 $268 $335 forward $174 $-1 #
vertex $-1 $335 $337 #
straight-curve $-1 32.26225461095045 -44.072794952860349 8.2631626034509154 0 -1 0 I I #
edge $-1 $278 13.091920915181738 $276 25.248746476355684 $267 $338 forward 7 unknown #
coedge $-1 $275 $182 $185 $280 reversed $265 $-1 #
coedge $-1 $182 $274 $334 $339 forward $265 $-1 #
vertex $-1 $273 $340 #
straight-curve $-1 44.419080172124396 -21.452953253345282 9.2494588327320173 0 0.74314481823134659 0.66913061440640931 I I #
vertex $-1 $273 $341 #
straight-curve $-1 32.26225461095045 -28.7012570918384 2.7230566001252186 0 0.74314481823134659 0.66913061440640931 I I #
edge $-1 $342 -28.701257091838414 $186 -22.548346165058916 $274 $343 forward 7 unknown #
point $-1 44.419080172124396 -22.548346165058916 8.2631626034509118 #
point $-1 32.26225461095045 -22.548346165058916 8.2631626034509118 #
edge $-1 $344 1 $344 0 $189 $-1 forward 7 unknown #
vertex $-1 $190 $345 #
ellipse-curve $-1 38.340667391537423 -22.595692446730475 2.1289431090506046 0 -0.66913061440640931 0.74314481823134659 2 0 0 1 I I #
point $-1 40.340667391537423 -25.624801628448676 5.4931096017880714 #
plane-surface $-1 44.419080172124396 0 0 -1 0 0 0 0 1 forward_v I I I I #
coedge $-1 $213 $199 $204 $296 forward $194 $-1 #
vertex $-1 $197 $346 #
vertex $-1 $295 $347 #
straight-curve $-1 44.419080172124396 0 -8.2631626034509136 0 -1 0 I I #
straight-curve $-1 0 28.701257091838414 8.2631626034509136 -1 0 0 I I #
coedge $-1 $201 $210 $203 $295 reversed $121 $-1 #
straight-curve $-1 0 -28.701257091838414 8.2631626034509136 1 0 0 I I #
edge $-1 $206 -8.2631626034509136 $290 8.2631626034509136 $203 $348 forward 7 unknown #
edge $-1 $207 -8.2631626034509136 $289 8.2631626034509136 $204 $349 forward 7 unknown #
point $-1 44.419080172124396 -28.701257091838414 8.2631626034509136 #
point $-1 44.419080172124396 28.701257091838414 8.2631626034509136 #
straight-curve $-1 -44.419080172124396 0 8.2631626034509136 0 -1 0 I I #
point $-1 -44.419080172124396 -28.701257091838414 8.2631626034509136 #
point $-1 -44.419080172124396 28.701257091838414 8.2631626034509136 #
straight-curve $-1 0 28.701257091838414 -8.2631626034509136 1 0 0 I I #
straight-curve $-1 0 -28.701257091838414 -8.2631626034509136 -1 0 0 I I #
plane-surface $-1 0 0 8.2631626034509136 0 0 1 1 0 0 forward_v I I I I #
coedge $-1 $225 $222 $227 $312 reversed $139 $-1 #
coedge $-1 $222 $225 $318 $350 reversed $139 $-1 #
edge $-1 $320 -8.2631626034509136 $314 8.2631626034509136 $239 $351 forward 7 unknown #
edge $-1 $309 -4.3387164224024346 $237 4.3387164224024346 $224 $352 forward 7 unknown #
vertex $-1 $350 $353 #
vertex $-1 $312 $354 #
straight-curve $-1 -53.096513016929265 -16.215501638959008 0 0 0 -1 I I #
edge $-1 $310 -2.0202848770112105 $314 2.0202848770112105 $305 $355 forward 7 unknown #
straight-curve $-1 -48.75779659452683 -16.215501638959008 -8.2631626034509136 -1 0 0 I I #
vertex $-1 $229 $356 #
straight-curve $-1 -48.75779659452683 -12.174931884936587 -8.2631626034509136 1 0 0 I I #
point $-1 -44.419080172124396 -16.215501638959008 -8.2631626034509136 #
straight-curve $-1 -44.419080172124396 -16.215501638959008 0 0 0 -1 I I #
coedge $-1 $235 $234 $306 $350 forward $236 $-1 #
point $-1 -44.419080172124396 -16.215501638959008 8.2631626034509136 #
vertex $-1 $240 $357 #
straight-curve $-1 -48.75779659452683 -12.174931884936587 8.2631626034509136 -1 0 0 I I #
coedge $-1 $254 $253 $246 $323 forward $243 $-1 #
edge $-1 $324 26.108174957128689 $327 31.6482809604544 $322 $358 forward 7 unknown #
vertex $-1 $258 $359 #
straight-curve $-1 -35.741647327319527 -44.072794952860349 8.2631626034509154 0 -1 0 I I #
edge $-1 $327 -20.91003005395325 $255 -8.7532044927793038 $254 $360 forward 7 unknown #
vertex $-1 $326 $361 #
straight-curve $-1 -35.741647327319527 -28.7012570918384 2.7230566001252186 0 0.74314481823134659 0.66913061440640931 I I #
point $-1 -35.741647327319527 -22.548346165058916 8.2631626034509118 #
point $-1 -23.584821766145581 -28.701257091838414 2.7230566001252057 #
straight-curve $-1 0 -28.701257091838414 8.2631626034509136 1 0 0 I I #
vertex $-1 $261 $362 #
point $-1 -27.663234546732554 -22.595692446730475 2.1289431090506046 #
coedge $-1 $268 $267 $275 $339 reversed $106 $-1 #
edge $-1 $271 32.26225461095045 $342 44.419080172124396 $268 $363 forward 7 unknown #
straight-curve $-1 32.26225461095045 -28.701257091838414 34.371337560579605 0 0 -1 I I #
point $-1 32.26225461095045 -28.701257091838414 8.2631626034509136 #
straight-curve $-1 19.170333695768711 -28.701257091838414 2.723056600125207 1 0 0 I I #
edge $-1 $342 -8.2631626034509136 $276 -2.7230566001252057 $275 $364 forward 7 unknown #
point $-1 44.419080172124396 -28.701257091838414 2.7230566001252057 #
point $-1 32.26225461095045 -28.701257091838414 2.7230566001252057 #
vertex $-1 $280 $365 #
straight-curve $-1 44.419080172124396 0 8.2631626034509136 0 1 0 I I #
vertex $-1 $283 $366 #
point $-1 40.340667391537423 -22.595692446730475 2.1289431090506046 #
point $-1 44.419080172124396 28.701257091838414 -8.2631626034509136 #
point $-1 44.419080172124396 -28.701257091838414 -8.2631626034509136 #
straight-curve $-1 44.419080172124396 -28.701257091838414 0 0 0 -1 I I #
straight-curve $-1 44.419080172124396 28.701257091838414 0 0 0 -1 I I #
edge $-1 $320 -2.0202848770112105 $309 2.0202848770112105 $306 $367 forward 7 unknown #
straight-curve $-1 -53.096513016929265 -12.174931884936587 0 0 0 -1 I I #
straight-curve $-1 -48.75779659452683 -16.215501638959008 8.2631626034509136 1 0 0 I I #
point $-1 -53.096513016929265 -16.215501638959008 8.2631626034509136 #
point $-1 -53.096513016929265 -16.215501638959008 -8.2631626034509136 #
straight-curve $-1 -53.096513016929265 -14.195216761947798 -8.2631626034509136 0 1 0 I I #
point $-1 -53.096513016929265 -12.174931884936587 -8.2631626034509136 #
point $-1 -53.096513016929265 -12.174931884936587 8.2631626034509136 #
straight-curve $-1 -35.741647327319527 -28.701257091838414 34.371337560579605 0 0 -1 I I #
point $-1 -35.741647327319527 -28.701257091838414 8.2631626034509136 #
straight-curve $-1 -14.831617273366277 -28.701257091838414 2.723056600125207 1 0 0 I I #
point $-1 -35.741647327319527 -28.701257091838414 2.7230566001252057 #
point $-1 -29.663234546732554 -21.257431217917656 0.64265347258791128 #
straight-curve $-1 0 -28.701257091838414 8.2631626034509136 1 0 0 I I #
straight-curve $-1 44.419080172124396 -28.701257091838414 0 0 0 -1 I I #
point $-1 44.419080172124396 -28.701257091838414 8.2631626034509136 #
point $-1 38.340667391537423 -21.257431217917656 0.64265347258791128 #
straight-curve $-1 -53.096513016929265 -14.195216761947798 8.2631626034509136 0 -1 0 I I #
End-of-ACIS-data 