500 0 11 0           
7 Unknown 11 ACIS 5.0 NT 24 Fri Mar 26 16:36:53 1999 
-1 9.9999999999999995e-007 1e-010 
body $-1 $11 $-1 $12 #
body $-1 $13 $-1 $14 #
body $-1 $15 $-1 $16 #
body $-1 $17 $-1 $18 #
body $-1 $19 $-1 $20 #
body $-1 $21 $-1 $22 #
body $-1 $23 $-1 $24 #
body $-1 $25 $-1 $26 #
body $-1 $27 $-1 $28 #
body $-1 $29 $-1 $30 #
body $-1 $31 $-1 $32 #
lump $-1 $-1 $33 $0 #
transform $-1 1 0 0 0 1 0 0 0 1 53.773613696707052 21.658620608692608 5.576828758738988 1 rotate no_reflect no_shear #
lump $-1 $-1 $34 $1 #
transform $-1 1 0 0 0 1 0 0 0 1 53.773613696707052 21.658620608692608 5.576828758738988 1 rotate no_reflect no_shear #
lump $-1 $-1 $35 $2 #
transform $-1 1 0 0 0 1 0 0 0 1 53.773613696707052 21.658620608692608 5.576828758738988 1 rotate no_reflect no_shear #
lump $-1 $-1 $36 $3 #
transform $-1 1 0 0 0 1 0 0 0 1 53.773613696707052 21.658620608692608 5.576828758738988 1 rotate no_reflect no_shear #
lump $-1 $-1 $37 $4 #
transform $-1 1 0 0 0 1 0 0 0 1 53.773613696707052 21.658620608692608 5.576828758738988 1 rotate no_reflect no_shear #
lump $-1 $-1 $38 $5 #
transform $-1 1 0 0 0 1 0 0 0 1 53.773613696707052 21.658620608692608 5.576828758738988 1 rotate no_reflect no_shear #
lump $-1 $-1 $39 $6 #
transform $-1 1 0 0 0 1 0 0 0 1 53.773613696707052 21.658620608692608 5.576828758738988 1 rotate no_reflect no_shear #
lump $-1 $-1 $40 $7 #
transform $-1 1 0 0 0 1 0 0 0 1 53.773613696707052 21.658620608692608 5.576828758738988 1 rotate no_reflect no_shear #
lump $-1 $-1 $41 $8 #
transform $-1 1 0 0 0 1 0 0 0 1 53.773613696707052 21.658620608692608 5.576828758738988 1 rotate no_reflect no_shear #
lump $-1 $-1 $42 $9 #
transform $-1 1 0 0 0 1 0 0 0 1 53.773613696707052 21.658620608692608 5.576828758738988 1 rotate no_reflect no_shear #
lump $-1 $-1 $43 $10 #
transform $-1 1 0 0 0 1 0 0 0 1 53.773613696707052 21.658620608692608 5.576828758738988 1 rotate no_reflect no_shear #
shell $-1 $-1 $-1 $44 $-1 $11 #
shell $-1 $-1 $-1 $45 $-1 $13 #
shell $-1 $-1 $-1 $46 $-1 $15 #
shell $-1 $-1 $-1 $47 $-1 $17 #
shell $-1 $-1 $-1 $48 $-1 $19 #
shell $-1 $-1 $-1 $49 $-1 $21 #
shell $-1 $-1 $-1 $50 $-1 $23 #
shell $-1 $-1 $-1 $51 $-1 $25 #
shell $-1 $-1 $-1 $52 $-1 $27 #
shell $-1 $-1 $-1 $53 $-1 $29 #
shell $-1 $-1 $-1 $54 $-1 $31 #
face $-1 $55 $56 $33 $-1 $57 forward single #
face $-1 $58 $59 $34 $-1 $60 forward single #
face $-1 $61 $62 $35 $-1 $63 forward single #
face $-1 $64 $65 $36 $-1 $66 reversed single #
face $-1 $67 $68 $37 $-1 $69 forward single #
face $-1 $70 $71 $38 $-1 $72 forward single #
face $-1 $73 $74 $39 $-1 $75 reversed single #
face $-1 $76 $77 $40 $-1 $78 forward single #
face $-1 $79 $80 $41 $-1 $81 forward single #
face $-1 $82 $83 $42 $-1 $84 reversed single #
face $-1 $85 $86 $43 $-1 $87 forward single #
face $-1 $88 $89 $33 $-1 $90 reversed single #
loop $-1 $-1 $91 $44 #
plane-surface $-1 0 0 5.576828758738988 0 0 1 1 0 0 forward_v I I I I #
face $-1 $92 $93 $34 $-1 $94 reversed single #
loop $-1 $-1 $95 $45 #
plane-surface $-1 0 -21.658620608692608 0 0 1 0 0 0 1 forward_v I I I I #
face $-1 $96 $97 $35 $-1 $98 reversed single #
loop $-1 $-1 $99 $46 #
plane-surface $-1 0 21.658620608692608 0 0 -1 0 0 0 -1 forward_v I I I I #
face $-1 $100 $101 $36 $-1 $102 reversed single #
loop $-1 $-1 $103 $47 #
plane-surface $-1 32.606117473746032 -2.6854153549019557 150.84404650805055 0 -1 0 -0.6018150307709319 0 -0.79863550430605224 forward_v I I I I #
face $-1 $104 $105 $37 $-1 $106 forward single #
loop $-1 $107 $108 $48 #
cone-surface $-1 49.269098098804754 -8.0747286098260336 1.6339311672968142 -0.6018150307709319 0 -0.79863550430605224 0.79863550430605224 0 -0.6018150307709319 1 I I 0 1 1 forward I I I I #
face $-1 $109 $110 $38 $-1 $111 forward single #
loop $-1 $112 $113 $49 #
cone-surface $-1 49.269098098804754 -4.8411406568715876 1.6339311672968142 -0.6018150307709319 0 -0.79863550430605224 0.79863550430605224 0 -0.6018150307709319 1 I I 0 1 1 forward I I I I #
face $-1 $114 $115 $39 $-1 $116 reversed single #
loop $-1 $-1 $117 $50 #
plane-surface $-1 32.606117473746032 13.052082588602239 150.84404650805055 0 -1 0 -0.6018150307709319 0 -0.79863550430605224 forward_v I I I I #
face $-1 $118 $119 $40 $-1 $120 forward single #
loop $-1 $121 $122 $51 #
cone-surface $-1 49.269098098804754 7.6627693336781633 1.6339311672968142 -0.6018150307709319 0 -0.79863550430605224 0.79863550430605224 0 -0.6018150307709319 1 I I 0 1 1 forward I I I I #
face $-1 $123 $124 $41 $-1 $125 forward single #
loop $-1 $126 $127 $52 #
cone-surface $-1 49.269098098804754 10.896357286632607 1.6339311672968142 -0.6018150307709319 0 -0.79863550430605224 0.79863550430605224 0 -0.6018150307709319 1 I I 0 1 1 forward I I I I #
face $-1 $128 $129 $42 $-1 $130 reversed single #
loop $-1 $-1 $131 $53 #
plane-surface $-1 -121.45527773669755 -3.9928573647291898 83.708077539923579 0 1 0 -0.62932039886446345 0 0.77714595512881146 forward_v I I I I #
face $-1 $132 $133 $43 $-1 $134 forward single #
loop $-1 $135 $136 $54 #
cone-surface $-1 -49.56368119737872 0.3240163430778118 1.8081850249012923 0.62932039886446345 0 -0.77714595512881146 1.5542919102576229 0 1.2586407977289269 1 I I 0 1 2 forward I I I I #
face $-1 $137 $138 $33 $-1 $139 reversed single #
loop $-1 $-1 $140 $55 #
plane-surface $-1 0 0 -5.576828758738988 0 0 1 1 0 0 forward_v I I I I #
coedge $-1 $141 $142 $143 $144 forward $56 $-1 #
face $-1 $145 $146 $34 $-1 $147 forward single #
loop $-1 $-1 $148 $58 #
plane-surface $-1 -53.773613696707052 0 0 1 0 0 0 0 -1 forward_v I I I I #
coedge $-1 $149 $150 $151 $152 forward $59 $-1 #
face $-1 $153 $154 $35 $-1 $155 forward single #
loop $-1 $-1 $156 $61 #
plane-surface $-1 53.773613696707052 0 0 -1 0 0 0 0 1 forward_v I I I I #
coedge $-1 $157 $158 $159 $160 forward $62 $-1 #
face $-1 $161 $162 $36 $-1 $163 reversed single #
loop $-1 $-1 $164 $64 #
plane-surface $-1 -32.11742048934989 -6.4579346333488097 64.953012321993612 0.6018150307709319 0 0.79863550430605224 0.79863550430605224 0 -0.6018150307709319 forward_v I I I I #
coedge $-1 $165 $166 $167 $168 reversed $65 $-1 #
face $-1 $-1 $169 $37 $-1 $170 forward single #
loop $-1 $171 $172 $67 #
cone-surface $-1 48.011764397931422 -8.0747286098260336 -0.034606976377728138 -0.6018150307709319 0 -0.79863550430605224 0.39931775215302612 0 -0.30090751538546595 1 I I -0.70710678118654746 0.70710678118654746 0.5 forward I I I I #
loop $-1 $-1 $173 $48 #
coedge $-1 $108 $108 $174 $175 reversed $68 $-1 #
face $-1 $-1 $176 $38 $-1 $177 forward single #
loop $-1 $178 $179 $70 #
cone-surface $-1 48.011764397931422 -4.8411406568715876 -0.034606976377728138 -0.6018150307709319 0 -0.79863550430605224 0.39931775215302612 0 -0.30090751538546595 1 I I -0.70710678118654746 0.70710678118654746 0.5 forward I I I I #
loop $-1 $-1 $180 $49 #
coedge $-1 $113 $113 $181 $182 reversed $71 $-1 #
face $-1 $183 $184 $39 $-1 $185 reversed single #
loop $-1 $-1 $186 $73 #
plane-surface $-1 -32.11742048934989 9.2795633101553854 64.953012321993612 0.6018150307709319 0 0.79863550430605224 0.79863550430605224 0 -0.6018150307709319 forward_v I I I I #
coedge $-1 $187 $188 $189 $190 reversed $74 $-1 #
face $-1 $-1 $191 $40 $-1 $192 forward single #
loop $-1 $193 $194 $76 #
cone-surface $-1 48.011764397931422 7.6627693336781633 -0.034606976377728138 -0.6018150307709319 0 -0.79863550430605224 0.39931775215302612 0 -0.30090751538546595 1 I I -0.70710678118654746 0.70710678118654746 0.5 forward I I I I #
loop $-1 $-1 $195 $51 #
coedge $-1 $122 $122 $196 $197 reversed $77 $-1 #
face $-1 $-1 $198 $41 $-1 $199 forward single #
loop $-1 $200 $201 $79 #
cone-surface $-1 48.011764397931422 10.896357286632607 -0.034606976377728138 -0.6018150307709319 0 -0.79863550430605224 0.39931775215302612 0 -0.30090751538546595 1 I I -0.70710678118654746 0.70710678118654746 0.5 forward I I I I #
loop $-1 $-1 $202 $52 #
coedge $-1 $127 $127 $203 $204 reversed $80 $-1 #
face $-1 $205 $206 $42 $-1 $207 reversed single #
loop $-1 $-1 $208 $82 #
plane-surface $-1 -53.773613696707045 0.3240163430778118 0.12818478581330339 -0.62932039886446345 0 0.77714595512881146 0.77714595512881146 0 0.62932039886446345 forward_v I I I I #
coedge $-1 $209 $210 $211 $212 reversed $83 $-1 #
face $-1 $-1 $213 $43 $-1 $214 forward single #
loop $-1 $215 $216 $85 #
cone-surface $-1 -48.088685704584385 0.3240163430778118 -0.013282677602372672 0.62932039886446345 0 -0.77714595512881146 0.77714595512881146 0 0.62932039886446345 1 I I -0.70710678118654746 0.70710678118654746 1 forward I I I I #
loop $-1 $-1 $217 $54 #
coedge $-1 $136 $136 $218 $219 reversed $86 $-1 #
face $-1 $220 $221 $33 $-1 $222 reversed single #
loop $-1 $-1 $223 $88 #
plane-surface $-1 0 -21.658620608692608 0 0 1 0 0 0 1 forward_v I I I I #
coedge $-1 $224 $225 $226 $227 forward $89 $-1 #
coedge $-1 $228 $91 $229 $230 forward $56 $-1 #
coedge $-1 $91 $228 $231 $232 forward $56 $-1 #
coedge $-1 $233 $234 $91 $144 reversed $235 $-1 #
edge $-1 $236 -21.658620608692608 $237 21.658620608692608 $143 $238 forward 7 unknown #
face $-1 $239 $240 $34 $-1 $241 reversed single #
loop $-1 $-1 $242 $92 #
plane-surface $-1 0 -24.619181941286815 -0.30668448151032557 0 0 1 1 0 0 forward_v I I I I #
coedge $-1 $243 $244 $150 $245 forward $93 $-1 #
coedge $-1 $246 $95 $247 $248 reversed $59 $-1 #
coedge $-1 $95 $246 $148 $245 reversed $59 $-1 #
coedge $-1 $249 $242 $95 $152 reversed $146 $-1 #
edge $-1 $250 -53.773613696707052 $251 53.773613696707052 $151 $252 forward 7 unknown #
face $-1 $253 $254 $35 $-1 $255 reversed single #
loop $-1 $-1 $256 $96 #
plane-surface $-1 0 24.619181941286818 -0.30668448151032557 0 0 1 1 0 0 forward_v I I I I #
coedge $-1 $257 $258 $158 $259 forward $97 $-1 #
coedge $-1 $260 $99 $261 $262 reversed $62 $-1 #
coedge $-1 $99 $260 $156 $259 reversed $62 $-1 #
coedge $-1 $256 $263 $99 $160 reversed $154 $-1 #
edge $-1 $264 -53.773613696707052 $265 53.773613696707052 $159 $266 forward 7 unknown #
face $-1 $267 $268 $36 $-1 $269 forward single #
loop $-1 $-1 $270 $100 #
plane-surface $-1 32.606117473746032 -10.230453911795664 150.84404650805055 0 1 0 0.6018150307709319 0 0.79863550430605224 forward_v I I I I #
coedge $-1 $271 $272 $273 $274 reversed $101 $-1 #
coedge $-1 $166 $103 $275 $276 reversed $65 $-1 #
coedge $-1 $103 $165 $271 $277 reversed $65 $-1 #
coedge $-1 $273 $278 $103 $168 forward $268 $-1 #
edge $-1 $279 -37.470554959834033 $280 -30.374376135005139 $167 $281 forward 7 unknown #
loop $-1 $-1 $174 $104 #
plane-surface $-1 -32.11742048934989 -6.4579346333488097 64.953012321993612 0.6018150307709319 0 0.79863550430605224 0.79863550430605224 0 -0.6018150307709319 forward_v I I I I #
loop $-1 $-1 $282 $67 #
coedge $-1 $172 $172 $173 $283 reversed $105 $-1 #
coedge $-1 $173 $173 $172 $283 forward $107 $-1 #
coedge $-1 $174 $174 $108 $175 forward $169 $-1 #
edge $-1 $284 0 $284 6.2831853071796004 $174 $285 forward 7 unknown #
loop $-1 $-1 $181 $109 #
plane-surface $-1 -32.11742048934989 -6.4579346333488097 64.953012321993612 0.6018150307709319 0 0.79863550430605224 0.79863550430605224 0 -0.6018150307709319 forward_v I I I I #
loop $-1 $-1 $286 $70 #
coedge $-1 $179 $179 $180 $287 reversed $110 $-1 #
coedge $-1 $180 $180 $179 $287 forward $112 $-1 #
coedge $-1 $181 $181 $113 $182 forward $176 $-1 #
edge $-1 $288 0 $288 6.2831853071796004 $181 $289 forward 7 unknown #
face $-1 $290 $291 $39 $-1 $292 reversed single #
loop $-1 $-1 $293 $114 #
plane-surface $-1 32.606117473746032 5.5070440317085314 150.84404650805055 0 1 0 0.6018150307709319 0 0.79863550430605224 forward_v I I I I #
coedge $-1 $294 $295 $296 $297 reversed $115 $-1 #
coedge $-1 $188 $117 $298 $299 reversed $74 $-1 #
coedge $-1 $117 $187 $294 $300 reversed $74 $-1 #
coedge $-1 $296 $301 $117 $190 forward $302 $-1 #
edge $-1 $303 -37.470554959834033 $304 -30.374376135005139 $189 $305 forward 7 unknown #
loop $-1 $-1 $196 $118 #
plane-surface $-1 -32.11742048934989 9.2795633101553854 64.953012321993612 0.6018150307709319 0 0.79863550430605224 0.79863550430605224 0 -0.6018150307709319 forward_v I I I I #
loop $-1 $-1 $306 $76 #
coedge $-1 $194 $194 $195 $307 reversed $119 $-1 #
coedge $-1 $195 $195 $194 $307 forward $121 $-1 #
coedge $-1 $196 $196 $122 $197 forward $191 $-1 #
edge $-1 $308 0 $308 6.2831853071796004 $196 $309 forward 7 unknown #
loop $-1 $-1 $203 $123 #
plane-surface $-1 -32.11742048934989 9.2795633101553854 64.953012321993612 0.6018150307709319 0 0.79863550430605224 0.79863550430605224 0 -0.6018150307709319 forward_v I I I I #
loop $-1 $-1 $310 $79 #
coedge $-1 $201 $201 $202 $311 reversed $124 $-1 #
coedge $-1 $202 $202 $201 $311 forward $126 $-1 #
coedge $-1 $203 $203 $127 $204 forward $198 $-1 #
edge $-1 $312 0 $312 6.2831853071796004 $203 $313 forward 7 unknown #
face $-1 $314 $315 $42 $-1 $316 reversed single #
loop $-1 $-1 $317 $128 #
plane-surface $-1 -121.45527773669755 4.6408900508848134 83.708077539923579 0 -1 0 0.62932039886446345 0 -0.77714595512881146 forward_v I I I I #
coedge $-1 $318 $319 $320 $321 reversed $129 $-1 #
coedge $-1 $210 $131 $322 $323 reversed $83 $-1 #
coedge $-1 $131 $209 $318 $324 reversed $83 $-1 #
coedge $-1 $320 $325 $131 $212 forward $326 $-1 #
edge $-1 $327 6.9540251716417245 $328 13.682539982438662 $211 $329 forward 7 unknown #
loop $-1 $-1 $218 $132 #
plane-surface $-1 -53.773613696707045 0.3240163430778118 0.12818478581330339 -0.62932039886446345 0 0.77714595512881146 0.77714595512881146 0 0.62932039886446345 forward_v I I I I #
loop $-1 $-1 $330 $85 #
coedge $-1 $216 $216 $217 $331 reversed $133 $-1 #
coedge $-1 $217 $217 $216 $331 forward $135 $-1 #
coedge $-1 $218 $218 $136 $219 forward $213 $-1 #
edge $-1 $332 0 $332 6.2831853071796004 $218 $333 forward 7 unknown #
face $-1 $334 $335 $33 $-1 $336 reversed single #
loop $-1 $-1 $337 $137 #
plane-surface $-1 -53.773613696707052 0 0 1 0 0 0 0 -1 forward_v I I I I #
coedge $-1 $338 $231 $339 $340 forward $138 $-1 #
coedge $-1 $341 $140 $338 $342 forward $89 $-1 #
coedge $-1 $140 $341 $343 $344 forward $89 $-1 #
coedge $-1 $234 $233 $140 $227 reversed $235 $-1 #
edge $-1 $345 -21.658620608692608 $346 21.658620608692608 $226 $347 forward 7 unknown #
coedge $-1 $142 $141 $348 $349 forward $56 $-1 #
coedge $-1 $350 $351 $141 $230 reversed $335 $-1 #
edge $-1 $237 -53.773613696707052 $352 53.773613696707052 $229 $353 forward 7 unknown #
coedge $-1 $223 $354 $142 $232 reversed $138 $-1 #
edge $-1 $355 -53.773613696707052 $236 53.773613696707052 $231 $356 forward 7 unknown #
coedge $-1 $226 $143 $354 $357 forward $235 $-1 #
coedge $-1 $143 $226 $350 $358 reversed $235 $-1 #
loop $-1 $-1 $233 $334 #
vertex $-1 $144 $359 #
vertex $-1 $144 $360 #
straight-curve $-1 53.773613696707052 0 5.576828758738988 0 1 0 I I #
face $-1 $361 $362 $34 $-1 $363 reversed single #
loop $-1 $-1 $364 $145 #
plane-surface $-1 0 -24.619181941286815 -3.3066844815103256 0 0 1 1 0 0 forward_v I I I I #
coedge $-1 $151 $365 $366 $367 forward $146 $-1 #
coedge $-1 $368 $148 $369 $370 reversed $93 $-1 #
coedge $-1 $148 $368 $249 $371 reversed $93 $-1 #
edge $-1 $250 0.30668448151032557 $372 3.3066844815103256 $148 $373 forward 7 unknown #
coedge $-1 $150 $149 $374 $375 forward $59 $-1 #
coedge $-1 $366 $376 $149 $248 forward $377 $-1 #
edge $-1 $378 -3.3066844815103256 $251 -0.30668448151032557 $247 $379 forward 7 unknown #
coedge $-1 $365 $151 $244 $371 forward $146 $-1 #
vertex $-1 $245 $380 #
vertex $-1 $367 $381 #
straight-curve $-1 0 -21.658620608692608 -0.30668448151032557 1 0 0 I I #
face $-1 $382 $383 $35 $-1 $384 reversed single #
loop $-1 $-1 $385 $153 #
plane-surface $-1 0 24.619181941286818 -3.3066844815103256 0 0 1 1 0 0 forward_v I I I I #
coedge $-1 $386 $159 $258 $387 forward $154 $-1 #
coedge $-1 $388 $156 $385 $389 reversed $97 $-1 #
coedge $-1 $156 $388 $256 $387 reversed $97 $-1 #
edge $-1 $264 0.30668448151032557 $390 3.3066844815103256 $156 $391 forward 7 unknown #
coedge $-1 $158 $157 $392 $393 forward $62 $-1 #
coedge $-1 $394 $395 $157 $262 forward $396 $-1 #
edge $-1 $397 -3.3066844815103256 $265 -0.30668448151032557 $261 $398 forward 7 unknown #
coedge $-1 $159 $386 $394 $399 forward $154 $-1 #
vertex $-1 $259 $400 #
vertex $-1 $399 $401 #
straight-curve $-1 0 21.658620608692608 -0.30668448151032557 -1 0 0 I I #
face $-1 $-1 $402 $36 $-1 $403 reversed single #
loop $-1 $-1 $167 $161 #
plane-surface $-1 0 0 5.576828758738988 0 0 1 1 0 0 forward_v I I I I #
coedge $-1 $404 $405 $406 $407 reversed $162 $-1 #
coedge $-1 $408 $164 $166 $277 forward $101 $-1 #
coedge $-1 $164 $408 $404 $409 forward $101 $-1 #
coedge $-1 $406 $167 $164 $274 forward $268 $-1 #
edge $-1 $280 -0.54355196177244913 $410 7.0014865951212588 $273 $411 forward 7 unknown #
coedge $-1 $412 $413 $165 $276 forward $402 $-1 #
edge $-1 $414 -75.192548895127572 $279 -69.845194495286293 $275 $415 forward 7 unknown #
edge $-1 $280 98.661848786317393 $414 107.5472273934141 $166 $416 forward 7 unknown #
coedge $-1 $167 $406 $412 $417 forward $268 $-1 #
vertex $-1 $276 $418 #
vertex $-1 $168 $419 #
straight-curve $-1 16.303058736873016 -2.6854153549019557 5.5768287587389835 -1 0 0 I I #
coedge $-1 $282 $282 $-1 $420 reversed $171 $-1 #
edge $-1 $421 0 $421 6.2831853071796004 $172 $422 forward 7 unknown #
vertex $-1 $175 $423 #
ellipse-curve $-1 50.225524284292618 -8.0747286098260336 2.9031515588183283 0.6018150307709319 0 0.79863550430605224 0.79863550430605224 0 -0.6018150307709319 1 I I #
coedge $-1 $286 $286 $-1 $424 reversed $178 $-1 #
edge $-1 $425 0 $425 6.2831853071796004 $179 $426 forward 7 unknown #
vertex $-1 $182 $427 #
ellipse-curve $-1 50.225524284292618 -4.8411406568715876 2.9031515588183283 0.6018150307709319 0 0.79863550430605224 0.79863550430605224 0 -0.6018150307709319 1 I I #
face $-1 $-1 $302 $39 $-1 $428 forward single #
loop $-1 $-1 $429 $183 #
plane-surface $-1 53.773613696707052 0 0 -1 0 0 0 0 1 forward_v I I I I #
coedge $-1 $430 $431 $432 $433 reversed $184 $-1 #
coedge $-1 $434 $186 $188 $300 forward $115 $-1 #
coedge $-1 $186 $434 $430 $435 forward $115 $-1 #
coedge $-1 $432 $189 $186 $297 forward $302 $-1 #
edge $-1 $304 -8.4123009335245467 $436 -0.86726237663083872 $296 $437 forward 7 unknown #
coedge $-1 $438 $439 $187 $299 forward $291 $-1 #
edge $-1 $440 -75.192548895127572 $303 -69.845194495286293 $298 $441 forward 7 unknown #
edge $-1 $304 98.661848786317393 $440 107.5472273934141 $188 $442 forward 7 unknown #
coedge $-1 $189 $432 $438 $443 forward $302 $-1 #
loop $-1 $-1 $432 $290 #
vertex $-1 $299 $444 #
vertex $-1 $190 $445 #
straight-curve $-1 16.303058736873016 13.052082588602239 5.5768287587389835 -1 0 0 I I #
coedge $-1 $306 $306 $-1 $446 reversed $193 $-1 #
edge $-1 $447 0 $447 6.2831853071796004 $194 $448 forward 7 unknown #
vertex $-1 $197 $449 #
ellipse-curve $-1 50.225524284292618 7.6627693336781633 2.9031515588183283 0.6018150307709319 0 0.79863550430605224 0.79863550430605224 0 -0.6018150307709319 1 I I #
coedge $-1 $310 $310 $-1 $450 reversed $200 $-1 #
edge $-1 $451 0 $451 6.2831853071796004 $201 $452 forward 7 unknown #
vertex $-1 $204 $453 #
ellipse-curve $-1 50.225524284292618 10.896357286632607 2.9031515588183283 0.6018150307709319 0 0.79863550430605224 0.79863550430605224 0 -0.6018150307709319 1 I I #
face $-1 $-1 $326 $42 $-1 $454 forward single #
loop $-1 $-1 $455 $205 #
plane-surface $-1 -53.773613696707052 0 0 1 0 0 0 0 -1 forward_v I I I I #
coedge $-1 $456 $457 $458 $459 reversed $206 $-1 #
coedge $-1 $460 $208 $210 $324 forward $129 $-1 #
coedge $-1 $208 $460 $456 $461 forward $129 $-1 #
coedge $-1 $458 $211 $208 $321 forward $326 $-1 #
edge $-1 $328 -4.1548655362680957 $462 4.4788818793459075 $320 $463 forward 7 unknown #
coedge $-1 $464 $465 $209 $323 forward $315 $-1 #
edge $-1 $466 -41.725853984148493 $327 -36.277210011222799 $322 $467 forward 7 unknown #
edge $-1 $328 -8.657980867547181 $466 9.137654163269272e-015 $210 $468 forward 7 unknown #
coedge $-1 $211 $458 $464 $469 forward $326 $-1 #
loop $-1 $-1 $458 $314 #
vertex $-1 $323 $470 #
vertex $-1 $212 $471 #
straight-curve $-1 -60.727638868348777 -3.9928573647291898 5.5768287587389906 1 0 0 I I #
coedge $-1 $330 $330 $-1 $472 reversed $215 $-1 #
edge $-1 $473 0 $473 6.2831853071796004 $216 $474 forward 7 unknown #
vertex $-1 $219 $475 #
ellipse-curve $-1 -50.409356291308583 0.3240163430778118 2.8525067722761408 -0.62932039886446345 0 0.77714595512881146 1.5542919102576229 0 1.2586407977289269 1 I I #
face $-1 $-1 $235 $33 $-1 $476 reversed single #
loop $-1 $-1 $350 $220 #
plane-surface $-1 0 21.658620608692608 0 0 -1 0 0 0 -1 forward_v I I I I #
coedge $-1 $477 $348 $351 $478 forward $221 $-1 #
coedge $-1 $354 $223 $224 $342 reversed $138 $-1 #
coedge $-1 $348 $477 $223 $340 reversed $221 $-1 #
edge $-1 $355 -5.576828758738988 $479 5.576828758738988 $339 $480 forward 7 unknown #
coedge $-1 $225 $224 $477 $481 forward $89 $-1 #
edge $-1 $346 -53.773613696707052 $479 53.773613696707052 $338 $482 forward 7 unknown #
coedge $-1 $351 $350 $225 $344 reversed $335 $-1 #
edge $-1 $483 -53.773613696707052 $345 53.773613696707052 $343 $484 forward 7 unknown #
vertex $-1 $227 $485 #
vertex $-1 $357 $486 #
straight-curve $-1 53.773613696707052 0 -5.576828758738988 0 -1 0 I I #
coedge $-1 $337 $339 $228 $349 reversed $221 $-1 #
edge $-1 $352 -21.658620608692608 $355 21.658620608692608 $348 $487 forward 7 unknown #
coedge $-1 $343 $229 $234 $358 forward $335 $-1 #
coedge $-1 $229 $343 $337 $478 reversed $335 $-1 #
vertex $-1 $230 $488 #
straight-curve $-1 0 21.658620608692608 5.576828758738988 -1 0 0 I I #
coedge $-1 $231 $338 $233 $357 reversed $138 $-1 #
vertex $-1 $349 $489 #
straight-curve $-1 0 -21.658620608692608 5.576828758738988 1 0 0 I I #
edge $-1 $236 -5.576828758738988 $346 5.576828758738988 $233 $490 forward 7 unknown #
edge $-1 $237 -5.576828758738988 $345 5.576828758738988 $234 $491 forward 7 unknown #
point $-1 53.773613696707052 -21.658620608692608 5.576828758738988 #
point $-1 53.773613696707052 21.658620608692608 5.576828758738988 #
face $-1 $-1 $377 $34 $-1 $492 reversed single #
loop $-1 $-1 $493 $239 #
plane-surface $-1 0 -27.579743273881022 -1.8066844815103256 0 1 0 0 0 1 forward_v I I I I #
coedge $-1 $494 $374 $376 $495 forward $240 $-1 #
coedge $-1 $242 $249 $496 $497 forward $146 $-1 #
coedge $-1 $498 $247 $242 $367 reversed $377 $-1 #
edge $-1 $499 -2.9605613325942066 $251 2.9605613325942066 $366 $500 forward 7 unknown #
coedge $-1 $244 $243 $493 $501 reversed $93 $-1 #
coedge $-1 $374 $494 $243 $370 forward $240 $-1 #
edge $-1 $502 -2.9605613325942066 $372 2.9605613325942066 $243 $503 forward 7 unknown #
edge $-1 $250 -2.9605613325942066 $504 2.9605613325942066 $244 $505 forward 7 unknown #
vertex $-1 $245 $506 #
straight-curve $-1 -53.773613696707052 -21.658620608692608 0 0 0 -1 I I #
coedge $-1 $364 $369 $246 $375 reversed $240 $-1 #
edge $-1 $378 -53.773613696707052 $372 53.773613696707052 $374 $507 forward 7 unknown #
coedge $-1 $247 $498 $364 $495 reversed $377 $-1 #
loop $-1 $-1 $247 $361 #
vertex $-1 $248 $508 #
straight-curve $-1 53.773613696707052 -21.658620608692608 0 0 0 1 I I #
point $-1 -53.773613696707052 -21.658620608692608 -0.30668448151032557 #
point $-1 53.773613696707052 -21.658620608692608 -0.30668448151032557 #
face $-1 $-1 $396 $35 $-1 $509 reversed single #
loop $-1 $-1 $510 $253 #
plane-surface $-1 0 27.579743273881025 -1.8066844815103256 0 -1 0 0 0 -1 forward_v I I I I #
coedge $-1 $392 $511 $257 $389 forward $254 $-1 #
coedge $-1 $263 $256 $512 $513 forward $154 $-1 #
edge $-1 $264 -2.9605613325942066 $514 2.9605613325942066 $258 $515 forward 7 unknown #
coedge $-1 $258 $257 $510 $516 reversed $97 $-1 #
edge $-1 $517 -2.9605613325942066 $390 2.9605613325942066 $257 $518 forward 7 unknown #
vertex $-1 $259 $519 #
straight-curve $-1 53.773613696707052 21.658620608692608 0 0 0 -1 I I #
coedge $-1 $520 $385 $260 $393 reversed $254 $-1 #
edge $-1 $397 -53.773613696707052 $390 53.773613696707052 $392 $521 forward 7 unknown #
coedge $-1 $522 $261 $263 $399 reversed $396 $-1 #
coedge $-1 $261 $522 $520 $523 reversed $396 $-1 #
loop $-1 $-1 $261 $382 #
vertex $-1 $262 $524 #
straight-curve $-1 -53.773613696707052 21.658620608692608 0 0 0 1 I I #
edge $-1 $525 -2.9605613325942066 $265 2.9605613325942066 $394 $526 forward 7 unknown #
point $-1 53.773613696707052 21.658620608692612 -0.30668448151032557 #
point $-1 -53.773613696707052 21.658620608692612 -0.30668448151032557 #
loop $-1 $-1 $275 $267 #
plane-surface $-1 53.773613696707052 0 0 -1 0 0 0 0 1 forward_v I I I I #
coedge $-1 $405 $270 $272 $409 reversed $162 $-1 #
coedge $-1 $270 $404 $527 $528 reversed $162 $-1 #
coedge $-1 $278 $273 $270 $407 forward $268 $-1 #
edge $-1 $410 30.374376135005139 $529 37.470554959834033 $406 $530 forward 7 unknown #
coedge $-1 $272 $271 $413 $531 reversed $101 $-1 #
edge $-1 $532 -107.5472273934141 $410 -98.661848786317393 $404 $533 forward 7 unknown #
vertex $-1 $274 $534 #
straight-curve $-1 46.677434871878148 -3.2289673166744048 5.5768287587389906 0 -1 0 I I #
coedge $-1 $527 $275 $278 $417 reversed $402 $-1 #
coedge $-1 $275 $527 $408 $531 forward $402 $-1 #
vertex $-1 $276 $535 #
straight-curve $-1 53.773613696707052 -2.6854153549019557 75.422023254025277 0 0 1 I I #
straight-curve $-1 -32.11742048934989 -2.6854153549019557 64.953012321993612 0.79863550430605224 0 -0.6018150307709319 I I #
edge $-1 $529 -10.230453911795664 $279 -2.6854153549019557 $412 $536 forward 7 unknown #
point $-1 53.773613696707052 -2.6854153549019557 5.576828758738988 #
point $-1 46.677434871878155 -2.6854153549019557 5.5768287587389906 #
edge $-1 $537 1 $537 0 $282 $-1 forward 7 unknown #
vertex $-1 $283 $538 #
ellipse-curve $-1 48.31267191331689 -8.0747286098260336 0.36471077577529798 0.6018150307709319 0 0.79863550430605224 0.79863550430605224 0 -0.6018150307709319 1 I I #
point $-1 51.024159788598674 -8.0747286098260336 2.3013365280473987 #
edge $-1 $539 1 $539 0 $286 $-1 forward 7 unknown #
vertex $-1 $287 $540 #
ellipse-curve $-1 48.31267191331689 -4.8411406568715876 0.36471077577529798 0.6018150307709319 0 0.79863550430605224 0.79863550430605224 0 -0.6018150307709319 1 I I #
point $-1 51.024159788598674 -4.8411406568715876 2.3013365280473987 #
plane-surface $-1 0 0 5.576828758738988 0 0 1 1 0 0 forward_v I I I I #
coedge $-1 $439 $438 $431 $541 forward $291 $-1 #
coedge $-1 $431 $293 $295 $435 reversed $184 $-1 #
coedge $-1 $293 $430 $429 $541 reversed $184 $-1 #
coedge $-1 $301 $296 $293 $433 forward $302 $-1 #
edge $-1 $436 30.374376135005139 $542 37.470554959834033 $432 $543 forward 7 unknown #
coedge $-1 $295 $294 $439 $544 reversed $115 $-1 #
edge $-1 $545 -107.5472273934141 $436 -98.661848786317393 $430 $546 forward 7 unknown #
vertex $-1 $297 $547 #
straight-curve $-1 46.677434871878148 4.6397816550776927 5.5768287587389906 0 -1 0 I I #
coedge $-1 $429 $298 $301 $443 reversed $291 $-1 #
coedge $-1 $298 $429 $434 $544 forward $291 $-1 #
vertex $-1 $299 $548 #
straight-curve $-1 53.773613696707052 13.052082588602239 75.422023254025277 0 0 1 I I #
straight-curve $-1 -32.11742048934989 13.052082588602239 64.953012321993612 0.79863550430605224 0 -0.6018150307709319 I I #
edge $-1 $542 5.5070440317085314 $303 13.052082588602239 $438 $549 forward 7 unknown #
point $-1 53.773613696707052 13.052082588602239 5.576828758738988 #
point $-1 46.677434871878155 13.052082588602239 5.5768287587389906 #
edge $-1 $550 1 $550 0 $306 $-1 forward 7 unknown #
vertex $-1 $307 $551 #
ellipse-curve $-1 48.31267191331689 7.6627693336781633 0.36471077577529798 0.6018150307709319 0 0.79863550430605224 0.79863550430605224 0 -0.6018150307709319 1 I I #
point $-1 51.024159788598674 7.6627693336781633 2.3013365280473987 #
edge $-1 $552 1 $552 0 $310 $-1 forward 7 unknown #
vertex $-1 $311 $553 #
ellipse-curve $-1 48.31267191331689 10.896357286632607 0.36471077577529798 0.6018150307709319 0 0.79863550430605224 0.79863550430605224 0 -0.6018150307709319 1 I I #
point $-1 51.024159788598674 10.896357286632607 2.3013365280473987 #
plane-surface $-1 0 0 5.576828758738988 0 0 1 1 0 0 forward_v I I I I #
coedge $-1 $465 $464 $457 $554 forward $315 $-1 #
coedge $-1 $457 $317 $319 $461 reversed $206 $-1 #
coedge $-1 $317 $456 $455 $554 reversed $206 $-1 #
coedge $-1 $325 $320 $317 $459 forward $326 $-1 #
edge $-1 $462 -13.682539982438662 $555 -6.9540251716417245 $458 $556 forward 7 unknown #
coedge $-1 $319 $318 $465 $557 reversed $129 $-1 #
edge $-1 $558 -9.137654163269272e-015 $462 8.657980867547181 $456 $559 forward 7 unknown #
vertex $-1 $321 $560 #
straight-curve $-1 -47.045098885910114 0.1620081715389059 5.5768287587389889 0 1 0 I I #
coedge $-1 $455 $322 $325 $469 reversed $315 $-1 #
coedge $-1 $322 $455 $460 $557 forward $315 $-1 #
vertex $-1 $323 $561 #
straight-curve $-1 -53.773613696707052 -3.9928573647291898 41.85403876996179 0 0 1 I I #
straight-curve $-1 -53.773613696707045 -3.9928573647291898 0.12818478581330339 -0.77714595512881146 0 -0.62932039886446345 I I #
edge $-1 $555 -4.6408900508848134 $327 3.9928573647291898 $464 $562 forward 7 unknown #
point $-1 -53.773613696707052 -3.9928573647291898 5.576828758738988 #
point $-1 -47.045098885910114 -3.9928573647291898 5.5768287587389871 #
edge $-1 $563 1 $563 0 $330 $-1 forward 7 unknown #
vertex $-1 $331 $564 #
ellipse-curve $-1 -48.71800610344885 0.3240163430778118 0.76386327752643879 -0.62932039886446345 0 0.77714595512881146 1.5542919102576229 0 1.2586407977289269 1 I I #
point $-1 -48.855064381050965 0.3240163430778118 4.1111475700050724 #
plane-surface $-1 53.773613696707052 0 0 -1 0 0 0 0 1 forward_v I I I I #
coedge $-1 $339 $337 $341 $481 reversed $221 $-1 #
edge $-1 $352 -5.576828758738988 $483 5.576828758738988 $351 $565 forward 7 unknown #
vertex $-1 $481 $566 #
straight-curve $-1 -53.773613696707052 -21.658620608692608 0 0 0 -1 I I #
edge $-1 $479 -21.658620608692608 $483 21.658620608692608 $477 $567 forward 7 unknown #
straight-curve $-1 0 -21.658620608692608 -5.576828758738988 -1 0 0 I I #
vertex $-1 $344 $568 #
straight-curve $-1 0 21.658620608692608 -5.576828758738988 1 0 0 I I #
point $-1 53.773613696707052 21.658620608692608 -5.576828758738988 #
point $-1 53.773613696707052 -21.658620608692608 -5.576828758738988 #
straight-curve $-1 -53.773613696707052 0 5.576828758738988 0 -1 0 I I #
point $-1 -53.773613696707052 21.658620608692608 5.576828758738988 #
point $-1 -53.773613696707052 -21.658620608692608 5.576828758738988 #
straight-curve $-1 53.773613696707052 -21.658620608692608 0 0 0 -1 I I #
straight-curve $-1 53.773613696707052 21.658620608692608 0 0 0 -1 I I #
plane-surface $-1 53.773613696707052 0 0 -1 0 0 0 0 1 forward_v I I I I #
coedge $-1 $569 $496 $368 $501 forward $362 $-1 #
coedge $-1 $369 $364 $569 $570 forward $240 $-1 #
edge $-1 $378 -2.9605613325942066 $571 2.9605613325942066 $376 $572 forward 7 unknown #
coedge $-1 $493 $573 $365 $497 reversed $362 $-1 #
edge $-1 $504 -53.773613696707052 $499 53.773613696707052 $496 $574 forward 7 unknown #
coedge $-1 $376 $366 $573 $575 forward $377 $-1 #
vertex $-1 $367 $576 #
straight-curve $-1 53.773613696707052 -24.619181941286815 -0.30668448151032557 0 1 0 I I #
edge $-1 $504 -1.5 $502 1.5 $368 $577 forward 7 unknown #
vertex $-1 $370 $578 #
straight-curve $-1 -53.773613696707052 -24.619181941286815 -3.3066844815103256 0 1 0 I I #
vertex $-1 $371 $579 #
straight-curve $-1 -53.773613696707052 -24.619181941286815 -0.30668448151032557 0 -1 0 I I #
point $-1 -53.773613696707052 -21.658620608692608 -3.3066844815103256 #
straight-curve $-1 0 -21.658620608692608 -3.3066844815103256 -1 0 0 I I #
point $-1 53.773613696707052 -21.658620608692608 -3.3066844815103256 #
plane-surface $-1 -53.773613696707052 0 0 1 0 0 0 0 -1 forward_v I I I I #
coedge $-1 $580 $512 $388 $516 forward $383 $-1 #
coedge $-1 $385 $520 $580 $581 forward $254 $-1 #
coedge $-1 $510 $582 $386 $513 reversed $383 $-1 #
edge $-1 $514 -53.773613696707052 $525 53.773613696707052 $512 $583 forward 7 unknown #
vertex $-1 $387 $584 #
straight-curve $-1 53.773613696707052 24.619181941286818 -0.30668448151032557 0 1 0 I I #
edge $-1 $514 -1.5 $517 1.5 $388 $585 forward 7 unknown #
vertex $-1 $389 $586 #
straight-curve $-1 53.773613696707052 24.619181941286818 -3.3066844815103256 0 -1 0 I I #
point $-1 53.773613696707052 21.658620608692612 -3.3066844815103256 #
coedge $-1 $511 $392 $395 $523 forward $254 $-1 #
straight-curve $-1 0 21.658620608692608 -3.3066844815103256 1 0 0 I I #
coedge $-1 $395 $394 $582 $587 forward $396 $-1 #
edge $-1 $397 -2.9605613325942066 $588 2.9605613325942066 $395 $589 forward 7 unknown #
point $-1 -53.773613696707052 21.658620608692612 -3.3066844815103256 #
vertex $-1 $513 $590 #
straight-curve $-1 -53.773613696707052 24.619181941286818 -0.30668448151032557 0 -1 0 I I #
coedge $-1 $413 $412 $405 $528 forward $402 $-1 #
edge $-1 $529 69.845194495286293 $532 75.192548895127572 $527 $591 forward 7 unknown #
vertex $-1 $417 $592 #
straight-curve $-1 16.303058736873016 -10.230453911795664 5.5768287587389835 1 0 0 I I #
edge $-1 $532 -7.0014865951212588 $414 0.54355196177244913 $413 $593 forward 7 unknown #
vertex $-1 $531 $594 #
straight-curve $-1 -32.11742048934989 -10.230453911795664 64.953012321993612 -0.79863550430605224 0 0.6018150307709319 I I #
point $-1 46.677434871878155 -10.230453911795664 5.5768287587389906 #
point $-1 53.773613696707052 -2.6854153549019557 0.22947435889770418 #
straight-curve $-1 53.773613696707052 0 5.576828758738988 0 1 0 I I #
vertex $-1 $420 $595 #
point $-1 49.111307417622939 -8.0747286098260336 -0.23710425499563392 #
vertex $-1 $424 $596 #
point $-1 49.111307417622939 -4.8411406568715876 -0.23710425499563392 #
edge $-1 $542 69.845194495286293 $545 75.192548895127572 $429 $597 forward 7 unknown #
vertex $-1 $443 $598 #
straight-curve $-1 16.303058736873016 5.5070440317085314 5.5768287587389835 1 0 0 I I #
edge $-1 $545 0.86726237663083872 $440 8.4123009335245467 $439 $599 forward 7 unknown #
vertex $-1 $544 $600 #
straight-curve $-1 -32.11742048934989 5.5070440317085314 64.953012321993612 -0.79863550430605224 0 0.6018150307709319 I I #
point $-1 46.677434871878155 5.5070440317085314 5.5768287587389906 #
point $-1 53.773613696707052 13.052082588602239 0.22947435889770418 #
straight-curve $-1 53.773613696707052 0 5.576828758738988 0 1 0 I I #
vertex $-1 $446 $601 #
point $-1 49.111307417622939 7.6627693336781633 -0.23710425499563392 #
vertex $-1 $450 $602 #
point $-1 49.111307417622939 10.896357286632607 -0.23710425499563392 #
edge $-1 $555 36.277210011222799 $558 41.725853984148493 $455 $603 forward 7 unknown #
vertex $-1 $469 $604 #
straight-curve $-1 -60.727638868348777 4.6408900508848134 5.5768287587389906 -1 0 0 I I #
edge $-1 $558 -4.4788818793459075 $466 4.1548655362680957 $465 $605 forward 7 unknown #
vertex $-1 $557 $606 #
straight-curve $-1 -53.773613696707045 4.6408900508848134 0.12818478581330339 0.77714595512881146 0 0.62932039886446345 I I #
point $-1 -47.045098885910114 4.6408900508848134 5.5768287587389871 #
point $-1 -53.773613696707052 -3.9928573647291898 0.12818478581329765 #
straight-curve $-1 -53.773613696707052 0 5.576828758738988 0 -1 0 I I #
vertex $-1 $472 $607 #
point $-1 -47.163714193191225 0.3240163430778118 2.0225040752553656 #
straight-curve $-1 -53.773613696707052 21.658620608692608 0 0 0 -1 I I #
point $-1 -53.773613696707052 -21.658620608692608 -5.576828758738988 #
straight-curve $-1 -53.773613696707052 0 -5.576828758738988 0 1 0 I I #
point $-1 -53.773613696707052 21.658620608692608 -5.576828758738988 #
coedge $-1 $573 $493 $494 $570 reversed $362 $-1 #
edge $-1 $571 -53.773613696707052 $502 53.773613696707052 $569 $608 forward 7 unknown #
vertex $-1 $575 $609 #
straight-curve $-1 53.773613696707052 -24.619181941286815 -3.3066844815103256 0 -1 0 I I #
coedge $-1 $496 $569 $498 $575 reversed $362 $-1 #
straight-curve $-1 0 -27.579743273881022 -0.30668448151032557 1 0 0 I I #
edge $-1 $499 -1.5 $571 1.5 $498 $610 forward 7 unknown #
point $-1 53.773613696707052 -27.579743273881022 -0.30668448151032557 #
straight-curve $-1 -53.773613696707052 -27.579743273881022 -1.8066844815103256 0 0 -1 I I #
point $-1 -53.773613696707052 -27.579743273881022 -3.3066844815103256 #
point $-1 -53.773613696707052 -27.579743273881022 -0.30668448151032557 #
coedge $-1 $582 $510 $511 $581 reversed $383 $-1 #
edge $-1 $588 -53.773613696707052 $517 53.773613696707052 $580 $611 forward 7 unknown #
coedge $-1 $512 $580 $522 $587 reversed $383 $-1 #
straight-curve $-1 0 27.579743273881025 -0.30668448151032557 -1 0 0 I I #
point $-1 53.773613696707052 27.579743273881025 -0.30668448151032557 #
straight-curve $-1 53.773613696707052 27.579743273881025 -1.8066844815103256 0 0 -1 I I #
point $-1 53.773613696707052 27.579743273881025 -3.3066844815103256 #
edge $-1 $525 -1.5 $588 1.5 $582 $612 forward 7 unknown #
vertex $-1 $581 $613 #
straight-curve $-1 -53.773613696707052 24.619181941286818 -3.3066844815103256 0 1 0 I I #
point $-1 -53.773613696707052 27.579743273881025 -0.30668448151032557 #
straight-curve $-1 53.773613696707052 -10.230453911795664 75.422023254025277 0 0 -1 I I #
point $-1 53.773613696707052 -10.230453911795664 5.576828758738988 #
straight-curve $-1 53.773613696707045 -3.2289673166744048 0.22947435889770418 0 1 0 I I #
point $-1 53.773613696707052 -10.230453911795664 0.22947435889770418 #
point $-1 47.710856882545954 -8.0747286098260336 -0.43392472853075426 #
point $-1 47.710856882545954 -4.8411406568715876 -0.43392472853075426 #
straight-curve $-1 53.773613696707052 5.5070440317085314 75.422023254025277 0 0 -1 I I #
point $-1 53.773613696707052 5.5070440317085314 5.576828758738988 #
straight-curve $-1 53.773613696707045 4.6397816550776927 0.22947435889770418 0 1 0 I I #
point $-1 53.773613696707052 5.5070440317085314 0.22947435889770418 #
point $-1 47.710856882545954 7.6627693336781633 -0.43392472853075426 #
point $-1 47.710856882545954 10.896357286632607 -0.43392472853075426 #
straight-curve $-1 -53.773613696707052 4.6408900508848134 41.85403876996179 0 0 -1 I I #
point $-1 -53.773613696707052 4.6408900508848134 5.576828758738988 #
straight-curve $-1 -53.773613696707052 0.1620081715389059 0.12818478581329362 0 -1 0 I I #
point $-1 -53.773613696707052 4.6408900508848134 0.12818478581329765 #
point $-1 -47.459365305719921 0.3240163430778118 -0.79042863273118413 #
straight-curve $-1 0 -27.579743273881022 -3.3066844815103256 -1 0 0 I I #
point $-1 53.773613696707052 -27.579743273881022 -3.3066844815103256 #
straight-curve $-1 53.773613696707052 -27.579743273881022 -1.8066844815103256 0 0 -1 I I #
straight-curve $-1 0 27.579743273881025 -3.3066844815103256 1 0 0 I I #
straight-curve $-1 -53.773613696707052 27.579743273881025 -1.8066844815103256 0 0 -1 I I #
point $-1 -53.773613696707052 27.579743273881025 -3.3066844815103256 #
End-of-ACIS-data 