500 0 18 0           
7 Unknown 11 ACIS 5.0 NT 24 Thu Mar 25 16:01:10 1999 
-1 9.9999999999999995e-007 1e-010 
body $-1 $18 $-1 $19 #
body $-1 $20 $-1 $21 #
body $-1 $22 $-1 $23 #
body $-1 $24 $-1 $25 #
body $-1 $26 $-1 $27 #
body $-1 $28 $-1 $29 #
body $-1 $30 $-1 $31 #
body $-1 $32 $-1 $33 #
body $-1 $34 $-1 $35 #
body $-1 $36 $-1 $37 #
body $-1 $38 $-1 $39 #
body $-1 $40 $-1 $41 #
body $-1 $42 $-1 $43 #
body $-1 $44 $-1 $45 #
body $-1 $46 $-1 $47 #
body $-1 $48 $-1 $49 #
body $-1 $50 $-1 $51 #
body $-1 $52 $-1 $53 #
lump $-1 $-1 $54 $0 #
transform $-1 1 0 0 0 1 0 0 0 1 62.505569627979369 34.813276946642148 12.28170167692477 1 rotate no_reflect no_shear #
lump $-1 $-1 $55 $1 #
transform $-1 1 0 0 0 1 0 0 0 1 62.505569627979369 34.813276946642148 12.28170167692477 1 rotate no_reflect no_shear #
lump $-1 $-1 $56 $2 #
transform $-1 1 0 0 0 1 0 0 0 1 62.505569627979369 34.813276946642148 12.28170167692477 1 rotate no_reflect no_shear #
lump $-1 $-1 $57 $3 #
transform $-1 1 0 0 0 1 0 0 0 1 62.505569627979369 34.813276946642148 12.28170167692477 1 rotate no_reflect no_shear #
lump $-1 $-1 $58 $4 #
transform $-1 1 0 0 0 1 0 0 0 1 62.505569627979369 34.813276946642148 12.28170167692477 1 rotate no_reflect no_shear #
lump $-1 $-1 $59 $5 #
transform $-1 1 0 0 0 1 0 0 0 1 62.505569627979369 34.813276946642148 12.28170167692477 1 rotate no_reflect no_shear #
lump $-1 $-1 $60 $6 #
transform $-1 1 0 0 0 1 0 0 0 1 62.505569627979369 34.813276946642148 12.28170167692477 1 rotate no_reflect no_shear #
lump $-1 $-1 $61 $7 #
transform $-1 1 0 0 0 1 0 0 0 1 62.505569627979369 34.813276946642148 12.28170167692477 1 rotate no_reflect no_shear #
lump $-1 $-1 $62 $8 #
transform $-1 1 0 0 0 1 0 0 0 1 62.505569627979369 34.813276946642148 12.28170167692477 1 rotate no_reflect no_shear #
lump $-1 $-1 $63 $9 #
transform $-1 1 0 0 0 1 0 0 0 1 62.505569627979369 34.813276946642148 12.28170167692477 1 rotate no_reflect no_shear #
lump $-1 $-1 $64 $10 #
transform $-1 1 0 0 0 1 0 0 0 1 62.505569627979369 34.813276946642148 12.28170167692477 1 rotate no_reflect no_shear #
lump $-1 $-1 $65 $11 #
transform $-1 1 0 0 0 1 0 0 0 1 62.505569627979369 34.813276946642148 12.28170167692477 1 rotate no_reflect no_shear #
lump $-1 $-1 $66 $12 #
transform $-1 1 0 0 0 1 0 0 0 1 62.505569627979369 34.813276946642148 12.28170167692477 1 rotate no_reflect no_shear #
lump $-1 $-1 $67 $13 #
transform $-1 1 0 0 0 1 0 0 0 1 62.505569627979369 34.813276946642148 12.28170167692477 1 rotate no_reflect no_shear #
lump $-1 $-1 $68 $14 #
transform $-1 1 0 0 0 1 0 0 0 1 62.505569627979369 34.813276946642148 12.28170167692477 1 rotate no_reflect no_shear #
lump $-1 $-1 $69 $15 #
transform $-1 1 0 0 0 1 0 0 0 1 62.505569627979369 34.813276946642148 12.28170167692477 1 rotate no_reflect no_shear #
lump $-1 $-1 $70 $16 #
transform $-1 1 0 0 0 1 0 0 0 1 62.505569627979369 34.813276946642148 12.28170167692477 1 rotate no_reflect no_shear #
lump $-1 $-1 $71 $17 #
transform $-1 1 0 0 0 1 0 0 0 1 62.505569627979369 34.813276946642148 12.28170167692477 1 rotate no_reflect no_shear #
shell $-1 $-1 $-1 $72 $-1 $18 #
shell $-1 $-1 $-1 $73 $-1 $20 #
shell $-1 $-1 $-1 $74 $-1 $22 #
shell $-1 $-1 $-1 $75 $-1 $24 #
shell $-1 $-1 $-1 $76 $-1 $26 #
shell $-1 $-1 $-1 $77 $-1 $28 #
shell $-1 $-1 $-1 $78 $-1 $30 #
shell $-1 $-1 $-1 $79 $-1 $32 #
shell $-1 $-1 $-1 $80 $-1 $34 #
shell $-1 $-1 $-1 $81 $-1 $36 #
shell $-1 $-1 $-1 $82 $-1 $38 #
shell $-1 $-1 $-1 $83 $-1 $40 #
shell $-1 $-1 $-1 $84 $-1 $42 #
shell $-1 $-1 $-1 $85 $-1 $44 #
shell $-1 $-1 $-1 $86 $-1 $46 #
shell $-1 $-1 $-1 $87 $-1 $48 #
shell $-1 $-1 $-1 $88 $-1 $50 #
shell $-1 $-1 $-1 $89 $-1 $52 #
face $-1 $90 $91 $54 $-1 $92 forward single #
face $-1 $93 $94 $55 $-1 $95 forward single #
face $-1 $96 $97 $56 $-1 $98 reversed single #
face $-1 $99 $100 $57 $-1 $101 forward single #
face $-1 $102 $103 $58 $-1 $104 forward single #
face $-1 $105 $106 $59 $-1 $107 forward single #
face $-1 $108 $109 $60 $-1 $110 reversed single #
face $-1 $111 $112 $61 $-1 $113 forward single #
face $-1 $114 $115 $62 $-1 $116 forward single #
face $-1 $117 $118 $63 $-1 $119 forward single #
face $-1 $120 $121 $64 $-1 $122 reversed single #
face $-1 $123 $124 $65 $-1 $125 forward single #
face $-1 $126 $127 $66 $-1 $128 forward single #
face $-1 $129 $130 $67 $-1 $131 forward single #
face $-1 $132 $133 $68 $-1 $134 reversed single #
face $-1 $135 $136 $69 $-1 $137 forward single #
face $-1 $138 $139 $70 $-1 $140 forward single #
face $-1 $141 $142 $71 $-1 $143 forward single #
face $-1 $144 $145 $54 $-1 $146 reversed single #
loop $-1 $-1 $147 $72 #
plane-surface $-1 0 0 12.28170167692477 0 0 1 1 0 0 forward_v I I I I #
face $-1 $148 $149 $55 $-1 $150 reversed single #
loop $-1 $-1 $151 $73 #
plane-surface $-1 0 -29.798251885391441 -5.7300864453918603 0 0 1 1 0 0 forward_v I I I I #
face $-1 $152 $153 $56 $-1 $154 reversed single #
loop $-1 $-1 $155 $74 #
plane-surface $-1 -134.20901431070359 -20.607768552967912 108.59074190883051 0 1 0 -0.57357644374324357 0 0.81915203911291934 forward_v I I I I #
face $-1 $156 $157 $57 $-1 $158 forward single #
loop $-1 $159 $160 $75 #
cone-surface $-1 -57.157370173978812 -18.284697609694636 7.811409369930483 0.57357644374324357 0 -0.81915203911291934 0.81915203911291934 0 0.57357644374324357 1 I I 0 1 1 forward I I I I #
face $-1 $161 $162 $58 $-1 $163 forward single #
loop $-1 $164 $165 $76 #
cone-surface $-1 -57.157370173978812 -14.800091194784727 7.811409369930483 0.57357644374324357 0 -0.81915203911291934 0.81915203911291934 0 0.57357644374324357 1 I I 0 1 1 forward I I I I #
face $-1 $166 $167 $59 $-1 $168 forward single #
loop $-1 $169 $170 $77 #
cone-surface $-1 -57.157370173978812 -11.315484779874819 7.811409369930483 0.57357644374324357 0 -0.81915203911291934 0.81915203911291934 0 0.57357644374324357 1 I I 0 1 1 forward I I I I #
face $-1 $171 $172 $60 $-1 $173 reversed single #
loop $-1 $-1 $174 $78 #
plane-surface $-1 -134.20901431070359 9.1904833324235273 108.59074190883051 0 1 0 -0.57357644374324357 0 0.81915203911291934 forward_v I I I I #
face $-1 $175 $176 $61 $-1 $177 forward single #
loop $-1 $178 $179 $79 #
cone-surface $-1 -57.157370173978812 11.513554275696805 7.811409369930483 0.57357644374324357 0 -0.81915203911291934 0.81915203911291934 0 0.57357644374324357 1 I I 0 1 1 forward I I I I #
face $-1 $180 $181 $62 $-1 $182 forward single #
loop $-1 $183 $184 $80 #
cone-surface $-1 -57.157370173978812 14.99816069060671 7.811409369930483 0.57357644374324357 0 -0.81915203911291934 0.81915203911291934 0 0.57357644374324357 1 I I 0 1 1 forward I I I I #
face $-1 $185 $186 $63 $-1 $187 forward single #
loop $-1 $188 $189 $81 #
cone-surface $-1 -57.157370173978812 18.482767105516622 7.811409369930483 0.57357644374324357 0 -0.81915203911291934 0.81915203911291934 0 0.57357644374324357 1 I I 0 1 1 forward I I I I #
face $-1 $190 $191 $64 $-1 $192 reversed single #
loop $-1 $-1 $193 $82 #
plane-surface $-1 31.805884677355863 -8.9924138366015445 180.29418659155473 0 -1 0 -0.57357644374324357 0 -0.81915203911291934 forward_v I I I I #
face $-1 $194 $195 $65 $-1 $196 forward single #
loop $-1 $197 $198 $83 #
cone-surface $-1 57.157370173978812 -18.284697609694636 7.8114093699304972 -0.57357644374324357 0 -0.81915203911291934 0.81915203911291934 0 -0.57357644374324357 1 I I 0 1 1 forward I I I I #
face $-1 $199 $200 $66 $-1 $201 forward single #
loop $-1 $202 $203 $84 #
cone-surface $-1 57.157370173978812 -14.800091194784727 7.8114093699304972 -0.57357644374324357 0 -0.81915203911291934 0.81915203911291934 0 -0.57357644374324357 1 I I 0 1 1 forward I I I I #
face $-1 $204 $205 $67 $-1 $206 forward single #
loop $-1 $207 $208 $85 #
cone-surface $-1 57.157370173978812 -11.315484779874819 7.8114093699304972 -0.57357644374324357 0 -0.81915203911291934 0.81915203911291934 0 -0.57357644374324357 1 I I 0 1 1 forward I I I I #
face $-1 $209 $210 $68 $-1 $211 reversed single #
loop $-1 $-1 $212 $86 #
plane-surface $-1 31.805884677355863 20.805838048789894 180.29418659155473 0 -1 0 -0.57357644374324357 0 -0.81915203911291934 forward_v I I I I #
face $-1 $213 $214 $69 $-1 $215 forward single #
loop $-1 $216 $217 $87 #
cone-surface $-1 57.157370173978812 11.513554275696805 7.8114093699304972 -0.57357644374324357 0 -0.81915203911291934 0.81915203911291934 0 -0.57357644374324357 1 I I 0 1 1 forward I I I I #
face $-1 $218 $219 $70 $-1 $220 forward single #
loop $-1 $221 $222 $88 #
cone-surface $-1 57.157370173978812 14.99816069060671 7.8114093699304972 -0.57357644374324357 0 -0.81915203911291934 0.81915203911291934 0 -0.57357644374324357 1 I I 0 1 1 forward I I I I #
face $-1 $223 $224 $71 $-1 $225 forward single #
loop $-1 $226 $227 $89 #
cone-surface $-1 57.157370173978812 18.482767105516622 7.8114093699304972 -0.57357644374324357 0 -0.81915203911291934 0.81915203911291934 0 -0.57357644374324357 1 I I 0 1 1 forward I I I I #
face $-1 $228 $229 $54 $-1 $230 reversed single #
loop $-1 $-1 $231 $90 #
plane-surface $-1 0 0 -12.28170167692477 0 0 1 1 0 0 forward_v I I I I #
coedge $-1 $232 $233 $234 $235 forward $91 $-1 #
face $-1 $236 $237 $55 $-1 $238 reversed single #
loop $-1 $-1 $239 $93 #
plane-surface $-1 0 -24.783226824140733 -9.0058940611583154 0 -1 0 0 0 -1 forward_v I I I I #
coedge $-1 $240 $241 $242 $243 reversed $94 $-1 #
face $-1 $244 $245 $56 $-1 $246 reversed single #
loop $-1 $-1 $247 $96 #
plane-surface $-1 -62.505569627979384 -14.800091194784727 6.1876122754827918 -0.57357644374324357 0 0.81915203911291934 0.81915203911291934 0 0.57357644374324357 forward_v I I I I #
coedge $-1 $248 $249 $250 $251 reversed $97 $-1 #
face $-1 $-1 $252 $57 $-1 $253 forward single #
loop $-1 $254 $255 $99 #
cone-surface $-1 -55.874013230314887 -18.284697609694636 5.9785857441007249 0.57357644374324357 0 -0.81915203911291934 0.40957601955645967 0 0.28678822187162178 1 I I -0.70710678118654746 0.70710678118654746 0.5 forward I I I I #
loop $-1 $-1 $256 $75 #
coedge $-1 $160 $160 $257 $258 reversed $100 $-1 #
face $-1 $-1 $259 $58 $-1 $260 forward single #
loop $-1 $261 $262 $102 #
cone-surface $-1 -55.874013230314887 -14.800091194784727 5.9785857441007249 0.57357644374324357 0 -0.81915203911291934 0.40957601955645967 0 0.28678822187162178 1 I I -0.70710678118654746 0.70710678118654746 0.5 forward I I I I #
loop $-1 $-1 $263 $76 #
coedge $-1 $165 $165 $264 $265 reversed $103 $-1 #
face $-1 $-1 $266 $59 $-1 $267 forward single #
loop $-1 $268 $269 $105 #
cone-surface $-1 -55.874013230314887 -11.315484779874819 5.9785857441007249 0.57357644374324357 0 -0.81915203911291934 0.40957601955645967 0 0.28678822187162178 1 I I -0.70710678118654746 0.70710678118654746 0.5 forward I I I I #
loop $-1 $-1 $270 $77 #
coedge $-1 $170 $170 $271 $272 reversed $106 $-1 #
face $-1 $273 $274 $60 $-1 $275 reversed single #
loop $-1 $-1 $276 $108 #
plane-surface $-1 -62.505569627979384 14.99816069060671 6.1876122754827918 -0.57357644374324357 0 0.81915203911291934 0.81915203911291934 0 0.57357644374324357 forward_v I I I I #
coedge $-1 $277 $278 $279 $280 reversed $109 $-1 #
face $-1 $-1 $281 $61 $-1 $282 forward single #
loop $-1 $283 $284 $111 #
cone-surface $-1 -55.874013230314887 11.513554275696805 5.9785857441007249 0.57357644374324357 0 -0.81915203911291934 0.40957601955645967 0 0.28678822187162178 1 I I -0.70710678118654746 0.70710678118654746 0.5 forward I I I I #
loop $-1 $-1 $285 $79 #
coedge $-1 $179 $179 $286 $287 reversed $112 $-1 #
face $-1 $-1 $288 $62 $-1 $289 forward single #
loop $-1 $290 $291 $114 #
cone-surface $-1 -55.874013230314887 14.99816069060671 5.9785857441007249 0.57357644374324357 0 -0.81915203911291934 0.40957601955645967 0 0.28678822187162178 1 I I -0.70710678118654746 0.70710678118654746 0.5 forward I I I I #
loop $-1 $-1 $292 $80 #
coedge $-1 $184 $184 $293 $294 reversed $115 $-1 #
face $-1 $-1 $295 $63 $-1 $296 forward single #
loop $-1 $297 $298 $117 #
cone-surface $-1 -55.874013230314887 18.482767105516622 5.9785857441007249 0.57357644374324357 0 -0.81915203911291934 0.40957601955645967 0 0.28678822187162178 1 I I -0.70710678118654746 0.70710678118654746 0.5 forward I I I I #
loop $-1 $-1 $299 $81 #
coedge $-1 $189 $189 $300 $301 reversed $118 $-1 #
face $-1 $302 $303 $64 $-1 $304 reversed single #
loop $-1 $-1 $305 $120 #
plane-surface $-1 -39.897560005368348 -14.800091194784727 77.891056958207017 0.57357644374324357 0 0.81915203911291934 0.81915203911291934 0 -0.57357644374324357 forward_v I I I I #
coedge $-1 $306 $307 $308 $309 reversed $121 $-1 #
face $-1 $-1 $310 $65 $-1 $311 forward single #
loop $-1 $312 $313 $123 #
cone-surface $-1 55.874013230314887 -18.284697609694636 5.9785857441007391 -0.57357644374324357 0 -0.81915203911291934 0.40957601955645967 0 -0.28678822187162178 1 I I -0.70710678118654746 0.70710678118654746 0.5 forward I I I I #
loop $-1 $-1 $314 $83 #
coedge $-1 $198 $198 $315 $316 reversed $124 $-1 #
face $-1 $-1 $317 $66 $-1 $318 forward single #
loop $-1 $319 $320 $126 #
cone-surface $-1 55.874013230314887 -14.800091194784727 5.9785857441007391 -0.57357644374324357 0 -0.81915203911291934 0.40957601955645967 0 -0.28678822187162178 1 I I -0.70710678118654746 0.70710678118654746 0.5 forward I I I I #
loop $-1 $-1 $321 $84 #
coedge $-1 $203 $203 $322 $323 reversed $127 $-1 #
face $-1 $-1 $324 $67 $-1 $325 forward single #
loop $-1 $326 $327 $129 #
cone-surface $-1 55.874013230314887 -11.315484779874819 5.9785857441007391 -0.57357644374324357 0 -0.81915203911291934 0.40957601955645967 0 -0.28678822187162178 1 I I -0.70710678118654746 0.70710678118654746 0.5 forward I I I I #
loop $-1 $-1 $328 $85 #
coedge $-1 $208 $208 $329 $330 reversed $130 $-1 #
face $-1 $331 $332 $68 $-1 $333 reversed single #
loop $-1 $-1 $334 $132 #
plane-surface $-1 -39.897560005368348 14.99816069060671 77.891056958207017 0.57357644374324357 0 0.81915203911291934 0.81915203911291934 0 -0.57357644374324357 forward_v I I I I #
coedge $-1 $335 $336 $337 $338 reversed $133 $-1 #
face $-1 $-1 $339 $69 $-1 $340 forward single #
loop $-1 $341 $342 $135 #
cone-surface $-1 55.874013230314887 11.513554275696805 5.9785857441007391 -0.57357644374324357 0 -0.81915203911291934 0.40957601955645967 0 -0.28678822187162178 1 I I -0.70710678118654746 0.70710678118654746 0.5 forward I I I I #
loop $-1 $-1 $343 $87 #
coedge $-1 $217 $217 $344 $345 reversed $136 $-1 #
face $-1 $-1 $346 $70 $-1 $347 forward single #
loop $-1 $348 $349 $138 #
cone-surface $-1 55.874013230314887 14.99816069060671 5.9785857441007391 -0.57357644374324357 0 -0.81915203911291934 0.40957601955645967 0 -0.28678822187162178 1 I I -0.70710678118654746 0.70710678118654746 0.5 forward I I I I #
loop $-1 $-1 $350 $88 #
coedge $-1 $222 $222 $351 $352 reversed $139 $-1 #
face $-1 $-1 $353 $71 $-1 $354 forward single #
loop $-1 $355 $356 $141 #
cone-surface $-1 55.874013230314887 18.482767105516622 5.9785857441007391 -0.57357644374324357 0 -0.81915203911291934 0.40957601955645967 0 -0.28678822187162178 1 I I -0.70710678118654746 0.70710678118654746 0.5 forward I I I I #
loop $-1 $-1 $357 $89 #
coedge $-1 $227 $227 $358 $359 reversed $142 $-1 #
face $-1 $360 $361 $54 $-1 $362 reversed single #
loop $-1 $-1 $363 $144 #
plane-surface $-1 0 -34.813276946642148 0 0 1 0 0 0 1 forward_v I I I I #
coedge $-1 $364 $365 $366 $367 forward $145 $-1 #
coedge $-1 $368 $147 $369 $370 forward $91 $-1 #
coedge $-1 $147 $368 $371 $372 forward $91 $-1 #
coedge $-1 $373 $374 $147 $235 reversed $375 $-1 #
edge $-1 $376 -34.813276946642148 $377 34.813276946642148 $234 $378 forward 7 unknown #
face $-1 $379 $380 $55 $-1 $381 reversed single #
loop $-1 $-1 $382 $148 #
plane-surface $-1 0 0 -12.28170167692477 0 0 1 1 0 0 forward_v I I I I #
coedge $-1 $383 $384 $385 $386 reversed $149 $-1 #
coedge $-1 $387 $151 $384 $388 forward $94 $-1 #
coedge $-1 $151 $387 $389 $390 reversed $94 $-1 #
coedge $-1 $391 $385 $151 $243 forward $380 $-1 #
edge $-1 $392 9.8841008814450131 $393 19.914151003946429 $242 $394 forward 7 unknown #
face $-1 $395 $396 $56 $-1 $397 forward single #
loop $-1 $-1 $398 $152 #
plane-surface $-1 -134.20901431070359 -8.9924138366015445 108.59074190883051 0 -1 0 0.57357644374324357 0 -0.81915203911291934 forward_v I I I I #
coedge $-1 $399 $400 $401 $402 reversed $153 $-1 #
coedge $-1 $249 $155 $403 $404 reversed $97 $-1 #
coedge $-1 $155 $248 $399 $405 reversed $97 $-1 #
coedge $-1 $401 $406 $155 $251 forward $396 $-1 #
edge $-1 $407 4.5989375273724278 $408 13.302198991788906 $250 $409 forward 7 unknown #
loop $-1 $-1 $257 $156 #
plane-surface $-1 -62.505569627979384 -14.800091194784727 6.1876122754827918 -0.57357644374324357 0 0.81915203911291934 0.81915203911291934 0 0.57357644374324357 forward_v I I I I #
loop $-1 $-1 $410 $99 #
coedge $-1 $255 $255 $256 $411 reversed $157 $-1 #
coedge $-1 $256 $256 $255 $411 forward $159 $-1 #
coedge $-1 $257 $257 $160 $258 forward $252 $-1 #
edge $-1 $412 0 $412 6.2831853071796004 $257 $413 forward 7 unknown #
loop $-1 $-1 $264 $161 #
plane-surface $-1 -62.505569627979384 -14.800091194784727 6.1876122754827918 -0.57357644374324357 0 0.81915203911291934 0.81915203911291934 0 0.57357644374324357 forward_v I I I I #
loop $-1 $-1 $414 $102 #
coedge $-1 $262 $262 $263 $415 reversed $162 $-1 #
coedge $-1 $263 $263 $262 $415 forward $164 $-1 #
coedge $-1 $264 $264 $165 $265 forward $259 $-1 #
edge $-1 $416 0 $416 6.2831853071796004 $264 $417 forward 7 unknown #
loop $-1 $-1 $271 $166 #
plane-surface $-1 -62.505569627979384 -14.800091194784727 6.1876122754827918 -0.57357644374324357 0 0.81915203911291934 0.81915203911291934 0 0.57357644374324357 forward_v I I I I #
loop $-1 $-1 $418 $105 #
coedge $-1 $269 $269 $270 $419 reversed $167 $-1 #
coedge $-1 $270 $270 $269 $419 forward $169 $-1 #
coedge $-1 $271 $271 $170 $272 forward $266 $-1 #
edge $-1 $420 0 $420 6.2831853071796004 $271 $421 forward 7 unknown #
face $-1 $422 $423 $60 $-1 $424 forward single #
loop $-1 $-1 $425 $171 #
plane-surface $-1 -134.20901431070359 20.805838048789894 108.59074190883051 0 -1 0 0.57357644374324357 0 -0.81915203911291934 forward_v I I I I #
coedge $-1 $426 $427 $428 $429 reversed $172 $-1 #
coedge $-1 $278 $174 $430 $431 reversed $109 $-1 #
coedge $-1 $174 $277 $426 $432 reversed $109 $-1 #
coedge $-1 $428 $433 $174 $280 forward $423 $-1 #
edge $-1 $434 4.5989375273724278 $435 13.302198991788906 $279 $436 forward 7 unknown #
loop $-1 $-1 $286 $175 #
plane-surface $-1 -62.505569627979384 14.99816069060671 6.1876122754827918 -0.57357644374324357 0 0.81915203911291934 0.81915203911291934 0 0.57357644374324357 forward_v I I I I #
loop $-1 $-1 $437 $111 #
coedge $-1 $284 $284 $285 $438 reversed $176 $-1 #
coedge $-1 $285 $285 $284 $438 forward $178 $-1 #
coedge $-1 $286 $286 $179 $287 forward $281 $-1 #
edge $-1 $439 0 $439 6.2831853071796004 $286 $440 forward 7 unknown #
loop $-1 $-1 $293 $180 #
plane-surface $-1 -62.505569627979384 14.99816069060671 6.1876122754827918 -0.57357644374324357 0 0.81915203911291934 0.81915203911291934 0 0.57357644374324357 forward_v I I I I #
loop $-1 $-1 $441 $114 #
coedge $-1 $291 $291 $292 $442 reversed $181 $-1 #
coedge $-1 $292 $292 $291 $442 forward $183 $-1 #
coedge $-1 $293 $293 $184 $294 forward $288 $-1 #
edge $-1 $443 0 $443 6.2831853071796004 $293 $444 forward 7 unknown #
loop $-1 $-1 $300 $185 #
plane-surface $-1 -62.505569627979384 14.99816069060671 6.1876122754827918 -0.57357644374324357 0 0.81915203911291934 0.81915203911291934 0 0.57357644374324357 forward_v I I I I #
loop $-1 $-1 $445 $117 #
coedge $-1 $298 $298 $299 $446 reversed $186 $-1 #
coedge $-1 $299 $299 $298 $446 forward $188 $-1 #
coedge $-1 $300 $300 $189 $301 forward $295 $-1 #
edge $-1 $447 0 $447 6.2831853071796004 $300 $448 forward 7 unknown #
face $-1 $449 $450 $64 $-1 $451 reversed single #
loop $-1 $-1 $452 $190 #
plane-surface $-1 31.805884677355863 -20.607768552967912 180.29418659155473 0 1 0 0.57357644374324357 0 0.81915203911291934 forward_v I I I I #
coedge $-1 $453 $454 $455 $456 reversed $191 $-1 #
coedge $-1 $307 $193 $457 $458 reversed $121 $-1 #
coedge $-1 $193 $306 $453 $459 reversed $121 $-1 #
coedge $-1 $455 $460 $193 $309 forward $461 $-1 #
edge $-1 $462 -46.602627289301438 $463 -37.899365824884967 $308 $464 forward 7 unknown #
loop $-1 $-1 $315 $194 #
plane-surface $-1 -39.897560005368348 -14.800091194784727 77.891056958207017 0.57357644374324357 0 0.81915203911291934 0.81915203911291934 0 -0.57357644374324357 forward_v I I I I #
loop $-1 $-1 $465 $123 #
coedge $-1 $313 $313 $314 $466 reversed $195 $-1 #
coedge $-1 $314 $314 $313 $466 forward $197 $-1 #
coedge $-1 $315 $315 $198 $316 forward $310 $-1 #
edge $-1 $467 0 $467 6.2831853071796004 $315 $468 forward 7 unknown #
loop $-1 $-1 $322 $199 #
plane-surface $-1 -39.897560005368348 -14.800091194784727 77.891056958207017 0.57357644374324357 0 0.81915203911291934 0.81915203911291934 0 -0.57357644374324357 forward_v I I I I #
loop $-1 $-1 $469 $126 #
coedge $-1 $320 $320 $321 $470 reversed $200 $-1 #
coedge $-1 $321 $321 $320 $470 forward $202 $-1 #
coedge $-1 $322 $322 $203 $323 forward $317 $-1 #
edge $-1 $471 0 $471 6.2831853071796004 $322 $472 forward 7 unknown #
loop $-1 $-1 $329 $204 #
plane-surface $-1 -39.897560005368348 -14.800091194784727 77.891056958207017 0.57357644374324357 0 0.81915203911291934 0.81915203911291934 0 -0.57357644374324357 forward_v I I I I #
loop $-1 $-1 $473 $129 #
coedge $-1 $327 $327 $328 $474 reversed $205 $-1 #
coedge $-1 $328 $328 $327 $474 forward $207 $-1 #
coedge $-1 $329 $329 $208 $330 forward $324 $-1 #
edge $-1 $475 0 $475 6.2831853071796004 $329 $476 forward 7 unknown #
face $-1 $477 $478 $68 $-1 $479 reversed single #
loop $-1 $-1 $480 $209 #
plane-surface $-1 31.805884677355863 9.1904833324235273 180.29418659155473 0 1 0 0.57357644374324357 0 0.81915203911291934 forward_v I I I I #
coedge $-1 $481 $482 $483 $484 reversed $210 $-1 #
coedge $-1 $336 $212 $485 $486 reversed $133 $-1 #
coedge $-1 $212 $335 $481 $487 reversed $133 $-1 #
coedge $-1 $483 $488 $212 $338 forward $489 $-1 #
edge $-1 $490 -46.602627289301438 $491 -37.899365824884967 $337 $492 forward 7 unknown #
loop $-1 $-1 $344 $213 #
plane-surface $-1 -39.897560005368348 14.99816069060671 77.891056958207017 0.57357644374324357 0 0.81915203911291934 0.81915203911291934 0 -0.57357644374324357 forward_v I I I I #
loop $-1 $-1 $493 $135 #
coedge $-1 $342 $342 $343 $494 reversed $214 $-1 #
coedge $-1 $343 $343 $342 $494 forward $216 $-1 #
coedge $-1 $344 $344 $217 $345 forward $339 $-1 #
edge $-1 $495 0 $495 6.2831853071796004 $344 $496 forward 7 unknown #
loop $-1 $-1 $351 $218 #
plane-surface $-1 -39.897560005368348 14.99816069060671 77.891056958207017 0.57357644374324357 0 0.81915203911291934 0.81915203911291934 0 -0.57357644374324357 forward_v I I I I #
loop $-1 $-1 $497 $138 #
coedge $-1 $349 $349 $350 $498 reversed $219 $-1 #
coedge $-1 $350 $350 $349 $498 forward $221 $-1 #
coedge $-1 $351 $351 $222 $352 forward $346 $-1 #
edge $-1 $499 0 $499 6.2831853071796004 $351 $500 forward 7 unknown #
loop $-1 $-1 $358 $223 #
plane-surface $-1 -39.897560005368348 14.99816069060671 77.891056958207017 0.57357644374324357 0 0.81915203911291934 0.81915203911291934 0 -0.57357644374324357 forward_v I I I I #
loop $-1 $-1 $501 $141 #
coedge $-1 $356 $356 $357 $502 reversed $224 $-1 #
coedge $-1 $357 $357 $356 $502 forward $226 $-1 #
coedge $-1 $358 $358 $227 $359 forward $353 $-1 #
edge $-1 $503 0 $503 6.2831853071796004 $358 $504 forward 7 unknown #
face $-1 $505 $506 $54 $-1 $507 reversed single #
loop $-1 $-1 $508 $228 #
plane-surface $-1 -62.505569627979369 0 0 1 0 0 0 0 -1 forward_v I I I I #
coedge $-1 $509 $371 $510 $511 forward $229 $-1 #
coedge $-1 $512 $231 $509 $513 forward $145 $-1 #
coedge $-1 $231 $512 $514 $515 forward $145 $-1 #
coedge $-1 $374 $373 $231 $367 reversed $375 $-1 #
edge $-1 $516 -34.813276946642148 $517 34.813276946642148 $366 $518 forward 7 unknown #
coedge $-1 $233 $232 $519 $520 forward $91 $-1 #
coedge $-1 $521 $522 $232 $370 reversed $506 $-1 #
edge $-1 $377 -62.505569627979369 $523 62.505569627979369 $369 $524 forward 7 unknown #
coedge $-1 $363 $525 $233 $372 reversed $229 $-1 #
edge $-1 $526 -62.505569627979369 $376 62.505569627979369 $371 $527 forward 7 unknown #
coedge $-1 $366 $234 $525 $528 forward $375 $-1 #
coedge $-1 $234 $366 $521 $529 reversed $375 $-1 #
loop $-1 $-1 $373 $505 #
vertex $-1 $235 $530 #
vertex $-1 $235 $531 #
straight-curve $-1 62.505569627979369 0 12.28170167692477 0 1 0 I I #
face $-1 $532 $533 $55 $-1 $534 reversed single #
loop $-1 $-1 $385 $236 #
plane-surface $-1 62.505569627979369 0 0 -1 0 0 0 0 1 forward_v I I I I #
coedge $-1 $535 $536 $383 $537 forward $237 $-1 #
coedge $-1 $538 $239 $382 $537 reversed $149 $-1 #
coedge $-1 $239 $538 $240 $388 reversed $149 $-1 #
coedge $-1 $242 $539 $239 $386 forward $380 $-1 #
edge $-1 $540 -7.7787546463456128 $392 -1.2271394148127026 $385 $541 forward 7 unknown #
coedge $-1 $241 $240 $542 $543 reversed $94 $-1 #
edge $-1 $392 -62.505569627979369 $544 62.505569627979369 $384 $545 forward 7 unknown #
coedge $-1 $546 $547 $241 $390 forward $533 $-1 #
edge $-1 $393 -62.505569627979369 $548 62.505569627979369 $389 $549 forward 7 unknown #
coedge $-1 $539 $242 $547 $550 forward $380 $-1 #
vertex $-1 $243 $551 #
vertex $-1 $550 $552 #
straight-curve $-1 62.505569627979369 -14.89912594269572 -5.7300864453918603 0 -1 0 I I #
face $-1 $-1 $553 $56 $-1 $554 reversed single #
loop $-1 $-1 $250 $244 #
plane-surface $-1 0 0 12.28170167692477 0 0 1 1 0 0 forward_v I I I I #
coedge $-1 $555 $556 $557 $558 reversed $245 $-1 #
coedge $-1 $559 $247 $249 $405 forward $153 $-1 #
coedge $-1 $247 $559 $555 $560 forward $153 $-1 #
coedge $-1 $557 $250 $247 $402 forward $396 $-1 #
edge $-1 $408 -13.207722955575548 $561 -1.5923682392091809 $401 $562 forward 7 unknown #
coedge $-1 $563 $564 $248 $404 forward $553 $-1 #
edge $-1 $565 -48.107758678932456 $407 -42.013669277490486 $403 $566 forward 7 unknown #
edge $-1 $408 -10.624720502242145 $565 -1.7244671030687178e-014 $249 $567 forward 7 unknown #
coedge $-1 $250 $557 $563 $568 forward $396 $-1 #
vertex $-1 $404 $569 #
vertex $-1 $251 $570 #
straight-curve $-1 -67.104507155351797 -20.607768552967912 12.281701676924769 1 0 0 I I #
coedge $-1 $410 $410 $-1 $571 reversed $254 $-1 #
edge $-1 $572 0 $572 6.2831853071796004 $255 $573 forward 7 unknown #
vertex $-1 $258 $574 #
ellipse-curve $-1 -58.153938895771127 -18.284697609694636 9.2346569762037909 -0.57357644374324357 0 0.81915203911291934 0.81915203911291934 0 0.57357644374324357 1 I I #
coedge $-1 $414 $414 $-1 $575 reversed $261 $-1 #
edge $-1 $576 0 $576 6.2831853071796004 $262 $577 forward 7 unknown #
vertex $-1 $265 $578 #
ellipse-curve $-1 -58.153938895771127 -14.800091194784727 9.2346569762037909 -0.57357644374324357 0 0.81915203911291934 0.81915203911291934 0 0.57357644374324357 1 I I #
coedge $-1 $418 $418 $-1 $579 reversed $268 $-1 #
edge $-1 $580 0 $580 6.2831853071796004 $269 $581 forward 7 unknown #
vertex $-1 $272 $582 #
ellipse-curve $-1 -58.153938895771127 -11.315484779874819 9.2346569762037909 -0.57357644374324357 0 0.81915203911291934 0.81915203911291934 0 0.57357644374324357 1 I I #
face $-1 $-1 $583 $60 $-1 $584 reversed single #
loop $-1 $-1 $279 $273 #
plane-surface $-1 0 0 12.28170167692477 0 0 1 1 0 0 forward_v I I I I #
coedge $-1 $585 $586 $587 $588 reversed $274 $-1 #
coedge $-1 $589 $276 $278 $432 forward $172 $-1 #
coedge $-1 $276 $589 $585 $590 forward $172 $-1 #
coedge $-1 $587 $279 $276 $429 forward $423 $-1 #
edge $-1 $435 1.6914029871201723 $591 13.306757703486539 $428 $592 forward 7 unknown #
coedge $-1 $593 $594 $277 $431 forward $583 $-1 #
edge $-1 $595 -48.107758678932456 $434 -42.013669277490486 $430 $596 forward 7 unknown #
edge $-1 $435 -10.624720502242145 $595 -1.7244671030687178e-014 $278 $597 forward 7 unknown #
coedge $-1 $279 $587 $593 $598 forward $423 $-1 #
vertex $-1 $280 $599 #
vertex $-1 $280 $600 #
straight-curve $-1 -67.104507155351797 9.1904833324235273 12.281701676924769 1 0 0 I I #
coedge $-1 $437 $437 $-1 $601 reversed $283 $-1 #
edge $-1 $602 0 $602 6.2831853071796004 $284 $603 forward 7 unknown #
vertex $-1 $287 $604 #
ellipse-curve $-1 -58.153938895771127 11.513554275696805 9.2346569762037909 -0.57357644374324357 0 0.81915203911291934 0.81915203911291934 0 0.57357644374324357 1 I I #
coedge $-1 $441 $441 $-1 $605 reversed $290 $-1 #
edge $-1 $606 0 $606 6.2831853071796004 $291 $607 forward 7 unknown #
vertex $-1 $294 $608 #
ellipse-curve $-1 -58.153938895771127 14.99816069060671 9.2346569762037909 -0.57357644374324357 0 0.81915203911291934 0.81915203911291934 0 0.57357644374324357 1 I I #
coedge $-1 $445 $445 $-1 $609 reversed $297 $-1 #
edge $-1 $610 0 $610 6.2831853071796004 $298 $611 forward 7 unknown #
vertex $-1 $301 $612 #
ellipse-curve $-1 -58.153938895771127 18.482767105516622 9.2346569762037909 -0.57357644374324357 0 0.81915203911291934 0.81915203911291934 0 0.57357644374324357 1 I I #
face $-1 $-1 $461 $64 $-1 $613 forward single #
loop $-1 $-1 $614 $302 #
plane-surface $-1 62.505569627979369 0 0 -1 0 0 0 0 1 forward_v I I I I #
coedge $-1 $615 $616 $617 $618 reversed $303 $-1 #
coedge $-1 $619 $305 $307 $459 forward $191 $-1 #
coedge $-1 $305 $619 $615 $620 forward $191 $-1 #
coedge $-1 $617 $308 $305 $456 forward $461 $-1 #
edge $-1 $463 1.5923682392091809 $621 13.207722955575548 $455 $622 forward 7 unknown #
coedge $-1 $623 $624 $306 $458 forward $450 $-1 #
edge $-1 $625 -83.959481020294561 $462 -77.865391618852598 $457 $626 forward 7 unknown #
edge $-1 $463 114.38641875371663 $625 125.01113925595874 $307 $627 forward 7 unknown #
coedge $-1 $308 $617 $623 $628 forward $461 $-1 #
loop $-1 $-1 $617 $449 #
vertex $-1 $458 $629 #
vertex $-1 $309 $630 #
straight-curve $-1 15.902942338677931 -8.9924138366015445 12.281701676924769 -1 0 0 I I #
coedge $-1 $465 $465 $-1 $631 reversed $312 $-1 #
edge $-1 $632 0 $632 6.2831853071796004 $313 $633 forward 7 unknown #
vertex $-1 $316 $634 #
ellipse-curve $-1 58.15393889577112 -18.284697609694636 9.2346569762037962 0.57357644374324357 0 0.81915203911291934 0.81915203911291934 0 -0.57357644374324357 1 I I #
coedge $-1 $469 $469 $-1 $635 reversed $319 $-1 #
edge $-1 $636 0 $636 6.2831853071796004 $320 $637 forward 7 unknown #
vertex $-1 $323 $638 #
ellipse-curve $-1 58.15393889577112 -14.800091194784727 9.2346569762037962 0.57357644374324357 0 0.81915203911291934 0.81915203911291934 0 -0.57357644374324357 1 I I #
coedge $-1 $473 $473 $-1 $639 reversed $326 $-1 #
edge $-1 $640 0 $640 6.2831853071796004 $327 $641 forward 7 unknown #
vertex $-1 $330 $642 #
ellipse-curve $-1 58.15393889577112 -11.315484779874819 9.2346569762037962 0.57357644374324357 0 0.81915203911291934 0.81915203911291934 0 -0.57357644374324357 1 I I #
face $-1 $-1 $489 $68 $-1 $643 forward single #
loop $-1 $-1 $644 $331 #
plane-surface $-1 62.505569627979369 0 0 -1 0 0 0 0 1 forward_v I I I I #
coedge $-1 $645 $646 $647 $648 reversed $332 $-1 #
coedge $-1 $649 $334 $336 $487 forward $210 $-1 #
coedge $-1 $334 $649 $645 $650 forward $210 $-1 #
coedge $-1 $647 $337 $334 $484 forward $489 $-1 #
edge $-1 $491 -13.306757703486539 $651 -1.6914029871201723 $483 $652 forward 7 unknown #
coedge $-1 $653 $654 $335 $486 forward $478 $-1 #
edge $-1 $655 -83.959481020294561 $490 -77.865391618852598 $485 $656 forward 7 unknown #
edge $-1 $491 114.38641875371663 $655 125.01113925595874 $336 $657 forward 7 unknown #
coedge $-1 $337 $647 $653 $658 forward $489 $-1 #
loop $-1 $-1 $647 $477 #
vertex $-1 $486 $659 #
vertex $-1 $338 $660 #
straight-curve $-1 15.902942338677931 20.805838048789894 12.281701676924769 -1 0 0 I I #
coedge $-1 $493 $493 $-1 $661 reversed $341 $-1 #
edge $-1 $662 0 $662 6.2831853071796004 $342 $663 forward 7 unknown #
vertex $-1 $345 $664 #
ellipse-curve $-1 58.15393889577112 11.513554275696805 9.2346569762037962 0.57357644374324357 0 0.81915203911291934 0.81915203911291934 0 -0.57357644374324357 1 I I #
coedge $-1 $497 $497 $-1 $665 reversed $348 $-1 #
edge $-1 $666 0 $666 6.2831853071796004 $349 $667 forward 7 unknown #
vertex $-1 $352 $668 #
ellipse-curve $-1 58.15393889577112 14.99816069060671 9.2346569762037962 0.57357644374324357 0 0.81915203911291934 0.81915203911291934 0 -0.57357644374324357 1 I I #
coedge $-1 $501 $501 $-1 $669 reversed $355 $-1 #
edge $-1 $670 0 $670 6.2831853071796004 $356 $671 forward 7 unknown #
vertex $-1 $359 $672 #
ellipse-curve $-1 58.15393889577112 18.482767105516622 9.2346569762037962 0.57357644374324357 0 0.81915203911291934 0.81915203911291934 0 -0.57357644374324357 1 I I #
face $-1 $-1 $375 $54 $-1 $673 reversed single #
loop $-1 $-1 $521 $360 #
plane-surface $-1 0 34.813276946642148 0 0 -1 0 0 0 -1 forward_v I I I I #
coedge $-1 $674 $519 $522 $675 forward $361 $-1 #
coedge $-1 $525 $363 $364 $513 reversed $229 $-1 #
coedge $-1 $519 $674 $363 $511 reversed $361 $-1 #
edge $-1 $526 -12.28170167692477 $676 12.28170167692477 $510 $677 forward 7 unknown #
coedge $-1 $365 $364 $674 $678 forward $145 $-1 #
edge $-1 $517 -62.505569627979369 $676 62.505569627979369 $509 $679 forward 7 unknown #
coedge $-1 $522 $521 $365 $515 reversed $506 $-1 #
edge $-1 $680 -62.505569627979369 $516 62.505569627979369 $514 $681 forward 7 unknown #
vertex $-1 $367 $682 #
vertex $-1 $528 $683 #
straight-curve $-1 62.505569627979369 0 -12.28170167692477 0 -1 0 I I #
coedge $-1 $508 $510 $368 $520 reversed $361 $-1 #
edge $-1 $523 -34.813276946642148 $526 34.813276946642148 $519 $684 forward 7 unknown #
coedge $-1 $514 $369 $374 $529 forward $506 $-1 #
coedge $-1 $369 $514 $508 $675 reversed $506 $-1 #
vertex $-1 $370 $685 #
straight-curve $-1 0 34.813276946642148 12.28170167692477 -1 0 0 I I #
coedge $-1 $371 $509 $373 $528 reversed $229 $-1 #
vertex $-1 $520 $686 #
straight-curve $-1 0 -34.813276946642148 12.28170167692477 1 0 0 I I #
edge $-1 $376 -12.28170167692477 $517 12.28170167692477 $373 $687 forward 7 unknown #
edge $-1 $377 -12.28170167692477 $516 12.28170167692477 $374 $688 forward 7 unknown #
point $-1 62.505569627979369 -34.813276946642148 12.28170167692477 #
point $-1 62.505569627979369 34.813276946642148 12.28170167692477 #
face $-1 $-1 $689 $55 $-1 $690 reversed single #
loop $-1 $-1 $389 $379 #
plane-surface $-1 0 -34.813276946642148 0 0 1 0 0 0 1 forward_v I I I I #
coedge $-1 $691 $382 $539 $692 forward $237 $-1 #
coedge $-1 $382 $691 $693 $694 forward $237 $-1 #
edge $-1 $695 -62.505569627979369 $540 62.505569627979369 $382 $696 forward 7 unknown #
coedge $-1 $384 $383 $697 $698 reversed $149 $-1 #
coedge $-1 $385 $391 $535 $692 reversed $380 $-1 #
vertex $-1 $692 $699 #
straight-curve $-1 62.505569627979369 -24.783226824140733 -4.5029470305791577 0 0 1 I I #
coedge $-1 $697 $700 $387 $543 forward $689 $-1 #
edge $-1 $548 -19.914151003946429 $544 -9.8841008814450131 $542 $701 forward 7 unknown #
vertex $-1 $543 $702 #
straight-curve $-1 0 -24.783226824140733 -5.7300864453918603 -1 0 0 I I #
coedge $-1 $703 $389 $700 $704 forward $533 $-1 #
coedge $-1 $389 $703 $391 $550 reversed $533 $-1 #
vertex $-1 $704 $705 #
straight-curve $-1 0 -34.813276946642148 -5.7300864453918603 -1 0 0 I I #
edge $-1 $393 5.7300864453918603 $706 12.28170167692477 $391 $707 forward 7 unknown #
point $-1 62.505569627979369 -24.783226824140733 -5.7300864453918603 #
point $-1 62.505569627979369 -34.813276946642148 -5.7300864453918603 #
loop $-1 $-1 $403 $395 #
plane-surface $-1 -62.505569627979369 0 0 1 0 0 0 0 -1 forward_v I I I I #
coedge $-1 $556 $398 $400 $560 reversed $245 $-1 #
coedge $-1 $398 $555 $708 $709 reversed $245 $-1 #
coedge $-1 $406 $401 $398 $558 forward $396 $-1 #
edge $-1 $561 -13.302198991788906 $710 -4.5989375273724278 $557 $711 forward 7 unknown #
coedge $-1 $400 $399 $564 $712 reversed $153 $-1 #
edge $-1 $713 1.7244671030687178e-014 $561 10.624720502242145 $555 $714 forward 7 unknown #
vertex $-1 $402 $715 #
straight-curve $-1 -53.802308163562891 -7.4000455973923636 12.281701676924772 0 1 0 I I #
coedge $-1 $708 $403 $406 $568 reversed $553 $-1 #
coedge $-1 $403 $708 $559 $712 forward $553 $-1 #
vertex $-1 $404 $716 #
straight-curve $-1 -62.505569627979369 -20.607768552967912 54.295370954415255 0 0 1 I I #
straight-curve $-1 -62.505569627979384 -20.607768552967912 6.1876122754827918 -0.81915203911291934 0 -0.57357644374324357 I I #
edge $-1 $710 8.9924138366015445 $407 20.607768552967912 $563 $717 forward 7 unknown #
point $-1 -62.505569627979369 -20.607768552967912 12.28170167692477 #
point $-1 -53.802308163562891 -20.607768552967912 12.281701676924772 #
edge $-1 $718 1 $718 0 $410 $-1 forward 7 unknown #
vertex $-1 $411 $719 #
ellipse-curve $-1 -56.160801452186512 -18.284697609694636 6.3881617636571848 -0.57357644374324357 0 0.81915203911291934 0.81915203911291934 0 0.57357644374324357 1 I I #
point $-1 -57.334786856658198 -18.284697609694636 9.808233419947026 #
edge $-1 $720 1 $720 0 $414 $-1 forward 7 unknown #
vertex $-1 $415 $721 #
ellipse-curve $-1 -56.160801452186512 -14.800091194784727 6.3881617636571848 -0.57357644374324357 0 0.81915203911291934 0.81915203911291934 0 0.57357644374324357 1 I I #
point $-1 -57.334786856658198 -14.800091194784727 9.808233419947026 #
edge $-1 $722 1 $722 0 $418 $-1 forward 7 unknown #
vertex $-1 $419 $723 #
ellipse-curve $-1 -56.160801452186512 -11.315484779874819 6.3881617636571848 -0.57357644374324357 0 0.81915203911291934 0.81915203911291934 0 0.57357644374324357 1 I I #
point $-1 -57.334786856658198 -11.315484779874819 9.808233419947026 #
loop $-1 $-1 $430 $422 #
plane-surface $-1 -62.505569627979369 0 0 1 0 0 0 0 -1 forward_v I I I I #
coedge $-1 $586 $425 $427 $590 reversed $274 $-1 #
coedge $-1 $425 $585 $724 $725 reversed $274 $-1 #
coedge $-1 $433 $428 $425 $588 forward $423 $-1 #
edge $-1 $591 -13.302198991788906 $726 -4.5989375273724278 $587 $727 forward 7 unknown #
coedge $-1 $427 $426 $594 $728 reversed $172 $-1 #
edge $-1 $729 1.7244671030687178e-014 $591 10.624720502242145 $585 $730 forward 7 unknown #
vertex $-1 $429 $731 #
straight-curve $-1 -53.802308163562891 7.499080345303355 12.281701676924772 0 1 0 I I #
coedge $-1 $724 $430 $433 $598 reversed $583 $-1 #
coedge $-1 $430 $724 $589 $728 forward $583 $-1 #
vertex $-1 $431 $732 #
straight-curve $-1 -62.505569627979369 9.1904833324235273 54.295370954415255 0 0 1 I I #
straight-curve $-1 -62.505569627979384 9.1904833324235273 6.1876122754827918 -0.81915203911291934 0 -0.57357644374324357 I I #
edge $-1 $726 -20.805838048789894 $434 -9.1904833324235273 $593 $733 forward 7 unknown #
point $-1 -62.505569627979369 9.1904833324235273 12.28170167692477 #
point $-1 -53.802308163562891 9.1904833324235273 12.281701676924772 #
edge $-1 $734 1 $734 0 $437 $-1 forward 7 unknown #
vertex $-1 $438 $735 #
ellipse-curve $-1 -56.160801452186512 11.513554275696805 6.3881617636571848 -0.57357644374324357 0 0.81915203911291934 0.81915203911291934 0 0.57357644374324357 1 I I #
point $-1 -57.334786856658198 11.513554275696805 9.808233419947026 #
edge $-1 $736 1 $736 0 $441 $-1 forward 7 unknown #
vertex $-1 $442 $737 #
ellipse-curve $-1 -56.160801452186512 14.99816069060671 6.3881617636571848 -0.57357644374324357 0 0.81915203911291934 0.81915203911291934 0 0.57357644374324357 1 I I #
point $-1 -57.334786856658198 14.99816069060671 9.808233419947026 #
edge $-1 $738 1 $738 0 $445 $-1 forward 7 unknown #
vertex $-1 $446 $739 #
ellipse-curve $-1 -56.160801452186512 18.482767105516622 6.3881617636571848 -0.57357644374324357 0 0.81915203911291934 0.81915203911291934 0 0.57357644374324357 1 I I #
point $-1 -57.334786856658198 18.482767105516622 9.808233419947026 #
plane-surface $-1 0 0 12.28170167692477 0 0 1 1 0 0 forward_v I I I I #
coedge $-1 $624 $623 $616 $740 forward $450 $-1 #
coedge $-1 $616 $452 $454 $620 reversed $303 $-1 #
coedge $-1 $452 $615 $614 $740 reversed $303 $-1 #
coedge $-1 $460 $455 $452 $618 forward $461 $-1 #
edge $-1 $621 37.899365824884967 $741 46.602627289301438 $617 $742 forward 7 unknown #
coedge $-1 $454 $453 $624 $743 reversed $191 $-1 #
edge $-1 $744 -125.01113925595874 $621 -114.38641875371663 $615 $745 forward 7 unknown #
vertex $-1 $456 $746 #
straight-curve $-1 53.802308163562891 -7.4000455973923636 12.281701676924783 0 -1 0 I I #
coedge $-1 $614 $457 $460 $628 reversed $450 $-1 #
coedge $-1 $457 $614 $619 $743 forward $450 $-1 #
vertex $-1 $458 $747 #
straight-curve $-1 62.505569627979369 -8.9924138366015445 90.147093295777367 0 0 1 I I #
straight-curve $-1 -39.897560005368348 -8.9924138366015445 77.891056958207017 0.81915203911291934 0 -0.57357644374324357 I I #
edge $-1 $741 -20.607768552967912 $462 -8.9924138366015445 $623 $748 forward 7 unknown #
point $-1 62.505569627979369 -8.9924138366015445 12.28170167692477 #
point $-1 53.802308163562898 -8.9924138366015445 12.281701676924769 #
edge $-1 $749 1 $749 0 $465 $-1 forward 7 unknown #
vertex $-1 $466 $750 #
ellipse-curve $-1 56.160801452186512 -18.284697609694636 6.388161763657199 0.57357644374324357 0 0.81915203911291934 0.81915203911291934 0 -0.57357644374324357 1 I I #
point $-1 58.973090934884041 -18.284697609694636 8.6610805324605522 #
edge $-1 $751 1 $751 0 $469 $-1 forward 7 unknown #
vertex $-1 $470 $752 #
ellipse-curve $-1 56.160801452186512 -14.800091194784727 6.388161763657199 0.57357644374324357 0 0.81915203911291934 0.81915203911291934 0 -0.57357644374324357 1 I I #
point $-1 58.973090934884041 -14.800091194784727 8.6610805324605522 #
edge $-1 $753 1 $753 0 $473 $-1 forward 7 unknown #
vertex $-1 $474 $754 #
ellipse-curve $-1 56.160801452186512 -11.315484779874819 6.388161763657199 0.57357644374324357 0 0.81915203911291934 0.81915203911291934 0 -0.57357644374324357 1 I I #
point $-1 58.973090934884041 -11.315484779874819 8.6610805324605522 #
plane-surface $-1 0 0 12.28170167692477 0 0 1 1 0 0 forward_v I I I I #
coedge $-1 $654 $653 $646 $755 forward $478 $-1 #
coedge $-1 $646 $480 $482 $650 reversed $332 $-1 #
coedge $-1 $480 $645 $644 $755 reversed $332 $-1 #
coedge $-1 $488 $483 $480 $648 forward $489 $-1 #
edge $-1 $651 37.899365824884967 $756 46.602627289301438 $647 $757 forward 7 unknown #
coedge $-1 $482 $481 $654 $758 reversed $210 $-1 #
edge $-1 $759 -125.01113925595874 $651 -114.38641875371663 $645 $760 forward 7 unknown #
vertex $-1 $484 $761 #
straight-curve $-1 53.802308163562891 7.499080345303355 12.281701676924783 0 -1 0 I I #
coedge $-1 $644 $485 $488 $658 reversed $478 $-1 #
coedge $-1 $485 $644 $649 $758 forward $478 $-1 #
vertex $-1 $486 $762 #
straight-curve $-1 62.505569627979369 20.805838048789894 90.147093295777367 0 0 1 I I #
straight-curve $-1 -39.897560005368348 20.805838048789894 77.891056958207017 0.81915203911291934 0 -0.57357644374324357 I I #
edge $-1 $756 9.1904833324235273 $490 20.805838048789894 $653 $763 forward 7 unknown #
point $-1 62.505569627979369 20.805838048789894 12.28170167692477 #
point $-1 53.802308163562898 20.805838048789894 12.281701676924769 #
edge $-1 $764 1 $764 0 $493 $-1 forward 7 unknown #
vertex $-1 $494 $765 #
ellipse-curve $-1 56.160801452186512 11.513554275696805 6.388161763657199 0.57357644374324357 0 0.81915203911291934 0.81915203911291934 0 -0.57357644374324357 1 I I #
point $-1 58.973090934884041 11.513554275696805 8.6610805324605522 #
edge $-1 $766 1 $766 0 $497 $-1 forward 7 unknown #
vertex $-1 $498 $767 #
ellipse-curve $-1 56.160801452186512 14.99816069060671 6.388161763657199 0.57357644374324357 0 0.81915203911291934 0.81915203911291934 0 -0.57357644374324357 1 I I #
point $-1 58.973090934884041 14.99816069060671 8.6610805324605522 #
edge $-1 $768 1 $768 0 $501 $-1 forward 7 unknown #
vertex $-1 $502 $769 #
ellipse-curve $-1 56.160801452186512 18.482767105516622 6.388161763657199 0.57357644374324357 0 0.81915203911291934 0.81915203911291934 0 -0.57357644374324357 1 I I #
point $-1 58.973090934884041 18.482767105516622 8.6610805324605522 #
plane-surface $-1 62.505569627979369 0 0 -1 0 0 0 0 1 forward_v I I I I #
coedge $-1 $510 $508 $512 $678 reversed $361 $-1 #
edge $-1 $523 -12.28170167692477 $680 12.28170167692477 $522 $770 forward 7 unknown #
vertex $-1 $678 $771 #
straight-curve $-1 -62.505569627979369 -34.813276946642148 0 0 0 -1 I I #
edge $-1 $676 -34.813276946642148 $680 34.813276946642148 $674 $772 forward 7 unknown #
straight-curve $-1 0 -34.813276946642148 -12.28170167692477 -1 0 0 I I #
vertex $-1 $515 $773 #
straight-curve $-1 0 34.813276946642148 -12.28170167692477 1 0 0 I I #
point $-1 62.505569627979369 34.813276946642148 -12.28170167692477 #
point $-1 62.505569627979369 -34.813276946642148 -12.28170167692477 #
straight-curve $-1 -62.505569627979369 0 12.28170167692477 0 -1 0 I I #
point $-1 -62.505569627979369 34.813276946642148 12.28170167692477 #
point $-1 -62.505569627979369 -34.813276946642148 12.28170167692477 #
straight-curve $-1 62.505569627979369 -34.813276946642148 0 0 0 -1 I I #
straight-curve $-1 62.505569627979369 34.813276946642148 0 0 0 -1 I I #
loop $-1 $-1 $697 $532 #
plane-surface $-1 -62.505569627979369 0 0 1 0 0 0 0 -1 forward_v I I I I #
coedge $-1 $536 $535 $703 $774 forward $237 $-1 #
edge $-1 $540 24.783226824140733 $706 34.813276946642148 $539 $775 forward 7 unknown #
coedge $-1 $700 $697 $536 $694 reversed $689 $-1 #
edge $-1 $776 -34.813276946642148 $695 -24.783226824140733 $693 $777 forward 7 unknown #
vertex $-1 $698 $778 #
straight-curve $-1 0 -24.783226824140733 -12.28170167692477 1 0 0 I I #
coedge $-1 $693 $542 $538 $698 forward $689 $-1 #
edge $-1 $544 1.2271394148127026 $695 7.7787546463456128 $697 $779 forward 7 unknown #
point $-1 62.505569627979369 -24.783226824140733 -12.28170167692477 #
coedge $-1 $542 $693 $546 $704 reversed $689 $-1 #
straight-curve $-1 -62.505569627979369 -14.89912594269572 -5.7300864453918603 0 1 0 I I #
point $-1 -62.505569627979369 -24.783226824140733 -5.7300864453918603 #
coedge $-1 $547 $546 $691 $774 reversed $533 $-1 #
edge $-1 $548 5.7300864453918603 $776 12.28170167692477 $700 $780 forward 7 unknown #
point $-1 -62.505569627979369 -34.813276946642148 -5.7300864453918603 #
vertex $-1 $550 $781 #
straight-curve $-1 62.505569627979369 -34.813276946642148 0 0 0 -1 I I #
coedge $-1 $564 $563 $556 $709 forward $553 $-1 #
edge $-1 $710 42.013669277490486 $713 48.107758678932456 $708 $782 forward 7 unknown #
vertex $-1 $568 $783 #
straight-curve $-1 -67.104507155351797 -8.9924138366015445 12.281701676924769 -1 0 0 I I #
edge $-1 $713 1.5923682392091809 $565 13.207722955575548 $564 $784 forward 7 unknown #
vertex $-1 $712 $785 #
straight-curve $-1 -62.505569627979384 -8.9924138366015445 6.1876122754827918 0.81915203911291934 0 0.57357644374324357 I I #
point $-1 -53.802308163562891 -8.9924138366015445 12.281701676924772 #
point $-1 -62.505569627979369 -20.607768552967912 6.1876122754828016 #
straight-curve $-1 -62.505569627979369 0 12.28170167692477 0 -1 0 I I #
vertex $-1 $571 $786 #
point $-1 -55.34164941307359 -18.284697609694636 6.9617382074004279 #
vertex $-1 $575 $787 #
point $-1 -55.34164941307359 -14.800091194784727 6.9617382074004279 #
vertex $-1 $579 $788 #
point $-1 -55.34164941307359 -11.315484779874819 6.9617382074004279 #
coedge $-1 $594 $593 $586 $725 forward $583 $-1 #
edge $-1 $726 42.013669277490486 $729 48.107758678932456 $724 $789 forward 7 unknown #
vertex $-1 $598 $790 #
straight-curve $-1 -67.104507155351797 20.805838048789894 12.281701676924769 -1 0 0 I I #
edge $-1 $729 -13.306757703486539 $595 -1.6914029871201723 $594 $791 forward 7 unknown #
vertex $-1 $728 $792 #
straight-curve $-1 -62.505569627979384 20.805838048789894 6.1876122754827918 0.81915203911291934 0 0.57357644374324357 I I #
point $-1 -53.802308163562891 20.805838048789894 12.281701676924772 #
point $-1 -62.505569627979369 9.1904833324235273 6.1876122754828016 #
straight-curve $-1 -62.505569627979369 0 12.28170167692477 0 -1 0 I I #
vertex $-1 $601 $793 #
point $-1 -55.34164941307359 11.513554275696805 6.9617382074004279 #
vertex $-1 $605 $794 #
point $-1 -55.34164941307359 14.99816069060671 6.9617382074004279 #
vertex $-1 $609 $795 #
point $-1 -55.34164941307359 18.482767105516622 6.9617382074004279 #
edge $-1 $741 77.865391618852598 $744 83.959481020294561 $614 $796 forward 7 unknown #
vertex $-1 $628 $797 #
straight-curve $-1 15.902942338677931 -20.607768552967912 12.281701676924769 1 0 0 I I #
edge $-1 $744 -13.207722955575548 $625 -1.5923682392091809 $624 $798 forward 7 unknown #
vertex $-1 $743 $799 #
straight-curve $-1 -39.897560005368348 -20.607768552967912 77.891056958207017 -0.81915203911291934 0 0.57357644374324357 I I #
point $-1 53.802308163562898 -20.607768552967912 12.281701676924769 #
point $-1 62.505569627979369 -8.9924138366015445 6.187612275482806 #
straight-curve $-1 62.505569627979369 0 12.28170167692477 0 1 0 I I #
vertex $-1 $631 $800 #
point $-1 56.979953491299426 -18.284697609694636 5.814585319913955 #
vertex $-1 $635 $801 #
point $-1 56.979953491299426 -14.800091194784727 5.814585319913955 #
vertex $-1 $639 $802 #
point $-1 56.979953491299426 -11.315484779874819 5.814585319913955 #
edge $-1 $756 77.865391618852598 $759 83.959481020294561 $644 $803 forward 7 unknown #
vertex $-1 $658 $804 #
straight-curve $-1 15.902942338677931 9.1904833324235273 12.281701676924769 1 0 0 I I #
edge $-1 $759 1.6914029871201723 $655 13.306757703486539 $654 $805 forward 7 unknown #
vertex $-1 $758 $806 #
straight-curve $-1 -39.897560005368348 9.1904833324235273 77.891056958207017 -0.81915203911291934 0 0.57357644374324357 I I #
point $-1 53.802308163562898 9.1904833324235273 12.281701676924769 #
point $-1 62.505569627979369 20.805838048789894 6.187612275482806 #
straight-curve $-1 62.505569627979369 0 12.28170167692477 0 1 0 I I #
vertex $-1 $661 $807 #
point $-1 56.979953491299426 11.513554275696805 5.814585319913955 #
vertex $-1 $665 $808 #
point $-1 56.979953491299426 14.99816069060671 5.814585319913955 #
vertex $-1 $669 $809 #
point $-1 56.979953491299426 18.482767105516622 5.814585319913955 #
straight-curve $-1 -62.505569627979369 34.813276946642148 0 0 0 -1 I I #
point $-1 -62.505569627979369 -34.813276946642148 -12.28170167692477 #
straight-curve $-1 -62.505569627979369 0 -12.28170167692477 0 1 0 I I #
point $-1 -62.505569627979369 34.813276946642148 -12.28170167692477 #
edge $-1 $706 -62.505569627979369 $776 62.505569627979369 $703 $810 forward 7 unknown #
straight-curve $-1 62.505569627979369 0 -12.28170167692477 0 -1 0 I I #
vertex $-1 $694 $811 #
straight-curve $-1 -62.505569627979369 0 -12.28170167692477 0 1 0 I I #
point $-1 -62.505569627979369 -24.783226824140733 -12.28170167692477 #
straight-curve $-1 -62.505569627979369 -24.783226824140733 -4.5029470305791577 0 0 -1 I I #
straight-curve $-1 -62.505569627979369 -34.813276946642148 0 0 0 -1 I I #
point $-1 62.505569627979369 -34.813276946642148 -12.28170167692477 #
straight-curve $-1 -62.505569627979369 -8.9924138366015445 54.295370954415255 0 0 -1 I I #
point $-1 -62.505569627979369 -8.9924138366015445 12.28170167692477 #
straight-curve $-1 -62.505569627979369 -7.4000455973923636 6.1876122754828007 0 -1 0 I I #
point $-1 -62.505569627979369 -8.9924138366015445 6.1876122754828016 #
point $-1 -55.587225008443262 -18.284697609694636 5.5690097245442649 #
point $-1 -55.587225008443262 -14.800091194784727 5.5690097245442649 #
point $-1 -55.587225008443262 -11.315484779874819 5.5690097245442649 #
straight-curve $-1 -62.505569627979369 20.805838048789894 54.295370954415255 0 0 -1 I I #
point $-1 -62.505569627979369 20.805838048789894 12.28170167692477 #
straight-curve $-1 -62.505569627979369 7.499080345303355 6.1876122754828007 0 -1 0 I I #
point $-1 -62.505569627979369 20.805838048789894 6.1876122754828016 #
point $-1 -55.587225008443262 11.513554275696805 5.5690097245442649 #
point $-1 -55.587225008443262 14.99816069060671 5.5690097245442649 #
point $-1 -55.587225008443262 18.482767105516622 5.5690097245442649 #
straight-curve $-1 62.505569627979369 -20.607768552967912 90.147093295777367 0 0 -1 I I #
point $-1 62.505569627979369 -20.607768552967912 12.28170167692477 #
straight-curve $-1 62.505569627979384 -7.4000455973923636 6.1876122754828131 0 1 0 I I #
point $-1 62.505569627979369 -20.607768552967912 6.187612275482806 #
point $-1 55.587225008443262 -18.284697609694636 5.5690097245442791 #
point $-1 55.587225008443262 -14.800091194784727 5.5690097245442791 #
point $-1 55.587225008443262 -11.315484779874819 5.5690097245442791 #
straight-curve $-1 62.505569627979369 9.1904833324235273 90.147093295777367 0 0 -1 I I #
point $-1 62.505569627979369 9.1904833324235273 12.28170167692477 #
straight-curve $-1 62.505569627979384 7.499080345303355 6.1876122754828131 0 1 0 I I #
point $-1 62.505569627979369 9.1904833324235273 6.187612275482806 #
point $-1 55.587225008443262 11.513554275696805 5.5690097245442791 #
point $-1 55.587225008443262 14.99816069060671 5.5690097245442791 #
point $-1 55.587225008443262 18.482767105516622 5.5690097245442791 #
straight-curve $-1 0 -34.813276946642148 -12.28170167692477 -1 0 0 I I #
point $-1 -62.505569627979369 -34.813276946642148 -12.28170167692477 #
End-of-ACIS-data 