500 0 10 0           
7 Unknown 11 ACIS 5.0 NT 24 Fri Mar 26 17:29:44 1999 
-1 9.9999999999999995e-007 1e-010 
body $-1 $10 $-1 $11 #
body $-1 $12 $-1 $13 #
body $-1 $14 $-1 $15 #
body $-1 $16 $-1 $17 #
body $-1 $18 $-1 $19 #
body $-1 $20 $-1 $21 #
body $-1 $22 $-1 $23 #
body $-1 $24 $-1 $25 #
body $-1 $26 $-1 $27 #
body $-1 $28 $-1 $29 #
lump $-1 $-1 $30 $0 #
transform $-1 1 0 0 0 1 0 0 0 1 67.04672383800775 34.50961396801415 12.348348089607603 1 rotate no_reflect no_shear #
lump $-1 $-1 $31 $1 #
transform $-1 1 0 0 0 1 0 0 0 1 67.04672383800775 34.50961396801415 12.348348089607603 1 rotate no_reflect no_shear #
lump $-1 $-1 $32 $2 #
transform $-1 1 0 0 0 1 0 0 0 1 67.04672383800775 34.50961396801415 12.348348089607603 1 rotate no_reflect no_shear #
lump $-1 $-1 $33 $3 #
transform $-1 1 0 0 0 1 0 0 0 1 67.04672383800775 34.50961396801415 12.348348089607603 1 rotate no_reflect no_shear #
lump $-1 $-1 $34 $4 #
transform $-1 1 0 0 0 1 0 0 0 1 67.04672383800775 34.50961396801415 12.348348089607603 1 rotate no_reflect no_shear #
lump $-1 $-1 $35 $5 #
transform $-1 1 0 0 0 1 0 0 0 1 67.04672383800775 34.50961396801415 12.348348089607603 1 rotate no_reflect no_shear #
lump $-1 $-1 $36 $6 #
transform $-1 1 0 0 0 1 0 0 0 1 67.04672383800775 34.50961396801415 12.348348089607603 1 rotate no_reflect no_shear #
lump $-1 $-1 $37 $7 #
transform $-1 1 0 0 0 1 0 0 0 1 67.04672383800775 34.50961396801415 12.348348089607603 1 rotate no_reflect no_shear #
lump $-1 $-1 $38 $8 #
transform $-1 1 0 0 0 1 0 0 0 1 67.04672383800775 34.50961396801415 12.348348089607603 1 rotate no_reflect no_shear #
lump $-1 $-1 $39 $9 #
transform $-1 1 0 0 0 1 0 0 0 1 67.04672383800775 34.50961396801415 12.348348089607603 1 rotate no_reflect no_shear #
shell $-1 $-1 $-1 $40 $-1 $10 #
shell $-1 $-1 $-1 $41 $-1 $12 #
shell $-1 $-1 $-1 $42 $-1 $14 #
shell $-1 $-1 $-1 $43 $-1 $16 #
shell $-1 $-1 $-1 $44 $-1 $18 #
shell $-1 $-1 $-1 $45 $-1 $20 #
shell $-1 $-1 $-1 $46 $-1 $22 #
shell $-1 $-1 $-1 $47 $-1 $24 #
shell $-1 $-1 $-1 $48 $-1 $26 #
shell $-1 $-1 $-1 $49 $-1 $28 #
face $-1 $50 $51 $30 $-1 $52 forward single #
face $-1 $53 $54 $31 $-1 $55 reversed single #
face $-1 $56 $57 $32 $-1 $58 reversed single #
face $-1 $59 $60 $33 $-1 $61 forward single #
face $-1 $62 $63 $34 $-1 $64 forward single #
face $-1 $65 $66 $35 $-1 $67 forward single #
face $-1 $68 $69 $36 $-1 $70 reversed single #
face $-1 $71 $72 $37 $-1 $73 forward single #
face $-1 $74 $75 $38 $-1 $76 forward single #
face $-1 $77 $78 $39 $-1 $79 forward single #
face $-1 $80 $81 $30 $-1 $82 reversed single #
loop $-1 $-1 $83 $40 #
plane-surface $-1 0 0 12.348348089607603 0 0 1 1 0 0 forward_v I I I I #
face $-1 $84 $85 $31 $-1 $86 reversed single #
loop $-1 $-1 $87 $41 #
plane-surface $-1 0 -29.316026966976409 6.2727965215349712 0 0 1 1 0 0 forward_v I I I I #
face $-1 $88 $89 $32 $-1 $90 reversed single #
loop $-1 $-1 $91 $42 #
plane-surface $-1 -160.19586078415475 -2.8214284359897892 97.583681454229989 0 1 0 -0.69465837861970381 0 0.71933979245794832 forward_v I I I I #
face $-1 $92 $93 $33 $-1 $94 forward single #
loop $-1 $95 $96 $43 #
cone-surface $-1 -60.888299244773734 -1.2184253485842831 6.3769684650719549 0.69465837861970381 0 -0.71933979245794832 0.35966989622897416 0 0.3473291893098519 1 I I 0 1 0.5 forward I I I I #
face $-1 $97 $98 $34 $-1 $99 forward single #
loop $-1 $100 $101 $44 #
cone-surface $-1 -60.888299244773734 1.186079282523977 6.3769684650719549 0.69465837861970381 0 -0.71933979245794832 0.35966989622897416 0 0.3473291893098519 1 I I 0 1 0.5 forward I I I I #
face $-1 $102 $103 $35 $-1 $104 forward single #
loop $-1 $105 $106 $45 #
cone-surface $-1 -60.888299244773734 3.5905839136322371 6.3769684650719549 0.69465837861970381 0 -0.71933979245794832 0.35966989622897416 0 0.3473291893098519 1 I I 0 1 0.5 forward I I I I #
face $-1 $107 $108 $36 $-1 $109 reversed single #
loop $-1 $-1 $110 $46 #
plane-surface $-1 -67.046723838007722 1.186079282523977 1.1249286329942407 -0.69465837861970381 0 0.71933979245794832 0.71933979245794832 0 0.69465837861970381 forward_v I I I I #
face $-1 $111 $112 $37 $-1 $113 forward single #
loop $-1 $114 $115 $47 #
cone-surface $-1 -60.888299244773734 6.7965900884432457 6.3769684650719549 0.69465837861970381 0 -0.71933979245794832 0.35966989622897416 0 0.3473291893098519 1 I I 0 1 0.5 forward I I I I #
face $-1 $116 $117 $38 $-1 $118 forward single #
loop $-1 $119 $120 $48 #
cone-surface $-1 -60.888299244773734 9.2010947195515058 6.3769684650719549 0.69465837861970381 0 -0.71933979245794832 0.35966989622897416 0 0.3473291893098519 1 I I 0 1 0.5 forward I I I I #
face $-1 $121 $122 $39 $-1 $123 forward single #
loop $-1 $124 $125 $49 #
cone-surface $-1 -60.888299244773734 11.605599350659766 6.3769684650719549 0.69465837861970381 0 -0.71933979245794832 0.35966989622897416 0 0.3473291893098519 1 I I 0 1 0.5 forward I I I I #
face $-1 $126 $127 $30 $-1 $128 reversed single #
loop $-1 $-1 $129 $50 #
plane-surface $-1 0 0 -12.348348089607603 0 0 1 1 0 0 forward_v I I I I #
coedge $-1 $130 $131 $132 $133 forward $51 $-1 #
face $-1 $134 $135 $31 $-1 $136 reversed single #
loop $-1 $-1 $137 $53 #
plane-surface $-1 0 -24.122439965938668 9.3105723055712861 0 -1 0 0 0 -1 forward_v I I I I #
coedge $-1 $138 $139 $140 $141 reversed $54 $-1 #
face $-1 $142 $143 $32 $-1 $144 reversed single #
loop $-1 $-1 $145 $56 #
plane-surface $-1 -67.046723838007722 1.186079282523977 1.1249286329942407 -0.69465837861970381 0 0.71933979245794832 0.71933979245794832 0 0.69465837861970381 forward_v I I I I #
coedge $-1 $146 $147 $148 $149 reversed $57 $-1 #
face $-1 $-1 $150 $33 $-1 $151 forward single #
loop $-1 $152 $153 $59 #
cone-surface $-1 -60.367305460808957 -1.2184253485842831 5.837463620728494 0.69465837861970381 0 -0.71933979245794832 0.17983494811448708 0 0.17366459465492595 1 I I -0.70710678118654746 0.70710678118654746 0.25 forward I I I I #
loop $-1 $-1 $154 $43 #
coedge $-1 $96 $96 $155 $156 reversed $60 $-1 #
face $-1 $-1 $157 $34 $-1 $158 forward single #
loop $-1 $159 $160 $62 #
cone-surface $-1 -60.367305460808957 1.186079282523977 5.837463620728494 0.69465837861970381 0 -0.71933979245794832 0.17983494811448708 0 0.17366459465492595 1 I I -0.70710678118654746 0.70710678118654746 0.25 forward I I I I #
loop $-1 $-1 $161 $44 #
coedge $-1 $101 $101 $162 $163 reversed $63 $-1 #
face $-1 $-1 $164 $35 $-1 $165 forward single #
loop $-1 $166 $167 $65 #
cone-surface $-1 -60.367305460808957 3.5905839136322371 5.837463620728494 0.69465837861970381 0 -0.71933979245794832 0.17983494811448708 0 0.17366459465492595 1 I I -0.70710678118654746 0.70710678118654746 0.25 forward I I I I #
loop $-1 $-1 $168 $45 #
coedge $-1 $106 $106 $169 $170 reversed $66 $-1 #
face $-1 $171 $172 $36 $-1 $173 forward single #
loop $-1 $-1 $174 $68 #
plane-surface $-1 -160.19586078415475 13.208602438065272 97.583681454229989 0 -1 0 0.69465837861970381 0 -0.71933979245794832 forward_v I I I I #
coedge $-1 $175 $176 $177 $178 reversed $69 $-1 #
face $-1 $-1 $179 $37 $-1 $180 forward single #
loop $-1 $181 $182 $71 #
cone-surface $-1 -60.367305460808957 6.7965900884432457 5.837463620728494 0.69465837861970381 0 -0.71933979245794832 0.17983494811448708 0 0.17366459465492595 1 I I -0.70710678118654746 0.70710678118654746 0.25 forward I I I I #
loop $-1 $-1 $183 $47 #
coedge $-1 $115 $115 $184 $185 reversed $72 $-1 #
face $-1 $-1 $186 $38 $-1 $187 forward single #
loop $-1 $188 $189 $74 #
cone-surface $-1 -60.367305460808957 9.2010947195515058 5.837463620728494 0.69465837861970381 0 -0.71933979245794832 0.17983494811448708 0 0.17366459465492595 1 I I -0.70710678118654746 0.70710678118654746 0.25 forward I I I I #
loop $-1 $-1 $190 $48 #
coedge $-1 $120 $120 $191 $192 reversed $75 $-1 #
face $-1 $-1 $193 $39 $-1 $194 forward single #
loop $-1 $195 $196 $77 #
cone-surface $-1 -60.367305460808957 11.605599350659766 5.837463620728494 0.69465837861970381 0 -0.71933979245794832 0.17983494811448708 0 0.17366459465492595 1 I I -0.70710678118654746 0.70710678118654746 0.25 forward I I I I #
loop $-1 $-1 $197 $49 #
coedge $-1 $125 $125 $198 $199 reversed $78 $-1 #
face $-1 $200 $201 $30 $-1 $202 reversed single #
loop $-1 $-1 $203 $80 #
plane-surface $-1 0 -34.50961396801415 0 0 1 0 0 0 1 forward_v I I I I #
coedge $-1 $204 $205 $206 $207 forward $81 $-1 #
coedge $-1 $208 $83 $209 $210 forward $51 $-1 #
coedge $-1 $83 $208 $211 $212 forward $51 $-1 #
coedge $-1 $213 $214 $83 $133 reversed $215 $-1 #
edge $-1 $216 -34.50961396801415 $217 34.50961396801415 $132 $218 forward 7 unknown #
face $-1 $219 $220 $31 $-1 $221 reversed single #
loop $-1 $-1 $222 $84 #
plane-surface $-1 -67.04672383800775 0 0 1 0 0 0 0 -1 forward_v I I I I #
coedge $-1 $223 $224 $225 $226 reversed $85 $-1 #
coedge $-1 $227 $87 $228 $229 reversed $54 $-1 #
coedge $-1 $87 $227 $223 $230 forward $54 $-1 #
coedge $-1 $225 $231 $87 $141 forward $232 $-1 #
edge $-1 $233 -19.851600484525946 $234 -9.4644264824504631 $140 $235 forward 7 unknown #
face $-1 $236 $237 $32 $-1 $238 forward single #
loop $-1 $-1 $239 $88 #
plane-surface $-1 -160.19586078415475 5.1935870010377432 97.583681454229989 0 -1 0 0.69465837861970381 0 -0.71933979245794832 forward_v I I I I #
coedge $-1 $240 $241 $242 $243 reversed $89 $-1 #
coedge $-1 $147 $91 $244 $245 reversed $57 $-1 #
coedge $-1 $91 $146 $240 $246 reversed $57 $-1 #
coedge $-1 $242 $247 $91 $149 forward $237 $-1 #
edge $-1 $248 13.051206554069623 $249 24.673397361917992 $148 $250 forward 7 unknown #
loop $-1 $-1 $155 $92 #
plane-surface $-1 -67.046723838007722 1.186079282523977 1.1249286329942407 -0.69465837861970381 0 0.71933979245794832 0.71933979245794832 0 0.69465837861970381 forward_v I I I I #
loop $-1 $-1 $251 $59 #
coedge $-1 $153 $153 $154 $252 reversed $93 $-1 #
coedge $-1 $154 $154 $153 $252 forward $95 $-1 #
coedge $-1 $155 $155 $96 $156 forward $150 $-1 #
edge $-1 $253 0 $253 6.2831853071796004 $155 $254 forward 7 unknown #
loop $-1 $-1 $162 $97 #
plane-surface $-1 -67.046723838007722 1.186079282523977 1.1249286329942407 -0.69465837861970381 0 0.71933979245794832 0.71933979245794832 0 0.69465837861970381 forward_v I I I I #
loop $-1 $-1 $255 $62 #
coedge $-1 $160 $160 $161 $256 reversed $98 $-1 #
coedge $-1 $161 $161 $160 $256 forward $100 $-1 #
coedge $-1 $162 $162 $101 $163 forward $157 $-1 #
edge $-1 $257 0 $257 6.2831853071796004 $162 $258 forward 7 unknown #
loop $-1 $-1 $169 $102 #
plane-surface $-1 -67.046723838007722 1.186079282523977 1.1249286329942407 -0.69465837861970381 0 0.71933979245794832 0.71933979245794832 0 0.69465837861970381 forward_v I I I I #
loop $-1 $-1 $259 $65 #
coedge $-1 $167 $167 $168 $260 reversed $103 $-1 #
coedge $-1 $168 $168 $167 $260 forward $105 $-1 #
coedge $-1 $169 $169 $106 $170 forward $164 $-1 #
edge $-1 $261 0 $261 6.2831853071796004 $169 $262 forward 7 unknown #
face $-1 $263 $264 $36 $-1 $265 forward single #
loop $-1 $-1 $266 $107 #
plane-surface $-1 0 0 12.348348089607603 0 0 1 1 0 0 forward_v I I I I #
coedge $-1 $267 $268 $269 $270 reversed $108 $-1 #
coedge $-1 $271 $110 $272 $273 reversed $69 $-1 #
coedge $-1 $110 $271 $266 $274 reversed $69 $-1 #
coedge $-1 $275 $276 $110 $178 forward $264 $-1 #
edge $-1 $277 -3.9571264572537829e-014 $278 16.156746685924176 $177 $279 forward 7 unknown #
loop $-1 $-1 $184 $111 #
plane-surface $-1 -67.046723838007722 1.186079282523977 1.1249286329942407 -0.69465837861970381 0 0.71933979245794832 0.71933979245794832 0 0.69465837861970381 forward_v I I I I #
loop $-1 $-1 $280 $71 #
coedge $-1 $182 $182 $183 $281 reversed $112 $-1 #
coedge $-1 $183 $183 $182 $281 forward $114 $-1 #
coedge $-1 $184 $184 $115 $185 forward $179 $-1 #
edge $-1 $282 0 $282 6.2831853071796004 $184 $283 forward 7 unknown #
loop $-1 $-1 $191 $116 #
plane-surface $-1 -67.046723838007722 1.186079282523977 1.1249286329942407 -0.69465837861970381 0 0.71933979245794832 0.71933979245794832 0 0.69465837861970381 forward_v I I I I #
loop $-1 $-1 $284 $74 #
coedge $-1 $189 $189 $190 $285 reversed $117 $-1 #
coedge $-1 $190 $190 $189 $285 forward $119 $-1 #
coedge $-1 $191 $191 $120 $192 forward $186 $-1 #
edge $-1 $286 0 $286 6.2831853071796004 $191 $287 forward 7 unknown #
loop $-1 $-1 $198 $121 #
plane-surface $-1 -67.046723838007722 1.186079282523977 1.1249286329942407 -0.69465837861970381 0 0.71933979245794832 0.71933979245794832 0 0.69465837861970381 forward_v I I I I #
loop $-1 $-1 $288 $77 #
coedge $-1 $196 $196 $197 $289 reversed $122 $-1 #
coedge $-1 $197 $197 $196 $289 forward $124 $-1 #
coedge $-1 $198 $198 $125 $199 forward $193 $-1 #
edge $-1 $290 0 $290 6.2831853071796004 $198 $291 forward 7 unknown #
face $-1 $292 $293 $30 $-1 $294 reversed single #
loop $-1 $-1 $295 $126 #
plane-surface $-1 -67.04672383800775 0 0 1 0 0 0 0 -1 forward_v I I I I #
coedge $-1 $296 $211 $297 $298 forward $127 $-1 #
coedge $-1 $299 $129 $296 $300 forward $81 $-1 #
coedge $-1 $129 $299 $301 $302 forward $81 $-1 #
coedge $-1 $214 $213 $129 $207 reversed $215 $-1 #
edge $-1 $303 -34.50961396801415 $304 34.50961396801415 $206 $305 forward 7 unknown #
coedge $-1 $131 $130 $306 $307 forward $51 $-1 #
coedge $-1 $308 $309 $130 $210 reversed $293 $-1 #
edge $-1 $217 -67.04672383800775 $310 67.04672383800775 $209 $311 forward 7 unknown #
coedge $-1 $203 $312 $131 $212 reversed $127 $-1 #
edge $-1 $313 -67.04672383800775 $216 67.04672383800775 $211 $314 forward 7 unknown #
coedge $-1 $206 $132 $312 $315 forward $215 $-1 #
coedge $-1 $132 $206 $308 $316 reversed $215 $-1 #
loop $-1 $-1 $213 $292 #
vertex $-1 $133 $317 #
vertex $-1 $133 $318 #
straight-curve $-1 67.04672383800775 0 12.348348089607603 0 1 0 I I #
face $-1 $319 $320 $31 $-1 $321 forward single #
loop $-1 $-1 $228 $134 #
plane-surface $-1 0 -34.50961396801415 0 0 1 0 0 0 1 forward_v I I I I #
coedge $-1 $322 $323 $324 $325 forward $135 $-1 #
coedge $-1 $324 $137 $139 $230 reversed $85 $-1 #
coedge $-1 $137 $324 $326 $327 reversed $85 $-1 #
coedge $-1 $328 $140 $137 $226 forward $232 $-1 #
edge $-1 $234 1.6175103687493282 $329 7.6930619368219579 $225 $330 forward 7 unknown #
coedge $-1 $139 $138 $322 $331 reversed $54 $-1 #
coedge $-1 $332 $333 $138 $229 forward $220 $-1 #
edge $-1 $334 -67.04672383800775 $233 67.04672383800775 $228 $335 forward 7 unknown #
edge $-1 $336 -67.04672383800775 $234 67.04672383800775 $223 $337 forward 7 unknown #
coedge $-1 $140 $328 $332 $338 forward $232 $-1 #
loop $-1 $-1 $225 $319 #
vertex $-1 $229 $339 #
vertex $-1 $141 $340 #
straight-curve $-1 67.04672383800775 -14.658013483488205 6.2727965215349712 0 1 0 I I #
face $-1 $-1 $341 $32 $-1 $342 reversed single #
loop $-1 $-1 $148 $142 #
plane-surface $-1 0 0 12.348348089607603 0 0 1 1 0 0 forward_v I I I I #
coedge $-1 $343 $344 $345 $346 reversed $143 $-1 #
coedge $-1 $347 $145 $147 $246 forward $89 $-1 #
coedge $-1 $145 $347 $343 $348 forward $89 $-1 #
coedge $-1 $345 $148 $145 $243 forward $237 $-1 #
edge $-1 $249 -3.4144680772517777 $349 4.6005473597757547 $242 $350 forward 7 unknown #
coedge $-1 $351 $352 $146 $245 forward $341 $-1 #
edge $-1 $353 -47.666912094120782 $248 -36.44349263750739 $244 $354 forward 7 unknown #
edge $-1 $249 -16.156746685924176 $353 3.9571264572537829e-014 $147 $355 forward 7 unknown #
coedge $-1 $148 $345 $351 $356 forward $237 $-1 #
vertex $-1 $245 $357 #
vertex $-1 $149 $358 #
straight-curve $-1 -80.097930392077373 -2.8214284359897892 12.348348089607605 1 0 0 I I #
coedge $-1 $251 $251 $-1 $359 reversed $152 $-1 #
edge $-1 $360 0 $360 6.2831853071796004 $153 $361 forward 7 unknown #
vertex $-1 $156 $362 #
ellipse-curve $-1 -61.235628434083566 -1.2184253485842831 6.7366383613009084 -0.69465837861970381 0 0.71933979245794832 0.35966989622897416 0 0.3473291893098519 1 I I #
coedge $-1 $255 $255 $-1 $363 reversed $159 $-1 #
edge $-1 $364 0 $364 6.2831853071796004 $160 $365 forward 7 unknown #
vertex $-1 $163 $366 #
ellipse-curve $-1 -61.235628434083566 1.186079282523977 6.7366383613009084 -0.69465837861970381 0 0.71933979245794832 0.35966989622897416 0 0.3473291893098519 1 I I #
coedge $-1 $259 $259 $-1 $367 reversed $166 $-1 #
edge $-1 $368 0 $368 6.2831853071796004 $167 $369 forward 7 unknown #
vertex $-1 $170 $370 #
ellipse-curve $-1 -61.235628434083566 3.5905839136322371 6.7366383613009084 -0.69465837861970381 0 0.71933979245794832 0.35966989622897416 0 0.3473291893098519 1 I I #
face $-1 $-1 $371 $36 $-1 $372 reversed single #
loop $-1 $-1 $275 $171 #
plane-surface $-1 -160.19586078415475 5.1935870010377432 97.583681454229989 0 -1 0 0.69465837861970381 0 -0.71933979245794832 forward_v I I I I #
coedge $-1 $269 $373 $176 $274 forward $172 $-1 #
coedge $-1 $268 $174 $271 $374 reversed $108 $-1 #
coedge $-1 $174 $267 $375 $376 reversed $108 $-1 #
coedge $-1 $377 $266 $174 $270 forward $172 $-1 #
edge $-1 $378 -24.673397361917992 $379 -13.051206554069623 $269 $380 forward 7 unknown #
coedge $-1 $176 $175 $267 $374 forward $69 $-1 #
coedge $-1 $381 $375 $175 $273 forward $371 $-1 #
edge $-1 $382 -12.615562796803284 $277 -4.6005473597757547 $272 $383 forward 7 unknown #
edge $-1 $278 4.6005473597757547 $378 12.615562796803284 $266 $384 forward 7 unknown #
coedge $-1 $276 $177 $373 $385 reversed $264 $-1 #
coedge $-1 $177 $275 $381 $386 reversed $264 $-1 #
vertex $-1 $273 $387 #
vertex $-1 $274 $388 #
straight-curve $-1 -67.046723838007722 5.1935870010377432 1.1249286329942407 0.71933979245794832 0 0.69465837861970381 I I #
coedge $-1 $280 $280 $-1 $389 reversed $181 $-1 #
edge $-1 $390 0 $390 6.2831853071796004 $182 $391 forward 7 unknown #
vertex $-1 $185 $392 #
ellipse-curve $-1 -61.235628434083566 6.7965900884432457 6.7366383613009084 -0.69465837861970381 0 0.71933979245794832 0.35966989622897416 0 0.3473291893098519 1 I I #
coedge $-1 $284 $284 $-1 $393 reversed $188 $-1 #
edge $-1 $394 0 $394 6.2831853071796004 $189 $395 forward 7 unknown #
vertex $-1 $192 $396 #
ellipse-curve $-1 -61.235628434083566 9.2010947195515058 6.7366383613009084 -0.69465837861970381 0 0.71933979245794832 0.35966989622897416 0 0.3473291893098519 1 I I #
coedge $-1 $288 $288 $-1 $397 reversed $195 $-1 #
edge $-1 $398 0 $398 6.2831853071796004 $196 $399 forward 7 unknown #
vertex $-1 $199 $400 #
ellipse-curve $-1 -61.235628434083566 11.605599350659766 6.7366383613009084 -0.69465837861970381 0 0.71933979245794832 0.35966989622897416 0 0.3473291893098519 1 I I #
face $-1 $-1 $215 $30 $-1 $401 reversed single #
loop $-1 $-1 $308 $200 #
plane-surface $-1 0 34.50961396801415 0 0 -1 0 0 0 -1 forward_v I I I I #
coedge $-1 $402 $306 $309 $403 forward $201 $-1 #
coedge $-1 $312 $203 $204 $300 reversed $127 $-1 #
coedge $-1 $306 $402 $203 $298 reversed $201 $-1 #
edge $-1 $313 -12.348348089607603 $404 12.348348089607603 $297 $405 forward 7 unknown #
coedge $-1 $205 $204 $402 $406 forward $81 $-1 #
edge $-1 $304 -67.04672383800775 $404 67.04672383800775 $296 $407 forward 7 unknown #
coedge $-1 $309 $308 $205 $302 reversed $293 $-1 #
edge $-1 $408 -67.04672383800775 $303 67.04672383800775 $301 $409 forward 7 unknown #
vertex $-1 $207 $410 #
vertex $-1 $315 $411 #
straight-curve $-1 67.04672383800775 0 -12.348348089607603 0 -1 0 I I #
coedge $-1 $295 $297 $208 $307 reversed $201 $-1 #
edge $-1 $310 -34.50961396801415 $313 34.50961396801415 $306 $412 forward 7 unknown #
coedge $-1 $301 $209 $214 $316 forward $293 $-1 #
coedge $-1 $209 $301 $295 $403 reversed $293 $-1 #
vertex $-1 $210 $413 #
straight-curve $-1 0 34.50961396801415 12.348348089607603 -1 0 0 I I #
coedge $-1 $211 $296 $213 $315 reversed $127 $-1 #
vertex $-1 $307 $414 #
straight-curve $-1 0 -34.50961396801415 12.348348089607603 1 0 0 I I #
edge $-1 $216 -12.348348089607603 $304 12.348348089607603 $213 $415 forward 7 unknown #
edge $-1 $217 -12.348348089607603 $303 12.348348089607603 $214 $416 forward 7 unknown #
point $-1 67.04672383800775 -34.50961396801415 12.348348089607603 #
point $-1 67.04672383800775 34.50961396801415 12.348348089607603 #
face $-1 $-1 $232 $31 $-1 $417 reversed single #
loop $-1 $-1 $326 $219 #
plane-surface $-1 0 0 12.348348089607603 0 0 1 1 0 0 forward_v I I I I #
coedge $-1 $418 $222 $227 $331 forward $135 $-1 #
coedge $-1 $222 $418 $419 $420 reversed $135 $-1 #
coedge $-1 $224 $223 $222 $325 reversed $85 $-1 #
edge $-1 $421 -7.6930619368219579 $336 -1.6175103687493282 $222 $422 forward 7 unknown #
coedge $-1 $419 $423 $224 $327 forward $320 $-1 #
edge $-1 $329 -67.04672383800775 $421 67.04672383800775 $326 $424 forward 7 unknown #
coedge $-1 $231 $225 $423 $425 reversed $232 $-1 #
vertex $-1 $226 $426 #
straight-curve $-1 67.04672383800775 -24.122439965938668 4.6552861527856431 0 0 1 I I #
edge $-1 $336 9.4644264824504631 $334 19.851600484525946 $322 $427 forward 7 unknown #
coedge $-1 $428 $228 $231 $338 reversed $220 $-1 #
coedge $-1 $228 $428 $418 $429 forward $220 $-1 #
vertex $-1 $229 $430 #
straight-curve $-1 0 -34.50961396801415 6.2727965215349712 1 0 0 I I #
vertex $-1 $331 $431 #
straight-curve $-1 0 -24.122439965938668 6.2727965215349712 1 0 0 I I #
edge $-1 $432 -12.348348089607603 $233 -6.2727965215349712 $231 $433 forward 7 unknown #
point $-1 67.04672383800775 -34.50961396801415 6.2727965215349712 #
point $-1 67.04672383800775 -24.122439965938668 6.2727965215349712 #
loop $-1 $-1 $244 $236 #
plane-surface $-1 -67.04672383800775 0 0 1 0 0 0 0 -1 forward_v I I I I #
coedge $-1 $344 $239 $241 $348 reversed $143 $-1 #
coedge $-1 $239 $343 $434 $435 reversed $143 $-1 #
coedge $-1 $247 $242 $239 $346 forward $237 $-1 #
edge $-1 $349 -24.673397361917992 $436 -13.051206554069623 $345 $437 forward 7 unknown #
coedge $-1 $241 $240 $352 $438 reversed $89 $-1 #
edge $-1 $439 -3.9571264572537829e-014 $349 16.156746685924176 $343 $440 forward 7 unknown #
vertex $-1 $243 $441 #
straight-curve $-1 -55.424533030159381 0.59303964126198849 12.348348089607603 0 1 0 I I #
coedge $-1 $434 $244 $247 $356 reversed $341 $-1 #
coedge $-1 $244 $434 $347 $438 forward $341 $-1 #
vertex $-1 $245 $442 #
straight-curve $-1 -67.04672383800775 -2.8214284359897892 48.791840727114995 0 0 1 I I #
straight-curve $-1 -67.046723838007722 -2.8214284359897892 1.1249286329942407 -0.71933979245794832 0 -0.69465837861970381 I I #
edge $-1 $436 -5.1935870010377432 $248 2.8214284359897892 $351 $443 forward 7 unknown #
point $-1 -67.04672383800775 -2.8214284359897892 12.348348089607603 #
point $-1 -55.424533030159381 -2.8214284359897892 12.348348089607601 #
edge $-1 $444 1 $444 0 $251 $-1 forward 7 unknown #
vertex $-1 $252 $445 #
ellipse-curve $-1 -60.54097005546388 -1.2184253485842831 6.017298568842981 -0.69465837861970381 0 0.71933979245794832 0.35966989622897416 0 0.3473291893098519 1 I I #
point $-1 -60.875958537854615 -1.2184253485842831 7.0839675506107813 #
edge $-1 $446 1 $446 0 $255 $-1 forward 7 unknown #
vertex $-1 $256 $447 #
ellipse-curve $-1 -60.54097005546388 1.186079282523977 6.017298568842981 -0.69465837861970381 0 0.71933979245794832 0.35966989622897416 0 0.3473291893098519 1 I I #
point $-1 -60.875958537854615 1.186079282523977 7.0839675506107813 #
edge $-1 $448 1 $448 0 $259 $-1 forward 7 unknown #
vertex $-1 $260 $449 #
ellipse-curve $-1 -60.54097005546388 3.5905839136322371 6.017298568842981 -0.69465837861970381 0 0.71933979245794832 0.35966989622897416 0 0.3473291893098519 1 I I #
point $-1 -60.875958537854615 3.5905839136322371 7.0839675506107813 #
loop $-1 $-1 $272 $263 #
plane-surface $-1 -67.04672383800775 0 0 1 0 0 0 0 -1 forward_v I I I I #
coedge $-1 $266 $377 $275 $385 forward $172 $-1 #
edge $-1 $382 -3.9571264572537829e-014 $378 16.156746685924176 $267 $450 forward 7 unknown #
coedge $-1 $272 $451 $268 $376 forward $371 $-1 #
edge $-1 $379 36.44349263750739 $382 47.666912094120782 $375 $452 forward 7 unknown #
coedge $-1 $373 $269 $451 $453 forward $172 $-1 #
vertex $-1 $270 $454 #
vertex $-1 $453 $455 #
straight-curve $-1 -80.097930392077373 13.208602438065272 12.348348089607605 -1 0 0 I I #
coedge $-1 $451 $272 $276 $386 forward $371 $-1 #
vertex $-1 $376 $456 #
straight-curve $-1 -67.04672383800775 0.59303964126198849 1.124928632994211 0 -1 0 I I #
straight-curve $-1 -55.424533030159381 0.59303964126198849 12.348348089607603 0 1 0 I I #
edge $-1 $457 13.051206554069623 $278 24.673397361917992 $373 $458 forward 7 unknown #
edge $-1 $277 -47.666912094120782 $457 -36.44349263750739 $381 $459 forward 7 unknown #
point $-1 -67.04672383800775 5.1935870010377432 1.1249286329942132 #
point $-1 -55.424533030159381 5.1935870010377432 12.348348089607601 #
edge $-1 $460 1 $460 0 $280 $-1 forward 7 unknown #
vertex $-1 $281 $461 #
ellipse-curve $-1 -60.54097005546388 6.7965900884432457 6.017298568842981 -0.69465837861970381 0 0.71933979245794832 0.35966989622897416 0 0.3473291893098519 1 I I #
point $-1 -60.875958537854615 6.7965900884432457 7.0839675506107813 #
edge $-1 $462 1 $462 0 $284 $-1 forward 7 unknown #
vertex $-1 $285 $463 #
ellipse-curve $-1 -60.54097005546388 9.2010947195515058 6.017298568842981 -0.69465837861970381 0 0.71933979245794832 0.35966989622897416 0 0.3473291893098519 1 I I #
point $-1 -60.875958537854615 9.2010947195515058 7.0839675506107813 #
edge $-1 $464 1 $464 0 $288 $-1 forward 7 unknown #
vertex $-1 $289 $465 #
ellipse-curve $-1 -60.54097005546388 11.605599350659766 6.017298568842981 -0.69465837861970381 0 0.71933979245794832 0.35966989622897416 0 0.3473291893098519 1 I I #
point $-1 -60.875958537854615 11.605599350659766 7.0839675506107813 #
plane-surface $-1 67.04672383800775 0 0 -1 0 0 0 0 1 forward_v I I I I #
coedge $-1 $297 $295 $299 $406 reversed $201 $-1 #
edge $-1 $310 -12.348348089607603 $408 12.348348089607603 $309 $466 forward 7 unknown #
vertex $-1 $406 $467 #
straight-curve $-1 -67.04672383800775 -34.50961396801415 0 0 0 -1 I I #
edge $-1 $404 -34.50961396801415 $408 34.50961396801415 $402 $468 forward 7 unknown #
straight-curve $-1 0 -34.50961396801415 -12.348348089607603 -1 0 0 I I #
vertex $-1 $302 $469 #
straight-curve $-1 0 34.50961396801415 -12.348348089607603 1 0 0 I I #
point $-1 67.04672383800775 34.50961396801415 -12.348348089607603 #
point $-1 67.04672383800775 -34.50961396801415 -12.348348089607603 #
straight-curve $-1 -67.04672383800775 0 12.348348089607603 0 -1 0 I I #
point $-1 -67.04672383800775 34.50961396801415 12.348348089607603 #
point $-1 -67.04672383800775 -34.50961396801415 12.348348089607603 #
straight-curve $-1 67.04672383800775 -34.50961396801415 0 0 0 -1 I I #
straight-curve $-1 67.04672383800775 34.50961396801415 0 0 0 -1 I I #
plane-surface $-1 67.04672383800775 0 0 -1 0 0 0 0 1 forward_v I I I I #
coedge $-1 $323 $322 $333 $429 reversed $135 $-1 #
coedge $-1 $470 $326 $323 $420 forward $320 $-1 #
edge $-1 $421 24.122439965938668 $471 34.50961396801415 $323 $472 forward 7 unknown #
vertex $-1 $420 $473 #
straight-curve $-1 -67.04672383800775 -24.122439965938668 4.6552861527856431 0 0 -1 I I #
coedge $-1 $326 $470 $328 $425 forward $320 $-1 #
straight-curve $-1 0 -24.122439965938668 12.348348089607603 -1 0 0 I I #
edge $-1 $432 -34.50961396801415 $329 -24.122439965938668 $328 $474 forward 7 unknown #
point $-1 67.04672383800775 -24.122439965938668 12.348348089607601 #
straight-curve $-1 -67.04672383800775 -14.658013483488205 6.2727965215349712 0 -1 0 I I #
coedge $-1 $333 $332 $470 $475 reversed $220 $-1 #
edge $-1 $471 -12.348348089607603 $334 -6.2727965215349712 $418 $476 forward 7 unknown #
point $-1 -67.04672383800775 -34.50961396801415 6.2727965215349712 #
point $-1 -67.04672383800775 -24.122439965938668 6.2727965215349712 #
vertex $-1 $425 $477 #
straight-curve $-1 67.04672383800775 -34.50961396801415 0 0 0 -1 I I #
coedge $-1 $352 $351 $344 $435 forward $341 $-1 #
edge $-1 $436 36.44349263750739 $439 47.666912094120782 $434 $478 forward 7 unknown #
vertex $-1 $356 $479 #
straight-curve $-1 -80.097930392077373 5.1935870010377432 12.348348089607605 -1 0 0 I I #
edge $-1 $439 -4.6005473597757547 $353 3.4144680772517777 $352 $480 forward 7 unknown #
vertex $-1 $438 $481 #
straight-curve $-1 -67.046723838007722 5.1935870010377432 1.1249286329942407 0.71933979245794832 0 0.69465837861970381 I I #
point $-1 -55.424533030159381 5.1935870010377432 12.348348089607601 #
point $-1 -67.04672383800775 -2.8214284359897892 1.1249286329942132 #
straight-curve $-1 -67.04672383800775 0 12.348348089607603 0 -1 0 I I #
vertex $-1 $359 $482 #
point $-1 -60.181300159234908 -1.2184253485842831 6.3646277581528334 #
vertex $-1 $363 $483 #
point $-1 -60.181300159234908 1.186079282523977 6.3646277581528334 #
vertex $-1 $367 $484 #
point $-1 -60.181300159234908 3.5905839136322371 6.3646277581528334 #
straight-curve $-1 -67.046723838007722 13.208602438065272 1.1249286329942407 0.71933979245794832 0 0.69465837861970381 I I #
coedge $-1 $375 $381 $377 $453 reversed $371 $-1 #
straight-curve $-1 -67.04672383800775 13.208602438065272 48.791840727114995 0 0 -1 I I #
edge $-1 $379 -13.208602438065272 $457 -5.1935870010377432 $451 $485 forward 7 unknown #
point $-1 -55.424533030159381 13.208602438065272 12.348348089607601 #
point $-1 -67.04672383800775 13.208602438065272 12.348348089607603 #
point $-1 -67.04672383800775 13.208602438065272 1.1249286329942132 #
vertex $-1 $386 $486 #
straight-curve $-1 -80.097930392077373 5.1935870010377432 12.348348089607605 1 0 0 I I #
straight-curve $-1 -67.04672383800775 5.1935870010377432 48.791840727114995 0 0 1 I I #
vertex $-1 $389 $487 #
point $-1 -60.181300159234908 6.7965900884432457 6.3646277581528334 #
vertex $-1 $393 $488 #
point $-1 -60.181300159234908 9.2010947195515058 6.3646277581528334 #
vertex $-1 $397 $489 #
point $-1 -60.181300159234908 11.605599350659766 6.3646277581528334 #
straight-curve $-1 -67.04672383800775 34.50961396801415 0 0 0 -1 I I #
point $-1 -67.04672383800775 -34.50961396801415 -12.348348089607603 #
straight-curve $-1 -67.04672383800775 0 -12.348348089607603 0 1 0 I I #
point $-1 -67.04672383800775 34.50961396801415 -12.348348089607603 #
coedge $-1 $423 $419 $428 $475 forward $320 $-1 #
vertex $-1 $420 $490 #
straight-curve $-1 -67.04672383800775 0 12.348348089607603 0 -1 0 I I #
point $-1 -67.04672383800775 -24.122439965938668 12.348348089607601 #
straight-curve $-1 67.04672383800775 0 12.348348089607603 0 1 0 I I #
edge $-1 $471 -67.04672383800775 $432 67.04672383800775 $428 $491 forward 7 unknown #
straight-curve $-1 -67.04672383800775 -34.50961396801415 0 0 0 -1 I I #
point $-1 67.04672383800775 -34.50961396801415 12.348348089607603 #
straight-curve $-1 -67.04672383800775 5.1935870010377432 48.791840727114995 0 0 -1 I I #
point $-1 -67.04672383800775 5.1935870010377432 12.348348089607603 #
straight-curve $-1 -67.04672383800775 0.59303964126198849 1.124928632994211 0 -1 0 I I #
point $-1 -67.04672383800775 5.1935870010377432 1.1249286329942132 #
point $-1 -60.193640866154034 -1.2184253485842831 5.657628672614007 #
point $-1 -60.193640866154034 1.186079282523977 5.657628672614007 #
point $-1 -60.193640866154034 3.5905839136322371 5.657628672614007 #
straight-curve $-1 -67.04672383800775 0 12.348348089607603 0 -1 0 I I #
point $-1 -67.04672383800775 5.1935870010377432 12.348348089607603 #
point $-1 -60.193640866154034 6.7965900884432457 5.657628672614007 #
point $-1 -60.193640866154034 9.2010947195515058 5.657628672614007 #
point $-1 -60.193640866154034 11.605599350659766 5.657628672614007 #
point $-1 -67.04672383800775 -34.50961396801415 12.348348089607603 #
straight-curve $-1 0 -34.50961396801415 12.348348089607603 1 0 0 I I #
End-of-ACIS-data 