500 0 4 0           
7 Unknown 11 ACIS 5.0 NT 24 Fri Mar 26 15:13:42 1999 
-1 9.9999999999999995e-007 1e-010 
body $-1 $4 $-1 $5 #
body $-1 $6 $-1 $7 #
body $-1 $8 $-1 $9 #
body $-1 $10 $-1 $11 #
lump $-1 $-1 $12 $0 #
transform $-1 1 0 0 0 1 0 0 0 1 46.377147740104377 27.838319216156222 11.94846454127932 1 rotate no_reflect no_shear #
lump $-1 $-1 $13 $1 #
transform $-1 1 0 0 0 1 0 0 0 1 46.377147740104377 27.838319216156222 11.94846454127932 1 rotate no_reflect no_shear #
lump $-1 $-1 $14 $2 #
transform $-1 1 0 0 0 1 0 0 0 1 46.377147740104377 27.838319216156222 11.94846454127932 1 rotate no_reflect no_shear #
lump $-1 $-1 $15 $3 #
transform $-1 1 0 0 0 1 0 0 0 1 46.377147740104377 27.838319216156222 11.94846454127932 1 rotate no_reflect no_shear #
shell $-1 $-1 $-1 $16 $-1 $4 #
shell $-1 $-1 $-1 $17 $-1 $6 #
shell $-1 $-1 $-1 $18 $-1 $8 #
shell $-1 $-1 $-1 $19 $-1 $10 #
face $-1 $20 $21 $12 $-1 $22 forward single #
face $-1 $23 $24 $13 $-1 $25 forward single #
face $-1 $26 $27 $14 $-1 $28 forward single #
face $-1 $29 $30 $15 $-1 $31 reversed single #
face $-1 $32 $33 $12 $-1 $34 reversed single #
loop $-1 $-1 $35 $16 #
plane-surface $-1 0 0 11.94846454127932 0 0 1 1 0 0 forward_v I I I I #
face $-1 $36 $37 $13 $-1 $38 forward single #
loop $-1 $-1 $39 $17 #
plane-surface $-1 -44.877147740104377 -19.787233989018695 0 0 -1 0 0 0 -1 forward_v I I I I #
face $-1 $40 $41 $14 $-1 $42 forward single #
loop $-1 $-1 $43 $18 #
plane-surface $-1 -10.734796256194855 66.651741493231 106.56216533221422 1 0 0 0 -0.78801076186113728 -0.61566146476048833 forward_v I I I I #
face $-1 $44 $45 $15 $-1 $46 reversed single #
loop $-1 $47 $48 $19 #
cone-surface $-1 -3.0271625561830646 24.865790550503213 8.3861263507367649 0 -0.78801076186113728 -0.61566146476048833 1 0 0 1 I I 0 1 1 forward I I I I #
face $-1 $49 $50 $12 $-1 $51 reversed single #
loop $-1 $-1 $52 $20 #
plane-surface $-1 0 0 -11.94846454127932 0 0 1 1 0 0 forward_v I I I I #
coedge $-1 $53 $54 $55 $56 forward $21 $-1 #
face $-1 $57 $58 $13 $-1 $59 forward single #
loop $-1 $-1 $60 $23 #
plane-surface $-1 -43.377147740104377 -23.812776602587459 0 -1 0 0 0 0 1 forward_v I I I I #
coedge $-1 $61 $62 $63 $64 reversed $24 $-1 #
face $-1 $65 $66 $14 $-1 $67 forward single #
loop $-1 $-1 $68 $26 #
plane-surface $-1 -3.0271625561830646 -6.4396415540213354 49.456919914041755 0 0.78801076186113728 0.61566146476048833 1 0 0 forward_v I I I I #
coedge $-1 $69 $70 $71 $72 reversed $27 $-1 #
face $-1 $73 $74 $15 $-1 $75 forward single #
loop $-1 $76 $77 $29 #
cone-surface $-1 -3.0271625561830646 23.985828766333775 7.6986248758895517 0 -0.78801076186113728 -0.61566146476048833 0.5 0 0 1 I I -0.70710678118654746 0.70710678118654746 0.5 forward I I I I #
loop $-1 $-1 $78 $19 #
coedge $-1 $48 $48 $79 $80 reversed $30 $-1 #
face $-1 $81 $82 $12 $-1 $83 reversed single #
loop $-1 $-1 $84 $32 #
plane-surface $-1 0 -27.838319216156222 0 0 1 0 0 0 1 forward_v I I I I #
coedge $-1 $85 $86 $87 $88 forward $33 $-1 #
coedge $-1 $89 $35 $90 $91 forward $21 $-1 #
coedge $-1 $35 $89 $92 $93 forward $21 $-1 #
coedge $-1 $94 $95 $35 $56 reversed $96 $-1 #
edge $-1 $97 -27.838319216156222 $98 27.838319216156222 $55 $99 forward 7 unknown #
face $-1 $100 $101 $13 $-1 $102 reversed single #
loop $-1 $-1 $103 $36 #
plane-surface $-1 0 0 11.94846454127932 0 0 1 1 0 0 forward_v I I I I #
coedge $-1 $104 $105 $106 $107 reversed $37 $-1 #
coedge $-1 $108 $39 $103 $109 reversed $24 $-1 #
coedge $-1 $39 $108 $110 $111 reversed $24 $-1 #
coedge $-1 $105 $104 $39 $64 forward $37 $-1 #
edge $-1 $112 -11.94846454127932 $113 11.94846454127932 $63 $114 forward 7 unknown #
face $-1 $115 $116 $14 $-1 $117 forward single #
loop $-1 $-1 $118 $40 #
plane-surface $-1 4.6804711438287256 66.651741493231 106.56216533221422 -1 0 0 0 0.78801076186113728 0.61566146476048833 forward_v I I I I #
coedge $-1 $119 $120 $121 $122 reversed $41 $-1 #
coedge $-1 $70 $43 $120 $123 forward $27 $-1 #
coedge $-1 $43 $69 $124 $125 reversed $27 $-1 #
coedge $-1 $126 $121 $43 $72 forward $116 $-1 #
edge $-1 $127 -10.460696055287542 $128 -5.4875515304592781 $71 $129 forward 7 unknown #
face $-1 $130 $131 $15 $-1 $132 forward single #
loop $-1 $-1 $133 $44 #
plane-surface $-1 -10.734796256194855 66.651741493231 106.56216533221422 1 0 0 0 -0.78801076186113728 -0.61566146476048833 forward_v I I I I #
loop $-1 $-1 $134 $29 #
coedge $-1 $77 $77 $78 $135 forward $45 $-1 #
coedge $-1 $78 $78 $77 $135 reversed $47 $-1 #
coedge $-1 $79 $79 $48 $80 forward $131 $-1 #
edge $-1 $136 3.1499224040476249e-015 $136 6.283185307179604 $79 $137 forward 7 unknown #
face $-1 $138 $139 $12 $-1 $140 reversed single #
loop $-1 $-1 $141 $49 #
plane-surface $-1 -46.377147740104377 0 0 1 0 0 0 0 -1 forward_v I I I I #
coedge $-1 $142 $92 $143 $144 forward $50 $-1 #
coedge $-1 $145 $52 $142 $146 forward $33 $-1 #
coedge $-1 $52 $145 $147 $148 forward $33 $-1 #
coedge $-1 $95 $94 $52 $88 reversed $96 $-1 #
edge $-1 $149 -27.838319216156222 $150 27.838319216156222 $87 $151 forward 7 unknown #
coedge $-1 $54 $53 $152 $153 forward $21 $-1 #
coedge $-1 $154 $155 $53 $91 reversed $139 $-1 #
edge $-1 $98 -46.377147740104377 $156 46.377147740104377 $90 $157 forward 7 unknown #
coedge $-1 $84 $158 $54 $93 reversed $50 $-1 #
edge $-1 $159 -46.377147740104377 $97 46.377147740104377 $92 $160 forward 7 unknown #
coedge $-1 $87 $55 $158 $161 forward $96 $-1 #
coedge $-1 $55 $87 $154 $162 reversed $96 $-1 #
loop $-1 $-1 $94 $138 #
vertex $-1 $56 $163 #
vertex $-1 $56 $164 #
straight-curve $-1 46.377147740104377 0 11.94846454127932 0 1 0 I I #
face $-1 $165 $166 $13 $-1 $167 reversed single #
loop $-1 $-1 $106 $57 #
plane-surface $-1 0 -27.838319216156222 0 0 1 0 0 0 1 forward_v I I I I #
coedge $-1 $168 $169 $61 $109 forward $58 $-1 #
coedge $-1 $63 $60 $168 $170 reversed $37 $-1 #
coedge $-1 $60 $63 $171 $172 reversed $37 $-1 #
coedge $-1 $173 $174 $60 $107 forward $101 $-1 #
edge $-1 $175 -11.94846454127932 $176 11.94846454127932 $106 $177 forward 7 unknown #
coedge $-1 $62 $61 $178 $179 reversed $24 $-1 #
edge $-1 $180 -23.938573870052188 $112 -20.938573870052188 $103 $181 forward 7 unknown #
coedge $-1 $182 $171 $62 $111 forward $166 $-1 #
edge $-1 $113 20.938573870052188 $183 23.938573870052188 $110 $184 forward 7 unknown #
vertex $-1 $109 $185 #
vertex $-1 $111 $186 #
straight-curve $-1 -43.377147740104377 -19.787233989018695 0 0 0 -1 I I #
face $-1 $187 $188 $14 $-1 $189 forward single #
loop $-1 $-1 $190 $65 #
plane-surface $-1 0 0 11.94846454127932 0 0 1 1 0 0 forward_v I I I I #
coedge $-1 $191 $192 $190 $193 reversed $66 $-1 #
coedge $-1 $194 $68 $192 $195 reversed $41 $-1 #
coedge $-1 $68 $194 $69 $123 reversed $41 $-1 #
coedge $-1 $71 $190 $68 $122 forward $116 $-1 #
edge $-1 $196 -6.194052421920258 $127 9.2212149781033226 $121 $197 forward 7 unknown #
edge $-1 $127 47.598912588673691 $198 55.676638432312402 $69 $199 forward 7 unknown #
coedge $-1 $200 $201 $70 $125 forward $202 $-1 #
edge $-1 $128 41.332618124827789 $198 47.697953020978929 $124 $203 forward 7 unknown #
coedge $-1 $204 $71 $201 $205 forward $116 $-1 #
vertex $-1 $122 $206 #
vertex $-1 $205 $207 #
straight-curve $-1 -10.734796256194855 33.3258707466155 11.948464541279321 0 1 0 I I #
face $-1 $208 $209 $15 $-1 $210 forward single #
loop $-1 $211 $79 $73 #
plane-surface $-1 -3.0271625561830646 -6.4396415540213354 49.456919914041755 0 0.78801076186113728 0.61566146476048833 1 0 0 forward_v I I I I #
coedge $-1 $212 $213 $214 $215 reversed $74 $-1 #
coedge $-1 $134 $134 $-1 $216 forward $76 $-1 #
edge $-1 $217 0 $217 6.2831853071796004 $77 $218 forward 7 unknown #
vertex $-1 $80 $219 #
ellipse-curve $-1 -3.0271625561830646 25.351746953742094 8.7657970932037426 0 -0.78801076186113728 -0.61566146476048833 1 0 0 1 I I #
face $-1 $-1 $96 $12 $-1 $220 reversed single #
loop $-1 $-1 $154 $81 #
plane-surface $-1 0 27.838319216156222 0 0 -1 0 0 0 -1 forward_v I I I I #
coedge $-1 $221 $152 $155 $222 forward $82 $-1 #
coedge $-1 $158 $84 $85 $146 reversed $50 $-1 #
coedge $-1 $152 $221 $84 $144 reversed $82 $-1 #
edge $-1 $159 -11.94846454127932 $223 11.94846454127932 $143 $224 forward 7 unknown #
coedge $-1 $86 $85 $221 $225 forward $33 $-1 #
edge $-1 $150 -46.377147740104377 $223 46.377147740104377 $142 $226 forward 7 unknown #
coedge $-1 $155 $154 $86 $148 reversed $139 $-1 #
edge $-1 $227 -46.377147740104377 $149 46.377147740104377 $147 $228 forward 7 unknown #
vertex $-1 $88 $229 #
vertex $-1 $161 $230 #
straight-curve $-1 46.377147740104377 0 -11.94846454127932 0 -1 0 I I #
coedge $-1 $141 $143 $89 $153 reversed $82 $-1 #
edge $-1 $156 -27.838319216156222 $159 27.838319216156222 $152 $231 forward 7 unknown #
coedge $-1 $147 $90 $95 $162 forward $139 $-1 #
coedge $-1 $90 $147 $141 $222 reversed $139 $-1 #
vertex $-1 $91 $232 #
straight-curve $-1 0 27.838319216156222 11.94846454127932 -1 0 0 I I #
coedge $-1 $92 $142 $94 $161 reversed $50 $-1 #
vertex $-1 $153 $233 #
straight-curve $-1 0 -27.838319216156222 11.94846454127932 1 0 0 I I #
edge $-1 $97 -11.94846454127932 $150 11.94846454127932 $94 $234 forward 7 unknown #
edge $-1 $98 -11.94846454127932 $149 11.94846454127932 $95 $235 forward 7 unknown #
point $-1 46.377147740104377 -27.838319216156222 11.94846454127932 #
point $-1 46.377147740104377 27.838319216156222 11.94846454127932 #
face $-1 $236 $237 $13 $-1 $238 reversed single #
loop $-1 $-1 $110 $100 #
plane-surface $-1 0 0 -11.94846454127932 0 0 1 1 0 0 forward_v I I I I #
coedge $-1 $239 $103 $104 $170 forward $58 $-1 #
coedge $-1 $103 $240 $241 $242 forward $58 $-1 #
edge $-1 $112 7.8808456877249657 $175 15.931930914862493 $168 $243 forward 7 unknown #
coedge $-1 $110 $244 $105 $172 forward $166 $-1 #
edge $-1 $176 -15.931930914862493 $113 -7.8808456877249657 $171 $245 forward 7 unknown #
coedge $-1 $246 $106 $244 $247 reversed $101 $-1 #
coedge $-1 $106 $246 $239 $248 reversed $101 $-1 #
vertex $-1 $248 $249 #
vertex $-1 $107 $250 #
straight-curve $-1 -43.377147740104377 -27.838319216156222 0 0 0 -1 I I #
coedge $-1 $241 $251 $108 $179 forward $237 $-1 #
edge $-1 $183 -11.94846454127932 $180 11.94846454127932 $178 $252 forward 7 unknown #
vertex $-1 $179 $253 #
straight-curve $-1 -22.438573870052188 -19.787233989018695 11.94846454127932 1 0 0 I I #
coedge $-1 $254 $110 $251 $255 forward $166 $-1 #
vertex $-1 $255 $256 #
straight-curve $-1 -22.438573870052188 -19.787233989018695 -11.94846454127932 -1 0 0 I I #
point $-1 -43.377147740104377 -19.787233989018695 11.94846454127932 #
point $-1 -43.377147740104377 -19.787233989018695 -11.94846454127932 #
face $-1 $257 $258 $14 $-1 $259 forward single #
loop $-1 $-1 $260 $115 #
plane-surface $-1 -44.877147740104377 -19.787233989018695 0 0 -1 0 0 0 -1 forward_v I I I I #
coedge $-1 $121 $261 $118 $193 forward $116 $-1 #
coedge $-1 $192 $118 $262 $263 reversed $66 $-1 #
coedge $-1 $118 $191 $119 $195 forward $66 $-1 #
edge $-1 $264 5.4875515304592781 $196 10.460696055287542 $190 $265 forward 7 unknown #
coedge $-1 $120 $119 $200 $266 reversed $41 $-1 #
edge $-1 $267 -55.676638432312402 $196 -47.598912588673691 $192 $268 forward 7 unknown #
vertex $-1 $122 $269 #
straight-curve $-1 -1.5135812780915323 22.865174691327955 11.948464541279321 -1 0 0 I I #
vertex $-1 $266 $270 #
straight-curve $-1 -10.734796256194855 -6.4396415540213354 49.456919914041755 0 0.61566146476048833 -0.78801076186113728 I I #
coedge $-1 $262 $124 $194 $266 forward $202 $-1 #
coedge $-1 $124 $271 $126 $205 reversed $202 $-1 #
loop $-1 $-1 $262 $272 #
straight-curve $-1 -10.734796256194855 27.838319216156222 53.28108266610711 0 0 -1 I I #
coedge $-1 $273 $126 $274 $275 forward $116 $-1 #
edge $-1 $128 10.734796256194855 $276 46.377147740104377 $201 $277 forward 7 unknown #
point $-1 -10.734796256194855 22.865174691327958 11.948464541279321 #
point $-1 -10.734796256194855 27.838319216156222 11.94846454127932 #
face $-1 $278 $279 $15 $-1 $280 forward single #
loop $-1 $-1 $281 $130 #
plane-surface $-1 4.6804711438287256 66.651741493231 106.56216533221422 -1 0 0 0 0.78801076186113728 0.61566146476048833 forward_v I I I I #
loop $-1 $-1 $282 $73 #
coedge $-1 $213 $133 $283 $284 forward $74 $-1 #
coedge $-1 $133 $212 $285 $286 reversed $74 $-1 #
coedge $-1 $287 $288 $133 $215 forward $279 $-1 #
edge $-1 $289 -10.460696055287542 $290 -5.4875515304592781 $214 $291 forward 7 unknown #
edge $-1 $292 1 $292 0 $134 $-1 forward 7 unknown #
vertex $-1 $135 $293 #
ellipse-curve $-1 -3.0271625561830646 24.379834147264344 8.0064556082697962 0 0.78801076186113728 0.61566146476048833 1 0 0 1 I I #
point $-1 -2.0271625561830646 25.351746953742079 8.7657970932037355 #
plane-surface $-1 46.377147740104377 0 0 -1 0 0 0 0 1 forward_v I I I I #
coedge $-1 $143 $141 $145 $225 reversed $82 $-1 #
edge $-1 $156 -11.94846454127932 $227 11.94846454127932 $155 $294 forward 7 unknown #
vertex $-1 $225 $295 #
straight-curve $-1 -46.377147740104377 -27.838319216156222 0 0 0 -1 I I #
edge $-1 $223 -27.838319216156222 $227 27.838319216156222 $221 $296 forward 7 unknown #
straight-curve $-1 0 -27.838319216156222 -11.94846454127932 -1 0 0 I I #
vertex $-1 $148 $297 #
straight-curve $-1 0 27.838319216156222 -11.94846454127932 1 0 0 I I #
point $-1 46.377147740104377 27.838319216156222 -11.94846454127932 #
point $-1 46.377147740104377 -27.838319216156222 -11.94846454127932 #
straight-curve $-1 -46.377147740104377 0 11.94846454127932 0 -1 0 I I #
point $-1 -46.377147740104377 27.838319216156222 11.94846454127932 #
point $-1 -46.377147740104377 -27.838319216156222 11.94846454127932 #
straight-curve $-1 46.377147740104377 -27.838319216156222 0 0 0 -1 I I #
straight-curve $-1 46.377147740104377 27.838319216156222 0 0 0 -1 I I #
face $-1 $298 $299 $13 $-1 $300 reversed single #
loop $-1 $-1 $178 $165 #
plane-surface $-1 -46.377147740104377 0 0 1 0 0 0 0 -1 forward_v I I I I #
coedge $-1 $301 $168 $174 $248 forward $58 $-1 #
coedge $-1 $169 $301 $302 $303 forward $58 $-1 #
coedge $-1 $304 $178 $169 $242 reversed $237 $-1 #
edge $-1 $305 -27.838319216156222 $180 19.787233989018695 $241 $306 forward 7 unknown #
straight-curve $-1 -43.377147740104377 -11.906388301293729 11.94846454127932 0 -1 0 I I #
coedge $-1 $171 $307 $173 $247 forward $166 $-1 #
straight-curve $-1 -43.377147740104377 -11.906388301293729 -11.94846454127932 0 1 0 I I #
coedge $-1 $174 $173 $308 $309 reversed $101 $-1 #
edge $-1 $310 -46.377147740104377 $176 43.377147740104377 $173 $311 forward 7 unknown #
edge $-1 $175 -43.377147740104377 $312 46.377147740104377 $174 $313 forward 7 unknown #
point $-1 -43.377147740104377 -27.838319216156222 11.94846454127932 #
point $-1 -43.377147740104377 -27.838319216156222 -11.94846454127932 #
coedge $-1 $178 $304 $182 $255 reversed $237 $-1 #
straight-curve $-1 -46.377147740104377 -19.787233989018695 0 0 0 1 I I #
point $-1 -46.377147740104377 -19.787233989018695 11.94846454127932 #
coedge $-1 $307 $182 $314 $315 forward $166 $-1 #
edge $-1 $183 -19.787233989018695 $316 27.838319216156222 $251 $317 forward 7 unknown #
point $-1 -46.377147740104377 -19.787233989018695 -11.94846454127932 #
face $-1 $318 $319 $14 $-1 $320 reversed single #
loop $-1 $-1 $321 $187 #
plane-surface $-1 -43.377147740104377 -23.812776602587459 0 -1 0 0 0 0 1 forward_v I I I I #
coedge $-1 $322 $323 $324 $325 reversed $188 $-1 #
coedge $-1 $190 $326 $327 $328 forward $116 $-1 #
coedge $-1 $327 $200 $191 $263 forward $202 $-1 #
edge $-1 $267 -47.697953020978929 $264 -41.332618124827789 $262 $329 forward 7 unknown #
vertex $-1 $263 $330 #
straight-curve $-1 4.6804711438287256 33.3258707466155 11.948464541279321 0 -1 0 I I #
edge $-1 $198 -9.2212149781033226 $267 6.194052421920258 $200 $331 forward 7 unknown #
vertex $-1 $266 $332 #
straight-curve $-1 4.6804711438287256 -6.4396415540213354 49.456919914041755 0 -0.61566146476048833 0.78801076186113728 I I #
point $-1 4.6804711438287256 22.865174691327958 11.948464541279321 #
point $-1 -10.734796256194855 27.838319216156222 5.5831296451281816 #
coedge $-1 $201 $333 $334 $335 reversed $202 $-1 #
face $-1 $336 $202 $14 $-1 $337 reversed single #
coedge $-1 $338 $204 $322 $339 forward $116 $-1 #
coedge $-1 $334 $340 $204 $275 reversed $341 $-1 #
edge $-1 $276 -27.838319216156222 $342 19.787233989018695 $274 $343 forward 7 unknown #
vertex $-1 $205 $344 #
straight-curve $-1 0 27.838319216156222 11.94846454127932 -1 0 0 I I #
face $-1 $345 $346 $15 $-1 $347 forward single #
loop $-1 $-1 $348 $208 #
plane-surface $-1 0 0 11.94846454127932 0 0 1 1 0 0 forward_v I I I I #
coedge $-1 $349 $350 $348 $351 reversed $209 $-1 #
coedge $-1 $352 $283 $288 $353 reversed $211 $-1 #
coedge $-1 $282 $354 $212 $284 reversed $211 $-1 #
edge $-1 $289 47.598912588673691 $355 55.676638432312402 $212 $356 forward 7 unknown #
coedge $-1 $357 $358 $213 $286 forward $359 $-1 #
edge $-1 $290 41.332618124827789 $355 47.697953020978929 $285 $360 forward 7 unknown #
coedge $-1 $361 $214 $358 $362 forward $279 $-1 #
coedge $-1 $214 $348 $282 $353 forward $279 $-1 #
vertex $-1 $353 $363 #
vertex $-1 $362 $364 #
straight-curve $-1 -10.734796256194855 33.3258707466155 11.948464541279321 0 1 0 I I #
vertex $-1 $216 $365 #
point $-1 -2.0271625561830646 24.379834147264344 8.0064556082697962 #
straight-curve $-1 -46.377147740104377 27.838319216156222 0 0 0 -1 I I #
point $-1 -46.377147740104377 -27.838319216156222 -11.94846454127932 #
straight-curve $-1 -46.377147740104377 0 -11.94846454127932 0 1 0 I I #
point $-1 -46.377147740104377 27.838319216156222 -11.94846454127932 #
face $-1 $-1 $366 $13 $-1 $367 reversed single #
loop $-1 $-1 $368 $236 #
plane-surface $-1 0 27.838319216156222 0 0 -1 0 0 0 -1 forward_v I I I I #
coedge $-1 $240 $239 $369 $370 forward $58 $-1 #
coedge $-1 $368 $371 $240 $303 reversed $299 $-1 #
edge $-1 $372 -46.377147740104377 $305 46.377147740104377 $302 $373 forward 7 unknown #
coedge $-1 $251 $241 $371 $374 forward $237 $-1 #
vertex $-1 $303 $375 #
straight-curve $-1 -46.377147740104377 0 11.94846454127932 0 -1 0 I I #
coedge $-1 $244 $254 $376 $377 forward $166 $-1 #
coedge $-1 $376 $369 $246 $309 forward $366 $-1 #
edge $-1 $312 -11.94846454127932 $310 11.94846454127932 $308 $378 forward 7 unknown #
vertex $-1 $309 $379 #
straight-curve $-1 0 -27.838319216156222 -11.94846454127932 -1 0 0 I I #
vertex $-1 $370 $380 #
straight-curve $-1 0 -27.838319216156222 11.94846454127932 1 0 0 I I #
coedge $-1 $371 $368 $254 $315 reversed $299 $-1 #
edge $-1 $316 -46.377147740104377 $381 46.377147740104377 $314 $382 forward 7 unknown #
vertex $-1 $315 $383 #
straight-curve $-1 -46.377147740104377 0 -11.94846454127932 0 1 0 I I #
face $-1 $384 $385 $14 $-1 $386 reversed single #
loop $-1 $-1 $387 $257 #
plane-surface $-1 0 -27.838319216156222 0 0 1 0 0 0 1 forward_v I I I I #
coedge $-1 $388 $389 $387 $390 reversed $258 $-1 #
coedge $-1 $391 $260 $273 $339 reversed $188 $-1 #
coedge $-1 $260 $391 $392 $393 reversed $188 $-1 #
coedge $-1 $389 $388 $260 $325 forward $258 $-1 #
edge $-1 $394 -11.94846454127932 $395 11.94846454127932 $324 $396 forward 7 unknown #
coedge $-1 $261 $397 $398 $399 forward $116 $-1 #
coedge $-1 $400 $262 $261 $328 reversed $202 $-1 #
edge $-1 $401 -46.377147740104377 $264 -4.6804711438287256 $327 $277 forward 7 unknown #
straight-curve $-1 4.6804711438287256 27.838319216156222 53.28108266610711 0 0 1 I I #
point $-1 4.6804711438287256 27.838319216156222 11.94846454127932 #
straight-curve $-1 -1.5135812780915323 27.838319216156222 5.583129645128178 1 0 0 I I #
point $-1 4.6804711438287256 27.838319216156222 5.5831296451281816 #
coedge $-1 $271 $400 $402 $403 reversed $202 $-1 #
coedge $-1 $404 $274 $271 $335 forward $341 $-1 #
edge $-1 $276 -11.94846454127932 $405 11.94846454127932 $271 $406 forward 7 unknown #
face $-1 $-1 $407 $14 $-1 $408 reversed single #
plane-surface $-1 0 27.838319216156222 0 0 -1 0 0 0 -1 forward_v I I I I #
coedge $-1 $397 $273 $388 $409 forward $116 $-1 #
edge $-1 $342 -23.938573870052188 $394 -20.938573870052188 $273 $410 forward 7 unknown #
coedge $-1 $274 $404 $391 $411 forward $341 $-1 #
loop $-1 $-1 $340 $384 #
vertex $-1 $411 $412 #
straight-curve $-1 -46.377147740104377 0 11.94846454127932 0 -1 0 I I #
point $-1 -46.377147740104377 27.838319216156222 11.94846454127932 #
face $-1 $413 $414 $15 $-1 $415 forward single #
loop $-1 $-1 $416 $278 #
plane-surface $-1 -44.877147740104377 -19.787233989018695 0 0 -1 0 0 0 -1 forward_v I I I I #
coedge $-1 $288 $417 $281 $351 forward $279 $-1 #
coedge $-1 $350 $281 $418 $419 reversed $209 $-1 #
coedge $-1 $281 $349 $352 $420 forward $209 $-1 #
edge $-1 $421 5.4875515304592781 $422 10.460696055287542 $348 $423 forward 7 unknown #
coedge $-1 $354 $282 $350 $420 reversed $211 $-1 #
edge $-1 $422 -6.194052421920258 $289 9.2212149781033226 $288 $424 forward 7 unknown #
coedge $-1 $283 $352 $357 $425 reversed $211 $-1 #
vertex $-1 $425 $426 #
straight-curve $-1 -10.734796256194855 -6.4396415540213354 49.456919914041755 0 0.61566146476048833 -0.78801076186113728 I I #
coedge $-1 $418 $285 $354 $425 forward $359 $-1 #
coedge $-1 $285 $427 $287 $362 reversed $359 $-1 #
loop $-1 $-1 $418 $428 #
straight-curve $-1 -10.734796256194855 27.838319216156222 53.28108266610711 0 0 -1 I I #
coedge $-1 $429 $287 $430 $431 forward $279 $-1 #
edge $-1 $290 10.734796256194855 $432 46.377147740104377 $358 $433 forward 7 unknown #
point $-1 -10.734796256194855 22.865174691327958 11.948464541279321 #
point $-1 -10.734796256194855 27.838319216156222 11.94846454127932 #
point $-1 -3.0271625561830646 23.591823385403206 7.3907941435093072 #
loop $-1 $-1 $308 $298 #
plane-surface $-1 46.377147740104377 0 0 -1 0 0 0 0 1 forward_v I I I I #
coedge $-1 $314 $302 $434 $435 forward $299 $-1 #
coedge $-1 $308 $434 $301 $370 reversed $366 $-1 #
edge $-1 $312 -27.838319216156222 $372 27.838319216156222 $369 $436 forward 7 unknown #
coedge $-1 $302 $314 $304 $374 reversed $299 $-1 #
vertex $-1 $370 $437 #
straight-curve $-1 0 27.838319216156222 11.94846454127932 -1 0 0 I I #
edge $-1 $305 -11.94846454127932 $316 11.94846454127932 $371 $438 forward 7 unknown #
point $-1 -46.377147740104377 27.838319216156222 11.94846454127932 #
coedge $-1 $434 $308 $307 $377 reversed $366 $-1 #
edge $-1 $381 -27.838319216156222 $310 27.838319216156222 $376 $439 forward 7 unknown #
straight-curve $-1 46.377147740104377 -27.838319216156222 0 0 0 -1 I I #
point $-1 46.377147740104377 -27.838319216156222 -11.94846454127932 #
point $-1 46.377147740104377 -27.838319216156222 11.94846454127932 #
vertex $-1 $377 $440 #
straight-curve $-1 0 27.838319216156222 -11.94846454127932 1 0 0 I I #
point $-1 -46.377147740104377 27.838319216156222 -11.94846454127932 #
face $-1 $272 $341 $14 $-1 $441 reversed single #
loop $-1 $-1 $392 $318 #
plane-surface $-1 0 0 -11.94846454127932 0 0 1 1 0 0 forward_v I I I I #
coedge $-1 $442 $443 $321 $390 forward $319 $-1 #
coedge $-1 $324 $321 $338 $409 reversed $258 $-1 #
coedge $-1 $321 $324 $444 $445 reversed $258 $-1 #
edge $-1 $446 -11.94846454127932 $447 11.94846454127932 $387 $448 forward 7 unknown #
coedge $-1 $323 $322 $340 $411 reversed $188 $-1 #
coedge $-1 $449 $444 $323 $393 forward $385 $-1 #
edge $-1 $395 20.938573870052188 $450 23.938573870052188 $392 $451 forward 7 unknown #
vertex $-1 $339 $452 #
vertex $-1 $393 $453 #
straight-curve $-1 -43.377147740104377 -19.787233989018695 0 0 0 -1 I I #
coedge $-1 $326 $338 $443 $454 forward $116 $-1 #
coedge $-1 $455 $456 $326 $399 reversed $407 $-1 #
edge $-1 $457 -27.838319216156222 $401 27.838319216156222 $398 $458 forward 7 unknown #
coedge $-1 $333 $327 $456 $459 forward $202 $-1 #
vertex $-1 $399 $460 #
coedge $-1 $461 $449 $333 $403 forward $385 $-1 #
edge $-1 $405 -46.377147740104377 $462 46.377147740104377 $333 $463 forward 7 unknown #
coedge $-1 $340 $334 $449 $464 reversed $341 $-1 #
vertex $-1 $403 $465 #
straight-curve $-1 -46.377147740104377 27.838319216156222 0 0 0 -1 I I #
loop $-1 $-1 $455 $336 #
plane-surface $-1 46.377147740104377 0 0 -1 0 0 0 0 1 forward_v I I I I #
edge $-1 $394 7.8808456877249657 $446 15.931930914862493 $338 $466 forward 7 unknown #
straight-curve $-1 -22.438573870052188 -19.787233989018695 11.94846454127932 1 0 0 I I #
edge $-1 $450 -11.94846454127932 $342 11.94846454127932 $340 $467 forward 7 unknown #
point $-1 -46.377147740104377 -19.787233989018695 11.94846454127932 #
face $-1 $468 $469 $15 $-1 $470 reversed single #
loop $-1 $-1 $471 $345 #
plane-surface $-1 -43.377147740104377 -23.812776602587459 0 -1 0 0 0 0 1 forward_v I I I I #
coedge $-1 $472 $473 $474 $475 reversed $346 $-1 #
coedge $-1 $348 $476 $477 $478 forward $279 $-1 #
coedge $-1 $477 $357 $349 $419 forward $359 $-1 #
edge $-1 $479 -47.697953020978929 $421 -41.332618124827789 $418 $480 forward 7 unknown #
edge $-1 $479 -55.676638432312402 $422 -47.598912588673691 $350 $481 forward 7 unknown #
vertex $-1 $419 $482 #
vertex $-1 $353 $483 #
straight-curve $-1 4.6804711438287256 33.3258707466155 11.948464541279321 0 -1 0 I I #
straight-curve $-1 -1.5135812780915323 22.865174691327955 11.948464541279321 -1 0 0 I I #
edge $-1 $355 -9.2212149781033226 $479 6.194052421920258 $357 $484 forward 7 unknown #
point $-1 -10.734796256194855 27.838319216156222 5.5831296451281816 #
coedge $-1 $358 $485 $486 $487 reversed $359 $-1 #
face $-1 $488 $359 $15 $-1 $489 reversed single #
coedge $-1 $490 $361 $472 $491 forward $279 $-1 #
coedge $-1 $486 $492 $361 $431 reversed $493 $-1 #
edge $-1 $432 -27.838319216156222 $494 19.787233989018695 $430 $495 forward 7 unknown #
vertex $-1 $362 $496 #
straight-curve $-1 0 27.838319216156222 11.94846454127932 -1 0 0 I I #
coedge $-1 $369 $376 $368 $435 reversed $366 $-1 #
edge $-1 $372 -11.94846454127932 $381 11.94846454127932 $434 $497 forward 7 unknown #
straight-curve $-1 46.377147740104377 0 11.94846454127932 0 1 0 I I #
point $-1 46.377147740104377 27.838319216156222 11.94846454127932 #
straight-curve $-1 -46.377147740104377 27.838319216156222 0 0 0 -1 I I #
straight-curve $-1 46.377147740104377 0 -11.94846454127932 0 -1 0 I I #
point $-1 46.377147740104377 27.838319216156222 -11.94846454127932 #
plane-surface $-1 -46.377147740104377 0 0 1 0 0 0 0 -1 forward_v I I I I #
coedge $-1 $498 $387 $499 $500 reversed $319 $-1 #
coedge $-1 $387 $498 $397 $454 reversed $319 $-1 #
coedge $-1 $392 $499 $389 $445 forward $385 $-1 #
edge $-1 $447 -15.931930914862493 $395 -7.8808456877249657 $444 $501 forward 7 unknown #
vertex $-1 $454 $502 #
vertex $-1 $390 $503 #
straight-curve $-1 -43.377147740104377 -27.838319216156222 0 0 0 -1 I I #
coedge $-1 $402 $392 $404 $464 forward $385 $-1 #
vertex $-1 $464 $504 #
straight-curve $-1 -22.438573870052188 -19.787233989018695 -11.94846454127932 -1 0 0 I I #
point $-1 -43.377147740104377 -19.787233989018695 11.94846454127932 #
point $-1 -43.377147740104377 -19.787233989018695 -11.94846454127932 #
edge $-1 $446 -43.377147740104377 $457 46.377147740104377 $443 $505 forward 7 unknown #
coedge $-1 $506 $398 $498 $507 forward $407 $-1 #
coedge $-1 $398 $506 $400 $459 reversed $407 $-1 #
vertex $-1 $399 $508 #
straight-curve $-1 46.377147740104377 0 11.94846454127932 0 1 0 I I #
edge $-1 $401 -11.94846454127932 $462 11.94846454127932 $456 $509 forward 7 unknown #
point $-1 46.377147740104377 27.838319216156222 11.94846454127932 #
coedge $-1 $499 $402 $506 $510 forward $385 $-1 #
vertex $-1 $510 $511 #
straight-curve $-1 0 27.838319216156222 -11.94846454127932 1 0 0 I I #
edge $-1 $450 -19.787233989018695 $405 27.838319216156222 $404 $512 forward 7 unknown #
point $-1 -46.377147740104377 27.838319216156222 -11.94846454127932 #
straight-curve $-1 -43.377147740104377 -11.906388301293729 11.94846454127932 0 -1 0 I I #
straight-curve $-1 -46.377147740104377 -19.787233989018695 0 0 0 1 I I #
face $-1 $513 $514 $15 $-1 $515 reversed single #
loop $-1 $-1 $516 $413 #
plane-surface $-1 0 -27.838319216156222 0 0 1 0 0 0 1 forward_v I I I I #
coedge $-1 $517 $518 $516 $519 reversed $414 $-1 #
coedge $-1 $520 $416 $429 $491 reversed $346 $-1 #
coedge $-1 $416 $520 $521 $522 reversed $346 $-1 #
coedge $-1 $518 $517 $416 $475 forward $414 $-1 #
edge $-1 $523 -11.94846454127932 $524 11.94846454127932 $474 $525 forward 7 unknown #
coedge $-1 $417 $526 $527 $528 forward $279 $-1 #
coedge $-1 $529 $418 $417 $478 reversed $359 $-1 #
edge $-1 $530 -46.377147740104377 $421 -4.6804711438287256 $477 $433 forward 7 unknown #
vertex $-1 $425 $531 #
straight-curve $-1 4.6804711438287256 27.838319216156222 53.28108266610711 0 0 1 I I #
straight-curve $-1 4.6804711438287256 -6.4396415540213354 49.456919914041755 0 -0.61566146476048833 0.78801076186113728 I I #
point $-1 4.6804711438287256 27.838319216156222 11.94846454127932 #
point $-1 4.6804711438287256 22.865174691327958 11.948464541279321 #
straight-curve $-1 -1.5135812780915323 27.838319216156222 5.583129645128178 1 0 0 I I #
coedge $-1 $427 $529 $532 $533 reversed $359 $-1 #
coedge $-1 $534 $430 $427 $487 forward $493 $-1 #
edge $-1 $432 -11.94846454127932 $535 11.94846454127932 $427 $536 forward 7 unknown #
face $-1 $-1 $537 $15 $-1 $538 reversed single #
plane-surface $-1 0 27.838319216156222 0 0 -1 0 0 0 -1 forward_v I I I I #
coedge $-1 $526 $429 $517 $539 forward $279 $-1 #
edge $-1 $494 -23.938573870052188 $523 -20.938573870052188 $429 $540 forward 7 unknown #
coedge $-1 $430 $534 $520 $541 forward $493 $-1 #
loop $-1 $-1 $492 $513 #
vertex $-1 $541 $542 #
straight-curve $-1 -46.377147740104377 0 11.94846454127932 0 -1 0 I I #
point $-1 -46.377147740104377 27.838319216156222 11.94846454127932 #
straight-curve $-1 46.377147740104377 27.838319216156222 0 0 0 -1 I I #
coedge $-1 $443 $442 $455 $507 reversed $319 $-1 #
coedge $-1 $444 $461 $442 $500 forward $385 $-1 #
edge $-1 $543 -46.377147740104377 $447 43.377147740104377 $442 $544 forward 7 unknown #
straight-curve $-1 -43.377147740104377 -11.906388301293729 -11.94846454127932 0 1 0 I I #
point $-1 -43.377147740104377 -27.838319216156222 11.94846454127932 #
point $-1 -43.377147740104377 -27.838319216156222 -11.94846454127932 #
point $-1 -46.377147740104377 -19.787233989018695 -11.94846454127932 #
straight-curve $-1 0 -27.838319216156222 11.94846454127932 1 0 0 I I #
coedge $-1 $456 $455 $461 $510 reversed $407 $-1 #
edge $-1 $457 -11.94846454127932 $543 11.94846454127932 $455 $545 forward 7 unknown #
point $-1 46.377147740104377 -27.838319216156222 11.94846454127932 #
straight-curve $-1 46.377147740104377 27.838319216156222 0 0 0 -1 I I #
edge $-1 $462 -27.838319216156222 $543 27.838319216156222 $506 $546 forward 7 unknown #
point $-1 46.377147740104377 27.838319216156222 -11.94846454127932 #
straight-curve $-1 -46.377147740104377 0 -11.94846454127932 0 1 0 I I #
face $-1 $428 $493 $15 $-1 $547 reversed single #
loop $-1 $-1 $521 $468 #
plane-surface $-1 0 0 -11.94846454127932 0 0 1 1 0 0 forward_v I I I I #
coedge $-1 $548 $549 $471 $519 forward $469 $-1 #
coedge $-1 $474 $471 $490 $539 reversed $414 $-1 #
coedge $-1 $471 $474 $550 $551 reversed $414 $-1 #
edge $-1 $552 -11.94846454127932 $553 11.94846454127932 $516 $554 forward 7 unknown #
coedge $-1 $473 $472 $492 $541 reversed $346 $-1 #
coedge $-1 $555 $550 $473 $522 forward $514 $-1 #
edge $-1 $524 20.938573870052188 $556 23.938573870052188 $521 $557 forward 7 unknown #
vertex $-1 $491 $558 #
vertex $-1 $522 $559 #
straight-curve $-1 -43.377147740104377 -19.787233989018695 0 0 0 -1 I I #
coedge $-1 $476 $490 $549 $560 forward $279 $-1 #
coedge $-1 $561 $562 $476 $528 reversed $537 $-1 #
edge $-1 $563 -27.838319216156222 $530 27.838319216156222 $527 $564 forward 7 unknown #
coedge $-1 $485 $477 $562 $565 forward $359 $-1 #
vertex $-1 $528 $566 #
point $-1 4.6804711438287256 27.838319216156222 5.5831296451281816 #
coedge $-1 $567 $555 $485 $533 forward $514 $-1 #
edge $-1 $535 -46.377147740104377 $568 46.377147740104377 $485 $569 forward 7 unknown #
coedge $-1 $492 $486 $555 $570 reversed $493 $-1 #
vertex $-1 $533 $571 #
straight-curve $-1 -46.377147740104377 27.838319216156222 0 0 0 -1 I I #
loop $-1 $-1 $561 $488 #
plane-surface $-1 46.377147740104377 0 0 -1 0 0 0 0 1 forward_v I I I I #
edge $-1 $523 7.8808456877249657 $552 15.931930914862493 $490 $572 forward 7 unknown #
straight-curve $-1 -22.438573870052188 -19.787233989018695 11.94846454127932 1 0 0 I I #
edge $-1 $556 -11.94846454127932 $494 11.94846454127932 $492 $573 forward 7 unknown #
point $-1 -46.377147740104377 -19.787233989018695 11.94846454127932 #
vertex $-1 $507 $574 #
straight-curve $-1 0 -27.838319216156222 -11.94846454127932 -1 0 0 I I #
straight-curve $-1 46.377147740104377 -27.838319216156222 0 0 0 -1 I I #
straight-curve $-1 46.377147740104377 0 -11.94846454127932 0 -1 0 I I #
plane-surface $-1 -46.377147740104377 0 0 1 0 0 0 0 -1 forward_v I I I I #
coedge $-1 $575 $516 $576 $577 reversed $469 $-1 #
coedge $-1 $516 $575 $526 $560 reversed $469 $-1 #
coedge $-1 $521 $576 $518 $551 forward $514 $-1 #
edge $-1 $553 -15.931930914862493 $524 -7.8808456877249657 $550 $578 forward 7 unknown #
vertex $-1 $560 $579 #
vertex $-1 $519 $580 #
straight-curve $-1 -43.377147740104377 -27.838319216156222 0 0 0 -1 I I #
coedge $-1 $532 $521 $534 $570 forward $514 $-1 #
vertex $-1 $570 $581 #
straight-curve $-1 -22.438573870052188 -19.787233989018695 -11.94846454127932 -1 0 0 I I #
point $-1 -43.377147740104377 -19.787233989018695 11.94846454127932 #
point $-1 -43.377147740104377 -19.787233989018695 -11.94846454127932 #
edge $-1 $552 -43.377147740104377 $563 46.377147740104377 $549 $582 forward 7 unknown #
coedge $-1 $583 $527 $575 $584 forward $537 $-1 #
coedge $-1 $527 $583 $529 $565 reversed $537 $-1 #
vertex $-1 $528 $585 #
straight-curve $-1 46.377147740104377 0 11.94846454127932 0 1 0 I I #
edge $-1 $530 -11.94846454127932 $568 11.94846454127932 $562 $586 forward 7 unknown #
point $-1 46.377147740104377 27.838319216156222 11.94846454127932 #
coedge $-1 $576 $532 $583 $587 forward $514 $-1 #
vertex $-1 $587 $588 #
straight-curve $-1 0 27.838319216156222 -11.94846454127932 1 0 0 I I #
edge $-1 $556 -19.787233989018695 $535 27.838319216156222 $534 $589 forward 7 unknown #
point $-1 -46.377147740104377 27.838319216156222 -11.94846454127932 #
straight-curve $-1 -43.377147740104377 -11.906388301293729 11.94846454127932 0 -1 0 I I #
straight-curve $-1 -46.377147740104377 -19.787233989018695 0 0 0 1 I I #
point $-1 46.377147740104377 -27.838319216156222 -11.94846454127932 #
coedge $-1 $549 $548 $561 $584 reversed $469 $-1 #
coedge $-1 $550 $567 $548 $577 forward $514 $-1 #
edge $-1 $590 -46.377147740104377 $553 43.377147740104377 $548 $591 forward 7 unknown #
straight-curve $-1 -43.377147740104377 -11.906388301293729 -11.94846454127932 0 1 0 I I #
point $-1 -43.377147740104377 -27.838319216156222 11.94846454127932 #
point $-1 -43.377147740104377 -27.838319216156222 -11.94846454127932 #
point $-1 -46.377147740104377 -19.787233989018695 -11.94846454127932 #
straight-curve $-1 0 -27.838319216156222 11.94846454127932 1 0 0 I I #
coedge $-1 $562 $561 $567 $587 reversed $537 $-1 #
edge $-1 $563 -11.94846454127932 $590 11.94846454127932 $561 $592 forward 7 unknown #
point $-1 46.377147740104377 -27.838319216156222 11.94846454127932 #
straight-curve $-1 46.377147740104377 27.838319216156222 0 0 0 -1 I I #
edge $-1 $568 -27.838319216156222 $590 27.838319216156222 $583 $593 forward 7 unknown #
point $-1 46.377147740104377 27.838319216156222 -11.94846454127932 #
straight-curve $-1 -46.377147740104377 0 -11.94846454127932 0 1 0 I I #
vertex $-1 $584 $594 #
straight-curve $-1 0 -27.838319216156222 -11.94846454127932 -1 0 0 I I #
straight-curve $-1 46.377147740104377 -27.838319216156222 0 0 0 -1 I I #
straight-curve $-1 46.377147740104377 0 -11.94846454127932 0 -1 0 I I #
point $-1 46.377147740104377 -27.838319216156222 -11.94846454127932 #
End-of-ACIS-data 