500 0 4 0           
7 Unknown 11 ACIS 5.0 NT 24 Fri Mar 26 17:43:33 1999 
-1 9.9999999999999995e-007 1e-010 
body $-1 $4 $-1 $5 #
body $-1 $6 $-1 $7 #
body $-1 $8 $-1 $9 #
body $-1 $10 $-1 $11 #
lump $-1 $-1 $12 $0 #
transform $-1 1 0 0 0 1 0 0 0 1 75.204931791131315 41.002260367510075 13.381700258496439 1 rotate no_reflect no_shear #
lump $-1 $-1 $13 $1 #
transform $-1 1 0 0 0 1 0 0 0 1 75.204931791131315 41.002260367510075 13.381700258496439 1 rotate no_reflect no_shear #
lump $-1 $-1 $14 $2 #
transform $-1 1 0 0 0 1 0 0 0 1 75.204931791131315 41.002260367510075 13.381700258496439 1 rotate no_reflect no_shear #
lump $-1 $-1 $15 $3 #
transform $-1 1 0 0 0 1 0 0 0 1 75.204931791131315 41.002260367510075 13.381700258496439 1 rotate no_reflect no_shear #
shell $-1 $-1 $-1 $16 $-1 $4 #
shell $-1 $-1 $-1 $17 $-1 $6 #
shell $-1 $-1 $-1 $18 $-1 $8 #
shell $-1 $-1 $-1 $19 $-1 $10 #
face $-1 $20 $21 $12 $-1 $22 forward single #
face $-1 $23 $24 $13 $-1 $25 forward single #
face $-1 $26 $27 $14 $-1 $28 reversed single #
face $-1 $29 $30 $15 $-1 $31 forward single #
face $-1 $32 $33 $12 $-1 $34 reversed single #
loop $-1 $-1 $35 $16 #
plane-surface $-1 0 0 13.381700258496439 0 0 1 1 0 0 forward_v I I I I #
face $-1 $36 $37 $13 $-1 $38 reversed single #
loop $-1 $-1 $39 $17 #
plane-surface $-1 0 -41.002260367510075 0 0 1 0 0 0 1 forward_v I I I I #
face $-1 $40 $41 $14 $-1 $42 reversed single #
loop $-1 $-1 $43 $18 #
plane-surface $-1 34.617633756211447 18.554887610601298 217.99301072541331 0 -1 0 -0.55919291073839883 0 -0.82903756765294845 forward_v I I I I #
face $-1 $44 $45 $15 $-1 $46 forward single #
loop $-1 $47 $48 $19 #
cone-surface $-1 71.321783245194467 12.909967216597799 10.135824126314247 -0.55919291073839883 0 -0.82903756765294845 0.82903756765294845 0 -0.55919291073839883 1 I I 0 1 1 forward I I I I #
face $-1 $49 $50 $12 $-1 $51 reversed single #
loop $-1 $-1 $52 $20 #
plane-surface $-1 0 0 -13.381700258496439 0 0 1 1 0 0 forward_v I I I I #
coedge $-1 $53 $54 $55 $56 forward $21 $-1 #
face $-1 $57 $58 $13 $-1 $59 reversed single #
loop $-1 $-1 $60 $23 #
plane-surface $-1 0 0 -13.381700258496439 0 0 1 1 0 0 forward_v I I I I #
coedge $-1 $61 $62 $63 $64 forward $24 $-1 #
face $-1 $65 $66 $14 $-1 $67 reversed single #
loop $-1 $-1 $68 $26 #
plane-surface $-1 -49.490495664119479 12.909967216597799 93.297583270162505 0.55919291073839883 0 0.82903756765294845 0.82903756765294845 0 -0.55919291073839883 forward_v I I I I #
coedge $-1 $69 $70 $71 $72 reversed $27 $-1 #
face $-1 $-1 $73 $15 $-1 $74 forward single #
loop $-1 $75 $76 $29 #
cone-surface $-1 70.2666686330613 12.909967216597799 8.5715524146380186 -0.55919291073839883 0 -0.82903756765294845 0.41451878382647422 0 -0.27959645536919941 1 I I -0.70710678118654746 0.70710678118654746 0.5 forward I I I I #
loop $-1 $-1 $77 $19 #
coedge $-1 $48 $48 $78 $79 reversed $30 $-1 #
face $-1 $80 $81 $12 $-1 $82 reversed single #
loop $-1 $-1 $83 $32 #
plane-surface $-1 0 -41.002260367510075 0 0 1 0 0 0 1 forward_v I I I I #
coedge $-1 $84 $85 $86 $87 forward $33 $-1 #
coedge $-1 $88 $35 $89 $90 forward $21 $-1 #
coedge $-1 $35 $88 $91 $92 forward $21 $-1 #
coedge $-1 $93 $94 $35 $56 reversed $95 $-1 #
edge $-1 $96 -41.002260367510075 $97 41.002260367510075 $55 $98 forward 7 unknown #
face $-1 $99 $100 $13 $-1 $101 forward single #
loop $-1 $-1 $102 $36 #
plane-surface $-1 75.204931791131315 0 0 -1 0 0 0 0 1 forward_v I I I I #
coedge $-1 $103 $104 $105 $106 forward $37 $-1 #
coedge $-1 $105 $39 $102 $107 reversed $24 $-1 #
coedge $-1 $39 $105 $108 $109 reversed $24 $-1 #
coedge $-1 $110 $111 $39 $64 reversed $100 $-1 #
edge $-1 $112 -75.204931791131315 $113 75.204931791131315 $63 $114 forward 7 unknown #
face $-1 $115 $116 $14 $-1 $117 reversed single #
loop $-1 $-1 $118 $40 #
plane-surface $-1 34.617633756211447 7.2650468225943001 217.99301072541331 0 1 0 0.55919291073839883 0 0.82903756765294845 forward_v I I I I #
coedge $-1 $119 $120 $121 $122 reversed $41 $-1 #
coedge $-1 $70 $43 $123 $124 reversed $27 $-1 #
coedge $-1 $43 $69 $119 $125 reversed $27 $-1 #
coedge $-1 $121 $126 $43 $72 forward $127 $-1 #
edge $-1 $128 -57.896114913025592 $129 -51.680854134679926 $71 $130 forward 7 unknown #
loop $-1 $-1 $78 $44 #
plane-surface $-1 -49.490495664119479 12.909967216597799 93.297583270162505 0.55919291073839883 0 0.82903756765294845 0.82903756765294845 0 -0.55919291073839883 forward_v I I I I #
loop $-1 $-1 $131 $29 #
coedge $-1 $76 $76 $77 $132 reversed $45 $-1 #
coedge $-1 $77 $77 $76 $132 forward $47 $-1 #
coedge $-1 $78 $78 $48 $79 forward $73 $-1 #
edge $-1 $133 0 $133 6.2831853071796004 $78 $134 forward 7 unknown #
face $-1 $135 $136 $12 $-1 $137 reversed single #
loop $-1 $-1 $138 $49 #
plane-surface $-1 -75.204931791131315 0 0 1 0 0 0 0 -1 forward_v I I I I #
coedge $-1 $91 $139 $93 $140 reversed $50 $-1 #
coedge $-1 $141 $52 $139 $142 forward $33 $-1 #
coedge $-1 $52 $141 $143 $144 forward $33 $-1 #
coedge $-1 $94 $93 $52 $87 reversed $95 $-1 #
edge $-1 $145 -41.002260367510075 $146 41.002260367510075 $86 $147 forward 7 unknown #
coedge $-1 $54 $53 $148 $149 forward $21 $-1 #
coedge $-1 $150 $151 $53 $90 reversed $136 $-1 #
edge $-1 $97 -75.204931791131315 $152 75.204931791131315 $89 $153 forward 7 unknown #
coedge $-1 $154 $83 $54 $92 reversed $50 $-1 #
edge $-1 $155 -75.204931791131315 $96 75.204931791131315 $91 $156 forward 7 unknown #
coedge $-1 $86 $55 $83 $140 forward $95 $-1 #
coedge $-1 $55 $86 $150 $157 reversed $95 $-1 #
loop $-1 $-1 $93 $135 #
vertex $-1 $56 $158 #
vertex $-1 $56 $159 #
straight-curve $-1 75.204931791131315 0 13.381700258496439 0 1 0 I I #
face $-1 $160 $161 $13 $-1 $162 reversed single #
loop $-1 $-1 $111 $57 #
plane-surface $-1 0 -46.9522918600533 -10.00832092943878 0 0 1 1 0 0 forward_v I I I I #
coedge $-1 $163 $164 $61 $107 forward $58 $-1 #
coedge $-1 $165 $60 $164 $166 forward $37 $-1 #
coedge $-1 $60 $165 $167 $168 forward $37 $-1 #
coedge $-1 $62 $61 $60 $106 reversed $24 $-1 #
edge $-1 $169 -75.204931791131315 $170 75.204931791131315 $60 $171 forward 7 unknown #
edge $-1 $170 -13.381700258496439 $113 -10.00832092943878 $102 $172 forward 7 unknown #
coedge $-1 $167 $173 $62 $109 forward $174 $-1 #
edge $-1 $112 10.00832092943878 $169 13.381700258496439 $108 $175 forward 7 unknown #
coedge $-1 $176 $63 $173 $177 forward $100 $-1 #
coedge $-1 $63 $176 $163 $178 forward $100 $-1 #
vertex $-1 $109 $179 #
vertex $-1 $178 $180 #
straight-curve $-1 0 -41.002260367510075 -10.00832092943878 1 0 0 I I #
face $-1 $-1 $127 $14 $-1 $181 forward single #
loop $-1 $-1 $182 $65 #
plane-surface $-1 75.204931791131315 0 0 -1 0 0 0 0 1 forward_v I I I I #
coedge $-1 $183 $184 $185 $186 reversed $66 $-1 #
coedge $-1 $187 $68 $70 $125 forward $41 $-1 #
coedge $-1 $68 $187 $183 $188 forward $41 $-1 #
coedge $-1 $185 $71 $68 $122 forward $127 $-1 #
edge $-1 $129 -12.099904002302399 $189 -0.81006321429540051 $121 $190 forward 7 unknown #
coedge $-1 $191 $192 $69 $124 forward $116 $-1 #
edge $-1 $193 -99.807051512875077 $128 -95.61480510421022 $123 $194 forward 7 unknown #
edge $-1 $129 142.91290443246027 $193 150.40986358226263 $70 $195 forward 7 unknown #
coedge $-1 $71 $185 $191 $196 forward $127 $-1 #
loop $-1 $-1 $185 $115 #
vertex $-1 $124 $197 #
vertex $-1 $72 $198 #
straight-curve $-1 17.308816878105723 18.554887610601298 13.381700258496437 -1 0 0 I I #
coedge $-1 $131 $131 $-1 $199 reversed $75 $-1 #
edge $-1 $200 0 $200 6.2831853071796004 $76 $201 forward 7 unknown #
vertex $-1 $79 $202 #
ellipse-curve $-1 72.097301401958447 12.909967216597799 11.285577054164017 0.55919291073839883 0 0.82903756765294845 0.82903756765294845 0 -0.55919291073839883 1 I I #
face $-1 $-1 $95 $12 $-1 $203 reversed single #
loop $-1 $-1 $150 $80 #
plane-surface $-1 0 41.002260367510075 0 0 -1 0 0 0 -1 forward_v I I I I #
coedge $-1 $204 $148 $151 $205 forward $81 $-1 #
coedge $-1 $83 $154 $84 $142 reversed $50 $-1 #
edge $-1 $96 -13.381700258496439 $146 13.381700258496439 $93 $206 forward 7 unknown #
coedge $-1 $85 $84 $204 $207 forward $33 $-1 #
edge $-1 $146 -75.204931791131315 $208 75.204931791131315 $139 $209 forward 7 unknown #
coedge $-1 $151 $150 $85 $144 reversed $136 $-1 #
edge $-1 $210 -75.204931791131315 $145 75.204931791131315 $143 $211 forward 7 unknown #
vertex $-1 $87 $212 #
vertex $-1 $140 $213 #
straight-curve $-1 75.204931791131315 0 -13.381700258496439 0 -1 0 I I #
coedge $-1 $138 $214 $88 $149 reversed $81 $-1 #
edge $-1 $152 -41.002260367510075 $155 41.002260367510075 $148 $215 forward 7 unknown #
coedge $-1 $143 $89 $94 $157 forward $136 $-1 #
coedge $-1 $89 $143 $138 $205 reversed $136 $-1 #
vertex $-1 $90 $216 #
straight-curve $-1 0 41.002260367510075 13.381700258496439 -1 0 0 I I #
coedge $-1 $139 $91 $214 $217 forward $50 $-1 #
vertex $-1 $149 $218 #
straight-curve $-1 0 -41.002260367510075 13.381700258496439 1 0 0 I I #
edge $-1 $97 -13.381700258496439 $145 13.381700258496439 $94 $219 forward 7 unknown #
point $-1 75.204931791131315 -41.002260367510075 13.381700258496439 #
point $-1 75.204931791131315 41.002260367510075 13.381700258496439 #
face $-1 $-1 $174 $13 $-1 $220 reversed single #
loop $-1 $-1 $221 $99 #
plane-surface $-1 0 -52.902323352596525 -11.695010593967609 0 1 0 0 0 1 forward_v I I I I #
coedge $-1 $222 $102 $111 $178 reversed $58 $-1 #
coedge $-1 $102 $222 $103 $166 reversed $58 $-1 #
coedge $-1 $104 $103 $223 $224 forward $37 $-1 #
edge $-1 $170 41.002260367510075 $225 52.902323352596525 $164 $226 forward 7 unknown #
coedge $-1 $227 $108 $104 $168 reversed $174 $-1 #
edge $-1 $228 -52.902323352596525 $169 -41.002260367510075 $167 $229 forward 7 unknown #
vertex $-1 $109 $230 #
vertex $-1 $166 $231 #
straight-curve $-1 0 -41.002260367510075 -13.381700258496439 1 0 0 I I #
straight-curve $-1 75.204931791131315 -41.002260367510075 0 0 0 1 I I #
coedge $-1 $108 $227 $110 $177 reversed $174 $-1 #
loop $-1 $-1 $108 $160 #
straight-curve $-1 -75.204931791131315 -41.002260367510075 0 0 0 -1 I I #
coedge $-1 $111 $110 $232 $233 forward $100 $-1 #
edge $-1 $112 -5.9500314925432249 $234 5.9500314925432249 $173 $235 forward 7 unknown #
edge $-1 $236 -5.9500314925432249 $113 5.9500314925432249 $163 $237 forward 7 unknown #
point $-1 -75.204931791131315 -41.002260367510075 -10.00832092943878 #
point $-1 75.204931791131315 -41.002260367510075 -10.00832092943878 #
plane-surface $-1 0 0 13.381700258496439 0 0 1 1 0 0 forward_v I I I I #
coedge $-1 $192 $191 $184 $238 forward $116 $-1 #
coedge $-1 $184 $118 $120 $188 reversed $66 $-1 #
coedge $-1 $118 $183 $182 $238 reversed $66 $-1 #
coedge $-1 $126 $121 $118 $186 forward $127 $-1 #
edge $-1 $189 51.680854134679926 $239 57.896114913025592 $185 $240 forward 7 unknown #
coedge $-1 $120 $119 $192 $241 reversed $41 $-1 #
edge $-1 $242 -150.40986358226263 $189 -142.91290443246027 $183 $243 forward 7 unknown #
vertex $-1 $122 $244 #
straight-curve $-1 68.989671012785664 6.4549836082988996 13.381700258496444 0 -1 0 I I #
coedge $-1 $182 $123 $126 $196 reversed $116 $-1 #
coedge $-1 $123 $182 $187 $241 forward $116 $-1 #
vertex $-1 $124 $245 #
straight-curve $-1 75.204931791131315 18.554887610601298 108.99650536270666 0 0 1 I I #
straight-curve $-1 -49.490495664119479 18.554887610601298 93.297583270162505 0.82903756765294845 0 -0.55919291073839883 I I #
edge $-1 $239 7.2650468225943001 $128 18.554887610601298 $191 $246 forward 7 unknown #
point $-1 75.204931791131315 18.554887610601298 13.381700258496439 #
point $-1 68.989671012785649 18.554887610601298 13.381700258496423 #
edge $-1 $247 1 $247 0 $131 $-1 forward 7 unknown #
vertex $-1 $132 $248 #
ellipse-curve $-1 70.546265088430502 12.909967216597799 8.9860711984644936 0.55919291073839883 0 0.82903756765294845 0.82903756765294845 0 -0.55919291073839883 1 I I #
point $-1 72.926338969611393 12.909967216597799 10.726384143425605 #
plane-surface $-1 75.204931791131315 0 0 -1 0 0 0 0 1 forward_v I I I I #
coedge $-1 $214 $138 $141 $207 reversed $81 $-1 #
edge $-1 $152 -13.381700258496439 $210 13.381700258496439 $151 $249 forward 7 unknown #
straight-curve $-1 75.204931791131315 -41.002260367510075 0 0 0 -1 I I #
edge $-1 $208 -41.002260367510075 $210 41.002260367510075 $204 $250 forward 7 unknown #
vertex $-1 $207 $251 #
straight-curve $-1 0 -41.002260367510075 -13.381700258496439 -1 0 0 I I #
vertex $-1 $144 $252 #
straight-curve $-1 0 41.002260367510075 -13.381700258496439 1 0 0 I I #
point $-1 75.204931791131315 41.002260367510075 -13.381700258496439 #
point $-1 75.204931791131315 -41.002260367510075 -13.381700258496439 #
coedge $-1 $148 $204 $154 $217 reversed $81 $-1 #
straight-curve $-1 -75.204931791131315 0 13.381700258496439 0 -1 0 I I #
point $-1 -75.204931791131315 41.002260367510075 13.381700258496439 #
edge $-1 $155 -13.381700258496439 $208 13.381700258496439 $214 $253 forward 7 unknown #
point $-1 -75.204931791131315 -41.002260367510075 13.381700258496439 #
straight-curve $-1 75.204931791131315 41.002260367510075 0 0 0 -1 I I #
plane-surface $-1 -75.204931791131315 0 0 1 0 0 0 0 -1 forward_v I I I I #
coedge $-1 $223 $232 $227 $254 forward $161 $-1 #
coedge $-1 $164 $163 $255 $256 forward $58 $-1 #
coedge $-1 $255 $221 $165 $224 reversed $161 $-1 #
edge $-1 $225 -75.204931791131315 $228 75.204931791131315 $223 $257 forward 7 unknown #
vertex $-1 $256 $258 #
straight-curve $-1 75.204931791131315 0 -13.381700258496439 0 -1 0 I I #
coedge $-1 $173 $167 $221 $254 reversed $174 $-1 #
vertex $-1 $168 $259 #
straight-curve $-1 -75.204931791131315 0 -13.381700258496439 0 1 0 I I #
point $-1 -75.204931791131315 -41.002260367510075 -13.381700258496439 #
point $-1 75.204931791131315 -41.002260367510075 -13.381700258496439 #
coedge $-1 $221 $255 $176 $233 reversed $161 $-1 #
edge $-1 $234 -75.204931791131315 $236 75.204931791131315 $232 $260 forward 7 unknown #
vertex $-1 $177 $261 #
straight-curve $-1 -75.204931791131315 -46.9522918600533 -10.00832092943878 0 -1 0 I I #
vertex $-1 $178 $262 #
straight-curve $-1 75.204931791131315 -46.9522918600533 -10.00832092943878 0 1 0 I I #
edge $-1 $239 95.61480510421022 $242 99.807051512875077 $182 $263 forward 7 unknown #
vertex $-1 $196 $264 #
straight-curve $-1 17.308816878105723 7.2650468225943001 13.381700258496437 1 0 0 I I #
edge $-1 $242 0.81006321429540051 $193 12.099904002302399 $192 $265 forward 7 unknown #
vertex $-1 $241 $266 #
straight-curve $-1 -49.490495664119479 7.2650468225943001 93.297583270162505 -0.82903756765294845 0 0.55919291073839883 I I #
point $-1 68.989671012785649 7.2650468225943001 13.381700258496423 #
point $-1 75.20493179113133 18.554887610601298 9.1894538498315796 #
straight-curve $-1 75.204931791131315 0 13.381700258496439 0 1 0 I I #
vertex $-1 $199 $267 #
point $-1 71.375302656083448 12.909967216597799 8.4268782877260939 #
straight-curve $-1 -75.204931791131315 41.002260367510075 0 0 0 -1 I I #
straight-curve $-1 -75.204931791131315 0 -13.381700258496439 0 1 0 I I #
point $-1 -75.204931791131315 -41.002260367510075 -13.381700258496439 #
point $-1 -75.204931791131315 41.002260367510075 -13.381700258496439 #
straight-curve $-1 -75.204931791131315 -41.002260367510075 0 0 0 -1 I I #
edge $-1 $234 -1.6866896645288296 $228 1.6866896645288296 $227 $268 forward 7 unknown #
coedge $-1 $232 $223 $222 $256 reversed $161 $-1 #
edge $-1 $236 -1.6866896645288296 $225 1.6866896645288296 $222 $269 forward 7 unknown #
straight-curve $-1 0 -52.902323352596525 -13.381700258496439 -1 0 0 I I #
point $-1 75.204931791131315 -52.902323352596525 -13.381700258496439 #
point $-1 -75.204931791131315 -52.902323352596525 -13.381700258496439 #
straight-curve $-1 0 -52.902323352596525 -10.00832092943878 1 0 0 I I #
point $-1 -75.204931791131315 -52.902323352596525 -10.00832092943878 #
point $-1 75.204931791131315 -52.902323352596525 -10.00832092943878 #
straight-curve $-1 75.204931791131315 7.2650468225943001 108.99650536270666 0 0 -1 I I #
point $-1 75.204931791131315 7.2650468225943001 13.381700258496439 #
straight-curve $-1 75.204931791131315 6.4549836082988996 9.1894538498315796 0 1 0 I I #
point $-1 75.20493179113133 7.2650468225943001 9.1894538498315796 #
point $-1 69.987072177692099 12.909967216597799 8.1570336308115436 #
straight-curve $-1 -75.204931791131315 -52.902323352596525 -11.695010593967609 0 0 -1 I I #
straight-curve $-1 75.204931791131315 -52.902323352596525 -11.695010593967609 0 0 -1 I I #
End-of-ACIS-data 