500 0 9 0           
7 Unknown 11 ACIS 5.0 NT 24 Fri Mar 26 01:05:44 1999 
-1 9.9999999999999995e-007 1e-010 
body $-1 $9 $-1 $10 #
body $-1 $11 $-1 $12 #
body $-1 $13 $-1 $14 #
body $-1 $15 $-1 $16 #
body $-1 $17 $-1 $18 #
body $-1 $19 $-1 $20 #
body $-1 $21 $-1 $22 #
body $-1 $23 $-1 $24 #
body $-1 $25 $-1 $26 #
lump $-1 $-1 $27 $0 #
transform $-1 1 0 0 0 1 0 0 0 1 51.74474318674276 26.902149938415935 9.6624259898746683 1 rotate no_reflect no_shear #
lump $-1 $-1 $28 $1 #
transform $-1 1 0 0 0 1 0 0 0 1 51.74474318674276 26.902149938415935 9.6624259898746683 1 rotate no_reflect no_shear #
lump $-1 $-1 $29 $2 #
transform $-1 1 0 0 0 1 0 0 0 1 51.74474318674276 26.902149938415935 9.6624259898746683 1 rotate no_reflect no_shear #
lump $-1 $-1 $30 $3 #
transform $-1 1 0 0 0 1 0 0 0 1 51.74474318674276 26.902149938415935 9.6624259898746683 1 rotate no_reflect no_shear #
lump $-1 $-1 $31 $4 #
transform $-1 1 0 0 0 1 0 0 0 1 51.74474318674276 26.902149938415935 9.6624259898746683 1 rotate no_reflect no_shear #
lump $-1 $-1 $32 $5 #
transform $-1 1 0 0 0 1 0 0 0 1 51.74474318674276 26.902149938415935 9.6624259898746683 1 rotate no_reflect no_shear #
lump $-1 $-1 $33 $6 #
transform $-1 1 0 0 0 1 0 0 0 1 51.74474318674276 26.902149938415935 9.6624259898746683 1 rotate no_reflect no_shear #
lump $-1 $-1 $34 $7 #
transform $-1 1 0 0 0 1 0 0 0 1 51.74474318674276 26.902149938415935 9.6624259898746683 1 rotate no_reflect no_shear #
lump $-1 $-1 $35 $8 #
transform $-1 1 0 0 0 1 0 0 0 1 51.74474318674276 26.902149938415935 9.6624259898746683 1 rotate no_reflect no_shear #
shell $-1 $-1 $-1 $36 $-1 $9 #
shell $-1 $-1 $-1 $37 $-1 $11 #
shell $-1 $-1 $-1 $38 $-1 $13 #
shell $-1 $-1 $-1 $39 $-1 $15 #
shell $-1 $-1 $-1 $40 $-1 $17 #
shell $-1 $-1 $-1 $41 $-1 $19 #
shell $-1 $-1 $-1 $42 $-1 $21 #
shell $-1 $-1 $-1 $43 $-1 $23 #
shell $-1 $-1 $-1 $44 $-1 $25 #
face $-1 $45 $46 $27 $-1 $47 forward single #
face $-1 $48 $49 $28 $-1 $50 reversed single #
face $-1 $51 $52 $29 $-1 $53 reversed single #
face $-1 $54 $55 $30 $-1 $56 forward single #
face $-1 $57 $58 $31 $-1 $59 forward single #
face $-1 $60 $61 $32 $-1 $62 reversed single #
face $-1 $63 $64 $33 $-1 $65 forward single #
face $-1 $66 $67 $34 $-1 $68 forward single #
face $-1 $69 $70 $35 $-1 $71 forward single #
face $-1 $72 $73 $27 $-1 $74 reversed single #
loop $-1 $-1 $75 $36 #
plane-surface $-1 0 0 9.6624259898746683 0 0 1 1 0 0 forward_v I I I I #
face $-1 $76 $77 $28 $-1 $78 reversed single #
loop $-1 $-1 $79 $37 #
plane-surface $-1 0 -22.38894744368492 4.3354854540706613 0 0 1 1 0 0 forward_v I I I I #
face $-1 $80 $81 $29 $-1 $82 reversed single #
loop $-1 $-1 $83 $38 #
plane-surface $-1 -106.58581638576774 15.004592029053285 94.300831150622258 0 1 0 -0.52991927123019833 0 0.84804809178421925 forward_v I I I I #
face $-1 $84 $85 $30 $-1 $86 forward single #
loop $-1 $87 $88 $39 #
cone-surface $-1 -48.345127493698172 18.403894288871182 6.6615886319662216 0.52991927123019833 0 -0.84804809178421925 0.84804809178421925 0 0.52991927123019833 1 I I 0 1 1 forward I I I I #
face $-1 $89 $90 $31 $-1 $91 forward single #
loop $-1 $92 $93 $40 #
cone-surface $-1 -48.345127493698172 23.502847678598034 6.6615886319662216 0.52991927123019833 0 -0.84804809178421925 0.84804809178421925 0 0.52991927123019833 1 I I 0 1 1 forward I I I I #
face $-1 $94 $95 $32 $-1 $96 reversed single #
loop $-1 $-1 $97 $41 #
plane-surface $-1 44.085051248557527 11.097451145796215 147.87052168006036 0 -1 0 -0.66913061440640931 0 -0.74314481823134659 forward_v I I I I #
face $-1 $98 $99 $33 $-1 $100 forward single #
loop $-1 $101 $102 $42 #
cone-surface $-1 46.996846259895285 4.591680578727722 5.3170718550651417 -0.66913061440640931 0 -0.74314481823134659 0.3715724091156733 0 -0.33456530720320465 1 I I 0 1 0.5 forward I I I I #
face $-1 $103 $104 $34 $-1 $105 forward single #
loop $-1 $106 $107 $43 #
cone-surface $-1 46.996846259895285 7.0313445413784059 5.3170718550651417 -0.66913061440640931 0 -0.74314481823134659 0.3715724091156733 0 -0.33456530720320465 1 I I 0 1 0.5 forward I I I I #
face $-1 $108 $109 $35 $-1 $110 forward single #
loop $-1 $111 $112 $44 #
cone-surface $-1 46.996846259895285 9.4710085040290899 5.3170718550651417 -0.66913061440640931 0 -0.74314481823134659 0.3715724091156733 0 -0.33456530720320465 1 I I 0 1 0.5 forward I I I I #
face $-1 $113 $114 $27 $-1 $115 reversed single #
loop $-1 $-1 $116 $45 #
plane-surface $-1 0 0 -9.6624259898746683 0 0 1 1 0 0 forward_v I I I I #
coedge $-1 $117 $118 $119 $120 forward $46 $-1 #
face $-1 $121 $122 $28 $-1 $123 reversed single #
loop $-1 $-1 $124 $48 #
plane-surface $-1 0 -17.875744948953908 6.9989557219726652 0 -1 0 0 0 -1 forward_v I I I I #
coedge $-1 $125 $126 $127 $128 reversed $49 $-1 #
face $-1 $129 $130 $29 $-1 $131 forward single #
loop $-1 $-1 $132 $51 #
plane-surface $-1 -51.744743186742753 20.953370983734612 6.5367697118589092 -0.52991927123019833 0 0.84804809178421925 0.84804809178421925 0 0.52991927123019833 forward_v I I I I #
coedge $-1 $133 $134 $135 $136 reversed $52 $-1 #
face $-1 $-1 $137 $30 $-1 $138 forward single #
loop $-1 $139 $140 $54 #
cone-surface $-1 -47.181599952931784 18.403894288871182 4.7995553671735482 0.52991927123019833 0 -0.84804809178421925 0.42402404589210962 0 0.26495963561509916 1 I I -0.70710678118654746 0.70710678118654746 0.5 forward I I I I #
loop $-1 $-1 $141 $39 #
coedge $-1 $88 $88 $142 $143 reversed $55 $-1 #
face $-1 $-1 $144 $31 $-1 $145 forward single #
loop $-1 $146 $147 $57 #
cone-surface $-1 -47.181599952931784 23.502847678598034 4.7995553671735482 0.52991927123019833 0 -0.84804809178421925 0.42402404589210962 0 0.26495963561509916 1 I I -0.70710678118654746 0.70710678118654746 0.5 forward I I I I #
loop $-1 $-1 $148 $40 #
coedge $-1 $93 $93 $149 $150 reversed $58 $-1 #
face $-1 $151 $152 $32 $-1 $153 reversed single #
loop $-1 $-1 $154 $60 #
plane-surface $-1 -25.162932353136561 7.0313445413784059 70.962846140181043 0.66913061440640931 0 0.74314481823134659 0.74314481823134659 0 -0.66913061440640931 forward_v I I I I #
coedge $-1 $155 $156 $157 $158 reversed $61 $-1 #
face $-1 $-1 $159 $33 $-1 $160 forward single #
loop $-1 $161 $162 $63 #
cone-surface $-1 46.494998299090476 4.591680578727722 4.7597132413916317 -0.66913061440640931 0 -0.74314481823134659 0.18578620455783665 0 -0.16728265360160233 1 I I -0.70710678118654746 0.70710678118654746 0.25 forward I I I I #
loop $-1 $-1 $163 $42 #
coedge $-1 $102 $102 $164 $165 reversed $64 $-1 #
face $-1 $-1 $166 $34 $-1 $167 forward single #
loop $-1 $168 $169 $66 #
cone-surface $-1 46.494998299090476 7.0313445413784059 4.7597132413916317 -0.66913061440640931 0 -0.74314481823134659 0.18578620455783665 0 -0.16728265360160233 1 I I -0.70710678118654746 0.70710678118654746 0.25 forward I I I I #
loop $-1 $-1 $170 $43 #
coedge $-1 $107 $107 $171 $172 reversed $67 $-1 #
face $-1 $-1 $173 $35 $-1 $174 forward single #
loop $-1 $175 $176 $69 #
cone-surface $-1 46.494998299090476 9.4710085040290899 4.7597132413916317 -0.66913061440640931 0 -0.74314481823134659 0.18578620455783665 0 -0.16728265360160233 1 I I -0.70710678118654746 0.70710678118654746 0.25 forward I I I I #
loop $-1 $-1 $177 $44 #
coedge $-1 $112 $112 $178 $179 reversed $70 $-1 #
face $-1 $180 $181 $27 $-1 $182 reversed single #
loop $-1 $-1 $183 $72 #
plane-surface $-1 0 -26.902149938415935 0 0 1 0 0 0 1 forward_v I I I I #
coedge $-1 $184 $185 $186 $187 forward $73 $-1 #
coedge $-1 $188 $75 $189 $190 forward $46 $-1 #
coedge $-1 $75 $188 $191 $192 forward $46 $-1 #
coedge $-1 $193 $194 $75 $120 reversed $195 $-1 #
edge $-1 $196 -26.902149938415935 $197 26.902149938415935 $119 $198 forward 7 unknown #
face $-1 $199 $200 $28 $-1 $201 reversed single #
loop $-1 $-1 $202 $76 #
plane-surface $-1 -51.74474318674276 0 0 1 0 0 0 0 -1 forward_v I I I I #
coedge $-1 $203 $204 $205 $206 reversed $77 $-1 #
coedge $-1 $207 $79 $208 $209 reversed $49 $-1 #
coedge $-1 $79 $207 $203 $210 forward $49 $-1 #
coedge $-1 $205 $211 $79 $128 forward $212 $-1 #
edge $-1 $213 -15.707676216573471 $214 -6.6812712271114485 $127 $215 forward 7 unknown #
face $-1 $216 $217 $29 $-1 $218 reversed single #
loop $-1 $-1 $135 $80 #
plane-surface $-1 0 0 9.6624259898746683 0 0 1 1 0 0 forward_v I I I I #
coedge $-1 $219 $220 $221 $222 reversed $81 $-1 #
coedge $-1 $134 $83 $223 $224 reversed $52 $-1 #
coedge $-1 $83 $133 $219 $225 reversed $52 $-1 #
coedge $-1 $221 $226 $83 $136 forward $130 $-1 #
edge $-1 $227 1.5481650061411116 $228 6.5502605819277093 $135 $229 forward 7 unknown #
loop $-1 $-1 $142 $84 #
plane-surface $-1 -51.744743186742753 20.953370983734612 6.5367697118589092 -0.52991927123019833 0 0.84804809178421925 0.84804809178421925 0 0.52991927123019833 forward_v I I I I #
loop $-1 $-1 $230 $54 #
coedge $-1 $140 $140 $141 $231 reversed $85 $-1 #
coedge $-1 $141 $141 $140 $231 forward $87 $-1 #
coedge $-1 $142 $142 $88 $143 forward $137 $-1 #
edge $-1 $232 0 $232 6.2831853071796004 $142 $233 forward 7 unknown #
loop $-1 $-1 $149 $89 #
plane-surface $-1 -51.744743186742753 20.953370983734612 6.5367697118589092 -0.52991927123019833 0 0.84804809178421925 0.84804809178421925 0 0.52991927123019833 forward_v I I I I #
loop $-1 $-1 $234 $57 #
coedge $-1 $147 $147 $148 $235 reversed $90 $-1 #
coedge $-1 $148 $148 $147 $235 forward $92 $-1 #
coedge $-1 $149 $149 $93 $150 forward $144 $-1 #
edge $-1 $236 0 $236 6.2831853071796004 $149 $237 forward 7 unknown #
face $-1 $238 $239 $32 $-1 $240 reversed single #
loop $-1 $-1 $241 $94 #
plane-surface $-1 44.085051248557527 2.9652379369605963 147.87052168006036 0 1 0 0.66913061440640931 0 0.74314481823134659 forward_v I I I I #
coedge $-1 $242 $243 $244 $245 reversed $95 $-1 #
coedge $-1 $156 $97 $246 $247 reversed $61 $-1 #
coedge $-1 $97 $155 $242 $248 reversed $61 $-1 #
coedge $-1 $244 $249 $97 $158 forward $250 $-1 #
edge $-1 $251 -29.702217562463996 $252 -20.875554323175432 $157 $253 forward 7 unknown #
loop $-1 $-1 $164 $98 #
plane-surface $-1 -25.162932353136561 7.0313445413784059 70.962846140181043 0.66913061440640931 0 0.74314481823134659 0.74314481823134659 0 -0.66913061440640931 forward_v I I I I #
loop $-1 $-1 $254 $63 #
coedge $-1 $162 $162 $163 $255 reversed $99 $-1 #
coedge $-1 $163 $163 $162 $255 forward $101 $-1 #
coedge $-1 $164 $164 $102 $165 forward $159 $-1 #
edge $-1 $256 0 $256 6.2831853071796004 $164 $257 forward 7 unknown #
loop $-1 $-1 $171 $103 #
plane-surface $-1 -25.162932353136561 7.0313445413784059 70.962846140181043 0.66913061440640931 0 0.74314481823134659 0.74314481823134659 0 -0.66913061440640931 forward_v I I I I #
loop $-1 $-1 $258 $66 #
coedge $-1 $169 $169 $170 $259 reversed $104 $-1 #
coedge $-1 $170 $170 $169 $259 forward $106 $-1 #
coedge $-1 $171 $171 $107 $172 forward $166 $-1 #
edge $-1 $260 0 $260 6.2831853071796004 $171 $261 forward 7 unknown #
loop $-1 $-1 $178 $108 #
plane-surface $-1 -25.162932353136561 7.0313445413784059 70.962846140181043 0.66913061440640931 0 0.74314481823134659 0.74314481823134659 0 -0.66913061440640931 forward_v I I I I #
loop $-1 $-1 $262 $69 #
coedge $-1 $176 $176 $177 $263 reversed $109 $-1 #
coedge $-1 $177 $177 $176 $263 forward $111 $-1 #
coedge $-1 $178 $178 $112 $179 forward $173 $-1 #
edge $-1 $264 0 $264 6.2831853071796004 $178 $265 forward 7 unknown #
face $-1 $266 $267 $27 $-1 $268 reversed single #
loop $-1 $-1 $269 $113 #
plane-surface $-1 -51.74474318674276 0 0 1 0 0 0 0 -1 forward_v I I I I #
coedge $-1 $270 $191 $271 $272 forward $114 $-1 #
coedge $-1 $273 $116 $270 $274 forward $73 $-1 #
coedge $-1 $116 $273 $275 $276 forward $73 $-1 #
coedge $-1 $194 $193 $116 $187 reversed $195 $-1 #
edge $-1 $277 -26.902149938415935 $278 26.902149938415935 $186 $279 forward 7 unknown #
coedge $-1 $118 $117 $280 $281 forward $46 $-1 #
coedge $-1 $282 $283 $117 $190 reversed $267 $-1 #
edge $-1 $197 -51.74474318674276 $284 51.74474318674276 $189 $285 forward 7 unknown #
coedge $-1 $183 $286 $118 $192 reversed $114 $-1 #
edge $-1 $287 -51.74474318674276 $196 51.74474318674276 $191 $288 forward 7 unknown #
coedge $-1 $186 $119 $286 $289 forward $195 $-1 #
coedge $-1 $119 $186 $282 $290 reversed $195 $-1 #
loop $-1 $-1 $193 $266 #
vertex $-1 $120 $291 #
vertex $-1 $120 $292 #
straight-curve $-1 51.74474318674276 0 9.6624259898746683 0 1 0 I I #
face $-1 $293 $294 $28 $-1 $295 forward single #
loop $-1 $-1 $208 $121 #
plane-surface $-1 0 -26.902149938415935 0 0 1 0 0 0 1 forward_v I I I I #
coedge $-1 $296 $297 $298 $299 forward $122 $-1 #
coedge $-1 $298 $124 $126 $210 reversed $77 $-1 #
coedge $-1 $124 $298 $300 $301 reversed $77 $-1 #
coedge $-1 $302 $127 $124 $206 forward $212 $-1 #
edge $-1 $214 0.8360075930843287 $303 6.1629481288883374 $205 $304 forward 7 unknown #
coedge $-1 $126 $125 $296 $305 reversed $49 $-1 #
coedge $-1 $306 $307 $125 $209 forward $200 $-1 #
edge $-1 $308 -51.74474318674276 $213 51.74474318674276 $208 $309 forward 7 unknown #
edge $-1 $310 -51.74474318674276 $214 51.74474318674276 $203 $311 forward 7 unknown #
coedge $-1 $127 $302 $306 $312 forward $212 $-1 #
loop $-1 $-1 $205 $293 #
vertex $-1 $209 $313 #
vertex $-1 $128 $314 #
straight-curve $-1 51.74474318674276 -11.19447372184246 4.3354854540706613 0 1 0 I I #
face $-1 $-1 $315 $29 $-1 $316 reversed single #
loop $-1 $-1 $317 $129 #
plane-surface $-1 0 26.902149938415935 0 0 -1 0 0 0 -1 forward_v I I I I #
coedge $-1 $318 $132 $134 $225 forward $81 $-1 #
coedge $-1 $132 $318 $317 $319 reversed $81 $-1 #
coedge $-1 $320 $135 $132 $222 forward $130 $-1 #
edge $-1 $228 4.527906537185979 $321 16.425464446548631 $221 $322 forward 7 unknown #
coedge $-1 $323 $324 $133 $224 forward $315 $-1 #
edge $-1 $325 -40.613645863452227 $227 -37.487989585436459 $223 $326 forward 7 unknown #
edge $-1 $228 -5.8983631049303096 $325 8.3790584163743152e-015 $134 $327 forward 7 unknown #
coedge $-1 $135 $320 $323 $328 forward $130 $-1 #
vertex $-1 $224 $329 #
vertex $-1 $136 $330 #
straight-curve $-1 -53.292908192883871 15.004592029053285 9.6624259898746701 1 0 0 I I #
coedge $-1 $230 $230 $-1 $331 reversed $139 $-1 #
edge $-1 $332 0 $332 6.2831853071796004 $140 $333 forward 7 unknown #
vertex $-1 $143 $334 #
ellipse-curve $-1 -49.243695398849461 18.403894288871182 8.0995978508667861 -0.52991927123019833 0 0.84804809178421925 0.84804809178421925 0 0.52991927123019833 1 I I #
coedge $-1 $234 $234 $-1 $335 reversed $146 $-1 #
edge $-1 $336 0 $336 6.2831853071796004 $147 $337 forward 7 unknown #
vertex $-1 $150 $338 #
ellipse-curve $-1 -49.243695398849461 23.502847678598034 8.0995978508667861 -0.52991927123019833 0 0.84804809178421925 0.84804809178421925 0 0.52991927123019833 1 I I #
face $-1 $-1 $250 $32 $-1 $339 forward single #
loop $-1 $-1 $340 $151 #
plane-surface $-1 51.74474318674276 0 0 -1 0 0 0 0 1 forward_v I I I I #
coedge $-1 $341 $342 $343 $344 reversed $152 $-1 #
coedge $-1 $345 $154 $156 $248 forward $95 $-1 #
coedge $-1 $154 $345 $341 $346 forward $95 $-1 #
coedge $-1 $343 $157 $154 $245 forward $250 $-1 #
edge $-1 $252 -7.5817788751070125 $347 0.55043433372860662 $244 $348 forward 7 unknown #
coedge $-1 $349 $350 $155 $247 forward $239 $-1 #
edge $-1 $351 -72.220398301543227 $251 -64.272834850155519 $246 $352 forward 7 unknown #
edge $-1 $252 91.612039309674117 $351 103.48948637348553 $156 $353 forward 7 unknown #
coedge $-1 $157 $343 $349 $354 forward $250 $-1 #
loop $-1 $-1 $343 $238 #
vertex $-1 $247 $355 #
vertex $-1 $158 $356 #
straight-curve $-1 22.042525624278763 11.097451145796215 9.6624259898746629 -1 0 0 I I #
coedge $-1 $254 $254 $-1 $357 reversed $161 $-1 #
edge $-1 $358 0 $358 6.2831853071796004 $162 $359 forward 7 unknown #
vertex $-1 $165 $360 #
ellipse-curve $-1 47.331411567098485 4.591680578727722 5.6886442641808097 0.66913061440640931 0 0.74314481823134659 0.3715724091156733 0 -0.33456530720320465 1 I I #
coedge $-1 $258 $258 $-1 $361 reversed $168 $-1 #
edge $-1 $362 0 $362 6.2831853071796004 $169 $363 forward 7 unknown #
vertex $-1 $172 $364 #
ellipse-curve $-1 47.331411567098485 7.0313445413784059 5.6886442641808097 0.66913061440640931 0 0.74314481823134659 0.3715724091156733 0 -0.33456530720320465 1 I I #
coedge $-1 $262 $262 $-1 $365 reversed $175 $-1 #
edge $-1 $366 0 $366 6.2831853071796004 $176 $367 forward 7 unknown #
vertex $-1 $179 $368 #
ellipse-curve $-1 47.331411567098485 9.4710085040290899 5.6886442641808097 0.66913061440640931 0 0.74314481823134659 0.3715724091156733 0 -0.33456530720320465 1 I I #
face $-1 $-1 $195 $27 $-1 $369 reversed single #
loop $-1 $-1 $282 $180 #
plane-surface $-1 0 26.902149938415935 0 0 -1 0 0 0 -1 forward_v I I I I #
coedge $-1 $370 $280 $283 $371 forward $181 $-1 #
coedge $-1 $286 $183 $184 $274 reversed $114 $-1 #
coedge $-1 $280 $370 $183 $272 reversed $181 $-1 #
edge $-1 $287 -9.6624259898746683 $372 9.6624259898746683 $271 $373 forward 7 unknown #
coedge $-1 $185 $184 $370 $374 forward $73 $-1 #
edge $-1 $278 -51.74474318674276 $372 51.74474318674276 $270 $375 forward 7 unknown #
coedge $-1 $283 $282 $185 $276 reversed $267 $-1 #
edge $-1 $376 -51.74474318674276 $277 51.74474318674276 $275 $377 forward 7 unknown #
vertex $-1 $187 $378 #
vertex $-1 $289 $379 #
straight-curve $-1 51.74474318674276 0 -9.6624259898746683 0 -1 0 I I #
coedge $-1 $269 $271 $188 $281 reversed $181 $-1 #
edge $-1 $284 -26.902149938415935 $287 26.902149938415935 $280 $380 forward 7 unknown #
coedge $-1 $275 $189 $194 $290 forward $267 $-1 #
coedge $-1 $189 $275 $269 $371 reversed $267 $-1 #
vertex $-1 $190 $381 #
straight-curve $-1 0 26.902149938415935 9.6624259898746683 -1 0 0 I I #
coedge $-1 $191 $270 $193 $289 reversed $114 $-1 #
vertex $-1 $281 $382 #
straight-curve $-1 0 -26.902149938415935 9.6624259898746683 1 0 0 I I #
edge $-1 $196 -9.6624259898746683 $278 9.6624259898746683 $193 $383 forward 7 unknown #
edge $-1 $197 -9.6624259898746683 $277 9.6624259898746683 $194 $384 forward 7 unknown #
point $-1 51.74474318674276 -26.902149938415935 9.6624259898746683 #
point $-1 51.74474318674276 26.902149938415935 9.6624259898746683 #
face $-1 $-1 $212 $28 $-1 $385 reversed single #
loop $-1 $-1 $300 $199 #
plane-surface $-1 0 0 9.6624259898746683 0 0 1 1 0 0 forward_v I I I I #
coedge $-1 $386 $202 $207 $305 forward $122 $-1 #
coedge $-1 $202 $386 $387 $388 reversed $122 $-1 #
coedge $-1 $204 $203 $202 $299 reversed $77 $-1 #
edge $-1 $389 -6.1629481288883374 $310 -0.8360075930843287 $202 $390 forward 7 unknown #
coedge $-1 $387 $391 $204 $301 forward $294 $-1 #
edge $-1 $303 -51.74474318674276 $389 51.74474318674276 $300 $392 forward 7 unknown #
coedge $-1 $211 $205 $391 $393 reversed $212 $-1 #
vertex $-1 $206 $394 #
straight-curve $-1 51.74474318674276 -17.875744948953908 3.4994778609863326 0 0 1 I I #
edge $-1 $310 6.6812712271114485 $308 15.707676216573471 $296 $395 forward 7 unknown #
coedge $-1 $396 $208 $211 $312 reversed $200 $-1 #
coedge $-1 $208 $396 $386 $397 forward $200 $-1 #
vertex $-1 $209 $398 #
straight-curve $-1 0 -26.902149938415935 4.3354854540706613 1 0 0 I I #
vertex $-1 $305 $399 #
straight-curve $-1 0 -17.875744948953908 4.3354854540706613 1 0 0 I I #
edge $-1 $400 -9.6624259898746683 $213 -4.3354854540706613 $211 $401 forward 7 unknown #
point $-1 51.74474318674276 -26.902149938415931 4.3354854540706613 #
point $-1 51.74474318674276 -17.875744948953908 4.3354854540706613 #
loop $-1 $-1 $223 $216 #
plane-surface $-1 -51.74474318674276 0 0 1 0 0 0 0 -1 forward_v I I I I #
coedge $-1 $402 $403 $220 $319 forward $217 $-1 #
coedge $-1 $220 $219 $324 $404 reversed $81 $-1 #
edge $-1 $321 14.310672133806577 $405 20.209035238736895 $317 $406 forward 7 unknown #
coedge $-1 $226 $221 $403 $407 forward $130 $-1 #
vertex $-1 $407 $408 #
straight-curve $-1 -46.742647610956169 10.476685491867306 9.6624259898746665 0 1 0 I I #
coedge $-1 $409 $223 $226 $328 reversed $315 $-1 #
coedge $-1 $223 $409 $318 $404 forward $315 $-1 #
vertex $-1 $224 $410 #
straight-curve $-1 -51.74474318674276 15.004592029053285 47.150415575311129 0 0 1 I I #
straight-curve $-1 -51.744743186742753 15.004592029053285 6.5367697118589092 -0.84804809178421925 0 -0.52991927123019833 I I #
edge $-1 $411 -26.902149938415935 $227 -15.004592029053285 $323 $412 forward 7 unknown #
point $-1 -51.74474318674276 15.004592029053285 9.6624259898746683 #
point $-1 -46.742647610956162 15.004592029053285 9.6624259898746683 #
edge $-1 $413 1 $413 0 $230 $-1 forward 7 unknown #
vertex $-1 $231 $414 #
ellipse-curve $-1 -47.446559588546883 18.403894288871182 5.2235794130656581 -0.52991927123019833 0 0.84804809178421925 0.84804809178421925 0 0.52991927123019833 1 I I #
point $-1 -48.395647307065239 18.403894288871182 8.6295171220969848 #
edge $-1 $415 1 $415 0 $234 $-1 forward 7 unknown #
vertex $-1 $235 $416 #
ellipse-curve $-1 -47.446559588546883 23.502847678598034 5.2235794130656581 -0.52991927123019833 0 0.84804809178421925 0.84804809178421925 0 0.52991927123019833 1 I I #
point $-1 -48.395647307065239 23.502847678598034 8.6295171220969848 #
plane-surface $-1 0 0 9.6624259898746683 0 0 1 1 0 0 forward_v I I I I #
coedge $-1 $350 $349 $342 $417 forward $239 $-1 #
coedge $-1 $342 $241 $243 $346 reversed $152 $-1 #
coedge $-1 $241 $341 $340 $417 reversed $152 $-1 #
coedge $-1 $249 $244 $241 $344 forward $250 $-1 #
edge $-1 $347 20.875554323175432 $418 29.702217562463996 $343 $419 forward 7 unknown #
coedge $-1 $243 $242 $350 $420 reversed $95 $-1 #
edge $-1 $421 -103.48948637348553 $347 -91.612039309674117 $341 $422 forward 7 unknown #
vertex $-1 $245 $423 #
straight-curve $-1 42.918079947454203 3.515672270689203 9.6624259898746629 0 -1 0 I I #
coedge $-1 $340 $246 $249 $354 reversed $239 $-1 #
coedge $-1 $246 $340 $345 $420 forward $239 $-1 #
vertex $-1 $247 $424 #
straight-curve $-1 51.74474318674276 11.097451145796215 73.935260840030182 0 0 1 I I #
straight-curve $-1 -25.162932353136561 11.097451145796215 70.962846140181043 0.74314481823134659 0 -0.66913061440640931 I I #
edge $-1 $418 2.9652379369605963 $251 11.097451145796215 $349 $425 forward 7 unknown #
point $-1 51.74474318674276 11.097451145796215 9.6624259898746683 #
point $-1 42.918079947454196 11.097451145796215 9.6624259898746701 #
edge $-1 $426 1 $426 0 $254 $-1 forward 7 unknown #
vertex $-1 $255 $427 #
ellipse-curve $-1 46.662280952692079 4.591680578727722 4.9454994459494683 0.66913061440640931 0 0.74314481823134659 0.3715724091156733 0 -0.33456530720320465 1 I I #
point $-1 47.702983976214163 4.591680578727722 5.3540789569776104 #
edge $-1 $428 1 $428 0 $258 $-1 forward 7 unknown #
vertex $-1 $259 $429 #
ellipse-curve $-1 46.662280952692079 7.0313445413784059 4.9454994459494683 0.66913061440640931 0 0.74314481823134659 0.3715724091156733 0 -0.33456530720320465 1 I I #
point $-1 47.702983976214163 7.0313445413784059 5.3540789569776104 #
edge $-1 $430 1 $430 0 $262 $-1 forward 7 unknown #
vertex $-1 $263 $431 #
ellipse-curve $-1 46.662280952692079 9.4710085040290899 4.9454994459494683 0.66913061440640931 0 0.74314481823134659 0.3715724091156733 0 -0.33456530720320465 1 I I #
point $-1 47.702983976214163 9.4710085040290899 5.3540789569776104 #
plane-surface $-1 51.74474318674276 0 0 -1 0 0 0 0 1 forward_v I I I I #
coedge $-1 $271 $269 $273 $374 reversed $181 $-1 #
edge $-1 $284 -9.6624259898746683 $376 9.6624259898746683 $283 $432 forward 7 unknown #
vertex $-1 $374 $433 #
straight-curve $-1 -51.74474318674276 -26.902149938415935 0 0 0 -1 I I #
edge $-1 $372 -26.902149938415935 $376 26.902149938415935 $370 $434 forward 7 unknown #
straight-curve $-1 0 -26.902149938415935 -9.6624259898746683 -1 0 0 I I #
vertex $-1 $276 $435 #
straight-curve $-1 0 26.902149938415935 -9.6624259898746683 1 0 0 I I #
point $-1 51.74474318674276 26.902149938415935 -9.6624259898746683 #
point $-1 51.74474318674276 -26.902149938415935 -9.6624259898746683 #
straight-curve $-1 -51.74474318674276 0 9.6624259898746683 0 -1 0 I I #
point $-1 -51.74474318674276 26.902149938415935 9.6624259898746683 #
point $-1 -51.74474318674276 -26.902149938415935 9.6624259898746683 #
straight-curve $-1 51.74474318674276 -26.902149938415935 0 0 0 -1 I I #
straight-curve $-1 51.74474318674276 26.902149938415935 0 0 0 -1 I I #
plane-surface $-1 51.74474318674276 0 0 -1 0 0 0 0 1 forward_v I I I I #
coedge $-1 $297 $296 $307 $397 reversed $122 $-1 #
coedge $-1 $436 $300 $297 $388 forward $294 $-1 #
edge $-1 $389 17.875744948953908 $437 26.902149938415935 $297 $438 forward 7 unknown #
vertex $-1 $388 $439 #
straight-curve $-1 -51.74474318674276 -17.875744948953908 3.4994778609863326 0 0 -1 I I #
coedge $-1 $300 $436 $302 $393 forward $294 $-1 #
straight-curve $-1 0 -17.875744948953908 9.6624259898746683 -1 0 0 I I #
edge $-1 $400 -26.902149938415935 $303 -17.875744948953908 $302 $440 forward 7 unknown #
point $-1 51.74474318674276 -17.875744948953908 9.6624259898746701 #
straight-curve $-1 -51.74474318674276 -11.19447372184246 4.3354854540706613 0 -1 0 I I #
coedge $-1 $307 $306 $436 $441 reversed $200 $-1 #
edge $-1 $437 -9.6624259898746683 $308 -4.3354854540706613 $386 $442 forward 7 unknown #
point $-1 -51.74474318674276 -26.902149938415931 4.3354854540706613 #
point $-1 -51.74474318674276 -17.875744948953908 4.3354854540706613 #
vertex $-1 $393 $443 #
straight-curve $-1 51.74474318674276 -26.902149938415935 0 0 0 -1 I I #
coedge $-1 $403 $317 $409 $444 reversed $217 $-1 #
coedge $-1 $317 $402 $320 $407 reversed $217 $-1 #
edge $-1 $405 -16.425464446548631 $325 -4.527906537185979 $324 $445 forward 7 unknown #
vertex $-1 $319 $446 #
straight-curve $-1 -34.606509415731892 26.902149938415935 17.245926937835755 -0.84804809178421925 0 -0.52991927123019833 I I #
edge $-1 $321 46.742647610956162 $411 51.74474318674276 $403 $447 forward 7 unknown #
point $-1 -46.742647610956162 26.902149938415938 9.6624259898746683 #
coedge $-1 $324 $323 $402 $444 forward $315 $-1 #
point $-1 -51.74474318674276 15.004592029053285 6.5367697118589048 #
vertex $-1 $407 $448 #
straight-curve $-1 -51.74474318674276 0 9.6624259898746683 0 -1 0 I I #
vertex $-1 $331 $449 #
point $-1 -46.598511496762661 18.403894288871182 5.753498684295856 #
vertex $-1 $335 $450 #
point $-1 -46.598511496762661 23.502847678598034 5.753498684295856 #
edge $-1 $418 64.272834850155519 $421 72.220398301543227 $340 $451 forward 7 unknown #
vertex $-1 $354 $452 #
straight-curve $-1 22.042525624278763 2.9652379369605963 9.6624259898746629 1 0 0 I I #
edge $-1 $421 -0.55043433372860662 $351 7.5817788751070125 $350 $453 forward 7 unknown #
vertex $-1 $420 $454 #
straight-curve $-1 -25.162932353136561 2.9652379369605963 70.962846140181043 -0.74314481823134659 0 0.66913061440640931 I I #
point $-1 42.918079947454196 2.9652379369605963 9.6624259898746701 #
point $-1 51.74474318674276 11.097451145796215 1.7148625384869547 #
straight-curve $-1 51.74474318674276 0 9.6624259898746683 0 1 0 I I #
vertex $-1 $357 $455 #
point $-1 47.033853361807751 4.591680578727722 4.6109341387462637 #
vertex $-1 $361 $456 #
point $-1 47.033853361807751 7.0313445413784059 4.6109341387462637 #
vertex $-1 $365 $457 #
point $-1 47.033853361807751 9.4710085040290899 4.6109341387462637 #
straight-curve $-1 -51.74474318674276 26.902149938415935 0 0 0 -1 I I #
point $-1 -51.74474318674276 -26.902149938415935 -9.6624259898746683 #
straight-curve $-1 -51.74474318674276 0 -9.6624259898746683 0 1 0 I I #
point $-1 -51.74474318674276 26.902149938415935 -9.6624259898746683 #
coedge $-1 $391 $387 $396 $441 forward $294 $-1 #
vertex $-1 $388 $458 #
straight-curve $-1 -51.74474318674276 0 9.6624259898746683 0 -1 0 I I #
point $-1 -51.74474318674276 -17.875744948953908 9.6624259898746701 #
straight-curve $-1 51.74474318674276 0 9.6624259898746683 0 1 0 I I #
edge $-1 $437 -51.74474318674276 $400 51.74474318674276 $396 $459 forward 7 unknown #
straight-curve $-1 -51.74474318674276 -26.902149938415935 0 0 0 -1 I I #
point $-1 51.74474318674276 -26.902149938415935 9.6624259898746683 #
edge $-1 $411 -9.6624259898746683 $405 -6.5367697118589048 $402 $460 forward 7 unknown #
straight-curve $-1 -51.74474318674276 10.476685491867306 6.5367697118589048 0 -1 0 I I #
point $-1 -51.74474318674276 26.902149938415938 6.5367697118589048 #
straight-curve $-1 0 26.902149938415935 9.6624259898746683 -1 0 0 I I #
point $-1 -51.74474318674276 26.902149938415935 9.6624259898746683 #
point $-1 -46.916640317316684 18.403894288871182 4.3755313212814384 #
point $-1 -46.916640317316684 23.502847678598034 4.3755313212814384 #
straight-curve $-1 51.74474318674276 2.9652379369605963 73.935260840030182 0 0 -1 I I #
point $-1 51.74474318674276 2.9652379369605963 9.6624259898746683 #
straight-curve $-1 51.744743186742753 3.515672270689203 1.7148625384869476 0 1 0 I I #
point $-1 51.74474318674276 2.9652379369605963 1.7148625384869547 #
point $-1 46.327715645488873 4.591680578727722 4.573927036833795 #
point $-1 46.327715645488873 7.0313445413784059 4.573927036833795 #
point $-1 46.327715645488873 9.4710085040290899 4.573927036833795 #
point $-1 -51.74474318674276 -26.902149938415935 9.6624259898746683 #
straight-curve $-1 0 -26.902149938415935 9.6624259898746683 1 0 0 I I #
straight-curve $-1 -51.74474318674276 26.902149938415935 0 0 0 -1 I I #
End-of-ACIS-data 