500 0 5 0           
7 Unknown 11 ACIS 5.0 NT 24 Thu Mar 25 22:54:04 1999 
-1 9.9999999999999995e-007 1e-010 
body $-1 $5 $-1 $6 #
body $-1 $7 $-1 $8 #
body $-1 $9 $-1 $10 #
body $-1 $11 $-1 $12 #
body $-1 $13 $-1 $14 #
lump $-1 $-1 $15 $0 #
transform $-1 1 0 0 0 1 0 0 0 1 60.405896176030765 38.342544431471559 13.794282380930794 1 rotate no_reflect no_shear #
lump $-1 $-1 $16 $1 #
transform $-1 1 0 0 0 1 0 0 0 1 60.405896176030765 38.342544431471559 13.794282380930794 1 rotate no_reflect no_shear #
lump $-1 $-1 $17 $2 #
transform $-1 1 0 0 0 1 0 0 0 1 60.405896176030765 38.342544431471559 13.794282380930794 1 rotate no_reflect no_shear #
lump $-1 $-1 $18 $3 #
transform $-1 1 0 0 0 1 0 0 0 1 60.405896176030765 38.342544431471559 13.794282380930794 1 rotate no_reflect no_shear #
lump $-1 $-1 $19 $4 #
transform $-1 1 0 0 0 1 0 0 0 1 60.405896176030765 38.342544431471559 13.794282380930794 1 rotate no_reflect no_shear #
shell $-1 $-1 $-1 $20 $-1 $5 #
shell $-1 $-1 $-1 $21 $-1 $7 #
shell $-1 $-1 $-1 $22 $-1 $9 #
shell $-1 $-1 $-1 $23 $-1 $11 #
shell $-1 $-1 $-1 $24 $-1 $13 #
face $-1 $25 $26 $15 $-1 $27 forward single #
face $-1 $28 $29 $16 $-1 $30 forward single #
face $-1 $31 $32 $17 $-1 $33 forward single #
face $-1 $34 $35 $18 $-1 $36 reversed single #
face $-1 $37 $38 $19 $-1 $39 reversed single #
face $-1 $40 $41 $15 $-1 $42 reversed single #
loop $-1 $-1 $43 $20 #
plane-surface $-1 0 0 13.794282380930794 0 0 1 1 0 0 forward_v I I I I #
face $-1 $44 $45 $16 $-1 $46 forward single #
loop $-1 $-1 $47 $21 #
plane-surface $-1 -54.83311049740724 -16.191116870533875 0 0 1 0 0 0 1 forward_v I I I I #
face $-1 $48 $49 $17 $-1 $50 forward single #
loop $-1 $-1 $51 $22 #
plane-surface $-1 1.8351786664275664 -31.36431133973046 114.14740907762169 0.87461971476443456 0 0.48480960649040278 0.48480960649040278 0 -0.87461971476443456 forward_v I I I I #
face $-1 $52 $53 $18 $-1 $54 reversed single #
loop $-1 $55 $56 $23 #
cone-surface $-1 57.302025352927259 -34.35498266476236 10.234117572132327 -0.87461971476443456 0 -0.48480960649040278 0.72721440973560414 0 -1.311929572146652 1 I I 0 1 1.5 forward I I I I #
face $-1 $57 $58 $19 $-1 $59 reversed single #
loop $-1 $60 $61 $24 #
cone-surface $-1 57.302025352927259 -28.373640014698559 10.234117572132327 -0.87461971476443456 0 -0.48480960649040278 0.72721440973560414 0 -1.311929572146652 1 I I 0 1 1.5 forward I I I I #
face $-1 $62 $63 $15 $-1 $64 reversed single #
loop $-1 $-1 $65 $25 #
plane-surface $-1 0 0 -13.794282380930794 0 0 1 1 0 0 forward_v I I I I #
coedge $-1 $66 $67 $68 $69 forward $26 $-1 #
face $-1 $70 $71 $16 $-1 $72 forward single #
loop $-1 $-1 $73 $28 #
plane-surface $-1 -54.83311049740724 -10.753979669609974 0 0 -1 0 0 0 -1 forward_v I I I I #
coedge $-1 $74 $75 $76 $77 reversed $29 $-1 #
face $-1 $78 $79 $17 $-1 $80 reversed single #
loop $-1 $-1 $81 $31 #
plane-surface $-1 107.49955403356772 -24.38607824798936 172.7181265872249 0 -1 0 -0.87461971476443456 0 -0.48480960649040278 forward_v I I I I #
coedge $-1 $82 $83 $84 $85 reversed $32 $-1 #
face $-1 $86 $87 $18 $-1 $88 forward single #
loop $-1 $89 $90 $34 #
cone-surface $-1 55.014226295422887 -34.35498266476236 8.9659698936906853 -0.87461971476443456 0 -0.48480960649040278 0.36360720486780207 0 -0.65596478607332598 1 I I -0.70710678118654757 0.70710678118654757 0.75 forward I I I I #
loop $-1 $-1 $91 $23 #
coedge $-1 $56 $56 $92 $93 reversed $35 $-1 #
face $-1 $94 $95 $19 $-1 $96 reversed single #
loop $-1 $97 $98 $37 #
cone-surface $-1 55.014226295422887 -28.373640014698559 8.9659698936906853 -0.87461971476443456 0 -0.48480960649040278 0.36360720486780207 0 -0.65596478607332598 1 I I -0.70710678118654757 0.70710678118654757 0.75 forward I I I I #
loop $-1 $-1 $99 $24 #
coedge $-1 $61 $61 $100 $101 reversed $38 $-1 #
face $-1 $102 $103 $15 $-1 $104 reversed single #
loop $-1 $-1 $105 $40 #
plane-surface $-1 0 -38.342544431471559 0 0 1 0 0 0 1 forward_v I I I I #
coedge $-1 $106 $107 $108 $109 forward $41 $-1 #
coedge $-1 $110 $43 $111 $112 forward $26 $-1 #
coedge $-1 $43 $110 $113 $114 forward $26 $-1 #
coedge $-1 $115 $116 $43 $69 reversed $117 $-1 #
edge $-1 $118 -38.342544431471559 $119 38.342544431471559 $68 $120 forward 7 unknown #
face $-1 $121 $122 $16 $-1 $123 forward single #
loop $-1 $-1 $124 $44 #
plane-surface $-1 -49.260324818783715 -13.472548270071925 0 -1 0 0 0 0 1 forward_v I I I I #
coedge $-1 $125 $126 $127 $128 reversed $45 $-1 #
coedge $-1 $129 $47 $130 $131 reversed $29 $-1 #
coedge $-1 $47 $129 $132 $133 reversed $29 $-1 #
coedge $-1 $134 $135 $47 $77 forward $136 $-1 #
edge $-1 $137 -13.794282380930794 $138 13.794282380930794 $76 $139 forward 7 unknown #
face $-1 $140 $141 $17 $-1 $142 reversed single #
loop $-1 $-1 $143 $48 #
plane-surface $-1 60.405896176030765 0 0 -1 0 0 0 0 1 forward_v I I I I #
coedge $-1 $144 $145 $143 $146 reversed $49 $-1 #
coedge $-1 $147 $51 $145 $148 reversed $32 $-1 #
coedge $-1 $51 $147 $149 $150 reversed $32 $-1 #
coedge $-1 $151 $143 $51 $85 forward $79 $-1 #
edge $-1 $152 8.7039225781241303 $153 22.660388761606328 $84 $154 forward 7 unknown #
face $-1 $155 $156 $18 $-1 $157 forward single #
loop $-1 $158 $92 $52 #
plane-surface $-1 1.8351786664275664 -31.36431133973046 114.14740907762169 0.87461971476443456 0 0.48480960649040278 0.48480960649040278 0 -0.87461971476443456 forward_v I I I I #
loop $-1 $-1 $159 $34 #
coedge $-1 $90 $90 $91 $160 forward $53 $-1 #
coedge $-1 $91 $91 $90 $160 reversed $55 $-1 #
coedge $-1 $92 $92 $56 $93 forward $87 $-1 #
edge $-1 $161 0 $161 6.2831853071796004 $92 $162 forward 7 unknown #
face $-1 $163 $164 $19 $-1 $165 reversed single #
loop $-1 $166 $167 $57 #
cone-surface $-1 57.302025352927259 -34.35498266476236 10.234117572132327 -0.87461971476443456 0 -0.48480960649040278 0.72721440973560414 0 -1.311929572146652 1 I I 0 1 1.5 forward I I I I #
loop $-1 $-1 $168 $37 #
coedge $-1 $98 $98 $99 $169 forward $58 $-1 #
coedge $-1 $99 $99 $98 $169 reversed $60 $-1 #
coedge $-1 $100 $100 $61 $101 forward $170 $-1 #
edge $-1 $171 0 $171 6.2831853071796004 $100 $172 forward 7 unknown #
face $-1 $173 $174 $15 $-1 $175 reversed single #
loop $-1 $-1 $176 $62 #
plane-surface $-1 -60.405896176030765 0 0 1 0 0 0 0 -1 forward_v I I I I #
coedge $-1 $177 $113 $178 $179 forward $63 $-1 #
coedge $-1 $180 $65 $177 $181 forward $41 $-1 #
coedge $-1 $65 $180 $182 $183 forward $41 $-1 #
coedge $-1 $116 $115 $65 $109 reversed $117 $-1 #
edge $-1 $184 -38.342544431471559 $185 38.342544431471559 $108 $186 forward 7 unknown #
coedge $-1 $67 $66 $187 $188 forward $26 $-1 #
coedge $-1 $189 $190 $66 $112 reversed $174 $-1 #
edge $-1 $119 -60.405896176030765 $191 60.405896176030765 $111 $192 forward 7 unknown #
coedge $-1 $105 $193 $67 $114 reversed $63 $-1 #
edge $-1 $194 -60.405896176030765 $118 60.405896176030765 $113 $195 forward 7 unknown #
coedge $-1 $108 $68 $193 $196 forward $117 $-1 #
coedge $-1 $68 $108 $189 $197 reversed $117 $-1 #
loop $-1 $-1 $115 $173 #
vertex $-1 $69 $198 #
vertex $-1 $69 $199 #
straight-curve $-1 60.405896176030765 0 13.794282380930794 0 1 0 I I #
face $-1 $200 $136 $16 $-1 $201 reversed single #
loop $-1 $-1 $202 $70 #
plane-surface $-1 0 0 13.794282380930794 0 0 1 1 0 0 forward_v I I I I #
coedge $-1 $203 $204 $129 $205 reversed $71 $-1 #
coedge $-1 $206 $73 $202 $207 reversed $45 $-1 #
coedge $-1 $73 $206 $208 $209 reversed $45 $-1 #
coedge $-1 $204 $203 $73 $128 forward $71 $-1 #
edge $-1 $210 -13.794282380930794 $211 13.794282380930794 $127 $212 forward 7 unknown #
coedge $-1 $75 $74 $124 $205 forward $29 $-1 #
coedge $-1 $213 $214 $74 $131 forward $122 $-1 #
edge $-1 $215 21.843769570080095 $137 32.989340927327149 $130 $216 forward 7 unknown #
coedge $-1 $217 $218 $75 $133 forward $219 $-1 #
edge $-1 $138 -32.989340927327149 $220 -21.843769570080095 $132 $221 forward 7 unknown #
coedge $-1 $222 $76 $218 $223 reversed $136 $-1 #
coedge $-1 $76 $222 $213 $224 reversed $136 $-1 #
loop $-1 $-1 $76 $121 #
vertex $-1 $224 $225 #
vertex $-1 $77 $226 #
straight-curve $-1 -60.405896176030765 -16.191116870533875 0 0 0 -1 I I #
face $-1 $227 $228 $17 $-1 $229 forward single #
loop $-1 $-1 $149 $78 #
plane-surface $-1 0 -38.342544431471559 0 0 1 0 0 0 1 forward_v I I I I #
coedge $-1 $84 $230 $81 $146 forward $79 $-1 #
coedge $-1 $145 $81 $231 $232 reversed $49 $-1 #
coedge $-1 $81 $144 $82 $148 forward $49 $-1 #
edge $-1 $233 72.564780912681655 $152 77.876029583130901 $143 $234 forward 7 unknown #
coedge $-1 $83 $82 $235 $236 reversed $32 $-1 #
edge $-1 $237 114.73915463215859 $152 120.81179235206152 $145 $238 forward 7 unknown #
coedge $-1 $239 $240 $83 $150 forward $141 $-1 #
edge $-1 $153 -71.338861291332336 $241 -65.266223571429407 $149 $242 forward 7 unknown #
coedge $-1 $243 $84 $240 $244 forward $79 $-1 #
vertex $-1 $85 $245 #
vertex $-1 $244 $246 #
straight-curve $-1 60.405896176030765 -15.68215566986523 8.483033710481557 0 -1 0 I I #
face $-1 $247 $248 $18 $-1 $249 reversed single #
loop $-1 $-1 $250 $86 #
plane-surface $-1 107.49955403356772 -24.38607824798936 172.7181265872249 0 -1 0 -0.87461971476443456 0 -0.48480960649040278 forward_v I I I I #
loop $-1 $-1 $251 $52 #
coedge $-1 $159 $159 $-1 $252 forward $89 $-1 #
edge $-1 $253 0 $253 6.2831853071796004 $90 $254 forward 7 unknown #
vertex $-1 $93 $255 #
ellipse-curve $-1 58.933859624358305 -34.35498266476236 11.138658045706165 -0.87461971476443456 0 -0.48480960649040278 0.72721440973560414 0 -1.311929572146652 1 I I #
face $-1 $256 $170 $19 $-1 $257 forward single #
loop $-1 $258 $259 $94 #
cone-surface $-1 55.014226295422887 -34.35498266476236 8.9659698936906853 -0.87461971476443456 0 -0.48480960649040278 0.36360720486780207 0 -0.65596478607332598 1 I I -0.70710678118654757 0.70710678118654757 0.75 forward I I I I #
loop $-1 $-1 $260 $57 #
coedge $-1 $167 $167 $261 $262 reversed $95 $-1 #
coedge $-1 $168 $168 $-1 $263 forward $97 $-1 #
edge $-1 $264 0 $264 6.2831853071796004 $98 $265 forward 7 unknown #
loop $-1 $266 $100 $163 #
vertex $-1 $101 $267 #
ellipse-curve $-1 58.933859624358305 -28.373640014698559 11.138658045706165 -0.87461971476443456 0 -0.48480960649040278 0.72721440973560414 0 -1.311929572146652 1 I I #
face $-1 $-1 $117 $15 $-1 $268 reversed single #
loop $-1 $-1 $189 $102 #
plane-surface $-1 0 38.342544431471559 0 0 -1 0 0 0 -1 forward_v I I I I #
coedge $-1 $269 $187 $190 $270 forward $103 $-1 #
coedge $-1 $193 $105 $106 $181 reversed $63 $-1 #
coedge $-1 $187 $269 $105 $179 reversed $103 $-1 #
edge $-1 $194 -13.794282380930794 $271 13.794282380930794 $178 $272 forward 7 unknown #
coedge $-1 $107 $106 $269 $273 forward $41 $-1 #
edge $-1 $185 -60.405896176030765 $271 60.405896176030765 $177 $274 forward 7 unknown #
coedge $-1 $190 $189 $107 $183 reversed $174 $-1 #
edge $-1 $275 -60.405896176030765 $184 60.405896176030765 $182 $276 forward 7 unknown #
vertex $-1 $109 $277 #
vertex $-1 $196 $278 #
straight-curve $-1 60.405896176030765 0 -13.794282380930794 0 -1 0 I I #
coedge $-1 $176 $178 $110 $188 reversed $103 $-1 #
edge $-1 $191 -38.342544431471559 $194 38.342544431471559 $187 $279 forward 7 unknown #
coedge $-1 $182 $111 $116 $197 forward $174 $-1 #
coedge $-1 $111 $182 $176 $270 reversed $174 $-1 #
vertex $-1 $112 $280 #
straight-curve $-1 0 38.342544431471559 13.794282380930794 -1 0 0 I I #
coedge $-1 $113 $177 $115 $196 reversed $63 $-1 #
vertex $-1 $188 $281 #
straight-curve $-1 0 -38.342544431471559 13.794282380930794 1 0 0 I I #
edge $-1 $118 -13.794282380930794 $185 13.794282380930794 $115 $282 forward 7 unknown #
edge $-1 $119 -13.794282380930794 $184 13.794282380930794 $116 $283 forward 7 unknown #
point $-1 60.405896176030765 -38.342544431471559 13.794282380930794 #
point $-1 60.405896176030765 38.342544431471559 13.794282380930794 #
face $-1 $284 $219 $16 $-1 $285 reversed single #
plane-surface $-1 -60.405896176030765 0 0 1 0 0 0 0 -1 forward_v I I I I #
coedge $-1 $214 $286 $125 $207 forward $122 $-1 #
coedge $-1 $127 $124 $214 $287 reversed $71 $-1 #
coedge $-1 $124 $127 $217 $288 reversed $71 $-1 #
edge $-1 $215 -13.794282380930794 $220 13.794282380930794 $124 $289 forward 7 unknown #
coedge $-1 $126 $125 $290 $291 reversed $45 $-1 #
edge $-1 $292 -32.989340927327149 $210 -21.843769570080095 $202 $293 forward 7 unknown #
coedge $-1 $294 $217 $126 $209 forward $219 $-1 #
edge $-1 $211 21.843769570080095 $295 32.989340927327149 $208 $296 forward 7 unknown #
vertex $-1 $207 $297 #
vertex $-1 $209 $298 #
straight-curve $-1 -49.260324818783715 -10.753979669609974 0 0 0 -1 I I #
coedge $-1 $299 $130 $135 $224 forward $122 $-1 #
coedge $-1 $130 $202 $203 $287 forward $122 $-1 #
vertex $-1 $131 $300 #
straight-curve $-1 -27.41655524870362 -16.191116870533875 13.794282380930794 -1 0 0 I I #
coedge $-1 $208 $132 $204 $288 forward $219 $-1 #
coedge $-1 $132 $301 $134 $223 forward $219 $-1 #
loop $-1 $-1 $208 $200 #
vertex $-1 $133 $302 #
straight-curve $-1 -27.41655524870362 -16.191116870533875 -13.794282380930794 1 0 0 I I #
coedge $-1 $135 $134 $303 $304 reversed $136 $-1 #
edge $-1 $305 -38.342544431471559 $138 -16.191116870533875 $134 $306 forward 7 unknown #
edge $-1 $137 16.191116870533875 $307 38.342544431471559 $135 $308 forward 7 unknown #
point $-1 -60.405896176030765 -16.191116870533875 13.794282380930794 #
point $-1 -60.405896176030765 -16.191116870533875 -13.794282380930794 #
face $-1 $309 $310 $17 $-1 $311 forward single #
loop $-1 $-1 $312 $140 #
plane-surface $-1 -54.83311049740724 -16.191116870533875 0 0 1 0 0 0 1 forward_v I I I I #
coedge $-1 $143 $313 $314 $315 reversed $79 $-1 #
coedge $-1 $314 $235 $144 $232 forward $316 $-1 #
edge $-1 $237 3.7120460559019861 $233 6.6561191592469058 $231 $317 forward 7 unknown #
vertex $-1 $315 $318 #
straight-curve $-1 60.405896176030765 -24.38607824798936 86.359063293612451 0 0 -1 I I #
coedge $-1 $231 $319 $147 $236 forward $316 $-1 #
edge $-1 $241 -22.660388761606328 $237 -8.7039225781241303 $235 $320 forward 7 unknown #
vertex $-1 $236 $321 #
straight-curve $-1 1.8351786664275664 -24.38607824798936 114.14740907762169 0.48480960649040278 0 -0.87461971476443456 I I #
coedge $-1 $322 $149 $319 $323 reversed $141 $-1 #
coedge $-1 $149 $324 $151 $244 reversed $141 $-1 #
vertex $-1 $236 $325 #
straight-curve $-1 25.82013090590651 -38.342544431471559 70.877408224726196 -0.48480960649040278 0 0.87461971476443456 I I #
coedge $-1 $313 $151 $326 $327 reversed $79 $-1 #
edge $-1 $153 -8.4830337104815463 $328 13.794282380930794 $151 $329 forward 7 unknown #
point $-1 60.405896176030765 -24.38607824798936 8.4830337104815499 #
point $-1 60.405896176030765 -38.342544431471559 8.4830337104815463 #
face $-1 $330 $331 $18 $-1 $332 reversed single #
loop $-1 $-1 $333 $155 #
plane-surface $-1 60.405896176030765 0 0 -1 0 0 0 0 1 forward_v I I I I #
coedge $-1 $334 $335 $333 $336 reversed $156 $-1 #
coedge $-1 $337 $338 $339 $340 reversed $158 $-1 #
edge $-1 $341 1 $341 0 $159 $-1 forward 7 unknown #
vertex $-1 $160 $342 #
ellipse-curve $-1 55.670191081496213 -34.35498266476236 9.329577098558488 0.87461971476443456 0 0.48480960649040278 0.72721440973560414 0 -1.311929572146652 1 I I #
point $-1 59.661074034093907 -34.35498266476236 9.8267284735595162 #
face $-1 $343 $344 $19 $-1 $345 forward single #
plane-surface $-1 1.8351786664275664 -31.36431133973046 114.14740907762169 0.87461971476443456 0 0.48480960649040278 0.48480960649040278 0 -0.87461971476443456 forward_v I I I I #
loop $-1 $-1 $346 $94 #
coedge $-1 $259 $259 $260 $347 forward $164 $-1 #
coedge $-1 $260 $260 $259 $347 reversed $166 $-1 #
coedge $-1 $261 $261 $167 $262 forward $266 $-1 #
edge $-1 $348 0 $348 6.2831853071796004 $261 $349 forward 7 unknown #
edge $-1 $350 1 $350 0 $168 $-1 forward 7 unknown #
vertex $-1 $169 $351 #
ellipse-curve $-1 55.670191081496213 -28.373640014698559 9.329577098558488 0.87461971476443456 0 0.48480960649040278 0.72721440973560414 0 -1.311929572146652 1 I I #
loop $-1 $352 $261 $163 #
point $-1 59.661074034093907 -28.373640014698559 9.8267284735595162 #
plane-surface $-1 60.405896176030765 0 0 -1 0 0 0 0 1 forward_v I I I I #
coedge $-1 $178 $176 $180 $273 reversed $103 $-1 #
edge $-1 $191 -13.794282380930794 $275 13.794282380930794 $190 $353 forward 7 unknown #
vertex $-1 $273 $354 #
straight-curve $-1 -60.405896176030765 -38.342544431471559 0 0 0 -1 I I #
edge $-1 $271 -38.342544431471559 $275 38.342544431471559 $269 $355 forward 7 unknown #
straight-curve $-1 0 -38.342544431471559 -13.794282380930794 -1 0 0 I I #
vertex $-1 $183 $356 #
straight-curve $-1 0 38.342544431471559 -13.794282380930794 1 0 0 I I #
point $-1 60.405896176030765 38.342544431471559 -13.794282380930794 #
point $-1 60.405896176030765 -38.342544431471559 -13.794282380930794 #
straight-curve $-1 -60.405896176030765 0 13.794282380930794 0 -1 0 I I #
point $-1 -60.405896176030765 38.342544431471559 13.794282380930794 #
point $-1 -60.405896176030765 -38.342544431471559 13.794282380930794 #
straight-curve $-1 60.405896176030765 -38.342544431471559 0 0 0 -1 I I #
straight-curve $-1 60.405896176030765 38.342544431471559 0 0 0 -1 I I #
face $-1 $357 $358 $16 $-1 $359 reversed single #
plane-surface $-1 0 0 -13.794282380930794 0 0 1 1 0 0 forward_v I I I I #
coedge $-1 $202 $360 $361 $362 forward $122 $-1 #
edge $-1 $210 4.0177055345740111 $215 9.4548427354979125 $214 $363 forward 7 unknown #
edge $-1 $220 -9.4548427354979125 $211 -4.0177055345740111 $217 $364 forward 7 unknown #
straight-curve $-1 -49.260324818783715 -16.191116870533875 0 0 0 -1 I I #
coedge $-1 $361 $365 $206 $291 forward $366 $-1 #
edge $-1 $295 -13.794282380930794 $292 13.794282380930794 $290 $367 forward 7 unknown #
vertex $-1 $291 $368 #
straight-curve $-1 -27.41655524870362 -10.753979669609974 13.794282380930794 1 0 0 I I #
coedge $-1 $369 $208 $365 $370 forward $219 $-1 #
vertex $-1 $370 $371 #
straight-curve $-1 -27.41655524870362 -10.753979669609974 -13.794282380930794 -1 0 0 I I #
point $-1 -49.260324818783715 -10.753979669609974 13.794282380930794 #
point $-1 -49.260324818783715 -10.753979669609974 -13.794282380930794 #
coedge $-1 $372 $213 $373 $374 forward $122 $-1 #
point $-1 -49.260324818783715 -16.191116870533875 13.794282380930794 #
coedge $-1 $218 $375 $376 $377 forward $219 $-1 #
point $-1 -49.260324818783715 -16.191116870533875 -13.794282380930794 #
coedge $-1 $376 $373 $222 $304 forward $358 $-1 #
edge $-1 $307 -13.794282380930794 $305 13.794282380930794 $222 $378 forward 7 unknown #
vertex $-1 $223 $379 #
straight-curve $-1 -60.405896176030765 0 -13.794282380930794 0 1 0 I I #
vertex $-1 $224 $380 #
straight-curve $-1 -60.405896176030765 0 13.794282380930794 0 -1 0 I I #
face $-1 $381 $382 $17 $-1 $383 forward single #
loop $-1 $-1 $384 $227 #
plane-surface $-1 -54.83311049740724 -10.753979669609974 0 0 -1 0 0 0 -1 forward_v I I I I #
coedge $-1 $385 $386 $387 $388 reversed $228 $-1 #
coedge $-1 $230 $243 $389 $390 reversed $79 $-1 #
coedge $-1 $391 $231 $230 $315 forward $316 $-1 #
edge $-1 $233 -24.38607824798936 $392 38.342544431471559 $230 $393 forward 7 unknown #
loop $-1 $-1 $231 $381 #
straight-curve $-1 53.74977701678386 -24.38607824798936 13.794282380930795 1 0 0 I I #
point $-1 60.405896176030765 -24.38607824798936 13.794282380930794 #
coedge $-1 $235 $394 $239 $323 forward $316 $-1 #
straight-curve $-1 57.461823072685846 -15.68215566986523 13.794282380930802 0 1 0 I I #
point $-1 57.461823072685846 -24.38607824798936 13.794282380930795 #
coedge $-1 $324 $239 $395 $396 forward $141 $-1 #
edge $-1 $397 -60.405896176030765 $241 57.461823072685846 $239 $398 forward 7 unknown #
coedge $-1 $240 $322 $399 $400 reversed $141 $-1 #
point $-1 57.461823072685846 -38.342544431471559 13.794282380930795 #
coedge $-1 $399 $401 $243 $327 forward $402 $-1 #
edge $-1 $403 -38.342544431471559 $328 38.342544431471559 $243 $404 forward 7 unknown #
vertex $-1 $244 $405 #
straight-curve $-1 60.405896176030765 -38.342544431471559 0 0 0 -1 I I #
face $-1 $406 $407 $18 $-1 $408 forward single #
loop $-1 $-1 $409 $247 #
plane-surface $-1 0 -38.342544431471559 0 0 1 0 0 0 1 forward_v I I I I #
coedge $-1 $339 $410 $250 $336 forward $248 $-1 #
coedge $-1 $335 $250 $411 $412 reversed $156 $-1 #
coedge $-1 $250 $334 $337 $413 forward $156 $-1 #
edge $-1 $414 72.564780912681655 $415 77.876029583130901 $333 $416 forward 7 unknown #
coedge $-1 $417 $251 $335 $413 reversed $158 $-1 #
coedge $-1 $251 $417 $409 $418 reversed $158 $-1 #
coedge $-1 $419 $333 $251 $340 forward $248 $-1 #
edge $-1 $415 8.7039225781241303 $420 22.660388761606328 $339 $421 forward 7 unknown #
vertex $-1 $252 $422 #
point $-1 56.397405491231815 -34.35498266476236 8.0176475264118352 #
face $-1 $423 $424 $19 $-1 $425 reversed single #
loop $-1 $-1 $426 $256 #
plane-surface $-1 107.49955403356772 -24.38607824798936 172.7181265872249 0 -1 0 -0.87461971476443456 0 -0.48480960649040278 forward_v I I I I #
coedge $-1 $346 $346 $-1 $427 forward $258 $-1 #
edge $-1 $428 0 $428 6.2831853071796004 $259 $429 forward 7 unknown #
vertex $-1 $262 $430 #
ellipse-curve $-1 58.933859624358305 -34.35498266476236 11.138658045706165 -0.87461971476443456 0 -0.48480960649040278 0.72721440973560414 0 -1.311929572146652 1 I I #
vertex $-1 $263 $431 #
point $-1 56.397405491231815 -28.373640014698559 8.0176475264118352 #
loop $-1 $-1 $432 $163 #
straight-curve $-1 -60.405896176030765 38.342544431471559 0 0 0 -1 I I #
point $-1 -60.405896176030765 -38.342544431471559 -13.794282380930794 #
straight-curve $-1 -60.405896176030765 0 -13.794282380930794 0 1 0 I I #
point $-1 -60.405896176030765 38.342544431471559 -13.794282380930794 #
face $-1 $433 $366 $16 $-1 $201 reversed single #
loop $-1 $-1 $303 $284 #
plane-surface $-1 0 -38.342544431471559 0 0 1 0 0 0 1 forward_v I I I I #
coedge $-1 $286 $372 $434 $435 forward $122 $-1 #
coedge $-1 $436 $290 $286 $362 reversed $366 $-1 #
edge $-1 $437 -38.342544431471559 $292 10.753979669609974 $361 $308 forward 7 unknown #
straight-curve $-1 -49.260324818783715 -6.7362741350359627 13.794282380930794 0 -1 0 I I #
straight-curve $-1 -49.260324818783715 -6.7362741350359627 -13.794282380930794 0 1 0 I I #
coedge $-1 $290 $436 $294 $370 reversed $366 $-1 #
loop $-1 $-1 $290 $357 #
straight-curve $-1 -60.405896176030765 -10.753979669609974 0 0 0 1 I I #
point $-1 -60.405896176030765 -10.753979669609974 13.794282380930794 #
coedge $-1 $375 $294 $438 $439 forward $219 $-1 #
edge $-1 $295 -10.753979669609974 $440 38.342544431471559 $365 $306 forward 7 unknown #
point $-1 -60.405896176030765 -10.753979669609974 -13.794282380930794 #
coedge $-1 $360 $299 $441 $442 forward $122 $-1 #
coedge $-1 $303 $443 $299 $374 reversed $358 $-1 #
edge $-1 $307 -60.405896176030765 $444 60.405896176030765 $373 $445 forward 7 unknown #
coedge $-1 $301 $369 $446 $447 forward $219 $-1 #
coedge $-1 $443 $303 $301 $377 reversed $358 $-1 #
edge $-1 $448 -60.405896176030765 $305 60.405896176030765 $376 $449 forward 7 unknown #
straight-curve $-1 -60.405896176030765 -38.342544431471559 0 0 0 -1 I I #
point $-1 -60.405896176030765 -38.342544431471559 -13.794282380930794 #
point $-1 -60.405896176030765 -38.342544431471559 13.794282380930794 #
face $-1 $450 $316 $17 $-1 $451 forward single #
loop $-1 $-1 $452 $309 #
plane-surface $-1 -49.260324818783715 -13.472548270071925 0 -1 0 0 0 0 1 forward_v I I I I #
coedge $-1 $453 $454 $455 $456 reversed $310 $-1 #
coedge $-1 $457 $312 $458 $459 reversed $228 $-1 #
coedge $-1 $312 $457 $460 $461 reversed $228 $-1 #
coedge $-1 $462 $463 $312 $388 forward $464 $-1 #
edge $-1 $465 -13.794282380930794 $466 13.794282380930794 $387 $467 forward 7 unknown #
coedge $-1 $468 $469 $313 $390 forward $470 $-1 #
edge $-1 $392 -13.794282380930794 $403 13.794282380930794 $313 $471 forward 7 unknown #
coedge $-1 $472 $314 $469 $473 forward $316 $-1 #
vertex $-1 $315 $474 #
straight-curve $-1 60.405896176030765 0 13.794282380930794 0 1 0 I I #
coedge $-1 $319 $458 $463 $475 forward $316 $-1 #
coedge $-1 $463 $462 $322 $396 reversed $464 $-1 #
edge $-1 $397 -13.794282380930794 $476 13.794282380930794 $395 $477 forward 7 unknown #
vertex $-1 $475 $478 #
straight-curve $-1 0 -38.342544431471559 13.794282380930794 1 0 0 I I #
coedge $-1 $479 $326 $324 $400 forward $402 $-1 #
edge $-1 $328 -60.405896176030765 $476 60.405896176030765 $324 $480 forward 7 unknown #
coedge $-1 $326 $481 $468 $482 forward $402 $-1 #
loop $-1 $-1 $483 $484 #
vertex $-1 $327 $485 #
straight-curve $-1 60.405896176030765 0 -13.794282380930794 0 -1 0 I I #
point $-1 60.405896176030765 -38.342544431471559 -13.794282380930794 #
face $-1 $486 $487 $18 $-1 $488 forward single #
loop $-1 $-1 $489 $330 #
plane-surface $-1 -54.83311049740724 -16.191116870533875 0 0 1 0 0 0 1 forward_v I I I I #
coedge $-1 $490 $491 $338 $418 forward $331 $-1 #
coedge $-1 $333 $492 $493 $494 reversed $248 $-1 #
coedge $-1 $493 $495 $334 $412 forward $496 $-1 #
edge $-1 $497 3.7120460559019861 $414 6.6561191592469058 $411 $498 forward 7 unknown #
edge $-1 $497 114.73915463215859 $415 120.81179235206152 $335 $499 forward 7 unknown #
vertex $-1 $494 $500 #
vertex $-1 $340 $501 #
straight-curve $-1 60.405896176030765 -24.38607824798936 86.359063293612451 0 0 -1 I I #
coedge $-1 $338 $337 $495 $502 reversed $158 $-1 #
edge $-1 $420 -71.338861291332336 $503 -65.266223571429407 $409 $504 forward 7 unknown #
coedge $-1 $505 $339 $491 $506 forward $248 $-1 #
vertex $-1 $506 $507 #
straight-curve $-1 60.405896176030765 -15.68215566986523 8.483033710481557 0 -1 0 I I #
point $-1 54.35826150934956 -34.35498266476236 8.6023626888228826 #
face $-1 $508 $509 $19 $-1 $510 reversed single #
loop $-1 $-1 $511 $343 #
plane-surface $-1 60.405896176030765 0 0 -1 0 0 0 0 1 forward_v I I I I #
coedge $-1 $512 $513 $511 $514 reversed $344 $-1 #
edge $-1 $515 1 $515 0 $346 $-1 forward 7 unknown #
vertex $-1 $347 $516 #
ellipse-curve $-1 55.670191081496213 -34.35498266476236 9.329577098558488 0.87461971476443456 0 0.48480960649040278 0.72721440973560414 0 -1.311929572146652 1 I I #
point $-1 59.661074034093907 -34.35498266476236 9.8267284735595162 #
point $-1 54.35826150934956 -28.373640014698559 8.6023626888228826 #
coedge $-1 $517 $518 $519 $520 reversed $352 $-1 #
face $-1 $521 $522 $16 $-1 $523 reversed single #
coedge $-1 $524 $525 $360 $435 reversed $522 $-1 #
edge $-1 $526 -60.405896176030765 $437 60.405896176030765 $434 $527 forward 7 unknown #
coedge $-1 $365 $361 $525 $528 forward $366 $-1 #
vertex $-1 $435 $529 #
coedge $-1 $525 $524 $369 $439 reversed $522 $-1 #
edge $-1 $440 -60.405896176030765 $530 60.405896176030765 $438 $531 forward 7 unknown #
vertex $-1 $439 $532 #
coedge $-1 $533 $534 $372 $442 reversed $535 $-1 #
edge $-1 $444 -38.342544431471559 $526 38.342544431471559 $441 $536 forward 7 unknown #
coedge $-1 $373 $376 $533 $537 reversed $358 $-1 #
vertex $-1 $442 $538 #
straight-curve $-1 0 -38.342544431471559 13.794282380930794 1 0 0 I I #
coedge $-1 $534 $533 $375 $447 reversed $535 $-1 #
edge $-1 $530 -38.342544431471559 $448 38.342544431471559 $446 $539 forward 7 unknown #
vertex $-1 $537 $540 #
straight-curve $-1 0 -38.342544431471559 -13.794282380930794 -1 0 0 I I #
face $-1 $484 $464 $17 $-1 $541 reversed single #
plane-surface $-1 0 0 13.794282380930794 0 0 1 1 0 0 forward_v I I I I #
coedge $-1 $542 $543 $457 $544 reversed $382 $-1 #
coedge $-1 $545 $384 $546 $547 reversed $310 $-1 #
coedge $-1 $384 $545 $483 $548 reversed $310 $-1 #
coedge $-1 $543 $542 $384 $456 forward $382 $-1 #
edge $-1 $549 -13.794282380930794 $550 13.794282380930794 $455 $551 forward 7 unknown #
coedge $-1 $386 $385 $452 $544 forward $228 $-1 #
coedge $-1 $394 $552 $385 $459 forward $316 $-1 #
edge $-1 $553 21.843769570080095 $465 32.989340927327149 $458 $554 forward 7 unknown #
coedge $-1 $555 $479 $386 $461 forward $402 $-1 #
edge $-1 $466 -32.989340927327149 $556 -21.843769570080095 $460 $557 forward 7 unknown #
coedge $-1 $395 $387 $479 $558 reversed $464 $-1 #
coedge $-1 $387 $395 $394 $475 reversed $464 $-1 #
loop $-1 $-1 $387 $450 #
vertex $-1 $475 $559 #
vertex $-1 $388 $560 #
straight-curve $-1 -60.405896176030765 -16.191116870533875 0 0 0 -1 I I #
coedge $-1 $561 $389 $401 $482 reversed $470 $-1 #
coedge $-1 $389 $561 $391 $473 reversed $470 $-1 #
loop $-1 $-1 $389 $562 #
straight-curve $-1 60.405896176030765 38.342544431471559 0 0 0 -1 I I #
coedge $-1 $546 $391 $563 $564 forward $316 $-1 #
edge $-1 $392 -60.405896176030765 $565 60.405896176030765 $469 $566 forward 7 unknown #
point $-1 60.405896176030765 38.342544431471559 13.794282380930794 #
edge $-1 $465 16.191116870533875 $397 38.342544431471559 $463 $567 forward 7 unknown #
vertex $-1 $558 $568 #
straight-curve $-1 -60.405896176030765 -38.342544431471559 0 0 0 -1 I I #
point $-1 -60.405896176030765 -38.342544431471559 13.794282380930794 #
coedge $-1 $460 $399 $462 $558 forward $402 $-1 #
straight-curve $-1 0 -38.342544431471559 -13.794282380930794 -1 0 0 I I #
coedge $-1 $401 $483 $569 $570 forward $402 $-1 #
edge $-1 $571 -60.405896176030765 $403 60.405896176030765 $468 $572 forward 7 unknown #
coedge $-1 $481 $555 $454 $548 forward $402 $-1 #
face $-1 $573 $402 $17 $-1 $574 reversed single #
point $-1 60.405896176030765 38.342544431471559 -13.794282380930794 #
face $-1 $575 $576 $18 $-1 $577 forward single #
loop $-1 $-1 $578 $406 #
plane-surface $-1 -54.83311049740724 -10.753979669609974 0 0 -1 0 0 0 -1 forward_v I I I I #
coedge $-1 $579 $580 $581 $582 reversed $407 $-1 #
coedge $-1 $583 $409 $584 $585 reversed $331 $-1 #
coedge $-1 $409 $586 $419 $506 reversed $331 $-1 #
coedge $-1 $410 $505 $587 $588 reversed $248 $-1 #
coedge $-1 $589 $411 $410 $494 forward $496 $-1 #
edge $-1 $414 -24.38607824798936 $590 38.342544431471559 $410 $591 forward 7 unknown #
coedge $-1 $411 $584 $417 $502 forward $496 $-1 #
loop $-1 $-1 $411 $575 #
vertex $-1 $502 $592 #
straight-curve $-1 53.74977701678386 -24.38607824798936 13.794282380930795 1 0 0 I I #
straight-curve $-1 1.8351786664275664 -24.38607824798936 114.14740907762169 0.48480960649040278 0 -0.87461971476443456 I I #
point $-1 60.405896176030765 -24.38607824798936 13.794282380930794 #
point $-1 60.405896176030765 -24.38607824798936 8.4830337104815499 #
edge $-1 $503 -22.660388761606328 $497 -8.7039225781241303 $495 $593 forward 7 unknown #
vertex $-1 $502 $594 #
straight-curve $-1 25.82013090590651 -38.342544431471559 70.877408224726196 -0.48480960649040278 0 0.87461971476443456 I I #
coedge $-1 $492 $419 $595 $596 reversed $248 $-1 #
edge $-1 $420 -8.4830337104815463 $597 13.794282380930794 $419 $598 forward 7 unknown #
point $-1 60.405896176030765 -38.342544431471559 8.4830337104815463 #
face $-1 $599 $600 $19 $-1 $601 forward single #
loop $-1 $-1 $602 $423 #
plane-surface $-1 0 -38.342544431471559 0 0 1 0 0 0 1 forward_v I I I I #
coedge $-1 $519 $603 $426 $514 forward $424 $-1 #
coedge $-1 $513 $426 $604 $605 reversed $344 $-1 #
coedge $-1 $426 $512 $517 $606 forward $344 $-1 #
edge $-1 $607 72.564780912681655 $608 77.876029583130901 $511 $609 forward 7 unknown #
vertex $-1 $427 $610 #
point $-1 56.397405491231815 -34.35498266476236 8.0176475264118352 #
coedge $-1 $611 $432 $513 $606 reversed $352 $-1 #
coedge $-1 $432 $611 $602 $612 reversed $352 $-1 #
coedge $-1 $613 $511 $432 $520 forward $424 $-1 #
edge $-1 $608 8.7039225781241303 $614 22.660388761606328 $519 $615 forward 7 unknown #
face $-1 $-1 $535 $16 $-1 $616 reversed single #
loop $-1 $-1 $524 $433 #
plane-surface $-1 0 38.342544431471559 0 0 -1 0 0 0 -1 forward_v I I I I #
coedge $-1 $438 $434 $534 $617 forward $522 $-1 #
coedge $-1 $434 $438 $436 $528 reversed $522 $-1 #
vertex $-1 $442 $618 #
straight-curve $-1 0 38.342544431471559 13.794282380930794 -1 0 0 I I #
edge $-1 $437 -13.794282380930794 $440 13.794282380930794 $525 $619 forward 7 unknown #
point $-1 -60.405896176030765 38.342544431471559 13.794282380930794 #
vertex $-1 $447 $620 #
straight-curve $-1 0 38.342544431471559 -13.794282380930794 1 0 0 I I #
point $-1 -60.405896176030765 38.342544431471559 -13.794282380930794 #
coedge $-1 $446 $441 $443 $537 forward $535 $-1 #
coedge $-1 $441 $446 $524 $617 reversed $535 $-1 #
loop $-1 $-1 $533 $521 #
straight-curve $-1 60.405896176030765 0 13.794282380930794 0 1 0 I I #
edge $-1 $444 -13.794282380930794 $448 13.794282380930794 $533 $621 forward 7 unknown #
point $-1 60.405896176030765 -38.342544431471559 13.794282380930794 #
straight-curve $-1 60.405896176030765 0 -13.794282380930794 0 -1 0 I I #
point $-1 60.405896176030765 -38.342544431471559 -13.794282380930794 #
plane-surface $-1 -60.405896176030765 0 0 1 0 0 0 0 -1 forward_v I I I I #
coedge $-1 $455 $452 $552 $622 reversed $382 $-1 #
coedge $-1 $452 $455 $555 $623 reversed $382 $-1 #
edge $-1 $553 -13.794282380930794 $556 13.794282380930794 $452 $624 forward 7 unknown #
coedge $-1 $454 $453 $625 $626 reversed $310 $-1 #
coedge $-1 $552 $472 $453 $547 forward $316 $-1 #
edge $-1 $627 -32.989340927327149 $549 -21.843769570080095 $546 $628 forward 7 unknown #
edge $-1 $550 21.843769570080095 $629 32.989340927327149 $483 $630 forward 7 unknown #
vertex $-1 $547 $631 #
vertex $-1 $548 $632 #
straight-curve $-1 -49.260324818783715 -10.753979669609974 0 0 0 -1 I I #
coedge $-1 $458 $546 $542 $622 forward $316 $-1 #
vertex $-1 $459 $633 #
straight-curve $-1 -27.41655524870362 -16.191116870533875 13.794282380930794 -1 0 0 I I #
coedge $-1 $483 $460 $543 $623 forward $402 $-1 #
vertex $-1 $461 $634 #
straight-curve $-1 -27.41655524870362 -16.191116870533875 -13.794282380930794 1 0 0 I I #
edge $-1 $476 -38.342544431471559 $466 -16.191116870533875 $462 $635 forward 7 unknown #
point $-1 -60.405896176030765 -16.191116870533875 13.794282380930794 #
point $-1 -60.405896176030765 -16.191116870533875 -13.794282380930794 #
coedge $-1 $469 $468 $636 $637 reversed $470 $-1 #
face $-1 $-1 $470 $17 $-1 $638 reversed single #
coedge $-1 $636 $625 $472 $564 reversed $639 $-1 #
edge $-1 $565 -38.342544431471559 $627 10.753979669609974 $563 $567 forward 7 unknown #
vertex $-1 $473 $640 #
straight-curve $-1 0 38.342544431471559 13.794282380930794 -1 0 0 I I #
straight-curve $-1 -60.405896176030765 0 13.794282380930794 0 -1 0 I I #
point $-1 -60.405896176030765 -38.342544431471559 -13.794282380930794 #
coedge $-1 $625 $636 $481 $570 reversed $639 $-1 #
edge $-1 $629 -10.753979669609974 $571 38.342544431471559 $569 $635 forward 7 unknown #
vertex $-1 $482 $641 #
straight-curve $-1 0 38.342544431471559 -13.794282380930794 1 0 0 I I #
face $-1 $562 $639 $17 $-1 $541 reversed single #
plane-surface $-1 0 0 -13.794282380930794 0 0 1 1 0 0 forward_v I I I I #
face $-1 $642 $496 $18 $-1 $643 forward single #
loop $-1 $-1 $644 $486 #
plane-surface $-1 -49.260324818783715 -13.472548270071925 0 -1 0 0 0 0 1 forward_v I I I I #
coedge $-1 $645 $646 $647 $648 reversed $487 $-1 #
coedge $-1 $649 $489 $650 $651 reversed $407 $-1 #
coedge $-1 $489 $649 $652 $653 reversed $407 $-1 #
coedge $-1 $654 $655 $489 $582 forward $656 $-1 #
edge $-1 $657 -13.794282380930794 $658 13.794282380930794 $581 $659 forward 7 unknown #
coedge $-1 $586 $490 $660 $661 forward $331 $-1 #
coedge $-1 $495 $662 $490 $585 forward $496 $-1 #
edge $-1 $663 -60.405896176030765 $503 57.461823072685846 $490 $664 forward 7 unknown #
coedge $-1 $491 $583 $665 $666 reversed $331 $-1 #
coedge $-1 $667 $668 $492 $588 forward $669 $-1 #
edge $-1 $590 -13.794282380930794 $670 13.794282380930794 $492 $671 forward 7 unknown #
coedge $-1 $672 $493 $668 $673 forward $496 $-1 #
vertex $-1 $494 $674 #
straight-curve $-1 60.405896176030765 0 13.794282380930794 0 1 0 I I #
point $-1 57.461823072685846 -24.38607824798936 13.794282380930795 #
straight-curve $-1 57.461823072685846 -15.68215566986523 13.794282380930802 0 1 0 I I #
point $-1 57.461823072685846 -38.342544431471559 13.794282380930795 #
coedge $-1 $665 $675 $505 $596 forward $676 $-1 #
edge $-1 $670 -38.342544431471559 $597 38.342544431471559 $505 $677 forward 7 unknown #
vertex $-1 $506 $678 #
straight-curve $-1 60.405896176030765 -38.342544431471559 0 0 0 -1 I I #
face $-1 $679 $680 $19 $-1 $681 forward single #
loop $-1 $-1 $682 $508 #
plane-surface $-1 -54.83311049740724 -16.191116870533875 0 0 1 0 0 0 1 forward_v I I I I #
coedge $-1 $683 $684 $518 $612 forward $509 $-1 #
coedge $-1 $511 $685 $686 $687 reversed $424 $-1 #
coedge $-1 $686 $688 $512 $605 forward $689 $-1 #
edge $-1 $690 3.7120460559019861 $607 6.6561191592469058 $604 $691 forward 7 unknown #
edge $-1 $690 114.73915463215859 $608 120.81179235206152 $513 $692 forward 7 unknown #
vertex $-1 $687 $693 #
vertex $-1 $520 $694 #
straight-curve $-1 60.405896176030765 -24.38607824798936 86.359063293612451 0 0 -1 I I #
point $-1 54.35826150934956 -34.35498266476236 8.6023626888228826 #
coedge $-1 $518 $517 $688 $695 reversed $352 $-1 #
edge $-1 $614 -71.338861291332336 $696 -65.266223571429407 $602 $697 forward 7 unknown #
coedge $-1 $698 $519 $684 $699 forward $424 $-1 #
vertex $-1 $699 $700 #
straight-curve $-1 60.405896176030765 -15.68215566986523 8.483033710481557 0 -1 0 I I #
plane-surface $-1 60.405896176030765 0 0 -1 0 0 0 0 1 forward_v I I I I #
edge $-1 $526 -13.794282380930794 $530 13.794282380930794 $534 $701 forward 7 unknown #
point $-1 60.405896176030765 38.342544431471559 13.794282380930794 #
straight-curve $-1 -60.405896176030765 38.342544431471559 0 0 0 -1 I I #
point $-1 60.405896176030765 38.342544431471559 -13.794282380930794 #
straight-curve $-1 60.405896176030765 -38.342544431471559 0 0 0 -1 I I #
edge $-1 $549 4.0177055345740111 $553 9.4548427354979125 $552 $702 forward 7 unknown #
edge $-1 $556 -9.4548427354979125 $550 -4.0177055345740111 $555 $703 forward 7 unknown #
straight-curve $-1 -49.260324818783715 -16.191116870533875 0 0 0 -1 I I #
coedge $-1 $563 $569 $545 $626 forward $639 $-1 #
edge $-1 $629 -13.794282380930794 $627 13.794282380930794 $625 $704 forward 7 unknown #
vertex $-1 $626 $705 #
straight-curve $-1 -27.41655524870362 -10.753979669609974 13.794282380930794 1 0 0 I I #
vertex $-1 $570 $706 #
straight-curve $-1 -27.41655524870362 -10.753979669609974 -13.794282380930794 -1 0 0 I I #
point $-1 -49.260324818783715 -10.753979669609974 13.794282380930794 #
point $-1 -49.260324818783715 -10.753979669609974 -13.794282380930794 #
point $-1 -49.260324818783715 -16.191116870533875 13.794282380930794 #
point $-1 -49.260324818783715 -16.191116870533875 -13.794282380930794 #
straight-curve $-1 -60.405896176030765 0 -13.794282380930794 0 1 0 I I #
coedge $-1 $569 $563 $561 $637 forward $639 $-1 #
edge $-1 $565 -13.794282380930794 $571 13.794282380930794 $561 $707 forward 7 unknown #
plane-surface $-1 0 38.342544431471559 0 0 -1 0 0 0 -1 forward_v I I I I #
loop $-1 $-1 $625 $573 #
point $-1 -60.405896176030765 38.342544431471559 13.794282380930794 #
point $-1 -60.405896176030765 38.342544431471559 -13.794282380930794 #
face $-1 $708 $656 $18 $-1 $709 reversed single #
plane-surface $-1 0 0 13.794282380930794 0 0 1 1 0 0 forward_v I I I I #
coedge $-1 $710 $711 $649 $712 reversed $576 $-1 #
coedge $-1 $713 $578 $714 $715 reversed $487 $-1 #
coedge $-1 $578 $713 $716 $717 reversed $487 $-1 #
coedge $-1 $711 $710 $578 $648 forward $576 $-1 #
edge $-1 $718 -13.794282380930794 $719 13.794282380930794 $647 $720 forward 7 unknown #
coedge $-1 $580 $579 $644 $712 forward $407 $-1 #
coedge $-1 $662 $721 $579 $651 forward $496 $-1 #
edge $-1 $722 21.843769570080095 $657 32.989340927327149 $650 $723 forward 7 unknown #
coedge $-1 $724 $725 $580 $653 forward $676 $-1 #
edge $-1 $658 -32.989340927327149 $726 -21.843769570080095 $652 $727 forward 7 unknown #
coedge $-1 $660 $581 $725 $728 reversed $656 $-1 #
coedge $-1 $581 $660 $662 $729 reversed $656 $-1 #
loop $-1 $-1 $581 $642 #
vertex $-1 $729 $730 #
vertex $-1 $582 $731 #
straight-curve $-1 -60.405896176030765 -16.191116870533875 0 0 0 -1 I I #
coedge $-1 $655 $654 $583 $661 reversed $656 $-1 #
edge $-1 $663 -13.794282380930794 $732 13.794282380930794 $660 $733 forward 7 unknown #
coedge $-1 $584 $650 $655 $729 forward $496 $-1 #
vertex $-1 $729 $734 #
straight-curve $-1 0 -38.342544431471559 13.794282380930794 1 0 0 I I #
coedge $-1 $725 $595 $586 $666 forward $676 $-1 #
edge $-1 $597 -60.405896176030765 $732 60.405896176030765 $586 $735 forward 7 unknown #
coedge $-1 $736 $587 $675 $737 reversed $669 $-1 #
coedge $-1 $587 $736 $589 $673 reversed $669 $-1 #
loop $-1 $-1 $587 $738 #
vertex $-1 $596 $739 #
straight-curve $-1 60.405896176030765 38.342544431471559 0 0 0 -1 I I #
coedge $-1 $714 $589 $740 $741 forward $496 $-1 #
edge $-1 $590 -60.405896176030765 $742 60.405896176030765 $668 $743 forward 7 unknown #
point $-1 60.405896176030765 38.342544431471559 13.794282380930794 #
coedge $-1 $595 $744 $667 $737 forward $676 $-1 #
loop $-1 $-1 $716 $708 #
straight-curve $-1 60.405896176030765 0 -13.794282380930794 0 -1 0 I I #
point $-1 60.405896176030765 -38.342544431471559 -13.794282380930794 #
face $-1 $745 $746 $19 $-1 $747 forward single #
loop $-1 $-1 $748 $599 #
plane-surface $-1 -54.83311049740724 -10.753979669609974 0 0 -1 0 0 0 -1 forward_v I I I I #
coedge $-1 $749 $750 $751 $752 reversed $600 $-1 #
coedge $-1 $753 $602 $754 $755 reversed $509 $-1 #
coedge $-1 $602 $756 $613 $699 reversed $509 $-1 #
coedge $-1 $603 $698 $757 $758 reversed $424 $-1 #
coedge $-1 $759 $604 $603 $687 forward $689 $-1 #
edge $-1 $607 -24.38607824798936 $760 38.342544431471559 $603 $761 forward 7 unknown #
coedge $-1 $604 $754 $611 $695 forward $689 $-1 #
loop $-1 $-1 $604 $745 #
vertex $-1 $695 $762 #
straight-curve $-1 53.74977701678386 -24.38607824798936 13.794282380930795 1 0 0 I I #
straight-curve $-1 1.8351786664275664 -24.38607824798936 114.14740907762169 0.48480960649040278 0 -0.87461971476443456 I I #
point $-1 60.405896176030765 -24.38607824798936 13.794282380930794 #
point $-1 60.405896176030765 -24.38607824798936 8.4830337104815499 #
edge $-1 $696 -22.660388761606328 $690 -8.7039225781241303 $688 $763 forward 7 unknown #
vertex $-1 $695 $764 #
straight-curve $-1 25.82013090590651 -38.342544431471559 70.877408224726196 -0.48480960649040278 0 0.87461971476443456 I I #
coedge $-1 $685 $613 $765 $766 reversed $424 $-1 #
edge $-1 $614 -8.4830337104815463 $767 13.794282380930794 $613 $768 forward 7 unknown #
point $-1 60.405896176030765 -38.342544431471559 8.4830337104815463 #
straight-curve $-1 60.405896176030765 38.342544431471559 0 0 0 -1 I I #
straight-curve $-1 -49.260324818783715 -6.7362741350359627 13.794282380930794 0 -1 0 I I #
straight-curve $-1 -49.260324818783715 -6.7362741350359627 -13.794282380930794 0 1 0 I I #
straight-curve $-1 -60.405896176030765 -10.753979669609974 0 0 0 1 I I #
point $-1 -60.405896176030765 -10.753979669609974 13.794282380930794 #
point $-1 -60.405896176030765 -10.753979669609974 -13.794282380930794 #
straight-curve $-1 -60.405896176030765 38.342544431471559 0 0 0 -1 I I #
face $-1 $769 $676 $18 $-1 $770 reversed single #
plane-surface $-1 -60.405896176030765 0 0 1 0 0 0 0 -1 forward_v I I I I #
coedge $-1 $647 $644 $721 $771 reversed $576 $-1 #
coedge $-1 $644 $647 $724 $772 reversed $576 $-1 #
edge $-1 $722 -13.794282380930794 $726 13.794282380930794 $644 $773 forward 7 unknown #
coedge $-1 $646 $645 $774 $775 reversed $487 $-1 #
coedge $-1 $721 $672 $645 $715 forward $496 $-1 #
edge $-1 $776 -32.989340927327149 $718 -21.843769570080095 $714 $777 forward 7 unknown #
coedge $-1 $744 $724 $646 $717 forward $676 $-1 #
edge $-1 $719 21.843769570080095 $778 32.989340927327149 $716 $779 forward 7 unknown #
vertex $-1 $715 $780 #
vertex $-1 $717 $781 #
straight-curve $-1 -49.260324818783715 -10.753979669609974 0 0 0 -1 I I #
coedge $-1 $650 $714 $710 $771 forward $496 $-1 #
vertex $-1 $651 $782 #
straight-curve $-1 -27.41655524870362 -16.191116870533875 13.794282380930794 -1 0 0 I I #
coedge $-1 $716 $652 $711 $772 forward $676 $-1 #
coedge $-1 $652 $665 $654 $728 forward $676 $-1 #
vertex $-1 $653 $783 #
straight-curve $-1 -27.41655524870362 -16.191116870533875 -13.794282380930794 1 0 0 I I #
edge $-1 $732 -38.342544431471559 $658 -16.191116870533875 $654 $784 forward 7 unknown #
edge $-1 $657 16.191116870533875 $663 38.342544431471559 $655 $785 forward 7 unknown #
point $-1 -60.405896176030765 -16.191116870533875 13.794282380930794 #
point $-1 -60.405896176030765 -16.191116870533875 -13.794282380930794 #
vertex $-1 $728 $786 #
straight-curve $-1 -60.405896176030765 -38.342544431471559 0 0 0 -1 I I #
point $-1 -60.405896176030765 -38.342544431471559 13.794282380930794 #
straight-curve $-1 0 -38.342544431471559 -13.794282380930794 -1 0 0 I I #
coedge $-1 $668 $667 $787 $788 reversed $669 $-1 #
edge $-1 $789 -60.405896176030765 $670 60.405896176030765 $667 $790 forward 7 unknown #
face $-1 $-1 $669 $18 $-1 $791 reversed single #
point $-1 60.405896176030765 38.342544431471559 -13.794282380930794 #
coedge $-1 $787 $774 $672 $741 reversed $792 $-1 #
edge $-1 $742 -38.342544431471559 $776 10.753979669609974 $740 $785 forward 7 unknown #
vertex $-1 $673 $793 #
straight-curve $-1 0 38.342544431471559 13.794282380930794 -1 0 0 I I #
coedge $-1 $675 $716 $794 $795 forward $676 $-1 #
face $-1 $796 $689 $19 $-1 $797 forward single #
loop $-1 $-1 $798 $679 #
plane-surface $-1 -49.260324818783715 -13.472548270071925 0 -1 0 0 0 0 1 forward_v I I I I #
coedge $-1 $799 $800 $801 $802 reversed $680 $-1 #
coedge $-1 $803 $682 $804 $805 reversed $600 $-1 #
coedge $-1 $682 $803 $806 $807 reversed $600 $-1 #
coedge $-1 $808 $809 $682 $752 forward $810 $-1 #
edge $-1 $811 -13.794282380930794 $812 13.794282380930794 $751 $813 forward 7 unknown #
coedge $-1 $756 $683 $814 $815 forward $509 $-1 #
coedge $-1 $688 $816 $683 $755 forward $689 $-1 #
edge $-1 $817 -60.405896176030765 $696 57.461823072685846 $683 $818 forward 7 unknown #
coedge $-1 $684 $753 $819 $820 reversed $509 $-1 #
coedge $-1 $821 $822 $685 $758 forward $823 $-1 #
edge $-1 $760 -13.794282380930794 $824 13.794282380930794 $685 $825 forward 7 unknown #
coedge $-1 $826 $686 $822 $827 forward $689 $-1 #
vertex $-1 $687 $828 #
straight-curve $-1 60.405896176030765 0 13.794282380930794 0 1 0 I I #
point $-1 57.461823072685846 -24.38607824798936 13.794282380930795 #
straight-curve $-1 57.461823072685846 -15.68215566986523 13.794282380930802 0 1 0 I I #
point $-1 57.461823072685846 -38.342544431471559 13.794282380930795 #
coedge $-1 $819 $829 $698 $766 forward $830 $-1 #
edge $-1 $824 -38.342544431471559 $767 38.342544431471559 $698 $831 forward 7 unknown #
vertex $-1 $699 $832 #
straight-curve $-1 60.405896176030765 -38.342544431471559 0 0 0 -1 I I #
face $-1 $738 $792 $18 $-1 $709 reversed single #
plane-surface $-1 0 0 -13.794282380930794 0 0 1 1 0 0 forward_v I I I I #
edge $-1 $718 4.0177055345740111 $722 9.4548427354979125 $721 $833 forward 7 unknown #
edge $-1 $726 -9.4548427354979125 $719 -4.0177055345740111 $724 $834 forward 7 unknown #
straight-curve $-1 -49.260324818783715 -16.191116870533875 0 0 0 -1 I I #
coedge $-1 $740 $794 $713 $775 forward $792 $-1 #
edge $-1 $778 -13.794282380930794 $776 13.794282380930794 $774 $835 forward 7 unknown #
vertex $-1 $775 $836 #
straight-curve $-1 -27.41655524870362 -10.753979669609974 13.794282380930794 1 0 0 I I #
vertex $-1 $795 $837 #
straight-curve $-1 -27.41655524870362 -10.753979669609974 -13.794282380930794 -1 0 0 I I #
point $-1 -49.260324818783715 -10.753979669609974 13.794282380930794 #
point $-1 -49.260324818783715 -10.753979669609974 -13.794282380930794 #
point $-1 -49.260324818783715 -16.191116870533875 13.794282380930794 #
point $-1 -49.260324818783715 -16.191116870533875 -13.794282380930794 #
straight-curve $-1 -60.405896176030765 0 -13.794282380930794 0 1 0 I I #
straight-curve $-1 -60.405896176030765 0 13.794282380930794 0 -1 0 I I #
point $-1 -60.405896176030765 -38.342544431471559 -13.794282380930794 #
coedge $-1 $794 $740 $736 $788 forward $792 $-1 #
edge $-1 $742 -13.794282380930794 $789 13.794282380930794 $736 $838 forward 7 unknown #
vertex $-1 $737 $839 #
straight-curve $-1 0 38.342544431471559 -13.794282380930794 1 0 0 I I #
plane-surface $-1 0 38.342544431471559 0 0 -1 0 0 0 -1 forward_v I I I I #
loop $-1 $-1 $774 $769 #
point $-1 -60.405896176030765 38.342544431471559 13.794282380930794 #
coedge $-1 $774 $787 $744 $795 reversed $792 $-1 #
edge $-1 $778 -10.753979669609974 $789 38.342544431471559 $794 $784 forward 7 unknown #
face $-1 $840 $810 $19 $-1 $841 reversed single #
plane-surface $-1 0 0 13.794282380930794 0 0 1 1 0 0 forward_v I I I I #
coedge $-1 $842 $843 $803 $844 reversed $746 $-1 #
coedge $-1 $845 $748 $846 $847 reversed $680 $-1 #
coedge $-1 $748 $845 $848 $849 reversed $680 $-1 #
coedge $-1 $843 $842 $748 $802 forward $746 $-1 #
edge $-1 $850 -13.794282380930794 $851 13.794282380930794 $801 $852 forward 7 unknown #
coedge $-1 $750 $749 $798 $844 forward $600 $-1 #
coedge $-1 $816 $853 $749 $805 forward $689 $-1 #
edge $-1 $854 21.843769570080095 $811 32.989340927327149 $804 $855 forward 7 unknown #
coedge $-1 $856 $857 $750 $807 forward $830 $-1 #
edge $-1 $812 -32.989340927327149 $858 -21.843769570080095 $806 $859 forward 7 unknown #
coedge $-1 $814 $751 $857 $860 reversed $810 $-1 #
coedge $-1 $751 $814 $816 $861 reversed $810 $-1 #
loop $-1 $-1 $751 $796 #
vertex $-1 $861 $862 #
vertex $-1 $752 $863 #
straight-curve $-1 -60.405896176030765 -16.191116870533875 0 0 0 -1 I I #
coedge $-1 $809 $808 $753 $815 reversed $810 $-1 #
edge $-1 $817 -13.794282380930794 $864 13.794282380930794 $814 $865 forward 7 unknown #
coedge $-1 $754 $804 $809 $861 forward $689 $-1 #
vertex $-1 $861 $866 #
straight-curve $-1 0 -38.342544431471559 13.794282380930794 1 0 0 I I #
coedge $-1 $857 $765 $756 $820 forward $830 $-1 #
edge $-1 $767 -60.405896176030765 $864 60.405896176030765 $756 $867 forward 7 unknown #
coedge $-1 $868 $757 $829 $869 reversed $823 $-1 #
coedge $-1 $757 $868 $759 $827 reversed $823 $-1 #
loop $-1 $-1 $757 $870 #
vertex $-1 $766 $871 #
straight-curve $-1 60.405896176030765 38.342544431471559 0 0 0 -1 I I #
coedge $-1 $846 $759 $872 $873 forward $689 $-1 #
edge $-1 $760 -60.405896176030765 $874 60.405896176030765 $822 $875 forward 7 unknown #
point $-1 60.405896176030765 38.342544431471559 13.794282380930794 #
coedge $-1 $765 $876 $821 $869 forward $830 $-1 #
loop $-1 $-1 $848 $840 #
straight-curve $-1 60.405896176030765 0 -13.794282380930794 0 -1 0 I I #
point $-1 60.405896176030765 -38.342544431471559 -13.794282380930794 #
straight-curve $-1 -49.260324818783715 -6.7362741350359627 13.794282380930794 0 -1 0 I I #
straight-curve $-1 -49.260324818783715 -6.7362741350359627 -13.794282380930794 0 1 0 I I #
straight-curve $-1 -60.405896176030765 -10.753979669609974 0 0 0 1 I I #
point $-1 -60.405896176030765 -10.753979669609974 13.794282380930794 #
point $-1 -60.405896176030765 -10.753979669609974 -13.794282380930794 #
straight-curve $-1 -60.405896176030765 38.342544431471559 0 0 0 -1 I I #
point $-1 -60.405896176030765 38.342544431471559 -13.794282380930794 #
face $-1 $877 $830 $19 $-1 $878 reversed single #
plane-surface $-1 -60.405896176030765 0 0 1 0 0 0 0 -1 forward_v I I I I #
coedge $-1 $801 $798 $853 $879 reversed $746 $-1 #
coedge $-1 $798 $801 $856 $880 reversed $746 $-1 #
edge $-1 $854 -13.794282380930794 $858 13.794282380930794 $798 $881 forward 7 unknown #
coedge $-1 $800 $799 $882 $883 reversed $680 $-1 #
coedge $-1 $853 $826 $799 $847 forward $689 $-1 #
edge $-1 $884 -32.989340927327149 $850 -21.843769570080095 $846 $885 forward 7 unknown #
coedge $-1 $876 $856 $800 $849 forward $830 $-1 #
edge $-1 $851 21.843769570080095 $886 32.989340927327149 $848 $887 forward 7 unknown #
vertex $-1 $847 $888 #
vertex $-1 $849 $889 #
straight-curve $-1 -49.260324818783715 -10.753979669609974 0 0 0 -1 I I #
coedge $-1 $804 $846 $842 $879 forward $689 $-1 #
vertex $-1 $805 $890 #
straight-curve $-1 -27.41655524870362 -16.191116870533875 13.794282380930794 -1 0 0 I I #
coedge $-1 $848 $806 $843 $880 forward $830 $-1 #
coedge $-1 $806 $819 $808 $860 forward $830 $-1 #
vertex $-1 $807 $891 #
straight-curve $-1 -27.41655524870362 -16.191116870533875 -13.794282380930794 1 0 0 I I #
edge $-1 $864 -38.342544431471559 $812 -16.191116870533875 $808 $892 forward 7 unknown #
edge $-1 $811 16.191116870533875 $817 38.342544431471559 $809 $893 forward 7 unknown #
point $-1 -60.405896176030765 -16.191116870533875 13.794282380930794 #
point $-1 -60.405896176030765 -16.191116870533875 -13.794282380930794 #
vertex $-1 $860 $894 #
straight-curve $-1 -60.405896176030765 -38.342544431471559 0 0 0 -1 I I #
point $-1 -60.405896176030765 -38.342544431471559 13.794282380930794 #
straight-curve $-1 0 -38.342544431471559 -13.794282380930794 -1 0 0 I I #
coedge $-1 $822 $821 $895 $896 reversed $823 $-1 #
edge $-1 $897 -60.405896176030765 $824 60.405896176030765 $821 $898 forward 7 unknown #
face $-1 $-1 $823 $19 $-1 $899 reversed single #
point $-1 60.405896176030765 38.342544431471559 -13.794282380930794 #
coedge $-1 $895 $882 $826 $873 reversed $900 $-1 #
edge $-1 $874 -38.342544431471559 $884 10.753979669609974 $872 $893 forward 7 unknown #
vertex $-1 $827 $901 #
straight-curve $-1 0 38.342544431471559 13.794282380930794 -1 0 0 I I #
coedge $-1 $829 $848 $902 $903 forward $830 $-1 #
face $-1 $870 $900 $19 $-1 $841 reversed single #
plane-surface $-1 0 0 -13.794282380930794 0 0 1 1 0 0 forward_v I I I I #
edge $-1 $850 4.0177055345740111 $854 9.4548427354979125 $853 $904 forward 7 unknown #
edge $-1 $858 -9.4548427354979125 $851 -4.0177055345740111 $856 $905 forward 7 unknown #
straight-curve $-1 -49.260324818783715 -16.191116870533875 0 0 0 -1 I I #
coedge $-1 $872 $902 $845 $883 forward $900 $-1 #
edge $-1 $886 -13.794282380930794 $884 13.794282380930794 $882 $906 forward 7 unknown #
vertex $-1 $883 $907 #
straight-curve $-1 -27.41655524870362 -10.753979669609974 13.794282380930794 1 0 0 I I #
vertex $-1 $903 $908 #
straight-curve $-1 -27.41655524870362 -10.753979669609974 -13.794282380930794 -1 0 0 I I #
point $-1 -49.260324818783715 -10.753979669609974 13.794282380930794 #
point $-1 -49.260324818783715 -10.753979669609974 -13.794282380930794 #
point $-1 -49.260324818783715 -16.191116870533875 13.794282380930794 #
point $-1 -49.260324818783715 -16.191116870533875 -13.794282380930794 #
straight-curve $-1 -60.405896176030765 0 -13.794282380930794 0 1 0 I I #
straight-curve $-1 -60.405896176030765 0 13.794282380930794 0 -1 0 I I #
point $-1 -60.405896176030765 -38.342544431471559 -13.794282380930794 #
coedge $-1 $902 $872 $868 $896 forward $900 $-1 #
edge $-1 $874 -13.794282380930794 $897 13.794282380930794 $868 $909 forward 7 unknown #
vertex $-1 $869 $910 #
straight-curve $-1 0 38.342544431471559 -13.794282380930794 1 0 0 I I #
plane-surface $-1 0 38.342544431471559 0 0 -1 0 0 0 -1 forward_v I I I I #
loop $-1 $-1 $882 $877 #
point $-1 -60.405896176030765 38.342544431471559 13.794282380930794 #
coedge $-1 $882 $895 $876 $903 reversed $900 $-1 #
edge $-1 $886 -10.753979669609974 $897 38.342544431471559 $902 $892 forward 7 unknown #
straight-curve $-1 -49.260324818783715 -6.7362741350359627 13.794282380930794 0 -1 0 I I #
straight-curve $-1 -49.260324818783715 -6.7362741350359627 -13.794282380930794 0 1 0 I I #
straight-curve $-1 -60.405896176030765 -10.753979669609974 0 0 0 1 I I #
point $-1 -60.405896176030765 -10.753979669609974 13.794282380930794 #
point $-1 -60.405896176030765 -10.753979669609974 -13.794282380930794 #
straight-curve $-1 -60.405896176030765 38.342544431471559 0 0 0 -1 I I #
point $-1 -60.405896176030765 38.342544431471559 -13.794282380930794 #
End-of-ACIS-data 