500 0 8 0           
7 Unknown 11 ACIS 5.0 NT 24 Thu Mar 25 18:45:05 1999 
-1 9.9999999999999995e-007 1e-010 
body $-1 $8 $-1 $9 #
body $-1 $10 $-1 $11 #
body $-1 $12 $-1 $13 #
body $-1 $14 $-1 $15 #
body $-1 $16 $-1 $17 #
body $-1 $18 $-1 $19 #
body $-1 $20 $-1 $21 #
body $-1 $22 $-1 $23 #
lump $-1 $-1 $24 $0 #
transform $-1 1 0 0 0 1 0 0 0 1 50.75594347972045 25.850415441185177 5.5149183367902159 1 rotate no_reflect no_shear #
lump $-1 $-1 $25 $1 #
transform $-1 1 0 0 0 1 0 0 0 1 50.75594347972045 25.850415441185177 5.5149183367902159 1 rotate no_reflect no_shear #
lump $-1 $-1 $26 $2 #
transform $-1 1 0 0 0 1 0 0 0 1 50.75594347972045 25.850415441185177 5.5149183367902159 1 rotate no_reflect no_shear #
lump $-1 $-1 $27 $3 #
transform $-1 1 0 0 0 1 0 0 0 1 50.75594347972045 25.850415441185177 5.5149183367902159 1 rotate no_reflect no_shear #
lump $-1 $-1 $28 $4 #
transform $-1 1 0 0 0 1 0 0 0 1 50.75594347972045 25.850415441185177 5.5149183367902159 1 rotate no_reflect no_shear #
lump $-1 $-1 $29 $5 #
transform $-1 1 0 0 0 1 0 0 0 1 50.75594347972045 25.850415441185177 5.5149183367902159 1 rotate no_reflect no_shear #
lump $-1 $-1 $30 $6 #
transform $-1 1 0 0 0 1 0 0 0 1 50.75594347972045 25.850415441185177 5.5149183367902159 1 rotate no_reflect no_shear #
lump $-1 $-1 $31 $7 #
transform $-1 1 0 0 0 1 0 0 0 1 50.75594347972045 25.850415441185177 5.5149183367902159 1 rotate no_reflect no_shear #
shell $-1 $-1 $-1 $32 $-1 $8 #
shell $-1 $-1 $-1 $33 $-1 $10 #
shell $-1 $-1 $-1 $34 $-1 $12 #
shell $-1 $-1 $-1 $35 $-1 $14 #
shell $-1 $-1 $-1 $36 $-1 $16 #
shell $-1 $-1 $-1 $37 $-1 $18 #
shell $-1 $-1 $-1 $38 $-1 $20 #
shell $-1 $-1 $-1 $39 $-1 $22 #
face $-1 $40 $41 $24 $-1 $42 forward single #
face $-1 $43 $44 $25 $-1 $45 reversed single #
face $-1 $46 $47 $26 $-1 $48 reversed single #
face $-1 $49 $50 $27 $-1 $51 forward single #
face $-1 $52 $53 $28 $-1 $54 forward single #
face $-1 $55 $56 $29 $-1 $57 reversed single #
face $-1 $58 $59 $30 $-1 $60 forward single #
face $-1 $61 $62 $31 $-1 $63 forward single #
face $-1 $64 $65 $24 $-1 $66 reversed single #
loop $-1 $-1 $67 $32 #
plane-surface $-1 0 0 5.5149183367902159 0 0 1 1 0 0 forward_v I I I I #
face $-1 $68 $69 $25 $-1 $70 reversed single #
loop $-1 $-1 $71 $33 #
plane-surface $-1 0 -23.669918018023594 2.5149183367902159 0 0 1 1 0 0 forward_v I I I I #
face $-1 $72 $73 $26 $-1 $74 reversed single #
loop $-1 $-1 $75 $34 #
plane-surface $-1 50.755945145376806 11.718670843963723 144.36944648323103 0 -1 0 -0.70710678939079041 0 -0.70710677298230451 forward_v I I I I #
face $-1 $76 $77 $27 $-1 $78 forward single #
loop $-1 $79 $80 $35 #
cone-surface $-1 47.325475167643447 5.7061660824038931 2.0844499951385349 -0.70710678939079041 0 -0.70710677298230451 0.70710677298230451 0 -0.70710678939079041 1 I I 0 1 1 forward I I I I #
face $-1 $81 $82 $28 $-1 $83 forward single #
loop $-1 $84 $85 $36 #
cone-surface $-1 47.325475167643447 9.3136689393397916 2.0844499951385349 -0.70710678939079041 0 -0.70710677298230451 0.70710677298230451 0 -0.70710678939079041 1 I I 0 1 1 forward I I I I #
face $-1 $86 $87 $29 $-1 $88 reversed single #
loop $-1 $-1 $89 $37 #
plane-surface $-1 -50.755943479720472 -18.208446145411685 0.72967707229422274 -0.84804810408105047 0 0.52991925155115449 0.52991925155115449 0 0.84804810408105047 forward_v I I I I #
face $-1 $90 $91 $30 $-1 $92 forward single #
loop $-1 $93 $94 $38 #
cone-surface $-1 -48.836844173593242 -19.614578052318969 2.8573380787666385 0.84804810408105047 0 -0.52991925155115449 0.26495962577557725 0 0.42402405204052523 1 I I 0 1 0.5 forward I I I I #
face $-1 $95 $96 $31 $-1 $97 forward single #
loop $-1 $98 $99 $39 #
cone-surface $-1 -48.836844173593242 -16.802314238504405 2.8573380787666385 0.84804810408105047 0 -0.52991925155115449 0.26495962577557725 0 0.42402405204052523 1 I I 0 1 0.5 forward I I I I #
face $-1 $100 $101 $24 $-1 $102 reversed single #
loop $-1 $-1 $103 $40 #
plane-surface $-1 0 0 -5.5149183367902159 0 0 1 1 0 0 forward_v I I I I #
coedge $-1 $104 $105 $106 $107 forward $41 $-1 #
face $-1 $108 $109 $25 $-1 $110 reversed single #
loop $-1 $-1 $111 $43 #
plane-surface $-1 0 -21.489420594862011 4.0149183367902159 0 -1 0 0 0 -1 forward_v I I I I #
coedge $-1 $112 $113 $114 $115 reversed $44 $-1 #
face $-1 $116 $117 $26 $-1 $118 reversed single #
loop $-1 $-1 $119 $46 #
plane-surface $-1 -21.02379932751429 7.5099175108718441 72.58970367599629 0.70710678939079041 0 0.70710677298230451 0.70710677298230451 0 -0.70710678939079041 forward_v I I I I #
coedge $-1 $120 $121 $122 $123 reversed $47 $-1 #
face $-1 $-1 $124 $27 $-1 $125 forward single #
loop $-1 $126 $127 $49 #
cone-surface $-1 45.893932973124059 5.7061660824038931 0.65290783383822859 -0.70710678939079041 0 -0.70710677298230451 0.35355338649115226 0 -0.35355339469539521 1 I I -0.70710678118654735 0.70710678118654768 0.5 forward I I I I #
loop $-1 $-1 $128 $35 #
coedge $-1 $80 $80 $129 $130 reversed $50 $-1 #
face $-1 $-1 $131 $28 $-1 $132 forward single #
loop $-1 $133 $134 $52 #
cone-surface $-1 45.893932973124059 9.3136689393397916 0.65290783383822859 -0.70710678939079041 0 -0.70710677298230451 0.35355338649115226 0 -0.35355339469539521 1 I I -0.70710678118654735 0.70710678118654768 0.5 forward I I I I #
loop $-1 $-1 $135 $36 #
coedge $-1 $85 $85 $136 $137 reversed $53 $-1 #
face $-1 $138 $139 $29 $-1 $140 forward single #
loop $-1 $-1 $141 $55 #
plane-surface $-1 -136.84290675736423 -14.927471695961357 54.522780233386541 0 -1 0 0.84804810408105047 0 -0.52991925155115449 forward_v I I I I #
coedge $-1 $142 $143 $144 $145 reversed $56 $-1 #
face $-1 $-1 $146 $30 $-1 $147 forward single #
loop $-1 $148 $149 $58 #
cone-surface $-1 -48.200808095532452 -19.614578052318969 2.4598986401032725 0.84804810408105047 0 -0.52991925155115449 0.13247981288778862 0 0.21201202602026262 1 I I -0.70710678118654746 0.70710678118654746 0.25 forward I I I I #
loop $-1 $-1 $150 $38 #
coedge $-1 $94 $94 $151 $152 reversed $59 $-1 #
face $-1 $-1 $153 $31 $-1 $154 forward single #
loop $-1 $155 $156 $61 #
cone-surface $-1 -48.200808095532452 -16.802314238504405 2.4598986401032725 0.84804810408105047 0 -0.52991925155115449 0.13247981288778862 0 0.21201202602026262 1 I I -0.70710678118654746 0.70710678118654746 0.25 forward I I I I #
loop $-1 $-1 $157 $39 #
coedge $-1 $99 $99 $158 $159 reversed $62 $-1 #
face $-1 $160 $161 $24 $-1 $162 reversed single #
loop $-1 $-1 $163 $64 #
plane-surface $-1 0 -25.850415441185177 0 0 1 0 0 0 1 forward_v I I I I #
coedge $-1 $164 $165 $166 $167 forward $65 $-1 #
coedge $-1 $168 $67 $169 $170 forward $41 $-1 #
coedge $-1 $67 $168 $171 $172 forward $41 $-1 #
coedge $-1 $173 $174 $67 $107 reversed $175 $-1 #
edge $-1 $176 -25.850415441185177 $177 25.850415441185177 $106 $178 forward 7 unknown #
face $-1 $179 $180 $25 $-1 $181 reversed single #
loop $-1 $-1 $182 $68 #
plane-surface $-1 -50.75594347972045 0 0 1 0 0 0 0 -1 forward_v I I I I #
coedge $-1 $183 $184 $185 $186 reversed $69 $-1 #
coedge $-1 $187 $71 $188 $189 reversed $44 $-1 #
coedge $-1 $71 $187 $190 $191 forward $44 $-1 #
coedge $-1 $192 $193 $71 $115 forward $194 $-1 #
edge $-1 $195 -14.01545643217338 $196 -9.6544615858502141 $114 $197 forward 7 unknown #
face $-1 $198 $199 $26 $-1 $200 reversed single #
loop $-1 $-1 $201 $72 #
plane-surface $-1 50.755945145376806 3.301164177779965 144.36944648323103 0 1 0 0.70710678939079041 0 0.70710677298230451 forward_v I I I I #
coedge $-1 $202 $203 $204 $205 reversed $73 $-1 #
coedge $-1 $121 $75 $206 $207 reversed $47 $-1 #
coedge $-1 $75 $120 $202 $208 reversed $47 $-1 #
coedge $-1 $204 $209 $75 $123 forward $210 $-1 #
edge $-1 $211 -25.377970907032047 $212 -20.673011882526065 $122 $213 forward 7 unknown #
loop $-1 $-1 $129 $76 #
plane-surface $-1 -21.02379932751429 7.5099175108718441 72.58970367599629 0.70710678939079041 0 0.70710677298230451 0.70710677298230451 0 -0.70710678939079041 forward_v I I I I #
loop $-1 $-1 $214 $49 #
coedge $-1 $127 $127 $128 $215 reversed $77 $-1 #
coedge $-1 $128 $128 $127 $215 forward $79 $-1 #
coedge $-1 $129 $129 $80 $130 forward $124 $-1 #
edge $-1 $216 0 $216 6.2831853071796004 $129 $217 forward 7 unknown #
loop $-1 $-1 $136 $81 #
plane-surface $-1 -21.02379932751429 7.5099175108718441 72.58970367599629 0.70710678939079041 0 0.70710677298230451 0.70710677298230451 0 -0.70710678939079041 forward_v I I I I #
loop $-1 $-1 $218 $52 #
coedge $-1 $134 $134 $135 $219 reversed $82 $-1 #
coedge $-1 $135 $135 $134 $219 forward $84 $-1 #
coedge $-1 $136 $136 $85 $137 forward $131 $-1 #
edge $-1 $220 0 $220 6.2831853071796004 $136 $221 forward 7 unknown #
face $-1 $222 $223 $29 $-1 $224 reversed single #
loop $-1 $-1 $144 $86 #
plane-surface $-1 0 0 5.5149183367902159 0 0 1 1 0 0 forward_v I I I I #
coedge $-1 $225 $226 $227 $228 reversed $87 $-1 #
coedge $-1 $229 $89 $230 $231 reversed $56 $-1 #
coedge $-1 $89 $229 $225 $232 forward $56 $-1 #
coedge $-1 $227 $233 $89 $145 forward $139 $-1 #
edge $-1 $234 -12.385197522156169 $235 -5.8232486232555143 $144 $236 forward 7 unknown #
loop $-1 $-1 $151 $90 #
plane-surface $-1 -50.755943479720472 -18.208446145411685 0.72967707229422274 -0.84804810408105047 0 0.52991925155115449 0.52991925155115449 0 0.84804810408105047 forward_v I I I I #
loop $-1 $-1 $237 $58 #
coedge $-1 $149 $149 $150 $238 reversed $91 $-1 #
coedge $-1 $150 $150 $149 $238 forward $93 $-1 #
coedge $-1 $151 $151 $94 $152 forward $146 $-1 #
edge $-1 $239 0 $239 6.2831853071796004 $151 $240 forward 7 unknown #
loop $-1 $-1 $158 $95 #
plane-surface $-1 -50.755943479720472 -18.208446145411685 0.72967707229422274 -0.84804810408105047 0 0.52991925155115449 0.52991925155115449 0 0.84804810408105047 forward_v I I I I #
loop $-1 $-1 $241 $61 #
coedge $-1 $156 $156 $157 $242 reversed $96 $-1 #
coedge $-1 $157 $157 $156 $242 forward $98 $-1 #
coedge $-1 $158 $158 $99 $159 forward $153 $-1 #
edge $-1 $243 0 $243 6.2831853071796004 $158 $244 forward 7 unknown #
face $-1 $245 $246 $24 $-1 $247 reversed single #
loop $-1 $-1 $248 $100 #
plane-surface $-1 -50.75594347972045 0 0 1 0 0 0 0 -1 forward_v I I I I #
coedge $-1 $249 $171 $250 $251 forward $101 $-1 #
coedge $-1 $252 $103 $249 $253 forward $65 $-1 #
coedge $-1 $103 $252 $254 $255 forward $65 $-1 #
coedge $-1 $174 $173 $103 $167 reversed $175 $-1 #
edge $-1 $256 -25.850415441185177 $257 25.850415441185177 $166 $258 forward 7 unknown #
coedge $-1 $105 $104 $259 $260 forward $41 $-1 #
coedge $-1 $261 $262 $104 $170 reversed $246 $-1 #
edge $-1 $177 -50.75594347972045 $263 50.75594347972045 $169 $264 forward 7 unknown #
coedge $-1 $163 $265 $105 $172 reversed $101 $-1 #
edge $-1 $266 -50.75594347972045 $176 50.75594347972045 $171 $267 forward 7 unknown #
coedge $-1 $166 $106 $265 $268 forward $175 $-1 #
coedge $-1 $106 $166 $261 $269 reversed $175 $-1 #
loop $-1 $-1 $173 $245 #
vertex $-1 $107 $270 #
vertex $-1 $107 $271 #
straight-curve $-1 50.75594347972045 0 5.5149183367902159 0 1 0 I I #
face $-1 $272 $273 $25 $-1 $274 forward single #
loop $-1 $-1 $188 $108 #
plane-surface $-1 0 -25.850415441185177 0 0 1 0 0 0 1 forward_v I I I I #
coedge $-1 $275 $276 $184 $277 forward $109 $-1 #
coedge $-1 $190 $111 $192 $278 reversed $69 $-1 #
coedge $-1 $111 $190 $182 $277 reversed $69 $-1 #
coedge $-1 $279 $280 $111 $186 forward $273 $-1 #
edge $-1 $281 -50.75594347972045 $282 50.75594347972045 $185 $283 forward 7 unknown #
coedge $-1 $113 $112 $275 $284 reversed $44 $-1 #
coedge $-1 $285 $286 $112 $189 forward $180 $-1 #
edge $-1 $287 -50.75594347972045 $195 50.75594347972045 $188 $288 forward 7 unknown #
coedge $-1 $184 $183 $113 $191 reversed $69 $-1 #
edge $-1 $289 -50.75594347972045 $196 50.75594347972045 $190 $290 forward 7 unknown #
coedge $-1 $291 $114 $183 $278 forward $194 $-1 #
coedge $-1 $114 $291 $285 $292 forward $194 $-1 #
loop $-1 $-1 $192 $272 #
vertex $-1 $189 $293 #
vertex $-1 $115 $294 #
straight-curve $-1 50.75594347972045 -11.834959009011797 2.5149183367902159 0 1 0 I I #
face $-1 $-1 $210 $26 $-1 $295 forward single #
loop $-1 $-1 $296 $116 #
plane-surface $-1 50.75594347972045 0 0 -1 0 0 0 0 1 forward_v I I I I #
coedge $-1 $297 $298 $299 $300 reversed $117 $-1 #
coedge $-1 $301 $119 $121 $208 forward $73 $-1 #
coedge $-1 $119 $301 $297 $302 forward $73 $-1 #
coedge $-1 $299 $122 $119 $205 forward $210 $-1 #
edge $-1 $212 -7.9637120885278012 $303 0.4537945776559571 $204 $304 forward 7 unknown #
coedge $-1 $305 $306 $120 $207 forward $199 $-1 #
edge $-1 $307 -71.374764038510321 $211 -66.669804904825298 $206 $308 forward 7 unknown #
edge $-1 $212 94.858070019373642 $307 101.51188695944093 $121 $309 forward 7 unknown #
coedge $-1 $122 $299 $305 $310 forward $210 $-1 #
loop $-1 $-1 $299 $198 #
vertex $-1 $207 $311 #
vertex $-1 $123 $312 #
straight-curve $-1 25.377972572688403 11.718670843963723 5.5149183367902168 -1 0 0 I I #
coedge $-1 $214 $214 $-1 $313 reversed $126 $-1 #
edge $-1 $314 0 $314 6.2831853071796004 $127 $315 forward 7 unknown #
vertex $-1 $130 $316 #
ellipse-curve $-1 48.403463967467452 5.7061660824038931 3.1624387699476983 0.70710678939079041 0 0.70710677298230451 0.70710677298230451 0 -0.70710678939079041 1 I I #
coedge $-1 $218 $218 $-1 $317 reversed $133 $-1 #
edge $-1 $318 0 $318 6.2831853071796004 $134 $319 forward 7 unknown #
vertex $-1 $137 $320 #
ellipse-curve $-1 48.403463967467452 9.3136689393397916 3.1624387699476983 0.70710678939079041 0 0.70710677298230451 0.70710677298230451 0 -0.70710678939079041 1 I I #
face $-1 $-1 $321 $29 $-1 $322 forward single #
loop $-1 $-1 $323 $138 #
plane-surface $-1 -50.75594347972045 0 0 1 0 0 0 0 -1 forward_v I I I I #
coedge $-1 $226 $141 $143 $232 reversed $87 $-1 #
coedge $-1 $141 $225 $323 $324 reversed $87 $-1 #
coedge $-1 $325 $144 $141 $228 forward $139 $-1 #
edge $-1 $235 -20.655660407135016 $326 -17.665509898961666 $227 $327 forward 7 unknown #
coedge $-1 $143 $142 $328 $329 reversed $56 $-1 #
coedge $-1 $330 $331 $142 $231 forward $321 $-1 #
edge $-1 $332 -14.841297103175375 $234 -9.1986440019326423 $230 $333 forward 7 unknown #
edge $-1 $334 4.0200649947886212e-014 $235 5.6426531012427734 $225 $335 forward 7 unknown #
coedge $-1 $144 $325 $330 $336 forward $139 $-1 #
vertex $-1 $231 $337 #
vertex $-1 $145 $338 #
straight-curve $-1 -47.7657929715471 -9.1042230727058424 5.5149183367902168 0 1 0 I I #
coedge $-1 $237 $237 $-1 $339 reversed $148 $-1 #
edge $-1 $340 0 $340 6.2831853071796004 $149 $341 forward 7 unknown #
vertex $-1 $152 $342 #
ellipse-curve $-1 -49.260868225633786 -19.614578052318969 3.1222977045422251 -0.84804810408105047 0 0.52991925155115449 0.26495962577557725 0 0.42402405204052523 1 I I #
coedge $-1 $241 $241 $-1 $343 reversed $155 $-1 #
edge $-1 $344 0 $344 6.2831853071796004 $156 $345 forward 7 unknown #
vertex $-1 $159 $346 #
ellipse-curve $-1 -49.260868225633786 -16.802314238504405 3.1222977045422251 -0.84804810408105047 0 0.52991925155115449 0.26495962577557725 0 0.42402405204052523 1 I I #
face $-1 $-1 $175 $24 $-1 $347 reversed single #
loop $-1 $-1 $261 $160 #
plane-surface $-1 0 25.850415441185177 0 0 -1 0 0 0 -1 forward_v I I I I #
coedge $-1 $348 $259 $262 $349 forward $161 $-1 #
coedge $-1 $265 $163 $164 $253 reversed $101 $-1 #
coedge $-1 $259 $348 $163 $251 reversed $161 $-1 #
edge $-1 $266 -5.5149183367902159 $350 5.5149183367902159 $250 $351 forward 7 unknown #
coedge $-1 $165 $164 $348 $352 forward $65 $-1 #
edge $-1 $257 -50.75594347972045 $350 50.75594347972045 $249 $353 forward 7 unknown #
coedge $-1 $262 $261 $165 $255 reversed $246 $-1 #
edge $-1 $354 -50.75594347972045 $256 50.75594347972045 $254 $355 forward 7 unknown #
vertex $-1 $167 $356 #
vertex $-1 $268 $357 #
straight-curve $-1 50.75594347972045 0 -5.5149183367902159 0 -1 0 I I #
coedge $-1 $248 $250 $168 $260 reversed $161 $-1 #
edge $-1 $263 -25.850415441185177 $266 25.850415441185177 $259 $358 forward 7 unknown #
coedge $-1 $254 $169 $174 $269 forward $246 $-1 #
coedge $-1 $169 $254 $248 $349 reversed $246 $-1 #
vertex $-1 $170 $359 #
straight-curve $-1 0 25.850415441185177 5.5149183367902159 -1 0 0 I I #
coedge $-1 $171 $249 $173 $268 reversed $101 $-1 #
vertex $-1 $260 $360 #
straight-curve $-1 0 -25.850415441185177 5.5149183367902159 1 0 0 I I #
edge $-1 $176 -5.5149183367902159 $257 5.5149183367902159 $173 $361 forward 7 unknown #
edge $-1 $177 -5.5149183367902159 $256 5.5149183367902159 $174 $362 forward 7 unknown #
point $-1 50.75594347972045 -25.850415441185177 5.5149183367902159 #
point $-1 50.75594347972045 25.850415441185177 5.5149183367902159 #
face $-1 $-1 $194 $25 $-1 $363 reversed single #
loop $-1 $-1 $185 $179 #
plane-surface $-1 0 0 5.5149183367902159 0 0 1 1 0 0 forward_v I I I I #
coedge $-1 $364 $182 $187 $284 forward $109 $-1 #
coedge $-1 $182 $364 $279 $365 reversed $109 $-1 #
edge $-1 $282 -3.507459168395108 $289 -0.50745916839510796 $182 $366 forward 7 unknown #
edge $-1 $196 0.50745916839510796 $281 3.507459168395108 $192 $367 forward 7 unknown #
coedge $-1 $368 $185 $276 $365 forward $273 $-1 #
coedge $-1 $185 $368 $291 $369 forward $273 $-1 #
vertex $-1 $278 $370 #
vertex $-1 $365 $371 #
straight-curve $-1 0 -21.489420594862011 5.5149183367902159 -1 0 0 I I #
edge $-1 $289 9.6544615858502141 $287 14.01545643217338 $275 $372 forward 7 unknown #
coedge $-1 $373 $188 $193 $292 reversed $180 $-1 #
coedge $-1 $188 $373 $364 $374 forward $180 $-1 #
vertex $-1 $189 $375 #
straight-curve $-1 0 -25.850415441185177 2.5149183367902159 1 0 0 I I #
vertex $-1 $284 $376 #
straight-curve $-1 0 -21.489420594862011 2.5149183367902159 1 0 0 I I #
coedge $-1 $193 $192 $280 $369 reversed $194 $-1 #
edge $-1 $377 -5.5149183367902159 $195 -2.5149183367902159 $193 $378 forward 7 unknown #
point $-1 50.75594347972045 -25.850415441185177 2.5149183367902159 #
point $-1 50.75594347972045 -21.489420594862011 2.5149183367902159 #
plane-surface $-1 0 0 5.5149183367902159 0 0 1 1 0 0 forward_v I I I I #
coedge $-1 $306 $305 $298 $379 forward $199 $-1 #
coedge $-1 $298 $201 $203 $302 reversed $117 $-1 #
coedge $-1 $201 $297 $296 $379 reversed $117 $-1 #
coedge $-1 $209 $204 $201 $300 forward $210 $-1 #
edge $-1 $303 20.673011882526065 $380 25.377970907032047 $299 $381 forward 7 unknown #
coedge $-1 $203 $202 $306 $382 reversed $73 $-1 #
edge $-1 $383 -101.51188695944093 $303 -94.858070019373642 $297 $384 forward 7 unknown #
vertex $-1 $205 $385 #
straight-curve $-1 46.050984455214483 3.7549587554359221 5.5149183367902097 0 -1 0 I I #
coedge $-1 $296 $206 $209 $310 reversed $199 $-1 #
coedge $-1 $206 $296 $301 $382 forward $199 $-1 #
vertex $-1 $207 $386 #
straight-curve $-1 50.75594347972045 11.718670843963723 72.184723241615515 0 0 1 I I #
straight-curve $-1 -21.02379932751429 11.718670843963723 72.58970367599629 0.70710677298230451 0 -0.70710678939079041 I I #
edge $-1 $380 3.301164177779965 $211 11.718670843963723 $305 $387 forward 7 unknown #
point $-1 50.75594347972045 11.718670843963723 5.5149183367902159 #
point $-1 46.050984455214468 11.718670843963723 5.5149183367902168 #
edge $-1 $388 1 $388 0 $214 $-1 forward 7 unknown #
vertex $-1 $215 $389 #
ellipse-curve $-1 46.247486367819455 5.7061660824038931 1.006461220329381 0.70710678939079041 0 0.70710677298230451 0.70710677298230451 0 -0.70710678939079041 1 I I #
point $-1 49.110570740449752 5.7061660824038931 2.4553319805568985 #
edge $-1 $390 1 $390 0 $218 $-1 forward 7 unknown #
vertex $-1 $219 $391 #
ellipse-curve $-1 46.247486367819455 9.3136689393397916 1.006461220329381 0.70710678939079041 0 0.70710677298230451 0.70710677298230451 0 -0.70710678939079041 1 I I #
point $-1 49.110570740449752 9.3136689393397916 2.4553319805568985 #
loop $-1 $-1 $230 $222 #
plane-surface $-1 0 -21.489420594862011 4.0149183367902159 0 -1 0 0 0 -1 forward_v I I I I #
coedge $-1 $328 $392 $226 $324 forward $223 $-1 #
edge $-1 $326 21.746471779903054 $334 26.531713044399012 $323 $393 forward 7 unknown #
coedge $-1 $233 $227 $392 $394 forward $139 $-1 #
vertex $-1 $394 $395 #
straight-curve $-1 -68.421453378682116 -14.927471695961357 5.5149183367902168 -1 0 0 I I #
coedge $-1 $396 $323 $229 $329 forward $223 $-1 #
edge $-1 $334 5.8232486232555143 $332 12.385197522156169 $328 $397 forward 7 unknown #
coedge $-1 $331 $230 $233 $336 reversed $321 $-1 #
coedge $-1 $230 $330 $396 $398 reversed $321 $-1 #
vertex $-1 $398 $399 #
straight-curve $-1 -42.891254426757442 -21.489420594862011 13.315810942745722 0.52991925155115449 0 0.84804810408105047 I I #
vertex $-1 $329 $400 #
straight-curve $-1 -50.755943479720472 -14.927471695961357 0.72967707229422274 0.52991925155115449 0 0.84804810408105047 I I #
edge $-1 $401 -50.75594347972045 $234 -47.7657929715471 $233 $402 forward 7 unknown #
point $-1 -47.7657929715471 -21.489420594862011 5.5149183367902159 #
point $-1 -47.7657929715471 -14.927471695961357 5.5149183367902159 #
edge $-1 $403 1 $403 0 $237 $-1 forward 7 unknown #
vertex $-1 $238 $404 #
ellipse-curve $-1 -48.412820121552713 -19.614578052318969 2.5923784529910612 -0.84804810408105047 0 0.52991925155115449 0.26495962577557725 0 0.42402405204052523 1 I I #
point $-1 -48.99590859985819 -19.614578052318969 3.5463217565827412 #
edge $-1 $405 1 $405 0 $241 $-1 forward 7 unknown #
vertex $-1 $242 $406 #
ellipse-curve $-1 -48.412820121552713 -16.802314238504405 2.5923784529910612 -0.84804810408105047 0 0.52991925155115449 0.26495962577557725 0 0.42402405204052523 1 I I #
point $-1 -48.99590859985819 -16.802314238504405 3.5463217565827412 #
plane-surface $-1 50.75594347972045 0 0 -1 0 0 0 0 1 forward_v I I I I #
coedge $-1 $250 $248 $252 $352 reversed $161 $-1 #
edge $-1 $263 -5.5149183367902159 $354 5.5149183367902159 $262 $407 forward 7 unknown #
vertex $-1 $352 $408 #
straight-curve $-1 -50.75594347972045 -25.850415441185177 0 0 0 -1 I I #
edge $-1 $350 -25.850415441185177 $354 25.850415441185177 $348 $409 forward 7 unknown #
straight-curve $-1 0 -25.850415441185177 -5.5149183367902159 -1 0 0 I I #
vertex $-1 $255 $410 #
straight-curve $-1 0 25.850415441185177 -5.5149183367902159 1 0 0 I I #
point $-1 50.75594347972045 25.850415441185177 -5.5149183367902159 #
point $-1 50.75594347972045 -25.850415441185177 -5.5149183367902159 #
straight-curve $-1 -50.75594347972045 0 5.5149183367902159 0 -1 0 I I #
point $-1 -50.75594347972045 25.850415441185177 5.5149183367902159 #
point $-1 -50.75594347972045 -25.850415441185177 5.5149183367902159 #
straight-curve $-1 50.75594347972045 -25.850415441185177 0 0 0 -1 I I #
straight-curve $-1 50.75594347972045 25.850415441185177 0 0 0 -1 I I #
plane-surface $-1 50.75594347972045 0 0 -1 0 0 0 0 1 forward_v I I I I #
coedge $-1 $276 $275 $286 $374 reversed $109 $-1 #
edge $-1 $282 21.489420594862011 $411 25.850415441185177 $276 $412 forward 7 unknown #
straight-curve $-1 -50.75594347972045 -21.489420594862011 2.007459168395108 0 0 -1 I I #
straight-curve $-1 50.75594347972045 -21.489420594862011 2.007459168395108 0 0 1 I I #
coedge $-1 $280 $279 $373 $413 forward $273 $-1 #
edge $-1 $377 -25.850415441185177 $281 -21.489420594862011 $291 $414 forward 7 unknown #
point $-1 50.75594347972045 -21.489420594862011 5.5149183367902159 #
point $-1 -50.75594347972045 -21.489420594862011 5.5149183367902159 #
straight-curve $-1 -50.75594347972045 -11.834959009011797 2.5149183367902159 0 -1 0 I I #
coedge $-1 $286 $285 $368 $413 reversed $180 $-1 #
edge $-1 $411 -5.5149183367902159 $287 -2.5149183367902159 $364 $415 forward 7 unknown #
point $-1 -50.75594347972045 -25.850415441185177 2.5149183367902159 #
point $-1 -50.75594347972045 -21.489420594862011 2.5149183367902159 #
vertex $-1 $369 $416 #
straight-curve $-1 50.75594347972045 -25.850415441185177 0 0 0 -1 I I #
edge $-1 $380 66.669804904825298 $383 71.374764038510321 $296 $417 forward 7 unknown #
vertex $-1 $310 $418 #
straight-curve $-1 25.377972572688403 3.301164177779965 5.5149183367902168 1 0 0 I I #
edge $-1 $383 -0.4537945776559571 $307 7.9637120885278012 $306 $419 forward 7 unknown #
vertex $-1 $382 $420 #
straight-curve $-1 -21.02379932751429 3.301164177779965 72.58970367599629 -0.70710677298230451 0 0.70710678939079041 I I #
point $-1 46.050984455214468 3.301164177779965 5.5149183367902168 #
point $-1 50.75594347972045 11.718670843963723 0.80995920310519409 #
straight-curve $-1 50.75594347972045 0 5.5149183367902159 0 1 0 I I #
vertex $-1 $313 $421 #
point $-1 46.954593140801762 5.7061660824038931 0.2993544309385906 #
vertex $-1 $317 $422 #
point $-1 46.954593140801762 9.3136689393397916 0.2993544309385906 #
coedge $-1 $323 $396 $325 $394 reversed $223 $-1 #
straight-curve $-1 -50.75594347972045 -14.927471695961357 27.261390116693271 0 0 -1 I I #
edge $-1 $326 14.927471695961357 $401 21.489420594862011 $392 $423 forward 7 unknown #
point $-1 -50.75594347972045 -14.927471695961357 5.5149183367902159 #
coedge $-1 $392 $328 $331 $398 forward $223 $-1 #
straight-curve $-1 -50.75594347972045 -9.1042230727058424 0.72967707229425316 0 -1 0 I I #
edge $-1 $332 -26.531713044399012 $401 -21.746471779903054 $396 $424 forward 7 unknown #
point $-1 -50.75594347972045 -21.489420594862011 0.72967707229425682 #
point $-1 -50.75594347972045 -14.927471695961357 0.72967707229425682 #
vertex $-1 $398 $425 #
straight-curve $-1 0 -21.489420594862011 5.5149183367902159 1 0 0 I I #
vertex $-1 $339 $426 #
point $-1 -48.147860495777138 -19.614578052318969 3.0164025050315866 #
vertex $-1 $343 $427 #
point $-1 -48.147860495777138 -16.802314238504405 3.0164025050315866 #
straight-curve $-1 -50.75594347972045 25.850415441185177 0 0 0 -1 I I #
point $-1 -50.75594347972045 -25.850415441185177 -5.5149183367902159 #
straight-curve $-1 -50.75594347972045 0 -5.5149183367902159 0 1 0 I I #
point $-1 -50.75594347972045 25.850415441185177 -5.5149183367902159 #
vertex $-1 $365 $428 #
straight-curve $-1 -50.75594347972045 0 5.5149183367902159 0 -1 0 I I #
edge $-1 $411 -50.75594347972045 $377 50.75594347972045 $373 $429 forward 7 unknown #
straight-curve $-1 50.75594347972045 0 5.5149183367902159 0 1 0 I I #
straight-curve $-1 -50.75594347972045 -25.850415441185177 0 0 0 -1 I I #
point $-1 50.75594347972045 -25.850415441185177 5.5149183367902159 #
straight-curve $-1 50.75594347972045 3.301164177779965 72.184723241615515 0 0 -1 I I #
point $-1 50.75594347972045 3.301164177779965 5.5149183367902159 #
straight-curve $-1 50.755943479720443 3.7549587554359221 0.80995920310519409 0 1 0 I I #
point $-1 50.75594347972045 3.301164177779965 0.80995920310519409 #
point $-1 45.540379578428663 5.7061660824038931 0.29935444734707617 #
point $-1 45.540379578428663 9.3136689393397916 0.29935444734707617 #
straight-curve $-1 -50.75594347972045 0 5.5149183367902159 0 -1 0 I I #
straight-curve $-1 -50.75594347972045 -21.489420594862011 27.261390116693271 0 0 1 I I #
point $-1 -50.75594347972045 -21.489420594862011 5.5149183367902159 #
point $-1 -47.98879606951219 -19.614578052318969 2.3274188272154839 #
point $-1 -47.98879606951219 -16.802314238504405 2.3274188272154839 #
point $-1 -50.75594347972045 -25.850415441185177 5.5149183367902159 #
straight-curve $-1 0 -25.850415441185177 5.5149183367902159 1 0 0 I I #
End-of-ACIS-data 