500 0 6 0           
7 Unknown 11 ACIS 5.0 NT 24 Thu Mar 25 17:36:36 1999 
-1 9.9999999999999995e-007 1e-010 
body $-1 $6 $-1 $7 #
body $-1 $8 $-1 $9 #
body $-1 $10 $-1 $11 #
body $-1 $12 $-1 $13 #
body $-1 $14 $-1 $15 #
body $-1 $16 $-1 $17 #
lump $-1 $-1 $18 $0 #
transform $-1 1 0 0 0 1 0 0 0 1 79.675283059175399 52.34418319915045 24.421907355885253 1 rotate no_reflect no_shear #
lump $-1 $-1 $19 $1 #
transform $-1 1 0 0 0 1 0 0 0 1 79.675283059175399 52.34418319915045 24.421907355885253 1 rotate no_reflect no_shear #
lump $-1 $-1 $20 $2 #
transform $-1 1 0 0 0 1 0 0 0 1 79.675283059175399 52.34418319915045 24.421907355885253 1 rotate no_reflect no_shear #
lump $-1 $-1 $21 $3 #
transform $-1 1 0 0 0 1 0 0 0 1 79.675283059175399 52.34418319915045 24.421907355885253 1 rotate no_reflect no_shear #
lump $-1 $-1 $22 $4 #
transform $-1 1 0 0 0 1 0 0 0 1 79.675283059175399 52.34418319915045 24.421907355885253 1 rotate no_reflect no_shear #
lump $-1 $-1 $23 $5 #
transform $-1 1 0 0 0 1 0 0 0 1 79.675283059175399 52.34418319915045 24.421907355885253 1 rotate no_reflect no_shear #
shell $-1 $-1 $-1 $24 $-1 $6 #
shell $-1 $-1 $-1 $25 $-1 $8 #
shell $-1 $-1 $-1 $26 $-1 $10 #
shell $-1 $-1 $-1 $27 $-1 $12 #
shell $-1 $-1 $-1 $28 $-1 $14 #
shell $-1 $-1 $-1 $29 $-1 $16 #
face $-1 $30 $31 $18 $-1 $32 forward single #
face $-1 $33 $34 $19 $-1 $35 reversed single #
face $-1 $36 $37 $20 $-1 $38 reversed single #
face $-1 $39 $40 $21 $-1 $41 forward single #
face $-1 $42 $43 $22 $-1 $44 reversed single #
face $-1 $45 $46 $23 $-1 $47 forward single #
face $-1 $48 $49 $18 $-1 $50 reversed single #
loop $-1 $-1 $51 $24 #
plane-surface $-1 0 0 24.421907355885253 0 0 1 1 0 0 forward_v I I I I #
face $-1 $52 $53 $19 $-1 $54 reversed single #
loop $-1 $-1 $55 $25 #
plane-surface $-1 -45.37013157651684 -40.545689726009812 0 1 0 0 0 0 -1 forward_v I I I I #
face $-1 $56 $57 $20 $-1 $58 reversed single #
loop $-1 $-1 $59 $26 #
plane-surface $-1 -186.30162527195665 17.224795005232608 130.69432564486442 0 1 0 -0.66913061440640931 0 0.74314481823134659 forward_v I I I I #
face $-1 $60 $61 $21 $-1 $62 forward single #
loop $-1 $63 $64 $27 #
cone-surface $-1 -71.729328887022419 22.079462948652946 17.015083158173919 0.66913061440640931 0 -0.74314481823134659 0.74314481823134659 0 0.66913061440640931 1 I I 0 1 1 forward I I I I #
face $-1 $65 $66 $22 $-1 $67 reversed single #
loop $-1 $-1 $68 $28 #
plane-surface $-1 67.881077778872651 26.934130892073284 237.32066785764567 0 -1 0 -0.66913061440640931 0 -0.74314481823134659 forward_v I I I I #
face $-1 $69 $70 $23 $-1 $71 forward single #
loop $-1 $72 $73 $29 #
cone-surface $-1 71.729328887022419 22.079462948652946 17.015083158173933 -0.66913061440640931 0 -0.74314481823134659 0.74314481823134659 0 -0.66913061440640931 1 I I 0 1 1 forward I I I I #
face $-1 $74 $75 $18 $-1 $76 reversed single #
loop $-1 $-1 $77 $30 #
plane-surface $-1 0 0 -24.421907355885253 0 0 1 1 0 0 forward_v I I I I #
coedge $-1 $78 $79 $80 $81 forward $31 $-1 #
face $-1 $82 $83 $19 $-1 $84 reversed single #
loop $-1 $-1 $85 $33 #
plane-surface $-1 -38.100799961960867 -28.747196252869177 0 0 -1 0 0 0 -1 forward_v I I I I #
coedge $-1 $86 $87 $88 $89 forward $34 $-1 #
face $-1 $90 $91 $20 $-1 $92 reversed single #
loop $-1 $-1 $93 $36 #
plane-surface $-1 -79.675283059175428 22.079462948652946 12.273778151780434 -0.66913061440640931 0 0.74314481823134659 0.74314481823134659 0 0.66913061440640931 forward_v I I I I #
coedge $-1 $94 $95 $96 $97 reversed $37 $-1 #
face $-1 $-1 $98 $21 $-1 $99 forward single #
loop $-1 $100 $101 $39 #
cone-surface $-1 -70.194741423677812 22.079462948652946 15.310751153399323 0.66913061440640931 0 -0.74314481823134659 0.3715724091156733 0 0.33456530720320465 1 I I -0.70710678118654746 0.70710678118654746 0.5 forward I I I I #
loop $-1 $-1 $102 $27 #
coedge $-1 $64 $64 $103 $104 reversed $40 $-1 #
face $-1 $105 $106 $22 $-1 $107 reversed single #
loop $-1 $-1 $108 $42 #
plane-surface $-1 -38.745264433908574 22.079462948652946 118.90012036456169 0.66913061440640931 0 0.74314481823134659 0.74314481823134659 0 -0.66913061440640931 forward_v I I I I #
coedge $-1 $109 $110 $111 $112 reversed $43 $-1 #
face $-1 $-1 $113 $23 $-1 $114 forward single #
loop $-1 $115 $116 $45 #
cone-surface $-1 70.194741423677812 22.079462948652946 15.310751153399337 -0.66913061440640931 0 -0.74314481823134659 0.3715724091156733 0 -0.33456530720320465 1 I I -0.70710678118654746 0.70710678118654746 0.5 forward I I I I #
loop $-1 $-1 $117 $29 #
coedge $-1 $73 $73 $118 $119 reversed $46 $-1 #
face $-1 $120 $121 $18 $-1 $122 reversed single #
loop $-1 $-1 $123 $48 #
plane-surface $-1 0 -52.34418319915045 0 0 1 0 0 0 1 forward_v I I I I #
coedge $-1 $124 $125 $126 $127 forward $49 $-1 #
coedge $-1 $128 $51 $129 $130 forward $31 $-1 #
coedge $-1 $51 $128 $131 $132 forward $31 $-1 #
coedge $-1 $133 $134 $51 $81 reversed $135 $-1 #
edge $-1 $136 -52.34418319915045 $137 52.34418319915045 $80 $138 forward 7 unknown #
face $-1 $139 $140 $19 $-1 $141 forward single #
loop $-1 $-1 $142 $52 #
plane-surface $-1 -30.831468347404893 -40.545689726009812 0 -1 0 0 0 0 1 forward_v I I I I #
coedge $-1 $143 $144 $145 $146 forward $53 $-1 #
coedge $-1 $147 $55 $148 $149 reversed $34 $-1 #
coedge $-1 $55 $147 $150 $151 reversed $34 $-1 #
coedge $-1 $144 $143 $55 $89 reversed $53 $-1 #
edge $-1 $152 -24.421907355885253 $153 24.421907355885253 $88 $154 forward 7 unknown #
face $-1 $155 $156 $20 $-1 $157 reversed single #
loop $-1 $-1 $158 $56 #
plane-surface $-1 -186.30162527195665 26.934130892073284 130.69432564486442 0 -1 0 0.66913061440640931 0 -0.74314481823134659 forward_v I I I I #
coedge $-1 $159 $160 $161 $162 reversed $57 $-1 #
coedge $-1 $95 $59 $163 $164 reversed $37 $-1 #
coedge $-1 $59 $94 $159 $165 reversed $37 $-1 #
coedge $-1 $161 $166 $59 $97 forward $167 $-1 #
edge $-1 $168 13.475529576802927 $169 26.967393608826058 $96 $170 forward 7 unknown #
loop $-1 $-1 $103 $60 #
plane-surface $-1 -79.675283059175428 22.079462948652946 12.273778151780434 -0.66913061440640931 0 0.74314481823134659 0.74314481823134659 0 0.66913061440640931 forward_v I I I I #
loop $-1 $-1 $171 $39 #
coedge $-1 $101 $101 $102 $172 reversed $61 $-1 #
coedge $-1 $102 $102 $101 $172 forward $63 $-1 #
coedge $-1 $103 $103 $64 $104 forward $98 $-1 #
edge $-1 $173 0 $173 6.2831853071796004 $103 $174 forward 7 unknown #
face $-1 $175 $176 $22 $-1 $177 forward single #
loop $-1 $-1 $178 $65 #
plane-surface $-1 67.881077778872651 17.224795005232608 237.32066785764567 0 1 0 0.66913061440640931 0 0.74314481823134659 forward_v I I I I #
coedge $-1 $179 $180 $181 $182 reversed $66 $-1 #
coedge $-1 $110 $68 $183 $184 reversed $43 $-1 #
coedge $-1 $68 $109 $179 $185 reversed $43 $-1 #
coedge $-1 $181 $186 $68 $112 forward $176 $-1 #
edge $-1 $187 -45.734744169739074 $188 -32.242880137715957 $111 $189 forward 7 unknown #
loop $-1 $-1 $118 $69 #
plane-surface $-1 -38.745264433908574 22.079462948652946 118.90012036456169 0.66913061440640931 0 0.74314481823134659 0.74314481823134659 0 -0.66913061440640931 forward_v I I I I #
loop $-1 $-1 $190 $45 #
coedge $-1 $116 $116 $117 $191 reversed $70 $-1 #
coedge $-1 $117 $117 $116 $191 forward $72 $-1 #
coedge $-1 $118 $118 $73 $119 forward $113 $-1 #
edge $-1 $192 0 $192 6.2831853071796004 $118 $193 forward 7 unknown #
face $-1 $194 $195 $18 $-1 $196 reversed single #
loop $-1 $-1 $197 $74 #
plane-surface $-1 -79.675283059175399 0 0 1 0 0 0 0 -1 forward_v I I I I #
coedge $-1 $198 $131 $199 $200 forward $75 $-1 #
coedge $-1 $201 $77 $198 $202 forward $49 $-1 #
coedge $-1 $77 $201 $203 $204 forward $49 $-1 #
coedge $-1 $134 $133 $77 $127 reversed $135 $-1 #
edge $-1 $205 -52.34418319915045 $206 52.34418319915045 $126 $207 forward 7 unknown #
coedge $-1 $79 $78 $208 $209 forward $31 $-1 #
coedge $-1 $210 $211 $78 $130 reversed $195 $-1 #
edge $-1 $137 -79.675283059175399 $212 79.675283059175399 $129 $213 forward 7 unknown #
coedge $-1 $123 $214 $79 $132 reversed $75 $-1 #
edge $-1 $215 -79.675283059175399 $136 79.675283059175399 $131 $216 forward 7 unknown #
coedge $-1 $126 $80 $214 $217 forward $135 $-1 #
coedge $-1 $80 $126 $210 $218 reversed $135 $-1 #
loop $-1 $-1 $133 $194 #
vertex $-1 $81 $219 #
vertex $-1 $81 $220 #
straight-curve $-1 79.675283059175399 0 24.421907355885253 0 1 0 I I #
face $-1 $221 $222 $19 $-1 $223 reversed single #
loop $-1 $-1 $224 $82 #
plane-surface $-1 0 0 24.421907355885253 0 0 1 1 0 0 forward_v I I I I #
coedge $-1 $225 $226 $227 $228 reversed $83 $-1 #
coedge $-1 $88 $85 $229 $230 reversed $53 $-1 #
coedge $-1 $85 $88 $231 $232 reversed $53 $-1 #
coedge $-1 $226 $225 $85 $146 reversed $83 $-1 #
edge $-1 $233 -24.421907355885253 $234 24.421907355885253 $145 $235 forward 7 unknown #
coedge $-1 $87 $86 $236 $237 reversed $34 $-1 #
coedge $-1 $229 $238 $86 $149 forward $222 $-1 #
edge $-1 $239 -32.071338336145544 $153 -8.4743513898642711 $148 $240 forward 7 unknown #
coedge $-1 $241 $231 $87 $151 forward $140 $-1 #
edge $-1 $152 8.4743513898642711 $242 32.071338336145544 $150 $243 forward 7 unknown #
vertex $-1 $151 $244 #
vertex $-1 $149 $245 #
straight-curve $-1 -45.37013157651684 -28.747196252869177 0 0 0 -1 I I #
face $-1 $-1 $167 $20 $-1 $246 forward single #
loop $-1 $-1 $247 $90 #
plane-surface $-1 -79.675283059175399 0 0 1 0 0 0 0 -1 forward_v I I I I #
coedge $-1 $248 $249 $250 $251 reversed $91 $-1 #
coedge $-1 $252 $93 $95 $165 forward $57 $-1 #
coedge $-1 $93 $252 $248 $253 forward $57 $-1 #
coedge $-1 $250 $96 $93 $162 forward $167 $-1 #
edge $-1 $169 6.1850635309061346 $254 15.894399417746811 $161 $255 forward 7 unknown #
coedge $-1 $256 $257 $94 $164 forward $156 $-1 #
edge $-1 $258 -53.073384670651748 $168 -40.925255466546957 $163 $259 forward 7 unknown #
edge $-1 $169 -18.155094001910996 $258 -3.7762052495422576e-014 $95 $260 forward 7 unknown #
coedge $-1 $96 $250 $256 $261 forward $167 $-1 #
loop $-1 $-1 $250 $155 #
vertex $-1 $164 $262 #
vertex $-1 $97 $263 #
straight-curve $-1 -93.150812635978326 17.224795005232608 24.421907355885253 1 0 0 I I #
coedge $-1 $171 $171 $-1 $264 reversed $100 $-1 #
edge $-1 $265 0 $265 6.2831853071796004 $101 $266 forward 7 unknown #
vertex $-1 $104 $267 #
ellipse-curve $-1 -72.929351043163834 22.079462948652946 18.347842753832857 -0.66913061440640931 0 0.74314481823134659 0.74314481823134659 0 0.66913061440640931 1 I I #
face $-1 $-1 $268 $22 $-1 $269 reversed single #
loop $-1 $-1 $111 $105 #
plane-surface $-1 0 0 24.421907355885253 0 0 1 1 0 0 forward_v I I I I #
coedge $-1 $270 $271 $272 $273 reversed $106 $-1 #
coedge $-1 $274 $108 $110 $185 forward $66 $-1 #
coedge $-1 $108 $274 $270 $275 forward $66 $-1 #
coedge $-1 $272 $111 $108 $182 forward $176 $-1 #
edge $-1 $188 -15.894399417746811 $276 -6.1850635309061346 $181 $277 forward 7 unknown #
coedge $-1 $278 $279 $109 $184 forward $268 $-1 #
edge $-1 $280 -106.38655577704237 $187 -94.238426572937584 $183 $281 forward 7 unknown #
edge $-1 $188 141.19547211643984 $280 159.3505661183508 $110 $282 forward 7 unknown #
coedge $-1 $111 $272 $278 $283 forward $176 $-1 #
vertex $-1 $184 $284 #
vertex $-1 $112 $285 #
straight-curve $-1 33.940538889436326 26.934130892073284 24.421907355885253 -1 0 0 I I #
coedge $-1 $190 $190 $-1 $286 reversed $115 $-1 #
edge $-1 $287 0 $287 6.2831853071796004 $116 $288 forward 7 unknown #
vertex $-1 $119 $289 #
ellipse-curve $-1 72.929351043163834 22.079462948652946 18.347842753832872 0.66913061440640931 0 0.74314481823134659 0.74314481823134659 0 -0.66913061440640931 1 I I #
face $-1 $-1 $135 $18 $-1 $290 reversed single #
loop $-1 $-1 $210 $120 #
plane-surface $-1 0 52.34418319915045 0 0 -1 0 0 0 -1 forward_v I I I I #
coedge $-1 $291 $208 $211 $292 forward $121 $-1 #
coedge $-1 $214 $123 $124 $202 reversed $75 $-1 #
coedge $-1 $208 $291 $123 $200 reversed $121 $-1 #
edge $-1 $215 -24.421907355885253 $293 24.421907355885253 $199 $294 forward 7 unknown #
coedge $-1 $125 $124 $291 $295 forward $49 $-1 #
edge $-1 $206 -79.675283059175399 $293 79.675283059175399 $198 $296 forward 7 unknown #
coedge $-1 $211 $210 $125 $204 reversed $195 $-1 #
edge $-1 $297 -79.675283059175399 $205 79.675283059175399 $203 $298 forward 7 unknown #
vertex $-1 $127 $299 #
vertex $-1 $217 $300 #
straight-curve $-1 79.675283059175399 0 -24.421907355885253 0 -1 0 I I #
coedge $-1 $197 $199 $128 $209 reversed $121 $-1 #
edge $-1 $212 -52.34418319915045 $215 52.34418319915045 $208 $301 forward 7 unknown #
coedge $-1 $203 $129 $134 $218 forward $195 $-1 #
coedge $-1 $129 $203 $197 $292 reversed $195 $-1 #
vertex $-1 $130 $302 #
straight-curve $-1 0 52.34418319915045 24.421907355885253 -1 0 0 I I #
coedge $-1 $131 $198 $133 $217 reversed $75 $-1 #
vertex $-1 $209 $303 #
straight-curve $-1 0 -52.34418319915045 24.421907355885253 1 0 0 I I #
edge $-1 $136 -24.421907355885253 $206 24.421907355885253 $133 $304 forward 7 unknown #
edge $-1 $137 -24.421907355885253 $205 24.421907355885253 $134 $305 forward 7 unknown #
point $-1 79.675283059175399 -52.34418319915045 24.421907355885253 #
point $-1 79.675283059175399 52.34418319915045 24.421907355885253 #
face $-1 $-1 $306 $19 $-1 $307 reversed single #
loop $-1 $-1 $308 $139 #
plane-surface $-1 0 0 -24.421907355885253 0 0 1 1 0 0 forward_v I I I I #
coedge $-1 $231 $241 $226 $309 forward $140 $-1 #
coedge $-1 $145 $142 $308 $310 reversed $83 $-1 #
coedge $-1 $142 $145 $224 $309 reversed $83 $-1 #
coedge $-1 $311 $312 $142 $228 forward $306 $-1 #
edge $-1 $313 -24.421907355885253 $314 24.421907355885253 $227 $315 forward 7 unknown #
coedge $-1 $308 $148 $143 $230 forward $222 $-1 #
edge $-1 $153 -26.319731595536407 $234 -11.78106836642446 $229 $316 forward 7 unknown #
coedge $-1 $150 $224 $144 $232 forward $140 $-1 #
edge $-1 $233 11.78106836642446 $152 26.319731595536407 $231 $317 forward 7 unknown #
vertex $-1 $232 $318 #
vertex $-1 $230 $319 #
straight-curve $-1 -30.831468347404893 -28.747196252869177 0 0 0 -1 I I #
coedge $-1 $312 $311 $147 $237 forward $306 $-1 #
edge $-1 $242 -24.421907355885253 $239 24.421907355885253 $236 $320 forward 7 unknown #
coedge $-1 $148 $308 $312 $321 forward $222 $-1 #
vertex $-1 $149 $322 #
straight-curve $-1 -45.37013157651684 -20.272844863004906 -24.421907355885253 0 1 0 I I #
coedge $-1 $224 $150 $311 $323 forward $140 $-1 #
vertex $-1 $323 $324 #
straight-curve $-1 -45.37013157651684 -20.272844863004906 24.421907355885253 0 -1 0 I I #
point $-1 -45.37013157651684 -28.747196252869177 24.421907355885253 #
point $-1 -45.37013157651684 -28.747196252869177 -24.421907355885253 #
plane-surface $-1 0 0 24.421907355885253 0 0 1 1 0 0 forward_v I I I I #
coedge $-1 $257 $256 $249 $325 forward $156 $-1 #
coedge $-1 $249 $158 $160 $253 reversed $91 $-1 #
coedge $-1 $158 $248 $247 $325 reversed $91 $-1 #
coedge $-1 $166 $161 $158 $251 forward $167 $-1 #
edge $-1 $254 -26.967393608826058 $326 -13.475529576802927 $250 $327 forward 7 unknown #
coedge $-1 $160 $159 $257 $328 reversed $57 $-1 #
edge $-1 $329 3.7762052495422576e-014 $254 18.155094001910996 $248 $330 forward 7 unknown #
vertex $-1 $162 $331 #
straight-curve $-1 -66.183419027152269 11.039731474326473 24.421907355885253 0 1 0 I I #
coedge $-1 $247 $163 $166 $261 reversed $156 $-1 #
coedge $-1 $163 $247 $252 $328 forward $156 $-1 #
vertex $-1 $164 $332 #
straight-curve $-1 -79.675283059175399 17.224795005232608 65.34716282243221 0 0 1 I I #
straight-curve $-1 -79.675283059175428 17.224795005232608 12.273778151780434 -0.74314481823134659 0 -0.66913061440640931 I I #
edge $-1 $326 -26.934130892073284 $168 -17.224795005232608 $256 $333 forward 7 unknown #
point $-1 -79.675283059175399 17.224795005232608 24.421907355885253 #
point $-1 -66.183419027152269 17.224795005232608 24.421907355885253 #
edge $-1 $334 1 $334 0 $171 $-1 forward 7 unknown #
vertex $-1 $172 $335 #
ellipse-curve $-1 -70.529306730881018 22.079462948652946 15.682323562514997 -0.66913061440640931 0 0.74314481823134659 0.74314481823134659 0 0.66913061440640931 1 I I #
point $-1 -72.186206224932477 22.079462948652946 19.016973368239253 #
loop $-1 $-1 $183 $175 #
plane-surface $-1 79.675283059175399 0 0 -1 0 0 0 0 1 forward_v I I I I #
coedge $-1 $271 $178 $180 $275 reversed $106 $-1 #
coedge $-1 $178 $270 $336 $337 reversed $106 $-1 #
coedge $-1 $186 $181 $178 $273 forward $176 $-1 #
edge $-1 $276 32.242880137715957 $338 45.734744169739074 $272 $339 forward 7 unknown #
coedge $-1 $180 $179 $279 $340 reversed $66 $-1 #
edge $-1 $341 -159.3505661183508 $276 -141.19547211643984 $270 $342 forward 7 unknown #
vertex $-1 $182 $343 #
straight-curve $-1 66.183419027152297 11.039731474326473 24.421907355885246 0 -1 0 I I #
coedge $-1 $336 $183 $186 $283 reversed $268 $-1 #
coedge $-1 $183 $336 $274 $340 forward $268 $-1 #
vertex $-1 $184 $344 #
straight-curve $-1 79.675283059175399 26.934130892073284 118.66033392882284 0 0 1 I I #
straight-curve $-1 -38.745264433908574 26.934130892073284 118.90012036456169 0.74314481823134659 0 -0.66913061440640931 I I #
edge $-1 $338 17.224795005232608 $187 26.934130892073284 $278 $345 forward 7 unknown #
point $-1 79.675283059175399 26.934130892073284 24.421907355885253 #
point $-1 66.183419027152283 26.934130892073284 24.421907355885253 #
edge $-1 $346 1 $346 0 $190 $-1 forward 7 unknown #
vertex $-1 $191 $347 #
ellipse-curve $-1 70.529306730881018 22.079462948652946 15.682323562515011 0.66913061440640931 0 0.74314481823134659 0.74314481823134659 0 -0.66913061440640931 1 I I #
point $-1 73.672495861395177 22.079462948652946 17.678712139426448 #
plane-surface $-1 79.675283059175399 0 0 -1 0 0 0 0 1 forward_v I I I I #
coedge $-1 $199 $197 $201 $295 reversed $121 $-1 #
edge $-1 $212 -24.421907355885253 $297 24.421907355885253 $211 $348 forward 7 unknown #
vertex $-1 $295 $349 #
straight-curve $-1 -79.675283059175399 -52.34418319915045 0 0 0 -1 I I #
edge $-1 $293 -52.34418319915045 $297 52.34418319915045 $291 $350 forward 7 unknown #
straight-curve $-1 0 -52.34418319915045 -24.421907355885253 -1 0 0 I I #
vertex $-1 $204 $351 #
straight-curve $-1 0 52.34418319915045 -24.421907355885253 1 0 0 I I #
point $-1 79.675283059175399 52.34418319915045 -24.421907355885253 #
point $-1 79.675283059175399 -52.34418319915045 -24.421907355885253 #
straight-curve $-1 -79.675283059175399 0 24.421907355885253 0 -1 0 I I #
point $-1 -79.675283059175399 52.34418319915045 24.421907355885253 #
point $-1 -79.675283059175399 -52.34418319915045 24.421907355885253 #
straight-curve $-1 79.675283059175399 -52.34418319915045 0 0 0 -1 I I #
straight-curve $-1 79.675283059175399 52.34418319915045 0 0 0 -1 I I #
loop $-1 $-1 $227 $221 #
plane-surface $-1 0 -52.34418319915045 0 0 1 0 0 0 1 forward_v I I I I #
coedge $-1 $238 $229 $225 $310 forward $222 $-1 #
edge $-1 $314 -32.071338336145544 $233 -8.4743513898642711 $224 $352 forward 7 unknown #
edge $-1 $234 8.4743513898642711 $313 32.071338336145544 $308 $353 forward 7 unknown #
coedge $-1 $236 $227 $241 $323 reversed $306 $-1 #
coedge $-1 $227 $236 $238 $321 reversed $306 $-1 #
vertex $-1 $321 $354 #
vertex $-1 $228 $355 #
straight-curve $-1 -30.831468347404893 -52.34418319915045 0 0 0 1 I I #
straight-curve $-1 -19.050399980980433 -28.747196252869177 -24.421907355885253 1 0 0 I I #
straight-curve $-1 -19.050399980980433 -28.747196252869177 24.421907355885253 -1 0 0 I I #
point $-1 -30.831468347404893 -28.747196252869177 24.421907355885253 #
point $-1 -30.831468347404893 -28.747196252869177 -24.421907355885253 #
straight-curve $-1 -45.37013157651684 -52.34418319915045 0 0 0 -1 I I #
edge $-1 $313 30.831468347404893 $239 45.37013157651684 $312 $356 forward 7 unknown #
point $-1 -45.37013157651684 -52.34418319915045 -24.421907355885253 #
edge $-1 $242 -45.37013157651684 $314 -30.831468347404893 $311 $357 forward 7 unknown #
point $-1 -45.37013157651684 -52.34418319915045 24.421907355885253 #
edge $-1 $326 40.925255466546957 $329 53.073384670651748 $247 $358 forward 7 unknown #
vertex $-1 $261 $359 #
straight-curve $-1 -93.150812635978326 26.934130892073284 24.421907355885253 -1 0 0 I I #
edge $-1 $329 -15.894399417746811 $258 -6.1850635309061346 $257 $360 forward 7 unknown #
vertex $-1 $328 $361 #
straight-curve $-1 -79.675283059175428 26.934130892073284 12.273778151780434 0.74314481823134659 0 0.66913061440640931 I I #
point $-1 -66.183419027152269 26.934130892073284 24.421907355885253 #
point $-1 -79.675283059175399 17.224795005232608 12.273778151780459 #
straight-curve $-1 -79.675283059175399 0 24.421907355885253 0 -1 0 I I #
vertex $-1 $264 $362 #
point $-1 -69.786161912649675 22.079462948652946 16.351454176921408 #
coedge $-1 $279 $278 $271 $337 forward $268 $-1 #
edge $-1 $338 94.238426572937584 $341 106.38655577704237 $336 $363 forward 7 unknown #
vertex $-1 $283 $364 #
straight-curve $-1 33.940538889436326 17.224795005232608 24.421907355885253 1 0 0 I I #
edge $-1 $341 6.1850635309061346 $280 15.894399417746811 $279 $365 forward 7 unknown #
vertex $-1 $340 $366 #
straight-curve $-1 -38.745264433908574 17.224795005232608 118.90012036456169 -0.74314481823134659 0 0.66913061440640931 I I #
point $-1 66.183419027152283 17.224795005232608 24.421907355885253 #
point $-1 79.675283059175413 26.934130892073284 12.273778151780462 #
straight-curve $-1 79.675283059175399 0 24.421907355885253 0 1 0 I I #
vertex $-1 $286 $367 #
point $-1 71.272451549112361 22.079462948652946 15.013192948108601 #
straight-curve $-1 -79.675283059175399 52.34418319915045 0 0 0 -1 I I #
point $-1 -79.675283059175399 -52.34418319915045 -24.421907355885253 #
straight-curve $-1 -79.675283059175399 0 -24.421907355885253 0 1 0 I I #
point $-1 -79.675283059175399 52.34418319915045 -24.421907355885253 #
straight-curve $-1 -30.831468347404893 -20.272844863004906 24.421907355885253 0 1 0 I I #
straight-curve $-1 -30.831468347404893 -20.272844863004906 -24.421907355885253 0 -1 0 I I #
point $-1 -30.831468347404893 -52.34418319915045 -24.421907355885253 #
point $-1 -30.831468347404893 -52.34418319915045 24.421907355885253 #
straight-curve $-1 0 -52.34418319915045 -24.421907355885253 -1 0 0 I I #
straight-curve $-1 0 -52.34418319915045 24.421907355885253 1 0 0 I I #
straight-curve $-1 -79.675283059175399 26.934130892073284 65.34716282243221 0 0 -1 I I #
point $-1 -79.675283059175399 26.934130892073284 24.421907355885253 #
straight-curve $-1 -79.675283059175399 11.039731474326473 12.273778151780459 0 -1 0 I I #
point $-1 -79.675283059175399 26.934130892073284 12.273778151780459 #
point $-1 -69.860176116474605 22.079462948652946 14.93917874428365 #
straight-curve $-1 79.675283059175399 17.224795005232608 118.66033392882284 0 0 -1 I I #
point $-1 79.675283059175399 17.224795005232608 24.421907355885253 #
straight-curve $-1 79.675283059175399 11.039731474326473 12.273778151780476 0 1 0 I I #
point $-1 79.675283059175413 17.224795005232608 12.273778151780462 #
point $-1 69.860176116474605 22.079462948652946 14.939178744283664 #
End-of-ACIS-data 