500 0 10 0           
7 Unknown 11 ACIS 5.0 NT 24 Thu Mar 25 15:29:55 1999 
-1 9.9999999999999995e-007 1e-010 
body $-1 $10 $-1 $11 #
body $-1 $12 $-1 $13 #
body $-1 $14 $-1 $15 #
body $-1 $16 $-1 $17 #
body $-1 $18 $-1 $19 #
body $-1 $20 $-1 $21 #
body $-1 $22 $-1 $23 #
body $-1 $24 $-1 $25 #
body $-1 $26 $-1 $27 #
body $-1 $28 $-1 $29 #
lump $-1 $-1 $30 $0 #
transform $-1 1 0 0 0 1 0 0 0 1 53.584398937955868 28.017541737852419 11.118604151554617 1 rotate no_reflect no_shear #
lump $-1 $-1 $31 $1 #
transform $-1 1 0 0 0 1 0 0 0 1 53.584398937955868 28.017541737852419 11.118604151554617 1 rotate no_reflect no_shear #
lump $-1 $-1 $32 $2 #
transform $-1 1 0 0 0 1 0 0 0 1 53.584398937955868 28.017541737852419 11.118604151554617 1 rotate no_reflect no_shear #
lump $-1 $-1 $33 $3 #
transform $-1 1 0 0 0 1 0 0 0 1 53.584398937955868 28.017541737852419 11.118604151554617 1 rotate no_reflect no_shear #
lump $-1 $-1 $34 $4 #
transform $-1 1 0 0 0 1 0 0 0 1 53.584398937955868 28.017541737852419 11.118604151554617 1 rotate no_reflect no_shear #
lump $-1 $-1 $35 $5 #
transform $-1 1 0 0 0 1 0 0 0 1 53.584398937955868 28.017541737852419 11.118604151554617 1 rotate no_reflect no_shear #
lump $-1 $-1 $36 $6 #
transform $-1 1 0 0 0 1 0 0 0 1 53.584398937955868 28.017541737852419 11.118604151554617 1 rotate no_reflect no_shear #
lump $-1 $-1 $37 $7 #
transform $-1 1 0 0 0 1 0 0 0 1 53.584398937955868 28.017541737852419 11.118604151554617 1 rotate no_reflect no_shear #
lump $-1 $-1 $38 $8 #
transform $-1 1 0 0 0 1 0 0 0 1 53.584398937955868 28.017541737852419 11.118604151554617 1 rotate no_reflect no_shear #
lump $-1 $-1 $39 $9 #
transform $-1 1 0 0 0 1 0 0 0 1 53.584398937955868 28.017541737852419 11.118604151554617 1 rotate no_reflect no_shear #
shell $-1 $-1 $-1 $40 $-1 $10 #
shell $-1 $-1 $-1 $41 $-1 $12 #
shell $-1 $-1 $-1 $42 $-1 $14 #
shell $-1 $-1 $-1 $43 $-1 $16 #
shell $-1 $-1 $-1 $44 $-1 $18 #
shell $-1 $-1 $-1 $45 $-1 $20 #
shell $-1 $-1 $-1 $46 $-1 $22 #
shell $-1 $-1 $-1 $47 $-1 $24 #
shell $-1 $-1 $-1 $48 $-1 $26 #
shell $-1 $-1 $-1 $49 $-1 $28 #
face $-1 $50 $51 $30 $-1 $52 forward single #
face $-1 $53 $54 $31 $-1 $55 reversed single #
face $-1 $56 $57 $32 $-1 $58 reversed single #
face $-1 $59 $60 $33 $-1 $61 forward single #
face $-1 $62 $63 $34 $-1 $64 forward single #
face $-1 $65 $66 $35 $-1 $67 forward single #
face $-1 $68 $69 $36 $-1 $70 reversed single #
face $-1 $71 $72 $37 $-1 $73 forward single #
face $-1 $74 $75 $38 $-1 $76 forward single #
face $-1 $77 $78 $39 $-1 $79 forward single #
face $-1 $80 $81 $30 $-1 $82 reversed single #
loop $-1 $-1 $83 $40 #
plane-surface $-1 0 0 11.118604151554617 0 0 1 1 0 0 forward_v I I I I #
face $-1 $84 $85 $31 $-1 $86 reversed single #
loop $-1 $-1 $87 $41 #
plane-surface $-1 -43.089561582495172 -23.539706895863503 0 1 0 0 0 0 -1 forward_v I I I I #
face $-1 $88 $89 $32 $-1 $90 reversed single #
loop $-1 $-1 $91 $42 #
plane-surface $-1 -110.37521020697545 11.234152625756259 94.249475408059297 0 1 0 -0.52991927123019833 0 0.84804809178421925 forward_v I I I I #
face $-1 $92 $93 $33 $-1 $94 forward single #
loop $-1 $95 $96 $43 #
cone-surface $-1 -46.880160969551625 12.887164847322872 6.4414010576300083 0.52991927123019833 0 -0.84804809178421925 0.42402404589210962 0 0.26495963561509916 1 I I 0 1 0.5 forward I I I I #
face $-1 $97 $98 $34 $-1 $99 forward single #
loop $-1 $100 $101 $44 #
cone-surface $-1 -46.880160969551625 15.366683179672783 6.4414010576300083 0.52991927123019833 0 -0.84804809178421925 0.42402404589210962 0 0.26495963561509916 1 I I 0 1 0.5 forward I I I I #
face $-1 $102 $103 $35 $-1 $104 forward single #
loop $-1 $105 $106 $45 #
cone-surface $-1 -46.880160969551625 17.846201512022695 6.4414010576300083 0.52991927123019833 0 -0.84804809178421925 0.42402404589210962 0 0.26495963561509916 1 I I 0 1 0.5 forward I I I I #
face $-1 $107 $108 $36 $-1 $109 reversed single #
loop $-1 $-1 $110 $46 #
plane-surface $-1 19.490915669499813 19.499213733589308 151.04028667707888 0 -1 0 -0.52991927123019833 0 -0.84804809178421925 forward_v I I I I #
face $-1 $111 $112 $37 $-1 $113 forward single #
loop $-1 $114 $115 $47 #
cone-surface $-1 46.880160969551639 12.887164847322872 6.4414010576300011 -0.52991927123019833 0 -0.84804809178421925 0.42402404589210962 0 -0.26495963561509916 1 I I 0 1 0.5 forward I I I I #
face $-1 $116 $117 $38 $-1 $118 forward single #
loop $-1 $119 $120 $48 #
cone-surface $-1 46.880160969551639 15.366683179672783 6.4414010576300011 -0.52991927123019833 0 -0.84804809178421925 0.42402404589210962 0 -0.26495963561509916 1 I I 0 1 0.5 forward I I I I #
face $-1 $121 $122 $39 $-1 $123 forward single #
loop $-1 $124 $125 $49 #
cone-surface $-1 46.880160969551639 17.846201512022695 6.4414010576300011 -0.52991927123019833 0 -0.84804809178421925 0.42402404589210962 0 -0.26495963561509916 1 I I 0 1 0.5 forward I I I I #
face $-1 $126 $127 $30 $-1 $128 reversed single #
loop $-1 $-1 $129 $50 #
plane-surface $-1 0 0 -11.118604151554617 0 0 1 1 0 0 forward_v I I I I #
coedge $-1 $130 $131 $132 $133 forward $51 $-1 #
face $-1 $134 $135 $31 $-1 $136 reversed single #
loop $-1 $-1 $137 $53 #
plane-surface $-1 -41.589561582495172 -19.061872053874588 0 0 -1 0 0 0 -1 forward_v I I I I #
coedge $-1 $138 $139 $140 $141 forward $54 $-1 #
face $-1 $142 $143 $32 $-1 $144 reversed single #
loop $-1 $-1 $145 $56 #
plane-surface $-1 -53.584398937955882 15.366683179672783 3.3651808705836572 -0.52991927123019833 0 0.84804809178421925 0.84804809178421925 0 0.52991927123019833 forward_v I I I I #
coedge $-1 $146 $147 $148 $149 reversed $57 $-1 #
face $-1 $-1 $150 $33 $-1 $151 forward single #
loop $-1 $152 $153 $59 #
cone-surface $-1 -46.247478566841139 12.887164847322872 5.4288975812448221 0.52991927123019833 0 -0.84804809178421925 0.21201202294605481 0 0.13247981780754958 1 I I -0.70710678118654746 0.70710678118654746 0.25 forward I I I I #
loop $-1 $-1 $154 $43 #
coedge $-1 $96 $96 $155 $156 reversed $60 $-1 #
face $-1 $-1 $157 $34 $-1 $158 forward single #
loop $-1 $159 $160 $62 #
cone-surface $-1 -46.247478566841139 15.366683179672783 5.4288975812448221 0.52991927123019833 0 -0.84804809178421925 0.21201202294605481 0 0.13247981780754958 1 I I -0.70710678118654746 0.70710678118654746 0.25 forward I I I I #
loop $-1 $-1 $161 $44 #
coedge $-1 $101 $101 $162 $163 reversed $63 $-1 #
face $-1 $-1 $164 $35 $-1 $165 forward single #
loop $-1 $166 $167 $65 #
cone-surface $-1 -46.247478566841139 17.846201512022695 5.4288975812448221 0.52991927123019833 0 -0.84804809178421925 0.21201202294605481 0 0.13247981780754958 1 I I -0.70710678118654746 0.70710678118654746 0.25 forward I I I I #
loop $-1 $-1 $168 $45 #
coedge $-1 $106 $106 $169 $170 reversed $66 $-1 #
face $-1 $171 $172 $36 $-1 $173 reversed single #
loop $-1 $-1 $174 $68 #
plane-surface $-1 -37.299895599519758 15.366683179672783 60.155992139603242 0.52991927123019833 0 0.84804809178421925 0.84804809178421925 0 -0.52991927123019833 forward_v I I I I #
coedge $-1 $175 $176 $177 $178 reversed $69 $-1 #
face $-1 $-1 $179 $37 $-1 $180 forward single #
loop $-1 $181 $182 $71 #
cone-surface $-1 46.247478566841153 12.887164847322872 5.428897581244815 -0.52991927123019833 0 -0.84804809178421925 0.21201202294605481 0 -0.13247981780754958 1 I I -0.70710678118654746 0.70710678118654746 0.25 forward I I I I #
loop $-1 $-1 $183 $47 #
coedge $-1 $115 $115 $184 $185 reversed $72 $-1 #
face $-1 $-1 $186 $38 $-1 $187 forward single #
loop $-1 $188 $189 $74 #
cone-surface $-1 46.247478566841153 15.366683179672783 5.428897581244815 -0.52991927123019833 0 -0.84804809178421925 0.21201202294605481 0 -0.13247981780754958 1 I I -0.70710678118654746 0.70710678118654746 0.25 forward I I I I #
loop $-1 $-1 $190 $48 #
coedge $-1 $120 $120 $191 $192 reversed $75 $-1 #
face $-1 $-1 $193 $39 $-1 $194 forward single #
loop $-1 $195 $196 $77 #
cone-surface $-1 46.247478566841153 17.846201512022695 5.428897581244815 -0.52991927123019833 0 -0.84804809178421925 0.21201202294605481 0 -0.13247981780754958 1 I I -0.70710678118654746 0.70710678118654746 0.25 forward I I I I #
loop $-1 $-1 $197 $49 #
coedge $-1 $125 $125 $198 $199 reversed $78 $-1 #
face $-1 $200 $201 $30 $-1 $202 reversed single #
loop $-1 $-1 $203 $80 #
plane-surface $-1 0 -28.017541737852419 0 0 1 0 0 0 1 forward_v I I I I #
coedge $-1 $204 $205 $206 $207 forward $81 $-1 #
coedge $-1 $208 $83 $209 $210 forward $51 $-1 #
coedge $-1 $83 $208 $211 $212 forward $51 $-1 #
coedge $-1 $213 $214 $83 $133 reversed $215 $-1 #
edge $-1 $216 -28.017541737852419 $217 28.017541737852419 $132 $218 forward 7 unknown #
face $-1 $219 $220 $31 $-1 $221 forward single #
loop $-1 $-1 $222 $84 #
plane-surface $-1 -40.089561582495172 -23.539706895863503 0 -1 0 0 0 0 1 forward_v I I I I #
coedge $-1 $223 $224 $225 $226 forward $85 $-1 #
coedge $-1 $227 $87 $228 $229 reversed $54 $-1 #
coedge $-1 $87 $227 $230 $231 reversed $54 $-1 #
coedge $-1 $224 $223 $87 $141 reversed $85 $-1 #
edge $-1 $232 -11.118604151554617 $233 11.118604151554617 $140 $234 forward 7 unknown #
face $-1 $235 $236 $32 $-1 $237 reversed single #
loop $-1 $-1 $238 $88 #
plane-surface $-1 -110.37521020697545 19.499213733589308 94.249475408059297 0 -1 0 0.52991927123019833 0 -0.84804809178421925 forward_v I I I I #
coedge $-1 $239 $240 $241 $242 reversed $89 $-1 #
coedge $-1 $147 $91 $243 $244 reversed $57 $-1 #
coedge $-1 $91 $146 $239 $245 reversed $57 $-1 #
coedge $-1 $241 $246 $91 $149 forward $247 $-1 #
edge $-1 $248 1.6032061655318586 $249 14.011276932534479 $148 $250 forward 7 unknown #
loop $-1 $-1 $155 $92 #
plane-surface $-1 -53.584398937955882 15.366683179672783 3.3651808705836572 -0.52991927123019833 0 0.84804809178421925 0.84804809178421925 0 0.52991927123019833 forward_v I I I I #
loop $-1 $-1 $251 $59 #
coedge $-1 $153 $153 $154 $252 reversed $93 $-1 #
coedge $-1 $154 $154 $153 $252 forward $95 $-1 #
coedge $-1 $155 $155 $96 $156 forward $150 $-1 #
edge $-1 $253 0 $253 6.2831853071796004 $155 $254 forward 7 unknown #
loop $-1 $-1 $162 $97 #
plane-surface $-1 -53.584398937955882 15.366683179672783 3.3651808705836572 -0.52991927123019833 0 0.84804809178421925 0.84804809178421925 0 0.52991927123019833 forward_v I I I I #
loop $-1 $-1 $255 $62 #
coedge $-1 $160 $160 $161 $256 reversed $98 $-1 #
coedge $-1 $161 $161 $160 $256 forward $100 $-1 #
coedge $-1 $162 $162 $101 $163 forward $157 $-1 #
edge $-1 $257 0 $257 6.2831853071796004 $162 $258 forward 7 unknown #
loop $-1 $-1 $169 $102 #
plane-surface $-1 -53.584398937955882 15.366683179672783 3.3651808705836572 -0.52991927123019833 0 0.84804809178421925 0.84804809178421925 0 0.52991927123019833 forward_v I I I I #
loop $-1 $-1 $259 $65 #
coedge $-1 $167 $167 $168 $260 reversed $103 $-1 #
coedge $-1 $168 $168 $167 $260 forward $105 $-1 #
coedge $-1 $169 $169 $106 $170 forward $164 $-1 #
edge $-1 $261 0 $261 6.2831853071796004 $169 $262 forward 7 unknown #
face $-1 $263 $264 $36 $-1 $265 forward single #
loop $-1 $-1 $266 $107 #
plane-surface $-1 19.490915669499813 11.234152625756259 151.04028667707888 0 1 0 0.52991927123019833 0 0.84804809178421925 forward_v I I I I #
coedge $-1 $267 $268 $269 $270 reversed $108 $-1 #
coedge $-1 $176 $110 $271 $272 reversed $69 $-1 #
coedge $-1 $110 $175 $267 $273 reversed $69 $-1 #
coedge $-1 $269 $274 $110 $178 forward $264 $-1 #
edge $-1 $275 -43.838941103205961 $276 -31.430870336203363 $177 $277 forward 7 unknown #
loop $-1 $-1 $184 $111 #
plane-surface $-1 -37.299895599519758 15.366683179672783 60.155992139603242 0.52991927123019833 0 0.84804809178421925 0.84804809178421925 0 -0.52991927123019833 forward_v I I I I #
loop $-1 $-1 $278 $71 #
coedge $-1 $182 $182 $183 $279 reversed $112 $-1 #
coedge $-1 $183 $183 $182 $279 forward $114 $-1 #
coedge $-1 $184 $184 $115 $185 forward $179 $-1 #
edge $-1 $280 0 $280 6.2831853071796004 $184 $281 forward 7 unknown #
loop $-1 $-1 $191 $116 #
plane-surface $-1 -37.299895599519758 15.366683179672783 60.155992139603242 0.52991927123019833 0 0.84804809178421925 0.84804809178421925 0 -0.52991927123019833 forward_v I I I I #
loop $-1 $-1 $282 $74 #
coedge $-1 $189 $189 $190 $283 reversed $117 $-1 #
coedge $-1 $190 $190 $189 $283 forward $119 $-1 #
coedge $-1 $191 $191 $120 $192 forward $186 $-1 #
edge $-1 $284 0 $284 6.2831853071796004 $191 $285 forward 7 unknown #
loop $-1 $-1 $198 $121 #
plane-surface $-1 -37.299895599519758 15.366683179672783 60.155992139603242 0.52991927123019833 0 0.84804809178421925 0.84804809178421925 0 -0.52991927123019833 forward_v I I I I #
loop $-1 $-1 $286 $77 #
coedge $-1 $196 $196 $197 $287 reversed $122 $-1 #
coedge $-1 $197 $197 $196 $287 forward $124 $-1 #
coedge $-1 $198 $198 $125 $199 forward $193 $-1 #
edge $-1 $288 0 $288 6.2831853071796004 $198 $289 forward 7 unknown #
face $-1 $290 $291 $30 $-1 $292 reversed single #
loop $-1 $-1 $293 $126 #
plane-surface $-1 -53.584398937955868 0 0 1 0 0 0 0 -1 forward_v I I I I #
coedge $-1 $294 $211 $295 $296 forward $127 $-1 #
coedge $-1 $297 $129 $294 $298 forward $81 $-1 #
coedge $-1 $129 $297 $299 $300 forward $81 $-1 #
coedge $-1 $214 $213 $129 $207 reversed $215 $-1 #
edge $-1 $301 -28.017541737852419 $302 28.017541737852419 $206 $303 forward 7 unknown #
coedge $-1 $131 $130 $304 $305 forward $51 $-1 #
coedge $-1 $306 $307 $130 $210 reversed $291 $-1 #
edge $-1 $217 -53.584398937955868 $308 53.584398937955868 $209 $309 forward 7 unknown #
coedge $-1 $203 $310 $131 $212 reversed $127 $-1 #
edge $-1 $311 -53.584398937955868 $216 53.584398937955868 $211 $312 forward 7 unknown #
coedge $-1 $206 $132 $310 $313 forward $215 $-1 #
coedge $-1 $132 $206 $306 $314 reversed $215 $-1 #
loop $-1 $-1 $213 $290 #
vertex $-1 $133 $315 #
vertex $-1 $133 $316 #
straight-curve $-1 53.584398937955868 0 11.118604151554617 0 1 0 I I #
face $-1 $317 $318 $31 $-1 $319 reversed single #
loop $-1 $-1 $320 $134 #
plane-surface $-1 0 0 11.118604151554617 0 0 1 1 0 0 forward_v I I I I #
coedge $-1 $321 $322 $323 $324 reversed $135 $-1 #
coedge $-1 $140 $137 $325 $326 reversed $85 $-1 #
coedge $-1 $137 $140 $327 $328 reversed $85 $-1 #
coedge $-1 $322 $321 $137 $226 reversed $135 $-1 #
edge $-1 $329 -11.118604151554617 $330 11.118604151554617 $225 $331 forward 7 unknown #
coedge $-1 $139 $138 $332 $333 reversed $54 $-1 #
coedge $-1 $325 $334 $138 $229 forward $318 $-1 #
edge $-1 $335 -16.247688289920667 $233 -7.292018605942836 $228 $336 forward 7 unknown #
coedge $-1 $337 $327 $139 $231 forward $220 $-1 #
edge $-1 $232 7.292018605942836 $338 16.247688289920667 $230 $339 forward 7 unknown #
vertex $-1 $231 $340 #
vertex $-1 $229 $341 #
straight-curve $-1 -43.089561582495172 -19.061872053874588 0 0 0 -1 I I #
face $-1 $-1 $247 $32 $-1 $342 forward single #
loop $-1 $-1 $343 $142 #
plane-surface $-1 -53.584398937955868 0 0 1 0 0 0 0 -1 forward_v I I I I #
coedge $-1 $344 $345 $346 $347 reversed $143 $-1 #
coedge $-1 $348 $145 $147 $245 forward $89 $-1 #
coedge $-1 $145 $348 $344 $349 forward $89 $-1 #
coedge $-1 $346 $148 $145 $242 forward $247 $-1 #
edge $-1 $249 3.5508110359198675 $350 11.815872143752916 $241 $351 forward 7 unknown #
coedge $-1 $352 $353 $146 $244 forward $236 $-1 #
edge $-1 $354 -43.759556833445984 $248 -36.006133552475035 $243 $355 forward 7 unknown #
edge $-1 $249 -14.631329151271522 $354 -1.675811683274863e-014 $147 $356 forward 7 unknown #
coedge $-1 $148 $346 $352 $357 forward $247 $-1 #
loop $-1 $-1 $346 $235 #
vertex $-1 $244 $358 #
vertex $-1 $149 $359 #
straight-curve $-1 -55.187605103487726 11.234152625756259 11.118604151554614 1 0 0 I I #
coedge $-1 $251 $251 $-1 $360 reversed $152 $-1 #
edge $-1 $361 0 $361 6.2831853071796004 $153 $362 forward 7 unknown #
vertex $-1 $156 $363 #
ellipse-curve $-1 -47.380363554454561 12.887164847322872 7.2418925110691408 -0.52991927123019833 0 0.84804809178421925 0.42402404589210962 0 0.26495963561509916 1 I I #
coedge $-1 $255 $255 $-1 $364 reversed $159 $-1 #
edge $-1 $365 0 $365 6.2831853071796004 $160 $366 forward 7 unknown #
vertex $-1 $163 $367 #
ellipse-curve $-1 -47.380363554454561 15.366683179672783 7.2418925110691408 -0.52991927123019833 0 0.84804809178421925 0.42402404589210962 0 0.26495963561509916 1 I I #
coedge $-1 $259 $259 $-1 $368 reversed $166 $-1 #
edge $-1 $369 0 $369 6.2831853071796004 $167 $370 forward 7 unknown #
vertex $-1 $170 $371 #
ellipse-curve $-1 -47.380363554454561 17.846201512022695 7.2418925110691408 -0.52991927123019833 0 0.84804809178421925 0.42402404589210962 0 0.26495963561509916 1 I I #
face $-1 $-1 $372 $36 $-1 $373 reversed single #
loop $-1 $-1 $177 $171 #
plane-surface $-1 0 0 11.118604151554617 0 0 1 1 0 0 forward_v I I I I #
coedge $-1 $374 $375 $376 $377 reversed $172 $-1 #
coedge $-1 $378 $174 $176 $273 forward $108 $-1 #
coedge $-1 $174 $378 $374 $379 forward $108 $-1 #
coedge $-1 $376 $177 $174 $270 forward $264 $-1 #
edge $-1 $276 -11.815872143752916 $380 -3.5508110359198675 $269 $381 forward 7 unknown #
coedge $-1 $382 $383 $175 $272 forward $372 $-1 #
edge $-1 $384 -72.154962467955755 $275 -64.40153918698482 $271 $385 forward 7 unknown #
edge $-1 $276 92.537468724640249 $384 107.16879787591174 $176 $386 forward 7 unknown #
coedge $-1 $177 $376 $382 $387 forward $264 $-1 #
vertex $-1 $272 $388 #
vertex $-1 $178 $389 #
straight-curve $-1 9.7454578347499066 19.499213733589308 11.118604151554621 -1 0 0 I I #
coedge $-1 $278 $278 $-1 $390 reversed $181 $-1 #
edge $-1 $391 0 $391 6.2831853071796004 $182 $392 forward 7 unknown #
vertex $-1 $185 $393 #
ellipse-curve $-1 47.380363554454576 12.887164847322872 7.2418925110691399 0.52991927123019833 0 0.84804809178421925 0.42402404589210962 0 -0.26495963561509916 1 I I #
coedge $-1 $282 $282 $-1 $394 reversed $188 $-1 #
edge $-1 $395 0 $395 6.2831853071796004 $189 $396 forward 7 unknown #
vertex $-1 $192 $397 #
ellipse-curve $-1 47.380363554454576 15.366683179672783 7.2418925110691399 0.52991927123019833 0 0.84804809178421925 0.42402404589210962 0 -0.26495963561509916 1 I I #
coedge $-1 $286 $286 $-1 $398 reversed $195 $-1 #
edge $-1 $399 0 $399 6.2831853071796004 $196 $400 forward 7 unknown #
vertex $-1 $199 $401 #
ellipse-curve $-1 47.380363554454576 17.846201512022695 7.2418925110691399 0.52991927123019833 0 0.84804809178421925 0.42402404589210962 0 -0.26495963561509916 1 I I #
face $-1 $-1 $215 $30 $-1 $402 reversed single #
loop $-1 $-1 $306 $200 #
plane-surface $-1 0 28.017541737852419 0 0 -1 0 0 0 -1 forward_v I I I I #
coedge $-1 $403 $304 $307 $404 forward $201 $-1 #
coedge $-1 $310 $203 $204 $298 reversed $127 $-1 #
coedge $-1 $304 $403 $203 $296 reversed $201 $-1 #
edge $-1 $311 -11.118604151554617 $405 11.118604151554617 $295 $406 forward 7 unknown #
coedge $-1 $205 $204 $403 $407 forward $81 $-1 #
edge $-1 $302 -53.584398937955868 $405 53.584398937955868 $294 $408 forward 7 unknown #
coedge $-1 $307 $306 $205 $300 reversed $291 $-1 #
edge $-1 $409 -53.584398937955868 $301 53.584398937955868 $299 $410 forward 7 unknown #
vertex $-1 $207 $411 #
vertex $-1 $313 $412 #
straight-curve $-1 53.584398937955868 0 -11.118604151554617 0 -1 0 I I #
coedge $-1 $293 $295 $208 $305 reversed $201 $-1 #
edge $-1 $308 -28.017541737852419 $311 28.017541737852419 $304 $413 forward 7 unknown #
coedge $-1 $299 $209 $214 $314 forward $291 $-1 #
coedge $-1 $209 $299 $293 $404 reversed $291 $-1 #
vertex $-1 $210 $414 #
straight-curve $-1 0 28.017541737852419 11.118604151554617 -1 0 0 I I #
coedge $-1 $211 $294 $213 $313 reversed $127 $-1 #
vertex $-1 $305 $415 #
straight-curve $-1 0 -28.017541737852419 11.118604151554617 1 0 0 I I #
edge $-1 $216 -11.118604151554617 $302 11.118604151554617 $213 $416 forward 7 unknown #
edge $-1 $217 -11.118604151554617 $301 11.118604151554617 $214 $417 forward 7 unknown #
point $-1 53.584398937955868 -28.017541737852419 11.118604151554617 #
point $-1 53.584398937955868 28.017541737852419 11.118604151554617 #
face $-1 $-1 $418 $31 $-1 $419 reversed single #
loop $-1 $-1 $420 $219 #
plane-surface $-1 0 0 -11.118604151554617 0 0 1 1 0 0 forward_v I I I I #
coedge $-1 $327 $337 $322 $421 forward $220 $-1 #
coedge $-1 $225 $222 $420 $422 reversed $135 $-1 #
coedge $-1 $222 $225 $320 $421 reversed $135 $-1 #
coedge $-1 $423 $424 $222 $324 forward $418 $-1 #
edge $-1 $425 -11.118604151554617 $426 11.118604151554617 $323 $427 forward 7 unknown #
coedge $-1 $420 $228 $223 $326 forward $318 $-1 #
edge $-1 $233 -22.294780791247586 $330 -19.294780791247586 $325 $428 forward 7 unknown #
coedge $-1 $230 $320 $224 $328 forward $220 $-1 #
edge $-1 $329 19.294780791247586 $232 22.294780791247586 $327 $429 forward 7 unknown #
vertex $-1 $328 $430 #
vertex $-1 $326 $431 #
straight-curve $-1 -40.089561582495172 -19.061872053874588 0 0 0 -1 I I #
coedge $-1 $424 $423 $227 $333 forward $418 $-1 #
edge $-1 $338 -11.118604151554617 $335 11.118604151554617 $332 $432 forward 7 unknown #
coedge $-1 $228 $420 $424 $433 forward $318 $-1 #
vertex $-1 $229 $434 #
straight-curve $-1 -43.089561582495172 -11.769853447931752 -11.118604151554617 0 1 0 I I #
coedge $-1 $320 $230 $423 $435 forward $220 $-1 #
vertex $-1 $435 $436 #
straight-curve $-1 -43.089561582495172 -11.769853447931752 11.118604151554617 0 -1 0 I I #
point $-1 -43.089561582495172 -19.061872053874588 11.118604151554617 #
point $-1 -43.089561582495172 -19.061872053874588 -11.118604151554617 #
plane-surface $-1 0 0 11.118604151554617 0 0 1 1 0 0 forward_v I I I I #
coedge $-1 $353 $352 $345 $437 forward $236 $-1 #
coedge $-1 $345 $238 $240 $349 reversed $143 $-1 #
coedge $-1 $238 $344 $343 $437 reversed $143 $-1 #
coedge $-1 $246 $241 $238 $347 forward $247 $-1 #
edge $-1 $350 -14.011276932534479 $438 -1.6032061655318586 $346 $439 forward 7 unknown #
coedge $-1 $240 $239 $353 $440 reversed $89 $-1 #
edge $-1 $441 1.675811683274863e-014 $350 14.631329151271522 $344 $442 forward 7 unknown #
vertex $-1 $242 $443 #
straight-curve $-1 -41.176328170953255 7.6833415898363917 11.118604151554617 0 1 0 I I #
coedge $-1 $343 $243 $246 $357 reversed $236 $-1 #
coedge $-1 $243 $343 $348 $440 forward $236 $-1 #
vertex $-1 $244 $444 #
straight-curve $-1 -53.584398937955868 11.234152625756259 47.124737704029648 0 0 1 I I #
straight-curve $-1 -53.584398937955882 11.234152625756259 3.3651808705836572 -0.84804809178421925 0 -0.52991927123019833 I I #
edge $-1 $438 -19.499213733589308 $248 -11.234152625756259 $352 $445 forward 7 unknown #
point $-1 -53.584398937955868 11.234152625756259 11.118604151554617 #
point $-1 -41.176328170953248 11.234152625756259 11.118604151554617 #
edge $-1 $446 1 $446 0 $251 $-1 forward 7 unknown #
vertex $-1 $252 $447 #
ellipse-curve $-1 -46.379958384648688 12.887164847322872 5.6409096041908766 -0.52991927123019833 0 0.84804809178421925 0.42402404589210962 0 0.26495963561509916 1 I I #
point $-1 -46.956339508562444 12.887164847322872 7.5068521466842384 #
edge $-1 $448 1 $448 0 $255 $-1 forward 7 unknown #
vertex $-1 $256 $449 #
ellipse-curve $-1 -46.379958384648688 15.366683179672783 5.6409096041908766 -0.52991927123019833 0 0.84804809178421925 0.42402404589210962 0 0.26495963561509916 1 I I #
point $-1 -46.956339508562444 15.366683179672783 7.5068521466842384 #
edge $-1 $450 1 $450 0 $259 $-1 forward 7 unknown #
vertex $-1 $260 $451 #
ellipse-curve $-1 -46.379958384648688 17.846201512022695 5.6409096041908766 -0.52991927123019833 0 0.84804809178421925 0.42402404589210962 0 0.26495963561509916 1 I I #
point $-1 -46.956339508562444 17.846201512022695 7.5068521466842384 #
loop $-1 $-1 $271 $263 #
plane-surface $-1 53.584398937955868 0 0 -1 0 0 0 0 1 forward_v I I I I #
coedge $-1 $375 $266 $268 $379 reversed $172 $-1 #
coedge $-1 $266 $374 $452 $453 reversed $172 $-1 #
coedge $-1 $274 $269 $266 $377 forward $264 $-1 #
edge $-1 $380 31.430870336203363 $454 43.838941103205961 $376 $455 forward 7 unknown #
coedge $-1 $268 $267 $383 $456 reversed $108 $-1 #
edge $-1 $457 -107.16879787591174 $380 -92.537468724640249 $374 $458 forward 7 unknown #
vertex $-1 $270 $459 #
straight-curve $-1 41.176328170953269 7.6833415898363917 11.118604151554607 0 -1 0 I I #
coedge $-1 $452 $271 $274 $387 reversed $372 $-1 #
coedge $-1 $271 $452 $378 $456 forward $372 $-1 #
vertex $-1 $272 $460 #
straight-curve $-1 53.584398937955868 19.499213733589308 75.520143338539441 0 0 1 I I #
straight-curve $-1 -37.299895599519758 19.499213733589308 60.155992139603242 0.84804809178421925 0 -0.52991927123019833 I I #
edge $-1 $454 11.234152625756259 $275 19.499213733589308 $382 $461 forward 7 unknown #
point $-1 53.584398937955868 19.499213733589308 11.118604151554617 #
point $-1 41.176328170953269 19.499213733589308 11.118604151554621 #
edge $-1 $462 1 $462 0 $278 $-1 forward 7 unknown #
vertex $-1 $279 $463 #
ellipse-curve $-1 46.379958384648702 12.887164847322872 5.6409096041908695 0.52991927123019833 0 0.84804809178421925 0.42402404589210962 0 -0.26495963561509916 1 I I #
point $-1 47.804387600346679 12.887164847322872 6.9769328754540325 #
edge $-1 $464 1 $464 0 $282 $-1 forward 7 unknown #
vertex $-1 $283 $465 #
ellipse-curve $-1 46.379958384648702 15.366683179672783 5.6409096041908695 0.52991927123019833 0 0.84804809178421925 0.42402404589210962 0 -0.26495963561509916 1 I I #
point $-1 47.804387600346679 15.366683179672783 6.9769328754540325 #
edge $-1 $466 1 $466 0 $286 $-1 forward 7 unknown #
vertex $-1 $287 $467 #
ellipse-curve $-1 46.379958384648702 17.846201512022695 5.6409096041908695 0.52991927123019833 0 0.84804809178421925 0.42402404589210962 0 -0.26495963561509916 1 I I #
point $-1 47.804387600346679 17.846201512022695 6.9769328754540325 #
plane-surface $-1 53.584398937955868 0 0 -1 0 0 0 0 1 forward_v I I I I #
coedge $-1 $295 $293 $297 $407 reversed $201 $-1 #
edge $-1 $308 -11.118604151554617 $409 11.118604151554617 $307 $468 forward 7 unknown #
vertex $-1 $407 $469 #
straight-curve $-1 -53.584398937955868 -28.017541737852419 0 0 0 -1 I I #
edge $-1 $405 -28.017541737852419 $409 28.017541737852419 $403 $470 forward 7 unknown #
straight-curve $-1 0 -28.017541737852419 -11.118604151554617 -1 0 0 I I #
vertex $-1 $300 $471 #
straight-curve $-1 0 28.017541737852419 -11.118604151554617 1 0 0 I I #
point $-1 53.584398937955868 28.017541737852419 -11.118604151554617 #
point $-1 53.584398937955868 -28.017541737852419 -11.118604151554617 #
straight-curve $-1 -53.584398937955868 0 11.118604151554617 0 -1 0 I I #
point $-1 -53.584398937955868 28.017541737852419 11.118604151554617 #
point $-1 -53.584398937955868 -28.017541737852419 11.118604151554617 #
straight-curve $-1 53.584398937955868 -28.017541737852419 0 0 0 -1 I I #
straight-curve $-1 53.584398937955868 28.017541737852419 0 0 0 -1 I I #
loop $-1 $-1 $323 $317 #
plane-surface $-1 0 -28.017541737852419 0 0 1 0 0 0 1 forward_v I I I I #
coedge $-1 $334 $325 $321 $422 forward $318 $-1 #
edge $-1 $426 -16.247688289920667 $329 -7.292018605942836 $320 $472 forward 7 unknown #
edge $-1 $330 7.292018605942836 $425 16.247688289920667 $420 $473 forward 7 unknown #
coedge $-1 $332 $323 $337 $435 reversed $418 $-1 #
coedge $-1 $323 $332 $334 $433 reversed $418 $-1 #
vertex $-1 $433 $474 #
vertex $-1 $324 $475 #
straight-curve $-1 -40.089561582495172 -28.017541737852419 0 0 0 1 I I #
straight-curve $-1 -20.794780791247586 -19.061872053874588 -11.118604151554617 1 0 0 I I #
straight-curve $-1 -20.794780791247586 -19.061872053874588 11.118604151554617 -1 0 0 I I #
point $-1 -40.089561582495172 -19.061872053874588 11.118604151554617 #
point $-1 -40.089561582495172 -19.061872053874588 -11.118604151554617 #
straight-curve $-1 -43.089561582495172 -28.017541737852419 0 0 0 -1 I I #
edge $-1 $425 40.089561582495172 $335 43.089561582495172 $424 $476 forward 7 unknown #
point $-1 -43.089561582495172 -28.017541737852419 -11.118604151554617 #
edge $-1 $338 -43.089561582495172 $426 -40.089561582495172 $423 $477 forward 7 unknown #
point $-1 -43.089561582495172 -28.017541737852419 11.118604151554617 #
edge $-1 $438 36.006133552475035 $441 43.759556833445984 $343 $478 forward 7 unknown #
vertex $-1 $357 $479 #
straight-curve $-1 -55.187605103487726 19.499213733589308 11.118604151554614 -1 0 0 I I #
edge $-1 $441 -11.815872143752916 $354 -3.5508110359198675 $353 $480 forward 7 unknown #
vertex $-1 $440 $481 #
straight-curve $-1 -53.584398937955882 19.499213733589308 3.3651808705836572 0.84804809178421925 0 0.52991927123019833 I I #
point $-1 -41.176328170953248 19.499213733589308 11.118604151554617 #
point $-1 -53.584398937955868 11.234152625756259 3.3651808705836661 #
straight-curve $-1 -53.584398937955868 0 11.118604151554617 0 -1 0 I I #
vertex $-1 $360 $482 #
point $-1 -45.955934338756578 12.887164847322872 5.905869239805976 #
vertex $-1 $364 $483 #
point $-1 -45.955934338756578 15.366683179672783 5.905869239805976 #
vertex $-1 $368 $484 #
point $-1 -45.955934338756578 17.846201512022695 5.905869239805976 #
coedge $-1 $383 $382 $375 $453 forward $372 $-1 #
edge $-1 $454 64.40153918698482 $457 72.154962467955755 $452 $485 forward 7 unknown #
vertex $-1 $387 $486 #
straight-curve $-1 9.7454578347499066 11.234152625756259 11.118604151554621 1 0 0 I I #
edge $-1 $457 3.5508110359198675 $384 11.815872143752916 $383 $487 forward 7 unknown #
vertex $-1 $456 $488 #
straight-curve $-1 -37.299895599519758 11.234152625756259 60.155992139603242 -0.84804809178421925 0 0.52991927123019833 I I #
point $-1 41.176328170953269 11.234152625756259 11.118604151554621 #
point $-1 53.584398937955868 19.499213733589308 3.3651808705836785 #
straight-curve $-1 53.584398937955868 0 11.118604151554617 0 1 0 I I #
vertex $-1 $390 $489 #
point $-1 46.803982430540813 12.887164847322872 5.375949968575771 #
vertex $-1 $394 $490 #
point $-1 46.803982430540813 15.366683179672783 5.375949968575771 #
vertex $-1 $398 $491 #
point $-1 46.803982430540813 17.846201512022695 5.375949968575771 #
straight-curve $-1 -53.584398937955868 28.017541737852419 0 0 0 -1 I I #
point $-1 -53.584398937955868 -28.017541737852419 -11.118604151554617 #
straight-curve $-1 -53.584398937955868 0 -11.118604151554617 0 1 0 I I #
point $-1 -53.584398937955868 28.017541737852419 -11.118604151554617 #
straight-curve $-1 -40.089561582495172 -11.769853447931752 11.118604151554617 0 1 0 I I #
straight-curve $-1 -40.089561582495172 -11.769853447931752 -11.118604151554617 0 -1 0 I I #
point $-1 -40.089561582495172 -28.017541737852419 -11.118604151554617 #
point $-1 -40.089561582495172 -28.017541737852419 11.118604151554617 #
straight-curve $-1 0 -28.017541737852419 -11.118604151554617 -1 0 0 I I #
straight-curve $-1 0 -28.017541737852419 11.118604151554617 1 0 0 I I #
straight-curve $-1 -53.584398937955868 19.499213733589308 47.124737704029648 0 0 -1 I I #
point $-1 -53.584398937955868 19.499213733589308 11.118604151554617 #
straight-curve $-1 -53.584398937955868 7.6833415898363917 3.3651808705836683 0 -1 0 I I #
point $-1 -53.584398937955868 19.499213733589308 3.3651808705836661 #
point $-1 -46.114998749033589 12.887164847322872 5.2168855582987677 #
point $-1 -46.114998749033589 15.366683179672783 5.2168855582987677 #
point $-1 -46.114998749033589 17.846201512022695 5.2168855582987677 #
straight-curve $-1 53.584398937955868 11.234152625756259 75.520143338539441 0 0 -1 I I #
point $-1 53.584398937955868 11.234152625756259 11.118604151554617 #
straight-curve $-1 53.584398937955875 7.6833415898363917 3.365180870583675 0 1 0 I I #
point $-1 53.584398937955868 11.234152625756259 3.3651808705836785 #
point $-1 46.114998749033603 12.887164847322872 5.2168855582987606 #
point $-1 46.114998749033603 15.366683179672783 5.2168855582987606 #
point $-1 46.114998749033603 17.846201512022695 5.2168855582987606 #
End-of-ACIS-data 