500 0 3 0           
7 Unknown 11 ACIS 5.0 NT 24 Thu Mar 25 19:03:42 1999 
-1 9.9999999999999995e-007 1e-010 
body $-1 $3 $-1 $4 #
body $-1 $5 $-1 $6 #
body $-1 $7 $-1 $8 #
lump $-1 $-1 $9 $0 #
transform $-1 1 0 0 0 1 0 0 0 1 57.161168248542744 32.817387289810959 9.6032446677557424 1 rotate no_reflect no_shear #
lump $-1 $-1 $10 $1 #
transform $-1 1 0 0 0 1 0 0 0 1 57.161168248542744 32.817387289810959 9.6032446677557424 1 rotate no_reflect no_shear #
lump $-1 $-1 $11 $2 #
transform $-1 1 0 0 0 1 0 0 0 1 57.161168248542744 32.817387289810959 9.6032446677557424 1 rotate no_reflect no_shear #
shell $-1 $-1 $-1 $12 $-1 $3 #
shell $-1 $-1 $-1 $13 $-1 $5 #
shell $-1 $-1 $-1 $14 $-1 $7 #
face $-1 $15 $16 $9 $-1 $17 forward single #
face $-1 $18 $19 $10 $-1 $20 forward single #
face $-1 $21 $22 $11 $-1 $23 forward single #
face $-1 $24 $25 $9 $-1 $26 reversed single #
loop $-1 $-1 $27 $12 #
plane-surface $-1 0 0 9.6032446677557424 0 0 1 1 0 0 forward_v I I I I #
face $-1 $28 $29 $10 $-1 $30 forward single #
loop $-1 $-1 $31 $13 #
plane-surface $-1 0 -32.817387289810959 0 0 1 0 0 0 1 forward_v I I I I #
face $-1 $32 $33 $11 $-1 $34 reversed single #
loop $-1 $-1 $35 $14 #
plane-surface $-1 0 28.416840438211715 6.1833052817734862 0 0 1 1 0 0 forward_v I I I I #
face $-1 $36 $37 $9 $-1 $38 reversed single #
loop $-1 $-1 $39 $15 #
plane-surface $-1 0 0 -9.6032446677557424 0 0 1 1 0 0 forward_v I I I I #
coedge $-1 $40 $41 $42 $43 forward $16 $-1 #
face $-1 $44 $45 $10 $-1 $46 reversed single #
loop $-1 $-1 $47 $18 #
plane-surface $-1 0 0 9.6032446677557424 0 0 1 1 0 0 forward_v I I I I #
coedge $-1 $48 $49 $50 $51 forward $19 $-1 #
face $-1 $52 $53 $11 $-1 $54 reversed single #
loop $-1 $-1 $55 $21 #
plane-surface $-1 0 28.416840438211715 2.24816425104268 0 0 1 1 0 0 forward_v I I I I #
coedge $-1 $56 $57 $58 $59 reversed $22 $-1 #
face $-1 $60 $61 $9 $-1 $62 reversed single #
loop $-1 $-1 $63 $24 #
plane-surface $-1 0 -32.817387289810959 0 0 1 0 0 0 1 forward_v I I I I #
coedge $-1 $64 $65 $66 $67 forward $25 $-1 #
coedge $-1 $68 $27 $69 $70 forward $16 $-1 #
coedge $-1 $27 $68 $71 $72 forward $16 $-1 #
coedge $-1 $73 $74 $27 $43 reversed $75 $-1 #
edge $-1 $76 -32.817387289810959 $77 32.817387289810959 $42 $78 forward 7 unknown #
face $-1 $79 $80 $10 $-1 $81 reversed single #
loop $-1 $-1 $82 $28 #
plane-surface $-1 -57.161168248542744 0 0 1 0 0 0 0 -1 forward_v I I I I #
coedge $-1 $83 $84 $49 $85 forward $29 $-1 #
coedge $-1 $86 $31 $87 $88 reversed $19 $-1 #
coedge $-1 $31 $86 $47 $85 reversed $19 $-1 #
coedge $-1 $89 $90 $31 $51 reversed $91 $-1 #
edge $-1 $92 -9.6032446677557424 $93 9.6032446677557424 $50 $94 forward 7 unknown #
face $-1 $95 $96 $11 $-1 $97 reversed single #
loop $-1 $-1 $98 $32 #
plane-surface $-1 0 24.01629358661247 4.2157347664080831 0 1 0 0 0 1 forward_v I I I I #
coedge $-1 $99 $100 $101 $102 reversed $33 $-1 #
coedge $-1 $103 $35 $104 $105 reversed $22 $-1 #
coedge $-1 $35 $103 $106 $107 forward $22 $-1 #
coedge $-1 $108 $109 $35 $59 forward $110 $-1 #
edge $-1 $111 -18.608967070705102 $112 -9.8078733675066125 $58 $113 forward 7 unknown #
face $-1 $114 $115 $9 $-1 $116 reversed single #
loop $-1 $-1 $117 $36 #
plane-surface $-1 -57.161168248542744 0 0 1 0 0 0 0 -1 forward_v I I I I #
coedge $-1 $118 $71 $119 $120 forward $37 $-1 #
coedge $-1 $121 $39 $118 $122 forward $25 $-1 #
coedge $-1 $39 $121 $123 $124 forward $25 $-1 #
coedge $-1 $74 $73 $39 $67 reversed $75 $-1 #
edge $-1 $125 -32.817387289810959 $126 32.817387289810959 $66 $127 forward 7 unknown #
coedge $-1 $41 $40 $128 $129 forward $16 $-1 #
coedge $-1 $130 $131 $40 $70 reversed $115 $-1 #
edge $-1 $77 -57.161168248542744 $132 57.161168248542744 $69 $133 forward 7 unknown #
coedge $-1 $63 $134 $41 $72 reversed $37 $-1 #
edge $-1 $135 -57.161168248542744 $76 57.161168248542744 $71 $136 forward 7 unknown #
coedge $-1 $66 $42 $134 $137 forward $75 $-1 #
coedge $-1 $42 $66 $130 $138 reversed $75 $-1 #
loop $-1 $-1 $73 $114 #
vertex $-1 $43 $139 #
vertex $-1 $43 $140 #
straight-curve $-1 57.161168248542744 0 9.6032446677557424 0 1 0 I I #
face $-1 $141 $91 $10 $-1 $142 reversed single #
loop $-1 $-1 $143 $44 #
plane-surface $-1 -55.309890573051774 -42.87848812229813 0 0 1 0 0 0 1 forward_v I I I I #
coedge $-1 $144 $145 $86 $146 forward $45 $-1 #
coedge $-1 $147 $47 $145 $148 forward $29 $-1 #
coedge $-1 $47 $147 $89 $149 forward $29 $-1 #
edge $-1 $92 53.458612897560805 $150 57.161168248542744 $47 $151 forward 7 unknown #
coedge $-1 $49 $48 $82 $146 reversed $19 $-1 #
coedge $-1 $152 $153 $48 $88 forward $154 $-1 #
edge $-1 $155 -57.161168248542744 $93 -53.458612897560805 $87 $156 forward 7 unknown #
coedge $-1 $157 $50 $84 $149 reversed $91 $-1 #
coedge $-1 $50 $157 $152 $158 reversed $91 $-1 #
loop $-1 $-1 $157 $79 #
vertex $-1 $85 $159 #
vertex $-1 $158 $160 #
straight-curve $-1 -53.458612897560805 -32.817387289810959 0 0 0 -1 I I #
face $-1 $161 $110 $11 $-1 $162 reversed single #
loop $-1 $-1 $163 $52 #
plane-surface $-1 -57.161168248542744 0 0 1 0 0 0 0 -1 forward_v I I I I #
coedge $-1 $164 $106 $165 $166 reversed $53 $-1 #
coedge $-1 $167 $55 $164 $168 forward $33 $-1 #
coedge $-1 $55 $167 $169 $170 reversed $33 $-1 #
coedge $-1 $109 $108 $55 $102 forward $110 $-1 #
edge $-1 $171 9.8078733675066125 $172 18.608967070705102 $101 $173 forward 7 unknown #
coedge $-1 $57 $56 $174 $175 reversed $22 $-1 #
coedge $-1 $176 $177 $56 $105 forward $178 $-1 #
edge $-1 $179 -57.161168248542744 $111 57.161168248542744 $104 $180 forward 7 unknown #
coedge $-1 $98 $181 $57 $107 reversed $53 $-1 #
edge $-1 $182 -57.161168248542744 $112 57.161168248542744 $106 $183 forward 7 unknown #
coedge $-1 $101 $58 $181 $184 forward $110 $-1 #
coedge $-1 $58 $101 $176 $185 reversed $110 $-1 #
loop $-1 $-1 $58 $95 #
vertex $-1 $185 $186 #
vertex $-1 $59 $187 #
straight-curve $-1 57.161168248542744 14.208420219105857 6.1833052817734862 0 -1 0 I I #
face $-1 $-1 $75 $9 $-1 $188 reversed single #
loop $-1 $-1 $130 $60 #
plane-surface $-1 0 32.817387289810959 0 0 -1 0 0 0 -1 forward_v I I I I #
coedge $-1 $189 $128 $131 $190 forward $61 $-1 #
coedge $-1 $134 $63 $64 $122 reversed $37 $-1 #
coedge $-1 $128 $189 $63 $120 reversed $61 $-1 #
edge $-1 $135 -9.6032446677557424 $191 9.6032446677557424 $119 $192 forward 7 unknown #
coedge $-1 $65 $64 $189 $193 forward $25 $-1 #
edge $-1 $126 -57.161168248542744 $191 57.161168248542744 $118 $194 forward 7 unknown #
coedge $-1 $131 $130 $65 $124 reversed $115 $-1 #
edge $-1 $195 -57.161168248542744 $125 57.161168248542744 $123 $196 forward 7 unknown #
vertex $-1 $67 $197 #
vertex $-1 $137 $198 #
straight-curve $-1 57.161168248542744 0 -9.6032446677557424 0 -1 0 I I #
coedge $-1 $117 $119 $68 $129 reversed $61 $-1 #
edge $-1 $132 -32.817387289810959 $135 32.817387289810959 $128 $199 forward 7 unknown #
coedge $-1 $123 $69 $74 $138 forward $115 $-1 #
coedge $-1 $69 $123 $117 $190 reversed $115 $-1 #
vertex $-1 $70 $200 #
straight-curve $-1 0 32.817387289810959 9.6032446677557424 -1 0 0 I I #
coedge $-1 $71 $118 $73 $137 reversed $37 $-1 #
vertex $-1 $129 $201 #
straight-curve $-1 0 -32.817387289810959 9.6032446677557424 1 0 0 I I #
edge $-1 $76 -9.6032446677557424 $126 9.6032446677557424 $73 $202 forward 7 unknown #
edge $-1 $77 -9.6032446677557424 $125 9.6032446677557424 $74 $203 forward 7 unknown #
point $-1 57.161168248542744 -32.817387289810959 9.6032446677557424 #
point $-1 57.161168248542744 32.817387289810959 9.6032446677557424 #
face $-1 $-1 $154 $10 $-1 $204 reversed single #
plane-surface $-1 -53.458612897560805 -37.847937706054545 0 -1 0 0 0 0 1 forward_v I I I I #
coedge $-1 $205 $206 $207 $208 forward $80 $-1 #
coedge $-1 $207 $82 $153 $209 reversed $45 $-1 #
coedge $-1 $82 $207 $83 $148 reversed $45 $-1 #
edge $-1 $150 -9.6032446677557424 $155 9.6032446677557424 $82 $210 forward 7 unknown #
coedge $-1 $84 $83 $206 $211 forward $29 $-1 #
edge $-1 $150 32.817387289810959 $212 42.87848812229813 $145 $213 forward 7 unknown #
edge $-1 $214 -5.0305504162435852 $92 5.0305504162435852 $89 $215 forward 7 unknown #
vertex $-1 $148 $216 #
straight-curve $-1 0 -32.817387289810959 9.6032446677557424 -1 0 0 I I #
coedge $-1 $217 $87 $90 $158 forward $154 $-1 #
coedge $-1 $87 $217 $144 $209 forward $154 $-1 #
loop $-1 $-1 $87 $141 #
vertex $-1 $146 $218 #
straight-curve $-1 0 -32.817387289810959 -9.6032446677557424 1 0 0 I I #
coedge $-1 $90 $89 $219 $220 forward $91 $-1 #
edge $-1 $93 -5.0305504162435852 $221 5.0305504162435852 $90 $222 forward 7 unknown #
point $-1 -53.458612897560805 -32.817387289810959 9.6032446677557424 #
point $-1 -53.458612897560805 -32.817387289810959 -9.6032446677557424 #
face $-1 $-1 $178 $11 $-1 $223 reversed single #
plane-surface $-1 57.161168248542744 0 0 -1 0 0 0 0 1 forward_v I I I I #
coedge $-1 $165 $224 $167 $225 forward $96 $-1 #
coedge $-1 $181 $98 $99 $168 reversed $53 $-1 #
coedge $-1 $174 $163 $98 $166 forward $96 $-1 #
edge $-1 $226 0.14029686783863848 $182 4.0754378985694446 $165 $227 forward 7 unknown #
coedge $-1 $100 $99 $163 $225 reversed $33 $-1 #
edge $-1 $171 -57.161168248542744 $226 57.161168248542744 $164 $228 forward 7 unknown #
coedge $-1 $177 $176 $100 $170 forward $178 $-1 #
edge $-1 $172 -57.161168248542744 $229 57.161168248542744 $169 $230 forward 7 unknown #
vertex $-1 $102 $231 #
vertex $-1 $102 $232 #
straight-curve $-1 57.161168248542744 14.208420219105857 2.24816425104268 0 1 0 I I #
coedge $-1 $224 $165 $103 $175 forward $96 $-1 #
edge $-1 $182 9.8078733675066125 $179 18.608967070705102 $174 $233 forward 7 unknown #
coedge $-1 $169 $104 $109 $185 forward $178 $-1 #
coedge $-1 $104 $169 $224 $234 reversed $178 $-1 #
loop $-1 $-1 $169 $161 #
vertex $-1 $234 $235 #
straight-curve $-1 0 32.817387289810959 6.1833052817734862 1 0 0 I I #
coedge $-1 $106 $164 $108 $184 reversed $53 $-1 #
vertex $-1 $175 $236 #
straight-curve $-1 0 24.01629358661247 6.1833052817734862 1 0 0 I I #
edge $-1 $112 -4.0754378985694446 $171 -0.14029686783863848 $108 $237 forward 7 unknown #
edge $-1 $111 -6.1833052817734862 $172 -2.24816425104268 $109 $238 forward 7 unknown #
point $-1 57.161168248542744 32.817387289810959 6.1833052817734862 #
point $-1 57.161168248542744 24.01629358661247 6.1833052817734862 #
plane-surface $-1 57.161168248542744 0 0 -1 0 0 0 0 1 forward_v I I I I #
coedge $-1 $119 $117 $121 $193 reversed $61 $-1 #
edge $-1 $132 -9.6032446677557424 $195 9.6032446677557424 $131 $239 forward 7 unknown #
vertex $-1 $193 $240 #
straight-curve $-1 -57.161168248542744 -32.817387289810959 0 0 0 -1 I I #
edge $-1 $191 -32.817387289810959 $195 32.817387289810959 $189 $241 forward 7 unknown #
straight-curve $-1 0 -32.817387289810959 -9.6032446677557424 -1 0 0 I I #
vertex $-1 $124 $242 #
straight-curve $-1 0 32.817387289810959 -9.6032446677557424 1 0 0 I I #
point $-1 57.161168248542744 32.817387289810959 -9.6032446677557424 #
point $-1 57.161168248542744 -32.817387289810959 -9.6032446677557424 #
straight-curve $-1 -57.161168248542744 0 9.6032446677557424 0 -1 0 I I #
point $-1 -57.161168248542744 32.817387289810959 9.6032446677557424 #
point $-1 -57.161168248542744 -32.817387289810959 9.6032446677557424 #
straight-curve $-1 57.161168248542744 -32.817387289810959 0 0 0 -1 I I #
straight-curve $-1 57.161168248542744 32.817387289810959 0 0 0 -1 I I #
plane-surface $-1 0 0 -9.6032446677557424 0 0 1 1 0 0 forward_v I I I I #
coedge $-1 $219 $143 $217 $243 reversed $80 $-1 #
coedge $-1 $143 $219 $147 $211 reversed $80 $-1 #
coedge $-1 $145 $144 $143 $208 reversed $45 $-1 #
edge $-1 $212 -9.6032446677557424 $244 9.6032446677557424 $207 $245 forward 7 unknown #
edge $-1 $244 -42.87848812229813 $155 -32.817387289810959 $144 $246 forward 7 unknown #
straight-curve $-1 -57.161168248542744 -32.817387289810959 0 0 0 -1 I I #
edge $-1 $212 -1.8512776754909694 $214 1.8512776754909694 $206 $247 forward 7 unknown #
vertex $-1 $148 $248 #
straight-curve $-1 -57.161168248542744 0 9.6032446677557424 0 -1 0 I I #
vertex $-1 $149 $249 #
straight-curve $-1 -53.458612897560805 -37.847937706054545 9.6032446677557424 0 1 0 I I #
point $-1 -57.161168248542744 -32.817387289810959 9.6032446677557424 #
coedge $-1 $153 $152 $205 $243 forward $154 $-1 #
point $-1 -57.161168248542744 -32.817387289810959 -9.6032446677557424 #
coedge $-1 $206 $205 $157 $220 reversed $80 $-1 #
edge $-1 $214 -9.6032446677557424 $221 9.6032446677557424 $157 $250 forward 7 unknown #
vertex $-1 $220 $251 #
straight-curve $-1 -53.458612897560805 -37.847937706054545 -9.6032446677557424 0 -1 0 I I #
plane-surface $-1 0 32.817387289810959 0 0 -1 0 0 0 -1 forward_v I I I I #
coedge $-1 $163 $174 $177 $234 forward $96 $-1 #
edge $-1 $229 -18.608967070705102 $226 -9.8078733675066125 $163 $252 forward 7 unknown #
vertex $-1 $225 $253 #
straight-curve $-1 -57.161168248542744 24.01629358661247 2.1078673832040415 0 0 1 I I #
straight-curve $-1 0 24.01629358661247 2.24816425104268 -1 0 0 I I #
vertex $-1 $170 $254 #
straight-curve $-1 0 32.817387289810959 2.24816425104268 -1 0 0 I I #
point $-1 57.161168248542744 24.01629358661247 2.24816425104268 #
point $-1 57.161168248542744 32.817387289810959 2.24816425104268 #
straight-curve $-1 -57.161168248542744 14.208420219105857 6.1833052817734862 0 1 0 I I #
edge $-1 $179 -6.1833052817734862 $229 -2.24816425104268 $177 $255 forward 7 unknown #
point $-1 -57.161168248542744 32.817387289810959 6.1833052817734862 #
point $-1 -57.161168248542744 24.01629358661247 6.1833052817734862 #
straight-curve $-1 57.161168248542744 24.01629358661247 2.1078673832040415 0 0 -1 I I #
straight-curve $-1 57.161168248542744 32.817387289810959 0 0 0 -1 I I #
straight-curve $-1 -57.161168248542744 32.817387289810959 0 0 0 -1 I I #
point $-1 -57.161168248542744 -32.817387289810959 -9.6032446677557424 #
straight-curve $-1 -57.161168248542744 0 -9.6032446677557424 0 1 0 I I #
point $-1 -57.161168248542744 32.817387289810959 -9.6032446677557424 #
edge $-1 $221 -1.8512776754909694 $244 1.8512776754909694 $205 $256 forward 7 unknown #
vertex $-1 $209 $257 #
straight-curve $-1 -57.161168248542744 -42.87848812229813 0 0 0 -1 I I #
straight-curve $-1 -57.161168248542744 0 -9.6032446677557424 0 1 0 I I #
straight-curve $-1 -55.309890573051774 -42.87848812229813 9.6032446677557424 1 0 0 I I #
point $-1 -57.161168248542744 -42.87848812229813 9.6032446677557424 #
point $-1 -53.458612897560805 -42.87848812229813 9.6032446677557424 #
straight-curve $-1 -53.458612897560805 -42.87848812229813 0 0 0 -1 I I #
point $-1 -53.458612897560805 -42.87848812229813 -9.6032446677557424 #
straight-curve $-1 -57.161168248542744 14.208420219105857 2.24816425104268 0 -1 0 I I #
point $-1 -57.161168248542744 24.01629358661247 2.24816425104268 #
point $-1 -57.161168248542744 32.817387289810959 2.24816425104268 #
straight-curve $-1 -57.161168248542744 32.817387289810959 0 0 0 -1 I I #
straight-curve $-1 -55.309890573051774 -42.87848812229813 -9.6032446677557424 -1 0 0 I I #
point $-1 -57.161168248542744 -42.87848812229813 -9.6032446677557424 #
End-of-ACIS-data 