500 0 10 0           
7 Unknown 11 ACIS 5.0 NT 24 Thu Mar 25 15:17:11 1999 
-1 9.9999999999999995e-007 1e-010 
body $-1 $10 $-1 $11 #
body $-1 $12 $-1 $13 #
body $-1 $14 $-1 $15 #
body $-1 $16 $-1 $17 #
body $-1 $18 $-1 $19 #
body $-1 $20 $-1 $21 #
body $-1 $22 $-1 $23 #
body $-1 $24 $-1 $25 #
body $-1 $26 $-1 $27 #
body $-1 $28 $-1 $29 #
lump $-1 $-1 $30 $0 #
transform $-1 1 0 0 0 1 0 0 0 1 78.316599017303986 47.958908329771255 17.427348417363607 1 rotate no_reflect no_shear #
lump $-1 $-1 $31 $1 #
transform $-1 1 0 0 0 1 0 0 0 1 78.316599017303986 47.958908329771255 17.427348417363607 1 rotate no_reflect no_shear #
lump $-1 $-1 $32 $2 #
transform $-1 1 0 0 0 1 0 0 0 1 78.316599017303986 47.958908329771255 17.427348417363607 1 rotate no_reflect no_shear #
lump $-1 $-1 $33 $3 #
transform $-1 1 0 0 0 1 0 0 0 1 78.316599017303986 47.958908329771255 17.427348417363607 1 rotate no_reflect no_shear #
lump $-1 $-1 $34 $4 #
transform $-1 1 0 0 0 1 0 0 0 1 78.316599017303986 47.958908329771255 17.427348417363607 1 rotate no_reflect no_shear #
lump $-1 $-1 $35 $5 #
transform $-1 1 0 0 0 1 0 0 0 1 78.316599017303986 47.958908329771255 17.427348417363607 1 rotate no_reflect no_shear #
lump $-1 $-1 $36 $6 #
transform $-1 1 0 0 0 1 0 0 0 1 78.316599017303986 47.958908329771255 17.427348417363607 1 rotate no_reflect no_shear #
lump $-1 $-1 $37 $7 #
transform $-1 1 0 0 0 1 0 0 0 1 78.316599017303986 47.958908329771255 17.427348417363607 1 rotate no_reflect no_shear #
lump $-1 $-1 $38 $8 #
transform $-1 1 0 0 0 1 0 0 0 1 78.316599017303986 47.958908329771255 17.427348417363607 1 rotate no_reflect no_shear #
lump $-1 $-1 $39 $9 #
transform $-1 1 0 0 0 1 0 0 0 1 78.316599017303986 47.958908329771255 17.427348417363607 1 rotate no_reflect no_shear #
shell $-1 $-1 $-1 $40 $-1 $10 #
shell $-1 $-1 $-1 $41 $-1 $12 #
shell $-1 $-1 $-1 $42 $-1 $14 #
shell $-1 $-1 $-1 $43 $-1 $16 #
shell $-1 $-1 $-1 $44 $-1 $18 #
shell $-1 $-1 $-1 $45 $-1 $20 #
shell $-1 $-1 $-1 $46 $-1 $22 #
shell $-1 $-1 $-1 $47 $-1 $24 #
shell $-1 $-1 $-1 $48 $-1 $26 #
shell $-1 $-1 $-1 $49 $-1 $28 #
face $-1 $50 $51 $30 $-1 $52 forward single #
face $-1 $53 $54 $31 $-1 $55 reversed single #
face $-1 $56 $57 $32 $-1 $58 reversed single #
face $-1 $59 $60 $33 $-1 $61 forward single #
face $-1 $62 $63 $34 $-1 $64 forward single #
face $-1 $65 $66 $35 $-1 $67 forward single #
face $-1 $68 $69 $36 $-1 $70 reversed single #
face $-1 $71 $72 $37 $-1 $73 forward single #
face $-1 $74 $75 $38 $-1 $76 forward single #
face $-1 $77 $78 $39 $-1 $79 forward single #
face $-1 $80 $81 $30 $-1 $82 reversed single #
loop $-1 $-1 $83 $40 #
plane-surface $-1 0 0 17.427348417363607 0 0 1 1 0 0 forward_v I I I I #
face $-1 $84 $85 $31 $-1 $86 reversed single #
loop $-1 $-1 $87 $41 #
plane-surface $-1 0 -41.623426026810364 12.751796186855975 0 0 1 1 0 0 forward_v I I I I #
face $-1 $88 $89 $32 $-1 $90 reversed single #
loop $-1 $-1 $91 $42 #
plane-surface $-1 -28.506983785449293 36.62199648976533 118.07183651581819 0.73135370988377701 0 0.68199835119979291 0.68199835119979291 0 -0.73135370988377701 forward_v I I I I #
face $-1 $92 $93 $33 $-1 $94 forward single #
loop $-1 $95 $96 $43 #
cone-surface $-1 70.983529820368958 29.819849385761763 9.6821242303926809 -0.73135370988377701 0 -0.68199835119979291 1.3639967023995858 0 -1.462707419767554 1 I I 0 1 2 forward I I I I #
face $-1 $97 $98 $34 $-1 $99 forward single #
loop $-1 $100 $101 $44 #
cone-surface $-1 70.983529820368958 36.62199648976533 9.6821242303926809 -0.73135370988377701 0 -0.68199835119979291 1.3639967023995858 0 -1.462707419767554 1 I I 0 1 2 forward I I I I #
face $-1 $102 $103 $35 $-1 $104 forward single #
loop $-1 $105 $106 $45 #
cone-surface $-1 70.983529820368958 43.424143593768882 9.6821242303926809 -0.73135370988377701 0 -0.68199835119979291 1.3639967023995858 0 -1.462707419767554 1 I I 0 1 2 forward I I I I #
face $-1 $107 $108 $36 $-1 $109 reversed single #
loop $-1 $-1 $110 $46 #
plane-surface $-1 -78.316599017303972 36.62199648976533 3.5175660422473101 -0.73135370988377701 0 0.68199835119979291 0.68199835119979291 0 0.73135370988377701 forward_v I I I I #
face $-1 $111 $112 $37 $-1 $113 forward single #
loop $-1 $114 $115 $47 #
cone-surface $-1 -70.983529820368958 29.819849385761763 9.6821242303926844 0.73135370988377701 0 -0.68199835119979291 1.3639967023995858 0 1.462707419767554 1 I I 0 1 2 forward I I I I #
face $-1 $116 $117 $38 $-1 $118 forward single #
loop $-1 $119 $120 $48 #
cone-surface $-1 -70.983529820368958 36.62199648976533 9.6821242303926844 0.73135370988377701 0 -0.68199835119979291 1.3639967023995858 0 1.462707419767554 1 I I 0 1 2 forward I I I I #
face $-1 $121 $122 $39 $-1 $123 forward single #
loop $-1 $124 $125 $49 #
cone-surface $-1 -70.983529820368958 43.424143593768882 9.6821242303926844 0.73135370988377701 0 -0.68199835119979291 1.3639967023995858 0 1.462707419767554 1 I I 0 1 2 forward I I I I #
face $-1 $126 $127 $30 $-1 $128 reversed single #
loop $-1 $-1 $129 $50 #
plane-surface $-1 0 0 -17.427348417363607 0 0 1 1 0 0 forward_v I I I I #
coedge $-1 $130 $131 $132 $133 forward $51 $-1 #
face $-1 $134 $135 $31 $-1 $136 reversed single #
loop $-1 $-1 $137 $53 #
plane-surface $-1 0 -35.287943723849473 15.08957230210979 0 -1 0 0 0 -1 forward_v I I I I #
coedge $-1 $138 $139 $140 $141 reversed $54 $-1 #
face $-1 $142 $143 $32 $-1 $144 reversed single #
loop $-1 $-1 $145 $56 #
plane-surface $-1 86.047286688121574 25.285084649759398 224.89541931857147 0 1 0 0.73135370988377701 0 0.68199835119979291 forward_v I I I I #
coedge $-1 $146 $147 $148 $149 reversed $57 $-1 #
face $-1 $-1 $150 $33 $-1 $151 forward single #
loop $-1 $152 $153 $59 #
cone-surface $-1 69.404647710823724 29.819849385761763 8.2097928797801067 -0.73135370988377701 0 -0.68199835119979291 0.68199835119979291 0 -0.73135370988377701 1 I I -0.70710678118654746 0.70710678118654746 1 forward I I I I #
loop $-1 $-1 $154 $43 #
coedge $-1 $96 $96 $155 $156 reversed $60 $-1 #
face $-1 $-1 $157 $34 $-1 $158 forward single #
loop $-1 $159 $160 $62 #
cone-surface $-1 69.404647710823724 36.62199648976533 8.2097928797801067 -0.73135370988377701 0 -0.68199835119979291 0.68199835119979291 0 -0.73135370988377701 1 I I -0.70710678118654746 0.70710678118654746 1 forward I I I I #
loop $-1 $-1 $161 $44 #
coedge $-1 $101 $101 $162 $163 reversed $63 $-1 #
face $-1 $-1 $164 $35 $-1 $165 forward single #
loop $-1 $166 $167 $65 #
cone-surface $-1 69.404647710823724 43.424143593768882 8.2097928797801067 -0.73135370988377701 0 -0.68199835119979291 0.68199835119979291 0 -0.73135370988377701 1 I I -0.70710678118654746 0.70710678118654746 1 forward I I I I #
loop $-1 $-1 $168 $45 #
coedge $-1 $106 $106 $169 $170 reversed $66 $-1 #
face $-1 $171 $172 $36 $-1 $173 forward single #
loop $-1 $-1 $174 $68 #
plane-surface $-1 -192.87086949087484 25.285084649759398 110.34114884500059 0 1 0 -0.73135370988377701 0 0.68199835119979291 forward_v I I I I #
coedge $-1 $175 $176 $177 $178 reversed $69 $-1 #
face $-1 $-1 $179 $37 $-1 $180 forward single #
loop $-1 $181 $182 $71 #
cone-surface $-1 -69.404647710823724 29.819849385761763 8.2097928797801103 0.73135370988377701 0 -0.68199835119979291 0.68199835119979291 0 0.73135370988377701 1 I I -0.70710678118654746 0.70710678118654746 1 forward I I I I #
loop $-1 $-1 $183 $47 #
coedge $-1 $115 $115 $184 $185 reversed $72 $-1 #
face $-1 $-1 $186 $38 $-1 $187 forward single #
loop $-1 $188 $189 $74 #
cone-surface $-1 -69.404647710823724 36.62199648976533 8.2097928797801103 0.73135370988377701 0 -0.68199835119979291 0.68199835119979291 0 0.73135370988377701 1 I I -0.70710678118654746 0.70710678118654746 1 forward I I I I #
loop $-1 $-1 $190 $48 #
coedge $-1 $120 $120 $191 $192 reversed $75 $-1 #
face $-1 $-1 $193 $39 $-1 $194 forward single #
loop $-1 $195 $196 $77 #
cone-surface $-1 -69.404647710823724 43.424143593768882 8.2097928797801103 0.73135370988377701 0 -0.68199835119979291 0.68199835119979291 0 0.73135370988377701 1 I I -0.70710678118654746 0.70710678118654746 1 forward I I I I #
loop $-1 $-1 $197 $49 #
coedge $-1 $125 $125 $198 $199 reversed $78 $-1 #
face $-1 $200 $201 $30 $-1 $202 reversed single #
loop $-1 $-1 $203 $80 #
plane-surface $-1 0 -47.958908329771255 0 0 1 0 0 0 1 forward_v I I I I #
coedge $-1 $204 $205 $206 $207 forward $81 $-1 #
coedge $-1 $208 $83 $209 $210 forward $51 $-1 #
coedge $-1 $83 $208 $211 $212 forward $51 $-1 #
coedge $-1 $213 $214 $83 $133 reversed $215 $-1 #
edge $-1 $216 -47.958908329771255 $217 47.958908329771255 $132 $218 forward 7 unknown #
face $-1 $219 $220 $31 $-1 $221 reversed single #
loop $-1 $-1 $222 $84 #
plane-surface $-1 -78.316599017303986 0 0 1 0 0 0 0 -1 forward_v I I I I #
coedge $-1 $223 $224 $225 $226 reversed $85 $-1 #
coedge $-1 $227 $87 $228 $229 reversed $54 $-1 #
coedge $-1 $87 $227 $223 $230 forward $54 $-1 #
coedge $-1 $225 $231 $87 $141 forward $232 $-1 #
edge $-1 $233 -27.147195316366073 $234 -14.476230710444291 $140 $235 forward 7 unknown #
face $-1 $236 $237 $32 $-1 $238 forward single #
loop $-1 $-1 $239 $88 #
plane-surface $-1 0 47.958908329771255 0 0 -1 0 0 0 -1 forward_v I I I I #
coedge $-1 $240 $241 $242 $243 reversed $89 $-1 #
coedge $-1 $244 $91 $239 $245 reversed $57 $-1 #
coedge $-1 $91 $244 $240 $246 forward $57 $-1 #
coedge $-1 $242 $247 $91 $149 forward $237 $-1 #
edge $-1 $248 -29.647910084888597 $249 -6.9740864048767328 $148 $250 forward 7 unknown #
loop $-1 $-1 $155 $92 #
plane-surface $-1 -28.506983785449293 36.62199648976533 118.07183651581819 0.73135370988377701 0 0.68199835119979291 0.68199835119979291 0 -0.73135370988377701 forward_v I I I I #
loop $-1 $-1 $251 $59 #
coedge $-1 $153 $153 $154 $252 reversed $93 $-1 #
coedge $-1 $154 $154 $153 $252 forward $95 $-1 #
coedge $-1 $155 $155 $96 $156 forward $150 $-1 #
edge $-1 $253 0 $253 6.2831853071796004 $155 $254 forward 7 unknown #
loop $-1 $-1 $162 $97 #
plane-surface $-1 -28.506983785449293 36.62199648976533 118.07183651581819 0.73135370988377701 0 0.68199835119979291 0.68199835119979291 0 -0.73135370988377701 forward_v I I I I #
loop $-1 $-1 $255 $62 #
coedge $-1 $160 $160 $161 $256 reversed $98 $-1 #
coedge $-1 $161 $161 $160 $256 forward $100 $-1 #
coedge $-1 $162 $162 $101 $163 forward $157 $-1 #
edge $-1 $257 0 $257 6.2831853071796004 $162 $258 forward 7 unknown #
loop $-1 $-1 $169 $102 #
plane-surface $-1 -28.506983785449293 36.62199648976533 118.07183651581819 0.73135370988377701 0 0.68199835119979291 0.68199835119979291 0 -0.73135370988377701 forward_v I I I I #
loop $-1 $-1 $259 $65 #
coedge $-1 $167 $167 $168 $260 reversed $103 $-1 #
coedge $-1 $168 $168 $167 $260 forward $105 $-1 #
coedge $-1 $169 $169 $106 $170 forward $164 $-1 #
edge $-1 $261 0 $261 6.2831853071796004 $169 $262 forward 7 unknown #
face $-1 $263 $264 $36 $-1 $265 reversed single #
loop $-1 $-1 $266 $107 #
plane-surface $-1 0 0 17.427348417363607 0 0 1 1 0 0 forward_v I I I I #
coedge $-1 $267 $268 $269 $270 reversed $108 $-1 #
coedge $-1 $271 $110 $272 $273 reversed $69 $-1 #
coedge $-1 $110 $271 $267 $274 forward $69 $-1 #
coedge $-1 $269 $275 $110 $178 forward $276 $-1 #
edge $-1 $277 -29.64791008488859 $278 -6.9740864048767328 $177 $279 forward 7 unknown #
loop $-1 $-1 $184 $111 #
plane-surface $-1 -78.316599017303972 36.62199648976533 3.5175660422473101 -0.73135370988377701 0 0.68199835119979291 0.68199835119979291 0 0.73135370988377701 forward_v I I I I #
loop $-1 $-1 $280 $71 #
coedge $-1 $182 $182 $183 $281 reversed $112 $-1 #
coedge $-1 $183 $183 $182 $281 forward $114 $-1 #
coedge $-1 $184 $184 $115 $185 forward $179 $-1 #
edge $-1 $282 0 $282 6.2831853071796004 $184 $283 forward 7 unknown #
loop $-1 $-1 $191 $116 #
plane-surface $-1 -78.316599017303972 36.62199648976533 3.5175660422473101 -0.73135370988377701 0 0.68199835119979291 0.68199835119979291 0 0.73135370988377701 forward_v I I I I #
loop $-1 $-1 $284 $74 #
coedge $-1 $189 $189 $190 $285 reversed $117 $-1 #
coedge $-1 $190 $190 $189 $285 forward $119 $-1 #
coedge $-1 $191 $191 $120 $192 forward $186 $-1 #
edge $-1 $286 0 $286 6.2831853071796004 $191 $287 forward 7 unknown #
loop $-1 $-1 $198 $121 #
plane-surface $-1 -78.316599017303972 36.62199648976533 3.5175660422473101 -0.73135370988377701 0 0.68199835119979291 0.68199835119979291 0 0.73135370988377701 forward_v I I I I #
loop $-1 $-1 $288 $77 #
coedge $-1 $196 $196 $197 $289 reversed $122 $-1 #
coedge $-1 $197 $197 $196 $289 forward $124 $-1 #
coedge $-1 $198 $198 $125 $199 forward $193 $-1 #
edge $-1 $290 0 $290 6.2831853071796004 $198 $291 forward 7 unknown #
face $-1 $292 $293 $30 $-1 $294 reversed single #
loop $-1 $-1 $295 $126 #
plane-surface $-1 -78.316599017303986 0 0 1 0 0 0 0 -1 forward_v I I I I #
coedge $-1 $296 $211 $297 $298 forward $127 $-1 #
coedge $-1 $299 $129 $296 $300 forward $81 $-1 #
coedge $-1 $129 $299 $301 $302 forward $81 $-1 #
coedge $-1 $214 $213 $129 $207 reversed $215 $-1 #
edge $-1 $303 -47.958908329771255 $304 47.958908329771255 $206 $305 forward 7 unknown #
coedge $-1 $131 $130 $306 $307 forward $51 $-1 #
coedge $-1 $308 $309 $130 $210 reversed $293 $-1 #
edge $-1 $217 -78.316599017303986 $310 78.316599017303986 $209 $311 forward 7 unknown #
coedge $-1 $203 $312 $131 $212 reversed $127 $-1 #
edge $-1 $313 -78.316599017303986 $216 78.316599017303986 $211 $314 forward 7 unknown #
coedge $-1 $206 $132 $312 $315 forward $215 $-1 #
coedge $-1 $132 $206 $308 $316 reversed $215 $-1 #
loop $-1 $-1 $213 $292 #
vertex $-1 $133 $317 #
vertex $-1 $133 $318 #
straight-curve $-1 78.316599017303986 0 17.427348417363607 0 1 0 I I #
face $-1 $319 $320 $31 $-1 $321 forward single #
loop $-1 $-1 $228 $134 #
plane-surface $-1 0 -47.958908329771255 0 0 1 0 0 0 1 forward_v I I I I #
coedge $-1 $322 $323 $324 $325 forward $135 $-1 #
coedge $-1 $324 $137 $139 $230 reversed $85 $-1 #
coedge $-1 $137 $324 $326 $327 reversed $85 $-1 #
coedge $-1 $328 $140 $137 $226 forward $232 $-1 #
edge $-1 $234 5.2070100358010798 $329 9.8825622663087085 $225 $330 forward 7 unknown #
coedge $-1 $139 $138 $322 $331 reversed $54 $-1 #
coedge $-1 $332 $333 $138 $229 forward $220 $-1 #
edge $-1 $334 -78.316599017303986 $233 78.316599017303986 $228 $335 forward 7 unknown #
edge $-1 $336 -78.316599017303986 $234 78.316599017303986 $223 $337 forward 7 unknown #
coedge $-1 $140 $328 $332 $338 forward $232 $-1 #
loop $-1 $-1 $225 $319 #
vertex $-1 $229 $339 #
vertex $-1 $141 $340 #
straight-curve $-1 78.316599017303986 -20.811713013405182 12.751796186855975 0 1 0 I I #
face $-1 $-1 $341 $32 $-1 $342 reversed single #
loop $-1 $-1 $148 $142 #
plane-surface $-1 0 0 17.427348417363607 0 0 1 1 0 0 forward_v I I I I #
coedge $-1 $343 $344 $146 $245 forward $143 $-1 #
coedge $-1 $241 $145 $147 $246 reversed $89 $-1 #
coedge $-1 $145 $240 $345 $346 reversed $89 $-1 #
coedge $-1 $347 $148 $145 $243 forward $237 $-1 #
edge $-1 $249 22.321874078696041 $348 35.292955673243199 $242 $349 forward 7 unknown #
coedge $-1 $147 $146 $350 $351 reversed $57 $-1 #
edge $-1 $352 -103.7362022306129 $248 -84.71697502613651 $239 $353 forward 7 unknown #
edge $-1 $354 -156.63319803460797 $249 -137.61397083013156 $240 $355 forward 7 unknown #
coedge $-1 $148 $347 $343 $356 forward $237 $-1 #
vertex $-1 $149 $357 #
vertex $-1 $149 $358 #
straight-curve $-1 65.345517422756842 18.310998244882665 17.427348417363604 0 -1 0 I I #
coedge $-1 $251 $251 $-1 $359 reversed $152 $-1 #
edge $-1 $360 0 $360 6.2831853071796004 $153 $361 forward 7 unknown #
vertex $-1 $156 $362 #
ellipse-curve $-1 71.8310582200304 29.819849385761763 10.472457229805457 0.73135370988377701 0 0.68199835119979291 1.3639967023995858 0 -1.462707419767554 1 I I #
coedge $-1 $255 $255 $-1 $363 reversed $159 $-1 #
edge $-1 $364 0 $364 6.2831853071796004 $160 $365 forward 7 unknown #
vertex $-1 $163 $366 #
ellipse-curve $-1 71.8310582200304 36.62199648976533 10.472457229805457 0.73135370988377701 0 0.68199835119979291 1.3639967023995858 0 -1.462707419767554 1 I I #
coedge $-1 $259 $259 $-1 $367 reversed $166 $-1 #
edge $-1 $368 0 $368 6.2831853071796004 $167 $369 forward 7 unknown #
vertex $-1 $170 $370 #
ellipse-curve $-1 71.8310582200304 43.424143593768882 10.472457229805457 0.73135370988377701 0 0.68199835119979291 1.3639967023995858 0 -1.462707419767554 1 I I #
face $-1 $-1 $276 $36 $-1 $371 reversed single #
loop $-1 $-1 $272 $171 #
plane-surface $-1 0 47.958908329771255 0 0 -1 0 0 0 -1 forward_v I I I I #
coedge $-1 $372 $373 $268 $374 forward $172 $-1 #
coedge $-1 $268 $174 $176 $274 reversed $108 $-1 #
coedge $-1 $174 $267 $266 $374 reversed $108 $-1 #
coedge $-1 $375 $177 $174 $270 forward $276 $-1 #
edge $-1 $278 -51.653008380252999 $376 -37.743226005136691 $269 $377 forward 7 unknown #
coedge $-1 $176 $175 $372 $378 reversed $69 $-1 #
coedge $-1 $379 $380 $175 $273 forward $264 $-1 #
edge $-1 $381 6.4003760088325041 $277 25.419603213308953 $272 $382 forward 7 unknown #
edge $-1 $383 -19.019227204476429 $278 2.0734513383776317e-014 $267 $384 forward 7 unknown #
coedge $-1 $177 $375 $379 $385 forward $276 $-1 #
loop $-1 $-1 $269 $263 #
vertex $-1 $273 $386 #
vertex $-1 $178 $387 #
straight-curve $-1 -78.316599017303986 18.310998244882665 3.5175660422473038 0 -1 0 I I #
coedge $-1 $280 $280 $-1 $388 reversed $181 $-1 #
edge $-1 $389 0 $389 6.2831853071796004 $182 $390 forward 7 unknown #
vertex $-1 $185 $391 #
ellipse-curve $-1 -71.8310582200304 29.819849385761763 10.47245722980545 -0.73135370988377701 0 0.68199835119979291 1.3639967023995858 0 1.462707419767554 1 I I #
coedge $-1 $284 $284 $-1 $392 reversed $188 $-1 #
edge $-1 $393 0 $393 6.2831853071796004 $189 $394 forward 7 unknown #
vertex $-1 $192 $395 #
ellipse-curve $-1 -71.8310582200304 36.62199648976533 10.47245722980545 -0.73135370988377701 0 0.68199835119979291 1.3639967023995858 0 1.462707419767554 1 I I #
coedge $-1 $288 $288 $-1 $396 reversed $195 $-1 #
edge $-1 $397 0 $397 6.2831853071796004 $196 $398 forward 7 unknown #
vertex $-1 $199 $399 #
ellipse-curve $-1 -71.8310582200304 43.424143593768882 10.47245722980545 -0.73135370988377701 0 0.68199835119979291 1.3639967023995858 0 1.462707419767554 1 I I #
face $-1 $-1 $215 $30 $-1 $400 reversed single #
loop $-1 $-1 $308 $200 #
plane-surface $-1 0 47.958908329771255 0 0 -1 0 0 0 -1 forward_v I I I I #
coedge $-1 $401 $306 $309 $402 forward $201 $-1 #
coedge $-1 $312 $203 $204 $300 reversed $127 $-1 #
coedge $-1 $306 $401 $203 $298 reversed $201 $-1 #
edge $-1 $313 -17.427348417363607 $403 17.427348417363607 $297 $404 forward 7 unknown #
coedge $-1 $205 $204 $401 $405 forward $81 $-1 #
edge $-1 $304 -78.316599017303986 $403 78.316599017303986 $296 $406 forward 7 unknown #
coedge $-1 $309 $308 $205 $302 reversed $293 $-1 #
edge $-1 $407 -78.316599017303986 $303 78.316599017303986 $301 $408 forward 7 unknown #
vertex $-1 $207 $409 #
vertex $-1 $315 $410 #
straight-curve $-1 78.316599017303986 0 -17.427348417363607 0 -1 0 I I #
coedge $-1 $295 $297 $208 $307 reversed $201 $-1 #
edge $-1 $310 -47.958908329771255 $313 47.958908329771255 $306 $411 forward 7 unknown #
coedge $-1 $301 $209 $214 $316 forward $293 $-1 #
coedge $-1 $209 $301 $295 $402 reversed $293 $-1 #
vertex $-1 $210 $412 #
straight-curve $-1 0 47.958908329771255 17.427348417363607 -1 0 0 I I #
coedge $-1 $211 $296 $213 $315 reversed $127 $-1 #
vertex $-1 $307 $413 #
straight-curve $-1 0 -47.958908329771255 17.427348417363607 1 0 0 I I #
edge $-1 $216 -17.427348417363607 $304 17.427348417363607 $213 $414 forward 7 unknown #
edge $-1 $217 -17.427348417363607 $303 17.427348417363607 $214 $415 forward 7 unknown #
point $-1 78.316599017303986 -47.958908329771255 17.427348417363607 #
point $-1 78.316599017303986 47.958908329771255 17.427348417363607 #
face $-1 $-1 $232 $31 $-1 $416 reversed single #
loop $-1 $-1 $326 $219 #
plane-surface $-1 0 0 17.427348417363607 0 0 1 1 0 0 forward_v I I I I #
coedge $-1 $417 $222 $227 $331 forward $135 $-1 #
coedge $-1 $222 $417 $418 $419 reversed $135 $-1 #
coedge $-1 $224 $223 $222 $325 reversed $85 $-1 #
edge $-1 $420 -9.8825622663087085 $336 -5.2070100358010798 $222 $421 forward 7 unknown #
coedge $-1 $418 $422 $224 $327 forward $320 $-1 #
edge $-1 $329 -78.316599017303986 $420 78.316599017303986 $326 $423 forward 7 unknown #
coedge $-1 $231 $225 $422 $424 reversed $232 $-1 #
vertex $-1 $226 $425 #
straight-curve $-1 78.316599017303986 -35.287943723849473 7.544786151054895 0 0 1 I I #
edge $-1 $336 14.476230710444291 $334 27.147195316366073 $322 $426 forward 7 unknown #
coedge $-1 $427 $228 $231 $338 reversed $220 $-1 #
coedge $-1 $228 $427 $417 $428 forward $220 $-1 #
vertex $-1 $229 $429 #
straight-curve $-1 0 -47.958908329771255 12.751796186855975 1 0 0 I I #
vertex $-1 $331 $430 #
straight-curve $-1 0 -35.287943723849473 12.751796186855975 1 0 0 I I #
edge $-1 $431 -17.427348417363607 $233 -12.751796186855975 $231 $432 forward 7 unknown #
point $-1 78.316599017303986 -47.958908329771255 12.751796186855975 #
point $-1 78.316599017303986 -35.287943723849473 12.751796186855975 #
loop $-1 $-1 $350 $236 #
plane-surface $-1 78.316599017303986 0 0 -1 0 0 0 0 1 forward_v I I I I #
coedge $-1 $344 $239 $247 $356 reversed $143 $-1 #
coedge $-1 $239 $343 $433 $434 forward $143 $-1 #
coedge $-1 $350 $435 $241 $346 forward $341 $-1 #
edge $-1 $348 95.020361241922132 $354 108.93014361703841 $345 $436 forward 7 unknown #
coedge $-1 $247 $242 $435 $437 forward $237 $-1 #
vertex $-1 $437 $438 #
straight-curve $-1 43.023643344060787 25.285084649759398 17.427348417363604 1 0 0 I I #
coedge $-1 $433 $345 $244 $351 forward $341 $-1 #
edge $-1 $354 6.9740864048767328 $352 29.647910084888597 $350 $439 forward 7 unknown #
vertex $-1 $351 $440 #
straight-curve $-1 7.5686801362976972 47.958908329771255 79.385422392859823 -0.68199835119979291 0 0.73135370988377701 I I #
vertex $-1 $351 $441 #
straight-curve $-1 -28.506983785449293 25.285084649759398 118.07183651581819 -0.68199835119979291 0 0.73135370988377701 I I #
edge $-1 $442 -78.316599017303986 $248 -65.345517422756828 $343 $443 forward 7 unknown #
point $-1 65.345517422756828 47.958908329771262 17.427348417363604 #
point $-1 65.345517422756828 25.285084649759398 17.427348417363604 #
edge $-1 $444 1 $444 0 $251 $-1 forward 7 unknown #
vertex $-1 $252 $445 #
ellipse-curve $-1 70.136001420707501 29.819849385761763 8.8917912309798997 0.73135370988377701 0 0.68199835119979291 1.3639967023995858 0 -1.462707419767554 1 I I #
point $-1 73.195054922429989 29.819849385761763 9.0097498100379063 #
edge $-1 $446 1 $446 0 $255 $-1 forward 7 unknown #
vertex $-1 $256 $447 #
ellipse-curve $-1 70.136001420707501 36.62199648976533 8.8917912309798997 0.73135370988377701 0 0.68199835119979291 1.3639967023995858 0 -1.462707419767554 1 I I #
point $-1 73.195054922429989 36.62199648976533 9.0097498100379063 #
edge $-1 $448 1 $448 0 $259 $-1 forward 7 unknown #
vertex $-1 $260 $449 #
ellipse-curve $-1 70.136001420707501 43.424143593768882 8.8917912309798997 0.73135370988377701 0 0.68199835119979291 1.3639967023995858 0 -1.462707419767554 1 I I #
point $-1 73.195054922429989 43.424143593768882 9.0097498100379063 #
plane-surface $-1 -78.316599017303986 0 0 1 0 0 0 0 -1 forward_v I I I I #
coedge $-1 $450 $266 $271 $378 forward $172 $-1 #
coedge $-1 $266 $450 $375 $451 forward $172 $-1 #
edge $-1 $376 18.118835728133433 $383 31.08991732268062 $266 $452 forward 7 unknown #
coedge $-1 $275 $269 $373 $451 reversed $276 $-1 #
vertex $-1 $374 $453 #
straight-curve $-1 -78.316599017303986 25.285084649759398 55.170574422500295 0 0 1 I I #
edge $-1 $383 6.9740864048767328 $381 29.647910084888597 $372 $454 forward 7 unknown #
coedge $-1 $380 $272 $275 $385 reversed $264 $-1 #
coedge $-1 $272 $379 $450 $455 reversed $264 $-1 #
vertex $-1 $455 $456 #
straight-curve $-1 -60.980471537674319 47.958908329771255 22.108287156074379 -0.68199835119979291 0 -0.73135370988377701 I I #
vertex $-1 $378 $457 #
straight-curve $-1 -78.316599017303972 25.285084649759398 3.5175660422473101 -0.68199835119979291 0 -0.73135370988377701 I I #
edge $-1 $458 -17.427348417363607 $277 -3.517566042247295 $379 $459 forward 7 unknown #
point $-1 -78.316599017303986 47.958908329771255 3.517566042247295 #
point $-1 -78.316599017303986 25.285084649759398 3.517566042247295 #
edge $-1 $460 1 $460 0 $280 $-1 forward 7 unknown #
vertex $-1 $281 $461 #
ellipse-curve $-1 -70.136001420707501 29.819849385761763 8.8917912309799032 -0.73135370988377701 0 0.68199835119979291 1.3639967023995858 0 1.462707419767554 1 I I #
point $-1 -70.467061517630825 29.819849385761763 11.935164649573018 #
edge $-1 $462 1 $462 0 $284 $-1 forward 7 unknown #
vertex $-1 $285 $463 #
ellipse-curve $-1 -70.136001420707501 36.62199648976533 8.8917912309799032 -0.73135370988377701 0 0.68199835119979291 1.3639967023995858 0 1.462707419767554 1 I I #
point $-1 -70.467061517630825 36.62199648976533 11.935164649573018 #
edge $-1 $464 1 $464 0 $288 $-1 forward 7 unknown #
vertex $-1 $289 $465 #
ellipse-curve $-1 -70.136001420707501 43.424143593768882 8.8917912309799032 -0.73135370988377701 0 0.68199835119979291 1.3639967023995858 0 1.462707419767554 1 I I #
point $-1 -70.467061517630825 43.424143593768882 11.935164649573018 #
plane-surface $-1 78.316599017303986 0 0 -1 0 0 0 0 1 forward_v I I I I #
coedge $-1 $297 $295 $299 $405 reversed $201 $-1 #
edge $-1 $310 -17.427348417363607 $407 17.427348417363607 $309 $466 forward 7 unknown #
vertex $-1 $405 $467 #
straight-curve $-1 -78.316599017303986 -47.958908329771255 0 0 0 -1 I I #
edge $-1 $403 -47.958908329771255 $407 47.958908329771255 $401 $468 forward 7 unknown #
straight-curve $-1 0 -47.958908329771255 -17.427348417363607 -1 0 0 I I #
vertex $-1 $302 $469 #
straight-curve $-1 0 47.958908329771255 -17.427348417363607 1 0 0 I I #
point $-1 78.316599017303986 47.958908329771255 -17.427348417363607 #
point $-1 78.316599017303986 -47.958908329771255 -17.427348417363607 #
straight-curve $-1 -78.316599017303986 0 17.427348417363607 0 -1 0 I I #
point $-1 -78.316599017303986 47.958908329771255 17.427348417363607 #
point $-1 -78.316599017303986 -47.958908329771255 17.427348417363607 #
straight-curve $-1 78.316599017303986 -47.958908329771255 0 0 0 -1 I I #
straight-curve $-1 78.316599017303986 47.958908329771255 0 0 0 -1 I I #
plane-surface $-1 78.316599017303986 0 0 -1 0 0 0 0 1 forward_v I I I I #
coedge $-1 $323 $322 $333 $428 reversed $135 $-1 #
coedge $-1 $470 $326 $323 $419 forward $320 $-1 #
edge $-1 $420 35.287943723849473 $471 47.958908329771255 $323 $472 forward 7 unknown #
vertex $-1 $419 $473 #
straight-curve $-1 -78.316599017303986 -35.287943723849473 7.544786151054895 0 0 -1 I I #
coedge $-1 $326 $470 $328 $424 forward $320 $-1 #
straight-curve $-1 0 -35.287943723849473 17.427348417363607 -1 0 0 I I #
edge $-1 $431 -47.958908329771255 $329 -35.287943723849473 $328 $474 forward 7 unknown #
point $-1 78.316599017303986 -35.287943723849473 17.427348417363604 #
straight-curve $-1 -78.316599017303986 -20.811713013405182 12.751796186855975 0 -1 0 I I #
coedge $-1 $333 $332 $470 $475 reversed $220 $-1 #
edge $-1 $471 -17.427348417363607 $334 -12.751796186855975 $417 $476 forward 7 unknown #
point $-1 -78.316599017303986 -47.958908329771255 12.751796186855975 #
point $-1 -78.316599017303986 -35.287943723849473 12.751796186855975 #
vertex $-1 $424 $477 #
straight-curve $-1 78.316599017303986 -47.958908329771255 0 0 0 -1 I I #
coedge $-1 $435 $350 $344 $434 reversed $341 $-1 #
edge $-1 $442 -17.427348417363607 $352 -3.5175660422473243 $433 $478 forward 7 unknown #
coedge $-1 $345 $433 $347 $437 reversed $341 $-1 #
straight-curve $-1 78.316599017303986 25.285084649759398 112.44770965928574 0 0 -1 I I #
edge $-1 $348 25.285084649759398 $442 47.958908329771255 $435 $479 forward 7 unknown #
point $-1 78.316599017303986 25.285084649759398 17.427348417363607 #
straight-curve $-1 78.316599017303972 18.310998244882665 3.5175660422473314 0 1 0 I I #
point $-1 78.316599017303986 47.958908329771262 3.5175660422473243 #
point $-1 78.316599017303986 25.285084649759398 3.5175660422473243 #
vertex $-1 $437 $480 #
straight-curve $-1 0 47.958908329771255 17.427348417363607 -1 0 0 I I #
vertex $-1 $359 $481 #
point $-1 71.49999812310709 29.819849385761763 7.4290838112123456 #
vertex $-1 $363 $482 #
point $-1 71.49999812310709 36.62199648976533 7.4290838112123456 #
vertex $-1 $367 $483 #
point $-1 71.49999812310709 43.424143593768882 7.4290838112123456 #
coedge $-1 $373 $372 $380 $455 forward $172 $-1 #
edge $-1 $458 -47.958908329771255 $376 -25.285084649759398 $375 $484 forward 7 unknown #
straight-curve $-1 -96.435434745437419 25.285084649759398 17.427348417363611 1 0 0 I I #
point $-1 -78.316599017303986 25.285084649759398 17.427348417363607 #
straight-curve $-1 -65.345517422756799 18.310998244882665 17.427348417363604 0 1 0 I I #
edge $-1 $381 65.345517422756799 $458 78.316599017303986 $380 $485 forward 7 unknown #
point $-1 -65.345517422756799 47.958908329771262 17.427348417363607 #
point $-1 -65.345517422756799 25.285084649759398 17.427348417363607 #
vertex $-1 $455 $486 #
straight-curve $-1 -78.316599017303986 47.958908329771255 0 0 0 -1 I I #
vertex $-1 $388 $487 #
point $-1 -68.772004718307912 29.819849385761763 10.354498650747457 #
vertex $-1 $392 $488 #
point $-1 -68.772004718307912 36.62199648976533 10.354498650747457 #
vertex $-1 $396 $489 #
point $-1 -68.772004718307912 43.424143593768882 10.354498650747457 #
straight-curve $-1 -78.316599017303986 47.958908329771255 0 0 0 -1 I I #
point $-1 -78.316599017303986 -47.958908329771255 -17.427348417363607 #
straight-curve $-1 -78.316599017303986 0 -17.427348417363607 0 1 0 I I #
point $-1 -78.316599017303986 47.958908329771255 -17.427348417363607 #
coedge $-1 $422 $418 $427 $475 forward $320 $-1 #
vertex $-1 $419 $490 #
straight-curve $-1 -78.316599017303986 0 17.427348417363607 0 -1 0 I I #
point $-1 -78.316599017303986 -35.287943723849473 17.427348417363604 #
straight-curve $-1 78.316599017303986 0 17.427348417363607 0 1 0 I I #
edge $-1 $471 -78.316599017303986 $431 78.316599017303986 $427 $491 forward 7 unknown #
straight-curve $-1 -78.316599017303986 -47.958908329771255 0 0 0 -1 I I #
point $-1 78.316599017303986 -47.958908329771255 17.427348417363607 #
straight-curve $-1 78.316599017303986 47.958908329771255 0 0 0 -1 I I #
straight-curve $-1 78.316599017303986 0 17.427348417363607 0 1 0 I I #
point $-1 78.316599017303986 47.958908329771255 17.427348417363607 #
point $-1 68.673294000939947 29.819849385761763 7.5277945285803138 #
point $-1 68.673294000939947 36.62199648976533 7.5277945285803138 #
point $-1 68.673294000939947 43.424143593768882 7.5277945285803138 #
straight-curve $-1 -78.316599017303986 0 17.427348417363607 0 -1 0 I I #
straight-curve $-1 0 47.958908329771255 17.427348417363607 -1 0 0 I I #
point $-1 -78.316599017303986 47.958908329771255 17.427348417363607 #
point $-1 -68.673294000939947 29.819849385761763 7.5277945285803174 #
point $-1 -68.673294000939947 36.62199648976533 7.5277945285803174 #
point $-1 -68.673294000939947 43.424143593768882 7.5277945285803174 #
point $-1 -78.316599017303986 -47.958908329771255 17.427348417363607 #
straight-curve $-1 0 -47.958908329771255 17.427348417363607 1 0 0 I I #
End-of-ACIS-data 