500 0 12 0           
7 Unknown 11 ACIS 5.0 NT 24 Thu Mar 25 21:57:17 1999 
-1 9.9999999999999995e-007 1e-010 
body $-1 $12 $-1 $13 #
body $-1 $14 $-1 $15 #
body $-1 $16 $-1 $17 #
body $-1 $18 $-1 $19 #
body $-1 $20 $-1 $21 #
body $-1 $22 $-1 $23 #
body $-1 $24 $-1 $25 #
body $-1 $26 $-1 $27 #
body $-1 $28 $-1 $29 #
body $-1 $30 $-1 $31 #
body $-1 $32 $-1 $33 #
body $-1 $34 $-1 $35 #
lump $-1 $-1 $36 $0 #
transform $-1 1 0 0 0 1 0 0 0 1 57.975402081362347 23.372754951469364 7.7844748256438079 1 rotate no_reflect no_shear #
lump $-1 $-1 $37 $1 #
transform $-1 1 0 0 0 1 0 0 0 1 57.975402081362347 23.372754951469364 7.7844748256438079 1 rotate no_reflect no_shear #
lump $-1 $-1 $38 $2 #
transform $-1 1 0 0 0 1 0 0 0 1 57.975402081362347 23.372754951469364 7.7844748256438079 1 rotate no_reflect no_shear #
lump $-1 $-1 $39 $3 #
transform $-1 1 0 0 0 1 0 0 0 1 57.975402081362347 23.372754951469364 7.7844748256438079 1 rotate no_reflect no_shear #
lump $-1 $-1 $40 $4 #
transform $-1 1 0 0 0 1 0 0 0 1 57.975402081362347 23.372754951469364 7.7844748256438079 1 rotate no_reflect no_shear #
lump $-1 $-1 $41 $5 #
transform $-1 1 0 0 0 1 0 0 0 1 57.975402081362347 23.372754951469364 7.7844748256438079 1 rotate no_reflect no_shear #
lump $-1 $-1 $42 $6 #
transform $-1 1 0 0 0 1 0 0 0 1 57.975402081362347 23.372754951469364 7.7844748256438079 1 rotate no_reflect no_shear #
lump $-1 $-1 $43 $7 #
transform $-1 1 0 0 0 1 0 0 0 1 57.975402081362347 23.372754951469364 7.7844748256438079 1 rotate no_reflect no_shear #
lump $-1 $-1 $44 $8 #
transform $-1 1 0 0 0 1 0 0 0 1 57.975402081362347 23.372754951469364 7.7844748256438079 1 rotate no_reflect no_shear #
lump $-1 $-1 $45 $9 #
transform $-1 1 0 0 0 1 0 0 0 1 57.975402081362347 23.372754951469364 7.7844748256438079 1 rotate no_reflect no_shear #
lump $-1 $-1 $46 $10 #
transform $-1 1 0 0 0 1 0 0 0 1 57.975402081362347 23.372754951469364 7.7844748256438079 1 rotate no_reflect no_shear #
lump $-1 $-1 $47 $11 #
transform $-1 1 0 0 0 1 0 0 0 1 57.975402081362347 23.372754951469364 7.7844748256438079 1 rotate no_reflect no_shear #
shell $-1 $-1 $-1 $48 $-1 $12 #
shell $-1 $-1 $-1 $49 $-1 $14 #
shell $-1 $-1 $-1 $50 $-1 $16 #
shell $-1 $-1 $-1 $51 $-1 $18 #
shell $-1 $-1 $-1 $52 $-1 $20 #
shell $-1 $-1 $-1 $53 $-1 $22 #
shell $-1 $-1 $-1 $54 $-1 $24 #
shell $-1 $-1 $-1 $55 $-1 $26 #
shell $-1 $-1 $-1 $56 $-1 $28 #
shell $-1 $-1 $-1 $57 $-1 $30 #
shell $-1 $-1 $-1 $58 $-1 $32 #
shell $-1 $-1 $-1 $59 $-1 $34 #
face $-1 $60 $61 $36 $-1 $62 forward single #
face $-1 $63 $64 $37 $-1 $65 forward single #
face $-1 $66 $67 $38 $-1 $68 reversed single #
face $-1 $69 $70 $39 $-1 $71 forward single #
face $-1 $72 $73 $40 $-1 $74 forward single #
face $-1 $75 $76 $41 $-1 $77 forward single #
face $-1 $78 $79 $42 $-1 $80 reversed single #
face $-1 $81 $82 $43 $-1 $83 forward single #
face $-1 $84 $85 $44 $-1 $86 forward single #
face $-1 $87 $88 $45 $-1 $89 reversed single #
face $-1 $90 $91 $46 $-1 $92 forward single #
face $-1 $93 $94 $47 $-1 $95 forward single #
face $-1 $96 $97 $36 $-1 $98 reversed single #
loop $-1 $-1 $99 $48 #
plane-surface $-1 0 0 7.7844748256438079 0 0 1 1 0 0 forward_v I I I I #
face $-1 $100 $101 $37 $-1 $102 reversed single #
loop $-1 $-1 $103 $49 #
plane-surface $-1 0 -20.302207616132453 -3.179359407227575 0 0 1 1 0 0 forward_v I I I I #
face $-1 $104 $105 $38 $-1 $106 reversed single #
loop $-1 $-1 $107 $50 #
plane-surface $-1 29.500714315508546 -9.4233111086117169 166.16922975965244 0 -1 0 -0.57357644374324357 0 -0.81915203911291934 forward_v I I I I #
face $-1 $108 $109 $39 $-1 $110 forward single #
loop $-1 $111 $112 $51 #
cone-surface $-1 55.472676152060146 -15.669990446358776 5.8232824893398663 -0.57357644374324357 0 -0.81915203911291934 0.40957601955645967 0 -0.28678822187162178 1 I I 0 1 0.5 forward I I I I #
face $-1 $113 $114 $40 $-1 $115 forward single #
loop $-1 $116 $117 $52 #
cone-surface $-1 55.472676152060146 -13.327485694703629 5.8232824893398663 -0.57357644374324357 0 -0.81915203911291934 0.40957601955645967 0 -0.28678822187162178 1 I I 0 1 0.5 forward I I I I #
face $-1 $118 $119 $41 $-1 $120 forward single #
loop $-1 $121 $122 $53 #
cone-surface $-1 55.472676152060146 -10.984980943048482 5.8232824893398663 -0.57357644374324357 0 -0.81915203911291934 0.40957601955645967 0 -0.28678822187162178 1 I I 0 1 0.5 forward I I I I #
face $-1 $123 $124 $42 $-1 $125 reversed single #
loop $-1 $-1 $126 $54 #
plane-surface $-1 -148.08610222363794 -14.628271118594327 75.430995707557756 0 1 0 -0.77714596973225614 0 0.62932038083071107 forward_v I I I I #
face $-1 $127 $128 $43 $-1 $129 forward single #
loop $-1 $130 $131 $55 #
cone-surface $-1 -54.267478840240919 -11.739104068940524 3.865519258923281 0.77714596973225614 0 -0.62932038083071107 0.62932038083071107 0 0.77714596973225614 1 I I 0 1 1 forward I I I I #
face $-1 $132 $133 $44 $-1 $134 forward single #
loop $-1 $135 $136 $56 #
cone-surface $-1 -54.267478840240919 -7.4053534944598169 3.865519258923281 0.77714596973225614 0 -0.62932038083071107 0.62932038083071107 0 0.77714596973225614 1 I I 0 1 1 forward I I I I #
face $-1 $137 $138 $45 $-1 $139 reversed single #
loop $-1 $-1 $140 $57 #
plane-surface $-1 -148.08610222363794 10.657281115479838 75.430995707557756 0 1 0 -0.77714596973225614 0 0.62932038083071107 forward_v I I I I #
face $-1 $141 $142 $46 $-1 $143 forward single #
loop $-1 $144 $145 $58 #
cone-surface $-1 -54.267478840240919 13.546448165133636 3.865519258923281 0.77714596973225614 0 -0.62932038083071107 0.62932038083071107 0 0.77714596973225614 1 I I 0 1 1 forward I I I I #
face $-1 $146 $147 $47 $-1 $148 forward single #
loop $-1 $149 $150 $59 #
cone-surface $-1 -54.267478840240919 17.880198739614347 3.865519258923281 0.77714596973225614 0 -0.62932038083071107 0.62932038083071107 0 0.77714596973225614 1 I I 0 1 1 forward I I I I #
face $-1 $151 $152 $36 $-1 $153 reversed single #
loop $-1 $-1 $154 $60 #
plane-surface $-1 0 0 -7.7844748256438079 0 0 1 1 0 0 forward_v I I I I #
coedge $-1 $155 $156 $157 $158 forward $61 $-1 #
face $-1 $159 $160 $37 $-1 $161 reversed single #
loop $-1 $-1 $162 $63 #
plane-surface $-1 0 -17.231660280795541 -5.4819171164356915 0 -1 0 0 0 -1 forward_v I I I I #
coedge $-1 $163 $164 $165 $166 reversed $64 $-1 #
face $-1 $167 $168 $38 $-1 $169 reversed single #
loop $-1 $-1 $170 $66 #
plane-surface $-1 -37.005935585316365 -13.327485694703629 71.187892092973726 0.57357644374324357 0 0.81915203911291934 0.81915203911291934 0 -0.57357644374324357 forward_v I I I I #
coedge $-1 $171 $172 $173 $174 reversed $67 $-1 #
face $-1 $-1 $175 $39 $-1 $176 forward single #
loop $-1 $177 $178 $69 #
cone-surface $-1 55.042493819252712 -15.669990446358776 5.2089184600051768 -0.57357644374324357 0 -0.81915203911291934 0.20478800977822983 0 -0.14339411093581089 1 I I -0.70710678118654746 0.70710678118654746 0.25 forward I I I I #
loop $-1 $-1 $179 $51 #
coedge $-1 $112 $112 $180 $181 reversed $70 $-1 #
face $-1 $-1 $182 $40 $-1 $183 forward single #
loop $-1 $184 $185 $72 #
cone-surface $-1 55.042493819252712 -13.327485694703629 5.2089184600051768 -0.57357644374324357 0 -0.81915203911291934 0.20478800977822983 0 -0.14339411093581089 1 I I -0.70710678118654746 0.70710678118654746 0.25 forward I I I I #
loop $-1 $-1 $186 $52 #
coedge $-1 $117 $117 $187 $188 reversed $73 $-1 #
face $-1 $-1 $189 $41 $-1 $190 forward single #
loop $-1 $191 $192 $75 #
cone-surface $-1 55.042493819252712 -10.984980943048482 5.2089184600051768 -0.57357644374324357 0 -0.81915203911291934 0.20478800977822983 0 -0.14339411093581089 1 I I -0.70710678118654746 0.70710678118654746 0.25 forward I I I I #
loop $-1 $-1 $193 $53 #
coedge $-1 $122 $122 $194 $195 reversed $76 $-1 #
face $-1 $196 $197 $42 $-1 $198 reversed single #
loop $-1 $-1 $199 $78 #
plane-surface $-1 -57.975402081362333 -9.5722287817001703 2.4607914742446582 -0.77714596973225614 0 0.62932038083071107 0.62932038083071107 0 0.77714596973225614 forward_v I I I I #
coedge $-1 $200 $201 $202 $203 reversed $79 $-1 #
face $-1 $-1 $204 $43 $-1 $205 forward single #
loop $-1 $206 $207 $81 #
cone-surface $-1 -52.32649944417328 -11.739104068940524 2.2937451774869659 0.77714596973225614 0 -0.62932038083071107 0.31466019041535553 0 0.38857298486612807 1 I I -0.70710678118654746 0.70710678118654746 0.5 forward I I I I #
loop $-1 $-1 $208 $55 #
coedge $-1 $131 $131 $209 $210 reversed $82 $-1 #
face $-1 $-1 $211 $44 $-1 $212 forward single #
loop $-1 $213 $214 $84 #
cone-surface $-1 -52.32649944417328 -7.4053534944598169 2.2937451774869659 0.77714596973225614 0 -0.62932038083071107 0.31466019041535553 0 0.38857298486612807 1 I I -0.70710678118654746 0.70710678118654746 0.5 forward I I I I #
loop $-1 $-1 $215 $56 #
coedge $-1 $136 $136 $216 $217 reversed $85 $-1 #
face $-1 $218 $219 $45 $-1 $220 reversed single #
loop $-1 $-1 $221 $87 #
plane-surface $-1 -57.975402081362333 15.713323452373995 2.4607914742446582 -0.77714596973225614 0 0.62932038083071107 0.62932038083071107 0 0.77714596973225614 forward_v I I I I #
coedge $-1 $222 $223 $224 $225 reversed $88 $-1 #
face $-1 $-1 $226 $46 $-1 $227 forward single #
loop $-1 $228 $229 $90 #
cone-surface $-1 -52.32649944417328 13.546448165133636 2.2937451774869659 0.77714596973225614 0 -0.62932038083071107 0.31466019041535553 0 0.38857298486612807 1 I I -0.70710678118654746 0.70710678118654746 0.5 forward I I I I #
loop $-1 $-1 $230 $58 #
coedge $-1 $145 $145 $231 $232 reversed $91 $-1 #
face $-1 $-1 $233 $47 $-1 $234 forward single #
loop $-1 $235 $236 $93 #
cone-surface $-1 -52.32649944417328 17.880198739614347 2.2937451774869659 0.77714596973225614 0 -0.62932038083071107 0.31466019041535553 0 0.38857298486612807 1 I I -0.70710678118654746 0.70710678118654746 0.5 forward I I I I #
loop $-1 $-1 $237 $59 #
coedge $-1 $150 $150 $238 $239 reversed $94 $-1 #
face $-1 $240 $241 $36 $-1 $242 reversed single #
loop $-1 $-1 $243 $96 #
plane-surface $-1 0 -23.372754951469364 0 0 1 0 0 0 1 forward_v I I I I #
coedge $-1 $244 $245 $246 $247 forward $97 $-1 #
coedge $-1 $248 $99 $249 $250 forward $61 $-1 #
coedge $-1 $99 $248 $251 $252 forward $61 $-1 #
coedge $-1 $253 $254 $99 $158 reversed $255 $-1 #
edge $-1 $256 -23.372754951469364 $257 23.372754951469364 $157 $258 forward 7 unknown #
face $-1 $259 $260 $37 $-1 $261 reversed single #
loop $-1 $-1 $262 $100 #
plane-surface $-1 0 0 -7.7844748256438079 0 0 1 1 0 0 forward_v I I I I #
coedge $-1 $263 $264 $265 $266 reversed $101 $-1 #
coedge $-1 $267 $103 $264 $268 forward $64 $-1 #
coedge $-1 $103 $267 $269 $270 reversed $64 $-1 #
coedge $-1 $271 $265 $103 $166 forward $260 $-1 #
edge $-1 $272 7.0805564727293149 $273 13.221651143403138 $165 $274 forward 7 unknown #
face $-1 $275 $276 $38 $-1 $277 reversed single #
loop $-1 $-1 $278 $104 #
plane-surface $-1 29.500714315508546 -17.231660280795541 166.16922975965244 0 1 0 0.57357644374324357 0 0.81915203911291934 forward_v I I I I #
coedge $-1 $279 $280 $281 $282 reversed $105 $-1 #
coedge $-1 $172 $107 $283 $284 reversed $67 $-1 #
coedge $-1 $107 $171 $279 $285 reversed $67 $-1 #
coedge $-1 $281 $286 $107 $174 forward $287 $-1 #
edge $-1 $288 -43.225044923608074 $289 -38.793169508746907 $173 $290 forward 7 unknown #
loop $-1 $-1 $180 $108 #
plane-surface $-1 -37.005935585316365 -13.327485694703629 71.187892092973726 0.57357644374324357 0 0.81915203911291934 0.81915203911291934 0 -0.57357644374324357 forward_v I I I I #
loop $-1 $-1 $291 $69 #
coedge $-1 $178 $178 $179 $292 reversed $109 $-1 #
coedge $-1 $179 $179 $178 $292 forward $111 $-1 #
coedge $-1 $180 $180 $112 $181 forward $175 $-1 #
edge $-1 $293 0 $293 6.2831853071796004 $180 $294 forward 7 unknown #
loop $-1 $-1 $187 $113 #
plane-surface $-1 -37.005935585316365 -13.327485694703629 71.187892092973726 0.57357644374324357 0 0.81915203911291934 0.81915203911291934 0 -0.57357644374324357 forward_v I I I I #
loop $-1 $-1 $295 $72 #
coedge $-1 $185 $185 $186 $296 reversed $114 $-1 #
coedge $-1 $186 $186 $185 $296 forward $116 $-1 #
coedge $-1 $187 $187 $117 $188 forward $182 $-1 #
edge $-1 $297 0 $297 6.2831853071796004 $187 $298 forward 7 unknown #
loop $-1 $-1 $194 $118 #
plane-surface $-1 -37.005935585316365 -13.327485694703629 71.187892092973726 0.57357644374324357 0 0.81915203911291934 0.81915203911291934 0 -0.57357644374324357 forward_v I I I I #
loop $-1 $-1 $299 $75 #
coedge $-1 $192 $192 $193 $300 reversed $119 $-1 #
coedge $-1 $193 $193 $192 $300 forward $121 $-1 #
coedge $-1 $194 $194 $122 $195 forward $189 $-1 #
edge $-1 $301 0 $301 6.2831853071796004 $194 $302 forward 7 unknown #
face $-1 $303 $304 $42 $-1 $305 forward single #
loop $-1 $-1 $306 $123 #
plane-surface $-1 -148.08610222363794 -4.5161864448060136 75.430995707557756 0 -1 0 0.77714596973225614 0 -0.62932038083071107 forward_v I I I I #
coedge $-1 $307 $308 $309 $310 reversed $124 $-1 #
coedge $-1 $201 $126 $311 $312 reversed $79 $-1 #
coedge $-1 $126 $200 $307 $313 reversed $79 $-1 #
coedge $-1 $309 $314 $126 $203 forward $304 $-1 #
edge $-1 $315 16.067649030456622 $316 20.378682690296472 $202 $317 forward 7 unknown #
loop $-1 $-1 $209 $127 #
plane-surface $-1 -57.975402081362333 -9.5722287817001703 2.4607914742446582 -0.77714596973225614 0 0.62932038083071107 0.62932038083071107 0 0.77714596973225614 forward_v I I I I #
loop $-1 $-1 $318 $81 #
coedge $-1 $207 $207 $208 $319 reversed $128 $-1 #
coedge $-1 $208 $208 $207 $319 forward $130 $-1 #
coedge $-1 $209 $209 $131 $210 forward $204 $-1 #
edge $-1 $320 0 $320 6.2831853071796004 $209 $321 forward 7 unknown #
loop $-1 $-1 $216 $132 #
plane-surface $-1 -57.975402081362333 -9.5722287817001703 2.4607914742446582 -0.77714596973225614 0 0.62932038083071107 0.62932038083071107 0 0.77714596973225614 forward_v I I I I #
loop $-1 $-1 $322 $84 #
coedge $-1 $214 $214 $215 $323 reversed $133 $-1 #
coedge $-1 $215 $215 $214 $323 forward $135 $-1 #
coedge $-1 $216 $216 $136 $217 forward $211 $-1 #
edge $-1 $324 0 $324 6.2831853071796004 $216 $325 forward 7 unknown #
face $-1 $326 $327 $45 $-1 $328 forward single #
loop $-1 $-1 $329 $137 #
plane-surface $-1 -148.08610222363794 20.76936578926815 75.430995707557756 0 -1 0 0.77714596973225614 0 -0.62932038083071107 forward_v I I I I #
coedge $-1 $330 $331 $332 $333 reversed $138 $-1 #
coedge $-1 $223 $140 $334 $335 reversed $88 $-1 #
coedge $-1 $140 $222 $330 $336 reversed $88 $-1 #
coedge $-1 $332 $337 $140 $225 forward $327 $-1 #
edge $-1 $338 16.067649030456622 $339 20.378682690296472 $224 $340 forward 7 unknown #
loop $-1 $-1 $231 $141 #
plane-surface $-1 -57.975402081362333 15.713323452373995 2.4607914742446582 -0.77714596973225614 0 0.62932038083071107 0.62932038083071107 0 0.77714596973225614 forward_v I I I I #
loop $-1 $-1 $341 $90 #
coedge $-1 $229 $229 $230 $342 reversed $142 $-1 #
coedge $-1 $230 $230 $229 $342 forward $144 $-1 #
coedge $-1 $231 $231 $145 $232 forward $226 $-1 #
edge $-1 $343 0 $343 6.2831853071796004 $231 $344 forward 7 unknown #
loop $-1 $-1 $238 $146 #
plane-surface $-1 -57.975402081362333 15.713323452373995 2.4607914742446582 -0.77714596973225614 0 0.62932038083071107 0.62932038083071107 0 0.77714596973225614 forward_v I I I I #
loop $-1 $-1 $345 $93 #
coedge $-1 $236 $236 $237 $346 reversed $147 $-1 #
coedge $-1 $237 $237 $236 $346 forward $149 $-1 #
coedge $-1 $238 $238 $150 $239 forward $233 $-1 #
edge $-1 $347 0 $347 6.2831853071796004 $238 $348 forward 7 unknown #
face $-1 $349 $350 $36 $-1 $351 reversed single #
loop $-1 $-1 $352 $151 #
plane-surface $-1 -57.975402081362347 0 0 1 0 0 0 0 -1 forward_v I I I I #
coedge $-1 $353 $251 $354 $355 forward $152 $-1 #
coedge $-1 $356 $154 $353 $357 forward $97 $-1 #
coedge $-1 $154 $356 $358 $359 forward $97 $-1 #
coedge $-1 $254 $253 $154 $247 reversed $255 $-1 #
edge $-1 $360 -23.372754951469364 $361 23.372754951469364 $246 $362 forward 7 unknown #
coedge $-1 $156 $155 $363 $364 forward $61 $-1 #
coedge $-1 $365 $366 $155 $250 reversed $350 $-1 #
edge $-1 $257 -57.975402081362347 $367 57.975402081362347 $249 $368 forward 7 unknown #
coedge $-1 $243 $369 $156 $252 reversed $152 $-1 #
edge $-1 $370 -57.975402081362347 $256 57.975402081362347 $251 $371 forward 7 unknown #
coedge $-1 $246 $157 $369 $372 forward $255 $-1 #
coedge $-1 $157 $246 $365 $373 reversed $255 $-1 #
loop $-1 $-1 $253 $349 #
vertex $-1 $158 $374 #
vertex $-1 $158 $375 #
straight-curve $-1 57.975402081362347 0 7.7844748256438079 0 1 0 I I #
face $-1 $376 $377 $37 $-1 $378 reversed single #
loop $-1 $-1 $265 $159 #
plane-surface $-1 57.975402081362347 0 0 -1 0 0 0 0 1 forward_v I I I I #
coedge $-1 $379 $380 $263 $381 forward $160 $-1 #
coedge $-1 $382 $162 $262 $381 reversed $101 $-1 #
coedge $-1 $162 $382 $163 $268 reversed $101 $-1 #
coedge $-1 $165 $383 $162 $266 forward $260 $-1 #
edge $-1 $384 -5.0435162674259626 $272 -0.43840084900972931 $265 $385 forward 7 unknown #
coedge $-1 $164 $163 $386 $387 reversed $64 $-1 #
edge $-1 $272 -57.975402081362347 $388 57.975402081362347 $264 $389 forward 7 unknown #
coedge $-1 $390 $391 $164 $270 forward $377 $-1 #
edge $-1 $273 -57.975402081362347 $392 57.975402081362347 $269 $393 forward 7 unknown #
coedge $-1 $383 $165 $391 $394 forward $260 $-1 #
vertex $-1 $166 $395 #
vertex $-1 $394 $396 #
straight-curve $-1 57.975402081362347 -10.151103808066226 -3.179359407227575 0 -1 0 I I #
face $-1 $-1 $287 $38 $-1 $397 forward single #
loop $-1 $-1 $398 $167 #
plane-surface $-1 57.975402081362347 0 0 -1 0 0 0 0 1 forward_v I I I I #
coedge $-1 $399 $400 $401 $402 reversed $168 $-1 #
coedge $-1 $403 $170 $172 $285 forward $105 $-1 #
coedge $-1 $170 $403 $399 $404 forward $105 $-1 #
coedge $-1 $401 $173 $170 $282 forward $287 $-1 #
edge $-1 $289 2.7595682612599024 $405 10.567917433443727 $281 $406 forward 7 unknown #
coedge $-1 $407 $408 $171 $284 forward $276 $-1 #
edge $-1 $409 -78.403372687677404 $288 -75.300140054182407 $283 $410 forward 7 unknown #
edge $-1 $289 110.54048324151871 $409 115.95080416272469 $172 $411 forward 7 unknown #
coedge $-1 $173 $401 $407 $412 forward $287 $-1 #
loop $-1 $-1 $401 $275 #
vertex $-1 $284 $413 #
vertex $-1 $174 $414 #
straight-curve $-1 14.750357157754273 -9.4233111086117169 7.7844748256438123 -1 0 0 I I #
coedge $-1 $291 $291 $-1 $415 reversed $177 $-1 #
edge $-1 $416 0 $416 6.2831853071796004 $178 $417 forward 7 unknown #
vertex $-1 $181 $418 #
ellipse-curve $-1 55.759464373931756 -15.669990446358776 6.2328585088963147 0.57357644374324357 0 0.81915203911291934 0.40957601955645967 0 -0.28678822187162178 1 I I #
coedge $-1 $295 $295 $-1 $419 reversed $184 $-1 #
edge $-1 $420 0 $420 6.2831853071796004 $185 $421 forward 7 unknown #
vertex $-1 $188 $422 #
ellipse-curve $-1 55.759464373931756 -13.327485694703629 6.2328585088963147 0.57357644374324357 0 0.81915203911291934 0.40957601955645967 0 -0.28678822187162178 1 I I #
coedge $-1 $299 $299 $-1 $423 reversed $191 $-1 #
edge $-1 $424 0 $424 6.2831853071796004 $192 $425 forward 7 unknown #
vertex $-1 $195 $426 #
ellipse-curve $-1 55.759464373931756 -10.984980943048482 6.2328585088963147 0.57357644374324357 0 0.81915203911291934 0.40957601955645967 0 -0.28678822187162178 1 I I #
face $-1 $-1 $427 $42 $-1 $428 reversed single #
loop $-1 $-1 $202 $196 #
plane-surface $-1 0 0 7.7844748256438079 0 0 1 1 0 0 forward_v I I I I #
coedge $-1 $429 $430 $431 $432 reversed $197 $-1 #
coedge $-1 $433 $199 $201 $313 forward $124 $-1 #
coedge $-1 $199 $433 $429 $434 forward $124 $-1 #
coedge $-1 $431 $202 $199 $310 forward $304 $-1 #
edge $-1 $316 -9.8421567277442428 $435 0.26992794604407155 $309 $436 forward 7 unknown #
coedge $-1 $437 $438 $200 $312 forward $427 $-1 #
edge $-1 $439 -35.254706379534241 $315 -29.931023028135069 $311 $440 forward 7 unknown #
edge $-1 $316 -6.8503004052549796 $439 2.2748066086763162e-014 $201 $441 forward 7 unknown #
coedge $-1 $202 $431 $437 $442 forward $304 $-1 #
vertex $-1 $312 $443 #
vertex $-1 $203 $444 #
straight-curve $-1 -74.043051111818968 -14.628271118594327 7.7844748256438052 1 0 0 I I #
coedge $-1 $318 $318 $-1 $445 reversed $206 $-1 #
edge $-1 $446 0 $446 6.2831853071796004 $207 $447 forward 7 unknown #
vertex $-1 $210 $448 #
ellipse-curve $-1 -55.819885251442415 -11.739104068940524 5.1226331499442281 -0.77714596973225614 0 0.62932038083071107 0.62932038083071107 0 0.77714596973225614 1 I I #
coedge $-1 $322 $322 $-1 $449 reversed $213 $-1 #
edge $-1 $450 0 $450 6.2831853071796004 $214 $451 forward 7 unknown #
vertex $-1 $217 $452 #
ellipse-curve $-1 -55.819885251442415 -7.4053534944598169 5.1226331499442281 -0.77714596973225614 0 0.62932038083071107 0.62932038083071107 0 0.77714596973225614 1 I I #
face $-1 $-1 $453 $45 $-1 $454 reversed single #
loop $-1 $-1 $224 $218 #
plane-surface $-1 0 0 7.7844748256438079 0 0 1 1 0 0 forward_v I I I I #
coedge $-1 $455 $456 $457 $458 reversed $219 $-1 #
coedge $-1 $459 $221 $223 $336 forward $138 $-1 #
coedge $-1 $221 $459 $455 $460 forward $138 $-1 #
coedge $-1 $457 $224 $221 $333 forward $327 $-1 #
edge $-1 $339 2.8006193892928408 $461 12.912704063081152 $332 $462 forward 7 unknown #
coedge $-1 $463 $464 $222 $335 forward $453 $-1 #
edge $-1 $465 -35.254706379534241 $338 -29.931023028135069 $334 $466 forward 7 unknown #
edge $-1 $339 -6.8503004052549796 $465 2.2748066086763162e-014 $223 $467 forward 7 unknown #
coedge $-1 $224 $457 $463 $468 forward $327 $-1 #
vertex $-1 $225 $469 #
vertex $-1 $225 $470 #
straight-curve $-1 -74.043051111818968 10.657281115479838 7.7844748256438052 1 0 0 I I #
coedge $-1 $341 $341 $-1 $471 reversed $228 $-1 #
edge $-1 $472 0 $472 6.2831853071796004 $229 $473 forward 7 unknown #
vertex $-1 $232 $474 #
ellipse-curve $-1 -55.819885251442415 13.546448165133636 5.1226331499442281 -0.77714596973225614 0 0.62932038083071107 0.62932038083071107 0 0.77714596973225614 1 I I #
coedge $-1 $345 $345 $-1 $475 reversed $235 $-1 #
edge $-1 $476 0 $476 6.2831853071796004 $236 $477 forward 7 unknown #
vertex $-1 $239 $478 #
ellipse-curve $-1 -55.819885251442415 17.880198739614347 5.1226331499442281 -0.77714596973225614 0 0.62932038083071107 0.62932038083071107 0 0.77714596973225614 1 I I #
face $-1 $-1 $255 $36 $-1 $479 reversed single #
loop $-1 $-1 $365 $240 #
plane-surface $-1 0 23.372754951469364 0 0 -1 0 0 0 -1 forward_v I I I I #
coedge $-1 $480 $363 $366 $481 forward $241 $-1 #
coedge $-1 $369 $243 $244 $357 reversed $152 $-1 #
coedge $-1 $363 $480 $243 $355 reversed $241 $-1 #
edge $-1 $370 -7.7844748256438079 $482 7.7844748256438079 $354 $483 forward 7 unknown #
coedge $-1 $245 $244 $480 $484 forward $97 $-1 #
edge $-1 $361 -57.975402081362347 $482 57.975402081362347 $353 $485 forward 7 unknown #
coedge $-1 $366 $365 $245 $359 reversed $350 $-1 #
edge $-1 $486 -57.975402081362347 $360 57.975402081362347 $358 $487 forward 7 unknown #
vertex $-1 $247 $488 #
vertex $-1 $372 $489 #
straight-curve $-1 57.975402081362347 0 -7.7844748256438079 0 -1 0 I I #
coedge $-1 $352 $354 $248 $364 reversed $241 $-1 #
edge $-1 $367 -23.372754951469364 $370 23.372754951469364 $363 $490 forward 7 unknown #
coedge $-1 $358 $249 $254 $373 forward $350 $-1 #
coedge $-1 $249 $358 $352 $481 reversed $350 $-1 #
vertex $-1 $250 $491 #
straight-curve $-1 0 23.372754951469364 7.7844748256438079 -1 0 0 I I #
coedge $-1 $251 $353 $253 $372 reversed $152 $-1 #
vertex $-1 $364 $492 #
straight-curve $-1 0 -23.372754951469364 7.7844748256438079 1 0 0 I I #
edge $-1 $256 -7.7844748256438079 $361 7.7844748256438079 $253 $493 forward 7 unknown #
edge $-1 $257 -7.7844748256438079 $360 7.7844748256438079 $254 $494 forward 7 unknown #
point $-1 57.975402081362347 -23.372754951469364 7.7844748256438079 #
point $-1 57.975402081362347 23.372754951469364 7.7844748256438079 #
face $-1 $-1 $495 $37 $-1 $496 reversed single #
loop $-1 $-1 $269 $259 #
plane-surface $-1 0 -23.372754951469364 0 0 1 0 0 0 1 forward_v I I I I #
coedge $-1 $497 $262 $383 $498 forward $160 $-1 #
coedge $-1 $262 $497 $499 $500 forward $160 $-1 #
edge $-1 $501 -57.975402081362347 $384 57.975402081362347 $262 $502 forward 7 unknown #
coedge $-1 $264 $263 $503 $504 reversed $101 $-1 #
coedge $-1 $265 $271 $379 $498 reversed $260 $-1 #
vertex $-1 $498 $505 #
straight-curve $-1 57.975402081362347 -17.231660280795541 -2.7409585582178457 0 0 1 I I #
coedge $-1 $503 $506 $267 $387 forward $495 $-1 #
edge $-1 $392 -13.221651143403138 $388 -7.0805564727293149 $386 $507 forward 7 unknown #
vertex $-1 $387 $508 #
straight-curve $-1 0 -17.231660280795541 -3.179359407227575 -1 0 0 I I #
coedge $-1 $509 $269 $506 $510 forward $377 $-1 #
coedge $-1 $269 $509 $271 $394 reversed $377 $-1 #
vertex $-1 $510 $511 #
straight-curve $-1 0 -23.372754951469364 -3.179359407227575 -1 0 0 I I #
edge $-1 $273 3.179359407227575 $512 7.7844748256438079 $271 $513 forward 7 unknown #
point $-1 57.975402081362347 -17.231660280795541 -3.179359407227575 #
point $-1 57.975402081362347 -23.372754951469364 -3.179359407227575 #
plane-surface $-1 0 0 7.7844748256438079 0 0 1 1 0 0 forward_v I I I I #
coedge $-1 $408 $407 $400 $514 forward $276 $-1 #
coedge $-1 $400 $278 $280 $404 reversed $168 $-1 #
coedge $-1 $278 $399 $398 $514 reversed $168 $-1 #
coedge $-1 $286 $281 $278 $402 forward $287 $-1 #
edge $-1 $405 38.793169508746907 $515 43.225044923608074 $401 $516 forward 7 unknown #
coedge $-1 $280 $279 $408 $517 reversed $105 $-1 #
edge $-1 $518 -115.95080416272469 $405 -110.54048324151871 $399 $519 forward 7 unknown #
vertex $-1 $282 $520 #
straight-curve $-1 53.54352666650118 -6.6637428473518145 7.7844748256438123 0 -1 0 I I #
coedge $-1 $398 $283 $286 $412 reversed $276 $-1 #
coedge $-1 $283 $398 $403 $517 forward $276 $-1 #
vertex $-1 $284 $521 #
straight-curve $-1 57.975402081362347 -9.4233111086117169 83.084614879826219 0 0 1 I I #
straight-curve $-1 -37.005935585316365 -9.4233111086117169 71.187892092973726 0.81915203911291934 0 -0.57357644374324357 I I #
edge $-1 $515 -17.231660280795541 $288 -9.4233111086117169 $407 $522 forward 7 unknown #
point $-1 57.975402081362347 -9.4233111086117169 7.7844748256438079 #
point $-1 53.54352666650118 -9.4233111086117169 7.7844748256438123 #
edge $-1 $523 1 $523 0 $291 $-1 forward 7 unknown #
vertex $-1 $292 $524 #
ellipse-curve $-1 55.185887930188521 -15.669990446358776 5.4137064697834063 0.57357644374324357 0 0.81915203911291934 0.40957601955645967 0 -0.28678822187162178 1 I I #
point $-1 56.169040393488224 -15.669990446358776 5.9460702870247042 #
edge $-1 $525 1 $525 0 $295 $-1 forward 7 unknown #
vertex $-1 $296 $526 #
ellipse-curve $-1 55.185887930188521 -13.327485694703629 5.4137064697834063 0.57357644374324357 0 0.81915203911291934 0.40957601955645967 0 -0.28678822187162178 1 I I #
point $-1 56.169040393488224 -13.327485694703629 5.9460702870247042 #
edge $-1 $527 1 $527 0 $299 $-1 forward 7 unknown #
vertex $-1 $300 $528 #
ellipse-curve $-1 55.185887930188521 -10.984980943048482 5.4137064697834063 0.57357644374324357 0 0.81915203911291934 0.40957601955645967 0 -0.28678822187162178 1 I I #
point $-1 56.169040393488224 -10.984980943048482 5.9460702870247042 #
loop $-1 $-1 $311 $303 #
plane-surface $-1 -57.975402081362347 0 0 1 0 0 0 0 -1 forward_v I I I I #
coedge $-1 $430 $306 $308 $434 reversed $197 $-1 #
coedge $-1 $306 $429 $529 $530 reversed $197 $-1 #
coedge $-1 $314 $309 $306 $432 forward $304 $-1 #
edge $-1 $435 -20.378682690296472 $531 -16.067649030456622 $431 $532 forward 7 unknown #
coedge $-1 $308 $307 $438 $533 reversed $124 $-1 #
edge $-1 $534 -2.2748066086763162e-014 $435 6.8503004052549796 $429 $535 forward 7 unknown #
vertex $-1 $310 $536 #
straight-curve $-1 -53.664368421522497 -4.7861143908500852 7.7844748256438105 0 1 0 I I #
coedge $-1 $529 $311 $314 $442 reversed $427 $-1 #
coedge $-1 $311 $529 $433 $533 forward $427 $-1 #
vertex $-1 $312 $537 #
straight-curve $-1 -57.975402081362347 -14.628271118594327 37.715497853778878 0 0 1 I I #
straight-curve $-1 -57.975402081362333 -14.628271118594327 2.4607914742446582 -0.62932038083071107 0 -0.77714596973225614 I I #
edge $-1 $531 4.5161864448060136 $315 14.628271118594327 $437 $538 forward 7 unknown #
point $-1 -57.975402081362347 -14.628271118594327 7.7844748256438079 #
point $-1 -53.664368421522497 -14.628271118594327 7.7844748256438079 #
edge $-1 $539 1 $539 0 $318 $-1 forward 7 unknown #
vertex $-1 $319 $540 #
ellipse-curve $-1 -52.715072429039409 -11.739104068940524 2.6084053679023214 -0.77714596973225614 0 0.62932038083071107 0.62932038083071107 0 0.77714596973225614 1 I I #
point $-1 -55.190564870611723 -11.739104068940524 5.8997791196764968 #
edge $-1 $541 1 $541 0 $322 $-1 forward 7 unknown #
vertex $-1 $323 $542 #
ellipse-curve $-1 -52.715072429039409 -7.4053534944598169 2.6084053679023214 -0.77714596973225614 0 0.62932038083071107 0.62932038083071107 0 0.77714596973225614 1 I I #
point $-1 -55.190564870611723 -7.4053534944598169 5.8997791196764968 #
loop $-1 $-1 $334 $326 #
plane-surface $-1 -57.975402081362347 0 0 1 0 0 0 0 -1 forward_v I I I I #
coedge $-1 $456 $329 $331 $460 reversed $219 $-1 #
coedge $-1 $329 $455 $543 $544 reversed $219 $-1 #
coedge $-1 $337 $332 $329 $458 forward $327 $-1 #
edge $-1 $461 -20.378682690296472 $545 -16.067649030456622 $457 $546 forward 7 unknown #
coedge $-1 $331 $330 $464 $547 reversed $138 $-1 #
edge $-1 $548 -2.2748066086763162e-014 $461 6.8503004052549796 $455 $549 forward 7 unknown #
vertex $-1 $333 $550 #
straight-curve $-1 -53.664368421522497 7.8566617261869975 7.7844748256438105 0 1 0 I I #
coedge $-1 $543 $334 $337 $468 reversed $453 $-1 #
coedge $-1 $334 $543 $459 $547 forward $453 $-1 #
vertex $-1 $335 $551 #
straight-curve $-1 -57.975402081362347 10.657281115479838 37.715497853778878 0 0 1 I I #
straight-curve $-1 -57.975402081362333 10.657281115479838 2.4607914742446582 -0.62932038083071107 0 -0.77714596973225614 I I #
edge $-1 $545 -20.76936578926815 $338 -10.657281115479838 $463 $552 forward 7 unknown #
point $-1 -57.975402081362347 10.657281115479838 7.7844748256438079 #
point $-1 -53.664368421522497 10.657281115479838 7.7844748256438079 #
edge $-1 $553 1 $553 0 $341 $-1 forward 7 unknown #
vertex $-1 $342 $554 #
ellipse-curve $-1 -52.715072429039409 13.546448165133636 2.6084053679023214 -0.77714596973225614 0 0.62932038083071107 0.62932038083071107 0 0.77714596973225614 1 I I #
point $-1 -55.190564870611723 13.546448165133636 5.8997791196764968 #
edge $-1 $555 1 $555 0 $345 $-1 forward 7 unknown #
vertex $-1 $346 $556 #
ellipse-curve $-1 -52.715072429039409 17.880198739614347 2.6084053679023214 -0.77714596973225614 0 0.62932038083071107 0.62932038083071107 0 0.77714596973225614 1 I I #
point $-1 -55.190564870611723 17.880198739614347 5.8997791196764968 #
plane-surface $-1 57.975402081362347 0 0 -1 0 0 0 0 1 forward_v I I I I #
coedge $-1 $354 $352 $356 $484 reversed $241 $-1 #
edge $-1 $367 -7.7844748256438079 $486 7.7844748256438079 $366 $557 forward 7 unknown #
vertex $-1 $484 $558 #
straight-curve $-1 -57.975402081362347 -23.372754951469364 0 0 0 -1 I I #
edge $-1 $482 -23.372754951469364 $486 23.372754951469364 $480 $559 forward 7 unknown #
straight-curve $-1 0 -23.372754951469364 -7.7844748256438079 -1 0 0 I I #
vertex $-1 $359 $560 #
straight-curve $-1 0 23.372754951469364 -7.7844748256438079 1 0 0 I I #
point $-1 57.975402081362347 23.372754951469364 -7.7844748256438079 #
point $-1 57.975402081362347 -23.372754951469364 -7.7844748256438079 #
straight-curve $-1 -57.975402081362347 0 7.7844748256438079 0 -1 0 I I #
point $-1 -57.975402081362347 23.372754951469364 7.7844748256438079 #
point $-1 -57.975402081362347 -23.372754951469364 7.7844748256438079 #
straight-curve $-1 57.975402081362347 -23.372754951469364 0 0 0 -1 I I #
straight-curve $-1 57.975402081362347 23.372754951469364 0 0 0 -1 I I #
loop $-1 $-1 $503 $376 #
plane-surface $-1 -57.975402081362347 0 0 1 0 0 0 0 -1 forward_v I I I I #
coedge $-1 $380 $379 $509 $561 forward $160 $-1 #
edge $-1 $384 17.231660280795541 $512 23.372754951469364 $383 $562 forward 7 unknown #
coedge $-1 $506 $503 $380 $500 reversed $495 $-1 #
edge $-1 $563 -23.372754951469364 $501 -17.231660280795541 $499 $564 forward 7 unknown #
vertex $-1 $504 $565 #
straight-curve $-1 0 -17.231660280795541 -7.7844748256438079 1 0 0 I I #
coedge $-1 $499 $386 $382 $504 forward $495 $-1 #
edge $-1 $388 0.43840084900972931 $501 5.0435162674259626 $503 $566 forward 7 unknown #
point $-1 57.975402081362347 -17.231660280795541 -7.7844748256438079 #
coedge $-1 $386 $499 $390 $510 reversed $495 $-1 #
straight-curve $-1 -57.975402081362347 -10.151103808066226 -3.179359407227575 0 1 0 I I #
point $-1 -57.975402081362347 -17.231660280795541 -3.179359407227575 #
coedge $-1 $391 $390 $497 $561 reversed $377 $-1 #
edge $-1 $392 3.179359407227575 $563 7.7844748256438079 $506 $567 forward 7 unknown #
point $-1 -57.975402081362347 -23.372754951469364 -3.179359407227575 #
vertex $-1 $394 $568 #
straight-curve $-1 57.975402081362347 -23.372754951469364 0 0 0 -1 I I #
edge $-1 $515 75.300140054182407 $518 78.403372687677404 $398 $569 forward 7 unknown #
vertex $-1 $412 $570 #
straight-curve $-1 14.750357157754273 -17.231660280795541 7.7844748256438123 1 0 0 I I #
edge $-1 $518 -10.567917433443727 $409 -2.7595682612599024 $408 $571 forward 7 unknown #
vertex $-1 $517 $572 #
straight-curve $-1 -37.005935585316365 -17.231660280795541 71.187892092973726 -0.81915203911291934 0 0.57357644374324357 I I #
point $-1 53.54352666650118 -17.231660280795541 7.7844748256438123 #
point $-1 57.975402081362347 -9.4233111086117169 4.6812421921488152 #
straight-curve $-1 57.975402081362347 0 7.7844748256438079 0 1 0 I I #
vertex $-1 $415 $573 #
point $-1 55.595463949744982 -15.669990446358776 5.1269182479117852 #
vertex $-1 $419 $574 #
point $-1 55.595463949744982 -13.327485694703629 5.1269182479117852 #
vertex $-1 $423 $575 #
point $-1 55.595463949744982 -10.984980943048482 5.1269182479117852 #
coedge $-1 $438 $437 $430 $530 forward $427 $-1 #
edge $-1 $531 29.931023028135069 $534 35.254706379534241 $529 $576 forward 7 unknown #
vertex $-1 $442 $577 #
straight-curve $-1 -74.043051111818968 -4.5161864448060136 7.7844748256438052 -1 0 0 I I #
edge $-1 $534 -0.26992794604407155 $439 9.8421567277442428 $438 $578 forward 7 unknown #
vertex $-1 $533 $579 #
straight-curve $-1 -57.975402081362333 -4.5161864448060136 2.4607914742446582 0.62932038083071107 0 0.77714596973225614 I I #
point $-1 -53.664368421522497 -4.5161864448060136 7.7844748256438079 #
point $-1 -57.975402081362347 -14.628271118594327 2.4607914742446404 #
straight-curve $-1 -57.975402081362347 0 7.7844748256438079 0 -1 0 I I #
vertex $-1 $445 $580 #
point $-1 -52.085752048208697 -11.739104068940524 3.3855513376345776 #
vertex $-1 $449 $581 #
point $-1 -52.085752048208697 -7.4053534944598169 3.3855513376345776 #
coedge $-1 $464 $463 $456 $544 forward $453 $-1 #
edge $-1 $545 29.931023028135069 $548 35.254706379534241 $543 $582 forward 7 unknown #
vertex $-1 $468 $583 #
straight-curve $-1 -74.043051111818968 20.76936578926815 7.7844748256438052 -1 0 0 I I #
edge $-1 $548 -12.912704063081152 $465 -2.8006193892928408 $464 $584 forward 7 unknown #
vertex $-1 $547 $585 #
straight-curve $-1 -57.975402081362333 20.76936578926815 2.4607914742446582 0.62932038083071107 0 0.77714596973225614 I I #
point $-1 -53.664368421522497 20.76936578926815 7.7844748256438079 #
point $-1 -57.975402081362347 10.657281115479838 2.4607914742446404 #
straight-curve $-1 -57.975402081362347 0 7.7844748256438079 0 -1 0 I I #
vertex $-1 $471 $586 #
point $-1 -52.085752048208697 13.546448165133636 3.3855513376345776 #
vertex $-1 $475 $587 #
point $-1 -52.085752048208697 17.880198739614347 3.3855513376345776 #
straight-curve $-1 -57.975402081362347 23.372754951469364 0 0 0 -1 I I #
point $-1 -57.975402081362347 -23.372754951469364 -7.7844748256438079 #
straight-curve $-1 -57.975402081362347 0 -7.7844748256438079 0 1 0 I I #
point $-1 -57.975402081362347 23.372754951469364 -7.7844748256438079 #
edge $-1 $512 -57.975402081362347 $563 57.975402081362347 $509 $588 forward 7 unknown #
straight-curve $-1 57.975402081362347 0 -7.7844748256438079 0 -1 0 I I #
vertex $-1 $500 $589 #
straight-curve $-1 -57.975402081362347 0 -7.7844748256438079 0 1 0 I I #
point $-1 -57.975402081362347 -17.231660280795541 -7.7844748256438079 #
straight-curve $-1 -57.975402081362347 -17.231660280795541 -2.7409585582178457 0 0 -1 I I #
straight-curve $-1 -57.975402081362347 -23.372754951469364 0 0 0 -1 I I #
point $-1 57.975402081362347 -23.372754951469364 -7.7844748256438079 #
straight-curve $-1 57.975402081362347 -17.231660280795541 83.084614879826219 0 0 -1 I I #
point $-1 57.975402081362347 -17.231660280795541 7.7844748256438079 #
straight-curve $-1 57.975402081362347 -6.6637428473518145 4.6812421921488152 0 1 0 I I #
point $-1 57.975402081362347 -17.231660280795541 4.6812421921488152 #
point $-1 54.899099708316903 -15.669990446358776 5.0041304502269472 #
point $-1 54.899099708316903 -13.327485694703629 5.0041304502269472 #
point $-1 54.899099708316903 -10.984980943048482 5.0041304502269472 #
straight-curve $-1 -57.975402081362347 -4.5161864448060136 37.715497853778878 0 0 -1 I I #
point $-1 -57.975402081362347 -4.5161864448060136 7.7844748256438079 #
straight-curve $-1 -57.975402081362347 -4.7861143908500852 2.4607914742446431 0 -1 0 I I #
point $-1 -57.975402081362347 -4.5161864448060136 2.4607914742446404 #
point $-1 -51.93792645930715 -11.739104068940524 1.9790849870716105 #
point $-1 -51.93792645930715 -7.4053534944598169 1.9790849870716105 #
straight-curve $-1 -57.975402081362347 20.76936578926815 37.715497853778878 0 0 -1 I I #
point $-1 -57.975402081362347 20.76936578926815 7.7844748256438079 #
straight-curve $-1 -57.975402081362347 7.8566617261869975 2.4607914742446431 0 -1 0 I I #
point $-1 -57.975402081362347 20.76936578926815 2.4607914742446404 #
point $-1 -51.93792645930715 13.546448165133636 1.9790849870716105 #
point $-1 -51.93792645930715 17.880198739614347 1.9790849870716105 #
straight-curve $-1 0 -23.372754951469364 -7.7844748256438079 -1 0 0 I I #
point $-1 -57.975402081362347 -23.372754951469364 -7.7844748256438079 #
End-of-ACIS-data 