500 0 6 0           
7 Unknown 11 ACIS 5.0 NT 24 Fri Mar 26 00:45:28 1999 
-1 9.9999999999999995e-007 1e-010 
body $-1 $6 $-1 $7 #
body $-1 $8 $-1 $9 #
body $-1 $10 $-1 $11 #
body $-1 $12 $-1 $13 #
body $-1 $14 $-1 $15 #
body $-1 $16 $-1 $17 #
lump $-1 $-1 $18 $0 #
transform $-1 1 0 0 0 1 0 0 0 1 53.871272927030248 34.710612408802106 16.626602622260027 1 rotate no_reflect no_shear #
lump $-1 $-1 $19 $1 #
transform $-1 1 0 0 0 1 0 0 0 1 53.871272927030248 34.710612408802106 16.626602622260027 1 rotate no_reflect no_shear #
lump $-1 $-1 $20 $2 #
transform $-1 1 0 0 0 1 0 0 0 1 53.871272927030248 34.710612408802106 16.626602622260027 1 rotate no_reflect no_shear #
lump $-1 $-1 $21 $3 #
transform $-1 1 0 0 0 1 0 0 0 1 53.871272927030248 34.710612408802106 16.626602622260027 1 rotate no_reflect no_shear #
lump $-1 $-1 $22 $4 #
transform $-1 1 0 0 0 1 0 0 0 1 53.871272927030248 34.710612408802106 16.626602622260027 1 rotate no_reflect no_shear #
lump $-1 $-1 $23 $5 #
transform $-1 1 0 0 0 1 0 0 0 1 53.871272927030248 34.710612408802106 16.626602622260027 1 rotate no_reflect no_shear #
shell $-1 $-1 $-1 $24 $-1 $6 #
shell $-1 $-1 $-1 $25 $-1 $8 #
shell $-1 $-1 $-1 $26 $-1 $10 #
shell $-1 $-1 $-1 $27 $-1 $12 #
shell $-1 $-1 $-1 $28 $-1 $14 #
shell $-1 $-1 $-1 $29 $-1 $16 #
face $-1 $30 $31 $18 $-1 $32 reversed single #
face $-1 $33 $34 $19 $-1 $35 forward single #
face $-1 $36 $37 $20 $-1 $38 reversed single #
face $-1 $39 $40 $21 $-1 $41 forward single #
face $-1 $42 $43 $22 $-1 $44 reversed single #
face $-1 $45 $46 $23 $-1 $47 forward single #
face $-1 $48 $49 $18 $-1 $50 forward single #
loop $-1 $-1 $51 $24 #
plane-surface $-1 0 -34.710612408802106 0 0 1 0 0 0 1 forward_v I I I I #
face $-1 $52 $53 $19 $-1 $54 reversed single #
loop $-1 $-1 $55 $25 #
plane-surface $-1 0 -34.710612408802106 0 0 1 0 0 0 1 forward_v I I I I #
face $-1 $56 $57 $20 $-1 $58 reversed single #
loop $-1 $-1 $59 $26 #
plane-surface $-1 -133.93958925447345 -19.376700612935011 77.542894814263931 0 1 0 -0.74314483375859142 0 0.66913059716165679 forward_v I I I I #
face $-1 $60 $61 $21 $-1 $62 forward single #
loop $-1 $63 $64 $27 #
cone-surface $-1 -46.253269879573189 -13.816953232299422 8.7095208500290227 0.74314483375859142 0 -0.66913059716165679 1.6728264929041421 0 1.8578620843964786 1 I I 0 1 2.5 forward I I I I #
face $-1 $65 $66 $22 $-1 $67 reversed single #
loop $-1 $-1 $68 $28 #
plane-surface $-1 61.845755207428752 -8.2572058516638336 157.61121114170712 0 -1 0 -0.74314483375859142 0 -0.66913059716165679 forward_v I I I I #
face $-1 $69 $70 $23 $-1 $71 forward single #
loop $-1 $72 $73 $29 #
cone-surface $-1 46.253269879573189 -13.816953232299422 8.7095208500290084 -0.74314483375859142 0 -0.66913059716165679 1.6728264929041421 0 -1.8578620843964786 1 I I 0 1 2.5 forward I I I I #
face $-1 $74 $75 $18 $-1 $76 reversed single #
loop $-1 $-1 $77 $30 #
plane-surface $-1 0 0 16.626602622260027 0 0 1 1 0 0 forward_v I I I I #
coedge $-1 $78 $79 $80 $81 reversed $31 $-1 #
face $-1 $82 $83 $19 $-1 $84 reversed single #
loop $-1 $-1 $85 $33 #
plane-surface $-1 0 0 -16.626602622260027 0 0 1 1 0 0 forward_v I I I I #
coedge $-1 $86 $87 $88 $89 forward $34 $-1 #
face $-1 $90 $91 $20 $-1 $92 reversed single #
loop $-1 $-1 $93 $36 #
plane-surface $-1 -53.871272927030248 -13.816953232299422 5.4490607672192368 -0.74314483375859142 0 0.66913059716165679 0.66913059716165679 0 0.74314483375859142 forward_v I I I I #
coedge $-1 $94 $95 $96 $97 reversed $37 $-1 #
face $-1 $-1 $98 $21 $-1 $99 forward single #
loop $-1 $100 $101 $39 #
cone-surface $-1 -42.738487610468979 -13.816953232299422 5.5447967588663367 0.74314483375859142 0 -0.66913059716165679 0.83641324645207105 0 0.9289310421982393 1 I I -0.70710678118654746 0.70710678118654746 1.25 forward I I I I #
loop $-1 $-1 $102 $27 #
coedge $-1 $64 $64 $103 $104 reversed $40 $-1 #
face $-1 $105 $106 $22 $-1 $107 reversed single #
loop $-1 $-1 $108 $42 #
plane-surface $-1 -18.222561120014447 -13.816953232299422 85.517377094662422 0.74314483375859142 0 0.66913059716165679 0.66913059716165679 0 -0.74314483375859142 forward_v I I I I #
coedge $-1 $109 $110 $111 $112 reversed $43 $-1 #
face $-1 $-1 $113 $23 $-1 $114 forward single #
loop $-1 $115 $116 $45 #
cone-surface $-1 42.738487610468979 -13.816953232299422 5.5447967588663225 -0.74314483375859142 0 -0.66913059716165679 0.83641324645207105 0 -0.9289310421982393 1 I I -0.70710678118654746 0.70710678118654746 1.25 forward I I I I #
loop $-1 $-1 $117 $29 #
coedge $-1 $73 $73 $118 $119 reversed $46 $-1 #
face $-1 $120 $121 $18 $-1 $122 reversed single #
loop $-1 $-1 $123 $48 #
plane-surface $-1 0 0 -16.626602622260027 0 0 1 1 0 0 forward_v I I I I #
coedge $-1 $124 $125 $126 $127 forward $49 $-1 #
coedge $-1 $128 $51 $129 $130 reversed $31 $-1 #
coedge $-1 $51 $128 $131 $132 forward $31 $-1 #
coedge $-1 $133 $123 $51 $81 forward $75 $-1 #
edge $-1 $134 -53.871272927030248 $135 53.871272927030248 $51 $136 forward 7 unknown #
face $-1 $137 $138 $19 $-1 $139 reversed single #
loop $-1 $-1 $140 $52 #
plane-surface $-1 -37.825721459971376 -50.044524204669202 0 0 1 0 0 0 1 forward_v I I I I #
coedge $-1 $141 $142 $87 $143 forward $53 $-1 #
coedge $-1 $144 $55 $145 $146 reversed $34 $-1 #
coedge $-1 $55 $144 $85 $143 reversed $34 $-1 #
coedge $-1 $147 $148 $55 $89 reversed $138 $-1 #
edge $-1 $149 -16.626602622260027 $150 16.626602622260027 $88 $151 forward 7 unknown #
face $-1 $152 $153 $20 $-1 $154 reversed single #
loop $-1 $-1 $155 $56 #
plane-surface $-1 -133.93958925447345 -8.2572058516638336 77.542894814263931 0 -1 0 0.74314483375859142 0 -0.66913059716165679 forward_v I I I I #
coedge $-1 $156 $157 $158 $159 reversed $57 $-1 #
coedge $-1 $95 $59 $160 $161 reversed $37 $-1 #
coedge $-1 $59 $94 $156 $162 reversed $37 $-1 #
coedge $-1 $158 $163 $59 $97 forward $164 $-1 #
edge $-1 $165 13.098521700206476 $166 23.162825341308647 $96 $167 forward 7 unknown #
loop $-1 $-1 $103 $60 #
plane-surface $-1 -53.871272927030248 -13.816953232299422 5.4490607672192368 -0.74314483375859142 0 0.66913059716165679 0.66913059716165679 0 0.74314483375859142 forward_v I I I I #
loop $-1 $-1 $168 $39 #
coedge $-1 $101 $101 $102 $169 reversed $61 $-1 #
coedge $-1 $102 $102 $101 $169 forward $63 $-1 #
coedge $-1 $103 $103 $64 $104 forward $98 $-1 #
edge $-1 $170 0 $170 6.2831853071796004 $103 $171 forward 7 unknown #
face $-1 $172 $173 $22 $-1 $174 forward single #
loop $-1 $-1 $175 $65 #
plane-surface $-1 61.845755207428752 -19.376700612935011 157.61121114170712 0 1 0 0.74314483375859142 0 0.66913059716165679 forward_v I I I I #
coedge $-1 $176 $177 $178 $179 reversed $66 $-1 #
coedge $-1 $110 $68 $180 $181 reversed $43 $-1 #
coedge $-1 $68 $109 $176 $182 reversed $43 $-1 #
coedge $-1 $178 $183 $68 $112 forward $173 $-1 #
edge $-1 $184 -22.948395323315872 $185 -12.884091682213693 $111 $186 forward 7 unknown #
loop $-1 $-1 $118 $69 #
plane-surface $-1 -18.222561120014447 -13.816953232299422 85.517377094662422 0.74314483375859142 0 0.66913059716165679 0.66913059716165679 0 -0.74314483375859142 forward_v I I I I #
loop $-1 $-1 $187 $45 #
coedge $-1 $116 $116 $117 $188 reversed $70 $-1 #
coedge $-1 $117 $117 $116 $188 forward $72 $-1 #
coedge $-1 $118 $118 $73 $119 forward $113 $-1 #
edge $-1 $189 0 $189 6.2831853071796004 $118 $190 forward 7 unknown #
face $-1 $191 $192 $18 $-1 $193 reversed single #
loop $-1 $-1 $194 $74 #
plane-surface $-1 -53.871272927030248 0 0 1 0 0 0 0 -1 forward_v I I I I #
coedge $-1 $80 $195 $196 $197 forward $75 $-1 #
coedge $-1 $198 $77 $199 $200 forward $49 $-1 #
coedge $-1 $77 $198 $128 $201 forward $49 $-1 #
coedge $-1 $129 $202 $77 $127 reversed $203 $-1 #
edge $-1 $204 -34.710612408802106 $205 34.710612408802106 $126 $206 forward 7 unknown #
coedge $-1 $79 $78 $125 $201 reversed $31 $-1 #
coedge $-1 $196 $126 $78 $130 forward $203 $-1 #
edge $-1 $204 -16.626602622260027 $134 16.626602622260027 $129 $207 forward 7 unknown #
coedge $-1 $208 $209 $79 $132 reversed $121 $-1 #
edge $-1 $210 -16.626602622260027 $135 16.626602622260027 $131 $211 forward 7 unknown #
coedge $-1 $195 $80 $209 $212 forward $75 $-1 #
vertex $-1 $130 $213 #
vertex $-1 $212 $214 #
straight-curve $-1 0 -34.710612408802106 -16.626602622260027 -1 0 0 I I #
face $-1 $215 $216 $19 $-1 $217 reversed single #
loop $-1 $-1 $88 $82 #
plane-surface $-1 -39.519537256759797 -42.377568306735654 0 1 0 0 0 0 -1 forward_v I I I I #
coedge $-1 $218 $219 $220 $221 forward $83 $-1 #
coedge $-1 $222 $85 $223 $224 forward $53 $-1 #
coedge $-1 $85 $222 $147 $225 forward $53 $-1 #
edge $-1 $149 -39.519537256759797 $226 -36.131905663182955 $85 $227 forward 7 unknown #
coedge $-1 $87 $86 $228 $229 forward $34 $-1 #
coedge $-1 $230 $231 $86 $146 forward $232 $-1 #
edge $-1 $233 36.131905663182955 $150 39.519537256759797 $145 $234 forward 7 unknown #
coedge $-1 $220 $88 $142 $225 reversed $138 $-1 #
coedge $-1 $88 $220 $230 $235 reversed $138 $-1 #
vertex $-1 $143 $236 #
vertex $-1 $235 $237 #
straight-curve $-1 -39.519537256759797 -34.710612408802106 0 0 0 1 I I #
face $-1 $-1 $164 $20 $-1 $238 forward single #
loop $-1 $-1 $239 $90 #
plane-surface $-1 -53.871272927030248 0 0 1 0 0 0 0 -1 forward_v I I I I #
coedge $-1 $240 $241 $242 $243 reversed $91 $-1 #
coedge $-1 $244 $93 $95 $162 forward $57 $-1 #
coedge $-1 $93 $244 $240 $245 forward $57 $-1 #
coedge $-1 $242 $96 $93 $159 forward $164 $-1 #
edge $-1 $166 -12.4682239967853 $246 -1.3487292355141225 $158 $247 forward 7 unknown #
coedge $-1 $248 $249 $94 $161 forward $153 $-1 #
edge $-1 $250 -33.322386639912729 $165 -22.144844784871939 $160 $251 forward 7 unknown #
edge $-1 $166 -15.040865989080917 $250 0 $95 $252 forward 7 unknown #
coedge $-1 $96 $242 $248 $253 forward $164 $-1 #
loop $-1 $-1 $242 $152 #
vertex $-1 $161 $254 #
vertex $-1 $97 $255 #
straight-curve $-1 -66.969794627236723 -19.376700612935011 16.626602622260027 1 0 0 I I #
coedge $-1 $168 $168 $-1 $256 reversed $100 $-1 #
edge $-1 $257 0 $257 6.2831853071796004 $101 $258 forward 7 unknown #
vertex $-1 $104 $259 #
ellipse-curve $-1 -48.839121106479162 -13.816953232299422 11.037831694739637 -0.74314483375859142 0 0.66913059716165679 1.6728264929041421 0 1.8578620843964786 1 I I #
face $-1 $-1 $260 $22 $-1 $261 reversed single #
loop $-1 $-1 $111 $105 #
plane-surface $-1 0 0 16.626602622260027 0 0 1 1 0 0 forward_v I I I I #
coedge $-1 $262 $263 $264 $265 reversed $106 $-1 #
coedge $-1 $266 $108 $110 $182 forward $66 $-1 #
coedge $-1 $108 $266 $262 $267 forward $66 $-1 #
coedge $-1 $264 $111 $108 $179 forward $173 $-1 #
edge $-1 $185 1.3487292355141225 $268 12.4682239967853 $178 $269 forward 7 unknown #
coedge $-1 $270 $271 $109 $181 forward $260 $-1 #
edge $-1 $272 -73.35654480363435 $184 -62.179002948593535 $180 $273 forward 7 unknown #
edge $-1 $185 92.701679864979553 $272 107.7425458540605 $110 $274 forward 7 unknown #
coedge $-1 $111 $264 $270 $275 forward $173 $-1 #
vertex $-1 $112 $276 #
vertex $-1 $112 $277 #
straight-curve $-1 30.922877603714376 -8.2572058516638336 16.626602622260023 -1 0 0 I I #
coedge $-1 $187 $187 $-1 $278 reversed $115 $-1 #
edge $-1 $279 0 $279 6.2831853071796004 $116 $280 forward 7 unknown #
vertex $-1 $119 $281 #
ellipse-curve $-1 48.839121106479162 -13.816953232299422 11.037831694739625 0.74314483375859142 0 0.66913059716165679 1.6728264929041421 0 -1.8578620843964786 1 I I #
face $-1 $-1 $203 $18 $-1 $282 reversed single #
loop $-1 $-1 $283 $120 #
plane-surface $-1 0 34.710612408802106 0 0 -1 0 0 0 -1 forward_v I I I I #
coedge $-1 $209 $208 $284 $285 forward $121 $-1 #
coedge $-1 $123 $133 $286 $287 forward $75 $-1 #
coedge $-1 $202 $129 $123 $197 reversed $203 $-1 #
edge $-1 $288 -34.710612408802106 $134 34.710612408802106 $196 $289 forward 7 unknown #
coedge $-1 $125 $124 $208 $290 forward $49 $-1 #
coedge $-1 $283 $284 $124 $200 reversed $192 $-1 #
edge $-1 $205 -53.871272927030248 $291 53.871272927030248 $199 $292 forward 7 unknown #
edge $-1 $210 -53.871272927030248 $204 53.871272927030248 $128 $293 forward 7 unknown #
coedge $-1 $126 $196 $283 $294 reversed $203 $-1 #
loop $-1 $-1 $129 $191 #
vertex $-1 $127 $295 #
vertex $-1 $127 $296 #
straight-curve $-1 53.871272927030248 0 16.626602622260027 0 1 0 I I #
straight-curve $-1 53.871272927030248 -34.710612408802106 0 0 0 -1 I I #
coedge $-1 $194 $131 $198 $290 reversed $121 $-1 #
coedge $-1 $131 $194 $133 $212 reversed $121 $-1 #
vertex $-1 $290 $297 #
straight-curve $-1 -53.871272927030248 -34.710612408802106 0 0 0 -1 I I #
edge $-1 $135 -34.710612408802106 $298 34.710612408802106 $209 $299 forward 7 unknown #
point $-1 53.871272927030248 -34.710612408802106 -16.626602622260027 #
point $-1 -53.871272927030248 -34.710612408802106 -16.626602622260027 #
face $-1 $-1 $232 $19 $-1 $300 forward single #
loop $-1 $-1 $301 $137 #
plane-surface $-1 -36.131905663182955 -42.377568306735654 0 -1 0 0 0 0 1 forward_v I I I I #
coedge $-1 $302 $140 $222 $303 reversed $83 $-1 #
coedge $-1 $140 $302 $304 $305 reversed $83 $-1 #
coedge $-1 $148 $147 $140 $221 reversed $138 $-1 #
edge $-1 $306 -16.626602622260027 $307 16.626602622260027 $220 $308 forward 7 unknown #
coedge $-1 $142 $141 $218 $303 forward $53 $-1 #
coedge $-1 $228 $301 $141 $224 reversed $216 $-1 #
edge $-1 $226 -7.6669558979335477 $309 7.6669558979335477 $223 $310 forward 7 unknown #
edge $-1 $307 -7.6669558979335477 $149 7.6669558979335477 $147 $311 forward 7 unknown #
vertex $-1 $224 $312 #
straight-curve $-1 0 -34.710612408802106 -16.626602622260027 1 0 0 I I #
coedge $-1 $313 $223 $144 $229 reversed $216 $-1 #
edge $-1 $233 -16.626602622260027 $226 16.626602622260027 $228 $314 forward 7 unknown #
coedge $-1 $304 $145 $148 $235 forward $232 $-1 #
coedge $-1 $145 $304 $313 $315 forward $232 $-1 #
loop $-1 $-1 $145 $215 #
vertex $-1 $146 $316 #
straight-curve $-1 0 -34.710612408802106 16.626602622260027 -1 0 0 I I #
edge $-1 $150 -7.6669558979335477 $306 7.6669558979335477 $148 $317 forward 7 unknown #
point $-1 -39.519537256759797 -34.710612408802106 -16.626602622260027 #
point $-1 -39.519537256759797 -34.710612408802106 16.626602622260027 #
plane-surface $-1 0 0 16.626602622260027 0 0 1 1 0 0 forward_v I I I I #
coedge $-1 $249 $248 $241 $318 forward $153 $-1 #
coedge $-1 $241 $155 $157 $245 reversed $91 $-1 #
coedge $-1 $155 $240 $239 $318 reversed $91 $-1 #
coedge $-1 $163 $158 $155 $243 forward $164 $-1 #
edge $-1 $246 -23.162825341308647 $319 -13.098521700206476 $242 $320 forward 7 unknown #
coedge $-1 $157 $156 $249 $321 reversed $57 $-1 #
edge $-1 $322 0 $246 15.040865989080917 $240 $323 forward 7 unknown #
vertex $-1 $159 $324 #
straight-curve $-1 -43.806969285928076 -6.9084766161497111 16.626602622260027 0 1 0 I I #
coedge $-1 $239 $160 $163 $253 reversed $153 $-1 #
coedge $-1 $160 $239 $244 $321 forward $153 $-1 #
vertex $-1 $161 $325 #
straight-curve $-1 -53.871272927030248 -19.376700612935011 38.771447407131966 0 0 1 I I #
straight-curve $-1 -53.871272927030248 -19.376700612935011 5.4490607672192368 -0.66913059716165679 0 -0.74314483375859142 I I #
edge $-1 $319 8.2572058516638336 $165 19.376700612935011 $248 $326 forward 7 unknown #
point $-1 -53.871272927030248 -19.376700612935011 16.626602622260027 #
point $-1 -43.806969285928076 -19.376700612935011 16.626602622260027 #
edge $-1 $327 1 $327 0 $168 $-1 forward 7 unknown #
vertex $-1 $169 $328 #
ellipse-curve $-1 -43.667418652667216 -13.816953232299422 6.3812100053184082 -0.74314483375859142 0 0.66913059716165679 1.6728264929041421 0 1.8578620843964786 1 I I #
point $-1 -47.166294613575019 -13.816953232299422 12.895693779136117 #
loop $-1 $-1 $180 $172 #
plane-surface $-1 53.871272927030248 0 0 -1 0 0 0 0 1 forward_v I I I I #
coedge $-1 $263 $175 $177 $267 reversed $106 $-1 #
coedge $-1 $175 $262 $329 $330 reversed $106 $-1 #
coedge $-1 $183 $178 $175 $265 forward $173 $-1 #
edge $-1 $268 12.884091682213693 $331 22.948395323315872 $264 $332 forward 7 unknown #
coedge $-1 $177 $176 $271 $333 reversed $66 $-1 #
edge $-1 $334 -107.7425458540605 $268 -92.701679864979553 $262 $335 forward 7 unknown #
vertex $-1 $179 $336 #
straight-curve $-1 43.806969285928055 -6.9084766161497111 16.626602622260023 0 -1 0 I I #
coedge $-1 $329 $180 $183 $275 reversed $260 $-1 #
coedge $-1 $180 $329 $266 $333 forward $260 $-1 #
vertex $-1 $181 $337 #
straight-curve $-1 53.871272927030248 -8.2572058516638336 78.805605570853558 0 0 1 I I #
straight-curve $-1 -18.222561120014447 -8.2572058516638336 85.517377094662422 0.66913059716165679 0 -0.74314483375859142 I I #
edge $-1 $331 -19.376700612935011 $184 -8.2572058516638336 $270 $338 forward 7 unknown #
point $-1 53.871272927030248 -8.2572058516638336 16.626602622260027 #
point $-1 43.806969285928069 -8.2572058516638336 16.626602622260023 #
edge $-1 $339 1 $339 0 $187 $-1 forward 7 unknown #
vertex $-1 $188 $340 #
ellipse-curve $-1 43.667418652667216 -13.816953232299422 6.381210005318394 0.74314483375859142 0 0.66913059716165679 1.6728264929041421 0 -1.8578620843964786 1 I I #
point $-1 50.511947599383305 -13.816953232299422 9.1799696103431447 #
plane-surface $-1 53.871272927030248 0 0 -1 0 0 0 0 1 forward_v I I I I #
coedge $-1 $286 $199 $202 $294 forward $192 $-1 #
coedge $-1 $199 $286 $194 $285 reversed $192 $-1 #
edge $-1 $291 -16.626602622260027 $298 16.626602622260027 $284 $341 forward 7 unknown #
coedge $-1 $284 $283 $195 $287 reversed $192 $-1 #
edge $-1 $298 -53.871272927030248 $288 53.871272927030248 $286 $342 forward 7 unknown #
vertex $-1 $197 $343 #
straight-curve $-1 53.871272927030248 0 -16.626602622260027 0 -1 0 I I #
edge $-1 $291 -34.710612408802106 $210 34.710612408802106 $208 $344 forward 7 unknown #
vertex $-1 $200 $345 #
straight-curve $-1 0 34.710612408802106 16.626602622260027 -1 0 0 I I #
straight-curve $-1 0 -34.710612408802106 16.626602622260027 1 0 0 I I #
edge $-1 $205 -16.626602622260027 $288 16.626602622260027 $202 $346 forward 7 unknown #
point $-1 53.871272927030248 -34.710612408802106 16.626602622260027 #
point $-1 53.871272927030248 34.710612408802106 16.626602622260027 #
point $-1 -53.871272927030248 -34.710612408802106 16.626602622260027 #
vertex $-1 $287 $347 #
straight-curve $-1 -53.871272927030248 0 -16.626602622260027 0 1 0 I I #
plane-surface $-1 0 0 16.626602622260027 0 0 1 1 0 0 forward_v I I I I #
coedge $-1 $223 $313 $302 $348 forward $216 $-1 #
coedge $-1 $219 $218 $301 $348 reversed $83 $-1 #
edge $-1 $309 -1.6938157967884209 $307 1.6938157967884209 $218 $349 forward 7 unknown #
coedge $-1 $231 $230 $219 $305 forward $232 $-1 #
edge $-1 $306 -1.6938157967884209 $350 1.6938157967884209 $219 $351 forward 7 unknown #
vertex $-1 $235 $352 #
vertex $-1 $225 $353 #
straight-curve $-1 -39.519537256759797 -50.044524204669202 0 0 0 -1 I I #
vertex $-1 $348 $354 #
straight-curve $-1 -36.131905663182955 -42.377568306735654 -16.626602622260027 0 -1 0 I I #
straight-curve $-1 -39.519537256759797 -42.377568306735654 -16.626602622260027 0 1 0 I I #
point $-1 -36.131905663182955 -34.710612408802106 -16.626602622260027 #
coedge $-1 $301 $228 $231 $315 reversed $216 $-1 #
straight-curve $-1 -36.131905663182955 -34.710612408802106 0 0 0 -1 I I #
edge $-1 $350 -7.6669558979335477 $233 7.6669558979335477 $313 $355 forward 7 unknown #
point $-1 -36.131905663182955 -34.710612408802106 16.626602622260027 #
straight-curve $-1 -39.519537256759797 -42.377568306735654 16.626602622260027 0 -1 0 I I #
edge $-1 $319 22.144844784871939 $322 33.322386639912729 $239 $356 forward 7 unknown #
vertex $-1 $253 $357 #
straight-curve $-1 -66.969794627236723 -8.2572058516638336 16.626602622260027 -1 0 0 I I #
edge $-1 $322 1.3487292355141225 $250 12.4682239967853 $249 $358 forward 7 unknown #
vertex $-1 $321 $359 #
straight-curve $-1 -53.871272927030248 -8.2572058516638336 5.4490607672192368 0.66913059716165679 0 0.74314483375859142 I I #
point $-1 -43.806969285928076 -8.2572058516638336 16.626602622260027 #
point $-1 -53.871272927030248 -19.376700612935011 5.4490607672192368 #
straight-curve $-1 -53.871272927030248 0 16.626602622260027 0 -1 0 I I #
vertex $-1 $256 $360 #
point $-1 -41.99459215976308 -13.816953232299422 8.2390720897148864 #
coedge $-1 $271 $270 $263 $330 forward $260 $-1 #
edge $-1 $331 62.179002948593535 $334 73.35654480363435 $329 $361 forward 7 unknown #
vertex $-1 $275 $362 #
straight-curve $-1 30.922877603714376 -19.376700612935011 16.626602622260023 1 0 0 I I #
edge $-1 $334 -12.4682239967853 $272 -1.3487292355141225 $271 $363 forward 7 unknown #
vertex $-1 $333 $364 #
straight-curve $-1 -18.222561120014447 -19.376700612935011 85.517377094662422 -0.66913059716165679 0 0.74314483375859142 I I #
point $-1 43.806969285928069 -19.376700612935011 16.626602622260023 #
point $-1 53.871272927030248 -8.2572058516638336 5.4490607672192084 #
straight-curve $-1 53.871272927030248 0 16.626602622260027 0 1 0 I I #
vertex $-1 $278 $365 #
point $-1 45.340245145571359 -13.816953232299422 4.523347920921915 #
straight-curve $-1 -53.871272927030248 34.710612408802106 0 0 0 -1 I I #
straight-curve $-1 0 34.710612408802106 -16.626602622260027 1 0 0 I I #
point $-1 53.871272927030248 34.710612408802106 -16.626602622260027 #
straight-curve $-1 -53.871272927030248 0 16.626602622260027 0 -1 0 I I #
point $-1 -53.871272927030248 34.710612408802106 16.626602622260027 #
straight-curve $-1 53.871272927030248 34.710612408802106 0 0 0 -1 I I #
point $-1 -53.871272927030248 34.710612408802106 -16.626602622260027 #
edge $-1 $350 -16.626602622260027 $309 16.626602622260027 $301 $366 forward 7 unknown #
straight-curve $-1 -37.825721459971376 -50.044524204669202 -16.626602622260027 -1 0 0 I I #
vertex $-1 $315 $367 #
straight-curve $-1 -37.825721459971376 -50.044524204669202 16.626602622260027 1 0 0 I I #
point $-1 -39.519537256759797 -50.044524204669202 16.626602622260027 #
point $-1 -39.519537256759797 -50.044524204669202 -16.626602622260027 #
point $-1 -36.131905663182955 -50.044524204669202 -16.626602622260027 #
straight-curve $-1 -36.131905663182955 -42.377568306735654 16.626602622260027 0 1 0 I I #
straight-curve $-1 -53.871272927030248 -8.2572058516638336 38.771447407131966 0 0 -1 I I #
point $-1 -53.871272927030248 -8.2572058516638336 16.626602622260027 #
straight-curve $-1 -53.871272927030248 -6.9084766161497111 5.4490607672192377 0 -1 0 I I #
point $-1 -53.871272927030248 -8.2572058516638336 5.4490607672192368 #
point $-1 -41.809556568270743 -13.816953232299422 4.7083835124142652 #
straight-curve $-1 53.871272927030248 -19.376700612935011 78.805605570853558 0 0 -1 I I #
point $-1 53.871272927030248 -19.376700612935011 16.626602622260027 #
straight-curve $-1 53.871272927030248 -6.9084766161497111 5.4490607672192155 0 1 0 I I #
point $-1 53.871272927030248 -19.376700612935011 5.4490607672192084 #
point $-1 41.809556568270743 -13.816953232299422 4.708383512414251 #
straight-curve $-1 -36.131905663182955 -50.044524204669202 0 0 0 -1 I I #
point $-1 -36.131905663182955 -50.044524204669202 16.626602622260027 #
End-of-ACIS-data 