500 0 10 0           
7 Unknown 11 ACIS 5.0 NT 24 Fri Mar 26 18:03:39 1999 
-1 9.9999999999999995e-007 1e-010 
body $-1 $10 $-1 $11 #
body $-1 $12 $-1 $13 #
body $-1 $14 $-1 $15 #
body $-1 $16 $-1 $17 #
body $-1 $18 $-1 $19 #
body $-1 $20 $-1 $21 #
body $-1 $22 $-1 $23 #
body $-1 $24 $-1 $25 #
body $-1 $26 $-1 $27 #
body $-1 $28 $-1 $29 #
lump $-1 $-1 $30 $0 #
transform $-1 1 0 0 0 1 0 0 0 1 60.383922849208041 24.889962937423125 8.5046846839801251 1 rotate no_reflect no_shear #
lump $-1 $-1 $31 $1 #
transform $-1 1 0 0 0 1 0 0 0 1 60.383922849208041 24.889962937423125 8.5046846839801251 1 rotate no_reflect no_shear #
lump $-1 $-1 $32 $2 #
transform $-1 1 0 0 0 1 0 0 0 1 60.383922849208041 24.889962937423125 8.5046846839801251 1 rotate no_reflect no_shear #
lump $-1 $-1 $33 $3 #
transform $-1 1 0 0 0 1 0 0 0 1 60.383922849208041 24.889962937423125 8.5046846839801251 1 rotate no_reflect no_shear #
lump $-1 $-1 $34 $4 #
transform $-1 1 0 0 0 1 0 0 0 1 60.383922849208041 24.889962937423125 8.5046846839801251 1 rotate no_reflect no_shear #
lump $-1 $-1 $35 $5 #
transform $-1 1 0 0 0 1 0 0 0 1 60.383922849208041 24.889962937423125 8.5046846839801251 1 rotate no_reflect no_shear #
lump $-1 $-1 $36 $6 #
transform $-1 1 0 0 0 1 0 0 0 1 60.383922849208041 24.889962937423125 8.5046846839801251 1 rotate no_reflect no_shear #
lump $-1 $-1 $37 $7 #
transform $-1 1 0 0 0 1 0 0 0 1 60.383922849208041 24.889962937423125 8.5046846839801251 1 rotate no_reflect no_shear #
lump $-1 $-1 $38 $8 #
transform $-1 1 0 0 0 1 0 0 0 1 60.383922849208041 24.889962937423125 8.5046846839801251 1 rotate no_reflect no_shear #
lump $-1 $-1 $39 $9 #
transform $-1 1 0 0 0 1 0 0 0 1 60.383922849208041 24.889962937423125 8.5046846839801251 1 rotate no_reflect no_shear #
shell $-1 $-1 $-1 $40 $-1 $10 #
shell $-1 $-1 $-1 $41 $-1 $12 #
shell $-1 $-1 $-1 $42 $-1 $14 #
shell $-1 $-1 $-1 $43 $-1 $16 #
shell $-1 $-1 $-1 $44 $-1 $18 #
shell $-1 $-1 $-1 $45 $-1 $20 #
shell $-1 $-1 $-1 $46 $-1 $22 #
shell $-1 $-1 $-1 $47 $-1 $24 #
shell $-1 $-1 $-1 $48 $-1 $26 #
shell $-1 $-1 $-1 $49 $-1 $28 #
face $-1 $50 $51 $30 $-1 $52 forward single #
face $-1 $53 $54 $31 $-1 $55 forward single #
face $-1 $56 $57 $32 $-1 $58 reversed single #
face $-1 $59 $60 $33 $-1 $61 forward single #
face $-1 $62 $63 $34 $-1 $64 reversed single #
face $-1 $65 $66 $35 $-1 $67 forward single #
face $-1 $68 $69 $36 $-1 $70 forward single #
face $-1 $71 $72 $37 $-1 $73 reversed single #
face $-1 $74 $75 $38 $-1 $76 forward single #
face $-1 $77 $78 $39 $-1 $79 forward single #
face $-1 $80 $81 $30 $-1 $82 reversed single #
loop $-1 $-1 $83 $40 #
plane-surface $-1 0 0 8.5046846839801251 0 0 1 1 0 0 forward_v I I I I #
face $-1 $84 $85 $31 $-1 $86 reversed single #
loop $-1 $-1 $87 $41 #
plane-surface $-1 0 -19.79968840653077 3.8476902315328987 0 0 1 1 0 0 forward_v I I I I #
face $-1 $88 $89 $32 $-1 $90 reversed single #
loop $-1 $-1 $91 $42 #
plane-surface $-1 95.893480103813204 17.067717951278777 168.34128826436611 0 1 0 0.83867057594974714 0 0.54463902268945019 forward_v I I I I #
face $-1 $92 $93 $33 $-1 $94 forward single #
loop $-1 $95 $96 $43 #
cone-surface $-1 57.619344141015063 20.978840444350954 4.6210068820301515 -0.83867057594974714 0 -0.54463902268945019 0.2723195113447251 0 -0.41933528797487357 1 I I 0 1 0.5 forward I I I I #
face $-1 $97 $98 $34 $-1 $99 reversed single #
loop $-1 $-1 $100 $44 #
plane-surface $-1 -147.25704185623189 -12.230095234716849 85.509679533420311 0 1 0 -0.71933980857756763 0 0.69465836192734942 forward_v I I I I #
face $-1 $101 $102 $35 $-1 $103 forward single #
loop $-1 $104 $105 $45 #
cone-surface $-1 -56.698711064725039 -10.144135081935168 4.7136559945582439 0.71933980857756763 0 -0.69465836192734942 0.34732918096367471 0 0.35966990428878381 1 I I 0 1 0.5 forward I I I I #
face $-1 $106 $107 $36 $-1 $108 forward single #
loop $-1 $109 $110 $46 #
cone-surface $-1 -56.698711064725039 -7.0151948527626473 4.7136559945582439 0.71933980857756763 0 -0.69465836192734942 0.34732918096367471 0 0.35966990428878381 1 I I 0 1 0.5 forward I I I I #
face $-1 $111 $112 $37 $-1 $113 reversed single #
loop $-1 $-1 $114 $47 #
plane-surface $-1 -147.25704185623189 15.109783761765677 85.509679533420311 0 1 0 -0.71933980857756763 0 0.69465836192734942 forward_v I I I I #
face $-1 $115 $116 $38 $-1 $117 forward single #
loop $-1 $118 $119 $48 #
cone-surface $-1 -56.698711064725039 17.195743914547361 4.7136559945582439 0.71933980857756763 0 -0.69465836192734942 0.34732918096367471 0 0.35966990428878381 1 I I 0 1 0.5 forward I I I I #
face $-1 $120 $121 $39 $-1 $122 forward single #
loop $-1 $123 $124 $49 #
cone-surface $-1 -56.698711064725039 20.324684143719875 4.7136559945582439 0.71933980857756763 0 -0.69465836192734942 0.34732918096367471 0 0.35966990428878381 1 I I 0 1 0.5 forward I I I I #
face $-1 $125 $126 $30 $-1 $127 reversed single #
loop $-1 $-1 $128 $50 #
plane-surface $-1 0 0 -8.5046846839801251 0 0 1 1 0 0 forward_v I I I I #
coedge $-1 $129 $130 $131 $132 forward $51 $-1 #
face $-1 $133 $134 $31 $-1 $135 reversed single #
loop $-1 $-1 $136 $53 #
plane-surface $-1 0 -19.79968840653077 0.75494076538188093 0 0 1 1 0 0 forward_v I I I I #
coedge $-1 $137 $138 $139 $140 reversed $54 $-1 #
face $-1 $141 $142 $32 $-1 $143 forward single #
loop $-1 $-1 $144 $56 #
plane-surface $-1 -5.3909586042876043 20.978840444350954 102.56640681087046 0.83867057594974714 0 0.54463902268945019 0.54463902268945019 0 -0.83867057594974714 forward_v I I I I #
coedge $-1 $145 $146 $147 $148 reversed $57 $-1 #
face $-1 $-1 $149 $33 $-1 $150 forward single #
loop $-1 $151 $152 $59 #
cone-surface $-1 56.990341209052751 20.978840444350954 4.2125276150130642 -0.83867057594974714 0 -0.54463902268945019 0.13615975567236255 0 -0.20966764398743679 1 I I -0.70710678118654746 0.70710678118654746 0.25 forward I I I I #
loop $-1 $-1 $153 $43 #
coedge $-1 $96 $96 $154 $155 reversed $60 $-1 #
face $-1 $156 $157 $34 $-1 $158 reversed single #
loop $-1 $-1 $159 $62 #
plane-surface $-1 -60.383922849208048 -8.5796649673489078 1.6172856670636975 -0.71933980857756763 0 0.69465836192734942 0.69465836192734942 0 0.71933980857756763 forward_v I I I I #
coedge $-1 $160 $161 $162 $163 reversed $63 $-1 #
face $-1 $-1 $164 $35 $-1 $165 forward single #
loop $-1 $166 $167 $65 #
cone-surface $-1 -56.159206208291863 -10.144135081935168 4.1926622231127322 0.71933980857756763 0 -0.69465836192734942 0.17366459048183736 0 0.17983495214439191 1 I I -0.70710678118654746 0.70710678118654746 0.25 forward I I I I #
loop $-1 $-1 $168 $45 #
coedge $-1 $105 $105 $169 $170 reversed $66 $-1 #
face $-1 $-1 $171 $36 $-1 $172 forward single #
loop $-1 $173 $174 $68 #
cone-surface $-1 -56.159206208291863 -7.0151948527626473 4.1926622231127322 0.71933980857756763 0 -0.69465836192734942 0.17366459048183736 0 0.17983495214439191 1 I I -0.70710678118654746 0.70710678118654746 0.25 forward I I I I #
loop $-1 $-1 $175 $46 #
coedge $-1 $110 $110 $176 $177 reversed $69 $-1 #
face $-1 $178 $179 $37 $-1 $180 reversed single #
loop $-1 $-1 $181 $71 #
plane-surface $-1 -60.383922849208048 18.760214029133618 1.6172856670636975 -0.71933980857756763 0 0.69465836192734942 0.69465836192734942 0 0.71933980857756763 forward_v I I I I #
coedge $-1 $182 $183 $184 $185 reversed $72 $-1 #
face $-1 $-1 $186 $38 $-1 $187 forward single #
loop $-1 $188 $189 $74 #
cone-surface $-1 -56.159206208291863 17.195743914547361 4.1926622231127322 0.71933980857756763 0 -0.69465836192734942 0.17366459048183736 0 0.17983495214439191 1 I I -0.70710678118654746 0.70710678118654746 0.25 forward I I I I #
loop $-1 $-1 $190 $48 #
coedge $-1 $119 $119 $191 $192 reversed $75 $-1 #
face $-1 $-1 $193 $39 $-1 $194 forward single #
loop $-1 $195 $196 $77 #
cone-surface $-1 -56.159206208291863 20.324684143719875 4.1926622231127322 0.71933980857756763 0 -0.69465836192734942 0.17366459048183736 0 0.17983495214439191 1 I I -0.70710678118654746 0.70710678118654746 0.25 forward I I I I #
loop $-1 $-1 $197 $49 #
coedge $-1 $124 $124 $198 $199 reversed $78 $-1 #
face $-1 $200 $201 $30 $-1 $202 reversed single #
loop $-1 $-1 $203 $80 #
plane-surface $-1 0 -24.889962937423125 0 0 1 0 0 0 1 forward_v I I I I #
coedge $-1 $204 $205 $206 $207 forward $81 $-1 #
coedge $-1 $208 $83 $209 $210 forward $51 $-1 #
coedge $-1 $83 $208 $211 $212 forward $51 $-1 #
coedge $-1 $213 $214 $83 $132 reversed $215 $-1 #
edge $-1 $216 -24.889962937423125 $217 24.889962937423125 $131 $218 forward 7 unknown #
face $-1 $219 $220 $31 $-1 $221 reversed single #
loop $-1 $-1 $222 $84 #
plane-surface $-1 0 -14.709413875638415 2.3013154984573898 0 -1 0 0 0 -1 forward_v I I I I #
coedge $-1 $223 $224 $225 $226 reversed $85 $-1 #
coedge $-1 $227 $87 $228 $229 forward $54 $-1 #
coedge $-1 $87 $227 $230 $231 reversed $54 $-1 #
coedge $-1 $232 $233 $87 $140 forward $234 $-1 #
edge $-1 $235 4.8095696723730299 $236 14.99011873415774 $139 $237 forward 7 unknown #
face $-1 $238 $239 $32 $-1 $240 reversed single #
loop $-1 $-1 $241 $88 #
plane-surface $-1 0 0 8.5046846839801251 0 0 1 1 0 0 forward_v I I I I #
coedge $-1 $242 $243 $244 $245 reversed $89 $-1 #
coedge $-1 $146 $91 $246 $247 reversed $57 $-1 #
coedge $-1 $91 $145 $242 $248 reversed $57 $-1 #
coedge $-1 $244 $249 $91 $148 forward $239 $-1 #
edge $-1 $250 75.665959448202926 $251 82.888676029413404 $147 $252 forward 7 unknown #
loop $-1 $-1 $154 $92 #
plane-surface $-1 -5.3909586042876043 20.978840444350954 102.56640681087046 0.83867057594974714 0 0.54463902268945019 0.54463902268945019 0 -0.83867057594974714 forward_v I I I I #
loop $-1 $-1 $253 $59 #
coedge $-1 $152 $152 $153 $254 reversed $93 $-1 #
coedge $-1 $153 $153 $152 $254 forward $95 $-1 #
coedge $-1 $154 $154 $96 $155 forward $149 $-1 #
edge $-1 $255 0 $255 6.2831853071796004 $154 $256 forward 7 unknown #
face $-1 $257 $258 $34 $-1 $259 reversed single #
loop $-1 $-1 $260 $97 #
plane-surface $-1 -147.25704185623189 -4.9292346999809666 85.509679533420311 0 -1 0 0.71933980857756763 0 -0.69465836192734942 forward_v I I I I #
coedge $-1 $261 $262 $263 $264 reversed $98 $-1 #
coedge $-1 $161 $100 $265 $266 reversed $63 $-1 #
coedge $-1 $100 $160 $261 $267 reversed $63 $-1 #
coedge $-1 $263 $268 $100 $163 forward $269 $-1 #
edge $-1 $270 13.244598078907906 $271 19.895681839296358 $162 $272 forward 7 unknown #
loop $-1 $-1 $169 $101 #
plane-surface $-1 -60.383922849208048 -8.5796649673489078 1.6172856670636975 -0.71933980857756763 0 0.69465836192734942 0.69465836192734942 0 0.71933980857756763 forward_v I I I I #
loop $-1 $-1 $273 $65 #
coedge $-1 $167 $167 $168 $274 reversed $102 $-1 #
coedge $-1 $168 $168 $167 $274 forward $104 $-1 #
coedge $-1 $169 $169 $105 $170 forward $164 $-1 #
edge $-1 $275 0 $275 6.2831853071796004 $169 $276 forward 7 unknown #
loop $-1 $-1 $176 $106 #
plane-surface $-1 -60.383922849208048 -8.5796649673489078 1.6172856670636975 -0.71933980857756763 0 0.69465836192734942 0.69465836192734942 0 0.71933980857756763 forward_v I I I I #
loop $-1 $-1 $277 $68 #
coedge $-1 $174 $174 $175 $278 reversed $107 $-1 #
coedge $-1 $175 $175 $174 $278 forward $109 $-1 #
coedge $-1 $176 $176 $110 $177 forward $171 $-1 #
edge $-1 $279 0 $279 6.2831853071796004 $176 $280 forward 7 unknown #
face $-1 $281 $282 $37 $-1 $283 forward single #
loop $-1 $-1 $284 $111 #
plane-surface $-1 -147.25704185623189 22.410644296501559 85.509679533420311 0 -1 0 0.71933980857756763 0 -0.69465836192734942 forward_v I I I I #
coedge $-1 $285 $286 $287 $288 reversed $112 $-1 #
coedge $-1 $183 $114 $289 $290 reversed $72 $-1 #
coedge $-1 $114 $182 $285 $291 reversed $72 $-1 #
coedge $-1 $287 $292 $114 $185 forward $282 $-1 #
edge $-1 $293 13.244598078907906 $294 19.895681839296358 $184 $295 forward 7 unknown #
loop $-1 $-1 $191 $115 #
plane-surface $-1 -60.383922849208048 18.760214029133618 1.6172856670636975 -0.71933980857756763 0 0.69465836192734942 0.69465836192734942 0 0.71933980857756763 forward_v I I I I #
loop $-1 $-1 $296 $74 #
coedge $-1 $189 $189 $190 $297 reversed $116 $-1 #
coedge $-1 $190 $190 $189 $297 forward $118 $-1 #
coedge $-1 $191 $191 $119 $192 forward $186 $-1 #
edge $-1 $298 0 $298 6.2831853071796004 $191 $299 forward 7 unknown #
loop $-1 $-1 $198 $120 #
plane-surface $-1 -60.383922849208048 18.760214029133618 1.6172856670636975 -0.71933980857756763 0 0.69465836192734942 0.69465836192734942 0 0.71933980857756763 forward_v I I I I #
loop $-1 $-1 $300 $77 #
coedge $-1 $196 $196 $197 $301 reversed $121 $-1 #
coedge $-1 $197 $197 $196 $301 forward $123 $-1 #
coedge $-1 $198 $198 $124 $199 forward $193 $-1 #
edge $-1 $302 0 $302 6.2831853071796004 $198 $303 forward 7 unknown #
face $-1 $304 $305 $30 $-1 $306 reversed single #
loop $-1 $-1 $307 $125 #
plane-surface $-1 -60.383922849208041 0 0 1 0 0 0 0 -1 forward_v I I I I #
coedge $-1 $308 $211 $309 $310 forward $126 $-1 #
coedge $-1 $311 $128 $308 $312 forward $81 $-1 #
coedge $-1 $128 $311 $313 $314 forward $81 $-1 #
coedge $-1 $214 $213 $128 $207 reversed $215 $-1 #
edge $-1 $315 -24.889962937423125 $316 24.889962937423125 $206 $317 forward 7 unknown #
coedge $-1 $130 $129 $318 $319 forward $51 $-1 #
coedge $-1 $320 $321 $129 $210 reversed $305 $-1 #
edge $-1 $217 -60.383922849208041 $322 60.383922849208041 $209 $323 forward 7 unknown #
coedge $-1 $203 $324 $130 $212 reversed $126 $-1 #
edge $-1 $325 -60.383922849208041 $216 60.383922849208041 $211 $326 forward 7 unknown #
coedge $-1 $206 $131 $324 $327 forward $215 $-1 #
coedge $-1 $131 $206 $320 $328 reversed $215 $-1 #
loop $-1 $-1 $213 $304 #
vertex $-1 $132 $329 #
vertex $-1 $132 $330 #
straight-curve $-1 60.383922849208041 0 8.5046846839801251 0 1 0 I I #
face $-1 $331 $332 $31 $-1 $333 reversed single #
loop $-1 $-1 $334 $133 #
plane-surface $-1 -60.383922849208041 0 0 1 0 0 0 0 -1 forward_v I I I I #
coedge $-1 $335 $228 $233 $336 reversed $134 $-1 #
coedge $-1 $337 $136 $338 $339 reversed $85 $-1 #
coedge $-1 $136 $337 $335 $340 forward $85 $-1 #
coedge $-1 $233 $232 $136 $226 forward $234 $-1 #
edge $-1 $341 -14.99011873415774 $342 -4.8095696723730299 $225 $343 forward 7 unknown #
coedge $-1 $138 $137 $334 $344 reversed $54 $-1 #
coedge $-1 $222 $345 $137 $229 reversed $134 $-1 #
edge $-1 $235 -60.383922849208041 $346 60.383922849208041 $228 $347 forward 7 unknown #
coedge $-1 $348 $349 $138 $231 forward $332 $-1 #
edge $-1 $236 -60.383922849208041 $350 60.383922849208041 $230 $351 forward 7 unknown #
coedge $-1 $225 $139 $349 $352 forward $234 $-1 #
coedge $-1 $139 $225 $222 $336 forward $234 $-1 #
loop $-1 $-1 $139 $331 #
vertex $-1 $140 $353 #
vertex $-1 $352 $354 #
straight-curve $-1 60.383922849208041 -9.8998442032653848 3.8476902315328987 0 -1 0 I I #
face $-1 $-1 $355 $32 $-1 $356 reversed single #
loop $-1 $-1 $147 $141 #
plane-surface $-1 60.383922849208041 0 0 -1 0 0 0 0 1 forward_v I I I I #
coedge $-1 $246 $357 $358 $359 forward $142 $-1 #
coedge $-1 $358 $144 $146 $248 forward $89 $-1 #
coedge $-1 $144 $358 $360 $361 reversed $89 $-1 #
coedge $-1 $362 $147 $144 $245 forward $239 $-1 #
edge $-1 $251 6.5782977291032996 $363 14.400542715247655 $244 $364 forward 7 unknown #
coedge $-1 $365 $241 $145 $247 forward $142 $-1 #
edge $-1 $366 7.7466959568652172 $250 12.437182797301439 $246 $367 forward 7 unknown #
edge $-1 $251 -120.76784569841608 $366 -112.15574365461759 $146 $368 forward 7 unknown #
coedge $-1 $147 $362 $365 $369 reversed $239 $-1 #
vertex $-1 $369 $370 #
vertex $-1 $148 $371 #
straight-curve $-1 60.383922849208041 17.067717951278777 84.170644132183057 0 0 -1 I I #
coedge $-1 $253 $253 $-1 $372 reversed $151 $-1 #
edge $-1 $373 0 $373 6.2831853071796004 $152 $374 forward 7 unknown #
vertex $-1 $155 $375 #
ellipse-curve $-1 58.038679428989951 20.978840444350954 4.8933263933748847 0.83867057594974714 0 0.54463902268945019 0.2723195113447251 0 -0.41933528797487357 1 I I #
face $-1 $-1 $269 $34 $-1 $376 forward single #
loop $-1 $-1 $377 $156 #
plane-surface $-1 -60.383922849208041 0 0 1 0 0 0 0 -1 forward_v I I I I #
coedge $-1 $378 $379 $380 $381 reversed $157 $-1 #
coedge $-1 $382 $159 $161 $267 forward $98 $-1 #
coedge $-1 $159 $382 $378 $383 forward $98 $-1 #
coedge $-1 $380 $162 $159 $264 forward $269 $-1 #
edge $-1 $271 -7.9402627510423951 $384 -0.63940221630651273 $263 $385 forward 7 unknown #
coedge $-1 $386 $387 $160 $266 forward $258 $-1 #
edge $-1 $388 -41.137554099646451 $270 -34.250155082730032 $265 $389 forward 7 unknown #
edge $-1 $271 -9.5746112404590349 $388 -1.0206786807905858e-014 $161 $390 forward 7 unknown #
coedge $-1 $162 $380 $386 $391 forward $269 $-1 #
loop $-1 $-1 $380 $257 #
vertex $-1 $266 $392 #
vertex $-1 $163 $393 #
straight-curve $-1 -73.628520928115947 -12.230095234716849 8.5046846839801233 1 0 0 I I #
coedge $-1 $273 $273 $-1 $394 reversed $166 $-1 #
edge $-1 $395 0 $395 6.2831853071796004 $167 $396 forward 7 unknown #
vertex $-1 $170 $397 #
ellipse-curve $-1 -57.058380969013818 -10.144135081935168 5.0609851755219131 -0.71933980857756763 0 0.69465836192734942 0.34732918096367471 0 0.35966990428878381 1 I I #
coedge $-1 $277 $277 $-1 $398 reversed $173 $-1 #
edge $-1 $399 0 $399 6.2831853071796004 $174 $400 forward 7 unknown #
vertex $-1 $177 $401 #
ellipse-curve $-1 -57.058380969013818 -7.0151948527626473 5.0609851755219131 -0.71933980857756763 0 0.69465836192734942 0.34732918096367471 0 0.35966990428878381 1 I I #
face $-1 $-1 $402 $37 $-1 $403 reversed single #
loop $-1 $-1 $184 $178 #
plane-surface $-1 0 0 8.5046846839801251 0 0 1 1 0 0 forward_v I I I I #
coedge $-1 $404 $405 $406 $407 reversed $179 $-1 #
coedge $-1 $408 $181 $183 $291 forward $112 $-1 #
coedge $-1 $181 $408 $404 $409 forward $112 $-1 #
coedge $-1 $406 $184 $181 $288 forward $282 $-1 #
edge $-1 $294 5.7296767471988677 $410 13.03053728193475 $287 $411 forward 7 unknown #
coedge $-1 $412 $413 $182 $290 forward $402 $-1 #
edge $-1 $414 -41.137554099646451 $293 -34.250155082730032 $289 $415 forward 7 unknown #
edge $-1 $294 -9.5746112404590349 $414 -1.0206786807905858e-014 $183 $416 forward 7 unknown #
coedge $-1 $184 $406 $412 $417 forward $282 $-1 #
vertex $-1 $185 $418 #
vertex $-1 $185 $419 #
straight-curve $-1 -73.628520928115947 15.109783761765677 8.5046846839801233 1 0 0 I I #
coedge $-1 $296 $296 $-1 $420 reversed $188 $-1 #
edge $-1 $421 0 $421 6.2831853071796004 $189 $422 forward 7 unknown #
vertex $-1 $192 $423 #
ellipse-curve $-1 -57.058380969013818 17.195743914547361 5.0609851755219131 -0.71933980857756763 0 0.69465836192734942 0.34732918096367471 0 0.35966990428878381 1 I I #
coedge $-1 $300 $300 $-1 $424 reversed $195 $-1 #
edge $-1 $425 0 $425 6.2831853071796004 $196 $426 forward 7 unknown #
vertex $-1 $199 $427 #
ellipse-curve $-1 -57.058380969013818 20.324684143719875 5.0609851755219131 -0.71933980857756763 0 0.69465836192734942 0.34732918096367471 0 0.35966990428878381 1 I I #
face $-1 $-1 $215 $30 $-1 $428 reversed single #
loop $-1 $-1 $320 $200 #
plane-surface $-1 0 24.889962937423125 0 0 -1 0 0 0 -1 forward_v I I I I #
coedge $-1 $429 $318 $321 $430 forward $201 $-1 #
coedge $-1 $324 $203 $204 $312 reversed $126 $-1 #
coedge $-1 $318 $429 $203 $310 reversed $201 $-1 #
edge $-1 $325 -8.5046846839801251 $431 8.5046846839801251 $309 $432 forward 7 unknown #
coedge $-1 $205 $204 $429 $433 forward $81 $-1 #
edge $-1 $316 -60.383922849208041 $431 60.383922849208041 $308 $434 forward 7 unknown #
coedge $-1 $321 $320 $205 $314 reversed $305 $-1 #
edge $-1 $435 -60.383922849208041 $315 60.383922849208041 $313 $436 forward 7 unknown #
vertex $-1 $207 $437 #
vertex $-1 $327 $438 #
straight-curve $-1 60.383922849208041 0 -8.5046846839801251 0 -1 0 I I #
coedge $-1 $307 $309 $208 $319 reversed $201 $-1 #
edge $-1 $322 -24.889962937423125 $325 24.889962937423125 $318 $439 forward 7 unknown #
coedge $-1 $313 $209 $214 $328 forward $305 $-1 #
coedge $-1 $209 $313 $307 $430 reversed $305 $-1 #
vertex $-1 $210 $440 #
straight-curve $-1 0 24.889962937423125 8.5046846839801251 -1 0 0 I I #
coedge $-1 $211 $308 $213 $327 reversed $126 $-1 #
vertex $-1 $319 $441 #
straight-curve $-1 0 -24.889962937423125 8.5046846839801251 1 0 0 I I #
edge $-1 $216 -8.5046846839801251 $316 8.5046846839801251 $213 $442 forward 7 unknown #
edge $-1 $217 -8.5046846839801251 $315 8.5046846839801251 $214 $443 forward 7 unknown #
point $-1 60.383922849208041 -24.889962937423125 8.5046846839801251 #
point $-1 60.383922849208041 24.889962937423125 8.5046846839801251 #
face $-1 $-1 $234 $31 $-1 $444 reversed single #
loop $-1 $-1 $230 $219 #
plane-surface $-1 0 -24.889962937423125 0 0 1 0 0 0 1 forward_v I I I I #
coedge $-1 $445 $446 $227 $344 forward $220 $-1 #
coedge $-1 $345 $222 $224 $340 reversed $134 $-1 #
edge $-1 $342 -0.39571698384681397 $235 2.6970324823042038 $233 $447 forward 7 unknown #
coedge $-1 $224 $223 $448 $449 reversed $85 $-1 #
coedge $-1 $349 $348 $223 $339 forward $332 $-1 #
edge $-1 $450 -60.383922849208041 $341 60.383922849208041 $338 $451 forward 7 unknown #
edge $-1 $452 -60.383922849208041 $342 60.383922849208041 $335 $453 forward 7 unknown #
vertex $-1 $339 $454 #
vertex $-1 $226 $455 #
straight-curve $-1 60.383922849208041 -9.8998442032653848 0.75494076538188093 0 1 0 I I #
edge $-1 $350 -14.99011873415774 $346 -4.8095696723730299 $334 $456 forward 7 unknown #
coedge $-1 $228 $335 $445 $457 reversed $134 $-1 #
vertex $-1 $344 $458 #
straight-curve $-1 0 -14.709413875638415 3.8476902315328987 -1 0 0 I I #
coedge $-1 $338 $230 $446 $459 forward $332 $-1 #
coedge $-1 $230 $338 $232 $352 reversed $332 $-1 #
vertex $-1 $459 $460 #
straight-curve $-1 0 -24.889962937423125 3.8476902315328987 -1 0 0 I I #
edge $-1 $236 -3.8476902315328987 $341 -0.75494076538188093 $232 $461 forward 7 unknown #
point $-1 60.383922849208041 -14.709413875638415 3.8476902315328987 #
point $-1 60.383922849208041 -24.889962937423125 3.8476902315328987 #
loop $-1 $-1 $360 $238 #
plane-surface $-1 0 24.889962937423125 0 0 -1 0 0 0 -1 forward_v I I I I #
coedge $-1 $241 $365 $462 $463 forward $142 $-1 #
coedge $-1 $243 $242 $241 $359 reversed $89 $-1 #
edge $-1 $464 -14.400542715247655 $366 -6.5782977291032996 $241 $465 forward 7 unknown #
coedge $-1 $462 $466 $243 $361 forward $355 $-1 #
edge $-1 $363 -76.290068749032443 $464 -67.677966705233942 $360 $467 forward 7 unknown #
coedge $-1 $249 $244 $466 $468 reversed $239 $-1 #
vertex $-1 $361 $469 #
straight-curve $-1 60.383922849208034 10.489420222175477 1.2819681027696603 0 1 0 I I #
coedge $-1 $357 $246 $249 $369 forward $142 $-1 #
vertex $-1 $247 $470 #
straight-curve $-1 47.946740051906602 17.067717951278777 8.5046846839801304 1 0 0 I I #
straight-curve $-1 -5.3909586042876043 17.067717951278777 102.56640681087046 -0.54463902268945019 0 0.83867057594974714 I I #
edge $-1 $250 17.067717951278777 $471 24.889962937423125 $249 $472 forward 7 unknown #
point $-1 60.383922849208041 17.067717951278777 8.5046846839801251 #
point $-1 60.383922849208048 17.067717951278777 1.2819681027696532 #
edge $-1 $473 1 $473 0 $253 $-1 forward 7 unknown #
vertex $-1 $254 $474 #
ellipse-curve $-1 57.200008853040188 20.978840444350954 4.3486873706854263 0.83867057594974714 0 0.54463902268945019 0.2723195113447251 0 -0.41933528797487357 1 I I #
point $-1 58.310998940334663 20.978840444350954 4.4739911054000032 #
plane-surface $-1 0 0 8.5046846839801251 0 0 1 1 0 0 forward_v I I I I #
coedge $-1 $387 $386 $379 $475 forward $258 $-1 #
coedge $-1 $379 $260 $262 $383 reversed $157 $-1 #
coedge $-1 $260 $378 $377 $475 reversed $157 $-1 #
coedge $-1 $268 $263 $260 $381 forward $269 $-1 #
edge $-1 $384 -19.895681839296358 $476 -13.244598078907906 $380 $477 forward 7 unknown #
coedge $-1 $262 $261 $387 $478 reversed $98 $-1 #
edge $-1 $479 1.0206786807905858e-014 $384 9.5746112404590349 $378 $480 forward 7 unknown #
vertex $-1 $264 $481 #
straight-curve $-1 -53.732839088819588 -4.2898324836744539 8.5046846839801251 0 1 0 I I #
coedge $-1 $377 $265 $268 $391 reversed $258 $-1 #
coedge $-1 $265 $377 $382 $478 forward $258 $-1 #
vertex $-1 $266 $482 #
straight-curve $-1 -60.383922849208041 -12.230095234716849 42.754839766710155 0 0 1 I I #
straight-curve $-1 -60.383922849208048 -12.230095234716849 1.6172856670636975 -0.69465836192734942 0 -0.71933980857756763 I I #
edge $-1 $476 4.9292346999809666 $270 12.230095234716849 $386 $483 forward 7 unknown #
point $-1 -60.383922849208041 -12.230095234716849 8.5046846839801251 #
point $-1 -53.732839088819588 -12.230095234716849 8.5046846839801269 #
edge $-1 $484 1 $484 0 $273 $-1 forward 7 unknown #
vertex $-1 $274 $485 #
ellipse-curve $-1 -56.339041160436253 -10.144135081935168 4.3663268135945694 -0.71933980857756763 0 0.69465836192734942 0.34732918096367471 0 0.35966990428878381 1 I I #
point $-1 -56.711051788050149 -10.144135081935168 5.4206550798107029 #
edge $-1 $486 1 $486 0 $277 $-1 forward 7 unknown #
vertex $-1 $278 $487 #
ellipse-curve $-1 -56.339041160436253 -7.0151948527626473 4.3663268135945694 -0.71933980857756763 0 0.69465836192734942 0.34732918096367471 0 0.35966990428878381 1 I I #
point $-1 -56.711051788050149 -7.0151948527626473 5.4206550798107029 #
loop $-1 $-1 $289 $281 #
plane-surface $-1 -60.383922849208041 0 0 1 0 0 0 0 -1 forward_v I I I I #
coedge $-1 $405 $284 $286 $409 reversed $179 $-1 #
coedge $-1 $284 $404 $488 $489 reversed $179 $-1 #
coedge $-1 $292 $287 $284 $407 forward $282 $-1 #
edge $-1 $410 -19.895681839296358 $490 -13.244598078907906 $406 $491 forward 7 unknown #
coedge $-1 $286 $285 $413 $492 reversed $112 $-1 #
edge $-1 $493 1.0206786807905858e-014 $410 9.5746112404590349 $404 $494 forward 7 unknown #
vertex $-1 $288 $495 #
straight-curve $-1 -53.732839088819588 9.3801070145668088 8.5046846839801251 0 1 0 I I #
coedge $-1 $488 $289 $292 $417 reversed $402 $-1 #
coedge $-1 $289 $488 $408 $492 forward $402 $-1 #
vertex $-1 $290 $496 #
straight-curve $-1 -60.383922849208041 15.109783761765677 42.754839766710155 0 0 1 I I #
straight-curve $-1 -60.383922849208048 15.109783761765677 1.6172856670636975 -0.69465836192734942 0 -0.71933980857756763 I I #
edge $-1 $490 -22.410644296501559 $293 -15.109783761765677 $412 $497 forward 7 unknown #
point $-1 -60.383922849208041 15.109783761765677 8.5046846839801251 #
point $-1 -53.732839088819588 15.109783761765677 8.5046846839801269 #
edge $-1 $498 1 $498 0 $296 $-1 forward 7 unknown #
vertex $-1 $297 $499 #
ellipse-curve $-1 -56.339041160436253 17.195743914547361 4.3663268135945694 -0.71933980857756763 0 0.69465836192734942 0.34732918096367471 0 0.35966990428878381 1 I I #
point $-1 -56.711051788050149 17.195743914547361 5.4206550798107029 #
edge $-1 $500 1 $500 0 $300 $-1 forward 7 unknown #
vertex $-1 $301 $501 #
ellipse-curve $-1 -56.339041160436253 20.324684143719875 4.3663268135945694 -0.71933980857756763 0 0.69465836192734942 0.34732918096367471 0 0.35966990428878381 1 I I #
point $-1 -56.711051788050149 20.324684143719875 5.4206550798107029 #
plane-surface $-1 60.383922849208041 0 0 -1 0 0 0 0 1 forward_v I I I I #
coedge $-1 $309 $307 $311 $433 reversed $201 $-1 #
edge $-1 $322 -8.5046846839801251 $435 8.5046846839801251 $321 $502 forward 7 unknown #
vertex $-1 $433 $503 #
straight-curve $-1 -60.383922849208041 -24.889962937423125 0 0 0 -1 I I #
edge $-1 $431 -24.889962937423125 $435 24.889962937423125 $429 $504 forward 7 unknown #
straight-curve $-1 0 -24.889962937423125 -8.5046846839801251 -1 0 0 I I #
vertex $-1 $314 $505 #
straight-curve $-1 0 24.889962937423125 -8.5046846839801251 1 0 0 I I #
point $-1 60.383922849208041 24.889962937423125 -8.5046846839801251 #
point $-1 60.383922849208041 -24.889962937423125 -8.5046846839801251 #
straight-curve $-1 -60.383922849208041 0 8.5046846839801251 0 -1 0 I I #
point $-1 -60.383922849208041 24.889962937423125 8.5046846839801251 #
point $-1 -60.383922849208041 -24.889962937423125 8.5046846839801251 #
straight-curve $-1 60.383922849208041 -24.889962937423125 0 0 0 -1 I I #
straight-curve $-1 60.383922849208041 24.889962937423125 0 0 0 -1 I I #
plane-surface $-1 60.383922849208041 0 0 -1 0 0 0 0 1 forward_v I I I I #
coedge $-1 $448 $334 $345 $457 forward $220 $-1 #
coedge $-1 $334 $448 $348 $459 reversed $220 $-1 #
straight-curve $-1 60.383922849208041 -14.709413875638415 1.1506577492286949 0 0 1 I I #
coedge $-1 $446 $445 $337 $449 forward $220 $-1 #
edge $-1 $452 4.8095696723730299 $450 14.99011873415774 $448 $506 forward 7 unknown #
vertex $-1 $339 $507 #
straight-curve $-1 0 -24.889962937423125 0.75494076538188093 1 0 0 I I #
vertex $-1 $449 $508 #
straight-curve $-1 0 -14.709413875638415 0.75494076538188093 1 0 0 I I #
point $-1 60.383922849208041 -24.889962937423125 0.75494076538188093 #
point $-1 60.383922849208041 -14.709413875638415 0.75494076538188093 #
straight-curve $-1 -60.383922849208041 -9.8998442032653848 3.8476902315328987 0 1 0 I I #
edge $-1 $346 -2.6970324823042038 $452 0.39571698384681397 $445 $509 forward 7 unknown #
point $-1 -60.383922849208041 -14.709413875638415 3.8476902315328987 #
edge $-1 $350 -3.8476902315328987 $450 -0.75494076538188093 $446 $510 forward 7 unknown #
point $-1 -60.383922849208041 -24.889962937423125 3.8476902315328987 #
straight-curve $-1 60.383922849208041 -24.889962937423125 0 0 0 -1 I I #
coedge $-1 $466 $360 $357 $463 reversed $355 $-1 #
edge $-1 $471 -60.383922849208041 $464 -55.693436008771819 $462 $511 forward 7 unknown #
vertex $-1 $361 $512 #
straight-curve $-1 55.693436008771833 10.489420222175477 8.5046846839801233 0 -1 0 I I #
coedge $-1 $360 $462 $362 $468 forward $355 $-1 #
straight-curve $-1 18.833374364824056 24.889962937423125 65.264203999766494 -0.54463902268945019 0 0.83867057594974714 I I #
edge $-1 $471 -8.5046846839801251 $363 -1.2819681027696532 $362 $513 forward 7 unknown #
point $-1 60.383922849208048 24.889962937423132 1.2819681027696532 #
point $-1 55.693436008771819 17.067717951278777 8.5046846839801304 #
vertex $-1 $369 $514 #
straight-curve $-1 60.383922849208041 0 8.5046846839801251 0 1 0 I I #
vertex $-1 $372 $515 #
point $-1 57.472328364384914 20.978840444350954 3.9293520827105533 #
edge $-1 $476 34.250155082730032 $479 41.137554099646451 $377 $516 forward 7 unknown #
vertex $-1 $391 $517 #
straight-curve $-1 -73.628520928115947 -4.9292346999809666 8.5046846839801233 -1 0 0 I I #
edge $-1 $479 0.63940221630651273 $388 7.9402627510423951 $387 $518 forward 7 unknown #
vertex $-1 $478 $519 #
straight-curve $-1 -60.383922849208048 -4.9292346999809666 1.6172856670636975 0.69465836192734942 0 0.71933980857756763 I I #
point $-1 -53.732839088819588 -4.9292346999809666 8.5046846839801269 #
point $-1 -60.383922849208041 -12.230095234716849 1.6172856670637048 #
straight-curve $-1 -60.383922849208041 0 8.5046846839801251 0 -1 0 I I #
vertex $-1 $394 $520 #
point $-1 -55.991711979472583 -10.144135081935168 4.7259967178833531 #
vertex $-1 $398 $521 #
point $-1 -55.991711979472583 -7.0151948527626473 4.7259967178833531 #
coedge $-1 $413 $412 $405 $489 forward $402 $-1 #
edge $-1 $490 34.250155082730032 $493 41.137554099646451 $488 $522 forward 7 unknown #
vertex $-1 $417 $523 #
straight-curve $-1 -73.628520928115947 22.410644296501559 8.5046846839801233 -1 0 0 I I #
edge $-1 $493 -13.03053728193475 $414 -5.7296767471988677 $413 $524 forward 7 unknown #
vertex $-1 $492 $525 #
straight-curve $-1 -60.383922849208048 22.410644296501559 1.6172856670636975 0.69465836192734942 0 0.71933980857756763 I I #
point $-1 -53.732839088819588 22.410644296501559 8.5046846839801269 #
point $-1 -60.383922849208041 15.109783761765677 1.6172856670637048 #
straight-curve $-1 -60.383922849208041 0 8.5046846839801251 0 -1 0 I I #
vertex $-1 $420 $526 #
point $-1 -55.991711979472583 17.195743914547361 4.7259967178833531 #
vertex $-1 $424 $527 #
point $-1 -55.991711979472583 20.324684143719875 4.7259967178833531 #
straight-curve $-1 -60.383922849208041 24.889962937423125 0 0 0 -1 I I #
point $-1 -60.383922849208041 -24.889962937423125 -8.5046846839801251 #
straight-curve $-1 -60.383922849208041 0 -8.5046846839801251 0 1 0 I I #
point $-1 -60.383922849208041 24.889962937423125 -8.5046846839801251 #
straight-curve $-1 -60.383922849208041 -9.8998442032653848 0.75494076538188093 0 -1 0 I I #
point $-1 -60.383922849208041 -24.889962937423125 0.75494076538188093 #
point $-1 -60.383922849208041 -14.709413875638415 0.75494076538188093 #
straight-curve $-1 -60.383922849208041 -14.709413875638415 1.1506577492286949 0 0 -1 I I #
straight-curve $-1 -60.383922849208041 -24.889962937423125 0 0 0 -1 I I #
straight-curve $-1 0 24.889962937423125 8.5046846839801251 -1 0 0 I I #
point $-1 55.693436008771819 24.889962937423132 8.5046846839801304 #
straight-curve $-1 60.383922849208041 24.889962937423125 0 0 0 -1 I I #
point $-1 60.383922849208041 24.889962937423125 8.5046846839801251 #
point $-1 56.780673565065314 20.978840444350954 4.076367859340702 #
straight-curve $-1 -60.383922849208041 -4.9292346999809666 42.754839766710155 0 0 -1 I I #
point $-1 -60.383922849208041 -4.9292346999809666 8.5046846839801251 #
straight-curve $-1 -60.383922849208041 -4.2898324836744539 1.617285667063707 0 -1 0 I I #
point $-1 -60.383922849208041 -4.9292346999809666 1.6172856670637048 #
point $-1 -55.979371256147473 -10.144135081935168 4.0189976326308949 #
point $-1 -55.979371256147473 -7.0151948527626473 4.0189976326308949 #
straight-curve $-1 -60.383922849208041 22.410644296501559 42.754839766710155 0 0 -1 I I #
point $-1 -60.383922849208041 22.410644296501559 8.5046846839801251 #
straight-curve $-1 -60.383922849208041 9.3801070145668088 1.617285667063707 0 -1 0 I I #
point $-1 -60.383922849208041 22.410644296501559 1.6172856670637048 #
point $-1 -55.979371256147473 17.195743914547361 4.0189976326308949 #
point $-1 -55.979371256147473 20.324684143719875 4.0189976326308949 #
End-of-ACIS-data 