500 0 18 0           
7 Unknown 11 ACIS 5.0 NT 24 Fri Mar 26 18:16:05 1999 
-1 9.9999999999999995e-007 1e-010 
body $-1 $18 $-1 $19 #
body $-1 $20 $-1 $21 #
body $-1 $22 $-1 $23 #
body $-1 $24 $-1 $25 #
body $-1 $26 $-1 $27 #
body $-1 $28 $-1 $29 #
body $-1 $30 $-1 $31 #
body $-1 $32 $-1 $33 #
body $-1 $34 $-1 $35 #
body $-1 $36 $-1 $37 #
body $-1 $38 $-1 $39 #
body $-1 $40 $-1 $41 #
body $-1 $42 $-1 $43 #
body $-1 $44 $-1 $45 #
body $-1 $46 $-1 $47 #
body $-1 $48 $-1 $49 #
body $-1 $50 $-1 $51 #
body $-1 $52 $-1 $53 #
lump $-1 $-1 $54 $0 #
transform $-1 1 0 0 0 1 0 0 0 1 77.293618579668561 52.066747809124799 24.589926725699243 1 rotate no_reflect no_shear #
lump $-1 $-1 $55 $1 #
transform $-1 1 0 0 0 1 0 0 0 1 77.293618579668561 52.066747809124799 24.589926725699243 1 rotate no_reflect no_shear #
lump $-1 $-1 $56 $2 #
transform $-1 1 0 0 0 1 0 0 0 1 77.293618579668561 52.066747809124799 24.589926725699243 1 rotate no_reflect no_shear #
lump $-1 $-1 $57 $3 #
transform $-1 1 0 0 0 1 0 0 0 1 77.293618579668561 52.066747809124799 24.589926725699243 1 rotate no_reflect no_shear #
lump $-1 $-1 $58 $4 #
transform $-1 1 0 0 0 1 0 0 0 1 77.293618579668561 52.066747809124799 24.589926725699243 1 rotate no_reflect no_shear #
lump $-1 $-1 $59 $5 #
transform $-1 1 0 0 0 1 0 0 0 1 77.293618579668561 52.066747809124799 24.589926725699243 1 rotate no_reflect no_shear #
lump $-1 $-1 $60 $6 #
transform $-1 1 0 0 0 1 0 0 0 1 77.293618579668561 52.066747809124799 24.589926725699243 1 rotate no_reflect no_shear #
lump $-1 $-1 $61 $7 #
transform $-1 1 0 0 0 1 0 0 0 1 77.293618579668561 52.066747809124799 24.589926725699243 1 rotate no_reflect no_shear #
lump $-1 $-1 $62 $8 #
transform $-1 1 0 0 0 1 0 0 0 1 77.293618579668561 52.066747809124799 24.589926725699243 1 rotate no_reflect no_shear #
lump $-1 $-1 $63 $9 #
transform $-1 1 0 0 0 1 0 0 0 1 77.293618579668561 52.066747809124799 24.589926725699243 1 rotate no_reflect no_shear #
lump $-1 $-1 $64 $10 #
transform $-1 1 0 0 0 1 0 0 0 1 77.293618579668561 52.066747809124799 24.589926725699243 1 rotate no_reflect no_shear #
lump $-1 $-1 $65 $11 #
transform $-1 1 0 0 0 1 0 0 0 1 77.293618579668561 52.066747809124799 24.589926725699243 1 rotate no_reflect no_shear #
lump $-1 $-1 $66 $12 #
transform $-1 1 0 0 0 1 0 0 0 1 77.293618579668561 52.066747809124799 24.589926725699243 1 rotate no_reflect no_shear #
lump $-1 $-1 $67 $13 #
transform $-1 1 0 0 0 1 0 0 0 1 77.293618579668561 52.066747809124799 24.589926725699243 1 rotate no_reflect no_shear #
lump $-1 $-1 $68 $14 #
transform $-1 1 0 0 0 1 0 0 0 1 77.293618579668561 52.066747809124799 24.589926725699243 1 rotate no_reflect no_shear #
lump $-1 $-1 $69 $15 #
transform $-1 1 0 0 0 1 0 0 0 1 77.293618579668561 52.066747809124799 24.589926725699243 1 rotate no_reflect no_shear #
lump $-1 $-1 $70 $16 #
transform $-1 1 0 0 0 1 0 0 0 1 77.293618579668561 52.066747809124799 24.589926725699243 1 rotate no_reflect no_shear #
lump $-1 $-1 $71 $17 #
transform $-1 1 0 0 0 1 0 0 0 1 77.293618579668561 52.066747809124799 24.589926725699243 1 rotate no_reflect no_shear #
shell $-1 $-1 $-1 $72 $-1 $18 #
shell $-1 $-1 $-1 $73 $-1 $20 #
shell $-1 $-1 $-1 $74 $-1 $22 #
shell $-1 $-1 $-1 $75 $-1 $24 #
shell $-1 $-1 $-1 $76 $-1 $26 #
shell $-1 $-1 $-1 $77 $-1 $28 #
shell $-1 $-1 $-1 $78 $-1 $30 #
shell $-1 $-1 $-1 $79 $-1 $32 #
shell $-1 $-1 $-1 $80 $-1 $34 #
shell $-1 $-1 $-1 $81 $-1 $36 #
shell $-1 $-1 $-1 $82 $-1 $38 #
shell $-1 $-1 $-1 $83 $-1 $40 #
shell $-1 $-1 $-1 $84 $-1 $42 #
shell $-1 $-1 $-1 $85 $-1 $44 #
shell $-1 $-1 $-1 $86 $-1 $46 #
shell $-1 $-1 $-1 $87 $-1 $48 #
shell $-1 $-1 $-1 $88 $-1 $50 #
shell $-1 $-1 $-1 $89 $-1 $52 #
face $-1 $90 $91 $54 $-1 $92 forward single #
face $-1 $93 $94 $55 $-1 $95 reversed single #
face $-1 $96 $97 $56 $-1 $98 reversed single #
face $-1 $99 $100 $57 $-1 $101 reversed single #
face $-1 $102 $103 $58 $-1 $104 forward single #
face $-1 $105 $106 $59 $-1 $107 forward single #
face $-1 $108 $109 $60 $-1 $110 reversed single #
face $-1 $111 $112 $61 $-1 $113 forward single #
face $-1 $114 $115 $62 $-1 $116 forward single #
face $-1 $117 $118 $63 $-1 $119 reversed single #
face $-1 $120 $121 $64 $-1 $122 forward single #
face $-1 $123 $124 $65 $-1 $125 forward single #
face $-1 $126 $127 $66 $-1 $128 reversed single #
face $-1 $129 $130 $67 $-1 $131 forward single #
face $-1 $132 $133 $68 $-1 $134 forward single #
face $-1 $135 $136 $69 $-1 $137 reversed single #
face $-1 $138 $139 $70 $-1 $140 forward single #
face $-1 $141 $142 $71 $-1 $143 forward single #
face $-1 $144 $145 $54 $-1 $146 reversed single #
loop $-1 $-1 $147 $72 #
plane-surface $-1 0 0 24.589926725699243 0 0 1 1 0 0 forward_v I I I I #
face $-1 $148 $149 $55 $-1 $150 reversed single #
loop $-1 $-1 $151 $73 #
plane-surface $-1 -64.204193534999987 -39.699816491534293 0 0 -1 0 0 0 -1 forward_v I I I I #
face $-1 $152 $153 $56 $-1 $154 reversed single #
loop $-1 $-1 $155 $74 #
plane-surface $-1 51.1147684903314 -45.883282150329549 0 1 0 0 0 0 -1 forward_v I I I I #
face $-1 $156 $157 $57 $-1 $158 reversed single #
loop $-1 $-1 $159 $75 #
plane-surface $-1 -46.696494846255312 121.99466638301183 184.22687392126056 1 0 0 0 -0.82903758062907751 -0.55919289150049634 forward_v I I I I #
face $-1 $160 $161 $58 $-1 $162 forward single #
loop $-1 $163 $164 $76 #
cone-surface $-1 -43.139527015795544 46.990138130808148 17.585430639938053 0 -0.82903758062907751 -0.55919289150049634 1.5 0 0 1 I I 0 1 1.5 forward I I I I #
face $-1 $165 $166 $59 $-1 $167 forward single #
loop $-1 $168 $169 $77 #
cone-surface $-1 -37.804075270105891 46.990138130808148 17.585430639938053 0 -0.82903758062907751 -0.55919289150049634 1.5 0 0 1 I I 0 1 1.5 forward I I I I #
face $-1 $170 $171 $60 $-1 $172 reversed single #
loop $-1 $-1 $173 $78 #
plane-surface $-1 -21.139110601089605 121.99466638301183 184.22687392126056 1 0 0 0 -0.82903758062907751 -0.55919289150049634 forward_v I I I I #
face $-1 $174 $175 $61 $-1 $176 forward single #
loop $-1 $177 $178 $79 #
cone-surface $-1 -17.582142770629837 46.990138130808148 17.585430639938053 0 -0.82903758062907751 -0.55919289150049634 1.5 0 0 1 I I 0 1 1.5 forward I I I I #
face $-1 $179 $180 $62 $-1 $181 forward single #
loop $-1 $182 $183 $80 #
cone-surface $-1 -12.246691024940191 46.990138130808148 17.585430639938053 0 -0.82903758062907751 -0.55919289150049634 1.5 0 0 1 I I 0 1 1.5 forward I I I I #
face $-1 $184 $185 $63 $-1 $186 reversed single #
loop $-1 $-1 $187 $81 #
plane-surface $-1 4.418273644076109 121.99466638301183 184.22687392126056 1 0 0 0 -0.82903758062907751 -0.55919289150049634 forward_v I I I I #
face $-1 $188 $189 $64 $-1 $190 forward single #
loop $-1 $191 $192 $82 #
cone-surface $-1 7.9752414745358635 46.990138130808148 17.585430639938053 0 -0.82903758062907751 -0.55919289150049634 1.5 0 0 1 I I 0 1 1.5 forward I I I I #
face $-1 $193 $194 $65 $-1 $195 forward single #
loop $-1 $196 $197 $83 #
cone-surface $-1 13.310693220225517 46.990138130808148 17.585430639938053 0 -0.82903758062907751 -0.55919289150049634 1.5 0 0 1 I I 0 1 1.5 forward I I I I #
face $-1 $198 $199 $66 $-1 $200 reversed single #
loop $-1 $-1 $201 $84 #
plane-surface $-1 29.975657889241816 121.99466638301183 184.22687392126056 1 0 0 0 -0.82903758062907751 -0.55919289150049634 forward_v I I I I #
face $-1 $202 $203 $67 $-1 $204 forward single #
loop $-1 $205 $206 $85 #
cone-surface $-1 33.532625719701571 46.990138130808148 17.585430639938053 0 -0.82903758062907751 -0.55919289150049634 1.5 0 0 1 I I 0 1 1.5 forward I I I I #
face $-1 $207 $208 $68 $-1 $209 forward single #
loop $-1 $210 $211 $86 #
cone-surface $-1 38.868077465391224 46.990138130808148 17.585430639938053 0 -0.82903758062907751 -0.55919289150049634 1.5 0 0 1 I I 0 1 1.5 forward I I I I #
face $-1 $212 $213 $69 $-1 $214 reversed single #
loop $-1 $-1 $215 $87 #
plane-surface $-1 44.237282739107521 -153.4851017475321 118.93308091382958 -1 0 0 0 -0.6560590369687036 0.75470957328743171 forward_v I I I I #
face $-1 $216 $217 $70 $-1 $218 forward single #
loop $-1 $219 $220 $88 #
cone-surface $-1 36.625412140533811 -37.693030691864365 11.664273243375384 0 0.6560590369687036 -0.75470957328743171 1.5 0 0 1 I I 0 1 1.5 forward I I I I #
face $-1 $221 $222 $71 $-1 $223 forward single #
loop $-1 $224 $225 $89 #
cone-surface $-1 41.192534499678032 -37.693030691864365 11.664273243375384 0 0.6560590369687036 -0.75470957328743171 1.5 0 0 1 I I 0 1 1.5 forward I I I I #
face $-1 $226 $227 $54 $-1 $228 reversed single #
loop $-1 $-1 $229 $90 #
plane-surface $-1 0 0 -24.589926725699243 0 0 1 1 0 0 forward_v I I I I #
coedge $-1 $230 $231 $232 $233 forward $91 $-1 #
face $-1 $234 $235 $55 $-1 $236 forward single #
loop $-1 $-1 $237 $93 #
plane-surface $-1 -51.114768490331414 -45.883282150329549 0 -1 0 0 0 0 1 forward_v I I I I #
coedge $-1 $238 $239 $240 $241 forward $94 $-1 #
face $-1 $242 $243 $56 $-1 $244 forward single #
loop $-1 $-1 $245 $96 #
plane-surface $-1 64.204193534999973 -39.699816491534293 0 0 -1 0 0 0 -1 forward_v I I I I #
coedge $-1 $246 $247 $248 $249 forward $97 $-1 #
face $-1 $250 $251 $57 $-1 $252 reversed single #
loop $-1 $-1 $253 $99 #
plane-surface $-1 -40.471801142950717 -6.1639627076984311 97.782789785057858 0 0.82903758062907751 0.55919289150049634 1 0 0 forward_v I I I I #
coedge $-1 $254 $255 $256 $257 reversed $100 $-1 #
face $-1 $-1 $258 $58 $-1 $259 forward single #
loop $-1 $260 $261 $102 #
cone-surface $-1 -43.139527015795544 45.722501541432457 16.730398990773324 0 -0.82903758062907751 -0.55919289150049634 0.75 0 0 1 I I -0.70710678118654757 0.70710678118654757 0.75 forward I I I I #
loop $-1 $-1 $262 $76 #
coedge $-1 $164 $164 $263 $264 reversed $103 $-1 #
face $-1 $-1 $265 $59 $-1 $266 forward single #
loop $-1 $267 $268 $105 #
cone-surface $-1 -37.804075270105891 45.722501541432457 16.730398990773324 0 -0.82903758062907751 -0.55919289150049634 0.75 0 0 1 I I -0.70710678118654757 0.70710678118654757 0.75 forward I I I I #
loop $-1 $-1 $269 $77 #
coedge $-1 $169 $169 $270 $271 reversed $106 $-1 #
face $-1 $272 $273 $60 $-1 $274 reversed single #
loop $-1 $-1 $275 $108 #
plane-surface $-1 -14.91441689778501 -6.1639627076984311 97.782789785057858 0 0.82903758062907751 0.55919289150049634 1 0 0 forward_v I I I I #
coedge $-1 $276 $277 $278 $279 reversed $109 $-1 #
face $-1 $-1 $280 $61 $-1 $281 forward single #
loop $-1 $282 $283 $111 #
cone-surface $-1 -17.582142770629837 45.722501541432457 16.730398990773324 0 -0.82903758062907751 -0.55919289150049634 0.75 0 0 1 I I -0.70710678118654757 0.70710678118654757 0.75 forward I I I I #
loop $-1 $-1 $284 $79 #
coedge $-1 $178 $178 $285 $286 reversed $112 $-1 #
face $-1 $-1 $287 $62 $-1 $288 forward single #
loop $-1 $289 $290 $114 #
cone-surface $-1 -12.246691024940191 45.722501541432457 16.730398990773324 0 -0.82903758062907751 -0.55919289150049634 0.75 0 0 1 I I -0.70710678118654757 0.70710678118654757 0.75 forward I I I I #
loop $-1 $-1 $291 $80 #
coedge $-1 $183 $183 $292 $293 reversed $115 $-1 #
face $-1 $294 $295 $63 $-1 $296 reversed single #
loop $-1 $-1 $297 $117 #
plane-surface $-1 10.642967347380704 -6.1639627076984311 97.782789785057858 0 0.82903758062907751 0.55919289150049634 1 0 0 forward_v I I I I #
coedge $-1 $298 $299 $300 $301 reversed $118 $-1 #
face $-1 $-1 $302 $64 $-1 $303 forward single #
loop $-1 $304 $305 $120 #
cone-surface $-1 7.9752414745358635 45.722501541432457 16.730398990773324 0 -0.82903758062907751 -0.55919289150049634 0.75 0 0 1 I I -0.70710678118654757 0.70710678118654757 0.75 forward I I I I #
loop $-1 $-1 $306 $82 #
coedge $-1 $192 $192 $307 $308 reversed $121 $-1 #
face $-1 $-1 $309 $65 $-1 $310 forward single #
loop $-1 $311 $312 $123 #
cone-surface $-1 13.310693220225517 45.722501541432457 16.730398990773324 0 -0.82903758062907751 -0.55919289150049634 0.75 0 0 1 I I -0.70710678118654757 0.70710678118654757 0.75 forward I I I I #
loop $-1 $-1 $313 $83 #
coedge $-1 $197 $197 $314 $315 reversed $124 $-1 #
face $-1 $316 $317 $66 $-1 $318 reversed single #
loop $-1 $-1 $319 $126 #
plane-surface $-1 36.200351592546411 -6.1639627076984311 97.782789785057858 0 0.82903758062907751 0.55919289150049634 1 0 0 forward_v I I I I #
coedge $-1 $320 $321 $322 $323 reversed $127 $-1 #
face $-1 $-1 $324 $67 $-1 $325 forward single #
loop $-1 $326 $327 $129 #
cone-surface $-1 33.532625719701571 45.722501541432457 16.730398990773324 0 -0.82903758062907751 -0.55919289150049634 0.75 0 0 1 I I -0.70710678118654757 0.70710678118654757 0.75 forward I I I I #
loop $-1 $-1 $328 $85 #
coedge $-1 $206 $206 $329 $330 reversed $130 $-1 #
face $-1 $-1 $331 $68 $-1 $332 forward single #
loop $-1 $333 $334 $132 #
cone-surface $-1 38.868077465391224 45.722501541432457 16.730398990773324 0 -0.82903758062907751 -0.55919289150049634 0.75 0 0 1 I I -0.70710678118654757 0.70710678118654757 0.75 forward I I I I #
loop $-1 $-1 $335 $86 #
coedge $-1 $211 $211 $336 $337 reversed $133 $-1 #
face $-1 $338 $339 $69 $-1 $340 reversed single #
loop $-1 $-1 $341 $135 #
plane-surface $-1 38.908973320105929 -52.066747809124792 2.2646131216232561 0 -0.6560590369687036 0.75470957328743171 1 0 0 forward_v I I I I #
coedge $-1 $342 $343 $344 $345 reversed $136 $-1 #
face $-1 $-1 $346 $70 $-1 $347 forward single #
loop $-1 $348 $349 $138 #
cone-surface $-1 36.625412140533811 -35.668436748431063 9.3352443831239569 0 0.6560590369687036 -0.75470957328743171 0.75 0 0 1 I I -0.70710678118654757 0.70710678118654757 0.75 forward I I I I #
loop $-1 $-1 $350 $88 #
coedge $-1 $220 $220 $351 $352 reversed $139 $-1 #
face $-1 $-1 $353 $71 $-1 $354 forward single #
loop $-1 $355 $356 $141 #
cone-surface $-1 41.192534499678032 -35.668436748431063 9.3352443831239569 0 0.6560590369687036 -0.75470957328743171 0.75 0 0 1 I I -0.70710678118654757 0.70710678118654757 0.75 forward I I I I #
loop $-1 $-1 $357 $89 #
coedge $-1 $225 $225 $358 $359 reversed $142 $-1 #
face $-1 $360 $361 $54 $-1 $362 reversed single #
loop $-1 $-1 $363 $144 #
plane-surface $-1 0 -52.066747809124799 0 0 1 0 0 0 1 forward_v I I I I #
coedge $-1 $364 $365 $366 $367 forward $145 $-1 #
coedge $-1 $368 $147 $369 $370 forward $91 $-1 #
coedge $-1 $147 $368 $371 $372 forward $91 $-1 #
coedge $-1 $373 $374 $147 $233 reversed $375 $-1 #
edge $-1 $376 -52.066747809124799 $377 52.066747809124799 $232 $378 forward 7 unknown #
face $-1 $379 $380 $55 $-1 $381 reversed single #
loop $-1 $-1 $382 $148 #
plane-surface $-1 0 0 24.589926725699243 0 0 1 1 0 0 forward_v I I I I #
coedge $-1 $383 $384 $385 $386 reversed $149 $-1 #
coedge $-1 $387 $151 $388 $389 reversed $94 $-1 #
coedge $-1 $151 $387 $390 $391 reversed $94 $-1 #
coedge $-1 $384 $383 $151 $241 reversed $149 $-1 #
edge $-1 $392 -24.589926725699243 $393 24.589926725699243 $240 $394 forward 7 unknown #
face $-1 $395 $396 $56 $-1 $397 reversed single #
loop $-1 $-1 $398 $152 #
plane-surface $-1 0 0 24.589926725699243 0 0 1 1 0 0 forward_v I I I I #
coedge $-1 $399 $400 $401 $402 reversed $153 $-1 #
coedge $-1 $403 $155 $404 $405 reversed $97 $-1 #
coedge $-1 $155 $403 $406 $407 reversed $97 $-1 #
coedge $-1 $400 $399 $155 $249 reversed $153 $-1 #
edge $-1 $408 -24.589926725699243 $409 24.589926725699243 $248 $410 forward 7 unknown #
face $-1 $411 $412 $57 $-1 $413 reversed single #
loop $-1 $-1 $414 $156 #
plane-surface $-1 -34.247107439646122 121.99466638301183 184.22687392126056 -1 0 0 0 0.82903758062907751 0.55919289150049634 forward_v I I I I #
coedge $-1 $415 $416 $417 $418 reversed $157 $-1 #
coedge $-1 $255 $159 $419 $420 reversed $100 $-1 #
coedge $-1 $159 $254 $415 $421 reversed $100 $-1 #
coedge $-1 $417 $422 $159 $257 forward $423 $-1 #
edge $-1 $424 8.9305853823811177 $425 17.79208793120663 $256 $426 forward 7 unknown #
loop $-1 $-1 $263 $160 #
plane-surface $-1 -40.471801142950717 -6.1639627076984311 97.782789785057858 0 0.82903758062907751 0.55919289150049634 1 0 0 forward_v I I I I #
loop $-1 $-1 $427 $102 #
coedge $-1 $261 $261 $262 $428 reversed $161 $-1 #
coedge $-1 $262 $262 $261 $428 forward $163 $-1 #
coedge $-1 $263 $263 $164 $264 forward $258 $-1 #
edge $-1 $429 -2.0559426330060771e-015 $429 6.2831853071795987 $263 $430 forward 7 unknown #
loop $-1 $-1 $270 $165 #
plane-surface $-1 -40.471801142950717 -6.1639627076984311 97.782789785057858 0 0.82903758062907751 0.55919289150049634 1 0 0 forward_v I I I I #
loop $-1 $-1 $431 $105 #
coedge $-1 $268 $268 $269 $432 reversed $166 $-1 #
coedge $-1 $269 $269 $268 $432 forward $168 $-1 #
coedge $-1 $270 $270 $169 $271 forward $265 $-1 #
edge $-1 $433 -2.0559426330060771e-015 $433 6.2831853071795987 $270 $434 forward 7 unknown #
face $-1 $435 $436 $60 $-1 $437 forward single #
loop $-1 $-1 $438 $170 #
plane-surface $-1 -8.6897231944804147 121.99466638301183 184.22687392126056 -1 0 0 0 0.82903758062907751 0.55919289150049634 forward_v I I I I #
coedge $-1 $439 $440 $441 $442 reversed $171 $-1 #
coedge $-1 $277 $173 $443 $444 reversed $109 $-1 #
coedge $-1 $173 $276 $439 $445 reversed $109 $-1 #
coedge $-1 $441 $446 $173 $279 forward $436 $-1 #
edge $-1 $447 8.9305853823811177 $448 17.79208793120663 $278 $449 forward 7 unknown #
loop $-1 $-1 $285 $174 #
plane-surface $-1 -14.91441689778501 -6.1639627076984311 97.782789785057858 0 0.82903758062907751 0.55919289150049634 1 0 0 forward_v I I I I #
loop $-1 $-1 $450 $111 #
coedge $-1 $283 $283 $284 $451 reversed $175 $-1 #
coedge $-1 $284 $284 $283 $451 forward $177 $-1 #
coedge $-1 $285 $285 $178 $286 forward $280 $-1 #
edge $-1 $452 -2.0559426330060771e-015 $452 6.2831853071795987 $285 $453 forward 7 unknown #
loop $-1 $-1 $292 $179 #
plane-surface $-1 -14.91441689778501 -6.1639627076984311 97.782789785057858 0 0.82903758062907751 0.55919289150049634 1 0 0 forward_v I I I I #
loop $-1 $-1 $454 $114 #
coedge $-1 $290 $290 $291 $455 reversed $180 $-1 #
coedge $-1 $291 $291 $290 $455 forward $182 $-1 #
coedge $-1 $292 $292 $183 $293 forward $287 $-1 #
edge $-1 $456 -2.0559426330060771e-015 $456 6.2831853071795987 $292 $457 forward 7 unknown #
face $-1 $458 $459 $63 $-1 $460 forward single #
loop $-1 $-1 $461 $184 #
plane-surface $-1 16.8676610506853 121.99466638301183 184.22687392126056 -1 0 0 0 0.82903758062907751 0.55919289150049634 forward_v I I I I #
coedge $-1 $462 $463 $464 $465 reversed $185 $-1 #
coedge $-1 $299 $187 $466 $467 reversed $118 $-1 #
coedge $-1 $187 $298 $462 $468 reversed $118 $-1 #
coedge $-1 $464 $469 $187 $301 forward $459 $-1 #
edge $-1 $470 8.9305853823811177 $471 17.79208793120663 $300 $472 forward 7 unknown #
loop $-1 $-1 $307 $188 #
plane-surface $-1 10.642967347380704 -6.1639627076984311 97.782789785057858 0 0.82903758062907751 0.55919289150049634 1 0 0 forward_v I I I I #
loop $-1 $-1 $473 $120 #
coedge $-1 $305 $305 $306 $474 reversed $189 $-1 #
coedge $-1 $306 $306 $305 $474 forward $191 $-1 #
coedge $-1 $307 $307 $192 $308 forward $302 $-1 #
edge $-1 $475 -2.0559426330060771e-015 $475 6.2831853071795987 $307 $476 forward 7 unknown #
loop $-1 $-1 $314 $193 #
plane-surface $-1 10.642967347380704 -6.1639627076984311 97.782789785057858 0 0.82903758062907751 0.55919289150049634 1 0 0 forward_v I I I I #
loop $-1 $-1 $477 $123 #
coedge $-1 $312 $312 $313 $478 reversed $194 $-1 #
coedge $-1 $313 $313 $312 $478 forward $196 $-1 #
coedge $-1 $314 $314 $197 $315 forward $309 $-1 #
edge $-1 $479 -2.0559426330060771e-015 $479 6.2831853071795987 $314 $480 forward 7 unknown #
face $-1 $481 $482 $66 $-1 $483 forward single #
loop $-1 $-1 $484 $198 #
plane-surface $-1 42.425045295851007 121.99466638301183 184.22687392126056 -1 0 0 0 0.82903758062907751 0.55919289150049634 forward_v I I I I #
coedge $-1 $485 $486 $487 $488 reversed $199 $-1 #
coedge $-1 $321 $201 $489 $490 reversed $127 $-1 #
coedge $-1 $201 $320 $485 $491 reversed $127 $-1 #
coedge $-1 $487 $492 $201 $323 forward $482 $-1 #
edge $-1 $493 8.9305853823811177 $494 17.79208793120663 $322 $495 forward 7 unknown #
loop $-1 $-1 $329 $202 #
plane-surface $-1 36.200351592546411 -6.1639627076984311 97.782789785057858 0 0.82903758062907751 0.55919289150049634 1 0 0 forward_v I I I I #
loop $-1 $-1 $496 $129 #
coedge $-1 $327 $327 $328 $497 reversed $203 $-1 #
coedge $-1 $328 $328 $327 $497 forward $205 $-1 #
coedge $-1 $329 $329 $206 $330 forward $324 $-1 #
edge $-1 $498 -2.0559426330060771e-015 $498 6.2831853071795987 $329 $499 forward 7 unknown #
loop $-1 $-1 $336 $207 #
plane-surface $-1 36.200351592546411 -6.1639627076984311 97.782789785057858 0 0.82903758062907751 0.55919289150049634 1 0 0 forward_v I I I I #
loop $-1 $-1 $500 $132 #
coedge $-1 $334 $334 $335 $501 reversed $208 $-1 #
coedge $-1 $335 $335 $334 $501 forward $210 $-1 #
coedge $-1 $336 $336 $211 $337 forward $331 $-1 #
edge $-1 $502 -2.0559426330060771e-015 $502 6.2831853071795987 $336 $503 forward 7 unknown #
face $-1 $504 $505 $69 $-1 $506 forward single #
loop $-1 $-1 $507 $212 #
plane-surface $-1 33.580663901104337 -153.4851017475321 118.93308091382958 1 0 0 0 0.6560590369687036 -0.75470957328743171 forward_v I I I I #
coedge $-1 $508 $509 $510 $511 reversed $213 $-1 #
coedge $-1 $343 $215 $512 $513 reversed $136 $-1 #
coedge $-1 $215 $342 $508 $514 reversed $136 $-1 #
coedge $-1 $510 $515 $215 $345 forward $505 $-1 #
edge $-1 $516 24.675803064641251 $517 50.358137967748533 $344 $518 forward 7 unknown #
loop $-1 $-1 $351 $216 #
plane-surface $-1 38.908973320105929 -52.066747809124792 2.2646131216232561 0 -0.6560590369687036 0.75470957328743171 1 0 0 forward_v I I I I #
loop $-1 $-1 $519 $138 #
coedge $-1 $349 $349 $350 $520 reversed $217 $-1 #
coedge $-1 $350 $350 $349 $520 forward $219 $-1 #
coedge $-1 $351 $351 $220 $352 forward $346 $-1 #
edge $-1 $521 -2.6404170732517941e-015 $521 6.2831853071795978 $351 $522 forward 7 unknown #
loop $-1 $-1 $358 $221 #
plane-surface $-1 38.908973320105929 -52.066747809124792 2.2646131216232561 0 -0.6560590369687036 0.75470957328743171 1 0 0 forward_v I I I I #
loop $-1 $-1 $523 $141 #
coedge $-1 $356 $356 $357 $524 reversed $222 $-1 #
coedge $-1 $357 $357 $356 $524 forward $224 $-1 #
coedge $-1 $358 $358 $225 $359 forward $353 $-1 #
edge $-1 $525 -2.6404170732517941e-015 $525 6.2831853071795978 $358 $526 forward 7 unknown #
face $-1 $527 $528 $54 $-1 $529 reversed single #
loop $-1 $-1 $530 $226 #
plane-surface $-1 -77.293618579668561 0 0 1 0 0 0 0 -1 forward_v I I I I #
coedge $-1 $531 $371 $532 $533 forward $227 $-1 #
coedge $-1 $534 $229 $531 $535 forward $145 $-1 #
coedge $-1 $229 $534 $536 $537 forward $145 $-1 #
coedge $-1 $374 $373 $229 $367 reversed $375 $-1 #
edge $-1 $538 -52.066747809124799 $539 52.066747809124799 $366 $540 forward 7 unknown #
coedge $-1 $231 $230 $541 $542 forward $91 $-1 #
coedge $-1 $543 $544 $230 $370 reversed $528 $-1 #
edge $-1 $377 -77.293618579668561 $545 77.293618579668561 $369 $546 forward 7 unknown #
coedge $-1 $363 $547 $231 $372 reversed $227 $-1 #
edge $-1 $548 -77.293618579668561 $376 77.293618579668561 $371 $549 forward 7 unknown #
coedge $-1 $366 $232 $547 $550 forward $375 $-1 #
coedge $-1 $232 $366 $543 $551 reversed $375 $-1 #
loop $-1 $-1 $373 $527 #
vertex $-1 $233 $552 #
vertex $-1 $233 $553 #
straight-curve $-1 77.293618579668561 0 24.589926725699243 0 1 0 I I #
face $-1 $554 $555 $55 $-1 $556 reversed single #
loop $-1 $-1 $557 $234 #
plane-surface $-1 -77.293618579668561 0 0 1 0 0 0 0 -1 forward_v I I I I #
coedge $-1 $390 $558 $384 $559 forward $235 $-1 #
coedge $-1 $240 $237 $560 $561 reversed $149 $-1 #
coedge $-1 $237 $240 $382 $559 reversed $149 $-1 #
coedge $-1 $562 $563 $237 $386 forward $564 $-1 #
edge $-1 $565 -24.589926725699243 $566 24.589926725699243 $385 $567 forward 7 unknown #
coedge $-1 $239 $238 $557 $568 reversed $94 $-1 #
coedge $-1 $560 $569 $238 $389 forward $555 $-1 #
edge $-1 $570 -45.191521812168567 $393 -19.012671722831421 $388 $571 forward 7 unknown #
coedge $-1 $572 $382 $239 $391 forward $235 $-1 #
edge $-1 $392 19.012671722831421 $573 45.191521812168567 $390 $574 forward 7 unknown #
vertex $-1 $391 $575 #
vertex $-1 $389 $576 #
straight-curve $-1 -51.114768490331414 -39.699816491534293 0 0 0 -1 I I #
face $-1 $577 $578 $56 $-1 $579 reversed single #
loop $-1 $-1 $580 $242 #
plane-surface $-1 0 -52.066747809124799 0 0 1 0 0 0 1 forward_v I I I I #
coedge $-1 $406 $581 $400 $582 forward $243 $-1 #
coedge $-1 $248 $245 $583 $584 reversed $153 $-1 #
coedge $-1 $245 $248 $398 $582 reversed $153 $-1 #
coedge $-1 $585 $586 $245 $402 forward $587 $-1 #
edge $-1 $588 -24.589926725699243 $589 24.589926725699243 $401 $590 forward 7 unknown #
coedge $-1 $247 $246 $580 $591 reversed $97 $-1 #
coedge $-1 $583 $592 $246 $405 forward $578 $-1 #
edge $-1 $593 -29.125106733960031 $409 -16.758175416369518 $404 $594 forward 7 unknown #
coedge $-1 $595 $398 $247 $407 forward $243 $-1 #
edge $-1 $408 16.758175416369518 $596 29.125106733960031 $406 $597 forward 7 unknown #
vertex $-1 $407 $598 #
vertex $-1 $405 $599 #
straight-curve $-1 51.1147684903314 -39.699816491534293 0 0 0 -1 I I #
face $-1 $-1 $423 $57 $-1 $600 forward single #
loop $-1 $-1 $601 $250 #
plane-surface $-1 0 52.066747809124799 0 0 -1 0 0 0 -1 forward_v I I I I #
coedge $-1 $602 $603 $604 $605 reversed $251 $-1 #
coedge $-1 $606 $253 $255 $421 forward $157 $-1 #
coedge $-1 $253 $606 $602 $607 forward $157 $-1 #
coedge $-1 $604 $256 $253 $418 forward $423 $-1 #
edge $-1 $425 -26.460594274779954 $608 -14.011206868170763 $417 $609 forward 7 unknown #
coedge $-1 $610 $611 $254 $420 forward $412 $-1 #
edge $-1 $612 -80.661228445374661 $424 -67.523510234931038 $419 $613 forward 7 unknown #
edge $-1 $425 88.286544264760039 $612 104.13349561824955 $255 $614 forward 7 unknown #
coedge $-1 $256 $604 $610 $615 forward $423 $-1 #
loop $-1 $-1 $604 $411 #
vertex $-1 $420 $616 #
vertex $-1 $257 $617 #
straight-curve $-1 -46.696494846255312 60.997333191505916 24.589926725699243 0 -1 0 I I #
coedge $-1 $427 $427 $-1 $618 reversed $260 $-1 #
edge $-1 $619 0 $619 6.2831853071796004 $261 $620 forward 7 unknown #
vertex $-1 $264 $621 #
ellipse-curve $-1 -43.139527015795544 47.635996534712049 18.021067620477424 0 0.82903758062907751 0.55919289150049634 1.5 0 0 1 I I #
coedge $-1 $431 $431 $-1 $622 reversed $267 $-1 #
edge $-1 $623 0 $623 6.2831853071796004 $268 $624 forward 7 unknown #
vertex $-1 $271 $625 #
ellipse-curve $-1 -37.804075270105891 47.635996534712049 18.021067620477424 0 0.82903758062907751 0.55919289150049634 1.5 0 0 1 I I #
face $-1 $-1 $626 $60 $-1 $627 reversed single #
loop $-1 $-1 $278 $272 #
plane-surface $-1 0 0 24.589926725699243 0 0 1 1 0 0 forward_v I I I I #
coedge $-1 $628 $629 $630 $631 reversed $273 $-1 #
coedge $-1 $632 $275 $277 $445 forward $171 $-1 #
coedge $-1 $275 $632 $628 $633 forward $171 $-1 #
coedge $-1 $630 $278 $275 $442 forward $436 $-1 #
edge $-1 $448 -13.6819021521971 $634 -1.2325147455879097 $441 $635 forward 7 unknown #
coedge $-1 $636 $637 $276 $444 forward $626 $-1 #
edge $-1 $638 -80.661228445374661 $447 -67.523510234931038 $443 $639 forward 7 unknown #
edge $-1 $448 88.286544264760039 $638 104.13349561824955 $277 $640 forward 7 unknown #
coedge $-1 $278 $630 $636 $641 forward $436 $-1 #
vertex $-1 $279 $642 #
vertex $-1 $279 $643 #
straight-curve $-1 -21.139110601089605 60.997333191505916 24.589926725699243 0 -1 0 I I #
coedge $-1 $450 $450 $-1 $644 reversed $282 $-1 #
edge $-1 $645 0 $645 6.2831853071796004 $283 $646 forward 7 unknown #
vertex $-1 $286 $647 #
ellipse-curve $-1 -17.582142770629837 47.635996534712049 18.021067620477424 0 0.82903758062907751 0.55919289150049634 1.5 0 0 1 I I #
coedge $-1 $454 $454 $-1 $648 reversed $289 $-1 #
edge $-1 $649 0 $649 6.2831853071796004 $290 $650 forward 7 unknown #
vertex $-1 $293 $651 #
ellipse-curve $-1 -12.246691024940191 47.635996534712049 18.021067620477424 0 0.82903758062907751 0.55919289150049634 1.5 0 0 1 I I #
face $-1 $-1 $652 $63 $-1 $653 reversed single #
loop $-1 $-1 $300 $294 #
plane-surface $-1 0 0 24.589926725699243 0 0 1 1 0 0 forward_v I I I I #
coedge $-1 $654 $655 $656 $657 reversed $295 $-1 #
coedge $-1 $658 $297 $299 $468 forward $185 $-1 #
coedge $-1 $297 $658 $654 $659 forward $185 $-1 #
coedge $-1 $656 $300 $297 $465 forward $459 $-1 #
edge $-1 $471 -0.90321002961424313 $660 11.546177376994947 $464 $661 forward 7 unknown #
coedge $-1 $662 $663 $298 $467 forward $652 $-1 #
edge $-1 $664 -80.661228445374661 $470 -67.523510234931038 $466 $665 forward 7 unknown #
edge $-1 $471 88.286544264760039 $664 104.13349561824955 $299 $666 forward 7 unknown #
coedge $-1 $300 $656 $662 $667 forward $459 $-1 #
vertex $-1 $301 $668 #
vertex $-1 $301 $669 #
straight-curve $-1 4.418273644076109 60.997333191505916 24.589926725699243 0 -1 0 I I #
coedge $-1 $473 $473 $-1 $670 reversed $304 $-1 #
edge $-1 $671 0 $671 6.2831853071796004 $305 $672 forward 7 unknown #
vertex $-1 $308 $673 #
ellipse-curve $-1 7.9752414745358635 47.635996534712049 18.021067620477424 0 0.82903758062907751 0.55919289150049634 1.5 0 0 1 I I #
coedge $-1 $477 $477 $-1 $674 reversed $311 $-1 #
edge $-1 $675 0 $675 6.2831853071796004 $312 $676 forward 7 unknown #
vertex $-1 $315 $677 #
ellipse-curve $-1 13.310693220225517 47.635996534712049 18.021067620477424 0 0.82903758062907751 0.55919289150049634 1.5 0 0 1 I I #
face $-1 $-1 $678 $66 $-1 $679 reversed single #
loop $-1 $-1 $322 $316 #
plane-surface $-1 0 0 24.589926725699243 0 0 1 1 0 0 forward_v I I I I #
coedge $-1 $680 $681 $682 $683 reversed $317 $-1 #
coedge $-1 $684 $319 $321 $491 forward $199 $-1 #
coedge $-1 $319 $684 $680 $685 forward $199 $-1 #
coedge $-1 $682 $322 $319 $488 forward $482 $-1 #
edge $-1 $494 11.87548209296861 $686 24.324869499577801 $487 $687 forward 7 unknown #
coedge $-1 $688 $689 $320 $490 forward $678 $-1 #
edge $-1 $690 -80.661228445374661 $493 -67.523510234931038 $489 $691 forward 7 unknown #
edge $-1 $494 88.286544264760039 $690 104.13349561824955 $321 $692 forward 7 unknown #
coedge $-1 $322 $682 $688 $693 forward $482 $-1 #
vertex $-1 $323 $694 #
vertex $-1 $323 $695 #
straight-curve $-1 29.975657889241816 60.997333191505916 24.589926725699243 0 -1 0 I I #
coedge $-1 $496 $496 $-1 $696 reversed $326 $-1 #
edge $-1 $697 0 $697 6.2831853071796004 $327 $698 forward 7 unknown #
vertex $-1 $330 $699 #
ellipse-curve $-1 33.532625719701571 47.635996534712049 18.021067620477424 0 0.82903758062907751 0.55919289150049634 1.5 0 0 1 I I #
coedge $-1 $500 $500 $-1 $700 reversed $333 $-1 #
edge $-1 $701 0 $701 6.2831853071796004 $334 $702 forward 7 unknown #
vertex $-1 $337 $703 #
ellipse-curve $-1 38.868077465391224 47.635996534712049 18.021067620477424 0 0.82903758062907751 0.55919289150049634 1.5 0 0 1 I I #
face $-1 $-1 $704 $69 $-1 $705 reversed single #
loop $-1 $-1 $344 $338 #
plane-surface $-1 0 0 24.589926725699243 0 0 1 1 0 0 forward_v I I I I #
coedge $-1 $706 $707 $708 $709 reversed $339 $-1 #
coedge $-1 $710 $341 $343 $514 forward $213 $-1 #
coedge $-1 $341 $710 $706 $711 forward $213 $-1 #
coedge $-1 $708 $344 $341 $511 forward $505 $-1 #
edge $-1 $517 -24.782796079054556 $712 -14.126177241051373 $510 $713 forward 7 unknown #
coedge $-1 $714 $715 $342 $513 forward $704 $-1 #
edge $-1 $716 -57.201927335291543 $516 -34.876613731215549 $512 $717 forward 7 unknown #
edge $-1 $517 -34.029427758863392 $716 9.44141639987384e-015 $343 $718 forward 7 unknown #
coedge $-1 $344 $708 $714 $719 forward $505 $-1 #
vertex $-1 $513 $720 #
vertex $-1 $345 $721 #
straight-curve $-1 44.237282739107521 -76.742550873766049 24.589926725699243 0 1 0 I I #
coedge $-1 $519 $519 $-1 $722 reversed $348 $-1 #
edge $-1 $723 0 $723 6.2831853071796004 $349 $724 forward 7 unknown #
vertex $-1 $352 $725 #
ellipse-curve $-1 36.625412140533811 -39.225580357571154 13.42726992366125 0 -0.6560590369687036 0.75470957328743171 1.5 0 0 1 I I #
coedge $-1 $523 $523 $-1 $726 reversed $355 $-1 #
edge $-1 $727 0 $727 6.2831853071796004 $356 $728 forward 7 unknown #
vertex $-1 $359 $729 #
ellipse-curve $-1 41.192534499678032 -39.225580357571154 13.42726992366125 0 -0.6560590369687036 0.75470957328743171 1.5 0 0 1 I I #
face $-1 $-1 $375 $54 $-1 $730 reversed single #
loop $-1 $-1 $543 $360 #
plane-surface $-1 0 52.066747809124799 0 0 -1 0 0 0 -1 forward_v I I I I #
coedge $-1 $731 $541 $544 $732 forward $361 $-1 #
coedge $-1 $547 $363 $364 $535 reversed $227 $-1 #
coedge $-1 $541 $731 $363 $533 reversed $361 $-1 #
edge $-1 $548 -24.589926725699243 $733 24.589926725699243 $532 $734 forward 7 unknown #
coedge $-1 $365 $364 $731 $735 forward $145 $-1 #
edge $-1 $539 -77.293618579668561 $733 77.293618579668561 $531 $736 forward 7 unknown #
coedge $-1 $544 $543 $365 $537 reversed $528 $-1 #
edge $-1 $737 -77.293618579668561 $538 77.293618579668561 $536 $738 forward 7 unknown #
vertex $-1 $367 $739 #
vertex $-1 $550 $740 #
straight-curve $-1 77.293618579668561 0 -24.589926725699243 0 -1 0 I I #
coedge $-1 $530 $532 $368 $542 reversed $361 $-1 #
edge $-1 $545 -52.066747809124799 $548 52.066747809124799 $541 $741 forward 7 unknown #
coedge $-1 $536 $369 $374 $551 forward $528 $-1 #
coedge $-1 $369 $536 $530 $732 reversed $528 $-1 #
vertex $-1 $370 $742 #
straight-curve $-1 0 52.066747809124799 24.589926725699243 -1 0 0 I I #
coedge $-1 $371 $531 $373 $550 reversed $227 $-1 #
vertex $-1 $542 $743 #
straight-curve $-1 0 -52.066747809124799 24.589926725699243 1 0 0 I I #
edge $-1 $376 -24.589926725699243 $539 24.589926725699243 $373 $744 forward 7 unknown #
edge $-1 $377 -24.589926725699243 $538 24.589926725699243 $374 $745 forward 7 unknown #
point $-1 77.293618579668561 -52.066747809124799 24.589926725699243 #
point $-1 77.293618579668561 52.066747809124799 24.589926725699243 #
face $-1 $-1 $564 $55 $-1 $746 reversed single #
loop $-1 $-1 $560 $379 #
plane-surface $-1 0 0 -24.589926725699243 0 0 1 1 0 0 forward_v I I I I #
coedge $-1 $747 $748 $387 $568 forward $380 $-1 #
coedge $-1 $382 $572 $562 $749 forward $235 $-1 #
edge $-1 $566 -29.125106733960031 $392 -16.758175416369518 $382 $750 forward 7 unknown #
coedge $-1 $751 $388 $383 $561 forward $555 $-1 #
edge $-1 $393 16.758175416369518 $565 29.125106733960031 $560 $752 forward 7 unknown #
coedge $-1 $753 $385 $558 $749 reversed $564 $-1 #
coedge $-1 $385 $753 $751 $754 reversed $564 $-1 #
loop $-1 $-1 $385 $554 #
vertex $-1 $754 $755 #
vertex $-1 $386 $756 #
straight-curve $-1 -51.114768490331414 -52.066747809124799 0 0 0 1 I I #
edge $-1 $573 -24.589926725699243 $570 24.589926725699243 $557 $757 forward 7 unknown #
coedge $-1 $388 $751 $747 $758 forward $555 $-1 #
vertex $-1 $389 $759 #
straight-curve $-1 -32.102096767499994 -39.699816491534293 -24.589926725699243 1 0 0 I I #
coedge $-1 $558 $390 $748 $760 forward $235 $-1 #
vertex $-1 $760 $761 #
straight-curve $-1 -32.102096767499994 -39.699816491534293 24.589926725699243 -1 0 0 I I #
point $-1 -51.114768490331414 -39.699816491534293 24.589926725699243 #
point $-1 -51.114768490331414 -39.699816491534293 -24.589926725699243 #
face $-1 $-1 $587 $56 $-1 $762 reversed single #
loop $-1 $-1 $583 $395 #
plane-surface $-1 0 0 -24.589926725699243 0 0 1 1 0 0 forward_v I I I I #
coedge $-1 $763 $764 $403 $591 forward $396 $-1 #
coedge $-1 $398 $595 $585 $765 forward $243 $-1 #
edge $-1 $589 -45.19152181216856 $408 -19.012671722831413 $398 $766 forward 7 unknown #
coedge $-1 $767 $404 $399 $584 forward $578 $-1 #
edge $-1 $409 19.012671722831413 $588 45.19152181216856 $583 $768 forward 7 unknown #
coedge $-1 $769 $401 $581 $765 reversed $587 $-1 #
coedge $-1 $401 $769 $767 $770 reversed $587 $-1 #
loop $-1 $-1 $401 $577 #
vertex $-1 $770 $771 #
vertex $-1 $402 $772 #
straight-curve $-1 77.293618579668561 -39.699816491534293 0 0 0 1 I I #
edge $-1 $596 -24.589926725699243 $593 24.589926725699243 $580 $773 forward 7 unknown #
coedge $-1 $404 $767 $763 $774 forward $578 $-1 #
vertex $-1 $405 $775 #
straight-curve $-1 51.1147684903314 -22.941641075164775 -24.589926725699243 0 1 0 I I #
coedge $-1 $581 $406 $764 $776 forward $243 $-1 #
vertex $-1 $776 $777 #
straight-curve $-1 51.1147684903314 -22.941641075164775 24.589926725699243 0 -1 0 I I #
point $-1 51.1147684903314 -39.699816491534293 24.589926725699243 #
point $-1 51.1147684903314 -39.699816491534293 -24.589926725699243 #
plane-surface $-1 0 0 24.589926725699243 0 0 1 1 0 0 forward_v I I I I #
coedge $-1 $611 $610 $603 $778 forward $412 $-1 #
coedge $-1 $603 $414 $416 $607 reversed $251 $-1 #
coedge $-1 $414 $602 $601 $778 reversed $251 $-1 #
coedge $-1 $422 $417 $414 $605 forward $423 $-1 #
edge $-1 $608 -17.79208793120663 $779 -8.9305853823811177 $604 $780 forward 7 unknown #
coedge $-1 $416 $415 $611 $781 reversed $157 $-1 #
edge $-1 $782 -104.13349561824955 $608 -88.286544264760039 $602 $783 forward 7 unknown #
vertex $-1 $418 $784 #
straight-curve $-1 -20.235900571475359 43.2052452602993 24.589926725699243 1 0 0 I I #
coedge $-1 $601 $419 $422 $615 reversed $412 $-1 #
coedge $-1 $419 $601 $606 $781 forward $412 $-1 #
vertex $-1 $420 $785 #
straight-curve $-1 -46.696494846255312 52.066747809124799 92.113436960630281 0 0 1 I I #
straight-curve $-1 -46.696494846255312 -6.1639627076984311 97.782789785057858 0 0.55919289150049634 -0.82903758062907751 I I #
edge $-1 $779 34.247107439646122 $424 46.696494846255312 $610 $786 forward 7 unknown #
point $-1 -46.696494846255312 52.066747809124799 24.589926725699243 #
point $-1 -46.696494846255312 43.205245260299286 24.589926725699243 #
edge $-1 $787 1 $787 0 $427 $-1 forward 7 unknown #
vertex $-1 $428 $788 #
ellipse-curve $-1 -43.139527015795544 46.344279726904269 17.149793659398696 0 0.82903758062907751 0.55919289150049634 1.5 0 0 1 I I #
point $-1 -41.639527015795544 47.635996534712028 18.021067620477414 #
edge $-1 $789 1 $789 0 $431 $-1 forward 7 unknown #
vertex $-1 $432 $790 #
ellipse-curve $-1 -37.804075270105891 46.344279726904269 17.149793659398696 0 0.82903758062907751 0.55919289150049634 1.5 0 0 1 I I #
point $-1 -36.304075270105891 47.635996534712028 18.021067620477414 #
loop $-1 $-1 $443 $435 #
plane-surface $-1 0 52.066747809124799 0 0 -1 0 0 0 -1 forward_v I I I I #
coedge $-1 $629 $438 $440 $633 reversed $273 $-1 #
coedge $-1 $438 $628 $791 $792 reversed $273 $-1 #
coedge $-1 $446 $441 $438 $631 forward $436 $-1 #
edge $-1 $634 -17.79208793120663 $793 -8.9305853823811177 $630 $794 forward 7 unknown #
coedge $-1 $440 $439 $637 $795 reversed $171 $-1 #
edge $-1 $796 -104.13349561824955 $634 -88.286544264760039 $628 $797 forward 7 unknown #
vertex $-1 $442 $798 #
straight-curve $-1 -7.457208448892505 43.2052452602993 24.589926725699243 1 0 0 I I #
coedge $-1 $791 $443 $446 $641 reversed $626 $-1 #
coedge $-1 $443 $791 $632 $795 forward $626 $-1 #
vertex $-1 $444 $799 #
straight-curve $-1 -21.139110601089605 52.066747809124799 92.113436960630281 0 0 1 I I #
straight-curve $-1 -21.139110601089605 -6.1639627076984311 97.782789785057858 0 0.55919289150049634 -0.82903758062907751 I I #
edge $-1 $793 8.6897231944804147 $447 21.139110601089605 $636 $800 forward 7 unknown #
point $-1 -21.139110601089605 52.066747809124799 24.589926725699243 #
point $-1 -21.139110601089605 43.205245260299286 24.589926725699243 #
edge $-1 $801 1 $801 0 $450 $-1 forward 7 unknown #
vertex $-1 $451 $802 #
ellipse-curve $-1 -17.582142770629837 46.344279726904269 17.149793659398696 0 0.82903758062907751 0.55919289150049634 1.5 0 0 1 I I #
point $-1 -16.082142770629837 47.635996534712028 18.021067620477414 #
edge $-1 $803 1 $803 0 $454 $-1 forward 7 unknown #
vertex $-1 $455 $804 #
ellipse-curve $-1 -12.246691024940191 46.344279726904269 17.149793659398696 0 0.82903758062907751 0.55919289150049634 1.5 0 0 1 I I #
point $-1 -10.746691024940191 47.635996534712028 18.021067620477414 #
loop $-1 $-1 $466 $458 #
plane-surface $-1 0 52.066747809124799 0 0 -1 0 0 0 -1 forward_v I I I I #
coedge $-1 $655 $461 $463 $659 reversed $295 $-1 #
coedge $-1 $461 $654 $805 $806 reversed $295 $-1 #
coedge $-1 $469 $464 $461 $657 forward $459 $-1 #
edge $-1 $660 -17.79208793120663 $807 -8.9305853823811177 $656 $808 forward 7 unknown #
coedge $-1 $463 $462 $663 $809 reversed $185 $-1 #
edge $-1 $810 -104.13349561824955 $660 -88.286544264760039 $654 $811 forward 7 unknown #
vertex $-1 $465 $812 #
straight-curve $-1 5.3214836736903521 43.2052452602993 24.589926725699243 1 0 0 I I #
coedge $-1 $805 $466 $469 $667 reversed $652 $-1 #
coedge $-1 $466 $805 $658 $809 forward $652 $-1 #
vertex $-1 $467 $813 #
straight-curve $-1 4.418273644076109 52.066747809124799 92.113436960630281 0 0 1 I I #
straight-curve $-1 4.418273644076109 -6.1639627076984311 97.782789785057858 0 0.55919289150049634 -0.82903758062907751 I I #
edge $-1 $807 -16.8676610506853 $470 -4.418273644076109 $662 $814 forward 7 unknown #
point $-1 4.418273644076109 52.066747809124799 24.589926725699243 #
point $-1 4.418273644076109 43.205245260299286 24.589926725699243 #
edge $-1 $815 1 $815 0 $473 $-1 forward 7 unknown #
vertex $-1 $474 $816 #
ellipse-curve $-1 7.9752414745358635 46.344279726904269 17.149793659398696 0 0.82903758062907751 0.55919289150049634 1.5 0 0 1 I I #
point $-1 9.4752414745358635 47.635996534712028 18.021067620477414 #
edge $-1 $817 1 $817 0 $477 $-1 forward 7 unknown #
vertex $-1 $478 $818 #
ellipse-curve $-1 13.310693220225517 46.344279726904269 17.149793659398696 0 0.82903758062907751 0.55919289150049634 1.5 0 0 1 I I #
point $-1 14.810693220225517 47.635996534712028 18.021067620477414 #
loop $-1 $-1 $489 $481 #
plane-surface $-1 0 52.066747809124799 0 0 -1 0 0 0 -1 forward_v I I I I #
coedge $-1 $681 $484 $486 $685 reversed $317 $-1 #
coedge $-1 $484 $680 $819 $820 reversed $317 $-1 #
coedge $-1 $492 $487 $484 $683 forward $482 $-1 #
edge $-1 $686 -17.79208793120663 $821 -8.9305853823811177 $682 $822 forward 7 unknown #
coedge $-1 $486 $485 $689 $823 reversed $199 $-1 #
edge $-1 $824 -104.13349561824955 $686 -88.286544264760039 $680 $825 forward 7 unknown #
vertex $-1 $488 $826 #
straight-curve $-1 18.100175796273206 43.2052452602993 24.589926725699243 1 0 0 I I #
coedge $-1 $819 $489 $492 $693 reversed $678 $-1 #
coedge $-1 $489 $819 $684 $823 forward $678 $-1 #
vertex $-1 $490 $827 #
straight-curve $-1 29.975657889241816 52.066747809124799 92.113436960630281 0 0 1 I I #
straight-curve $-1 29.975657889241816 -6.1639627076984311 97.782789785057858 0 0.55919289150049634 -0.82903758062907751 I I #
edge $-1 $821 -42.425045295851007 $493 -29.975657889241816 $688 $828 forward 7 unknown #
point $-1 29.975657889241816 52.066747809124799 24.589926725699243 #
point $-1 29.975657889241816 43.205245260299286 24.589926725699243 #
edge $-1 $829 1 $829 0 $496 $-1 forward 7 unknown #
vertex $-1 $497 $830 #
ellipse-curve $-1 33.532625719701571 46.344279726904269 17.149793659398696 0 0.82903758062907751 0.55919289150049634 1.5 0 0 1 I I #
point $-1 35.032625719701571 47.635996534712028 18.021067620477414 #
edge $-1 $831 1 $831 0 $500 $-1 forward 7 unknown #
vertex $-1 $501 $832 #
ellipse-curve $-1 38.868077465391224 46.344279726904269 17.149793659398696 0 0.82903758062907751 0.55919289150049634 1.5 0 0 1 I I #
point $-1 40.368077465391224 47.635996534712028 18.021067620477414 #
loop $-1 $-1 $512 $504 #
plane-surface $-1 0 -52.066747809124799 0 0 1 0 0 0 1 forward_v I I I I #
coedge $-1 $707 $507 $509 $711 reversed $339 $-1 #
coedge $-1 $507 $706 $833 $834 reversed $339 $-1 #
coedge $-1 $515 $510 $507 $709 forward $505 $-1 #
edge $-1 $712 -50.358137967748533 $835 -24.675803064641251 $708 $836 forward 7 unknown #
coedge $-1 $509 $508 $715 $837 reversed $213 $-1 #
edge $-1 $838 -9.44141639987384e-015 $712 34.029427758863392 $706 $839 forward 7 unknown #
vertex $-1 $511 $840 #
straight-curve $-1 19.454486660052964 -26.384412906017513 24.589926725699243 -1 0 0 I I #
coedge $-1 $833 $512 $515 $719 reversed $704 $-1 #
coedge $-1 $512 $833 $710 $837 forward $704 $-1 #
vertex $-1 $513 $841 #
straight-curve $-1 44.237282739107521 -52.066747809124799 59.466540456914792 0 0 1 I I #
straight-curve $-1 44.237282739107521 -52.066747809124792 2.2646131216232561 0 -0.75470957328743171 -0.6560590369687036 I I #
edge $-1 $835 33.580663901104337 $516 44.237282739107521 $714 $842 forward 7 unknown #
point $-1 44.237282739107521 -52.066747809124799 24.589926725699243 #
point $-1 44.237282739107521 -26.384412906017516 24.589926725699243 #
edge $-1 $843 1 $843 0 $519 $-1 forward 7 unknown #
vertex $-1 $520 $844 #
ellipse-curve $-1 36.625412140533811 -36.160481026157591 9.9012765630895299 0 -0.6560590369687036 0.75470957328743171 1.5 0 0 1 I I #
point $-1 38.125412140533811 -39.225580357571147 13.427269923661235 #
edge $-1 $845 1 $845 0 $523 $-1 forward 7 unknown #
vertex $-1 $524 $846 #
ellipse-curve $-1 41.192534499678032 -36.160481026157591 9.9012765630895299 0 -0.6560590369687036 0.75470957328743171 1.5 0 0 1 I I #
point $-1 42.692534499678032 -39.225580357571147 13.427269923661235 #
plane-surface $-1 77.293618579668561 0 0 -1 0 0 0 0 1 forward_v I I I I #
coedge $-1 $532 $530 $534 $735 reversed $361 $-1 #
edge $-1 $545 -24.589926725699243 $737 24.589926725699243 $544 $847 forward 7 unknown #
vertex $-1 $735 $848 #
straight-curve $-1 -77.293618579668561 -52.066747809124799 0 0 0 -1 I I #
edge $-1 $733 -52.066747809124799 $737 52.066747809124799 $731 $849 forward 7 unknown #
straight-curve $-1 0 -52.066747809124799 -24.589926725699243 -1 0 0 I I #
vertex $-1 $537 $850 #
straight-curve $-1 0 52.066747809124799 -24.589926725699243 1 0 0 I I #
point $-1 77.293618579668561 52.066747809124799 -24.589926725699243 #
point $-1 77.293618579668561 -52.066747809124799 -24.589926725699243 #
straight-curve $-1 -77.293618579668561 0 24.589926725699243 0 -1 0 I I #
point $-1 -77.293618579668561 52.066747809124799 24.589926725699243 #
point $-1 -77.293618579668561 -52.066747809124799 24.589926725699243 #
straight-curve $-1 77.293618579668561 -52.066747809124799 0 0 0 -1 I I #
straight-curve $-1 77.293618579668561 52.066747809124799 0 0 0 -1 I I #
plane-surface $-1 0 -52.066747809124799 0 0 1 0 0 0 1 forward_v I I I I #
coedge $-1 $851 $557 $569 $758 reversed $380 $-1 #
coedge $-1 $557 $851 $572 $760 reversed $380 $-1 #
edge $-1 $852 -77.293618579668561 $566 -51.114768490331414 $562 $853 forward 7 unknown #
straight-curve $-1 -51.114768490331414 -22.941641075164775 24.589926725699243 0 1 0 I I #
coedge $-1 $569 $560 $563 $754 forward $555 $-1 #
straight-curve $-1 -51.114768490331414 -22.941641075164775 -24.589926725699243 0 -1 0 I I #
coedge $-1 $563 $562 $851 $854 forward $564 $-1 #
edge $-1 $565 51.114768490331414 $855 77.293618579668561 $563 $856 forward 7 unknown #
point $-1 -51.114768490331414 -52.066747809124806 -24.589926725699243 #
point $-1 -51.114768490331414 -52.066747809124806 24.589926725699243 #
straight-curve $-1 -77.293618579668561 -39.699816491534293 0 0 0 -1 I I #
edge $-1 $855 -52.066747809124799 $570 -39.699816491534293 $747 $857 forward 7 unknown #
point $-1 -77.293618579668561 -39.699816491534293 -24.589926725699243 #
edge $-1 $573 39.699816491534293 $852 52.066747809124799 $748 $858 forward 7 unknown #
point $-1 -77.293618579668561 -39.699816491534293 24.589926725699243 #
plane-surface $-1 77.293618579668561 0 0 -1 0 0 0 0 1 forward_v I I I I #
coedge $-1 $859 $580 $592 $774 reversed $396 $-1 #
coedge $-1 $580 $859 $595 $776 reversed $396 $-1 #
edge $-1 $860 -52.066747809124799 $589 -39.699816491534293 $585 $861 forward 7 unknown #
straight-curve $-1 32.102096767499987 -39.699816491534293 24.589926725699243 -1 0 0 I I #
coedge $-1 $592 $583 $586 $770 forward $578 $-1 #
straight-curve $-1 32.102096767499987 -39.699816491534293 -24.589926725699243 1 0 0 I I #
coedge $-1 $586 $585 $859 $862 forward $587 $-1 #
edge $-1 $588 39.699816491534293 $863 52.066747809124799 $586 $864 forward 7 unknown #
point $-1 77.293618579668546 -39.699816491534293 -24.589926725699243 #
point $-1 77.293618579668546 -39.699816491534293 24.589926725699243 #
straight-curve $-1 51.1147684903314 -52.066747809124799 0 0 0 -1 I I #
edge $-1 $863 -77.293618579668561 $593 -51.1147684903314 $763 $865 forward 7 unknown #
point $-1 51.1147684903314 -52.066747809124806 -24.589926725699243 #
edge $-1 $596 51.1147684903314 $860 77.293618579668561 $764 $866 forward 7 unknown #
point $-1 51.1147684903314 -52.066747809124806 24.589926725699243 #
edge $-1 $779 67.523510234931038 $782 80.661228445374661 $601 $867 forward 7 unknown #
vertex $-1 $615 $868 #
straight-curve $-1 -34.247107439646122 60.997333191505916 24.589926725699243 0 1 0 I I #
edge $-1 $782 14.011206868170763 $612 26.460594274779954 $611 $869 forward 7 unknown #
vertex $-1 $781 $870 #
straight-curve $-1 -34.247107439646122 -6.1639627076984311 97.782789785057858 0 -0.55919289150049634 0.82903758062907751 I I #
point $-1 -34.247107439646122 43.205245260299286 24.589926725699243 #
point $-1 -46.696494846255312 52.066747809124792 11.45220851525562 #
straight-curve $-1 0 52.066747809124799 24.589926725699243 -1 0 0 I I #
vertex $-1 $618 $871 #
point $-1 -41.639527015795544 46.344279726904269 17.149793659398696 #
vertex $-1 $622 $872 #
point $-1 -36.304075270105891 46.344279726904269 17.149793659398696 #
coedge $-1 $637 $636 $629 $792 forward $626 $-1 #
edge $-1 $793 67.523510234931038 $796 80.661228445374661 $791 $873 forward 7 unknown #
vertex $-1 $641 $874 #
straight-curve $-1 -8.6897231944804147 60.997333191505916 24.589926725699243 0 1 0 I I #
edge $-1 $796 1.2325147455879097 $638 13.6819021521971 $637 $875 forward 7 unknown #
vertex $-1 $795 $876 #
straight-curve $-1 -8.6897231944804147 -6.1639627076984311 97.782789785057858 0 -0.55919289150049634 0.82903758062907751 I I #
point $-1 -8.6897231944804147 43.205245260299286 24.589926725699243 #
point $-1 -21.139110601089605 52.066747809124792 11.45220851525562 #
straight-curve $-1 0 52.066747809124799 24.589926725699243 -1 0 0 I I #
vertex $-1 $644 $877 #
point $-1 -16.082142770629837 46.344279726904269 17.149793659398696 #
vertex $-1 $648 $878 #
point $-1 -10.746691024940191 46.344279726904269 17.149793659398696 #
coedge $-1 $663 $662 $655 $806 forward $652 $-1 #
edge $-1 $807 67.523510234931038 $810 80.661228445374661 $805 $879 forward 7 unknown #
vertex $-1 $667 $880 #
straight-curve $-1 16.8676610506853 60.997333191505916 24.589926725699243 0 1 0 I I #
edge $-1 $810 -11.546177376994947 $664 0.90321002961424313 $663 $881 forward 7 unknown #
vertex $-1 $809 $882 #
straight-curve $-1 16.8676610506853 -6.1639627076984311 97.782789785057858 0 -0.55919289150049634 0.82903758062907751 I I #
point $-1 16.8676610506853 43.205245260299286 24.589926725699243 #
point $-1 4.418273644076109 52.066747809124792 11.45220851525562 #
straight-curve $-1 0 52.066747809124799 24.589926725699243 -1 0 0 I I #
vertex $-1 $670 $883 #
point $-1 9.4752414745358635 46.344279726904269 17.149793659398696 #
vertex $-1 $674 $884 #
point $-1 14.810693220225517 46.344279726904269 17.149793659398696 #
coedge $-1 $689 $688 $681 $820 forward $678 $-1 #
edge $-1 $821 67.523510234931038 $824 80.661228445374661 $819 $885 forward 7 unknown #
vertex $-1 $693 $886 #
straight-curve $-1 42.425045295851007 60.997333191505916 24.589926725699243 0 1 0 I I #
edge $-1 $824 -24.324869499577801 $690 -11.87548209296861 $689 $887 forward 7 unknown #
vertex $-1 $823 $888 #
straight-curve $-1 42.425045295851007 -6.1639627076984311 97.782789785057858 0 -0.55919289150049634 0.82903758062907751 I I #
point $-1 42.425045295851007 43.205245260299286 24.589926725699243 #
point $-1 29.975657889241816 52.066747809124792 11.45220851525562 #
straight-curve $-1 0 52.066747809124799 24.589926725699243 -1 0 0 I I #
vertex $-1 $696 $889 #
point $-1 35.032625719701571 46.344279726904269 17.149793659398696 #
vertex $-1 $700 $890 #
point $-1 40.368077465391224 46.344279726904269 17.149793659398696 #
coedge $-1 $715 $714 $707 $834 forward $704 $-1 #
edge $-1 $835 34.876613731215549 $838 57.201927335291543 $833 $891 forward 7 unknown #
vertex $-1 $719 $892 #
straight-curve $-1 33.580663901104337 -76.742550873766049 24.589926725699243 0 -1 0 I I #
edge $-1 $838 14.126177241051373 $716 24.782796079054556 $715 $893 forward 7 unknown #
vertex $-1 $837 $894 #
straight-curve $-1 33.580663901104337 -52.066747809124792 2.2646131216232561 0 0.75470957328743171 0.6560590369687036 I I #
point $-1 33.580663901104337 -26.384412906017516 24.589926725699243 #
point $-1 44.237282739107521 -52.066747809124799 2.2646131216232499 #
straight-curve $-1 0 -52.066747809124799 24.589926725699243 1 0 0 I I #
vertex $-1 $722 $895 #
point $-1 38.125412140533811 -36.160481026157591 9.9012765630895299 #
vertex $-1 $726 $896 #
point $-1 42.692534499678032 -36.160481026157591 9.9012765630895299 #
straight-curve $-1 -77.293618579668561 52.066747809124799 0 0 0 -1 I I #
point $-1 -77.293618579668561 -52.066747809124799 -24.589926725699243 #
straight-curve $-1 -77.293618579668561 0 -24.589926725699243 0 1 0 I I #
point $-1 -77.293618579668561 52.066747809124799 -24.589926725699243 #
coedge $-1 $748 $747 $753 $854 reversed $380 $-1 #
vertex $-1 $760 $897 #
straight-curve $-1 0 -52.066747809124799 24.589926725699243 1 0 0 I I #
edge $-1 $852 -24.589926725699243 $855 24.589926725699243 $851 $898 forward 7 unknown #
vertex $-1 $758 $899 #
straight-curve $-1 0 -52.066747809124799 -24.589926725699243 -1 0 0 I I #
straight-curve $-1 -77.293618579668561 0 -24.589926725699243 0 1 0 I I #
straight-curve $-1 -77.293618579668561 0 24.589926725699243 0 -1 0 I I #
coedge $-1 $764 $763 $769 $862 reversed $396 $-1 #
vertex $-1 $765 $900 #
straight-curve $-1 77.293618579668561 0 24.589926725699243 0 1 0 I I #
edge $-1 $860 -24.589926725699243 $863 24.589926725699243 $769 $901 forward 7 unknown #
vertex $-1 $862 $902 #
straight-curve $-1 77.293618579668561 0 -24.589926725699243 0 -1 0 I I #
straight-curve $-1 0 -52.066747809124799 -24.589926725699243 -1 0 0 I I #
straight-curve $-1 0 -52.066747809124799 24.589926725699243 1 0 0 I I #
straight-curve $-1 -34.247107439646122 52.066747809124799 92.113436960630281 0 0 -1 I I #
point $-1 -34.247107439646122 52.066747809124799 24.589926725699243 #
straight-curve $-1 -20.235900571475359 52.066747809124806 11.452208515255606 -1 0 0 I I #
point $-1 -34.247107439646122 52.066747809124792 11.45220851525562 #
point $-1 -43.139527015795544 45.100723355960646 16.311004322147951 #
point $-1 -37.804075270105891 45.100723355960646 16.311004322147951 #
straight-curve $-1 -8.6897231944804147 52.066747809124799 92.113436960630281 0 0 -1 I I #
point $-1 -8.6897231944804147 52.066747809124799 24.589926725699243 #
straight-curve $-1 -7.457208448892505 52.066747809124806 11.452208515255606 -1 0 0 I I #
point $-1 -8.6897231944804147 52.066747809124792 11.45220851525562 #
point $-1 -17.582142770629837 45.100723355960646 16.311004322147951 #
point $-1 -12.246691024940191 45.100723355960646 16.311004322147951 #
straight-curve $-1 16.8676610506853 52.066747809124799 92.113436960630281 0 0 -1 I I #
point $-1 16.8676610506853 52.066747809124799 24.589926725699243 #
straight-curve $-1 5.3214836736903521 52.066747809124806 11.452208515255606 -1 0 0 I I #
point $-1 16.8676610506853 52.066747809124792 11.45220851525562 #
point $-1 7.9752414745358635 45.100723355960646 16.311004322147951 #
point $-1 13.310693220225517 45.100723355960646 16.311004322147951 #
straight-curve $-1 42.425045295851007 52.066747809124799 92.113436960630281 0 0 -1 I I #
point $-1 42.425045295851007 52.066747809124799 24.589926725699243 #
straight-curve $-1 18.100175796273206 52.066747809124806 11.452208515255606 -1 0 0 I I #
point $-1 42.425045295851007 52.066747809124792 11.45220851525562 #
point $-1 33.532625719701571 45.100723355960646 16.311004322147951 #
point $-1 38.868077465391224 45.100723355960646 16.311004322147951 #
straight-curve $-1 33.580663901104337 -52.066747809124799 59.466540456914792 0 0 -1 I I #
point $-1 33.580663901104337 -52.066747809124799 24.589926725699243 #
straight-curve $-1 19.454486660052964 -52.066747809124799 2.2646131216232459 1 0 0 I I #
point $-1 33.580663901104337 -52.066747809124799 2.2646131216232499 #
point $-1 36.625412140533811 -35.176392470704535 8.7692122031583839 #
point $-1 41.192534499678032 -35.176392470704535 8.7692122031583839 #
point $-1 -77.293618579668561 -52.066747809124799 24.589926725699243 #
straight-curve $-1 -77.293618579668561 -52.066747809124799 0 0 0 -1 I I #
point $-1 -77.293618579668561 -52.066747809124799 -24.589926725699243 #
point $-1 77.293618579668561 -52.066747809124799 24.589926725699243 #
straight-curve $-1 77.293618579668561 -52.066747809124799 0 0 0 -1 I I #
point $-1 77.293618579668561 -52.066747809124799 -24.589926725699243 #
End-of-ACIS-data 