500 0 8 0           
7 Unknown 11 ACIS 5.0 NT 24 Fri Mar 26 00:50:49 1999 
-1 9.9999999999999995e-007 1e-010 
body $-1 $8 $-1 $9 #
body $-1 $10 $-1 $11 #
body $-1 $12 $-1 $13 #
body $-1 $14 $-1 $15 #
body $-1 $16 $-1 $17 #
body $-1 $18 $-1 $19 #
body $-1 $20 $-1 $21 #
body $-1 $22 $-1 $23 #
lump $-1 $-1 $24 $0 #
transform $-1 1 0 0 0 1 0 0 0 1 52.831202124088257 32.294315807508717 7.203366050414127 1 rotate no_reflect no_shear #
lump $-1 $-1 $25 $1 #
transform $-1 1 0 0 0 1 0 0 0 1 52.831202124088257 32.294315807508717 7.203366050414127 1 rotate no_reflect no_shear #
lump $-1 $-1 $26 $2 #
transform $-1 1 0 0 0 1 0 0 0 1 52.831202124088257 32.294315807508717 7.203366050414127 1 rotate no_reflect no_shear #
lump $-1 $-1 $27 $3 #
transform $-1 1 0 0 0 1 0 0 0 1 52.831202124088257 32.294315807508717 7.203366050414127 1 rotate no_reflect no_shear #
lump $-1 $-1 $28 $4 #
transform $-1 1 0 0 0 1 0 0 0 1 52.831202124088257 32.294315807508717 7.203366050414127 1 rotate no_reflect no_shear #
lump $-1 $-1 $29 $5 #
transform $-1 1 0 0 0 1 0 0 0 1 52.831202124088257 32.294315807508717 7.203366050414127 1 rotate no_reflect no_shear #
lump $-1 $-1 $30 $6 #
transform $-1 1 0 0 0 1 0 0 0 1 52.831202124088257 32.294315807508717 7.203366050414127 1 rotate no_reflect no_shear #
lump $-1 $-1 $31 $7 #
transform $-1 1 0 0 0 1 0 0 0 1 52.831202124088257 32.294315807508717 7.203366050414127 1 rotate no_reflect no_shear #
shell $-1 $-1 $-1 $32 $-1 $8 #
shell $-1 $-1 $-1 $33 $-1 $10 #
shell $-1 $-1 $-1 $34 $-1 $12 #
shell $-1 $-1 $-1 $35 $-1 $14 #
shell $-1 $-1 $-1 $36 $-1 $16 #
shell $-1 $-1 $-1 $37 $-1 $18 #
shell $-1 $-1 $-1 $38 $-1 $20 #
shell $-1 $-1 $-1 $39 $-1 $22 #
face $-1 $40 $41 $24 $-1 $42 forward single #
face $-1 $43 $44 $25 $-1 $45 reversed single #
face $-1 $46 $47 $26 $-1 $48 forward single #
face $-1 $49 $50 $27 $-1 $51 forward single #
face $-1 $52 $53 $28 $-1 $54 reversed single #
face $-1 $55 $56 $29 $-1 $57 forward single #
face $-1 $58 $59 $30 $-1 $60 forward single #
face $-1 $61 $62 $31 $-1 $63 forward single #
face $-1 $64 $65 $24 $-1 $66 reversed single #
loop $-1 $-1 $67 $32 #
plane-surface $-1 0 0 7.203366050414127 0 0 1 1 0 0 forward_v I I I I #
face $-1 $68 $69 $25 $-1 $70 reversed single #
loop $-1 $-1 $71 $33 #
plane-surface $-1 46.349153663763168 -32.294315807508724 4.0431437475799612 0 -0.69465837861970381 0.71933979245794832 1 0 0 forward_v I I I I #
face $-1 $72 $73 $26 $-1 $74 forward single #
loop $-1 $75 $76 $34 #
cone-surface $-1 43.571132895052422 -29.838854832012277 4.7749401841876296 0 0.69465837861970381 -0.71933979245794832 1 0 0 1 I I 0 1 1 forward I I I I #
face $-1 $77 $78 $27 $-1 $79 forward single #
loop $-1 $80 $81 $35 #
cone-surface $-1 49.127174432473929 -29.838854832012277 4.7749401841876296 0 0.69465837861970381 -0.71933979245794832 1 0 0 1 I I 0 1 1 forward I I I I #
face $-1 $82 $83 $28 $-1 $84 reversed single #
loop $-1 $-1 $85 $36 #
plane-surface $-1 46.522962788461093 0.98112673047850762 59.495973613075449 0 0.87461971476443456 0.48480960649040278 1 0 0 forward_v I I I I #
face $-1 $86 $87 $29 $-1 $88 forward single #
loop $-1 $89 $90 $37 #
cone-surface $-1 42.738019187084795 30.693543722057356 4.8620197484237506 0 -0.87461971476443456 -0.48480960649040278 0.5 0 0 1 I I 0 1 0.5 forward I I I I #
face $-1 $91 $92 $30 $-1 $93 forward single #
loop $-1 $94 $95 $38 #
cone-surface $-1 46.522962788461093 30.693543722057356 4.8620197484237506 0 -0.87461971476443456 -0.48480960649040278 0.5 0 0 1 I I 0 1 0.5 forward I I I I #
face $-1 $96 $97 $31 $-1 $98 forward single #
loop $-1 $99 $100 $39 #
cone-surface $-1 50.307906389837392 30.693543722057356 4.8620197484237506 0 -0.87461971476443456 -0.48480960649040278 0.5 0 0 1 I I 0 1 0.5 forward I I I I #
face $-1 $101 $102 $24 $-1 $103 reversed single #
loop $-1 $-1 $104 $40 #
plane-surface $-1 0 0 -7.203366050414127 0 0 1 1 0 0 forward_v I I I I #
coedge $-1 $105 $106 $107 $108 forward $41 $-1 #
face $-1 $109 $110 $25 $-1 $111 reversed single #
loop $-1 $-1 $112 $43 #
plane-surface $-1 39.867105203438086 -105.69359022360672 80.050315690071088 1 0 0 0 0.69465837861970381 -0.71933979245794832 forward_v I I I I #
coedge $-1 $113 $114 $115 $116 reversed $44 $-1 #
face $-1 $-1 $117 $26 $-1 $118 forward single #
loop $-1 $119 $120 $46 #
cone-surface $-1 43.571132895052422 -28.672317626508615 3.5669555731492419 0 0.69465837861970381 -0.71933979245794832 0.5 0 0 1 I I -0.70710678118654746 0.70710678118654746 0.5 forward I I I I #
loop $-1 $-1 $121 $34 #
coedge $-1 $76 $76 $122 $123 reversed $47 $-1 #
face $-1 $-1 $124 $27 $-1 $125 forward single #
loop $-1 $126 $127 $49 #
cone-surface $-1 49.127174432473929 -28.672317626508615 3.5669555731492419 0 0.69465837861970381 -0.71933979245794832 0.5 0 0 1 I I -0.70710678118654746 0.70710678118654746 0.5 forward I I I I #
loop $-1 $-1 $128 $35 #
coedge $-1 $81 $81 $129 $130 reversed $50 $-1 #
face $-1 $131 $132 $28 $-1 $133 forward single #
loop $-1 $-1 $134 $52 #
plane-surface $-1 40.21472345283393 93.39554859534303 110.72212223746376 1 0 0 0 -0.87461971476443456 -0.48480960649040278 forward_v I I I I #
coedge $-1 $135 $136 $137 $138 reversed $53 $-1 #
face $-1 $-1 $139 $29 $-1 $140 forward single #
loop $-1 $141 $142 $55 #
cone-surface $-1 42.738019187084795 30.03757893598403 4.4984125435559488 0 -0.87461971476443456 -0.48480960649040278 0.25 0 0 1 I I -0.70710678118654746 0.70710678118654746 0.25 forward I I I I #
loop $-1 $-1 $143 $37 #
coedge $-1 $90 $90 $144 $145 reversed $56 $-1 #
face $-1 $-1 $146 $30 $-1 $147 forward single #
loop $-1 $148 $149 $58 #
cone-surface $-1 46.522962788461093 30.03757893598403 4.4984125435559488 0 -0.87461971476443456 -0.48480960649040278 0.25 0 0 1 I I -0.70710678118654746 0.70710678118654746 0.25 forward I I I I #
loop $-1 $-1 $150 $38 #
coedge $-1 $95 $95 $151 $152 reversed $59 $-1 #
face $-1 $-1 $153 $31 $-1 $154 forward single #
loop $-1 $155 $156 $61 #
cone-surface $-1 50.307906389837392 30.03757893598403 4.4984125435559488 0 -0.87461971476443456 -0.48480960649040278 0.25 0 0 1 I I -0.70710678118654746 0.70710678118654746 0.25 forward I I I I #
loop $-1 $-1 $157 $39 #
coedge $-1 $100 $100 $158 $159 reversed $62 $-1 #
face $-1 $160 $161 $24 $-1 $162 reversed single #
loop $-1 $-1 $163 $64 #
plane-surface $-1 0 -32.294315807508717 0 0 1 0 0 0 1 forward_v I I I I #
coedge $-1 $164 $165 $166 $167 forward $65 $-1 #
coedge $-1 $168 $67 $169 $170 forward $41 $-1 #
coedge $-1 $67 $168 $171 $172 forward $41 $-1 #
coedge $-1 $173 $174 $67 $108 reversed $175 $-1 #
edge $-1 $176 -32.294315807508717 $177 32.294315807508717 $107 $178 forward 7 unknown #
face $-1 $179 $180 $25 $-1 $181 forward single #
loop $-1 $-1 $182 $68 #
plane-surface $-1 0 -32.294315807508717 0 0 1 0 0 0 1 forward_v I I I I #
coedge $-1 $183 $184 $185 $186 reversed $69 $-1 #
coedge $-1 $187 $71 $188 $189 reversed $44 $-1 #
coedge $-1 $71 $187 $183 $190 forward $44 $-1 #
coedge $-1 $185 $191 $71 $116 forward $180 $-1 #
edge $-1 $192 -29.656625292206666 $193 -16.692528371556502 $115 $194 forward 7 unknown #
loop $-1 $-1 $122 $72 #
plane-surface $-1 46.349153663763168 -32.294315807508724 4.0431437475799612 0 -0.69465837861970381 0.71933979245794832 1 0 0 forward_v I I I I #
loop $-1 $-1 $195 $46 #
coedge $-1 $120 $120 $121 $196 reversed $73 $-1 #
coedge $-1 $121 $121 $120 $196 forward $75 $-1 #
coedge $-1 $122 $122 $76 $123 forward $117 $-1 #
edge $-1 $197 -1.1462751653525323e-015 $197 6.2831853071795996 $122 $198 forward 7 unknown #
loop $-1 $-1 $129 $77 #
plane-surface $-1 46.349153663763168 -32.294315807508724 4.0431437475799612 0 -0.69465837861970381 0.71933979245794832 1 0 0 forward_v I I I I #
loop $-1 $-1 $199 $49 #
coedge $-1 $127 $127 $128 $200 reversed $78 $-1 #
coedge $-1 $128 $128 $127 $200 forward $80 $-1 #
coedge $-1 $129 $129 $81 $130 forward $124 $-1 #
edge $-1 $201 -1.1462751653525323e-015 $201 6.2831853071795996 $129 $202 forward 7 unknown #
face $-1 $203 $204 $28 $-1 $205 reversed single #
loop $-1 $-1 $206 $82 #
plane-surface $-1 0 0 7.203366050414127 0 0 1 1 0 0 forward_v I I I I #
coedge $-1 $207 $208 $209 $210 reversed $83 $-1 #
coedge $-1 $211 $85 $212 $213 reversed $53 $-1 #
coedge $-1 $85 $211 $207 $214 forward $53 $-1 #
coedge $-1 $209 $215 $85 $138 forward $216 $-1 #
edge $-1 $217 -29.56972072985771 $218 -16.953242058603383 $137 $219 forward 7 unknown #
loop $-1 $-1 $144 $86 #
plane-surface $-1 46.522962788461093 0.98112673047850762 59.495973613075449 0 0.87461971476443456 0.48480960649040278 1 0 0 forward_v I I I I #
loop $-1 $-1 $220 $55 #
coedge $-1 $142 $142 $143 $221 reversed $87 $-1 #
coedge $-1 $143 $143 $142 $221 forward $89 $-1 #
coedge $-1 $144 $144 $90 $145 forward $139 $-1 #
edge $-1 $222 -1.75724935722226e-015 $222 6.2831853071795987 $144 $223 forward 7 unknown #
loop $-1 $-1 $151 $91 #
plane-surface $-1 46.522962788461093 0.98112673047850762 59.495973613075449 0 0.87461971476443456 0.48480960649040278 1 0 0 forward_v I I I I #
loop $-1 $-1 $224 $58 #
coedge $-1 $149 $149 $150 $225 reversed $92 $-1 #
coedge $-1 $150 $150 $149 $225 forward $94 $-1 #
coedge $-1 $151 $151 $95 $152 forward $146 $-1 #
edge $-1 $226 -1.75724935722226e-015 $226 6.2831853071795987 $151 $227 forward 7 unknown #
loop $-1 $-1 $158 $96 #
plane-surface $-1 46.522962788461093 0.98112673047850762 59.495973613075449 0 0.87461971476443456 0.48480960649040278 1 0 0 forward_v I I I I #
loop $-1 $-1 $228 $61 #
coedge $-1 $156 $156 $157 $229 reversed $97 $-1 #
coedge $-1 $157 $157 $156 $229 forward $99 $-1 #
coedge $-1 $158 $158 $100 $159 forward $153 $-1 #
edge $-1 $230 -1.75724935722226e-015 $230 6.2831853071795987 $158 $231 forward 7 unknown #
face $-1 $232 $233 $24 $-1 $234 reversed single #
loop $-1 $-1 $235 $101 #
plane-surface $-1 -52.831202124088257 0 0 1 0 0 0 0 -1 forward_v I I I I #
coedge $-1 $236 $171 $237 $238 forward $102 $-1 #
coedge $-1 $239 $104 $236 $240 forward $65 $-1 #
coedge $-1 $104 $239 $241 $242 forward $65 $-1 #
coedge $-1 $174 $173 $104 $167 reversed $175 $-1 #
edge $-1 $243 -32.294315807508717 $244 32.294315807508717 $166 $245 forward 7 unknown #
coedge $-1 $106 $105 $246 $247 forward $41 $-1 #
coedge $-1 $248 $249 $105 $170 reversed $233 $-1 #
edge $-1 $177 -52.831202124088257 $250 52.831202124088257 $169 $251 forward 7 unknown #
coedge $-1 $163 $252 $106 $172 reversed $102 $-1 #
edge $-1 $253 -52.831202124088257 $176 52.831202124088257 $171 $254 forward 7 unknown #
coedge $-1 $166 $107 $252 $255 forward $175 $-1 #
coedge $-1 $107 $166 $248 $256 reversed $175 $-1 #
loop $-1 $-1 $173 $232 #
vertex $-1 $108 $257 #
vertex $-1 $108 $258 #
straight-curve $-1 52.831202124088257 0 7.203366050414127 0 1 0 I I #
face $-1 $-1 $259 $25 $-1 $260 reversed single #
loop $-1 $-1 $185 $109 #
plane-surface $-1 0 0 7.203366050414127 0 0 1 1 0 0 forward_v I I I I #
coedge $-1 $261 $262 $184 $263 forward $110 $-1 #
coedge $-1 $184 $112 $114 $190 reversed $69 $-1 #
coedge $-1 $112 $183 $182 $263 reversed $69 $-1 #
coedge $-1 $264 $115 $112 $186 forward $180 $-1 #
edge $-1 $193 -23.824985222899887 $265 -20.552479304294643 $185 $266 forward 7 unknown #
coedge $-1 $114 $113 $261 $267 reversed $44 $-1 #
coedge $-1 $268 $269 $113 $189 forward $259 $-1 #
edge $-1 $270 -10.210991375162227 $192 -5.6616727458907201 $188 $271 forward 7 unknown #
edge $-1 $272 1.0047061288372931e-014 $193 4.5493186292715171 $183 $273 forward 7 unknown #
coedge $-1 $115 $264 $268 $274 forward $180 $-1 #
vertex $-1 $189 $275 #
vertex $-1 $116 $276 #
straight-curve $-1 23.174576831881584 -29.021809888903473 7.203366050414127 -1 0 0 I I #
coedge $-1 $195 $195 $-1 $277 reversed $119 $-1 #
edge $-1 $278 0 $278 6.2831853071796004 $120 $279 forward 7 unknown #
vertex $-1 $123 $280 #
ellipse-curve $-1 43.571132895052422 -30.658062848206093 5.6232548989970486 0 -0.69465837861970381 0.71933979245794832 1 0 0 1 I I #
coedge $-1 $199 $199 $-1 $281 reversed $126 $-1 #
edge $-1 $282 0 $282 6.2831853071796004 $127 $283 forward 7 unknown #
vertex $-1 $130 $284 #
ellipse-curve $-1 49.127174432473929 -30.658062848206093 5.6232548989970486 0 -0.69465837861970381 0.71933979245794832 1 0 0 1 I I #
face $-1 $-1 $216 $28 $-1 $285 reversed single #
loop $-1 $-1 $212 $131 #
plane-surface $-1 52.831202124088257 0 0 -1 0 0 0 0 1 forward_v I I I I #
coedge $-1 $286 $287 $208 $288 forward $132 $-1 #
coedge $-1 $208 $134 $136 $214 reversed $83 $-1 #
coedge $-1 $134 $207 $206 $288 reversed $83 $-1 #
coedge $-1 $289 $137 $134 $210 forward $216 $-1 #
edge $-1 $218 -52.35557806580816 $290 -48.157695068317757 $209 $291 forward 7 unknown #
coedge $-1 $136 $135 $286 $292 reversed $53 $-1 #
coedge $-1 $293 $294 $135 $213 forward $204 $-1 #
edge $-1 $295 34.008619151734713 $217 38.808285711527539 $212 $296 forward 7 unknown #
edge $-1 $297 59.788965055224651 $218 64.588631615017476 $207 $298 forward 7 unknown #
coedge $-1 $137 $289 $293 $299 forward $216 $-1 #
loop $-1 $-1 $209 $203 #
vertex $-1 $213 $300 #
vertex $-1 $138 $301 #
straight-curve $-1 23.261481394230547 32.294315807508717 3.0054830529237258 -1 0 0 I I #
coedge $-1 $220 $220 $-1 $302 reversed $141 $-1 #
edge $-1 $303 0 $303 6.2831853071796004 $142 $304 forward 7 unknown #
vertex $-1 $145 $305 #
ellipse-curve $-1 42.738019187084795 31.13085357943956 5.1044245516689433 0 0.87461971476443456 0.48480960649040278 0.5 0 0 1 I I #
coedge $-1 $224 $224 $-1 $306 reversed $148 $-1 #
edge $-1 $307 0 $307 6.2831853071796004 $149 $308 forward 7 unknown #
vertex $-1 $152 $309 #
ellipse-curve $-1 46.522962788461093 31.13085357943956 5.1044245516689433 0 0.87461971476443456 0.48480960649040278 0.5 0 0 1 I I #
coedge $-1 $228 $228 $-1 $310 reversed $155 $-1 #
edge $-1 $311 0 $311 6.2831853071796004 $156 $312 forward 7 unknown #
vertex $-1 $159 $313 #
ellipse-curve $-1 50.307906389837392 31.13085357943956 5.1044245516689433 0 0.87461971476443456 0.48480960649040278 0.5 0 0 1 I I #
face $-1 $-1 $175 $24 $-1 $314 reversed single #
loop $-1 $-1 $248 $160 #
plane-surface $-1 0 32.294315807508717 0 0 -1 0 0 0 -1 forward_v I I I I #
coedge $-1 $315 $246 $249 $316 forward $161 $-1 #
coedge $-1 $252 $163 $164 $240 reversed $102 $-1 #
coedge $-1 $246 $315 $163 $238 reversed $161 $-1 #
edge $-1 $253 -7.203366050414127 $317 7.203366050414127 $237 $318 forward 7 unknown #
coedge $-1 $165 $164 $315 $319 forward $65 $-1 #
edge $-1 $244 -52.831202124088257 $317 52.831202124088257 $236 $320 forward 7 unknown #
coedge $-1 $249 $248 $165 $242 reversed $233 $-1 #
edge $-1 $321 -52.831202124088257 $243 52.831202124088257 $241 $322 forward 7 unknown #
vertex $-1 $167 $323 #
vertex $-1 $255 $324 #
straight-curve $-1 52.831202124088257 0 -7.203366050414127 0 -1 0 I I #
coedge $-1 $235 $237 $168 $247 reversed $161 $-1 #
edge $-1 $250 -32.294315807508717 $253 32.294315807508717 $246 $325 forward 7 unknown #
coedge $-1 $241 $169 $174 $256 forward $233 $-1 #
coedge $-1 $169 $241 $235 $316 reversed $233 $-1 #
vertex $-1 $170 $326 #
straight-curve $-1 0 32.294315807508717 7.203366050414127 -1 0 0 I I #
coedge $-1 $171 $236 $173 $255 reversed $102 $-1 #
vertex $-1 $247 $327 #
straight-curve $-1 0 -32.294315807508717 7.203366050414127 1 0 0 I I #
edge $-1 $176 -7.203366050414127 $244 7.203366050414127 $173 $328 forward 7 unknown #
edge $-1 $177 -7.203366050414127 $243 7.203366050414127 $174 $329 forward 7 unknown #
point $-1 52.831202124088257 -32.294315807508717 7.203366050414127 #
point $-1 52.831202124088257 32.294315807508717 7.203366050414127 #
loop $-1 $-1 $188 $179 #
plane-surface $-1 52.831202124088257 0 0 -1 0 0 0 0 1 forward_v I I I I #
coedge $-1 $330 $182 $187 $267 forward $110 $-1 #
coedge $-1 $182 $330 $264 $331 reversed $110 $-1 #
edge $-1 $265 32.821791794621419 $272 35.982014097455576 $182 $332 forward 7 unknown #
coedge $-1 $191 $185 $262 $331 forward $180 $-1 #
vertex $-1 $331 $333 #
straight-curve $-1 39.867105203438086 -52.84679511180336 7.2033660504141253 0 -1 0 I I #
edge $-1 $272 16.692528371556502 $270 29.656625292206666 $261 $334 forward 7 unknown #
coedge $-1 $269 $188 $191 $274 reversed $259 $-1 #
coedge $-1 $188 $268 $330 $335 forward $259 $-1 #
vertex $-1 $267 $336 #
straight-curve $-1 52.831202124088257 -24.949143390909619 11.136294460349941 0 0.71933979245794832 0.69465837861970381 I I #
vertex $-1 $267 $337 #
straight-curve $-1 39.867105203438086 -32.294315807508724 4.0431437475799612 0 0.71933979245794832 0.69465837861970381 I I #
edge $-1 $338 -32.294315807508717 $192 -29.021809888903473 $268 $339 forward 7 unknown #
point $-1 52.83120212408825 -29.021809888903473 7.203366050414127 #
point $-1 39.867105203438086 -29.021809888903473 7.203366050414127 #
edge $-1 $340 1 $340 0 $195 $-1 forward 7 unknown #
vertex $-1 $196 $341 #
ellipse-curve $-1 43.571132895052422 -29.019646815818469 3.9266254693782159 0 -0.69465837861970381 0.71933979245794832 1 0 0 1 I I #
point $-1 44.571132895052422 -30.65806284820609 5.6232548989970432 #
edge $-1 $342 1 $342 0 $199 $-1 forward 7 unknown #
vertex $-1 $200 $343 #
ellipse-curve $-1 49.127174432473929 -29.019646815818469 3.9266254693782159 0 -0.69465837861970381 0.71933979245794832 1 0 0 1 I I #
point $-1 50.127174432473929 -30.65806284820609 5.6232548989970432 #
plane-surface $-1 0 32.294315807508717 0 0 -1 0 0 0 -1 forward_v I I I I #
coedge $-1 $344 $206 $211 $292 forward $132 $-1 #
coedge $-1 $206 $344 $289 $345 forward $132 $-1 #
edge $-1 $290 14.403458490162798 $297 16.730382946301106 $206 $346 forward 7 unknown #
coedge $-1 $215 $209 $287 $345 reversed $216 $-1 #
vertex $-1 $288 $347 #
straight-curve $-1 40.21472345283393 32.294315807508717 55.361061118731882 0 0 1 I I #
edge $-1 $297 16.953242058603383 $295 29.56972072985771 $286 $348 forward 7 unknown #
coedge $-1 $294 $212 $215 $299 reversed $204 $-1 #
coedge $-1 $212 $293 $344 $349 reversed $204 $-1 #
vertex $-1 $349 $350 #
straight-curve $-1 52.831202124088257 13.479686083135931 36.947974832436621 0 0.48480960649040278 -0.87461971476443456 I I #
vertex $-1 $292 $351 #
straight-curve $-1 40.21472345283393 0.98112673047850762 59.495973613075449 0 0.48480960649040278 -0.87461971476443456 I I #
edge $-1 $352 -7.203366050414127 $217 -3.0054830529237271 $293 $353 forward 7 unknown #
point $-1 52.831202124088257 32.294315807508717 3.0054830529237271 #
point $-1 40.21472345283393 32.294315807508717 3.0054830529237222 #
edge $-1 $354 1 $354 0 $220 $-1 forward 7 unknown #
vertex $-1 $221 $355 #
ellipse-curve $-1 42.738019187084795 30.256233864675139 4.6196149451785491 0 0.87461971476443456 0.48480960649040278 0.5 0 0 1 I I #
point $-1 43.238019187084795 31.130853579439574 5.1044245516689521 #
edge $-1 $356 1 $356 0 $224 $-1 forward 7 unknown #
vertex $-1 $225 $357 #
ellipse-curve $-1 46.522962788461093 30.256233864675139 4.6196149451785491 0 0.87461971476443456 0.48480960649040278 0.5 0 0 1 I I #
point $-1 47.022962788461093 31.130853579439574 5.1044245516689521 #
edge $-1 $358 1 $358 0 $228 $-1 forward 7 unknown #
vertex $-1 $229 $359 #
ellipse-curve $-1 50.307906389837392 30.256233864675139 4.6196149451785491 0 0.87461971476443456 0.48480960649040278 0.5 0 0 1 I I #
point $-1 50.807906389837392 31.130853579439574 5.1044245516689521 #
plane-surface $-1 52.831202124088257 0 0 -1 0 0 0 0 1 forward_v I I I I #
coedge $-1 $237 $235 $239 $319 reversed $161 $-1 #
edge $-1 $250 -7.203366050414127 $321 7.203366050414127 $249 $360 forward 7 unknown #
vertex $-1 $319 $361 #
straight-curve $-1 -52.831202124088257 -32.294315807508717 0 0 0 -1 I I #
edge $-1 $317 -32.294315807508717 $321 32.294315807508717 $315 $362 forward 7 unknown #
straight-curve $-1 0 -32.294315807508717 -7.203366050414127 -1 0 0 I I #
vertex $-1 $242 $363 #
straight-curve $-1 0 32.294315807508717 -7.203366050414127 1 0 0 I I #
point $-1 52.831202124088257 32.294315807508717 -7.203366050414127 #
point $-1 52.831202124088257 -32.294315807508717 -7.203366050414127 #
straight-curve $-1 -52.831202124088257 0 7.203366050414127 0 -1 0 I I #
point $-1 -52.831202124088257 32.294315807508717 7.203366050414127 #
point $-1 -52.831202124088257 -32.294315807508717 7.203366050414127 #
straight-curve $-1 52.831202124088257 -32.294315807508717 0 0 0 -1 I I #
straight-curve $-1 52.831202124088257 32.294315807508717 0 0 0 -1 I I #
coedge $-1 $262 $261 $269 $335 reversed $110 $-1 #
edge $-1 $265 39.867105203438086 $338 52.831202124088257 $262 $364 forward 7 unknown #
straight-curve $-1 39.867105203438086 -32.294315807508717 40.025157845035544 0 0 -1 I I #
point $-1 39.867105203438086 -32.294315807508717 7.203366050414127 #
straight-curve $-1 23.174576831881584 -32.294315807508717 4.0431437475799683 1 0 0 I I #
edge $-1 $338 -7.203366050414127 $270 -4.0431437475799683 $269 $365 forward 7 unknown #
point $-1 52.83120212408825 -32.294315807508717 4.0431437475799683 #
point $-1 39.867105203438086 -32.294315807508717 4.0431437475799683 #
vertex $-1 $274 $366 #
straight-curve $-1 52.831202124088257 0 7.203366050414127 0 1 0 I I #
vertex $-1 $277 $367 #
point $-1 44.571132895052422 -29.019646815818469 3.9266254693782159 #
vertex $-1 $281 $368 #
point $-1 50.127174432473929 -29.019646815818469 3.9266254693782159 #
coedge $-1 $287 $286 $294 $349 forward $132 $-1 #
edge $-1 $352 -52.831202124088257 $290 -40.21472345283393 $289 $369 forward 7 unknown #
straight-curve $-1 40.21472345283393 46.697774297671515 7.2033660504141253 0 -1 0 I I #
point $-1 40.21472345283393 32.294315807508717 7.203366050414127 #
straight-curve $-1 23.261481394230547 29.967391351370413 7.2033660504141253 1 0 0 I I #
edge $-1 $295 29.967391351370409 $352 32.294315807508717 $294 $370 forward 7 unknown #
point $-1 52.831202124088257 29.967391351370409 7.2033660504141253 #
point $-1 40.21472345283393 29.967391351370409 7.2033660504141253 #
vertex $-1 $349 $371 #
straight-curve $-1 52.831202124088257 32.294315807508717 0 0 0 -1 I I #
vertex $-1 $302 $372 #
point $-1 43.238019187084795 30.256233864675139 4.6196149451785491 #
vertex $-1 $306 $373 #
point $-1 47.022962788461093 30.256233864675139 4.6196149451785491 #
vertex $-1 $310 $374 #
point $-1 50.807906389837392 30.256233864675139 4.6196149451785491 #
straight-curve $-1 -52.831202124088257 32.294315807508717 0 0 0 -1 I I #
point $-1 -52.831202124088257 -32.294315807508717 -7.203366050414127 #
straight-curve $-1 -52.831202124088257 0 -7.203366050414127 0 1 0 I I #
point $-1 -52.831202124088257 32.294315807508717 -7.203366050414127 #
straight-curve $-1 0 -32.294315807508717 7.203366050414127 1 0 0 I I #
straight-curve $-1 52.831202124088257 -32.294315807508717 0 0 0 -1 I I #
point $-1 52.831202124088257 -32.294315807508717 7.203366050414127 #
point $-1 43.571132895052422 -28.324988437198762 3.207285676920268 #
point $-1 49.127174432473929 -28.324988437198762 3.207285676920268 #
straight-curve $-1 0 32.294315807508717 7.203366050414127 -1 0 0 I I #
straight-curve $-1 52.831202124088257 0 7.203366050414127 0 1 0 I I #
point $-1 52.831202124088257 32.294315807508717 7.203366050414127 #
point $-1 42.738019187084795 29.818924007292921 4.3772101419333485 #
point $-1 46.522962788461093 29.818924007292921 4.3772101419333485 #
point $-1 50.307906389837392 29.818924007292921 4.3772101419333485 #
End-of-ACIS-data 