500 0 4 0           
7 Unknown 11 ACIS 5.0 NT 24 Fri Mar 26 03:12:22 1999 
-1 9.9999999999999995e-007 1e-010 
body $-1 $4 $-1 $5 #
body $-1 $6 $-1 $7 #
body $-1 $8 $-1 $9 #
body $-1 $10 $-1 $11 #
lump $-1 $-1 $12 $0 #
transform $-1 1 0 0 0 1 0 0 0 1 76.945707571642203 45.298330443059633 15.146262031929988 1 rotate no_reflect no_shear #
lump $-1 $-1 $13 $1 #
transform $-1 1 0 0 0 1 0 0 0 1 76.945707571642203 45.298330443059633 15.146262031929988 1 rotate no_reflect no_shear #
lump $-1 $-1 $14 $2 #
transform $-1 1 0 0 0 1 0 0 0 1 76.945707571642203 45.298330443059633 15.146262031929988 1 rotate no_reflect no_shear #
lump $-1 $-1 $15 $3 #
transform $-1 1 0 0 0 1 0 0 0 1 76.945707571642203 45.298330443059633 15.146262031929988 1 rotate no_reflect no_shear #
shell $-1 $-1 $-1 $16 $-1 $4 #
shell $-1 $-1 $-1 $17 $-1 $6 #
shell $-1 $-1 $-1 $18 $-1 $8 #
shell $-1 $-1 $-1 $19 $-1 $10 #
face $-1 $20 $21 $12 $-1 $22 forward single #
face $-1 $23 $24 $13 $-1 $25 reversed single #
face $-1 $26 $27 $14 $-1 $28 forward single #
face $-1 $29 $30 $15 $-1 $31 reversed single #
face $-1 $32 $33 $12 $-1 $34 reversed single #
loop $-1 $-1 $35 $16 #
plane-surface $-1 0 0 15.146262031929988 0 0 1 1 0 0 forward_v I I I I #
face $-1 $36 $37 $13 $-1 $38 forward single #
loop $-1 $-1 $39 $17 #
plane-surface $-1 0 -35.394236525428489 -7.2518270595944232 0 0 1 1 0 0 forward_v I I I I #
face $-1 $40 $41 $14 $-1 $42 forward single #
loop $-1 $-1 $43 $18 #
plane-surface $-1 -32.601047380577981 53.132850762454332 186.36752695233974 1 0 0 0 -0.54463904215088732 -0.83867056331134215 forward_v I I I I #
face $-1 $44 $45 $15 $-1 $46 reversed single #
loop $-1 $47 $48 $19 #
cone-surface $-1 -15.671207030904391 38.916684968610113 10.245652025323642 0 -0.54463904215088732 -0.83867056331134215 2 0 0 1 I I 0 1 2 forward I I I I #
face $-1 $49 $50 $12 $-1 $51 reversed single #
loop $-1 $-1 $52 $20 #
plane-surface $-1 0 0 -15.146262031929988 0 0 1 1 0 0 forward_v I I I I #
coedge $-1 $53 $54 $55 $56 forward $21 $-1 #
face $-1 $57 $58 $13 $-1 $59 reversed single #
loop $-1 $-1 $60 $23 #
plane-surface $-1 0 -25.490142607797345 -11.199044545762206 0 -1 0 0 0 -1 forward_v I I I I #
coedge $-1 $61 $62 $63 $64 reversed $24 $-1 #
face $-1 $65 $66 $14 $-1 $67 forward single #
loop $-1 $-1 $68 $26 #
plane-surface $-1 -15.671207030904391 -30.682422176428638 57.303327125341809 0 0.54463904215088732 0.83867056331134215 1 0 0 forward_v I I I I #
coedge $-1 $69 $70 $71 $72 reversed $27 $-1 #
face $-1 $73 $74 $15 $-1 $75 forward single #
loop $-1 $76 $77 $29 #
cone-surface $-1 -15.671207030904391 37.522683609069468 8.0990782122424232 0 -0.54463904215088732 -0.83867056331134215 1 0 0 1 I I -0.70710678118654746 0.70710678118654746 1 forward I I I I #
loop $-1 $-1 $78 $19 #
coedge $-1 $48 $48 $79 $80 reversed $30 $-1 #
face $-1 $81 $82 $12 $-1 $83 reversed single #
loop $-1 $-1 $84 $32 #
plane-surface $-1 0 -45.298330443059633 0 0 1 0 0 0 1 forward_v I I I I #
coedge $-1 $85 $86 $87 $88 forward $33 $-1 #
coedge $-1 $89 $35 $90 $91 forward $21 $-1 #
coedge $-1 $35 $89 $92 $93 forward $21 $-1 #
coedge $-1 $94 $95 $35 $56 reversed $96 $-1 #
edge $-1 $97 -45.298330443059633 $98 45.298330443059633 $55 $99 forward 7 unknown #
face $-1 $100 $101 $13 $-1 $102 reversed single #
loop $-1 $-1 $103 $36 #
plane-surface $-1 0 -45.298330443059633 0 0 1 0 0 0 1 forward_v I I I I #
coedge $-1 $104 $105 $106 $107 reversed $37 $-1 #
coedge $-1 $108 $39 $103 $109 reversed $24 $-1 #
coedge $-1 $39 $108 $104 $110 reversed $24 $-1 #
coedge $-1 $106 $111 $39 $64 forward $112 $-1 #
edge $-1 $113 -27.601212180345389 $114 -7.7930243450831007 $63 $115 forward 7 unknown #
face $-1 $116 $117 $14 $-1 $118 forward single #
loop $-1 $-1 $119 $40 #
plane-surface $-1 1.2586333187691991 53.132850762454332 186.36752695233974 -1 0 0 0 0.54463904215088732 0.83867056331134215 forward_v I I I I #
coedge $-1 $120 $121 $122 $123 reversed $41 $-1 #
coedge $-1 $70 $43 $121 $124 forward $27 $-1 #
coedge $-1 $43 $69 $125 $126 reversed $27 $-1 #
coedge $-1 $127 $122 $43 $72 forward $117 $-1 #
edge $-1 $128 7.6673387477129928 $129 18.731905061832467 $71 $130 forward 7 unknown #
face $-1 $131 $132 $15 $-1 $133 forward single #
loop $-1 $-1 $134 $44 #
plane-surface $-1 -32.601047380577981 53.132850762454332 186.36752695233974 1 0 0 0 -0.54463904215088732 -0.83867056331134215 forward_v I I I I #
loop $-1 $-1 $135 $29 #
coedge $-1 $77 $77 $78 $136 forward $45 $-1 #
coedge $-1 $78 $78 $77 $136 reversed $47 $-1 #
coedge $-1 $79 $79 $48 $80 forward $132 $-1 #
edge $-1 $137 -1.8578100553621228e-015 $137 6.2831853071795987 $79 $138 forward 7 unknown #
face $-1 $139 $140 $12 $-1 $141 reversed single #
loop $-1 $-1 $142 $49 #
plane-surface $-1 -76.945707571642203 0 0 1 0 0 0 0 -1 forward_v I I I I #
coedge $-1 $143 $92 $144 $145 forward $50 $-1 #
coedge $-1 $146 $52 $143 $147 forward $33 $-1 #
coedge $-1 $52 $146 $148 $149 forward $33 $-1 #
coedge $-1 $95 $94 $52 $88 reversed $96 $-1 #
edge $-1 $150 -45.298330443059633 $151 45.298330443059633 $87 $152 forward 7 unknown #
coedge $-1 $54 $53 $153 $154 forward $21 $-1 #
coedge $-1 $155 $156 $53 $91 reversed $140 $-1 #
edge $-1 $98 -76.945707571642203 $157 76.945707571642203 $90 $158 forward 7 unknown #
coedge $-1 $84 $159 $54 $93 reversed $50 $-1 #
edge $-1 $160 -76.945707571642203 $97 76.945707571642203 $92 $161 forward 7 unknown #
coedge $-1 $87 $55 $159 $162 forward $96 $-1 #
coedge $-1 $55 $87 $155 $163 reversed $96 $-1 #
loop $-1 $-1 $94 $139 #
vertex $-1 $56 $164 #
vertex $-1 $56 $165 #
straight-curve $-1 76.945707571642203 0 15.146262031929988 0 1 0 I I #
face $-1 $166 $167 $13 $-1 $168 forward single #
loop $-1 $-1 $169 $57 #
plane-surface $-1 0 0 -15.146262031929988 0 0 1 1 0 0 forward_v I I I I #
coedge $-1 $170 $171 $61 $109 forward $58 $-1 #
coedge $-1 $172 $60 $62 $110 forward $37 $-1 #
coedge $-1 $60 $172 $169 $173 reversed $37 $-1 #
coedge $-1 $174 $63 $60 $107 forward $112 $-1 #
edge $-1 $114 1.6523047867133203 $175 9.5467397590488865 $106 $176 forward 7 unknown #
coedge $-1 $62 $61 $177 $178 reversed $24 $-1 #
edge $-1 $179 -76.945707571642203 $113 76.945707571642203 $103 $180 forward 7 unknown #
edge $-1 $114 -76.945707571642203 $181 76.945707571642203 $104 $182 forward 7 unknown #
coedge $-1 $63 $183 $170 $184 forward $112 $-1 #
loop $-1 $-1 $106 $185 #
vertex $-1 $109 $186 #
vertex $-1 $64 $187 #
straight-curve $-1 76.945707571642203 -17.697118262714245 -7.2518270595944232 0 1 0 I I #
face $-1 $188 $189 $14 $-1 $190 reversed single #
loop $-1 $-1 $191 $65 #
plane-surface $-1 0 0 15.146262031929988 0 0 1 1 0 0 forward_v I I I I #
coedge $-1 $192 $193 $191 $194 reversed $66 $-1 #
coedge $-1 $195 $68 $193 $196 reversed $41 $-1 #
coedge $-1 $68 $195 $69 $124 reversed $41 $-1 #
coedge $-1 $71 $191 $68 $123 forward $117 $-1 #
edge $-1 $197 -9.0942368342213946 $128 24.765443865125786 $122 $198 forward 7 unknown #
edge $-1 $128 77.403678089116113 $199 90.596660886119253 $69 $200 forward 7 unknown #
coedge $-1 $201 $202 $70 $126 forward $203 $-1 #
edge $-1 $129 78.037501444239879 $199 85.22291495791282 $125 $204 forward 7 unknown #
coedge $-1 $205 $71 $202 $206 forward $117 $-1 #
vertex $-1 $123 $207 #
vertex $-1 $206 $208 #
straight-curve $-1 -32.601047380577981 26.566425381227166 15.146262031929993 0 1 0 I I #
face $-1 $209 $210 $15 $-1 $211 forward single #
loop $-1 $212 $79 $73 #
plane-surface $-1 -15.671207030904391 -30.682422176428638 57.303327125341809 0 0.54463904215088732 0.83867056331134215 1 0 0 forward_v I I I I #
coedge $-1 $213 $214 $215 $216 reversed $74 $-1 #
coedge $-1 $135 $135 $-1 $217 forward $76 $-1 #
edge $-1 $218 0 $218 6.2831853071796004 $77 $219 forward 7 unknown #
vertex $-1 $80 $220 #
ellipse-curve $-1 -15.671207030904391 39.766047285999889 11.553555275093537 0 -0.54463904215088732 -0.83867056331134215 2 0 0 1 I I #
face $-1 $-1 $96 $12 $-1 $221 reversed single #
loop $-1 $-1 $155 $81 #
plane-surface $-1 0 45.298330443059633 0 0 -1 0 0 0 -1 forward_v I I I I #
coedge $-1 $222 $153 $156 $223 forward $82 $-1 #
coedge $-1 $159 $84 $85 $147 reversed $50 $-1 #
coedge $-1 $153 $222 $84 $145 reversed $82 $-1 #
edge $-1 $160 -15.146262031929988 $224 15.146262031929988 $144 $225 forward 7 unknown #
coedge $-1 $86 $85 $222 $226 forward $33 $-1 #
edge $-1 $151 -76.945707571642203 $224 76.945707571642203 $143 $227 forward 7 unknown #
coedge $-1 $156 $155 $86 $149 reversed $140 $-1 #
edge $-1 $228 -76.945707571642203 $150 76.945707571642203 $148 $229 forward 7 unknown #
vertex $-1 $88 $230 #
vertex $-1 $162 $231 #
straight-curve $-1 76.945707571642203 0 -15.146262031929988 0 -1 0 I I #
coedge $-1 $142 $144 $89 $154 reversed $82 $-1 #
edge $-1 $157 -45.298330443059633 $160 45.298330443059633 $153 $232 forward 7 unknown #
coedge $-1 $148 $90 $95 $163 forward $140 $-1 #
coedge $-1 $90 $148 $142 $223 reversed $140 $-1 #
vertex $-1 $91 $233 #
straight-curve $-1 0 45.298330443059633 15.146262031929988 -1 0 0 I I #
coedge $-1 $92 $143 $94 $162 reversed $50 $-1 #
vertex $-1 $154 $234 #
straight-curve $-1 0 -45.298330443059633 15.146262031929988 1 0 0 I I #
edge $-1 $97 -15.146262031929988 $151 15.146262031929988 $94 $235 forward 7 unknown #
edge $-1 $98 -15.146262031929988 $150 15.146262031929988 $95 $236 forward 7 unknown #
point $-1 76.945707571642203 -45.298330443059633 15.146262031929988 #
point $-1 76.945707571642203 45.298330443059633 15.146262031929988 #
face $-1 $237 $238 $13 $-1 $239 reversed single #
loop $-1 $-1 $240 $100 #
plane-surface $-1 0 0 15.146262031929988 0 0 1 1 0 0 forward_v I I I I #
coedge $-1 $241 $242 $105 $173 forward $101 $-1 #
coedge $-1 $243 $103 $111 $184 reversed $58 $-1 #
coedge $-1 $103 $243 $244 $245 forward $58 $-1 #
coedge $-1 $105 $104 $246 $247 reversed $37 $-1 #
edge $-1 $175 -76.945707571642203 $248 76.945707571642203 $169 $249 forward 7 unknown #
coedge $-1 $250 $106 $242 $251 reversed $112 $-1 #
vertex $-1 $173 $252 #
straight-curve $-1 76.945707571642203 -25.490142607797345 -5.5995222728811029 0 0 -1 I I #
coedge $-1 $244 $246 $108 $178 forward $238 $-1 #
edge $-1 $181 7.7930243450831007 $179 27.601212180345389 $177 $253 forward 7 unknown #
vertex $-1 $109 $254 #
straight-curve $-1 0 -45.298330443059633 -7.2518270595944232 1 0 0 I I #
vertex $-1 $178 $255 #
straight-curve $-1 0 -25.490142607797345 -7.2518270595944232 -1 0 0 I I #
coedge $-1 $111 $250 $240 $256 reversed $112 $-1 #
edge $-1 $257 -15.146262031929988 $113 7.2518270595944232 $111 $258 forward 7 unknown #
face $-1 $-1 $112 $13 $-1 $259 reversed single #
point $-1 76.945707571642203 -45.298330443059633 -7.2518270595944232 #
point $-1 76.945707571642203 -25.490142607797345 -7.2518270595944232 #
face $-1 $260 $261 $14 $-1 $262 forward single #
loop $-1 $-1 $263 $116 #
plane-surface $-1 0 -35.394236525428489 -7.2518270595944232 0 0 1 1 0 0 forward_v I I I I #
coedge $-1 $122 $264 $119 $194 forward $117 $-1 #
coedge $-1 $193 $119 $265 $266 reversed $66 $-1 #
coedge $-1 $119 $192 $120 $196 forward $66 $-1 #
edge $-1 $267 -18.731905061832467 $197 -7.6673387477129928 $191 $268 forward 7 unknown #
coedge $-1 $121 $120 $201 $269 reversed $41 $-1 #
edge $-1 $270 -90.596660886119253 $197 -77.403678089116113 $193 $271 forward 7 unknown #
vertex $-1 $123 $272 #
straight-curve $-1 -7.8356035154521955 34.233764128940173 15.146262031929982 -1 0 0 I I #
vertex $-1 $269 $273 #
straight-curve $-1 -32.601047380577981 -30.682422176428638 57.303327125341809 0 0.83867056331134215 -0.54463904215088732 I I #
coedge $-1 $265 $125 $195 $269 forward $203 $-1 #
coedge $-1 $125 $274 $127 $206 reversed $203 $-1 #
loop $-1 $-1 $265 $275 #
straight-curve $-1 -32.601047380577981 45.298330443059633 93.183763476169872 0 0 -1 I I #
coedge $-1 $276 $127 $277 $278 forward $117 $-1 #
edge $-1 $129 32.601047380577981 $279 76.945707571642203 $202 $280 forward 7 unknown #
point $-1 -32.601047380577981 34.233764128940159 15.146262031929986 #
point $-1 -32.601047380577981 45.298330443059633 15.146262031929988 #
face $-1 $281 $282 $15 $-1 $283 forward single #
loop $-1 $-1 $284 $131 #
plane-surface $-1 1.2586333187691991 53.132850762454332 186.36752695233974 -1 0 0 0 0.54463904215088732 0.83867056331134215 forward_v I I I I #
loop $-1 $-1 $285 $73 #
coedge $-1 $214 $134 $286 $287 forward $74 $-1 #
coedge $-1 $134 $213 $288 $289 reversed $74 $-1 #
coedge $-1 $290 $291 $134 $216 forward $282 $-1 #
edge $-1 $292 7.6673387477129928 $293 18.731905061832467 $215 $294 forward 7 unknown #
edge $-1 $295 1 $295 0 $135 $-1 forward 7 unknown #
vertex $-1 $136 $296 #
ellipse-curve $-1 -15.671207030904391 38.067322651220351 8.9377487755537661 0 0.54463904215088732 0.83867056331134215 2 0 0 1 I I #
point $-1 -13.671207030904391 39.766047285999882 11.553555275093519 #
plane-surface $-1 76.945707571642203 0 0 -1 0 0 0 0 1 forward_v I I I I #
coedge $-1 $144 $142 $146 $226 reversed $82 $-1 #
edge $-1 $157 -15.146262031929988 $228 15.146262031929988 $156 $297 forward 7 unknown #
vertex $-1 $226 $298 #
straight-curve $-1 -76.945707571642203 -45.298330443059633 0 0 0 -1 I I #
edge $-1 $224 -45.298330443059633 $228 45.298330443059633 $222 $299 forward 7 unknown #
straight-curve $-1 0 -45.298330443059633 -15.146262031929988 -1 0 0 I I #
vertex $-1 $149 $300 #
straight-curve $-1 0 45.298330443059633 -15.146262031929988 1 0 0 I I #
point $-1 76.945707571642203 45.298330443059633 -15.146262031929988 #
point $-1 76.945707571642203 -45.298330443059633 -15.146262031929988 #
straight-curve $-1 -76.945707571642203 0 15.146262031929988 0 -1 0 I I #
point $-1 -76.945707571642203 45.298330443059633 15.146262031929988 #
point $-1 -76.945707571642203 -45.298330443059633 15.146262031929988 #
straight-curve $-1 76.945707571642203 -45.298330443059633 0 0 0 -1 I I #
straight-curve $-1 76.945707571642203 45.298330443059633 0 0 0 -1 I I #
face $-1 $185 $301 $13 $-1 $302 reversed single #
loop $-1 $-1 $177 $166 #
plane-surface $-1 -76.945707571642203 0 0 1 0 0 0 0 -1 forward_v I I I I #
coedge $-1 $303 $304 $183 $256 forward $167 $-1 #
coedge $-1 $305 $169 $306 $307 forward $101 $-1 #
coedge $-1 $169 $305 $174 $251 forward $101 $-1 #
coedge $-1 $171 $170 $304 $308 reversed $58 $-1 #
coedge $-1 $309 $177 $171 $245 reversed $238 $-1 #
edge $-1 $310 -15.146262031929988 $179 7.2518270595944232 $244 $311 forward 7 unknown #
coedge $-1 $177 $306 $172 $247 forward $238 $-1 #
edge $-1 $248 -9.5467397590488865 $181 -1.6523047867133203 $246 $312 forward 7 unknown #
vertex $-1 $307 $313 #
straight-curve $-1 0 -25.490142607797345 -15.146262031929988 -1 0 0 I I #
coedge $-1 $183 $174 $314 $315 reversed $112 $-1 #
edge $-1 $316 -45.298330443059633 $175 25.490142607797345 $174 $317 forward 7 unknown #
point $-1 76.945707571642203 -25.490142607797345 -15.146262031929989 #
straight-curve $-1 -76.945707571642203 -17.697118262714245 -7.2518270595944232 0 -1 0 I I #
point $-1 -76.945707571642203 -45.298330443059633 -7.2518270595944232 #
point $-1 -76.945707571642203 -25.490142607797345 -7.2518270595944232 #
edge $-1 $257 -45.298330443059633 $318 45.298330443059633 $183 $319 forward 7 unknown #
vertex $-1 $256 $320 #
straight-curve $-1 76.945707571642203 -45.298330443059633 0 0 0 -1 I I #
plane-surface $-1 76.945707571642203 0 0 -1 0 0 0 0 1 forward_v I I I I #
face $-1 $321 $322 $14 $-1 $323 reversed single #
loop $-1 $-1 $324 $188 #
plane-surface $-1 0 -25.490142607797345 -11.199044545762206 0 -1 0 0 0 -1 forward_v I I I I #
coedge $-1 $325 $326 $327 $328 reversed $189 $-1 #
coedge $-1 $191 $329 $330 $331 forward $117 $-1 #
coedge $-1 $330 $201 $192 $266 forward $203 $-1 #
edge $-1 $270 -85.22291495791282 $267 -78.037501444239879 $265 $332 forward 7 unknown #
vertex $-1 $266 $333 #
straight-curve $-1 1.2586333187691991 26.566425381227166 15.146262031929993 0 -1 0 I I #
edge $-1 $199 -24.765443865125786 $270 9.0942368342213946 $201 $334 forward 7 unknown #
vertex $-1 $269 $335 #
straight-curve $-1 1.2586333187691991 -30.682422176428638 57.303327125341809 0 -0.83867056331134215 0.54463904215088732 I I #
point $-1 1.2586333187691991 34.233764128940159 15.146262031929986 #
point $-1 -32.601047380577981 45.298330443059633 7.960848518257059 #
coedge $-1 $202 $336 $337 $338 reversed $203 $-1 #
face $-1 $339 $203 $14 $-1 $340 reversed single #
coedge $-1 $329 $205 $341 $342 forward $117 $-1 #
coedge $-1 $337 $343 $205 $278 reversed $344 $-1 #
edge $-1 $279 -45.298330443059633 $345 45.298330443059633 $277 $346 forward 7 unknown #
vertex $-1 $206 $347 #
straight-curve $-1 0 45.298330443059633 15.146262031929988 -1 0 0 I I #
face $-1 $348 $349 $15 $-1 $350 reversed single #
loop $-1 $-1 $351 $209 #
plane-surface $-1 0 0 15.146262031929988 0 0 1 1 0 0 forward_v I I I I #
coedge $-1 $352 $353 $351 $354 reversed $210 $-1 #
coedge $-1 $355 $286 $291 $356 reversed $212 $-1 #
coedge $-1 $285 $357 $213 $287 reversed $212 $-1 #
edge $-1 $292 77.403678089116113 $358 90.596660886119253 $213 $359 forward 7 unknown #
coedge $-1 $360 $361 $214 $289 forward $362 $-1 #
edge $-1 $293 78.037501444239879 $358 85.22291495791282 $288 $363 forward 7 unknown #
coedge $-1 $364 $215 $361 $365 forward $282 $-1 #
coedge $-1 $215 $351 $285 $356 forward $282 $-1 #
vertex $-1 $356 $366 #
vertex $-1 $365 $367 #
straight-curve $-1 -32.601047380577981 26.566425381227166 15.146262031929993 0 1 0 I I #
vertex $-1 $217 $368 #
point $-1 -13.671207030904391 38.067322651220351 8.9377487755537661 #
straight-curve $-1 -76.945707571642203 45.298330443059633 0 0 0 -1 I I #
point $-1 -76.945707571642203 -45.298330443059633 -15.146262031929988 #
straight-curve $-1 -76.945707571642203 0 -15.146262031929988 0 1 0 I I #
point $-1 -76.945707571642203 45.298330443059633 -15.146262031929988 #
loop $-1 $-1 $314 $237 #
plane-surface $-1 0 45.298330443059633 0 0 -1 0 0 0 -1 forward_v I I I I #
coedge $-1 $369 $240 $370 $371 forward $167 $-1 #
coedge $-1 $240 $369 $243 $308 forward $167 $-1 #
coedge $-1 $242 $241 $372 $373 forward $101 $-1 #
coedge $-1 $246 $374 $241 $307 reversed $238 $-1 #
edge $-1 $248 -25.490142607797345 $375 45.298330443059633 $306 $376 forward 7 unknown #
edge $-1 $310 -76.945707571642203 $257 76.945707571642203 $243 $377 forward 7 unknown #
coedge $-1 $374 $244 $369 $378 reversed $238 $-1 #
vertex $-1 $378 $379 #
straight-curve $-1 -76.945707571642203 -45.298330443059633 0 0 0 -1 I I #
straight-curve $-1 -76.945707571642203 -25.490142607797345 -5.5995222728811029 0 0 1 I I #
point $-1 -76.945707571642203 -25.490142607797345 -15.146262031929989 #
coedge $-1 $372 $370 $250 $315 forward $301 $-1 #
edge $-1 $318 -15.146262031929988 $316 15.146262031929988 $250 $380 forward 7 unknown #
vertex $-1 $251 $381 #
straight-curve $-1 76.945707571642203 0 -15.146262031929988 0 -1 0 I I #
vertex $-1 $256 $382 #
straight-curve $-1 76.945707571642203 0 15.146262031929988 0 1 0 I I #
point $-1 76.945707571642203 -45.298330443059633 15.146262031929988 #
face $-1 $383 $384 $14 $-1 $385 reversed single #
loop $-1 $-1 $386 $260 #
plane-surface $-1 0 -45.298330443059633 0 0 1 0 0 0 1 forward_v I I I I #
coedge $-1 $387 $388 $389 $390 reversed $261 $-1 #
coedge $-1 $391 $263 $386 $392 reversed $189 $-1 #
coedge $-1 $263 $391 $387 $393 reversed $189 $-1 #
coedge $-1 $389 $394 $263 $328 forward $395 $-1 #
edge $-1 $396 -27.601212180345389 $397 -7.7930243450831007 $327 $398 forward 7 unknown #
coedge $-1 $264 $276 $399 $400 forward $117 $-1 #
coedge $-1 $401 $265 $264 $331 reversed $203 $-1 #
edge $-1 $402 -76.945707571642203 $267 -1.2586333187691991 $330 $280 forward 7 unknown #
straight-curve $-1 1.2586333187691991 45.298330443059633 93.183763476169872 0 0 1 I I #
point $-1 1.2586333187691991 45.298330443059633 15.146262031929988 #
straight-curve $-1 -7.8356035154521955 45.298330443059626 7.9608485182570661 1 0 0 I I #
point $-1 1.2586333187691991 45.298330443059633 7.960848518257059 #
coedge $-1 $274 $401 $403 $404 reversed $203 $-1 #
coedge $-1 $405 $277 $274 $338 forward $344 $-1 #
edge $-1 $279 -15.146262031929988 $406 15.146262031929988 $274 $407 forward 7 unknown #
face $-1 $-1 $395 $14 $-1 $408 reversed single #
plane-surface $-1 0 45.298330443059633 0 0 -1 0 0 0 -1 forward_v I I I I #
coedge $-1 $409 $410 $276 $342 reversed $322 $-1 #
edge $-1 $345 -76.945707571642203 $411 76.945707571642203 $341 $412 forward 7 unknown #
coedge $-1 $277 $413 $409 $414 reversed $344 $-1 #
loop $-1 $-1 $413 $383 #
vertex $-1 $278 $415 #
straight-curve $-1 -76.945707571642203 0 15.146262031929988 0 -1 0 I I #
point $-1 -76.945707571642203 45.298330443059633 15.146262031929988 #
face $-1 $416 $417 $15 $-1 $418 forward single #
loop $-1 $-1 $419 $281 #
plane-surface $-1 0 -35.394236525428489 -7.2518270595944232 0 0 1 1 0 0 forward_v I I I I #
coedge $-1 $291 $420 $284 $354 forward $282 $-1 #
coedge $-1 $353 $284 $421 $422 reversed $210 $-1 #
coedge $-1 $284 $352 $355 $423 forward $210 $-1 #
edge $-1 $424 -18.731905061832467 $425 -7.6673387477129928 $351 $426 forward 7 unknown #
coedge $-1 $357 $285 $353 $423 reversed $212 $-1 #
edge $-1 $425 -9.0942368342213946 $292 24.765443865125786 $291 $427 forward 7 unknown #
coedge $-1 $286 $355 $360 $428 reversed $212 $-1 #
vertex $-1 $428 $429 #
straight-curve $-1 -32.601047380577981 -30.682422176428638 57.303327125341809 0 0.83867056331134215 -0.54463904215088732 I I #
coedge $-1 $421 $288 $357 $428 forward $362 $-1 #
coedge $-1 $288 $430 $290 $365 reversed $362 $-1 #
loop $-1 $-1 $421 $431 #
straight-curve $-1 -32.601047380577981 45.298330443059633 93.183763476169872 0 0 -1 I I #
coedge $-1 $432 $290 $433 $434 forward $282 $-1 #
edge $-1 $293 32.601047380577981 $435 76.945707571642203 $361 $436 forward 7 unknown #
point $-1 -32.601047380577981 34.233764128940159 15.146262031929986 #
point $-1 -32.601047380577981 45.298330443059633 15.146262031929988 #
point $-1 -15.671207030904391 36.978044566918584 7.2604076489310811 #
coedge $-1 $304 $303 $309 $378 forward $167 $-1 #
coedge $-1 $314 $437 $303 $371 reversed $301 $-1 #
edge $-1 $318 -76.945707571642203 $438 76.945707571642203 $370 $439 forward 7 unknown #
coedge $-1 $437 $314 $305 $373 reversed $301 $-1 #
edge $-1 $375 -76.945707571642203 $316 76.945707571642203 $372 $440 forward 7 unknown #
coedge $-1 $306 $309 $437 $441 forward $238 $-1 #
vertex $-1 $373 $442 #
straight-curve $-1 -76.945707571642203 0 -15.146262031929988 0 1 0 I I #
straight-curve $-1 0 -45.298330443059633 15.146262031929988 1 0 0 I I #
edge $-1 $438 -45.298330443059633 $310 45.298330443059633 $309 $443 forward 7 unknown #
point $-1 -76.945707571642203 -45.298330443059633 15.146262031929988 #
straight-curve $-1 76.945707571642203 45.298330443059633 0 0 0 -1 I I #
point $-1 76.945707571642203 45.298330443059633 -15.146262031929988 #
point $-1 76.945707571642203 45.298330443059633 15.146262031929988 #
face $-1 $275 $344 $14 $-1 $444 reversed single #
loop $-1 $-1 $445 $321 #
plane-surface $-1 0 0 -15.146262031929988 0 0 1 1 0 0 forward_v I I I I #
coedge $-1 $410 $409 $325 $392 forward $322 $-1 #
coedge $-1 $446 $324 $326 $393 forward $261 $-1 #
coedge $-1 $324 $446 $445 $447 reversed $261 $-1 #
coedge $-1 $448 $327 $324 $390 forward $395 $-1 #
edge $-1 $397 1.6523047867133203 $449 9.5467397590488865 $389 $450 forward 7 unknown #
coedge $-1 $326 $325 $413 $451 reversed $189 $-1 #
edge $-1 $452 -76.945707571642203 $396 76.945707571642203 $386 $453 forward 7 unknown #
edge $-1 $397 -76.945707571642203 $454 76.945707571642203 $387 $455 forward 7 unknown #
coedge $-1 $327 $399 $410 $456 forward $395 $-1 #
loop $-1 $-1 $389 $339 #
vertex $-1 $392 $457 #
vertex $-1 $328 $458 #
straight-curve $-1 76.945707571642203 -17.697118262714245 -7.2518270595944232 0 1 0 I I #
coedge $-1 $394 $459 $329 $400 reversed $395 $-1 #
edge $-1 $411 -45.298330443059633 $402 45.298330443059633 $399 $460 forward 7 unknown #
coedge $-1 $336 $330 $459 $461 forward $203 $-1 #
vertex $-1 $400 $462 #
coedge $-1 $463 $464 $336 $404 forward $384 $-1 #
edge $-1 $406 -76.945707571642203 $465 76.945707571642203 $336 $466 forward 7 unknown #
coedge $-1 $467 $337 $464 $468 reversed $344 $-1 #
vertex $-1 $404 $469 #
straight-curve $-1 -76.945707571642203 45.298330443059633 0 0 0 -1 I I #
plane-surface $-1 76.945707571642203 0 0 -1 0 0 0 0 1 forward_v I I I I #
coedge $-1 $386 $341 $343 $414 forward $322 $-1 #
coedge $-1 $341 $386 $394 $456 reversed $322 $-1 #
vertex $-1 $400 $470 #
straight-curve $-1 0 -45.298330443059633 15.146262031929988 1 0 0 I I #
coedge $-1 $343 $467 $391 $451 forward $344 $-1 #
edge $-1 $345 -15.146262031929988 $452 7.2518270595944232 $343 $471 forward 7 unknown #
point $-1 -76.945707571642203 -45.298330443059633 15.146262031929988 #
face $-1 $472 $473 $15 $-1 $474 reversed single #
loop $-1 $-1 $475 $348 #
plane-surface $-1 0 -25.490142607797345 -11.199044545762206 0 -1 0 0 0 -1 forward_v I I I I #
coedge $-1 $476 $477 $478 $479 reversed $349 $-1 #
coedge $-1 $351 $480 $481 $482 forward $282 $-1 #
coedge $-1 $481 $360 $352 $422 forward $362 $-1 #
edge $-1 $483 -85.22291495791282 $424 -78.037501444239879 $421 $484 forward 7 unknown #
edge $-1 $483 -90.596660886119253 $425 -77.403678089116113 $353 $485 forward 7 unknown #
vertex $-1 $422 $486 #
vertex $-1 $356 $487 #
straight-curve $-1 1.2586333187691991 26.566425381227166 15.146262031929993 0 -1 0 I I #
straight-curve $-1 -7.8356035154521955 34.233764128940173 15.146262031929982 -1 0 0 I I #
edge $-1 $358 -24.765443865125786 $483 9.0942368342213946 $360 $488 forward 7 unknown #
point $-1 -32.601047380577981 45.298330443059633 7.960848518257059 #
coedge $-1 $361 $489 $490 $491 reversed $362 $-1 #
face $-1 $492 $362 $15 $-1 $493 reversed single #
coedge $-1 $480 $364 $494 $495 forward $282 $-1 #
coedge $-1 $490 $496 $364 $434 reversed $497 $-1 #
edge $-1 $435 -45.298330443059633 $498 45.298330443059633 $433 $499 forward 7 unknown #
vertex $-1 $365 $500 #
straight-curve $-1 0 45.298330443059633 15.146262031929988 -1 0 0 I I #
coedge $-1 $370 $372 $374 $441 reversed $301 $-1 #
vertex $-1 $371 $501 #
straight-curve $-1 0 45.298330443059633 15.146262031929988 -1 0 0 I I #
straight-curve $-1 0 45.298330443059633 -15.146262031929988 1 0 0 I I #
edge $-1 $438 -15.146262031929988 $375 15.146262031929988 $437 $502 forward 7 unknown #
point $-1 -76.945707571642203 45.298330443059633 -15.146262031929988 #
straight-curve $-1 -76.945707571642203 0 15.146262031929988 0 -1 0 I I #
plane-surface $-1 -76.945707571642203 0 0 1 0 0 0 0 -1 forward_v I I I I #
coedge $-1 $464 $463 $388 $447 forward $384 $-1 #
coedge $-1 $388 $387 $467 $503 reversed $261 $-1 #
edge $-1 $449 -76.945707571642203 $504 76.945707571642203 $445 $505 forward 7 unknown #
coedge $-1 $459 $389 $463 $506 reversed $395 $-1 #
vertex $-1 $447 $507 #
straight-curve $-1 76.945707571642203 -25.490142607797345 -5.5995222728811029 0 0 -1 I I #
edge $-1 $454 7.7930243450831007 $452 27.601212180345389 $413 $508 forward 7 unknown #
vertex $-1 $392 $509 #
straight-curve $-1 0 -45.298330443059633 -7.2518270595944232 1 0 0 I I #
vertex $-1 $451 $510 #
straight-curve $-1 0 -25.490142607797345 -7.2518270595944232 -1 0 0 I I #
edge $-1 $411 -15.146262031929988 $396 7.2518270595944232 $394 $511 forward 7 unknown #
point $-1 76.945707571642203 -45.298330443059633 -7.2518270595944232 #
point $-1 76.945707571642203 -25.490142607797345 -7.2518270595944232 #
coedge $-1 $399 $448 $401 $461 reversed $395 $-1 #
straight-curve $-1 76.945707571642203 0 15.146262031929988 0 1 0 I I #
edge $-1 $402 -15.146262031929988 $465 15.146262031929988 $459 $512 forward 7 unknown #
point $-1 76.945707571642203 45.298330443059633 15.146262031929988 #
coedge $-1 $445 $403 $448 $506 forward $384 $-1 #
coedge $-1 $403 $445 $405 $468 forward $384 $-1 #
vertex $-1 $506 $513 #
straight-curve $-1 0 45.298330443059633 -15.146262031929988 1 0 0 I I #
coedge $-1 $413 $405 $446 $503 forward $344 $-1 #
edge $-1 $504 -25.490142607797345 $406 45.298330443059633 $405 $514 forward 7 unknown #
point $-1 -76.945707571642203 45.298330443059633 -15.146262031929988 #
point $-1 76.945707571642203 -45.298330443059633 15.146262031929988 #
straight-curve $-1 -76.945707571642203 -45.298330443059633 0 0 0 -1 I I #
face $-1 $515 $516 $15 $-1 $517 reversed single #
loop $-1 $-1 $518 $416 #
plane-surface $-1 0 -45.298330443059633 0 0 1 0 0 0 1 forward_v I I I I #
coedge $-1 $519 $520 $521 $522 reversed $417 $-1 #
coedge $-1 $523 $419 $518 $524 reversed $349 $-1 #
coedge $-1 $419 $523 $519 $525 reversed $349 $-1 #
coedge $-1 $521 $526 $419 $479 forward $527 $-1 #
edge $-1 $528 -27.601212180345389 $529 -7.7930243450831007 $478 $530 forward 7 unknown #
coedge $-1 $420 $432 $531 $532 forward $282 $-1 #
coedge $-1 $533 $421 $420 $482 reversed $362 $-1 #
edge $-1 $534 -76.945707571642203 $424 -1.2586333187691991 $481 $436 forward 7 unknown #
vertex $-1 $428 $535 #
straight-curve $-1 1.2586333187691991 45.298330443059633 93.183763476169872 0 0 1 I I #
straight-curve $-1 1.2586333187691991 -30.682422176428638 57.303327125341809 0 -0.83867056331134215 0.54463904215088732 I I #
point $-1 1.2586333187691991 45.298330443059633 15.146262031929988 #
point $-1 1.2586333187691991 34.233764128940159 15.146262031929986 #
straight-curve $-1 -7.8356035154521955 45.298330443059626 7.9608485182570661 1 0 0 I I #
coedge $-1 $430 $533 $536 $537 reversed $362 $-1 #
coedge $-1 $538 $433 $430 $491 forward $497 $-1 #
edge $-1 $435 -15.146262031929988 $539 15.146262031929988 $430 $540 forward 7 unknown #
face $-1 $-1 $527 $15 $-1 $541 reversed single #
plane-surface $-1 0 45.298330443059633 0 0 -1 0 0 0 -1 forward_v I I I I #
coedge $-1 $542 $543 $432 $495 reversed $473 $-1 #
edge $-1 $498 -76.945707571642203 $544 76.945707571642203 $494 $545 forward 7 unknown #
coedge $-1 $433 $546 $542 $547 reversed $497 $-1 #
loop $-1 $-1 $546 $515 #
vertex $-1 $434 $548 #
straight-curve $-1 -76.945707571642203 0 15.146262031929988 0 -1 0 I I #
point $-1 -76.945707571642203 45.298330443059633 15.146262031929988 #
point $-1 -76.945707571642203 45.298330443059633 15.146262031929988 #
straight-curve $-1 -76.945707571642203 45.298330443059633 0 0 0 -1 I I #
edge $-1 $504 -9.5467397590488865 $454 -1.6523047867133203 $467 $549 forward 7 unknown #
vertex $-1 $468 $550 #
straight-curve $-1 0 -25.490142607797345 -15.146262031929988 -1 0 0 I I #
edge $-1 $465 -45.298330443059633 $449 25.490142607797345 $448 $551 forward 7 unknown #
point $-1 76.945707571642203 -25.490142607797345 -15.146262031929989 #
straight-curve $-1 -76.945707571642203 -17.697118262714245 -7.2518270595944232 0 -1 0 I I #
point $-1 -76.945707571642203 -45.298330443059633 -7.2518270595944232 #
point $-1 -76.945707571642203 -25.490142607797345 -7.2518270595944232 #
straight-curve $-1 76.945707571642203 -45.298330443059633 0 0 0 -1 I I #
straight-curve $-1 76.945707571642203 45.298330443059633 0 0 0 -1 I I #
point $-1 76.945707571642203 45.298330443059633 -15.146262031929988 #
straight-curve $-1 -76.945707571642203 0 -15.146262031929988 0 1 0 I I #
face $-1 $431 $497 $15 $-1 $552 reversed single #
loop $-1 $-1 $553 $472 #
plane-surface $-1 0 0 -15.146262031929988 0 0 1 1 0 0 forward_v I I I I #
coedge $-1 $543 $542 $476 $524 forward $473 $-1 #
coedge $-1 $554 $475 $477 $525 forward $417 $-1 #
coedge $-1 $475 $554 $553 $555 reversed $417 $-1 #
coedge $-1 $556 $478 $475 $522 forward $527 $-1 #
edge $-1 $529 1.6523047867133203 $557 9.5467397590488865 $521 $558 forward 7 unknown #
coedge $-1 $477 $476 $546 $559 reversed $349 $-1 #
edge $-1 $560 -76.945707571642203 $528 76.945707571642203 $518 $561 forward 7 unknown #
edge $-1 $529 -76.945707571642203 $562 76.945707571642203 $519 $563 forward 7 unknown #
coedge $-1 $478 $531 $543 $564 forward $527 $-1 #
loop $-1 $-1 $521 $492 #
vertex $-1 $524 $565 #
vertex $-1 $479 $566 #
straight-curve $-1 76.945707571642203 -17.697118262714245 -7.2518270595944232 0 1 0 I I #
coedge $-1 $526 $567 $480 $532 reversed $527 $-1 #
edge $-1 $544 -45.298330443059633 $534 45.298330443059633 $531 $568 forward 7 unknown #
coedge $-1 $489 $481 $567 $569 forward $362 $-1 #
vertex $-1 $532 $570 #
point $-1 1.2586333187691991 45.298330443059633 7.960848518257059 #
coedge $-1 $571 $572 $489 $537 forward $516 $-1 #
edge $-1 $539 -76.945707571642203 $573 76.945707571642203 $489 $574 forward 7 unknown #
coedge $-1 $575 $490 $572 $576 reversed $497 $-1 #
vertex $-1 $537 $577 #
straight-curve $-1 -76.945707571642203 45.298330443059633 0 0 0 -1 I I #
plane-surface $-1 76.945707571642203 0 0 -1 0 0 0 0 1 forward_v I I I I #
coedge $-1 $518 $494 $496 $547 forward $473 $-1 #
coedge $-1 $494 $518 $526 $564 reversed $473 $-1 #
vertex $-1 $532 $578 #
straight-curve $-1 0 -45.298330443059633 15.146262031929988 1 0 0 I I #
coedge $-1 $496 $575 $523 $559 forward $497 $-1 #
edge $-1 $498 -15.146262031929988 $560 7.2518270595944232 $496 $579 forward 7 unknown #
point $-1 -76.945707571642203 -45.298330443059633 15.146262031929988 #
straight-curve $-1 -76.945707571642203 -25.490142607797345 -5.5995222728811029 0 0 1 I I #
point $-1 -76.945707571642203 -25.490142607797345 -15.146262031929989 #
straight-curve $-1 76.945707571642203 0 -15.146262031929988 0 -1 0 I I #
plane-surface $-1 -76.945707571642203 0 0 1 0 0 0 0 -1 forward_v I I I I #
coedge $-1 $572 $571 $520 $555 forward $516 $-1 #
coedge $-1 $520 $519 $575 $580 reversed $417 $-1 #
edge $-1 $557 -76.945707571642203 $581 76.945707571642203 $553 $582 forward 7 unknown #
coedge $-1 $567 $521 $571 $583 reversed $527 $-1 #
vertex $-1 $555 $584 #
straight-curve $-1 76.945707571642203 -25.490142607797345 -5.5995222728811029 0 0 -1 I I #
edge $-1 $562 7.7930243450831007 $560 27.601212180345389 $546 $585 forward 7 unknown #
vertex $-1 $524 $586 #
straight-curve $-1 0 -45.298330443059633 -7.2518270595944232 1 0 0 I I #
vertex $-1 $559 $587 #
straight-curve $-1 0 -25.490142607797345 -7.2518270595944232 -1 0 0 I I #
edge $-1 $544 -15.146262031929988 $528 7.2518270595944232 $526 $588 forward 7 unknown #
point $-1 76.945707571642203 -45.298330443059633 -7.2518270595944232 #
point $-1 76.945707571642203 -25.490142607797345 -7.2518270595944232 #
coedge $-1 $531 $556 $533 $569 reversed $527 $-1 #
straight-curve $-1 76.945707571642203 0 15.146262031929988 0 1 0 I I #
edge $-1 $534 -15.146262031929988 $573 15.146262031929988 $567 $589 forward 7 unknown #
point $-1 76.945707571642203 45.298330443059633 15.146262031929988 #
coedge $-1 $553 $536 $556 $583 forward $516 $-1 #
coedge $-1 $536 $553 $538 $576 forward $516 $-1 #
vertex $-1 $583 $590 #
straight-curve $-1 0 45.298330443059633 -15.146262031929988 1 0 0 I I #
coedge $-1 $546 $538 $554 $580 forward $497 $-1 #
edge $-1 $581 -25.490142607797345 $539 45.298330443059633 $538 $591 forward 7 unknown #
point $-1 -76.945707571642203 45.298330443059633 -15.146262031929988 #
point $-1 76.945707571642203 -45.298330443059633 15.146262031929988 #
straight-curve $-1 -76.945707571642203 -45.298330443059633 0 0 0 -1 I I #
edge $-1 $581 -9.5467397590488865 $562 -1.6523047867133203 $575 $592 forward 7 unknown #
vertex $-1 $576 $593 #
straight-curve $-1 0 -25.490142607797345 -15.146262031929988 -1 0 0 I I #
edge $-1 $573 -45.298330443059633 $557 25.490142607797345 $556 $594 forward 7 unknown #
point $-1 76.945707571642203 -25.490142607797345 -15.146262031929989 #
straight-curve $-1 -76.945707571642203 -17.697118262714245 -7.2518270595944232 0 -1 0 I I #
point $-1 -76.945707571642203 -45.298330443059633 -7.2518270595944232 #
point $-1 -76.945707571642203 -25.490142607797345 -7.2518270595944232 #
straight-curve $-1 76.945707571642203 -45.298330443059633 0 0 0 -1 I I #
straight-curve $-1 76.945707571642203 45.298330443059633 0 0 0 -1 I I #
point $-1 76.945707571642203 45.298330443059633 -15.146262031929988 #
straight-curve $-1 -76.945707571642203 0 -15.146262031929988 0 1 0 I I #
straight-curve $-1 -76.945707571642203 -25.490142607797345 -5.5995222728811029 0 0 1 I I #
point $-1 -76.945707571642203 -25.490142607797345 -15.146262031929989 #
straight-curve $-1 76.945707571642203 0 -15.146262031929988 0 -1 0 I I #
End-of-ACIS-data 