500 0 9 0           
7 Unknown 11 ACIS 5.0 NT 24 Fri Mar 26 02:14:46 1999 
-1 9.9999999999999995e-007 1e-010 
body $-1 $9 $-1 $10 #
body $-1 $11 $-1 $12 #
body $-1 $13 $-1 $14 #
body $-1 $15 $-1 $16 #
body $-1 $17 $-1 $18 #
body $-1 $19 $-1 $20 #
body $-1 $21 $-1 $22 #
body $-1 $23 $-1 $24 #
body $-1 $25 $-1 $26 #
lump $-1 $-1 $27 $0 #
transform $-1 1 0 0 0 1 0 0 0 1 49.685354167302471 24.520458456356952 8.2500151462737765 1 rotate no_reflect no_shear #
lump $-1 $-1 $28 $1 #
transform $-1 1 0 0 0 1 0 0 0 1 49.685354167302471 24.520458456356952 8.2500151462737765 1 rotate no_reflect no_shear #
lump $-1 $-1 $29 $2 #
transform $-1 1 0 0 0 1 0 0 0 1 49.685354167302471 24.520458456356952 8.2500151462737765 1 rotate no_reflect no_shear #
lump $-1 $-1 $30 $3 #
transform $-1 1 0 0 0 1 0 0 0 1 49.685354167302471 24.520458456356952 8.2500151462737765 1 rotate no_reflect no_shear #
lump $-1 $-1 $31 $4 #
transform $-1 1 0 0 0 1 0 0 0 1 49.685354167302471 24.520458456356952 8.2500151462737765 1 rotate no_reflect no_shear #
lump $-1 $-1 $32 $5 #
transform $-1 1 0 0 0 1 0 0 0 1 49.685354167302471 24.520458456356952 8.2500151462737765 1 rotate no_reflect no_shear #
lump $-1 $-1 $33 $6 #
transform $-1 1 0 0 0 1 0 0 0 1 49.685354167302471 24.520458456356952 8.2500151462737765 1 rotate no_reflect no_shear #
lump $-1 $-1 $34 $7 #
transform $-1 1 0 0 0 1 0 0 0 1 49.685354167302471 24.520458456356952 8.2500151462737765 1 rotate no_reflect no_shear #
lump $-1 $-1 $35 $8 #
transform $-1 1 0 0 0 1 0 0 0 1 49.685354167302471 24.520458456356952 8.2500151462737765 1 rotate no_reflect no_shear #
shell $-1 $-1 $-1 $36 $-1 $9 #
shell $-1 $-1 $-1 $37 $-1 $11 #
shell $-1 $-1 $-1 $38 $-1 $13 #
shell $-1 $-1 $-1 $39 $-1 $15 #
shell $-1 $-1 $-1 $40 $-1 $17 #
shell $-1 $-1 $-1 $41 $-1 $19 #
shell $-1 $-1 $-1 $42 $-1 $21 #
shell $-1 $-1 $-1 $43 $-1 $23 #
shell $-1 $-1 $-1 $44 $-1 $25 #
face $-1 $45 $46 $27 $-1 $47 forward single #
face $-1 $48 $49 $28 $-1 $50 forward single #
face $-1 $51 $52 $29 $-1 $53 forward single #
face $-1 $54 $55 $30 $-1 $56 reversed single #
face $-1 $57 $58 $31 $-1 $59 forward single #
face $-1 $60 $61 $32 $-1 $62 reversed single #
face $-1 $63 $64 $33 $-1 $65 forward single #
face $-1 $66 $67 $34 $-1 $68 reversed single #
face $-1 $69 $70 $35 $-1 $71 forward single #
face $-1 $72 $73 $27 $-1 $74 reversed single #
loop $-1 $-1 $75 $36 #
plane-surface $-1 0 0 8.2500151462737765 0 0 1 1 0 0 forward_v I I I I #
face $-1 $76 $77 $28 $-1 $78 reversed single #
loop $-1 $-1 $79 $37 #
plane-surface $-1 -45.177230866537911 0 -1.322122778368245 0 0 1 1 0 0 forward_v I I I I #
face $-1 $80 $81 $29 $-1 $82 reversed single #
loop $-1 $-1 $83 $38 #
plane-surface $-1 45.610943934288123 0 5.6235100309140957 0 0 1 1 0 0 forward_v I I I I #
face $-1 $84 $85 $30 $-1 $86 reversed single #
loop $-1 $-1 $87 $39 #
plane-surface $-1 -12.359809073045554 47.054406522873109 112.542930714313 -1 0 0 0 0.61566148304635926 0.78801074757464917 forward_v I I I I #
face $-1 $88 $89 $31 $-1 $90 forward single #
loop $-1 $91 $92 $40 #
cone-surface $-1 -20.000151950199303 20.998176858440129 5.0835819526663517 0 -0.61566148304635926 -0.78801074757464917 1 0 0 1 I I 0 1 1 forward I I I I #
face $-1 $93 $94 $32 $-1 $95 reversed single #
loop $-1 $-1 $96 $41 #
plane-surface $-1 28.507920962853461 47.054406522873109 112.542930714313 -1 0 0 0 0.61566148304635926 0.78801074757464917 forward_v I I I I #
face $-1 $97 $98 $33 $-1 $99 forward single #
loop $-1 $100 $101 $42 #
cone-surface $-1 20.867578085699712 20.998176858440129 5.0835819526663517 0 -0.61566148304635926 -0.78801074757464917 1 0 0 1 I I 0 1 1 forward I I I I #
face $-1 $102 $103 $34 $-1 $104 reversed single #
loop $-1 $-1 $105 $43 #
plane-surface $-1 -20.404768827742522 -106.90251007947555 60.715186827953936 1 0 0 0 0.82903758062907751 -0.55919289150049634 forward_v I I I I #
face $-1 $106 $107 $35 $-1 $108 forward single #
loop $-1 $109 $110 $44 #
cone-surface $-1 -14.999447486395546 -23.059702104260271 6.4193076793234987 0 0.82903758062907751 -0.55919289150049634 0.25 0 0 1 I I 0 1 0.25 forward I I I I #
face $-1 $111 $112 $27 $-1 $113 reversed single #
loop $-1 $-1 $114 $45 #
plane-surface $-1 0 0 -8.2500151462737765 0 0 1 1 0 0 forward_v I I I I #
coedge $-1 $115 $116 $117 $118 forward $46 $-1 #
face $-1 $119 $120 $28 $-1 $121 reversed single #
loop $-1 $-1 $122 $48 #
plane-surface $-1 -45.177230866537911 0 -4.7924819436000323 0 0 1 1 0 0 forward_v I I I I #
coedge $-1 $123 $124 $125 $126 forward $49 $-1 #
face $-1 $127 $128 $29 $-1 $129 reversed single #
loop $-1 $-1 $130 $51 #
plane-surface $-1 45.610943934288123 0 2.6235100309140957 0 0 1 1 0 0 forward_v I I I I #
coedge $-1 $131 $132 $133 $134 reversed $52 $-1 #
face $-1 $135 $136 $30 $-1 $137 reversed single #
loop $-1 $-1 $138 $54 #
plane-surface $-1 -20.000151950199303 -14.124311141776985 34.237744552538544 0 0.61566148304635926 0.78801074757464917 1 0 0 forward_v I I I I #
coedge $-1 $139 $140 $141 $142 reversed $55 $-1 #
face $-1 $-1 $143 $31 $-1 $144 forward single #
loop $-1 $145 $146 $57 #
cone-surface $-1 -20.000151950199303 19.859061257319791 3.6255805003565751 0 -0.61566148304635926 -0.78801074757464917 0.5 0 0 1 I I -0.70710678118654746 0.70710678118654746 0.5 forward I I I I #
loop $-1 $-1 $147 $40 #
coedge $-1 $92 $92 $148 $149 reversed $58 $-1 #
face $-1 $150 $151 $32 $-1 $152 reversed single #
loop $-1 $-1 $153 $60 #
plane-surface $-1 20.867578085699712 -14.124311141776985 34.237744552538544 0 0.61566148304635926 0.78801074757464917 1 0 0 forward_v I I I I #
coedge $-1 $154 $155 $156 $157 reversed $61 $-1 #
face $-1 $-1 $158 $33 $-1 $159 forward single #
loop $-1 $160 $161 $63 #
cone-surface $-1 20.867578085699712 19.859061257319791 3.6255805003565751 0 -0.61566148304635926 -0.78801074757464917 0.5 0 0 1 I I -0.70710678118654746 0.70710678118654746 0.5 forward I I I I #
loop $-1 $-1 $162 $42 #
coedge $-1 $101 $101 $163 $164 reversed $64 $-1 #
face $-1 $165 $166 $34 $-1 $167 reversed single #
loop $-1 $-1 $168 $66 #
plane-surface $-1 -14.999447486395546 -24.520458456356963 5.147793103873731 0 -0.82903758062907751 0.55919289150049634 1 0 0 forward_v I I I I #
coedge $-1 $169 $170 $171 $172 reversed $67 $-1 #
face $-1 $-1 $173 $35 $-1 $174 forward single #
loop $-1 $175 $176 $69 #
cone-surface $-1 -14.999447486395546 -22.541553616367096 6.0698121221356889 0 0.82903758062907751 -0.55919289150049634 0.125 0 0 1 I I -0.70710678118654746 0.70710678118654746 0.125 forward I I I I #
loop $-1 $-1 $177 $44 #
coedge $-1 $110 $110 $178 $179 reversed $70 $-1 #
face $-1 $180 $181 $27 $-1 $182 reversed single #
loop $-1 $-1 $183 $72 #
plane-surface $-1 0 -24.520458456356952 0 0 1 0 0 0 1 forward_v I I I I #
coedge $-1 $184 $185 $186 $187 forward $73 $-1 #
coedge $-1 $188 $75 $189 $190 forward $46 $-1 #
coedge $-1 $75 $188 $191 $192 forward $46 $-1 #
coedge $-1 $193 $194 $75 $118 reversed $195 $-1 #
edge $-1 $196 -24.520458456356952 $197 24.520458456356952 $117 $198 forward 7 unknown #
face $-1 $199 $200 $28 $-1 $201 reversed single #
loop $-1 $-1 $202 $76 #
plane-surface $-1 -40.669107565773345 0 -3.0573023609841385 -1 0 0 0 0 1 forward_v I I I I #
coedge $-1 $203 $204 $205 $206 forward $77 $-1 #
coedge $-1 $207 $79 $208 $209 reversed $49 $-1 #
coedge $-1 $79 $207 $210 $211 reversed $49 $-1 #
coedge $-1 $202 $212 $79 $126 reversed $120 $-1 #
edge $-1 $213 -24.520458456356952 $214 24.520458456356952 $125 $215 forward 7 unknown #
face $-1 $216 $217 $29 $-1 $218 reversed single #
loop $-1 $-1 $219 $80 #
plane-surface $-1 41.536533701273768 0 4.1235100309140957 1 0 0 0 0 -1 forward_v I I I I #
coedge $-1 $220 $221 $222 $223 reversed $81 $-1 #
coedge $-1 $224 $83 $225 $226 reversed $52 $-1 #
coedge $-1 $83 $224 $227 $228 reversed $52 $-1 #
coedge $-1 $229 $230 $83 $134 forward $231 $-1 #
edge $-1 $232 -24.520458456356952 $233 24.520458456356952 $133 $234 forward 7 unknown #
face $-1 $235 $236 $30 $-1 $237 reversed single #
loop $-1 $-1 $238 $84 #
plane-surface $-1 -27.640494827353052 47.054406522873109 112.542930714313 1 0 0 0 -0.61566148304635926 -0.78801074757464917 forward_v I I I I #
coedge $-1 $239 $240 $241 $242 reversed $85 $-1 #
coedge $-1 $140 $87 $243 $244 reversed $55 $-1 #
coedge $-1 $87 $139 $239 $245 reversed $55 $-1 #
coedge $-1 $241 $246 $87 $142 forward $236 $-1 #
edge $-1 $247 48.021450210882726 $248 52.226324441052675 $141 $249 forward 7 unknown #
loop $-1 $-1 $148 $88 #
plane-surface $-1 -20.000151950199303 -14.124311141776985 34.237744552538544 0 0.61566148304635926 0.78801074757464917 1 0 0 forward_v I I I I #
loop $-1 $-1 $250 $57 #
coedge $-1 $146 $146 $147 $251 reversed $89 $-1 #
coedge $-1 $147 $147 $146 $251 forward $91 $-1 #
coedge $-1 $148 $148 $92 $149 forward $143 $-1 #
edge $-1 $252 1.705942075785563e-015 $252 6.2831853071796022 $148 $253 forward 7 unknown #
face $-1 $254 $255 $32 $-1 $256 forward single #
loop $-1 $-1 $257 $93 #
plane-surface $-1 13.227235208545963 47.054406522873109 112.542930714313 1 0 0 0 -0.61566148304635926 -0.78801074757464917 forward_v I I I I #
coedge $-1 $258 $259 $260 $261 reversed $94 $-1 #
coedge $-1 $155 $96 $262 $263 reversed $61 $-1 #
coedge $-1 $96 $154 $258 $264 reversed $61 $-1 #
coedge $-1 $260 $265 $96 $157 forward $266 $-1 #
edge $-1 $267 48.021450210882726 $268 52.226324441052675 $156 $269 forward 7 unknown #
loop $-1 $-1 $163 $97 #
plane-surface $-1 20.867578085699712 -14.124311141776985 34.237744552538544 0 0.61566148304635926 0.78801074757464917 1 0 0 forward_v I I I I #
loop $-1 $-1 $270 $63 #
coedge $-1 $161 $161 $162 $271 reversed $98 $-1 #
coedge $-1 $162 $162 $161 $271 forward $100 $-1 #
coedge $-1 $163 $163 $101 $164 forward $158 $-1 #
edge $-1 $272 1.705942075785563e-015 $272 6.2831853071796022 $163 $273 forward 7 unknown #
face $-1 $274 $275 $34 $-1 $276 forward single #
loop $-1 $-1 $277 $102 #
plane-surface $-1 -9.5941261450485698 -106.90251007947555 60.715186827953936 -1 0 0 0 -0.82903758062907751 0.55919289150049634 forward_v I I I I #
coedge $-1 $278 $279 $280 $281 reversed $103 $-1 #
coedge $-1 $170 $105 $282 $283 reversed $67 $-1 #
coedge $-1 $105 $169 $278 $284 reversed $67 $-1 #
coedge $-1 $280 $285 $105 $172 forward $286 $-1 #
edge $-1 $287 22.10757826770319 $288 25.209800310103219 $171 $289 forward 7 unknown #
loop $-1 $-1 $178 $106 #
plane-surface $-1 -14.999447486395546 -24.520458456356963 5.147793103873731 0 -0.82903758062907751 0.55919289150049634 1 0 0 forward_v I I I I #
loop $-1 $-1 $290 $69 #
coedge $-1 $176 $176 $177 $291 reversed $107 $-1 #
coedge $-1 $177 $177 $176 $291 forward $109 $-1 #
coedge $-1 $178 $178 $110 $179 forward $173 $-1 #
edge $-1 $292 5.2784373790837092e-015 $292 6.2831853071796058 $178 $293 forward 7 unknown #
face $-1 $294 $295 $27 $-1 $296 reversed single #
loop $-1 $-1 $297 $111 #
plane-surface $-1 -49.685354167302471 0 0 1 0 0 0 0 -1 forward_v I I I I #
coedge $-1 $298 $191 $299 $300 forward $112 $-1 #
coedge $-1 $301 $114 $298 $302 forward $73 $-1 #
coedge $-1 $114 $301 $303 $304 forward $73 $-1 #
coedge $-1 $194 $193 $114 $187 reversed $195 $-1 #
edge $-1 $305 -24.520458456356952 $306 24.520458456356952 $186 $307 forward 7 unknown #
coedge $-1 $116 $115 $308 $309 forward $46 $-1 #
coedge $-1 $310 $311 $115 $190 reversed $295 $-1 #
edge $-1 $197 -49.685354167302471 $312 49.685354167302471 $189 $313 forward 7 unknown #
coedge $-1 $183 $314 $116 $192 reversed $112 $-1 #
edge $-1 $315 -49.685354167302471 $196 49.685354167302471 $191 $316 forward 7 unknown #
coedge $-1 $186 $117 $314 $317 forward $195 $-1 #
coedge $-1 $117 $186 $310 $318 reversed $195 $-1 #
loop $-1 $-1 $193 $294 #
vertex $-1 $118 $319 #
vertex $-1 $118 $320 #
straight-curve $-1 49.685354167302471 0 8.2500151462737765 0 1 0 I I #
face $-1 $321 $322 $28 $-1 $323 reversed single #
loop $-1 $-1 $324 $119 #
plane-surface $-1 0 -24.520458456356952 0 0 1 0 0 0 1 forward_v I I I I #
coedge $-1 $205 $125 $325 $326 reversed $120 $-1 #
coedge $-1 $327 $122 $324 $328 reversed $77 $-1 #
coedge $-1 $122 $327 $329 $330 reversed $77 $-1 #
coedge $-1 $212 $202 $122 $206 reversed $120 $-1 #
edge $-1 $331 -24.520458456356952 $332 24.520458456356952 $205 $333 forward 7 unknown #
coedge $-1 $124 $123 $334 $335 reversed $49 $-1 #
coedge $-1 $336 $337 $123 $209 forward $338 $-1 #
edge $-1 $339 -27.096738734033522 $214 -18.080492132504389 $208 $340 forward 7 unknown #
coedge $-1 $341 $325 $124 $211 forward $200 $-1 #
edge $-1 $213 18.080492132504389 $342 27.096738734033522 $210 $343 forward 7 unknown #
coedge $-1 $125 $205 $336 $344 reversed $120 $-1 #
vertex $-1 $211 $345 #
vertex $-1 $209 $346 #
straight-curve $-1 -40.669107565773345 0 -1.322122778368245 0 1 0 I I #
face $-1 $347 $348 $29 $-1 $349 reversed single #
loop $-1 $-1 $227 $127 #
plane-surface $-1 0 -24.520458456356952 0 0 1 0 0 0 1 forward_v I I I I #
coedge $-1 $350 $351 $352 $353 reversed $128 $-1 #
coedge $-1 $354 $130 $355 $356 reversed $81 $-1 #
coedge $-1 $130 $354 $357 $358 reversed $81 $-1 #
coedge $-1 $230 $229 $130 $223 forward $231 $-1 #
edge $-1 $359 -24.520458456356952 $360 24.520458456356952 $222 $361 forward 7 unknown #
coedge $-1 $132 $131 $351 $362 forward $52 $-1 #
coedge $-1 $363 $352 $131 $226 forward $348 $-1 #
edge $-1 $364 18.731061734129707 $232 26.879882200158416 $225 $365 forward 7 unknown #
coedge $-1 $366 $367 $132 $228 forward $217 $-1 #
edge $-1 $233 -26.879882200158416 $368 -18.731061734129707 $227 $369 forward 7 unknown #
coedge $-1 $222 $133 $367 $370 forward $231 $-1 #
coedge $-1 $133 $222 $363 $371 reversed $231 $-1 #
loop $-1 $-1 $133 $347 #
vertex $-1 $371 $372 #
vertex $-1 $370 $373 #
straight-curve $-1 49.685354167302471 0 5.6235100309140957 0 -1 0 I I #
face $-1 $-1 $374 $30 $-1 $375 forward single #
loop $-1 $-1 $141 $135 #
plane-surface $-1 0 24.520458456356952 0 0 -1 0 0 0 -1 forward_v I I I I #
coedge $-1 $376 $377 $378 $379 reversed $136 $-1 #
coedge $-1 $380 $138 $140 $245 forward $85 $-1 #
coedge $-1 $138 $380 $376 $381 forward $85 $-1 #
coedge $-1 $378 $141 $138 $242 forward $236 $-1 #
edge $-1 $248 2.3597330979459024 $382 17.640418852253401 $241 $383 forward 7 unknown #
coedge $-1 $384 $385 $139 $244 forward $374 $-1 #
edge $-1 $386 -4.3887382817189362 $247 0.9932551949203976 $243 $387 forward 7 unknown #
edge $-1 $248 -49.040916912713897 $386 -42.211069105175596 $140 $388 forward 7 unknown #
coedge $-1 $141 $378 $384 $389 reversed $236 $-1 #
vertex $-1 $389 $390 #
vertex $-1 $142 $391 #
straight-curve $-1 -12.359809073045554 24.520458456356952 56.271465357156501 0 0 -1 I I #
coedge $-1 $250 $250 $-1 $392 reversed $145 $-1 #
edge $-1 $393 0 $393 6.2831853071796004 $146 $394 forward 7 unknown #
vertex $-1 $149 $395 #
ellipse-curve $-1 -20.000151950199303 21.829461718037283 6.147578031188802 0 0.61566148304635926 0.78801074757464917 1 0 0 1 I I #
face $-1 $-1 $266 $32 $-1 $396 reversed single #
loop $-1 $-1 $397 $150 #
plane-surface $-1 0 0 8.2500151462737765 0 0 1 1 0 0 forward_v I I I I #
coedge $-1 $398 $399 $400 $401 reversed $151 $-1 #
coedge $-1 $402 $153 $155 $264 forward $94 $-1 #
coedge $-1 $153 $402 $398 $403 forward $94 $-1 #
coedge $-1 $400 $156 $153 $261 forward $266 $-1 #
edge $-1 $268 -18.074131920003605 $404 -2.7934461656961069 $260 $405 forward 7 unknown #
coedge $-1 $406 $407 $154 $263 forward $255 $-1 #
edge $-1 $408 -4.3887382817189362 $267 0.9932551949203976 $262 $409 forward 7 unknown #
edge $-1 $268 -49.040916912713897 $408 -42.211069105175596 $155 $410 forward 7 unknown #
coedge $-1 $156 $400 $406 $411 reversed $266 $-1 #
loop $-1 $-1 $400 $254 #
vertex $-1 $411 $412 #
vertex $-1 $157 $413 #
straight-curve $-1 28.507920962853461 24.520458456356952 56.271465357156501 0 0 -1 I I #
coedge $-1 $270 $270 $-1 $414 reversed $160 $-1 #
edge $-1 $415 0 $415 6.2831853071796004 $161 $416 forward 7 unknown #
vertex $-1 $164 $417 #
ellipse-curve $-1 20.867578085699712 21.829461718037283 6.147578031188802 0 0.61566148304635926 0.78801074757464917 1 0 0 1 I I #
face $-1 $-1 $286 $34 $-1 $418 reversed single #
loop $-1 $-1 $419 $165 #
plane-surface $-1 0 0 8.2500151462737765 0 0 1 1 0 0 forward_v I I I I #
coedge $-1 $420 $421 $422 $423 reversed $166 $-1 #
coedge $-1 $424 $168 $170 $284 forward $103 $-1 #
coedge $-1 $168 $424 $420 $425 forward $103 $-1 #
coedge $-1 $422 $171 $168 $281 forward $286 $-1 #
edge $-1 $288 -12.905045084544749 $426 -2.0944024018507967 $280 $427 forward 7 unknown #
coedge $-1 $428 $429 $169 $283 forward $275 $-1 #
edge $-1 $430 -31.023271706945085 $287 -28.930796583380822 $282 $431 forward 7 unknown #
edge $-1 $288 1.9213955892398137e-014 $430 3.741955871344294 $170 $432 forward 7 unknown #
coedge $-1 $171 $422 $428 $433 reversed $286 $-1 #
loop $-1 $-1 $422 $274 #
vertex $-1 $433 $434 #
vertex $-1 $172 $435 #
straight-curve $-1 -20.404768827742522 -24.520458456356948 30.357593413976968 0 0 -1 I I #
coedge $-1 $290 $290 $-1 $436 reversed $175 $-1 #
edge $-1 $437 0 $437 6.2831853071796004 $176 $438 forward 7 unknown #
vertex $-1 $179 $439 #
ellipse-curve $-1 -14.999447486395546 -23.474220894574824 6.6989041250737555 0 -0.82903758062907751 0.55919289150049634 0.25 0 0 1 I I #
face $-1 $-1 $195 $27 $-1 $440 reversed single #
loop $-1 $-1 $310 $180 #
plane-surface $-1 0 24.520458456356952 0 0 -1 0 0 0 -1 forward_v I I I I #
coedge $-1 $441 $308 $311 $442 forward $181 $-1 #
coedge $-1 $314 $183 $184 $302 reversed $112 $-1 #
coedge $-1 $308 $441 $183 $300 reversed $181 $-1 #
edge $-1 $315 -8.2500151462737765 $443 8.2500151462737765 $299 $444 forward 7 unknown #
coedge $-1 $185 $184 $441 $445 forward $73 $-1 #
edge $-1 $306 -49.685354167302471 $443 49.685354167302471 $298 $446 forward 7 unknown #
coedge $-1 $311 $310 $185 $304 reversed $295 $-1 #
edge $-1 $447 -49.685354167302471 $305 49.685354167302471 $303 $448 forward 7 unknown #
vertex $-1 $187 $449 #
vertex $-1 $317 $450 #
straight-curve $-1 49.685354167302471 0 -8.2500151462737765 0 -1 0 I I #
coedge $-1 $297 $299 $188 $309 reversed $181 $-1 #
edge $-1 $312 -24.520458456356952 $315 24.520458456356952 $308 $451 forward 7 unknown #
coedge $-1 $303 $189 $194 $318 forward $295 $-1 #
coedge $-1 $189 $303 $297 $442 reversed $295 $-1 #
vertex $-1 $190 $452 #
straight-curve $-1 0 24.520458456356952 8.2500151462737765 -1 0 0 I I #
coedge $-1 $191 $298 $193 $317 reversed $112 $-1 #
vertex $-1 $309 $453 #
straight-curve $-1 0 -24.520458456356952 8.2500151462737765 1 0 0 I I #
edge $-1 $196 -8.2500151462737765 $306 8.2500151462737765 $193 $454 forward 7 unknown #
edge $-1 $197 -8.2500151462737765 $305 8.2500151462737765 $194 $455 forward 7 unknown #
point $-1 49.685354167302471 -24.520458456356952 8.2500151462737765 #
point $-1 49.685354167302471 24.520458456356952 8.2500151462737765 #
face $-1 $-1 $338 $28 $-1 $456 reversed single #
loop $-1 $-1 $457 $199 #
plane-surface $-1 -49.685354167302471 0 0 1 0 0 0 0 -1 forward_v I I I I #
coedge $-1 $325 $341 $203 $328 forward $200 $-1 #
coedge $-1 $210 $324 $202 $326 forward $200 $-1 #
edge $-1 $332 -3.2638307631079631 $213 0.20652840212382428 $325 $458 forward 7 unknown #
coedge $-1 $204 $203 $457 $459 reversed $77 $-1 #
edge $-1 $460 -27.096738734033522 $332 -18.080492132504389 $324 $461 forward 7 unknown #
coedge $-1 $337 $336 $204 $330 forward $338 $-1 #
edge $-1 $331 18.080492132504389 $462 27.096738734033522 $329 $463 forward 7 unknown #
vertex $-1 $330 $464 #
vertex $-1 $328 $465 #
straight-curve $-1 -40.669107565773345 0 -4.7924819436000323 0 -1 0 I I #
coedge $-1 $466 $467 $207 $335 forward $322 $-1 #
edge $-1 $342 -24.520458456356952 $339 24.520458456356952 $334 $468 forward 7 unknown #
coedge $-1 $329 $208 $212 $344 forward $338 $-1 #
coedge $-1 $208 $329 $466 $469 reversed $338 $-1 #
loop $-1 $-1 $329 $321 #
vertex $-1 $469 $470 #
straight-curve $-1 -22.588615433268956 24.520458456356952 -1.322122778368245 1 0 0 I I #
coedge $-1 $324 $210 $467 $471 forward $200 $-1 #
vertex $-1 $471 $472 #
straight-curve $-1 -22.588615433268956 -24.520458456356952 -1.322122778368245 -1 0 0 I I #
edge $-1 $214 -0.20652840212382428 $331 3.2638307631079631 $336 $473 forward 7 unknown #
point $-1 -40.669107565773345 -24.520458456356952 -1.322122778368245 #
point $-1 -40.669107565773345 24.520458456356952 -1.322122778368245 #
face $-1 $-1 $231 $29 $-1 $474 reversed single #
loop $-1 $-1 $225 $216 #
plane-surface $-1 0 24.520458456356952 0 0 -1 0 0 0 -1 forward_v I I I I #
coedge $-1 $475 $219 $354 $476 reversed $128 $-1 #
coedge $-1 $219 $475 $224 $362 reversed $128 $-1 #
coedge $-1 $225 $357 $219 $353 forward $348 $-1 #
edge $-1 $477 0.56175501545704787 $364 3.5617550154570479 $352 $478 forward 7 unknown #
coedge $-1 $221 $220 $350 $476 forward $81 $-1 #
coedge $-1 $367 $366 $220 $356 forward $217 $-1 #
edge $-1 $479 18.731061734129707 $359 26.879882200158416 $355 $480 forward 7 unknown #
coedge $-1 $352 $363 $221 $358 forward $348 $-1 #
edge $-1 $360 -26.879882200158416 $477 -18.731061734129707 $357 $481 forward 7 unknown #
vertex $-1 $223 $482 #
vertex $-1 $223 $483 #
straight-curve $-1 49.685354167302471 0 2.6235100309140957 0 1 0 I I #
edge $-1 $364 -24.520458456356952 $368 24.520458456356952 $351 $484 forward 7 unknown #
coedge $-1 $357 $225 $230 $371 forward $348 $-1 #
vertex $-1 $226 $485 #
straight-curve $-1 22.805471967144062 24.520458456356952 5.6235100309140957 1 0 0 I I #
coedge $-1 $355 $227 $475 $486 forward $217 $-1 #
coedge $-1 $227 $355 $229 $370 reversed $217 $-1 #
vertex $-1 $228 $487 #
straight-curve $-1 22.805471967144062 -24.520458456356952 5.6235100309140957 -1 0 0 I I #
edge $-1 $233 -5.6235100309140957 $359 -2.6235100309140957 $229 $488 forward 7 unknown #
edge $-1 $232 -5.6235100309140957 $360 -2.6235100309140957 $230 $489 forward 7 unknown #
point $-1 49.685354167302478 24.520458456356952 5.6235100309140957 #
point $-1 49.685354167302478 -24.520458456356952 5.6235100309140957 #
loop $-1 $-1 $243 $235 #
plane-surface $-1 0 0 8.2500151462737765 0 0 1 1 0 0 forward_v I I I I #
coedge $-1 $377 $238 $240 $381 reversed $136 $-1 #
coedge $-1 $238 $376 $490 $491 reversed $136 $-1 #
coedge $-1 $246 $241 $238 $379 forward $236 $-1 #
edge $-1 $382 -52.226324441052675 $492 -48.021450210882726 $378 $493 forward 7 unknown #
coedge $-1 $240 $239 $385 $494 reversed $85 $-1 #
edge $-1 $495 42.211069105175596 $382 49.040916912713897 $376 $496 forward 7 unknown #
vertex $-1 $242 $497 #
straight-curve $-1 -10.000075975099652 24.520458456356952 4.0451409161038203 -1 0 0 I I #
coedge $-1 $490 $243 $246 $389 forward $374 $-1 #
coedge $-1 $243 $490 $380 $494 forward $374 $-1 #
vertex $-1 $244 $498 #
straight-curve $-1 -12.359809073045554 23.527203261436554 8.2500151462737747 0 1 0 I I #
straight-curve $-1 -12.359809073045554 -14.124311141776985 34.237744552538544 0 -0.78801074757464917 0.61566148304635926 I I #
edge $-1 $247 12.359809073045554 $492 27.640494827353052 $246 $499 forward 7 unknown #
point $-1 -12.359809073045554 24.520458456356952 8.2500151462737765 #
point $-1 -12.359809073045554 24.520458456356948 4.0451409161038256 #
edge $-1 $500 1 $500 0 $250 $-1 forward 7 unknown #
vertex $-1 $251 $501 #
ellipse-curve $-1 -20.000151950199303 20.166891998842971 4.0195858741438997 0 0.61566148304635926 0.78801074757464917 1 0 0 1 I I #
point $-1 -19.000151950199303 21.829461718037287 6.1475780311888037 #
plane-surface $-1 0 24.520458456356952 0 0 -1 0 0 0 -1 forward_v I I I I #
coedge $-1 $407 $406 $399 $502 forward $255 $-1 #
coedge $-1 $399 $257 $259 $403 reversed $151 $-1 #
coedge $-1 $257 $398 $397 $502 reversed $151 $-1 #
coedge $-1 $265 $260 $257 $401 forward $266 $-1 #
edge $-1 $404 -52.226324441052675 $503 -48.021450210882726 $400 $504 forward 7 unknown #
coedge $-1 $259 $258 $407 $505 reversed $94 $-1 #
edge $-1 $506 42.211069105175596 $404 49.040916912713897 $398 $507 forward 7 unknown #
vertex $-1 $261 $508 #
straight-curve $-1 10.433789042849856 24.520458456356952 4.0451409161038203 -1 0 0 I I #
coedge $-1 $397 $262 $265 $411 forward $255 $-1 #
coedge $-1 $262 $397 $402 $505 forward $255 $-1 #
vertex $-1 $263 $509 #
straight-curve $-1 28.507920962853461 23.527203261436554 8.2500151462737747 0 1 0 I I #
straight-curve $-1 28.507920962853461 -14.124311141776985 34.237744552538544 0 -0.78801074757464917 0.61566148304635926 I I #
edge $-1 $267 -28.507920962853461 $503 -13.227235208545963 $265 $510 forward 7 unknown #
point $-1 28.507920962853461 24.520458456356952 8.2500151462737765 #
point $-1 28.507920962853461 24.520458456356948 4.0451409161038256 #
edge $-1 $511 1 $511 0 $270 $-1 forward 7 unknown #
vertex $-1 $271 $512 #
ellipse-curve $-1 20.867578085699712 20.166891998842971 4.0195858741438997 0 0.61566148304635926 0.78801074757464917 1 0 0 1 I I #
point $-1 21.867578085699712 21.829461718037287 6.1475780311888037 #
plane-surface $-1 0 -24.520458456356952 0 0 1 0 0 0 1 forward_v I I I I #
coedge $-1 $429 $428 $421 $513 forward $275 $-1 #
coedge $-1 $421 $277 $279 $425 reversed $166 $-1 #
coedge $-1 $277 $420 $419 $513 reversed $166 $-1 #
coedge $-1 $285 $280 $277 $423 forward $286 $-1 #
edge $-1 $426 -25.209800310103219 $514 -22.10757826770319 $422 $515 forward 7 unknown #
coedge $-1 $279 $278 $429 $516 reversed $103 $-1 #
edge $-1 $517 -3.741955871344294 $426 -1.9213955892398137e-014 $420 $518 forward 7 unknown #
vertex $-1 $281 $519 #
straight-curve $-1 -7.499723743197773 -24.520458456356952 5.1477931038737434 1 0 0 I I #
coedge $-1 $419 $282 $285 $433 forward $275 $-1 #
coedge $-1 $282 $419 $424 $516 forward $275 $-1 #
vertex $-1 $283 $520 #
straight-curve $-1 -20.404768827742522 -53.451255039737774 8.2500151462737747 0 -1 0 I I #
straight-curve $-1 -20.404768827742522 -24.520458456356963 5.147793103873731 0 0.55919289150049634 0.82903758062907751 I I #
edge $-1 $287 -20.404768827742522 $514 -9.5941261450485698 $285 $521 forward 7 unknown #
point $-1 -20.404768827742522 -24.520458456356952 8.2500151462737765 #
point $-1 -20.404768827742522 -24.520458456356952 5.147793103873747 #
edge $-1 $522 1 $522 0 $290 $-1 forward 7 unknown #
vertex $-1 $291 $523 #
ellipse-curve $-1 -14.999447486395546 -22.645183313945733 6.1397112335732507 0 -0.82903758062907751 0.55919289150049634 0.25 0 0 1 I I #
point $-1 -14.749447486395546 -23.47422089457481 6.6989041250737476 #
plane-surface $-1 49.685354167302471 0 0 -1 0 0 0 0 1 forward_v I I I I #
coedge $-1 $299 $297 $301 $445 reversed $181 $-1 #
edge $-1 $312 -8.2500151462737765 $447 8.2500151462737765 $311 $524 forward 7 unknown #
vertex $-1 $445 $525 #
straight-curve $-1 -49.685354167302471 -24.520458456356952 0 0 0 -1 I I #
edge $-1 $443 -24.520458456356952 $447 24.520458456356952 $441 $526 forward 7 unknown #
straight-curve $-1 0 -24.520458456356952 -8.2500151462737765 -1 0 0 I I #
vertex $-1 $304 $527 #
straight-curve $-1 0 24.520458456356952 -8.2500151462737765 1 0 0 I I #
point $-1 49.685354167302471 24.520458456356952 -8.2500151462737765 #
point $-1 49.685354167302471 -24.520458456356952 -8.2500151462737765 #
straight-curve $-1 -49.685354167302471 0 8.2500151462737765 0 -1 0 I I #
point $-1 -49.685354167302471 24.520458456356952 8.2500151462737765 #
point $-1 -49.685354167302471 -24.520458456356952 8.2500151462737765 #
straight-curve $-1 49.685354167302471 -24.520458456356952 0 0 0 -1 I I #
straight-curve $-1 49.685354167302471 24.520458456356952 0 0 0 -1 I I #
plane-surface $-1 0 24.520458456356952 0 0 -1 0 0 0 -1 forward_v I I I I #
coedge $-1 $467 $466 $327 $459 forward $322 $-1 #
straight-curve $-1 -40.669107565773345 -24.520458456356952 -1.5286511804920693 0 0 1 I I #
edge $-1 $462 -24.520458456356952 $460 24.520458456356952 $457 $528 forward 7 unknown #
vertex $-1 $328 $529 #
straight-curve $-1 -22.588615433268956 -24.520458456356952 -4.7924819436000323 1 0 0 I I #
vertex $-1 $330 $530 #
straight-curve $-1 -22.588615433268956 24.520458456356952 -4.7924819436000323 -1 0 0 I I #
point $-1 -40.669107565773345 24.520458456356952 -4.7924819436000323 #
point $-1 -40.669107565773345 -24.520458456356952 -4.7924819436000323 #
coedge $-1 $457 $334 $337 $469 forward $322 $-1 #
coedge $-1 $334 $457 $341 $471 reversed $322 $-1 #
straight-curve $-1 -49.685354167302471 0 -1.322122778368245 0 1 0 I I #
edge $-1 $339 1.322122778368245 $462 4.7924819436000323 $337 $531 forward 7 unknown #
point $-1 -49.685354167302478 24.520458456356952 -1.322122778368245 #
edge $-1 $342 1.322122778368245 $460 4.7924819436000323 $467 $532 forward 7 unknown #
point $-1 -49.685354167302478 -24.520458456356952 -1.322122778368245 #
straight-curve $-1 -40.669107565773345 24.520458456356952 -1.5286511804920693 0 0 -1 I I #
plane-surface $-1 49.685354167302471 0 0 -1 0 0 0 0 1 forward_v I I I I #
coedge $-1 $351 $350 $366 $486 reversed $128 $-1 #
edge $-1 $479 -24.520458456356952 $477 24.520458456356952 $350 $533 forward 7 unknown #
vertex $-1 $358 $534 #
straight-curve $-1 41.536533701273768 24.520458456356952 2.0617550154570479 0 0 1 I I #
vertex $-1 $356 $535 #
straight-curve $-1 22.805471967144062 -24.520458456356952 2.6235100309140957 1 0 0 I I #
straight-curve $-1 22.805471967144062 24.520458456356952 2.6235100309140957 -1 0 0 I I #
point $-1 49.685354167302478 -24.520458456356952 2.6235100309140957 #
point $-1 49.685354167302478 24.520458456356952 2.6235100309140957 #
straight-curve $-1 41.536533701273768 0 5.6235100309140957 0 -1 0 I I #
point $-1 41.536533701273768 24.520458456356952 5.6235100309140957 #
edge $-1 $368 -3.5617550154570479 $479 -0.56175501545704787 $366 $536 forward 7 unknown #
point $-1 41.536533701273768 -24.520458456356952 5.6235100309140957 #
straight-curve $-1 49.685354167302471 -24.520458456356952 0 0 0 -1 I I #
straight-curve $-1 49.685354167302471 24.520458456356952 0 0 0 -1 I I #
coedge $-1 $385 $384 $377 $491 forward $374 $-1 #
edge $-1 $492 -0.9932551949203976 $495 4.3887382817189362 $490 $537 forward 7 unknown #
vertex $-1 $491 $538 #
straight-curve $-1 -27.640494827353052 24.520458456356952 56.271465357156501 0 0 1 I I #
edge $-1 $495 -17.640418852253401 $386 -2.3597330979459024 $385 $539 forward 7 unknown #
vertex $-1 $494 $540 #
straight-curve $-1 -27.640494827353052 -14.124311141776985 34.237744552538544 0 0.78801074757464917 -0.61566148304635926 I I #
point $-1 -27.640494827353052 24.520458456356948 4.0451409161038256 #
point $-1 -12.359809073045554 19.138464979717618 8.2500151462737747 #
straight-curve $-1 0 24.520458456356952 8.2500151462737765 -1 0 0 I I #
vertex $-1 $392 $541 #
point $-1 -19.000151950199303 20.166891998842971 4.0195858741438997 #
edge $-1 $503 -0.9932551949203976 $506 4.3887382817189362 $397 $542 forward 7 unknown #
vertex $-1 $502 $543 #
straight-curve $-1 13.227235208545963 24.520458456356952 56.271465357156501 0 0 1 I I #
edge $-1 $506 2.7934461656961069 $408 18.074131920003605 $407 $544 forward 7 unknown #
vertex $-1 $505 $545 #
straight-curve $-1 13.227235208545963 -14.124311141776985 34.237744552538544 0 0.78801074757464917 -0.61566148304635926 I I #
point $-1 13.227235208545963 24.520458456356948 4.0451409161038256 #
point $-1 28.507920962853461 19.138464979717618 8.2500151462737747 #
straight-curve $-1 0 24.520458456356952 8.2500151462737765 -1 0 0 I I #
vertex $-1 $414 $546 #
point $-1 21.867578085699712 20.166891998842971 4.0195858741438997 #
edge $-1 $514 28.930796583380822 $517 31.023271706945085 $419 $547 forward 7 unknown #
vertex $-1 $423 $548 #
straight-curve $-1 -9.5941261450485698 -24.520458456356948 30.357593413976968 0 0 1 I I #
edge $-1 $517 2.0944024018507967 $430 12.905045084544749 $429 $549 forward 7 unknown #
vertex $-1 $516 $550 #
straight-curve $-1 -9.5941261450485698 -24.520458456356963 5.147793103873731 0 -0.55919289150049634 -0.82903758062907751 I I #
point $-1 -9.5941261450485698 -24.520458456356952 5.147793103873747 #
point $-1 -20.404768827742522 -22.427983332792689 8.2500151462737765 #
straight-curve $-1 0 -24.520458456356952 8.2500151462737765 1 0 0 I I #
vertex $-1 $436 $551 #
point $-1 -14.749447486395546 -22.645183313945733 6.1397112335732507 #
straight-curve $-1 -49.685354167302471 24.520458456356952 0 0 0 -1 I I #
point $-1 -49.685354167302471 -24.520458456356952 -8.2500151462737765 #
straight-curve $-1 -49.685354167302471 0 -8.2500151462737765 0 1 0 I I #
point $-1 -49.685354167302471 24.520458456356952 -8.2500151462737765 #
straight-curve $-1 -49.685354167302471 0 -4.7924819436000323 0 -1 0 I I #
point $-1 -49.685354167302478 -24.520458456356952 -4.7924819436000323 #
point $-1 -49.685354167302478 24.520458456356952 -4.7924819436000323 #
straight-curve $-1 -49.685354167302471 24.520458456356952 0 0 0 -1 I I #
straight-curve $-1 -49.685354167302471 -24.520458456356952 0 0 0 -1 I I #
straight-curve $-1 41.536533701273768 0 2.6235100309140957 0 1 0 I I #
point $-1 41.536533701273768 24.520458456356952 2.6235100309140957 #
point $-1 41.536533701273768 -24.520458456356952 2.6235100309140957 #
straight-curve $-1 41.536533701273768 -24.520458456356952 2.0617550154570479 0 0 -1 I I #
straight-curve $-1 -27.640494827353052 23.527203261436554 8.2500151462737747 0 -1 0 I I #
point $-1 -27.640494827353052 24.520458456356952 8.2500151462737765 #
straight-curve $-1 -10.000075975099652 19.138464979717622 8.2500151462737747 1 0 0 I I #
point $-1 -27.640494827353052 19.138464979717618 8.2500151462737747 #
point $-1 -20.000151950199303 19.551230515796611 3.2315751265692505 #
straight-curve $-1 13.227235208545963 23.527203261436554 8.2500151462737747 0 -1 0 I I #
point $-1 13.227235208545963 24.520458456356952 8.2500151462737765 #
straight-curve $-1 10.433789042849856 19.138464979717622 8.2500151462737747 1 0 0 I I #
point $-1 13.227235208545963 19.138464979717618 8.2500151462737747 #
point $-1 20.867578085699712 19.551230515796611 3.2315751265692505 #
straight-curve $-1 -9.5941261450485698 -53.451255039737774 8.2500151462737747 0 1 0 I I #
point $-1 -9.5941261450485698 -24.520458456356952 8.2500151462737765 #
straight-curve $-1 -7.499723743197773 -22.427983332792685 8.2500151462737765 -1 0 0 I I #
point $-1 -9.5941261450485698 -22.427983332792689 8.2500151462737765 #
point $-1 -14.999447486395546 -22.43792391878846 5.9999130106981271 #
End-of-ACIS-data 