500 0 10 0           
7 Unknown 11 ACIS 5.0 NT 24 Thu Mar 25 20:37:33 1999 
-1 9.9999999999999995e-007 1e-010 
body $-1 $10 $-1 $11 #
body $-1 $12 $-1 $13 #
body $-1 $14 $-1 $15 #
body $-1 $16 $-1 $17 #
body $-1 $18 $-1 $19 #
body $-1 $20 $-1 $21 #
body $-1 $22 $-1 $23 #
body $-1 $24 $-1 $25 #
body $-1 $26 $-1 $27 #
body $-1 $28 $-1 $29 #
lump $-1 $-1 $30 $0 #
transform $-1 1 0 0 0 1 0 0 0 1 47.044892727439191 27.17181030715674 8.4532217502403366 1 rotate no_reflect no_shear #
lump $-1 $-1 $31 $1 #
transform $-1 1 0 0 0 1 0 0 0 1 47.044892727439191 27.17181030715674 8.4532217502403366 1 rotate no_reflect no_shear #
lump $-1 $-1 $32 $2 #
transform $-1 1 0 0 0 1 0 0 0 1 47.044892727439191 27.17181030715674 8.4532217502403366 1 rotate no_reflect no_shear #
lump $-1 $-1 $33 $3 #
transform $-1 1 0 0 0 1 0 0 0 1 47.044892727439191 27.17181030715674 8.4532217502403366 1 rotate no_reflect no_shear #
lump $-1 $-1 $34 $4 #
transform $-1 1 0 0 0 1 0 0 0 1 47.044892727439191 27.17181030715674 8.4532217502403366 1 rotate no_reflect no_shear #
lump $-1 $-1 $35 $5 #
transform $-1 1 0 0 0 1 0 0 0 1 47.044892727439191 27.17181030715674 8.4532217502403366 1 rotate no_reflect no_shear #
lump $-1 $-1 $36 $6 #
transform $-1 1 0 0 0 1 0 0 0 1 47.044892727439191 27.17181030715674 8.4532217502403366 1 rotate no_reflect no_shear #
lump $-1 $-1 $37 $7 #
transform $-1 1 0 0 0 1 0 0 0 1 47.044892727439191 27.17181030715674 8.4532217502403366 1 rotate no_reflect no_shear #
lump $-1 $-1 $38 $8 #
transform $-1 1 0 0 0 1 0 0 0 1 47.044892727439191 27.17181030715674 8.4532217502403366 1 rotate no_reflect no_shear #
lump $-1 $-1 $39 $9 #
transform $-1 1 0 0 0 1 0 0 0 1 47.044892727439191 27.17181030715674 8.4532217502403366 1 rotate no_reflect no_shear #
shell $-1 $-1 $-1 $40 $-1 $10 #
shell $-1 $-1 $-1 $41 $-1 $12 #
shell $-1 $-1 $-1 $42 $-1 $14 #
shell $-1 $-1 $-1 $43 $-1 $16 #
shell $-1 $-1 $-1 $44 $-1 $18 #
shell $-1 $-1 $-1 $45 $-1 $20 #
shell $-1 $-1 $-1 $46 $-1 $22 #
shell $-1 $-1 $-1 $47 $-1 $24 #
shell $-1 $-1 $-1 $48 $-1 $26 #
shell $-1 $-1 $-1 $49 $-1 $28 #
face $-1 $50 $51 $30 $-1 $52 forward single #
face $-1 $53 $54 $31 $-1 $55 forward single #
face $-1 $56 $57 $32 $-1 $58 reversed single #
face $-1 $59 $60 $33 $-1 $61 forward single #
face $-1 $62 $63 $34 $-1 $64 reversed single #
face $-1 $65 $66 $35 $-1 $67 forward single #
face $-1 $68 $69 $36 $-1 $70 forward single #
face $-1 $71 $72 $37 $-1 $73 reversed single #
face $-1 $74 $75 $38 $-1 $76 forward single #
face $-1 $77 $78 $39 $-1 $79 forward single #
face $-1 $80 $81 $30 $-1 $82 reversed single #
loop $-1 $-1 $83 $40 #
plane-surface $-1 0 0 8.4532217502403366 0 0 1 1 0 0 forward_v I I I I #
face $-1 $84 $85 $31 $-1 $86 reversed single #
loop $-1 $-1 $87 $41 #
plane-surface $-1 -43.5299937463693 0 -3.7148632621892839 0 0 1 1 0 0 forward_v I I I I #
face $-1 $88 $89 $32 $-1 $90 reversed single #
loop $-1 $-1 $91 $42 #
plane-surface $-1 35.421572701666804 -88.90026434127617 75.518560551731724 1 0 0 0 0.6560590369687036 -0.75470957328743171 forward_v I I I I #
face $-1 $92 $93 $33 $-1 $94 forward single #
loop $-1 $95 $96 $43 #
cone-surface $-1 41.233232714552997 -23.737320726530506 5.1401161945201732 0 0.6560590369687036 -0.75470957328743171 1 0 0 1 I I 0 1 1 forward I I I I #
face $-1 $97 $98 $34 $-1 $99 reversed single #
loop $-1 $-1 $100 $44 #
plane-surface $-1 -8.0677698465873497 27.153747889434307 109.9352575706307 1 0 0 0 -0.50000000669873634 -0.8660253999169214 forward_v I I I I #
face $-1 $101 $102 $35 $-1 $103 forward single #
loop $-1 $104 $105 $45 #
cone-surface $-1 -4.7584358958281427 20.289056794021242 3.7058617254786457 0 -0.50000000669873634 -0.8660253999169214 1.5 0 0 1 I I 0 1 1.5 forward I I I I #
face $-1 $106 $107 $36 $-1 $108 forward single #
loop $-1 $109 $110 $46 #
cone-surface $-1 0.20556503031067308 20.289056794021242 3.7058617254786457 0 -0.50000000669873634 -0.8660253999169214 1.5 0 0 1 I I 0 1 1.5 forward I I I I #
face $-1 $111 $112 $37 $-1 $113 reversed single #
loop $-1 $-1 $114 $47 #
plane-surface $-1 35.462223899781947 27.153747889434307 109.9352575706307 1 0 0 0 -0.50000000669873634 -0.8660253999169214 forward_v I I I I #
face $-1 $115 $116 $38 $-1 $117 forward single #
loop $-1 $118 $119 $48 #
cone-surface $-1 38.771557850541157 20.289056794021242 3.7058617254786457 0 -0.50000000669873634 -0.8660253999169214 1.5 0 0 1 I I 0 1 1.5 forward I I I I #
face $-1 $120 $121 $39 $-1 $122 forward single #
loop $-1 $123 $124 $49 #
cone-surface $-1 43.735558776679966 20.289056794021242 3.7058617254786457 0 -0.50000000669873634 -0.8660253999169214 1.5 0 0 1 I I 0 1 1.5 forward I I I I #
face $-1 $125 $126 $30 $-1 $127 reversed single #
loop $-1 $-1 $128 $50 #
plane-surface $-1 0 0 -8.4532217502403366 0 0 1 1 0 0 forward_v I I I I #
coedge $-1 $129 $130 $131 $132 forward $51 $-1 #
face $-1 $133 $134 $31 $-1 $135 reversed single #
loop $-1 $-1 $136 $53 #
plane-surface $-1 -43.5299937463693 0 -6.7148632621892839 0 0 1 1 0 0 forward_v I I I I #
coedge $-1 $137 $138 $139 $140 forward $54 $-1 #
face $-1 $141 $142 $32 $-1 $143 forward single #
loop $-1 $-1 $144 $56 #
plane-surface $-1 41.233232714552997 -27.171810307156726 4.5080987203744627 0 -0.6560590369687036 0.75470957328743171 1 0 0 forward_v I I I I #
coedge $-1 $145 $146 $147 $148 reversed $57 $-1 #
face $-1 $-1 $149 $33 $-1 $150 forward single #
loop $-1 $151 $152 $59 #
cone-surface $-1 41.233232714552997 -22.243974027051479 3.42221736708923 0 0.6560590369687036 -0.75470957328743171 0.5 0 0 1 I I -0.70710678118654746 0.70710678118654746 0.5 forward I I I I #
loop $-1 $-1 $153 $43 #
coedge $-1 $96 $96 $154 $155 reversed $60 $-1 #
face $-1 $156 $157 $34 $-1 $158 reversed single #
loop $-1 $-1 $159 $62 #
plane-surface $-1 -2.2764354327587313 -19.891145468287547 28.451113493972315 0 0.50000000669873634 0.8660253999169214 1 0 0 forward_v I I I I #
coedge $-1 $160 $161 $162 $163 reversed $63 $-1 #
face $-1 $-1 $164 $35 $-1 $165 forward single #
loop $-1 $166 $167 $65 #
cone-surface $-1 -4.7584358958281427 19.244099200749623 1.8959421145084381 0 -0.50000000669873634 -0.8660253999169214 0.75 0 0 1 I I -0.70710678118654757 0.70710678118654757 0.75 forward I I I I #
loop $-1 $-1 $168 $45 #
coedge $-1 $105 $105 $169 $170 reversed $66 $-1 #
face $-1 $-1 $171 $36 $-1 $172 forward single #
loop $-1 $173 $174 $68 #
cone-surface $-1 0.20556503031067308 19.244099200749623 1.8959421145084381 0 -0.50000000669873634 -0.8660253999169214 0.75 0 0 1 I I -0.70710678118654757 0.70710678118654757 0.75 forward I I I I #
loop $-1 $-1 $175 $46 #
coedge $-1 $110 $110 $176 $177 reversed $69 $-1 #
face $-1 $178 $179 $37 $-1 $180 forward single #
loop $-1 $-1 $181 $71 #
plane-surface $-1 41.253558313610569 -19.891145468287547 28.451113493972315 0 0.50000000669873634 0.8660253999169214 1 0 0 forward_v I I I I #
coedge $-1 $182 $183 $184 $185 reversed $72 $-1 #
face $-1 $-1 $186 $38 $-1 $187 forward single #
loop $-1 $188 $189 $74 #
cone-surface $-1 38.771557850541157 19.244099200749623 1.8959421145084381 0 -0.50000000669873634 -0.8660253999169214 0.75 0 0 1 I I -0.70710678118654757 0.70710678118654757 0.75 forward I I I I #
loop $-1 $-1 $190 $48 #
coedge $-1 $119 $119 $191 $192 reversed $75 $-1 #
face $-1 $-1 $193 $39 $-1 $194 forward single #
loop $-1 $195 $196 $77 #
cone-surface $-1 43.735558776679966 19.244099200749623 1.8959421145084381 0 -0.50000000669873634 -0.8660253999169214 0.75 0 0 1 I I -0.70710678118654757 0.70710678118654757 0.75 forward I I I I #
loop $-1 $-1 $197 $49 #
coedge $-1 $124 $124 $198 $199 reversed $78 $-1 #
face $-1 $200 $201 $30 $-1 $202 reversed single #
loop $-1 $-1 $203 $80 #
plane-surface $-1 0 -27.17181030715674 0 0 1 0 0 0 1 forward_v I I I I #
coedge $-1 $204 $205 $206 $207 forward $81 $-1 #
coedge $-1 $208 $83 $209 $210 forward $51 $-1 #
coedge $-1 $83 $208 $211 $212 forward $51 $-1 #
coedge $-1 $213 $214 $83 $132 reversed $215 $-1 #
edge $-1 $216 -27.17181030715674 $217 27.17181030715674 $131 $218 forward 7 unknown #
face $-1 $219 $220 $31 $-1 $221 reversed single #
loop $-1 $-1 $222 $84 #
plane-surface $-1 -40.015094765299409 0 -5.2148632621892839 -1 0 0 0 0 1 forward_v I I I I #
coedge $-1 $223 $224 $225 $226 forward $85 $-1 #
coedge $-1 $227 $87 $228 $229 reversed $54 $-1 #
coedge $-1 $87 $227 $230 $231 reversed $54 $-1 #
coedge $-1 $222 $232 $87 $140 reversed $134 $-1 #
edge $-1 $233 -27.17181030715674 $234 27.17181030715674 $139 $235 forward 7 unknown #
face $-1 $236 $237 $32 $-1 $238 reversed single #
loop $-1 $-1 $239 $88 #
plane-surface $-1 0 0 8.4532217502403366 0 0 1 1 0 0 forward_v I I I I #
coedge $-1 $240 $241 $242 $243 reversed $89 $-1 #
coedge $-1 $146 $91 $244 $245 reversed $57 $-1 #
coedge $-1 $91 $145 $240 $246 reversed $57 $-1 #
coedge $-1 $242 $247 $91 $148 forward $237 $-1 #
edge $-1 $248 29.306058525625524 $249 33.251181555491414 $147 $250 forward 7 unknown #
loop $-1 $-1 $154 $92 #
plane-surface $-1 41.233232714552997 -27.171810307156726 4.5080987203744627 0 -0.6560590369687036 0.75470957328743171 1 0 0 forward_v I I I I #
loop $-1 $-1 $251 $59 #
coedge $-1 $152 $152 $153 $252 reversed $93 $-1 #
coedge $-1 $153 $153 $152 $252 forward $95 $-1 #
coedge $-1 $154 $154 $96 $155 forward $149 $-1 #
edge $-1 $253 1.0471382164534453e-015 $253 6.2831853071796013 $154 $254 forward 7 unknown #
face $-1 $255 $256 $34 $-1 $257 reversed single #
loop $-1 $-1 $258 $97 #
plane-surface $-1 3.5148989810698872 27.153747889434307 109.9352575706307 -1 0 0 0 0.50000000669873634 0.8660253999169214 forward_v I I I I #
coedge $-1 $259 $260 $261 $262 reversed $98 $-1 #
coedge $-1 $161 $100 $263 $264 reversed $63 $-1 #
coedge $-1 $100 $160 $259 $265 reversed $63 $-1 #
coedge $-1 $261 $266 $100 $163 forward $267 $-1 #
edge $-1 $268 -13.594936362439586 $269 -1.1693445126637307 $162 $270 forward 7 unknown #
loop $-1 $-1 $169 $101 #
plane-surface $-1 -2.2764354327587313 -19.891145468287547 28.451113493972315 0 0.50000000669873634 0.8660253999169214 1 0 0 forward_v I I I I #
loop $-1 $-1 $271 $65 #
coedge $-1 $167 $167 $168 $272 reversed $102 $-1 #
coedge $-1 $168 $168 $167 $272 forward $104 $-1 #
coedge $-1 $169 $169 $105 $170 forward $164 $-1 #
edge $-1 $273 -5.7086280364989499e-016 $273 6.2831853071795996 $169 $274 forward 7 unknown #
loop $-1 $-1 $176 $106 #
plane-surface $-1 -2.2764354327587313 -19.891145468287547 28.451113493972315 0 0.50000000669873634 0.8660253999169214 1 0 0 forward_v I I I I #
loop $-1 $-1 $275 $68 #
coedge $-1 $174 $174 $175 $276 reversed $107 $-1 #
coedge $-1 $175 $175 $174 $276 forward $109 $-1 #
coedge $-1 $176 $176 $110 $177 forward $171 $-1 #
edge $-1 $277 -5.7086280364989499e-016 $277 6.2831853071795996 $176 $278 forward 7 unknown #
face $-1 $279 $280 $37 $-1 $281 reversed single #
loop $-1 $-1 $184 $111 #
plane-surface $-1 0 0 8.4532217502403366 0 0 1 1 0 0 forward_v I I I I #
coedge $-1 $282 $283 $284 $285 reversed $112 $-1 #
coedge $-1 $183 $114 $286 $287 reversed $72 $-1 #
coedge $-1 $114 $182 $282 $288 reversed $72 $-1 #
coedge $-1 $284 $289 $114 $185 forward $179 $-1 #
edge $-1 $290 -13.594936362439586 $291 -1.1693445126637307 $184 $292 forward 7 unknown #
loop $-1 $-1 $191 $115 #
plane-surface $-1 41.253558313610569 -19.891145468287547 28.451113493972315 0 0.50000000669873634 0.8660253999169214 1 0 0 forward_v I I I I #
loop $-1 $-1 $293 $74 #
coedge $-1 $189 $189 $190 $294 reversed $116 $-1 #
coedge $-1 $190 $190 $189 $294 forward $118 $-1 #
coedge $-1 $191 $191 $119 $192 forward $186 $-1 #
edge $-1 $295 -5.7086280364989499e-016 $295 6.2831853071795996 $191 $296 forward 7 unknown #
loop $-1 $-1 $198 $120 #
plane-surface $-1 41.253558313610569 -19.891145468287547 28.451113493972315 0 0.50000000669873634 0.8660253999169214 1 0 0 forward_v I I I I #
loop $-1 $-1 $297 $77 #
coedge $-1 $196 $196 $197 $298 reversed $121 $-1 #
coedge $-1 $197 $197 $196 $298 forward $123 $-1 #
coedge $-1 $198 $198 $124 $199 forward $193 $-1 #
edge $-1 $299 -5.7086280364989499e-016 $299 6.2831853071795996 $198 $300 forward 7 unknown #
face $-1 $301 $302 $30 $-1 $303 reversed single #
loop $-1 $-1 $304 $125 #
plane-surface $-1 -47.044892727439191 0 0 1 0 0 0 0 -1 forward_v I I I I #
coedge $-1 $305 $211 $306 $307 forward $126 $-1 #
coedge $-1 $308 $128 $305 $309 forward $81 $-1 #
coedge $-1 $128 $308 $310 $311 forward $81 $-1 #
coedge $-1 $214 $213 $128 $207 reversed $215 $-1 #
edge $-1 $312 -27.17181030715674 $313 27.17181030715674 $206 $314 forward 7 unknown #
coedge $-1 $130 $129 $315 $316 forward $51 $-1 #
coedge $-1 $317 $318 $129 $210 reversed $302 $-1 #
edge $-1 $217 -47.044892727439191 $319 47.044892727439191 $209 $320 forward 7 unknown #
coedge $-1 $203 $321 $130 $212 reversed $126 $-1 #
edge $-1 $322 -47.044892727439191 $216 47.044892727439191 $211 $323 forward 7 unknown #
coedge $-1 $206 $131 $321 $324 forward $215 $-1 #
coedge $-1 $131 $206 $317 $325 reversed $215 $-1 #
loop $-1 $-1 $213 $301 #
vertex $-1 $132 $326 #
vertex $-1 $132 $327 #
straight-curve $-1 47.044892727439191 0 8.4532217502403366 0 1 0 I I #
face $-1 $328 $329 $31 $-1 $330 reversed single #
loop $-1 $-1 $331 $133 #
plane-surface $-1 0 -27.17181030715674 0 0 1 0 0 0 1 forward_v I I I I #
coedge $-1 $225 $139 $332 $333 reversed $134 $-1 #
coedge $-1 $334 $136 $331 $335 reversed $85 $-1 #
coedge $-1 $136 $334 $336 $337 reversed $85 $-1 #
coedge $-1 $232 $222 $136 $226 reversed $134 $-1 #
edge $-1 $338 -27.17181030715674 $339 27.17181030715674 $225 $340 forward 7 unknown #
coedge $-1 $138 $137 $341 $342 reversed $54 $-1 #
coedge $-1 $343 $344 $137 $229 forward $345 $-1 #
edge $-1 $346 -25.279895854254541 $234 -18.250097892114759 $228 $347 forward 7 unknown #
coedge $-1 $348 $332 $138 $231 forward $220 $-1 #
edge $-1 $233 18.250097892114759 $349 25.279895854254541 $230 $350 forward 7 unknown #
coedge $-1 $139 $225 $343 $351 reversed $134 $-1 #
vertex $-1 $231 $352 #
vertex $-1 $229 $353 #
straight-curve $-1 -40.015094765299409 0 -3.7148632621892839 0 1 0 I I #
face $-1 $-1 $354 $32 $-1 $355 reversed single #
loop $-1 $-1 $147 $141 #
plane-surface $-1 0 -27.17181030715674 0 0 1 0 0 0 1 forward_v I I I I #
coedge $-1 $244 $356 $357 $358 forward $142 $-1 #
coedge $-1 $357 $144 $146 $246 forward $89 $-1 #
coedge $-1 $144 $357 $359 $360 reversed $89 $-1 #
coedge $-1 $361 $147 $144 $243 forward $237 $-1 #
edge $-1 $249 14.804956344390305 $362 26.428276370162692 $242 $363 forward 7 unknown #
coedge $-1 $364 $239 $145 $245 forward $142 $-1 #
edge $-1 $365 -21.816666662744488 $248 -17.278321863481345 $244 $366 forward 7 unknown #
edge $-1 $249 -1.888283279974768e-014 $365 6.0133658825799703 $146 $367 forward 7 unknown #
coedge $-1 $147 $361 $364 $368 reversed $237 $-1 #
vertex $-1 $368 $369 #
vertex $-1 $148 $370 #
straight-curve $-1 35.421572701666804 -27.17181030715674 37.759280275865862 0 0 -1 I I #
coedge $-1 $251 $251 $-1 $371 reversed $151 $-1 #
edge $-1 $372 0 $372 6.2831853071796004 $152 $373 forward 7 unknown #
vertex $-1 $155 $374 #
ellipse-curve $-1 41.233232714552997 -24.902637907525172 6.4806602353073917 0 -0.6560590369687036 0.75470957328743171 1 0 0 1 I I #
face $-1 $-1 $267 $34 $-1 $375 forward single #
loop $-1 $-1 $376 $156 #
plane-surface $-1 0 27.17181030715674 0 0 -1 0 0 0 -1 forward_v I I I I #
coedge $-1 $377 $378 $379 $380 reversed $157 $-1 #
coedge $-1 $381 $159 $161 $265 forward $98 $-1 #
coedge $-1 $159 $381 $377 $382 forward $98 $-1 #
coedge $-1 $379 $162 $159 $262 forward $267 $-1 #
edge $-1 $269 -6.9295521302079841 $383 4.6531166974492528 $261 $384 forward 7 unknown #
coedge $-1 $385 $386 $160 $264 forward $256 $-1 #
edge $-1 $387 -53.688325962533355 $268 -46.51440703507501 $263 $388 forward 7 unknown #
edge $-1 $269 39.995782951621543 $387 54.34362061431348 $161 $389 forward 7 unknown #
coedge $-1 $162 $379 $385 $390 forward $267 $-1 #
loop $-1 $-1 $379 $255 #
vertex $-1 $264 $391 #
vertex $-1 $163 $392 #
straight-curve $-1 -8.0677698465873497 13.576873944717153 8.4532217502403384 0 -1 0 I I #
coedge $-1 $271 $271 $-1 $393 reversed $166 $-1 #
edge $-1 $394 0 $394 6.2831853071796004 $167 $395 forward 7 unknown #
vertex $-1 $170 $396 #
ellipse-curve $-1 -4.7584358958281427 20.959014382268812 4.8662622865111649 0 0.50000000669873634 0.8660253999169214 1.5 0 0 1 I I #
coedge $-1 $275 $275 $-1 $397 reversed $173 $-1 #
edge $-1 $398 0 $398 6.2831853071796004 $174 $399 forward 7 unknown #
vertex $-1 $177 $400 #
ellipse-curve $-1 0.20556503031067308 20.959014382268812 4.8662622865111649 0 0.50000000669873634 0.8660253999169214 1.5 0 0 1 I I #
face $-1 $-1 $401 $37 $-1 $402 reversed single #
loop $-1 $-1 $403 $178 #
plane-surface $-1 47.044892727439191 0 0 -1 0 0 0 0 1 forward_v I I I I #
coedge $-1 $404 $181 $183 $288 forward $112 $-1 #
coedge $-1 $181 $404 $403 $405 reversed $112 $-1 #
coedge $-1 $406 $184 $181 $285 forward $179 $-1 #
edge $-1 $291 14.835444742976662 $407 26.418113570633906 $284 $408 forward 7 unknown #
coedge $-1 $409 $410 $182 $287 forward $401 $-1 #
edge $-1 $411 -53.688325962533355 $290 -46.51440703507501 $286 $412 forward 7 unknown #
edge $-1 $291 39.995782951621543 $411 54.34362061431348 $183 $413 forward 7 unknown #
coedge $-1 $184 $406 $409 $414 forward $179 $-1 #
vertex $-1 $287 $415 #
vertex $-1 $185 $416 #
straight-curve $-1 35.462223899781947 13.576873944717153 8.4532217502403384 0 -1 0 I I #
coedge $-1 $293 $293 $-1 $417 reversed $188 $-1 #
edge $-1 $418 0 $418 6.2831853071796004 $189 $419 forward 7 unknown #
vertex $-1 $192 $420 #
ellipse-curve $-1 38.771557850541157 20.959014382268812 4.8662622865111649 0 0.50000000669873634 0.8660253999169214 1.5 0 0 1 I I #
coedge $-1 $297 $297 $-1 $421 reversed $195 $-1 #
edge $-1 $422 0 $422 6.2831853071796004 $196 $423 forward 7 unknown #
vertex $-1 $199 $424 #
ellipse-curve $-1 43.735558776679966 20.959014382268812 4.8662622865111649 0 0.50000000669873634 0.8660253999169214 1.5 0 0 1 I I #
face $-1 $-1 $215 $30 $-1 $425 reversed single #
loop $-1 $-1 $317 $200 #
plane-surface $-1 0 27.17181030715674 0 0 -1 0 0 0 -1 forward_v I I I I #
coedge $-1 $426 $315 $318 $427 forward $201 $-1 #
coedge $-1 $321 $203 $204 $309 reversed $126 $-1 #
coedge $-1 $315 $426 $203 $307 reversed $201 $-1 #
edge $-1 $322 -8.4532217502403366 $428 8.4532217502403366 $306 $429 forward 7 unknown #
coedge $-1 $205 $204 $426 $430 forward $81 $-1 #
edge $-1 $313 -47.044892727439191 $428 47.044892727439191 $305 $431 forward 7 unknown #
coedge $-1 $318 $317 $205 $311 reversed $302 $-1 #
edge $-1 $432 -47.044892727439191 $312 47.044892727439191 $310 $433 forward 7 unknown #
vertex $-1 $207 $434 #
vertex $-1 $324 $435 #
straight-curve $-1 47.044892727439191 0 -8.4532217502403366 0 -1 0 I I #
coedge $-1 $304 $306 $208 $316 reversed $201 $-1 #
edge $-1 $319 -27.17181030715674 $322 27.17181030715674 $315 $436 forward 7 unknown #
coedge $-1 $310 $209 $214 $325 forward $302 $-1 #
coedge $-1 $209 $310 $304 $427 reversed $302 $-1 #
vertex $-1 $210 $437 #
straight-curve $-1 0 27.17181030715674 8.4532217502403366 -1 0 0 I I #
coedge $-1 $211 $305 $213 $324 reversed $126 $-1 #
vertex $-1 $316 $438 #
straight-curve $-1 0 -27.17181030715674 8.4532217502403366 1 0 0 I I #
edge $-1 $216 -8.4532217502403366 $313 8.4532217502403366 $213 $439 forward 7 unknown #
edge $-1 $217 -8.4532217502403366 $312 8.4532217502403366 $214 $440 forward 7 unknown #
point $-1 47.044892727439191 -27.17181030715674 8.4532217502403366 #
point $-1 47.044892727439191 27.17181030715674 8.4532217502403366 #
face $-1 $-1 $345 $31 $-1 $441 reversed single #
loop $-1 $-1 $442 $219 #
plane-surface $-1 -47.044892727439191 0 0 1 0 0 0 0 -1 forward_v I I I I #
coedge $-1 $332 $348 $223 $335 forward $220 $-1 #
coedge $-1 $230 $331 $222 $333 forward $220 $-1 #
edge $-1 $339 -4.1074316310946415 $233 -1.1074316310946419 $332 $443 forward 7 unknown #
coedge $-1 $224 $223 $442 $444 reversed $85 $-1 #
edge $-1 $445 -25.279895854254541 $339 -18.250097892114759 $331 $446 forward 7 unknown #
coedge $-1 $344 $343 $224 $337 forward $345 $-1 #
edge $-1 $338 18.250097892114759 $447 25.279895854254541 $336 $448 forward 7 unknown #
vertex $-1 $337 $449 #
vertex $-1 $335 $450 #
straight-curve $-1 -40.015094765299409 0 -6.7148632621892839 0 -1 0 I I #
coedge $-1 $451 $452 $227 $342 forward $329 $-1 #
edge $-1 $349 -27.17181030715674 $346 27.17181030715674 $341 $453 forward 7 unknown #
coedge $-1 $336 $228 $232 $351 forward $345 $-1 #
coedge $-1 $228 $336 $451 $454 reversed $345 $-1 #
loop $-1 $-1 $336 $328 #
vertex $-1 $454 $455 #
straight-curve $-1 -21.76499687318465 27.17181030715674 -3.7148632621892839 1 0 0 I I #
coedge $-1 $331 $230 $452 $456 forward $220 $-1 #
vertex $-1 $456 $457 #
straight-curve $-1 -21.76499687318465 -27.17181030715674 -3.7148632621892839 -1 0 0 I I #
edge $-1 $234 1.1074316310946419 $338 4.1074316310946415 $343 $458 forward 7 unknown #
point $-1 -40.015094765299409 -27.17181030715674 -3.7148632621892839 #
point $-1 -40.015094765299409 27.17181030715674 -3.7148632621892839 #
loop $-1 $-1 $359 $236 #
plane-surface $-1 47.044892727439191 0 0 -1 0 0 0 0 1 forward_v I I I I #
coedge $-1 $239 $364 $459 $460 forward $142 $-1 #
coedge $-1 $241 $240 $239 $358 reversed $89 $-1 #
edge $-1 $461 -26.428276370162692 $365 -14.804956344390305 $239 $462 forward 7 unknown #
coedge $-1 $459 $463 $241 $360 forward $354 $-1 #
edge $-1 $362 -8.7746232286563082 $461 -2.7612573460763192 $359 $464 forward 7 unknown #
coedge $-1 $247 $242 $463 $465 reversed $237 $-1 #
vertex $-1 $243 $466 #
straight-curve $-1 20.616616357276499 -27.17181030715674 4.5080987203744503 1 0 0 I I #
coedge $-1 $356 $244 $247 $368 forward $142 $-1 #
vertex $-1 $245 $467 #
straight-curve $-1 35.421572701666804 -44.450132170638085 8.4532217502403384 0 -1 0 I I #
straight-curve $-1 35.421572701666804 -27.171810307156726 4.5080987203744627 0 0.75470957328743171 0.6560590369687036 I I #
edge $-1 $248 35.421572701666804 $468 47.044892727439191 $247 $469 forward 7 unknown #
point $-1 35.421572701666804 -27.17181030715674 8.4532217502403366 #
point $-1 35.421572701666804 -27.17181030715674 4.5080987203744503 #
edge $-1 $470 1 $470 0 $251 $-1 forward 7 unknown #
vertex $-1 $252 $471 #
ellipse-curve $-1 41.233232714552997 -22.572003545535832 3.7995721537329459 0 -0.6560590369687036 0.75470957328743171 1 0 0 1 I I #
point $-1 42.233232714552997 -24.902637907525179 6.4806602353074014 #
plane-surface $-1 0 0 8.4532217502403366 0 0 1 1 0 0 forward_v I I I I #
coedge $-1 $386 $385 $378 $472 forward $256 $-1 #
coedge $-1 $378 $258 $260 $382 reversed $157 $-1 #
coedge $-1 $258 $377 $376 $472 reversed $157 $-1 #
coedge $-1 $266 $261 $258 $380 forward $267 $-1 #
edge $-1 $383 1.1693445126637307 $473 13.594936362439586 $379 $474 forward 7 unknown #
coedge $-1 $260 $259 $386 $475 reversed $98 $-1 #
edge $-1 $476 -54.34362061431348 $383 -39.995782951621543 $377 $477 forward 7 unknown #
vertex $-1 $262 $478 #
straight-curve $-1 -1.1382177163793656 14.746218457380886 8.4532217502403384 1 0 0 I I #
coedge $-1 $376 $263 $266 $390 reversed $256 $-1 #
coedge $-1 $263 $376 $381 $475 forward $256 $-1 #
vertex $-1 $264 $479 #
straight-curve $-1 -8.0677698465873497 27.17181030715674 54.967628785315348 0 0 1 I I #
straight-curve $-1 -8.0677698465873497 -19.891145468287547 28.451113493972315 0 0.8660253999169214 -0.50000000669873634 I I #
edge $-1 $473 -3.5148989810698872 $268 8.0677698465873497 $385 $480 forward 7 unknown #
point $-1 -8.0677698465873497 27.17181030715674 8.4532217502403366 #
point $-1 -8.0677698465873497 14.746218457380884 8.4532217502403384 #
edge $-1 $481 1 $481 0 $271 $-1 forward 7 unknown #
vertex $-1 $272 $482 #
ellipse-curve $-1 -4.7584358958281427 19.619099205773676 2.5454611644461291 0 0.50000000669873634 0.8660253999169214 1.5 0 0 1 I I #
point $-1 -3.2584358958281427 20.959014382268808 4.8662622865111604 #
edge $-1 $483 1 $483 0 $275 $-1 forward 7 unknown #
vertex $-1 $276 $484 #
ellipse-curve $-1 0.20556503031067308 19.619099205773676 2.5454611644461291 0 0.50000000669873634 0.8660253999169214 1.5 0 0 1 I I #
point $-1 1.7055650303106731 20.959014382268808 4.8662622865111604 #
loop $-1 $-1 $286 $279 #
plane-surface $-1 0 27.17181030715674 0 0 -1 0 0 0 -1 forward_v I I I I #
coedge $-1 $485 $486 $283 $405 forward $280 $-1 #
coedge $-1 $283 $282 $410 $487 reversed $112 $-1 #
edge $-1 $407 24.269885878345516 $488 38.617723541037464 $403 $489 forward 7 unknown #
coedge $-1 $289 $284 $486 $490 forward $179 $-1 #
vertex $-1 $490 $491 #
straight-curve $-1 20.626779156805284 14.746218457380886 8.4532217502403384 1 0 0 I I #
coedge $-1 $492 $286 $289 $414 reversed $401 $-1 #
coedge $-1 $286 $492 $404 $487 forward $401 $-1 #
vertex $-1 $287 $493 #
straight-curve $-1 35.462223899781947 27.17181030715674 54.967628785315348 0 0 1 I I #
straight-curve $-1 35.462223899781947 -19.891145468287547 28.451113493972315 0 0.8660253999169214 -0.50000000669873634 I I #
edge $-1 $494 -47.044892727439191 $290 -35.462223899781947 $409 $495 forward 7 unknown #
point $-1 35.462223899781947 27.17181030715674 8.4532217502403366 #
point $-1 35.462223899781947 14.746218457380884 8.4532217502403384 #
edge $-1 $496 1 $496 0 $293 $-1 forward 7 unknown #
vertex $-1 $294 $497 #
ellipse-curve $-1 38.771557850541157 19.619099205773676 2.5454611644461291 0 0.50000000669873634 0.8660253999169214 1.5 0 0 1 I I #
point $-1 40.271557850541157 20.959014382268808 4.8662622865111604 #
edge $-1 $498 1 $498 0 $297 $-1 forward 7 unknown #
vertex $-1 $298 $499 #
ellipse-curve $-1 43.735558776679966 19.619099205773676 2.5454611644461291 0 0.50000000669873634 0.8660253999169214 1.5 0 0 1 I I #
point $-1 45.235558776679966 20.959014382268808 4.8662622865111604 #
plane-surface $-1 47.044892727439191 0 0 -1 0 0 0 0 1 forward_v I I I I #
coedge $-1 $306 $304 $308 $430 reversed $201 $-1 #
edge $-1 $319 -8.4532217502403366 $432 8.4532217502403366 $318 $500 forward 7 unknown #
vertex $-1 $430 $501 #
straight-curve $-1 -47.044892727439191 -27.17181030715674 0 0 0 -1 I I #
edge $-1 $428 -27.17181030715674 $432 27.17181030715674 $426 $502 forward 7 unknown #
straight-curve $-1 0 -27.17181030715674 -8.4532217502403366 -1 0 0 I I #
vertex $-1 $311 $503 #
straight-curve $-1 0 27.17181030715674 -8.4532217502403366 1 0 0 I I #
point $-1 47.044892727439191 27.17181030715674 -8.4532217502403366 #
point $-1 47.044892727439191 -27.17181030715674 -8.4532217502403366 #
straight-curve $-1 -47.044892727439191 0 8.4532217502403366 0 -1 0 I I #
point $-1 -47.044892727439191 27.17181030715674 8.4532217502403366 #
point $-1 -47.044892727439191 -27.17181030715674 8.4532217502403366 #
straight-curve $-1 47.044892727439191 -27.17181030715674 0 0 0 -1 I I #
straight-curve $-1 47.044892727439191 27.17181030715674 0 0 0 -1 I I #
plane-surface $-1 0 27.17181030715674 0 0 -1 0 0 0 -1 forward_v I I I I #
coedge $-1 $452 $451 $334 $444 forward $329 $-1 #
straight-curve $-1 -40.015094765299409 -27.17181030715674 -2.6074316310946419 0 0 1 I I #
edge $-1 $447 -27.17181030715674 $445 27.17181030715674 $442 $504 forward 7 unknown #
vertex $-1 $335 $505 #
straight-curve $-1 -21.76499687318465 -27.17181030715674 -6.7148632621892839 1 0 0 I I #
vertex $-1 $337 $506 #
straight-curve $-1 -21.76499687318465 27.17181030715674 -6.7148632621892839 -1 0 0 I I #
point $-1 -40.015094765299409 27.17181030715674 -6.7148632621892839 #
point $-1 -40.015094765299409 -27.17181030715674 -6.7148632621892839 #
coedge $-1 $442 $341 $344 $454 forward $329 $-1 #
coedge $-1 $341 $442 $348 $456 reversed $329 $-1 #
straight-curve $-1 -47.044892727439191 0 -3.7148632621892839 0 1 0 I I #
edge $-1 $346 3.7148632621892839 $447 6.7148632621892839 $344 $507 forward 7 unknown #
point $-1 -47.044892727439191 27.17181030715674 -3.7148632621892839 #
edge $-1 $349 3.7148632621892839 $445 6.7148632621892839 $452 $508 forward 7 unknown #
point $-1 -47.044892727439191 -27.17181030715674 -3.7148632621892839 #
straight-curve $-1 -40.015094765299409 27.17181030715674 -2.6074316310946419 0 0 -1 I I #
coedge $-1 $463 $359 $356 $460 reversed $354 $-1 #
edge $-1 $468 -27.17181030715674 $461 -22.633465507893597 $459 $509 forward 7 unknown #
vertex $-1 $360 $510 #
straight-curve $-1 20.616616357276499 -22.633465507893597 8.4532217502403366 -1 0 0 I I #
coedge $-1 $359 $459 $361 $465 forward $354 $-1 #
straight-curve $-1 47.044892727439191 -20.549518154499552 10.264769585529924 0 0.75470957328743171 0.6560590369687036 I I #
edge $-1 $468 -8.4532217502403366 $362 -4.5080987203744503 $463 $511 forward 7 unknown #
point $-1 47.044892727439191 -27.17181030715674 4.5080987203744503 #
point $-1 35.421572701666804 -22.633465507893597 8.4532217502403366 #
vertex $-1 $460 $512 #
straight-curve $-1 0 -27.17181030715674 8.4532217502403366 1 0 0 I I #
vertex $-1 $371 $513 #
point $-1 42.233232714552997 -22.572003545535832 3.7995721537329459 #
edge $-1 $473 46.51440703507501 $476 53.688325962533355 $376 $514 forward 7 unknown #
vertex $-1 $390 $515 #
straight-curve $-1 3.5148989810698872 13.576873944717153 8.4532217502403384 0 1 0 I I #
edge $-1 $476 -4.6531166974492528 $387 6.9295521302079841 $386 $516 forward 7 unknown #
vertex $-1 $475 $517 #
straight-curve $-1 3.5148989810698872 -19.891145468287547 28.451113493972315 0 -0.8660253999169214 0.50000000669873634 I I #
point $-1 3.5148989810698872 14.746218457380884 8.4532217502403384 #
point $-1 -8.0677698465873497 27.17181030715674 1.2793028227819896 #
straight-curve $-1 0 27.17181030715674 8.4532217502403366 -1 0 0 I I #
vertex $-1 $393 $518 #
point $-1 -3.2584358958281427 19.619099205773676 2.5454611644461291 #
vertex $-1 $397 $519 #
point $-1 1.7055650303106731 19.619099205773676 2.5454611644461291 #
coedge $-1 $486 $403 $492 $520 reversed $280 $-1 #
coedge $-1 $403 $485 $406 $490 reversed $280 $-1 #
edge $-1 $488 -26.418113570633906 $411 -14.835444742976662 $410 $521 forward 7 unknown #
vertex $-1 $405 $522 #
straight-curve $-1 47.044892727439191 -6.2721191663513354 20.588164851990665 0 0.8660253999169214 -0.50000000669873634 I I #
edge $-1 $407 14.746218457380884 $494 27.17181030715674 $486 $523 forward 7 unknown #
point $-1 47.044892727439191 14.746218457380884 8.4532217502403384 #
coedge $-1 $410 $409 $485 $520 forward $401 $-1 #
point $-1 35.462223899781947 27.17181030715674 1.2793028227819896 #
vertex $-1 $490 $524 #
straight-curve $-1 0 27.17181030715674 8.4532217502403366 -1 0 0 I I #
vertex $-1 $417 $525 #
point $-1 40.271557850541157 19.619099205773676 2.5454611644461291 #
vertex $-1 $421 $526 #
point $-1 45.235558776679966 19.619099205773676 2.5454611644461291 #
straight-curve $-1 -47.044892727439191 27.17181030715674 0 0 0 -1 I I #
point $-1 -47.044892727439191 -27.17181030715674 -8.4532217502403366 #
straight-curve $-1 -47.044892727439191 0 -8.4532217502403366 0 1 0 I I #
point $-1 -47.044892727439191 27.17181030715674 -8.4532217502403366 #
straight-curve $-1 -47.044892727439191 0 -6.7148632621892839 0 -1 0 I I #
point $-1 -47.044892727439191 -27.17181030715674 -6.7148632621892839 #
point $-1 -47.044892727439191 27.17181030715674 -6.7148632621892839 #
straight-curve $-1 -47.044892727439191 27.17181030715674 0 0 0 -1 I I #
straight-curve $-1 -47.044892727439191 -27.17181030715674 0 0 0 -1 I I #
straight-curve $-1 47.044892727439191 0 8.4532217502403366 0 1 0 I I #
point $-1 47.044892727439191 -22.633465507893597 8.4532217502403366 #
straight-curve $-1 47.044892727439191 -27.17181030715674 0 0 0 -1 I I #
point $-1 47.044892727439191 -27.17181030715674 8.4532217502403366 #
point $-1 41.233232714552997 -21.915944508567126 3.0448625804455141 #
straight-curve $-1 3.5148989810698872 27.17181030715674 54.967628785315348 0 0 -1 I I #
point $-1 3.5148989810698872 27.17181030715674 8.4532217502403366 #
straight-curve $-1 -1.1382177163793656 27.17181030715674 1.2793028227819896 -1 0 0 I I #
point $-1 3.5148989810698872 27.17181030715674 1.2793028227819896 #
point $-1 -4.7584358958281427 18.869099195725571 1.246423064570747 #
point $-1 0.20556503031067308 18.869099195725571 1.246423064570747 #
edge $-1 $494 -8.4532217502403366 $488 -1.2793028227819896 $485 $527 forward 7 unknown #
straight-curve $-1 20.626779156805284 27.17181030715674 1.2793028227819896 -1 0 0 I I #
point $-1 47.044892727439191 27.17181030715674 1.2793028227819896 #
straight-curve $-1 47.044892727439191 0 8.4532217502403366 0 1 0 I I #
point $-1 47.044892727439191 27.17181030715674 8.4532217502403366 #
point $-1 38.771557850541157 18.869099195725571 1.246423064570747 #
point $-1 43.735558776679966 18.869099195725571 1.246423064570747 #
straight-curve $-1 47.044892727439191 27.17181030715674 0 0 0 -1 I I #
End-of-ACIS-data 