500 0 5 0           
7 Unknown 11 ACIS 5.0 NT 24 Thu Mar 25 16:07:12 1999 
-1 9.9999999999999995e-007 1e-010 
body $-1 $5 $-1 $6 #
body $-1 $7 $-1 $8 #
body $-1 $9 $-1 $10 #
body $-1 $11 $-1 $12 #
body $-1 $13 $-1 $14 #
lump $-1 $-1 $15 $0 #
transform $-1 1 0 0 0 1 0 0 0 1 56.88161870174261 27.779241771073515 12.547753034489816 1 rotate no_reflect no_shear #
lump $-1 $-1 $16 $1 #
transform $-1 1 0 0 0 1 0 0 0 1 56.88161870174261 27.779241771073515 12.547753034489816 1 rotate no_reflect no_shear #
lump $-1 $-1 $17 $2 #
transform $-1 1 0 0 0 1 0 0 0 1 56.88161870174261 27.779241771073515 12.547753034489816 1 rotate no_reflect no_shear #
lump $-1 $-1 $18 $3 #
transform $-1 1 0 0 0 1 0 0 0 1 56.88161870174261 27.779241771073515 12.547753034489816 1 rotate no_reflect no_shear #
lump $-1 $-1 $19 $4 #
transform $-1 1 0 0 0 1 0 0 0 1 56.88161870174261 27.779241771073515 12.547753034489816 1 rotate no_reflect no_shear #
shell $-1 $-1 $-1 $20 $-1 $5 #
shell $-1 $-1 $-1 $21 $-1 $7 #
shell $-1 $-1 $-1 $22 $-1 $9 #
shell $-1 $-1 $-1 $23 $-1 $11 #
shell $-1 $-1 $-1 $24 $-1 $13 #
face $-1 $25 $26 $15 $-1 $27 forward single #
face $-1 $28 $29 $16 $-1 $30 forward single #
face $-1 $31 $32 $17 $-1 $33 reversed single #
face $-1 $34 $35 $18 $-1 $36 forward single #
face $-1 $37 $38 $19 $-1 $39 reversed single #
face $-1 $40 $41 $15 $-1 $42 reversed single #
loop $-1 $-1 $43 $20 #
plane-surface $-1 0 0 12.547753034489816 0 0 1 1 0 0 forward_v I I I I #
face $-1 $44 $45 $16 $-1 $46 forward single #
loop $-1 $-1 $47 $21 #
plane-surface $-1 5.6929453246860611 51.872690467490699 127.16112401039059 1 0 0 0 -0.6018150307709319 -0.79863550430605224 forward_v I I I I #
face $-1 $48 $49 $17 $-1 $50 reversed single #
loop $-1 $51 $52 $22 #
cone-surface $-1 19.201179704629595 20.053051751818614 5.977433066584565 0 -0.6018150307709319 -0.79863550430605224 1.5 0 0 1 I I 0 1 1.5 forward I I I I #
face $-1 $53 $54 $18 $-1 $55 forward single #
loop $-1 $-1 $56 $23 #
plane-surface $-1 32.709414084573154 -96.243667989652806 93.725193527887058 -1 0 0 0 -0.6018150307709319 0.79863550430605224 forward_v I I I I #
face $-1 $57 $58 $19 $-1 $59 reversed single #
loop $-1 $60 $61 $24 #
cone-surface $-1 19.201179704629595 -20.053051751818622 5.9774330665845685 0 0.6018150307709319 -0.79863550430605224 1.5 0 0 1 I I 0 1 1.5 forward I I I I #
face $-1 $62 $63 $15 $-1 $64 reversed single #
loop $-1 $-1 $65 $25 #
plane-surface $-1 0 0 -12.547753034489816 0 0 1 1 0 0 forward_v I I I I #
coedge $-1 $66 $67 $68 $69 forward $26 $-1 #
face $-1 $70 $71 $16 $-1 $72 forward single #
loop $-1 $-1 $73 $28 #
plane-surface $-1 19.20117970462961 -16.591735751088592 36.305763535169035 0 0.6018150307709319 0.79863550430605224 1 0 0 forward_v I I I I #
coedge $-1 $74 $75 $76 $77 reversed $29 $-1 #
face $-1 $78 $79 $17 $-1 $80 forward single #
loop $-1 $81 $82 $31 #
cone-surface $-1 19.201179704629595 18.297017129995382 3.6470964613619365 0 -0.6018150307709319 -0.79863550430605224 0.75 0 0 1 I I -0.70710678118654757 0.70710678118654757 0.75 forward I I I I #
loop $-1 $-1 $83 $22 #
coedge $-1 $52 $52 $84 $85 reversed $32 $-1 #
face $-1 $86 $87 $18 $-1 $88 forward single #
loop $-1 $-1 $89 $34 #
plane-surface $-1 19.20117970462961 -27.779241771073515 2.8698330526654985 0 -0.6018150307709319 0.79863550430605224 1 0 0 forward_v I I I I #
coedge $-1 $90 $91 $92 $93 reversed $35 $-1 #
face $-1 $94 $95 $19 $-1 $96 forward single #
loop $-1 $97 $98 $37 #
cone-surface $-1 19.201179704629595 -18.297017129995389 3.6470964613619401 0 0.6018150307709319 -0.79863550430605224 0.75 0 0 1 I I -0.70710678118654757 0.70710678118654757 0.75 forward I I I I #
loop $-1 $-1 $99 $24 #
coedge $-1 $61 $61 $100 $101 reversed $38 $-1 #
face $-1 $102 $103 $15 $-1 $104 reversed single #
loop $-1 $-1 $105 $40 #
plane-surface $-1 0 -27.779241771073515 0 0 1 0 0 0 1 forward_v I I I I #
coedge $-1 $106 $107 $108 $109 forward $41 $-1 #
coedge $-1 $110 $43 $111 $112 forward $26 $-1 #
coedge $-1 $43 $110 $113 $114 forward $26 $-1 #
coedge $-1 $115 $116 $43 $69 reversed $117 $-1 #
edge $-1 $118 -27.779241771073515 $119 27.779241771073515 $68 $120 forward 7 unknown #
face $-1 $121 $122 $16 $-1 $123 forward single #
loop $-1 $-1 $124 $44 #
plane-surface $-1 32.709414084573154 51.872690467490699 127.16112401039059 -1 0 0 0 0.6018150307709319 0.79863550430605224 forward_v I I I I #
coedge $-1 $125 $126 $127 $128 reversed $45 $-1 #
coedge $-1 $75 $47 $126 $129 forward $29 $-1 #
coedge $-1 $47 $74 $130 $131 reversed $29 $-1 #
coedge $-1 $132 $127 $47 $77 forward $122 $-1 #
edge $-1 $133 -11.00013680369155 $134 1.8428965373281656 $76 $135 forward 7 unknown #
face $-1 $136 $137 $17 $-1 $138 forward single #
loop $-1 $-1 $139 $48 #
plane-surface $-1 5.6929453246860611 51.872690467490699 127.16112401039059 1 0 0 0 -0.6018150307709319 -0.79863550430605224 forward_v I I I I #
loop $-1 $-1 $140 $31 #
coedge $-1 $82 $82 $83 $141 forward $49 $-1 #
coedge $-1 $83 $83 $82 $141 reversed $51 $-1 #
coedge $-1 $84 $84 $52 $85 forward $137 $-1 #
edge $-1 $142 -2.4652763824506879e-016 $142 6.2831853071796004 $84 $143 forward 7 unknown #
face $-1 $144 $145 $18 $-1 $146 forward single #
loop $-1 $-1 $147 $53 #
plane-surface $-1 5.6929453246860611 -96.243667989652806 93.725193527887058 1 0 0 0 0.6018150307709319 -0.79863550430605224 forward_v I I I I #
coedge $-1 $148 $149 $150 $151 reversed $54 $-1 #
coedge $-1 $91 $56 $149 $152 forward $35 $-1 #
coedge $-1 $56 $90 $153 $154 reversed $35 $-1 #
coedge $-1 $155 $150 $56 $93 forward $145 $-1 #
edge $-1 $156 -33.1856255647726 $157 -20.342592223752888 $92 $158 forward 7 unknown #
face $-1 $159 $160 $19 $-1 $161 forward single #
loop $-1 $-1 $162 $57 #
plane-surface $-1 32.709414084573154 -96.243667989652806 93.725193527887058 -1 0 0 0 -0.6018150307709319 0.79863550430605224 forward_v I I I I #
loop $-1 $-1 $163 $37 #
coedge $-1 $98 $98 $99 $164 forward $58 $-1 #
coedge $-1 $99 $99 $98 $164 reversed $60 $-1 #
coedge $-1 $100 $100 $61 $101 forward $160 $-1 #
edge $-1 $165 3.5634608198793902e-016 $165 6.2831853071796004 $100 $166 forward 7 unknown #
face $-1 $167 $168 $15 $-1 $169 reversed single #
loop $-1 $-1 $170 $62 #
plane-surface $-1 -56.88161870174261 0 0 1 0 0 0 0 -1 forward_v I I I I #
coedge $-1 $171 $113 $172 $173 forward $63 $-1 #
coedge $-1 $174 $65 $171 $175 forward $41 $-1 #
coedge $-1 $65 $174 $176 $177 forward $41 $-1 #
coedge $-1 $116 $115 $65 $109 reversed $117 $-1 #
edge $-1 $178 -27.779241771073515 $179 27.779241771073515 $108 $180 forward 7 unknown #
coedge $-1 $67 $66 $181 $182 forward $26 $-1 #
coedge $-1 $183 $184 $66 $112 reversed $168 $-1 #
edge $-1 $119 -56.88161870174261 $185 56.88161870174261 $111 $186 forward 7 unknown #
coedge $-1 $105 $187 $67 $114 reversed $63 $-1 #
edge $-1 $188 -56.88161870174261 $118 56.88161870174261 $113 $189 forward 7 unknown #
coedge $-1 $108 $68 $187 $190 forward $117 $-1 #
coedge $-1 $68 $108 $183 $191 reversed $117 $-1 #
loop $-1 $-1 $115 $167 #
vertex $-1 $69 $192 #
vertex $-1 $69 $193 #
straight-curve $-1 56.88161870174261 0 12.547753034489816 0 1 0 I I #
face $-1 $194 $195 $16 $-1 $196 reversed single #
loop $-1 $-1 $197 $70 #
plane-surface $-1 0 0 12.547753034489816 0 0 1 1 0 0 forward_v I I I I #
coedge $-1 $198 $199 $197 $200 reversed $71 $-1 #
coedge $-1 $201 $73 $199 $202 reversed $45 $-1 #
coedge $-1 $73 $201 $74 $129 reversed $45 $-1 #
coedge $-1 $76 $197 $73 $128 forward $122 $-1 #
edge $-1 $203 -23.10882423225835 $133 3.9076445276287437 $127 $204 forward 7 unknown #
edge $-1 $133 39.477263421362103 $205 55.558483542147044 $74 $206 forward 7 unknown #
coedge $-1 $207 $208 $75 $131 forward $209 $-1 #
edge $-1 $134 51.032808970705481 $205 60.710728952529799 $130 $210 forward 7 unknown #
coedge $-1 $211 $76 $208 $212 forward $122 $-1 #
vertex $-1 $128 $213 #
vertex $-1 $212 $214 #
straight-curve $-1 5.6929453246860611 25.93634523374535 12.547753034489816 0 1 0 I I #
face $-1 $215 $216 $17 $-1 $217 forward single #
loop $-1 $218 $84 $78 #
plane-surface $-1 19.20117970462961 -16.591735751088592 36.305763535169035 0 0.6018150307709319 0.79863550430605224 1 0 0 forward_v I I I I #
coedge $-1 $219 $220 $221 $222 reversed $79 $-1 #
coedge $-1 $140 $140 $-1 $223 forward $81 $-1 #
edge $-1 $224 0 $224 6.2831853071796004 $82 $225 forward 7 unknown #
vertex $-1 $85 $226 #
ellipse-curve $-1 19.201179704629595 21.357725100563652 7.7087930435776597 0 -0.6018150307709319 -0.79863550430605224 1.5 0 0 1 I I #
face $-1 $227 $228 $18 $-1 $229 reversed single #
loop $-1 $-1 $230 $86 #
plane-surface $-1 0 0 12.547753034489816 0 0 1 1 0 0 forward_v I I I I #
coedge $-1 $231 $232 $230 $233 reversed $87 $-1 #
coedge $-1 $234 $89 $232 $235 reversed $54 $-1 #
coedge $-1 $89 $234 $90 $152 reversed $54 $-1 #
coedge $-1 $92 $230 $89 $151 forward $145 $-1 #
edge $-1 $236 -3.9076445276287437 $156 23.10882423225835 $150 $237 forward 7 unknown #
edge $-1 $156 -16.081220120784938 $238 0 $90 $239 forward 7 unknown #
coedge $-1 $240 $241 $91 $154 forward $242 $-1 #
edge $-1 $157 34.314843729453713 $238 43.99276371127803 $153 $243 forward 7 unknown #
coedge $-1 $244 $92 $241 $245 forward $145 $-1 #
vertex $-1 $151 $246 #
vertex $-1 $245 $247 #
straight-curve $-1 32.709414084573154 -48.121833994826403 12.547753034489816 0 -1 0 I I #
face $-1 $248 $249 $19 $-1 $250 forward single #
loop $-1 $251 $100 $94 #
plane-surface $-1 19.20117970462961 -27.779241771073515 2.8698330526654985 0 -0.6018150307709319 0.79863550430605224 1 0 0 forward_v I I I I #
coedge $-1 $252 $253 $254 $255 reversed $95 $-1 #
coedge $-1 $163 $163 $-1 $256 forward $97 $-1 #
edge $-1 $257 0 $257 6.2831853071796004 $98 $258 forward 7 unknown #
vertex $-1 $101 $259 #
ellipse-curve $-1 19.201179704629595 -21.357725100563655 7.7087930435776588 0 0.6018150307709319 -0.79863550430605224 1.5 0 0 1 I I #
face $-1 $-1 $117 $15 $-1 $260 reversed single #
loop $-1 $-1 $183 $102 #
plane-surface $-1 0 27.779241771073515 0 0 -1 0 0 0 -1 forward_v I I I I #
coedge $-1 $261 $181 $184 $262 forward $103 $-1 #
coedge $-1 $187 $105 $106 $175 reversed $63 $-1 #
coedge $-1 $181 $261 $105 $173 reversed $103 $-1 #
edge $-1 $188 -12.547753034489816 $263 12.547753034489816 $172 $264 forward 7 unknown #
coedge $-1 $107 $106 $261 $265 forward $41 $-1 #
edge $-1 $179 -56.88161870174261 $263 56.88161870174261 $171 $266 forward 7 unknown #
coedge $-1 $184 $183 $107 $177 reversed $168 $-1 #
edge $-1 $267 -56.88161870174261 $178 56.88161870174261 $176 $268 forward 7 unknown #
vertex $-1 $109 $269 #
vertex $-1 $190 $270 #
straight-curve $-1 56.88161870174261 0 -12.547753034489816 0 -1 0 I I #
coedge $-1 $170 $172 $110 $182 reversed $103 $-1 #
edge $-1 $185 -27.779241771073515 $188 27.779241771073515 $181 $271 forward 7 unknown #
coedge $-1 $176 $111 $116 $191 forward $168 $-1 #
coedge $-1 $111 $176 $170 $262 reversed $168 $-1 #
vertex $-1 $112 $272 #
straight-curve $-1 0 27.779241771073515 12.547753034489816 -1 0 0 I I #
coedge $-1 $113 $171 $115 $190 reversed $63 $-1 #
vertex $-1 $182 $273 #
straight-curve $-1 0 -27.779241771073515 12.547753034489816 1 0 0 I I #
edge $-1 $118 -12.547753034489816 $179 12.547753034489816 $115 $274 forward 7 unknown #
edge $-1 $119 -12.547753034489816 $178 12.547753034489816 $116 $275 forward 7 unknown #
point $-1 56.88161870174261 -27.779241771073515 12.547753034489816 #
point $-1 56.88161870174261 27.779241771073515 12.547753034489816 #
face $-1 $276 $277 $16 $-1 $278 reversed single #
loop $-1 $-1 $279 $121 #
plane-surface $-1 0 0 -12.547753034489816 0 0 1 1 0 0 forward_v I I I I #
coedge $-1 $127 $280 $124 $200 forward $122 $-1 #
coedge $-1 $199 $124 $281 $282 reversed $71 $-1 #
coedge $-1 $124 $198 $125 $202 forward $71 $-1 #
edge $-1 $283 -1.8428965373281656 $203 11.00013680369155 $197 $284 forward 7 unknown #
coedge $-1 $126 $125 $207 $285 reversed $45 $-1 #
edge $-1 $286 -55.558483542147044 $203 -39.477263421362103 $199 $287 forward 7 unknown #
vertex $-1 $128 $288 #
straight-curve $-1 9.6005898523148048 14.936208430053805 12.547753034489817 -1 0 0 I I #
vertex $-1 $285 $289 #
straight-curve $-1 5.6929453246860611 -16.591735751088592 36.305763535169035 0 0.79863550430605224 -0.6018150307709319 I I #
coedge $-1 $281 $130 $201 $285 forward $209 $-1 #
coedge $-1 $130 $290 $132 $212 reversed $209 $-1 #
loop $-1 $-1 $281 $291 #
straight-curve $-1 5.6929453246860611 27.779241771073515 63.580562005195297 0 0 -1 I I #
coedge $-1 $292 $132 $293 $294 forward $122 $-1 #
edge $-1 $134 -5.6929453246860611 $295 56.88161870174261 $208 $296 forward 7 unknown #
point $-1 5.6929453246860611 14.936208430053799 12.547753034489816 #
point $-1 5.6929453246860611 27.779241771073515 12.547753034489816 #
face $-1 $297 $298 $17 $-1 $299 forward single #
loop $-1 $-1 $300 $136 #
plane-surface $-1 32.709414084573154 51.872690467490699 127.16112401039059 -1 0 0 0 0.6018150307709319 0.79863550430605224 forward_v I I I I #
loop $-1 $-1 $301 $78 #
coedge $-1 $220 $139 $302 $303 forward $79 $-1 #
coedge $-1 $139 $219 $304 $305 reversed $79 $-1 #
coedge $-1 $306 $307 $139 $222 forward $298 $-1 #
edge $-1 $308 -11.00013680369155 $309 1.8428965373281656 $221 $310 forward 7 unknown #
edge $-1 $311 1 $311 0 $140 $-1 forward 7 unknown #
vertex $-1 $141 $312 #
ellipse-curve $-1 19.201179704629595 18.748378403073581 4.2460730895914756 0 0.6018150307709319 0.79863550430605224 1.5 0 0 1 I I #
point $-1 20.701179704629595 21.357725100563648 7.7087930435776544 #
face $-1 $313 $314 $18 $-1 $315 reversed single #
loop $-1 $316 $317 $144 #
cone-surface $-1 19.201179704629595 20.053051751818614 5.977433066584565 0 -0.6018150307709319 -0.79863550430605224 1.5 0 0 1 I I 0 1 1.5 forward I I I I #
coedge $-1 $150 $318 $147 $233 forward $145 $-1 #
coedge $-1 $232 $147 $319 $320 reversed $87 $-1 #
coedge $-1 $147 $231 $148 $235 forward $87 $-1 #
edge $-1 $321 20.342592223752888 $236 33.1856255647726 $230 $322 forward 7 unknown #
coedge $-1 $149 $148 $240 $323 reversed $54 $-1 #
edge $-1 $324 0 $236 16.081220120784938 $232 $325 forward 7 unknown #
vertex $-1 $151 $326 #
straight-curve $-1 9.6005898523148048 -14.936208430053801 12.547753034489816 1 0 0 I I #
vertex $-1 $323 $327 #
straight-curve $-1 32.709414084573154 -27.779241771073515 2.8698330526654985 0 -0.79863550430605224 -0.6018150307709319 I I #
coedge $-1 $319 $153 $234 $323 forward $242 $-1 #
coedge $-1 $153 $328 $155 $245 reversed $242 $-1 #
loop $-1 $-1 $319 $329 #
straight-curve $-1 32.709414084573154 -27.779241771073515 46.862596763943529 0 0 -1 I I #
coedge $-1 $330 $155 $331 $332 forward $145 $-1 #
edge $-1 $157 32.709414084573154 $333 56.88161870174261 $241 $334 forward 7 unknown #
point $-1 32.709414084573154 -14.936208430053803 12.547753034489816 #
point $-1 32.709414084573154 -27.779241771073515 12.547753034489816 #
face $-1 $335 $336 $19 $-1 $337 forward single #
loop $-1 $-1 $338 $159 #
plane-surface $-1 5.6929453246860611 -96.243667989652806 93.725193527887058 1 0 0 0 0.6018150307709319 -0.79863550430605224 forward_v I I I I #
loop $-1 $-1 $339 $94 #
coedge $-1 $253 $162 $340 $341 forward $95 $-1 #
coedge $-1 $162 $252 $342 $343 reversed $95 $-1 #
coedge $-1 $344 $345 $162 $255 forward $336 $-1 #
edge $-1 $346 -33.1856255647726 $347 -20.342592223752888 $254 $348 forward 7 unknown #
edge $-1 $349 1 $349 0 $163 $-1 forward 7 unknown #
vertex $-1 $164 $350 #
ellipse-curve $-1 19.201179704629595 -18.748378403073588 4.2460730895914791 0 -0.6018150307709319 0.79863550430605224 1.5 0 0 1 I I #
point $-1 20.701179704629595 -21.357725100563655 7.7087930435776579 #
plane-surface $-1 56.88161870174261 0 0 -1 0 0 0 0 1 forward_v I I I I #
coedge $-1 $172 $170 $174 $265 reversed $103 $-1 #
edge $-1 $185 -12.547753034489816 $267 12.547753034489816 $184 $351 forward 7 unknown #
vertex $-1 $265 $352 #
straight-curve $-1 -56.88161870174261 -27.779241771073515 0 0 0 -1 I I #
edge $-1 $263 -27.779241771073515 $267 27.779241771073515 $261 $353 forward 7 unknown #
straight-curve $-1 0 -27.779241771073515 -12.547753034489816 -1 0 0 I I #
vertex $-1 $177 $354 #
straight-curve $-1 0 27.779241771073515 -12.547753034489816 1 0 0 I I #
point $-1 56.88161870174261 27.779241771073515 -12.547753034489816 #
point $-1 56.88161870174261 -27.779241771073515 -12.547753034489816 #
straight-curve $-1 -56.88161870174261 0 12.547753034489816 0 -1 0 I I #
point $-1 -56.88161870174261 27.779241771073515 12.547753034489816 #
point $-1 -56.88161870174261 -27.779241771073515 12.547753034489816 #
straight-curve $-1 56.88161870174261 -27.779241771073515 0 0 0 -1 I I #
straight-curve $-1 56.88161870174261 27.779241771073515 0 0 0 -1 I I #
face $-1 $291 $355 $16 $-1 $356 reversed single #
loop $-1 $-1 $357 $194 #
plane-surface $-1 0 -27.779241771073515 0 0 1 0 0 0 1 forward_v I I I I #
coedge $-1 $358 $359 $360 $361 forward $195 $-1 #
coedge $-1 $197 $362 $363 $364 forward $122 $-1 #
coedge $-1 $363 $207 $198 $282 forward $209 $-1 #
edge $-1 $286 -60.710728952529799 $283 -51.032808970705481 $281 $365 forward 7 unknown #
vertex $-1 $282 $366 #
straight-curve $-1 32.709414084573154 25.93634523374535 12.547753034489816 0 -1 0 I I #
edge $-1 $205 -3.9076445276287437 $286 23.10882423225835 $207 $367 forward 7 unknown #
vertex $-1 $285 $368 #
straight-curve $-1 32.709414084573154 -16.591735751088592 36.305763535169035 0 -0.79863550430605224 0.6018150307709319 I I #
point $-1 32.709414084573154 14.936208430053799 12.547753034489816 #
point $-1 5.6929453246860611 27.779241771073515 2.8698330526654985 #
coedge $-1 $208 $369 $370 $371 reversed $209 $-1 #
face $-1 $372 $209 $16 $-1 $373 reversed single #
coedge $-1 $362 $211 $374 $375 forward $122 $-1 #
coedge $-1 $370 $376 $211 $294 reversed $355 $-1 #
edge $-1 $295 -27.779241771073515 $377 27.779241771073515 $293 $378 forward 7 unknown #
vertex $-1 $212 $379 #
straight-curve $-1 0 27.779241771073515 12.547753034489816 -1 0 0 I I #
face $-1 $380 $381 $17 $-1 $382 reversed single #
loop $-1 $-1 $383 $215 #
plane-surface $-1 0 0 12.547753034489816 0 0 1 1 0 0 forward_v I I I I #
coedge $-1 $384 $385 $383 $386 reversed $216 $-1 #
coedge $-1 $387 $302 $307 $388 reversed $218 $-1 #
coedge $-1 $301 $389 $219 $303 reversed $218 $-1 #
edge $-1 $308 39.477263421362103 $390 55.558483542147044 $219 $391 forward 7 unknown #
coedge $-1 $392 $393 $220 $305 forward $394 $-1 #
edge $-1 $309 51.032808970705481 $390 60.710728952529799 $304 $395 forward 7 unknown #
coedge $-1 $396 $221 $393 $397 forward $298 $-1 #
coedge $-1 $221 $383 $301 $388 forward $298 $-1 #
vertex $-1 $388 $398 #
vertex $-1 $397 $399 #
straight-curve $-1 5.6929453246860611 25.93634523374535 12.547753034489816 0 1 0 I I #
vertex $-1 $223 $400 #
point $-1 20.701179704629595 18.748378403073581 4.2460730895914756 #
face $-1 $401 $402 $18 $-1 $403 forward single #
loop $-1 $404 $405 $227 #
cone-surface $-1 19.201179704629595 18.297017129995382 3.6470964613619365 0 -0.6018150307709319 -0.79863550430605224 0.75 0 0 1 I I -0.70710678118654757 0.70710678118654757 0.75 forward I I I I #
loop $-1 $-1 $406 $144 #
coedge $-1 $317 $317 $407 $408 reversed $228 $-1 #
coedge $-1 $230 $409 $410 $411 forward $145 $-1 #
coedge $-1 $410 $240 $231 $320 forward $242 $-1 #
edge $-1 $324 -43.99276371127803 $321 -34.314843729453713 $319 $412 forward 7 unknown #
vertex $-1 $320 $413 #
straight-curve $-1 5.6929453246860611 -48.121833994826403 12.547753034489816 0 1 0 I I #
edge $-1 $238 -23.10882423225835 $324 3.9076445276287437 $240 $414 forward 7 unknown #
vertex $-1 $323 $415 #
straight-curve $-1 5.6929453246860611 -27.779241771073515 2.8698330526654985 0 0.79863550430605224 0.6018150307709319 I I #
point $-1 5.6929453246860611 -14.936208430053803 12.547753034489816 #
point $-1 32.709414084573154 -27.779241771073515 2.8698330526654985 #
coedge $-1 $241 $416 $417 $418 reversed $242 $-1 #
face $-1 $419 $242 $18 $-1 $420 reversed single #
coedge $-1 $421 $244 $422 $423 forward $145 $-1 #
coedge $-1 $417 $424 $244 $332 reversed $425 $-1 #
edge $-1 $333 -27.779241771073515 $426 27.779241771073515 $331 $427 forward 7 unknown #
vertex $-1 $332 $428 #
straight-curve $-1 0 -27.779241771073515 12.547753034489816 1 0 0 I I #
face $-1 $429 $430 $19 $-1 $431 reversed single #
loop $-1 $-1 $432 $248 #
plane-surface $-1 0 0 12.547753034489816 0 0 1 1 0 0 forward_v I I I I #
coedge $-1 $433 $434 $432 $435 reversed $249 $-1 #
coedge $-1 $436 $340 $345 $437 reversed $251 $-1 #
coedge $-1 $339 $438 $252 $341 reversed $251 $-1 #
edge $-1 $346 -16.081220120784938 $439 0 $252 $440 forward 7 unknown #
coedge $-1 $441 $442 $253 $343 forward $443 $-1 #
edge $-1 $347 34.314843729453713 $439 43.99276371127803 $342 $444 forward 7 unknown #
coedge $-1 $445 $254 $442 $446 forward $336 $-1 #
coedge $-1 $254 $432 $339 $437 forward $336 $-1 #
vertex $-1 $437 $447 #
vertex $-1 $446 $448 #
straight-curve $-1 32.709414084573154 -48.121833994826403 12.547753034489816 0 -1 0 I I #
vertex $-1 $256 $449 #
point $-1 20.701179704629595 -18.748378403073588 4.2460730895914791 #
straight-curve $-1 -56.88161870174261 27.779241771073515 0 0 0 -1 I I #
point $-1 -56.88161870174261 -27.779241771073515 -12.547753034489816 #
straight-curve $-1 -56.88161870174261 0 -12.547753034489816 0 1 0 I I #
point $-1 -56.88161870174261 27.779241771073515 -12.547753034489816 #
loop $-1 $-1 $370 $276 #
plane-surface $-1 -56.88161870174261 0 0 1 0 0 0 0 -1 forward_v I I I I #
coedge $-1 $450 $374 $376 $451 forward $277 $-1 #
coedge $-1 $452 $279 $450 $453 forward $195 $-1 #
coedge $-1 $279 $452 $369 $454 forward $195 $-1 #
coedge $-1 $455 $456 $279 $361 reversed $457 $-1 #
edge $-1 $458 -27.779241771073515 $459 27.779241771073515 $360 $460 forward 7 unknown #
coedge $-1 $280 $292 $461 $462 forward $122 $-1 #
coedge $-1 $463 $281 $280 $364 reversed $209 $-1 #
edge $-1 $464 -56.88161870174261 $283 -32.709414084573154 $363 $296 forward 7 unknown #
straight-curve $-1 32.709414084573154 27.779241771073515 63.580562005195297 0 0 1 I I #
point $-1 32.709414084573154 27.779241771073515 12.547753034489816 #
straight-curve $-1 9.6005898523148048 27.779241771073515 2.8698330526654949 1 0 0 I I #
point $-1 32.709414084573154 27.779241771073515 2.8698330526654985 #
coedge $-1 $290 $463 $359 $454 reversed $209 $-1 #
coedge $-1 $465 $293 $290 $371 forward $355 $-1 #
edge $-1 $295 -12.547753034489816 $466 12.547753034489816 $290 $467 forward 7 unknown #
face $-1 $-1 $457 $16 $-1 $468 reversed single #
plane-surface $-1 0 27.779241771073515 0 0 -1 0 0 0 -1 forward_v I I I I #
coedge $-1 $357 $469 $292 $375 reversed $277 $-1 #
edge $-1 $377 -56.88161870174261 $470 56.88161870174261 $374 $471 forward 7 unknown #
coedge $-1 $293 $465 $357 $451 reversed $355 $-1 #
vertex $-1 $294 $472 #
straight-curve $-1 -56.88161870174261 0 12.547753034489816 0 -1 0 I I #
point $-1 -56.88161870174261 27.779241771073515 12.547753034489816 #
face $-1 $473 $474 $17 $-1 $475 reversed single #
loop $-1 $-1 $476 $297 #
plane-surface $-1 0 0 -12.547753034489816 0 0 1 1 0 0 forward_v I I I I #
coedge $-1 $307 $477 $300 $386 forward $298 $-1 #
coedge $-1 $385 $300 $478 $479 reversed $216 $-1 #
coedge $-1 $300 $384 $387 $480 forward $216 $-1 #
edge $-1 $481 -1.8428965373281656 $482 11.00013680369155 $383 $483 forward 7 unknown #
coedge $-1 $389 $301 $385 $480 reversed $218 $-1 #
edge $-1 $482 -23.10882423225835 $308 3.9076445276287437 $307 $484 forward 7 unknown #
coedge $-1 $302 $387 $392 $485 reversed $218 $-1 #
vertex $-1 $485 $486 #
straight-curve $-1 5.6929453246860611 -16.591735751088592 36.305763535169035 0 0.79863550430605224 -0.6018150307709319 I I #
coedge $-1 $478 $304 $389 $485 forward $394 $-1 #
coedge $-1 $304 $487 $306 $397 reversed $394 $-1 #
loop $-1 $-1 $478 $488 #
straight-curve $-1 5.6929453246860611 27.779241771073515 63.580562005195297 0 0 -1 I I #
coedge $-1 $489 $306 $490 $491 forward $298 $-1 #
edge $-1 $309 -5.6929453246860611 $492 56.88161870174261 $393 $493 forward 7 unknown #
point $-1 5.6929453246860611 14.936208430053799 12.547753034489816 #
point $-1 5.6929453246860611 27.779241771073515 12.547753034489816 #
point $-1 19.201179704629595 17.845655856917183 3.0481198331323975 #
face $-1 $494 $495 $18 $-1 $496 forward single #
loop $-1 $-1 $497 $313 #
plane-surface $-1 5.6929453246860611 51.872690467490699 127.16112401039059 1 0 0 0 -0.6018150307709319 -0.79863550430605224 forward_v I I I I #
loop $-1 $-1 $498 $227 #
coedge $-1 $405 $405 $406 $499 forward $314 $-1 #
coedge $-1 $406 $406 $405 $499 reversed $316 $-1 #
coedge $-1 $407 $407 $317 $408 forward $495 $-1 #
edge $-1 $500 -2.4652763824506879e-016 $500 6.2831853071796004 $407 $501 forward 7 unknown #
coedge $-1 $318 $502 $503 $504 forward $145 $-1 #
coedge $-1 $505 $319 $318 $411 reversed $242 $-1 #
edge $-1 $506 -56.88161870174261 $321 5.6929453246860611 $410 $334 forward 7 unknown #
straight-curve $-1 5.6929453246860611 -27.779241771073515 46.862596763943529 0 0 1 I I #
point $-1 5.6929453246860611 -27.779241771073515 12.547753034489816 #
straight-curve $-1 9.6005898523148048 -27.779241771073515 2.869833052665498 -1 0 0 I I #
point $-1 5.6929453246860611 -27.779241771073515 2.8698330526654985 #
coedge $-1 $328 $505 $507 $508 reversed $242 $-1 #
coedge $-1 $509 $331 $328 $418 forward $425 $-1 #
edge $-1 $333 -12.547753034489816 $510 12.547753034489816 $417 $511 forward 7 unknown #
face $-1 $512 $513 $18 $-1 $514 reversed single #
plane-surface $-1 0 -27.779241771073515 0 0 1 0 0 0 1 forward_v I I I I #
coedge $-1 $515 $330 $516 $517 forward $145 $-1 #
coedge $-1 $518 $519 $330 $423 reversed $520 $-1 #
edge $-1 $426 -56.88161870174261 $521 -32.709414084573154 $422 $522 forward 7 unknown #
coedge $-1 $331 $509 $518 $523 reversed $425 $-1 #
loop $-1 $-1 $417 $524 #
vertex $-1 $332 $525 #
straight-curve $-1 56.88161870174261 0 12.547753034489816 0 1 0 I I #
point $-1 56.88161870174261 -27.779241771073515 12.547753034489816 #
face $-1 $526 $527 $19 $-1 $528 reversed single #
loop $-1 $529 $530 $335 #
cone-surface $-1 19.201179704629595 20.053051751818614 5.977433066584565 0 -0.6018150307709319 -0.79863550430605224 1.5 0 0 1 I I 0 1 1.5 forward I I I I #
coedge $-1 $345 $531 $338 $435 forward $336 $-1 #
coedge $-1 $434 $338 $532 $533 reversed $249 $-1 #
coedge $-1 $338 $433 $436 $534 forward $249 $-1 #
edge $-1 $535 20.342592223752888 $536 33.1856255647726 $432 $537 forward 7 unknown #
coedge $-1 $438 $339 $434 $534 reversed $251 $-1 #
edge $-1 $536 -3.9076445276287437 $346 23.10882423225835 $345 $538 forward 7 unknown #
coedge $-1 $340 $436 $441 $539 reversed $251 $-1 #
vertex $-1 $539 $540 #
straight-curve $-1 32.709414084573154 -27.779241771073515 2.8698330526654985 0 -0.79863550430605224 -0.6018150307709319 I I #
coedge $-1 $532 $342 $438 $539 forward $443 $-1 #
coedge $-1 $342 $541 $344 $446 reversed $443 $-1 #
loop $-1 $-1 $532 $542 #
straight-curve $-1 32.709414084573154 -27.779241771073515 46.862596763943529 0 0 -1 I I #
coedge $-1 $543 $344 $544 $545 forward $336 $-1 #
edge $-1 $347 32.709414084573154 $546 56.88161870174261 $442 $547 forward 7 unknown #
point $-1 32.709414084573154 -14.936208430053803 12.547753034489816 #
point $-1 32.709414084573154 -27.779241771073515 12.547753034489816 #
point $-1 19.201179704629595 -17.84565585691719 3.0481198331324011 #
coedge $-1 $469 $357 $358 $453 reversed $277 $-1 #
edge $-1 $377 -12.547753034489816 $548 12.547753034489816 $376 $549 forward 7 unknown #
coedge $-1 $359 $358 $465 $550 forward $195 $-1 #
edge $-1 $459 -56.88161870174261 $548 56.88161870174261 $450 $551 forward 7 unknown #
edge $-1 $466 -56.88161870174261 $458 56.88161870174261 $369 $552 forward 7 unknown #
coedge $-1 $461 $360 $463 $553 reversed $457 $-1 #
coedge $-1 $360 $461 $469 $554 forward $457 $-1 #
loop $-1 $-1 $456 $372 #
vertex $-1 $361 $555 #
vertex $-1 $554 $556 #
straight-curve $-1 56.88161870174261 0 -12.547753034489816 0 -1 0 I I #
coedge $-1 $456 $455 $362 $462 reversed $457 $-1 #
edge $-1 $470 -27.779241771073515 $464 27.779241771073515 $461 $557 forward 7 unknown #
coedge $-1 $369 $363 $455 $553 forward $209 $-1 #
vertex $-1 $462 $558 #
coedge $-1 $376 $370 $452 $550 reversed $355 $-1 #
vertex $-1 $454 $559 #
straight-curve $-1 -56.88161870174261 27.779241771073515 0 0 0 -1 I I #
plane-surface $-1 56.88161870174261 0 0 -1 0 0 0 0 1 forward_v I I I I #
coedge $-1 $374 $450 $456 $554 reversed $277 $-1 #
vertex $-1 $462 $560 #
straight-curve $-1 0 -27.779241771073515 12.547753034489816 1 0 0 I I #
point $-1 -56.88161870174261 -27.779241771073515 12.547753034489816 #
face $-1 $488 $561 $17 $-1 $562 reversed single #
loop $-1 $-1 $563 $380 #
plane-surface $-1 0 -27.779241771073515 0 0 1 0 0 0 1 forward_v I I I I #
coedge $-1 $564 $565 $566 $567 forward $381 $-1 #
coedge $-1 $383 $568 $569 $570 forward $298 $-1 #
coedge $-1 $569 $392 $384 $479 forward $394 $-1 #
edge $-1 $571 -60.710728952529799 $481 -51.032808970705481 $478 $572 forward 7 unknown #
edge $-1 $571 -55.558483542147044 $482 -39.477263421362103 $385 $573 forward 7 unknown #
vertex $-1 $479 $574 #
vertex $-1 $388 $575 #
straight-curve $-1 32.709414084573154 25.93634523374535 12.547753034489816 0 -1 0 I I #
straight-curve $-1 9.6005898523148048 14.936208430053805 12.547753034489817 -1 0 0 I I #
edge $-1 $390 -3.9076445276287437 $571 23.10882423225835 $392 $576 forward 7 unknown #
point $-1 5.6929453246860611 27.779241771073515 2.8698330526654985 #
coedge $-1 $393 $577 $578 $579 reversed $394 $-1 #
face $-1 $580 $394 $17 $-1 $581 reversed single #
coedge $-1 $568 $396 $582 $583 forward $298 $-1 #
coedge $-1 $578 $584 $396 $491 reversed $561 $-1 #
edge $-1 $492 -27.779241771073515 $585 27.779241771073515 $490 $586 forward 7 unknown #
vertex $-1 $397 $587 #
straight-curve $-1 0 27.779241771073515 12.547753034489816 -1 0 0 I I #
face $-1 $588 $589 $18 $-1 $590 forward single #
loop $-1 $591 $407 $401 #
plane-surface $-1 19.20117970462961 -16.591735751088592 36.305763535169035 0 0.6018150307709319 0.79863550430605224 1 0 0 forward_v I I I I #
coedge $-1 $592 $593 $594 $595 reversed $402 $-1 #
coedge $-1 $498 $498 $-1 $596 forward $404 $-1 #
edge $-1 $597 0 $597 6.2831853071796004 $405 $598 forward 7 unknown #
vertex $-1 $408 $599 #
ellipse-curve $-1 19.201179704629595 21.357725100563652 7.7087930435776597 0 -0.6018150307709319 -0.79863550430605224 1.5 0 0 1 I I #
coedge $-1 $409 $594 $600 $601 forward $145 $-1 #
coedge $-1 $602 $603 $409 $504 reversed $513 $-1 #
edge $-1 $604 -27.779241771073515 $506 27.779241771073515 $503 $605 forward 7 unknown #
coedge $-1 $416 $410 $603 $606 forward $242 $-1 #
vertex $-1 $504 $607 #
coedge $-1 $608 $609 $416 $508 forward $610 $-1 #
edge $-1 $510 -56.88161870174261 $611 56.88161870174261 $416 $612 forward 7 unknown #
coedge $-1 $424 $417 $609 $613 reversed $425 $-1 #
vertex $-1 $418 $614 #
straight-curve $-1 56.88161870174261 -27.779241771073515 0 0 0 -1 I I #
face $-1 $524 $520 $18 $-1 $615 reversed single #
loop $-1 $-1 $602 $419 #
plane-surface $-1 -56.88161870174261 0 0 1 0 0 0 0 -1 forward_v I I I I #
coedge $-1 $594 $421 $616 $617 forward $145 $-1 #
coedge $-1 $618 $619 $421 $517 reversed $589 $-1 #
edge $-1 $521 -1.8428965373281656 $620 11.00013680369155 $421 $621 forward 7 unknown #
coedge $-1 $622 $422 $424 $523 forward $520 $-1 #
coedge $-1 $422 $623 $618 $624 forward $520 $-1 #
loop $-1 $-1 $519 $512 #
vertex $-1 $624 $625 #
straight-curve $-1 0 27.779241771073515 12.547753034489816 -1 0 0 I I #
edge $-1 $426 -12.547753034489816 $626 12.547753034489816 $424 $627 forward 7 unknown #
face $-1 $-1 $425 $18 $-1 $628 reversed single #
point $-1 56.88161870174261 27.779241771073515 12.547753034489816 #
face $-1 $629 $630 $19 $-1 $631 forward single #
loop $-1 $632 $633 $429 #
cone-surface $-1 19.201179704629595 18.297017129995382 3.6470964613619365 0 -0.6018150307709319 -0.79863550430605224 0.75 0 0 1 I I -0.70710678118654757 0.70710678118654757 0.75 forward I I I I #
loop $-1 $-1 $634 $335 #
coedge $-1 $530 $530 $635 $636 reversed $430 $-1 #
coedge $-1 $432 $637 $638 $639 forward $336 $-1 #
coedge $-1 $638 $441 $433 $533 forward $443 $-1 #
edge $-1 $640 -43.99276371127803 $535 -34.314843729453713 $532 $641 forward 7 unknown #
edge $-1 $640 0 $536 16.081220120784938 $434 $642 forward 7 unknown #
vertex $-1 $533 $643 #
vertex $-1 $437 $644 #
straight-curve $-1 5.6929453246860611 -48.121833994826403 12.547753034489816 0 1 0 I I #
straight-curve $-1 9.6005898523148048 -14.936208430053801 12.547753034489816 1 0 0 I I #
edge $-1 $439 -23.10882423225835 $640 3.9076445276287437 $441 $645 forward 7 unknown #
point $-1 32.709414084573154 -27.779241771073515 2.8698330526654985 #
coedge $-1 $442 $646 $647 $648 reversed $443 $-1 #
face $-1 $649 $443 $19 $-1 $650 reversed single #
coedge $-1 $651 $445 $652 $653 forward $336 $-1 #
coedge $-1 $647 $654 $445 $545 reversed $655 $-1 #
edge $-1 $546 -27.779241771073515 $656 27.779241771073515 $544 $657 forward 7 unknown #
vertex $-1 $545 $658 #
straight-curve $-1 0 -27.779241771073515 12.547753034489816 1 0 0 I I #
vertex $-1 $550 $659 #
straight-curve $-1 -56.88161870174261 -27.779241771073515 0 0 0 -1 I I #
edge $-1 $548 -27.779241771073515 $466 27.779241771073515 $465 $660 forward 7 unknown #
straight-curve $-1 0 -27.779241771073515 -12.547753034489816 -1 0 0 I I #
straight-curve $-1 0 27.779241771073515 -12.547753034489816 1 0 0 I I #
edge $-1 $464 -12.547753034489816 $458 12.547753034489816 $455 $661 forward 7 unknown #
edge $-1 $470 -12.547753034489816 $459 12.547753034489816 $456 $662 forward 7 unknown #
point $-1 56.88161870174261 27.779241771073515 -12.547753034489816 #
point $-1 56.88161870174261 -27.779241771073515 -12.547753034489816 #
straight-curve $-1 56.88161870174261 0 12.547753034489816 0 1 0 I I #
point $-1 56.88161870174261 27.779241771073515 12.547753034489816 #
point $-1 -56.88161870174261 27.779241771073515 -12.547753034489816 #
point $-1 56.88161870174261 -27.779241771073515 12.547753034489816 #
loop $-1 $-1 $578 $473 #
plane-surface $-1 -56.88161870174261 0 0 1 0 0 0 0 -1 forward_v I I I I #
coedge $-1 $663 $582 $584 $664 forward $474 $-1 #
coedge $-1 $665 $476 $663 $666 forward $381 $-1 #
coedge $-1 $476 $665 $577 $667 forward $381 $-1 #
coedge $-1 $668 $669 $476 $567 reversed $670 $-1 #
edge $-1 $671 -27.779241771073515 $672 27.779241771073515 $566 $673 forward 7 unknown #
coedge $-1 $477 $489 $674 $675 forward $298 $-1 #
coedge $-1 $676 $478 $477 $570 reversed $394 $-1 #
edge $-1 $677 -56.88161870174261 $481 -32.709414084573154 $569 $493 forward 7 unknown #
vertex $-1 $485 $678 #
straight-curve $-1 32.709414084573154 27.779241771073515 63.580562005195297 0 0 1 I I #
straight-curve $-1 32.709414084573154 -16.591735751088592 36.305763535169035 0 -0.79863550430605224 0.6018150307709319 I I #
point $-1 32.709414084573154 27.779241771073515 12.547753034489816 #
point $-1 32.709414084573154 14.936208430053799 12.547753034489816 #
straight-curve $-1 9.6005898523148048 27.779241771073515 2.8698330526654949 1 0 0 I I #
coedge $-1 $487 $676 $565 $667 reversed $394 $-1 #
coedge $-1 $679 $490 $487 $579 forward $561 $-1 #
edge $-1 $492 -12.547753034489816 $680 12.547753034489816 $487 $681 forward 7 unknown #
face $-1 $-1 $670 $17 $-1 $682 reversed single #
plane-surface $-1 0 27.779241771073515 0 0 -1 0 0 0 -1 forward_v I I I I #
coedge $-1 $563 $683 $489 $583 reversed $474 $-1 #
edge $-1 $585 -56.88161870174261 $684 56.88161870174261 $582 $685 forward 7 unknown #
coedge $-1 $490 $679 $563 $664 reversed $561 $-1 #
vertex $-1 $491 $686 #
straight-curve $-1 -56.88161870174261 0 12.547753034489816 0 -1 0 I I #
point $-1 -56.88161870174261 27.779241771073515 12.547753034489816 #
face $-1 $329 $610 $18 $-1 $687 reversed single #
loop $-1 $-1 $516 $494 #
plane-surface $-1 32.709414084573154 51.872690467490699 127.16112401039059 -1 0 0 0 0.6018150307709319 0.79863550430605224 forward_v I I I I #
loop $-1 $-1 $616 $401 #
coedge $-1 $593 $497 $688 $689 forward $402 $-1 #
coedge $-1 $497 $592 $690 $691 reversed $402 $-1 #
coedge $-1 $502 $515 $497 $595 forward $145 $-1 #
edge $-1 $692 -11.00013680369155 $693 1.8428965373281656 $594 $694 forward 7 unknown #
edge $-1 $695 1 $695 0 $498 $-1 forward 7 unknown #
vertex $-1 $499 $696 #
ellipse-curve $-1 19.201179704629595 18.748378403073581 4.2460730895914756 0 0.6018150307709319 0.79863550430605224 1.5 0 0 1 I I #
point $-1 20.701179704629595 21.357725100563648 7.7087930435776544 #
coedge $-1 $690 $697 $502 $601 reversed $520 $-1 #
edge $-1 $693 -5.6929453246860611 $604 56.88161870174261 $600 $522 forward 7 unknown #
coedge $-1 $698 $503 $697 $699 forward $513 $-1 #
coedge $-1 $503 $698 $505 $606 reversed $513 $-1 #
vertex $-1 $601 $700 #
straight-curve $-1 -56.88161870174261 0 12.547753034489816 0 -1 0 I I #
edge $-1 $506 -12.547753034489816 $611 12.547753034489816 $603 $701 forward 7 unknown #
point $-1 -56.88161870174261 -27.779241771073515 12.547753034489816 #
coedge $-1 $702 $507 $698 $703 forward $610 $-1 #
coedge $-1 $507 $702 $509 $613 forward $610 $-1 #
loop $-1 $-1 $609 $588 #
vertex $-1 $703 $704 #
straight-curve $-1 0 -27.779241771073515 -12.547753034489816 -1 0 0 I I #
edge $-1 $626 -27.779241771073515 $510 27.779241771073515 $509 $705 forward 7 unknown #
point $-1 56.88161870174261 -27.779241771073515 -12.547753034489816 #
plane-surface $-1 0 27.779241771073515 0 0 -1 0 0 0 -1 forward_v I I I I #
coedge $-1 $706 $688 $515 $617 reversed $591 $-1 #
edge $-1 $620 -23.10882423225835 $692 3.9076445276287437 $515 $707 forward 7 unknown #
coedge $-1 $619 $516 $519 $624 reversed $589 $-1 #
coedge $-1 $516 $618 $706 $708 forward $589 $-1 #
vertex $-1 $617 $709 #
straight-curve $-1 32.709414084573154 25.93634523374535 12.547753034489816 0 -1 0 I I #
coedge $-1 $697 $518 $702 $710 reversed $520 $-1 #
coedge $-1 $519 $690 $711 $712 forward $520 $-1 #
edge $-1 $713 -60.710728952529799 $521 -51.032808970705481 $519 $714 forward 7 unknown #
point $-1 32.709414084573154 27.779241771073515 12.547753034489816 #
vertex $-1 $613 $715 #
straight-curve $-1 56.88161870174261 27.779241771073515 0 0 0 -1 I I #
plane-surface $-1 56.88161870174261 0 0 -1 0 0 0 0 1 forward_v I I I I #
face $-1 $716 $717 $19 $-1 $718 forward single #
loop $-1 $-1 $719 $526 #
plane-surface $-1 5.6929453246860611 51.872690467490699 127.16112401039059 1 0 0 0 -0.6018150307709319 -0.79863550430605224 forward_v I I I I #
loop $-1 $-1 $720 $429 #
coedge $-1 $633 $633 $634 $721 forward $527 $-1 #
coedge $-1 $634 $634 $633 $721 reversed $529 $-1 #
coedge $-1 $635 $635 $530 $636 forward $717 $-1 #
edge $-1 $722 -2.4652763824506879e-016 $722 6.2831853071796004 $635 $723 forward 7 unknown #
coedge $-1 $531 $724 $725 $726 forward $336 $-1 #
coedge $-1 $727 $532 $531 $639 reversed $443 $-1 #
edge $-1 $728 -56.88161870174261 $535 5.6929453246860611 $638 $547 forward 7 unknown #
vertex $-1 $539 $729 #
straight-curve $-1 5.6929453246860611 -27.779241771073515 46.862596763943529 0 0 1 I I #
straight-curve $-1 5.6929453246860611 -27.779241771073515 2.8698330526654985 0 0.79863550430605224 0.6018150307709319 I I #
point $-1 5.6929453246860611 -27.779241771073515 12.547753034489816 #
point $-1 5.6929453246860611 -14.936208430053803 12.547753034489816 #
straight-curve $-1 9.6005898523148048 -27.779241771073515 2.869833052665498 -1 0 0 I I #
coedge $-1 $541 $727 $730 $731 reversed $443 $-1 #
coedge $-1 $732 $544 $541 $648 forward $655 $-1 #
edge $-1 $546 -12.547753034489816 $733 12.547753034489816 $647 $734 forward 7 unknown #
face $-1 $735 $736 $19 $-1 $737 reversed single #
plane-surface $-1 0 -27.779241771073515 0 0 1 0 0 0 1 forward_v I I I I #
coedge $-1 $738 $543 $739 $740 forward $336 $-1 #
coedge $-1 $741 $742 $543 $653 reversed $743 $-1 #
edge $-1 $656 -56.88161870174261 $744 -32.709414084573154 $652 $745 forward 7 unknown #
coedge $-1 $544 $732 $741 $746 reversed $655 $-1 #
loop $-1 $-1 $647 $747 #
vertex $-1 $545 $748 #
straight-curve $-1 56.88161870174261 0 12.547753034489816 0 1 0 I I #
point $-1 56.88161870174261 -27.779241771073515 12.547753034489816 #
point $-1 -56.88161870174261 -27.779241771073515 -12.547753034489816 #
straight-curve $-1 -56.88161870174261 0 -12.547753034489816 0 1 0 I I #
straight-curve $-1 56.88161870174261 27.779241771073515 0 0 0 -1 I I #
straight-curve $-1 56.88161870174261 -27.779241771073515 0 0 0 -1 I I #
coedge $-1 $683 $563 $564 $666 reversed $474 $-1 #
edge $-1 $585 -12.547753034489816 $749 12.547753034489816 $584 $750 forward 7 unknown #
coedge $-1 $565 $564 $679 $751 forward $381 $-1 #
edge $-1 $672 -56.88161870174261 $749 56.88161870174261 $663 $752 forward 7 unknown #
edge $-1 $680 -56.88161870174261 $671 56.88161870174261 $577 $753 forward 7 unknown #
coedge $-1 $674 $566 $676 $754 reversed $670 $-1 #
coedge $-1 $566 $674 $683 $755 forward $670 $-1 #
loop $-1 $-1 $669 $580 #
vertex $-1 $567 $756 #
vertex $-1 $755 $757 #
straight-curve $-1 56.88161870174261 0 -12.547753034489816 0 -1 0 I I #
coedge $-1 $669 $668 $568 $675 reversed $670 $-1 #
edge $-1 $684 -27.779241771073515 $677 27.779241771073515 $674 $758 forward 7 unknown #
coedge $-1 $577 $569 $668 $754 forward $394 $-1 #
vertex $-1 $675 $759 #
point $-1 32.709414084573154 27.779241771073515 2.8698330526654985 #
coedge $-1 $584 $578 $665 $751 reversed $561 $-1 #
vertex $-1 $667 $760 #
straight-curve $-1 -56.88161870174261 27.779241771073515 0 0 0 -1 I I #
plane-surface $-1 56.88161870174261 0 0 -1 0 0 0 0 1 forward_v I I I I #
coedge $-1 $582 $663 $669 $755 reversed $474 $-1 #
vertex $-1 $675 $761 #
straight-curve $-1 0 -27.779241771073515 12.547753034489816 1 0 0 I I #
point $-1 -56.88161870174261 -27.779241771073515 12.547753034489816 #
plane-surface $-1 0 0 -12.547753034489816 0 0 1 1 0 0 forward_v I I I I #
coedge $-1 $616 $711 $592 $689 reversed $591 $-1 #
edge $-1 $692 39.477263421362103 $762 55.558483542147044 $592 $763 forward 7 unknown #
coedge $-1 $623 $600 $593 $691 forward $520 $-1 #
edge $-1 $693 51.032808970705481 $762 60.710728952529799 $690 $764 forward 7 unknown #
vertex $-1 $617 $765 #
vertex $-1 $601 $766 #
straight-curve $-1 5.6929453246860611 25.93634523374535 12.547753034489816 0 1 0 I I #
vertex $-1 $596 $767 #
point $-1 20.701179704629595 18.748378403073581 4.2460730895914756 #
coedge $-1 $600 $622 $602 $699 reversed $520 $-1 #
coedge $-1 $603 $602 $608 $703 reversed $513 $-1 #
edge $-1 $604 -12.547753034489816 $768 12.547753034489816 $697 $769 forward 7 unknown #
point $-1 -56.88161870174261 27.779241771073515 12.547753034489816 #
straight-curve $-1 -56.88161870174261 -27.779241771073515 0 0 0 -1 I I #
coedge $-1 $609 $608 $622 $710 forward $610 $-1 #
edge $-1 $611 -27.779241771073515 $768 27.779241771073515 $698 $770 forward 7 unknown #
point $-1 -56.88161870174261 -27.779241771073515 -12.547753034489816 #
straight-curve $-1 56.88161870174261 0 -12.547753034489816 0 -1 0 I I #
coedge $-1 $711 $616 $619 $708 reversed $591 $-1 #
straight-curve $-1 9.6005898523148048 14.936208430053805 12.547753034489817 -1 0 0 I I #
edge $-1 $713 -55.558483542147044 $620 -39.477263421362103 $619 $771 forward 7 unknown #
point $-1 32.709414084573154 14.936208430053799 12.547753034489816 #
edge $-1 $768 -56.88161870174261 $626 56.88161870174261 $622 $772 forward 7 unknown #
coedge $-1 $688 $706 $623 $712 reversed $591 $-1 #
edge $-1 $762 -3.9076445276287437 $713 23.10882423225835 $623 $773 forward 7 unknown #
vertex $-1 $712 $774 #
straight-curve $-1 32.709414084573154 27.779241771073515 63.580562005195297 0 0 1 I I #
point $-1 56.88161870174261 27.779241771073515 -12.547753034489816 #
face $-1 $775 $776 $19 $-1 $777 forward single #
loop $-1 $778 $635 $629 #
plane-surface $-1 19.20117970462961 -16.591735751088592 36.305763535169035 0 0.6018150307709319 0.79863550430605224 1 0 0 forward_v I I I I #
coedge $-1 $779 $780 $781 $782 reversed $630 $-1 #
coedge $-1 $720 $720 $-1 $783 forward $632 $-1 #
edge $-1 $784 0 $784 6.2831853071796004 $633 $785 forward 7 unknown #
vertex $-1 $636 $786 #
ellipse-curve $-1 19.201179704629595 21.357725100563652 7.7087930435776597 0 -0.6018150307709319 -0.79863550430605224 1.5 0 0 1 I I #
coedge $-1 $637 $781 $787 $788 forward $336 $-1 #
coedge $-1 $789 $790 $637 $726 reversed $736 $-1 #
edge $-1 $791 -27.779241771073515 $728 27.779241771073515 $725 $792 forward 7 unknown #
coedge $-1 $646 $638 $790 $793 forward $443 $-1 #
vertex $-1 $726 $794 #
point $-1 5.6929453246860611 -27.779241771073515 2.8698330526654985 #
coedge $-1 $795 $796 $646 $731 forward $797 $-1 #
edge $-1 $733 -56.88161870174261 $798 56.88161870174261 $646 $799 forward 7 unknown #
coedge $-1 $654 $647 $796 $800 reversed $655 $-1 #
vertex $-1 $648 $801 #
straight-curve $-1 56.88161870174261 -27.779241771073515 0 0 0 -1 I I #
face $-1 $747 $743 $19 $-1 $802 reversed single #
loop $-1 $-1 $789 $649 #
plane-surface $-1 -56.88161870174261 0 0 1 0 0 0 0 -1 forward_v I I I I #
coedge $-1 $781 $651 $803 $804 forward $336 $-1 #
coedge $-1 $805 $806 $651 $740 reversed $776 $-1 #
edge $-1 $744 -1.8428965373281656 $807 11.00013680369155 $651 $808 forward 7 unknown #
coedge $-1 $809 $652 $654 $746 forward $743 $-1 #
coedge $-1 $652 $810 $805 $811 forward $743 $-1 #
loop $-1 $-1 $742 $735 #
vertex $-1 $811 $812 #
straight-curve $-1 0 27.779241771073515 12.547753034489816 -1 0 0 I I #
edge $-1 $656 -12.547753034489816 $813 12.547753034489816 $654 $814 forward 7 unknown #
face $-1 $-1 $655 $19 $-1 $815 reversed single #
point $-1 56.88161870174261 27.779241771073515 12.547753034489816 #
vertex $-1 $751 $816 #
straight-curve $-1 -56.88161870174261 -27.779241771073515 0 0 0 -1 I I #
edge $-1 $749 -27.779241771073515 $680 27.779241771073515 $679 $817 forward 7 unknown #
straight-curve $-1 0 -27.779241771073515 -12.547753034489816 -1 0 0 I I #
straight-curve $-1 0 27.779241771073515 -12.547753034489816 1 0 0 I I #
edge $-1 $677 -12.547753034489816 $671 12.547753034489816 $668 $818 forward 7 unknown #
edge $-1 $684 -12.547753034489816 $672 12.547753034489816 $669 $819 forward 7 unknown #
point $-1 56.88161870174261 27.779241771073515 -12.547753034489816 #
point $-1 56.88161870174261 -27.779241771073515 -12.547753034489816 #
straight-curve $-1 56.88161870174261 0 12.547753034489816 0 1 0 I I #
point $-1 56.88161870174261 27.779241771073515 12.547753034489816 #
point $-1 -56.88161870174261 27.779241771073515 -12.547753034489816 #
point $-1 56.88161870174261 -27.779241771073515 12.547753034489816 #
vertex $-1 $712 $820 #
straight-curve $-1 5.6929453246860611 -16.591735751088592 36.305763535169035 0 0.79863550430605224 -0.6018150307709319 I I #
straight-curve $-1 5.6929453246860611 27.779241771073515 63.580562005195297 0 0 -1 I I #
point $-1 5.6929453246860611 14.936208430053799 12.547753034489816 #
point $-1 5.6929453246860611 27.779241771073515 12.547753034489816 #
point $-1 19.201179704629595 17.845655856917183 3.0481198331323975 #
vertex $-1 $710 $821 #
straight-curve $-1 -56.88161870174261 27.779241771073515 0 0 0 -1 I I #
straight-curve $-1 -56.88161870174261 0 -12.547753034489816 0 1 0 I I #
straight-curve $-1 32.709414084573154 -16.591735751088592 36.305763535169035 0 -0.79863550430605224 0.6018150307709319 I I #
straight-curve $-1 0 27.779241771073515 -12.547753034489816 1 0 0 I I #
straight-curve $-1 9.6005898523148048 27.779241771073515 2.8698330526654949 1 0 0 I I #
point $-1 32.709414084573154 27.779241771073515 2.8698330526654985 #
face $-1 $542 $797 $19 $-1 $822 reversed single #
loop $-1 $-1 $739 $716 #
plane-surface $-1 32.709414084573154 51.872690467490699 127.16112401039059 -1 0 0 0 0.6018150307709319 0.79863550430605224 forward_v I I I I #
loop $-1 $-1 $803 $629 #
coedge $-1 $780 $719 $823 $824 forward $630 $-1 #
coedge $-1 $719 $779 $825 $826 reversed $630 $-1 #
coedge $-1 $724 $738 $719 $782 forward $336 $-1 #
edge $-1 $827 -11.00013680369155 $828 1.8428965373281656 $781 $829 forward 7 unknown #
edge $-1 $830 1 $830 0 $720 $-1 forward 7 unknown #
vertex $-1 $721 $831 #
ellipse-curve $-1 19.201179704629595 18.748378403073581 4.2460730895914756 0 0.6018150307709319 0.79863550430605224 1.5 0 0 1 I I #
point $-1 20.701179704629595 21.357725100563648 7.7087930435776544 #
coedge $-1 $825 $832 $724 $788 reversed $743 $-1 #
edge $-1 $828 -5.6929453246860611 $791 56.88161870174261 $787 $745 forward 7 unknown #
coedge $-1 $833 $725 $832 $834 forward $736 $-1 #
coedge $-1 $725 $833 $727 $793 reversed $736 $-1 #
vertex $-1 $788 $835 #
straight-curve $-1 -56.88161870174261 0 12.547753034489816 0 -1 0 I I #
edge $-1 $728 -12.547753034489816 $798 12.547753034489816 $790 $836 forward 7 unknown #
point $-1 -56.88161870174261 -27.779241771073515 12.547753034489816 #
coedge $-1 $837 $730 $833 $838 forward $797 $-1 #
coedge $-1 $730 $837 $732 $800 forward $797 $-1 #
loop $-1 $-1 $796 $775 #
vertex $-1 $838 $839 #
straight-curve $-1 0 -27.779241771073515 -12.547753034489816 -1 0 0 I I #
edge $-1 $813 -27.779241771073515 $733 27.779241771073515 $732 $840 forward 7 unknown #
point $-1 56.88161870174261 -27.779241771073515 -12.547753034489816 #
plane-surface $-1 0 27.779241771073515 0 0 -1 0 0 0 -1 forward_v I I I I #
coedge $-1 $841 $823 $738 $804 reversed $778 $-1 #
edge $-1 $807 -23.10882423225835 $827 3.9076445276287437 $738 $842 forward 7 unknown #
coedge $-1 $806 $739 $742 $811 reversed $776 $-1 #
coedge $-1 $739 $805 $841 $843 forward $776 $-1 #
vertex $-1 $804 $844 #
straight-curve $-1 32.709414084573154 25.93634523374535 12.547753034489816 0 -1 0 I I #
coedge $-1 $832 $741 $837 $845 reversed $743 $-1 #
coedge $-1 $742 $825 $846 $847 forward $743 $-1 #
edge $-1 $848 -60.710728952529799 $744 -51.032808970705481 $742 $849 forward 7 unknown #
point $-1 32.709414084573154 27.779241771073515 12.547753034489816 #
vertex $-1 $800 $850 #
straight-curve $-1 56.88161870174261 27.779241771073515 0 0 0 -1 I I #
plane-surface $-1 56.88161870174261 0 0 -1 0 0 0 0 1 forward_v I I I I #
point $-1 -56.88161870174261 -27.779241771073515 -12.547753034489816 #
straight-curve $-1 -56.88161870174261 0 -12.547753034489816 0 1 0 I I #
straight-curve $-1 56.88161870174261 27.779241771073515 0 0 0 -1 I I #
straight-curve $-1 56.88161870174261 -27.779241771073515 0 0 0 -1 I I #
point $-1 5.6929453246860611 27.779241771073515 2.8698330526654985 #
point $-1 -56.88161870174261 27.779241771073515 -12.547753034489816 #
plane-surface $-1 0 0 -12.547753034489816 0 0 1 1 0 0 forward_v I I I I #
coedge $-1 $803 $846 $779 $824 reversed $778 $-1 #
edge $-1 $827 39.477263421362103 $851 55.558483542147044 $779 $852 forward 7 unknown #
coedge $-1 $810 $787 $780 $826 forward $743 $-1 #
edge $-1 $828 51.032808970705481 $851 60.710728952529799 $825 $853 forward 7 unknown #
vertex $-1 $804 $854 #
vertex $-1 $788 $855 #
straight-curve $-1 5.6929453246860611 25.93634523374535 12.547753034489816 0 1 0 I I #
vertex $-1 $783 $856 #
point $-1 20.701179704629595 18.748378403073581 4.2460730895914756 #
coedge $-1 $787 $809 $789 $834 reversed $743 $-1 #
coedge $-1 $790 $789 $795 $838 reversed $736 $-1 #
edge $-1 $791 -12.547753034489816 $857 12.547753034489816 $832 $858 forward 7 unknown #
point $-1 -56.88161870174261 27.779241771073515 12.547753034489816 #
straight-curve $-1 -56.88161870174261 -27.779241771073515 0 0 0 -1 I I #
coedge $-1 $796 $795 $809 $845 forward $797 $-1 #
edge $-1 $798 -27.779241771073515 $857 27.779241771073515 $833 $859 forward 7 unknown #
point $-1 -56.88161870174261 -27.779241771073515 -12.547753034489816 #
straight-curve $-1 56.88161870174261 0 -12.547753034489816 0 -1 0 I I #
coedge $-1 $846 $803 $806 $843 reversed $778 $-1 #
straight-curve $-1 9.6005898523148048 14.936208430053805 12.547753034489817 -1 0 0 I I #
edge $-1 $848 -55.558483542147044 $807 -39.477263421362103 $806 $860 forward 7 unknown #
point $-1 32.709414084573154 14.936208430053799 12.547753034489816 #
edge $-1 $857 -56.88161870174261 $813 56.88161870174261 $809 $861 forward 7 unknown #
coedge $-1 $823 $841 $810 $847 reversed $778 $-1 #
edge $-1 $851 -3.9076445276287437 $848 23.10882423225835 $810 $862 forward 7 unknown #
vertex $-1 $847 $863 #
straight-curve $-1 32.709414084573154 27.779241771073515 63.580562005195297 0 0 1 I I #
point $-1 56.88161870174261 27.779241771073515 -12.547753034489816 #
vertex $-1 $847 $864 #
straight-curve $-1 5.6929453246860611 -16.591735751088592 36.305763535169035 0 0.79863550430605224 -0.6018150307709319 I I #
straight-curve $-1 5.6929453246860611 27.779241771073515 63.580562005195297 0 0 -1 I I #
point $-1 5.6929453246860611 14.936208430053799 12.547753034489816 #
point $-1 5.6929453246860611 27.779241771073515 12.547753034489816 #
point $-1 19.201179704629595 17.845655856917183 3.0481198331323975 #
vertex $-1 $845 $865 #
straight-curve $-1 -56.88161870174261 27.779241771073515 0 0 0 -1 I I #
straight-curve $-1 -56.88161870174261 0 -12.547753034489816 0 1 0 I I #
straight-curve $-1 32.709414084573154 -16.591735751088592 36.305763535169035 0 -0.79863550430605224 0.6018150307709319 I I #
straight-curve $-1 0 27.779241771073515 -12.547753034489816 1 0 0 I I #
straight-curve $-1 9.6005898523148048 27.779241771073515 2.8698330526654949 1 0 0 I I #
point $-1 32.709414084573154 27.779241771073515 2.8698330526654985 #
point $-1 5.6929453246860611 27.779241771073515 2.8698330526654985 #
point $-1 -56.88161870174261 27.779241771073515 -12.547753034489816 #
End-of-ACIS-data 