500 0 5 0           
7 Unknown 11 ACIS 5.0 NT 24 Thu Mar 25 19:26:20 1999 
-1 9.9999999999999995e-007 1e-010 
body $-1 $5 $-1 $6 #
body $-1 $7 $-1 $8 #
body $-1 $9 $-1 $10 #
body $-1 $11 $-1 $12 #
body $-1 $13 $-1 $14 #
lump $-1 $-1 $15 $0 #
transform $-1 1 0 0 0 1 0 0 0 1 57.495651112399671 35.834107089981572 16.099484466846636 1 rotate no_reflect no_shear #
lump $-1 $-1 $16 $1 #
transform $-1 1 0 0 0 1 0 0 0 1 57.495651112399671 35.834107089981572 16.099484466846636 1 rotate no_reflect no_shear #
lump $-1 $-1 $17 $2 #
transform $-1 1 0 0 0 1 0 0 0 1 57.495651112399671 35.834107089981572 16.099484466846636 1 rotate no_reflect no_shear #
lump $-1 $-1 $18 $3 #
transform $-1 1 0 0 0 1 0 0 0 1 57.495651112399671 35.834107089981572 16.099484466846636 1 rotate no_reflect no_shear #
lump $-1 $-1 $19 $4 #
transform $-1 1 0 0 0 1 0 0 0 1 57.495651112399671 35.834107089981572 16.099484466846636 1 rotate no_reflect no_shear #
shell $-1 $-1 $-1 $20 $-1 $5 #
shell $-1 $-1 $-1 $21 $-1 $7 #
shell $-1 $-1 $-1 $22 $-1 $9 #
shell $-1 $-1 $-1 $23 $-1 $11 #
shell $-1 $-1 $-1 $24 $-1 $13 #
face $-1 $25 $26 $15 $-1 $27 forward single #
face $-1 $28 $29 $16 $-1 $30 forward single #
face $-1 $31 $32 $17 $-1 $33 reversed single #
face $-1 $34 $35 $18 $-1 $36 reversed single #
face $-1 $37 $38 $19 $-1 $39 reversed single #
face $-1 $40 $41 $15 $-1 $42 reversed single #
loop $-1 $-1 $43 $20 #
plane-surface $-1 0 0 16.099484466846636 0 0 1 1 0 0 forward_v I I I I #
face $-1 $44 $45 $16 $-1 $46 forward single #
loop $-1 $-1 $47 $21 #
plane-surface $-1 25.33128506482273 33.627357407325633 146.4273288145497 1 0 0 0 -0.51503808176128008 -0.85716729658548041 forward_v I I I I #
face $-1 $48 $49 $17 $-1 $50 reversed single #
loop $-1 $51 $52 $22 #
cone-surface $-1 31.764158274338129 30.861803891547769 12.382191544977248 0 -0.51503808176128008 -0.85716729658548041 2.5 0 0 1 I I 0 1 2.5 forward I I I I #
face $-1 $53 $54 $18 $-1 $55 reversed single #
loop $-1 $56 $57 $23 #
cone-surface $-1 41.413468088611211 30.861803891547769 12.382191544977248 0 -0.51503808176128008 -0.85716729658548041 2.5 0 0 1 I I 0 1 2.5 forward I I I I #
face $-1 $58 $59 $19 $-1 $60 reversed single #
loop $-1 $61 $62 $24 #
cone-surface $-1 51.062777902884292 30.861803891547769 12.382191544977248 0 -0.51503808176128008 -0.85716729658548041 2.5 0 0 1 I I 0 1 2.5 forward I I I I #
face $-1 $63 $64 $15 $-1 $65 reversed single #
loop $-1 $-1 $66 $25 #
plane-surface $-1 0 0 -16.099484466846636 0 0 1 1 0 0 forward_v I I I I #
coedge $-1 $67 $68 $69 $70 forward $26 $-1 #
face $-1 $71 $72 $16 $-1 $73 forward single #
loop $-1 $-1 $74 $28 #
plane-surface $-1 41.413468088611197 -25.597542309766638 47.860545155674501 0 0.51503808176128008 0.85716729658548041 1 0 0 forward_v I I I I #
coedge $-1 $75 $76 $77 $78 reversed $29 $-1 #
face $-1 $79 $80 $17 $-1 $81 forward single #
loop $-1 $82 $83 $31 #
cone-surface $-1 31.764158274338129 29.531887448241335 10.168838935214453 0 -0.51503808176128008 -0.85716729658548041 1.25 0 0 1 I I -0.70710678118654746 0.70710678118654746 1.25 forward I I I I #
loop $-1 $-1 $84 $22 #
coedge $-1 $52 $52 $85 $86 reversed $32 $-1 #
face $-1 $87 $88 $18 $-1 $89 reversed single #
loop $-1 $90 $91 $34 #
cone-surface $-1 41.413468088611211 29.531887448241335 10.168838935214453 0 -0.51503808176128008 -0.85716729658548041 1.25 0 0 1 I I -0.70710678118654746 0.70710678118654746 1.25 forward I I I I #
loop $-1 $-1 $92 $23 #
coedge $-1 $57 $57 $93 $94 reversed $35 $-1 #
face $-1 $95 $96 $19 $-1 $97 reversed single #
loop $-1 $98 $99 $37 #
cone-surface $-1 51.062777902884292 29.531887448241335 10.168838935214453 0 -0.51503808176128008 -0.85716729658548041 1.25 0 0 1 I I -0.70710678118654746 0.70710678118654746 1.25 forward I I I I #
loop $-1 $-1 $100 $24 #
coedge $-1 $62 $62 $101 $102 reversed $38 $-1 #
face $-1 $103 $104 $15 $-1 $105 reversed single #
loop $-1 $-1 $106 $40 #
plane-surface $-1 0 -35.834107089981572 0 0 1 0 0 0 1 forward_v I I I I #
coedge $-1 $107 $108 $109 $110 forward $41 $-1 #
coedge $-1 $111 $43 $112 $113 forward $26 $-1 #
coedge $-1 $43 $111 $114 $115 forward $26 $-1 #
coedge $-1 $116 $117 $43 $70 reversed $118 $-1 #
edge $-1 $119 -35.834107089981572 $120 35.834107089981572 $69 $121 forward 7 unknown #
face $-1 $122 $123 $16 $-1 $124 reversed single #
loop $-1 $-1 $125 $44 #
plane-surface $-1 0 0 16.099484466846636 0 0 1 1 0 0 forward_v I I I I #
coedge $-1 $126 $127 $125 $128 reversed $45 $-1 #
coedge $-1 $76 $47 $127 $129 forward $29 $-1 #
coedge $-1 $47 $75 $130 $131 reversed $29 $-1 #
coedge $-1 $132 $125 $47 $78 forward $72 $-1 #
edge $-1 $133 10.448059671660779 $134 19.020428386318756 $77 $135 forward 7 unknown #
face $-1 $136 $137 $17 $-1 $138 forward single #
loop $-1 $-1 $139 $48 #
plane-surface $-1 25.33128506482273 33.627357407325633 146.4273288145497 1 0 0 0 -0.51503808176128008 -0.85716729658548041 forward_v I I I I #
loop $-1 $-1 $140 $31 #
coedge $-1 $83 $83 $84 $141 forward $49 $-1 #
coedge $-1 $84 $84 $83 $141 reversed $51 $-1 #
coedge $-1 $85 $85 $52 $86 forward $137 $-1 #
edge $-1 $142 3.7119826846861648e-016 $142 6.2831853071796004 $85 $143 forward 7 unknown #
face $-1 $144 $145 $18 $-1 $146 reversed single #
loop $-1 $147 $148 $53 #
cone-surface $-1 31.764158274338129 30.861803891547769 12.382191544977248 0 -0.51503808176128008 -0.85716729658548041 2.5 0 0 1 I I 0 1 2.5 forward I I I I #
loop $-1 $-1 $149 $34 #
coedge $-1 $91 $91 $92 $150 forward $54 $-1 #
coedge $-1 $92 $92 $91 $150 reversed $56 $-1 #
coedge $-1 $93 $93 $57 $94 forward $151 $-1 #
edge $-1 $152 3.7119826846861648e-016 $152 6.2831853071796004 $93 $153 forward 7 unknown #
face $-1 $154 $155 $19 $-1 $156 reversed single #
loop $-1 $157 $158 $58 #
cone-surface $-1 41.413468088611211 30.861803891547769 12.382191544977248 0 -0.51503808176128008 -0.85716729658548041 2.5 0 0 1 I I 0 1 2.5 forward I I I I #
loop $-1 $-1 $159 $37 #
coedge $-1 $99 $99 $100 $160 forward $59 $-1 #
coedge $-1 $100 $100 $99 $160 reversed $61 $-1 #
coedge $-1 $101 $101 $62 $102 forward $161 $-1 #
edge $-1 $162 3.7119826846861648e-016 $162 6.2831853071796004 $101 $163 forward 7 unknown #
face $-1 $164 $165 $15 $-1 $166 reversed single #
loop $-1 $-1 $167 $63 #
plane-surface $-1 -57.495651112399671 0 0 1 0 0 0 0 -1 forward_v I I I I #
coedge $-1 $168 $114 $169 $170 forward $64 $-1 #
coedge $-1 $171 $66 $168 $172 forward $41 $-1 #
coedge $-1 $66 $171 $173 $174 forward $41 $-1 #
coedge $-1 $117 $116 $66 $110 reversed $118 $-1 #
edge $-1 $175 -35.834107089981572 $176 35.834107089981572 $109 $177 forward 7 unknown #
coedge $-1 $68 $67 $178 $179 forward $26 $-1 #
coedge $-1 $180 $181 $67 $113 reversed $165 $-1 #
edge $-1 $120 -57.495651112399671 $182 57.495651112399671 $112 $183 forward 7 unknown #
coedge $-1 $106 $184 $68 $115 reversed $64 $-1 #
edge $-1 $185 -57.495651112399671 $119 57.495651112399671 $114 $186 forward 7 unknown #
coedge $-1 $109 $69 $184 $187 forward $118 $-1 #
coedge $-1 $69 $109 $180 $188 reversed $118 $-1 #
loop $-1 $-1 $116 $164 #
vertex $-1 $70 $189 #
vertex $-1 $70 $190 #
straight-curve $-1 57.495651112399671 0 16.099484466846636 0 1 0 I I #
face $-1 $191 $192 $16 $-1 $193 reversed single #
loop $-1 $-1 $130 $71 #
plane-surface $-1 0 35.834107089981572 0 0 -1 0 0 0 -1 forward_v I I I I #
coedge $-1 $77 $194 $74 $128 forward $72 $-1 #
coedge $-1 $195 $74 $196 $197 reversed $45 $-1 #
coedge $-1 $74 $195 $75 $129 reversed $45 $-1 #
edge $-1 $198 -36.788917068094065 $133 -4.6245510205171314 $125 $199 forward 7 unknown #
edge $-1 $133 61.667402496169402 $200 71.668214179963144 $75 $201 forward 7 unknown #
coedge $-1 $202 $203 $76 $131 forward $123 $-1 #
edge $-1 $134 57.114179940428215 $200 62.264978806105141 $130 $204 forward 7 unknown #
coedge $-1 $205 $77 $203 $206 forward $72 $-1 #
vertex $-1 $128 $207 #
vertex $-1 $206 $208 #
straight-curve $-1 25.33128506482273 16.813678703662816 16.099484466846633 0 1 0 I I #
face $-1 $209 $210 $17 $-1 $211 forward single #
loop $-1 $212 $85 $79 #
plane-surface $-1 41.413468088611197 -25.597542309766638 47.860545155674501 0 0.51503808176128008 0.85716729658548041 1 0 0 forward_v I I I I #
coedge $-1 $213 $214 $215 $216 reversed $80 $-1 #
coedge $-1 $140 $140 $-1 $217 forward $82 $-1 #
edge $-1 $218 0 $218 6.2831853071796004 $83 $219 forward 7 unknown #
vertex $-1 $86 $220 #
ellipse-curve $-1 31.764158274338129 31.547922732652591 13.524085034008172 0 -0.51503808176128008 -0.85716729658548041 2.5 0 0 1 I I #
face $-1 $221 $222 $18 $-1 $223 forward single #
loop $-1 $224 $225 $87 #
cone-surface $-1 31.764158274338129 29.531887448241335 10.168838935214453 0 -0.51503808176128008 -0.85716729658548041 1.25 0 0 1 I I -0.70710678118654746 0.70710678118654746 1.25 forward I I I I #
loop $-1 $-1 $226 $53 #
coedge $-1 $148 $148 $227 $228 reversed $88 $-1 #
coedge $-1 $149 $149 $-1 $229 forward $90 $-1 #
edge $-1 $230 0 $230 6.2831853071796004 $91 $231 forward 7 unknown #
loop $-1 $232 $93 $221 #
vertex $-1 $94 $233 #
ellipse-curve $-1 41.413468088611211 31.547922732652591 13.524085034008172 0 -0.51503808176128008 -0.85716729658548041 2.5 0 0 1 I I #
face $-1 $234 $235 $19 $-1 $236 reversed single #
loop $-1 $237 $238 $95 #
cone-surface $-1 41.413468088611211 29.531887448241335 10.168838935214453 0 -0.51503808176128008 -0.85716729658548041 1.25 0 0 1 I I -0.70710678118654746 0.70710678118654746 1.25 forward I I I I #
loop $-1 $-1 $239 $58 #
coedge $-1 $158 $158 $240 $241 reversed $96 $-1 #
coedge $-1 $159 $159 $-1 $242 forward $98 $-1 #
edge $-1 $243 0 $243 6.2831853071796004 $99 $244 forward 7 unknown #
loop $-1 $245 $101 $246 #
vertex $-1 $102 $247 #
ellipse-curve $-1 51.062777902884292 31.547922732652591 13.524085034008172 0 -0.51503808176128008 -0.85716729658548041 2.5 0 0 1 I I #
face $-1 $-1 $118 $15 $-1 $248 reversed single #
loop $-1 $-1 $180 $103 #
plane-surface $-1 0 35.834107089981572 0 0 -1 0 0 0 -1 forward_v I I I I #
coedge $-1 $249 $178 $181 $250 forward $104 $-1 #
coedge $-1 $184 $106 $107 $172 reversed $64 $-1 #
coedge $-1 $178 $249 $106 $170 reversed $104 $-1 #
edge $-1 $185 -16.099484466846636 $251 16.099484466846636 $169 $252 forward 7 unknown #
coedge $-1 $108 $107 $249 $253 forward $41 $-1 #
edge $-1 $176 -57.495651112399671 $251 57.495651112399671 $168 $254 forward 7 unknown #
coedge $-1 $181 $180 $108 $174 reversed $165 $-1 #
edge $-1 $255 -57.495651112399671 $175 57.495651112399671 $173 $256 forward 7 unknown #
vertex $-1 $110 $257 #
vertex $-1 $187 $258 #
straight-curve $-1 57.495651112399671 0 -16.099484466846636 0 -1 0 I I #
coedge $-1 $167 $169 $111 $179 reversed $104 $-1 #
edge $-1 $182 -35.834107089981572 $185 35.834107089981572 $178 $259 forward 7 unknown #
coedge $-1 $173 $112 $117 $188 forward $165 $-1 #
coedge $-1 $112 $173 $167 $250 reversed $165 $-1 #
vertex $-1 $113 $260 #
straight-curve $-1 0 35.834107089981572 16.099484466846636 -1 0 0 I I #
coedge $-1 $114 $168 $116 $187 reversed $64 $-1 #
vertex $-1 $179 $261 #
straight-curve $-1 0 -35.834107089981572 16.099484466846636 1 0 0 I I #
edge $-1 $119 -16.099484466846636 $176 16.099484466846636 $116 $262 forward 7 unknown #
edge $-1 $120 -16.099484466846636 $175 16.099484466846636 $117 $263 forward 7 unknown #
point $-1 57.495651112399671 -35.834107089981572 16.099484466846636 #
point $-1 57.495651112399671 35.834107089981572 16.099484466846636 #
face $-1 $264 $265 $16 $-1 $266 reversed single #
loop $-1 $-1 $267 $122 #
plane-surface $-1 0 0 -16.099484466846636 0 0 1 1 0 0 forward_v I I I I #
coedge $-1 $125 $268 $269 $270 forward $72 $-1 #
coedge $-1 $127 $126 $202 $271 reversed $45 $-1 #
coedge $-1 $269 $272 $126 $197 forward $273 $-1 #
edge $-1 $274 -48.372524425001728 $198 -38.371712741207979 $196 $275 forward 7 unknown #
vertex $-1 $197 $276 #
straight-curve $-1 20.706734044305598 27.261738375323596 16.099484466846636 -1 0 0 I I #
vertex $-1 $271 $277 #
straight-curve $-1 25.33128506482273 -25.597542309766638 47.860545155674501 0 0.85716729658548041 -0.51503808176128008 I I #
coedge $-1 $278 $130 $195 $271 forward $123 $-1 #
coedge $-1 $130 $279 $132 $206 reversed $123 $-1 #
straight-curve $-1 25.33128506482273 35.834107089981572 73.213664407274848 0 0 -1 I I #
coedge $-1 $268 $132 $280 $281 forward $72 $-1 #
edge $-1 $134 -25.33128506482273 $282 57.495651112399671 $203 $283 forward 7 unknown #
point $-1 25.33128506482273 27.261738375323596 16.099484466846636 #
point $-1 25.33128506482273 35.834107089981572 16.099484466846636 #
face $-1 $284 $285 $17 $-1 $286 reversed single #
loop $-1 $-1 $287 $136 #
plane-surface $-1 0 0 16.099484466846636 0 0 1 1 0 0 forward_v I I I I #
loop $-1 $-1 $288 $79 #
coedge $-1 $214 $139 $289 $290 forward $80 $-1 #
coedge $-1 $139 $213 $291 $292 reversed $80 $-1 #
coedge $-1 $293 $287 $139 $216 forward $210 $-1 #
edge $-1 $294 10.448059671660779 $295 19.020428386318756 $215 $296 forward 7 unknown #
edge $-1 $297 1 $297 0 $140 $-1 forward 7 unknown #
vertex $-1 $141 $298 #
ellipse-curve $-1 31.764158274338129 30.175685050442937 11.240298055946303 0 0.51503808176128008 0.85716729658548041 2.5 0 0 1 I I #
point $-1 34.264158274338129 31.547922732652601 13.524085034008191 #
face $-1 $299 $151 $18 $-1 $300 forward single #
loop $-1 $-1 $301 $144 #
plane-surface $-1 25.33128506482273 33.627357407325633 146.4273288145497 1 0 0 0 -0.51503808176128008 -0.85716729658548041 forward_v I I I I #
loop $-1 $-1 $302 $87 #
coedge $-1 $225 $225 $226 $303 forward $145 $-1 #
coedge $-1 $226 $226 $225 $303 reversed $147 $-1 #
coedge $-1 $227 $227 $148 $228 forward $232 $-1 #
edge $-1 $304 3.7119826846861648e-016 $304 6.2831853071796004 $227 $305 forward 7 unknown #
edge $-1 $306 1 $306 0 $149 $-1 forward 7 unknown #
vertex $-1 $150 $307 #
ellipse-curve $-1 41.413468088611211 30.175685050442937 11.240298055946303 0 0.51503808176128008 0.85716729658548041 2.5 0 0 1 I I #
loop $-1 $308 $227 $221 #
point $-1 43.913468088611211 31.547922732652601 13.524085034008191 #
face $-1 $309 $310 $19 $-1 $311 reversed single #
loop $-1 $312 $313 $154 #
cone-surface $-1 31.764158274338129 30.861803891547769 12.382191544977248 0 -0.51503808176128008 -0.85716729658548041 2.5 0 0 1 I I 0 1 2.5 forward I I I I #
loop $-1 $-1 $314 $95 #
coedge $-1 $238 $238 $239 $315 forward $155 $-1 #
coedge $-1 $239 $239 $238 $315 reversed $157 $-1 #
coedge $-1 $240 $240 $158 $241 forward $245 $-1 #
edge $-1 $316 3.7119826846861648e-016 $316 6.2831853071796004 $240 $317 forward 7 unknown #
edge $-1 $318 1 $318 0 $159 $-1 forward 7 unknown #
vertex $-1 $160 $319 #
ellipse-curve $-1 51.062777902884292 30.175685050442937 11.240298055946303 0 0.51503808176128008 0.85716729658548041 2.5 0 0 1 I I #
loop $-1 $320 $240 $246 #
face $-1 $321 $161 $19 $-1 $322 forward single #
point $-1 53.562777902884292 31.547922732652601 13.524085034008191 #
plane-surface $-1 57.495651112399671 0 0 -1 0 0 0 0 1 forward_v I I I I #
coedge $-1 $169 $167 $171 $253 reversed $104 $-1 #
edge $-1 $182 -16.099484466846636 $255 16.099484466846636 $181 $323 forward 7 unknown #
vertex $-1 $253 $324 #
straight-curve $-1 -57.495651112399671 -35.834107089981572 0 0 0 -1 I I #
edge $-1 $251 -35.834107089981572 $255 35.834107089981572 $249 $325 forward 7 unknown #
straight-curve $-1 0 -35.834107089981572 -16.099484466846636 -1 0 0 I I #
vertex $-1 $174 $326 #
straight-curve $-1 0 35.834107089981572 -16.099484466846636 1 0 0 I I #
point $-1 57.495651112399671 35.834107089981572 -16.099484466846636 #
point $-1 57.495651112399671 -35.834107089981572 -16.099484466846636 #
straight-curve $-1 -57.495651112399671 0 16.099484466846636 0 -1 0 I I #
point $-1 -57.495651112399671 35.834107089981572 16.099484466846636 #
point $-1 -57.495651112399671 -35.834107089981572 16.099484466846636 #
straight-curve $-1 57.495651112399671 -35.834107089981572 0 0 0 -1 I I #
straight-curve $-1 57.495651112399671 35.834107089981572 0 0 0 -1 I I #
face $-1 $327 $328 $16 $-1 $329 reversed single #
loop $-1 $-1 $330 $191 #
plane-surface $-1 0 -35.834107089981572 0 0 1 0 0 0 1 forward_v I I I I #
coedge $-1 $331 $332 $333 $334 forward $192 $-1 #
coedge $-1 $194 $205 $335 $336 forward $72 $-1 #
coedge $-1 $337 $196 $194 $270 reversed $273 $-1 #
edge $-1 $338 -35.834107089981572 $198 27.261738375323596 $269 $339 forward 7 unknown #
edge $-1 $200 4.6245510205171314 $274 36.788917068094065 $202 $340 forward 7 unknown #
coedge $-1 $196 $333 $278 $341 reversed $273 $-1 #
loop $-1 $-1 $196 $327 #
vertex $-1 $341 $342 #
straight-curve $-1 57.495651112399671 -5.6292389004122816 35.862377790973269 0 -0.85716729658548041 0.51503808176128008 I I #
point $-1 57.495651112399663 27.261738375323596 16.099484466846636 #
point $-1 25.33128506482273 35.834107089981572 10.948685601169707 #
coedge $-1 $343 $202 $272 $341 forward $123 $-1 #
coedge $-1 $203 $343 $344 $345 reversed $123 $-1 #
coedge $-1 $344 $346 $205 $281 reversed $328 $-1 #
edge $-1 $282 -35.834107089981572 $347 35.834107089981572 $280 $348 forward 7 unknown #
vertex $-1 $206 $349 #
straight-curve $-1 0 35.834107089981572 16.099484466846636 -1 0 0 I I #
face $-1 $350 $351 $17 $-1 $352 reversed single #
loop $-1 $-1 $291 $209 #
plane-surface $-1 0 35.834107089981572 0 0 -1 0 0 0 -1 forward_v I I I I #
coedge $-1 $215 $353 $288 $354 forward $210 $-1 #
coedge $-1 $355 $289 $287 $354 reversed $212 $-1 #
coedge $-1 $288 $356 $213 $290 reversed $212 $-1 #
edge $-1 $294 61.667402496169402 $357 71.668214179963144 $213 $358 forward 7 unknown #
coedge $-1 $359 $360 $214 $292 forward $285 $-1 #
edge $-1 $295 57.114179940428215 $357 62.264978806105141 $291 $361 forward 7 unknown #
coedge $-1 $362 $215 $360 $363 forward $210 $-1 #
vertex $-1 $354 $364 #
vertex $-1 $363 $365 #
straight-curve $-1 25.33128506482273 16.813678703662816 16.099484466846633 0 1 0 I I #
vertex $-1 $217 $366 #
point $-1 34.264158274338129 30.175685050442937 11.240298055946303 #
face $-1 $367 $368 $18 $-1 $369 forward single #
plane-surface $-1 41.413468088611197 -25.597542309766638 47.860545155674501 0 0.51503808176128008 0.85716729658548041 1 0 0 forward_v I I I I #
coedge $-1 $370 $371 $372 $373 reversed $222 $-1 #
coedge $-1 $302 $302 $-1 $374 forward $224 $-1 #
edge $-1 $375 0 $375 6.2831853071796004 $225 $376 forward 7 unknown #
vertex $-1 $228 $377 #
ellipse-curve $-1 31.764158274338129 31.547922732652591 13.524085034008172 0 -0.51503808176128008 -0.85716729658548041 2.5 0 0 1 I I #
vertex $-1 $229 $378 #
point $-1 43.913468088611211 30.175685050442937 11.240298055946303 #
loop $-1 $-1 $379 $221 #
face $-1 $246 $380 $19 $-1 $381 forward single #
loop $-1 $382 $383 $234 #
cone-surface $-1 31.764158274338129 29.531887448241335 10.168838935214453 0 -0.51503808176128008 -0.85716729658548041 1.25 0 0 1 I I -0.70710678118654746 0.70710678118654746 1.25 forward I I I I #
loop $-1 $-1 $384 $154 #
coedge $-1 $313 $313 $385 $386 reversed $235 $-1 #
coedge $-1 $314 $314 $-1 $387 forward $237 $-1 #
edge $-1 $388 0 $388 6.2831853071796004 $238 $389 forward 7 unknown #
vertex $-1 $241 $390 #
ellipse-curve $-1 41.413468088611211 31.547922732652591 13.524085034008172 0 -0.51503808176128008 -0.85716729658548041 2.5 0 0 1 I I #
vertex $-1 $242 $391 #
point $-1 53.562777902884292 30.175685050442937 11.240298055946303 #
loop $-1 $392 $385 $246 #
face $-1 $393 $394 $19 $-1 $395 forward single #
plane-surface $-1 41.413468088611197 -25.597542309766638 47.860545155674501 0 0.51503808176128008 0.85716729658548041 1 0 0 forward_v I I I I #
straight-curve $-1 -57.495651112399671 35.834107089981572 0 0 0 -1 I I #
point $-1 -57.495651112399671 -35.834107089981572 -16.099484466846636 #
straight-curve $-1 -57.495651112399671 0 -16.099484466846636 0 1 0 I I #
point $-1 -57.495651112399671 35.834107089981572 -16.099484466846636 #
face $-1 $-1 $273 $16 $-1 $396 reversed single #
loop $-1 $-1 $344 $264 #
plane-surface $-1 -57.495651112399671 0 0 1 0 0 0 0 -1 forward_v I I I I #
coedge $-1 $397 $335 $346 $398 forward $265 $-1 #
coedge $-1 $399 $267 $397 $400 forward $192 $-1 #
coedge $-1 $267 $399 $343 $401 forward $192 $-1 #
coedge $-1 $272 $337 $267 $334 reversed $273 $-1 #
edge $-1 $402 -35.834107089981572 $403 35.834107089981572 $333 $404 forward 7 unknown #
coedge $-1 $330 $405 $268 $336 reversed $265 $-1 #
edge $-1 $347 -57.495651112399671 $338 57.495651112399671 $335 $406 forward 7 unknown #
coedge $-1 $333 $269 $405 $407 forward $273 $-1 #
vertex $-1 $270 $408 #
straight-curve $-1 57.495651112399671 0 16.099484466846636 0 1 0 I I #
straight-curve $-1 20.706734044305598 35.834107089981572 10.948685601169711 1 0 0 I I #
edge $-1 $274 -10.948685601169707 $402 16.099484466846636 $272 $409 forward 7 unknown #
point $-1 57.495651112399663 35.834107089981572 10.948685601169707 #
coedge $-1 $279 $278 $332 $401 reversed $123 $-1 #
coedge $-1 $410 $280 $279 $345 forward $328 $-1 #
edge $-1 $282 -16.099484466846636 $411 16.099484466846636 $279 $412 forward 7 unknown #
coedge $-1 $280 $410 $330 $398 reversed $328 $-1 #
vertex $-1 $281 $413 #
straight-curve $-1 -57.495651112399671 0 16.099484466846636 0 -1 0 I I #
point $-1 -57.495651112399671 35.834107089981572 16.099484466846636 #
face $-1 $414 $415 $17 $-1 $416 reversed single #
loop $-1 $-1 $417 $284 #
plane-surface $-1 0 0 -16.099484466846636 0 0 1 1 0 0 forward_v I I I I #
coedge $-1 $287 $418 $419 $420 forward $210 $-1 #
edge $-1 $421 -36.788917068094065 $294 -4.6245510205171314 $287 $422 forward 7 unknown #
coedge $-1 $356 $288 $423 $424 reversed $212 $-1 #
coedge $-1 $289 $355 $359 $425 reversed $212 $-1 #
vertex $-1 $425 $426 #
straight-curve $-1 25.33128506482273 -25.597542309766638 47.860545155674501 0 0.85716729658548041 -0.51503808176128008 I I #
coedge $-1 $427 $291 $356 $425 forward $285 $-1 #
coedge $-1 $291 $428 $293 $363 reversed $285 $-1 #
straight-curve $-1 25.33128506482273 35.834107089981572 73.213664407274848 0 0 -1 I I #
coedge $-1 $418 $293 $429 $430 forward $210 $-1 #
edge $-1 $295 -25.33128506482273 $431 57.495651112399671 $360 $432 forward 7 unknown #
point $-1 25.33128506482273 27.261738375323596 16.099484466846636 #
point $-1 25.33128506482273 35.834107089981572 16.099484466846636 #
point $-1 31.764158274338129 28.888089846039733 9.0973798144826024 #
face $-1 $433 $434 $18 $-1 $435 reversed single #
loop $-1 $-1 $436 $299 #
plane-surface $-1 0 0 16.099484466846636 0 0 1 1 0 0 forward_v I I I I #
coedge $-1 $371 $301 $437 $438 forward $222 $-1 #
coedge $-1 $301 $370 $439 $440 reversed $222 $-1 #
coedge $-1 $441 $436 $301 $373 forward $368 $-1 #
edge $-1 $442 10.448059671660779 $443 19.020428386318756 $372 $444 forward 7 unknown #
edge $-1 $445 1 $445 0 $302 $-1 forward 7 unknown #
vertex $-1 $303 $446 #
ellipse-curve $-1 31.764158274338129 30.175685050442937 11.240298055946303 0 0.51503808176128008 0.85716729658548041 2.5 0 0 1 I I #
point $-1 34.264158274338129 31.547922732652601 13.524085034008191 #
point $-1 41.413468088611211 28.888089846039733 9.0973798144826024 #
coedge $-1 $447 $437 $436 $448 reversed $308 $-1 #
loop $-1 $-1 $449 $309 #
plane-surface $-1 25.33128506482273 33.627357407325633 146.4273288145497 1 0 0 0 -0.51503808176128008 -0.85716729658548041 forward_v I I I I #
loop $-1 $-1 $450 $234 #
coedge $-1 $383 $383 $384 $451 forward $310 $-1 #
coedge $-1 $384 $384 $383 $451 reversed $312 $-1 #
coedge $-1 $385 $385 $313 $386 forward $320 $-1 #
edge $-1 $452 3.7119826846861648e-016 $452 6.2831853071796004 $385 $453 forward 7 unknown #
edge $-1 $454 1 $454 0 $314 $-1 forward 7 unknown #
vertex $-1 $315 $455 #
ellipse-curve $-1 41.413468088611211 30.175685050442937 11.240298055946303 0 0.51503808176128008 0.85716729658548041 2.5 0 0 1 I I #
point $-1 43.913468088611211 31.547922732652601 13.524085034008191 #
point $-1 51.062777902884292 28.888089846039733 9.0973798144826024 #
loop $-1 $-1 $456 $246 #
face $-1 $457 $458 $19 $-1 $459 reversed single #
loop $-1 $-1 $460 $321 #
plane-surface $-1 0 0 16.099484466846636 0 0 1 1 0 0 forward_v I I I I #
plane-surface $-1 57.495651112399671 0 0 -1 0 0 0 0 1 forward_v I I I I #
coedge $-1 $405 $330 $331 $400 reversed $265 $-1 #
edge $-1 $347 -16.099484466846636 $461 16.099484466846636 $346 $462 forward 7 unknown #
coedge $-1 $332 $331 $410 $463 forward $192 $-1 #
edge $-1 $403 -57.495651112399671 $461 57.495651112399671 $397 $464 forward 7 unknown #
edge $-1 $411 -57.495651112399671 $402 57.495651112399671 $343 $465 forward 7 unknown #
vertex $-1 $334 $466 #
vertex $-1 $407 $467 #
straight-curve $-1 57.495651112399671 0 -16.099484466846636 0 -1 0 I I #
coedge $-1 $335 $397 $337 $407 reversed $265 $-1 #
straight-curve $-1 0 -35.834107089981572 16.099484466846636 1 0 0 I I #
edge $-1 $338 -16.099484466846636 $403 16.099484466846636 $337 $468 forward 7 unknown #
point $-1 57.495651112399671 -35.834107089981572 16.099484466846636 #
straight-curve $-1 57.495651112399671 35.834107089981572 0 0 0 -1 I I #
coedge $-1 $346 $344 $399 $463 reversed $328 $-1 #
vertex $-1 $401 $469 #
straight-curve $-1 -57.495651112399671 35.834107089981572 0 0 0 -1 I I #
point $-1 -57.495651112399671 -35.834107089981572 16.099484466846636 #
face $-1 $470 $471 $17 $-1 $472 reversed single #
loop $-1 $-1 $473 $350 #
plane-surface $-1 0 -35.834107089981572 0 0 1 0 0 0 1 forward_v I I I I #
coedge $-1 $474 $475 $476 $477 forward $351 $-1 #
coedge $-1 $353 $362 $478 $479 forward $210 $-1 #
coedge $-1 $480 $423 $353 $420 reversed $481 $-1 #
edge $-1 $482 -35.834107089981572 $421 27.261738375323596 $419 $483 forward 7 unknown #
vertex $-1 $424 $484 #
straight-curve $-1 20.706734044305598 27.261738375323596 16.099484466846636 -1 0 0 I I #
coedge $-1 $419 $485 $355 $424 forward $481 $-1 #
edge $-1 $486 -48.372524425001728 $421 -38.371712741207979 $423 $487 forward 7 unknown #
edge $-1 $357 4.6245510205171314 $486 36.788917068094065 $359 $488 forward 7 unknown #
point $-1 25.33128506482273 35.834107089981572 10.948685601169707 #
coedge $-1 $489 $359 $485 $490 forward $285 $-1 #
coedge $-1 $360 $489 $491 $492 reversed $285 $-1 #
coedge $-1 $491 $493 $362 $430 reversed $471 $-1 #
edge $-1 $431 -35.834107089981572 $494 35.834107089981572 $429 $495 forward 7 unknown #
vertex $-1 $363 $496 #
straight-curve $-1 0 35.834107089981572 16.099484466846636 -1 0 0 I I #
face $-1 $497 $498 $18 $-1 $499 reversed single #
loop $-1 $-1 $439 $367 #
plane-surface $-1 0 35.834107089981572 0 0 -1 0 0 0 -1 forward_v I I I I #
coedge $-1 $372 $500 $379 $448 forward $368 $-1 #
coedge $-1 $379 $501 $370 $438 reversed $308 $-1 #
edge $-1 $442 61.667402496169402 $502 71.668214179963144 $370 $503 forward 7 unknown #
coedge $-1 $504 $505 $371 $440 forward $434 $-1 #
edge $-1 $443 57.114179940428215 $502 62.264978806105141 $439 $506 forward 7 unknown #
coedge $-1 $507 $372 $505 $508 forward $368 $-1 #
vertex $-1 $448 $509 #
vertex $-1 $508 $510 #
straight-curve $-1 25.33128506482273 16.813678703662816 16.099484466846633 0 1 0 I I #
vertex $-1 $374 $511 #
point $-1 34.264158274338129 30.175685050442937 11.240298055946303 #
coedge $-1 $501 $379 $512 $513 reversed $308 $-1 #
edge $-1 $514 -36.788917068094065 $442 -4.6245510205171314 $436 $515 forward 7 unknown #
coedge $-1 $516 $517 $518 $519 reversed $380 $-1 #
coedge $-1 $450 $450 $-1 $520 forward $382 $-1 #
edge $-1 $521 0 $521 6.2831853071796004 $383 $522 forward 7 unknown #
vertex $-1 $386 $523 #
ellipse-curve $-1 31.764158274338129 31.547922732652591 13.524085034008172 0 -0.51503808176128008 -0.85716729658548041 2.5 0 0 1 I I #
vertex $-1 $387 $524 #
point $-1 43.913468088611211 30.175685050442937 11.240298055946303 #
coedge $-1 $525 $526 $460 $527 reversed $392 $-1 #
face $-1 $528 $529 $19 $-1 $530 reversed single #
loop $-1 $-1 $531 $393 #
plane-surface $-1 0 35.834107089981572 0 0 -1 0 0 0 -1 forward_v I I I I #
coedge $-1 $518 $532 $456 $527 forward $394 $-1 #
vertex $-1 $463 $533 #
straight-curve $-1 -57.495651112399671 -35.834107089981572 0 0 0 -1 I I #
edge $-1 $461 -35.834107089981572 $411 35.834107089981572 $410 $534 forward 7 unknown #
straight-curve $-1 0 -35.834107089981572 -16.099484466846636 -1 0 0 I I #
straight-curve $-1 0 35.834107089981572 -16.099484466846636 1 0 0 I I #
point $-1 57.495651112399671 35.834107089981572 -16.099484466846636 #
point $-1 57.495651112399671 -35.834107089981572 -16.099484466846636 #
straight-curve $-1 57.495651112399671 -35.834107089981572 0 0 0 -1 I I #
point $-1 -57.495651112399671 35.834107089981572 -16.099484466846636 #
face $-1 $-1 $481 $17 $-1 $535 reversed single #
loop $-1 $-1 $491 $414 #
plane-surface $-1 -57.495651112399671 0 0 1 0 0 0 0 -1 forward_v I I I I #
coedge $-1 $536 $478 $493 $537 forward $415 $-1 #
coedge $-1 $538 $417 $536 $539 forward $351 $-1 #
coedge $-1 $417 $538 $489 $540 forward $351 $-1 #
coedge $-1 $485 $480 $417 $477 reversed $481 $-1 #
edge $-1 $541 -35.834107089981572 $542 35.834107089981572 $476 $543 forward 7 unknown #
coedge $-1 $473 $544 $418 $479 reversed $415 $-1 #
edge $-1 $494 -57.495651112399671 $482 57.495651112399671 $478 $545 forward 7 unknown #
coedge $-1 $476 $419 $544 $546 forward $481 $-1 #
loop $-1 $-1 $423 $470 #
vertex $-1 $420 $547 #
straight-curve $-1 57.495651112399671 0 16.099484466846636 0 1 0 I I #
point $-1 57.495651112399663 27.261738375323596 16.099484466846636 #
coedge $-1 $423 $476 $427 $490 reversed $481 $-1 #
vertex $-1 $490 $548 #
straight-curve $-1 57.495651112399671 -5.6292389004122816 35.862377790973269 0 -0.85716729658548041 0.51503808176128008 I I #
straight-curve $-1 20.706734044305598 35.834107089981572 10.948685601169711 1 0 0 I I #
coedge $-1 $428 $427 $475 $540 reversed $285 $-1 #
edge $-1 $486 -10.948685601169707 $541 16.099484466846636 $485 $549 forward 7 unknown #
coedge $-1 $550 $429 $428 $492 forward $471 $-1 #
edge $-1 $431 -16.099484466846636 $551 16.099484466846636 $428 $552 forward 7 unknown #
coedge $-1 $429 $550 $473 $537 reversed $471 $-1 #
vertex $-1 $430 $553 #
straight-curve $-1 -57.495651112399671 0 16.099484466846636 0 -1 0 I I #
point $-1 -57.495651112399671 35.834107089981572 16.099484466846636 #
face $-1 $554 $555 $18 $-1 $556 reversed single #
loop $-1 $-1 $557 $433 #
plane-surface $-1 0 0 -16.099484466846636 0 0 1 1 0 0 forward_v I I I I #
coedge $-1 $436 $558 $559 $560 forward $368 $-1 #
coedge $-1 $437 $447 $504 $561 reversed $308 $-1 #
vertex $-1 $561 $562 #
straight-curve $-1 25.33128506482273 -25.597542309766638 47.860545155674501 0 0.85716729658548041 -0.51503808176128008 I I #
coedge $-1 $563 $439 $501 $561 forward $434 $-1 #
coedge $-1 $439 $564 $441 $508 reversed $434 $-1 #
straight-curve $-1 25.33128506482273 35.834107089981572 73.213664407274848 0 0 -1 I I #
coedge $-1 $558 $441 $565 $566 forward $368 $-1 #
edge $-1 $443 -25.33128506482273 $567 57.495651112399671 $505 $568 forward 7 unknown #
point $-1 25.33128506482273 27.261738375323596 16.099484466846636 #
point $-1 25.33128506482273 35.834107089981572 16.099484466846636 #
point $-1 31.764158274338129 28.888089846039733 9.0973798144826024 #
coedge $-1 $559 $569 $447 $513 forward $570 $-1 #
edge $-1 $571 -48.372524425001728 $514 -38.371712741207979 $512 $572 forward 7 unknown #
vertex $-1 $513 $573 #
straight-curve $-1 20.706734044305598 27.261738375323596 16.099484466846636 -1 0 0 I I #
coedge $-1 $517 $449 $526 $574 forward $380 $-1 #
coedge $-1 $449 $516 $531 $575 reversed $380 $-1 #
coedge $-1 $576 $460 $449 $519 forward $394 $-1 #
edge $-1 $577 10.448059671660779 $578 19.020428386318756 $518 $579 forward 7 unknown #
edge $-1 $580 1 $580 0 $450 $-1 forward 7 unknown #
vertex $-1 $451 $581 #
ellipse-curve $-1 31.764158274338129 30.175685050442937 11.240298055946303 0 0.51503808176128008 0.85716729658548041 2.5 0 0 1 I I #
point $-1 34.264158274338129 31.547922732652601 13.524085034008191 #
point $-1 41.413468088611211 28.888089846039733 9.0973798144826024 #
coedge $-1 $582 $456 $583 $584 reversed $392 $-1 #
coedge $-1 $456 $582 $516 $574 reversed $392 $-1 #
edge $-1 $585 -36.788917068094065 $577 -4.6245510205171314 $460 $586 forward 7 unknown #
face $-1 $587 $588 $19 $-1 $589 reversed single #
loop $-1 $-1 $590 $457 #
plane-surface $-1 0 0 -16.099484466846636 0 0 1 1 0 0 forward_v I I I I #
coedge $-1 $591 $592 $517 $575 forward $458 $-1 #
coedge $-1 $460 $593 $594 $595 forward $394 $-1 #
point $-1 -57.495651112399671 -35.834107089981572 -16.099484466846636 #
straight-curve $-1 -57.495651112399671 0 -16.099484466846636 0 1 0 I I #
plane-surface $-1 57.495651112399671 0 0 -1 0 0 0 0 1 forward_v I I I I #
coedge $-1 $544 $473 $474 $539 reversed $415 $-1 #
edge $-1 $494 -16.099484466846636 $596 16.099484466846636 $493 $597 forward 7 unknown #
coedge $-1 $475 $474 $550 $598 forward $351 $-1 #
edge $-1 $542 -57.495651112399671 $596 57.495651112399671 $536 $599 forward 7 unknown #
edge $-1 $551 -57.495651112399671 $541 57.495651112399671 $489 $600 forward 7 unknown #
vertex $-1 $477 $601 #
vertex $-1 $546 $602 #
straight-curve $-1 57.495651112399671 0 -16.099484466846636 0 -1 0 I I #
coedge $-1 $478 $536 $480 $546 reversed $415 $-1 #
straight-curve $-1 0 -35.834107089981572 16.099484466846636 1 0 0 I I #
edge $-1 $482 -16.099484466846636 $542 16.099484466846636 $480 $603 forward 7 unknown #
point $-1 57.495651112399671 -35.834107089981572 16.099484466846636 #
point $-1 57.495651112399663 35.834107089981572 10.948685601169707 #
straight-curve $-1 57.495651112399671 35.834107089981572 0 0 0 -1 I I #
coedge $-1 $493 $491 $538 $598 reversed $471 $-1 #
vertex $-1 $540 $604 #
straight-curve $-1 -57.495651112399671 35.834107089981572 0 0 0 -1 I I #
point $-1 -57.495651112399671 -35.834107089981572 16.099484466846636 #
face $-1 $605 $606 $18 $-1 $607 reversed single #
loop $-1 $-1 $608 $497 #
plane-surface $-1 0 -35.834107089981572 0 0 1 0 0 0 1 forward_v I I I I #
coedge $-1 $609 $610 $611 $612 forward $498 $-1 #
coedge $-1 $500 $507 $613 $614 forward $368 $-1 #
coedge $-1 $615 $512 $500 $560 reversed $570 $-1 #
edge $-1 $616 -35.834107089981572 $514 27.261738375323596 $559 $617 forward 7 unknown #
edge $-1 $502 4.6245510205171314 $571 36.788917068094065 $504 $618 forward 7 unknown #
point $-1 25.33128506482273 35.834107089981572 10.948685601169707 #
coedge $-1 $619 $504 $569 $620 forward $434 $-1 #
coedge $-1 $505 $619 $621 $622 reversed $434 $-1 #
coedge $-1 $621 $623 $507 $566 reversed $606 $-1 #
edge $-1 $567 -35.834107089981572 $624 35.834107089981572 $565 $625 forward 7 unknown #
vertex $-1 $508 $626 #
straight-curve $-1 0 35.834107089981572 16.099484466846636 -1 0 0 I I #
coedge $-1 $512 $611 $563 $620 reversed $570 $-1 #
loop $-1 $-1 $512 $605 #
vertex $-1 $620 $627 #
straight-curve $-1 57.495651112399671 -5.6292389004122816 35.862377790973269 0 -0.85716729658548041 0.51503808176128008 I I #
point $-1 57.495651112399663 27.261738375323596 16.099484466846636 #
edge $-1 $577 61.667402496169402 $628 71.668214179963144 $516 $629 forward 7 unknown #
edge $-1 $578 57.114179940428215 $628 62.264978806105141 $531 $630 forward 7 unknown #
coedge $-1 $631 $518 $592 $632 forward $394 $-1 #
vertex $-1 $527 $633 #
vertex $-1 $632 $634 #
straight-curve $-1 25.33128506482273 16.813678703662816 16.099484466846633 0 1 0 I I #
vertex $-1 $520 $635 #
point $-1 34.264158274338129 30.175685050442937 11.240298055946303 #
coedge $-1 $526 $525 $591 $636 reversed $392 $-1 #
coedge $-1 $594 $637 $525 $584 forward $638 $-1 #
edge $-1 $639 -48.372524425001728 $585 -38.371712741207979 $583 $640 forward 7 unknown #
vertex $-1 $584 $641 #
straight-curve $-1 20.706734044305598 27.261738375323596 16.099484466846636 -1 0 0 I I #
face $-1 $642 $643 $19 $-1 $644 reversed single #
loop $-1 $-1 $645 $528 #
plane-surface $-1 0 -35.834107089981572 0 0 1 0 0 0 1 forward_v I I I I #
coedge $-1 $646 $647 $648 $649 forward $529 $-1 #
coedge $-1 $650 $531 $582 $636 forward $458 $-1 #
coedge $-1 $531 $651 $576 $632 reversed $458 $-1 #
coedge $-1 $532 $631 $652 $653 forward $394 $-1 #
coedge $-1 $654 $583 $532 $595 reversed $638 $-1 #
edge $-1 $655 -35.834107089981572 $585 27.261738375323596 $594 $656 forward 7 unknown #
vertex $-1 $598 $657 #
straight-curve $-1 -57.495651112399671 -35.834107089981572 0 0 0 -1 I I #
edge $-1 $596 -35.834107089981572 $551 35.834107089981572 $550 $658 forward 7 unknown #
straight-curve $-1 0 -35.834107089981572 -16.099484466846636 -1 0 0 I I #
straight-curve $-1 0 35.834107089981572 -16.099484466846636 1 0 0 I I #
point $-1 57.495651112399671 35.834107089981572 -16.099484466846636 #
point $-1 57.495651112399671 -35.834107089981572 -16.099484466846636 #
straight-curve $-1 57.495651112399671 -35.834107089981572 0 0 0 -1 I I #
point $-1 -57.495651112399671 35.834107089981572 -16.099484466846636 #
face $-1 $-1 $570 $18 $-1 $659 reversed single #
loop $-1 $-1 $621 $554 #
plane-surface $-1 -57.495651112399671 0 0 1 0 0 0 0 -1 forward_v I I I I #
coedge $-1 $660 $613 $623 $661 forward $555 $-1 #
coedge $-1 $662 $557 $660 $663 forward $498 $-1 #
coedge $-1 $557 $662 $619 $664 forward $498 $-1 #
coedge $-1 $569 $615 $557 $612 reversed $570 $-1 #
edge $-1 $665 -35.834107089981572 $666 35.834107089981572 $611 $667 forward 7 unknown #
coedge $-1 $608 $668 $558 $614 reversed $555 $-1 #
edge $-1 $624 -57.495651112399671 $616 57.495651112399671 $613 $669 forward 7 unknown #
coedge $-1 $611 $559 $668 $670 forward $570 $-1 #
vertex $-1 $560 $671 #
straight-curve $-1 57.495651112399671 0 16.099484466846636 0 1 0 I I #
straight-curve $-1 20.706734044305598 35.834107089981572 10.948685601169711 1 0 0 I I #
coedge $-1 $564 $563 $610 $664 reversed $434 $-1 #
edge $-1 $571 -10.948685601169707 $665 16.099484466846636 $569 $672 forward 7 unknown #
coedge $-1 $673 $565 $564 $622 forward $606 $-1 #
edge $-1 $567 -16.099484466846636 $674 16.099484466846636 $564 $675 forward 7 unknown #
coedge $-1 $565 $673 $608 $661 reversed $606 $-1 #
vertex $-1 $566 $676 #
straight-curve $-1 -57.495651112399671 0 16.099484466846636 0 -1 0 I I #
point $-1 -57.495651112399671 35.834107089981572 16.099484466846636 #
point $-1 57.495651112399663 35.834107089981572 10.948685601169707 #
vertex $-1 $636 $677 #
straight-curve $-1 25.33128506482273 -25.597542309766638 47.860545155674501 0 0.85716729658548041 -0.51503808176128008 I I #
straight-curve $-1 25.33128506482273 35.834107089981572 73.213664407274848 0 0 -1 I I #
coedge $-1 $593 $576 $678 $679 forward $394 $-1 #
edge $-1 $578 -25.33128506482273 $680 57.495651112399671 $592 $681 forward 7 unknown #
point $-1 25.33128506482273 27.261738375323596 16.099484466846636 #
point $-1 25.33128506482273 35.834107089981572 16.099484466846636 #
point $-1 31.764158274338129 28.888089846039733 9.0973798144826024 #
edge $-1 $628 4.6245510205171314 $639 36.788917068094065 $591 $682 forward 7 unknown #
coedge $-1 $583 $648 $650 $683 reversed $638 $-1 #
loop $-1 $-1 $583 $642 #
vertex $-1 $683 $684 #
straight-curve $-1 57.495651112399671 -5.6292389004122816 35.862377790973269 0 -0.85716729658548041 0.51503808176128008 I I #
point $-1 57.495651112399663 27.261738375323596 16.099484466846636 #
face $-1 $-1 $638 $19 $-1 $685 reversed single #
loop $-1 $-1 $686 $587 #
plane-surface $-1 -57.495651112399671 0 0 1 0 0 0 0 -1 forward_v I I I I #
coedge $-1 $687 $652 $688 $689 forward $588 $-1 #
coedge $-1 $690 $590 $687 $691 forward $529 $-1 #
coedge $-1 $590 $690 $692 $693 forward $529 $-1 #
coedge $-1 $637 $654 $590 $649 reversed $638 $-1 #
edge $-1 $694 -35.834107089981572 $695 35.834107089981572 $648 $696 forward 7 unknown #
coedge $-1 $692 $591 $637 $683 forward $458 $-1 #
coedge $-1 $592 $692 $686 $697 reversed $458 $-1 #
coedge $-1 $645 $698 $593 $653 reversed $588 $-1 #
edge $-1 $699 -57.495651112399671 $655 57.495651112399671 $652 $700 forward 7 unknown #
coedge $-1 $648 $594 $698 $701 forward $638 $-1 #
vertex $-1 $595 $702 #
straight-curve $-1 57.495651112399671 0 16.099484466846636 0 1 0 I I #
point $-1 -57.495651112399671 -35.834107089981572 -16.099484466846636 #
straight-curve $-1 -57.495651112399671 0 -16.099484466846636 0 1 0 I I #
plane-surface $-1 57.495651112399671 0 0 -1 0 0 0 0 1 forward_v I I I I #
coedge $-1 $668 $608 $609 $663 reversed $555 $-1 #
edge $-1 $624 -16.099484466846636 $703 16.099484466846636 $623 $704 forward 7 unknown #
coedge $-1 $610 $609 $673 $705 forward $498 $-1 #
edge $-1 $666 -57.495651112399671 $703 57.495651112399671 $660 $706 forward 7 unknown #
edge $-1 $674 -57.495651112399671 $665 57.495651112399671 $619 $707 forward 7 unknown #
vertex $-1 $612 $708 #
vertex $-1 $670 $709 #
straight-curve $-1 57.495651112399671 0 -16.099484466846636 0 -1 0 I I #
coedge $-1 $613 $660 $615 $670 reversed $555 $-1 #
straight-curve $-1 0 -35.834107089981572 16.099484466846636 1 0 0 I I #
edge $-1 $616 -16.099484466846636 $666 16.099484466846636 $615 $710 forward 7 unknown #
point $-1 57.495651112399671 -35.834107089981572 16.099484466846636 #
straight-curve $-1 57.495651112399671 35.834107089981572 0 0 0 -1 I I #
coedge $-1 $623 $621 $662 $705 reversed $606 $-1 #
vertex $-1 $664 $711 #
straight-curve $-1 -57.495651112399671 35.834107089981572 0 0 0 -1 I I #
point $-1 -57.495651112399671 -35.834107089981572 16.099484466846636 #
point $-1 25.33128506482273 35.834107089981572 10.948685601169707 #
coedge $-1 $686 $688 $631 $679 reversed $643 $-1 #
edge $-1 $680 -35.834107089981572 $699 35.834107089981572 $678 $712 forward 7 unknown #
vertex $-1 $632 $713 #
straight-curve $-1 0 35.834107089981572 16.099484466846636 -1 0 0 I I #
straight-curve $-1 20.706734044305598 35.834107089981572 10.948685601169711 1 0 0 I I #
edge $-1 $639 -10.948685601169707 $694 16.099484466846636 $637 $714 forward 7 unknown #
point $-1 57.495651112399663 35.834107089981572 10.948685601169707 #
plane-surface $-1 57.495651112399671 0 0 -1 0 0 0 0 1 forward_v I I I I #
coedge $-1 $715 $678 $651 $697 forward $643 $-1 #
coedge $-1 $698 $645 $646 $691 reversed $588 $-1 #
coedge $-1 $678 $715 $645 $689 reversed $643 $-1 #
edge $-1 $699 -16.099484466846636 $716 16.099484466846636 $688 $717 forward 7 unknown #
coedge $-1 $647 $646 $715 $718 forward $529 $-1 #
edge $-1 $695 -57.495651112399671 $716 57.495651112399671 $687 $719 forward 7 unknown #
coedge $-1 $651 $650 $647 $693 reversed $458 $-1 #
edge $-1 $720 -57.495651112399671 $694 57.495651112399671 $692 $721 forward 7 unknown #
vertex $-1 $649 $722 #
vertex $-1 $701 $723 #
straight-curve $-1 57.495651112399671 0 -16.099484466846636 0 -1 0 I I #
edge $-1 $680 -16.099484466846636 $720 16.099484466846636 $651 $724 forward 7 unknown #
coedge $-1 $652 $687 $654 $701 reversed $588 $-1 #
vertex $-1 $679 $725 #
straight-curve $-1 0 -35.834107089981572 16.099484466846636 1 0 0 I I #
edge $-1 $655 -16.099484466846636 $695 16.099484466846636 $654 $726 forward 7 unknown #
point $-1 57.495651112399671 -35.834107089981572 16.099484466846636 #
vertex $-1 $705 $727 #
straight-curve $-1 -57.495651112399671 -35.834107089981572 0 0 0 -1 I I #
edge $-1 $703 -35.834107089981572 $674 35.834107089981572 $673 $728 forward 7 unknown #
straight-curve $-1 0 -35.834107089981572 -16.099484466846636 -1 0 0 I I #
straight-curve $-1 0 35.834107089981572 -16.099484466846636 1 0 0 I I #
point $-1 57.495651112399671 35.834107089981572 -16.099484466846636 #
point $-1 57.495651112399671 -35.834107089981572 -16.099484466846636 #
straight-curve $-1 57.495651112399671 -35.834107089981572 0 0 0 -1 I I #
point $-1 -57.495651112399671 35.834107089981572 -16.099484466846636 #
straight-curve $-1 -57.495651112399671 0 16.099484466846636 0 -1 0 I I #
point $-1 -57.495651112399671 35.834107089981572 16.099484466846636 #
straight-curve $-1 57.495651112399671 35.834107089981572 0 0 0 -1 I I #
coedge $-1 $688 $686 $690 $718 reversed $643 $-1 #
vertex $-1 $718 $729 #
straight-curve $-1 -57.495651112399671 -35.834107089981572 0 0 0 -1 I I #
edge $-1 $716 -35.834107089981572 $720 35.834107089981572 $715 $730 forward 7 unknown #
straight-curve $-1 0 -35.834107089981572 -16.099484466846636 -1 0 0 I I #
vertex $-1 $693 $731 #
straight-curve $-1 0 35.834107089981572 -16.099484466846636 1 0 0 I I #
point $-1 57.495651112399671 35.834107089981572 -16.099484466846636 #
point $-1 57.495651112399671 -35.834107089981572 -16.099484466846636 #
straight-curve $-1 -57.495651112399671 35.834107089981572 0 0 0 -1 I I #
point $-1 -57.495651112399671 -35.834107089981572 16.099484466846636 #
straight-curve $-1 57.495651112399671 -35.834107089981572 0 0 0 -1 I I #
point $-1 -57.495651112399671 -35.834107089981572 -16.099484466846636 #
straight-curve $-1 -57.495651112399671 0 -16.099484466846636 0 1 0 I I #
point $-1 -57.495651112399671 -35.834107089981572 -16.099484466846636 #
straight-curve $-1 -57.495651112399671 0 -16.099484466846636 0 1 0 I I #
point $-1 -57.495651112399671 35.834107089981572 -16.099484466846636 #
End-of-ACIS-data 