500 0 10 0           
7 Unknown 11 ACIS 5.0 NT 24 Thu Mar 25 23:32:58 1999 
-1 9.9999999999999995e-007 1e-010 
body $-1 $10 $-1 $11 #
body $-1 $12 $-1 $13 #
body $-1 $14 $-1 $15 #
body $-1 $16 $-1 $17 #
body $-1 $18 $-1 $19 #
body $-1 $20 $-1 $21 #
body $-1 $22 $-1 $23 #
body $-1 $24 $-1 $25 #
body $-1 $26 $-1 $27 #
body $-1 $28 $-1 $29 #
lump $-1 $-1 $30 $0 #
transform $-1 1 0 0 0 1 0 0 0 1 41.107211523789175 26.472105832263559 9.5457765703993811 1 rotate no_reflect no_shear #
lump $-1 $-1 $31 $1 #
transform $-1 1 0 0 0 1 0 0 0 1 41.107211523789175 26.472105832263559 9.5457765703993811 1 rotate no_reflect no_shear #
lump $-1 $-1 $32 $2 #
transform $-1 1 0 0 0 1 0 0 0 1 41.107211523789175 26.472105832263559 9.5457765703993811 1 rotate no_reflect no_shear #
lump $-1 $-1 $33 $3 #
transform $-1 1 0 0 0 1 0 0 0 1 41.107211523789175 26.472105832263559 9.5457765703993811 1 rotate no_reflect no_shear #
lump $-1 $-1 $34 $4 #
transform $-1 1 0 0 0 1 0 0 0 1 41.107211523789175 26.472105832263559 9.5457765703993811 1 rotate no_reflect no_shear #
lump $-1 $-1 $35 $5 #
transform $-1 1 0 0 0 1 0 0 0 1 41.107211523789175 26.472105832263559 9.5457765703993811 1 rotate no_reflect no_shear #
lump $-1 $-1 $36 $6 #
transform $-1 1 0 0 0 1 0 0 0 1 41.107211523789175 26.472105832263559 9.5457765703993811 1 rotate no_reflect no_shear #
lump $-1 $-1 $37 $7 #
transform $-1 1 0 0 0 1 0 0 0 1 41.107211523789175 26.472105832263559 9.5457765703993811 1 rotate no_reflect no_shear #
lump $-1 $-1 $38 $8 #
transform $-1 1 0 0 0 1 0 0 0 1 41.107211523789175 26.472105832263559 9.5457765703993811 1 rotate no_reflect no_shear #
lump $-1 $-1 $39 $9 #
transform $-1 1 0 0 0 1 0 0 0 1 41.107211523789175 26.472105832263559 9.5457765703993811 1 rotate no_reflect no_shear #
shell $-1 $-1 $-1 $40 $-1 $10 #
shell $-1 $-1 $-1 $41 $-1 $12 #
shell $-1 $-1 $-1 $42 $-1 $14 #
shell $-1 $-1 $-1 $43 $-1 $16 #
shell $-1 $-1 $-1 $44 $-1 $18 #
shell $-1 $-1 $-1 $45 $-1 $20 #
shell $-1 $-1 $-1 $46 $-1 $22 #
shell $-1 $-1 $-1 $47 $-1 $24 #
shell $-1 $-1 $-1 $48 $-1 $26 #
shell $-1 $-1 $-1 $49 $-1 $28 #
face $-1 $50 $51 $30 $-1 $52 forward single #
face $-1 $53 $54 $31 $-1 $55 forward single #
face $-1 $56 $57 $32 $-1 $58 reversed single #
face $-1 $59 $60 $33 $-1 $61 forward single #
face $-1 $62 $63 $34 $-1 $64 reversed single #
face $-1 $65 $66 $35 $-1 $67 forward single #
face $-1 $68 $69 $36 $-1 $70 reversed single #
face $-1 $71 $72 $37 $-1 $73 forward single #
face $-1 $74 $75 $38 $-1 $76 reversed single #
face $-1 $77 $78 $39 $-1 $79 forward single #
face $-1 $80 $81 $30 $-1 $82 reversed single #
loop $-1 $-1 $83 $40 #
plane-surface $-1 0 0 9.5457765703993811 0 0 1 1 0 0 forward_v I I I I #
face $-1 $84 $85 $31 $-1 $86 reversed single #
loop $-1 $-1 $87 $41 #
plane-surface $-1 0 -20.630945312487697 8.9131184519975903 0 0 1 1 0 0 forward_v I I I I #
face $-1 $88 $89 $32 $-1 $90 reversed single #
loop $-1 $-1 $91 $42 #
plane-surface $-1 -85.8843961434101 -3.0801169541504905 71.623104254216855 0 1 0 -0.54463904215088732 0 0.83867056331134215 forward_v I I I I #
face $-1 $92 $93 $33 $-1 $94 forward single #
loop $-1 $95 $96 $43 #
cone-surface $-1 -33.810411420418063 1.3805217828126857 3.0220989533055662 0.54463904215088732 0 -0.83867056331134215 1.6773411266226843 0 1.0892780843017746 1 I I 0 1 2 forward I I I I #
face $-1 $97 $98 $34 $-1 $99 reversed single #
loop $-1 $-1 $100 $44 #
plane-surface $-1 -85.8843961434101 17.550828358337206 71.623104254216855 0 1 0 -0.54463904215088732 0 0.83867056331134215 forward_v I I I I #
face $-1 $101 $102 $35 $-1 $103 forward single #
loop $-1 $104 $105 $45 #
cone-surface $-1 -33.810411420418063 22.011467095300382 3.0220989533055662 0.54463904215088732 0 -0.83867056331134215 1.6773411266226843 0 1.0892780843017746 1 I I 0 1 2 forward I I I I #
face $-1 $106 $107 $36 $-1 $108 reversed single #
loop $-1 $-1 $109 $46 #
plane-surface $-1 16.933579653780555 5.8411605197758618 116.40028887383775 0 -1 0 -0.54463904215088732 0 -0.83867056331134215 forward_v I I I I #
face $-1 $110 $111 $37 $-1 $112 forward single #
loop $-1 $113 $114 $47 #
cone-surface $-1 33.810411420418049 1.3805217828126857 3.0220989533055573 -0.54463904215088732 0 -0.83867056331134215 1.6773411266226843 0 -1.0892780843017746 1 I I 0 1 2 forward I I I I #
face $-1 $115 $116 $38 $-1 $117 reversed single #
loop $-1 $-1 $118 $48 #
plane-surface $-1 -27.843604965840349 22.011467095300382 47.449472384208221 0.54463904215088732 0 0.83867056331134215 0.83867056331134215 0 -0.54463904215088732 forward_v I I I I #
face $-1 $119 $120 $39 $-1 $121 forward single #
loop $-1 $122 $123 $49 #
cone-surface $-1 33.810411420418049 22.011467095300382 3.0220989533055573 -0.54463904215088732 0 -0.83867056331134215 1.6773411266226843 0 -1.0892780843017746 1 I I 0 1 2 forward I I I I #
face $-1 $124 $125 $30 $-1 $126 reversed single #
loop $-1 $-1 $127 $50 #
plane-surface $-1 0 0 -9.5457765703993811 0 0 1 1 0 0 forward_v I I I I #
coedge $-1 $128 $129 $130 $131 forward $51 $-1 #
face $-1 $132 $133 $31 $-1 $134 reversed single #
loop $-1 $-1 $135 $53 #
plane-surface $-1 0 -20.630945312487697 5.854286553017535 0 0 1 1 0 0 forward_v I I I I #
coedge $-1 $136 $137 $138 $139 reversed $54 $-1 #
face $-1 $140 $141 $32 $-1 $142 reversed single #
loop $-1 $-1 $143 $56 #
plane-surface $-1 -41.107211523789196 1.3805217828126857 2.672287764587324 -0.54463904215088732 0 0.83867056331134215 0.83867056331134215 0 0.54463904215088732 forward_v I I I I #
coedge $-1 $144 $145 $146 $147 reversed $57 $-1 #
face $-1 $-1 $148 $33 $-1 $149 forward single #
loop $-1 $150 $151 $59 #
cone-surface $-1 -31.261094471937877 1.3805217828126857 -0.90350482419355771 0.54463904215088732 0 -0.83867056331134215 0.83867056331134215 0 0.54463904215088732 1 I I -0.70710678118654746 0.70710678118654746 1 forward I I I I #
loop $-1 $-1 $152 $43 #
coedge $-1 $96 $96 $153 $154 reversed $60 $-1 #
face $-1 $155 $156 $34 $-1 $157 forward single #
loop $-1 $-1 $158 $62 #
plane-surface $-1 -41.107211523789196 22.011467095300382 2.672287764587324 -0.54463904215088732 0 0.83867056331134215 0.83867056331134215 0 0.54463904215088732 forward_v I I I I #
coedge $-1 $159 $160 $161 $162 reversed $63 $-1 #
face $-1 $-1 $163 $35 $-1 $164 forward single #
loop $-1 $165 $166 $65 #
cone-surface $-1 -31.261094471937877 22.011467095300382 -0.90350482419355771 0.54463904215088732 0 -0.83867056331134215 0.83867056331134215 0 0.54463904215088732 1 I I -0.70710678118654746 0.70710678118654746 1 forward I I I I #
loop $-1 $-1 $167 $45 #
coedge $-1 $105 $105 $168 $169 reversed $66 $-1 #
face $-1 $170 $171 $36 $-1 $172 reversed single #
loop $-1 $-1 $173 $68 #
plane-surface $-1 -27.843604965840349 1.3805217828126857 47.449472384208221 0.54463904215088732 0 0.83867056331134215 0.83867056331134215 0 -0.54463904215088732 forward_v I I I I #
coedge $-1 $174 $175 $176 $177 reversed $69 $-1 #
face $-1 $-1 $178 $37 $-1 $179 forward single #
loop $-1 $180 $181 $71 #
cone-surface $-1 31.261094471937867 1.3805217828126857 -0.90350482419356659 -0.54463904215088732 0 -0.83867056331134215 0.83867056331134215 0 -0.54463904215088732 1 I I -0.70710678118654746 0.70710678118654746 1 forward I I I I #
loop $-1 $-1 $182 $47 #
coedge $-1 $114 $114 $183 $184 reversed $72 $-1 #
face $-1 $185 $186 $38 $-1 $187 reversed single #
loop $-1 $-1 $188 $74 #
plane-surface $-1 16.933579653780555 17.550828358337206 116.40028887383775 0 1 0 0.54463904215088732 0 0.83867056331134215 forward_v I I I I #
coedge $-1 $189 $190 $191 $192 reversed $75 $-1 #
face $-1 $-1 $193 $39 $-1 $194 forward single #
loop $-1 $195 $196 $77 #
cone-surface $-1 31.261094471937867 22.011467095300382 -0.90350482419356659 -0.54463904215088732 0 -0.83867056331134215 0.83867056331134215 0 -0.54463904215088732 1 I I -0.70710678118654746 0.70710678118654746 1 forward I I I I #
loop $-1 $-1 $197 $49 #
coedge $-1 $123 $123 $198 $199 reversed $78 $-1 #
face $-1 $200 $201 $30 $-1 $202 reversed single #
loop $-1 $-1 $203 $80 #
plane-surface $-1 0 -26.472105832263559 0 0 1 0 0 0 1 forward_v I I I I #
coedge $-1 $204 $205 $206 $207 forward $81 $-1 #
coedge $-1 $208 $83 $209 $210 forward $51 $-1 #
coedge $-1 $83 $208 $211 $212 forward $51 $-1 #
coedge $-1 $213 $214 $83 $131 reversed $215 $-1 #
edge $-1 $216 -26.472105832263559 $217 26.472105832263559 $130 $218 forward 7 unknown #
face $-1 $219 $220 $31 $-1 $221 reversed single #
loop $-1 $-1 $222 $84 #
plane-surface $-1 0 -14.789784792711835 7.3837025025075622 0 -1 0 0 0 -1 forward_v I I I I #
coedge $-1 $223 $224 $225 $226 reversed $85 $-1 #
coedge $-1 $227 $87 $228 $229 forward $54 $-1 #
coedge $-1 $87 $227 $230 $231 reversed $54 $-1 #
coedge $-1 $232 $233 $87 $139 forward $234 $-1 #
edge $-1 $235 4.4743121364679865 $236 16.15663317601971 $138 $237 forward 7 unknown #
face $-1 $238 $239 $32 $-1 $240 reversed single #
loop $-1 $-1 $241 $88 #
plane-surface $-1 -85.8843961434101 5.8411605197758618 71.623104254216855 0 -1 0 0.54463904215088732 0 -0.83867056331134215 forward_v I I I I #
coedge $-1 $242 $243 $244 $245 reversed $89 $-1 #
coedge $-1 $145 $91 $246 $247 reversed $57 $-1 #
coedge $-1 $91 $144 $242 $248 reversed $57 $-1 #
coedge $-1 $244 $249 $91 $147 forward $250 $-1 #
edge $-1 $251 1.8349865479158751 $252 12.419230941999473 $146 $253 forward 7 unknown #
loop $-1 $-1 $153 $92 #
plane-surface $-1 -41.107211523789196 1.3805217828126857 2.672287764587324 -0.54463904215088732 0 0.83867056331134215 0.83867056331134215 0 0.54463904215088732 forward_v I I I I #
loop $-1 $-1 $254 $59 #
coedge $-1 $151 $151 $152 $255 reversed $93 $-1 #
coedge $-1 $152 $152 $151 $255 forward $95 $-1 #
coedge $-1 $153 $153 $96 $154 forward $148 $-1 #
edge $-1 $256 0 $256 6.2831853071796004 $153 $257 forward 7 unknown #
face $-1 $258 $259 $34 $-1 $260 reversed single #
loop $-1 $-1 $161 $97 #
plane-surface $-1 0 0 9.5457765703993811 0 0 1 1 0 0 forward_v I I I I #
coedge $-1 $261 $262 $263 $264 reversed $98 $-1 #
coedge $-1 $160 $100 $265 $266 reversed $63 $-1 #
coedge $-1 $100 $159 $261 $267 reversed $63 $-1 #
coedge $-1 $263 $268 $100 $162 forward $156 $-1 #
edge $-1 $269 1.8349865479158751 $270 12.419230941999473 $161 $271 forward 7 unknown #
loop $-1 $-1 $168 $101 #
plane-surface $-1 -41.107211523789196 22.011467095300382 2.672287764587324 -0.54463904215088732 0 0.83867056331134215 0.83867056331134215 0 0.54463904215088732 forward_v I I I I #
loop $-1 $-1 $272 $65 #
coedge $-1 $166 $166 $167 $273 reversed $102 $-1 #
coedge $-1 $167 $167 $166 $273 forward $104 $-1 #
coedge $-1 $168 $168 $105 $169 forward $163 $-1 #
edge $-1 $274 0 $274 6.2831853071796004 $168 $275 forward 7 unknown #
face $-1 $276 $277 $36 $-1 $278 reversed single #
loop $-1 $-1 $279 $106 #
plane-surface $-1 16.933579653780555 -3.0801169541504905 116.40028887383775 0 1 0 0.54463904215088732 0 0.83867056331134215 forward_v I I I I #
coedge $-1 $280 $281 $282 $283 reversed $107 $-1 #
coedge $-1 $175 $109 $284 $285 reversed $69 $-1 #
coedge $-1 $109 $174 $280 $286 reversed $69 $-1 #
coedge $-1 $282 $287 $109 $177 forward $288 $-1 #
edge $-1 $289 -32.640421696898898 $290 -22.056177302815257 $176 $291 forward 7 unknown #
loop $-1 $-1 $183 $110 #
plane-surface $-1 -27.843604965840349 1.3805217828126857 47.449472384208221 0.54463904215088732 0 0.83867056331134215 0.83867056331134215 0 -0.54463904215088732 forward_v I I I I #
loop $-1 $-1 $292 $71 #
coedge $-1 $181 $181 $182 $293 reversed $111 $-1 #
coedge $-1 $182 $182 $181 $293 forward $113 $-1 #
coedge $-1 $183 $183 $114 $184 forward $178 $-1 #
edge $-1 $294 0 $294 6.2831853071796004 $183 $295 forward 7 unknown #
face $-1 $296 $297 $38 $-1 $298 forward single #
loop $-1 $-1 $299 $115 #
plane-surface $-1 41.107211523789175 0 0 -1 0 0 0 0 1 forward_v I I I I #
coedge $-1 $300 $301 $302 $303 reversed $116 $-1 #
coedge $-1 $304 $118 $305 $306 reversed $75 $-1 #
coedge $-1 $118 $304 $300 $307 forward $75 $-1 #
coedge $-1 $302 $308 $118 $192 forward $297 $-1 #
edge $-1 $309 -15.466372284613367 $310 -6.545094810687015 $191 $311 forward 7 unknown #
loop $-1 $-1 $198 $119 #
plane-surface $-1 -27.843604965840349 22.011467095300382 47.449472384208221 0.54463904215088732 0 0.83867056331134215 0.83867056331134215 0 -0.54463904215088732 forward_v I I I I #
loop $-1 $-1 $312 $77 #
coedge $-1 $196 $196 $197 $313 reversed $120 $-1 #
coedge $-1 $197 $197 $196 $313 forward $122 $-1 #
coedge $-1 $198 $198 $123 $199 forward $193 $-1 #
edge $-1 $314 0 $314 6.2831853071796004 $198 $315 forward 7 unknown #
face $-1 $316 $317 $30 $-1 $318 reversed single #
loop $-1 $-1 $319 $124 #
plane-surface $-1 -41.107211523789175 0 0 1 0 0 0 0 -1 forward_v I I I I #
coedge $-1 $320 $211 $321 $322 forward $125 $-1 #
coedge $-1 $323 $127 $320 $324 forward $81 $-1 #
coedge $-1 $127 $323 $325 $326 forward $81 $-1 #
coedge $-1 $214 $213 $127 $207 reversed $215 $-1 #
edge $-1 $327 -26.472105832263559 $328 26.472105832263559 $206 $329 forward 7 unknown #
coedge $-1 $129 $128 $330 $331 forward $51 $-1 #
coedge $-1 $332 $333 $128 $210 reversed $317 $-1 #
edge $-1 $217 -41.107211523789175 $334 41.107211523789175 $209 $335 forward 7 unknown #
coedge $-1 $203 $336 $129 $212 reversed $125 $-1 #
edge $-1 $337 -41.107211523789175 $216 41.107211523789175 $211 $338 forward 7 unknown #
coedge $-1 $206 $130 $336 $339 forward $215 $-1 #
coedge $-1 $130 $206 $332 $340 reversed $215 $-1 #
loop $-1 $-1 $213 $316 #
vertex $-1 $131 $341 #
vertex $-1 $131 $342 #
straight-curve $-1 41.107211523789175 0 9.5457765703993811 0 1 0 I I #
face $-1 $343 $344 $31 $-1 $345 reversed single #
loop $-1 $-1 $346 $132 #
plane-surface $-1 -41.107211523789175 0 0 1 0 0 0 0 -1 forward_v I I I I #
coedge $-1 $347 $228 $233 $348 reversed $133 $-1 #
coedge $-1 $349 $135 $350 $351 reversed $85 $-1 #
coedge $-1 $135 $349 $347 $352 forward $85 $-1 #
coedge $-1 $233 $232 $135 $226 forward $234 $-1 #
edge $-1 $353 -16.15663317601971 $354 -4.4743121364679865 $225 $355 forward 7 unknown #
coedge $-1 $137 $136 $346 $356 reversed $54 $-1 #
coedge $-1 $222 $357 $136 $229 reversed $133 $-1 #
edge $-1 $235 -41.107211523789175 $358 41.107211523789175 $228 $359 forward 7 unknown #
coedge $-1 $360 $361 $137 $231 forward $344 $-1 #
edge $-1 $236 -41.107211523789175 $362 41.107211523789175 $230 $363 forward 7 unknown #
coedge $-1 $225 $138 $361 $364 forward $234 $-1 #
coedge $-1 $138 $225 $222 $348 forward $234 $-1 #
loop $-1 $-1 $138 $343 #
vertex $-1 $139 $365 #
vertex $-1 $364 $366 #
straight-curve $-1 41.107211523789175 -10.315472656243848 8.9131184519975903 0 -1 0 I I #
face $-1 $-1 $250 $32 $-1 $367 forward single #
loop $-1 $-1 $368 $140 #
plane-surface $-1 -41.107211523789175 0 0 1 0 0 0 0 -1 forward_v I I I I #
coedge $-1 $369 $370 $371 $372 reversed $141 $-1 #
coedge $-1 $373 $143 $145 $248 forward $89 $-1 #
coedge $-1 $143 $373 $369 $374 forward $89 $-1 #
coedge $-1 $371 $146 $143 $245 forward $250 $-1 #
edge $-1 $252 -3.7703778455568333 $375 5.150899628369519 $244 $376 forward 7 unknown #
coedge $-1 $377 $378 $144 $247 forward $239 $-1 #
edge $-1 $379 -33.139264362521089 $251 -26.265775556709045 $246 $380 forward 7 unknown #
edge $-1 $252 -12.62026456764335 $379 -2.5375256272051921e-014 $145 $381 forward 7 unknown #
coedge $-1 $146 $371 $377 $382 forward $250 $-1 #
loop $-1 $-1 $371 $238 #
vertex $-1 $247 $383 #
vertex $-1 $147 $384 #
straight-curve $-1 -42.94219807170505 -3.0801169541504905 9.5457765703993829 1 0 0 I I #
coedge $-1 $254 $254 $-1 $385 reversed $150 $-1 #
edge $-1 $386 0 $386 6.2831853071796004 $151 $387 forward 7 unknown #
vertex $-1 $154 $388 #
ellipse-curve $-1 -35.815089326747369 1.3805217828126857 6.1090321674933632 -0.54463904215088732 0 0.83867056331134215 1.6773411266226843 0 1.0892780843017746 1 I I #
face $-1 $-1 $389 $34 $-1 $390 reversed single #
loop $-1 $-1 $391 $155 #
plane-surface $-1 0 26.472105832263559 0 0 -1 0 0 0 -1 forward_v I I I I #
coedge $-1 $392 $158 $160 $267 forward $98 $-1 #
coedge $-1 $158 $392 $391 $393 reversed $98 $-1 #
coedge $-1 $394 $161 $158 $264 forward $156 $-1 #
edge $-1 $270 6.545094810687015 $395 15.466372284613367 $263 $396 forward 7 unknown #
coedge $-1 $397 $398 $159 $266 forward $389 $-1 #
edge $-1 $399 -33.139264362521089 $269 -26.265775556709045 $265 $400 forward 7 unknown #
edge $-1 $270 -12.62026456764335 $399 -2.5375256272051921e-014 $160 $401 forward 7 unknown #
coedge $-1 $161 $394 $397 $402 forward $156 $-1 #
vertex $-1 $266 $403 #
vertex $-1 $162 $404 #
straight-curve $-1 -42.94219807170505 17.550828358337206 9.5457765703993829 1 0 0 I I #
coedge $-1 $272 $272 $-1 $405 reversed $165 $-1 #
edge $-1 $406 0 $406 6.2831853071796004 $166 $407 forward 7 unknown #
vertex $-1 $169 $408 #
ellipse-curve $-1 -35.815089326747369 22.011467095300382 6.1090321674933632 -0.54463904215088732 0 0.83867056331134215 1.6773411266226843 0 1.0892780843017746 1 I I #
face $-1 $-1 $288 $36 $-1 $409 forward single #
loop $-1 $-1 $410 $170 #
plane-surface $-1 41.107211523789175 0 0 -1 0 0 0 0 1 forward_v I I I I #
coedge $-1 $411 $412 $413 $414 reversed $171 $-1 #
coedge $-1 $415 $173 $175 $286 forward $107 $-1 #
coedge $-1 $173 $415 $411 $416 forward $107 $-1 #
coedge $-1 $413 $176 $173 $283 forward $288 $-1 #
edge $-1 $290 -5.150899628369519 $417 3.7703778455568333 $282 $418 forward 7 unknown #
coedge $-1 $419 $420 $174 $285 forward $277 $-1 #
edge $-1 $421 -55.527856672331552 $289 -48.654367866519493 $284 $422 forward 7 unknown #
edge $-1 $290 69.594158479934976 $421 82.214423047578336 $175 $423 forward 7 unknown #
coedge $-1 $176 $413 $419 $424 forward $288 $-1 #
loop $-1 $-1 $413 $276 #
vertex $-1 $285 $425 #
vertex $-1 $177 $426 #
straight-curve $-1 8.4667898268902775 5.8411605197758618 9.5457765703993829 -1 0 0 I I #
coedge $-1 $292 $292 $-1 $427 reversed $180 $-1 #
edge $-1 $428 0 $428 6.2831853071796004 $181 $429 forward 7 unknown #
vertex $-1 $184 $430 #
ellipse-curve $-1 35.815089326747355 1.3805217828126857 6.1090321674933525 0.54463904215088732 0 0.83867056331134215 1.6773411266226843 0 -1.0892780843017746 1 I I #
face $-1 $-1 $431 $38 $-1 $432 reversed single #
loop $-1 $-1 $302 $185 #
plane-surface $-1 0 0 9.5457765703993811 0 0 1 1 0 0 forward_v I I I I #
coedge $-1 $433 $434 $301 $435 forward $186 $-1 #
coedge $-1 $301 $188 $190 $307 reversed $116 $-1 #
coedge $-1 $188 $300 $299 $435 reversed $116 $-1 #
coedge $-1 $436 $191 $188 $303 forward $297 $-1 #
edge $-1 $310 22.056177302815257 $437 32.640421696898898 $302 $438 forward 7 unknown #
coedge $-1 $190 $189 $433 $439 reversed $75 $-1 #
coedge $-1 $440 $441 $189 $306 forward $431 $-1 #
edge $-1 $442 -57.617199521968359 $309 -44.996934954324999 $305 $443 forward 7 unknown #
edge $-1 $444 -82.214423047578336 $310 -69.594158479934976 $300 $445 forward 7 unknown #
coedge $-1 $191 $436 $440 $446 forward $297 $-1 #
vertex $-1 $306 $447 #
vertex $-1 $192 $448 #
straight-curve $-1 30.522967129705538 11.005733547650191 9.5457765703993793 0 -1 0 I I #
coedge $-1 $312 $312 $-1 $449 reversed $195 $-1 #
edge $-1 $450 0 $450 6.2831853071796004 $196 $451 forward 7 unknown #
vertex $-1 $199 $452 #
ellipse-curve $-1 35.815089326747355 22.011467095300382 6.1090321674933525 0.54463904215088732 0 0.83867056331134215 1.6773411266226843 0 -1.0892780843017746 1 I I #
face $-1 $-1 $215 $30 $-1 $453 reversed single #
loop $-1 $-1 $332 $200 #
plane-surface $-1 0 26.472105832263559 0 0 -1 0 0 0 -1 forward_v I I I I #
coedge $-1 $454 $330 $333 $455 forward $201 $-1 #
coedge $-1 $336 $203 $204 $324 reversed $125 $-1 #
coedge $-1 $330 $454 $203 $322 reversed $201 $-1 #
edge $-1 $337 -9.5457765703993811 $456 9.5457765703993811 $321 $457 forward 7 unknown #
coedge $-1 $205 $204 $454 $458 forward $81 $-1 #
edge $-1 $328 -41.107211523789175 $456 41.107211523789175 $320 $459 forward 7 unknown #
coedge $-1 $333 $332 $205 $326 reversed $317 $-1 #
edge $-1 $460 -41.107211523789175 $327 41.107211523789175 $325 $461 forward 7 unknown #
vertex $-1 $207 $462 #
vertex $-1 $339 $463 #
straight-curve $-1 41.107211523789175 0 -9.5457765703993811 0 -1 0 I I #
coedge $-1 $319 $321 $208 $331 reversed $201 $-1 #
edge $-1 $334 -26.472105832263559 $337 26.472105832263559 $330 $464 forward 7 unknown #
coedge $-1 $325 $209 $214 $340 forward $317 $-1 #
coedge $-1 $209 $325 $319 $455 reversed $317 $-1 #
vertex $-1 $210 $465 #
straight-curve $-1 0 26.472105832263559 9.5457765703993811 -1 0 0 I I #
coedge $-1 $211 $320 $213 $339 reversed $125 $-1 #
vertex $-1 $331 $466 #
straight-curve $-1 0 -26.472105832263559 9.5457765703993811 1 0 0 I I #
edge $-1 $216 -9.5457765703993811 $328 9.5457765703993811 $213 $467 forward 7 unknown #
edge $-1 $217 -9.5457765703993811 $327 9.5457765703993811 $214 $468 forward 7 unknown #
point $-1 41.107211523789175 -26.472105832263559 9.5457765703993811 #
point $-1 41.107211523789175 26.472105832263559 9.5457765703993811 #
face $-1 $-1 $234 $31 $-1 $469 reversed single #
loop $-1 $-1 $230 $219 #
plane-surface $-1 0 -26.472105832263559 0 0 1 0 0 0 1 forward_v I I I I #
coedge $-1 $470 $471 $227 $356 forward $220 $-1 #
coedge $-1 $357 $222 $224 $352 reversed $133 $-1 #
edge $-1 $354 2.1624353017637539 $235 5.2212672007438092 $233 $472 forward 7 unknown #
coedge $-1 $224 $223 $473 $474 reversed $85 $-1 #
coedge $-1 $361 $360 $223 $351 forward $344 $-1 #
edge $-1 $475 -41.107211523789175 $353 41.107211523789175 $350 $476 forward 7 unknown #
edge $-1 $477 -41.107211523789175 $354 41.107211523789175 $347 $478 forward 7 unknown #
vertex $-1 $351 $479 #
vertex $-1 $226 $480 #
straight-curve $-1 41.107211523789175 -10.315472656243848 5.854286553017535 0 1 0 I I #
edge $-1 $362 -16.15663317601971 $358 -4.4743121364679865 $346 $481 forward 7 unknown #
coedge $-1 $228 $347 $470 $482 reversed $133 $-1 #
vertex $-1 $356 $483 #
straight-curve $-1 0 -14.789784792711835 8.9131184519975903 -1 0 0 I I #
coedge $-1 $350 $230 $471 $484 forward $344 $-1 #
coedge $-1 $230 $350 $232 $364 reversed $344 $-1 #
vertex $-1 $484 $485 #
straight-curve $-1 0 -26.472105832263559 8.9131184519975903 -1 0 0 I I #
edge $-1 $236 -8.9131184519975903 $353 -5.854286553017535 $232 $486 forward 7 unknown #
point $-1 41.107211523789175 -14.789784792711835 8.9131184519975903 #
point $-1 41.107211523789175 -26.472105832263559 8.9131184519975903 #
plane-surface $-1 0 0 9.5457765703993811 0 0 1 1 0 0 forward_v I I I I #
coedge $-1 $378 $377 $370 $487 forward $239 $-1 #
coedge $-1 $370 $241 $243 $374 reversed $141 $-1 #
coedge $-1 $241 $369 $368 $487 reversed $141 $-1 #
coedge $-1 $249 $244 $241 $372 forward $250 $-1 #
edge $-1 $375 -12.419230941999473 $488 -1.8349865479158751 $371 $489 forward 7 unknown #
coedge $-1 $243 $242 $378 $490 reversed $89 $-1 #
edge $-1 $491 2.5375256272051921e-014 $375 12.62026456764335 $369 $492 forward 7 unknown #
vertex $-1 $245 $493 #
straight-curve $-1 -30.522967129705577 0.69026089140634284 9.5457765703993811 0 1 0 I I #
coedge $-1 $368 $246 $249 $382 reversed $239 $-1 #
coedge $-1 $246 $368 $373 $490 forward $239 $-1 #
vertex $-1 $247 $494 #
straight-curve $-1 -41.107211523789175 -3.0801169541504905 35.811552127108428 0 0 1 I I #
straight-curve $-1 -41.107211523789196 -3.0801169541504905 2.672287764587324 -0.83867056331134215 0 -0.54463904215088732 I I #
edge $-1 $488 -5.8411605197758618 $251 3.0801169541504905 $377 $495 forward 7 unknown #
point $-1 -41.107211523789175 -3.0801169541504905 9.5457765703993811 #
point $-1 -30.522967129705577 -3.0801169541504905 9.5457765703993811 #
edge $-1 $496 1 $496 0 $254 $-1 forward 7 unknown #
vertex $-1 $255 $497 #
ellipse-curve $-1 -31.805733514088764 1.3805217828126857 -0.064834260882215555 -0.54463904215088732 0 0.83867056331134215 1.6773411266226843 0 1.0892780843017746 1 I I #
point $-1 -34.137748200124676 1.3805217828126857 7.1983102517951227 #
loop $-1 $-1 $265 $258 #
plane-surface $-1 -41.107211523789175 0 0 1 0 0 0 0 -1 forward_v I I I I #
coedge $-1 $498 $499 $262 $393 forward $259 $-1 #
coedge $-1 $262 $261 $398 $500 reversed $98 $-1 #
edge $-1 $395 3.8897234305358528 $501 16.509987998179177 $391 $502 forward 7 unknown #
coedge $-1 $268 $263 $499 $503 forward $156 $-1 #
vertex $-1 $503 $504 #
straight-curve $-1 -30.522967129705577 11.005733547650191 9.5457765703993811 0 1 0 I I #
coedge $-1 $505 $265 $268 $402 reversed $389 $-1 #
coedge $-1 $265 $505 $392 $500 forward $389 $-1 #
vertex $-1 $266 $506 #
straight-curve $-1 -41.107211523789175 17.550828358337206 35.811552127108428 0 0 1 I I #
straight-curve $-1 -41.107211523789196 17.550828358337206 2.672287764587324 -0.83867056331134215 0 -0.54463904215088732 I I #
edge $-1 $507 -26.472105832263559 $269 -17.550828358337206 $397 $508 forward 7 unknown #
point $-1 -41.107211523789175 17.550828358337206 9.5457765703993811 #
point $-1 -30.522967129705577 17.550828358337206 9.5457765703993811 #
edge $-1 $509 1 $509 0 $272 $-1 forward 7 unknown #
vertex $-1 $273 $510 #
ellipse-curve $-1 -31.805733514088764 22.011467095300382 -0.064834260882215555 -0.54463904215088732 0 0.83867056331134215 1.6773411266226843 0 1.0892780843017746 1 I I #
point $-1 -34.137748200124676 22.011467095300382 7.1983102517951227 #
plane-surface $-1 0 0 9.5457765703993811 0 0 1 1 0 0 forward_v I I I I #
coedge $-1 $420 $419 $412 $511 forward $277 $-1 #
coedge $-1 $412 $279 $281 $416 reversed $171 $-1 #
coedge $-1 $279 $411 $410 $511 reversed $171 $-1 #
coedge $-1 $287 $282 $279 $414 forward $288 $-1 #
edge $-1 $417 22.056177302815257 $512 32.640421696898898 $413 $513 forward 7 unknown #
coedge $-1 $281 $280 $420 $514 reversed $107 $-1 #
edge $-1 $515 -82.214423047578336 $417 -69.594158479934976 $411 $516 forward 7 unknown #
vertex $-1 $283 $517 #
straight-curve $-1 30.522967129705538 0.69026089140634284 9.5457765703993793 0 -1 0 I I #
coedge $-1 $410 $284 $287 $424 reversed $277 $-1 #
coedge $-1 $284 $410 $415 $514 forward $277 $-1 #
vertex $-1 $285 $518 #
straight-curve $-1 41.107211523789175 5.8411605197758618 58.200144436918876 0 0 1 I I #
straight-curve $-1 -27.843604965840349 5.8411605197758618 47.449472384208221 0.83867056331134215 0 -0.54463904215088732 I I #
edge $-1 $512 -3.0801169541504905 $289 5.8411605197758618 $419 $519 forward 7 unknown #
point $-1 41.107211523789175 5.8411605197758618 9.5457765703993811 #
point $-1 30.522967129705535 5.8411605197758618 9.5457765703993829 #
edge $-1 $520 1 $520 0 $292 $-1 forward 7 unknown #
vertex $-1 $293 $521 #
ellipse-curve $-1 31.805733514088754 1.3805217828126857 -0.064834260882224437 0.54463904215088732 0 0.83867056331134215 1.6773411266226843 0 -1.0892780843017746 1 I I #
point $-1 37.492430453370034 1.3805217828126857 5.0197540831915646 #
loop $-1 $-1 $305 $296 #
plane-surface $-1 0 26.472105832263559 0 0 -1 0 0 0 -1 forward_v I I I I #
coedge $-1 $522 $299 $304 $439 forward $186 $-1 #
coedge $-1 $299 $522 $436 $523 reversed $186 $-1 #
edge $-1 $437 48.654367866519493 $444 55.527856672331552 $299 $524 forward 7 unknown #
coedge $-1 $308 $302 $434 $523 forward $297 $-1 #
vertex $-1 $523 $525 #
straight-curve $-1 8.4667898268902775 17.550828358337206 9.5457765703993829 1 0 0 I I #
edge $-1 $444 6.545094810687015 $442 15.466372284613367 $433 $526 forward 7 unknown #
coedge $-1 $441 $305 $308 $446 reversed $431 $-1 #
coedge $-1 $305 $440 $522 $527 forward $431 $-1 #
vertex $-1 $306 $528 #
straight-curve $-1 -7.2146376557220329 26.472105832263559 34.052864123648732 -0.83867056331134215 0 0.54463904215088732 I I #
vertex $-1 $439 $529 #
straight-curve $-1 -27.843604965840349 17.550828358337206 47.449472384208221 -0.83867056331134215 0 0.54463904215088732 I I #
edge $-1 $530 -41.107211523789175 $309 -30.522967129705535 $440 $531 forward 7 unknown #
point $-1 30.522967129705535 26.472105832263559 9.5457765703993829 #
point $-1 30.522967129705535 17.550828358337206 9.5457765703993829 #
edge $-1 $532 1 $532 0 $312 $-1 forward 7 unknown #
vertex $-1 $313 $533 #
ellipse-curve $-1 31.805733514088754 22.011467095300382 -0.064834260882224437 0.54463904215088732 0 0.83867056331134215 1.6773411266226843 0 -1.0892780843017746 1 I I #
point $-1 37.492430453370034 22.011467095300382 5.0197540831915646 #
plane-surface $-1 41.107211523789175 0 0 -1 0 0 0 0 1 forward_v I I I I #
coedge $-1 $321 $319 $323 $458 reversed $201 $-1 #
edge $-1 $334 -9.5457765703993811 $460 9.5457765703993811 $333 $534 forward 7 unknown #
vertex $-1 $458 $535 #
straight-curve $-1 -41.107211523789175 -26.472105832263559 0 0 0 -1 I I #
edge $-1 $456 -26.472105832263559 $460 26.472105832263559 $454 $536 forward 7 unknown #
straight-curve $-1 0 -26.472105832263559 -9.5457765703993811 -1 0 0 I I #
vertex $-1 $326 $537 #
straight-curve $-1 0 26.472105832263559 -9.5457765703993811 1 0 0 I I #
point $-1 41.107211523789175 26.472105832263559 -9.5457765703993811 #
point $-1 41.107211523789175 -26.472105832263559 -9.5457765703993811 #
straight-curve $-1 -41.107211523789175 0 9.5457765703993811 0 -1 0 I I #
point $-1 -41.107211523789175 26.472105832263559 9.5457765703993811 #
point $-1 -41.107211523789175 -26.472105832263559 9.5457765703993811 #
straight-curve $-1 41.107211523789175 -26.472105832263559 0 0 0 -1 I I #
straight-curve $-1 41.107211523789175 26.472105832263559 0 0 0 -1 I I #
plane-surface $-1 41.107211523789175 0 0 -1 0 0 0 0 1 forward_v I I I I #
coedge $-1 $473 $346 $357 $482 forward $220 $-1 #
coedge $-1 $346 $473 $360 $484 reversed $220 $-1 #
straight-curve $-1 41.107211523789175 -14.789784792711835 3.6918512512537811 0 0 1 I I #
coedge $-1 $471 $470 $349 $474 forward $220 $-1 #
edge $-1 $477 4.4743121364679865 $475 16.15663317601971 $473 $538 forward 7 unknown #
vertex $-1 $351 $539 #
straight-curve $-1 0 -26.472105832263559 5.854286553017535 1 0 0 I I #
vertex $-1 $474 $540 #
straight-curve $-1 0 -14.789784792711835 5.854286553017535 1 0 0 I I #
point $-1 41.107211523789175 -26.472105832263559 5.854286553017535 #
point $-1 41.107211523789175 -14.789784792711835 5.854286553017535 #
straight-curve $-1 -41.107211523789175 -10.315472656243848 8.9131184519975903 0 1 0 I I #
edge $-1 $358 -5.2212672007438092 $477 -2.1624353017637539 $470 $541 forward 7 unknown #
point $-1 -41.107211523789175 -14.789784792711835 8.9131184519975903 #
edge $-1 $362 -8.9131184519975903 $475 -5.854286553017535 $471 $542 forward 7 unknown #
point $-1 -41.107211523789175 -26.472105832263559 8.9131184519975903 #
straight-curve $-1 41.107211523789175 -26.472105832263559 0 0 0 -1 I I #
edge $-1 $488 26.265775556709045 $491 33.139264362521089 $368 $543 forward 7 unknown #
vertex $-1 $382 $544 #
straight-curve $-1 -42.94219807170505 5.8411605197758618 9.5457765703993829 -1 0 0 I I #
edge $-1 $491 -5.150899628369519 $379 3.7703778455568333 $378 $545 forward 7 unknown #
vertex $-1 $490 $546 #
straight-curve $-1 -41.107211523789196 5.8411605197758618 2.672287764587324 0.83867056331134215 0 0.54463904215088732 I I #
point $-1 -30.522967129705577 5.8411605197758618 9.5457765703993811 #
point $-1 -41.107211523789175 -3.0801169541504905 2.6722877645873377 #
straight-curve $-1 -41.107211523789175 0 9.5457765703993811 0 -1 0 I I #
vertex $-1 $385 $547 #
point $-1 -30.128392387466079 1.3805217828126857 1.024443823419559 #
coedge $-1 $499 $391 $505 $548 reversed $259 $-1 #
coedge $-1 $391 $498 $394 $503 reversed $259 $-1 #
edge $-1 $501 -15.466372284613367 $399 -6.545094810687015 $398 $549 forward 7 unknown #
vertex $-1 $393 $550 #
straight-curve $-1 -27.260770589092747 26.472105832263559 11.66427181383829 -0.83867056331134215 0 -0.54463904215088732 I I #
edge $-1 $395 30.522967129705577 $507 41.107211523789175 $499 $551 forward 7 unknown #
point $-1 -30.522967129705577 26.472105832263559 9.5457765703993811 #
coedge $-1 $398 $397 $498 $548 forward $389 $-1 #
point $-1 -41.107211523789175 17.550828358337206 2.6722877645873377 #
vertex $-1 $503 $552 #
straight-curve $-1 -41.107211523789175 0 9.5457765703993811 0 -1 0 I I #
vertex $-1 $405 $553 #
point $-1 -30.128392387466079 22.011467095300382 1.024443823419559 #
edge $-1 $512 48.654367866519493 $515 55.527856672331552 $410 $554 forward 7 unknown #
vertex $-1 $424 $555 #
straight-curve $-1 8.4667898268902775 -3.0801169541504905 9.5457765703993829 1 0 0 I I #
edge $-1 $515 -3.7703778455568333 $421 5.150899628369519 $420 $556 forward 7 unknown #
vertex $-1 $514 $557 #
straight-curve $-1 -27.843604965840349 -3.0801169541504905 47.449472384208221 -0.83867056331134215 0 0.54463904215088732 I I #
point $-1 30.522967129705535 -3.0801169541504905 9.5457765703993829 #
point $-1 41.107211523789168 5.8411605197758618 2.672287764587324 #
straight-curve $-1 41.107211523789175 0 9.5457765703993811 0 1 0 I I #
vertex $-1 $427 $558 #
point $-1 33.483074640711436 1.3805217828126857 -1.1541123451839992 #
coedge $-1 $434 $433 $441 $527 reversed $186 $-1 #
edge $-1 $437 17.550828358337206 $530 26.472105832263559 $434 $559 forward 7 unknown #
straight-curve $-1 41.107211523789175 17.550828358337206 58.200144436918876 0 0 -1 I I #
point $-1 41.107211523789175 17.550828358337206 9.5457765703993811 #
straight-curve $-1 41.107211523789168 11.005733547650191 2.6722877645873169 0 1 0 I I #
edge $-1 $530 -9.5457765703993811 $442 -2.672287764587324 $522 $560 forward 7 unknown #
point $-1 41.107211523789168 26.472105832263559 2.672287764587324 #
point $-1 41.107211523789168 17.550828358337206 2.672287764587324 #
vertex $-1 $523 $561 #
straight-curve $-1 0 26.472105832263559 9.5457765703993811 -1 0 0 I I #
vertex $-1 $449 $562 #
point $-1 33.483074640711436 22.011467095300382 -1.1541123451839992 #
straight-curve $-1 -41.107211523789175 26.472105832263559 0 0 0 -1 I I #
point $-1 -41.107211523789175 -26.472105832263559 -9.5457765703993811 #
straight-curve $-1 -41.107211523789175 0 -9.5457765703993811 0 1 0 I I #
point $-1 -41.107211523789175 26.472105832263559 -9.5457765703993811 #
straight-curve $-1 -41.107211523789175 -10.315472656243848 5.854286553017535 0 -1 0 I I #
point $-1 -41.107211523789175 -26.472105832263559 5.854286553017535 #
point $-1 -41.107211523789175 -14.789784792711835 5.854286553017535 #
straight-curve $-1 -41.107211523789175 -14.789784792711835 3.6918512512537811 0 0 -1 I I #
straight-curve $-1 -41.107211523789175 -26.472105832263559 0 0 0 -1 I I #
straight-curve $-1 -41.107211523789175 5.8411605197758618 35.811552127108428 0 0 -1 I I #
point $-1 -41.107211523789175 5.8411605197758618 9.5457765703993811 #
straight-curve $-1 -41.107211523789175 0.69026089140634284 2.6722877645873395 0 -1 0 I I #
point $-1 -41.107211523789175 5.8411605197758618 2.6722877645873377 #
point $-1 -30.71645542978699 1.3805217828126857 -1.7421753875048998 #
edge $-1 $507 -9.5457765703993811 $501 -2.6722877645873377 $498 $563 forward 7 unknown #
straight-curve $-1 -41.107211523789175 11.005733547650191 2.6722877645873395 0 -1 0 I I #
point $-1 -41.107211523789175 26.472105832263559 2.6722877645873377 #
straight-curve $-1 0 26.472105832263559 9.5457765703993811 -1 0 0 I I #
point $-1 -41.107211523789175 26.472105832263559 9.5457765703993811 #
point $-1 -30.71645542978699 22.011467095300382 -1.7421753875048998 #
straight-curve $-1 41.107211523789175 -3.0801169541504905 58.200144436918876 0 0 -1 I I #
point $-1 41.107211523789175 -3.0801169541504905 9.5457765703993811 #
straight-curve $-1 41.107211523789168 0.69026089140634284 2.6722877645873169 0 1 0 I I #
point $-1 41.107211523789168 -3.0801169541504905 2.672287764587324 #
point $-1 30.716455429786979 1.3805217828126857 -1.7421753875049086 #
straight-curve $-1 41.107211523789175 0 9.5457765703993811 0 1 0 I I #
straight-curve $-1 41.107211523789175 26.472105832263559 0 0 0 -1 I I #
point $-1 41.107211523789175 26.472105832263559 9.5457765703993811 #
point $-1 30.716455429786979 22.011467095300382 -1.7421753875049086 #
straight-curve $-1 -41.107211523789175 26.472105832263559 0 0 0 -1 I I #
End-of-ACIS-data 