500 0 3 0           
7 Unknown 11 ACIS 5.0 NT 24 Thu Mar 25 15:13:05 1999 
-1 9.9999999999999995e-007 1e-010 
body $-1 $3 $-1 $4 #
body $-1 $5 $-1 $6 #
body $-1 $7 $-1 $8 #
lump $-1 $-1 $9 $0 #
transform $-1 1 0 0 0 1 0 0 0 1 68.913235877559742 42.652302282517859 15.362352559222618 1 rotate no_reflect no_shear #
lump $-1 $-1 $10 $1 #
transform $-1 1 0 0 0 1 0 0 0 1 68.913235877559742 42.652302282517859 15.362352559222618 1 rotate no_reflect no_shear #
lump $-1 $-1 $11 $2 #
transform $-1 1 0 0 0 1 0 0 0 1 68.913235877559742 42.652302282517859 15.362352559222618 1 rotate no_reflect no_shear #
shell $-1 $-1 $-1 $12 $-1 $3 #
shell $-1 $-1 $-1 $13 $-1 $5 #
shell $-1 $-1 $-1 $14 $-1 $7 #
face $-1 $15 $16 $9 $-1 $17 forward single #
face $-1 $18 $19 $10 $-1 $20 reversed single #
face $-1 $21 $22 $11 $-1 $23 reversed single #
face $-1 $24 $25 $9 $-1 $26 reversed single #
loop $-1 $-1 $27 $12 #
plane-surface $-1 0 0 15.362352559222618 0 0 1 1 0 0 forward_v I I I I #
face $-1 $28 $29 $10 $-1 $30 forward single #
loop $-1 $-1 $31 $13 #
plane-surface $-1 0 -36.99480546587548 -8.8906327723334577 0 0 1 1 0 0 forward_v I I I I #
face $-1 $32 $33 $11 $-1 $34 reversed single #
loop $-1 $-1 $35 $14 #
plane-surface $-1 -56.662984933505143 49.258981229772566 0 1 0 0 0 0 -1 forward_v I I I I #
face $-1 $36 $37 $9 $-1 $38 reversed single #
loop $-1 $-1 $39 $15 #
plane-surface $-1 0 0 -15.362352559222618 0 0 1 1 0 0 forward_v I I I I #
coedge $-1 $40 $41 $42 $43 forward $16 $-1 #
face $-1 $44 $45 $10 $-1 $46 reversed single #
loop $-1 $-1 $47 $18 #
plane-surface $-1 0 -31.337308649233101 -12.126492665778038 0 -1 0 0 0 -1 forward_v I I I I #
coedge $-1 $48 $49 $50 $51 reversed $19 $-1 #
face $-1 $52 $53 $11 $-1 $54 reversed single #
loop $-1 $-1 $55 $21 #
plane-surface $-1 -53.732618644222967 55.865660177027273 0 0 -1 0 0 0 -1 forward_v I I I I #
coedge $-1 $56 $57 $58 $59 forward $22 $-1 #
face $-1 $60 $61 $9 $-1 $62 reversed single #
loop $-1 $-1 $63 $24 #
plane-surface $-1 0 -42.652302282517859 0 0 1 0 0 0 1 forward_v I I I I #
coedge $-1 $64 $65 $66 $67 forward $25 $-1 #
coedge $-1 $68 $27 $69 $70 forward $16 $-1 #
coedge $-1 $27 $68 $71 $72 forward $16 $-1 #
coedge $-1 $73 $74 $27 $43 reversed $75 $-1 #
edge $-1 $76 -42.652302282517859 $77 42.652302282517859 $42 $78 forward 7 unknown #
face $-1 $79 $80 $10 $-1 $81 reversed single #
loop $-1 $-1 $82 $28 #
plane-surface $-1 0 -42.652302282517859 0 0 1 0 0 0 1 forward_v I I I I #
coedge $-1 $83 $84 $85 $86 reversed $29 $-1 #
coedge $-1 $87 $31 $82 $88 reversed $19 $-1 #
coedge $-1 $31 $87 $83 $89 reversed $19 $-1 #
coedge $-1 $85 $90 $31 $51 forward $91 $-1 #
edge $-1 $92 -24.154899549580119 $93 -12.839905916295361 $50 $94 forward 7 unknown #
face $-1 $95 $96 $11 $-1 $97 reversed single #
loop $-1 $-1 $98 $32 #
plane-surface $-1 -50.802252354940791 49.258981229772566 0 -1 0 0 0 0 1 forward_v I I I I #
coedge $-1 $99 $100 $101 $102 forward $33 $-1 #
coedge $-1 $103 $35 $104 $105 reversed $22 $-1 #
coedge $-1 $35 $103 $106 $107 reversed $22 $-1 #
coedge $-1 $100 $99 $35 $59 reversed $33 $-1 #
edge $-1 $108 -15.362352559222618 $109 15.362352559222618 $58 $110 forward 7 unknown #
face $-1 $111 $112 $9 $-1 $113 reversed single #
loop $-1 $-1 $114 $36 #
plane-surface $-1 -68.913235877559742 0 0 1 0 0 0 0 -1 forward_v I I I I #
coedge $-1 $115 $71 $116 $117 forward $37 $-1 #
coedge $-1 $118 $39 $115 $119 forward $25 $-1 #
coedge $-1 $39 $118 $120 $121 forward $25 $-1 #
coedge $-1 $74 $73 $39 $67 reversed $75 $-1 #
edge $-1 $122 -42.652302282517859 $123 42.652302282517859 $66 $124 forward 7 unknown #
coedge $-1 $41 $40 $125 $126 forward $16 $-1 #
coedge $-1 $127 $128 $40 $70 reversed $112 $-1 #
edge $-1 $77 -68.913235877559742 $129 68.913235877559742 $69 $130 forward 7 unknown #
coedge $-1 $63 $131 $41 $72 reversed $37 $-1 #
edge $-1 $132 -68.913235877559742 $76 68.913235877559742 $71 $133 forward 7 unknown #
coedge $-1 $66 $42 $131 $134 forward $75 $-1 #
coedge $-1 $42 $66 $127 $135 reversed $75 $-1 #
loop $-1 $-1 $73 $111 #
vertex $-1 $43 $136 #
vertex $-1 $43 $137 #
straight-curve $-1 68.913235877559742 0 15.362352559222618 0 1 0 I I #
face $-1 $138 $139 $10 $-1 $140 forward single #
loop $-1 $-1 $141 $44 #
plane-surface $-1 0 0 -15.362352559222618 0 0 1 1 0 0 forward_v I I I I #
coedge $-1 $142 $143 $48 $88 forward $45 $-1 #
coedge $-1 $144 $47 $49 $89 forward $29 $-1 #
coedge $-1 $47 $144 $141 $145 reversed $29 $-1 #
coedge $-1 $146 $50 $47 $86 forward $91 $-1 #
edge $-1 $93 2.8273864394444388 $147 9.2991062263335991 $85 $148 forward 7 unknown #
coedge $-1 $49 $48 $149 $150 reversed $19 $-1 #
edge $-1 $151 -68.913235877559742 $92 68.913235877559742 $82 $152 forward 7 unknown #
edge $-1 $93 -68.913235877559742 $153 68.913235877559742 $83 $154 forward 7 unknown #
coedge $-1 $50 $155 $142 $156 forward $91 $-1 #
loop $-1 $-1 $85 $157 #
vertex $-1 $88 $158 #
vertex $-1 $51 $159 #
straight-curve $-1 68.913235877559742 -18.49740273293774 -8.8906327723334577 0 1 0 I I #
face $-1 $160 $161 $11 $-1 $97 reversed single #
loop $-1 $-1 $162 $52 #
plane-surface $-1 0 42.652302282517859 0 0 -1 0 0 0 -1 forward_v I I I I #
coedge $-1 $163 $164 $162 $165 reversed $53 $-1 #
coedge $-1 $58 $55 $166 $167 reversed $33 $-1 #
coedge $-1 $55 $58 $168 $169 reversed $33 $-1 #
coedge $-1 $164 $163 $55 $102 reversed $53 $-1 #
edge $-1 $170 -15.362352559222618 $171 15.362352559222618 $101 $172 forward 7 unknown #
coedge $-1 $57 $56 $173 $174 reversed $22 $-1 #
coedge $-1 $166 $175 $56 $105 forward $176 $-1 #
edge $-1 $177 -6.6066789472547072 $109 6.6066789472547072 $56 $178 forward 7 unknown #
coedge $-1 $179 $168 $57 $107 forward $180 $-1 #
edge $-1 $108 -6.6066789472547072 $181 6.6066789472547072 $57 $182 forward 7 unknown #
vertex $-1 $169 $183 #
vertex $-1 $167 $184 #
straight-curve $-1 -56.662984933505143 55.865660177027273 0 0 0 -1 I I #
face $-1 $-1 $75 $9 $-1 $185 reversed single #
loop $-1 $-1 $127 $60 #
plane-surface $-1 0 42.652302282517859 0 0 -1 0 0 0 -1 forward_v I I I I #
coedge $-1 $186 $125 $128 $187 forward $61 $-1 #
coedge $-1 $131 $63 $64 $119 reversed $37 $-1 #
coedge $-1 $125 $186 $63 $117 reversed $61 $-1 #
edge $-1 $132 -15.362352559222618 $188 15.362352559222618 $116 $189 forward 7 unknown #
coedge $-1 $65 $64 $186 $190 forward $25 $-1 #
edge $-1 $123 -68.913235877559742 $188 68.913235877559742 $115 $191 forward 7 unknown #
coedge $-1 $128 $127 $65 $121 reversed $112 $-1 #
edge $-1 $192 -68.913235877559742 $122 68.913235877559742 $120 $193 forward 7 unknown #
vertex $-1 $67 $194 #
vertex $-1 $134 $195 #
straight-curve $-1 68.913235877559742 0 -15.362352559222618 0 -1 0 I I #
coedge $-1 $114 $116 $68 $126 reversed $61 $-1 #
edge $-1 $129 -42.652302282517859 $132 42.652302282517859 $125 $196 forward 7 unknown #
coedge $-1 $120 $69 $74 $135 forward $112 $-1 #
coedge $-1 $69 $120 $114 $187 reversed $112 $-1 #
vertex $-1 $70 $197 #
straight-curve $-1 0 42.652302282517859 15.362352559222618 -1 0 0 I I #
coedge $-1 $71 $115 $73 $134 reversed $37 $-1 #
vertex $-1 $126 $198 #
straight-curve $-1 0 -42.652302282517859 15.362352559222618 1 0 0 I I #
edge $-1 $76 -15.362352559222618 $123 15.362352559222618 $73 $199 forward 7 unknown #
edge $-1 $77 -15.362352559222618 $122 15.362352559222618 $74 $200 forward 7 unknown #
point $-1 68.913235877559742 -42.652302282517859 15.362352559222618 #
point $-1 68.913235877559742 42.652302282517859 15.362352559222618 #
face $-1 $201 $202 $10 $-1 $203 reversed single #
loop $-1 $-1 $204 $79 #
plane-surface $-1 0 0 15.362352559222618 0 0 1 1 0 0 forward_v I I I I #
coedge $-1 $205 $206 $84 $145 forward $80 $-1 #
coedge $-1 $207 $82 $90 $156 reversed $45 $-1 #
coedge $-1 $82 $207 $208 $209 forward $45 $-1 #
coedge $-1 $84 $83 $210 $211 reversed $29 $-1 #
edge $-1 $147 -68.913235877559742 $212 68.913235877559742 $141 $213 forward 7 unknown #
coedge $-1 $214 $85 $206 $215 reversed $91 $-1 #
vertex $-1 $145 $216 #
straight-curve $-1 68.913235877559742 -31.337308649233101 -6.0632463328890189 0 0 -1 I I #
coedge $-1 $208 $210 $87 $150 forward $202 $-1 #
edge $-1 $153 12.839905916295361 $151 24.154899549580119 $149 $217 forward 7 unknown #
vertex $-1 $88 $218 #
straight-curve $-1 0 -42.652302282517859 -8.8906327723334577 1 0 0 I I #
vertex $-1 $150 $219 #
straight-curve $-1 0 -31.337308649233101 -8.8906327723334577 -1 0 0 I I #
coedge $-1 $90 $214 $204 $220 reversed $91 $-1 #
edge $-1 $221 -15.362352559222618 $92 8.8906327723334577 $90 $222 forward 7 unknown #
face $-1 $-1 $91 $10 $-1 $223 reversed single #
point $-1 68.913235877559742 -42.652302282517859 -8.8906327723334577 #
point $-1 68.913235877559742 -31.337308649233101 -8.8906327723334577 #
face $-1 $224 $225 $11 $-1 $226 reversed single #
loop $-1 $-1 $173 $95 #
coedge $-1 $227 $228 $98 $165 forward $96 $-1 #
coedge $-1 $101 $98 $229 $230 reversed $53 $-1 #
coedge $-1 $98 $101 $231 $232 reversed $53 $-1 #
edge $-1 $233 -15.362352559222618 $234 15.362352559222618 $162 $235 forward 7 unknown #
coedge $-1 $229 $104 $99 $167 forward $176 $-1 #
edge $-1 $109 -2.9303662892821762 $171 2.9303662892821762 $99 $236 forward 7 unknown #
coedge $-1 $106 $231 $100 $169 forward $180 $-1 #
edge $-1 $170 -2.9303662892821762 $108 2.9303662892821762 $100 $237 forward 7 unknown #
vertex $-1 $232 $238 #
vertex $-1 $230 $239 #
straight-curve $-1 -50.802252354940791 55.865660177027273 0 0 0 -1 I I #
coedge $-1 $240 $241 $103 $174 forward $161 $-1 #
edge $-1 $181 -15.362352559222618 $177 15.362352559222618 $173 $242 forward 7 unknown #
coedge $-1 $104 $243 $240 $244 forward $176 $-1 #
loop $-1 $-1 $245 $246 #
vertex $-1 $105 $247 #
straight-curve $-1 -56.662984933505143 49.258981229772566 -15.362352559222618 0 1 0 I I #
coedge $-1 $248 $106 $241 $249 forward $180 $-1 #
loop $-1 $-1 $250 $251 #
vertex $-1 $249 $252 #
straight-curve $-1 -56.662984933505143 49.258981229772566 15.362352559222618 0 -1 0 I I #
point $-1 -56.662984933505143 55.865660177027273 15.362352559222618 #
point $-1 -56.662984933505143 55.865660177027273 -15.362352559222618 #
plane-surface $-1 68.913235877559742 0 0 -1 0 0 0 0 1 forward_v I I I I #
coedge $-1 $116 $114 $118 $190 reversed $61 $-1 #
edge $-1 $129 -15.362352559222618 $192 15.362352559222618 $128 $253 forward 7 unknown #
vertex $-1 $190 $254 #
straight-curve $-1 -68.913235877559742 -42.652302282517859 0 0 0 -1 I I #
edge $-1 $188 -42.652302282517859 $192 42.652302282517859 $186 $255 forward 7 unknown #
straight-curve $-1 0 -42.652302282517859 -15.362352559222618 -1 0 0 I I #
vertex $-1 $121 $256 #
straight-curve $-1 0 42.652302282517859 -15.362352559222618 1 0 0 I I #
point $-1 68.913235877559742 42.652302282517859 -15.362352559222618 #
point $-1 68.913235877559742 -42.652302282517859 -15.362352559222618 #
straight-curve $-1 -68.913235877559742 0 15.362352559222618 0 -1 0 I I #
point $-1 -68.913235877559742 42.652302282517859 15.362352559222618 #
point $-1 -68.913235877559742 -42.652302282517859 15.362352559222618 #
straight-curve $-1 68.913235877559742 -42.652302282517859 0 0 0 -1 I I #
straight-curve $-1 68.913235877559742 42.652302282517859 0 0 0 -1 I I #
face $-1 $157 $257 $10 $-1 $258 reversed single #
loop $-1 $-1 $149 $138 #
plane-surface $-1 -68.913235877559742 0 0 1 0 0 0 0 -1 forward_v I I I I #
coedge $-1 $259 $260 $155 $220 forward $139 $-1 #
coedge $-1 $261 $141 $262 $263 forward $80 $-1 #
coedge $-1 $141 $261 $146 $215 forward $80 $-1 #
coedge $-1 $143 $142 $260 $264 reversed $45 $-1 #
coedge $-1 $265 $149 $143 $209 reversed $202 $-1 #
edge $-1 $266 -15.362352559222618 $151 8.8906327723334577 $208 $267 forward 7 unknown #
coedge $-1 $149 $262 $144 $211 forward $202 $-1 #
edge $-1 $212 -9.2991062263335991 $153 -2.8273864394444388 $210 $268 forward 7 unknown #
vertex $-1 $263 $269 #
straight-curve $-1 0 -31.337308649233101 -15.362352559222618 -1 0 0 I I #
coedge $-1 $155 $146 $270 $271 reversed $91 $-1 #
edge $-1 $272 -42.652302282517859 $147 31.337308649233101 $146 $273 forward 7 unknown #
point $-1 68.913235877559742 -31.337308649233101 -15.362352559222618 #
straight-curve $-1 -68.913235877559742 -18.49740273293774 -8.8906327723334577 0 -1 0 I I #
point $-1 -68.913235877559742 -42.652302282517859 -8.8906327723334577 #
point $-1 -68.913235877559742 -31.337308649233101 -8.8906327723334577 #
edge $-1 $221 -42.652302282517859 $274 42.652302282517859 $155 $275 forward 7 unknown #
vertex $-1 $220 $276 #
straight-curve $-1 68.913235877559742 -42.652302282517859 0 0 0 -1 I I #
plane-surface $-1 68.913235877559742 0 0 -1 0 0 0 0 1 forward_v I I I I #
face $-1 $277 $278 $11 $-1 $279 forward single #
loop $-1 $-1 $280 $160 #
plane-surface $-1 0 -36.99480546587548 -8.8906327723334577 0 0 1 1 0 0 forward_v I I I I #
coedge $-1 $281 $162 $282 $283 reversed $96 $-1 #
coedge $-1 $162 $281 $284 $285 reversed $96 $-1 #
coedge $-1 $284 $166 $163 $230 forward $176 $-1 #
edge $-1 $171 -6.6066789472547072 $233 6.6066789472547072 $163 $286 forward 7 unknown #
coedge $-1 $168 $282 $164 $232 forward $180 $-1 #
edge $-1 $234 -6.6066789472547072 $170 6.6066789472547072 $164 $287 forward 7 unknown #
vertex $-1 $285 $288 #
vertex $-1 $232 $289 #
straight-curve $-1 -50.802252354940791 42.652302282517859 0 0 0 1 I I #
straight-curve $-1 -53.732618644222967 55.865660177027273 -15.362352559222618 1 0 0 I I #
straight-curve $-1 -53.732618644222967 55.865660177027273 15.362352559222618 -1 0 0 I I #
point $-1 -50.802252354940791 55.865660177027273 15.362352559222618 #
point $-1 -50.802252354940791 55.865660177027273 -15.362352559222618 #
coedge $-1 $290 $173 $175 $244 reversed $161 $-1 #
coedge $-1 $173 $290 $179 $249 reversed $161 $-1 #
straight-curve $-1 -56.662984933505143 42.652302282517859 0 0 0 -1 I I #
coedge $-1 $175 $245 $291 $292 forward $176 $-1 #
edge $-1 $293 -68.913235877559742 $177 -56.662984933505143 $240 $294 forward 7 unknown #
coedge $-1 $243 $295 $296 $297 forward $176 $-1 #
face $-1 $251 $176 $11 $-1 $298 reversed single #
point $-1 -56.662984933505143 42.652302282517859 -15.362352559222618 #
coedge $-1 $299 $179 $300 $301 forward $180 $-1 #
edge $-1 $181 56.662984933505143 $302 68.913235877559742 $241 $303 forward 7 unknown #
coedge $-1 $282 $299 $304 $305 forward $180 $-1 #
face $-1 $306 $180 $11 $-1 $307 forward single #
point $-1 -56.662984933505143 42.652302282517859 15.362352559222618 #
straight-curve $-1 -68.913235877559742 42.652302282517859 0 0 0 -1 I I #
point $-1 -68.913235877559742 -42.652302282517859 -15.362352559222618 #
straight-curve $-1 -68.913235877559742 0 -15.362352559222618 0 1 0 I I #
point $-1 -68.913235877559742 42.652302282517859 -15.362352559222618 #
loop $-1 $-1 $270 $201 #
plane-surface $-1 0 42.652302282517859 0 0 -1 0 0 0 -1 forward_v I I I I #
coedge $-1 $308 $204 $309 $310 forward $139 $-1 #
coedge $-1 $204 $308 $207 $264 forward $139 $-1 #
coedge $-1 $206 $205 $311 $312 forward $80 $-1 #
coedge $-1 $210 $313 $205 $263 reversed $202 $-1 #
edge $-1 $212 -31.337308649233101 $314 42.652302282517859 $262 $315 forward 7 unknown #
edge $-1 $266 -68.913235877559742 $221 68.913235877559742 $207 $316 forward 7 unknown #
coedge $-1 $313 $208 $308 $317 reversed $202 $-1 #
vertex $-1 $317 $318 #
straight-curve $-1 -68.913235877559742 -42.652302282517859 0 0 0 -1 I I #
straight-curve $-1 -68.913235877559742 -31.337308649233101 -6.0632463328890189 0 0 1 I I #
point $-1 -68.913235877559742 -31.337308649233101 -15.362352559222618 #
coedge $-1 $311 $309 $214 $271 forward $257 $-1 #
edge $-1 $274 -15.362352559222618 $272 15.362352559222618 $214 $319 forward 7 unknown #
vertex $-1 $215 $320 #
straight-curve $-1 68.913235877559742 0 -15.362352559222618 0 -1 0 I I #
vertex $-1 $220 $321 #
straight-curve $-1 68.913235877559742 0 15.362352559222618 0 1 0 I I #
point $-1 68.913235877559742 -42.652302282517859 15.362352559222618 #
face $-1 $246 $322 $11 $-1 $323 reversed single #
loop $-1 $-1 $324 $224 #
plane-surface $-1 0 -31.337308649233101 -12.126492665778038 0 -1 0 0 0 -1 forward_v I I I I #
coedge $-1 $325 $326 $327 $328 reversed $225 $-1 #
coedge $-1 $228 $227 $329 $330 forward $96 $-1 #
coedge $-1 $231 $250 $227 $283 forward $180 $-1 #
edge $-1 $331 -68.913235877559742 $234 50.802252354940791 $227 $303 forward 7 unknown #
coedge $-1 $295 $229 $228 $285 forward $176 $-1 #
edge $-1 $233 -50.802252354940791 $332 68.913235877559742 $228 $294 forward 7 unknown #
straight-curve $-1 -50.802252354940791 49.258981229772566 -15.362352559222618 0 -1 0 I I #
straight-curve $-1 -50.802252354940791 49.258981229772566 15.362352559222618 0 1 0 I I #
point $-1 -50.802252354940791 42.652302282517859 -15.362352559222618 #
point $-1 -50.802252354940791 42.652302282517859 15.362352559222618 #
coedge $-1 $241 $240 $333 $334 reversed $161 $-1 #
coedge $-1 $335 $333 $243 $292 reversed $336 $-1 #
edge $-1 $337 -31.337308649233101 $293 42.652302282517859 $291 $338 forward 7 unknown #
vertex $-1 $244 $339 #
straight-curve $-1 0 42.652302282517859 -15.362352559222618 1 0 0 I I #
coedge $-1 $245 $284 $340 $341 forward $176 $-1 #
coedge $-1 $324 $342 $245 $297 reversed $278 $-1 #
edge $-1 $343 -68.913235877559742 $337 68.913235877559742 $245 $344 forward 7 unknown #
plane-surface $-1 0 0 -15.362352559222618 0 0 1 1 0 0 forward_v I I I I #
coedge $-1 $250 $248 $345 $346 forward $180 $-1 #
coedge $-1 $333 $347 $248 $301 reversed $336 $-1 #
edge $-1 $302 -42.652302282517859 $348 42.652302282517859 $300 $349 forward 7 unknown #
vertex $-1 $249 $350 #
straight-curve $-1 0 42.652302282517859 15.362352559222618 -1 0 0 I I #
coedge $-1 $351 $329 $250 $305 reversed $352 $-1 #
edge $-1 $353 -42.652302282517859 $331 42.652302282517859 $304 $354 forward 7 unknown #
face $-1 $355 $336 $11 $-1 $356 reversed single #
plane-surface $-1 0 0 15.362352559222618 0 0 1 1 0 0 forward_v I I I I #
coedge $-1 $260 $259 $265 $317 forward $139 $-1 #
coedge $-1 $270 $357 $259 $310 reversed $257 $-1 #
edge $-1 $274 -68.913235877559742 $358 68.913235877559742 $309 $359 forward 7 unknown #
coedge $-1 $357 $270 $261 $312 reversed $257 $-1 #
edge $-1 $314 -68.913235877559742 $272 68.913235877559742 $311 $360 forward 7 unknown #
coedge $-1 $262 $265 $357 $361 forward $202 $-1 #
vertex $-1 $312 $362 #
straight-curve $-1 -68.913235877559742 0 -15.362352559222618 0 1 0 I I #
straight-curve $-1 0 -42.652302282517859 15.362352559222618 1 0 0 I I #
edge $-1 $358 -42.652302282517859 $266 42.652302282517859 $265 $363 forward 7 unknown #
point $-1 -68.913235877559742 -42.652302282517859 15.362352559222618 #
straight-curve $-1 68.913235877559742 42.652302282517859 0 0 0 -1 I I #
point $-1 68.913235877559742 42.652302282517859 -15.362352559222618 #
point $-1 68.913235877559742 42.652302282517859 15.362352559222618 #
loop $-1 $-1 $364 $277 #
plane-surface $-1 0 -42.652302282517859 0 0 1 0 0 0 1 forward_v I I I I #
coedge $-1 $365 $296 $366 $367 reversed $278 $-1 #
coedge $-1 $368 $280 $364 $369 reversed $225 $-1 #
coedge $-1 $280 $368 $365 $370 reversed $225 $-1 #
coedge $-1 $366 $351 $280 $328 forward $352 $-1 #
edge $-1 $371 -24.154899549580119 $372 -12.839905916295361 $327 $373 forward 7 unknown #
coedge $-1 $304 $340 $281 $330 reversed $352 $-1 #
edge $-1 $331 -15.362352559222618 $332 15.362352559222618 $329 $374 forward 7 unknown #
vertex $-1 $305 $375 #
vertex $-1 $341 $376 #
coedge $-1 $291 $300 $290 $334 forward $336 $-1 #
edge $-1 $302 -15.362352559222618 $293 15.362352559222618 $290 $377 forward 7 unknown #
coedge $-1 $378 $291 $342 $379 forward $336 $-1 #
loop $-1 $-1 $378 $306 #
vertex $-1 $292 $380 #
straight-curve $-1 -68.913235877559742 0 -15.362352559222618 0 1 0 I I #
point $-1 -68.913235877559742 42.652302282517859 -15.362352559222618 #
coedge $-1 $329 $366 $295 $341 reversed $352 $-1 #
edge $-1 $332 -42.652302282517859 $343 31.337308649233101 $340 $381 forward 7 unknown #
coedge $-1 $296 $365 $335 $379 reversed $278 $-1 #
vertex $-1 $297 $382 #
straight-curve $-1 0 -31.337308649233101 -15.362352559222618 -1 0 0 I I #
coedge $-1 $383 $384 $299 $346 reversed $322 $-1 #
edge $-1 $348 -68.913235877559742 $353 68.913235877559742 $345 $385 forward 7 unknown #
coedge $-1 $300 $378 $383 $386 reversed $336 $-1 #
vertex $-1 $301 $387 #
straight-curve $-1 -68.913235877559742 0 15.362352559222618 0 -1 0 I I #
point $-1 -68.913235877559742 42.652302282517859 15.362352559222618 #
coedge $-1 $327 $304 $384 $388 forward $352 $-1 #
loop $-1 $-1 $366 $355 #
vertex $-1 $305 $389 #
straight-curve $-1 68.913235877559742 0 15.362352559222618 0 1 0 I I #
face $-1 $-1 $352 $11 $-1 $390 reversed single #
plane-surface $-1 -68.913235877559742 0 0 1 0 0 0 0 -1 forward_v I I I I #
coedge $-1 $309 $311 $313 $361 reversed $257 $-1 #
vertex $-1 $310 $391 #
straight-curve $-1 0 42.652302282517859 15.362352559222618 -1 0 0 I I #
straight-curve $-1 0 42.652302282517859 -15.362352559222618 1 0 0 I I #
edge $-1 $358 -15.362352559222618 $314 15.362352559222618 $357 $392 forward 7 unknown #
point $-1 -68.913235877559742 42.652302282517859 -15.362352559222618 #
straight-curve $-1 -68.913235877559742 0 15.362352559222618 0 -1 0 I I #
coedge $-1 $384 $383 $325 $369 forward $322 $-1 #
coedge $-1 $342 $324 $326 $370 forward $278 $-1 #
coedge $-1 $340 $327 $324 $367 forward $352 $-1 #
edge $-1 $372 2.8273864394444388 $343 9.2991062263335991 $366 $393 forward 7 unknown #
coedge $-1 $326 $325 $378 $394 reversed $225 $-1 #
edge $-1 $395 -68.913235877559742 $371 68.913235877559742 $364 $396 forward 7 unknown #
edge $-1 $372 -68.913235877559742 $397 68.913235877559742 $365 $398 forward 7 unknown #
vertex $-1 $369 $399 #
vertex $-1 $328 $400 #
straight-curve $-1 68.913235877559742 -18.49740273293774 -8.8906327723334577 0 1 0 I I #
straight-curve $-1 68.913235877559742 42.652302282517859 0 0 0 -1 I I #
point $-1 68.913235877559742 42.652302282517859 15.362352559222618 #
point $-1 68.913235877559742 42.652302282517859 -15.362352559222618 #
straight-curve $-1 -68.913235877559742 42.652302282517859 0 0 0 -1 I I #
coedge $-1 $347 $335 $368 $394 forward $336 $-1 #
edge $-1 $337 -9.2991062263335991 $397 -2.8273864394444388 $335 $401 forward 7 unknown #
point $-1 -68.913235877559742 -31.337308649233101 -15.362352559222618 #
straight-curve $-1 68.913235877559742 0 -15.362352559222618 0 -1 0 I I #
point $-1 68.913235877559742 -31.337308649233101 -15.362352559222618 #
coedge $-1 $364 $345 $347 $386 forward $322 $-1 #
coedge $-1 $345 $364 $351 $388 reversed $322 $-1 #
straight-curve $-1 0 -42.652302282517859 15.362352559222618 1 0 0 I I #
edge $-1 $348 -15.362352559222618 $395 8.8906327723334577 $347 $402 forward 7 unknown #
point $-1 -68.913235877559742 -42.652302282517859 15.362352559222618 #
edge $-1 $353 -15.362352559222618 $371 8.8906327723334577 $351 $403 forward 7 unknown #
point $-1 68.913235877559742 -42.652302282517859 15.362352559222618 #
plane-surface $-1 68.913235877559742 0 0 -1 0 0 0 0 1 forward_v I I I I #
point $-1 -68.913235877559742 42.652302282517859 15.362352559222618 #
straight-curve $-1 -68.913235877559742 42.652302282517859 0 0 0 -1 I I #
straight-curve $-1 68.913235877559742 -31.337308649233101 -6.0632463328890189 0 0 -1 I I #
edge $-1 $397 12.839905916295361 $395 24.154899549580119 $378 $404 forward 7 unknown #
vertex $-1 $369 $405 #
straight-curve $-1 0 -42.652302282517859 -8.8906327723334577 1 0 0 I I #
vertex $-1 $394 $406 #
straight-curve $-1 0 -31.337308649233101 -8.8906327723334577 -1 0 0 I I #
point $-1 68.913235877559742 -42.652302282517859 -8.8906327723334577 #
point $-1 68.913235877559742 -31.337308649233101 -8.8906327723334577 #
straight-curve $-1 -68.913235877559742 -31.337308649233101 -6.0632463328890189 0 0 1 I I #
straight-curve $-1 -68.913235877559742 -42.652302282517859 0 0 0 -1 I I #
straight-curve $-1 68.913235877559742 -42.652302282517859 0 0 0 -1 I I #
straight-curve $-1 -68.913235877559742 -18.49740273293774 -8.8906327723334577 0 -1 0 I I #
point $-1 -68.913235877559742 -42.652302282517859 -8.8906327723334577 #
point $-1 -68.913235877559742 -31.337308649233101 -8.8906327723334577 #
End-of-ACIS-data 