500 0 13 0           
7 Unknown 11 ACIS 5.0 NT 24 Fri Mar 26 02:52:41 1999 
-1 9.9999999999999995e-007 1e-010 
body $-1 $13 $-1 $14 #
body $-1 $15 $-1 $16 #
body $-1 $17 $-1 $18 #
body $-1 $19 $-1 $20 #
body $-1 $21 $-1 $22 #
body $-1 $23 $-1 $24 #
body $-1 $25 $-1 $26 #
body $-1 $27 $-1 $28 #
body $-1 $29 $-1 $30 #
body $-1 $31 $-1 $32 #
body $-1 $33 $-1 $34 #
body $-1 $35 $-1 $36 #
body $-1 $37 $-1 $38 #
lump $-1 $-1 $39 $0 #
transform $-1 1 0 0 0 1 0 0 0 1 71.291238135929433 37.621156780523812 16.196604341913918 1 rotate no_reflect no_shear #
lump $-1 $-1 $40 $1 #
transform $-1 1 0 0 0 1 0 0 0 1 71.291238135929433 37.621156780523812 16.196604341913918 1 rotate no_reflect no_shear #
lump $-1 $-1 $41 $2 #
transform $-1 1 0 0 0 1 0 0 0 1 71.291238135929433 37.621156780523812 16.196604341913918 1 rotate no_reflect no_shear #
lump $-1 $-1 $42 $3 #
transform $-1 1 0 0 0 1 0 0 0 1 71.291238135929433 37.621156780523812 16.196604341913918 1 rotate no_reflect no_shear #
lump $-1 $-1 $43 $4 #
transform $-1 1 0 0 0 1 0 0 0 1 71.291238135929433 37.621156780523812 16.196604341913918 1 rotate no_reflect no_shear #
lump $-1 $-1 $44 $5 #
transform $-1 1 0 0 0 1 0 0 0 1 71.291238135929433 37.621156780523812 16.196604341913918 1 rotate no_reflect no_shear #
lump $-1 $-1 $45 $6 #
transform $-1 1 0 0 0 1 0 0 0 1 71.291238135929433 37.621156780523812 16.196604341913918 1 rotate no_reflect no_shear #
lump $-1 $-1 $46 $7 #
transform $-1 1 0 0 0 1 0 0 0 1 71.291238135929433 37.621156780523812 16.196604341913918 1 rotate no_reflect no_shear #
lump $-1 $-1 $47 $8 #
transform $-1 1 0 0 0 1 0 0 0 1 71.291238135929433 37.621156780523812 16.196604341913918 1 rotate no_reflect no_shear #
lump $-1 $-1 $48 $9 #
transform $-1 1 0 0 0 1 0 0 0 1 71.291238135929433 37.621156780523812 16.196604341913918 1 rotate no_reflect no_shear #
lump $-1 $-1 $49 $10 #
transform $-1 1 0 0 0 1 0 0 0 1 71.291238135929433 37.621156780523812 16.196604341913918 1 rotate no_reflect no_shear #
lump $-1 $-1 $50 $11 #
transform $-1 1 0 0 0 1 0 0 0 1 71.291238135929433 37.621156780523812 16.196604341913918 1 rotate no_reflect no_shear #
lump $-1 $-1 $51 $12 #
transform $-1 1 0 0 0 1 0 0 0 1 71.291238135929433 37.621156780523812 16.196604341913918 1 rotate no_reflect no_shear #
shell $-1 $-1 $-1 $52 $-1 $13 #
shell $-1 $-1 $-1 $53 $-1 $15 #
shell $-1 $-1 $-1 $54 $-1 $17 #
shell $-1 $-1 $-1 $55 $-1 $19 #
shell $-1 $-1 $-1 $56 $-1 $21 #
shell $-1 $-1 $-1 $57 $-1 $23 #
shell $-1 $-1 $-1 $58 $-1 $25 #
shell $-1 $-1 $-1 $59 $-1 $27 #
shell $-1 $-1 $-1 $60 $-1 $29 #
shell $-1 $-1 $-1 $61 $-1 $31 #
shell $-1 $-1 $-1 $62 $-1 $33 #
shell $-1 $-1 $-1 $63 $-1 $35 #
shell $-1 $-1 $-1 $64 $-1 $37 #
face $-1 $65 $66 $39 $-1 $67 forward single #
face $-1 $68 $69 $40 $-1 $70 forward single #
face $-1 $71 $72 $41 $-1 $73 reversed single #
face $-1 $74 $75 $42 $-1 $76 forward single #
face $-1 $77 $78 $43 $-1 $79 forward single #
face $-1 $80 $81 $44 $-1 $82 reversed single #
face $-1 $83 $84 $45 $-1 $85 forward single #
face $-1 $86 $87 $46 $-1 $88 reversed single #
face $-1 $89 $90 $47 $-1 $91 forward single #
face $-1 $92 $93 $48 $-1 $94 reversed single #
face $-1 $95 $96 $49 $-1 $97 forward single #
face $-1 $98 $99 $50 $-1 $100 reversed single #
face $-1 $101 $102 $51 $-1 $103 forward single #
face $-1 $104 $105 $39 $-1 $106 reversed single #
loop $-1 $-1 $107 $52 #
plane-surface $-1 0 0 16.196604341913918 0 0 1 1 0 0 forward_v I I I I #
face $-1 $108 $109 $40 $-1 $110 reversed single #
loop $-1 $-1 $111 $53 #
plane-surface $-1 -71.291238135929433 0 0 1 0 0 0 0 -1 forward_v I I I I #
face $-1 $112 $113 $41 $-1 $114 reversed single #
loop $-1 $-1 $115 $54 #
plane-surface $-1 22.978396542262125 63.338251089486839 162.55533374139006 1 0 0 0 -0.6018150307709319 -0.79863550430605224 forward_v I I I I #
face $-1 $116 $117 $42 $-1 $118 forward single #
loop $-1 $119 $120 $55 #
cone-surface $-1 32.738772573798002 27.500259240743546 7.6343920283393576 0 -0.6018150307709319 -0.79863550430605224 3 0 0 1 I I 0 1 3 forward I I I I #
face $-1 $121 $122 $43 $-1 $123 forward single #
loop $-1 $124 $125 $56 #
cone-surface $-1 47.3793366211018 27.500259240743546 7.6343920283393576 0 -0.6018150307709319 -0.79863550430605224 3 0 0 1 I I 0 1 3 forward I I I I #
face $-1 $126 $127 $44 $-1 $128 reversed single #
loop $-1 $-1 $129 $57 #
plane-surface $-1 -37.853006184054038 -133.02745673190003 111.72063404913266 -1 0 0 0 -0.66913061440640931 0.74314481823134659 forward_v I I I I #
face $-1 $130 $131 $45 $-1 $132 forward single #
loop $-1 $133 $134 $58 #
cone-surface $-1 -44.522600477282865 -31.176058081088364 10.256721858288822 0 0.66913061440640931 -0.74314481823134659 1.5 0 0 1 I I 0 1 1.5 forward I I I I #
face $-1 $135 $136 $46 $-1 $137 reversed single #
loop $-1 $-1 $138 $59 #
plane-surface $-1 -7.2321479574437593 -133.02745673190003 111.72063404913266 -1 0 0 0 -0.66913061440640931 0.74314481823134659 forward_v I I I I #
face $-1 $139 $140 $47 $-1 $141 forward single #
loop $-1 $142 $143 $60 #
cone-surface $-1 -13.901742250672577 -31.176058081088364 10.256721858288822 0 0.66913061440640931 -0.74314481823134659 1.5 0 0 1 I I 0 1 1.5 forward I I I I #
face $-1 $144 $145 $48 $-1 $146 reversed single #
loop $-1 $-1 $147 $61 #
plane-surface $-1 23.388710269166523 -133.02745673190003 111.72063404913266 -1 0 0 0 -0.66913061440640931 0.74314481823134659 forward_v I I I I #
face $-1 $148 $149 $49 $-1 $150 forward single #
loop $-1 $151 $152 $62 #
cone-surface $-1 16.719115975937711 -31.176058081088364 10.256721858288822 0 0.66913061440640931 -0.74314481823134659 1.5 0 0 1 I I 0 1 1.5 forward I I I I #
face $-1 $153 $154 $50 $-1 $155 reversed single #
loop $-1 $-1 $156 $63 #
plane-surface $-1 54.009568495776804 -133.02745673190003 111.72063404913266 -1 0 0 0 -0.66913061440640931 0.74314481823134659 forward_v I I I I #
face $-1 $157 $158 $51 $-1 $159 forward single #
loop $-1 $160 $161 $64 #
cone-surface $-1 47.339974202547992 -31.176058081088364 10.256721858288822 0 0.66913061440640931 -0.74314481823134659 1.5 0 0 1 I I 0 1 1.5 forward I I I I #
face $-1 $162 $163 $39 $-1 $164 reversed single #
loop $-1 $-1 $165 $65 #
plane-surface $-1 0 0 -16.196604341913918 0 0 1 1 0 0 forward_v I I I I #
coedge $-1 $166 $167 $168 $169 forward $66 $-1 #
face $-1 $170 $171 $40 $-1 $172 forward single #
loop $-1 $-1 $173 $68 #
plane-surface $-1 0 37.621156780523812 0 0 -1 0 0 0 -1 forward_v I I I I #
coedge $-1 $174 $175 $176 $177 forward $69 $-1 #
face $-1 $178 $179 $41 $-1 $180 reversed single #
loop $-1 $-1 $181 $71 #
plane-surface $-1 40.059054597449887 -22.470026255457576 48.68390589880832 0 0.6018150307709319 0.79863550430605224 1 0 0 forward_v I I I I #
coedge $-1 $182 $183 $184 $185 reversed $72 $-1 #
face $-1 $-1 $186 $42 $-1 $187 forward single #
loop $-1 $188 $189 $74 #
cone-surface $-1 32.738772573798002 24.966178450907499 4.2715533053674974 0 -0.6018150307709319 -0.79863550430605224 1.5 0 0 1 I I -0.70710678118654757 0.70710678118654757 1.5 forward I I I I #
loop $-1 $-1 $190 $55 #
coedge $-1 $120 $120 $191 $192 reversed $75 $-1 #
face $-1 $-1 $193 $43 $-1 $194 forward single #
loop $-1 $195 $196 $77 #
cone-surface $-1 47.3793366211018 24.966178450907499 4.2715533053674974 0 -0.6018150307709319 -0.79863550430605224 1.5 0 0 1 I I -0.70710678118654757 0.70710678118654757 1.5 forward I I I I #
loop $-1 $-1 $197 $56 #
coedge $-1 $125 $125 $198 $199 reversed $78 $-1 #
face $-1 $200 $201 $44 $-1 $202 reversed single #
loop $-1 $-1 $203 $80 #
plane-surface $-1 -44.522600477282865 -37.621156780523833 5.7612056371068121 0 -0.66913061440640931 0.74314481823134659 1 0 0 forward_v I I I I #
coedge $-1 $204 $205 $206 $207 reversed $81 $-1 #
face $-1 $-1 $208 $45 $-1 $209 forward single #
loop $-1 $210 $211 $83 #
cone-surface $-1 -44.522600477282865 -30.02395349404711 8.9771801133937714 0 0.66913061440640931 -0.74314481823134659 0.75 0 0 1 I I -0.70710678118654757 0.70710678118654757 0.75 forward I I I I #
loop $-1 $-1 $212 $58 #
coedge $-1 $134 $134 $213 $214 reversed $84 $-1 #
face $-1 $215 $216 $46 $-1 $217 reversed single #
loop $-1 $-1 $218 $86 #
plane-surface $-1 -13.901742250672584 -37.621156780523833 5.7612056371068121 0 -0.66913061440640931 0.74314481823134659 1 0 0 forward_v I I I I #
coedge $-1 $219 $220 $221 $222 reversed $87 $-1 #
face $-1 $-1 $223 $47 $-1 $224 forward single #
loop $-1 $225 $226 $89 #
cone-surface $-1 -13.901742250672577 -30.02395349404711 8.9771801133937714 0 0.66913061440640931 -0.74314481823134659 0.75 0 0 1 I I -0.70710678118654757 0.70710678118654757 0.75 forward I I I I #
loop $-1 $-1 $227 $60 #
coedge $-1 $143 $143 $228 $229 reversed $90 $-1 #
face $-1 $230 $231 $48 $-1 $232 reversed single #
loop $-1 $-1 $233 $92 #
plane-surface $-1 16.719115975937697 -37.621156780523833 5.7612056371068121 0 -0.66913061440640931 0.74314481823134659 1 0 0 forward_v I I I I #
coedge $-1 $234 $235 $236 $237 reversed $93 $-1 #
face $-1 $-1 $238 $49 $-1 $239 forward single #
loop $-1 $240 $241 $95 #
cone-surface $-1 16.719115975937711 -30.02395349404711 8.9771801133937714 0 0.66913061440640931 -0.74314481823134659 0.75 0 0 1 I I -0.70710678118654757 0.70710678118654757 0.75 forward I I I I #
loop $-1 $-1 $242 $62 #
coedge $-1 $152 $152 $243 $244 reversed $96 $-1 #
face $-1 $245 $246 $50 $-1 $247 reversed single #
loop $-1 $-1 $248 $98 #
plane-surface $-1 47.339974202547978 -37.621156780523833 5.7612056371068121 0 -0.66913061440640931 0.74314481823134659 1 0 0 forward_v I I I I #
coedge $-1 $249 $250 $251 $252 reversed $99 $-1 #
face $-1 $-1 $253 $51 $-1 $254 forward single #
loop $-1 $255 $256 $101 #
cone-surface $-1 47.339974202547992 -30.02395349404711 8.9771801133937714 0 0.66913061440640931 -0.74314481823134659 0.75 0 0 1 I I -0.70710678118654757 0.70710678118654757 0.75 forward I I I I #
loop $-1 $-1 $257 $64 #
coedge $-1 $161 $161 $258 $259 reversed $102 $-1 #
face $-1 $260 $261 $39 $-1 $262 reversed single #
loop $-1 $-1 $263 $104 #
plane-surface $-1 0 -37.621156780523812 0 0 1 0 0 0 1 forward_v I I I I #
coedge $-1 $264 $265 $266 $267 forward $105 $-1 #
coedge $-1 $268 $107 $269 $270 forward $66 $-1 #
coedge $-1 $107 $268 $271 $272 forward $66 $-1 #
coedge $-1 $273 $274 $107 $169 reversed $275 $-1 #
edge $-1 $276 -37.621156780523812 $277 37.621156780523812 $168 $278 forward 7 unknown #
face $-1 $279 $280 $40 $-1 $281 reversed single #
loop $-1 $-1 $176 $108 #
plane-surface $-1 -81.340759818638304 0 -12.847945148984142 0 0 1 1 0 0 forward_v I I I I #
coedge $-1 $282 $283 $175 $284 forward $109 $-1 #
coedge $-1 $285 $111 $286 $287 reversed $69 $-1 #
coedge $-1 $111 $285 $173 $284 reversed $69 $-1 #
coedge $-1 $288 $289 $111 $177 reversed $171 $-1 #
edge $-1 $290 -37.621156780523812 $291 37.621156780523812 $176 $292 forward 7 unknown #
face $-1 $293 $294 $41 $-1 $295 forward single #
loop $-1 $-1 $296 $112 #
plane-surface $-1 57.139712652637648 63.338251089486839 162.55533374139006 -1 0 0 0 0.6018150307709319 0.79863550430605224 forward_v I I I I #
coedge $-1 $297 $298 $299 $300 reversed $113 $-1 #
coedge $-1 $183 $115 $301 $302 reversed $72 $-1 #
coedge $-1 $115 $182 $297 $303 reversed $72 $-1 #
coedge $-1 $299 $304 $115 $185 forward $294 $-1 #
edge $-1 $305 -5.9520312357803924 $306 11.027047356420884 $184 $307 forward 7 unknown #
loop $-1 $-1 $191 $116 #
plane-surface $-1 40.059054597449887 -22.470026255457576 48.68390589880832 0 0.6018150307709319 0.79863550430605224 1 0 0 forward_v I I I I #
loop $-1 $-1 $308 $74 #
coedge $-1 $189 $189 $190 $309 reversed $117 $-1 #
coedge $-1 $190 $190 $189 $309 forward $119 $-1 #
coedge $-1 $191 $191 $120 $192 forward $186 $-1 #
edge $-1 $310 -1.3445375379664005e-017 $310 6.2831853071796004 $191 $311 forward 7 unknown #
loop $-1 $-1 $198 $121 #
plane-surface $-1 40.059054597449887 -22.470026255457576 48.68390589880832 0 0.6018150307709319 0.79863550430605224 1 0 0 forward_v I I I I #
loop $-1 $-1 $312 $77 #
coedge $-1 $196 $196 $197 $313 reversed $122 $-1 #
coedge $-1 $197 $197 $196 $313 forward $124 $-1 #
coedge $-1 $198 $198 $125 $199 forward $193 $-1 #
edge $-1 $314 -1.3445375379664005e-017 $314 6.2831853071796004 $198 $315 forward 7 unknown #
face $-1 $316 $317 $44 $-1 $318 reversed single #
loop $-1 $-1 $319 $126 #
plane-surface $-1 -51.192194770511691 -133.02745673190003 111.72063404913266 1 0 0 0 0.66913061440640931 -0.74314481823134659 forward_v I I I I #
coedge $-1 $320 $321 $322 $323 reversed $127 $-1 #
coedge $-1 $205 $129 $324 $325 reversed $81 $-1 #
coedge $-1 $129 $204 $320 $326 reversed $81 $-1 #
coedge $-1 $322 $327 $129 $207 forward $328 $-1 #
edge $-1 $329 28.892571585426204 $330 40.482255731824168 $206 $331 forward 7 unknown #
loop $-1 $-1 $213 $130 #
plane-surface $-1 -44.522600477282865 -37.621156780523833 5.7612056371068121 0 -0.66913061440640931 0.74314481823134659 1 0 0 forward_v I I I I #
loop $-1 $-1 $332 $83 #
coedge $-1 $211 $211 $212 $333 reversed $131 $-1 #
coedge $-1 $212 $212 $211 $333 forward $133 $-1 #
coedge $-1 $213 $213 $134 $214 forward $208 $-1 #
edge $-1 $334 7.0120339827835448e-016 $334 6.2831853071796013 $213 $335 forward 7 unknown #
face $-1 $336 $337 $46 $-1 $338 reversed single #
loop $-1 $-1 $339 $135 #
plane-surface $-1 -20.57133654390141 -133.02745673190003 111.72063404913266 1 0 0 0 0.66913061440640931 -0.74314481823134659 forward_v I I I I #
coedge $-1 $340 $341 $342 $343 reversed $136 $-1 #
coedge $-1 $220 $138 $344 $345 reversed $87 $-1 #
coedge $-1 $138 $219 $340 $346 reversed $87 $-1 #
coedge $-1 $342 $347 $138 $222 forward $348 $-1 #
edge $-1 $349 28.892571585426204 $350 40.482255731824168 $221 $351 forward 7 unknown #
loop $-1 $-1 $228 $139 #
plane-surface $-1 -13.901742250672584 -37.621156780523833 5.7612056371068121 0 -0.66913061440640931 0.74314481823134659 1 0 0 forward_v I I I I #
loop $-1 $-1 $352 $89 #
coedge $-1 $226 $226 $227 $353 reversed $140 $-1 #
coedge $-1 $227 $227 $226 $353 forward $142 $-1 #
coedge $-1 $228 $228 $143 $229 forward $223 $-1 #
edge $-1 $354 7.0120339827835448e-016 $354 6.2831853071796013 $228 $355 forward 7 unknown #
face $-1 $356 $357 $48 $-1 $358 reversed single #
loop $-1 $-1 $359 $144 #
plane-surface $-1 10.049521682708873 -133.02745673190003 111.72063404913266 1 0 0 0 0.66913061440640931 -0.74314481823134659 forward_v I I I I #
coedge $-1 $360 $361 $362 $363 reversed $145 $-1 #
coedge $-1 $235 $147 $364 $365 reversed $93 $-1 #
coedge $-1 $147 $234 $360 $366 reversed $93 $-1 #
coedge $-1 $362 $367 $147 $237 forward $368 $-1 #
edge $-1 $369 28.892571585426204 $370 40.482255731824168 $236 $371 forward 7 unknown #
loop $-1 $-1 $243 $148 #
plane-surface $-1 16.719115975937697 -37.621156780523833 5.7612056371068121 0 -0.66913061440640931 0.74314481823134659 1 0 0 forward_v I I I I #
loop $-1 $-1 $372 $95 #
coedge $-1 $241 $241 $242 $373 reversed $149 $-1 #
coedge $-1 $242 $242 $241 $373 forward $151 $-1 #
coedge $-1 $243 $243 $152 $244 forward $238 $-1 #
edge $-1 $374 7.0120339827835448e-016 $374 6.2831853071796013 $243 $375 forward 7 unknown #
face $-1 $376 $377 $50 $-1 $378 reversed single #
loop $-1 $-1 $379 $153 #
plane-surface $-1 40.670379909319152 -133.02745673190003 111.72063404913266 1 0 0 0 0.66913061440640931 -0.74314481823134659 forward_v I I I I #
coedge $-1 $380 $381 $382 $383 reversed $154 $-1 #
coedge $-1 $250 $156 $384 $385 reversed $99 $-1 #
coedge $-1 $156 $249 $380 $386 reversed $99 $-1 #
coedge $-1 $382 $387 $156 $252 forward $388 $-1 #
edge $-1 $389 28.892571585426204 $390 40.482255731824168 $251 $391 forward 7 unknown #
loop $-1 $-1 $258 $157 #
plane-surface $-1 47.339974202547978 -37.621156780523833 5.7612056371068121 0 -0.66913061440640931 0.74314481823134659 1 0 0 forward_v I I I I #
loop $-1 $-1 $392 $101 #
coedge $-1 $256 $256 $257 $393 reversed $158 $-1 #
coedge $-1 $257 $257 $256 $393 forward $160 $-1 #
coedge $-1 $258 $258 $161 $259 forward $253 $-1 #
edge $-1 $394 7.0120339827835448e-016 $394 6.2831853071796013 $258 $395 forward 7 unknown #
face $-1 $396 $397 $39 $-1 $398 reversed single #
loop $-1 $-1 $399 $162 #
plane-surface $-1 -71.291238135929433 0 0 1 0 0 0 0 -1 forward_v I I I I #
coedge $-1 $400 $271 $401 $402 forward $163 $-1 #
coedge $-1 $403 $165 $400 $404 forward $105 $-1 #
coedge $-1 $165 $403 $405 $406 forward $105 $-1 #
coedge $-1 $274 $273 $165 $267 reversed $275 $-1 #
edge $-1 $407 -37.621156780523812 $408 37.621156780523812 $266 $409 forward 7 unknown #
coedge $-1 $167 $166 $410 $411 forward $66 $-1 #
coedge $-1 $412 $413 $166 $270 reversed $397 $-1 #
edge $-1 $277 -71.291238135929433 $414 71.291238135929433 $269 $415 forward 7 unknown #
coedge $-1 $263 $416 $167 $272 reversed $163 $-1 #
edge $-1 $417 -71.291238135929433 $276 71.291238135929433 $271 $418 forward 7 unknown #
coedge $-1 $266 $168 $416 $419 forward $275 $-1 #
coedge $-1 $168 $266 $412 $420 reversed $275 $-1 #
loop $-1 $-1 $273 $396 #
vertex $-1 $169 $421 #
vertex $-1 $169 $422 #
straight-curve $-1 71.291238135929433 0 16.196604341913918 0 1 0 I I #
face $-1 $423 $424 $40 $-1 $425 reversed single #
loop $-1 $-1 $426 $170 #
plane-surface $-1 -91.390281501347175 0 -14.52227474544903 1 0 0 0 0 -1 forward_v I I I I #
coedge $-1 $427 $173 $428 $429 reversed $109 $-1 #
coedge $-1 $173 $427 $288 $430 reversed $109 $-1 #
edge $-1 $290 12.847945148984142 $431 16.196604341913918 $173 $432 forward 7 unknown #
coedge $-1 $175 $174 $433 $434 reversed $69 $-1 #
coedge $-1 $435 $436 $174 $287 forward $437 $-1 #
edge $-1 $438 -16.196604341913918 $291 -12.847945148984142 $286 $439 forward 7 unknown #
coedge $-1 $440 $176 $283 $430 forward $171 $-1 #
coedge $-1 $176 $440 $435 $441 forward $171 $-1 #
vertex $-1 $284 $442 #
vertex $-1 $441 $443 #
straight-curve $-1 -71.291238135929433 0 -12.847945148984142 0 -1 0 I I #
face $-1 $-1 $444 $41 $-1 $445 reversed single #
loop $-1 $-1 $184 $178 #
plane-surface $-1 0 0 16.196604341913918 0 0 1 1 0 0 forward_v I I I I #
coedge $-1 $446 $447 $448 $449 reversed $179 $-1 #
coedge $-1 $450 $181 $183 $303 forward $113 $-1 #
coedge $-1 $181 $450 $446 $451 forward $113 $-1 #
coedge $-1 $448 $184 $181 $300 forward $294 $-1 #
edge $-1 $306 2.9488692435371817 $452 37.110185353912705 $299 $453 forward 7 unknown #
coedge $-1 $454 $455 $182 $302 forward $444 $-1 #
edge $-1 $456 -77.8757162229047 $305 -65.081062528781104 $301 $457 forward 7 unknown #
edge $-1 $306 53.982203660280476 $456 75.242313561047638 $183 $458 forward 7 unknown #
coedge $-1 $184 $448 $454 $459 forward $294 $-1 #
vertex $-1 $302 $460 #
vertex $-1 $185 $461 #
straight-curve $-1 22.978396542262125 31.669125544743419 16.196604341913911 0 -1 0 I I #
coedge $-1 $308 $308 $-1 $462 reversed $188 $-1 #
edge $-1 $463 0 $463 6.2831853071796004 $189 $464 forward 7 unknown #
vertex $-1 $192 $465 #
ellipse-curve $-1 32.738772573798002 29.131617484423185 9.7992774948521237 0 0.6018150307709319 0.79863550430605224 3 0 0 1 I I #
coedge $-1 $312 $312 $-1 $466 reversed $195 $-1 #
edge $-1 $467 0 $467 6.2831853071796004 $196 $468 forward 7 unknown #
vertex $-1 $199 $469 #
ellipse-curve $-1 47.3793366211018 29.131617484423185 9.7992774948521237 0 0.6018150307709319 0.79863550430605224 3 0 0 1 I I #
face $-1 $-1 $328 $44 $-1 $470 forward single #
loop $-1 $-1 $471 $200 #
plane-surface $-1 0 -37.621156780523812 0 0 1 0 0 0 1 forward_v I I I I #
coedge $-1 $472 $473 $474 $475 reversed $201 $-1 #
coedge $-1 $476 $203 $205 $326 forward $127 $-1 #
coedge $-1 $203 $476 $472 $477 forward $127 $-1 #
coedge $-1 $474 $206 $203 $323 forward $328 $-1 #
edge $-1 $330 15.591705945412606 $478 28.930894531870258 $322 $479 forward 7 unknown #
coedge $-1 $480 $481 $204 $325 forward $317 $-1 #
edge $-1 $482 -50.099111387459494 $329 -39.66371268265241 $324 $483 forward 7 unknown #
edge $-1 $330 -15.595458465257076 $482 -2.8915846743243384e-014 $205 $484 forward 7 unknown #
coedge $-1 $206 $474 $480 $485 forward $328 $-1 #
loop $-1 $-1 $474 $316 #
vertex $-1 $325 $486 #
vertex $-1 $207 $487 #
straight-curve $-1 -37.853006184054038 -66.513728365950016 16.196604341913918 0 1 0 I I #
coedge $-1 $332 $332 $-1 $488 reversed $210 $-1 #
edge $-1 $489 0 $489 6.2831853071796004 $211 $490 forward 7 unknown #
vertex $-1 $214 $491 #
ellipse-curve $-1 -44.522600477282865 -31.826314707324826 10.978904989510378 0 -0.66913061440640931 0.74314481823134659 1.5 0 0 1 I I #
face $-1 $-1 $348 $46 $-1 $492 forward single #
loop $-1 $-1 $493 $215 #
plane-surface $-1 0 -37.621156780523812 0 0 1 0 0 0 1 forward_v I I I I #
coedge $-1 $494 $495 $496 $497 reversed $216 $-1 #
coedge $-1 $498 $218 $220 $346 forward $136 $-1 #
coedge $-1 $218 $498 $494 $499 forward $136 $-1 #
coedge $-1 $496 $221 $218 $343 forward $348 $-1 #
edge $-1 $350 0.28127683210746746 $500 13.620465418565118 $342 $501 forward 7 unknown #
coedge $-1 $502 $503 $219 $345 forward $337 $-1 #
edge $-1 $504 -50.099111387459494 $349 -39.66371268265241 $344 $505 forward 7 unknown #
edge $-1 $350 -15.595458465257076 $504 -2.8915846743243384e-014 $220 $506 forward 7 unknown #
coedge $-1 $221 $496 $502 $507 forward $348 $-1 #
loop $-1 $-1 $496 $336 #
vertex $-1 $345 $508 #
vertex $-1 $222 $509 #
straight-curve $-1 -7.2321479574437593 -66.513728365950016 16.196604341913918 0 1 0 I I #
coedge $-1 $352 $352 $-1 $510 reversed $225 $-1 #
edge $-1 $511 0 $511 6.2831853071796004 $226 $512 forward 7 unknown #
vertex $-1 $229 $513 #
ellipse-curve $-1 -13.901742250672577 -31.826314707324826 10.978904989510378 0 -0.66913061440640931 0.74314481823134659 1.5 0 0 1 I I #
face $-1 $-1 $368 $48 $-1 $514 forward single #
loop $-1 $-1 $515 $230 #
plane-surface $-1 0 -37.621156780523812 0 0 1 0 0 0 1 forward_v I I I I #
coedge $-1 $516 $517 $518 $519 reversed $231 $-1 #
coedge $-1 $520 $233 $235 $366 forward $145 $-1 #
coedge $-1 $233 $520 $516 $521 forward $145 $-1 #
coedge $-1 $518 $236 $233 $363 forward $368 $-1 #
edge $-1 $370 -15.029152281197675 $522 -1.6899636947400243 $362 $523 forward 7 unknown #
coedge $-1 $524 $525 $234 $365 forward $357 $-1 #
edge $-1 $526 -50.099111387459494 $369 -39.66371268265241 $364 $527 forward 7 unknown #
edge $-1 $370 -15.595458465257076 $526 -2.8915846743243384e-014 $235 $528 forward 7 unknown #
coedge $-1 $236 $518 $524 $529 forward $368 $-1 #
loop $-1 $-1 $518 $356 #
vertex $-1 $365 $530 #
vertex $-1 $237 $531 #
straight-curve $-1 23.388710269166523 -66.513728365950016 16.196604341913918 0 1 0 I I #
coedge $-1 $372 $372 $-1 $532 reversed $240 $-1 #
edge $-1 $533 0 $533 6.2831853071796004 $241 $534 forward 7 unknown #
vertex $-1 $244 $535 #
ellipse-curve $-1 16.719115975937711 -31.826314707324826 10.978904989510378 0 -0.66913061440640931 0.74314481823134659 1.5 0 0 1 I I #
face $-1 $-1 $388 $50 $-1 $536 forward single #
loop $-1 $-1 $537 $245 #
plane-surface $-1 0 -37.621156780523812 0 0 1 0 0 0 1 forward_v I I I I #
coedge $-1 $538 $539 $540 $541 reversed $246 $-1 #
coedge $-1 $542 $248 $250 $386 forward $154 $-1 #
coedge $-1 $248 $542 $538 $543 forward $154 $-1 #
coedge $-1 $540 $251 $248 $383 forward $388 $-1 #
edge $-1 $390 -30.339581394502815 $544 -17.000392808045163 $382 $545 forward 7 unknown #
coedge $-1 $546 $547 $249 $385 forward $377 $-1 #
edge $-1 $548 -50.099111387459494 $389 -39.66371268265241 $384 $549 forward 7 unknown #
edge $-1 $390 -15.595458465257076 $548 -2.8915846743243384e-014 $250 $550 forward 7 unknown #
coedge $-1 $251 $540 $546 $551 forward $388 $-1 #
loop $-1 $-1 $540 $376 #
vertex $-1 $385 $552 #
vertex $-1 $252 $553 #
straight-curve $-1 54.009568495776804 -66.513728365950016 16.196604341913918 0 1 0 I I #
coedge $-1 $392 $392 $-1 $554 reversed $255 $-1 #
edge $-1 $555 0 $555 6.2831853071796004 $256 $556 forward 7 unknown #
vertex $-1 $259 $557 #
ellipse-curve $-1 47.339974202547992 -31.826314707324826 10.978904989510378 0 -0.66913061440640931 0.74314481823134659 1.5 0 0 1 I I #
face $-1 $-1 $275 $39 $-1 $558 reversed single #
loop $-1 $-1 $412 $260 #
plane-surface $-1 0 37.621156780523812 0 0 -1 0 0 0 -1 forward_v I I I I #
coedge $-1 $559 $410 $413 $560 forward $261 $-1 #
coedge $-1 $416 $263 $264 $404 reversed $163 $-1 #
coedge $-1 $410 $559 $263 $402 reversed $261 $-1 #
edge $-1 $417 -16.196604341913918 $561 16.196604341913918 $401 $562 forward 7 unknown #
coedge $-1 $265 $264 $559 $563 forward $105 $-1 #
edge $-1 $408 -71.291238135929433 $561 71.291238135929433 $400 $564 forward 7 unknown #
coedge $-1 $413 $412 $265 $406 reversed $397 $-1 #
edge $-1 $565 -71.291238135929433 $407 71.291238135929433 $405 $566 forward 7 unknown #
vertex $-1 $267 $567 #
vertex $-1 $419 $568 #
straight-curve $-1 71.291238135929433 0 -16.196604341913918 0 -1 0 I I #
coedge $-1 $399 $401 $268 $411 reversed $261 $-1 #
edge $-1 $414 -37.621156780523812 $417 37.621156780523812 $410 $569 forward 7 unknown #
coedge $-1 $405 $269 $274 $420 forward $397 $-1 #
coedge $-1 $269 $405 $399 $560 reversed $397 $-1 #
vertex $-1 $270 $570 #
straight-curve $-1 0 37.621156780523812 16.196604341913918 -1 0 0 I I #
coedge $-1 $271 $400 $273 $419 reversed $163 $-1 #
vertex $-1 $411 $571 #
straight-curve $-1 0 -37.621156780523812 16.196604341913918 1 0 0 I I #
edge $-1 $276 -16.196604341913918 $408 16.196604341913918 $273 $572 forward 7 unknown #
edge $-1 $277 -16.196604341913918 $407 16.196604341913918 $274 $573 forward 7 unknown #
point $-1 71.291238135929433 -37.621156780523812 16.196604341913918 #
point $-1 71.291238135929433 37.621156780523812 16.196604341913918 #
face $-1 $-1 $437 $40 $-1 $574 reversed single #
loop $-1 $-1 $433 $279 #
plane-surface $-1 0 0 -16.196604341913918 0 0 1 1 0 0 forward_v I I I I #
coedge $-1 $575 $576 $427 $577 forward $280 $-1 #
coedge $-1 $283 $282 $426 $577 reversed $109 $-1 #
coedge $-1 $433 $578 $282 $429 forward $424 $-1 #
edge $-1 $579 -91.390281501347175 $431 -71.291238135929433 $282 $580 forward 7 unknown #
edge $-1 $290 -10.049521682708871 $581 10.049521682708871 $283 $582 forward 7 unknown #
vertex $-1 $284 $583 #
straight-curve $-1 -71.291238135929433 37.621156780523812 0 0 0 -1 I I #
coedge $-1 $584 $428 $285 $434 forward $424 $-1 #
edge $-1 $431 -37.621156780523812 $438 37.621156780523812 $433 $585 forward 7 unknown #
coedge $-1 $586 $286 $289 $441 reversed $437 $-1 #
coedge $-1 $286 $586 $584 $587 reversed $437 $-1 #
loop $-1 $-1 $286 $423 #
vertex $-1 $587 $588 #
straight-curve $-1 -71.291238135929433 -37.621156780523812 0 0 0 1 I I #
coedge $-1 $289 $288 $576 $589 forward $171 $-1 #
edge $-1 $590 -10.049521682708871 $291 10.049521682708871 $435 $591 forward 7 unknown #
point $-1 -71.291238135929433 37.621156780523812 -12.847945148984142 #
point $-1 -71.291238135929433 -37.621156780523812 -12.847945148984142 #
loop $-1 $-1 $301 $293 #
plane-surface $-1 0 37.621156780523812 0 0 -1 0 0 0 -1 forward_v I I I I #
coedge $-1 $447 $296 $298 $451 reversed $179 $-1 #
coedge $-1 $296 $446 $592 $593 reversed $179 $-1 #
coedge $-1 $304 $299 $296 $449 forward $294 $-1 #
edge $-1 $452 -11.027047356420884 $594 5.9520312357803924 $448 $595 forward 7 unknown #
coedge $-1 $298 $297 $455 $596 reversed $113 $-1 #
edge $-1 $597 -75.242313561047638 $452 -53.982203660280476 $446 $598 forward 7 unknown #
vertex $-1 $300 $599 #
straight-curve $-1 20.029527298724943 20.642078188322532 16.196604341913918 1 0 0 I I #
coedge $-1 $592 $301 $304 $459 reversed $444 $-1 #
coedge $-1 $301 $592 $450 $596 forward $444 $-1 #
vertex $-1 $302 $600 #
straight-curve $-1 22.978396542262125 37.621156780523812 81.277666870695029 0 0 1 I I #
straight-curve $-1 22.978396542262125 -22.470026255457576 48.68390589880832 0 0.79863550430605224 -0.6018150307709319 I I #
edge $-1 $594 -57.139712652637648 $305 -22.978396542262125 $454 $601 forward 7 unknown #
point $-1 22.978396542262125 37.621156780523812 16.196604341913918 #
point $-1 22.978396542262125 20.642078188322536 16.196604341913918 #
edge $-1 $602 1 $602 0 $308 $-1 forward 7 unknown #
vertex $-1 $309 $603 #
ellipse-curve $-1 32.738772573798002 25.868900997063896 5.4695065618265755 0 0.6018150307709319 0.79863550430605224 3 0 0 1 I I #
point $-1 35.738772573798002 29.131617484423195 9.7992774948521379 #
edge $-1 $604 1 $604 0 $312 $-1 forward 7 unknown #
vertex $-1 $313 $605 #
ellipse-curve $-1 47.3793366211018 25.868900997063896 5.4695065618265755 0 0.6018150307709319 0.79863550430605224 3 0 0 1 I I #
point $-1 50.3793366211018 29.131617484423195 9.7992774948521379 #
plane-surface $-1 0 0 16.196604341913918 0 0 1 1 0 0 forward_v I I I I #
coedge $-1 $481 $480 $473 $606 forward $317 $-1 #
coedge $-1 $473 $319 $321 $477 reversed $201 $-1 #
coedge $-1 $319 $472 $471 $606 reversed $201 $-1 #
coedge $-1 $327 $322 $319 $475 forward $328 $-1 #
edge $-1 $478 -40.482255731824168 $607 -28.892571585426204 $474 $608 forward 7 unknown #
coedge $-1 $321 $320 $481 $609 reversed $127 $-1 #
edge $-1 $610 2.8915846743243384e-014 $478 15.595458465257076 $472 $611 forward 7 unknown #
vertex $-1 $323 $612 #
straight-curve $-1 -22.261300238641432 -26.031472634125844 16.196604341913918 -1 0 0 I I #
coedge $-1 $471 $324 $327 $485 reversed $317 $-1 #
coedge $-1 $324 $471 $476 $609 forward $317 $-1 #
vertex $-1 $325 $613 #
straight-curve $-1 -37.853006184054038 -37.621156780523812 55.860317024566328 0 0 1 I I #
straight-curve $-1 -37.853006184054038 -37.621156780523833 5.7612056371068121 0 -0.74314481823134659 -0.66913061440640931 I I #
edge $-1 $607 -51.192194770511691 $329 -37.853006184054038 $480 $614 forward 7 unknown #
point $-1 -37.853006184054038 -37.621156780523812 16.196604341913918 #
point $-1 -37.853006184054038 -26.031472634125848 16.196604341913918 #
edge $-1 $615 1 $615 0 $332 $-1 forward 7 unknown #
vertex $-1 $333 $616 #
ellipse-curve $-1 -44.522600477282865 -30.525801454851916 9.5345387270672806 0 -0.66913061440640931 0.74314481823134659 1.5 0 0 1 I I #
point $-1 -43.022600477282865 -31.826314707324812 10.978904989510363 #
plane-surface $-1 0 0 16.196604341913918 0 0 1 1 0 0 forward_v I I I I #
coedge $-1 $503 $502 $495 $617 forward $337 $-1 #
coedge $-1 $495 $339 $341 $499 reversed $216 $-1 #
coedge $-1 $339 $494 $493 $617 reversed $216 $-1 #
coedge $-1 $347 $342 $339 $497 forward $348 $-1 #
edge $-1 $500 -40.482255731824168 $618 -28.892571585426204 $496 $619 forward 7 unknown #
coedge $-1 $341 $340 $503 $620 reversed $136 $-1 #
edge $-1 $621 2.8915846743243384e-014 $500 15.595458465257076 $494 $622 forward 7 unknown #
vertex $-1 $343 $623 #
straight-curve $-1 -6.9508711253362918 -26.031472634125844 16.196604341913918 -1 0 0 I I #
coedge $-1 $493 $344 $347 $507 reversed $337 $-1 #
coedge $-1 $344 $493 $498 $620 forward $337 $-1 #
vertex $-1 $345 $624 #
straight-curve $-1 -7.2321479574437593 -37.621156780523812 55.860317024566328 0 0 1 I I #
straight-curve $-1 -7.2321479574437593 -37.621156780523833 5.7612056371068121 0 -0.74314481823134659 -0.66913061440640931 I I #
edge $-1 $618 -20.57133654390141 $349 -7.2321479574437593 $502 $625 forward 7 unknown #
point $-1 -7.2321479574437593 -37.621156780523812 16.196604341913918 #
point $-1 -7.2321479574437593 -26.031472634125848 16.196604341913918 #
edge $-1 $626 1 $626 0 $352 $-1 forward 7 unknown #
vertex $-1 $353 $627 #
ellipse-curve $-1 -13.901742250672577 -30.525801454851916 9.5345387270672806 0 -0.66913061440640931 0.74314481823134659 1.5 0 0 1 I I #
point $-1 -12.401742250672577 -31.826314707324812 10.978904989510363 #
plane-surface $-1 0 0 16.196604341913918 0 0 1 1 0 0 forward_v I I I I #
coedge $-1 $525 $524 $517 $628 forward $357 $-1 #
coedge $-1 $517 $359 $361 $521 reversed $231 $-1 #
coedge $-1 $359 $516 $515 $628 reversed $231 $-1 #
coedge $-1 $367 $362 $359 $519 forward $368 $-1 #
edge $-1 $522 -40.482255731824168 $629 -28.892571585426204 $518 $630 forward 7 unknown #
coedge $-1 $361 $360 $525 $631 reversed $145 $-1 #
edge $-1 $632 2.8915846743243384e-014 $522 15.595458465257076 $516 $633 forward 7 unknown #
vertex $-1 $363 $634 #
straight-curve $-1 8.3595579879688486 -26.031472634125844 16.196604341913918 -1 0 0 I I #
coedge $-1 $515 $364 $367 $529 reversed $357 $-1 #
coedge $-1 $364 $515 $520 $631 forward $357 $-1 #
vertex $-1 $365 $635 #
straight-curve $-1 23.388710269166523 -37.621156780523812 55.860317024566328 0 0 1 I I #
straight-curve $-1 23.388710269166523 -37.621156780523833 5.7612056371068121 0 -0.74314481823134659 -0.66913061440640931 I I #
edge $-1 $629 10.049521682708873 $369 23.388710269166523 $524 $636 forward 7 unknown #
point $-1 23.388710269166523 -37.621156780523812 16.196604341913918 #
point $-1 23.388710269166523 -26.031472634125848 16.196604341913918 #
edge $-1 $637 1 $637 0 $372 $-1 forward 7 unknown #
vertex $-1 $373 $638 #
ellipse-curve $-1 16.719115975937711 -30.525801454851916 9.5345387270672806 0 -0.66913061440640931 0.74314481823134659 1.5 0 0 1 I I #
point $-1 18.219115975937711 -31.826314707324812 10.978904989510363 #
plane-surface $-1 0 0 16.196604341913918 0 0 1 1 0 0 forward_v I I I I #
coedge $-1 $547 $546 $539 $639 forward $377 $-1 #
coedge $-1 $539 $379 $381 $543 reversed $246 $-1 #
coedge $-1 $379 $538 $537 $639 reversed $246 $-1 #
coedge $-1 $387 $382 $379 $541 forward $388 $-1 #
edge $-1 $544 -40.482255731824168 $640 -28.892571585426204 $540 $641 forward 7 unknown #
coedge $-1 $381 $380 $547 $642 reversed $154 $-1 #
edge $-1 $643 2.8915846743243384e-014 $544 15.595458465257076 $538 $644 forward 7 unknown #
vertex $-1 $383 $645 #
straight-curve $-1 23.669987101273989 -26.031472634125844 16.196604341913918 -1 0 0 I I #
coedge $-1 $537 $384 $387 $551 reversed $377 $-1 #
coedge $-1 $384 $537 $542 $642 forward $377 $-1 #
vertex $-1 $385 $646 #
straight-curve $-1 54.009568495776804 -37.621156780523812 55.860317024566328 0 0 1 I I #
straight-curve $-1 54.009568495776804 -37.621156780523833 5.7612056371068121 0 -0.74314481823134659 -0.66913061440640931 I I #
edge $-1 $640 40.670379909319152 $389 54.009568495776804 $546 $647 forward 7 unknown #
point $-1 54.009568495776804 -37.621156780523812 16.196604341913918 #
point $-1 54.009568495776804 -26.031472634125848 16.196604341913918 #
edge $-1 $648 1 $648 0 $392 $-1 forward 7 unknown #
vertex $-1 $393 $649 #
ellipse-curve $-1 47.339974202547992 -30.525801454851916 9.5345387270672806 0 -0.66913061440640931 0.74314481823134659 1.5 0 0 1 I I #
point $-1 48.839974202547992 -31.826314707324812 10.978904989510363 #
plane-surface $-1 71.291238135929433 0 0 -1 0 0 0 0 1 forward_v I I I I #
coedge $-1 $401 $399 $403 $563 reversed $261 $-1 #
edge $-1 $414 -16.196604341913918 $565 16.196604341913918 $413 $650 forward 7 unknown #
vertex $-1 $563 $651 #
straight-curve $-1 -71.291238135929433 -37.621156780523812 0 0 0 -1 I I #
edge $-1 $561 -37.621156780523812 $565 37.621156780523812 $559 $652 forward 7 unknown #
straight-curve $-1 0 -37.621156780523812 -16.196604341913918 -1 0 0 I I #
vertex $-1 $406 $653 #
straight-curve $-1 0 37.621156780523812 -16.196604341913918 1 0 0 I I #
point $-1 71.291238135929433 37.621156780523812 -16.196604341913918 #
point $-1 71.291238135929433 -37.621156780523812 -16.196604341913918 #
straight-curve $-1 -71.291238135929433 0 16.196604341913918 0 -1 0 I I #
point $-1 -71.291238135929433 37.621156780523812 16.196604341913918 #
point $-1 -71.291238135929433 -37.621156780523812 16.196604341913918 #
straight-curve $-1 71.291238135929433 -37.621156780523812 0 0 0 -1 I I #
straight-curve $-1 71.291238135929433 37.621156780523812 0 0 0 -1 I I #
plane-surface $-1 0 -37.621156780523812 0 0 1 0 0 0 1 forward_v I I I I #
coedge $-1 $654 $426 $578 $655 reversed $280 $-1 #
coedge $-1 $426 $654 $440 $589 reversed $280 $-1 #
edge $-1 $581 -1.6743295964648883 $579 1.6743295964648883 $427 $656 forward 7 unknown #
coedge $-1 $428 $584 $575 $655 forward $424 $-1 #
vertex $-1 $429 $657 #
straight-curve $-1 0 37.621156780523812 -16.196604341913918 1 0 0 I I #
vertex $-1 $430 $658 #
straight-curve $-1 -81.340759818638304 37.621156780523812 -12.847945148984142 -1 0 0 I I #
point $-1 -71.291238135929433 37.621156780523812 -16.196604341913918 #
coedge $-1 $578 $433 $436 $587 forward $424 $-1 #
straight-curve $-1 -71.291238135929433 0 -16.196604341913918 0 -1 0 I I #
coedge $-1 $436 $435 $654 $659 forward $437 $-1 #
edge $-1 $438 -10.049521682708871 $660 10.049521682708871 $436 $661 forward 7 unknown #
point $-1 -71.291238135929433 -37.621156780523812 -16.196604341913918 #
edge $-1 $581 -37.621156780523812 $590 37.621156780523812 $576 $662 forward 7 unknown #
vertex $-1 $589 $663 #
straight-curve $-1 -81.340759818638304 -37.621156780523812 -12.847945148984142 1 0 0 I I #
coedge $-1 $455 $454 $447 $593 forward $444 $-1 #
edge $-1 $594 65.081062528781104 $597 77.8757162229047 $592 $664 forward 7 unknown #
vertex $-1 $459 $665 #
straight-curve $-1 57.139712652637648 31.669125544743419 16.196604341913911 0 1 0 I I #
edge $-1 $597 -37.110185353912705 $456 -2.9488692435371817 $455 $666 forward 7 unknown #
vertex $-1 $596 $667 #
straight-curve $-1 57.139712652637648 -22.470026255457576 48.68390589880832 0 -0.79863550430605224 0.6018150307709319 I I #
point $-1 57.139712652637648 20.642078188322536 16.196604341913918 #
point $-1 22.978396542262125 37.621156780523819 3.4019506477903292 #
straight-curve $-1 0 37.621156780523812 16.196604341913918 -1 0 0 I I #
vertex $-1 $462 $668 #
point $-1 35.738772573798002 25.868900997063896 5.4695065618265755 #
vertex $-1 $466 $669 #
point $-1 50.3793366211018 25.868900997063896 5.4695065618265755 #
edge $-1 $607 39.66371268265241 $610 50.099111387459494 $471 $670 forward 7 unknown #
vertex $-1 $485 $671 #
straight-curve $-1 -51.192194770511691 -66.513728365950016 16.196604341913918 0 -1 0 I I #
edge $-1 $610 -28.930894531870258 $482 -15.591705945412606 $481 $672 forward 7 unknown #
vertex $-1 $609 $673 #
straight-curve $-1 -51.192194770511691 -37.621156780523833 5.7612056371068121 0 0.74314481823134659 0.66913061440640931 I I #
point $-1 -51.192194770511691 -26.031472634125848 16.196604341913918 #
point $-1 -37.853006184054038 -37.621156780523812 5.7612056371068316 #
straight-curve $-1 0 -37.621156780523812 16.196604341913918 1 0 0 I I #
vertex $-1 $488 $674 #
point $-1 -43.022600477282865 -30.525801454851916 9.5345387270672806 #
edge $-1 $618 39.66371268265241 $621 50.099111387459494 $493 $675 forward 7 unknown #
vertex $-1 $507 $676 #
straight-curve $-1 -20.57133654390141 -66.513728365950016 16.196604341913918 0 -1 0 I I #
edge $-1 $621 -13.620465418565118 $504 -0.28127683210746746 $503 $677 forward 7 unknown #
vertex $-1 $620 $678 #
straight-curve $-1 -20.57133654390141 -37.621156780523833 5.7612056371068121 0 0.74314481823134659 0.66913061440640931 I I #
point $-1 -20.57133654390141 -26.031472634125848 16.196604341913918 #
point $-1 -7.2321479574437593 -37.621156780523812 5.7612056371068316 #
straight-curve $-1 0 -37.621156780523812 16.196604341913918 1 0 0 I I #
vertex $-1 $510 $679 #
point $-1 -12.401742250672577 -30.525801454851916 9.5345387270672806 #
edge $-1 $629 39.66371268265241 $632 50.099111387459494 $515 $680 forward 7 unknown #
vertex $-1 $529 $681 #
straight-curve $-1 10.049521682708873 -66.513728365950016 16.196604341913918 0 -1 0 I I #
edge $-1 $632 1.6899636947400243 $526 15.029152281197675 $525 $682 forward 7 unknown #
vertex $-1 $631 $683 #
straight-curve $-1 10.049521682708873 -37.621156780523833 5.7612056371068121 0 0.74314481823134659 0.66913061440640931 I I #
point $-1 10.049521682708873 -26.031472634125848 16.196604341913918 #
point $-1 23.388710269166523 -37.621156780523812 5.7612056371068316 #
straight-curve $-1 0 -37.621156780523812 16.196604341913918 1 0 0 I I #
vertex $-1 $532 $684 #
point $-1 18.219115975937711 -30.525801454851916 9.5345387270672806 #
edge $-1 $640 39.66371268265241 $643 50.099111387459494 $537 $685 forward 7 unknown #
vertex $-1 $551 $686 #
straight-curve $-1 40.670379909319152 -66.513728365950016 16.196604341913918 0 -1 0 I I #
edge $-1 $643 17.000392808045163 $548 30.339581394502815 $547 $687 forward 7 unknown #
vertex $-1 $642 $688 #
straight-curve $-1 40.670379909319152 -37.621156780523833 5.7612056371068121 0 0.74314481823134659 0.66913061440640931 I I #
point $-1 40.670379909319152 -26.031472634125848 16.196604341913918 #
point $-1 54.009568495776804 -37.621156780523812 5.7612056371068316 #
straight-curve $-1 0 -37.621156780523812 16.196604341913918 1 0 0 I I #
vertex $-1 $554 $689 #
point $-1 48.839974202547992 -30.525801454851916 9.5345387270672806 #
straight-curve $-1 -71.291238135929433 37.621156780523812 0 0 0 -1 I I #
point $-1 -71.291238135929433 -37.621156780523812 -16.196604341913918 #
straight-curve $-1 -71.291238135929433 0 -16.196604341913918 0 1 0 I I #
point $-1 -71.291238135929433 37.621156780523812 -16.196604341913918 #
coedge $-1 $576 $575 $586 $659 reversed $280 $-1 #
edge $-1 $660 -37.621156780523812 $579 37.621156780523812 $575 $690 forward 7 unknown #
straight-curve $-1 -91.390281501347175 37.621156780523812 -14.52227474544903 0 0 -1 I I #
point $-1 -91.390281501347175 37.621156780523812 -16.196604341913918 #
point $-1 -91.390281501347175 37.621156780523812 -12.847945148984142 #
edge $-1 $590 -1.6743295964648883 $660 1.6743295964648883 $654 $691 forward 7 unknown #
vertex $-1 $655 $692 #
straight-curve $-1 -81.340759818638304 -37.621156780523812 -16.196604341913918 -1 0 0 I I #
straight-curve $-1 -91.390281501347175 0 -12.847945148984142 0 -1 0 I I #
point $-1 -91.390281501347175 -37.621156780523812 -12.847945148984142 #
straight-curve $-1 57.139712652637648 37.621156780523812 81.277666870695029 0 0 -1 I I #
point $-1 57.139712652637648 37.621156780523812 16.196604341913918 #
straight-curve $-1 20.029527298724943 37.621156780523812 3.4019506477903292 -1 0 0 I I #
point $-1 57.139712652637648 37.621156780523819 3.4019506477903292 #
point $-1 32.738772573798002 24.063455904751102 3.073600048908419 #
point $-1 47.3793366211018 24.063455904751102 3.073600048908419 #
straight-curve $-1 -51.192194770511691 -37.621156780523812 55.860317024566328 0 0 -1 I I #
point $-1 -51.192194770511691 -37.621156780523812 16.196604341913918 #
straight-curve $-1 -22.261300238641432 -37.621156780523812 5.7612056371068272 1 0 0 I I #
point $-1 -51.192194770511691 -37.621156780523812 5.7612056371068316 #
point $-1 -44.522600477282865 -29.522105533242303 8.4198214997202623 #
straight-curve $-1 -20.57133654390141 -37.621156780523812 55.860317024566328 0 0 -1 I I #
point $-1 -20.57133654390141 -37.621156780523812 16.196604341913918 #
straight-curve $-1 -6.9508711253362918 -37.621156780523812 5.7612056371068272 1 0 0 I I #
point $-1 -20.57133654390141 -37.621156780523812 5.7612056371068316 #
point $-1 -13.901742250672577 -29.522105533242303 8.4198214997202623 #
straight-curve $-1 10.049521682708873 -37.621156780523812 55.860317024566328 0 0 -1 I I #
point $-1 10.049521682708873 -37.621156780523812 16.196604341913918 #
straight-curve $-1 8.3595579879688486 -37.621156780523812 5.7612056371068272 1 0 0 I I #
point $-1 10.049521682708873 -37.621156780523812 5.7612056371068316 #
point $-1 16.719115975937711 -29.522105533242303 8.4198214997202623 #
straight-curve $-1 40.670379909319152 -37.621156780523812 55.860317024566328 0 0 -1 I I #
point $-1 40.670379909319152 -37.621156780523812 16.196604341913918 #
straight-curve $-1 23.669987101273989 -37.621156780523812 5.7612056371068272 1 0 0 I I #
point $-1 40.670379909319152 -37.621156780523812 5.7612056371068316 #
point $-1 47.339974202547992 -29.522105533242303 8.4198214997202623 #
straight-curve $-1 -91.390281501347175 0 -16.196604341913918 0 1 0 I I #
straight-curve $-1 -91.390281501347175 -37.621156780523812 -14.52227474544903 0 0 -1 I I #
point $-1 -91.390281501347175 -37.621156780523812 -16.196604341913918 #
End-of-ACIS-data 