500 0 3 0           
7 Unknown 11 ACIS 5.0 NT 24 Thu Mar 25 23:29:40 1999 
-1 9.9999999999999995e-007 1e-010 
body $-1 $3 $-1 $4 #
body $-1 $5 $-1 $6 #
body $-1 $7 $-1 $8 #
lump $-1 $-1 $9 $0 #
transform $-1 1 0 0 0 1 0 0 0 1 52.792138431958982 27.260605532474415 12.004000947490267 1 rotate no_reflect no_shear #
lump $-1 $-1 $10 $1 #
transform $-1 1 0 0 0 1 0 0 0 1 52.792138431958982 27.260605532474415 12.004000947490267 1 rotate no_reflect no_shear #
lump $-1 $-1 $11 $2 #
transform $-1 1 0 0 0 1 0 0 0 1 52.792138431958982 27.260605532474415 12.004000947490267 1 rotate no_reflect no_shear #
shell $-1 $-1 $-1 $12 $-1 $3 #
shell $-1 $-1 $-1 $13 $-1 $5 #
shell $-1 $-1 $-1 $14 $-1 $7 #
face $-1 $15 $16 $9 $-1 $17 forward single #
face $-1 $18 $19 $10 $-1 $20 reversed single #
face $-1 $21 $22 $11 $-1 $23 forward single #
face $-1 $24 $25 $9 $-1 $26 reversed single #
loop $-1 $-1 $27 $12 #
plane-surface $-1 0 0 12.004000947490267 0 0 1 1 0 0 forward_v I I I I #
face $-1 $28 $29 $10 $-1 $30 reversed single #
loop $-1 $-1 $31 $13 #
plane-surface $-1 -33.007541317556779 45.212901131930209 124.43845134282684 1 0 0 0 -0.5877852598018023 -0.80901698891910034 forward_v I I I I #
face $-1 $32 $33 $11 $-1 $34 forward single #
loop $-1 $35 $36 $14 #
cone-surface $-1 -25.439545716603355 22.501761934929402 7.7042984061362816 0 -0.5877852598018023 -0.80901698891910034 1.5 0 0 1 I I 0 1 1.5 forward I I I I #
face $-1 $37 $38 $9 $-1 $39 reversed single #
loop $-1 $-1 $40 $15 #
plane-surface $-1 0 0 -12.004000947490267 0 0 1 1 0 0 forward_v I I I I #
coedge $-1 $41 $42 $43 $44 forward $16 $-1 #
face $-1 $45 $46 $10 $-1 $47 reversed single #
loop $-1 $-1 $48 $18 #
plane-surface $-1 -25.439545716603355 -16.847980475513232 39.018977597179301 0 0.5877852598018023 0.80901698891910034 1 0 0 forward_v I I I I #
coedge $-1 $49 $50 $51 $52 reversed $19 $-1 #
face $-1 $-1 $53 $11 $-1 $54 forward single #
loop $-1 $55 $56 $21 #
cone-surface $-1 -25.439545716603355 20.764910038130189 5.3137269035083765 0 -0.5877852598018023 -0.80901698891910034 0.75 0 0 1 I I -0.70710678118654757 0.70710678118654757 0.75 forward I I I I #
loop $-1 $-1 $57 $14 #
coedge $-1 $36 $36 $58 $59 reversed $22 $-1 #
face $-1 $60 $61 $9 $-1 $62 reversed single #
loop $-1 $-1 $63 $24 #
plane-surface $-1 0 -27.260605532474415 0 0 1 0 0 0 1 forward_v I I I I #
coedge $-1 $64 $65 $66 $67 forward $25 $-1 #
coedge $-1 $68 $27 $69 $70 forward $16 $-1 #
coedge $-1 $27 $68 $71 $72 forward $16 $-1 #
coedge $-1 $73 $74 $27 $44 reversed $75 $-1 #
edge $-1 $76 -27.260605532474415 $77 27.260605532474415 $43 $78 forward 7 unknown #
face $-1 $79 $80 $10 $-1 $81 reversed single #
loop $-1 $-1 $82 $28 #
plane-surface $-1 -17.871550115649931 45.212901131930209 124.43845134282684 -1 0 0 0 0.5877852598018023 0.80901698891910034 forward_v I I I I #
coedge $-1 $83 $84 $85 $86 reversed $29 $-1 #
coedge $-1 $50 $31 $87 $88 reversed $19 $-1 #
coedge $-1 $31 $49 $83 $89 reversed $19 $-1 #
coedge $-1 $85 $90 $31 $52 forward $91 $-1 #
edge $-1 $92 -4.65415496650931 $93 2.2715063246849994 $51 $94 forward 7 unknown #
loop $-1 $-1 $58 $32 #
plane-surface $-1 -25.439545716603355 -16.847980475513232 39.018977597179301 0 0.5877852598018023 0.80901698891910034 1 0 0 forward_v I I I I #
loop $-1 $-1 $95 $21 #
coedge $-1 $56 $56 $57 $96 reversed $33 $-1 #
coedge $-1 $57 $57 $56 $96 forward $35 $-1 #
coedge $-1 $58 $58 $36 $59 forward $53 $-1 #
edge $-1 $97 1.3921551551301128e-015 $97 6.2831853071796022 $58 $98 forward 7 unknown #
face $-1 $99 $100 $9 $-1 $101 reversed single #
loop $-1 $-1 $102 $37 #
plane-surface $-1 -52.792138431958982 0 0 1 0 0 0 0 -1 forward_v I I I I #
coedge $-1 $103 $71 $104 $105 forward $38 $-1 #
coedge $-1 $106 $40 $103 $107 forward $25 $-1 #
coedge $-1 $40 $106 $108 $109 forward $25 $-1 #
coedge $-1 $74 $73 $40 $67 reversed $75 $-1 #
edge $-1 $110 -27.260605532474415 $111 27.260605532474415 $66 $112 forward 7 unknown #
coedge $-1 $42 $41 $113 $114 forward $16 $-1 #
coedge $-1 $115 $116 $41 $70 reversed $100 $-1 #
edge $-1 $77 -52.792138431958982 $117 52.792138431958982 $69 $118 forward 7 unknown #
coedge $-1 $63 $119 $42 $72 reversed $38 $-1 #
edge $-1 $120 -52.792138431958982 $76 52.792138431958982 $71 $121 forward 7 unknown #
coedge $-1 $66 $43 $119 $122 forward $75 $-1 #
coedge $-1 $43 $66 $115 $123 reversed $75 $-1 #
loop $-1 $-1 $73 $99 #
vertex $-1 $44 $124 #
vertex $-1 $44 $125 #
straight-curve $-1 52.792138431958982 0 12.004000947490267 0 1 0 I I #
face $-1 $-1 $91 $10 $-1 $126 forward single #
loop $-1 $-1 $127 $45 #
plane-surface $-1 0 27.260605532474415 0 0 -1 0 0 0 -1 forward_v I I I I #
coedge $-1 $128 $129 $130 $131 reversed $46 $-1 #
coedge $-1 $132 $48 $50 $89 forward $29 $-1 #
coedge $-1 $48 $132 $128 $133 forward $29 $-1 #
coedge $-1 $130 $51 $48 $86 forward $91 $-1 #
edge $-1 $93 -20.287768459255101 $134 -5.1517772573482539 $85 $135 forward 7 unknown #
coedge $-1 $136 $137 $49 $88 forward $80 $-1 #
edge $-1 $138 -55.247012284753964 $92 -50.21522472392315 $87 $139 forward 7 unknown #
edge $-1 $93 45.960622862162829 $138 54.521211064948837 $50 $140 forward 7 unknown #
coedge $-1 $51 $130 $136 $141 forward $91 $-1 #
loop $-1 $-1 $130 $79 #
vertex $-1 $88 $142 #
vertex $-1 $52 $143 #
straight-curve $-1 -33.007541317556779 22.606450565965105 12.004000947490269 0 -1 0 I I #
coedge $-1 $95 $95 $-1 $144 reversed $55 $-1 #
edge $-1 $145 0 $145 6.2831853071796004 $56 $146 forward 7 unknown #
vertex $-1 $59 $147 #
ellipse-curve $-1 -25.439545716603355 23.797774886877264 9.4881071670748618 0 0.5877852598018023 0.80901698891910034 1.5 0 0 1 I I #
face $-1 $-1 $75 $9 $-1 $148 reversed single #
loop $-1 $-1 $115 $60 #
plane-surface $-1 0 27.260605532474415 0 0 -1 0 0 0 -1 forward_v I I I I #
coedge $-1 $149 $113 $116 $150 forward $61 $-1 #
coedge $-1 $119 $63 $64 $107 reversed $38 $-1 #
coedge $-1 $113 $149 $63 $105 reversed $61 $-1 #
edge $-1 $120 -12.004000947490267 $151 12.004000947490267 $104 $152 forward 7 unknown #
coedge $-1 $65 $64 $149 $153 forward $25 $-1 #
edge $-1 $111 -52.792138431958982 $151 52.792138431958982 $103 $154 forward 7 unknown #
coedge $-1 $116 $115 $65 $109 reversed $100 $-1 #
edge $-1 $155 -52.792138431958982 $110 52.792138431958982 $108 $156 forward 7 unknown #
vertex $-1 $67 $157 #
vertex $-1 $122 $158 #
straight-curve $-1 52.792138431958982 0 -12.004000947490267 0 -1 0 I I #
coedge $-1 $102 $104 $68 $114 reversed $61 $-1 #
edge $-1 $117 -27.260605532474415 $120 27.260605532474415 $113 $159 forward 7 unknown #
coedge $-1 $108 $69 $74 $123 forward $100 $-1 #
coedge $-1 $69 $108 $102 $150 reversed $100 $-1 #
vertex $-1 $70 $160 #
straight-curve $-1 0 27.260605532474415 12.004000947490267 -1 0 0 I I #
coedge $-1 $71 $103 $73 $122 reversed $38 $-1 #
vertex $-1 $114 $161 #
straight-curve $-1 0 -27.260605532474415 12.004000947490267 1 0 0 I I #
edge $-1 $76 -12.004000947490267 $111 12.004000947490267 $73 $162 forward 7 unknown #
edge $-1 $77 -12.004000947490267 $110 12.004000947490267 $74 $163 forward 7 unknown #
point $-1 52.792138431958982 -27.260605532474415 12.004000947490267 #
point $-1 52.792138431958982 27.260605532474415 12.004000947490267 #
plane-surface $-1 0 0 12.004000947490267 0 0 1 1 0 0 forward_v I I I I #
coedge $-1 $137 $136 $129 $164 forward $80 $-1 #
coedge $-1 $129 $82 $84 $133 reversed $46 $-1 #
coedge $-1 $82 $128 $127 $164 reversed $46 $-1 #
coedge $-1 $90 $85 $82 $131 forward $91 $-1 #
edge $-1 $134 -2.2715063246849994 $165 4.65415496650931 $130 $166 forward 7 unknown #
coedge $-1 $84 $83 $137 $167 reversed $29 $-1 #
edge $-1 $168 -54.521211064948837 $134 -45.960622862162829 $128 $169 forward 7 unknown #
vertex $-1 $86 $170 #
straight-curve $-1 -12.719772858301678 20.334944241280105 12.004000947490265 1 0 0 I I #
coedge $-1 $127 $87 $90 $141 reversed $80 $-1 #
coedge $-1 $87 $127 $132 $167 forward $80 $-1 #
vertex $-1 $88 $171 #
straight-curve $-1 -33.007541317556779 27.260605532474415 62.219225671413419 0 0 1 I I #
straight-curve $-1 -33.007541317556779 -16.847980475513232 39.018977597179301 0 0.80901698891910034 -0.5877852598018023 I I #
edge $-1 $165 17.871550115649931 $92 33.007541317556779 $136 $172 forward 7 unknown #
point $-1 -33.007541317556779 27.260605532474415 12.004000947490267 #
point $-1 -33.007541317556779 20.334944241280105 12.004000947490269 #
edge $-1 $173 1 $173 0 $95 $-1 forward 7 unknown #
vertex $-1 $96 $174 #
ellipse-curve $-1 -25.439545716603355 21.20574898298154 5.9204896451977014 0 0.5877852598018023 0.80901698891910034 1.5 0 0 1 I I #
point $-1 -23.939545716603355 23.797774886877264 9.4881071670748582 #
plane-surface $-1 52.792138431958982 0 0 -1 0 0 0 0 1 forward_v I I I I #
coedge $-1 $104 $102 $106 $153 reversed $61 $-1 #
edge $-1 $117 -12.004000947490267 $155 12.004000947490267 $116 $175 forward 7 unknown #
vertex $-1 $153 $176 #
straight-curve $-1 -52.792138431958982 -27.260605532474415 0 0 0 -1 I I #
edge $-1 $151 -27.260605532474415 $155 27.260605532474415 $149 $177 forward 7 unknown #
straight-curve $-1 0 -27.260605532474415 -12.004000947490267 -1 0 0 I I #
vertex $-1 $109 $178 #
straight-curve $-1 0 27.260605532474415 -12.004000947490267 1 0 0 I I #
point $-1 52.792138431958982 27.260605532474415 -12.004000947490267 #
point $-1 52.792138431958982 -27.260605532474415 -12.004000947490267 #
straight-curve $-1 -52.792138431958982 0 12.004000947490267 0 -1 0 I I #
point $-1 -52.792138431958982 27.260605532474415 12.004000947490267 #
point $-1 -52.792138431958982 -27.260605532474415 12.004000947490267 #
straight-curve $-1 52.792138431958982 -27.260605532474415 0 0 0 -1 I I #
straight-curve $-1 52.792138431958982 27.260605532474415 0 0 0 -1 I I #
edge $-1 $165 50.21522472392315 $168 55.247012284753964 $127 $179 forward 7 unknown #
vertex $-1 $141 $180 #
straight-curve $-1 -17.871550115649931 22.606450565965105 12.004000947490269 0 1 0 I I #
edge $-1 $168 5.1517772573482539 $138 20.287768459255101 $137 $181 forward 7 unknown #
vertex $-1 $167 $182 #
straight-curve $-1 -17.871550115649931 -16.847980475513232 39.018977597179301 0 -0.80901698891910034 0.5877852598018023 I I #
point $-1 -17.871550115649931 20.334944241280105 12.004000947490269 #
point $-1 -33.007541317556779 27.260605532474415 6.9722133866594547 #
straight-curve $-1 0 27.260605532474415 12.004000947490267 -1 0 0 I I #
vertex $-1 $144 $183 #
point $-1 -23.939545716603355 21.20574898298154 5.9204896451977014 #
straight-curve $-1 -52.792138431958982 27.260605532474415 0 0 0 -1 I I #
point $-1 -52.792138431958982 -27.260605532474415 -12.004000947490267 #
straight-curve $-1 -52.792138431958982 0 -12.004000947490267 0 1 0 I I #
point $-1 -52.792138431958982 27.260605532474415 -12.004000947490267 #
straight-curve $-1 -17.871550115649931 27.260605532474415 62.219225671413419 0 0 -1 I I #
point $-1 -17.871550115649931 27.260605532474415 12.004000947490267 #
straight-curve $-1 -12.719772858301678 27.260605532474415 6.9722133866594511 -1 0 0 I I #
point $-1 -17.871550115649931 27.260605532474415 6.9722133866594547 #
point $-1 -25.439545716603355 20.324071093278839 4.7069641618190516 #
End-of-ACIS-data 