500 0 6 0           
7 Unknown 11 ACIS 5.0 NT 24 Fri Mar 26 00:15:40 1999 
-1 9.9999999999999995e-007 1e-010 
body $-1 $6 $-1 $7 #
body $-1 $8 $-1 $9 #
body $-1 $10 $-1 $11 #
body $-1 $12 $-1 $13 #
body $-1 $14 $-1 $15 #
body $-1 $16 $-1 $17 #
lump $-1 $-1 $18 $0 #
transform $-1 1 0 0 0 1 0 0 0 1 58.921475875118261 29.646131905964076 13.236848158935093 1 rotate no_reflect no_shear #
lump $-1 $-1 $19 $1 #
transform $-1 1 0 0 0 1 0 0 0 1 58.921475875118261 29.646131905964076 13.236848158935093 1 rotate no_reflect no_shear #
lump $-1 $-1 $20 $2 #
transform $-1 1 0 0 0 1 0 0 0 1 58.921475875118261 29.646131905964076 13.236848158935093 1 rotate no_reflect no_shear #
lump $-1 $-1 $21 $3 #
transform $-1 1 0 0 0 1 0 0 0 1 58.921475875118261 29.646131905964076 13.236848158935093 1 rotate no_reflect no_shear #
lump $-1 $-1 $22 $4 #
transform $-1 1 0 0 0 1 0 0 0 1 58.921475875118261 29.646131905964076 13.236848158935093 1 rotate no_reflect no_shear #
lump $-1 $-1 $23 $5 #
transform $-1 1 0 0 0 1 0 0 0 1 58.921475875118261 29.646131905964076 13.236848158935093 1 rotate no_reflect no_shear #
shell $-1 $-1 $-1 $24 $-1 $6 #
shell $-1 $-1 $-1 $25 $-1 $8 #
shell $-1 $-1 $-1 $26 $-1 $10 #
shell $-1 $-1 $-1 $27 $-1 $12 #
shell $-1 $-1 $-1 $28 $-1 $14 #
shell $-1 $-1 $-1 $29 $-1 $16 #
face $-1 $30 $31 $18 $-1 $32 forward single #
face $-1 $33 $34 $19 $-1 $35 forward single #
face $-1 $36 $37 $20 $-1 $38 reversed single #
face $-1 $39 $40 $21 $-1 $41 forward single #
face $-1 $42 $43 $22 $-1 $44 reversed single #
face $-1 $45 $46 $23 $-1 $47 forward single #
face $-1 $48 $49 $18 $-1 $50 reversed single #
loop $-1 $-1 $51 $24 #
plane-surface $-1 0 0 13.236848158935093 0 0 1 1 0 0 forward_v I I I I #
face $-1 $52 $53 $19 $-1 $54 reversed single #
loop $-1 $-1 $55 $25 #
plane-surface $-1 -58.921475875118261 0 0 1 0 0 0 0 -1 forward_v I I I I #
face $-1 $56 $57 $20 $-1 $58 reversed single #
loop $-1 $-1 $59 $26 #
plane-surface $-1 53.216191253433706 -29.646131905964054 9.3989555608252786 0 -0.86602541151947299 0.49999998660252726 1 0 0 forward_v I I I I #
face $-1 $60 $61 $21 $-1 $62 forward single #
loop $-1 $63 $64 $27 #
cone-surface $-1 53.216191253433706 -27.988064968009731 11.000265221765067 0 0.86602541151947299 -0.49999998660252726 1 0 0 1 I I 0 1 1 forward I I I I #
face $-1 $65 $66 $22 $-1 $67 reversed single #
loop $-1 $-1 $68 $28 #
plane-surface $-1 53.216191253433706 7.9436647126840398e-007 60.747562728471515 0 0.86602541151947299 0.49999998660252726 1 0 0 forward_v I I I I #
face $-1 $69 $70 $23 $-1 $71 forward single #
loop $-1 $72 $73 $29 #
cone-surface $-1 53.216191253433706 27.988064968009724 11.000265221765074 0 -0.86602541151947299 -0.49999998660252726 1 0 0 1 I I 0 1 1 forward I I I I #
face $-1 $74 $75 $18 $-1 $76 reversed single #
loop $-1 $-1 $77 $30 #
plane-surface $-1 0 0 -13.236848158935093 0 0 1 1 0 0 forward_v I I I I #
coedge $-1 $78 $79 $80 $81 forward $31 $-1 #
face $-1 $82 $83 $19 $-1 $84 reversed single #
loop $-1 $-1 $85 $33 #
plane-surface $-1 0 29.646131905964076 0 0 -1 0 0 0 -1 forward_v I I I I #
coedge $-1 $86 $87 $88 $89 forward $34 $-1 #
face $-1 $90 $91 $20 $-1 $92 reversed single #
loop $-1 $-1 $93 $36 #
plane-surface $-1 47.510906631749151 -131.70112269013202 68.320429857145797 1 0 0 0 0.86602541151947299 -0.49999998660252726 forward_v I I I I #
coedge $-1 $94 $95 $96 $97 reversed $37 $-1 #
face $-1 $-1 $98 $21 $-1 $99 forward single #
loop $-1 $100 $101 $39 #
cone-surface $-1 53.216191253433706 -27.00488944703379 10.432628590348681 0 0.86602541151947299 -0.49999998660252726 0.5 0 0 1 I I -0.70710678118654746 0.70710678118654746 0.5 forward I I I I #
loop $-1 $-1 $102 $27 #
coedge $-1 $64 $64 $103 $104 reversed $40 $-1 #
face $-1 $105 $106 $22 $-1 $107 forward single #
loop $-1 $-1 $108 $42 #
plane-surface $-1 47.510906631749151 102.05499157853444 119.66903702479203 1 0 0 0 -0.86602541151947299 -0.49999998660252726 forward_v I I I I #
coedge $-1 $109 $110 $111 $112 reversed $43 $-1 #
face $-1 $-1 $113 $23 $-1 $114 forward single #
loop $-1 $115 $116 $45 #
cone-surface $-1 53.216191253433706 27.004889447033783 10.432628590348688 0 -0.86602541151947299 -0.49999998660252726 0.5 0 0 1 I I -0.70710678118654746 0.70710678118654746 0.5 forward I I I I #
loop $-1 $-1 $117 $29 #
coedge $-1 $73 $73 $118 $119 reversed $46 $-1 #
face $-1 $120 $121 $18 $-1 $122 reversed single #
loop $-1 $-1 $123 $48 #
plane-surface $-1 0 -29.646131905964076 0 0 1 0 0 0 1 forward_v I I I I #
coedge $-1 $124 $125 $126 $127 forward $49 $-1 #
coedge $-1 $128 $51 $129 $130 forward $31 $-1 #
coedge $-1 $51 $128 $131 $132 forward $31 $-1 #
coedge $-1 $133 $134 $51 $81 reversed $135 $-1 #
edge $-1 $136 -29.646131905964076 $137 29.646131905964076 $80 $138 forward 7 unknown #
face $-1 $139 $140 $19 $-1 $141 reversed single #
loop $-1 $-1 $88 $52 #
plane-surface $-1 -65.064921429596865 0 9.4740396668175091 0 0 1 1 0 0 forward_v I I I I #
coedge $-1 $142 $143 $86 $144 forward $53 $-1 #
coedge $-1 $145 $55 $85 $144 reversed $34 $-1 #
coedge $-1 $55 $145 $146 $147 reversed $34 $-1 #
coedge $-1 $148 $149 $55 $89 reversed $83 $-1 #
edge $-1 $150 -29.646131905964076 $151 29.646131905964076 $88 $152 forward 7 unknown #
face $-1 $153 $154 $20 $-1 $155 forward single #
loop $-1 $-1 $156 $56 #
plane-surface $-1 58.921475875118261 0 0 -1 0 0 0 0 1 forward_v I I I I #
coedge $-1 $157 $158 $159 $160 reversed $57 $-1 #
coedge $-1 $161 $59 $156 $162 reversed $37 $-1 #
coedge $-1 $59 $161 $157 $163 forward $37 $-1 #
coedge $-1 $159 $164 $59 $97 forward $154 $-1 #
edge $-1 $165 -32.313380248401408 $166 -20.902811005032298 $96 $167 forward 7 unknown #
loop $-1 $-1 $103 $60 #
plane-surface $-1 53.216191253433706 -29.646131905964054 9.3989555608252786 0 -0.86602541151947299 0.49999998660252726 1 0 0 forward_v I I I I #
loop $-1 $-1 $168 $39 #
coedge $-1 $101 $101 $102 $169 reversed $61 $-1 #
coedge $-1 $102 $102 $101 $169 forward $63 $-1 #
coedge $-1 $103 $103 $64 $104 forward $98 $-1 #
edge $-1 $170 1.104503891120318e-016 $170 6.2831853071796004 $103 $171 forward 7 unknown #
face $-1 $172 $173 $22 $-1 $174 reversed single #
loop $-1 $-1 $175 $65 #
plane-surface $-1 0 0 13.236848158935093 0 0 1 1 0 0 forward_v I I I I #
coedge $-1 $176 $177 $178 $179 reversed $66 $-1 #
coedge $-1 $180 $68 $181 $182 reversed $43 $-1 #
coedge $-1 $68 $180 $176 $183 forward $43 $-1 #
coedge $-1 $178 $184 $68 $112 forward $185 $-1 #
edge $-1 $186 -32.313380248401408 $187 -20.902811005032298 $111 $188 forward 7 unknown #
loop $-1 $-1 $118 $69 #
plane-surface $-1 53.216191253433706 7.9436647126840398e-007 60.747562728471515 0 0.86602541151947299 0.49999998660252726 1 0 0 forward_v I I I I #
loop $-1 $-1 $189 $45 #
coedge $-1 $116 $116 $117 $190 reversed $70 $-1 #
coedge $-1 $117 $117 $116 $190 forward $72 $-1 #
coedge $-1 $118 $118 $73 $119 forward $113 $-1 #
edge $-1 $191 -5.8642364702369861e-016 $191 6.2831853071795996 $118 $192 forward 7 unknown #
face $-1 $193 $194 $18 $-1 $195 reversed single #
loop $-1 $-1 $196 $74 #
plane-surface $-1 -58.921475875118261 0 0 1 0 0 0 0 -1 forward_v I I I I #
coedge $-1 $197 $131 $198 $199 forward $75 $-1 #
coedge $-1 $200 $77 $197 $201 forward $49 $-1 #
coedge $-1 $77 $200 $202 $203 forward $49 $-1 #
coedge $-1 $134 $133 $77 $127 reversed $135 $-1 #
edge $-1 $204 -29.646131905964076 $205 29.646131905964076 $126 $206 forward 7 unknown #
coedge $-1 $79 $78 $207 $208 forward $31 $-1 #
coedge $-1 $209 $210 $78 $130 reversed $194 $-1 #
edge $-1 $137 -58.921475875118261 $211 58.921475875118261 $129 $212 forward 7 unknown #
coedge $-1 $123 $213 $79 $132 reversed $75 $-1 #
edge $-1 $214 -58.921475875118261 $136 58.921475875118261 $131 $215 forward 7 unknown #
coedge $-1 $126 $80 $213 $216 forward $135 $-1 #
coedge $-1 $80 $126 $209 $217 reversed $135 $-1 #
loop $-1 $-1 $133 $193 #
vertex $-1 $81 $218 #
vertex $-1 $81 $219 #
straight-curve $-1 58.921475875118261 0 13.236848158935093 0 1 0 I I #
face $-1 $220 $221 $19 $-1 $222 forward single #
loop $-1 $-1 $223 $82 #
plane-surface $-1 -71.208366984075468 0 11.3554439128763 1 0 0 0 0 -1 forward_v I I I I #
coedge $-1 $224 $85 $149 $225 reversed $53 $-1 #
coedge $-1 $85 $224 $226 $227 reversed $53 $-1 #
edge $-1 $228 -13.236848158935093 $151 -9.4740396668175091 $85 $229 forward 7 unknown #
coedge $-1 $87 $86 $230 $231 reversed $34 $-1 #
coedge $-1 $232 $233 $87 $147 forward $234 $-1 #
edge $-1 $150 9.4740396668175091 $235 13.236848158935093 $146 $236 forward 7 unknown #
coedge $-1 $237 $88 $233 $238 forward $83 $-1 #
coedge $-1 $88 $237 $142 $225 forward $83 $-1 #
vertex $-1 $147 $239 #
vertex $-1 $144 $240 #
straight-curve $-1 -58.921475875118261 0 9.4740396668175091 0 1 0 I I #
face $-1 $-1 $241 $20 $-1 $242 reversed single #
loop $-1 $-1 $96 $90 #
plane-surface $-1 0 0 13.236848158935093 0 0 1 1 0 0 forward_v I I I I #
coedge $-1 $243 $244 $94 $162 forward $91 $-1 #
coedge $-1 $158 $93 $95 $163 reversed $57 $-1 #
coedge $-1 $93 $157 $245 $246 reversed $57 $-1 #
coedge $-1 $247 $96 $93 $160 forward $154 $-1 #
edge $-1 $166 -38.420237684578247 $248 -36.204429439101936 $159 $249 forward 7 unknown #
coedge $-1 $95 $94 $250 $251 reversed $37 $-1 #
edge $-1 $252 -3.341665599190959 $165 1.0899510105065893 $156 $253 forward 7 unknown #
edge $-1 $254 -4.2963914170604875e-014 $166 4.4316166096975049 $157 $255 forward 7 unknown #
coedge $-1 $96 $247 $243 $256 forward $154 $-1 #
vertex $-1 $97 $257 #
vertex $-1 $97 $258 #
straight-curve $-1 26.608095626716853 -27.430323660487762 13.236848158935093 -1 0 0 I I #
coedge $-1 $168 $168 $-1 $259 reversed $100 $-1 #
edge $-1 $260 0 $260 6.2831853071796004 $101 $261 forward 7 unknown #
vertex $-1 $104 $262 #
ellipse-curve $-1 53.216191253433706 -28.538227783225913 11.317901859880177 0 -0.86602541151947299 0.49999998660252726 1 0 0 1 I I #
face $-1 $-1 $185 $22 $-1 $263 reversed single #
loop $-1 $-1 $181 $105 #
plane-surface $-1 58.921475875118261 0 0 -1 0 0 0 0 1 forward_v I I I I #
coedge $-1 $264 $265 $177 $266 forward $106 $-1 #
coedge $-1 $177 $108 $110 $183 reversed $66 $-1 #
coedge $-1 $108 $176 $175 $266 reversed $66 $-1 #
coedge $-1 $267 $111 $108 $179 forward $185 $-1 #
edge $-1 $187 -50.435562951570766 $268 -46.597670353460927 $178 $269 forward 7 unknown #
coedge $-1 $110 $109 $264 $270 reversed $43 $-1 #
coedge $-1 $271 $272 $109 $182 forward $173 $-1 #
edge $-1 $273 28.556180895457487 $186 32.987797505155029 $181 $274 forward 7 unknown #
edge $-1 $275 54.860647202230638 $187 59.292263811928187 $176 $276 forward 7 unknown #
coedge $-1 $111 $267 $271 $277 forward $185 $-1 #
loop $-1 $-1 $178 $172 #
vertex $-1 $182 $278 #
vertex $-1 $112 $279 #
straight-curve $-1 26.608095626716853 29.646131905964076 9.3989555608252502 -1 0 0 I I #
coedge $-1 $189 $189 $-1 $280 reversed $115 $-1 #
edge $-1 $281 0 $281 6.2831853071796004 $116 $282 forward 7 unknown #
vertex $-1 $119 $283 #
ellipse-curve $-1 53.216191253433706 28.538227783225913 11.317901859880187 0 0.86602541151947299 0.49999998660252726 1 0 0 1 I I #
face $-1 $-1 $135 $18 $-1 $284 reversed single #
loop $-1 $-1 $209 $120 #
plane-surface $-1 0 29.646131905964076 0 0 -1 0 0 0 -1 forward_v I I I I #
coedge $-1 $285 $207 $210 $286 forward $121 $-1 #
coedge $-1 $213 $123 $124 $201 reversed $75 $-1 #
coedge $-1 $207 $285 $123 $199 reversed $121 $-1 #
edge $-1 $214 -13.236848158935093 $287 13.236848158935093 $198 $288 forward 7 unknown #
coedge $-1 $125 $124 $285 $289 forward $49 $-1 #
edge $-1 $205 -58.921475875118261 $287 58.921475875118261 $197 $290 forward 7 unknown #
coedge $-1 $210 $209 $125 $203 reversed $194 $-1 #
edge $-1 $291 -58.921475875118261 $204 58.921475875118261 $202 $292 forward 7 unknown #
vertex $-1 $127 $293 #
vertex $-1 $216 $294 #
straight-curve $-1 58.921475875118261 0 -13.236848158935093 0 -1 0 I I #
coedge $-1 $196 $198 $128 $208 reversed $121 $-1 #
edge $-1 $211 -29.646131905964076 $214 29.646131905964076 $207 $295 forward 7 unknown #
coedge $-1 $202 $129 $134 $217 forward $194 $-1 #
coedge $-1 $129 $202 $196 $286 reversed $194 $-1 #
vertex $-1 $130 $296 #
straight-curve $-1 0 29.646131905964076 13.236848158935093 -1 0 0 I I #
coedge $-1 $131 $197 $133 $216 reversed $75 $-1 #
vertex $-1 $208 $297 #
straight-curve $-1 0 -29.646131905964076 13.236848158935093 1 0 0 I I #
edge $-1 $136 -13.236848158935093 $205 13.236848158935093 $133 $298 forward 7 unknown #
edge $-1 $137 -13.236848158935093 $204 13.236848158935093 $134 $299 forward 7 unknown #
point $-1 58.921475875118261 -29.646131905964076 13.236848158935093 #
point $-1 58.921475875118261 29.646131905964076 13.236848158935093 #
face $-1 $-1 $234 $19 $-1 $300 reversed single #
loop $-1 $-1 $230 $139 #
plane-surface $-1 0 0 13.236848158935093 0 0 1 1 0 0 forward_v I I I I #
coedge $-1 $301 $302 $224 $303 forward $140 $-1 #
coedge $-1 $143 $142 $223 $303 reversed $53 $-1 #
edge $-1 $304 -6.1434455544786033 $151 6.1434455544786033 $142 $305 forward 7 unknown #
coedge $-1 $306 $230 $143 $227 forward $221 $-1 #
edge $-1 $228 58.921475875118261 $307 71.208366984075468 $143 $308 forward 7 unknown #
vertex $-1 $227 $309 #
straight-curve $-1 -58.921475875118261 29.646131905964076 0 0 0 -1 I I #
coedge $-1 $226 $310 $145 $231 forward $221 $-1 #
edge $-1 $235 -29.646131905964076 $228 29.646131905964076 $230 $311 forward 7 unknown #
coedge $-1 $312 $146 $310 $313 reversed $234 $-1 #
coedge $-1 $146 $312 $148 $238 reversed $234 $-1 #
loop $-1 $-1 $146 $220 #
vertex $-1 $147 $314 #
straight-curve $-1 -58.921475875118261 -29.646131905964076 0 0 0 1 I I #
coedge $-1 $149 $148 $301 $315 forward $83 $-1 #
edge $-1 $150 -6.1434455544786033 $316 6.1434455544786033 $233 $317 forward 7 unknown #
point $-1 -58.921475875118261 -29.646131905964076 9.4740396668175091 #
point $-1 -58.921475875118261 29.646131905964076 9.4740396668175091 #
loop $-1 $-1 $250 $153 #
plane-surface $-1 0 -29.646131905964076 0 0 1 0 0 0 1 forward_v I I I I #
coedge $-1 $244 $156 $164 $256 reversed $91 $-1 #
coedge $-1 $156 $243 $318 $319 forward $91 $-1 #
coedge $-1 $250 $320 $158 $246 forward $241 $-1 #
edge $-1 $248 20.923366769637806 $254 24.761259367747655 $245 $321 forward 7 unknown #
coedge $-1 $164 $159 $320 $322 forward $154 $-1 #
vertex $-1 $322 $323 #
straight-curve $-1 47.510906631749151 -65.850561345066012 13.236848158935093 0 -1 0 I I #
coedge $-1 $318 $245 $161 $251 forward $241 $-1 #
edge $-1 $254 20.902811005032298 $252 32.313380248401408 $250 $324 forward 7 unknown #
vertex $-1 $251 $325 #
straight-curve $-1 58.921475875118261 -27.975299151138469 12.292922886525057 0 0.49999998660252726 0.86602541151947299 I I #
vertex $-1 $251 $326 #
straight-curve $-1 47.510906631749151 -29.646131905964054 9.3989555608252786 0 0.49999998660252726 0.86602541151947299 I I #
edge $-1 $327 -29.646131905964076 $165 -27.430323660487765 $243 $328 forward 7 unknown #
point $-1 58.921475875118261 -27.430323660487765 13.236848158935093 #
point $-1 47.510906631749151 -27.430323660487765 13.236848158935093 #
edge $-1 $329 1 $329 0 $168 $-1 forward 7 unknown #
vertex $-1 $169 $330 #
ellipse-curve $-1 53.216191253433706 -27.437902152793527 10.682628583649945 0 -0.86602541151947299 0.49999998660252726 1 0 0 1 I I #
point $-1 54.216191253433706 -28.538227783225935 11.317901859880189 #
plane-surface $-1 0 29.646131905964076 0 0 -1 0 0 0 -1 forward_v I I I I #
coedge $-1 $331 $175 $180 $270 forward $106 $-1 #
coedge $-1 $175 $331 $267 $332 forward $106 $-1 #
edge $-1 $268 21.381363883303145 $275 23.597172128779452 $175 $333 forward 7 unknown #
coedge $-1 $184 $178 $265 $332 reversed $185 $-1 #
vertex $-1 $266 $334 #
straight-curve $-1 47.510906631749151 29.646131905964076 59.834518512396016 0 0 1 I I #
edge $-1 $275 20.902811005032298 $273 32.313380248401408 $264 $335 forward 7 unknown #
coedge $-1 $272 $181 $184 $277 reversed $173 $-1 #
coedge $-1 $181 $271 $331 $336 reversed $173 $-1 #
vertex $-1 $336 $337 #
straight-curve $-1 58.921475875118261 13.152233595339681 37.96722647034818 0 0.49999998660252726 -0.86602541151947299 I I #
vertex $-1 $270 $338 #
straight-curve $-1 47.510906631749151 7.9436647126840398e-007 60.747562728471515 0 0.49999998660252726 -0.86602541151947299 I I #
edge $-1 $339 -13.236848158935093 $186 -9.3989555608252484 $271 $340 forward 7 unknown #
point $-1 58.921475875118261 29.646131905964076 9.3989555608252484 #
point $-1 47.510906631749151 29.646131905964076 9.3989555608252502 #
edge $-1 $341 1 $341 0 $189 $-1 forward 7 unknown #
vertex $-1 $190 $342 #
ellipse-curve $-1 53.216191253433706 27.437902152793519 10.682628583649953 0 0.86602541151947299 0.49999998660252726 1 0 0 1 I I #
point $-1 54.216191253433706 28.538227783225928 11.317901859880196 #
plane-surface $-1 58.921475875118261 0 0 -1 0 0 0 0 1 forward_v I I I I #
coedge $-1 $198 $196 $200 $289 reversed $121 $-1 #
edge $-1 $211 -13.236848158935093 $291 13.236848158935093 $210 $343 forward 7 unknown #
vertex $-1 $289 $344 #
straight-curve $-1 -58.921475875118261 -29.646131905964076 0 0 0 -1 I I #
edge $-1 $287 -29.646131905964076 $291 29.646131905964076 $285 $345 forward 7 unknown #
straight-curve $-1 0 -29.646131905964076 -13.236848158935093 -1 0 0 I I #
vertex $-1 $203 $346 #
straight-curve $-1 0 29.646131905964076 -13.236848158935093 1 0 0 I I #
point $-1 58.921475875118261 29.646131905964076 -13.236848158935093 #
point $-1 58.921475875118261 -29.646131905964076 -13.236848158935093 #
straight-curve $-1 -58.921475875118261 0 13.236848158935093 0 -1 0 I I #
point $-1 -58.921475875118261 29.646131905964076 13.236848158935093 #
point $-1 -58.921475875118261 -29.646131905964076 13.236848158935093 #
straight-curve $-1 58.921475875118261 -29.646131905964076 0 0 0 -1 I I #
straight-curve $-1 58.921475875118261 29.646131905964076 0 0 0 -1 I I #
plane-surface $-1 0 -29.646131905964076 0 0 1 0 0 0 1 forward_v I I I I #
coedge $-1 $347 $223 $237 $315 reversed $140 $-1 #
coedge $-1 $223 $347 $306 $348 reversed $140 $-1 #
edge $-1 $307 -1.881404246058791 $304 1.881404246058791 $224 $349 forward 7 unknown #
vertex $-1 $225 $350 #
straight-curve $-1 -65.064921429596865 29.646131905964076 9.4740396668175091 1 0 0 I I #
coedge $-1 $310 $226 $302 $348 forward $221 $-1 #
vertex $-1 $227 $351 #
straight-curve $-1 0 29.646131905964076 13.236848158935093 -1 0 0 I I #
point $-1 -58.921475875118261 29.646131905964076 13.236848158935093 #
coedge $-1 $230 $306 $232 $313 forward $221 $-1 #
straight-curve $-1 -58.921475875118261 0 13.236848158935093 0 1 0 I I #
coedge $-1 $233 $232 $347 $352 forward $234 $-1 #
edge $-1 $353 -71.208366984075468 $235 -58.921475875118261 $232 $354 forward 7 unknown #
point $-1 -58.921475875118261 -29.646131905964076 13.236848158935093 #
edge $-1 $316 -29.646131905964076 $304 29.646131905964076 $301 $355 forward 7 unknown #
vertex $-1 $315 $356 #
straight-curve $-1 -65.064921429596865 -29.646131905964076 9.4740396668175091 -1 0 0 I I #
coedge $-1 $320 $250 $244 $319 reversed $241 $-1 #
edge $-1 $327 -13.236848158935093 $252 -9.3989555608252413 $244 $357 forward 7 unknown #
coedge $-1 $245 $318 $247 $322 reversed $241 $-1 #
straight-curve $-1 47.510906631749151 -29.646131905964076 34.160214928572898 0 0 -1 I I #
edge $-1 $248 47.510906631749151 $327 58.921475875118261 $320 $358 forward 7 unknown #
point $-1 47.510906631749151 -29.646131905964076 13.236848158935093 #
straight-curve $-1 26.608095626716853 -29.646131905964076 9.3989555608252395 1 0 0 I I #
point $-1 58.921475875118261 -29.646131905964076 9.3989555608252413 #
point $-1 47.510906631749151 -29.646131905964076 9.3989555608252413 #
vertex $-1 $256 $359 #
straight-curve $-1 58.921475875118261 0 13.236848158935093 0 1 0 I I #
vertex $-1 $259 $360 #
point $-1 54.216191253433706 -27.437902152793527 10.682628583649945 #
coedge $-1 $265 $264 $272 $336 forward $106 $-1 #
edge $-1 $339 -58.921475875118261 $268 -47.510906631749151 $267 $361 forward 7 unknown #
straight-curve $-1 47.510906631749151 51.027495789267221 13.236848158935089 0 -1 0 I I #
point $-1 47.510906631749151 29.646131905964076 13.236848158935093 #
straight-curve $-1 26.608095626716853 27.430323660487765 13.236848158935096 1 0 0 I I #
edge $-1 $273 27.430323660487769 $339 29.646131905964076 $272 $362 forward 7 unknown #
point $-1 58.921475875118261 27.430323660487769 13.236848158935096 #
point $-1 47.510906631749151 27.430323660487769 13.236848158935096 #
vertex $-1 $336 $363 #
straight-curve $-1 58.921475875118261 29.646131905964076 0 0 0 -1 I I #
vertex $-1 $280 $364 #
point $-1 54.216191253433706 27.437902152793519 10.682628583649953 #
straight-curve $-1 -58.921475875118261 29.646131905964076 0 0 0 -1 I I #
point $-1 -58.921475875118261 -29.646131905964076 -13.236848158935093 #
straight-curve $-1 -58.921475875118261 0 -13.236848158935093 0 1 0 I I #
point $-1 -58.921475875118261 29.646131905964076 -13.236848158935093 #
coedge $-1 $302 $301 $312 $352 reversed $140 $-1 #
edge $-1 $307 -29.646131905964076 $353 29.646131905964076 $302 $365 forward 7 unknown #
straight-curve $-1 -71.208366984075468 29.646131905964076 11.3554439128763 0 0 -1 I I #
point $-1 -71.208366984075468 29.646131905964076 9.4740396668175091 #
point $-1 -71.208366984075468 29.646131905964076 13.236848158935091 #
edge $-1 $353 -1.881404246058791 $316 1.881404246058791 $347 $366 forward 7 unknown #
vertex $-1 $348 $367 #
straight-curve $-1 0 -29.646131905964076 13.236848158935093 1 0 0 I I #
straight-curve $-1 -71.208366984075468 0 9.4740396668175091 0 1 0 I I #
point $-1 -71.208366984075468 -29.646131905964076 9.4740396668175091 #
straight-curve $-1 58.921475875118261 -29.646131905964076 0 0 0 -1 I I #
straight-curve $-1 0 -29.646131905964076 13.236848158935093 1 0 0 I I #
point $-1 58.921475875118261 -29.646131905964076 13.236848158935093 #
point $-1 53.216191253433706 -26.571876741274053 10.182628597047417 #
straight-curve $-1 0 29.646131905964076 13.236848158935093 -1 0 0 I I #
straight-curve $-1 58.921475875118261 0 13.236848158935093 0 1 0 I I #
point $-1 58.921475875118261 29.646131905964076 13.236848158935093 #
point $-1 53.216191253433706 26.571876741274046 10.182628597047424 #
straight-curve $-1 -71.208366984075468 0 13.236848158935091 0 -1 0 I I #
straight-curve $-1 -71.208366984075468 -29.646131905964076 11.3554439128763 0 0 -1 I I #
point $-1 -71.208366984075468 -29.646131905964076 13.236848158935091 #
End-of-ACIS-data 