500 0 5 0           
7 Unknown 11 ACIS 5.0 NT 24 Thu Mar 25 15:35:08 1999 
-1 9.9999999999999995e-007 1e-010 
body $-1 $5 $-1 $6 #
body $-1 $7 $-1 $8 #
body $-1 $9 $-1 $10 #
body $-1 $11 $-1 $12 #
body $-1 $13 $-1 $14 #
lump $-1 $-1 $15 $0 #
transform $-1 1 0 0 0 1 0 0 0 1 75.843379009369187 41.535053528596649 11.239321851924434 1 rotate no_reflect no_shear #
lump $-1 $-1 $16 $1 #
transform $-1 1 0 0 0 1 0 0 0 1 75.843379009369187 41.535053528596649 11.239321851924434 1 rotate no_reflect no_shear #
lump $-1 $-1 $17 $2 #
transform $-1 1 0 0 0 1 0 0 0 1 75.843379009369187 41.535053528596649 11.239321851924434 1 rotate no_reflect no_shear #
lump $-1 $-1 $18 $3 #
transform $-1 1 0 0 0 1 0 0 0 1 75.843379009369187 41.535053528596649 11.239321851924434 1 rotate no_reflect no_shear #
lump $-1 $-1 $19 $4 #
transform $-1 1 0 0 0 1 0 0 0 1 75.843379009369187 41.535053528596649 11.239321851924434 1 rotate no_reflect no_shear #
shell $-1 $-1 $-1 $20 $-1 $5 #
shell $-1 $-1 $-1 $21 $-1 $7 #
shell $-1 $-1 $-1 $22 $-1 $9 #
shell $-1 $-1 $-1 $23 $-1 $11 #
shell $-1 $-1 $-1 $24 $-1 $13 #
face $-1 $25 $26 $15 $-1 $27 forward single #
face $-1 $28 $29 $16 $-1 $30 reversed single #
face $-1 $31 $32 $17 $-1 $33 reversed single #
face $-1 $34 $35 $18 $-1 $36 forward single #
face $-1 $37 $38 $19 $-1 $39 forward single #
face $-1 $40 $41 $15 $-1 $42 reversed single #
loop $-1 $-1 $43 $20 #
plane-surface $-1 0 0 11.239321851924434 0 0 1 1 0 0 forward_v I I I I #
face $-1 $44 $45 $16 $-1 $46 reversed single #
loop $-1 $-1 $47 $21 #
plane-surface $-1 -71.499166905510037 -38.535053528596649 0 0 -1 0 0 0 -1 forward_v I I I I #
face $-1 $48 $49 $17 $-1 $50 reversed single #
loop $-1 $-1 $51 $22 #
plane-surface $-1 62.015522611258035 -41.535053528596649 1.5667963029676457 0 -0.82903758062907751 0.55919289150049634 1 0 0 forward_v I I I I #
face $-1 $52 $53 $18 $-1 $54 forward single #
loop $-1 $55 $56 $23 #
cone-surface $-1 56.08929844063897 -36.475969270596742 5.1909781507773172 0 0.82903758062907751 -0.55919289150049634 1.5 0 0 1 I I 0 1 1.5 forward I I I I #
face $-1 $57 $58 $19 $-1 $59 forward single #
loop $-1 $60 $61 $24 #
cone-surface $-1 67.9417467818771 -36.475969270596742 5.1909781507773172 0 0.82903758062907751 -0.55919289150049634 1.5 0 0 1 I I 0 1 1.5 forward I I I I #
face $-1 $62 $63 $15 $-1 $64 reversed single #
loop $-1 $-1 $65 $25 #
plane-surface $-1 0 0 -11.239321851924434 0 0 1 1 0 0 forward_v I I I I #
coedge $-1 $66 $67 $68 $69 forward $26 $-1 #
face $-1 $70 $71 $16 $-1 $72 forward single #
loop $-1 $-1 $73 $28 #
plane-surface $-1 -67.154954801650888 -40.035053528596649 0 -1 0 0 0 0 1 forward_v I I I I #
coedge $-1 $74 $75 $76 $77 forward $29 $-1 #
face $-1 $78 $79 $17 $-1 $80 reversed single #
loop $-1 $-1 $81 $31 #
plane-surface $-1 48.18766621314689 -167.28907640991983 86.388953121802061 1 0 0 0 0.82903758062907751 -0.55919289150049634 forward_v I I I I #
coedge $-1 $82 $83 $84 $85 reversed $32 $-1 #
face $-1 $-1 $86 $18 $-1 $87 forward single #
loop $-1 $88 $89 $34 #
cone-surface $-1 56.08929844063897 -34.057207156599446 3.5595025554832205 0 0.82903758062907751 -0.55919289150049634 0.75 0 0 1 I I -0.70710678118654724 0.70710678118654768 0.75 forward I I I I #
loop $-1 $-1 $90 $23 #
coedge $-1 $56 $56 $91 $92 reversed $35 $-1 #
face $-1 $-1 $93 $19 $-1 $94 forward single #
loop $-1 $95 $96 $37 #
cone-surface $-1 67.9417467818771 -34.057207156599446 3.5595025554832205 0 0.82903758062907751 -0.55919289150049634 0.75 0 0 1 I I -0.70710678118654724 0.70710678118654768 0.75 forward I I I I #
loop $-1 $-1 $97 $24 #
coedge $-1 $61 $61 $98 $99 reversed $38 $-1 #
face $-1 $100 $101 $15 $-1 $102 reversed single #
loop $-1 $-1 $103 $40 #
plane-surface $-1 0 -41.535053528596649 0 0 1 0 0 0 1 forward_v I I I I #
coedge $-1 $104 $105 $106 $107 forward $41 $-1 #
coedge $-1 $108 $43 $109 $110 forward $26 $-1 #
coedge $-1 $43 $108 $111 $112 forward $26 $-1 #
coedge $-1 $113 $114 $43 $69 reversed $115 $-1 #
edge $-1 $116 -41.535053528596649 $117 41.535053528596649 $68 $118 forward 7 unknown #
face $-1 $119 $120 $16 $-1 $121 reversed single #
loop $-1 $-1 $122 $44 #
plane-surface $-1 0 0 11.239321851924434 0 0 1 1 0 0 forward_v I I I I #
coedge $-1 $123 $124 $125 $126 reversed $45 $-1 #
coedge $-1 $127 $47 $128 $129 reversed $29 $-1 #
coedge $-1 $47 $127 $130 $131 reversed $29 $-1 #
coedge $-1 $124 $123 $47 $77 reversed $45 $-1 #
edge $-1 $132 -11.239321851924434 $133 11.239321851924434 $76 $134 forward 7 unknown #
face $-1 $135 $136 $17 $-1 $137 forward single #
loop $-1 $-1 $138 $48 #
plane-surface $-1 75.843379009369187 0 0 -1 0 0 0 0 1 forward_v I I I I #
coedge $-1 $139 $140 $141 $142 reversed $49 $-1 #
coedge $-1 $143 $51 $138 $144 reversed $32 $-1 #
coedge $-1 $51 $143 $139 $145 forward $32 $-1 #
coedge $-1 $141 $146 $51 $85 forward $136 $-1 #
edge $-1 $147 -44.835617703740169 $148 -17.179904907517873 $84 $149 forward 7 unknown #
loop $-1 $-1 $91 $52 #
plane-surface $-1 62.015522611258035 -41.535053528596649 1.5667963029676457 0 -0.82903758062907751 0.55919289150049634 1 0 0 forward_v I I I I #
loop $-1 $-1 $150 $34 #
coedge $-1 $89 $89 $90 $151 reversed $53 $-1 #
coedge $-1 $90 $90 $89 $151 forward $55 $-1 #
coedge $-1 $91 $91 $56 $92 forward $86 $-1 #
edge $-1 $152 9.8177771764686556e-016 $152 6.2831853071796013 $91 $153 forward 7 unknown #
loop $-1 $-1 $98 $57 #
plane-surface $-1 62.015522611258035 -41.535053528596649 1.5667963029676457 0 -0.82903758062907751 0.55919289150049634 1 0 0 forward_v I I I I #
loop $-1 $-1 $154 $37 #
coedge $-1 $96 $96 $97 $155 reversed $58 $-1 #
coedge $-1 $97 $97 $96 $155 forward $60 $-1 #
coedge $-1 $98 $98 $61 $99 forward $93 $-1 #
edge $-1 $156 9.8177771764686556e-016 $156 6.2831853071796013 $98 $157 forward 7 unknown #
face $-1 $158 $159 $15 $-1 $160 reversed single #
loop $-1 $-1 $161 $62 #
plane-surface $-1 -75.843379009369187 0 0 1 0 0 0 0 -1 forward_v I I I I #
coedge $-1 $162 $111 $163 $164 forward $63 $-1 #
coedge $-1 $165 $65 $162 $166 forward $41 $-1 #
coedge $-1 $65 $165 $167 $168 forward $41 $-1 #
coedge $-1 $114 $113 $65 $107 reversed $115 $-1 #
edge $-1 $169 -41.535053528596649 $170 41.535053528596649 $106 $171 forward 7 unknown #
coedge $-1 $67 $66 $172 $173 forward $26 $-1 #
coedge $-1 $174 $175 $66 $110 reversed $159 $-1 #
edge $-1 $117 -75.843379009369187 $176 75.843379009369187 $109 $177 forward 7 unknown #
coedge $-1 $103 $178 $67 $112 reversed $63 $-1 #
edge $-1 $179 -75.843379009369187 $116 75.843379009369187 $111 $180 forward 7 unknown #
coedge $-1 $106 $68 $178 $181 forward $115 $-1 #
coedge $-1 $68 $106 $174 $182 reversed $115 $-1 #
loop $-1 $-1 $113 $158 #
vertex $-1 $69 $183 #
vertex $-1 $69 $184 #
straight-curve $-1 75.843379009369187 0 11.239321851924434 0 1 0 I I #
face $-1 $185 $186 $16 $-1 $187 reversed single #
loop $-1 $-1 $188 $70 #
plane-surface $-1 -75.843379009369187 0 0 1 0 0 0 0 -1 forward_v I I I I #
coedge $-1 $130 $189 $124 $190 forward $71 $-1 #
coedge $-1 $76 $73 $191 $192 reversed $45 $-1 #
coedge $-1 $73 $76 $122 $190 reversed $45 $-1 #
coedge $-1 $193 $194 $73 $126 forward $195 $-1 #
edge $-1 $196 -11.239321851924434 $197 11.239321851924434 $125 $198 forward 7 unknown #
coedge $-1 $75 $74 $188 $199 reversed $29 $-1 #
coedge $-1 $191 $200 $74 $129 forward $186 $-1 #
edge $-1 $201 -40.093795556614168 $133 -31.405371348895869 $128 $202 forward 7 unknown #
coedge $-1 $203 $122 $75 $131 forward $71 $-1 #
edge $-1 $132 31.405371348895869 $204 40.093795556614168 $130 $205 forward 7 unknown #
vertex $-1 $131 $206 #
vertex $-1 $129 $207 #
straight-curve $-1 -67.154954801650888 -38.535053528596649 0 0 0 -1 I I #
face $-1 $-1 $208 $17 $-1 $209 reversed single #
loop $-1 $-1 $84 $78 #
plane-surface $-1 0 0 11.239321851924434 0 0 1 1 0 0 forward_v I I I I #
coedge $-1 $210 $211 $82 $144 forward $79 $-1 #
coedge $-1 $140 $81 $83 $145 reversed $49 $-1 #
coedge $-1 $81 $139 $212 $213 reversed $49 $-1 #
coedge $-1 $214 $84 $81 $142 forward $136 $-1 #
edge $-1 $148 -48.633685335312094 $215 -42.109484676363266 $141 $216 forward 7 unknown #
coedge $-1 $83 $82 $217 $218 reversed $32 $-1 #
edge $-1 $219 -10.963586832466488 $147 0.70358697842062679 $138 $220 forward 7 unknown #
edge $-1 $221 0 $148 11.667173810887114 $139 $222 forward 7 unknown #
coedge $-1 $84 $214 $210 $223 forward $136 $-1 #
vertex $-1 $144 $224 #
vertex $-1 $85 $225 #
straight-curve $-1 31.007761305629018 -35.010852869647813 11.239321851924434 -1 0 0 I I #
coedge $-1 $150 $150 $-1 $226 reversed $88 $-1 #
edge $-1 $227 0 $227 6.2831853071796004 $89 $228 forward 7 unknown #
vertex $-1 $92 $229 #
ellipse-curve $-1 56.08929844063897 -38.272953199122234 6.4030590774460414 0 -0.82903758062907751 0.55919289150049634 1.5 0 0 1 I I #
coedge $-1 $154 $154 $-1 $230 reversed $95 $-1 #
edge $-1 $231 0 $231 6.2831853071796004 $96 $232 forward 7 unknown #
vertex $-1 $99 $233 #
ellipse-curve $-1 67.9417467818771 -38.272953199122234 6.4030590774460414 0 -0.82903758062907751 0.55919289150049634 1.5 0 0 1 I I #
face $-1 $-1 $115 $15 $-1 $234 reversed single #
loop $-1 $-1 $174 $100 #
plane-surface $-1 0 41.535053528596649 0 0 -1 0 0 0 -1 forward_v I I I I #
coedge $-1 $235 $172 $175 $236 forward $101 $-1 #
coedge $-1 $178 $103 $104 $166 reversed $63 $-1 #
coedge $-1 $172 $235 $103 $164 reversed $101 $-1 #
edge $-1 $179 -11.239321851924434 $237 11.239321851924434 $163 $238 forward 7 unknown #
coedge $-1 $105 $104 $235 $239 forward $41 $-1 #
edge $-1 $170 -75.843379009369187 $237 75.843379009369187 $162 $240 forward 7 unknown #
coedge $-1 $175 $174 $105 $168 reversed $159 $-1 #
edge $-1 $241 -75.843379009369187 $169 75.843379009369187 $167 $242 forward 7 unknown #
vertex $-1 $107 $243 #
vertex $-1 $181 $244 #
straight-curve $-1 75.843379009369187 0 -11.239321851924434 0 -1 0 I I #
coedge $-1 $161 $163 $108 $173 reversed $101 $-1 #
edge $-1 $176 -41.535053528596649 $179 41.535053528596649 $172 $245 forward 7 unknown #
coedge $-1 $167 $109 $114 $182 forward $159 $-1 #
coedge $-1 $109 $167 $161 $236 reversed $159 $-1 #
vertex $-1 $110 $246 #
straight-curve $-1 0 41.535053528596649 11.239321851924434 -1 0 0 I I #
coedge $-1 $111 $162 $113 $181 reversed $63 $-1 #
vertex $-1 $173 $247 #
straight-curve $-1 0 -41.535053528596649 11.239321851924434 1 0 0 I I #
edge $-1 $116 -11.239321851924434 $170 11.239321851924434 $113 $248 forward 7 unknown #
edge $-1 $117 -11.239321851924434 $169 11.239321851924434 $114 $249 forward 7 unknown #
point $-1 75.843379009369187 -41.535053528596649 11.239321851924434 #
point $-1 75.843379009369187 41.535053528596649 11.239321851924434 #
face $-1 $-1 $195 $16 $-1 $250 reversed single #
loop $-1 $-1 $191 $119 #
plane-surface $-1 0 0 -11.239321851924434 0 0 1 1 0 0 forward_v I I I I #
coedge $-1 $251 $252 $127 $199 forward $120 $-1 #
coedge $-1 $122 $203 $193 $253 forward $71 $-1 #
edge $-1 $197 -21.517526764298324 $132 -18.517526764298324 $122 $254 forward 7 unknown #
coedge $-1 $255 $128 $123 $192 forward $186 $-1 #
edge $-1 $133 18.517526764298324 $196 21.517526764298324 $191 $256 forward 7 unknown #
coedge $-1 $257 $125 $189 $253 reversed $195 $-1 #
coedge $-1 $125 $257 $255 $258 reversed $195 $-1 #
loop $-1 $-1 $125 $185 #
vertex $-1 $258 $259 #
vertex $-1 $126 $260 #
straight-curve $-1 -67.154954801650888 -41.535053528596649 0 0 0 1 I I #
edge $-1 $204 -11.239321851924434 $201 11.239321851924434 $188 $261 forward 7 unknown #
coedge $-1 $128 $255 $251 $262 forward $186 $-1 #
vertex $-1 $129 $263 #
straight-curve $-1 -35.749583452755019 -38.535053528596649 -11.239321851924434 1 0 0 I I #
coedge $-1 $189 $130 $252 $264 forward $71 $-1 #
vertex $-1 $264 $265 #
straight-curve $-1 -35.749583452755019 -38.535053528596649 11.239321851924434 -1 0 0 I I #
point $-1 -67.154954801650888 -38.535053528596649 11.239321851924434 #
point $-1 -67.154954801650888 -38.535053528596649 -11.239321851924434 #
loop $-1 $-1 $217 $135 #
plane-surface $-1 0 -41.535053528596649 0 0 1 0 0 0 1 forward_v I I I I #
coedge $-1 $211 $138 $146 $223 reversed $79 $-1 #
coedge $-1 $138 $210 $266 $267 forward $79 $-1 #
coedge $-1 $217 $268 $140 $213 forward $208 $-1 #
edge $-1 $215 31.955154708976597 $221 41.627680257933385 $212 $269 forward 7 unknown #
coedge $-1 $146 $141 $268 $270 forward $136 $-1 #
vertex $-1 $270 $271 #
straight-curve $-1 48.18766621314689 -83.644538204959915 11.23932185192443 0 -1 0 I I #
coedge $-1 $266 $212 $143 $218 forward $208 $-1 #
edge $-1 $221 17.179904907517873 $219 44.835617703740169 $217 $272 forward 7 unknown #
vertex $-1 $144 $273 #
straight-curve $-1 75.843379009369187 -35.404293706532947 10.656021805572474 0 0.55919289150049634 0.82903758062907751 I I #
vertex $-1 $218 $274 #
straight-curve $-1 48.18766621314689 -41.535053528596649 1.5667963029676457 0 0.55919289150049634 0.82903758062907751 I I #
edge $-1 $275 -41.535053528596649 $147 -35.01085286964782 $210 $276 forward 7 unknown #
point $-1 75.843379009369187 -35.01085286964782 11.239321851924434 #
point $-1 48.18766621314689 -35.01085286964782 11.239321851924434 #
edge $-1 $277 1 $277 0 $150 $-1 forward 7 unknown #
vertex $-1 $151 $278 #
ellipse-curve $-1 56.08929844063897 -34.678985342071257 3.9788972241085929 0 -0.82903758062907751 0.55919289150049634 1.5 0 0 1 I I #
point $-1 57.58929844063897 -38.272953199122234 6.4030590774460432 #
edge $-1 $279 1 $279 0 $154 $-1 forward 7 unknown #
vertex $-1 $155 $280 #
ellipse-curve $-1 67.9417467818771 -34.678985342071257 3.9788972241085929 0 -0.82903758062907751 0.55919289150049634 1.5 0 0 1 I I #
point $-1 69.4417467818771 -38.272953199122234 6.4030590774460432 #
plane-surface $-1 75.843379009369187 0 0 -1 0 0 0 0 1 forward_v I I I I #
coedge $-1 $163 $161 $165 $239 reversed $101 $-1 #
edge $-1 $176 -11.239321851924434 $241 11.239321851924434 $175 $281 forward 7 unknown #
vertex $-1 $239 $282 #
straight-curve $-1 -75.843379009369187 -41.535053528596649 0 0 0 -1 I I #
edge $-1 $237 -41.535053528596649 $241 41.535053528596649 $235 $283 forward 7 unknown #
straight-curve $-1 0 -41.535053528596649 -11.239321851924434 -1 0 0 I I #
vertex $-1 $168 $284 #
straight-curve $-1 0 41.535053528596649 -11.239321851924434 1 0 0 I I #
point $-1 75.843379009369187 41.535053528596649 -11.239321851924434 #
point $-1 75.843379009369187 -41.535053528596649 -11.239321851924434 #
straight-curve $-1 -75.843379009369187 0 11.239321851924434 0 -1 0 I I #
point $-1 -75.843379009369187 41.535053528596649 11.239321851924434 #
point $-1 -75.843379009369187 -41.535053528596649 11.239321851924434 #
straight-curve $-1 75.843379009369187 -41.535053528596649 0 0 0 -1 I I #
straight-curve $-1 75.843379009369187 41.535053528596649 0 0 0 -1 I I #
plane-surface $-1 0 -41.535053528596649 0 0 1 0 0 0 1 forward_v I I I I #
coedge $-1 $285 $188 $200 $262 reversed $120 $-1 #
coedge $-1 $188 $285 $203 $264 reversed $120 $-1 #
edge $-1 $286 -75.843379009369187 $197 -67.154954801650888 $193 $287 forward 7 unknown #
straight-curve $-1 -67.154954801650888 -20.017526764298324 11.239321851924434 0 1 0 I I #
coedge $-1 $200 $191 $194 $258 forward $186 $-1 #
straight-curve $-1 -67.154954801650888 -20.017526764298324 -11.239321851924434 0 -1 0 I I #
coedge $-1 $194 $193 $285 $288 forward $195 $-1 #
edge $-1 $196 67.154954801650888 $289 75.843379009369187 $194 $290 forward 7 unknown #
point $-1 -67.154954801650888 -41.535053528596649 -11.239321851924434 #
point $-1 -67.154954801650888 -41.535053528596649 11.239321851924434 #
straight-curve $-1 -75.843379009369187 -38.535053528596649 0 0 0 -1 I I #
edge $-1 $289 -41.535053528596649 $201 -38.535053528596649 $251 $291 forward 7 unknown #
point $-1 -75.843379009369187 -38.535053528596649 -11.239321851924434 #
edge $-1 $204 38.535053528596649 $286 41.535053528596649 $252 $292 forward 7 unknown #
point $-1 -75.843379009369187 -38.535053528596649 11.239321851924434 #
coedge $-1 $268 $217 $211 $267 reversed $208 $-1 #
edge $-1 $275 -11.239321851924434 $219 -1.5667963029676457 $211 $293 forward 7 unknown #
coedge $-1 $212 $266 $214 $270 reversed $208 $-1 #
straight-curve $-1 48.18766621314689 -41.535053528596649 43.19447656090103 0 0 -1 I I #
edge $-1 $215 48.18766621314689 $275 75.843379009369187 $268 $294 forward 7 unknown #
point $-1 48.18766621314689 -41.535053528596649 11.239321851924434 #
straight-curve $-1 31.007761305629018 -41.535053528596649 1.5667963029676506 1 0 0 I I #
point $-1 75.843379009369187 -41.535053528596649 1.5667963029676457 #
point $-1 48.18766621314689 -41.535053528596649 1.5667963029676457 #
vertex $-1 $223 $295 #
straight-curve $-1 75.843379009369187 0 11.239321851924434 0 1 0 I I #
vertex $-1 $226 $296 #
point $-1 57.58929844063897 -34.678985342071257 3.9788972241085929 #
vertex $-1 $230 $297 #
point $-1 69.4417467818771 -34.678985342071257 3.9788972241085929 #
straight-curve $-1 -75.843379009369187 41.535053528596649 0 0 0 -1 I I #
point $-1 -75.843379009369187 -41.535053528596649 -11.239321851924434 #
straight-curve $-1 -75.843379009369187 0 -11.239321851924434 0 1 0 I I #
point $-1 -75.843379009369187 41.535053528596649 -11.239321851924434 #
coedge $-1 $252 $251 $257 $288 reversed $120 $-1 #
vertex $-1 $264 $298 #
straight-curve $-1 0 -41.535053528596649 11.239321851924434 1 0 0 I I #
edge $-1 $286 -11.239321851924434 $289 11.239321851924434 $285 $299 forward 7 unknown #
vertex $-1 $262 $300 #
straight-curve $-1 0 -41.535053528596649 -11.239321851924434 -1 0 0 I I #
straight-curve $-1 -75.843379009369187 0 -11.239321851924434 0 1 0 I I #
straight-curve $-1 -75.843379009369187 0 11.239321851924434 0 -1 0 I I #
straight-curve $-1 75.843379009369187 -41.535053528596649 0 0 0 -1 I I #
straight-curve $-1 0 -41.535053528596649 11.239321851924434 1 0 0 I I #
point $-1 75.843379009369187 -41.535053528596649 11.239321851924434 #
point $-1 56.08929844063897 -33.435428971127635 3.140107886857848 #
point $-1 67.9417467818771 -33.435428971127635 3.140107886857848 #
point $-1 -75.843379009369187 -41.535053528596649 11.239321851924434 #
straight-curve $-1 -75.843379009369187 -41.535053528596649 0 0 0 -1 I I #
point $-1 -75.843379009369187 -41.535053528596649 -11.239321851924434 #
End-of-ACIS-data 