500 0 9 0           
7 Unknown 11 ACIS 5.0 NT 24 Fri Mar 26 18:20:01 1999 
-1 9.9999999999999995e-007 1e-010 
body $-1 $9 $-1 $10 #
body $-1 $11 $-1 $12 #
body $-1 $13 $-1 $14 #
body $-1 $15 $-1 $16 #
body $-1 $17 $-1 $18 #
body $-1 $19 $-1 $20 #
body $-1 $21 $-1 $22 #
body $-1 $23 $-1 $24 #
body $-1 $25 $-1 $26 #
lump $-1 $-1 $27 $0 #
transform $-1 1 0 0 0 1 0 0 0 1 41.749320963164159 22.272377852613637 10.12313457432051 1 rotate no_reflect no_shear #
lump $-1 $-1 $28 $1 #
transform $-1 1 0 0 0 1 0 0 0 1 41.749320963164159 22.272377852613637 10.12313457432051 1 rotate no_reflect no_shear #
lump $-1 $-1 $29 $2 #
transform $-1 1 0 0 0 1 0 0 0 1 41.749320963164159 22.272377852613637 10.12313457432051 1 rotate no_reflect no_shear #
lump $-1 $-1 $30 $3 #
transform $-1 1 0 0 0 1 0 0 0 1 41.749320963164159 22.272377852613637 10.12313457432051 1 rotate no_reflect no_shear #
lump $-1 $-1 $31 $4 #
transform $-1 1 0 0 0 1 0 0 0 1 41.749320963164159 22.272377852613637 10.12313457432051 1 rotate no_reflect no_shear #
lump $-1 $-1 $32 $5 #
transform $-1 1 0 0 0 1 0 0 0 1 41.749320963164159 22.272377852613637 10.12313457432051 1 rotate no_reflect no_shear #
lump $-1 $-1 $33 $6 #
transform $-1 1 0 0 0 1 0 0 0 1 41.749320963164159 22.272377852613637 10.12313457432051 1 rotate no_reflect no_shear #
lump $-1 $-1 $34 $7 #
transform $-1 1 0 0 0 1 0 0 0 1 41.749320963164159 22.272377852613637 10.12313457432051 1 rotate no_reflect no_shear #
lump $-1 $-1 $35 $8 #
transform $-1 1 0 0 0 1 0 0 0 1 41.749320963164159 22.272377852613637 10.12313457432051 1 rotate no_reflect no_shear #
shell $-1 $-1 $-1 $36 $-1 $9 #
shell $-1 $-1 $-1 $37 $-1 $11 #
shell $-1 $-1 $-1 $38 $-1 $13 #
shell $-1 $-1 $-1 $39 $-1 $15 #
shell $-1 $-1 $-1 $40 $-1 $17 #
shell $-1 $-1 $-1 $41 $-1 $19 #
shell $-1 $-1 $-1 $42 $-1 $21 #
shell $-1 $-1 $-1 $43 $-1 $23 #
shell $-1 $-1 $-1 $44 $-1 $25 #
face $-1 $45 $46 $27 $-1 $47 forward single #
face $-1 $48 $49 $28 $-1 $50 reversed single #
face $-1 $51 $52 $29 $-1 $53 forward single #
face $-1 $54 $55 $30 $-1 $56 reversed single #
face $-1 $57 $58 $31 $-1 $59 forward single #
face $-1 $60 $61 $32 $-1 $62 reversed single #
face $-1 $63 $64 $33 $-1 $65 forward single #
face $-1 $66 $67 $34 $-1 $68 reversed single #
face $-1 $69 $70 $35 $-1 $71 forward single #
face $-1 $72 $73 $27 $-1 $74 reversed single #
loop $-1 $-1 $75 $36 #
plane-surface $-1 0 0 10.12313457432051 0 0 1 1 0 0 forward_v I I I I #
face $-1 $76 $77 $28 $-1 $78 reversed single #
loop $-1 $-1 $79 $37 #
plane-surface $-1 -106.639954014327 -12.872613560415555 54.202367792813739 0 1 0 -0.77714596973225614 0 0.62932038083071107 forward_v I I I I #
face $-1 $80 $81 $29 $-1 $82 forward single #
loop $-1 $83 $84 $38 #
cone-surface $-1 -37.523886670811109 -7.546539291427548 5.2438633433695401 0.77714596973225614 0 -0.62932038083071107 0.9439805712460666 0 1.1657189545983841 1 I I 0 1 1.5 forward I I I I #
face $-1 $85 $86 $30 $-1 $87 reversed single #
loop $-1 $-1 $88 $39 #
plane-surface $-1 -106.639954014327 2.2204650224395355 54.202367792813739 0 1 0 -0.77714596973225614 0 0.62932038083071107 forward_v I I I I #
face $-1 $89 $90 $31 $-1 $91 forward single #
loop $-1 $92 $93 $40 #
cone-surface $-1 -37.523886670811109 7.5465392914275427 5.2438633433695401 0.77714596973225614 0 -0.62932038083071107 0.9439805712460666 0 1.1657189545983841 1 I I 0 1 1.5 forward I I I I #
face $-1 $94 $95 $32 $-1 $96 reversed single #
loop $-1 $-1 $97 $41 #
plane-surface $-1 54.092556878402895 -2.2204650224395408 119.09300084397657 0 -1 0 -0.77714596973225614 0 -0.62932038083071107 forward_v I I I I #
face $-1 $98 $99 $33 $-1 $100 forward single #
loop $-1 $101 $102 $42 #
cone-surface $-1 37.523886670811102 -7.546539291427548 5.2438633433695294 -0.77714596973225614 0 -0.62932038083071107 0.9439805712460666 0 -1.1657189545983841 1 I I 0 1 1.5 forward I I I I #
face $-1 $103 $104 $34 $-1 $105 reversed single #
loop $-1 $-1 $106 $43 #
plane-surface $-1 54.092556878402895 12.87261356041555 119.09300084397657 0 -1 0 -0.77714596973225614 0 -0.62932038083071107 forward_v I I I I #
face $-1 $107 $108 $35 $-1 $109 forward single #
loop $-1 $110 $111 $44 #
cone-surface $-1 37.523886670811102 7.5465392914275427 5.2438633433695294 -0.77714596973225614 0 -0.62932038083071107 0.9439805712460666 0 -1.1657189545983841 1 I I 0 1 1.5 forward I I I I #
face $-1 $112 $113 $27 $-1 $114 reversed single #
loop $-1 $-1 $115 $45 #
plane-surface $-1 0 0 -10.12313457432051 0 0 1 1 0 0 forward_v I I I I #
coedge $-1 $116 $117 $118 $119 forward $46 $-1 #
face $-1 $120 $121 $28 $-1 $122 reversed single #
loop $-1 $-1 $123 $48 #
plane-surface $-1 -41.749320963164166 -7.546539291427548 1.6549706568896241 -0.77714596973225614 0 0.62932038083071107 0.62932038083071107 0 0.77714596973225614 forward_v I I I I #
coedge $-1 $124 $125 $126 $127 reversed $49 $-1 #
face $-1 $-1 $128 $29 $-1 $129 forward single #
loop $-1 $130 $131 $51 #
cone-surface $-1 -36.144284774379614 -7.546539291427548 4.1266837855109877 0.77714596973225614 0 -0.62932038083071107 0.4719902856230333 0 0.58285947729919207 1 I I -0.70710678118654757 0.70710678118654757 0.75 forward I I I I #
loop $-1 $-1 $132 $38 #
coedge $-1 $84 $84 $133 $134 reversed $52 $-1 #
face $-1 $135 $136 $30 $-1 $137 reversed single #
loop $-1 $-1 $138 $54 #
plane-surface $-1 -41.749320963164166 7.5465392914275427 1.6549706568896241 -0.77714596973225614 0 0.62932038083071107 0.62932038083071107 0 0.77714596973225614 forward_v I I I I #
coedge $-1 $139 $140 $141 $142 reversed $55 $-1 #
face $-1 $-1 $143 $31 $-1 $144 forward single #
loop $-1 $145 $146 $57 #
cone-surface $-1 -36.144284774379614 7.5465392914275427 4.1266837855109877 0.77714596973225614 0 -0.62932038083071107 0.4719902856230333 0 0.58285947729919207 1 I I -0.70710678118654757 0.70710678118654757 0.75 forward I I I I #
loop $-1 $-1 $147 $40 #
coedge $-1 $93 $93 $148 $149 reversed $58 $-1 #
face $-1 $150 $151 $32 $-1 $152 reversed single #
loop $-1 $-1 $153 $60 #
plane-surface $-1 -10.798076172759941 -7.546539291427548 66.545603708052454 0.77714596973225614 0 0.62932038083071107 0.62932038083071107 0 -0.77714596973225614 forward_v I I I I #
coedge $-1 $154 $155 $156 $157 reversed $61 $-1 #
face $-1 $-1 $158 $33 $-1 $159 forward single #
loop $-1 $160 $161 $63 #
cone-surface $-1 36.144284774379607 -7.546539291427548 4.126683785510977 -0.77714596973225614 0 -0.62932038083071107 0.4719902856230333 0 -0.58285947729919207 1 I I -0.70710678118654757 0.70710678118654757 0.75 forward I I I I #
loop $-1 $-1 $162 $42 #
coedge $-1 $102 $102 $163 $164 reversed $64 $-1 #
face $-1 $165 $166 $34 $-1 $167 reversed single #
loop $-1 $-1 $168 $66 #
plane-surface $-1 -10.798076172759941 7.5465392914275427 66.545603708052454 0.77714596973225614 0 0.62932038083071107 0.62932038083071107 0 -0.77714596973225614 forward_v I I I I #
coedge $-1 $169 $170 $171 $172 reversed $67 $-1 #
face $-1 $-1 $173 $35 $-1 $174 forward single #
loop $-1 $175 $176 $69 #
cone-surface $-1 36.144284774379607 7.5465392914275427 4.126683785510977 -0.77714596973225614 0 -0.62932038083071107 0.4719902856230333 0 -0.58285947729919207 1 I I -0.70710678118654757 0.70710678118654757 0.75 forward I I I I #
loop $-1 $-1 $177 $44 #
coedge $-1 $111 $111 $178 $179 reversed $70 $-1 #
face $-1 $180 $181 $27 $-1 $182 reversed single #
loop $-1 $-1 $183 $72 #
plane-surface $-1 0 -22.272377852613637 0 0 1 0 0 0 1 forward_v I I I I #
coedge $-1 $184 $185 $186 $187 forward $73 $-1 #
coedge $-1 $188 $75 $189 $190 forward $46 $-1 #
coedge $-1 $75 $188 $191 $192 forward $46 $-1 #
coedge $-1 $193 $194 $75 $119 reversed $195 $-1 #
edge $-1 $196 -22.272377852613637 $197 22.272377852613637 $118 $198 forward 7 unknown #
face $-1 $199 $200 $28 $-1 $201 reversed single #
loop $-1 $-1 $202 $76 #
plane-surface $-1 -106.639954014327 -2.2204650224395408 54.202367792813739 0 -1 0 0.77714596973225614 0 -0.62932038083071107 forward_v I I I I #
coedge $-1 $203 $204 $205 $206 reversed $77 $-1 #
coedge $-1 $125 $79 $207 $208 reversed $49 $-1 #
coedge $-1 $79 $124 $203 $209 reversed $49 $-1 #
coedge $-1 $205 $210 $79 $127 forward $211 $-1 #
edge $-1 $212 11.570656043999342 $213 18.428039790440835 $126 $214 forward 7 unknown #
loop $-1 $-1 $133 $80 #
plane-surface $-1 -41.749320963164166 -7.546539291427548 1.6549706568896241 -0.77714596973225614 0 0.62932038083071107 0.62932038083071107 0 0.77714596973225614 forward_v I I I I #
loop $-1 $-1 $215 $51 #
coedge $-1 $131 $131 $132 $216 reversed $81 $-1 #
coedge $-1 $132 $132 $131 $216 forward $83 $-1 #
coedge $-1 $133 $133 $84 $134 forward $128 $-1 #
edge $-1 $217 0 $217 6.2831853071796004 $133 $218 forward 7 unknown #
face $-1 $219 $220 $30 $-1 $221 forward single #
loop $-1 $-1 $222 $85 #
plane-surface $-1 -106.639954014327 12.87261356041555 54.202367792813739 0 -1 0 0.77714596973225614 0 -0.62932038083071107 forward_v I I I I #
coedge $-1 $223 $224 $225 $226 reversed $86 $-1 #
coedge $-1 $140 $88 $227 $228 reversed $55 $-1 #
coedge $-1 $88 $139 $223 $229 reversed $55 $-1 #
coedge $-1 $225 $230 $88 $142 forward $220 $-1 #
edge $-1 $231 11.570656043999342 $232 18.428039790440835 $141 $233 forward 7 unknown #
loop $-1 $-1 $148 $89 #
plane-surface $-1 -41.749320963164166 7.5465392914275427 1.6549706568896241 -0.77714596973225614 0 0.62932038083071107 0.62932038083071107 0 0.77714596973225614 forward_v I I I I #
loop $-1 $-1 $234 $57 #
coedge $-1 $146 $146 $147 $235 reversed $90 $-1 #
coedge $-1 $147 $147 $146 $235 forward $92 $-1 #
coedge $-1 $148 $148 $93 $149 forward $143 $-1 #
edge $-1 $236 0 $236 6.2831853071796004 $148 $237 forward 7 unknown #
face $-1 $238 $239 $32 $-1 $240 forward single #
loop $-1 $-1 $241 $94 #
plane-surface $-1 54.092556878402895 -12.872613560415555 119.09300084397657 0 1 0 0.77714596973225614 0 0.62932038083071107 forward_v I I I I #
coedge $-1 $242 $243 $244 $245 reversed $95 $-1 #
coedge $-1 $155 $97 $246 $247 reversed $61 $-1 #
coedge $-1 $97 $154 $242 $248 reversed $61 $-1 #
coedge $-1 $244 $249 $97 $157 forward $239 $-1 #
edge $-1 $250 -14.703042523962711 $251 -7.8456587775212192 $156 $252 forward 7 unknown #
loop $-1 $-1 $163 $98 #
plane-surface $-1 -10.798076172759941 -7.546539291427548 66.545603708052454 0.77714596973225614 0 0.62932038083071107 0.62932038083071107 0 -0.77714596973225614 forward_v I I I I #
loop $-1 $-1 $253 $63 #
coedge $-1 $161 $161 $162 $254 reversed $99 $-1 #
coedge $-1 $162 $162 $161 $254 forward $101 $-1 #
coedge $-1 $163 $163 $102 $164 forward $158 $-1 #
edge $-1 $255 0 $255 6.2831853071796004 $163 $256 forward 7 unknown #
face $-1 $257 $258 $34 $-1 $259 reversed single #
loop $-1 $-1 $260 $103 #
plane-surface $-1 54.092556878402895 2.2204650224395355 119.09300084397657 0 1 0 0.77714596973225614 0 0.62932038083071107 forward_v I I I I #
coedge $-1 $261 $262 $263 $264 reversed $104 $-1 #
coedge $-1 $170 $106 $265 $266 reversed $67 $-1 #
coedge $-1 $106 $169 $261 $267 reversed $67 $-1 #
coedge $-1 $263 $268 $106 $172 forward $269 $-1 #
edge $-1 $270 -14.703042523962711 $271 -7.8456587775212192 $171 $272 forward 7 unknown #
loop $-1 $-1 $178 $107 #
plane-surface $-1 -10.798076172759941 7.5465392914275427 66.545603708052454 0.77714596973225614 0 0.62932038083071107 0.62932038083071107 0 -0.77714596973225614 forward_v I I I I #
loop $-1 $-1 $273 $69 #
coedge $-1 $176 $176 $177 $274 reversed $108 $-1 #
coedge $-1 $177 $177 $176 $274 forward $110 $-1 #
coedge $-1 $178 $178 $111 $179 forward $173 $-1 #
edge $-1 $275 0 $275 6.2831853071796004 $178 $276 forward 7 unknown #
face $-1 $277 $278 $27 $-1 $279 reversed single #
loop $-1 $-1 $280 $112 #
plane-surface $-1 -41.749320963164159 0 0 1 0 0 0 0 -1 forward_v I I I I #
coedge $-1 $281 $191 $282 $283 forward $113 $-1 #
coedge $-1 $284 $115 $281 $285 forward $73 $-1 #
coedge $-1 $115 $284 $286 $287 forward $73 $-1 #
coedge $-1 $194 $193 $115 $187 reversed $195 $-1 #
edge $-1 $288 -22.272377852613637 $289 22.272377852613637 $186 $290 forward 7 unknown #
coedge $-1 $117 $116 $291 $292 forward $46 $-1 #
coedge $-1 $293 $294 $116 $190 reversed $278 $-1 #
edge $-1 $197 -41.749320963164159 $295 41.749320963164159 $189 $296 forward 7 unknown #
coedge $-1 $183 $297 $117 $192 reversed $113 $-1 #
edge $-1 $298 -41.749320963164159 $196 41.749320963164159 $191 $299 forward 7 unknown #
coedge $-1 $186 $118 $297 $300 forward $195 $-1 #
coedge $-1 $118 $186 $293 $301 reversed $195 $-1 #
loop $-1 $-1 $193 $277 #
vertex $-1 $119 $302 #
vertex $-1 $119 $303 #
straight-curve $-1 41.749320963164159 0 10.12313457432051 0 1 0 I I #
face $-1 $-1 $211 $28 $-1 $304 forward single #
loop $-1 $-1 $305 $120 #
plane-surface $-1 -41.749320963164159 0 0 1 0 0 0 0 -1 forward_v I I I I #
coedge $-1 $306 $307 $308 $309 reversed $121 $-1 #
coedge $-1 $310 $123 $125 $209 forward $77 $-1 #
coedge $-1 $123 $310 $306 $311 forward $77 $-1 #
coedge $-1 $308 $126 $123 $206 forward $211 $-1 #
edge $-1 $213 -9.0993439147017803 $312 1.5528046232742332 $205 $313 forward 7 unknown #
coedge $-1 $314 $315 $124 $208 forward $200 $-1 #
edge $-1 $316 -25.446213239517235 $212 -16.97804932208636 $207 $317 forward 7 unknown #
edge $-1 $213 -10.896490810276418 $316 -1.1374033043381581e-014 $125 $318 forward 7 unknown #
coedge $-1 $126 $308 $314 $319 forward $211 $-1 #
loop $-1 $-1 $308 $199 #
vertex $-1 $208 $320 #
vertex $-1 $127 $321 #
straight-curve $-1 -53.319977007163502 -12.872613560415555 10.12313457432051 1 0 0 I I #
coedge $-1 $215 $215 $-1 $322 reversed $130 $-1 #
edge $-1 $323 0 $323 6.2831853071796004 $131 $324 forward 7 unknown #
vertex $-1 $134 $325 #
ellipse-curve $-1 -38.320629089943417 -7.546539291427548 5.889052615605066 -0.77714596973225614 0 0.62932038083071107 0.9439805712460666 0 1.1657189545983841 1 I I #
face $-1 $-1 $326 $30 $-1 $327 reversed single #
loop $-1 $-1 $141 $135 #
plane-surface $-1 0 0 10.12313457432051 0 0 1 1 0 0 forward_v I I I I #
coedge $-1 $328 $329 $330 $331 reversed $136 $-1 #
coedge $-1 $332 $138 $140 $229 forward $86 $-1 #
coedge $-1 $138 $332 $328 $333 forward $86 $-1 #
coedge $-1 $330 $141 $138 $226 forward $220 $-1 #
edge $-1 $232 -1.5528046232742359 $334 9.0993439147017785 $225 $335 forward 7 unknown #
coedge $-1 $336 $337 $139 $228 forward $326 $-1 #
edge $-1 $338 -25.446213239517235 $231 -16.97804932208636 $227 $339 forward 7 unknown #
edge $-1 $232 -10.896490810276418 $338 -1.1374033043381581e-014 $140 $340 forward 7 unknown #
coedge $-1 $141 $330 $336 $341 forward $220 $-1 #
vertex $-1 $142 $342 #
vertex $-1 $142 $343 #
straight-curve $-1 -53.319977007163502 2.2204650224395355 10.12313457432051 1 0 0 I I #
coedge $-1 $234 $234 $-1 $344 reversed $145 $-1 #
edge $-1 $345 0 $345 6.2831853071796004 $146 $346 forward 7 unknown #
vertex $-1 $149 $347 #
ellipse-curve $-1 -38.320629089943417 7.5465392914275427 5.889052615605066 -0.77714596973225614 0 0.62932038083071107 0.9439805712460666 0 1.1657189545983841 1 I I #
face $-1 $-1 $348 $32 $-1 $349 reversed single #
loop $-1 $-1 $156 $150 #
plane-surface $-1 0 0 10.12313457432051 0 0 1 1 0 0 forward_v I I I I #
coedge $-1 $350 $351 $352 $353 reversed $151 $-1 #
coedge $-1 $354 $153 $155 $248 forward $95 $-1 #
coedge $-1 $153 $354 $350 $355 forward $95 $-1 #
coedge $-1 $352 $156 $153 $245 forward $239 $-1 #
edge $-1 $251 -1.5528046232742332 $356 9.0993439147017803 $244 $357 forward 7 unknown #
coedge $-1 $358 $359 $154 $247 forward $348 $-1 #
edge $-1 $360 -57.891529765098653 $250 -49.423365847667775 $246 $361 forward 7 unknown #
edge $-1 $251 72.602151116051886 $360 83.498641926328304 $155 $362 forward 7 unknown #
coedge $-1 $156 $352 $358 $363 forward $239 $-1 #
vertex $-1 $247 $364 #
vertex $-1 $157 $365 #
straight-curve $-1 27.046278439201448 -2.2204650224395408 10.12313457432051 -1 0 0 I I #
coedge $-1 $253 $253 $-1 $366 reversed $160 $-1 #
edge $-1 $367 0 $367 6.2831853071796004 $161 $368 forward 7 unknown #
vertex $-1 $164 $369 #
ellipse-curve $-1 38.320629089943424 -7.546539291427548 5.8890526156050669 0.77714596973225614 0 0.62932038083071107 0.9439805712460666 0 -1.1657189545983841 1 I I #
face $-1 $-1 $269 $34 $-1 $370 forward single #
loop $-1 $-1 $371 $165 #
plane-surface $-1 41.749320963164159 0 0 -1 0 0 0 0 1 forward_v I I I I #
coedge $-1 $372 $373 $374 $375 reversed $166 $-1 #
coedge $-1 $376 $168 $170 $267 forward $104 $-1 #
coedge $-1 $168 $376 $372 $377 forward $104 $-1 #
coedge $-1 $374 $171 $168 $264 forward $269 $-1 #
edge $-1 $271 -9.0993439147017785 $378 1.5528046232742359 $263 $379 forward 7 unknown #
coedge $-1 $380 $381 $169 $266 forward $258 $-1 #
edge $-1 $382 -57.891529765098653 $270 -49.423365847667775 $265 $383 forward 7 unknown #
edge $-1 $271 72.602151116051886 $382 83.498641926328304 $170 $384 forward 7 unknown #
coedge $-1 $171 $374 $380 $385 forward $269 $-1 #
loop $-1 $-1 $374 $257 #
vertex $-1 $266 $386 #
vertex $-1 $172 $387 #
straight-curve $-1 27.046278439201448 12.87261356041555 10.12313457432051 -1 0 0 I I #
coedge $-1 $273 $273 $-1 $388 reversed $175 $-1 #
edge $-1 $389 0 $389 6.2831853071796004 $176 $390 forward 7 unknown #
vertex $-1 $179 $391 #
ellipse-curve $-1 38.320629089943424 7.5465392914275427 5.8890526156050669 0.77714596973225614 0 0.62932038083071107 0.9439805712460666 0 -1.1657189545983841 1 I I #
face $-1 $-1 $195 $27 $-1 $392 reversed single #
loop $-1 $-1 $293 $180 #
plane-surface $-1 0 22.272377852613637 0 0 -1 0 0 0 -1 forward_v I I I I #
coedge $-1 $393 $291 $294 $394 forward $181 $-1 #
coedge $-1 $297 $183 $184 $285 reversed $113 $-1 #
coedge $-1 $291 $393 $183 $283 reversed $181 $-1 #
edge $-1 $298 -10.12313457432051 $395 10.12313457432051 $282 $396 forward 7 unknown #
coedge $-1 $185 $184 $393 $397 forward $73 $-1 #
edge $-1 $289 -41.749320963164159 $395 41.749320963164159 $281 $398 forward 7 unknown #
coedge $-1 $294 $293 $185 $287 reversed $278 $-1 #
edge $-1 $399 -41.749320963164159 $288 41.749320963164159 $286 $400 forward 7 unknown #
vertex $-1 $187 $401 #
vertex $-1 $300 $402 #
straight-curve $-1 41.749320963164159 0 -10.12313457432051 0 -1 0 I I #
coedge $-1 $280 $282 $188 $292 reversed $181 $-1 #
edge $-1 $295 -22.272377852613637 $298 22.272377852613637 $291 $403 forward 7 unknown #
coedge $-1 $286 $189 $194 $301 forward $278 $-1 #
coedge $-1 $189 $286 $280 $394 reversed $278 $-1 #
vertex $-1 $190 $404 #
straight-curve $-1 0 22.272377852613637 10.12313457432051 -1 0 0 I I #
coedge $-1 $191 $281 $193 $300 reversed $113 $-1 #
vertex $-1 $292 $405 #
straight-curve $-1 0 -22.272377852613637 10.12313457432051 1 0 0 I I #
edge $-1 $196 -10.12313457432051 $289 10.12313457432051 $193 $406 forward 7 unknown #
edge $-1 $197 -10.12313457432051 $288 10.12313457432051 $194 $407 forward 7 unknown #
point $-1 41.749320963164159 -22.272377852613637 10.12313457432051 #
point $-1 41.749320963164159 22.272377852613637 10.12313457432051 #
plane-surface $-1 0 0 10.12313457432051 0 0 1 1 0 0 forward_v I I I I #
coedge $-1 $315 $314 $307 $408 forward $200 $-1 #
coedge $-1 $307 $202 $204 $311 reversed $121 $-1 #
coedge $-1 $202 $306 $305 $408 reversed $121 $-1 #
coedge $-1 $210 $205 $202 $309 forward $211 $-1 #
edge $-1 $312 -18.428039790440835 $409 -11.570656043999342 $308 $410 forward 7 unknown #
coedge $-1 $204 $203 $315 $411 reversed $77 $-1 #
edge $-1 $412 1.1374033043381581e-014 $312 10.896490810276418 $306 $413 forward 7 unknown #
vertex $-1 $206 $414 #
straight-curve $-1 -34.891937216722667 -3.773269645713774 10.12313457432051 0 1 0 I I #
coedge $-1 $305 $207 $210 $319 reversed $200 $-1 #
coedge $-1 $207 $305 $310 $411 forward $200 $-1 #
vertex $-1 $208 $415 #
straight-curve $-1 -41.749320963164159 -12.872613560415555 27.101183896406869 0 0 1 I I #
straight-curve $-1 -41.749320963164166 -12.872613560415555 1.6549706568896241 -0.62932038083071107 0 -0.77714596973225614 I I #
edge $-1 $409 2.2204650224395408 $212 12.872613560415555 $314 $416 forward 7 unknown #
point $-1 -41.749320963164159 -12.872613560415555 10.12313457432051 #
point $-1 -34.891937216722667 -12.872613560415555 10.12313457432051 #
edge $-1 $417 1 $417 0 $215 $-1 forward 7 unknown #
vertex $-1 $216 $418 #
ellipse-curve $-1 -36.727144251678808 -7.546539291427548 4.5986740711340213 -0.77714596973225614 0 0.62932038083071107 0.9439805712460666 0 1.1657189545983841 1 I I #
point $-1 -37.376648518697344 -7.546539291427548 7.054771570203445 #
loop $-1 $-1 $227 $219 #
plane-surface $-1 -41.749320963164159 0 0 1 0 0 0 0 -1 forward_v I I I I #
coedge $-1 $329 $222 $224 $333 reversed $136 $-1 #
coedge $-1 $222 $328 $419 $420 reversed $136 $-1 #
coedge $-1 $230 $225 $222 $331 forward $220 $-1 #
edge $-1 $334 -18.428039790440835 $421 -11.570656043999342 $330 $422 forward 7 unknown #
coedge $-1 $224 $223 $337 $423 reversed $86 $-1 #
edge $-1 $424 1.1374033043381581e-014 $334 10.896490810276418 $328 $425 forward 7 unknown #
vertex $-1 $226 $426 #
straight-curve $-1 -34.891937216722667 3.7732696457137713 10.12313457432051 0 1 0 I I #
coedge $-1 $419 $227 $230 $341 reversed $326 $-1 #
coedge $-1 $227 $419 $332 $423 forward $326 $-1 #
vertex $-1 $228 $427 #
straight-curve $-1 -41.749320963164159 2.2204650224395355 27.101183896406869 0 0 1 I I #
straight-curve $-1 -41.749320963164166 2.2204650224395355 1.6549706568896241 -0.62932038083071107 0 -0.77714596973225614 I I #
edge $-1 $421 -12.87261356041555 $231 -2.2204650224395355 $336 $428 forward 7 unknown #
point $-1 -41.749320963164159 2.2204650224395355 10.12313457432051 #
point $-1 -34.891937216722667 2.2204650224395355 10.12313457432051 #
edge $-1 $429 1 $429 0 $234 $-1 forward 7 unknown #
vertex $-1 $235 $430 #
ellipse-curve $-1 -36.727144251678808 7.5465392914275427 4.5986740711340213 -0.77714596973225614 0 0.62932038083071107 0.9439805712460666 0 1.1657189545983841 1 I I #
point $-1 -37.376648518697344 7.5465392914275427 7.054771570203445 #
loop $-1 $-1 $246 $238 #
plane-surface $-1 41.749320963164159 0 0 -1 0 0 0 0 1 forward_v I I I I #
coedge $-1 $351 $241 $243 $355 reversed $151 $-1 #
coedge $-1 $241 $350 $431 $432 reversed $151 $-1 #
coedge $-1 $249 $244 $241 $353 forward $239 $-1 #
edge $-1 $356 7.8456587775212192 $433 14.703042523962711 $352 $434 forward 7 unknown #
coedge $-1 $243 $242 $359 $435 reversed $95 $-1 #
edge $-1 $436 -83.498641926328304 $356 -72.602151116051886 $350 $437 forward 7 unknown #
vertex $-1 $245 $438 #
straight-curve $-1 34.891937216722667 -3.773269645713774 10.12313457432051 0 -1 0 I I #
coedge $-1 $431 $246 $249 $363 reversed $348 $-1 #
coedge $-1 $246 $431 $354 $435 forward $348 $-1 #
vertex $-1 $247 $439 #
straight-curve $-1 41.749320963164159 -2.2204650224395408 59.546500421988284 0 0 1 I I #
straight-curve $-1 -10.798076172759941 -2.2204650224395408 66.545603708052454 0.62932038083071107 0 -0.77714596973225614 I I #
edge $-1 $433 -12.872613560415555 $250 -2.2204650224395408 $358 $440 forward 7 unknown #
point $-1 41.749320963164159 -2.2204650224395408 10.12313457432051 #
point $-1 34.891937216722667 -2.2204650224395408 10.12313457432051 #
edge $-1 $441 1 $441 0 $253 $-1 forward 7 unknown #
vertex $-1 $254 $442 #
ellipse-curve $-1 36.727144251678801 -7.546539291427548 4.5986740711340106 0.77714596973225614 0 0.62932038083071107 0.9439805712460666 0 -1.1657189545983841 1 I I #
point $-1 39.264609661189468 -7.546539291427548 4.7233336610066656 #
plane-surface $-1 0 0 10.12313457432051 0 0 1 1 0 0 forward_v I I I I #
coedge $-1 $381 $380 $373 $443 forward $258 $-1 #
coedge $-1 $373 $260 $262 $377 reversed $166 $-1 #
coedge $-1 $260 $372 $371 $443 reversed $166 $-1 #
coedge $-1 $268 $263 $260 $375 forward $269 $-1 #
edge $-1 $378 7.8456587775212192 $444 14.703042523962711 $374 $445 forward 7 unknown #
coedge $-1 $262 $261 $381 $446 reversed $104 $-1 #
edge $-1 $447 -83.498641926328304 $378 -72.602151116051886 $372 $448 forward 7 unknown #
vertex $-1 $264 $449 #
straight-curve $-1 34.891937216722667 3.7732696457137713 10.12313457432051 0 -1 0 I I #
coedge $-1 $371 $265 $268 $385 reversed $258 $-1 #
coedge $-1 $265 $371 $376 $446 forward $258 $-1 #
vertex $-1 $266 $450 #
straight-curve $-1 41.749320963164159 12.87261356041555 59.546500421988284 0 0 1 I I #
straight-curve $-1 -10.798076172759941 12.87261356041555 66.545603708052454 0.62932038083071107 0 -0.77714596973225614 I I #
edge $-1 $444 2.2204650224395355 $270 12.87261356041555 $380 $451 forward 7 unknown #
point $-1 41.749320963164159 12.87261356041555 10.12313457432051 #
point $-1 34.891937216722667 12.87261356041555 10.12313457432051 #
edge $-1 $452 1 $452 0 $273 $-1 forward 7 unknown #
vertex $-1 $274 $453 #
ellipse-curve $-1 36.727144251678801 7.5465392914275427 4.5986740711340106 0.77714596973225614 0 0.62932038083071107 0.9439805712460666 0 -1.1657189545983841 1 I I #
point $-1 39.264609661189468 7.5465392914275427 4.7233336610066656 #
plane-surface $-1 41.749320963164159 0 0 -1 0 0 0 0 1 forward_v I I I I #
coedge $-1 $282 $280 $284 $397 reversed $181 $-1 #
edge $-1 $295 -10.12313457432051 $399 10.12313457432051 $294 $454 forward 7 unknown #
vertex $-1 $397 $455 #
straight-curve $-1 -41.749320963164159 -22.272377852613637 0 0 0 -1 I I #
edge $-1 $395 -22.272377852613637 $399 22.272377852613637 $393 $456 forward 7 unknown #
straight-curve $-1 0 -22.272377852613637 -10.12313457432051 -1 0 0 I I #
vertex $-1 $287 $457 #
straight-curve $-1 0 22.272377852613637 -10.12313457432051 1 0 0 I I #
point $-1 41.749320963164159 22.272377852613637 -10.12313457432051 #
point $-1 41.749320963164159 -22.272377852613637 -10.12313457432051 #
straight-curve $-1 -41.749320963164159 0 10.12313457432051 0 -1 0 I I #
point $-1 -41.749320963164159 22.272377852613637 10.12313457432051 #
point $-1 -41.749320963164159 -22.272377852613637 10.12313457432051 #
straight-curve $-1 41.749320963164159 -22.272377852613637 0 0 0 -1 I I #
straight-curve $-1 41.749320963164159 22.272377852613637 0 0 0 -1 I I #
edge $-1 $409 16.97804932208636 $412 25.446213239517235 $305 $458 forward 7 unknown #
vertex $-1 $319 $459 #
straight-curve $-1 -53.319977007163502 -2.2204650224395408 10.12313457432051 -1 0 0 I I #
edge $-1 $412 -1.5528046232742332 $316 9.0993439147017803 $315 $460 forward 7 unknown #
vertex $-1 $411 $461 #
straight-curve $-1 -41.749320963164166 -2.2204650224395408 1.6549706568896241 0.62932038083071107 0 0.77714596973225614 I I #
point $-1 -34.891937216722667 -2.2204650224395408 10.12313457432051 #
point $-1 -41.749320963164159 -12.872613560415555 1.654970656889633 #
straight-curve $-1 -41.749320963164159 0 10.12313457432051 0 -1 0 I I #
vertex $-1 $322 $462 #
point $-1 -35.783163680432736 -7.546539291427548 5.7643930257324048 #
coedge $-1 $337 $336 $329 $420 forward $326 $-1 #
edge $-1 $421 16.97804932208636 $424 25.446213239517235 $419 $463 forward 7 unknown #
vertex $-1 $341 $464 #
straight-curve $-1 -53.319977007163502 12.87261356041555 10.12313457432051 -1 0 0 I I #
edge $-1 $424 -9.0993439147017785 $338 1.5528046232742359 $337 $465 forward 7 unknown #
vertex $-1 $423 $466 #
straight-curve $-1 -41.749320963164166 12.87261356041555 1.6549706568896241 0.62932038083071107 0 0.77714596973225614 I I #
point $-1 -34.891937216722667 12.87261356041555 10.12313457432051 #
point $-1 -41.749320963164159 2.2204650224395355 1.654970656889633 #
straight-curve $-1 -41.749320963164159 0 10.12313457432051 0 -1 0 I I #
vertex $-1 $344 $467 #
point $-1 -35.783163680432736 7.5465392914275427 5.7643930257324048 #
coedge $-1 $359 $358 $351 $432 forward $348 $-1 #
edge $-1 $433 49.423365847667775 $436 57.891529765098653 $431 $468 forward 7 unknown #
vertex $-1 $363 $469 #
straight-curve $-1 27.046278439201448 -12.872613560415555 10.12313457432051 1 0 0 I I #
edge $-1 $436 -9.0993439147017803 $360 1.5528046232742332 $359 $470 forward 7 unknown #
vertex $-1 $435 $471 #
straight-curve $-1 -10.798076172759941 -12.872613560415555 66.545603708052454 -0.62932038083071107 0 0.77714596973225614 I I #
point $-1 34.891937216722667 -12.872613560415555 10.12313457432051 #
point $-1 41.749320963164159 -2.2204650224395408 1.6549706568896312 #
straight-curve $-1 41.749320963164159 0 10.12313457432051 0 1 0 I I #
vertex $-1 $366 $472 #
point $-1 37.671124822924867 -7.546539291427548 3.4329551165356262 #
edge $-1 $444 49.423365847667775 $447 57.891529765098653 $371 $473 forward 7 unknown #
vertex $-1 $385 $474 #
straight-curve $-1 27.046278439201448 2.2204650224395355 10.12313457432051 1 0 0 I I #
edge $-1 $447 -1.5528046232742359 $382 9.0993439147017785 $381 $475 forward 7 unknown #
vertex $-1 $446 $476 #
straight-curve $-1 -10.798076172759941 2.2204650224395355 66.545603708052454 -0.62932038083071107 0 0.77714596973225614 I I #
point $-1 34.891937216722667 2.2204650224395355 10.12313457432051 #
point $-1 41.749320963164159 12.87261356041555 1.6549706568896312 #
straight-curve $-1 41.749320963164159 0 10.12313457432051 0 1 0 I I #
vertex $-1 $388 $477 #
point $-1 37.671124822924867 7.5465392914275427 3.4329551165356262 #
straight-curve $-1 -41.749320963164159 22.272377852613637 0 0 0 -1 I I #
point $-1 -41.749320963164159 -22.272377852613637 -10.12313457432051 #
straight-curve $-1 -41.749320963164159 0 -10.12313457432051 0 1 0 I I #
point $-1 -41.749320963164159 22.272377852613637 -10.12313457432051 #
straight-curve $-1 -41.749320963164159 -2.2204650224395408 27.101183896406869 0 0 -1 I I #
point $-1 -41.749320963164159 -2.2204650224395408 10.12313457432051 #
straight-curve $-1 -41.749320963164159 -3.773269645713774 1.6549706568896403 0 -1 0 I I #
point $-1 -41.749320963164159 -2.2204650224395408 1.654970656889633 #
point $-1 -35.561425297080419 -7.546539291427548 3.6546934998879546 #
straight-curve $-1 -41.749320963164159 12.87261356041555 27.101183896406869 0 0 -1 I I #
point $-1 -41.749320963164159 12.87261356041555 10.12313457432051 #
straight-curve $-1 -41.749320963164159 3.7732696457137713 1.6549706568896403 0 -1 0 I I #
point $-1 -41.749320963164159 12.87261356041555 1.654970656889633 #
point $-1 -35.561425297080419 7.5465392914275427 3.6546934998879546 #
straight-curve $-1 41.749320963164159 -12.872613560415555 59.546500421988284 0 0 -1 I I #
point $-1 41.749320963164159 -12.872613560415555 10.12313457432051 #
straight-curve $-1 41.749320963164159 -3.773269645713774 1.6549706568896383 0 1 0 I I #
point $-1 41.749320963164159 -12.872613560415555 1.6549706568896312 #
point $-1 35.561425297080412 -7.546539291427548 3.6546934998879439 #
straight-curve $-1 41.749320963164159 2.2204650224395355 59.546500421988284 0 0 -1 I I #
point $-1 41.749320963164159 2.2204650224395355 10.12313457432051 #
straight-curve $-1 41.749320963164159 3.7732696457137713 1.6549706568896383 0 1 0 I I #
point $-1 41.749320963164159 2.2204650224395355 1.6549706568896312 #
point $-1 35.561425297080412 7.5465392914275427 3.6546934998879439 #
End-of-ACIS-data 