500 0 6 0           
7 Unknown 11 ACIS 5.0 NT 24 Fri Mar 26 02:14:30 1999 
-1 9.9999999999999995e-007 1e-010 
body $-1 $6 $-1 $7 #
body $-1 $8 $-1 $9 #
body $-1 $10 $-1 $11 #
body $-1 $12 $-1 $13 #
body $-1 $14 $-1 $15 #
body $-1 $16 $-1 $17 #
lump $-1 $-1 $18 $0 #
transform $-1 1 0 0 0 1 0 0 0 1 44.968413342692344 31.067002076638012 11.969238795614293 1 rotate no_reflect no_shear #
lump $-1 $-1 $19 $1 #
transform $-1 1 0 0 0 1 0 0 0 1 44.968413342692344 31.067002076638012 11.969238795614293 1 rotate no_reflect no_shear #
lump $-1 $-1 $20 $2 #
transform $-1 1 0 0 0 1 0 0 0 1 44.968413342692344 31.067002076638012 11.969238795614293 1 rotate no_reflect no_shear #
lump $-1 $-1 $21 $3 #
transform $-1 1 0 0 0 1 0 0 0 1 44.968413342692344 31.067002076638012 11.969238795614293 1 rotate no_reflect no_shear #
lump $-1 $-1 $22 $4 #
transform $-1 1 0 0 0 1 0 0 0 1 44.968413342692344 31.067002076638012 11.969238795614293 1 rotate no_reflect no_shear #
lump $-1 $-1 $23 $5 #
transform $-1 1 0 0 0 1 0 0 0 1 44.968413342692344 31.067002076638012 11.969238795614293 1 rotate no_reflect no_shear #
shell $-1 $-1 $-1 $24 $-1 $6 #
shell $-1 $-1 $-1 $25 $-1 $8 #
shell $-1 $-1 $-1 $26 $-1 $10 #
shell $-1 $-1 $-1 $27 $-1 $12 #
shell $-1 $-1 $-1 $28 $-1 $14 #
shell $-1 $-1 $-1 $29 $-1 $16 #
face $-1 $30 $31 $18 $-1 $32 forward single #
face $-1 $33 $34 $19 $-1 $35 forward single #
face $-1 $36 $37 $20 $-1 $38 forward single #
face $-1 $39 $40 $21 $-1 $41 reversed single #
face $-1 $42 $43 $22 $-1 $44 forward single #
face $-1 $45 $46 $23 $-1 $47 forward single #
face $-1 $48 $49 $18 $-1 $50 reversed single #
loop $-1 $-1 $51 $24 #
plane-surface $-1 0 0 11.969238795614293 0 0 1 1 0 0 forward_v I I I I #
face $-1 $52 $53 $19 $-1 $54 reversed single #
loop $-1 $-1 $55 $25 #
plane-surface $-1 0 -27.032049564420014 4.3866606236744028 0 0 1 1 0 0 forward_v I I I I #
face $-1 $56 $57 $20 $-1 $58 reversed single #
loop $-1 $-1 $59 $26 #
plane-surface $-1 0 27.032049564420014 4.3866606236744028 0 0 1 1 0 0 forward_v I I I I #
face $-1 $60 $61 $21 $-1 $62 reversed single #
loop $-1 $-1 $63 $27 #
plane-surface $-1 -92.627670996568042 -2.577450047502607 78.76277213537081 0 -1 0 0.52991927123019833 0 -0.84804809178421925 forward_v I I I I #
face $-1 $64 $65 $22 $-1 $66 forward single #
loop $-1 $67 $68 $28 #
cone-surface $-1 -36.068966223071634 -12.071602133212764 5.1244515871546987 0.52991927123019833 0 -0.84804809178421925 1.2720721376763289 0 0.79487890684529749 1 I I 0 1 1.5 forward I I I I #
face $-1 $69 $70 $23 $-1 $71 forward single #
loop $-1 $72 $73 $29 #
cone-surface $-1 -36.068966223071634 -6.3751108817866715 5.1244515871546987 0.52991927123019833 0 -0.84804809178421925 1.2720721376763289 0 0.79487890684529749 1 I I 0 1 1.5 forward I I I I #
face $-1 $74 $75 $18 $-1 $76 reversed single #
loop $-1 $-1 $77 $30 #
plane-surface $-1 0 0 -11.969238795614293 0 0 1 1 0 0 forward_v I I I I #
coedge $-1 $78 $79 $80 $81 forward $31 $-1 #
face $-1 $82 $83 $19 $-1 $84 reversed single #
loop $-1 $-1 $85 $33 #
plane-surface $-1 0 -27.032049564420014 -1.0212129281781133 0 0 1 1 0 0 forward_v I I I I #
coedge $-1 $86 $87 $88 $89 reversed $34 $-1 #
face $-1 $90 $91 $20 $-1 $92 reversed single #
loop $-1 $-1 $93 $36 #
plane-surface $-1 0 27.032049564420014 -1.0212129281781133 0 0 1 1 0 0 forward_v I I I I #
coedge $-1 $94 $95 $96 $97 reversed $37 $-1 #
face $-1 $98 $99 $21 $-1 $100 reversed single #
loop $-1 $-1 $101 $39 #
plane-surface $-1 -44.968413342692337 -9.2233565074997159 2.4920178837022746 -0.52991927123019833 0 0.84804809178421925 0.84804809178421925 0 0.52991927123019833 forward_v I I I I #
coedge $-1 $102 $103 $104 $105 reversed $40 $-1 #
face $-1 $-1 $106 $22 $-1 $107 forward single #
loop $-1 $108 $109 $42 #
cone-surface $-1 -34.355441443142908 -12.071602133212764 2.3822387658129465 0.52991927123019833 0 -0.84804809178421925 0.63603606883816444 0 0.39743945342264875 1 I I -0.70710678118654768 0.70710678118654735 0.75 forward I I I I #
loop $-1 $-1 $110 $28 #
coedge $-1 $68 $68 $111 $112 reversed $43 $-1 #
face $-1 $-1 $113 $23 $-1 $114 forward single #
loop $-1 $115 $116 $45 #
cone-surface $-1 -34.355441443142908 -6.3751108817866715 2.3822387658129465 0.52991927123019833 0 -0.84804809178421925 0.63603606883816444 0 0.39743945342264875 1 I I -0.70710678118654768 0.70710678118654735 0.75 forward I I I I #
loop $-1 $-1 $117 $29 #
coedge $-1 $73 $73 $118 $119 reversed $46 $-1 #
face $-1 $120 $121 $18 $-1 $122 reversed single #
loop $-1 $-1 $123 $48 #
plane-surface $-1 0 -31.067002076638012 0 0 1 0 0 0 1 forward_v I I I I #
coedge $-1 $124 $125 $126 $127 forward $49 $-1 #
coedge $-1 $128 $51 $129 $130 forward $31 $-1 #
coedge $-1 $51 $128 $131 $132 forward $31 $-1 #
coedge $-1 $133 $134 $51 $81 reversed $135 $-1 #
edge $-1 $136 -31.067002076638012 $137 31.067002076638012 $80 $138 forward 7 unknown #
face $-1 $139 $140 $19 $-1 $141 reversed single #
loop $-1 $-1 $142 $52 #
plane-surface $-1 0 -22.997097052202015 1.6827238477481448 0 -1 0 0 0 -1 forward_v I I I I #
coedge $-1 $143 $144 $145 $146 reversed $53 $-1 #
coedge $-1 $147 $55 $148 $149 forward $34 $-1 #
coedge $-1 $55 $147 $150 $151 reversed $34 $-1 #
coedge $-1 $152 $153 $55 $89 forward $154 $-1 #
edge $-1 $155 9.4810722699920085 $156 17.550977294428005 $88 $157 forward 7 unknown #
face $-1 $158 $159 $20 $-1 $160 reversed single #
loop $-1 $-1 $161 $56 #
plane-surface $-1 0 22.997097052202015 1.6827238477481448 0 1 0 0 0 1 forward_v I I I I #
coedge $-1 $162 $163 $164 $165 reversed $57 $-1 #
coedge $-1 $166 $59 $167 $168 reversed $37 $-1 #
coedge $-1 $59 $166 $169 $170 forward $37 $-1 #
coedge $-1 $171 $172 $59 $97 forward $159 $-1 #
edge $-1 $173 -17.550977294428005 $174 -9.4810722699920085 $96 $175 forward 7 unknown #
face $-1 $176 $177 $21 $-1 $178 reversed single #
loop $-1 $-1 $179 $60 #
plane-surface $-1 -92.627670996568042 -15.869262967496825 78.76277213537081 0 1 0 -0.52991927123019833 0 0.84804809178421925 forward_v I I I I #
coedge $-1 $180 $181 $182 $183 reversed $61 $-1 #
coedge $-1 $103 $63 $184 $185 reversed $40 $-1 #
coedge $-1 $63 $102 $180 $186 reversed $40 $-1 #
coedge $-1 $182 $187 $63 $105 forward $177 $-1 #
edge $-1 $188 27.41214727207111 $189 36.889368183983137 $104 $190 forward 7 unknown #
loop $-1 $-1 $111 $64 #
plane-surface $-1 -44.968413342692337 -9.2233565074997159 2.4920178837022746 -0.52991927123019833 0 0.84804809178421925 0.84804809178421925 0 0.52991927123019833 forward_v I I I I #
loop $-1 $-1 $191 $42 #
coedge $-1 $109 $109 $110 $192 reversed $65 $-1 #
coedge $-1 $110 $110 $109 $192 forward $67 $-1 #
coedge $-1 $111 $111 $68 $112 forward $106 $-1 #
edge $-1 $193 0 $193 6.2831853071796004 $111 $194 forward 7 unknown #
loop $-1 $-1 $118 $69 #
plane-surface $-1 -44.968413342692337 -9.2233565074997159 2.4920178837022746 -0.52991927123019833 0 0.84804809178421925 0.84804809178421925 0 0.52991927123019833 forward_v I I I I #
loop $-1 $-1 $195 $45 #
coedge $-1 $116 $116 $117 $196 reversed $70 $-1 #
coedge $-1 $117 $117 $116 $196 forward $72 $-1 #
coedge $-1 $118 $118 $73 $119 forward $113 $-1 #
edge $-1 $197 0 $197 6.2831853071796004 $118 $198 forward 7 unknown #
face $-1 $199 $200 $18 $-1 $201 reversed single #
loop $-1 $-1 $202 $74 #
plane-surface $-1 -44.968413342692344 0 0 1 0 0 0 0 -1 forward_v I I I I #
coedge $-1 $203 $131 $204 $205 forward $75 $-1 #
coedge $-1 $206 $77 $203 $207 forward $49 $-1 #
coedge $-1 $77 $206 $208 $209 forward $49 $-1 #
coedge $-1 $134 $133 $77 $127 reversed $135 $-1 #
edge $-1 $210 -31.067002076638012 $211 31.067002076638012 $126 $212 forward 7 unknown #
coedge $-1 $79 $78 $213 $214 forward $31 $-1 #
coedge $-1 $215 $216 $78 $130 reversed $200 $-1 #
edge $-1 $137 -44.968413342692344 $217 44.968413342692344 $129 $218 forward 7 unknown #
coedge $-1 $123 $219 $79 $132 reversed $75 $-1 #
edge $-1 $220 -44.968413342692344 $136 44.968413342692344 $131 $221 forward 7 unknown #
coedge $-1 $126 $80 $219 $222 forward $135 $-1 #
coedge $-1 $80 $126 $215 $223 reversed $135 $-1 #
loop $-1 $-1 $133 $199 #
vertex $-1 $81 $224 #
vertex $-1 $81 $225 #
straight-curve $-1 44.968413342692344 0 11.969238795614293 0 1 0 I I #
face $-1 $226 $227 $19 $-1 $228 reversed single #
loop $-1 $-1 $229 $82 #
plane-surface $-1 -44.968413342692344 0 0 1 0 0 0 0 -1 forward_v I I I I #
coedge $-1 $230 $148 $153 $231 reversed $83 $-1 #
coedge $-1 $232 $85 $233 $234 reversed $53 $-1 #
coedge $-1 $85 $232 $230 $235 forward $53 $-1 #
coedge $-1 $153 $152 $85 $146 forward $154 $-1 #
edge $-1 $236 -17.550977294428005 $237 -9.4810722699920085 $145 $238 forward 7 unknown #
coedge $-1 $87 $86 $229 $239 reversed $34 $-1 #
coedge $-1 $142 $240 $86 $149 reversed $83 $-1 #
edge $-1 $155 -44.968413342692344 $241 44.968413342692344 $148 $242 forward 7 unknown #
coedge $-1 $243 $244 $87 $151 forward $227 $-1 #
edge $-1 $156 -44.968413342692344 $245 44.968413342692344 $150 $246 forward 7 unknown #
coedge $-1 $145 $88 $244 $247 forward $154 $-1 #
coedge $-1 $88 $145 $142 $231 forward $154 $-1 #
loop $-1 $-1 $88 $226 #
vertex $-1 $89 $248 #
vertex $-1 $247 $249 #
straight-curve $-1 44.968413342692344 -13.516024782210007 4.3866606236744028 0 -1 0 I I #
face $-1 $250 $251 $20 $-1 $252 reversed single #
loop $-1 $-1 $96 $90 #
plane-surface $-1 44.968413342692344 0 0 -1 0 0 0 0 1 forward_v I I I I #
coedge $-1 $253 $169 $254 $255 reversed $91 $-1 #
coedge $-1 $256 $93 $253 $257 forward $57 $-1 #
coedge $-1 $93 $256 $258 $259 reversed $57 $-1 #
coedge $-1 $172 $171 $93 $165 forward $159 $-1 #
edge $-1 $260 9.4810722699920085 $261 17.550977294428005 $164 $262 forward 7 unknown #
coedge $-1 $95 $94 $263 $264 reversed $37 $-1 #
coedge $-1 $265 $266 $94 $168 forward $267 $-1 #
edge $-1 $268 -44.968413342692344 $173 44.968413342692344 $167 $269 forward 7 unknown #
coedge $-1 $161 $270 $95 $170 reversed $91 $-1 #
edge $-1 $271 -44.968413342692344 $174 44.968413342692344 $169 $272 forward 7 unknown #
coedge $-1 $164 $96 $270 $273 forward $159 $-1 #
coedge $-1 $96 $164 $265 $274 reversed $159 $-1 #
vertex $-1 $274 $275 #
vertex $-1 $97 $276 #
straight-curve $-1 44.968413342692344 13.516024782210007 4.3866606236744028 0 -1 0 I I #
face $-1 $-1 $277 $21 $-1 $278 forward single #
loop $-1 $-1 $104 $98 #
plane-surface $-1 -44.968413342692344 0 0 1 0 0 0 0 -1 forward_v I I I I #
coedge $-1 $279 $280 $281 $282 reversed $99 $-1 #
coedge $-1 $283 $101 $103 $186 forward $61 $-1 #
coedge $-1 $101 $283 $279 $284 forward $61 $-1 #
coedge $-1 $281 $104 $101 $183 forward $177 $-1 #
edge $-1 $189 -2.034228206247251 $285 11.257584713746967 $182 $286 forward 7 unknown #
coedge $-1 $287 $288 $102 $185 forward $277 $-1 #
edge $-1 $289 -16.512145741820976 $188 -1.3454221555916774 $184 $290 forward 7 unknown #
edge $-1 $189 -8.3790584163743152e-015 $289 17.884272994848473 $103 $291 forward 7 unknown #
coedge $-1 $104 $281 $287 $292 reversed $177 $-1 #
vertex $-1 $292 $293 #
vertex $-1 $105 $294 #
straight-curve $-1 -44.968413342692344 -2.577450047502607 39.381386067685405 0 0 -1 I I #
coedge $-1 $191 $191 $-1 $295 reversed $108 $-1 #
edge $-1 $296 0 $296 6.2831853071796004 $109 $297 forward 7 unknown #
vertex $-1 $112 $298 #
ellipse-curve $-1 -37.385051549577703 -12.071602133212764 7.2306283396582778 -0.52991927123019833 0 0.84804809178421925 1.2720721376763289 0 0.79487890684529749 1 I I #
coedge $-1 $195 $195 $-1 $299 reversed $115 $-1 #
edge $-1 $300 0 $300 6.2831853071796004 $116 $301 forward 7 unknown #
vertex $-1 $119 $302 #
ellipse-curve $-1 -37.385051549577703 -6.3751108817866715 7.2306283396582778 -0.52991927123019833 0 0.84804809178421925 1.2720721376763289 0 0.79487890684529749 1 I I #
face $-1 $-1 $135 $18 $-1 $303 reversed single #
loop $-1 $-1 $215 $120 #
plane-surface $-1 0 31.067002076638012 0 0 -1 0 0 0 -1 forward_v I I I I #
coedge $-1 $304 $213 $216 $305 forward $121 $-1 #
coedge $-1 $219 $123 $124 $207 reversed $75 $-1 #
coedge $-1 $213 $304 $123 $205 reversed $121 $-1 #
edge $-1 $220 -11.969238795614293 $306 11.969238795614293 $204 $307 forward 7 unknown #
coedge $-1 $125 $124 $304 $308 forward $49 $-1 #
edge $-1 $211 -44.968413342692344 $306 44.968413342692344 $203 $309 forward 7 unknown #
coedge $-1 $216 $215 $125 $209 reversed $200 $-1 #
edge $-1 $310 -44.968413342692344 $210 44.968413342692344 $208 $311 forward 7 unknown #
vertex $-1 $127 $312 #
vertex $-1 $222 $313 #
straight-curve $-1 44.968413342692344 0 -11.969238795614293 0 -1 0 I I #
coedge $-1 $202 $204 $128 $214 reversed $121 $-1 #
edge $-1 $217 -31.067002076638012 $220 31.067002076638012 $213 $314 forward 7 unknown #
coedge $-1 $208 $129 $134 $223 forward $200 $-1 #
coedge $-1 $129 $208 $202 $305 reversed $200 $-1 #
vertex $-1 $130 $315 #
straight-curve $-1 0 31.067002076638012 11.969238795614293 -1 0 0 I I #
coedge $-1 $131 $203 $133 $222 reversed $75 $-1 #
vertex $-1 $214 $316 #
straight-curve $-1 0 -31.067002076638012 11.969238795614293 1 0 0 I I #
edge $-1 $136 -11.969238795614293 $211 11.969238795614293 $133 $317 forward 7 unknown #
edge $-1 $137 -11.969238795614293 $210 11.969238795614293 $134 $318 forward 7 unknown #
point $-1 44.968413342692344 -31.067002076638012 11.969238795614293 #
point $-1 44.968413342692344 31.067002076638012 11.969238795614293 #
face $-1 $-1 $154 $19 $-1 $319 reversed single #
loop $-1 $-1 $150 $139 #
plane-surface $-1 0 -31.067002076638012 0 0 1 0 0 0 1 forward_v I I I I #
coedge $-1 $320 $321 $147 $239 forward $140 $-1 #
coedge $-1 $240 $142 $144 $235 reversed $83 $-1 #
edge $-1 $237 -1.8625748520521856 $155 3.5452986998003304 $153 $322 forward 7 unknown #
coedge $-1 $144 $143 $323 $324 reversed $53 $-1 #
coedge $-1 $244 $243 $143 $234 forward $227 $-1 #
edge $-1 $325 -44.968413342692344 $236 44.968413342692344 $233 $326 forward 7 unknown #
edge $-1 $327 -44.968413342692344 $237 44.968413342692344 $230 $328 forward 7 unknown #
vertex $-1 $234 $329 #
vertex $-1 $146 $330 #
straight-curve $-1 44.968413342692344 -13.516024782210007 -1.0212129281781133 0 1 0 I I #
edge $-1 $245 -17.550977294428005 $241 -9.4810722699920085 $229 $331 forward 7 unknown #
coedge $-1 $148 $230 $320 $332 reversed $83 $-1 #
vertex $-1 $239 $333 #
straight-curve $-1 0 -22.997097052202015 4.3866606236744028 -1 0 0 I I #
coedge $-1 $233 $150 $321 $334 forward $227 $-1 #
coedge $-1 $150 $233 $152 $247 reversed $227 $-1 #
vertex $-1 $334 $335 #
straight-curve $-1 0 -31.067002076638012 4.3866606236744028 -1 0 0 I I #
edge $-1 $156 -4.3866606236744028 $236 1.0212129281781133 $152 $336 forward 7 unknown #
point $-1 44.968413342692344 -22.997097052202015 4.3866606236744028 #
point $-1 44.968413342692344 -31.067002076638012 4.3866606236744028 #
face $-1 $-1 $267 $20 $-1 $337 reversed single #
loop $-1 $-1 $263 $158 #
plane-surface $-1 -44.968413342692344 0 0 1 0 0 0 0 -1 forward_v I I I I #
coedge $-1 $270 $161 $162 $257 reversed $91 $-1 #
coedge $-1 $263 $338 $161 $255 forward $251 $-1 #
edge $-1 $339 -1.8625748520521856 $271 3.5452986998003304 $254 $340 forward 7 unknown #
coedge $-1 $163 $162 $338 $341 reversed $57 $-1 #
edge $-1 $260 -44.968413342692344 $339 44.968413342692344 $253 $342 forward 7 unknown #
coedge $-1 $266 $265 $163 $259 forward $267 $-1 #
edge $-1 $261 -44.968413342692344 $343 44.968413342692344 $258 $344 forward 7 unknown #
vertex $-1 $165 $345 #
vertex $-1 $259 $346 #
straight-curve $-1 44.968413342692344 13.516024782210007 -1.0212129281781133 0 1 0 I I #
coedge $-1 $347 $254 $166 $264 forward $251 $-1 #
edge $-1 $271 9.4810722699920085 $268 17.550977294428005 $263 $348 forward 7 unknown #
coedge $-1 $258 $167 $172 $274 forward $267 $-1 #
coedge $-1 $167 $258 $347 $349 reversed $267 $-1 #
loop $-1 $-1 $167 $250 #
vertex $-1 $349 $350 #
straight-curve $-1 0 31.067002076638012 4.3866606236744028 1 0 0 I I #
coedge $-1 $169 $253 $171 $273 reversed $91 $-1 #
vertex $-1 $264 $351 #
straight-curve $-1 0 22.997097052202015 4.3866606236744028 1 0 0 I I #
edge $-1 $174 -3.5452986998003304 $260 1.8625748520521856 $171 $352 forward 7 unknown #
edge $-1 $173 -4.3866606236744028 $261 1.0212129281781133 $172 $353 forward 7 unknown #
point $-1 44.968413342692344 31.067002076638012 4.3866606236744028 #
point $-1 44.968413342692344 22.997097052202015 4.3866606236744028 #
loop $-1 $-1 $184 $176 #
plane-surface $-1 0 0 11.969238795614293 0 0 1 1 0 0 forward_v I I I I #
coedge $-1 $280 $179 $181 $284 reversed $99 $-1 #
coedge $-1 $179 $279 $354 $355 reversed $99 $-1 #
coedge $-1 $187 $182 $179 $282 forward $177 $-1 #
edge $-1 $285 -36.889368183983137 $356 -27.41214727207111 $281 $357 forward 7 unknown #
coedge $-1 $181 $180 $288 $358 reversed $61 $-1 #
edge $-1 $359 -17.884272994848473 $285 8.3790584163743152e-015 $279 $360 forward 7 unknown #
vertex $-1 $183 $361 #
straight-curve $-1 -44.968413342692344 -4.611678253749858 2.4920178837022715 0 -1 0 I I #
coedge $-1 $354 $184 $187 $292 forward $277 $-1 #
coedge $-1 $184 $354 $283 $358 forward $277 $-1 #
vertex $-1 $185 $362 #
straight-curve $-1 -46.313835498284021 -2.577450047502607 11.969238795614295 -1 0 0 I I #
straight-curve $-1 -44.968413342692337 -2.577450047502607 2.4920178837022746 0.84804809178421925 0 0.52991927123019833 I I #
edge $-1 $188 2.577450047502607 $356 15.869262967496825 $187 $363 forward 7 unknown #
point $-1 -44.968413342692344 -2.577450047502607 11.969238795614293 #
point $-1 -44.968413342692344 -2.577450047502607 2.4920178837022702 #
edge $-1 $364 1 $364 0 $191 $-1 forward 7 unknown #
vertex $-1 $192 $365 #
ellipse-curve $-1 -34.752880896565557 -12.071602133212764 3.0182748346511108 -0.52991927123019833 0 0.84804809178421925 1.2720721376763289 0 0.79487890684529749 1 I I #
point $-1 -36.112979411901378 -12.071602133212764 8.025507246503583 #
edge $-1 $366 1 $366 0 $195 $-1 forward 7 unknown #
vertex $-1 $196 $367 #
ellipse-curve $-1 -34.752880896565557 -6.3751108817866715 3.0182748346511108 -0.52991927123019833 0 0.84804809178421925 1.2720721376763289 0 0.79487890684529749 1 I I #
point $-1 -36.112979411901378 -6.3751108817866715 8.025507246503583 #
plane-surface $-1 44.968413342692344 0 0 -1 0 0 0 0 1 forward_v I I I I #
coedge $-1 $204 $202 $206 $308 reversed $121 $-1 #
edge $-1 $217 -11.969238795614293 $310 11.969238795614293 $216 $368 forward 7 unknown #
vertex $-1 $308 $369 #
straight-curve $-1 -44.968413342692344 -31.067002076638012 0 0 0 -1 I I #
edge $-1 $306 -31.067002076638012 $310 31.067002076638012 $304 $370 forward 7 unknown #
straight-curve $-1 0 -31.067002076638012 -11.969238795614293 -1 0 0 I I #
vertex $-1 $209 $371 #
straight-curve $-1 0 31.067002076638012 -11.969238795614293 1 0 0 I I #
point $-1 44.968413342692344 31.067002076638012 -11.969238795614293 #
point $-1 44.968413342692344 -31.067002076638012 -11.969238795614293 #
straight-curve $-1 -44.968413342692344 0 11.969238795614293 0 -1 0 I I #
point $-1 -44.968413342692344 31.067002076638012 11.969238795614293 #
point $-1 -44.968413342692344 -31.067002076638012 11.969238795614293 #
straight-curve $-1 44.968413342692344 -31.067002076638012 0 0 0 -1 I I #
straight-curve $-1 44.968413342692344 31.067002076638012 0 0 0 -1 I I #
plane-surface $-1 44.968413342692344 0 0 -1 0 0 0 0 1 forward_v I I I I #
coedge $-1 $323 $229 $240 $332 forward $140 $-1 #
coedge $-1 $229 $323 $243 $334 reversed $140 $-1 #
straight-curve $-1 44.968413342692344 -22.997097052202015 0.84136192387407238 0 0 1 I I #
coedge $-1 $321 $320 $232 $324 forward $140 $-1 #
edge $-1 $327 9.4810722699920085 $325 17.550977294428005 $323 $372 forward 7 unknown #
vertex $-1 $234 $373 #
straight-curve $-1 0 -31.067002076638012 -1.0212129281781133 1 0 0 I I #
vertex $-1 $324 $374 #
straight-curve $-1 0 -22.997097052202015 -1.0212129281781133 1 0 0 I I #
point $-1 44.968413342692344 -31.067002076638012 -1.0212129281781133 #
point $-1 44.968413342692344 -22.997097052202015 -1.0212129281781133 #
straight-curve $-1 -44.968413342692344 -13.516024782210007 4.3866606236744028 0 1 0 I I #
edge $-1 $241 -3.5452986998003304 $327 1.8625748520521856 $320 $375 forward 7 unknown #
point $-1 -44.968413342692344 -22.997097052202015 4.3866606236744028 #
edge $-1 $245 -4.3866606236744028 $325 1.0212129281781133 $321 $376 forward 7 unknown #
point $-1 -44.968413342692344 -31.067002076638012 4.3866606236744028 #
straight-curve $-1 44.968413342692344 -31.067002076638012 0 0 0 -1 I I #
plane-surface $-1 0 31.067002076638012 0 0 -1 0 0 0 -1 forward_v I I I I #
coedge $-1 $254 $347 $256 $341 forward $251 $-1 #
vertex $-1 $341 $377 #
straight-curve $-1 -44.968413342692344 22.997097052202015 0.84136192387407238 0 0 1 I I #
edge $-1 $343 -17.550977294428005 $339 -9.4810722699920085 $338 $378 forward 7 unknown #
straight-curve $-1 0 22.997097052202015 -1.0212129281781133 -1 0 0 I I #
vertex $-1 $259 $379 #
straight-curve $-1 0 31.067002076638012 -1.0212129281781133 -1 0 0 I I #
point $-1 44.968413342692344 22.997097052202015 -1.0212129281781133 #
point $-1 44.968413342692344 31.067002076638012 -1.0212129281781133 #
coedge $-1 $338 $263 $266 $349 forward $251 $-1 #
straight-curve $-1 -44.968413342692344 13.516024782210007 4.3866606236744028 0 1 0 I I #
edge $-1 $268 -4.3866606236744028 $343 1.0212129281781133 $266 $380 forward 7 unknown #
point $-1 -44.968413342692344 31.067002076638012 4.3866606236744028 #
point $-1 -44.968413342692344 22.997097052202015 4.3866606236744028 #
straight-curve $-1 44.968413342692344 22.997097052202015 0.84136192387407238 0 0 -1 I I #
straight-curve $-1 44.968413342692344 31.067002076638012 0 0 0 -1 I I #
coedge $-1 $288 $287 $280 $355 forward $277 $-1 #
edge $-1 $356 1.3454221555916774 $359 16.512145741820976 $354 $381 forward 7 unknown #
vertex $-1 $355 $382 #
straight-curve $-1 -44.968413342692344 -15.869262967496825 39.381386067685405 0 0 1 I I #
edge $-1 $359 -11.257584713746967 $289 2.034228206247251 $288 $383 forward 7 unknown #
vertex $-1 $358 $384 #
straight-curve $-1 -44.968413342692337 -15.869262967496825 2.4920178837022746 -0.84804809178421925 0 -0.52991927123019833 I I #
point $-1 -44.968413342692344 -15.869262967496825 2.4920178837022702 #
point $-1 -29.801689756463045 -2.577450047502607 11.969238795614293 #
straight-curve $-1 -44.968413342692344 0 11.969238795614293 0 -1 0 I I #
vertex $-1 $295 $385 #
point $-1 -33.480808758889225 -12.071602133212764 3.8131537414964081 #
vertex $-1 $299 $386 #
point $-1 -33.480808758889225 -6.3751108817866715 3.8131537414964081 #
straight-curve $-1 -44.968413342692344 31.067002076638012 0 0 0 -1 I I #
point $-1 -44.968413342692344 -31.067002076638012 -11.969238795614293 #
straight-curve $-1 -44.968413342692344 0 -11.969238795614293 0 1 0 I I #
point $-1 -44.968413342692344 31.067002076638012 -11.969238795614293 #
straight-curve $-1 -44.968413342692344 -13.516024782210007 -1.0212129281781133 0 -1 0 I I #
point $-1 -44.968413342692344 -31.067002076638012 -1.0212129281781133 #
point $-1 -44.968413342692344 -22.997097052202015 -1.0212129281781133 #
straight-curve $-1 -44.968413342692344 -22.997097052202015 0.84136192387407238 0 0 -1 I I #
straight-curve $-1 -44.968413342692344 -31.067002076638012 0 0 0 -1 I I #
point $-1 -44.968413342692344 22.997097052202015 -1.0212129281781133 #
straight-curve $-1 -44.968413342692344 13.516024782210007 -1.0212129281781133 0 -1 0 I I #
point $-1 -44.968413342692344 31.067002076638012 -1.0212129281781133 #
straight-curve $-1 -44.968413342692344 31.067002076638012 0 0 0 -1 I I #
straight-curve $-1 -46.313835498284021 -15.869262967496825 11.969238795614295 1 0 0 I I #
point $-1 -44.968413342692344 -15.869262967496825 11.969238795614293 #
straight-curve $-1 -29.801689756463045 -4.611678253749858 11.969238795614293 0 1 0 I I #
point $-1 -29.801689756463045 -15.869262967496825 11.969238795614293 #
point $-1 -33.958001989720259 -12.071602133212764 1.7462026969747824 #
point $-1 -33.958001989720259 -6.3751108817866715 1.7462026969747824 #
End-of-ACIS-data 