500 0 10 0           
7 Unknown 11 ACIS 5.0 NT 24 Fri Mar 26 18:55:47 1999 
-1 9.9999999999999995e-007 1e-010 
body $-1 $10 $-1 $11 #
body $-1 $12 $-1 $13 #
body $-1 $14 $-1 $15 #
body $-1 $16 $-1 $17 #
body $-1 $18 $-1 $19 #
body $-1 $20 $-1 $21 #
body $-1 $22 $-1 $23 #
body $-1 $24 $-1 $25 #
body $-1 $26 $-1 $27 #
body $-1 $28 $-1 $29 #
lump $-1 $-1 $30 $0 #
transform $-1 1 0 0 0 1 0 0 0 1 41.877498702963351 25.790696007444378 10.443394019457815 1 rotate no_reflect no_shear #
lump $-1 $-1 $31 $1 #
transform $-1 1 0 0 0 1 0 0 0 1 41.877498702963351 25.790696007444378 10.443394019457815 1 rotate no_reflect no_shear #
lump $-1 $-1 $32 $2 #
transform $-1 1 0 0 0 1 0 0 0 1 41.877498702963351 25.790696007444378 10.443394019457815 1 rotate no_reflect no_shear #
lump $-1 $-1 $33 $3 #
transform $-1 1 0 0 0 1 0 0 0 1 41.877498702963351 25.790696007444378 10.443394019457815 1 rotate no_reflect no_shear #
lump $-1 $-1 $34 $4 #
transform $-1 1 0 0 0 1 0 0 0 1 41.877498702963351 25.790696007444378 10.443394019457815 1 rotate no_reflect no_shear #
lump $-1 $-1 $35 $5 #
transform $-1 1 0 0 0 1 0 0 0 1 41.877498702963351 25.790696007444378 10.443394019457815 1 rotate no_reflect no_shear #
lump $-1 $-1 $36 $6 #
transform $-1 1 0 0 0 1 0 0 0 1 41.877498702963351 25.790696007444378 10.443394019457815 1 rotate no_reflect no_shear #
lump $-1 $-1 $37 $7 #
transform $-1 1 0 0 0 1 0 0 0 1 41.877498702963351 25.790696007444378 10.443394019457815 1 rotate no_reflect no_shear #
lump $-1 $-1 $38 $8 #
transform $-1 1 0 0 0 1 0 0 0 1 41.877498702963351 25.790696007444378 10.443394019457815 1 rotate no_reflect no_shear #
lump $-1 $-1 $39 $9 #
transform $-1 1 0 0 0 1 0 0 0 1 41.877498702963351 25.790696007444378 10.443394019457815 1 rotate no_reflect no_shear #
shell $-1 $-1 $-1 $40 $-1 $10 #
shell $-1 $-1 $-1 $41 $-1 $12 #
shell $-1 $-1 $-1 $42 $-1 $14 #
shell $-1 $-1 $-1 $43 $-1 $16 #
shell $-1 $-1 $-1 $44 $-1 $18 #
shell $-1 $-1 $-1 $45 $-1 $20 #
shell $-1 $-1 $-1 $46 $-1 $22 #
shell $-1 $-1 $-1 $47 $-1 $24 #
shell $-1 $-1 $-1 $48 $-1 $26 #
shell $-1 $-1 $-1 $49 $-1 $28 #
face $-1 $50 $51 $30 $-1 $52 reversed single #
face $-1 $53 $54 $31 $-1 $55 forward single #
face $-1 $56 $57 $32 $-1 $58 reversed single #
face $-1 $59 $60 $33 $-1 $61 forward single #
face $-1 $62 $63 $34 $-1 $64 forward single #
face $-1 $65 $66 $35 $-1 $67 reversed single #
face $-1 $68 $69 $36 $-1 $70 forward single #
face $-1 $71 $72 $37 $-1 $73 forward single #
face $-1 $74 $75 $38 $-1 $76 reversed single #
face $-1 $77 $78 $39 $-1 $79 forward single #
face $-1 $80 $81 $30 $-1 $82 forward single #
loop $-1 $-1 $83 $40 #
plane-surface $-1 -41.877498702963351 0 0 1 0 0 0 0 -1 forward_v I I I I #
face $-1 $84 $85 $31 $-1 $86 reversed single #
loop $-1 $-1 $87 $41 #
plane-surface $-1 -41.877498702963351 0 0 1 0 0 0 0 -1 forward_v I I I I #
face $-1 $88 $89 $32 $-1 $90 reversed single #
loop $-1 $-1 $91 $42 #
plane-surface $-1 -12.583447803804507 -85.014423318583184 61.836535104966586 -1 0 0 0 -0.70710678939079041 0.70710677298230451 forward_v I I I I #
face $-1 $92 $93 $33 $-1 $94 forward single #
loop $-1 $95 $96 $43 #
cone-surface $-1 -24.508616630920415 -21.163624846742504 5.8163227844180794 0 0.70710678939079041 -0.70710677298230451 1.5 0 0 1 I I 0 1 1.5 forward I I I I #
face $-1 $97 $98 $34 $-1 $99 forward single #
loop $-1 $100 $101 $44 #
cone-surface $-1 -17.353515334650869 -21.163624846742504 5.8163227844180794 0 0.70710678939079041 -0.70710677298230451 1.5 0 0 1 I I 0 1 1.5 forward I I I I #
face $-1 $102 $103 $35 $-1 $104 reversed single #
loop $-1 $-1 $105 $45 #
plane-surface $-1 37.321745322705311 -85.014423318583184 61.836535104966586 -1 0 0 0 -0.70710678939079041 0.70710677298230451 forward_v I I I I #
face $-1 $106 $107 $36 $-1 $108 forward single #
loop $-1 $109 $110 $46 #
cone-surface $-1 25.396576495589414 -21.163624846742504 5.8163227844180794 0 0.70710678939079041 -0.70710677298230451 1.5 0 0 1 I I 0 1 1.5 forward I I I I #
face $-1 $111 $112 $37 $-1 $113 forward single #
loop $-1 $114 $115 $47 #
cone-surface $-1 32.55167779185895 -21.163624846742504 5.8163227844180794 0 0.70710678939079041 -0.70710677298230451 1.5 0 0 1 I I 0 1 1.5 forward I I I I #
face $-1 $116 $117 $38 $-1 $118 reversed single #
loop $-1 $-1 $119 $48 #
plane-surface $-1 21.882125837481194 33.290426465245247 102.86837501752501 1 0 0 0 -0.5877852598018023 -0.80901698891910034 forward_v I I I I #
face $-1 $120 $121 $39 $-1 $122 forward single #
loop $-1 $123 $124 $49 #
cone-surface $-1 31.879812270222274 21.25022909348823 6.722083292795765 0 -0.5877852598018023 -0.80901698891910034 1.5 0 0 1 I I 0 1 1.5 forward I I I I #
face $-1 $125 $126 $30 $-1 $127 reversed single #
loop $-1 $-1 $128 $50 #
plane-surface $-1 0 0 10.443394019457815 0 0 1 1 0 0 forward_v I I I I #
coedge $-1 $129 $130 $131 $132 reversed $51 $-1 #
face $-1 $133 $134 $31 $-1 $135 reversed single #
loop $-1 $-1 $136 $53 #
plane-surface $-1 0 0 -10.443394019457815 0 0 1 1 0 0 forward_v I I I I #
coedge $-1 $137 $138 $139 $140 forward $54 $-1 #
face $-1 $141 $142 $32 $-1 $143 reversed single #
loop $-1 $-1 $144 $56 #
plane-surface $-1 -20.931065982785643 -25.790696007444375 2.6128091681204708 0 -0.70710678939079041 0.70710677298230451 1 0 0 forward_v I I I I #
coedge $-1 $145 $146 $147 $148 reversed $57 $-1 #
face $-1 $-1 $149 $33 $-1 $150 forward single #
loop $-1 $151 $152 $59 #
cone-surface $-1 -24.508616630920415 -19.921515928811441 4.5742138953102813 0 0.70710678939079041 -0.70710677298230451 0.75 0 0 1 I I -0.70710678118654757 0.70710678118654757 0.75 forward I I I I #
loop $-1 $-1 $153 $43 #
coedge $-1 $96 $96 $154 $155 reversed $60 $-1 #
face $-1 $-1 $156 $34 $-1 $157 forward single #
loop $-1 $158 $159 $62 #
cone-surface $-1 -17.353515334650869 -19.921515928811441 4.5742138953102813 0 0.70710678939079041 -0.70710677298230451 0.75 0 0 1 I I -0.70710678118654757 0.70710678118654757 0.75 forward I I I I #
loop $-1 $-1 $160 $44 #
coedge $-1 $101 $101 $161 $162 reversed $63 $-1 #
face $-1 $163 $164 $35 $-1 $165 reversed single #
loop $-1 $-1 $166 $65 #
plane-surface $-1 28.974127143724175 -25.790696007444375 2.6128091681204708 0 -0.70710678939079041 0.70710677298230451 1 0 0 forward_v I I I I #
coedge $-1 $167 $168 $169 $170 reversed $66 $-1 #
face $-1 $-1 $171 $36 $-1 $172 forward single #
loop $-1 $173 $174 $68 #
cone-surface $-1 25.396576495589414 -19.921515928811441 4.5742138953102813 0 0.70710678939079041 -0.70710677298230451 0.75 0 0 1 I I -0.70710678118654757 0.70710678118654757 0.75 forward I I I I #
loop $-1 $-1 $175 $46 #
coedge $-1 $110 $110 $176 $177 reversed $69 $-1 #
face $-1 $-1 $178 $37 $-1 $179 forward single #
loop $-1 $180 $181 $71 #
cone-surface $-1 32.55167779185895 -19.921515928811441 4.5742138953102813 0 0.70710678939079041 -0.70710677298230451 0.75 0 0 1 I I -0.70710678118654757 0.70710678118654757 0.75 forward I I I I #
loop $-1 $-1 $182 $47 #
coedge $-1 $115 $115 $183 $184 reversed $72 $-1 #
face $-1 $185 $186 $38 $-1 $187 reversed single #
loop $-1 $-1 $188 $74 #
plane-surface $-1 31.879812270222274 -15.939526444696654 35.109159209255125 0 0.5877852598018023 0.80901698891910034 1 0 0 forward_v I I I I #
coedge $-1 $189 $190 $191 $192 reversed $75 $-1 #
face $-1 $-1 $193 $39 $-1 $194 forward single #
loop $-1 $195 $196 $77 #
cone-surface $-1 31.879812270222274 20.159278161176719 5.2205181827507285 0 -0.5877852598018023 -0.80901698891910034 0.75 0 0 1 I I -0.70710678118654757 0.70710678118654757 0.75 forward I I I I #
loop $-1 $-1 $197 $49 #
coedge $-1 $124 $124 $198 $199 reversed $78 $-1 #
face $-1 $200 $201 $30 $-1 $202 reversed single #
loop $-1 $-1 $203 $80 #
plane-surface $-1 0 0 -10.443394019457815 0 0 1 1 0 0 forward_v I I I I #
coedge $-1 $204 $205 $206 $207 forward $81 $-1 #
coedge $-1 $208 $83 $209 $210 reversed $51 $-1 #
coedge $-1 $83 $208 $211 $212 forward $51 $-1 #
coedge $-1 $213 $214 $83 $132 forward $126 $-1 #
edge $-1 $215 -25.790696007444378 $216 25.790696007444378 $83 $217 forward 7 unknown #
face $-1 $218 $219 $31 $-1 $220 reversed single #
loop $-1 $-1 $221 $84 #
plane-surface $-1 -45.899029283432611 -13.83487363651234 0 0 1 0 0 0 1 forward_v I I I I #
coedge $-1 $222 $223 $138 $224 forward $85 $-1 #
coedge $-1 $225 $87 $226 $227 reversed $54 $-1 #
coedge $-1 $87 $225 $136 $224 reversed $54 $-1 #
coedge $-1 $228 $229 $87 $140 reversed $230 $-1 #
edge $-1 $231 -10.443394019457815 $232 10.443394019457815 $139 $233 forward 7 unknown #
face $-1 $234 $235 $32 $-1 $236 forward single #
loop $-1 $-1 $237 $88 #
plane-surface $-1 -29.27868416176678 -85.014423318583184 61.836535104966586 1 0 0 0 0.70710678939079041 -0.70710677298230451 forward_v I I I I #
coedge $-1 $238 $239 $240 $241 reversed $89 $-1 #
coedge $-1 $146 $91 $242 $243 reversed $57 $-1 #
coedge $-1 $91 $145 $238 $244 reversed $57 $-1 #
coedge $-1 $240 $245 $91 $148 forward $235 $-1 #
edge $-1 $246 16.716515651847214 $247 24.547100321475035 $147 $248 forward 7 unknown #
loop $-1 $-1 $154 $92 #
plane-surface $-1 -20.931065982785643 -25.790696007444375 2.6128091681204708 0 -0.70710678939079041 0.70710677298230451 1 0 0 forward_v I I I I #
loop $-1 $-1 $249 $59 #
coedge $-1 $152 $152 $153 $250 reversed $93 $-1 #
coedge $-1 $153 $153 $152 $250 forward $95 $-1 #
coedge $-1 $154 $154 $96 $155 forward $149 $-1 #
edge $-1 $251 7.772620265355633e-023 $251 6.2831853071796004 $154 $252 forward 7 unknown #
loop $-1 $-1 $161 $97 #
plane-surface $-1 -20.931065982785643 -25.790696007444375 2.6128091681204708 0 -0.70710678939079041 0.70710677298230451 1 0 0 forward_v I I I I #
loop $-1 $-1 $253 $62 #
coedge $-1 $159 $159 $160 $254 reversed $98 $-1 #
coedge $-1 $160 $160 $159 $254 forward $100 $-1 #
coedge $-1 $161 $161 $101 $162 forward $156 $-1 #
edge $-1 $255 7.772620265355633e-023 $255 6.2831853071796004 $161 $256 forward 7 unknown #
face $-1 $257 $258 $35 $-1 $259 reversed single #
loop $-1 $-1 $260 $102 #
plane-surface $-1 20.626508964743039 -85.014423318583184 61.836535104966586 1 0 0 0 0.70710678939079041 -0.70710677298230451 forward_v I I I I #
coedge $-1 $261 $262 $263 $264 reversed $103 $-1 #
coedge $-1 $168 $105 $265 $266 reversed $66 $-1 #
coedge $-1 $105 $167 $261 $267 reversed $66 $-1 #
coedge $-1 $263 $268 $105 $170 forward $269 $-1 #
edge $-1 $270 16.716515651847214 $271 24.547100321475035 $169 $272 forward 7 unknown #
loop $-1 $-1 $176 $106 #
plane-surface $-1 28.974127143724175 -25.790696007444375 2.6128091681204708 0 -0.70710678939079041 0.70710677298230451 1 0 0 forward_v I I I I #
loop $-1 $-1 $273 $68 #
coedge $-1 $174 $174 $175 $274 reversed $107 $-1 #
coedge $-1 $175 $175 $174 $274 forward $109 $-1 #
coedge $-1 $176 $176 $110 $177 forward $171 $-1 #
edge $-1 $275 7.772620265355633e-023 $275 6.2831853071796004 $176 $276 forward 7 unknown #
loop $-1 $-1 $183 $111 #
plane-surface $-1 28.974127143724175 -25.790696007444375 2.6128091681204708 0 -0.70710678939079041 0.70710677298230451 1 0 0 forward_v I I I I #
loop $-1 $-1 $277 $71 #
coedge $-1 $181 $181 $182 $278 reversed $112 $-1 #
coedge $-1 $182 $182 $181 $278 forward $114 $-1 #
coedge $-1 $183 $183 $115 $184 forward $178 $-1 #
edge $-1 $279 7.772620265355633e-023 $279 6.2831853071796004 $183 $280 forward 7 unknown #
face $-1 $281 $282 $38 $-1 $283 forward single #
loop $-1 $-1 $284 $116 #
plane-surface $-1 0 25.790696007444378 0 0 -1 0 0 0 -1 forward_v I I I I #
coedge $-1 $285 $286 $287 $288 reversed $117 $-1 #
coedge $-1 $190 $119 $289 $290 reversed $75 $-1 #
coedge $-1 $119 $189 $285 $291 reversed $75 $-1 #
coedge $-1 $287 $292 $119 $192 forward $282 $-1 #
edge $-1 $293 -9.1454827748217546 $294 -1.3647729218297684 $191 $295 forward 7 unknown #
loop $-1 $-1 $198 $120 #
plane-surface $-1 31.879812270222274 -15.939526444696654 35.109159209255125 0 0.5877852598018023 0.80901698891910034 1 0 0 forward_v I I I I #
loop $-1 $-1 $296 $77 #
coedge $-1 $196 $196 $197 $297 reversed $121 $-1 #
coedge $-1 $197 $197 $196 $297 forward $123 $-1 #
coedge $-1 $198 $198 $124 $199 forward $193 $-1 #
edge $-1 $298 -1.5642507392153615e-015 $298 6.2831853071795987 $198 $299 forward 7 unknown #
face $-1 $300 $301 $30 $-1 $302 reversed single #
loop $-1 $-1 $209 $125 #
plane-surface $-1 0 -25.790696007444378 0 0 1 0 0 0 1 forward_v I I I I #
coedge $-1 $214 $213 $303 $304 forward $126 $-1 #
coedge $-1 $305 $128 $306 $307 forward $81 $-1 #
coedge $-1 $128 $305 $308 $309 forward $81 $-1 #
coedge $-1 $310 $311 $128 $207 reversed $312 $-1 #
edge $-1 $313 -25.790696007444378 $314 25.790696007444378 $206 $315 forward 7 unknown #
coedge $-1 $130 $129 $305 $316 reversed $51 $-1 #
coedge $-1 $317 $308 $129 $210 forward $201 $-1 #
edge $-1 $318 -10.443394019457815 $215 10.443394019457815 $129 $319 forward 7 unknown #
coedge $-1 $306 $320 $130 $212 reversed $301 $-1 #
edge $-1 $321 -10.443394019457815 $216 10.443394019457815 $211 $322 forward 7 unknown #
coedge $-1 $203 $131 $320 $323 forward $126 $-1 #
coedge $-1 $131 $203 $317 $324 forward $126 $-1 #
vertex $-1 $132 $325 #
vertex $-1 $323 $326 #
straight-curve $-1 -41.877498702963351 0 -10.443394019457815 0 1 0 I I #
face $-1 $327 $230 $31 $-1 $328 reversed single #
loop $-1 $-1 $329 $133 #
plane-surface $-1 -49.920559863901872 -12.33487363651234 0 1 0 0 0 0 -1 forward_v I I I I #
coedge $-1 $330 $331 $332 $333 forward $134 $-1 #
coedge $-1 $334 $136 $330 $335 forward $85 $-1 #
coedge $-1 $136 $334 $228 $336 forward $85 $-1 #
edge $-1 $231 10.83487363651234 $337 13.83487363651234 $136 $338 forward 7 unknown #
coedge $-1 $138 $137 $339 $340 forward $54 $-1 #
coedge $-1 $341 $342 $137 $227 forward $343 $-1 #
edge $-1 $344 -13.83487363651234 $232 -10.83487363651234 $226 $345 forward 7 unknown #
coedge $-1 $346 $139 $223 $336 reversed $230 $-1 #
coedge $-1 $139 $346 $341 $347 reversed $230 $-1 #
loop $-1 $-1 $139 $218 #
vertex $-1 $224 $348 #
vertex $-1 $347 $349 #
straight-curve $-1 -41.877498702963351 -10.83487363651234 0 0 0 1 I I #
face $-1 $-1 $350 $32 $-1 $351 reversed single #
loop $-1 $-1 $147 $141 #
plane-surface $-1 0 0 10.443394019457815 0 0 1 1 0 0 forward_v I I I I #
coedge $-1 $352 $353 $354 $355 reversed $142 $-1 #
coedge $-1 $356 $144 $146 $244 forward $89 $-1 #
coedge $-1 $144 $356 $352 $357 forward $89 $-1 #
coedge $-1 $354 $147 $144 $241 forward $235 $-1 #
edge $-1 $247 2.1179148124116853 $358 18.813151170373956 $240 $359 forward 7 unknown #
coedge $-1 $360 $361 $145 $243 forward $350 $-1 #
edge $-1 $362 -28.305458384362826 $246 -20.47487353302548 $242 $363 forward 7 unknown #
edge $-1 $247 -11.074119169586545 $362 5.0242958677880813e-015 $146 $364 forward 7 unknown #
coedge $-1 $147 $354 $360 $365 forward $235 $-1 #
vertex $-1 $148 $366 #
vertex $-1 $148 $367 #
straight-curve $-1 -12.583447803804507 -42.507211659291592 10.443394019457813 0 1 0 I I #
coedge $-1 $249 $249 $-1 $368 reversed $151 $-1 #
edge $-1 $369 0 $369 6.2831853071796004 $152 $370 forward 7 unknown #
vertex $-1 $155 $371 #
ellipse-curve $-1 -24.508616630920415 -21.875403672630469 6.5281015937891418 0 -0.70710678939079041 0.70710677298230451 1.5 0 0 1 I I #
coedge $-1 $253 $253 $-1 $372 reversed $158 $-1 #
edge $-1 $373 0 $373 6.2831853071796004 $159 $374 forward 7 unknown #
vertex $-1 $162 $375 #
ellipse-curve $-1 -17.353515334650869 -21.875403672630469 6.5281015937891418 0 -0.70710678939079041 0.70710677298230451 1.5 0 0 1 I I #
face $-1 $-1 $269 $35 $-1 $376 forward single #
loop $-1 $-1 $377 $163 #
plane-surface $-1 0 -25.790696007444378 0 0 1 0 0 0 1 forward_v I I I I #
coedge $-1 $378 $379 $380 $381 reversed $164 $-1 #
coedge $-1 $382 $166 $168 $267 forward $103 $-1 #
coedge $-1 $166 $382 $378 $383 forward $103 $-1 #
coedge $-1 $380 $169 $166 $264 forward $269 $-1 #
edge $-1 $271 -22.834681750843224 $384 -6.1394453928809511 $263 $385 forward 7 unknown #
coedge $-1 $386 $387 $167 $266 forward $258 $-1 #
edge $-1 $388 -28.305458384362826 $270 -20.47487353302548 $265 $389 forward 7 unknown #
edge $-1 $271 -11.074119169586545 $388 5.0242958677880813e-015 $168 $390 forward 7 unknown #
coedge $-1 $169 $380 $386 $391 forward $269 $-1 #
loop $-1 $-1 $380 $257 #
vertex $-1 $266 $392 #
vertex $-1 $170 $393 #
straight-curve $-1 37.321745322705311 -42.507211659291592 10.443394019457813 0 1 0 I I #
coedge $-1 $273 $273 $-1 $394 reversed $173 $-1 #
edge $-1 $395 0 $395 6.2831853071796004 $174 $396 forward 7 unknown #
vertex $-1 $177 $397 #
ellipse-curve $-1 25.396576495589414 -21.875403672630469 6.5281015937891418 0 -0.70710678939079041 0.70710677298230451 1.5 0 0 1 I I #
coedge $-1 $277 $277 $-1 $398 reversed $180 $-1 #
edge $-1 $399 0 $399 6.2831853071796004 $181 $400 forward 7 unknown #
vertex $-1 $184 $401 #
ellipse-curve $-1 32.55167779185895 -21.875403672630469 6.5281015937891418 0 -0.70710678939079041 0.70710677298230451 1.5 0 0 1 I I #
face $-1 $-1 $402 $38 $-1 $403 reversed single #
loop $-1 $-1 $287 $185 #
plane-surface $-1 0 0 10.443394019457815 0 0 1 1 0 0 forward_v I I I I #
coedge $-1 $289 $404 $405 $406 forward $186 $-1 #
coedge $-1 $405 $188 $190 $291 forward $117 $-1 #
coedge $-1 $188 $405 $407 $408 reversed $117 $-1 #
coedge $-1 $409 $191 $188 $288 forward $282 $-1 #
edge $-1 $294 5.9422197023700569 $410 25.937592567852214 $287 $411 forward 7 unknown #
coedge $-1 $412 $284 $189 $290 forward $186 $-1 #
edge $-1 $413 -46.643810205917383 $293 -40.990793489304693 $289 $414 forward 7 unknown #
edge $-1 $294 41.963905658529882 $413 51.581392014888763 $190 $415 forward 7 unknown #
coedge $-1 $191 $409 $412 $416 forward $282 $-1 #
vertex $-1 $290 $417 #
vertex $-1 $192 $418 #
straight-curve $-1 21.882125837481194 16.645213232622623 10.443394019457813 0 -1 0 I I #
coedge $-1 $296 $296 $-1 $419 reversed $195 $-1 #
edge $-1 $420 0 $420 6.2831853071796004 $196 $421 forward 7 unknown #
vertex $-1 $199 $422 #
ellipse-curve $-1 31.879812270222274 21.900341080948383 7.6168856611514677 0 0.5877852598018023 0.80901698891910034 1.5 0 0 1 I I #
face $-1 $-1 $312 $30 $-1 $423 reversed single #
loop $-1 $-1 $424 $200 #
plane-surface $-1 0 25.790696007444378 0 0 -1 0 0 0 -1 forward_v I I I I #
coedge $-1 $311 $310 $203 $304 reversed $312 $-1 #
edge $-1 $425 -25.790696007444378 $426 25.790696007444378 $303 $427 forward 7 unknown #
coedge $-1 $205 $204 $208 $316 forward $81 $-1 #
coedge $-1 $424 $211 $204 $307 reversed $301 $-1 #
edge $-1 $314 -41.877498702963351 $321 41.877498702963351 $306 $428 forward 7 unknown #
coedge $-1 $209 $429 $205 $309 reversed $201 $-1 #
edge $-1 $318 -41.877498702963351 $313 41.877498702963351 $308 $430 forward 7 unknown #
coedge $-1 $303 $206 $429 $431 forward $312 $-1 #
coedge $-1 $206 $303 $424 $432 reversed $312 $-1 #
loop $-1 $-1 $310 $300 #
vertex $-1 $207 $433 #
vertex $-1 $207 $434 #
straight-curve $-1 41.877498702963351 0 10.443394019457815 0 1 0 I I #
edge $-1 $321 -25.790696007444378 $318 25.790696007444378 $208 $435 forward 7 unknown #
coedge $-1 $429 $209 $214 $324 reversed $201 $-1 #
vertex $-1 $316 $436 #
straight-curve $-1 -41.877498702963351 -25.790696007444378 0 0 0 -1 I I #
coedge $-1 $211 $424 $213 $323 reversed $301 $-1 #
vertex $-1 $307 $437 #
straight-curve $-1 -41.877498702963351 25.790696007444378 0 0 0 -1 I I #
edge $-1 $216 -41.877498702963351 $425 41.877498702963351 $320 $438 forward 7 unknown #
edge $-1 $426 -41.877498702963351 $215 41.877498702963351 $317 $439 forward 7 unknown #
point $-1 -41.877498702963351 -25.790696007444378 -10.443394019457815 #
point $-1 -41.877498702963351 25.790696007444378 -10.443394019457815 #
face $-1 $-1 $343 $31 $-1 $440 forward single #
plane-surface $-1 -45.899029283432611 -10.83487363651234 0 0 -1 0 0 0 -1 forward_v I I I I #
coedge $-1 $441 $442 $346 $443 forward $219 $-1 #
coedge $-1 $339 $221 $222 $335 reversed $134 $-1 #
coedge $-1 $221 $339 $342 $444 reversed $134 $-1 #
coedge $-1 $442 $441 $221 $333 reversed $219 $-1 #
edge $-1 $445 -10.443394019457815 $446 10.443394019457815 $332 $447 forward 7 unknown #
coedge $-1 $223 $222 $441 $448 forward $85 $-1 #
edge $-1 $337 -4.0215305804692605 $446 4.0215305804692605 $330 $449 forward 7 unknown #
edge $-1 $450 -4.0215305804692605 $231 4.0215305804692605 $228 $451 forward 7 unknown #
vertex $-1 $335 $452 #
straight-curve $-1 -41.877498702963351 0 -10.443394019457815 0 -1 0 I I #
coedge $-1 $331 $330 $225 $340 reversed $134 $-1 #
edge $-1 $344 -10.443394019457815 $337 10.443394019457815 $339 $453 forward 7 unknown #
coedge $-1 $454 $226 $229 $347 forward $343 $-1 #
coedge $-1 $226 $454 $331 $444 forward $343 $-1 #
loop $-1 $-1 $226 $327 #
vertex $-1 $227 $455 #
straight-curve $-1 -41.877498702963351 0 10.443394019457815 0 1 0 I I #
coedge $-1 $229 $228 $329 $443 reversed $230 $-1 #
edge $-1 $232 -4.0215305804692605 $456 4.0215305804692605 $229 $457 forward 7 unknown #
point $-1 -41.877498702963351 -10.83487363651234 -10.443394019457815 #
point $-1 -41.877498702963351 -10.83487363651234 10.443394019457815 #
loop $-1 $-1 $242 $234 #
plane-surface $-1 0 -25.790696007444378 0 0 1 0 0 0 1 forward_v I I I I #
coedge $-1 $353 $237 $239 $357 reversed $142 $-1 #
coedge $-1 $237 $352 $458 $459 reversed $142 $-1 #
coedge $-1 $245 $240 $237 $355 forward $235 $-1 #
edge $-1 $358 -24.547100321475035 $460 -16.716515651847214 $354 $461 forward 7 unknown #
coedge $-1 $239 $238 $361 $462 reversed $89 $-1 #
edge $-1 $463 -5.0242958677880813e-015 $358 11.074119169586545 $352 $464 forward 7 unknown #
vertex $-1 $241 $465 #
straight-curve $-1 -10.465532991392822 -17.96011133781656 10.443394019457815 -1 0 0 I I #
coedge $-1 $458 $242 $245 $365 reversed $350 $-1 #
coedge $-1 $242 $458 $356 $462 forward $350 $-1 #
vertex $-1 $243 $466 #
straight-curve $-1 -12.583447803804507 -25.790696007444378 30.918267552483293 0 0 1 I I #
straight-curve $-1 -12.583447803804507 -25.790696007444375 2.6128091681204708 0 -0.70710677298230451 -0.70710678939079041 I I #
edge $-1 $460 -29.27868416176678 $246 -12.583447803804507 $360 $467 forward 7 unknown #
point $-1 -12.583447803804507 -25.790696007444378 10.443394019457815 #
point $-1 -12.583447803804507 -17.960111337816556 10.443394019457816 #
edge $-1 $468 1 $468 0 $249 $-1 forward 7 unknown #
vertex $-1 $250 $469 #
ellipse-curve $-1 -24.508616630920415 -20.451846020854536 5.1045439750470099 0 -0.70710678939079041 0.70710677298230451 1.5 0 0 1 I I #
point $-1 -23.008616630920415 -21.875403672630476 6.5281015937891489 #
edge $-1 $470 1 $470 0 $253 $-1 forward 7 unknown #
vertex $-1 $254 $471 #
ellipse-curve $-1 -17.353515334650869 -20.451846020854536 5.1045439750470099 0 -0.70710678939079041 0.70710677298230451 1.5 0 0 1 I I #
point $-1 -15.853515334650869 -21.875403672630476 6.5281015937891489 #
plane-surface $-1 0 0 10.443394019457815 0 0 1 1 0 0 forward_v I I I I #
coedge $-1 $387 $386 $379 $472 forward $258 $-1 #
coedge $-1 $379 $260 $262 $383 reversed $164 $-1 #
coedge $-1 $260 $378 $377 $472 reversed $164 $-1 #
coedge $-1 $268 $263 $260 $381 forward $269 $-1 #
edge $-1 $384 -24.547100321475035 $473 -16.716515651847214 $380 $474 forward 7 unknown #
coedge $-1 $262 $261 $387 $475 reversed $103 $-1 #
edge $-1 $476 -5.0242958677880813e-015 $384 11.074119169586545 $378 $477 forward 7 unknown #
vertex $-1 $264 $478 #
straight-curve $-1 14.487063571862087 -17.96011133781656 10.443394019457815 -1 0 0 I I #
coedge $-1 $377 $265 $268 $391 reversed $258 $-1 #
coedge $-1 $265 $377 $382 $475 forward $258 $-1 #
vertex $-1 $266 $479 #
straight-curve $-1 37.321745322705311 -25.790696007444378 30.918267552483293 0 0 1 I I #
straight-curve $-1 37.321745322705311 -25.790696007444375 2.6128091681204708 0 -0.70710677298230451 -0.70710678939079041 I I #
edge $-1 $473 20.626508964743039 $270 37.321745322705311 $386 $480 forward 7 unknown #
point $-1 37.321745322705311 -25.790696007444378 10.443394019457815 #
point $-1 37.321745322705311 -17.960111337816556 10.443394019457816 #
edge $-1 $481 1 $481 0 $273 $-1 forward 7 unknown #
vertex $-1 $274 $482 #
ellipse-curve $-1 25.396576495589414 -20.451846020854536 5.1045439750470099 0 -0.70710678939079041 0.70710677298230451 1.5 0 0 1 I I #
point $-1 26.896576495589414 -21.875403672630476 6.5281015937891489 #
edge $-1 $483 1 $483 0 $277 $-1 forward 7 unknown #
vertex $-1 $278 $484 #
ellipse-curve $-1 32.55167779185895 -20.451846020854536 5.1045439750470099 0 -0.70710678939079041 0.70710677298230451 1.5 0 0 1 I I #
point $-1 34.05167779185895 -21.875403672630476 6.5281015937891489 #
loop $-1 $-1 $407 $281 #
plane-surface $-1 41.877498702963351 0 0 -1 0 0 0 0 1 forward_v I I I I #
coedge $-1 $284 $412 $485 $486 forward $186 $-1 #
coedge $-1 $286 $285 $284 $406 reversed $117 $-1 #
edge $-1 $487 -25.937592567852214 $413 -5.9422197023700569 $284 $488 forward 7 unknown #
coedge $-1 $485 $489 $286 $408 forward $402 $-1 #
edge $-1 $410 25.197908680370027 $487 34.815395036728901 $407 $490 forward 7 unknown #
coedge $-1 $292 $287 $489 $491 forward $282 $-1 #
vertex $-1 $491 $492 #
straight-curve $-1 15.939906135111137 18.009986154452392 10.443394019457813 1 0 0 I I #
coedge $-1 $404 $289 $292 $416 reversed $186 $-1 #
vertex $-1 $290 $493 #
straight-curve $-1 21.882125837481194 25.790696007444378 51.434187508762506 0 0 1 I I #
straight-curve $-1 21.882125837481194 -15.939526444696654 35.109159209255125 0 0.80901698891910034 -0.5877852598018023 I I #
edge $-1 $494 -41.877498702963351 $293 -21.882125837481194 $412 $495 forward 7 unknown #
point $-1 21.882125837481194 25.790696007444378 10.443394019457815 #
point $-1 21.882125837481194 18.009986154452392 10.443394019457813 #
edge $-1 $496 1 $496 0 $296 $-1 forward 7 unknown #
vertex $-1 $297 $497 #
ellipse-curve $-1 31.879812270222274 20.600117106028069 5.8272809244400534 0 0.5877852598018023 0.80901698891910034 1.5 0 0 1 I I #
point $-1 33.379812270222274 21.900341080948387 7.6168856611514766 #
plane-surface $-1 41.877498702963351 0 0 -1 0 0 0 0 1 forward_v I I I I #
coedge $-1 $320 $306 $311 $432 forward $301 $-1 #
vertex $-1 $304 $498 #
vertex $-1 $431 $499 #
straight-curve $-1 41.877498702963351 0 -10.443394019457815 0 -1 0 I I #
straight-curve $-1 0 25.790696007444378 10.443394019457815 -1 0 0 I I #
coedge $-1 $308 $317 $310 $431 reversed $201 $-1 #
straight-curve $-1 0 -25.790696007444378 10.443394019457815 1 0 0 I I #
edge $-1 $313 -10.443394019457815 $426 10.443394019457815 $310 $500 forward 7 unknown #
edge $-1 $314 -10.443394019457815 $425 10.443394019457815 $311 $501 forward 7 unknown #
point $-1 41.877498702963351 -25.790696007444378 10.443394019457815 #
point $-1 41.877498702963351 25.790696007444378 10.443394019457815 #
straight-curve $-1 -41.877498702963351 0 10.443394019457815 0 -1 0 I I #
point $-1 -41.877498702963351 -25.790696007444378 10.443394019457815 #
point $-1 -41.877498702963351 25.790696007444378 10.443394019457815 #
straight-curve $-1 0 25.790696007444378 -10.443394019457815 1 0 0 I I #
straight-curve $-1 0 -25.790696007444378 -10.443394019457815 -1 0 0 I I #
plane-surface $-1 0 0 10.443394019457815 0 0 1 1 0 0 forward_v I I I I #
coedge $-1 $332 $329 $334 $448 reversed $219 $-1 #
coedge $-1 $329 $332 $454 $502 reversed $219 $-1 #
edge $-1 $456 -10.443394019457815 $450 10.443394019457815 $346 $503 forward 7 unknown #
edge $-1 $445 -4.0215305804692605 $344 4.0215305804692605 $331 $504 forward 7 unknown #
vertex $-1 $502 $505 #
vertex $-1 $448 $506 #
straight-curve $-1 -49.920559863901872 -13.83487363651234 0 0 0 -1 I I #
edge $-1 $446 -1.5 $450 1.5 $441 $507 forward 7 unknown #
straight-curve $-1 -45.899029283432611 -13.83487363651234 -10.443394019457815 -1 0 0 I I #
vertex $-1 $336 $508 #
straight-curve $-1 -45.899029283432611 -10.83487363651234 -10.443394019457815 1 0 0 I I #
point $-1 -41.877498702963351 -13.83487363651234 -10.443394019457815 #
straight-curve $-1 -41.877498702963351 -13.83487363651234 0 0 0 -1 I I #
coedge $-1 $342 $341 $442 $502 forward $343 $-1 #
point $-1 -41.877498702963351 -13.83487363651234 10.443394019457815 #
vertex $-1 $347 $509 #
straight-curve $-1 -45.899029283432611 -10.83487363651234 10.443394019457815 -1 0 0 I I #
coedge $-1 $361 $360 $353 $459 forward $350 $-1 #
edge $-1 $460 20.47487353302548 $463 28.305458384362826 $458 $510 forward 7 unknown #
vertex $-1 $365 $511 #
straight-curve $-1 -29.27868416176678 -42.507211659291592 10.443394019457813 0 -1 0 I I #
edge $-1 $463 -18.813151170373956 $362 -2.1179148124116853 $361 $512 forward 7 unknown #
vertex $-1 $462 $513 #
straight-curve $-1 -29.27868416176678 -25.790696007444375 2.6128091681204708 0 0.70710677298230451 0.70710678939079041 I I #
point $-1 -29.27868416176678 -17.960111337816556 10.443394019457816 #
point $-1 -12.583447803804507 -25.790696007444378 2.6128091681204673 #
straight-curve $-1 0 -25.790696007444378 10.443394019457815 1 0 0 I I #
vertex $-1 $368 $514 #
point $-1 -23.008616630920415 -20.451846020854536 5.1045439750470099 #
vertex $-1 $372 $515 #
point $-1 -15.853515334650869 -20.451846020854536 5.1045439750470099 #
edge $-1 $473 20.47487353302548 $476 28.305458384362826 $377 $516 forward 7 unknown #
vertex $-1 $391 $517 #
straight-curve $-1 20.626508964743039 -42.507211659291592 10.443394019457813 0 -1 0 I I #
edge $-1 $476 6.1394453928809511 $388 22.834681750843224 $387 $518 forward 7 unknown #
vertex $-1 $475 $519 #
straight-curve $-1 20.626508964743039 -25.790696007444375 2.6128091681204708 0 0.70710677298230451 0.70710678939079041 I I #
point $-1 20.626508964743039 -17.960111337816556 10.443394019457816 #
point $-1 37.321745322705311 -25.790696007444378 2.6128091681204673 #
straight-curve $-1 0 -25.790696007444378 10.443394019457815 1 0 0 I I #
vertex $-1 $394 $520 #
point $-1 26.896576495589414 -20.451846020854536 5.1045439750470099 #
vertex $-1 $398 $521 #
point $-1 34.05167779185895 -20.451846020854536 5.1045439750470099 #
coedge $-1 $489 $407 $404 $486 reversed $402 $-1 #
edge $-1 $494 -10.443394019457815 $487 -4.7903773028451226 $485 $522 forward 7 unknown #
vertex $-1 $408 $523 #
straight-curve $-1 15.939906135111137 25.790696007444375 4.7903773028451226 -1 0 0 I I #
coedge $-1 $407 $485 $409 $491 reversed $402 $-1 #
straight-curve $-1 41.877498702963351 -2.375550053199027 25.254353319611198 0 0.80901698891910034 -0.5877852598018023 I I #
edge $-1 $410 18.009986154452392 $494 25.790696007444378 $489 $524 forward 7 unknown #
point $-1 41.877498702963351 18.009986154452392 10.443394019457813 #
point $-1 21.882125837481194 25.790696007444382 4.7903773028451226 #
vertex $-1 $491 $525 #
straight-curve $-1 0 25.790696007444378 10.443394019457815 -1 0 0 I I #
vertex $-1 $419 $526 #
point $-1 33.379812270222274 20.600117106028069 5.8272809244400534 #
point $-1 41.877498702963351 25.790696007444378 -10.443394019457815 #
point $-1 41.877498702963351 -25.790696007444378 -10.443394019457815 #
straight-curve $-1 41.877498702963351 -25.790696007444378 0 0 0 -1 I I #
straight-curve $-1 41.877498702963351 25.790696007444378 0 0 0 -1 I I #
edge $-1 $456 -1.5 $445 1.5 $442 $527 forward 7 unknown #
straight-curve $-1 -49.920559863901872 -10.83487363651234 0 0 0 -1 I I #
straight-curve $-1 -45.899029283432611 -13.83487363651234 10.443394019457815 1 0 0 I I #
point $-1 -49.920559863901872 -13.83487363651234 10.443394019457815 #
point $-1 -49.920559863901872 -13.83487363651234 -10.443394019457815 #
straight-curve $-1 -49.920559863901872 -12.33487363651234 -10.443394019457815 0 1 0 I I #
point $-1 -49.920559863901872 -10.83487363651234 -10.443394019457815 #
point $-1 -49.920559863901872 -10.83487363651234 10.443394019457815 #
straight-curve $-1 -29.27868416176678 -25.790696007444378 30.918267552483293 0 0 -1 I I #
point $-1 -29.27868416176678 -25.790696007444378 10.443394019457815 #
straight-curve $-1 -10.465532991392822 -25.790696007444378 2.6128091681204646 1 0 0 I I #
point $-1 -29.27868416176678 -25.790696007444378 2.6128091681204673 #
point $-1 -24.508616630920415 -19.391185836768347 4.0438838155735528 #
point $-1 -17.353515334650869 -19.391185836768347 4.0438838155735528 #
straight-curve $-1 20.626508964743039 -25.790696007444378 30.918267552483293 0 0 -1 I I #
point $-1 20.626508964743039 -25.790696007444378 10.443394019457815 #
straight-curve $-1 14.487063571862087 -25.790696007444378 2.6128091681204646 1 0 0 I I #
point $-1 20.626508964743039 -25.790696007444378 2.6128091681204673 #
point $-1 25.396576495589414 -19.391185836768347 4.0438838155735528 #
point $-1 32.55167779185895 -19.391185836768347 4.0438838155735528 #
straight-curve $-1 41.877498702963351 25.790696007444378 0 0 0 -1 I I #
point $-1 41.877498702963351 25.790696007444382 4.7903773028451226 #
straight-curve $-1 41.877498702963351 0 10.443394019457815 0 1 0 I I #
point $-1 41.877498702963351 25.790696007444378 10.443394019457815 #
point $-1 31.879812270222274 19.718439216325368 4.6137554410614037 #
straight-curve $-1 -49.920559863901872 -12.33487363651234 10.443394019457815 0 -1 0 I I #
End-of-ACIS-data 