500 0 7 0           
7 Unknown 11 ACIS 5.0 NT 24 Fri Mar 26 18:27:26 1999 
-1 9.9999999999999995e-007 1e-010 
body $-1 $7 $-1 $8 #
body $-1 $9 $-1 $10 #
body $-1 $11 $-1 $12 #
body $-1 $13 $-1 $14 #
body $-1 $15 $-1 $16 #
body $-1 $17 $-1 $18 #
body $-1 $19 $-1 $20 #
lump $-1 $-1 $21 $0 #
transform $-1 1 0 0 0 1 0 0 0 1 43.431501205481126 27.784390645139787 9.9411425362271295 1 rotate no_reflect no_shear #
lump $-1 $-1 $22 $1 #
transform $-1 1 0 0 0 1 0 0 0 1 43.431501205481126 27.784390645139787 9.9411425362271295 1 rotate no_reflect no_shear #
lump $-1 $-1 $23 $2 #
transform $-1 1 0 0 0 1 0 0 0 1 43.431501205481126 27.784390645139787 9.9411425362271295 1 rotate no_reflect no_shear #
lump $-1 $-1 $24 $3 #
transform $-1 1 0 0 0 1 0 0 0 1 43.431501205481126 27.784390645139787 9.9411425362271295 1 rotate no_reflect no_shear #
lump $-1 $-1 $25 $4 #
transform $-1 1 0 0 0 1 0 0 0 1 43.431501205481126 27.784390645139787 9.9411425362271295 1 rotate no_reflect no_shear #
lump $-1 $-1 $26 $5 #
transform $-1 1 0 0 0 1 0 0 0 1 43.431501205481126 27.784390645139787 9.9411425362271295 1 rotate no_reflect no_shear #
lump $-1 $-1 $27 $6 #
transform $-1 1 0 0 0 1 0 0 0 1 43.431501205481126 27.784390645139787 9.9411425362271295 1 rotate no_reflect no_shear #
shell $-1 $-1 $-1 $28 $-1 $7 #
shell $-1 $-1 $-1 $29 $-1 $9 #
shell $-1 $-1 $-1 $30 $-1 $11 #
shell $-1 $-1 $-1 $31 $-1 $13 #
shell $-1 $-1 $-1 $32 $-1 $15 #
shell $-1 $-1 $-1 $33 $-1 $17 #
shell $-1 $-1 $-1 $34 $-1 $19 #
face $-1 $35 $36 $21 $-1 $37 forward single #
face $-1 $38 $39 $22 $-1 $40 reversed single #
face $-1 $41 $42 $23 $-1 $43 reversed single #
face $-1 $44 $45 $24 $-1 $46 forward single #
face $-1 $47 $48 $25 $-1 $49 reversed single #
face $-1 $50 $51 $26 $-1 $52 forward single #
face $-1 $53 $54 $27 $-1 $55 forward single #
face $-1 $56 $57 $21 $-1 $58 reversed single #
loop $-1 $-1 $59 $28 #
plane-surface $-1 0 0 9.9411425362271295 0 0 1 1 0 0 forward_v I I I I #
face $-1 $60 $61 $22 $-1 $62 reversed single #
loop $-1 $-1 $63 $29 #
plane-surface $-1 -38.90244870080474 0 6.9411425362271295 0 0 1 1 0 0 forward_v I I I I #
face $-1 $64 $65 $23 $-1 $66 reversed single #
loop $-1 $-1 $67 $30 #
plane-surface $-1 -28.878946220773443 -7.1861759587574525 44.246339377247104 0 0.77714596973225614 0.62932038083071107 1 0 0 forward_v I I I I #
face $-1 $68 $69 $24 $-1 $70 forward single #
loop $-1 $71 $72 $31 #
cone-surface $-1 -28.878946220773443 22.473722077886045 4.1122031987392003 0 -0.77714596973225614 -0.62932038083071107 2 0 0 1 I I 0 1 2 forward I I I I #
face $-1 $73 $74 $25 $-1 $75 reversed single #
loop $-1 $-1 $76 $32 #
plane-surface $-1 0.27770985945106119 -95.289622887662347 56.837432164363065 -1 0 0 0 -0.77714596973225614 0.62932038083071107 forward_v I I I I #
face $-1 $77 $78 $26 $-1 $79 forward single #
loop $-1 $80 $81 $33 #
cone-surface $-1 -14.936492390235195 -22.947010120182043 4.6867793295170097 0 0.77714596973225614 -0.62932038083071107 1.5 0 0 1 I I 0 1 1.5 forward I I I I #
face $-1 $82 $83 $27 $-1 $84 forward single #
loop $-1 $85 $86 $34 #
cone-surface $-1 -5.807971040423439 -22.947010120182043 4.6867793295170097 0 0.77714596973225614 -0.62932038083071107 1.5 0 0 1 I I 0 1 1.5 forward I I I I #
face $-1 $87 $88 $21 $-1 $89 reversed single #
loop $-1 $-1 $90 $35 #
plane-surface $-1 0 0 -9.9411425362271295 0 0 1 1 0 0 forward_v I I I I #
coedge $-1 $91 $92 $93 $94 forward $36 $-1 #
face $-1 $95 $96 $22 $-1 $97 reversed single #
loop $-1 $-1 $98 $38 #
plane-surface $-1 -34.373396196128354 0 8.4411425362271295 -1 0 0 0 0 1 forward_v I I I I #
coedge $-1 $99 $100 $101 $102 forward $39 $-1 #
face $-1 $103 $104 $23 $-1 $105 forward single #
loop $-1 $-1 $106 $41 #
plane-surface $-1 -23.384496245418532 60.319056283765114 98.910997134612842 -1 0 0 0 0.77714596973225614 0.62932038083071107 forward_v I I I I #
coedge $-1 $107 $108 $109 $110 reversed $42 $-1 #
face $-1 $-1 $111 $24 $-1 $112 forward single #
loop $-1 $113 $114 $44 #
cone-surface $-1 -28.878946220773443 19.981290887566729 2.0938722712475588 0 -0.77714596973225614 -0.62932038083071107 1 0 0 1 I I -0.70710678118654746 0.70710678118654746 1 forward I I I I #
loop $-1 $-1 $115 $31 #
coedge $-1 $72 $72 $116 $117 reversed $45 $-1 #
face $-1 $118 $119 $25 $-1 $120 reversed single #
loop $-1 $-1 $121 $47 #
plane-surface $-1 -10.37223171532932 -27.78439064513978 2.1727744069973269 0 -0.77714596973225614 0.62932038083071107 1 0 0 forward_v I I I I #
coedge $-1 $122 $123 $124 $125 reversed $48 $-1 #
face $-1 $-1 $126 $26 $-1 $127 forward single #
loop $-1 $128 $129 $50 #
cone-surface $-1 -14.936492390235195 -20.672120270872785 2.8446099017987532 0 0.77714596973225614 -0.62932038083071107 0.75 0 0 1 I I -0.70710678118654757 0.70710678118654757 0.75 forward I I I I #
loop $-1 $-1 $130 $33 #
coedge $-1 $81 $81 $131 $132 reversed $51 $-1 #
face $-1 $-1 $133 $27 $-1 $134 forward single #
loop $-1 $135 $136 $53 #
cone-surface $-1 -5.807971040423439 -20.672120270872785 2.8446099017987532 0 0.77714596973225614 -0.62932038083071107 0.75 0 0 1 I I -0.70710678118654757 0.70710678118654757 0.75 forward I I I I #
loop $-1 $-1 $137 $34 #
coedge $-1 $86 $86 $138 $139 reversed $54 $-1 #
face $-1 $140 $141 $21 $-1 $142 reversed single #
loop $-1 $-1 $143 $56 #
plane-surface $-1 0 -27.784390645139787 0 0 1 0 0 0 1 forward_v I I I I #
coedge $-1 $144 $145 $146 $147 forward $57 $-1 #
coedge $-1 $148 $59 $149 $150 forward $36 $-1 #
coedge $-1 $59 $148 $151 $152 forward $36 $-1 #
coedge $-1 $153 $154 $59 $94 reversed $155 $-1 #
edge $-1 $156 -27.784390645139787 $157 27.784390645139787 $93 $158 forward 7 unknown #
face $-1 $159 $160 $22 $-1 $161 reversed single #
loop $-1 $-1 $162 $60 #
plane-surface $-1 0 27.784390645139787 0 0 -1 0 0 0 -1 forward_v I I I I #
coedge $-1 $101 $163 $164 $165 reversed $61 $-1 #
coedge $-1 $166 $63 $167 $168 reversed $39 $-1 #
coedge $-1 $63 $166 $169 $170 reversed $39 $-1 #
coedge $-1 $171 $98 $63 $102 reversed $61 $-1 #
edge $-1 $172 -27.784390645139787 $173 27.784390645139787 $101 $174 forward 7 unknown #
face $-1 $175 $176 $23 $-1 $177 reversed single #
loop $-1 $-1 $109 $64 #
plane-surface $-1 0 0 9.9411425362271295 0 0 1 1 0 0 forward_v I I I I #
coedge $-1 $178 $179 $180 $181 reversed $65 $-1 #
coedge $-1 $182 $67 $183 $184 reversed $42 $-1 #
coedge $-1 $67 $182 $178 $185 forward $42 $-1 #
coedge $-1 $180 $186 $67 $110 forward $104 $-1 #
edge $-1 $187 -19.933923085741633 $188 -8.9450231350318106 $109 $189 forward 7 unknown #
loop $-1 $-1 $116 $68 #
plane-surface $-1 -28.878946220773443 -7.1861759587574525 44.246339377247104 0 0.77714596973225614 0.62932038083071107 1 0 0 forward_v I I I I #
loop $-1 $-1 $190 $44 #
coedge $-1 $114 $114 $115 $191 reversed $69 $-1 #
coedge $-1 $115 $115 $114 $191 forward $71 $-1 #
coedge $-1 $116 $116 $72 $117 forward $111 $-1 #
edge $-1 $192 8.5530656677897454e-016 $192 6.2831853071796013 $116 $193 forward 7 unknown #
face $-1 $194 $195 $25 $-1 $196 reversed single #
loop $-1 $-1 $197 $73 #
plane-surface $-1 -21.022173290109702 -95.289622887662347 56.837432164363065 1 0 0 0 0.77714596973225614 -0.62932038083071107 forward_v I I I I #
coedge $-1 $198 $199 $200 $201 reversed $74 $-1 #
coedge $-1 $123 $76 $202 $203 reversed $48 $-1 #
coedge $-1 $76 $122 $198 $204 reversed $48 $-1 #
coedge $-1 $200 $205 $76 $125 forward $206 $-1 #
edge $-1 $207 19.860420798691386 $208 26.151121104586764 $124 $209 forward 7 unknown #
loop $-1 $-1 $131 $77 #
plane-surface $-1 -10.37223171532932 -27.78439064513978 2.1727744069973269 0 -0.77714596973225614 0.62932038083071107 1 0 0 forward_v I I I I #
loop $-1 $-1 $210 $50 #
coedge $-1 $129 $129 $130 $211 reversed $78 $-1 #
coedge $-1 $130 $130 $129 $211 forward $80 $-1 #
coedge $-1 $131 $131 $81 $132 forward $126 $-1 #
edge $-1 $212 1.1604055085384225e-015 $212 6.2831853071796013 $131 $213 forward 7 unknown #
loop $-1 $-1 $138 $82 #
plane-surface $-1 -10.37223171532932 -27.78439064513978 2.1727744069973269 0 -0.77714596973225614 0.62932038083071107 1 0 0 forward_v I I I I #
loop $-1 $-1 $214 $53 #
coedge $-1 $136 $136 $137 $215 reversed $83 $-1 #
coedge $-1 $137 $137 $136 $215 forward $85 $-1 #
coedge $-1 $138 $138 $86 $139 forward $133 $-1 #
edge $-1 $216 1.1604055085384225e-015 $216 6.2831853071796013 $138 $217 forward 7 unknown #
face $-1 $218 $219 $21 $-1 $220 reversed single #
loop $-1 $-1 $221 $87 #
plane-surface $-1 -43.431501205481126 0 0 1 0 0 0 0 -1 forward_v I I I I #
coedge $-1 $222 $151 $223 $224 forward $88 $-1 #
coedge $-1 $225 $90 $222 $226 forward $57 $-1 #
coedge $-1 $90 $225 $227 $228 forward $57 $-1 #
coedge $-1 $154 $153 $90 $147 reversed $155 $-1 #
edge $-1 $229 -27.784390645139787 $230 27.784390645139787 $146 $231 forward 7 unknown #
coedge $-1 $92 $91 $232 $233 forward $36 $-1 #
coedge $-1 $234 $235 $91 $150 reversed $219 $-1 #
edge $-1 $157 -43.431501205481126 $236 43.431501205481126 $149 $237 forward 7 unknown #
coedge $-1 $143 $238 $92 $152 reversed $88 $-1 #
edge $-1 $239 -43.431501205481126 $156 43.431501205481126 $151 $240 forward 7 unknown #
coedge $-1 $146 $93 $238 $241 forward $155 $-1 #
coedge $-1 $93 $146 $234 $242 reversed $155 $-1 #
loop $-1 $-1 $153 $218 #
vertex $-1 $94 $243 #
vertex $-1 $94 $244 #
straight-curve $-1 43.431501205481126 0 9.9411425362271295 0 1 0 I I #
face $-1 $245 $246 $22 $-1 $247 forward single #
loop $-1 $-1 $248 $95 #
plane-surface $-1 -43.431501205481126 0 0 1 0 0 0 0 -1 forward_v I I I I #
coedge $-1 $169 $249 $171 $250 forward $96 $-1 #
coedge $-1 $98 $171 $251 $252 reversed $61 $-1 #
coedge $-1 $253 $167 $98 $165 forward $254 $-1 #
edge $-1 $173 2.7205712681135648 $255 5.7205712681135648 $164 $256 forward 7 unknown #
coedge $-1 $100 $99 $248 $257 reversed $39 $-1 #
coedge $-1 $164 $258 $99 $168 forward $254 $-1 #
edge $-1 $259 -23.980276855078756 $173 -14.922171845725984 $167 $260 forward 7 unknown #
coedge $-1 $261 $162 $100 $170 forward $96 $-1 #
edge $-1 $172 14.922171845725984 $262 23.980276855078756 $169 $263 forward 7 unknown #
coedge $-1 $163 $101 $162 $250 reversed $61 $-1 #
vertex $-1 $170 $264 #
vertex $-1 $168 $265 #
straight-curve $-1 -34.373396196128354 0 6.9411425362271295 0 -1 0 I I #
face $-1 $-1 $266 $23 $-1 $267 forward single #
loop $-1 $-1 $268 $103 #
plane-surface $-1 0 27.784390645139787 0 0 -1 0 0 0 -1 forward_v I I I I #
coedge $-1 $179 $106 $108 $185 reversed $65 $-1 #
coedge $-1 $106 $178 $268 $269 reversed $65 $-1 #
coedge $-1 $270 $109 $106 $181 forward $104 $-1 #
edge $-1 $188 -9.565904190076143 $271 -2.3751374967427701 $180 $272 forward 7 unknown #
coedge $-1 $108 $107 $273 $274 reversed $42 $-1 #
coedge $-1 $275 $276 $107 $184 forward $266 $-1 #
edge $-1 $277 -39.394645584504318 $187 -27.968404019212144 $183 $278 forward 7 unknown #
edge $-1 $279 -55.568781290279581 $188 -44.142539724987401 $178 $280 forward 7 unknown #
coedge $-1 $109 $270 $275 $281 forward $104 $-1 #
vertex $-1 $184 $282 #
vertex $-1 $110 $283 #
straight-curve $-1 -14.439473110386722 20.593623951806411 9.9411425362271295 1 0 0 I I #
coedge $-1 $190 $190 $-1 $284 reversed $113 $-1 #
edge $-1 $285 0 $285 6.2831853071796004 $114 $286 forward 7 unknown #
vertex $-1 $117 $287 #
ellipse-curve $-1 -28.878946220773443 24.189007298473101 5.5012137454001264 0 0.77714596973225614 0.62932038083071107 2 0 0 1 I I #
face $-1 $-1 $206 $25 $-1 $288 forward single #
loop $-1 $-1 $289 $118 #
plane-surface $-1 0 -27.784390645139787 0 0 1 0 0 0 1 forward_v I I I I #
coedge $-1 $290 $291 $292 $293 reversed $119 $-1 #
coedge $-1 $294 $121 $123 $204 forward $74 $-1 #
coedge $-1 $121 $294 $290 $295 forward $74 $-1 #
coedge $-1 $292 $124 $121 $201 forward $206 $-1 #
edge $-1 $208 -5.4638257171157214 $296 15.836057432445042 $200 $297 forward 7 unknown #
coedge $-1 $298 $299 $122 $203 forward $195 $-1 #
edge $-1 $300 -26.245941675184213 $207 -18.477573545954403 $202 $301 forward 7 unknown #
edge $-1 $208 -9.9960218952253932 $300 1.1374033043381581e-014 $123 $302 forward 7 unknown #
coedge $-1 $124 $292 $298 $303 forward $206 $-1 #
loop $-1 $-1 $292 $194 #
vertex $-1 $203 $304 #
vertex $-1 $125 $305 #
straight-curve $-1 0.27770985945106119 -47.644811443831173 9.9411425362271295 0 1 0 I I #
coedge $-1 $210 $210 $-1 $306 reversed $128 $-1 #
edge $-1 $307 0 $307 6.2831853071796004 $129 $308 forward 7 unknown #
vertex $-1 $132 $309 #
ellipse-curve $-1 -14.936492390235195 -24.639040492192098 6.0569584716122256 0 -0.77714596973225614 0.62932038083071107 1.5 0 0 1 I I #
coedge $-1 $214 $214 $-1 $310 reversed $135 $-1 #
edge $-1 $311 0 $311 6.2831853071796004 $136 $312 forward 7 unknown #
vertex $-1 $139 $313 #
ellipse-curve $-1 -5.807971040423439 -24.639040492192098 6.0569584716122256 0 -0.77714596973225614 0.62932038083071107 1.5 0 0 1 I I #
face $-1 $-1 $155 $21 $-1 $314 reversed single #
loop $-1 $-1 $234 $140 #
plane-surface $-1 0 27.784390645139787 0 0 -1 0 0 0 -1 forward_v I I I I #
coedge $-1 $315 $232 $235 $316 forward $141 $-1 #
coedge $-1 $238 $143 $144 $226 reversed $88 $-1 #
coedge $-1 $232 $315 $143 $224 reversed $141 $-1 #
edge $-1 $239 -9.9411425362271295 $317 9.9411425362271295 $223 $318 forward 7 unknown #
coedge $-1 $145 $144 $315 $319 forward $57 $-1 #
edge $-1 $230 -43.431501205481126 $317 43.431501205481126 $222 $320 forward 7 unknown #
coedge $-1 $235 $234 $145 $228 reversed $219 $-1 #
edge $-1 $321 -43.431501205481126 $229 43.431501205481126 $227 $322 forward 7 unknown #
vertex $-1 $147 $323 #
vertex $-1 $241 $324 #
straight-curve $-1 43.431501205481126 0 -9.9411425362271295 0 -1 0 I I #
coedge $-1 $221 $223 $148 $233 reversed $141 $-1 #
edge $-1 $236 -27.784390645139787 $239 27.784390645139787 $232 $325 forward 7 unknown #
coedge $-1 $227 $149 $154 $242 forward $219 $-1 #
coedge $-1 $149 $227 $221 $316 reversed $219 $-1 #
vertex $-1 $150 $326 #
straight-curve $-1 0 27.784390645139787 9.9411425362271295 -1 0 0 I I #
coedge $-1 $151 $222 $153 $241 reversed $88 $-1 #
vertex $-1 $233 $327 #
straight-curve $-1 0 -27.784390645139787 9.9411425362271295 1 0 0 I I #
edge $-1 $156 -9.9411425362271295 $230 9.9411425362271295 $153 $328 forward 7 unknown #
edge $-1 $157 -9.9411425362271295 $229 9.9411425362271295 $154 $329 forward 7 unknown #
point $-1 43.431501205481126 -27.784390645139787 9.9411425362271295 #
point $-1 43.431501205481126 27.784390645139787 9.9411425362271295 #
face $-1 $-1 $254 $22 $-1 $330 reversed single #
loop $-1 $-1 $251 $159 #
plane-surface $-1 0 0 9.9411425362271295 0 0 1 1 0 0 forward_v I I I I #
coedge $-1 $331 $332 $166 $257 forward $160 $-1 #
coedge $-1 $162 $261 $333 $334 reversed $96 $-1 #
edge $-1 $335 -5.7205712681135648 $172 -2.7205712681135648 $162 $336 forward 7 unknown #
coedge $-1 $333 $337 $163 $252 forward $246 $-1 #
edge $-1 $255 -27.784390645139787 $335 27.784390645139787 $251 $338 forward 7 unknown #
coedge $-1 $258 $164 $337 $339 reversed $254 $-1 #
loop $-1 $-1 $164 $245 #
vertex $-1 $165 $340 #
straight-curve $-1 -34.373396196128354 -27.784390645139787 4.2205712681135648 0 0 1 I I #
edge $-1 $262 -27.784390645139787 $259 27.784390645139787 $248 $341 forward 7 unknown #
coedge $-1 $167 $253 $331 $342 forward $254 $-1 #
vertex $-1 $257 $343 #
straight-curve $-1 -19.45122435040237 -27.784390645139787 6.9411425362271295 1 0 0 I I #
coedge $-1 $249 $169 $332 $344 reversed $96 $-1 #
vertex $-1 $257 $345 #
straight-curve $-1 -19.45122435040237 27.784390645139787 6.9411425362271295 -1 0 0 I I #
point $-1 -34.373396196128354 27.784390645139787 6.9411425362271295 #
point $-1 -34.373396196128354 -27.784390645139787 6.9411425362271295 #
loop $-1 $-1 $183 $175 #
plane-surface $-1 -34.373396196128354 0 8.4411425362271295 -1 0 0 0 0 1 forward_v I I I I #
coedge $-1 $273 $346 $179 $269 forward $176 $-1 #
edge $-1 $271 39.514356031079288 $279 48.394213612733296 $268 $347 forward 7 unknown #
coedge $-1 $186 $180 $346 $348 forward $104 $-1 #
vertex $-1 $348 $349 #
straight-curve $-1 -23.384496245418532 30.159528141882557 9.941142536227126 0 1 0 I I #
coedge $-1 $350 $268 $182 $274 forward $176 $-1 #
edge $-1 $279 8.9450231350318106 $277 19.933923085741633 $273 $351 forward 7 unknown #
coedge $-1 $276 $183 $186 $281 reversed $266 $-1 #
coedge $-1 $183 $275 $350 $352 reversed $266 $-1 #
vertex $-1 $352 $353 #
straight-curve $-1 -34.373396196128354 2.9925372832086374 31.676674999601278 0 -0.62932038083071107 0.77714596973225614 I I #
vertex $-1 $274 $354 #
straight-curve $-1 -23.384496245418532 -7.1861759587574525 44.246339377247104 0 -0.62932038083071107 0.77714596973225614 I I #
edge $-1 $355 -27.784390645139787 $187 -20.593623951806418 $186 $356 forward 7 unknown #
point $-1 -34.373396196128354 20.593623951806418 9.9411425362271295 #
point $-1 -23.384496245418532 20.593623951806414 9.941142536227126 #
edge $-1 $357 1 $357 0 $190 $-1 forward 7 unknown #
vertex $-1 $191 $358 #
ellipse-curve $-1 -28.878946220773443 20.758436857298985 2.7231926520782697 0 0.77714596973225614 0.62932038083071107 2 0 0 1 I I #
point $-1 -26.878946220773443 24.189007298473108 5.50121374540013 #
plane-surface $-1 0 0 9.9411425362271295 0 0 1 1 0 0 forward_v I I I I #
coedge $-1 $299 $298 $291 $359 forward $195 $-1 #
coedge $-1 $291 $197 $199 $295 reversed $119 $-1 #
coedge $-1 $197 $290 $289 $359 reversed $119 $-1 #
coedge $-1 $205 $200 $197 $293 forward $206 $-1 #
edge $-1 $296 -26.151121104586764 $360 -19.860420798691386 $292 $361 forward 7 unknown #
coedge $-1 $199 $198 $299 $362 reversed $74 $-1 #
edge $-1 $363 -1.1374033043381581e-014 $296 9.9960218952253932 $290 $364 forward 7 unknown #
vertex $-1 $201 $365 #
straight-curve $-1 -5.1861158576646602 -21.493690339244406 9.9411425362271295 -1 0 0 I I #
coedge $-1 $289 $202 $205 $303 reversed $195 $-1 #
coedge $-1 $202 $289 $294 $362 forward $195 $-1 #
vertex $-1 $203 $366 #
straight-curve $-1 0.27770985945106119 -27.784390645139787 28.418716082181533 0 0 1 I I #
straight-curve $-1 0.27770985945106119 -27.78439064513978 2.1727744069973269 0 -0.62932038083071107 -0.77714596973225614 I I #
edge $-1 $360 -21.022173290109702 $207 0.27770985945106119 $298 $367 forward 7 unknown #
point $-1 0.27770985945106119 -27.784390645139787 9.9411425362271295 #
point $-1 0.27770985945106119 -21.493690339244409 9.9411425362271295 #
edge $-1 $368 1 $368 0 $210 $-1 forward 7 unknown #
vertex $-1 $211 $369 #
ellipse-curve $-1 -14.936492390235195 -21.254979748171976 3.3166001874217863 0 -0.77714596973225614 0.62932038083071107 1.5 0 0 1 I I #
point $-1 -13.436492390235195 -24.639040492192105 6.0569584716122336 #
edge $-1 $370 1 $370 0 $214 $-1 forward 7 unknown #
vertex $-1 $215 $371 #
ellipse-curve $-1 -5.807971040423439 -21.254979748171976 3.3166001874217863 0 -0.77714596973225614 0.62932038083071107 1.5 0 0 1 I I #
point $-1 -4.307971040423439 -24.639040492192105 6.0569584716122336 #
plane-surface $-1 43.431501205481126 0 0 -1 0 0 0 0 1 forward_v I I I I #
coedge $-1 $223 $221 $225 $319 reversed $141 $-1 #
edge $-1 $236 -9.9411425362271295 $321 9.9411425362271295 $235 $372 forward 7 unknown #
vertex $-1 $319 $373 #
straight-curve $-1 -43.431501205481126 -27.784390645139787 0 0 0 -1 I I #
edge $-1 $317 -27.784390645139787 $321 27.784390645139787 $315 $374 forward 7 unknown #
straight-curve $-1 0 -27.784390645139787 -9.9411425362271295 -1 0 0 I I #
vertex $-1 $228 $375 #
straight-curve $-1 0 27.784390645139787 -9.9411425362271295 1 0 0 I I #
point $-1 43.431501205481126 27.784390645139787 -9.9411425362271295 #
point $-1 43.431501205481126 -27.784390645139787 -9.9411425362271295 #
straight-curve $-1 -43.431501205481126 0 9.9411425362271295 0 -1 0 I I #
point $-1 -43.431501205481126 27.784390645139787 9.9411425362271295 #
point $-1 -43.431501205481126 -27.784390645139787 9.9411425362271295 #
straight-curve $-1 43.431501205481126 -27.784390645139787 0 0 0 -1 I I #
straight-curve $-1 43.431501205481126 27.784390645139787 0 0 0 -1 I I #
plane-surface $-1 0 -27.784390645139787 0 0 1 0 0 0 1 forward_v I I I I #
coedge $-1 $376 $248 $258 $342 reversed $160 $-1 #
coedge $-1 $248 $376 $261 $344 forward $160 $-1 #
coedge $-1 $377 $251 $249 $334 forward $246 $-1 #
edge $-1 $335 34.373396196128354 $378 43.431501205481126 $249 $379 forward 7 unknown #
vertex $-1 $334 $380 #
straight-curve $-1 -34.373396196128354 27.784390645139787 4.2205712681135648 0 0 -1 I I #
coedge $-1 $251 $377 $253 $339 forward $246 $-1 #
straight-curve $-1 -34.373396196128354 0 9.9411425362271295 0 1 0 I I #
edge $-1 $381 -43.431501205481126 $255 -34.373396196128354 $253 $382 forward 7 unknown #
point $-1 -34.373396196128354 -27.784390645139787 9.9411425362271295 #
straight-curve $-1 -43.431501205481126 0 6.9411425362271295 0 -1 0 I I #
edge $-1 $381 -9.9411425362271295 $259 -6.9411425362271295 $331 $383 forward 7 unknown #
point $-1 -43.431501205481126 -27.784390645139787 6.9411425362271295 #
edge $-1 $378 -9.9411425362271295 $262 -6.9411425362271295 $261 $384 forward 7 unknown #
point $-1 -43.431501205481126 27.784390645139787 6.9411425362271295 #
coedge $-1 $268 $350 $270 $348 reversed $176 $-1 #
straight-curve $-1 -23.384496245418532 27.784390645139787 49.455498567306421 0 0 -1 I I #
edge $-1 $271 23.384496245418532 $355 34.373396196128354 $346 $385 forward 7 unknown #
point $-1 -23.384496245418532 27.784390645139787 9.9411425362271295 #
coedge $-1 $346 $273 $276 $352 forward $176 $-1 #
straight-curve $-1 -14.439473110386722 27.784390645139787 1.0612849545731251 -1 0 0 I I #
edge $-1 $277 -48.394213612733296 $355 -39.514356031079288 $350 $386 forward 7 unknown #
point $-1 -34.373396196128354 27.784390645139787 1.0612849545731251 #
point $-1 -23.384496245418532 27.784390645139787 1.0612849545731251 #
vertex $-1 $281 $387 #
straight-curve $-1 -34.373396196128354 0 9.9411425362271295 0 -1 0 I I #
vertex $-1 $284 $388 #
point $-1 -26.878946220773443 20.758436857298985 2.7231926520782697 #
edge $-1 $360 18.477573545954403 $363 26.245941675184213 $289 $389 forward 7 unknown #
vertex $-1 $303 $390 #
straight-curve $-1 -21.022173290109702 -47.644811443831173 9.9411425362271295 0 -1 0 I I #
edge $-1 $363 -15.836057432445042 $300 5.4638257171157214 $299 $391 forward 7 unknown #
vertex $-1 $362 $392 #
straight-curve $-1 -21.022173290109702 -27.78439064513978 2.1727744069973269 0 0.62932038083071107 0.77714596973225614 I I #
point $-1 -21.022173290109702 -21.493690339244409 9.9411425362271295 #
point $-1 0.27770985945106119 -27.784390645139787 2.1727744069973181 #
straight-curve $-1 0 -27.784390645139787 9.9411425362271295 1 0 0 I I #
vertex $-1 $306 $393 #
point $-1 -13.436492390235195 -21.254979748171976 3.3166001874217863 #
vertex $-1 $310 $394 #
point $-1 -4.307971040423439 -21.254979748171976 3.3166001874217863 #
straight-curve $-1 -43.431501205481126 27.784390645139787 0 0 0 -1 I I #
point $-1 -43.431501205481126 -27.784390645139787 -9.9411425362271295 #
straight-curve $-1 -43.431501205481126 0 -9.9411425362271295 0 1 0 I I #
point $-1 -43.431501205481126 27.784390645139787 -9.9411425362271295 #
coedge $-1 $332 $331 $377 $395 reversed $160 $-1 #
coedge $-1 $337 $333 $376 $395 forward $246 $-1 #
vertex $-1 $334 $396 #
straight-curve $-1 0 27.784390645139787 9.9411425362271295 -1 0 0 I I #
point $-1 -34.373396196128354 27.784390645139787 9.9411425362271295 #
vertex $-1 $395 $397 #
straight-curve $-1 0 -27.784390645139787 9.9411425362271295 1 0 0 I I #
straight-curve $-1 -43.431501205481126 -27.784390645139787 0 0 0 -1 I I #
straight-curve $-1 -43.431501205481126 27.784390645139787 0 0 0 -1 I I #
straight-curve $-1 0 27.784390645139787 9.9411425362271295 -1 0 0 I I #
straight-curve $-1 -34.373396196128354 27.784390645139787 49.455498567306421 0 0 1 I I #
point $-1 -34.373396196128354 27.784390645139787 9.9411425362271295 #
point $-1 -28.878946220773443 19.204144917834473 1.4645518904168477 #
straight-curve $-1 -21.022173290109702 -27.784390645139787 28.418716082181533 0 0 -1 I I #
point $-1 -21.022173290109702 -27.784390645139787 9.9411425362271295 #
straight-curve $-1 -5.1861158576646602 -27.784390645139787 2.1727744069973163 1 0 0 I I #
point $-1 -21.022173290109702 -27.784390645139787 2.1727744069973181 #
point $-1 -14.936492390235195 -20.089260793573594 2.37261961617572 #
point $-1 -5.807971040423439 -20.089260793573594 2.37261961617572 #
edge $-1 $378 -27.784390645139787 $381 27.784390645139787 $376 $398 forward 7 unknown #
point $-1 -43.431501205481126 27.784390645139787 9.9411425362271295 #
point $-1 -43.431501205481126 -27.784390645139787 9.9411425362271295 #
straight-curve $-1 -43.431501205481126 0 9.9411425362271295 0 -1 0 I I #
End-of-ACIS-data 