500 0 5 0           
7 Unknown 11 ACIS 5.0 NT 24 Fri Mar 26 20:17:27 1999 
-1 9.9999999999999995e-007 1e-010 
body $-1 $5 $-1 $6 #
body $-1 $7 $-1 $8 #
body $-1 $9 $-1 $10 #
body $-1 $11 $-1 $12 #
body $-1 $13 $-1 $14 #
lump $-1 $-1 $15 $0 #
transform $-1 1 0 0 0 1 0 0 0 1 57.957090975676749 36.244805000066457 13.287143974785556 1 rotate no_reflect no_shear #
lump $-1 $-1 $16 $1 #
transform $-1 1 0 0 0 1 0 0 0 1 57.957090975676749 36.244805000066457 13.287143974785556 1 rotate no_reflect no_shear #
lump $-1 $-1 $17 $2 #
transform $-1 1 0 0 0 1 0 0 0 1 57.957090975676749 36.244805000066457 13.287143974785556 1 rotate no_reflect no_shear #
lump $-1 $-1 $18 $3 #
transform $-1 1 0 0 0 1 0 0 0 1 57.957090975676749 36.244805000066457 13.287143974785556 1 rotate no_reflect no_shear #
lump $-1 $-1 $19 $4 #
transform $-1 1 0 0 0 1 0 0 0 1 57.957090975676749 36.244805000066457 13.287143974785556 1 rotate no_reflect no_shear #
shell $-1 $-1 $-1 $20 $-1 $5 #
shell $-1 $-1 $-1 $21 $-1 $7 #
shell $-1 $-1 $-1 $22 $-1 $9 #
shell $-1 $-1 $-1 $23 $-1 $11 #
shell $-1 $-1 $-1 $24 $-1 $13 #
face $-1 $25 $26 $15 $-1 $27 reversed single #
face $-1 $28 $29 $16 $-1 $30 forward single #
face $-1 $31 $32 $17 $-1 $33 forward single #
face $-1 $34 $35 $18 $-1 $36 reversed single #
face $-1 $37 $38 $19 $-1 $39 forward single #
face $-1 $40 $41 $15 $-1 $42 reversed single #
loop $-1 $-1 $43 $20 #
plane-surface $-1 0 36.244805000066457 0 0 -1 0 0 0 -1 forward_v I I I I #
face $-1 $44 $45 $16 $-1 $46 reversed single #
loop $-1 $-1 $47 $21 #
plane-surface $-1 0 -36.244805000066457 0 0 1 0 0 0 1 forward_v I I I I #
face $-1 $48 $49 $17 $-1 $50 reversed single #
loop $-1 $-1 $51 $22 #
plane-surface $-1 0 36.244805000066457 0 0 -1 0 0 0 -1 forward_v I I I I #
face $-1 $52 $53 $18 $-1 $54 reversed single #
loop $-1 $-1 $55 $23 #
plane-surface $-1 21.081448986008482 8.1111025627591076 160.28886894294965 0 -1 0 -0.52991927123019833 0 -0.84804809178421925 forward_v I I I I #
face $-1 $56 $57 $19 $-1 $58 forward single #
loop $-1 $59 $60 $24 #
cone-surface $-1 46.610862947407306 4.3134879462343534 5.0610975790920714 -0.52991927123019833 0 -0.84804809178421925 1.2720721376763289 0 -0.79487890684529749 1 I I 0 1 1.5 forward I I I I #
face $-1 $61 $62 $15 $-1 $63 forward single #
loop $-1 $-1 $64 $25 #
plane-surface $-1 0 -36.244805000066457 0 0 1 0 0 0 1 forward_v I I I I #
coedge $-1 $65 $66 $67 $68 reversed $26 $-1 #
face $-1 $69 $70 $16 $-1 $71 reversed single #
loop $-1 $-1 $72 $28 #
plane-surface $-1 0 0 -13.287143974785556 0 0 1 1 0 0 forward_v I I I I #
coedge $-1 $73 $74 $75 $76 forward $29 $-1 #
face $-1 $77 $78 $17 $-1 $79 reversed single #
loop $-1 $-1 $80 $31 #
plane-surface $-1 0 0 -13.287143974785556 0 0 1 1 0 0 forward_v I I I I #
coedge $-1 $81 $82 $83 $84 forward $32 $-1 #
face $-1 $85 $86 $18 $-1 $87 reversed single #
loop $-1 $-1 $88 $34 #
plane-surface $-1 -40.343709838897375 4.3134879462343534 61.988068128375531 0.52991927123019833 0 0.84804809178421925 0.84804809178421925 0 -0.52991927123019833 forward_v I I I I #
coedge $-1 $89 $90 $91 $92 reversed $35 $-1 #
face $-1 $-1 $93 $19 $-1 $94 forward single #
loop $-1 $95 $96 $37 #
cone-surface $-1 45.048711328851752 4.3134879462343534 2.561132450218361 -0.52991927123019833 0 -0.84804809178421925 0.63603606883816444 0 -0.39743945342264875 1 I I -0.70710678118654724 0.70710678118654768 0.75 forward I I I I #
loop $-1 $-1 $97 $24 #
coedge $-1 $60 $60 $98 $99 reversed $38 $-1 #
face $-1 $100 $101 $15 $-1 $102 reversed single #
loop $-1 $-1 $103 $40 #
plane-surface $-1 0 0 13.287143974785556 0 0 1 1 0 0 forward_v I I I I #
coedge $-1 $104 $105 $106 $107 reversed $41 $-1 #
coedge $-1 $108 $43 $109 $110 reversed $26 $-1 #
coedge $-1 $43 $108 $111 $112 forward $26 $-1 #
coedge $-1 $113 $114 $43 $68 forward $101 $-1 #
edge $-1 $115 -57.957090975676749 $116 57.957090975676749 $43 $117 forward 7 unknown #
face $-1 $118 $119 $16 $-1 $120 reversed single #
loop $-1 $-1 $121 $44 #
plane-surface $-1 -42.956782106718812 -46.87704241371317 0 0 1 0 0 0 1 forward_v I I I I #
coedge $-1 $122 $123 $74 $124 forward $45 $-1 #
coedge $-1 $125 $47 $126 $127 reversed $29 $-1 #
coedge $-1 $47 $125 $72 $124 reversed $29 $-1 #
coedge $-1 $128 $129 $47 $76 reversed $119 $-1 #
edge $-1 $130 -13.287143974785556 $131 13.287143974785556 $75 $132 forward 7 unknown #
face $-1 $133 $134 $17 $-1 $135 reversed single #
loop $-1 $-1 $136 $48 #
plane-surface $-1 -46.18203791384952 41.560923706889817 0 1 0 0 0 0 -1 forward_v I I I I #
coedge $-1 $137 $138 $82 $139 forward $49 $-1 #
coedge $-1 $140 $51 $141 $142 reversed $32 $-1 #
coedge $-1 $51 $140 $80 $139 reversed $32 $-1 #
coedge $-1 $143 $144 $51 $84 reversed $145 $-1 #
edge $-1 $146 -13.287143974785556 $147 13.287143974785556 $83 $148 forward 7 unknown #
face $-1 $149 $150 $18 $-1 $151 forward single #
loop $-1 $-1 $152 $52 #
plane-surface $-1 21.081448986008482 0.5158733297095992 160.28886894294965 0 1 0 0.52991927123019833 0 0.84804809178421925 forward_v I I I I #
coedge $-1 $153 $154 $155 $156 reversed $53 $-1 #
coedge $-1 $90 $55 $157 $158 reversed $35 $-1 #
coedge $-1 $55 $89 $153 $159 reversed $35 $-1 #
coedge $-1 $155 $160 $55 $92 forward $150 $-1 #
edge $-1 $161 -47.416366482672508 $162 -27.053334756399423 $91 $163 forward 7 unknown #
loop $-1 $-1 $98 $56 #
plane-surface $-1 -40.343709838897375 4.3134879462343534 61.988068128375531 0.52991927123019833 0 0.84804809178421925 0.84804809178421925 0 -0.52991927123019833 forward_v I I I I #
loop $-1 $-1 $164 $37 #
coedge $-1 $96 $96 $97 $165 reversed $57 $-1 #
coedge $-1 $97 $97 $96 $165 forward $59 $-1 #
coedge $-1 $98 $98 $60 $99 forward $93 $-1 #
edge $-1 $166 0 $166 6.2831853071796004 $98 $167 forward 7 unknown #
face $-1 $168 $169 $15 $-1 $170 reversed single #
loop $-1 $-1 $113 $61 #
plane-surface $-1 0 0 -13.287143974785556 0 0 1 1 0 0 forward_v I I I I #
coedge $-1 $171 $172 $173 $174 forward $62 $-1 #
coedge $-1 $175 $64 $176 $177 reversed $41 $-1 #
coedge $-1 $64 $175 $178 $179 forward $41 $-1 #
coedge $-1 $114 $113 $64 $107 forward $101 $-1 #
edge $-1 $180 -57.957090975676749 $181 57.957090975676749 $64 $182 forward 7 unknown #
coedge $-1 $66 $65 $171 $183 reversed $26 $-1 #
coedge $-1 $184 $185 $65 $110 forward $169 $-1 #
edge $-1 $186 -13.287143974785556 $115 13.287143974785556 $65 $187 forward 7 unknown #
coedge $-1 $173 $188 $66 $112 reversed $189 $-1 #
edge $-1 $190 -13.287143974785556 $116 13.287143974785556 $111 $191 forward 7 unknown #
coedge $-1 $106 $67 $188 $192 forward $101 $-1 #
coedge $-1 $67 $106 $184 $193 forward $101 $-1 #
vertex $-1 $68 $194 #
vertex $-1 $192 $195 #
straight-curve $-1 0 36.244805000066457 -13.287143974785556 1 0 0 I I #
face $-1 $196 $197 $16 $-1 $198 reversed single #
loop $-1 $-1 $75 $69 #
plane-surface $-1 -46.18203791384952 -41.56092370688981 0 1 0 0 0 0 -1 forward_v I I I I #
coedge $-1 $199 $200 $201 $202 forward $70 $-1 #
coedge $-1 $203 $72 $204 $205 forward $45 $-1 #
coedge $-1 $72 $203 $128 $206 forward $45 $-1 #
edge $-1 $130 -46.18203791384952 $207 -39.731526299588104 $72 $208 forward 7 unknown #
coedge $-1 $74 $73 $209 $210 forward $29 $-1 #
coedge $-1 $211 $212 $73 $127 forward $213 $-1 #
edge $-1 $214 39.731526299588104 $131 46.18203791384952 $126 $215 forward 7 unknown #
coedge $-1 $201 $75 $123 $206 reversed $119 $-1 #
coedge $-1 $75 $201 $211 $216 reversed $119 $-1 #
vertex $-1 $124 $217 #
vertex $-1 $216 $218 #
straight-curve $-1 -46.18203791384952 -36.244805000066457 0 0 0 1 I I #
face $-1 $219 $145 $17 $-1 $220 reversed single #
loop $-1 $-1 $221 $77 #
plane-surface $-1 -42.956782106718812 46.87704241371317 0 0 -1 0 0 0 -1 forward_v I I I I #
coedge $-1 $222 $223 $224 $225 forward $78 $-1 #
coedge $-1 $226 $80 $222 $227 forward $49 $-1 #
coedge $-1 $80 $226 $143 $228 forward $49 $-1 #
edge $-1 $146 39.731526299588104 $229 46.18203791384952 $80 $230 forward 7 unknown #
coedge $-1 $82 $81 $231 $232 forward $32 $-1 #
coedge $-1 $233 $234 $81 $142 forward $235 $-1 #
edge $-1 $236 -46.18203791384952 $147 -39.731526299588104 $141 $237 forward 7 unknown #
coedge $-1 $238 $83 $138 $228 reversed $145 $-1 #
coedge $-1 $83 $238 $233 $239 reversed $145 $-1 #
loop $-1 $-1 $83 $133 #
vertex $-1 $139 $240 #
vertex $-1 $239 $241 #
straight-curve $-1 -39.731526299588104 36.244805000066457 0 0 0 1 I I #
face $-1 $-1 $242 $18 $-1 $243 reversed single #
loop $-1 $-1 $91 $85 #
plane-surface $-1 0 0 13.287143974785556 0 0 1 1 0 0 forward_v I I I I #
coedge $-1 $244 $245 $246 $247 reversed $86 $-1 #
coedge $-1 $248 $88 $90 $159 forward $53 $-1 #
coedge $-1 $88 $248 $244 $249 forward $53 $-1 #
coedge $-1 $246 $91 $88 $156 forward $150 $-1 #
edge $-1 $162 -5.9543585896419309 $250 1.6408706434075775 $155 $251 forward 7 unknown #
coedge $-1 $252 $253 $89 $158 forward $242 $-1 #
edge $-1 $254 -79.581525168005157 $161 -66.857290496689274 $157 $255 forward 7 unknown #
edge $-1 $162 91.902534588960364 $254 115.91418195135353 $90 $256 forward 7 unknown #
coedge $-1 $91 $246 $252 $257 forward $150 $-1 #
vertex $-1 $92 $258 #
vertex $-1 $92 $259 #
straight-curve $-1 10.540724493004241 8.1111025627591076 13.28714397478555 -1 0 0 I I #
coedge $-1 $164 $164 $-1 $260 reversed $95 $-1 #
edge $-1 $261 0 $261 6.2831853071796004 $96 $262 forward 7 unknown #
vertex $-1 $99 $263 #
ellipse-curve $-1 47.77557511254021 4.3134879462343534 6.9250266391276192 0.52991927123019833 0 0.84804809178421925 1.2720721376763289 0 -0.79487890684529749 1 I I #
face $-1 $-1 $189 $15 $-1 $264 reversed single #
loop $-1 $-1 $109 $100 #
plane-surface $-1 -57.957090975676749 0 0 1 0 0 0 0 -1 forward_v I I I I #
coedge $-1 $265 $103 $108 $183 forward $62 $-1 #
coedge $-1 $103 $265 $175 $266 forward $62 $-1 #
coedge $-1 $176 $111 $103 $174 reversed $189 $-1 #
edge $-1 $267 -36.244805000066457 $190 36.244805000066457 $173 $268 forward 7 unknown #
coedge $-1 $105 $104 $172 $266 reversed $41 $-1 #
coedge $-1 $188 $173 $104 $177 forward $189 $-1 #
edge $-1 $267 -13.287143974785556 $180 13.287143974785556 $176 $269 forward 7 unknown #
coedge $-1 $185 $184 $105 $179 reversed $169 $-1 #
edge $-1 $270 -13.287143974785556 $181 13.287143974785556 $178 $271 forward 7 unknown #
vertex $-1 $177 $272 #
vertex $-1 $193 $273 #
straight-curve $-1 0 -36.244805000066457 -13.287143974785556 -1 0 0 I I #
edge $-1 $190 -57.957090975676749 $186 57.957090975676749 $108 $274 forward 7 unknown #
coedge $-1 $178 $109 $114 $193 reversed $169 $-1 #
coedge $-1 $109 $178 $265 $275 reversed $169 $-1 #
vertex $-1 $183 $276 #
straight-curve $-1 -57.957090975676749 36.244805000066457 0 0 0 -1 I I #
coedge $-1 $111 $176 $113 $192 reversed $189 $-1 #
loop $-1 $-1 $176 $168 #
vertex $-1 $174 $277 #
straight-curve $-1 57.957090975676749 36.244805000066457 0 0 0 -1 I I #
edge $-1 $116 -36.244805000066457 $180 36.244805000066457 $188 $278 forward 7 unknown #
edge $-1 $181 -36.244805000066457 $115 36.244805000066457 $184 $279 forward 7 unknown #
point $-1 -57.957090975676749 36.244805000066457 -13.287143974785556 #
point $-1 57.957090975676749 36.244805000066457 -13.287143974785556 #
face $-1 $-1 $213 $16 $-1 $280 forward single #
loop $-1 $-1 $281 $118 #
plane-surface $-1 -39.731526299588104 -41.56092370688981 0 -1 0 0 0 0 1 forward_v I I I I #
coedge $-1 $282 $121 $203 $283 reversed $70 $-1 #
coedge $-1 $121 $282 $284 $285 reversed $70 $-1 #
coedge $-1 $129 $128 $121 $202 reversed $119 $-1 #
edge $-1 $286 -13.287143974785556 $287 13.287143974785556 $201 $288 forward 7 unknown #
coedge $-1 $123 $122 $199 $283 forward $45 $-1 #
coedge $-1 $209 $281 $122 $205 reversed $197 $-1 #
edge $-1 $207 -5.3161187068233602 $289 5.3161187068233602 $204 $290 forward 7 unknown #
edge $-1 $287 -5.3161187068233602 $130 5.3161187068233602 $128 $291 forward 7 unknown #
vertex $-1 $205 $292 #
straight-curve $-1 0 -36.244805000066457 -13.287143974785556 1 0 0 I I #
coedge $-1 $293 $204 $125 $210 reversed $197 $-1 #
edge $-1 $214 -13.287143974785556 $207 13.287143974785556 $209 $294 forward 7 unknown #
coedge $-1 $284 $126 $129 $216 forward $213 $-1 #
coedge $-1 $126 $284 $293 $295 forward $213 $-1 #
loop $-1 $-1 $126 $196 #
vertex $-1 $127 $296 #
straight-curve $-1 0 -36.244805000066457 13.287143974785556 -1 0 0 I I #
edge $-1 $131 -5.3161187068233602 $286 5.3161187068233602 $129 $297 forward 7 unknown #
point $-1 -46.18203791384952 -36.244805000066449 -13.287143974785556 #
point $-1 -46.18203791384952 -36.244805000066449 13.287143974785556 #
face $-1 $-1 $235 $17 $-1 $298 forward single #
plane-surface $-1 -39.731526299588104 41.560923706889817 0 -1 0 0 0 0 1 forward_v I I I I #
coedge $-1 $299 $300 $238 $301 forward $134 $-1 #
coedge $-1 $231 $136 $137 $227 reversed $78 $-1 #
coedge $-1 $136 $231 $234 $302 reversed $78 $-1 #
coedge $-1 $300 $299 $136 $225 reversed $134 $-1 #
edge $-1 $303 -13.287143974785556 $304 13.287143974785556 $224 $305 forward 7 unknown #
coedge $-1 $138 $137 $299 $306 forward $49 $-1 #
edge $-1 $229 -5.3161187068233531 $304 5.3161187068233531 $222 $307 forward 7 unknown #
edge $-1 $308 -5.3161187068233531 $146 5.3161187068233531 $143 $309 forward 7 unknown #
vertex $-1 $227 $310 #
straight-curve $-1 0 36.244805000066457 -13.287143974785556 -1 0 0 I I #
coedge $-1 $223 $222 $140 $232 reversed $78 $-1 #
edge $-1 $236 -13.287143974785556 $229 13.287143974785556 $231 $311 forward 7 unknown #
coedge $-1 $312 $141 $144 $239 forward $235 $-1 #
coedge $-1 $141 $312 $223 $302 forward $235 $-1 #
loop $-1 $-1 $141 $219 #
vertex $-1 $142 $313 #
straight-curve $-1 0 36.244805000066457 13.287143974785556 1 0 0 I I #
coedge $-1 $144 $143 $221 $301 reversed $145 $-1 #
edge $-1 $147 -5.3161187068233531 $314 5.3161187068233531 $144 $315 forward 7 unknown #
point $-1 -39.731526299588104 36.244805000066464 -13.287143974785556 #
point $-1 -39.731526299588104 36.244805000066464 13.287143974785556 #
loop $-1 $-1 $157 $149 #
plane-surface $-1 57.957090975676749 0 0 -1 0 0 0 0 1 forward_v I I I I #
coedge $-1 $245 $152 $154 $249 reversed $86 $-1 #
coedge $-1 $152 $244 $316 $317 reversed $86 $-1 #
coedge $-1 $160 $155 $152 $247 forward $150 $-1 #
edge $-1 $250 27.053334756399423 $318 47.416366482672508 $246 $319 forward 7 unknown #
coedge $-1 $154 $153 $253 $320 reversed $53 $-1 #
edge $-1 $321 -115.91418195135353 $250 -91.902534588960364 $244 $322 forward 7 unknown #
vertex $-1 $156 $323 #
straight-curve $-1 37.594059249403671 2.1567439731171767 13.287143974785558 0 -1 0 I I #
coedge $-1 $316 $157 $160 $257 reversed $242 $-1 #
coedge $-1 $157 $316 $248 $320 forward $242 $-1 #
vertex $-1 $158 $324 #
straight-curve $-1 57.957090975676749 8.1111025627591076 80.144434471474824 0 0 1 I I #
straight-curve $-1 -40.343709838897375 8.1111025627591076 61.988068128375531 0.84804809178421925 0 -0.52991927123019833 I I #
edge $-1 $318 0.5158733297095992 $161 8.1111025627591076 $252 $325 forward 7 unknown #
point $-1 57.957090975676749 8.1111025627591076 13.287143974785556 #
point $-1 37.594059249403664 8.1111025627591076 13.287143974785558 #
edge $-1 $326 1 $326 0 $164 $-1 forward 7 unknown #
vertex $-1 $165 $327 #
ellipse-curve $-1 45.446150782274401 4.3134879462343534 3.1971685190565258 0.52991927123019833 0 0.84804809178421925 1.2720721376763289 0 -0.79487890684529749 1 I I #
point $-1 49.047647250216535 4.3134879462343534 6.1301477322823201 #
plane-surface $-1 57.957090975676749 0 0 -1 0 0 0 0 1 forward_v I I I I #
coedge $-1 $172 $171 $185 $275 forward $62 $-1 #
edge $-1 $270 -57.957090975676749 $267 57.957090975676749 $175 $328 forward 7 unknown #
vertex $-1 $174 $329 #
straight-curve $-1 57.957090975676749 0 13.287143974785556 0 1 0 I I #
straight-curve $-1 57.957090975676749 -36.244805000066457 0 0 0 -1 I I #
vertex $-1 $275 $330 #
straight-curve $-1 -57.957090975676749 -36.244805000066457 0 0 0 -1 I I #
point $-1 57.957090975676749 -36.244805000066457 -13.287143974785556 #
point $-1 -57.957090975676749 -36.244805000066457 -13.287143974785556 #
straight-curve $-1 0 36.244805000066457 13.287143974785556 -1 0 0 I I #
edge $-1 $186 -36.244805000066457 $270 36.244805000066457 $185 $331 forward 7 unknown #
point $-1 -57.957090975676749 36.244805000066457 13.287143974785556 #
point $-1 57.957090975676749 36.244805000066457 13.287143974785556 #
straight-curve $-1 57.957090975676749 0 -13.287143974785556 0 -1 0 I I #
straight-curve $-1 -57.957090975676749 0 -13.287143974785556 0 1 0 I I #
plane-surface $-1 0 0 13.287143974785556 0 0 1 1 0 0 forward_v I I I I #
coedge $-1 $204 $293 $282 $332 forward $197 $-1 #
coedge $-1 $200 $199 $281 $332 reversed $70 $-1 #
edge $-1 $289 -3.2252558071307078 $287 3.2252558071307078 $199 $333 forward 7 unknown #
coedge $-1 $212 $211 $200 $285 forward $213 $-1 #
edge $-1 $286 -3.2252558071307078 $334 3.2252558071307078 $200 $335 forward 7 unknown #
vertex $-1 $216 $336 #
vertex $-1 $206 $337 #
straight-curve $-1 -46.18203791384952 -46.87704241371317 0 0 0 -1 I I #
vertex $-1 $332 $338 #
straight-curve $-1 -39.731526299588104 -41.56092370688981 -13.287143974785556 0 -1 0 I I #
straight-curve $-1 -46.18203791384952 -41.56092370688981 -13.287143974785556 0 1 0 I I #
point $-1 -39.731526299588104 -36.244805000066449 -13.287143974785556 #
coedge $-1 $281 $209 $212 $295 reversed $197 $-1 #
straight-curve $-1 -39.731526299588104 -36.244805000066457 0 0 0 -1 I I #
edge $-1 $334 -5.3161187068233602 $214 5.3161187068233602 $293 $339 forward 7 unknown #
point $-1 -39.731526299588104 -36.244805000066449 13.287143974785556 #
straight-curve $-1 -46.18203791384952 -41.56092370688981 13.287143974785556 0 -1 0 I I #
plane-surface $-1 0 0 13.287143974785556 0 0 1 1 0 0 forward_v I I I I #
coedge $-1 $224 $221 $226 $306 reversed $134 $-1 #
coedge $-1 $221 $224 $312 $340 reversed $134 $-1 #
edge $-1 $314 -13.287143974785556 $308 13.287143974785556 $238 $341 forward 7 unknown #
edge $-1 $303 -5.3161187068233531 $236 5.3161187068233531 $223 $342 forward 7 unknown #
vertex $-1 $340 $343 #
vertex $-1 $306 $344 #
straight-curve $-1 -46.18203791384952 46.87704241371317 0 0 0 -1 I I #
edge $-1 $304 -3.2252558071307078 $308 3.2252558071307078 $299 $345 forward 7 unknown #
straight-curve $-1 -46.18203791384952 41.560923706889817 -13.287143974785556 0 1 0 I I #
vertex $-1 $228 $346 #
straight-curve $-1 -39.731526299588104 41.560923706889817 -13.287143974785556 0 -1 0 I I #
point $-1 -46.18203791384952 36.244805000066464 -13.287143974785556 #
straight-curve $-1 -46.18203791384952 36.244805000066457 0 0 0 -1 I I #
coedge $-1 $234 $233 $300 $340 forward $235 $-1 #
point $-1 -46.18203791384952 36.244805000066464 13.287143974785556 #
vertex $-1 $239 $347 #
straight-curve $-1 -39.731526299588104 41.560923706889817 13.287143974785556 0 1 0 I I #
coedge $-1 $253 $252 $245 $317 forward $242 $-1 #
edge $-1 $318 66.857290496689274 $321 79.581525168005157 $316 $348 forward 7 unknown #
vertex $-1 $257 $349 #
straight-curve $-1 10.540724493004241 0.5158733297095992 13.28714397478555 1 0 0 I I #
edge $-1 $321 -1.6408706434075775 $254 5.9543585896419309 $253 $350 forward 7 unknown #
vertex $-1 $320 $351 #
straight-curve $-1 -40.343709838897375 0.5158733297095992 61.988068128375531 -0.84804809178421925 0 0.52991927123019833 I I #
point $-1 37.594059249403664 0.5158733297095992 13.287143974785558 #
point $-1 57.957090975676756 8.1111025627591076 0.56290930346966661 #
straight-curve $-1 57.957090975676749 0 13.287143974785556 0 1 0 I I #
vertex $-1 $260 $352 #
point $-1 46.718222919950733 4.3134879462343534 2.4022896122112281 #
straight-curve $-1 0 -36.244805000066457 13.287143974785556 1 0 0 I I #
point $-1 57.957090975676749 -36.244805000066457 13.287143974785556 #
point $-1 -57.957090975676749 -36.244805000066457 13.287143974785556 #
straight-curve $-1 -57.957090975676749 0 13.287143974785556 0 -1 0 I I #
edge $-1 $334 -13.287143974785556 $289 13.287143974785556 $281 $353 forward 7 unknown #
straight-curve $-1 -42.956782106718812 -46.87704241371317 -13.287143974785556 -1 0 0 I I #
vertex $-1 $295 $354 #
straight-curve $-1 -42.956782106718812 -46.87704241371317 13.287143974785556 1 0 0 I I #
point $-1 -46.18203791384952 -46.87704241371317 13.287143974785556 #
point $-1 -46.18203791384952 -46.87704241371317 -13.287143974785556 #
point $-1 -39.731526299588104 -46.87704241371317 -13.287143974785556 #
straight-curve $-1 -39.731526299588104 -41.56092370688981 13.287143974785556 0 1 0 I I #
edge $-1 $314 -3.2252558071307078 $303 3.2252558071307078 $300 $355 forward 7 unknown #
straight-curve $-1 -39.731526299588104 46.87704241371317 0 0 0 -1 I I #
straight-curve $-1 -46.18203791384952 41.560923706889817 13.287143974785556 0 -1 0 I I #
point $-1 -46.18203791384952 46.87704241371317 13.287143974785556 #
point $-1 -46.18203791384952 46.87704241371317 -13.287143974785556 #
straight-curve $-1 -42.956782106718812 46.87704241371317 -13.287143974785556 1 0 0 I I #
point $-1 -39.731526299588104 46.87704241371317 -13.287143974785556 #
point $-1 -39.731526299588104 46.87704241371317 13.287143974785556 #
straight-curve $-1 57.957090975676749 0.5158733297095992 80.144434471474824 0 0 -1 I I #
point $-1 57.957090975676749 0.5158733297095992 13.287143974785556 #
straight-curve $-1 57.957090975676749 2.1567439731171767 0.56290930346967372 0 1 0 I I #
point $-1 57.957090975676756 0.5158733297095992 0.56290930346966661 #
point $-1 44.651271875429103 4.3134879462343534 1.9250963813801962 #
straight-curve $-1 -39.731526299588104 -46.87704241371317 0 0 0 -1 I I #
point $-1 -39.731526299588104 -46.87704241371317 13.287143974785556 #
straight-curve $-1 -42.956782106718812 46.87704241371317 13.287143974785556 -1 0 0 I I #
End-of-ACIS-data 