500 0 13 0           
7 Unknown 11 ACIS 5.0 NT 24 Fri Mar 26 20:13:33 1999 
-1 9.9999999999999995e-007 1e-010 
body $-1 $13 $-1 $14 #
body $-1 $15 $-1 $16 #
body $-1 $17 $-1 $18 #
body $-1 $19 $-1 $20 #
body $-1 $21 $-1 $22 #
body $-1 $23 $-1 $24 #
body $-1 $25 $-1 $26 #
body $-1 $27 $-1 $28 #
body $-1 $29 $-1 $30 #
body $-1 $31 $-1 $32 #
body $-1 $33 $-1 $34 #
body $-1 $35 $-1 $36 #
body $-1 $37 $-1 $38 #
lump $-1 $-1 $39 $0 #
transform $-1 1 0 0 0 1 0 0 0 1 42.920010986663414 23.724089449459751 10.912415044810706 1 rotate no_reflect no_shear #
lump $-1 $-1 $40 $1 #
transform $-1 1 0 0 0 1 0 0 0 1 42.920010986663414 23.724089449459751 10.912415044810706 1 rotate no_reflect no_shear #
lump $-1 $-1 $41 $2 #
transform $-1 1 0 0 0 1 0 0 0 1 42.920010986663414 23.724089449459751 10.912415044810706 1 rotate no_reflect no_shear #
lump $-1 $-1 $42 $3 #
transform $-1 1 0 0 0 1 0 0 0 1 42.920010986663414 23.724089449459751 10.912415044810706 1 rotate no_reflect no_shear #
lump $-1 $-1 $43 $4 #
transform $-1 1 0 0 0 1 0 0 0 1 42.920010986663414 23.724089449459751 10.912415044810706 1 rotate no_reflect no_shear #
lump $-1 $-1 $44 $5 #
transform $-1 1 0 0 0 1 0 0 0 1 42.920010986663414 23.724089449459751 10.912415044810706 1 rotate no_reflect no_shear #
lump $-1 $-1 $45 $6 #
transform $-1 1 0 0 0 1 0 0 0 1 42.920010986663414 23.724089449459751 10.912415044810706 1 rotate no_reflect no_shear #
lump $-1 $-1 $46 $7 #
transform $-1 1 0 0 0 1 0 0 0 1 42.920010986663414 23.724089449459751 10.912415044810706 1 rotate no_reflect no_shear #
lump $-1 $-1 $47 $8 #
transform $-1 1 0 0 0 1 0 0 0 1 42.920010986663414 23.724089449459751 10.912415044810706 1 rotate no_reflect no_shear #
lump $-1 $-1 $48 $9 #
transform $-1 1 0 0 0 1 0 0 0 1 42.920010986663414 23.724089449459751 10.912415044810706 1 rotate no_reflect no_shear #
lump $-1 $-1 $49 $10 #
transform $-1 1 0 0 0 1 0 0 0 1 42.920010986663414 23.724089449459751 10.912415044810706 1 rotate no_reflect no_shear #
lump $-1 $-1 $50 $11 #
transform $-1 1 0 0 0 1 0 0 0 1 42.920010986663414 23.724089449459751 10.912415044810706 1 rotate no_reflect no_shear #
lump $-1 $-1 $51 $12 #
transform $-1 1 0 0 0 1 0 0 0 1 42.920010986663414 23.724089449459751 10.912415044810706 1 rotate no_reflect no_shear #
shell $-1 $-1 $-1 $52 $-1 $13 #
shell $-1 $-1 $-1 $53 $-1 $15 #
shell $-1 $-1 $-1 $54 $-1 $17 #
shell $-1 $-1 $-1 $55 $-1 $19 #
shell $-1 $-1 $-1 $56 $-1 $21 #
shell $-1 $-1 $-1 $57 $-1 $23 #
shell $-1 $-1 $-1 $58 $-1 $25 #
shell $-1 $-1 $-1 $59 $-1 $27 #
shell $-1 $-1 $-1 $60 $-1 $29 #
shell $-1 $-1 $-1 $61 $-1 $31 #
shell $-1 $-1 $-1 $62 $-1 $33 #
shell $-1 $-1 $-1 $63 $-1 $35 #
shell $-1 $-1 $-1 $64 $-1 $37 #
face $-1 $65 $66 $39 $-1 $67 reversed single #
face $-1 $68 $69 $40 $-1 $70 forward single #
face $-1 $71 $72 $41 $-1 $73 forward single #
face $-1 $74 $75 $42 $-1 $76 reversed single #
face $-1 $77 $78 $43 $-1 $79 forward single #
face $-1 $80 $81 $44 $-1 $82 reversed single #
face $-1 $83 $84 $45 $-1 $85 forward single #
face $-1 $86 $87 $46 $-1 $88 forward single #
face $-1 $89 $90 $47 $-1 $91 forward single #
face $-1 $92 $93 $48 $-1 $94 reversed single #
face $-1 $95 $96 $49 $-1 $97 forward single #
face $-1 $98 $99 $50 $-1 $100 forward single #
face $-1 $101 $102 $51 $-1 $103 forward single #
face $-1 $104 $105 $39 $-1 $106 reversed single #
loop $-1 $-1 $107 $52 #
plane-surface $-1 42.920010986663414 0 0 -1 0 0 0 0 1 forward_v I I I I #
face $-1 $108 $109 $40 $-1 $110 reversed single #
loop $-1 $-1 $111 $53 #
plane-surface $-1 -42.920010986663414 0 0 1 0 0 0 0 -1 forward_v I I I I #
face $-1 $112 $113 $41 $-1 $114 reversed single #
loop $-1 $-1 $115 $54 #
plane-surface $-1 42.920010986663414 0 0 -1 0 0 0 0 1 forward_v I I I I #
face $-1 $116 $117 $42 $-1 $118 reversed single #
loop $-1 $-1 $119 $55 #
plane-surface $-1 -14.814770545006221 -95.71559011736872 50.43625295732879 -1 0 0 0 -0.83867057594974714 0.54463902268945019 forward_v I I I I #
face $-1 $120 $121 $43 $-1 $122 forward single #
loop $-1 $123 $124 $56 #
cone-surface $-1 -19.572467769540076 -20.248613575913861 6.5655511580127923 0 0.83867057594974714 -0.54463902268945019 1 0 0 1 I I 0 1 1 forward I I I I #
face $-1 $125 $126 $44 $-1 $127 reversed single #
loop $-1 $-1 $128 $57 #
plane-surface $-1 -16.455403451401626 50.871223123151736 97.895264588142552 1 0 0 0 -0.70710678939079041 -0.70710677298230451 forward_v I I I I #
face $-1 $129 $130 $45 $-1 $131 forward single #
loop $-1 $132 $133 $58 #
cone-surface $-1 -13.164322761121298 19.185528811661793 6.3738543437189774 0 -0.70710678939079041 -0.70710677298230451 1 0 0 1 I I 0 1 1 forward I I I I #
face $-1 $134 $135 $46 $-1 $136 forward single #
loop $-1 $137 $138 $59 #
cone-surface $-1 -8.2277017257008112 19.185528811661793 6.3738543437189774 0 -0.70710678939079041 -0.70710677298230451 1 0 0 1 I I 0 1 1 forward I I I I #
face $-1 $139 $140 $47 $-1 $141 forward single #
loop $-1 $142 $143 $60 #
cone-surface $-1 -3.2910806902803245 19.185528811661793 6.3738543437189774 0 -0.70710678939079041 -0.70710677298230451 1 0 0 1 I I 0 1 1 forward I I I I #
face $-1 $144 $145 $48 $-1 $146 reversed single #
loop $-1 $-1 $147 $61 #
plane-surface $-1 -8.2277017257008112 -9.8268392156422948 37.197203657853308 0 0.70710678939079041 0.70710677298230451 1 0 0 forward_v I I I I #
face $-1 $148 $149 $49 $-1 $150 forward single #
loop $-1 $151 $152 $62 #
cone-surface $-1 3.2910806902803316 19.185528811661793 6.3738543437189774 0 -0.70710678939079041 -0.70710677298230451 1 0 0 1 I I 0 1 1 forward I I I I #
face $-1 $153 $154 $50 $-1 $155 forward single #
loop $-1 $156 $157 $63 #
cone-surface $-1 8.2277017257008183 19.185528811661793 6.3738543437189774 0 -0.70710678939079041 -0.70710677298230451 1 0 0 1 I I 0 1 1 forward I I I I #
face $-1 $158 $159 $51 $-1 $160 forward single #
loop $-1 $161 $162 $64 #
cone-surface $-1 13.164322761121305 19.185528811661793 6.3738543437189774 0 -0.70710678939079041 -0.70710677298230451 1 0 0 1 I I 0 1 1 forward I I I I #
face $-1 $163 $164 $39 $-1 $165 forward single #
loop $-1 $-1 $166 $65 #
plane-surface $-1 -42.920010986663414 0 0 1 0 0 0 0 -1 forward_v I I I I #
coedge $-1 $167 $168 $169 $170 reversed $66 $-1 #
face $-1 $171 $172 $40 $-1 $173 reversed single #
loop $-1 $-1 $174 $68 #
plane-surface $-1 0 0 -10.912415044810706 0 0 1 1 0 0 forward_v I I I I #
coedge $-1 $175 $176 $177 $178 forward $69 $-1 #
face $-1 $179 $180 $41 $-1 $181 reversed single #
loop $-1 $-1 $182 $71 #
plane-surface $-1 0 0 -10.912415044810706 0 0 1 1 0 0 forward_v I I I I #
coedge $-1 $183 $184 $185 $186 forward $72 $-1 #
face $-1 $187 $188 $42 $-1 $189 reversed single #
loop $-1 $-1 $190 $74 #
plane-surface $-1 -19.572467769540076 -23.724089449459754 3.6844272821351396 0 -0.83867057594974714 0.54463902268945019 1 0 0 forward_v I I I I #
coedge $-1 $191 $192 $193 $194 reversed $75 $-1 #
face $-1 $-1 $195 $43 $-1 $196 forward single #
loop $-1 $197 $198 $77 #
cone-surface $-1 -19.572467769540076 -18.700757407190419 5.5603616412079422 0 0.83867057594974714 -0.54463902268945019 0.5 0 0 1 I I -0.70710678118654746 0.70710678118654746 0.5 forward I I I I #
loop $-1 $-1 $199 $56 #
coedge $-1 $124 $124 $200 $201 reversed $78 $-1 #
face $-1 $202 $203 $44 $-1 $204 reversed single #
loop $-1 $-1 $205 $80 #
plane-surface $-1 -8.2277017257008112 -9.8268392156422948 37.197203657853308 0 0.70710678939079041 0.70710677298230451 1 0 0 forward_v I I I I #
coedge $-1 $206 $207 $208 $209 reversed $81 $-1 #
face $-1 $-1 $210 $45 $-1 $211 forward single #
loop $-1 $212 $213 $83 #
cone-surface $-1 -13.164322761121298 17.92648511016878 5.1148106714422017 0 -0.70710678939079041 -0.70710677298230451 0.5 0 0 1 I I -0.70710678118654746 0.70710678118654746 0.5 forward I I I I #
loop $-1 $-1 $214 $58 #
coedge $-1 $133 $133 $215 $216 reversed $84 $-1 #
face $-1 $-1 $217 $46 $-1 $218 forward single #
loop $-1 $219 $220 $86 #
cone-surface $-1 -8.2277017257008112 17.92648511016878 5.1148106714422017 0 -0.70710678939079041 -0.70710677298230451 0.5 0 0 1 I I -0.70710678118654746 0.70710678118654746 0.5 forward I I I I #
loop $-1 $-1 $221 $59 #
coedge $-1 $138 $138 $222 $223 reversed $87 $-1 #
face $-1 $-1 $224 $47 $-1 $225 forward single #
loop $-1 $226 $227 $89 #
cone-surface $-1 -3.2910806902803245 17.92648511016878 5.1148106714422017 0 -0.70710678939079041 -0.70710677298230451 0.5 0 0 1 I I -0.70710678118654746 0.70710678118654746 0.5 forward I I I I #
loop $-1 $-1 $228 $60 #
coedge $-1 $143 $143 $229 $230 reversed $90 $-1 #
face $-1 $231 $232 $48 $-1 $233 reversed single #
loop $-1 $-1 $234 $92 #
plane-surface $-1 16.455403451401633 50.871223123151736 97.895264588142552 -1 0 0 0 0.70710678939079041 0.70710677298230451 forward_v I I I I #
coedge $-1 $235 $236 $237 $238 reversed $93 $-1 #
face $-1 $-1 $239 $49 $-1 $240 forward single #
loop $-1 $241 $242 $95 #
cone-surface $-1 3.2910806902803316 17.92648511016878 5.1148106714422017 0 -0.70710678939079041 -0.70710677298230451 0.5 0 0 1 I I -0.70710678118654746 0.70710678118654746 0.5 forward I I I I #
loop $-1 $-1 $243 $62 #
coedge $-1 $152 $152 $244 $245 reversed $96 $-1 #
face $-1 $-1 $246 $50 $-1 $247 forward single #
loop $-1 $248 $249 $98 #
cone-surface $-1 8.2277017257008183 17.92648511016878 5.1148106714422017 0 -0.70710678939079041 -0.70710677298230451 0.5 0 0 1 I I -0.70710678118654746 0.70710678118654746 0.5 forward I I I I #
loop $-1 $-1 $250 $63 #
coedge $-1 $157 $157 $251 $252 reversed $99 $-1 #
face $-1 $-1 $253 $51 $-1 $254 forward single #
loop $-1 $255 $256 $101 #
cone-surface $-1 13.164322761121305 17.92648511016878 5.1148106714422017 0 -0.70710678939079041 -0.70710677298230451 0.5 0 0 1 I I -0.70710678118654746 0.70710678118654746 0.5 forward I I I I #
loop $-1 $-1 $257 $64 #
coedge $-1 $162 $162 $258 $259 reversed $102 $-1 #
face $-1 $260 $261 $39 $-1 $262 reversed single #
loop $-1 $-1 $263 $104 #
plane-surface $-1 0 0 10.912415044810706 0 0 1 1 0 0 forward_v I I I I #
coedge $-1 $264 $265 $266 $267 reversed $105 $-1 #
coedge $-1 $268 $107 $269 $270 reversed $66 $-1 #
coedge $-1 $107 $268 $271 $272 forward $66 $-1 #
coedge $-1 $273 $274 $107 $170 forward $261 $-1 #
edge $-1 $275 -23.724089449459751 $276 23.724089449459751 $107 $277 forward 7 unknown #
face $-1 $278 $279 $40 $-1 $280 reversed single #
loop $-1 $-1 $281 $108 #
plane-surface $-1 -47.365690310970955 -5.6528477252688489 0 0 1 0 0 0 1 forward_v I I I I #
coedge $-1 $282 $283 $176 $284 forward $109 $-1 #
coedge $-1 $285 $111 $286 $287 reversed $69 $-1 #
coedge $-1 $111 $285 $174 $284 reversed $69 $-1 #
coedge $-1 $288 $289 $111 $178 reversed $290 $-1 #
edge $-1 $291 -10.912415044810706 $292 10.912415044810706 $177 $293 forward 7 unknown #
face $-1 $294 $295 $41 $-1 $296 reversed single #
loop $-1 $-1 $185 $112 #
plane-surface $-1 47.365690310970962 -5.6528477252688489 0 0 1 0 0 0 1 forward_v I I I I #
coedge $-1 $297 $298 $184 $299 forward $113 $-1 #
coedge $-1 $300 $115 $301 $302 reversed $72 $-1 #
coedge $-1 $115 $300 $182 $299 reversed $72 $-1 #
coedge $-1 $303 $304 $115 $186 reversed $180 $-1 #
edge $-1 $305 -10.912415044810706 $306 10.912415044810706 $185 $307 forward 7 unknown #
face $-1 $308 $309 $42 $-1 $310 forward single #
loop $-1 $-1 $311 $116 #
plane-surface $-1 -24.330164994073932 -95.71559011736872 50.43625295732879 1 0 0 0 0.83867057594974714 -0.54463902268945019 forward_v I I I I #
coedge $-1 $312 $313 $314 $315 reversed $117 $-1 #
coedge $-1 $192 $119 $316 $317 reversed $75 $-1 #
coedge $-1 $119 $191 $312 $318 reversed $75 $-1 #
coedge $-1 $314 $319 $119 $194 forward $309 $-1 #
edge $-1 $320 24.133705609224609 $321 28.827615594819246 $193 $322 forward 7 unknown #
loop $-1 $-1 $200 $120 #
plane-surface $-1 -19.572467769540076 -23.724089449459754 3.6844272821351396 0 -0.83867057594974714 0.54463902268945019 1 0 0 forward_v I I I I #
loop $-1 $-1 $323 $77 #
coedge $-1 $198 $198 $199 $324 reversed $121 $-1 #
coedge $-1 $199 $199 $198 $324 forward $123 $-1 #
coedge $-1 $200 $200 $124 $201 forward $195 $-1 #
edge $-1 $325 1.3355048769757964e-015 $325 6.2831853071796022 $200 $326 forward 7 unknown #
face $-1 $327 $328 $44 $-1 $329 reversed single #
loop $-1 $-1 $330 $125 #
plane-surface $-1 3.5527136788005009e-015 50.871223123151736 97.895264588142552 -1 0 0 0 0.70710678939079041 0.70710677298230451 forward_v I I I I #
coedge $-1 $331 $332 $333 $334 reversed $126 $-1 #
coedge $-1 $207 $128 $335 $336 reversed $81 $-1 #
coedge $-1 $128 $206 $331 $337 reversed $81 $-1 #
coedge $-1 $333 $338 $128 $209 forward $339 $-1 #
edge $-1 $340 1.7115221121161177 $341 8.9776627741167907 $208 $342 forward 7 unknown #
loop $-1 $-1 $215 $129 #
plane-surface $-1 -8.2277017257008112 -9.8268392156422948 37.197203657853308 0 0.70710678939079041 0.70710677298230451 1 0 0 forward_v I I I I #
loop $-1 $-1 $343 $83 #
coedge $-1 $213 $213 $214 $344 reversed $130 $-1 #
coedge $-1 $214 $214 $213 $344 forward $132 $-1 #
coedge $-1 $215 $215 $133 $216 forward $210 $-1 #
edge $-1 $345 2.5121479047467141e-015 $345 6.2831853071796031 $215 $346 forward 7 unknown #
loop $-1 $-1 $222 $134 #
plane-surface $-1 -8.2277017257008112 -9.8268392156422948 37.197203657853308 0 0.70710678939079041 0.70710677298230451 1 0 0 forward_v I I I I #
loop $-1 $-1 $347 $86 #
coedge $-1 $220 $220 $221 $348 reversed $135 $-1 #
coedge $-1 $221 $221 $220 $348 forward $137 $-1 #
coedge $-1 $222 $222 $138 $223 forward $217 $-1 #
edge $-1 $349 2.5121479047467141e-015 $349 6.2831853071796031 $222 $350 forward 7 unknown #
loop $-1 $-1 $229 $139 #
plane-surface $-1 -8.2277017257008112 -9.8268392156422948 37.197203657853308 0 0.70710678939079041 0.70710677298230451 1 0 0 forward_v I I I I #
loop $-1 $-1 $351 $89 #
coedge $-1 $227 $227 $228 $352 reversed $140 $-1 #
coedge $-1 $228 $228 $227 $352 forward $142 $-1 #
coedge $-1 $229 $229 $143 $230 forward $224 $-1 #
edge $-1 $353 2.5121479047467141e-015 $353 6.2831853071796031 $229 $354 forward 7 unknown #
face $-1 $355 $356 $48 $-1 $357 forward single #
loop $-1 $-1 $358 $144 #
plane-surface $-1 0 23.724089449459751 0 0 -1 0 0 0 -1 forward_v I I I I #
coedge $-1 $359 $360 $361 $362 reversed $145 $-1 #
coedge $-1 $363 $147 $364 $365 reversed $93 $-1 #
coedge $-1 $147 $363 $366 $367 reversed $93 $-1 #
coedge $-1 $368 $369 $147 $238 forward $356 $-1 #
edge $-1 $370 -47.448178898919522 $371 -37.172304109381173 $237 $372 forward 7 unknown #
loop $-1 $-1 $244 $148 #
plane-surface $-1 -8.2277017257008112 -9.8268392156422948 37.197203657853308 0 0.70710678939079041 0.70710677298230451 1 0 0 forward_v I I I I #
loop $-1 $-1 $373 $95 #
coedge $-1 $242 $242 $243 $374 reversed $149 $-1 #
coedge $-1 $243 $243 $242 $374 forward $151 $-1 #
coedge $-1 $244 $244 $152 $245 forward $239 $-1 #
edge $-1 $375 2.5121479047467141e-015 $375 6.2831853071796031 $244 $376 forward 7 unknown #
loop $-1 $-1 $251 $153 #
plane-surface $-1 -8.2277017257008112 -9.8268392156422948 37.197203657853308 0 0.70710678939079041 0.70710677298230451 1 0 0 forward_v I I I I #
loop $-1 $-1 $377 $98 #
coedge $-1 $249 $249 $250 $378 reversed $154 $-1 #
coedge $-1 $250 $250 $249 $378 forward $156 $-1 #
coedge $-1 $251 $251 $157 $252 forward $246 $-1 #
edge $-1 $379 2.5121479047467141e-015 $379 6.2831853071796031 $251 $380 forward 7 unknown #
loop $-1 $-1 $258 $158 #
plane-surface $-1 -8.2277017257008112 -9.8268392156422948 37.197203657853308 0 0.70710678939079041 0.70710677298230451 1 0 0 forward_v I I I I #
loop $-1 $-1 $381 $101 #
coedge $-1 $256 $256 $257 $382 reversed $159 $-1 #
coedge $-1 $257 $257 $256 $382 forward $161 $-1 #
coedge $-1 $258 $258 $162 $259 forward $253 $-1 #
edge $-1 $383 2.5121479047467141e-015 $383 6.2831853071796031 $258 $384 forward 7 unknown #
face $-1 $385 $386 $39 $-1 $387 reversed single #
loop $-1 $-1 $169 $163 #
plane-surface $-1 0 0 -10.912415044810706 0 0 1 1 0 0 forward_v I I I I #
coedge $-1 $388 $389 $268 $390 forward $164 $-1 #
coedge $-1 $391 $166 $392 $393 reversed $105 $-1 #
coedge $-1 $166 $391 $394 $395 forward $105 $-1 #
coedge $-1 $274 $273 $166 $267 forward $261 $-1 #
edge $-1 $396 -23.724089449459751 $397 23.724089449459751 $166 $398 forward 7 unknown #
coedge $-1 $168 $167 $263 $390 reversed $66 $-1 #
coedge $-1 $399 $400 $167 $270 forward $401 $-1 #
edge $-1 $402 -10.912415044810706 $275 10.912415044810706 $167 $403 forward 7 unknown #
coedge $-1 $404 $405 $168 $272 reversed $386 $-1 #
edge $-1 $406 -10.912415044810706 $276 10.912415044810706 $168 $407 forward 7 unknown #
coedge $-1 $266 $169 $405 $408 forward $261 $-1 #
coedge $-1 $169 $266 $399 $409 forward $261 $-1 #
vertex $-1 $170 $410 #
vertex $-1 $272 $411 #
straight-curve $-1 42.920010986663414 0 -10.912415044810706 0 -1 0 I I #
face $-1 $412 $290 $40 $-1 $413 reversed single #
loop $-1 $-1 $414 $171 #
plane-surface $-1 -51.811369635278496 -3.7760535425535942 0 1 0 0 0 0 -1 forward_v I I I I #
coedge $-1 $415 $416 $417 $418 forward $172 $-1 #
coedge $-1 $419 $174 $415 $420 forward $109 $-1 #
coedge $-1 $174 $419 $288 $421 forward $109 $-1 #
edge $-1 $291 1.8992593598383394 $422 5.6528477252688489 $174 $423 forward 7 unknown #
coedge $-1 $176 $175 $424 $425 forward $69 $-1 #
coedge $-1 $426 $427 $175 $287 forward $428 $-1 #
edge $-1 $429 -5.6528477252688489 $292 -1.8992593598383394 $286 $430 forward 7 unknown #
coedge $-1 $431 $177 $283 $421 reversed $290 $-1 #
coedge $-1 $177 $431 $426 $432 reversed $290 $-1 #
loop $-1 $-1 $177 $278 #
vertex $-1 $284 $433 #
vertex $-1 $432 $434 #
straight-curve $-1 -42.920010986663414 -1.8992593598383394 0 0 0 1 I I #
face $-1 $435 $436 $41 $-1 $437 reversed single #
loop $-1 $-1 $438 $179 #
plane-surface $-1 47.365690310970962 -1.8992593598383394 0 0 -1 0 0 0 -1 forward_v I I I I #
coedge $-1 $439 $182 $440 $441 forward $113 $-1 #
coedge $-1 $182 $439 $303 $442 forward $113 $-1 #
edge $-1 $305 -5.6528477252688489 $443 -1.8992593598383394 $182 $444 forward 7 unknown #
coedge $-1 $184 $183 $445 $446 forward $72 $-1 #
coedge $-1 $447 $448 $183 $302 forward $449 $-1 #
edge $-1 $450 1.8992593598383394 $306 5.6528477252688489 $301 $451 forward 7 unknown #
coedge $-1 $452 $185 $298 $442 reversed $180 $-1 #
coedge $-1 $185 $452 $447 $453 reversed $180 $-1 #
vertex $-1 $299 $454 #
vertex $-1 $453 $455 #
straight-curve $-1 42.920010986663414 -5.6528477252688489 0 0 0 1 I I #
face $-1 $-1 $456 $42 $-1 $457 reversed single #
loop $-1 $-1 $193 $187 #
plane-surface $-1 0 0 10.912415044810706 0 0 1 1 0 0 forward_v I I I I #
coedge $-1 $458 $459 $460 $461 reversed $188 $-1 #
coedge $-1 $462 $190 $192 $318 forward $117 $-1 #
coedge $-1 $190 $462 $458 $463 forward $117 $-1 #
coedge $-1 $460 $193 $190 $315 forward $309 $-1 #
edge $-1 $321 5.028536660236183 $464 14.543931109303895 $314 $465 forward 7 unknown #
coedge $-1 $466 $467 $191 $317 forward $456 $-1 #
edge $-1 $468 -21.533699196529248 $320 -14.305711433853689 $316 $469 forward 7 unknown #
edge $-1 $321 -8.6183872070273573 $468 -6.4042811466935879e-015 $192 $470 forward 7 unknown #
coedge $-1 $193 $460 $466 $471 forward $309 $-1 #
vertex $-1 $194 $472 #
vertex $-1 $194 $473 #
straight-curve $-1 -14.814770545006221 -47.85779505868436 10.912415044810704 0 1 0 I I #
coedge $-1 $323 $323 $-1 $474 reversed $197 $-1 #
edge $-1 $475 0 $475 6.2831853071796004 $198 $476 forward 7 unknown #
vertex $-1 $201 $477 #
ellipse-curve $-1 -19.572467769540076 -21.377134456662436 7.2984211634729217 0 -0.83867057594974714 0.54463902268945019 1 0 0 1 I I #
face $-1 $-1 $339 $44 $-1 $478 forward single #
loop $-1 $-1 $479 $202 #
plane-surface $-1 0 23.724089449459751 0 0 -1 0 0 0 -1 forward_v I I I I #
coedge $-1 $480 $481 $482 $483 reversed $203 $-1 #
coedge $-1 $484 $205 $207 $337 forward $126 $-1 #
coedge $-1 $205 $484 $480 $485 forward $126 $-1 #
coedge $-1 $482 $208 $205 $334 forward $339 $-1 #
edge $-1 $341 -12.34155258855122 $486 4.1138508628504091 $333 $487 forward 7 unknown #
coedge $-1 $488 $489 $206 $336 forward $328 $-1 #
edge $-1 $490 -45.301358079872792 $340 -38.035217249260569 $335 $491 forward 7 unknown #
edge $-1 $341 37.172304109381173 $490 47.448178898919522 $207 $492 forward 7 unknown #
coedge $-1 $208 $482 $488 $493 forward $339 $-1 #
loop $-1 $-1 $482 $327 #
vertex $-1 $336 $494 #
vertex $-1 $209 $495 #
straight-curve $-1 -16.455403451401626 25.435611561575868 10.912415044810707 0 -1 0 I I #
coedge $-1 $343 $343 $-1 $496 reversed $212 $-1 #
edge $-1 $497 0 $497 6.2831853071796004 $213 $498 forward 7 unknown #
vertex $-1 $216 $499 #
ellipse-curve $-1 -13.164322761121298 20.09101911845941 7.2793446295045996 0 0.70710678939079041 0.70710677298230451 1 0 0 1 I I #
coedge $-1 $347 $347 $-1 $500 reversed $219 $-1 #
edge $-1 $501 0 $501 6.2831853071796004 $220 $502 forward 7 unknown #
vertex $-1 $223 $503 #
ellipse-curve $-1 -8.2277017257008112 20.09101911845941 7.2793446295045996 0 0.70710678939079041 0.70710677298230451 1 0 0 1 I I #
coedge $-1 $351 $351 $-1 $504 reversed $226 $-1 #
edge $-1 $505 0 $505 6.2831853071796004 $227 $506 forward 7 unknown #
vertex $-1 $230 $507 #
ellipse-curve $-1 -3.2910806902803245 20.09101911845941 7.2793446295045996 0 0.70710678939079041 0.70710677298230451 1 0 0 1 I I #
face $-1 $-1 $508 $48 $-1 $509 forward single #
loop $-1 $-1 $368 $231 #
plane-surface $-1 3.5527136788005009e-015 50.871223123151736 97.895264588142552 -1 0 0 0 0.70710678939079041 0.70710677298230451 forward_v I I I I #
coedge $-1 $364 $510 $360 $511 forward $232 $-1 #
coedge $-1 $360 $234 $363 $512 reversed $145 $-1 #
coedge $-1 $234 $359 $358 $511 reversed $145 $-1 #
coedge $-1 $513 $366 $234 $362 forward $508 $-1 #
edge $-1 $514 -8.9776627741167907 $515 -1.7115221121161177 $361 $516 forward 7 unknown #
coedge $-1 $236 $235 $359 $512 forward $93 $-1 #
coedge $-1 $517 $358 $235 $365 forward $232 $-1 #
edge $-1 $518 -20.569254314252039 $370 -4.1138508628504091 $364 $519 forward 7 unknown #
coedge $-1 $361 $520 $236 $367 forward $508 $-1 #
edge $-1 $371 4.1138508628504091 $514 20.569254314252039 $366 $521 forward 7 unknown #
coedge $-1 $369 $237 $520 $522 reversed $356 $-1 #
coedge $-1 $237 $368 $517 $523 reversed $356 $-1 #
vertex $-1 $365 $524 #
vertex $-1 $367 $525 #
straight-curve $-1 3.5527136788005009e-015 -9.8268392156422948 37.197203657853308 0 -0.70710677298230451 0.70710678939079041 I I #
coedge $-1 $373 $373 $-1 $526 reversed $241 $-1 #
edge $-1 $527 0 $527 6.2831853071796004 $242 $528 forward 7 unknown #
vertex $-1 $245 $529 #
ellipse-curve $-1 3.2910806902803316 20.09101911845941 7.2793446295045996 0 0.70710678939079041 0.70710677298230451 1 0 0 1 I I #
coedge $-1 $377 $377 $-1 $530 reversed $248 $-1 #
edge $-1 $531 0 $531 6.2831853071796004 $249 $532 forward 7 unknown #
vertex $-1 $252 $533 #
ellipse-curve $-1 8.2277017257008183 20.09101911845941 7.2793446295045996 0 0.70710678939079041 0.70710677298230451 1 0 0 1 I I #
coedge $-1 $381 $381 $-1 $534 reversed $255 $-1 #
edge $-1 $535 0 $535 6.2831853071796004 $256 $536 forward 7 unknown #
vertex $-1 $259 $537 #
ellipse-curve $-1 13.164322761121305 20.09101911845941 7.2793446295045996 0 0.70710678939079041 0.70710677298230451 1 0 0 1 I I #
face $-1 $-1 $401 $39 $-1 $538 reversed single #
loop $-1 $-1 $392 $260 #
plane-surface $-1 0 -23.724089449459751 0 0 1 0 0 0 1 forward_v I I I I #
coedge $-1 $539 $263 $400 $540 forward $164 $-1 #
coedge $-1 $263 $539 $404 $541 forward $164 $-1 #
edge $-1 $406 -23.724089449459751 $402 23.724089449459751 $268 $542 forward 7 unknown #
coedge $-1 $265 $264 $539 $543 reversed $105 $-1 #
coedge $-1 $405 $404 $264 $393 forward $386 $-1 #
edge $-1 $544 -10.912415044810706 $396 10.912415044810706 $264 $545 forward 7 unknown #
coedge $-1 $400 $399 $265 $395 reversed $401 $-1 #
edge $-1 $546 -10.912415044810706 $397 10.912415044810706 $394 $547 forward 7 unknown #
vertex $-1 $267 $548 #
vertex $-1 $409 $549 #
straight-curve $-1 -42.920010986663414 0 -10.912415044810706 0 1 0 I I #
coedge $-1 $394 $269 $274 $409 reversed $401 $-1 #
coedge $-1 $269 $394 $388 $540 reversed $401 $-1 #
loop $-1 $-1 $269 $385 #
vertex $-1 $390 $550 #
straight-curve $-1 42.920010986663414 23.724089449459751 0 0 0 -1 I I #
coedge $-1 $392 $271 $389 $541 reversed $386 $-1 #
coedge $-1 $271 $392 $273 $408 reversed $386 $-1 #
vertex $-1 $390 $551 #
straight-curve $-1 42.920010986663414 -23.724089449459751 0 0 0 -1 I I #
edge $-1 $276 -42.920010986663414 $396 42.920010986663414 $405 $552 forward 7 unknown #
edge $-1 $397 -42.920010986663414 $275 42.920010986663414 $399 $553 forward 7 unknown #
point $-1 42.920010986663414 23.724089449459751 -10.912415044810706 #
point $-1 42.920010986663414 -23.724089449459751 -10.912415044810706 #
face $-1 $-1 $428 $40 $-1 $554 forward single #
plane-surface $-1 -47.365690310970955 -1.8992593598383394 0 0 -1 0 0 0 -1 forward_v I I I I #
coedge $-1 $555 $556 $431 $557 forward $279 $-1 #
coedge $-1 $424 $281 $282 $420 reversed $172 $-1 #
coedge $-1 $281 $424 $427 $558 reversed $172 $-1 #
coedge $-1 $556 $555 $281 $418 reversed $279 $-1 #
edge $-1 $559 -10.912415044810706 $560 10.912415044810706 $417 $561 forward 7 unknown #
coedge $-1 $283 $282 $555 $562 forward $109 $-1 #
edge $-1 $422 -4.445679324307541 $560 4.445679324307541 $415 $563 forward 7 unknown #
edge $-1 $564 -4.445679324307541 $291 4.445679324307541 $288 $565 forward 7 unknown #
vertex $-1 $420 $566 #
straight-curve $-1 -42.920010986663414 0 -10.912415044810706 0 -1 0 I I #
coedge $-1 $416 $415 $285 $425 reversed $172 $-1 #
edge $-1 $429 -10.912415044810706 $422 10.912415044810706 $424 $567 forward 7 unknown #
coedge $-1 $568 $286 $289 $432 forward $428 $-1 #
coedge $-1 $286 $568 $416 $558 forward $428 $-1 #
loop $-1 $-1 $286 $412 #
vertex $-1 $287 $569 #
straight-curve $-1 -42.920010986663414 0 10.912415044810706 0 1 0 I I #
coedge $-1 $289 $288 $414 $557 reversed $290 $-1 #
edge $-1 $292 -4.445679324307541 $570 4.445679324307541 $289 $571 forward 7 unknown #
point $-1 -42.920010986663414 -1.8992593598383394 -10.912415044810706 #
point $-1 -42.920010986663414 -1.8992593598383394 10.912415044810706 #
face $-1 $-1 $449 $41 $-1 $572 forward single #
loop $-1 $-1 $573 $294 #
plane-surface $-1 51.811369635278503 -3.7760535425535942 0 -1 0 0 0 0 1 forward_v I I I I #
coedge $-1 $440 $574 $575 $576 forward $295 $-1 #
coedge $-1 $298 $297 $577 $578 forward $113 $-1 #
coedge $-1 $445 $438 $297 $441 reversed $295 $-1 #
edge $-1 $443 -4.445679324307541 $579 4.445679324307541 $440 $580 forward 7 unknown #
edge $-1 $581 -4.445679324307541 $305 4.445679324307541 $303 $582 forward 7 unknown #
vertex $-1 $441 $583 #
straight-curve $-1 42.920010986663414 0 -10.912415044810706 0 1 0 I I #
coedge $-1 $574 $440 $300 $446 reversed $295 $-1 #
edge $-1 $450 -10.912415044810706 $443 10.912415044810706 $445 $584 forward 7 unknown #
coedge $-1 $585 $301 $304 $453 forward $449 $-1 #
coedge $-1 $301 $585 $574 $586 forward $449 $-1 #
loop $-1 $-1 $301 $435 #
vertex $-1 $302 $587 #
straight-curve $-1 42.920010986663414 0 10.912415044810706 0 -1 0 I I #
coedge $-1 $304 $303 $573 $588 reversed $180 $-1 #
edge $-1 $306 -4.445679324307541 $589 4.445679324307541 $304 $590 forward 7 unknown #
point $-1 42.920010986663421 -5.6528477252688489 -10.912415044810706 #
point $-1 42.920010986663421 -5.6528477252688489 10.912415044810706 #
loop $-1 $-1 $316 $308 #
plane-surface $-1 0 -23.724089449459751 0 0 1 0 0 0 1 forward_v I I I I #
coedge $-1 $459 $311 $313 $463 reversed $188 $-1 #
coedge $-1 $311 $458 $591 $592 reversed $188 $-1 #
coedge $-1 $319 $314 $311 $461 forward $309 $-1 #
edge $-1 $464 -28.827615594819246 $593 -24.133705609224609 $460 $594 forward 7 unknown #
coedge $-1 $313 $312 $467 $595 reversed $117 $-1 #
edge $-1 $596 6.4042811466935879e-015 $464 8.6183872070273573 $458 $597 forward 7 unknown #
vertex $-1 $315 $598 #
straight-curve $-1 -9.7862338847700379 -19.030179463865117 10.912415044810706 -1 0 0 I I #
coedge $-1 $591 $316 $319 $471 reversed $456 $-1 #
coedge $-1 $316 $591 $462 $595 forward $456 $-1 #
vertex $-1 $317 $599 #
straight-curve $-1 -14.814770545006221 -23.724089449459747 25.218126478664395 0 0 1 I I #
straight-curve $-1 -14.814770545006221 -23.724089449459754 3.6844272821351396 0 -0.54463902268945019 -0.83867057594974714 I I #
edge $-1 $593 -24.330164994073932 $320 -14.814770545006221 $466 $600 forward 7 unknown #
point $-1 -14.814770545006221 -23.724089449459751 10.912415044810706 #
point $-1 -14.814770545006221 -19.030179463865114 10.912415044810706 #
edge $-1 $601 1 $601 0 $323 $-1 forward 7 unknown #
vertex $-1 $324 $602 #
ellipse-curve $-1 -19.572467769540076 -19.120092695165294 5.8326811525526674 0 -0.83867057594974714 0.54463902268945019 1 0 0 1 I I #
point $-1 -18.572467769540076 -21.377134456662425 7.2984211634729164 #
plane-surface $-1 0 0 10.912415044810706 0 0 1 1 0 0 forward_v I I I I #
coedge $-1 $489 $488 $481 $603 forward $328 $-1 #
coedge $-1 $481 $330 $332 $485 reversed $203 $-1 #
coedge $-1 $330 $480 $479 $603 reversed $203 $-1 #
coedge $-1 $338 $333 $330 $483 forward $339 $-1 #
edge $-1 $486 -8.9776627741167907 $604 -1.7115221121161177 $482 $605 forward 7 unknown #
coedge $-1 $332 $331 $489 $606 reversed $126 $-1 #
edge $-1 $607 -47.448178898919522 $486 -37.172304109381173 $480 $608 forward 7 unknown #
vertex $-1 $334 $609 #
straight-curve $-1 -4.1138508628504056 16.457948787459081 10.912415044810704 1 0 0 I I #
coedge $-1 $479 $335 $338 $493 reversed $328 $-1 #
coedge $-1 $335 $479 $484 $606 forward $328 $-1 #
vertex $-1 $336 $610 #
straight-curve $-1 -16.455403451401626 23.724089449459751 48.947632294071276 0 0 1 I I #
straight-curve $-1 -16.455403451401626 -9.8268392156422948 37.197203657853308 0 0.70710677298230451 -0.70710678939079041 I I #
edge $-1 $604 -3.5527136788005009e-015 $340 16.455403451401626 $488 $611 forward 7 unknown #
point $-1 -16.455403451401626 23.724089449459751 10.912415044810706 #
point $-1 -16.455403451401626 16.457948787459078 10.912415044810707 #
edge $-1 $612 1 $612 0 $343 $-1 forward 7 unknown #
vertex $-1 $344 $613 #
ellipse-curve $-1 -13.164322761121298 18.280038504864176 5.4683640579333543 0 0.70710678939079041 0.70710677298230451 1 0 0 1 I I #
point $-1 -12.164322761121298 20.091019118459414 7.2793446295045996 #
edge $-1 $614 1 $614 0 $347 $-1 forward 7 unknown #
vertex $-1 $348 $615 #
ellipse-curve $-1 -8.2277017257008112 18.280038504864176 5.4683640579333543 0 0.70710678939079041 0.70710677298230451 1 0 0 1 I I #
point $-1 -7.2277017257008112 20.091019118459414 7.2793446295045996 #
edge $-1 $616 1 $616 0 $351 $-1 forward 7 unknown #
vertex $-1 $352 $617 #
ellipse-curve $-1 -3.2910806902803245 18.280038504864176 5.4683640579333543 0 0.70710678939079041 0.70710677298230451 1 0 0 1 I I #
point $-1 -2.2910806902803245 20.091019118459414 7.2793446295045996 #
loop $-1 $-1 $361 $355 #
plane-surface $-1 0 0 10.912415044810706 0 0 1 1 0 0 forward_v I I I I #
coedge $-1 $358 $517 $513 $618 reversed $232 $-1 #
edge $-1 $515 38.035217249260569 $518 45.301358079872792 $358 $619 forward 7 unknown #
edge $-1 $518 -47.448178898919522 $514 -37.172304109381173 $359 $620 forward 7 unknown #
coedge $-1 $520 $361 $510 $618 forward $508 $-1 #
vertex $-1 $362 $621 #
vertex $-1 $618 $622 #
straight-curve $-1 16.455403451401633 25.435611561575868 10.912415044810707 0 1 0 I I #
coedge $-1 $510 $364 $369 $523 forward $232 $-1 #
vertex $-1 $511 $623 #
straight-curve $-1 -4.1138508628504056 23.724089449459747 3.6462742141984883 -1 0 0 I I #
coedge $-1 $366 $513 $368 $522 forward $508 $-1 #
straight-curve $-1 -4.1138508628504056 16.457948787459081 10.912415044810704 1 0 0 I I #
edge $-1 $624 1.7115221121161177 $371 8.9776627741167907 $520 $625 forward 7 unknown #
edge $-1 $370 -45.301358079872792 $624 -38.035217249260569 $517 $626 forward 7 unknown #
point $-1 3.5527136788005009e-015 23.724089449459754 3.6462742141984847 #
point $-1 3.5527136788005009e-015 16.457948787459078 10.912415044810707 #
edge $-1 $627 1 $627 0 $373 $-1 forward 7 unknown #
vertex $-1 $374 $628 #
ellipse-curve $-1 3.2910806902803316 18.280038504864176 5.4683640579333543 0 0.70710678939079041 0.70710677298230451 1 0 0 1 I I #
point $-1 4.2910806902803316 20.091019118459414 7.2793446295045996 #
edge $-1 $629 1 $629 0 $377 $-1 forward 7 unknown #
vertex $-1 $378 $630 #
ellipse-curve $-1 8.2277017257008183 18.280038504864176 5.4683640579333543 0 0.70710678939079041 0.70710677298230451 1 0 0 1 I I #
point $-1 9.2277017257008183 20.091019118459414 7.2793446295045996 #
edge $-1 $631 1 $631 0 $381 $-1 forward 7 unknown #
vertex $-1 $382 $632 #
ellipse-curve $-1 13.164322761121305 18.280038504864176 5.4683640579333543 0 0.70710678939079041 0.70710677298230451 1 0 0 1 I I #
point $-1 14.164322761121305 20.091019118459414 7.2793446295045996 #
plane-surface $-1 0 23.724089449459751 0 0 -1 0 0 0 -1 forward_v I I I I #
coedge $-1 $389 $388 $391 $543 forward $164 $-1 #
edge $-1 $402 -42.920010986663414 $546 42.920010986663414 $400 $633 forward 7 unknown #
edge $-1 $544 -42.920010986663414 $406 42.920010986663414 $404 $634 forward 7 unknown #
straight-curve $-1 42.920010986663414 0 10.912415044810706 0 1 0 I I #
edge $-1 $546 -23.724089449459751 $544 23.724089449459751 $391 $635 forward 7 unknown #
vertex $-1 $543 $636 #
straight-curve $-1 -42.920010986663414 -23.724089449459751 0 0 0 -1 I I #
vertex $-1 $540 $637 #
straight-curve $-1 -42.920010986663414 23.724089449459751 0 0 0 -1 I I #
point $-1 -42.920010986663414 -23.724089449459751 -10.912415044810706 #
point $-1 -42.920010986663414 23.724089449459751 -10.912415044810706 #
point $-1 42.920010986663414 23.724089449459751 10.912415044810706 #
point $-1 42.920010986663414 -23.724089449459751 10.912415044810706 #
straight-curve $-1 0 -23.724089449459751 -10.912415044810706 -1 0 0 I I #
straight-curve $-1 0 23.724089449459751 -10.912415044810706 1 0 0 I I #
plane-surface $-1 0 0 10.912415044810706 0 0 1 1 0 0 forward_v I I I I #
coedge $-1 $417 $414 $419 $562 reversed $279 $-1 #
coedge $-1 $414 $417 $568 $638 reversed $279 $-1 #
edge $-1 $570 -10.912415044810706 $564 10.912415044810706 $431 $639 forward 7 unknown #
edge $-1 $559 -4.445679324307541 $429 4.445679324307541 $416 $640 forward 7 unknown #
vertex $-1 $638 $641 #
vertex $-1 $562 $642 #
straight-curve $-1 -51.811369635278496 -5.6528477252688489 0 0 0 -1 I I #
edge $-1 $560 -1.8767941827152548 $564 1.8767941827152548 $555 $643 forward 7 unknown #
straight-curve $-1 -47.365690310970955 -5.6528477252688489 -10.912415044810706 -1 0 0 I I #
vertex $-1 $421 $644 #
straight-curve $-1 -47.365690310970955 -1.8992593598383394 -10.912415044810706 1 0 0 I I #
point $-1 -42.920010986663414 -5.6528477252688489 -10.912415044810706 #
straight-curve $-1 -42.920010986663414 -5.6528477252688489 0 0 0 -1 I I #
coedge $-1 $427 $426 $556 $638 forward $428 $-1 #
point $-1 -42.920010986663414 -5.6528477252688489 10.912415044810706 #
vertex $-1 $432 $645 #
straight-curve $-1 -47.365690310970955 -1.8992593598383394 10.912415044810706 -1 0 0 I I #
plane-surface $-1 0 0 10.912415044810706 0 0 1 1 0 0 forward_v I I I I #
coedge $-1 $577 $646 $452 $588 forward $436 $-1 #
coedge $-1 $438 $445 $448 $586 reversed $295 $-1 #
coedge $-1 $646 $577 $438 $576 reversed $436 $-1 #
edge $-1 $647 -10.912415044810706 $579 10.912415044810706 $575 $648 forward 7 unknown #
coedge $-1 $575 $573 $439 $578 reversed $436 $-1 #
edge $-1 $579 -1.8767941827152548 $581 1.8767941827152548 $577 $649 forward 7 unknown #
vertex $-1 $578 $650 #
straight-curve $-1 47.365690310970962 -1.8992593598383394 -10.912415044810706 1 0 0 I I #
vertex $-1 $588 $651 #
straight-curve $-1 47.365690310970962 -5.6528477252688489 -10.912415044810706 -1 0 0 I I #
point $-1 42.920010986663421 -1.8992593598383394 -10.912415044810706 #
straight-curve $-1 42.920010986663414 -1.8992593598383394 0 0 0 -1 I I #
coedge $-1 $448 $447 $646 $652 forward $449 $-1 #
edge $-1 $647 -4.445679324307541 $450 4.445679324307541 $574 $653 forward 7 unknown #
point $-1 42.920010986663421 -1.8992593598383394 10.912415044810706 #
edge $-1 $589 -10.912415044810706 $581 10.912415044810706 $573 $654 forward 7 unknown #
vertex $-1 $652 $655 #
straight-curve $-1 47.365690310970962 -5.6528477252688489 10.912415044810706 1 0 0 I I #
coedge $-1 $467 $466 $459 $592 forward $456 $-1 #
edge $-1 $593 14.305711433853689 $596 21.533699196529248 $591 $656 forward 7 unknown #
vertex $-1 $471 $657 #
straight-curve $-1 -24.330164994073932 -47.85779505868436 10.912415044810704 0 -1 0 I I #
edge $-1 $596 -14.543931109303895 $468 -5.028536660236183 $467 $658 forward 7 unknown #
vertex $-1 $595 $659 #
straight-curve $-1 -24.330164994073932 -23.724089449459754 3.6844272821351396 0 0.54463902268945019 0.83867057594974714 I I #
point $-1 -24.330164994073932 -19.030179463865114 10.912415044810706 #
point $-1 -14.814770545006221 -23.724089449459751 3.6844272821351449 #
straight-curve $-1 0 -23.724089449459751 10.912415044810706 1 0 0 I I #
vertex $-1 $474 $660 #
point $-1 -18.572467769540076 -19.120092695165294 5.8326811525526674 #
edge $-1 $604 38.035217249260569 $607 45.301358079872792 $479 $661 forward 7 unknown #
vertex $-1 $493 $662 #
straight-curve $-1 3.5527136788005009e-015 25.435611561575868 10.912415044810707 0 1 0 I I #
edge $-1 $607 -4.1138508628504091 $490 12.34155258855122 $489 $663 forward 7 unknown #
vertex $-1 $606 $664 #
straight-curve $-1 3.5527136788005009e-015 -9.8268392156422948 37.197203657853308 0 -0.70710677298230451 0.70710678939079041 I I #
point $-1 3.5527136788005009e-015 16.457948787459078 10.912415044810707 #
point $-1 -16.455403451401626 23.724089449459754 3.6462742141984847 #
straight-curve $-1 0 23.724089449459751 10.912415044810706 -1 0 0 I I #
vertex $-1 $496 $665 #
point $-1 -12.164322761121298 18.280038504864176 5.4683640579333543 #
vertex $-1 $500 $666 #
point $-1 -7.2277017257008112 18.280038504864176 5.4683640579333543 #
vertex $-1 $504 $667 #
point $-1 -2.2910806902803245 18.280038504864176 5.4683640579333543 #
edge $-1 $515 -16.455403451401633 $624 -3.5527136788005009e-015 $510 $668 forward 7 unknown #
straight-curve $-1 16.455403451401633 23.724089449459751 48.947632294071276 0 0 -1 I I #
straight-curve $-1 16.455403451401633 -9.8268392156422948 37.197203657853308 0 -0.70710677298230451 0.70710678939079041 I I #
point $-1 16.455403451401633 16.457948787459078 10.912415044810707 #
point $-1 16.455403451401633 23.724089449459751 10.912415044810706 #
point $-1 16.455403451401633 23.724089449459754 3.6462742141984847 #
vertex $-1 $523 $669 #
straight-curve $-1 3.5527136788005009e-015 25.435611561575868 10.912415044810707 0 -1 0 I I #
straight-curve $-1 3.5527136788005009e-015 23.724089449459751 48.947632294071276 0 0 1 I I #
vertex $-1 $526 $670 #
point $-1 4.2910806902803316 18.280038504864176 5.4683640579333543 #
vertex $-1 $530 $671 #
point $-1 9.2277017257008183 18.280038504864176 5.4683640579333543 #
vertex $-1 $534 $672 #
point $-1 14.164322761121305 18.280038504864176 5.4683640579333543 #
straight-curve $-1 0 23.724089449459751 10.912415044810706 -1 0 0 I I #
straight-curve $-1 0 -23.724089449459751 10.912415044810706 1 0 0 I I #
straight-curve $-1 -42.920010986663414 0 10.912415044810706 0 -1 0 I I #
point $-1 -42.920010986663414 -23.724089449459751 10.912415044810706 #
point $-1 -42.920010986663414 23.724089449459751 10.912415044810706 #
edge $-1 $570 -1.8767941827152548 $559 1.8767941827152548 $556 $673 forward 7 unknown #
straight-curve $-1 -51.811369635278496 -1.8992593598383394 0 0 0 -1 I I #
straight-curve $-1 -47.365690310970955 -5.6528477252688489 10.912415044810706 1 0 0 I I #
point $-1 -51.811369635278496 -5.6528477252688489 10.912415044810706 #
point $-1 -51.811369635278496 -5.6528477252688489 -10.912415044810706 #
straight-curve $-1 -51.811369635278496 -3.7760535425535942 -10.912415044810706 0 1 0 I I #
point $-1 -51.811369635278496 -1.8992593598383394 -10.912415044810706 #
point $-1 -51.811369635278496 -1.8992593598383394 10.912415044810706 #
coedge $-1 $573 $575 $585 $652 reversed $436 $-1 #
vertex $-1 $652 $674 #
straight-curve $-1 51.811369635278503 -1.8992593598383394 0 0 0 -1 I I #
straight-curve $-1 51.811369635278503 -3.7760535425535942 -10.912415044810706 0 -1 0 I I #
point $-1 51.811369635278503 -1.8992593598383394 -10.912415044810706 #
point $-1 51.811369635278503 -5.6528477252688489 -10.912415044810706 #
edge $-1 $589 -1.8767941827152548 $647 1.8767941827152548 $646 $675 forward 7 unknown #
straight-curve $-1 47.365690310970962 -1.8992593598383394 10.912415044810706 -1 0 0 I I #
straight-curve $-1 51.811369635278503 -5.6528477252688489 0 0 0 -1 I I #
point $-1 51.811369635278503 -5.6528477252688489 10.912415044810706 #
straight-curve $-1 -24.330164994073932 -23.724089449459747 25.218126478664395 0 0 -1 I I #
point $-1 -24.330164994073932 -23.724089449459751 10.912415044810706 #
straight-curve $-1 -9.7862338847700379 -23.724089449459751 3.6844272821351494 1 0 0 I I #
point $-1 -24.330164994073932 -23.724089449459751 3.6844272821351449 #
point $-1 -19.572467769540076 -18.281422119215545 5.288042129863217 #
straight-curve $-1 3.5527136788005009e-015 23.724089449459751 48.947632294071276 0 0 -1 I I #
point $-1 3.5527136788005009e-015 23.724089449459751 10.912415044810706 #
straight-curve $-1 -4.1138508628504056 23.724089449459747 3.6462742141984883 -1 0 0 I I #
point $-1 3.5527136788005009e-015 23.724089449459754 3.6462742141984847 #
point $-1 -13.164322761121298 17.572931715473384 4.7612572849510491 #
point $-1 -8.2277017257008112 17.572931715473384 4.7612572849510491 #
point $-1 -3.2910806902803245 17.572931715473384 4.7612572849510491 #
straight-curve $-1 0 23.724089449459751 10.912415044810706 -1 0 0 I I #
point $-1 3.5527136788005009e-015 23.724089449459751 10.912415044810706 #
point $-1 3.2910806902803316 17.572931715473384 4.7612572849510491 #
point $-1 8.2277017257008183 17.572931715473384 4.7612572849510491 #
point $-1 13.164322761121305 17.572931715473384 4.7612572849510491 #
straight-curve $-1 -51.811369635278496 -3.7760535425535942 10.912415044810706 0 -1 0 I I #
point $-1 51.811369635278503 -1.8992593598383394 10.912415044810706 #
straight-curve $-1 51.811369635278503 -3.7760535425535942 10.912415044810706 0 1 0 I I #
End-of-ACIS-data 