500 0 9 0           
7 Unknown 11 ACIS 5.0 NT 24 Thu Mar 25 19:34:27 1999 
-1 9.9999999999999995e-007 1e-010 
body $-1 $9 $-1 $10 #
body $-1 $11 $-1 $12 #
body $-1 $13 $-1 $14 #
body $-1 $15 $-1 $16 #
body $-1 $17 $-1 $18 #
body $-1 $19 $-1 $20 #
body $-1 $21 $-1 $22 #
body $-1 $23 $-1 $24 #
body $-1 $25 $-1 $26 #
lump $-1 $-1 $27 $0 #
transform $-1 1 0 0 0 1 0 0 0 1 72.165288247321996 36.800619036488754 12.291094536375907 1 rotate no_reflect no_shear #
lump $-1 $-1 $28 $1 #
transform $-1 1 0 0 0 1 0 0 0 1 72.165288247321996 36.800619036488754 12.291094536375907 1 rotate no_reflect no_shear #
lump $-1 $-1 $29 $2 #
transform $-1 1 0 0 0 1 0 0 0 1 72.165288247321996 36.800619036488754 12.291094536375907 1 rotate no_reflect no_shear #
lump $-1 $-1 $30 $3 #
transform $-1 1 0 0 0 1 0 0 0 1 72.165288247321996 36.800619036488754 12.291094536375907 1 rotate no_reflect no_shear #
lump $-1 $-1 $31 $4 #
transform $-1 1 0 0 0 1 0 0 0 1 72.165288247321996 36.800619036488754 12.291094536375907 1 rotate no_reflect no_shear #
lump $-1 $-1 $32 $5 #
transform $-1 1 0 0 0 1 0 0 0 1 72.165288247321996 36.800619036488754 12.291094536375907 1 rotate no_reflect no_shear #
lump $-1 $-1 $33 $6 #
transform $-1 1 0 0 0 1 0 0 0 1 72.165288247321996 36.800619036488754 12.291094536375907 1 rotate no_reflect no_shear #
lump $-1 $-1 $34 $7 #
transform $-1 1 0 0 0 1 0 0 0 1 72.165288247321996 36.800619036488754 12.291094536375907 1 rotate no_reflect no_shear #
lump $-1 $-1 $35 $8 #
transform $-1 1 0 0 0 1 0 0 0 1 72.165288247321996 36.800619036488754 12.291094536375907 1 rotate no_reflect no_shear #
shell $-1 $-1 $-1 $36 $-1 $9 #
shell $-1 $-1 $-1 $37 $-1 $11 #
shell $-1 $-1 $-1 $38 $-1 $13 #
shell $-1 $-1 $-1 $39 $-1 $15 #
shell $-1 $-1 $-1 $40 $-1 $17 #
shell $-1 $-1 $-1 $41 $-1 $19 #
shell $-1 $-1 $-1 $42 $-1 $21 #
shell $-1 $-1 $-1 $43 $-1 $23 #
shell $-1 $-1 $-1 $44 $-1 $25 #
face $-1 $45 $46 $27 $-1 $47 reversed single #
face $-1 $48 $49 $28 $-1 $50 forward single #
face $-1 $51 $52 $29 $-1 $53 forward single #
face $-1 $54 $55 $30 $-1 $56 reversed single #
face $-1 $57 $58 $31 $-1 $59 forward single #
face $-1 $60 $61 $32 $-1 $62 forward single #
face $-1 $63 $64 $33 $-1 $65 reversed single #
face $-1 $66 $67 $34 $-1 $68 forward single #
face $-1 $69 $70 $35 $-1 $71 forward single #
face $-1 $72 $73 $27 $-1 $74 forward single #
loop $-1 $-1 $75 $36 #
plane-surface $-1 72.165288247321996 0 0 -1 0 0 0 0 1 forward_v I I I I #
face $-1 $76 $77 $28 $-1 $78 reversed single #
loop $-1 $-1 $79 $37 #
plane-surface $-1 -72.165288247321996 0 0 1 0 0 0 0 -1 forward_v I I I I #
face $-1 $80 $81 $29 $-1 $82 reversed single #
loop $-1 $-1 $83 $38 #
plane-surface $-1 72.165288247321996 0 0 -1 0 0 0 0 1 forward_v I I I I #
face $-1 $84 $85 $30 $-1 $86 reversed single #
loop $-1 $-1 $87 $39 #
plane-surface $-1 -44.864466807650473 122.6086318216105 139.37599263530313 1 0 0 0 -0.85716730853699208 -0.51503806187062418 forward_v I I I I #
face $-1 $88 $89 $31 $-1 $90 forward single #
loop $-1 $91 $92 $40 #
cone-surface $-1 -36.516825225415026 32.912562504553982 6.6516436642089118 0 -0.85716730853699208 -0.51503806187062418 1.5 0 0 1 I I 0 1 1.5 forward I I I I #
face $-1 $93 $94 $32 $-1 $95 forward single #
loop $-1 $96 $97 $41 #
cone-surface $-1 -23.995362852061874 32.912562504553982 6.6516436642089118 0 -0.85716730853699208 -0.51503806187062418 1.5 0 0 1 I I 0 1 1.5 forward I I I I #
face $-1 $98 $99 $33 $-1 $100 reversed single #
loop $-1 $-1 $101 $42 #
plane-surface $-1 18.157322908286265 122.6086318216105 139.37599263530313 1 0 0 0 -0.85716730853699208 -0.51503806187062418 forward_v I I I I #
face $-1 $102 $103 $34 $-1 $104 forward single #
loop $-1 $105 $106 $43 #
cone-surface $-1 26.504964490521701 32.912562504553982 6.6516436642089118 0 -0.85716730853699208 -0.51503806187062418 1.5 0 0 1 I I 0 1 1.5 forward I I I I #
face $-1 $107 $108 $35 $-1 $109 forward single #
loop $-1 $110 $111 $44 #
cone-surface $-1 39.02642686387486 32.912562504553982 6.6516436642089118 0 -0.85716730853699208 -0.51503806187062418 1.5 0 0 1 I I 0 1 1.5 forward I I I I #
face $-1 $112 $113 $27 $-1 $114 reversed single #
loop $-1 $-1 $115 $45 #
plane-surface $-1 0 0 12.291094536375907 0 0 1 1 0 0 forward_v I I I I #
coedge $-1 $116 $117 $118 $119 reversed $46 $-1 #
face $-1 $120 $121 $28 $-1 $122 forward single #
loop $-1 $-1 $123 $48 #
plane-surface $-1 0 36.800619036488754 0 0 -1 0 0 0 -1 forward_v I I I I #
coedge $-1 $124 $125 $126 $127 forward $49 $-1 #
face $-1 $128 $129 $29 $-1 $130 forward single #
loop $-1 $-1 $131 $51 #
plane-surface $-1 0 -36.800619036488754 0 0 1 0 0 0 1 forward_v I I I I #
coedge $-1 $132 $133 $134 $135 forward $52 $-1 #
face $-1 $136 $137 $30 $-1 $138 reversed single #
loop $-1 $-1 $139 $54 #
plane-surface $-1 -30.256094038738453 -1.1068199718959448 65.040252248831834 0 0.85716730853699208 0.51503806187062418 1 0 0 forward_v I I I I #
coedge $-1 $140 $141 $142 $143 reversed $55 $-1 #
face $-1 $-1 $144 $31 $-1 $145 forward single #
loop $-1 $146 $147 $57 #
cone-surface $-1 -36.516825225415026 31.487904763333276 5.7956229614132599 0 -0.85716730853699208 -0.51503806187062418 0.75 0 0 1 I I -0.70710678118654757 0.70710678118654757 0.75 forward I I I I #
loop $-1 $-1 $148 $40 #
coedge $-1 $92 $92 $149 $150 reversed $58 $-1 #
face $-1 $-1 $151 $32 $-1 $152 forward single #
loop $-1 $153 $154 $60 #
cone-surface $-1 -23.995362852061874 31.487904763333276 5.7956229614132599 0 -0.85716730853699208 -0.51503806187062418 0.75 0 0 1 I I -0.70710678118654757 0.70710678118654757 0.75 forward I I I I #
loop $-1 $-1 $155 $41 #
coedge $-1 $97 $97 $156 $157 reversed $61 $-1 #
face $-1 $158 $159 $33 $-1 $160 reversed single #
loop $-1 $-1 $161 $63 #
plane-surface $-1 32.765695677198281 -1.1068199718959448 65.040252248831834 0 0.85716730853699208 0.51503806187062418 1 0 0 forward_v I I I I #
coedge $-1 $162 $163 $164 $165 reversed $64 $-1 #
face $-1 $-1 $166 $34 $-1 $167 forward single #
loop $-1 $168 $169 $66 #
cone-surface $-1 26.504964490521701 31.487904763333276 5.7956229614132599 0 -0.85716730853699208 -0.51503806187062418 0.75 0 0 1 I I -0.70710678118654757 0.70710678118654757 0.75 forward I I I I #
loop $-1 $-1 $170 $43 #
coedge $-1 $106 $106 $171 $172 reversed $67 $-1 #
face $-1 $-1 $173 $35 $-1 $174 forward single #
loop $-1 $175 $176 $69 #
cone-surface $-1 39.02642686387486 31.487904763333276 5.7956229614132599 0 -0.85716730853699208 -0.51503806187062418 0.75 0 0 1 I I -0.70710678118654757 0.70710678118654757 0.75 forward I I I I #
loop $-1 $-1 $177 $44 #
coedge $-1 $111 $111 $178 $179 reversed $70 $-1 #
face $-1 $180 $181 $27 $-1 $182 reversed single #
loop $-1 $-1 $183 $72 #
plane-surface $-1 0 0 -12.291094536375907 0 0 1 1 0 0 forward_v I I I I #
coedge $-1 $184 $185 $116 $186 forward $73 $-1 #
coedge $-1 $187 $75 $115 $186 reversed $46 $-1 #
coedge $-1 $75 $187 $183 $188 reversed $46 $-1 #
coedge $-1 $189 $190 $75 $119 forward $191 $-1 #
edge $-1 $192 -12.291094536375907 $193 12.291094536375907 $75 $194 forward 7 unknown #
face $-1 $195 $196 $28 $-1 $197 reversed single #
loop $-1 $-1 $126 $76 #
plane-surface $-1 -76.737037513014627 0 9.7464483575232421 0 0 1 1 0 0 forward_v I I I I #
coedge $-1 $198 $199 $125 $200 forward $77 $-1 #
coedge $-1 $201 $79 $202 $203 reversed $49 $-1 #
coedge $-1 $79 $201 $123 $200 reversed $49 $-1 #
coedge $-1 $204 $205 $79 $127 reversed $121 $-1 #
edge $-1 $206 -36.800619036488754 $207 36.800619036488754 $126 $208 forward 7 unknown #
face $-1 $209 $210 $29 $-1 $211 reversed single #
loop $-1 $-1 $212 $80 #
plane-surface $-1 76.737037513014627 0 9.7464483575232421 0 0 1 1 0 0 forward_v I I I I #
coedge $-1 $213 $214 $133 $215 forward $81 $-1 #
coedge $-1 $216 $83 $217 $218 reversed $52 $-1 #
coedge $-1 $83 $216 $131 $215 reversed $52 $-1 #
coedge $-1 $219 $220 $83 $135 reversed $129 $-1 #
edge $-1 $221 -36.800619036488754 $222 36.800619036488754 $134 $223 forward 7 unknown #
face $-1 $224 $225 $30 $-1 $226 reversed single #
loop $-1 $-1 $227 $84 #
plane-surface $-1 -15.647721269826437 122.6086318216105 139.37599263530313 -1 0 0 0 0.85716730853699208 0.51503806187062418 forward_v I I I I #
coedge $-1 $228 $229 $230 $231 reversed $85 $-1 #
coedge $-1 $141 $87 $232 $233 reversed $55 $-1 #
coedge $-1 $87 $140 $228 $234 reversed $55 $-1 #
coedge $-1 $230 $235 $87 $143 forward $236 $-1 #
edge $-1 $237 24.503696874316496 $238 30.716245418550077 $142 $239 forward 7 unknown #
loop $-1 $-1 $149 $88 #
plane-surface $-1 -30.256094038738453 -1.1068199718959448 65.040252248831834 0 0.85716730853699208 0.51503806187062418 1 0 0 forward_v I I I I #
loop $-1 $-1 $240 $57 #
coedge $-1 $147 $147 $148 $241 reversed $89 $-1 #
coedge $-1 $148 $148 $147 $241 forward $91 $-1 #
coedge $-1 $149 $149 $92 $150 forward $144 $-1 #
edge $-1 $242 -1.0325617025178386e-015 $242 6.2831853071795996 $149 $243 forward 7 unknown #
loop $-1 $-1 $156 $93 #
plane-surface $-1 -30.256094038738453 -1.1068199718959448 65.040252248831834 0 0.85716730853699208 0.51503806187062418 1 0 0 forward_v I I I I #
loop $-1 $-1 $244 $60 #
coedge $-1 $154 $154 $155 $245 reversed $94 $-1 #
coedge $-1 $155 $155 $154 $245 forward $96 $-1 #
coedge $-1 $156 $156 $97 $157 forward $151 $-1 #
edge $-1 $246 -1.0325617025178386e-015 $246 6.2831853071795996 $156 $247 forward 7 unknown #
face $-1 $248 $249 $33 $-1 $250 forward single #
loop $-1 $-1 $251 $98 #
plane-surface $-1 47.3740684461103 122.6086318216105 139.37599263530313 -1 0 0 0 0.85716730853699208 0.51503806187062418 forward_v I I I I #
coedge $-1 $252 $253 $254 $255 reversed $99 $-1 #
coedge $-1 $163 $101 $256 $257 reversed $64 $-1 #
coedge $-1 $101 $162 $252 $258 reversed $64 $-1 #
coedge $-1 $254 $259 $101 $165 forward $249 $-1 #
edge $-1 $260 24.503696874316496 $261 30.716245418550077 $164 $262 forward 7 unknown #
loop $-1 $-1 $171 $102 #
plane-surface $-1 32.765695677198281 -1.1068199718959448 65.040252248831834 0 0.85716730853699208 0.51503806187062418 1 0 0 forward_v I I I I #
loop $-1 $-1 $263 $66 #
coedge $-1 $169 $169 $170 $264 reversed $103 $-1 #
coedge $-1 $170 $170 $169 $264 forward $105 $-1 #
coedge $-1 $171 $171 $106 $172 forward $166 $-1 #
edge $-1 $265 -1.0325617025178386e-015 $265 6.2831853071795996 $171 $266 forward 7 unknown #
loop $-1 $-1 $178 $107 #
plane-surface $-1 32.765695677198281 -1.1068199718959448 65.040252248831834 0 0.85716730853699208 0.51503806187062418 1 0 0 forward_v I I I I #
loop $-1 $-1 $267 $69 #
coedge $-1 $176 $176 $177 $268 reversed $108 $-1 #
coedge $-1 $177 $177 $176 $268 forward $110 $-1 #
coedge $-1 $178 $178 $111 $179 forward $173 $-1 #
edge $-1 $269 -1.0325617025178386e-015 $269 6.2831853071795996 $178 $270 forward 7 unknown #
face $-1 $271 $272 $27 $-1 $273 reversed single #
loop $-1 $-1 $274 $112 #
plane-surface $-1 0 -36.800619036488754 0 0 1 0 0 0 1 forward_v I I I I #
coedge $-1 $275 $276 $117 $188 forward $113 $-1 #
coedge $-1 $277 $115 $190 $278 forward $73 $-1 #
coedge $-1 $115 $277 $279 $280 forward $73 $-1 #
edge $-1 $281 -36.800619036488754 $192 36.800619036488754 $116 $282 forward 7 unknown #
coedge $-1 $117 $116 $283 $284 forward $46 $-1 #
edge $-1 $193 -36.800619036488754 $285 36.800619036488754 $117 $286 forward 7 unknown #
coedge $-1 $287 $118 $276 $288 reversed $191 $-1 #
coedge $-1 $118 $287 $184 $278 reversed $191 $-1 #
loop $-1 $-1 $118 $271 #
vertex $-1 $186 $289 #
vertex $-1 $188 $290 #
straight-curve $-1 72.165288247321996 36.800619036488754 0 0 0 -1 I I #
face $-1 $291 $292 $28 $-1 $293 reversed single #
loop $-1 $-1 $294 $120 #
plane-surface $-1 -76.737037513014627 0 4.0756726080794827 0 0 1 1 0 0 forward_v I I I I #
coedge $-1 $295 $123 $296 $297 reversed $77 $-1 #
coedge $-1 $123 $295 $204 $298 reversed $77 $-1 #
edge $-1 $206 -9.7464483575232421 $299 -4.0756726080794827 $123 $300 forward 7 unknown #
coedge $-1 $125 $124 $294 $301 forward $49 $-1 #
coedge $-1 $302 $303 $124 $203 forward $304 $-1 #
edge $-1 $305 4.0756726080794827 $207 9.7464483575232421 $202 $306 forward 7 unknown #
coedge $-1 $307 $126 $199 $298 forward $121 $-1 #
coedge $-1 $126 $307 $302 $308 forward $121 $-1 #
vertex $-1 $200 $309 #
vertex $-1 $308 $310 #
straight-curve $-1 -72.165288247321996 0 9.7464483575232421 0 -1 0 I I #
face $-1 $311 $312 $29 $-1 $313 reversed single #
loop $-1 $-1 $314 $128 #
plane-surface $-1 76.737037513014627 0 4.0756726080794827 0 0 1 1 0 0 forward_v I I I I #
coedge $-1 $220 $219 $315 $316 forward $129 $-1 #
coedge $-1 $317 $131 $318 $319 reversed $81 $-1 #
coedge $-1 $131 $317 $219 $320 reversed $81 $-1 #
edge $-1 $221 -9.7464483575232421 $321 -4.0756726080794827 $131 $322 forward 7 unknown #
coedge $-1 $133 $132 $323 $324 forward $52 $-1 #
coedge $-1 $325 $326 $132 $218 forward $327 $-1 #
edge $-1 $328 4.0756726080794827 $222 9.7464483575232421 $217 $329 forward 7 unknown #
coedge $-1 $212 $134 $214 $320 forward $129 $-1 #
coedge $-1 $134 $212 $325 $330 forward $129 $-1 #
vertex $-1 $215 $331 #
vertex $-1 $330 $332 #
straight-curve $-1 72.165288247321996 0 9.7464483575232421 0 1 0 I I #
face $-1 $-1 $236 $30 $-1 $333 forward single #
loop $-1 $-1 $334 $136 #
plane-surface $-1 0 36.800619036488754 0 0 -1 0 0 0 -1 forward_v I I I I #
coedge $-1 $335 $336 $337 $338 reversed $137 $-1 #
coedge $-1 $339 $139 $141 $234 forward $85 $-1 #
coedge $-1 $139 $339 $335 $340 forward $85 $-1 #
coedge $-1 $337 $142 $139 $231 forward $236 $-1 #
edge $-1 $238 -29.736419788281246 $341 -0.51967425045721072 $230 $342 forward 7 unknown #
coedge $-1 $343 $344 $140 $233 forward $225 $-1 #
edge $-1 $345 -67.736319212824199 $237 -57.396901781275659 $232 $346 forward 7 unknown #
edge $-1 $238 61.538928499837297 $345 73.601238072977466 $141 $347 forward 7 unknown #
coedge $-1 $142 $337 $343 $348 forward $236 $-1 #
loop $-1 $-1 $337 $224 #
vertex $-1 $233 $349 #
vertex $-1 $143 $350 #
straight-curve $-1 -44.864466807650473 61.304315910805251 12.291094536375908 0 -1 0 I I #
coedge $-1 $240 $240 $-1 $351 reversed $146 $-1 #
edge $-1 $352 0 $352 6.2831853071796004 $147 $353 forward 7 unknown #
vertex $-1 $150 $354 #
ellipse-curve $-1 -36.516825225415026 33.694344764371976 7.1213858206016152 0 0.85716730853699208 0.51503806187062418 1.5 0 0 1 I I #
coedge $-1 $244 $244 $-1 $355 reversed $153 $-1 #
edge $-1 $356 0 $356 6.2831853071796004 $154 $357 forward 7 unknown #
vertex $-1 $157 $358 #
ellipse-curve $-1 -23.995362852061874 33.694344764371976 7.1213858206016152 0 0.85716730853699208 0.51503806187062418 1.5 0 0 1 I I #
face $-1 $-1 $359 $33 $-1 $360 reversed single #
loop $-1 $-1 $164 $158 #
plane-surface $-1 0 0 12.291094536375907 0 0 1 1 0 0 forward_v I I I I #
coedge $-1 $361 $362 $363 $364 reversed $159 $-1 #
coedge $-1 $365 $161 $163 $258 forward $99 $-1 #
coedge $-1 $161 $365 $361 $366 forward $99 $-1 #
coedge $-1 $363 $164 $161 $255 forward $249 $-1 #
edge $-1 $261 1.7744750696871243 $367 30.99122060751116 $254 $368 forward 7 unknown #
coedge $-1 $369 $370 $162 $257 forward $359 $-1 #
edge $-1 $371 -67.736319212824199 $260 -57.396901781275659 $256 $372 forward 7 unknown #
edge $-1 $261 61.538928499837297 $371 73.601238072977466 $163 $373 forward 7 unknown #
coedge $-1 $164 $363 $369 $374 forward $249 $-1 #
vertex $-1 $165 $375 #
vertex $-1 $165 $376 #
straight-curve $-1 18.157322908286265 61.304315910805251 12.291094536375908 0 -1 0 I I #
coedge $-1 $263 $263 $-1 $377 reversed $168 $-1 #
edge $-1 $378 0 $378 6.2831853071796004 $169 $379 forward 7 unknown #
vertex $-1 $172 $380 #
ellipse-curve $-1 26.504964490521701 33.694344764371976 7.1213858206016152 0 0.85716730853699208 0.51503806187062418 1.5 0 0 1 I I #
coedge $-1 $267 $267 $-1 $381 reversed $175 $-1 #
edge $-1 $382 0 $382 6.2831853071796004 $176 $383 forward 7 unknown #
vertex $-1 $179 $384 #
ellipse-curve $-1 39.02642686387486 33.694344764371976 7.1213858206016152 0 0.85716730853699208 0.51503806187062418 1.5 0 0 1 I I #
face $-1 $-1 $191 $27 $-1 $385 reversed single #
loop $-1 $-1 $386 $180 #
plane-surface $-1 -72.165288247321996 0 0 1 0 0 0 0 -1 forward_v I I I I #
coedge $-1 $387 $279 $386 $388 forward $181 $-1 #
coedge $-1 $389 $183 $387 $390 forward $113 $-1 #
coedge $-1 $183 $389 $189 $288 forward $113 $-1 #
coedge $-1 $185 $184 $391 $392 forward $73 $-1 #
edge $-1 $192 -72.165288247321996 $393 72.165288247321996 $190 $394 forward 7 unknown #
coedge $-1 $274 $283 $185 $280 reversed $181 $-1 #
edge $-1 $395 -72.165288247321996 $281 72.165288247321996 $279 $396 forward 7 unknown #
vertex $-1 $186 $397 #
straight-curve $-1 72.165288247321996 0 12.291094536375907 0 1 0 I I #
coedge $-1 $279 $387 $187 $284 reversed $181 $-1 #
edge $-1 $281 -12.291094536375907 $285 12.291094536375907 $187 $398 forward 7 unknown #
vertex $-1 $284 $399 #
straight-curve $-1 72.165288247321996 0 -12.291094536375907 0 -1 0 I I #
coedge $-1 $190 $189 $400 $401 reversed $191 $-1 #
edge $-1 $402 -72.165288247321996 $193 72.165288247321996 $189 $403 forward 7 unknown #
point $-1 72.165288247321996 36.800619036488754 12.291094536375907 #
point $-1 72.165288247321996 36.800619036488754 -12.291094536375907 #
face $-1 $-1 $304 $28 $-1 $404 reversed single #
loop $-1 $-1 $405 $195 #
plane-surface $-1 -81.308786778707258 0 6.9110604828013624 1 0 0 0 0 -1 forward_v I I I I #
coedge $-1 $406 $296 $201 $301 reversed $196 $-1 #
coedge $-1 $199 $198 $405 $407 reversed $77 $-1 #
coedge $-1 $294 $408 $198 $297 forward $196 $-1 #
edge $-1 $409 -4.5717492656926311 $299 4.5717492656926311 $198 $410 forward 7 unknown #
edge $-1 $206 -4.5717492656926311 $411 4.5717492656926311 $199 $412 forward 7 unknown #
vertex $-1 $200 $413 #
straight-curve $-1 -72.165288247321996 36.800619036488754 0 0 0 -1 I I #
edge $-1 $305 -36.800619036488754 $299 36.800619036488754 $294 $414 forward 7 unknown #
coedge $-1 $415 $202 $205 $308 reversed $304 $-1 #
coedge $-1 $202 $415 $406 $416 reversed $304 $-1 #
loop $-1 $-1 $202 $291 #
vertex $-1 $203 $417 #
straight-curve $-1 -72.165288247321996 -36.800619036488754 0 0 0 1 I I #
coedge $-1 $205 $204 $418 $419 forward $121 $-1 #
edge $-1 $420 -4.5717492656926311 $207 4.5717492656926311 $302 $421 forward 7 unknown #
point $-1 -72.165288247321996 36.800619036488754 9.7464483575232421 #
point $-1 -72.165288247321996 -36.800619036488754 9.7464483575232421 #
face $-1 $-1 $327 $29 $-1 $422 reversed single #
loop $-1 $-1 $423 $209 #
plane-surface $-1 81.308786778707258 0 6.9110604828013624 -1 0 0 0 0 1 forward_v I I I I #
coedge $-1 $318 $424 $425 $426 forward $210 $-1 #
coedge $-1 $423 $427 $212 $316 reversed $312 $-1 #
edge $-1 $428 -36.800619036488754 $429 36.800619036488754 $315 $430 forward 7 unknown #
coedge $-1 $214 $213 $423 $431 reversed $81 $-1 #
coedge $-1 $323 $314 $213 $319 forward $210 $-1 #
edge $-1 $432 -4.5717492656926311 $321 4.5717492656926311 $213 $433 forward 7 unknown #
edge $-1 $221 -4.5717492656926311 $428 4.5717492656926311 $214 $434 forward 7 unknown #
vertex $-1 $215 $435 #
straight-curve $-1 72.165288247321996 -36.800619036488754 0 0 0 -1 I I #
coedge $-1 $424 $318 $216 $324 reversed $210 $-1 #
edge $-1 $328 -36.800619036488754 $321 36.800619036488754 $323 $436 forward 7 unknown #
coedge $-1 $437 $217 $220 $330 reversed $327 $-1 #
coedge $-1 $217 $437 $424 $438 reversed $327 $-1 #
loop $-1 $-1 $217 $311 #
vertex $-1 $218 $439 #
straight-curve $-1 72.165288247321996 36.800619036488754 0 0 0 1 I I #
edge $-1 $429 -4.5717492656926311 $222 4.5717492656926311 $325 $440 forward 7 unknown #
point $-1 72.165288247321996 -36.800619036488754 9.7464483575232421 #
point $-1 72.165288247321996 36.800619036488754 9.7464483575232421 #
plane-surface $-1 0 0 12.291094536375907 0 0 1 1 0 0 forward_v I I I I #
coedge $-1 $344 $343 $336 $441 forward $225 $-1 #
coedge $-1 $336 $227 $229 $340 reversed $137 $-1 #
coedge $-1 $227 $335 $334 $441 reversed $137 $-1 #
coedge $-1 $235 $230 $227 $338 forward $236 $-1 #
edge $-1 $341 -30.716245418550077 $442 -24.503696874316496 $337 $443 forward 7 unknown #
coedge $-1 $229 $228 $344 $444 reversed $85 $-1 #
edge $-1 $445 -73.601238072977466 $341 -61.538928499837297 $335 $446 forward 7 unknown #
vertex $-1 $231 $447 #
straight-curve $-1 -15.128047019369227 30.58807049225517 12.291094536375908 1 0 0 I I #
coedge $-1 $334 $232 $235 $348 reversed $225 $-1 #
coedge $-1 $232 $334 $339 $444 forward $225 $-1 #
vertex $-1 $233 $448 #
straight-curve $-1 -44.864466807650473 36.800619036488754 69.687996317651567 0 0 1 I I #
straight-curve $-1 -44.864466807650473 -1.1068199718959448 65.040252248831834 0 0.51503806187062418 -0.85716730853699208 I I #
edge $-1 $442 15.647721269826437 $237 44.864466807650473 $343 $449 forward 7 unknown #
point $-1 -44.864466807650473 36.800619036488754 12.291094536375907 #
point $-1 -44.864466807650473 30.588070492255174 12.291094536375908 #
edge $-1 $450 1 $450 0 $240 $-1 forward 7 unknown #
vertex $-1 $241 $451 #
ellipse-curve $-1 -36.516825225415026 32.130780244736023 6.181901507816228 0 0.85716730853699208 0.51503806187062418 1.5 0 0 1 I I #
point $-1 -35.016825225415026 33.694344764371941 7.1213858206015956 #
edge $-1 $452 1 $452 0 $244 $-1 forward 7 unknown #
vertex $-1 $245 $453 #
ellipse-curve $-1 -23.995362852061874 32.130780244736023 6.181901507816228 0 0.85716730853699208 0.51503806187062418 1.5 0 0 1 I I #
point $-1 -22.495362852061874 33.694344764371941 7.1213858206015956 #
loop $-1 $-1 $256 $248 #
plane-surface $-1 0 36.800619036488754 0 0 -1 0 0 0 -1 forward_v I I I I #
coedge $-1 $362 $251 $253 $366 reversed $159 $-1 #
coedge $-1 $251 $361 $454 $455 reversed $159 $-1 #
coedge $-1 $259 $254 $251 $364 forward $249 $-1 #
edge $-1 $367 -30.716245418550077 $456 -24.503696874316496 $363 $457 forward 7 unknown #
coedge $-1 $253 $252 $370 $458 reversed $99 $-1 #
edge $-1 $459 -73.601238072977466 $367 -61.538928499837297 $361 $460 forward 7 unknown #
vertex $-1 $255 $461 #
straight-curve $-1 16.38284783859914 30.58807049225517 12.291094536375908 1 0 0 I I #
coedge $-1 $454 $256 $259 $374 reversed $359 $-1 #
coedge $-1 $256 $454 $365 $458 forward $359 $-1 #
vertex $-1 $257 $462 #
straight-curve $-1 18.157322908286265 36.800619036488754 69.687996317651567 0 0 1 I I #
straight-curve $-1 18.157322908286265 -1.1068199718959448 65.040252248831834 0 0.51503806187062418 -0.85716730853699208 I I #
edge $-1 $456 -47.3740684461103 $260 -18.157322908286265 $369 $463 forward 7 unknown #
point $-1 18.157322908286265 36.800619036488754 12.291094536375907 #
point $-1 18.157322908286265 30.588070492255174 12.291094536375908 #
edge $-1 $464 1 $464 0 $263 $-1 forward 7 unknown #
vertex $-1 $264 $465 #
ellipse-curve $-1 26.504964490521701 32.130780244736023 6.181901507816228 0 0.85716730853699208 0.51503806187062418 1.5 0 0 1 I I #
point $-1 28.004964490521701 33.694344764371941 7.1213858206015956 #
edge $-1 $466 1 $466 0 $267 $-1 forward 7 unknown #
vertex $-1 $268 $467 #
ellipse-curve $-1 39.02642686387486 32.130780244736023 6.181901507816228 0 0.85716730853699208 0.51503806187062418 1.5 0 0 1 I I #
point $-1 40.52642686387486 33.694344764371941 7.1213858206015956 #
plane-surface $-1 0 36.800619036488754 0 0 -1 0 0 0 -1 forward_v I I I I #
coedge $-1 $391 $468 $274 $388 reversed $272 $-1 #
coedge $-1 $283 $274 $275 $390 reversed $181 $-1 #
edge $-1 $395 -12.291094536375907 $469 12.291094536375907 $386 $470 forward 7 unknown #
coedge $-1 $276 $275 $468 $471 forward $113 $-1 #
edge $-1 $285 -72.165288247321996 $469 72.165288247321996 $387 $472 forward 7 unknown #
coedge $-1 $400 $386 $277 $392 reversed $272 $-1 #
edge $-1 $393 -36.800619036488754 $395 36.800619036488754 $391 $473 forward 7 unknown #
vertex $-1 $278 $474 #
straight-curve $-1 0 36.800619036488754 12.291094536375907 -1 0 0 I I #
vertex $-1 $392 $475 #
straight-curve $-1 0 -36.800619036488754 12.291094536375907 1 0 0 I I #
point $-1 72.165288247321996 -36.800619036488754 12.291094536375907 #
straight-curve $-1 72.165288247321996 -36.800619036488754 0 0 0 -1 I I #
point $-1 72.165288247321996 -36.800619036488754 -12.291094536375907 #
coedge $-1 $468 $391 $287 $401 forward $272 $-1 #
edge $-1 $393 -12.291094536375907 $402 12.291094536375907 $287 $476 forward 7 unknown #
vertex $-1 $288 $477 #
straight-curve $-1 0 36.800619036488754 -12.291094536375907 1 0 0 I I #
plane-surface $-1 0 -36.800619036488754 0 0 1 0 0 0 1 forward_v I I I I #
coedge $-1 $478 $418 $295 $407 forward $292 $-1 #
coedge $-1 $408 $294 $303 $416 forward $196 $-1 #
edge $-1 $411 -2.8353878747218797 $409 2.8353878747218797 $295 $479 forward 7 unknown #
coedge $-1 $296 $406 $478 $480 forward $196 $-1 #
vertex $-1 $297 $481 #
straight-curve $-1 -76.737037513014627 36.800619036488754 4.0756726080794827 1 0 0 I I #
vertex $-1 $298 $482 #
straight-curve $-1 -76.737037513014627 36.800619036488754 9.7464483575232421 -1 0 0 I I #
point $-1 -72.165288247321996 36.800619036488754 4.0756726080794827 #
straight-curve $-1 -72.165288247321996 0 4.0756726080794827 0 1 0 I I #
coedge $-1 $303 $302 $483 $484 forward $304 $-1 #
edge $-1 $305 -4.5717492656926311 $485 4.5717492656926311 $303 $486 forward 7 unknown #
point $-1 -72.165288247321996 -36.800619036488754 4.0756726080794827 #
coedge $-1 $405 $483 $307 $419 reversed $292 $-1 #
edge $-1 $411 -36.800619036488754 $420 36.800619036488754 $418 $487 forward 7 unknown #
vertex $-1 $419 $488 #
straight-curve $-1 -76.737037513014627 -36.800619036488754 9.7464483575232421 1 0 0 I I #
plane-surface $-1 0 36.800619036488754 0 0 -1 0 0 0 -1 forward_v I I I I #
coedge $-1 $425 $315 $317 $431 forward $312 $-1 #
coedge $-1 $314 $323 $326 $438 forward $210 $-1 #
coedge $-1 $427 $423 $314 $426 reversed $312 $-1 #
edge $-1 $489 -36.800619036488754 $432 36.800619036488754 $425 $490 forward 7 unknown #
coedge $-1 $315 $425 $437 $491 reversed $312 $-1 #
vertex $-1 $316 $492 #
vertex $-1 $316 $493 #
straight-curve $-1 81.308786778707258 0 9.7464483575232421 0 1 0 I I #
edge $-1 $428 -2.8353878747218797 $432 2.8353878747218797 $423 $494 forward 7 unknown #
vertex $-1 $431 $495 #
straight-curve $-1 76.737037513014627 -36.800619036488754 4.0756726080794827 -1 0 0 I I #
straight-curve $-1 76.737037513014627 -36.800619036488754 9.7464483575232421 1 0 0 I I #
point $-1 72.165288247321996 -36.800619036488754 4.0756726080794827 #
straight-curve $-1 72.165288247321996 0 4.0756726080794827 0 -1 0 I I #
coedge $-1 $326 $325 $427 $491 forward $327 $-1 #
edge $-1 $328 -4.5717492656926311 $489 4.5717492656926311 $326 $496 forward 7 unknown #
point $-1 72.165288247321996 36.800619036488754 4.0756726080794827 #
straight-curve $-1 76.737037513014627 36.800619036488754 9.7464483575232421 -1 0 0 I I #
edge $-1 $442 57.396901781275659 $445 67.736319212824199 $334 $497 forward 7 unknown #
vertex $-1 $348 $498 #
straight-curve $-1 -15.647721269826437 61.304315910805251 12.291094536375908 0 1 0 I I #
edge $-1 $445 0.51967425045721072 $345 29.736419788281246 $344 $499 forward 7 unknown #
vertex $-1 $444 $500 #
straight-curve $-1 -15.647721269826437 -1.1068199718959448 65.040252248831834 0 -0.51503806187062418 0.85716730853699208 I I #
point $-1 -15.647721269826437 30.588070492255174 12.291094536375908 #
point $-1 -44.864466807650473 36.800619036488754 1.9516771048273682 #
straight-curve $-1 0 36.800619036488754 12.291094536375907 -1 0 0 I I #
vertex $-1 $351 $501 #
point $-1 -35.016825225415026 32.130780244736023 6.181901507816228 #
vertex $-1 $355 $502 #
point $-1 -22.495362852061874 32.130780244736023 6.181901507816228 #
coedge $-1 $370 $369 $362 $455 forward $359 $-1 #
edge $-1 $456 57.396901781275659 $459 67.736319212824199 $454 $503 forward 7 unknown #
vertex $-1 $374 $504 #
straight-curve $-1 47.3740684461103 61.304315910805251 12.291094536375908 0 1 0 I I #
edge $-1 $459 -30.99122060751116 $371 -1.7744750696871243 $370 $505 forward 7 unknown #
vertex $-1 $458 $506 #
straight-curve $-1 47.3740684461103 -1.1068199718959448 65.040252248831834 0 -0.51503806187062418 0.85716730853699208 I I #
point $-1 47.3740684461103 30.588070492255174 12.291094536375908 #
point $-1 18.157322908286265 36.800619036488754 1.9516771048273682 #
straight-curve $-1 0 36.800619036488754 12.291094536375907 -1 0 0 I I #
vertex $-1 $377 $507 #
point $-1 28.004964490521701 32.130780244736023 6.181901507816228 #
vertex $-1 $381 $508 #
point $-1 40.52642686387486 32.130780244736023 6.181901507816228 #
coedge $-1 $386 $400 $389 $471 reversed $272 $-1 #
vertex $-1 $471 $509 #
straight-curve $-1 -72.165288247321996 -36.800619036488754 0 0 0 -1 I I #
edge $-1 $469 -36.800619036488754 $402 36.800619036488754 $468 $510 forward 7 unknown #
straight-curve $-1 0 -36.800619036488754 -12.291094536375907 -1 0 0 I I #
straight-curve $-1 -72.165288247321996 0 12.291094536375907 0 -1 0 I I #
point $-1 -72.165288247321996 36.800619036488754 12.291094536375907 #
point $-1 -72.165288247321996 -36.800619036488754 12.291094536375907 #
straight-curve $-1 -72.165288247321996 36.800619036488754 0 0 0 -1 I I #
point $-1 -72.165288247321996 36.800619036488754 -12.291094536375907 #
coedge $-1 $483 $405 $408 $480 reversed $292 $-1 #
straight-curve $-1 -81.308786778707258 36.800619036488754 6.9110604828013624 0 0 -1 I I #
edge $-1 $485 -36.800619036488754 $409 36.800619036488754 $478 $511 forward 7 unknown #
point $-1 -81.308786778707258 36.800619036488754 4.0756726080794827 #
point $-1 -81.308786778707258 36.800619036488754 9.7464483575232421 #
coedge $-1 $418 $478 $415 $484 reversed $292 $-1 #
edge $-1 $420 -2.8353878747218797 $485 2.8353878747218797 $483 $512 forward 7 unknown #
vertex $-1 $480 $513 #
straight-curve $-1 -76.737037513014627 -36.800619036488754 4.0756726080794827 -1 0 0 I I #
straight-curve $-1 -81.308786778707258 0 9.7464483575232421 0 -1 0 I I #
point $-1 -81.308786778707258 -36.800619036488754 9.7464483575232421 #
vertex $-1 $426 $514 #
straight-curve $-1 81.308786778707258 0 4.0756726080794827 0 -1 0 I I #
edge $-1 $429 -2.8353878747218797 $489 2.8353878747218797 $427 $515 forward 7 unknown #
point $-1 81.308786778707258 -36.800619036488754 9.7464483575232421 #
point $-1 81.308786778707258 36.800619036488754 9.7464483575232421 #
straight-curve $-1 81.308786778707258 -36.800619036488754 6.9110604828013624 0 0 -1 I I #
point $-1 81.308786778707258 -36.800619036488754 4.0756726080794827 #
straight-curve $-1 76.737037513014627 36.800619036488754 4.0756726080794827 1 0 0 I I #
straight-curve $-1 -15.647721269826437 36.800619036488754 69.687996317651567 0 0 -1 I I #
point $-1 -15.647721269826437 36.800619036488754 12.291094536375907 #
straight-curve $-1 -15.128047019369227 36.800619036488754 1.9516771048273682 -1 0 0 I I #
point $-1 -15.647721269826437 36.800619036488754 1.9516771048273682 #
point $-1 -36.516825225415026 30.845029281930533 5.4093444150102918 #
point $-1 -23.995362852061874 30.845029281930533 5.4093444150102918 #
straight-curve $-1 47.3740684461103 36.800619036488754 69.687996317651567 0 0 -1 I I #
point $-1 47.3740684461103 36.800619036488754 12.291094536375907 #
straight-curve $-1 16.38284783859914 36.800619036488754 1.9516771048273682 -1 0 0 I I #
point $-1 47.3740684461103 36.800619036488754 1.9516771048273682 #
point $-1 26.504964490521701 30.845029281930533 5.4093444150102918 #
point $-1 39.02642686387486 30.845029281930533 5.4093444150102918 #
point $-1 -72.165288247321996 -36.800619036488754 -12.291094536375907 #
straight-curve $-1 -72.165288247321996 0 -12.291094536375907 0 1 0 I I #
straight-curve $-1 -81.308786778707258 0 4.0756726080794827 0 1 0 I I #
straight-curve $-1 -81.308786778707258 -36.800619036488754 6.9110604828013624 0 0 -1 I I #
point $-1 -81.308786778707258 -36.800619036488754 4.0756726080794827 #
point $-1 81.308786778707258 36.800619036488754 4.0756726080794827 #
straight-curve $-1 81.308786778707258 36.800619036488754 6.9110604828013624 0 0 -1 I I #
End-of-ACIS-data 