500 0 5 0           
7 Unknown 11 ACIS 5.0 NT 24 Thu Mar 25 22:34:09 1999 
-1 9.9999999999999995e-007 1e-010 
body $-1 $5 $-1 $6 #
body $-1 $7 $-1 $8 #
body $-1 $9 $-1 $10 #
body $-1 $11 $-1 $12 #
body $-1 $13 $-1 $14 #
lump $-1 $-1 $15 $0 #
transform $-1 1 0 0 0 1 0 0 0 1 41.311075167088838 24.034101969443789 8.2406302748650777 1 rotate no_reflect no_shear #
lump $-1 $-1 $16 $1 #
transform $-1 1 0 0 0 1 0 0 0 1 41.311075167088838 24.034101969443789 8.2406302748650777 1 rotate no_reflect no_shear #
lump $-1 $-1 $17 $2 #
transform $-1 1 0 0 0 1 0 0 0 1 41.311075167088838 24.034101969443789 8.2406302748650777 1 rotate no_reflect no_shear #
lump $-1 $-1 $18 $3 #
transform $-1 1 0 0 0 1 0 0 0 1 41.311075167088838 24.034101969443789 8.2406302748650777 1 rotate no_reflect no_shear #
lump $-1 $-1 $19 $4 #
transform $-1 1 0 0 0 1 0 0 0 1 41.311075167088838 24.034101969443789 8.2406302748650777 1 rotate no_reflect no_shear #
shell $-1 $-1 $-1 $20 $-1 $5 #
shell $-1 $-1 $-1 $21 $-1 $7 #
shell $-1 $-1 $-1 $22 $-1 $9 #
shell $-1 $-1 $-1 $23 $-1 $11 #
shell $-1 $-1 $-1 $24 $-1 $13 #
face $-1 $25 $26 $15 $-1 $27 forward single #
face $-1 $28 $29 $16 $-1 $30 reversed single #
face $-1 $31 $32 $17 $-1 $33 reversed single #
face $-1 $34 $35 $18 $-1 $36 forward single #
face $-1 $37 $38 $19 $-1 $39 forward single #
face $-1 $40 $41 $15 $-1 $42 reversed single #
loop $-1 $-1 $43 $20 #
plane-surface $-1 0 0 8.2406302748650777 0 0 1 1 0 0 forward_v I I I I #
face $-1 $44 $45 $16 $-1 $46 reversed single #
loop $-1 $-1 $47 $21 #
plane-surface $-1 -36.770069654852719 -15.869725177279562 0 0 1 0 0 0 1 forward_v I I I I #
face $-1 $48 $49 $17 $-1 $50 reversed single #
loop $-1 $-1 $51 $22 #
plane-surface $-1 55.550944702128497 15.6688587455888 120.29989292495256 0 1 0 0.78801076186113728 0 0.61566146476048833 forward_v I I I I #
face $-1 $52 $53 $18 $-1 $54 forward single #
loop $-1 $55 $56 $23 #
cone-surface $-1 39.04646069298537 18.058928238118796 5.708661464023395 -0.78801076186113728 0 -0.61566146476048833 0.61566146476048833 0 -0.78801076186113728 1 I I 0 1 1 forward I I I I #
face $-1 $57 $58 $19 $-1 $59 forward single #
loop $-1 $60 $61 $24 #
cone-surface $-1 39.04646069298537 21.644032476913793 5.708661464023395 -0.78801076186113728 0 -0.61566146476048833 0.61566146476048833 0 -0.78801076186113728 1 I I 0 1 1 forward I I I I #
face $-1 $62 $63 $15 $-1 $64 reversed single #
loop $-1 $-1 $65 $25 #
plane-surface $-1 0 0 -8.2406302748650777 0 0 1 1 0 0 forward_v I I I I #
coedge $-1 $66 $67 $68 $69 forward $26 $-1 #
face $-1 $70 $71 $16 $-1 $72 reversed single #
loop $-1 $-1 $73 $28 #
plane-surface $-1 -36.770069654852719 -12.869725177279562 0 0 -1 0 0 0 -1 forward_v I I I I #
coedge $-1 $74 $75 $76 $77 reversed $29 $-1 #
face $-1 $78 $79 $17 $-1 $80 reversed single #
loop $-1 $-1 $81 $31 #
plane-surface $-1 -9.5561989293122664 19.851480357516294 69.432618828551455 0.78801076186113728 0 0.61566146476048833 0.61566146476048833 0 -0.78801076186113728 forward_v I I I I #
coedge $-1 $82 $83 $84 $85 reversed $32 $-1 #
face $-1 $-1 $86 $18 $-1 $87 forward single #
loop $-1 $88 $89 $34 #
cone-surface $-1 37.91726798958171 18.058928238118796 4.8264394596786584 -0.78801076186113728 0 -0.61566146476048833 0.30783073238024417 0 -0.39400538093056864 1 I I -0.70710678118654746 0.70710678118654746 0.5 forward I I I I #
loop $-1 $-1 $90 $23 #
coedge $-1 $56 $56 $91 $92 reversed $35 $-1 #
face $-1 $-1 $93 $19 $-1 $94 forward single #
loop $-1 $95 $96 $37 #
cone-surface $-1 37.91726798958171 21.644032476913793 4.8264394596786584 -0.78801076186113728 0 -0.61566146476048833 0.30783073238024417 0 -0.39400538093056864 1 I I -0.70710678118654746 0.70710678118654746 0.5 forward I I I I #
loop $-1 $-1 $97 $24 #
coedge $-1 $61 $61 $98 $99 reversed $38 $-1 #
face $-1 $100 $101 $15 $-1 $102 reversed single #
loop $-1 $-1 $103 $40 #
plane-surface $-1 0 -24.034101969443789 0 0 1 0 0 0 1 forward_v I I I I #
coedge $-1 $104 $105 $106 $107 forward $41 $-1 #
coedge $-1 $108 $43 $109 $110 forward $26 $-1 #
coedge $-1 $43 $108 $111 $112 forward $26 $-1 #
coedge $-1 $113 $114 $43 $69 reversed $115 $-1 #
edge $-1 $116 -24.034101969443789 $117 24.034101969443789 $68 $118 forward 7 unknown #
face $-1 $119 $120 $16 $-1 $121 reversed single #
loop $-1 $-1 $122 $44 #
plane-surface $-1 -32.2290641426166 -14.369725177279562 0 -1 0 0 0 0 1 forward_v I I I I #
coedge $-1 $123 $124 $125 $126 forward $45 $-1 #
coedge $-1 $127 $47 $128 $129 reversed $29 $-1 #
coedge $-1 $47 $127 $130 $131 reversed $29 $-1 #
coedge $-1 $132 $133 $47 $77 forward $134 $-1 #
edge $-1 $135 -8.2406302748650777 $136 8.2406302748650777 $76 $137 forward 7 unknown #
face $-1 $138 $139 $17 $-1 $140 reversed single #
loop $-1 $-1 $84 $48 #
plane-surface $-1 41.311075167088838 0 0 -1 0 0 0 0 1 forward_v I I I I #
coedge $-1 $141 $142 $143 $144 reversed $49 $-1 #
coedge $-1 $83 $51 $145 $146 reversed $32 $-1 #
coedge $-1 $51 $82 $141 $147 reversed $32 $-1 #
coedge $-1 $143 $148 $51 $85 forward $79 $-1 #
edge $-1 $149 51.909316187611203 $150 55.824471265365602 $84 $151 forward 7 unknown #
loop $-1 $-1 $91 $52 #
plane-surface $-1 -9.5561989293122664 19.851480357516294 69.432618828551455 0.78801076186113728 0 0.61566146476048833 0.61566146476048833 0 -0.78801076186113728 forward_v I I I I #
loop $-1 $-1 $152 $34 #
coedge $-1 $89 $89 $90 $153 reversed $53 $-1 #
coedge $-1 $90 $90 $89 $153 forward $55 $-1 #
coedge $-1 $91 $91 $56 $92 forward $86 $-1 #
edge $-1 $154 0 $154 6.2831853071796004 $91 $155 forward 7 unknown #
loop $-1 $-1 $98 $57 #
plane-surface $-1 -9.5561989293122664 19.851480357516294 69.432618828551455 0.78801076186113728 0 0.61566146476048833 0.61566146476048833 0 -0.78801076186113728 forward_v I I I I #
loop $-1 $-1 $156 $37 #
coedge $-1 $96 $96 $97 $157 reversed $58 $-1 #
coedge $-1 $97 $97 $96 $157 forward $60 $-1 #
coedge $-1 $98 $98 $61 $99 forward $93 $-1 #
edge $-1 $158 0 $158 6.2831853071796004 $98 $159 forward 7 unknown #
face $-1 $160 $161 $15 $-1 $162 reversed single #
loop $-1 $-1 $163 $62 #
plane-surface $-1 -41.311075167088838 0 0 1 0 0 0 0 -1 forward_v I I I I #
coedge $-1 $164 $111 $165 $166 forward $63 $-1 #
coedge $-1 $167 $65 $164 $168 forward $41 $-1 #
coedge $-1 $65 $167 $169 $170 forward $41 $-1 #
coedge $-1 $114 $113 $65 $107 reversed $115 $-1 #
edge $-1 $171 -24.034101969443789 $172 24.034101969443789 $106 $173 forward 7 unknown #
coedge $-1 $67 $66 $174 $175 forward $26 $-1 #
coedge $-1 $176 $177 $66 $110 reversed $161 $-1 #
edge $-1 $117 -41.311075167088838 $178 41.311075167088838 $109 $179 forward 7 unknown #
coedge $-1 $103 $180 $67 $112 reversed $63 $-1 #
edge $-1 $181 -41.311075167088838 $116 41.311075167088838 $111 $182 forward 7 unknown #
coedge $-1 $106 $68 $180 $183 forward $115 $-1 #
coedge $-1 $68 $106 $176 $184 reversed $115 $-1 #
loop $-1 $-1 $113 $160 #
vertex $-1 $69 $185 #
vertex $-1 $69 $186 #
straight-curve $-1 41.311075167088838 0 8.2406302748650777 0 1 0 I I #
face $-1 $187 $188 $16 $-1 $189 forward single #
loop $-1 $-1 $190 $70 #
plane-surface $-1 0 0 -8.2406302748650777 0 0 1 1 0 0 forward_v I I I I #
coedge $-1 $191 $192 $127 $193 forward $71 $-1 #
coedge $-1 $194 $73 $190 $195 reversed $45 $-1 #
coedge $-1 $73 $194 $196 $197 reversed $45 $-1 #
coedge $-1 $192 $191 $73 $126 reversed $71 $-1 #
edge $-1 $198 -8.2406302748650777 $199 8.2406302748650777 $125 $200 forward 7 unknown #
coedge $-1 $75 $74 $122 $193 reversed $29 $-1 #
coedge $-1 $201 $202 $74 $129 forward $120 $-1 #
edge $-1 $203 13.844029315190241 $135 22.926040339662478 $128 $204 forward 7 unknown #
coedge $-1 $205 $206 $75 $131 forward $188 $-1 #
edge $-1 $136 -22.926040339662478 $207 -13.844029315190241 $130 $208 forward 7 unknown #
coedge $-1 $209 $76 $206 $210 reversed $134 $-1 #
coedge $-1 $76 $209 $201 $211 reversed $134 $-1 #
loop $-1 $-1 $209 $187 #
vertex $-1 $211 $212 #
vertex $-1 $77 $213 #
straight-curve $-1 -41.311075167088838 -15.869725177279562 0 0 0 1 I I #
face $-1 $-1 $214 $17 $-1 $215 forward single #
loop $-1 $-1 $216 $78 #
plane-surface $-1 0 24.034101969443789 0 0 -1 0 0 0 -1 forward_v I I I I #
coedge $-1 $217 $81 $83 $147 forward $49 $-1 #
coedge $-1 $81 $217 $216 $218 reversed $49 $-1 #
coedge $-1 $219 $84 $81 $144 forward $79 $-1 #
edge $-1 $150 5.7431185668306526 $220 14.108361790685642 $143 $221 forward 7 unknown #
coedge $-1 $222 $223 $82 $146 forward $214 $-1 #
edge $-1 $224 10.476748512763823 $149 13.535602816024589 $145 $225 forward 7 unknown #
edge $-1 $150 -82.62215033417769 $224 -77.6537472777175 $83 $226 forward 7 unknown #
coedge $-1 $84 $219 $222 $227 reversed $79 $-1 #
vertex $-1 $227 $228 #
vertex $-1 $85 $229 #
straight-curve $-1 41.311075167088838 15.6688587455888 60.149946462476279 0 0 -1 I I #
coedge $-1 $152 $152 $-1 $230 reversed $88 $-1 #
edge $-1 $231 0 $231 6.2831853071796004 $89 $232 forward 7 unknown #
vertex $-1 $92 $233 #
ellipse-curve $-1 39.781648015458458 18.058928238118796 6.2830527359878792 0.78801076186113728 0 0.61566146476048833 0.61566146476048833 0 -0.78801076186113728 1 I I #
coedge $-1 $156 $156 $-1 $234 reversed $95 $-1 #
edge $-1 $235 0 $235 6.2831853071796004 $96 $236 forward 7 unknown #
vertex $-1 $99 $237 #
ellipse-curve $-1 39.781648015458458 21.644032476913793 6.2830527359878792 0.78801076186113728 0 0.61566146476048833 0.61566146476048833 0 -0.78801076186113728 1 I I #
face $-1 $-1 $115 $15 $-1 $238 reversed single #
loop $-1 $-1 $176 $100 #
plane-surface $-1 0 24.034101969443789 0 0 -1 0 0 0 -1 forward_v I I I I #
coedge $-1 $239 $174 $177 $240 forward $101 $-1 #
coedge $-1 $180 $103 $104 $168 reversed $63 $-1 #
coedge $-1 $174 $239 $103 $166 reversed $101 $-1 #
edge $-1 $181 -8.2406302748650777 $241 8.2406302748650777 $165 $242 forward 7 unknown #
coedge $-1 $105 $104 $239 $243 forward $41 $-1 #
edge $-1 $172 -41.311075167088838 $241 41.311075167088838 $164 $244 forward 7 unknown #
coedge $-1 $177 $176 $105 $170 reversed $161 $-1 #
edge $-1 $245 -41.311075167088838 $171 41.311075167088838 $169 $246 forward 7 unknown #
vertex $-1 $107 $247 #
vertex $-1 $183 $248 #
straight-curve $-1 41.311075167088838 0 -8.2406302748650777 0 -1 0 I I #
coedge $-1 $163 $165 $108 $175 reversed $101 $-1 #
edge $-1 $178 -24.034101969443789 $181 24.034101969443789 $174 $249 forward 7 unknown #
coedge $-1 $169 $109 $114 $184 forward $161 $-1 #
coedge $-1 $109 $169 $163 $240 reversed $161 $-1 #
vertex $-1 $110 $250 #
straight-curve $-1 0 24.034101969443789 8.2406302748650777 -1 0 0 I I #
coedge $-1 $111 $164 $113 $183 reversed $63 $-1 #
vertex $-1 $175 $251 #
straight-curve $-1 0 -24.034101969443789 8.2406302748650777 1 0 0 I I #
edge $-1 $116 -8.2406302748650777 $172 8.2406302748650777 $113 $252 forward 7 unknown #
edge $-1 $117 -8.2406302748650777 $171 8.2406302748650777 $114 $253 forward 7 unknown #
point $-1 41.311075167088838 -24.034101969443789 8.2406302748650777 #
point $-1 41.311075167088838 24.034101969443789 8.2406302748650777 #
face $-1 $-1 $134 $16 $-1 $254 reversed single #
loop $-1 $-1 $196 $119 #
plane-surface $-1 0 0 8.2406302748650777 0 0 1 1 0 0 forward_v I I I I #
coedge $-1 $202 $201 $123 $195 forward $120 $-1 #
coedge $-1 $125 $122 $202 $255 reversed $71 $-1 #
coedge $-1 $122 $125 $205 $256 reversed $71 $-1 #
edge $-1 $207 -8.2406302748650777 $203 8.2406302748650777 $122 $257 forward 7 unknown #
coedge $-1 $124 $123 $209 $258 reversed $45 $-1 #
edge $-1 $259 -22.926040339662478 $199 -13.844029315190241 $190 $260 forward 7 unknown #
coedge $-1 $206 $205 $124 $197 forward $188 $-1 #
edge $-1 $198 13.844029315190241 $261 22.926040339662478 $196 $262 forward 7 unknown #
vertex $-1 $197 $263 #
vertex $-1 $195 $264 #
straight-curve $-1 -32.2290641426166 -12.869725177279562 0 0 0 -1 I I #
coedge $-1 $190 $128 $133 $211 forward $120 $-1 #
coedge $-1 $128 $190 $191 $255 forward $120 $-1 #
vertex $-1 $129 $265 #
straight-curve $-1 -18.38503482742636 -15.869725177279562 -8.2406302748650777 -1 0 0 I I #
coedge $-1 $196 $130 $192 $256 forward $188 $-1 #
coedge $-1 $130 $196 $132 $210 forward $188 $-1 #
vertex $-1 $131 $266 #
straight-curve $-1 -18.38503482742636 -15.869725177279562 8.2406302748650777 1 0 0 I I #
coedge $-1 $133 $132 $194 $258 forward $134 $-1 #
edge $-1 $261 12.869725177279562 $136 15.869725177279562 $132 $267 forward 7 unknown #
edge $-1 $135 -15.869725177279562 $259 -12.869725177279562 $133 $268 forward 7 unknown #
point $-1 -41.311075167088838 -15.869725177279562 -8.2406302748650777 #
point $-1 -41.311075167088838 -15.869725177279562 8.2406302748650777 #
loop $-1 $-1 $145 $138 #
plane-surface $-1 0 0 8.2406302748650777 0 0 1 1 0 0 forward_v I I I I #
coedge $-1 $269 $270 $142 $218 forward $139 $-1 #
coedge $-1 $142 $141 $223 $271 reversed $49 $-1 #
edge $-1 $220 -52.323633188445797 $272 -47.355230131985607 $216 $273 forward 7 unknown #
coedge $-1 $148 $143 $270 $274 reversed $79 $-1 #
vertex $-1 $218 $275 #
straight-curve $-1 41.311075167088845 9.9257401787581472 4.3254751971106771 0 1 0 I I #
coedge $-1 $276 $145 $148 $227 forward $214 $-1 #
coedge $-1 $145 $276 $217 $271 forward $214 $-1 #
vertex $-1 $146 $277 #
straight-curve $-1 27.775472351064248 15.6688587455888 8.2406302748650759 1 0 0 I I #
straight-curve $-1 -9.5561989293122664 15.6688587455888 69.432618828551455 -0.61566146476048833 0 0.78801076186113728 I I #
edge $-1 $149 15.6688587455888 $278 24.034101969443789 $148 $279 forward 7 unknown #
point $-1 41.311075167088838 15.6688587455888 8.2406302748650777 #
point $-1 41.311075167088838 15.6688587455888 4.3254751971106771 #
edge $-1 $280 1 $280 0 $152 $-1 forward 7 unknown #
vertex $-1 $153 $281 #
ellipse-curve $-1 38.311273370512275 18.058928238118796 5.1342701920589029 0.78801076186113728 0 0.61566146476048833 0.61566146476048833 0 -0.78801076186113728 1 I I #
point $-1 40.397309480218958 18.058928238118796 5.4950419741267496 #
edge $-1 $282 1 $282 0 $156 $-1 forward 7 unknown #
vertex $-1 $157 $283 #
ellipse-curve $-1 38.311273370512275 21.644032476913793 5.1342701920589029 0.78801076186113728 0 0.61566146476048833 0.61566146476048833 0 -0.78801076186113728 1 I I #
point $-1 40.397309480218958 21.644032476913793 5.4950419741267496 #
plane-surface $-1 41.311075167088838 0 0 -1 0 0 0 0 1 forward_v I I I I #
coedge $-1 $165 $163 $167 $243 reversed $101 $-1 #
edge $-1 $178 -8.2406302748650777 $245 8.2406302748650777 $177 $284 forward 7 unknown #
vertex $-1 $243 $285 #
straight-curve $-1 -41.311075167088838 -24.034101969443789 0 0 0 -1 I I #
edge $-1 $241 -24.034101969443789 $245 24.034101969443789 $239 $286 forward 7 unknown #
straight-curve $-1 0 -24.034101969443789 -8.2406302748650777 -1 0 0 I I #
vertex $-1 $170 $287 #
straight-curve $-1 0 24.034101969443789 -8.2406302748650777 1 0 0 I I #
point $-1 41.311075167088838 24.034101969443789 -8.2406302748650777 #
point $-1 41.311075167088838 -24.034101969443789 -8.2406302748650777 #
straight-curve $-1 -41.311075167088838 0 8.2406302748650777 0 -1 0 I I #
point $-1 -41.311075167088838 24.034101969443789 8.2406302748650777 #
point $-1 -41.311075167088838 -24.034101969443789 8.2406302748650777 #
straight-curve $-1 41.311075167088838 -24.034101969443789 0 0 0 -1 I I #
straight-curve $-1 41.311075167088838 24.034101969443789 0 0 0 -1 I I #
plane-surface $-1 -41.311075167088838 0 0 1 0 0 0 0 -1 forward_v I I I I #
edge $-1 $199 5.6848625886397812 $203 8.6848625886397812 $202 $288 forward 7 unknown #
edge $-1 $207 -8.6848625886397812 $198 -5.6848625886397812 $205 $289 forward 7 unknown #
straight-curve $-1 -32.2290641426166 -15.869725177279562 0 0 0 -1 I I #
edge $-1 $261 -8.2406302748650777 $259 8.2406302748650777 $209 $290 forward 7 unknown #
vertex $-1 $258 $291 #
straight-curve $-1 -18.38503482742636 -12.869725177279562 -8.2406302748650777 1 0 0 I I #
vertex $-1 $210 $292 #
straight-curve $-1 -18.38503482742636 -12.869725177279562 8.2406302748650777 -1 0 0 I I #
point $-1 -32.2290641426166 -12.869725177279562 8.2406302748650777 #
point $-1 -32.2290641426166 -12.869725177279562 -8.2406302748650777 #
point $-1 -32.2290641426166 -15.869725177279562 -8.2406302748650777 #
point $-1 -32.2290641426166 -15.869725177279562 8.2406302748650777 #
straight-curve $-1 -41.311075167088838 0 8.2406302748650777 0 -1 0 I I #
straight-curve $-1 -41.311075167088838 0 -8.2406302748650777 0 1 0 I I #
coedge $-1 $270 $216 $276 $293 reversed $139 $-1 #
coedge $-1 $216 $269 $219 $274 forward $139 $-1 #
edge $-1 $272 -14.108361790685642 $224 -5.7431185668306526 $223 $294 forward 7 unknown #
vertex $-1 $218 $295 #
straight-curve $-1 9.0974305166997969 24.034101969443789 45.557061249280537 -0.61566146476048833 0 0.78801076186113728 I I #
edge $-1 $278 -8.2406302748650777 $220 -4.3254751971106762 $219 $296 forward 7 unknown #
point $-1 41.311075167088838 24.034101969443789 4.3254751971106762 #
coedge $-1 $223 $222 $269 $293 forward $214 $-1 #
point $-1 38.252220863828072 15.6688587455888 8.2406302748650759 #
vertex $-1 $227 $297 #
straight-curve $-1 41.311075167088838 0 8.2406302748650777 0 1 0 I I #
vertex $-1 $230 $298 #
point $-1 38.926934835272768 18.058928238118796 4.3462594301977653 #
vertex $-1 $234 $299 #
point $-1 38.926934835272768 21.644032476913793 4.3462594301977653 #
straight-curve $-1 -41.311075167088838 24.034101969443789 0 0 0 -1 I I #
point $-1 -41.311075167088838 -24.034101969443789 -8.2406302748650777 #
straight-curve $-1 -41.311075167088838 0 -8.2406302748650777 0 1 0 I I #
point $-1 -41.311075167088838 24.034101969443789 -8.2406302748650777 #
straight-curve $-1 -32.2290641426166 -7.1848625886397812 -8.2406302748650777 0 -1 0 I I #
straight-curve $-1 -32.2290641426166 -7.1848625886397812 8.2406302748650777 0 1 0 I I #
straight-curve $-1 -41.311075167088838 -12.869725177279562 0 0 0 -1 I I #
point $-1 -41.311075167088838 -12.869725177279562 -8.2406302748650777 #
point $-1 -41.311075167088838 -12.869725177279562 8.2406302748650777 #
edge $-1 $278 -41.311075167088838 $272 -38.252220863828072 $269 $300 forward 7 unknown #
straight-curve $-1 38.252220863828072 9.9257401787581472 8.2406302748650759 0 -1 0 I I #
point $-1 38.252220863828072 24.034101969443789 8.2406302748650759 #
straight-curve $-1 41.311075167088838 24.034101969443789 0 0 0 -1 I I #
point $-1 41.311075167088838 24.034101969443789 8.2406302748650777 #
point $-1 37.523262608651144 18.058928238118796 4.5186087272984139 #
point $-1 37.523262608651144 21.644032476913793 4.5186087272984139 #
straight-curve $-1 0 24.034101969443789 8.2406302748650777 -1 0 0 I I #
End-of-ACIS-data 