500 0 9 0           
7 Unknown 11 ACIS 5.0 NT 24 Fri Mar 26 17:29:48 1999 
-1 9.9999999999999995e-007 1e-010 
body $-1 $9 $-1 $10 #
body $-1 $11 $-1 $12 #
body $-1 $13 $-1 $14 #
body $-1 $15 $-1 $16 #
body $-1 $17 $-1 $18 #
body $-1 $19 $-1 $20 #
body $-1 $21 $-1 $22 #
body $-1 $23 $-1 $24 #
body $-1 $25 $-1 $26 #
lump $-1 $-1 $27 $0 #
transform $-1 1 0 0 0 1 0 0 0 1 60.0030518509476 24.562667796792521 11.708777190025334 1 rotate no_reflect no_shear #
lump $-1 $-1 $28 $1 #
transform $-1 1 0 0 0 1 0 0 0 1 60.0030518509476 24.562667796792521 11.708777190025334 1 rotate no_reflect no_shear #
lump $-1 $-1 $29 $2 #
transform $-1 1 0 0 0 1 0 0 0 1 60.0030518509476 24.562667796792521 11.708777190025334 1 rotate no_reflect no_shear #
lump $-1 $-1 $30 $3 #
transform $-1 1 0 0 0 1 0 0 0 1 60.0030518509476 24.562667796792521 11.708777190025334 1 rotate no_reflect no_shear #
lump $-1 $-1 $31 $4 #
transform $-1 1 0 0 0 1 0 0 0 1 60.0030518509476 24.562667796792521 11.708777190025334 1 rotate no_reflect no_shear #
lump $-1 $-1 $32 $5 #
transform $-1 1 0 0 0 1 0 0 0 1 60.0030518509476 24.562667796792521 11.708777190025334 1 rotate no_reflect no_shear #
lump $-1 $-1 $33 $6 #
transform $-1 1 0 0 0 1 0 0 0 1 60.0030518509476 24.562667796792521 11.708777190025334 1 rotate no_reflect no_shear #
lump $-1 $-1 $34 $7 #
transform $-1 1 0 0 0 1 0 0 0 1 60.0030518509476 24.562667796792521 11.708777190025334 1 rotate no_reflect no_shear #
lump $-1 $-1 $35 $8 #
transform $-1 1 0 0 0 1 0 0 0 1 60.0030518509476 24.562667796792521 11.708777190025334 1 rotate no_reflect no_shear #
shell $-1 $-1 $-1 $36 $-1 $9 #
shell $-1 $-1 $-1 $37 $-1 $11 #
shell $-1 $-1 $-1 $38 $-1 $13 #
shell $-1 $-1 $-1 $39 $-1 $15 #
shell $-1 $-1 $-1 $40 $-1 $17 #
shell $-1 $-1 $-1 $41 $-1 $19 #
shell $-1 $-1 $-1 $42 $-1 $21 #
shell $-1 $-1 $-1 $43 $-1 $23 #
shell $-1 $-1 $-1 $44 $-1 $25 #
face $-1 $45 $46 $27 $-1 $47 forward single #
face $-1 $48 $49 $28 $-1 $50 forward single #
face $-1 $51 $52 $29 $-1 $53 forward single #
face $-1 $54 $55 $30 $-1 $56 reversed single #
face $-1 $57 $58 $31 $-1 $59 forward single #
face $-1 $60 $61 $32 $-1 $62 forward single #
face $-1 $63 $64 $33 $-1 $65 reversed single #
face $-1 $66 $67 $34 $-1 $68 forward single #
face $-1 $69 $70 $35 $-1 $71 forward single #
face $-1 $72 $73 $27 $-1 $74 reversed single #
loop $-1 $-1 $75 $36 #
plane-surface $-1 0 0 11.708777190025334 0 0 1 1 0 0 forward_v I I I I #
face $-1 $76 $77 $28 $-1 $78 forward single #
loop $-1 $-1 $79 $37 #
plane-surface $-1 0 -24.562667796792521 0 0 1 0 0 0 1 forward_v I I I I #
face $-1 $80 $81 $29 $-1 $82 reversed single #
loop $-1 $-1 $83 $38 #
plane-surface $-1 0 24.562667796792521 0 0 -1 0 0 0 -1 forward_v I I I I #
face $-1 $84 $85 $30 $-1 $86 reversed single #
loop $-1 $-1 $87 $39 #
plane-surface $-1 -125.36306122340787 -10.018370456668336 108.00128340667543 0 1 0 -0.54463904215088732 0 0.83867056331134215 forward_v I I I I #
face $-1 $88 $89 $31 $-1 $90 forward single #
loop $-1 $91 $92 $40 #
cone-surface $-1 -56.37915441460845 -8.3029203753624721 9.1129017204608065 0.54463904215088732 0 -0.83867056331134215 0.41933528165567108 0 0.27231952107544366 1 I I 0 1 0.5 forward I I I I #
face $-1 $93 $94 $32 $-1 $95 forward single #
loop $-1 $96 $97 $41 #
cone-surface $-1 -56.37915441460845 -5.7297452534036779 9.1129017204608065 0.54463904215088732 0 -0.83867056331134215 0.41933528165567108 0 0.27231952107544366 1 I I 0 1 0.5 forward I I I I #
face $-1 $98 $99 $33 $-1 $100 reversed single #
loop $-1 $-1 $101 $42 #
plane-surface $-1 54.080111494311041 1.3300506446045528 170.48369205209138 0 -1 0 -0.68199836817093118 0 -0.7313536940579346 forward_v I I I I #
face $-1 $102 $103 $34 $-1 $104 forward single #
loop $-1 $105 $106 $43 #
cone-surface $-1 53.645401033823539 -2.9581605668367992 5.70359086093492 -0.68199836817093118 0 -0.7313536940579346 0.3656768470289673 0 -0.34099918408546559 1 I I 0 1 0.5 forward I I I I #
face $-1 $107 $108 $35 $-1 $109 forward single #
loop $-1 $110 $111 $44 #
cone-surface $-1 53.645401033823539 -0.38523383997198479 5.70359086093492 -0.68199836817093118 0 -0.7313536940579346 0.3656768470289673 0 -0.34099918408546559 1 I I 0 1 0.5 forward I I I I #
face $-1 $112 $113 $27 $-1 $114 reversed single #
loop $-1 $-1 $115 $45 #
plane-surface $-1 0 0 -11.708777190025334 0 0 1 1 0 0 forward_v I I I I #
coedge $-1 $116 $117 $118 $119 forward $46 $-1 #
face $-1 $120 $121 $28 $-1 $122 reversed single #
loop $-1 $-1 $123 $48 #
plane-surface $-1 0 0 11.708777190025334 0 0 1 1 0 0 forward_v I I I I #
coedge $-1 $124 $125 $126 $127 forward $49 $-1 #
face $-1 $128 $129 $29 $-1 $130 reversed single #
loop $-1 $-1 $131 $51 #
plane-surface $-1 60.0030518509476 0 0 -1 0 0 0 0 1 forward_v I I I I #
coedge $-1 $132 $133 $134 $135 forward $52 $-1 #
face $-1 $136 $137 $30 $-1 $138 reversed single #
loop $-1 $-1 $139 $54 #
plane-surface $-1 -60.0030518509476 -7.0163328143830768 7.3556968142076187 -0.54463904215088732 0 0.83867056331134215 0.83867056331134215 0 0.54463904215088732 forward_v I I I I #
coedge $-1 $140 $141 $142 $143 reversed $55 $-1 #
face $-1 $-1 $144 $31 $-1 $145 forward single #
loop $-1 $146 $147 $57 #
cone-surface $-1 -55.970675132995282 -8.3029203753624721 8.4838987979773002 0.54463904215088732 0 -0.83867056331134215 0.20966764082783554 0 0.13615976053772183 1 I I -0.70710678118654746 0.70710678118654746 0.25 forward I I I I #
loop $-1 $-1 $148 $40 #
coedge $-1 $92 $92 $149 $150 reversed $58 $-1 #
face $-1 $-1 $151 $32 $-1 $152 forward single #
loop $-1 $153 $154 $60 #
cone-surface $-1 -55.970675132995282 -5.7297452534036779 8.4838987979773002 0.54463904215088732 0 -0.83867056331134215 0.20966764082783554 0 0.13615976053772183 1 I I -0.70710678118654746 0.70710678118654746 0.25 forward I I I I #
loop $-1 $-1 $155 $41 #
coedge $-1 $97 $97 $156 $157 reversed $61 $-1 #
face $-1 $158 $159 $33 $-1 $160 reversed single #
loop $-1 $-1 $161 $63 #
plane-surface $-1 -27.763855400933025 -1.6716972034043955 82.716784800210746 0.68199836817093118 0 0.7313536940579346 0.7313536940579346 0 -0.68199836817093118 forward_v I I I I #
coedge $-1 $162 $163 $164 $165 reversed $64 $-1 #
face $-1 $-1 $166 $34 $-1 $167 forward single #
loop $-1 $168 $169 $66 #
cone-surface $-1 52.927322335710159 -2.9581605668367992 4.9335457508593628 -0.68199836817093118 0 -0.7313536940579346 0.18283842351448365 0 -0.17049959204273279 1 I I -0.70710678118654746 0.70710678118654746 0.25 forward I I I I #
loop $-1 $-1 $170 $43 #
coedge $-1 $106 $106 $171 $172 reversed $67 $-1 #
face $-1 $-1 $173 $35 $-1 $174 forward single #
loop $-1 $175 $176 $69 #
cone-surface $-1 52.927322335710159 -0.38523383997198479 4.9335457508593628 -0.68199836817093118 0 -0.7313536940579346 0.18283842351448365 0 -0.17049959204273279 1 I I -0.70710678118654746 0.70710678118654746 0.25 forward I I I I #
loop $-1 $-1 $177 $44 #
coedge $-1 $111 $111 $178 $179 reversed $70 $-1 #
face $-1 $180 $181 $27 $-1 $182 reversed single #
loop $-1 $-1 $183 $72 #
plane-surface $-1 0 -24.562667796792521 0 0 1 0 0 0 1 forward_v I I I I #
coedge $-1 $184 $185 $186 $187 forward $73 $-1 #
coedge $-1 $188 $75 $189 $190 forward $46 $-1 #
coedge $-1 $75 $188 $191 $192 forward $46 $-1 #
coedge $-1 $193 $194 $75 $119 reversed $195 $-1 #
edge $-1 $196 -24.562667796792521 $197 24.562667796792521 $118 $198 forward 7 unknown #
face $-1 $199 $200 $28 $-1 $201 reversed single #
loop $-1 $-1 $202 $76 #
plane-surface $-1 -60.0030518509476 0 0 1 0 0 0 0 -1 forward_v I I I I #
coedge $-1 $203 $204 $205 $206 forward $77 $-1 #
coedge $-1 $205 $79 $202 $207 reversed $49 $-1 #
coedge $-1 $79 $205 $208 $209 reversed $49 $-1 #
coedge $-1 $210 $211 $79 $127 reversed $200 $-1 #
edge $-1 $212 -60.0030518509476 $213 60.0030518509476 $126 $214 forward 7 unknown #
face $-1 $215 $216 $29 $-1 $217 reversed single #
loop $-1 $-1 $218 $80 #
plane-surface $-1 0 31.834816466854608 8.7087771900253337 0 0 1 1 0 0 forward_v I I I I #
coedge $-1 $219 $220 $132 $221 forward $81 $-1 #
coedge $-1 $222 $83 $131 $221 reversed $52 $-1 #
coedge $-1 $83 $222 $223 $224 reversed $52 $-1 #
coedge $-1 $225 $218 $83 $135 reversed $129 $-1 #
edge $-1 $226 -60.0030518509476 $227 60.0030518509476 $134 $228 forward 7 unknown #
face $-1 $229 $230 $30 $-1 $231 reversed single #
loop $-1 $-1 $232 $84 #
plane-surface $-1 -125.36306122340787 -4.0142951720978175 108.00128340667543 0 -1 0 0.54463904215088732 0 -0.83867056331134215 forward_v I I I I #
coedge $-1 $233 $234 $235 $236 reversed $85 $-1 #
coedge $-1 $141 $87 $237 $238 reversed $55 $-1 #
coedge $-1 $87 $140 $233 $239 reversed $55 $-1 #
coedge $-1 $235 $240 $87 $143 forward $241 $-1 #
edge $-1 $242 2.6784787607563345 $243 9.3816345912837562 $142 $244 forward 7 unknown #
loop $-1 $-1 $149 $88 #
plane-surface $-1 -60.0030518509476 -7.0163328143830768 7.3556968142076187 -0.54463904215088732 0 0.83867056331134215 0.83867056331134215 0 0.54463904215088732 forward_v I I I I #
loop $-1 $-1 $245 $57 #
coedge $-1 $147 $147 $148 $246 reversed $89 $-1 #
coedge $-1 $148 $148 $147 $246 forward $91 $-1 #
coedge $-1 $149 $149 $92 $150 forward $144 $-1 #
edge $-1 $247 0 $247 6.2831853071796004 $149 $248 forward 7 unknown #
loop $-1 $-1 $156 $93 #
plane-surface $-1 -60.0030518509476 -7.0163328143830768 7.3556968142076187 -0.54463904215088732 0 0.83867056331134215 0.83867056331134215 0 0.54463904215088732 forward_v I I I I #
loop $-1 $-1 $249 $60 #
coedge $-1 $154 $154 $155 $250 reversed $94 $-1 #
coedge $-1 $155 $155 $154 $250 forward $96 $-1 #
coedge $-1 $156 $156 $97 $157 forward $151 $-1 #
edge $-1 $251 0 $251 6.2831853071796004 $156 $252 forward 7 unknown #
face $-1 $253 $254 $33 $-1 $255 forward single #
loop $-1 $-1 $256 $98 #
plane-surface $-1 54.080111494311041 -4.6734450514133439 170.48369205209138 0 1 0 0.68199836817093118 0 0.7313536940579346 forward_v I I I I #
coedge $-1 $257 $258 $259 $260 reversed $99 $-1 #
coedge $-1 $163 $101 $261 $262 reversed $64 $-1 #
coedge $-1 $101 $162 $257 $263 reversed $64 $-1 #
coedge $-1 $259 $264 $101 $165 forward $254 $-1 #
edge $-1 $265 -32.962996103792079 $266 -21.342852681685287 $164 $267 forward 7 unknown #
loop $-1 $-1 $171 $102 #
plane-surface $-1 -27.763855400933025 -1.6716972034043955 82.716784800210746 0.68199836817093118 0 0.7313536940579346 0.7313536940579346 0 -0.68199836817093118 forward_v I I I I #
loop $-1 $-1 $268 $66 #
coedge $-1 $169 $169 $170 $269 reversed $103 $-1 #
coedge $-1 $170 $170 $169 $269 forward $105 $-1 #
coedge $-1 $171 $171 $106 $172 forward $166 $-1 #
edge $-1 $270 0 $270 6.2831853071796004 $171 $271 forward 7 unknown #
loop $-1 $-1 $178 $107 #
plane-surface $-1 -27.763855400933025 -1.6716972034043955 82.716784800210746 0.68199836817093118 0 0.7313536940579346 0.7313536940579346 0 -0.68199836817093118 forward_v I I I I #
loop $-1 $-1 $272 $69 #
coedge $-1 $176 $176 $177 $273 reversed $108 $-1 #
coedge $-1 $177 $177 $176 $273 forward $110 $-1 #
coedge $-1 $178 $178 $111 $179 forward $173 $-1 #
edge $-1 $274 0 $274 6.2831853071796004 $178 $275 forward 7 unknown #
face $-1 $276 $277 $27 $-1 $278 reversed single #
loop $-1 $-1 $279 $112 #
plane-surface $-1 -60.0030518509476 0 0 1 0 0 0 0 -1 forward_v I I I I #
coedge $-1 $280 $191 $281 $282 forward $113 $-1 #
coedge $-1 $283 $115 $280 $284 forward $73 $-1 #
coedge $-1 $115 $283 $285 $286 forward $73 $-1 #
coedge $-1 $194 $193 $115 $187 reversed $195 $-1 #
edge $-1 $287 -24.562667796792521 $288 24.562667796792521 $186 $289 forward 7 unknown #
coedge $-1 $117 $116 $290 $291 forward $46 $-1 #
coedge $-1 $292 $293 $116 $190 reversed $277 $-1 #
edge $-1 $197 -60.0030518509476 $294 60.0030518509476 $189 $295 forward 7 unknown #
coedge $-1 $183 $296 $117 $192 reversed $113 $-1 #
edge $-1 $297 -60.0030518509476 $196 60.0030518509476 $191 $298 forward 7 unknown #
coedge $-1 $186 $118 $296 $299 forward $195 $-1 #
coedge $-1 $118 $186 $292 $300 reversed $195 $-1 #
loop $-1 $-1 $193 $276 #
vertex $-1 $119 $301 #
vertex $-1 $119 $302 #
straight-curve $-1 60.0030518509476 0 11.708777190025334 0 1 0 I I #
face $-1 $303 $304 $28 $-1 $305 reversed single #
loop $-1 $-1 $210 $120 #
plane-surface $-1 0 -31.834816466854612 8.7087771900253337 0 0 1 1 0 0 forward_v I I I I #
coedge $-1 $306 $307 $124 $207 forward $121 $-1 #
coedge $-1 $308 $123 $307 $309 forward $77 $-1 #
coedge $-1 $123 $308 $310 $311 forward $77 $-1 #
coedge $-1 $125 $124 $123 $206 reversed $49 $-1 #
edge $-1 $312 -60.0030518509476 $313 60.0030518509476 $123 $314 forward 7 unknown #
edge $-1 $313 -11.708777190025334 $213 -8.7087771900253337 $202 $315 forward 7 unknown #
coedge $-1 $310 $316 $125 $209 forward $317 $-1 #
edge $-1 $212 8.7087771900253337 $312 11.708777190025334 $208 $318 forward 7 unknown #
coedge $-1 $319 $126 $316 $320 forward $200 $-1 #
coedge $-1 $126 $319 $306 $321 forward $200 $-1 #
vertex $-1 $209 $322 #
vertex $-1 $207 $323 #
straight-curve $-1 0 -24.562667796792521 8.7087771900253337 -1 0 0 I I #
face $-1 $324 $325 $29 $-1 $326 forward single #
loop $-1 $-1 $327 $128 #
plane-surface $-1 0 39.106965136916699 10.208777190025334 0 -1 0 0 0 -1 forward_v I I I I #
coedge $-1 $134 $328 $219 $329 forward $129 $-1 #
coedge $-1 $330 $131 $218 $329 reversed $81 $-1 #
coedge $-1 $131 $330 $331 $332 reversed $81 $-1 #
edge $-1 $333 -11.708777190025334 $227 -8.7087771900253337 $131 $334 forward 7 unknown #
coedge $-1 $133 $132 $335 $336 reversed $52 $-1 #
coedge $-1 $337 $338 $133 $224 forward $339 $-1 #
edge $-1 $226 8.7087771900253337 $340 11.708777190025334 $223 $341 forward 7 unknown #
coedge $-1 $328 $134 $338 $342 forward $129 $-1 #
vertex $-1 $224 $343 #
vertex $-1 $221 $344 #
straight-curve $-1 0 24.562667796792521 8.7087771900253337 1 0 0 I I #
face $-1 $-1 $241 $30 $-1 $345 forward single #
loop $-1 $-1 $346 $136 #
plane-surface $-1 -60.0030518509476 0 0 1 0 0 0 0 -1 forward_v I I I I #
coedge $-1 $347 $348 $349 $350 reversed $137 $-1 #
coedge $-1 $351 $139 $141 $239 forward $85 $-1 #
coedge $-1 $139 $351 $347 $352 forward $85 $-1 #
coedge $-1 $349 $142 $139 $236 forward $241 $-1 #
edge $-1 $243 -6.5102040494767976 $353 -0.50612876490627912 $235 $354 forward 7 unknown #
coedge $-1 $355 $356 $140 $238 forward $230 $-1 #
edge $-1 $357 -46.644944889130095 $242 -42.291864513312376 $237 $358 forward 7 unknown #
edge $-1 $243 -7.9925970026433255 $357 0 $141 $359 forward 7 unknown #
coedge $-1 $142 $349 $355 $360 forward $241 $-1 #
loop $-1 $-1 $349 $229 #
vertex $-1 $238 $361 #
vertex $-1 $143 $362 #
straight-curve $-1 -62.681530611703934 -10.018370456668336 11.708777190025337 1 0 0 I I #
coedge $-1 $245 $245 $-1 $363 reversed $146 $-1 #
edge $-1 $364 0 $364 6.2831853071796004 $147 $365 forward 7 unknown #
vertex $-1 $150 $366 #
ellipse-curve $-1 -56.651473935683889 -8.3029203753624721 9.5322370021164726 -0.54463904215088732 0 0.83867056331134215 0.41933528165567108 0 0.27231952107544366 1 I I #
coedge $-1 $249 $249 $-1 $367 reversed $153 $-1 #
edge $-1 $368 0 $368 6.2831853071796004 $154 $369 forward 7 unknown #
vertex $-1 $157 $370 #
ellipse-curve $-1 -56.651473935683889 -5.7297452534036779 9.5322370021164726 -0.54463904215088732 0 0.83867056331134215 0.41933528165567108 0 0.27231952107544366 1 I I #
face $-1 $-1 $371 $33 $-1 $372 reversed single #
loop $-1 $-1 $164 $158 #
plane-surface $-1 0 0 11.708777190025334 0 0 1 1 0 0 forward_v I I I I #
coedge $-1 $373 $374 $375 $376 reversed $159 $-1 #
coedge $-1 $377 $161 $163 $263 forward $99 $-1 #
coedge $-1 $161 $377 $373 $378 forward $99 $-1 #
coedge $-1 $375 $164 $161 $260 forward $254 $-1 #
edge $-1 $266 -2.1658992463067506 $379 3.8375964497111461 $259 $380 forward 7 unknown #
coedge $-1 $381 $382 $162 $262 forward $371 $-1 #
edge $-1 $383 -84.369028121079012 $265 -73.533068836020362 $261 $384 forward 7 unknown #
edge $-1 $266 104.11756233467773 $383 120.0061037018952 $163 $385 forward 7 unknown #
coedge $-1 $164 $375 $381 $386 forward $254 $-1 #
vertex $-1 $262 $387 #
vertex $-1 $165 $388 #
straight-curve $-1 27.04005574715552 1.3300506446045528 11.70877719002533 -1 0 0 I I #
coedge $-1 $268 $268 $-1 $389 reversed $168 $-1 #
edge $-1 $390 0 $390 6.2831853071796004 $169 $391 forward 7 unknown #
vertex $-1 $172 $392 #
ellipse-curve $-1 54.192980139894196 -2.9581605668367992 6.2907975474960027 0.68199836817093118 0 0.7313536940579346 0.3656768470289673 0 -0.34099918408546559 1 I I #
coedge $-1 $272 $272 $-1 $393 reversed $175 $-1 #
edge $-1 $394 0 $394 6.2831853071796004 $176 $395 forward 7 unknown #
vertex $-1 $179 $396 #
ellipse-curve $-1 54.192980139894196 -0.38523383997198479 6.2907975474960027 0.68199836817093118 0 0.7313536940579346 0.3656768470289673 0 -0.34099918408546559 1 I I #
face $-1 $-1 $195 $27 $-1 $397 reversed single #
loop $-1 $-1 $292 $180 #
plane-surface $-1 0 24.562667796792521 0 0 -1 0 0 0 -1 forward_v I I I I #
coedge $-1 $398 $290 $293 $399 forward $181 $-1 #
coedge $-1 $296 $183 $184 $284 reversed $113 $-1 #
coedge $-1 $290 $398 $183 $282 reversed $181 $-1 #
edge $-1 $297 -11.708777190025334 $400 11.708777190025334 $281 $401 forward 7 unknown #
coedge $-1 $185 $184 $398 $402 forward $73 $-1 #
edge $-1 $288 -60.0030518509476 $400 60.0030518509476 $280 $403 forward 7 unknown #
coedge $-1 $293 $292 $185 $286 reversed $277 $-1 #
edge $-1 $404 -60.0030518509476 $287 60.0030518509476 $285 $405 forward 7 unknown #
vertex $-1 $187 $406 #
vertex $-1 $299 $407 #
straight-curve $-1 60.0030518509476 0 -11.708777190025334 0 -1 0 I I #
coedge $-1 $279 $281 $188 $291 reversed $181 $-1 #
edge $-1 $294 -24.562667796792521 $297 24.562667796792521 $290 $408 forward 7 unknown #
coedge $-1 $285 $189 $194 $300 forward $277 $-1 #
coedge $-1 $189 $285 $279 $399 reversed $277 $-1 #
vertex $-1 $190 $409 #
straight-curve $-1 0 24.562667796792521 11.708777190025334 -1 0 0 I I #
coedge $-1 $191 $280 $193 $299 reversed $113 $-1 #
vertex $-1 $291 $410 #
straight-curve $-1 0 -24.562667796792521 11.708777190025334 1 0 0 I I #
edge $-1 $196 -11.708777190025334 $288 11.708777190025334 $193 $411 forward 7 unknown #
edge $-1 $197 -11.708777190025334 $287 11.708777190025334 $194 $412 forward 7 unknown #
point $-1 60.0030518509476 -24.562667796792521 11.708777190025334 #
point $-1 60.0030518509476 24.562667796792521 11.708777190025334 #
face $-1 $-1 $317 $28 $-1 $413 reversed single #
loop $-1 $-1 $414 $199 #
plane-surface $-1 0 -39.106965136916706 10.208777190025334 0 1 0 0 0 1 forward_v I I I I #
coedge $-1 $415 $202 $211 $321 reversed $121 $-1 #
coedge $-1 $202 $415 $203 $309 reversed $121 $-1 #
coedge $-1 $204 $203 $416 $417 forward $77 $-1 #
edge $-1 $313 24.562667796792521 $418 39.106965136916706 $307 $419 forward 7 unknown #
coedge $-1 $420 $208 $204 $311 reversed $317 $-1 #
edge $-1 $421 -39.106965136916706 $312 -24.562667796792521 $310 $422 forward 7 unknown #
vertex $-1 $209 $423 #
vertex $-1 $309 $424 #
straight-curve $-1 0 -24.562667796792521 11.708777190025334 -1 0 0 I I #
straight-curve $-1 -60.0030518509476 -24.562667796792521 0 0 0 -1 I I #
coedge $-1 $208 $420 $210 $320 reversed $317 $-1 #
loop $-1 $-1 $208 $303 #
straight-curve $-1 60.0030518509476 -24.562667796792521 0 0 0 1 I I #
coedge $-1 $211 $210 $425 $426 forward $200 $-1 #
edge $-1 $212 -7.2721486700620943 $427 7.2721486700620943 $316 $428 forward 7 unknown #
edge $-1 $429 -7.2721486700620943 $213 7.2721486700620943 $306 $430 forward 7 unknown #
point $-1 60.0030518509476 -24.562667796792518 8.7087771900253337 #
point $-1 -60.0030518509476 -24.562667796792518 8.7087771900253337 #
face $-1 $-1 $339 $29 $-1 $431 reversed single #
loop $-1 $-1 $335 $215 #
plane-surface $-1 0 0 11.708777190025334 0 0 1 1 0 0 forward_v I I I I #
coedge $-1 $432 $433 $330 $434 forward $216 $-1 #
coedge $-1 $218 $225 $432 $435 forward $129 $-1 #
edge $-1 $436 -7.2721486700620908 $227 7.2721486700620908 $219 $437 forward 7 unknown #
coedge $-1 $220 $219 $327 $434 reversed $81 $-1 #
coedge $-1 $438 $335 $220 $332 forward $325 $-1 #
edge $-1 $333 24.562667796792521 $439 39.106965136916699 $220 $440 forward 7 unknown #
vertex $-1 $332 $441 #
straight-curve $-1 60.0030518509476 24.562667796792521 0 0 0 -1 I I #
coedge $-1 $331 $442 $222 $336 forward $325 $-1 #
edge $-1 $340 -60.0030518509476 $333 60.0030518509476 $335 $443 forward 7 unknown #
coedge $-1 $444 $223 $442 $445 reversed $339 $-1 #
coedge $-1 $223 $444 $225 $342 reversed $339 $-1 #
loop $-1 $-1 $223 $324 #
vertex $-1 $224 $446 #
straight-curve $-1 -60.0030518509476 24.562667796792521 0 0 0 1 I I #
edge $-1 $226 -7.2721486700620908 $447 7.2721486700620908 $338 $448 forward 7 unknown #
point $-1 -60.0030518509476 24.562667796792518 8.7087771900253337 #
point $-1 60.0030518509476 24.562667796792518 8.7087771900253337 #
plane-surface $-1 0 0 11.708777190025334 0 0 1 1 0 0 forward_v I I I I #
coedge $-1 $356 $355 $348 $449 forward $230 $-1 #
coedge $-1 $348 $232 $234 $352 reversed $137 $-1 #
coedge $-1 $232 $347 $346 $449 reversed $137 $-1 #
coedge $-1 $240 $235 $232 $350 forward $241 $-1 #
edge $-1 $353 -9.3816345912837562 $450 -2.6784787607563345 $349 $451 forward 7 unknown #
coedge $-1 $234 $233 $356 $452 reversed $85 $-1 #
edge $-1 $453 0 $353 7.9925970026433255 $347 $454 forward 7 unknown #
vertex $-1 $236 $455 #
straight-curve $-1 -53.299896020420178 -3.5081664071915384 11.708777190025332 0 1 0 I I #
coedge $-1 $346 $237 $240 $360 reversed $230 $-1 #
coedge $-1 $237 $346 $351 $452 forward $230 $-1 #
vertex $-1 $238 $456 #
straight-curve $-1 -60.0030518509476 -10.018370456668336 54.000641703337713 0 0 1 I I #
straight-curve $-1 -60.0030518509476 -10.018370456668336 7.3556968142076187 -0.83867056331134215 0 -0.54463904215088732 I I #
edge $-1 $450 4.0142951720978175 $242 10.018370456668336 $355 $457 forward 7 unknown #
point $-1 -60.0030518509476 -10.018370456668336 11.708777190025334 #
point $-1 -53.299896020420178 -10.018370456668336 11.708777190025334 #
edge $-1 $458 1 $458 0 $245 $-1 forward 7 unknown #
vertex $-1 $246 $459 #
ellipse-curve $-1 -56.106834893533005 -8.3029203753624721 8.693566438805135 -0.54463904215088732 0 0.83867056331134215 0.41933528165567108 0 0.27231952107544366 1 I I #
point $-1 -56.232138654028219 -8.3029203753624721 9.8045565231919216 #
edge $-1 $460 1 $460 0 $249 $-1 forward 7 unknown #
vertex $-1 $250 $461 #
ellipse-curve $-1 -56.106834893533005 -5.7297452534036779 8.693566438805135 -0.54463904215088732 0 0.83867056331134215 0.41933528165567108 0 0.27231952107544366 1 I I #
point $-1 -56.232138654028219 -5.7297452534036779 9.8045565231919216 #
loop $-1 $-1 $261 $253 #
plane-surface $-1 60.0030518509476 0 0 -1 0 0 0 0 1 forward_v I I I I #
coedge $-1 $374 $256 $258 $378 reversed $159 $-1 #
coedge $-1 $256 $373 $462 $463 reversed $159 $-1 #
coedge $-1 $264 $259 $256 $376 forward $254 $-1 #
edge $-1 $379 21.342852681685287 $464 32.962996103792079 $375 $465 forward 7 unknown #
coedge $-1 $258 $257 $382 $466 reversed $99 $-1 #
edge $-1 $467 -120.0061037018952 $379 -104.11756233467773 $373 $468 forward 7 unknown #
vertex $-1 $260 $469 #
straight-curve $-1 48.382908428840793 -0.83584860170219777 11.708777190025337 0 -1 0 I I #
coedge $-1 $462 $261 $264 $386 reversed $371 $-1 #
coedge $-1 $261 $462 $377 $466 forward $371 $-1 #
vertex $-1 $262 $470 #
straight-curve $-1 60.0030518509476 1.3300506446045528 85.241846026045692 0 0 1 I I #
straight-curve $-1 -27.763855400933025 1.3300506446045528 82.716784800210746 0.7313536940579346 0 -0.68199836817093118 I I #
edge $-1 $464 -4.6734450514133439 $265 1.3300506446045528 $381 $471 forward 7 unknown #
point $-1 60.0030518509476 1.3300506446045528 11.708777190025334 #
point $-1 48.382908428840807 1.3300506446045528 11.70877719002533 #
edge $-1 $472 1 $472 0 $268 $-1 forward 7 unknown #
vertex $-1 $269 $473 #
ellipse-curve $-1 53.097821927752889 -2.9581605668367992 5.1163841743738461 0.68199836817093118 0 0.7313536940579346 0.3656768470289673 0 -0.34099918408546559 1 I I #
point $-1 54.558656986923161 -2.9581605668367992 5.9497983634105278 #
edge $-1 $474 1 $474 0 $272 $-1 forward 7 unknown #
vertex $-1 $273 $475 #
ellipse-curve $-1 53.097821927752889 -0.38523383997198479 5.1163841743738461 0.68199836817093118 0 0.7313536940579346 0.3656768470289673 0 -0.34099918408546559 1 I I #
point $-1 54.558656986923161 -0.38523383997198479 5.9497983634105278 #
plane-surface $-1 60.0030518509476 0 0 -1 0 0 0 0 1 forward_v I I I I #
coedge $-1 $281 $279 $283 $402 reversed $181 $-1 #
edge $-1 $294 -11.708777190025334 $404 11.708777190025334 $293 $476 forward 7 unknown #
vertex $-1 $402 $477 #
straight-curve $-1 -60.0030518509476 -24.562667796792521 0 0 0 -1 I I #
edge $-1 $400 -24.562667796792521 $404 24.562667796792521 $398 $478 forward 7 unknown #
straight-curve $-1 0 -24.562667796792521 -11.708777190025334 -1 0 0 I I #
vertex $-1 $286 $479 #
straight-curve $-1 0 24.562667796792521 -11.708777190025334 1 0 0 I I #
point $-1 60.0030518509476 24.562667796792521 -11.708777190025334 #
point $-1 60.0030518509476 -24.562667796792521 -11.708777190025334 #
straight-curve $-1 -60.0030518509476 0 11.708777190025334 0 -1 0 I I #
point $-1 -60.0030518509476 24.562667796792521 11.708777190025334 #
point $-1 -60.0030518509476 -24.562667796792521 11.708777190025334 #
straight-curve $-1 60.0030518509476 -24.562667796792521 0 0 0 -1 I I #
straight-curve $-1 60.0030518509476 24.562667796792521 0 0 0 -1 I I #
plane-surface $-1 60.0030518509476 0 0 -1 0 0 0 0 1 forward_v I I I I #
coedge $-1 $425 $416 $415 $480 forward $304 $-1 #
coedge $-1 $307 $306 $414 $480 reversed $121 $-1 #
coedge $-1 $414 $481 $308 $417 reversed $304 $-1 #
edge $-1 $418 -60.0030518509476 $421 60.0030518509476 $416 $482 forward 7 unknown #
vertex $-1 $309 $483 #
straight-curve $-1 -60.0030518509476 0 11.708777190025334 0 -1 0 I I #
coedge $-1 $316 $310 $481 $484 forward $317 $-1 #
vertex $-1 $311 $485 #
straight-curve $-1 60.0030518509476 0 11.708777190025334 0 1 0 I I #
point $-1 60.0030518509476 -24.562667796792521 11.708777190025334 #
point $-1 -60.0030518509476 -24.562667796792521 11.708777190025334 #
coedge $-1 $481 $414 $319 $426 reversed $304 $-1 #
edge $-1 $427 -60.0030518509476 $429 60.0030518509476 $425 $486 forward 7 unknown #
vertex $-1 $484 $487 #
straight-curve $-1 60.0030518509476 -31.834816466854612 8.7087771900253337 0 -1 0 I I #
vertex $-1 $321 $488 #
straight-curve $-1 -60.0030518509476 -31.834816466854612 8.7087771900253337 0 1 0 I I #
plane-surface $-1 -60.0030518509476 0 0 1 0 0 0 0 -1 forward_v I I I I #
coedge $-1 $489 $327 $328 $435 reversed $216 $-1 #
coedge $-1 $327 $489 $438 $490 reversed $216 $-1 #
edge $-1 $439 -1.5 $436 1.5 $330 $491 forward 7 unknown #
edge $-1 $447 -60.0030518509476 $436 60.0030518509476 $432 $492 forward 7 unknown #
vertex $-1 $329 $493 #
straight-curve $-1 60.0030518509476 31.834816466854608 8.7087771900253337 0 -1 0 I I #
coedge $-1 $442 $331 $433 $490 forward $325 $-1 #
vertex $-1 $332 $494 #
straight-curve $-1 60.0030518509476 0 11.708777190025334 0 1 0 I I #
point $-1 60.0030518509476 24.562667796792521 11.708777190025334 #
coedge $-1 $335 $438 $337 $445 forward $325 $-1 #
straight-curve $-1 0 24.562667796792521 11.708777190025334 1 0 0 I I #
coedge $-1 $338 $337 $489 $495 forward $339 $-1 #
edge $-1 $496 -39.106965136916699 $340 -24.562667796792521 $337 $497 forward 7 unknown #
point $-1 -60.0030518509476 24.562667796792521 11.708777190025334 #
vertex $-1 $435 $498 #
straight-curve $-1 -60.0030518509476 31.834816466854608 8.7087771900253337 0 1 0 I I #
edge $-1 $450 42.291864513312376 $453 46.644944889130095 $346 $499 forward 7 unknown #
vertex $-1 $360 $500 #
straight-curve $-1 -62.681530611703934 -4.0142951720978175 11.708777190025337 -1 0 0 I I #
edge $-1 $453 0.50612876490627912 $357 6.5102040494767976 $356 $501 forward 7 unknown #
vertex $-1 $452 $502 #
straight-curve $-1 -60.0030518509476 -4.0142951720978175 7.3556968142076187 0.83867056331134215 0 0.54463904215088732 I I #
point $-1 -53.299896020420178 -4.0142951720978175 11.708777190025334 #
point $-1 -60.0030518509476 -10.018370456668336 7.3556968142076187 #
straight-curve $-1 -60.0030518509476 0 11.708777190025334 0 -1 0 I I #
vertex $-1 $363 $503 #
point $-1 -55.687499611877335 -8.3029203753624721 8.9658859598805787 #
vertex $-1 $367 $504 #
point $-1 -55.687499611877335 -5.7297452534036779 8.9658859598805787 #
coedge $-1 $382 $381 $374 $463 forward $371 $-1 #
edge $-1 $464 73.533068836020362 $467 84.369028121079012 $462 $505 forward 7 unknown #
vertex $-1 $386 $506 #
straight-curve $-1 27.04005574715552 -4.6734450514133439 11.70877719002533 1 0 0 I I #
edge $-1 $467 -3.8375964497111461 $383 2.1658992463067506 $382 $507 forward 7 unknown #
vertex $-1 $466 $508 #
straight-curve $-1 -27.763855400933025 -4.6734450514133439 82.716784800210746 -0.7313536940579346 0 0.68199836817093118 I I #
point $-1 48.382908428840807 -4.6734450514133439 11.70877719002533 #
point $-1 60.0030518509476 1.3300506446045528 0.87281790496668066 #
straight-curve $-1 60.0030518509476 0 11.708777190025334 0 1 0 I I #
vertex $-1 $389 $509 #
point $-1 53.463498774781861 -2.9581605668367992 4.7753849902883809 #
vertex $-1 $393 $510 #
point $-1 53.463498774781861 -0.38523383997198479 4.7753849902883809 #
straight-curve $-1 -60.0030518509476 24.562667796792521 0 0 0 -1 I I #
point $-1 -60.0030518509476 -24.562667796792521 -11.708777190025334 #
straight-curve $-1 -60.0030518509476 0 -11.708777190025334 0 1 0 I I #
point $-1 -60.0030518509476 24.562667796792521 -11.708777190025334 #
edge $-1 $418 -1.5 $429 1.5 $415 $511 forward 7 unknown #
coedge $-1 $416 $425 $420 $484 reversed $304 $-1 #
straight-curve $-1 0 -39.106965136916706 11.708777190025334 1 0 0 I I #
point $-1 -60.0030518509476 -39.106965136916706 11.708777190025334 #
edge $-1 $421 -1.5 $427 1.5 $420 $512 forward 7 unknown #
point $-1 60.0030518509476 -39.106965136916706 11.708777190025334 #
straight-curve $-1 0 -39.106965136916706 8.7087771900253337 -1 0 0 I I #
point $-1 60.0030518509476 -39.106965136916706 8.7087771900253337 #
point $-1 -60.0030518509476 -39.106965136916706 8.7087771900253337 #
coedge $-1 $433 $432 $444 $495 reversed $216 $-1 #
edge $-1 $439 -60.0030518509476 $496 60.0030518509476 $433 $513 forward 7 unknown #
straight-curve $-1 60.0030518509476 39.106965136916699 10.208777190025334 0 0 -1 I I #
straight-curve $-1 0 39.106965136916699 8.7087771900253337 1 0 0 I I #
point $-1 60.0030518509476 39.106965136916699 8.7087771900253337 #
point $-1 60.0030518509476 39.106965136916699 11.708777190025334 #
edge $-1 $496 -1.5 $447 1.5 $489 $514 forward 7 unknown #
vertex $-1 $490 $515 #
straight-curve $-1 -60.0030518509476 0 11.708777190025334 0 -1 0 I I #
point $-1 -60.0030518509476 39.106965136916699 8.7087771900253337 #
straight-curve $-1 -60.0030518509476 -4.0142951720978175 54.000641703337713 0 0 -1 I I #
point $-1 -60.0030518509476 -4.0142951720978175 11.708777190025334 #
straight-curve $-1 -60.0030518509476 -3.5081664071915384 7.3556968142076196 0 -1 0 I I #
point $-1 -60.0030518509476 -4.0142951720978175 7.3556968142076187 #
point $-1 -55.83451537245756 -8.3029203753624721 8.2742311571494653 #
point $-1 -55.83451537245756 -5.7297452534036779 8.2742311571494653 #
straight-curve $-1 60.0030518509476 -4.6734450514133439 85.241846026045692 0 0 -1 I I #
point $-1 60.0030518509476 -4.6734450514133439 11.708777190025334 #
straight-curve $-1 60.0030518509476 -0.83584860170219777 0.87281790496669487 0 1 0 I I #
point $-1 60.0030518509476 -4.6734450514133439 0.87281790496668066 #
point $-1 52.756822743667428 -2.9581605668367992 4.7507073273448794 #
point $-1 52.756822743667428 -0.38523383997198479 4.7507073273448794 #
straight-curve $-1 -60.0030518509476 -39.106965136916706 10.208777190025334 0 0 -1 I I #
straight-curve $-1 60.0030518509476 -39.106965136916706 10.208777190025334 0 0 -1 I I #
straight-curve $-1 0 39.106965136916699 11.708777190025334 -1 0 0 I I #
straight-curve $-1 -60.0030518509476 39.106965136916699 10.208777190025334 0 0 -1 I I #
point $-1 -60.0030518509476 39.106965136916699 11.708777190025334 #
End-of-ACIS-data 