500 0 17 0           
7 Unknown 11 ACIS 5.0 NT 24 Fri Mar 26 19:23:26 1999 
-1 9.9999999999999995e-007 1e-010 
body $-1 $17 $-1 $18 #
body $-1 $19 $-1 $20 #
body $-1 $21 $-1 $22 #
body $-1 $23 $-1 $24 #
body $-1 $25 $-1 $26 #
body $-1 $27 $-1 $28 #
body $-1 $29 $-1 $30 #
body $-1 $31 $-1 $32 #
body $-1 $33 $-1 $34 #
body $-1 $35 $-1 $36 #
body $-1 $37 $-1 $38 #
body $-1 $39 $-1 $40 #
body $-1 $41 $-1 $42 #
body $-1 $43 $-1 $44 #
body $-1 $45 $-1 $46 #
body $-1 $47 $-1 $48 #
body $-1 $49 $-1 $50 #
lump $-1 $-1 $51 $0 #
transform $-1 1 0 0 0 1 0 0 0 1 55.421613208410903 36.897395244610834 11.834259325639746 1 rotate no_reflect no_shear #
lump $-1 $-1 $52 $1 #
transform $-1 1 0 0 0 1 0 0 0 1 55.421613208410903 36.897395244610834 11.834259325639746 1 rotate no_reflect no_shear #
lump $-1 $-1 $53 $2 #
transform $-1 1 0 0 0 1 0 0 0 1 55.421613208410903 36.897395244610834 11.834259325639746 1 rotate no_reflect no_shear #
lump $-1 $-1 $54 $3 #
transform $-1 1 0 0 0 1 0 0 0 1 55.421613208410903 36.897395244610834 11.834259325639746 1 rotate no_reflect no_shear #
lump $-1 $-1 $55 $4 #
transform $-1 1 0 0 0 1 0 0 0 1 55.421613208410903 36.897395244610834 11.834259325639746 1 rotate no_reflect no_shear #
lump $-1 $-1 $56 $5 #
transform $-1 1 0 0 0 1 0 0 0 1 55.421613208410903 36.897395244610834 11.834259325639746 1 rotate no_reflect no_shear #
lump $-1 $-1 $57 $6 #
transform $-1 1 0 0 0 1 0 0 0 1 55.421613208410903 36.897395244610834 11.834259325639746 1 rotate no_reflect no_shear #
lump $-1 $-1 $58 $7 #
transform $-1 1 0 0 0 1 0 0 0 1 55.421613208410903 36.897395244610834 11.834259325639746 1 rotate no_reflect no_shear #
lump $-1 $-1 $59 $8 #
transform $-1 1 0 0 0 1 0 0 0 1 55.421613208410903 36.897395244610834 11.834259325639746 1 rotate no_reflect no_shear #
lump $-1 $-1 $60 $9 #
transform $-1 1 0 0 0 1 0 0 0 1 55.421613208410903 36.897395244610834 11.834259325639746 1 rotate no_reflect no_shear #
lump $-1 $-1 $61 $10 #
transform $-1 1 0 0 0 1 0 0 0 1 55.421613208410903 36.897395244610834 11.834259325639746 1 rotate no_reflect no_shear #
lump $-1 $-1 $62 $11 #
transform $-1 1 0 0 0 1 0 0 0 1 55.421613208410903 36.897395244610834 11.834259325639746 1 rotate no_reflect no_shear #
lump $-1 $-1 $63 $12 #
transform $-1 1 0 0 0 1 0 0 0 1 55.421613208410903 36.897395244610834 11.834259325639746 1 rotate no_reflect no_shear #
lump $-1 $-1 $64 $13 #
transform $-1 1 0 0 0 1 0 0 0 1 55.421613208410903 36.897395244610834 11.834259325639746 1 rotate no_reflect no_shear #
lump $-1 $-1 $65 $14 #
transform $-1 1 0 0 0 1 0 0 0 1 55.421613208410903 36.897395244610834 11.834259325639746 1 rotate no_reflect no_shear #
lump $-1 $-1 $66 $15 #
transform $-1 1 0 0 0 1 0 0 0 1 55.421613208410903 36.897395244610834 11.834259325639746 1 rotate no_reflect no_shear #
lump $-1 $-1 $67 $16 #
transform $-1 1 0 0 0 1 0 0 0 1 55.421613208410903 36.897395244610834 11.834259325639746 1 rotate no_reflect no_shear #
shell $-1 $-1 $-1 $68 $-1 $17 #
shell $-1 $-1 $-1 $69 $-1 $19 #
shell $-1 $-1 $-1 $70 $-1 $21 #
shell $-1 $-1 $-1 $71 $-1 $23 #
shell $-1 $-1 $-1 $72 $-1 $25 #
shell $-1 $-1 $-1 $73 $-1 $27 #
shell $-1 $-1 $-1 $74 $-1 $29 #
shell $-1 $-1 $-1 $75 $-1 $31 #
shell $-1 $-1 $-1 $76 $-1 $33 #
shell $-1 $-1 $-1 $77 $-1 $35 #
shell $-1 $-1 $-1 $78 $-1 $37 #
shell $-1 $-1 $-1 $79 $-1 $39 #
shell $-1 $-1 $-1 $80 $-1 $41 #
shell $-1 $-1 $-1 $81 $-1 $43 #
shell $-1 $-1 $-1 $82 $-1 $45 #
shell $-1 $-1 $-1 $83 $-1 $47 #
shell $-1 $-1 $-1 $84 $-1 $49 #
face $-1 $85 $86 $51 $-1 $87 forward single #
face $-1 $88 $89 $52 $-1 $90 forward single #
face $-1 $91 $92 $53 $-1 $93 reversed single #
face $-1 $94 $95 $54 $-1 $96 forward single #
face $-1 $97 $98 $55 $-1 $99 forward single #
face $-1 $100 $101 $56 $-1 $102 reversed single #
face $-1 $103 $104 $57 $-1 $105 forward single #
face $-1 $106 $107 $58 $-1 $108 forward single #
face $-1 $109 $110 $59 $-1 $111 reversed single #
face $-1 $112 $113 $60 $-1 $114 forward single #
face $-1 $115 $116 $61 $-1 $117 forward single #
face $-1 $118 $119 $62 $-1 $120 reversed single #
face $-1 $121 $122 $63 $-1 $123 forward single #
face $-1 $124 $125 $64 $-1 $126 forward single #
face $-1 $127 $128 $65 $-1 $129 reversed single #
face $-1 $130 $131 $66 $-1 $132 forward single #
face $-1 $133 $134 $67 $-1 $135 forward single #
face $-1 $136 $137 $51 $-1 $138 reversed single #
loop $-1 $-1 $139 $68 #
plane-surface $-1 0 0 11.834259325639746 0 0 1 1 0 0 forward_v I I I I #
face $-1 $140 $141 $52 $-1 $142 reversed single #
loop $-1 $-1 $143 $69 #
plane-surface $-1 -55.421613208410903 0 0 1 0 0 0 0 -1 forward_v I I I I #
face $-1 $144 $145 $53 $-1 $146 reversed single #
loop $-1 $-1 $147 $70 #
plane-surface $-1 -17.702718741855755 33.053825750216234 141.53201002230048 1 0 0 0 -0.52991927123019833 -0.84804809178421925 forward_v I I I I #
face $-1 $148 $149 $54 $-1 $150 forward single #
loop $-1 $151 $152 $71 #
cone-surface $-1 -11.967116985950284 33.502253924956435 9.0608973358223341 0 -0.52991927123019833 -0.84804809178421925 1.5 0 0 1 I I 0 1 1.5 forward I I I I #
face $-1 $153 $154 $55 $-1 $155 forward single #
loop $-1 $156 $157 $72 #
cone-surface $-1 -3.3637143520920745 33.502253924956435 9.0608973358223341 0 -0.52991927123019833 -0.84804809178421925 1.5 0 0 1 I I 0 1 1.5 forward I I I I #
face $-1 $158 $159 $56 $-1 $160 reversed single #
loop $-1 $-1 $161 $73 #
plane-surface $-1 -26.753219628295838 -115.27539320192615 81.654277742756562 -1 0 0 0 -0.70710678939079041 0.70710677298230451 forward_v I I I I #
face $-1 $162 $163 $57 $-1 $164 forward single #
loop $-1 $165 $166 $74 #
cone-surface $-1 -36.530635168750251 -31.367433643822167 6.3042976545856568 0 0.70710678939079041 -0.70710677298230451 1 0 0 1 I I 0 1 1 forward I I I I #
face $-1 $167 $168 $58 $-1 $169 forward single #
loop $-1 $170 $171 $75 #
cone-surface $-1 -30.664185844477604 -31.367433643822167 6.3042976545856568 0 0.70710678939079041 -0.70710677298230451 1 0 0 1 I I 0 1 1 forward I I I I #
face $-1 $172 $173 $59 $-1 $174 reversed single #
loop $-1 $-1 $175 $76 #
plane-surface $-1 0.63839131727307663 -115.27539320192615 81.654277742756562 -1 0 0 0 -0.70710678939079041 0.70710677298230451 forward_v I I I I #
face $-1 $176 $177 $60 $-1 $178 forward single #
loop $-1 $179 $180 $77 #
cone-surface $-1 -9.1390242231813374 -31.367433643822167 6.3042976545856568 0 0.70710678939079041 -0.70710677298230451 1 0 0 1 I I 0 1 1 forward I I I I #
face $-1 $181 $182 $61 $-1 $183 forward single #
loop $-1 $184 $185 $78 #
cone-surface $-1 -3.2725748989086867 -31.367433643822167 6.3042976545856568 0 0.70710678939079041 -0.70710677298230451 1 0 0 1 I I 0 1 1 forward I I I I #
face $-1 $186 $187 $62 $-1 $188 reversed single #
loop $-1 $-1 $189 $79 #
plane-surface $-1 28.03000226284199 -115.27539320192615 81.654277742756562 -1 0 0 0 -0.70710678939079041 0.70710677298230451 forward_v I I I I #
face $-1 $190 $191 $63 $-1 $192 forward single #
loop $-1 $193 $194 $80 #
cone-surface $-1 18.252586722387576 -31.367433643822167 6.3042976545856568 0 0.70710678939079041 -0.70710677298230451 1 0 0 1 I I 0 1 1 forward I I I I #
face $-1 $195 $196 $64 $-1 $197 forward single #
loop $-1 $198 $199 $81 #
cone-surface $-1 24.119036046660227 -31.367433643822167 6.3042976545856568 0 0.70710678939079041 -0.70710677298230451 1 0 0 1 I I 0 1 1 forward I I I I #
face $-1 $200 $201 $65 $-1 $202 reversed single #
loop $-1 $-1 $203 $82 #
plane-surface $-1 48.577422330092816 -36.897395244610834 3.2762816042107659 0 -0.70710678939079041 0.70710677298230451 1 0 0 forward_v I I I I #
face $-1 $204 $205 $66 $-1 $206 forward single #
loop $-1 $207 $208 $83 #
cone-surface $-1 45.64419766795649 -31.367433643822167 6.3042976545856568 0 0.70710678939079041 -0.70710677298230451 1 0 0 1 I I 0 1 1 forward I I I I #
face $-1 $209 $210 $67 $-1 $211 forward single #
loop $-1 $212 $213 $84 #
cone-surface $-1 51.510646992229141 -31.367433643822167 6.3042976545856568 0 0.70710678939079041 -0.70710677298230451 1 0 0 1 I I 0 1 1 forward I I I I #
face $-1 $214 $215 $51 $-1 $216 reversed single #
loop $-1 $-1 $217 $85 #
plane-surface $-1 0 0 -11.834259325639746 0 0 1 1 0 0 forward_v I I I I #
coedge $-1 $218 $219 $220 $221 forward $86 $-1 #
face $-1 $222 $223 $52 $-1 $224 forward single #
loop $-1 $-1 $225 $88 #
plane-surface $-1 0 36.897395244610834 0 0 -1 0 0 0 -1 forward_v I I I I #
coedge $-1 $226 $227 $228 $229 forward $89 $-1 #
face $-1 $230 $231 $53 $-1 $232 reversed single #
loop $-1 $-1 $233 $91 #
plane-surface $-1 -7.6654156690211792 -25.684136013389846 47.531623372308587 0 0.52991927123019833 0.84804809178421925 1 0 0 forward_v I I I I #
coedge $-1 $234 $235 $236 $237 reversed $92 $-1 #
face $-1 $-1 $238 $54 $-1 $239 forward single #
loop $-1 $240 $241 $94 #
cone-surface $-1 -11.967116985950284 32.436577165481538 7.3554580521490927 0 -0.52991927123019833 -0.84804809178421925 0.75 0 0 1 I I -0.70710678118654757 0.70710678118654757 0.75 forward I I I I #
loop $-1 $-1 $242 $71 #
coedge $-1 $152 $152 $243 $244 reversed $95 $-1 #
face $-1 $-1 $245 $55 $-1 $246 forward single #
loop $-1 $247 $248 $97 #
cone-surface $-1 -3.3637143520920745 32.436577165481538 7.3554580521490927 0 -0.52991927123019833 -0.84804809178421925 0.75 0 0 1 I I -0.70710678118654757 0.70710678118654757 0.75 forward I I I I #
loop $-1 $-1 $249 $72 #
coedge $-1 $157 $157 $250 $251 reversed $98 $-1 #
face $-1 $252 $253 $56 $-1 $254 reversed single #
loop $-1 $-1 $255 $100 #
plane-surface $-1 -33.597410506613926 -36.897395244610834 3.2762816042107659 0 -0.70710678939079041 0.70710677298230451 1 0 0 forward_v I I I I #
coedge $-1 $256 $257 $258 $259 reversed $101 $-1 #
face $-1 $-1 $260 $57 $-1 $261 forward single #
loop $-1 $262 $263 $103 #
cone-surface $-1 -36.530635168750251 -29.762907409758217 4.6997714577549026 0 0.70710678939079041 -0.70710677298230451 0.5 0 0 1 I I -0.70710678118654746 0.70710678118654746 0.5 forward I I I I #
loop $-1 $-1 $264 $74 #
coedge $-1 $166 $166 $265 $266 reversed $104 $-1 #
face $-1 $-1 $267 $58 $-1 $268 forward single #
loop $-1 $269 $270 $106 #
cone-surface $-1 -30.664185844477604 -29.762907409758217 4.6997714577549026 0 0.70710678939079041 -0.70710677298230451 0.5 0 0 1 I I -0.70710678118654746 0.70710678118654746 0.5 forward I I I I #
loop $-1 $-1 $271 $75 #
coedge $-1 $171 $171 $272 $273 reversed $107 $-1 #
face $-1 $274 $275 $59 $-1 $276 reversed single #
loop $-1 $-1 $277 $109 #
plane-surface $-1 -6.2057995610450121 -36.897395244610834 3.2762816042107659 0 -0.70710678939079041 0.70710677298230451 1 0 0 forward_v I I I I #
coedge $-1 $278 $279 $280 $281 reversed $110 $-1 #
face $-1 $-1 $282 $60 $-1 $283 forward single #
loop $-1 $284 $285 $112 #
cone-surface $-1 -9.1390242231813374 -29.762907409758217 4.6997714577549026 0 0.70710678939079041 -0.70710677298230451 0.5 0 0 1 I I -0.70710678118654746 0.70710678118654746 0.5 forward I I I I #
loop $-1 $-1 $286 $77 #
coedge $-1 $180 $180 $287 $288 reversed $113 $-1 #
face $-1 $-1 $289 $61 $-1 $290 forward single #
loop $-1 $291 $292 $115 #
cone-surface $-1 -3.2725748989086867 -29.762907409758217 4.6997714577549026 0 0.70710678939079041 -0.70710677298230451 0.5 0 0 1 I I -0.70710678118654746 0.70710678118654746 0.5 forward I I I I #
loop $-1 $-1 $293 $78 #
coedge $-1 $185 $185 $294 $295 reversed $116 $-1 #
face $-1 $296 $297 $62 $-1 $298 reversed single #
loop $-1 $-1 $299 $118 #
plane-surface $-1 21.185811384523902 -36.897395244610834 3.2762816042107659 0 -0.70710678939079041 0.70710677298230451 1 0 0 forward_v I I I I #
coedge $-1 $300 $301 $302 $303 reversed $119 $-1 #
face $-1 $-1 $304 $63 $-1 $305 forward single #
loop $-1 $306 $307 $121 #
cone-surface $-1 18.252586722387576 -29.762907409758217 4.6997714577549026 0 0.70710678939079041 -0.70710677298230451 0.5 0 0 1 I I -0.70710678118654746 0.70710678118654746 0.5 forward I I I I #
loop $-1 $-1 $308 $80 #
coedge $-1 $194 $194 $309 $310 reversed $122 $-1 #
face $-1 $-1 $311 $64 $-1 $312 forward single #
loop $-1 $313 $314 $124 #
cone-surface $-1 24.119036046660227 -29.762907409758217 4.6997714577549026 0 0.70710678939079041 -0.70710677298230451 0.5 0 0 1 I I -0.70710678118654746 0.70710678118654746 0.5 forward I I I I #
loop $-1 $-1 $315 $81 #
coedge $-1 $199 $199 $316 $317 reversed $125 $-1 #
face $-1 $318 $319 $65 $-1 $320 reversed single #
loop $-1 $-1 $321 $127 #
plane-surface $-1 41.733231451774728 -115.27539320192615 81.654277742756562 1 0 0 0 0.70710678939079041 -0.70710677298230451 forward_v I I I I #
coedge $-1 $322 $323 $324 $325 reversed $128 $-1 #
face $-1 $-1 $326 $66 $-1 $327 forward single #
loop $-1 $328 $329 $130 #
cone-surface $-1 45.64419766795649 -29.762907409758217 4.6997714577549026 0 0.70710678939079041 -0.70710677298230451 0.5 0 0 1 I I -0.70710678118654746 0.70710678118654746 0.5 forward I I I I #
loop $-1 $-1 $330 $83 #
coedge $-1 $208 $208 $331 $332 reversed $131 $-1 #
face $-1 $-1 $333 $67 $-1 $334 forward single #
loop $-1 $335 $336 $133 #
cone-surface $-1 51.510646992229141 -29.762907409758217 4.6997714577549026 0 0.70710678939079041 -0.70710677298230451 0.5 0 0 1 I I -0.70710678118654746 0.70710678118654746 0.5 forward I I I I #
loop $-1 $-1 $337 $84 #
coedge $-1 $213 $213 $338 $339 reversed $134 $-1 #
face $-1 $340 $341 $51 $-1 $342 reversed single #
loop $-1 $-1 $343 $136 #
plane-surface $-1 0 -36.897395244610834 0 0 1 0 0 0 1 forward_v I I I I #
coedge $-1 $344 $345 $346 $347 forward $137 $-1 #
coedge $-1 $348 $139 $349 $350 forward $86 $-1 #
coedge $-1 $139 $348 $351 $352 forward $86 $-1 #
coedge $-1 $353 $354 $139 $221 reversed $355 $-1 #
edge $-1 $356 -36.897395244610834 $357 36.897395244610834 $220 $358 forward 7 unknown #
face $-1 $359 $360 $52 $-1 $361 reversed single #
loop $-1 $-1 $228 $140 #
plane-surface $-1 -62.911619120150348 0 -0.67041020913636773 0 0 1 1 0 0 forward_v I I I I #
coedge $-1 $362 $363 $227 $364 forward $141 $-1 #
coedge $-1 $365 $143 $366 $367 reversed $89 $-1 #
coedge $-1 $143 $365 $225 $364 reversed $89 $-1 #
coedge $-1 $368 $369 $143 $229 reversed $223 $-1 #
edge $-1 $370 -36.897395244610834 $371 36.897395244610834 $228 $372 forward 7 unknown #
face $-1 $373 $374 $53 $-1 $375 forward single #
loop $-1 $-1 $376 $144 #
plane-surface $-1 2.3718874038133961 33.053825750216234 141.53201002230048 -1 0 0 0 0.52991927123019833 0.84804809178421925 forward_v I I I I #
coedge $-1 $377 $378 $379 $380 reversed $145 $-1 #
coedge $-1 $235 $147 $381 $382 reversed $92 $-1 #
coedge $-1 $147 $234 $377 $383 reversed $92 $-1 #
coedge $-1 $379 $384 $147 $237 forward $374 $-1 #
edge $-1 $385 -20.370482369502717 $386 -14.916674342298442 $236 $387 forward 7 unknown #
loop $-1 $-1 $243 $148 #
plane-surface $-1 -7.6654156690211792 -25.684136013389846 47.531623372308587 0 0.52991927123019833 0.84804809178421925 1 0 0 forward_v I I I I #
loop $-1 $-1 $388 $94 #
coedge $-1 $241 $241 $242 $389 reversed $149 $-1 #
coedge $-1 $242 $242 $241 $389 forward $151 $-1 #
coedge $-1 $243 $243 $152 $244 forward $238 $-1 #
edge $-1 $390 -1.506960816537253e-015 $390 6.2831853071795987 $243 $391 forward 7 unknown #
loop $-1 $-1 $250 $153 #
plane-surface $-1 -7.6654156690211792 -25.684136013389846 47.531623372308587 0 0.52991927123019833 0.84804809178421925 1 0 0 forward_v I I I I #
loop $-1 $-1 $392 $97 #
coedge $-1 $248 $248 $249 $393 reversed $154 $-1 #
coedge $-1 $249 $249 $248 $393 forward $156 $-1 #
coedge $-1 $250 $250 $157 $251 forward $245 $-1 #
edge $-1 $394 -1.506960816537253e-015 $394 6.2831853071795987 $250 $395 forward 7 unknown #
face $-1 $396 $397 $56 $-1 $398 reversed single #
loop $-1 $-1 $399 $158 #
plane-surface $-1 -40.441601384932014 -115.27539320192615 81.654277742756562 1 0 0 0 0.70710678939079041 -0.70710677298230451 forward_v I I I I #
coedge $-1 $400 $401 $402 $403 reversed $159 $-1 #
coedge $-1 $257 $161 $404 $405 reversed $101 $-1 #
coedge $-1 $161 $256 $400 $406 reversed $101 $-1 #
coedge $-1 $402 $407 $161 $259 forward $408 $-1 #
edge $-1 $409 20.740301356352241 $410 29.298278879192466 $258 $411 forward 7 unknown #
loop $-1 $-1 $265 $162 #
plane-surface $-1 -33.597410506613926 -36.897395244610834 3.2762816042107659 0 -0.70710678939079041 0.70710677298230451 1 0 0 forward_v I I I I #
loop $-1 $-1 $412 $103 #
coedge $-1 $263 $263 $264 $413 reversed $163 $-1 #
coedge $-1 $264 $264 $263 $413 forward $165 $-1 #
coedge $-1 $265 $265 $166 $266 forward $260 $-1 #
edge $-1 $414 -4.3962588187330858e-015 $414 6.283185307179596 $265 $415 forward 7 unknown #
loop $-1 $-1 $272 $167 #
plane-surface $-1 -33.597410506613926 -36.897395244610834 3.2762816042107659 0 -0.70710678939079041 0.70710677298230451 1 0 0 forward_v I I I I #
loop $-1 $-1 $416 $106 #
coedge $-1 $270 $270 $271 $417 reversed $168 $-1 #
coedge $-1 $271 $271 $270 $417 forward $170 $-1 #
coedge $-1 $272 $272 $171 $273 forward $267 $-1 #
edge $-1 $418 -4.3962588187330858e-015 $418 6.283185307179596 $272 $419 forward 7 unknown #
face $-1 $420 $421 $59 $-1 $422 reversed single #
loop $-1 $-1 $423 $172 #
plane-surface $-1 -13.0499904393631 -115.27539320192615 81.654277742756562 1 0 0 0 0.70710678939079041 -0.70710677298230451 forward_v I I I I #
coedge $-1 $424 $425 $426 $427 reversed $173 $-1 #
coedge $-1 $279 $175 $428 $429 reversed $110 $-1 #
coedge $-1 $175 $278 $424 $430 reversed $110 $-1 #
coedge $-1 $426 $431 $175 $281 forward $432 $-1 #
edge $-1 $433 20.740301356352241 $434 29.298278879192466 $280 $435 forward 7 unknown #
loop $-1 $-1 $287 $176 #
plane-surface $-1 -6.2057995610450121 -36.897395244610834 3.2762816042107659 0 -0.70710678939079041 0.70710677298230451 1 0 0 forward_v I I I I #
loop $-1 $-1 $436 $112 #
coedge $-1 $285 $285 $286 $437 reversed $177 $-1 #
coedge $-1 $286 $286 $285 $437 forward $179 $-1 #
coedge $-1 $287 $287 $180 $288 forward $282 $-1 #
edge $-1 $438 -4.3962588187330858e-015 $438 6.283185307179596 $287 $439 forward 7 unknown #
loop $-1 $-1 $294 $181 #
plane-surface $-1 -6.2057995610450121 -36.897395244610834 3.2762816042107659 0 -0.70710678939079041 0.70710677298230451 1 0 0 forward_v I I I I #
loop $-1 $-1 $440 $115 #
coedge $-1 $292 $292 $293 $441 reversed $182 $-1 #
coedge $-1 $293 $293 $292 $441 forward $184 $-1 #
coedge $-1 $294 $294 $185 $295 forward $289 $-1 #
edge $-1 $442 -4.3962588187330858e-015 $442 6.283185307179596 $294 $443 forward 7 unknown #
face $-1 $444 $445 $62 $-1 $446 reversed single #
loop $-1 $-1 $447 $186 #
plane-surface $-1 14.341620506205814 -115.27539320192615 81.654277742756562 1 0 0 0 0.70710678939079041 -0.70710677298230451 forward_v I I I I #
coedge $-1 $448 $449 $450 $451 reversed $187 $-1 #
coedge $-1 $301 $189 $452 $453 reversed $119 $-1 #
coedge $-1 $189 $300 $448 $454 reversed $119 $-1 #
coedge $-1 $450 $455 $189 $303 forward $456 $-1 #
edge $-1 $457 20.740301356352241 $458 29.298278879192466 $302 $459 forward 7 unknown #
loop $-1 $-1 $309 $190 #
plane-surface $-1 21.185811384523902 -36.897395244610834 3.2762816042107659 0 -0.70710678939079041 0.70710677298230451 1 0 0 forward_v I I I I #
loop $-1 $-1 $460 $121 #
coedge $-1 $307 $307 $308 $461 reversed $191 $-1 #
coedge $-1 $308 $308 $307 $461 forward $193 $-1 #
coedge $-1 $309 $309 $194 $310 forward $304 $-1 #
edge $-1 $462 -4.3962588187330858e-015 $462 6.283185307179596 $309 $463 forward 7 unknown #
loop $-1 $-1 $316 $195 #
plane-surface $-1 21.185811384523902 -36.897395244610834 3.2762816042107659 0 -0.70710678939079041 0.70710677298230451 1 0 0 forward_v I I I I #
loop $-1 $-1 $464 $124 #
coedge $-1 $314 $314 $315 $465 reversed $196 $-1 #
coedge $-1 $315 $315 $314 $465 forward $198 $-1 #
coedge $-1 $316 $316 $199 $317 forward $311 $-1 #
edge $-1 $466 -4.3962588187330858e-015 $466 6.283185307179596 $316 $467 forward 7 unknown #
face $-1 $468 $469 $65 $-1 $470 forward single #
loop $-1 $-1 $471 $200 #
plane-surface $-1 0 -36.897395244610834 0 0 1 0 0 0 1 forward_v I I I I #
coedge $-1 $472 $473 $474 $475 reversed $201 $-1 #
coedge $-1 $476 $203 $477 $478 reversed $128 $-1 #
coedge $-1 $203 $476 $472 $479 forward $128 $-1 #
coedge $-1 $474 $480 $203 $325 forward $469 $-1 #
edge $-1 $481 -31.132902043364496 $482 -17.44452028672832 $324 $483 forward 7 unknown #
loop $-1 $-1 $331 $204 #
plane-surface $-1 48.577422330092816 -36.897395244610834 3.2762816042107659 0 -0.70710678939079041 0.70710677298230451 1 0 0 forward_v I I I I #
loop $-1 $-1 $484 $130 #
coedge $-1 $329 $329 $330 $485 reversed $205 $-1 #
coedge $-1 $330 $330 $329 $485 forward $207 $-1 #
coedge $-1 $331 $331 $208 $332 forward $326 $-1 #
edge $-1 $486 -4.3962588187330858e-015 $486 6.283185307179596 $331 $487 forward 7 unknown #
loop $-1 $-1 $338 $209 #
plane-surface $-1 48.577422330092816 -36.897395244610834 3.2762816042107659 0 -0.70710678939079041 0.70710677298230451 1 0 0 forward_v I I I I #
loop $-1 $-1 $488 $133 #
coedge $-1 $336 $336 $337 $489 reversed $210 $-1 #
coedge $-1 $337 $337 $336 $489 forward $212 $-1 #
coedge $-1 $338 $338 $213 $339 forward $333 $-1 #
edge $-1 $490 -4.3962588187330858e-015 $490 6.283185307179596 $338 $491 forward 7 unknown #
face $-1 $492 $493 $51 $-1 $494 reversed single #
loop $-1 $-1 $495 $214 #
plane-surface $-1 -55.421613208410903 0 0 1 0 0 0 0 -1 forward_v I I I I #
coedge $-1 $496 $351 $497 $498 forward $215 $-1 #
coedge $-1 $499 $217 $496 $500 forward $137 $-1 #
coedge $-1 $217 $499 $501 $502 forward $137 $-1 #
coedge $-1 $354 $353 $217 $347 reversed $355 $-1 #
edge $-1 $503 -36.897395244610834 $504 36.897395244610834 $346 $505 forward 7 unknown #
coedge $-1 $219 $218 $506 $507 forward $86 $-1 #
coedge $-1 $508 $509 $218 $350 reversed $493 $-1 #
edge $-1 $357 -55.421613208410903 $510 55.421613208410903 $349 $511 forward 7 unknown #
coedge $-1 $343 $512 $219 $352 reversed $215 $-1 #
edge $-1 $513 -55.421613208410903 $356 55.421613208410903 $351 $514 forward 7 unknown #
coedge $-1 $346 $220 $512 $515 forward $355 $-1 #
coedge $-1 $220 $346 $508 $516 reversed $355 $-1 #
loop $-1 $-1 $353 $492 #
vertex $-1 $221 $517 #
vertex $-1 $221 $518 #
straight-curve $-1 55.421613208410903 0 11.834259325639746 0 1 0 I I #
face $-1 $519 $520 $52 $-1 $521 reversed single #
loop $-1 $-1 $522 $222 #
plane-surface $-1 -62.911619120150348 0 -5.8838119049159552 0 0 1 1 0 0 forward_v I I I I #
coedge $-1 $523 $225 $524 $525 reversed $141 $-1 #
coedge $-1 $225 $523 $368 $526 reversed $141 $-1 #
edge $-1 $370 0.67041020913636773 $527 5.8838119049159552 $225 $528 forward 7 unknown #
coedge $-1 $227 $226 $522 $529 forward $89 $-1 #
coedge $-1 $530 $531 $226 $367 forward $532 $-1 #
edge $-1 $533 -5.8838119049159552 $371 -0.67041020913636773 $366 $534 forward 7 unknown #
coedge $-1 $535 $228 $363 $526 forward $223 $-1 #
coedge $-1 $228 $535 $530 $536 forward $223 $-1 #
vertex $-1 $364 $537 #
vertex $-1 $536 $538 #
straight-curve $-1 -55.421613208410903 0 -0.67041020913636773 0 -1 0 I I #
face $-1 $-1 $539 $53 $-1 $540 reversed single #
loop $-1 $-1 $236 $230 #
plane-surface $-1 0 0 11.834259325639746 0 0 1 1 0 0 forward_v I I I I #
coedge $-1 $541 $542 $543 $544 reversed $231 $-1 #
coedge $-1 $545 $233 $235 $383 forward $145 $-1 #
coedge $-1 $233 $545 $541 $546 forward $145 $-1 #
coedge $-1 $543 $236 $233 $380 forward $374 $-1 #
edge $-1 $386 -13.870010907345165 $547 6.2045952383239857 $379 $548 forward 7 unknown #
coedge $-1 $549 $550 $234 $382 forward $539 $-1 #
edge $-1 $551 -62.339663235475165 $385 -58.931745685510492 $381 $552 forward 7 unknown #
edge $-1 $386 67.363777814303745 $551 73.794790489221654 $235 $553 forward 7 unknown #
coedge $-1 $236 $543 $549 $554 forward $374 $-1 #
vertex $-1 $382 $555 #
vertex $-1 $237 $556 #
straight-curve $-1 -17.702718741855755 16.526912875108117 11.834259325639749 0 -1 0 I I #
coedge $-1 $388 $388 $-1 $557 reversed $240 $-1 #
edge $-1 $558 0 $558 6.2831853071796004 $241 $559 forward 7 unknown #
vertex $-1 $244 $560 #
ellipse-curve $-1 -11.967116985950284 34.17049123100869 10.13030055065742 0 0.52991927123019833 0.84804809178421925 1.5 0 0 1 I I #
coedge $-1 $392 $392 $-1 $561 reversed $247 $-1 #
edge $-1 $562 0 $562 6.2831853071796004 $248 $563 forward 7 unknown #
vertex $-1 $251 $564 #
ellipse-curve $-1 -3.3637143520920745 34.17049123100869 10.13030055065742 0 0.52991927123019833 0.84804809178421925 1.5 0 0 1 I I #
face $-1 $-1 $408 $56 $-1 $565 forward single #
loop $-1 $-1 $566 $252 #
plane-surface $-1 0 -36.897395244610834 0 0 1 0 0 0 1 forward_v I I I I #
coedge $-1 $567 $568 $569 $570 reversed $253 $-1 #
coedge $-1 $571 $255 $257 $406 forward $159 $-1 #
coedge $-1 $255 $571 $567 $572 forward $159 $-1 #
coedge $-1 $569 $258 $255 $403 forward $408 $-1 #
edge $-1 $410 9.9545143749888751 $573 23.642896131625051 $402 $574 forward 7 unknown #
coedge $-1 $575 $576 $256 $405 forward $397 $-1 #
edge $-1 $577 -37.550857267167515 $409 -28.992879545738536 $404 $578 forward 7 unknown #
edge $-1 $410 -12.10280801970821 $577 0 $257 $579 forward 7 unknown #
coedge $-1 $258 $569 $575 $580 forward $408 $-1 #
loop $-1 $-1 $569 $396 #
vertex $-1 $405 $581 #
vertex $-1 $259 $582 #
straight-curve $-1 -26.753219628295838 -57.637696600963075 11.834259325639749 0 1 0 I I #
coedge $-1 $412 $412 $-1 $583 reversed $262 $-1 #
edge $-1 $584 0 $584 6.2831853071796004 $263 $585 forward 7 unknown #
vertex $-1 $266 $586 #
ellipse-curve $-1 -36.530635168750251 -32.618406483190718 7.5552704649252567 0 -0.70710678939079041 0.70710677298230451 1 0 0 1 I I #
coedge $-1 $416 $416 $-1 $587 reversed $269 $-1 #
edge $-1 $588 0 $588 6.2831853071796004 $270 $589 forward 7 unknown #
vertex $-1 $273 $590 #
ellipse-curve $-1 -30.664185844477604 -32.618406483190718 7.5552704649252567 0 -0.70710678939079041 0.70710677298230451 1 0 0 1 I I #
face $-1 $-1 $432 $59 $-1 $591 forward single #
loop $-1 $-1 $592 $274 #
plane-surface $-1 0 -36.897395244610834 0 0 1 0 0 0 1 forward_v I I I I #
coedge $-1 $593 $594 $595 $596 reversed $275 $-1 #
coedge $-1 $597 $277 $279 $430 forward $173 $-1 #
coedge $-1 $277 $597 $593 $598 forward $173 $-1 #
coedge $-1 $595 $280 $277 $427 forward $432 $-1 #
edge $-1 $434 -3.7412910977955827 $599 9.9470906588405938 $426 $600 forward 7 unknown #
coedge $-1 $601 $602 $278 $429 forward $421 $-1 #
edge $-1 $603 -37.550857267167515 $433 -28.992879545738536 $428 $604 forward 7 unknown #
edge $-1 $434 -12.10280801970821 $603 0 $279 $605 forward 7 unknown #
coedge $-1 $280 $595 $601 $606 forward $432 $-1 #
loop $-1 $-1 $595 $420 #
vertex $-1 $429 $607 #
vertex $-1 $281 $608 #
straight-curve $-1 0.63839131727307663 -57.637696600963075 11.834259325639749 0 1 0 I I #
coedge $-1 $436 $436 $-1 $609 reversed $284 $-1 #
edge $-1 $610 0 $610 6.2831853071796004 $285 $611 forward 7 unknown #
vertex $-1 $288 $612 #
ellipse-curve $-1 -9.1390242231813374 -32.618406483190718 7.5552704649252567 0 -0.70710678939079041 0.70710677298230451 1 0 0 1 I I #
coedge $-1 $440 $440 $-1 $613 reversed $291 $-1 #
edge $-1 $614 0 $614 6.2831853071796004 $292 $615 forward 7 unknown #
vertex $-1 $295 $616 #
ellipse-curve $-1 -3.2725748989086867 -32.618406483190718 7.5552704649252567 0 -0.70710678939079041 0.70710677298230451 1 0 0 1 I I #
face $-1 $-1 $456 $62 $-1 $617 forward single #
loop $-1 $-1 $618 $296 #
plane-surface $-1 0 -36.897395244610834 0 0 1 0 0 0 1 forward_v I I I I #
coedge $-1 $619 $620 $621 $622 reversed $297 $-1 #
coedge $-1 $623 $299 $301 $454 forward $187 $-1 #
coedge $-1 $299 $623 $619 $624 forward $187 $-1 #
coedge $-1 $621 $302 $299 $451 forward $456 $-1 #
edge $-1 $458 -17.437096570580039 $625 -3.7487148139438631 $450 $626 forward 7 unknown #
coedge $-1 $627 $628 $300 $453 forward $445 $-1 #
edge $-1 $629 -37.550857267167515 $457 -28.992879545738536 $452 $630 forward 7 unknown #
edge $-1 $458 -12.10280801970821 $629 0 $301 $631 forward 7 unknown #
coedge $-1 $302 $621 $627 $632 forward $456 $-1 #
loop $-1 $-1 $621 $444 #
vertex $-1 $453 $633 #
vertex $-1 $303 $634 #
straight-curve $-1 28.03000226284199 -57.637696600963075 11.834259325639749 0 1 0 I I #
coedge $-1 $460 $460 $-1 $635 reversed $306 $-1 #
edge $-1 $636 0 $636 6.2831853071796004 $307 $637 forward 7 unknown #
vertex $-1 $310 $638 #
ellipse-curve $-1 18.252586722387576 -32.618406483190718 7.5552704649252567 0 -0.70710678939079041 0.70710677298230451 1 0 0 1 I I #
coedge $-1 $464 $464 $-1 $639 reversed $313 $-1 #
edge $-1 $640 0 $640 6.2831853071796004 $314 $641 forward 7 unknown #
vertex $-1 $317 $642 #
ellipse-curve $-1 24.119036046660227 -32.618406483190718 7.5552704649252567 0 -0.70710678939079041 0.70710677298230451 1 0 0 1 I I #
face $-1 $-1 $643 $65 $-1 $644 reversed single #
loop $-1 $-1 $474 $318 #
plane-surface $-1 0 0 11.834259325639746 0 0 1 1 0 0 forward_v I I I I #
coedge $-1 $645 $646 $473 $647 forward $319 $-1 #
coedge $-1 $473 $321 $323 $479 reversed $201 $-1 #
coedge $-1 $321 $472 $471 $647 reversed $201 $-1 #
coedge $-1 $648 $324 $321 $475 forward $469 $-1 #
edge $-1 $482 -29.298278879192466 $649 -20.740301356352241 $474 $650 forward 7 unknown #
coedge $-1 $323 $322 $645 $651 reversed $128 $-1 #
coedge $-1 $652 $653 $322 $478 forward $643 $-1 #
edge $-1 $654 -11.886858558287908 $481 0.21594946142029856 $477 $655 forward 7 unknown #
edge $-1 $656 0 $482 12.10280801970821 $472 $657 forward 7 unknown #
coedge $-1 $324 $648 $652 $658 forward $469 $-1 #
vertex $-1 $478 $659 #
vertex $-1 $325 $660 #
straight-curve $-1 24.288711165046408 -28.339417721770609 11.834259325639746 -1 0 0 I I #
coedge $-1 $484 $484 $-1 $661 reversed $328 $-1 #
edge $-1 $662 0 $662 6.2831853071796004 $329 $663 forward 7 unknown #
vertex $-1 $332 $664 #
ellipse-curve $-1 45.64419766795649 -32.618406483190718 7.5552704649252567 0 -0.70710678939079041 0.70710677298230451 1 0 0 1 I I #
coedge $-1 $488 $488 $-1 $665 reversed $335 $-1 #
edge $-1 $666 0 $666 6.2831853071796004 $336 $667 forward 7 unknown #
vertex $-1 $339 $668 #
ellipse-curve $-1 51.510646992229141 -32.618406483190718 7.5552704649252567 0 -0.70710678939079041 0.70710677298230451 1 0 0 1 I I #
face $-1 $-1 $355 $51 $-1 $669 reversed single #
loop $-1 $-1 $508 $340 #
plane-surface $-1 0 36.897395244610834 0 0 -1 0 0 0 -1 forward_v I I I I #
coedge $-1 $670 $506 $509 $671 forward $341 $-1 #
coedge $-1 $512 $343 $344 $500 reversed $215 $-1 #
coedge $-1 $506 $670 $343 $498 reversed $341 $-1 #
edge $-1 $513 -11.834259325639746 $672 11.834259325639746 $497 $673 forward 7 unknown #
coedge $-1 $345 $344 $670 $674 forward $137 $-1 #
edge $-1 $504 -55.421613208410903 $672 55.421613208410903 $496 $675 forward 7 unknown #
coedge $-1 $509 $508 $345 $502 reversed $493 $-1 #
edge $-1 $676 -55.421613208410903 $503 55.421613208410903 $501 $677 forward 7 unknown #
vertex $-1 $347 $678 #
vertex $-1 $515 $679 #
straight-curve $-1 55.421613208410903 0 -11.834259325639746 0 -1 0 I I #
coedge $-1 $495 $497 $348 $507 reversed $341 $-1 #
edge $-1 $510 -36.897395244610834 $513 36.897395244610834 $506 $680 forward 7 unknown #
coedge $-1 $501 $349 $354 $516 forward $493 $-1 #
coedge $-1 $349 $501 $495 $671 reversed $493 $-1 #
vertex $-1 $350 $681 #
straight-curve $-1 0 36.897395244610834 11.834259325639746 -1 0 0 I I #
coedge $-1 $351 $496 $353 $515 reversed $215 $-1 #
vertex $-1 $507 $682 #
straight-curve $-1 0 -36.897395244610834 11.834259325639746 1 0 0 I I #
edge $-1 $356 -11.834259325639746 $504 11.834259325639746 $353 $683 forward 7 unknown #
edge $-1 $357 -11.834259325639746 $503 11.834259325639746 $354 $684 forward 7 unknown #
point $-1 55.421613208410903 -36.897395244610834 11.834259325639746 #
point $-1 55.421613208410903 36.897395244610834 11.834259325639746 #
face $-1 $-1 $532 $52 $-1 $685 reversed single #
loop $-1 $-1 $686 $359 #
plane-surface $-1 -70.401625031889793 0 -3.2771110570261612 1 0 0 0 0 -1 forward_v I I I I #
coedge $-1 $687 $524 $365 $529 reversed $360 $-1 #
coedge $-1 $363 $362 $686 $688 reversed $141 $-1 #
coedge $-1 $522 $689 $362 $525 forward $360 $-1 #
edge $-1 $690 -7.4900059117394449 $527 7.4900059117394449 $362 $691 forward 7 unknown #
edge $-1 $370 -7.4900059117394449 $692 7.4900059117394449 $363 $693 forward 7 unknown #
vertex $-1 $364 $694 #
straight-curve $-1 -55.421613208410903 36.897395244610834 0 0 0 -1 I I #
edge $-1 $533 -36.897395244610834 $527 36.897395244610834 $522 $695 forward 7 unknown #
coedge $-1 $696 $366 $369 $536 reversed $532 $-1 #
coedge $-1 $366 $696 $687 $697 reversed $532 $-1 #
loop $-1 $-1 $366 $519 #
vertex $-1 $367 $698 #
straight-curve $-1 -55.421613208410903 -36.897395244610834 0 0 0 1 I I #
coedge $-1 $369 $368 $699 $700 forward $223 $-1 #
edge $-1 $701 -7.4900059117394449 $371 7.4900059117394449 $530 $702 forward 7 unknown #
point $-1 -55.421613208410903 36.897395244610834 -0.67041020913636773 #
point $-1 -55.421613208410903 -36.897395244610834 -0.67041020913636773 #
loop $-1 $-1 $381 $373 #
plane-surface $-1 0 36.897395244610834 0 0 -1 0 0 0 -1 forward_v I I I I #
coedge $-1 $542 $376 $378 $546 reversed $231 $-1 #
coedge $-1 $376 $541 $703 $704 reversed $231 $-1 #
coedge $-1 $384 $379 $376 $544 forward $374 $-1 #
edge $-1 $547 14.916674342298442 $705 20.370482369502717 $543 $706 forward 7 unknown #
coedge $-1 $378 $377 $550 $707 reversed $145 $-1 #
edge $-1 $708 -73.794790489221654 $547 -67.363777814303745 $541 $709 forward 7 unknown #
vertex $-1 $380 $710 #
straight-curve $-1 -3.8327078345105896 31.443587217406574 11.834259325639742 1 0 0 I I #
coedge $-1 $703 $381 $384 $554 reversed $539 $-1 #
coedge $-1 $381 $703 $545 $707 forward $539 $-1 #
vertex $-1 $382 $711 #
straight-curve $-1 -17.702718741855755 36.897395244610834 70.766005011150241 0 0 1 I I #
straight-curve $-1 -17.702718741855755 -25.684136013389846 47.531623372308587 0 0.84804809178421925 -0.52991927123019833 I I #
edge $-1 $705 -2.3718874038133961 $385 17.702718741855755 $549 $712 forward 7 unknown #
point $-1 -17.702718741855755 36.897395244610834 11.834259325639746 #
point $-1 -17.702718741855755 31.443587217406559 11.834259325639749 #
edge $-1 $713 1 $713 0 $388 $-1 forward 7 unknown #
vertex $-1 $389 $714 #
ellipse-curve $-1 -11.967116985950284 32.834016618904187 7.991494120987257 0 0.52991927123019833 0.84804809178421925 1.5 0 0 1 I I #
point $-1 -10.467116985950284 34.170491231008683 10.130300550657413 #
edge $-1 $715 1 $715 0 $392 $-1 forward 7 unknown #
vertex $-1 $393 $716 #
ellipse-curve $-1 -3.3637143520920745 32.834016618904187 7.991494120987257 0 0.52991927123019833 0.84804809178421925 1.5 0 0 1 I I #
point $-1 -1.8637143520920745 34.170491231008683 10.130300550657413 #
plane-surface $-1 0 0 11.834259325639746 0 0 1 1 0 0 forward_v I I I I #
coedge $-1 $576 $575 $568 $717 forward $397 $-1 #
coedge $-1 $568 $399 $401 $572 reversed $253 $-1 #
coedge $-1 $399 $567 $566 $717 reversed $253 $-1 #
coedge $-1 $407 $402 $399 $570 forward $408 $-1 #
edge $-1 $573 -29.298278879192466 $718 -20.740301356352241 $569 $719 forward 7 unknown #
coedge $-1 $401 $400 $576 $720 reversed $159 $-1 #
edge $-1 $721 0 $573 12.10280801970821 $567 $722 forward 7 unknown #
vertex $-1 $403 $723 #
straight-curve $-1 -16.798705253306963 -28.339417721770609 11.834259325639746 -1 0 0 I I #
coedge $-1 $566 $404 $407 $580 reversed $397 $-1 #
coedge $-1 $404 $566 $571 $720 forward $397 $-1 #
vertex $-1 $405 $724 #
straight-curve $-1 -26.753219628295838 -36.897395244610834 40.827138871378281 0 0 1 I I #
straight-curve $-1 -26.753219628295838 -36.897395244610834 3.2762816042107659 0 -0.70710677298230451 -0.70710678939079041 I I #
edge $-1 $718 -40.441601384932014 $409 -26.753219628295838 $575 $725 forward 7 unknown #
point $-1 -26.753219628295838 -36.897395244610834 11.834259325639746 #
point $-1 -26.753219628295838 -28.339417721770609 11.834259325639746 #
edge $-1 $726 1 $726 0 $412 $-1 forward 7 unknown #
vertex $-1 $413 $727 #
ellipse-curve $-1 -36.530635168750251 -30.116460804453613 5.0533248442460552 0 -0.70710678939079041 0.70710677298230451 1 0 0 1 I I #
point $-1 -35.530635168750251 -32.618406483190725 7.5552704649252576 #
edge $-1 $728 1 $728 0 $416 $-1 forward 7 unknown #
vertex $-1 $417 $729 #
ellipse-curve $-1 -30.664185844477604 -30.116460804453613 5.0533248442460552 0 -0.70710678939079041 0.70710677298230451 1 0 0 1 I I #
point $-1 -29.664185844477604 -32.618406483190725 7.5552704649252576 #
plane-surface $-1 0 0 11.834259325639746 0 0 1 1 0 0 forward_v I I I I #
coedge $-1 $602 $601 $594 $730 forward $421 $-1 #
coedge $-1 $594 $423 $425 $598 reversed $275 $-1 #
coedge $-1 $423 $593 $592 $730 reversed $275 $-1 #
coedge $-1 $431 $426 $423 $596 forward $432 $-1 #
edge $-1 $599 -29.298278879192466 $731 -20.740301356352241 $595 $732 forward 7 unknown #
coedge $-1 $425 $424 $602 $733 reversed $173 $-1 #
edge $-1 $734 0 $599 12.10280801970821 $593 $735 forward 7 unknown #
vertex $-1 $427 $736 #
straight-curve $-1 -3.102899780522506 -28.339417721770609 11.834259325639746 -1 0 0 I I #
coedge $-1 $592 $428 $431 $606 reversed $421 $-1 #
coedge $-1 $428 $592 $597 $733 forward $421 $-1 #
vertex $-1 $429 $737 #
straight-curve $-1 0.63839131727307663 -36.897395244610834 40.827138871378281 0 0 1 I I #
straight-curve $-1 0.63839131727307663 -36.897395244610834 3.2762816042107659 0 -0.70710677298230451 -0.70710678939079041 I I #
edge $-1 $731 -13.0499904393631 $433 0.63839131727307663 $601 $738 forward 7 unknown #
point $-1 0.63839131727307663 -36.897395244610834 11.834259325639746 #
point $-1 0.63839131727307663 -28.339417721770609 11.834259325639746 #
edge $-1 $739 1 $739 0 $436 $-1 forward 7 unknown #
vertex $-1 $437 $740 #
ellipse-curve $-1 -9.1390242231813374 -30.116460804453613 5.0533248442460552 0 -0.70710678939079041 0.70710677298230451 1 0 0 1 I I #
point $-1 -8.1390242231813374 -32.618406483190725 7.5552704649252576 #
edge $-1 $741 1 $741 0 $440 $-1 forward 7 unknown #
vertex $-1 $441 $742 #
ellipse-curve $-1 -3.2725748989086867 -30.116460804453613 5.0533248442460552 0 -0.70710678939079041 0.70710677298230451 1 0 0 1 I I #
point $-1 -2.2725748989086867 -32.618406483190725 7.5552704649252576 #
plane-surface $-1 0 0 11.834259325639746 0 0 1 1 0 0 forward_v I I I I #
coedge $-1 $628 $627 $620 $743 forward $445 $-1 #
coedge $-1 $620 $447 $449 $624 reversed $297 $-1 #
coedge $-1 $447 $619 $618 $743 reversed $297 $-1 #
coedge $-1 $455 $450 $447 $622 forward $456 $-1 #
edge $-1 $625 -29.298278879192466 $744 -20.740301356352241 $621 $745 forward 7 unknown #
coedge $-1 $449 $448 $628 $746 reversed $187 $-1 #
edge $-1 $747 0 $625 12.10280801970821 $619 $748 forward 7 unknown #
vertex $-1 $451 $749 #
straight-curve $-1 10.592905692261951 -28.339417721770609 11.834259325639746 -1 0 0 I I #
coedge $-1 $618 $452 $455 $632 reversed $445 $-1 #
coedge $-1 $452 $618 $623 $746 forward $445 $-1 #
vertex $-1 $453 $750 #
straight-curve $-1 28.03000226284199 -36.897395244610834 40.827138871378281 0 0 1 I I #
straight-curve $-1 28.03000226284199 -36.897395244610834 3.2762816042107659 0 -0.70710677298230451 -0.70710678939079041 I I #
edge $-1 $744 14.341620506205814 $457 28.03000226284199 $627 $751 forward 7 unknown #
point $-1 28.03000226284199 -36.897395244610834 11.834259325639746 #
point $-1 28.03000226284199 -28.339417721770609 11.834259325639746 #
edge $-1 $752 1 $752 0 $460 $-1 forward 7 unknown #
vertex $-1 $461 $753 #
ellipse-curve $-1 18.252586722387576 -30.116460804453613 5.0533248442460552 0 -0.70710678939079041 0.70710677298230451 1 0 0 1 I I #
point $-1 19.252586722387576 -32.618406483190725 7.5552704649252576 #
edge $-1 $754 1 $754 0 $464 $-1 forward 7 unknown #
vertex $-1 $465 $755 #
ellipse-curve $-1 24.119036046660227 -30.116460804453613 5.0533248442460552 0 -0.70710678939079041 0.70710677298230451 1 0 0 1 I I #
point $-1 25.119036046660227 -32.618406483190725 7.5552704649252576 #
loop $-1 $-1 $477 $468 #
plane-surface $-1 55.421613208410903 0 0 -1 0 0 0 0 1 forward_v I I I I #
coedge $-1 $756 $471 $476 $651 forward $319 $-1 #
coedge $-1 $471 $756 $648 $757 reversed $319 $-1 #
edge $-1 $649 28.992879545738536 $656 37.550857267167515 $471 $758 forward 7 unknown #
coedge $-1 $480 $474 $646 $757 forward $469 $-1 #
vertex $-1 $757 $759 #
straight-curve $-1 41.733231451774728 -57.637696600963075 11.834259325639749 0 -1 0 I I #
edge $-1 $656 17.44452028672832 $654 31.132902043364496 $645 $760 forward 7 unknown #
coedge $-1 $653 $477 $480 $658 reversed $643 $-1 #
coedge $-1 $477 $652 $756 $761 forward $643 $-1 #
vertex $-1 $651 $762 #
straight-curve $-1 55.421613208410903 -28.492117048562783 11.681559995304168 0 0.70710677298230462 0.70710678939079052 I I #
vertex $-1 $651 $763 #
straight-curve $-1 41.733231451774728 -36.897395244610834 3.2762816042107659 0 0.70710677298230451 0.70710678939079041 I I #
edge $-1 $764 -36.897395244610834 $481 -28.339417721770609 $652 $765 forward 7 unknown #
point $-1 55.421613208410903 -28.339417721770609 11.834259325639746 #
point $-1 41.733231451774728 -28.339417721770609 11.834259325639746 #
edge $-1 $766 1 $766 0 $484 $-1 forward 7 unknown #
vertex $-1 $485 $767 #
ellipse-curve $-1 45.64419766795649 -30.116460804453613 5.0533248442460552 0 -0.70710678939079041 0.70710677298230451 1 0 0 1 I I #
point $-1 46.64419766795649 -32.618406483190725 7.5552704649252576 #
edge $-1 $768 1 $768 0 $488 $-1 forward 7 unknown #
vertex $-1 $489 $769 #
ellipse-curve $-1 51.510646992229141 -30.116460804453613 5.0533248442460552 0 -0.70710678939079041 0.70710677298230451 1 0 0 1 I I #
point $-1 52.510646992229141 -32.618406483190725 7.5552704649252576 #
plane-surface $-1 55.421613208410903 0 0 -1 0 0 0 0 1 forward_v I I I I #
coedge $-1 $497 $495 $499 $674 reversed $341 $-1 #
edge $-1 $510 -11.834259325639746 $676 11.834259325639746 $509 $770 forward 7 unknown #
vertex $-1 $674 $771 #
straight-curve $-1 -55.421613208410903 -36.897395244610834 0 0 0 -1 I I #
edge $-1 $672 -36.897395244610834 $676 36.897395244610834 $670 $772 forward 7 unknown #
straight-curve $-1 0 -36.897395244610834 -11.834259325639746 -1 0 0 I I #
vertex $-1 $502 $773 #
straight-curve $-1 0 36.897395244610834 -11.834259325639746 1 0 0 I I #
point $-1 55.421613208410903 36.897395244610834 -11.834259325639746 #
point $-1 55.421613208410903 -36.897395244610834 -11.834259325639746 #
straight-curve $-1 -55.421613208410903 0 11.834259325639746 0 -1 0 I I #
point $-1 -55.421613208410903 36.897395244610834 11.834259325639746 #
point $-1 -55.421613208410903 -36.897395244610834 11.834259325639746 #
straight-curve $-1 55.421613208410903 -36.897395244610834 0 0 0 -1 I I #
straight-curve $-1 55.421613208410903 36.897395244610834 0 0 0 -1 I I #
plane-surface $-1 0 -36.897395244610834 0 0 1 0 0 0 1 forward_v I I I I #
coedge $-1 $774 $699 $523 $688 forward $520 $-1 #
coedge $-1 $689 $522 $531 $697 forward $360 $-1 #
edge $-1 $692 -2.6067008478897935 $690 2.6067008478897939 $523 $775 forward 7 unknown #
coedge $-1 $524 $687 $774 $776 forward $360 $-1 #
vertex $-1 $525 $777 #
straight-curve $-1 -62.911619120150348 36.897395244610834 -5.8838119049159552 1 0 0 I I #
vertex $-1 $526 $778 #
straight-curve $-1 -62.911619120150348 36.897395244610834 -0.67041020913636773 -1 0 0 I I #
point $-1 -55.421613208410903 36.897395244610834 -5.8838119049159552 #
straight-curve $-1 -55.421613208410903 0 -5.8838119049159552 0 1 0 I I #
coedge $-1 $531 $530 $779 $780 forward $532 $-1 #
edge $-1 $533 -7.4900059117394449 $781 7.4900059117394449 $531 $782 forward 7 unknown #
point $-1 -55.421613208410903 -36.897395244610834 -5.8838119049159552 #
coedge $-1 $686 $779 $535 $700 reversed $520 $-1 #
edge $-1 $692 -36.897395244610834 $701 36.897395244610834 $699 $783 forward 7 unknown #
vertex $-1 $700 $784 #
straight-curve $-1 -62.911619120150348 -36.897395244610834 -0.67041020913636773 1 0 0 I I #
coedge $-1 $550 $549 $542 $704 forward $539 $-1 #
edge $-1 $705 58.931745685510492 $708 62.339663235475165 $703 $785 forward 7 unknown #
vertex $-1 $554 $786 #
straight-curve $-1 2.3718874038133961 16.526912875108117 11.834259325639749 0 1 0 I I #
edge $-1 $708 -6.2045952383239857 $551 13.870010907345165 $550 $787 forward 7 unknown #
vertex $-1 $707 $788 #
straight-curve $-1 2.3718874038133961 -25.684136013389846 47.531623372308587 0 -0.84804809178421925 0.52991927123019833 I I #
point $-1 2.3718874038133961 31.443587217406559 11.834259325639749 #
point $-1 -17.702718741855755 36.897395244610827 8.4263417756750769 #
straight-curve $-1 0 36.897395244610834 11.834259325639746 -1 0 0 I I #
vertex $-1 $557 $789 #
point $-1 -10.467116985950284 32.834016618904187 7.991494120987257 #
vertex $-1 $561 $790 #
point $-1 -1.8637143520920745 32.834016618904187 7.991494120987257 #
edge $-1 $718 28.992879545738536 $721 37.550857267167515 $566 $791 forward 7 unknown #
vertex $-1 $580 $792 #
straight-curve $-1 -40.441601384932014 -57.637696600963075 11.834259325639749 0 -1 0 I I #
edge $-1 $721 -23.642896131625051 $577 -9.9545143749888751 $576 $793 forward 7 unknown #
vertex $-1 $720 $794 #
straight-curve $-1 -40.441601384932014 -36.897395244610834 3.2762816042107659 0 0.70710677298230451 0.70710678939079041 I I #
point $-1 -40.441601384932014 -28.339417721770609 11.834259325639746 #
point $-1 -26.753219628295838 -36.897395244610834 3.2762816042107659 #
straight-curve $-1 0 -36.897395244610834 11.834259325639746 1 0 0 I I #
vertex $-1 $583 $795 #
point $-1 -35.530635168750251 -30.116460804453613 5.0533248442460552 #
vertex $-1 $587 $796 #
point $-1 -29.664185844477604 -30.116460804453613 5.0533248442460552 #
edge $-1 $731 28.992879545738536 $734 37.550857267167515 $592 $797 forward 7 unknown #
vertex $-1 $606 $798 #
straight-curve $-1 -13.0499904393631 -57.637696600963075 11.834259325639749 0 -1 0 I I #
edge $-1 $734 -9.9470906588405938 $603 3.7412910977955827 $602 $799 forward 7 unknown #
vertex $-1 $733 $800 #
straight-curve $-1 -13.0499904393631 -36.897395244610834 3.2762816042107659 0 0.70710677298230451 0.70710678939079041 I I #
point $-1 -13.0499904393631 -28.339417721770609 11.834259325639746 #
point $-1 0.63839131727307663 -36.897395244610834 3.2762816042107659 #
straight-curve $-1 0 -36.897395244610834 11.834259325639746 1 0 0 I I #
vertex $-1 $609 $801 #
point $-1 -8.1390242231813374 -30.116460804453613 5.0533248442460552 #
vertex $-1 $613 $802 #
point $-1 -2.2725748989086867 -30.116460804453613 5.0533248442460552 #
edge $-1 $744 28.992879545738536 $747 37.550857267167515 $618 $803 forward 7 unknown #
vertex $-1 $632 $804 #
straight-curve $-1 14.341620506205814 -57.637696600963075 11.834259325639749 0 -1 0 I I #
edge $-1 $747 3.7487148139438631 $629 17.437096570580039 $628 $805 forward 7 unknown #
vertex $-1 $746 $806 #
straight-curve $-1 14.341620506205814 -36.897395244610834 3.2762816042107659 0 0.70710677298230451 0.70710678939079041 I I #
point $-1 14.341620506205814 -28.339417721770609 11.834259325639746 #
point $-1 28.03000226284199 -36.897395244610834 3.2762816042107659 #
straight-curve $-1 0 -36.897395244610834 11.834259325639746 1 0 0 I I #
vertex $-1 $635 $807 #
point $-1 19.252586722387576 -30.116460804453613 5.0533248442460552 #
vertex $-1 $639 $808 #
point $-1 25.119036046660227 -30.116460804453613 5.0533248442460552 #
coedge $-1 $646 $645 $653 $761 reversed $319 $-1 #
edge $-1 $649 41.733231451774728 $764 55.421613208410903 $646 $809 forward 7 unknown #
straight-curve $-1 41.733231451774728 -36.897395244610834 40.827138871378281 0 0 -1 I I #
point $-1 41.733231451774728 -36.897395244610834 11.834259325639746 #
straight-curve $-1 24.288711165046408 -36.897395244610834 3.2762816042107659 1 0 0 I I #
edge $-1 $764 -11.834259325639746 $654 -3.2762816042107659 $653 $810 forward 7 unknown #
point $-1 55.421613208410903 -36.897395244610834 3.2762816042107659 #
point $-1 41.733231451774728 -36.897395244610834 3.2762816042107659 #
vertex $-1 $658 $811 #
straight-curve $-1 55.421613208410903 0 11.834259325639746 0 1 0 I I #
vertex $-1 $661 $812 #
point $-1 46.64419766795649 -30.116460804453613 5.0533248442460552 #
vertex $-1 $665 $813 #
point $-1 52.510646992229141 -30.116460804453613 5.0533248442460552 #
straight-curve $-1 -55.421613208410903 36.897395244610834 0 0 0 -1 I I #
point $-1 -55.421613208410903 -36.897395244610834 -11.834259325639746 #
straight-curve $-1 -55.421613208410903 0 -11.834259325639746 0 1 0 I I #
point $-1 -55.421613208410903 36.897395244610834 -11.834259325639746 #
coedge $-1 $779 $686 $689 $776 reversed $520 $-1 #
straight-curve $-1 -70.401625031889793 36.897395244610834 -3.2771110570261612 0 0 -1 I I #
edge $-1 $781 -36.897395244610834 $690 36.897395244610834 $774 $814 forward 7 unknown #
point $-1 -70.401625031889793 36.897395244610834 -5.8838119049159552 #
point $-1 -70.401625031889793 36.897395244610834 -0.67041020913636773 #
coedge $-1 $699 $774 $696 $780 reversed $520 $-1 #
edge $-1 $701 -2.6067008478897935 $781 2.6067008478897939 $779 $815 forward 7 unknown #
vertex $-1 $776 $816 #
straight-curve $-1 -62.911619120150348 -36.897395244610834 -5.8838119049159552 -1 0 0 I I #
straight-curve $-1 -70.401625031889793 0 -0.67041020913636773 0 -1 0 I I #
point $-1 -70.401625031889793 -36.897395244610834 -0.67041020913636773 #
straight-curve $-1 2.3718874038133961 36.897395244610834 70.766005011150241 0 0 -1 I I #
point $-1 2.3718874038133961 36.897395244610834 11.834259325639746 #
straight-curve $-1 -3.8327078345105896 36.897395244610834 8.4263417756750734 -1 0 0 I I #
point $-1 2.3718874038133961 36.897395244610827 8.4263417756750769 #
point $-1 -11.967116985950284 32.039137712058888 6.7194219833109283 #
point $-1 -3.3637143520920745 32.039137712058888 6.7194219833109283 #
straight-curve $-1 -40.441601384932014 -36.897395244610834 40.827138871378281 0 0 -1 I I #
point $-1 -40.441601384932014 -36.897395244610834 11.834259325639746 #
straight-curve $-1 -16.798705253306963 -36.897395244610834 3.2762816042107659 1 0 0 I I #
point $-1 -40.441601384932014 -36.897395244610834 3.2762816042107659 #
point $-1 -36.530635168750251 -29.409354015062821 4.3462180712637499 #
point $-1 -30.664185844477604 -29.409354015062821 4.3462180712637499 #
straight-curve $-1 -13.0499904393631 -36.897395244610834 40.827138871378281 0 0 -1 I I #
point $-1 -13.0499904393631 -36.897395244610834 11.834259325639746 #
straight-curve $-1 -3.102899780522506 -36.897395244610834 3.2762816042107659 1 0 0 I I #
point $-1 -13.0499904393631 -36.897395244610834 3.2762816042107659 #
point $-1 -9.1390242231813374 -29.409354015062821 4.3462180712637499 #
point $-1 -3.2725748989086867 -29.409354015062821 4.3462180712637499 #
straight-curve $-1 14.341620506205814 -36.897395244610834 40.827138871378281 0 0 -1 I I #
point $-1 14.341620506205814 -36.897395244610834 11.834259325639746 #
straight-curve $-1 10.592905692261951 -36.897395244610834 3.2762816042107659 1 0 0 I I #
point $-1 14.341620506205814 -36.897395244610834 3.2762816042107659 #
point $-1 18.252586722387576 -29.409354015062821 4.3462180712637499 #
point $-1 24.119036046660227 -29.409354015062821 4.3462180712637499 #
straight-curve $-1 0 -36.897395244610834 11.834259325639746 1 0 0 I I #
straight-curve $-1 55.421613208410903 -36.897395244610834 0 0 0 -1 I I #
point $-1 55.421613208410903 -36.897395244610834 11.834259325639746 #
point $-1 45.64419766795649 -29.409354015062821 4.3462180712637499 #
point $-1 51.510646992229141 -29.409354015062821 4.3462180712637499 #
straight-curve $-1 -70.401625031889793 0 -5.8838119049159552 0 1 0 I I #
straight-curve $-1 -70.401625031889793 -36.897395244610834 -3.2771110570261612 0 0 -1 I I #
point $-1 -70.401625031889793 -36.897395244610834 -5.8838119049159552 #
End-of-ACIS-data 