500 0 14 0           
7 Unknown 11 ACIS 5.0 NT 24 Thu Mar 25 16:34:24 1999 
-1 9.9999999999999995e-007 1e-010 
body $-1 $14 $-1 $15 #
body $-1 $16 $-1 $17 #
body $-1 $18 $-1 $19 #
body $-1 $20 $-1 $21 #
body $-1 $22 $-1 $23 #
body $-1 $24 $-1 $25 #
body $-1 $26 $-1 $27 #
body $-1 $28 $-1 $29 #
body $-1 $30 $-1 $31 #
body $-1 $32 $-1 $33 #
body $-1 $34 $-1 $35 #
body $-1 $36 $-1 $37 #
body $-1 $38 $-1 $39 #
body $-1 $40 $-1 $41 #
lump $-1 $-1 $42 $0 #
transform $-1 1 0 0 0 1 0 0 0 1 60.144657734916223 29.78470205184907 6.9394619853642796 1 rotate no_reflect no_shear #
lump $-1 $-1 $43 $1 #
transform $-1 1 0 0 0 1 0 0 0 1 60.144657734916223 29.78470205184907 6.9394619853642796 1 rotate no_reflect no_shear #
lump $-1 $-1 $44 $2 #
transform $-1 1 0 0 0 1 0 0 0 1 60.144657734916223 29.78470205184907 6.9394619853642796 1 rotate no_reflect no_shear #
lump $-1 $-1 $45 $3 #
transform $-1 1 0 0 0 1 0 0 0 1 60.144657734916223 29.78470205184907 6.9394619853642796 1 rotate no_reflect no_shear #
lump $-1 $-1 $46 $4 #
transform $-1 1 0 0 0 1 0 0 0 1 60.144657734916223 29.78470205184907 6.9394619853642796 1 rotate no_reflect no_shear #
lump $-1 $-1 $47 $5 #
transform $-1 1 0 0 0 1 0 0 0 1 60.144657734916223 29.78470205184907 6.9394619853642796 1 rotate no_reflect no_shear #
lump $-1 $-1 $48 $6 #
transform $-1 1 0 0 0 1 0 0 0 1 60.144657734916223 29.78470205184907 6.9394619853642796 1 rotate no_reflect no_shear #
lump $-1 $-1 $49 $7 #
transform $-1 1 0 0 0 1 0 0 0 1 60.144657734916223 29.78470205184907 6.9394619853642796 1 rotate no_reflect no_shear #
lump $-1 $-1 $50 $8 #
transform $-1 1 0 0 0 1 0 0 0 1 60.144657734916223 29.78470205184907 6.9394619853642796 1 rotate no_reflect no_shear #
lump $-1 $-1 $51 $9 #
transform $-1 1 0 0 0 1 0 0 0 1 60.144657734916223 29.78470205184907 6.9394619853642796 1 rotate no_reflect no_shear #
lump $-1 $-1 $52 $10 #
transform $-1 1 0 0 0 1 0 0 0 1 60.144657734916223 29.78470205184907 6.9394619853642796 1 rotate no_reflect no_shear #
lump $-1 $-1 $53 $11 #
transform $-1 1 0 0 0 1 0 0 0 1 60.144657734916223 29.78470205184907 6.9394619853642796 1 rotate no_reflect no_shear #
lump $-1 $-1 $54 $12 #
transform $-1 1 0 0 0 1 0 0 0 1 60.144657734916223 29.78470205184907 6.9394619853642796 1 rotate no_reflect no_shear #
lump $-1 $-1 $55 $13 #
transform $-1 1 0 0 0 1 0 0 0 1 60.144657734916223 29.78470205184907 6.9394619853642796 1 rotate no_reflect no_shear #
shell $-1 $-1 $-1 $56 $-1 $14 #
shell $-1 $-1 $-1 $57 $-1 $16 #
shell $-1 $-1 $-1 $58 $-1 $18 #
shell $-1 $-1 $-1 $59 $-1 $20 #
shell $-1 $-1 $-1 $60 $-1 $22 #
shell $-1 $-1 $-1 $61 $-1 $24 #
shell $-1 $-1 $-1 $62 $-1 $26 #
shell $-1 $-1 $-1 $63 $-1 $28 #
shell $-1 $-1 $-1 $64 $-1 $30 #
shell $-1 $-1 $-1 $65 $-1 $32 #
shell $-1 $-1 $-1 $66 $-1 $34 #
shell $-1 $-1 $-1 $67 $-1 $36 #
shell $-1 $-1 $-1 $68 $-1 $38 #
shell $-1 $-1 $-1 $69 $-1 $40 #
face $-1 $70 $71 $42 $-1 $72 forward single #
face $-1 $73 $74 $43 $-1 $75 forward single #
face $-1 $76 $77 $44 $-1 $78 reversed single #
face $-1 $79 $80 $45 $-1 $81 forward single #
face $-1 $82 $83 $46 $-1 $84 forward single #
face $-1 $85 $86 $47 $-1 $87 reversed single #
face $-1 $88 $89 $48 $-1 $90 forward single #
face $-1 $91 $92 $49 $-1 $93 forward single #
face $-1 $94 $95 $50 $-1 $96 reversed single #
face $-1 $97 $98 $51 $-1 $99 forward single #
face $-1 $100 $101 $52 $-1 $102 forward single #
face $-1 $103 $104 $53 $-1 $105 reversed single #
face $-1 $106 $107 $54 $-1 $108 forward single #
face $-1 $109 $110 $55 $-1 $111 forward single #
face $-1 $112 $113 $42 $-1 $114 reversed single #
loop $-1 $-1 $115 $56 #
plane-surface $-1 0 0 6.9394619853642796 0 0 1 1 0 0 forward_v I I I I #
face $-1 $116 $117 $43 $-1 $118 reversed single #
loop $-1 $-1 $119 $57 #
plane-surface $-1 -56.737334672708251 0 -3.9394619853642796 0 0 1 1 0 0 forward_v I I I I #
face $-1 $120 $121 $44 $-1 $122 reversed single #
loop $-1 $-1 $123 $58 #
plane-surface $-1 -22.246118147241834 -91.738280347809038 103.50180916286723 1 0 0 0 0.51503808176128008 -0.85716729658548041 forward_v I I I I #
face $-1 $124 $125 $45 $-1 $126 forward single #
loop $-1 $127 $128 $59 #
cone-surface $-1 -14.916563515970466 -23.400767034241291 2.1072032969044612 0 0.51503808176128008 -0.85716729658548041 2.5 0 0 1 I I 0 1 2.5 forward I I I I #
face $-1 $129 $130 $46 $-1 $131 forward single #
loop $-1 $132 $133 $60 #
cone-surface $-1 -3.9222315690634062 -23.400767034241291 2.1072032969044612 0 0.51503808176128008 -0.85716729658548041 2.5 0 0 1 I I 0 1 2.5 forward I I I I #
face $-1 $134 $135 $47 $-1 $136 reversed single #
loop $-1 $-1 $137 $61 #
plane-surface $-1 29.060764271657778 -91.738280347809038 103.50180916286723 -1 0 0 0 -0.51503808176128008 0.85716729658548041 forward_v I I I I #
face $-1 $138 $139 $48 $-1 $140 forward single #
loop $-1 $141 $142 $62 #
cone-surface $-1 10.736877693479329 -23.400767034241291 2.1072032969044612 0 0.51503808176128008 -0.85716729658548041 2.5 0 0 1 I I 0 1 2.5 forward I I I I #
face $-1 $143 $144 $49 $-1 $145 forward single #
loop $-1 $146 $147 $63 #
cone-surface $-1 21.731209640386396 -23.400767034241291 2.1072032969044612 0 0.51503808176128008 -0.85716729658548041 2.5 0 0 1 I I 0 1 2.5 forward I I I I #
face $-1 $148 $149 $50 $-1 $150 reversed single #
loop $-1 $-1 $151 $64 #
plane-surface $-1 -22.246118147241834 40.677335273034075 134.18232078409844 1 0 0 0 -0.51503808176128008 -0.85716729658548041 forward_v I I I I #
face $-1 $152 $153 $51 $-1 $154 forward single #
loop $-1 $155 $156 $65 #
cone-surface $-1 -14.916563515970466 23.400767034241287 2.1072032969044576 0 -0.51503808176128008 -0.85716729658548041 2.5 0 0 1 I I 0 1 2.5 forward I I I I #
face $-1 $157 $158 $52 $-1 $159 forward single #
loop $-1 $160 $161 $66 #
cone-surface $-1 -3.9222315690634062 23.400767034241287 2.1072032969044576 0 -0.51503808176128008 -0.85716729658548041 2.5 0 0 1 I I 0 1 2.5 forward I I I I #
face $-1 $162 $163 $53 $-1 $164 reversed single #
loop $-1 $-1 $165 $67 #
plane-surface $-1 -9.4193975425169327 -21.276243022925904 31.074253434704147 0 0.51503808176128008 0.85716729658548041 1 0 0 forward_v I I I I #
face $-1 $166 $167 $54 $-1 $168 forward single #
loop $-1 $169 $170 $68 #
cone-surface $-1 10.736877693479329 23.400767034241287 2.1072032969044576 0 -0.51503808176128008 -0.85716729658548041 2.5 0 0 1 I I 0 1 2.5 forward I I I I #
face $-1 $171 $172 $55 $-1 $173 forward single #
loop $-1 $174 $175 $69 #
cone-surface $-1 21.731209640386396 23.400767034241287 2.1072032969044576 0 -0.51503808176128008 -0.85716729658548041 2.5 0 0 1 I I 0 1 2.5 forward I I I I #
face $-1 $176 $177 $42 $-1 $178 reversed single #
loop $-1 $-1 $179 $70 #
plane-surface $-1 0 0 -6.9394619853642796 0 0 1 1 0 0 forward_v I I I I #
coedge $-1 $180 $181 $182 $183 forward $71 $-1 #
face $-1 $184 $185 $43 $-1 $186 reversed single #
loop $-1 $-1 $187 $73 #
plane-surface $-1 -53.330011610500279 0 -5.4394619853642796 -1 0 0 0 0 1 forward_v I I I I #
coedge $-1 $188 $189 $190 $191 forward $74 $-1 #
face $-1 $192 $193 $44 $-1 $194 reversed single #
loop $-1 $-1 $195 $76 #
plane-surface $-1 -9.4193975425169327 -29.78470205184906 0.39374181347294268 0 -0.51503808176128008 0.85716729658548041 1 0 0 forward_v I I I I #
coedge $-1 $196 $197 $198 $199 reversed $77 $-1 #
face $-1 $-1 $200 $45 $-1 $201 forward single #
loop $-1 $202 $203 $79 #
cone-surface $-1 -14.916563515970466 -21.819988205458309 -0.52365442634154125 0 0.51503808176128008 -0.85716729658548041 1.25 0 0 1 I I -0.70710678118654746 0.70710678118654746 1.25 forward I I I I #
loop $-1 $-1 $204 $59 #
coedge $-1 $128 $128 $205 $206 reversed $80 $-1 #
face $-1 $-1 $207 $46 $-1 $208 forward single #
loop $-1 $209 $210 $82 #
cone-surface $-1 -3.9222315690634062 -21.819988205458309 -0.52365442634154125 0 0.51503808176128008 -0.85716729658548041 1.25 0 0 1 I I -0.70710678118654746 0.70710678118654746 1.25 forward I I I I #
loop $-1 $-1 $211 $60 #
coedge $-1 $133 $133 $212 $213 reversed $83 $-1 #
face $-1 $214 $215 $47 $-1 $216 forward single #
loop $-1 $-1 $217 $85 #
plane-surface $-1 -9.4193975425169327 -29.78470205184906 0.39374181347294268 0 -0.51503808176128008 0.85716729658548041 1 0 0 forward_v I I I I #
coedge $-1 $218 $219 $220 $221 reversed $86 $-1 #
face $-1 $-1 $222 $48 $-1 $223 forward single #
loop $-1 $224 $225 $88 #
cone-surface $-1 10.736877693479329 -21.819988205458309 -0.52365442634154125 0 0.51503808176128008 -0.85716729658548041 1.25 0 0 1 I I -0.70710678118654746 0.70710678118654746 1.25 forward I I I I #
loop $-1 $-1 $226 $62 #
coedge $-1 $142 $142 $227 $228 reversed $89 $-1 #
face $-1 $-1 $229 $49 $-1 $230 forward single #
loop $-1 $231 $232 $91 #
cone-surface $-1 21.731209640386396 -21.819988205458309 -0.52365442634154125 0 0.51503808176128008 -0.85716729658548041 1.25 0 0 1 I I -0.70710678118654746 0.70710678118654746 1.25 forward I I I I #
loop $-1 $-1 $233 $63 #
coedge $-1 $147 $147 $234 $235 reversed $92 $-1 #
face $-1 $236 $237 $50 $-1 $238 reversed single #
loop $-1 $-1 $239 $94 #
plane-surface $-1 -9.4193975425169327 -21.276243022925904 31.074253434704147 0 0.51503808176128008 0.85716729658548041 1 0 0 forward_v I I I I #
coedge $-1 $240 $241 $242 $243 reversed $95 $-1 #
face $-1 $-1 $244 $51 $-1 $245 forward single #
loop $-1 $246 $247 $97 #
cone-surface $-1 -14.916563515970466 21.819988205458305 -0.5236544263415448 0 -0.51503808176128008 -0.85716729658548041 1.25 0 0 1 I I -0.70710678118654746 0.70710678118654746 1.25 forward I I I I #
loop $-1 $-1 $248 $65 #
coedge $-1 $156 $156 $249 $250 reversed $98 $-1 #
face $-1 $-1 $251 $52 $-1 $252 forward single #
loop $-1 $253 $254 $100 #
cone-surface $-1 -3.9222315690634062 21.819988205458305 -0.5236544263415448 0 -0.51503808176128008 -0.85716729658548041 1.25 0 0 1 I I -0.70710678118654746 0.70710678118654746 1.25 forward I I I I #
loop $-1 $-1 $255 $66 #
coedge $-1 $161 $161 $256 $257 reversed $101 $-1 #
face $-1 $258 $259 $53 $-1 $260 reversed single #
loop $-1 $-1 $261 $103 #
plane-surface $-1 29.060764271657778 40.677335273034075 134.18232078409844 -1 0 0 0 0.51503808176128008 0.85716729658548041 forward_v I I I I #
coedge $-1 $262 $263 $264 $265 reversed $104 $-1 #
face $-1 $-1 $266 $54 $-1 $267 forward single #
loop $-1 $268 $269 $106 #
cone-surface $-1 10.736877693479329 21.819988205458305 -0.5236544263415448 0 -0.51503808176128008 -0.85716729658548041 1.25 0 0 1 I I -0.70710678118654746 0.70710678118654746 1.25 forward I I I I #
loop $-1 $-1 $270 $68 #
coedge $-1 $170 $170 $271 $272 reversed $107 $-1 #
face $-1 $-1 $273 $55 $-1 $274 forward single #
loop $-1 $275 $276 $109 #
cone-surface $-1 21.731209640386396 21.819988205458305 -0.5236544263415448 0 -0.51503808176128008 -0.85716729658548041 1.25 0 0 1 I I -0.70710678118654746 0.70710678118654746 1.25 forward I I I I #
loop $-1 $-1 $277 $69 #
coedge $-1 $175 $175 $278 $279 reversed $110 $-1 #
face $-1 $280 $281 $42 $-1 $282 reversed single #
loop $-1 $-1 $283 $112 #
plane-surface $-1 0 -29.78470205184907 0 0 1 0 0 0 1 forward_v I I I I #
coedge $-1 $284 $285 $286 $287 forward $113 $-1 #
coedge $-1 $288 $115 $289 $290 forward $71 $-1 #
coedge $-1 $115 $288 $291 $292 forward $71 $-1 #
coedge $-1 $293 $294 $115 $183 reversed $295 $-1 #
edge $-1 $296 -29.78470205184907 $297 29.78470205184907 $182 $298 forward 7 unknown #
face $-1 $299 $300 $43 $-1 $301 reversed single #
loop $-1 $-1 $302 $116 #
plane-surface $-1 0 0 -6.9394619853642796 0 0 1 1 0 0 forward_v I I I I #
coedge $-1 $303 $190 $304 $305 reversed $117 $-1 #
coedge $-1 $306 $119 $307 $308 reversed $74 $-1 #
coedge $-1 $119 $306 $309 $310 reversed $74 $-1 #
coedge $-1 $187 $311 $119 $191 reversed $117 $-1 #
edge $-1 $312 -29.78470205184907 $313 29.78470205184907 $190 $314 forward 7 unknown #
face $-1 $315 $316 $44 $-1 $317 forward single #
loop $-1 $-1 $318 $120 #
plane-surface $-1 3.4073230622079684 -91.738280347809038 103.50180916286723 -1 0 0 0 -0.51503808176128008 0.85716729658548041 forward_v I I I I #
coedge $-1 $319 $320 $321 $322 reversed $121 $-1 #
coedge $-1 $197 $123 $323 $324 reversed $77 $-1 #
coedge $-1 $123 $196 $319 $325 reversed $77 $-1 #
coedge $-1 $321 $326 $123 $199 forward $327 $-1 #
edge $-1 $328 44.811442596069334 $329 51.357162767960681 $198 $330 forward 7 unknown #
loop $-1 $-1 $205 $124 #
plane-surface $-1 -9.4193975425169327 -29.78470205184906 0.39374181347294268 0 -0.51503808176128008 0.85716729658548041 1 0 0 forward_v I I I I #
loop $-1 $-1 $331 $79 #
coedge $-1 $203 $203 $204 $332 reversed $125 $-1 #
coedge $-1 $204 $204 $203 $332 forward $127 $-1 #
coedge $-1 $205 $205 $128 $206 forward $200 $-1 #
edge $-1 $333 6.1167484633659775e-016 $333 6.2831853071796013 $205 $334 forward 7 unknown #
loop $-1 $-1 $212 $129 #
plane-surface $-1 -9.4193975425169327 -29.78470205184906 0.39374181347294268 0 -0.51503808176128008 0.85716729658548041 1 0 0 forward_v I I I I #
loop $-1 $-1 $335 $82 #
coedge $-1 $210 $210 $211 $336 reversed $130 $-1 #
coedge $-1 $211 $211 $210 $336 forward $132 $-1 #
coedge $-1 $212 $212 $133 $213 forward $207 $-1 #
edge $-1 $337 6.1167484633659775e-016 $337 6.2831853071796013 $212 $338 forward 7 unknown #
face $-1 $339 $340 $47 $-1 $341 forward single #
loop $-1 $-1 $342 $134 #
plane-surface $-1 0 0 6.9394619853642796 0 0 1 1 0 0 forward_v I I I I #
coedge $-1 $343 $344 $345 $346 reversed $135 $-1 #
coedge $-1 $219 $137 $347 $348 reversed $86 $-1 #
coedge $-1 $137 $218 $342 $349 reversed $86 $-1 #
coedge $-1 $350 $351 $137 $221 forward $352 $-1 #
edge $-1 $353 -51.357162767960681 $354 -44.811442596069334 $220 $355 forward 7 unknown #
loop $-1 $-1 $227 $138 #
plane-surface $-1 -9.4193975425169327 -29.78470205184906 0.39374181347294268 0 -0.51503808176128008 0.85716729658548041 1 0 0 forward_v I I I I #
loop $-1 $-1 $356 $88 #
coedge $-1 $225 $225 $226 $357 reversed $139 $-1 #
coedge $-1 $226 $226 $225 $357 forward $141 $-1 #
coedge $-1 $227 $227 $142 $228 forward $222 $-1 #
edge $-1 $358 6.1167484633659775e-016 $358 6.2831853071796013 $227 $359 forward 7 unknown #
loop $-1 $-1 $234 $143 #
plane-surface $-1 -9.4193975425169327 -29.78470205184906 0.39374181347294268 0 -0.51503808176128008 0.85716729658548041 1 0 0 forward_v I I I I #
loop $-1 $-1 $360 $91 #
coedge $-1 $232 $232 $233 $361 reversed $144 $-1 #
coedge $-1 $233 $233 $232 $361 forward $146 $-1 #
coedge $-1 $234 $234 $147 $235 forward $229 $-1 #
edge $-1 $362 6.1167484633659775e-016 $362 6.2831853071796013 $234 $363 forward 7 unknown #
face $-1 $364 $365 $50 $-1 $366 reversed single #
loop $-1 $-1 $367 $148 #
plane-surface $-1 3.4073230622079684 40.677335273034075 134.18232078409844 -1 0 0 0 0.51503808176128008 0.85716729658548041 forward_v I I I I #
coedge $-1 $368 $369 $370 $371 reversed $149 $-1 #
coedge $-1 $241 $151 $372 $373 reversed $95 $-1 #
coedge $-1 $151 $240 $368 $374 reversed $95 $-1 #
coedge $-1 $370 $375 $151 $243 forward $376 $-1 #
edge $-1 $377 -9.4460344153320328 $378 1.4478731667208109 $242 $379 forward 7 unknown #
loop $-1 $-1 $249 $152 #
plane-surface $-1 -9.4193975425169327 -21.276243022925904 31.074253434704147 0 0.51503808176128008 0.85716729658548041 1 0 0 forward_v I I I I #
loop $-1 $-1 $380 $97 #
coedge $-1 $247 $247 $248 $381 reversed $153 $-1 #
coedge $-1 $248 $248 $247 $381 forward $155 $-1 #
coedge $-1 $249 $249 $156 $250 forward $244 $-1 #
edge $-1 $382 1.7773658298432436e-016 $382 6.2831853071796004 $249 $383 forward 7 unknown #
loop $-1 $-1 $256 $157 #
plane-surface $-1 -9.4193975425169327 -21.276243022925904 31.074253434704147 0 0.51503808176128008 0.85716729658548041 1 0 0 forward_v I I I I #
loop $-1 $-1 $384 $100 #
coedge $-1 $254 $254 $255 $385 reversed $158 $-1 #
coedge $-1 $255 $255 $254 $385 forward $160 $-1 #
coedge $-1 $256 $256 $161 $257 forward $251 $-1 #
edge $-1 $386 1.7773658298432436e-016 $386 6.2831853071796004 $256 $387 forward 7 unknown #
face $-1 $388 $389 $53 $-1 $390 forward single #
loop $-1 $-1 $391 $162 #
plane-surface $-1 0 29.78470205184907 0 0 -1 0 0 0 -1 forward_v I I I I #
coedge $-1 $392 $393 $394 $395 reversed $163 $-1 #
coedge $-1 $396 $165 $397 $398 reversed $104 $-1 #
coedge $-1 $165 $396 $399 $400 reversed $104 $-1 #
coedge $-1 $401 $402 $165 $265 forward $389 $-1 #
edge $-1 $403 -59.569404103698155 $404 -46.860207631260813 $264 $405 forward 7 unknown #
loop $-1 $-1 $271 $166 #
plane-surface $-1 -9.4193975425169327 -21.276243022925904 31.074253434704147 0 0.51503808176128008 0.85716729658548041 1 0 0 forward_v I I I I #
loop $-1 $-1 $406 $106 #
coedge $-1 $269 $269 $270 $407 reversed $167 $-1 #
coedge $-1 $270 $270 $269 $407 forward $169 $-1 #
coedge $-1 $271 $271 $170 $272 forward $266 $-1 #
edge $-1 $408 1.7773658298432436e-016 $408 6.2831853071796004 $271 $409 forward 7 unknown #
loop $-1 $-1 $278 $171 #
plane-surface $-1 -9.4193975425169327 -21.276243022925904 31.074253434704147 0 0.51503808176128008 0.85716729658548041 1 0 0 forward_v I I I I #
loop $-1 $-1 $410 $109 #
coedge $-1 $276 $276 $277 $411 reversed $172 $-1 #
coedge $-1 $277 $277 $276 $411 forward $174 $-1 #
coedge $-1 $278 $278 $175 $279 forward $273 $-1 #
edge $-1 $412 1.7773658298432436e-016 $412 6.2831853071796004 $278 $413 forward 7 unknown #
face $-1 $414 $415 $42 $-1 $416 reversed single #
loop $-1 $-1 $417 $176 #
plane-surface $-1 -60.144657734916223 0 0 1 0 0 0 0 -1 forward_v I I I I #
coedge $-1 $418 $291 $419 $420 forward $177 $-1 #
coedge $-1 $421 $179 $418 $422 forward $113 $-1 #
coedge $-1 $179 $421 $423 $424 forward $113 $-1 #
coedge $-1 $294 $293 $179 $287 reversed $295 $-1 #
edge $-1 $425 -29.78470205184907 $426 29.78470205184907 $286 $427 forward 7 unknown #
coedge $-1 $181 $180 $428 $429 forward $71 $-1 #
coedge $-1 $430 $431 $180 $290 reversed $415 $-1 #
edge $-1 $297 -60.144657734916223 $432 60.144657734916223 $289 $433 forward 7 unknown #
coedge $-1 $283 $434 $181 $292 reversed $177 $-1 #
edge $-1 $435 -60.144657734916223 $296 60.144657734916223 $291 $436 forward 7 unknown #
coedge $-1 $286 $182 $434 $437 forward $295 $-1 #
coedge $-1 $182 $286 $430 $438 reversed $295 $-1 #
loop $-1 $-1 $293 $414 #
vertex $-1 $183 $439 #
vertex $-1 $183 $440 #
straight-curve $-1 60.144657734916223 0 6.9394619853642796 0 1 0 I I #
face $-1 $441 $442 $43 $-1 $443 reversed single #
loop $-1 $-1 $304 $184 #
plane-surface $-1 0 -29.78470205184907 0 0 1 0 0 0 1 forward_v I I I I #
coedge $-1 $444 $445 $303 $446 forward $185 $-1 #
coedge $-1 $311 $187 $302 $446 reversed $117 $-1 #
coedge $-1 $309 $447 $187 $305 forward $300 $-1 #
edge $-1 $448 -4.2197309926821394 $312 -1.2197309926821398 $304 $449 forward 7 unknown #
coedge $-1 $189 $188 $450 $451 reversed $74 $-1 #
coedge $-1 $452 $453 $188 $308 forward $454 $-1 #
edge $-1 $455 -31.775990398562097 $313 -24.961344274146153 $307 $456 forward 7 unknown #
coedge $-1 $457 $304 $189 $310 forward $300 $-1 #
edge $-1 $312 24.961344274146153 $458 31.775990398562097 $309 $459 forward 7 unknown #
coedge $-1 $190 $303 $452 $460 reversed $117 $-1 #
vertex $-1 $310 $461 #
vertex $-1 $308 $462 #
straight-curve $-1 -53.330011610500279 0 -3.9394619853642796 0 1 0 I I #
face $-1 $-1 $327 $44 $-1 $463 reversed single #
loop $-1 $-1 $464 $192 #
plane-surface $-1 0 0 6.9394619853642796 0 0 1 1 0 0 forward_v I I I I #
coedge $-1 $465 $466 $467 $468 reversed $193 $-1 #
coedge $-1 $469 $195 $197 $325 forward $121 $-1 #
coedge $-1 $195 $469 $465 $470 forward $121 $-1 #
coedge $-1 $467 $198 $195 $322 forward $327 $-1 #
edge $-1 $329 -17.536419375983368 $471 8.1170218334664348 $321 $472 forward 7 unknown #
coedge $-1 $473 $474 $196 $324 forward $316 $-1 #
edge $-1 $475 -26.978345704108271 $328 -16.084438122055449 $323 $476 forward 7 unknown #
edge $-1 $329 -1.2423700976147393e-014 $475 12.709196472437307 $197 $477 forward 7 unknown #
coedge $-1 $198 $467 $473 $478 reversed $327 $-1 #
loop $-1 $-1 $467 $315 #
vertex $-1 $478 $479 #
vertex $-1 $199 $480 #
straight-curve $-1 -22.246118147241834 -29.78470205184907 51.750904581433616 0 0 -1 I I #
coedge $-1 $331 $331 $-1 $481 reversed $202 $-1 #
edge $-1 $482 0 $482 6.2831853071796004 $203 $483 forward 7 unknown #
vertex $-1 $206 $484 #
ellipse-curve $-1 -14.916563515970466 -24.337748260822668 3.6666018994186045 0 -0.51503808176128008 0.85716729658548041 2.5 0 0 1 I I #
coedge $-1 $335 $335 $-1 $485 reversed $209 $-1 #
edge $-1 $486 0 $486 6.2831853071796004 $210 $487 forward 7 unknown #
vertex $-1 $213 $488 #
ellipse-curve $-1 -3.9222315690634062 -24.337748260822668 3.6666018994186045 0 -0.51503808176128008 0.85716729658548041 2.5 0 0 1 I I #
face $-1 $-1 $352 $47 $-1 $489 reversed single #
loop $-1 $-1 $490 $214 #
plane-surface $-1 3.4073230622079684 -91.738280347809038 103.50180916286723 -1 0 0 0 -0.51503808176128008 0.85716729658548041 forward_v I I I I #
coedge $-1 $491 $492 $219 $349 forward $215 $-1 #
coedge $-1 $347 $217 $491 $493 reversed $135 $-1 #
coedge $-1 $217 $347 $351 $494 reversed $135 $-1 #
coedge $-1 $490 $495 $217 $346 forward $340 $-1 #
edge $-1 $496 -12.709196472437307 $497 1.2423700976147393e-014 $345 $498 forward 7 unknown #
coedge $-1 $344 $343 $218 $348 forward $135 $-1 #
edge $-1 $499 -12.709196472437307 $353 1.2423700976147393e-014 $218 $500 forward 7 unknown #
edge $-1 $354 16.084438122055449 $499 26.978345704108271 $342 $501 forward 7 unknown #
coedge $-1 $502 $220 $492 $503 reversed $352 $-1 #
coedge $-1 $220 $502 $344 $494 forward $352 $-1 #
loop $-1 $-1 $220 $339 #
vertex $-1 $221 $504 #
vertex $-1 $349 $505 #
straight-curve $-1 29.060764271657778 -29.78470205184907 51.750904581433616 0 0 1 I I #
coedge $-1 $356 $356 $-1 $506 reversed $224 $-1 #
edge $-1 $507 0 $507 6.2831853071796004 $225 $508 forward 7 unknown #
vertex $-1 $228 $509 #
ellipse-curve $-1 10.736877693479329 -24.337748260822668 3.6666018994186045 0 -0.51503808176128008 0.85716729658548041 2.5 0 0 1 I I #
coedge $-1 $360 $360 $-1 $510 reversed $231 $-1 #
edge $-1 $511 0 $511 6.2831853071796004 $232 $512 forward 7 unknown #
vertex $-1 $235 $513 #
ellipse-curve $-1 21.731209640386396 -24.337748260822668 3.6666018994186045 0 -0.51503808176128008 0.85716729658548041 2.5 0 0 1 I I #
face $-1 $-1 $376 $50 $-1 $514 forward single #
loop $-1 $-1 $515 $236 #
plane-surface $-1 0 29.78470205184907 0 0 -1 0 0 0 -1 forward_v I I I I #
coedge $-1 $516 $517 $518 $519 reversed $237 $-1 #
coedge $-1 $520 $239 $241 $374 forward $149 $-1 #
coedge $-1 $239 $520 $516 $521 forward $149 $-1 #
coedge $-1 $518 $242 $239 $371 forward $376 $-1 #
edge $-1 $378 -17.536419375983368 $522 8.1170218334664348 $370 $523 forward 7 unknown #
coedge $-1 $524 $525 $240 $373 forward $365 $-1 #
edge $-1 $526 -66.697418578576304 $377 -60.151698406684936 $372 $527 forward 7 unknown #
edge $-1 $378 46.860207631260813 $526 59.569404103698155 $241 $528 forward 7 unknown #
coedge $-1 $242 $518 $524 $529 forward $376 $-1 #
loop $-1 $-1 $518 $364 #
vertex $-1 $373 $530 #
vertex $-1 $243 $531 #
straight-curve $-1 -22.246118147241834 20.338667636517037 6.9394619853642823 0 -1 0 I I #
coedge $-1 $380 $380 $-1 $532 reversed $246 $-1 #
edge $-1 $533 0 $533 6.2831853071796004 $247 $534 forward 7 unknown #
vertex $-1 $250 $535 #
ellipse-curve $-1 -14.916563515970466 24.337748260822657 3.6666018994185929 0 0.51503808176128008 0.85716729658548041 2.5 0 0 1 I I #
coedge $-1 $384 $384 $-1 $536 reversed $253 $-1 #
edge $-1 $537 0 $537 6.2831853071796004 $254 $538 forward 7 unknown #
vertex $-1 $257 $539 #
ellipse-curve $-1 -3.9222315690634062 24.337748260822657 3.6666018994185929 0 0.51503808176128008 0.85716729658548041 2.5 0 0 1 I I #
face $-1 $-1 $540 $53 $-1 $541 forward single #
loop $-1 $-1 $401 $258 #
plane-surface $-1 3.4073230622079684 40.677335273034075 134.18232078409844 -1 0 0 0 0.51503808176128008 0.85716729658548041 forward_v I I I I #
coedge $-1 $397 $542 $393 $543 forward $259 $-1 #
coedge $-1 $393 $261 $396 $544 reversed $163 $-1 #
coedge $-1 $261 $392 $391 $543 reversed $163 $-1 #
coedge $-1 $545 $399 $261 $395 forward $540 $-1 #
edge $-1 $546 -1.4478731667208109 $547 9.4460344153320328 $394 $548 forward 7 unknown #
coedge $-1 $263 $262 $392 $544 forward $104 $-1 #
coedge $-1 $549 $391 $262 $398 forward $259 $-1 #
edge $-1 $550 -33.770463042916248 $403 -8.1170218334664348 $397 $551 forward 7 unknown #
coedge $-1 $394 $552 $263 $400 forward $540 $-1 #
edge $-1 $404 8.1170218334664348 $546 33.770463042916248 $399 $553 forward 7 unknown #
coedge $-1 $402 $264 $552 $554 reversed $389 $-1 #
coedge $-1 $264 $401 $549 $555 reversed $389 $-1 #
vertex $-1 $398 $556 #
vertex $-1 $400 $557 #
straight-curve $-1 3.4073230622079684 -21.276243022925904 31.074253434704147 0 -0.85716729658548041 0.51503808176128008 I I #
coedge $-1 $406 $406 $-1 $558 reversed $268 $-1 #
edge $-1 $559 0 $559 6.2831853071796004 $269 $560 forward 7 unknown #
vertex $-1 $272 $561 #
ellipse-curve $-1 10.736877693479329 24.337748260822657 3.6666018994185929 0 0.51503808176128008 0.85716729658548041 2.5 0 0 1 I I #
coedge $-1 $410 $410 $-1 $562 reversed $275 $-1 #
edge $-1 $563 0 $563 6.2831853071796004 $276 $564 forward 7 unknown #
vertex $-1 $279 $565 #
ellipse-curve $-1 21.731209640386396 24.337748260822657 3.6666018994185929 0 0.51503808176128008 0.85716729658548041 2.5 0 0 1 I I #
face $-1 $-1 $295 $42 $-1 $566 reversed single #
loop $-1 $-1 $430 $280 #
plane-surface $-1 0 29.78470205184907 0 0 -1 0 0 0 -1 forward_v I I I I #
coedge $-1 $567 $428 $431 $568 forward $281 $-1 #
coedge $-1 $434 $283 $284 $422 reversed $177 $-1 #
coedge $-1 $428 $567 $283 $420 reversed $281 $-1 #
edge $-1 $435 -6.9394619853642796 $569 6.9394619853642796 $419 $570 forward 7 unknown #
coedge $-1 $285 $284 $567 $571 forward $113 $-1 #
edge $-1 $426 -60.144657734916223 $569 60.144657734916223 $418 $572 forward 7 unknown #
coedge $-1 $431 $430 $285 $424 reversed $415 $-1 #
edge $-1 $573 -60.144657734916223 $425 60.144657734916223 $423 $574 forward 7 unknown #
vertex $-1 $287 $575 #
vertex $-1 $437 $576 #
straight-curve $-1 60.144657734916223 0 -6.9394619853642796 0 -1 0 I I #
coedge $-1 $417 $419 $288 $429 reversed $281 $-1 #
edge $-1 $432 -29.78470205184907 $435 29.78470205184907 $428 $577 forward 7 unknown #
coedge $-1 $423 $289 $294 $438 forward $415 $-1 #
coedge $-1 $289 $423 $417 $568 reversed $415 $-1 #
vertex $-1 $290 $578 #
straight-curve $-1 0 29.78470205184907 6.9394619853642796 -1 0 0 I I #
coedge $-1 $291 $418 $293 $437 reversed $177 $-1 #
vertex $-1 $429 $579 #
straight-curve $-1 0 -29.78470205184907 6.9394619853642796 1 0 0 I I #
edge $-1 $296 -6.9394619853642796 $426 6.9394619853642796 $293 $580 forward 7 unknown #
edge $-1 $297 -6.9394619853642796 $425 6.9394619853642796 $294 $581 forward 7 unknown #
point $-1 60.144657734916223 -29.78470205184907 6.9394619853642796 #
point $-1 60.144657734916223 29.78470205184907 6.9394619853642796 #
face $-1 $-1 $454 $43 $-1 $582 reversed single #
loop $-1 $-1 $450 $299 #
plane-surface $-1 -60.144657734916223 0 0 1 0 0 0 0 -1 forward_v I I I I #
coedge $-1 $583 $302 $447 $584 forward $185 $-1 #
coedge $-1 $302 $583 $585 $586 forward $185 $-1 #
edge $-1 $587 -29.78470205184907 $448 29.78470205184907 $302 $588 forward 7 unknown #
coedge $-1 $304 $457 $444 $584 reversed $300 $-1 #
vertex $-1 $584 $589 #
straight-curve $-1 -53.330011610500279 -29.78470205184907 -2.7197309926821398 0 0 1 I I #
coedge $-1 $590 $591 $306 $451 forward $442 $-1 #
edge $-1 $458 -29.78470205184907 $455 29.78470205184907 $450 $592 forward 7 unknown #
coedge $-1 $585 $307 $311 $460 forward $454 $-1 #
coedge $-1 $307 $585 $590 $593 reversed $454 $-1 #
loop $-1 $-1 $452 $441 #
vertex $-1 $593 $594 #
straight-curve $-1 -28.368667336354125 29.78470205184907 -3.9394619853642796 1 0 0 I I #
coedge $-1 $447 $309 $591 $595 forward $300 $-1 #
vertex $-1 $595 $596 #
straight-curve $-1 -28.368667336354125 -29.78470205184907 -3.9394619853642796 -1 0 0 I I #
edge $-1 $313 1.2197309926821398 $587 4.2197309926821394 $452 $597 forward 7 unknown #
point $-1 -53.330011610500279 -29.78470205184907 -3.9394619853642796 #
point $-1 -53.330011610500279 29.78470205184907 -3.9394619853642796 #
plane-surface $-1 0 -29.78470205184907 0 0 1 0 0 0 1 forward_v I I I I #
coedge $-1 $474 $473 $466 $598 forward $316 $-1 #
coedge $-1 $466 $318 $320 $470 reversed $193 $-1 #
coedge $-1 $318 $465 $464 $598 reversed $193 $-1 #
coedge $-1 $326 $321 $318 $468 forward $327 $-1 #
edge $-1 $471 -51.357162767960681 $599 -44.811442596069334 $467 $600 forward 7 unknown #
coedge $-1 $320 $319 $474 $601 reversed $121 $-1 #
edge $-1 $602 -12.709196472437307 $471 1.2423700976147393e-014 $465 $603 forward 7 unknown #
vertex $-1 $322 $604 #
straight-curve $-1 -4.7096987712584664 -29.78470205184907 0.39374181347293807 1 0 0 I I #
coedge $-1 $464 $323 $326 $478 forward $316 $-1 #
coedge $-1 $323 $464 $469 $601 forward $316 $-1 #
vertex $-1 $324 $605 #
straight-curve $-1 -22.246118147241834 -45.869140173904519 6.9394619853642823 0 -1 0 I I #
straight-curve $-1 -22.246118147241834 -29.78470205184906 0.39374181347294268 0 0.85716729658548041 0.51503808176128008 I I #
edge $-1 $328 -22.246118147241834 $599 3.4073230622079684 $326 $606 forward 7 unknown #
point $-1 -22.246118147241834 -29.78470205184907 6.9394619853642796 #
point $-1 -22.246118147241834 -29.78470205184907 0.3937418134729363 #
edge $-1 $607 1 $607 0 $331 $-1 forward 7 unknown #
vertex $-1 $332 $608 #
ellipse-curve $-1 -14.916563515970466 -22.46378580765991 0.54780469439030921 0 -0.51503808176128008 0.85716729658548041 2.5 0 0 1 I I #
point $-1 -12.416563515970466 -24.337748260822671 3.6666018994186134 #
edge $-1 $609 1 $609 0 $335 $-1 forward 7 unknown #
vertex $-1 $336 $610 #
ellipse-curve $-1 -3.9222315690634062 -22.46378580765991 0.54780469439030921 0 -0.51503808176128008 0.85716729658548041 2.5 0 0 1 I I #
point $-1 -1.4222315690634062 -24.337748260822671 3.6666018994186134 #
plane-surface $-1 0 -29.78470205184907 0 0 1 0 0 0 1 forward_v I I I I #
coedge $-1 $495 $345 $502 $611 reversed $340 $-1 #
coedge $-1 $612 $342 $343 $493 forward $215 $-1 #
coedge $-1 $342 $612 $350 $503 forward $215 $-1 #
edge $-1 $499 -33.770463042916248 $496 -8.1170218334664348 $491 $613 forward 7 unknown #
edge $-1 $497 8.1170218334664348 $353 33.770463042916248 $351 $614 forward 7 unknown #
coedge $-1 $345 $490 $612 $615 reversed $340 $-1 #
vertex $-1 $493 $616 #
vertex $-1 $494 $617 #
straight-curve $-1 3.4073230622079684 -29.78470205184906 0.39374181347294268 0 -0.85716729658548041 -0.51503808176128008 I I #
vertex $-1 $349 $618 #
straight-curve $-1 29.060764271657778 -29.78470205184906 0.39374181347294268 0 -0.85716729658548041 -0.51503808176128008 I I #
straight-curve $-1 29.060764271657778 -45.869140173904519 6.9394619853642823 0 1 0 I I #
coedge $-1 $351 $350 $490 $611 forward $352 $-1 #
edge $-1 $619 3.4073230622079684 $354 29.060764271657778 $350 $620 forward 7 unknown #
point $-1 29.060764271657778 -29.78470205184907 0.3937418134729363 #
point $-1 29.060764271657778 -29.78470205184907 6.9394619853642796 #
edge $-1 $621 1 $621 0 $356 $-1 forward 7 unknown #
vertex $-1 $357 $622 #
ellipse-curve $-1 10.736877693479329 -22.46378580765991 0.54780469439030921 0 -0.51503808176128008 0.85716729658548041 2.5 0 0 1 I I #
point $-1 13.236877693479329 -24.337748260822671 3.6666018994186134 #
edge $-1 $623 1 $623 0 $360 $-1 forward 7 unknown #
vertex $-1 $361 $624 #
ellipse-curve $-1 21.731209640386396 -22.46378580765991 0.54780469439030921 0 -0.51503808176128008 0.85716729658548041 2.5 0 0 1 I I #
point $-1 24.231209640386396 -24.337748260822671 3.6666018994186134 #
plane-surface $-1 0 0 6.9394619853642796 0 0 1 1 0 0 forward_v I I I I #
coedge $-1 $525 $524 $517 $625 forward $365 $-1 #
coedge $-1 $517 $367 $369 $521 reversed $237 $-1 #
coedge $-1 $367 $516 $515 $625 reversed $237 $-1 #
coedge $-1 $375 $370 $367 $519 forward $376 $-1 #
edge $-1 $522 -1.4478731667208109 $626 9.4460344153320328 $518 $627 forward 7 unknown #
coedge $-1 $369 $368 $525 $628 reversed $149 $-1 #
edge $-1 $629 -59.569404103698155 $522 -46.860207631260813 $516 $630 forward 7 unknown #
vertex $-1 $371 $631 #
straight-curve $-1 -4.7096987712584664 18.89079446979623 6.9394619853642787 1 0 0 I I #
coedge $-1 $515 $372 $375 $529 reversed $365 $-1 #
coedge $-1 $372 $515 $520 $628 forward $365 $-1 #
vertex $-1 $373 $632 #
straight-curve $-1 -22.246118147241834 29.78470205184907 67.091160392049218 0 0 1 I I #
straight-curve $-1 -22.246118147241834 -21.276243022925904 31.074253434704147 0 0.85716729658548041 -0.51503808176128008 I I #
edge $-1 $626 -3.4073230622079684 $377 22.246118147241834 $524 $633 forward 7 unknown #
point $-1 -22.246118147241834 29.78470205184907 6.9394619853642796 #
point $-1 -22.246118147241834 18.890794469796226 6.9394619853642787 #
edge $-1 $634 1 $634 0 $380 $-1 forward 7 unknown #
vertex $-1 $381 $635 #
ellipse-curve $-1 -14.916563515970466 22.463785807659907 0.54780469439030566 0 0.51503808176128008 0.85716729658548041 2.5 0 0 1 I I #
point $-1 -12.416563515970466 24.337748260822668 3.6666018994186098 #
edge $-1 $636 1 $636 0 $384 $-1 forward 7 unknown #
vertex $-1 $385 $637 #
ellipse-curve $-1 -3.9222315690634062 22.463785807659907 0.54780469439030566 0 0.51503808176128008 0.85716729658548041 2.5 0 0 1 I I #
point $-1 -1.4222315690634062 24.337748260822668 3.6666018994186098 #
loop $-1 $-1 $394 $388 #
plane-surface $-1 0 0 6.9394619853642796 0 0 1 1 0 0 forward_v I I I I #
coedge $-1 $391 $549 $545 $638 reversed $259 $-1 #
edge $-1 $547 60.151698406684936 $550 66.697418578576304 $391 $639 forward 7 unknown #
edge $-1 $550 -59.569404103698155 $546 -46.860207631260813 $392 $640 forward 7 unknown #
coedge $-1 $552 $394 $542 $638 forward $540 $-1 #
vertex $-1 $395 $641 #
vertex $-1 $638 $642 #
straight-curve $-1 29.060764271657778 20.338667636517037 6.9394619853642823 0 1 0 I I #
coedge $-1 $542 $397 $402 $555 forward $259 $-1 #
vertex $-1 $543 $643 #
straight-curve $-1 -4.7096987712584664 29.78470205184907 0.39374181347292136 -1 0 0 I I #
coedge $-1 $399 $545 $401 $554 forward $540 $-1 #
straight-curve $-1 -4.7096987712584664 18.89079446979623 6.9394619853642787 1 0 0 I I #
edge $-1 $644 -9.4460344153320328 $404 1.4478731667208109 $552 $645 forward 7 unknown #
edge $-1 $403 -66.697418578576304 $644 -60.151698406684936 $549 $646 forward 7 unknown #
point $-1 3.4073230622079684 29.784702051849074 0.39374181347292136 #
point $-1 3.4073230622079684 18.890794469796226 6.9394619853642787 #
edge $-1 $647 1 $647 0 $406 $-1 forward 7 unknown #
vertex $-1 $407 $648 #
ellipse-curve $-1 10.736877693479329 22.463785807659907 0.54780469439030566 0 0.51503808176128008 0.85716729658548041 2.5 0 0 1 I I #
point $-1 13.236877693479329 24.337748260822668 3.6666018994186098 #
edge $-1 $649 1 $649 0 $410 $-1 forward 7 unknown #
vertex $-1 $411 $650 #
ellipse-curve $-1 21.731209640386396 22.463785807659907 0.54780469439030566 0 0.51503808176128008 0.85716729658548041 2.5 0 0 1 I I #
point $-1 24.231209640386396 24.337748260822668 3.6666018994186098 #
plane-surface $-1 60.144657734916223 0 0 -1 0 0 0 0 1 forward_v I I I I #
coedge $-1 $419 $417 $421 $571 reversed $281 $-1 #
edge $-1 $432 -6.9394619853642796 $573 6.9394619853642796 $431 $651 forward 7 unknown #
vertex $-1 $571 $652 #
straight-curve $-1 -60.144657734916223 -29.78470205184907 0 0 0 -1 I I #
edge $-1 $569 -29.78470205184907 $573 29.78470205184907 $567 $653 forward 7 unknown #
straight-curve $-1 0 -29.78470205184907 -6.9394619853642796 -1 0 0 I I #
vertex $-1 $424 $654 #
straight-curve $-1 0 29.78470205184907 -6.9394619853642796 1 0 0 I I #
point $-1 60.144657734916223 29.78470205184907 -6.9394619853642796 #
point $-1 60.144657734916223 -29.78470205184907 -6.9394619853642796 #
straight-curve $-1 -60.144657734916223 0 6.9394619853642796 0 -1 0 I I #
point $-1 -60.144657734916223 29.78470205184907 6.9394619853642796 #
point $-1 -60.144657734916223 -29.78470205184907 6.9394619853642796 #
straight-curve $-1 60.144657734916223 -29.78470205184907 0 0 0 -1 I I #
straight-curve $-1 60.144657734916223 29.78470205184907 0 0 0 -1 I I #
plane-surface $-1 0 29.78470205184907 0 0 -1 0 0 0 -1 forward_v I I I I #
coedge $-1 $445 $444 $655 $656 forward $185 $-1 #
edge $-1 $448 53.330011610500279 $657 60.144657734916223 $447 $658 forward 7 unknown #
coedge $-1 $453 $452 $445 $586 reversed $454 $-1 #
edge $-1 $659 -60.144657734916223 $587 -53.330011610500279 $585 $660 forward 7 unknown #
vertex $-1 $460 $661 #
straight-curve $-1 -53.330011610500279 0 -6.9394619853642796 0 -1 0 I I #
point $-1 -53.330011610500279 -29.78470205184907 -6.9394619853642796 #
coedge $-1 $655 $450 $453 $593 forward $442 $-1 #
coedge $-1 $450 $655 $457 $595 reversed $442 $-1 #
straight-curve $-1 -60.144657734916223 0 -3.9394619853642796 0 1 0 I I #
edge $-1 $455 3.9394619853642796 $659 6.9394619853642796 $453 $662 forward 7 unknown #
point $-1 -60.144657734916223 29.78470205184907 -3.9394619853642796 #
edge $-1 $458 3.9394619853642796 $657 6.9394619853642796 $591 $663 forward 7 unknown #
point $-1 -60.144657734916223 -29.78470205184907 -3.9394619853642796 #
straight-curve $-1 -53.330011610500279 29.78470205184907 -2.7197309926821398 0 0 -1 I I #
edge $-1 $599 16.084438122055449 $602 26.978345704108271 $464 $664 forward 7 unknown #
vertex $-1 $468 $665 #
straight-curve $-1 3.4073230622079684 -29.78470205184907 51.750904581433616 0 0 1 I I #
edge $-1 $602 -8.1170218334664348 $475 17.536419375983368 $474 $666 forward 7 unknown #
vertex $-1 $601 $667 #
straight-curve $-1 3.4073230622079684 -29.78470205184906 0.39374181347294268 0 -0.85716729658548041 -0.51503808176128008 I I #
point $-1 3.4073230622079684 -29.78470205184907 0.3937418134729363 #
point $-1 -22.246118147241834 -18.890794469796248 6.9394619853642796 #
straight-curve $-1 0 -29.78470205184907 6.9394619853642796 1 0 0 I I #
vertex $-1 $481 $668 #
point $-1 -12.416563515970466 -22.46378580765991 0.54780469439030921 #
vertex $-1 $485 $669 #
point $-1 -1.4222315690634062 -22.46378580765991 0.54780469439030921 #
edge $-1 $619 44.811442596069334 $497 51.357162767960681 $502 $670 forward 7 unknown #
coedge $-1 $492 $491 $495 $615 forward $215 $-1 #
straight-curve $-1 -4.7096987712584664 -18.890794469796248 6.9394619853642796 -1 0 0 I I #
straight-curve $-1 -4.7096987712584664 -29.78470205184907 0.39374181347293807 1 0 0 I I #
edge $-1 $496 -26.978345704108271 $619 -16.084438122055449 $612 $671 forward 7 unknown #
point $-1 3.4073230622079684 -18.890794469796248 6.9394619853642796 #
point $-1 3.4073230622079684 -29.78470205184907 0.3937418134729363 #
point $-1 29.060764271657778 -18.890794469796248 6.9394619853642796 #
vertex $-1 $503 $672 #
straight-curve $-1 0 -29.78470205184907 6.9394619853642796 1 0 0 I I #
vertex $-1 $506 $673 #
point $-1 13.236877693479329 -22.46378580765991 0.54780469439030921 #
vertex $-1 $510 $674 #
point $-1 24.231209640386396 -22.46378580765991 0.54780469439030921 #
edge $-1 $626 60.151698406684936 $629 66.697418578576304 $515 $675 forward 7 unknown #
vertex $-1 $529 $676 #
straight-curve $-1 3.4073230622079684 20.338667636517037 6.9394619853642823 0 1 0 I I #
edge $-1 $629 -8.1170218334664348 $526 17.536419375983368 $525 $677 forward 7 unknown #
vertex $-1 $628 $678 #
straight-curve $-1 3.4073230622079684 -21.276243022925904 31.074253434704147 0 -0.85716729658548041 0.51503808176128008 I I #
point $-1 3.4073230622079684 18.890794469796226 6.9394619853642787 #
point $-1 -22.246118147241834 29.784702051849074 0.39374181347292136 #
straight-curve $-1 0 29.78470205184907 6.9394619853642796 -1 0 0 I I #
vertex $-1 $532 $679 #
point $-1 -12.416563515970466 22.463785807659907 0.54780469439030566 #
vertex $-1 $536 $680 #
point $-1 -1.4222315690634062 22.463785807659907 0.54780469439030566 #
edge $-1 $547 -29.060764271657778 $644 -3.4073230622079684 $542 $681 forward 7 unknown #
straight-curve $-1 29.060764271657778 29.78470205184907 67.091160392049218 0 0 -1 I I #
straight-curve $-1 29.060764271657778 -21.276243022925904 31.074253434704147 0 -0.85716729658548041 0.51503808176128008 I I #
point $-1 29.060764271657778 18.890794469796226 6.9394619853642787 #
point $-1 29.060764271657778 29.78470205184907 6.9394619853642796 #
point $-1 29.060764271657778 29.784702051849074 0.39374181347292136 #
vertex $-1 $555 $682 #
straight-curve $-1 3.4073230622079684 20.338667636517037 6.9394619853642823 0 -1 0 I I #
straight-curve $-1 3.4073230622079684 29.78470205184907 67.091160392049218 0 0 1 I I #
vertex $-1 $558 $683 #
point $-1 13.236877693479329 22.463785807659907 0.54780469439030566 #
vertex $-1 $562 $684 #
point $-1 24.231209640386396 22.463785807659907 0.54780469439030566 #
straight-curve $-1 -60.144657734916223 29.78470205184907 0 0 0 -1 I I #
point $-1 -60.144657734916223 -29.78470205184907 -6.9394619853642796 #
straight-curve $-1 -60.144657734916223 0 -6.9394619853642796 0 1 0 I I #
point $-1 -60.144657734916223 29.78470205184907 -6.9394619853642796 #
coedge $-1 $591 $590 $583 $656 reversed $442 $-1 #
edge $-1 $657 -29.78470205184907 $659 29.78470205184907 $655 $685 forward 7 unknown #
vertex $-1 $656 $686 #
straight-curve $-1 0 -29.78470205184907 -6.9394619853642796 -1 0 0 I I #
vertex $-1 $586 $687 #
straight-curve $-1 0 29.78470205184907 -6.9394619853642796 1 0 0 I I #
point $-1 -53.330011610500279 29.78470205184907 -6.9394619853642796 #
straight-curve $-1 -60.144657734916223 29.78470205184907 0 0 0 -1 I I #
straight-curve $-1 -60.144657734916223 -29.78470205184907 0 0 0 -1 I I #
straight-curve $-1 3.4073230622079684 -45.869140173904519 6.9394619853642823 0 1 0 I I #
point $-1 3.4073230622079684 -29.78470205184907 6.9394619853642796 #
straight-curve $-1 -4.7096987712584664 -18.890794469796248 6.9394619853642796 -1 0 0 I I #
point $-1 3.4073230622079684 -18.890794469796248 6.9394619853642796 #
point $-1 -14.916563515970466 -21.176190603256707 -1.5951135470733917 #
point $-1 -3.9222315690634062 -21.176190603256707 -1.5951135470733917 #
straight-curve $-1 3.4073230622079684 -29.78470205184907 51.750904581433616 0 0 -1 I I #
straight-curve $-1 3.4073230622079684 -45.869140173904519 6.9394619853642823 0 -1 0 I I #
point $-1 3.4073230622079684 -29.78470205184907 6.9394619853642796 #
point $-1 10.736877693479329 -21.176190603256707 -1.5951135470733917 #
point $-1 21.731209640386396 -21.176190603256707 -1.5951135470733917 #
straight-curve $-1 3.4073230622079684 29.78470205184907 67.091160392049218 0 0 -1 I I #
point $-1 3.4073230622079684 29.78470205184907 6.9394619853642796 #
straight-curve $-1 -4.7096987712584664 29.78470205184907 0.39374181347292136 -1 0 0 I I #
point $-1 3.4073230622079684 29.784702051849074 0.39374181347292136 #
point $-1 -14.916563515970466 21.176190603256703 -1.5951135470733953 #
point $-1 -3.9222315690634062 21.176190603256703 -1.5951135470733953 #
straight-curve $-1 0 29.78470205184907 6.9394619853642796 -1 0 0 I I #
point $-1 3.4073230622079684 29.78470205184907 6.9394619853642796 #
point $-1 10.736877693479329 21.176190603256703 -1.5951135470733953 #
point $-1 21.731209640386396 21.176190603256703 -1.5951135470733953 #
straight-curve $-1 -60.144657734916223 0 -6.9394619853642796 0 1 0 I I #
point $-1 -60.144657734916223 -29.78470205184907 -6.9394619853642796 #
point $-1 -60.144657734916223 29.78470205184907 -6.9394619853642796 #
End-of-ACIS-data 