500 0 9 0           
7 Unknown 11 ACIS 5.0 NT 24 Fri Mar 26 19:04:32 1999 
-1 9.9999999999999995e-007 1e-010 
body $-1 $9 $-1 $10 #
body $-1 $11 $-1 $12 #
body $-1 $13 $-1 $14 #
body $-1 $15 $-1 $16 #
body $-1 $17 $-1 $18 #
body $-1 $19 $-1 $20 #
body $-1 $21 $-1 $22 #
body $-1 $23 $-1 $24 #
body $-1 $25 $-1 $26 #
lump $-1 $-1 $27 $0 #
transform $-1 1 0 0 0 1 0 0 0 1 49.349650563066497 26.627906944492462 8.4717327526364787 1 rotate no_reflect no_shear #
lump $-1 $-1 $28 $1 #
transform $-1 1 0 0 0 1 0 0 0 1 49.349650563066497 26.627906944492462 8.4717327526364787 1 rotate no_reflect no_shear #
lump $-1 $-1 $29 $2 #
transform $-1 1 0 0 0 1 0 0 0 1 49.349650563066497 26.627906944492462 8.4717327526364787 1 rotate no_reflect no_shear #
lump $-1 $-1 $30 $3 #
transform $-1 1 0 0 0 1 0 0 0 1 49.349650563066497 26.627906944492462 8.4717327526364787 1 rotate no_reflect no_shear #
lump $-1 $-1 $31 $4 #
transform $-1 1 0 0 0 1 0 0 0 1 49.349650563066497 26.627906944492462 8.4717327526364787 1 rotate no_reflect no_shear #
lump $-1 $-1 $32 $5 #
transform $-1 1 0 0 0 1 0 0 0 1 49.349650563066497 26.627906944492462 8.4717327526364787 1 rotate no_reflect no_shear #
lump $-1 $-1 $33 $6 #
transform $-1 1 0 0 0 1 0 0 0 1 49.349650563066497 26.627906944492462 8.4717327526364787 1 rotate no_reflect no_shear #
lump $-1 $-1 $34 $7 #
transform $-1 1 0 0 0 1 0 0 0 1 49.349650563066497 26.627906944492462 8.4717327526364787 1 rotate no_reflect no_shear #
lump $-1 $-1 $35 $8 #
transform $-1 1 0 0 0 1 0 0 0 1 49.349650563066497 26.627906944492462 8.4717327526364787 1 rotate no_reflect no_shear #
shell $-1 $-1 $-1 $36 $-1 $9 #
shell $-1 $-1 $-1 $37 $-1 $11 #
shell $-1 $-1 $-1 $38 $-1 $13 #
shell $-1 $-1 $-1 $39 $-1 $15 #
shell $-1 $-1 $-1 $40 $-1 $17 #
shell $-1 $-1 $-1 $41 $-1 $19 #
shell $-1 $-1 $-1 $42 $-1 $21 #
shell $-1 $-1 $-1 $43 $-1 $23 #
shell $-1 $-1 $-1 $44 $-1 $25 #
face $-1 $45 $46 $27 $-1 $47 forward single #
face $-1 $48 $49 $28 $-1 $50 reversed single #
face $-1 $51 $52 $29 $-1 $53 reversed single #
face $-1 $54 $55 $30 $-1 $56 forward single #
face $-1 $57 $58 $31 $-1 $59 forward single #
face $-1 $60 $61 $32 $-1 $62 forward single #
face $-1 $63 $64 $33 $-1 $65 reversed single #
face $-1 $66 $67 $34 $-1 $68 forward single #
face $-1 $69 $70 $35 $-1 $71 forward single #
face $-1 $72 $73 $27 $-1 $74 reversed single #
loop $-1 $-1 $75 $36 #
plane-surface $-1 0 0 8.4717327526364787 0 0 1 1 0 0 forward_v I I I I #
face $-1 $76 $77 $28 $-1 $78 reversed single #
loop $-1 $-1 $79 $37 #
plane-surface $-1 -45.440897471332235 0 5.4717327526364787 0 0 1 1 0 0 forward_v I I I I #
face $-1 $80 $81 $29 $-1 $82 reversed single #
loop $-1 $-1 $83 $38 #
plane-surface $-1 -20.17477002134121 -96.418852878907188 72.132966833165611 -1 0 0 0 -0.70710678939079041 0.70710677298230451 forward_v I I I I #
face $-1 $84 $85 $30 $-1 $86 forward single #
loop $-1 $87 $88 $39 #
cone-surface $-1 -37.260669507946616 -23.184832740603916 5.0286584864042698 0 0.70710678939079041 -0.70710677298230451 1 0 0 1 I I 0 1 1 forward I I I I #
face $-1 $89 $90 $31 $-1 $91 forward single #
loop $-1 $92 $93 $40 #
cone-surface $-1 -30.853457200469592 -23.184832740603916 5.0286584864042698 0 0.70710678939079041 -0.70710677298230451 1 0 0 1 I I 0 1 1 forward I I I I #
face $-1 $94 $95 $32 $-1 $96 forward single #
loop $-1 $97 $98 $41 #
cone-surface $-1 -24.446244892992564 -23.184832740603916 5.0286584864042698 0 0.70710678939079041 -0.70710677298230451 1 0 0 1 I I 0 1 1 forward I I I I #
face $-1 $99 $100 $33 $-1 $101 reversed single #
loop $-1 $-1 $102 $42 #
plane-surface $-1 -5.3327479483686737 39.614892542583206 112.4615717404719 1 0 0 0 -0.57357644374324357 -0.81915203911291934 forward_v I I I I #
face $-1 $103 $104 $34 $-1 $105 forward single #
loop $-1 $106 $107 $43 #
cone-surface $-1 -0.47288646887599839 19.988372330372943 2.8392492698583767 0 -0.57357644374324357 -0.81915203911291934 1.5 0 0 1 I I 0 1 1.5 forward I I I I #
face $-1 $108 $109 $35 $-1 $110 forward single #
loop $-1 $111 $112 $44 #
cone-surface $-1 6.8169057503630199 19.988372330372943 2.8392492698583767 0 -0.57357644374324357 -0.81915203911291934 1.5 0 0 1 I I 0 1 1.5 forward I I I I #
face $-1 $113 $114 $27 $-1 $115 reversed single #
loop $-1 $-1 $116 $45 #
plane-surface $-1 0 0 -8.4717327526364787 0 0 1 1 0 0 forward_v I I I I #
coedge $-1 $117 $118 $119 $120 forward $46 $-1 #
face $-1 $121 $122 $28 $-1 $123 reversed single #
loop $-1 $-1 $124 $48 #
plane-surface $-1 -41.532144379597973 0 6.9717327526364787 -1 0 0 0 0 1 forward_v I I I I #
coedge $-1 $125 $126 $124 $127 forward $49 $-1 #
face $-1 $128 $129 $29 $-1 $130 forward single #
loop $-1 $-1 $131 $51 #
plane-surface $-1 -30.853457200469592 -26.627906944492466 2.3420225182569823 0 -0.70710678939079041 0.70710677298230451 1 0 0 forward_v I I I I #
coedge $-1 $132 $133 $134 $135 reversed $52 $-1 #
face $-1 $-1 $136 $30 $-1 $137 forward single #
loop $-1 $138 $139 $54 #
cone-surface $-1 -37.260669507946616 -22.453060188089445 4.2968859508706547 0 0.70710678939079041 -0.70710677298230451 0.5 0 0 1 I I -0.70710678118654746 0.70710678118654746 0.5 forward I I I I #
loop $-1 $-1 $140 $39 #
coedge $-1 $88 $88 $141 $142 reversed $55 $-1 #
face $-1 $-1 $143 $31 $-1 $144 forward single #
loop $-1 $145 $146 $57 #
cone-surface $-1 -30.853457200469592 -22.453060188089445 4.2968859508706547 0 0.70710678939079041 -0.70710677298230451 0.5 0 0 1 I I -0.70710678118654746 0.70710678118654746 0.5 forward I I I I #
loop $-1 $-1 $147 $40 #
coedge $-1 $93 $93 $148 $149 reversed $58 $-1 #
face $-1 $-1 $150 $32 $-1 $151 forward single #
loop $-1 $152 $153 $60 #
cone-surface $-1 -24.446244892992564 -22.453060188089445 4.2968859508706547 0 0.70710678939079041 -0.70710677298230451 0.5 0 0 1 I I -0.70710678118654746 0.70710678118654746 0.5 forward I I I I #
loop $-1 $-1 $154 $41 #
coedge $-1 $98 $98 $155 $156 reversed $61 $-1 #
face $-1 $157 $158 $33 $-1 $159 reversed single #
loop $-1 $-1 $160 $63 #
plane-surface $-1 3.1720096407435179 -16.996701597287675 31.611837963979994 0 0.57357644374324357 0.81915203911291934 1 0 0 forward_v I I I I #
coedge $-1 $161 $162 $163 $164 reversed $64 $-1 #
face $-1 $-1 $165 $34 $-1 $166 forward single #
loop $-1 $167 $168 $66 #
cone-surface $-1 -0.47288646887599839 18.207212405011536 0.29548932162183839 0 -0.57357644374324357 -0.81915203911291934 0.75 0 0 1 I I -0.70710678118654757 0.70710678118654757 0.75 forward I I I I #
loop $-1 $-1 $169 $43 #
coedge $-1 $107 $107 $170 $171 reversed $67 $-1 #
face $-1 $-1 $172 $35 $-1 $173 forward single #
loop $-1 $174 $175 $69 #
cone-surface $-1 6.8169057503630199 18.207212405011536 0.29548932162183839 0 -0.57357644374324357 -0.81915203911291934 0.75 0 0 1 I I -0.70710678118654757 0.70710678118654757 0.75 forward I I I I #
loop $-1 $-1 $176 $44 #
coedge $-1 $112 $112 $177 $178 reversed $70 $-1 #
face $-1 $179 $180 $27 $-1 $181 reversed single #
loop $-1 $-1 $182 $72 #
plane-surface $-1 0 -26.627906944492462 0 0 1 0 0 0 1 forward_v I I I I #
coedge $-1 $183 $184 $185 $186 forward $73 $-1 #
coedge $-1 $187 $75 $188 $189 forward $46 $-1 #
coedge $-1 $75 $187 $190 $191 forward $46 $-1 #
coedge $-1 $192 $193 $75 $120 reversed $194 $-1 #
edge $-1 $195 -26.627906944492462 $196 26.627906944492462 $119 $197 forward 7 unknown #
face $-1 $198 $199 $28 $-1 $200 reversed single #
loop $-1 $-1 $201 $76 #
plane-surface $-1 0 26.627906944492462 0 0 -1 0 0 0 -1 forward_v I I I I #
coedge $-1 $202 $203 $79 $127 reversed $77 $-1 #
coedge $-1 $204 $79 $205 $206 reversed $49 $-1 #
coedge $-1 $79 $204 $207 $208 reversed $49 $-1 #
edge $-1 $209 -26.627906944492462 $210 26.627906944492462 $124 $211 forward 7 unknown #
face $-1 $212 $213 $29 $-1 $214 forward single #
loop $-1 $-1 $215 $80 #
plane-surface $-1 -41.532144379597973 0 6.9717327526364787 -1 0 0 0 0 1 forward_v I I I I #
coedge $-1 $216 $217 $218 $219 reversed $81 $-1 #
coedge $-1 $133 $83 $220 $221 reversed $52 $-1 #
coedge $-1 $83 $132 $216 $222 reversed $52 $-1 #
coedge $-1 $218 $223 $83 $135 forward $213 $-1 #
edge $-1 $224 21.581519494961132 $225 27.711229587100068 $134 $226 forward 7 unknown #
loop $-1 $-1 $141 $84 #
plane-surface $-1 -30.853457200469592 -26.627906944492466 2.3420225182569823 0 -0.70710678939079041 0.70710677298230451 1 0 0 forward_v I I I I #
loop $-1 $-1 $227 $54 #
coedge $-1 $139 $139 $140 $228 reversed $85 $-1 #
coedge $-1 $140 $140 $139 $228 forward $87 $-1 #
coedge $-1 $141 $141 $88 $142 forward $136 $-1 #
edge $-1 $229 -1.256073981520683e-015 $229 6.2831853071795996 $141 $230 forward 7 unknown #
loop $-1 $-1 $148 $89 #
plane-surface $-1 -30.853457200469592 -26.627906944492466 2.3420225182569823 0 -0.70710678939079041 0.70710677298230451 1 0 0 forward_v I I I I #
loop $-1 $-1 $231 $57 #
coedge $-1 $146 $146 $147 $232 reversed $90 $-1 #
coedge $-1 $147 $147 $146 $232 forward $92 $-1 #
coedge $-1 $148 $148 $93 $149 forward $143 $-1 #
edge $-1 $233 -1.256073981520683e-015 $233 6.2831853071795996 $148 $234 forward 7 unknown #
loop $-1 $-1 $155 $94 #
plane-surface $-1 -30.853457200469592 -26.627906944492466 2.3420225182569823 0 -0.70710678939079041 0.70710677298230451 1 0 0 forward_v I I I I #
loop $-1 $-1 $235 $60 #
coedge $-1 $153 $153 $154 $236 reversed $95 $-1 #
coedge $-1 $154 $154 $153 $236 forward $97 $-1 #
coedge $-1 $155 $155 $98 $156 forward $150 $-1 #
edge $-1 $237 -1.256073981520683e-015 $237 6.2831853071795996 $155 $238 forward 7 unknown #
face $-1 $239 $240 $33 $-1 $241 forward single #
loop $-1 $-1 $242 $99 #
plane-surface $-1 11.676767229855709 39.614892542583206 112.4615717404719 -1 0 0 0 0.57357644374324357 0.81915203911291934 forward_v I I I I #
coedge $-1 $243 $244 $245 $246 reversed $100 $-1 #
coedge $-1 $162 $102 $247 $248 reversed $64 $-1 #
coedge $-1 $102 $161 $243 $249 reversed $64 $-1 #
coedge $-1 $245 $250 $102 $164 forward $240 $-1 #
edge $-1 $251 -6.8204606732008592 $252 3.7566533699302198 $163 $253 forward 7 unknown #
loop $-1 $-1 $170 $103 #
plane-surface $-1 3.1720096407435179 -16.996701597287675 31.611837963979994 0 0.57357644374324357 0.81915203911291934 1 0 0 forward_v I I I I #
loop $-1 $-1 $254 $66 #
coedge $-1 $168 $168 $169 $255 reversed $104 $-1 #
coedge $-1 $169 $169 $168 $255 forward $106 $-1 #
coedge $-1 $170 $170 $107 $171 forward $165 $-1 #
edge $-1 $256 -1.600516289995133e-015 $256 6.2831853071795987 $170 $257 forward 7 unknown #
loop $-1 $-1 $177 $108 #
plane-surface $-1 3.1720096407435179 -16.996701597287675 31.611837963979994 0 0.57357644374324357 0.81915203911291934 1 0 0 forward_v I I I I #
loop $-1 $-1 $258 $69 #
coedge $-1 $175 $175 $176 $259 reversed $109 $-1 #
coedge $-1 $176 $176 $175 $259 forward $111 $-1 #
coedge $-1 $177 $177 $112 $178 forward $172 $-1 #
edge $-1 $260 -1.600516289995133e-015 $260 6.2831853071795987 $177 $261 forward 7 unknown #
face $-1 $262 $263 $27 $-1 $264 reversed single #
loop $-1 $-1 $265 $113 #
plane-surface $-1 -49.349650563066497 0 0 1 0 0 0 0 -1 forward_v I I I I #
coedge $-1 $266 $190 $267 $268 forward $114 $-1 #
coedge $-1 $269 $116 $266 $270 forward $73 $-1 #
coedge $-1 $116 $269 $271 $272 forward $73 $-1 #
coedge $-1 $193 $192 $116 $186 reversed $194 $-1 #
edge $-1 $273 -26.627906944492462 $274 26.627906944492462 $185 $275 forward 7 unknown #
coedge $-1 $118 $117 $276 $277 forward $46 $-1 #
coedge $-1 $278 $279 $117 $189 reversed $263 $-1 #
edge $-1 $196 -49.349650563066497 $280 49.349650563066497 $188 $281 forward 7 unknown #
coedge $-1 $182 $282 $118 $191 reversed $114 $-1 #
edge $-1 $283 -49.349650563066497 $195 49.349650563066497 $190 $284 forward 7 unknown #
coedge $-1 $185 $119 $282 $285 forward $194 $-1 #
coedge $-1 $119 $185 $278 $286 reversed $194 $-1 #
loop $-1 $-1 $192 $262 #
vertex $-1 $120 $287 #
vertex $-1 $120 $288 #
straight-curve $-1 49.349650563066497 0 8.4717327526364787 0 1 0 I I #
face $-1 $289 $290 $28 $-1 $291 forward single #
loop $-1 $-1 $292 $121 #
plane-surface $-1 -49.349650563066497 0 0 1 0 0 0 0 -1 forward_v I I I I #
coedge $-1 $207 $293 $202 $294 forward $122 $-1 #
coedge $-1 $295 $124 $201 $294 reversed $77 $-1 #
coedge $-1 $124 $295 $296 $297 reversed $77 $-1 #
coedge $-1 $126 $125 $292 $298 reversed $49 $-1 #
coedge $-1 $296 $299 $125 $206 forward $300 $-1 #
edge $-1 $301 -26.629201827400379 $210 -18.811695643931856 $205 $302 forward 7 unknown #
coedge $-1 $303 $201 $126 $208 forward $122 $-1 #
edge $-1 $209 18.811695643931856 $304 26.629201827400379 $207 $305 forward 7 unknown #
vertex $-1 $208 $306 #
vertex $-1 $206 $307 #
straight-curve $-1 -41.532144379597973 0 5.4717327526364787 0 -1 0 I I #
face $-1 $-1 $308 $29 $-1 $309 reversed single #
loop $-1 $-1 $218 $128 #
plane-surface $-1 0 0 8.4717327526364787 0 0 1 1 0 0 forward_v I I I I #
coedge $-1 $310 $311 $217 $312 reversed $129 $-1 #
coedge $-1 $313 $131 $133 $222 forward $81 $-1 #
coedge $-1 $131 $313 $215 $312 forward $81 $-1 #
coedge $-1 $314 $134 $131 $219 forward $213 $-1 #
edge $-1 $225 4.7480414211064144 $315 26.105415779363177 $218 $316 forward 7 unknown #
coedge $-1 $317 $318 $132 $221 forward $308 $-1 #
edge $-1 $319 -33.724460898325816 $224 -27.594750663946328 $220 $320 forward 7 unknown #
edge $-1 $225 -8.6687192462973872 $319 -5.0242958677880813e-015 $133 $321 forward 7 unknown #
coedge $-1 $134 $314 $317 $322 forward $213 $-1 #
vertex $-1 $221 $323 #
vertex $-1 $135 $324 #
straight-curve $-1 -20.17477002134121 -48.209426439453594 8.471732752636477 0 1 0 I I #
coedge $-1 $227 $227 $-1 $325 reversed $138 $-1 #
edge $-1 $326 0 $326 6.2831853071796004 $139 $327 forward 7 unknown #
vertex $-1 $142 $328 #
ellipse-curve $-1 -37.260669507946616 -23.563051898422994 5.4068776354467332 0 -0.70710678939079041 0.70710677298230451 1 0 0 1 I I #
coedge $-1 $231 $231 $-1 $329 reversed $145 $-1 #
edge $-1 $330 0 $330 6.2831853071796004 $146 $331 forward 7 unknown #
vertex $-1 $149 $332 #
ellipse-curve $-1 -30.853457200469592 -23.563051898422994 5.4068776354467332 0 -0.70710678939079041 0.70710677298230451 1 0 0 1 I I #
coedge $-1 $235 $235 $-1 $333 reversed $152 $-1 #
edge $-1 $334 0 $334 6.2831853071796004 $153 $335 forward 7 unknown #
vertex $-1 $156 $336 #
ellipse-curve $-1 -24.446244892992564 -23.563051898422994 5.4068776354467332 0 -0.70710678939079041 0.70710677298230451 1 0 0 1 I I #
face $-1 $-1 $337 $33 $-1 $338 reversed single #
loop $-1 $-1 $163 $157 #
plane-surface $-1 0 0 8.4717327526364787 0 0 1 1 0 0 forward_v I I I I #
coedge $-1 $339 $340 $341 $342 reversed $158 $-1 #
coedge $-1 $343 $160 $162 $249 forward $100 $-1 #
coedge $-1 $160 $343 $339 $344 forward $100 $-1 #
coedge $-1 $341 $163 $160 $246 forward $240 $-1 #
edge $-1 $252 -6.9187527687404327 $345 10.090762409483951 $245 $346 forward 7 unknown #
coedge $-1 $347 $348 $161 $248 forward $337 $-1 #
edge $-1 $349 -55.165228245351969 $251 -47.759053117599471 $247 $350 forward 7 unknown #
edge $-1 $252 40.34354176110827 $349 53.255813888984932 $162 $351 forward 7 unknown #
coedge $-1 $163 $341 $347 $352 forward $240 $-1 #
vertex $-1 $248 $353 #
vertex $-1 $164 $354 #
straight-curve $-1 -5.3327479483686737 19.807446271291603 8.471732752636477 0 -1 0 I I #
coedge $-1 $254 $254 $-1 $355 reversed $167 $-1 #
edge $-1 $356 0 $356 6.2831853071796004 $168 $357 forward 7 unknown #
vertex $-1 $171 $358 #
ellipse-curve $-1 -0.47288646887599839 21.339349922926917 4.7686451887602264 0 0.57357644374324357 0.81915203911291934 1.5 0 0 1 I I #
coedge $-1 $258 $258 $-1 $359 reversed $174 $-1 #
edge $-1 $360 0 $360 6.2831853071796004 $175 $361 forward 7 unknown #
vertex $-1 $178 $362 #
ellipse-curve $-1 6.8169057503630199 21.339349922926917 4.7686451887602264 0 0.57357644374324357 0.81915203911291934 1.5 0 0 1 I I #
face $-1 $-1 $194 $27 $-1 $363 reversed single #
loop $-1 $-1 $278 $179 #
plane-surface $-1 0 26.627906944492462 0 0 -1 0 0 0 -1 forward_v I I I I #
coedge $-1 $364 $276 $279 $365 forward $180 $-1 #
coedge $-1 $282 $182 $183 $270 reversed $114 $-1 #
coedge $-1 $276 $364 $182 $268 reversed $180 $-1 #
edge $-1 $283 -8.4717327526364787 $366 8.4717327526364787 $267 $367 forward 7 unknown #
coedge $-1 $184 $183 $364 $368 forward $73 $-1 #
edge $-1 $274 -49.349650563066497 $366 49.349650563066497 $266 $369 forward 7 unknown #
coedge $-1 $279 $278 $184 $272 reversed $263 $-1 #
edge $-1 $370 -49.349650563066497 $273 49.349650563066497 $271 $371 forward 7 unknown #
vertex $-1 $186 $372 #
vertex $-1 $285 $373 #
straight-curve $-1 49.349650563066497 0 -8.4717327526364787 0 -1 0 I I #
coedge $-1 $265 $267 $187 $277 reversed $180 $-1 #
edge $-1 $280 -26.627906944492462 $283 26.627906944492462 $276 $374 forward 7 unknown #
coedge $-1 $271 $188 $193 $286 forward $263 $-1 #
coedge $-1 $188 $271 $265 $365 reversed $263 $-1 #
vertex $-1 $189 $375 #
straight-curve $-1 0 26.627906944492462 8.4717327526364787 -1 0 0 I I #
coedge $-1 $190 $266 $192 $285 reversed $114 $-1 #
vertex $-1 $277 $376 #
straight-curve $-1 0 -26.627906944492462 8.4717327526364787 1 0 0 I I #
edge $-1 $195 -8.4717327526364787 $274 8.4717327526364787 $192 $377 forward 7 unknown #
edge $-1 $196 -8.4717327526364787 $273 8.4717327526364787 $193 $378 forward 7 unknown #
point $-1 49.349650563066497 -26.627906944492462 8.4717327526364787 #
point $-1 49.349650563066497 26.627906944492462 8.4717327526364787 #
face $-1 $-1 $300 $28 $-1 $379 reversed single #
loop $-1 $-1 $380 $198 #
plane-surface $-1 0 0 8.4717327526364787 0 0 1 1 0 0 forward_v I I I I #
coedge $-1 $381 $382 $204 $298 forward $199 $-1 #
coedge $-1 $201 $303 $383 $384 reversed $122 $-1 #
edge $-1 $385 -4.9858663763182394 $209 -1.9858663763182394 $201 $386 forward 7 unknown #
coedge $-1 $203 $202 $380 $387 reversed $77 $-1 #
coedge $-1 $388 $205 $203 $297 forward $300 $-1 #
edge $-1 $210 1.9858663763182394 $389 4.9858663763182394 $296 $390 forward 7 unknown #
edge $-1 $304 -26.627906944492462 $301 26.627906944492462 $292 $391 forward 7 unknown #
coedge $-1 $205 $388 $381 $392 forward $300 $-1 #
loop $-1 $-1 $296 $289 #
vertex $-1 $298 $393 #
straight-curve $-1 -22.720448735666118 -26.627906944492462 5.4717327526364787 1 0 0 I I #
coedge $-1 $293 $207 $382 $394 reversed $122 $-1 #
vertex $-1 $298 $395 #
straight-curve $-1 -22.720448735666118 26.627906944492462 5.4717327526364787 -1 0 0 I I #
point $-1 -41.532144379597973 26.627906944492462 5.4717327526364787 #
point $-1 -41.532144379597973 -26.627906944492462 5.4717327526364787 #
loop $-1 $-1 $220 $212 #
plane-surface $-1 0 -26.627906944492462 0 0 1 0 0 0 1 forward_v I I I I #
coedge $-1 $311 $215 $396 $397 reversed $129 $-1 #
coedge $-1 $215 $310 $314 $398 reversed $129 $-1 #
edge $-1 $399 5.0242958677880813e-015 $315 8.6687192462973872 $215 $400 forward 7 unknown #
coedge $-1 $217 $216 $318 $401 reversed $81 $-1 #
coedge $-1 $223 $218 $311 $398 forward $213 $-1 #
vertex $-1 $398 $402 #
straight-curve $-1 -15.426728600234796 -20.498196852353527 8.4717327526364787 -1 0 0 I I #
coedge $-1 $396 $220 $223 $322 reversed $308 $-1 #
coedge $-1 $220 $396 $313 $401 forward $308 $-1 #
vertex $-1 $221 $403 #
straight-curve $-1 -20.17477002134121 -26.627906944492459 36.066483416582805 0 0 1 I I #
straight-curve $-1 -20.17477002134121 -26.627906944492466 2.3420225182569823 0 -0.70710677298230451 -0.70710678939079041 I I #
edge $-1 $404 -41.532144379597973 $224 -20.17477002134121 $317 $405 forward 7 unknown #
point $-1 -20.17477002134121 -26.627906944492462 8.4717327526364787 #
point $-1 -20.17477002134121 -20.498196852353527 8.4717327526364787 #
edge $-1 $406 1 $406 0 $227 $-1 forward 7 unknown #
vertex $-1 $228 $407 #
ellipse-curve $-1 -37.260669507946616 -22.806613582784841 4.6504393373618074 0 -0.70710678939079041 0.70710677298230451 1 0 0 1 I I #
point $-1 -36.260669507946616 -23.563051898422994 5.4068776354467314 #
edge $-1 $408 1 $408 0 $231 $-1 forward 7 unknown #
vertex $-1 $232 $409 #
ellipse-curve $-1 -30.853457200469592 -22.806613582784841 4.6504393373618074 0 -0.70710678939079041 0.70710677298230451 1 0 0 1 I I #
point $-1 -29.853457200469592 -23.563051898422994 5.4068776354467314 #
edge $-1 $410 1 $410 0 $235 $-1 forward 7 unknown #
vertex $-1 $236 $411 #
ellipse-curve $-1 -24.446244892992564 -22.806613582784841 4.6504393373618074 0 -0.70710678939079041 0.70710677298230451 1 0 0 1 I I #
point $-1 -23.446244892992564 -23.563051898422994 5.4068776354467314 #
loop $-1 $-1 $247 $239 #
plane-surface $-1 0 26.627906944492462 0 0 -1 0 0 0 -1 forward_v I I I I #
coedge $-1 $340 $242 $244 $344 reversed $158 $-1 #
coedge $-1 $242 $339 $412 $413 reversed $158 $-1 #
coedge $-1 $250 $245 $242 $342 forward $240 $-1 #
edge $-1 $345 -3.7566533699302198 $414 6.8204606732008592 $341 $415 forward 7 unknown #
coedge $-1 $244 $243 $348 $416 reversed $100 $-1 #
edge $-1 $417 -53.255813888984932 $345 -40.34354176110827 $339 $418 forward 7 unknown #
vertex $-1 $246 $419 #
straight-curve $-1 1.5860048203717589 16.050792901361376 8.4717327526364805 1 0 0 I I #
coedge $-1 $412 $247 $250 $352 reversed $337 $-1 #
coedge $-1 $247 $412 $343 $416 forward $337 $-1 #
vertex $-1 $248 $420 #
straight-curve $-1 -5.3327479483686737 26.627906944492462 56.230785870235948 0 0 1 I I #
straight-curve $-1 -5.3327479483686737 -16.996701597287675 31.611837963979994 0 0.81915203911291934 -0.57357644374324357 I I #
edge $-1 $414 -11.676767229855709 $251 5.3327479483686737 $347 $421 forward 7 unknown #
point $-1 -5.3327479483686737 26.627906944492462 8.4717327526364787 #
point $-1 -5.3327479483686737 16.050792901361383 8.4717327526364805 #
edge $-1 $422 1 $422 0 $254 $-1 forward 7 unknown #
vertex $-1 $255 $423 #
ellipse-curve $-1 -0.47288646887599839 18.637394737818969 0.90985335095652786 0 0.57357644374324357 0.81915203911291934 1.5 0 0 1 I I #
point $-1 1.0271135311240016 21.339349922926914 4.7686451887602255 #
edge $-1 $424 1 $424 0 $258 $-1 forward 7 unknown #
vertex $-1 $259 $425 #
ellipse-curve $-1 6.8169057503630199 18.637394737818969 0.90985335095652786 0 0.57357644374324357 0.81915203911291934 1.5 0 0 1 I I #
point $-1 8.3169057503630199 21.339349922926914 4.7686451887602255 #
plane-surface $-1 49.349650563066497 0 0 -1 0 0 0 0 1 forward_v I I I I #
coedge $-1 $267 $265 $269 $368 reversed $180 $-1 #
edge $-1 $280 -8.4717327526364787 $370 8.4717327526364787 $279 $426 forward 7 unknown #
vertex $-1 $368 $427 #
straight-curve $-1 -49.349650563066497 -26.627906944492462 0 0 0 -1 I I #
edge $-1 $366 -26.627906944492462 $370 26.627906944492462 $364 $428 forward 7 unknown #
straight-curve $-1 0 -26.627906944492462 -8.4717327526364787 -1 0 0 I I #
vertex $-1 $272 $429 #
straight-curve $-1 0 26.627906944492462 -8.4717327526364787 1 0 0 I I #
point $-1 49.349650563066497 26.627906944492462 -8.4717327526364787 #
point $-1 49.349650563066497 -26.627906944492462 -8.4717327526364787 #
straight-curve $-1 -49.349650563066497 0 8.4717327526364787 0 -1 0 I I #
point $-1 -49.349650563066497 26.627906944492462 8.4717327526364787 #
point $-1 -49.349650563066497 -26.627906944492462 8.4717327526364787 #
straight-curve $-1 49.349650563066497 -26.627906944492462 0 0 0 -1 I I #
straight-curve $-1 49.349650563066497 26.627906944492462 0 0 0 -1 I I #
plane-surface $-1 0 -26.627906944492462 0 0 1 0 0 0 1 forward_v I I I I #
coedge $-1 $383 $430 $295 $387 forward $290 $-1 #
coedge $-1 $431 $292 $299 $392 reversed $199 $-1 #
coedge $-1 $292 $431 $303 $394 forward $199 $-1 #
coedge $-1 $432 $380 $293 $384 forward $290 $-1 #
edge $-1 $385 41.532144379597973 $433 49.349650563066497 $293 $434 forward 7 unknown #
vertex $-1 $384 $435 #
straight-curve $-1 -41.532144379597973 26.627906944492462 3.4858663763182394 0 0 -1 I I #
edge $-1 $389 -26.627906944492462 $385 26.627906944492462 $380 $436 forward 7 unknown #
coedge $-1 $299 $296 $430 $437 reversed $300 $-1 #
vertex $-1 $297 $438 #
straight-curve $-1 -41.532144379597973 -26.627906944492462 3.4858663763182394 0 0 1 I I #
straight-curve $-1 -49.349650563066497 0 5.4717327526364787 0 -1 0 I I #
edge $-1 $439 -8.4717327526364787 $301 -5.4717327526364787 $381 $440 forward 7 unknown #
point $-1 -49.349650563066497 -26.627906944492462 5.4717327526364787 #
edge $-1 $433 -8.4717327526364787 $304 -5.4717327526364787 $303 $441 forward 7 unknown #
point $-1 -49.349650563066497 26.627906944492462 5.4717327526364787 #
coedge $-1 $318 $317 $310 $397 forward $308 $-1 #
edge $-1 $404 27.594750663946328 $399 33.724460898325816 $396 $442 forward 7 unknown #
edge $-1 $315 20.498196852353527 $404 26.627906944492462 $314 $443 forward 7 unknown #
vertex $-1 $397 $444 #
straight-curve $-1 -41.532144379597973 -26.627906944492466 2.3420225182569823 0 0.70710677298230451 0.70710678939079041 I I #
edge $-1 $399 -26.105415779363177 $319 -4.7480414211064144 $318 $445 forward 7 unknown #
point $-1 -41.532144379597973 -20.498196852353527 8.4717327526364787 #
point $-1 -20.17477002134121 -26.627906944492462 2.3420225182569858 #
vertex $-1 $322 $446 #
straight-curve $-1 0 -26.627906944492462 8.4717327526364787 1 0 0 I I #
vertex $-1 $325 $447 #
point $-1 -36.260669507946616 -22.806613582784841 4.6504393373618074 #
vertex $-1 $329 $448 #
point $-1 -29.853457200469592 -22.806613582784841 4.6504393373618074 #
vertex $-1 $333 $449 #
point $-1 -23.446244892992564 -22.806613582784841 4.6504393373618074 #
coedge $-1 $348 $347 $340 $413 forward $337 $-1 #
edge $-1 $414 47.759053117599471 $417 55.165228245351969 $412 $450 forward 7 unknown #
vertex $-1 $352 $451 #
straight-curve $-1 11.676767229855709 19.807446271291603 8.471732752636477 0 1 0 I I #
edge $-1 $417 -10.090762409483951 $349 6.9187527687404327 $348 $452 forward 7 unknown #
vertex $-1 $416 $453 #
straight-curve $-1 11.676767229855709 -16.996701597287675 31.611837963979994 0 -0.81915203911291934 0.57357644374324357 I I #
point $-1 11.676767229855709 16.050792901361383 8.4717327526364805 #
point $-1 -5.3327479483686737 26.627906944492459 1.0655576248839829 #
straight-curve $-1 0 26.627906944492462 8.4717327526364787 -1 0 0 I I #
vertex $-1 $355 $454 #
point $-1 1.0271135311240016 18.637394737818969 0.90985335095652786 #
vertex $-1 $359 $455 #
point $-1 8.3169057503630199 18.637394737818969 0.90985335095652786 #
straight-curve $-1 -49.349650563066497 26.627906944492462 0 0 0 -1 I I #
point $-1 -49.349650563066497 -26.627906944492462 -8.4717327526364787 #
straight-curve $-1 -49.349650563066497 0 -8.4717327526364787 0 1 0 I I #
point $-1 -49.349650563066497 26.627906944492462 -8.4717327526364787 #
coedge $-1 $380 $432 $388 $437 forward $290 $-1 #
coedge $-1 $382 $381 $432 $456 reversed $199 $-1 #
coedge $-1 $430 $383 $431 $456 forward $290 $-1 #
vertex $-1 $384 $457 #
straight-curve $-1 0 26.627906944492462 8.4717327526364787 -1 0 0 I I #
point $-1 -41.532144379597973 26.627906944492462 8.4717327526364787 #
straight-curve $-1 -41.532144379597973 0 8.4717327526364787 0 1 0 I I #
edge $-1 $439 -49.349650563066497 $389 -41.532144379597973 $388 $458 forward 7 unknown #
point $-1 -41.532144379597973 -26.627906944492462 8.4717327526364787 #
vertex $-1 $456 $459 #
straight-curve $-1 -49.349650563066497 -26.627906944492462 0 0 0 -1 I I #
straight-curve $-1 -49.349650563066497 26.627906944492462 0 0 0 -1 I I #
straight-curve $-1 -41.532144379597973 -26.627906944492459 36.066483416582805 0 0 -1 I I #
straight-curve $-1 -41.532144379597973 0 8.4717327526364787 0 -1 0 I I #
point $-1 -41.532144379597973 -26.627906944492462 2.3420225182569858 #
straight-curve $-1 -15.426728600234796 -26.627906944492462 2.3420225182569867 1 0 0 I I #
point $-1 -41.532144379597973 -26.627906944492462 8.4717327526364787 #
point $-1 -37.260669507946616 -22.099506793394049 3.9433325643795025 #
point $-1 -30.853457200469592 -22.099506793394049 3.9433325643795025 #
point $-1 -24.446244892992564 -22.099506793394049 3.9433325643795025 #
straight-curve $-1 11.676767229855709 26.627906944492462 56.230785870235948 0 0 -1 I I #
point $-1 11.676767229855709 26.627906944492462 8.4717327526364787 #
straight-curve $-1 1.5860048203717589 26.627906944492466 1.0655576248839758 -1 0 0 I I #
point $-1 11.676767229855709 26.627906944492459 1.0655576248839829 #
point $-1 -0.47288646887599839 17.777030072204102 -0.31887470771285109 #
point $-1 6.8169057503630199 17.777030072204102 -0.31887470771285109 #
edge $-1 $433 -26.627906944492462 $439 26.627906944492462 $431 $460 forward 7 unknown #
point $-1 -49.349650563066497 26.627906944492462 8.4717327526364787 #
straight-curve $-1 0 -26.627906944492462 8.4717327526364787 1 0 0 I I #
point $-1 -49.349650563066497 -26.627906944492462 8.4717327526364787 #
straight-curve $-1 -49.349650563066497 0 8.4717327526364787 0 -1 0 I I #
End-of-ACIS-data 