500 0 5 0           
7 Unknown 11 ACIS 5.0 NT 24 Thu Mar 25 15:40:16 1999 
-1 9.9999999999999995e-007 1e-010 
body $-1 $5 $-1 $6 #
body $-1 $7 $-1 $8 #
body $-1 $9 $-1 $10 #
body $-1 $11 $-1 $12 #
body $-1 $13 $-1 $14 #
lump $-1 $-1 $15 $0 #
transform $-1 1 0 0 0 1 0 0 0 1 65.930967131565296 37.706227352479047 16.685813996816353 1 rotate no_reflect no_shear #
lump $-1 $-1 $16 $1 #
transform $-1 1 0 0 0 1 0 0 0 1 65.930967131565296 37.706227352479047 16.685813996816353 1 rotate no_reflect no_shear #
lump $-1 $-1 $17 $2 #
transform $-1 1 0 0 0 1 0 0 0 1 65.930967131565296 37.706227352479047 16.685813996816353 1 rotate no_reflect no_shear #
lump $-1 $-1 $18 $3 #
transform $-1 1 0 0 0 1 0 0 0 1 65.930967131565296 37.706227352479047 16.685813996816353 1 rotate no_reflect no_shear #
lump $-1 $-1 $19 $4 #
transform $-1 1 0 0 0 1 0 0 0 1 65.930967131565296 37.706227352479047 16.685813996816353 1 rotate no_reflect no_shear #
shell $-1 $-1 $-1 $20 $-1 $5 #
shell $-1 $-1 $-1 $21 $-1 $7 #
shell $-1 $-1 $-1 $22 $-1 $9 #
shell $-1 $-1 $-1 $23 $-1 $11 #
shell $-1 $-1 $-1 $24 $-1 $13 #
face $-1 $25 $26 $15 $-1 $27 forward single #
face $-1 $28 $29 $16 $-1 $30 reversed single #
face $-1 $31 $32 $17 $-1 $33 reversed single #
face $-1 $34 $35 $18 $-1 $36 reversed single #
face $-1 $37 $38 $19 $-1 $39 forward single #
face $-1 $40 $41 $15 $-1 $42 reversed single #
loop $-1 $-1 $43 $20 #
plane-surface $-1 0 0 16.685813996816353 0 0 1 1 0 0 forward_v I I I I #
face $-1 $44 $45 $16 $-1 $46 reversed single #
loop $-1 $-1 $47 $21 #
plane-surface $-1 0 -30.347888789700757 9.9447797694822828 0 0 1 1 0 0 forward_v I I I I #
face $-1 $48 $49 $17 $-1 $50 reversed single #
loop $-1 $-1 $51 $22 #
plane-surface $-1 0 28.910939099139028 12.59336693828752 0 0 1 1 0 0 forward_v I I I I #
face $-1 $52 $53 $18 $-1 $54 reversed single #
loop $-1 $-1 $55 $23 #
plane-surface $-1 39.977838788639033 -16.852894812392808 187.60735307118159 0 -1 0 -0.6018150307709319 0 -0.79863550430605224 forward_v I I I I #
face $-1 $56 $57 $19 $-1 $58 forward single #
loop $-1 $59 $60 $24 #
cone-surface $-1 55.878812075937802 -19.92122251965764 8.5762947242667114 -0.6018150307709319 0 -0.79863550430605224 0.79863550430605224 0 -0.6018150307709319 1 I I 0 1 1 forward I I I I #
face $-1 $61 $62 $15 $-1 $63 reversed single #
loop $-1 $-1 $64 $25 #
plane-surface $-1 0 0 -16.685813996816353 0 0 1 1 0 0 forward_v I I I I #
coedge $-1 $65 $66 $67 $68 forward $26 $-1 #
face $-1 $69 $70 $16 $-1 $71 reversed single #
loop $-1 $-1 $72 $28 #
plane-surface $-1 0 -22.989550226922468 13.315296883149319 0 -1 0 0 0 -1 forward_v I I I I #
coedge $-1 $73 $74 $75 $76 reversed $29 $-1 #
face $-1 $77 $78 $17 $-1 $79 forward single #
loop $-1 $-1 $80 $31 #
plane-surface $-1 0 20.115650845799006 14.639590467551937 0 1 0 0 0 1 forward_v I I I I #
coedge $-1 $81 $82 $83 $84 reversed $32 $-1 #
face $-1 $85 $86 $18 $-1 $87 forward single #
loop $-1 $-1 $88 $34 #
plane-surface $-1 -39.378655237441507 -19.92122251965764 82.297730702174789 0.6018150307709319 0 0.79863550430605224 0.79863550430605224 0 -0.6018150307709319 forward_v I I I I #
coedge $-1 $89 $90 $91 $92 reversed $35 $-1 #
face $-1 $-1 $93 $19 $-1 $94 forward single #
loop $-1 $95 $96 $37 #
cone-surface $-1 54.645584403321152 -19.92122251965764 6.9397463599250848 -0.6018150307709319 0 -0.79863550430605224 0.39931775215302612 0 -0.30090751538546595 1 I I -0.70710678118654746 0.70710678118654746 0.5 forward I I I I #
loop $-1 $-1 $97 $24 #
coedge $-1 $60 $60 $98 $99 reversed $38 $-1 #
face $-1 $100 $101 $15 $-1 $102 reversed single #
loop $-1 $-1 $103 $40 #
plane-surface $-1 0 -37.706227352479047 0 0 1 0 0 0 1 forward_v I I I I #
coedge $-1 $104 $105 $106 $107 forward $41 $-1 #
coedge $-1 $108 $43 $109 $110 forward $26 $-1 #
coedge $-1 $43 $108 $111 $112 forward $26 $-1 #
coedge $-1 $113 $114 $43 $68 reversed $115 $-1 #
edge $-1 $116 -37.706227352479047 $117 37.706227352479047 $67 $118 forward 7 unknown #
face $-1 $119 $120 $16 $-1 $121 reversed single #
loop $-1 $-1 $122 $44 #
plane-surface $-1 -65.930967131565296 0 0 1 0 0 0 0 -1 forward_v I I I I #
coedge $-1 $123 $124 $125 $126 reversed $45 $-1 #
coedge $-1 $127 $47 $128 $129 reversed $29 $-1 #
coedge $-1 $47 $127 $123 $130 forward $29 $-1 #
coedge $-1 $125 $131 $47 $76 forward $132 $-1 #
edge $-1 $133 -22.532282957628667 $134 -7.8156058320720891 $75 $135 forward 7 unknown #
face $-1 $136 $137 $17 $-1 $138 reversed single #
loop $-1 $-1 $139 $48 #
plane-surface $-1 0 0 16.685813996816353 0 0 1 1 0 0 forward_v I I I I #
coedge $-1 $140 $141 $142 $143 reversed $49 $-1 #
coedge $-1 $144 $51 $140 $145 forward $32 $-1 #
coedge $-1 $51 $144 $146 $147 reversed $32 $-1 #
coedge $-1 $148 $149 $51 $84 forward $137 $-1 #
edge $-1 $150 5.6601812962294922 $151 23.250757802909533 $83 $152 forward 7 unknown #
face $-1 $153 $154 $18 $-1 $155 forward single #
loop $-1 $-1 $91 $52 #
plane-surface $-1 0 0 16.685813996816353 0 0 1 1 0 0 forward_v I I I I #
coedge $-1 $156 $157 $158 $159 reversed $53 $-1 #
coedge $-1 $90 $55 $160 $161 reversed $35 $-1 #
coedge $-1 $55 $89 $156 $162 reversed $35 $-1 #
coedge $-1 $158 $163 $55 $92 forward $86 $-1 #
edge $-1 $164 -45.94204773724578 $165 -27.702377940453111 $91 $166 forward 7 unknown #
loop $-1 $-1 $98 $56 #
plane-surface $-1 -39.378655237441507 -19.92122251965764 82.297730702174789 0.6018150307709319 0 0.79863550430605224 0.79863550430605224 0 -0.6018150307709319 forward_v I I I I #
loop $-1 $-1 $167 $37 #
coedge $-1 $96 $96 $97 $168 reversed $57 $-1 #
coedge $-1 $97 $97 $96 $168 forward $59 $-1 #
coedge $-1 $98 $98 $60 $99 forward $93 $-1 #
edge $-1 $169 0 $169 6.2831853071796004 $98 $170 forward 7 unknown #
face $-1 $171 $172 $15 $-1 $173 reversed single #
loop $-1 $-1 $174 $61 #
plane-surface $-1 -65.930967131565296 0 0 1 0 0 0 0 -1 forward_v I I I I #
coedge $-1 $175 $111 $176 $177 forward $62 $-1 #
coedge $-1 $178 $64 $175 $179 forward $41 $-1 #
coedge $-1 $64 $178 $180 $181 forward $41 $-1 #
coedge $-1 $114 $113 $64 $107 reversed $115 $-1 #
edge $-1 $182 -37.706227352479047 $183 37.706227352479047 $106 $184 forward 7 unknown #
coedge $-1 $66 $65 $185 $186 forward $26 $-1 #
coedge $-1 $187 $188 $65 $110 reversed $172 $-1 #
edge $-1 $117 -65.930967131565296 $189 65.930967131565296 $109 $190 forward 7 unknown #
coedge $-1 $103 $191 $66 $112 reversed $62 $-1 #
edge $-1 $192 -65.930967131565296 $116 65.930967131565296 $111 $193 forward 7 unknown #
coedge $-1 $106 $67 $191 $194 forward $115 $-1 #
coedge $-1 $67 $106 $187 $195 reversed $115 $-1 #
loop $-1 $-1 $113 $171 #
vertex $-1 $68 $196 #
vertex $-1 $68 $197 #
straight-curve $-1 65.930967131565296 0 16.685813996816353 0 1 0 I I #
face $-1 $198 $199 $16 $-1 $200 forward single #
loop $-1 $-1 $128 $69 #
plane-surface $-1 0 -37.706227352479047 0 0 1 0 0 0 1 forward_v I I I I #
coedge $-1 $201 $202 $203 $204 forward $70 $-1 #
coedge $-1 $203 $72 $74 $130 reversed $45 $-1 #
coedge $-1 $72 $203 $205 $206 reversed $45 $-1 #
coedge $-1 $207 $75 $72 $126 forward $132 $-1 #
edge $-1 $134 3.2871313279076233 $208 10.028165555241698 $125 $209 forward 7 unknown #
coedge $-1 $74 $73 $201 $210 reversed $29 $-1 #
coedge $-1 $211 $212 $73 $129 forward $120 $-1 #
edge $-1 $213 -65.930967131565296 $133 65.930967131565296 $128 $214 forward 7 unknown #
edge $-1 $215 -65.930967131565296 $134 65.930967131565296 $123 $216 forward 7 unknown #
coedge $-1 $75 $207 $211 $217 forward $132 $-1 #
loop $-1 $-1 $125 $198 #
vertex $-1 $129 $218 #
vertex $-1 $76 $219 #
straight-curve $-1 65.930967131565296 -15.173944394850379 9.9447797694822828 0 1 0 I I #
face $-1 $220 $221 $17 $-1 $222 reversed single #
loop $-1 $-1 $149 $77 #
plane-surface $-1 65.930967131565296 0 0 -1 0 0 0 0 1 forward_v I I I I #
coedge $-1 $223 $224 $141 $225 forward $78 $-1 #
coedge $-1 $226 $80 $81 $145 reversed $49 $-1 #
coedge $-1 $80 $226 $139 $225 reversed $49 $-1 #
coedge $-1 $227 $228 $80 $143 forward $221 $-1 #
edge $-1 $229 5.2735717045115518 $230 9.3660187630403851 $142 $231 forward 7 unknown #
coedge $-1 $82 $81 $228 $232 reversed $32 $-1 #
edge $-1 $150 -65.930967131565296 $229 65.930967131565296 $140 $233 forward 7 unknown #
coedge $-1 $234 $235 $82 $147 forward $236 $-1 #
edge $-1 $151 -65.930967131565296 $237 65.930967131565296 $146 $238 forward 7 unknown #
coedge $-1 $239 $83 $235 $240 reversed $137 $-1 #
coedge $-1 $83 $239 $226 $241 forward $137 $-1 #
vertex $-1 $84 $242 #
vertex $-1 $147 $243 #
straight-curve $-1 65.930967131565296 14.455469549569514 12.59336693828752 0 1 0 I I #
face $-1 $-1 $244 $18 $-1 $245 reversed single #
loop $-1 $-1 $246 $85 #
plane-surface $-1 0 -22.989550226922468 13.315296883149319 0 -1 0 0 0 -1 forward_v I I I I #
coedge $-1 $247 $88 $90 $162 forward $53 $-1 #
coedge $-1 $88 $247 $246 $248 forward $53 $-1 #
coedge $-1 $249 $91 $88 $159 forward $86 $-1 #
edge $-1 $165 6.8922835525639883 $250 13.028938967093652 $158 $251 forward 7 unknown #
coedge $-1 $252 $253 $89 $161 forward $244 $-1 #
edge $-1 $254 -90.862439859496547 $164 -77.117862538774446 $160 $255 forward 7 unknown #
edge $-1 $165 109.02339315338941 $254 131.86193426313059 $90 $256 forward 7 unknown #
coedge $-1 $91 $249 $252 $257 forward $86 $-1 #
vertex $-1 $161 $258 #
vertex $-1 $92 $259 #
straight-curve $-1 19.988919394319517 -16.852894812392808 16.68581399681635 -1 0 0 I I #
coedge $-1 $167 $167 $-1 $260 reversed $95 $-1 #
edge $-1 $261 0 $261 6.2831853071796004 $96 $262 forward 7 unknown #
vertex $-1 $99 $263 #
ellipse-curve $-1 56.811132233168969 -19.92122251965764 9.8135253364552923 0.6018150307709319 0 0.79863550430605224 0.79863550430605224 0 -0.6018150307709319 1 I I #
face $-1 $-1 $115 $15 $-1 $264 reversed single #
loop $-1 $-1 $187 $100 #
plane-surface $-1 0 37.706227352479047 0 0 -1 0 0 0 -1 forward_v I I I I #
coedge $-1 $265 $185 $188 $266 forward $101 $-1 #
coedge $-1 $191 $103 $104 $179 reversed $62 $-1 #
coedge $-1 $185 $265 $103 $177 reversed $101 $-1 #
edge $-1 $192 -16.685813996816353 $267 16.685813996816353 $176 $268 forward 7 unknown #
coedge $-1 $105 $104 $265 $269 forward $41 $-1 #
edge $-1 $183 -65.930967131565296 $267 65.930967131565296 $175 $270 forward 7 unknown #
coedge $-1 $188 $187 $105 $181 reversed $172 $-1 #
edge $-1 $271 -65.930967131565296 $182 65.930967131565296 $180 $272 forward 7 unknown #
vertex $-1 $107 $273 #
vertex $-1 $194 $274 #
straight-curve $-1 65.930967131565296 0 -16.685813996816353 0 -1 0 I I #
coedge $-1 $174 $176 $108 $186 reversed $101 $-1 #
edge $-1 $189 -37.706227352479047 $192 37.706227352479047 $185 $275 forward 7 unknown #
coedge $-1 $180 $109 $114 $195 forward $172 $-1 #
coedge $-1 $109 $180 $174 $266 reversed $172 $-1 #
vertex $-1 $110 $276 #
straight-curve $-1 0 37.706227352479047 16.685813996816353 -1 0 0 I I #
coedge $-1 $111 $175 $113 $194 reversed $62 $-1 #
vertex $-1 $186 $277 #
straight-curve $-1 0 -37.706227352479047 16.685813996816353 1 0 0 I I #
edge $-1 $116 -16.685813996816353 $183 16.685813996816353 $113 $278 forward 7 unknown #
edge $-1 $117 -16.685813996816353 $182 16.685813996816353 $114 $279 forward 7 unknown #
point $-1 65.930967131565296 -37.706227352479047 16.685813996816353 #
point $-1 65.930967131565296 37.706227352479047 16.685813996816353 #
face $-1 $-1 $132 $16 $-1 $280 reversed single #
loop $-1 $-1 $205 $119 #
plane-surface $-1 0 0 16.685813996816353 0 0 1 1 0 0 forward_v I I I I #
coedge $-1 $281 $122 $127 $210 forward $70 $-1 #
coedge $-1 $122 $281 $282 $283 reversed $70 $-1 #
coedge $-1 $124 $123 $122 $204 reversed $45 $-1 #
edge $-1 $284 -10.028165555241698 $215 -3.2871313279076233 $122 $285 forward 7 unknown #
coedge $-1 $282 $286 $124 $206 forward $199 $-1 #
edge $-1 $208 -65.930967131565296 $284 65.930967131565296 $205 $287 forward 7 unknown #
coedge $-1 $131 $125 $286 $288 reversed $132 $-1 #
vertex $-1 $126 $289 #
straight-curve $-1 65.930967131565296 -22.989550226922468 6.6576484415746595 0 0 1 I I #
edge $-1 $215 7.8156058320720891 $213 22.532282957628667 $201 $290 forward 7 unknown #
coedge $-1 $291 $128 $131 $217 reversed $120 $-1 #
coedge $-1 $128 $291 $281 $292 forward $120 $-1 #
vertex $-1 $129 $293 #
straight-curve $-1 0 -37.706227352479047 9.9447797694822828 1 0 0 I I #
vertex $-1 $210 $294 #
straight-curve $-1 0 -22.989550226922468 9.9447797694822828 1 0 0 I I #
edge $-1 $295 -16.685813996816353 $133 -9.9447797694822828 $131 $296 forward 7 unknown #
point $-1 65.930967131565296 -37.706227352479047 9.9447797694822828 #
point $-1 65.930967131565296 -22.989550226922468 9.9447797694822828 #
face $-1 $-1 $236 $17 $-1 $297 reversed single #
loop $-1 $-1 $142 $136 #
plane-surface $-1 -65.930967131565296 0 0 1 0 0 0 0 -1 forward_v I I I I #
coedge $-1 $298 $139 $239 $299 forward $78 $-1 #
coedge $-1 $139 $298 $227 $300 forward $78 $-1 #
edge $-1 $230 -65.930967131565296 $301 65.930967131565296 $139 $302 forward 7 unknown #
coedge $-1 $141 $140 $149 $241 reversed $49 $-1 #
coedge $-1 $303 $142 $224 $300 reversed $221 $-1 #
coedge $-1 $142 $303 $144 $232 forward $221 $-1 #
vertex $-1 $232 $304 #
vertex $-1 $143 $305 #
straight-curve $-1 -65.930967131565296 20.115650845799006 7.3197952337759684 0 0 1 I I #
edge $-1 $237 -23.250757802909533 $229 -5.6601812962294922 $228 $306 forward 7 unknown #
straight-curve $-1 0 20.115650845799006 12.59336693828752 -1 0 0 I I #
coedge $-1 $307 $146 $303 $308 reversed $236 $-1 #
coedge $-1 $146 $307 $148 $240 forward $236 $-1 #
loop $-1 $-1 $146 $220 #
vertex $-1 $147 $309 #
straight-curve $-1 0 37.706227352479047 12.59336693828752 -1 0 0 I I #
coedge $-1 $149 $148 $223 $299 reversed $137 $-1 #
edge $-1 $310 -16.685813996816353 $151 -12.59336693828752 $148 $311 forward 7 unknown #
edge $-1 $301 -9.3660187630403851 $150 -5.2735717045115518 $149 $312 forward 7 unknown #
point $-1 65.930967131565296 20.115650845799006 12.59336693828752 #
point $-1 65.930967131565296 37.706227352479047 12.59336693828752 #
loop $-1 $-1 $160 $153 #
plane-surface $-1 65.930967131565296 0 0 -1 0 0 0 0 1 forward_v I I I I #
coedge $-1 $313 $314 $157 $248 reversed $154 $-1 #
coedge $-1 $157 $156 $253 $315 reversed $53 $-1 #
edge $-1 $316 -131.86193426313059 $250 -109.02339315338941 $246 $317 forward 7 unknown #
coedge $-1 $163 $158 $314 $318 forward $86 $-1 #
vertex $-1 $318 $319 #
straight-curve $-1 47.691297334772621 -9.9606112598288199 16.685813996816357 0 -1 0 I I #
coedge $-1 $320 $160 $163 $257 reversed $244 $-1 #
coedge $-1 $160 $320 $247 $315 forward $244 $-1 #
vertex $-1 $161 $321 #
straight-curve $-1 65.930967131565296 -16.852894812392808 93.803676535590796 0 0 1 I I #
straight-curve $-1 -39.378655237441507 -16.852894812392808 82.297730702174789 0.79863550430605224 0 -0.6018150307709319 I I #
edge $-1 $322 -22.989550226922468 $164 -16.852894812392808 $252 $323 forward 7 unknown #
point $-1 65.930967131565296 -16.852894812392808 16.685813996816353 #
point $-1 47.691297334772628 -16.852894812392808 16.68581399681635 #
edge $-1 $324 1 $324 0 $167 $-1 forward 7 unknown #
vertex $-1 $168 $325 #
ellipse-curve $-1 54.94649191870662 -19.92122251965764 7.3390641120781108 0.6018150307709319 0 0.79863550430605224 0.79863550430605224 0 -0.6018150307709319 1 I I #
point $-1 57.609767737475032 -19.92122251965764 9.2117103056843792 #
plane-surface $-1 65.930967131565296 0 0 -1 0 0 0 0 1 forward_v I I I I #
coedge $-1 $176 $174 $178 $269 reversed $101 $-1 #
edge $-1 $189 -16.685813996816353 $271 16.685813996816353 $188 $326 forward 7 unknown #
vertex $-1 $269 $327 #
straight-curve $-1 -65.930967131565296 -37.706227352479047 0 0 0 -1 I I #
edge $-1 $267 -37.706227352479047 $271 37.706227352479047 $265 $328 forward 7 unknown #
straight-curve $-1 0 -37.706227352479047 -16.685813996816353 -1 0 0 I I #
vertex $-1 $181 $329 #
straight-curve $-1 0 37.706227352479047 -16.685813996816353 1 0 0 I I #
point $-1 65.930967131565296 37.706227352479047 -16.685813996816353 #
point $-1 65.930967131565296 -37.706227352479047 -16.685813996816353 #
straight-curve $-1 -65.930967131565296 0 16.685813996816353 0 -1 0 I I #
point $-1 -65.930967131565296 37.706227352479047 16.685813996816353 #
point $-1 -65.930967131565296 -37.706227352479047 16.685813996816353 #
straight-curve $-1 65.930967131565296 -37.706227352479047 0 0 0 -1 I I #
straight-curve $-1 65.930967131565296 37.706227352479047 0 0 0 -1 I I #
plane-surface $-1 65.930967131565296 0 0 -1 0 0 0 0 1 forward_v I I I I #
coedge $-1 $202 $201 $212 $292 reversed $70 $-1 #
coedge $-1 $330 $205 $202 $283 forward $199 $-1 #
edge $-1 $284 22.989550226922468 $331 37.706227352479047 $202 $332 forward 7 unknown #
vertex $-1 $283 $333 #
straight-curve $-1 -65.930967131565296 -22.989550226922468 6.6576484415746595 0 0 -1 I I #
coedge $-1 $205 $330 $207 $288 forward $199 $-1 #
straight-curve $-1 0 -22.989550226922468 16.685813996816353 -1 0 0 I I #
edge $-1 $295 -37.706227352479047 $208 -22.989550226922468 $207 $334 forward 7 unknown #
point $-1 65.930967131565296 -22.989550226922468 16.685813996816357 #
straight-curve $-1 -65.930967131565296 -15.173944394850379 9.9447797694822828 0 -1 0 I I #
coedge $-1 $212 $211 $330 $335 reversed $120 $-1 #
edge $-1 $331 -16.685813996816353 $213 -9.9447797694822828 $281 $336 forward 7 unknown #
point $-1 -65.930967131565296 -37.706227352479047 9.9447797694822828 #
point $-1 -65.930967131565296 -22.989550226922468 9.9447797694822828 #
vertex $-1 $288 $337 #
straight-curve $-1 65.930967131565296 -37.706227352479047 0 0 0 -1 I I #
plane-surface $-1 0 37.706227352479047 0 0 -1 0 0 0 -1 forward_v I I I I #
coedge $-1 $224 $223 $307 $338 forward $78 $-1 #
edge $-1 $301 20.115650845799006 $310 37.706227352479047 $239 $339 forward 7 unknown #
edge $-1 $340 -37.706227352479047 $230 -20.115650845799006 $227 $341 forward 7 unknown #
vertex $-1 $299 $342 #
straight-curve $-1 0 20.115650845799006 16.685813996816353 1 0 0 I I #
coedge $-1 $228 $227 $234 $308 forward $221 $-1 #
point $-1 -65.930967131565296 20.115650845799006 12.59336693828752 #
point $-1 -65.930967131565296 20.115650845799006 16.685813996816353 #
straight-curve $-1 -65.930967131565296 14.455469549569514 12.59336693828752 0 -1 0 I I #
coedge $-1 $235 $234 $298 $338 reversed $236 $-1 #
edge $-1 $340 -16.685813996816353 $237 -12.59336693828752 $234 $343 forward 7 unknown #
point $-1 -65.930967131565296 37.706227352479047 12.59336693828752 #
vertex $-1 $299 $344 #
straight-curve $-1 65.930967131565296 37.706227352479047 0 0 0 -1 I I #
straight-curve $-1 65.930967131565296 20.115650845799006 7.3197952337759684 0 0 -1 I I #
coedge $-1 $314 $246 $320 $345 reversed $154 $-1 #
coedge $-1 $246 $313 $249 $318 reversed $154 $-1 #
edge $-1 $316 -13.028938967093652 $254 -6.8922835525639883 $253 $346 forward 7 unknown #
vertex $-1 $345 $347 #
straight-curve $-1 -39.378655237441507 -22.989550226922471 82.297730702174789 -0.79863550430605224 0 0.6018150307709319 I I #
edge $-1 $250 47.691297334772628 $322 65.930967131565296 $249 $348 forward 7 unknown #
point $-1 47.691297334772628 -22.989550226922471 16.68581399681635 #
coedge $-1 $253 $252 $313 $345 forward $244 $-1 #
point $-1 65.930967131565296 -16.852894812392808 2.941236676094249 #
vertex $-1 $257 $349 #
straight-curve $-1 65.930967131565296 0 16.685813996816353 0 1 0 I I #
vertex $-1 $260 $350 #
point $-1 55.745127423012669 -19.92122251965764 6.737249081307179 #
straight-curve $-1 -65.930967131565296 37.706227352479047 0 0 0 -1 I I #
point $-1 -65.930967131565296 -37.706227352479047 -16.685813996816353 #
straight-curve $-1 -65.930967131565296 0 -16.685813996816353 0 1 0 I I #
point $-1 -65.930967131565296 37.706227352479047 -16.685813996816353 #
coedge $-1 $286 $282 $291 $335 forward $199 $-1 #
vertex $-1 $283 $351 #
straight-curve $-1 -65.930967131565296 0 16.685813996816353 0 -1 0 I I #
point $-1 -65.930967131565296 -22.989550226922468 16.685813996816357 #
straight-curve $-1 65.930967131565296 0 16.685813996816353 0 1 0 I I #
edge $-1 $331 -65.930967131565296 $295 65.930967131565296 $291 $352 forward 7 unknown #
straight-curve $-1 -65.930967131565296 -37.706227352479047 0 0 0 -1 I I #
point $-1 65.930967131565296 -37.706227352479047 16.685813996816353 #
edge $-1 $310 -65.930967131565296 $340 65.930967131565296 $307 $353 forward 7 unknown #
straight-curve $-1 65.930967131565296 0 16.685813996816353 0 1 0 I I #
vertex $-1 $338 $354 #
straight-curve $-1 -65.930967131565296 0 16.685813996816353 0 -1 0 I I #
point $-1 65.930967131565296 20.115650845799006 16.685813996816353 #
straight-curve $-1 -65.930967131565296 37.706227352479047 0 0 0 -1 I I #
point $-1 65.930967131565296 37.706227352479047 16.685813996816353 #
edge $-1 $322 77.117862538774432 $316 90.862439859496547 $320 $355 forward 7 unknown #
straight-curve $-1 65.930967131565282 -9.9606112598288199 2.9412366760942632 0 1 0 I I #
point $-1 65.930967131565296 -22.989550226922471 2.941236676094249 #
straight-curve $-1 0 -22.989550226922468 16.685813996816353 1 0 0 I I #
point $-1 65.930967131565296 -22.989550226922468 16.685813996816357 #
point $-1 54.344676887935684 -19.92122251965764 6.5404286077720588 #
point $-1 -65.930967131565296 -37.706227352479047 16.685813996816353 #
straight-curve $-1 0 -37.706227352479047 16.685813996816353 1 0 0 I I #
straight-curve $-1 0 37.706227352479047 16.685813996816353 -1 0 0 I I #
point $-1 -65.930967131565296 37.706227352479047 16.685813996816353 #
straight-curve $-1 65.930967131565296 -22.989550226922471 93.803676535590796 0 0 -1 I I #
End-of-ACIS-data 