500 0 11 0           
7 Unknown 11 ACIS 5.0 NT 24 Fri Mar 26 00:28:35 1999 
-1 9.9999999999999995e-007 1e-010 
body $-1 $11 $-1 $12 #
body $-1 $13 $-1 $14 #
body $-1 $15 $-1 $16 #
body $-1 $17 $-1 $18 #
body $-1 $19 $-1 $20 #
body $-1 $21 $-1 $22 #
body $-1 $23 $-1 $24 #
body $-1 $25 $-1 $26 #
body $-1 $27 $-1 $28 #
body $-1 $29 $-1 $30 #
body $-1 $31 $-1 $32 #
lump $-1 $-1 $33 $0 #
transform $-1 1 0 0 0 1 0 0 0 1 70.953093050935394 31.151194696821698 7.3014742121808531 1 rotate no_reflect no_shear #
lump $-1 $-1 $34 $1 #
transform $-1 1 0 0 0 1 0 0 0 1 70.953093050935394 31.151194696821698 7.3014742121808531 1 rotate no_reflect no_shear #
lump $-1 $-1 $35 $2 #
transform $-1 1 0 0 0 1 0 0 0 1 70.953093050935394 31.151194696821698 7.3014742121808531 1 rotate no_reflect no_shear #
lump $-1 $-1 $36 $3 #
transform $-1 1 0 0 0 1 0 0 0 1 70.953093050935394 31.151194696821698 7.3014742121808531 1 rotate no_reflect no_shear #
lump $-1 $-1 $37 $4 #
transform $-1 1 0 0 0 1 0 0 0 1 70.953093050935394 31.151194696821698 7.3014742121808531 1 rotate no_reflect no_shear #
lump $-1 $-1 $38 $5 #
transform $-1 1 0 0 0 1 0 0 0 1 70.953093050935394 31.151194696821698 7.3014742121808531 1 rotate no_reflect no_shear #
lump $-1 $-1 $39 $6 #
transform $-1 1 0 0 0 1 0 0 0 1 70.953093050935394 31.151194696821698 7.3014742121808531 1 rotate no_reflect no_shear #
lump $-1 $-1 $40 $7 #
transform $-1 1 0 0 0 1 0 0 0 1 70.953093050935394 31.151194696821698 7.3014742121808531 1 rotate no_reflect no_shear #
lump $-1 $-1 $41 $8 #
transform $-1 1 0 0 0 1 0 0 0 1 70.953093050935394 31.151194696821698 7.3014742121808531 1 rotate no_reflect no_shear #
lump $-1 $-1 $42 $9 #
transform $-1 1 0 0 0 1 0 0 0 1 70.953093050935394 31.151194696821698 7.3014742121808531 1 rotate no_reflect no_shear #
lump $-1 $-1 $43 $10 #
transform $-1 1 0 0 0 1 0 0 0 1 70.953093050935394 31.151194696821698 7.3014742121808531 1 rotate no_reflect no_shear #
shell $-1 $-1 $-1 $44 $-1 $11 #
shell $-1 $-1 $-1 $45 $-1 $13 #
shell $-1 $-1 $-1 $46 $-1 $15 #
shell $-1 $-1 $-1 $47 $-1 $17 #
shell $-1 $-1 $-1 $48 $-1 $19 #
shell $-1 $-1 $-1 $49 $-1 $21 #
shell $-1 $-1 $-1 $50 $-1 $23 #
shell $-1 $-1 $-1 $51 $-1 $25 #
shell $-1 $-1 $-1 $52 $-1 $27 #
shell $-1 $-1 $-1 $53 $-1 $29 #
shell $-1 $-1 $-1 $54 $-1 $31 #
face $-1 $55 $56 $33 $-1 $57 forward single #
face $-1 $58 $59 $34 $-1 $60 forward single #
face $-1 $61 $62 $35 $-1 $63 reversed single #
face $-1 $64 $65 $36 $-1 $66 forward single #
face $-1 $67 $68 $37 $-1 $69 forward single #
face $-1 $70 $71 $38 $-1 $72 reversed single #
face $-1 $73 $74 $39 $-1 $75 forward single #
face $-1 $76 $77 $40 $-1 $78 forward single #
face $-1 $79 $80 $41 $-1 $81 reversed single #
face $-1 $82 $83 $42 $-1 $84 forward single #
face $-1 $85 $86 $43 $-1 $87 forward single #
face $-1 $88 $89 $33 $-1 $90 reversed single #
loop $-1 $-1 $91 $44 #
plane-surface $-1 0 0 7.3014742121808531 0 0 1 1 0 0 forward_v I I I I #
face $-1 $92 $93 $34 $-1 $94 reversed single #
loop $-1 $-1 $95 $45 #
plane-surface $-1 0 -31.151194696821698 0 0 1 0 0 0 1 forward_v I I I I #
face $-1 $96 $97 $35 $-1 $98 reversed single #
loop $-1 $-1 $99 $46 #
plane-surface $-1 95.410524479826705 -6.9756302207818965 200.01233874470734 0 -1 0 -0.78801076186113728 0 -0.61566146476048833 forward_v I I I I #
face $-1 $100 $101 $36 $-1 $102 forward single #
loop $-1 $103 $104 $47 #
cone-surface $-1 67.697320131171878 -15.353098816424975 3.4957177927227798 -0.78801076186113728 0 -0.61566146476048833 0.61566146476048833 0 -0.78801076186113728 1 I I 0 1 1 forward I I I I #
face $-1 $105 $106 $37 $-1 $107 forward single #
loop $-1 $108 $109 $48 #
cone-surface $-1 67.697320131171878 -10.32661765903913 3.4957177927227798 -0.78801076186113728 0 -0.61566146476048833 0.61566146476048833 0 -0.78801076186113728 1 I I 0 1 1 forward I I I I #
face $-1 $110 $111 $38 $-1 $112 reversed single #
loop $-1 $-1 $113 $49 #
plane-surface $-1 95.410524479826705 28.055396931149481 200.01233874470734 0 -1 0 -0.78801076186113728 0 -0.61566146476048833 forward_v I I I I #
face $-1 $114 $115 $39 $-1 $116 forward single #
loop $-1 $117 $118 $50 #
cone-surface $-1 67.697320131171878 19.677928335506401 3.4957177927227798 -0.78801076186113728 0 -0.61566146476048833 0.61566146476048833 0 -0.78801076186113728 1 I I 0 1 1 forward I I I I #
face $-1 $119 $120 $40 $-1 $121 forward single #
loop $-1 $122 $123 $51 #
cone-surface $-1 67.697320131171878 24.704409492892246 3.4957177927227798 -0.78801076186113728 0 -0.61566146476048833 0.61566146476048833 0 -0.78801076186113728 1 I I 0 1 1 forward I I I I #
face $-1 $124 $125 $41 $-1 $126 reversed single #
loop $-1 $-1 $127 $52 #
plane-surface $-1 -150.30602630902544 3.5128531612883513 118.13271933276739 0 1 0 -0.55919291073839883 0 0.82903756765294845 forward_v I I I I #
face $-1 $128 $129 $42 $-1 $130 forward single #
loop $-1 $131 $132 $53 #
cone-surface $-1 -65.499155920203478 5.4851229412512339 3.2974097903532904 0.55919291073839883 0 -0.82903756765294845 0.41451878382647422 0 0.27959645536919941 1 I I 0 1 0.5 forward I I I I #
face $-1 $133 $134 $43 $-1 $135 forward single #
loop $-1 $136 $137 $54 #
cone-surface $-1 -65.499155920203478 8.4435276111955488 3.2974097903532904 0.55919291073839883 0 -0.82903756765294845 0.41451878382647422 0 0.27959645536919941 1 I I 0 1 0.5 forward I I I I #
face $-1 $138 $139 $33 $-1 $140 reversed single #
loop $-1 $-1 $141 $55 #
plane-surface $-1 0 0 -7.3014742121808531 0 0 1 1 0 0 forward_v I I I I #
coedge $-1 $142 $143 $144 $145 forward $56 $-1 #
face $-1 $146 $147 $34 $-1 $148 reversed single #
loop $-1 $-1 $149 $58 #
plane-surface $-1 0 0 -7.3014742121808531 0 0 1 1 0 0 forward_v I I I I #
coedge $-1 $150 $151 $152 $153 forward $59 $-1 #
face $-1 $154 $155 $35 $-1 $156 reversed single #
loop $-1 $-1 $157 $61 #
plane-surface $-1 -16.413077343116825 -12.839858237732052 112.64616835065512 0.78801076186113728 0 0.61566146476048833 0.61566146476048833 0 -0.78801076186113728 forward_v I I I I #
coedge $-1 $158 $159 $160 $161 reversed $62 $-1 #
face $-1 $-1 $162 $36 $-1 $163 forward single #
loop $-1 $164 $165 $64 #
cone-surface $-1 66.578480485203471 -15.353098816424975 2.6215844831190758 -0.78801076186113728 0 -0.61566146476048833 0.30783073238024417 0 -0.39400538093056864 1 I I -0.70710678118654746 0.70710678118654746 0.5 forward I I I I #
loop $-1 $-1 $166 $47 #
coedge $-1 $104 $104 $167 $168 reversed $65 $-1 #
face $-1 $-1 $169 $37 $-1 $170 forward single #
loop $-1 $171 $172 $67 #
cone-surface $-1 66.578480485203471 -10.32661765903913 2.6215844831190758 -0.78801076186113728 0 -0.61566146476048833 0.30783073238024417 0 -0.39400538093056864 1 I I -0.70710678118654746 0.70710678118654746 0.5 forward I I I I #
loop $-1 $-1 $173 $48 #
coedge $-1 $109 $109 $174 $175 reversed $68 $-1 #
face $-1 $176 $177 $38 $-1 $178 reversed single #
loop $-1 $-1 $179 $70 #
plane-surface $-1 -16.413077343116825 22.191168914199324 112.64616835065512 0.78801076186113728 0 0.61566146476048833 0.61566146476048833 0 -0.78801076186113728 forward_v I I I I #
coedge $-1 $180 $181 $182 $183 reversed $71 $-1 #
face $-1 $-1 $184 $39 $-1 $185 forward single #
loop $-1 $186 $187 $73 #
cone-surface $-1 66.578480485203471 19.677928335506401 2.6215844831190758 -0.78801076186113728 0 -0.61566146476048833 0.30783073238024417 0 -0.39400538093056864 1 I I -0.70710678118654746 0.70710678118654746 0.5 forward I I I I #
loop $-1 $-1 $188 $50 #
coedge $-1 $118 $118 $189 $190 reversed $74 $-1 #
face $-1 $-1 $191 $40 $-1 $192 forward single #
loop $-1 $193 $194 $76 #
cone-surface $-1 66.578480485203471 24.704409492892246 2.6215844831190758 -0.78801076186113728 0 -0.61566146476048833 0.30783073238024417 0 -0.39400538093056864 1 I I -0.70710678118654746 0.70710678118654746 0.5 forward I I I I #
loop $-1 $-1 $195 $51 #
coedge $-1 $123 $123 $196 $197 reversed $77 $-1 #
face $-1 $198 $199 $41 $-1 $200 reversed single #
loop $-1 $-1 $201 $79 #
plane-surface $-1 -70.953093050935394 6.9643252762233843 0.48715997196579508 -0.55919291073839883 0 0.82903756765294845 0.82903756765294845 0 0.55919291073839883 forward_v I I I I #
coedge $-1 $202 $203 $204 $205 reversed $80 $-1 #
face $-1 $-1 $206 $42 $-1 $207 forward single #
loop $-1 $208 $209 $82 #
cone-surface $-1 -64.956738626129891 5.4851229412512339 2.4932430967200219 0.55919291073839883 0 -0.82903756765294845 0.20725939191323711 0 0.13979822768459971 1 I I -0.70710678118654746 0.70710678118654746 0.25 forward I I I I #
loop $-1 $-1 $210 $53 #
coedge $-1 $132 $132 $211 $212 reversed $83 $-1 #
face $-1 $-1 $213 $43 $-1 $214 forward single #
loop $-1 $215 $216 $85 #
cone-surface $-1 -64.956738626129891 8.4435276111955488 2.4932430967200219 0.55919291073839883 0 -0.82903756765294845 0.20725939191323711 0 0.13979822768459971 1 I I -0.70710678118654746 0.70710678118654746 0.25 forward I I I I #
loop $-1 $-1 $217 $54 #
coedge $-1 $137 $137 $218 $219 reversed $86 $-1 #
face $-1 $220 $221 $33 $-1 $222 reversed single #
loop $-1 $-1 $223 $88 #
plane-surface $-1 0 -31.151194696821698 0 0 1 0 0 0 1 forward_v I I I I #
coedge $-1 $224 $225 $226 $227 forward $89 $-1 #
coedge $-1 $228 $91 $229 $230 forward $56 $-1 #
coedge $-1 $91 $228 $231 $232 forward $56 $-1 #
coedge $-1 $233 $234 $91 $145 reversed $235 $-1 #
edge $-1 $236 -31.151194696821698 $237 31.151194696821698 $144 $238 forward 7 unknown #
face $-1 $239 $240 $34 $-1 $241 forward single #
loop $-1 $-1 $242 $92 #
plane-surface $-1 70.953093050935394 0 0 -1 0 0 0 0 1 forward_v I I I I #
coedge $-1 $243 $244 $245 $246 forward $93 $-1 #
coedge $-1 $245 $95 $242 $247 reversed $59 $-1 #
coedge $-1 $95 $245 $248 $249 reversed $59 $-1 #
coedge $-1 $250 $251 $95 $153 reversed $240 $-1 #
edge $-1 $252 -70.953093050935394 $253 70.953093050935394 $152 $254 forward 7 unknown #
face $-1 $255 $256 $35 $-1 $257 reversed single #
loop $-1 $-1 $258 $96 #
plane-surface $-1 95.410524479826705 -18.70408625468221 200.01233874470734 0 1 0 0.78801076186113728 0 0.61566146476048833 forward_v I I I I #
coedge $-1 $259 $260 $261 $262 reversed $97 $-1 #
coedge $-1 $159 $99 $263 $264 reversed $62 $-1 #
coedge $-1 $99 $158 $259 $265 reversed $62 $-1 #
coedge $-1 $261 $266 $99 $161 forward $267 $-1 #
edge $-1 $268 -23.247830811022041 $269 -18.185953501570737 $160 $270 forward 7 unknown #
loop $-1 $-1 $167 $100 #
plane-surface $-1 -16.413077343116825 -12.839858237732052 112.64616835065512 0.78801076186113728 0 0.61566146476048833 0.61566146476048833 0 -0.78801076186113728 forward_v I I I I #
loop $-1 $-1 $271 $64 #
coedge $-1 $165 $165 $166 $272 reversed $101 $-1 #
coedge $-1 $166 $166 $165 $272 forward $103 $-1 #
coedge $-1 $167 $167 $104 $168 forward $162 $-1 #
edge $-1 $273 0 $273 6.2831853071796004 $167 $274 forward 7 unknown #
loop $-1 $-1 $174 $105 #
plane-surface $-1 -16.413077343116825 -12.839858237732052 112.64616835065512 0.78801076186113728 0 0.61566146476048833 0.61566146476048833 0 -0.78801076186113728 forward_v I I I I #
loop $-1 $-1 $275 $67 #
coedge $-1 $172 $172 $173 $276 reversed $106 $-1 #
coedge $-1 $173 $173 $172 $276 forward $108 $-1 #
coedge $-1 $174 $174 $109 $175 forward $169 $-1 #
edge $-1 $277 0 $277 6.2831853071796004 $174 $278 forward 7 unknown #
face $-1 $279 $280 $38 $-1 $281 reversed single #
loop $-1 $-1 $282 $110 #
plane-surface $-1 95.410524479826705 16.326940897249166 200.01233874470734 0 1 0 0.78801076186113728 0 0.61566146476048833 forward_v I I I I #
coedge $-1 $283 $284 $285 $286 reversed $111 $-1 #
coedge $-1 $181 $113 $287 $288 reversed $71 $-1 #
coedge $-1 $113 $180 $283 $289 reversed $71 $-1 #
coedge $-1 $285 $290 $113 $183 forward $291 $-1 #
edge $-1 $292 -23.247830811022041 $293 -18.185953501570737 $182 $294 forward 7 unknown #
loop $-1 $-1 $189 $114 #
plane-surface $-1 -16.413077343116825 22.191168914199324 112.64616835065512 0.78801076186113728 0 0.61566146476048833 0.61566146476048833 0 -0.78801076186113728 forward_v I I I I #
loop $-1 $-1 $295 $73 #
coedge $-1 $187 $187 $188 $296 reversed $115 $-1 #
coedge $-1 $188 $188 $187 $296 forward $117 $-1 #
coedge $-1 $189 $189 $118 $190 forward $184 $-1 #
edge $-1 $297 0 $297 6.2831853071796004 $189 $298 forward 7 unknown #
loop $-1 $-1 $196 $119 #
plane-surface $-1 -16.413077343116825 22.191168914199324 112.64616835065512 0.78801076186113728 0 0.61566146476048833 0.61566146476048833 0 -0.78801076186113728 forward_v I I I I #
loop $-1 $-1 $299 $76 #
coedge $-1 $194 $194 $195 $300 reversed $120 $-1 #
coedge $-1 $195 $195 $194 $300 forward $122 $-1 #
coedge $-1 $196 $196 $123 $197 forward $191 $-1 #
edge $-1 $301 0 $301 6.2831853071796004 $196 $302 forward 7 unknown #
face $-1 $303 $304 $41 $-1 $305 forward single #
loop $-1 $-1 $306 $124 #
plane-surface $-1 -150.30602630902544 10.415797391158417 118.13271933276739 0 -1 0 0.55919291073839883 0 -0.82903756765294845 forward_v I I I I #
coedge $-1 $307 $308 $309 $310 reversed $125 $-1 #
coedge $-1 $203 $127 $311 $312 reversed $80 $-1 #
coedge $-1 $127 $202 $307 $313 reversed $80 $-1 #
coedge $-1 $309 $314 $127 $205 forward $304 $-1 #
edge $-1 $315 4.1999201035773268 $316 14.302556232263164 $204 $317 forward 7 unknown #
loop $-1 $-1 $211 $128 #
plane-surface $-1 -70.953093050935394 6.9643252762233843 0.48715997196579508 -0.55919291073839883 0 0.82903756765294845 0.82903756765294845 0 0.55919291073839883 forward_v I I I I #
loop $-1 $-1 $318 $82 #
coedge $-1 $209 $209 $210 $319 reversed $129 $-1 #
coedge $-1 $210 $210 $209 $319 forward $131 $-1 #
coedge $-1 $211 $211 $132 $212 forward $206 $-1 #
edge $-1 $320 0 $320 6.2831853071796004 $211 $321 forward 7 unknown #
loop $-1 $-1 $218 $133 #
plane-surface $-1 -70.953093050935394 6.9643252762233843 0.48715997196579508 -0.55919291073839883 0 0.82903756765294845 0.82903756765294845 0 0.55919291073839883 forward_v I I I I #
loop $-1 $-1 $322 $85 #
coedge $-1 $216 $216 $217 $323 reversed $134 $-1 #
coedge $-1 $217 $217 $216 $323 forward $136 $-1 #
coedge $-1 $218 $218 $137 $219 forward $213 $-1 #
edge $-1 $324 0 $324 6.2831853071796004 $218 $325 forward 7 unknown #
face $-1 $326 $327 $33 $-1 $328 reversed single #
loop $-1 $-1 $329 $138 #
plane-surface $-1 -70.953093050935394 0 0 1 0 0 0 0 -1 forward_v I I I I #
coedge $-1 $330 $231 $331 $332 forward $139 $-1 #
coedge $-1 $333 $141 $330 $334 forward $89 $-1 #
coedge $-1 $141 $333 $335 $336 forward $89 $-1 #
coedge $-1 $234 $233 $141 $227 reversed $235 $-1 #
edge $-1 $337 -31.151194696821698 $338 31.151194696821698 $226 $339 forward 7 unknown #
coedge $-1 $143 $142 $340 $341 forward $56 $-1 #
coedge $-1 $342 $343 $142 $230 reversed $327 $-1 #
edge $-1 $237 -70.953093050935394 $344 70.953093050935394 $229 $345 forward 7 unknown #
coedge $-1 $223 $346 $143 $232 reversed $139 $-1 #
edge $-1 $347 -70.953093050935394 $236 70.953093050935394 $231 $348 forward 7 unknown #
coedge $-1 $226 $144 $346 $349 forward $235 $-1 #
coedge $-1 $144 $226 $342 $350 reversed $235 $-1 #
loop $-1 $-1 $233 $326 #
vertex $-1 $145 $351 #
vertex $-1 $145 $352 #
straight-curve $-1 70.953093050935394 0 7.3014742121808531 0 1 0 I I #
face $-1 $353 $354 $34 $-1 $355 reversed single #
loop $-1 $-1 $251 $146 #
plane-surface $-1 0 -35.82685003505533 -4.3014742121808531 0 0 1 1 0 0 forward_v I I I I #
coedge $-1 $356 $357 $150 $247 forward $147 $-1 #
coedge $-1 $358 $149 $357 $359 forward $93 $-1 #
coedge $-1 $149 $358 $360 $361 forward $93 $-1 #
coedge $-1 $151 $150 $149 $246 reversed $59 $-1 #
edge $-1 $362 -70.953093050935394 $363 70.953093050935394 $149 $364 forward 7 unknown #
edge $-1 $363 -7.3014742121808531 $253 -4.3014742121808531 $242 $365 forward 7 unknown #
coedge $-1 $360 $366 $151 $249 forward $367 $-1 #
edge $-1 $252 4.3014742121808531 $362 7.3014742121808531 $248 $368 forward 7 unknown #
coedge $-1 $369 $152 $366 $370 forward $240 $-1 #
coedge $-1 $152 $369 $356 $371 forward $240 $-1 #
vertex $-1 $249 $372 #
vertex $-1 $371 $373 #
straight-curve $-1 0 -31.151194696821698 -4.3014742121808531 1 0 0 I I #
face $-1 $-1 $267 $35 $-1 $374 forward single #
loop $-1 $-1 $375 $154 #
plane-surface $-1 70.953093050935394 0 0 -1 0 0 0 0 1 forward_v I I I I #
coedge $-1 $376 $377 $378 $379 reversed $155 $-1 #
coedge $-1 $380 $157 $159 $265 forward $97 $-1 #
coedge $-1 $157 $380 $376 $381 forward $97 $-1 #
coedge $-1 $378 $160 $157 $262 forward $267 $-1 #
edge $-1 $269 0.55570110191587041 $382 12.284157135816184 $261 $383 forward 7 unknown #
coedge $-1 $384 $385 $158 $264 forward $256 $-1 #
edge $-1 $386 -99.183602844642081 $268 -92.704695160172818 $263 $387 forward 7 unknown #
edge $-1 $269 133.68433432262952 $386 141.90618610187079 $159 $388 forward 7 unknown #
coedge $-1 $160 $378 $384 $389 forward $267 $-1 #
loop $-1 $-1 $378 $255 #
vertex $-1 $264 $390 #
vertex $-1 $161 $391 #
straight-curve $-1 47.705262239913353 -6.9756302207818965 7.3014742121808496 -1 0 0 I I #
coedge $-1 $271 $271 $-1 $392 reversed $164 $-1 #
edge $-1 $393 0 $393 6.2831853071796004 $165 $394 forward 7 unknown #
vertex $-1 $168 $395 #
ellipse-curve $-1 68.42215439620972 -15.353098816424975 4.06202036994625 0.78801076186113728 0 0.61566146476048833 0.61566146476048833 0 -0.78801076186113728 1 I I #
coedge $-1 $275 $275 $-1 $396 reversed $171 $-1 #
edge $-1 $397 0 $397 6.2831853071796004 $172 $398 forward 7 unknown #
vertex $-1 $175 $399 #
ellipse-curve $-1 68.42215439620972 -10.32661765903913 4.06202036994625 0.78801076186113728 0 0.61566146476048833 0.61566146476048833 0 -0.78801076186113728 1 I I #
face $-1 $-1 $291 $38 $-1 $400 forward single #
loop $-1 $-1 $401 $176 #
plane-surface $-1 70.953093050935394 0 0 -1 0 0 0 0 1 forward_v I I I I #
coedge $-1 $402 $403 $404 $405 reversed $177 $-1 #
coedge $-1 $406 $179 $181 $289 forward $111 $-1 #
coedge $-1 $179 $406 $402 $407 forward $111 $-1 #
coedge $-1 $404 $182 $179 $286 forward $291 $-1 #
edge $-1 $293 -16.959812474049819 $408 -5.2313564401495043 $285 $409 forward 7 unknown #
coedge $-1 $410 $411 $180 $288 forward $280 $-1 #
edge $-1 $412 -99.183602844642081 $292 -92.704695160172818 $287 $413 forward 7 unknown #
edge $-1 $293 133.68433432262952 $412 141.90618610187079 $181 $414 forward 7 unknown #
coedge $-1 $182 $404 $410 $415 forward $291 $-1 #
loop $-1 $-1 $404 $279 #
vertex $-1 $288 $416 #
vertex $-1 $183 $417 #
straight-curve $-1 47.705262239913353 28.055396931149481 7.3014742121808496 -1 0 0 I I #
coedge $-1 $295 $295 $-1 $418 reversed $186 $-1 #
edge $-1 $419 0 $419 6.2831853071796004 $187 $420 forward 7 unknown #
vertex $-1 $190 $421 #
ellipse-curve $-1 68.42215439620972 19.677928335506401 4.06202036994625 0.78801076186113728 0 0.61566146476048833 0.61566146476048833 0 -0.78801076186113728 1 I I #
coedge $-1 $299 $299 $-1 $422 reversed $193 $-1 #
edge $-1 $423 0 $423 6.2831853071796004 $194 $424 forward 7 unknown #
vertex $-1 $197 $425 #
ellipse-curve $-1 68.42215439620972 24.704409492892246 4.06202036994625 0.78801076186113728 0 0.61566146476048833 0.61566146476048833 0 -0.78801076186113728 1 I I #
face $-1 $-1 $426 $41 $-1 $427 reversed single #
loop $-1 $-1 $204 $198 #
plane-surface $-1 0 0 7.3014742121808531 0 0 1 1 0 0 forward_v I I I I #
coedge $-1 $428 $429 $430 $431 reversed $199 $-1 #
coedge $-1 $432 $201 $203 $313 forward $125 $-1 #
coedge $-1 $201 $432 $428 $433 forward $125 $-1 #
coedge $-1 $430 $204 $201 $310 forward $304 $-1 #
edge $-1 $316 0.030690523176659212 $434 6.9336347530467251 $309 $435 forward 7 unknown #
coedge $-1 $436 $437 $202 $312 forward $426 $-1 #
edge $-1 $438 -58.579199694417902 $315 -51.76488545420284 $311 $439 forward 7 unknown #
edge $-1 $316 -12.185981097680486 $438 0 $203 $440 forward 7 unknown #
coedge $-1 $204 $430 $436 $441 forward $304 $-1 #
vertex $-1 $312 $442 #
vertex $-1 $205 $443 #
straight-curve $-1 -75.15301315451272 3.5128531612883513 7.3014742121808496 1 0 0 I I #
coedge $-1 $318 $318 $-1 $444 reversed $208 $-1 #
edge $-1 $445 0 $445 6.2831853071796004 $209 $446 forward 7 unknown #
vertex $-1 $212 $447 #
ellipse-curve $-1 -65.901774986592471 5.4851229412512339 3.8943170920733277 -0.55919291073839883 0 0.82903756765294845 0.41451878382647422 0 0.27959645536919941 1 I I #
coedge $-1 $322 $322 $-1 $448 reversed $215 $-1 #
edge $-1 $449 0 $449 6.2831853071796004 $216 $450 forward 7 unknown #
vertex $-1 $219 $451 #
ellipse-curve $-1 -65.901774986592471 8.4435276111955488 3.8943170920733277 -0.55919291073839883 0 0.82903756765294845 0.41451878382647422 0 0.27959645536919941 1 I I #
face $-1 $-1 $235 $33 $-1 $452 reversed single #
loop $-1 $-1 $342 $220 #
plane-surface $-1 0 31.151194696821698 0 0 -1 0 0 0 -1 forward_v I I I I #
coedge $-1 $453 $340 $343 $454 forward $221 $-1 #
coedge $-1 $346 $223 $224 $334 reversed $139 $-1 #
coedge $-1 $340 $453 $223 $332 reversed $221 $-1 #
edge $-1 $347 -7.3014742121808531 $455 7.3014742121808531 $331 $456 forward 7 unknown #
coedge $-1 $225 $224 $453 $457 forward $89 $-1 #
edge $-1 $338 -70.953093050935394 $455 70.953093050935394 $330 $458 forward 7 unknown #
coedge $-1 $343 $342 $225 $336 reversed $327 $-1 #
edge $-1 $459 -70.953093050935394 $337 70.953093050935394 $335 $460 forward 7 unknown #
vertex $-1 $227 $461 #
vertex $-1 $349 $462 #
straight-curve $-1 70.953093050935394 0 -7.3014742121808531 0 -1 0 I I #
coedge $-1 $329 $331 $228 $341 reversed $221 $-1 #
edge $-1 $344 -31.151194696821698 $347 31.151194696821698 $340 $463 forward 7 unknown #
coedge $-1 $335 $229 $234 $350 forward $327 $-1 #
coedge $-1 $229 $335 $329 $454 reversed $327 $-1 #
vertex $-1 $230 $464 #
straight-curve $-1 0 31.151194696821698 7.3014742121808531 -1 0 0 I I #
coedge $-1 $231 $330 $233 $349 reversed $139 $-1 #
vertex $-1 $341 $465 #
straight-curve $-1 0 -31.151194696821698 7.3014742121808531 1 0 0 I I #
edge $-1 $236 -7.3014742121808531 $338 7.3014742121808531 $233 $466 forward 7 unknown #
edge $-1 $237 -7.3014742121808531 $337 7.3014742121808531 $234 $467 forward 7 unknown #
point $-1 70.953093050935394 -31.151194696821698 7.3014742121808531 #
point $-1 70.953093050935394 31.151194696821698 7.3014742121808531 #
face $-1 $-1 $367 $34 $-1 $468 reversed single #
loop $-1 $-1 $469 $239 #
plane-surface $-1 0 -40.502505373288962 -5.8014742121808531 0 1 0 0 0 1 forward_v I I I I #
coedge $-1 $470 $242 $251 $371 reversed $147 $-1 #
coedge $-1 $242 $470 $243 $359 reversed $147 $-1 #
coedge $-1 $244 $243 $471 $472 forward $93 $-1 #
edge $-1 $363 31.151194696821698 $473 40.502505373288962 $357 $474 forward 7 unknown #
coedge $-1 $475 $248 $244 $361 reversed $367 $-1 #
edge $-1 $476 -40.502505373288962 $362 -31.151194696821698 $360 $477 forward 7 unknown #
vertex $-1 $249 $478 #
vertex $-1 $359 $479 #
straight-curve $-1 0 -31.151194696821698 -7.3014742121808531 1 0 0 I I #
straight-curve $-1 70.953093050935394 -31.151194696821698 0 0 0 1 I I #
coedge $-1 $248 $475 $250 $370 reversed $367 $-1 #
loop $-1 $-1 $248 $353 #
straight-curve $-1 -70.953093050935394 -31.151194696821698 0 0 0 -1 I I #
coedge $-1 $251 $250 $480 $481 forward $240 $-1 #
edge $-1 $252 -4.6756553382336321 $482 4.6756553382336321 $366 $483 forward 7 unknown #
edge $-1 $484 -4.6756553382336321 $253 4.6756553382336321 $356 $485 forward 7 unknown #
point $-1 -70.953093050935394 -31.151194696821698 -4.3014742121808531 #
point $-1 70.953093050935394 -31.151194696821698 -4.3014742121808531 #
plane-surface $-1 0 0 7.3014742121808531 0 0 1 1 0 0 forward_v I I I I #
coedge $-1 $385 $384 $377 $486 forward $256 $-1 #
coedge $-1 $377 $258 $260 $381 reversed $155 $-1 #
coedge $-1 $258 $376 $375 $486 reversed $155 $-1 #
coedge $-1 $266 $261 $258 $379 forward $267 $-1 #
edge $-1 $382 18.185953501570737 $487 23.247830811022041 $378 $488 forward 7 unknown #
coedge $-1 $260 $259 $385 $489 reversed $97 $-1 #
edge $-1 $490 -141.90618610187079 $382 -133.68433432262952 $376 $491 forward 7 unknown #
vertex $-1 $262 $492 #
straight-curve $-1 65.891215741484089 -6.4199291188660261 7.3014742121808496 0 -1 0 I I #
coedge $-1 $375 $263 $266 $389 reversed $256 $-1 #
coedge $-1 $263 $375 $380 $489 forward $256 $-1 #
vertex $-1 $264 $493 #
straight-curve $-1 70.953093050935394 -6.9756302207818965 100.00616937235367 0 0 1 I I #
straight-curve $-1 -16.413077343116825 -6.9756302207818965 112.64616835065512 0.61566146476048833 0 -0.78801076186113728 I I #
edge $-1 $487 -18.70408625468221 $268 -6.9756302207818965 $384 $494 forward 7 unknown #
point $-1 70.953093050935394 -6.9756302207818965 7.3014742121808531 #
point $-1 65.891215741484089 -6.9756302207818965 7.3014742121808354 #
edge $-1 $495 1 $495 0 $271 $-1 forward 7 unknown #
vertex $-1 $272 $496 #
ellipse-curve $-1 66.972485866134036 -15.353098816424975 2.9294152154993198 0.78801076186113728 0 0.61566146476048833 0.61566146476048833 0 -0.78801076186113728 1 I I #
point $-1 69.037815860970198 -15.353098816424975 3.2740096080851027 #
edge $-1 $497 1 $497 0 $275 $-1 forward 7 unknown #
vertex $-1 $276 $498 #
ellipse-curve $-1 66.972485866134036 -10.32661765903913 2.9294152154993198 0.78801076186113728 0 0.61566146476048833 0.61566146476048833 0 -0.78801076186113728 1 I I #
point $-1 69.037815860970198 -10.32661765903913 3.2740096080851027 #
plane-surface $-1 0 0 7.3014742121808531 0 0 1 1 0 0 forward_v I I I I #
coedge $-1 $411 $410 $403 $499 forward $280 $-1 #
coedge $-1 $403 $282 $284 $407 reversed $177 $-1 #
coedge $-1 $282 $402 $401 $499 reversed $177 $-1 #
coedge $-1 $290 $285 $282 $405 forward $291 $-1 #
edge $-1 $408 18.185953501570737 $500 23.247830811022041 $404 $501 forward 7 unknown #
coedge $-1 $284 $283 $411 $502 reversed $111 $-1 #
edge $-1 $503 -141.90618610187079 $408 -133.68433432262952 $402 $504 forward 7 unknown #
vertex $-1 $286 $505 #
straight-curve $-1 65.891215741484089 11.095584457099662 7.3014742121808496 0 -1 0 I I #
coedge $-1 $401 $287 $290 $415 reversed $280 $-1 #
coedge $-1 $287 $401 $406 $502 forward $280 $-1 #
vertex $-1 $288 $506 #
straight-curve $-1 70.953093050935394 28.055396931149481 100.00616937235367 0 0 1 I I #
straight-curve $-1 -16.413077343116825 28.055396931149481 112.64616835065512 0.61566146476048833 0 -0.78801076186113728 I I #
edge $-1 $500 16.326940897249166 $292 28.055396931149481 $410 $507 forward 7 unknown #
point $-1 70.953093050935394 28.055396931149481 7.3014742121808531 #
point $-1 65.891215741484089 28.055396931149481 7.3014742121808354 #
edge $-1 $508 1 $508 0 $295 $-1 forward 7 unknown #
vertex $-1 $296 $509 #
ellipse-curve $-1 66.972485866134036 19.677928335506401 2.9294152154993198 0.78801076186113728 0 0.61566146476048833 0.61566146476048833 0 -0.78801076186113728 1 I I #
point $-1 69.037815860970198 19.677928335506401 3.2740096080851027 #
edge $-1 $510 1 $510 0 $299 $-1 forward 7 unknown #
vertex $-1 $300 $511 #
ellipse-curve $-1 66.972485866134036 24.704409492892246 2.9294152154993198 0.78801076186113728 0 0.61566146476048833 0.61566146476048833 0 -0.78801076186113728 1 I I #
point $-1 69.037815860970198 24.704409492892246 3.2740096080851027 #
loop $-1 $-1 $311 $303 #
plane-surface $-1 -70.953093050935394 0 0 1 0 0 0 0 -1 forward_v I I I I #
coedge $-1 $429 $306 $308 $433 reversed $199 $-1 #
coedge $-1 $306 $428 $512 $513 reversed $199 $-1 #
coedge $-1 $314 $309 $306 $431 forward $304 $-1 #
edge $-1 $434 -14.302556232263164 $514 -4.1999201035773268 $430 $515 forward 7 unknown #
coedge $-1 $308 $307 $437 $516 reversed $125 $-1 #
edge $-1 $517 0 $434 12.185981097680486 $428 $518 forward 7 unknown #
vertex $-1 $310 $519 #
straight-curve $-1 -60.850456922249549 3.4821626381116921 7.3014742121808531 0 1 0 I I #
coedge $-1 $512 $311 $314 $441 reversed $426 $-1 #
coedge $-1 $311 $512 $432 $516 forward $426 $-1 #
vertex $-1 $312 $520 #
straight-curve $-1 -70.953093050935394 3.5128531612883513 59.066359666383697 0 0 1 I I #
straight-curve $-1 -70.953093050935394 3.5128531612883513 0.48715997196579508 -0.82903756765294845 0 -0.55919291073839883 I I #
edge $-1 $514 -10.415797391158417 $315 -3.5128531612883513 $436 $521 forward 7 unknown #
point $-1 -70.953093050935394 3.5128531612883513 7.3014742121808531 #
point $-1 -60.850456922249556 3.5128531612883513 7.3014742121808531 #
edge $-1 $522 1 $522 0 $318 $-1 forward 7 unknown #
vertex $-1 $319 $523 #
ellipse-curve $-1 -65.096536853814484 5.4851229412512339 2.7005024886332589 -0.55919291073839883 0 0.82903756765294845 0.41451878382647422 0 0.27959645536919941 1 I I #
point $-1 -65.487256202765991 5.4851229412512339 4.1739135474425213 #
edge $-1 $524 1 $524 0 $322 $-1 forward 7 unknown #
vertex $-1 $323 $525 #
ellipse-curve $-1 -65.096536853814484 8.4435276111955488 2.7005024886332589 -0.55919291073839883 0 0.82903756765294845 0.41451878382647422 0 0.27959645536919941 1 I I #
point $-1 -65.487256202765991 8.4435276111955488 4.1739135474425213 #
plane-surface $-1 70.953093050935394 0 0 -1 0 0 0 0 1 forward_v I I I I #
coedge $-1 $331 $329 $333 $457 reversed $221 $-1 #
edge $-1 $344 -7.3014742121808531 $459 7.3014742121808531 $343 $526 forward 7 unknown #
vertex $-1 $457 $527 #
straight-curve $-1 -70.953093050935394 -31.151194696821698 0 0 0 -1 I I #
edge $-1 $455 -31.151194696821698 $459 31.151194696821698 $453 $528 forward 7 unknown #
straight-curve $-1 0 -31.151194696821698 -7.3014742121808531 -1 0 0 I I #
vertex $-1 $336 $529 #
straight-curve $-1 0 31.151194696821698 -7.3014742121808531 1 0 0 I I #
point $-1 70.953093050935394 31.151194696821698 -7.3014742121808531 #
point $-1 70.953093050935394 -31.151194696821698 -7.3014742121808531 #
straight-curve $-1 -70.953093050935394 0 7.3014742121808531 0 -1 0 I I #
point $-1 -70.953093050935394 31.151194696821698 7.3014742121808531 #
point $-1 -70.953093050935394 -31.151194696821698 7.3014742121808531 #
straight-curve $-1 70.953093050935394 -31.151194696821698 0 0 0 -1 I I #
straight-curve $-1 70.953093050935394 31.151194696821698 0 0 0 -1 I I #
plane-surface $-1 -70.953093050935394 0 0 1 0 0 0 0 -1 forward_v I I I I #
coedge $-1 $471 $480 $475 $530 forward $354 $-1 #
coedge $-1 $357 $356 $531 $532 forward $147 $-1 #
coedge $-1 $531 $469 $358 $472 reversed $354 $-1 #
edge $-1 $473 -70.953093050935394 $476 70.953093050935394 $471 $533 forward 7 unknown #
vertex $-1 $532 $534 #
straight-curve $-1 70.953093050935394 0 -7.3014742121808531 0 -1 0 I I #
coedge $-1 $366 $360 $469 $530 reversed $367 $-1 #
vertex $-1 $361 $535 #
straight-curve $-1 -70.953093050935394 0 -7.3014742121808531 0 1 0 I I #
point $-1 -70.953093050935394 -31.151194696821698 -7.3014742121808531 #
point $-1 70.953093050935394 -31.151194696821698 -7.3014742121808531 #
coedge $-1 $469 $531 $369 $481 reversed $354 $-1 #
edge $-1 $482 -70.953093050935394 $484 70.953093050935394 $480 $536 forward 7 unknown #
vertex $-1 $370 $537 #
straight-curve $-1 -70.953093050935394 -35.82685003505533 -4.3014742121808531 0 -1 0 I I #
vertex $-1 $371 $538 #
straight-curve $-1 70.953093050935394 -35.82685003505533 -4.3014742121808531 0 1 0 I I #
edge $-1 $487 92.704695160172818 $490 99.183602844642081 $375 $539 forward 7 unknown #
vertex $-1 $389 $540 #
straight-curve $-1 47.705262239913353 -18.70408625468221 7.3014742121808496 1 0 0 I I #
edge $-1 $490 -12.284157135816184 $386 -0.55570110191587041 $385 $541 forward 7 unknown #
vertex $-1 $489 $542 #
straight-curve $-1 -16.413077343116825 -18.70408625468221 112.64616835065512 -0.61566146476048833 0 0.78801076186113728 I I #
point $-1 65.891215741484089 -18.70408625468221 7.3014742121808354 #
point $-1 70.953093050935394 -6.9756302207818965 0.82256652771158656 #
straight-curve $-1 70.953093050935394 0 7.3014742121808531 0 1 0 I I #
vertex $-1 $392 $543 #
point $-1 67.588147330894529 -15.353098816424975 2.1414044536381827 #
vertex $-1 $396 $544 #
point $-1 67.588147330894529 -10.32661765903913 2.1414044536381827 #
edge $-1 $500 92.704695160172818 $503 99.183602844642081 $401 $545 forward 7 unknown #
vertex $-1 $415 $546 #
straight-curve $-1 47.705262239913353 16.326940897249166 7.3014742121808496 1 0 0 I I #
edge $-1 $503 5.2313564401495043 $412 16.959812474049819 $411 $547 forward 7 unknown #
vertex $-1 $502 $548 #
straight-curve $-1 -16.413077343116825 16.326940897249166 112.64616835065512 -0.61566146476048833 0 0.78801076186113728 I I #
point $-1 65.891215741484089 16.326940897249166 7.3014742121808354 #
point $-1 70.953093050935394 28.055396931149481 0.82256652771158656 #
straight-curve $-1 70.953093050935394 0 7.3014742121808531 0 1 0 I I #
vertex $-1 $418 $549 #
point $-1 67.588147330894529 19.677928335506401 2.1414044536381827 #
vertex $-1 $422 $550 #
point $-1 67.588147330894529 24.704409492892246 2.1414044536381827 #
coedge $-1 $437 $436 $429 $513 forward $426 $-1 #
edge $-1 $514 51.76488545420284 $517 58.579199694417902 $512 $551 forward 7 unknown #
vertex $-1 $441 $552 #
straight-curve $-1 -75.15301315451272 10.415797391158417 7.3014742121808496 -1 0 0 I I #
edge $-1 $517 -6.9336347530467251 $438 -0.030690523176659212 $437 $553 forward 7 unknown #
vertex $-1 $516 $554 #
straight-curve $-1 -70.953093050935394 10.415797391158417 0.48715997196579508 0.82903756765294845 0 0.55919291073839883 I I #
point $-1 -60.850456922249556 10.415797391158417 7.3014742121808531 #
point $-1 -70.953093050935394 3.5128531612883513 0.48715997196579508 #
straight-curve $-1 -70.953093050935394 0 7.3014742121808531 0 -1 0 I I #
vertex $-1 $444 $555 #
point $-1 -64.682018069988018 5.4851229412512339 2.9800989440024583 #
vertex $-1 $448 $556 #
point $-1 -64.682018069988018 8.4435276111955488 2.9800989440024583 #
straight-curve $-1 -70.953093050935394 31.151194696821698 0 0 0 -1 I I #
point $-1 -70.953093050935394 -31.151194696821698 -7.3014742121808531 #
straight-curve $-1 -70.953093050935394 0 -7.3014742121808531 0 1 0 I I #
point $-1 -70.953093050935394 31.151194696821698 -7.3014742121808531 #
edge $-1 $482 -1.5 $476 1.5 $475 $557 forward 7 unknown #
coedge $-1 $480 $471 $470 $532 reversed $354 $-1 #
edge $-1 $484 -1.5 $473 1.5 $470 $558 forward 7 unknown #
straight-curve $-1 0 -40.502505373288962 -7.3014742121808531 -1 0 0 I I #
point $-1 70.953093050935394 -40.502505373288962 -7.3014742121808531 #
point $-1 -70.953093050935394 -40.502505373288962 -7.3014742121808531 #
straight-curve $-1 0 -40.502505373288962 -4.3014742121808531 1 0 0 I I #
point $-1 -70.953093050935394 -40.502505373288962 -4.3014742121808531 #
point $-1 70.953093050935394 -40.502505373288962 -4.3014742121808531 #
straight-curve $-1 70.953093050935394 -18.70408625468221 100.00616937235367 0 0 -1 I I #
point $-1 70.953093050935394 -18.70408625468221 7.3014742121808531 #
straight-curve $-1 70.953093050935408 -6.4199291188660261 0.82256652771158656 0 1 0 I I #
point $-1 70.953093050935394 -18.70408625468221 0.82256652771158656 #
point $-1 66.184475104272906 -15.353098816424975 2.3137537507388317 #
point $-1 66.184475104272906 -10.32661765903913 2.3137537507388317 #
straight-curve $-1 70.953093050935394 16.326940897249166 100.00616937235367 0 0 -1 I I #
point $-1 70.953093050935394 16.326940897249166 7.3014742121808531 #
straight-curve $-1 70.953093050935408 11.095584457099662 0.82256652771158656 0 1 0 I I #
point $-1 70.953093050935394 16.326940897249166 0.82256652771158656 #
point $-1 66.184475104272906 19.677928335506401 2.3137537507388317 #
point $-1 66.184475104272906 24.704409492892246 2.3137537507388317 #
straight-curve $-1 -70.953093050935394 10.415797391158417 59.066359666383697 0 0 -1 I I #
point $-1 -70.953093050935394 10.415797391158417 7.3014742121808531 #
straight-curve $-1 -70.953093050935394 3.4821626381116921 0.48715997196579064 0 -1 0 I I #
point $-1 -70.953093050935394 10.415797391158417 0.48715997196579508 #
point $-1 -64.816940398445297 5.4851229412512339 2.2859837048067848 #
point $-1 -64.816940398445297 8.4435276111955488 2.2859837048067848 #
straight-curve $-1 -70.953093050935394 -40.502505373288962 -5.8014742121808531 0 0 -1 I I #
straight-curve $-1 70.953093050935394 -40.502505373288962 -5.8014742121808531 0 0 -1 I I #
End-of-ACIS-data 