500 0 11 0           
7 Unknown 11 ACIS 5.0 NT 24 Fri Mar 26 18:45:19 1999 
-1 9.9999999999999995e-007 1e-010 
body $-1 $11 $-1 $12 #
body $-1 $13 $-1 $14 #
body $-1 $15 $-1 $16 #
body $-1 $17 $-1 $18 #
body $-1 $19 $-1 $20 #
body $-1 $21 $-1 $22 #
body $-1 $23 $-1 $24 #
body $-1 $25 $-1 $26 #
body $-1 $27 $-1 $28 #
body $-1 $29 $-1 $30 #
body $-1 $31 $-1 $32 #
lump $-1 $-1 $33 $0 #
transform $-1 1 0 0 0 1 0 0 0 1 64.246345408490242 37.116886413796919 10.143681330207526 1 rotate no_reflect no_shear #
lump $-1 $-1 $34 $1 #
transform $-1 1 0 0 0 1 0 0 0 1 64.246345408490242 37.116886413796919 10.143681330207526 1 rotate no_reflect no_shear #
lump $-1 $-1 $35 $2 #
transform $-1 1 0 0 0 1 0 0 0 1 64.246345408490242 37.116886413796919 10.143681330207526 1 rotate no_reflect no_shear #
lump $-1 $-1 $36 $3 #
transform $-1 1 0 0 0 1 0 0 0 1 64.246345408490242 37.116886413796919 10.143681330207526 1 rotate no_reflect no_shear #
lump $-1 $-1 $37 $4 #
transform $-1 1 0 0 0 1 0 0 0 1 64.246345408490242 37.116886413796919 10.143681330207526 1 rotate no_reflect no_shear #
lump $-1 $-1 $38 $5 #
transform $-1 1 0 0 0 1 0 0 0 1 64.246345408490242 37.116886413796919 10.143681330207526 1 rotate no_reflect no_shear #
lump $-1 $-1 $39 $6 #
transform $-1 1 0 0 0 1 0 0 0 1 64.246345408490242 37.116886413796919 10.143681330207526 1 rotate no_reflect no_shear #
lump $-1 $-1 $40 $7 #
transform $-1 1 0 0 0 1 0 0 0 1 64.246345408490242 37.116886413796919 10.143681330207526 1 rotate no_reflect no_shear #
lump $-1 $-1 $41 $8 #
transform $-1 1 0 0 0 1 0 0 0 1 64.246345408490242 37.116886413796919 10.143681330207526 1 rotate no_reflect no_shear #
lump $-1 $-1 $42 $9 #
transform $-1 1 0 0 0 1 0 0 0 1 64.246345408490242 37.116886413796919 10.143681330207526 1 rotate no_reflect no_shear #
lump $-1 $-1 $43 $10 #
transform $-1 1 0 0 0 1 0 0 0 1 64.246345408490242 37.116886413796919 10.143681330207526 1 rotate no_reflect no_shear #
shell $-1 $-1 $-1 $44 $-1 $11 #
shell $-1 $-1 $-1 $45 $-1 $13 #
shell $-1 $-1 $-1 $46 $-1 $15 #
shell $-1 $-1 $-1 $47 $-1 $17 #
shell $-1 $-1 $-1 $48 $-1 $19 #
shell $-1 $-1 $-1 $49 $-1 $21 #
shell $-1 $-1 $-1 $50 $-1 $23 #
shell $-1 $-1 $-1 $51 $-1 $25 #
shell $-1 $-1 $-1 $52 $-1 $27 #
shell $-1 $-1 $-1 $53 $-1 $29 #
shell $-1 $-1 $-1 $54 $-1 $31 #
face $-1 $55 $56 $33 $-1 $57 forward single #
face $-1 $58 $59 $34 $-1 $60 reversed single #
face $-1 $61 $62 $35 $-1 $63 reversed single #
face $-1 $64 $65 $36 $-1 $66 forward single #
face $-1 $67 $68 $37 $-1 $69 forward single #
face $-1 $70 $71 $38 $-1 $72 reversed single #
face $-1 $73 $74 $39 $-1 $75 forward single #
face $-1 $76 $77 $40 $-1 $78 forward single #
face $-1 $79 $80 $41 $-1 $81 reversed single #
face $-1 $82 $83 $42 $-1 $84 forward single #
face $-1 $85 $86 $43 $-1 $87 forward single #
face $-1 $88 $89 $33 $-1 $90 reversed single #
loop $-1 $-1 $91 $44 #
plane-surface $-1 0 0 10.143681330207526 0 0 1 1 0 0 forward_v I I I I #
face $-1 $92 $93 $34 $-1 $94 reversed single #
loop $-1 $-1 $95 $45 #
plane-surface $-1 0 -31.482253616832118 6.4930457378553026 0 0 1 1 0 0 forward_v I I I I #
face $-1 $96 $97 $35 $-1 $98 reversed single #
loop $-1 $-1 $99 $46 #
plane-surface $-1 -161.22101122168959 19.161942023997344 88.95688668768797 0 1 0 -0.75470958851134928 0 0.65605901945558964 forward_v I I I I #
face $-1 $100 $101 $36 $-1 $102 forward single #
loop $-1 $103 $104 $47 #
cone-surface $-1 -60.96530980417667 22.746682395021885 6.6213452812606679 0.75470958851134928 0 -0.65605901945558964 0.65605901945558964 0 0.75470958851134928 1 I I 0 1 1 forward I I I I #
face $-1 $105 $106 $37 $-1 $107 forward single #
loop $-1 $108 $109 $48 #
cone-surface $-1 -60.96530980417667 28.123792951558698 6.6213452812606679 0.75470958851134928 0 -0.65605901945558964 0.65605901945558964 0 0.75470958851134928 1 I I 0 1 1 forward I I I I #
face $-1 $110 $111 $38 $-1 $112 reversed single #
loop $-1 $-1 $113 $49 #
plane-surface $-1 111.27793716349723 -1.4737112383918571 176.34510374551382 0 -1 0 -0.86602541151947299 0 -0.49999998660252726 forward_v I I I I #
face $-1 $114 $115 $39 $-1 $116 forward single #
loop $-1 $117 $118 $50 #
cone-surface $-1 61.048792463531704 -12.178781005729189 5.1899543270426518 -0.86602541151947299 0 -0.49999998660252726 0.49999998660252726 0 -0.86602541151947299 1 I I 0 1 1 forward I I I I #
face $-1 $119 $120 $40 $-1 $121 forward single #
loop $-1 $122 $123 $51 #
cone-surface $-1 61.048792463531704 -5.7557391453267925 5.1899543270426518 -0.86602541151947299 0 -0.49999998660252726 0.49999998660252726 0 -0.86602541151947299 1 I I 0 1 1 forward I I I I #
face $-1 $124 $125 $41 $-1 $126 reversed single #
loop $-1 $-1 $127 $52 #
plane-surface $-1 111.27793716349723 27.730074506593731 176.34510374551382 0 -1 0 -0.86602541151947299 0 -0.49999998660252726 forward_v I I I I #
face $-1 $128 $129 $42 $-1 $130 forward single #
loop $-1 $131 $132 $53 #
cone-surface $-1 61.048792463531704 17.025004739256403 5.1899543270426518 -0.86602541151947299 0 -0.49999998660252726 0.49999998660252726 0 -0.86602541151947299 1 I I 0 1 1 forward I I I I #
face $-1 $133 $134 $43 $-1 $135 forward single #
loop $-1 $136 $137 $54 #
cone-surface $-1 61.048792463531704 23.448046599658795 5.1899543270426518 -0.86602541151947299 0 -0.49999998660252726 0.49999998660252726 0 -0.86602541151947299 1 I I 0 1 1 forward I I I I #
face $-1 $138 $139 $33 $-1 $140 reversed single #
loop $-1 $-1 $141 $55 #
plane-surface $-1 0 0 -10.143681330207526 0 0 1 1 0 0 forward_v I I I I #
coedge $-1 $142 $143 $144 $145 forward $56 $-1 #
face $-1 $146 $147 $34 $-1 $148 reversed single #
loop $-1 $-1 $149 $58 #
plane-surface $-1 0 -25.847620819867316 8.3183635340314144 0 -1 0 0 0 -1 forward_v I I I I #
coedge $-1 $150 $151 $152 $153 reversed $59 $-1 #
face $-1 $154 $155 $35 $-1 $156 reversed single #
loop $-1 $-1 $157 $61 #
plane-surface $-1 -64.246345408490228 25.435237673290288 4.6580979430895013 -0.75470958851134928 0 0.65605901945558964 0.65605901945558964 0 0.75470958851134928 forward_v I I I I #
coedge $-1 $158 $159 $160 $161 reversed $62 $-1 #
face $-1 $-1 $162 $36 $-1 $163 forward single #
loop $-1 $164 $165 $64 #
cone-surface $-1 -59.691191788573448 22.746682395021885 5.5137714161450244 0.75470958851134928 0 -0.65605901945558964 0.32802950972779482 0 0.37735479425567464 1 I I -0.70710678118654746 0.70710678118654746 0.5 forward I I I I #
loop $-1 $-1 $166 $47 #
coedge $-1 $104 $104 $167 $168 reversed $65 $-1 #
face $-1 $-1 $169 $37 $-1 $170 forward single #
loop $-1 $171 $172 $67 #
cone-surface $-1 -59.691191788573448 28.123792951558698 5.5137714161450244 0.75470958851134928 0 -0.65605901945558964 0.32802950972779482 0 0.37735479425567464 1 I I -0.70710678118654746 0.70710678118654746 0.5 forward I I I I #
loop $-1 $-1 $173 $48 #
coedge $-1 $109 $109 $174 $175 reversed $68 $-1 #
face $-1 $176 $177 $38 $-1 $178 reversed single #
loop $-1 $-1 $179 $70 #
plane-surface $-1 1.7214772896068098e-006 -8.9672600755279888 112.0987600585009 0.86602541151947299 0 0.49999998660252726 0.49999998660252726 0 -0.86602541151947299 forward_v I I I I #
coedge $-1 $180 $181 $182 $183 reversed $71 $-1 #
face $-1 $-1 $184 $39 $-1 $185 forward single #
loop $-1 $186 $187 $73 #
cone-surface $-1 60.10950363330646 -12.178781005729189 4.6476556874397819 -0.86602541151947299 0 -0.49999998660252726 0.24999999330126363 0 -0.43301270575973649 1 I I -0.70710678118654746 0.70710678118654746 0.5 forward I I I I #
loop $-1 $-1 $188 $50 #
coedge $-1 $118 $118 $189 $190 reversed $74 $-1 #
face $-1 $-1 $191 $40 $-1 $192 forward single #
loop $-1 $193 $194 $76 #
cone-surface $-1 60.10950363330646 -5.7557391453267925 4.6476556874397819 -0.86602541151947299 0 -0.49999998660252726 0.24999999330126363 0 -0.43301270575973649 1 I I -0.70710678118654746 0.70710678118654746 0.5 forward I I I I #
loop $-1 $-1 $195 $51 #
coedge $-1 $123 $123 $196 $197 reversed $77 $-1 #
face $-1 $198 $199 $41 $-1 $200 reversed single #
loop $-1 $-1 $201 $79 #
plane-surface $-1 1.7214772896068098e-006 20.236525669457599 112.0987600585009 0.86602541151947299 0 0.49999998660252726 0.49999998660252726 0 -0.86602541151947299 forward_v I I I I #
coedge $-1 $202 $203 $204 $205 reversed $80 $-1 #
face $-1 $-1 $206 $42 $-1 $207 forward single #
loop $-1 $208 $209 $82 #
cone-surface $-1 60.10950363330646 17.025004739256403 4.6476556874397819 -0.86602541151947299 0 -0.49999998660252726 0.24999999330126363 0 -0.43301270575973649 1 I I -0.70710678118654746 0.70710678118654746 0.5 forward I I I I #
loop $-1 $-1 $210 $53 #
coedge $-1 $132 $132 $211 $212 reversed $83 $-1 #
face $-1 $-1 $213 $43 $-1 $214 forward single #
loop $-1 $215 $216 $85 #
cone-surface $-1 60.10950363330646 23.448046599658795 4.6476556874397819 -0.86602541151947299 0 -0.49999998660252726 0.24999999330126363 0 -0.43301270575973649 1 I I -0.70710678118654746 0.70710678118654746 0.5 forward I I I I #
loop $-1 $-1 $217 $54 #
coedge $-1 $137 $137 $218 $219 reversed $86 $-1 #
face $-1 $220 $221 $33 $-1 $222 reversed single #
loop $-1 $-1 $223 $88 #
plane-surface $-1 0 -37.116886413796919 0 0 1 0 0 0 1 forward_v I I I I #
coedge $-1 $224 $225 $226 $227 forward $89 $-1 #
coedge $-1 $228 $91 $229 $230 forward $56 $-1 #
coedge $-1 $91 $228 $231 $232 forward $56 $-1 #
coedge $-1 $233 $234 $91 $145 reversed $235 $-1 #
edge $-1 $236 -37.116886413796919 $237 37.116886413796919 $144 $238 forward 7 unknown #
face $-1 $239 $240 $34 $-1 $241 reversed single #
loop $-1 $-1 $242 $92 #
plane-surface $-1 -64.246345408490242 0 0 1 0 0 0 0 -1 forward_v I I I I #
coedge $-1 $243 $244 $245 $246 reversed $93 $-1 #
coedge $-1 $247 $95 $248 $249 reversed $59 $-1 #
coedge $-1 $95 $247 $243 $250 forward $59 $-1 #
coedge $-1 $245 $251 $95 $153 forward $252 $-1 #
edge $-1 $253 -21.375759605380861 $254 -10.106494011451257 $152 $255 forward 7 unknown #
face $-1 $256 $257 $35 $-1 $258 forward single #
loop $-1 $-1 $259 $96 #
plane-surface $-1 -161.22101122168959 31.708533322583232 88.95688668768797 0 -1 0 0.75470958851134928 0 -0.65605901945558964 forward_v I I I I #
coedge $-1 $260 $261 $262 $263 reversed $97 $-1 #
coedge $-1 $159 $99 $264 $265 reversed $62 $-1 #
coedge $-1 $99 $158 $260 $266 reversed $62 $-1 #
coedge $-1 $262 $267 $99 $161 forward $257 $-1 #
edge $-1 $268 16.364160202354554 $269 21.132704968286617 $160 $270 forward 7 unknown #
loop $-1 $-1 $167 $100 #
plane-surface $-1 -64.246345408490228 25.435237673290288 4.6580979430895013 -0.75470958851134928 0 0.65605901945558964 0.65605901945558964 0 0.75470958851134928 forward_v I I I I #
loop $-1 $-1 $271 $64 #
coedge $-1 $165 $165 $166 $272 reversed $101 $-1 #
coedge $-1 $166 $166 $165 $272 forward $103 $-1 #
coedge $-1 $167 $167 $104 $168 forward $162 $-1 #
edge $-1 $273 0 $273 6.2831853071796004 $167 $274 forward 7 unknown #
loop $-1 $-1 $174 $105 #
plane-surface $-1 -64.246345408490228 25.435237673290288 4.6580979430895013 -0.75470958851134928 0 0.65605901945558964 0.65605901945558964 0 0.75470958851134928 forward_v I I I I #
loop $-1 $-1 $275 $67 #
coedge $-1 $172 $172 $173 $276 reversed $106 $-1 #
coedge $-1 $173 $173 $172 $276 forward $108 $-1 #
coedge $-1 $174 $174 $109 $175 forward $169 $-1 #
edge $-1 $277 0 $277 6.2831853071796004 $174 $278 forward 7 unknown #
face $-1 $279 $280 $38 $-1 $281 reversed single #
loop $-1 $-1 $282 $110 #
plane-surface $-1 111.27793716349723 -16.46080891266412 176.34510374551382 0 1 0 0.86602541151947299 0 0.49999998660252726 forward_v I I I I #
coedge $-1 $283 $284 $285 $286 reversed $111 $-1 #
coedge $-1 $181 $113 $287 $288 reversed $71 $-1 #
coedge $-1 $113 $180 $283 $289 reversed $71 $-1 #
coedge $-1 $285 $290 $113 $183 forward $291 $-1 #
edge $-1 $292 -8.6073768267416284 $293 -3.224823185755568 $182 $294 forward 7 unknown #
loop $-1 $-1 $189 $114 #
plane-surface $-1 1.7214772896068098e-006 -8.9672600755279888 112.0987600585009 0.86602541151947299 0 0.49999998660252726 0.49999998660252726 0 -0.86602541151947299 forward_v I I I I #
loop $-1 $-1 $295 $73 #
coedge $-1 $187 $187 $188 $296 reversed $115 $-1 #
coedge $-1 $188 $188 $187 $296 forward $117 $-1 #
coedge $-1 $189 $189 $118 $190 forward $184 $-1 #
edge $-1 $297 0 $297 6.2831853071796004 $189 $298 forward 7 unknown #
loop $-1 $-1 $196 $119 #
plane-surface $-1 1.7214772896068098e-006 -8.9672600755279888 112.0987600585009 0.86602541151947299 0 0.49999998660252726 0.49999998660252726 0 -0.86602541151947299 forward_v I I I I #
loop $-1 $-1 $299 $76 #
coedge $-1 $194 $194 $195 $300 reversed $120 $-1 #
coedge $-1 $195 $195 $194 $300 forward $122 $-1 #
coedge $-1 $196 $196 $123 $197 forward $191 $-1 #
edge $-1 $301 0 $301 6.2831853071796004 $196 $302 forward 7 unknown #
face $-1 $303 $304 $41 $-1 $305 reversed single #
loop $-1 $-1 $306 $124 #
plane-surface $-1 111.27793716349723 12.742976832321467 176.34510374551382 0 1 0 0.86602541151947299 0 0.49999998660252726 forward_v I I I I #
coedge $-1 $307 $308 $309 $310 reversed $125 $-1 #
coedge $-1 $203 $127 $311 $312 reversed $80 $-1 #
coedge $-1 $127 $202 $307 $313 reversed $80 $-1 #
coedge $-1 $309 $314 $127 $205 forward $315 $-1 #
edge $-1 $316 -8.6073768267416284 $317 -3.224823185755568 $204 $318 forward 7 unknown #
loop $-1 $-1 $211 $128 #
plane-surface $-1 1.7214772896068098e-006 20.236525669457599 112.0987600585009 0.86602541151947299 0 0.49999998660252726 0.49999998660252726 0 -0.86602541151947299 forward_v I I I I #
loop $-1 $-1 $319 $82 #
coedge $-1 $209 $209 $210 $320 reversed $129 $-1 #
coedge $-1 $210 $210 $209 $320 forward $131 $-1 #
coedge $-1 $211 $211 $132 $212 forward $206 $-1 #
edge $-1 $321 0 $321 6.2831853071796004 $211 $322 forward 7 unknown #
loop $-1 $-1 $218 $133 #
plane-surface $-1 1.7214772896068098e-006 20.236525669457599 112.0987600585009 0.86602541151947299 0 0.49999998660252726 0.49999998660252726 0 -0.86602541151947299 forward_v I I I I #
loop $-1 $-1 $323 $85 #
coedge $-1 $216 $216 $217 $324 reversed $134 $-1 #
coedge $-1 $217 $217 $216 $324 forward $136 $-1 #
coedge $-1 $218 $218 $137 $219 forward $213 $-1 #
edge $-1 $325 0 $325 6.2831853071796004 $218 $326 forward 7 unknown #
face $-1 $327 $328 $33 $-1 $329 reversed single #
loop $-1 $-1 $330 $138 #
plane-surface $-1 -64.246345408490242 0 0 1 0 0 0 0 -1 forward_v I I I I #
coedge $-1 $331 $231 $332 $333 forward $139 $-1 #
coedge $-1 $334 $141 $331 $335 forward $89 $-1 #
coedge $-1 $141 $334 $336 $337 forward $89 $-1 #
coedge $-1 $234 $233 $141 $227 reversed $235 $-1 #
edge $-1 $338 -37.116886413796919 $339 37.116886413796919 $226 $340 forward 7 unknown #
coedge $-1 $143 $142 $341 $342 forward $56 $-1 #
coedge $-1 $343 $344 $142 $230 reversed $328 $-1 #
edge $-1 $237 -64.246345408490242 $345 64.246345408490242 $229 $346 forward 7 unknown #
coedge $-1 $223 $347 $143 $232 reversed $139 $-1 #
edge $-1 $348 -64.246345408490242 $236 64.246345408490242 $231 $349 forward 7 unknown #
coedge $-1 $226 $144 $347 $350 forward $235 $-1 #
coedge $-1 $144 $226 $343 $351 reversed $235 $-1 #
loop $-1 $-1 $233 $327 #
vertex $-1 $145 $352 #
vertex $-1 $145 $353 #
straight-curve $-1 64.246345408490242 0 10.143681330207526 0 1 0 I I #
face $-1 $354 $355 $34 $-1 $356 forward single #
loop $-1 $-1 $248 $146 #
plane-surface $-1 0 -37.116886413796919 0 0 1 0 0 0 1 forward_v I I I I #
coedge $-1 $357 $358 $359 $360 forward $147 $-1 #
coedge $-1 $359 $149 $151 $250 reversed $93 $-1 #
coedge $-1 $149 $359 $361 $362 reversed $93 $-1 #
coedge $-1 $363 $152 $149 $246 forward $252 $-1 #
edge $-1 $254 2.3338639708395954 $364 5.984499563191819 $245 $365 forward 7 unknown #
coedge $-1 $151 $150 $357 $366 reversed $59 $-1 #
coedge $-1 $367 $368 $150 $249 forward $240 $-1 #
edge $-1 $369 -64.246345408490242 $253 64.246345408490242 $248 $370 forward 7 unknown #
edge $-1 $371 -64.246345408490242 $254 64.246345408490242 $243 $372 forward 7 unknown #
coedge $-1 $152 $363 $367 $373 forward $252 $-1 #
loop $-1 $-1 $245 $354 #
vertex $-1 $249 $374 #
vertex $-1 $153 $375 #
straight-curve $-1 64.246345408490242 -15.741126808416059 6.4930457378553026 0 1 0 I I #
face $-1 $-1 $376 $35 $-1 $377 reversed single #
loop $-1 $-1 $160 $154 #
plane-surface $-1 0 0 10.143681330207526 0 0 1 1 0 0 forward_v I I I I #
coedge $-1 $378 $379 $380 $381 reversed $155 $-1 #
coedge $-1 $382 $157 $159 $266 forward $97 $-1 #
coedge $-1 $157 $382 $378 $383 forward $97 $-1 #
coedge $-1 $380 $160 $157 $263 forward $257 $-1 #
edge $-1 $269 6.4443231873522002 $384 18.990914485938088 $262 $385 forward 7 unknown #
coedge $-1 $386 $387 $158 $265 forward $376 $-1 #
edge $-1 $388 -39.820345400754498 $268 -34.334762013636457 $264 $389 forward 7 unknown #
edge $-1 $269 -7.2684691842040037 $388 2.1388861263899031e-014 $159 $390 forward 7 unknown #
coedge $-1 $160 $380 $386 $391 forward $257 $-1 #
vertex $-1 $265 $392 #
vertex $-1 $161 $393 #
straight-curve $-1 -80.610505610844797 19.161942023997344 10.143681330207528 1 0 0 I I #
coedge $-1 $271 $271 $-1 $394 reversed $164 $-1 #
edge $-1 $395 0 $395 6.2831853071796004 $165 $396 forward 7 unknown #
vertex $-1 $168 $397 #
ellipse-curve $-1 -61.862073025524211 22.746682395021885 7.4008896366485084 -0.75470958851134928 0 0.65605901945558964 0.65605901945558964 0 0.75470958851134928 1 I I #
coedge $-1 $275 $275 $-1 $398 reversed $171 $-1 #
edge $-1 $399 0 $399 6.2831853071796004 $172 $400 forward 7 unknown #
vertex $-1 $175 $401 #
ellipse-curve $-1 -61.862073025524211 28.123792951558698 7.4008896366485084 -0.75470958851134928 0 0.65605901945558964 0.65605901945558964 0 0.75470958851134928 1 I I #
face $-1 $-1 $291 $38 $-1 $402 forward single #
loop $-1 $-1 $403 $176 #
plane-surface $-1 64.246345408490242 0 0 -1 0 0 0 0 1 forward_v I I I I #
coedge $-1 $404 $405 $406 $407 reversed $177 $-1 #
coedge $-1 $408 $179 $181 $289 forward $111 $-1 #
coedge $-1 $179 $408 $404 $409 forward $111 $-1 #
coedge $-1 $406 $182 $179 $286 forward $291 $-1 #
edge $-1 $293 -3.0099187993721372 $410 11.977178874900126 $285 $411 forward 7 unknown #
coedge $-1 $412 $413 $180 $288 forward $280 $-1 #
edge $-1 $414 -87.351727256275993 $292 -78.028870542549384 $287 $415 forward 7 unknown #
edge $-1 $293 117.72758324655797 $414 128.49269081698054 $181 $416 forward 7 unknown #
coedge $-1 $182 $406 $412 $417 forward $291 $-1 #
loop $-1 $-1 $406 $279 #
vertex $-1 $288 $418 #
vertex $-1 $183 $419 #
straight-curve $-1 55.638968581748614 -1.4737112383918571 10.143681330207528 -1 0 0 I I #
coedge $-1 $295 $295 $-1 $420 reversed $186 $-1 #
edge $-1 $421 0 $421 6.2831853071796004 $187 $422 forward 7 unknown #
vertex $-1 $190 $423 #
ellipse-curve $-1 61.555068587997191 -12.178781005729189 5.4822529733442451 0.86602541151947299 0 0.49999998660252726 0.49999998660252726 0 -0.86602541151947299 1 I I #
coedge $-1 $299 $299 $-1 $424 reversed $193 $-1 #
edge $-1 $425 0 $425 6.2831853071796004 $194 $426 forward 7 unknown #
vertex $-1 $197 $427 #
ellipse-curve $-1 61.555068587997191 -5.7557391453267925 5.4822529733442451 0.86602541151947299 0 0.49999998660252726 0.49999998660252726 0 -0.86602541151947299 1 I I #
face $-1 $-1 $315 $41 $-1 $428 forward single #
loop $-1 $-1 $429 $198 #
plane-surface $-1 64.246345408490242 0 0 -1 0 0 0 0 1 forward_v I I I I #
coedge $-1 $430 $431 $432 $433 reversed $199 $-1 #
coedge $-1 $434 $201 $203 $313 forward $125 $-1 #
coedge $-1 $201 $434 $430 $435 forward $125 $-1 #
coedge $-1 $432 $204 $201 $310 forward $315 $-1 #
edge $-1 $317 -17.611811671864931 $436 -2.6247139975926679 $309 $437 forward 7 unknown #
coedge $-1 $438 $439 $202 $312 forward $304 $-1 #
edge $-1 $440 -87.351727256275993 $316 -78.028870542549384 $311 $441 forward 7 unknown #
edge $-1 $317 117.72758324655797 $440 128.49269081698054 $203 $442 forward 7 unknown #
coedge $-1 $204 $432 $438 $443 forward $315 $-1 #
loop $-1 $-1 $432 $303 #
vertex $-1 $312 $444 #
vertex $-1 $205 $445 #
straight-curve $-1 55.638968581748614 27.730074506593731 10.143681330207528 -1 0 0 I I #
coedge $-1 $319 $319 $-1 $446 reversed $208 $-1 #
edge $-1 $447 0 $447 6.2831853071796004 $209 $448 forward 7 unknown #
vertex $-1 $212 $449 #
ellipse-curve $-1 61.555068587997191 17.025004739256403 5.4822529733442451 0.86602541151947299 0 0.49999998660252726 0.49999998660252726 0 -0.86602541151947299 1 I I #
coedge $-1 $323 $323 $-1 $450 reversed $215 $-1 #
edge $-1 $451 0 $451 6.2831853071796004 $216 $452 forward 7 unknown #
vertex $-1 $219 $453 #
ellipse-curve $-1 61.555068587997191 23.448046599658795 5.4822529733442451 0.86602541151947299 0 0.49999998660252726 0.49999998660252726 0 -0.86602541151947299 1 I I #
face $-1 $-1 $235 $33 $-1 $454 reversed single #
loop $-1 $-1 $343 $220 #
plane-surface $-1 0 37.116886413796919 0 0 -1 0 0 0 -1 forward_v I I I I #
coedge $-1 $455 $341 $344 $456 forward $221 $-1 #
coedge $-1 $347 $223 $224 $335 reversed $139 $-1 #
coedge $-1 $341 $455 $223 $333 reversed $221 $-1 #
edge $-1 $348 -10.143681330207526 $457 10.143681330207526 $332 $458 forward 7 unknown #
coedge $-1 $225 $224 $455 $459 forward $89 $-1 #
edge $-1 $339 -64.246345408490242 $457 64.246345408490242 $331 $460 forward 7 unknown #
coedge $-1 $344 $343 $225 $337 reversed $328 $-1 #
edge $-1 $461 -64.246345408490242 $338 64.246345408490242 $336 $462 forward 7 unknown #
vertex $-1 $227 $463 #
vertex $-1 $350 $464 #
straight-curve $-1 64.246345408490242 0 -10.143681330207526 0 -1 0 I I #
coedge $-1 $330 $332 $228 $342 reversed $221 $-1 #
edge $-1 $345 -37.116886413796919 $348 37.116886413796919 $341 $465 forward 7 unknown #
coedge $-1 $336 $229 $234 $351 forward $328 $-1 #
coedge $-1 $229 $336 $330 $456 reversed $328 $-1 #
vertex $-1 $230 $466 #
straight-curve $-1 0 37.116886413796919 10.143681330207526 -1 0 0 I I #
coedge $-1 $231 $331 $233 $350 reversed $139 $-1 #
vertex $-1 $342 $467 #
straight-curve $-1 0 -37.116886413796919 10.143681330207526 1 0 0 I I #
edge $-1 $236 -10.143681330207526 $339 10.143681330207526 $233 $468 forward 7 unknown #
edge $-1 $237 -10.143681330207526 $338 10.143681330207526 $234 $469 forward 7 unknown #
point $-1 64.246345408490242 -37.116886413796919 10.143681330207526 #
point $-1 64.246345408490242 37.116886413796919 10.143681330207526 #
face $-1 $-1 $252 $34 $-1 $470 reversed single #
loop $-1 $-1 $361 $239 #
plane-surface $-1 0 0 10.143681330207526 0 0 1 1 0 0 forward_v I I I I #
coedge $-1 $471 $242 $247 $366 forward $147 $-1 #
coedge $-1 $242 $471 $472 $473 reversed $147 $-1 #
coedge $-1 $244 $243 $242 $360 reversed $93 $-1 #
edge $-1 $474 -5.984499563191819 $371 -2.3338639708395954 $242 $475 forward 7 unknown #
coedge $-1 $472 $476 $244 $362 forward $355 $-1 #
edge $-1 $364 -64.246345408490242 $474 64.246345408490242 $361 $477 forward 7 unknown #
coedge $-1 $251 $245 $476 $478 reversed $252 $-1 #
vertex $-1 $246 $479 #
straight-curve $-1 64.246345408490242 -25.847620819867316 4.1591817670157072 0 0 1 I I #
edge $-1 $371 10.106494011451257 $369 21.375759605380861 $357 $480 forward 7 unknown #
coedge $-1 $481 $248 $251 $373 reversed $240 $-1 #
coedge $-1 $248 $481 $471 $482 forward $240 $-1 #
vertex $-1 $249 $483 #
straight-curve $-1 0 -37.116886413796919 6.4930457378553026 1 0 0 I I #
vertex $-1 $366 $484 #
straight-curve $-1 0 -25.847620819867316 6.4930457378553026 1 0 0 I I #
edge $-1 $485 -10.143681330207526 $253 -6.4930457378553026 $251 $486 forward 7 unknown #
point $-1 64.246345408490242 -37.116886413796919 6.4930457378553026 #
point $-1 64.246345408490242 -25.847620819867316 6.4930457378553026 #
loop $-1 $-1 $264 $256 #
plane-surface $-1 -64.246345408490242 0 0 1 0 0 0 0 -1 forward_v I I I I #
coedge $-1 $379 $259 $261 $383 reversed $155 $-1 #
coedge $-1 $259 $378 $487 $488 reversed $155 $-1 #
coedge $-1 $267 $262 $259 $381 forward $257 $-1 #
edge $-1 $384 -21.132704968286617 $489 -16.364160202354554 $380 $490 forward 7 unknown #
coedge $-1 $261 $260 $387 $491 reversed $97 $-1 #
edge $-1 $492 -2.1388861263899031e-014 $384 7.2684691842040037 $378 $493 forward 7 unknown #
vertex $-1 $263 $494 #
straight-curve $-1 -59.477800642558179 12.717618836645144 10.143681330207524 0 1 0 I I #
coedge $-1 $487 $264 $267 $391 reversed $376 $-1 #
coedge $-1 $264 $487 $382 $491 forward $376 $-1 #
vertex $-1 $265 $495 #
straight-curve $-1 -64.246345408490242 19.161942023997344 44.478443343843985 0 0 1 I I #
straight-curve $-1 -64.246345408490228 19.161942023997344 4.6580979430895013 -0.65605901945558964 0 -0.75470958851134928 I I #
edge $-1 $489 -31.708533322583232 $268 -19.161942023997344 $386 $496 forward 7 unknown #
point $-1 -64.246345408490242 19.161942023997344 10.143681330207526 #
point $-1 -59.477800642558179 19.161942023997344 10.143681330207526 #
edge $-1 $497 1 $497 0 $271 $-1 forward 7 unknown #
vertex $-1 $272 $498 #
ellipse-curve $-1 -60.068546582829121 22.746682395021885 5.8418009258728194 -0.75470958851134928 0 0.65605901945558964 0.65605901945558964 0 0.75470958851134928 1 I I #
point $-1 -61.206014006068628 22.746682395021885 8.1555992251598681 #
edge $-1 $499 1 $499 0 $275 $-1 forward 7 unknown #
vertex $-1 $276 $500 #
ellipse-curve $-1 -60.068546582829121 28.123792951558698 5.8418009258728194 -0.75470958851134928 0 0.65605901945558964 0.65605901945558964 0 0.75470958851134928 1 I I #
point $-1 -61.206014006068628 28.123792951558698 8.1555992251598681 #
plane-surface $-1 0 0 10.143681330207526 0 0 1 1 0 0 forward_v I I I I #
coedge $-1 $413 $412 $405 $501 forward $280 $-1 #
coedge $-1 $405 $282 $284 $409 reversed $177 $-1 #
coedge $-1 $282 $404 $403 $501 reversed $177 $-1 #
coedge $-1 $290 $285 $282 $407 forward $291 $-1 #
edge $-1 $410 3.224823185755568 $502 8.6073768267416284 $406 $503 forward 7 unknown #
coedge $-1 $284 $283 $413 $504 reversed $111 $-1 #
edge $-1 $505 -128.49269081698054 $410 -117.72758324655797 $404 $506 forward 7 unknown #
vertex $-1 $286 $507 #
straight-curve $-1 58.863791767504182 -4.4836300377639944 10.143681330207528 0 -1 0 I I #
coedge $-1 $403 $287 $290 $417 reversed $280 $-1 #
coedge $-1 $287 $403 $408 $504 forward $280 $-1 #
vertex $-1 $288 $508 #
straight-curve $-1 64.246345408490242 -1.4737112383918571 88.172551872756912 0 0 1 I I #
straight-curve $-1 1.7214772896068098e-006 -1.4737112383918571 112.0987600585009 0.49999998660252726 0 -0.86602541151947299 I I #
edge $-1 $502 -16.46080891266412 $292 -1.4737112383918571 $412 $509 forward 7 unknown #
point $-1 64.246345408490242 -1.4737112383918571 10.143681330207526 #
point $-1 58.863791767504182 -1.4737112383918571 10.143681330207528 #
edge $-1 $510 1 $510 0 $295 $-1 forward 7 unknown #
vertex $-1 $296 $511 #
ellipse-curve $-1 60.542516339066196 -12.178781005729189 4.8976556807410452 0.86602541151947299 0 0.49999998660252726 0.49999998660252726 0 -0.86602541151947299 1 I I #
point $-1 62.055068574599737 -12.178781005729189 4.6162275618247843 #
edge $-1 $512 1 $512 0 $299 $-1 forward 7 unknown #
vertex $-1 $300 $513 #
ellipse-curve $-1 60.542516339066196 -5.7557391453267925 4.8976556807410452 0.86602541151947299 0 0.49999998660252726 0.49999998660252726 0 -0.86602541151947299 1 I I #
point $-1 62.055068574599737 -5.7557391453267925 4.6162275618247843 #
plane-surface $-1 0 0 10.143681330207526 0 0 1 1 0 0 forward_v I I I I #
coedge $-1 $439 $438 $431 $514 forward $304 $-1 #
coedge $-1 $431 $306 $308 $435 reversed $199 $-1 #
coedge $-1 $306 $430 $429 $514 reversed $199 $-1 #
coedge $-1 $314 $309 $306 $433 forward $315 $-1 #
edge $-1 $436 3.224823185755568 $515 8.6073768267416284 $432 $516 forward 7 unknown #
coedge $-1 $308 $307 $439 $517 reversed $125 $-1 #
edge $-1 $518 -128.49269081698054 $436 -117.72758324655797 $430 $519 forward 7 unknown #
vertex $-1 $310 $520 #
straight-curve $-1 58.863791767504182 10.1182628347288 10.143681330207528 0 -1 0 I I #
coedge $-1 $429 $311 $314 $443 reversed $304 $-1 #
coedge $-1 $311 $429 $434 $517 forward $304 $-1 #
vertex $-1 $312 $521 #
straight-curve $-1 64.246345408490242 27.730074506593731 88.172551872756912 0 0 1 I I #
straight-curve $-1 1.7214772896068098e-006 27.730074506593731 112.0987600585009 0.49999998660252726 0 -0.86602541151947299 I I #
edge $-1 $515 12.742976832321467 $316 27.730074506593731 $438 $522 forward 7 unknown #
point $-1 64.246345408490242 27.730074506593731 10.143681330207526 #
point $-1 58.863791767504182 27.730074506593731 10.143681330207528 #
edge $-1 $523 1 $523 0 $319 $-1 forward 7 unknown #
vertex $-1 $320 $524 #
ellipse-curve $-1 60.542516339066196 17.025004739256403 4.8976556807410452 0.86602541151947299 0 0.49999998660252726 0.49999998660252726 0 -0.86602541151947299 1 I I #
point $-1 62.055068574599737 17.025004739256403 4.6162275618247843 #
edge $-1 $525 1 $525 0 $323 $-1 forward 7 unknown #
vertex $-1 $324 $526 #
ellipse-curve $-1 60.542516339066196 23.448046599658795 4.8976556807410452 0.86602541151947299 0 0.49999998660252726 0.49999998660252726 0 -0.86602541151947299 1 I I #
point $-1 62.055068574599737 23.448046599658795 4.6162275618247843 #
plane-surface $-1 64.246345408490242 0 0 -1 0 0 0 0 1 forward_v I I I I #
coedge $-1 $332 $330 $334 $459 reversed $221 $-1 #
edge $-1 $345 -10.143681330207526 $461 10.143681330207526 $344 $527 forward 7 unknown #
vertex $-1 $459 $528 #
straight-curve $-1 -64.246345408490242 -37.116886413796919 0 0 0 -1 I I #
edge $-1 $457 -37.116886413796919 $461 37.116886413796919 $455 $529 forward 7 unknown #
straight-curve $-1 0 -37.116886413796919 -10.143681330207526 -1 0 0 I I #
vertex $-1 $337 $530 #
straight-curve $-1 0 37.116886413796919 -10.143681330207526 1 0 0 I I #
point $-1 64.246345408490242 37.116886413796919 -10.143681330207526 #
point $-1 64.246345408490242 -37.116886413796919 -10.143681330207526 #
straight-curve $-1 -64.246345408490242 0 10.143681330207526 0 -1 0 I I #
point $-1 -64.246345408490242 37.116886413796919 10.143681330207526 #
point $-1 -64.246345408490242 -37.116886413796919 10.143681330207526 #
straight-curve $-1 64.246345408490242 -37.116886413796919 0 0 0 -1 I I #
straight-curve $-1 64.246345408490242 37.116886413796919 0 0 0 -1 I I #
plane-surface $-1 64.246345408490242 0 0 -1 0 0 0 0 1 forward_v I I I I #
coedge $-1 $358 $357 $368 $482 reversed $147 $-1 #
coedge $-1 $531 $361 $358 $473 forward $355 $-1 #
edge $-1 $474 25.847620819867316 $532 37.116886413796919 $358 $533 forward 7 unknown #
vertex $-1 $473 $534 #
straight-curve $-1 -64.246345408490242 -25.847620819867316 4.1591817670157072 0 0 -1 I I #
coedge $-1 $361 $531 $363 $478 forward $355 $-1 #
straight-curve $-1 0 -25.847620819867316 10.143681330207526 -1 0 0 I I #
edge $-1 $485 -37.116886413796919 $364 -25.847620819867316 $363 $535 forward 7 unknown #
point $-1 64.246345408490242 -25.847620819867316 10.143681330207526 #
straight-curve $-1 -64.246345408490242 -15.741126808416059 6.4930457378553026 0 -1 0 I I #
coedge $-1 $368 $367 $531 $536 reversed $240 $-1 #
edge $-1 $532 -10.143681330207526 $369 -6.4930457378553026 $471 $537 forward 7 unknown #
point $-1 -64.246345408490242 -37.116886413796919 6.4930457378553026 #
point $-1 -64.246345408490242 -25.847620819867316 6.4930457378553026 #
vertex $-1 $478 $538 #
straight-curve $-1 64.246345408490242 -37.116886413796919 0 0 0 -1 I I #
coedge $-1 $387 $386 $379 $488 forward $376 $-1 #
edge $-1 $489 34.334762013636457 $492 39.820345400754498 $487 $539 forward 7 unknown #
vertex $-1 $391 $540 #
straight-curve $-1 -80.610505610844797 31.708533322583232 10.143681330207528 -1 0 0 I I #
edge $-1 $492 -18.990914485938088 $388 -6.4443231873522002 $387 $541 forward 7 unknown #
vertex $-1 $491 $542 #
straight-curve $-1 -64.246345408490228 31.708533322583232 4.6580979430895013 0.65605901945558964 0 0.75470958851134928 I I #
point $-1 -59.477800642558179 31.708533322583232 10.143681330207526 #
point $-1 -64.246345408490242 19.161942023997344 4.6580979430894853 #
straight-curve $-1 -64.246345408490242 0 10.143681330207526 0 -1 0 I I #
vertex $-1 $394 $543 #
point $-1 -59.412487563373531 22.746682395021885 6.5965105143841685 #
vertex $-1 $398 $544 #
point $-1 -59.412487563373531 28.123792951558698 6.5965105143841685 #
edge $-1 $502 78.028870542549384 $505 87.351727256275993 $403 $545 forward 7 unknown #
vertex $-1 $417 $546 #
straight-curve $-1 55.638968581748614 -16.46080891266412 10.143681330207528 1 0 0 I I #
edge $-1 $505 -11.977178874900126 $414 3.0099187993721372 $413 $547 forward 7 unknown #
vertex $-1 $504 $548 #
straight-curve $-1 1.7214772896068098e-006 -16.46080891266412 112.0987600585009 -0.49999998660252726 0 0.86602541151947299 I I #
point $-1 58.863791767504182 -16.46080891266412 10.143681330207528 #
point $-1 64.246345408490242 -1.4737112383918571 0.82082461648091964 #
straight-curve $-1 64.246345408490242 0 10.143681330207526 0 1 0 I I #
vertex $-1 $420 $549 #
point $-1 61.042516325668721 -12.178781005729189 4.0316302692215729 #
vertex $-1 $424 $550 #
point $-1 61.042516325668721 -5.7557391453267925 4.0316302692215729 #
edge $-1 $515 78.028870542549384 $518 87.351727256275993 $429 $551 forward 7 unknown #
vertex $-1 $443 $552 #
straight-curve $-1 55.638968581748614 12.742976832321467 10.143681330207528 1 0 0 I I #
edge $-1 $518 2.6247139975926679 $440 17.611811671864931 $439 $553 forward 7 unknown #
vertex $-1 $517 $554 #
straight-curve $-1 1.7214772896068098e-006 12.742976832321467 112.0987600585009 -0.49999998660252726 0 0.86602541151947299 I I #
point $-1 58.863791767504182 12.742976832321467 10.143681330207528 #
point $-1 64.246345408490242 27.730074506593731 0.82082461648091964 #
straight-curve $-1 64.246345408490242 0 10.143681330207526 0 1 0 I I #
vertex $-1 $446 $555 #
point $-1 61.042516325668721 17.025004739256403 4.0316302692215729 #
vertex $-1 $450 $556 #
point $-1 61.042516325668721 23.448046599658795 4.0316302692215729 #
straight-curve $-1 -64.246345408490242 37.116886413796919 0 0 0 -1 I I #
point $-1 -64.246345408490242 -37.116886413796919 -10.143681330207526 #
straight-curve $-1 -64.246345408490242 0 -10.143681330207526 0 1 0 I I #
point $-1 -64.246345408490242 37.116886413796919 -10.143681330207526 #
coedge $-1 $476 $472 $481 $536 forward $355 $-1 #
vertex $-1 $473 $557 #
straight-curve $-1 -64.246345408490242 0 10.143681330207526 0 -1 0 I I #
point $-1 -64.246345408490242 -25.847620819867316 10.143681330207526 #
straight-curve $-1 64.246345408490242 0 10.143681330207526 0 1 0 I I #
edge $-1 $532 -64.246345408490242 $485 64.246345408490242 $481 $558 forward 7 unknown #
straight-curve $-1 -64.246345408490242 -37.116886413796919 0 0 0 -1 I I #
point $-1 64.246345408490242 -37.116886413796919 10.143681330207526 #
straight-curve $-1 -64.246345408490242 31.708533322583232 44.478443343843985 0 0 -1 I I #
point $-1 -64.246345408490242 31.708533322583232 10.143681330207526 #
straight-curve $-1 -64.246345408490242 12.717618836645144 4.6580979430894995 0 -1 0 I I #
point $-1 -64.246345408490242 31.708533322583232 4.6580979430894853 #
point $-1 -59.313836994317775 22.746682395021885 5.1857419064172294 #
point $-1 -59.313836994317775 28.123792951558698 5.1857419064172294 #
straight-curve $-1 64.246345408490242 -16.46080891266412 88.172551872756912 0 0 -1 I I #
point $-1 64.246345408490242 -16.46080891266412 10.143681330207526 #
straight-curve $-1 64.246345408490242 -4.4836300377639944 0.82082461648090543 0 1 0 I I #
point $-1 64.246345408490242 -16.46080891266412 0.82082461648091964 #
point $-1 59.676490927546723 -12.178781005729189 4.3976556941385185 #
point $-1 59.676490927546723 -5.7557391453267925 4.3976556941385185 #
straight-curve $-1 64.246345408490242 12.742976832321467 88.172551872756912 0 0 -1 I I #
point $-1 64.246345408490242 12.742976832321467 10.143681330207526 #
straight-curve $-1 64.246345408490242 10.1182628347288 0.82082461648090543 0 1 0 I I #
point $-1 64.246345408490242 12.742976832321467 0.82082461648091964 #
point $-1 59.676490927546723 17.025004739256403 4.3976556941385185 #
point $-1 59.676490927546723 23.448046599658795 4.3976556941385185 #
point $-1 -64.246345408490242 -37.116886413796919 10.143681330207526 #
straight-curve $-1 0 -37.116886413796919 10.143681330207526 1 0 0 I I #
End-of-ACIS-data 