500 0 8 0           
7 Unknown 11 ACIS 5.0 NT 24 Fri Mar 26 00:45:23 1999 
-1 9.9999999999999995e-007 1e-010 
body $-1 $8 $-1 $9 #
body $-1 $10 $-1 $11 #
body $-1 $12 $-1 $13 #
body $-1 $14 $-1 $15 #
body $-1 $16 $-1 $17 #
body $-1 $18 $-1 $19 #
body $-1 $20 $-1 $21 #
body $-1 $22 $-1 $23 #
lump $-1 $-1 $24 $0 #
transform $-1 1 0 0 0 1 0 0 0 1 64.928739280373549 38.773159584974309 8.49904534193176 1 rotate no_reflect no_shear #
lump $-1 $-1 $25 $1 #
transform $-1 1 0 0 0 1 0 0 0 1 64.928739280373549 38.773159584974309 8.49904534193176 1 rotate no_reflect no_shear #
lump $-1 $-1 $26 $2 #
transform $-1 1 0 0 0 1 0 0 0 1 64.928739280373549 38.773159584974309 8.49904534193176 1 rotate no_reflect no_shear #
lump $-1 $-1 $27 $3 #
transform $-1 1 0 0 0 1 0 0 0 1 64.928739280373549 38.773159584974309 8.49904534193176 1 rotate no_reflect no_shear #
lump $-1 $-1 $28 $4 #
transform $-1 1 0 0 0 1 0 0 0 1 64.928739280373549 38.773159584974309 8.49904534193176 1 rotate no_reflect no_shear #
lump $-1 $-1 $29 $5 #
transform $-1 1 0 0 0 1 0 0 0 1 64.928739280373549 38.773159584974309 8.49904534193176 1 rotate no_reflect no_shear #
lump $-1 $-1 $30 $6 #
transform $-1 1 0 0 0 1 0 0 0 1 64.928739280373549 38.773159584974309 8.49904534193176 1 rotate no_reflect no_shear #
lump $-1 $-1 $31 $7 #
transform $-1 1 0 0 0 1 0 0 0 1 64.928739280373549 38.773159584974309 8.49904534193176 1 rotate no_reflect no_shear #
shell $-1 $-1 $-1 $32 $-1 $8 #
shell $-1 $-1 $-1 $33 $-1 $10 #
shell $-1 $-1 $-1 $34 $-1 $12 #
shell $-1 $-1 $-1 $35 $-1 $14 #
shell $-1 $-1 $-1 $36 $-1 $16 #
shell $-1 $-1 $-1 $37 $-1 $18 #
shell $-1 $-1 $-1 $38 $-1 $20 #
shell $-1 $-1 $-1 $39 $-1 $22 #
face $-1 $40 $41 $24 $-1 $42 forward single #
face $-1 $43 $44 $25 $-1 $45 reversed single #
face $-1 $46 $47 $26 $-1 $48 reversed single #
face $-1 $49 $50 $27 $-1 $51 reversed single #
face $-1 $52 $53 $28 $-1 $54 forward single #
face $-1 $55 $56 $29 $-1 $57 reversed single #
face $-1 $58 $59 $30 $-1 $60 forward single #
face $-1 $61 $62 $31 $-1 $63 forward single #
face $-1 $64 $65 $24 $-1 $66 reversed single #
loop $-1 $-1 $67 $32 #
plane-surface $-1 0 0 8.49904534193176 0 0 1 1 0 0 forward_v I I I I #
face $-1 $68 $69 $25 $-1 $70 reversed single #
loop $-1 $-1 $71 $33 #
plane-surface $-1 -61.569143199213507 0 5.49904534193176 0 0 1 1 0 0 forward_v I I I I #
face $-1 $72 $73 $26 $-1 $74 reversed single #
loop $-1 $-1 $75 $34 #
plane-surface $-1 61.569143199213499 0 5.49904534193176 0 0 1 1 0 0 forward_v I I I I #
face $-1 $76 $77 $27 $-1 $78 reversed single #
loop $-1 $-1 $79 $35 #
plane-surface $-1 -33.179039818559531 93.359969752040001 142.43776699796572 1 0 0 0 -0.78801076186113728 -0.61566146476048833 forward_v I I I I #
face $-1 $80 $81 $28 $-1 $82 forward single #
loop $-1 $83 $84 $36 #
cone-surface $-1 -26.899400910279638 35.544065163680315 4.5898620518651398 0 -0.78801076186113728 -0.61566146476048833 1 0 0 1 I I 0 1 1 forward I I I I #
face $-1 $85 $86 $29 $-1 $87 reversed single #
loop $-1 $-1 $88 $37 #
plane-surface $-1 46.158161678612458 -38.773159584974294 0.33111412273417784 0 -0.70710678939079041 0.70710677298230451 1 0 0 forward_v I I I I #
face $-1 $89 $90 $30 $-1 $91 forward single #
loop $-1 $92 $93 $38 #
cone-surface $-1 40.993282204566327 -33.469673855231427 3.195559545719127 0 0.70710678939079041 -0.70710677298230451 2 0 0 1 I I 0 1 2 forward I I I I #
face $-1 $94 $95 $31 $-1 $96 forward single #
loop $-1 $97 $98 $39 #
cone-surface $-1 51.323041152658604 -33.469673855231427 3.195559545719127 0 0.70710678939079041 -0.70710677298230451 2 0 0 1 I I 0 1 2 forward I I I I #
face $-1 $99 $100 $24 $-1 $101 reversed single #
loop $-1 $-1 $102 $40 #
plane-surface $-1 0 0 -8.49904534193176 0 0 1 1 0 0 forward_v I I I I #
coedge $-1 $103 $104 $105 $106 forward $41 $-1 #
face $-1 $107 $108 $25 $-1 $109 reversed single #
loop $-1 $-1 $110 $43 #
plane-surface $-1 -58.209547118053464 0 6.99904534193176 -1 0 0 0 0 1 forward_v I I I I #
coedge $-1 $111 $112 $113 $114 forward $44 $-1 #
face $-1 $115 $116 $26 $-1 $117 forward single #
loop $-1 $-1 $118 $46 #
plane-surface $-1 58.209547118053457 0 6.99904534193176 1 0 0 0 0 -1 forward_v I I I I #
coedge $-1 $119 $120 $121 $122 reversed $47 $-1 #
face $-1 $123 $124 $27 $-1 $125 reversed single #
loop $-1 $-1 $126 $49 #
plane-surface $-1 -26.899400910279638 -8.9691208619806133 62.489521537152456 0 0.78801076186113728 0.61566146476048833 1 0 0 forward_v I I I I #
coedge $-1 $127 $128 $129 $130 reversed $50 $-1 #
face $-1 $-1 $131 $28 $-1 $132 forward single #
loop $-1 $133 $134 $52 #
cone-surface $-1 -26.899400910279638 34.701114658007668 3.9312769561269807 0 -0.78801076186113728 -0.61566146476048833 0.5 0 0 1 I I -0.70710678118654746 0.70710678118654746 0.5 forward I I I I #
loop $-1 $-1 $135 $36 #
coedge $-1 $84 $84 $136 $137 reversed $53 $-1 #
face $-1 $138 $139 $29 $-1 $140 forward single #
loop $-1 $-1 $141 $55 #
plane-surface $-1 34.106776239171474 -130.59626432844757 92.154216735442844 1 0 0 0 0.70710678939079041 -0.70710677298230451 forward_v I I I I #
coedge $-1 $142 $143 $144 $145 reversed $56 $-1 #
face $-1 $-1 $146 $30 $-1 $147 forward single #
loop $-1 $148 $149 $58 #
cone-surface $-1 40.993282204566327 -31.543046850927695 1.2689325861229737 0 0.70710678939079041 -0.70710677298230451 1 0 0 1 I I -0.70710678118654746 0.70710678118654746 1 forward I I I I #
loop $-1 $-1 $150 $38 #
coedge $-1 $93 $93 $151 $152 reversed $59 $-1 #
face $-1 $-1 $153 $31 $-1 $154 forward single #
loop $-1 $155 $156 $61 #
cone-surface $-1 51.323041152658604 -31.543046850927695 1.2689325861229737 0 0.70710678939079041 -0.70710677298230451 1 0 0 1 I I -0.70710678118654746 0.70710678118654746 1 forward I I I I #
loop $-1 $-1 $157 $39 #
coedge $-1 $98 $98 $158 $159 reversed $62 $-1 #
face $-1 $160 $161 $24 $-1 $162 reversed single #
loop $-1 $-1 $163 $64 #
plane-surface $-1 0 -38.773159584974309 0 0 1 0 0 0 1 forward_v I I I I #
coedge $-1 $164 $165 $166 $167 forward $65 $-1 #
coedge $-1 $168 $67 $169 $170 forward $41 $-1 #
coedge $-1 $67 $168 $171 $172 forward $41 $-1 #
coedge $-1 $173 $174 $67 $106 reversed $175 $-1 #
edge $-1 $176 -38.773159584974309 $177 38.773159584974309 $105 $178 forward 7 unknown #
face $-1 $179 $180 $25 $-1 $181 reversed single #
loop $-1 $-1 $182 $68 #
plane-surface $-1 0 38.773159584974309 0 0 -1 0 0 0 -1 forward_v I I I I #
coedge $-1 $113 $183 $184 $185 reversed $69 $-1 #
coedge $-1 $186 $71 $187 $188 reversed $44 $-1 #
coedge $-1 $71 $186 $189 $190 reversed $44 $-1 #
coedge $-1 $191 $110 $71 $114 reversed $69 $-1 #
edge $-1 $192 -38.773159584974309 $193 38.773159584974309 $113 $194 forward 7 unknown #
face $-1 $195 $196 $26 $-1 $197 reversed single #
loop $-1 $-1 $198 $72 #
plane-surface $-1 0 0 8.49904534193176 0 0 1 1 0 0 forward_v I I I I #
coedge $-1 $199 $200 $201 $202 reversed $73 $-1 #
coedge $-1 $203 $75 $204 $205 reversed $47 $-1 #
coedge $-1 $75 $203 $206 $207 reversed $47 $-1 #
coedge $-1 $208 $209 $75 $122 forward $210 $-1 #
edge $-1 $211 -38.773159584974309 $212 38.773159584974309 $121 $213 forward 7 unknown #
face $-1 $214 $215 $27 $-1 $216 reversed single #
loop $-1 $-1 $217 $76 #
plane-surface $-1 -20.619762001999746 93.359969752040001 142.43776699796572 -1 0 0 0 0.78801076186113728 0.61566146476048833 forward_v I I I I #
coedge $-1 $218 $219 $220 $221 reversed $77 $-1 #
coedge $-1 $128 $79 $222 $223 reversed $50 $-1 #
coedge $-1 $79 $127 $218 $224 reversed $50 $-1 #
coedge $-1 $220 $225 $79 $130 forward $226 $-1 #
edge $-1 $227 7.906825291045692 $228 13.467123884149551 $129 $229 forward 7 unknown #
loop $-1 $-1 $136 $80 #
plane-surface $-1 -26.899400910279638 -8.9691208619806133 62.489521537152456 0 0.78801076186113728 0.61566146476048833 1 0 0 forward_v I I I I #
loop $-1 $-1 $230 $52 #
coedge $-1 $134 $134 $135 $231 reversed $81 $-1 #
coedge $-1 $135 $135 $134 $231 forward $83 $-1 #
coedge $-1 $136 $136 $84 $137 forward $131 $-1 #
edge $-1 $232 1.9253069933653708e-015 $232 6.2831853071796022 $136 $233 forward 7 unknown #
face $-1 $234 $235 $29 $-1 $236 reversed single #
loop $-1 $-1 $144 $85 #
plane-surface $-1 0 0 8.49904534193176 0 0 1 1 0 0 forward_v I I I I #
coedge $-1 $237 $238 $239 $240 reversed $86 $-1 #
coedge $-1 $241 $88 $242 $243 reversed $56 $-1 #
coedge $-1 $88 $241 $237 $244 forward $56 $-1 #
coedge $-1 $239 $245 $88 $145 forward $139 $-1 #
edge $-1 $246 -35.130466278747214 $247 -11.027695399865244 $144 $248 forward 7 unknown #
loop $-1 $-1 $151 $89 #
plane-surface $-1 46.158161678612458 -38.773159584974294 0.33111412273417784 0 -0.70710678939079041 0.70710677298230451 1 0 0 forward_v I I I I #
loop $-1 $-1 $249 $58 #
coedge $-1 $149 $149 $150 $250 reversed $90 $-1 #
coedge $-1 $150 $150 $149 $250 forward $92 $-1 #
coedge $-1 $151 $151 $93 $152 forward $146 $-1 #
edge $-1 $251 3.1401861196947593e-016 $251 6.2831853071796004 $151 $252 forward 7 unknown #
loop $-1 $-1 $158 $94 #
plane-surface $-1 46.158161678612458 -38.773159584974294 0.33111412273417784 0 -0.70710678939079041 0.70710677298230451 1 0 0 forward_v I I I I #
loop $-1 $-1 $253 $61 #
coedge $-1 $156 $156 $157 $254 reversed $95 $-1 #
coedge $-1 $157 $157 $156 $254 forward $97 $-1 #
coedge $-1 $158 $158 $98 $159 forward $153 $-1 #
edge $-1 $255 3.1401861196947593e-016 $255 6.2831853071796004 $158 $256 forward 7 unknown #
face $-1 $257 $258 $24 $-1 $259 reversed single #
loop $-1 $-1 $260 $99 #
plane-surface $-1 -64.928739280373549 0 0 1 0 0 0 0 -1 forward_v I I I I #
coedge $-1 $261 $171 $262 $263 forward $100 $-1 #
coedge $-1 $264 $102 $261 $265 forward $65 $-1 #
coedge $-1 $102 $264 $266 $267 forward $65 $-1 #
coedge $-1 $174 $173 $102 $167 reversed $175 $-1 #
edge $-1 $268 -38.773159584974309 $269 38.773159584974309 $166 $270 forward 7 unknown #
coedge $-1 $104 $103 $271 $272 forward $41 $-1 #
coedge $-1 $273 $274 $103 $170 reversed $258 $-1 #
edge $-1 $177 -64.928739280373549 $275 64.928739280373549 $169 $276 forward 7 unknown #
coedge $-1 $163 $277 $104 $172 reversed $100 $-1 #
edge $-1 $278 -64.928739280373549 $176 64.928739280373549 $171 $279 forward 7 unknown #
coedge $-1 $166 $105 $277 $280 forward $175 $-1 #
coedge $-1 $105 $166 $273 $281 reversed $175 $-1 #
loop $-1 $-1 $173 $257 #
vertex $-1 $106 $282 #
vertex $-1 $106 $283 #
straight-curve $-1 64.928739280373549 0 8.49904534193176 0 1 0 I I #
face $-1 $284 $285 $25 $-1 $286 forward single #
loop $-1 $-1 $287 $107 #
plane-surface $-1 -64.928739280373549 0 0 1 0 0 0 0 -1 forward_v I I I I #
coedge $-1 $189 $288 $191 $289 forward $108 $-1 #
coedge $-1 $110 $191 $290 $291 reversed $69 $-1 #
coedge $-1 $292 $187 $110 $185 forward $293 $-1 #
edge $-1 $193 1.99952267096588 $294 4.99952267096588 $184 $295 forward 7 unknown #
coedge $-1 $112 $111 $287 $296 reversed $44 $-1 #
coedge $-1 $184 $297 $111 $188 forward $293 $-1 #
edge $-1 $298 -34.144167680766799 $193 -27.424975518446711 $187 $299 forward 7 unknown #
coedge $-1 $300 $182 $112 $190 forward $108 $-1 #
edge $-1 $192 27.424975518446711 $301 34.144167680766799 $189 $302 forward 7 unknown #
coedge $-1 $183 $113 $182 $289 reversed $69 $-1 #
vertex $-1 $190 $303 #
vertex $-1 $188 $304 #
straight-curve $-1 -58.209547118053464 0 5.49904534193176 0 -1 0 I I #
face $-1 $305 $306 $26 $-1 $307 reversed single #
loop $-1 $-1 $308 $115 #
plane-surface $-1 0 -38.773159584974309 0 0 1 0 0 0 1 forward_v I I I I #
coedge $-1 $309 $310 $200 $311 forward $116 $-1 #
coedge $-1 $312 $118 $203 $313 reversed $73 $-1 #
coedge $-1 $118 $312 $198 $311 reversed $73 $-1 #
coedge $-1 $314 $206 $118 $202 forward $306 $-1 #
edge $-1 $315 1.99952267096588 $316 4.99952267096588 $201 $317 forward 7 unknown #
coedge $-1 $120 $119 $199 $313 forward $47 $-1 #
coedge $-1 $318 $308 $119 $205 forward $196 $-1 #
edge $-1 $319 27.424975518446708 $211 34.144167680766799 $204 $320 forward 7 unknown #
coedge $-1 $201 $321 $120 $207 forward $306 $-1 #
edge $-1 $212 -34.144167680766799 $315 -27.424975518446708 $206 $322 forward 7 unknown #
coedge $-1 $323 $121 $321 $324 reversed $210 $-1 #
coedge $-1 $121 $323 $318 $325 forward $210 $-1 #
loop $-1 $-1 $121 $305 #
vertex $-1 $205 $326 #
vertex $-1 $122 $327 #
straight-curve $-1 64.928739280373549 0 5.49904534193176 0 1 0 I I #
face $-1 $-1 $226 $27 $-1 $328 forward single #
loop $-1 $-1 $329 $123 #
plane-surface $-1 0 38.773159584974309 0 0 -1 0 0 0 -1 forward_v I I I I #
coedge $-1 $330 $331 $332 $333 reversed $124 $-1 #
coedge $-1 $334 $126 $128 $224 forward $77 $-1 #
coedge $-1 $126 $334 $330 $335 forward $77 $-1 #
coedge $-1 $332 $129 $126 $221 forward $226 $-1 #
edge $-1 $228 -19.729339363419712 $336 -7.1700615468599267 $220 $337 forward 7 unknown #
coedge $-1 $338 $339 $127 $223 forward $215 $-1 #
edge $-1 $340 -69.836696010468557 $227 -62.7198381570511 $222 $341 forward 7 unknown #
edge $-1 $228 68.514897014483736 $340 77.546319169948646 $128 $342 forward 7 unknown #
coedge $-1 $129 $332 $338 $343 forward $226 $-1 #
loop $-1 $-1 $332 $214 #
vertex $-1 $223 $344 #
vertex $-1 $130 $345 #
straight-curve $-1 -33.179039818559531 46.679984876020001 8.4990453419317618 0 -1 0 I I #
coedge $-1 $230 $230 $-1 $346 reversed $133 $-1 #
edge $-1 $347 0 $347 6.2831853071796004 $134 $348 forward 7 unknown #
vertex $-1 $137 $349 #
ellipse-curve $-1 -26.899400910279638 35.993010288422376 4.9406164152230403 0 0.78801076186113728 0.61566146476048833 1 0 0 1 I I #
face $-1 $-1 $350 $29 $-1 $351 forward single #
loop $-1 $-1 $352 $138 #
plane-surface $-1 0 -38.773159584974309 0 0 1 0 0 0 1 forward_v I I I I #
coedge $-1 $238 $141 $143 $244 reversed $86 $-1 #
coedge $-1 $141 $237 $352 $353 reversed $86 $-1 #
coedge $-1 $354 $144 $141 $240 forward $139 $-1 #
edge $-1 $247 -34.69290360890939 $355 -26.524972579249479 $239 $356 forward 7 unknown #
coedge $-1 $143 $142 $357 $358 reversed $56 $-1 #
coedge $-1 $359 $360 $142 $243 forward $350 $-1 #
edge $-1 $361 -16.065851594372273 $246 -4.5146526216758023 $242 $362 forward 7 unknown #
edge $-1 $363 -2.0097183471152325e-014 $247 11.551198972696453 $237 $364 forward 7 unknown #
coedge $-1 $144 $354 $359 $365 forward $139 $-1 #
vertex $-1 $243 $366 #
vertex $-1 $145 $367 #
straight-curve $-1 23.079080839306229 -30.605228555314397 8.49904534193176 -1 0 0 I I #
coedge $-1 $249 $249 $-1 $368 reversed $148 $-1 #
edge $-1 $369 0 $369 6.2831853071796004 $149 $370 forward 7 unknown #
vertex $-1 $152 $371 #
ellipse-curve $-1 40.993282204566327 -34.689194070144353 4.4150797323329609 0 -0.70710678939079041 0.70710677298230451 2 0 0 1 I I #
coedge $-1 $253 $253 $-1 $372 reversed $155 $-1 #
edge $-1 $373 0 $373 6.2831853071796004 $156 $374 forward 7 unknown #
vertex $-1 $159 $375 #
ellipse-curve $-1 51.323041152658604 -34.689194070144353 4.4150797323329609 0 -0.70710678939079041 0.70710677298230451 2 0 0 1 I I #
face $-1 $-1 $175 $24 $-1 $376 reversed single #
loop $-1 $-1 $273 $160 #
plane-surface $-1 0 38.773159584974309 0 0 -1 0 0 0 -1 forward_v I I I I #
coedge $-1 $377 $271 $274 $378 forward $161 $-1 #
coedge $-1 $277 $163 $164 $265 reversed $100 $-1 #
coedge $-1 $271 $377 $163 $263 reversed $161 $-1 #
edge $-1 $278 -8.49904534193176 $379 8.49904534193176 $262 $380 forward 7 unknown #
coedge $-1 $165 $164 $377 $381 forward $65 $-1 #
edge $-1 $269 -64.928739280373549 $379 64.928739280373549 $261 $382 forward 7 unknown #
coedge $-1 $274 $273 $165 $267 reversed $258 $-1 #
edge $-1 $383 -64.928739280373549 $268 64.928739280373549 $266 $384 forward 7 unknown #
vertex $-1 $167 $385 #
vertex $-1 $280 $386 #
straight-curve $-1 64.928739280373549 0 -8.49904534193176 0 -1 0 I I #
coedge $-1 $260 $262 $168 $272 reversed $161 $-1 #
edge $-1 $275 -38.773159584974309 $278 38.773159584974309 $271 $387 forward 7 unknown #
coedge $-1 $266 $169 $174 $281 forward $258 $-1 #
coedge $-1 $169 $266 $260 $378 reversed $258 $-1 #
vertex $-1 $170 $388 #
straight-curve $-1 0 38.773159584974309 8.49904534193176 -1 0 0 I I #
coedge $-1 $171 $261 $173 $280 reversed $100 $-1 #
vertex $-1 $272 $389 #
straight-curve $-1 0 -38.773159584974309 8.49904534193176 1 0 0 I I #
edge $-1 $176 -8.49904534193176 $269 8.49904534193176 $173 $390 forward 7 unknown #
edge $-1 $177 -8.49904534193176 $268 8.49904534193176 $174 $391 forward 7 unknown #
point $-1 64.928739280373549 -38.773159584974309 8.49904534193176 #
point $-1 64.928739280373549 38.773159584974309 8.49904534193176 #
face $-1 $-1 $293 $25 $-1 $392 reversed single #
loop $-1 $-1 $290 $179 #
plane-surface $-1 0 0 8.49904534193176 0 0 1 1 0 0 forward_v I I I I #
coedge $-1 $393 $394 $186 $296 forward $180 $-1 #
coedge $-1 $182 $300 $395 $396 reversed $108 $-1 #
edge $-1 $397 -4.99952267096588 $192 -1.99952267096588 $182 $398 forward 7 unknown #
coedge $-1 $395 $399 $183 $291 forward $285 $-1 #
edge $-1 $294 -38.773159584974309 $397 38.773159584974309 $290 $400 forward 7 unknown #
coedge $-1 $297 $184 $399 $401 reversed $293 $-1 #
loop $-1 $-1 $184 $284 #
vertex $-1 $185 $402 #
straight-curve $-1 -58.209547118053464 -38.773159584974309 3.49952267096588 0 0 1 I I #
edge $-1 $301 -38.773159584974309 $298 38.773159584974309 $287 $403 forward 7 unknown #
coedge $-1 $187 $292 $393 $404 forward $293 $-1 #
vertex $-1 $296 $405 #
straight-curve $-1 -30.784571599606753 -38.773159584974309 5.49904534193176 1 0 0 I I #
coedge $-1 $288 $189 $394 $406 reversed $108 $-1 #
vertex $-1 $296 $407 #
straight-curve $-1 -30.784571599606753 38.773159584974309 5.49904534193176 -1 0 0 I I #
point $-1 -58.209547118053464 38.773159584974309 5.49904534193176 #
point $-1 -58.209547118053464 -38.773159584974309 5.49904534193176 #
face $-1 $-1 $210 $26 $-1 $408 reversed single #
loop $-1 $-1 $201 $195 #
plane-surface $-1 0 38.773159584974309 0 0 -1 0 0 0 -1 forward_v I I I I #
coedge $-1 $204 $409 $312 $410 forward $196 $-1 #
coedge $-1 $411 $198 $409 $412 forward $116 $-1 #
coedge $-1 $198 $411 $314 $413 forward $116 $-1 #
edge $-1 $316 -38.773159584974309 $414 38.773159584974309 $198 $415 forward 7 unknown #
coedge $-1 $200 $199 $308 $410 reversed $73 $-1 #
edge $-1 $319 -38.773159584974309 $315 38.773159584974309 $199 $416 forward 7 unknown #
coedge $-1 $321 $201 $310 $413 reversed $306 $-1 #
vertex $-1 $207 $417 #
vertex $-1 $202 $418 #
straight-curve $-1 58.209547118053457 38.773159584974309 3.49952267096588 0 0 1 I I #
coedge $-1 $409 $204 $209 $325 reversed $196 $-1 #
vertex $-1 $205 $419 #
straight-curve $-1 30.78457159960675 -38.773159584974309 5.49904534193176 1 0 0 I I #
coedge $-1 $206 $314 $208 $324 forward $306 $-1 #
straight-curve $-1 30.78457159960675 38.773159584974309 5.49904534193176 -1 0 0 I I #
coedge $-1 $209 $208 $411 $420 reversed $210 $-1 #
edge $-1 $421 -8.49904534193176 $212 -5.49904534193176 $208 $422 forward 7 unknown #
edge $-1 $423 -8.49904534193176 $211 -5.49904534193176 $209 $424 forward 7 unknown #
point $-1 64.928739280373549 -38.773159584974309 5.49904534193176 #
point $-1 64.928739280373549 38.773159584974309 5.49904534193176 #
plane-surface $-1 0 0 8.49904534193176 0 0 1 1 0 0 forward_v I I I I #
coedge $-1 $339 $338 $331 $425 forward $215 $-1 #
coedge $-1 $331 $217 $219 $335 reversed $124 $-1 #
coedge $-1 $217 $330 $329 $425 reversed $124 $-1 #
coedge $-1 $225 $220 $217 $333 forward $226 $-1 #
edge $-1 $336 -13.467123884149551 $426 -7.906825291045692 $332 $427 forward 7 unknown #
coedge $-1 $219 $218 $339 $428 reversed $77 $-1 #
edge $-1 $429 -77.546319169948646 $336 -68.514897014483736 $330 $430 forward 7 unknown #
vertex $-1 $221 $431 #
straight-curve $-1 -13.449700455139819 33.212860991870457 8.4990453419317618 1 0 0 I I #
coedge $-1 $329 $222 $225 $343 reversed $215 $-1 #
coedge $-1 $222 $329 $334 $428 forward $215 $-1 #
vertex $-1 $223 $432 #
straight-curve $-1 -33.179039818559531 38.773159584974309 71.218883498982862 0 0 1 I I #
straight-curve $-1 -33.179039818559531 -8.9691208619806133 62.489521537152456 0 0.61566146476048833 -0.78801076186113728 I I #
edge $-1 $426 20.619762001999746 $227 33.179039818559531 $338 $433 forward 7 unknown #
point $-1 -33.179039818559531 38.773159584974309 8.49904534193176 #
point $-1 -33.179039818559531 33.21286099187045 8.4990453419317689 #
edge $-1 $434 1 $434 0 $230 $-1 forward 7 unknown #
vertex $-1 $231 $435 #
ellipse-curve $-1 -26.899400910279638 35.095120038938234 4.2391076885072252 0 0.78801076186113728 0.61566146476048833 1 0 0 1 I I #
point $-1 -25.899400910279638 35.993010288422397 4.9406164152230545 #
loop $-1 $-1 $242 $234 #
plane-surface $-1 58.209547118053457 0 6.99904534193176 1 0 0 0 0 -1 forward_v I I I I #
coedge $-1 $357 $436 $238 $353 forward $235 $-1 #
edge $-1 $355 37.57806302578966 $363 45.745994244987259 $352 $437 forward 7 unknown #
coedge $-1 $245 $239 $436 $438 forward $139 $-1 #
vertex $-1 $438 $439 #
straight-curve $-1 34.106776239171474 -65.298132164223787 8.4990453419317618 0 -1 0 I I #
coedge $-1 $440 $352 $241 $358 forward $235 $-1 #
edge $-1 $363 11.027695399865244 $361 35.130466278747214 $357 $441 forward 7 unknown #
coedge $-1 $360 $242 $245 $365 reversed $350 $-1 #
coedge $-1 $242 $359 $440 $442 reversed $350 $-1 #
vertex $-1 $442 $443 #
straight-curve $-1 58.209547118053457 -27.412887108865121 11.691386862459652 0 0.70710677298230462 0.70710678939079052 I I #
vertex $-1 $358 $444 #
straight-curve $-1 34.106776239171474 -38.773159584974294 0.33111412273417784 0 0.70710677298230451 0.70710678939079041 I I #
edge $-1 $445 -38.773159584974309 $246 -30.605228555314397 $245 $446 forward 7 unknown #
point $-1 58.209547118053443 -30.605228555314397 8.49904534193176 #
point $-1 34.106776239171474 -30.605228555314397 8.49904534193176 #
edge $-1 $447 1 $447 0 $249 $-1 forward 7 unknown #
vertex $-1 $250 $448 #
ellipse-curve $-1 40.993282204566327 -32.250153640318487 1.9760393591052781 0 -0.70710678939079041 0.70710677298230451 2 0 0 1 I I #
point $-1 42.993282204566327 -34.689194070144367 4.415079732332976 #
edge $-1 $449 1 $449 0 $253 $-1 forward 7 unknown #
vertex $-1 $254 $450 #
ellipse-curve $-1 51.323041152658604 -32.250153640318487 1.9760393591052781 0 -0.70710678939079041 0.70710677298230451 2 0 0 1 I I #
point $-1 53.323041152658604 -34.689194070144367 4.415079732332976 #
plane-surface $-1 64.928739280373549 0 0 -1 0 0 0 0 1 forward_v I I I I #
coedge $-1 $262 $260 $264 $381 reversed $161 $-1 #
edge $-1 $275 -8.49904534193176 $383 8.49904534193176 $274 $451 forward 7 unknown #
vertex $-1 $381 $452 #
straight-curve $-1 -64.928739280373549 -38.773159584974309 0 0 0 -1 I I #
edge $-1 $379 -38.773159584974309 $383 38.773159584974309 $377 $453 forward 7 unknown #
straight-curve $-1 0 -38.773159584974309 -8.49904534193176 -1 0 0 I I #
vertex $-1 $267 $454 #
straight-curve $-1 0 38.773159584974309 -8.49904534193176 1 0 0 I I #
point $-1 64.928739280373549 38.773159584974309 -8.49904534193176 #
point $-1 64.928739280373549 -38.773159584974309 -8.49904534193176 #
straight-curve $-1 -64.928739280373549 0 8.49904534193176 0 -1 0 I I #
point $-1 -64.928739280373549 38.773159584974309 8.49904534193176 #
point $-1 -64.928739280373549 -38.773159584974309 8.49904534193176 #
straight-curve $-1 64.928739280373549 -38.773159584974309 0 0 0 -1 I I #
straight-curve $-1 64.928739280373549 38.773159584974309 0 0 0 -1 I I #
plane-surface $-1 0 -38.773159584974309 0 0 1 0 0 0 1 forward_v I I I I #
coedge $-1 $455 $287 $297 $404 reversed $180 $-1 #
coedge $-1 $287 $455 $300 $406 forward $180 $-1 #
coedge $-1 $456 $290 $288 $396 forward $285 $-1 #
edge $-1 $397 58.209547118053464 $457 64.928739280373549 $288 $458 forward 7 unknown #
vertex $-1 $396 $459 #
straight-curve $-1 -58.209547118053464 38.773159584974309 3.49952267096588 0 0 -1 I I #
coedge $-1 $290 $456 $292 $401 forward $285 $-1 #
straight-curve $-1 -58.209547118053464 0 8.49904534193176 0 1 0 I I #
edge $-1 $460 -64.928739280373549 $294 -58.209547118053464 $292 $461 forward 7 unknown #
point $-1 -58.209547118053464 -38.773159584974309 8.49904534193176 #
straight-curve $-1 -64.928739280373549 0 5.49904534193176 0 -1 0 I I #
edge $-1 $460 -8.49904534193176 $298 -5.49904534193176 $393 $462 forward 7 unknown #
point $-1 -64.928739280373549 -38.773159584974309 5.49904534193176 #
edge $-1 $457 -8.49904534193176 $301 -5.49904534193176 $300 $463 forward 7 unknown #
point $-1 -64.928739280373549 38.773159584974309 5.49904534193176 #
plane-surface $-1 64.928739280373549 0 0 -1 0 0 0 0 1 forward_v I I I I #
coedge $-1 $308 $318 $309 $412 reversed $196 $-1 #
edge $-1 $414 -4.99952267096588 $319 -1.99952267096588 $308 $464 forward 7 unknown #
coedge $-1 $310 $309 $323 $420 forward $116 $-1 #
edge $-1 $414 58.209547118053457 $423 64.928739280373549 $409 $465 forward 7 unknown #
edge $-1 $421 -64.928739280373549 $316 -58.209547118053457 $314 $466 forward 7 unknown #
vertex $-1 $412 $467 #
straight-curve $-1 58.209547118053457 0 8.49904534193176 0 -1 0 I I #
straight-curve $-1 58.209547118053457 0 5.49904534193176 0 1 0 I I #
point $-1 58.209547118053457 38.773159584974309 5.49904534193176 #
point $-1 58.209547118053457 38.773159584974309 8.49904534193176 #
point $-1 58.209547118053457 -38.773159584974309 5.49904534193176 #
edge $-1 $423 -38.773159584974309 $421 38.773159584974309 $323 $468 forward 7 unknown #
vertex $-1 $420 $469 #
straight-curve $-1 64.928739280373549 38.773159584974309 0 0 0 -1 I I #
vertex $-1 $420 $470 #
straight-curve $-1 64.928739280373549 -38.773159584974309 0 0 0 -1 I I #
edge $-1 $426 62.7198381570511 $429 69.836696010468557 $329 $471 forward 7 unknown #
vertex $-1 $343 $472 #
straight-curve $-1 -20.619762001999746 46.679984876020001 8.4990453419317618 0 1 0 I I #
edge $-1 $429 7.1700615468599267 $340 19.729339363419712 $339 $473 forward 7 unknown #
vertex $-1 $428 $474 #
straight-curve $-1 -20.619762001999746 -8.9691208619806133 62.489521537152456 0 -0.61566146476048833 0.78801076186113728 I I #
point $-1 -20.619762001999746 33.21286099187045 8.4990453419317689 #
point $-1 -33.179039818559531 38.773159584974309 1.3821874885143117 #
straight-curve $-1 0 38.773159584974309 8.49904534193176 -1 0 0 I I #
vertex $-1 $346 $475 #
point $-1 -25.899400910279638 35.095120038938234 4.2391076885072252 #
coedge $-1 $352 $440 $354 $438 reversed $235 $-1 #
straight-curve $-1 34.106776239171474 -38.773159584974309 46.077108367721422 0 0 -1 I I #
edge $-1 $355 34.106776239171474 $445 58.209547118053457 $436 $476 forward 7 unknown #
point $-1 34.106776239171474 -38.773159584974309 8.49904534193176 #
coedge $-1 $436 $357 $360 $442 forward $235 $-1 #
straight-curve $-1 23.079080839306229 -38.773159584974309 0.33111412273416363 1 0 0 I I #
edge $-1 $361 -45.745994244987259 $445 -37.57806302578966 $440 $477 forward 7 unknown #
point $-1 58.209547118053443 -38.773159584974309 0.33111412273416363 #
point $-1 34.106776239171474 -38.773159584974309 0.33111412273416363 #
vertex $-1 $365 $478 #
straight-curve $-1 58.209547118053457 0 8.49904534193176 0 1 0 I I #
vertex $-1 $368 $479 #
point $-1 42.993282204566327 -32.250153640318487 1.9760393591052781 #
vertex $-1 $372 $480 #
point $-1 53.323041152658604 -32.250153640318487 1.9760393591052781 #
straight-curve $-1 -64.928739280373549 38.773159584974309 0 0 0 -1 I I #
point $-1 -64.928739280373549 -38.773159584974309 -8.49904534193176 #
straight-curve $-1 -64.928739280373549 0 -8.49904534193176 0 1 0 I I #
point $-1 -64.928739280373549 38.773159584974309 -8.49904534193176 #
coedge $-1 $394 $393 $456 $481 reversed $180 $-1 #
coedge $-1 $399 $395 $455 $481 forward $285 $-1 #
vertex $-1 $396 $482 #
straight-curve $-1 0 38.773159584974309 8.49904534193176 -1 0 0 I I #
point $-1 -58.209547118053464 38.773159584974309 8.49904534193176 #
vertex $-1 $481 $483 #
straight-curve $-1 0 -38.773159584974309 8.49904534193176 1 0 0 I I #
straight-curve $-1 -64.928739280373549 -38.773159584974309 0 0 0 -1 I I #
straight-curve $-1 -64.928739280373549 38.773159584974309 0 0 0 -1 I I #
straight-curve $-1 58.209547118053457 -38.773159584974309 3.49952267096588 0 0 -1 I I #
straight-curve $-1 0 -38.773159584974309 8.49904534193176 1 0 0 I I #
straight-curve $-1 0 38.773159584974309 8.49904534193176 -1 0 0 I I #
point $-1 58.209547118053457 -38.773159584974309 8.49904534193176 #
straight-curve $-1 64.928739280373549 0 8.49904534193176 0 1 0 I I #
point $-1 64.928739280373549 38.773159584974309 8.49904534193176 #
point $-1 64.928739280373549 -38.773159584974309 8.49904534193176 #
straight-curve $-1 -20.619762001999746 38.773159584974309 71.218883498982862 0 0 -1 I I #
point $-1 -20.619762001999746 38.773159584974309 8.49904534193176 #
straight-curve $-1 -13.449700455139819 38.773159584974309 1.3821874885143011 -1 0 0 I I #
point $-1 -20.619762001999746 38.773159584974309 1.3821874885143117 #
point $-1 -26.899400910279638 34.307109277077103 3.6234462237467366 #
straight-curve $-1 0 -38.773159584974309 8.49904534193176 1 0 0 I I #
straight-curve $-1 58.209547118053443 -38.773159584974309 46.077108367721422 0 0 1 I I #
point $-1 58.209547118053457 -38.773159584974309 8.49904534193176 #
point $-1 40.993282204566327 -30.835940061536906 0.56182581314066915 #
point $-1 51.323041152658604 -30.835940061536906 0.56182581314066915 #
edge $-1 $457 -38.773159584974309 $460 38.773159584974309 $455 $484 forward 7 unknown #
point $-1 -64.928739280373549 38.773159584974309 8.49904534193176 #
point $-1 -64.928739280373549 -38.773159584974309 8.49904534193176 #
straight-curve $-1 -64.928739280373549 0 8.49904534193176 0 -1 0 I I #
End-of-ACIS-data 