500 0 12 0           
7 Unknown 11 ACIS 5.0 NT 24 Thu Mar 25 16:22:33 1999 
-1 9.9999999999999995e-007 1e-010 
body $-1 $12 $-1 $13 #
body $-1 $14 $-1 $15 #
body $-1 $16 $-1 $17 #
body $-1 $18 $-1 $19 #
body $-1 $20 $-1 $21 #
body $-1 $22 $-1 $23 #
body $-1 $24 $-1 $25 #
body $-1 $26 $-1 $27 #
body $-1 $28 $-1 $29 #
body $-1 $30 $-1 $31 #
body $-1 $32 $-1 $33 #
body $-1 $34 $-1 $35 #
lump $-1 $-1 $36 $0 #
transform $-1 1 0 0 0 1 0 0 0 1 48.608661152989285 33.842261631615486 8.9813625644254369 1 rotate no_reflect no_shear #
lump $-1 $-1 $37 $1 #
transform $-1 1 0 0 0 1 0 0 0 1 48.608661152989285 33.842261631615486 8.9813625644254369 1 rotate no_reflect no_shear #
lump $-1 $-1 $38 $2 #
transform $-1 1 0 0 0 1 0 0 0 1 48.608661152989285 33.842261631615486 8.9813625644254369 1 rotate no_reflect no_shear #
lump $-1 $-1 $39 $3 #
transform $-1 1 0 0 0 1 0 0 0 1 48.608661152989285 33.842261631615486 8.9813625644254369 1 rotate no_reflect no_shear #
lump $-1 $-1 $40 $4 #
transform $-1 1 0 0 0 1 0 0 0 1 48.608661152989285 33.842261631615486 8.9813625644254369 1 rotate no_reflect no_shear #
lump $-1 $-1 $41 $5 #
transform $-1 1 0 0 0 1 0 0 0 1 48.608661152989285 33.842261631615486 8.9813625644254369 1 rotate no_reflect no_shear #
lump $-1 $-1 $42 $6 #
transform $-1 1 0 0 0 1 0 0 0 1 48.608661152989285 33.842261631615486 8.9813625644254369 1 rotate no_reflect no_shear #
lump $-1 $-1 $43 $7 #
transform $-1 1 0 0 0 1 0 0 0 1 48.608661152989285 33.842261631615486 8.9813625644254369 1 rotate no_reflect no_shear #
lump $-1 $-1 $44 $8 #
transform $-1 1 0 0 0 1 0 0 0 1 48.608661152989285 33.842261631615486 8.9813625644254369 1 rotate no_reflect no_shear #
lump $-1 $-1 $45 $9 #
transform $-1 1 0 0 0 1 0 0 0 1 48.608661152989285 33.842261631615486 8.9813625644254369 1 rotate no_reflect no_shear #
lump $-1 $-1 $46 $10 #
transform $-1 1 0 0 0 1 0 0 0 1 48.608661152989285 33.842261631615486 8.9813625644254369 1 rotate no_reflect no_shear #
lump $-1 $-1 $47 $11 #
transform $-1 1 0 0 0 1 0 0 0 1 48.608661152989285 33.842261631615486 8.9813625644254369 1 rotate no_reflect no_shear #
shell $-1 $-1 $-1 $48 $-1 $12 #
shell $-1 $-1 $-1 $49 $-1 $14 #
shell $-1 $-1 $-1 $50 $-1 $16 #
shell $-1 $-1 $-1 $51 $-1 $18 #
shell $-1 $-1 $-1 $52 $-1 $20 #
shell $-1 $-1 $-1 $53 $-1 $22 #
shell $-1 $-1 $-1 $54 $-1 $24 #
shell $-1 $-1 $-1 $55 $-1 $26 #
shell $-1 $-1 $-1 $56 $-1 $28 #
shell $-1 $-1 $-1 $57 $-1 $30 #
shell $-1 $-1 $-1 $58 $-1 $32 #
shell $-1 $-1 $-1 $59 $-1 $34 #
face $-1 $60 $61 $36 $-1 $62 forward single #
face $-1 $63 $64 $37 $-1 $65 forward single #
face $-1 $66 $67 $38 $-1 $68 forward single #
face $-1 $69 $70 $39 $-1 $71 reversed single #
face $-1 $72 $73 $40 $-1 $74 forward single #
face $-1 $75 $76 $41 $-1 $77 forward single #
face $-1 $78 $79 $42 $-1 $80 reversed single #
face $-1 $81 $82 $43 $-1 $83 forward single #
face $-1 $84 $85 $44 $-1 $86 forward single #
face $-1 $87 $88 $45 $-1 $89 reversed single #
face $-1 $90 $91 $46 $-1 $92 forward single #
face $-1 $93 $94 $47 $-1 $95 forward single #
face $-1 $96 $97 $36 $-1 $98 reversed single #
loop $-1 $-1 $99 $48 #
plane-surface $-1 0 0 8.9813625644254369 0 0 1 1 0 0 forward_v I I I I #
face $-1 $100 $101 $37 $-1 $102 reversed single #
loop $-1 $-1 $103 $49 #
plane-surface $-1 0 -33.842261631615486 0 0 1 0 0 0 1 forward_v I I I I #
face $-1 $104 $105 $38 $-1 $106 forward single #
loop $-1 $-1 $107 $50 #
plane-surface $-1 0 33.842261631615486 0 0 -1 0 0 0 -1 forward_v I I I I #
face $-1 $108 $109 $39 $-1 $110 reversed single #
loop $-1 $-1 $111 $51 #
plane-surface $-1 -126.24986773776588 -22.039687174306568 64.107058317820773 0 1 0 -0.79863551827123203 0 0.60181501223851219 forward_v I I I I #
face $-1 $112 $113 $40 $-1 $114 forward single #
loop $-1 $115 $116 $52 #
cone-surface $-1 -46.751094568913047 -19.929867627082967 6.8509934768428877 0.79863551827123203 0 -0.60181501223851219 0.3009075061192561 0 0.39931775913561601 1 I I 0 1 0.5 forward I I I I #
face $-1 $117 $118 $41 $-1 $119 forward single #
loop $-1 $120 $121 $53 #
cone-surface $-1 -46.751094568913047 -16.765138306247565 6.8509934768428877 0.79863551827123203 0 -0.60181501223851219 0.3009075061192561 0 0.39931775913561601 1 I I 0 1 0.5 forward I I I I #
face $-1 $122 $123 $42 $-1 $124 reversed single #
loop $-1 $-1 $125 $54 #
plane-surface $-1 -126.24986773776588 19.96016369612164 64.107058317820773 0 1 0 -0.79863551827123203 0 0.60181501223851219 forward_v I I I I #
face $-1 $126 $127 $43 $-1 $128 forward single #
loop $-1 $129 $130 $55 #
cone-surface $-1 -46.751094568913047 22.069983243345234 6.8509934768428877 0.79863551827123203 0 -0.60181501223851219 0.3009075061192561 0 0.39931775913561601 1 I I 0 1 0.5 forward I I I I #
face $-1 $131 $132 $44 $-1 $133 forward single #
loop $-1 $134 $135 $56 #
cone-surface $-1 -46.751094568913047 25.23471256418064 6.8509934768428877 0.79863551827123203 0 -0.60181501223851219 0.3009075061192561 0 0.39931775913561601 1 I I 0 1 0.5 forward I I I I #
face $-1 $136 $137 $45 $-1 $138 reversed single #
loop $-1 $-1 $139 $57 #
plane-surface $-1 77.193621434423065 27.344532111404249 138.870336357648 0 -1 0 -0.83867057594974714 0 -0.54463902268945019 forward_v I I I I #
face $-1 $140 $141 $46 $-1 $142 forward single #
loop $-1 $143 $144 $58 #
cone-surface $-1 46.132351900904162 19.986124917896085 6.0453241228674095 -0.83867057594974714 0 -0.54463902268945019 0.54463902268945019 0 -0.83867057594974714 1 I I 0 1 1 forward I I I I #
face $-1 $145 $146 $47 $-1 $147 forward single #
loop $-1 $148 $149 $59 #
cone-surface $-1 46.132351900904162 24.401169234000982 6.0453241228674095 -0.83867057594974714 0 -0.54463902268945019 0.54463902268945019 0 -0.83867057594974714 1 I I 0 1 1 forward I I I I #
face $-1 $150 $151 $36 $-1 $152 reversed single #
loop $-1 $-1 $153 $60 #
plane-surface $-1 0 0 -8.9813625644254369 0 0 1 1 0 0 forward_v I I I I #
coedge $-1 $154 $155 $156 $157 forward $61 $-1 #
face $-1 $158 $159 $37 $-1 $160 reversed single #
loop $-1 $-1 $161 $63 #
plane-surface $-1 0 0 -8.9813625644254369 0 0 1 1 0 0 forward_v I I I I #
coedge $-1 $162 $163 $164 $165 forward $64 $-1 #
face $-1 $166 $167 $38 $-1 $168 reversed single #
loop $-1 $-1 $169 $66 #
plane-surface $-1 0 0 8.9813625644254369 0 0 1 1 0 0 forward_v I I I I #
coedge $-1 $170 $171 $172 $173 forward $67 $-1 #
face $-1 $174 $175 $39 $-1 $176 reversed single #
loop $-1 $-1 $177 $69 #
plane-surface $-1 -48.608661152989285 -18.347502966665264 5.6002143044528978 -0.79863551827123203 0 0.60181501223851219 0.60181501223851219 0 0.79863551827123203 forward_v I I I I #
coedge $-1 $178 $179 $180 $181 reversed $70 $-1 #
face $-1 $-1 $182 $40 $-1 $183 forward single #
loop $-1 $184 $185 $72 #
cone-surface $-1 -45.967808051698711 -19.929867627082967 6.2607447661869795 0.79863551827123203 0 -0.60181501223851219 0.15045375305962805 0 0.19965887956780801 1 I I -0.70710678118654746 0.70710678118654746 0.25 forward I I I I #
loop $-1 $-1 $186 $52 #
coedge $-1 $116 $116 $187 $188 reversed $73 $-1 #
face $-1 $-1 $189 $41 $-1 $190 forward single #
loop $-1 $191 $192 $75 #
cone-surface $-1 -45.967808051698711 -16.765138306247565 6.2607447661869795 0.79863551827123203 0 -0.60181501223851219 0.15045375305962805 0 0.19965887956780801 1 I I -0.70710678118654746 0.70710678118654746 0.25 forward I I I I #
loop $-1 $-1 $193 $53 #
coedge $-1 $121 $121 $194 $195 reversed $76 $-1 #
face $-1 $196 $197 $42 $-1 $198 reversed single #
loop $-1 $-1 $199 $78 #
plane-surface $-1 -48.608661152989285 23.652347903762944 5.6002143044528978 -0.79863551827123203 0 0.60181501223851219 0.60181501223851219 0 0.79863551827123203 forward_v I I I I #
coedge $-1 $200 $201 $202 $203 reversed $79 $-1 #
face $-1 $-1 $204 $43 $-1 $205 forward single #
loop $-1 $206 $207 $81 #
cone-surface $-1 -45.967808051698711 22.069983243345234 6.2607447661869795 0.79863551827123203 0 -0.60181501223851219 0.15045375305962805 0 0.19965887956780801 1 I I -0.70710678118654746 0.70710678118654746 0.25 forward I I I I #
loop $-1 $-1 $208 $55 #
coedge $-1 $130 $130 $209 $210 reversed $82 $-1 #
face $-1 $-1 $211 $44 $-1 $212 forward single #
loop $-1 $213 $214 $84 #
cone-surface $-1 -45.967808051698711 25.23471256418064 6.2607447661869795 0.79863551827123203 0 -0.60181501223851219 0.15045375305962805 0 0.19965887956780801 1 I I -0.70710678118654746 0.70710678118654746 0.25 forward I I I I #
loop $-1 $-1 $215 $56 #
coedge $-1 $135 $135 $216 $217 reversed $85 $-1 #
face $-1 $218 $219 $45 $-1 $220 reversed single #
loop $-1 $-1 $221 $87 #
plane-surface $-1 -4.3396862562241836 22.193647075948533 85.921988948434546 0.83867057594974714 0 0.54463902268945019 0.54463902268945019 0 -0.83867057594974714 forward_v I I I I #
coedge $-1 $222 $223 $224 $225 reversed $88 $-1 #
face $-1 $-1 $226 $46 $-1 $227 forward single #
loop $-1 $228 $229 $90 #
cone-surface $-1 44.727968369696711 19.986124917896085 5.1333068232837196 -0.83867057594974714 0 -0.54463902268945019 0.2723195113447251 0 -0.41933528797487357 1 I I -0.70710678118654746 0.70710678118654746 0.5 forward I I I I #
loop $-1 $-1 $230 $58 #
coedge $-1 $144 $144 $231 $232 reversed $91 $-1 #
face $-1 $-1 $233 $47 $-1 $234 forward single #
loop $-1 $235 $236 $93 #
cone-surface $-1 44.727968369696711 24.401169234000982 5.1333068232837196 -0.83867057594974714 0 -0.54463902268945019 0.2723195113447251 0 -0.41933528797487357 1 I I -0.70710678118654746 0.70710678118654746 0.5 forward I I I I #
loop $-1 $-1 $237 $59 #
coedge $-1 $149 $149 $238 $239 reversed $94 $-1 #
face $-1 $240 $241 $36 $-1 $242 reversed single #
loop $-1 $-1 $243 $96 #
plane-surface $-1 0 -33.842261631615486 0 0 1 0 0 0 1 forward_v I I I I #
coedge $-1 $244 $245 $246 $247 forward $97 $-1 #
coedge $-1 $248 $99 $249 $250 forward $61 $-1 #
coedge $-1 $99 $248 $251 $252 forward $61 $-1 #
coedge $-1 $253 $254 $99 $157 reversed $255 $-1 #
edge $-1 $256 -33.842261631615486 $257 33.842261631615486 $156 $258 forward 7 unknown #
face $-1 $259 $260 $37 $-1 $261 forward single #
loop $-1 $-1 $262 $100 #
plane-surface $-1 48.608661152989285 0 0 -1 0 0 0 0 1 forward_v I I I I #
coedge $-1 $263 $264 $265 $266 forward $101 $-1 #
coedge $-1 $265 $103 $262 $267 reversed $64 $-1 #
coedge $-1 $103 $265 $268 $269 reversed $64 $-1 #
coedge $-1 $270 $271 $103 $165 reversed $260 $-1 #
edge $-1 $272 -48.608661152989285 $273 48.608661152989285 $164 $274 forward 7 unknown #
face $-1 $275 $276 $38 $-1 $277 reversed single #
loop $-1 $-1 $278 $104 #
plane-surface $-1 -46.250570382457695 40.339991151826723 0 0 -1 0 0 0 -1 forward_v I I I I #
coedge $-1 $279 $280 $170 $281 forward $105 $-1 #
coedge $-1 $282 $107 $169 $281 reversed $67 $-1 #
coedge $-1 $107 $282 $283 $284 reversed $67 $-1 #
coedge $-1 $285 $286 $107 $173 reversed $276 $-1 #
edge $-1 $287 -8.9813625644254369 $288 8.9813625644254369 $172 $289 forward 7 unknown #
face $-1 $290 $291 $39 $-1 $292 forward single #
loop $-1 $-1 $293 $108 #
plane-surface $-1 -126.24986773776588 -14.65531875902396 64.107058317820773 0 -1 0 0.79863551827123203 0 -0.60181501223851219 forward_v I I I I #
coedge $-1 $294 $295 $296 $297 reversed $109 $-1 #
coedge $-1 $179 $111 $298 $299 reversed $70 $-1 #
coedge $-1 $111 $178 $294 $300 reversed $70 $-1 #
coedge $-1 $296 $301 $111 $181 forward $291 $-1 #
edge $-1 $302 14.516272715893656 $303 17.064150608753074 $180 $304 forward 7 unknown #
loop $-1 $-1 $187 $112 #
plane-surface $-1 -48.608661152989285 -18.347502966665264 5.6002143044528978 -0.79863551827123203 0 0.60181501223851219 0.60181501223851219 0 0.79863551827123203 forward_v I I I I #
loop $-1 $-1 $305 $72 #
coedge $-1 $185 $185 $186 $306 reversed $113 $-1 #
coedge $-1 $186 $186 $185 $306 forward $115 $-1 #
coedge $-1 $187 $187 $116 $188 forward $182 $-1 #
edge $-1 $307 0 $307 6.2831853071796004 $187 $308 forward 7 unknown #
loop $-1 $-1 $194 $117 #
plane-surface $-1 -48.608661152989285 -18.347502966665264 5.6002143044528978 -0.79863551827123203 0 0.60181501223851219 0.60181501223851219 0 0.79863551827123203 forward_v I I I I #
loop $-1 $-1 $309 $75 #
coedge $-1 $192 $192 $193 $310 reversed $118 $-1 #
coedge $-1 $193 $193 $192 $310 forward $120 $-1 #
coedge $-1 $194 $194 $121 $195 forward $189 $-1 #
edge $-1 $311 0 $311 6.2831853071796004 $194 $312 forward 7 unknown #
face $-1 $313 $314 $42 $-1 $315 forward single #
loop $-1 $-1 $316 $122 #
plane-surface $-1 -126.24986773776588 27.344532111404249 64.107058317820773 0 -1 0 0.79863551827123203 0 -0.60181501223851219 forward_v I I I I #
coedge $-1 $317 $318 $319 $320 reversed $123 $-1 #
coedge $-1 $201 $125 $321 $322 reversed $79 $-1 #
coedge $-1 $125 $200 $317 $323 reversed $79 $-1 #
coedge $-1 $319 $324 $125 $203 forward $314 $-1 #
edge $-1 $325 14.516272715893656 $326 17.064150608753074 $202 $327 forward 7 unknown #
loop $-1 $-1 $209 $126 #
plane-surface $-1 -48.608661152989285 23.652347903762944 5.6002143044528978 -0.79863551827123203 0 0.60181501223851219 0.60181501223851219 0 0.79863551827123203 forward_v I I I I #
loop $-1 $-1 $328 $81 #
coedge $-1 $207 $207 $208 $329 reversed $127 $-1 #
coedge $-1 $208 $208 $207 $329 forward $129 $-1 #
coedge $-1 $209 $209 $130 $210 forward $204 $-1 #
edge $-1 $330 0 $330 6.2831853071796004 $209 $331 forward 7 unknown #
loop $-1 $-1 $216 $131 #
plane-surface $-1 -48.608661152989285 23.652347903762944 5.6002143044528978 -0.79863551827123203 0 0.60181501223851219 0.60181501223851219 0 0.79863551827123203 forward_v I I I I #
loop $-1 $-1 $332 $84 #
coedge $-1 $214 $214 $215 $333 reversed $132 $-1 #
coedge $-1 $215 $215 $214 $333 forward $134 $-1 #
coedge $-1 $216 $216 $135 $217 forward $211 $-1 #
edge $-1 $334 0 $334 6.2831853071796004 $216 $335 forward 7 unknown #
face $-1 $336 $337 $45 $-1 $338 reversed single #
loop $-1 $-1 $339 $136 #
plane-surface $-1 77.193621434423065 17.042762040492818 138.870336357648 0 1 0 0.83867057594974714 0 0.54463902268945019 forward_v I I I I #
coedge $-1 $340 $341 $342 $343 reversed $137 $-1 #
coedge $-1 $223 $139 $344 $345 reversed $88 $-1 #
coedge $-1 $139 $222 $340 $346 reversed $88 $-1 #
coedge $-1 $342 $347 $139 $225 forward $348 $-1 #
edge $-1 $349 -10.011850435777752 $350 -7.0293284180726801 $224 $351 forward 7 unknown #
loop $-1 $-1 $231 $140 #
plane-surface $-1 -4.3396862562241836 22.193647075948533 85.921988948434546 0.83867057594974714 0 0.54463902268945019 0.54463902268945019 0 -0.83867057594974714 forward_v I I I I #
loop $-1 $-1 $352 $90 #
coedge $-1 $229 $229 $230 $353 reversed $141 $-1 #
coedge $-1 $230 $230 $229 $353 forward $143 $-1 #
coedge $-1 $231 $231 $144 $232 forward $226 $-1 #
edge $-1 $354 0 $354 6.2831853071796004 $231 $355 forward 7 unknown #
loop $-1 $-1 $238 $145 #
plane-surface $-1 -4.3396862562241836 22.193647075948533 85.921988948434546 0.83867057594974714 0 0.54463902268945019 0.54463902268945019 0 -0.83867057594974714 forward_v I I I I #
loop $-1 $-1 $356 $93 #
coedge $-1 $236 $236 $237 $357 reversed $146 $-1 #
coedge $-1 $237 $237 $236 $357 forward $148 $-1 #
coedge $-1 $238 $238 $149 $239 forward $233 $-1 #
edge $-1 $358 0 $358 6.2831853071796004 $238 $359 forward 7 unknown #
face $-1 $360 $361 $36 $-1 $362 reversed single #
loop $-1 $-1 $363 $150 #
plane-surface $-1 -48.608661152989285 0 0 1 0 0 0 0 -1 forward_v I I I I #
coedge $-1 $364 $251 $365 $366 forward $151 $-1 #
coedge $-1 $367 $153 $364 $368 forward $97 $-1 #
coedge $-1 $153 $367 $369 $370 forward $97 $-1 #
coedge $-1 $254 $253 $153 $247 reversed $255 $-1 #
edge $-1 $371 -33.842261631615486 $372 33.842261631615486 $246 $373 forward 7 unknown #
coedge $-1 $155 $154 $374 $375 forward $61 $-1 #
coedge $-1 $376 $377 $154 $250 reversed $361 $-1 #
edge $-1 $257 -48.608661152989285 $378 48.608661152989285 $249 $379 forward 7 unknown #
coedge $-1 $243 $380 $155 $252 reversed $151 $-1 #
edge $-1 $381 -48.608661152989285 $256 48.608661152989285 $251 $382 forward 7 unknown #
coedge $-1 $246 $156 $380 $383 forward $255 $-1 #
coedge $-1 $156 $246 $376 $384 reversed $255 $-1 #
loop $-1 $-1 $253 $360 #
vertex $-1 $157 $385 #
vertex $-1 $157 $386 #
straight-curve $-1 48.608661152989285 0 8.9813625644254369 0 1 0 I I #
face $-1 $387 $388 $37 $-1 $389 reversed single #
loop $-1 $-1 $271 $158 #
plane-surface $-1 0 -39.743548860269946 -4.4338059890177881 0 0 1 1 0 0 forward_v I I I I #
coedge $-1 $390 $391 $162 $267 forward $159 $-1 #
coedge $-1 $392 $161 $391 $393 forward $101 $-1 #
coedge $-1 $161 $392 $394 $395 forward $101 $-1 #
coedge $-1 $163 $162 $161 $266 reversed $64 $-1 #
edge $-1 $396 -48.608661152989285 $397 48.608661152989285 $161 $398 forward 7 unknown #
edge $-1 $397 -8.9813625644254369 $273 -4.4338059890177881 $262 $399 forward 7 unknown #
coedge $-1 $394 $400 $163 $269 forward $401 $-1 #
edge $-1 $272 4.4338059890177881 $396 8.9813625644254369 $268 $402 forward 7 unknown #
coedge $-1 $403 $164 $400 $404 forward $260 $-1 #
coedge $-1 $164 $403 $390 $405 forward $260 $-1 #
vertex $-1 $269 $406 #
vertex $-1 $405 $407 #
straight-curve $-1 0 -33.842261631615486 -4.4338059890177881 1 0 0 I I #
face $-1 $408 $409 $38 $-1 $410 reversed single #
loop $-1 $-1 $172 $166 #
plane-surface $-1 -43.892479611926106 37.091126391721104 0 -1 0 0 0 0 1 forward_v I I I I #
coedge $-1 $411 $412 $413 $414 forward $167 $-1 #
coedge $-1 $415 $169 $286 $416 forward $105 $-1 #
coedge $-1 $169 $415 $417 $418 forward $105 $-1 #
edge $-1 $419 -48.608661152989285 $288 -43.892479611926106 $169 $420 forward 7 unknown #
coedge $-1 $171 $170 $421 $422 reversed $67 $-1 #
coedge $-1 $423 $424 $171 $284 forward $409 $-1 #
edge $-1 $287 43.892479611926106 $425 48.608661152989285 $283 $426 forward 7 unknown #
coedge $-1 $413 $172 $424 $427 reversed $276 $-1 #
coedge $-1 $172 $413 $279 $416 reversed $276 $-1 #
vertex $-1 $284 $428 #
vertex $-1 $416 $429 #
straight-curve $-1 -43.892479611926106 33.842261631615486 0 0 0 1 I I #
face $-1 $-1 $430 $39 $-1 $431 reversed single #
loop $-1 $-1 $180 $174 #
plane-surface $-1 0 0 8.9813625644254369 0 0 1 1 0 0 forward_v I I I I #
coedge $-1 $432 $433 $434 $435 reversed $175 $-1 #
coedge $-1 $436 $177 $179 $300 forward $109 $-1 #
coedge $-1 $177 $436 $432 $437 forward $109 $-1 #
coedge $-1 $434 $180 $177 $297 forward $291 $-1 #
edge $-1 $303 -12.865935690973936 $438 -5.4815672756913276 $296 $439 forward 7 unknown #
coedge $-1 $440 $441 $178 $299 forward $430 $-1 #
edge $-1 $442 -26.453314854457489 $302 -23.072166594484948 $298 $443 forward 7 unknown #
edge $-1 $303 -4.2336562582284678 $442 0 $179 $444 forward 7 unknown #
coedge $-1 $180 $434 $440 $445 forward $291 $-1 #
vertex $-1 $299 $446 #
vertex $-1 $181 $447 #
straight-curve $-1 -63.124933868882941 -22.039687174306568 8.9813625644254387 1 0 0 I I #
coedge $-1 $305 $305 $-1 $448 reversed $184 $-1 #
edge $-1 $449 0 $449 6.2831853071796004 $185 $450 forward 7 unknown #
vertex $-1 $188 $451 #
ellipse-curve $-1 -47.334722206559576 -19.929867627082967 7.2907884344391674 -0.79863551827123203 0 0.60181501223851219 0.3009075061192561 0 0.39931775913561601 1 I I #
coedge $-1 $309 $309 $-1 $452 reversed $191 $-1 #
edge $-1 $453 0 $453 6.2831853071796004 $192 $454 forward 7 unknown #
vertex $-1 $195 $455 #
ellipse-curve $-1 -47.334722206559576 -16.765138306247565 7.2907884344391674 -0.79863551827123203 0 0.60181501223851219 0.3009075061192561 0 0.39931775913561601 1 I I #
face $-1 $-1 $456 $42 $-1 $457 reversed single #
loop $-1 $-1 $202 $196 #
plane-surface $-1 0 0 8.9813625644254369 0 0 1 1 0 0 forward_v I I I I #
coedge $-1 $458 $459 $460 $461 reversed $197 $-1 #
coedge $-1 $462 $199 $201 $323 forward $123 $-1 #
coedge $-1 $199 $462 $458 $463 forward $123 $-1 #
coedge $-1 $460 $202 $199 $320 forward $314 $-1 #
edge $-1 $326 8.1339897442401679 $464 15.518358159522776 $319 $465 forward 7 unknown #
coedge $-1 $466 $467 $200 $322 forward $456 $-1 #
edge $-1 $468 -26.453314854457489 $325 -23.072166594484948 $321 $469 forward 7 unknown #
edge $-1 $326 -4.2336562582284678 $468 0 $201 $470 forward 7 unknown #
coedge $-1 $202 $460 $466 $471 forward $314 $-1 #
vertex $-1 $203 $472 #
vertex $-1 $203 $473 #
straight-curve $-1 -63.124933868882941 19.96016369612164 8.9813625644254387 1 0 0 I I #
coedge $-1 $328 $328 $-1 $474 reversed $206 $-1 #
edge $-1 $475 0 $475 6.2831853071796004 $207 $476 forward 7 unknown #
vertex $-1 $210 $477 #
ellipse-curve $-1 -47.334722206559576 22.069983243345234 7.2907884344391674 -0.79863551827123203 0 0.60181501223851219 0.3009075061192561 0 0.39931775913561601 1 I I #
coedge $-1 $332 $332 $-1 $478 reversed $213 $-1 #
edge $-1 $479 0 $479 6.2831853071796004 $214 $480 forward 7 unknown #
vertex $-1 $217 $481 #
ellipse-curve $-1 -47.334722206559576 25.23471256418064 7.2907884344391674 -0.79863551827123203 0 0.60181501223851219 0.3009075061192561 0 0.39931775913561601 1 I I #
face $-1 $-1 $348 $45 $-1 $482 forward single #
loop $-1 $-1 $483 $218 #
plane-surface $-1 48.608661152989285 0 0 -1 0 0 0 0 1 forward_v I I I I #
coedge $-1 $484 $485 $486 $487 reversed $219 $-1 #
coedge $-1 $488 $221 $223 $346 forward $137 $-1 #
coedge $-1 $221 $488 $484 $489 forward $137 $-1 #
coedge $-1 $486 $224 $221 $343 forward $348 $-1 #
edge $-1 $350 -16.247708573429982 $490 -5.9459385025185512 $342 $491 forward 7 unknown #
coedge $-1 $492 $493 $222 $345 forward $337 $-1 #
edge $-1 $494 -65.046486921036731 $349 -60.453805614398561 $344 $495 forward 7 unknown #
edge $-1 $350 91.741177752514076 $494 97.217322305978598 $223 $496 forward 7 unknown #
coedge $-1 $224 $486 $492 $497 forward $348 $-1 #
loop $-1 $-1 $486 $336 #
vertex $-1 $345 $498 #
vertex $-1 $225 $499 #
straight-curve $-1 38.596810717211532 27.344532111404249 8.9813625644254387 -1 0 0 I I #
coedge $-1 $352 $352 $-1 $500 reversed $228 $-1 #
edge $-1 $501 0 $501 6.2831853071796004 $229 $502 forward 7 unknown #
vertex $-1 $232 $503 #
ellipse-curve $-1 47.117400144136738 19.986124917896085 6.6850219111063724 0.83867057594974714 0 0.54463902268945019 0.54463902268945019 0 -0.83867057594974714 1 I I #
coedge $-1 $356 $356 $-1 $504 reversed $235 $-1 #
edge $-1 $505 0 $505 6.2831853071796004 $236 $506 forward 7 unknown #
vertex $-1 $239 $507 #
ellipse-curve $-1 47.117400144136738 24.401169234000982 6.6850219111063724 0.83867057594974714 0 0.54463902268945019 0.54463902268945019 0 -0.83867057594974714 1 I I #
face $-1 $-1 $255 $36 $-1 $508 reversed single #
loop $-1 $-1 $376 $240 #
plane-surface $-1 0 33.842261631615486 0 0 -1 0 0 0 -1 forward_v I I I I #
coedge $-1 $509 $374 $377 $510 forward $241 $-1 #
coedge $-1 $380 $243 $244 $368 reversed $151 $-1 #
coedge $-1 $374 $509 $243 $366 reversed $241 $-1 #
edge $-1 $381 -8.9813625644254369 $511 8.9813625644254369 $365 $512 forward 7 unknown #
coedge $-1 $245 $244 $509 $513 forward $97 $-1 #
edge $-1 $372 -48.608661152989285 $511 48.608661152989285 $364 $514 forward 7 unknown #
coedge $-1 $377 $376 $245 $370 reversed $361 $-1 #
edge $-1 $515 -48.608661152989285 $371 48.608661152989285 $369 $516 forward 7 unknown #
vertex $-1 $247 $517 #
vertex $-1 $383 $518 #
straight-curve $-1 48.608661152989285 0 -8.9813625644254369 0 -1 0 I I #
coedge $-1 $363 $365 $248 $375 reversed $241 $-1 #
edge $-1 $378 -33.842261631615486 $381 33.842261631615486 $374 $519 forward 7 unknown #
coedge $-1 $369 $249 $254 $384 forward $361 $-1 #
coedge $-1 $249 $369 $363 $510 reversed $361 $-1 #
vertex $-1 $250 $520 #
straight-curve $-1 0 33.842261631615486 8.9813625644254369 -1 0 0 I I #
coedge $-1 $251 $364 $253 $383 reversed $151 $-1 #
vertex $-1 $375 $521 #
straight-curve $-1 0 -33.842261631615486 8.9813625644254369 1 0 0 I I #
edge $-1 $256 -8.9813625644254369 $372 8.9813625644254369 $253 $522 forward 7 unknown #
edge $-1 $257 -8.9813625644254369 $371 8.9813625644254369 $254 $523 forward 7 unknown #
point $-1 48.608661152989285 -33.842261631615486 8.9813625644254369 #
point $-1 48.608661152989285 33.842261631615486 8.9813625644254369 #
face $-1 $-1 $401 $37 $-1 $524 reversed single #
loop $-1 $-1 $525 $259 #
plane-surface $-1 0 -45.644836088924407 -6.7075842767216125 0 1 0 0 0 1 forward_v I I I I #
coedge $-1 $526 $262 $271 $405 reversed $159 $-1 #
coedge $-1 $262 $526 $263 $393 reversed $159 $-1 #
coedge $-1 $264 $263 $527 $528 forward $101 $-1 #
edge $-1 $397 33.842261631615486 $529 45.644836088924407 $391 $530 forward 7 unknown #
coedge $-1 $531 $268 $264 $395 reversed $401 $-1 #
edge $-1 $532 -45.644836088924407 $396 -33.842261631615486 $394 $533 forward 7 unknown #
vertex $-1 $269 $534 #
vertex $-1 $393 $535 #
straight-curve $-1 0 -33.842261631615486 -8.9813625644254369 1 0 0 I I #
straight-curve $-1 48.608661152989285 -33.842261631615486 0 0 0 1 I I #
coedge $-1 $268 $531 $270 $404 reversed $401 $-1 #
loop $-1 $-1 $268 $387 #
straight-curve $-1 -48.608661152989285 -33.842261631615486 0 0 0 -1 I I #
coedge $-1 $271 $270 $536 $537 forward $260 $-1 #
edge $-1 $272 -5.9012872286544606 $538 5.9012872286544606 $400 $539 forward 7 unknown #
edge $-1 $540 -5.9012872286544606 $273 5.9012872286544606 $390 $541 forward 7 unknown #
point $-1 -48.608661152989285 -33.842261631615486 -4.4338059890177881 #
point $-1 48.608661152989285 -33.842261631615486 -4.4338059890177881 #
face $-1 $-1 $542 $38 $-1 $543 reversed single #
loop $-1 $-1 $283 $275 #
plane-surface $-1 0 0 -8.9813625644254369 0 0 1 1 0 0 forward_v I I I I #
coedge $-1 $544 $278 $545 $546 reversed $167 $-1 #
coedge $-1 $278 $544 $415 $547 reversed $167 $-1 #
coedge $-1 $286 $285 $278 $414 reversed $276 $-1 #
edge $-1 $548 -8.9813625644254369 $549 8.9813625644254369 $413 $550 forward 7 unknown #
coedge $-1 $280 $279 $412 $547 forward $105 $-1 #
edge $-1 $288 -3.2488647601056186 $548 3.2488647601056186 $286 $551 forward 7 unknown #
coedge $-1 $552 $421 $280 $418 reversed $542 $-1 #
edge $-1 $553 -40.339991151826723 $419 -33.842261631615486 $417 $554 forward 7 unknown #
vertex $-1 $422 $555 #
straight-curve $-1 0 33.842261631615486 8.9813625644254369 1 0 0 I I #
coedge $-1 $417 $556 $282 $422 forward $542 $-1 #
edge $-1 $425 -8.9813625644254369 $419 8.9813625644254369 $421 $557 forward 7 unknown #
coedge $-1 $545 $283 $556 $558 forward $409 $-1 #
coedge $-1 $283 $545 $285 $427 forward $409 $-1 #
vertex $-1 $558 $559 #
straight-curve $-1 0 33.842261631615486 -8.9813625644254369 -1 0 0 I I #
edge $-1 $549 -3.2488647601056186 $287 3.2488647601056186 $285 $560 forward 7 unknown #
point $-1 -43.892479611926106 33.842261631615486 -8.9813625644254369 #
point $-1 -43.892479611926106 33.842261631615486 8.9813625644254369 #
loop $-1 $-1 $298 $290 #
plane-surface $-1 -48.608661152989285 0 0 1 0 0 0 0 -1 forward_v I I I I #
coedge $-1 $433 $293 $295 $437 reversed $175 $-1 #
coedge $-1 $293 $432 $561 $562 reversed $175 $-1 #
coedge $-1 $301 $296 $293 $435 forward $291 $-1 #
edge $-1 $438 -17.064150608753074 $563 -14.516272715893656 $434 $564 forward 7 unknown #
coedge $-1 $295 $294 $441 $565 reversed $109 $-1 #
edge $-1 $566 0 $438 4.2336562582284678 $432 $567 forward 7 unknown #
vertex $-1 $297 $568 #
straight-curve $-1 -46.060783260129867 -9.1737514833326319 8.9813625644254369 0 1 0 I I #
coedge $-1 $561 $298 $301 $445 reversed $430 $-1 #
coedge $-1 $298 $561 $436 $565 forward $430 $-1 #
vertex $-1 $299 $569 #
straight-curve $-1 -48.608661152989285 -22.039687174306568 32.053529158910386 0 0 1 I I #
straight-curve $-1 -48.608661152989285 -22.039687174306568 5.6002143044528978 -0.60181501223851219 0 -0.79863551827123203 I I #
edge $-1 $563 14.65531875902396 $302 22.039687174306568 $440 $570 forward 7 unknown #
point $-1 -48.608661152989285 -22.039687174306568 8.9813625644254369 #
point $-1 -46.060783260129867 -22.039687174306568 8.9813625644254369 #
edge $-1 $571 1 $571 0 $305 $-1 forward 7 unknown #
vertex $-1 $306 $572 #
ellipse-curve $-1 -46.167466931266517 -19.929867627082967 6.4111985192466072 -0.79863551827123203 0 0.60181501223851219 0.3009075061192561 0 0.39931775913561601 1 I I #
point $-1 -47.033814700440317 -19.929867627082967 7.690106193574783 #
edge $-1 $573 1 $573 0 $309 $-1 forward 7 unknown #
vertex $-1 $310 $574 #
ellipse-curve $-1 -46.167466931266517 -16.765138306247565 6.4111985192466072 -0.79863551827123203 0 0.60181501223851219 0.3009075061192561 0 0.39931775913561601 1 I I #
point $-1 -47.033814700440317 -16.765138306247565 7.690106193574783 #
loop $-1 $-1 $321 $313 #
plane-surface $-1 -48.608661152989285 0 0 1 0 0 0 0 -1 forward_v I I I I #
coedge $-1 $459 $316 $318 $463 reversed $197 $-1 #
coedge $-1 $316 $458 $575 $576 reversed $197 $-1 #
coedge $-1 $324 $319 $316 $461 forward $314 $-1 #
edge $-1 $464 -17.064150608753074 $577 -14.516272715893656 $460 $578 forward 7 unknown #
coedge $-1 $318 $317 $467 $579 reversed $123 $-1 #
edge $-1 $580 0 $464 4.2336562582284678 $458 $581 forward 7 unknown #
vertex $-1 $320 $582 #
straight-curve $-1 -46.060783260129867 11.826173951881472 8.9813625644254369 0 1 0 I I #
coedge $-1 $575 $321 $324 $471 reversed $456 $-1 #
coedge $-1 $321 $575 $462 $579 forward $456 $-1 #
vertex $-1 $322 $583 #
straight-curve $-1 -48.608661152989285 19.96016369612164 32.053529158910386 0 0 1 I I #
straight-curve $-1 -48.608661152989285 19.96016369612164 5.6002143044528978 -0.60181501223851219 0 -0.79863551827123203 I I #
edge $-1 $577 -27.344532111404249 $325 -19.96016369612164 $466 $584 forward 7 unknown #
point $-1 -48.608661152989285 19.96016369612164 8.9813625644254369 #
point $-1 -46.060783260129867 19.96016369612164 8.9813625644254369 #
edge $-1 $585 1 $585 0 $328 $-1 forward 7 unknown #
vertex $-1 $329 $586 #
ellipse-curve $-1 -46.167466931266517 22.069983243345234 6.4111985192466072 -0.79863551827123203 0 0.60181501223851219 0.3009075061192561 0 0.39931775913561601 1 I I #
point $-1 -47.033814700440317 22.069983243345234 7.690106193574783 #
edge $-1 $587 1 $587 0 $332 $-1 forward 7 unknown #
vertex $-1 $333 $588 #
ellipse-curve $-1 -46.167466931266517 25.23471256418064 6.4111985192466072 -0.79863551827123203 0 0.60181501223851219 0.3009075061192561 0 0.39931775913561601 1 I I #
point $-1 -47.033814700440317 25.23471256418064 7.690106193574783 #
plane-surface $-1 0 0 8.9813625644254369 0 0 1 1 0 0 forward_v I I I I #
coedge $-1 $493 $492 $485 $589 forward $337 $-1 #
coedge $-1 $485 $339 $341 $489 reversed $219 $-1 #
coedge $-1 $339 $484 $483 $589 reversed $219 $-1 #
coedge $-1 $347 $342 $339 $487 forward $348 $-1 #
edge $-1 $490 7.0293284180726801 $590 10.011850435777752 $486 $591 forward 7 unknown #
coedge $-1 $341 $340 $493 $592 reversed $137 $-1 #
edge $-1 $593 -97.217322305978598 $490 -91.741177752514076 $484 $594 forward 7 unknown #
vertex $-1 $343 $595 #
straight-curve $-1 45.626139135284205 11.096823537974267 8.9813625644254387 0 -1 0 I I #
coedge $-1 $483 $344 $347 $497 reversed $337 $-1 #
coedge $-1 $344 $483 $488 $592 forward $337 $-1 #
vertex $-1 $345 $596 #
straight-curve $-1 48.608661152989285 27.344532111404249 69.435168178824 0 0 1 I I #
straight-curve $-1 -4.3396862562241836 27.344532111404249 85.921988948434546 0.54463902268945019 0 -0.83867057594974714 I I #
edge $-1 $590 17.042762040492818 $349 27.344532111404249 $492 $597 forward 7 unknown #
point $-1 48.608661152989285 27.344532111404249 8.9813625644254369 #
point $-1 45.626139135284213 27.344532111404249 8.9813625644254387 #
edge $-1 $598 1 $598 0 $352 $-1 forward 7 unknown #
vertex $-1 $353 $599 #
ellipse-curve $-1 45.147303657671586 19.986124917896085 5.4056263346284448 0.83867057594974714 0 0.54463902268945019 0.54463902268945019 0 -0.83867057594974714 1 I I #
point $-1 47.662039166826197 19.986124917896085 5.8463513351566272 #
edge $-1 $600 1 $600 0 $356 $-1 forward 7 unknown #
vertex $-1 $357 $601 #
ellipse-curve $-1 45.147303657671586 24.401169234000982 5.4056263346284448 0.83867057594974714 0 0.54463902268945019 0.54463902268945019 0 -0.83867057594974714 1 I I #
point $-1 47.662039166826197 24.401169234000982 5.8463513351566272 #
plane-surface $-1 48.608661152989285 0 0 -1 0 0 0 0 1 forward_v I I I I #
coedge $-1 $365 $363 $367 $513 reversed $241 $-1 #
edge $-1 $378 -8.9813625644254369 $515 8.9813625644254369 $377 $602 forward 7 unknown #
vertex $-1 $513 $603 #
straight-curve $-1 -48.608661152989285 -33.842261631615486 0 0 0 -1 I I #
edge $-1 $511 -33.842261631615486 $515 33.842261631615486 $509 $604 forward 7 unknown #
straight-curve $-1 0 -33.842261631615486 -8.9813625644254369 -1 0 0 I I #
vertex $-1 $370 $605 #
straight-curve $-1 0 33.842261631615486 -8.9813625644254369 1 0 0 I I #
point $-1 48.608661152989285 33.842261631615486 -8.9813625644254369 #
point $-1 48.608661152989285 -33.842261631615486 -8.9813625644254369 #
straight-curve $-1 -48.608661152989285 0 8.9813625644254369 0 -1 0 I I #
point $-1 -48.608661152989285 33.842261631615486 8.9813625644254369 #
point $-1 -48.608661152989285 -33.842261631615486 8.9813625644254369 #
straight-curve $-1 48.608661152989285 -33.842261631615486 0 0 0 -1 I I #
straight-curve $-1 48.608661152989285 33.842261631615486 0 0 0 -1 I I #
plane-surface $-1 -48.608661152989285 0 0 1 0 0 0 0 -1 forward_v I I I I #
coedge $-1 $527 $536 $531 $606 forward $388 $-1 #
coedge $-1 $391 $390 $607 $608 forward $159 $-1 #
coedge $-1 $607 $525 $392 $528 reversed $388 $-1 #
edge $-1 $529 -48.608661152989285 $532 48.608661152989285 $527 $609 forward 7 unknown #
vertex $-1 $608 $610 #
straight-curve $-1 48.608661152989285 0 -8.9813625644254369 0 -1 0 I I #
coedge $-1 $400 $394 $525 $606 reversed $401 $-1 #
vertex $-1 $395 $611 #
straight-curve $-1 -48.608661152989285 0 -8.9813625644254369 0 1 0 I I #
point $-1 -48.608661152989285 -33.842261631615486 -8.9813625644254369 #
point $-1 48.608661152989285 -33.842261631615486 -8.9813625644254369 #
coedge $-1 $525 $607 $403 $537 reversed $388 $-1 #
edge $-1 $538 -48.608661152989285 $540 48.608661152989285 $536 $612 forward 7 unknown #
vertex $-1 $404 $613 #
straight-curve $-1 -48.608661152989285 -39.743548860269946 -4.4338059890177881 0 -1 0 I I #
vertex $-1 $405 $614 #
straight-curve $-1 48.608661152989285 -39.743548860269946 -4.4338059890177881 0 1 0 I I #
loop $-1 $-1 $421 $408 #
plane-surface $-1 -48.608661152989285 0 0 1 0 0 0 0 -1 forward_v I I I I #
coedge $-1 $412 $411 $552 $615 reversed $167 $-1 #
coedge $-1 $424 $423 $411 $546 forward $409 $-1 #
edge $-1 $616 -2.3580907705315894 $549 2.3580907705315894 $411 $617 forward 7 unknown #
edge $-1 $548 -2.3580907705315894 $553 2.3580907705315894 $412 $618 forward 7 unknown #
vertex $-1 $416 $619 #
vertex $-1 $427 $620 #
straight-curve $-1 -43.892479611926106 40.339991151826723 0 0 0 -1 I I #
straight-curve $-1 -43.892479611926106 37.091126391721104 8.9813625644254369 0 1 0 I I #
coedge $-1 $556 $417 $544 $615 forward $542 $-1 #
vertex $-1 $547 $621 #
straight-curve $-1 -48.608661152989285 0 8.9813625644254369 0 -1 0 I I #
point $-1 -48.608661152989285 33.842261631615486 8.9813625644254369 #
coedge $-1 $421 $552 $423 $558 reversed $542 $-1 #
straight-curve $-1 -48.608661152989285 33.842261631615486 0 0 0 1 I I #
edge $-1 $425 -3.2488647601056186 $616 3.2488647601056186 $556 $622 forward 7 unknown #
point $-1 -48.608661152989285 33.842261631615486 -8.9813625644254369 #
straight-curve $-1 -43.892479611926106 37.091126391721104 -8.9813625644254369 0 -1 0 I I #
coedge $-1 $441 $440 $433 $562 forward $430 $-1 #
edge $-1 $563 23.072166594484948 $566 26.453314854457489 $561 $623 forward 7 unknown #
vertex $-1 $445 $624 #
straight-curve $-1 -63.124933868882941 -14.65531875902396 8.9813625644254387 -1 0 0 I I #
edge $-1 $566 5.4815672756913276 $442 12.865935690973936 $441 $625 forward 7 unknown #
vertex $-1 $565 $626 #
straight-curve $-1 -48.608661152989285 -14.65531875902396 5.6002143044528978 0.60181501223851219 0 0.79863551827123203 I I #
point $-1 -46.060783260129867 -14.65531875902396 8.9813625644254369 #
point $-1 -48.608661152989285 -22.039687174306568 5.6002143044528978 #
straight-curve $-1 -48.608661152989285 0 8.9813625644254369 0 -1 0 I I #
vertex $-1 $448 $627 #
point $-1 -45.866559425147265 -19.929867627082967 6.8105162783822237 #
vertex $-1 $452 $628 #
point $-1 -45.866559425147265 -16.765138306247565 6.8105162783822237 #
coedge $-1 $467 $466 $459 $576 forward $456 $-1 #
edge $-1 $577 23.072166594484948 $580 26.453314854457489 $575 $629 forward 7 unknown #
vertex $-1 $471 $630 #
straight-curve $-1 -63.124933868882941 27.344532111404249 8.9813625644254387 -1 0 0 I I #
edge $-1 $580 -15.518358159522776 $468 -8.1339897442401679 $467 $631 forward 7 unknown #
vertex $-1 $579 $632 #
straight-curve $-1 -48.608661152989285 27.344532111404249 5.6002143044528978 0.60181501223851219 0 0.79863551827123203 I I #
point $-1 -46.060783260129867 27.344532111404249 8.9813625644254369 #
point $-1 -48.608661152989285 19.96016369612164 5.6002143044528978 #
straight-curve $-1 -48.608661152989285 0 8.9813625644254369 0 -1 0 I I #
vertex $-1 $474 $633 #
point $-1 -45.866559425147265 22.069983243345234 6.8105162783822237 #
vertex $-1 $478 $634 #
point $-1 -45.866559425147265 25.23471256418064 6.8105162783822237 #
edge $-1 $590 60.453805614398561 $593 65.046486921036731 $483 $635 forward 7 unknown #
vertex $-1 $497 $636 #
straight-curve $-1 38.596810717211532 17.042762040492818 8.9813625644254387 1 0 0 I I #
edge $-1 $593 5.9459385025185512 $494 16.247708573429982 $493 $637 forward 7 unknown #
vertex $-1 $592 $638 #
straight-curve $-1 -4.3396862562241836 17.042762040492818 85.921988948434546 -0.54463902268945019 0 0.83867057594974714 I I #
point $-1 45.626139135284213 17.042762040492818 8.9813625644254387 #
point $-1 48.608661152989285 27.344532111404249 4.3886812577872689 #
straight-curve $-1 48.608661152989285 0 8.9813625644254369 0 1 0 I I #
vertex $-1 $500 $639 #
point $-1 45.691942680361038 19.986124917896085 4.5669557586786977 #
vertex $-1 $504 $640 #
point $-1 45.691942680361038 24.401169234000982 4.5669557586786977 #
straight-curve $-1 -48.608661152989285 33.842261631615486 0 0 0 -1 I I #
point $-1 -48.608661152989285 -33.842261631615486 -8.9813625644254369 #
straight-curve $-1 -48.608661152989285 0 -8.9813625644254369 0 1 0 I I #
point $-1 -48.608661152989285 33.842261631615486 -8.9813625644254369 #
edge $-1 $538 -2.2737782877038244 $532 2.2737782877038244 $531 $641 forward 7 unknown #
coedge $-1 $536 $527 $526 $608 reversed $388 $-1 #
edge $-1 $540 -2.2737782877038244 $529 2.2737782877038244 $526 $642 forward 7 unknown #
straight-curve $-1 0 -45.644836088924407 -8.9813625644254369 -1 0 0 I I #
point $-1 48.608661152989285 -45.644836088924407 -8.9813625644254369 #
point $-1 -48.608661152989285 -45.644836088924407 -8.9813625644254369 #
straight-curve $-1 0 -45.644836088924407 -4.4338059890177881 1 0 0 I I #
point $-1 -48.608661152989285 -45.644836088924407 -4.4338059890177881 #
point $-1 48.608661152989285 -45.644836088924407 -4.4338059890177881 #
edge $-1 $553 -8.9813625644254369 $616 8.9813625644254369 $544 $643 forward 7 unknown #
vertex $-1 $546 $644 #
straight-curve $-1 -46.250570382457695 40.339991151826723 -8.9813625644254369 1 0 0 I I #
straight-curve $-1 -46.250570382457695 40.339991151826723 8.9813625644254369 -1 0 0 I I #
point $-1 -43.892479611926106 40.339991151826723 8.9813625644254369 #
point $-1 -43.892479611926106 40.339991151826723 -8.9813625644254369 #
point $-1 -48.608661152989285 40.339991151826723 8.9813625644254369 #
straight-curve $-1 -48.608661152989285 37.091126391721104 -8.9813625644254369 0 1 0 I I #
straight-curve $-1 -48.608661152989285 -14.65531875902396 32.053529158910386 0 0 -1 I I #
point $-1 -48.608661152989285 -14.65531875902396 8.9813625644254369 #
straight-curve $-1 -48.608661152989285 -9.1737514833326319 5.6002143044529014 0 -1 0 I I #
point $-1 -48.608661152989285 -14.65531875902396 5.6002143044528978 #
point $-1 -45.768149172130904 -19.929867627082967 6.1102910131273518 #
point $-1 -45.768149172130904 -16.765138306247565 6.1102910131273518 #
straight-curve $-1 -48.608661152989285 27.344532111404249 32.053529158910386 0 0 -1 I I #
point $-1 -48.608661152989285 27.344532111404249 8.9813625644254369 #
straight-curve $-1 -48.608661152989285 11.826173951881472 5.6002143044529014 0 -1 0 I I #
point $-1 -48.608661152989285 27.344532111404249 5.6002143044528978 #
point $-1 -45.768149172130904 22.069983243345234 6.1102910131273518 #
point $-1 -45.768149172130904 25.23471256418064 6.1102910131273518 #
straight-curve $-1 48.608661152989285 17.042762040492818 69.435168178824 0 0 -1 I I #
point $-1 48.608661152989285 17.042762040492818 8.9813625644254369 #
straight-curve $-1 48.608661152989285 11.096823537974267 4.3886812577872689 0 1 0 I I #
point $-1 48.608661152989285 17.042762040492818 4.3886812577872689 #
point $-1 44.308633081721837 19.986124917896085 4.8609873119389944 #
point $-1 44.308633081721837 24.401169234000982 4.8609873119389944 #
straight-curve $-1 -48.608661152989285 -45.644836088924407 -6.7075842767216125 0 0 -1 I I #
straight-curve $-1 48.608661152989285 -45.644836088924407 -6.7075842767216125 0 0 -1 I I #
straight-curve $-1 -48.608661152989285 40.339991151826723 0 0 0 -1 I I #
point $-1 -48.608661152989285 40.339991151826723 -8.9813625644254369 #
End-of-ACIS-data 