500 0 11 0           
7 Unknown 11 ACIS 5.0 NT 24 Thu Mar 25 17:53:23 1999 
-1 9.9999999999999995e-007 1e-010 
body $-1 $11 $-1 $12 #
body $-1 $13 $-1 $14 #
body $-1 $15 $-1 $16 #
body $-1 $17 $-1 $18 #
body $-1 $19 $-1 $20 #
body $-1 $21 $-1 $22 #
body $-1 $23 $-1 $24 #
body $-1 $25 $-1 $26 #
body $-1 $27 $-1 $28 #
body $-1 $29 $-1 $30 #
body $-1 $31 $-1 $32 #
lump $-1 $-1 $33 $0 #
transform $-1 1 0 0 0 1 0 0 0 1 62.848597674489575 39.578293967521894 17.009836872390732 1 rotate no_reflect no_shear #
lump $-1 $-1 $34 $1 #
transform $-1 1 0 0 0 1 0 0 0 1 62.848597674489575 39.578293967521894 17.009836872390732 1 rotate no_reflect no_shear #
lump $-1 $-1 $35 $2 #
transform $-1 1 0 0 0 1 0 0 0 1 62.848597674489575 39.578293967521894 17.009836872390732 1 rotate no_reflect no_shear #
lump $-1 $-1 $36 $3 #
transform $-1 1 0 0 0 1 0 0 0 1 62.848597674489575 39.578293967521894 17.009836872390732 1 rotate no_reflect no_shear #
lump $-1 $-1 $37 $4 #
transform $-1 1 0 0 0 1 0 0 0 1 62.848597674489575 39.578293967521894 17.009836872390732 1 rotate no_reflect no_shear #
lump $-1 $-1 $38 $5 #
transform $-1 1 0 0 0 1 0 0 0 1 62.848597674489575 39.578293967521894 17.009836872390732 1 rotate no_reflect no_shear #
lump $-1 $-1 $39 $6 #
transform $-1 1 0 0 0 1 0 0 0 1 62.848597674489575 39.578293967521894 17.009836872390732 1 rotate no_reflect no_shear #
lump $-1 $-1 $40 $7 #
transform $-1 1 0 0 0 1 0 0 0 1 62.848597674489575 39.578293967521894 17.009836872390732 1 rotate no_reflect no_shear #
lump $-1 $-1 $41 $8 #
transform $-1 1 0 0 0 1 0 0 0 1 62.848597674489575 39.578293967521894 17.009836872390732 1 rotate no_reflect no_shear #
lump $-1 $-1 $42 $9 #
transform $-1 1 0 0 0 1 0 0 0 1 62.848597674489575 39.578293967521894 17.009836872390732 1 rotate no_reflect no_shear #
lump $-1 $-1 $43 $10 #
transform $-1 1 0 0 0 1 0 0 0 1 62.848597674489575 39.578293967521894 17.009836872390732 1 rotate no_reflect no_shear #
shell $-1 $-1 $-1 $44 $-1 $11 #
shell $-1 $-1 $-1 $45 $-1 $13 #
shell $-1 $-1 $-1 $46 $-1 $15 #
shell $-1 $-1 $-1 $47 $-1 $17 #
shell $-1 $-1 $-1 $48 $-1 $19 #
shell $-1 $-1 $-1 $49 $-1 $21 #
shell $-1 $-1 $-1 $50 $-1 $23 #
shell $-1 $-1 $-1 $51 $-1 $25 #
shell $-1 $-1 $-1 $52 $-1 $27 #
shell $-1 $-1 $-1 $53 $-1 $29 #
shell $-1 $-1 $-1 $54 $-1 $31 #
face $-1 $55 $56 $33 $-1 $57 forward single #
face $-1 $58 $59 $34 $-1 $60 forward single #
face $-1 $61 $62 $35 $-1 $63 forward single #
face $-1 $64 $65 $36 $-1 $66 reversed single #
face $-1 $67 $68 $37 $-1 $69 forward single #
face $-1 $70 $71 $38 $-1 $72 forward single #
face $-1 $73 $74 $39 $-1 $75 forward single #
face $-1 $76 $77 $40 $-1 $78 reversed single #
face $-1 $79 $80 $41 $-1 $81 forward single #
face $-1 $82 $83 $42 $-1 $84 forward single #
face $-1 $85 $86 $43 $-1 $87 forward single #
face $-1 $88 $89 $33 $-1 $90 reversed single #
loop $-1 $-1 $91 $44 #
plane-surface $-1 0 0 17.009836872390732 0 0 1 1 0 0 forward_v I I I I #
face $-1 $92 $93 $34 $-1 $94 reversed single #
loop $-1 $-1 $95 $45 #
plane-surface $-1 -62.848597674489575 0 0 1 0 0 0 0 -1 forward_v I I I I #
face $-1 $96 $97 $35 $-1 $98 reversed single #
loop $-1 $-1 $99 $46 #
plane-surface $-1 62.848597674489575 0 0 -1 0 0 0 0 1 forward_v I I I I #
face $-1 $100 $101 $36 $-1 $102 reversed single #
loop $-1 $-1 $103 $47 #
plane-surface $-1 -23.231124759475069 62.302840194494188 155.55738993821245 1 0 0 0 -0.6560590369687036 -0.75470957328743171 forward_v I I I I #
face $-1 $104 $105 $37 $-1 $106 forward single #
loop $-1 $107 $108 $48 #
cone-surface $-1 -19.253864429907267 33.575967981896255 11.438551733414611 0 -0.6560590369687036 -0.75470957328743171 1.5 0 0 1 I I 0 1 1.5 forward I I I I #
face $-1 $109 $110 $38 $-1 $111 forward single #
loop $-1 $112 $113 $49 #
cone-surface $-1 -13.287973935555563 33.575967981896255 11.438551733414611 0 -0.6560590369687036 -0.75470957328743171 1.5 0 0 1 I I 0 1 1.5 forward I I I I #
face $-1 $114 $115 $39 $-1 $116 forward single #
loop $-1 $117 $118 $50 #
cone-surface $-1 -7.3220834412038585 33.575967981896255 11.438551733414611 0 -0.6560590369687036 -0.75470957328743171 1.5 0 0 1 I I 0 1 1.5 forward I I I I #
face $-1 $119 $120 $40 $-1 $121 reversed single #
loop $-1 $-1 $122 $51 #
plane-surface $-1 -28.486005106091771 -128.45963420616553 100.23047327977589 -1 0 0 0 -0.70710678939079041 0.70710677298230451 forward_v I I I I #
face $-1 $123 $124 $41 $-1 $125 forward single #
loop $-1 $126 $127 $52 #
cone-surface $-1 -40.53835882442236 -35.140525215493767 12.572068091984322 0 0.70710678939079041 -0.70710677298230451 1.5 0 0 1 I I 0 1 1.5 forward I I I I #
face $-1 $128 $129 $42 $-1 $130 forward single #
loop $-1 $131 $132 $53 #
cone-surface $-1 -36.01872618004839 -35.140525215493767 12.572068091984322 0 0.70710678939079041 -0.70710677298230451 1.5 0 0 1 I I 0 1 1.5 forward I I I I #
face $-1 $133 $134 $43 $-1 $135 forward single #
loop $-1 $136 $137 $54 #
cone-surface $-1 -31.499093535674422 -35.140525215493767 12.572068091984322 0 0.70710678939079041 -0.70710677298230451 1.5 0 0 1 I I 0 1 1.5 forward I I I I #
face $-1 $138 $139 $33 $-1 $140 reversed single #
loop $-1 $-1 $141 $55 #
plane-surface $-1 0 0 -17.009836872390732 0 0 1 1 0 0 forward_v I I I I #
coedge $-1 $142 $143 $144 $145 forward $56 $-1 #
face $-1 $146 $147 $34 $-1 $148 reversed single #
loop $-1 $-1 $149 $58 #
plane-surface $-1 0 0 -17.009836872390732 0 0 1 1 0 0 forward_v I I I I #
coedge $-1 $150 $151 $152 $153 forward $59 $-1 #
face $-1 $154 $155 $35 $-1 $156 reversed single #
loop $-1 $-1 $157 $61 #
plane-surface $-1 0 39.578293967521894 0 0 -1 0 0 0 -1 forward_v I I I I #
coedge $-1 $158 $159 $160 $161 forward $62 $-1 #
face $-1 $162 $163 $36 $-1 $164 reversed single #
loop $-1 $-1 $165 $64 #
plane-surface $-1 -13.287973935555563 -20.161940735824082 60.692513272957456 0 0.6560590369687036 0.75470957328743171 1 0 0 forward_v I I I I #
coedge $-1 $166 $167 $168 $169 reversed $65 $-1 #
face $-1 $-1 $170 $37 $-1 $171 forward single #
loop $-1 $172 $173 $67 #
cone-surface $-1 -19.253864429907267 31.826130169618146 9.4255936393862179 0 -0.6560590369687036 -0.75470957328743171 0.75 0 0 1 I I -0.70710678118654757 0.70710678118654757 0.75 forward I I I I #
loop $-1 $-1 $174 $48 #
coedge $-1 $108 $108 $175 $176 reversed $68 $-1 #
face $-1 $-1 $177 $38 $-1 $178 forward single #
loop $-1 $179 $180 $70 #
cone-surface $-1 -13.287973935555563 31.826130169618146 9.4255936393862179 0 -0.6560590369687036 -0.75470957328743171 0.75 0 0 1 I I -0.70710678118654757 0.70710678118654757 0.75 forward I I I I #
loop $-1 $-1 $181 $49 #
coedge $-1 $113 $113 $182 $183 reversed $71 $-1 #
face $-1 $-1 $184 $39 $-1 $185 forward single #
loop $-1 $186 $187 $73 #
cone-surface $-1 -7.3220834412038585 31.826130169618146 9.4255936393862179 0 -0.6560590369687036 -0.75470957328743171 0.75 0 0 1 I I -0.70710678118654757 0.70710678118654757 0.75 forward I I I I #
loop $-1 $-1 $188 $50 #
coedge $-1 $118 $118 $189 $190 reversed $74 $-1 #
face $-1 $191 $192 $40 $-1 $193 reversed single #
loop $-1 $-1 $194 $76 #
plane-surface $-1 -36.01872618004839 -39.578293967521887 11.349135103632918 0 -0.70710678939079041 0.70710677298230451 1 0 0 forward_v I I I I #
coedge $-1 $195 $196 $197 $198 reversed $77 $-1 #
face $-1 $-1 $199 $41 $-1 $200 forward single #
loop $-1 $201 $202 $79 #
cone-surface $-1 -40.53835882442236 -33.002777190122885 10.4343201162201 0 0.70710678939079041 -0.70710677298230451 0.75 0 0 1 I I -0.70710678118654757 0.70710678118654757 0.75 forward I I I I #
loop $-1 $-1 $203 $52 #
coedge $-1 $127 $127 $204 $205 reversed $80 $-1 #
face $-1 $-1 $206 $42 $-1 $207 forward single #
loop $-1 $208 $209 $82 #
cone-surface $-1 -36.01872618004839 -33.002777190122885 10.4343201162201 0 0.70710678939079041 -0.70710677298230451 0.75 0 0 1 I I -0.70710678118654757 0.70710678118654757 0.75 forward I I I I #
loop $-1 $-1 $210 $53 #
coedge $-1 $132 $132 $211 $212 reversed $83 $-1 #
face $-1 $-1 $213 $43 $-1 $214 forward single #
loop $-1 $215 $216 $85 #
cone-surface $-1 -31.499093535674422 -33.002777190122885 10.4343201162201 0 0.70710678939079041 -0.70710677298230451 0.75 0 0 1 I I -0.70710678118654757 0.70710678118654757 0.75 forward I I I I #
loop $-1 $-1 $217 $54 #
coedge $-1 $137 $137 $218 $219 reversed $86 $-1 #
face $-1 $220 $221 $33 $-1 $222 reversed single #
loop $-1 $-1 $223 $88 #
plane-surface $-1 0 -39.578293967521894 0 0 1 0 0 0 1 forward_v I I I I #
coedge $-1 $224 $225 $226 $227 forward $89 $-1 #
coedge $-1 $228 $91 $229 $230 forward $56 $-1 #
coedge $-1 $91 $228 $231 $232 forward $56 $-1 #
coedge $-1 $233 $234 $91 $145 reversed $235 $-1 #
edge $-1 $236 -39.578293967521894 $237 39.578293967521894 $144 $238 forward 7 unknown #
face $-1 $239 $240 $34 $-1 $241 reversed single #
loop $-1 $-1 $242 $92 #
plane-surface $-1 -72.497172884731853 -13.576687560441442 0 0 1 0 0 0 1 forward_v I I I I #
coedge $-1 $243 $244 $151 $245 forward $93 $-1 #
coedge $-1 $246 $95 $247 $248 reversed $59 $-1 #
coedge $-1 $95 $246 $149 $245 reversed $59 $-1 #
coedge $-1 $249 $250 $95 $153 reversed $251 $-1 #
edge $-1 $252 -17.009836872390732 $253 17.009836872390732 $152 $254 forward 7 unknown #
face $-1 $255 $256 $35 $-1 $257 reversed single #
loop $-1 $-1 $258 $96 #
plane-surface $-1 74.072349083765602 0 7.8463174034489391 0 0 1 1 0 0 forward_v I I I I #
coedge $-1 $259 $260 $159 $261 forward $97 $-1 #
coedge $-1 $262 $99 $263 $264 reversed $62 $-1 #
coedge $-1 $99 $262 $157 $261 reversed $62 $-1 #
coedge $-1 $265 $266 $99 $161 reversed $155 $-1 #
edge $-1 $267 -39.578293967521894 $268 39.578293967521894 $160 $269 forward 7 unknown #
face $-1 $270 $271 $36 $-1 $272 forward single #
loop $-1 $-1 $273 $100 #
plane-surface $-1 -3.3448231116360567 62.302840194494188 155.55738993821245 -1 0 0 0 0.6560590369687036 0.75470957328743171 forward_v I I I I #
coedge $-1 $274 $275 $276 $277 reversed $101 $-1 #
coedge $-1 $167 $103 $278 $279 reversed $65 $-1 #
coedge $-1 $103 $166 $274 $280 reversed $65 $-1 #
coedge $-1 $276 $281 $103 $169 forward $271 $-1 #
edge $-1 $282 -8.4268738702748003 $283 1.0621910318733079 $168 $284 forward 7 unknown #
loop $-1 $-1 $175 $104 #
plane-surface $-1 -13.287973935555563 -20.161940735824082 60.692513272957456 0 0.6560590369687036 0.75470957328743171 1 0 0 forward_v I I I I #
loop $-1 $-1 $285 $67 #
coedge $-1 $173 $173 $174 $286 reversed $105 $-1 #
coedge $-1 $174 $174 $173 $286 forward $107 $-1 #
coedge $-1 $175 $175 $108 $176 forward $170 $-1 #
edge $-1 $287 -1.5538599431595979e-015 $287 6.2831853071795987 $175 $288 forward 7 unknown #
loop $-1 $-1 $182 $109 #
plane-surface $-1 -13.287973935555563 -20.161940735824082 60.692513272957456 0 0.6560590369687036 0.75470957328743171 1 0 0 forward_v I I I I #
loop $-1 $-1 $289 $70 #
coedge $-1 $180 $180 $181 $290 reversed $110 $-1 #
coedge $-1 $181 $181 $180 $290 forward $112 $-1 #
coedge $-1 $182 $182 $113 $183 forward $177 $-1 #
edge $-1 $291 -1.5538599431595979e-015 $291 6.2831853071795987 $182 $292 forward 7 unknown #
loop $-1 $-1 $189 $114 #
plane-surface $-1 -13.287973935555563 -20.161940735824082 60.692513272957456 0 0.6560590369687036 0.75470957328743171 1 0 0 forward_v I I I I #
loop $-1 $-1 $293 $73 #
coedge $-1 $187 $187 $188 $294 reversed $115 $-1 #
coedge $-1 $188 $188 $187 $294 forward $117 $-1 #
coedge $-1 $189 $189 $118 $190 forward $184 $-1 #
edge $-1 $295 -1.5538599431595979e-015 $295 6.2831853071795987 $189 $296 forward 7 unknown #
face $-1 $297 $298 $40 $-1 $299 reversed single #
loop $-1 $-1 $300 $119 #
plane-surface $-1 -43.551447254005012 -128.45963420616553 100.23047327977589 1 0 0 0 0.70710678939079041 -0.70710677298230451 forward_v I I I I #
coedge $-1 $301 $302 $303 $304 reversed $120 $-1 #
coedge $-1 $196 $122 $305 $306 reversed $77 $-1 #
coedge $-1 $122 $195 $301 $307 reversed $77 $-1 #
coedge $-1 $303 $308 $122 $198 forward $309 $-1 #
edge $-1 $310 24.651523135560872 $311 30.312224772961528 $197 $312 forward 7 unknown #
loop $-1 $-1 $204 $123 #
plane-surface $-1 -36.01872618004839 -39.578293967521887 11.349135103632918 0 -0.70710678939079041 0.70710677298230451 1 0 0 forward_v I I I I #
loop $-1 $-1 $313 $79 #
coedge $-1 $202 $202 $203 $314 reversed $124 $-1 #
coedge $-1 $203 $203 $202 $314 forward $126 $-1 #
coedge $-1 $204 $204 $127 $205 forward $199 $-1 #
edge $-1 $315 -2.5121479630413656e-015 $315 6.2831853071795978 $204 $316 forward 7 unknown #
loop $-1 $-1 $211 $128 #
plane-surface $-1 -36.01872618004839 -39.578293967521887 11.349135103632918 0 -0.70710678939079041 0.70710677298230451 1 0 0 forward_v I I I I #
loop $-1 $-1 $317 $82 #
coedge $-1 $209 $209 $210 $318 reversed $129 $-1 #
coedge $-1 $210 $210 $209 $318 forward $131 $-1 #
coedge $-1 $211 $211 $132 $212 forward $206 $-1 #
edge $-1 $319 -2.5121479630413656e-015 $319 6.2831853071795978 $211 $320 forward 7 unknown #
loop $-1 $-1 $218 $133 #
plane-surface $-1 -36.01872618004839 -39.578293967521887 11.349135103632918 0 -0.70710678939079041 0.70710677298230451 1 0 0 forward_v I I I I #
loop $-1 $-1 $321 $85 #
coedge $-1 $216 $216 $217 $322 reversed $134 $-1 #
coedge $-1 $217 $217 $216 $322 forward $136 $-1 #
coedge $-1 $218 $218 $137 $219 forward $213 $-1 #
edge $-1 $323 -2.5121479630413656e-015 $323 6.2831853071795978 $218 $324 forward 7 unknown #
face $-1 $325 $326 $33 $-1 $327 reversed single #
loop $-1 $-1 $328 $138 #
plane-surface $-1 -62.848597674489575 0 0 1 0 0 0 0 -1 forward_v I I I I #
coedge $-1 $329 $231 $330 $331 forward $139 $-1 #
coedge $-1 $332 $141 $329 $333 forward $89 $-1 #
coedge $-1 $141 $332 $334 $335 forward $89 $-1 #
coedge $-1 $234 $233 $141 $227 reversed $235 $-1 #
edge $-1 $336 -39.578293967521894 $337 39.578293967521894 $226 $338 forward 7 unknown #
coedge $-1 $143 $142 $339 $340 forward $56 $-1 #
coedge $-1 $341 $342 $142 $230 reversed $326 $-1 #
edge $-1 $237 -62.848597674489575 $343 62.848597674489575 $229 $344 forward 7 unknown #
coedge $-1 $223 $345 $143 $232 reversed $139 $-1 #
edge $-1 $346 -62.848597674489575 $236 62.848597674489575 $231 $347 forward 7 unknown #
coedge $-1 $226 $144 $345 $348 forward $235 $-1 #
coedge $-1 $144 $226 $341 $349 reversed $235 $-1 #
loop $-1 $-1 $233 $325 #
vertex $-1 $145 $350 #
vertex $-1 $145 $351 #
straight-curve $-1 62.848597674489575 0 17.009836872390732 0 1 0 I I #
face $-1 $352 $251 $34 $-1 $353 reversed single #
loop $-1 $-1 $354 $146 #
plane-surface $-1 -82.145748094974138 -10.639172258161789 0 1 0 0 0 0 -1 forward_v I I I I #
coedge $-1 $355 $356 $357 $358 forward $147 $-1 #
coedge $-1 $359 $149 $355 $360 forward $93 $-1 #
coedge $-1 $149 $359 $249 $361 forward $93 $-1 #
edge $-1 $252 7.7016569558821359 $362 13.576687560441442 $149 $363 forward 7 unknown #
coedge $-1 $151 $150 $364 $365 forward $59 $-1 #
coedge $-1 $366 $367 $150 $248 forward $368 $-1 #
edge $-1 $369 -13.576687560441442 $253 -7.7016569558821359 $247 $370 forward 7 unknown #
coedge $-1 $371 $152 $244 $361 reversed $251 $-1 #
coedge $-1 $152 $371 $366 $372 reversed $251 $-1 #
loop $-1 $-1 $152 $239 #
vertex $-1 $245 $373 #
vertex $-1 $372 $374 #
straight-curve $-1 -62.848597674489575 -7.7016569558821359 0 0 0 1 I I #
face $-1 $375 $376 $35 $-1 $377 forward single #
loop $-1 $-1 $378 $154 #
plane-surface $-1 85.296100493041621 0 12.428077137919836 -1 0 0 0 0 1 forward_v I I I I #
coedge $-1 $266 $265 $379 $380 forward $155 $-1 #
coedge $-1 $381 $157 $382 $383 reversed $97 $-1 #
coedge $-1 $157 $381 $265 $384 reversed $97 $-1 #
edge $-1 $267 7.8463174034489391 $385 17.009836872390732 $157 $386 forward 7 unknown #
coedge $-1 $159 $158 $387 $388 reversed $62 $-1 #
coedge $-1 $389 $390 $158 $264 forward $391 $-1 #
edge $-1 $392 -17.009836872390732 $268 -7.8463174034489391 $263 $393 forward 7 unknown #
coedge $-1 $258 $160 $260 $384 forward $155 $-1 #
coedge $-1 $160 $258 $389 $394 forward $155 $-1 #
vertex $-1 $261 $395 #
vertex $-1 $264 $396 #
straight-curve $-1 62.848597674489575 0 7.8463174034489391 0 -1 0 I I #
face $-1 $-1 $397 $36 $-1 $398 reversed single #
loop $-1 $-1 $168 $162 #
plane-surface $-1 0 0 17.009836872390732 0 0 1 1 0 0 forward_v I I I I #
coedge $-1 $399 $400 $401 $402 reversed $163 $-1 #
coedge $-1 $403 $165 $167 $280 forward $101 $-1 #
coedge $-1 $165 $403 $399 $404 forward $101 $-1 #
coedge $-1 $401 $168 $165 $277 forward $271 $-1 #
edge $-1 $283 -16.587137791697288 $405 3.2991638561417247 $276 $406 forward 7 unknown #
coedge $-1 $407 $408 $166 $279 forward $397 $-1 #
edge $-1 $409 -69.017576546542102 $282 -60.768858096715491 $278 $410 forward 7 unknown #
edge $-1 $283 66.583453529427629 $409 79.156587935043802 $167 $411 forward 7 unknown #
coedge $-1 $168 $401 $407 $412 forward $271 $-1 #
vertex $-1 $169 $413 #
vertex $-1 $169 $414 #
straight-curve $-1 -23.231124759475069 31.151420097247094 17.009836872390736 0 -1 0 I I #
coedge $-1 $285 $285 $-1 $415 reversed $172 $-1 #
edge $-1 $416 0 $416 6.2831853071796004 $173 $417 forward 7 unknown #
vertex $-1 $176 $418 #
ellipse-curve $-1 -19.253864429907267 34.833761516447836 12.885477647477428 0 0.6560590369687036 0.75470957328743171 1.5 0 0 1 I I #
coedge $-1 $289 $289 $-1 $419 reversed $179 $-1 #
edge $-1 $420 0 $420 6.2831853071796004 $180 $421 forward 7 unknown #
vertex $-1 $183 $422 #
ellipse-curve $-1 -13.287973935555563 34.833761516447836 12.885477647477428 0 0.6560590369687036 0.75470957328743171 1.5 0 0 1 I I #
coedge $-1 $293 $293 $-1 $423 reversed $186 $-1 #
edge $-1 $424 0 $424 6.2831853071796004 $187 $425 forward 7 unknown #
vertex $-1 $190 $426 #
ellipse-curve $-1 -7.3220834412038585 34.833761516447836 12.885477647477428 0 0.6560590369687036 0.75470957328743171 1.5 0 0 1 I I #
face $-1 $-1 $309 $40 $-1 $427 forward single #
loop $-1 $-1 $428 $191 #
plane-surface $-1 0 -39.578293967521894 0 0 1 0 0 0 1 forward_v I I I I #
coedge $-1 $429 $430 $431 $432 reversed $192 $-1 #
coedge $-1 $433 $194 $196 $307 forward $120 $-1 #
coedge $-1 $194 $433 $429 $434 forward $120 $-1 #
coedge $-1 $431 $197 $194 $304 forward $309 $-1 #
edge $-1 $311 10.476642016067576 $435 25.542084163980817 $303 $436 forward 7 unknown #
coedge $-1 $437 $438 $195 $306 forward $298 $-1 #
edge $-1 $439 -38.766101536255036 $310 -33.105399767497218 $305 $440 forward 7 unknown #
edge $-1 $311 -8.0054411210431287 $439 1.0048591735576163e-014 $196 $441 forward 7 unknown #
coedge $-1 $197 $431 $437 $442 forward $309 $-1 #
loop $-1 $-1 $431 $297 #
vertex $-1 $306 $443 #
vertex $-1 $198 $444 #
straight-curve $-1 -28.486005106091771 -64.229817103082766 17.009836872390729 0 1 0 I I #
coedge $-1 $313 $313 $-1 $445 reversed $201 $-1 #
edge $-1 $446 0 $446 6.2831853071796004 $202 $447 forward 7 unknown #
vertex $-1 $205 $448 #
ellipse-curve $-1 -40.53835882442236 -36.747943148821562 14.179485988011823 0 -0.70710678939079041 0.70710677298230451 1.5 0 0 1 I I #
coedge $-1 $317 $317 $-1 $449 reversed $208 $-1 #
edge $-1 $450 0 $450 6.2831853071796004 $209 $451 forward 7 unknown #
vertex $-1 $212 $452 #
ellipse-curve $-1 -36.01872618004839 -36.747943148821562 14.179485988011823 0 -0.70710678939079041 0.70710677298230451 1.5 0 0 1 I I #
coedge $-1 $321 $321 $-1 $453 reversed $215 $-1 #
edge $-1 $454 0 $454 6.2831853071796004 $216 $455 forward 7 unknown #
vertex $-1 $219 $456 #
ellipse-curve $-1 -31.499093535674422 -36.747943148821562 14.179485988011823 0 -0.70710678939079041 0.70710677298230451 1.5 0 0 1 I I #
face $-1 $-1 $235 $33 $-1 $457 reversed single #
loop $-1 $-1 $341 $220 #
plane-surface $-1 0 39.578293967521894 0 0 -1 0 0 0 -1 forward_v I I I I #
coedge $-1 $458 $339 $342 $459 forward $221 $-1 #
coedge $-1 $345 $223 $224 $333 reversed $139 $-1 #
coedge $-1 $339 $458 $223 $331 reversed $221 $-1 #
edge $-1 $346 -17.009836872390732 $460 17.009836872390732 $330 $461 forward 7 unknown #
coedge $-1 $225 $224 $458 $462 forward $89 $-1 #
edge $-1 $337 -62.848597674489575 $460 62.848597674489575 $329 $463 forward 7 unknown #
coedge $-1 $342 $341 $225 $335 reversed $326 $-1 #
edge $-1 $464 -62.848597674489575 $336 62.848597674489575 $334 $465 forward 7 unknown #
vertex $-1 $227 $466 #
vertex $-1 $348 $467 #
straight-curve $-1 62.848597674489575 0 -17.009836872390732 0 -1 0 I I #
coedge $-1 $328 $330 $228 $340 reversed $221 $-1 #
edge $-1 $343 -39.578293967521894 $346 39.578293967521894 $339 $468 forward 7 unknown #
coedge $-1 $334 $229 $234 $349 forward $326 $-1 #
coedge $-1 $229 $334 $328 $459 reversed $326 $-1 #
vertex $-1 $230 $469 #
straight-curve $-1 0 39.578293967521894 17.009836872390732 -1 0 0 I I #
coedge $-1 $231 $329 $233 $348 reversed $139 $-1 #
vertex $-1 $340 $470 #
straight-curve $-1 0 -39.578293967521894 17.009836872390732 1 0 0 I I #
edge $-1 $236 -17.009836872390732 $337 17.009836872390732 $233 $471 forward 7 unknown #
edge $-1 $237 -17.009836872390732 $336 17.009836872390732 $234 $472 forward 7 unknown #
point $-1 62.848597674489575 -39.578293967521894 17.009836872390732 #
point $-1 62.848597674489575 39.578293967521894 17.009836872390732 #
face $-1 $-1 $368 $34 $-1 $473 forward single #
plane-surface $-1 -72.497172884731853 -7.7016569558821359 0 0 -1 0 0 0 -1 forward_v I I I I #
coedge $-1 $474 $475 $371 $476 forward $240 $-1 #
coedge $-1 $364 $242 $243 $360 reversed $147 $-1 #
coedge $-1 $242 $364 $367 $477 reversed $147 $-1 #
coedge $-1 $475 $474 $242 $358 reversed $240 $-1 #
edge $-1 $478 -17.009836872390732 $479 17.009836872390732 $357 $480 forward 7 unknown #
coedge $-1 $244 $243 $474 $481 forward $93 $-1 #
edge $-1 $362 -9.648575210242285 $479 9.648575210242285 $355 $482 forward 7 unknown #
edge $-1 $483 -9.648575210242285 $252 9.648575210242285 $249 $484 forward 7 unknown #
vertex $-1 $360 $485 #
straight-curve $-1 -62.848597674489575 0 -17.009836872390732 0 -1 0 I I #
coedge $-1 $356 $355 $246 $365 reversed $147 $-1 #
edge $-1 $369 -17.009836872390732 $362 17.009836872390732 $364 $486 forward 7 unknown #
coedge $-1 $487 $247 $250 $372 forward $368 $-1 #
coedge $-1 $247 $487 $356 $477 forward $368 $-1 #
loop $-1 $-1 $247 $352 #
vertex $-1 $248 $488 #
straight-curve $-1 -62.848597674489575 0 17.009836872390732 0 1 0 I I #
coedge $-1 $250 $249 $354 $476 reversed $251 $-1 #
edge $-1 $253 -9.648575210242285 $489 9.648575210242285 $250 $490 forward 7 unknown #
point $-1 -62.848597674489568 -7.7016569558821359 -17.009836872390732 #
point $-1 -62.848597674489568 -7.7016569558821359 17.009836872390732 #
face $-1 $-1 $391 $35 $-1 $491 reversed single #
loop $-1 $-1 $387 $255 #
plane-surface $-1 0 0 17.009836872390732 0 0 1 1 0 0 forward_v I I I I #
coedge $-1 $379 $492 $493 $494 forward $256 $-1 #
coedge $-1 $495 $378 $258 $380 reversed $256 $-1 #
edge $-1 $496 -39.578293967521894 $497 39.578293967521894 $379 $498 forward 7 unknown #
coedge $-1 $260 $259 $495 $499 forward $97 $-1 #
coedge $-1 $387 $500 $259 $383 forward $376 $-1 #
edge $-1 $501 -85.296100493041621 $385 -62.848597674489575 $259 $502 forward 7 unknown #
edge $-1 $267 -11.223751409276026 $496 11.223751409276019 $260 $503 forward 7 unknown #
vertex $-1 $261 $504 #
straight-curve $-1 62.848597674489575 39.578293967521894 0 0 0 1 I I #
coedge $-1 $505 $382 $262 $388 forward $376 $-1 #
edge $-1 $385 -39.578293967521894 $392 39.578293967521894 $387 $506 forward 7 unknown #
coedge $-1 $493 $263 $266 $394 reversed $391 $-1 #
coedge $-1 $263 $493 $505 $507 reversed $391 $-1 #
loop $-1 $-1 $263 $375 #
vertex $-1 $507 $508 #
straight-curve $-1 62.848597674489575 -39.578293967521894 0 0 0 -1 I I #
edge $-1 $497 -11.223751409276019 $268 11.223751409276026 $389 $509 forward 7 unknown #
point $-1 62.848597674489575 39.578293967521894 7.8463174034489391 #
point $-1 62.848597674489575 -39.578293967521894 7.8463174034489391 #
loop $-1 $-1 $278 $270 #
plane-surface $-1 0 39.578293967521894 0 0 -1 0 0 0 -1 forward_v I I I I #
coedge $-1 $400 $273 $275 $404 reversed $163 $-1 #
coedge $-1 $273 $399 $510 $511 reversed $163 $-1 #
coedge $-1 $281 $276 $273 $402 forward $271 $-1 #
edge $-1 $405 -1.0621910318733079 $512 8.4268738702748003 $401 $513 forward 7 unknown #
coedge $-1 $275 $274 $408 $514 reversed $101 $-1 #
edge $-1 $515 -79.156587935043802 $405 -66.583453529427629 $399 $516 forward 7 unknown #
vertex $-1 $277 $517 #
straight-curve $-1 -6.6439869677777814 30.089229065373782 17.009836872390739 1 0 0 I I #
coedge $-1 $510 $278 $281 $412 reversed $397 $-1 #
coedge $-1 $278 $510 $403 $514 forward $397 $-1 #
vertex $-1 $279 $518 #
straight-curve $-1 -23.231124759475069 39.578293967521894 77.778694969106226 0 0 1 I I #
straight-curve $-1 -23.231124759475069 -20.161940735824082 60.692513272957456 0 0.75470957328743171 -0.6560590369687036 I I #
edge $-1 $512 3.3448231116360567 $282 23.231124759475069 $407 $519 forward 7 unknown #
point $-1 -23.231124759475069 39.578293967521894 17.009836872390732 #
point $-1 -23.231124759475069 30.089229065373786 17.009836872390736 #
edge $-1 $520 1 $520 0 $285 $-1 forward 7 unknown #
vertex $-1 $286 $521 #
ellipse-curve $-1 -19.253864429907267 32.318174447344674 9.9916258193517908 0 0.6560590369687036 0.75470957328743171 1.5 0 0 1 I I #
point $-1 -17.753864429907267 34.833761516447836 12.885477647477432 #
edge $-1 $522 1 $522 0 $289 $-1 forward 7 unknown #
vertex $-1 $290 $523 #
ellipse-curve $-1 -13.287973935555563 32.318174447344674 9.9916258193517908 0 0.6560590369687036 0.75470957328743171 1.5 0 0 1 I I #
point $-1 -11.787973935555563 34.833761516447836 12.885477647477432 #
edge $-1 $524 1 $524 0 $293 $-1 forward 7 unknown #
vertex $-1 $294 $525 #
ellipse-curve $-1 -7.3220834412038585 32.318174447344674 9.9916258193517908 0 0.6560590369687036 0.75470957328743171 1.5 0 0 1 I I #
point $-1 -5.8220834412038585 34.833761516447836 12.885477647477432 #
plane-surface $-1 0 0 17.009836872390732 0 0 1 1 0 0 forward_v I I I I #
coedge $-1 $438 $437 $430 $526 forward $298 $-1 #
coedge $-1 $430 $300 $302 $434 reversed $192 $-1 #
coedge $-1 $300 $429 $428 $526 reversed $192 $-1 #
coedge $-1 $308 $303 $300 $432 forward $309 $-1 #
edge $-1 $435 -30.312224772961528 $527 -24.651523135560872 $431 $528 forward 7 unknown #
coedge $-1 $302 $301 $438 $529 reversed $120 $-1 #
edge $-1 $530 -1.0048591735576163e-014 $435 8.0054411210431287 $429 $531 forward 7 unknown #
vertex $-1 $304 $532 #
straight-curve $-1 -18.009363090024195 -33.917592330121238 17.009836872390732 -1 0 0 I I #
coedge $-1 $428 $305 $308 $442 reversed $298 $-1 #
coedge $-1 $305 $428 $433 $529 forward $298 $-1 #
vertex $-1 $306 $533 #
straight-curve $-1 -28.486005106091771 -39.578293967521894 50.115236639887947 0 0 1 I I #
straight-curve $-1 -28.486005106091771 -39.578293967521887 11.349135103632918 0 -0.70710677298230451 -0.70710678939079041 I I #
edge $-1 $527 -117.62379633777061 $310 -102.55835418985737 $437 $534 forward 7 unknown #
point $-1 -28.486005106091767 -39.578293967521894 17.009836872390732 #
point $-1 -28.486005106091771 -33.917592330121238 17.009836872390732 #
edge $-1 $535 1 $535 0 $313 $-1 forward 7 unknown #
vertex $-1 $314 $536 #
ellipse-curve $-1 -40.53835882442236 -33.533107282165979 10.964650195956828 0 -0.70710678939079041 0.70710677298230451 1.5 0 0 1 I I #
point $-1 -39.03835882442236 -36.747943148821562 14.179485988011818 #
edge $-1 $537 1 $537 0 $317 $-1 forward 7 unknown #
vertex $-1 $318 $538 #
ellipse-curve $-1 -36.01872618004839 -33.533107282165979 10.964650195956828 0 -0.70710678939079041 0.70710677298230451 1.5 0 0 1 I I #
point $-1 -34.51872618004839 -36.747943148821562 14.179485988011818 #
edge $-1 $539 1 $539 0 $321 $-1 forward 7 unknown #
vertex $-1 $322 $540 #
ellipse-curve $-1 -31.499093535674422 -33.533107282165979 10.964650195956828 0 -0.70710678939079041 0.70710677298230451 1.5 0 0 1 I I #
point $-1 -29.999093535674422 -36.747943148821562 14.179485988011818 #
plane-surface $-1 62.848597674489575 0 0 -1 0 0 0 0 1 forward_v I I I I #
coedge $-1 $330 $328 $332 $462 reversed $221 $-1 #
edge $-1 $343 -17.009836872390732 $464 17.009836872390732 $342 $541 forward 7 unknown #
vertex $-1 $462 $542 #
straight-curve $-1 -62.848597674489575 -39.578293967521894 0 0 0 -1 I I #
edge $-1 $460 -39.578293967521894 $464 39.578293967521894 $458 $543 forward 7 unknown #
straight-curve $-1 0 -39.578293967521894 -17.009836872390732 -1 0 0 I I #
vertex $-1 $335 $544 #
straight-curve $-1 0 39.578293967521894 -17.009836872390732 1 0 0 I I #
point $-1 62.848597674489575 39.578293967521894 -17.009836872390732 #
point $-1 62.848597674489575 -39.578293967521894 -17.009836872390732 #
straight-curve $-1 -62.848597674489575 0 17.009836872390732 0 -1 0 I I #
point $-1 -62.848597674489575 39.578293967521894 17.009836872390732 #
point $-1 -62.848597674489575 -39.578293967521894 17.009836872390732 #
straight-curve $-1 62.848597674489575 -39.578293967521894 0 0 0 -1 I I #
straight-curve $-1 62.848597674489575 39.578293967521894 0 0 0 -1 I I #
plane-surface $-1 0 0 17.009836872390732 0 0 1 1 0 0 forward_v I I I I #
coedge $-1 $357 $354 $359 $481 reversed $240 $-1 #
coedge $-1 $354 $357 $487 $545 reversed $240 $-1 #
edge $-1 $489 -17.009836872390732 $483 17.009836872390732 $371 $546 forward 7 unknown #
edge $-1 $478 -9.648575210242285 $369 9.648575210242285 $356 $547 forward 7 unknown #
vertex $-1 $545 $548 #
vertex $-1 $481 $549 #
straight-curve $-1 -82.145748094974138 -13.576687560441442 0 0 0 -1 I I #
edge $-1 $479 -2.9375153022796532 $483 2.9375153022796532 $474 $550 forward 7 unknown #
straight-curve $-1 -72.497172884731853 -13.576687560441442 -17.009836872390732 -1 0 0 I I #
vertex $-1 $361 $551 #
straight-curve $-1 -72.497172884731853 -7.7016569558821359 -17.009836872390732 1 0 0 I I #
point $-1 -62.848597674489568 -13.576687560441442 -17.009836872390732 #
straight-curve $-1 -62.848597674489575 -13.576687560441442 0 0 0 -1 I I #
coedge $-1 $367 $366 $475 $545 forward $368 $-1 #
point $-1 -62.848597674489568 -13.576687560441442 17.009836872390732 #
vertex $-1 $372 $552 #
straight-curve $-1 -72.497172884731853 -7.7016569558821359 17.009836872390732 -1 0 0 I I #
plane-surface $-1 0 -39.578293967521894 0 0 1 0 0 0 1 forward_v I I I I #
coedge $-1 $378 $495 $500 $553 reversed $256 $-1 #
coedge $-1 $390 $389 $378 $494 reversed $391 $-1 #
edge $-1 $554 -4.5817597344708965 $497 4.5817597344708965 $378 $555 forward 7 unknown #
coedge $-1 $492 $379 $381 $499 reversed $256 $-1 #
vertex $-1 $380 $556 #
vertex $-1 $494 $557 #
straight-curve $-1 85.296100493041621 0 7.8463174034489391 0 -1 0 I I #
edge $-1 $501 -4.5817597344708965 $496 4.5817597344708965 $495 $558 forward 7 unknown #
coedge $-1 $382 $505 $492 $553 forward $376 $-1 #
vertex $-1 $553 $559 #
straight-curve $-1 0 39.578293967521894 17.009836872390732 -1 0 0 I I #
straight-curve $-1 74.072349083765602 39.578293967521894 7.8463174034489391 1 0 0 I I #
point $-1 62.848597674489575 39.578293967521894 17.009836872390732 #
coedge $-1 $500 $387 $390 $507 forward $376 $-1 #
straight-curve $-1 62.848597674489575 0 17.009836872390732 0 -1 0 I I #
edge $-1 $392 -11.223751409276026 $554 11.223751409276019 $390 $560 forward 7 unknown #
point $-1 62.848597674489575 -39.578293967521894 17.009836872390732 #
straight-curve $-1 74.072349083765602 -39.578293967521894 7.8463174034489391 -1 0 0 I I #
coedge $-1 $408 $407 $400 $511 forward $397 $-1 #
edge $-1 $512 60.768858096715491 $515 69.017576546542102 $510 $561 forward 7 unknown #
vertex $-1 $412 $562 #
straight-curve $-1 -3.3448231116360567 31.151420097247094 17.009836872390736 0 1 0 I I #
edge $-1 $515 -3.2991638561417247 $409 16.587137791697288 $408 $563 forward 7 unknown #
vertex $-1 $514 $564 #
straight-curve $-1 -3.3448231116360567 -20.161940735824082 60.692513272957456 0 -0.75470957328743171 0.6560590369687036 I I #
point $-1 -3.3448231116360567 30.089229065373786 17.009836872390736 #
point $-1 -23.231124759475069 39.578293967521894 8.7611184225641168 #
straight-curve $-1 0 39.578293967521894 17.009836872390732 -1 0 0 I I #
vertex $-1 $415 $565 #
point $-1 -17.753864429907267 32.318174447344674 9.9916258193517908 #
vertex $-1 $419 $566 #
point $-1 -11.787973935555563 32.318174447344674 9.9916258193517908 #
vertex $-1 $423 $567 #
point $-1 -5.8220834412038585 32.318174447344674 9.9916258193517908 #
edge $-1 $527 33.105399767497218 $530 38.766101536255036 $428 $568 forward 7 unknown #
vertex $-1 $442 $569 #
straight-curve $-1 -43.551447254005012 -64.229817103082766 17.009836872390729 0 -1 0 I I #
edge $-1 $530 -25.542084163980817 $439 -10.476642016067576 $438 $570 forward 7 unknown #
vertex $-1 $529 $571 #
straight-curve $-1 -43.551447254005012 -39.578293967521887 11.349135103632918 0 0.70710677298230451 0.70710678939079041 I I #
point $-1 -43.551447254005012 -33.917592330121238 17.009836872390732 #
point $-1 -28.486005106091771 -39.578293967521894 11.349135103632911 #
straight-curve $-1 74.072349083765602 -39.578293967521894 17.009836872390732 1 0 0 I I #
vertex $-1 $445 $572 #
point $-1 -39.03835882442236 -33.533107282165979 10.964650195956828 #
vertex $-1 $449 $573 #
point $-1 -34.51872618004839 -33.533107282165979 10.964650195956828 #
vertex $-1 $453 $574 #
point $-1 -29.999093535674422 -33.533107282165979 10.964650195956828 #
straight-curve $-1 -62.848597674489575 39.578293967521894 0 0 0 -1 I I #
point $-1 -62.848597674489575 -39.578293967521894 -17.009836872390732 #
straight-curve $-1 -62.848597674489575 0 -17.009836872390732 0 1 0 I I #
point $-1 -62.848597674489575 39.578293967521894 -17.009836872390732 #
edge $-1 $489 -2.9375153022796532 $478 2.9375153022796532 $475 $575 forward 7 unknown #
straight-curve $-1 -82.145748094974138 -7.7016569558821359 0 0 0 -1 I I #
straight-curve $-1 -72.497172884731853 -13.576687560441442 17.009836872390732 1 0 0 I I #
point $-1 -82.145748094974138 -13.576687560441442 17.009836872390732 #
point $-1 -82.145748094974138 -13.576687560441442 -17.009836872390732 #
straight-curve $-1 -82.145748094974138 -10.639172258161789 -17.009836872390732 0 1 0 I I #
point $-1 -82.145748094974138 -7.7016569558821359 -17.009836872390732 #
point $-1 -82.145748094974138 -7.7016569558821359 17.009836872390732 #
edge $-1 $554 -39.578293967521894 $501 39.578293967521894 $492 $576 forward 7 unknown #
vertex $-1 $553 $577 #
straight-curve $-1 85.296100493041621 -39.578293967521894 12.428077137919836 0 0 -1 I I #
point $-1 85.296100493041621 39.578293967521894 7.8463174034489391 #
point $-1 85.296100493041621 -39.578293967521894 7.8463174034489391 #
straight-curve $-1 85.296100493041621 39.578293967521894 12.428077137919836 0 0 -1 I I #
point $-1 85.296100493041621 39.578293967521894 17.009836872390732 #
straight-curve $-1 74.072349083765602 -39.578293967521894 17.009836872390732 1 0 0 I I #
straight-curve $-1 -3.3448231116360567 39.578293967521894 77.778694969106226 0 0 -1 I I #
point $-1 -3.3448231116360567 39.578293967521894 17.009836872390732 #
straight-curve $-1 -6.6439869677777814 39.578293967521894 8.7611184225641168 -1 0 0 I I #
point $-1 -3.3448231116360567 39.578293967521894 8.7611184225641168 #
point $-1 -19.253864429907267 31.334085891891618 8.8595614594206449 #
point $-1 -13.287973935555563 31.334085891891618 8.8595614594206449 #
point $-1 -7.3220834412038585 31.334085891891618 8.8595614594206449 #
straight-curve $-1 -43.551447254005012 -39.578293967521894 50.115236639887947 0 0 -1 I I #
point $-1 -43.551447254005012 -39.578293967521894 17.009836872390732 #
straight-curve $-1 -18.009363090024195 -39.578293967521894 11.349135103632905 1 0 0 I I #
point $-1 -43.551447254005012 -39.578293967521894 11.349135103632911 #
point $-1 -40.53835882442236 -32.47244709807979 9.9039900364833713 #
point $-1 -36.01872618004839 -32.47244709807979 9.9039900364833713 #
point $-1 -31.499093535674422 -32.47244709807979 9.9039900364833713 #
straight-curve $-1 -82.145748094974138 -10.639172258161789 17.009836872390732 0 -1 0 I I #
straight-curve $-1 85.296100493041621 0 17.009836872390732 0 1 0 I I #
point $-1 85.296100493041621 -39.578293967521894 17.009836872390732 #
End-of-ACIS-data 