500 0 11 0           
7 Unknown 11 ACIS 5.0 NT 24 Thu Mar 25 20:08:16 1999 
-1 9.9999999999999995e-007 1e-010 
body $-1 $11 $-1 $12 #
body $-1 $13 $-1 $14 #
body $-1 $15 $-1 $16 #
body $-1 $17 $-1 $18 #
body $-1 $19 $-1 $20 #
body $-1 $21 $-1 $22 #
body $-1 $23 $-1 $24 #
body $-1 $25 $-1 $26 #
body $-1 $27 $-1 $28 #
body $-1 $29 $-1 $30 #
body $-1 $31 $-1 $32 #
lump $-1 $-1 $33 $0 #
transform $-1 1 0 0 0 1 0 0 0 1 70.384228034302794 33.294766422843111 10.512639344790028 1 rotate no_reflect no_shear #
lump $-1 $-1 $34 $1 #
transform $-1 1 0 0 0 1 0 0 0 1 70.384228034302794 33.294766422843111 10.512639344790028 1 rotate no_reflect no_shear #
lump $-1 $-1 $35 $2 #
transform $-1 1 0 0 0 1 0 0 0 1 70.384228034302794 33.294766422843111 10.512639344790028 1 rotate no_reflect no_shear #
lump $-1 $-1 $36 $3 #
transform $-1 1 0 0 0 1 0 0 0 1 70.384228034302794 33.294766422843111 10.512639344790028 1 rotate no_reflect no_shear #
lump $-1 $-1 $37 $4 #
transform $-1 1 0 0 0 1 0 0 0 1 70.384228034302794 33.294766422843111 10.512639344790028 1 rotate no_reflect no_shear #
lump $-1 $-1 $38 $5 #
transform $-1 1 0 0 0 1 0 0 0 1 70.384228034302794 33.294766422843111 10.512639344790028 1 rotate no_reflect no_shear #
lump $-1 $-1 $39 $6 #
transform $-1 1 0 0 0 1 0 0 0 1 70.384228034302794 33.294766422843111 10.512639344790028 1 rotate no_reflect no_shear #
lump $-1 $-1 $40 $7 #
transform $-1 1 0 0 0 1 0 0 0 1 70.384228034302794 33.294766422843111 10.512639344790028 1 rotate no_reflect no_shear #
lump $-1 $-1 $41 $8 #
transform $-1 1 0 0 0 1 0 0 0 1 70.384228034302794 33.294766422843111 10.512639344790028 1 rotate no_reflect no_shear #
lump $-1 $-1 $42 $9 #
transform $-1 1 0 0 0 1 0 0 0 1 70.384228034302794 33.294766422843111 10.512639344790028 1 rotate no_reflect no_shear #
lump $-1 $-1 $43 $10 #
transform $-1 1 0 0 0 1 0 0 0 1 70.384228034302794 33.294766422843111 10.512639344790028 1 rotate no_reflect no_shear #
shell $-1 $-1 $-1 $44 $-1 $11 #
shell $-1 $-1 $-1 $45 $-1 $13 #
shell $-1 $-1 $-1 $46 $-1 $15 #
shell $-1 $-1 $-1 $47 $-1 $17 #
shell $-1 $-1 $-1 $48 $-1 $19 #
shell $-1 $-1 $-1 $49 $-1 $21 #
shell $-1 $-1 $-1 $50 $-1 $23 #
shell $-1 $-1 $-1 $51 $-1 $25 #
shell $-1 $-1 $-1 $52 $-1 $27 #
shell $-1 $-1 $-1 $53 $-1 $29 #
shell $-1 $-1 $-1 $54 $-1 $31 #
face $-1 $55 $56 $33 $-1 $57 forward single #
face $-1 $58 $59 $34 $-1 $60 reversed single #
face $-1 $61 $62 $35 $-1 $63 reversed single #
face $-1 $64 $65 $36 $-1 $66 reversed single #
face $-1 $67 $68 $37 $-1 $69 forward single #
face $-1 $70 $71 $38 $-1 $72 forward single #
face $-1 $73 $74 $39 $-1 $75 forward single #
face $-1 $76 $77 $40 $-1 $78 reversed single #
face $-1 $79 $80 $41 $-1 $81 forward single #
face $-1 $82 $83 $42 $-1 $84 forward single #
face $-1 $85 $86 $43 $-1 $87 forward single #
face $-1 $88 $89 $33 $-1 $90 reversed single #
loop $-1 $-1 $91 $44 #
plane-surface $-1 0 0 10.512639344790028 0 0 1 1 0 0 forward_v I I I I #
face $-1 $92 $93 $34 $-1 $94 reversed single #
loop $-1 $-1 $95 $45 #
plane-surface $-1 0 -22.364130395514152 7.4720363947983124 0 -1 0 0 0 -1 forward_v I I I I #
face $-1 $96 $97 $35 $-1 $98 reversed single #
loop $-1 $-1 $99 $46 #
plane-surface $-1 0 27.829448409178632 4.431433444806598 0 0 1 1 0 0 forward_v I I I I #
face $-1 $100 $101 $36 $-1 $102 reversed single #
loop $-1 $-1 $103 $47 #
plane-surface $-1 -70.384228034302808 -16.883002950137289 2.7221767919154019 -0.79863551827123203 0 0.60181501223851219 0.60181501223851219 0 0.79863551827123203 forward_v I I I I #
face $-1 $104 $105 $37 $-1 $106 forward single #
loop $-1 $107 $108 $48 #
cone-surface $-1 -66.505378079025391 -20.171679417363407 5.9063674975405647 0.79863551827123203 0 -0.60181501223851219 0.60181501223851219 0 0.79863551827123203 1 I I 0 1 1 forward I I I I #
face $-1 $109 $110 $38 $-1 $111 forward single #
loop $-1 $112 $113 $49 #
cone-surface $-1 -66.505378079025391 -16.883002950137289 5.9063674975405647 0.79863551827123203 0 -0.60181501223851219 0.60181501223851219 0 0.79863551827123203 1 I I 0 1 1 forward I I I I #
face $-1 $114 $115 $39 $-1 $116 forward single #
loop $-1 $117 $118 $50 #
cone-surface $-1 -66.505378079025391 -13.594326482911171 5.9063674975405647 0.79863551827123203 0 -0.60181501223851219 0.60181501223851219 0 0.79863551827123203 1 I I 0 1 1 forward I I I I #
face $-1 $119 $120 $40 $-1 $121 reversed single #
loop $-1 $-1 $122 $51 #
plane-surface $-1 80.803097847149758 -12.814617110668955 200.8393314538574 0 -1 0 -0.74314483375859142 0 -0.66913059716165679 forward_v I I I I #
face $-1 $123 $124 $41 $-1 $125 forward single #
loop $-1 $126 $127 $52 #
cone-surface $-1 66.196230212059888 -20.454227738545114 5.9395041236088897 -0.74314483375859142 0 -0.66913059716165679 0.3345652985808284 0 -0.37157241687929571 1 I I 0 1 0.5 forward I I I I #
face $-1 $128 $129 $42 $-1 $130 forward single #
loop $-1 $131 $132 $53 #
cone-surface $-1 66.196230212059888 -17.589373753091554 5.9395041236088897 -0.74314483375859142 0 -0.66913059716165679 0.3345652985808284 0 -0.37157241687929571 1 I I 0 1 0.5 forward I I I I #
face $-1 $133 $134 $43 $-1 $135 forward single #
loop $-1 $136 $137 $54 #
cone-surface $-1 66.196230212059888 -14.724519767637993 5.9395041236088897 -0.74314483375859142 0 -0.66913059716165679 0.3345652985808284 0 -0.37157241687929571 1 I I 0 1 0.5 forward I I I I #
face $-1 $138 $139 $33 $-1 $140 reversed single #
loop $-1 $-1 $141 $55 #
plane-surface $-1 0 0 -10.512639344790028 0 0 1 1 0 0 forward_v I I I I #
coedge $-1 $142 $143 $144 $145 forward $56 $-1 #
face $-1 $146 $147 $34 $-1 $148 reversed single #
loop $-1 $-1 $149 $58 #
plane-surface $-1 0 -27.829448409178632 4.431433444806598 0 0 1 1 0 0 forward_v I I I I #
coedge $-1 $150 $151 $152 $153 reversed $59 $-1 #
face $-1 $154 $155 $35 $-1 $156 forward single #
loop $-1 $-1 $157 $61 #
plane-surface $-1 0 22.364130395514152 7.4720363947983124 0 1 0 0 0 1 forward_v I I I I #
coedge $-1 $158 $159 $160 $161 reversed $62 $-1 #
face $-1 $162 $163 $36 $-1 $164 reversed single #
loop $-1 $-1 $165 $64 #
plane-surface $-1 -182.80691690289478 -11.401875504760424 87.438746903639739 0 -1 0 0.79863551827123203 0 -0.60181501223851219 forward_v I I I I #
coedge $-1 $166 $167 $168 $169 reversed $65 $-1 #
face $-1 $-1 $170 $37 $-1 $171 forward single #
loop $-1 $172 $173 $67 #
cone-surface $-1 -65.162477585603682 -20.171679417363407 4.8944194206091574 0.79863551827123203 0 -0.60181501223851219 0.3009075061192561 0 0.39931775913561601 1 I I -0.70710678118654746 0.70710678118654746 0.5 forward I I I I #
loop $-1 $-1 $174 $48 #
coedge $-1 $108 $108 $175 $176 reversed $68 $-1 #
face $-1 $-1 $177 $38 $-1 $178 forward single #
loop $-1 $179 $180 $70 #
cone-surface $-1 -65.162477585603682 -16.883002950137289 4.8944194206091574 0.79863551827123203 0 -0.60181501223851219 0.3009075061192561 0 0.39931775913561601 1 I I -0.70710678118654746 0.70710678118654746 0.5 forward I I I I #
loop $-1 $-1 $181 $49 #
coedge $-1 $113 $113 $182 $183 reversed $71 $-1 #
face $-1 $-1 $184 $39 $-1 $185 forward single #
loop $-1 $186 $187 $73 #
cone-surface $-1 -65.162477585603682 -13.594326482911171 4.8944194206091574 0.79863551827123203 0 -0.60181501223851219 0.3009075061192561 0 0.39931775913561601 1 I I -0.70710678118654746 0.70710678118654746 0.5 forward I I I I #
loop $-1 $-1 $188 $50 #
coedge $-1 $118 $118 $189 $190 reversed $74 $-1 #
face $-1 $191 $192 $40 $-1 $193 forward single #
loop $-1 $-1 $194 $76 #
plane-surface $-1 -23.80825303640772 -17.589373753091554 106.64685038314688 0.74314483375859142 0 0.66913059716165679 0.66913059716165679 0 -0.74314483375859142 forward_v I I I I #
coedge $-1 $195 $196 $197 $198 reversed $77 $-1 #
face $-1 $-1 $199 $41 $-1 $200 forward single #
loop $-1 $201 $202 $79 #
cone-surface $-1 65.638871586740947 -20.454227738545114 5.4376561757376471 -0.74314483375859142 0 -0.66913059716165679 0.1672826492904142 0 -0.18578620843964785 1 I I -0.70710678118654746 0.70710678118654746 0.25 forward I I I I #
loop $-1 $-1 $203 $52 #
coedge $-1 $127 $127 $204 $205 reversed $80 $-1 #
face $-1 $-1 $206 $42 $-1 $207 forward single #
loop $-1 $208 $209 $82 #
cone-surface $-1 65.638871586740947 -17.589373753091554 5.4376561757376471 -0.74314483375859142 0 -0.66913059716165679 0.1672826492904142 0 -0.18578620843964785 1 I I -0.70710678118654746 0.70710678118654746 0.25 forward I I I I #
loop $-1 $-1 $210 $53 #
coedge $-1 $132 $132 $211 $212 reversed $83 $-1 #
face $-1 $-1 $213 $43 $-1 $214 forward single #
loop $-1 $215 $216 $85 #
cone-surface $-1 65.638871586740947 -14.724519767637993 5.4376561757376471 -0.74314483375859142 0 -0.66913059716165679 0.1672826492904142 0 -0.18578620843964785 1 I I -0.70710678118654746 0.70710678118654746 0.25 forward I I I I #
loop $-1 $-1 $217 $54 #
coedge $-1 $137 $137 $218 $219 reversed $86 $-1 #
face $-1 $220 $221 $33 $-1 $222 reversed single #
loop $-1 $-1 $223 $88 #
plane-surface $-1 0 -33.294766422843111 0 0 1 0 0 0 1 forward_v I I I I #
coedge $-1 $224 $225 $226 $227 forward $89 $-1 #
coedge $-1 $228 $91 $229 $230 forward $56 $-1 #
coedge $-1 $91 $228 $231 $232 forward $56 $-1 #
coedge $-1 $233 $234 $91 $145 reversed $235 $-1 #
edge $-1 $236 -33.294766422843111 $237 33.294766422843111 $144 $238 forward 7 unknown #
face $-1 $239 $240 $34 $-1 $241 reversed single #
loop $-1 $-1 $242 $92 #
plane-surface $-1 -70.384228034302794 0 0 1 0 0 0 0 -1 forward_v I I I I #
coedge $-1 $243 $152 $244 $245 reversed $93 $-1 #
coedge $-1 $246 $95 $242 $247 reversed $59 $-1 #
coedge $-1 $95 $246 $248 $249 reversed $59 $-1 #
coedge $-1 $149 $250 $95 $153 forward $93 $-1 #
edge $-1 $251 -70.384228034302794 $252 70.384228034302794 $95 $253 forward 7 unknown #
face $-1 $254 $255 $35 $-1 $256 reversed single #
loop $-1 $-1 $257 $96 #
plane-surface $-1 0 0 10.512639344790028 0 0 1 1 0 0 forward_v I I I I #
coedge $-1 $258 $259 $260 $261 reversed $97 $-1 #
coedge $-1 $262 $99 $258 $263 forward $62 $-1 #
coedge $-1 $99 $262 $264 $265 reversed $62 $-1 #
coedge $-1 $266 $267 $99 $161 forward $255 $-1 #
edge $-1 $268 8.4494061909248366 $269 19.380042218253795 $160 $270 forward 7 unknown #
face $-1 $271 $272 $36 $-1 $273 forward single #
loop $-1 $-1 $274 $100 #
plane-surface $-1 -70.384228034302794 0 0 1 0 0 0 0 -1 forward_v I I I I #
coedge $-1 $275 $276 $277 $278 reversed $101 $-1 #
coedge $-1 $279 $103 $280 $281 reversed $65 $-1 #
coedge $-1 $103 $279 $275 $282 forward $65 $-1 #
coedge $-1 $277 $283 $103 $169 forward $272 $-1 #
edge $-1 $284 -13.922628920445508 $285 -2.9603740296917795 $168 $286 forward 7 unknown #
loop $-1 $-1 $175 $104 #
plane-surface $-1 -70.384228034302808 -16.883002950137289 2.7221767919154019 -0.79863551827123203 0 0.60181501223851219 0.60181501223851219 0 0.79863551827123203 forward_v I I I I #
loop $-1 $-1 $287 $67 #
coedge $-1 $173 $173 $174 $288 reversed $105 $-1 #
coedge $-1 $174 $174 $173 $288 forward $107 $-1 #
coedge $-1 $175 $175 $108 $176 forward $170 $-1 #
edge $-1 $289 0 $289 6.2831853071796004 $175 $290 forward 7 unknown #
loop $-1 $-1 $182 $109 #
plane-surface $-1 -70.384228034302808 -16.883002950137289 2.7221767919154019 -0.79863551827123203 0 0.60181501223851219 0.60181501223851219 0 0.79863551827123203 forward_v I I I I #
loop $-1 $-1 $291 $70 #
coedge $-1 $180 $180 $181 $292 reversed $110 $-1 #
coedge $-1 $181 $181 $180 $292 forward $112 $-1 #
coedge $-1 $182 $182 $113 $183 forward $177 $-1 #
edge $-1 $293 0 $293 6.2831853071796004 $182 $294 forward 7 unknown #
loop $-1 $-1 $189 $114 #
plane-surface $-1 -70.384228034302808 -16.883002950137289 2.7221767919154019 -0.79863551827123203 0 0.60181501223851219 0.60181501223851219 0 0.79863551827123203 forward_v I I I I #
loop $-1 $-1 $295 $73 #
coedge $-1 $187 $187 $188 $296 reversed $115 $-1 #
coedge $-1 $188 $188 $187 $296 forward $117 $-1 #
coedge $-1 $189 $189 $118 $190 forward $184 $-1 #
edge $-1 $297 0 $297 6.2831853071796004 $189 $298 forward 7 unknown #
face $-1 $299 $300 $40 $-1 $301 forward single #
loop $-1 $-1 $197 $119 #
plane-surface $-1 0 0 10.512639344790028 0 0 1 1 0 0 forward_v I I I I #
coedge $-1 $302 $303 $304 $305 reversed $120 $-1 #
coedge $-1 $196 $122 $306 $307 reversed $77 $-1 #
coedge $-1 $122 $195 $302 $308 reversed $77 $-1 #
coedge $-1 $304 $309 $122 $198 forward $192 $-1 #
edge $-1 $310 -29.982679110727915 $311 -22.349828300000738 $197 $312 forward 7 unknown #
loop $-1 $-1 $204 $123 #
plane-surface $-1 -23.80825303640772 -17.589373753091554 106.64685038314688 0.74314483375859142 0 0.66913059716165679 0.66913059716165679 0 -0.74314483375859142 forward_v I I I I #
loop $-1 $-1 $313 $79 #
coedge $-1 $202 $202 $203 $314 reversed $124 $-1 #
coedge $-1 $203 $203 $202 $314 forward $126 $-1 #
coedge $-1 $204 $204 $127 $205 forward $199 $-1 #
edge $-1 $315 0 $315 6.2831853071796004 $204 $316 forward 7 unknown #
loop $-1 $-1 $211 $128 #
plane-surface $-1 -23.80825303640772 -17.589373753091554 106.64685038314688 0.74314483375859142 0 0.66913059716165679 0.66913059716165679 0 -0.74314483375859142 forward_v I I I I #
loop $-1 $-1 $317 $82 #
coedge $-1 $209 $209 $210 $318 reversed $129 $-1 #
coedge $-1 $210 $210 $209 $318 forward $131 $-1 #
coedge $-1 $211 $211 $132 $212 forward $206 $-1 #
edge $-1 $319 0 $319 6.2831853071796004 $211 $320 forward 7 unknown #
loop $-1 $-1 $218 $133 #
plane-surface $-1 -23.80825303640772 -17.589373753091554 106.64685038314688 0.74314483375859142 0 0.66913059716165679 0.66913059716165679 0 -0.74314483375859142 forward_v I I I I #
loop $-1 $-1 $321 $85 #
coedge $-1 $216 $216 $217 $322 reversed $134 $-1 #
coedge $-1 $217 $217 $216 $322 forward $136 $-1 #
coedge $-1 $218 $218 $137 $219 forward $213 $-1 #
edge $-1 $323 0 $323 6.2831853071796004 $218 $324 forward 7 unknown #
face $-1 $325 $326 $33 $-1 $327 reversed single #
loop $-1 $-1 $328 $138 #
plane-surface $-1 -70.384228034302794 0 0 1 0 0 0 0 -1 forward_v I I I I #
coedge $-1 $329 $231 $330 $331 forward $139 $-1 #
coedge $-1 $332 $141 $329 $333 forward $89 $-1 #
coedge $-1 $141 $332 $334 $335 forward $89 $-1 #
coedge $-1 $234 $233 $141 $227 reversed $235 $-1 #
edge $-1 $336 -33.294766422843111 $337 33.294766422843111 $226 $338 forward 7 unknown #
coedge $-1 $143 $142 $339 $340 forward $56 $-1 #
coedge $-1 $341 $342 $142 $230 reversed $326 $-1 #
edge $-1 $237 -70.384228034302794 $343 70.384228034302794 $229 $344 forward 7 unknown #
coedge $-1 $223 $345 $143 $232 reversed $139 $-1 #
edge $-1 $346 -70.384228034302794 $236 70.384228034302794 $231 $347 forward 7 unknown #
coedge $-1 $226 $144 $345 $348 forward $235 $-1 #
coedge $-1 $144 $226 $341 $349 reversed $235 $-1 #
loop $-1 $-1 $233 $325 #
vertex $-1 $145 $350 #
vertex $-1 $145 $351 #
straight-curve $-1 70.384228034302794 0 10.512639344790028 0 1 0 I I #
face $-1 $352 $353 $34 $-1 $354 forward single #
loop $-1 $-1 $355 $146 #
plane-surface $-1 0 -33.294766422843111 0 0 1 0 0 0 1 forward_v I I I I #
coedge $-1 $356 $357 $150 $247 forward $147 $-1 #
coedge $-1 $250 $149 $355 $358 reversed $93 $-1 #
coedge $-1 $248 $359 $149 $245 forward $360 $-1 #
edge $-1 $361 -19.380042218253795 $252 -8.4494061909248366 $244 $362 forward 7 unknown #
coedge $-1 $151 $150 $363 $364 reversed $59 $-1 #
edge $-1 $365 -6.7766211473908715 $251 -0.69541524740744176 $242 $366 forward 7 unknown #
coedge $-1 $367 $244 $151 $249 forward $360 $-1 #
edge $-1 $252 0.69541524740744176 $368 6.7766211473908715 $248 $369 forward 7 unknown #
coedge $-1 $152 $243 $356 $370 reversed $93 $-1 #
vertex $-1 $370 $371 #
vertex $-1 $245 $372 #
straight-curve $-1 0 -22.364130395514152 4.431433444806598 1 0 0 I I #
face $-1 $373 $374 $35 $-1 $375 reversed single #
loop $-1 $-1 $267 $154 #
plane-surface $-1 70.384228034302794 0 0 -1 0 0 0 0 1 forward_v I I I I #
coedge $-1 $376 $377 $259 $378 forward $155 $-1 #
coedge $-1 $379 $157 $158 $263 reversed $97 $-1 #
coedge $-1 $157 $379 $257 $378 reversed $97 $-1 #
coedge $-1 $380 $381 $157 $261 forward $374 $-1 #
edge $-1 $382 0.69541524740744176 $383 6.7766211473908715 $260 $384 forward 7 unknown #
coedge $-1 $159 $158 $381 $385 reversed $62 $-1 #
edge $-1 $268 -70.384228034302794 $382 70.384228034302794 $258 $386 forward 7 unknown #
coedge $-1 $387 $388 $159 $265 forward $389 $-1 #
edge $-1 $269 -70.384228034302794 $390 70.384228034302794 $264 $391 forward 7 unknown #
coedge $-1 $392 $160 $388 $393 reversed $255 $-1 #
coedge $-1 $160 $392 $379 $394 forward $255 $-1 #
vertex $-1 $161 $395 #
vertex $-1 $265 $396 #
straight-curve $-1 70.384228034302794 13.914724204589316 4.431433444806598 0 1 0 I I #
face $-1 $-1 $397 $36 $-1 $398 forward single #
loop $-1 $-1 $277 $162 #
plane-surface $-1 0 0 10.512639344790028 0 0 1 1 0 0 forward_v I I I I #
coedge $-1 $399 $400 $276 $401 forward $163 $-1 #
coedge $-1 $276 $165 $167 $282 reversed $101 $-1 #
coedge $-1 $165 $275 $274 $401 reversed $101 $-1 #
coedge $-1 $402 $168 $165 $278 forward $272 $-1 #
edge $-1 $285 -26.889764859127212 $403 -21.019230417144598 $277 $404 forward 7 unknown #
coedge $-1 $167 $166 $399 $405 reversed $65 $-1 #
coedge $-1 $406 $407 $166 $281 forward $397 $-1 #
edge $-1 $408 -23.075845820763057 $284 -13.321129965227044 $280 $409 forward 7 unknown #
edge $-1 $410 2.3448253187574213e-014 $285 9.754715855536034 $275 $411 forward 7 unknown #
coedge $-1 $168 $402 $406 $412 forward $272 $-1 #
vertex $-1 $281 $413 #
vertex $-1 $169 $414 #
straight-curve $-1 -64.51369359232018 -8.4415014750686446 10.512639344790029 0 1 0 I I #
coedge $-1 $287 $287 $-1 $415 reversed $172 $-1 #
edge $-1 $416 0 $416 6.2831853071796004 $173 $417 forward 7 unknown #
vertex $-1 $176 $418 #
ellipse-curve $-1 -67.448960813311487 -20.171679417363407 6.6174080683527192 -0.79863551827123203 0 0.60181501223851219 0.60181501223851219 0 0.79863551827123203 1 I I #
coedge $-1 $291 $291 $-1 $419 reversed $179 $-1 #
edge $-1 $420 0 $420 6.2831853071796004 $180 $421 forward 7 unknown #
vertex $-1 $183 $422 #
ellipse-curve $-1 -67.448960813311487 -16.883002950137289 6.6174080683527192 -0.79863551827123203 0 0.60181501223851219 0.60181501223851219 0 0.79863551827123203 1 I I #
coedge $-1 $295 $295 $-1 $423 reversed $186 $-1 #
edge $-1 $424 0 $424 6.2831853071796004 $187 $425 forward 7 unknown #
vertex $-1 $190 $426 #
ellipse-curve $-1 -67.448960813311487 -13.594326482911171 6.6174080683527192 -0.79863551827123203 0 0.60181501223851219 0.60181501223851219 0 0.79863551827123203 1 I I #
face $-1 $-1 $427 $40 $-1 $428 reversed single #
loop $-1 $-1 $429 $191 #
plane-surface $-1 0 -22.364130395514152 7.4720363947983124 0 -1 0 0 0 -1 forward_v I I I I #
coedge $-1 $430 $194 $196 $308 forward $120 $-1 #
coedge $-1 $194 $430 $429 $431 forward $120 $-1 #
coedge $-1 $432 $197 $194 $305 forward $192 $-1 #
edge $-1 $311 4.0199302341231782 $433 13.569443518968376 $304 $434 forward 7 unknown #
coedge $-1 $435 $436 $195 $307 forward $427 $-1 #
edge $-1 $437 -98.384166227339293 $310 -89.907026382138667 $306 $438 forward 7 unknown #
edge $-1 $311 129.3613393665679 $437 140.76845606860559 $196 $439 forward 7 unknown #
coedge $-1 $197 $432 $435 $440 forward $192 $-1 #
vertex $-1 $307 $441 #
vertex $-1 $198 $442 #
straight-curve $-1 40.401548923574879 -12.814617110668955 10.512639344790031 -1 0 0 I I #
coedge $-1 $313 $313 $-1 $443 reversed $201 $-1 #
edge $-1 $444 0 $444 6.2831853071796004 $202 $445 forward 7 unknown #
vertex $-1 $205 $446 #
ellipse-curve $-1 66.567802628939205 -20.454227738545114 6.2740694221897373 0.74314483375859142 0 0.66913059716165679 0.3345652985808284 0 -0.37157241687929571 1 I I #
coedge $-1 $317 $317 $-1 $447 reversed $208 $-1 #
edge $-1 $448 0 $448 6.2831853071796004 $209 $449 forward 7 unknown #
vertex $-1 $212 $450 #
ellipse-curve $-1 66.567802628939205 -17.589373753091554 6.2740694221897373 0.74314483375859142 0 0.66913059716165679 0.3345652985808284 0 -0.37157241687929571 1 I I #
coedge $-1 $321 $321 $-1 $451 reversed $215 $-1 #
edge $-1 $452 0 $452 6.2831853071796004 $216 $453 forward 7 unknown #
vertex $-1 $219 $454 #
ellipse-curve $-1 66.567802628939205 -14.724519767637993 6.2740694221897373 0.74314483375859142 0 0.66913059716165679 0.3345652985808284 0 -0.37157241687929571 1 I I #
face $-1 $-1 $235 $33 $-1 $455 reversed single #
loop $-1 $-1 $341 $220 #
plane-surface $-1 0 33.294766422843111 0 0 -1 0 0 0 -1 forward_v I I I I #
coedge $-1 $456 $339 $342 $457 forward $221 $-1 #
coedge $-1 $345 $223 $224 $333 reversed $139 $-1 #
coedge $-1 $339 $456 $223 $331 reversed $221 $-1 #
edge $-1 $346 -10.512639344790028 $458 10.512639344790028 $330 $459 forward 7 unknown #
coedge $-1 $225 $224 $456 $460 forward $89 $-1 #
edge $-1 $337 -70.384228034302794 $458 70.384228034302794 $329 $461 forward 7 unknown #
coedge $-1 $342 $341 $225 $335 reversed $326 $-1 #
edge $-1 $462 -70.384228034302794 $336 70.384228034302794 $334 $463 forward 7 unknown #
vertex $-1 $227 $464 #
vertex $-1 $348 $465 #
straight-curve $-1 70.384228034302794 0 -10.512639344790028 0 -1 0 I I #
coedge $-1 $328 $330 $228 $340 reversed $221 $-1 #
edge $-1 $343 -33.294766422843111 $346 33.294766422843111 $339 $466 forward 7 unknown #
coedge $-1 $334 $229 $234 $349 forward $326 $-1 #
coedge $-1 $229 $334 $328 $457 reversed $326 $-1 #
vertex $-1 $230 $467 #
straight-curve $-1 0 33.294766422843111 10.512639344790028 -1 0 0 I I #
coedge $-1 $231 $329 $233 $348 reversed $139 $-1 #
vertex $-1 $340 $468 #
straight-curve $-1 0 -33.294766422843111 10.512639344790028 1 0 0 I I #
edge $-1 $236 -10.512639344790028 $337 10.512639344790028 $233 $469 forward 7 unknown #
edge $-1 $237 -10.512639344790028 $336 10.512639344790028 $234 $470 forward 7 unknown #
point $-1 70.384228034302794 -33.294766422843111 10.512639344790028 #
point $-1 70.384228034302794 33.294766422843111 10.512639344790028 #
face $-1 $-1 $360 $34 $-1 $471 reversed single #
loop $-1 $-1 $363 $239 #
plane-surface $-1 0 0 10.512639344790028 0 0 1 1 0 0 forward_v I I I I #
coedge $-1 $472 $473 $243 $358 forward $240 $-1 #
coedge $-1 $474 $242 $250 $370 forward $147 $-1 #
coedge $-1 $242 $474 $475 $476 reversed $147 $-1 #
edge $-1 $477 -70.384228034302794 $361 70.384228034302794 $355 $478 forward 7 unknown #
coedge $-1 $244 $367 $472 $479 forward $360 $-1 #
loop $-1 $-1 $248 $352 #
vertex $-1 $358 $480 #
straight-curve $-1 70.384228034302794 -13.914724204589316 4.431433444806598 0 1 0 I I #
coedge $-1 $475 $481 $246 $364 forward $353 $-1 #
edge $-1 $368 -70.384228034302794 $365 70.384228034302794 $363 $482 forward 7 unknown #
vertex $-1 $476 $483 #
straight-curve $-1 -70.384228034302794 -22.364130395514152 3.7360181973991562 0 0 -1 I I #
coedge $-1 $359 $248 $481 $484 reversed $360 $-1 #
vertex $-1 $249 $485 #
straight-curve $-1 70.384228034302794 -22.364130395514152 3.7360181973991562 0 0 1 I I #
edge $-1 $251 8.4494061909248366 $477 19.380042218253795 $356 $486 forward 7 unknown #
point $-1 -70.384228034302794 -22.364130395514152 4.431433444806598 #
point $-1 70.384228034302794 -22.364130395514152 4.431433444806598 #
face $-1 $-1 $389 $35 $-1 $487 reversed single #
loop $-1 $-1 $260 $254 #
plane-surface $-1 -70.384228034302794 0 0 1 0 0 0 0 -1 forward_v I I I I #
coedge $-1 $488 $257 $392 $489 forward $155 $-1 #
coedge $-1 $257 $488 $380 $490 forward $155 $-1 #
edge $-1 $383 -70.384228034302794 $491 70.384228034302794 $257 $492 forward 7 unknown #
coedge $-1 $259 $258 $267 $394 reversed $97 $-1 #
coedge $-1 $493 $260 $377 $490 reversed $374 $-1 #
coedge $-1 $260 $493 $262 $385 forward $374 $-1 #
vertex $-1 $385 $494 #
vertex $-1 $261 $495 #
straight-curve $-1 -70.384228034302794 22.364130395514152 3.7360181973991562 0 0 1 I I #
edge $-1 $390 -19.380042218253795 $382 -8.4494061909248366 $381 $496 forward 7 unknown #
straight-curve $-1 0 22.364130395514152 4.431433444806598 -1 0 0 I I #
coedge $-1 $497 $264 $493 $498 reversed $389 $-1 #
coedge $-1 $264 $497 $266 $393 forward $389 $-1 #
loop $-1 $-1 $264 $373 #
vertex $-1 $265 $499 #
straight-curve $-1 0 33.294766422843111 4.431433444806598 -1 0 0 I I #
coedge $-1 $267 $266 $376 $489 reversed $255 $-1 #
edge $-1 $500 -10.512639344790028 $269 -4.431433444806598 $266 $501 forward 7 unknown #
edge $-1 $491 -6.7766211473908715 $268 -0.69541524740744176 $267 $502 forward 7 unknown #
point $-1 70.384228034302794 22.364130395514152 4.431433444806598 #
point $-1 70.384228034302794 33.294766422843111 4.431433444806598 #
loop $-1 $-1 $280 $271 #
plane-surface $-1 0 -22.364130395514152 7.4720363947983124 0 -1 0 0 0 -1 forward_v I I I I #
coedge $-1 $503 $274 $279 $405 forward $163 $-1 #
coedge $-1 $274 $503 $402 $504 reversed $163 $-1 #
edge $-1 $403 33.206734107029845 $410 40.997196659904446 $274 $505 forward 7 unknown #
coedge $-1 $283 $277 $400 $504 forward $272 $-1 #
vertex $-1 $504 $506 #
straight-curve $-1 -91.403458451447392 -11.401875504760424 10.512639344790031 -1 0 0 I I #
edge $-1 $410 2.9603740296917795 $408 13.922628920445508 $399 $507 forward 7 unknown #
coedge $-1 $407 $280 $283 $412 reversed $397 $-1 #
coedge $-1 $280 $406 $503 $508 reversed $397 $-1 #
vertex $-1 $508 $509 #
straight-curve $-1 -56.496837599266257 -22.364130395514152 21.151366878527568 0.60181501223851219 0 0.79863551827123203 I I #
vertex $-1 $405 $510 #
straight-curve $-1 -70.384228034302808 -11.401875504760424 2.7221767919154019 0.60181501223851219 0 0.79863551827123203 I I #
edge $-1 $511 -70.384228034302794 $284 -64.51369359232018 $283 $512 forward 7 unknown #
point $-1 -64.51369359232018 -22.364130395514152 10.512639344790028 #
point $-1 -64.51369359232018 -11.401875504760424 10.512639344790028 #
edge $-1 $513 1 $513 0 $287 $-1 forward 7 unknown #
vertex $-1 $288 $514 #
ellipse-curve $-1 -65.561795344739295 -20.171679417363407 5.1953269267284137 -0.79863551827123203 0 0.60181501223851219 0.60181501223851219 0 0.79863551827123203 1 I I #
point $-1 -66.847145801072969 -20.171679417363407 7.4160435866239478 #
edge $-1 $515 1 $515 0 $291 $-1 forward 7 unknown #
vertex $-1 $292 $516 #
ellipse-curve $-1 -65.561795344739295 -16.883002950137289 5.1953269267284137 -0.79863551827123203 0 0.60181501223851219 0.60181501223851219 0 0.79863551827123203 1 I I #
point $-1 -66.847145801072969 -16.883002950137289 7.4160435866239478 #
edge $-1 $517 1 $517 0 $295 $-1 forward 7 unknown #
vertex $-1 $296 $518 #
ellipse-curve $-1 -65.561795344739295 -13.594326482911171 5.1953269267284137 -0.79863551827123203 0 0.60181501223851219 0.60181501223851219 0 0.79863551827123203 1 I I #
point $-1 -66.847145801072969 -13.594326482911171 7.4160435866239478 #
loop $-1 $-1 $306 $299 #
plane-surface $-1 70.384228034302794 0 0 -1 0 0 0 0 1 forward_v I I I I #
coedge $-1 $519 $520 $303 $431 reversed $300 $-1 #
coedge $-1 $303 $302 $436 $521 reversed $120 $-1 #
edge $-1 $522 -140.76845606860559 $433 -129.36133936656793 $429 $523 forward 7 unknown #
coedge $-1 $309 $304 $520 $524 forward $192 $-1 #
vertex $-1 $524 $525 #
straight-curve $-1 62.751377223575616 -8.7946868765457769 10.512639344790038 0 -1 0 I I #
coedge $-1 $526 $306 $309 $440 reversed $427 $-1 #
coedge $-1 $306 $526 $430 $521 forward $427 $-1 #
vertex $-1 $307 $527 #
straight-curve $-1 70.384228034302794 -12.814617110668955 100.4196657269287 0 0 1 I I #
straight-curve $-1 -23.80825303640772 -12.814617110668955 106.64685038314688 0.66913059716165679 0 -0.74314483375859142 I I #
edge $-1 $528 -22.364130395514152 $310 -12.814617110668955 $435 $529 forward 7 unknown #
point $-1 70.384228034302794 -12.814617110668955 10.512639344790028 #
point $-1 62.751377223575616 -12.814617110668955 10.512639344790031 #
edge $-1 $530 1 $530 0 $313 $-1 forward 7 unknown #
vertex $-1 $314 $531 #
ellipse-curve $-1 65.824657795180599 -20.454227738545114 5.6049388250280616 0.74314483375859142 0 0.66913059716165679 0.3345652985808284 0 -0.37157241687929571 1 I I #
point $-1 66.902367927520018 -20.454227738545114 5.9024970053104227 #
edge $-1 $532 1 $532 0 $317 $-1 forward 7 unknown #
vertex $-1 $318 $533 #
ellipse-curve $-1 65.824657795180599 -17.589373753091554 5.6049388250280616 0.74314483375859142 0 0.66913059716165679 0.3345652985808284 0 -0.37157241687929571 1 I I #
point $-1 66.902367927520018 -17.589373753091554 5.9024970053104227 #
edge $-1 $534 1 $534 0 $321 $-1 forward 7 unknown #
vertex $-1 $322 $535 #
ellipse-curve $-1 65.824657795180599 -14.724519767637993 5.6049388250280616 0.74314483375859142 0 0.66913059716165679 0.3345652985808284 0 -0.37157241687929571 1 I I #
point $-1 66.902367927520018 -14.724519767637993 5.9024970053104227 #
plane-surface $-1 70.384228034302794 0 0 -1 0 0 0 0 1 forward_v I I I I #
coedge $-1 $330 $328 $332 $460 reversed $221 $-1 #
edge $-1 $343 -10.512639344790028 $462 10.512639344790028 $342 $536 forward 7 unknown #
vertex $-1 $460 $537 #
straight-curve $-1 -70.384228034302794 -33.294766422843111 0 0 0 -1 I I #
edge $-1 $458 -33.294766422843111 $462 33.294766422843111 $456 $538 forward 7 unknown #
straight-curve $-1 0 -33.294766422843111 -10.512639344790028 -1 0 0 I I #
vertex $-1 $335 $539 #
straight-curve $-1 0 33.294766422843111 -10.512639344790028 1 0 0 I I #
point $-1 70.384228034302794 33.294766422843111 -10.512639344790028 #
point $-1 70.384228034302794 -33.294766422843111 -10.512639344790028 #
straight-curve $-1 -70.384228034302794 0 10.512639344790028 0 -1 0 I I #
point $-1 -70.384228034302794 33.294766422843111 10.512639344790028 #
point $-1 -70.384228034302794 -33.294766422843111 10.512639344790028 #
straight-curve $-1 70.384228034302794 -33.294766422843111 0 0 0 -1 I I #
straight-curve $-1 70.384228034302794 33.294766422843111 0 0 0 -1 I I #
plane-surface $-1 70.384228034302794 0 0 -1 0 0 0 0 1 forward_v I I I I #
coedge $-1 $540 $355 $359 $479 reversed $240 $-1 #
coedge $-1 $355 $540 $474 $541 forward $240 $-1 #
coedge $-1 $357 $356 $473 $541 reversed $147 $-1 #
coedge $-1 $542 $363 $357 $476 forward $353 $-1 #
edge $-1 $365 22.364130395514152 $543 33.294766422843111 $357 $544 forward 7 unknown #
vertex $-1 $358 $545 #
straight-curve $-1 0 -33.294766422843111 4.431433444806598 1 0 0 I I #
edge $-1 $546 -10.512639344790028 $361 -4.431433444806598 $359 $547 forward 7 unknown #
point $-1 70.384228034302794 -33.294766422843111 4.431433444806598 #
coedge $-1 $363 $542 $367 $484 forward $353 $-1 #
straight-curve $-1 0 -22.364130395514152 10.512639344790028 -1 0 0 I I #
point $-1 -70.384228034302794 -22.364130395514152 10.512639344790028 #
edge $-1 $546 -33.294766422843111 $368 -22.364130395514152 $367 $548 forward 7 unknown #
point $-1 70.384228034302794 -22.364130395514152 10.512639344790028 #
straight-curve $-1 -70.384228034302794 -13.914724204589316 4.431433444806598 0 -1 0 I I #
plane-surface $-1 0 33.294766422843111 0 0 -1 0 0 0 -1 forward_v I I I I #
coedge $-1 $377 $376 $497 $549 forward $155 $-1 #
edge $-1 $491 22.364130395514152 $500 33.294766422843111 $392 $550 forward 7 unknown #
edge $-1 $551 -33.294766422843111 $383 -22.364130395514152 $380 $552 forward 7 unknown #
vertex $-1 $489 $553 #
straight-curve $-1 0 22.364130395514152 10.512639344790028 1 0 0 I I #
coedge $-1 $381 $380 $387 $498 forward $374 $-1 #
point $-1 -70.384228034302794 22.364130395514152 4.431433444806598 #
point $-1 -70.384228034302794 22.364130395514152 10.512639344790028 #
straight-curve $-1 -70.384228034302794 13.914724204589316 4.431433444806598 0 -1 0 I I #
coedge $-1 $388 $387 $488 $549 reversed $389 $-1 #
edge $-1 $551 -10.512639344790028 $390 -4.431433444806598 $387 $554 forward 7 unknown #
point $-1 -70.384228034302794 33.294766422843111 4.431433444806598 #
vertex $-1 $489 $555 #
straight-curve $-1 70.384228034302794 33.294766422843111 0 0 0 -1 I I #
straight-curve $-1 70.384228034302794 22.364130395514152 3.7360181973991562 0 0 -1 I I #
coedge $-1 $400 $399 $407 $508 forward $163 $-1 #
edge $-1 $403 11.401875504760424 $511 22.364130395514152 $400 $556 forward 7 unknown #
straight-curve $-1 -70.384228034302794 -11.401875504760424 43.71937345181987 0 0 -1 I I #
point $-1 -70.384228034302794 -11.401875504760424 10.512639344790028 #
straight-curve $-1 -70.384228034302794 -8.4415014750686446 2.7221767919154165 0 -1 0 I I #
edge $-1 $408 -40.997196659904446 $511 -33.206734107029845 $503 $557 forward 7 unknown #
point $-1 -70.384228034302794 -22.364130395514152 2.7221767919154205 #
point $-1 -70.384228034302794 -11.401875504760424 2.7221767919154205 #
vertex $-1 $508 $558 #
straight-curve $-1 0 -22.364130395514152 10.512639344790028 1 0 0 I I #
vertex $-1 $415 $559 #
point $-1 -64.959980332500791 -20.171679417363407 5.9939624449996458 #
vertex $-1 $419 $560 #
point $-1 -64.959980332500791 -16.883002950137289 5.9939624449996458 #
vertex $-1 $423 $561 #
point $-1 -64.959980332500791 -13.594326482911171 5.9939624449996458 #
coedge $-1 $520 $429 $526 $562 reversed $300 $-1 #
coedge $-1 $429 $519 $432 $524 reversed $300 $-1 #
edge $-1 $522 -13.569443518968376 $437 -4.0199302341231782 $436 $563 forward 7 unknown #
vertex $-1 $562 $564 #
straight-curve $-1 -23.80825303640772 -22.364130395514152 106.64685038314688 -0.66913059716165679 0 0.74314483375859142 I I #
edge $-1 $433 62.751377223575624 $528 70.384228034302794 $432 $565 forward 7 unknown #
point $-1 62.751377223575624 -22.364130395514152 10.512639344790028 #
coedge $-1 $436 $435 $519 $562 forward $427 $-1 #
point $-1 70.384228034302794 -12.814617110668955 2.035499499589406 #
vertex $-1 $440 $566 #
straight-curve $-1 70.384228034302794 0 10.512639344790028 0 1 0 I I #
vertex $-1 $443 $567 #
point $-1 66.159223093761426 -20.454227738545114 5.2333664081487656 #
vertex $-1 $447 $568 #
point $-1 66.159223093761426 -17.589373753091554 5.2333664081487656 #
vertex $-1 $451 $569 #
point $-1 66.159223093761426 -14.724519767637993 5.2333664081487656 #
straight-curve $-1 -70.384228034302794 33.294766422843111 0 0 0 -1 I I #
point $-1 -70.384228034302794 -33.294766422843111 -10.512639344790028 #
straight-curve $-1 -70.384228034302794 0 -10.512639344790028 0 1 0 I I #
point $-1 -70.384228034302794 33.294766422843111 -10.512639344790028 #
coedge $-1 $473 $472 $542 $570 reversed $240 $-1 #
edge $-1 $543 -10.512639344790028 $477 -4.431433444806598 $474 $571 forward 7 unknown #
coedge $-1 $481 $475 $540 $570 forward $353 $-1 #
vertex $-1 $476 $572 #
straight-curve $-1 -70.384228034302794 0 10.512639344790028 0 -1 0 I I #
point $-1 -70.384228034302794 -33.294766422843111 4.431433444806598 #
vertex $-1 $484 $573 #
straight-curve $-1 70.384228034302794 -33.294766422843111 0 0 0 -1 I I #
straight-curve $-1 70.384228034302794 0 10.512639344790028 0 1 0 I I #
edge $-1 $500 -70.384228034302794 $551 70.384228034302794 $497 $574 forward 7 unknown #
straight-curve $-1 70.384228034302794 0 10.512639344790028 0 1 0 I I #
vertex $-1 $549 $575 #
straight-curve $-1 -70.384228034302794 0 10.512639344790028 0 -1 0 I I #
point $-1 70.384228034302794 22.364130395514152 10.512639344790028 #
straight-curve $-1 -70.384228034302794 33.294766422843111 0 0 0 -1 I I #
point $-1 70.384228034302794 33.294766422843111 10.512639344790028 #
straight-curve $-1 -70.384228034302794 0 10.512639344790028 0 -1 0 I I #
straight-curve $-1 -70.384228034302794 -22.364130395514152 43.71937345181987 0 0 1 I I #
point $-1 -70.384228034302794 -22.364130395514152 10.512639344790028 #
point $-1 -64.763159826468069 -20.171679417363407 4.593511914489901 #
point $-1 -64.763159826468069 -16.883002950137289 4.593511914489901 #
point $-1 -64.763159826468069 -13.594326482911171 4.593511914489901 #
edge $-1 $528 89.907026382138667 $522 98.384166227339293 $526 $576 forward 7 unknown #
straight-curve $-1 70.384228034302794 -8.7946868765457769 2.0354994995893989 0 1 0 I I #
point $-1 70.384228034302794 -22.364130395514152 2.035499499589406 #
straight-curve $-1 0 -22.364130395514152 10.512639344790028 1 0 0 I I #
point $-1 70.384228034302794 -22.364130395514152 10.512639344790028 #
point $-1 65.453085378301296 -20.454227738545114 5.2703735264472327 #
point $-1 65.453085378301296 -17.589373753091554 5.2703735264472327 #
point $-1 65.453085378301296 -14.724519767637993 5.2703735264472327 #
edge $-1 $543 -70.384228034302794 $546 70.384228034302794 $540 $577 forward 7 unknown #
straight-curve $-1 -70.384228034302794 -33.294766422843111 0 0 0 -1 I I #
point $-1 -70.384228034302794 -33.294766422843111 10.512639344790028 #
point $-1 70.384228034302794 -33.294766422843111 10.512639344790028 #
straight-curve $-1 0 33.294766422843111 10.512639344790028 -1 0 0 I I #
point $-1 -70.384228034302794 33.294766422843111 10.512639344790028 #
straight-curve $-1 70.384228034302794 -22.364130395514152 100.4196657269287 0 0 -1 I I #
straight-curve $-1 0 -33.294766422843111 10.512639344790028 1 0 0 I I #
End-of-ACIS-data 