500 0 5 0           
7 Unknown 11 ACIS 5.0 NT 24 Fri Mar 26 18:38:48 1999 
-1 9.9999999999999995e-007 1e-010 
body $-1 $5 $-1 $6 #
body $-1 $7 $-1 $8 #
body $-1 $9 $-1 $10 #
body $-1 $11 $-1 $12 #
body $-1 $13 $-1 $14 #
lump $-1 $-1 $15 $0 #
transform $-1 1 0 0 0 1 0 0 0 1 46.362498855555899 27.12744557964249 10.354824231311333 1 rotate no_reflect no_shear #
lump $-1 $-1 $16 $1 #
transform $-1 1 0 0 0 1 0 0 0 1 46.362498855555899 27.12744557964249 10.354824231311333 1 rotate no_reflect no_shear #
lump $-1 $-1 $17 $2 #
transform $-1 1 0 0 0 1 0 0 0 1 46.362498855555899 27.12744557964249 10.354824231311333 1 rotate no_reflect no_shear #
lump $-1 $-1 $18 $3 #
transform $-1 1 0 0 0 1 0 0 0 1 46.362498855555899 27.12744557964249 10.354824231311333 1 rotate no_reflect no_shear #
lump $-1 $-1 $19 $4 #
transform $-1 1 0 0 0 1 0 0 0 1 46.362498855555899 27.12744557964249 10.354824231311333 1 rotate no_reflect no_shear #
shell $-1 $-1 $-1 $20 $-1 $5 #
shell $-1 $-1 $-1 $21 $-1 $7 #
shell $-1 $-1 $-1 $22 $-1 $9 #
shell $-1 $-1 $-1 $23 $-1 $11 #
shell $-1 $-1 $-1 $24 $-1 $13 #
face $-1 $25 $26 $15 $-1 $27 forward single #
face $-1 $28 $29 $16 $-1 $30 reversed single #
face $-1 $31 $32 $17 $-1 $33 reversed single #
face $-1 $34 $35 $18 $-1 $36 forward single #
face $-1 $37 $38 $19 $-1 $39 reversed single #
face $-1 $40 $41 $15 $-1 $42 reversed single #
loop $-1 $-1 $43 $20 #
plane-surface $-1 0 0 10.354824231311333 0 0 1 1 0 0 forward_v I I I I #
face $-1 $44 $45 $16 $-1 $46 reversed single #
loop $-1 $-1 $47 $21 #
plane-surface $-1 -53.135572099301704 0 5.3932179406491807 0 0 1 1 0 0 forward_v I I I I #
face $-1 $48 $49 $17 $-1 $50 reversed single #
loop $-1 $-1 $51 $22 #
plane-surface $-1 53.135572099301712 0 5.3932179406491807 0 0 1 1 0 0 forward_v I I I I #
face $-1 $52 $53 $18 $-1 $54 forward single #
loop $-1 $-1 $55 $23 #
plane-surface $-1 32.816352368064273 -108.22655662926795 50.858793439894654 -1 0 0 0 -0.87461971476443456 0.48480960649040278 forward_v I I I I #
face $-1 $56 $57 $19 $-1 $58 reversed single #
loop $-1 $59 $60 $24 #
cone-surface $-1 29.220043895562 -25.370195519412245 7.8394146660984925 0 0.87461971476443456 -0.48480960649040278 1 0 0 1 I I 0 1 1 forward I I I I #
face $-1 $61 $62 $15 $-1 $63 reversed single #
loop $-1 $-1 $64 $25 #
plane-surface $-1 0 0 -10.354824231311333 0 0 1 1 0 0 forward_v I I I I #
coedge $-1 $65 $66 $67 $68 forward $26 $-1 #
face $-1 $69 $70 $16 $-1 $71 forward single #
loop $-1 $-1 $72 $28 #
plane-surface $-1 -59.90864534304751 0 7.8740210859802566 1 0 0 0 0 -1 forward_v I I I I #
coedge $-1 $73 $74 $75 $76 reversed $29 $-1 #
face $-1 $77 $78 $17 $-1 $79 reversed single #
loop $-1 $-1 $80 $31 #
plane-surface $-1 59.908645343047517 0 7.8740210859802566 -1 0 0 0 0 1 forward_v I I I I #
coedge $-1 $81 $82 $83 $84 forward $32 $-1 #
face $-1 $85 $86 $18 $-1 $87 forward single #
loop $-1 $-1 $88 $34 #
plane-surface $-1 29.220043895562 -27.127445579642497 5.9048237877470484 0 -0.87461971476443456 0.48480960649040278 1 0 0 forward_v I I I I #
coedge $-1 $89 $90 $91 $92 reversed $35 $-1 #
face $-1 $93 $94 $19 $-1 $95 forward single #
loop $-1 $96 $97 $37 #
cone-surface $-1 29.220043895562 -24.408973318471073 7.3066005194225951 0 0.87461971476443456 -0.48480960649040278 0.5 0 0 1 I I -0.70710678118654746 0.70710678118654746 0.5 forward I I I I #
loop $-1 $-1 $98 $24 #
coedge $-1 $60 $60 $99 $100 reversed $38 $-1 #
face $-1 $101 $102 $15 $-1 $103 reversed single #
loop $-1 $-1 $104 $40 #
plane-surface $-1 0 -27.12744557964249 0 0 1 0 0 0 1 forward_v I I I I #
coedge $-1 $105 $106 $107 $108 forward $41 $-1 #
coedge $-1 $109 $43 $110 $111 forward $26 $-1 #
coedge $-1 $43 $109 $112 $113 forward $26 $-1 #
coedge $-1 $114 $115 $43 $68 reversed $116 $-1 #
edge $-1 $117 -27.12744557964249 $118 27.12744557964249 $67 $119 forward 7 unknown #
face $-1 $120 $121 $16 $-1 $122 reversed single #
loop $-1 $-1 $123 $44 #
plane-surface $-1 0 0 10.354824231311333 0 0 1 1 0 0 forward_v I I I I #
coedge $-1 $124 $125 $126 $127 forward $45 $-1 #
coedge $-1 $128 $47 $129 $130 forward $29 $-1 #
coedge $-1 $47 $128 $131 $132 forward $29 $-1 #
coedge $-1 $133 $134 $47 $76 forward $135 $-1 #
edge $-1 $136 -27.12744557964249 $137 27.12744557964249 $75 $138 forward 7 unknown #
face $-1 $139 $140 $17 $-1 $141 reversed single #
loop $-1 $-1 $142 $48 #
plane-surface $-1 -53.135572099301704 0 5.3932179406491807 0 0 1 1 0 0 forward_v I I I I #
coedge $-1 $83 $143 $144 $145 forward $49 $-1 #
coedge $-1 $146 $51 $147 $148 forward $32 $-1 #
coedge $-1 $51 $146 $149 $150 forward $32 $-1 #
coedge $-1 $151 $80 $51 $84 reversed $49 $-1 #
edge $-1 $152 -27.12744557964249 $153 27.12744557964249 $83 $154 forward 7 unknown #
face $-1 $155 $156 $18 $-1 $157 forward single #
loop $-1 $-1 $158 $52 #
plane-surface $-1 25.623735423059728 -108.22655662926795 50.858793439894654 1 0 0 0 0.87461971476443456 -0.48480960649040278 forward_v I I I I #
coedge $-1 $159 $160 $161 $162 reversed $53 $-1 #
coedge $-1 $90 $55 $160 $163 forward $35 $-1 #
coedge $-1 $55 $89 $164 $165 reversed $35 $-1 #
coedge $-1 $166 $161 $55 $92 forward $156 $-1 #
edge $-1 $167 -29.452508168334049 $168 -26.985832734991483 $91 $169 forward 7 unknown #
face $-1 $170 $171 $19 $-1 $172 forward single #
loop $-1 $-1 $173 $56 #
plane-surface $-1 32.816352368064273 -108.22655662926795 50.858793439894654 -1 0 0 0 -0.87461971476443456 0.48480960649040278 forward_v I I I I #
loop $-1 $-1 $174 $37 #
coedge $-1 $97 $97 $98 $175 forward $57 $-1 #
coedge $-1 $98 $98 $97 $175 reversed $59 $-1 #
coedge $-1 $99 $99 $60 $100 forward $171 $-1 #
edge $-1 $176 -3.3750601679248526e-016 $176 6.2831853071796004 $99 $177 forward 7 unknown #
face $-1 $178 $179 $15 $-1 $180 reversed single #
loop $-1 $-1 $181 $61 #
plane-surface $-1 -46.362498855555899 0 0 1 0 0 0 0 -1 forward_v I I I I #
coedge $-1 $182 $112 $183 $184 forward $62 $-1 #
coedge $-1 $185 $64 $182 $186 forward $41 $-1 #
coedge $-1 $64 $185 $187 $188 forward $41 $-1 #
coedge $-1 $115 $114 $64 $108 reversed $116 $-1 #
edge $-1 $189 -27.12744557964249 $190 27.12744557964249 $107 $191 forward 7 unknown #
coedge $-1 $66 $65 $192 $193 forward $26 $-1 #
coedge $-1 $194 $195 $65 $111 reversed $179 $-1 #
edge $-1 $118 -46.362498855555899 $196 46.362498855555899 $110 $197 forward 7 unknown #
coedge $-1 $104 $198 $66 $113 reversed $62 $-1 #
edge $-1 $199 -46.362498855555899 $117 46.362498855555899 $112 $200 forward 7 unknown #
coedge $-1 $107 $67 $198 $201 forward $116 $-1 #
coedge $-1 $67 $107 $194 $202 reversed $116 $-1 #
loop $-1 $-1 $114 $178 #
vertex $-1 $68 $203 #
vertex $-1 $68 $204 #
straight-curve $-1 46.362498855555899 0 10.354824231311333 0 1 0 I I #
face $-1 $205 $206 $16 $-1 $207 reversed single #
loop $-1 $-1 $208 $69 #
plane-surface $-1 0 0 -10.354824231311333 0 0 1 1 0 0 forward_v I I I I #
coedge $-1 $209 $210 $211 $212 forward $70 $-1 #
coedge $-1 $213 $72 $128 $214 reversed $45 $-1 #
coedge $-1 $72 $213 $215 $216 reversed $45 $-1 #
coedge $-1 $217 $131 $72 $127 reversed $218 $-1 #
edge $-1 $219 -2.4808031453310768 $220 2.4808031453310759 $126 $221 forward 7 unknown #
coedge $-1 $74 $73 $124 $214 forward $29 $-1 #
coedge $-1 $222 $223 $73 $130 reversed $206 $-1 #
edge $-1 $136 -6.7730732437458059 $224 6.7730732437458059 $129 $225 forward 7 unknown #
coedge $-1 $126 $226 $74 $132 reversed $218 $-1 #
edge $-1 $220 -6.7730732437458059 $137 6.7730732437458059 $131 $227 forward 7 unknown #
coedge $-1 $228 $75 $226 $229 forward $135 $-1 #
coedge $-1 $75 $228 $222 $230 reversed $135 $-1 #
loop $-1 $-1 $75 $205 #
vertex $-1 $230 $231 #
vertex $-1 $229 $232 #
straight-curve $-1 -46.362498855555899 0 5.3932179406491807 0 1 0 I I #
face $-1 $233 $234 $17 $-1 $235 forward single #
loop $-1 $-1 $236 $77 #
plane-surface $-1 -59.90864534304751 0 7.8740210859802566 1 0 0 0 0 -1 forward_v I I I I #
coedge $-1 $237 $238 $239 $240 reversed $78 $-1 #
coedge $-1 $80 $151 $241 $242 reversed $49 $-1 #
coedge $-1 $243 $147 $80 $145 reversed $244 $-1 #
edge $-1 $245 -2.4808031453310768 $153 2.4808031453310759 $80 $246 forward 7 unknown #
coedge $-1 $82 $81 $247 $248 reversed $32 $-1 #
coedge $-1 $144 $249 $81 $148 reversed $244 $-1 #
edge $-1 $153 -6.7730732437458059 $250 6.7730732437458059 $147 $251 forward 7 unknown #
coedge $-1 $252 $253 $82 $150 reversed $254 $-1 #
edge $-1 $255 -6.7730732437458059 $152 6.7730732437458059 $149 $256 forward 7 unknown #
coedge $-1 $143 $83 $253 $257 reversed $49 $-1 #
vertex $-1 $84 $258 #
vertex $-1 $145 $259 #
straight-curve $-1 59.908645343047517 0 5.3932179406491807 0 -1 0 I I #
face $-1 $260 $261 $18 $-1 $262 reversed single #
loop $-1 $-1 $263 $85 #
plane-surface $-1 0 0 10.354824231311333 0 0 1 1 0 0 forward_v I I I I #
coedge $-1 $264 $265 $263 $266 reversed $86 $-1 #
coedge $-1 $267 $88 $265 $268 reversed $53 $-1 #
coedge $-1 $88 $267 $89 $163 reversed $53 $-1 #
coedge $-1 $91 $263 $88 $162 forward $156 $-1 #
edge $-1 $269 11.013713475278728 $167 18.206330420283273 $161 $270 forward 7 unknown #
edge $-1 $167 -5.0879260648301585 $271 -1.4320236426557382e-014 $89 $272 forward 7 unknown #
coedge $-1 $273 $274 $90 $165 forward $275 $-1 #
edge $-1 $168 15.074572488635994 $271 19.524572932200265 $164 $276 forward 7 unknown #
coedge $-1 $277 $91 $274 $278 forward $156 $-1 #
vertex $-1 $162 $279 #
vertex $-1 $278 $280 #
straight-curve $-1 32.816352368064273 -54.113278314633973 10.354824231311333 0 -1 0 I I #
face $-1 $281 $282 $19 $-1 $283 forward single #
loop $-1 $284 $99 $93 #
plane-surface $-1 29.220043895562 -27.127445579642497 5.9048237877470484 0 -0.87461971476443456 0.48480960649040278 1 0 0 forward_v I I I I #
coedge $-1 $285 $286 $287 $288 reversed $94 $-1 #
coedge $-1 $174 $174 $-1 $289 forward $96 $-1 #
edge $-1 $290 0 $290 6.2831853071796004 $97 $291 forward 7 unknown #
vertex $-1 $100 $292 #
ellipse-curve $-1 29.220043895562 -25.894107862971211 8.1298240095291927 0 0.87461971476443456 -0.48480960649040278 1 0 0 1 I I #
face $-1 $-1 $116 $15 $-1 $293 reversed single #
loop $-1 $-1 $194 $101 #
plane-surface $-1 0 27.12744557964249 0 0 -1 0 0 0 -1 forward_v I I I I #
coedge $-1 $294 $192 $195 $295 forward $102 $-1 #
coedge $-1 $198 $104 $105 $186 reversed $62 $-1 #
coedge $-1 $192 $294 $104 $184 reversed $102 $-1 #
edge $-1 $199 -10.354824231311333 $296 10.354824231311333 $183 $297 forward 7 unknown #
coedge $-1 $106 $105 $294 $298 forward $41 $-1 #
edge $-1 $190 -46.362498855555899 $296 46.362498855555899 $182 $299 forward 7 unknown #
coedge $-1 $195 $194 $106 $188 reversed $179 $-1 #
edge $-1 $300 -46.362498855555899 $189 46.362498855555899 $187 $301 forward 7 unknown #
vertex $-1 $108 $302 #
vertex $-1 $201 $303 #
straight-curve $-1 46.362498855555899 0 -10.354824231311333 0 -1 0 I I #
coedge $-1 $181 $183 $109 $193 reversed $102 $-1 #
edge $-1 $196 -27.12744557964249 $199 27.12744557964249 $192 $304 forward 7 unknown #
coedge $-1 $187 $110 $115 $202 forward $179 $-1 #
coedge $-1 $110 $187 $181 $295 reversed $179 $-1 #
vertex $-1 $111 $305 #
straight-curve $-1 0 27.12744557964249 10.354824231311333 -1 0 0 I I #
coedge $-1 $112 $182 $114 $201 reversed $62 $-1 #
vertex $-1 $193 $306 #
straight-curve $-1 0 -27.12744557964249 10.354824231311333 1 0 0 I I #
edge $-1 $117 -10.354824231311333 $190 10.354824231311333 $114 $307 forward 7 unknown #
edge $-1 $118 -10.354824231311333 $189 10.354824231311333 $115 $308 forward 7 unknown #
point $-1 46.362498855555899 -27.12744557964249 10.354824231311333 #
point $-1 46.362498855555899 27.12744557964249 10.354824231311333 #
face $-1 $309 $135 $16 $-1 $310 reversed single #
loop $-1 $-1 $222 $120 #
plane-surface $-1 0 -27.12744557964249 0 0 1 0 0 0 1 forward_v I I I I #
coedge $-1 $311 $312 $313 $314 forward $121 $-1 #
coedge $-1 $215 $123 $217 $315 forward $70 $-1 #
coedge $-1 $123 $215 $316 $317 forward $70 $-1 #
coedge $-1 $318 $319 $123 $212 reversed $320 $-1 #
edge $-1 $321 -27.12744557964249 $322 27.12744557964249 $211 $323 forward 7 unknown #
coedge $-1 $125 $124 $223 $324 reversed $45 $-1 #
edge $-1 $224 -27.12744557964249 $220 27.12744557964249 $124 $325 forward 7 unknown #
coedge $-1 $210 $209 $125 $216 forward $70 $-1 #
edge $-1 $219 -27.12744557964249 $326 27.12744557964249 $125 $327 forward 7 unknown #
coedge $-1 $328 $126 $209 $315 reversed $218 $-1 #
loop $-1 $-1 $328 $309 #
vertex $-1 $315 $329 #
vertex $-1 $132 $330 #
straight-curve $-1 -59.90864534304751 27.12744557964249 7.8740210859802566 0 0 -1 I I #
coedge $-1 $331 $129 $134 $230 forward $206 $-1 #
coedge $-1 $129 $316 $213 $324 forward $206 $-1 #
vertex $-1 $214 $332 #
straight-curve $-1 -53.135572099301704 -27.12744557964249 5.3932179406491807 -1 0 0 I I #
coedge $-1 $131 $333 $133 $229 reversed $218 $-1 #
straight-curve $-1 -53.135572099301704 27.12744557964249 5.3932179406491807 1 0 0 I I #
coedge $-1 $134 $133 $334 $335 reversed $135 $-1 #
edge $-1 $137 -5.3932179406491807 $336 10.354824231311333 $226 $337 forward 7 unknown #
edge $-1 $136 -5.3932179406491807 $338 10.354824231311333 $134 $339 forward 7 unknown #
point $-1 -46.362498855555899 -27.12744557964249 5.3932179406491807 #
point $-1 -46.362498855555899 27.12744557964249 5.3932179406491807 #
face $-1 $340 $341 $17 $-1 $342 reversed single #
loop $-1 $-1 $343 $139 #
plane-surface $-1 0 0 10.354824231311333 0 0 1 1 0 0 forward_v I I I I #
coedge $-1 $344 $345 $346 $347 forward $140 $-1 #
coedge $-1 $348 $142 $349 $350 forward $78 $-1 #
coedge $-1 $142 $348 $351 $352 forward $78 $-1 #
coedge $-1 $353 $354 $142 $240 forward $355 $-1 #
edge $-1 $356 -27.12744557964249 $357 27.12744557964249 $239 $358 forward 7 unknown #
coedge $-1 $343 $359 $143 $242 forward $234 $-1 #
edge $-1 $245 -27.12744557964249 $360 27.12744557964249 $143 $361 forward 7 unknown #
coedge $-1 $362 $144 $359 $363 reversed $244 $-1 #
loop $-1 $-1 $364 $340 #
vertex $-1 $242 $365 #
straight-curve $-1 59.908645343047517 -27.12744557964249 7.8740210859802566 0 0 -1 I I #
coedge $-1 $366 $367 $146 $248 forward $368 $-1 #
edge $-1 $255 -27.12744557964249 $250 27.12744557964249 $247 $369 forward 7 unknown #
coedge $-1 $147 $370 $366 $371 reversed $244 $-1 #
vertex $-1 $371 $372 #
straight-curve $-1 53.135572099301712 -27.12744557964249 5.3932179406491807 -1 0 0 I I #
coedge $-1 $373 $149 $367 $374 forward $254 $-1 #
coedge $-1 $149 $375 $151 $257 forward $254 $-1 #
loop $-1 $-1 $252 $376 #
vertex $-1 $374 $377 #
straight-curve $-1 53.135572099301712 27.12744557964249 5.3932179406491807 1 0 0 I I #
edge $-1 $360 -2.4808031453310768 $152 2.4808031453310759 $151 $378 forward 7 unknown #
point $-1 59.908645343047517 27.12744557964249 5.3932179406491807 #
point $-1 59.908645343047517 -27.12744557964249 5.3932179406491807 #
face $-1 $379 $380 $18 $-1 $381 reversed single #
loop $-1 $-1 $382 $155 #
plane-surface $-1 53.135572099301712 0 5.3932179406491807 0 0 1 1 0 0 forward_v I I I I #
coedge $-1 $161 $383 $158 $266 forward $156 $-1 #
coedge $-1 $265 $158 $384 $385 reversed $86 $-1 #
coedge $-1 $158 $264 $159 $268 forward $86 $-1 #
edge $-1 $386 26.985832734991483 $269 29.452508168334049 $263 $387 forward 7 unknown #
coedge $-1 $160 $159 $273 $388 reversed $53 $-1 #
edge $-1 $389 1.4320236426557382e-014 $269 5.0879260648301585 $265 $390 forward 7 unknown #
vertex $-1 $162 $391 #
straight-curve $-1 14.610021947781 -24.660770146299924 10.354824231311333 1 0 0 I I #
vertex $-1 $388 $392 #
straight-curve $-1 32.816352368064273 -27.127445579642497 5.9048237877470484 0 -0.48480960649040278 -0.87461971476443456 I I #
coedge $-1 $384 $164 $267 $388 forward $275 $-1 #
coedge $-1 $164 $393 $166 $278 reversed $275 $-1 #
loop $-1 $-1 $384 $394 #
straight-curve $-1 32.816352368064273 -27.12744557964249 25.429396719947327 0 0 -1 I I #
coedge $-1 $395 $166 $396 $397 forward $156 $-1 #
edge $-1 $168 -20.319219731237439 $398 6.7730732437458059 $274 $399 forward 7 unknown #
point $-1 32.816352368064273 -24.660770146299924 10.354824231311333 #
point $-1 32.816352368064273 -27.12744557964249 10.354824231311333 #
face $-1 $400 $401 $19 $-1 $402 forward single #
loop $-1 $-1 $403 $170 #
plane-surface $-1 25.623735423059728 -108.22655662926795 50.858793439894654 1 0 0 0 0.87461971476443456 -0.48480960649040278 forward_v I I I I #
loop $-1 $-1 $404 $93 #
coedge $-1 $286 $173 $405 $406 forward $94 $-1 #
coedge $-1 $173 $285 $407 $408 reversed $94 $-1 #
coedge $-1 $409 $410 $173 $288 forward $401 $-1 #
edge $-1 $411 -29.452508168334049 $412 -26.985832734991483 $287 $413 forward 7 unknown #
edge $-1 $414 1 $414 0 $174 $-1 forward 7 unknown #
vertex $-1 $175 $415 #
ellipse-curve $-1 29.220043895562 -24.846283175853291 7.5490053226677967 0 -0.87461971476443456 0.48480960649040278 1 0 0 1 I I #
point $-1 30.220043895562 -25.894107862971204 8.1298240095291892 #
plane-surface $-1 46.362498855555899 0 0 -1 0 0 0 0 1 forward_v I I I I #
coedge $-1 $183 $181 $185 $298 reversed $102 $-1 #
edge $-1 $196 -10.354824231311333 $300 10.354824231311333 $195 $416 forward 7 unknown #
vertex $-1 $298 $417 #
straight-curve $-1 -46.362498855555899 -27.12744557964249 0 0 0 -1 I I #
edge $-1 $296 -27.12744557964249 $300 27.12744557964249 $294 $418 forward 7 unknown #
straight-curve $-1 0 -27.12744557964249 -10.354824231311333 -1 0 0 I I #
vertex $-1 $188 $419 #
straight-curve $-1 0 27.12744557964249 -10.354824231311333 1 0 0 I I #
point $-1 46.362498855555899 27.12744557964249 -10.354824231311333 #
point $-1 46.362498855555899 -27.12744557964249 -10.354824231311333 #
straight-curve $-1 -46.362498855555899 0 10.354824231311333 0 -1 0 I I #
point $-1 -46.362498855555899 27.12744557964249 10.354824231311333 #
point $-1 -46.362498855555899 -27.12744557964249 10.354824231311333 #
straight-curve $-1 46.362498855555899 -27.12744557964249 0 0 0 -1 I I #
straight-curve $-1 46.362498855555899 27.12744557964249 0 0 0 -1 I I #
face $-1 $420 $218 $16 $-1 $421 reversed single #
plane-surface $-1 -46.362498855555899 0 0 1 0 0 0 0 -1 forward_v I I I I #
coedge $-1 $334 $208 $331 $422 forward $121 $-1 #
coedge $-1 $208 $334 $333 $423 forward $121 $-1 #
coedge $-1 $319 $318 $208 $314 reversed $320 $-1 #
edge $-1 $424 -27.12744557964249 $425 27.12744557964249 $313 $426 forward 7 unknown #
edge $-1 $322 -46.362498855555899 $219 59.90864534304751 $217 $427 forward 7 unknown #
coedge $-1 $223 $428 $210 $317 reversed $206 $-1 #
edge $-1 $326 -59.90864534304751 $321 46.362498855555899 $316 $429 forward 7 unknown #
coedge $-1 $313 $211 $428 $430 forward $320 $-1 #
coedge $-1 $211 $313 $328 $431 reversed $320 $-1 #
loop $-1 $-1 $318 $420 #
vertex $-1 $212 $432 #
vertex $-1 $212 $433 #
straight-curve $-1 46.362498855555899 0 10.354824231311333 0 1 0 I I #
edge $-1 $326 -2.4808031453310768 $224 2.4808031453310759 $213 $434 forward 7 unknown #
straight-curve $-1 -59.90864534304751 0 5.3932179406491807 0 1 0 I I #
vertex $-1 $216 $435 #
straight-curve $-1 -59.90864534304751 0 10.354824231311333 0 -1 0 I I #
coedge $-1 $333 $217 $319 $431 forward $218 $-1 #
point $-1 -59.90864534304751 27.12744557964249 10.354824231311333 #
point $-1 -59.90864534304751 27.12744557964249 5.3932179406491807 #
coedge $-1 $428 $222 $311 $422 reversed $206 $-1 #
point $-1 -59.90864534304751 -27.12744557964249 5.3932179406491807 #
coedge $-1 $226 $328 $312 $423 reversed $218 $-1 #
coedge $-1 $312 $311 $228 $335 forward $121 $-1 #
edge $-1 $338 -27.12744557964249 $336 27.12744557964249 $228 $436 forward 7 unknown #
vertex $-1 $423 $437 #
straight-curve $-1 -46.362498855555899 27.12744557964249 0 0 0 -1 I I #
vertex $-1 $335 $438 #
straight-curve $-1 -46.362498855555899 -27.12744557964249 0 0 0 -1 I I #
face $-1 $439 $244 $17 $-1 $440 reversed single #
loop $-1 $-1 $441 $233 #
plane-surface $-1 0 0 -10.354824231311333 0 0 1 1 0 0 forward_v I I I I #
coedge $-1 $442 $241 $375 $443 forward $234 $-1 #
coedge $-1 $444 $236 $348 $445 reversed $140 $-1 #
coedge $-1 $236 $444 $442 $446 reversed $140 $-1 #
coedge $-1 $375 $351 $236 $347 reversed $254 $-1 #
edge $-1 $447 -2.4808031453310768 $448 2.4808031453310759 $346 $449 forward 7 unknown #
coedge $-1 $238 $237 $344 $445 forward $78 $-1 #
coedge $-1 $364 $362 $237 $350 reversed $244 $-1 #
edge $-1 $356 -6.7730732437458059 $450 6.7730732437458059 $349 $451 forward 7 unknown #
coedge $-1 $346 $452 $238 $352 reversed $254 $-1 #
edge $-1 $448 -6.7730732437458059 $357 6.7730732437458059 $351 $453 forward 7 unknown #
coedge $-1 $454 $239 $452 $455 forward $355 $-1 #
coedge $-1 $239 $454 $364 $456 reversed $355 $-1 #
loop $-1 $-1 $239 $439 #
vertex $-1 $456 $457 #
vertex $-1 $455 $458 #
straight-curve $-1 -46.362498855555899 0 5.3932179406491807 0 1 0 I I #
coedge $-1 $241 $442 $243 $363 forward $234 $-1 #
vertex $-1 $242 $459 #
straight-curve $-1 59.908645343047517 0 10.354824231311333 0 1 0 I I #
coedge $-1 $349 $243 $444 $460 forward $244 $-1 #
edge $-1 $461 -113.04421744234922 $245 6.7730732437458059 $243 $462 forward 7 unknown #
coedge $-1 $370 $349 $354 $456 forward $244 $-1 #
point $-1 59.908645343047517 -27.12744557964249 10.354824231311333 #
coedge $-1 $463 $247 $249 $371 forward $368 $-1 #
coedge $-1 $247 $463 $252 $374 reversed $368 $-1 #
loop $-1 $-1 $247 $464 #
straight-curve $-1 46.362498855555899 0 5.3932179406491807 0 -1 0 I I #
coedge $-1 $249 $364 $465 $466 reversed $244 $-1 #
edge $-1 $250 -5.3932179406491807 $467 10.354824231311333 $366 $468 forward 7 unknown #
point $-1 46.362498855555906 -27.12744557964249 5.3932179406491807 #
coedge $-1 $452 $252 $469 $470 reversed $254 $-1 #
edge $-1 $255 -5.3932179406491807 $471 10.354824231311333 $367 $472 forward 7 unknown #
coedge $-1 $253 $346 $343 $443 reversed $254 $-1 #
face $-1 $464 $254 $17 $-1 $473 reversed single #
point $-1 46.362498855555906 27.12744557964249 5.3932179406491807 #
straight-curve $-1 59.908645343047517 27.12744557964249 7.8740210859802566 0 0 -1 I I #
face $-1 $474 $475 $18 $-1 $476 reversed single #
loop $-1 $-1 $477 $260 #
plane-surface $-1 59.908645343047517 0 7.8740210859802566 -1 0 0 0 0 1 forward_v I I I I #
coedge $-1 $478 $479 $480 $481 forward $261 $-1 #
coedge $-1 $263 $482 $483 $484 forward $156 $-1 #
coedge $-1 $483 $273 $264 $385 forward $275 $-1 #
edge $-1 $389 -19.524572932200265 $386 -15.074572488635994 $384 $485 forward 7 unknown #
vertex $-1 $385 $486 #
straight-curve $-1 25.623735423059728 -54.113278314633973 10.354824231311333 0 1 0 I I #
edge $-1 $271 -18.206330420283273 $389 -11.013713475278728 $273 $487 forward 7 unknown #
vertex $-1 $388 $488 #
straight-curve $-1 25.623735423059728 -27.127445579642497 5.9048237877470484 0 0.48480960649040278 0.87461971476443456 I I #
point $-1 25.623735423059728 -24.660770146299924 10.354824231311333 #
point $-1 32.816352368064273 -27.12744557964249 5.9048237877470608 #
coedge $-1 $274 $489 $477 $490 reversed $275 $-1 #
face $-1 $491 $275 $18 $-1 $492 reversed single #
coedge $-1 $482 $277 $493 $494 forward $156 $-1 #
coedge $-1 $477 $495 $277 $397 reversed $380 $-1 #
edge $-1 $398 -27.12744557964249 $496 27.12744557964249 $396 $497 forward 7 unknown #
vertex $-1 $397 $498 #
straight-curve $-1 53.135572099301712 -27.12744557964249 10.354824231311333 1 0 0 I I #
face $-1 $499 $500 $19 $-1 $501 reversed single #
loop $-1 $-1 $502 $281 #
plane-surface $-1 0 0 10.354824231311333 0 0 1 1 0 0 forward_v I I I I #
coedge $-1 $503 $504 $502 $505 reversed $282 $-1 #
coedge $-1 $506 $405 $410 $507 reversed $284 $-1 #
coedge $-1 $404 $508 $285 $406 reversed $284 $-1 #
edge $-1 $411 -5.0879260648301585 $509 -1.4320236426557382e-014 $285 $510 forward 7 unknown #
coedge $-1 $511 $512 $286 $408 forward $513 $-1 #
edge $-1 $412 15.074572488635994 $509 19.524572932200265 $407 $514 forward 7 unknown #
coedge $-1 $515 $287 $512 $516 forward $401 $-1 #
coedge $-1 $287 $502 $404 $507 forward $401 $-1 #
vertex $-1 $507 $517 #
vertex $-1 $516 $518 #
straight-curve $-1 32.816352368064273 -54.113278314633973 10.354824231311333 0 -1 0 I I #
vertex $-1 $289 $519 #
point $-1 30.220043895562 -24.846283175853291 7.5490053226677967 #
straight-curve $-1 -46.362498855555899 27.12744557964249 0 0 0 -1 I I #
point $-1 -46.362498855555899 -27.12744557964249 -10.354824231311333 #
straight-curve $-1 -46.362498855555899 0 -10.354824231311333 0 1 0 I I #
point $-1 -46.362498855555899 27.12744557964249 -10.354824231311333 #
face $-1 $-1 $320 $16 $-1 $520 reversed single #
plane-surface $-1 0 27.12744557964249 0 0 -1 0 0 0 -1 forward_v I I I I #
edge $-1 $425 -46.362498855555899 $338 46.362498855555899 $331 $521 forward 7 unknown #
edge $-1 $336 -46.362498855555899 $424 46.362498855555899 $333 $522 forward 7 unknown #
vertex $-1 $314 $523 #
vertex $-1 $430 $524 #
straight-curve $-1 46.362498855555899 0 -10.354824231311333 0 -1 0 I I #
straight-curve $-1 0 27.12744557964249 10.354824231311333 -1 0 0 I I #
coedge $-1 $316 $331 $318 $430 reversed $206 $-1 #
straight-curve $-1 0 -27.12744557964249 10.354824231311333 1 0 0 I I #
edge $-1 $321 -10.354824231311333 $425 10.354824231311333 $318 $525 forward 7 unknown #
edge $-1 $322 -10.354824231311333 $424 10.354824231311333 $319 $526 forward 7 unknown #
point $-1 46.362498855555899 -27.12744557964249 10.354824231311333 #
point $-1 46.362498855555899 27.12744557964249 10.354824231311333 #
straight-curve $-1 -59.90864534304751 -27.12744557964249 7.8740210859802566 0 0 -1 I I #
point $-1 -59.90864534304751 -27.12744557964249 10.354824231311333 #
straight-curve $-1 -46.362498855555899 0 -10.354824231311333 0 1 0 I I #
point $-1 -46.362498855555899 27.12744557964249 -10.354824231311333 #
point $-1 -46.362498855555899 -27.12744557964249 -10.354824231311333 #
face $-1 $376 $355 $17 $-1 $527 reversed single #
plane-surface $-1 0 -27.12744557964249 0 0 1 0 0 0 1 forward_v I I I I #
coedge $-1 $465 $469 $463 $528 forward $341 $-1 #
coedge $-1 $359 $343 $345 $446 forward $234 $-1 #
edge $-1 $360 -59.908645343047517 $447 59.90864534304751 $375 $529 forward 7 unknown #
coedge $-1 $345 $344 $362 $460 reversed $140 $-1 #
edge $-1 $450 -27.12744557964249 $448 27.12744557964249 $344 $530 forward 7 unknown #
edge $-1 $447 -27.12744557964249 $461 27.12744557964249 $345 $531 forward 7 unknown #
vertex $-1 $443 $532 #
vertex $-1 $352 $533 #
straight-curve $-1 -59.90864534304751 27.12744557964249 7.8740210859802566 0 0 -1 I I #
vertex $-1 $445 $534 #
straight-curve $-1 -53.135572099301704 -27.12744557964249 5.3932179406491807 -1 0 0 I I #
coedge $-1 $351 $373 $353 $455 reversed $254 $-1 #
straight-curve $-1 -53.135572099301704 27.12744557964249 5.3932179406491807 1 0 0 I I #
coedge $-1 $354 $353 $535 $536 reversed $355 $-1 #
edge $-1 $357 -5.3932179406491807 $537 10.354824231311333 $452 $538 forward 7 unknown #
edge $-1 $356 -5.3932179406491807 $539 10.354824231311333 $354 $540 forward 7 unknown #
point $-1 -46.362498855555899 -27.12744557964249 5.3932179406491807 #
point $-1 -46.362498855555899 27.12744557964249 5.3932179406491807 #
point $-1 59.908645343047517 27.12744557964249 10.354824231311333 #
edge $-1 $461 -2.4808031453310768 $450 2.4808031453310759 $444 $541 forward 7 unknown #
vertex $-1 $446 $542 #
straight-curve $-1 53.135572099301712 -27.12744557964249 10.354824231311333 1 0 0 I I #
coedge $-1 $367 $366 $441 $528 reversed $368 $-1 #
face $-1 $-1 $368 $17 $-1 $543 reversed single #
coedge $-1 $535 $441 $370 $466 forward $341 $-1 #
edge $-1 $467 -46.362498855555899 $539 46.362498855555899 $370 $544 forward 7 unknown #
vertex $-1 $371 $545 #
straight-curve $-1 46.362498855555899 -27.12744557964249 0 0 0 -1 I I #
coedge $-1 $441 $535 $373 $470 forward $341 $-1 #
edge $-1 $537 -46.362498855555899 $471 46.362498855555899 $373 $546 forward 7 unknown #
vertex $-1 $528 $547 #
straight-curve $-1 46.362498855555899 27.12744557964249 0 0 0 -1 I I #
plane-surface $-1 0 27.12744557964249 0 0 -1 0 0 0 -1 forward_v I I I I #
face $-1 $548 $549 $18 $-1 $550 reversed single #
loop $-1 $-1 $551 $379 #
plane-surface $-1 -53.135572099301704 0 5.3932179406491807 0 0 1 1 0 0 forward_v I I I I #
coedge $-1 $480 $396 $393 $490 forward $380 $-1 #
coedge $-1 $552 $382 $489 $553 forward $261 $-1 #
coedge $-1 $382 $552 $554 $555 forward $261 $-1 #
coedge $-1 $495 $477 $382 $481 reversed $380 $-1 #
edge $-1 $556 -27.12744557964249 $557 27.12744557964249 $480 $558 forward 7 unknown #
coedge $-1 $383 $395 $559 $560 forward $156 $-1 #
coedge $-1 $561 $384 $383 $484 reversed $275 $-1 #
edge $-1 $562 -113.04421744234922 $386 -27.511836676241984 $483 $399 forward 7 unknown #
straight-curve $-1 25.623735423059728 -27.12744557964249 25.429396719947327 0 0 1 I I #
point $-1 25.623735423059728 -27.12744557964249 10.354824231311333 #
straight-curve $-1 14.610021947781 -27.12744557964249 5.90482378774706 -1 0 0 I I #
point $-1 25.623735423059728 -27.12744557964249 5.9048237877470608 #
coedge $-1 $393 $563 $478 $553 reversed $275 $-1 #
edge $-1 $398 -2.4808031453310768 $557 2.4808031453310759 $477 $564 forward 7 unknown #
face $-1 $565 $566 $18 $-1 $567 reversed single #
plane-surface $-1 0 -27.12744557964249 0 0 1 0 0 0 1 forward_v I I I I #
coedge $-1 $568 $569 $395 $494 reversed $570 $-1 #
edge $-1 $496 -59.908645343047517 $571 59.90864534304751 $493 $572 forward 7 unknown #
coedge $-1 $396 $480 $568 $573 reversed $380 $-1 #
vertex $-1 $397 $574 #
straight-curve $-1 59.908645343047517 0 10.354824231311333 0 1 0 I I #
point $-1 59.908645343047517 -27.12744557964249 10.354824231311333 #
face $-1 $575 $576 $19 $-1 $577 reversed single #
loop $-1 $-1 $578 $400 #
plane-surface $-1 53.135572099301712 0 5.3932179406491807 0 0 1 1 0 0 forward_v I I I I #
coedge $-1 $410 $579 $403 $505 forward $401 $-1 #
coedge $-1 $504 $403 $580 $581 reversed $282 $-1 #
coedge $-1 $403 $503 $506 $582 forward $282 $-1 #
edge $-1 $583 26.985832734991483 $584 29.452508168334049 $502 $585 forward 7 unknown #
coedge $-1 $508 $404 $504 $582 reversed $284 $-1 #
edge $-1 $584 11.013713475278728 $411 18.206330420283273 $410 $586 forward 7 unknown #
coedge $-1 $405 $506 $511 $587 reversed $284 $-1 #
vertex $-1 $587 $588 #
straight-curve $-1 32.816352368064273 -27.127445579642497 5.9048237877470484 0 -0.48480960649040278 -0.87461971476443456 I I #
coedge $-1 $580 $407 $508 $587 forward $513 $-1 #
coedge $-1 $407 $589 $409 $516 reversed $513 $-1 #
loop $-1 $-1 $580 $590 #
straight-curve $-1 32.816352368064273 -27.12744557964249 25.429396719947327 0 0 -1 I I #
coedge $-1 $591 $409 $592 $593 forward $401 $-1 #
edge $-1 $412 -20.319219731237439 $594 6.7730732437458059 $512 $595 forward 7 unknown #
point $-1 32.816352368064273 -24.660770146299924 10.354824231311333 #
point $-1 32.816352368064273 -27.12744557964249 10.354824231311333 #
point $-1 29.220043895562 -23.971663461088855 7.0641957161773936 #
plane-surface $-1 46.362498855555899 0 0 -1 0 0 0 0 1 forward_v I I I I #
straight-curve $-1 0 -27.12744557964249 -10.354824231311333 -1 0 0 I I #
straight-curve $-1 0 27.12744557964249 -10.354824231311333 1 0 0 I I #
point $-1 46.362498855555899 27.12744557964249 -10.354824231311333 #
point $-1 46.362498855555899 -27.12744557964249 -10.354824231311333 #
straight-curve $-1 46.362498855555899 -27.12744557964249 0 0 0 -1 I I #
straight-curve $-1 46.362498855555899 27.12744557964249 0 0 0 -1 I I #
plane-surface $-1 -46.362498855555899 0 0 1 0 0 0 0 -1 forward_v I I I I #
edge $-1 $471 -27.12744557964249 $467 27.12744557964249 $463 $596 forward 7 unknown #
straight-curve $-1 0 27.12744557964249 10.354824231311333 -1 0 0 I I #
straight-curve $-1 -59.90864534304751 0 5.3932179406491807 0 1 0 I I #
straight-curve $-1 -59.90864534304751 0 10.354824231311333 0 -1 0 I I #
point $-1 -59.90864534304751 27.12744557964249 10.354824231311333 #
point $-1 -59.90864534304751 27.12744557964249 5.3932179406491807 #
point $-1 -59.90864534304751 -27.12744557964249 5.3932179406491807 #
coedge $-1 $469 $465 $454 $536 forward $341 $-1 #
edge $-1 $539 -27.12744557964249 $537 27.12744557964249 $454 $597 forward 7 unknown #
vertex $-1 $470 $598 #
straight-curve $-1 -46.362498855555899 27.12744557964249 0 0 0 -1 I I #
vertex $-1 $536 $599 #
straight-curve $-1 -46.362498855555899 -27.12744557964249 0 0 0 -1 I I #
straight-curve $-1 -59.90864534304751 -27.12744557964249 7.8740210859802566 0 0 -1 I I #
point $-1 -59.90864534304751 -27.12744557964249 10.354824231311333 #
plane-surface $-1 46.362498855555899 0 0 -1 0 0 0 0 1 forward_v I I I I #
straight-curve $-1 0 -27.12744557964249 -10.354824231311333 -1 0 0 I I #
point $-1 46.362498855555899 -27.12744557964249 -10.354824231311333 #
straight-curve $-1 0 27.12744557964249 -10.354824231311333 1 0 0 I I #
point $-1 46.362498855555899 27.12744557964249 -10.354824231311333 #
face $-1 $394 $600 $18 $-1 $601 reversed single #
loop $-1 $-1 $602 $474 #
plane-surface $-1 -59.90864534304751 0 7.8740210859802566 1 0 0 0 0 -1 forward_v I I I I #
coedge $-1 $603 $604 $605 $606 reversed $475 $-1 #
coedge $-1 $479 $478 $607 $608 reversed $261 $-1 #
edge $-1 $557 -6.7730732437458059 $609 6.7730732437458059 $489 $610 forward 7 unknown #
coedge $-1 $611 $568 $479 $555 reversed $570 $-1 #
edge $-1 $612 -6.7730732437458059 $556 6.7730732437458059 $554 $613 forward 7 unknown #
vertex $-1 $481 $614 #
vertex $-1 $490 $615 #
straight-curve $-1 59.908645343047517 0 5.3932179406491807 0 -1 0 I I #
coedge $-1 $602 $616 $482 $560 reversed $549 $-1 #
edge $-1 $571 -27.12744557964249 $562 27.12744557964249 $559 $617 forward 7 unknown #
coedge $-1 $618 $483 $616 $619 forward $275 $-1 #
vertex $-1 $560 $620 #
coedge $-1 $489 $621 $622 $623 reversed $275 $-1 #
straight-curve $-1 59.908645343047517 -27.12744557964249 7.8740210859802566 0 0 -1 I I #
face $-1 $624 $570 $18 $-1 $625 reversed single #
loop $-1 $-1 $605 $491 #
plane-surface $-1 -46.362498855555899 0 0 1 0 0 0 0 -1 forward_v I I I I #
coedge $-1 $554 $493 $495 $573 forward $570 $-1 #
coedge $-1 $493 $626 $602 $627 reversed $570 $-1 #
loop $-1 $-1 $611 $565 #
vertex $-1 $494 $628 #
straight-curve $-1 0 27.12744557964249 10.354824231311333 -1 0 0 I I #
edge $-1 $496 -2.4808031453310768 $556 2.4808031453310759 $495 $629 forward 7 unknown #
point $-1 59.908645343047517 27.12744557964249 10.354824231311333 #
face $-1 $630 $631 $19 $-1 $632 reversed single #
loop $-1 $-1 $633 $499 #
plane-surface $-1 59.908645343047517 0 7.8740210859802566 -1 0 0 0 0 1 forward_v I I I I #
coedge $-1 $634 $635 $636 $637 forward $500 $-1 #
coedge $-1 $502 $638 $639 $640 forward $401 $-1 #
coedge $-1 $639 $511 $503 $581 forward $513 $-1 #
edge $-1 $641 -19.524572932200265 $583 -15.074572488635994 $580 $642 forward 7 unknown #
edge $-1 $641 1.4320236426557382e-014 $584 5.0879260648301585 $504 $643 forward 7 unknown #
vertex $-1 $581 $644 #
vertex $-1 $507 $645 #
straight-curve $-1 25.623735423059728 -54.113278314633973 10.354824231311333 0 1 0 I I #
straight-curve $-1 14.610021947781 -24.660770146299924 10.354824231311333 1 0 0 I I #
edge $-1 $509 -18.206330420283273 $641 -11.013713475278728 $511 $646 forward 7 unknown #
point $-1 32.816352368064273 -27.12744557964249 5.9048237877470608 #
coedge $-1 $512 $647 $633 $648 reversed $513 $-1 #
face $-1 $649 $513 $19 $-1 $650 reversed single #
coedge $-1 $638 $515 $651 $652 forward $401 $-1 #
coedge $-1 $633 $653 $515 $593 reversed $576 $-1 #
edge $-1 $594 -27.12744557964249 $654 27.12744557964249 $592 $655 forward 7 unknown #
vertex $-1 $593 $656 #
straight-curve $-1 53.135572099301712 -27.12744557964249 10.354824231311333 1 0 0 I I #
straight-curve $-1 46.362498855555899 0 -10.354824231311333 0 -1 0 I I #
straight-curve $-1 -46.362498855555899 0 -10.354824231311333 0 1 0 I I #
point $-1 -46.362498855555899 27.12744557964249 -10.354824231311333 #
point $-1 -46.362498855555899 -27.12744557964249 -10.354824231311333 #
loop $-1 $-1 $657 $548 #
plane-surface $-1 0 0 -10.354824231311333 0 0 1 1 0 0 forward_v I I I I #
coedge $-1 $658 $559 $569 $627 forward $549 $-1 #
coedge $-1 $659 $551 $618 $660 forward $475 $-1 #
coedge $-1 $551 $659 $626 $661 forward $475 $-1 #
coedge $-1 $662 $663 $551 $606 forward $566 $-1 #
edge $-1 $664 -27.12744557964249 $665 27.12744557964249 $605 $666 forward 7 unknown #
coedge $-1 $622 $667 $552 $608 forward $668 $-1 #
edge $-1 $612 -27.12744557964249 $609 27.12744557964249 $607 $669 forward 7 unknown #
vertex $-1 $623 $670 #
straight-curve $-1 53.135572099301712 -27.12744557964249 5.3932179406491807 -1 0 0 I I #
coedge $-1 $671 $554 $667 $672 forward $570 $-1 #
vertex $-1 $672 $673 #
straight-curve $-1 53.135572099301712 27.12744557964249 5.3932179406491807 1 0 0 I I #
point $-1 59.908645343047517 27.12744557964249 5.3932179406491807 #
point $-1 59.908645343047517 -27.12744557964249 5.3932179406491807 #
coedge $-1 $559 $658 $561 $619 reversed $549 $-1 #
straight-curve $-1 -59.90864534304751 0 10.354824231311333 0 -1 0 I I #
coedge $-1 $674 $561 $603 $660 reversed $275 $-1 #
edge $-1 $562 -2.4808031453310768 $675 2.4808031453310759 $616 $676 forward 7 unknown #
point $-1 -59.90864534304751 -27.12744557964249 10.354824231311333 #
coedge $-1 $563 $674 $677 $678 reversed $275 $-1 #
coedge $-1 $679 $607 $563 $623 forward $668 $-1 #
edge $-1 $609 -5.3932179406491807 $680 10.354824231311333 $622 $681 forward 7 unknown #
face $-1 $-1 $668 $18 $-1 $682 reversed single #
plane-surface $-1 0 27.12744557964249 0 0 -1 0 0 0 -1 forward_v I I I I #
coedge $-1 $569 $683 $604 $661 reversed $570 $-1 #
edge $-1 $571 -2.4808031453310768 $684 2.4808031453310759 $569 $685 forward 7 unknown #
point $-1 -59.90864534304751 27.12744557964249 10.354824231311333 #
straight-curve $-1 59.908645343047517 27.12744557964249 7.8740210859802566 0 0 -1 I I #
face $-1 $686 $687 $19 $-1 $688 reversed single #
loop $-1 $-1 $689 $575 #
plane-surface $-1 -53.135572099301704 0 5.3932179406491807 0 0 1 1 0 0 forward_v I I I I #
coedge $-1 $636 $592 $589 $648 forward $576 $-1 #
coedge $-1 $690 $578 $647 $691 forward $500 $-1 #
coedge $-1 $578 $690 $692 $693 forward $500 $-1 #
coedge $-1 $653 $633 $578 $637 reversed $576 $-1 #
edge $-1 $694 -27.12744557964249 $695 27.12744557964249 $636 $696 forward 7 unknown #
coedge $-1 $579 $591 $697 $698 forward $401 $-1 #
coedge $-1 $699 $580 $579 $640 reversed $513 $-1 #
edge $-1 $700 -113.04421744234922 $583 -27.511836676241984 $639 $595 forward 7 unknown #
vertex $-1 $587 $701 #
straight-curve $-1 25.623735423059728 -27.12744557964249 25.429396719947327 0 0 1 I I #
straight-curve $-1 25.623735423059728 -27.127445579642497 5.9048237877470484 0 0.48480960649040278 0.87461971476443456 I I #
point $-1 25.623735423059728 -27.12744557964249 10.354824231311333 #
point $-1 25.623735423059728 -24.660770146299924 10.354824231311333 #
straight-curve $-1 14.610021947781 -27.12744557964249 5.90482378774706 -1 0 0 I I #
coedge $-1 $589 $702 $634 $691 reversed $513 $-1 #
edge $-1 $594 -2.4808031453310768 $695 2.4808031453310759 $633 $703 forward 7 unknown #
face $-1 $704 $705 $19 $-1 $706 reversed single #
plane-surface $-1 0 -27.12744557964249 0 0 1 0 0 0 1 forward_v I I I I #
coedge $-1 $707 $708 $591 $652 reversed $709 $-1 #
edge $-1 $654 -59.908645343047517 $710 59.90864534304751 $651 $711 forward 7 unknown #
coedge $-1 $592 $636 $707 $712 reversed $576 $-1 #
vertex $-1 $593 $713 #
straight-curve $-1 59.908645343047517 0 10.354824231311333 0 1 0 I I #
point $-1 59.908645343047517 -27.12744557964249 10.354824231311333 #
coedge $-1 $677 $714 $679 $715 forward $600 $-1 #
coedge $-1 $616 $602 $659 $716 reversed $549 $-1 #
coedge $-1 $604 $603 $658 $716 forward $475 $-1 #
edge $-1 $664 -6.7730732437458059 $675 6.7730732437458059 $618 $717 forward 7 unknown #
edge $-1 $684 -6.7730732437458059 $665 6.7730732437458059 $626 $718 forward 7 unknown #
coedge $-1 $719 $605 $683 $720 forward $566 $-1 #
coedge $-1 $605 $719 $674 $721 reversed $566 $-1 #
vertex $-1 $721 $722 #
vertex $-1 $720 $723 #
straight-curve $-1 -46.362498855555899 0 5.3932179406491807 0 1 0 I I #
coedge $-1 $607 $679 $611 $672 reversed $668 $-1 #
loop $-1 $-1 $607 $624 #
straight-curve $-1 46.362498855555899 0 5.3932179406491807 0 -1 0 I I #
point $-1 46.362498855555906 -27.12744557964249 5.3932179406491807 #
coedge $-1 $683 $611 $714 $724 reversed $570 $-1 #
edge $-1 $612 -5.3932179406491807 $725 10.354824231311333 $667 $726 forward 7 unknown #
point $-1 46.362498855555906 27.12744557964249 5.3932179406491807 #
coedge $-1 $621 $618 $663 $721 forward $275 $-1 #
vertex $-1 $716 $727 #
straight-curve $-1 -59.90864534304751 -27.12744557964249 7.8740210859802566 0 0 -1 I I #
coedge $-1 $728 $657 $621 $678 forward $600 $-1 #
edge $-1 $680 -46.362498855555899 $729 46.362498855555899 $621 $730 forward 7 unknown #
coedge $-1 $667 $622 $657 $715 reversed $668 $-1 #
vertex $-1 $623 $731 #
straight-curve $-1 46.362498855555899 -27.12744557964249 0 0 0 -1 I I #
plane-surface $-1 46.362498855555899 0 0 -1 0 0 0 0 1 forward_v I I I I #
coedge $-1 $626 $671 $662 $720 reversed $570 $-1 #
vertex $-1 $661 $732 #
straight-curve $-1 -59.90864534304751 27.12744557964249 7.8740210859802566 0 0 -1 I I #
face $-1 $590 $733 $19 $-1 $734 reversed single #
loop $-1 $-1 $735 $630 #
plane-surface $-1 -59.90864534304751 0 7.8740210859802566 1 0 0 0 0 -1 forward_v I I I I #
coedge $-1 $736 $737 $738 $739 reversed $631 $-1 #
coedge $-1 $635 $634 $740 $741 reversed $500 $-1 #
edge $-1 $695 -6.7730732437458059 $742 6.7730732437458059 $647 $743 forward 7 unknown #
coedge $-1 $744 $707 $635 $693 reversed $709 $-1 #
edge $-1 $745 -6.7730732437458059 $694 6.7730732437458059 $692 $746 forward 7 unknown #
vertex $-1 $637 $747 #
vertex $-1 $648 $748 #
straight-curve $-1 59.908645343047517 0 5.3932179406491807 0 -1 0 I I #
coedge $-1 $735 $749 $638 $698 reversed $687 $-1 #
edge $-1 $710 -27.12744557964249 $700 27.12744557964249 $697 $750 forward 7 unknown #
coedge $-1 $751 $639 $749 $752 forward $513 $-1 #
vertex $-1 $698 $753 #
point $-1 25.623735423059728 -27.12744557964249 5.9048237877470608 #
coedge $-1 $647 $754 $755 $756 reversed $513 $-1 #
straight-curve $-1 59.908645343047517 -27.12744557964249 7.8740210859802566 0 0 -1 I I #
face $-1 $757 $709 $19 $-1 $758 reversed single #
loop $-1 $-1 $738 $649 #
plane-surface $-1 -46.362498855555899 0 0 1 0 0 0 0 -1 forward_v I I I I #
coedge $-1 $692 $651 $653 $712 forward $709 $-1 #
coedge $-1 $651 $759 $735 $760 reversed $709 $-1 #
loop $-1 $-1 $744 $704 #
vertex $-1 $652 $761 #
straight-curve $-1 0 27.12744557964249 10.354824231311333 -1 0 0 I I #
edge $-1 $654 -2.4808031453310768 $694 2.4808031453310759 $653 $762 forward 7 unknown #
point $-1 59.908645343047517 27.12744557964249 10.354824231311333 #
coedge $-1 $657 $728 $671 $724 forward $600 $-1 #
edge $-1 $725 -27.12744557964249 $680 27.12744557964249 $679 $763 forward 7 unknown #
edge $-1 $675 -27.12744557964249 $684 27.12744557964249 $658 $764 forward 7 unknown #
straight-curve $-1 -53.135572099301704 -27.12744557964249 5.3932179406491807 -1 0 0 I I #
straight-curve $-1 -53.135572099301704 27.12744557964249 5.3932179406491807 1 0 0 I I #
coedge $-1 $663 $662 $728 $765 reversed $566 $-1 #
edge $-1 $665 -5.3932179406491807 $766 10.354824231311333 $683 $767 forward 7 unknown #
edge $-1 $664 -5.3932179406491807 $729 10.354824231311333 $663 $768 forward 7 unknown #
point $-1 -46.362498855555899 -27.12744557964249 5.3932179406491807 #
point $-1 -46.362498855555899 27.12744557964249 5.3932179406491807 #
edge $-1 $766 -46.362498855555899 $725 46.362498855555899 $671 $769 forward 7 unknown #
vertex $-1 $715 $770 #
straight-curve $-1 46.362498855555899 27.12744557964249 0 0 0 -1 I I #
point $-1 -59.90864534304751 -27.12744557964249 5.3932179406491807 #
coedge $-1 $714 $677 $719 $765 forward $600 $-1 #
vertex $-1 $765 $771 #
straight-curve $-1 0 -27.12744557964249 -10.354824231311333 -1 0 0 I I #
point $-1 46.362498855555899 -27.12744557964249 -10.354824231311333 #
point $-1 -59.90864534304751 27.12744557964249 5.3932179406491807 #
loop $-1 $-1 $772 $686 #
plane-surface $-1 0 0 -10.354824231311333 0 0 1 1 0 0 forward_v I I I I #
coedge $-1 $773 $697 $708 $760 forward $687 $-1 #
coedge $-1 $774 $689 $751 $775 forward $631 $-1 #
coedge $-1 $689 $774 $759 $776 forward $631 $-1 #
coedge $-1 $777 $778 $689 $739 forward $705 $-1 #
edge $-1 $779 -27.12744557964249 $780 27.12744557964249 $738 $781 forward 7 unknown #
coedge $-1 $755 $782 $690 $741 forward $783 $-1 #
edge $-1 $745 -27.12744557964249 $742 27.12744557964249 $740 $784 forward 7 unknown #
vertex $-1 $756 $785 #
straight-curve $-1 53.135572099301712 -27.12744557964249 5.3932179406491807 -1 0 0 I I #
coedge $-1 $786 $692 $782 $787 forward $709 $-1 #
vertex $-1 $787 $788 #
straight-curve $-1 53.135572099301712 27.12744557964249 5.3932179406491807 1 0 0 I I #
point $-1 59.908645343047517 27.12744557964249 5.3932179406491807 #
point $-1 59.908645343047517 -27.12744557964249 5.3932179406491807 #
coedge $-1 $697 $773 $699 $752 reversed $687 $-1 #
straight-curve $-1 -59.90864534304751 0 10.354824231311333 0 -1 0 I I #
coedge $-1 $789 $699 $736 $775 reversed $513 $-1 #
edge $-1 $700 -2.4808031453310768 $790 2.4808031453310759 $749 $791 forward 7 unknown #
point $-1 -59.90864534304751 -27.12744557964249 10.354824231311333 #
coedge $-1 $702 $789 $792 $793 reversed $513 $-1 #
coedge $-1 $794 $740 $702 $756 forward $783 $-1 #
edge $-1 $742 -5.3932179406491807 $795 10.354824231311333 $755 $796 forward 7 unknown #
face $-1 $-1 $783 $19 $-1 $797 reversed single #
plane-surface $-1 0 27.12744557964249 0 0 -1 0 0 0 -1 forward_v I I I I #
coedge $-1 $708 $798 $737 $776 reversed $709 $-1 #
edge $-1 $710 -2.4808031453310768 $799 2.4808031453310759 $708 $800 forward 7 unknown #
point $-1 -59.90864534304751 27.12744557964249 10.354824231311333 #
straight-curve $-1 59.908645343047517 27.12744557964249 7.8740210859802566 0 0 -1 I I #
straight-curve $-1 46.362498855555899 0 -10.354824231311333 0 -1 0 I I #
straight-curve $-1 -59.90864534304751 0 5.3932179406491807 0 1 0 I I #
edge $-1 $729 -27.12744557964249 $766 27.12744557964249 $719 $801 forward 7 unknown #
vertex $-1 $724 $802 #
straight-curve $-1 -46.362498855555899 27.12744557964249 0 0 0 -1 I I #
straight-curve $-1 -46.362498855555899 -27.12744557964249 0 0 0 -1 I I #
straight-curve $-1 0 27.12744557964249 -10.354824231311333 1 0 0 I I #
point $-1 46.362498855555899 27.12744557964249 -10.354824231311333 #
point $-1 -46.362498855555899 -27.12744557964249 -10.354824231311333 #
coedge $-1 $792 $803 $794 $804 forward $733 $-1 #
coedge $-1 $749 $735 $774 $805 reversed $687 $-1 #
coedge $-1 $737 $736 $773 $805 forward $631 $-1 #
edge $-1 $779 -6.7730732437458059 $790 6.7730732437458059 $751 $806 forward 7 unknown #
edge $-1 $799 -6.7730732437458059 $780 6.7730732437458059 $759 $807 forward 7 unknown #
coedge $-1 $808 $738 $798 $809 forward $705 $-1 #
coedge $-1 $738 $808 $789 $810 reversed $705 $-1 #
vertex $-1 $810 $811 #
vertex $-1 $809 $812 #
straight-curve $-1 -46.362498855555899 0 5.3932179406491807 0 1 0 I I #
coedge $-1 $740 $794 $744 $787 reversed $783 $-1 #
loop $-1 $-1 $740 $757 #
straight-curve $-1 46.362498855555899 0 5.3932179406491807 0 -1 0 I I #
point $-1 46.362498855555906 -27.12744557964249 5.3932179406491807 #
coedge $-1 $798 $744 $803 $813 reversed $709 $-1 #
edge $-1 $745 -5.3932179406491807 $814 10.354824231311333 $782 $815 forward 7 unknown #
point $-1 46.362498855555906 27.12744557964249 5.3932179406491807 #
coedge $-1 $754 $751 $778 $810 forward $513 $-1 #
vertex $-1 $805 $816 #
straight-curve $-1 -59.90864534304751 -27.12744557964249 7.8740210859802566 0 0 -1 I I #
coedge $-1 $817 $772 $754 $793 forward $733 $-1 #
edge $-1 $795 -46.362498855555899 $818 46.362498855555899 $754 $819 forward 7 unknown #
coedge $-1 $782 $755 $772 $804 reversed $783 $-1 #
vertex $-1 $756 $820 #
straight-curve $-1 46.362498855555899 -27.12744557964249 0 0 0 -1 I I #
plane-surface $-1 46.362498855555899 0 0 -1 0 0 0 0 1 forward_v I I I I #
coedge $-1 $759 $786 $777 $809 reversed $709 $-1 #
vertex $-1 $776 $821 #
straight-curve $-1 -59.90864534304751 27.12744557964249 7.8740210859802566 0 0 -1 I I #
straight-curve $-1 -46.362498855555899 0 -10.354824231311333 0 1 0 I I #
point $-1 -46.362498855555899 27.12744557964249 -10.354824231311333 #
coedge $-1 $772 $817 $786 $813 forward $733 $-1 #
edge $-1 $814 -27.12744557964249 $795 27.12744557964249 $794 $822 forward 7 unknown #
edge $-1 $790 -27.12744557964249 $799 27.12744557964249 $773 $823 forward 7 unknown #
straight-curve $-1 -53.135572099301704 -27.12744557964249 5.3932179406491807 -1 0 0 I I #
straight-curve $-1 -53.135572099301704 27.12744557964249 5.3932179406491807 1 0 0 I I #
coedge $-1 $778 $777 $817 $824 reversed $705 $-1 #
edge $-1 $780 -5.3932179406491807 $825 10.354824231311333 $798 $826 forward 7 unknown #
edge $-1 $779 -5.3932179406491807 $818 10.354824231311333 $778 $827 forward 7 unknown #
point $-1 -46.362498855555899 -27.12744557964249 5.3932179406491807 #
point $-1 -46.362498855555899 27.12744557964249 5.3932179406491807 #
edge $-1 $825 -46.362498855555899 $814 46.362498855555899 $786 $828 forward 7 unknown #
vertex $-1 $804 $829 #
straight-curve $-1 46.362498855555899 27.12744557964249 0 0 0 -1 I I #
point $-1 -59.90864534304751 -27.12744557964249 5.3932179406491807 #
coedge $-1 $803 $792 $808 $824 forward $733 $-1 #
vertex $-1 $824 $830 #
straight-curve $-1 0 -27.12744557964249 -10.354824231311333 -1 0 0 I I #
point $-1 46.362498855555899 -27.12744557964249 -10.354824231311333 #
point $-1 -59.90864534304751 27.12744557964249 5.3932179406491807 #
straight-curve $-1 46.362498855555899 0 -10.354824231311333 0 -1 0 I I #
straight-curve $-1 -59.90864534304751 0 5.3932179406491807 0 1 0 I I #
edge $-1 $818 -27.12744557964249 $825 27.12744557964249 $808 $831 forward 7 unknown #
vertex $-1 $813 $832 #
straight-curve $-1 -46.362498855555899 27.12744557964249 0 0 0 -1 I I #
straight-curve $-1 -46.362498855555899 -27.12744557964249 0 0 0 -1 I I #
straight-curve $-1 0 27.12744557964249 -10.354824231311333 1 0 0 I I #
point $-1 46.362498855555899 27.12744557964249 -10.354824231311333 #
point $-1 -46.362498855555899 -27.12744557964249 -10.354824231311333 #
straight-curve $-1 -46.362498855555899 0 -10.354824231311333 0 1 0 I I #
point $-1 -46.362498855555899 27.12744557964249 -10.354824231311333 #
End-of-ACIS-data 