500 0 5 0           
7 Unknown 11 ACIS 5.0 NT 24 Fri Mar 26 01:12:31 1999 
-1 9.9999999999999995e-007 1e-010 
body $-1 $5 $-1 $6 #
body $-1 $7 $-1 $8 #
body $-1 $9 $-1 $10 #
body $-1 $11 $-1 $12 #
body $-1 $13 $-1 $14 #
lump $-1 $-1 $15 $0 #
transform $-1 1 0 0 0 1 0 0 0 1 58.527176732688375 36.016710403483636 13.251999439604472 1 rotate no_reflect no_shear #
lump $-1 $-1 $16 $1 #
transform $-1 1 0 0 0 1 0 0 0 1 58.527176732688375 36.016710403483636 13.251999439604472 1 rotate no_reflect no_shear #
lump $-1 $-1 $17 $2 #
transform $-1 1 0 0 0 1 0 0 0 1 58.527176732688375 36.016710403483636 13.251999439604472 1 rotate no_reflect no_shear #
lump $-1 $-1 $18 $3 #
transform $-1 1 0 0 0 1 0 0 0 1 58.527176732688375 36.016710403483636 13.251999439604472 1 rotate no_reflect no_shear #
lump $-1 $-1 $19 $4 #
transform $-1 1 0 0 0 1 0 0 0 1 58.527176732688375 36.016710403483636 13.251999439604472 1 rotate no_reflect no_shear #
shell $-1 $-1 $-1 $20 $-1 $5 #
shell $-1 $-1 $-1 $21 $-1 $7 #
shell $-1 $-1 $-1 $22 $-1 $9 #
shell $-1 $-1 $-1 $23 $-1 $11 #
shell $-1 $-1 $-1 $24 $-1 $13 #
face $-1 $25 $26 $15 $-1 $27 forward single #
face $-1 $28 $29 $16 $-1 $30 reversed single #
face $-1 $31 $32 $17 $-1 $33 reversed single #
face $-1 $34 $35 $18 $-1 $36 forward single #
face $-1 $37 $38 $19 $-1 $39 forward single #
face $-1 $40 $41 $15 $-1 $42 reversed single #
loop $-1 $-1 $43 $20 #
plane-surface $-1 0 0 13.251999439604472 0 0 1 1 0 0 forward_v I I I I #
face $-1 $44 $45 $16 $-1 $46 reversed single #
loop $-1 $-1 $47 $21 #
plane-surface $-1 -52.682060998541743 0 6.8149904524944933 0 0 1 1 0 0 forward_v I I I I #
face $-1 $48 $49 $17 $-1 $50 reversed single #
loop $-1 $-1 $51 $22 #
plane-surface $-1 -21.553596085307518 -123.00504845023042 82.665487479798259 -1 0 0 0 -0.74314483375859142 0.66913059716165679 forward_v I I I I #
face $-1 $52 $53 $18 $-1 $54 forward single #
loop $-1 $55 $56 $23 #
cone-surface $-1 -29.561019462451601 -31.054711398293833 7.9408762473802881 0 0.74314483375859142 -0.66913059716165679 1 0 0 1 I I 0 1 1 forward I I I I #
face $-1 $57 $58 $19 $-1 $59 forward single #
loop $-1 $60 $61 $24 #
cone-surface $-1 -24.756565436165154 -31.054711398293833 7.9408762473802881 0 0.74314483375859142 -0.66913059716165679 1 0 0 1 I I 0 1 1 forward I I I I #
face $-1 $62 $63 $15 $-1 $64 reversed single #
loop $-1 $-1 $65 $25 #
plane-surface $-1 0 0 -13.251999439604472 0 0 1 1 0 0 forward_v I I I I #
coedge $-1 $66 $67 $68 $69 forward $26 $-1 #
face $-1 $70 $71 $16 $-1 $72 reversed single #
loop $-1 $-1 $73 $28 #
plane-surface $-1 -46.836945264395112 0 10.033494946049483 -1 0 0 0 0 1 forward_v I I I I #
coedge $-1 $74 $75 $76 $77 forward $29 $-1 #
face $-1 $78 $79 $17 $-1 $80 reversed single #
loop $-1 $-1 $81 $31 #
plane-surface $-1 -27.158792449308375 -36.016710403483614 4.3408380451390656 0 -0.74314483375859142 0.66913059716165679 1 0 0 forward_v I I I I #
coedge $-1 $82 $83 $84 $85 reversed $32 $-1 #
face $-1 $-1 $86 $18 $-1 $87 forward single #
loop $-1 $88 $89 $34 #
cone-surface $-1 -29.561019462451601 -29.732962755860378 6.750768453807968 0 0.74314483375859142 -0.66913059716165679 0.5 0 0 1 I I -0.70710678118654746 0.70710678118654746 0.5 forward I I I I #
loop $-1 $-1 $90 $23 #
coedge $-1 $56 $56 $91 $92 reversed $35 $-1 #
face $-1 $-1 $93 $19 $-1 $94 forward single #
loop $-1 $95 $96 $37 #
cone-surface $-1 -24.756565436165154 -29.732962755860378 6.750768453807968 0 0.74314483375859142 -0.66913059716165679 0.5 0 0 1 I I -0.70710678118654746 0.70710678118654746 0.5 forward I I I I #
loop $-1 $-1 $97 $24 #
coedge $-1 $61 $61 $98 $99 reversed $38 $-1 #
face $-1 $100 $101 $15 $-1 $102 reversed single #
loop $-1 $-1 $103 $40 #
plane-surface $-1 0 -36.016710403483636 0 0 1 0 0 0 1 forward_v I I I I #
coedge $-1 $104 $105 $106 $107 forward $41 $-1 #
coedge $-1 $108 $43 $109 $110 forward $26 $-1 #
coedge $-1 $43 $108 $111 $112 forward $26 $-1 #
coedge $-1 $113 $114 $43 $69 reversed $115 $-1 #
edge $-1 $116 -36.016710403483636 $117 36.016710403483636 $68 $118 forward 7 unknown #
face $-1 $119 $120 $16 $-1 $121 reversed single #
loop $-1 $-1 $122 $44 #
plane-surface $-1 0 36.016710403483636 0 0 -1 0 0 0 -1 forward_v I I I I #
coedge $-1 $76 $123 $124 $125 reversed $45 $-1 #
coedge $-1 $126 $47 $127 $128 reversed $29 $-1 #
coedge $-1 $47 $126 $129 $130 reversed $29 $-1 #
coedge $-1 $131 $73 $47 $77 reversed $45 $-1 #
edge $-1 $132 -36.016710403483636 $133 36.016710403483636 $76 $134 forward 7 unknown #
face $-1 $135 $136 $17 $-1 $137 reversed single #
loop $-1 $-1 $138 $48 #
plane-surface $-1 -32.763988813309233 -123.00504845023042 82.665487479798259 1 0 0 0 0.74314483375859142 -0.66913059716165679 forward_v I I I I #
coedge $-1 $139 $140 $141 $142 reversed $49 $-1 #
coedge $-1 $83 $51 $143 $144 reversed $32 $-1 #
coedge $-1 $51 $82 $139 $145 reversed $32 $-1 #
coedge $-1 $141 $146 $51 $85 forward $147 $-1 #
edge $-1 $148 25.485813821631574 $149 33.509459380902911 $84 $150 forward 7 unknown #
loop $-1 $-1 $91 $52 #
plane-surface $-1 -27.158792449308375 -36.016710403483614 4.3408380451390656 0 -0.74314483375859142 0.66913059716165679 1 0 0 forward_v I I I I #
loop $-1 $-1 $151 $34 #
coedge $-1 $89 $89 $90 $152 reversed $53 $-1 #
coedge $-1 $90 $90 $89 $152 forward $55 $-1 #
coedge $-1 $91 $91 $56 $92 forward $86 $-1 #
edge $-1 $153 -4.49684091428893e-015 $153 6.283185307179596 $91 $154 forward 7 unknown #
loop $-1 $-1 $98 $57 #
plane-surface $-1 -27.158792449308375 -36.016710403483614 4.3408380451390656 0 -0.74314483375859142 0.66913059716165679 1 0 0 forward_v I I I I #
loop $-1 $-1 $155 $37 #
coedge $-1 $96 $96 $97 $156 reversed $58 $-1 #
coedge $-1 $97 $97 $96 $156 forward $60 $-1 #
coedge $-1 $98 $98 $61 $99 forward $93 $-1 #
edge $-1 $157 -4.49684091428893e-015 $157 6.283185307179596 $98 $158 forward 7 unknown #
face $-1 $159 $160 $15 $-1 $161 reversed single #
loop $-1 $-1 $162 $62 #
plane-surface $-1 -58.527176732688375 0 0 1 0 0 0 0 -1 forward_v I I I I #
coedge $-1 $163 $111 $164 $165 forward $63 $-1 #
coedge $-1 $166 $65 $163 $167 forward $41 $-1 #
coedge $-1 $65 $166 $168 $169 forward $41 $-1 #
coedge $-1 $114 $113 $65 $107 reversed $115 $-1 #
edge $-1 $170 -36.016710403483636 $171 36.016710403483636 $106 $172 forward 7 unknown #
coedge $-1 $67 $66 $173 $174 forward $26 $-1 #
coedge $-1 $175 $176 $66 $110 reversed $160 $-1 #
edge $-1 $117 -58.527176732688375 $177 58.527176732688375 $109 $178 forward 7 unknown #
coedge $-1 $103 $179 $67 $112 reversed $63 $-1 #
edge $-1 $180 -58.527176732688375 $116 58.527176732688375 $111 $181 forward 7 unknown #
coedge $-1 $106 $68 $179 $182 forward $115 $-1 #
coedge $-1 $68 $106 $175 $183 reversed $115 $-1 #
loop $-1 $-1 $113 $159 #
vertex $-1 $69 $184 #
vertex $-1 $69 $185 #
straight-curve $-1 58.527176732688375 0 13.251999439604472 0 1 0 I I #
face $-1 $186 $187 $16 $-1 $188 forward single #
loop $-1 $-1 $189 $70 #
plane-surface $-1 -58.527176732688375 0 0 1 0 0 0 0 -1 forward_v I I I I #
coedge $-1 $129 $190 $131 $191 forward $71 $-1 #
coedge $-1 $73 $131 $192 $193 reversed $45 $-1 #
coedge $-1 $194 $127 $73 $125 forward $195 $-1 #
edge $-1 $133 1.7982429794697516 $196 8.2352519665797317 $124 $197 forward 7 unknown #
coedge $-1 $75 $74 $189 $198 reversed $29 $-1 #
coedge $-1 $124 $199 $74 $128 forward $195 $-1 #
edge $-1 $200 -32.186146233417503 $133 -20.49591476512424 $127 $201 forward 7 unknown #
coedge $-1 $202 $122 $75 $130 forward $71 $-1 #
edge $-1 $132 20.49591476512424 $203 32.186146233417503 $129 $204 forward 7 unknown #
coedge $-1 $123 $76 $122 $191 reversed $45 $-1 #
vertex $-1 $130 $205 #
vertex $-1 $128 $206 #
straight-curve $-1 -46.836945264395112 0 6.8149904524944933 0 -1 0 I I #
face $-1 $-1 $147 $17 $-1 $207 forward single #
loop $-1 $-1 $208 $78 #
plane-surface $-1 0 -36.016710403483636 0 0 1 0 0 0 1 forward_v I I I I #
coedge $-1 $209 $210 $211 $212 reversed $79 $-1 #
coedge $-1 $213 $81 $83 $145 forward $49 $-1 #
coedge $-1 $81 $213 $209 $214 forward $49 $-1 #
coedge $-1 $211 $84 $81 $142 forward $147 $-1 #
edge $-1 $149 7.9741998606533304 $215 19.184592588655043 $141 $216 forward 7 unknown #
coedge $-1 $217 $218 $82 $144 forward $136 $-1 #
edge $-1 $219 -36.991905694760085 $148 -28.080744300294658 $143 $220 forward 7 unknown #
edge $-1 $149 -11.991150297574661 $219 3.208459706215348e-014 $83 $221 forward 7 unknown #
coedge $-1 $84 $211 $217 $222 forward $147 $-1 #
loop $-1 $-1 $211 $135 #
vertex $-1 $144 $223 #
vertex $-1 $85 $224 #
straight-curve $-1 -21.553596085307518 -61.502524225115209 13.251999439604475 0 1 0 I I #
coedge $-1 $151 $151 $-1 $225 reversed $88 $-1 #
edge $-1 $226 0 $226 6.2831853071796004 $89 $227 forward 7 unknown #
vertex $-1 $92 $228 #
ellipse-curve $-1 -29.561019462451601 -32.004887623847964 8.7964187423717597 0 -0.74314483375859142 0.66913059716165679 1 0 0 1 I I #
coedge $-1 $155 $155 $-1 $229 reversed $95 $-1 #
edge $-1 $230 0 $230 6.2831853071796004 $96 $231 forward 7 unknown #
vertex $-1 $99 $232 #
ellipse-curve $-1 -24.756565436165154 -32.004887623847964 8.7964187423717597 0 -0.74314483375859142 0.66913059716165679 1 0 0 1 I I #
face $-1 $-1 $115 $15 $-1 $233 reversed single #
loop $-1 $-1 $175 $100 #
plane-surface $-1 0 36.016710403483636 0 0 -1 0 0 0 -1 forward_v I I I I #
coedge $-1 $234 $173 $176 $235 forward $101 $-1 #
coedge $-1 $179 $103 $104 $167 reversed $63 $-1 #
coedge $-1 $173 $234 $103 $165 reversed $101 $-1 #
edge $-1 $180 -13.251999439604472 $236 13.251999439604472 $164 $237 forward 7 unknown #
coedge $-1 $105 $104 $234 $238 forward $41 $-1 #
edge $-1 $171 -58.527176732688375 $236 58.527176732688375 $163 $239 forward 7 unknown #
coedge $-1 $176 $175 $105 $169 reversed $160 $-1 #
edge $-1 $240 -58.527176732688375 $170 58.527176732688375 $168 $241 forward 7 unknown #
vertex $-1 $107 $242 #
vertex $-1 $182 $243 #
straight-curve $-1 58.527176732688375 0 -13.251999439604472 0 -1 0 I I #
coedge $-1 $162 $164 $108 $174 reversed $101 $-1 #
edge $-1 $177 -36.016710403483636 $180 36.016710403483636 $173 $244 forward 7 unknown #
coedge $-1 $168 $109 $114 $183 forward $160 $-1 #
coedge $-1 $109 $168 $162 $235 reversed $160 $-1 #
vertex $-1 $110 $245 #
straight-curve $-1 0 36.016710403483636 13.251999439604472 -1 0 0 I I #
coedge $-1 $111 $163 $113 $182 reversed $63 $-1 #
vertex $-1 $174 $246 #
straight-curve $-1 0 -36.016710403483636 13.251999439604472 1 0 0 I I #
edge $-1 $116 -13.251999439604472 $171 13.251999439604472 $113 $247 forward 7 unknown #
edge $-1 $117 -13.251999439604472 $170 13.251999439604472 $114 $248 forward 7 unknown #
point $-1 58.527176732688375 -36.016710403483636 13.251999439604472 #
point $-1 58.527176732688375 36.016710403483636 13.251999439604472 #
face $-1 $-1 $195 $16 $-1 $249 reversed single #
loop $-1 $-1 $192 $119 #
plane-surface $-1 0 0 13.251999439604472 0 0 1 1 0 0 forward_v I I I I #
coedge $-1 $250 $251 $126 $198 forward $120 $-1 #
coedge $-1 $122 $202 $252 $253 reversed $71 $-1 #
edge $-1 $254 -8.2352519665797317 $132 -1.7982429794697516 $122 $255 forward 7 unknown #
coedge $-1 $252 $256 $123 $193 forward $187 $-1 #
edge $-1 $196 -36.016710403483636 $254 36.016710403483636 $192 $257 forward 7 unknown #
coedge $-1 $199 $124 $256 $258 reversed $195 $-1 #
loop $-1 $-1 $124 $186 #
vertex $-1 $125 $259 #
straight-curve $-1 -46.836945264395112 -36.016710403483636 5.0167474730247417 0 0 1 I I #
edge $-1 $203 -36.016710403483636 $200 36.016710403483636 $189 $260 forward 7 unknown #
coedge $-1 $127 $194 $250 $261 forward $195 $-1 #
vertex $-1 $198 $262 #
straight-curve $-1 -26.341030499270872 -36.016710403483636 6.8149904524944933 1 0 0 I I #
coedge $-1 $190 $129 $251 $263 reversed $71 $-1 #
vertex $-1 $198 $264 #
straight-curve $-1 -26.341030499270872 36.016710403483636 6.8149904524944933 -1 0 0 I I #
point $-1 -46.836945264395112 36.016710403483636 6.8149904524944933 #
point $-1 -46.836945264395112 -36.016710403483636 6.8149904524944933 #
plane-surface $-1 0 0 13.251999439604472 0 0 1 1 0 0 forward_v I I I I #
coedge $-1 $218 $217 $210 $265 forward $136 $-1 #
coedge $-1 $210 $138 $140 $214 reversed $79 $-1 #
coedge $-1 $138 $209 $208 $265 reversed $79 $-1 #
coedge $-1 $146 $141 $138 $212 forward $147 $-1 #
edge $-1 $215 -33.509459380902911 $266 -25.485813821631574 $211 $267 forward 7 unknown #
coedge $-1 $140 $139 $218 $268 reversed $49 $-1 #
edge $-1 $269 -3.208459706215348e-014 $215 11.991150297574661 $209 $270 forward 7 unknown #
vertex $-1 $142 $271 #
straight-curve $-1 -13.579396224654188 -27.993064844212302 13.251999439604472 -1 0 0 I I #
coedge $-1 $208 $143 $146 $222 reversed $136 $-1 #
coedge $-1 $143 $208 $213 $268 forward $136 $-1 #
vertex $-1 $144 $272 #
straight-curve $-1 -21.553596085307518 -36.016710403483636 41.332743739899129 0 0 1 I I #
straight-curve $-1 -21.553596085307518 -36.016710403483614 4.3408380451390656 0 -0.66913059716165679 -0.74314483375859142 I I #
edge $-1 $266 -32.763988813309233 $148 -21.553596085307518 $217 $273 forward 7 unknown #
point $-1 -21.553596085307518 -36.016710403483636 13.251999439604472 #
point $-1 -21.553596085307518 -27.993064844212302 13.251999439604472 #
edge $-1 $274 1 $274 0 $151 $-1 forward 7 unknown #
vertex $-1 $152 $275 #
ellipse-curve $-1 -29.561019462451601 -30.104535172739673 7.085333752388796 0 -0.74314483375859142 0.66913059716165679 1 0 0 1 I I #
point $-1 -28.561019462451601 -32.004887623847992 8.7964187423717792 #
edge $-1 $276 1 $276 0 $155 $-1 forward 7 unknown #
vertex $-1 $156 $277 #
ellipse-curve $-1 -24.756565436165154 -30.104535172739673 7.085333752388796 0 -0.74314483375859142 0.66913059716165679 1 0 0 1 I I #
point $-1 -23.756565436165154 -32.004887623847992 8.7964187423717792 #
plane-surface $-1 58.527176732688375 0 0 -1 0 0 0 0 1 forward_v I I I I #
coedge $-1 $164 $162 $166 $238 reversed $101 $-1 #
edge $-1 $177 -13.251999439604472 $240 13.251999439604472 $176 $278 forward 7 unknown #
vertex $-1 $238 $279 #
straight-curve $-1 -58.527176732688375 -36.016710403483636 0 0 0 -1 I I #
edge $-1 $236 -36.016710403483636 $240 36.016710403483636 $234 $280 forward 7 unknown #
straight-curve $-1 0 -36.016710403483636 -13.251999439604472 -1 0 0 I I #
vertex $-1 $169 $281 #
straight-curve $-1 0 36.016710403483636 -13.251999439604472 1 0 0 I I #
point $-1 58.527176732688375 36.016710403483636 -13.251999439604472 #
point $-1 58.527176732688375 -36.016710403483636 -13.251999439604472 #
straight-curve $-1 -58.527176732688375 0 13.251999439604472 0 -1 0 I I #
point $-1 -58.527176732688375 36.016710403483636 13.251999439604472 #
point $-1 -58.527176732688375 -36.016710403483636 13.251999439604472 #
straight-curve $-1 58.527176732688375 -36.016710403483636 0 0 0 -1 I I #
straight-curve $-1 58.527176732688375 36.016710403483636 0 0 0 -1 I I #
plane-surface $-1 0 -36.016710403483636 0 0 1 0 0 0 1 forward_v I I I I #
coedge $-1 $282 $189 $199 $261 reversed $120 $-1 #
coedge $-1 $189 $282 $202 $263 forward $120 $-1 #
coedge $-1 $283 $192 $190 $253 forward $187 $-1 #
edge $-1 $254 46.836945264395112 $284 58.527176732688375 $190 $285 forward 7 unknown #
vertex $-1 $253 $286 #
straight-curve $-1 -46.836945264395112 36.016710403483636 5.0167474730247417 0 0 -1 I I #
coedge $-1 $192 $283 $194 $258 forward $187 $-1 #
straight-curve $-1 -46.836945264395112 0 13.251999439604472 0 1 0 I I #
edge $-1 $287 -58.527176732688375 $196 -46.836945264395112 $194 $288 forward 7 unknown #
point $-1 -46.836945264395112 -36.016710403483636 13.251999439604473 #
straight-curve $-1 -58.527176732688375 0 6.8149904524944933 0 -1 0 I I #
edge $-1 $287 -13.251999439604472 $200 -6.8149904524944933 $250 $289 forward 7 unknown #
point $-1 -58.527176732688375 -36.016710403483636 6.8149904524944933 #
edge $-1 $284 -13.251999439604472 $203 -6.8149904524944933 $202 $290 forward 7 unknown #
point $-1 -58.527176732688375 36.016710403483636 6.8149904524944933 #
edge $-1 $266 28.080744300294658 $269 36.991905694760085 $208 $291 forward 7 unknown #
vertex $-1 $222 $292 #
straight-curve $-1 -32.763988813309233 -61.502524225115209 13.251999439604475 0 -1 0 I I #
edge $-1 $269 -19.184592588655043 $219 -7.9741998606533304 $218 $293 forward 7 unknown #
vertex $-1 $268 $294 #
straight-curve $-1 -32.763988813309233 -36.016710403483614 4.3408380451390656 0 0.66913059716165679 0.74314483375859142 I I #
point $-1 -32.763988813309233 -27.993064844212302 13.251999439604472 #
point $-1 -21.553596085307518 -36.016710403483636 4.3408380451390416 #
straight-curve $-1 0 -36.016710403483636 13.251999439604472 1 0 0 I I #
vertex $-1 $225 $295 #
point $-1 -28.561019462451601 -30.104535172739673 7.085333752388796 #
vertex $-1 $229 $296 #
point $-1 -23.756565436165154 -30.104535172739673 7.085333752388796 #
straight-curve $-1 -58.527176732688375 36.016710403483636 0 0 0 -1 I I #
point $-1 -58.527176732688375 -36.016710403483636 -13.251999439604472 #
straight-curve $-1 -58.527176732688375 0 -13.251999439604472 0 1 0 I I #
point $-1 -58.527176732688375 36.016710403483636 -13.251999439604472 #
coedge $-1 $251 $250 $283 $297 reversed $120 $-1 #
coedge $-1 $256 $252 $282 $297 forward $187 $-1 #
vertex $-1 $253 $298 #
straight-curve $-1 0 36.016710403483636 13.251999439604472 -1 0 0 I I #
point $-1 -46.836945264395112 36.016710403483636 13.251999439604473 #
vertex $-1 $297 $299 #
straight-curve $-1 0 -36.016710403483636 13.251999439604472 1 0 0 I I #
straight-curve $-1 -58.527176732688375 -36.016710403483636 0 0 0 -1 I I #
straight-curve $-1 -58.527176732688375 36.016710403483636 0 0 0 -1 I I #
straight-curve $-1 -32.763988813309233 -36.016710403483636 41.332743739899129 0 0 -1 I I #
point $-1 -32.763988813309233 -36.016710403483636 13.251999439604472 #
straight-curve $-1 -13.579396224654188 -36.016710403483636 4.3408380451390443 1 0 0 I I #
point $-1 -32.763988813309233 -36.016710403483636 4.3408380451390416 #
point $-1 -29.561019462451601 -29.361390338981082 6.4162031552271399 #
point $-1 -24.756565436165154 -29.361390338981082 6.4162031552271399 #
edge $-1 $284 -36.016710403483636 $287 36.016710403483636 $282 $300 forward 7 unknown #
point $-1 -58.527176732688375 36.016710403483636 13.251999439604472 #
point $-1 -58.527176732688375 -36.016710403483636 13.251999439604472 #
straight-curve $-1 -58.527176732688375 0 13.251999439604472 0 -1 0 I I #
End-of-ACIS-data 