500 0 12 0           
7 Unknown 11 ACIS 5.0 NT 24 Thu Mar 25 17:11:03 1999 
-1 9.9999999999999995e-007 1e-010 
body $-1 $12 $-1 $13 #
body $-1 $14 $-1 $15 #
body $-1 $16 $-1 $17 #
body $-1 $18 $-1 $19 #
body $-1 $20 $-1 $21 #
body $-1 $22 $-1 $23 #
body $-1 $24 $-1 $25 #
body $-1 $26 $-1 $27 #
body $-1 $28 $-1 $29 #
body $-1 $30 $-1 $31 #
body $-1 $32 $-1 $33 #
body $-1 $34 $-1 $35 #
lump $-1 $-1 $36 $0 #
transform $-1 1 0 0 0 1 0 0 0 1 72.775658436841951 37.52564988608033 18.50755386666432 1 rotate no_reflect no_shear #
lump $-1 $-1 $37 $1 #
transform $-1 1 0 0 0 1 0 0 0 1 72.775658436841951 37.52564988608033 18.50755386666432 1 rotate no_reflect no_shear #
lump $-1 $-1 $38 $2 #
transform $-1 1 0 0 0 1 0 0 0 1 72.775658436841951 37.52564988608033 18.50755386666432 1 rotate no_reflect no_shear #
lump $-1 $-1 $39 $3 #
transform $-1 1 0 0 0 1 0 0 0 1 72.775658436841951 37.52564988608033 18.50755386666432 1 rotate no_reflect no_shear #
lump $-1 $-1 $40 $4 #
transform $-1 1 0 0 0 1 0 0 0 1 72.775658436841951 37.52564988608033 18.50755386666432 1 rotate no_reflect no_shear #
lump $-1 $-1 $41 $5 #
transform $-1 1 0 0 0 1 0 0 0 1 72.775658436841951 37.52564988608033 18.50755386666432 1 rotate no_reflect no_shear #
lump $-1 $-1 $42 $6 #
transform $-1 1 0 0 0 1 0 0 0 1 72.775658436841951 37.52564988608033 18.50755386666432 1 rotate no_reflect no_shear #
lump $-1 $-1 $43 $7 #
transform $-1 1 0 0 0 1 0 0 0 1 72.775658436841951 37.52564988608033 18.50755386666432 1 rotate no_reflect no_shear #
lump $-1 $-1 $44 $8 #
transform $-1 1 0 0 0 1 0 0 0 1 72.775658436841951 37.52564988608033 18.50755386666432 1 rotate no_reflect no_shear #
lump $-1 $-1 $45 $9 #
transform $-1 1 0 0 0 1 0 0 0 1 72.775658436841951 37.52564988608033 18.50755386666432 1 rotate no_reflect no_shear #
lump $-1 $-1 $46 $10 #
transform $-1 1 0 0 0 1 0 0 0 1 72.775658436841951 37.52564988608033 18.50755386666432 1 rotate no_reflect no_shear #
lump $-1 $-1 $47 $11 #
transform $-1 1 0 0 0 1 0 0 0 1 72.775658436841951 37.52564988608033 18.50755386666432 1 rotate no_reflect no_shear #
shell $-1 $-1 $-1 $48 $-1 $12 #
shell $-1 $-1 $-1 $49 $-1 $14 #
shell $-1 $-1 $-1 $50 $-1 $16 #
shell $-1 $-1 $-1 $51 $-1 $18 #
shell $-1 $-1 $-1 $52 $-1 $20 #
shell $-1 $-1 $-1 $53 $-1 $22 #
shell $-1 $-1 $-1 $54 $-1 $24 #
shell $-1 $-1 $-1 $55 $-1 $26 #
shell $-1 $-1 $-1 $56 $-1 $28 #
shell $-1 $-1 $-1 $57 $-1 $30 #
shell $-1 $-1 $-1 $58 $-1 $32 #
shell $-1 $-1 $-1 $59 $-1 $34 #
face $-1 $60 $61 $36 $-1 $62 forward single #
face $-1 $63 $64 $37 $-1 $65 reversed single #
face $-1 $66 $67 $38 $-1 $68 reversed single #
face $-1 $69 $70 $39 $-1 $71 forward single #
face $-1 $72 $73 $40 $-1 $74 forward single #
face $-1 $75 $76 $41 $-1 $77 forward single #
face $-1 $78 $79 $42 $-1 $80 reversed single #
face $-1 $81 $82 $43 $-1 $83 forward single #
face $-1 $84 $85 $44 $-1 $86 forward single #
face $-1 $87 $88 $45 $-1 $89 forward single #
face $-1 $90 $91 $46 $-1 $92 reversed single #
face $-1 $93 $94 $47 $-1 $95 forward single #
face $-1 $96 $97 $36 $-1 $98 reversed single #
loop $-1 $-1 $99 $48 #
plane-surface $-1 0 0 18.50755386666432 0 0 1 1 0 0 forward_v I I I I #
face $-1 $100 $101 $37 $-1 $102 reversed single #
loop $-1 $-1 $103 $49 #
plane-surface $-1 -67.975397563200175 -19.863929695566014 0 0 -1 0 0 0 -1 forward_v I I I I #
face $-1 $104 $105 $38 $-1 $106 reversed single #
loop $-1 $-1 $107 $50 #
plane-surface $-1 -190.52914853246384 -2.6213004794551651 89.628221707149066 0 1 0 -0.80901700255871778 0 0.5877852410284794 forward_v I I I I #
face $-1 $108 $109 $39 $-1 $110 forward single #
loop $-1 $111 $112 $51 #
cone-surface $-1 -67.128329104763807 -0.33086836451270329 10.997537231087012 0.80901700255871778 0 -0.5877852410284794 0.14694631025711985 0 0.20225425063967944 1 I I 0 1 0.25 forward I I I I #
face $-1 $113 $114 $40 $-1 $115 forward single #
loop $-1 $116 $117 $52 #
cone-surface $-1 -67.128329104763807 3.1047798079009965 10.997537231087012 0.80901700255871778 0 -0.5877852410284794 0.14694631025711985 0 0.20225425063967944 1 I I 0 1 0.25 forward I I I I #
face $-1 $118 $119 $41 $-1 $120 forward single #
loop $-1 $121 $122 $53 #
cone-surface $-1 -67.128329104763807 6.5404279803146963 10.997537231087012 0.80901700255871778 0 -0.5877852410284794 0.14694631025711985 0 0.20225425063967944 1 I I 0 1 0.25 forward I I I I #
face $-1 $123 $124 $42 $-1 $125 reversed single #
loop $-1 $-1 $126 $54 #
plane-surface $-1 -190.52914853246384 26.073489311368014 89.628221707149066 0 1 0 -0.80901700255871778 0 0.5877852410284794 forward_v I I I I #
face $-1 $127 $128 $43 $-1 $129 forward single #
loop $-1 $130 $131 $55 #
cone-surface $-1 -67.128329104763807 28.363921426310469 10.997537231087012 0.80901700255871778 0 -0.5877852410284794 0.14694631025711985 0 0.20225425063967944 1 I I 0 1 0.25 forward I I I I #
face $-1 $132 $133 $44 $-1 $134 forward single #
loop $-1 $135 $136 $56 #
cone-surface $-1 -67.128329104763807 31.799569598724176 10.997537231087012 0.80901700255871778 0 -0.5877852410284794 0.14694631025711985 0 0.20225425063967944 1 I I 0 1 0.25 forward I I I I #
face $-1 $137 $138 $45 $-1 $139 forward single #
loop $-1 $140 $141 $57 #
cone-surface $-1 -67.128329104763807 35.235217771137869 10.997537231087012 0.80901700255871778 0 -0.5877852410284794 0.14694631025711985 0 0.20225425063967944 1 I I 0 1 0.25 forward I I I I #
face $-1 $142 $143 $46 $-1 $144 reversed single #
loop $-1 $-1 $145 $58 #
plane-surface $-1 37.0318071387467 24.785324357689419 206.16547735891876 0 1 0 0.57357644374324357 0 0.81915203911291934 forward_v I I I I #
face $-1 $146 $147 $47 $-1 $148 forward single #
loop $-1 $149 $150 $59 #
cone-surface $-1 58.749321402524203 31.155487121884875 6.3017893736751809 -0.57357644374324357 0 -0.81915203911291934 2.4574561173387579 0 -1.7207293312297307 1 I I 0 1 3 forward I I I I #
face $-1 $151 $152 $36 $-1 $153 reversed single #
loop $-1 $-1 $154 $60 #
plane-surface $-1 0 0 -18.50755386666432 0 0 1 1 0 0 forward_v I I I I #
coedge $-1 $155 $156 $157 $158 forward $61 $-1 #
face $-1 $159 $160 $37 $-1 $161 forward single #
loop $-1 $-1 $162 $63 #
plane-surface $-1 -63.1751366895584 -28.694789790823172 0 -1 0 0 0 0 1 forward_v I I I I #
coedge $-1 $163 $164 $165 $166 forward $64 $-1 #
face $-1 $167 $168 $38 $-1 $169 reversed single #
loop $-1 $-1 $170 $66 #
plane-surface $-1 -72.775658436841965 3.1047798079009965 4.0753058365381918 -0.80901700255871778 0 0.5877852410284794 0.5877852410284794 0 0.80901700255871778 forward_v I I I I #
coedge $-1 $171 $172 $173 $174 reversed $67 $-1 #
face $-1 $-1 $175 $39 $-1 $176 forward single #
loop $-1 $177 $178 $69 #
cone-surface $-1 -66.622693478164607 -0.33086836451270329 10.630171455444213 0.80901700255871778 0 -0.5877852410284794 0.073473155128559925 0 0.10112712531983972 1 I I -0.70710678118654746 0.70710678118654746 0.125 forward I I I I #
loop $-1 $-1 $179 $51 #
coedge $-1 $112 $112 $180 $181 reversed $70 $-1 #
face $-1 $-1 $182 $40 $-1 $183 forward single #
loop $-1 $184 $185 $72 #
cone-surface $-1 -66.622693478164607 3.1047798079009965 10.630171455444213 0.80901700255871778 0 -0.5877852410284794 0.073473155128559925 0 0.10112712531983972 1 I I -0.70710678118654746 0.70710678118654746 0.125 forward I I I I #
loop $-1 $-1 $186 $52 #
coedge $-1 $117 $117 $187 $188 reversed $73 $-1 #
face $-1 $-1 $189 $41 $-1 $190 forward single #
loop $-1 $191 $192 $75 #
cone-surface $-1 -66.622693478164607 6.5404279803146963 10.630171455444213 0.80901700255871778 0 -0.5877852410284794 0.073473155128559925 0 0.10112712531983972 1 I I -0.70710678118654746 0.70710678118654746 0.125 forward I I I I #
loop $-1 $-1 $193 $53 #
coedge $-1 $122 $122 $194 $195 reversed $76 $-1 #
face $-1 $196 $197 $42 $-1 $198 forward single #
loop $-1 $-1 $199 $78 #
plane-surface $-1 -72.775658436841965 31.799569598724176 4.0753058365381918 -0.80901700255871778 0 0.5877852410284794 0.5877852410284794 0 0.80901700255871778 forward_v I I I I #
coedge $-1 $200 $201 $202 $203 reversed $79 $-1 #
face $-1 $-1 $204 $43 $-1 $205 forward single #
loop $-1 $206 $207 $81 #
cone-surface $-1 -66.622693478164607 28.363921426310469 10.630171455444213 0.80901700255871778 0 -0.5877852410284794 0.073473155128559925 0 0.10112712531983972 1 I I -0.70710678118654746 0.70710678118654746 0.125 forward I I I I #
loop $-1 $-1 $208 $55 #
coedge $-1 $131 $131 $209 $210 reversed $82 $-1 #
face $-1 $-1 $211 $44 $-1 $212 forward single #
loop $-1 $213 $214 $84 #
cone-surface $-1 -66.622693478164607 31.799569598724176 10.630171455444213 0.80901700255871778 0 -0.5877852410284794 0.073473155128559925 0 0.10112712531983972 1 I I -0.70710678118654746 0.70710678118654746 0.125 forward I I I I #
loop $-1 $-1 $215 $56 #
coedge $-1 $136 $136 $216 $217 reversed $85 $-1 #
face $-1 $-1 $218 $45 $-1 $219 forward single #
loop $-1 $220 $221 $87 #
cone-surface $-1 -66.622693478164607 35.235217771137869 10.630171455444213 0.80901700255871778 0 -0.5877852410284794 0.073473155128559925 0 0.10112712531983972 1 I I -0.70710678118654746 0.70710678118654746 0.125 forward I I I I #
loop $-1 $-1 $222 $57 #
coedge $-1 $141 $141 $223 $224 reversed $88 $-1 #
face $-1 $225 $226 $46 $-1 $227 forward single #
loop $-1 $-1 $228 $90 #
plane-surface $-1 -46.452999575806871 31.155487121884875 86.936819346269928 0.57357644374324357 0 0.81915203911291934 0.81915203911291934 0 -0.57357644374324357 forward_v I I I I #
coedge $-1 $229 $230 $231 $232 reversed $91 $-1 #
face $-1 $-1 $233 $47 $-1 $234 forward single #
loop $-1 $235 $236 $93 #
cone-surface $-1 54.613390098661881 31.155487121884875 0.39506743949064926 -0.57357644374324357 0 -0.81915203911291934 1.228728058669379 0 -0.86036466561486535 1 I I -0.70710678118654757 0.70710678118654757 1.5 forward I I I I #
loop $-1 $-1 $237 $59 #
coedge $-1 $150 $150 $238 $239 reversed $94 $-1 #
face $-1 $240 $241 $36 $-1 $242 reversed single #
loop $-1 $-1 $243 $96 #
plane-surface $-1 0 -37.52564988608033 0 0 1 0 0 0 1 forward_v I I I I #
coedge $-1 $244 $245 $246 $247 forward $97 $-1 #
coedge $-1 $248 $99 $249 $250 forward $61 $-1 #
coedge $-1 $99 $248 $251 $252 forward $61 $-1 #
coedge $-1 $253 $254 $99 $158 reversed $255 $-1 #
edge $-1 $256 -37.52564988608033 $257 37.52564988608033 $157 $258 forward 7 unknown #
face $-1 $259 $260 $37 $-1 $261 reversed single #
loop $-1 $-1 $262 $100 #
plane-surface $-1 0 0 18.50755386666432 0 0 1 1 0 0 forward_v I I I I #
coedge $-1 $263 $264 $265 $266 reversed $101 $-1 #
coedge $-1 $267 $103 $268 $269 reversed $64 $-1 #
coedge $-1 $103 $267 $270 $271 reversed $64 $-1 #
coedge $-1 $264 $263 $103 $166 reversed $101 $-1 #
edge $-1 $272 -18.50755386666432 $273 18.50755386666432 $165 $274 forward 7 unknown #
face $-1 $275 $276 $38 $-1 $277 reversed single #
loop $-1 $-1 $278 $104 #
plane-surface $-1 -190.52914853246384 8.8308600952571581 89.628221707149066 0 -1 0 0.80901700255871778 0 -0.5877852410284794 forward_v I I I I #
coedge $-1 $279 $280 $281 $282 reversed $105 $-1 #
coedge $-1 $172 $107 $283 $284 reversed $67 $-1 #
coedge $-1 $107 $171 $279 $285 reversed $67 $-1 #
coedge $-1 $281 $286 $107 $174 forward $287 $-1 #
edge $-1 $288 22.488915829389967 $289 32.974557490987529 $173 $290 forward 7 unknown #
loop $-1 $-1 $180 $108 #
plane-surface $-1 -72.775658436841965 3.1047798079009965 4.0753058365381918 -0.80901700255871778 0 0.5877852410284794 0.5877852410284794 0 0.80901700255871778 forward_v I I I I #
loop $-1 $-1 $291 $69 #
coedge $-1 $178 $178 $179 $292 reversed $109 $-1 #
coedge $-1 $179 $179 $178 $292 forward $111 $-1 #
coedge $-1 $180 $180 $112 $181 forward $175 $-1 #
edge $-1 $293 0 $293 6.2831853071796004 $180 $294 forward 7 unknown #
loop $-1 $-1 $187 $113 #
plane-surface $-1 -72.775658436841965 3.1047798079009965 4.0753058365381918 -0.80901700255871778 0 0.5877852410284794 0.5877852410284794 0 0.80901700255871778 forward_v I I I I #
loop $-1 $-1 $295 $72 #
coedge $-1 $185 $185 $186 $296 reversed $114 $-1 #
coedge $-1 $186 $186 $185 $296 forward $116 $-1 #
coedge $-1 $187 $187 $117 $188 forward $182 $-1 #
edge $-1 $297 0 $297 6.2831853071796004 $187 $298 forward 7 unknown #
loop $-1 $-1 $194 $118 #
plane-surface $-1 -72.775658436841965 3.1047798079009965 4.0753058365381918 -0.80901700255871778 0 0.5877852410284794 0.5877852410284794 0 0.80901700255871778 forward_v I I I I #
loop $-1 $-1 $299 $75 #
coedge $-1 $192 $192 $193 $300 reversed $119 $-1 #
coedge $-1 $193 $193 $192 $300 forward $121 $-1 #
coedge $-1 $194 $194 $122 $195 forward $189 $-1 #
edge $-1 $301 0 $301 6.2831853071796004 $194 $302 forward 7 unknown #
face $-1 $303 $304 $42 $-1 $305 reversed single #
loop $-1 $-1 $202 $123 #
plane-surface $-1 0 0 18.50755386666432 0 0 1 1 0 0 forward_v I I I I #
coedge $-1 $306 $307 $308 $309 reversed $124 $-1 #
coedge $-1 $201 $126 $310 $311 reversed $79 $-1 #
coedge $-1 $126 $200 $306 $312 reversed $79 $-1 #
coedge $-1 $308 $313 $126 $203 forward $197 $-1 #
edge $-1 $314 22.488915829389967 $315 32.974557490987529 $202 $316 forward 7 unknown #
loop $-1 $-1 $209 $127 #
plane-surface $-1 -72.775658436841965 31.799569598724176 4.0753058365381918 -0.80901700255871778 0 0.5877852410284794 0.5877852410284794 0 0.80901700255871778 forward_v I I I I #
loop $-1 $-1 $317 $81 #
coedge $-1 $207 $207 $208 $318 reversed $128 $-1 #
coedge $-1 $208 $208 $207 $318 forward $130 $-1 #
coedge $-1 $209 $209 $131 $210 forward $204 $-1 #
edge $-1 $319 0 $319 6.2831853071796004 $209 $320 forward 7 unknown #
loop $-1 $-1 $216 $132 #
plane-surface $-1 -72.775658436841965 31.799569598724176 4.0753058365381918 -0.80901700255871778 0 0.5877852410284794 0.5877852410284794 0 0.80901700255871778 forward_v I I I I #
loop $-1 $-1 $321 $84 #
coedge $-1 $214 $214 $215 $322 reversed $133 $-1 #
coedge $-1 $215 $215 $214 $322 forward $135 $-1 #
coedge $-1 $216 $216 $136 $217 forward $211 $-1 #
edge $-1 $323 0 $323 6.2831853071796004 $216 $324 forward 7 unknown #
loop $-1 $-1 $223 $137 #
plane-surface $-1 -72.775658436841965 31.799569598724176 4.0753058365381918 -0.80901700255871778 0 0.5877852410284794 0.5877852410284794 0 0.80901700255871778 forward_v I I I I #
loop $-1 $-1 $325 $87 #
coedge $-1 $221 $221 $222 $326 reversed $138 $-1 #
coedge $-1 $222 $222 $221 $326 forward $140 $-1 #
coedge $-1 $223 $223 $141 $224 forward $218 $-1 #
edge $-1 $327 0 $327 6.2831853071796004 $223 $328 forward 7 unknown #
face $-1 $329 $330 $46 $-1 $331 reversed single #
loop $-1 $-1 $332 $142 #
plane-surface $-1 0 0 18.50755386666432 0 0 1 1 0 0 forward_v I I I I #
coedge $-1 $333 $334 $335 $336 reversed $143 $-1 #
coedge $-1 $230 $145 $337 $338 reversed $91 $-1 #
coedge $-1 $145 $229 $333 $339 reversed $91 $-1 #
coedge $-1 $335 $340 $145 $232 forward $341 $-1 #
edge $-1 $342 84.575184812795058 $343 99.630726047743025 $231 $344 forward 7 unknown #
loop $-1 $-1 $238 $146 #
plane-surface $-1 -46.452999575806871 31.155487121884875 86.936819346269928 0.57357644374324357 0 0.81915203911291934 0.81915203911291934 0 -0.57357644374324357 forward_v I I I I #
loop $-1 $-1 $345 $93 #
coedge $-1 $236 $236 $237 $346 reversed $147 $-1 #
coedge $-1 $237 $237 $236 $346 forward $149 $-1 #
coedge $-1 $238 $238 $150 $239 forward $233 $-1 #
edge $-1 $347 0 $347 6.2831853071796004 $238 $348 forward 7 unknown #
face $-1 $349 $350 $36 $-1 $351 reversed single #
loop $-1 $-1 $352 $151 #
plane-surface $-1 -72.775658436841951 0 0 1 0 0 0 0 -1 forward_v I I I I #
coedge $-1 $353 $251 $354 $355 forward $152 $-1 #
coedge $-1 $356 $154 $353 $357 forward $97 $-1 #
coedge $-1 $154 $356 $358 $359 forward $97 $-1 #
coedge $-1 $254 $253 $154 $247 reversed $255 $-1 #
edge $-1 $360 -37.52564988608033 $361 37.52564988608033 $246 $362 forward 7 unknown #
coedge $-1 $156 $155 $363 $364 forward $61 $-1 #
coedge $-1 $365 $366 $155 $250 reversed $350 $-1 #
edge $-1 $257 -72.775658436841951 $367 72.775658436841951 $249 $368 forward 7 unknown #
coedge $-1 $243 $369 $156 $252 reversed $152 $-1 #
edge $-1 $370 -72.775658436841951 $256 72.775658436841951 $251 $371 forward 7 unknown #
coedge $-1 $246 $157 $369 $372 forward $255 $-1 #
coedge $-1 $157 $246 $365 $373 reversed $255 $-1 #
loop $-1 $-1 $253 $349 #
vertex $-1 $158 $374 #
vertex $-1 $158 $375 #
straight-curve $-1 72.775658436841951 0 18.50755386666432 0 1 0 I I #
face $-1 $376 $377 $37 $-1 $378 reversed single #
loop $-1 $-1 $379 $159 #
plane-surface $-1 -72.775658436841951 0 0 1 0 0 0 0 -1 forward_v I I I I #
coedge $-1 $270 $380 $264 $381 forward $160 $-1 #
coedge $-1 $165 $162 $382 $383 reversed $101 $-1 #
coedge $-1 $162 $165 $262 $381 reversed $101 $-1 #
coedge $-1 $384 $385 $162 $266 forward $386 $-1 #
edge $-1 $387 -18.50755386666432 $388 18.50755386666432 $265 $389 forward 7 unknown #
coedge $-1 $164 $163 $379 $390 reversed $64 $-1 #
coedge $-1 $382 $391 $163 $269 forward $377 $-1 #
edge $-1 $392 -38.787959655241863 $273 -29.187437907958312 $268 $393 forward 7 unknown #
coedge $-1 $394 $262 $164 $271 forward $160 $-1 #
edge $-1 $272 29.187437907958312 $395 38.787959655241863 $270 $396 forward 7 unknown #
vertex $-1 $271 $397 #
vertex $-1 $269 $398 #
straight-curve $-1 -63.1751366895584 -19.863929695566014 0 0 0 -1 I I #
face $-1 $-1 $287 $38 $-1 $399 forward single #
loop $-1 $-1 $400 $167 #
plane-surface $-1 -72.775658436841951 0 0 1 0 0 0 0 -1 forward_v I I I I #
coedge $-1 $401 $402 $403 $404 reversed $168 $-1 #
coedge $-1 $405 $170 $172 $285 forward $105 $-1 #
coedge $-1 $170 $405 $401 $406 forward $105 $-1 #
coedge $-1 $403 $173 $170 $282 forward $287 $-1 #
edge $-1 $289 -4.1736903834056633 $407 7.2784701913066598 $281 $408 forward 7 unknown #
coedge $-1 $409 $410 $171 $284 forward $276 $-1 #
edge $-1 $411 -40.73880501703632 $288 -26.306556986910213 $283 $412 forward 7 unknown #
edge $-1 $289 -17.839239452916996 $411 -2.4161062406544664e-014 $172 $413 forward 7 unknown #
coedge $-1 $173 $403 $409 $414 forward $287 $-1 #
loop $-1 $-1 $403 $275 #
vertex $-1 $284 $415 #
vertex $-1 $174 $416 #
straight-curve $-1 -95.264574266231918 -2.6213004794551651 18.507553866664324 1 0 0 I I #
coedge $-1 $291 $291 $-1 $417 reversed $177 $-1 #
edge $-1 $418 0 $418 6.2831853071796004 $178 $419 forward 7 unknown #
vertex $-1 $181 $420 #
ellipse-curve $-1 -67.532837606043174 -0.33086836451270329 11.29142985160126 -0.80901700255871778 0 0.5877852410284794 0.14694631025711985 0 0.20225425063967944 1 I I #
coedge $-1 $295 $295 $-1 $421 reversed $184 $-1 #
edge $-1 $422 0 $422 6.2831853071796004 $185 $423 forward 7 unknown #
vertex $-1 $188 $424 #
ellipse-curve $-1 -67.532837606043174 3.1047798079009965 11.29142985160126 -0.80901700255871778 0 0.5877852410284794 0.14694631025711985 0 0.20225425063967944 1 I I #
coedge $-1 $299 $299 $-1 $425 reversed $191 $-1 #
edge $-1 $426 0 $426 6.2831853071796004 $192 $427 forward 7 unknown #
vertex $-1 $195 $428 #
ellipse-curve $-1 -67.532837606043174 6.5404279803146963 11.29142985160126 -0.80901700255871778 0 0.5877852410284794 0.14694631025711985 0 0.20225425063967944 1 I I #
face $-1 $-1 $429 $42 $-1 $430 reversed single #
loop $-1 $-1 $431 $196 #
plane-surface $-1 0 37.52564988608033 0 0 -1 0 0 0 -1 forward_v I I I I #
coedge $-1 $432 $199 $201 $312 forward $124 $-1 #
coedge $-1 $199 $432 $431 $433 reversed $124 $-1 #
coedge $-1 $434 $202 $199 $309 forward $197 $-1 #
edge $-1 $315 10.173704512005926 $435 21.62586508671825 $308 $436 forward 7 unknown #
coedge $-1 $437 $438 $200 $311 forward $429 $-1 #
edge $-1 $439 -40.73880501703632 $314 -26.306556986910213 $310 $440 forward 7 unknown #
edge $-1 $315 -17.839239452916996 $439 -2.4161062406544664e-014 $201 $441 forward 7 unknown #
coedge $-1 $202 $434 $437 $442 forward $197 $-1 #
vertex $-1 $311 $443 #
vertex $-1 $203 $444 #
straight-curve $-1 -95.264574266231918 26.073489311368014 18.507553866664324 1 0 0 I I #
coedge $-1 $317 $317 $-1 $445 reversed $206 $-1 #
edge $-1 $446 0 $446 6.2831853071796004 $207 $447 forward 7 unknown #
vertex $-1 $210 $448 #
ellipse-curve $-1 -67.532837606043174 28.363921426310469 11.29142985160126 -0.80901700255871778 0 0.5877852410284794 0.14694631025711985 0 0.20225425063967944 1 I I #
coedge $-1 $321 $321 $-1 $449 reversed $213 $-1 #
edge $-1 $450 0 $450 6.2831853071796004 $214 $451 forward 7 unknown #
vertex $-1 $217 $452 #
ellipse-curve $-1 -67.532837606043174 31.799569598724176 11.29142985160126 -0.80901700255871778 0 0.5877852410284794 0.14694631025711985 0 0.20225425063967944 1 I I #
coedge $-1 $325 $325 $-1 $453 reversed $220 $-1 #
edge $-1 $454 0 $454 6.2831853071796004 $221 $455 forward 7 unknown #
vertex $-1 $224 $456 #
ellipse-curve $-1 -67.532837606043174 35.235217771137869 11.29142985160126 -0.80901700255871778 0 0.5877852410284794 0.14694631025711985 0 0.20225425063967944 1 I I #
face $-1 $-1 $341 $46 $-1 $457 reversed single #
loop $-1 $-1 $458 $225 #
plane-surface $-1 0 37.52564988608033 0 0 -1 0 0 0 -1 forward_v I I I I #
coedge $-1 $337 $459 $460 $461 forward $226 $-1 #
coedge $-1 $460 $228 $230 $339 forward $143 $-1 #
coedge $-1 $228 $460 $458 $462 reversed $143 $-1 #
coedge $-1 $463 $231 $228 $336 forward $341 $-1 #
edge $-1 $343 9.2075807967469814 $464 21.947906325137893 $335 $465 forward 7 unknown #
coedge $-1 $466 $332 $229 $338 forward $226 $-1 #
edge $-1 $467 32.758214075328041 $342 54.259754867468601 $337 $468 forward 7 unknown #
edge $-1 $343 -145.5513168736839 $467 -119.30278208956113 $230 $469 forward 7 unknown #
coedge $-1 $231 $463 $466 $470 reversed $341 $-1 #
loop $-1 $-1 $335 $329 #
vertex $-1 $470 $471 #
vertex $-1 $232 $472 #
straight-curve $-1 72.775658436841951 24.785324357689419 103.08273867945938 0 0 -1 I I #
coedge $-1 $345 $345 $-1 $473 reversed $235 $-1 #
edge $-1 $474 0 $474 6.2831853071796004 $236 $475 forward 7 unknown #
vertex $-1 $239 $476 #
ellipse-curve $-1 62.024888040771671 31.155487121884875 10.979783249190348 0.57357644374324357 0 0.81915203911291934 2.4574561173387579 0 -1.7207293312297307 1 I I #
face $-1 $-1 $255 $36 $-1 $477 reversed single #
loop $-1 $-1 $365 $240 #
plane-surface $-1 0 37.52564988608033 0 0 -1 0 0 0 -1 forward_v I I I I #
coedge $-1 $478 $363 $366 $479 forward $241 $-1 #
coedge $-1 $369 $243 $244 $357 reversed $152 $-1 #
coedge $-1 $363 $478 $243 $355 reversed $241 $-1 #
edge $-1 $370 -18.50755386666432 $480 18.50755386666432 $354 $481 forward 7 unknown #
coedge $-1 $245 $244 $478 $482 forward $97 $-1 #
edge $-1 $361 -72.775658436841951 $480 72.775658436841951 $353 $483 forward 7 unknown #
coedge $-1 $366 $365 $245 $359 reversed $350 $-1 #
edge $-1 $484 -72.775658436841951 $360 72.775658436841951 $358 $485 forward 7 unknown #
vertex $-1 $247 $486 #
vertex $-1 $372 $487 #
straight-curve $-1 72.775658436841951 0 -18.50755386666432 0 -1 0 I I #
coedge $-1 $352 $354 $248 $364 reversed $241 $-1 #
edge $-1 $367 -37.52564988608033 $370 37.52564988608033 $363 $488 forward 7 unknown #
coedge $-1 $358 $249 $254 $373 forward $350 $-1 #
coedge $-1 $249 $358 $352 $479 reversed $350 $-1 #
vertex $-1 $250 $489 #
straight-curve $-1 0 37.52564988608033 18.50755386666432 -1 0 0 I I #
coedge $-1 $251 $353 $253 $372 reversed $152 $-1 #
vertex $-1 $364 $490 #
straight-curve $-1 0 -37.52564988608033 18.50755386666432 1 0 0 I I #
edge $-1 $256 -18.50755386666432 $361 18.50755386666432 $253 $491 forward 7 unknown #
edge $-1 $257 -18.50755386666432 $360 18.50755386666432 $254 $492 forward 7 unknown #
point $-1 72.775658436841951 -37.52564988608033 18.50755386666432 #
point $-1 72.775658436841951 37.52564988608033 18.50755386666432 #
face $-1 $-1 $386 $37 $-1 $493 reversed single #
loop $-1 $-1 $382 $259 #
plane-surface $-1 0 0 -18.50755386666432 0 0 1 1 0 0 forward_v I I I I #
coedge $-1 $494 $495 $267 $390 forward $260 $-1 #
coedge $-1 $262 $394 $384 $496 forward $160 $-1 #
edge $-1 $388 -23.178254990668744 $272 -5.5165348001544281 $262 $497 forward 7 unknown #
coedge $-1 $498 $268 $263 $383 forward $377 $-1 #
edge $-1 $273 5.5165348001544281 $387 23.178254990668744 $382 $499 forward 7 unknown #
coedge $-1 $500 $265 $380 $496 reversed $386 $-1 #
coedge $-1 $265 $500 $498 $501 reversed $386 $-1 #
loop $-1 $-1 $265 $376 #
vertex $-1 $501 $502 #
vertex $-1 $266 $503 #
straight-curve $-1 -63.1751366895584 -37.52564988608033 0 0 0 1 I I #
edge $-1 $395 -18.50755386666432 $392 18.50755386666432 $379 $504 forward 7 unknown #
coedge $-1 $268 $498 $494 $505 forward $377 $-1 #
vertex $-1 $269 $506 #
straight-curve $-1 -33.987698781600088 -19.863929695566014 -18.50755386666432 1 0 0 I I #
coedge $-1 $380 $270 $495 $507 forward $160 $-1 #
vertex $-1 $507 $508 #
straight-curve $-1 -33.987698781600088 -19.863929695566014 18.50755386666432 -1 0 0 I I #
point $-1 -63.1751366895584 -19.863929695566014 18.50755386666432 #
point $-1 -63.1751366895584 -19.863929695566014 -18.50755386666432 #
plane-surface $-1 0 0 18.50755386666432 0 0 1 1 0 0 forward_v I I I I #
coedge $-1 $410 $409 $402 $509 forward $276 $-1 #
coedge $-1 $402 $278 $280 $406 reversed $168 $-1 #
coedge $-1 $278 $401 $400 $509 reversed $168 $-1 #
coedge $-1 $286 $281 $278 $404 forward $287 $-1 #
edge $-1 $407 -32.974557490987529 $510 -22.488915829389967 $403 $511 forward 7 unknown #
coedge $-1 $280 $279 $410 $512 reversed $105 $-1 #
edge $-1 $513 2.4161062406544664e-014 $407 17.839239452916996 $401 $514 forward 7 unknown #
vertex $-1 $282 $515 #
straight-curve $-1 -62.290016775244389 1.5523899039504983 18.50755386666432 0 1 0 I I #
coedge $-1 $400 $283 $286 $414 reversed $276 $-1 #
coedge $-1 $283 $400 $405 $512 forward $276 $-1 #
vertex $-1 $284 $516 #
straight-curve $-1 -72.775658436841951 -2.6213004794551651 44.814110853574533 0 0 1 I I #
straight-curve $-1 -72.775658436841965 -2.6213004794551651 4.0753058365381918 -0.5877852410284794 0 -0.80901700255871778 I I #
edge $-1 $510 -8.8308600952571581 $288 2.6213004794551651 $409 $517 forward 7 unknown #
point $-1 -72.775658436841951 -2.6213004794551651 18.50755386666432 #
point $-1 -62.290016775244389 -2.6213004794551651 18.50755386666432 #
edge $-1 $518 1 $518 0 $291 $-1 forward 7 unknown #
vertex $-1 $292 $519 #
ellipse-curve $-1 -66.723820603484441 -0.33086836451270329 10.703644610572773 -0.80901700255871778 0 0.5877852410284794 0.14694631025711985 0 0.20225425063967944 1 I I #
point $-1 -67.385891295786038 -0.33086836451270329 11.493684102240932 #
edge $-1 $520 1 $520 0 $295 $-1 forward 7 unknown #
vertex $-1 $296 $521 #
ellipse-curve $-1 -66.723820603484441 3.1047798079009965 10.703644610572773 -0.80901700255871778 0 0.5877852410284794 0.14694631025711985 0 0.20225425063967944 1 I I #
point $-1 -67.385891295786038 3.1047798079009965 11.493684102240932 #
edge $-1 $522 1 $522 0 $299 $-1 forward 7 unknown #
vertex $-1 $300 $523 #
ellipse-curve $-1 -66.723820603484441 6.5404279803146963 10.703644610572773 -0.80901700255871778 0 0.5877852410284794 0.14694631025711985 0 0.20225425063967944 1 I I #
point $-1 -67.385891295786038 6.5404279803146963 11.493684102240932 #
loop $-1 $-1 $310 $303 #
plane-surface $-1 -72.775658436841951 0 0 1 0 0 0 0 -1 forward_v I I I I #
coedge $-1 $524 $525 $307 $433 forward $304 $-1 #
coedge $-1 $307 $306 $438 $526 reversed $124 $-1 #
edge $-1 $435 1.9004936585426397 $527 19.739733111459611 $431 $528 forward 7 unknown #
coedge $-1 $313 $308 $525 $529 forward $197 $-1 #
vertex $-1 $529 $530 #
straight-curve $-1 -62.290016775244389 15.899784799362088 18.50755386666432 0 1 0 I I #
coedge $-1 $531 $310 $313 $442 reversed $429 $-1 #
coedge $-1 $310 $531 $432 $526 forward $429 $-1 #
vertex $-1 $311 $532 #
straight-curve $-1 -72.775658436841951 26.073489311368014 44.814110853574533 0 0 1 I I #
straight-curve $-1 -72.775658436841965 26.073489311368014 4.0753058365381918 -0.5877852410284794 0 -0.80901700255871778 I I #
edge $-1 $533 -37.52564988608033 $314 -26.073489311368014 $437 $534 forward 7 unknown #
point $-1 -72.775658436841951 26.073489311368014 18.50755386666432 #
point $-1 -62.290016775244389 26.073489311368014 18.50755386666432 #
edge $-1 $535 1 $535 0 $317 $-1 forward 7 unknown #
vertex $-1 $318 $536 #
ellipse-curve $-1 -66.723820603484441 28.363921426310469 10.703644610572773 -0.80901700255871778 0 0.5877852410284794 0.14694631025711985 0 0.20225425063967944 1 I I #
point $-1 -67.385891295786038 28.363921426310469 11.493684102240932 #
edge $-1 $537 1 $537 0 $321 $-1 forward 7 unknown #
vertex $-1 $322 $538 #
ellipse-curve $-1 -66.723820603484441 31.799569598724176 10.703644610572773 -0.80901700255871778 0 0.5877852410284794 0.14694631025711985 0 0.20225425063967944 1 I I #
point $-1 -67.385891295786038 31.799569598724176 11.493684102240932 #
edge $-1 $539 1 $539 0 $325 $-1 forward 7 unknown #
vertex $-1 $326 $540 #
ellipse-curve $-1 -66.723820603484441 35.235217771137869 10.703644610572773 -0.80901700255871778 0 0.5877852410284794 0.14694631025711985 0 0.20225425063967944 1 I I #
point $-1 -67.385891295786038 35.235217771137869 11.493684102240932 #
plane-surface $-1 72.775658436841951 0 0 -1 0 0 0 0 1 forward_v I I I I #
coedge $-1 $541 $542 $334 $462 forward $330 $-1 #
coedge $-1 $332 $466 $541 $543 forward $226 $-1 #
coedge $-1 $334 $333 $332 $461 reversed $143 $-1 #
edge $-1 $544 -21.947906325137893 $467 -9.2075807967469814 $332 $545 forward 7 unknown #
edge $-1 $464 -101.59282637547585 $544 -75.34429159135307 $458 $546 forward 7 unknown #
coedge $-1 $340 $335 $542 $547 reversed $341 $-1 #
vertex $-1 $336 $548 #
straight-curve $-1 72.775658436841951 15.577743560942437 3.4520126317163502 0 1 0 I I #
coedge $-1 $459 $337 $340 $470 forward $226 $-1 #
vertex $-1 $338 $549 #
straight-curve $-1 18.51590356937335 24.785324357689419 18.507553866664324 1 0 0 I I #
straight-curve $-1 -46.452999575806871 24.785324357689419 86.936819346269928 -0.81915203911291934 0 0.57357644374324357 I I #
edge $-1 $342 24.785324357689419 $550 37.52564988608033 $340 $551 forward 7 unknown #
point $-1 72.775658436841951 24.785324357689419 18.50755386666432 #
point $-1 72.775658436841965 24.785324357689419 3.4520126317163573 #
edge $-1 $552 1 $552 0 $345 $-1 forward 7 unknown #
vertex $-1 $346 $553 #
ellipse-curve $-1 55.473754764276748 31.155487121884875 1.6237954981600282 0.57357644374324357 0 0.81915203911291934 2.4574561173387579 0 -1.7207293312297307 1 I I #
point $-1 64.482344158110422 31.155487121884875 9.2590539179606033 #
plane-surface $-1 72.775658436841951 0 0 -1 0 0 0 0 1 forward_v I I I I #
coedge $-1 $354 $352 $356 $482 reversed $241 $-1 #
edge $-1 $367 -18.50755386666432 $484 18.50755386666432 $366 $554 forward 7 unknown #
vertex $-1 $482 $555 #
straight-curve $-1 -72.775658436841951 -37.52564988608033 0 0 0 -1 I I #
edge $-1 $480 -37.52564988608033 $484 37.52564988608033 $478 $556 forward 7 unknown #
straight-curve $-1 0 -37.52564988608033 -18.50755386666432 -1 0 0 I I #
vertex $-1 $359 $557 #
straight-curve $-1 0 37.52564988608033 -18.50755386666432 1 0 0 I I #
point $-1 72.775658436841951 37.52564988608033 -18.50755386666432 #
point $-1 72.775658436841951 -37.52564988608033 -18.50755386666432 #
straight-curve $-1 -72.775658436841951 0 18.50755386666432 0 -1 0 I I #
point $-1 -72.775658436841951 37.52564988608033 18.50755386666432 #
point $-1 -72.775658436841951 -37.52564988608033 18.50755386666432 #
straight-curve $-1 72.775658436841951 -37.52564988608033 0 0 0 -1 I I #
straight-curve $-1 72.775658436841951 37.52564988608033 0 0 0 -1 I I #
plane-surface $-1 0 -37.52564988608033 0 0 1 0 0 0 1 forward_v I I I I #
coedge $-1 $558 $379 $391 $505 reversed $260 $-1 #
coedge $-1 $379 $558 $394 $507 reversed $260 $-1 #
edge $-1 $559 -72.775658436841951 $388 -63.1751366895584 $384 $560 forward 7 unknown #
straight-curve $-1 -63.1751366895584 -14.347394895411586 18.50755386666432 0 1 0 I I #
coedge $-1 $391 $382 $385 $501 forward $377 $-1 #
straight-curve $-1 -63.1751366895584 -14.347394895411586 -18.50755386666432 0 -1 0 I I #
coedge $-1 $385 $384 $558 $561 forward $386 $-1 #
edge $-1 $387 63.1751366895584 $562 72.775658436841951 $385 $563 forward 7 unknown #
point $-1 -63.1751366895584 -37.52564988608033 -18.50755386666432 #
point $-1 -63.1751366895584 -37.52564988608033 18.50755386666432 #
straight-curve $-1 -72.775658436841951 -19.863929695566014 0 0 0 -1 I I #
edge $-1 $562 -37.52564988608033 $392 -19.863929695566014 $494 $564 forward 7 unknown #
point $-1 -72.775658436841951 -19.863929695566014 -18.50755386666432 #
edge $-1 $395 19.863929695566014 $559 37.52564988608033 $495 $565 forward 7 unknown #
point $-1 -72.775658436841951 -19.863929695566014 18.50755386666432 #
edge $-1 $510 26.306556986910213 $513 40.73880501703632 $400 $566 forward 7 unknown #
vertex $-1 $414 $567 #
straight-curve $-1 -95.264574266231918 8.8308600952571581 18.507553866664324 -1 0 0 I I #
edge $-1 $513 -7.2784701913066598 $411 4.1736903834056633 $410 $568 forward 7 unknown #
vertex $-1 $512 $569 #
straight-curve $-1 -72.775658436841965 8.8308600952571581 4.0753058365381918 0.5877852410284794 0 0.80901700255871778 I I #
point $-1 -62.290016775244389 8.8308600952571581 18.50755386666432 #
point $-1 -72.775658436841951 -2.6213004794551651 4.0753058365382113 #
straight-curve $-1 -72.775658436841951 0 18.50755386666432 0 -1 0 I I #
vertex $-1 $417 $570 #
point $-1 -66.57687429322732 -0.33086836451270329 10.905898861212453 #
vertex $-1 $421 $571 #
point $-1 -66.57687429322732 3.1047798079009965 10.905898861212453 #
vertex $-1 $425 $572 #
point $-1 -66.57687429322732 6.5404279803146963 10.905898861212453 #
coedge $-1 $525 $431 $531 $573 reversed $304 $-1 #
coedge $-1 $431 $524 $434 $529 reversed $304 $-1 #
edge $-1 $527 -21.62586508671825 $439 -10.173704512005926 $438 $574 forward 7 unknown #
vertex $-1 $433 $575 #
straight-curve $-1 -61.172934652084805 37.52564988608033 20.045085549680337 -0.5877852410284794 0 -0.80901700255871778 I I #
edge $-1 $435 62.290016775244389 $533 72.775658436841951 $525 $576 forward 7 unknown #
point $-1 -62.290016775244389 37.525649886080338 18.50755386666432 #
coedge $-1 $438 $437 $524 $573 forward $429 $-1 #
point $-1 -72.775658436841951 26.073489311368014 4.0753058365382113 #
vertex $-1 $529 $577 #
straight-curve $-1 -72.775658436841951 0 18.50755386666432 0 -1 0 I I #
vertex $-1 $445 $578 #
point $-1 -66.57687429322732 28.363921426310469 10.905898861212453 #
vertex $-1 $449 $579 #
point $-1 -66.57687429322732 31.799569598724176 10.905898861212453 #
vertex $-1 $453 $580 #
point $-1 -66.57687429322732 35.235217771137869 10.905898861212453 #
coedge $-1 $542 $458 $459 $543 reversed $330 $-1 #
coedge $-1 $458 $541 $463 $547 forward $330 $-1 #
edge $-1 $550 -72.775658436841951 $544 -51.274117644701391 $541 $581 forward 7 unknown #
vertex $-1 $462 $582 #
straight-curve $-1 51.274117644701406 15.577743560942437 18.507553866664331 0 -1 0 I I #
straight-curve $-1 -10.444312447873859 37.52564988608033 61.723264693986593 -0.81915203911291934 0 0.57357644374324357 I I #
edge $-1 $550 -18.50755386666432 $464 -3.4520126317163498 $463 $583 forward 7 unknown #
point $-1 72.775658436841951 37.52564988608033 3.4520126317163498 #
point $-1 51.274117644701391 24.785324357689419 18.507553866664324 #
vertex $-1 $470 $584 #
straight-curve $-1 72.775658436841951 0 18.50755386666432 0 1 0 I I #
vertex $-1 $473 $585 #
point $-1 57.931210881615506 31.155487121884875 -0.096933833069702491 #
straight-curve $-1 -72.775658436841951 37.52564988608033 0 0 0 -1 I I #
point $-1 -72.775658436841951 -37.52564988608033 -18.50755386666432 #
straight-curve $-1 -72.775658436841951 0 -18.50755386666432 0 1 0 I I #
point $-1 -72.775658436841951 37.52564988608033 -18.50755386666432 #
coedge $-1 $495 $494 $500 $561 reversed $260 $-1 #
vertex $-1 $507 $586 #
straight-curve $-1 0 -37.52564988608033 18.50755386666432 1 0 0 I I #
edge $-1 $559 -18.50755386666432 $562 18.50755386666432 $558 $587 forward 7 unknown #
vertex $-1 $505 $588 #
straight-curve $-1 0 -37.52564988608033 -18.50755386666432 -1 0 0 I I #
straight-curve $-1 -72.775658436841951 0 -18.50755386666432 0 1 0 I I #
straight-curve $-1 -72.775658436841951 0 18.50755386666432 0 -1 0 I I #
straight-curve $-1 -72.775658436841951 8.8308600952571581 44.814110853574533 0 0 -1 I I #
point $-1 -72.775658436841951 8.8308600952571581 18.50755386666432 #
straight-curve $-1 -72.775658436841951 1.5523899039504983 4.0753058365382016 0 -1 0 I I #
point $-1 -72.775658436841951 8.8308600952571581 4.0753058365382113 #
point $-1 -66.521566352844772 -0.33086836451270329 10.556698300315652 #
point $-1 -66.521566352844772 3.1047798079009965 10.556698300315652 #
point $-1 -66.521566352844772 6.5404279803146963 10.556698300315652 #
edge $-1 $533 -18.50755386666432 $527 -4.0753058365382113 $524 $589 forward 7 unknown #
straight-curve $-1 -72.775658436841951 15.899784799362088 4.0753058365382016 0 -1 0 I I #
point $-1 -72.775658436841951 37.525649886080338 4.0753058365382113 #
straight-curve $-1 0 37.52564988608033 18.50755386666432 -1 0 0 I I #
point $-1 -72.775658436841951 37.52564988608033 18.50755386666432 #
point $-1 -66.521566352844772 28.363921426310469 10.556698300315652 #
point $-1 -66.521566352844772 31.799569598724176 10.556698300315652 #
point $-1 -66.521566352844772 35.235217771137869 10.556698300315652 #
straight-curve $-1 0 37.52564988608033 18.50755386666432 -1 0 0 I I #
point $-1 51.274117644701391 37.52564988608033 18.507553866664324 #
straight-curve $-1 72.775658436841951 37.52564988608033 0 0 0 -1 I I #
point $-1 72.775658436841951 37.52564988608033 18.50755386666432 #
point $-1 53.753025433047014 31.155487121884875 -0.83366061917872969 #
point $-1 -72.775658436841951 -37.52564988608033 18.50755386666432 #
straight-curve $-1 -72.775658436841951 -37.52564988608033 0 0 0 -1 I I #
point $-1 -72.775658436841951 -37.52564988608033 -18.50755386666432 #
straight-curve $-1 -72.775658436841951 37.52564988608033 0 0 0 -1 I I #
End-of-ACIS-data 