500 0 7 0           
7 Unknown 11 ACIS 5.0 NT 24 Thu Mar 25 16:49:45 1999 
-1 9.9999999999999995e-007 1e-010 
body $-1 $7 $-1 $8 #
body $-1 $9 $-1 $10 #
body $-1 $11 $-1 $12 #
body $-1 $13 $-1 $14 #
body $-1 $15 $-1 $16 #
body $-1 $17 $-1 $18 #
body $-1 $19 $-1 $20 #
lump $-1 $-1 $21 $0 #
transform $-1 1 0 0 0 1 0 0 0 1 56.704611346781824 38.354308975523999 18.231845490031564 1 rotate no_reflect no_shear #
lump $-1 $-1 $22 $1 #
transform $-1 1 0 0 0 1 0 0 0 1 56.704611346781824 38.354308975523999 18.231845490031564 1 rotate no_reflect no_shear #
lump $-1 $-1 $23 $2 #
transform $-1 1 0 0 0 1 0 0 0 1 56.704611346781824 38.354308975523999 18.231845490031564 1 rotate no_reflect no_shear #
lump $-1 $-1 $24 $3 #
transform $-1 1 0 0 0 1 0 0 0 1 56.704611346781824 38.354308975523999 18.231845490031564 1 rotate no_reflect no_shear #
lump $-1 $-1 $25 $4 #
transform $-1 1 0 0 0 1 0 0 0 1 56.704611346781824 38.354308975523999 18.231845490031564 1 rotate no_reflect no_shear #
lump $-1 $-1 $26 $5 #
transform $-1 1 0 0 0 1 0 0 0 1 56.704611346781824 38.354308975523999 18.231845490031564 1 rotate no_reflect no_shear #
lump $-1 $-1 $27 $6 #
transform $-1 1 0 0 0 1 0 0 0 1 56.704611346781824 38.354308975523999 18.231845490031564 1 rotate no_reflect no_shear #
shell $-1 $-1 $-1 $28 $-1 $7 #
shell $-1 $-1 $-1 $29 $-1 $9 #
shell $-1 $-1 $-1 $30 $-1 $11 #
shell $-1 $-1 $-1 $31 $-1 $13 #
shell $-1 $-1 $-1 $32 $-1 $15 #
shell $-1 $-1 $-1 $33 $-1 $17 #
shell $-1 $-1 $-1 $34 $-1 $19 #
face $-1 $35 $36 $21 $-1 $37 forward single #
face $-1 $38 $39 $22 $-1 $40 forward single #
face $-1 $41 $42 $23 $-1 $43 reversed single #
face $-1 $44 $45 $24 $-1 $46 forward single #
face $-1 $47 $48 $25 $-1 $49 reversed single #
face $-1 $50 $51 $26 $-1 $52 forward single #
face $-1 $53 $54 $27 $-1 $55 forward single #
face $-1 $56 $57 $21 $-1 $58 reversed single #
loop $-1 $-1 $59 $28 #
plane-surface $-1 0 0 18.231845490031564 0 0 1 1 0 0 forward_v I I I I #
face $-1 $60 $61 $22 $-1 $62 reversed single #
loop $-1 $-1 $63 $29 #
plane-surface $-1 0 -38.354308975523999 0 0 1 0 0 0 1 forward_v I I I I #
face $-1 $64 $65 $23 $-1 $66 reversed single #
loop $-1 $-1 $67 $30 #
plane-surface $-1 79.025871946106435 17.564030568814225 164.65140606340788 0 -1 0 -0.79863551827123203 0 -0.60181501223851219 forward_v I I I I #
face $-1 $68 $69 $24 $-1 $70 forward single #
loop $-1 $71 $72 $31 #
cone-surface $-1 50.542042206233347 11.73822429853913 10.907686888633332 -0.79863551827123203 0 -0.60181501223851219 0.90272251835776829 0 -1.197953277406848 1 I I 0 1 1.5 forward I I I I #
face $-1 $73 $74 $25 $-1 $75 reversed single #
loop $-1 $-1 $76 $32 #
plane-surface $-1 -139.64686709875502 -15.785835949389455 83.929548762255436 0 1 0 -0.73135370988377701 0 0.68199835119979291 forward_v I I I I #
face $-1 $77 $78 $26 $-1 $79 forward single #
loop $-1 $80 $81 $33 #
cone-surface $-1 -50.638381662468994 -13.381838009157498 11.815506339440212 0.73135370988377701 0 -0.68199835119979291 0.34099917559989645 0 0.36567685494188851 1 I I 0 1 0.5 forward I I I I #
face $-1 $82 $83 $27 $-1 $84 forward single #
loop $-1 $85 $86 $34 #
cone-surface $-1 -50.638381662468994 -9.7758410988095612 11.815506339440212 0.73135370988377701 0 -0.68199835119979291 0.34099917559989645 0 0.36567685494188851 1 I I 0 1 0.5 forward I I I I #
face $-1 $87 $88 $21 $-1 $89 reversed single #
loop $-1 $-1 $90 $35 #
plane-surface $-1 0 0 -18.231845490031564 0 0 1 1 0 0 forward_v I I I I #
coedge $-1 $91 $92 $93 $94 forward $36 $-1 #
face $-1 $95 $96 $22 $-1 $97 reversed single #
loop $-1 $-1 $98 $38 #
plane-surface $-1 0 0 -18.231845490031564 0 0 1 1 0 0 forward_v I I I I #
coedge $-1 $99 $100 $101 $102 forward $39 $-1 #
face $-1 $103 $104 $23 $-1 $105 reversed single #
loop $-1 $-1 $106 $41 #
plane-surface $-1 -11.546761396505332 11.73822429853913 96.400033320120713 0.79863551827123203 0 0.60181501223851219 0.60181501223851219 0 -0.79863551827123203 forward_v I I I I #
coedge $-1 $107 $108 $109 $110 reversed $42 $-1 #
face $-1 $-1 $111 $24 $-1 $112 forward single #
loop $-1 $113 $114 $44 #
cone-surface $-1 48.454206371719614 11.73822429853913 9.3343897843175192 -0.79863551827123203 0 -0.60181501223851219 0.45136125917888414 0 -0.59897663870342399 1 I I -0.70710678118654757 0.70710678118654757 0.75 forward I I I I #
loop $-1 $-1 $115 $31 #
coedge $-1 $72 $72 $116 $117 reversed $45 $-1 #
face $-1 $118 $119 $25 $-1 $120 reversed single #
loop $-1 $-1 $121 $47 #
plane-surface $-1 -56.704611346781817 -11.578839553983528 6.5846458743948943 -0.73135370988377701 0 0.68199835119979291 0.68199835119979291 0 0.73135370988377701 forward_v I I I I #
coedge $-1 $122 $123 $124 $125 reversed $48 $-1 #
face $-1 $-1 $126 $26 $-1 $127 forward single #
loop $-1 $128 $129 $50 #
cone-surface $-1 -49.819908095164521 -13.381838009157498 11.052267408867252 0.73135370988377701 0 -0.68199835119979291 0.17049958779994823 0 0.18283842747094425 1 I I -0.70710678118654746 0.70710678118654746 0.25 forward I I I I #
loop $-1 $-1 $130 $33 #
coedge $-1 $81 $81 $131 $132 reversed $51 $-1 #
face $-1 $-1 $133 $27 $-1 $134 forward single #
loop $-1 $135 $136 $53 #
cone-surface $-1 -49.819908095164521 -9.7758410988095612 11.052267408867252 0.73135370988377701 0 -0.68199835119979291 0.17049958779994823 0 0.18283842747094425 1 I I -0.70710678118654746 0.70710678118654746 0.25 forward I I I I #
loop $-1 $-1 $137 $34 #
coedge $-1 $86 $86 $138 $139 reversed $54 $-1 #
face $-1 $140 $141 $21 $-1 $142 reversed single #
loop $-1 $-1 $143 $56 #
plane-surface $-1 0 -38.354308975523999 0 0 1 0 0 0 1 forward_v I I I I #
coedge $-1 $144 $145 $146 $147 forward $57 $-1 #
coedge $-1 $148 $59 $149 $150 forward $36 $-1 #
coedge $-1 $59 $148 $151 $152 forward $36 $-1 #
coedge $-1 $153 $154 $59 $94 reversed $155 $-1 #
edge $-1 $156 -38.354308975523999 $157 38.354308975523999 $93 $158 forward 7 unknown #
face $-1 $159 $160 $22 $-1 $161 reversed single #
loop $-1 $-1 $162 $60 #
plane-surface $-1 -23.957675171518098 -60.92278200165854 0 0 1 0 0 0 1 forward_v I I I I #
coedge $-1 $163 $164 $100 $165 forward $61 $-1 #
coedge $-1 $166 $63 $167 $168 reversed $39 $-1 #
coedge $-1 $63 $166 $98 $165 reversed $39 $-1 #
coedge $-1 $169 $170 $63 $102 reversed $160 $-1 #
edge $-1 $171 -18.231845490031564 $172 18.231845490031564 $101 $173 forward 7 unknown #
face $-1 $174 $175 $23 $-1 $176 forward single #
loop $-1 $-1 $177 $64 #
plane-surface $-1 79.025871946106435 5.9124180282640353 164.65140606340788 0 1 0 0.79863551827123203 0 0.60181501223851219 forward_v I I I I #
coedge $-1 $178 $179 $180 $181 reversed $65 $-1 #
coedge $-1 $108 $67 $182 $183 reversed $42 $-1 #
coedge $-1 $67 $107 $178 $184 reversed $42 $-1 #
coedge $-1 $180 $185 $67 $110 forward $175 $-1 #
edge $-1 $186 -17.191675373728607 $187 -7.8442554842522725 $109 $188 forward 7 unknown #
loop $-1 $-1 $116 $68 #
plane-surface $-1 -11.546761396505332 11.73822429853913 96.400033320120713 0.79863551827123203 0 0.60181501223851219 0.60181501223851219 0 -0.79863551827123203 forward_v I I I I #
loop $-1 $-1 $189 $44 #
coedge $-1 $114 $114 $115 $190 reversed $69 $-1 #
coedge $-1 $115 $115 $114 $190 forward $71 $-1 #
coedge $-1 $116 $116 $72 $117 forward $111 $-1 #
edge $-1 $191 0 $191 6.2831853071796004 $116 $192 forward 7 unknown #
face $-1 $193 $194 $25 $-1 $195 reversed single #
loop $-1 $-1 $196 $73 #
plane-surface $-1 -139.64686709875502 -7.371843158577601 83.929548762255436 0 -1 0 0.73135370988377701 0 -0.68199835119979291 forward_v I I I I #
coedge $-1 $197 $198 $199 $200 reversed $74 $-1 #
coedge $-1 $123 $76 $201 $202 reversed $48 $-1 #
coedge $-1 $76 $122 $197 $203 reversed $48 $-1 #
coedge $-1 $199 $204 $76 $125 forward $205 $-1 #
edge $-1 $206 13.118822202595688 $207 23.980011291554291 $124 $208 forward 7 unknown #
loop $-1 $-1 $131 $77 #
plane-surface $-1 -56.704611346781817 -11.578839553983528 6.5846458743948943 -0.73135370988377701 0 0.68199835119979291 0.68199835119979291 0 0.73135370988377701 forward_v I I I I #
loop $-1 $-1 $209 $50 #
coedge $-1 $129 $129 $130 $210 reversed $78 $-1 #
coedge $-1 $130 $130 $129 $210 forward $80 $-1 #
coedge $-1 $131 $131 $81 $132 forward $126 $-1 #
edge $-1 $211 0 $211 6.2831853071796004 $131 $212 forward 7 unknown #
loop $-1 $-1 $138 $82 #
plane-surface $-1 -56.704611346781817 -11.578839553983528 6.5846458743948943 -0.73135370988377701 0 0.68199835119979291 0.68199835119979291 0 0.73135370988377701 forward_v I I I I #
loop $-1 $-1 $213 $53 #
coedge $-1 $136 $136 $137 $214 reversed $83 $-1 #
coedge $-1 $137 $137 $136 $214 forward $85 $-1 #
coedge $-1 $138 $138 $86 $139 forward $133 $-1 #
edge $-1 $215 0 $215 6.2831853071796004 $138 $216 forward 7 unknown #
face $-1 $217 $218 $21 $-1 $219 reversed single #
loop $-1 $-1 $220 $87 #
plane-surface $-1 -56.704611346781824 0 0 1 0 0 0 0 -1 forward_v I I I I #
coedge $-1 $221 $151 $222 $223 forward $88 $-1 #
coedge $-1 $224 $90 $221 $225 forward $57 $-1 #
coedge $-1 $90 $224 $226 $227 forward $57 $-1 #
coedge $-1 $154 $153 $90 $147 reversed $155 $-1 #
edge $-1 $228 -38.354308975523999 $229 38.354308975523999 $146 $230 forward 7 unknown #
coedge $-1 $92 $91 $231 $232 forward $36 $-1 #
coedge $-1 $233 $234 $91 $150 reversed $218 $-1 #
edge $-1 $157 -56.704611346781824 $235 56.704611346781824 $149 $236 forward 7 unknown #
coedge $-1 $143 $237 $92 $152 reversed $88 $-1 #
edge $-1 $238 -56.704611346781824 $156 56.704611346781824 $151 $239 forward 7 unknown #
coedge $-1 $146 $93 $237 $240 forward $155 $-1 #
coedge $-1 $93 $146 $233 $241 reversed $155 $-1 #
loop $-1 $-1 $153 $217 #
vertex $-1 $94 $242 #
vertex $-1 $94 $243 #
straight-curve $-1 56.704611346781824 0 18.231845490031564 0 1 0 I I #
face $-1 $244 $245 $22 $-1 $246 reversed single #
loop $-1 $-1 $101 $95 #
plane-surface $-1 -27.674429976317494 -49.638545488591269 0 1 0 0 0 0 -1 forward_v I I I I #
coedge $-1 $247 $248 $249 $250 forward $96 $-1 #
coedge $-1 $251 $98 $252 $253 forward $61 $-1 #
coedge $-1 $98 $251 $169 $254 forward $61 $-1 #
edge $-1 $171 -27.674429976317494 $255 -20.240920366718701 $98 $256 forward 7 unknown #
coedge $-1 $100 $99 $257 $258 forward $39 $-1 #
coedge $-1 $259 $260 $99 $168 forward $261 $-1 #
edge $-1 $262 20.240920366718701 $172 27.674429976317494 $167 $263 forward 7 unknown #
coedge $-1 $249 $101 $164 $254 reversed $160 $-1 #
coedge $-1 $101 $249 $259 $264 reversed $160 $-1 #
vertex $-1 $165 $265 #
vertex $-1 $264 $266 #
straight-curve $-1 -27.674429976317494 -38.354308975523999 0 0 0 1 I I #
face $-1 $-1 $267 $23 $-1 $268 reversed single #
loop $-1 $-1 $109 $103 #
plane-surface $-1 0 0 18.231845490031564 0 0 1 1 0 0 forward_v I I I I #
coedge $-1 $269 $270 $271 $272 reversed $104 $-1 #
coedge $-1 $273 $106 $108 $184 forward $65 $-1 #
coedge $-1 $106 $273 $269 $274 forward $65 $-1 #
coedge $-1 $271 $109 $106 $181 forward $175 $-1 #
edge $-1 $187 -11.69491841954466 $275 -0.043305878994470248 $180 $276 forward 7 unknown #
coedge $-1 $277 $278 $107 $183 forward $267 $-1 #
edge $-1 $279 -76.498303054194992 $186 -64.093857541672378 $182 $280 forward 7 unknown #
edge $-1 $187 97.877174307619171 $279 113.40922269356363 $108 $281 forward 7 unknown #
coedge $-1 $109 $271 $277 $282 forward $175 $-1 #
vertex $-1 $110 $283 #
vertex $-1 $110 $284 #
straight-curve $-1 39.512935973053217 17.564030568814225 18.23184549003156 -1 0 0 I I #
coedge $-1 $189 $189 $-1 $285 reversed $113 $-1 #
edge $-1 $286 0 $286 6.2831853071796004 $114 $287 forward 7 unknown #
vertex $-1 $117 $288 #
ellipse-curve $-1 52.030901402043654 11.73822429853913 12.02962273377026 0.79863551827123203 0 0.60181501223851219 0.90272251835776829 0 -1.197953277406848 1 I I #
face $-1 $-1 $205 $25 $-1 $289 forward single #
loop $-1 $-1 $290 $118 #
plane-surface $-1 -56.704611346781824 0 0 1 0 0 0 0 -1 forward_v I I I I #
coedge $-1 $291 $292 $293 $294 reversed $119 $-1 #
coedge $-1 $295 $121 $123 $203 forward $74 $-1 #
coedge $-1 $121 $295 $291 $296 forward $74 $-1 #
coedge $-1 $293 $124 $121 $200 forward $205 $-1 #
edge $-1 $207 -9.9964161723976908 $297 -1.5824233815858371 $199 $298 forward 7 unknown #
coedge $-1 $299 $300 $122 $202 forward $194 $-1 #
edge $-1 $301 -35.380128506732831 $206 -23.732928891096154 $201 $302 forward 7 unknown #
edge $-1 $207 -15.925535699391723 $301 1.0692042983031357e-014 $123 $303 forward 7 unknown #
coedge $-1 $124 $293 $299 $304 forward $205 $-1 #
loop $-1 $-1 $293 $193 #
vertex $-1 $202 $305 #
vertex $-1 $125 $306 #
straight-curve $-1 -69.823433549377512 -15.785835949389455 18.231845490031567 1 0 0 I I #
coedge $-1 $209 $209 $-1 $307 reversed $128 $-1 #
edge $-1 $308 0 $308 6.2831853071796004 $129 $309 forward 7 unknown #
vertex $-1 $132 $310 #
ellipse-curve $-1 -51.274016802302519 -13.381838009157498 12.408245682213225 -0.73135370988377701 0 0.68199835119979291 0.34099917559989645 0 0.36567685494188851 1 I I #
coedge $-1 $213 $213 $-1 $311 reversed $135 $-1 #
edge $-1 $312 0 $312 6.2831853071796004 $136 $313 forward 7 unknown #
vertex $-1 $139 $314 #
ellipse-curve $-1 -51.274016802302519 -9.7758410988095612 12.408245682213225 -0.73135370988377701 0 0.68199835119979291 0.34099917559989645 0 0.36567685494188851 1 I I #
face $-1 $-1 $155 $21 $-1 $315 reversed single #
loop $-1 $-1 $233 $140 #
plane-surface $-1 0 38.354308975523999 0 0 -1 0 0 0 -1 forward_v I I I I #
coedge $-1 $316 $231 $234 $317 forward $141 $-1 #
coedge $-1 $237 $143 $144 $225 reversed $88 $-1 #
coedge $-1 $231 $316 $143 $223 reversed $141 $-1 #
edge $-1 $238 -18.231845490031564 $318 18.231845490031564 $222 $319 forward 7 unknown #
coedge $-1 $145 $144 $316 $320 forward $57 $-1 #
edge $-1 $229 -56.704611346781824 $318 56.704611346781824 $221 $321 forward 7 unknown #
coedge $-1 $234 $233 $145 $227 reversed $218 $-1 #
edge $-1 $322 -56.704611346781824 $228 56.704611346781824 $226 $323 forward 7 unknown #
vertex $-1 $147 $324 #
vertex $-1 $240 $325 #
straight-curve $-1 56.704611346781824 0 -18.231845490031564 0 -1 0 I I #
coedge $-1 $220 $222 $148 $232 reversed $141 $-1 #
edge $-1 $235 -38.354308975523999 $238 38.354308975523999 $231 $326 forward 7 unknown #
coedge $-1 $226 $149 $154 $241 forward $218 $-1 #
coedge $-1 $149 $226 $220 $317 reversed $218 $-1 #
vertex $-1 $150 $327 #
straight-curve $-1 0 38.354308975523999 18.231845490031564 -1 0 0 I I #
coedge $-1 $151 $221 $153 $240 reversed $88 $-1 #
vertex $-1 $232 $328 #
straight-curve $-1 0 -38.354308975523999 18.231845490031564 1 0 0 I I #
edge $-1 $156 -18.231845490031564 $229 18.231845490031564 $153 $329 forward 7 unknown #
edge $-1 $157 -18.231845490031564 $228 18.231845490031564 $154 $330 forward 7 unknown #
point $-1 56.704611346781824 -38.354308975523999 18.231845490031564 #
point $-1 56.704611346781824 38.354308975523999 18.231845490031564 #
face $-1 $-1 $261 $22 $-1 $331 forward single #
loop $-1 $-1 $332 $159 #
plane-surface $-1 -20.240920366718701 -49.638545488591269 0 -1 0 0 0 0 1 forward_v I I I I #
coedge $-1 $333 $162 $251 $334 reversed $96 $-1 #
coedge $-1 $162 $333 $335 $336 reversed $96 $-1 #
coedge $-1 $170 $169 $162 $250 reversed $160 $-1 #
edge $-1 $337 -18.231845490031564 $338 18.231845490031564 $249 $339 forward 7 unknown #
coedge $-1 $164 $163 $247 $334 forward $61 $-1 #
coedge $-1 $257 $332 $163 $253 reversed $245 $-1 #
edge $-1 $255 -11.28423651306727 $340 11.28423651306727 $252 $341 forward 7 unknown #
edge $-1 $338 -11.28423651306727 $171 11.28423651306727 $169 $342 forward 7 unknown #
vertex $-1 $253 $343 #
straight-curve $-1 0 -38.354308975523999 -18.231845490031564 1 0 0 I I #
coedge $-1 $344 $252 $166 $258 reversed $245 $-1 #
edge $-1 $262 -18.231845490031564 $255 18.231845490031564 $257 $345 forward 7 unknown #
coedge $-1 $335 $167 $170 $264 forward $261 $-1 #
coedge $-1 $167 $335 $344 $346 forward $261 $-1 #
loop $-1 $-1 $167 $244 #
vertex $-1 $168 $347 #
straight-curve $-1 0 -38.354308975523999 18.231845490031564 -1 0 0 I I #
edge $-1 $172 -11.28423651306727 $337 11.28423651306727 $170 $348 forward 7 unknown #
point $-1 -27.674429976317494 -38.354308975523999 -18.231845490031564 #
point $-1 -27.674429976317494 -38.354308975523999 18.231845490031564 #
loop $-1 $-1 $182 $174 #
plane-surface $-1 56.704611346781824 0 0 -1 0 0 0 0 1 forward_v I I I I #
coedge $-1 $270 $177 $179 $274 reversed $104 $-1 #
coedge $-1 $177 $269 $349 $350 reversed $104 $-1 #
coedge $-1 $185 $180 $177 $272 forward $175 $-1 #
edge $-1 $275 7.8442554842522725 $351 17.191675373728607 $271 $352 forward 7 unknown #
coedge $-1 $179 $178 $278 $353 reversed $65 $-1 #
edge $-1 $354 -113.40922269356363 $275 -97.877174307619171 $269 $355 forward 7 unknown #
vertex $-1 $181 $356 #
straight-curve $-1 47.35719145730549 5.869112149269565 18.231845490031567 0 -1 0 I I #
coedge $-1 $349 $182 $185 $282 reversed $267 $-1 #
coedge $-1 $182 $349 $273 $353 forward $267 $-1 #
vertex $-1 $183 $357 #
straight-curve $-1 56.704611346781824 17.564030568814225 82.325703031703938 0 0 1 I I #
straight-curve $-1 -11.546761396505332 17.564030568814225 96.400033320120713 0.60181501223851219 0 -0.79863551827123203 I I #
edge $-1 $351 5.9124180282640353 $186 17.564030568814225 $277 $358 forward 7 unknown #
point $-1 56.704611346781824 17.564030568814225 18.231845490031564 #
point $-1 47.35719145730549 17.564030568814225 18.23184549003156 #
edge $-1 $359 1 $359 0 $189 $-1 forward 7 unknown #
vertex $-1 $190 $360 #
ellipse-curve $-1 49.053183010423041 11.73822429853913 9.7857510434964041 0.79863551827123203 0 0.60181501223851219 0.90272251835776829 0 -1.197953277406848 1 I I #
point $-1 52.93362392040143 11.73822429853913 10.831669456363414 #
plane-surface $-1 0 0 18.231845490031564 0 0 1 1 0 0 forward_v I I I I #
coedge $-1 $300 $299 $292 $361 forward $194 $-1 #
coedge $-1 $292 $196 $198 $296 reversed $119 $-1 #
coedge $-1 $196 $291 $290 $361 reversed $119 $-1 #
coedge $-1 $204 $199 $196 $294 forward $205 $-1 #
edge $-1 $297 -23.980011291554291 $362 -13.118822202595688 $293 $363 forward 7 unknown #
coedge $-1 $198 $197 $300 $364 reversed $74 $-1 #
edge $-1 $365 -1.0692042983031357e-014 $297 15.925535699391723 $291 $366 forward 7 unknown #
vertex $-1 $200 $367 #
straight-curve $-1 -45.843422257823214 -5.7894197769917639 18.231845490031564 0 1 0 I I #
coedge $-1 $290 $201 $204 $304 reversed $194 $-1 #
coedge $-1 $201 $290 $295 $364 forward $194 $-1 #
vertex $-1 $202 $368 #
straight-curve $-1 -56.704611346781824 -15.785835949389455 41.964774381127718 0 0 1 I I #
straight-curve $-1 -56.704611346781817 -15.785835949389455 6.5846458743948943 -0.68199835119979291 0 -0.73135370988377701 I I #
edge $-1 $362 7.371843158577601 $206 15.785835949389455 $299 $369 forward 7 unknown #
point $-1 -56.704611346781824 -15.785835949389455 18.231845490031564 #
point $-1 -45.843422257823221 -15.785835949389455 18.231845490031564 #
edge $-1 $370 1 $370 0 $209 $-1 forward 7 unknown #
vertex $-1 $210 $371 #
ellipse-curve $-1 -50.002746522635462 -13.381838009157498 11.2227669966672 -0.73135370988377701 0 0.68199835119979291 0.34099917559989645 0 0.36567685494188851 1 I I #
point $-1 -50.933017626702622 -13.381838009157498 12.773922537155114 #
edge $-1 $372 1 $372 0 $213 $-1 forward 7 unknown #
vertex $-1 $214 $373 #
ellipse-curve $-1 -50.002746522635462 -9.7758410988095612 11.2227669966672 -0.73135370988377701 0 0.68199835119979291 0.34099917559989645 0 0.36567685494188851 1 I I #
point $-1 -50.933017626702622 -9.7758410988095612 12.773922537155114 #
plane-surface $-1 56.704611346781824 0 0 -1 0 0 0 0 1 forward_v I I I I #
coedge $-1 $222 $220 $224 $320 reversed $141 $-1 #
edge $-1 $235 -18.231845490031564 $322 18.231845490031564 $234 $374 forward 7 unknown #
vertex $-1 $320 $375 #
straight-curve $-1 -56.704611346781824 -38.354308975523999 0 0 0 -1 I I #
edge $-1 $318 -38.354308975523999 $322 38.354308975523999 $316 $376 forward 7 unknown #
straight-curve $-1 0 -38.354308975523999 -18.231845490031564 -1 0 0 I I #
vertex $-1 $227 $377 #
straight-curve $-1 0 38.354308975523999 -18.231845490031564 1 0 0 I I #
point $-1 56.704611346781824 38.354308975523999 -18.231845490031564 #
point $-1 56.704611346781824 -38.354308975523999 -18.231845490031564 #
straight-curve $-1 -56.704611346781824 0 18.231845490031564 0 -1 0 I I #
point $-1 -56.704611346781824 38.354308975523999 18.231845490031564 #
point $-1 -56.704611346781824 -38.354308975523999 18.231845490031564 #
straight-curve $-1 56.704611346781824 -38.354308975523999 0 0 0 -1 I I #
straight-curve $-1 56.704611346781824 38.354308975523999 0 0 0 -1 I I #
plane-surface $-1 0 0 18.231845490031564 0 0 1 1 0 0 forward_v I I I I #
coedge $-1 $252 $344 $333 $378 forward $245 $-1 #
coedge $-1 $248 $247 $332 $378 reversed $96 $-1 #
edge $-1 $340 -3.7167548047993968 $338 3.7167548047993968 $247 $379 forward 7 unknown #
coedge $-1 $260 $259 $248 $336 forward $261 $-1 #
edge $-1 $337 -3.7167548047993968 $380 3.7167548047993968 $248 $381 forward 7 unknown #
vertex $-1 $264 $382 #
vertex $-1 $254 $383 #
straight-curve $-1 -27.674429976317494 -60.92278200165854 0 0 0 -1 I I #
vertex $-1 $378 $384 #
straight-curve $-1 -20.240920366718701 -49.638545488591269 -18.231845490031564 0 -1 0 I I #
straight-curve $-1 -27.674429976317494 -49.638545488591269 -18.231845490031564 0 1 0 I I #
point $-1 -20.240920366718701 -38.354308975523999 -18.231845490031564 #
coedge $-1 $332 $257 $260 $346 reversed $245 $-1 #
straight-curve $-1 -20.240920366718701 -38.354308975523999 0 0 0 -1 I I #
edge $-1 $380 -11.28423651306727 $262 11.28423651306727 $344 $385 forward 7 unknown #
point $-1 -20.240920366718701 -38.354308975523999 18.231845490031564 #
straight-curve $-1 -27.674429976317494 -49.638545488591269 18.231845490031564 0 -1 0 I I #
coedge $-1 $278 $277 $270 $350 forward $267 $-1 #
edge $-1 $351 64.093857541672378 $354 76.498303054194992 $349 $386 forward 7 unknown #
vertex $-1 $282 $387 #
straight-curve $-1 39.512935973053217 5.9124180282640353 18.23184549003156 1 0 0 I I #
edge $-1 $354 0.043305878994470248 $279 11.69491841954466 $278 $388 forward 7 unknown #
vertex $-1 $353 $389 #
straight-curve $-1 -11.546761396505332 5.9124180282640353 96.400033320120713 -0.60181501223851219 0 0.79863551827123203 I I #
point $-1 47.35719145730549 5.9124180282640353 18.23184549003156 #
point $-1 56.704611346781832 17.564030568814225 5.8273999775089464 #
straight-curve $-1 56.704611346781824 0 18.231845490031564 0 1 0 I I #
vertex $-1 $285 $390 #
point $-1 49.955905528780804 11.73822429853913 8.5877977660895546 #
edge $-1 $362 23.732928891096154 $365 35.380128506732831 $290 $391 forward 7 unknown #
vertex $-1 $304 $392 #
straight-curve $-1 -69.823433549377512 -7.371843158577601 18.231845490031567 -1 0 0 I I #
edge $-1 $365 1.5824233815858371 $301 9.9964161723976908 $300 $393 forward 7 unknown #
vertex $-1 $364 $394 #
straight-curve $-1 -56.704611346781817 -7.371843158577601 6.5846458743948943 0.68199835119979291 0 0.73135370988377701 I I #
point $-1 -45.843422257823221 -7.371843158577601 18.231845490031564 #
point $-1 -56.704611346781824 -15.785835949389455 6.5846458743948864 #
straight-curve $-1 -56.704611346781824 0 18.231845490031564 0 -1 0 I I #
vertex $-1 $307 $395 #
point $-1 -49.661747347035572 -13.381838009157498 11.588443851609089 #
vertex $-1 $311 $396 #
point $-1 -49.661747347035572 -9.7758410988095612 11.588443851609089 #
straight-curve $-1 -56.704611346781824 38.354308975523999 0 0 0 -1 I I #
point $-1 -56.704611346781824 -38.354308975523999 -18.231845490031564 #
straight-curve $-1 -56.704611346781824 0 -18.231845490031564 0 1 0 I I #
point $-1 -56.704611346781824 38.354308975523999 -18.231845490031564 #
edge $-1 $380 -18.231845490031564 $340 18.231845490031564 $332 $397 forward 7 unknown #
straight-curve $-1 -23.957675171518098 -60.92278200165854 -18.231845490031564 -1 0 0 I I #
vertex $-1 $346 $398 #
straight-curve $-1 -23.957675171518098 -60.92278200165854 18.231845490031564 1 0 0 I I #
point $-1 -27.674429976317494 -60.92278200165854 18.231845490031564 #
point $-1 -27.674429976317494 -60.92278200165854 -18.231845490031564 #
point $-1 -20.240920366718701 -60.92278200165854 -18.231845490031564 #
straight-curve $-1 -20.240920366718701 -49.638545488591269 18.231845490031564 0 1 0 I I #
straight-curve $-1 56.704611346781824 5.9124180282640353 82.325703031703938 0 0 -1 I I #
point $-1 56.704611346781824 5.9124180282640353 18.231845490031564 #
straight-curve $-1 56.704611346781817 5.869112149269565 5.8273999775089536 0 1 0 I I #
point $-1 56.704611346781832 5.9124180282640353 5.8273999775089464 #
point $-1 47.855229733016188 11.73822429853913 8.8830285251386343 #
straight-curve $-1 -56.704611346781824 -7.371843158577601 41.964774381127718 0 0 -1 I I #
point $-1 -56.704611346781824 -7.371843158577601 18.231845490031564 #
straight-curve $-1 -56.704611346781824 -5.7894197769917639 6.5846458743948793 0 -1 0 I I #
point $-1 -56.704611346781824 -7.371843158577601 6.5846458743948864 #
point $-1 -49.637069667693581 -13.381838009157498 10.881767821067303 #
point $-1 -49.637069667693581 -9.7758410988095612 10.881767821067303 #
straight-curve $-1 -20.240920366718701 -60.92278200165854 0 0 0 -1 I I #
point $-1 -20.240920366718701 -60.92278200165854 18.231845490031564 #
End-of-ACIS-data 