500 0 8 0           
7 Unknown 11 ACIS 5.0 NT 24 Fri Mar 26 15:00:38 1999 
-1 9.9999999999999995e-007 1e-010 
body $-1 $8 $-1 $9 #
body $-1 $10 $-1 $11 #
body $-1 $12 $-1 $13 #
body $-1 $14 $-1 $15 #
body $-1 $16 $-1 $17 #
body $-1 $18 $-1 $19 #
body $-1 $20 $-1 $21 #
body $-1 $22 $-1 $23 #
lump $-1 $-1 $24 $0 #
transform $-1 1 0 0 0 1 0 0 0 1 41.88604388561663 25.439696541533667 11.52569570109207 1 rotate no_reflect no_shear #
lump $-1 $-1 $25 $1 #
transform $-1 1 0 0 0 1 0 0 0 1 41.88604388561663 25.439696541533667 11.52569570109207 1 rotate no_reflect no_shear #
lump $-1 $-1 $26 $2 #
transform $-1 1 0 0 0 1 0 0 0 1 41.88604388561663 25.439696541533667 11.52569570109207 1 rotate no_reflect no_shear #
lump $-1 $-1 $27 $3 #
transform $-1 1 0 0 0 1 0 0 0 1 41.88604388561663 25.439696541533667 11.52569570109207 1 rotate no_reflect no_shear #
lump $-1 $-1 $28 $4 #
transform $-1 1 0 0 0 1 0 0 0 1 41.88604388561663 25.439696541533667 11.52569570109207 1 rotate no_reflect no_shear #
lump $-1 $-1 $29 $5 #
transform $-1 1 0 0 0 1 0 0 0 1 41.88604388561663 25.439696541533667 11.52569570109207 1 rotate no_reflect no_shear #
lump $-1 $-1 $30 $6 #
transform $-1 1 0 0 0 1 0 0 0 1 41.88604388561663 25.439696541533667 11.52569570109207 1 rotate no_reflect no_shear #
lump $-1 $-1 $31 $7 #
transform $-1 1 0 0 0 1 0 0 0 1 41.88604388561663 25.439696541533667 11.52569570109207 1 rotate no_reflect no_shear #
shell $-1 $-1 $-1 $32 $-1 $8 #
shell $-1 $-1 $-1 $33 $-1 $10 #
shell $-1 $-1 $-1 $34 $-1 $12 #
shell $-1 $-1 $-1 $35 $-1 $14 #
shell $-1 $-1 $-1 $36 $-1 $16 #
shell $-1 $-1 $-1 $37 $-1 $18 #
shell $-1 $-1 $-1 $38 $-1 $20 #
shell $-1 $-1 $-1 $39 $-1 $22 #
face $-1 $40 $41 $24 $-1 $42 forward single #
face $-1 $43 $44 $25 $-1 $45 forward single #
face $-1 $46 $47 $26 $-1 $48 reversed single #
face $-1 $49 $50 $27 $-1 $51 forward single #
face $-1 $52 $53 $28 $-1 $54 forward single #
face $-1 $55 $56 $29 $-1 $57 reversed single #
face $-1 $58 $59 $30 $-1 $60 forward single #
face $-1 $61 $62 $31 $-1 $63 forward single #
face $-1 $64 $65 $24 $-1 $66 reversed single #
loop $-1 $-1 $67 $32 #
plane-surface $-1 0 0 11.52569570109207 0 0 1 1 0 0 forward_v I I I I #
face $-1 $68 $69 $25 $-1 $70 forward single #
loop $-1 $-1 $71 $33 #
plane-surface $-1 0 -25.439696541533667 0 0 1 0 0 0 1 forward_v I I I I #
face $-1 $72 $73 $26 $-1 $74 reversed single #
loop $-1 $-1 $75 $34 #
plane-surface $-1 72.548757908261948 8.6382185758389873 119.746869724493 0 -1 0 -0.86602541151947299 0 -0.49999998660252726 forward_v I I I I #
face $-1 $76 $77 $27 $-1 $78 forward single #
loop $-1 $79 $80 $35 #
cone-surface $-1 39.489553423188276 -0.40376384321681869 8.070872754330253 -0.86602541151947299 0 -0.49999998660252726 0.49999998660252726 0 -0.86602541151947299 1 I I 0 1 1 forward I I I I #
face $-1 $81 $82 $28 $-1 $83 forward single #
loop $-1 $84 $85 $36 #
cone-surface $-1 39.489553423188276 5.0214256082166671 8.070872754330253 -0.86602541151947299 0 -0.49999998660252726 0.49999998660252726 0 -0.86602541151947299 1 I I 0 1 1 forward I I I I #
face $-1 $86 $87 $29 $-1 $88 reversed single #
loop $-1 $-1 $89 $37 #
plane-surface $-1 -83.772088332400386 -16.909000371809942 73.945724111914913 0 1 0 -0.50000000669873634 0 0.8660253999169214 forward_v I I I I #
face $-1 $90 $91 $30 $-1 $92 forward single #
loop $-1 $93 $94 $38 #
cone-surface $-1 -32.706520474104742 -13.477763684250625 5.7550219074386977 0.50000000669873634 0 -0.8660253999169214 1.2990380998753821 0 0.75000001004810457 1 I I 0 1 1.5 forward I I I I #
face $-1 $95 $96 $31 $-1 $97 forward single #
loop $-1 $98 $99 $39 #
cone-surface $-1 -32.706520474104742 -8.3309086529116492 5.7550219074386977 0.50000000669873634 0 -0.8660253999169214 1.2990380998753821 0 0.75000001004810457 1 I I 0 1 1.5 forward I I I I #
face $-1 $100 $101 $24 $-1 $102 reversed single #
loop $-1 $-1 $103 $40 #
plane-surface $-1 0 0 -11.52569570109207 0 0 1 1 0 0 forward_v I I I I #
coedge $-1 $104 $105 $106 $107 forward $41 $-1 #
face $-1 $108 $109 $25 $-1 $110 reversed single #
loop $-1 $-1 $111 $43 #
plane-surface $-1 0 0 11.52569570109207 0 0 1 1 0 0 forward_v I I I I #
coedge $-1 $112 $113 $114 $115 forward $44 $-1 #
face $-1 $116 $117 $26 $-1 $118 reversed single #
loop $-1 $-1 $119 $46 #
plane-surface $-1 1.1223342539778969e-006 2.3088308824999224 77.86082696121062 0.86602541151947299 0 0.49999998660252726 0.49999998660252726 0 -0.86602541151947299 forward_v I I I I #
coedge $-1 $120 $121 $122 $123 reversed $47 $-1 #
face $-1 $-1 $124 $27 $-1 $125 forward single #
loop $-1 $126 $127 $49 #
cone-surface $-1 38.45376937590143 -0.40376384321681869 7.4728625771717372 -0.86602541151947299 0 -0.49999998660252726 0.24999999330126363 0 -0.43301270575973649 1 I I -0.70710678118654746 0.70710678118654746 0.5 forward I I I I #
loop $-1 $-1 $128 $35 #
coedge $-1 $80 $80 $129 $130 reversed $50 $-1 #
face $-1 $-1 $131 $28 $-1 $132 forward single #
loop $-1 $133 $134 $52 #
cone-surface $-1 38.45376937590143 5.0214256082166671 7.4728625771717372 -0.86602541151947299 0 -0.49999998660252726 0.24999999330126363 0 -0.43301270575973649 1 I I -0.70710678118654746 0.70710678118654746 0.5 forward I I I I #
loop $-1 $-1 $135 $36 #
coedge $-1 $85 $85 $136 $137 reversed $53 $-1 #
face $-1 $138 $139 $29 $-1 $140 reversed single #
loop $-1 $-1 $141 $55 #
plane-surface $-1 -41.88604388561663 -10.904336168581136 1.3969682979571871 -0.50000000669873634 0 0.8660253999169214 0.8660253999169214 0 0.50000000669873634 forward_v I I I I #
coedge $-1 $142 $143 $144 $145 reversed $56 $-1 #
face $-1 $-1 $146 $30 $-1 $147 forward single #
loop $-1 $148 $149 $58 #
cone-surface $-1 -31.923732139999082 -13.477763684250625 4.3991927654150729 0.50000000669873634 0 -0.8660253999169214 0.64951904993769105 0 0.37500000502405229 1 I I -0.70710678118654757 0.70710678118654757 0.75 forward I I I I #
loop $-1 $-1 $150 $38 #
coedge $-1 $94 $94 $151 $152 reversed $59 $-1 #
face $-1 $-1 $153 $31 $-1 $154 forward single #
loop $-1 $155 $156 $61 #
cone-surface $-1 -31.923732139999082 -8.3309086529116492 4.3991927654150729 0.50000000669873634 0 -0.8660253999169214 0.64951904993769105 0 0.37500000502405229 1 I I -0.70710678118654757 0.70710678118654757 0.75 forward I I I I #
loop $-1 $-1 $157 $39 #
coedge $-1 $99 $99 $158 $159 reversed $62 $-1 #
face $-1 $160 $161 $24 $-1 $162 reversed single #
loop $-1 $-1 $163 $64 #
plane-surface $-1 0 -25.439696541533667 0 0 1 0 0 0 1 forward_v I I I I #
coedge $-1 $164 $165 $166 $167 forward $65 $-1 #
coedge $-1 $168 $67 $169 $170 forward $41 $-1 #
coedge $-1 $67 $168 $171 $172 forward $41 $-1 #
coedge $-1 $173 $174 $67 $107 reversed $175 $-1 #
edge $-1 $176 -25.439696541533667 $177 25.439696541533667 $106 $178 forward 7 unknown #
face $-1 $179 $180 $25 $-1 $181 reversed single #
loop $-1 $-1 $182 $68 #
plane-surface $-1 -41.88604388561663 0 0 1 0 0 0 0 -1 forward_v I I I I #
coedge $-1 $183 $184 $113 $185 forward $69 $-1 #
coedge $-1 $186 $71 $187 $188 reversed $44 $-1 #
coedge $-1 $71 $186 $111 $185 reversed $44 $-1 #
coedge $-1 $189 $190 $71 $115 reversed $191 $-1 #
edge $-1 $192 -11.52569570109207 $193 11.52569570109207 $114 $194 forward 7 unknown #
face $-1 $195 $196 $26 $-1 $197 forward single #
loop $-1 $-1 $198 $72 #
plane-surface $-1 72.548757908261948 -4.0205568108391425 119.746869724493 0 1 0 0.86602541151947299 0 0.49999998660252726 forward_v I I I I #
coedge $-1 $199 $200 $201 $202 reversed $73 $-1 #
coedge $-1 $121 $75 $203 $204 reversed $47 $-1 #
coedge $-1 $75 $120 $199 $205 reversed $47 $-1 #
coedge $-1 $201 $206 $75 $123 forward $196 $-1 #
edge $-1 $207 -5.6116649314856559 $208 -2.0242266896831538 $122 $209 forward 7 unknown #
loop $-1 $-1 $129 $76 #
plane-surface $-1 1.1223342539778969e-006 2.3088308824999224 77.86082696121062 0.86602541151947299 0 0.49999998660252726 0.49999998660252726 0 -0.86602541151947299 forward_v I I I I #
loop $-1 $-1 $210 $49 #
coedge $-1 $127 $127 $128 $211 reversed $77 $-1 #
coedge $-1 $128 $128 $127 $211 forward $79 $-1 #
coedge $-1 $129 $129 $80 $130 forward $124 $-1 #
edge $-1 $212 0 $212 6.2831853071796004 $129 $213 forward 7 unknown #
loop $-1 $-1 $136 $81 #
plane-surface $-1 1.1223342539778969e-006 2.3088308824999224 77.86082696121062 0.86602541151947299 0 0.49999998660252726 0.49999998660252726 0 -0.86602541151947299 forward_v I I I I #
loop $-1 $-1 $214 $52 #
coedge $-1 $134 $134 $135 $215 reversed $82 $-1 #
coedge $-1 $135 $135 $134 $215 forward $84 $-1 #
coedge $-1 $136 $136 $85 $137 forward $131 $-1 #
edge $-1 $216 0 $216 6.2831853071796004 $136 $217 forward 7 unknown #
face $-1 $218 $219 $29 $-1 $220 reversed single #
loop $-1 $-1 $221 $86 #
plane-surface $-1 -83.772088332400386 -4.8996719653523293 73.945724111914913 0 -1 0 0.50000000669873634 0 -0.8660253999169214 forward_v I I I I #
coedge $-1 $222 $223 $224 $225 reversed $87 $-1 #
coedge $-1 $143 $89 $226 $227 reversed $56 $-1 #
coedge $-1 $89 $142 $222 $228 reversed $56 $-1 #
coedge $-1 $224 $229 $89 $145 forward $230 $-1 #
edge $-1 $231 2.8058356349447422e-007 $232 17.543470445444136 $144 $233 forward 7 unknown #
loop $-1 $-1 $151 $90 #
plane-surface $-1 -41.88604388561663 -10.904336168581136 1.3969682979571871 -0.50000000669873634 0 0.8660253999169214 0.8660253999169214 0 0.50000000669873634 forward_v I I I I #
loop $-1 $-1 $234 $58 #
coedge $-1 $149 $149 $150 $235 reversed $91 $-1 #
coedge $-1 $150 $150 $149 $235 forward $93 $-1 #
coedge $-1 $151 $151 $94 $152 forward $146 $-1 #
edge $-1 $236 0 $236 6.2831853071796004 $151 $237 forward 7 unknown #
loop $-1 $-1 $158 $95 #
plane-surface $-1 -41.88604388561663 -10.904336168581136 1.3969682979571871 -0.50000000669873634 0 0.8660253999169214 0.8660253999169214 0 0.50000000669873634 forward_v I I I I #
loop $-1 $-1 $238 $61 #
coedge $-1 $156 $156 $157 $239 reversed $96 $-1 #
coedge $-1 $157 $157 $156 $239 forward $98 $-1 #
coedge $-1 $158 $158 $99 $159 forward $153 $-1 #
edge $-1 $240 0 $240 6.2831853071796004 $158 $241 forward 7 unknown #
face $-1 $242 $243 $24 $-1 $244 reversed single #
loop $-1 $-1 $245 $100 #
plane-surface $-1 -41.88604388561663 0 0 1 0 0 0 0 -1 forward_v I I I I #
coedge $-1 $246 $171 $247 $248 forward $101 $-1 #
coedge $-1 $249 $103 $246 $250 forward $65 $-1 #
coedge $-1 $103 $249 $251 $252 forward $65 $-1 #
coedge $-1 $174 $173 $103 $167 reversed $175 $-1 #
edge $-1 $253 -25.439696541533667 $254 25.439696541533667 $166 $255 forward 7 unknown #
coedge $-1 $105 $104 $256 $257 forward $41 $-1 #
coedge $-1 $258 $259 $104 $170 reversed $243 $-1 #
edge $-1 $177 -41.88604388561663 $260 41.88604388561663 $169 $261 forward 7 unknown #
coedge $-1 $163 $262 $105 $172 reversed $101 $-1 #
edge $-1 $263 -41.88604388561663 $176 41.88604388561663 $171 $264 forward 7 unknown #
coedge $-1 $166 $106 $262 $265 forward $175 $-1 #
coedge $-1 $106 $166 $258 $266 reversed $175 $-1 #
loop $-1 $-1 $173 $242 #
vertex $-1 $107 $267 #
vertex $-1 $107 $268 #
straight-curve $-1 41.88604388561663 0 11.52569570109207 0 1 0 I I #
face $-1 $269 $191 $25 $-1 $270 reversed single #
loop $-1 $-1 $271 $108 #
plane-surface $-1 -38.456123192513239 -33.970392711257389 0 0 1 0 0 0 1 forward_v I I I I #
coedge $-1 $272 $273 $186 $274 forward $109 $-1 #
coedge $-1 $275 $111 $273 $276 forward $69 $-1 #
coedge $-1 $111 $275 $189 $277 forward $69 $-1 #
edge $-1 $192 35.026202499409848 $278 41.88604388561663 $111 $279 forward 7 unknown #
coedge $-1 $113 $112 $182 $274 reversed $44 $-1 #
coedge $-1 $280 $281 $112 $188 forward $282 $-1 #
edge $-1 $283 -41.88604388561663 $193 -35.026202499409848 $187 $284 forward 7 unknown #
coedge $-1 $285 $114 $184 $277 reversed $191 $-1 #
coedge $-1 $114 $285 $280 $286 reversed $191 $-1 #
loop $-1 $-1 $285 $179 #
vertex $-1 $185 $287 #
vertex $-1 $286 $288 #
straight-curve $-1 -35.026202499409848 -25.439696541533667 0 0 0 -1 I I #
face $-1 $-1 $289 $26 $-1 $290 reversed single #
loop $-1 $-1 $122 $116 #
plane-surface $-1 0 0 11.52569570109207 0 0 1 1 0 0 forward_v I I I I #
coedge $-1 $291 $292 $293 $294 reversed $117 $-1 #
coedge $-1 $295 $119 $121 $205 forward $73 $-1 #
coedge $-1 $119 $295 $291 $296 forward $73 $-1 #
coedge $-1 $293 $122 $119 $202 forward $196 $-1 #
edge $-1 $208 -7.4838031345890261 $297 5.1749722520891037 $201 $298 forward 7 unknown #
coedge $-1 $299 $300 $120 $204 forward $289 $-1 #
edge $-1 $301 -54.561364686963586 $207 -48.347739161154429 $203 $302 forward 7 unknown #
edge $-1 $208 76.597211095377844 $301 83.772087771233274 $121 $303 forward 7 unknown #
coedge $-1 $122 $293 $299 $304 forward $196 $-1 #
vertex $-1 $204 $305 #
vertex $-1 $123 $306 #
straight-curve $-1 36.274378954130974 8.6382185758389873 11.525695701092069 -1 0 0 I I #
coedge $-1 $210 $210 $-1 $307 reversed $126 $-1 #
edge $-1 $308 0 $308 6.2831853071796004 $127 $309 forward 7 unknown #
vertex $-1 $130 $310 #
ellipse-curve $-1 40.092324764715379 -0.40376384321681869 8.4188829381874974 0.86602541151947299 0 0.49999998660252726 0.49999998660252726 0 -0.86602541151947299 1 I I #
coedge $-1 $214 $214 $-1 $311 reversed $133 $-1 #
edge $-1 $312 0 $312 6.2831853071796004 $134 $313 forward 7 unknown #
vertex $-1 $137 $314 #
ellipse-curve $-1 40.092324764715379 5.0214256082166671 8.4188829381874974 0.86602541151947299 0 0.49999998660252726 0.49999998660252726 0 -0.86602541151947299 1 I I #
face $-1 $-1 $230 $29 $-1 $315 forward single #
loop $-1 $-1 $316 $138 #
plane-surface $-1 -41.88604388561663 0 0 1 0 0 0 0 -1 forward_v I I I I #
coedge $-1 $317 $318 $319 $320 reversed $139 $-1 #
coedge $-1 $321 $141 $143 $228 forward $87 $-1 #
coedge $-1 $141 $321 $317 $322 forward $87 $-1 #
coedge $-1 $319 $144 $141 $225 forward $230 $-1 #
edge $-1 $232 -11.456832287519374 $323 0.55249611893823847 $224 $324 forward 7 unknown #
coedge $-1 $325 $326 $142 $227 forward $219 $-1 #
edge $-1 $327 -35.575893758000269 $231 -25.447166354865388 $226 $328 forward 7 unknown #
edge $-1 $232 -20.257454534871073 $327 0 $143 $329 forward 7 unknown #
coedge $-1 $144 $319 $325 $330 forward $230 $-1 #
loop $-1 $-1 $319 $218 #
vertex $-1 $227 $331 #
vertex $-1 $145 $332 #
straight-curve $-1 -41.886044166200193 -16.909000371809942 11.525695701092069 1 0 0 I I #
coedge $-1 $234 $234 $-1 $333 reversed $148 $-1 #
edge $-1 $334 0 $334 6.2831853071796004 $149 $335 forward 7 unknown #
vertex $-1 $152 $336 #
ellipse-curve $-1 -33.114308803186347 -13.477763684250625 6.4613319995246261 -0.50000000669873634 0 0.8660253999169214 1.2990380998753821 0 0.75000001004810457 1 I I #
coedge $-1 $238 $238 $-1 $337 reversed $155 $-1 #
edge $-1 $338 0 $338 6.2831853071796004 $156 $339 forward 7 unknown #
vertex $-1 $159 $340 #
ellipse-curve $-1 -33.114308803186347 -8.3309086529116492 6.4613319995246261 -0.50000000669873634 0 0.8660253999169214 1.2990380998753821 0 0.75000001004810457 1 I I #
face $-1 $-1 $175 $24 $-1 $341 reversed single #
loop $-1 $-1 $258 $160 #
plane-surface $-1 0 25.439696541533667 0 0 -1 0 0 0 -1 forward_v I I I I #
coedge $-1 $342 $256 $259 $343 forward $161 $-1 #
coedge $-1 $262 $163 $164 $250 reversed $101 $-1 #
coedge $-1 $256 $342 $163 $248 reversed $161 $-1 #
edge $-1 $263 -11.52569570109207 $344 11.52569570109207 $247 $345 forward 7 unknown #
coedge $-1 $165 $164 $342 $346 forward $65 $-1 #
edge $-1 $254 -41.88604388561663 $344 41.88604388561663 $246 $347 forward 7 unknown #
coedge $-1 $259 $258 $165 $252 reversed $243 $-1 #
edge $-1 $348 -41.88604388561663 $253 41.88604388561663 $251 $349 forward 7 unknown #
vertex $-1 $167 $350 #
vertex $-1 $265 $351 #
straight-curve $-1 41.88604388561663 0 -11.52569570109207 0 -1 0 I I #
coedge $-1 $245 $247 $168 $257 reversed $161 $-1 #
edge $-1 $260 -25.439696541533667 $263 25.439696541533667 $256 $352 forward 7 unknown #
coedge $-1 $251 $169 $174 $266 forward $243 $-1 #
coedge $-1 $169 $251 $245 $343 reversed $243 $-1 #
vertex $-1 $170 $353 #
straight-curve $-1 0 25.439696541533667 11.52569570109207 -1 0 0 I I #
coedge $-1 $171 $246 $173 $265 reversed $101 $-1 #
vertex $-1 $257 $354 #
straight-curve $-1 0 -25.439696541533667 11.52569570109207 1 0 0 I I #
edge $-1 $176 -11.52569570109207 $254 11.52569570109207 $173 $355 forward 7 unknown #
edge $-1 $177 -11.52569570109207 $253 11.52569570109207 $174 $356 forward 7 unknown #
point $-1 41.88604388561663 -25.439696541533667 11.52569570109207 #
point $-1 41.88604388561663 25.439696541533667 11.52569570109207 #
face $-1 $-1 $282 $25 $-1 $357 reversed single #
plane-surface $-1 -35.026202499409848 -29.70504462639553 0 -1 0 0 0 0 1 forward_v I I I I #
coedge $-1 $358 $359 $360 $361 forward $180 $-1 #
coedge $-1 $360 $182 $281 $362 reversed $109 $-1 #
coedge $-1 $182 $360 $183 $276 reversed $109 $-1 #
edge $-1 $278 -11.52569570109207 $283 11.52569570109207 $182 $363 forward 7 unknown #
coedge $-1 $184 $183 $359 $364 forward $69 $-1 #
edge $-1 $278 25.439696541533667 $365 33.970392711257389 $273 $366 forward 7 unknown #
edge $-1 $367 -4.2653480848618592 $192 4.2653480848618628 $189 $368 forward 7 unknown #
vertex $-1 $276 $369 #
straight-curve $-1 0 -25.439696541533667 11.52569570109207 -1 0 0 I I #
coedge $-1 $370 $187 $190 $286 forward $282 $-1 #
coedge $-1 $187 $370 $272 $362 forward $282 $-1 #
loop $-1 $-1 $187 $269 #
vertex $-1 $274 $371 #
straight-curve $-1 0 -25.439696541533667 -11.52569570109207 1 0 0 I I #
coedge $-1 $190 $189 $372 $373 forward $191 $-1 #
edge $-1 $193 -4.2653480848618628 $374 4.2653480848618592 $190 $375 forward 7 unknown #
point $-1 -35.026202499409848 -25.439696541533667 11.52569570109207 #
point $-1 -35.026202499409848 -25.439696541533667 -11.52569570109207 #
loop $-1 $-1 $203 $195 #
plane-surface $-1 41.88604388561663 0 0 -1 0 0 0 0 1 forward_v I I I I #
coedge $-1 $292 $198 $200 $296 reversed $117 $-1 #
coedge $-1 $198 $291 $376 $377 reversed $117 $-1 #
coedge $-1 $206 $201 $198 $294 forward $196 $-1 #
edge $-1 $297 2.0242266896831538 $378 5.6116649314856559 $293 $379 forward 7 unknown #
coedge $-1 $200 $199 $300 $380 reversed $73 $-1 #
edge $-1 $381 -83.772087771233274 $297 -76.597211095377844 $291 $382 forward 7 unknown #
vertex $-1 $202 $383 #
straight-curve $-1 38.298605643814135 1.1544154412499612 11.525695701092069 0 -1 0 I I #
coedge $-1 $376 $203 $206 $304 reversed $289 $-1 #
coedge $-1 $203 $376 $295 $380 forward $289 $-1 #
vertex $-1 $204 $384 #
straight-curve $-1 41.88604388561663 8.6382185758389873 59.873434862246498 0 0 1 I I #
straight-curve $-1 1.1223342539778969e-006 8.6382185758389873 77.86082696121062 0.49999998660252726 0 -0.86602541151947299 I I #
edge $-1 $378 -4.0205568108391425 $207 8.6382185758389873 $299 $385 forward 7 unknown #
point $-1 41.88604388561663 8.6382185758389873 11.52569570109207 #
point $-1 38.298605643814128 8.6382185758389873 11.525695701092076 #
edge $-1 $386 1 $386 0 $210 $-1 forward 7 unknown #
vertex $-1 $211 $387 #
ellipse-curve $-1 38.886782081661167 -0.40376384321681869 7.7228625704730005 0.86602541151947299 0 0.49999998660252726 0.49999998660252726 0 -0.86602541151947299 1 I I #
point $-1 40.592324751317918 -0.40376384321681869 7.5528575266680305 #
edge $-1 $388 1 $388 0 $214 $-1 forward 7 unknown #
vertex $-1 $215 $389 #
ellipse-curve $-1 38.886782081661167 5.0214256082166671 7.7228625704730005 0.86602541151947299 0 0.49999998660252726 0.49999998660252726 0 -0.86602541151947299 1 I I #
point $-1 40.592324751317918 5.0214256082166671 7.5528575266680305 #
plane-surface $-1 0 0 11.52569570109207 0 0 1 1 0 0 forward_v I I I I #
coedge $-1 $326 $325 $318 $390 forward $219 $-1 #
coedge $-1 $318 $221 $223 $322 reversed $139 $-1 #
coedge $-1 $221 $317 $316 $390 reversed $139 $-1 #
coedge $-1 $229 $224 $221 $320 forward $230 $-1 #
edge $-1 $323 -17.543470445444136 $391 -2.8058356349447422e-007 $319 $392 forward 7 unknown #
coedge $-1 $223 $222 $326 $393 reversed $87 $-1 #
edge $-1 $394 0 $323 20.257454534871073 $317 $395 forward 7 unknown #
vertex $-1 $225 $396 #
straight-curve $-1 -24.342573720756054 -5.4521680842905678 11.52569570109207 0 1 0 I I #
coedge $-1 $316 $226 $229 $330 reversed $219 $-1 #
coedge $-1 $226 $316 $321 $393 forward $219 $-1 #
vertex $-1 $227 $397 #
straight-curve $-1 -41.88604388561663 -16.909000371809942 36.972862055957457 0 0 1 I I #
straight-curve $-1 -41.88604388561663 -16.909000371809942 1.3969682979571871 -0.8660253999169214 0 -0.50000000669873634 I I #
edge $-1 $391 4.8996719653523293 $231 16.909000371809942 $325 $398 forward 7 unknown #
point $-1 -41.88604388561663 -16.909000371809942 11.52569570109207 #
point $-1 -24.342573720756057 -16.909000371809942 11.52569570109207 #
edge $-1 $399 1 $399 0 $234 $-1 forward 7 unknown #
vertex $-1 $235 $400 #
ellipse-curve $-1 -32.298732145023138 -13.477763684250625 5.0487118153527639 -0.50000000669873634 0 0.8660253999169214 1.2990380998753821 0 0.75000001004810457 1 I I #
point $-1 -31.815270703310965 -13.477763684250625 7.2113320095727369 #
edge $-1 $401 1 $401 0 $238 $-1 forward 7 unknown #
vertex $-1 $239 $402 #
ellipse-curve $-1 -32.298732145023138 -8.3309086529116492 5.0487118153527639 -0.50000000669873634 0 0.8660253999169214 1.2990380998753821 0 0.75000001004810457 1 I I #
point $-1 -31.815270703310965 -8.3309086529116492 7.2113320095727369 #
plane-surface $-1 41.88604388561663 0 0 -1 0 0 0 0 1 forward_v I I I I #
coedge $-1 $247 $245 $249 $346 reversed $161 $-1 #
edge $-1 $260 -11.52569570109207 $348 11.52569570109207 $259 $403 forward 7 unknown #
vertex $-1 $346 $404 #
straight-curve $-1 -41.88604388561663 -25.439696541533667 0 0 0 -1 I I #
edge $-1 $344 -25.439696541533667 $348 25.439696541533667 $342 $405 forward 7 unknown #
straight-curve $-1 0 -25.439696541533667 -11.52569570109207 -1 0 0 I I #
vertex $-1 $252 $406 #
straight-curve $-1 0 25.439696541533667 -11.52569570109207 1 0 0 I I #
point $-1 41.88604388561663 25.439696541533667 -11.52569570109207 #
point $-1 41.88604388561663 -25.439696541533667 -11.52569570109207 #
straight-curve $-1 -41.88604388561663 0 11.52569570109207 0 -1 0 I I #
point $-1 -41.88604388561663 25.439696541533667 11.52569570109207 #
point $-1 -41.88604388561663 -25.439696541533667 11.52569570109207 #
straight-curve $-1 41.88604388561663 -25.439696541533667 0 0 0 -1 I I #
straight-curve $-1 41.88604388561663 25.439696541533667 0 0 0 -1 I I #
plane-surface $-1 0 0 -11.52569570109207 0 0 1 1 0 0 forward_v I I I I #
coedge $-1 $372 $271 $370 $407 reversed $180 $-1 #
coedge $-1 $271 $372 $275 $364 reversed $180 $-1 #
coedge $-1 $273 $272 $271 $361 reversed $109 $-1 #
edge $-1 $365 -11.52569570109207 $408 11.52569570109207 $360 $409 forward 7 unknown #
edge $-1 $408 -33.970392711257389 $283 -25.439696541533667 $272 $410 forward 7 unknown #
straight-curve $-1 -41.88604388561663 -25.439696541533667 0 0 0 -1 I I #
edge $-1 $365 -3.4299206931033908 $367 3.4299206931033908 $359 $411 forward 7 unknown #
vertex $-1 $276 $412 #
straight-curve $-1 -41.88604388561663 0 11.52569570109207 0 -1 0 I I #
vertex $-1 $277 $413 #
straight-curve $-1 -35.026202499409848 -29.70504462639553 11.52569570109207 0 1 0 I I #
point $-1 -41.88604388561663 -25.439696541533667 11.52569570109207 #
coedge $-1 $281 $280 $358 $407 forward $282 $-1 #
point $-1 -41.88604388561663 -25.439696541533667 -11.52569570109207 #
coedge $-1 $359 $358 $285 $373 reversed $180 $-1 #
edge $-1 $367 -11.52569570109207 $374 11.52569570109207 $285 $414 forward 7 unknown #
vertex $-1 $373 $415 #
straight-curve $-1 -35.026202499409848 -29.70504462639553 -11.52569570109207 0 -1 0 I I #
coedge $-1 $300 $299 $292 $377 forward $289 $-1 #
edge $-1 $378 48.347739161154429 $381 54.561364686963586 $376 $416 forward 7 unknown #
vertex $-1 $304 $417 #
straight-curve $-1 36.274378954130974 -4.0205568108391425 11.525695701092069 1 0 0 I I #
edge $-1 $381 -5.1749722520891037 $301 7.4838031345890261 $300 $418 forward 7 unknown #
vertex $-1 $380 $419 #
straight-curve $-1 1.1223342539778969e-006 -4.0205568108391425 77.86082696121062 -0.49999998660252726 0 0.86602541151947299 I I #
point $-1 38.298605643814128 -4.0205568108391425 11.525695701092076 #
point $-1 41.88604388561663 8.6382185758389873 5.312070175282912 #
straight-curve $-1 41.88604388561663 0 11.52569570109207 0 1 0 I I #
vertex $-1 $307 $420 #
point $-1 39.386782068263692 -0.40376384321681869 6.8568371589535282 #
vertex $-1 $311 $421 #
point $-1 39.386782068263692 5.0214256082166671 6.8568371589535282 #
edge $-1 $391 25.447166354865388 $394 35.575893758000269 $316 $422 forward 7 unknown #
vertex $-1 $330 $423 #
straight-curve $-1 -41.886044166200193 -4.8996719653523293 11.525695701092069 -1 0 0 I I #
edge $-1 $394 -0.55249611893823847 $327 11.456832287519374 $326 $424 forward 7 unknown #
vertex $-1 $393 $425 #
straight-curve $-1 -41.88604388561663 -4.8996719653523293 1.3969682979571871 0.8660253999169214 0 0.50000000669873634 I I #
point $-1 -24.342573720756057 -4.8996719653523293 11.52569570109207 #
point $-1 -41.88604388561663 -16.909000371809942 1.3969682979571871 #
straight-curve $-1 -41.88604388561663 0 11.52569570109207 0 -1 0 I I #
vertex $-1 $333 $426 #
point $-1 -30.999694045147752 -13.477763684250625 5.7987118254008685 #
vertex $-1 $337 $427 #
point $-1 -30.999694045147752 -8.3309086529116492 5.7987118254008685 #
straight-curve $-1 -41.88604388561663 25.439696541533667 0 0 0 -1 I I #
point $-1 -41.88604388561663 -25.439696541533667 -11.52569570109207 #
straight-curve $-1 -41.88604388561663 0 -11.52569570109207 0 1 0 I I #
point $-1 -41.88604388561663 25.439696541533667 -11.52569570109207 #
edge $-1 $374 -3.4299206931033908 $408 3.4299206931033908 $358 $428 forward 7 unknown #
vertex $-1 $362 $429 #
straight-curve $-1 -41.88604388561663 -33.970392711257389 0 0 0 -1 I I #
straight-curve $-1 -41.88604388561663 0 -11.52569570109207 0 1 0 I I #
straight-curve $-1 -38.456123192513239 -33.970392711257389 11.52569570109207 1 0 0 I I #
point $-1 -41.88604388561663 -33.970392711257389 11.52569570109207 #
point $-1 -35.026202499409848 -33.970392711257389 11.52569570109207 #
straight-curve $-1 -35.026202499409848 -33.970392711257389 0 0 0 -1 I I #
point $-1 -35.026202499409848 -33.970392711257389 -11.52569570109207 #
straight-curve $-1 41.88604388561663 -4.0205568108391425 59.873434862246498 0 0 -1 I I #
point $-1 41.88604388561663 -4.0205568108391425 11.52569570109207 #
straight-curve $-1 41.88604388561663 1.1544154412499612 5.312070175282912 0 1 0 I I #
point $-1 41.88604388561663 -4.0205568108391425 5.312070175282912 #
point $-1 38.020756670141694 -0.40376384321681869 7.2228625838704739 #
point $-1 38.020756670141694 5.0214256082166671 7.2228625838704739 #
straight-curve $-1 -41.88604388561663 -4.8996719653523293 36.972862055957457 0 0 -1 I I #
point $-1 -41.88604388561663 -4.8996719653523293 11.52569570109207 #
straight-curve $-1 -41.88604388561663 -5.4521680842905678 1.3969682979571854 0 -1 0 I I #
point $-1 -41.88604388561663 -4.8996719653523293 1.3969682979571871 #
point $-1 -31.54873213497503 -13.477763684250625 3.7496737154773818 #
point $-1 -31.54873213497503 -8.3309086529116492 3.7496737154773818 #
straight-curve $-1 -38.456123192513239 -33.970392711257389 -11.52569570109207 -1 0 0 I I #
point $-1 -41.88604388561663 -33.970392711257389 -11.52569570109207 #
End-of-ACIS-data 