500 0 7 0           
7 Unknown 11 ACIS 5.0 NT 24 Thu Mar 25 21:12:15 1999 
-1 9.9999999999999995e-007 1e-010 
body $-1 $7 $-1 $8 #
body $-1 $9 $-1 $10 #
body $-1 $11 $-1 $12 #
body $-1 $13 $-1 $14 #
body $-1 $15 $-1 $16 #
body $-1 $17 $-1 $18 #
body $-1 $19 $-1 $20 #
lump $-1 $-1 $21 $0 #
transform $-1 1 0 0 0 1 0 0 0 1 41.337931455427714 25.740737694543611 5.5582145293732683 1 rotate no_reflect no_shear #
lump $-1 $-1 $22 $1 #
transform $-1 1 0 0 0 1 0 0 0 1 41.337931455427714 25.740737694543611 5.5582145293732683 1 rotate no_reflect no_shear #
lump $-1 $-1 $23 $2 #
transform $-1 1 0 0 0 1 0 0 0 1 41.337931455427714 25.740737694543611 5.5582145293732683 1 rotate no_reflect no_shear #
lump $-1 $-1 $24 $3 #
transform $-1 1 0 0 0 1 0 0 0 1 41.337931455427714 25.740737694543611 5.5582145293732683 1 rotate no_reflect no_shear #
lump $-1 $-1 $25 $4 #
transform $-1 1 0 0 0 1 0 0 0 1 41.337931455427714 25.740737694543611 5.5582145293732683 1 rotate no_reflect no_shear #
lump $-1 $-1 $26 $5 #
transform $-1 1 0 0 0 1 0 0 0 1 41.337931455427714 25.740737694543611 5.5582145293732683 1 rotate no_reflect no_shear #
lump $-1 $-1 $27 $6 #
transform $-1 1 0 0 0 1 0 0 0 1 41.337931455427714 25.740737694543611 5.5582145293732683 1 rotate no_reflect no_shear #
shell $-1 $-1 $-1 $28 $-1 $7 #
shell $-1 $-1 $-1 $29 $-1 $9 #
shell $-1 $-1 $-1 $30 $-1 $11 #
shell $-1 $-1 $-1 $31 $-1 $13 #
shell $-1 $-1 $-1 $32 $-1 $15 #
shell $-1 $-1 $-1 $33 $-1 $17 #
shell $-1 $-1 $-1 $34 $-1 $19 #
face $-1 $35 $36 $21 $-1 $37 reversed single #
face $-1 $38 $39 $22 $-1 $40 forward single #
face $-1 $41 $42 $23 $-1 $43 reversed single #
face $-1 $44 $45 $24 $-1 $46 forward single #
face $-1 $47 $48 $25 $-1 $49 reversed single #
face $-1 $50 $51 $26 $-1 $52 forward single #
face $-1 $53 $54 $27 $-1 $55 forward single #
face $-1 $56 $57 $21 $-1 $58 forward single #
loop $-1 $-1 $59 $28 #
plane-surface $-1 0 -25.740737694543611 0 0 1 0 0 0 1 forward_v I I I I #
face $-1 $60 $61 $22 $-1 $62 reversed single #
loop $-1 $-1 $63 $29 #
plane-surface $-1 0 -25.740737694543611 0 0 1 0 0 0 1 forward_v I I I I #
face $-1 $64 $65 $23 $-1 $66 reversed single #
loop $-1 $-1 $67 $30 #
plane-surface $-1 -106.48740117533785 -5.1643844516637785 52.77245279380459 0 1 0 -0.78801076186113728 0 0.61566146476048833 forward_v I I I I #
face $-1 $68 $69 $24 $-1 $70 forward single #
loop $-1 $71 $72 $31 #
cone-surface $-1 -39.263192106892781 1.1392497701912419 3.2192106306178809 0.78801076186113728 0 -0.61566146476048833 0.30783073238024417 0 0.39400538093056864 1 I I 0 1 0.5 forward I I I I #
face $-1 $73 $74 $25 $-1 $75 reversed single #
loop $-1 $-1 $76 $32 #
plane-surface $-1 71.59939930774874 10.164063699611731 115.14975822815035 0 -1 0 -0.86602541151947299 0 -0.49999998660252726 forward_v I I I I #
face $-1 $77 $78 $26 $-1 $79 forward single #
loop $-1 $80 $81 $33 #
cone-surface $-1 39.939073892533926 0.74329529960294494 3.6353221115199386 -0.86602541151947299 0 -0.49999998660252726 0.24999999330126363 0 -0.43301270575973649 1 I I 0 1 0.5 forward I I I I #
face $-1 $82 $83 $27 $-1 $84 forward single #
loop $-1 $85 $86 $34 #
cone-surface $-1 39.939073892533926 6.3957563396082122 3.6353221115199386 -0.86602541151947299 0 -0.49999998660252726 0.24999999330126363 0 -0.43301270575973649 1 I I 0 1 0.5 forward I I I I #
face $-1 $87 $88 $21 $-1 $89 reversed single #
loop $-1 $-1 $90 $35 #
plane-surface $-1 0 0 5.5582145293732683 0 0 1 1 0 0 forward_v I I I I #
coedge $-1 $91 $92 $93 $94 reversed $36 $-1 #
face $-1 $95 $96 $22 $-1 $97 reversed single #
loop $-1 $-1 $98 $38 #
plane-surface $-1 0 0 -5.5582145293732683 0 0 1 1 0 0 forward_v I I I I #
coedge $-1 $99 $100 $101 $102 forward $39 $-1 #
face $-1 $103 $104 $23 $-1 $105 reversed single #
loop $-1 $-1 $106 $41 #
plane-surface $-1 -41.337931455427722 1.1392497701912419 1.8721099337700053 -0.78801076186113728 0 0.61566146476048833 0.61566146476048833 0 0.78801076186113728 forward_v I I I I #
coedge $-1 $107 $108 $109 $110 reversed $42 $-1 #
face $-1 $-1 $111 $24 $-1 $112 forward single #
loop $-1 $113 $114 $44 #
cone-surface $-1 -38.431400297271146 1.1392497701912419 2.5693436634740046 0.78801076186113728 0 -0.61566146476048833 0.15391536619012208 0 0.19700269046528432 1 I I -0.70710678118654746 0.70710678118654746 0.25 forward I I I I #
loop $-1 $-1 $115 $31 #
coedge $-1 $72 $72 $116 $117 reversed $45 $-1 #
face $-1 $118 $119 $25 $-1 $120 reversed single #
loop $-1 $-1 $121 $47 #
plane-surface $-1 1.1076476340576846e-006 3.5695258196055804 73.811827880370259 0.86602541151947299 0 0.49999998660252726 0.49999998660252726 0 -0.86602541151947299 forward_v I I I I #
coedge $-1 $122 $123 $124 $125 reversed $48 $-1 #
face $-1 $-1 $126 $26 $-1 $127 forward single #
loop $-1 $128 $129 $50 #
cone-surface $-1 39.289554833894321 0.74329529960294494 3.2603221215680431 -0.86602541151947299 0 -0.49999998660252726 0.12499999665063181 0 -0.21650635287986825 1 I I -0.70710678118654746 0.70710678118654746 0.25 forward I I I I #
loop $-1 $-1 $130 $33 #
coedge $-1 $81 $81 $131 $132 reversed $51 $-1 #
face $-1 $-1 $133 $27 $-1 $134 forward single #
loop $-1 $135 $136 $53 #
cone-surface $-1 39.289554833894321 6.3957563396082122 3.2603221215680431 -0.86602541151947299 0 -0.49999998660252726 0.12499999665063181 0 -0.21650635287986825 1 I I -0.70710678118654746 0.70710678118654746 0.25 forward I I I I #
loop $-1 $-1 $137 $34 #
coedge $-1 $86 $86 $138 $139 reversed $54 $-1 #
face $-1 $140 $141 $21 $-1 $142 reversed single #
loop $-1 $-1 $143 $56 #
plane-surface $-1 0 0 -5.5582145293732683 0 0 1 1 0 0 forward_v I I I I #
coedge $-1 $144 $145 $146 $147 forward $57 $-1 #
coedge $-1 $148 $59 $149 $150 reversed $36 $-1 #
coedge $-1 $59 $148 $151 $152 forward $36 $-1 #
coedge $-1 $153 $143 $59 $94 forward $88 $-1 #
edge $-1 $154 -41.337931455427714 $155 41.337931455427714 $59 $156 forward 7 unknown #
face $-1 $157 $158 $22 $-1 $159 reversed single #
loop $-1 $-1 $160 $60 #
plane-surface $-1 -31.721502396681178 -32.733991717829809 0 0 1 0 0 0 1 forward_v I I I I #
coedge $-1 $161 $162 $100 $163 forward $61 $-1 #
coedge $-1 $164 $63 $165 $166 reversed $39 $-1 #
coedge $-1 $63 $164 $98 $163 reversed $39 $-1 #
coedge $-1 $167 $168 $63 $102 reversed $158 $-1 #
edge $-1 $169 -5.5582145293732683 $170 5.5582145293732683 $101 $171 forward 7 unknown #
face $-1 $172 $173 $23 $-1 $174 reversed single #
loop $-1 $-1 $175 $64 #
plane-surface $-1 -106.48740117533785 7.4428839920462622 52.77245279380459 0 -1 0 0.78801076186113728 0 -0.61566146476048833 forward_v I I I I #
coedge $-1 $176 $177 $178 $179 reversed $65 $-1 #
coedge $-1 $108 $67 $180 $181 reversed $42 $-1 #
coedge $-1 $67 $107 $176 $182 reversed $42 $-1 #
coedge $-1 $178 $183 $67 $110 forward $184 $-1 #
edge $-1 $185 11.905769132241211 $186 14.785669590998367 $109 $187 forward 7 unknown #
loop $-1 $-1 $116 $68 #
plane-surface $-1 -41.337931455427722 1.1392497701912419 1.8721099337700053 -0.78801076186113728 0 0.61566146476048833 0.61566146476048833 0 0.78801076186113728 forward_v I I I I #
loop $-1 $-1 $188 $44 #
coedge $-1 $114 $114 $115 $189 reversed $69 $-1 #
coedge $-1 $115 $115 $114 $189 forward $71 $-1 #
coedge $-1 $116 $116 $72 $117 forward $111 $-1 #
edge $-1 $190 0 $190 6.2831853071796004 $116 $191 forward 7 unknown #
face $-1 $192 $193 $25 $-1 $194 forward single #
loop $-1 $-1 $195 $73 #
plane-surface $-1 71.59939930774874 -3.0250120604005701 115.14975822815035 0 1 0 0.86602541151947299 0 0.49999998660252726 forward_v I I I I #
coedge $-1 $196 $197 $198 $199 reversed $74 $-1 #
coedge $-1 $123 $76 $200 $201 reversed $48 $-1 #
coedge $-1 $76 $122 $196 $202 reversed $48 $-1 #
coedge $-1 $198 $203 $76 $125 forward $193 $-1 #
edge $-1 $204 -5.5382318015533443 $205 -3.6065420872852201 $124 $206 forward 7 unknown #
loop $-1 $-1 $131 $77 #
plane-surface $-1 1.1076476340576846e-006 3.5695258196055804 73.811827880370259 0.86602541151947299 0 0.49999998660252726 0.49999998660252726 0 -0.86602541151947299 forward_v I I I I #
loop $-1 $-1 $207 $50 #
coedge $-1 $129 $129 $130 $208 reversed $78 $-1 #
coedge $-1 $130 $130 $129 $208 forward $80 $-1 #
coedge $-1 $131 $131 $81 $132 forward $126 $-1 #
edge $-1 $209 0 $209 6.2831853071796004 $131 $210 forward 7 unknown #
loop $-1 $-1 $138 $82 #
plane-surface $-1 1.1076476340576846e-006 3.5695258196055804 73.811827880370259 0.86602541151947299 0 0.49999998660252726 0.49999998660252726 0 -0.86602541151947299 forward_v I I I I #
loop $-1 $-1 $211 $53 #
coedge $-1 $136 $136 $137 $212 reversed $83 $-1 #
coedge $-1 $137 $137 $136 $212 forward $85 $-1 #
coedge $-1 $138 $138 $86 $139 forward $133 $-1 #
edge $-1 $213 0 $213 6.2831853071796004 $138 $214 forward 7 unknown #
face $-1 $215 $216 $21 $-1 $217 reversed single #
loop $-1 $-1 $218 $87 #
plane-surface $-1 -41.337931455427714 0 0 1 0 0 0 0 -1 forward_v I I I I #
coedge $-1 $93 $219 $220 $221 forward $88 $-1 #
coedge $-1 $222 $90 $223 $224 forward $57 $-1 #
coedge $-1 $90 $222 $148 $225 forward $57 $-1 #
coedge $-1 $149 $226 $90 $147 reversed $227 $-1 #
edge $-1 $228 -25.740737694543611 $229 25.740737694543611 $146 $230 forward 7 unknown #
coedge $-1 $92 $91 $145 $225 reversed $36 $-1 #
coedge $-1 $220 $146 $91 $150 forward $227 $-1 #
edge $-1 $228 -5.5582145293732683 $154 5.5582145293732683 $149 $231 forward 7 unknown #
coedge $-1 $232 $233 $92 $152 reversed $141 $-1 #
edge $-1 $234 -5.5582145293732683 $155 5.5582145293732683 $151 $235 forward 7 unknown #
coedge $-1 $219 $93 $233 $236 forward $88 $-1 #
vertex $-1 $150 $237 #
vertex $-1 $236 $238 #
straight-curve $-1 0 -25.740737694543611 -5.5582145293732683 -1 0 0 I I #
face $-1 $239 $240 $22 $-1 $241 reversed single #
loop $-1 $-1 $101 $95 #
plane-surface $-1 -33.221502396681174 -29.23736470618671 0 1 0 0 0 0 -1 forward_v I I I I #
coedge $-1 $242 $243 $244 $245 forward $96 $-1 #
coedge $-1 $246 $98 $247 $248 forward $61 $-1 #
coedge $-1 $98 $246 $167 $249 forward $61 $-1 #
edge $-1 $169 -33.221502396681174 $250 -30.221502396681178 $98 $251 forward 7 unknown #
coedge $-1 $100 $99 $252 $253 forward $39 $-1 #
coedge $-1 $254 $255 $99 $166 forward $256 $-1 #
edge $-1 $257 30.221502396681178 $170 33.221502396681174 $165 $258 forward 7 unknown #
coedge $-1 $244 $101 $162 $249 reversed $158 $-1 #
coedge $-1 $101 $244 $254 $259 reversed $158 $-1 #
vertex $-1 $163 $260 #
vertex $-1 $259 $261 #
straight-curve $-1 -33.221502396681174 -25.740737694543611 0 0 0 1 I I #
face $-1 $-1 $184 $23 $-1 $262 forward single #
loop $-1 $-1 $263 $103 #
plane-surface $-1 -41.337931455427714 0 0 1 0 0 0 0 -1 forward_v I I I I #
coedge $-1 $264 $265 $266 $267 reversed $104 $-1 #
coedge $-1 $268 $106 $108 $182 forward $65 $-1 #
coedge $-1 $106 $268 $264 $269 forward $65 $-1 #
coedge $-1 $266 $109 $106 $179 forward $184 $-1 #
edge $-1 $186 -5.7340093367593994 $270 6.8732591069506412 $178 $271 forward 7 unknown #
coedge $-1 $272 $273 $107 $181 forward $173 $-1 #
edge $-1 $274 -24.514116463132279 $185 -20.828011867529028 $180 $275 forward 7 unknown #
edge $-1 $186 -4.6777338254840037 $274 -1.1548452884789174e-014 $108 $276 forward 7 unknown #
coedge $-1 $109 $266 $272 $277 forward $184 $-1 #
loop $-1 $-1 $266 $172 #
vertex $-1 $181 $278 #
vertex $-1 $110 $279 #
straight-curve $-1 -53.243700587668926 -5.1643844516637785 5.5582145293732701 1 0 0 I I #
coedge $-1 $188 $188 $-1 $280 reversed $113 $-1 #
edge $-1 $281 0 $281 6.2831853071796004 $114 $282 forward 7 unknown #
vertex $-1 $117 $283 #
ellipse-curve $-1 -39.89798122604914 1.1392497701912419 3.7151622315716395 -0.78801076186113728 0 0.61566146476048833 0.30783073238024417 0 0.39400538093056864 1 I I #
face $-1 $-1 $284 $25 $-1 $285 reversed single #
loop $-1 $-1 $124 $118 #
plane-surface $-1 0 0 5.5582145293732683 0 0 1 1 0 0 forward_v I I I I #
coedge $-1 $286 $287 $288 $289 reversed $119 $-1 #
coedge $-1 $290 $121 $123 $202 forward $74 $-1 #
coedge $-1 $121 $290 $286 $291 forward $74 $-1 #
coedge $-1 $288 $124 $121 $199 forward $193 $-1 #
edge $-1 $205 -8.3793007898089407 $292 4.8097749702033603 $198 $293 forward 7 unknown #
coedge $-1 $294 $295 $122 $201 forward $284 $-1 #
edge $-1 $296 -55.362449433805992 $204 -52.016664584701907 $200 $297 forward 7 unknown #
edge $-1 $205 78.81248337880011 $296 82.6758629108554 $123 $298 forward 7 unknown #
coedge $-1 $124 $288 $294 $299 forward $193 $-1 #
vertex $-1 $125 $300 #
vertex $-1 $125 $301 #
straight-curve $-1 35.79969965387437 10.164063699611731 5.5582145293732665 -1 0 0 I I #
coedge $-1 $207 $207 $-1 $302 reversed $128 $-1 #
edge $-1 $303 0 $303 6.2831853071796004 $129 $304 forward 7 unknown #
vertex $-1 $132 $305 #
ellipse-curve $-1 40.372086598293663 0.74329529960294494 3.8853221048212023 0.86602541151947299 0 0.49999998660252726 0.24999999330126363 0 -0.43301270575973649 1 I I #
coedge $-1 $211 $211 $-1 $306 reversed $135 $-1 #
edge $-1 $307 0 $307 6.2831853071796004 $136 $308 forward 7 unknown #
vertex $-1 $139 $309 #
ellipse-curve $-1 40.372086598293663 6.3957563396082122 3.8853221048212023 0.86602541151947299 0 0.49999998660252726 0.24999999330126363 0 -0.43301270575973649 1 I I #
face $-1 $-1 $227 $21 $-1 $310 reversed single #
loop $-1 $-1 $311 $140 #
plane-surface $-1 0 25.740737694543611 0 0 -1 0 0 0 -1 forward_v I I I I #
coedge $-1 $233 $232 $312 $313 forward $141 $-1 #
coedge $-1 $143 $153 $314 $315 forward $88 $-1 #
coedge $-1 $226 $149 $143 $221 reversed $227 $-1 #
edge $-1 $316 -25.740737694543611 $154 25.740737694543611 $220 $317 forward 7 unknown #
coedge $-1 $145 $144 $232 $318 forward $57 $-1 #
coedge $-1 $311 $312 $144 $224 reversed $216 $-1 #
edge $-1 $229 -41.337931455427714 $319 41.337931455427714 $223 $320 forward 7 unknown #
edge $-1 $234 -41.337931455427714 $228 41.337931455427714 $148 $321 forward 7 unknown #
coedge $-1 $146 $220 $311 $322 reversed $227 $-1 #
loop $-1 $-1 $149 $215 #
vertex $-1 $147 $323 #
vertex $-1 $147 $324 #
straight-curve $-1 41.337931455427714 0 5.5582145293732683 0 1 0 I I #
straight-curve $-1 41.337931455427714 -25.740737694543611 0 0 0 -1 I I #
coedge $-1 $218 $151 $222 $318 reversed $141 $-1 #
coedge $-1 $151 $218 $153 $236 reversed $141 $-1 #
vertex $-1 $318 $325 #
straight-curve $-1 -41.337931455427714 -25.740737694543611 0 0 0 -1 I I #
edge $-1 $155 -25.740737694543611 $326 25.740737694543611 $233 $327 forward 7 unknown #
point $-1 41.337931455427714 -25.740737694543611 -5.5582145293732683 #
point $-1 -41.337931455427714 -25.740737694543611 -5.5582145293732683 #
face $-1 $-1 $256 $22 $-1 $328 forward single #
loop $-1 $-1 $329 $157 #
plane-surface $-1 -30.221502396681178 -29.23736470618671 0 -1 0 0 0 0 1 forward_v I I I I #
coedge $-1 $330 $160 $246 $331 reversed $96 $-1 #
coedge $-1 $160 $330 $332 $333 reversed $96 $-1 #
coedge $-1 $168 $167 $160 $245 reversed $158 $-1 #
edge $-1 $334 -5.5582145293732683 $335 5.5582145293732683 $244 $336 forward 7 unknown #
coedge $-1 $162 $161 $242 $331 forward $61 $-1 #
coedge $-1 $252 $329 $161 $248 reversed $240 $-1 #
edge $-1 $250 -3.4966270116430991 $337 3.4966270116430991 $247 $338 forward 7 unknown #
edge $-1 $335 -3.4966270116430991 $169 3.4966270116430991 $167 $339 forward 7 unknown #
vertex $-1 $248 $340 #
straight-curve $-1 0 -25.740737694543611 -5.5582145293732683 1 0 0 I I #
coedge $-1 $341 $247 $164 $253 reversed $240 $-1 #
edge $-1 $257 -5.5582145293732683 $250 5.5582145293732683 $252 $342 forward 7 unknown #
coedge $-1 $332 $165 $168 $259 forward $256 $-1 #
coedge $-1 $165 $332 $341 $343 forward $256 $-1 #
loop $-1 $-1 $165 $239 #
vertex $-1 $166 $344 #
straight-curve $-1 0 -25.740737694543611 5.5582145293732683 -1 0 0 I I #
edge $-1 $170 -3.4966270116430991 $334 3.4966270116430991 $168 $345 forward 7 unknown #
point $-1 -33.221502396681174 -25.740737694543611 -5.5582145293732683 #
point $-1 -33.221502396681174 -25.740737694543611 5.5582145293732683 #
plane-surface $-1 0 0 5.5582145293732683 0 0 1 1 0 0 forward_v I I I I #
coedge $-1 $273 $272 $265 $346 forward $173 $-1 #
coedge $-1 $265 $175 $177 $269 reversed $104 $-1 #
coedge $-1 $175 $264 $263 $346 reversed $104 $-1 #
coedge $-1 $183 $178 $175 $267 forward $184 $-1 #
edge $-1 $270 -14.785669590998367 $347 -11.905769132241211 $266 $348 forward 7 unknown #
coedge $-1 $177 $176 $273 $349 reversed $65 $-1 #
edge $-1 $350 1.1548452884789174e-014 $270 4.6777338254840037 $264 $351 forward 7 unknown #
vertex $-1 $179 $352 #
straight-curve $-1 -38.458030996670558 0.56962488509562093 5.5582145293732683 0 1 0 I I #
coedge $-1 $263 $180 $183 $277 reversed $173 $-1 #
coedge $-1 $180 $263 $268 $349 forward $173 $-1 #
vertex $-1 $181 $353 #
straight-curve $-1 -41.337931455427714 -5.1643844516637785 26.386226396902295 0 0 1 I I #
straight-curve $-1 -41.337931455427722 -5.1643844516637785 1.8721099337700053 -0.61566146476048833 0 -0.78801076186113728 I I #
edge $-1 $347 -7.4428839920462622 $185 5.1643844516637785 $272 $354 forward 7 unknown #
point $-1 -41.337931455427714 -5.1643844516637785 5.5582145293732683 #
point $-1 -38.458030996670558 -5.1643844516637785 5.5582145293732683 #
edge $-1 $355 1 $355 0 $188 $-1 forward 7 unknown #
vertex $-1 $189 $356 #
ellipse-curve $-1 -38.628402987736429 1.1392497701912419 2.7232590296641268 -0.78801076186113728 0 0.61566146476048833 0.30783073238024417 0 0.39400538093056864 1 I I #
point $-1 -39.590150493668887 1.1392497701912419 4.109167612502203 #
loop $-1 $-1 $200 $192 #
plane-surface $-1 41.337931455427714 0 0 -1 0 0 0 0 1 forward_v I I I I #
coedge $-1 $287 $195 $197 $291 reversed $119 $-1 #
coedge $-1 $195 $286 $357 $358 reversed $119 $-1 #
coedge $-1 $203 $198 $195 $289 forward $193 $-1 #
edge $-1 $292 3.6065420872852201 $359 5.5382318015533443 $288 $360 forward 7 unknown #
coedge $-1 $197 $196 $295 $361 reversed $74 $-1 #
edge $-1 $362 -82.6758629108554 $292 -78.81248337880011 $286 $363 forward 7 unknown #
vertex $-1 $199 $364 #
straight-curve $-1 39.40624174115959 1.7847629098027902 5.5582145293732594 0 -1 0 I I #
coedge $-1 $357 $200 $203 $299 reversed $284 $-1 #
coedge $-1 $200 $357 $290 $361 forward $284 $-1 #
vertex $-1 $201 $365 #
straight-curve $-1 41.337931455427714 10.164063699611731 57.574879114075173 0 0 1 I I #
straight-curve $-1 1.1076476340576846e-006 10.164063699611731 73.811827880370259 0.49999998660252726 0 -0.86602541151947299 I I #
edge $-1 $359 -3.0250120604005701 $204 10.164063699611731 $294 $366 forward 7 unknown #
point $-1 41.337931455427714 10.164063699611731 5.5582145293732683 #
point $-1 39.40624174115959 10.164063699611731 5.5582145293732736 #
edge $-1 $367 1 $367 0 $207 $-1 forward 7 unknown #
vertex $-1 $208 $368 #
ellipse-curve $-1 39.50606118677419 0.74329529960294494 3.3853221182186748 0.86602541151947299 0 0.49999998660252726 0.24999999330126363 0 -0.43301270575973649 1 I I #
point $-1 40.622086591594929 0.74329529960294494 3.4523093990614657 #
edge $-1 $369 1 $369 0 $211 $-1 forward 7 unknown #
vertex $-1 $212 $370 #
ellipse-curve $-1 39.50606118677419 6.3957563396082122 3.3853221182186748 0.86602541151947299 0 0.49999998660252726 0.24999999330126363 0 -0.43301270575973649 1 I I #
point $-1 40.622086591594929 6.3957563396082122 3.4523093990614657 #
plane-surface $-1 41.337931455427714 0 0 -1 0 0 0 0 1 forward_v I I I I #
coedge $-1 $314 $223 $226 $322 forward $216 $-1 #
coedge $-1 $223 $314 $218 $313 reversed $216 $-1 #
edge $-1 $319 -5.5582145293732683 $326 5.5582145293732683 $312 $371 forward 7 unknown #
coedge $-1 $312 $311 $219 $315 reversed $216 $-1 #
edge $-1 $326 -41.337931455427714 $316 41.337931455427714 $314 $372 forward 7 unknown #
vertex $-1 $221 $373 #
straight-curve $-1 41.337931455427714 0 -5.5582145293732683 0 -1 0 I I #
edge $-1 $319 -25.740737694543611 $234 25.740737694543611 $232 $374 forward 7 unknown #
vertex $-1 $224 $375 #
straight-curve $-1 0 25.740737694543611 5.5582145293732683 -1 0 0 I I #
straight-curve $-1 0 -25.740737694543611 5.5582145293732683 1 0 0 I I #
edge $-1 $229 -5.5582145293732683 $316 5.5582145293732683 $226 $376 forward 7 unknown #
point $-1 41.337931455427714 -25.740737694543611 5.5582145293732683 #
point $-1 41.337931455427714 25.740737694543611 5.5582145293732683 #
point $-1 -41.337931455427714 -25.740737694543611 5.5582145293732683 #
vertex $-1 $315 $377 #
straight-curve $-1 -41.337931455427714 0 -5.5582145293732683 0 1 0 I I #
plane-surface $-1 0 0 5.5582145293732683 0 0 1 1 0 0 forward_v I I I I #
coedge $-1 $247 $341 $330 $378 forward $240 $-1 #
coedge $-1 $243 $242 $329 $378 reversed $96 $-1 #
edge $-1 $337 -1.5 $335 1.4999999999999964 $242 $379 forward 7 unknown #
coedge $-1 $255 $254 $243 $333 forward $256 $-1 #
edge $-1 $334 -1.4999999999999964 $380 1.5 $243 $381 forward 7 unknown #
vertex $-1 $259 $382 #
vertex $-1 $249 $383 #
straight-curve $-1 -33.221502396681174 -32.733991717829809 0 0 0 -1 I I #
vertex $-1 $378 $384 #
straight-curve $-1 -30.221502396681178 -29.23736470618671 -5.5582145293732683 0 -1 0 I I #
straight-curve $-1 -33.221502396681174 -29.23736470618671 -5.5582145293732683 0 1 0 I I #
point $-1 -30.221502396681178 -25.740737694543611 -5.5582145293732683 #
coedge $-1 $329 $252 $255 $343 reversed $240 $-1 #
straight-curve $-1 -30.221502396681178 -25.740737694543611 0 0 0 -1 I I #
edge $-1 $380 -3.4966270116430991 $257 3.4966270116430991 $341 $385 forward 7 unknown #
point $-1 -30.221502396681178 -25.740737694543611 5.5582145293732683 #
straight-curve $-1 -33.221502396681174 -29.23736470618671 5.5582145293732683 0 -1 0 I I #
edge $-1 $347 20.828011867529028 $350 24.514116463132279 $263 $386 forward 7 unknown #
vertex $-1 $277 $387 #
straight-curve $-1 -53.243700587668926 7.4428839920462622 5.5582145293732701 -1 0 0 I I #
edge $-1 $350 -6.8732591069506412 $274 5.7340093367593994 $273 $388 forward 7 unknown #
vertex $-1 $349 $389 #
straight-curve $-1 -41.337931455427722 7.4428839920462622 1.8721099337700053 0.61566146476048833 0 0.78801076186113728 I I #
point $-1 -38.458030996670558 7.4428839920462622 5.5582145293732683 #
point $-1 -41.337931455427714 -5.1643844516637785 1.8721099337700144 #
straight-curve $-1 -41.337931455427714 0 5.5582145293732683 0 -1 0 I I #
vertex $-1 $280 $390 #
point $-1 -38.32057225535619 1.1392497701912419 3.1172644105946952 #
coedge $-1 $295 $294 $287 $358 forward $284 $-1 #
edge $-1 $359 52.016664584701907 $362 55.362449433805992 $357 $391 forward 7 unknown #
vertex $-1 $299 $392 #
straight-curve $-1 35.79969965387437 -3.0250120604005701 5.5582145293732665 1 0 0 I I #
edge $-1 $362 -4.8097749702033603 $296 8.3793007898089407 $295 $393 forward 7 unknown #
vertex $-1 $361 $394 #
straight-curve $-1 1.1076476340576846e-006 -3.0250120604005701 73.811827880370259 -0.49999998660252726 0 0.86602541151947299 I I #
point $-1 39.40624174115959 -3.0250120604005701 5.5582145293732736 #
point $-1 41.337931455427714 10.164063699611731 2.2124296802691816 #
straight-curve $-1 41.337931455427714 0 5.5582145293732683 0 1 0 I I #
vertex $-1 $302 $395 #
point $-1 39.756061180075456 0.74329529960294494 2.9523094124589386 #
vertex $-1 $306 $396 #
point $-1 39.756061180075456 6.3957563396082122 2.9523094124589386 #
straight-curve $-1 -41.337931455427714 25.740737694543611 0 0 0 -1 I I #
straight-curve $-1 0 25.740737694543611 -5.5582145293732683 1 0 0 I I #
point $-1 41.337931455427714 25.740737694543611 -5.5582145293732683 #
straight-curve $-1 -41.337931455427714 0 5.5582145293732683 0 -1 0 I I #
point $-1 -41.337931455427714 25.740737694543611 5.5582145293732683 #
straight-curve $-1 41.337931455427714 25.740737694543611 0 0 0 -1 I I #
point $-1 -41.337931455427714 25.740737694543611 -5.5582145293732683 #
edge $-1 $380 -5.5582145293732683 $337 5.5582145293732683 $329 $397 forward 7 unknown #
straight-curve $-1 -31.721502396681178 -32.733991717829809 -5.5582145293732683 -1 0 0 I I #
vertex $-1 $343 $398 #
straight-curve $-1 -31.721502396681178 -32.733991717829809 5.5582145293732683 1 0 0 I I #
point $-1 -33.221502396681174 -32.733991717829809 5.5582145293732683 #
point $-1 -33.221502396681174 -32.733991717829809 -5.5582145293732683 #
point $-1 -30.221502396681178 -32.733991717829809 -5.5582145293732683 #
straight-curve $-1 -30.221502396681178 -29.23736470618671 5.5582145293732683 0 1 0 I I #
straight-curve $-1 -41.337931455427714 7.4428839920462622 26.386226396902295 0 0 -1 I I #
point $-1 -41.337931455427714 7.4428839920462622 5.5582145293732683 #
straight-curve $-1 -41.337931455427714 0.56962488509562093 1.8721099337700229 0 -1 0 I I #
point $-1 -41.337931455427714 7.4428839920462622 1.8721099337700144 #
point $-1 -38.234397606805864 1.1392497701912419 2.4154282972838823 #
straight-curve $-1 41.337931455427714 -3.0250120604005701 57.574879114075173 0 0 -1 I I #
point $-1 41.337931455427714 -3.0250120604005701 5.5582145293732683 #
straight-curve $-1 41.337931455427714 1.7847629098027902 2.2124296802691674 0 1 0 I I #
point $-1 41.337931455427714 -3.0250120604005701 2.2124296802691816 #
point $-1 39.073048481014453 0.74329529960294494 3.1353221249174115 #
point $-1 39.073048481014453 6.3957563396082122 3.1353221249174115 #
straight-curve $-1 -30.221502396681178 -32.733991717829809 0 0 0 -1 I I #
point $-1 -30.221502396681178 -32.733991717829809 5.5582145293732683 #
End-of-ACIS-data 