500 0 8 0           
7 Unknown 11 ACIS 5.0 NT 24 Fri Mar 26 02:44:01 1999 
-1 9.9999999999999995e-007 1e-010 
body $-1 $8 $-1 $9 #
body $-1 $10 $-1 $11 #
body $-1 $12 $-1 $13 #
body $-1 $14 $-1 $15 #
body $-1 $16 $-1 $17 #
body $-1 $18 $-1 $19 #
body $-1 $20 $-1 $21 #
body $-1 $22 $-1 $23 #
lump $-1 $-1 $24 $0 #
transform $-1 1 0 0 0 1 0 0 0 1 75.313577684865862 32.744983809547456 9.569765738608611 1 rotate no_reflect no_shear #
lump $-1 $-1 $25 $1 #
transform $-1 1 0 0 0 1 0 0 0 1 75.313577684865862 32.744983809547456 9.569765738608611 1 rotate no_reflect no_shear #
lump $-1 $-1 $26 $2 #
transform $-1 1 0 0 0 1 0 0 0 1 75.313577684865862 32.744983809547456 9.569765738608611 1 rotate no_reflect no_shear #
lump $-1 $-1 $27 $3 #
transform $-1 1 0 0 0 1 0 0 0 1 75.313577684865862 32.744983809547456 9.569765738608611 1 rotate no_reflect no_shear #
lump $-1 $-1 $28 $4 #
transform $-1 1 0 0 0 1 0 0 0 1 75.313577684865862 32.744983809547456 9.569765738608611 1 rotate no_reflect no_shear #
lump $-1 $-1 $29 $5 #
transform $-1 1 0 0 0 1 0 0 0 1 75.313577684865862 32.744983809547456 9.569765738608611 1 rotate no_reflect no_shear #
lump $-1 $-1 $30 $6 #
transform $-1 1 0 0 0 1 0 0 0 1 75.313577684865862 32.744983809547456 9.569765738608611 1 rotate no_reflect no_shear #
lump $-1 $-1 $31 $7 #
transform $-1 1 0 0 0 1 0 0 0 1 75.313577684865862 32.744983809547456 9.569765738608611 1 rotate no_reflect no_shear #
shell $-1 $-1 $-1 $32 $-1 $8 #
shell $-1 $-1 $-1 $33 $-1 $10 #
shell $-1 $-1 $-1 $34 $-1 $12 #
shell $-1 $-1 $-1 $35 $-1 $14 #
shell $-1 $-1 $-1 $36 $-1 $16 #
shell $-1 $-1 $-1 $37 $-1 $18 #
shell $-1 $-1 $-1 $38 $-1 $20 #
shell $-1 $-1 $-1 $39 $-1 $22 #
face $-1 $40 $41 $24 $-1 $42 reversed single #
face $-1 $43 $44 $25 $-1 $45 forward single #
face $-1 $46 $47 $26 $-1 $48 reversed single #
face $-1 $49 $50 $27 $-1 $51 forward single #
face $-1 $52 $53 $28 $-1 $54 forward single #
face $-1 $55 $56 $29 $-1 $57 reversed single #
face $-1 $58 $59 $30 $-1 $60 forward single #
face $-1 $61 $62 $31 $-1 $63 forward single #
face $-1 $64 $65 $24 $-1 $66 forward single #
loop $-1 $-1 $67 $32 #
plane-surface $-1 0 -32.744983809547456 0 0 1 0 0 0 1 forward_v I I I I #
face $-1 $68 $69 $25 $-1 $70 forward single #
loop $-1 $-1 $71 $33 #
plane-surface $-1 0 -32.744983809547456 0 0 1 0 0 0 1 forward_v I I I I #
face $-1 $72 $73 $26 $-1 $74 reversed single #
loop $-1 $-1 $75 $34 #
plane-surface $-1 38.323224326103343 6.1556474973888982 214.33527026721163 0 -1 0 -0.57357644374324357 0 -0.81915203911291934 forward_v I I I I #
face $-1 $76 $77 $27 $-1 $78 forward single #
loop $-1 $79 $80 $35 #
cone-surface $-1 70.609272365182164 -3.368611903394644 5.4592918656791465 -0.57357644374324357 0 -0.81915203911291934 1.228728058669379 0 -0.86036466561486535 1 I I 0 1 1.5 forward I I I I #
face $-1 $81 $82 $28 $-1 $83 forward single #
loop $-1 $84 $85 $36 #
cone-surface $-1 70.609272365182164 2.3459437370754799 5.4592918656791465 -0.57357644374324357 0 -0.81915203911291934 1.228728058669379 0 -0.86036466561486535 1 I I 0 1 1.5 forward I I I I #
face $-1 $86 $87 $29 $-1 $88 reversed single #
loop $-1 $-1 $89 $37 #
plane-surface $-1 -161.70976579299759 -7.1783156637080623 127.93908215907992 0 1 0 -0.57357644374324357 0 0.81915203911291934 forward_v I I I I #
face $-1 $90 $91 $30 $-1 $92 forward single #
loop $-1 $93 $94 $38 #
cone-surface $-1 -70.609272365182164 -3.368611903394644 5.4592918656791447 0.57357644374324357 0 -0.81915203911291934 1.228728058669379 0 0.86036466561486535 1 I I 0 1 1.5 forward I I I I #
face $-1 $95 $96 $31 $-1 $97 forward single #
loop $-1 $98 $99 $39 #
cone-surface $-1 -70.609272365182164 2.3459437370754799 5.4592918656791447 0.57357644374324357 0 -0.81915203911291934 1.228728058669379 0 0.86036466561486535 1 I I 0 1 1.5 forward I I I I #
face $-1 $100 $101 $24 $-1 $102 reversed single #
loop $-1 $-1 $103 $40 #
plane-surface $-1 0 0 9.569765738608611 0 0 1 1 0 0 forward_v I I I I #
coedge $-1 $104 $105 $106 $107 reversed $41 $-1 #
face $-1 $108 $109 $25 $-1 $110 reversed single #
loop $-1 $-1 $111 $43 #
plane-surface $-1 0 0 9.569765738608611 0 0 1 1 0 0 forward_v I I I I #
coedge $-1 $112 $113 $114 $115 forward $44 $-1 #
face $-1 $116 $117 $26 $-1 $118 reversed single #
loop $-1 $-1 $119 $46 #
plane-surface $-1 -48.072963782028395 -0.51133408315958206 90.948728800317369 0.57357644374324357 0 0.81915203911291934 0.81915203911291934 0 -0.57357644374324357 forward_v I I I I #
coedge $-1 $120 $121 $122 $123 reversed $47 $-1 #
face $-1 $-1 $124 $27 $-1 $125 forward single #
loop $-1 $126 $127 $49 #
cone-surface $-1 69.057454618592487 -3.368611903394644 3.2430664866264731 -0.57357644374324357 0 -0.81915203911291934 0.61436402933468948 0 -0.43018233280743268 1 I I -0.70710678118654757 0.70710678118654757 0.75 forward I I I I #
loop $-1 $-1 $128 $35 #
coedge $-1 $80 $80 $129 $130 reversed $50 $-1 #
face $-1 $-1 $131 $28 $-1 $132 forward single #
loop $-1 $133 $134 $52 #
cone-surface $-1 69.057454618592487 2.3459437370754799 3.2430664866264731 -0.57357644374324357 0 -0.81915203911291934 0.61436402933468948 0 -0.43018233280743268 1 I I -0.70710678118654757 0.70710678118654757 0.75 forward I I I I #
loop $-1 $-1 $135 $36 #
coedge $-1 $85 $85 $136 $137 reversed $53 $-1 #
face $-1 $138 $139 $29 $-1 $140 reversed single #
loop $-1 $-1 $141 $55 #
plane-surface $-1 -75.313577684865848 -0.51133408315958206 4.5525406921856586 -0.57357644374324357 0 0.81915203911291934 0.81915203911291934 0 0.57357644374324357 forward_v I I I I #
coedge $-1 $142 $143 $144 $145 reversed $56 $-1 #
face $-1 $-1 $146 $30 $-1 $147 forward single #
loop $-1 $148 $149 $58 #
cone-surface $-1 -69.057454618592487 -3.368611903394644 3.2430664866264713 0.57357644374324357 0 -0.81915203911291934 0.61436402933468948 0 0.43018233280743268 1 I I -0.70710678118654757 0.70710678118654757 0.75 forward I I I I #
loop $-1 $-1 $150 $38 #
coedge $-1 $94 $94 $151 $152 reversed $59 $-1 #
face $-1 $-1 $153 $31 $-1 $154 forward single #
loop $-1 $155 $156 $61 #
cone-surface $-1 -69.057454618592487 2.3459437370754799 3.2430664866264713 0.57357644374324357 0 -0.81915203911291934 0.61436402933468948 0 0.43018233280743268 1 I I -0.70710678118654757 0.70710678118654757 0.75 forward I I I I #
loop $-1 $-1 $157 $39 #
coedge $-1 $99 $99 $158 $159 reversed $62 $-1 #
face $-1 $160 $161 $24 $-1 $162 reversed single #
loop $-1 $-1 $163 $64 #
plane-surface $-1 0 0 -9.569765738608611 0 0 1 1 0 0 forward_v I I I I #
coedge $-1 $164 $165 $166 $167 forward $65 $-1 #
coedge $-1 $168 $67 $169 $170 reversed $41 $-1 #
coedge $-1 $67 $168 $171 $172 forward $41 $-1 #
coedge $-1 $173 $163 $67 $107 forward $101 $-1 #
edge $-1 $174 -75.313577684865862 $175 75.313577684865862 $67 $176 forward 7 unknown #
face $-1 $177 $178 $25 $-1 $179 reversed single #
loop $-1 $-1 $180 $68 #
plane-surface $-1 -75.313577684865862 0 0 1 0 0 0 0 -1 forward_v I I I I #
coedge $-1 $181 $182 $113 $183 forward $69 $-1 #
coedge $-1 $184 $71 $185 $186 reversed $44 $-1 #
coedge $-1 $71 $184 $111 $183 reversed $44 $-1 #
coedge $-1 $187 $188 $71 $115 reversed $189 $-1 #
edge $-1 $190 -9.569765738608611 $191 9.569765738608611 $114 $192 forward 7 unknown #
face $-1 $193 $194 $26 $-1 $195 forward single #
loop $-1 $-1 $196 $72 #
plane-surface $-1 38.323224326103343 -7.1783156637080623 214.33527026721163 0 1 0 0.57357644374324357 0 0.81915203911291934 forward_v I I I I #
coedge $-1 $197 $198 $199 $200 reversed $73 $-1 #
coedge $-1 $121 $75 $201 $202 reversed $47 $-1 #
coedge $-1 $75 $120 $197 $203 reversed $47 $-1 #
coedge $-1 $199 $204 $75 $123 forward $194 $-1 #
edge $-1 $205 -56.151965521814191 $206 -48.986625710011296 $122 $207 forward 7 unknown #
loop $-1 $-1 $129 $76 #
plane-surface $-1 -48.072963782028395 -0.51133408315958206 90.948728800317369 0.57357644374324357 0 0.81915203911291934 0.81915203911291934 0 -0.57357644374324357 forward_v I I I I #
loop $-1 $-1 $208 $49 #
coedge $-1 $127 $127 $128 $209 reversed $77 $-1 #
coedge $-1 $128 $128 $127 $209 forward $79 $-1 #
coedge $-1 $129 $129 $80 $130 forward $124 $-1 #
edge $-1 $210 0 $210 6.2831853071796004 $129 $211 forward 7 unknown #
loop $-1 $-1 $136 $81 #
plane-surface $-1 -48.072963782028395 -0.51133408315958206 90.948728800317369 0.57357644374324357 0 0.81915203911291934 0.81915203911291934 0 -0.57357644374324357 forward_v I I I I #
loop $-1 $-1 $212 $52 #
coedge $-1 $134 $134 $135 $213 reversed $82 $-1 #
coedge $-1 $135 $135 $134 $213 forward $84 $-1 #
coedge $-1 $136 $136 $85 $137 forward $131 $-1 #
edge $-1 $214 0 $214 6.2831853071796004 $136 $215 forward 7 unknown #
face $-1 $216 $217 $29 $-1 $218 reversed single #
loop $-1 $-1 $219 $86 #
plane-surface $-1 -161.70976579299759 6.1556474973888982 127.93908215907992 0 -1 0 0.57357644374324357 0 -0.81915203911291934 forward_v I I I I #
coedge $-1 $220 $221 $222 $223 reversed $87 $-1 #
coedge $-1 $143 $89 $224 $225 reversed $56 $-1 #
coedge $-1 $89 $142 $220 $226 reversed $56 $-1 #
coedge $-1 $222 $227 $89 $145 forward $228 $-1 #
edge $-1 $229 5.5413052116329311 $230 12.706645023435811 $144 $231 forward 7 unknown #
loop $-1 $-1 $151 $90 #
plane-surface $-1 -75.313577684865848 -0.51133408315958206 4.5525406921856586 -0.57357644374324357 0 0.81915203911291934 0.81915203911291934 0 0.57357644374324357 forward_v I I I I #
loop $-1 $-1 $232 $58 #
coedge $-1 $149 $149 $150 $233 reversed $91 $-1 #
coedge $-1 $150 $150 $149 $233 forward $93 $-1 #
coedge $-1 $151 $151 $94 $152 forward $146 $-1 #
edge $-1 $234 0 $234 6.2831853071796004 $151 $235 forward 7 unknown #
loop $-1 $-1 $158 $95 #
plane-surface $-1 -75.313577684865848 -0.51133408315958206 4.5525406921856586 -0.57357644374324357 0 0.81915203911291934 0.81915203911291934 0 0.57357644374324357 forward_v I I I I #
loop $-1 $-1 $236 $61 #
coedge $-1 $156 $156 $157 $237 reversed $96 $-1 #
coedge $-1 $157 $157 $156 $237 forward $98 $-1 #
coedge $-1 $158 $158 $99 $159 forward $153 $-1 #
edge $-1 $238 0 $238 6.2831853071796004 $158 $239 forward 7 unknown #
face $-1 $240 $241 $24 $-1 $242 reversed single #
loop $-1 $-1 $243 $100 #
plane-surface $-1 -75.313577684865862 0 0 1 0 0 0 0 -1 forward_v I I I I #
coedge $-1 $106 $244 $245 $246 forward $101 $-1 #
coedge $-1 $247 $103 $248 $249 forward $65 $-1 #
coedge $-1 $103 $247 $168 $250 forward $65 $-1 #
coedge $-1 $169 $251 $103 $167 reversed $252 $-1 #
edge $-1 $253 -32.744983809547456 $254 32.744983809547456 $166 $255 forward 7 unknown #
coedge $-1 $105 $104 $165 $250 reversed $41 $-1 #
coedge $-1 $245 $166 $104 $170 forward $252 $-1 #
edge $-1 $253 -9.569765738608611 $174 9.569765738608611 $169 $256 forward 7 unknown #
coedge $-1 $257 $258 $105 $172 reversed $161 $-1 #
edge $-1 $259 -9.569765738608611 $175 9.569765738608611 $171 $260 forward 7 unknown #
coedge $-1 $244 $106 $258 $261 forward $101 $-1 #
vertex $-1 $170 $262 #
vertex $-1 $261 $263 #
straight-curve $-1 0 -32.744983809547456 -9.569765738608611 -1 0 0 I I #
face $-1 $264 $189 $25 $-1 $265 reversed single #
loop $-1 $-1 $266 $108 #
plane-surface $-1 -72.498021588700325 -42.194282707375372 0 0 1 0 0 0 1 forward_v I I I I #
coedge $-1 $267 $268 $184 $269 forward $109 $-1 #
coedge $-1 $270 $111 $268 $271 forward $69 $-1 #
coedge $-1 $111 $270 $187 $272 forward $69 $-1 #
edge $-1 $190 69.682465492534789 $273 75.313577684865862 $111 $274 forward 7 unknown #
coedge $-1 $113 $112 $180 $269 reversed $44 $-1 #
coedge $-1 $275 $276 $112 $186 forward $277 $-1 #
edge $-1 $278 -75.313577684865862 $191 -69.682465492534789 $185 $279 forward 7 unknown #
coedge $-1 $280 $114 $182 $272 reversed $189 $-1 #
coedge $-1 $114 $280 $275 $281 reversed $189 $-1 #
loop $-1 $-1 $280 $177 #
vertex $-1 $183 $282 #
vertex $-1 $281 $283 #
straight-curve $-1 -69.682465492534789 -32.744983809547456 0 0 0 -1 I I #
face $-1 $-1 $284 $26 $-1 $285 reversed single #
loop $-1 $-1 $122 $116 #
plane-surface $-1 0 0 9.569765738608611 0 0 1 1 0 0 forward_v I I I I #
coedge $-1 $286 $287 $288 $289 reversed $117 $-1 #
coedge $-1 $290 $119 $121 $203 forward $73 $-1 #
coedge $-1 $119 $290 $286 $291 forward $73 $-1 #
coedge $-1 $288 $122 $119 $200 forward $194 $-1 #
edge $-1 $206 -6.4113145389686892 $292 6.9226486221282713 $199 $293 forward 7 unknown #
coedge $-1 $294 $295 $120 $202 forward $284 $-1 #
edge $-1 $296 -102.61509444142018 $205 -97.597869394997204 $201 $297 forward 7 unknown #
edge $-1 $206 141.87989055236957 $296 150.62715536973172 $121 $298 forward 7 unknown #
coedge $-1 $122 $288 $294 $299 forward $194 $-1 #
vertex $-1 $202 $300 #
vertex $-1 $123 $301 #
straight-curve $-1 19.161612163051672 6.1556474973888982 9.5697657386086092 -1 0 0 I I #
coedge $-1 $208 $208 $-1 $302 reversed $126 $-1 #
edge $-1 $303 0 $303 6.2831853071796004 $127 $304 forward 7 unknown #
vertex $-1 $130 $305 #
ellipse-curve $-1 71.730907778964408 -3.368611903394644 7.0611532153971144 0.57357644374324357 0 0.81915203911291934 1.228728058669379 0 -0.86036466561486535 1 I I #
coedge $-1 $212 $212 $-1 $306 reversed $133 $-1 #
edge $-1 $307 0 $307 6.2831853071796004 $134 $308 forward 7 unknown #
vertex $-1 $137 $309 #
ellipse-curve $-1 71.730907778964408 2.3459437370754799 7.0611532153971144 0.57357644374324357 0 0.81915203911291934 1.228728058669379 0 -0.86036466561486535 1 I I #
face $-1 $-1 $228 $29 $-1 $310 forward single #
loop $-1 $-1 $311 $138 #
plane-surface $-1 -75.313577684865862 0 0 1 0 0 0 0 -1 forward_v I I I I #
coedge $-1 $312 $313 $314 $315 reversed $139 $-1 #
coedge $-1 $316 $141 $143 $226 forward $87 $-1 #
coedge $-1 $141 $316 $312 $317 forward $87 $-1 #
coedge $-1 $314 $144 $141 $223 forward $228 $-1 #
edge $-1 $230 -6.9226486221282713 $318 6.4113145389686892 $222 $319 forward 7 unknown #
coedge $-1 $320 $321 $142 $225 forward $217 $-1 #
edge $-1 $322 -59.417000387354307 $229 -54.399775340931349 $224 $323 forward 7 unknown #
edge $-1 $230 -8.7472648173621064 $322 1.7244671030687178e-014 $143 $324 forward 7 unknown #
coedge $-1 $144 $314 $320 $325 forward $228 $-1 #
loop $-1 $-1 $314 $216 #
vertex $-1 $225 $326 #
vertex $-1 $145 $327 #
straight-curve $-1 -80.854882896498793 -7.1783156637080623 9.5697657386086092 1 0 0 I I #
coedge $-1 $232 $232 $-1 $328 reversed $148 $-1 #
edge $-1 $329 0 $329 6.2831853071796004 $149 $330 forward 7 unknown #
vertex $-1 $152 $331 #
ellipse-curve $-1 -71.730907778964422 -3.368611903394644 7.0611532153971321 -0.57357644374324357 0 0.81915203911291934 1.228728058669379 0 0.86036466561486535 1 I I #
coedge $-1 $236 $236 $-1 $332 reversed $155 $-1 #
edge $-1 $333 0 $333 6.2831853071796004 $156 $334 forward 7 unknown #
vertex $-1 $159 $335 #
ellipse-curve $-1 -71.730907778964422 2.3459437370754799 7.0611532153971321 -0.57357644374324357 0 0.81915203911291934 1.228728058669379 0 0.86036466561486535 1 I I #
face $-1 $-1 $252 $24 $-1 $336 reversed single #
loop $-1 $-1 $337 $160 #
plane-surface $-1 0 32.744983809547456 0 0 -1 0 0 0 -1 forward_v I I I I #
coedge $-1 $258 $257 $338 $339 forward $161 $-1 #
coedge $-1 $163 $173 $340 $341 forward $101 $-1 #
coedge $-1 $251 $169 $163 $246 reversed $252 $-1 #
edge $-1 $342 -32.744983809547456 $174 32.744983809547456 $245 $343 forward 7 unknown #
coedge $-1 $165 $164 $257 $344 forward $65 $-1 #
coedge $-1 $337 $338 $164 $249 reversed $241 $-1 #
edge $-1 $254 -75.313577684865862 $345 75.313577684865862 $248 $346 forward 7 unknown #
edge $-1 $259 -75.313577684865862 $253 75.313577684865862 $168 $347 forward 7 unknown #
coedge $-1 $166 $245 $337 $348 reversed $252 $-1 #
loop $-1 $-1 $169 $240 #
vertex $-1 $167 $349 #
vertex $-1 $167 $350 #
straight-curve $-1 75.313577684865862 0 9.569765738608611 0 1 0 I I #
straight-curve $-1 75.313577684865862 -32.744983809547456 0 0 0 -1 I I #
coedge $-1 $243 $171 $247 $344 reversed $161 $-1 #
coedge $-1 $171 $243 $173 $261 reversed $161 $-1 #
vertex $-1 $344 $351 #
straight-curve $-1 -75.313577684865862 -32.744983809547456 0 0 0 -1 I I #
edge $-1 $175 -32.744983809547456 $352 32.744983809547456 $258 $353 forward 7 unknown #
point $-1 75.313577684865862 -32.744983809547456 -9.569765738608611 #
point $-1 -75.313577684865862 -32.744983809547456 -9.569765738608611 #
face $-1 $-1 $277 $25 $-1 $354 reversed single #
plane-surface $-1 -69.682465492534789 -37.469633258461414 0 -1 0 0 0 0 1 forward_v I I I I #
coedge $-1 $355 $356 $357 $358 forward $178 $-1 #
coedge $-1 $357 $180 $276 $359 reversed $109 $-1 #
coedge $-1 $180 $357 $181 $271 reversed $109 $-1 #
edge $-1 $273 -9.569765738608611 $278 9.569765738608611 $180 $360 forward 7 unknown #
coedge $-1 $182 $181 $356 $361 forward $69 $-1 #
edge $-1 $273 32.744983809547456 $362 42.194282707375372 $268 $363 forward 7 unknown #
edge $-1 $364 -4.7246494489139579 $190 4.7246494489139579 $187 $365 forward 7 unknown #
vertex $-1 $271 $366 #
straight-curve $-1 0 -32.744983809547456 9.569765738608611 -1 0 0 I I #
coedge $-1 $367 $185 $188 $281 forward $277 $-1 #
coedge $-1 $185 $367 $267 $359 forward $277 $-1 #
loop $-1 $-1 $185 $264 #
vertex $-1 $269 $368 #
straight-curve $-1 0 -32.744983809547456 -9.569765738608611 1 0 0 I I #
coedge $-1 $188 $187 $369 $370 forward $189 $-1 #
edge $-1 $191 -4.7246494489139579 $371 4.7246494489139579 $188 $372 forward 7 unknown #
point $-1 -69.682465492534789 -32.744983809547456 9.569765738608611 #
point $-1 -69.682465492534789 -32.744983809547456 -9.569765738608611 #
loop $-1 $-1 $201 $193 #
plane-surface $-1 75.313577684865862 0 0 -1 0 0 0 0 1 forward_v I I I I #
coedge $-1 $287 $196 $198 $291 reversed $117 $-1 #
coedge $-1 $196 $286 $373 $374 reversed $117 $-1 #
coedge $-1 $204 $199 $196 $289 forward $194 $-1 #
edge $-1 $292 48.986625710011296 $375 56.151965521814191 $288 $376 forward 7 unknown #
coedge $-1 $198 $197 $295 $377 reversed $73 $-1 #
edge $-1 $378 -150.62715536973172 $292 -141.87989055236957 $286 $379 forward 7 unknown #
vertex $-1 $200 $380 #
straight-curve $-1 68.148237873062939 -0.25566704157979103 9.5697657386086235 0 -1 0 I I #
coedge $-1 $373 $201 $204 $299 reversed $284 $-1 #
coedge $-1 $201 $373 $290 $377 forward $284 $-1 #
vertex $-1 $202 $381 #
straight-curve $-1 75.313577684865862 6.1556474973888982 107.16763513360581 0 0 1 I I #
straight-curve $-1 -48.072963782028395 6.1556474973888982 90.948728800317369 0.81915203911291934 0 -0.57357644374324357 I I #
edge $-1 $375 -7.1783156637080623 $205 6.1556474973888982 $294 $382 forward 7 unknown #
point $-1 75.313577684865862 6.1556474973888982 9.569765738608611 #
point $-1 68.148237873062968 6.1556474973888982 9.5697657386086092 #
edge $-1 $383 1 $383 0 $208 $-1 forward 7 unknown #
vertex $-1 $209 $384 #
ellipse-curve $-1 69.487636951399921 -3.368611903394644 3.8574305159611626 0.57357644374324357 0 0.81915203911291934 1.228728058669379 0 -0.86036466561486535 1 I I #
point $-1 72.959635837633797 -3.368611903394644 6.2007885497822652 #
edge $-1 $385 1 $385 0 $212 $-1 forward 7 unknown #
vertex $-1 $213 $386 #
ellipse-curve $-1 69.487636951399921 2.3459437370754799 3.8574305159611626 0.57357644374324357 0 0.81915203911291934 1.228728058669379 0 -0.86036466561486535 1 I I #
point $-1 72.959635837633797 2.3459437370754799 6.2007885497822652 #
plane-surface $-1 0 0 9.569765738608611 0 0 1 1 0 0 forward_v I I I I #
coedge $-1 $321 $320 $313 $387 forward $217 $-1 #
coedge $-1 $313 $219 $221 $317 reversed $139 $-1 #
coedge $-1 $219 $312 $311 $387 reversed $139 $-1 #
coedge $-1 $227 $222 $219 $315 forward $228 $-1 #
edge $-1 $318 -12.706645023435811 $388 -5.5413052116329311 $314 $389 forward 7 unknown #
coedge $-1 $221 $220 $321 $390 reversed $87 $-1 #
edge $-1 $391 -1.7244671030687178e-014 $318 8.7472648173621064 $312 $392 forward 7 unknown #
vertex $-1 $223 $393 #
straight-curve $-1 -68.148237873062982 -0.25566704157979103 9.5697657386086128 0 1 0 I I #
coedge $-1 $311 $224 $227 $325 reversed $217 $-1 #
coedge $-1 $224 $311 $316 $390 forward $217 $-1 #
vertex $-1 $225 $394 #
straight-curve $-1 -75.313577684865862 -7.1783156637080623 63.969541079539958 0 0 1 I I #
straight-curve $-1 -75.313577684865848 -7.1783156637080623 4.5525406921856586 -0.81915203911291934 0 -0.57357644374324357 I I #
edge $-1 $388 -6.1556474973888982 $229 7.1783156637080623 $320 $395 forward 7 unknown #
point $-1 -75.313577684865862 -7.1783156637080623 9.569765738608611 #
point $-1 -68.148237873062982 -7.1783156637080623 9.569765738608611 #
edge $-1 $396 1 $396 0 $232 $-1 forward 7 unknown #
vertex $-1 $233 $397 #
ellipse-curve $-1 -69.487636951399921 -3.368611903394644 3.8574305159611608 -0.57357644374324357 0 0.81915203911291934 1.228728058669379 0 0.86036466561486535 1 I I #
point $-1 -70.502179720295047 -3.368611903394644 7.9215178810119946 #
edge $-1 $398 1 $398 0 $236 $-1 forward 7 unknown #
vertex $-1 $237 $399 #
ellipse-curve $-1 -69.487636951399921 2.3459437370754799 3.8574305159611608 -0.57357644374324357 0 0.81915203911291934 1.228728058669379 0 0.86036466561486535 1 I I #
point $-1 -70.502179720295047 2.3459437370754799 7.9215178810119946 #
plane-surface $-1 75.313577684865862 0 0 -1 0 0 0 0 1 forward_v I I I I #
coedge $-1 $340 $248 $251 $348 forward $241 $-1 #
coedge $-1 $248 $340 $243 $339 reversed $241 $-1 #
edge $-1 $345 -9.569765738608611 $352 9.569765738608611 $338 $400 forward 7 unknown #
coedge $-1 $338 $337 $244 $341 reversed $241 $-1 #
edge $-1 $352 -75.313577684865862 $342 75.313577684865862 $340 $401 forward 7 unknown #
vertex $-1 $246 $402 #
straight-curve $-1 75.313577684865862 0 -9.569765738608611 0 -1 0 I I #
edge $-1 $345 -32.744983809547456 $259 32.744983809547456 $257 $403 forward 7 unknown #
vertex $-1 $249 $404 #
straight-curve $-1 0 32.744983809547456 9.569765738608611 -1 0 0 I I #
straight-curve $-1 0 -32.744983809547456 9.569765738608611 1 0 0 I I #
edge $-1 $254 -9.569765738608611 $342 9.569765738608611 $251 $405 forward 7 unknown #
point $-1 75.313577684865862 -32.744983809547456 9.569765738608611 #
point $-1 75.313577684865862 32.744983809547456 9.569765738608611 #
point $-1 -75.313577684865862 -32.744983809547456 9.569765738608611 #
vertex $-1 $341 $406 #
straight-curve $-1 -75.313577684865862 0 -9.569765738608611 0 1 0 I I #
plane-surface $-1 0 0 -9.569765738608611 0 0 1 1 0 0 forward_v I I I I #
coedge $-1 $369 $266 $367 $407 reversed $178 $-1 #
coedge $-1 $266 $369 $270 $361 reversed $178 $-1 #
coedge $-1 $268 $267 $266 $358 reversed $109 $-1 #
edge $-1 $362 -9.569765738608611 $408 9.569765738608611 $357 $409 forward 7 unknown #
edge $-1 $408 -42.194282707375372 $278 -32.744983809547456 $267 $410 forward 7 unknown #
straight-curve $-1 -75.313577684865862 -32.744983809547456 0 0 0 -1 I I #
edge $-1 $362 -2.8155560961655368 $364 2.8155560961655368 $356 $411 forward 7 unknown #
vertex $-1 $271 $412 #
straight-curve $-1 -75.313577684865862 0 9.569765738608611 0 -1 0 I I #
vertex $-1 $272 $413 #
straight-curve $-1 -69.682465492534789 -37.469633258461414 9.569765738608611 0 1 0 I I #
point $-1 -75.313577684865862 -32.744983809547456 9.569765738608611 #
coedge $-1 $276 $275 $355 $407 forward $277 $-1 #
point $-1 -75.313577684865862 -32.744983809547456 -9.569765738608611 #
coedge $-1 $356 $355 $280 $370 reversed $178 $-1 #
edge $-1 $364 -9.569765738608611 $371 9.569765738608611 $280 $414 forward 7 unknown #
vertex $-1 $370 $415 #
straight-curve $-1 -69.682465492534789 -37.469633258461414 -9.569765738608611 0 -1 0 I I #
coedge $-1 $295 $294 $287 $374 forward $284 $-1 #
edge $-1 $375 97.597869394997204 $378 102.61509444142018 $373 $416 forward 7 unknown #
vertex $-1 $299 $417 #
straight-curve $-1 19.161612163051672 -7.1783156637080623 9.5697657386086092 1 0 0 I I #
edge $-1 $378 -6.9226486221282713 $296 6.4113145389686892 $295 $418 forward 7 unknown #
vertex $-1 $377 $419 #
straight-curve $-1 -48.072963782028395 -7.1783156637080623 90.948728800317369 -0.81915203911291934 0 0.57357644374324357 I I #
point $-1 68.148237873062968 -7.1783156637080623 9.5697657386086092 #
point $-1 75.313577684865862 6.1556474973888982 4.5525406921856302 #
straight-curve $-1 75.313577684865862 0 9.569765738608611 0 1 0 I I #
vertex $-1 $302 $420 #
point $-1 70.716365010069296 -3.368611903394644 2.9970658503462975 #
vertex $-1 $306 $421 #
point $-1 70.716365010069296 2.3459437370754799 2.9970658503462975 #
edge $-1 $388 54.399775340931349 $391 59.417000387354307 $311 $422 forward 7 unknown #
vertex $-1 $325 $423 #
straight-curve $-1 -80.854882896498793 6.1556474973888982 9.5697657386086092 -1 0 0 I I #
edge $-1 $391 -6.4113145389686892 $322 6.9226486221282713 $321 $424 forward 7 unknown #
vertex $-1 $390 $425 #
straight-curve $-1 -75.313577684865848 6.1556474973888982 4.5525406921856586 0.81915203911291934 0 0.57357644374324357 I I #
point $-1 -68.148237873062982 6.1556474973888982 9.569765738608611 #
point $-1 -75.313577684865862 -7.1783156637080623 4.5525406921856488 #
straight-curve $-1 -75.313577684865862 0 9.569765738608611 0 -1 0 I I #
vertex $-1 $328 $426 #
point $-1 -68.258908892730545 -3.368611903394644 4.717795181576026 #
vertex $-1 $332 $427 #
point $-1 -68.258908892730545 2.3459437370754799 4.717795181576026 #
straight-curve $-1 -75.313577684865862 32.744983809547456 0 0 0 -1 I I #
straight-curve $-1 0 32.744983809547456 -9.569765738608611 1 0 0 I I #
point $-1 75.313577684865862 32.744983809547456 -9.569765738608611 #
straight-curve $-1 -75.313577684865862 0 9.569765738608611 0 -1 0 I I #
point $-1 -75.313577684865862 32.744983809547456 9.569765738608611 #
straight-curve $-1 75.313577684865862 32.744983809547456 0 0 0 -1 I I #
point $-1 -75.313577684865862 32.744983809547456 -9.569765738608611 #
edge $-1 $371 -2.8155560961655368 $408 2.8155560961655368 $355 $428 forward 7 unknown #
vertex $-1 $359 $429 #
straight-curve $-1 -75.313577684865862 -42.194282707375372 0 0 0 -1 I I #
straight-curve $-1 -75.313577684865862 0 -9.569765738608611 0 1 0 I I #
straight-curve $-1 -72.498021588700325 -42.194282707375372 9.569765738608611 1 0 0 I I #
point $-1 -75.313577684865862 -42.194282707375372 9.569765738608611 #
point $-1 -69.682465492534789 -42.194282707375372 9.569765738608611 #
straight-curve $-1 -69.682465492534789 -42.194282707375372 0 0 0 -1 I I #
point $-1 -69.682465492534789 -42.194282707375372 -9.569765738608611 #
straight-curve $-1 75.313577684865862 -7.1783156637080623 107.16763513360581 0 0 -1 I I #
point $-1 75.313577684865862 -7.1783156637080623 9.569765738608611 #
straight-curve $-1 75.313577684865862 -0.25566704157979103 4.5525406921856231 0 1 0 I I #
point $-1 75.313577684865862 -7.1783156637080623 4.5525406921856302 #
point $-1 68.627272285785054 -3.368611903394644 2.6287024572917836 #
point $-1 68.627272285785054 2.3459437370754799 2.6287024572917836 #
straight-curve $-1 -75.313577684865862 6.1556474973888982 63.969541079539958 0 0 -1 I I #
point $-1 -75.313577684865862 6.1556474973888982 9.569765738608611 #
straight-curve $-1 -75.313577684865862 -0.25566704157979103 4.5525406921856524 0 -1 0 I I #
point $-1 -75.313577684865862 6.1556474973888982 4.5525406921856488 #
point $-1 -68.627272285785054 -3.368611903394644 2.6287024572917819 #
point $-1 -68.627272285785054 2.3459437370754799 2.6287024572917819 #
straight-curve $-1 -72.498021588700325 -42.194282707375372 -9.569765738608611 -1 0 0 I I #
point $-1 -75.313577684865862 -42.194282707375372 -9.569765738608611 #
End-of-ACIS-data 