500 0 9 0           
7 Unknown 11 ACIS 5.0 NT 24 Fri Mar 26 17:43:05 1999 
-1 9.9999999999999995e-007 1e-010 
body $-1 $9 $-1 $10 #
body $-1 $11 $-1 $12 #
body $-1 $13 $-1 $14 #
body $-1 $15 $-1 $16 #
body $-1 $17 $-1 $18 #
body $-1 $19 $-1 $20 #
body $-1 $21 $-1 $22 #
body $-1 $23 $-1 $24 #
body $-1 $25 $-1 $26 #
lump $-1 $-1 $27 $0 #
transform $-1 1 0 0 0 1 0 0 0 1 72.774437696462911 32.33195453383064 8.4819701030995081 1 rotate no_reflect no_shear #
lump $-1 $-1 $28 $1 #
transform $-1 1 0 0 0 1 0 0 0 1 72.774437696462911 32.33195453383064 8.4819701030995081 1 rotate no_reflect no_shear #
lump $-1 $-1 $29 $2 #
transform $-1 1 0 0 0 1 0 0 0 1 72.774437696462911 32.33195453383064 8.4819701030995081 1 rotate no_reflect no_shear #
lump $-1 $-1 $30 $3 #
transform $-1 1 0 0 0 1 0 0 0 1 72.774437696462911 32.33195453383064 8.4819701030995081 1 rotate no_reflect no_shear #
lump $-1 $-1 $31 $4 #
transform $-1 1 0 0 0 1 0 0 0 1 72.774437696462911 32.33195453383064 8.4819701030995081 1 rotate no_reflect no_shear #
lump $-1 $-1 $32 $5 #
transform $-1 1 0 0 0 1 0 0 0 1 72.774437696462911 32.33195453383064 8.4819701030995081 1 rotate no_reflect no_shear #
lump $-1 $-1 $33 $6 #
transform $-1 1 0 0 0 1 0 0 0 1 72.774437696462911 32.33195453383064 8.4819701030995081 1 rotate no_reflect no_shear #
lump $-1 $-1 $34 $7 #
transform $-1 1 0 0 0 1 0 0 0 1 72.774437696462911 32.33195453383064 8.4819701030995081 1 rotate no_reflect no_shear #
lump $-1 $-1 $35 $8 #
transform $-1 1 0 0 0 1 0 0 0 1 72.774437696462911 32.33195453383064 8.4819701030995081 1 rotate no_reflect no_shear #
shell $-1 $-1 $-1 $36 $-1 $9 #
shell $-1 $-1 $-1 $37 $-1 $11 #
shell $-1 $-1 $-1 $38 $-1 $13 #
shell $-1 $-1 $-1 $39 $-1 $15 #
shell $-1 $-1 $-1 $40 $-1 $17 #
shell $-1 $-1 $-1 $41 $-1 $19 #
shell $-1 $-1 $-1 $42 $-1 $21 #
shell $-1 $-1 $-1 $43 $-1 $23 #
shell $-1 $-1 $-1 $44 $-1 $25 #
face $-1 $45 $46 $27 $-1 $47 reversed single #
face $-1 $48 $49 $28 $-1 $50 forward single #
face $-1 $51 $52 $29 $-1 $53 reversed single #
face $-1 $54 $55 $30 $-1 $56 forward single #
face $-1 $57 $58 $31 $-1 $59 forward single #
face $-1 $60 $61 $32 $-1 $62 reversed single #
face $-1 $63 $64 $33 $-1 $65 forward single #
face $-1 $66 $67 $34 $-1 $68 forward single #
face $-1 $69 $70 $35 $-1 $71 forward single #
face $-1 $72 $73 $27 $-1 $74 forward single #
loop $-1 $-1 $75 $36 #
plane-surface $-1 0 -32.33195453383064 0 0 1 0 0 0 1 forward_v I I I I #
face $-1 $76 $77 $28 $-1 $78 reversed single #
loop $-1 $-1 $79 $37 #
plane-surface $-1 0 -32.33195453383064 0 0 1 0 0 0 1 forward_v I I I I #
face $-1 $80 $81 $29 $-1 $82 reversed single #
loop $-1 $-1 $83 $38 #
plane-surface $-1 -175.69303567499492 -22.53083495021464 108.26270921080705 0 1 0 -0.70710678939079041 0 0.70710677298230451 forward_v I I I I #
face $-1 $84 $85 $30 $-1 $86 forward single #
loop $-1 $87 $88 $39 #
cone-surface $-1 -69.830139634249193 -19.982932309751821 5.53767203639425 0.70710678939079041 0 -0.70710677298230451 0.70710677298230451 0 0.70710678939079041 1 I I 0 1 1 forward I I I I #
face $-1 $89 $90 $31 $-1 $91 forward single #
loop $-1 $92 $93 $40 #
cone-surface $-1 -69.830139634249193 -16.16107834905759 5.53767203639425 0.70710678939079041 0 -0.70710677298230451 0.70710677298230451 0 0.70710678939079041 1 I I 0 1 1 forward I I I I #
face $-1 $94 $95 $32 $-1 $96 reversed single #
loop $-1 $-1 $97 $41 #
plane-surface $-1 69.18208566919904 -18.376089890619038 208.49939866827725 0 -1 0 -0.69465837861970381 0 -0.71933979245794832 forward_v I I I I #
face $-1 $98 $99 $33 $-1 $100 forward single #
loop $-1 $101 $102 $42 #
cone-surface $-1 69.367794133583473 -25.021845134656523 5.1636052242805723 -0.69465837861970381 0 -0.71933979245794832 0.35966989622897416 0 -0.3473291893098519 1 I I 0 1 0.5 forward I I I I #
face $-1 $103 $104 $34 $-1 $105 forward single #
loop $-1 $106 $107 $43 #
cone-surface $-1 69.367794133583473 -22.529686918142467 5.1636052242805723 -0.69465837861970381 0 -0.71933979245794832 0.35966989622897416 0 -0.3473291893098519 1 I I 0 1 0.5 forward I I I I #
face $-1 $108 $109 $35 $-1 $110 forward single #
loop $-1 $111 $112 $44 #
cone-surface $-1 69.367794133583473 -20.03752870162841 5.1636052242805723 -0.69465837861970381 0 -0.71933979245794832 0.35966989622897416 0 -0.3473291893098519 1 I I 0 1 0.5 forward I I I I #
face $-1 $113 $114 $27 $-1 $115 reversed single #
loop $-1 $-1 $116 $45 #
plane-surface $-1 0 0 8.4819701030995081 0 0 1 1 0 0 forward_v I I I I #
coedge $-1 $117 $118 $119 $120 reversed $46 $-1 #
face $-1 $121 $122 $28 $-1 $123 reversed single #
loop $-1 $-1 $124 $48 #
plane-surface $-1 0 0 -8.4819701030995081 0 0 1 1 0 0 forward_v I I I I #
coedge $-1 $125 $126 $127 $128 forward $49 $-1 #
face $-1 $129 $130 $29 $-1 $131 reversed single #
loop $-1 $-1 $132 $51 #
plane-surface $-1 -72.774437696462925 -18.072005329404703 5.3441136205117203 -0.70710678939079041 0 0.70710677298230451 0.70710677298230451 0 0.70710678939079041 forward_v I I I I #
coedge $-1 $133 $134 $135 $136 reversed $52 $-1 #
face $-1 $-1 $137 $30 $-1 $138 forward single #
loop $-1 $139 $140 $54 #
cone-surface $-1 -68.101216382226838 -19.982932309751821 3.8087488244917331 0.70710678939079041 0 -0.70710677298230451 0.35355338649115226 0 0.35355339469539521 1 I I -0.70710678118654746 0.70710678118654746 0.5 forward I I I I #
loop $-1 $-1 $141 $39 #
coedge $-1 $88 $88 $142 $143 reversed $55 $-1 #
face $-1 $-1 $144 $31 $-1 $145 forward single #
loop $-1 $146 $147 $57 #
cone-surface $-1 -68.101216382226838 -16.16107834905759 3.8087488244917331 0.70710678939079041 0 -0.70710677298230451 0.35355338649115226 0 0.35355339469539521 1 I I -0.70710678118654746 0.70710678118654746 0.5 forward I I I I #
loop $-1 $-1 $148 $40 #
coedge $-1 $93 $93 $149 $150 reversed $58 $-1 #
face $-1 $151 $152 $32 $-1 $153 reversed single #
loop $-1 $-1 $154 $60 #
plane-surface $-1 -31.92466012117211 -22.529686918142467 103.8003008506422 0.69465837861970381 0 0.71933979245794832 0.71933979245794832 0 -0.69465837861970381 forward_v I I I I #
coedge $-1 $155 $156 $157 $158 reversed $61 $-1 #
face $-1 $-1 $159 $33 $-1 $160 forward single #
loop $-1 $161 $162 $63 #
cone-surface $-1 68.784525530831644 -25.021845134656523 4.5596129187613794 -0.69465837861970381 0 -0.71933979245794832 0.17983494811448708 0 -0.17366459465492595 1 I I -0.70710678118654746 0.70710678118654746 0.25 forward I I I I #
loop $-1 $-1 $163 $42 #
coedge $-1 $102 $102 $164 $165 reversed $64 $-1 #
face $-1 $-1 $166 $34 $-1 $167 forward single #
loop $-1 $168 $169 $66 #
cone-surface $-1 68.784525530831644 -22.529686918142467 4.5596129187613794 -0.69465837861970381 0 -0.71933979245794832 0.17983494811448708 0 -0.17366459465492595 1 I I -0.70710678118654746 0.70710678118654746 0.25 forward I I I I #
loop $-1 $-1 $170 $43 #
coedge $-1 $107 $107 $171 $172 reversed $67 $-1 #
face $-1 $-1 $173 $35 $-1 $174 forward single #
loop $-1 $175 $176 $69 #
cone-surface $-1 68.784525530831644 -20.03752870162841 4.5596129187613794 -0.69465837861970381 0 -0.71933979245794832 0.17983494811448708 0 -0.17366459465492595 1 I I -0.70710678118654746 0.70710678118654746 0.25 forward I I I I #
loop $-1 $-1 $177 $44 #
coedge $-1 $112 $112 $178 $179 reversed $70 $-1 #
face $-1 $180 $181 $27 $-1 $182 reversed single #
loop $-1 $-1 $183 $72 #
plane-surface $-1 0 0 -8.4819701030995081 0 0 1 1 0 0 forward_v I I I I #
coedge $-1 $184 $185 $186 $187 forward $73 $-1 #
coedge $-1 $188 $75 $189 $190 reversed $46 $-1 #
coedge $-1 $75 $188 $191 $192 forward $46 $-1 #
coedge $-1 $193 $183 $75 $120 forward $114 $-1 #
edge $-1 $194 -72.774437696462911 $195 72.774437696462911 $75 $196 forward 7 unknown #
face $-1 $197 $198 $28 $-1 $199 reversed single #
loop $-1 $-1 $200 $76 #
plane-surface $-1 -64.500544691003014 -37.980625121995388 0 0 1 0 0 0 1 forward_v I I I I #
coedge $-1 $201 $202 $126 $203 forward $77 $-1 #
coedge $-1 $204 $79 $205 $206 reversed $49 $-1 #
coedge $-1 $79 $204 $124 $203 reversed $49 $-1 #
coedge $-1 $207 $208 $79 $128 reversed $198 $-1 #
edge $-1 $209 -8.4819701030995081 $210 8.4819701030995081 $127 $211 forward 7 unknown #
face $-1 $212 $213 $29 $-1 $214 reversed single #
loop $-1 $-1 $215 $80 #
plane-surface $-1 -175.69303567499492 -13.613175708594769 108.26270921080705 0 -1 0 0.70710678939079041 0 -0.70710677298230451 forward_v I I I I #
coedge $-1 $216 $217 $218 $219 reversed $81 $-1 #
coedge $-1 $134 $83 $220 $221 reversed $52 $-1 #
coedge $-1 $83 $133 $216 $222 reversed $52 $-1 #
coedge $-1 $218 $223 $83 $136 forward $224 $-1 #
edge $-1 $225 15.072080141034547 $226 18.209936550808038 $135 $227 forward 7 unknown #
loop $-1 $-1 $142 $84 #
plane-surface $-1 -72.774437696462925 -18.072005329404703 5.3441136205117203 -0.70710678939079041 0 0.70710677298230451 0.70710677298230451 0 0.70710678939079041 forward_v I I I I #
loop $-1 $-1 $228 $54 #
coedge $-1 $140 $140 $141 $229 reversed $85 $-1 #
coedge $-1 $141 $141 $140 $229 forward $87 $-1 #
coedge $-1 $142 $142 $88 $143 forward $137 $-1 #
edge $-1 $230 0 $230 6.2831853071796004 $142 $231 forward 7 unknown #
loop $-1 $-1 $149 $89 #
plane-surface $-1 -72.774437696462925 -18.072005329404703 5.3441136205117203 -0.70710678939079041 0 0.70710677298230451 0.70710677298230451 0 0.70710678939079041 forward_v I I I I #
loop $-1 $-1 $232 $57 #
coedge $-1 $147 $147 $148 $233 reversed $90 $-1 #
coedge $-1 $148 $148 $147 $233 forward $92 $-1 #
coedge $-1 $149 $149 $93 $150 forward $144 $-1 #
edge $-1 $234 0 $234 6.2831853071796004 $149 $235 forward 7 unknown #
face $-1 $236 $237 $32 $-1 $238 forward single #
loop $-1 $-1 $239 $94 #
plane-surface $-1 69.18208566919904 -26.683283945665895 208.49939866827725 0 1 0 0.69465837861970381 0 0.71933979245794832 forward_v I I I I #
coedge $-1 $240 $241 $242 $243 reversed $95 $-1 #
coedge $-1 $156 $97 $244 $245 reversed $61 $-1 #
coedge $-1 $97 $155 $240 $246 reversed $61 $-1 #
coedge $-1 $242 $247 $97 $158 forward $237 $-1 #
edge $-1 $248 -38.183394861863391 $249 -32.189315752298356 $157 $250 forward 7 unknown #
loop $-1 $-1 $164 $98 #
plane-surface $-1 -31.92466012117211 -22.529686918142467 103.8003008506422 0.69465837861970381 0 0.71933979245794832 0.71933979245794832 0 -0.69465837861970381 forward_v I I I I #
loop $-1 $-1 $251 $63 #
coedge $-1 $162 $162 $163 $252 reversed $99 $-1 #
coedge $-1 $163 $163 $162 $252 forward $101 $-1 #
coedge $-1 $164 $164 $102 $165 forward $159 $-1 #
edge $-1 $253 0 $253 6.2831853071796004 $164 $254 forward 7 unknown #
loop $-1 $-1 $171 $103 #
plane-surface $-1 -31.92466012117211 -22.529686918142467 103.8003008506422 0.69465837861970381 0 0.71933979245794832 0.71933979245794832 0 -0.69465837861970381 forward_v I I I I #
loop $-1 $-1 $255 $66 #
coedge $-1 $169 $169 $170 $256 reversed $104 $-1 #
coedge $-1 $170 $170 $169 $256 forward $106 $-1 #
coedge $-1 $171 $171 $107 $172 forward $166 $-1 #
edge $-1 $257 0 $257 6.2831853071796004 $171 $258 forward 7 unknown #
loop $-1 $-1 $178 $108 #
plane-surface $-1 -31.92466012117211 -22.529686918142467 103.8003008506422 0.69465837861970381 0 0.71933979245794832 0.71933979245794832 0 -0.69465837861970381 forward_v I I I I #
loop $-1 $-1 $259 $69 #
coedge $-1 $176 $176 $177 $260 reversed $109 $-1 #
coedge $-1 $177 $177 $176 $260 forward $111 $-1 #
coedge $-1 $178 $178 $112 $179 forward $173 $-1 #
edge $-1 $261 0 $261 6.2831853071796004 $178 $262 forward 7 unknown #
face $-1 $263 $264 $27 $-1 $265 reversed single #
loop $-1 $-1 $266 $113 #
plane-surface $-1 -72.774437696462911 0 0 1 0 0 0 0 -1 forward_v I I I I #
coedge $-1 $119 $267 $268 $269 forward $114 $-1 #
coedge $-1 $270 $116 $271 $272 forward $73 $-1 #
coedge $-1 $116 $270 $188 $273 forward $73 $-1 #
coedge $-1 $189 $274 $116 $187 reversed $275 $-1 #
edge $-1 $276 -32.33195453383064 $277 32.33195453383064 $186 $278 forward 7 unknown #
coedge $-1 $118 $117 $185 $273 reversed $46 $-1 #
coedge $-1 $268 $186 $117 $190 forward $275 $-1 #
edge $-1 $276 -8.4819701030995081 $194 8.4819701030995081 $189 $279 forward 7 unknown #
coedge $-1 $280 $281 $118 $192 reversed $181 $-1 #
edge $-1 $282 -8.4819701030995081 $195 8.4819701030995081 $191 $283 forward 7 unknown #
coedge $-1 $267 $119 $281 $284 forward $114 $-1 #
vertex $-1 $190 $285 #
vertex $-1 $284 $286 #
straight-curve $-1 0 -32.33195453383064 -8.4819701030995081 -1 0 0 I I #
face $-1 $287 $288 $28 $-1 $289 reversed single #
loop $-1 $-1 $127 $121 #
plane-surface $-1 -66.721667908558643 -35.156289827913014 0 1 0 0 0 0 -1 forward_v I I I I #
coedge $-1 $290 $291 $292 $293 forward $122 $-1 #
coedge $-1 $294 $124 $295 $296 forward $77 $-1 #
coedge $-1 $124 $294 $207 $297 forward $77 $-1 #
edge $-1 $209 -66.721667908558643 $298 -62.279421473447385 $124 $299 forward 7 unknown #
coedge $-1 $126 $125 $300 $301 forward $49 $-1 #
coedge $-1 $302 $303 $125 $206 forward $304 $-1 #
edge $-1 $305 62.279421473447385 $210 66.721667908558643 $205 $306 forward 7 unknown #
coedge $-1 $292 $127 $202 $297 reversed $198 $-1 #
coedge $-1 $127 $292 $302 $307 reversed $198 $-1 #
vertex $-1 $203 $308 #
vertex $-1 $307 $309 #
straight-curve $-1 -66.721667908558643 -32.33195453383064 0 0 0 1 I I #
face $-1 $-1 $224 $29 $-1 $310 forward single #
loop $-1 $-1 $311 $129 #
plane-surface $-1 -72.774437696462911 0 0 1 0 0 0 0 -1 forward_v I I I I #
coedge $-1 $312 $313 $314 $315 reversed $130 $-1 #
coedge $-1 $316 $132 $134 $222 forward $81 $-1 #
coedge $-1 $132 $316 $312 $317 forward $81 $-1 #
coedge $-1 $314 $135 $132 $219 forward $224 $-1 #
edge $-1 $226 -13.494832285512288 $318 -4.577173043892417 $218 $319 forward 7 unknown #
coedge $-1 $320 $321 $133 $221 forward $213 $-1 #
edge $-1 $322 -48.787240984891788 $225 -45.649384502304017 $220 $323 forward 7 unknown #
edge $-1 $226 -4.4375991429685131 $322 -2.0097183471152325e-014 $134 $324 forward 7 unknown #
coedge $-1 $135 $314 $320 $325 forward $224 $-1 #
loop $-1 $-1 $314 $212 #
vertex $-1 $221 $326 #
vertex $-1 $136 $327 #
straight-curve $-1 -87.846517837497458 -22.53083495021464 8.4819701030995063 1 0 0 I I #
coedge $-1 $228 $228 $-1 $328 reversed $139 $-1 #
edge $-1 $329 0 $329 6.2831853071796004 $140 $330 forward 7 unknown #
vertex $-1 $143 $331 #
ellipse-curve $-1 -71.205509491576166 -19.982932309751821 6.9130418618056222 -0.70710678939079041 0 0.70710677298230451 0.70710677298230451 0 0.70710678939079041 1 I I #
coedge $-1 $232 $232 $-1 $332 reversed $146 $-1 #
edge $-1 $333 0 $333 6.2831853071796004 $147 $334 forward 7 unknown #
vertex $-1 $150 $335 #
ellipse-curve $-1 -71.205509491576166 -16.16107834905759 6.9130418618056222 -0.70710678939079041 0 0.70710677298230451 0.70710677298230451 0 0.70710678939079041 1 I I #
face $-1 $-1 $336 $32 $-1 $337 reversed single #
loop $-1 $-1 $157 $151 #
plane-surface $-1 0 0 8.4819701030995081 0 0 1 1 0 0 forward_v I I I I #
coedge $-1 $338 $339 $340 $341 reversed $152 $-1 #
coedge $-1 $342 $154 $156 $246 forward $95 $-1 #
coedge $-1 $154 $342 $338 $343 forward $95 $-1 #
coedge $-1 $340 $157 $154 $243 forward $237 $-1 #
edge $-1 $249 7.111246431547805 $344 15.418440486594662 $242 $345 forward 7 unknown #
coedge $-1 $346 $347 $155 $245 forward $336 $-1 #
edge $-1 $348 -101.55614427386756 $248 -95.767729231039112 $244 $349 forward 7 unknown #
edge $-1 $249 137.21612476184561 $348 145.54887539292577 $156 $350 forward 7 unknown #
coedge $-1 $157 $340 $346 $351 forward $237 $-1 #
vertex $-1 $158 $352 #
vertex $-1 $158 $353 #
straight-curve $-1 34.59104283459952 -18.376089890619038 8.4819701030995134 -1 0 0 I I #
coedge $-1 $251 $251 $-1 $354 reversed $161 $-1 #
edge $-1 $355 0 $355 6.2831853071796004 $162 $356 forward 7 unknown #
vertex $-1 $165 $357 #
ellipse-curve $-1 69.777398141680393 -25.021845134656523 5.5877625816852978 0.69465837861970381 0 0.71933979245794832 0.35966989622897416 0 -0.3473291893098519 1 I I #
coedge $-1 $255 $255 $-1 $358 reversed $168 $-1 #
edge $-1 $359 0 $359 6.2831853071796004 $169 $360 forward 7 unknown #
vertex $-1 $172 $361 #
ellipse-curve $-1 69.777398141680393 -22.529686918142467 5.5877625816852978 0.69465837861970381 0 0.71933979245794832 0.35966989622897416 0 -0.3473291893098519 1 I I #
coedge $-1 $259 $259 $-1 $362 reversed $175 $-1 #
edge $-1 $363 0 $363 6.2831853071796004 $176 $364 forward 7 unknown #
vertex $-1 $179 $365 #
ellipse-curve $-1 69.777398141680393 -20.03752870162841 5.5877625816852978 0.69465837861970381 0 0.71933979245794832 0.35966989622897416 0 -0.3473291893098519 1 I I #
face $-1 $-1 $275 $27 $-1 $366 reversed single #
loop $-1 $-1 $367 $180 #
plane-surface $-1 0 32.33195453383064 0 0 -1 0 0 0 -1 forward_v I I I I #
coedge $-1 $281 $280 $368 $369 forward $181 $-1 #
coedge $-1 $183 $193 $370 $371 forward $114 $-1 #
coedge $-1 $274 $189 $183 $269 reversed $275 $-1 #
edge $-1 $372 -32.33195453383064 $194 32.33195453383064 $268 $373 forward 7 unknown #
coedge $-1 $185 $184 $280 $374 forward $73 $-1 #
coedge $-1 $367 $368 $184 $272 reversed $264 $-1 #
edge $-1 $277 -72.774437696462911 $375 72.774437696462911 $271 $376 forward 7 unknown #
edge $-1 $282 -72.774437696462911 $276 72.774437696462911 $188 $377 forward 7 unknown #
coedge $-1 $186 $268 $367 $378 reversed $275 $-1 #
loop $-1 $-1 $189 $263 #
vertex $-1 $187 $379 #
vertex $-1 $187 $380 #
straight-curve $-1 72.774437696462911 0 8.4819701030995081 0 1 0 I I #
straight-curve $-1 72.774437696462911 -32.33195453383064 0 0 0 -1 I I #
coedge $-1 $266 $191 $270 $374 reversed $181 $-1 #
coedge $-1 $191 $266 $193 $284 reversed $181 $-1 #
vertex $-1 $374 $381 #
straight-curve $-1 -72.774437696462911 -32.33195453383064 0 0 0 -1 I I #
edge $-1 $195 -32.33195453383064 $382 32.33195453383064 $281 $383 forward 7 unknown #
point $-1 72.774437696462911 -32.33195453383064 -8.4819701030995081 #
point $-1 -72.774437696462911 -32.33195453383064 -8.4819701030995081 #
face $-1 $-1 $304 $28 $-1 $384 forward single #
loop $-1 $-1 $385 $197 #
plane-surface $-1 -62.279421473447385 -35.156289827913014 0 -1 0 0 0 0 1 forward_v I I I I #
coedge $-1 $386 $200 $294 $387 reversed $122 $-1 #
coedge $-1 $200 $386 $388 $389 reversed $122 $-1 #
coedge $-1 $208 $207 $200 $293 reversed $198 $-1 #
edge $-1 $390 -8.4819701030995081 $391 8.4819701030995081 $292 $392 forward 7 unknown #
coedge $-1 $202 $201 $290 $387 forward $77 $-1 #
coedge $-1 $300 $385 $201 $296 reversed $288 $-1 #
edge $-1 $298 -2.824335294082374 $393 2.824335294082374 $295 $394 forward 7 unknown #
edge $-1 $391 -2.824335294082374 $209 2.824335294082374 $207 $395 forward 7 unknown #
vertex $-1 $296 $396 #
straight-curve $-1 0 -32.33195453383064 -8.4819701030995081 1 0 0 I I #
coedge $-1 $397 $295 $204 $301 reversed $288 $-1 #
edge $-1 $305 -8.4819701030995081 $298 8.4819701030995081 $300 $398 forward 7 unknown #
coedge $-1 $388 $205 $208 $307 forward $304 $-1 #
coedge $-1 $205 $388 $397 $399 forward $304 $-1 #
loop $-1 $-1 $205 $287 #
vertex $-1 $206 $400 #
straight-curve $-1 0 -32.33195453383064 8.4819701030995081 -1 0 0 I I #
edge $-1 $210 -2.824335294082374 $390 2.824335294082374 $208 $401 forward 7 unknown #
point $-1 -66.721667908558643 -32.33195453383064 -8.4819701030995081 #
point $-1 -66.721667908558643 -32.33195453383064 8.4819701030995081 #
plane-surface $-1 0 0 8.4819701030995081 0 0 1 1 0 0 forward_v I I I I #
coedge $-1 $321 $320 $313 $402 forward $213 $-1 #
coedge $-1 $313 $215 $217 $317 reversed $130 $-1 #
coedge $-1 $215 $312 $311 $402 reversed $130 $-1 #
coedge $-1 $223 $218 $215 $315 forward $224 $-1 #
edge $-1 $318 -18.209936550808038 $403 -15.072080141034547 $314 $404 forward 7 unknown #
coedge $-1 $217 $216 $321 $405 reversed $81 $-1 #
edge $-1 $406 2.0097183471152325e-014 $318 4.4375991429685131 $312 $407 forward 7 unknown #
vertex $-1 $219 $408 #
straight-curve $-1 -69.63658128668942 -9.0360026647023517 8.4819701030995063 0 1 0 I I #
coedge $-1 $311 $220 $223 $325 reversed $213 $-1 #
coedge $-1 $220 $311 $316 $405 forward $213 $-1 #
vertex $-1 $221 $409 #
straight-curve $-1 -72.774437696462911 -22.53083495021464 54.131354605403523 0 0 1 I I #
straight-curve $-1 -72.774437696462925 -22.53083495021464 5.3441136205117203 -0.70710677298230451 0 -0.70710678939079041 I I #
edge $-1 $403 13.613175708594769 $225 22.53083495021464 $320 $410 forward 7 unknown #
point $-1 -72.774437696462911 -22.53083495021464 8.4819701030995081 #
point $-1 -69.63658128668942 -22.53083495021464 8.4819701030995081 #
edge $-1 $411 1 $411 0 $228 $-1 forward 7 unknown #
vertex $-1 $229 $412 #
ellipse-curve $-1 -68.454769776922234 -19.982932309751821 4.1623022109828858 -0.70710678939079041 0 0.70710677298230451 0.70710677298230451 0 0.70710678939079041 1 I I #
point $-1 -70.498402718593852 -19.982932309751821 7.6201486511964056 #
edge $-1 $413 1 $413 0 $232 $-1 forward 7 unknown #
vertex $-1 $233 $414 #
ellipse-curve $-1 -68.454769776922234 -16.16107834905759 4.1623022109828858 -0.70710678939079041 0 0.70710677298230451 0.70710677298230451 0 0.70710678939079041 1 I I #
point $-1 -70.498402718593852 -16.16107834905759 7.6201486511964056 #
loop $-1 $-1 $244 $236 #
plane-surface $-1 72.774437696462911 0 0 -1 0 0 0 0 1 forward_v I I I I #
coedge $-1 $339 $239 $241 $343 reversed $152 $-1 #
coedge $-1 $239 $338 $415 $416 reversed $152 $-1 #
coedge $-1 $247 $242 $239 $341 forward $237 $-1 #
edge $-1 $344 32.189315752298356 $417 38.183394861863391 $340 $418 forward 7 unknown #
coedge $-1 $241 $240 $347 $419 reversed $95 $-1 #
edge $-1 $420 -145.54887539292577 $344 -137.21612476184561 $338 $421 forward 7 unknown #
vertex $-1 $243 $422 #
straight-curve $-1 66.780358586897876 -11.264843459071233 8.4819701030995134 0 -1 0 I I #
coedge $-1 $415 $244 $247 $351 reversed $336 $-1 #
coedge $-1 $244 $415 $342 $419 forward $336 $-1 #
vertex $-1 $245 $423 #
straight-curve $-1 72.774437696462911 -18.376089890619038 104.24969933413863 0 0 1 I I #
straight-curve $-1 -31.92466012117211 -18.376089890619038 103.8003008506422 0.71933979245794832 0 -0.69465837861970381 I I #
edge $-1 $417 -26.683283945665895 $248 -18.376089890619038 $346 $424 forward 7 unknown #
point $-1 72.774437696462911 -18.376089890619038 8.4819701030995081 #
point $-1 66.780358586897876 -18.376089890619038 8.4819701030995276 #
edge $-1 $425 1 $425 0 $251 $-1 forward 7 unknown #
vertex $-1 $252 $426 #
ellipse-curve $-1 68.958190125486567 -25.021845134656523 4.7394478668758664 0.69465837861970381 0 0.71933979245794832 0.35966989622897416 0 -0.3473291893098519 1 I I #
point $-1 70.137068037909359 -25.021845134656523 5.2404333923754276 #
edge $-1 $427 1 $427 0 $255 $-1 forward 7 unknown #
vertex $-1 $256 $428 #
ellipse-curve $-1 68.958190125486567 -22.529686918142467 4.7394478668758664 0.69465837861970381 0 0.71933979245794832 0.35966989622897416 0 -0.3473291893098519 1 I I #
point $-1 70.137068037909359 -22.529686918142467 5.2404333923754276 #
edge $-1 $429 1 $429 0 $259 $-1 forward 7 unknown #
vertex $-1 $260 $430 #
ellipse-curve $-1 68.958190125486567 -20.03752870162841 4.7394478668758664 0.69465837861970381 0 0.71933979245794832 0.35966989622897416 0 -0.3473291893098519 1 I I #
point $-1 70.137068037909359 -20.03752870162841 5.2404333923754276 #
plane-surface $-1 72.774437696462911 0 0 -1 0 0 0 0 1 forward_v I I I I #
coedge $-1 $370 $271 $274 $378 forward $264 $-1 #
coedge $-1 $271 $370 $266 $369 reversed $264 $-1 #
edge $-1 $375 -8.4819701030995081 $382 8.4819701030995081 $368 $431 forward 7 unknown #
coedge $-1 $368 $367 $267 $371 reversed $264 $-1 #
edge $-1 $382 -72.774437696462911 $372 72.774437696462911 $370 $432 forward 7 unknown #
vertex $-1 $269 $433 #
straight-curve $-1 72.774437696462911 0 -8.4819701030995081 0 -1 0 I I #
edge $-1 $375 -32.33195453383064 $282 32.33195453383064 $280 $434 forward 7 unknown #
vertex $-1 $272 $435 #
straight-curve $-1 0 32.33195453383064 8.4819701030995081 -1 0 0 I I #
straight-curve $-1 0 -32.33195453383064 8.4819701030995081 1 0 0 I I #
edge $-1 $277 -8.4819701030995081 $372 8.4819701030995081 $274 $436 forward 7 unknown #
point $-1 72.774437696462911 -32.33195453383064 8.4819701030995081 #
point $-1 72.774437696462911 32.33195453383064 8.4819701030995081 #
point $-1 -72.774437696462911 -32.33195453383064 8.4819701030995081 #
vertex $-1 $371 $437 #
straight-curve $-1 -72.774437696462911 0 -8.4819701030995081 0 1 0 I I #
plane-surface $-1 0 0 8.4819701030995081 0 0 1 1 0 0 forward_v I I I I #
coedge $-1 $295 $397 $386 $438 forward $288 $-1 #
coedge $-1 $291 $290 $385 $438 reversed $122 $-1 #
edge $-1 $393 -2.221123217555629 $391 2.221123217555629 $290 $439 forward 7 unknown #
coedge $-1 $303 $302 $291 $389 forward $304 $-1 #
edge $-1 $390 -2.221123217555629 $440 2.221123217555629 $291 $441 forward 7 unknown #
vertex $-1 $307 $442 #
vertex $-1 $297 $443 #
straight-curve $-1 -66.721667908558643 -37.980625121995388 0 0 0 -1 I I #
vertex $-1 $438 $444 #
straight-curve $-1 -62.279421473447385 -35.156289827913014 -8.4819701030995081 0 -1 0 I I #
straight-curve $-1 -66.721667908558643 -35.156289827913014 -8.4819701030995081 0 1 0 I I #
point $-1 -62.279421473447385 -32.33195453383064 -8.4819701030995081 #
coedge $-1 $385 $300 $303 $399 reversed $288 $-1 #
straight-curve $-1 -62.279421473447385 -32.33195453383064 0 0 0 -1 I I #
edge $-1 $440 -2.824335294082374 $305 2.824335294082374 $397 $445 forward 7 unknown #
point $-1 -62.279421473447385 -32.33195453383064 8.4819701030995081 #
straight-curve $-1 -66.721667908558643 -35.156289827913014 8.4819701030995081 0 -1 0 I I #
edge $-1 $403 45.649384502304017 $406 48.787240984891788 $311 $446 forward 7 unknown #
vertex $-1 $325 $447 #
straight-curve $-1 -87.846517837497458 -13.613175708594769 8.4819701030995063 -1 0 0 I I #
edge $-1 $406 4.577173043892417 $322 13.494832285512288 $321 $448 forward 7 unknown #
vertex $-1 $405 $449 #
straight-curve $-1 -72.774437696462925 -13.613175708594769 5.3441136205117203 0.70710677298230451 0 0.70710678939079041 I I #
point $-1 -69.63658128668942 -13.613175708594769 8.4819701030995081 #
point $-1 -72.774437696462911 -22.53083495021464 5.3441136205117346 #
straight-curve $-1 -72.774437696462911 0 8.4819701030995081 0 -1 0 I I #
vertex $-1 $328 $450 #
point $-1 -67.747663003939934 -19.982932309751821 4.8694090003736754 #
vertex $-1 $332 $451 #
point $-1 -67.747663003939934 -16.16107834905759 4.8694090003736754 #
coedge $-1 $347 $346 $339 $416 forward $336 $-1 #
edge $-1 $417 95.767729231039112 $420 101.55614427386756 $415 $452 forward 7 unknown #
vertex $-1 $351 $453 #
straight-curve $-1 34.59104283459952 -26.683283945665895 8.4819701030995134 1 0 0 I I #
edge $-1 $420 -15.418440486594662 $348 -7.111246431547805 $347 $454 forward 7 unknown #
vertex $-1 $419 $455 #
straight-curve $-1 -31.92466012117211 -26.683283945665895 103.8003008506422 -0.71933979245794832 0 0.69465837861970381 I I #
point $-1 66.780358586897876 -26.683283945665895 8.4819701030995276 #
point $-1 72.774437696462911 -18.376089890619038 2.6935550602710663 #
straight-curve $-1 72.774437696462911 0 8.4819701030995081 0 1 0 I I #
vertex $-1 $354 $456 #
point $-1 69.317860021715546 -25.021845134656523 4.3921186775660148 #
vertex $-1 $358 $457 #
point $-1 69.317860021715546 -22.529686918142467 4.3921186775660148 #
vertex $-1 $362 $458 #
point $-1 69.317860021715546 -20.03752870162841 4.3921186775660148 #
straight-curve $-1 -72.774437696462911 32.33195453383064 0 0 0 -1 I I #
straight-curve $-1 0 32.33195453383064 -8.4819701030995081 1 0 0 I I #
point $-1 72.774437696462911 32.33195453383064 -8.4819701030995081 #
straight-curve $-1 -72.774437696462911 0 8.4819701030995081 0 -1 0 I I #
point $-1 -72.774437696462911 32.33195453383064 8.4819701030995081 #
straight-curve $-1 72.774437696462911 32.33195453383064 0 0 0 -1 I I #
point $-1 -72.774437696462911 32.33195453383064 -8.4819701030995081 #
edge $-1 $440 -8.4819701030995081 $393 8.4819701030995081 $385 $459 forward 7 unknown #
straight-curve $-1 -64.500544691003014 -37.980625121995388 -8.4819701030995081 -1 0 0 I I #
vertex $-1 $399 $460 #
straight-curve $-1 -64.500544691003014 -37.980625121995388 8.4819701030995081 1 0 0 I I #
point $-1 -66.721667908558643 -37.980625121995388 8.4819701030995081 #
point $-1 -66.721667908558643 -37.980625121995388 -8.4819701030995081 #
point $-1 -62.279421473447385 -37.980625121995388 -8.4819701030995081 #
straight-curve $-1 -62.279421473447385 -35.156289827913014 8.4819701030995081 0 1 0 I I #
straight-curve $-1 -72.774437696462911 -13.613175708594769 54.131354605403523 0 0 -1 I I #
point $-1 -72.774437696462911 -13.613175708594769 8.4819701030995081 #
straight-curve $-1 -72.774437696462911 -9.0360026647023517 5.3441136205117274 0 -1 0 I I #
point $-1 -72.774437696462911 -13.613175708594769 5.3441136205117346 #
point $-1 -67.747662987531442 -19.982932309751821 3.4551954380005809 #
point $-1 -67.747662987531442 -16.16107834905759 3.4551954380005809 #
straight-curve $-1 72.774437696462911 -26.683283945665895 104.24969933413863 0 0 -1 I I #
point $-1 72.774437696462911 -26.683283945665895 8.4819701030995081 #
straight-curve $-1 72.774437696462911 -11.264843459071233 2.6935550602710663 0 1 0 I I #
point $-1 72.774437696462911 -26.683283945665895 2.6935550602710663 #
point $-1 68.610860936176721 -25.021845134656523 4.3797779706468924 #
point $-1 68.610860936176721 -22.529686918142467 4.3797779706468924 #
point $-1 68.610860936176721 -20.03752870162841 4.3797779706468924 #
straight-curve $-1 -62.279421473447385 -37.980625121995388 0 0 0 -1 I I #
point $-1 -62.279421473447385 -37.980625121995388 8.4819701030995081 #
End-of-ACIS-data 