500 0 13 0           
7 Unknown 11 ACIS 5.0 NT 24 Thu Mar 25 20:48:17 1999 
-1 9.9999999999999995e-007 1e-010 
body $-1 $13 $-1 $14 #
body $-1 $15 $-1 $16 #
body $-1 $17 $-1 $18 #
body $-1 $19 $-1 $20 #
body $-1 $21 $-1 $22 #
body $-1 $23 $-1 $24 #
body $-1 $25 $-1 $26 #
body $-1 $27 $-1 $28 #
body $-1 $29 $-1 $30 #
body $-1 $31 $-1 $32 #
body $-1 $33 $-1 $34 #
body $-1 $35 $-1 $36 #
body $-1 $37 $-1 $38 #
lump $-1 $-1 $39 $0 #
transform $-1 1 0 0 0 1 0 0 0 1 60.137333292641983 41.238313254769096 13.17103926317516 1 rotate no_reflect no_shear #
lump $-1 $-1 $40 $1 #
transform $-1 1 0 0 0 1 0 0 0 1 60.137333292641983 41.238313254769096 13.17103926317516 1 rotate no_reflect no_shear #
lump $-1 $-1 $41 $2 #
transform $-1 1 0 0 0 1 0 0 0 1 60.137333292641983 41.238313254769096 13.17103926317516 1 rotate no_reflect no_shear #
lump $-1 $-1 $42 $3 #
transform $-1 1 0 0 0 1 0 0 0 1 60.137333292641983 41.238313254769096 13.17103926317516 1 rotate no_reflect no_shear #
lump $-1 $-1 $43 $4 #
transform $-1 1 0 0 0 1 0 0 0 1 60.137333292641983 41.238313254769096 13.17103926317516 1 rotate no_reflect no_shear #
lump $-1 $-1 $44 $5 #
transform $-1 1 0 0 0 1 0 0 0 1 60.137333292641983 41.238313254769096 13.17103926317516 1 rotate no_reflect no_shear #
lump $-1 $-1 $45 $6 #
transform $-1 1 0 0 0 1 0 0 0 1 60.137333292641983 41.238313254769096 13.17103926317516 1 rotate no_reflect no_shear #
lump $-1 $-1 $46 $7 #
transform $-1 1 0 0 0 1 0 0 0 1 60.137333292641983 41.238313254769096 13.17103926317516 1 rotate no_reflect no_shear #
lump $-1 $-1 $47 $8 #
transform $-1 1 0 0 0 1 0 0 0 1 60.137333292641983 41.238313254769096 13.17103926317516 1 rotate no_reflect no_shear #
lump $-1 $-1 $48 $9 #
transform $-1 1 0 0 0 1 0 0 0 1 60.137333292641983 41.238313254769096 13.17103926317516 1 rotate no_reflect no_shear #
lump $-1 $-1 $49 $10 #
transform $-1 1 0 0 0 1 0 0 0 1 60.137333292641983 41.238313254769096 13.17103926317516 1 rotate no_reflect no_shear #
lump $-1 $-1 $50 $11 #
transform $-1 1 0 0 0 1 0 0 0 1 60.137333292641983 41.238313254769096 13.17103926317516 1 rotate no_reflect no_shear #
lump $-1 $-1 $51 $12 #
transform $-1 1 0 0 0 1 0 0 0 1 60.137333292641983 41.238313254769096 13.17103926317516 1 rotate no_reflect no_shear #
shell $-1 $-1 $-1 $52 $-1 $13 #
shell $-1 $-1 $-1 $53 $-1 $15 #
shell $-1 $-1 $-1 $54 $-1 $17 #
shell $-1 $-1 $-1 $55 $-1 $19 #
shell $-1 $-1 $-1 $56 $-1 $21 #
shell $-1 $-1 $-1 $57 $-1 $23 #
shell $-1 $-1 $-1 $58 $-1 $25 #
shell $-1 $-1 $-1 $59 $-1 $27 #
shell $-1 $-1 $-1 $60 $-1 $29 #
shell $-1 $-1 $-1 $61 $-1 $31 #
shell $-1 $-1 $-1 $62 $-1 $33 #
shell $-1 $-1 $-1 $63 $-1 $35 #
shell $-1 $-1 $-1 $64 $-1 $37 #
face $-1 $65 $66 $39 $-1 $67 forward single #
face $-1 $68 $69 $40 $-1 $70 forward single #
face $-1 $71 $72 $41 $-1 $73 reversed single #
face $-1 $74 $75 $42 $-1 $76 forward single #
face $-1 $77 $78 $43 $-1 $79 forward single #
face $-1 $80 $81 $44 $-1 $82 forward single #
face $-1 $83 $84 $45 $-1 $85 reversed single #
face $-1 $86 $87 $46 $-1 $88 forward single #
face $-1 $89 $90 $47 $-1 $91 forward single #
face $-1 $92 $93 $48 $-1 $94 forward single #
face $-1 $95 $96 $49 $-1 $97 reversed single #
face $-1 $98 $99 $50 $-1 $100 forward single #
face $-1 $101 $102 $51 $-1 $103 forward single #
face $-1 $104 $105 $39 $-1 $106 reversed single #
loop $-1 $-1 $107 $52 #
plane-surface $-1 0 0 13.17103926317516 0 0 1 1 0 0 forward_v I I I I #
face $-1 $108 $109 $40 $-1 $110 reversed single #
loop $-1 $-1 $111 $53 #
plane-surface $-1 -53.906242320080395 0 -9.5269458841019059 0 0 1 1 0 0 forward_v I I I I #
face $-1 $112 $113 $41 $-1 $114 reversed single #
loop $-1 $-1 $115 $54 #
plane-surface $-1 -8.181635481424447 50.294324744355109 151.85632236884533 1 0 0 0 -0.61566148304635926 -0.78801074757464917 forward_v I I I I #
face $-1 $116 $117 $42 $-1 $118 forward single #
loop $-1 $119 $120 $55 #
cone-surface $-1 -5.2990901906272398 35.706668052741868 8.2832881117345423 0 -0.61566148304635926 -0.78801074757464917 1 0 0 1 I I 0 1 1 forward I I I I #
face $-1 $121 $122 $43 $-1 $123 forward single #
loop $-1 $124 $125 $56 #
cone-surface $-1 -0.97527225443143095 35.706668052741868 8.2832881117345423 0 -0.61566148304635926 -0.78801074757464917 1 0 0 1 I I 0 1 1 forward I I I I #
face $-1 $126 $127 $44 $-1 $128 forward single #
loop $-1 $129 $130 $57 #
cone-surface $-1 3.3485456817643779 35.706668052741868 8.2832881117345423 0 -0.61566148304635926 -0.78801074757464917 1 0 0 1 I I 0 1 1 forward I I I I #
face $-1 $131 $132 $45 $-1 $133 reversed single #
loop $-1 $-1 $134 $58 #
plane-surface $-1 -0.97527225443143095 -23.754154858447222 57.078592438684026 0 0.61566148304635926 0.78801074757464917 1 0 0 forward_v I I I I #
face $-1 $135 $136 $46 $-1 $137 forward single #
loop $-1 $138 $139 $59 #
cone-surface $-1 9.1136362633587851 35.706668052741868 8.2832881117345423 0 -0.61566148304635926 -0.78801074757464917 1 0 0 1 I I 0 1 1 forward I I I I #
face $-1 $140 $141 $47 $-1 $142 forward single #
loop $-1 $143 $144 $60 #
cone-surface $-1 13.437454199554594 35.706668052741868 8.2832881117345423 0 -0.61566148304635926 -0.78801074757464917 1 0 0 1 I I 0 1 1 forward I I I I #
face $-1 $145 $146 $48 $-1 $147 forward single #
loop $-1 $148 $149 $61 #
cone-surface $-1 17.761272135750403 35.706668052741868 8.2832881117345423 0 -0.61566148304635926 -0.78801074757464917 1 0 0 1 I I 0 1 1 forward I I I I #
face $-1 $150 $151 $49 $-1 $152 reversed single #
loop $-1 $-1 $153 $62 #
plane-surface $-1 -3.821822663656766 -130.61981035965999 84.092262783351302 -1 0 0 0 -0.74314483375859142 0.66913059716165679 forward_v I I I I #
face $-1 $154 $155 $50 $-1 $156 forward single #
loop $-1 $157 $158 $63 #
cone-surface $-1 -26.091587991682168 -32.878621917151875 4.739383488270291 0 0.74314483375859142 -0.66913059716165679 3 0 0 1 I I 0 1 3 forward I I I I #
face $-1 $159 $160 $51 $-1 $161 forward single #
loop $-1 $162 $163 $64 #
cone-surface $-1 -12.729728794866929 -32.878621917151875 4.739383488270291 0 0.74314483375859142 -0.66913059716165679 3 0 0 1 I I 0 1 3 forward I I I I #
face $-1 $164 $165 $39 $-1 $166 reversed single #
loop $-1 $-1 $167 $65 #
plane-surface $-1 0 0 -13.17103926317516 0 0 1 1 0 0 forward_v I I I I #
coedge $-1 $168 $169 $170 $171 forward $66 $-1 #
face $-1 $172 $173 $40 $-1 $174 reversed single #
loop $-1 $-1 $175 $68 #
plane-surface $-1 -47.675151347518806 0 -11.348992573638533 -1 0 0 0 0 1 forward_v I I I I #
coedge $-1 $176 $177 $178 $179 forward $69 $-1 #
face $-1 $180 $181 $41 $-1 $182 reversed single #
loop $-1 $-1 $183 $71 #
plane-surface $-1 -0.97527225443143095 -23.754154858447222 57.078592438684026 0 0.61566148304635926 0.78801074757464917 1 0 0 forward_v I I I I #
coedge $-1 $184 $185 $186 $187 reversed $72 $-1 #
face $-1 $-1 $188 $42 $-1 $189 forward single #
loop $-1 $190 $191 $74 #
cone-surface $-1 -5.2990901906272398 34.263874094746114 6.4365960955136572 0 -0.61566148304635926 -0.78801074757464917 0.5 0 0 1 I I -0.70710678118654746 0.70710678118654746 0.5 forward I I I I #
loop $-1 $-1 $192 $55 #
coedge $-1 $120 $120 $193 $194 reversed $75 $-1 #
face $-1 $-1 $195 $43 $-1 $196 forward single #
loop $-1 $197 $198 $77 #
cone-surface $-1 -0.97527225443143095 34.263874094746114 6.4365960955136572 0 -0.61566148304635926 -0.78801074757464917 0.5 0 0 1 I I -0.70710678118654746 0.70710678118654746 0.5 forward I I I I #
loop $-1 $-1 $199 $56 #
coedge $-1 $125 $125 $200 $201 reversed $78 $-1 #
face $-1 $-1 $202 $44 $-1 $203 forward single #
loop $-1 $204 $205 $80 #
cone-surface $-1 3.3485456817643779 34.263874094746114 6.4365960955136572 0 -0.61566148304635926 -0.78801074757464917 0.5 0 0 1 I I -0.70710678118654746 0.70710678118654746 0.5 forward I I I I #
loop $-1 $-1 $206 $57 #
coedge $-1 $130 $130 $207 $208 reversed $81 $-1 #
face $-1 $209 $210 $45 $-1 $211 forward single #
loop $-1 $-1 $212 $83 #
plane-surface $-1 20.64381742654761 50.294324744355109 151.85632236884533 -1 0 0 0 0.61566148304635926 0.78801074757464917 forward_v I I I I #
coedge $-1 $213 $214 $215 $216 reversed $84 $-1 #
face $-1 $-1 $217 $46 $-1 $218 forward single #
loop $-1 $219 $220 $86 #
cone-surface $-1 9.1136362633587851 34.263874094746114 6.4365960955136572 0 -0.61566148304635926 -0.78801074757464917 0.5 0 0 1 I I -0.70710678118654746 0.70710678118654746 0.5 forward I I I I #
loop $-1 $-1 $221 $59 #
coedge $-1 $139 $139 $222 $223 reversed $87 $-1 #
face $-1 $-1 $224 $47 $-1 $225 forward single #
loop $-1 $226 $227 $89 #
cone-surface $-1 13.437454199554594 34.263874094746114 6.4365960955136572 0 -0.61566148304635926 -0.78801074757464917 0.5 0 0 1 I I -0.70710678118654746 0.70710678118654746 0.5 forward I I I I #
loop $-1 $-1 $228 $60 #
coedge $-1 $144 $144 $229 $230 reversed $90 $-1 #
face $-1 $-1 $231 $48 $-1 $232 forward single #
loop $-1 $233 $234 $92 #
cone-surface $-1 17.761272135750403 34.263874094746114 6.4365960955136572 0 -0.61566148304635926 -0.78801074757464917 0.5 0 0 1 I I -0.70710678118654746 0.70710678118654746 0.5 forward I I I I #
loop $-1 $-1 $235 $61 #
coedge $-1 $149 $149 $236 $237 reversed $93 $-1 #
face $-1 $238 $239 $49 $-1 $240 reversed single #
loop $-1 $-1 $241 $95 #
plane-surface $-1 -19.410658393274545 -41.238313254769125 3.6128033077210659 0 -0.74314483375859142 0.66913059716165679 1 0 0 forward_v I I I I #
coedge $-1 $242 $243 $244 $245 reversed $96 $-1 #
face $-1 $-1 $246 $50 $-1 $247 forward single #
loop $-1 $248 $249 $98 #
cone-surface $-1 -26.091587991682168 -27.707350377120299 0.083149795349992672 0 0.74314483375859142 -0.66913059716165679 1.5 0 0 1 I I -0.70710678118654757 0.70710678118654757 1.5 forward I I I I #
loop $-1 $-1 $250 $63 #
coedge $-1 $158 $158 $251 $252 reversed $99 $-1 #
face $-1 $-1 $253 $51 $-1 $254 forward single #
loop $-1 $255 $256 $101 #
cone-surface $-1 -12.729728794866929 -27.707350377120299 0.083149795349992672 0 0.74314483375859142 -0.66913059716165679 1.5 0 0 1 I I -0.70710678118654757 0.70710678118654757 1.5 forward I I I I #
loop $-1 $-1 $257 $64 #
coedge $-1 $163 $163 $258 $259 reversed $102 $-1 #
face $-1 $260 $261 $39 $-1 $262 reversed single #
loop $-1 $-1 $263 $104 #
plane-surface $-1 0 -41.238313254769096 0 0 1 0 0 0 1 forward_v I I I I #
coedge $-1 $264 $265 $266 $267 forward $105 $-1 #
coedge $-1 $268 $107 $269 $270 forward $66 $-1 #
coedge $-1 $107 $268 $271 $272 forward $66 $-1 #
coedge $-1 $273 $274 $107 $171 reversed $275 $-1 #
edge $-1 $276 -41.238313254769096 $277 41.238313254769096 $170 $278 forward 7 unknown #
face $-1 $279 $280 $40 $-1 $281 reversed single #
loop $-1 $-1 $282 $108 #
plane-surface $-1 0 0 -13.17103926317516 0 0 1 1 0 0 forward_v I I I I #
coedge $-1 $283 $178 $284 $285 reversed $109 $-1 #
coedge $-1 $286 $111 $287 $288 reversed $69 $-1 #
coedge $-1 $111 $286 $289 $290 reversed $69 $-1 #
coedge $-1 $175 $291 $111 $179 reversed $109 $-1 #
edge $-1 $292 -41.238313254769096 $293 41.238313254769096 $178 $294 forward 7 unknown #
face $-1 $295 $296 $41 $-1 $297 reversed single #
loop $-1 $-1 $298 $112 #
plane-surface $-1 6.2310909725615851 50.294324744355109 151.85632236884533 -1 0 0 0 0.61566148304635926 0.78801074757464917 forward_v I I I I #
coedge $-1 $299 $300 $301 $302 reversed $113 $-1 #
coedge $-1 $185 $115 $303 $304 reversed $72 $-1 #
coedge $-1 $115 $184 $299 $305 reversed $72 $-1 #
coedge $-1 $301 $306 $115 $187 forward $307 $-1 #
edge $-1 $308 -16.091150882591542 $309 -7.2977869114822482 $186 $310 forward 7 unknown #
loop $-1 $-1 $193 $116 #
plane-surface $-1 -0.97527225443143095 -23.754154858447222 57.078592438684026 0 0.61566148304635926 0.78801074757464917 1 0 0 forward_v I I I I #
loop $-1 $-1 $311 $74 #
coedge $-1 $191 $191 $192 $312 reversed $117 $-1 #
coedge $-1 $192 $192 $191 $312 forward $119 $-1 #
coedge $-1 $193 $193 $120 $194 forward $188 $-1 #
edge $-1 $313 9.6265379308768015e-016 $313 6.2831853071796013 $193 $314 forward 7 unknown #
loop $-1 $-1 $200 $121 #
plane-surface $-1 -0.97527225443143095 -23.754154858447222 57.078592438684026 0 0.61566148304635926 0.78801074757464917 1 0 0 forward_v I I I I #
loop $-1 $-1 $315 $77 #
coedge $-1 $198 $198 $199 $316 reversed $122 $-1 #
coedge $-1 $199 $199 $198 $316 forward $124 $-1 #
coedge $-1 $200 $200 $125 $201 forward $195 $-1 #
edge $-1 $317 9.6265379308768015e-016 $317 6.2831853071796013 $200 $318 forward 7 unknown #
loop $-1 $-1 $207 $126 #
plane-surface $-1 -0.97527225443143095 -23.754154858447222 57.078592438684026 0 0.61566148304635926 0.78801074757464917 1 0 0 forward_v I I I I #
loop $-1 $-1 $319 $80 #
coedge $-1 $205 $205 $206 $320 reversed $127 $-1 #
coedge $-1 $206 $206 $205 $320 forward $129 $-1 #
coedge $-1 $207 $207 $130 $208 forward $202 $-1 #
edge $-1 $321 9.6265379308768015e-016 $321 6.2831853071796013 $207 $322 forward 7 unknown #
face $-1 $323 $324 $45 $-1 $325 forward single #
loop $-1 $-1 $326 $131 #
plane-surface $-1 0 0 13.17103926317516 0 0 1 1 0 0 forward_v I I I I #
coedge $-1 $327 $328 $329 $330 reversed $132 $-1 #
coedge $-1 $331 $134 $332 $333 reversed $84 $-1 #
coedge $-1 $134 $331 $326 $334 reversed $84 $-1 #
coedge $-1 $335 $336 $134 $216 forward $324 $-1 #
edge $-1 $337 -82.476626509538193 $338 -71.317687373017989 $215 $339 forward 7 unknown #
loop $-1 $-1 $222 $135 #
plane-surface $-1 -0.97527225443143095 -23.754154858447222 57.078592438684026 0 0.61566148304635926 0.78801074757464917 1 0 0 forward_v I I I I #
loop $-1 $-1 $340 $86 #
coedge $-1 $220 $220 $221 $341 reversed $136 $-1 #
coedge $-1 $221 $221 $220 $341 forward $138 $-1 #
coedge $-1 $222 $222 $139 $223 forward $217 $-1 #
edge $-1 $342 9.6265379308768015e-016 $342 6.2831853071796013 $222 $343 forward 7 unknown #
loop $-1 $-1 $229 $140 #
plane-surface $-1 -0.97527225443143095 -23.754154858447222 57.078592438684026 0 0.61566148304635926 0.78801074757464917 1 0 0 forward_v I I I I #
loop $-1 $-1 $344 $89 #
coedge $-1 $227 $227 $228 $345 reversed $141 $-1 #
coedge $-1 $228 $228 $227 $345 forward $143 $-1 #
coedge $-1 $229 $229 $144 $230 forward $224 $-1 #
edge $-1 $346 9.6265379308768015e-016 $346 6.2831853071796013 $229 $347 forward 7 unknown #
loop $-1 $-1 $236 $145 #
plane-surface $-1 -0.97527225443143095 -23.754154858447222 57.078592438684026 0 0.61566148304635926 0.78801074757464917 1 0 0 forward_v I I I I #
loop $-1 $-1 $348 $92 #
coedge $-1 $234 $234 $235 $349 reversed $146 $-1 #
coedge $-1 $235 $235 $234 $349 forward $148 $-1 #
coedge $-1 $236 $236 $149 $237 forward $231 $-1 #
edge $-1 $350 9.6265379308768015e-016 $350 6.2831853071796013 $236 $351 forward 7 unknown #
face $-1 $352 $353 $49 $-1 $354 forward single #
loop $-1 $-1 $355 $150 #
plane-surface $-1 -34.999494122892322 -130.61981035965999 84.092262783351302 1 0 0 0 0.74314483375859142 -0.66913059716165679 forward_v I I I I #
coedge $-1 $356 $357 $358 $359 reversed $151 $-1 #
coedge $-1 $243 $153 $360 $361 reversed $96 $-1 #
coedge $-1 $153 $242 $356 $362 reversed $96 $-1 #
coedge $-1 $358 $363 $153 $245 forward $353 $-1 #
edge $-1 $364 24.071591925060901 $365 32.677866021507924 $244 $366 forward 7 unknown #
loop $-1 $-1 $251 $154 #
plane-surface $-1 -19.410658393274545 -41.238313254769125 3.6128033077210659 0 -0.74314483375859142 0.66913059716165679 1 0 0 forward_v I I I I #
loop $-1 $-1 $367 $98 #
coedge $-1 $249 $249 $250 $368 reversed $155 $-1 #
coedge $-1 $250 $250 $249 $368 forward $157 $-1 #
coedge $-1 $251 $251 $158 $252 forward $246 $-1 #
edge $-1 $369 -5.2590278156781206e-016 $369 6.2831853071795996 $251 $370 forward 7 unknown #
loop $-1 $-1 $258 $159 #
plane-surface $-1 -19.410658393274545 -41.238313254769125 3.6128033077210659 0 -0.74314483375859142 0.66913059716165679 1 0 0 forward_v I I I I #
loop $-1 $-1 $371 $101 #
coedge $-1 $256 $256 $257 $372 reversed $160 $-1 #
coedge $-1 $257 $257 $256 $372 forward $162 $-1 #
coedge $-1 $258 $258 $163 $259 forward $253 $-1 #
edge $-1 $373 -5.2590278156781206e-016 $373 6.2831853071795996 $258 $374 forward 7 unknown #
face $-1 $375 $376 $39 $-1 $377 reversed single #
loop $-1 $-1 $378 $164 #
plane-surface $-1 -60.137333292641983 0 0 1 0 0 0 0 -1 forward_v I I I I #
coedge $-1 $379 $271 $380 $381 forward $165 $-1 #
coedge $-1 $382 $167 $379 $383 forward $105 $-1 #
coedge $-1 $167 $382 $384 $385 forward $105 $-1 #
coedge $-1 $274 $273 $167 $267 reversed $275 $-1 #
edge $-1 $386 -41.238313254769096 $387 41.238313254769096 $266 $388 forward 7 unknown #
coedge $-1 $169 $168 $389 $390 forward $66 $-1 #
coedge $-1 $391 $392 $168 $270 reversed $376 $-1 #
edge $-1 $277 -60.137333292641983 $393 60.137333292641983 $269 $394 forward 7 unknown #
coedge $-1 $263 $395 $169 $272 reversed $165 $-1 #
edge $-1 $396 -60.137333292641983 $276 60.137333292641983 $271 $397 forward 7 unknown #
coedge $-1 $266 $170 $395 $398 forward $275 $-1 #
coedge $-1 $170 $266 $391 $399 reversed $275 $-1 #
loop $-1 $-1 $273 $375 #
vertex $-1 $171 $400 #
vertex $-1 $171 $401 #
straight-curve $-1 60.137333292641983 0 13.17103926317516 0 1 0 I I #
face $-1 $402 $403 $40 $-1 $404 reversed single #
loop $-1 $-1 $284 $172 #
plane-surface $-1 0 -41.238313254769096 0 0 1 0 0 0 1 forward_v I I I I #
coedge $-1 $405 $406 $283 $407 forward $173 $-1 #
coedge $-1 $291 $175 $282 $407 reversed $109 $-1 #
coedge $-1 $289 $408 $175 $285 forward $280 $-1 #
edge $-1 $409 -7.4965429763558937 $292 -3.8524495972826394 $284 $410 forward 7 unknown #
coedge $-1 $177 $176 $411 $412 reversed $69 $-1 #
coedge $-1 $413 $414 $176 $288 forward $415 $-1 #
edge $-1 $416 -33.184212132601786 $293 -20.722030187478609 $287 $417 forward 7 unknown #
coedge $-1 $418 $284 $177 $290 forward $280 $-1 #
edge $-1 $292 20.722030187478609 $419 33.184212132601786 $289 $420 forward 7 unknown #
coedge $-1 $178 $283 $413 $421 reversed $109 $-1 #
vertex $-1 $290 $422 #
vertex $-1 $288 $423 #
straight-curve $-1 -47.675151347518806 0 -9.5269458841019059 0 1 0 I I #
face $-1 $-1 $307 $41 $-1 $424 forward single #
loop $-1 $-1 $425 $180 #
plane-surface $-1 0 41.238313254769096 0 0 -1 0 0 0 -1 forward_v I I I I #
coedge $-1 $426 $427 $428 $429 reversed $181 $-1 #
coedge $-1 $430 $183 $185 $305 forward $113 $-1 #
coedge $-1 $183 $430 $426 $431 forward $113 $-1 #
coedge $-1 $428 $186 $183 $302 forward $307 $-1 #
edge $-1 $309 -7.6939993542087315 $432 6.7187270997773005 $301 $433 forward 7 unknown #
coedge $-1 $434 $435 $184 $304 forward $296 $-1 #
edge $-1 $436 -69.627250939261586 $308 -62.757121921247503 $303 $437 forward 7 unknown #
edge $-1 $309 71.317687373017989 $436 82.476626509538193 $185 $438 forward 7 unknown #
coedge $-1 $186 $428 $434 $439 forward $307 $-1 #
loop $-1 $-1 $428 $295 #
vertex $-1 $304 $440 #
vertex $-1 $187 $441 #
straight-curve $-1 -8.181635481424447 25.147162372177554 13.17103926317516 0 -1 0 I I #
coedge $-1 $311 $311 $-1 $442 reversed $190 $-1 #
edge $-1 $443 0 $443 6.2831853071796004 $191 $444 forward 7 unknown #
vertex $-1 $194 $445 #
ellipse-curve $-1 -5.2990901906272398 36.841631269214453 9.7359747541681116 0 0.61566148304635926 0.78801074757464917 1 0 0 1 I I #
coedge $-1 $315 $315 $-1 $446 reversed $197 $-1 #
edge $-1 $447 0 $447 6.2831853071796004 $198 $448 forward 7 unknown #
vertex $-1 $201 $449 #
ellipse-curve $-1 -0.97527225443143095 36.841631269214453 9.7359747541681116 0 0.61566148304635926 0.78801074757464917 1 0 0 1 I I #
coedge $-1 $319 $319 $-1 $450 reversed $204 $-1 #
edge $-1 $451 0 $451 6.2831853071796004 $205 $452 forward 7 unknown #
vertex $-1 $208 $453 #
ellipse-curve $-1 3.3485456817643779 36.841631269214453 9.7359747541681116 0 0.61566148304635926 0.78801074757464917 1 0 0 1 I I #
face $-1 $-1 $454 $45 $-1 $455 reversed single #
loop $-1 $-1 $335 $209 #
plane-surface $-1 6.2310909725615851 50.294324744355109 151.85632236884533 -1 0 0 0 0.61566148304635926 0.78801074757464917 forward_v I I I I #
coedge $-1 $329 $456 $214 $334 forward $210 $-1 #
coedge $-1 $328 $212 $331 $457 reversed $132 $-1 #
coedge $-1 $212 $327 $458 $459 reversed $132 $-1 #
coedge $-1 $460 $326 $212 $330 forward $210 $-1 #
edge $-1 $461 7.2977869114822482 $462 16.091150882591542 $329 $463 forward 7 unknown #
coedge $-1 $214 $213 $327 $457 forward $84 $-1 #
coedge $-1 $464 $458 $213 $333 forward $454 $-1 #
edge $-1 $465 -21.131453553763325 $337 -6.7187270997773005 $332 $466 forward 7 unknown #
edge $-1 $338 6.7187270997773005 $461 21.131453553763325 $326 $467 forward 7 unknown #
coedge $-1 $336 $215 $456 $468 reversed $324 $-1 #
coedge $-1 $215 $335 $464 $469 reversed $324 $-1 #
vertex $-1 $333 $470 #
vertex $-1 $334 $471 #
straight-curve $-1 6.2310909725615851 -23.754154858447222 57.078592438684026 0 -0.78801074757464917 0.61566148304635926 I I #
coedge $-1 $340 $340 $-1 $472 reversed $219 $-1 #
edge $-1 $473 0 $473 6.2831853071796004 $220 $474 forward 7 unknown #
vertex $-1 $223 $475 #
ellipse-curve $-1 9.1136362633587851 36.841631269214453 9.7359747541681116 0 0.61566148304635926 0.78801074757464917 1 0 0 1 I I #
coedge $-1 $344 $344 $-1 $476 reversed $226 $-1 #
edge $-1 $477 0 $477 6.2831853071796004 $227 $478 forward 7 unknown #
vertex $-1 $230 $479 #
ellipse-curve $-1 13.437454199554594 36.841631269214453 9.7359747541681116 0 0.61566148304635926 0.78801074757464917 1 0 0 1 I I #
coedge $-1 $348 $348 $-1 $480 reversed $233 $-1 #
edge $-1 $481 0 $481 6.2831853071796004 $234 $482 forward 7 unknown #
vertex $-1 $237 $483 #
ellipse-curve $-1 17.761272135750403 36.841631269214453 9.7359747541681116 0 0.61566148304635926 0.78801074757464917 1 0 0 1 I I #
face $-1 $-1 $484 $49 $-1 $485 reversed single #
loop $-1 $-1 $244 $238 #
plane-surface $-1 0 0 13.17103926317516 0 0 1 1 0 0 forward_v I I I I #
coedge $-1 $486 $487 $488 $489 reversed $239 $-1 #
coedge $-1 $490 $241 $243 $362 forward $151 $-1 #
coedge $-1 $241 $490 $486 $491 forward $151 $-1 #
coedge $-1 $488 $244 $241 $359 forward $353 $-1 #
edge $-1 $365 -5.8835065329805065 $492 25.29416492625505 $358 $493 forward 7 unknown #
coedge $-1 $494 $495 $242 $361 forward $484 $-1 #
edge $-1 $496 -38.433328083954557 $364 -28.875092128500491 $360 $497 forward 7 unknown #
edge $-1 $365 -12.861874995633839 $496 -4.2449440147509963e-014 $243 $498 forward 7 unknown #
coedge $-1 $244 $488 $494 $499 forward $353 $-1 #
vertex $-1 $245 $500 #
vertex $-1 $245 $501 #
straight-curve $-1 -3.821822663656766 -65.309905179829997 13.17103926317516 0 1 0 I I #
coedge $-1 $367 $367 $-1 $502 reversed $248 $-1 #
edge $-1 $503 0 $503 6.2831853071796004 $249 $504 forward 7 unknown #
vertex $-1 $252 $505 #
ellipse-curve $-1 -26.091587991682168 -36.935176206545584 8.3919212854481255 0 -0.74314483375859142 0.66913059716165679 3 0 0 1 I I #
coedge $-1 $371 $371 $-1 $506 reversed $255 $-1 #
edge $-1 $507 0 $507 6.2831853071796004 $256 $508 forward 7 unknown #
vertex $-1 $259 $509 #
ellipse-curve $-1 -12.729728794866929 -36.935176206545584 8.3919212854481255 0 -0.74314483375859142 0.66913059716165679 3 0 0 1 I I #
face $-1 $-1 $275 $39 $-1 $510 reversed single #
loop $-1 $-1 $391 $260 #
plane-surface $-1 0 41.238313254769096 0 0 -1 0 0 0 -1 forward_v I I I I #
coedge $-1 $511 $389 $392 $512 forward $261 $-1 #
coedge $-1 $395 $263 $264 $383 reversed $165 $-1 #
coedge $-1 $389 $511 $263 $381 reversed $261 $-1 #
edge $-1 $396 -13.17103926317516 $513 13.17103926317516 $380 $514 forward 7 unknown #
coedge $-1 $265 $264 $511 $515 forward $105 $-1 #
edge $-1 $387 -60.137333292641983 $513 60.137333292641983 $379 $516 forward 7 unknown #
coedge $-1 $392 $391 $265 $385 reversed $376 $-1 #
edge $-1 $517 -60.137333292641983 $386 60.137333292641983 $384 $518 forward 7 unknown #
vertex $-1 $267 $519 #
vertex $-1 $398 $520 #
straight-curve $-1 60.137333292641983 0 -13.17103926317516 0 -1 0 I I #
coedge $-1 $378 $380 $268 $390 reversed $261 $-1 #
edge $-1 $393 -41.238313254769096 $396 41.238313254769096 $389 $521 forward 7 unknown #
coedge $-1 $384 $269 $274 $399 forward $376 $-1 #
coedge $-1 $269 $384 $378 $512 reversed $376 $-1 #
vertex $-1 $270 $522 #
straight-curve $-1 0 41.238313254769096 13.17103926317516 -1 0 0 I I #
coedge $-1 $271 $379 $273 $398 reversed $165 $-1 #
vertex $-1 $390 $523 #
straight-curve $-1 0 -41.238313254769096 13.17103926317516 1 0 0 I I #
edge $-1 $276 -13.17103926317516 $387 13.17103926317516 $273 $524 forward 7 unknown #
edge $-1 $277 -13.17103926317516 $386 13.17103926317516 $274 $525 forward 7 unknown #
point $-1 60.137333292641983 -41.238313254769096 13.17103926317516 #
point $-1 60.137333292641983 41.238313254769096 13.17103926317516 #
face $-1 $-1 $415 $40 $-1 $526 reversed single #
loop $-1 $-1 $411 $279 #
plane-surface $-1 -60.137333292641983 0 0 1 0 0 0 0 -1 forward_v I I I I #
coedge $-1 $527 $282 $408 $528 forward $173 $-1 #
coedge $-1 $282 $527 $529 $530 forward $173 $-1 #
edge $-1 $531 -41.238313254769096 $409 41.238313254769096 $282 $532 forward 7 unknown #
coedge $-1 $284 $418 $405 $528 reversed $280 $-1 #
vertex $-1 $528 $533 #
straight-curve $-1 -47.675151347518806 -41.238313254769096 -5.6744962868192665 0 0 1 I I #
coedge $-1 $534 $535 $286 $412 forward $403 $-1 #
edge $-1 $419 -41.238313254769096 $416 41.238313254769096 $411 $536 forward 7 unknown #
coedge $-1 $529 $287 $291 $421 forward $415 $-1 #
coedge $-1 $287 $529 $534 $537 reversed $415 $-1 #
loop $-1 $-1 $413 $402 #
vertex $-1 $537 $538 #
straight-curve $-1 -26.953121160040197 41.238313254769096 -9.5269458841019059 1 0 0 I I #
coedge $-1 $408 $289 $535 $539 forward $280 $-1 #
vertex $-1 $539 $540 #
straight-curve $-1 -26.953121160040197 -41.238313254769096 -9.5269458841019059 -1 0 0 I I #
edge $-1 $293 3.8524495972826394 $531 7.4965429763558937 $413 $541 forward 7 unknown #
point $-1 -47.675151347518806 -41.238313254769096 -9.5269458841019059 #
point $-1 -47.675151347518806 41.238313254769096 -9.5269458841019059 #
plane-surface $-1 0 0 13.17103926317516 0 0 1 1 0 0 forward_v I I I I #
coedge $-1 $435 $434 $427 $542 forward $296 $-1 #
coedge $-1 $427 $298 $300 $431 reversed $181 $-1 #
coedge $-1 $298 $426 $425 $542 reversed $181 $-1 #
coedge $-1 $306 $301 $298 $429 forward $307 $-1 #
edge $-1 $432 7.2977869114822482 $543 16.091150882591542 $428 $544 forward 7 unknown #
coedge $-1 $300 $299 $435 $545 reversed $113 $-1 #
edge $-1 $546 -82.476626509538193 $432 -71.317687373017989 $426 $547 forward 7 unknown #
vertex $-1 $302 $548 #
straight-curve $-1 -0.48763612721571548 32.44494928365981 13.17103926317516 1 0 0 I I #
coedge $-1 $425 $303 $306 $439 reversed $296 $-1 #
coedge $-1 $303 $425 $430 $545 forward $296 $-1 #
vertex $-1 $304 $549 #
straight-curve $-1 -8.181635481424447 41.238313254769096 75.928161184422663 0 0 1 I I #
straight-curve $-1 -8.181635481424447 -23.754154858447222 57.078592438684026 0 0.78801074757464917 -0.61566148304635926 I I #
edge $-1 $543 -6.2310909725615851 $308 8.181635481424447 $434 $550 forward 7 unknown #
point $-1 -8.181635481424447 41.238313254769096 13.17103926317516 #
point $-1 -8.181635481424447 32.444949283659803 13.17103926317516 #
edge $-1 $551 1 $551 0 $311 $-1 forward 7 unknown #
vertex $-1 $312 $552 #
ellipse-curve $-1 -5.2990901906272398 34.571704836269291 6.8306014693009818 0 0.61566148304635926 0.78801074757464917 1 0 0 1 I I #
point $-1 -4.2990901906272398 36.841631269214446 9.735974754168101 #
edge $-1 $553 1 $553 0 $315 $-1 forward 7 unknown #
vertex $-1 $316 $554 #
ellipse-curve $-1 -0.97527225443143095 34.571704836269291 6.8306014693009818 0 0.61566148304635926 0.78801074757464917 1 0 0 1 I I #
point $-1 0.024727745568569048 36.841631269214446 9.735974754168101 #
edge $-1 $555 1 $555 0 $319 $-1 forward 7 unknown #
vertex $-1 $320 $556 #
ellipse-curve $-1 3.3485456817643779 34.571704836269291 6.8306014693009818 0 0.61566148304635926 0.78801074757464917 1 0 0 1 I I #
point $-1 4.3485456817643779 36.841631269214446 9.735974754168101 #
loop $-1 $-1 $332 $323 #
plane-surface $-1 0 41.238313254769096 0 0 -1 0 0 0 -1 forward_v I I I I #
coedge $-1 $326 $460 $335 $468 forward $210 $-1 #
edge $-1 $465 -82.476626509538193 $461 -71.317687373017989 $327 $557 forward 7 unknown #
coedge $-1 $332 $558 $328 $459 forward $454 $-1 #
edge $-1 $462 62.757121921247503 $465 69.627250939261586 $458 $559 forward 7 unknown #
coedge $-1 $456 $329 $558 $560 forward $210 $-1 #
vertex $-1 $330 $561 #
vertex $-1 $560 $562 #
straight-curve $-1 20.64381742654761 25.147162372177554 13.17103926317516 0 1 0 I I #
coedge $-1 $558 $332 $336 $469 forward $454 $-1 #
vertex $-1 $459 $563 #
straight-curve $-1 -0.48763612721571548 41.238313254769096 6.3009102451610737 -1 0 0 I I #
straight-curve $-1 -0.48763612721571548 32.44494928365981 13.17103926317516 1 0 0 I I #
edge $-1 $564 -16.091150882591542 $338 -7.2977869114822482 $456 $565 forward 7 unknown #
edge $-1 $337 -69.627250939261586 $564 -62.757121921247503 $464 $566 forward 7 unknown #
point $-1 6.2310909725615851 41.238313254769096 6.3009102451610772 #
point $-1 6.2310909725615851 32.444949283659803 13.17103926317516 #
edge $-1 $567 1 $567 0 $340 $-1 forward 7 unknown #
vertex $-1 $341 $568 #
ellipse-curve $-1 9.1136362633587851 34.571704836269291 6.8306014693009818 0 0.61566148304635926 0.78801074757464917 1 0 0 1 I I #
point $-1 10.113636263358785 36.841631269214446 9.735974754168101 #
edge $-1 $569 1 $569 0 $344 $-1 forward 7 unknown #
vertex $-1 $345 $570 #
ellipse-curve $-1 13.437454199554594 34.571704836269291 6.8306014693009818 0 0.61566148304635926 0.78801074757464917 1 0 0 1 I I #
point $-1 14.437454199554594 36.841631269214446 9.735974754168101 #
edge $-1 $571 1 $571 0 $348 $-1 forward 7 unknown #
vertex $-1 $349 $572 #
ellipse-curve $-1 17.761272135750403 34.571704836269291 6.8306014693009818 0 0.61566148304635926 0.78801074757464917 1 0 0 1 I I #
point $-1 18.761272135750403 36.841631269214446 9.735974754168101 #
loop $-1 $-1 $360 $352 #
plane-surface $-1 0 -41.238313254769096 0 0 1 0 0 0 1 forward_v I I I I #
coedge $-1 $487 $355 $357 $491 reversed $239 $-1 #
coedge $-1 $355 $486 $573 $574 reversed $239 $-1 #
coedge $-1 $363 $358 $355 $489 forward $353 $-1 #
edge $-1 $492 -32.677866021507924 $575 -24.071591925060901 $488 $576 forward 7 unknown #
coedge $-1 $357 $356 $495 $577 reversed $151 $-1 #
edge $-1 $578 4.2449440147509963e-014 $492 12.861874995633839 $486 $579 forward 7 unknown #
vertex $-1 $359 $580 #
straight-curve $-1 -9.7053291966372726 -32.632039158322065 13.17103926317516 -1 0 0 I I #
coedge $-1 $573 $360 $363 $499 reversed $484 $-1 #
coedge $-1 $360 $573 $490 $577 forward $484 $-1 #
vertex $-1 $361 $581 #
straight-curve $-1 -3.821822663656766 -41.238313254769096 42.046131391675651 0 0 1 I I #
straight-curve $-1 -3.821822663656766 -41.238313254769125 3.6128033077210659 0 -0.66913059716165679 -0.74314483375859142 I I #
edge $-1 $575 -34.999494122892322 $364 -3.821822663656766 $494 $582 forward 7 unknown #
point $-1 -3.821822663656766 -41.238313254769096 13.17103926317516 #
point $-1 -3.821822663656766 -32.632039158322073 13.17103926317516 #
edge $-1 $583 1 $583 0 $367 $-1 forward 7 unknown #
vertex $-1 $368 $584 #
ellipse-curve $-1 -26.091587991682168 -28.822067627758187 1.0868456910924778 0 -0.74314483375859142 0.66913059716165679 3 0 0 1 I I #
point $-1 -23.091587991682168 -36.935176206545563 8.3919212854481042 #
edge $-1 $585 1 $585 0 $371 $-1 forward 7 unknown #
vertex $-1 $372 $586 #
ellipse-curve $-1 -12.729728794866929 -28.822067627758187 1.0868456910924778 0 -0.74314483375859142 0.66913059716165679 3 0 0 1 I I #
point $-1 -9.7297287948669293 -36.935176206545563 8.3919212854481042 #
plane-surface $-1 60.137333292641983 0 0 -1 0 0 0 0 1 forward_v I I I I #
coedge $-1 $380 $378 $382 $515 reversed $261 $-1 #
edge $-1 $393 -13.17103926317516 $517 13.17103926317516 $392 $587 forward 7 unknown #
vertex $-1 $515 $588 #
straight-curve $-1 -60.137333292641983 -41.238313254769096 0 0 0 -1 I I #
edge $-1 $513 -41.238313254769096 $517 41.238313254769096 $511 $589 forward 7 unknown #
straight-curve $-1 0 -41.238313254769096 -13.17103926317516 -1 0 0 I I #
vertex $-1 $385 $590 #
straight-curve $-1 0 41.238313254769096 -13.17103926317516 1 0 0 I I #
point $-1 60.137333292641983 41.238313254769096 -13.17103926317516 #
point $-1 60.137333292641983 -41.238313254769096 -13.17103926317516 #
straight-curve $-1 -60.137333292641983 0 13.17103926317516 0 -1 0 I I #
point $-1 -60.137333292641983 41.238313254769096 13.17103926317516 #
point $-1 -60.137333292641983 -41.238313254769096 13.17103926317516 #
straight-curve $-1 60.137333292641983 -41.238313254769096 0 0 0 -1 I I #
straight-curve $-1 60.137333292641983 41.238313254769096 0 0 0 -1 I I #
plane-surface $-1 0 41.238313254769096 0 0 -1 0 0 0 -1 forward_v I I I I #
coedge $-1 $406 $405 $591 $592 forward $173 $-1 #
edge $-1 $409 47.675151347518806 $593 60.137333292641983 $408 $594 forward 7 unknown #
coedge $-1 $414 $413 $406 $530 reversed $415 $-1 #
edge $-1 $595 -60.137333292641983 $531 -47.675151347518806 $529 $596 forward 7 unknown #
vertex $-1 $421 $597 #
straight-curve $-1 -47.675151347518806 0 -13.17103926317516 0 -1 0 I I #
point $-1 -47.675151347518806 -41.238313254769096 -13.17103926317516 #
coedge $-1 $591 $411 $414 $537 forward $403 $-1 #
coedge $-1 $411 $591 $418 $539 reversed $403 $-1 #
straight-curve $-1 -60.137333292641983 0 -9.5269458841019059 0 1 0 I I #
edge $-1 $416 9.5269458841019059 $595 13.17103926317516 $414 $598 forward 7 unknown #
point $-1 -60.137333292641983 41.238313254769096 -9.5269458841019059 #
edge $-1 $419 9.5269458841019059 $593 13.17103926317516 $535 $599 forward 7 unknown #
point $-1 -60.137333292641983 -41.238313254769096 -9.5269458841019059 #
straight-curve $-1 -47.675151347518806 41.238313254769096 -5.6744962868192665 0 0 -1 I I #
edge $-1 $543 62.757121921247503 $546 69.627250939261586 $425 $600 forward 7 unknown #
vertex $-1 $439 $601 #
straight-curve $-1 6.2310909725615851 25.147162372177554 13.17103926317516 0 1 0 I I #
edge $-1 $546 -6.7187270997773005 $436 7.6939993542087315 $435 $602 forward 7 unknown #
vertex $-1 $545 $603 #
straight-curve $-1 6.2310909725615851 -23.754154858447222 57.078592438684026 0 -0.78801074757464917 0.61566148304635926 I I #
point $-1 6.2310909725615851 32.444949283659803 13.17103926317516 #
point $-1 -8.181635481424447 41.238313254769096 6.3009102451610772 #
straight-curve $-1 0 41.238313254769096 13.17103926317516 -1 0 0 I I #
vertex $-1 $442 $604 #
point $-1 -4.2990901906272398 34.571704836269291 6.8306014693009818 #
vertex $-1 $446 $605 #
point $-1 0.024727745568569048 34.571704836269291 6.8306014693009818 #
vertex $-1 $450 $606 #
point $-1 4.3485456817643779 34.571704836269291 6.8306014693009818 #
straight-curve $-1 20.64381742654761 -23.754154858447222 57.078592438684026 0 -0.78801074757464917 0.61566148304635926 I I #
coedge $-1 $458 $464 $460 $560 reversed $454 $-1 #
straight-curve $-1 20.64381742654761 41.238313254769096 75.928161184422663 0 0 -1 I I #
edge $-1 $462 -20.64381742654761 $564 -6.2310909725615851 $558 $607 forward 7 unknown #
point $-1 20.64381742654761 32.444949283659803 13.17103926317516 #
point $-1 20.64381742654761 41.238313254769096 13.17103926317516 #
point $-1 20.64381742654761 41.238313254769096 6.3009102451610772 #
vertex $-1 $469 $608 #
straight-curve $-1 6.2310909725615851 25.147162372177554 13.17103926317516 0 -1 0 I I #
straight-curve $-1 6.2310909725615851 41.238313254769096 75.928161184422663 0 0 1 I I #
vertex $-1 $472 $609 #
point $-1 10.113636263358785 34.571704836269291 6.8306014693009818 #
vertex $-1 $476 $610 #
point $-1 14.437454199554594 34.571704836269291 6.8306014693009818 #
vertex $-1 $480 $611 #
point $-1 18.761272135750403 34.571704836269291 6.8306014693009818 #
coedge $-1 $495 $494 $487 $574 forward $484 $-1 #
edge $-1 $575 28.875092128500491 $578 38.433328083954557 $573 $612 forward 7 unknown #
vertex $-1 $499 $613 #
straight-curve $-1 -34.999494122892322 -65.309905179829997 13.17103926317516 0 -1 0 I I #
edge $-1 $578 -25.29416492625505 $496 5.8835065329805065 $495 $614 forward 7 unknown #
vertex $-1 $577 $615 #
straight-curve $-1 -34.999494122892322 -41.238313254769125 3.6128033077210659 0 0.66913059716165679 0.74314483375859142 I I #
point $-1 -34.999494122892322 -32.632039158322073 13.17103926317516 #
point $-1 -3.821822663656766 -41.238313254769096 3.6128033077210975 #
straight-curve $-1 0 -41.238313254769096 13.17103926317516 1 0 0 I I #
vertex $-1 $502 $616 #
point $-1 -23.091587991682168 -28.822067627758187 1.0868456910924778 #
vertex $-1 $506 $617 #
point $-1 -9.7297287948669293 -28.822067627758187 1.0868456910924778 #
straight-curve $-1 -60.137333292641983 41.238313254769096 0 0 0 -1 I I #
point $-1 -60.137333292641983 -41.238313254769096 -13.17103926317516 #
straight-curve $-1 -60.137333292641983 0 -13.17103926317516 0 1 0 I I #
point $-1 -60.137333292641983 41.238313254769096 -13.17103926317516 #
coedge $-1 $535 $534 $527 $592 reversed $403 $-1 #
edge $-1 $593 -41.238313254769096 $595 41.238313254769096 $591 $618 forward 7 unknown #
vertex $-1 $592 $619 #
straight-curve $-1 0 -41.238313254769096 -13.17103926317516 -1 0 0 I I #
vertex $-1 $530 $620 #
straight-curve $-1 0 41.238313254769096 -13.17103926317516 1 0 0 I I #
point $-1 -47.675151347518806 41.238313254769096 -13.17103926317516 #
straight-curve $-1 -60.137333292641983 41.238313254769096 0 0 0 -1 I I #
straight-curve $-1 -60.137333292641983 -41.238313254769096 0 0 0 -1 I I #
straight-curve $-1 6.2310909725615851 41.238313254769096 75.928161184422663 0 0 -1 I I #
point $-1 6.2310909725615851 41.238313254769096 13.17103926317516 #
straight-curve $-1 -0.48763612721571548 41.238313254769096 6.3009102451610737 -1 0 0 I I #
point $-1 6.2310909725615851 41.238313254769096 6.3009102451610772 #
point $-1 -5.2990901906272398 33.956043353222938 6.0425907217263326 #
point $-1 -0.97527225443143095 33.956043353222938 6.0425907217263326 #
point $-1 3.3485456817643779 33.956043353222938 6.0425907217263326 #
straight-curve $-1 0 41.238313254769096 13.17103926317516 -1 0 0 I I #
point $-1 6.2310909725615851 41.238313254769096 13.17103926317516 #
point $-1 9.1136362633587851 33.956043353222938 6.0425907217263326 #
point $-1 13.437454199554594 33.956043353222938 6.0425907217263326 #
point $-1 17.761272135750403 33.956043353222938 6.0425907217263326 #
straight-curve $-1 -34.999494122892322 -41.238313254769096 42.046131391675651 0 0 -1 I I #
point $-1 -34.999494122892322 -41.238313254769096 13.17103926317516 #
straight-curve $-1 -9.7053291966372726 -41.238313254769096 3.6128033077210966 1 0 0 I I #
point $-1 -34.999494122892322 -41.238313254769096 3.6128033077210975 #
point $-1 -26.091587991682168 -26.592633126482411 -0.92054610039249241 #
point $-1 -12.729728794866929 -26.592633126482411 -0.92054610039249241 #
straight-curve $-1 -60.137333292641983 0 -13.17103926317516 0 1 0 I I #
point $-1 -60.137333292641983 -41.238313254769096 -13.17103926317516 #
point $-1 -60.137333292641983 41.238313254769096 -13.17103926317516 #
End-of-ACIS-data 