500 0 13 0           
7 Unknown 11 ACIS 5.0 NT 24 Fri Mar 26 16:42:11 1999 
-1 9.9999999999999995e-007 1e-010 
body $-1 $13 $-1 $14 #
body $-1 $15 $-1 $16 #
body $-1 $17 $-1 $18 #
body $-1 $19 $-1 $20 #
body $-1 $21 $-1 $22 #
body $-1 $23 $-1 $24 #
body $-1 $25 $-1 $26 #
body $-1 $27 $-1 $28 #
body $-1 $29 $-1 $30 #
body $-1 $31 $-1 $32 #
body $-1 $33 $-1 $34 #
body $-1 $35 $-1 $36 #
body $-1 $37 $-1 $38 #
lump $-1 $-1 $39 $0 #
transform $-1 1 0 0 0 1 0 0 0 1 79.46531571398053 47.116309098263038 13.431606289464249 1 rotate no_reflect no_shear #
lump $-1 $-1 $40 $1 #
transform $-1 1 0 0 0 1 0 0 0 1 79.46531571398053 47.116309098263038 13.431606289464249 1 rotate no_reflect no_shear #
lump $-1 $-1 $41 $2 #
transform $-1 1 0 0 0 1 0 0 0 1 79.46531571398053 47.116309098263038 13.431606289464249 1 rotate no_reflect no_shear #
lump $-1 $-1 $42 $3 #
transform $-1 1 0 0 0 1 0 0 0 1 79.46531571398053 47.116309098263038 13.431606289464249 1 rotate no_reflect no_shear #
lump $-1 $-1 $43 $4 #
transform $-1 1 0 0 0 1 0 0 0 1 79.46531571398053 47.116309098263038 13.431606289464249 1 rotate no_reflect no_shear #
lump $-1 $-1 $44 $5 #
transform $-1 1 0 0 0 1 0 0 0 1 79.46531571398053 47.116309098263038 13.431606289464249 1 rotate no_reflect no_shear #
lump $-1 $-1 $45 $6 #
transform $-1 1 0 0 0 1 0 0 0 1 79.46531571398053 47.116309098263038 13.431606289464249 1 rotate no_reflect no_shear #
lump $-1 $-1 $46 $7 #
transform $-1 1 0 0 0 1 0 0 0 1 79.46531571398053 47.116309098263038 13.431606289464249 1 rotate no_reflect no_shear #
lump $-1 $-1 $47 $8 #
transform $-1 1 0 0 0 1 0 0 0 1 79.46531571398053 47.116309098263038 13.431606289464249 1 rotate no_reflect no_shear #
lump $-1 $-1 $48 $9 #
transform $-1 1 0 0 0 1 0 0 0 1 79.46531571398053 47.116309098263038 13.431606289464249 1 rotate no_reflect no_shear #
lump $-1 $-1 $49 $10 #
transform $-1 1 0 0 0 1 0 0 0 1 79.46531571398053 47.116309098263038 13.431606289464249 1 rotate no_reflect no_shear #
lump $-1 $-1 $50 $11 #
transform $-1 1 0 0 0 1 0 0 0 1 79.46531571398053 47.116309098263038 13.431606289464249 1 rotate no_reflect no_shear #
lump $-1 $-1 $51 $12 #
transform $-1 1 0 0 0 1 0 0 0 1 79.46531571398053 47.116309098263038 13.431606289464249 1 rotate no_reflect no_shear #
shell $-1 $-1 $-1 $52 $-1 $13 #
shell $-1 $-1 $-1 $53 $-1 $15 #
shell $-1 $-1 $-1 $54 $-1 $17 #
shell $-1 $-1 $-1 $55 $-1 $19 #
shell $-1 $-1 $-1 $56 $-1 $21 #
shell $-1 $-1 $-1 $57 $-1 $23 #
shell $-1 $-1 $-1 $58 $-1 $25 #
shell $-1 $-1 $-1 $59 $-1 $27 #
shell $-1 $-1 $-1 $60 $-1 $29 #
shell $-1 $-1 $-1 $61 $-1 $31 #
shell $-1 $-1 $-1 $62 $-1 $33 #
shell $-1 $-1 $-1 $63 $-1 $35 #
shell $-1 $-1 $-1 $64 $-1 $37 #
face $-1 $65 $66 $39 $-1 $67 forward single #
face $-1 $68 $69 $40 $-1 $70 forward single #
face $-1 $71 $72 $41 $-1 $73 reversed single #
face $-1 $74 $75 $42 $-1 $76 forward single #
face $-1 $77 $78 $43 $-1 $79 reversed single #
face $-1 $80 $81 $44 $-1 $82 forward single #
face $-1 $83 $84 $45 $-1 $85 reversed single #
face $-1 $86 $87 $46 $-1 $88 forward single #
face $-1 $89 $90 $47 $-1 $91 reversed single #
face $-1 $92 $93 $48 $-1 $94 forward single #
face $-1 $95 $96 $49 $-1 $97 reversed single #
face $-1 $98 $99 $50 $-1 $100 forward single #
face $-1 $101 $102 $51 $-1 $103 forward single #
face $-1 $104 $105 $39 $-1 $106 reversed single #
loop $-1 $-1 $107 $52 #
plane-surface $-1 0 0 13.431606289464249 0 0 1 1 0 0 forward_v I I I I #
face $-1 $108 $109 $40 $-1 $110 reversed single #
loop $-1 $-1 $111 $53 #
plane-surface $-1 0 -41.110269627050229 -6.5407428172238253 0 0 1 1 0 0 forward_v I I I I #
face $-1 $112 $113 $41 $-1 $114 reversed single #
loop $-1 $-1 $115 $54 #
plane-surface $-1 -183.73319271343664 -35.104230155837413 129.29215933259087 0 1 0 -0.6560590369687036 0 0.75470957328743171 forward_v I I I I #
face $-1 $116 $117 $42 $-1 $118 forward single #
loop $-1 $119 $120 $55 #
cone-surface $-1 -75.754925622078517 -28.705427415423557 9.8238760277832036 0.6560590369687036 0 -0.75470957328743171 1.1320643599311475 0 0.9840885554530554 1 I I 0 1 1.5 forward I I I I #
face $-1 $121 $122 $43 $-1 $123 reversed single #
loop $-1 $-1 $124 $56 #
plane-surface $-1 -183.73319271343664 -11.963252231413168 129.29215933259087 0 1 0 -0.6560590369687036 0 0.75470957328743171 forward_v I I I I #
face $-1 $125 $126 $44 $-1 $127 forward single #
loop $-1 $128 $129 $57 #
cone-surface $-1 -75.754925622078517 -5.5644494909993085 9.8238760277832036 0.6560590369687036 0 -0.75470957328743171 1.1320643599311475 0 0.9840885554530554 1 I I 0 1 1.5 forward I I I I #
face $-1 $130 $131 $45 $-1 $132 reversed single #
loop $-1 $-1 $133 $58 #
plane-surface $-1 -183.73319271343664 11.177725693011087 129.29215933259087 0 1 0 -0.6560590369687036 0 0.75470957328743171 forward_v I I I I #
face $-1 $134 $135 $46 $-1 $136 forward single #
loop $-1 $137 $138 $59 #
cone-surface $-1 -75.754925622078517 17.576528433424947 9.8238760277832036 0.6560590369687036 0 -0.75470957328743171 1.1320643599311475 0 0.9840885554530554 1 I I 0 1 1.5 forward I I I I #
face $-1 $139 $140 $47 $-1 $141 reversed single #
loop $-1 $-1 $142 $60 #
plane-surface $-1 -183.73319271343664 34.318703617435339 129.29215933259087 0 1 0 -0.6560590369687036 0 0.75470957328743171 forward_v I I I I #
face $-1 $143 $144 $48 $-1 $145 forward single #
loop $-1 $146 $147 $61 #
cone-surface $-1 -75.754925622078517 40.717506357849196 9.8238760277832036 0.6560590369687036 0 -0.75470957328743171 1.1320643599311475 0 0.9840885554530554 1 I I 0 1 1.5 forward I I I I #
face $-1 $148 $149 $49 $-1 $150 reversed single #
loop $-1 $-1 $151 $62 #
plane-surface $-1 87.309394033979643 20.158775705701082 226.42556311645546 0 -1 0 -0.73135370988377701 0 -0.68199835119979291 forward_v I I I I #
face $-1 $152 $153 $50 $-1 $154 forward single #
loop $-1 $155 $156 $63 #
cone-surface $-1 72.991662238662002 7.4281044234452054 6.6363960491082086 -0.73135370988377701 0 -0.68199835119979291 1.7049958779994823 0 -1.8283842747094425 1 I I 0 1 2.5 forward I I I I #
face $-1 $157 $158 $51 $-1 $159 forward single #
loop $-1 $160 $161 $64 #
cone-surface $-1 72.991662238662002 15.066507192798738 6.6363960491082086 -0.73135370988377701 0 -0.68199835119979291 1.7049958779994823 0 -1.8283842747094425 1 I I 0 1 2.5 forward I I I I #
face $-1 $162 $163 $39 $-1 $164 reversed single #
loop $-1 $-1 $165 $65 #
plane-surface $-1 0 0 -13.431606289464249 0 0 1 1 0 0 forward_v I I I I #
coedge $-1 $166 $167 $168 $169 forward $66 $-1 #
face $-1 $170 $171 $40 $-1 $172 reversed single #
loop $-1 $-1 $173 $68 #
plane-surface $-1 0 -41.110269627050229 -11.827549633769014 0 0 1 1 0 0 forward_v I I I I #
coedge $-1 $174 $175 $176 $177 reversed $69 $-1 #
face $-1 $178 $179 $41 $-1 $180 reversed single #
loop $-1 $-1 $181 $71 #
plane-surface $-1 -79.46531571398053 -28.705427415423557 9.3456903052922939 -0.6560590369687036 0 0.75470957328743171 0.75470957328743171 0 0.6560590369687036 forward_v I I I I #
coedge $-1 $182 $183 $184 $185 reversed $72 $-1 #
face $-1 $-1 $186 $42 $-1 $187 forward single #
loop $-1 $188 $189 $74 #
cone-surface $-1 -73.902645533649093 -28.705427415423557 7.6930715782225647 0.6560590369687036 0 -0.75470957328743171 0.56603217996557376 0 0.4920442777265277 1 I I -0.70710678118654757 0.70710678118654757 0.75 forward I I I I #
loop $-1 $-1 $190 $55 #
coedge $-1 $120 $120 $191 $192 reversed $75 $-1 #
face $-1 $193 $194 $43 $-1 $195 reversed single #
loop $-1 $-1 $196 $77 #
plane-surface $-1 -79.46531571398053 -5.5644494909993085 9.3456903052922939 -0.6560590369687036 0 0.75470957328743171 0.75470957328743171 0 0.6560590369687036 forward_v I I I I #
coedge $-1 $197 $198 $199 $200 reversed $78 $-1 #
face $-1 $-1 $201 $44 $-1 $202 forward single #
loop $-1 $203 $204 $80 #
cone-surface $-1 -73.902645533649093 -5.5644494909993085 7.6930715782225647 0.6560590369687036 0 -0.75470957328743171 0.56603217996557376 0 0.4920442777265277 1 I I -0.70710678118654757 0.70710678118654757 0.75 forward I I I I #
loop $-1 $-1 $205 $57 #
coedge $-1 $129 $129 $206 $207 reversed $81 $-1 #
face $-1 $208 $209 $45 $-1 $210 reversed single #
loop $-1 $-1 $211 $83 #
plane-surface $-1 -79.46531571398053 17.576528433424947 9.3456903052922939 -0.6560590369687036 0 0.75470957328743171 0.75470957328743171 0 0.6560590369687036 forward_v I I I I #
coedge $-1 $212 $213 $214 $215 reversed $84 $-1 #
face $-1 $-1 $216 $46 $-1 $217 forward single #
loop $-1 $218 $219 $86 #
cone-surface $-1 -73.902645533649093 17.576528433424947 7.6930715782225647 0.6560590369687036 0 -0.75470957328743171 0.56603217996557376 0 0.4920442777265277 1 I I -0.70710678118654757 0.70710678118654757 0.75 forward I I I I #
loop $-1 $-1 $220 $59 #
coedge $-1 $138 $138 $221 $222 reversed $87 $-1 #
face $-1 $223 $224 $47 $-1 $225 forward single #
loop $-1 $-1 $226 $89 #
plane-surface $-1 -79.46531571398053 40.717506357849196 9.3456903052922939 -0.6560590369687036 0 0.75470957328743171 0.75470957328743171 0 0.6560590369687036 forward_v I I I I #
coedge $-1 $227 $228 $229 $230 reversed $90 $-1 #
face $-1 $-1 $231 $48 $-1 $232 forward single #
loop $-1 $233 $234 $92 #
cone-surface $-1 -73.902645533649093 40.717506357849196 7.6930715782225647 0.6560590369687036 0 -0.75470957328743171 0.56603217996557376 0 0.4920442777265277 1 I I -0.70710678118654757 0.70710678118654757 0.75 forward I I I I #
loop $-1 $-1 $235 $61 #
coedge $-1 $147 $147 $236 $237 reversed $93 $-1 #
face $-1 $238 $239 $49 $-1 $240 reversed single #
loop $-1 $-1 $241 $95 #
plane-surface $-1 -28.925112875030877 11.247305808121965 118.03513452744403 0.73135370988377701 0 0.68199835119979291 0.68199835119979291 0 -0.73135370988377701 forward_v I I I I #
coedge $-1 $242 $243 $244 $245 reversed $96 $-1 #
face $-1 $-1 $246 $50 $-1 $247 forward single #
loop $-1 $248 $249 $98 #
cone-surface $-1 71.026848032873588 7.4281044234452054 4.8041772052678269 -0.73135370988377701 0 -0.68199835119979291 0.85249793899974113 0 -0.91419213735472127 1 I I -0.70710678118654746 0.70710678118654746 1.25 forward I I I I #
loop $-1 $-1 $250 $63 #
coedge $-1 $156 $156 $251 $252 reversed $99 $-1 #
face $-1 $-1 $253 $51 $-1 $254 forward single #
loop $-1 $255 $256 $101 #
cone-surface $-1 71.026848032873588 15.066507192798738 4.8041772052678269 -0.73135370988377701 0 -0.68199835119979291 0.85249793899974113 0 -0.91419213735472127 1 I I -0.70710678118654746 0.70710678118654746 1.25 forward I I I I #
loop $-1 $-1 $257 $64 #
coedge $-1 $161 $161 $258 $259 reversed $102 $-1 #
face $-1 $260 $261 $39 $-1 $262 reversed single #
loop $-1 $-1 $263 $104 #
plane-surface $-1 0 -47.116309098263038 0 0 1 0 0 0 1 forward_v I I I I #
coedge $-1 $264 $265 $266 $267 forward $105 $-1 #
coedge $-1 $268 $107 $269 $270 forward $66 $-1 #
coedge $-1 $107 $268 $271 $272 forward $66 $-1 #
coedge $-1 $273 $274 $107 $169 reversed $275 $-1 #
edge $-1 $276 -47.116309098263038 $277 47.116309098263038 $168 $278 forward 7 unknown #
face $-1 $279 $280 $40 $-1 $281 reversed single #
loop $-1 $-1 $282 $108 #
plane-surface $-1 0 -35.104230155837421 -9.1841462254964199 0 -1 0 0 0 -1 forward_v I I I I #
coedge $-1 $283 $284 $285 $286 reversed $109 $-1 #
coedge $-1 $287 $111 $288 $289 forward $69 $-1 #
coedge $-1 $111 $287 $290 $291 reversed $69 $-1 #
coedge $-1 $292 $293 $111 $177 forward $294 $-1 #
edge $-1 $295 14.549095342312306 $296 26.561174284737923 $176 $297 forward 7 unknown #
face $-1 $298 $299 $41 $-1 $300 reversed single #
loop $-1 $-1 $301 $112 #
plane-surface $-1 -183.73319271343664 -22.306624675009697 129.29215933259087 0 -1 0 0.6560590369687036 0 -0.75470957328743171 forward_v I I I I #
coedge $-1 $302 $303 $304 $305 reversed $113 $-1 #
coedge $-1 $183 $115 $306 $307 reversed $72 $-1 #
coedge $-1 $115 $182 $302 $308 reversed $72 $-1 #
coedge $-1 $304 $309 $115 $185 forward $310 $-1 #
edge $-1 $311 12.401280642737788 $312 17.10158920513598 $184 $313 forward 7 unknown #
loop $-1 $-1 $191 $116 #
plane-surface $-1 -79.46531571398053 -28.705427415423557 9.3456903052922939 -0.6560590369687036 0 0.75470957328743171 0.75470957328743171 0 0.6560590369687036 forward_v I I I I #
loop $-1 $-1 $314 $74 #
coedge $-1 $189 $189 $190 $315 reversed $117 $-1 #
coedge $-1 $190 $190 $189 $315 forward $119 $-1 #
coedge $-1 $191 $191 $120 $192 forward $186 $-1 #
edge $-1 $316 0 $316 6.2831853071796004 $191 $317 forward 7 unknown #
face $-1 $318 $319 $43 $-1 $320 forward single #
loop $-1 $-1 $321 $121 #
plane-surface $-1 -183.73319271343664 0.83435324941455047 129.29215933259087 0 -1 0 0.6560590369687036 0 -0.75470957328743171 forward_v I I I I #
coedge $-1 $322 $323 $324 $325 reversed $122 $-1 #
coedge $-1 $198 $124 $326 $327 reversed $78 $-1 #
coedge $-1 $124 $197 $322 $328 reversed $78 $-1 #
coedge $-1 $324 $329 $124 $200 forward $319 $-1 #
edge $-1 $330 12.401280642737788 $331 17.10158920513598 $199 $332 forward 7 unknown #
loop $-1 $-1 $206 $125 #
plane-surface $-1 -79.46531571398053 -5.5644494909993085 9.3456903052922939 -0.6560590369687036 0 0.75470957328743171 0.75470957328743171 0 0.6560590369687036 forward_v I I I I #
loop $-1 $-1 $333 $80 #
coedge $-1 $204 $204 $205 $334 reversed $126 $-1 #
coedge $-1 $205 $205 $204 $334 forward $128 $-1 #
coedge $-1 $206 $206 $129 $207 forward $201 $-1 #
edge $-1 $335 0 $335 6.2831853071796004 $206 $336 forward 7 unknown #
face $-1 $337 $338 $45 $-1 $339 forward single #
loop $-1 $-1 $340 $130 #
plane-surface $-1 -183.73319271343664 23.975331173838807 129.29215933259087 0 -1 0 0.6560590369687036 0 -0.75470957328743171 forward_v I I I I #
coedge $-1 $341 $342 $343 $344 reversed $131 $-1 #
coedge $-1 $213 $133 $345 $346 reversed $84 $-1 #
coedge $-1 $133 $212 $341 $347 reversed $84 $-1 #
coedge $-1 $343 $348 $133 $215 forward $338 $-1 #
edge $-1 $349 12.401280642737788 $350 17.10158920513598 $214 $351 forward 7 unknown #
loop $-1 $-1 $221 $134 #
plane-surface $-1 -79.46531571398053 17.576528433424947 9.3456903052922939 -0.6560590369687036 0 0.75470957328743171 0.75470957328743171 0 0.6560590369687036 forward_v I I I I #
loop $-1 $-1 $352 $86 #
coedge $-1 $219 $219 $220 $353 reversed $135 $-1 #
coedge $-1 $220 $220 $219 $353 forward $137 $-1 #
coedge $-1 $221 $221 $138 $222 forward $216 $-1 #
edge $-1 $354 0 $354 6.2831853071796004 $221 $355 forward 7 unknown #
face $-1 $356 $357 $47 $-1 $358 reversed single #
loop $-1 $-1 $229 $139 #
plane-surface $-1 0 0 13.431606289464249 0 0 1 1 0 0 forward_v I I I I #
coedge $-1 $359 $360 $361 $362 reversed $140 $-1 #
coedge $-1 $228 $142 $363 $364 reversed $90 $-1 #
coedge $-1 $142 $227 $359 $365 reversed $90 $-1 #
coedge $-1 $361 $366 $142 $230 forward $224 $-1 #
edge $-1 $367 12.401280642737788 $368 17.10158920513598 $229 $369 forward 7 unknown #
loop $-1 $-1 $236 $143 #
plane-surface $-1 -79.46531571398053 40.717506357849196 9.3456903052922939 -0.6560590369687036 0 0.75470957328743171 0.75470957328743171 0 0.6560590369687036 forward_v I I I I #
loop $-1 $-1 $370 $92 #
coedge $-1 $234 $234 $235 $371 reversed $144 $-1 #
coedge $-1 $235 $235 $234 $371 forward $146 $-1 #
coedge $-1 $236 $236 $147 $237 forward $231 $-1 #
edge $-1 $372 0 $372 6.2831853071796004 $236 $373 forward 7 unknown #
face $-1 $374 $375 $49 $-1 $376 reversed single #
loop $-1 $-1 $377 $148 #
plane-surface $-1 87.309394033979643 2.3358359105428477 226.42556311645546 0 1 0 0.73135370988377701 0 0.68199835119979291 forward_v I I I I #
coedge $-1 $378 $379 $380 $381 reversed $149 $-1 #
coedge $-1 $243 $151 $382 $383 reversed $96 $-1 #
coedge $-1 $151 $242 $378 $384 reversed $96 $-1 #
coedge $-1 $380 $385 $151 $245 forward $386 $-1 #
edge $-1 $387 -35.810618696990709 $388 -24.96455588322106 $244 $389 forward 7 unknown #
loop $-1 $-1 $251 $152 #
plane-surface $-1 -28.925112875030877 11.247305808121965 118.03513452744403 0.73135370988377701 0 0.68199835119979291 0.68199835119979291 0 -0.73135370988377701 forward_v I I I I #
loop $-1 $-1 $390 $98 #
coedge $-1 $249 $249 $250 $391 reversed $153 $-1 #
coedge $-1 $250 $250 $249 $391 forward $155 $-1 #
coedge $-1 $251 $251 $156 $252 forward $246 $-1 #
edge $-1 $392 0 $392 6.2831853071796004 $251 $393 forward 7 unknown #
loop $-1 $-1 $258 $157 #
plane-surface $-1 -28.925112875030877 11.247305808121965 118.03513452744403 0.73135370988377701 0 0.68199835119979291 0.68199835119979291 0 -0.73135370988377701 forward_v I I I I #
loop $-1 $-1 $394 $101 #
coedge $-1 $256 $256 $257 $395 reversed $158 $-1 #
coedge $-1 $257 $257 $256 $395 forward $160 $-1 #
coedge $-1 $258 $258 $161 $259 forward $253 $-1 #
edge $-1 $396 0 $396 6.2831853071796004 $258 $397 forward 7 unknown #
face $-1 $398 $399 $39 $-1 $400 reversed single #
loop $-1 $-1 $401 $162 #
plane-surface $-1 -79.46531571398053 0 0 1 0 0 0 0 -1 forward_v I I I I #
coedge $-1 $402 $271 $403 $404 forward $163 $-1 #
coedge $-1 $405 $165 $402 $406 forward $105 $-1 #
coedge $-1 $165 $405 $407 $408 forward $105 $-1 #
coedge $-1 $274 $273 $165 $267 reversed $275 $-1 #
edge $-1 $409 -47.116309098263038 $410 47.116309098263038 $266 $411 forward 7 unknown #
coedge $-1 $167 $166 $412 $413 forward $66 $-1 #
coedge $-1 $414 $415 $166 $270 reversed $399 $-1 #
edge $-1 $277 -79.46531571398053 $416 79.46531571398053 $269 $417 forward 7 unknown #
coedge $-1 $263 $418 $167 $272 reversed $163 $-1 #
edge $-1 $419 -79.46531571398053 $276 79.46531571398053 $271 $420 forward 7 unknown #
coedge $-1 $266 $168 $418 $421 forward $275 $-1 #
coedge $-1 $168 $266 $414 $422 reversed $275 $-1 #
loop $-1 $-1 $273 $398 #
vertex $-1 $169 $423 #
vertex $-1 $169 $424 #
straight-curve $-1 79.46531571398053 0 13.431606289464249 0 1 0 I I #
face $-1 $425 $426 $40 $-1 $427 reversed single #
loop $-1 $-1 $428 $170 #
plane-surface $-1 -79.46531571398053 0 0 1 0 0 0 0 -1 forward_v I I I I #
coedge $-1 $429 $288 $293 $430 reversed $171 $-1 #
coedge $-1 $431 $173 $432 $433 reversed $109 $-1 #
coedge $-1 $173 $431 $429 $434 forward $109 $-1 #
coedge $-1 $293 $292 $173 $286 forward $294 $-1 #
edge $-1 $435 -26.561174284737923 $436 -14.549095342312306 $285 $437 forward 7 unknown #
coedge $-1 $175 $174 $428 $438 reversed $69 $-1 #
coedge $-1 $282 $439 $174 $289 reversed $171 $-1 #
edge $-1 $295 -79.46531571398053 $440 79.46531571398053 $288 $441 forward 7 unknown #
coedge $-1 $442 $443 $175 $291 forward $426 $-1 #
edge $-1 $296 -79.46531571398053 $444 79.46531571398053 $290 $445 forward 7 unknown #
coedge $-1 $285 $176 $443 $446 forward $294 $-1 #
coedge $-1 $176 $285 $282 $430 forward $294 $-1 #
loop $-1 $-1 $176 $425 #
vertex $-1 $177 $447 #
vertex $-1 $446 $448 #
straight-curve $-1 79.46531571398053 -20.555134813525115 -6.5407428172238253 0 -1 0 I I #
face $-1 $-1 $310 $41 $-1 $449 forward single #
loop $-1 $-1 $450 $178 #
plane-surface $-1 -79.46531571398053 0 0 1 0 0 0 0 -1 forward_v I I I I #
coedge $-1 $451 $452 $453 $454 reversed $179 $-1 #
coedge $-1 $455 $181 $183 $308 forward $113 $-1 #
coedge $-1 $181 $455 $451 $456 forward $113 $-1 #
coedge $-1 $453 $184 $181 $305 forward $310 $-1 #
edge $-1 $312 -20.751516448125635 $457 -7.9539109672979187 $304 $458 forward 7 unknown #
coedge $-1 $459 $460 $182 $307 forward $299 $-1 #
edge $-1 $461 -55.300389361003141 $311 -51.214473376831187 $306 $462 forward 7 unknown #
edge $-1 $312 -6.227969975157686 $461 0 $183 $463 forward 7 unknown #
coedge $-1 $184 $453 $459 $464 forward $310 $-1 #
loop $-1 $-1 $453 $298 #
vertex $-1 $307 $465 #
vertex $-1 $185 $466 #
straight-curve $-1 -91.866596356718318 -35.104230155837413 13.431606289464249 1 0 0 I I #
coedge $-1 $314 $314 $-1 $467 reversed $188 $-1 #
edge $-1 $468 0 $468 6.2831853071796004 $189 $469 forward 7 unknown #
vertex $-1 $192 $470 #
ellipse-curve $-1 -77.11516143278142 -28.705427415423557 11.388648297378277 -0.6560590369687036 0 0.75470957328743171 1.1320643599311475 0 0.9840885554530554 1 I I #
face $-1 $-1 $471 $43 $-1 $472 reversed single #
loop $-1 $-1 $199 $193 #
plane-surface $-1 0 0 13.431606289464249 0 0 1 1 0 0 forward_v I I I I #
coedge $-1 $473 $474 $475 $476 reversed $194 $-1 #
coedge $-1 $477 $196 $198 $328 forward $122 $-1 #
coedge $-1 $196 $477 $473 $478 forward $122 $-1 #
coedge $-1 $475 $199 $196 $325 forward $319 $-1 #
edge $-1 $331 -9.1810274859135141 $479 3.6165779949142047 $324 $480 forward 7 unknown #
coedge $-1 $481 $482 $197 $327 forward $471 $-1 #
edge $-1 $483 -55.300389361003141 $330 -51.214473376831187 $326 $484 forward 7 unknown #
edge $-1 $331 -6.227969975157686 $483 0 $198 $485 forward 7 unknown #
coedge $-1 $199 $475 $481 $486 forward $319 $-1 #
vertex $-1 $200 $487 #
vertex $-1 $200 $488 #
straight-curve $-1 -91.866596356718318 -11.963252231413168 13.431606289464249 1 0 0 I I #
coedge $-1 $333 $333 $-1 $489 reversed $203 $-1 #
edge $-1 $490 0 $490 6.2831853071796004 $204 $491 forward 7 unknown #
vertex $-1 $207 $492 #
ellipse-curve $-1 -77.11516143278142 -5.5644494909993085 11.388648297378277 -0.6560590369687036 0 0.75470957328743171 1.1320643599311475 0 0.9840885554530554 1 I I #
face $-1 $-1 $493 $45 $-1 $494 reversed single #
loop $-1 $-1 $214 $208 #
plane-surface $-1 0 0 13.431606289464249 0 0 1 1 0 0 forward_v I I I I #
coedge $-1 $495 $496 $497 $498 reversed $209 $-1 #
coedge $-1 $499 $211 $213 $347 forward $131 $-1 #
coedge $-1 $211 $499 $495 $500 forward $131 $-1 #
coedge $-1 $497 $214 $211 $344 forward $338 $-1 #
edge $-1 $350 2.3894614762986137 $501 15.187066957126333 $343 $502 forward 7 unknown #
coedge $-1 $503 $504 $212 $346 forward $493 $-1 #
edge $-1 $505 -55.300389361003141 $349 -51.214473376831187 $345 $506 forward 7 unknown #
edge $-1 $350 -6.227969975157686 $505 0 $213 $507 forward 7 unknown #
coedge $-1 $214 $497 $503 $508 forward $338 $-1 #
vertex $-1 $215 $509 #
vertex $-1 $215 $510 #
straight-curve $-1 -91.866596356718318 11.177725693011087 13.431606289464249 1 0 0 I I #
coedge $-1 $352 $352 $-1 $511 reversed $218 $-1 #
edge $-1 $512 0 $512 6.2831853071796004 $219 $513 forward 7 unknown #
vertex $-1 $222 $514 #
ellipse-curve $-1 -77.11516143278142 17.576528433424947 11.388648297378277 -0.6560590369687036 0 0.75470957328743171 1.1320643599311475 0 0.9840885554530554 1 I I #
face $-1 $-1 $515 $47 $-1 $516 reversed single #
loop $-1 $-1 $517 $223 #
plane-surface $-1 0 47.116309098263038 0 0 -1 0 0 0 -1 forward_v I I I I #
coedge $-1 $518 $226 $228 $365 forward $140 $-1 #
coedge $-1 $226 $518 $517 $519 reversed $140 $-1 #
coedge $-1 $520 $229 $226 $362 forward $224 $-1 #
edge $-1 $368 13.959950438510742 $521 26.757555919338454 $361 $522 forward 7 unknown #
coedge $-1 $523 $524 $227 $364 forward $515 $-1 #
edge $-1 $525 -55.300389361003141 $367 -51.214473376831187 $363 $526 forward 7 unknown #
edge $-1 $368 -6.227969975157686 $525 0 $228 $527 forward 7 unknown #
coedge $-1 $229 $520 $523 $528 forward $224 $-1 #
vertex $-1 $364 $529 #
vertex $-1 $230 $530 #
straight-curve $-1 -91.866596356718318 34.318703617435339 13.431606289464249 1 0 0 I I #
coedge $-1 $370 $370 $-1 $531 reversed $233 $-1 #
edge $-1 $532 0 $532 6.2831853071796004 $234 $533 forward 7 unknown #
vertex $-1 $237 $534 #
ellipse-curve $-1 -77.11516143278142 40.717506357849196 11.388648297378277 -0.6560590369687036 0 0.75470957328743171 1.1320643599311475 0 0.9840885554530554 1 I I #
face $-1 $-1 $386 $49 $-1 $535 forward single #
loop $-1 $-1 $536 $238 #
plane-surface $-1 79.46531571398053 0 0 -1 0 0 0 0 1 forward_v I I I I #
coedge $-1 $537 $538 $539 $540 reversed $239 $-1 #
coedge $-1 $541 $241 $243 $384 forward $149 $-1 #
coedge $-1 $241 $541 $537 $542 forward $149 $-1 #
coedge $-1 $539 $244 $241 $381 forward $386 $-1 #
edge $-1 $388 -14.5351228016401 $543 3.2878169935181347 $380 $544 forward 7 unknown #
coedge $-1 $545 $546 $242 $383 forward $375 $-1 #
edge $-1 $547 -111.41215393979421 $387 -99.781175268763491 $382 $548 forward 7 unknown #
edge $-1 $388 143.02727507132334 $547 158.93063142796103 $243 $549 forward 7 unknown #
coedge $-1 $244 $539 $545 $550 forward $386 $-1 #
loop $-1 $-1 $539 $374 #
vertex $-1 $383 $551 #
vertex $-1 $245 $552 #
straight-curve $-1 43.654697016989822 20.158775705701082 13.431606289464241 -1 0 0 I I #
coedge $-1 $390 $390 $-1 $553 reversed $248 $-1 #
edge $-1 $554 0 $554 6.2831853071796004 $249 $555 forward 7 unknown #
vertex $-1 $252 $556 #
ellipse-curve $-1 74.042284307095713 7.4281044234452054 7.6161169539488647 0.73135370988377701 0 0.68199835119979291 1.7049958779994823 0 -1.8283842747094425 1 I I #
coedge $-1 $394 $394 $-1 $557 reversed $255 $-1 #
edge $-1 $558 0 $558 6.2831853071796004 $256 $559 forward 7 unknown #
vertex $-1 $259 $560 #
ellipse-curve $-1 74.042284307095713 15.066507192798738 7.6161169539488647 0.73135370988377701 0 0.68199835119979291 1.7049958779994823 0 -1.8283842747094425 1 I I #
face $-1 $-1 $275 $39 $-1 $561 reversed single #
loop $-1 $-1 $414 $260 #
plane-surface $-1 0 47.116309098263038 0 0 -1 0 0 0 -1 forward_v I I I I #
coedge $-1 $562 $412 $415 $563 forward $261 $-1 #
coedge $-1 $418 $263 $264 $406 reversed $163 $-1 #
coedge $-1 $412 $562 $263 $404 reversed $261 $-1 #
edge $-1 $419 -13.431606289464249 $564 13.431606289464249 $403 $565 forward 7 unknown #
coedge $-1 $265 $264 $562 $566 forward $105 $-1 #
edge $-1 $410 -79.46531571398053 $564 79.46531571398053 $402 $567 forward 7 unknown #
coedge $-1 $415 $414 $265 $408 reversed $399 $-1 #
edge $-1 $568 -79.46531571398053 $409 79.46531571398053 $407 $569 forward 7 unknown #
vertex $-1 $267 $570 #
vertex $-1 $421 $571 #
straight-curve $-1 79.46531571398053 0 -13.431606289464249 0 -1 0 I I #
coedge $-1 $401 $403 $268 $413 reversed $261 $-1 #
edge $-1 $416 -47.116309098263038 $419 47.116309098263038 $412 $572 forward 7 unknown #
coedge $-1 $407 $269 $274 $422 forward $399 $-1 #
coedge $-1 $269 $407 $401 $563 reversed $399 $-1 #
vertex $-1 $270 $573 #
straight-curve $-1 0 47.116309098263038 13.431606289464249 -1 0 0 I I #
coedge $-1 $271 $402 $273 $421 reversed $163 $-1 #
vertex $-1 $413 $574 #
straight-curve $-1 0 -47.116309098263038 13.431606289464249 1 0 0 I I #
edge $-1 $276 -13.431606289464249 $410 13.431606289464249 $273 $575 forward 7 unknown #
edge $-1 $277 -13.431606289464249 $409 13.431606289464249 $274 $576 forward 7 unknown #
point $-1 79.46531571398053 -47.116309098263038 13.431606289464249 #
point $-1 79.46531571398053 47.116309098263038 13.431606289464249 #
face $-1 $-1 $294 $40 $-1 $577 reversed single #
loop $-1 $-1 $290 $279 #
plane-surface $-1 0 -47.116309098263038 0 0 1 0 0 0 1 forward_v I I I I #
coedge $-1 $578 $579 $287 $438 forward $280 $-1 #
coedge $-1 $439 $282 $284 $434 reversed $171 $-1 #
edge $-1 $436 -7.2354765210208036 $295 -1.9486697044756154 $293 $580 forward 7 unknown #
coedge $-1 $284 $283 $581 $582 reversed $109 $-1 #
coedge $-1 $443 $442 $283 $433 forward $426 $-1 #
edge $-1 $583 -79.46531571398053 $435 79.46531571398053 $432 $584 forward 7 unknown #
edge $-1 $585 -79.46531571398053 $436 79.46531571398053 $429 $586 forward 7 unknown #
vertex $-1 $433 $587 #
vertex $-1 $286 $588 #
straight-curve $-1 79.46531571398053 -20.555134813525115 -11.827549633769014 0 1 0 I I #
edge $-1 $444 -26.561174284737923 $440 -14.549095342312306 $428 $589 forward 7 unknown #
coedge $-1 $288 $429 $578 $590 reversed $171 $-1 #
vertex $-1 $438 $591 #
straight-curve $-1 0 -35.104230155837421 -6.5407428172238253 -1 0 0 I I #
coedge $-1 $432 $290 $579 $592 forward $426 $-1 #
coedge $-1 $290 $432 $292 $446 reversed $426 $-1 #
vertex $-1 $592 $593 #
straight-curve $-1 0 -47.116309098263038 -6.5407428172238253 -1 0 0 I I #
edge $-1 $296 6.5407428172238253 $435 11.827549633769014 $292 $594 forward 7 unknown #
point $-1 79.46531571398053 -35.104230155837421 -6.5407428172238253 #
point $-1 79.46531571398053 -47.116309098263038 -6.5407428172238253 #
plane-surface $-1 0 0 13.431606289464249 0 0 1 1 0 0 forward_v I I I I #
coedge $-1 $460 $459 $452 $595 forward $299 $-1 #
coedge $-1 $452 $301 $303 $456 reversed $179 $-1 #
coedge $-1 $301 $451 $450 $595 reversed $179 $-1 #
coedge $-1 $309 $304 $301 $454 forward $310 $-1 #
edge $-1 $457 -17.10158920513598 $596 -12.401280642737788 $453 $597 forward 7 unknown #
coedge $-1 $303 $302 $460 $598 reversed $113 $-1 #
edge $-1 $599 0 $457 6.227969975157686 $451 $600 forward 7 unknown #
vertex $-1 $305 $601 #
straight-curve $-1 -74.765007151582338 -14.352713707711779 13.431606289464252 0 1 0 I I #
coedge $-1 $450 $306 $309 $464 reversed $299 $-1 #
coedge $-1 $306 $450 $455 $598 forward $299 $-1 #
vertex $-1 $307 $602 #
straight-curve $-1 -79.46531571398053 -35.104230155837413 64.646079666295435 0 0 1 I I #
straight-curve $-1 -79.46531571398053 -35.104230155837413 9.3456903052922939 -0.75470957328743171 0 -0.6560590369687036 I I #
edge $-1 $596 22.306624675009697 $311 35.104230155837413 $459 $603 forward 7 unknown #
point $-1 -79.46531571398053 -35.104230155837413 13.431606289464249 #
point $-1 -74.765007151582338 -35.104230155837413 13.431606289464249 #
edge $-1 $604 1 $604 0 $314 $-1 forward 7 unknown #
vertex $-1 $315 $605 #
ellipse-curve $-1 -74.394689811375613 -28.705427415423557 8.2591037581881377 -0.6560590369687036 0 0.75470957328743171 1.1320643599311475 0 0.9840885554530554 1 I I #
point $-1 -75.983097072850285 -28.705427415423557 12.372736852831327 #
loop $-1 $-1 $326 $318 #
plane-surface $-1 -79.46531571398053 0 0 1 0 0 0 0 -1 forward_v I I I I #
coedge $-1 $474 $321 $323 $478 reversed $194 $-1 #
coedge $-1 $321 $473 $606 $607 reversed $194 $-1 #
coedge $-1 $329 $324 $321 $476 forward $319 $-1 #
edge $-1 $479 -17.10158920513598 $608 -12.401280642737788 $475 $609 forward 7 unknown #
coedge $-1 $323 $322 $482 $610 reversed $122 $-1 #
edge $-1 $611 0 $479 6.227969975157686 $473 $612 forward 7 unknown #
vertex $-1 $325 $613 #
straight-curve $-1 -74.765007151582338 -2.7822247454996543 13.431606289464252 0 1 0 I I #
coedge $-1 $606 $326 $329 $486 reversed $471 $-1 #
coedge $-1 $326 $606 $477 $610 forward $471 $-1 #
vertex $-1 $327 $614 #
straight-curve $-1 -79.46531571398053 -11.963252231413168 64.646079666295435 0 0 1 I I #
straight-curve $-1 -79.46531571398053 -11.963252231413168 9.3456903052922939 -0.75470957328743171 0 -0.6560590369687036 I I #
edge $-1 $608 -0.83435324941455047 $330 11.963252231413168 $481 $615 forward 7 unknown #
point $-1 -79.46531571398053 -11.963252231413168 13.431606289464249 #
point $-1 -74.765007151582338 -11.963252231413168 13.431606289464249 #
edge $-1 $616 1 $616 0 $333 $-1 forward 7 unknown #
vertex $-1 $334 $617 #
ellipse-curve $-1 -74.394689811375613 -5.5644494909993085 8.2591037581881377 -0.6560590369687036 0 0.75470957328743171 1.1320643599311475 0 0.9840885554530554 1 I I #
point $-1 -75.983097072850285 -5.5644494909993085 12.372736852831327 #
loop $-1 $-1 $345 $337 #
plane-surface $-1 -79.46531571398053 0 0 1 0 0 0 0 -1 forward_v I I I I #
coedge $-1 $496 $340 $342 $500 reversed $209 $-1 #
coedge $-1 $340 $495 $618 $619 reversed $209 $-1 #
coedge $-1 $348 $343 $340 $498 forward $338 $-1 #
edge $-1 $501 -17.10158920513598 $620 -12.401280642737788 $497 $621 forward 7 unknown #
coedge $-1 $342 $341 $504 $622 reversed $131 $-1 #
edge $-1 $623 0 $501 6.227969975157686 $495 $624 forward 7 unknown #
vertex $-1 $344 $625 #
straight-curve $-1 -74.765007151582338 8.7882642167124736 13.431606289464252 0 1 0 I I #
coedge $-1 $618 $345 $348 $508 reversed $493 $-1 #
coedge $-1 $345 $618 $499 $622 forward $493 $-1 #
vertex $-1 $346 $626 #
straight-curve $-1 -79.46531571398053 11.177725693011087 64.646079666295435 0 0 1 I I #
straight-curve $-1 -79.46531571398053 11.177725693011087 9.3456903052922939 -0.75470957328743171 0 -0.6560590369687036 I I #
edge $-1 $620 -23.975331173838807 $349 -11.177725693011087 $503 $627 forward 7 unknown #
point $-1 -79.46531571398053 11.177725693011087 13.431606289464249 #
point $-1 -74.765007151582338 11.177725693011087 13.431606289464249 #
edge $-1 $628 1 $628 0 $352 $-1 forward 7 unknown #
vertex $-1 $353 $629 #
ellipse-curve $-1 -74.394689811375613 17.576528433424947 8.2591037581881377 -0.6560590369687036 0 0.75470957328743171 1.1320643599311475 0 0.9840885554530554 1 I I #
point $-1 -75.983097072850285 17.576528433424947 12.372736852831327 #
loop $-1 $-1 $363 $356 #
plane-surface $-1 -79.46531571398053 0 0 1 0 0 0 0 -1 forward_v I I I I #
coedge $-1 $630 $631 $360 $519 forward $357 $-1 #
coedge $-1 $360 $359 $524 $632 reversed $140 $-1 #
edge $-1 $521 20.692984990918049 $633 26.920954966075737 $517 $634 forward 7 unknown #
coedge $-1 $366 $361 $631 $635 forward $224 $-1 #
vertex $-1 $635 $636 #
straight-curve $-1 -74.765007151582338 20.358753178924598 13.431606289464252 0 1 0 I I #
coedge $-1 $637 $363 $366 $528 reversed $515 $-1 #
coedge $-1 $363 $637 $518 $632 forward $515 $-1 #
vertex $-1 $364 $638 #
straight-curve $-1 -79.46531571398053 34.318703617435339 64.646079666295435 0 0 1 I I #
straight-curve $-1 -79.46531571398053 34.318703617435339 9.3456903052922939 -0.75470957328743171 0 -0.6560590369687036 I I #
edge $-1 $639 -47.116309098263038 $367 -34.318703617435339 $523 $640 forward 7 unknown #
point $-1 -79.46531571398053 34.318703617435339 13.431606289464249 #
point $-1 -74.765007151582338 34.318703617435339 13.431606289464249 #
edge $-1 $641 1 $641 0 $370 $-1 forward 7 unknown #
vertex $-1 $371 $642 #
ellipse-curve $-1 -74.394689811375613 40.717506357849196 8.2591037581881377 -0.6560590369687036 0 0.75470957328743171 1.1320643599311475 0 0.9840885554530554 1 I I #
point $-1 -75.983097072850285 40.717506357849196 12.372736852831327 #
plane-surface $-1 0 0 13.431606289464249 0 0 1 1 0 0 forward_v I I I I #
coedge $-1 $546 $545 $538 $643 forward $375 $-1 #
coedge $-1 $538 $377 $379 $542 reversed $239 $-1 #
coedge $-1 $377 $537 $536 $643 reversed $239 $-1 #
coedge $-1 $385 $380 $377 $540 forward $386 $-1 #
edge $-1 $543 24.96455588322106 $644 35.810618696990709 $539 $645 forward 7 unknown #
coedge $-1 $379 $378 $546 $646 reversed $149 $-1 #
edge $-1 $647 -158.93063142796103 $543 -143.02727507132334 $537 $648 forward 7 unknown #
vertex $-1 $381 $649 #
straight-curve $-1 68.619252900210881 5.6236529040609824 13.431606289464241 0 -1 0 I I #
coedge $-1 $536 $382 $385 $550 reversed $375 $-1 #
coedge $-1 $382 $536 $541 $646 forward $375 $-1 #
vertex $-1 $383 $650 #
straight-curve $-1 79.46531571398053 20.158775705701082 113.21278155822773 0 0 1 I I #
straight-curve $-1 -28.925112875030877 20.158775705701082 118.03513452744403 0.68199835119979291 0 -0.73135370988377701 I I #
edge $-1 $644 2.3358359105428477 $387 20.158775705701082 $545 $651 forward 7 unknown #
point $-1 79.46531571398053 20.158775705701082 13.431606289464249 #
point $-1 68.619252900210881 20.158775705701082 13.431606289464241 #
edge $-1 $652 1 $652 0 $390 $-1 forward 7 unknown #
vertex $-1 $391 $653 #
ellipse-curve $-1 71.941040170228305 7.4281044234452054 5.6566751442675685 0.73135370988377701 0 0.68199835119979291 1.7049958779994823 0 -1.8283842747094425 1 I I #
point $-1 75.747280185095178 7.4281044234452054 5.7877326792394062 #
edge $-1 $654 1 $654 0 $394 $-1 forward 7 unknown #
vertex $-1 $395 $655 #
ellipse-curve $-1 71.941040170228305 15.066507192798738 5.6566751442675685 0.73135370988377701 0 0.68199835119979291 1.7049958779994823 0 -1.8283842747094425 1 I I #
point $-1 75.747280185095178 15.066507192798738 5.7877326792394062 #
plane-surface $-1 79.46531571398053 0 0 -1 0 0 0 0 1 forward_v I I I I #
coedge $-1 $403 $401 $405 $566 reversed $261 $-1 #
edge $-1 $416 -13.431606289464249 $568 13.431606289464249 $415 $656 forward 7 unknown #
vertex $-1 $566 $657 #
straight-curve $-1 -79.46531571398053 -47.116309098263038 0 0 0 -1 I I #
edge $-1 $564 -47.116309098263038 $568 47.116309098263038 $562 $658 forward 7 unknown #
straight-curve $-1 0 -47.116309098263038 -13.431606289464249 -1 0 0 I I #
vertex $-1 $408 $659 #
straight-curve $-1 0 47.116309098263038 -13.431606289464249 1 0 0 I I #
point $-1 79.46531571398053 47.116309098263038 -13.431606289464249 #
point $-1 79.46531571398053 -47.116309098263038 -13.431606289464249 #
straight-curve $-1 -79.46531571398053 0 13.431606289464249 0 -1 0 I I #
point $-1 -79.46531571398053 47.116309098263038 13.431606289464249 #
point $-1 -79.46531571398053 -47.116309098263038 13.431606289464249 #
straight-curve $-1 79.46531571398053 -47.116309098263038 0 0 0 -1 I I #
straight-curve $-1 79.46531571398053 47.116309098263038 0 0 0 -1 I I #
plane-surface $-1 79.46531571398053 0 0 -1 0 0 0 0 1 forward_v I I I I #
coedge $-1 $581 $428 $439 $590 forward $280 $-1 #
coedge $-1 $428 $581 $442 $592 reversed $280 $-1 #
straight-curve $-1 79.46531571398053 -35.104230155837421 -4.59207311274821 0 0 1 I I #
coedge $-1 $579 $578 $431 $582 forward $280 $-1 #
edge $-1 $585 14.549095342312306 $583 26.561174284737923 $581 $660 forward 7 unknown #
vertex $-1 $433 $661 #
straight-curve $-1 0 -47.116309098263038 -11.827549633769014 1 0 0 I I #
vertex $-1 $582 $662 #
straight-curve $-1 0 -35.104230155837421 -11.827549633769014 1 0 0 I I #
point $-1 79.46531571398053 -47.116309098263038 -11.827549633769014 #
point $-1 79.46531571398053 -35.104230155837421 -11.827549633769014 #
straight-curve $-1 -79.46531571398053 -20.555134813525115 -6.5407428172238253 0 1 0 I I #
edge $-1 $440 1.9486697044756154 $585 7.2354765210208036 $578 $663 forward 7 unknown #
point $-1 -79.46531571398053 -35.104230155837421 -6.5407428172238253 #
edge $-1 $444 6.5407428172238253 $583 11.827549633769014 $579 $664 forward 7 unknown #
point $-1 -79.46531571398053 -47.116309098263038 -6.5407428172238253 #
straight-curve $-1 79.46531571398053 -47.116309098263038 0 0 0 -1 I I #
edge $-1 $596 51.214473376831187 $599 55.300389361003141 $450 $665 forward 7 unknown #
vertex $-1 $464 $666 #
straight-curve $-1 -91.866596356718318 -22.306624675009697 13.431606289464249 -1 0 0 I I #
edge $-1 $599 7.9539109672979187 $461 20.751516448125635 $460 $667 forward 7 unknown #
vertex $-1 $598 $668 #
straight-curve $-1 -79.46531571398053 -22.306624675009697 9.3456903052922939 0.75470957328743171 0 0.6560590369687036 I I #
point $-1 -74.765007151582338 -22.306624675009697 13.431606289464249 #
point $-1 -79.46531571398053 -35.104230155837413 9.3456903052922939 #
straight-curve $-1 -79.46531571398053 0 13.431606289464249 0 -1 0 I I #
vertex $-1 $467 $669 #
point $-1 -73.262625451444478 -28.705427415423557 9.2431923136411935 #
coedge $-1 $482 $481 $474 $607 forward $471 $-1 #
edge $-1 $608 51.214473376831187 $611 55.300389361003141 $606 $670 forward 7 unknown #
vertex $-1 $486 $671 #
straight-curve $-1 -91.866596356718318 0.83435324941455047 13.431606289464249 -1 0 0 I I #
edge $-1 $611 -3.6165779949142047 $483 9.1810274859135141 $482 $672 forward 7 unknown #
vertex $-1 $610 $673 #
straight-curve $-1 -79.46531571398053 0.83435324941455047 9.3456903052922939 0.75470957328743171 0 0.6560590369687036 I I #
point $-1 -74.765007151582338 0.83435324941455047 13.431606289464249 #
point $-1 -79.46531571398053 -11.963252231413168 9.3456903052922939 #
straight-curve $-1 -79.46531571398053 0 13.431606289464249 0 -1 0 I I #
vertex $-1 $489 $674 #
point $-1 -73.262625451444478 -5.5644494909993085 9.2431923136411935 #
coedge $-1 $504 $503 $496 $619 forward $493 $-1 #
edge $-1 $620 51.214473376831187 $623 55.300389361003141 $618 $675 forward 7 unknown #
vertex $-1 $508 $676 #
straight-curve $-1 -91.866596356718318 23.975331173838807 13.431606289464249 -1 0 0 I I #
edge $-1 $623 -15.187066957126333 $505 -2.3894614762986137 $504 $677 forward 7 unknown #
vertex $-1 $622 $678 #
straight-curve $-1 -79.46531571398053 23.975331173838807 9.3456903052922939 0.75470957328743171 0 0.6560590369687036 I I #
point $-1 -74.765007151582338 23.975331173838807 13.431606289464249 #
point $-1 -79.46531571398053 11.177725693011087 9.3456903052922939 #
straight-curve $-1 -79.46531571398053 0 13.431606289464249 0 -1 0 I I #
vertex $-1 $511 $679 #
point $-1 -73.262625451444478 17.576528433424947 9.2431923136411935 #
coedge $-1 $631 $517 $637 $680 reversed $357 $-1 #
coedge $-1 $517 $630 $520 $635 reversed $357 $-1 #
edge $-1 $633 -26.757555919338454 $525 -13.959950438510742 $524 $681 forward 7 unknown #
vertex $-1 $519 $682 #
straight-curve $-1 -59.147813279043348 47.116309098263038 27.007426094613781 -0.75470957328743171 0 -0.6560590369687036 I I #
edge $-1 $521 74.765007151582338 $639 79.46531571398053 $631 $683 forward 7 unknown #
point $-1 -74.765007151582338 47.116309098263052 13.431606289464249 #
coedge $-1 $524 $523 $630 $680 forward $515 $-1 #
point $-1 -79.46531571398053 34.318703617435339 9.3456903052922939 #
vertex $-1 $635 $684 #
straight-curve $-1 -79.46531571398053 0 13.431606289464249 0 -1 0 I I #
vertex $-1 $531 $685 #
point $-1 -73.262625451444478 40.717506357849196 9.2431923136411935 #
edge $-1 $644 99.781175268763491 $647 111.41215393979421 $536 $686 forward 7 unknown #
vertex $-1 $550 $687 #
straight-curve $-1 43.654697016989822 2.3358359105428477 13.431606289464241 1 0 0 I I #
edge $-1 $647 -3.2878169935181347 $547 14.5351228016401 $546 $688 forward 7 unknown #
vertex $-1 $646 $689 #
straight-curve $-1 -28.925112875030877 2.3358359105428477 118.03513452744403 -0.68199835119979291 0 0.73135370988377701 I I #
point $-1 68.619252900210881 2.3358359105428477 13.431606289464241 #
point $-1 79.46531571398053 20.158775705701082 1.8006276184335235 #
straight-curve $-1 79.46531571398053 0 13.431606289464249 0 1 0 I I #
vertex $-1 $553 $690 #
point $-1 73.646036048227785 7.4281044234452054 3.8282908695581255 #
vertex $-1 $557 $691 #
point $-1 73.646036048227785 15.066507192798738 3.8282908695581255 #
straight-curve $-1 -79.46531571398053 47.116309098263038 0 0 0 -1 I I #
point $-1 -79.46531571398053 -47.116309098263038 -13.431606289464249 #
straight-curve $-1 -79.46531571398053 0 -13.431606289464249 0 1 0 I I #
point $-1 -79.46531571398053 47.116309098263038 -13.431606289464249 #
straight-curve $-1 -79.46531571398053 -20.555134813525115 -11.827549633769014 0 -1 0 I I #
point $-1 -79.46531571398053 -47.116309098263038 -11.827549633769014 #
point $-1 -79.46531571398053 -35.104230155837421 -11.827549633769014 #
straight-curve $-1 -79.46531571398053 -35.104230155837421 -4.59207311274821 0 0 -1 I I #
straight-curve $-1 -79.46531571398053 -47.116309098263038 0 0 0 -1 I I #
straight-curve $-1 -79.46531571398053 -22.306624675009697 64.646079666295435 0 0 -1 I I #
point $-1 -79.46531571398053 -22.306624675009697 13.431606289464249 #
straight-curve $-1 -79.46531571398053 -14.352713707711779 9.3456903052922993 0 -1 0 I I #
point $-1 -79.46531571398053 -22.306624675009697 9.3456903052922939 #
point $-1 -73.410601255922572 -28.705427415423557 7.1270393982569908 #
straight-curve $-1 -79.46531571398053 0.83435324941455047 64.646079666295435 0 0 -1 I I #
point $-1 -79.46531571398053 0.83435324941455047 13.431606289464249 #
straight-curve $-1 -79.46531571398053 -2.7822247454996543 9.3456903052922993 0 -1 0 I I #
point $-1 -79.46531571398053 0.83435324941455047 9.3456903052922939 #
point $-1 -73.410601255922572 -5.5644494909993085 7.1270393982569908 #
straight-curve $-1 -79.46531571398053 23.975331173838807 64.646079666295435 0 0 -1 I I #
point $-1 -79.46531571398053 23.975331173838807 13.431606289464249 #
straight-curve $-1 -79.46531571398053 8.7882642167124736 9.3456903052922993 0 -1 0 I I #
point $-1 -79.46531571398053 23.975331173838807 9.3456903052922939 #
point $-1 -73.410601255922572 17.576528433424947 7.1270393982569908 #
edge $-1 $639 -13.431606289464249 $633 -9.3456903052922939 $630 $692 forward 7 unknown #
straight-curve $-1 -79.46531571398053 20.358753178924598 9.3456903052922993 0 -1 0 I I #
point $-1 -79.46531571398053 47.116309098263052 9.3456903052922939 #
straight-curve $-1 0 47.116309098263038 13.431606289464249 -1 0 0 I I #
point $-1 -79.46531571398053 47.116309098263038 13.431606289464249 #
point $-1 -73.410601255922572 40.717506357849196 7.1270393982569908 #
straight-curve $-1 79.46531571398053 2.3358359105428477 113.21278155822773 0 0 -1 I I #
point $-1 79.46531571398053 2.3358359105428477 13.431606289464249 #
straight-curve $-1 79.46531571398053 5.6236529040609824 1.8006276184335235 0 1 0 I I #
point $-1 79.46531571398053 2.3358359105428477 1.8006276184335235 #
point $-1 70.11265589551887 7.4281044234452054 3.9516792662680857 #
point $-1 70.11265589551887 15.066507192798738 3.9516792662680857 #
straight-curve $-1 -79.46531571398053 47.116309098263038 0 0 0 -1 I I #
End-of-ACIS-data 