500 0 18 0           
7 Unknown 11 ACIS 5.0 NT 24 Thu Mar 25 19:32:17 1999 
-1 9.9999999999999995e-007 1e-010 
body $-1 $18 $-1 $19 #
body $-1 $20 $-1 $21 #
body $-1 $22 $-1 $23 #
body $-1 $24 $-1 $25 #
body $-1 $26 $-1 $27 #
body $-1 $28 $-1 $29 #
body $-1 $30 $-1 $31 #
body $-1 $32 $-1 $33 #
body $-1 $34 $-1 $35 #
body $-1 $36 $-1 $37 #
body $-1 $38 $-1 $39 #
body $-1 $40 $-1 $41 #
body $-1 $42 $-1 $43 #
body $-1 $44 $-1 $45 #
body $-1 $46 $-1 $47 #
body $-1 $48 $-1 $49 #
body $-1 $50 $-1 $51 #
body $-1 $52 $-1 $53 #
lump $-1 $-1 $54 $0 #
transform $-1 1 0 0 0 1 0 0 0 1 75.422223578600423 45.705172352930667 17.466637447366811 1 rotate no_reflect no_shear #
lump $-1 $-1 $55 $1 #
transform $-1 1 0 0 0 1 0 0 0 1 75.422223578600423 45.705172352930667 17.466637447366811 1 rotate no_reflect no_shear #
lump $-1 $-1 $56 $2 #
transform $-1 1 0 0 0 1 0 0 0 1 75.422223578600423 45.705172352930667 17.466637447366811 1 rotate no_reflect no_shear #
lump $-1 $-1 $57 $3 #
transform $-1 1 0 0 0 1 0 0 0 1 75.422223578600423 45.705172352930667 17.466637447366811 1 rotate no_reflect no_shear #
lump $-1 $-1 $58 $4 #
transform $-1 1 0 0 0 1 0 0 0 1 75.422223578600423 45.705172352930667 17.466637447366811 1 rotate no_reflect no_shear #
lump $-1 $-1 $59 $5 #
transform $-1 1 0 0 0 1 0 0 0 1 75.422223578600423 45.705172352930667 17.466637447366811 1 rotate no_reflect no_shear #
lump $-1 $-1 $60 $6 #
transform $-1 1 0 0 0 1 0 0 0 1 75.422223578600423 45.705172352930667 17.466637447366811 1 rotate no_reflect no_shear #
lump $-1 $-1 $61 $7 #
transform $-1 1 0 0 0 1 0 0 0 1 75.422223578600423 45.705172352930667 17.466637447366811 1 rotate no_reflect no_shear #
lump $-1 $-1 $62 $8 #
transform $-1 1 0 0 0 1 0 0 0 1 75.422223578600423 45.705172352930667 17.466637447366811 1 rotate no_reflect no_shear #
lump $-1 $-1 $63 $9 #
transform $-1 1 0 0 0 1 0 0 0 1 75.422223578600423 45.705172352930667 17.466637447366811 1 rotate no_reflect no_shear #
lump $-1 $-1 $64 $10 #
transform $-1 1 0 0 0 1 0 0 0 1 75.422223578600423 45.705172352930667 17.466637447366811 1 rotate no_reflect no_shear #
lump $-1 $-1 $65 $11 #
transform $-1 1 0 0 0 1 0 0 0 1 75.422223578600423 45.705172352930667 17.466637447366811 1 rotate no_reflect no_shear #
lump $-1 $-1 $66 $12 #
transform $-1 1 0 0 0 1 0 0 0 1 75.422223578600423 45.705172352930667 17.466637447366811 1 rotate no_reflect no_shear #
lump $-1 $-1 $67 $13 #
transform $-1 1 0 0 0 1 0 0 0 1 75.422223578600423 45.705172352930667 17.466637447366811 1 rotate no_reflect no_shear #
lump $-1 $-1 $68 $14 #
transform $-1 1 0 0 0 1 0 0 0 1 75.422223578600423 45.705172352930667 17.466637447366811 1 rotate no_reflect no_shear #
lump $-1 $-1 $69 $15 #
transform $-1 1 0 0 0 1 0 0 0 1 75.422223578600423 45.705172352930667 17.466637447366811 1 rotate no_reflect no_shear #
lump $-1 $-1 $70 $16 #
transform $-1 1 0 0 0 1 0 0 0 1 75.422223578600423 45.705172352930667 17.466637447366811 1 rotate no_reflect no_shear #
lump $-1 $-1 $71 $17 #
transform $-1 1 0 0 0 1 0 0 0 1 75.422223578600423 45.705172352930667 17.466637447366811 1 rotate no_reflect no_shear #
shell $-1 $-1 $-1 $72 $-1 $18 #
shell $-1 $-1 $-1 $73 $-1 $20 #
shell $-1 $-1 $-1 $74 $-1 $22 #
shell $-1 $-1 $-1 $75 $-1 $24 #
shell $-1 $-1 $-1 $76 $-1 $26 #
shell $-1 $-1 $-1 $77 $-1 $28 #
shell $-1 $-1 $-1 $78 $-1 $30 #
shell $-1 $-1 $-1 $79 $-1 $32 #
shell $-1 $-1 $-1 $80 $-1 $34 #
shell $-1 $-1 $-1 $81 $-1 $36 #
shell $-1 $-1 $-1 $82 $-1 $38 #
shell $-1 $-1 $-1 $83 $-1 $40 #
shell $-1 $-1 $-1 $84 $-1 $42 #
shell $-1 $-1 $-1 $85 $-1 $44 #
shell $-1 $-1 $-1 $86 $-1 $46 #
shell $-1 $-1 $-1 $87 $-1 $48 #
shell $-1 $-1 $-1 $88 $-1 $50 #
shell $-1 $-1 $-1 $89 $-1 $52 #
face $-1 $90 $91 $54 $-1 $92 reversed single #
face $-1 $93 $94 $55 $-1 $95 forward single #
face $-1 $96 $97 $56 $-1 $98 reversed single #
face $-1 $99 $100 $57 $-1 $101 forward single #
face $-1 $102 $103 $58 $-1 $104 forward single #
face $-1 $105 $106 $59 $-1 $107 reversed single #
face $-1 $108 $109 $60 $-1 $110 forward single #
face $-1 $111 $112 $61 $-1 $113 forward single #
face $-1 $114 $115 $62 $-1 $116 reversed single #
face $-1 $117 $118 $63 $-1 $119 forward single #
face $-1 $120 $121 $64 $-1 $122 forward single #
face $-1 $123 $124 $65 $-1 $125 reversed single #
face $-1 $126 $127 $66 $-1 $128 forward single #
face $-1 $129 $130 $67 $-1 $131 forward single #
face $-1 $132 $133 $68 $-1 $134 reversed single #
face $-1 $135 $136 $69 $-1 $137 forward single #
face $-1 $138 $139 $70 $-1 $140 forward single #
face $-1 $141 $142 $71 $-1 $143 forward single #
face $-1 $144 $145 $54 $-1 $146 forward single #
loop $-1 $-1 $147 $72 #
plane-surface $-1 0 -45.705172352930667 0 0 1 0 0 0 1 forward_v I I I I #
face $-1 $148 $149 $55 $-1 $150 reversed single #
loop $-1 $-1 $151 $73 #
plane-surface $-1 0 -45.705172352930667 0 0 1 0 0 0 1 forward_v I I I I #
face $-1 $152 $153 $56 $-1 $154 reversed single #
loop $-1 $-1 $155 $74 #
plane-surface $-1 123.41019446322726 -15.082426101487181 219.41101850881108 0 -1 0 -0.84804810408105047 0 -0.52991925155115449 forward_v I I I I #
face $-1 $156 $157 $57 $-1 $158 forward single #
loop $-1 $159 $160 $75 #
cone-surface $-1 73.150353780739309 -20.677017704879823 14.244506371808409 -0.84804810408105047 0 -0.52991925155115449 0.13247981288778862 0 -0.21201202602026262 1 I I 0 1 0.25 forward I I I I #
face $-1 $161 $162 $58 $-1 $163 forward single #
loop $-1 $164 $165 $76 #
cone-surface $-1 73.150353780739309 -17.320262742844236 14.244506371808409 -0.84804810408105047 0 -0.52991925155115449 0.13247981288778862 0 -0.21201202602026262 1 I I 0 1 0.25 forward I I I I #
face $-1 $166 $167 $59 $-1 $168 reversed single #
loop $-1 $-1 $169 $77 #
plane-surface $-1 123.41019446322726 2.6874629286604712 219.41101850881108 0 -1 0 -0.84804810408105047 0 -0.52991925155115449 forward_v I I I I #
face $-1 $170 $171 $60 $-1 $172 forward single #
loop $-1 $173 $174 $78 #
cone-surface $-1 73.150353780739309 -2.9071286747321707 14.244506371808409 -0.84804810408105047 0 -0.52991925155115449 0.13247981288778862 0 -0.21201202602026262 1 I I 0 1 0.25 forward I I I I #
face $-1 $175 $176 $61 $-1 $177 forward single #
loop $-1 $178 $179 $79 #
cone-surface $-1 73.150353780739309 0.44962628730341692 14.244506371808409 -0.84804810408105047 0 -0.52991925155115449 0.13247981288778862 0 -0.21201202602026262 1 I I 0 1 0.25 forward I I I I #
face $-1 $180 $181 $62 $-1 $182 reversed single #
loop $-1 $-1 $183 $80 #
plane-surface $-1 123.41019446322726 20.457351958808125 219.41101850881108 0 -1 0 -0.84804810408105047 0 -0.52991925155115449 forward_v I I I I #
face $-1 $184 $185 $63 $-1 $186 forward single #
loop $-1 $187 $188 $81 #
cone-surface $-1 73.150353780739309 14.862760355415482 14.244506371808409 -0.84804810408105047 0 -0.52991925155115449 0.13247981288778862 0 -0.21201202602026262 1 I I 0 1 0.25 forward I I I I #
face $-1 $189 $190 $64 $-1 $191 forward single #
loop $-1 $192 $193 $82 #
cone-surface $-1 73.150353780739309 18.219515317451069 14.244506371808409 -0.84804810408105047 0 -0.52991925155115449 0.13247981288778862 0 -0.21201202602026262 1 I I 0 1 0.25 forward I I I I #
face $-1 $194 $195 $65 $-1 $196 reversed single #
loop $-1 $-1 $197 $83 #
plane-surface $-1 123.41019446322726 38.227240988955778 219.41101850881108 0 -1 0 -0.84804810408105047 0 -0.52991925155115449 forward_v I I I I #
face $-1 $198 $199 $66 $-1 $200 forward single #
loop $-1 $201 $202 $84 #
cone-surface $-1 73.150353780739309 32.632649385563134 14.244506371808409 -0.84804810408105047 0 -0.52991925155115449 0.13247981288778862 0 -0.21201202602026262 1 I I 0 1 0.25 forward I I I I #
face $-1 $203 $204 $67 $-1 $205 forward single #
loop $-1 $206 $207 $85 #
cone-surface $-1 73.150353780739309 35.989404347598715 14.244506371808409 -0.84804810408105047 0 -0.52991925155115449 0.13247981288778862 0 -0.21201202602026262 1 I I 0 1 0.25 forward I I I I #
face $-1 $208 $209 $68 $-1 $210 reversed single #
loop $-1 $-1 $211 $86 #
plane-surface $-1 -150.84444816766802 -16.49244551216141 132.86646474612743 0 1 0 -0.50000000669873634 0 0.8660253999169214 forward_v I I I I #
face $-1 $212 $213 $69 $-1 $214 forward single #
loop $-1 $215 $216 $87 #
cone-surface $-1 -61.421207361097018 -13.889311598900168 8.4514609935918177 0.50000000669873634 0 -0.8660253999169214 0.8660253999169214 0 0.50000000669873634 1 I I 0 1 1 forward I I I I #
face $-1 $217 $218 $70 $-1 $219 forward single #
loop $-1 $220 $221 $88 #
cone-surface $-1 -61.421207361097018 -9.9846107290083026 8.4514609935918177 0.50000000669873634 0 -0.8660253999169214 0.8660253999169214 0 0.50000000669873634 1 I I 0 1 1 forward I I I I #
face $-1 $222 $223 $71 $-1 $224 forward single #
loop $-1 $225 $226 $89 #
cone-surface $-1 -61.421207361097018 -6.0799098591164409 8.4514609935918177 0.50000000669873634 0 -0.8660253999169214 0.8660253999169214 0 0.50000000669873634 1 I I 0 1 1 forward I I I I #
face $-1 $227 $228 $54 $-1 $229 reversed single #
loop $-1 $-1 $230 $90 #
plane-surface $-1 0 0 17.466637447366811 0 0 1 1 0 0 forward_v I I I I #
coedge $-1 $231 $232 $233 $234 reversed $91 $-1 #
face $-1 $235 $236 $55 $-1 $237 reversed single #
loop $-1 $-1 $238 $93 #
plane-surface $-1 0 0 -17.466637447366811 0 0 1 1 0 0 forward_v I I I I #
coedge $-1 $239 $240 $241 $242 forward $94 $-1 #
face $-1 $243 $244 $56 $-1 $245 reversed single #
loop $-1 $-1 $246 $96 #
plane-surface $-1 -4.5131529595911246 -18.998640223862033 139.47564197061953 0.84804810408105047 0 0.52991925155115449 0.52991925155115449 0 -0.84804810408105047 forward_v I I I I #
coedge $-1 $247 $248 $249 $250 reversed $97 $-1 #
face $-1 $-1 $251 $57 $-1 $252 forward single #
loop $-1 $253 $254 $99 #
cone-surface $-1 72.620323715688656 -20.677017704879823 13.913306839588937 -0.84804810408105047 0 -0.52991925155115449 0.066239906443894311 0 -0.10600601301013131 1 I I -0.70710678118654746 0.70710678118654746 0.125 forward I I I I #
loop $-1 $-1 $255 $75 #
coedge $-1 $160 $160 $256 $257 reversed $100 $-1 #
face $-1 $-1 $258 $58 $-1 $259 forward single #
loop $-1 $260 $261 $102 #
cone-surface $-1 72.620323715688656 -17.320262742844236 13.913306839588937 -0.84804810408105047 0 -0.52991925155115449 0.066239906443894311 0 -0.10600601301013131 1 I I -0.70710678118654746 0.70710678118654746 0.125 forward I I I I #
loop $-1 $-1 $262 $76 #
coedge $-1 $165 $165 $263 $264 reversed $103 $-1 #
face $-1 $265 $266 $59 $-1 $267 reversed single #
loop $-1 $-1 $268 $105 #
plane-surface $-1 -4.5131529595911246 -1.2287511937143805 139.47564197061953 0.84804810408105047 0 0.52991925155115449 0.52991925155115449 0 -0.84804810408105047 forward_v I I I I #
coedge $-1 $269 $270 $271 $272 reversed $106 $-1 #
face $-1 $-1 $273 $60 $-1 $274 forward single #
loop $-1 $275 $276 $108 #
cone-surface $-1 72.620323715688656 -2.9071286747321707 13.913306839588937 -0.84804810408105047 0 -0.52991925155115449 0.066239906443894311 0 -0.10600601301013131 1 I I -0.70710678118654746 0.70710678118654746 0.125 forward I I I I #
loop $-1 $-1 $277 $78 #
coedge $-1 $174 $174 $278 $279 reversed $109 $-1 #
face $-1 $-1 $280 $61 $-1 $281 forward single #
loop $-1 $282 $283 $111 #
cone-surface $-1 72.620323715688656 0.44962628730341692 13.913306839588937 -0.84804810408105047 0 -0.52991925155115449 0.066239906443894311 0 -0.10600601301013131 1 I I -0.70710678118654746 0.70710678118654746 0.125 forward I I I I #
loop $-1 $-1 $284 $79 #
coedge $-1 $179 $179 $285 $286 reversed $112 $-1 #
face $-1 $287 $288 $62 $-1 $289 reversed single #
loop $-1 $-1 $290 $114 #
plane-surface $-1 -4.5131529595911246 16.541137836433272 139.47564197061953 0.84804810408105047 0 0.52991925155115449 0.52991925155115449 0 -0.84804810408105047 forward_v I I I I #
coedge $-1 $291 $292 $293 $294 reversed $115 $-1 #
face $-1 $-1 $295 $63 $-1 $296 forward single #
loop $-1 $297 $298 $117 #
cone-surface $-1 72.620323715688656 14.862760355415482 13.913306839588937 -0.84804810408105047 0 -0.52991925155115449 0.066239906443894311 0 -0.10600601301013131 1 I I -0.70710678118654746 0.70710678118654746 0.125 forward I I I I #
loop $-1 $-1 $299 $81 #
coedge $-1 $188 $188 $300 $301 reversed $118 $-1 #
face $-1 $-1 $302 $64 $-1 $303 forward single #
loop $-1 $304 $305 $120 #
cone-surface $-1 72.620323715688656 18.219515317451069 13.913306839588937 -0.84804810408105047 0 -0.52991925155115449 0.066239906443894311 0 -0.10600601301013131 1 I I -0.70710678118654746 0.70710678118654746 0.125 forward I I I I #
loop $-1 $-1 $306 $82 #
coedge $-1 $193 $193 $307 $308 reversed $121 $-1 #
face $-1 $309 $310 $65 $-1 $311 reversed single #
loop $-1 $-1 $312 $123 #
plane-surface $-1 -4.5131529595911246 34.311026866580924 139.47564197061953 0.84804810408105047 0 0.52991925155115449 0.52991925155115449 0 -0.84804810408105047 forward_v I I I I #
coedge $-1 $313 $314 $315 $316 reversed $124 $-1 #
face $-1 $-1 $317 $66 $-1 $318 forward single #
loop $-1 $319 $320 $126 #
cone-surface $-1 72.620323715688656 32.632649385563134 13.913306839588937 -0.84804810408105047 0 -0.52991925155115449 0.066239906443894311 0 -0.10600601301013131 1 I I -0.70710678118654746 0.70710678118654746 0.125 forward I I I I #
loop $-1 $-1 $321 $84 #
coedge $-1 $202 $202 $322 $323 reversed $127 $-1 #
face $-1 $-1 $324 $67 $-1 $325 forward single #
loop $-1 $326 $327 $129 #
cone-surface $-1 72.620323715688656 35.989404347598715 13.913306839588937 -0.84804810408105047 0 -0.52991925155115449 0.066239906443894311 0 -0.10600601301013131 1 I I -0.70710678118654746 0.70710678118654746 0.125 forward I I I I #
loop $-1 $-1 $328 $85 #
coedge $-1 $207 $207 $329 $330 reversed $130 $-1 #
face $-1 $331 $332 $68 $-1 $333 reversed single #
loop $-1 $-1 $334 $132 #
plane-surface $-1 -75.422223578600409 -9.9846107290083026 2.2313420715656491 -0.50000000669873634 0 0.8660253999169214 0.8660253999169214 0 0.50000000669873634 forward_v I I I I #
coedge $-1 $335 $336 $337 $338 reversed $133 $-1 #
face $-1 $-1 $339 $69 $-1 $340 forward single #
loop $-1 $341 $342 $135 #
cone-surface $-1 -60.364343734156563 -13.889311598900168 6.6209195277589394 0.50000000669873634 0 -0.8660253999169214 0.4330126999584607 0 0.25000000334936817 1 I I -0.70710678118654746 0.70710678118654746 0.5 forward I I I I #
loop $-1 $-1 $343 $87 #
coedge $-1 $216 $216 $344 $345 reversed $136 $-1 #
face $-1 $-1 $346 $70 $-1 $347 forward single #
loop $-1 $348 $349 $138 #
cone-surface $-1 -60.364343734156563 -9.9846107290083026 6.6209195277589394 0.50000000669873634 0 -0.8660253999169214 0.4330126999584607 0 0.25000000334936817 1 I I -0.70710678118654746 0.70710678118654746 0.5 forward I I I I #
loop $-1 $-1 $350 $88 #
coedge $-1 $221 $221 $351 $352 reversed $139 $-1 #
face $-1 $-1 $353 $71 $-1 $354 forward single #
loop $-1 $355 $356 $141 #
cone-surface $-1 -60.364343734156563 -6.0799098591164409 6.6209195277589394 0.50000000669873634 0 -0.8660253999169214 0.4330126999584607 0 0.25000000334936817 1 I I -0.70710678118654746 0.70710678118654746 0.5 forward I I I I #
loop $-1 $-1 $357 $89 #
coedge $-1 $226 $226 $358 $359 reversed $142 $-1 #
face $-1 $360 $361 $54 $-1 $362 reversed single #
loop $-1 $-1 $363 $144 #
plane-surface $-1 0 0 -17.466637447366811 0 0 1 1 0 0 forward_v I I I I #
coedge $-1 $364 $365 $366 $367 forward $145 $-1 #
coedge $-1 $368 $147 $369 $370 reversed $91 $-1 #
coedge $-1 $147 $368 $371 $372 forward $91 $-1 #
coedge $-1 $373 $363 $147 $234 forward $228 $-1 #
edge $-1 $374 -75.422223578600423 $375 75.422223578600423 $147 $376 forward 7 unknown #
face $-1 $377 $378 $55 $-1 $379 reversed single #
loop $-1 $-1 $380 $148 #
plane-surface $-1 -44.66304165947048 -66.035960938201399 0 0 1 0 0 0 1 forward_v I I I I #
coedge $-1 $381 $382 $240 $383 forward $149 $-1 #
coedge $-1 $384 $151 $385 $386 reversed $94 $-1 #
coedge $-1 $151 $384 $238 $383 reversed $94 $-1 #
coedge $-1 $387 $388 $151 $242 reversed $378 $-1 #
edge $-1 $389 -17.466637447366811 $390 17.466637447366811 $241 $391 forward 7 unknown #
face $-1 $392 $393 $56 $-1 $394 forward single #
loop $-1 $-1 $395 $152 #
plane-surface $-1 123.41019446322726 -22.914854346236886 219.41101850881108 0 1 0 0.84804810408105047 0 0.52991925155115449 forward_v I I I I #
coedge $-1 $396 $397 $398 $399 reversed $153 $-1 #
coedge $-1 $248 $155 $400 $401 reversed $97 $-1 #
coedge $-1 $155 $247 $396 $402 reversed $97 $-1 #
coedge $-1 $398 $403 $155 $250 forward $393 $-1 #
edge $-1 $404 -13.717126346986795 $405 -10.021434855345682 $249 $406 forward 7 unknown #
loop $-1 $-1 $256 $156 #
plane-surface $-1 -4.5131529595911246 -18.998640223862033 139.47564197061953 0.84804810408105047 0 0.52991925155115449 0.52991925155115449 0 -0.84804810408105047 forward_v I I I I #
loop $-1 $-1 $407 $99 #
coedge $-1 $254 $254 $255 $408 reversed $157 $-1 #
coedge $-1 $255 $255 $254 $408 forward $159 $-1 #
coedge $-1 $256 $256 $160 $257 forward $251 $-1 #
edge $-1 $409 0 $409 6.2831853071796004 $256 $410 forward 7 unknown #
loop $-1 $-1 $263 $161 #
plane-surface $-1 -4.5131529595911246 -18.998640223862033 139.47564197061953 0.84804810408105047 0 0.52991925155115449 0.52991925155115449 0 -0.84804810408105047 forward_v I I I I #
loop $-1 $-1 $411 $102 #
coedge $-1 $261 $261 $262 $412 reversed $162 $-1 #
coedge $-1 $262 $262 $261 $412 forward $164 $-1 #
coedge $-1 $263 $263 $165 $264 forward $258 $-1 #
edge $-1 $413 0 $413 6.2831853071796004 $263 $414 forward 7 unknown #
face $-1 $415 $416 $59 $-1 $417 reversed single #
loop $-1 $-1 $418 $166 #
plane-surface $-1 123.41019446322726 -5.1449653160892321 219.41101850881108 0 1 0 0.84804810408105047 0 0.52991925155115449 forward_v I I I I #
coedge $-1 $419 $420 $421 $422 reversed $167 $-1 #
coedge $-1 $270 $169 $423 $424 reversed $106 $-1 #
coedge $-1 $169 $269 $419 $425 reversed $106 $-1 #
coedge $-1 $421 $426 $169 $272 forward $427 $-1 #
edge $-1 $428 -13.717126346986795 $429 -10.021434855345682 $271 $430 forward 7 unknown #
loop $-1 $-1 $278 $170 #
plane-surface $-1 -4.5131529595911246 -1.2287511937143805 139.47564197061953 0.84804810408105047 0 0.52991925155115449 0.52991925155115449 0 -0.84804810408105047 forward_v I I I I #
loop $-1 $-1 $431 $108 #
coedge $-1 $276 $276 $277 $432 reversed $171 $-1 #
coedge $-1 $277 $277 $276 $432 forward $173 $-1 #
coedge $-1 $278 $278 $174 $279 forward $273 $-1 #
edge $-1 $433 0 $433 6.2831853071796004 $278 $434 forward 7 unknown #
loop $-1 $-1 $285 $175 #
plane-surface $-1 -4.5131529595911246 -1.2287511937143805 139.47564197061953 0.84804810408105047 0 0.52991925155115449 0.52991925155115449 0 -0.84804810408105047 forward_v I I I I #
loop $-1 $-1 $435 $111 #
coedge $-1 $283 $283 $284 $436 reversed $176 $-1 #
coedge $-1 $284 $284 $283 $436 forward $178 $-1 #
coedge $-1 $285 $285 $179 $286 forward $280 $-1 #
edge $-1 $437 0 $437 6.2831853071796004 $285 $438 forward 7 unknown #
face $-1 $439 $440 $62 $-1 $441 reversed single #
loop $-1 $-1 $442 $180 #
plane-surface $-1 123.41019446322726 12.62492371405842 219.41101850881108 0 1 0 0.84804810408105047 0 0.52991925155115449 forward_v I I I I #
coedge $-1 $443 $444 $445 $446 reversed $181 $-1 #
coedge $-1 $292 $183 $447 $448 reversed $115 $-1 #
coedge $-1 $183 $291 $443 $449 reversed $115 $-1 #
coedge $-1 $445 $450 $183 $294 forward $451 $-1 #
edge $-1 $452 -13.717126346986795 $453 -10.021434855345682 $293 $454 forward 7 unknown #
loop $-1 $-1 $300 $184 #
plane-surface $-1 -4.5131529595911246 16.541137836433272 139.47564197061953 0.84804810408105047 0 0.52991925155115449 0.52991925155115449 0 -0.84804810408105047 forward_v I I I I #
loop $-1 $-1 $455 $117 #
coedge $-1 $298 $298 $299 $456 reversed $185 $-1 #
coedge $-1 $299 $299 $298 $456 forward $187 $-1 #
coedge $-1 $300 $300 $188 $301 forward $295 $-1 #
edge $-1 $457 0 $457 6.2831853071796004 $300 $458 forward 7 unknown #
loop $-1 $-1 $307 $189 #
plane-surface $-1 -4.5131529595911246 16.541137836433272 139.47564197061953 0.84804810408105047 0 0.52991925155115449 0.52991925155115449 0 -0.84804810408105047 forward_v I I I I #
loop $-1 $-1 $459 $120 #
coedge $-1 $305 $305 $306 $460 reversed $190 $-1 #
coedge $-1 $306 $306 $305 $460 forward $192 $-1 #
coedge $-1 $307 $307 $193 $308 forward $302 $-1 #
edge $-1 $461 0 $461 6.2831853071796004 $307 $462 forward 7 unknown #
face $-1 $463 $464 $65 $-1 $465 reversed single #
loop $-1 $-1 $466 $194 #
plane-surface $-1 123.41019446322726 30.394812744206071 219.41101850881108 0 1 0 0.84804810408105047 0 0.52991925155115449 forward_v I I I I #
coedge $-1 $467 $468 $469 $470 reversed $195 $-1 #
coedge $-1 $314 $197 $471 $472 reversed $124 $-1 #
coedge $-1 $197 $313 $467 $473 reversed $124 $-1 #
coedge $-1 $469 $474 $197 $316 forward $475 $-1 #
edge $-1 $476 -13.717126346986795 $477 -10.021434855345682 $315 $478 forward 7 unknown #
loop $-1 $-1 $322 $198 #
plane-surface $-1 -4.5131529595911246 34.311026866580924 139.47564197061953 0.84804810408105047 0 0.52991925155115449 0.52991925155115449 0 -0.84804810408105047 forward_v I I I I #
loop $-1 $-1 $479 $126 #
coedge $-1 $320 $320 $321 $480 reversed $199 $-1 #
coedge $-1 $321 $321 $320 $480 forward $201 $-1 #
coedge $-1 $322 $322 $202 $323 forward $317 $-1 #
edge $-1 $481 0 $481 6.2831853071796004 $322 $482 forward 7 unknown #
loop $-1 $-1 $329 $203 #
plane-surface $-1 -4.5131529595911246 34.311026866580924 139.47564197061953 0.84804810408105047 0 0.52991925155115449 0.52991925155115449 0 -0.84804810408105047 forward_v I I I I #
loop $-1 $-1 $483 $129 #
coedge $-1 $327 $327 $328 $484 reversed $204 $-1 #
coedge $-1 $328 $328 $327 $484 forward $206 $-1 #
coedge $-1 $329 $329 $207 $330 forward $324 $-1 #
edge $-1 $485 0 $485 6.2831853071796004 $329 $486 forward 7 unknown #
face $-1 $487 $488 $68 $-1 $489 reversed single #
loop $-1 $-1 $490 $208 #
plane-surface $-1 -150.84444816766802 -3.476775945855195 132.86646474612743 0 -1 0 0.50000000669873634 0 -0.8660253999169214 forward_v I I I I #
coedge $-1 $491 $492 $493 $494 reversed $209 $-1 #
coedge $-1 $336 $211 $495 $496 reversed $133 $-1 #
coedge $-1 $211 $335 $491 $497 reversed $133 $-1 #
coedge $-1 $493 $498 $211 $338 forward $499 $-1 #
edge $-1 $500 5.0523358652299066e-007 $501 26.38830569305825 $337 $502 forward 7 unknown #
loop $-1 $-1 $344 $212 #
plane-surface $-1 -75.422223578600409 -9.9846107290083026 2.2313420715656491 -0.50000000669873634 0 0.8660253999169214 0.8660253999169214 0 0.50000000669873634 forward_v I I I I #
loop $-1 $-1 $503 $135 #
coedge $-1 $342 $342 $343 $504 reversed $213 $-1 #
coedge $-1 $343 $343 $342 $504 forward $215 $-1 #
coedge $-1 $344 $344 $216 $345 forward $339 $-1 #
edge $-1 $505 0 $505 6.2831853071796004 $344 $506 forward 7 unknown #
loop $-1 $-1 $351 $217 #
plane-surface $-1 -75.422223578600409 -9.9846107290083026 2.2313420715656491 -0.50000000669873634 0 0.8660253999169214 0.8660253999169214 0 0.50000000669873634 forward_v I I I I #
loop $-1 $-1 $507 $138 #
coedge $-1 $349 $349 $350 $508 reversed $218 $-1 #
coedge $-1 $350 $350 $349 $508 forward $220 $-1 #
coedge $-1 $351 $351 $221 $352 forward $346 $-1 #
edge $-1 $509 0 $509 6.2831853071796004 $351 $510 forward 7 unknown #
loop $-1 $-1 $358 $222 #
plane-surface $-1 -75.422223578600409 -9.9846107290083026 2.2313420715656491 -0.50000000669873634 0 0.8660253999169214 0.8660253999169214 0 0.50000000669873634 forward_v I I I I #
loop $-1 $-1 $511 $141 #
coedge $-1 $356 $356 $357 $512 reversed $223 $-1 #
coedge $-1 $357 $357 $356 $512 forward $225 $-1 #
coedge $-1 $358 $358 $226 $359 forward $353 $-1 #
edge $-1 $513 0 $513 6.2831853071796004 $358 $514 forward 7 unknown #
face $-1 $515 $516 $54 $-1 $517 reversed single #
loop $-1 $-1 $518 $227 #
plane-surface $-1 -75.422223578600423 0 0 1 0 0 0 0 -1 forward_v I I I I #
coedge $-1 $233 $519 $520 $521 forward $228 $-1 #
coedge $-1 $522 $230 $523 $524 forward $145 $-1 #
coedge $-1 $230 $522 $368 $525 forward $145 $-1 #
coedge $-1 $369 $526 $230 $367 reversed $527 $-1 #
edge $-1 $528 -45.705172352930667 $529 45.705172352930667 $366 $530 forward 7 unknown #
coedge $-1 $232 $231 $365 $525 reversed $91 $-1 #
coedge $-1 $520 $366 $231 $370 forward $527 $-1 #
edge $-1 $528 -17.466637447366811 $374 17.466637447366811 $369 $531 forward 7 unknown #
coedge $-1 $532 $533 $232 $372 reversed $361 $-1 #
edge $-1 $534 -17.466637447366811 $375 17.466637447366811 $371 $535 forward 7 unknown #
coedge $-1 $519 $233 $533 $536 forward $228 $-1 #
vertex $-1 $370 $537 #
vertex $-1 $536 $538 #
straight-curve $-1 0 -45.705172352930667 -17.466637447366811 -1 0 0 I I #
face $-1 $539 $540 $55 $-1 $541 reversed single #
loop $-1 $-1 $241 $235 #
plane-surface $-1 -48.837134635074165 -55.870566645566029 0 1 0 0 0 0 -1 forward_v I I I I #
coedge $-1 $542 $543 $544 $545 forward $236 $-1 #
coedge $-1 $546 $238 $547 $548 forward $149 $-1 #
coedge $-1 $238 $546 $387 $549 forward $149 $-1 #
edge $-1 $389 -48.837134635074165 $550 -40.488948683866795 $238 $551 forward 7 unknown #
coedge $-1 $240 $239 $552 $553 forward $94 $-1 #
coedge $-1 $554 $555 $239 $386 forward $556 $-1 #
edge $-1 $557 40.488948683866795 $390 48.837134635074165 $385 $558 forward 7 unknown #
coedge $-1 $544 $241 $382 $549 reversed $378 $-1 #
coedge $-1 $241 $544 $554 $559 reversed $378 $-1 #
vertex $-1 $383 $560 #
vertex $-1 $559 $561 #
straight-curve $-1 -48.837134635074165 -45.705172352930667 0 0 0 1 I I #
face $-1 $-1 $562 $56 $-1 $563 reversed single #
loop $-1 $-1 $249 $243 #
plane-surface $-1 0 0 17.466637447366811 0 0 1 1 0 0 forward_v I I I I #
coedge $-1 $564 $565 $566 $567 reversed $244 $-1 #
coedge $-1 $568 $246 $248 $402 forward $153 $-1 #
coedge $-1 $246 $568 $564 $569 forward $153 $-1 #
coedge $-1 $566 $249 $246 $399 forward $393 $-1 #
edge $-1 $405 5.5831059895561648 $570 13.41553423430587 $398 $571 forward 7 unknown #
coedge $-1 $572 $573 $247 $401 forward $562 $-1 #
edge $-1 $574 -98.153214706604388 $404 -92.238871807038734 $400 $575 forward 7 unknown #
edge $-1 $405 143.87038180512454 $574 150.84444715720085 $248 $576 forward 7 unknown #
coedge $-1 $249 $566 $572 $577 forward $393 $-1 #
vertex $-1 $250 $578 #
vertex $-1 $250 $579 #
straight-curve $-1 61.705097231613628 -15.082426101487181 17.466637447366807 -1 0 0 I I #
coedge $-1 $407 $407 $-1 $580 reversed $253 $-1 #
edge $-1 $581 0 $581 6.2831853071796004 $254 $582 forward 7 unknown #
vertex $-1 $257 $583 #
ellipse-curve $-1 73.574377832779845 -20.677017704879823 14.509465997583995 0.84804810408105047 0 0.52991925155115449 0.13247981288778862 0 -0.21201202602026262 1 I I #
coedge $-1 $411 $411 $-1 $584 reversed $260 $-1 #
edge $-1 $585 0 $585 6.2831853071796004 $261 $586 forward 7 unknown #
vertex $-1 $264 $587 #
ellipse-curve $-1 73.574377832779845 -17.320262742844236 14.509465997583995 0.84804810408105047 0 0.52991925155115449 0.13247981288778862 0 -0.21201202602026262 1 I I #
face $-1 $-1 $427 $59 $-1 $588 forward single #
loop $-1 $-1 $589 $265 #
plane-surface $-1 75.422223578600423 0 0 -1 0 0 0 0 1 forward_v I I I I #
coedge $-1 $590 $591 $592 $593 reversed $266 $-1 #
coedge $-1 $594 $268 $270 $425 forward $167 $-1 #
coedge $-1 $268 $594 $590 $595 forward $167 $-1 #
coedge $-1 $592 $271 $268 $422 forward $427 $-1 #
edge $-1 $429 -3.3018385255176614 $596 4.5305897192320419 $421 $597 forward 7 unknown #
coedge $-1 $598 $599 $269 $424 forward $416 $-1 #
edge $-1 $600 -98.153214706604388 $428 -92.238871807038734 $423 $601 forward 7 unknown #
edge $-1 $429 143.87038180512454 $600 150.84444715720085 $270 $602 forward 7 unknown #
coedge $-1 $271 $592 $598 $603 forward $427 $-1 #
loop $-1 $-1 $592 $415 #
vertex $-1 $424 $604 #
vertex $-1 $272 $605 #
straight-curve $-1 61.705097231613628 2.6874629286604712 17.466637447366807 -1 0 0 I I #
coedge $-1 $431 $431 $-1 $606 reversed $275 $-1 #
edge $-1 $607 0 $607 6.2831853071796004 $276 $608 forward 7 unknown #
vertex $-1 $279 $609 #
ellipse-curve $-1 73.574377832779845 -2.9071286747321707 14.509465997583995 0.84804810408105047 0 0.52991925155115449 0.13247981288778862 0 -0.21201202602026262 1 I I #
coedge $-1 $435 $435 $-1 $610 reversed $282 $-1 #
edge $-1 $611 0 $611 6.2831853071796004 $283 $612 forward 7 unknown #
vertex $-1 $286 $613 #
ellipse-curve $-1 73.574377832779845 0.44962628730341692 14.509465997583995 0.84804810408105047 0 0.52991925155115449 0.13247981288778862 0 -0.21201202602026262 1 I I #
face $-1 $-1 $451 $62 $-1 $614 forward single #
loop $-1 $-1 $615 $287 #
plane-surface $-1 75.422223578600423 0 0 -1 0 0 0 0 1 forward_v I I I I #
coedge $-1 $616 $617 $618 $619 reversed $288 $-1 #
coedge $-1 $620 $290 $292 $449 forward $181 $-1 #
coedge $-1 $290 $620 $616 $621 forward $181 $-1 #
coedge $-1 $618 $293 $290 $446 forward $451 $-1 #
edge $-1 $453 -12.186783040591489 $622 -4.3543547958417843 $445 $623 forward 7 unknown #
coedge $-1 $624 $625 $291 $448 forward $440 $-1 #
edge $-1 $626 -98.153214706604388 $452 -92.238871807038734 $447 $627 forward 7 unknown #
edge $-1 $453 143.87038180512454 $626 150.84444715720085 $292 $628 forward 7 unknown #
coedge $-1 $293 $618 $624 $629 forward $451 $-1 #
loop $-1 $-1 $618 $439 #
vertex $-1 $448 $630 #
vertex $-1 $294 $631 #
straight-curve $-1 61.705097231613628 20.457351958808125 17.466637447366807 -1 0 0 I I #
coedge $-1 $455 $455 $-1 $632 reversed $297 $-1 #
edge $-1 $633 0 $633 6.2831853071796004 $298 $634 forward 7 unknown #
vertex $-1 $301 $635 #
ellipse-curve $-1 73.574377832779845 14.862760355415482 14.509465997583995 0.84804810408105047 0 0.52991925155115449 0.13247981288778862 0 -0.21201202602026262 1 I I #
coedge $-1 $459 $459 $-1 $636 reversed $304 $-1 #
edge $-1 $637 0 $637 6.2831853071796004 $305 $638 forward 7 unknown #
vertex $-1 $308 $639 #
ellipse-curve $-1 73.574377832779845 18.219515317451069 14.509465997583995 0.84804810408105047 0 0.52991925155115449 0.13247981288778862 0 -0.21201202602026262 1 I I #
face $-1 $-1 $475 $65 $-1 $640 forward single #
loop $-1 $-1 $641 $309 #
plane-surface $-1 75.422223578600423 0 0 -1 0 0 0 0 1 forward_v I I I I #
coedge $-1 $642 $643 $644 $645 reversed $310 $-1 #
coedge $-1 $646 $312 $314 $473 forward $195 $-1 #
coedge $-1 $312 $646 $642 $647 forward $195 $-1 #
coedge $-1 $644 $315 $312 $470 forward $475 $-1 #
edge $-1 $477 -21.071727555665316 $648 -13.239299310915609 $469 $649 forward 7 unknown #
coedge $-1 $650 $651 $313 $472 forward $464 $-1 #
edge $-1 $652 -98.153214706604388 $476 -92.238871807038734 $471 $653 forward 7 unknown #
edge $-1 $477 143.87038180512454 $652 150.84444715720085 $314 $654 forward 7 unknown #
coedge $-1 $315 $644 $650 $655 forward $475 $-1 #
loop $-1 $-1 $644 $463 #
vertex $-1 $472 $656 #
vertex $-1 $316 $657 #
straight-curve $-1 61.705097231613628 38.227240988955778 17.466637447366807 -1 0 0 I I #
coedge $-1 $479 $479 $-1 $658 reversed $319 $-1 #
edge $-1 $659 0 $659 6.2831853071796004 $320 $660 forward 7 unknown #
vertex $-1 $323 $661 #
ellipse-curve $-1 73.574377832779845 32.632649385563134 14.509465997583995 0.84804810408105047 0 0.52991925155115449 0.13247981288778862 0 -0.21201202602026262 1 I I #
coedge $-1 $483 $483 $-1 $662 reversed $326 $-1 #
edge $-1 $663 0 $663 6.2831853071796004 $327 $664 forward 7 unknown #
vertex $-1 $330 $665 #
ellipse-curve $-1 73.574377832779845 35.989404347598715 14.509465997583995 0.84804810408105047 0 0.52991925155115449 0.13247981288778862 0 -0.21201202602026262 1 I I #
face $-1 $-1 $499 $68 $-1 $666 forward single #
loop $-1 $-1 $667 $331 #
plane-surface $-1 -75.422223578600423 0 0 1 0 0 0 0 -1 forward_v I I I I #
coedge $-1 $668 $669 $670 $671 reversed $332 $-1 #
coedge $-1 $672 $334 $336 $497 forward $209 $-1 #
coedge $-1 $334 $672 $668 $673 forward $209 $-1 #
coedge $-1 $670 $337 $334 $494 forward $499 $-1 #
edge $-1 $501 -11.500140147657259 $674 1.5155294186489563 $493 $675 forward 7 unknown #
coedge $-1 $676 $677 $335 $496 forward $488 $-1 #
edge $-1 $678 -64.201890301498082 $500 -48.96659492569691 $495 $679 forward 7 unknown #
edge $-1 $501 -30.47059034337342 $678 1.6303764080091705e-014 $336 $680 forward 7 unknown #
coedge $-1 $337 $670 $676 $681 forward $499 $-1 #
loop $-1 $-1 $670 $487 #
vertex $-1 $496 $682 #
vertex $-1 $338 $683 #
straight-curve $-1 -75.42222408383401 -16.49244551216141 17.466637447366807 1 0 0 I I #
coedge $-1 $503 $503 $-1 $684 reversed $341 $-1 #
edge $-1 $685 0 $685 6.2831853071796004 $342 $686 forward 7 unknown #
vertex $-1 $345 $687 #
ellipse-curve $-1 -62.228070984688095 -13.889311598900168 9.8489897594662228 -0.50000000669873634 0 0.8660253999169214 0.8660253999169214 0 0.50000000669873634 1 I I #
coedge $-1 $507 $507 $-1 $688 reversed $348 $-1 #
edge $-1 $689 0 $689 6.2831853071796004 $349 $690 forward 7 unknown #
vertex $-1 $352 $691 #
ellipse-curve $-1 -62.228070984688095 -9.9846107290083026 9.8489897594662228 -0.50000000669873634 0 0.8660253999169214 0.8660253999169214 0 0.50000000669873634 1 I I #
coedge $-1 $511 $511 $-1 $692 reversed $355 $-1 #
edge $-1 $693 0 $693 6.2831853071796004 $356 $694 forward 7 unknown #
vertex $-1 $359 $695 #
ellipse-curve $-1 -62.228070984688095 -6.0799098591164409 9.8489897594662228 -0.50000000669873634 0 0.8660253999169214 0.8660253999169214 0 0.50000000669873634 1 I I #
face $-1 $-1 $527 $54 $-1 $696 reversed single #
loop $-1 $-1 $697 $360 #
plane-surface $-1 0 45.705172352930667 0 0 -1 0 0 0 -1 forward_v I I I I #
coedge $-1 $533 $532 $698 $699 forward $361 $-1 #
coedge $-1 $363 $373 $700 $701 forward $228 $-1 #
coedge $-1 $526 $369 $363 $521 reversed $527 $-1 #
edge $-1 $702 -45.705172352930667 $374 45.705172352930667 $520 $703 forward 7 unknown #
coedge $-1 $365 $364 $532 $704 forward $145 $-1 #
coedge $-1 $697 $698 $364 $524 reversed $516 $-1 #
edge $-1 $529 -75.422223578600423 $705 75.422223578600423 $523 $706 forward 7 unknown #
edge $-1 $534 -75.422223578600423 $528 75.422223578600423 $368 $707 forward 7 unknown #
coedge $-1 $366 $520 $697 $708 reversed $527 $-1 #
loop $-1 $-1 $369 $515 #
vertex $-1 $367 $709 #
vertex $-1 $367 $710 #
straight-curve $-1 75.422223578600423 0 17.466637447366811 0 1 0 I I #
straight-curve $-1 75.422223578600423 -45.705172352930667 0 0 0 -1 I I #
coedge $-1 $518 $371 $522 $704 reversed $361 $-1 #
coedge $-1 $371 $518 $373 $536 reversed $361 $-1 #
vertex $-1 $704 $711 #
straight-curve $-1 -75.422223578600423 -45.705172352930667 0 0 0 -1 I I #
edge $-1 $375 -45.705172352930667 $712 45.705172352930667 $533 $713 forward 7 unknown #
point $-1 75.422223578600423 -45.705172352930667 -17.466637447366811 #
point $-1 -75.422223578600423 -45.705172352930667 -17.466637447366811 #
face $-1 $-1 $556 $55 $-1 $714 forward single #
loop $-1 $-1 $715 $377 #
plane-surface $-1 -40.488948683866795 -55.870566645566029 0 -1 0 0 0 0 1 forward_v I I I I #
coedge $-1 $716 $380 $546 $717 reversed $236 $-1 #
coedge $-1 $380 $716 $718 $719 reversed $236 $-1 #
coedge $-1 $388 $387 $380 $545 reversed $378 $-1 #
edge $-1 $720 -17.466637447366811 $721 17.466637447366811 $544 $722 forward 7 unknown #
coedge $-1 $382 $381 $542 $717 forward $149 $-1 #
coedge $-1 $552 $715 $381 $548 reversed $540 $-1 #
edge $-1 $550 -10.165394292635369 $723 10.165394292635369 $547 $724 forward 7 unknown #
edge $-1 $721 -10.165394292635369 $389 10.165394292635369 $387 $725 forward 7 unknown #
vertex $-1 $548 $726 #
straight-curve $-1 0 -45.705172352930667 -17.466637447366811 1 0 0 I I #
coedge $-1 $727 $547 $384 $553 reversed $540 $-1 #
edge $-1 $557 -17.466637447366811 $550 17.466637447366811 $552 $728 forward 7 unknown #
coedge $-1 $718 $385 $388 $559 forward $556 $-1 #
coedge $-1 $385 $718 $727 $729 forward $556 $-1 #
loop $-1 $-1 $385 $539 #
vertex $-1 $386 $730 #
straight-curve $-1 0 -45.705172352930667 17.466637447366811 -1 0 0 I I #
edge $-1 $390 -10.165394292635369 $720 10.165394292635369 $388 $731 forward 7 unknown #
point $-1 -48.837134635074165 -45.70517235293066 -17.466637447366811 #
point $-1 -48.837134635074165 -45.70517235293066 17.466637447366811 #
loop $-1 $-1 $400 $392 #
plane-surface $-1 75.422223578600423 0 0 -1 0 0 0 0 1 forward_v I I I I #
coedge $-1 $565 $395 $397 $569 reversed $244 $-1 #
coedge $-1 $395 $564 $732 $733 reversed $244 $-1 #
coedge $-1 $403 $398 $395 $567 forward $393 $-1 #
edge $-1 $570 10.021434855345682 $734 13.717126346986795 $566 $735 forward 7 unknown #
coedge $-1 $397 $396 $573 $736 reversed $153 $-1 #
edge $-1 $737 -150.84444715720085 $570 -143.87038180512454 $564 $738 forward 7 unknown #
vertex $-1 $399 $739 #
straight-curve $-1 71.72653208695931 -9.4993201119310164 17.466637447366807 0 -1 0 I I #
coedge $-1 $732 $400 $403 $577 reversed $562 $-1 #
coedge $-1 $400 $732 $568 $736 forward $562 $-1 #
vertex $-1 $401 $740 #
straight-curve $-1 75.422223578600423 -15.082426101487181 109.70550925440554 0 0 1 I I #
straight-curve $-1 -4.5131529595911246 -15.082426101487181 139.47564197061953 0.52991925155115449 0 -0.84804810408105047 I I #
edge $-1 $734 -22.914854346236886 $404 -15.082426101487181 $572 $741 forward 7 unknown #
point $-1 75.422223578600423 -15.082426101487181 17.466637447366811 #
point $-1 71.72653208695931 -15.082426101487181 17.466637447366807 #
edge $-1 $742 1 $742 0 $407 $-1 forward 7 unknown #
vertex $-1 $408 $743 #
ellipse-curve $-1 72.726329728698786 -20.677017704879823 13.979546746032831 0.84804810408105047 0 0.52991925155115449 0.13247981288778862 0 -0.21201202602026262 1 I I #
point $-1 73.706857645667625 -20.677017704879823 14.297453971563723 #
edge $-1 $744 1 $744 0 $411 $-1 forward 7 unknown #
vertex $-1 $412 $745 #
ellipse-curve $-1 72.726329728698786 -17.320262742844236 13.979546746032831 0.84804810408105047 0 0.52991925155115449 0.13247981288778862 0 -0.21201202602026262 1 I I #
point $-1 73.706857645667625 -17.320262742844236 14.297453971563723 #
plane-surface $-1 0 0 17.466637447366811 0 0 1 1 0 0 forward_v I I I I #
coedge $-1 $599 $598 $591 $746 forward $416 $-1 #
coedge $-1 $591 $418 $420 $595 reversed $266 $-1 #
coedge $-1 $418 $590 $589 $746 reversed $266 $-1 #
coedge $-1 $426 $421 $418 $593 forward $427 $-1 #
edge $-1 $596 10.021434855345682 $747 13.717126346986795 $592 $748 forward 7 unknown #
coedge $-1 $420 $419 $599 $749 reversed $167 $-1 #
edge $-1 $750 -150.84444715720085 $596 -143.87038180512454 $590 $751 forward 7 unknown #
vertex $-1 $422 $752 #
straight-curve $-1 71.72653208695931 -0.61437559685719023 17.466637447366807 0 -1 0 I I #
coedge $-1 $589 $423 $426 $603 reversed $416 $-1 #
coedge $-1 $423 $589 $594 $749 forward $416 $-1 #
vertex $-1 $424 $753 #
straight-curve $-1 75.422223578600423 2.6874629286604712 109.70550925440554 0 0 1 I I #
straight-curve $-1 -4.5131529595911246 2.6874629286604712 139.47564197061953 0.52991925155115449 0 -0.84804810408105047 I I #
edge $-1 $747 -5.1449653160892321 $428 2.6874629286604712 $598 $754 forward 7 unknown #
point $-1 75.422223578600423 2.6874629286604712 17.466637447366811 #
point $-1 71.72653208695931 2.6874629286604712 17.466637447366807 #
edge $-1 $755 1 $755 0 $431 $-1 forward 7 unknown #
vertex $-1 $432 $756 #
ellipse-curve $-1 72.726329728698786 -2.9071286747321707 13.979546746032831 0.84804810408105047 0 0.52991925155115449 0.13247981288778862 0 -0.21201202602026262 1 I I #
point $-1 73.706857645667625 -2.9071286747321707 14.297453971563723 #
edge $-1 $757 1 $757 0 $435 $-1 forward 7 unknown #
vertex $-1 $436 $758 #
ellipse-curve $-1 72.726329728698786 0.44962628730341692 13.979546746032831 0.84804810408105047 0 0.52991925155115449 0.13247981288778862 0 -0.21201202602026262 1 I I #
point $-1 73.706857645667625 0.44962628730341692 14.297453971563723 #
plane-surface $-1 0 0 17.466637447366811 0 0 1 1 0 0 forward_v I I I I #
coedge $-1 $625 $624 $617 $759 forward $440 $-1 #
coedge $-1 $617 $442 $444 $621 reversed $288 $-1 #
coedge $-1 $442 $616 $615 $759 reversed $288 $-1 #
coedge $-1 $450 $445 $442 $619 forward $451 $-1 #
edge $-1 $622 10.021434855345682 $760 13.717126346986795 $618 $761 forward 7 unknown #
coedge $-1 $444 $443 $625 $762 reversed $181 $-1 #
edge $-1 $763 -150.84444715720085 $622 -143.87038180512454 $616 $764 forward 7 unknown #
vertex $-1 $446 $765 #
straight-curve $-1 71.72653208695931 8.270568918216636 17.466637447366807 0 -1 0 I I #
coedge $-1 $615 $447 $450 $629 reversed $440 $-1 #
coedge $-1 $447 $615 $620 $762 forward $440 $-1 #
vertex $-1 $448 $766 #
straight-curve $-1 75.422223578600423 20.457351958808125 109.70550925440554 0 0 1 I I #
straight-curve $-1 -4.5131529595911246 20.457351958808125 139.47564197061953 0.52991925155115449 0 -0.84804810408105047 I I #
edge $-1 $760 12.62492371405842 $452 20.457351958808125 $624 $767 forward 7 unknown #
point $-1 75.422223578600423 20.457351958808125 17.466637447366811 #
point $-1 71.72653208695931 20.457351958808125 17.466637447366807 #
edge $-1 $768 1 $768 0 $455 $-1 forward 7 unknown #
vertex $-1 $456 $769 #
ellipse-curve $-1 72.726329728698786 14.862760355415482 13.979546746032831 0.84804810408105047 0 0.52991925155115449 0.13247981288778862 0 -0.21201202602026262 1 I I #
point $-1 73.706857645667625 14.862760355415482 14.297453971563723 #
edge $-1 $770 1 $770 0 $459 $-1 forward 7 unknown #
vertex $-1 $460 $771 #
ellipse-curve $-1 72.726329728698786 18.219515317451069 13.979546746032831 0.84804810408105047 0 0.52991925155115449 0.13247981288778862 0 -0.21201202602026262 1 I I #
point $-1 73.706857645667625 18.219515317451069 14.297453971563723 #
plane-surface $-1 0 0 17.466637447366811 0 0 1 1 0 0 forward_v I I I I #
coedge $-1 $651 $650 $643 $772 forward $464 $-1 #
coedge $-1 $643 $466 $468 $647 reversed $310 $-1 #
coedge $-1 $466 $642 $641 $772 reversed $310 $-1 #
coedge $-1 $474 $469 $466 $645 forward $475 $-1 #
edge $-1 $648 10.021434855345682 $773 13.717126346986795 $644 $774 forward 7 unknown #
coedge $-1 $468 $467 $651 $775 reversed $195 $-1 #
edge $-1 $776 -150.84444715720085 $648 -143.87038180512454 $642 $777 forward 7 unknown #
vertex $-1 $470 $778 #
straight-curve $-1 71.72653208695931 17.155513433290462 17.466637447366807 0 -1 0 I I #
coedge $-1 $641 $471 $474 $655 reversed $464 $-1 #
coedge $-1 $471 $641 $646 $775 forward $464 $-1 #
vertex $-1 $472 $779 #
straight-curve $-1 75.422223578600423 38.227240988955778 109.70550925440554 0 0 1 I I #
straight-curve $-1 -4.5131529595911246 38.227240988955778 139.47564197061953 0.52991925155115449 0 -0.84804810408105047 I I #
edge $-1 $773 30.394812744206071 $476 38.227240988955778 $650 $780 forward 7 unknown #
point $-1 75.422223578600423 38.227240988955778 17.466637447366811 #
point $-1 71.72653208695931 38.227240988955778 17.466637447366807 #
edge $-1 $781 1 $781 0 $479 $-1 forward 7 unknown #
vertex $-1 $480 $782 #
ellipse-curve $-1 72.726329728698786 32.632649385563134 13.979546746032831 0.84804810408105047 0 0.52991925155115449 0.13247981288778862 0 -0.21201202602026262 1 I I #
point $-1 73.706857645667625 32.632649385563134 14.297453971563723 #
edge $-1 $783 1 $783 0 $483 $-1 forward 7 unknown #
vertex $-1 $484 $784 #
ellipse-curve $-1 72.726329728698786 35.989404347598715 13.979546746032831 0.84804810408105047 0 0.52991925155115449 0.13247981288778862 0 -0.21201202602026262 1 I I #
point $-1 73.706857645667625 35.989404347598715 14.297453971563723 #
plane-surface $-1 0 0 17.466637447366811 0 0 1 1 0 0 forward_v I I I I #
coedge $-1 $677 $676 $669 $785 forward $488 $-1 #
coedge $-1 $669 $490 $492 $673 reversed $332 $-1 #
coedge $-1 $490 $668 $667 $785 reversed $332 $-1 #
coedge $-1 $498 $493 $490 $671 forward $499 $-1 #
edge $-1 $674 -26.38830569305825 $786 -5.0523358652299066e-007 $670 $787 forward 7 unknown #
coedge $-1 $492 $491 $677 $788 reversed $209 $-1 #
edge $-1 $789 -1.6303764080091705e-014 $674 30.47059034337342 $668 $790 forward 7 unknown #
vertex $-1 $494 $791 #
straight-curve $-1 -49.03391839077576 -4.9923053645041513 17.466637447366811 0 1 0 I I #
coedge $-1 $667 $495 $498 $681 reversed $488 $-1 #
coedge $-1 $495 $667 $672 $788 forward $488 $-1 #
vertex $-1 $496 $792 #
straight-curve $-1 -75.422223578600423 -16.49244551216141 66.433232373063717 0 0 1 I I #
straight-curve $-1 -75.422223578600409 -16.49244551216141 2.2313420715656491 -0.8660253999169214 0 -0.50000000669873634 I I #
edge $-1 $786 3.476775945855195 $500 16.49244551216141 $676 $793 forward 7 unknown #
point $-1 -75.422223578600423 -16.49244551216141 17.466637447366811 #
point $-1 -49.03391839077576 -16.49244551216141 17.466637447366811 #
edge $-1 $794 1 $794 0 $503 $-1 forward 7 unknown #
vertex $-1 $504 $795 #
ellipse-curve $-1 -60.614343737505934 -13.889311598900168 7.0539322277174001 -0.50000000669873634 0 0.8660253999169214 0.8660253999169214 0 0.50000000669873634 1 I I #
point $-1 -61.362045584771181 -13.889311598900168 10.348989766164973 #
edge $-1 $796 1 $796 0 $507 $-1 forward 7 unknown #
vertex $-1 $508 $797 #
ellipse-curve $-1 -60.614343737505934 -9.9846107290083026 7.0539322277174001 -0.50000000669873634 0 0.8660253999169214 0.8660253999169214 0 0.50000000669873634 1 I I #
point $-1 -61.362045584771181 -9.9846107290083026 10.348989766164973 #
edge $-1 $798 1 $798 0 $511 $-1 forward 7 unknown #
vertex $-1 $512 $799 #
ellipse-curve $-1 -60.614343737505934 -6.0799098591164409 7.0539322277174001 -0.50000000669873634 0 0.8660253999169214 0.8660253999169214 0 0.50000000669873634 1 I I #
point $-1 -61.362045584771181 -6.0799098591164409 10.348989766164973 #
plane-surface $-1 75.422223578600423 0 0 -1 0 0 0 0 1 forward_v I I I I #
coedge $-1 $700 $523 $526 $708 forward $516 $-1 #
coedge $-1 $523 $700 $518 $699 reversed $516 $-1 #
edge $-1 $705 -17.466637447366811 $712 17.466637447366811 $698 $800 forward 7 unknown #
coedge $-1 $698 $697 $519 $701 reversed $516 $-1 #
edge $-1 $712 -75.422223578600423 $702 75.422223578600423 $700 $801 forward 7 unknown #
vertex $-1 $521 $802 #
straight-curve $-1 75.422223578600423 0 -17.466637447366811 0 -1 0 I I #
edge $-1 $705 -45.705172352930667 $534 45.705172352930667 $532 $803 forward 7 unknown #
vertex $-1 $524 $804 #
straight-curve $-1 0 45.705172352930667 17.466637447366811 -1 0 0 I I #
straight-curve $-1 0 -45.705172352930667 17.466637447366811 1 0 0 I I #
edge $-1 $529 -17.466637447366811 $702 17.466637447366811 $526 $805 forward 7 unknown #
point $-1 75.422223578600423 -45.705172352930667 17.466637447366811 #
point $-1 75.422223578600423 45.705172352930667 17.466637447366811 #
point $-1 -75.422223578600423 -45.705172352930667 17.466637447366811 #
vertex $-1 $701 $806 #
straight-curve $-1 -75.422223578600423 0 -17.466637447366811 0 1 0 I I #
plane-surface $-1 0 0 17.466637447366811 0 0 1 1 0 0 forward_v I I I I #
coedge $-1 $547 $727 $716 $807 forward $540 $-1 #
coedge $-1 $543 $542 $715 $807 reversed $236 $-1 #
edge $-1 $723 -4.1740929756036849 $721 4.1740929756036849 $542 $808 forward 7 unknown #
coedge $-1 $555 $554 $543 $719 forward $556 $-1 #
edge $-1 $720 -4.1740929756036849 $809 4.1740929756036849 $543 $810 forward 7 unknown #
vertex $-1 $559 $811 #
vertex $-1 $549 $812 #
straight-curve $-1 -48.837134635074165 -66.035960938201399 0 0 0 -1 I I #
vertex $-1 $807 $813 #
straight-curve $-1 -40.488948683866795 -55.870566645566029 -17.466637447366811 0 -1 0 I I #
straight-curve $-1 -48.837134635074165 -55.870566645566029 -17.466637447366811 0 1 0 I I #
point $-1 -40.488948683866795 -45.70517235293066 -17.466637447366811 #
coedge $-1 $715 $552 $555 $729 reversed $540 $-1 #
straight-curve $-1 -40.488948683866795 -45.705172352930667 0 0 0 -1 I I #
edge $-1 $809 -10.165394292635369 $557 10.165394292635369 $727 $814 forward 7 unknown #
point $-1 -40.488948683866795 -45.70517235293066 17.466637447366811 #
straight-curve $-1 -48.837134635074165 -55.870566645566029 17.466637447366811 0 -1 0 I I #
coedge $-1 $573 $572 $565 $733 forward $562 $-1 #
edge $-1 $734 92.238871807038734 $737 98.153214706604388 $732 $815 forward 7 unknown #
vertex $-1 $577 $816 #
straight-curve $-1 61.705097231613628 -22.914854346236886 17.466637447366807 1 0 0 I I #
edge $-1 $737 -13.41553423430587 $574 -5.5831059895561648 $573 $817 forward 7 unknown #
vertex $-1 $736 $818 #
straight-curve $-1 -4.5131529595911246 -22.914854346236886 139.47564197061953 -0.52991925155115449 0 0.84804810408105047 I I #
point $-1 71.72653208695931 -22.914854346236886 17.466637447366807 #
point $-1 75.422223578600423 -15.082426101487181 11.552294547801154 #
straight-curve $-1 75.422223578600423 0 17.466637447366811 0 1 0 I I #
vertex $-1 $580 $819 #
point $-1 72.858809541586581 -20.677017704879823 13.76753472001257 #
vertex $-1 $584 $820 #
point $-1 72.858809541586581 -17.320262742844236 13.76753472001257 #
edge $-1 $747 92.238871807038734 $750 98.153214706604388 $589 $821 forward 7 unknown #
vertex $-1 $603 $822 #
straight-curve $-1 61.705097231613628 -5.1449653160892321 17.466637447366807 1 0 0 I I #
edge $-1 $750 -4.5305897192320419 $600 3.3018385255176614 $599 $823 forward 7 unknown #
vertex $-1 $749 $824 #
straight-curve $-1 -4.5131529595911246 -5.1449653160892321 139.47564197061953 -0.52991925155115449 0 0.84804810408105047 I I #
point $-1 71.72653208695931 -5.1449653160892321 17.466637447366807 #
point $-1 75.422223578600423 2.6874629286604712 11.552294547801154 #
straight-curve $-1 75.422223578600423 0 17.466637447366811 0 1 0 I I #
vertex $-1 $606 $825 #
point $-1 72.858809541586581 -2.9071286747321707 13.76753472001257 #
vertex $-1 $610 $826 #
point $-1 72.858809541586581 0.44962628730341692 13.76753472001257 #
edge $-1 $760 92.238871807038734 $763 98.153214706604388 $615 $827 forward 7 unknown #
vertex $-1 $629 $828 #
straight-curve $-1 61.705097231613628 12.62492371405842 17.466637447366807 1 0 0 I I #
edge $-1 $763 4.3543547958417843 $626 12.186783040591489 $625 $829 forward 7 unknown #
vertex $-1 $762 $830 #
straight-curve $-1 -4.5131529595911246 12.62492371405842 139.47564197061953 -0.52991925155115449 0 0.84804810408105047 I I #
point $-1 71.72653208695931 12.62492371405842 17.466637447366807 #
point $-1 75.422223578600423 20.457351958808125 11.552294547801154 #
straight-curve $-1 75.422223578600423 0 17.466637447366811 0 1 0 I I #
vertex $-1 $632 $831 #
point $-1 72.858809541586581 14.862760355415482 13.76753472001257 #
vertex $-1 $636 $832 #
point $-1 72.858809541586581 18.219515317451069 13.76753472001257 #
edge $-1 $773 92.238871807038734 $776 98.153214706604388 $641 $833 forward 7 unknown #
vertex $-1 $655 $834 #
straight-curve $-1 61.705097231613628 30.394812744206071 17.466637447366807 1 0 0 I I #
edge $-1 $776 13.239299310915609 $652 21.071727555665316 $651 $835 forward 7 unknown #
vertex $-1 $775 $836 #
straight-curve $-1 -4.5131529595911246 30.394812744206071 139.47564197061953 -0.52991925155115449 0 0.84804810408105047 I I #
point $-1 71.72653208695931 30.394812744206071 17.466637447366807 #
point $-1 75.422223578600423 38.227240988955778 11.552294547801154 #
straight-curve $-1 75.422223578600423 0 17.466637447366811 0 1 0 I I #
vertex $-1 $658 $837 #
point $-1 72.858809541586581 32.632649385563134 13.76753472001257 #
vertex $-1 $662 $838 #
point $-1 72.858809541586581 35.989404347598715 13.76753472001257 #
edge $-1 $786 48.96659492569691 $789 64.201890301498082 $667 $839 forward 7 unknown #
vertex $-1 $681 $840 #
straight-curve $-1 -75.42222408383401 -3.476775945855195 17.466637447366807 -1 0 0 I I #
edge $-1 $789 -1.5155294186489563 $678 11.500140147657259 $677 $841 forward 7 unknown #
vertex $-1 $788 $842 #
straight-curve $-1 -75.422223578600409 -3.476775945855195 2.2313420715656491 0.8660253999169214 0 0.50000000669873634 I I #
point $-1 -49.03391839077576 -3.476775945855195 17.466637447366811 #
point $-1 -75.422223578600423 -16.49244551216141 2.2313420715656411 #
straight-curve $-1 -75.422223578600423 0 17.466637447366811 0 -1 0 I I #
vertex $-1 $684 $843 #
point $-1 -59.748318337589012 -13.889311598900168 7.5539322344161368 #
vertex $-1 $688 $844 #
point $-1 -59.748318337589012 -9.9846107290083026 7.5539322344161368 #
vertex $-1 $692 $845 #
point $-1 -59.748318337589012 -6.0799098591164409 7.5539322344161368 #
straight-curve $-1 -75.422223578600423 45.705172352930667 0 0 0 -1 I I #
straight-curve $-1 0 45.705172352930667 -17.466637447366811 1 0 0 I I #
point $-1 75.422223578600423 45.705172352930667 -17.466637447366811 #
straight-curve $-1 -75.422223578600423 0 17.466637447366811 0 -1 0 I I #
point $-1 -75.422223578600423 45.705172352930667 17.466637447366811 #
straight-curve $-1 75.422223578600423 45.705172352930667 0 0 0 -1 I I #
point $-1 -75.422223578600423 45.705172352930667 -17.466637447366811 #
edge $-1 $809 -17.466637447366811 $723 17.466637447366811 $715 $846 forward 7 unknown #
straight-curve $-1 -44.66304165947048 -66.035960938201399 -17.466637447366811 -1 0 0 I I #
vertex $-1 $729 $847 #
straight-curve $-1 -44.66304165947048 -66.035960938201399 17.466637447366811 1 0 0 I I #
point $-1 -48.837134635074165 -66.035960938201399 17.466637447366811 #
point $-1 -48.837134635074165 -66.035960938201399 -17.466637447366811 #
point $-1 -40.488948683866795 -66.035960938201399 -17.466637447366811 #
straight-curve $-1 -40.488948683866795 -55.870566645566029 17.466637447366811 0 1 0 I I #
straight-curve $-1 75.422223578600423 -22.914854346236886 109.70550925440554 0 0 -1 I I #
point $-1 75.422223578600423 -22.914854346236886 17.466637447366811 #
straight-curve $-1 75.422223578600409 -9.4993201119310164 11.552294547801168 0 1 0 I I #
point $-1 75.422223578600423 -22.914854346236886 11.552294547801154 #
point $-1 72.514317702678525 -20.677017704879823 13.847066933145044 #
point $-1 72.514317702678525 -17.320262742844236 13.847066933145044 #
straight-curve $-1 75.422223578600423 -5.1449653160892321 109.70550925440554 0 0 -1 I I #
point $-1 75.422223578600423 -5.1449653160892321 17.466637447366811 #
straight-curve $-1 75.422223578600409 -0.61437559685719023 11.552294547801168 0 1 0 I I #
point $-1 75.422223578600423 -5.1449653160892321 11.552294547801154 #
point $-1 72.514317702678525 -2.9071286747321707 13.847066933145044 #
point $-1 72.514317702678525 0.44962628730341692 13.847066933145044 #
straight-curve $-1 75.422223578600423 12.62492371405842 109.70550925440554 0 0 -1 I I #
point $-1 75.422223578600423 12.62492371405842 17.466637447366811 #
straight-curve $-1 75.422223578600409 8.270568918216636 11.552294547801168 0 1 0 I I #
point $-1 75.422223578600423 12.62492371405842 11.552294547801154 #
point $-1 72.514317702678525 14.862760355415482 13.847066933145044 #
point $-1 72.514317702678525 18.219515317451069 13.847066933145044 #
straight-curve $-1 75.422223578600423 30.394812744206071 109.70550925440554 0 0 -1 I I #
point $-1 75.422223578600423 30.394812744206071 17.466637447366811 #
straight-curve $-1 75.422223578600409 17.155513433290462 11.552294547801168 0 1 0 I I #
point $-1 75.422223578600423 30.394812744206071 11.552294547801154 #
point $-1 72.514317702678525 32.632649385563134 13.847066933145044 #
point $-1 72.514317702678525 35.989404347598715 13.847066933145044 #
straight-curve $-1 -75.422223578600423 -3.476775945855195 66.433232373063717 0 0 -1 I I #
point $-1 -75.422223578600423 -3.476775945855195 17.466637447366811 #
straight-curve $-1 -75.422223578600423 -4.9923053645041513 2.2313420715656345 0 -1 0 I I #
point $-1 -75.422223578600423 -3.476775945855195 2.2313420715656411 #
point $-1 -60.114343730807192 -13.889311598900168 6.1879068278004787 #
point $-1 -60.114343730807192 -9.9846107290083026 6.1879068278004787 #
point $-1 -60.114343730807192 -6.0799098591164409 6.1879068278004787 #
straight-curve $-1 -40.488948683866795 -66.035960938201399 0 0 0 -1 I I #
point $-1 -40.488948683866795 -66.035960938201399 17.466637447366811 #
End-of-ACIS-data 