500 0 6 0           
7 Unknown 11 ACIS 5.0 NT 24 Fri Mar 26 18:24:56 1999 
-1 9.9999999999999995e-007 1e-010 
body $-1 $6 $-1 $7 #
body $-1 $8 $-1 $9 #
body $-1 $10 $-1 $11 #
body $-1 $12 $-1 $13 #
body $-1 $14 $-1 $15 #
body $-1 $16 $-1 $17 #
lump $-1 $-1 $18 $0 #
transform $-1 1 0 0 0 1 0 0 0 1 67.373882259590445 33.705857714065623 16.066626856952496 1 rotate no_reflect no_shear #
lump $-1 $-1 $19 $1 #
transform $-1 1 0 0 0 1 0 0 0 1 67.373882259590445 33.705857714065623 16.066626856952496 1 rotate no_reflect no_shear #
lump $-1 $-1 $20 $2 #
transform $-1 1 0 0 0 1 0 0 0 1 67.373882259590445 33.705857714065623 16.066626856952496 1 rotate no_reflect no_shear #
lump $-1 $-1 $21 $3 #
transform $-1 1 0 0 0 1 0 0 0 1 67.373882259590445 33.705857714065623 16.066626856952496 1 rotate no_reflect no_shear #
lump $-1 $-1 $22 $4 #
transform $-1 1 0 0 0 1 0 0 0 1 67.373882259590445 33.705857714065623 16.066626856952496 1 rotate no_reflect no_shear #
lump $-1 $-1 $23 $5 #
transform $-1 1 0 0 0 1 0 0 0 1 67.373882259590445 33.705857714065623 16.066626856952496 1 rotate no_reflect no_shear #
shell $-1 $-1 $-1 $24 $-1 $6 #
shell $-1 $-1 $-1 $25 $-1 $8 #
shell $-1 $-1 $-1 $26 $-1 $10 #
shell $-1 $-1 $-1 $27 $-1 $12 #
shell $-1 $-1 $-1 $28 $-1 $14 #
shell $-1 $-1 $-1 $29 $-1 $16 #
face $-1 $30 $31 $18 $-1 $32 forward single #
face $-1 $33 $34 $19 $-1 $35 forward single #
face $-1 $36 $37 $20 $-1 $38 reversed single #
face $-1 $39 $40 $21 $-1 $41 forward single #
face $-1 $42 $43 $22 $-1 $44 forward single #
face $-1 $45 $46 $23 $-1 $47 forward single #
face $-1 $48 $49 $18 $-1 $50 reversed single #
loop $-1 $-1 $51 $24 #
plane-surface $-1 0 0 16.066626856952496 0 0 1 1 0 0 forward_v I I I I #
face $-1 $52 $53 $19 $-1 $54 reversed single #
loop $-1 $-1 $55 $25 #
plane-surface $-1 0 -27.110533621915085 15.566626856952496 0 0 1 1 0 0 forward_v I I I I #
face $-1 $56 $57 $20 $-1 $58 reversed single #
loop $-1 $-1 $59 $26 #
plane-surface $-1 -53.800399817629049 98.385750829409972 138.87836029642511 1 0 0 0 -0.78801076186113728 -0.61566146476048833 forward_v I I I I #
face $-1 $60 $61 $21 $-1 $62 forward single #
loop $-1 $63 $64 $27 #
cone-surface $-1 -47.801128485299202 27.121340933253933 8.3375962847906848 0 -0.78801076186113728 -0.61566146476048833 2.5 0 0 1 I I 0 1 2.5 forward I I I I #
face $-1 $65 $66 $22 $-1 $67 forward single #
loop $-1 $68 $69 $28 #
cone-surface $-1 -38.80222148680442 27.121340933253933 8.3375962847906848 0 -0.78801076186113728 -0.61566146476048833 2.5 0 0 1 I I 0 1 2.5 forward I I I I #
face $-1 $70 $71 $23 $-1 $72 forward single #
loop $-1 $73 $74 $29 #
cone-surface $-1 -29.803314488309638 27.121340933253933 8.3375962847906848 0 -0.78801076186113728 -0.61566146476048833 2.5 0 0 1 I I 0 1 2.5 forward I I I I #
face $-1 $75 $76 $18 $-1 $77 reversed single #
loop $-1 $-1 $78 $30 #
plane-surface $-1 0 0 -16.066626856952496 0 0 1 1 0 0 forward_v I I I I #
coedge $-1 $79 $80 $81 $82 forward $31 $-1 #
face $-1 $83 $84 $19 $-1 $85 reversed single #
loop $-1 $-1 $86 $33 #
plane-surface $-1 0 -27.110533621915085 10.657742060794952 0 0 1 1 0 0 forward_v I I I I #
coedge $-1 $87 $88 $89 $90 reversed $34 $-1 #
face $-1 $91 $92 $20 $-1 $93 reversed single #
loop $-1 $-1 $94 $36 #
plane-surface $-1 -38.80222148680442 -7.7969377484348854 55.919354219344854 0 0.78801076186113728 0.61566146476048833 1 0 0 forward_v I I I I #
coedge $-1 $95 $96 $97 $98 reversed $37 $-1 #
face $-1 $-1 $99 $21 $-1 $100 forward single #
loop $-1 $101 $102 $39 #
cone-surface $-1 -47.801128485299202 24.735027328939346 6.4732038169260235 0 -0.78801076186113728 -0.61566146476048833 1.25 0 0 1 I I -0.70710678118654746 0.70710678118654746 1.25 forward I I I I #
loop $-1 $-1 $103 $27 #
coedge $-1 $64 $64 $104 $105 reversed $40 $-1 #
face $-1 $-1 $106 $22 $-1 $107 forward single #
loop $-1 $108 $109 $42 #
cone-surface $-1 -38.80222148680442 24.735027328939346 6.4732038169260235 0 -0.78801076186113728 -0.61566146476048833 1.25 0 0 1 I I -0.70710678118654746 0.70710678118654746 1.25 forward I I I I #
loop $-1 $-1 $110 $28 #
coedge $-1 $69 $69 $111 $112 reversed $43 $-1 #
face $-1 $-1 $113 $23 $-1 $114 forward single #
loop $-1 $115 $116 $45 #
cone-surface $-1 -29.803314488309638 24.735027328939346 6.4732038169260235 0 -0.78801076186113728 -0.61566146476048833 1.25 0 0 1 I I -0.70710678118654746 0.70710678118654746 1.25 forward I I I I #
loop $-1 $-1 $117 $29 #
coedge $-1 $74 $74 $118 $119 reversed $46 $-1 #
face $-1 $120 $121 $18 $-1 $122 reversed single #
loop $-1 $-1 $123 $48 #
plane-surface $-1 0 -33.705857714065623 0 0 1 0 0 0 1 forward_v I I I I #
coedge $-1 $124 $125 $126 $127 forward $49 $-1 #
coedge $-1 $128 $51 $129 $130 forward $31 $-1 #
coedge $-1 $51 $128 $131 $132 forward $31 $-1 #
coedge $-1 $133 $134 $51 $82 reversed $135 $-1 #
edge $-1 $136 -33.705857714065623 $137 33.705857714065623 $81 $138 forward 7 unknown #
face $-1 $139 $140 $19 $-1 $141 reversed single #
loop $-1 $-1 $142 $52 #
plane-surface $-1 0 -20.515209529764547 13.112184458873724 0 -1 0 0 0 -1 forward_v I I I I #
coedge $-1 $143 $144 $145 $146 reversed $53 $-1 #
coedge $-1 $147 $55 $148 $149 forward $34 $-1 #
coedge $-1 $55 $147 $150 $151 reversed $34 $-1 #
coedge $-1 $152 $153 $55 $90 forward $154 $-1 #
edge $-1 $155 6.9599427188070049 $156 20.150590903108082 $89 $157 forward 7 unknown #
face $-1 $158 $159 $20 $-1 $160 reversed single #
loop $-1 $-1 $161 $56 #
plane-surface $-1 -23.804043155979791 98.385750829409972 138.87836029642511 -1 0 0 0 0.78801076186113728 0.61566146476048833 forward_v I I I I #
coedge $-1 $162 $163 $164 $165 reversed $57 $-1 #
coedge $-1 $96 $59 $166 $167 reversed $37 $-1 #
coedge $-1 $59 $95 $162 $168 reversed $37 $-1 #
coedge $-1 $164 $169 $59 $98 forward $170 $-1 #
edge $-1 $171 15.487017700639363 $172 25.853450958286441 $97 $173 forward 7 unknown #
loop $-1 $-1 $104 $60 #
plane-surface $-1 -38.80222148680442 -7.7969377484348854 55.919354219344854 0 0.78801076186113728 0.61566146476048833 1 0 0 forward_v I I I I #
loop $-1 $-1 $174 $39 #
coedge $-1 $102 $102 $103 $175 reversed $61 $-1 #
coedge $-1 $103 $103 $102 $175 forward $63 $-1 #
coedge $-1 $104 $104 $64 $105 forward $99 $-1 #
edge $-1 $176 -1.2946845689505656e-015 $176 6.2831853071795996 $104 $177 forward 7 unknown #
loop $-1 $-1 $111 $65 #
plane-surface $-1 -38.80222148680442 -7.7969377484348854 55.919354219344854 0 0.78801076186113728 0.61566146476048833 1 0 0 forward_v I I I I #
loop $-1 $-1 $178 $42 #
coedge $-1 $109 $109 $110 $179 reversed $66 $-1 #
coedge $-1 $110 $110 $109 $179 forward $68 $-1 #
coedge $-1 $111 $111 $69 $112 forward $106 $-1 #
edge $-1 $180 -1.2946845689505656e-015 $180 6.2831853071795996 $111 $181 forward 7 unknown #
loop $-1 $-1 $118 $70 #
plane-surface $-1 -38.80222148680442 -7.7969377484348854 55.919354219344854 0 0.78801076186113728 0.61566146476048833 1 0 0 forward_v I I I I #
loop $-1 $-1 $182 $45 #
coedge $-1 $116 $116 $117 $183 reversed $71 $-1 #
coedge $-1 $117 $117 $116 $183 forward $73 $-1 #
coedge $-1 $118 $118 $74 $119 forward $113 $-1 #
edge $-1 $184 -1.2946845689505656e-015 $184 6.2831853071795996 $118 $185 forward 7 unknown #
face $-1 $186 $187 $18 $-1 $188 reversed single #
loop $-1 $-1 $189 $75 #
plane-surface $-1 -67.373882259590445 0 0 1 0 0 0 0 -1 forward_v I I I I #
coedge $-1 $190 $131 $191 $192 forward $76 $-1 #
coedge $-1 $193 $78 $190 $194 forward $49 $-1 #
coedge $-1 $78 $193 $195 $196 forward $49 $-1 #
coedge $-1 $134 $133 $78 $127 reversed $135 $-1 #
edge $-1 $197 -33.705857714065623 $198 33.705857714065623 $126 $199 forward 7 unknown #
coedge $-1 $80 $79 $200 $201 forward $31 $-1 #
coedge $-1 $202 $203 $79 $130 reversed $187 $-1 #
edge $-1 $137 -67.373882259590445 $204 67.373882259590445 $129 $205 forward 7 unknown #
coedge $-1 $123 $206 $80 $132 reversed $76 $-1 #
edge $-1 $207 -67.373882259590445 $136 67.373882259590445 $131 $208 forward 7 unknown #
coedge $-1 $126 $81 $206 $209 forward $135 $-1 #
coedge $-1 $81 $126 $202 $210 reversed $135 $-1 #
loop $-1 $-1 $133 $186 #
vertex $-1 $82 $211 #
vertex $-1 $82 $212 #
straight-curve $-1 67.373882259590445 0 16.066626856952496 0 1 0 I I #
face $-1 $213 $214 $19 $-1 $215 reversed single #
loop $-1 $-1 $216 $83 #
plane-surface $-1 -67.373882259590445 0 0 1 0 0 0 0 -1 forward_v I I I I #
coedge $-1 $217 $148 $153 $218 reversed $84 $-1 #
coedge $-1 $219 $86 $220 $221 reversed $53 $-1 #
coedge $-1 $86 $219 $217 $222 forward $53 $-1 #
coedge $-1 $153 $152 $86 $146 forward $154 $-1 #
edge $-1 $223 -20.150590903108082 $224 -6.9599427188070049 $145 $225 forward 7 unknown #
coedge $-1 $88 $87 $216 $226 reversed $34 $-1 #
coedge $-1 $142 $227 $87 $149 reversed $84 $-1 #
edge $-1 $155 -67.373882259590445 $228 67.373882259590445 $148 $229 forward 7 unknown #
coedge $-1 $230 $231 $88 $151 forward $214 $-1 #
edge $-1 $156 -67.373882259590445 $232 67.373882259590445 $150 $233 forward 7 unknown #
coedge $-1 $145 $89 $231 $234 forward $154 $-1 #
coedge $-1 $89 $145 $142 $218 forward $154 $-1 #
loop $-1 $-1 $89 $213 #
vertex $-1 $90 $235 #
vertex $-1 $234 $236 #
straight-curve $-1 67.373882259590445 -13.555266810957542 15.566626856952496 0 -1 0 I I #
face $-1 $-1 $170 $20 $-1 $237 forward single #
loop $-1 $-1 $238 $91 #
plane-surface $-1 0 33.705857714065623 0 0 -1 0 0 0 -1 forward_v I I I I #
coedge $-1 $239 $240 $241 $242 reversed $92 $-1 #
coedge $-1 $243 $94 $96 $168 forward $57 $-1 #
coedge $-1 $94 $243 $239 $244 forward $57 $-1 #
coedge $-1 $241 $97 $94 $165 forward $170 $-1 #
edge $-1 $172 -34.399289074226843 $245 -4.4029324125775808 $164 $246 forward 7 unknown #
coedge $-1 $247 $248 $95 $167 forward $159 $-1 #
edge $-1 $249 -66.640983161755614 $171 -53.372553291260061 $166 $250 forward 7 unknown #
edge $-1 $172 50.573836413436169 $249 67.411715428131274 $96 $251 forward 7 unknown #
coedge $-1 $97 $241 $247 $252 forward $170 $-1 #
loop $-1 $-1 $241 $158 #
vertex $-1 $167 $253 #
vertex $-1 $98 $254 #
straight-curve $-1 -53.800399817629049 49.192875414704986 16.066626856952496 0 -1 0 I I #
coedge $-1 $174 $174 $-1 $255 reversed $101 $-1 #
edge $-1 $256 0 $256 6.2831853071796004 $102 $257 forward 7 unknown #
vertex $-1 $105 $258 #
ellipse-curve $-1 -47.801128485299202 28.522641085242082 9.4324119217047233 0 0.78801076186113728 0.61566146476048833 2.5 0 0 1 I I #
coedge $-1 $178 $178 $-1 $259 reversed $108 $-1 #
edge $-1 $260 0 $260 6.2831853071796004 $109 $261 forward 7 unknown #
vertex $-1 $112 $262 #
ellipse-curve $-1 -38.80222148680442 28.522641085242082 9.4324119217047233 0 0.78801076186113728 0.61566146476048833 2.5 0 0 1 I I #
coedge $-1 $182 $182 $-1 $263 reversed $115 $-1 #
edge $-1 $264 0 $264 6.2831853071796004 $116 $265 forward 7 unknown #
vertex $-1 $119 $266 #
ellipse-curve $-1 -29.803314488309638 28.522641085242082 9.4324119217047233 0 0.78801076186113728 0.61566146476048833 2.5 0 0 1 I I #
face $-1 $-1 $135 $18 $-1 $267 reversed single #
loop $-1 $-1 $202 $120 #
plane-surface $-1 0 33.705857714065623 0 0 -1 0 0 0 -1 forward_v I I I I #
coedge $-1 $268 $200 $203 $269 forward $121 $-1 #
coedge $-1 $206 $123 $124 $194 reversed $76 $-1 #
coedge $-1 $200 $268 $123 $192 reversed $121 $-1 #
edge $-1 $207 -16.066626856952496 $270 16.066626856952496 $191 $271 forward 7 unknown #
coedge $-1 $125 $124 $268 $272 forward $49 $-1 #
edge $-1 $198 -67.373882259590445 $270 67.373882259590445 $190 $273 forward 7 unknown #
coedge $-1 $203 $202 $125 $196 reversed $187 $-1 #
edge $-1 $274 -67.373882259590445 $197 67.373882259590445 $195 $275 forward 7 unknown #
vertex $-1 $127 $276 #
vertex $-1 $209 $277 #
straight-curve $-1 67.373882259590445 0 -16.066626856952496 0 -1 0 I I #
coedge $-1 $189 $191 $128 $201 reversed $121 $-1 #
edge $-1 $204 -33.705857714065623 $207 33.705857714065623 $200 $278 forward 7 unknown #
coedge $-1 $195 $129 $134 $210 forward $187 $-1 #
coedge $-1 $129 $195 $189 $269 reversed $187 $-1 #
vertex $-1 $130 $279 #
straight-curve $-1 0 33.705857714065623 16.066626856952496 -1 0 0 I I #
coedge $-1 $131 $190 $133 $209 reversed $76 $-1 #
vertex $-1 $201 $280 #
straight-curve $-1 0 -33.705857714065623 16.066626856952496 1 0 0 I I #
edge $-1 $136 -16.066626856952496 $198 16.066626856952496 $133 $281 forward 7 unknown #
edge $-1 $137 -16.066626856952496 $197 16.066626856952496 $134 $282 forward 7 unknown #
point $-1 67.373882259590445 -33.705857714065623 16.066626856952496 #
point $-1 67.373882259590445 33.705857714065623 16.066626856952496 #
face $-1 $-1 $154 $19 $-1 $283 reversed single #
loop $-1 $-1 $150 $139 #
plane-surface $-1 0 -33.705857714065623 0 0 1 0 0 0 1 forward_v I I I I #
coedge $-1 $284 $285 $147 $226 forward $140 $-1 #
coedge $-1 $227 $142 $144 $222 reversed $84 $-1 #
edge $-1 $224 4.10164983135809 $155 9.0105346275156339 $153 $286 forward 7 unknown #
coedge $-1 $144 $143 $287 $288 reversed $53 $-1 #
coedge $-1 $231 $230 $143 $221 forward $214 $-1 #
edge $-1 $289 -67.373882259590445 $223 67.373882259590445 $220 $290 forward 7 unknown #
edge $-1 $291 -67.373882259590445 $224 67.373882259590445 $217 $292 forward 7 unknown #
vertex $-1 $221 $293 #
vertex $-1 $146 $294 #
straight-curve $-1 67.373882259590445 -13.555266810957542 10.657742060794952 0 1 0 I I #
edge $-1 $232 -20.150590903108082 $228 -6.9599427188070049 $216 $295 forward 7 unknown #
coedge $-1 $148 $217 $284 $296 reversed $84 $-1 #
vertex $-1 $226 $297 #
straight-curve $-1 0 -20.515209529764547 15.566626856952496 -1 0 0 I I #
coedge $-1 $220 $150 $285 $298 forward $214 $-1 #
coedge $-1 $150 $220 $152 $234 reversed $214 $-1 #
vertex $-1 $298 $299 #
straight-curve $-1 0 -33.705857714065623 15.566626856952496 -1 0 0 I I #
edge $-1 $156 -15.566626856952496 $223 -10.657742060794952 $152 $300 forward 7 unknown #
point $-1 67.373882259590445 -20.515209529764547 15.566626856952496 #
point $-1 67.373882259590445 -33.705857714065623 15.566626856952496 #
plane-surface $-1 0 0 16.066626856952496 0 0 1 1 0 0 forward_v I I I I #
coedge $-1 $248 $247 $240 $301 forward $159 $-1 #
coedge $-1 $240 $161 $163 $244 reversed $92 $-1 #
coedge $-1 $161 $239 $238 $301 reversed $92 $-1 #
coedge $-1 $169 $164 $161 $242 forward $170 $-1 #
edge $-1 $245 -25.853450958286441 $302 -15.487017700639363 $241 $303 forward 7 unknown #
coedge $-1 $163 $162 $248 $304 reversed $57 $-1 #
edge $-1 $305 -67.411715428131274 $245 -50.573836413436169 $239 $306 forward 7 unknown #
vertex $-1 $165 $307 #
straight-curve $-1 -19.40111074340221 23.339424456418548 16.066626856952496 1 0 0 I I #
coedge $-1 $238 $166 $169 $252 reversed $159 $-1 #
coedge $-1 $166 $238 $243 $304 forward $159 $-1 #
vertex $-1 $167 $308 #
straight-curve $-1 -53.800399817629049 33.705857714065623 69.439180148212557 0 0 1 I I #
straight-curve $-1 -53.800399817629049 -7.7969377484348854 55.919354219344854 0 0.61566146476048833 -0.78801076186113728 I I #
edge $-1 $302 23.804043155979791 $171 53.800399817629049 $247 $309 forward 7 unknown #
point $-1 -53.800399817629049 33.705857714065623 16.066626856952496 #
point $-1 -53.800399817629049 23.339424456418545 16.066626856952496 #
edge $-1 $310 1 $310 0 $174 $-1 forward 7 unknown #
vertex $-1 $175 $311 #
ellipse-curve $-1 -47.801128485299202 25.720040781265766 7.2427806478766339 0 0.78801076186113728 0.61566146476048833 2.5 0 0 1 I I #
point $-1 -45.301128485299202 28.522641085242093 9.4324119217047357 #
edge $-1 $312 1 $312 0 $178 $-1 forward 7 unknown #
vertex $-1 $179 $313 #
ellipse-curve $-1 -38.80222148680442 25.720040781265766 7.2427806478766339 0 0.78801076186113728 0.61566146476048833 2.5 0 0 1 I I #
point $-1 -36.30222148680442 28.522641085242093 9.4324119217047357 #
edge $-1 $314 1 $314 0 $182 $-1 forward 7 unknown #
vertex $-1 $183 $315 #
ellipse-curve $-1 -29.803314488309638 25.720040781265766 7.2427806478766339 0 0.78801076186113728 0.61566146476048833 2.5 0 0 1 I I #
point $-1 -27.303314488309638 28.522641085242093 9.4324119217047357 #
plane-surface $-1 67.373882259590445 0 0 -1 0 0 0 0 1 forward_v I I I I #
coedge $-1 $191 $189 $193 $272 reversed $121 $-1 #
edge $-1 $204 -16.066626856952496 $274 16.066626856952496 $203 $316 forward 7 unknown #
vertex $-1 $272 $317 #
straight-curve $-1 -67.373882259590445 -33.705857714065623 0 0 0 -1 I I #
edge $-1 $270 -33.705857714065623 $274 33.705857714065623 $268 $318 forward 7 unknown #
straight-curve $-1 0 -33.705857714065623 -16.066626856952496 -1 0 0 I I #
vertex $-1 $196 $319 #
straight-curve $-1 0 33.705857714065623 -16.066626856952496 1 0 0 I I #
point $-1 67.373882259590445 33.705857714065623 -16.066626856952496 #
point $-1 67.373882259590445 -33.705857714065623 -16.066626856952496 #
straight-curve $-1 -67.373882259590445 0 16.066626856952496 0 -1 0 I I #
point $-1 -67.373882259590445 33.705857714065623 16.066626856952496 #
point $-1 -67.373882259590445 -33.705857714065623 16.066626856952496 #
straight-curve $-1 67.373882259590445 -33.705857714065623 0 0 0 -1 I I #
straight-curve $-1 67.373882259590445 33.705857714065623 0 0 0 -1 I I #
plane-surface $-1 67.373882259590445 0 0 -1 0 0 0 0 1 forward_v I I I I #
coedge $-1 $287 $216 $227 $296 forward $140 $-1 #
coedge $-1 $216 $287 $230 $298 reversed $140 $-1 #
straight-curve $-1 67.373882259590445 -20.515209529764547 6.556092229436862 0 0 1 I I #
coedge $-1 $285 $284 $219 $288 forward $140 $-1 #
edge $-1 $291 6.9599427188070049 $289 20.150590903108082 $287 $320 forward 7 unknown #
vertex $-1 $221 $321 #
straight-curve $-1 0 -33.705857714065623 10.657742060794952 1 0 0 I I #
vertex $-1 $288 $322 #
straight-curve $-1 0 -20.515209529764547 10.657742060794952 1 0 0 I I #
point $-1 67.373882259590445 -33.705857714065623 10.657742060794952 #
point $-1 67.373882259590445 -20.515209529764547 10.657742060794952 #
straight-curve $-1 -67.373882259590445 -13.555266810957542 15.566626856952496 0 1 0 I I #
edge $-1 $228 -9.0105346275156339 $291 -4.10164983135809 $284 $323 forward 7 unknown #
point $-1 -67.373882259590445 -20.515209529764547 15.566626856952496 #
edge $-1 $232 -15.566626856952496 $289 -10.657742060794952 $285 $324 forward 7 unknown #
point $-1 -67.373882259590445 -33.705857714065623 15.566626856952496 #
straight-curve $-1 67.373882259590445 -33.705857714065623 0 0 0 -1 I I #
edge $-1 $302 53.372553291260061 $305 66.640983161755614 $238 $325 forward 7 unknown #
vertex $-1 $252 $326 #
straight-curve $-1 -23.804043155979791 49.192875414704986 16.066626856952496 0 1 0 I I #
edge $-1 $305 4.4029324125775808 $249 34.399289074226843 $248 $327 forward 7 unknown #
vertex $-1 $304 $328 #
straight-curve $-1 -23.804043155979791 -7.7969377484348854 55.919354219344854 0 -0.61566146476048833 0.78801076186113728 I I #
point $-1 -23.804043155979791 23.339424456418545 16.066626856952496 #
point $-1 -53.800399817629049 33.705857714065623 2.7981969864569436 #
straight-curve $-1 0 33.705857714065623 16.066626856952496 -1 0 0 I I #
vertex $-1 $255 $329 #
point $-1 -45.301128485299202 25.720040781265766 7.2427806478766339 #
vertex $-1 $259 $330 #
point $-1 -36.30222148680442 25.720040781265766 7.2427806478766339 #
vertex $-1 $263 $331 #
point $-1 -27.303314488309638 25.720040781265766 7.2427806478766339 #
straight-curve $-1 -67.373882259590445 33.705857714065623 0 0 0 -1 I I #
point $-1 -67.373882259590445 -33.705857714065623 -16.066626856952496 #
straight-curve $-1 -67.373882259590445 0 -16.066626856952496 0 1 0 I I #
point $-1 -67.373882259590445 33.705857714065623 -16.066626856952496 #
straight-curve $-1 -67.373882259590445 -13.555266810957542 10.657742060794952 0 -1 0 I I #
point $-1 -67.373882259590445 -33.705857714065623 10.657742060794952 #
point $-1 -67.373882259590445 -20.515209529764547 10.657742060794952 #
straight-curve $-1 -67.373882259590445 -20.515209529764547 6.556092229436862 0 0 -1 I I #
straight-curve $-1 -67.373882259590445 -33.705857714065623 0 0 0 -1 I I #
straight-curve $-1 -23.804043155979791 33.705857714065623 69.439180148212557 0 0 -1 I I #
point $-1 -23.804043155979791 33.705857714065623 16.066626856952496 #
straight-curve $-1 -19.40111074340221 33.705857714065623 2.79819698645694 -1 0 0 I I #
point $-1 -23.804043155979791 33.705857714065623 2.7981969864569436 #
point $-1 -47.801128485299202 23.750013876612925 5.7036269859754132 #
point $-1 -38.80222148680442 23.750013876612925 5.7036269859754132 #
point $-1 -29.803314488309638 23.750013876612925 5.7036269859754132 #
End-of-ACIS-data 