500 0 10 0           
7 Unknown 11 ACIS 5.0 NT 24 Thu Mar 25 23:31:56 1999 
-1 9.9999999999999995e-007 1e-010 
body $-1 $10 $-1 $11 #
body $-1 $12 $-1 $13 #
body $-1 $14 $-1 $15 #
body $-1 $16 $-1 $17 #
body $-1 $18 $-1 $19 #
body $-1 $20 $-1 $21 #
body $-1 $22 $-1 $23 #
body $-1 $24 $-1 $25 #
body $-1 $26 $-1 $27 #
body $-1 $28 $-1 $29 #
lump $-1 $-1 $30 $0 #
transform $-1 1 0 0 0 1 0 0 0 1 78.015076143681142 37.570186423293549 18.227508395897768 1 rotate no_reflect no_shear #
lump $-1 $-1 $31 $1 #
transform $-1 1 0 0 0 1 0 0 0 1 78.015076143681142 9.6475848334090522 18.79251958256183 1 rotate no_reflect no_shear #
lump $-1 $-1 $32 $2 #
transform $-1 1 0 0 0 1 0 0 0 1 78.015076143681142 65.492788013178043 18.79251958256183 1 rotate no_reflect no_shear #
lump $-1 $-1 $33 $3 #
transform $-1 0.78801074757464917 0 0.61566148304635926 0 1 0 -0.61566148304635926 0 0.78801074757464917 -96.06175495718675 24.251505150863416 152.59913685646058 1 rotate no_reflect no_shear #
lump $-1 $-1 $34 $4 #
transform $-1 0.78801074757464917 0 0.61566148304635926 0 -1 0 0.61566148304635926 0 -0.78801074757464917 6.8846215766371941 22.127361371986854 29.816128197980493 1 rotate no_reflect no_shear #
lump $-1 $-1 $35 $5 #
transform $-1 0.78801074757464917 0 0.61566148304635926 0 -1 0 0.61566148304635926 0 -0.78801074757464917 6.8846215766371941 26.375648929739977 29.816128197980493 1 rotate no_reflect no_shear #
lump $-1 $-1 $36 $6 #
transform $-1 0.7313536940579346 0 -0.68199836817093118 0 1 0 0.68199836817093118 0 0.7313536940579346 148.32923327302072 31.7986708451702 239.02862537067591 1 rotate no_reflect no_shear #
lump $-1 $-1 $37 $7 #
transform $-1 0.7313536940579346 0 -0.68199836817093118 0 -1 0 -0.68199836817093118 0 -0.7313536940579346 145.55211110850354 28.911829583733301 26.564860211049591 1 rotate no_reflect no_shear #
lump $-1 $-1 $38 $8 #
transform $-1 0.7313536940579346 0 -0.68199836817093118 0 -1 0 -0.68199836817093118 0 -0.7313536940579346 145.55211110850354 31.7986708451702 26.564860211049591 1 rotate no_reflect no_shear #
lump $-1 $-1 $39 $9 #
transform $-1 0.7313536940579346 0 -0.68199836817093118 0 -1 0 -0.68199836817093118 0 -0.7313536940579346 145.55211110850354 34.685512106607099 26.564860211049591 1 rotate no_reflect no_shear #
shell $-1 $-1 $-1 $40 $-1 $10 #
shell $-1 $-1 $-1 $41 $-1 $12 #
shell $-1 $-1 $-1 $42 $-1 $14 #
shell $-1 $-1 $-1 $43 $-1 $16 #
shell $-1 $-1 $-1 $44 $-1 $18 #
shell $-1 $-1 $-1 $45 $-1 $20 #
shell $-1 $-1 $-1 $46 $-1 $22 #
shell $-1 $-1 $-1 $47 $-1 $24 #
shell $-1 $-1 $-1 $48 $-1 $26 #
shell $-1 $-1 $-1 $49 $-1 $28 #
face $-1 $50 $51 $30 $-1 $52 forward single #
face $-1 $53 $54 $31 $-1 $55 forward single #
face $-1 $56 $57 $32 $-1 $58 forward single #
face $-1 $59 $60 $33 $-1 $61 forward single #
face $-1 $62 $63 $34 $-1 $64 forward single #
face $-1 $65 $66 $35 $-1 $67 forward single #
face $-1 $68 $69 $36 $-1 $70 forward single #
face $-1 $71 $72 $37 $-1 $73 forward single #
face $-1 $74 $75 $38 $-1 $76 forward single #
face $-1 $77 $78 $39 $-1 $79 forward single #
face $-1 $80 $81 $30 $-1 $82 reversed single #
loop $-1 $-1 $83 $40 #
plane-surface $-1 0 0 18.227508395897768 0 0 1 1 0 0 forward_v I I I I #
face $-1 $84 $85 $31 $-1 $86 reversed single #
loop $-1 $-1 $87 $41 #
plane-surface $-1 0 0 3.1389007728974985 0 0 1 1 0 0 forward_v I I I I #
face $-1 $88 $89 $32 $-1 $90 reversed single #
loop $-1 $-1 $91 $42 #
plane-surface $-1 0 0 3.1389007728974985 0 0 1 1 0 0 forward_v I I I I #
face $-1 $92 $93 $33 $-1 $94 reversed single #
loop $-1 $-1 $95 $43 #
plane-surface $-1 0 0 156.03015228736228 0 0 1 1 0 0 forward_v I I I I #
face $-1 $96 $97 $34 $-1 $98 forward single #
loop $-1 $99 $100 $44 #
cone-surface $-1 0 0 -2.3021485030671123 0 0 1 1 0 0 1 I I 0 1 1 forward I I I I #
face $-1 $101 $102 $35 $-1 $103 forward single #
loop $-1 $104 $105 $45 #
cone-surface $-1 0 0 -2.3021485030671123 0 0 1 1 0 0 1 I I 0 1 1 forward I I I I #
face $-1 $106 $107 $36 $-1 $108 reversed single #
loop $-1 $-1 $109 $46 #
plane-surface $-1 0 0 156.03015228736228 0 0 1 1 0 0 forward_v I I I I #
face $-1 $110 $111 $37 $-1 $112 forward single #
loop $-1 $113 $114 $47 #
cone-surface $-1 0 0 -0.75 0 0 1 0.5 0 0 1 I I 0 1 0.5 forward I I I I #
face $-1 $115 $116 $38 $-1 $117 forward single #
loop $-1 $118 $119 $48 #
cone-surface $-1 0 0 -0.75 0 0 1 0.5 0 0 1 I I 0 1 0.5 forward I I I I #
face $-1 $120 $121 $39 $-1 $122 forward single #
loop $-1 $123 $124 $49 #
cone-surface $-1 0 0 -0.75 0 0 1 0.5 0 0 1 I I 0 1 0.5 forward I I I I #
face $-1 $125 $126 $30 $-1 $127 reversed single #
loop $-1 $-1 $128 $50 #
plane-surface $-1 0 0 -18.227508395897768 0 0 1 1 0 0 forward_v I I I I #
coedge $-1 $129 $130 $131 $132 forward $51 $-1 #
face $-1 $133 $134 $31 $-1 $135 reversed single #
loop $-1 $-1 $136 $53 #
plane-surface $-1 0 0 -3.1389007728974985 0 0 1 1 0 0 forward_v I I I I #
coedge $-1 $137 $138 $139 $140 forward $54 $-1 #
face $-1 $141 $142 $32 $-1 $143 reversed single #
loop $-1 $-1 $144 $56 #
plane-surface $-1 0 0 -3.1389007728974985 0 0 1 1 0 0 forward_v I I I I #
coedge $-1 $145 $146 $147 $148 forward $57 $-1 #
face $-1 $149 $150 $33 $-1 $151 reversed single #
loop $-1 $-1 $152 $59 #
plane-surface $-1 0 0 -156.03015228736228 0 0 1 1 0 0 forward_v I I I I #
coedge $-1 $153 $154 $155 $156 forward $60 $-1 #
face $-1 $-1 $157 $34 $-1 $158 forward single #
loop $-1 $-1 $159 $62 #
plane-surface $-1 0 0 -4.1042970061342228 0 0 -1 -1 0 0 forward_v I I I I #
loop $-1 $-1 $160 $44 #
coedge $-1 $100 $100 $159 $161 reversed $63 $-1 #
face $-1 $-1 $162 $35 $-1 $163 forward single #
loop $-1 $-1 $164 $65 #
plane-surface $-1 0 0 -4.1042970061342228 0 0 -1 -1 0 0 forward_v I I I I #
loop $-1 $-1 $165 $45 #
coedge $-1 $105 $105 $164 $166 reversed $66 $-1 #
face $-1 $167 $168 $36 $-1 $169 reversed single #
loop $-1 $-1 $170 $68 #
plane-surface $-1 0 0 -156.03015228736228 0 0 1 1 0 0 forward_v I I I I #
coedge $-1 $171 $172 $173 $174 forward $69 $-1 #
face $-1 $-1 $175 $37 $-1 $176 forward single #
loop $-1 $-1 $177 $71 #
plane-surface $-1 0 0 -1.25 0 0 -1 -1 0 0 forward_v I I I I #
loop $-1 $-1 $178 $47 #
coedge $-1 $114 $114 $177 $179 reversed $72 $-1 #
face $-1 $-1 $180 $38 $-1 $181 forward single #
loop $-1 $-1 $182 $74 #
plane-surface $-1 0 0 -1.25 0 0 -1 -1 0 0 forward_v I I I I #
loop $-1 $-1 $183 $48 #
coedge $-1 $119 $119 $182 $184 reversed $75 $-1 #
face $-1 $-1 $185 $39 $-1 $186 forward single #
loop $-1 $-1 $187 $77 #
plane-surface $-1 0 0 -1.25 0 0 -1 -1 0 0 forward_v I I I I #
loop $-1 $-1 $188 $49 #
coedge $-1 $124 $124 $187 $189 reversed $78 $-1 #
face $-1 $190 $191 $30 $-1 $192 reversed single #
loop $-1 $-1 $193 $80 #
plane-surface $-1 0 -37.570186423293549 0 0 1 0 0 0 1 forward_v I I I I #
coedge $-1 $194 $195 $196 $197 forward $81 $-1 #
coedge $-1 $198 $83 $199 $200 forward $51 $-1 #
coedge $-1 $83 $198 $201 $202 forward $51 $-1 #
coedge $-1 $203 $204 $83 $132 reversed $205 $-1 #
edge $-1 $206 -37.570186423293549 $207 37.570186423293549 $131 $208 forward 7 unknown #
face $-1 $209 $210 $31 $-1 $211 reversed single #
loop $-1 $-1 $212 $84 #
plane-surface $-1 0 -9.6475848334090522 0 0 1 0 0 0 1 forward_v I I I I #
coedge $-1 $213 $214 $215 $216 forward $85 $-1 #
coedge $-1 $217 $87 $218 $219 forward $54 $-1 #
coedge $-1 $87 $217 $220 $221 forward $54 $-1 #
coedge $-1 $222 $223 $87 $140 reversed $224 $-1 #
edge $-1 $225 -9.6475848334090522 $226 9.6475848334090522 $139 $227 forward 7 unknown #
face $-1 $228 $229 $32 $-1 $230 reversed single #
loop $-1 $-1 $231 $88 #
plane-surface $-1 0 -9.6475848334090522 0 0 1 0 0 0 1 forward_v I I I I #
coedge $-1 $232 $233 $234 $235 forward $89 $-1 #
coedge $-1 $236 $91 $237 $238 forward $57 $-1 #
coedge $-1 $91 $236 $239 $240 forward $57 $-1 #
coedge $-1 $241 $242 $91 $148 reversed $243 $-1 #
edge $-1 $244 -9.6475848334090522 $245 9.6475848334090522 $147 $246 forward 7 unknown #
face $-1 $247 $248 $33 $-1 $249 reversed single #
loop $-1 $-1 $250 $92 #
plane-surface $-1 0 -4.9563354840453098 0 0 1 0 0 0 1 forward_v I I I I #
coedge $-1 $251 $252 $253 $254 forward $93 $-1 #
coedge $-1 $255 $95 $256 $257 forward $60 $-1 #
coedge $-1 $95 $255 $258 $259 forward $60 $-1 #
coedge $-1 $260 $261 $95 $156 reversed $262 $-1 #
edge $-1 $263 -4.9563354840453098 $264 4.9563354840453098 $155 $265 forward 7 unknown #
loop $-1 $266 $267 $96 #
cone-surface $-1 0 0 0 0 0 1 0.5 0 0 1 I I -0.70710678118654746 0.70710678118654746 0.5 forward I I I I #
coedge $-1 $159 $159 $100 $161 forward $97 $-1 #
coedge $-1 $160 $160 $267 $268 forward $99 $-1 #
edge $-1 $269 0 $269 6.2831853071796004 $159 $270 forward 7 unknown #
loop $-1 $271 $272 $101 #
cone-surface $-1 0 0 0 0 0 1 0.5 0 0 1 I I -0.70710678118654746 0.70710678118654746 0.5 forward I I I I #
coedge $-1 $164 $164 $105 $166 forward $102 $-1 #
coedge $-1 $165 $165 $272 $273 forward $104 $-1 #
edge $-1 $274 0 $274 6.2831853071796004 $164 $275 forward 7 unknown #
face $-1 $276 $277 $36 $-1 $278 reversed single #
loop $-1 $-1 $279 $106 #
plane-surface $-1 0 -4.8114021023948315 0 0 1 0 0 0 1 forward_v I I I I #
coedge $-1 $280 $281 $282 $283 forward $107 $-1 #
coedge $-1 $284 $109 $285 $286 forward $69 $-1 #
coedge $-1 $109 $284 $287 $288 forward $69 $-1 #
coedge $-1 $289 $290 $109 $174 reversed $291 $-1 #
edge $-1 $292 -4.8114021023948315 $293 4.8114021023948315 $173 $294 forward 7 unknown #
loop $-1 $295 $296 $110 #
cone-surface $-1 0 0 0 0 0 1 0.25 0 0 1 I I -0.70710678118654746 0.70710678118654746 0.25 forward I I I I #
coedge $-1 $177 $177 $114 $179 forward $111 $-1 #
coedge $-1 $178 $178 $296 $297 forward $113 $-1 #
edge $-1 $298 0 $298 6.2831853071796004 $177 $299 forward 7 unknown #
loop $-1 $300 $301 $115 #
cone-surface $-1 0 0 0 0 0 1 0.25 0 0 1 I I -0.70710678118654746 0.70710678118654746 0.25 forward I I I I #
coedge $-1 $182 $182 $119 $184 forward $116 $-1 #
coedge $-1 $183 $183 $301 $302 forward $118 $-1 #
edge $-1 $303 0 $303 6.2831853071796004 $182 $304 forward 7 unknown #
loop $-1 $305 $306 $120 #
cone-surface $-1 0 0 0 0 0 1 0.25 0 0 1 I I -0.70710678118654746 0.70710678118654746 0.25 forward I I I I #
coedge $-1 $187 $187 $124 $189 forward $121 $-1 #
coedge $-1 $188 $188 $306 $307 forward $123 $-1 #
edge $-1 $308 0 $308 6.2831853071796004 $187 $309 forward 7 unknown #
face $-1 $310 $311 $30 $-1 $312 reversed single #
loop $-1 $-1 $313 $125 #
plane-surface $-1 -78.015076143681142 0 0 1 0 0 0 0 -1 forward_v I I I I #
coedge $-1 $314 $201 $315 $316 forward $126 $-1 #
coedge $-1 $317 $128 $314 $318 forward $81 $-1 #
coedge $-1 $128 $317 $319 $320 forward $81 $-1 #
coedge $-1 $204 $203 $128 $197 reversed $205 $-1 #
edge $-1 $321 -37.570186423293549 $322 37.570186423293549 $196 $323 forward 7 unknown #
coedge $-1 $130 $129 $324 $325 forward $51 $-1 #
coedge $-1 $326 $327 $129 $200 reversed $311 $-1 #
edge $-1 $207 -78.015076143681142 $328 78.015076143681142 $199 $329 forward 7 unknown #
coedge $-1 $193 $330 $130 $202 reversed $126 $-1 #
edge $-1 $331 -78.015076143681142 $206 78.015076143681142 $201 $332 forward 7 unknown #
coedge $-1 $196 $131 $330 $333 forward $205 $-1 #
coedge $-1 $131 $196 $326 $334 reversed $205 $-1 #
loop $-1 $-1 $203 $310 #
vertex $-1 $132 $335 #
vertex $-1 $132 $336 #
straight-curve $-1 78.015076143681142 0 18.227508395897768 0 1 0 I I #
face $-1 $337 $338 $31 $-1 $339 reversed single #
loop $-1 $-1 $340 $133 #
plane-surface $-1 -78.015076143681142 0 0 1 0 0 0 0 -1 forward_v I I I I #
coedge $-1 $341 $220 $342 $343 forward $134 $-1 #
coedge $-1 $344 $136 $341 $345 forward $85 $-1 #
coedge $-1 $136 $344 $346 $347 forward $85 $-1 #
coedge $-1 $223 $222 $136 $216 reversed $224 $-1 #
edge $-1 $348 -9.6475848334090522 $349 9.6475848334090522 $215 $350 forward 7 unknown #
coedge $-1 $138 $137 $351 $352 forward $54 $-1 #
coedge $-1 $353 $354 $137 $219 reversed $338 $-1 #
edge $-1 $226 -78.015076143681142 $355 78.015076143681142 $218 $356 forward 7 unknown #
coedge $-1 $212 $357 $138 $221 reversed $134 $-1 #
edge $-1 $358 -78.015076143681142 $225 78.015076143681142 $220 $359 forward 7 unknown #
coedge $-1 $215 $139 $357 $360 forward $224 $-1 #
coedge $-1 $139 $215 $353 $361 reversed $224 $-1 #
loop $-1 $-1 $222 $337 #
vertex $-1 $140 $362 #
vertex $-1 $140 $363 #
straight-curve $-1 78.015076143681142 0 3.1389007728974985 0 1 0 I I #
face $-1 $364 $365 $32 $-1 $366 reversed single #
loop $-1 $-1 $367 $141 #
plane-surface $-1 -78.015076143681142 0 0 1 0 0 0 0 -1 forward_v I I I I #
coedge $-1 $368 $239 $369 $370 forward $142 $-1 #
coedge $-1 $371 $144 $368 $372 forward $89 $-1 #
coedge $-1 $144 $371 $373 $374 forward $89 $-1 #
coedge $-1 $242 $241 $144 $235 reversed $243 $-1 #
edge $-1 $375 -9.6475848334090522 $376 9.6475848334090522 $234 $377 forward 7 unknown #
coedge $-1 $146 $145 $378 $379 forward $57 $-1 #
coedge $-1 $380 $381 $145 $238 reversed $365 $-1 #
edge $-1 $245 -78.015076143681142 $382 78.015076143681142 $237 $383 forward 7 unknown #
coedge $-1 $231 $384 $146 $240 reversed $142 $-1 #
edge $-1 $385 -78.015076143681142 $244 78.015076143681142 $239 $386 forward 7 unknown #
coedge $-1 $234 $147 $384 $387 forward $243 $-1 #
coedge $-1 $147 $234 $380 $388 reversed $243 $-1 #
loop $-1 $-1 $241 $364 #
vertex $-1 $148 $389 #
vertex $-1 $148 $390 #
straight-curve $-1 78.015076143681142 0 3.1389007728974985 0 1 0 I I #
face $-1 $391 $392 $33 $-1 $393 reversed single #
loop $-1 $-1 $394 $149 #
plane-surface $-1 -312.06030457472457 0 0 1 0 0 0 0 -1 forward_v I I I I #
coedge $-1 $395 $258 $396 $397 forward $150 $-1 #
coedge $-1 $398 $152 $395 $399 forward $93 $-1 #
coedge $-1 $152 $398 $400 $401 forward $93 $-1 #
coedge $-1 $261 $260 $152 $254 reversed $262 $-1 #
edge $-1 $402 -4.9563354840453098 $403 4.9563354840453098 $253 $404 forward 7 unknown #
coedge $-1 $154 $153 $405 $406 forward $60 $-1 #
coedge $-1 $407 $408 $153 $257 reversed $392 $-1 #
edge $-1 $264 -312.06030457472457 $409 312.06030457472457 $256 $410 forward 7 unknown #
coedge $-1 $250 $411 $154 $259 reversed $150 $-1 #
edge $-1 $412 -312.06030457472457 $263 312.06030457472457 $258 $413 forward 7 unknown #
coedge $-1 $253 $155 $411 $414 forward $262 $-1 #
coedge $-1 $155 $253 $407 $415 reversed $262 $-1 #
loop $-1 $-1 $260 $391 #
vertex $-1 $156 $416 #
vertex $-1 $156 $417 #
straight-curve $-1 312.06030457472457 0 156.03015228736228 0 1 0 I I #
loop $-1 $-1 $418 $96 #
coedge $-1 $267 $267 $160 $268 reversed $157 $-1 #
edge $-1 $419 0 $419 6.2831853071796004 $267 $420 forward 7 unknown #
vertex $-1 $161 $421 #
ellipse-curve $-1 0 0 -4.1042970061342228 0 0 -1 1 0 0 1 I I #
loop $-1 $-1 $422 $101 #
coedge $-1 $272 $272 $165 $273 reversed $162 $-1 #
edge $-1 $423 0 $423 6.2831853071796004 $272 $424 forward 7 unknown #
vertex $-1 $166 $425 #
ellipse-curve $-1 0 0 -4.1042970061342228 0 0 -1 1 0 0 1 I I #
face $-1 $426 $427 $36 $-1 $428 reversed single #
loop $-1 $-1 $429 $167 #
plane-surface $-1 -312.06030457472457 0 0 1 0 0 0 0 -1 forward_v I I I I #
coedge $-1 $430 $287 $431 $432 forward $168 $-1 #
coedge $-1 $433 $170 $430 $434 forward $107 $-1 #
coedge $-1 $170 $433 $435 $436 forward $107 $-1 #
coedge $-1 $290 $289 $170 $283 reversed $291 $-1 #
edge $-1 $437 -4.8114021023948315 $438 4.8114021023948315 $282 $439 forward 7 unknown #
coedge $-1 $172 $171 $440 $441 forward $69 $-1 #
coedge $-1 $442 $443 $171 $286 reversed $427 $-1 #
edge $-1 $293 -312.06030457472457 $444 312.06030457472457 $285 $445 forward 7 unknown #
coedge $-1 $279 $446 $172 $288 reversed $168 $-1 #
edge $-1 $447 -312.06030457472457 $292 312.06030457472457 $287 $448 forward 7 unknown #
coedge $-1 $282 $173 $446 $449 forward $291 $-1 #
coedge $-1 $173 $282 $442 $450 reversed $291 $-1 #
loop $-1 $-1 $289 $426 #
vertex $-1 $174 $451 #
vertex $-1 $174 $452 #
straight-curve $-1 312.06030457472457 0 156.03015228736228 0 1 0 I I #
loop $-1 $-1 $453 $110 #
coedge $-1 $296 $296 $178 $297 reversed $175 $-1 #
edge $-1 $454 0 $454 6.2831853071796004 $296 $455 forward 7 unknown #
vertex $-1 $179 $456 #
ellipse-curve $-1 0 0 -1.25 0 0 -1 0.5 0 0 1 I I #
loop $-1 $-1 $457 $115 #
coedge $-1 $301 $301 $183 $302 reversed $180 $-1 #
edge $-1 $458 0 $458 6.2831853071796004 $301 $459 forward 7 unknown #
vertex $-1 $184 $460 #
ellipse-curve $-1 0 0 -1.25 0 0 -1 0.5 0 0 1 I I #
loop $-1 $-1 $461 $120 #
coedge $-1 $306 $306 $188 $307 reversed $185 $-1 #
edge $-1 $462 0 $462 6.2831853071796004 $306 $463 forward 7 unknown #
vertex $-1 $189 $464 #
ellipse-curve $-1 0 0 -1.25 0 0 -1 0.5 0 0 1 I I #
face $-1 $-1 $205 $30 $-1 $465 reversed single #
loop $-1 $-1 $326 $190 #
plane-surface $-1 0 37.570186423293549 0 0 -1 0 0 0 -1 forward_v I I I I #
coedge $-1 $466 $324 $327 $467 forward $191 $-1 #
coedge $-1 $330 $193 $194 $318 reversed $126 $-1 #
coedge $-1 $324 $466 $193 $316 reversed $191 $-1 #
edge $-1 $331 -18.227508395897768 $468 18.227508395897768 $315 $469 forward 7 unknown #
coedge $-1 $195 $194 $466 $470 forward $81 $-1 #
edge $-1 $322 -78.015076143681142 $468 78.015076143681142 $314 $471 forward 7 unknown #
coedge $-1 $327 $326 $195 $320 reversed $311 $-1 #
edge $-1 $472 -78.015076143681142 $321 78.015076143681142 $319 $473 forward 7 unknown #
vertex $-1 $197 $474 #
vertex $-1 $333 $475 #
straight-curve $-1 78.015076143681142 0 -18.227508395897768 0 -1 0 I I #
coedge $-1 $313 $315 $198 $325 reversed $191 $-1 #
edge $-1 $328 -37.570186423293549 $331 37.570186423293549 $324 $476 forward 7 unknown #
coedge $-1 $319 $199 $204 $334 forward $311 $-1 #
coedge $-1 $199 $319 $313 $467 reversed $311 $-1 #
vertex $-1 $200 $477 #
straight-curve $-1 0 37.570186423293549 18.227508395897768 -1 0 0 I I #
coedge $-1 $201 $314 $203 $333 reversed $126 $-1 #
vertex $-1 $325 $478 #
straight-curve $-1 0 -37.570186423293549 18.227508395897768 1 0 0 I I #
edge $-1 $206 -18.227508395897768 $322 18.227508395897768 $203 $479 forward 7 unknown #
edge $-1 $207 -18.227508395897768 $321 18.227508395897768 $204 $480 forward 7 unknown #
point $-1 78.015076143681142 -37.570186423293549 18.227508395897768 #
point $-1 78.015076143681142 37.570186423293549 18.227508395897768 #
face $-1 $-1 $224 $31 $-1 $481 reversed single #
loop $-1 $-1 $353 $209 #
plane-surface $-1 0 9.6475848334090522 0 0 -1 0 0 0 -1 forward_v I I I I #
coedge $-1 $482 $351 $354 $483 forward $210 $-1 #
coedge $-1 $357 $212 $213 $345 reversed $134 $-1 #
coedge $-1 $351 $482 $212 $343 reversed $210 $-1 #
edge $-1 $358 -3.1389007728974985 $484 3.1389007728974985 $342 $485 forward 7 unknown #
coedge $-1 $214 $213 $482 $486 forward $85 $-1 #
edge $-1 $349 -78.015076143681142 $484 78.015076143681142 $341 $487 forward 7 unknown #
coedge $-1 $354 $353 $214 $347 reversed $338 $-1 #
edge $-1 $488 -78.015076143681142 $348 78.015076143681142 $346 $489 forward 7 unknown #
vertex $-1 $216 $490 #
vertex $-1 $360 $491 #
straight-curve $-1 78.015076143681142 0 -3.1389007728974985 0 -1 0 I I #
coedge $-1 $340 $342 $217 $352 reversed $210 $-1 #
edge $-1 $355 -9.6475848334090522 $358 9.6475848334090522 $351 $492 forward 7 unknown #
coedge $-1 $346 $218 $223 $361 forward $338 $-1 #
coedge $-1 $218 $346 $340 $483 reversed $338 $-1 #
vertex $-1 $219 $493 #
straight-curve $-1 0 9.6475848334090522 3.1389007728974985 -1 0 0 I I #
coedge $-1 $220 $341 $222 $360 reversed $134 $-1 #
vertex $-1 $352 $494 #
straight-curve $-1 0 -9.6475848334090522 3.1389007728974985 1 0 0 I I #
edge $-1 $225 -3.1389007728974985 $349 3.1389007728974985 $222 $495 forward 7 unknown #
edge $-1 $226 -3.1389007728974985 $348 3.1389007728974985 $223 $496 forward 7 unknown #
point $-1 78.015076143681142 -9.6475848334090522 3.1389007728974985 #
point $-1 78.015076143681142 9.6475848334090522 3.1389007728974985 #
face $-1 $-1 $243 $32 $-1 $497 reversed single #
loop $-1 $-1 $380 $228 #
plane-surface $-1 0 9.6475848334090522 0 0 -1 0 0 0 -1 forward_v I I I I #
coedge $-1 $498 $378 $381 $499 forward $229 $-1 #
coedge $-1 $384 $231 $232 $372 reversed $142 $-1 #
coedge $-1 $378 $498 $231 $370 reversed $229 $-1 #
edge $-1 $385 -3.1389007728974985 $500 3.1389007728974985 $369 $501 forward 7 unknown #
coedge $-1 $233 $232 $498 $502 forward $89 $-1 #
edge $-1 $376 -78.015076143681142 $500 78.015076143681142 $368 $503 forward 7 unknown #
coedge $-1 $381 $380 $233 $374 reversed $365 $-1 #
edge $-1 $504 -78.015076143681142 $375 78.015076143681142 $373 $505 forward 7 unknown #
vertex $-1 $235 $506 #
vertex $-1 $387 $507 #
straight-curve $-1 78.015076143681142 0 -3.1389007728974985 0 -1 0 I I #
coedge $-1 $367 $369 $236 $379 reversed $229 $-1 #
edge $-1 $382 -9.6475848334090522 $385 9.6475848334090522 $378 $508 forward 7 unknown #
coedge $-1 $373 $237 $242 $388 forward $365 $-1 #
coedge $-1 $237 $373 $367 $499 reversed $365 $-1 #
vertex $-1 $238 $509 #
straight-curve $-1 0 9.6475848334090522 3.1389007728974985 -1 0 0 I I #
coedge $-1 $239 $368 $241 $387 reversed $142 $-1 #
vertex $-1 $379 $510 #
straight-curve $-1 0 -9.6475848334090522 3.1389007728974985 1 0 0 I I #
edge $-1 $244 -3.1389007728974985 $376 3.1389007728974985 $241 $511 forward 7 unknown #
edge $-1 $245 -3.1389007728974985 $375 3.1389007728974985 $242 $512 forward 7 unknown #
point $-1 78.015076143681142 -9.6475848334090522 3.1389007728974985 #
point $-1 78.015076143681142 9.6475848334090522 3.1389007728974985 #
face $-1 $-1 $262 $33 $-1 $513 reversed single #
loop $-1 $-1 $407 $247 #
plane-surface $-1 0 4.9563354840453098 0 0 -1 0 0 0 -1 forward_v I I I I #
coedge $-1 $514 $405 $408 $515 forward $248 $-1 #
coedge $-1 $411 $250 $251 $399 reversed $150 $-1 #
coedge $-1 $405 $514 $250 $397 reversed $248 $-1 #
edge $-1 $412 -156.03015228736228 $516 156.03015228736228 $396 $517 forward 7 unknown #
coedge $-1 $252 $251 $514 $518 forward $93 $-1 #
edge $-1 $403 -312.06030457472457 $516 312.06030457472457 $395 $519 forward 7 unknown #
coedge $-1 $408 $407 $252 $401 reversed $392 $-1 #
edge $-1 $520 -312.06030457472457 $402 312.06030457472457 $400 $521 forward 7 unknown #
vertex $-1 $254 $522 #
vertex $-1 $414 $523 #
straight-curve $-1 312.06030457472457 0 -156.03015228736228 0 -1 0 I I #
coedge $-1 $394 $396 $255 $406 reversed $248 $-1 #
edge $-1 $409 -4.9563354840453098 $412 4.9563354840453098 $405 $524 forward 7 unknown #
coedge $-1 $400 $256 $261 $415 forward $392 $-1 #
coedge $-1 $256 $400 $394 $515 reversed $392 $-1 #
vertex $-1 $257 $525 #
straight-curve $-1 0 4.9563354840453098 156.03015228736228 -1 0 0 I I #
coedge $-1 $258 $395 $260 $414 reversed $150 $-1 #
vertex $-1 $406 $526 #
straight-curve $-1 0 -4.9563354840453098 156.03015228736228 1 0 0 I I #
edge $-1 $263 -156.03015228736228 $403 156.03015228736228 $260 $527 forward 7 unknown #
edge $-1 $264 -156.03015228736228 $402 156.03015228736228 $261 $528 forward 7 unknown #
point $-1 312.06030457472457 -4.9563354840453098 156.03015228736228 #
point $-1 312.06030457472457 4.9563354840453098 156.03015228736228 #
coedge $-1 $418 $418 $-1 $529 reversed $266 $-1 #
vertex $-1 $268 $530 #
ellipse-curve $-1 0 0 -0.5 0 0 -1 1 0 0 1 I I #
point $-1 1 0 -4.1042970061342228 #
coedge $-1 $422 $422 $-1 $531 reversed $271 $-1 #
vertex $-1 $273 $532 #
ellipse-curve $-1 0 0 -0.5 0 0 -1 1 0 0 1 I I #
point $-1 1 0 -4.1042970061342228 #
face $-1 $-1 $291 $36 $-1 $533 reversed single #
loop $-1 $-1 $442 $276 #
plane-surface $-1 0 4.8114021023948315 0 0 -1 0 0 0 -1 forward_v I I I I #
coedge $-1 $534 $440 $443 $535 forward $277 $-1 #
coedge $-1 $446 $279 $280 $434 reversed $168 $-1 #
coedge $-1 $440 $534 $279 $432 reversed $277 $-1 #
edge $-1 $447 -156.03015228736228 $536 156.03015228736228 $431 $537 forward 7 unknown #
coedge $-1 $281 $280 $534 $538 forward $107 $-1 #
edge $-1 $438 -312.06030457472457 $536 312.06030457472457 $430 $539 forward 7 unknown #
coedge $-1 $443 $442 $281 $436 reversed $427 $-1 #
edge $-1 $540 -312.06030457472457 $437 312.06030457472457 $435 $541 forward 7 unknown #
vertex $-1 $283 $542 #
vertex $-1 $449 $543 #
straight-curve $-1 312.06030457472457 0 -156.03015228736228 0 -1 0 I I #
coedge $-1 $429 $431 $284 $441 reversed $277 $-1 #
edge $-1 $444 -4.8114021023948315 $447 4.8114021023948315 $440 $544 forward 7 unknown #
coedge $-1 $435 $285 $290 $450 forward $427 $-1 #
coedge $-1 $285 $435 $429 $535 reversed $427 $-1 #
vertex $-1 $286 $545 #
straight-curve $-1 0 4.8114021023948315 156.03015228736228 -1 0 0 I I #
coedge $-1 $287 $430 $289 $449 reversed $168 $-1 #
vertex $-1 $441 $546 #
straight-curve $-1 0 -4.8114021023948315 156.03015228736228 1 0 0 I I #
edge $-1 $292 -156.03015228736228 $438 156.03015228736228 $289 $547 forward 7 unknown #
edge $-1 $293 -156.03015228736228 $437 156.03015228736228 $290 $548 forward 7 unknown #
point $-1 312.06030457472457 -4.8114021023948315 156.03015228736228 #
point $-1 312.06030457472457 4.8114021023948315 156.03015228736228 #
coedge $-1 $453 $453 $-1 $549 reversed $295 $-1 #
vertex $-1 $297 $550 #
ellipse-curve $-1 0 0 -0.25 0 0 -1 0.5 0 0 1 I I #
point $-1 0.5 0 -1.25 #
coedge $-1 $457 $457 $-1 $551 reversed $300 $-1 #
vertex $-1 $302 $552 #
ellipse-curve $-1 0 0 -0.25 0 0 -1 0.5 0 0 1 I I #
point $-1 0.5 0 -1.25 #
coedge $-1 $461 $461 $-1 $553 reversed $305 $-1 #
vertex $-1 $307 $554 #
ellipse-curve $-1 0 0 -0.25 0 0 -1 0.5 0 0 1 I I #
point $-1 0.5 0 -1.25 #
plane-surface $-1 78.015076143681142 0 0 -1 0 0 0 0 1 forward_v I I I I #
coedge $-1 $315 $313 $317 $470 reversed $191 $-1 #
edge $-1 $328 -18.227508395897768 $472 18.227508395897768 $327 $555 forward 7 unknown #
vertex $-1 $470 $556 #
straight-curve $-1 -78.015076143681142 -37.570186423293549 0 0 0 -1 I I #
edge $-1 $468 -37.570186423293549 $472 37.570186423293549 $466 $557 forward 7 unknown #
straight-curve $-1 0 -37.570186423293549 -18.227508395897768 -1 0 0 I I #
vertex $-1 $320 $558 #
straight-curve $-1 0 37.570186423293549 -18.227508395897768 1 0 0 I I #
point $-1 78.015076143681142 37.570186423293549 -18.227508395897768 #
point $-1 78.015076143681142 -37.570186423293549 -18.227508395897768 #
straight-curve $-1 -78.015076143681142 0 18.227508395897768 0 -1 0 I I #
point $-1 -78.015076143681142 37.570186423293549 18.227508395897768 #
point $-1 -78.015076143681142 -37.570186423293549 18.227508395897768 #
straight-curve $-1 78.015076143681142 -37.570186423293549 0 0 0 -1 I I #
straight-curve $-1 78.015076143681142 37.570186423293549 0 0 0 -1 I I #
plane-surface $-1 78.015076143681142 0 0 -1 0 0 0 0 1 forward_v I I I I #
coedge $-1 $342 $340 $344 $486 reversed $210 $-1 #
edge $-1 $355 -3.1389007728974985 $488 3.1389007728974985 $354 $559 forward 7 unknown #
vertex $-1 $486 $560 #
straight-curve $-1 -78.015076143681142 -9.6475848334090522 0 0 0 -1 I I #
edge $-1 $484 -9.6475848334090522 $488 9.6475848334090522 $482 $561 forward 7 unknown #
straight-curve $-1 0 -9.6475848334090522 -3.1389007728974985 -1 0 0 I I #
vertex $-1 $347 $562 #
straight-curve $-1 0 9.6475848334090522 -3.1389007728974985 1 0 0 I I #
point $-1 78.015076143681142 9.6475848334090522 -3.1389007728974985 #
point $-1 78.015076143681142 -9.6475848334090522 -3.1389007728974985 #
straight-curve $-1 -78.015076143681142 0 3.1389007728974985 0 -1 0 I I #
point $-1 -78.015076143681142 9.6475848334090522 3.1389007728974985 #
point $-1 -78.015076143681142 -9.6475848334090522 3.1389007728974985 #
straight-curve $-1 78.015076143681142 -9.6475848334090522 0 0 0 -1 I I #
straight-curve $-1 78.015076143681142 9.6475848334090522 0 0 0 -1 I I #
plane-surface $-1 78.015076143681142 0 0 -1 0 0 0 0 1 forward_v I I I I #
coedge $-1 $369 $367 $371 $502 reversed $229 $-1 #
edge $-1 $382 -3.1389007728974985 $504 3.1389007728974985 $381 $563 forward 7 unknown #
vertex $-1 $502 $564 #
straight-curve $-1 -78.015076143681142 -9.6475848334090522 0 0 0 -1 I I #
edge $-1 $500 -9.6475848334090522 $504 9.6475848334090522 $498 $565 forward 7 unknown #
straight-curve $-1 0 -9.6475848334090522 -3.1389007728974985 -1 0 0 I I #
vertex $-1 $374 $566 #
straight-curve $-1 0 9.6475848334090522 -3.1389007728974985 1 0 0 I I #
point $-1 78.015076143681142 9.6475848334090522 -3.1389007728974985 #
point $-1 78.015076143681142 -9.6475848334090522 -3.1389007728974985 #
straight-curve $-1 -78.015076143681142 0 3.1389007728974985 0 -1 0 I I #
point $-1 -78.015076143681142 9.6475848334090522 3.1389007728974985 #
point $-1 -78.015076143681142 -9.6475848334090522 3.1389007728974985 #
straight-curve $-1 78.015076143681142 -9.6475848334090522 0 0 0 -1 I I #
straight-curve $-1 78.015076143681142 9.6475848334090522 0 0 0 -1 I I #
plane-surface $-1 312.06030457472457 0 0 -1 0 0 0 0 1 forward_v I I I I #
coedge $-1 $396 $394 $398 $518 reversed $248 $-1 #
edge $-1 $409 -156.03015228736228 $520 156.03015228736228 $408 $567 forward 7 unknown #
vertex $-1 $518 $568 #
straight-curve $-1 -312.06030457472457 -4.9563354840453098 0 0 0 -1 I I #
edge $-1 $516 -4.9563354840453098 $520 4.9563354840453098 $514 $569 forward 7 unknown #
straight-curve $-1 0 -4.9563354840453098 -156.03015228736228 -1 0 0 I I #
vertex $-1 $401 $570 #
straight-curve $-1 0 4.9563354840453098 -156.03015228736228 1 0 0 I I #
point $-1 312.06030457472457 4.9563354840453098 -156.03015228736228 #
point $-1 312.06030457472457 -4.9563354840453098 -156.03015228736228 #
straight-curve $-1 -312.06030457472457 0 156.03015228736228 0 -1 0 I I #
point $-1 -312.06030457472457 4.9563354840453098 156.03015228736228 #
point $-1 -312.06030457472457 -4.9563354840453098 156.03015228736228 #
straight-curve $-1 312.06030457472457 -4.9563354840453098 0 0 0 -1 I I #
straight-curve $-1 312.06030457472457 4.9563354840453098 0 0 0 -1 I I #
edge $-1 $571 1 $571 0 $418 $-1 forward 7 unknown #
point $-1 1 0 -0.5 #
edge $-1 $572 1 $572 0 $422 $-1 forward 7 unknown #
point $-1 1 0 -0.5 #
plane-surface $-1 312.06030457472457 0 0 -1 0 0 0 0 1 forward_v I I I I #
coedge $-1 $431 $429 $433 $538 reversed $277 $-1 #
edge $-1 $444 -156.03015228736228 $540 156.03015228736228 $443 $573 forward 7 unknown #
vertex $-1 $538 $574 #
straight-curve $-1 -312.06030457472457 -4.8114021023948315 0 0 0 -1 I I #
edge $-1 $536 -4.8114021023948315 $540 4.8114021023948315 $534 $575 forward 7 unknown #
straight-curve $-1 0 -4.8114021023948315 -156.03015228736228 -1 0 0 I I #
vertex $-1 $436 $576 #
straight-curve $-1 0 4.8114021023948315 -156.03015228736228 1 0 0 I I #
point $-1 312.06030457472457 4.8114021023948315 -156.03015228736228 #
point $-1 312.06030457472457 -4.8114021023948315 -156.03015228736228 #
straight-curve $-1 -312.06030457472457 0 156.03015228736228 0 -1 0 I I #
point $-1 -312.06030457472457 4.8114021023948315 156.03015228736228 #
point $-1 -312.06030457472457 -4.8114021023948315 156.03015228736228 #
straight-curve $-1 312.06030457472457 -4.8114021023948315 0 0 0 -1 I I #
straight-curve $-1 312.06030457472457 4.8114021023948315 0 0 0 -1 I I #
edge $-1 $577 1 $577 0 $453 $-1 forward 7 unknown #
point $-1 0.5 0 -0.25 #
edge $-1 $578 1 $578 0 $457 $-1 forward 7 unknown #
point $-1 0.5 0 -0.25 #
edge $-1 $579 1 $579 0 $461 $-1 forward 7 unknown #
point $-1 0.5 0 -0.25 #
straight-curve $-1 -78.015076143681142 37.570186423293549 0 0 0 -1 I I #
point $-1 -78.015076143681142 -37.570186423293549 -18.227508395897768 #
straight-curve $-1 -78.015076143681142 0 -18.227508395897768 0 1 0 I I #
point $-1 -78.015076143681142 37.570186423293549 -18.227508395897768 #
straight-curve $-1 -78.015076143681142 9.6475848334090522 0 0 0 -1 I I #
point $-1 -78.015076143681142 -9.6475848334090522 -3.1389007728974985 #
straight-curve $-1 -78.015076143681142 0 -3.1389007728974985 0 1 0 I I #
point $-1 -78.015076143681142 9.6475848334090522 -3.1389007728974985 #
straight-curve $-1 -78.015076143681142 9.6475848334090522 0 0 0 -1 I I #
point $-1 -78.015076143681142 -9.6475848334090522 -3.1389007728974985 #
straight-curve $-1 -78.015076143681142 0 -3.1389007728974985 0 1 0 I I #
point $-1 -78.015076143681142 9.6475848334090522 -3.1389007728974985 #
straight-curve $-1 -312.06030457472457 4.9563354840453098 0 0 0 -1 I I #
point $-1 -312.06030457472457 -4.9563354840453098 -156.03015228736228 #
straight-curve $-1 -312.06030457472457 0 -156.03015228736228 0 1 0 I I #
point $-1 -312.06030457472457 4.9563354840453098 -156.03015228736228 #
vertex $-1 $529 $580 #
vertex $-1 $531 $581 #
straight-curve $-1 -312.06030457472457 4.8114021023948315 0 0 0 -1 I I #
point $-1 -312.06030457472457 -4.8114021023948315 -156.03015228736228 #
straight-curve $-1 -312.06030457472457 0 -156.03015228736228 0 1 0 I I #
point $-1 -312.06030457472457 4.8114021023948315 -156.03015228736228 #
vertex $-1 $549 $582 #
vertex $-1 $551 $583 #
vertex $-1 $553 $584 #
point $-1 0 0 0.5 #
point $-1 0 0 0.5 #
point $-1 0 0 0.25 #
point $-1 0 0 0.25 #
point $-1 0 0 0.25 #
End-of-ACIS-data 