500 0 8 0           
7 Unknown 11 ACIS 5.0 NT 24 Thu Mar 25 15:46:12 1999 
-1 9.9999999999999995e-007 1e-010 
body $-1 $8 $-1 $9 #
body $-1 $10 $-1 $11 #
body $-1 $12 $-1 $13 #
body $-1 $14 $-1 $15 #
body $-1 $16 $-1 $17 #
body $-1 $18 $-1 $19 #
body $-1 $20 $-1 $21 #
body $-1 $22 $-1 $23 #
lump $-1 $-1 $24 $0 #
transform $-1 1 0 0 0 1 0 0 0 1 51.467635120700706 23.082606850787968 6.7288049677432049 1 rotate no_reflect no_shear #
lump $-1 $-1 $25 $1 #
transform $-1 1 0 0 0 1 0 0 0 1 51.467635120700706 23.082606850787968 6.7288049677432049 1 rotate no_reflect no_shear #
lump $-1 $-1 $26 $2 #
transform $-1 1 0 0 0 1 0 0 0 1 51.467635120700706 23.082606850787968 6.7288049677432049 1 rotate no_reflect no_shear #
lump $-1 $-1 $27 $3 #
transform $-1 1 0 0 0 1 0 0 0 1 51.467635120700706 23.082606850787968 6.7288049677432049 1 rotate no_reflect no_shear #
lump $-1 $-1 $28 $4 #
transform $-1 1 0 0 0 1 0 0 0 1 51.467635120700706 23.082606850787968 6.7288049677432049 1 rotate no_reflect no_shear #
lump $-1 $-1 $29 $5 #
transform $-1 1 0 0 0 1 0 0 0 1 51.467635120700706 23.082606850787968 6.7288049677432049 1 rotate no_reflect no_shear #
lump $-1 $-1 $30 $6 #
transform $-1 1 0 0 0 1 0 0 0 1 51.467635120700706 23.082606850787968 6.7288049677432049 1 rotate no_reflect no_shear #
lump $-1 $-1 $31 $7 #
transform $-1 1 0 0 0 1 0 0 0 1 51.467635120700706 23.082606850787968 6.7288049677432049 1 rotate no_reflect no_shear #
shell $-1 $-1 $-1 $32 $-1 $8 #
shell $-1 $-1 $-1 $33 $-1 $10 #
shell $-1 $-1 $-1 $34 $-1 $12 #
shell $-1 $-1 $-1 $35 $-1 $14 #
shell $-1 $-1 $-1 $36 $-1 $16 #
shell $-1 $-1 $-1 $37 $-1 $18 #
shell $-1 $-1 $-1 $38 $-1 $20 #
shell $-1 $-1 $-1 $39 $-1 $22 #
face $-1 $40 $41 $24 $-1 $42 forward single #
face $-1 $43 $44 $25 $-1 $45 reversed single #
face $-1 $46 $47 $26 $-1 $48 forward single #
face $-1 $49 $50 $27 $-1 $51 forward single #
face $-1 $52 $53 $28 $-1 $54 forward single #
face $-1 $55 $56 $29 $-1 $57 reversed single #
face $-1 $58 $59 $30 $-1 $60 forward single #
face $-1 $61 $62 $31 $-1 $63 forward single #
face $-1 $64 $65 $24 $-1 $66 reversed single #
loop $-1 $-1 $67 $32 #
plane-surface $-1 0 0 6.7288049677432049 0 0 1 1 0 0 forward_v I I I I #
face $-1 $68 $69 $25 $-1 $70 reversed single #
loop $-1 $-1 $71 $33 #
plane-surface $-1 26.788058137651824 55.772892382035565 109.98698751921337 1 0 0 0 -0.6560590369687036 -0.75470957328743171 forward_v I I I I #
face $-1 $72 $73 $26 $-1 $74 forward single #
loop $-1 $75 $76 $34 #
cone-surface $-1 30.539492233445657 19.003034341445471 2.7981106491404111 0 -0.6560590369687036 -0.75470957328743171 1.5 0 0 1 I I 0 1 1.5 forward I I I I #
face $-1 $77 $78 $27 $-1 $79 forward single #
loop $-1 $80 $81 $35 #
cone-surface $-1 36.16664337713641 19.003034341445471 2.7981106491404111 0 -0.6560590369687036 -0.75470957328743171 1.5 0 0 1 I I 0 1 1.5 forward I I I I #
face $-1 $82 $83 $28 $-1 $84 forward single #
loop $-1 $85 $86 $36 #
cone-surface $-1 41.793794520827163 19.003034341445471 2.7981106491404111 0 -0.6560590369687036 -0.75470957328743171 1.5 0 0 1 I I 0 1 1.5 forward I I I I #
face $-1 $87 $88 $29 $-1 $89 reversed single #
loop $-1 $-1 $90 $37 #
plane-surface $-1 25.299488101011825 -111.31535539713795 53.29791385379076 -1 0 0 0 -0.85716730853699208 0.51503806187062418 forward_v I I I I #
face $-1 $91 $92 $30 $-1 $93 forward single #
loop $-1 $94 $95 $38 #
cone-surface $-1 7.679874672070774 -20.70502545482271 3.2406696461317965 0 0.85716730853699208 -0.51503806187062418 1 0 0 1 I I 0 1 1 forward I I I I #
face $-1 $96 $97 $31 $-1 $98 forward single #
loop $-1 $99 $100 $39 #
cone-surface $-1 18.251642729435403 -20.70502545482271 3.2406696461317965 0 0.85716730853699208 -0.51503806187062418 1 0 0 1 I I 0 1 1 forward I I I I #
face $-1 $101 $102 $24 $-1 $103 reversed single #
loop $-1 $-1 $104 $40 #
plane-surface $-1 0 0 -6.7288049677432049 0 0 1 1 0 0 forward_v I I I I #
coedge $-1 $105 $106 $107 $108 forward $41 $-1 #
face $-1 $109 $110 $25 $-1 $111 reversed single #
loop $-1 $-1 $112 $43 #
plane-surface $-1 36.166643377136424 -11.7587218826515 32.300753639098843 0 0.6560590369687036 0.75470957328743171 1 0 0 forward_v I I I I #
coedge $-1 $113 $114 $115 $116 reversed $44 $-1 #
face $-1 $-1 $117 $26 $-1 $118 forward single #
loop $-1 $119 $120 $46 #
cone-surface $-1 30.539492233445657 17.143501303825026 0.65896263614938633 0 -0.6560590369687036 -0.75470957328743171 0.75 0 0 1 I I -0.70710678118654757 0.70710678118654757 0.75 forward I I I I #
loop $-1 $-1 $121 $34 #
coedge $-1 $76 $76 $122 $123 reversed $47 $-1 #
face $-1 $-1 $124 $27 $-1 $125 forward single #
loop $-1 $126 $127 $49 #
cone-surface $-1 36.16664337713641 17.143501303825026 0.65896263614938633 0 -0.6560590369687036 -0.75470957328743171 0.75 0 0 1 I I -0.70710678118654757 0.70710678118654757 0.75 forward I I I I #
loop $-1 $-1 $128 $35 #
coedge $-1 $81 $81 $129 $130 reversed $50 $-1 #
face $-1 $-1 $131 $28 $-1 $132 forward single #
loop $-1 $133 $134 $52 #
cone-surface $-1 41.793794520827163 17.143501303825026 0.65896263614938633 0 -0.6560590369687036 -0.75470957328743171 0.75 0 0 1 I I -0.70710678118654757 0.70710678118654757 0.75 forward I I I I #
loop $-1 $-1 $135 $36 #
coedge $-1 $86 $86 $136 $137 reversed $53 $-1 #
face $-1 $138 $139 $29 $-1 $140 reversed single #
loop $-1 $-1 $141 $55 #
plane-surface $-1 12.965758700753085 -23.082606850787968 0.28233177053044045 0 -0.85716730853699208 0.51503806187062418 1 0 0 forward_v I I I I #
coedge $-1 $142 $143 $144 $145 reversed $56 $-1 #
face $-1 $-1 $146 $30 $-1 $147 forward single #
loop $-1 $148 $149 $58 #
cone-surface $-1 7.679874672070774 -19.835576275764826 2.7182518921914607 0 0.85716730853699208 -0.51503806187062418 0.5 0 0 1 I I -0.70710678118654746 0.70710678118654746 0.5 forward I I I I #
loop $-1 $-1 $150 $38 #
coedge $-1 $95 $95 $151 $152 reversed $59 $-1 #
face $-1 $-1 $153 $31 $-1 $154 forward single #
loop $-1 $155 $156 $61 #
cone-surface $-1 18.251642729435403 -19.835576275764826 2.7182518921914607 0 0.85716730853699208 -0.51503806187062418 0.5 0 0 1 I I -0.70710678118654746 0.70710678118654746 0.5 forward I I I I #
loop $-1 $-1 $157 $39 #
coedge $-1 $100 $100 $158 $159 reversed $62 $-1 #
face $-1 $160 $161 $24 $-1 $162 reversed single #
loop $-1 $-1 $163 $64 #
plane-surface $-1 0 -23.082606850787968 0 0 1 0 0 0 1 forward_v I I I I #
coedge $-1 $164 $165 $166 $167 forward $65 $-1 #
coedge $-1 $168 $67 $169 $170 forward $41 $-1 #
coedge $-1 $67 $168 $171 $172 forward $41 $-1 #
coedge $-1 $173 $174 $67 $108 reversed $175 $-1 #
edge $-1 $176 -23.082606850787968 $177 23.082606850787968 $107 $178 forward 7 unknown #
face $-1 $179 $180 $25 $-1 $181 reversed single #
loop $-1 $-1 $182 $68 #
plane-surface $-1 45.545228616621024 55.772892382035565 109.98698751921337 -1 0 0 0 0.6560590369687036 0.75470957328743171 forward_v I I I I #
coedge $-1 $183 $184 $185 $186 reversed $69 $-1 #
coedge $-1 $114 $71 $187 $188 reversed $44 $-1 #
coedge $-1 $71 $113 $183 $189 reversed $44 $-1 #
coedge $-1 $185 $190 $71 $116 forward $191 $-1 #
edge $-1 $192 4.8038393402298141 $193 10.228006839126952 $115 $194 forward 7 unknown #
loop $-1 $-1 $122 $72 #
plane-surface $-1 36.166643377136424 -11.7587218826515 32.300753639098843 0 0.6560590369687036 0.75470957328743171 1 0 0 forward_v I I I I #
loop $-1 $-1 $195 $46 #
coedge $-1 $120 $120 $121 $196 reversed $73 $-1 #
coedge $-1 $121 $121 $120 $196 forward $75 $-1 #
coedge $-1 $122 $122 $76 $123 forward $117 $-1 #
edge $-1 $197 3.0962715851239789e-016 $197 6.2831853071796004 $122 $198 forward 7 unknown #
loop $-1 $-1 $129 $77 #
plane-surface $-1 36.166643377136424 -11.7587218826515 32.300753639098843 0 0.6560590369687036 0.75470957328743171 1 0 0 forward_v I I I I #
loop $-1 $-1 $199 $49 #
coedge $-1 $127 $127 $128 $200 reversed $78 $-1 #
coedge $-1 $128 $128 $127 $200 forward $80 $-1 #
coedge $-1 $129 $129 $81 $130 forward $124 $-1 #
edge $-1 $201 3.0962715851239789e-016 $201 6.2831853071796004 $129 $202 forward 7 unknown #
loop $-1 $-1 $136 $82 #
plane-surface $-1 36.166643377136424 -11.7587218826515 32.300753639098843 0 0.6560590369687036 0.75470957328743171 1 0 0 forward_v I I I I #
loop $-1 $-1 $203 $52 #
coedge $-1 $134 $134 $135 $204 reversed $83 $-1 #
coedge $-1 $135 $135 $134 $204 forward $85 $-1 #
coedge $-1 $136 $136 $86 $137 forward $131 $-1 #
edge $-1 $205 3.0962715851239789e-016 $205 6.2831853071796004 $136 $206 forward 7 unknown #
face $-1 $207 $208 $29 $-1 $209 reversed single #
loop $-1 $-1 $210 $87 #
plane-surface $-1 0.63202930049434514 -111.31535539713795 53.29791385379076 1 0 0 0 0.85716730853699208 -0.51503806187062418 forward_v I I I I #
coedge $-1 $211 $212 $213 $214 reversed $88 $-1 #
coedge $-1 $143 $90 $215 $216 reversed $56 $-1 #
coedge $-1 $90 $142 $211 $217 reversed $56 $-1 #
coedge $-1 $213 $218 $90 $145 forward $219 $-1 #
edge $-1 $220 32.575070847781006 $221 36.44850259013274 $144 $222 forward 7 unknown #
loop $-1 $-1 $151 $91 #
plane-surface $-1 12.965758700753085 -23.082606850787968 0.28233177053044045 0 -0.85716730853699208 0.51503806187062418 1 0 0 forward_v I I I I #
loop $-1 $-1 $223 $58 #
coedge $-1 $149 $149 $150 $224 reversed $92 $-1 #
coedge $-1 $150 $150 $149 $224 forward $94 $-1 #
coedge $-1 $151 $151 $95 $152 forward $146 $-1 #
edge $-1 $225 -7.6131750551499519e-016 $225 6.2831853071795996 $151 $226 forward 7 unknown #
loop $-1 $-1 $158 $96 #
plane-surface $-1 12.965758700753085 -23.082606850787968 0.28233177053044045 0 -0.85716730853699208 0.51503806187062418 1 0 0 forward_v I I I I #
loop $-1 $-1 $227 $61 #
coedge $-1 $156 $156 $157 $228 reversed $97 $-1 #
coedge $-1 $157 $157 $156 $228 forward $99 $-1 #
coedge $-1 $158 $158 $100 $159 forward $153 $-1 #
edge $-1 $229 -7.6131750551499519e-016 $229 6.2831853071795996 $158 $230 forward 7 unknown #
face $-1 $231 $232 $24 $-1 $233 reversed single #
loop $-1 $-1 $234 $101 #
plane-surface $-1 -51.467635120700706 0 0 1 0 0 0 0 -1 forward_v I I I I #
coedge $-1 $235 $171 $236 $237 forward $102 $-1 #
coedge $-1 $238 $104 $235 $239 forward $65 $-1 #
coedge $-1 $104 $238 $240 $241 forward $65 $-1 #
coedge $-1 $174 $173 $104 $167 reversed $175 $-1 #
edge $-1 $242 -23.082606850787968 $243 23.082606850787968 $166 $244 forward 7 unknown #
coedge $-1 $106 $105 $245 $246 forward $41 $-1 #
coedge $-1 $247 $248 $105 $170 reversed $232 $-1 #
edge $-1 $177 -51.467635120700706 $249 51.467635120700706 $169 $250 forward 7 unknown #
coedge $-1 $163 $251 $106 $172 reversed $102 $-1 #
edge $-1 $252 -51.467635120700706 $176 51.467635120700706 $171 $253 forward 7 unknown #
coedge $-1 $166 $107 $251 $254 forward $175 $-1 #
coedge $-1 $107 $166 $247 $255 reversed $175 $-1 #
loop $-1 $-1 $173 $231 #
vertex $-1 $108 $256 #
vertex $-1 $108 $257 #
straight-curve $-1 51.467635120700706 0 6.7288049677432049 0 1 0 I I #
face $-1 $-1 $191 $25 $-1 $258 forward single #
loop $-1 $-1 $259 $109 #
plane-surface $-1 0 23.082606850787968 0 0 -1 0 0 0 -1 forward_v I I I I #
coedge $-1 $260 $261 $262 $263 reversed $110 $-1 #
coedge $-1 $264 $112 $114 $189 forward $69 $-1 #
coedge $-1 $112 $264 $260 $265 forward $69 $-1 #
coedge $-1 $262 $115 $112 $186 forward $191 $-1 #
edge $-1 $193 8.7047364490836117 $266 27.461906928052812 $185 $267 forward 7 unknown #
coedge $-1 $268 $269 $113 $188 forward $180 $-1 #
edge $-1 $270 -52.979845763018147 $192 -48.264688791863477 $187 $271 forward 7 unknown #
edge $-1 $193 38.978121221391717 $270 46.165213701575937 $114 $272 forward 7 unknown #
coedge $-1 $115 $262 $268 $273 forward $191 $-1 #
loop $-1 $-1 $262 $179 #
vertex $-1 $188 $274 #
vertex $-1 $116 $275 #
straight-curve $-1 26.788058137651824 27.886446191017782 6.7288049677432085 0 -1 0 I I #
coedge $-1 $195 $195 $-1 $276 reversed $119 $-1 #
edge $-1 $277 0 $277 6.2831853071796004 $120 $278 forward 7 unknown #
vertex $-1 $123 $279 #
ellipse-curve $-1 30.539492233445657 20.370523101339394 4.3712264821658708 0 0.6560590369687036 0.75470957328743171 1.5 0 0 1 I I #
coedge $-1 $199 $199 $-1 $280 reversed $126 $-1 #
edge $-1 $281 0 $281 6.2831853071796004 $127 $282 forward 7 unknown #
vertex $-1 $130 $283 #
ellipse-curve $-1 36.16664337713641 20.370523101339394 4.3712264821658708 0 0.6560590369687036 0.75470957328743171 1.5 0 0 1 I I #
coedge $-1 $203 $203 $-1 $284 reversed $133 $-1 #
edge $-1 $285 0 $285 6.2831853071796004 $134 $286 forward 7 unknown #
vertex $-1 $137 $287 #
ellipse-curve $-1 41.793794520827163 20.370523101339394 4.3712264821658708 0 0.6560590369687036 0.75470957328743171 1.5 0 0 1 I I #
face $-1 $-1 $219 $29 $-1 $288 forward single #
loop $-1 $-1 $289 $138 #
plane-surface $-1 0 -23.082606850787968 0 0 1 0 0 0 1 forward_v I I I I #
coedge $-1 $290 $291 $292 $293 reversed $139 $-1 #
coedge $-1 $294 $141 $143 $217 forward $88 $-1 #
coedge $-1 $141 $294 $290 $295 forward $88 $-1 #
coedge $-1 $292 $144 $141 $214 forward $219 $-1 #
edge $-1 $221 -18.816608750635282 $296 5.8508500498821974 $213 $297 forward 7 unknown #
coedge $-1 $298 $299 $142 $216 forward $208 $-1 #
edge $-1 $300 -26.36662515636494 $220 -19.920151959152175 $215 $301 forward 7 unknown #
edge $-1 $221 -7.5206708573797174 $300 0 $143 $302 forward 7 unknown #
coedge $-1 $144 $292 $298 $303 forward $219 $-1 #
loop $-1 $-1 $292 $207 #
vertex $-1 $216 $304 #
vertex $-1 $145 $305 #
straight-curve $-1 25.299488101011825 -55.657677698568975 6.7288049677432049 0 1 0 I I #
coedge $-1 $223 $223 $-1 $306 reversed $148 $-1 #
edge $-1 $307 0 $307 6.2831853071796004 $149 $308 forward 7 unknown #
vertex $-1 $152 $309 #
ellipse-curve $-1 7.679874672070774 -21.145890979612101 3.5055683691368218 0 -0.85716730853699208 0.51503806187062418 1 0 0 1 I I #
coedge $-1 $227 $227 $-1 $310 reversed $155 $-1 #
edge $-1 $311 0 $311 6.2831853071796004 $156 $312 forward 7 unknown #
vertex $-1 $159 $313 #
ellipse-curve $-1 18.251642729435403 -21.145890979612101 3.5055683691368218 0 -0.85716730853699208 0.51503806187062418 1 0 0 1 I I #
face $-1 $-1 $175 $24 $-1 $314 reversed single #
loop $-1 $-1 $247 $160 #
plane-surface $-1 0 23.082606850787968 0 0 -1 0 0 0 -1 forward_v I I I I #
coedge $-1 $315 $245 $248 $316 forward $161 $-1 #
coedge $-1 $251 $163 $164 $239 reversed $102 $-1 #
coedge $-1 $245 $315 $163 $237 reversed $161 $-1 #
edge $-1 $252 -6.7288049677432049 $317 6.7288049677432049 $236 $318 forward 7 unknown #
coedge $-1 $165 $164 $315 $319 forward $65 $-1 #
edge $-1 $243 -51.467635120700706 $317 51.467635120700706 $235 $320 forward 7 unknown #
coedge $-1 $248 $247 $165 $241 reversed $232 $-1 #
edge $-1 $321 -51.467635120700706 $242 51.467635120700706 $240 $322 forward 7 unknown #
vertex $-1 $167 $323 #
vertex $-1 $254 $324 #
straight-curve $-1 51.467635120700706 0 -6.7288049677432049 0 -1 0 I I #
coedge $-1 $234 $236 $168 $246 reversed $161 $-1 #
edge $-1 $249 -23.082606850787968 $252 23.082606850787968 $245 $325 forward 7 unknown #
coedge $-1 $240 $169 $174 $255 forward $232 $-1 #
coedge $-1 $169 $240 $234 $316 reversed $232 $-1 #
vertex $-1 $170 $326 #
straight-curve $-1 0 23.082606850787968 6.7288049677432049 -1 0 0 I I #
coedge $-1 $171 $235 $173 $254 reversed $102 $-1 #
vertex $-1 $246 $327 #
straight-curve $-1 0 -23.082606850787968 6.7288049677432049 1 0 0 I I #
edge $-1 $176 -6.7288049677432049 $243 6.7288049677432049 $173 $328 forward 7 unknown #
edge $-1 $177 -6.7288049677432049 $242 6.7288049677432049 $174 $329 forward 7 unknown #
point $-1 51.467635120700706 -23.082606850787968 6.7288049677432049 #
point $-1 51.467635120700706 23.082606850787968 6.7288049677432049 #
plane-surface $-1 0 0 6.7288049677432049 0 0 1 1 0 0 forward_v I I I I #
coedge $-1 $269 $268 $261 $330 forward $180 $-1 #
coedge $-1 $261 $182 $184 $265 reversed $110 $-1 #
coedge $-1 $182 $260 $259 $330 reversed $110 $-1 #
coedge $-1 $190 $185 $182 $263 forward $191 $-1 #
edge $-1 $266 -10.228006839126952 $331 -4.8038393402298141 $262 $332 forward 7 unknown #
coedge $-1 $184 $183 $269 $333 reversed $69 $-1 #
edge $-1 $334 -46.165213701575937 $266 -38.978121221391717 $260 $335 forward 7 unknown #
vertex $-1 $186 $336 #
straight-curve $-1 18.083321688568212 17.658439351890824 6.7288049677432049 1 0 0 I I #
coedge $-1 $259 $187 $190 $273 reversed $180 $-1 #
coedge $-1 $187 $259 $264 $333 forward $180 $-1 #
vertex $-1 $188 $337 #
straight-curve $-1 26.788058137651824 23.082606850787968 54.993493759606686 0 0 1 I I #
straight-curve $-1 26.788058137651824 -11.7587218826515 32.300753639098843 0 0.75470957328743171 -0.6560590369687036 I I #
edge $-1 $331 -45.545228616621024 $192 -26.788058137651824 $268 $338 forward 7 unknown #
point $-1 26.788058137651824 23.082606850787968 6.7288049677432049 #
point $-1 26.788058137651824 17.658439351890831 6.7288049677432049 #
edge $-1 $339 1 $339 0 $195 $-1 forward 7 unknown #
vertex $-1 $196 $340 #
ellipse-curve $-1 30.539492233445657 17.635545581551554 1.2249948161149602 0 0.6560590369687036 0.75470957328743171 1.5 0 0 1 I I #
point $-1 32.039492233445657 20.370523101339387 4.371226482165862 #
edge $-1 $341 1 $341 0 $199 $-1 forward 7 unknown #
vertex $-1 $200 $342 #
ellipse-curve $-1 36.16664337713641 17.635545581551554 1.2249948161149602 0 0.6560590369687036 0.75470957328743171 1.5 0 0 1 I I #
point $-1 37.66664337713641 20.370523101339387 4.371226482165862 #
edge $-1 $343 1 $343 0 $203 $-1 forward 7 unknown #
vertex $-1 $204 $344 #
ellipse-curve $-1 41.793794520827163 17.635545581551554 1.2249948161149602 0 0.6560590369687036 0.75470957328743171 1.5 0 0 1 I I #
point $-1 43.293794520827163 20.370523101339387 4.371226482165862 #
plane-surface $-1 0 0 6.7288049677432049 0 0 1 1 0 0 forward_v I I I I #
coedge $-1 $299 $298 $291 $345 forward $208 $-1 #
coedge $-1 $291 $210 $212 $295 reversed $139 $-1 #
coedge $-1 $210 $290 $289 $345 reversed $139 $-1 #
coedge $-1 $218 $213 $210 $293 forward $219 $-1 #
edge $-1 $296 -36.44850259013274 $346 -32.575070847781006 $292 $347 forward 7 unknown #
coedge $-1 $212 $211 $299 $348 reversed $88 $-1 #
edge $-1 $349 0 $296 7.5206708573797174 $290 $350 forward 7 unknown #
vertex $-1 $214 $351 #
straight-curve $-1 6.4828793503765425 -19.209175108436231 6.7288049677432049 -1 0 0 I I #
coedge $-1 $289 $215 $218 $303 reversed $208 $-1 #
coedge $-1 $215 $289 $294 $348 forward $208 $-1 #
vertex $-1 $216 $352 #
straight-curve $-1 25.299488101011825 -23.082606850787968 26.64895692689538 0 0 1 I I #
straight-curve $-1 25.299488101011825 -23.082606850787968 0.28233177053044045 0 -0.51503806187062418 -0.85716730853699208 I I #
edge $-1 $346 0.63202930049434514 $220 25.299488101011825 $298 $353 forward 7 unknown #
point $-1 25.299488101011825 -23.082606850787968 6.7288049677432049 #
point $-1 25.299488101011825 -19.209175108436234 6.7288049677432049 #
edge $-1 $354 1 $354 0 $223 $-1 forward 7 unknown #
vertex $-1 $224 $355 #
ellipse-curve $-1 7.679874672070774 -20.264159930033323 2.9757709231267726 0 -0.85716730853699208 0.51503806187062418 1 0 0 1 I I #
point $-1 8.679874672070774 -21.145890979612101 3.5055683691368209 #
edge $-1 $356 1 $356 0 $227 $-1 forward 7 unknown #
vertex $-1 $228 $357 #
ellipse-curve $-1 18.251642729435403 -20.264159930033323 2.9757709231267726 0 -0.85716730853699208 0.51503806187062418 1 0 0 1 I I #
point $-1 19.251642729435403 -21.145890979612101 3.5055683691368209 #
plane-surface $-1 51.467635120700706 0 0 -1 0 0 0 0 1 forward_v I I I I #
coedge $-1 $236 $234 $238 $319 reversed $161 $-1 #
edge $-1 $249 -6.7288049677432049 $321 6.7288049677432049 $248 $358 forward 7 unknown #
vertex $-1 $319 $359 #
straight-curve $-1 -51.467635120700706 -23.082606850787968 0 0 0 -1 I I #
edge $-1 $317 -23.082606850787968 $321 23.082606850787968 $315 $360 forward 7 unknown #
straight-curve $-1 0 -23.082606850787968 -6.7288049677432049 -1 0 0 I I #
vertex $-1 $241 $361 #
straight-curve $-1 0 23.082606850787968 -6.7288049677432049 1 0 0 I I #
point $-1 51.467635120700706 23.082606850787968 -6.7288049677432049 #
point $-1 51.467635120700706 -23.082606850787968 -6.7288049677432049 #
straight-curve $-1 -51.467635120700706 0 6.7288049677432049 0 -1 0 I I #
point $-1 -51.467635120700706 23.082606850787968 6.7288049677432049 #
point $-1 -51.467635120700706 -23.082606850787968 6.7288049677432049 #
straight-curve $-1 51.467635120700706 -23.082606850787968 0 0 0 -1 I I #
straight-curve $-1 51.467635120700706 23.082606850787968 0 0 0 -1 I I #
edge $-1 $331 48.264688791863477 $334 52.979845763018147 $259 $362 forward 7 unknown #
vertex $-1 $273 $363 #
straight-curve $-1 45.545228616621024 27.886446191017782 6.7288049677432085 0 1 0 I I #
edge $-1 $334 -27.461906928052812 $270 -8.7047364490836117 $269 $364 forward 7 unknown #
vertex $-1 $333 $365 #
straight-curve $-1 45.545228616621024 -11.7587218826515 32.300753639098843 0 -0.75470957328743171 0.6560590369687036 I I #
point $-1 45.545228616621024 17.658439351890831 6.7288049677432049 #
point $-1 26.788058137651824 23.082606850787968 2.0136479965885385 #
straight-curve $-1 0 23.082606850787968 6.7288049677432049 -1 0 0 I I #
vertex $-1 $276 $366 #
point $-1 32.039492233445657 17.635545581551554 1.2249948161149602 #
vertex $-1 $280 $367 #
point $-1 37.66664337713641 17.635545581551554 1.2249948161149602 #
vertex $-1 $284 $368 #
point $-1 43.293794520827163 17.635545581551554 1.2249948161149602 #
edge $-1 $346 19.920151959152175 $349 26.36662515636494 $289 $369 forward 7 unknown #
vertex $-1 $303 $370 #
straight-curve $-1 0.63202930049434514 -55.657677698568975 6.7288049677432049 0 -1 0 I I #
edge $-1 $349 -5.8508500498821974 $300 18.816608750635282 $299 $371 forward 7 unknown #
vertex $-1 $348 $372 #
straight-curve $-1 0.63202930049434514 -23.082606850787968 0.28233177053044045 0 0.51503806187062418 0.85716730853699208 I I #
point $-1 0.63202930049434514 -19.209175108436234 6.7288049677432049 #
point $-1 25.299488101011825 -23.082606850787968 0.28233177053044045 #
straight-curve $-1 0 -23.082606850787968 6.7288049677432049 1 0 0 I I #
vertex $-1 $306 $373 #
point $-1 8.679874672070774 -20.264159930033323 2.9757709231267726 #
vertex $-1 $310 $374 #
point $-1 19.251642729435403 -20.264159930033323 2.9757709231267726 #
straight-curve $-1 -51.467635120700706 23.082606850787968 0 0 0 -1 I I #
point $-1 -51.467635120700706 -23.082606850787968 -6.7288049677432049 #
straight-curve $-1 -51.467635120700706 0 -6.7288049677432049 0 1 0 I I #
point $-1 -51.467635120700706 23.082606850787968 -6.7288049677432049 #
straight-curve $-1 45.545228616621024 23.082606850787968 54.993493759606686 0 0 -1 I I #
point $-1 45.545228616621024 23.082606850787968 6.7288049677432049 #
straight-curve $-1 18.083321688568212 23.082606850787972 2.0136479965885332 -1 0 0 I I #
point $-1 45.545228616621024 23.082606850787968 2.0136479965885385 #
point $-1 30.539492233445657 16.651457026098498 0.092930456183812571 #
point $-1 36.16664337713641 16.651457026098498 0.092930456183812571 #
point $-1 41.793794520827163 16.651457026098498 0.092930456183812571 #
straight-curve $-1 0.63202930049434514 -23.082606850787968 26.64895692689538 0 0 -1 I I #
point $-1 0.63202930049434514 -23.082606850787968 6.7288049677432049 #
straight-curve $-1 6.4828793503765425 -23.082606850787968 0.28233177053043967 1 0 0 I I #
point $-1 0.63202930049434514 -23.082606850787968 0.28233177053044045 #
point $-1 7.679874672070774 -19.406992621496329 2.4607328612561488 #
point $-1 18.251642729435403 -19.406992621496329 2.4607328612561488 #
End-of-ACIS-data 