500 0 11 0           
7 Unknown 11 ACIS 5.0 NT 24 Fri Mar 26 15:50:15 1999 
-1 9.9999999999999995e-007 1e-010 
body $-1 $11 $-1 $12 #
body $-1 $13 $-1 $14 #
body $-1 $15 $-1 $16 #
body $-1 $17 $-1 $18 #
body $-1 $19 $-1 $20 #
body $-1 $21 $-1 $22 #
body $-1 $23 $-1 $24 #
body $-1 $25 $-1 $26 #
body $-1 $27 $-1 $28 #
body $-1 $29 $-1 $30 #
body $-1 $31 $-1 $32 #
lump $-1 $-1 $33 $0 #
transform $-1 1 0 0 0 1 0 0 0 1 49.335001678518019 32.178038541000134 9.4845031291492479 1 rotate no_reflect no_shear #
lump $-1 $-1 $34 $1 #
transform $-1 1 0 0 0 1 0 0 0 1 49.335001678518019 32.178038541000134 9.4845031291492479 1 rotate no_reflect no_shear #
lump $-1 $-1 $35 $2 #
transform $-1 1 0 0 0 1 0 0 0 1 49.335001678518019 32.178038541000134 9.4845031291492479 1 rotate no_reflect no_shear #
lump $-1 $-1 $36 $3 #
transform $-1 1 0 0 0 1 0 0 0 1 49.335001678518019 32.178038541000134 9.4845031291492479 1 rotate no_reflect no_shear #
lump $-1 $-1 $37 $4 #
transform $-1 1 0 0 0 1 0 0 0 1 49.335001678518019 32.178038541000134 9.4845031291492479 1 rotate no_reflect no_shear #
lump $-1 $-1 $38 $5 #
transform $-1 1 0 0 0 1 0 0 0 1 49.335001678518019 32.178038541000134 9.4845031291492479 1 rotate no_reflect no_shear #
lump $-1 $-1 $39 $6 #
transform $-1 1 0 0 0 1 0 0 0 1 49.335001678518019 32.178038541000134 9.4845031291492479 1 rotate no_reflect no_shear #
lump $-1 $-1 $40 $7 #
transform $-1 1 0 0 0 1 0 0 0 1 49.335001678518019 32.178038541000134 9.4845031291492479 1 rotate no_reflect no_shear #
lump $-1 $-1 $41 $8 #
transform $-1 1 0 0 0 1 0 0 0 1 49.335001678518019 32.178038541000134 9.4845031291492479 1 rotate no_reflect no_shear #
lump $-1 $-1 $42 $9 #
transform $-1 1 0 0 0 1 0 0 0 1 49.335001678518019 32.178038541000134 9.4845031291492479 1 rotate no_reflect no_shear #
lump $-1 $-1 $43 $10 #
transform $-1 1 0 0 0 1 0 0 0 1 49.335001678518019 32.178038541000134 9.4845031291492479 1 rotate no_reflect no_shear #
shell $-1 $-1 $-1 $44 $-1 $11 #
shell $-1 $-1 $-1 $45 $-1 $13 #
shell $-1 $-1 $-1 $46 $-1 $15 #
shell $-1 $-1 $-1 $47 $-1 $17 #
shell $-1 $-1 $-1 $48 $-1 $19 #
shell $-1 $-1 $-1 $49 $-1 $21 #
shell $-1 $-1 $-1 $50 $-1 $23 #
shell $-1 $-1 $-1 $51 $-1 $25 #
shell $-1 $-1 $-1 $52 $-1 $27 #
shell $-1 $-1 $-1 $53 $-1 $29 #
shell $-1 $-1 $-1 $54 $-1 $31 #
face $-1 $55 $56 $33 $-1 $57 reversed single #
face $-1 $58 $59 $34 $-1 $60 forward single #
face $-1 $61 $62 $35 $-1 $63 forward single #
face $-1 $64 $65 $36 $-1 $66 reversed single #
face $-1 $67 $68 $37 $-1 $69 forward single #
face $-1 $70 $71 $38 $-1 $72 forward single #
face $-1 $73 $74 $39 $-1 $75 reversed single #
face $-1 $76 $77 $40 $-1 $78 forward single #
face $-1 $79 $80 $41 $-1 $81 forward single #
face $-1 $82 $83 $42 $-1 $84 reversed single #
face $-1 $85 $86 $43 $-1 $87 forward single #
face $-1 $88 $89 $33 $-1 $90 reversed single #
loop $-1 $-1 $91 $44 #
plane-surface $-1 0 32.178038541000134 0 0 -1 0 0 0 -1 forward_v I I I I #
face $-1 $92 $93 $34 $-1 $94 reversed single #
loop $-1 $-1 $95 $45 #
plane-surface $-1 0 -32.178038541000134 0 0 1 0 0 0 1 forward_v I I I I #
face $-1 $96 $97 $35 $-1 $98 reversed single #
loop $-1 $-1 $99 $46 #
plane-surface $-1 0 32.178038541000134 0 0 -1 0 0 0 -1 forward_v I I I I #
face $-1 $100 $101 $36 $-1 $102 reversed single #
loop $-1 $-1 $103 $47 #
plane-surface $-1 -117.8769462289174 -20.551983407047693 73.295231633758576 0 1 0 -0.69465837861970381 0 0.71933979245794832 forward_v I I I I #
face $-1 $104 $105 $37 $-1 $106 forward single #
loop $-1 $107 $108 $48 #
cone-surface $-1 -44.826042518190903 -17.743649023966281 5.0744917959596307 0.69465837861970381 0 -0.71933979245794832 0.71933979245794832 0 0.69465837861970381 1 I I 0 1 1 forward I I I I #
face $-1 $109 $110 $38 $-1 $111 forward single #
loop $-1 $112 $113 $49 #
cone-surface $-1 -44.826042518190903 -13.531147449344161 5.0744917959596307 0.69465837861970381 0 -0.71933979245794832 0.71933979245794832 0 0.69465837861970381 1 I I 0 1 1 forward I I I I #
face $-1 $114 $115 $39 $-1 $116 reversed single #
loop $-1 $-1 $117 $50 #
plane-surface $-1 -117.8769462289174 0 73.295231633758576 0 1 0 -0.69465837861970381 0 0.71933979245794832 forward_v I I I I #
face $-1 $118 $119 $40 $-1 $120 forward single #
loop $-1 $121 $122 $51 #
cone-surface $-1 -44.826042518190903 2.8083343830814158 5.0744917959596307 0.69465837861970381 0 -0.71933979245794832 0.71933979245794832 0 0.69465837861970381 1 I I 0 1 1 forward I I I I #
face $-1 $123 $124 $41 $-1 $125 forward single #
loop $-1 $126 $127 $52 #
cone-surface $-1 -44.826042518190903 7.0208359577035324 5.0744917959596307 0.69465837861970381 0 -0.71933979245794832 0.71933979245794832 0 0.69465837861970381 1 I I 0 1 1 forward I I I I #
face $-1 $128 $129 $42 $-1 $130 reversed single #
loop $-1 $-1 $131 $53 #
plane-surface $-1 20.322910498541525 20.551983407047697 138.52871473829657 0 -1 0 -0.54463904215088732 0 -0.83867056331134215 forward_v I I I I #
face $-1 $132 $133 $43 $-1 $134 forward single #
loop $-1 $135 $136 $54 #
cone-surface $-1 42.799568630766785 15.224956602712005 4.5263895940289345 -0.54463904215088732 0 -0.83867056331134215 2.0966764082783556 0 -1.3615976053772183 1 I I 0 1 2.5 forward I I I I #
face $-1 $137 $138 $33 $-1 $139 forward single #
loop $-1 $-1 $140 $55 #
plane-surface $-1 0 -32.178038541000134 0 0 1 0 0 0 1 forward_v I I I I #
coedge $-1 $141 $142 $143 $144 reversed $56 $-1 #
face $-1 $145 $146 $34 $-1 $147 reversed single #
loop $-1 $-1 $148 $58 #
plane-surface $-1 0 0 -9.4845031291492479 0 0 1 1 0 0 forward_v I I I I #
coedge $-1 $149 $150 $151 $152 forward $59 $-1 #
face $-1 $153 $154 $35 $-1 $155 reversed single #
loop $-1 $-1 $156 $61 #
plane-surface $-1 0 0 -9.4845031291492479 0 0 1 1 0 0 forward_v I I I I #
coedge $-1 $157 $158 $159 $160 forward $62 $-1 #
face $-1 $161 $162 $36 $-1 $163 reversed single #
loop $-1 $-1 $164 $64 #
plane-surface $-1 -49.335001678518012 -15.637398236655223 2.3179718970832113 -0.69465837861970381 0 0.71933979245794832 0.71933979245794832 0 0.69465837861970381 forward_v I I I I #
coedge $-1 $165 $166 $167 $168 reversed $65 $-1 #
face $-1 $-1 $169 $37 $-1 $170 forward single #
loop $-1 $171 $172 $67 #
cone-surface $-1 -43.680334252077294 -17.743649023966281 3.8880761825740624 0.69465837861970381 0 -0.71933979245794832 0.35966989622897416 0 0.3473291893098519 1 I I -0.70710678118654746 0.70710678118654746 0.5 forward I I I I #
loop $-1 $-1 $173 $48 #
coedge $-1 $108 $108 $174 $175 reversed $68 $-1 #
face $-1 $-1 $176 $38 $-1 $177 forward single #
loop $-1 $178 $179 $70 #
cone-surface $-1 -43.680334252077294 -13.531147449344161 3.8880761825740624 0.69465837861970381 0 -0.71933979245794832 0.35966989622897416 0 0.3473291893098519 1 I I -0.70710678118654746 0.70710678118654746 0.5 forward I I I I #
loop $-1 $-1 $180 $49 #
coedge $-1 $113 $113 $181 $182 reversed $71 $-1 #
face $-1 $183 $184 $39 $-1 $185 reversed single #
loop $-1 $-1 $186 $73 #
plane-surface $-1 -49.335001678518012 4.9145851703924706 2.3179718970832113 -0.69465837861970381 0 0.71933979245794832 0.71933979245794832 0 0.69465837861970381 forward_v I I I I #
coedge $-1 $187 $188 $189 $190 reversed $74 $-1 #
face $-1 $-1 $191 $40 $-1 $192 forward single #
loop $-1 $193 $194 $76 #
cone-surface $-1 -43.680334252077294 2.8083343830814158 3.8880761825740624 0.69465837861970381 0 -0.71933979245794832 0.35966989622897416 0 0.3473291893098519 1 I I -0.70710678118654746 0.70710678118654746 0.5 forward I I I I #
loop $-1 $-1 $195 $51 #
coedge $-1 $122 $122 $196 $197 reversed $77 $-1 #
face $-1 $-1 $198 $41 $-1 $199 forward single #
loop $-1 $200 $201 $79 #
cone-surface $-1 -43.680334252077294 7.0208359577035324 3.8880761825740624 0.69465837861970381 0 -0.71933979245794832 0.35966989622897416 0 0.3473291893098519 1 I I -0.70710678118654746 0.70710678118654746 0.5 forward I I I I #
loop $-1 $-1 $202 $52 #
coedge $-1 $127 $127 $203 $204 reversed $80 $-1 #
face $-1 $205 $206 $42 $-1 $207 reversed single #
loop $-1 $-1 $208 $82 #
plane-surface $-1 -33.41662561885942 15.224956602712012 55.777087440919132 0.54463904215088732 0 0.83867056331134215 0.83867056331134215 0 -0.54463904215088732 forward_v I I I I #
coedge $-1 $209 $210 $211 $212 reversed $83 $-1 #
face $-1 $-1 $213 $43 $-1 $214 forward single #
loop $-1 $215 $216 $85 #
cone-surface $-1 41.316986759876833 15.224956602712005 2.2434137575849729 -0.54463904215088732 0 -0.83867056331134215 1.0483382041391778 0 -0.68079880268860915 1 I I -0.70710678118654746 0.70710678118654746 1.25 forward I I I I #
loop $-1 $-1 $217 $54 #
coedge $-1 $136 $136 $218 $219 reversed $86 $-1 #
face $-1 $220 $221 $33 $-1 $222 reversed single #
loop $-1 $-1 $223 $88 #
plane-surface $-1 0 0 9.4845031291492479 0 0 1 1 0 0 forward_v I I I I #
coedge $-1 $224 $225 $226 $227 reversed $89 $-1 #
coedge $-1 $228 $91 $229 $230 reversed $56 $-1 #
coedge $-1 $91 $228 $231 $232 forward $56 $-1 #
coedge $-1 $233 $234 $91 $144 forward $221 $-1 #
edge $-1 $235 -49.335001678518019 $236 49.335001678518019 $91 $237 forward 7 unknown #
face $-1 $238 $239 $34 $-1 $240 reversed single #
loop $-1 $-1 $241 $92 #
plane-surface $-1 -41.826947564552633 -43.804093674952568 0 0 1 0 0 0 1 forward_v I I I I #
coedge $-1 $242 $243 $150 $244 forward $93 $-1 #
coedge $-1 $245 $95 $246 $247 reversed $59 $-1 #
coedge $-1 $95 $245 $148 $244 reversed $59 $-1 #
coedge $-1 $248 $249 $95 $152 reversed $239 $-1 #
edge $-1 $250 -9.4845031291492479 $251 9.4845031291492479 $151 $252 forward 7 unknown #
face $-1 $253 $254 $35 $-1 $255 reversed single #
loop $-1 $-1 $256 $96 #
plane-surface $-1 -43.326947564552633 37.991066107976351 0 1 0 0 0 0 -1 forward_v I I I I #
coedge $-1 $257 $258 $158 $259 forward $97 $-1 #
coedge $-1 $260 $99 $261 $262 reversed $62 $-1 #
coedge $-1 $99 $260 $156 $259 reversed $62 $-1 #
coedge $-1 $263 $264 $99 $160 reversed $265 $-1 #
edge $-1 $266 -9.4845031291492479 $267 9.4845031291492479 $159 $268 forward 7 unknown #
face $-1 $269 $270 $36 $-1 $271 reversed single #
loop $-1 $-1 $272 $100 #
plane-surface $-1 -117.8769462289174 -10.722813066262752 73.295231633758576 0 -1 0 0.69465837861970381 0 -0.71933979245794832 forward_v I I I I #
coedge $-1 $273 $274 $275 $276 reversed $101 $-1 #
coedge $-1 $166 $103 $277 $278 reversed $65 $-1 #
coedge $-1 $103 $165 $273 $279 reversed $65 $-1 #
coedge $-1 $275 $280 $103 $168 forward $281 $-1 #
edge $-1 $282 9.6034714359406834 $283 17.024631602987384 $167 $284 forward 7 unknown #
loop $-1 $-1 $174 $104 #
plane-surface $-1 -49.335001678518012 -15.637398236655223 2.3179718970832113 -0.69465837861970381 0 0.71933979245794832 0.71933979245794832 0 0.69465837861970381 forward_v I I I I #
loop $-1 $-1 $285 $67 #
coedge $-1 $172 $172 $173 $286 reversed $105 $-1 #
coedge $-1 $173 $173 $172 $286 forward $107 $-1 #
coedge $-1 $174 $174 $108 $175 forward $169 $-1 #
edge $-1 $287 0 $287 6.2831853071796004 $174 $288 forward 7 unknown #
loop $-1 $-1 $181 $109 #
plane-surface $-1 -49.335001678518012 -15.637398236655223 2.3179718970832113 -0.69465837861970381 0 0.71933979245794832 0.71933979245794832 0 0.69465837861970381 forward_v I I I I #
loop $-1 $-1 $289 $70 #
coedge $-1 $179 $179 $180 $290 reversed $110 $-1 #
coedge $-1 $180 $180 $179 $290 forward $112 $-1 #
coedge $-1 $181 $181 $113 $182 forward $176 $-1 #
edge $-1 $291 0 $291 6.2831853071796004 $181 $292 forward 7 unknown #
face $-1 $293 $294 $39 $-1 $295 forward single #
loop $-1 $-1 $296 $114 #
plane-surface $-1 -117.8769462289174 9.8291703407849411 73.295231633758576 0 -1 0 0.69465837861970381 0 -0.71933979245794832 forward_v I I I I #
coedge $-1 $297 $298 $299 $300 reversed $115 $-1 #
coedge $-1 $188 $117 $301 $302 reversed $74 $-1 #
coedge $-1 $117 $187 $297 $303 reversed $74 $-1 #
coedge $-1 $299 $304 $117 $190 forward $294 $-1 #
edge $-1 $305 9.6034714359406834 $306 17.024631602987384 $189 $307 forward 7 unknown #
loop $-1 $-1 $196 $118 #
plane-surface $-1 -49.335001678518012 4.9145851703924706 2.3179718970832113 -0.69465837861970381 0 0.71933979245794832 0.71933979245794832 0 0.69465837861970381 forward_v I I I I #
loop $-1 $-1 $308 $76 #
coedge $-1 $194 $194 $195 $309 reversed $119 $-1 #
coedge $-1 $195 $195 $194 $309 forward $121 $-1 #
coedge $-1 $196 $196 $122 $197 forward $191 $-1 #
edge $-1 $310 0 $310 6.2831853071796004 $196 $311 forward 7 unknown #
loop $-1 $-1 $203 $123 #
plane-surface $-1 -49.335001678518012 4.9145851703924706 2.3179718970832113 -0.69465837861970381 0 0.71933979245794832 0.71933979245794832 0 0.69465837861970381 forward_v I I I I #
loop $-1 $-1 $312 $79 #
coedge $-1 $201 $201 $202 $313 reversed $124 $-1 #
coedge $-1 $202 $202 $201 $313 forward $126 $-1 #
coedge $-1 $203 $203 $127 $204 forward $198 $-1 #
edge $-1 $314 0 $314 6.2831853071796004 $203 $315 forward 7 unknown #
face $-1 $316 $317 $42 $-1 $318 forward single #
loop $-1 $-1 $319 $128 #
plane-surface $-1 20.322910498541525 9.8979297983763281 138.52871473829657 0 1 0 0.54463904215088732 0 0.83867056331134215 forward_v I I I I #
coedge $-1 $320 $321 $322 $323 reversed $129 $-1 #
coedge $-1 $210 $131 $324 $325 reversed $83 $-1 #
coedge $-1 $131 $209 $320 $326 reversed $83 $-1 #
coedge $-1 $322 $327 $131 $212 forward $317 $-1 #
edge $-1 $328 -39.173546429247253 $329 -27.706246470147466 $211 $330 forward 7 unknown #
loop $-1 $-1 $218 $132 #
plane-surface $-1 -33.41662561885942 15.224956602712012 55.777087440919132 0.54463904215088732 0 0.83867056331134215 0.83867056331134215 0 -0.54463904215088732 forward_v I I I I #
loop $-1 $-1 $331 $85 #
coedge $-1 $216 $216 $217 $332 reversed $133 $-1 #
coedge $-1 $217 $217 $216 $332 forward $135 $-1 #
coedge $-1 $218 $218 $136 $219 forward $213 $-1 #
edge $-1 $333 0 $333 6.2831853071796004 $218 $334 forward 7 unknown #
face $-1 $335 $336 $33 $-1 $337 reversed single #
loop $-1 $-1 $233 $137 #
plane-surface $-1 0 0 -9.4845031291492479 0 0 1 1 0 0 forward_v I I I I #
coedge $-1 $338 $339 $340 $341 forward $138 $-1 #
coedge $-1 $342 $140 $343 $344 reversed $89 $-1 #
coedge $-1 $140 $342 $345 $346 forward $89 $-1 #
coedge $-1 $234 $233 $140 $227 forward $221 $-1 #
edge $-1 $347 -49.335001678518019 $348 49.335001678518019 $140 $349 forward 7 unknown #
coedge $-1 $142 $141 $338 $350 reversed $56 $-1 #
coedge $-1 $351 $352 $141 $230 forward $336 $-1 #
edge $-1 $353 -9.4845031291492479 $235 9.4845031291492479 $141 $354 forward 7 unknown #
coedge $-1 $340 $355 $142 $232 reversed $356 $-1 #
edge $-1 $357 -9.4845031291492479 $236 9.4845031291492479 $231 $358 forward 7 unknown #
coedge $-1 $226 $143 $355 $359 forward $221 $-1 #
coedge $-1 $143 $226 $351 $360 forward $221 $-1 #
vertex $-1 $144 $361 #
vertex $-1 $359 $362 #
straight-curve $-1 0 32.178038541000134 -9.4845031291492479 1 0 0 I I #
face $-1 $363 $364 $34 $-1 $365 reversed single #
loop $-1 $-1 $151 $145 #
plane-surface $-1 -43.326947564552633 -37.991066107976351 0 1 0 0 0 0 -1 forward_v I I I I #
coedge $-1 $366 $367 $368 $369 forward $146 $-1 #
coedge $-1 $370 $148 $371 $372 forward $93 $-1 #
coedge $-1 $148 $370 $248 $373 forward $93 $-1 #
edge $-1 $250 -43.326947564552633 $374 -40.326947564552633 $148 $375 forward 7 unknown #
coedge $-1 $150 $149 $376 $377 forward $59 $-1 #
coedge $-1 $378 $379 $149 $247 forward $380 $-1 #
edge $-1 $381 40.326947564552633 $251 43.326947564552633 $246 $382 forward 7 unknown #
coedge $-1 $368 $151 $243 $373 reversed $239 $-1 #
coedge $-1 $151 $368 $378 $383 reversed $239 $-1 #
vertex $-1 $244 $384 #
vertex $-1 $383 $385 #
straight-curve $-1 -43.326947564552633 -32.178038541000134 0 0 0 1 I I #
face $-1 $386 $265 $35 $-1 $387 reversed single #
loop $-1 $-1 $388 $153 #
plane-surface $-1 -41.826947564552633 43.804093674952568 0 0 -1 0 0 0 -1 forward_v I I I I #
coedge $-1 $389 $390 $391 $392 forward $154 $-1 #
coedge $-1 $393 $156 $389 $394 forward $97 $-1 #
coedge $-1 $156 $393 $263 $395 forward $97 $-1 #
edge $-1 $266 40.326947564552633 $396 43.326947564552633 $156 $397 forward 7 unknown #
coedge $-1 $158 $157 $398 $399 forward $62 $-1 #
coedge $-1 $400 $401 $157 $262 forward $402 $-1 #
edge $-1 $403 -43.326947564552633 $267 -40.326947564552633 $261 $404 forward 7 unknown #
coedge $-1 $405 $159 $258 $395 reversed $265 $-1 #
coedge $-1 $159 $405 $400 $406 reversed $265 $-1 #
loop $-1 $-1 $159 $253 #
vertex $-1 $259 $407 #
vertex $-1 $406 $408 #
straight-curve $-1 -40.326947564552633 32.178038541000134 0 0 0 1 I I #
face $-1 $-1 $281 $36 $-1 $409 forward single #
loop $-1 $-1 $410 $161 #
plane-surface $-1 -49.335001678518019 0 0 1 0 0 0 0 -1 forward_v I I I I #
coedge $-1 $411 $412 $413 $414 reversed $162 $-1 #
coedge $-1 $415 $164 $166 $279 forward $101 $-1 #
coedge $-1 $164 $415 $411 $416 forward $101 $-1 #
coedge $-1 $413 $167 $164 $276 forward $281 $-1 #
edge $-1 $283 -12.733284288720082 $417 -2.9041139479351408 $275 $418 forward 7 unknown #
coedge $-1 $419 $420 $165 $278 forward $270 $-1 #
edge $-1 $421 -34.329643919796084 $282 -27.163112687730042 $277 $422 forward 7 unknown #
edge $-1 $283 -10.316626780355023 $421 9.7385709978959816e-015 $166 $423 forward 7 unknown #
coedge $-1 $167 $413 $419 $424 forward $281 $-1 #
loop $-1 $-1 $413 $269 #
vertex $-1 $278 $425 #
vertex $-1 $168 $426 #
straight-curve $-1 -58.938473114458702 -20.551983407047693 9.4845031291492461 1 0 0 I I #
coedge $-1 $285 $285 $-1 $427 reversed $171 $-1 #
edge $-1 $428 0 $428 6.2831853071796004 $172 $429 forward 7 unknown #
vertex $-1 $175 $430 #
ellipse-curve $-1 -45.624421594994665 -17.743649023966281 5.9012375131162287 -0.69465837861970381 0 0.71933979245794832 0.71933979245794832 0 0.69465837861970381 1 I I #
coedge $-1 $289 $289 $-1 $431 reversed $178 $-1 #
edge $-1 $432 0 $432 6.2831853071796004 $179 $433 forward 7 unknown #
vertex $-1 $182 $434 #
ellipse-curve $-1 -45.624421594994665 -13.531147449344161 5.9012375131162287 -0.69465837861970381 0 0.71933979245794832 0.71933979245794832 0 0.69465837861970381 1 I I #
face $-1 $-1 $435 $39 $-1 $436 reversed single #
loop $-1 $-1 $189 $183 #
plane-surface $-1 0 0 9.4845031291492479 0 0 1 1 0 0 forward_v I I I I #
coedge $-1 $437 $438 $439 $440 reversed $184 $-1 #
coedge $-1 $441 $186 $188 $303 forward $115 $-1 #
coedge $-1 $186 $441 $437 $442 forward $115 $-1 #
coedge $-1 $439 $189 $186 $300 forward $294 $-1 #
edge $-1 $306 -2.4572925851962353 $443 7.3718777555887058 $299 $444 forward 7 unknown #
coedge $-1 $445 $446 $187 $302 forward $435 $-1 #
edge $-1 $447 -34.329643919796084 $305 -27.163112687730042 $301 $448 forward 7 unknown #
edge $-1 $306 -10.316626780355023 $447 9.7385709978959816e-015 $188 $449 forward 7 unknown #
coedge $-1 $189 $439 $445 $450 forward $294 $-1 #
vertex $-1 $302 $451 #
vertex $-1 $190 $452 #
straight-curve $-1 -58.938473114458702 0 9.4845031291492461 1 0 0 I I #
coedge $-1 $308 $308 $-1 $453 reversed $193 $-1 #
edge $-1 $454 0 $454 6.2831853071796004 $194 $455 forward 7 unknown #
vertex $-1 $197 $456 #
ellipse-curve $-1 -45.624421594994665 2.8083343830814158 5.9012375131162287 -0.69465837861970381 0 0.71933979245794832 0.71933979245794832 0 0.69465837861970381 1 I I #
coedge $-1 $312 $312 $-1 $457 reversed $200 $-1 #
edge $-1 $458 0 $458 6.2831853071796004 $201 $459 forward 7 unknown #
vertex $-1 $204 $460 #
ellipse-curve $-1 -45.624421594994665 7.0208359577035324 5.9012375131162287 -0.69465837861970381 0 0.71933979245794832 0.71933979245794832 0 0.69465837861970381 1 I I #
face $-1 $-1 $461 $42 $-1 $462 reversed single #
loop $-1 $-1 $211 $205 #
plane-surface $-1 0 0 9.4845031291492479 0 0 1 1 0 0 forward_v I I I I #
coedge $-1 $463 $464 $465 $466 reversed $206 $-1 #
coedge $-1 $467 $208 $210 $326 forward $129 $-1 #
coedge $-1 $208 $467 $463 $468 forward $129 $-1 #
coedge $-1 $465 $211 $208 $323 forward $317 $-1 #
edge $-1 $329 -12.939505105691691 $469 -2.2854514970203219 $322 $470 forward 7 unknown #
coedge $-1 $471 $472 $209 $325 forward $461 $-1 #
edge $-1 $473 -67.226806045630099 $328 -59.77985423999904 $324 $474 forward 7 unknown #
edge $-1 $329 84.996815742314965 $473 98.670003357036052 $210 $475 forward 7 unknown #
coedge $-1 $211 $465 $471 $476 forward $317 $-1 #
vertex $-1 $212 $477 #
vertex $-1 $212 $478 #
straight-curve $-1 10.161455249270762 20.551983407047697 9.4845031291492461 -1 0 0 I I #
coedge $-1 $331 $331 $-1 $479 reversed $215 $-1 #
edge $-1 $480 0 $480 6.2831853071796004 $216 $481 forward 7 unknown #
vertex $-1 $219 $482 #
ellipse-curve $-1 43.601351698968131 15.224956602712005 5.7610272263337192 0.54463904215088732 0 0.83867056331134215 2.0966764082783556 0 -1.3615976053772183 1 I I #
face $-1 $-1 $356 $33 $-1 $483 reversed single #
loop $-1 $-1 $229 $220 #
plane-surface $-1 -49.335001678518019 0 0 1 0 0 0 0 -1 forward_v I I I I #
coedge $-1 $484 $223 $228 $350 forward $138 $-1 #
coedge $-1 $223 $484 $342 $485 forward $138 $-1 #
coedge $-1 $343 $231 $223 $341 reversed $356 $-1 #
edge $-1 $486 -32.178038541000134 $357 32.178038541000134 $340 $487 forward 7 unknown #
coedge $-1 $225 $224 $339 $485 reversed $89 $-1 #
coedge $-1 $355 $340 $224 $344 forward $356 $-1 #
edge $-1 $486 -9.4845031291492479 $347 9.4845031291492479 $343 $488 forward 7 unknown #
coedge $-1 $352 $351 $225 $346 reversed $336 $-1 #
edge $-1 $489 -9.4845031291492479 $348 9.4845031291492479 $345 $490 forward 7 unknown #
vertex $-1 $344 $491 #
vertex $-1 $360 $492 #
straight-curve $-1 0 -32.178038541000134 -9.4845031291492479 -1 0 0 I I #
edge $-1 $357 -49.335001678518019 $353 49.335001678518019 $228 $493 forward 7 unknown #
coedge $-1 $345 $229 $234 $360 reversed $336 $-1 #
coedge $-1 $229 $345 $484 $494 reversed $336 $-1 #
vertex $-1 $350 $495 #
straight-curve $-1 -49.335001678518019 32.178038541000134 0 0 0 -1 I I #
coedge $-1 $231 $343 $233 $359 reversed $356 $-1 #
loop $-1 $-1 $343 $335 #
vertex $-1 $341 $496 #
straight-curve $-1 49.335001678518019 32.178038541000134 0 0 0 -1 I I #
edge $-1 $236 -32.178038541000134 $347 32.178038541000134 $355 $497 forward 7 unknown #
edge $-1 $348 -32.178038541000134 $235 32.178038541000134 $351 $498 forward 7 unknown #
point $-1 -49.335001678518019 32.178038541000134 -9.4845031291492479 #
point $-1 49.335001678518019 32.178038541000134 -9.4845031291492479 #
face $-1 $-1 $380 $34 $-1 $499 forward single #
loop $-1 $-1 $500 $238 #
plane-surface $-1 -40.326947564552633 -37.991066107976351 0 -1 0 0 0 0 1 forward_v I I I I #
coedge $-1 $501 $241 $370 $502 reversed $146 $-1 #
coedge $-1 $241 $501 $503 $504 reversed $146 $-1 #
coedge $-1 $249 $248 $241 $369 reversed $239 $-1 #
edge $-1 $505 -9.4845031291492479 $506 9.4845031291492479 $368 $507 forward 7 unknown #
coedge $-1 $243 $242 $366 $502 forward $93 $-1 #
coedge $-1 $376 $500 $242 $372 reversed $364 $-1 #
edge $-1 $374 -5.813027566976217 $508 5.813027566976217 $371 $509 forward 7 unknown #
edge $-1 $506 -5.813027566976217 $250 5.813027566976217 $248 $510 forward 7 unknown #
vertex $-1 $372 $511 #
straight-curve $-1 0 -32.178038541000134 -9.4845031291492479 1 0 0 I I #
coedge $-1 $512 $371 $245 $377 reversed $364 $-1 #
edge $-1 $381 -9.4845031291492479 $374 9.4845031291492479 $376 $513 forward 7 unknown #
coedge $-1 $503 $246 $249 $383 forward $380 $-1 #
coedge $-1 $246 $503 $512 $514 forward $380 $-1 #
loop $-1 $-1 $246 $363 #
vertex $-1 $247 $515 #
straight-curve $-1 0 -32.178038541000134 9.4845031291492479 -1 0 0 I I #
edge $-1 $251 -5.813027566976217 $505 5.813027566976217 $249 $516 forward 7 unknown #
point $-1 -43.326947564552633 -32.178038541000134 -9.4845031291492479 #
point $-1 -43.326947564552633 -32.178038541000134 9.4845031291492479 #
face $-1 $-1 $402 $35 $-1 $517 forward single #
plane-surface $-1 -40.326947564552633 37.991066107976351 0 -1 0 0 0 0 1 forward_v I I I I #
coedge $-1 $518 $519 $405 $520 forward $254 $-1 #
coedge $-1 $398 $256 $257 $394 reversed $154 $-1 #
coedge $-1 $256 $398 $401 $521 reversed $154 $-1 #
coedge $-1 $519 $518 $256 $392 reversed $254 $-1 #
edge $-1 $522 -9.4845031291492479 $523 9.4845031291492479 $391 $524 forward 7 unknown #
coedge $-1 $258 $257 $518 $525 forward $97 $-1 #
edge $-1 $396 -5.813027566976217 $523 5.813027566976217 $389 $526 forward 7 unknown #
edge $-1 $527 -5.813027566976217 $266 5.813027566976217 $263 $528 forward 7 unknown #
vertex $-1 $394 $529 #
straight-curve $-1 0 32.178038541000134 -9.4845031291492479 -1 0 0 I I #
coedge $-1 $390 $389 $260 $399 reversed $154 $-1 #
edge $-1 $403 -9.4845031291492479 $396 9.4845031291492479 $398 $530 forward 7 unknown #
coedge $-1 $531 $261 $264 $406 forward $402 $-1 #
coedge $-1 $261 $531 $390 $521 forward $402 $-1 #
loop $-1 $-1 $261 $386 #
vertex $-1 $262 $532 #
straight-curve $-1 0 32.178038541000134 9.4845031291492479 1 0 0 I I #
coedge $-1 $264 $263 $388 $520 reversed $265 $-1 #
edge $-1 $267 -5.813027566976217 $533 5.813027566976217 $264 $534 forward 7 unknown #
point $-1 -40.326947564552633 32.178038541000134 -9.4845031291492479 #
point $-1 -40.326947564552633 32.178038541000134 9.4845031291492479 #
plane-surface $-1 0 0 9.4845031291492479 0 0 1 1 0 0 forward_v I I I I #
coedge $-1 $420 $419 $412 $535 forward $270 $-1 #
coedge $-1 $412 $272 $274 $416 reversed $162 $-1 #
coedge $-1 $272 $411 $410 $535 reversed $162 $-1 #
coedge $-1 $280 $275 $272 $414 forward $281 $-1 #
edge $-1 $417 -17.024631602987384 $536 -9.6034714359406834 $413 $537 forward 7 unknown #
coedge $-1 $274 $273 $420 $538 reversed $101 $-1 #
edge $-1 $539 -9.7385709978959816e-015 $417 10.316626780355023 $411 $540 forward 7 unknown #
vertex $-1 $276 $541 #
straight-curve $-1 -41.913841511471318 -7.8186991183276113 9.4845031291492479 0 1 0 I I #
coedge $-1 $410 $277 $280 $424 reversed $270 $-1 #
coedge $-1 $277 $410 $415 $538 forward $270 $-1 #
vertex $-1 $278 $542 #
straight-curve $-1 -49.335001678518019 -20.551983407047693 36.647615816879288 0 0 1 I I #
straight-curve $-1 -49.335001678518012 -20.551983407047693 2.3179718970832113 -0.71933979245794832 0 -0.69465837861970381 I I #
edge $-1 $536 10.722813066262752 $282 20.551983407047693 $419 $543 forward 7 unknown #
point $-1 -49.335001678518019 -20.551983407047693 9.4845031291492479 #
point $-1 -41.913841511471318 -20.551983407047693 9.4845031291492479 #
edge $-1 $544 1 $544 0 $285 $-1 forward 7 unknown #
vertex $-1 $286 $545 #
ellipse-curve $-1 -44.027663441387148 -17.743649023966281 4.2477460788030363 -0.69465837861970381 0 0.71933979245794832 0.71933979245794832 0 0.69465837861970381 1 I I #
point $-1 -44.905081802536714 -17.743649023966281 6.5958958917359283 #
edge $-1 $546 1 $546 0 $289 $-1 forward 7 unknown #
vertex $-1 $290 $547 #
ellipse-curve $-1 -44.027663441387148 -13.531147449344161 4.2477460788030363 -0.69465837861970381 0 0.71933979245794832 0.71933979245794832 0 0.69465837861970381 1 I I #
point $-1 -44.905081802536714 -13.531147449344161 6.5958958917359283 #
loop $-1 $-1 $301 $293 #
plane-surface $-1 -49.335001678518019 0 0 1 0 0 0 0 -1 forward_v I I I I #
coedge $-1 $438 $296 $298 $442 reversed $184 $-1 #
coedge $-1 $296 $437 $548 $549 reversed $184 $-1 #
coedge $-1 $304 $299 $296 $440 forward $294 $-1 #
edge $-1 $443 -17.024631602987384 $550 -9.6034714359406834 $439 $551 forward 7 unknown #
coedge $-1 $298 $297 $446 $552 reversed $115 $-1 #
edge $-1 $553 -9.7385709978959816e-015 $443 10.316626780355023 $437 $554 forward 7 unknown #
vertex $-1 $300 $555 #
straight-curve $-1 -41.913841511471318 2.4572925851962353 9.4845031291492479 0 1 0 I I #
coedge $-1 $548 $301 $304 $450 reversed $435 $-1 #
coedge $-1 $301 $548 $441 $552 forward $435 $-1 #
vertex $-1 $302 $556 #
straight-curve $-1 -49.335001678518019 0 36.647615816879288 0 0 1 I I #
straight-curve $-1 -49.335001678518012 0 2.3179718970832113 -0.71933979245794832 0 -0.69465837861970381 I I #
edge $-1 $550 -9.8291703407849411 $305 0 $445 $557 forward 7 unknown #
point $-1 -49.335001678518019 0 9.4845031291492479 #
point $-1 -41.913841511471318 0 9.4845031291492479 #
edge $-1 $558 1 $558 0 $308 $-1 forward 7 unknown #
vertex $-1 $309 $559 #
ellipse-curve $-1 -44.027663441387148 2.8083343830814158 4.2477460788030363 -0.69465837861970381 0 0.71933979245794832 0.71933979245794832 0 0.69465837861970381 1 I I #
point $-1 -44.905081802536714 2.8083343830814158 6.5958958917359283 #
edge $-1 $560 1 $560 0 $312 $-1 forward 7 unknown #
vertex $-1 $313 $561 #
ellipse-curve $-1 -44.027663441387148 7.0208359577035324 4.2477460788030363 -0.69465837861970381 0 0.71933979245794832 0.71933979245794832 0 0.69465837861970381 1 I I #
point $-1 -44.905081802536714 7.0208359577035324 6.5958958917359283 #
loop $-1 $-1 $324 $316 #
plane-surface $-1 49.335001678518019 0 0 -1 0 0 0 0 1 forward_v I I I I #
coedge $-1 $464 $319 $321 $468 reversed $206 $-1 #
coedge $-1 $319 $463 $562 $563 reversed $206 $-1 #
coedge $-1 $327 $322 $319 $466 forward $317 $-1 #
edge $-1 $469 27.706246470147466 $564 39.173546429247253 $465 $565 forward 7 unknown #
coedge $-1 $321 $320 $472 $566 reversed $129 $-1 #
edge $-1 $567 -98.670003357036052 $469 -84.996815742314965 $463 $568 forward 7 unknown #
vertex $-1 $323 $569 #
straight-curve $-1 37.867701719418235 7.6124783013560062 9.4845031291492461 0 -1 0 I I #
coedge $-1 $562 $324 $327 $476 reversed $461 $-1 #
coedge $-1 $324 $562 $467 $566 forward $461 $-1 #
vertex $-1 $325 $570 #
straight-curve $-1 49.335001678518019 20.551983407047697 69.264357369148286 0 0 1 I I #
straight-curve $-1 -33.41662561885942 20.551983407047697 55.777087440919132 0.83867056331134215 0 -0.54463904215088732 I I #
edge $-1 $564 9.8979297983763281 $328 20.551983407047697 $471 $571 forward 7 unknown #
point $-1 49.335001678518019 20.551983407047697 9.4845031291492479 #
point $-1 37.867701719418228 20.551983407047697 9.4845031291492461 #
edge $-1 $572 1 $572 0 $331 $-1 forward 7 unknown #
vertex $-1 $332 $573 #
ellipse-curve $-1 41.99778556256544 15.224956602712005 3.2917519617241506 0.54463904215088732 0 0.83867056331134215 2.0966764082783556 0 -1.3615976053772183 1 I I #
point $-1 45.698028107246486 15.224956602712005 4.3994296209565 #
plane-surface $-1 49.335001678518019 0 0 -1 0 0 0 0 1 forward_v I I I I #
coedge $-1 $339 $338 $352 $494 forward $138 $-1 #
edge $-1 $489 -49.335001678518019 $486 49.335001678518019 $342 $574 forward 7 unknown #
vertex $-1 $341 $575 #
straight-curve $-1 49.335001678518019 0 9.4845031291492479 0 1 0 I I #
straight-curve $-1 49.335001678518019 -32.178038541000134 0 0 0 -1 I I #
vertex $-1 $494 $576 #
straight-curve $-1 -49.335001678518019 -32.178038541000134 0 0 0 -1 I I #
point $-1 49.335001678518019 -32.178038541000134 -9.4845031291492479 #
point $-1 -49.335001678518019 -32.178038541000134 -9.4845031291492479 #
straight-curve $-1 0 32.178038541000134 9.4845031291492479 -1 0 0 I I #
edge $-1 $353 -32.178038541000134 $489 32.178038541000134 $352 $577 forward 7 unknown #
point $-1 -49.335001678518019 32.178038541000134 9.4845031291492479 #
point $-1 49.335001678518019 32.178038541000134 9.4845031291492479 #
straight-curve $-1 49.335001678518019 0 -9.4845031291492479 0 -1 0 I I #
straight-curve $-1 -49.335001678518019 0 -9.4845031291492479 0 1 0 I I #
plane-surface $-1 0 0 9.4845031291492479 0 0 1 1 0 0 forward_v I I I I #
coedge $-1 $371 $512 $501 $578 forward $364 $-1 #
coedge $-1 $367 $366 $500 $578 reversed $146 $-1 #
edge $-1 $508 -1.5 $506 1.5 $366 $579 forward 7 unknown #
coedge $-1 $379 $378 $367 $504 forward $380 $-1 #
edge $-1 $505 -1.5 $580 1.5 $367 $581 forward 7 unknown #
vertex $-1 $383 $582 #
vertex $-1 $373 $583 #
straight-curve $-1 -43.326947564552633 -43.804093674952568 0 0 0 -1 I I #
vertex $-1 $578 $584 #
straight-curve $-1 -40.326947564552633 -37.991066107976351 -9.4845031291492479 0 -1 0 I I #
straight-curve $-1 -43.326947564552633 -37.991066107976351 -9.4845031291492479 0 1 0 I I #
point $-1 -40.326947564552633 -32.178038541000134 -9.4845031291492479 #
coedge $-1 $500 $376 $379 $514 reversed $364 $-1 #
straight-curve $-1 -40.326947564552633 -32.178038541000134 0 0 0 -1 I I #
edge $-1 $580 -5.813027566976217 $381 5.813027566976217 $512 $585 forward 7 unknown #
point $-1 -40.326947564552633 -32.178038541000134 9.4845031291492479 #
straight-curve $-1 -43.326947564552633 -37.991066107976351 9.4845031291492479 0 -1 0 I I #
plane-surface $-1 0 0 9.4845031291492479 0 0 1 1 0 0 forward_v I I I I #
coedge $-1 $391 $388 $393 $525 reversed $254 $-1 #
coedge $-1 $388 $391 $531 $586 reversed $254 $-1 #
edge $-1 $533 -9.4845031291492479 $527 9.4845031291492479 $405 $587 forward 7 unknown #
edge $-1 $522 -5.813027566976217 $403 5.813027566976217 $390 $588 forward 7 unknown #
vertex $-1 $586 $589 #
vertex $-1 $525 $590 #
straight-curve $-1 -43.326947564552633 43.804093674952568 0 0 0 -1 I I #
edge $-1 $523 -1.5 $527 1.5 $518 $591 forward 7 unknown #
straight-curve $-1 -43.326947564552633 37.991066107976351 -9.4845031291492479 0 1 0 I I #
vertex $-1 $395 $592 #
straight-curve $-1 -40.326947564552633 37.991066107976351 -9.4845031291492479 0 -1 0 I I #
point $-1 -43.326947564552633 32.178038541000134 -9.4845031291492479 #
straight-curve $-1 -43.326947564552633 32.178038541000134 0 0 0 -1 I I #
coedge $-1 $401 $400 $519 $586 forward $402 $-1 #
point $-1 -43.326947564552633 32.178038541000134 9.4845031291492479 #
vertex $-1 $406 $593 #
straight-curve $-1 -40.326947564552633 37.991066107976351 9.4845031291492479 0 1 0 I I #
edge $-1 $536 27.163112687730042 $539 34.329643919796084 $410 $594 forward 7 unknown #
vertex $-1 $424 $595 #
straight-curve $-1 -58.938473114458702 -10.722813066262752 9.4845031291492461 -1 0 0 I I #
edge $-1 $539 2.9041139479351408 $421 12.733284288720082 $420 $596 forward 7 unknown #
vertex $-1 $538 $597 #
straight-curve $-1 -49.335001678518012 -10.722813066262752 2.3179718970832113 0.71933979245794832 0 0.69465837861970381 I I #
point $-1 -41.913841511471318 -10.722813066262752 9.4845031291492479 #
point $-1 -49.335001678518019 -20.551983407047693 2.3179718970832046 #
straight-curve $-1 -49.335001678518019 0 9.4845031291492479 0 -1 0 I I #
vertex $-1 $427 $598 #
point $-1 -43.308323648929196 -17.743649023966281 4.9424044574227404 #
vertex $-1 $431 $599 #
point $-1 -43.308323648929196 -13.531147449344161 4.9424044574227404 #
coedge $-1 $446 $445 $438 $549 forward $435 $-1 #
edge $-1 $550 27.163112687730042 $553 34.329643919796084 $548 $600 forward 7 unknown #
vertex $-1 $450 $601 #
straight-curve $-1 -58.938473114458702 9.8291703407849411 9.4845031291492461 -1 0 0 I I #
edge $-1 $553 -7.3718777555887058 $447 2.4572925851962353 $446 $602 forward 7 unknown #
vertex $-1 $552 $603 #
straight-curve $-1 -49.335001678518012 9.8291703407849411 2.3179718970832113 0.71933979245794832 0 0.69465837861970381 I I #
point $-1 -41.913841511471318 9.8291703407849411 9.4845031291492479 #
point $-1 -49.335001678518019 0 2.3179718970832046 #
straight-curve $-1 -49.335001678518019 0 9.4845031291492479 0 -1 0 I I #
vertex $-1 $453 $604 #
point $-1 -43.308323648929196 2.8083343830814158 4.9424044574227404 #
vertex $-1 $457 $605 #
point $-1 -43.308323648929196 7.0208359577035324 4.9424044574227404 #
coedge $-1 $472 $471 $464 $563 forward $461 $-1 #
edge $-1 $564 59.77985423999904 $567 67.226806045630099 $562 $606 forward 7 unknown #
vertex $-1 $476 $607 #
straight-curve $-1 10.161455249270762 9.8979297983763281 9.4845031291492461 1 0 0 I I #
edge $-1 $567 2.2854514970203219 $473 12.939505105691691 $472 $608 forward 7 unknown #
vertex $-1 $566 $609 #
straight-curve $-1 -33.41662561885942 9.8979297983763281 55.777087440919132 -0.83867056331134215 0 0.54463904215088732 I I #
point $-1 37.867701719418228 9.8979297983763281 9.4845031291492461 #
point $-1 49.335001678518019 20.551983407047697 2.037551323518187 #
straight-curve $-1 49.335001678518019 0 9.4845031291492479 0 1 0 I I #
vertex $-1 $479 $610 #
point $-1 44.094461970843795 15.224956602712005 1.9301543563469323 #
straight-curve $-1 0 -32.178038541000134 9.4845031291492479 1 0 0 I I #
point $-1 49.335001678518019 -32.178038541000134 9.4845031291492479 #
point $-1 -49.335001678518019 -32.178038541000134 9.4845031291492479 #
straight-curve $-1 -49.335001678518019 0 9.4845031291492479 0 -1 0 I I #
edge $-1 $580 -9.4845031291492479 $508 9.4845031291492479 $500 $611 forward 7 unknown #
straight-curve $-1 -41.826947564552633 -43.804093674952568 -9.4845031291492479 -1 0 0 I I #
vertex $-1 $514 $612 #
straight-curve $-1 -41.826947564552633 -43.804093674952568 9.4845031291492479 1 0 0 I I #
point $-1 -43.326947564552633 -43.804093674952568 9.4845031291492479 #
point $-1 -43.326947564552633 -43.804093674952568 -9.4845031291492479 #
point $-1 -40.326947564552633 -43.804093674952568 -9.4845031291492479 #
straight-curve $-1 -40.326947564552633 -37.991066107976351 9.4845031291492479 0 1 0 I I #
edge $-1 $533 -1.5 $522 1.5 $519 $613 forward 7 unknown #
straight-curve $-1 -40.326947564552633 43.804093674952568 0 0 0 -1 I I #
straight-curve $-1 -43.326947564552633 37.991066107976351 9.4845031291492479 0 -1 0 I I #
point $-1 -43.326947564552633 43.804093674952568 9.4845031291492479 #
point $-1 -43.326947564552633 43.804093674952568 -9.4845031291492479 #
straight-curve $-1 -41.826947564552633 43.804093674952568 -9.4845031291492479 1 0 0 I I #
point $-1 -40.326947564552633 43.804093674952568 -9.4845031291492479 #
point $-1 -40.326947564552633 43.804093674952568 9.4845031291492479 #
straight-curve $-1 -49.335001678518019 -10.722813066262752 36.647615816879288 0 0 -1 I I #
point $-1 -49.335001678518019 -10.722813066262752 9.4845031291492479 #
straight-curve $-1 -49.335001678518019 -7.8186991183276113 2.3179718970832028 0 -1 0 I I #
point $-1 -49.335001678518019 -10.722813066262752 2.3179718970832046 #
point $-1 -43.333005062767441 -17.743649023966281 3.5284062863450885 #
point $-1 -43.333005062767441 -13.531147449344161 3.5284062863450885 #
straight-curve $-1 -49.335001678518019 9.8291703407849411 36.647615816879288 0 0 -1 I I #
point $-1 -49.335001678518019 9.8291703407849411 9.4845031291492479 #
straight-curve $-1 -49.335001678518019 2.4572925851962353 2.3179718970832028 0 -1 0 I I #
point $-1 -49.335001678518019 9.8291703407849411 2.3179718970832046 #
point $-1 -43.333005062767441 2.8083343830814158 3.5284062863450885 #
point $-1 -43.333005062767441 7.0208359577035324 3.5284062863450885 #
straight-curve $-1 49.335001678518019 9.8979297983763281 69.264357369148286 0 0 -1 I I #
point $-1 49.335001678518019 9.8979297983763281 9.4845031291492479 #
straight-curve $-1 49.335001678518019 7.6124783013560062 2.037551323518187 0 1 0 I I #
point $-1 49.335001678518019 9.8979297983763281 2.037551323518187 #
point $-1 40.636187957188227 15.224956602712005 1.1950755534457951 #
straight-curve $-1 -40.326947564552633 -43.804093674952568 0 0 0 -1 I I #
point $-1 -40.326947564552633 -43.804093674952568 9.4845031291492479 #
straight-curve $-1 -41.826947564552633 43.804093674952568 9.4845031291492479 -1 0 0 I I #
End-of-ACIS-data 