500 0 7 0           
7 Unknown 11 ACIS 5.0 NT 24 Fri Mar 26 03:08:23 1999 
-1 9.9999999999999995e-007 1e-010 
body $-1 $7 $-1 $8 #
body $-1 $9 $-1 $10 #
body $-1 $11 $-1 $12 #
body $-1 $13 $-1 $14 #
body $-1 $15 $-1 $16 #
body $-1 $17 $-1 $18 #
body $-1 $19 $-1 $20 #
lump $-1 $-1 $21 $0 #
transform $-1 1 0 0 0 1 0 0 0 1 50.709555345316936 21.620002749264405 8.0574049370766971 1 rotate no_reflect no_shear #
lump $-1 $-1 $22 $1 #
transform $-1 1 0 0 0 1 0 0 0 1 50.709555345316936 21.620002749264405 8.0574049370766971 1 rotate no_reflect no_shear #
lump $-1 $-1 $23 $2 #
transform $-1 1 0 0 0 1 0 0 0 1 50.709555345316936 21.620002749264405 8.0574049370766971 1 rotate no_reflect no_shear #
lump $-1 $-1 $24 $3 #
transform $-1 1 0 0 0 1 0 0 0 1 50.709555345316936 21.620002749264405 8.0574049370766971 1 rotate no_reflect no_shear #
lump $-1 $-1 $25 $4 #
transform $-1 1 0 0 0 1 0 0 0 1 50.709555345316936 21.620002749264405 8.0574049370766971 1 rotate no_reflect no_shear #
lump $-1 $-1 $26 $5 #
transform $-1 1 0 0 0 1 0 0 0 1 50.709555345316936 21.620002749264405 8.0574049370766971 1 rotate no_reflect no_shear #
lump $-1 $-1 $27 $6 #
transform $-1 1 0 0 0 1 0 0 0 1 50.709555345316936 21.620002749264405 8.0574049370766971 1 rotate no_reflect no_shear #
shell $-1 $-1 $-1 $28 $-1 $7 #
shell $-1 $-1 $-1 $29 $-1 $9 #
shell $-1 $-1 $-1 $30 $-1 $11 #
shell $-1 $-1 $-1 $31 $-1 $13 #
shell $-1 $-1 $-1 $32 $-1 $15 #
shell $-1 $-1 $-1 $33 $-1 $17 #
shell $-1 $-1 $-1 $34 $-1 $19 #
face $-1 $35 $36 $21 $-1 $37 forward single #
face $-1 $38 $39 $22 $-1 $40 forward single #
face $-1 $41 $42 $23 $-1 $43 reversed single #
face $-1 $44 $45 $24 $-1 $46 forward single #
face $-1 $47 $48 $25 $-1 $49 reversed single #
face $-1 $50 $51 $26 $-1 $52 forward single #
face $-1 $53 $54 $27 $-1 $55 forward single #
face $-1 $56 $57 $21 $-1 $58 reversed single #
loop $-1 $-1 $59 $28 #
plane-surface $-1 0 0 8.0574049370766971 0 0 1 1 0 0 forward_v I I I I #
face $-1 $60 $61 $22 $-1 $62 reversed single #
loop $-1 $-1 $63 $29 #
plane-surface $-1 0 -18.38791788484464 3.9472946859801308 0 0 1 1 0 0 forward_v I I I I #
face $-1 $64 $65 $23 $-1 $66 reversed single #
loop $-1 $-1 $67 $30 #
plane-surface $-1 -131.70645937433875 -11.192523577280557 65.604139372188286 0 1 0 -0.79863551827123203 0 0.60181501223851219 forward_v I I I I #
face $-1 $68 $69 $24 $-1 $70 forward single #
loop $-1 $71 $72 $31 #
cone-surface $-1 -48.966511157239125 -5.919284428356768 5.9900715476744146 0.79863551827123203 0 -0.60181501223851219 0.3009075061192561 0 0.39931775913561601 1 I I 0 1 0.5 forward I I I I #
face $-1 $73 $74 $25 $-1 $75 reversed single #
loop $-1 $-1 $76 $32 #
plane-surface $-1 -8.9031010768713088 16.311360632614733 86.640760910564836 0.80901700255871778 0 0.5877852410284794 0.5877852410284794 0 -0.80901700255871778 forward_v I I I I #
face $-1 $77 $78 $26 $-1 $79 forward single #
loop $-1 $80 $81 $33 #
cone-surface $-1 47.885449592381711 14.036228296907726 5.187259136841452 -0.80901700255871778 0 -0.5877852410284794 0.5877852410284794 0 -0.80901700255871778 1 I I 0 1 1 forward I I I I #
face $-1 $82 $83 $27 $-1 $84 forward single #
loop $-1 $85 $86 $34 #
cone-surface $-1 47.885449592381711 18.586492968321732 5.187259136841452 -0.80901700255871778 0 -0.5877852410284794 0.5877852410284794 0 -0.80901700255871778 1 I I 0 1 1 forward I I I I #
face $-1 $87 $88 $21 $-1 $89 reversed single #
loop $-1 $-1 $90 $35 #
plane-surface $-1 0 0 -8.0574049370766971 0 0 1 1 0 0 forward_v I I I I #
coedge $-1 $91 $92 $93 $94 forward $36 $-1 #
face $-1 $95 $96 $22 $-1 $97 reversed single #
loop $-1 $-1 $98 $38 #
plane-surface $-1 0 -18.38791788484464 0.94729468598013078 0 0 1 1 0 0 forward_v I I I I #
coedge $-1 $99 $100 $101 $102 reversed $39 $-1 #
face $-1 $103 $104 $23 $-1 $105 reversed single #
loop $-1 $-1 $106 $41 #
plane-surface $-1 -50.709555345316915 -5.919284428356768 4.5685960306854412 -0.79863551827123203 0 0.60181501223851219 0.60181501223851219 0 0.79863551827123203 forward_v I I I I #
coedge $-1 $107 $108 $109 $110 reversed $42 $-1 #
face $-1 $-1 $111 $24 $-1 $112 forward single #
loop $-1 $113 $114 $44 #
cone-surface $-1 -48.338311092942661 -5.919284428356768 5.5166888584081271 0.79863551827123203 0 -0.60181501223851219 0.15045375305962805 0 0.19965887956780801 1 I I -0.70710678118654746 0.70710678118654746 0.25 forward I I I I #
loop $-1 $-1 $115 $31 #
coedge $-1 $72 $72 $116 $117 reversed $45 $-1 #
face $-1 $118 $119 $25 $-1 $120 forward single #
loop $-1 $-1 $121 $47 #
plane-surface $-1 73.146683856236109 11.002718515965057 146.25341733275309 0 1 0 0.80901700255871778 0 0.5877852410284794 forward_v I I I I #
coedge $-1 $122 $123 $124 $125 reversed $48 $-1 #
face $-1 $-1 $126 $26 $-1 $127 forward single #
loop $-1 $128 $129 $50 #
cone-surface $-1 45.916089331033639 14.036228296907726 3.7564351959016307 -0.80901700255871778 0 -0.5877852410284794 0.2938926205142397 0 -0.40450850127935889 1 I I -0.70710678118654746 0.70710678118654746 0.5 forward I I I I #
loop $-1 $-1 $130 $33 #
coedge $-1 $81 $81 $131 $132 reversed $51 $-1 #
face $-1 $-1 $133 $27 $-1 $134 forward single #
loop $-1 $135 $136 $53 #
cone-surface $-1 45.916089331033639 18.586492968321732 3.7564351959016307 -0.80901700255871778 0 -0.5877852410284794 0.2938926205142397 0 -0.40450850127935889 1 I I -0.70710678118654746 0.70710678118654746 0.5 forward I I I I #
loop $-1 $-1 $137 $34 #
coedge $-1 $86 $86 $138 $139 reversed $54 $-1 #
face $-1 $140 $141 $21 $-1 $142 reversed single #
loop $-1 $-1 $143 $56 #
plane-surface $-1 0 -21.620002749264405 0 0 1 0 0 0 1 forward_v I I I I #
coedge $-1 $144 $145 $146 $147 forward $57 $-1 #
coedge $-1 $148 $59 $149 $150 forward $36 $-1 #
coedge $-1 $59 $148 $151 $152 forward $36 $-1 #
coedge $-1 $153 $154 $59 $94 reversed $155 $-1 #
edge $-1 $156 -21.620002749264405 $157 21.620002749264405 $93 $158 forward 7 unknown #
face $-1 $159 $160 $22 $-1 $161 reversed single #
loop $-1 $-1 $162 $60 #
plane-surface $-1 0 -15.155833020424875 2.4472946859801308 0 -1 0 0 0 -1 forward_v I I I I #
coedge $-1 $163 $164 $165 $166 reversed $61 $-1 #
coedge $-1 $167 $63 $168 $169 forward $39 $-1 #
coedge $-1 $63 $167 $170 $171 reversed $39 $-1 #
coedge $-1 $172 $173 $63 $102 forward $174 $-1 #
edge $-1 $175 5.9618740780025554 $176 12.426043806842085 $101 $177 forward 7 unknown #
face $-1 $178 $179 $23 $-1 $180 reversed single #
loop $-1 $-1 $181 $64 #
plane-surface $-1 -131.70645937433875 -0.64604527943297807 65.604139372188286 0 -1 0 0.79863551827123203 0 -0.60181501223851219 forward_v I I I I #
coedge $-1 $182 $183 $184 $185 reversed $65 $-1 #
coedge $-1 $108 $67 $186 $187 reversed $42 $-1 #
coedge $-1 $67 $107 $182 $188 reversed $42 $-1 #
coedge $-1 $184 $189 $67 $110 forward $190 $-1 #
edge $-1 $191 15.143674341852439 $192 17.772680348550765 $109 $193 forward 7 unknown #
loop $-1 $-1 $116 $68 #
plane-surface $-1 -50.709555345316915 -5.919284428356768 4.5685960306854412 -0.79863551827123203 0 0.60181501223851219 0.60181501223851219 0 0.79863551827123203 forward_v I I I I #
loop $-1 $-1 $194 $44 #
coedge $-1 $114 $114 $115 $195 reversed $69 $-1 #
coedge $-1 $115 $115 $114 $195 forward $71 $-1 #
coedge $-1 $116 $116 $72 $117 forward $111 $-1 #
edge $-1 $196 0 $196 6.2831853071796004 $116 $197 forward 7 unknown #
face $-1 $198 $199 $25 $-1 $200 reversed single #
loop $-1 $-1 $124 $73 #
plane-surface $-1 0 0 8.0574049370766971 0 0 1 1 0 0 forward_v I I I I #
coedge $-1 $201 $202 $203 $204 reversed $74 $-1 #
coedge $-1 $205 $76 $206 $207 reversed $48 $-1 #
coedge $-1 $76 $205 $201 $208 forward $48 $-1 #
coedge $-1 $203 $209 $76 $125 forward $119 $-1 #
edge $-1 $210 -13.464322432957042 $211 -2.8470381996576908 $124 $212 forward 7 unknown #
loop $-1 $-1 $131 $77 #
plane-surface $-1 -8.9031010768713088 16.311360632614733 86.640760910564836 0.80901700255871778 0 0.5877852410284794 0.5877852410284794 0 -0.80901700255871778 forward_v I I I I #
loop $-1 $-1 $213 $50 #
coedge $-1 $129 $129 $130 $214 reversed $78 $-1 #
coedge $-1 $130 $130 $129 $214 forward $80 $-1 #
coedge $-1 $131 $131 $81 $132 forward $126 $-1 #
edge $-1 $215 0 $215 6.2831853071796004 $131 $216 forward 7 unknown #
loop $-1 $-1 $138 $82 #
plane-surface $-1 -8.9031010768713088 16.311360632614733 86.640760910564836 0.80901700255871778 0 0.5877852410284794 0.5877852410284794 0 -0.80901700255871778 forward_v I I I I #
loop $-1 $-1 $217 $53 #
coedge $-1 $136 $136 $137 $218 reversed $83 $-1 #
coedge $-1 $137 $137 $136 $218 forward $85 $-1 #
coedge $-1 $138 $138 $86 $139 forward $133 $-1 #
edge $-1 $219 0 $219 6.2831853071796004 $138 $220 forward 7 unknown #
face $-1 $221 $222 $21 $-1 $223 reversed single #
loop $-1 $-1 $224 $87 #
plane-surface $-1 -50.709555345316936 0 0 1 0 0 0 0 -1 forward_v I I I I #
coedge $-1 $225 $151 $226 $227 forward $88 $-1 #
coedge $-1 $228 $90 $225 $229 forward $57 $-1 #
coedge $-1 $90 $228 $230 $231 forward $57 $-1 #
coedge $-1 $154 $153 $90 $147 reversed $155 $-1 #
edge $-1 $232 -21.620002749264405 $233 21.620002749264405 $146 $234 forward 7 unknown #
coedge $-1 $92 $91 $235 $236 forward $36 $-1 #
coedge $-1 $237 $238 $91 $150 reversed $222 $-1 #
edge $-1 $157 -50.709555345316936 $239 50.709555345316936 $149 $240 forward 7 unknown #
coedge $-1 $143 $241 $92 $152 reversed $88 $-1 #
edge $-1 $242 -50.709555345316936 $156 50.709555345316936 $151 $243 forward 7 unknown #
coedge $-1 $146 $93 $241 $244 forward $155 $-1 #
coedge $-1 $93 $146 $237 $245 reversed $155 $-1 #
loop $-1 $-1 $153 $221 #
vertex $-1 $94 $246 #
vertex $-1 $94 $247 #
straight-curve $-1 50.709555345316936 0 8.0574049370766971 0 1 0 I I #
face $-1 $248 $249 $22 $-1 $250 reversed single #
loop $-1 $-1 $251 $95 #
plane-surface $-1 -50.709555345316936 0 0 1 0 0 0 0 -1 forward_v I I I I #
coedge $-1 $252 $168 $173 $253 reversed $96 $-1 #
coedge $-1 $254 $98 $255 $256 reversed $61 $-1 #
coedge $-1 $98 $254 $252 $257 forward $61 $-1 #
coedge $-1 $173 $172 $98 $166 forward $174 $-1 #
edge $-1 $258 -12.426043806842085 $259 -5.9618740780025554 $165 $260 forward 7 unknown #
coedge $-1 $100 $99 $251 $261 reversed $39 $-1 #
coedge $-1 $162 $262 $99 $169 reversed $96 $-1 #
edge $-1 $175 -50.709555345316936 $263 50.709555345316936 $168 $264 forward 7 unknown #
coedge $-1 $265 $266 $100 $171 forward $249 $-1 #
edge $-1 $176 -50.709555345316936 $267 50.709555345316936 $170 $268 forward 7 unknown #
coedge $-1 $165 $101 $266 $269 forward $174 $-1 #
coedge $-1 $101 $165 $162 $253 forward $174 $-1 #
loop $-1 $-1 $101 $248 #
vertex $-1 $102 $270 #
vertex $-1 $269 $271 #
straight-curve $-1 50.709555345316936 -9.19395894242232 3.9472946859801308 0 -1 0 I I #
face $-1 $-1 $190 $23 $-1 $272 forward single #
loop $-1 $-1 $273 $103 #
plane-surface $-1 -50.709555345316936 0 0 1 0 0 0 0 -1 forward_v I I I I #
coedge $-1 $274 $275 $276 $277 reversed $104 $-1 #
coedge $-1 $278 $106 $108 $188 forward $65 $-1 #
coedge $-1 $106 $278 $274 $279 forward $65 $-1 #
coedge $-1 $276 $109 $106 $185 forward $190 $-1 #
edge $-1 $192 -8.2328813631021731 $280 2.313596934745406 $184 $281 forward 7 unknown #
coedge $-1 $282 $283 $107 $187 forward $179 $-1 #
edge $-1 $284 -28.23347365540873 $191 -24.744664749017446 $186 $285 forward 7 unknown #
edge $-1 $192 -4.3684619912013325 $284 3.5527045197628586e-014 $108 $286 forward 7 unknown #
coedge $-1 $109 $276 $282 $287 forward $190 $-1 #
loop $-1 $-1 $276 $178 #
vertex $-1 $187 $288 #
vertex $-1 $110 $289 #
straight-curve $-1 -65.853229687169375 -11.192523577280557 8.0574049370766971 1 0 0 I I #
coedge $-1 $194 $194 $-1 $290 reversed $113 $-1 #
edge $-1 $291 0 $291 6.2831853071796004 $114 $292 forward 7 unknown #
vertex $-1 $117 $293 #
ellipse-curve $-1 -49.395052341967769 -5.919284428356768 6.3130004838810621 -0.79863551827123203 0 0.60181501223851219 0.3009075061192561 0 0.39931775913561601 1 I I #
face $-1 $-1 $294 $25 $-1 $295 reversed single #
loop $-1 $-1 $296 $118 #
plane-surface $-1 50.709555345316936 0 0 -1 0 0 0 0 1 forward_v I I I I #
coedge $-1 $202 $121 $123 $208 reversed $74 $-1 #
coedge $-1 $121 $201 $297 $298 reversed $74 $-1 #
coedge $-1 $299 $124 $121 $204 forward $119 $-1 #
edge $-1 $211 11.617705431465879 $300 14.136213417198881 $203 $301 forward 7 unknown #
coedge $-1 $123 $122 $296 $302 reversed $48 $-1 #
coedge $-1 $303 $304 $122 $207 forward $294 $-1 #
edge $-1 $305 -63.755630638813145 $210 -59.470888848893011 $206 $306 forward 7 unknown #
edge $-1 $307 -101.41911069063384 $211 -97.13436890071371 $201 $308 forward 7 unknown #
coedge $-1 $124 $299 $303 $309 forward $119 $-1 #
vertex $-1 $207 $310 #
vertex $-1 $125 $311 #
straight-curve $-1 48.191047359583933 8.1556803163073663 8.0574049370766971 0 -1 0 I I #
coedge $-1 $213 $213 $-1 $312 reversed $128 $-1 #
edge $-1 $313 0 $313 6.2831853071796004 $129 $314 forward 7 unknown #
vertex $-1 $132 $315 #
ellipse-curve $-1 49.450301352450452 14.036228296907726 6.3241904572670506 0.80901700255871778 0 0.5877852410284794 0.5877852410284794 0 -0.80901700255871778 1 I I #
coedge $-1 $217 $217 $-1 $316 reversed $135 $-1 #
edge $-1 $317 0 $317 6.2831853071796004 $136 $318 forward 7 unknown #
vertex $-1 $139 $319 #
ellipse-curve $-1 49.450301352450452 18.586492968321732 6.3241904572670506 0.80901700255871778 0 0.5877852410284794 0.5877852410284794 0 -0.80901700255871778 1 I I #
face $-1 $-1 $155 $21 $-1 $320 reversed single #
loop $-1 $-1 $237 $140 #
plane-surface $-1 0 21.620002749264405 0 0 -1 0 0 0 -1 forward_v I I I I #
coedge $-1 $321 $235 $238 $322 forward $141 $-1 #
coedge $-1 $241 $143 $144 $229 reversed $88 $-1 #
coedge $-1 $235 $321 $143 $227 reversed $141 $-1 #
edge $-1 $242 -8.0574049370766971 $323 8.0574049370766971 $226 $324 forward 7 unknown #
coedge $-1 $145 $144 $321 $325 forward $57 $-1 #
edge $-1 $233 -50.709555345316936 $323 50.709555345316936 $225 $326 forward 7 unknown #
coedge $-1 $238 $237 $145 $231 reversed $222 $-1 #
edge $-1 $327 -50.709555345316936 $232 50.709555345316936 $230 $328 forward 7 unknown #
vertex $-1 $147 $329 #
vertex $-1 $244 $330 #
straight-curve $-1 50.709555345316936 0 -8.0574049370766971 0 -1 0 I I #
coedge $-1 $224 $226 $148 $236 reversed $141 $-1 #
edge $-1 $239 -21.620002749264405 $242 21.620002749264405 $235 $331 forward 7 unknown #
coedge $-1 $230 $149 $154 $245 forward $222 $-1 #
coedge $-1 $149 $230 $224 $322 reversed $222 $-1 #
vertex $-1 $150 $332 #
straight-curve $-1 0 21.620002749264405 8.0574049370766971 -1 0 0 I I #
coedge $-1 $151 $225 $153 $244 reversed $88 $-1 #
vertex $-1 $236 $333 #
straight-curve $-1 0 -21.620002749264405 8.0574049370766971 1 0 0 I I #
edge $-1 $156 -8.0574049370766971 $233 8.0574049370766971 $153 $334 forward 7 unknown #
edge $-1 $157 -8.0574049370766971 $232 8.0574049370766971 $154 $335 forward 7 unknown #
point $-1 50.709555345316936 -21.620002749264405 8.0574049370766971 #
point $-1 50.709555345316936 21.620002749264405 8.0574049370766971 #
face $-1 $-1 $174 $22 $-1 $336 reversed single #
loop $-1 $-1 $170 $159 #
plane-surface $-1 0 -21.620002749264405 0 0 1 0 0 0 1 forward_v I I I I #
coedge $-1 $337 $338 $167 $261 forward $160 $-1 #
coedge $-1 $262 $162 $164 $257 reversed $96 $-1 #
edge $-1 $259 -0.27635265700993461 $175 2.7236473429900654 $173 $339 forward 7 unknown #
coedge $-1 $164 $163 $340 $341 reversed $61 $-1 #
coedge $-1 $266 $265 $163 $256 forward $249 $-1 #
edge $-1 $342 -50.709555345316936 $258 50.709555345316936 $255 $343 forward 7 unknown #
edge $-1 $344 -50.709555345316936 $259 50.709555345316936 $252 $345 forward 7 unknown #
vertex $-1 $256 $346 #
vertex $-1 $166 $347 #
straight-curve $-1 50.709555345316936 -9.19395894242232 0.94729468598013078 0 1 0 I I #
edge $-1 $267 -12.426043806842085 $263 -5.9618740780025554 $251 $348 forward 7 unknown #
coedge $-1 $168 $252 $337 $349 reversed $96 $-1 #
vertex $-1 $261 $350 #
straight-curve $-1 0 -15.155833020424875 3.9472946859801308 -1 0 0 I I #
coedge $-1 $255 $170 $338 $351 forward $249 $-1 #
coedge $-1 $170 $255 $172 $269 reversed $249 $-1 #
vertex $-1 $351 $352 #
straight-curve $-1 0 -21.620002749264405 3.9472946859801308 -1 0 0 I I #
edge $-1 $176 -3.9472946859801308 $258 -0.94729468598013078 $172 $353 forward 7 unknown #
point $-1 50.709555345316936 -15.155833020424875 3.9472946859801308 #
point $-1 50.709555345316936 -21.620002749264405 3.9472946859801308 #
plane-surface $-1 0 0 8.0574049370766971 0 0 1 1 0 0 forward_v I I I I #
coedge $-1 $283 $282 $275 $354 forward $179 $-1 #
coedge $-1 $275 $181 $183 $279 reversed $104 $-1 #
coedge $-1 $181 $274 $273 $354 reversed $104 $-1 #
coedge $-1 $189 $184 $181 $277 forward $190 $-1 #
edge $-1 $280 -17.772680348550765 $355 -15.143674341852439 $276 $356 forward 7 unknown #
coedge $-1 $183 $182 $283 $357 reversed $65 $-1 #
edge $-1 $358 -3.5527045197628586e-014 $280 4.3684619912013325 $274 $359 forward 7 unknown #
vertex $-1 $185 $360 #
straight-curve $-1 -48.08054933861861 -2.959642214178384 8.0574049370766989 0 1 0 I I #
coedge $-1 $273 $186 $189 $287 reversed $179 $-1 #
coedge $-1 $186 $273 $278 $357 forward $179 $-1 #
vertex $-1 $187 $361 #
straight-curve $-1 -50.709555345316936 -11.192523577280557 32.802069686094143 0 0 1 I I #
straight-curve $-1 -50.709555345316915 -11.192523577280557 4.5685960306854412 -0.60181501223851219 0 -0.79863551827123203 I I #
edge $-1 $355 0.64604527943297807 $191 11.192523577280557 $282 $362 forward 7 unknown #
point $-1 -50.709555345316936 -11.192523577280557 8.0574049370766971 #
point $-1 -48.08054933861861 -11.192523577280557 8.0574049370766971 #
edge $-1 $363 1 $363 0 $194 $-1 forward 7 unknown #
vertex $-1 $195 $364 #
ellipse-curve $-1 -48.537969972510467 -5.919284428356768 5.6671426114677548 -0.79863551827123203 0 0.60181501223851219 0.3009075061192561 0 0.39931775913561601 1 I I #
point $-1 -49.094144835848525 -5.919284428356768 6.712318243016691 #
loop $-1 $-1 $206 $198 #
plane-surface $-1 0 21.620002749264405 0 0 -1 0 0 0 -1 forward_v I I I I #
coedge $-1 $365 $297 $205 $302 forward $199 $-1 #
coedge $-1 $296 $366 $202 $298 forward $199 $-1 #
edge $-1 $300 65.069303729299847 $307 68.535732688919111 $297 $367 forward 7 unknown #
coedge $-1 $209 $203 $366 $368 forward $119 $-1 #
vertex $-1 $368 $369 #
straight-curve $-1 36.573341928118055 11.002718515965057 8.0574049370766971 1 0 0 I I #
edge $-1 $307 2.8470381996576908 $305 13.464322432957042 $296 $370 forward 7 unknown #
coedge $-1 $304 $206 $209 $309 reversed $294 $-1 #
coedge $-1 $206 $303 $365 $371 forward $294 $-1 #
vertex $-1 $207 $372 #
straight-curve $-1 13.234936623359449 21.620002749264405 56.170365173110795 -0.5877852410284794 0 0.80901700255871778 I I #
vertex $-1 $302 $373 #
straight-curve $-1 -8.9031010768713088 11.002718515965057 86.640760910564836 -0.5877852410284794 0 0.80901700255871778 I I #
edge $-1 $374 -50.709555345316936 $210 -48.191047359583933 $303 $375 forward 7 unknown #
point $-1 48.191047359583933 21.620002749264408 8.0574049370766971 #
point $-1 48.191047359583933 11.002718515965057 8.0574049370766971 #
edge $-1 $376 1 $376 0 $213 $-1 forward 7 unknown #
vertex $-1 $214 $377 #
ellipse-curve $-1 46.320597832312998 14.036228296907726 4.0503278164158703 0.80901700255871778 0 0.5877852410284794 0.5877852410284794 0 -0.80901700255871778 1 I I #
point $-1 50.038086593478901 14.036228296907726 5.5151734547083153 #
edge $-1 $378 1 $378 0 $217 $-1 forward 7 unknown #
vertex $-1 $218 $379 #
ellipse-curve $-1 46.320597832312998 18.586492968321732 4.0503278164158703 0.80901700255871778 0 0.5877852410284794 0.5877852410284794 0 -0.80901700255871778 1 I I #
point $-1 50.038086593478901 18.586492968321732 5.5151734547083153 #
plane-surface $-1 50.709555345316936 0 0 -1 0 0 0 0 1 forward_v I I I I #
coedge $-1 $226 $224 $228 $325 reversed $141 $-1 #
edge $-1 $239 -8.0574049370766971 $327 8.0574049370766971 $238 $380 forward 7 unknown #
vertex $-1 $325 $381 #
straight-curve $-1 -50.709555345316936 -21.620002749264405 0 0 0 -1 I I #
edge $-1 $323 -21.620002749264405 $327 21.620002749264405 $321 $382 forward 7 unknown #
straight-curve $-1 0 -21.620002749264405 -8.0574049370766971 -1 0 0 I I #
vertex $-1 $231 $383 #
straight-curve $-1 0 21.620002749264405 -8.0574049370766971 1 0 0 I I #
point $-1 50.709555345316936 21.620002749264405 -8.0574049370766971 #
point $-1 50.709555345316936 -21.620002749264405 -8.0574049370766971 #
straight-curve $-1 -50.709555345316936 0 8.0574049370766971 0 -1 0 I I #
point $-1 -50.709555345316936 21.620002749264405 8.0574049370766971 #
point $-1 -50.709555345316936 -21.620002749264405 8.0574049370766971 #
straight-curve $-1 50.709555345316936 -21.620002749264405 0 0 0 -1 I I #
straight-curve $-1 50.709555345316936 21.620002749264405 0 0 0 -1 I I #
plane-surface $-1 50.709555345316936 0 0 -1 0 0 0 0 1 forward_v I I I I #
coedge $-1 $340 $251 $262 $349 forward $160 $-1 #
coedge $-1 $251 $340 $265 $351 reversed $160 $-1 #
straight-curve $-1 50.709555345316936 -15.155833020424875 1.2236473429900654 0 0 1 I I #
coedge $-1 $338 $337 $254 $341 forward $160 $-1 #
edge $-1 $344 5.9618740780025554 $342 12.426043806842085 $340 $384 forward 7 unknown #
vertex $-1 $256 $385 #
straight-curve $-1 0 -21.620002749264405 0.94729468598013078 1 0 0 I I #
vertex $-1 $341 $386 #
straight-curve $-1 0 -15.155833020424875 0.94729468598013078 1 0 0 I I #
point $-1 50.709555345316936 -21.620002749264405 0.94729468598013078 #
point $-1 50.709555345316936 -15.155833020424875 0.94729468598013078 #
straight-curve $-1 -50.709555345316936 -9.19395894242232 3.9472946859801308 0 1 0 I I #
edge $-1 $263 -2.7236473429900654 $344 0.27635265700993461 $337 $387 forward 7 unknown #
point $-1 -50.709555345316936 -15.155833020424875 3.9472946859801308 #
edge $-1 $267 -3.9472946859801308 $342 -0.94729468598013078 $338 $388 forward 7 unknown #
point $-1 -50.709555345316936 -21.620002749264405 3.9472946859801308 #
straight-curve $-1 50.709555345316936 -21.620002749264405 0 0 0 -1 I I #
edge $-1 $355 24.744664749017446 $358 28.23347365540873 $273 $389 forward 7 unknown #
vertex $-1 $287 $390 #
straight-curve $-1 -65.853229687169375 -0.64604527943297807 8.0574049370766971 -1 0 0 I I #
edge $-1 $358 -2.313596934745406 $284 8.2328813631021731 $283 $391 forward 7 unknown #
vertex $-1 $357 $392 #
straight-curve $-1 -50.709555345316915 -0.64604527943297807 4.5685960306854412 0.60181501223851219 0 0.79863551827123203 I I #
point $-1 -48.08054933861861 -0.64604527943297807 8.0574049370766971 #
point $-1 -50.709555345316936 -11.192523577280557 4.5685960306854128 #
straight-curve $-1 -50.709555345316936 0 8.0574049370766971 0 -1 0 I I #
vertex $-1 $290 $393 #
point $-1 -48.237062466391215 -5.919284428356768 6.0664603706033713 #
coedge $-1 $366 $296 $304 $371 reversed $199 $-1 #
coedge $-1 $297 $365 $299 $368 reversed $199 $-1 #
straight-curve $-1 50.709555345316936 11.002718515965057 73.126708666376544 0 0 -1 I I #
edge $-1 $300 11.002718515965057 $374 21.620002749264405 $366 $394 forward 7 unknown #
point $-1 50.709555345316936 11.002718515965057 8.0574049370766971 #
straight-curve $-1 50.709555345316943 8.1556803163073663 4.5909759774574255 0 1 0 I I #
edge $-1 $374 -8.0574049370766971 $305 -4.5909759774574326 $365 $395 forward 7 unknown #
point $-1 50.709555345316936 21.620002749264408 4.5909759774574326 #
point $-1 50.709555345316936 11.002718515965057 4.5909759774574326 #
vertex $-1 $368 $396 #
straight-curve $-1 0 21.620002749264405 8.0574049370766971 -1 0 0 I I #
vertex $-1 $312 $397 #
point $-1 46.908383073341476 14.036228296907726 3.2413108138571527 #
vertex $-1 $316 $398 #
point $-1 46.908383073341476 18.586492968321732 3.2413108138571527 #
straight-curve $-1 -50.709555345316936 21.620002749264405 0 0 0 -1 I I #
point $-1 -50.709555345316936 -21.620002749264405 -8.0574049370766971 #
straight-curve $-1 -50.709555345316936 0 -8.0574049370766971 0 1 0 I I #
point $-1 -50.709555345316936 21.620002749264405 -8.0574049370766971 #
straight-curve $-1 -50.709555345316936 -9.19395894242232 0.94729468598013078 0 -1 0 I I #
point $-1 -50.709555345316936 -21.620002749264405 0.94729468598013078 #
point $-1 -50.709555345316936 -15.155833020424875 0.94729468598013078 #
straight-curve $-1 -50.709555345316936 -15.155833020424875 1.2236473429900654 0 0 -1 I I #
straight-curve $-1 -50.709555345316936 -21.620002749264405 0 0 0 -1 I I #
straight-curve $-1 -50.709555345316936 -0.64604527943297807 32.802069686094143 0 0 -1 I I #
point $-1 -50.709555345316936 -0.64604527943297807 8.0574049370766971 #
straight-curve $-1 -50.709555345316936 -2.959642214178384 4.5685960306854128 0 -1 0 I I #
point $-1 -50.709555345316936 -0.64604527943297807 4.5685960306854128 #
point $-1 -48.138652213374854 -5.919284428356768 5.3662351053484993 #
straight-curve $-1 50.709555345316936 0 8.0574049370766971 0 1 0 I I #
straight-curve $-1 50.709555345316936 21.620002749264405 0 0 0 -1 I I #
point $-1 50.709555345316936 21.620002749264405 8.0574049370766971 #
point $-1 45.51158082975428 14.036228296907726 3.4625425753873911 #
point $-1 45.51158082975428 18.586492968321732 3.4625425753873911 #
End-of-ACIS-data 