500 0 3 0           
7 Unknown 11 ACIS 5.0 NT 24 Fri Mar 26 00:28:16 1999 
-1 9.9999999999999995e-007 1e-010 
body $-1 $3 $-1 $4 #
body $-1 $5 $-1 $6 #
body $-1 $7 $-1 $8 #
lump $-1 $-1 $9 $0 #
transform $-1 1 0 0 0 1 0 0 0 1 74.407788323618277 35.371119542344665 14.057556119026387 1 rotate no_reflect no_shear #
lump $-1 $-1 $10 $1 #
transform $-1 1 0 0 0 1 0 0 0 1 74.407788323618277 35.371119542344665 14.057556119026387 1 rotate no_reflect no_shear #
lump $-1 $-1 $11 $2 #
transform $-1 1 0 0 0 1 0 0 0 1 74.407788323618277 35.371119542344665 14.057556119026387 1 rotate no_reflect no_shear #
shell $-1 $-1 $-1 $12 $-1 $3 #
shell $-1 $-1 $-1 $13 $-1 $5 #
shell $-1 $-1 $-1 $14 $-1 $7 #
face $-1 $15 $16 $9 $-1 $17 forward single #
face $-1 $18 $19 $10 $-1 $20 reversed single #
face $-1 $21 $22 $11 $-1 $23 reversed single #
face $-1 $24 $25 $9 $-1 $26 reversed single #
loop $-1 $-1 $27 $12 #
plane-surface $-1 0 0 14.057556119026387 0 0 1 1 0 0 forward_v I I I I #
face $-1 $28 $29 $10 $-1 $30 reversed single #
loop $-1 $-1 $31 $13 #
plane-surface $-1 -79.080193582468809 -14.84074675711684 0 0 1 0 0 0 1 forward_v I I I I #
face $-1 $32 $33 $11 $-1 $34 reversed single #
loop $-1 $-1 $35 $14 #
plane-surface $-1 79.080193582468823 -14.84074675711684 0 0 1 0 0 0 1 forward_v I I I I #
face $-1 $36 $37 $9 $-1 $38 reversed single #
loop $-1 $-1 $39 $15 #
plane-surface $-1 0 0 -14.057556119026387 0 0 1 1 0 0 forward_v I I I I #
coedge $-1 $40 $41 $42 $43 forward $16 $-1 #
face $-1 $44 $45 $10 $-1 $46 reversed single #
loop $-1 $-1 $47 $18 #
plane-surface $-1 -83.75259884131934 -11.048377030704366 0 1 0 0 0 0 -1 forward_v I I I I #
coedge $-1 $48 $49 $50 $51 forward $19 $-1 #
face $-1 $52 $53 $11 $-1 $54 reversed single #
loop $-1 $-1 $55 $21 #
plane-surface $-1 79.080193582468823 -7.2560073042918916 0 0 -1 0 0 0 -1 forward_v I I I I #
coedge $-1 $56 $57 $58 $59 reversed $22 $-1 #
face $-1 $60 $61 $9 $-1 $62 reversed single #
loop $-1 $-1 $63 $24 #
plane-surface $-1 0 -35.371119542344665 0 0 1 0 0 0 1 forward_v I I I I #
coedge $-1 $64 $65 $66 $67 forward $25 $-1 #
coedge $-1 $68 $27 $69 $70 forward $16 $-1 #
coedge $-1 $27 $68 $71 $72 forward $16 $-1 #
coedge $-1 $73 $74 $27 $43 reversed $75 $-1 #
edge $-1 $76 -35.371119542344665 $77 35.371119542344665 $42 $78 forward 7 unknown #
face $-1 $79 $80 $10 $-1 $81 reversed single #
loop $-1 $-1 $82 $28 #
plane-surface $-1 -79.080193582468809 -7.2560073042918916 0 0 -1 0 0 0 -1 forward_v I I I I #
coedge $-1 $83 $84 $85 $86 forward $29 $-1 #
coedge $-1 $87 $31 $88 $89 reversed $19 $-1 #
coedge $-1 $31 $87 $90 $91 reversed $19 $-1 #
coedge $-1 $84 $83 $31 $51 reversed $29 $-1 #
edge $-1 $92 -14.057556119026387 $93 14.057556119026387 $50 $94 forward 7 unknown #
face $-1 $95 $96 $11 $-1 $97 reversed single #
loop $-1 $-1 $98 $32 #
plane-surface $-1 83.752598841319355 -11.048377030704366 0 -1 0 0 0 0 1 forward_v I I I I #
coedge $-1 $99 $100 $101 $102 forward $33 $-1 #
coedge $-1 $103 $35 $104 $105 reversed $22 $-1 #
coedge $-1 $35 $103 $106 $107 reversed $22 $-1 #
coedge $-1 $108 $109 $35 $59 forward $96 $-1 #
edge $-1 $110 -14.057556119026387 $111 14.057556119026387 $58 $112 forward 7 unknown #
face $-1 $113 $114 $9 $-1 $115 reversed single #
loop $-1 $-1 $116 $36 #
plane-surface $-1 -74.407788323618277 0 0 1 0 0 0 0 -1 forward_v I I I I #
coedge $-1 $117 $71 $118 $119 forward $37 $-1 #
coedge $-1 $120 $39 $117 $121 forward $25 $-1 #
coedge $-1 $39 $120 $122 $123 forward $25 $-1 #
coedge $-1 $74 $73 $39 $67 reversed $75 $-1 #
edge $-1 $124 -35.371119542344665 $125 35.371119542344665 $66 $126 forward 7 unknown #
coedge $-1 $41 $40 $127 $128 forward $16 $-1 #
coedge $-1 $129 $130 $40 $70 reversed $114 $-1 #
edge $-1 $77 -74.407788323618277 $131 74.407788323618277 $69 $132 forward 7 unknown #
coedge $-1 $63 $133 $41 $72 reversed $37 $-1 #
edge $-1 $134 -74.407788323618277 $76 74.407788323618277 $71 $135 forward 7 unknown #
coedge $-1 $66 $42 $133 $136 forward $75 $-1 #
coedge $-1 $42 $66 $129 $137 reversed $75 $-1 #
loop $-1 $-1 $73 $113 #
vertex $-1 $43 $138 #
vertex $-1 $43 $139 #
straight-curve $-1 74.407788323618277 0 14.057556119026387 0 1 0 I I #
face $-1 $140 $141 $10 $-1 $81 reversed single #
loop $-1 $-1 $142 $44 #
plane-surface $-1 -74.407788323618277 0 0 1 0 0 0 0 -1 forward_v I I I I #
coedge $-1 $143 $144 $142 $145 reversed $45 $-1 #
coedge $-1 $50 $47 $146 $147 reversed $29 $-1 #
coedge $-1 $47 $50 $148 $149 reversed $29 $-1 #
coedge $-1 $144 $143 $47 $86 reversed $45 $-1 #
edge $-1 $150 -14.057556119026387 $151 14.057556119026387 $85 $152 forward 7 unknown #
coedge $-1 $49 $48 $153 $154 reversed $19 $-1 #
coedge $-1 $146 $155 $48 $89 forward $156 $-1 #
edge $-1 $157 -4.6724052588505316 $93 4.6724052588505316 $48 $158 forward 7 unknown #
coedge $-1 $159 $148 $49 $91 forward $160 $-1 #
edge $-1 $92 -4.6724052588505316 $161 4.6724052588505316 $49 $162 forward 7 unknown #
vertex $-1 $149 $163 #
vertex $-1 $147 $164 #
straight-curve $-1 -83.75259884131934 -14.84074675711684 0 0 0 -1 I I #
face $-1 $165 $166 $11 $-1 $97 reversed single #
loop $-1 $-1 $58 $52 #
plane-surface $-1 74.407788323618277 0 0 -1 0 0 0 0 1 forward_v I I I I #
coedge $-1 $167 $168 $103 $169 forward $53 $-1 #
coedge $-1 $170 $55 $171 $172 reversed $33 $-1 #
coedge $-1 $55 $170 $173 $174 reversed $33 $-1 #
coedge $-1 $168 $167 $55 $102 reversed $53 $-1 #
edge $-1 $175 -14.057556119026387 $176 14.057556119026387 $101 $177 forward 7 unknown #
coedge $-1 $57 $56 $98 $169 reversed $22 $-1 #
coedge $-1 $178 $179 $56 $105 forward $180 $-1 #
edge $-1 $181 -4.6724052588505316 $110 4.6724052588505316 $56 $182 forward 7 unknown #
coedge $-1 $183 $184 $57 $107 forward $185 $-1 #
edge $-1 $111 -4.6724052588505316 $186 4.6724052588505316 $57 $187 forward 7 unknown #
coedge $-1 $188 $58 $184 $189 reversed $96 $-1 #
coedge $-1 $58 $188 $178 $190 reversed $96 $-1 #
vertex $-1 $190 $191 #
vertex $-1 $107 $192 #
straight-curve $-1 74.407788323618277 -14.84074675711684 0 0 0 1 I I #
face $-1 $-1 $75 $9 $-1 $193 reversed single #
loop $-1 $-1 $129 $60 #
plane-surface $-1 0 35.371119542344665 0 0 -1 0 0 0 -1 forward_v I I I I #
coedge $-1 $194 $127 $130 $195 forward $61 $-1 #
coedge $-1 $133 $63 $64 $121 reversed $37 $-1 #
coedge $-1 $127 $194 $63 $119 reversed $61 $-1 #
edge $-1 $134 -14.057556119026387 $196 14.057556119026387 $118 $197 forward 7 unknown #
coedge $-1 $65 $64 $194 $198 forward $25 $-1 #
edge $-1 $125 -74.407788323618277 $196 74.407788323618277 $117 $199 forward 7 unknown #
coedge $-1 $130 $129 $65 $123 reversed $114 $-1 #
edge $-1 $200 -74.407788323618277 $124 74.407788323618277 $122 $201 forward 7 unknown #
vertex $-1 $67 $202 #
vertex $-1 $136 $203 #
straight-curve $-1 74.407788323618277 0 -14.057556119026387 0 -1 0 I I #
coedge $-1 $116 $118 $68 $128 reversed $61 $-1 #
edge $-1 $131 -35.371119542344665 $134 35.371119542344665 $127 $204 forward 7 unknown #
coedge $-1 $122 $69 $74 $137 forward $114 $-1 #
coedge $-1 $69 $122 $116 $195 reversed $114 $-1 #
vertex $-1 $70 $205 #
straight-curve $-1 0 35.371119542344665 14.057556119026387 -1 0 0 I I #
coedge $-1 $71 $117 $73 $136 reversed $37 $-1 #
vertex $-1 $128 $206 #
straight-curve $-1 0 -35.371119542344665 14.057556119026387 1 0 0 I I #
edge $-1 $76 -14.057556119026387 $125 14.057556119026387 $73 $207 forward 7 unknown #
edge $-1 $77 -14.057556119026387 $124 14.057556119026387 $74 $208 forward 7 unknown #
point $-1 74.407788323618277 -35.371119542344665 14.057556119026387 #
point $-1 74.407788323618277 35.371119542344665 14.057556119026387 #
face $-1 $209 $160 $10 $-1 $210 forward single #
loop $-1 $-1 $153 $79 #
coedge $-1 $211 $212 $82 $145 forward $80 $-1 #
coedge $-1 $85 $82 $213 $214 reversed $45 $-1 #
coedge $-1 $82 $85 $215 $216 reversed $45 $-1 #
edge $-1 $217 -14.057556119026387 $218 14.057556119026387 $142 $219 forward 7 unknown #
coedge $-1 $213 $88 $83 $147 forward $156 $-1 #
edge $-1 $93 -3.7923697264124741 $151 3.7923697264124741 $83 $220 forward 7 unknown #
coedge $-1 $90 $215 $84 $149 forward $160 $-1 #
edge $-1 $150 -3.7923697264124741 $92 3.7923697264124741 $84 $221 forward 7 unknown #
vertex $-1 $216 $222 #
vertex $-1 $214 $223 #
straight-curve $-1 -83.75259884131934 -7.2560073042918916 0 0 0 -1 I I #
coedge $-1 $224 $225 $87 $154 forward $141 $-1 #
edge $-1 $161 -14.057556119026387 $157 14.057556119026387 $153 $226 forward 7 unknown #
coedge $-1 $88 $227 $224 $228 forward $156 $-1 #
loop $-1 $-1 $229 $209 #
vertex $-1 $89 $230 #
straight-curve $-1 -79.080193582468809 -14.84074675711684 -14.057556119026387 -1 0 0 I I #
coedge $-1 $231 $90 $225 $232 forward $160 $-1 #
loop $-1 $-1 $233 $140 #
vertex $-1 $232 $234 #
straight-curve $-1 -79.080193582468809 -14.84074675711684 14.057556119026387 1 0 0 I I #
point $-1 -83.75259884131934 -14.84074675711684 14.057556119026387 #
point $-1 -83.75259884131934 -14.84074675711684 -14.057556119026387 #
face $-1 $235 $236 $11 $-1 $237 reversed single #
loop $-1 $-1 $238 $95 #
coedge $-1 $101 $98 $179 $239 reversed $53 $-1 #
coedge $-1 $98 $101 $183 $240 reversed $53 $-1 #
edge $-1 $186 -14.057556119026387 $181 14.057556119026387 $98 $241 forward 7 unknown #
coedge $-1 $100 $99 $238 $242 reversed $33 $-1 #
coedge $-1 $179 $243 $99 $172 forward $180 $-1 #
edge $-1 $244 -4.6724052588505316 $176 4.6724052588505316 $99 $245 forward 7 unknown #
coedge $-1 $246 $183 $100 $174 forward $185 $-1 #
edge $-1 $175 -4.6724052588505316 $247 4.6724052588505316 $100 $248 forward 7 unknown #
vertex $-1 $240 $249 #
vertex $-1 $239 $250 #
straight-curve $-1 83.752598841319355 -7.2560073042918916 0 0 0 -1 I I #
coedge $-1 $251 $104 $109 $190 forward $180 $-1 #
coedge $-1 $104 $171 $167 $239 forward $180 $-1 #
loop $-1 $-1 $243 $252 #
vertex $-1 $169 $253 #
straight-curve $-1 79.080193582468823 -14.84074675711684 -14.057556119026387 -1 0 0 I I #
coedge $-1 $173 $106 $168 $240 forward $185 $-1 #
coedge $-1 $106 $254 $108 $189 forward $185 $-1 #
loop $-1 $-1 $184 $255 #
vertex $-1 $240 $256 #
straight-curve $-1 79.080193582468823 -14.84074675711684 14.057556119026387 1 0 0 I I #
coedge $-1 $109 $108 $257 $258 forward $96 $-1 #
edge $-1 $259 -35.371119542344665 $111 -14.84074675711684 $108 $260 forward 7 unknown #
edge $-1 $110 14.84074675711684 $261 35.371119542344665 $109 $262 forward 7 unknown #
point $-1 74.407788323618291 -14.84074675711684 -14.057556119026387 #
point $-1 74.407788323618291 -14.84074675711684 14.057556119026387 #
plane-surface $-1 74.407788323618277 0 0 -1 0 0 0 0 1 forward_v I I I I #
coedge $-1 $118 $116 $120 $198 reversed $61 $-1 #
edge $-1 $131 -14.057556119026387 $200 14.057556119026387 $130 $263 forward 7 unknown #
vertex $-1 $198 $264 #
straight-curve $-1 -74.407788323618277 -35.371119542344665 0 0 0 -1 I I #
edge $-1 $196 -35.371119542344665 $200 35.371119542344665 $194 $265 forward 7 unknown #
straight-curve $-1 0 -35.371119542344665 -14.057556119026387 -1 0 0 I I #
vertex $-1 $123 $266 #
straight-curve $-1 0 35.371119542344665 -14.057556119026387 1 0 0 I I #
point $-1 74.407788323618277 35.371119542344665 -14.057556119026387 #
point $-1 74.407788323618277 -35.371119542344665 -14.057556119026387 #
straight-curve $-1 -74.407788323618277 0 14.057556119026387 0 -1 0 I I #
point $-1 -74.407788323618277 35.371119542344665 14.057556119026387 #
point $-1 -74.407788323618277 -35.371119542344665 14.057556119026387 #
straight-curve $-1 74.407788323618277 -35.371119542344665 0 0 0 -1 I I #
straight-curve $-1 74.407788323618277 35.371119542344665 0 0 0 -1 I I #
face $-1 $267 $156 $10 $-1 $268 reversed single #
plane-surface $-1 0 0 14.057556119026387 0 0 1 1 0 0 forward_v I I I I #
coedge $-1 $269 $142 $270 $271 reversed $80 $-1 #
coedge $-1 $142 $269 $272 $273 reversed $80 $-1 #
coedge $-1 $272 $146 $143 $214 forward $156 $-1 #
edge $-1 $151 -4.6724052588505316 $217 4.6724052588505316 $143 $274 forward 7 unknown #
coedge $-1 $148 $270 $144 $216 forward $160 $-1 #
edge $-1 $218 -4.6724052588505316 $150 4.6724052588505316 $144 $275 forward 7 unknown #
vertex $-1 $273 $276 #
vertex $-1 $216 $277 #
straight-curve $-1 -74.407788323618277 -7.2560073042918916 0 0 0 1 I I #
straight-curve $-1 -83.75259884131934 -11.048377030704366 -14.057556119026387 0 1 0 I I #
straight-curve $-1 -83.75259884131934 -11.048377030704366 14.057556119026387 0 -1 0 I I #
point $-1 -83.75259884131934 -7.2560073042918916 14.057556119026387 #
point $-1 -83.75259884131934 -7.2560073042918916 -14.057556119026387 #
coedge $-1 $278 $153 $155 $228 reversed $141 $-1 #
coedge $-1 $153 $278 $159 $232 reversed $141 $-1 #
straight-curve $-1 -74.407788323618277 -14.84074675711684 0 0 0 -1 I I #
coedge $-1 $155 $229 $279 $280 forward $156 $-1 #
edge $-1 $281 -35.371119542344665 $157 -14.84074675711684 $224 $282 forward 7 unknown #
coedge $-1 $227 $283 $284 $285 forward $156 $-1 #
point $-1 -74.407788323618277 -14.84074675711684 -14.057556119026387 #
coedge $-1 $233 $159 $286 $287 forward $160 $-1 #
edge $-1 $161 14.84074675711684 $288 35.371119542344665 $225 $289 forward 7 unknown #
coedge $-1 $290 $231 $291 $292 forward $160 $-1 #
point $-1 -74.407788323618277 -14.84074675711684 14.057556119026387 #
face $-1 $293 $294 $11 $-1 $295 reversed single #
loop $-1 $-1 $296 $165 #
plane-surface $-1 -79.080193582468809 -14.84074675711684 0 0 1 0 0 0 1 forward_v I I I I #
coedge $-1 $297 $298 $170 $242 forward $166 $-1 #
edge $-1 $176 -3.7923697264124741 $181 3.7923697264124741 $167 $299 forward 7 unknown #
edge $-1 $186 -3.7923697264124741 $175 3.7923697264124741 $168 $300 forward 7 unknown #
straight-curve $-1 83.752598841319355 -14.84074675711684 0 0 0 -1 I I #
edge $-1 $247 -14.057556119026387 $244 14.057556119026387 $238 $301 forward 7 unknown #
coedge $-1 $171 $302 $297 $303 forward $180 $-1 #
vertex $-1 $172 $304 #
straight-curve $-1 79.080193582468823 -7.2560073042918916 -14.057556119026387 1 0 0 I I #
coedge $-1 $305 $173 $298 $306 forward $185 $-1 #
vertex $-1 $306 $307 #
straight-curve $-1 79.080193582468823 -7.2560073042918916 14.057556119026387 -1 0 0 I I #
point $-1 83.752598841319355 -7.2560073042918916 14.057556119026387 #
point $-1 83.752598841319355 -7.2560073042918916 -14.057556119026387 #
coedge $-1 $308 $178 $309 $310 forward $180 $-1 #
face $-1 $311 $180 $11 $-1 $312 reversed single #
point $-1 83.752598841319355 -14.84074675711684 -14.057556119026387 #
coedge $-1 $184 $313 $314 $315 forward $185 $-1 #
face $-1 $252 $185 $11 $-1 $316 forward single #
point $-1 83.752598841319355 -14.84074675711684 14.057556119026387 #
coedge $-1 $314 $309 $188 $258 reversed $317 $-1 #
edge $-1 $259 -14.057556119026387 $261 14.057556119026387 $188 $318 forward 7 unknown #
vertex $-1 $189 $319 #
straight-curve $-1 74.407788323618277 0 14.057556119026387 0 1 0 I I #
vertex $-1 $258 $320 #
straight-curve $-1 74.407788323618277 0 -14.057556119026387 0 -1 0 I I #
straight-curve $-1 -74.407788323618277 35.371119542344665 0 0 0 -1 I I #
point $-1 -74.407788323618277 -35.371119542344665 -14.057556119026387 #
straight-curve $-1 -74.407788323618277 0 -14.057556119026387 0 1 0 I I #
point $-1 -74.407788323618277 35.371119542344665 -14.057556119026387 #
face $-1 $321 $322 $10 $-1 $323 reversed single #
plane-surface $-1 0 0 -14.057556119026387 0 0 1 1 0 0 forward_v I I I I #
coedge $-1 $212 $211 $324 $325 forward $80 $-1 #
coedge $-1 $215 $290 $211 $271 forward $160 $-1 #
edge $-1 $326 -35.371119542344665 $218 7.2560073042918916 $211 $289 forward 7 unknown #
coedge $-1 $283 $213 $212 $273 forward $156 $-1 #
edge $-1 $217 -7.2560073042918916 $327 35.371119542344665 $212 $282 forward 7 unknown #
straight-curve $-1 -79.080193582468809 -7.2560073042918916 -14.057556119026387 1 0 0 I I #
straight-curve $-1 -79.080193582468809 -7.2560073042918916 14.057556119026387 -1 0 0 I I #
point $-1 -74.407788323618277 -7.2560073042918916 -14.057556119026387 #
point $-1 -74.407788323618277 -7.2560073042918916 14.057556119026387 #
coedge $-1 $225 $224 $328 $329 reversed $141 $-1 #
coedge $-1 $330 $328 $227 $280 reversed $322 $-1 #
edge $-1 $331 -74.407788323618277 $281 74.407788323618277 $279 $332 forward 7 unknown #
vertex $-1 $228 $333 #
straight-curve $-1 -74.407788323618277 0 -14.057556119026387 0 1 0 I I #
coedge $-1 $229 $272 $334 $335 forward $156 $-1 #
coedge $-1 $336 $337 $229 $285 reversed $338 $-1 #
edge $-1 $339 -35.371119542344665 $331 35.371119542344665 $284 $340 forward 7 unknown #
coedge $-1 $328 $330 $231 $287 reversed $322 $-1 #
edge $-1 $288 -74.407788323618277 $341 74.407788323618277 $286 $342 forward 7 unknown #
vertex $-1 $232 $343 #
straight-curve $-1 -74.407788323618277 0 14.057556119026387 0 -1 0 I I #
coedge $-1 $270 $233 $344 $345 forward $160 $-1 #
coedge $-1 $337 $336 $233 $292 reversed $338 $-1 #
edge $-1 $341 -35.371119542344665 $346 35.371119542344665 $291 $347 forward 7 unknown #
face $-1 $348 $349 $11 $-1 $350 reversed single #
loop $-1 $-1 $351 $235 #
plane-surface $-1 -83.75259884131934 -11.048377030704366 0 1 0 0 0 0 -1 forward_v I I I I #
coedge $-1 $352 $353 $354 $355 forward $236 $-1 #
coedge $-1 $356 $238 $243 $303 reversed $166 $-1 #
coedge $-1 $238 $356 $246 $306 reversed $166 $-1 #
straight-curve $-1 83.752598841319355 -11.048377030704366 -14.057556119026387 0 -1 0 I I #
straight-curve $-1 83.752598841319355 -11.048377030704366 14.057556119026387 0 1 0 I I #
straight-curve $-1 74.407788323618277 -7.2560073042918916 0 0 0 -1 I I #
coedge $-1 $243 $357 $358 $359 forward $180 $-1 #
edge $-1 $360 -35.371119542344665 $244 7.2560073042918916 $297 $262 forward 7 unknown #
point $-1 74.407788323618291 -7.2560073042918916 -14.057556119026387 #
coedge $-1 $361 $246 $362 $363 forward $185 $-1 #
edge $-1 $247 -7.2560073042918916 $364 35.371119542344665 $298 $260 forward 7 unknown #
point $-1 74.407788323618291 -7.2560073042918916 14.057556119026387 #
coedge $-1 $365 $251 $366 $367 forward $180 $-1 #
coedge $-1 $257 $368 $251 $310 reversed $317 $-1 #
edge $-1 $261 -74.407788323618277 $369 74.407788323618277 $309 $370 forward 7 unknown #
face $-1 $371 $317 $11 $-1 $372 reversed single #
plane-surface $-1 0 0 -14.057556119026387 0 0 1 1 0 0 forward_v I I I I #
coedge $-1 $254 $373 $374 $375 forward $185 $-1 #
coedge $-1 $368 $257 $254 $315 reversed $317 $-1 #
edge $-1 $376 -74.407788323618277 $259 74.407788323618277 $314 $377 forward 7 unknown #
plane-surface $-1 0 0 14.057556119026387 0 0 1 1 0 0 forward_v I I I I #
loop $-1 $-1 $368 $311 #
straight-curve $-1 74.407788323618277 -35.371119542344665 0 0 0 -1 I I #
point $-1 74.407788323618277 -35.371119542344665 14.057556119026387 #
point $-1 74.407788323618277 -35.371119542344665 -14.057556119026387 #
face $-1 $378 $379 $10 $-1 $380 reversed single #
loop $-1 $-1 $328 $267 #
plane-surface $-1 0 -35.371119542344665 0 0 1 0 0 0 1 forward_v I I I I #
coedge $-1 $344 $334 $269 $325 reversed $379 $-1 #
edge $-1 $326 -14.057556119026387 $327 14.057556119026387 $324 $381 forward 7 unknown #
vertex $-1 $345 $382 #
vertex $-1 $335 $383 #
coedge $-1 $279 $286 $278 $329 forward $322 $-1 #
edge $-1 $288 -14.057556119026387 $281 14.057556119026387 $278 $384 forward 7 unknown #
coedge $-1 $286 $279 $337 $385 reversed $322 $-1 #
vertex $-1 $385 $386 #
straight-curve $-1 0 -35.371119542344665 -14.057556119026387 -1 0 0 I I #
point $-1 -74.407788323618277 -35.371119542344665 -14.057556119026387 #
coedge $-1 $324 $387 $283 $335 reversed $379 $-1 #
edge $-1 $327 -74.407788323618277 $339 74.407788323618277 $334 $388 forward 7 unknown #
coedge $-1 $291 $284 $387 $389 reversed $338 $-1 #
coedge $-1 $284 $291 $330 $385 forward $338 $-1 #
loop $-1 $-1 $337 $378 #
vertex $-1 $285 $390 #
straight-curve $-1 74.407788323618277 0 -14.057556119026387 0 -1 0 I I #
vertex $-1 $292 $391 #
straight-curve $-1 0 -35.371119542344665 14.057556119026387 1 0 0 I I #
point $-1 -74.407788323618277 -35.371119542344665 14.057556119026387 #
coedge $-1 $387 $324 $290 $345 reversed $379 $-1 #
edge $-1 $346 -74.407788323618277 $326 74.407788323618277 $344 $392 forward 7 unknown #
vertex $-1 $292 $393 #
straight-curve $-1 74.407788323618277 0 14.057556119026387 0 1 0 I I #
face $-1 $394 $395 $11 $-1 $396 reversed single #
loop $-1 $-1 $397 $293 #
plane-surface $-1 -79.080193582468809 -7.2560073042918916 0 0 -1 0 0 0 -1 forward_v I I I I #
coedge $-1 $398 $399 $400 $401 forward $294 $-1 #
coedge $-1 $402 $296 $365 $403 reversed $236 $-1 #
coedge $-1 $296 $402 $373 $404 reversed $236 $-1 #
coedge $-1 $399 $398 $296 $355 reversed $294 $-1 #
edge $-1 $405 -14.057556119026387 $406 14.057556119026387 $354 $407 forward 7 unknown #
coedge $-1 $298 $297 $408 $409 reversed $166 $-1 #
coedge $-1 $302 $410 $411 $412 forward $180 $-1 #
coedge $-1 $413 $408 $302 $359 reversed $414 $-1 #
edge $-1 $415 -74.407788323618277 $360 74.407788323618277 $358 $416 forward 7 unknown #
vertex $-1 $303 $417 #
coedge $-1 $418 $305 $419 $420 forward $185 $-1 #
coedge $-1 $408 $413 $305 $363 reversed $414 $-1 #
edge $-1 $364 -74.407788323618277 $421 74.407788323618277 $362 $422 forward 7 unknown #
vertex $-1 $306 $423 #
coedge $-1 $424 $308 $352 $403 forward $180 $-1 #
coedge $-1 $425 $426 $308 $367 reversed $427 $-1 #
edge $-1 $369 -35.371119542344665 $428 -14.84074675711684 $366 $429 forward 7 unknown #
coedge $-1 $309 $314 $425 $430 forward $317 $-1 #
vertex $-1 $367 $431 #
straight-curve $-1 0 -35.371119542344665 -14.057556119026387 -1 0 0 I I #
face $-1 $-1 $414 $11 $-1 $432 reversed single #
plane-surface $-1 0 -35.371119542344665 0 0 1 0 0 0 1 forward_v I I I I #
coedge $-1 $313 $433 $353 $404 forward $185 $-1 #
coedge $-1 $426 $425 $313 $375 reversed $427 $-1 #
edge $-1 $434 14.84074675711684 $376 35.371119542344665 $374 $435 forward 7 unknown #
vertex $-1 $375 $436 #
straight-curve $-1 0 -35.371119542344665 14.057556119026387 1 0 0 I I #
face $-1 $-1 $338 $10 $-1 $437 reversed single #
loop $-1 $-1 $387 $321 #
plane-surface $-1 0 35.371119542344665 0 0 -1 0 0 0 -1 forward_v I I I I #
straight-curve $-1 -74.407788323618277 35.371119542344665 0 0 0 -1 I I #
point $-1 -74.407788323618277 35.371119542344665 14.057556119026387 #
point $-1 -74.407788323618277 35.371119542344665 -14.057556119026387 #
straight-curve $-1 -74.407788323618277 -35.371119542344665 0 0 0 -1 I I #
edge $-1 $341 -14.057556119026387 $331 14.057556119026387 $337 $438 forward 7 unknown #
point $-1 74.407788323618277 -35.371119542344665 -14.057556119026387 #
coedge $-1 $334 $344 $336 $389 forward $379 $-1 #
straight-curve $-1 0 35.371119542344665 -14.057556119026387 1 0 0 I I #
edge $-1 $346 -14.057556119026387 $339 14.057556119026387 $336 $439 forward 7 unknown #
point $-1 74.407788323618277 35.371119542344665 -14.057556119026387 #
point $-1 74.407788323618277 -35.371119542344665 14.057556119026387 #
straight-curve $-1 0 35.371119542344665 14.057556119026387 -1 0 0 I I #
point $-1 74.407788323618277 35.371119542344665 14.057556119026387 #
face $-1 $255 $427 $11 $-1 $396 reversed single #
loop $-1 $-1 $440 $348 #
plane-surface $-1 -74.407788323618277 0 0 1 0 0 0 0 -1 forward_v I I I I #
coedge $-1 $441 $442 $440 $443 reversed $349 $-1 #
coedge $-1 $354 $351 $424 $444 reversed $294 $-1 #
coedge $-1 $351 $354 $433 $445 reversed $294 $-1 #
coedge $-1 $442 $441 $351 $401 reversed $349 $-1 #
edge $-1 $446 -14.057556119026387 $447 14.057556119026387 $400 $448 forward 7 unknown #
coedge $-1 $353 $352 $426 $449 reversed $236 $-1 #
edge $-1 $428 -4.6724052588505316 $406 4.6724052588505316 $352 $450 forward 7 unknown #
edge $-1 $405 -4.6724052588505316 $434 4.6724052588505316 $353 $451 forward 7 unknown #
vertex $-1 $445 $452 #
vertex $-1 $444 $453 #
straight-curve $-1 -83.75259884131934 -14.84074675711684 0 0 0 -1 I I #
coedge $-1 $358 $362 $356 $409 forward $414 $-1 #
edge $-1 $364 -14.057556119026387 $360 14.057556119026387 $356 $454 forward 7 unknown #
coedge $-1 $357 $424 $441 $455 forward $180 $-1 #
coedge $-1 $440 $456 $357 $412 reversed $395 $-1 #
edge $-1 $457 -7.2560073042918916 $415 35.371119542344665 $411 $429 forward 7 unknown #
coedge $-1 $362 $358 $456 $458 reversed $414 $-1 #
loop $-1 $-1 $408 $371 #
vertex $-1 $359 $459 #
straight-curve $-1 0 35.371119542344665 -14.057556119026387 1 0 0 I I #
point $-1 74.407788323618277 35.371119542344665 -14.057556119026387 #
coedge $-1 $433 $361 $442 $460 forward $185 $-1 #
coedge $-1 $456 $440 $361 $420 reversed $395 $-1 #
edge $-1 $421 -35.371119542344665 $461 7.2560073042918916 $419 $435 forward 7 unknown #
vertex $-1 $363 $462 #
straight-curve $-1 0 35.371119542344665 14.057556119026387 -1 0 0 I I #
point $-1 74.407788323618277 35.371119542344665 14.057556119026387 #
coedge $-1 $410 $365 $398 $444 forward $180 $-1 #
coedge $-1 $374 $366 $368 $430 reversed $427 $-1 #
coedge $-1 $366 $374 $402 $449 forward $427 $-1 #
loop $-1 $-1 $426 $394 #
vertex $-1 $403 $463 #
straight-curve $-1 -74.407788323618277 0 -14.057556119026387 0 1 0 I I #
edge $-1 $376 -14.057556119026387 $369 14.057556119026387 $425 $464 forward 7 unknown #
point $-1 -74.407788323618277 -35.371119542344665 -14.057556119026387 #
plane-surface $-1 0 35.371119542344665 0 0 -1 0 0 0 -1 forward_v I I I I #
coedge $-1 $373 $418 $399 $445 forward $185 $-1 #
vertex $-1 $375 $465 #
straight-curve $-1 -74.407788323618277 0 14.057556119026387 0 -1 0 I I #
point $-1 -74.407788323618277 -35.371119542344665 14.057556119026387 #
plane-surface $-1 74.407788323618277 0 0 -1 0 0 0 0 1 forward_v I I I I #
straight-curve $-1 74.407788323618277 -35.371119542344665 0 0 0 -1 I I #
straight-curve $-1 74.407788323618277 35.371119542344665 0 0 0 -1 I I #
coedge $-1 $419 $411 $397 $443 forward $395 $-1 #
coedge $-1 $400 $397 $410 $455 reversed $349 $-1 #
coedge $-1 $397 $400 $418 $460 reversed $349 $-1 #
edge $-1 $457 -14.057556119026387 $461 14.057556119026387 $440 $466 forward 7 unknown #
edge $-1 $406 -3.7923697264124741 $447 3.7923697264124741 $398 $467 forward 7 unknown #
edge $-1 $446 -3.7923697264124741 $405 3.7923697264124741 $399 $468 forward 7 unknown #
vertex $-1 $460 $469 #
vertex $-1 $455 $470 #
straight-curve $-1 -83.75259884131934 -7.2560073042918916 0 0 0 -1 I I #
edge $-1 $434 -14.057556119026387 $428 14.057556119026387 $426 $471 forward 7 unknown #
straight-curve $-1 -79.080193582468809 -14.84074675711684 -14.057556119026387 -1 0 0 I I #
straight-curve $-1 -79.080193582468809 -14.84074675711684 14.057556119026387 1 0 0 I I #
point $-1 -83.75259884131934 -14.84074675711684 14.057556119026387 #
point $-1 -83.75259884131934 -14.84074675711684 -14.057556119026387 #
straight-curve $-1 74.407788323618277 35.371119542344665 0 0 0 -1 I I #
edge $-1 $447 -4.6724052588505316 $457 4.6724052588505316 $441 $472 forward 7 unknown #
coedge $-1 $411 $419 $413 $458 forward $395 $-1 #
vertex $-1 $412 $473 #
edge $-1 $421 -14.057556119026387 $415 14.057556119026387 $413 $474 forward 7 unknown #
point $-1 -74.407788323618277 35.371119542344665 -14.057556119026387 #
edge $-1 $461 -4.6724052588505316 $446 4.6724052588505316 $442 $475 forward 7 unknown #
vertex $-1 $460 $476 #
point $-1 -74.407788323618277 35.371119542344665 14.057556119026387 #
point $-1 -74.407788323618277 -14.84074675711684 -14.057556119026387 #
straight-curve $-1 -74.407788323618277 -35.371119542344665 0 0 0 -1 I I #
point $-1 -74.407788323618277 -14.84074675711684 14.057556119026387 #
straight-curve $-1 -74.407788323618277 -7.2560073042918916 0 0 0 1 I I #
straight-curve $-1 -83.75259884131934 -11.048377030704366 -14.057556119026387 0 1 0 I I #
straight-curve $-1 -83.75259884131934 -11.048377030704366 14.057556119026387 0 -1 0 I I #
point $-1 -83.75259884131934 -7.2560073042918916 14.057556119026387 #
point $-1 -83.75259884131934 -7.2560073042918916 -14.057556119026387 #
straight-curve $-1 -74.407788323618277 -14.84074675711684 0 0 0 -1 I I #
straight-curve $-1 -79.080193582468809 -7.2560073042918916 -14.057556119026387 1 0 0 I I #
point $-1 -74.407788323618277 -7.2560073042918916 -14.057556119026387 #
straight-curve $-1 -74.407788323618277 35.371119542344665 0 0 0 -1 I I #
straight-curve $-1 -79.080193582468809 -7.2560073042918916 14.057556119026387 -1 0 0 I I #
point $-1 -74.407788323618277 -7.2560073042918916 14.057556119026387 #
End-of-ACIS-data 