500 0 8 0           
7 Unknown 11 ACIS 5.0 NT 24 Fri Mar 26 02:55:46 1999 
-1 9.9999999999999995e-007 1e-010 
body $-1 $8 $-1 $9 #
body $-1 $10 $-1 $11 #
body $-1 $12 $-1 $13 #
body $-1 $14 $-1 $15 #
body $-1 $16 $-1 $17 #
body $-1 $18 $-1 $19 #
body $-1 $20 $-1 $21 #
body $-1 $22 $-1 $23 #
lump $-1 $-1 $24 $0 #
transform $-1 1 0 0 0 1 0 0 0 1 74.412671285134437 37.907836364634484 14.633625689257427 1 rotate no_reflect no_shear #
lump $-1 $-1 $25 $1 #
transform $-1 1 0 0 0 1 0 0 0 1 74.412671285134437 37.907836364634484 14.633625689257427 1 rotate no_reflect no_shear #
lump $-1 $-1 $26 $2 #
transform $-1 1 0 0 0 1 0 0 0 1 74.412671285134437 37.907836364634484 14.633625689257427 1 rotate no_reflect no_shear #
lump $-1 $-1 $27 $3 #
transform $-1 1 0 0 0 1 0 0 0 1 74.412671285134437 37.907836364634484 14.633625689257427 1 rotate no_reflect no_shear #
lump $-1 $-1 $28 $4 #
transform $-1 1 0 0 0 1 0 0 0 1 74.412671285134437 37.907836364634484 14.633625689257427 1 rotate no_reflect no_shear #
lump $-1 $-1 $29 $5 #
transform $-1 1 0 0 0 1 0 0 0 1 74.412671285134437 37.907836364634484 14.633625689257427 1 rotate no_reflect no_shear #
lump $-1 $-1 $30 $6 #
transform $-1 1 0 0 0 1 0 0 0 1 74.412671285134437 37.907836364634484 14.633625689257427 1 rotate no_reflect no_shear #
lump $-1 $-1 $31 $7 #
transform $-1 1 0 0 0 1 0 0 0 1 74.412671285134437 37.907836364634484 14.633625689257427 1 rotate no_reflect no_shear #
shell $-1 $-1 $-1 $32 $-1 $8 #
shell $-1 $-1 $-1 $33 $-1 $10 #
shell $-1 $-1 $-1 $34 $-1 $12 #
shell $-1 $-1 $-1 $35 $-1 $14 #
shell $-1 $-1 $-1 $36 $-1 $16 #
shell $-1 $-1 $-1 $37 $-1 $18 #
shell $-1 $-1 $-1 $38 $-1 $20 #
shell $-1 $-1 $-1 $39 $-1 $22 #
face $-1 $40 $41 $24 $-1 $42 forward single #
face $-1 $43 $44 $25 $-1 $45 forward single #
face $-1 $46 $47 $26 $-1 $48 reversed single #
face $-1 $49 $50 $27 $-1 $51 forward single #
face $-1 $52 $53 $28 $-1 $54 forward single #
face $-1 $55 $56 $29 $-1 $57 reversed single #
face $-1 $58 $59 $30 $-1 $60 forward single #
face $-1 $61 $62 $31 $-1 $63 forward single #
face $-1 $64 $65 $24 $-1 $66 reversed single #
loop $-1 $-1 $67 $32 #
plane-surface $-1 0 0 14.633625689257427 0 0 1 1 0 0 forward_v I I I I #
face $-1 $68 $69 $25 $-1 $70 reversed single #
loop $-1 $-1 $71 $33 #
plane-surface $-1 0 -30.251462845537155 -10.376043147493862 0 0 1 1 0 0 forward_v I I I I #
face $-1 $72 $73 $26 $-1 $74 reversed single #
loop $-1 $-1 $75 $34 #
plane-surface $-1 107.3375639822962 -4.5778952587560013 212.41628522736028 0 -1 0 -0.80901700255871778 0 -0.5877852410284794 forward_v I I I I #
face $-1 $76 $77 $27 $-1 $78 forward single #
loop $-1 $79 $80 $35 #
cone-surface $-1 68.603735654833912 -17.447319592815877 8.0296290794881884 -0.80901700255871778 0 -0.5877852410284794 1.1755704820569588 0 -1.6180340051174356 1 I I 0 1 2 forward I I I I #
face $-1 $81 $82 $28 $-1 $83 forward single #
loop $-1 $84 $85 $36 #
cone-surface $-1 68.603735654833912 -9.7256649923799507 8.0296290794881884 -0.80901700255871778 0 -0.5877852410284794 1.1755704820569588 0 -1.6180340051174356 1 I I 0 1 2 forward I I I I #
face $-1 $86 $87 $29 $-1 $88 reversed single #
loop $-1 $-1 $89 $37 #
plane-surface $-1 -194.8149038361077 -22.595089326439826 92.01405267638701 0 1 0 -0.80901700255871778 0 0.5877852410284794 forward_v I I I I #
face $-1 $90 $91 $30 $-1 $92 forward single #
loop $-1 $93 $94 $38 #
cone-surface $-1 -68.603735654833883 -17.447319592815877 8.0296290794881777 0.80901700255871778 0 -0.5877852410284794 1.1755704820569588 0 1.6180340051174356 1 I I 0 1 2 forward I I I I #
face $-1 $95 $96 $31 $-1 $97 forward single #
loop $-1 $98 $99 $39 #
cone-surface $-1 -68.603735654833883 -9.7256649923799507 8.0296290794881777 0.80901700255871778 0 -0.5877852410284794 1.1755704820569588 0 1.6180340051174356 1 I I 0 1 2 forward I I I I #
face $-1 $100 $101 $24 $-1 $102 reversed single #
loop $-1 $-1 $103 $40 #
plane-surface $-1 0 0 -14.633625689257427 0 0 1 1 0 0 forward_v I I I I #
coedge $-1 $104 $105 $106 $107 forward $41 $-1 #
face $-1 $108 $109 $25 $-1 $110 reversed single #
loop $-1 $-1 $111 $43 #
plane-surface $-1 0 -22.595089326439826 -12.504834418375644 0 -1 0 0 0 -1 forward_v I I I I #
coedge $-1 $112 $113 $114 $115 reversed $44 $-1 #
face $-1 $116 $117 $26 $-1 $118 reversed single #
loop $-1 $-1 $119 $46 #
plane-surface $-1 -13.064668568677064 -13.586492292597914 124.93894537354878 0.80901700255871778 0 0.5877852410284794 0.5877852410284794 0 -0.80901700255871778 forward_v I I I I #
coedge $-1 $120 $121 $122 $123 reversed $47 $-1 #
face $-1 $-1 $124 $27 $-1 $125 forward single #
loop $-1 $126 $127 $49 #
cone-surface $-1 65.653701214185602 -17.447319592815877 5.8863036620314251 -0.80901700255871778 0 -0.5877852410284794 0.5877852410284794 0 -0.80901700255871778 1 I I -0.70710678118654746 0.70710678118654746 1 forward I I I I #
loop $-1 $-1 $128 $35 #
coedge $-1 $80 $80 $129 $130 reversed $50 $-1 #
face $-1 $-1 $131 $28 $-1 $132 forward single #
loop $-1 $133 $134 $52 #
cone-surface $-1 65.653701214185602 -9.7256649923799507 5.8863036620314251 -0.80901700255871778 0 -0.5877852410284794 0.5877852410284794 0 -0.80901700255871778 1 I I -0.70710678118654746 0.70710678118654746 1 forward I I I I #
loop $-1 $-1 $135 $36 #
coedge $-1 $85 $85 $136 $137 reversed $53 $-1 #
face $-1 $138 $139 $29 $-1 $140 reversed single #
loop $-1 $-1 $141 $55 #
plane-surface $-1 -74.412671285134437 -13.586492292597914 4.5367128225755096 -0.80901700255871778 0 0.5877852410284794 0.5877852410284794 0 0.80901700255871778 forward_v I I I I #
coedge $-1 $142 $143 $144 $145 reversed $56 $-1 #
face $-1 $-1 $146 $30 $-1 $147 forward single #
loop $-1 $148 $149 $58 #
cone-surface $-1 -65.653701214185574 -17.447319592815877 5.8863036620314144 0.80901700255871778 0 -0.5877852410284794 0.5877852410284794 0 0.80901700255871778 1 I I -0.70710678118654746 0.70710678118654746 1 forward I I I I #
loop $-1 $-1 $150 $38 #
coedge $-1 $94 $94 $151 $152 reversed $59 $-1 #
face $-1 $-1 $153 $31 $-1 $154 forward single #
loop $-1 $155 $156 $61 #
cone-surface $-1 -65.653701214185574 -9.7256649923799507 5.8863036620314144 0.80901700255871778 0 -0.5877852410284794 0.5877852410284794 0 0.80901700255871778 1 I I -0.70710678118654746 0.70710678118654746 1 forward I I I I #
loop $-1 $-1 $157 $39 #
coedge $-1 $99 $99 $158 $159 reversed $62 $-1 #
face $-1 $160 $161 $24 $-1 $162 reversed single #
loop $-1 $-1 $163 $64 #
plane-surface $-1 0 -37.907836364634484 0 0 1 0 0 0 1 forward_v I I I I #
coedge $-1 $164 $165 $166 $167 forward $65 $-1 #
coedge $-1 $168 $67 $169 $170 forward $41 $-1 #
coedge $-1 $67 $168 $171 $172 forward $41 $-1 #
coedge $-1 $173 $174 $67 $107 reversed $175 $-1 #
edge $-1 $176 -37.907836364634484 $177 37.907836364634484 $106 $178 forward 7 unknown #
face $-1 $179 $180 $25 $-1 $181 reversed single #
loop $-1 $-1 $182 $68 #
plane-surface $-1 0 0 -14.633625689257427 0 0 1 1 0 0 forward_v I I I I #
coedge $-1 $183 $184 $185 $186 reversed $69 $-1 #
coedge $-1 $187 $71 $184 $188 forward $44 $-1 #
coedge $-1 $71 $187 $189 $190 reversed $44 $-1 #
coedge $-1 $191 $185 $71 $115 forward $180 $-1 #
edge $-1 $192 7.4693579036712485 $193 22.782104941865907 $114 $194 forward 7 unknown #
face $-1 $195 $196 $26 $-1 $197 reversed single #
loop $-1 $-1 $198 $72 #
plane-surface $-1 107.3375639822962 -22.595089326439826 212.41628522736028 0 1 0 0.80901700255871778 0 0.5877852410284794 forward_v I I I I #
coedge $-1 $199 $200 $201 $202 reversed $73 $-1 #
coedge $-1 $121 $75 $203 $204 reversed $47 $-1 #
coedge $-1 $75 $120 $199 $205 reversed $47 $-1 #
coedge $-1 $201 $206 $75 $123 forward $207 $-1 #
edge $-1 $208 -20.743889293986335 $209 -13.408052909564439 $122 $210 forward 7 unknown #
loop $-1 $-1 $129 $76 #
plane-surface $-1 -13.064668568677064 -13.586492292597914 124.93894537354878 0.80901700255871778 0 0.5877852410284794 0.5877852410284794 0 -0.80901700255871778 forward_v I I I I #
loop $-1 $-1 $211 $49 #
coedge $-1 $127 $127 $128 $212 reversed $77 $-1 #
coedge $-1 $128 $128 $127 $212 forward $79 $-1 #
coedge $-1 $129 $129 $80 $130 forward $124 $-1 #
edge $-1 $213 0 $213 6.2831853071796004 $129 $214 forward 7 unknown #
loop $-1 $-1 $136 $81 #
plane-surface $-1 -13.064668568677064 -13.586492292597914 124.93894537354878 0.80901700255871778 0 0.5877852410284794 0.5877852410284794 0 -0.80901700255871778 forward_v I I I I #
loop $-1 $-1 $215 $52 #
coedge $-1 $134 $134 $135 $216 reversed $82 $-1 #
coedge $-1 $135 $135 $134 $216 forward $84 $-1 #
coedge $-1 $136 $136 $85 $137 forward $131 $-1 #
edge $-1 $217 0 $217 6.2831853071796004 $136 $218 forward 7 unknown #
face $-1 $219 $220 $29 $-1 $221 forward single #
loop $-1 $-1 $222 $86 #
plane-surface $-1 -194.8149038361077 -4.5778952587560013 92.01405267638701 0 -1 0 0.80901700255871778 0 -0.5877852410284794 forward_v I I I I #
coedge $-1 $223 $224 $225 $226 reversed $87 $-1 #
coedge $-1 $143 $89 $227 $228 reversed $56 $-1 #
coedge $-1 $89 $142 $223 $229 reversed $56 $-1 #
coedge $-1 $225 $230 $89 $145 forward $220 $-1 #
edge $-1 $231 22.994780632919415 $232 30.330617017341311 $144 $233 forward 7 unknown #
loop $-1 $-1 $151 $90 #
plane-surface $-1 -74.412671285134437 -13.586492292597914 4.5367128225755096 -0.80901700255871778 0 0.5877852410284794 0.5877852410284794 0 0.80901700255871778 forward_v I I I I #
loop $-1 $-1 $234 $58 #
coedge $-1 $149 $149 $150 $235 reversed $91 $-1 #
coedge $-1 $150 $150 $149 $235 forward $93 $-1 #
coedge $-1 $151 $151 $94 $152 forward $146 $-1 #
edge $-1 $236 0 $236 6.2831853071796004 $151 $237 forward 7 unknown #
loop $-1 $-1 $158 $95 #
plane-surface $-1 -74.412671285134437 -13.586492292597914 4.5367128225755096 -0.80901700255871778 0 0.5877852410284794 0.5877852410284794 0 0.80901700255871778 forward_v I I I I #
loop $-1 $-1 $238 $61 #
coedge $-1 $156 $156 $157 $239 reversed $96 $-1 #
coedge $-1 $157 $157 $156 $239 forward $98 $-1 #
coedge $-1 $158 $158 $99 $159 forward $153 $-1 #
edge $-1 $240 0 $240 6.2831853071796004 $158 $241 forward 7 unknown #
face $-1 $242 $243 $24 $-1 $244 reversed single #
loop $-1 $-1 $245 $100 #
plane-surface $-1 -74.412671285134437 0 0 1 0 0 0 0 -1 forward_v I I I I #
coedge $-1 $246 $171 $247 $248 forward $101 $-1 #
coedge $-1 $249 $103 $246 $250 forward $65 $-1 #
coedge $-1 $103 $249 $251 $252 forward $65 $-1 #
coedge $-1 $174 $173 $103 $167 reversed $175 $-1 #
edge $-1 $253 -37.907836364634484 $254 37.907836364634484 $166 $255 forward 7 unknown #
coedge $-1 $105 $104 $256 $257 forward $41 $-1 #
coedge $-1 $258 $259 $104 $170 reversed $243 $-1 #
edge $-1 $177 -74.412671285134437 $260 74.412671285134437 $169 $261 forward 7 unknown #
coedge $-1 $163 $262 $105 $172 reversed $101 $-1 #
edge $-1 $263 -74.412671285134437 $176 74.412671285134437 $171 $264 forward 7 unknown #
coedge $-1 $166 $106 $262 $265 forward $175 $-1 #
coedge $-1 $106 $166 $258 $266 reversed $175 $-1 #
loop $-1 $-1 $173 $242 #
vertex $-1 $107 $267 #
vertex $-1 $107 $268 #
straight-curve $-1 74.412671285134437 0 14.633625689257427 0 1 0 I I #
face $-1 $269 $270 $25 $-1 $271 reversed single #
loop $-1 $-1 $185 $108 #
plane-surface $-1 74.412671285134437 0 0 -1 0 0 0 0 1 forward_v I I I I #
coedge $-1 $272 $273 $183 $274 forward $109 $-1 #
coedge $-1 $275 $111 $182 $274 reversed $69 $-1 #
coedge $-1 $111 $275 $112 $188 reversed $69 $-1 #
coedge $-1 $114 $276 $111 $186 forward $180 $-1 #
edge $-1 $277 -8.3812084800696045 $192 -4.1236259383060396 $185 $278 forward 7 unknown #
coedge $-1 $113 $112 $279 $280 reversed $44 $-1 #
edge $-1 $192 -74.412671285134437 $281 74.412671285134437 $184 $282 forward 7 unknown #
coedge $-1 $283 $284 $113 $190 forward $270 $-1 #
edge $-1 $193 -74.412671285134437 $285 74.412671285134437 $189 $286 forward 7 unknown #
coedge $-1 $276 $114 $284 $287 forward $180 $-1 #
vertex $-1 $115 $288 #
vertex $-1 $287 $289 #
straight-curve $-1 74.412671285134437 -15.125731422768578 -10.376043147493862 0 -1 0 I I #
face $-1 $-1 $207 $26 $-1 $290 forward single #
loop $-1 $-1 $291 $116 #
plane-surface $-1 74.412671285134437 0 0 -1 0 0 0 0 1 forward_v I I I I #
coedge $-1 $292 $293 $294 $295 reversed $117 $-1 #
coedge $-1 $296 $119 $121 $205 forward $73 $-1 #
coedge $-1 $119 $296 $292 $297 forward $73 $-1 #
coedge $-1 $294 $122 $119 $202 forward $207 $-1 #
edge $-1 $209 -2.2153508875429555 $298 15.801843180140869 $201 $299 forward 7 unknown #
coedge $-1 $300 $301 $120 $204 forward $196 $-1 #
edge $-1 $302 -101.67142979110463 $208 -91.57451692442271 $203 $303 forward 7 unknown #
edge $-1 $209 136.34487203040641 $302 148.82534257026887 $121 $304 forward 7 unknown #
coedge $-1 $122 $294 $300 $305 forward $207 $-1 #
loop $-1 $-1 $294 $195 #
vertex $-1 $204 $306 #
vertex $-1 $123 $307 #
straight-curve $-1 53.668781991148101 -4.5778952587560013 14.633625689257428 -1 0 0 I I #
coedge $-1 $211 $211 $-1 $308 reversed $126 $-1 #
edge $-1 $309 0 $309 6.2831853071796004 $127 $310 forward 7 unknown #
vertex $-1 $130 $311 #
ellipse-curve $-1 70.744753092923489 -17.447319592815877 9.5851692559164619 0.80901700255871778 0 0.5877852410284794 1.1755704820569588 0 -1.6180340051174356 1 I I #
coedge $-1 $215 $215 $-1 $312 reversed $133 $-1 #
edge $-1 $313 0 $313 6.2831853071796004 $134 $314 forward 7 unknown #
vertex $-1 $137 $315 #
ellipse-curve $-1 70.744753092923489 -9.7256649923799507 9.5851692559164619 0.80901700255871778 0 0.5877852410284794 1.1755704820569588 0 -1.6180340051174356 1 I I #
face $-1 $-1 $316 $29 $-1 $317 reversed single #
loop $-1 $-1 $144 $138 #
plane-surface $-1 0 0 14.633625689257427 0 0 1 1 0 0 forward_v I I I I #
coedge $-1 $318 $319 $320 $321 reversed $139 $-1 #
coedge $-1 $322 $141 $143 $229 forward $87 $-1 #
coedge $-1 $141 $322 $318 $323 forward $87 $-1 #
coedge $-1 $320 $144 $141 $226 forward $220 $-1 #
edge $-1 $232 -15.801843180140869 $324 2.2153508875429555 $225 $325 forward 7 unknown #
coedge $-1 $326 $327 $142 $228 forward $316 $-1 #
edge $-1 $328 -41.470313515617995 $231 -31.373400648936077 $227 $329 forward 7 unknown #
edge $-1 $232 -12.480470539862466 $328 0 $143 $330 forward 7 unknown #
coedge $-1 $144 $320 $326 $331 forward $220 $-1 #
vertex $-1 $228 $332 #
vertex $-1 $145 $333 #
straight-curve $-1 -97.407451918053852 -22.595089326439826 14.633625689257428 1 0 0 I I #
coedge $-1 $234 $234 $-1 $334 reversed $148 $-1 #
edge $-1 $335 0 $335 6.2831853071796004 $149 $336 forward 7 unknown #
vertex $-1 $152 $337 #
ellipse-curve $-1 -70.744753092923489 -17.447319592815877 9.585169255916469 -0.80901700255871778 0 0.5877852410284794 1.1755704820569588 0 1.6180340051174356 1 I I #
coedge $-1 $238 $238 $-1 $338 reversed $155 $-1 #
edge $-1 $339 0 $339 6.2831853071796004 $156 $340 forward 7 unknown #
vertex $-1 $159 $341 #
ellipse-curve $-1 -70.744753092923489 -9.7256649923799507 9.585169255916469 -0.80901700255871778 0 0.5877852410284794 1.1755704820569588 0 1.6180340051174356 1 I I #
face $-1 $-1 $175 $24 $-1 $342 reversed single #
loop $-1 $-1 $258 $160 #
plane-surface $-1 0 37.907836364634484 0 0 -1 0 0 0 -1 forward_v I I I I #
coedge $-1 $343 $256 $259 $344 forward $161 $-1 #
coedge $-1 $262 $163 $164 $250 reversed $101 $-1 #
coedge $-1 $256 $343 $163 $248 reversed $161 $-1 #
edge $-1 $263 -14.633625689257427 $345 14.633625689257427 $247 $346 forward 7 unknown #
coedge $-1 $165 $164 $343 $347 forward $65 $-1 #
edge $-1 $254 -74.412671285134437 $345 74.412671285134437 $246 $348 forward 7 unknown #
coedge $-1 $259 $258 $165 $252 reversed $243 $-1 #
edge $-1 $349 -74.412671285134437 $253 74.412671285134437 $251 $350 forward 7 unknown #
vertex $-1 $167 $351 #
vertex $-1 $265 $352 #
straight-curve $-1 74.412671285134437 0 -14.633625689257427 0 -1 0 I I #
coedge $-1 $245 $247 $168 $257 reversed $161 $-1 #
edge $-1 $260 -37.907836364634484 $263 37.907836364634484 $256 $353 forward 7 unknown #
coedge $-1 $251 $169 $174 $266 forward $243 $-1 #
coedge $-1 $169 $251 $245 $344 reversed $243 $-1 #
vertex $-1 $170 $354 #
straight-curve $-1 0 37.907836364634484 14.633625689257427 -1 0 0 I I #
coedge $-1 $171 $246 $173 $265 reversed $101 $-1 #
vertex $-1 $257 $355 #
straight-curve $-1 0 -37.907836364634484 14.633625689257427 1 0 0 I I #
edge $-1 $176 -14.633625689257427 $254 14.633625689257427 $173 $356 forward 7 unknown #
edge $-1 $177 -14.633625689257427 $253 14.633625689257427 $174 $357 forward 7 unknown #
point $-1 74.412671285134437 -37.907836364634484 14.633625689257427 #
point $-1 74.412671285134437 37.907836364634484 14.633625689257427 #
face $-1 $-1 $358 $25 $-1 $359 reversed single #
loop $-1 $-1 $189 $179 #
plane-surface $-1 0 -37.907836364634484 0 0 1 0 0 0 1 forward_v I I I I #
coedge $-1 $360 $182 $276 $361 forward $109 $-1 #
coedge $-1 $182 $360 $362 $363 forward $109 $-1 #
edge $-1 $364 -74.412671285134437 $277 74.412671285134437 $182 $365 forward 7 unknown #
coedge $-1 $184 $183 $366 $367 reversed $69 $-1 #
coedge $-1 $185 $191 $272 $361 reversed $180 $-1 #
vertex $-1 $361 $368 #
straight-curve $-1 74.412671285134437 -22.595089326439826 -6.2524172091878221 0 0 1 I I #
coedge $-1 $366 $369 $187 $280 forward $358 $-1 #
edge $-1 $285 -22.782104941865907 $281 -7.4693579036712485 $279 $370 forward 7 unknown #
vertex $-1 $280 $371 #
straight-curve $-1 0 -22.595089326439826 -10.376043147493862 -1 0 0 I I #
coedge $-1 $372 $189 $369 $373 forward $270 $-1 #
coedge $-1 $189 $372 $191 $287 reversed $270 $-1 #
vertex $-1 $373 $374 #
straight-curve $-1 0 -37.907836364634484 -10.376043147493862 -1 0 0 I I #
edge $-1 $193 10.376043147493862 $375 14.633625689257427 $191 $376 forward 7 unknown #
point $-1 74.412671285134437 -22.595089326439826 -10.376043147493862 #
point $-1 74.412671285134437 -37.907836364634484 -10.376043147493862 #
plane-surface $-1 0 0 14.633625689257427 0 0 1 1 0 0 forward_v I I I I #
coedge $-1 $301 $300 $293 $377 forward $196 $-1 #
coedge $-1 $293 $198 $200 $297 reversed $117 $-1 #
coedge $-1 $198 $292 $291 $377 reversed $117 $-1 #
coedge $-1 $206 $201 $198 $295 forward $207 $-1 #
edge $-1 $298 13.408052909564439 $378 20.743889293986335 $294 $379 forward 7 unknown #
coedge $-1 $200 $199 $301 $380 reversed $73 $-1 #
edge $-1 $381 -148.82534257026887 $298 -136.34487203040641 $292 $382 forward 7 unknown #
vertex $-1 $202 $383 #
straight-curve $-1 67.076834900712541 -6.7932461462989568 14.633625689257428 0 -1 0 I I #
coedge $-1 $291 $203 $206 $305 reversed $196 $-1 #
coedge $-1 $203 $291 $296 $380 forward $196 $-1 #
vertex $-1 $204 $384 #
straight-curve $-1 74.412671285134437 -4.5778952587560013 106.20814261368014 0 0 1 I I #
straight-curve $-1 -13.064668568677064 -4.5778952587560013 124.93894537354878 0.5877852410284794 0 -0.80901700255871778 I I #
edge $-1 $378 -22.595089326439826 $208 -4.5778952587560013 $300 $385 forward 7 unknown #
point $-1 74.412671285134437 -4.5778952587560013 14.633625689257427 #
point $-1 67.076834900712541 -4.5778952587560013 14.633625689257428 #
edge $-1 $386 1 $386 0 $211 $-1 forward 7 unknown #
vertex $-1 $212 $387 #
ellipse-curve $-1 66.462718216744321 -17.447319592815877 6.4740889030599043 0.80901700255871778 0 0.5877852410284794 1.1755704820569588 0 -1.6180340051174356 1 I I #
point $-1 71.920323574980472 -17.447319592815877 7.9671352507990392 #
edge $-1 $388 1 $388 0 $215 $-1 forward 7 unknown #
vertex $-1 $216 $389 #
ellipse-curve $-1 66.462718216744321 -9.7256649923799507 6.4740889030599043 0.80901700255871778 0 0.5877852410284794 1.1755704820569588 0 -1.6180340051174356 1 I I #
point $-1 71.920323574980472 -9.7256649923799507 7.9671352507990392 #
loop $-1 $-1 $227 $219 #
plane-surface $-1 -74.412671285134437 0 0 1 0 0 0 0 -1 forward_v I I I I #
coedge $-1 $319 $222 $224 $323 reversed $139 $-1 #
coedge $-1 $222 $318 $390 $391 reversed $139 $-1 #
coedge $-1 $230 $225 $222 $321 forward $220 $-1 #
edge $-1 $324 -30.330617017341311 $392 -22.994780632919415 $320 $393 forward 7 unknown #
coedge $-1 $224 $223 $327 $394 reversed $87 $-1 #
edge $-1 $395 0 $324 12.480470539862466 $318 $396 forward 7 unknown #
vertex $-1 $226 $397 #
straight-curve $-1 -67.076834900712541 -6.7932461462989568 14.633625689257427 0 1 0 I I #
coedge $-1 $390 $227 $230 $331 reversed $316 $-1 #
coedge $-1 $227 $390 $322 $394 forward $316 $-1 #
vertex $-1 $228 $398 #
straight-curve $-1 -74.412671285134437 -22.595089326439826 46.007026338193505 0 0 1 I I #
straight-curve $-1 -74.412671285134437 -22.595089326439826 4.5367128225755096 -0.5877852410284794 0 -0.80901700255871778 I I #
edge $-1 $392 4.5778952587560013 $231 22.595089326439826 $326 $399 forward 7 unknown #
point $-1 -74.412671285134437 -22.595089326439826 14.633625689257427 #
point $-1 -67.076834900712541 -22.595089326439826 14.633625689257427 #
edge $-1 $400 1 $400 0 $234 $-1 forward 7 unknown #
vertex $-1 $235 $401 #
ellipse-curve $-1 -66.462718216744292 -17.447319592815877 6.4740889030598936 -0.80901700255871778 0 0.5877852410284794 1.1755704820569588 0 1.6180340051174356 1 I I #
point $-1 -69.56918261086652 -17.447319592815877 11.203203261033899 #
edge $-1 $402 1 $402 0 $238 $-1 forward 7 unknown #
vertex $-1 $239 $403 #
ellipse-curve $-1 -66.462718216744292 -9.7256649923799507 6.4740889030598936 -0.80901700255871778 0 0.5877852410284794 1.1755704820569588 0 1.6180340051174356 1 I I #
point $-1 -69.56918261086652 -9.7256649923799507 11.203203261033899 #
plane-surface $-1 74.412671285134437 0 0 -1 0 0 0 0 1 forward_v I I I I #
coedge $-1 $247 $245 $249 $347 reversed $161 $-1 #
edge $-1 $260 -14.633625689257427 $349 14.633625689257427 $259 $404 forward 7 unknown #
vertex $-1 $347 $405 #
straight-curve $-1 -74.412671285134437 -37.907836364634484 0 0 0 -1 I I #
edge $-1 $345 -37.907836364634484 $349 37.907836364634484 $343 $406 forward 7 unknown #
straight-curve $-1 0 -37.907836364634484 -14.633625689257427 -1 0 0 I I #
vertex $-1 $252 $407 #
straight-curve $-1 0 37.907836364634484 -14.633625689257427 1 0 0 I I #
point $-1 74.412671285134437 37.907836364634484 -14.633625689257427 #
point $-1 74.412671285134437 -37.907836364634484 -14.633625689257427 #
straight-curve $-1 -74.412671285134437 0 14.633625689257427 0 -1 0 I I #
point $-1 -74.412671285134437 37.907836364634484 14.633625689257427 #
point $-1 -74.412671285134437 -37.907836364634484 14.633625689257427 #
straight-curve $-1 74.412671285134437 -37.907836364634484 0 0 0 -1 I I #
straight-curve $-1 74.412671285134437 37.907836364634484 0 0 0 -1 I I #
loop $-1 $-1 $366 $269 #
plane-surface $-1 -74.412671285134437 0 0 1 0 0 0 0 -1 forward_v I I I I #
coedge $-1 $273 $272 $372 $408 forward $109 $-1 #
edge $-1 $277 22.595089326439826 $375 37.907836364634484 $276 $409 forward 7 unknown #
coedge $-1 $369 $366 $273 $363 reversed $358 $-1 #
edge $-1 $410 -37.907836364634484 $364 -22.595089326439826 $362 $411 forward 7 unknown #
vertex $-1 $367 $412 #
straight-curve $-1 0 -22.595089326439826 -14.633625689257427 1 0 0 I I #
coedge $-1 $362 $279 $275 $367 forward $358 $-1 #
edge $-1 $281 4.1236259383060396 $364 8.3812084800696045 $366 $413 forward 7 unknown #
point $-1 74.412671285134437 -22.595089326439826 -14.633625689257427 #
coedge $-1 $279 $362 $283 $373 reversed $358 $-1 #
straight-curve $-1 -74.412671285134437 -15.125731422768578 -10.376043147493862 0 1 0 I I #
point $-1 -74.412671285134437 -22.595089326439826 -10.376043147493862 #
coedge $-1 $284 $283 $360 $408 reversed $270 $-1 #
edge $-1 $285 10.376043147493862 $410 14.633625689257427 $369 $414 forward 7 unknown #
point $-1 -74.412671285134437 -37.907836364634484 -10.376043147493862 #
vertex $-1 $287 $415 #
straight-curve $-1 74.412671285134437 -37.907836364634484 0 0 0 -1 I I #
edge $-1 $378 91.57451692442271 $381 101.67142979110463 $291 $416 forward 7 unknown #
vertex $-1 $305 $417 #
straight-curve $-1 53.668781991148101 -22.595089326439826 14.633625689257428 1 0 0 I I #
edge $-1 $381 -15.801843180140869 $302 2.2153508875429555 $301 $418 forward 7 unknown #
vertex $-1 $380 $419 #
straight-curve $-1 -13.064668568677064 -22.595089326439826 124.93894537354878 -0.5877852410284794 0 0.80901700255871778 I I #
point $-1 67.076834900712541 -22.595089326439826 14.633625689257428 #
point $-1 74.412671285134437 -4.5778952587560013 4.5367128225755096 #
straight-curve $-1 74.412671285134437 0 14.633625689257427 0 1 0 I I #
vertex $-1 $308 $420 #
point $-1 67.638288698801276 -17.447319592815877 4.8560548979424691 #
vertex $-1 $312 $421 #
point $-1 67.638288698801276 -9.7256649923799507 4.8560548979424691 #
coedge $-1 $327 $326 $319 $391 forward $316 $-1 #
edge $-1 $392 31.373400648936077 $395 41.470313515617995 $390 $422 forward 7 unknown #
vertex $-1 $331 $423 #
straight-curve $-1 -97.407451918053852 -4.5778952587560013 14.633625689257428 -1 0 0 I I #
edge $-1 $395 -2.2153508875429555 $328 15.801843180140869 $327 $424 forward 7 unknown #
vertex $-1 $394 $425 #
straight-curve $-1 -74.412671285134437 -4.5778952587560013 4.5367128225755096 0.5877852410284794 0 0.80901700255871778 I I #
point $-1 -67.076834900712541 -4.5778952587560013 14.633625689257427 #
point $-1 -74.412671285134437 -22.595089326439826 4.5367128225755096 #
straight-curve $-1 -74.412671285134437 0 14.633625689257427 0 -1 0 I I #
vertex $-1 $334 $426 #
point $-1 -65.287147734687338 -17.447319592815877 8.0921229081773305 #
vertex $-1 $338 $427 #
point $-1 -65.287147734687338 -9.7256649923799507 8.0921229081773305 #
straight-curve $-1 -74.412671285134437 37.907836364634484 0 0 0 -1 I I #
point $-1 -74.412671285134437 -37.907836364634484 -14.633625689257427 #
straight-curve $-1 -74.412671285134437 0 -14.633625689257427 0 1 0 I I #
point $-1 -74.412671285134437 37.907836364634484 -14.633625689257427 #
edge $-1 $375 -74.412671285134437 $410 74.412671285134437 $372 $428 forward 7 unknown #
straight-curve $-1 74.412671285134437 0 -14.633625689257427 0 -1 0 I I #
vertex $-1 $363 $429 #
straight-curve $-1 -74.412671285134437 0 -14.633625689257427 0 1 0 I I #
point $-1 -74.412671285134437 -22.595089326439826 -14.633625689257427 #
straight-curve $-1 -74.412671285134437 -22.595089326439826 -6.2524172091878221 0 0 -1 I I #
straight-curve $-1 -74.412671285134437 -37.907836364634484 0 0 0 -1 I I #
point $-1 74.412671285134437 -37.907836364634484 -14.633625689257427 #
straight-curve $-1 74.412671285134437 -22.595089326439826 106.20814261368014 0 0 -1 I I #
point $-1 74.412671285134437 -22.595089326439826 14.633625689257427 #
straight-curve $-1 74.412671285134437 -6.7932461462989568 4.5367128225755096 0 1 0 I I #
point $-1 74.412671285134437 -22.595089326439826 4.5367128225755096 #
point $-1 64.844684211626884 -17.447319592815877 5.2985184210029459 #
point $-1 64.844684211626884 -9.7256649923799507 5.2985184210029459 #
straight-curve $-1 -74.412671285134437 -4.5778952587560013 46.007026338193505 0 0 -1 I I #
point $-1 -74.412671285134437 -4.5778952587560013 14.633625689257427 #
straight-curve $-1 -74.412671285134437 -6.7932461462989568 4.5367128225755149 0 -1 0 I I #
point $-1 -74.412671285134437 -4.5778952587560013 4.5367128225755096 #
point $-1 -64.844684211626856 -17.447319592815877 5.2985184210029352 #
point $-1 -64.844684211626856 -9.7256649923799507 5.2985184210029352 #
straight-curve $-1 0 -37.907836364634484 -14.633625689257427 -1 0 0 I I #
point $-1 -74.412671285134437 -37.907836364634484 -14.633625689257427 #
End-of-ACIS-data 