500 0 14 0           
7 Unknown 11 ACIS 5.0 NT 24 Fri Mar 26 17:39:28 1999 
-1 9.9999999999999995e-007 1e-010 
body $-1 $14 $-1 $15 #
body $-1 $16 $-1 $17 #
body $-1 $18 $-1 $19 #
body $-1 $20 $-1 $21 #
body $-1 $22 $-1 $23 #
body $-1 $24 $-1 $25 #
body $-1 $26 $-1 $27 #
body $-1 $28 $-1 $29 #
body $-1 $30 $-1 $31 #
body $-1 $32 $-1 $33 #
body $-1 $34 $-1 $35 #
body $-1 $36 $-1 $37 #
body $-1 $38 $-1 $39 #
body $-1 $40 $-1 $41 #
lump $-1 $-1 $42 $0 #
transform $-1 1 0 0 0 1 0 0 0 1 43.026215399639881 26.958647965448364 11.50351926794943 1 rotate no_reflect no_shear #
lump $-1 $-1 $43 $1 #
transform $-1 1 0 0 0 1 0 0 0 1 43.026215399639881 26.958647965448364 11.50351926794943 1 rotate no_reflect no_shear #
lump $-1 $-1 $44 $2 #
transform $-1 1 0 0 0 1 0 0 0 1 43.026215399639881 26.958647965448364 11.50351926794943 1 rotate no_reflect no_shear #
lump $-1 $-1 $45 $3 #
transform $-1 1 0 0 0 1 0 0 0 1 43.026215399639881 26.958647965448364 11.50351926794943 1 rotate no_reflect no_shear #
lump $-1 $-1 $46 $4 #
transform $-1 1 0 0 0 1 0 0 0 1 43.026215399639881 26.958647965448364 11.50351926794943 1 rotate no_reflect no_shear #
lump $-1 $-1 $47 $5 #
transform $-1 1 0 0 0 1 0 0 0 1 43.026215399639881 26.958647965448364 11.50351926794943 1 rotate no_reflect no_shear #
lump $-1 $-1 $48 $6 #
transform $-1 1 0 0 0 1 0 0 0 1 43.026215399639881 26.958647965448364 11.50351926794943 1 rotate no_reflect no_shear #
lump $-1 $-1 $49 $7 #
transform $-1 1 0 0 0 1 0 0 0 1 43.026215399639881 26.958647965448364 11.50351926794943 1 rotate no_reflect no_shear #
lump $-1 $-1 $50 $8 #
transform $-1 1 0 0 0 1 0 0 0 1 43.026215399639881 26.958647965448364 11.50351926794943 1 rotate no_reflect no_shear #
lump $-1 $-1 $51 $9 #
transform $-1 1 0 0 0 1 0 0 0 1 43.026215399639881 26.958647965448364 11.50351926794943 1 rotate no_reflect no_shear #
lump $-1 $-1 $52 $10 #
transform $-1 1 0 0 0 1 0 0 0 1 43.026215399639881 26.958647965448364 11.50351926794943 1 rotate no_reflect no_shear #
lump $-1 $-1 $53 $11 #
transform $-1 1 0 0 0 1 0 0 0 1 43.026215399639881 26.958647965448364 11.50351926794943 1 rotate no_reflect no_shear #
lump $-1 $-1 $54 $12 #
transform $-1 1 0 0 0 1 0 0 0 1 43.026215399639881 26.958647965448364 11.50351926794943 1 rotate no_reflect no_shear #
lump $-1 $-1 $55 $13 #
transform $-1 1 0 0 0 1 0 0 0 1 43.026215399639881 26.958647965448364 11.50351926794943 1 rotate no_reflect no_shear #
shell $-1 $-1 $-1 $56 $-1 $14 #
shell $-1 $-1 $-1 $57 $-1 $16 #
shell $-1 $-1 $-1 $58 $-1 $18 #
shell $-1 $-1 $-1 $59 $-1 $20 #
shell $-1 $-1 $-1 $60 $-1 $22 #
shell $-1 $-1 $-1 $61 $-1 $24 #
shell $-1 $-1 $-1 $62 $-1 $26 #
shell $-1 $-1 $-1 $63 $-1 $28 #
shell $-1 $-1 $-1 $64 $-1 $30 #
shell $-1 $-1 $-1 $65 $-1 $32 #
shell $-1 $-1 $-1 $66 $-1 $34 #
shell $-1 $-1 $-1 $67 $-1 $36 #
shell $-1 $-1 $-1 $68 $-1 $38 #
shell $-1 $-1 $-1 $69 $-1 $40 #
face $-1 $70 $71 $42 $-1 $72 forward single #
face $-1 $73 $74 $43 $-1 $75 forward single #
face $-1 $76 $77 $44 $-1 $78 reversed single #
face $-1 $79 $80 $45 $-1 $81 forward single #
face $-1 $82 $83 $46 $-1 $84 forward single #
face $-1 $85 $86 $47 $-1 $87 forward single #
face $-1 $88 $89 $48 $-1 $90 reversed single #
face $-1 $91 $92 $49 $-1 $93 forward single #
face $-1 $94 $95 $50 $-1 $96 forward single #
face $-1 $97 $98 $51 $-1 $99 forward single #
face $-1 $100 $101 $52 $-1 $102 reversed single #
face $-1 $103 $104 $53 $-1 $105 forward single #
face $-1 $106 $107 $54 $-1 $108 forward single #
face $-1 $109 $110 $55 $-1 $111 forward single #
face $-1 $112 $113 $42 $-1 $114 reversed single #
loop $-1 $-1 $115 $56 #
plane-surface $-1 0 0 11.50351926794943 0 0 1 1 0 0 forward_v I I I I #
face $-1 $116 $117 $43 $-1 $118 reversed single #
loop $-1 $-1 $119 $57 #
plane-surface $-1 0 -22.818981909380312 -5.8144256757035588 0 0 1 1 0 0 forward_v I I I I #
face $-1 $120 $121 $44 $-1 $122 reversed single #
loop $-1 $-1 $123 $58 #
plane-surface $-1 -102.80325745495182 -6.4445419834179045 63.663821295358375 0 1 0 -0.69465837861970381 0 0.71933979245794832 forward_v I I I I #
face $-1 $124 $125 $45 $-1 $126 forward single #
loop $-1 $127 $128 $59 #
cone-surface $-1 -37.635524561516895 -4.3277003755207168 6.2735315295969984 0.69465837861970381 0 -0.71933979245794832 0.35966989622897416 0 0.3473291893098519 1 I I 0 1 0.5 forward I I I I #
face $-1 $129 $130 $46 $-1 $131 forward single #
loop $-1 $132 $133 $60 #
cone-surface $-1 -37.635524561516895 -1.1524379636749309 6.2735315295969984 0.69465837861970381 0 -0.71933979245794832 0.35966989622897416 0 0.3473291893098519 1 I I 0 1 0.5 forward I I I I #
face $-1 $134 $135 $47 $-1 $136 forward single #
loop $-1 $137 $138 $61 #
cone-surface $-1 -37.635524561516895 2.022824448170855 6.2735315295969984 0.69465837861970381 0 -0.71933979245794832 0.35966989622897416 0 0.3473291893098519 1 I I 0 1 0.5 forward I I I I #
face $-1 $139 $140 $48 $-1 $141 reversed single #
loop $-1 $-1 $142 $62 #
plane-surface $-1 -43.026215399639874 -1.1524379636749273 1.7628835837025107 -0.69465837861970381 0 0.71933979245794832 0.71933979245794832 0 0.69465837861970381 forward_v I I I I #
face $-1 $143 $144 $49 $-1 $145 forward single #
loop $-1 $146 $147 $63 #
cone-surface $-1 -37.635524561516895 6.2565076639652375 6.2735315295969984 0.69465837861970381 0 -0.71933979245794832 0.35966989622897416 0 0.3473291893098519 1 I I 0 1 0.5 forward I I I I #
face $-1 $148 $149 $50 $-1 $150 forward single #
loop $-1 $151 $152 $64 #
cone-surface $-1 -37.635524561516895 9.4317700758110163 6.2735315295969984 0.69465837861970381 0 -0.71933979245794832 0.35966989622897416 0 0.3473291893098519 1 I I 0 1 0.5 forward I I I I #
face $-1 $153 $154 $51 $-1 $155 forward single #
loop $-1 $156 $157 $65 #
cone-surface $-1 -37.635524561516895 12.607032487656809 6.2735315295969984 0.69465837861970381 0 -0.71933979245794832 0.35966989622897416 0 0.3473291893098519 1 I I 0 1 0.5 forward I I I I #
face $-1 $158 $159 $52 $-1 $160 reversed single #
loop $-1 $-1 $161 $66 #
plane-surface $-1 49.395320372559112 10.307663319616518 126.16207177923221 0 -1 0 -0.74314483375859142 0 -0.66913059716165679 forward_v I I I I #
face $-1 $162 $163 $53 $-1 $164 forward single #
loop $-1 $165 $166 $67 #
cone-surface $-1 39.423228885820905 3.2916268607998234 7.6091125564094879 -0.74314483375859142 0 -0.66913059716165679 0.3345652985808284 0 -0.37157241687929571 1 I I 0 1 0.5 forward I I I I #
face $-1 $167 $168 $54 $-1 $169 forward single #
loop $-1 $170 $171 $68 #
cone-surface $-1 39.423228885820905 5.9226405328560858 7.6091125564094879 -0.74314483375859142 0 -0.66913059716165679 0.3345652985808284 0 -0.37157241687929571 1 I I 0 1 0.5 forward I I I I #
face $-1 $172 $173 $55 $-1 $174 forward single #
loop $-1 $175 $176 $69 #
cone-surface $-1 39.423228885820905 8.5536542049123483 7.6091125564094879 -0.74314483375859142 0 -0.66913059716165679 0.3345652985808284 0 -0.37157241687929571 1 I I 0 1 0.5 forward I I I I #
face $-1 $177 $178 $42 $-1 $179 reversed single #
loop $-1 $-1 $180 $70 #
plane-surface $-1 0 0 -11.50351926794943 0 0 1 1 0 0 forward_v I I I I #
coedge $-1 $181 $182 $183 $184 forward $71 $-1 #
face $-1 $185 $186 $43 $-1 $187 reversed single #
loop $-1 $-1 $188 $73 #
plane-surface $-1 0 -18.679315853312261 -8.6589724718264947 0 -1 0 0 0 -1 forward_v I I I I #
coedge $-1 $189 $190 $191 $192 reversed $74 $-1 #
face $-1 $193 $194 $44 $-1 $195 reversed single #
loop $-1 $-1 $196 $76 #
plane-surface $-1 -43.026215399639874 -1.1524379636749273 1.7628835837025107 -0.69465837861970381 0 0.71933979245794832 0.71933979245794832 0 0.69465837861970381 forward_v I I I I #
coedge $-1 $197 $198 $199 $200 reversed $77 $-1 #
face $-1 $-1 $201 $45 $-1 $202 forward single #
loop $-1 $203 $204 $79 #
cone-surface $-1 -37.114530777552119 -4.3277003755207168 5.7340266852535375 0.69465837861970381 0 -0.71933979245794832 0.17983494811448708 0 0.17366459465492595 1 I I -0.70710678118654746 0.70710678118654746 0.25 forward I I I I #
loop $-1 $-1 $205 $59 #
coedge $-1 $128 $128 $206 $207 reversed $80 $-1 #
face $-1 $-1 $208 $46 $-1 $209 forward single #
loop $-1 $210 $211 $82 #
cone-surface $-1 -37.114530777552119 -1.1524379636749309 5.7340266852535375 0.69465837861970381 0 -0.71933979245794832 0.17983494811448708 0 0.17366459465492595 1 I I -0.70710678118654746 0.70710678118654746 0.25 forward I I I I #
loop $-1 $-1 $212 $60 #
coedge $-1 $133 $133 $213 $214 reversed $83 $-1 #
face $-1 $-1 $215 $47 $-1 $216 forward single #
loop $-1 $217 $218 $85 #
cone-surface $-1 -37.114530777552119 2.022824448170855 5.7340266852535375 0.69465837861970381 0 -0.71933979245794832 0.17983494811448708 0 0.17366459465492595 1 I I -0.70710678118654746 0.70710678118654746 0.25 forward I I I I #
loop $-1 $-1 $219 $61 #
coedge $-1 $138 $138 $220 $221 reversed $86 $-1 #
face $-1 $222 $223 $48 $-1 $224 forward single #
loop $-1 $-1 $225 $88 #
plane-surface $-1 -102.80325745495182 14.723874095554001 63.663821295358375 0 -1 0 0.69465837861970381 0 -0.71933979245794832 forward_v I I I I #
coedge $-1 $226 $227 $228 $229 reversed $89 $-1 #
face $-1 $-1 $230 $49 $-1 $231 forward single #
loop $-1 $232 $233 $91 #
cone-surface $-1 -37.114530777552119 6.2565076639652375 5.7340266852535375 0.69465837861970381 0 -0.71933979245794832 0.17983494811448708 0 0.17366459465492595 1 I I -0.70710678118654746 0.70710678118654746 0.25 forward I I I I #
loop $-1 $-1 $234 $63 #
coedge $-1 $147 $147 $235 $236 reversed $92 $-1 #
face $-1 $-1 $237 $50 $-1 $238 forward single #
loop $-1 $239 $240 $94 #
cone-surface $-1 -37.114530777552119 9.4317700758110163 5.7340266852535375 0.69465837861970381 0 -0.71933979245794832 0.17983494811448708 0 0.17366459465492595 1 I I -0.70710678118654746 0.70710678118654746 0.25 forward I I I I #
loop $-1 $-1 $241 $64 #
coedge $-1 $152 $152 $242 $243 reversed $95 $-1 #
face $-1 $-1 $244 $51 $-1 $245 forward single #
loop $-1 $246 $247 $97 #
cone-surface $-1 -37.114530777552119 12.607032487656809 5.7340266852535375 0.69465837861970381 0 -0.71933979245794832 0.17983494811448708 0 0.17366459465492595 1 I I -0.70710678118654746 0.70710678118654746 0.25 forward I I I I #
loop $-1 $-1 $248 $65 #
coedge $-1 $157 $157 $249 $250 reversed $98 $-1 #
face $-1 $251 $252 $52 $-1 $253 reversed single #
loop $-1 $-1 $254 $100 #
plane-surface $-1 -14.554099008294337 5.9226405328560858 68.581757371297982 0.74314483375859142 0 0.66913059716165679 0.66913059716165679 0 -0.74314483375859142 forward_v I I I I #
coedge $-1 $255 $256 $257 $258 reversed $101 $-1 #
face $-1 $-1 $259 $53 $-1 $260 forward single #
loop $-1 $261 $262 $103 #
cone-surface $-1 38.727875792256341 3.2916268607998234 6.9830138343315706 -0.74314483375859142 0 -0.66913059716165679 0.1672826492904142 0 -0.18578620843964785 1 I I -0.70710678118654746 0.70710678118654746 0.25 forward I I I I #
loop $-1 $-1 $263 $67 #
coedge $-1 $166 $166 $264 $265 reversed $104 $-1 #
face $-1 $-1 $266 $54 $-1 $267 forward single #
loop $-1 $268 $269 $106 #
cone-surface $-1 38.727875792256341 5.9226405328560858 6.9830138343315706 -0.74314483375859142 0 -0.66913059716165679 0.1672826492904142 0 -0.18578620843964785 1 I I -0.70710678118654746 0.70710678118654746 0.25 forward I I I I #
loop $-1 $-1 $270 $68 #
coedge $-1 $171 $171 $271 $272 reversed $107 $-1 #
face $-1 $-1 $273 $55 $-1 $274 forward single #
loop $-1 $275 $276 $109 #
cone-surface $-1 38.727875792256341 8.5536542049123483 6.9830138343315706 -0.74314483375859142 0 -0.66913059716165679 0.1672826492904142 0 -0.18578620843964785 1 I I -0.70710678118654746 0.70710678118654746 0.25 forward I I I I #
loop $-1 $-1 $277 $69 #
coedge $-1 $176 $176 $278 $279 reversed $110 $-1 #
face $-1 $280 $281 $42 $-1 $282 reversed single #
loop $-1 $-1 $283 $112 #
plane-surface $-1 0 -26.958647965448364 0 0 1 0 0 0 1 forward_v I I I I #
coedge $-1 $284 $285 $286 $287 forward $113 $-1 #
coedge $-1 $288 $115 $289 $290 forward $71 $-1 #
coedge $-1 $115 $288 $291 $292 forward $71 $-1 #
coedge $-1 $293 $294 $115 $184 reversed $295 $-1 #
edge $-1 $296 -26.958647965448364 $297 26.958647965448364 $183 $298 forward 7 unknown #
face $-1 $299 $300 $43 $-1 $301 reversed single #
loop $-1 $-1 $302 $116 #
plane-surface $-1 0 0 -11.50351926794943 0 0 1 1 0 0 forward_v I I I I #
coedge $-1 $303 $304 $305 $306 reversed $117 $-1 #
coedge $-1 $307 $119 $304 $308 forward $74 $-1 #
coedge $-1 $119 $307 $309 $310 reversed $74 $-1 #
coedge $-1 $311 $305 $119 $192 forward $300 $-1 #
edge $-1 $312 7.2698248986221046 $313 15.549157010758208 $191 $314 forward 7 unknown #
face $-1 $315 $316 $44 $-1 $317 forward single #
loop $-1 $-1 $318 $120 #
plane-surface $-1 -102.80325745495182 4.1396660560680498 63.663821295358375 0 -1 0 0.69465837861970381 0 -0.71933979245794832 forward_v I I I I #
coedge $-1 $319 $320 $321 $322 reversed $121 $-1 #
coedge $-1 $198 $123 $323 $324 reversed $77 $-1 #
coedge $-1 $123 $197 $319 $325 reversed $77 $-1 #
coedge $-1 $321 $326 $123 $200 forward $316 $-1 #
edge $-1 $327 8.3754133278360285 $328 18.462136625462314 $199 $329 forward 7 unknown #
loop $-1 $-1 $206 $124 #
plane-surface $-1 -43.026215399639874 -1.1524379636749273 1.7628835837025107 -0.69465837861970381 0 0.71933979245794832 0.71933979245794832 0 0.69465837861970381 forward_v I I I I #
loop $-1 $-1 $330 $79 #
coedge $-1 $204 $204 $205 $331 reversed $125 $-1 #
coedge $-1 $205 $205 $204 $331 forward $127 $-1 #
coedge $-1 $206 $206 $128 $207 forward $201 $-1 #
edge $-1 $332 0 $332 6.2831853071796004 $206 $333 forward 7 unknown #
loop $-1 $-1 $213 $129 #
plane-surface $-1 -43.026215399639874 -1.1524379636749273 1.7628835837025107 -0.69465837861970381 0 0.71933979245794832 0.71933979245794832 0 0.69465837861970381 forward_v I I I I #
loop $-1 $-1 $334 $82 #
coedge $-1 $211 $211 $212 $335 reversed $130 $-1 #
coedge $-1 $212 $212 $211 $335 forward $132 $-1 #
coedge $-1 $213 $213 $133 $214 forward $208 $-1 #
edge $-1 $336 0 $336 6.2831853071796004 $213 $337 forward 7 unknown #
loop $-1 $-1 $220 $134 #
plane-surface $-1 -43.026215399639874 -1.1524379636749273 1.7628835837025107 -0.69465837861970381 0 0.71933979245794832 0.71933979245794832 0 0.69465837861970381 forward_v I I I I #
loop $-1 $-1 $338 $85 #
coedge $-1 $218 $218 $219 $339 reversed $135 $-1 #
coedge $-1 $219 $219 $218 $339 forward $137 $-1 #
coedge $-1 $220 $220 $138 $221 forward $215 $-1 #
edge $-1 $340 0 $340 6.2831853071796004 $220 $341 forward 7 unknown #
face $-1 $342 $343 $48 $-1 $344 forward single #
loop $-1 $-1 $345 $139 #
plane-surface $-1 0 0 11.50351926794943 0 0 1 1 0 0 forward_v I I I I #
coedge $-1 $346 $347 $348 $349 reversed $140 $-1 #
coedge $-1 $350 $142 $351 $352 reversed $89 $-1 #
coedge $-1 $142 $350 $345 $353 reversed $89 $-1 #
coedge $-1 $354 $355 $142 $229 forward $343 $-1 #
edge $-1 $356 -9.8928161431344572e-015 $357 14.022195634639434 $228 $358 forward 7 unknown #
loop $-1 $-1 $235 $143 #
plane-surface $-1 -43.026215399639874 -1.1524379636749273 1.7628835837025107 -0.69465837861970381 0 0.71933979245794832 0.71933979245794832 0 0.69465837861970381 forward_v I I I I #
loop $-1 $-1 $359 $91 #
coedge $-1 $233 $233 $234 $360 reversed $144 $-1 #
coedge $-1 $234 $234 $233 $360 forward $146 $-1 #
coedge $-1 $235 $235 $147 $236 forward $230 $-1 #
edge $-1 $361 0 $361 6.2831853071796004 $235 $362 forward 7 unknown #
loop $-1 $-1 $242 $148 #
plane-surface $-1 -43.026215399639874 -1.1524379636749273 1.7628835837025107 -0.69465837861970381 0 0.71933979245794832 0.71933979245794832 0 0.69465837861970381 forward_v I I I I #
loop $-1 $-1 $363 $94 #
coedge $-1 $240 $240 $241 $364 reversed $149 $-1 #
coedge $-1 $241 $241 $240 $364 forward $151 $-1 #
coedge $-1 $242 $242 $152 $243 forward $237 $-1 #
edge $-1 $365 0 $365 6.2831853071796004 $242 $366 forward 7 unknown #
loop $-1 $-1 $249 $153 #
plane-surface $-1 -43.026215399639874 -1.1524379636749273 1.7628835837025107 -0.69465837861970381 0 0.71933979245794832 0.71933979245794832 0 0.69465837861970381 forward_v I I I I #
loop $-1 $-1 $367 $97 #
coedge $-1 $247 $247 $248 $368 reversed $154 $-1 #
coedge $-1 $248 $248 $247 $368 forward $156 $-1 #
coedge $-1 $249 $249 $157 $250 forward $244 $-1 #
edge $-1 $369 0 $369 6.2831853071796004 $249 $370 forward 7 unknown #
face $-1 $371 $372 $52 $-1 $373 reversed single #
loop $-1 $-1 $374 $158 #
plane-surface $-1 49.395320372559112 1.5376177460956537 126.16207177923221 0 1 0 0.74314483375859142 0 0.66913059716165679 forward_v I I I I #
coedge $-1 $375 $376 $377 $378 reversed $159 $-1 #
coedge $-1 $256 $161 $379 $380 reversed $101 $-1 #
coedge $-1 $161 $255 $375 $381 reversed $101 $-1 #
coedge $-1 $377 $382 $161 $258 forward $383 $-1 #
edge $-1 $384 -18.328555213360325 $385 -12.141715955972167 $257 $386 forward 7 unknown #
loop $-1 $-1 $264 $162 #
plane-surface $-1 -14.554099008294337 5.9226405328560858 68.581757371297982 0.74314483375859142 0 0.66913059716165679 0.66913059716165679 0 -0.74314483375859142 forward_v I I I I #
loop $-1 $-1 $387 $103 #
coedge $-1 $262 $262 $263 $388 reversed $163 $-1 #
coedge $-1 $263 $263 $262 $388 forward $165 $-1 #
coedge $-1 $264 $264 $166 $265 forward $259 $-1 #
edge $-1 $389 0 $389 6.2831853071796004 $264 $390 forward 7 unknown #
loop $-1 $-1 $271 $167 #
plane-surface $-1 -14.554099008294337 5.9226405328560858 68.581757371297982 0.74314483375859142 0 0.66913059716165679 0.66913059716165679 0 -0.74314483375859142 forward_v I I I I #
loop $-1 $-1 $391 $106 #
coedge $-1 $269 $269 $270 $392 reversed $168 $-1 #
coedge $-1 $270 $270 $269 $392 forward $170 $-1 #
coedge $-1 $271 $271 $171 $272 forward $266 $-1 #
edge $-1 $393 0 $393 6.2831853071796004 $271 $394 forward 7 unknown #
loop $-1 $-1 $278 $172 #
plane-surface $-1 -14.554099008294337 5.9226405328560858 68.581757371297982 0.74314483375859142 0 0.66913059716165679 0.66913059716165679 0 -0.74314483375859142 forward_v I I I I #
loop $-1 $-1 $395 $109 #
coedge $-1 $276 $276 $277 $396 reversed $173 $-1 #
coedge $-1 $277 $277 $276 $396 forward $175 $-1 #
coedge $-1 $278 $278 $176 $279 forward $273 $-1 #
edge $-1 $397 0 $397 6.2831853071796004 $278 $398 forward 7 unknown #
face $-1 $399 $400 $42 $-1 $401 reversed single #
loop $-1 $-1 $402 $177 #
plane-surface $-1 -43.026215399639881 0 0 1 0 0 0 0 -1 forward_v I I I I #
coedge $-1 $403 $291 $404 $405 forward $178 $-1 #
coedge $-1 $406 $180 $403 $407 forward $113 $-1 #
coedge $-1 $180 $406 $408 $409 forward $113 $-1 #
coedge $-1 $294 $293 $180 $287 reversed $295 $-1 #
edge $-1 $410 -26.958647965448364 $411 26.958647965448364 $286 $412 forward 7 unknown #
coedge $-1 $182 $181 $413 $414 forward $71 $-1 #
coedge $-1 $415 $416 $181 $290 reversed $400 $-1 #
edge $-1 $297 -43.026215399639881 $417 43.026215399639881 $289 $418 forward 7 unknown #
coedge $-1 $283 $419 $182 $292 reversed $178 $-1 #
edge $-1 $420 -43.026215399639881 $296 43.026215399639881 $291 $421 forward 7 unknown #
coedge $-1 $286 $183 $419 $422 forward $295 $-1 #
coedge $-1 $183 $286 $415 $423 reversed $295 $-1 #
loop $-1 $-1 $293 $399 #
vertex $-1 $184 $424 #
vertex $-1 $184 $425 #
straight-curve $-1 43.026215399639881 0 11.50351926794943 0 1 0 I I #
face $-1 $426 $427 $43 $-1 $428 reversed single #
loop $-1 $-1 $305 $185 #
plane-surface $-1 43.026215399639881 0 0 -1 0 0 0 0 1 forward_v I I I I #
coedge $-1 $429 $430 $303 $431 forward $186 $-1 #
coedge $-1 $432 $188 $302 $431 reversed $117 $-1 #
coedge $-1 $188 $432 $189 $308 reversed $117 $-1 #
coedge $-1 $191 $433 $188 $306 forward $300 $-1 #
edge $-1 $434 -7.1740330320361831 $312 -1.4849394397903115 $305 $435 forward 7 unknown #
coedge $-1 $190 $189 $436 $437 reversed $74 $-1 #
edge $-1 $312 -43.026215399639881 $438 43.026215399639881 $304 $439 forward 7 unknown #
coedge $-1 $440 $441 $190 $310 forward $427 $-1 #
edge $-1 $313 -43.026215399639881 $442 43.026215399639881 $309 $443 forward 7 unknown #
coedge $-1 $433 $191 $441 $444 forward $300 $-1 #
vertex $-1 $192 $445 #
vertex $-1 $444 $446 #
straight-curve $-1 43.026215399639881 -11.409490954690156 -5.8144256757035588 0 -1 0 I I #
face $-1 $-1 $447 $44 $-1 $448 reversed single #
loop $-1 $-1 $199 $193 #
plane-surface $-1 0 0 11.50351926794943 0 0 1 1 0 0 forward_v I I I I #
coedge $-1 $449 $450 $451 $452 reversed $194 $-1 #
coedge $-1 $453 $196 $198 $325 forward $121 $-1 #
coedge $-1 $196 $453 $449 $454 forward $121 $-1 #
coedge $-1 $451 $199 $196 $322 forward $316 $-1 #
edge $-1 $328 -5.8683230015804408 $455 4.7158850379055135 $321 $456 forward 7 unknown #
coedge $-1 $457 $458 $197 $324 forward $447 $-1 #
edge $-1 $459 -30.069027063976684 $327 -20.328391379729759 $323 $460 forward 7 unknown #
edge $-1 $328 -14.022195634639434 $459 9.8928161431344572e-015 $198 $461 forward 7 unknown #
coedge $-1 $199 $451 $457 $462 forward $316 $-1 #
vertex $-1 $324 $463 #
vertex $-1 $200 $464 #
straight-curve $-1 -51.401628727475909 -6.4445419834179045 11.503519267949429 1 0 0 I I #
coedge $-1 $330 $330 $-1 $465 reversed $203 $-1 #
edge $-1 $466 0 $466 6.2831853071796004 $204 $467 forward 7 unknown #
vertex $-1 $207 $468 #
ellipse-curve $-1 -37.982853750826742 -4.3277003755207168 6.6332014258259644 -0.69465837861970381 0 0.71933979245794832 0.35966989622897416 0 0.3473291893098519 1 I I #
coedge $-1 $334 $334 $-1 $469 reversed $210 $-1 #
edge $-1 $470 0 $470 6.2831853071796004 $211 $471 forward 7 unknown #
vertex $-1 $214 $472 #
ellipse-curve $-1 -37.982853750826742 -1.1524379636749309 6.6332014258259644 -0.69465837861970381 0 0.71933979245794832 0.35966989622897416 0 0.3473291893098519 1 I I #
coedge $-1 $338 $338 $-1 $473 reversed $217 $-1 #
edge $-1 $474 0 $474 6.2831853071796004 $218 $475 forward 7 unknown #
vertex $-1 $221 $476 #
ellipse-curve $-1 -37.982853750826742 2.022824448170855 6.6332014258259644 -0.69465837861970381 0 0.71933979245794832 0.35966989622897416 0 0.3473291893098519 1 I I #
face $-1 $-1 $477 $48 $-1 $478 reversed single #
loop $-1 $-1 $354 $222 #
plane-surface $-1 -102.80325745495182 4.1396660560680498 63.663821295358375 0 -1 0 0.69465837861970381 0 -0.71933979245794832 forward_v I I I I #
coedge $-1 $348 $479 $227 $353 forward $223 $-1 #
coedge $-1 $347 $225 $350 $480 reversed $140 $-1 #
coedge $-1 $225 $346 $481 $482 reversed $140 $-1 #
coedge $-1 $483 $345 $225 $349 forward $223 $-1 #
edge $-1 $484 -18.462136625462314 $485 -8.3754133278360285 $348 $486 forward 7 unknown #
coedge $-1 $227 $226 $346 $480 forward $89 $-1 #
coedge $-1 $487 $481 $226 $352 forward $477 $-1 #
edge $-1 $488 -15.300093077391464 $356 -4.7158850379055135 $351 $489 forward 7 unknown #
edge $-1 $357 4.7158850379055135 $484 15.300093077391464 $345 $490 forward 7 unknown #
coedge $-1 $355 $228 $479 $491 reversed $343 $-1 #
coedge $-1 $228 $354 $487 $492 reversed $343 $-1 #
vertex $-1 $352 $493 #
vertex $-1 $353 $494 #
straight-curve $-1 -43.026215399639874 4.1396660560680498 1.7628835837025107 0.71933979245794832 0 0.69465837861970381 I I #
coedge $-1 $359 $359 $-1 $495 reversed $232 $-1 #
edge $-1 $496 0 $496 6.2831853071796004 $233 $497 forward 7 unknown #
vertex $-1 $236 $498 #
ellipse-curve $-1 -37.982853750826742 6.2565076639652375 6.6332014258259644 -0.69465837861970381 0 0.71933979245794832 0.35966989622897416 0 0.3473291893098519 1 I I #
coedge $-1 $363 $363 $-1 $499 reversed $239 $-1 #
edge $-1 $500 0 $500 6.2831853071796004 $240 $501 forward 7 unknown #
vertex $-1 $243 $502 #
ellipse-curve $-1 -37.982853750826742 9.4317700758110163 6.6332014258259644 -0.69465837861970381 0 0.71933979245794832 0.35966989622897416 0 0.3473291893098519 1 I I #
coedge $-1 $367 $367 $-1 $503 reversed $246 $-1 #
edge $-1 $504 0 $504 6.2831853071796004 $247 $505 forward 7 unknown #
vertex $-1 $250 $506 #
ellipse-curve $-1 -37.982853750826742 12.607032487656809 6.6332014258259644 -0.69465837861970381 0 0.71933979245794832 0.35966989622897416 0 0.3473291893098519 1 I I #
face $-1 $-1 $383 $52 $-1 $507 forward single #
loop $-1 $-1 $508 $251 #
plane-surface $-1 43.026215399639881 0 0 -1 0 0 0 0 1 forward_v I I I I #
coedge $-1 $509 $510 $511 $512 reversed $252 $-1 #
coedge $-1 $513 $254 $256 $381 forward $159 $-1 #
coedge $-1 $254 $513 $509 $514 forward $159 $-1 #
coedge $-1 $511 $257 $254 $378 forward $383 $-1 #
edge $-1 $385 -7.346343053188475 $515 1.4237025203323892 $377 $516 forward 7 unknown #
coedge $-1 $517 $518 $255 $380 forward $372 $-1 #
edge $-1 $519 -58.44869789917157 $384 -51.577516621666675 $379 $520 forward 7 unknown #
edge $-1 $385 76.806344484243908 $519 86.052430799279762 $256 $521 forward 7 unknown #
coedge $-1 $257 $511 $517 $522 forward $383 $-1 #
loop $-1 $-1 $511 $371 #
vertex $-1 $380 $523 #
vertex $-1 $258 $524 #
straight-curve $-1 24.697660186279556 10.307663319616518 11.503519267949429 -1 0 0 I I #
coedge $-1 $387 $387 $-1 $525 reversed $261 $-1 #
edge $-1 $526 0 $526 6.2831853071796004 $262 $527 forward 7 unknown #
vertex $-1 $265 $528 #
ellipse-curve $-1 39.932795770945802 3.2916268607998234 8.0679286291969774 0.74314483375859142 0 0.66913059716165679 0.3345652985808284 0 -0.37157241687929571 1 I I #
coedge $-1 $391 $391 $-1 $529 reversed $268 $-1 #
edge $-1 $530 0 $530 6.2831853071796004 $269 $531 forward 7 unknown #
vertex $-1 $272 $532 #
ellipse-curve $-1 39.932795770945802 5.9226405328560858 8.0679286291969774 0.74314483375859142 0 0.66913059716165679 0.3345652985808284 0 -0.37157241687929571 1 I I #
coedge $-1 $395 $395 $-1 $533 reversed $275 $-1 #
edge $-1 $534 0 $534 6.2831853071796004 $276 $535 forward 7 unknown #
vertex $-1 $279 $536 #
ellipse-curve $-1 39.932795770945802 8.5536542049123483 8.0679286291969774 0.74314483375859142 0 0.66913059716165679 0.3345652985808284 0 -0.37157241687929571 1 I I #
face $-1 $-1 $295 $42 $-1 $537 reversed single #
loop $-1 $-1 $415 $280 #
plane-surface $-1 0 26.958647965448364 0 0 -1 0 0 0 -1 forward_v I I I I #
coedge $-1 $538 $413 $416 $539 forward $281 $-1 #
coedge $-1 $419 $283 $284 $407 reversed $178 $-1 #
coedge $-1 $413 $538 $283 $405 reversed $281 $-1 #
edge $-1 $420 -11.50351926794943 $540 11.50351926794943 $404 $541 forward 7 unknown #
coedge $-1 $285 $284 $538 $542 forward $113 $-1 #
edge $-1 $411 -43.026215399639881 $540 43.026215399639881 $403 $543 forward 7 unknown #
coedge $-1 $416 $415 $285 $409 reversed $400 $-1 #
edge $-1 $544 -43.026215399639881 $410 43.026215399639881 $408 $545 forward 7 unknown #
vertex $-1 $287 $546 #
vertex $-1 $422 $547 #
straight-curve $-1 43.026215399639881 0 -11.50351926794943 0 -1 0 I I #
coedge $-1 $402 $404 $288 $414 reversed $281 $-1 #
edge $-1 $417 -26.958647965448364 $420 26.958647965448364 $413 $548 forward 7 unknown #
coedge $-1 $408 $289 $294 $423 forward $400 $-1 #
coedge $-1 $289 $408 $402 $539 reversed $400 $-1 #
vertex $-1 $290 $549 #
straight-curve $-1 0 26.958647965448364 11.50351926794943 -1 0 0 I I #
coedge $-1 $291 $403 $293 $422 reversed $178 $-1 #
vertex $-1 $414 $550 #
straight-curve $-1 0 -26.958647965448364 11.50351926794943 1 0 0 I I #
edge $-1 $296 -11.50351926794943 $411 11.50351926794943 $293 $551 forward 7 unknown #
edge $-1 $297 -11.50351926794943 $410 11.50351926794943 $294 $552 forward 7 unknown #
point $-1 43.026215399639881 -26.958647965448364 11.50351926794943 #
point $-1 43.026215399639881 26.958647965448364 11.50351926794943 #
face $-1 $-1 $553 $43 $-1 $554 reversed single #
loop $-1 $-1 $309 $299 #
plane-surface $-1 0 -26.958647965448364 0 0 1 0 0 0 1 forward_v I I I I #
coedge $-1 $555 $302 $433 $556 forward $186 $-1 #
coedge $-1 $302 $555 $557 $558 forward $186 $-1 #
edge $-1 $559 -43.026215399639881 $434 43.026215399639881 $302 $560 forward 7 unknown #
coedge $-1 $304 $303 $561 $562 reversed $117 $-1 #
coedge $-1 $305 $311 $429 $556 reversed $300 $-1 #
vertex $-1 $556 $563 #
straight-curve $-1 43.026215399639881 -18.679315853312261 -4.3294862359132473 0 0 1 I I #
coedge $-1 $561 $564 $307 $437 forward $553 $-1 #
edge $-1 $442 -15.549157010758208 $438 -7.2698248986221046 $436 $565 forward 7 unknown #
vertex $-1 $437 $566 #
straight-curve $-1 0 -18.679315853312261 -5.8144256757035588 -1 0 0 I I #
coedge $-1 $567 $309 $564 $568 forward $427 $-1 #
coedge $-1 $309 $567 $311 $444 reversed $427 $-1 #
vertex $-1 $568 $569 #
straight-curve $-1 0 -26.958647965448364 -5.8144256757035588 -1 0 0 I I #
edge $-1 $313 5.8144256757035588 $570 11.50351926794943 $311 $571 forward 7 unknown #
point $-1 43.026215399639881 -18.679315853312261 -5.8144256757035588 #
point $-1 43.026215399639881 -26.958647965448364 -5.8144256757035588 #
loop $-1 $-1 $323 $315 #
plane-surface $-1 -43.026215399639881 0 0 1 0 0 0 0 -1 forward_v I I I I #
coedge $-1 $450 $318 $320 $454 reversed $194 $-1 #
coedge $-1 $318 $449 $572 $573 reversed $194 $-1 #
coedge $-1 $326 $321 $318 $452 forward $316 $-1 #
edge $-1 $455 -18.462136625462314 $574 -8.3754133278360285 $451 $575 forward 7 unknown #
coedge $-1 $320 $319 $458 $576 reversed $121 $-1 #
edge $-1 $577 -9.8928161431344572e-015 $455 14.022195634639434 $449 $578 forward 7 unknown #
vertex $-1 $322 $579 #
straight-curve $-1 -32.939492102013588 -0.57621898183746367 11.50351926794943 0 1 0 I I #
coedge $-1 $572 $323 $326 $462 reversed $447 $-1 #
coedge $-1 $323 $572 $453 $576 forward $447 $-1 #
vertex $-1 $324 $580 #
straight-curve $-1 -43.026215399639881 -6.4445419834179045 31.831910647679187 0 0 1 I I #
straight-curve $-1 -43.026215399639874 -6.4445419834179045 1.7628835837025107 -0.71933979245794832 0 -0.69465837861970381 I I #
edge $-1 $574 -4.1396660560680498 $327 6.4445419834179045 $457 $581 forward 7 unknown #
point $-1 -43.026215399639881 -6.4445419834179045 11.50351926794943 #
point $-1 -32.939492102013595 -6.4445419834179045 11.50351926794943 #
edge $-1 $582 1 $582 0 $330 $-1 forward 7 unknown #
vertex $-1 $331 $583 #
ellipse-curve $-1 -37.288195372207042 -4.3277003755207168 5.9138616333680245 -0.69465837861970381 0 0.71933979245794832 0.35966989622897416 0 0.3473291893098519 1 I I #
point $-1 -37.623183854597777 -4.3277003755207168 6.9805306151358248 #
edge $-1 $584 1 $584 0 $334 $-1 forward 7 unknown #
vertex $-1 $335 $585 #
ellipse-curve $-1 -37.288195372207042 -1.1524379636749309 5.9138616333680245 -0.69465837861970381 0 0.71933979245794832 0.35966989622897416 0 0.3473291893098519 1 I I #
point $-1 -37.623183854597777 -1.1524379636749309 6.9805306151358248 #
edge $-1 $586 1 $586 0 $338 $-1 forward 7 unknown #
vertex $-1 $339 $587 #
ellipse-curve $-1 -37.288195372207042 2.022824448170855 5.9138616333680245 -0.69465837861970381 0 0.71933979245794832 0.35966989622897416 0 0.3473291893098519 1 I I #
point $-1 -37.623183854597777 2.022824448170855 6.9805306151358248 #
loop $-1 $-1 $351 $342 #
plane-surface $-1 -43.026215399639881 0 0 1 0 0 0 0 -1 forward_v I I I I #
coedge $-1 $345 $483 $354 $491 forward $223 $-1 #
edge $-1 $488 -9.8928161431344572e-015 $484 14.022195634639434 $346 $588 forward 7 unknown #
coedge $-1 $351 $589 $347 $482 forward $477 $-1 #
edge $-1 $485 20.328391379729759 $488 30.069027063976684 $481 $590 forward 7 unknown #
coedge $-1 $479 $348 $589 $591 forward $223 $-1 #
vertex $-1 $349 $592 #
vertex $-1 $591 $593 #
straight-curve $-1 -51.401628727475909 14.723874095554001 11.503519267949429 -1 0 0 I I #
coedge $-1 $589 $351 $355 $492 forward $477 $-1 #
vertex $-1 $482 $594 #
straight-curve $-1 -43.026215399639881 -0.57621898183746367 1.7628835837025081 0 -1 0 I I #
straight-curve $-1 -32.939492102013588 -0.57621898183746367 11.50351926794943 0 1 0 I I #
edge $-1 $595 8.3754133278360285 $357 18.462136625462314 $479 $596 forward 7 unknown #
edge $-1 $356 -30.069027063976684 $595 -20.328391379729759 $487 $597 forward 7 unknown #
point $-1 -43.026215399639881 4.1396660560680498 1.7628835837025039 #
point $-1 -32.939492102013595 4.1396660560680498 11.50351926794943 #
edge $-1 $598 1 $598 0 $359 $-1 forward 7 unknown #
vertex $-1 $360 $599 #
ellipse-curve $-1 -37.288195372207042 6.2565076639652375 5.9138616333680245 -0.69465837861970381 0 0.71933979245794832 0.35966989622897416 0 0.3473291893098519 1 I I #
point $-1 -37.623183854597777 6.2565076639652375 6.9805306151358248 #
edge $-1 $600 1 $600 0 $363 $-1 forward 7 unknown #
vertex $-1 $364 $601 #
ellipse-curve $-1 -37.288195372207042 9.4317700758110163 5.9138616333680245 -0.69465837861970381 0 0.71933979245794832 0.35966989622897416 0 0.3473291893098519 1 I I #
point $-1 -37.623183854597777 9.4317700758110163 6.9805306151358248 #
edge $-1 $602 1 $602 0 $367 $-1 forward 7 unknown #
vertex $-1 $368 $603 #
ellipse-curve $-1 -37.288195372207042 12.607032487656809 5.9138616333680245 -0.69465837861970381 0 0.71933979245794832 0.35966989622897416 0 0.3473291893098519 1 I I #
point $-1 -37.623183854597777 12.607032487656809 6.9805306151358248 #
plane-surface $-1 0 0 11.50351926794943 0 0 1 1 0 0 forward_v I I I I #
coedge $-1 $518 $517 $510 $604 forward $372 $-1 #
coedge $-1 $510 $374 $376 $514 reversed $252 $-1 #
coedge $-1 $374 $509 $508 $604 reversed $252 $-1 #
coedge $-1 $382 $377 $374 $512 forward $383 $-1 #
edge $-1 $515 12.141715955972167 $605 18.328555213360325 $511 $606 forward 7 unknown #
coedge $-1 $376 $375 $518 $607 reversed $159 $-1 #
edge $-1 $608 -86.052430799279762 $515 -76.806344484243908 $509 $609 forward 7 unknown #
vertex $-1 $378 $610 #
straight-curve $-1 36.839376142251723 2.9613202664280429 11.503519267949436 0 -1 0 I I #
coedge $-1 $508 $379 $382 $522 reversed $372 $-1 #
coedge $-1 $379 $508 $513 $607 forward $372 $-1 #
vertex $-1 $380 $611 #
straight-curve $-1 43.026215399639881 10.307663319616518 63.081035889616103 0 0 1 I I #
straight-curve $-1 -14.554099008294337 10.307663319616518 68.581757371297982 0.66913059716165679 0 -0.74314483375859142 I I #
edge $-1 $605 1.5376177460956537 $384 10.307663319616518 $517 $612 forward 7 unknown #
point $-1 43.026215399639881 10.307663319616518 11.50351926794943 #
point $-1 36.839376142251723 10.307663319616518 11.503519267949429 #
edge $-1 $613 1 $613 0 $387 $-1 forward 7 unknown #
vertex $-1 $388 $614 #
ellipse-curve $-1 38.913662000695986 3.2916268607998234 7.1502964836219851 0.74314483375859142 0 0.66913059716165679 0.3345652985808284 0 -0.37157241687929571 1 I I #
point $-1 40.267361069526643 3.2916268607998234 7.6963562123176947 #
edge $-1 $615 1 $615 0 $391 $-1 forward 7 unknown #
vertex $-1 $392 $616 #
ellipse-curve $-1 38.913662000695986 5.9226405328560858 7.1502964836219851 0.74314483375859142 0 0.66913059716165679 0.3345652985808284 0 -0.37157241687929571 1 I I #
point $-1 40.267361069526643 5.9226405328560858 7.6963562123176947 #
edge $-1 $617 1 $617 0 $395 $-1 forward 7 unknown #
vertex $-1 $396 $618 #
ellipse-curve $-1 38.913662000695986 8.5536542049123483 7.1502964836219851 0.74314483375859142 0 0.66913059716165679 0.3345652985808284 0 -0.37157241687929571 1 I I #
point $-1 40.267361069526643 8.5536542049123483 7.6963562123176947 #
plane-surface $-1 43.026215399639881 0 0 -1 0 0 0 0 1 forward_v I I I I #
coedge $-1 $404 $402 $406 $542 reversed $281 $-1 #
edge $-1 $417 -11.50351926794943 $544 11.50351926794943 $416 $619 forward 7 unknown #
vertex $-1 $542 $620 #
straight-curve $-1 -43.026215399639881 -26.958647965448364 0 0 0 -1 I I #
edge $-1 $540 -26.958647965448364 $544 26.958647965448364 $538 $621 forward 7 unknown #
straight-curve $-1 0 -26.958647965448364 -11.50351926794943 -1 0 0 I I #
vertex $-1 $409 $622 #
straight-curve $-1 0 26.958647965448364 -11.50351926794943 1 0 0 I I #
point $-1 43.026215399639881 26.958647965448364 -11.50351926794943 #
point $-1 43.026215399639881 -26.958647965448364 -11.50351926794943 #
straight-curve $-1 -43.026215399639881 0 11.50351926794943 0 -1 0 I I #
point $-1 -43.026215399639881 26.958647965448364 11.50351926794943 #
point $-1 -43.026215399639881 -26.958647965448364 11.50351926794943 #
straight-curve $-1 43.026215399639881 -26.958647965448364 0 0 0 -1 I I #
straight-curve $-1 43.026215399639881 26.958647965448364 0 0 0 -1 I I #
loop $-1 $-1 $561 $426 #
plane-surface $-1 -43.026215399639881 0 0 1 0 0 0 0 -1 forward_v I I I I #
coedge $-1 $430 $429 $567 $623 forward $186 $-1 #
edge $-1 $434 18.679315853312261 $570 26.958647965448364 $433 $624 forward 7 unknown #
coedge $-1 $564 $561 $430 $558 reversed $553 $-1 #
edge $-1 $625 -26.958647965448364 $559 -18.679315853312261 $557 $626 forward 7 unknown #
vertex $-1 $562 $627 #
straight-curve $-1 0 -18.679315853312261 -11.50351926794943 1 0 0 I I #
coedge $-1 $557 $436 $432 $562 forward $553 $-1 #
edge $-1 $438 1.4849394397903115 $559 7.1740330320361831 $561 $628 forward 7 unknown #
point $-1 43.026215399639881 -18.679315853312261 -11.50351926794943 #
coedge $-1 $436 $557 $440 $568 reversed $553 $-1 #
straight-curve $-1 -43.026215399639881 -11.409490954690156 -5.8144256757035588 0 1 0 I I #
point $-1 -43.026215399639881 -18.679315853312261 -5.8144256757035588 #
coedge $-1 $441 $440 $555 $623 reversed $427 $-1 #
edge $-1 $442 5.8144256757035588 $625 11.50351926794943 $564 $629 forward 7 unknown #
point $-1 -43.026215399639881 -26.958647965448364 -5.8144256757035588 #
vertex $-1 $444 $630 #
straight-curve $-1 43.026215399639881 -26.958647965448364 0 0 0 -1 I I #
coedge $-1 $458 $457 $450 $573 forward $447 $-1 #
edge $-1 $574 20.328391379729759 $577 30.069027063976684 $572 $631 forward 7 unknown #
vertex $-1 $462 $632 #
straight-curve $-1 -51.401628727475909 4.1396660560680498 11.503519267949429 -1 0 0 I I #
edge $-1 $577 -4.7158850379055135 $459 5.8683230015804408 $458 $633 forward 7 unknown #
vertex $-1 $576 $634 #
straight-curve $-1 -43.026215399639874 4.1396660560680498 1.7628835837025107 0.71933979245794832 0 0.69465837861970381 I I #
point $-1 -32.939492102013595 4.1396660560680498 11.50351926794943 #
point $-1 -43.026215399639881 -6.4445419834179045 1.7628835837025039 #
straight-curve $-1 -43.026215399639881 0 11.50351926794943 0 -1 0 I I #
vertex $-1 $465 $635 #
point $-1 -36.92852547597807 -4.3277003755207168 6.261190822677877 #
vertex $-1 $469 $636 #
point $-1 -36.92852547597807 -1.1524379636749309 6.261190822677877 #
vertex $-1 $473 $637 #
point $-1 -36.92852547597807 2.022824448170855 6.261190822677877 #
straight-curve $-1 -43.026215399639874 14.723874095554001 1.7628835837025107 0.71933979245794832 0 0.69465837861970381 I I #
coedge $-1 $481 $487 $483 $591 reversed $477 $-1 #
straight-curve $-1 -43.026215399639881 14.723874095554001 31.831910647679187 0 0 -1 I I #
edge $-1 $485 -14.723874095554001 $595 -4.1396660560680498 $589 $638 forward 7 unknown #
point $-1 -32.939492102013595 14.723874095554001 11.50351926794943 #
point $-1 -43.026215399639881 14.723874095554001 11.50351926794943 #
point $-1 -43.026215399639881 14.723874095554001 1.7628835837025039 #
vertex $-1 $492 $639 #
straight-curve $-1 -51.401628727475909 4.1396660560680498 11.503519267949429 1 0 0 I I #
straight-curve $-1 -43.026215399639881 4.1396660560680498 31.831910647679187 0 0 1 I I #
vertex $-1 $495 $640 #
point $-1 -36.92852547597807 6.2565076639652375 6.261190822677877 #
vertex $-1 $499 $641 #
point $-1 -36.92852547597807 9.4317700758110163 6.261190822677877 #
vertex $-1 $503 $642 #
point $-1 -36.92852547597807 12.607032487656809 6.261190822677877 #
edge $-1 $605 51.577516621666675 $608 58.44869789917157 $508 $643 forward 7 unknown #
vertex $-1 $522 $644 #
straight-curve $-1 24.697660186279556 1.5376177460956537 11.503519267949429 1 0 0 I I #
edge $-1 $608 -1.4237025203323892 $519 7.346343053188475 $518 $645 forward 7 unknown #
vertex $-1 $607 $646 #
straight-curve $-1 -14.554099008294337 1.5376177460956537 68.581757371297982 -0.66913059716165679 0 0.74314483375859142 I I #
point $-1 36.839376142251723 1.5376177460956537 11.503519267949429 #
point $-1 43.026215399639881 10.307663319616518 4.6323379904445332 #
straight-curve $-1 43.026215399639881 0 11.50351926794943 0 1 0 I I #
vertex $-1 $525 $647 #
point $-1 39.24822729927682 3.2916268607998234 6.7787240667426891 #
vertex $-1 $529 $648 #
point $-1 39.24822729927682 5.9226405328560858 6.7787240667426891 #
vertex $-1 $533 $649 #
point $-1 39.24822729927682 8.5536542049123483 6.7787240667426891 #
straight-curve $-1 -43.026215399639881 26.958647965448364 0 0 0 -1 I I #
point $-1 -43.026215399639881 -26.958647965448364 -11.50351926794943 #
straight-curve $-1 -43.026215399639881 0 -11.50351926794943 0 1 0 I I #
point $-1 -43.026215399639881 26.958647965448364 -11.50351926794943 #
edge $-1 $570 -43.026215399639881 $625 43.026215399639881 $567 $650 forward 7 unknown #
straight-curve $-1 43.026215399639881 0 -11.50351926794943 0 -1 0 I I #
vertex $-1 $558 $651 #
straight-curve $-1 -43.026215399639881 0 -11.50351926794943 0 1 0 I I #
point $-1 -43.026215399639881 -18.679315853312261 -11.50351926794943 #
straight-curve $-1 -43.026215399639881 -18.679315853312261 -4.3294862359132473 0 0 -1 I I #
straight-curve $-1 -43.026215399639881 -26.958647965448364 0 0 0 -1 I I #
point $-1 43.026215399639881 -26.958647965448364 -11.50351926794943 #
straight-curve $-1 -43.026215399639881 4.1396660560680498 31.831910647679187 0 0 -1 I I #
point $-1 -43.026215399639881 4.1396660560680498 11.50351926794943 #
straight-curve $-1 -43.026215399639881 -0.57621898183746367 1.7628835837025081 0 -1 0 I I #
point $-1 -43.026215399639881 4.1396660560680498 1.7628835837025039 #
point $-1 -36.940866182897196 -4.3277003755207168 5.5541917371390506 #
point $-1 -36.940866182897196 -1.1524379636749309 5.5541917371390506 #
point $-1 -36.940866182897196 2.022824448170855 5.5541917371390506 #
straight-curve $-1 -43.026215399639881 0 11.50351926794943 0 -1 0 I I #
point $-1 -43.026215399639881 4.1396660560680498 11.50351926794943 #
point $-1 -36.940866182897196 6.2565076639652375 5.5541917371390506 #
point $-1 -36.940866182897196 9.4317700758110163 5.5541917371390506 #
point $-1 -36.940866182897196 12.607032487656809 5.5541917371390506 #
straight-curve $-1 43.026215399639881 1.5376177460956537 63.081035889616103 0 0 -1 I I #
point $-1 43.026215399639881 1.5376177460956537 11.50351926794943 #
straight-curve $-1 43.026215399639881 2.9613202664280429 4.6323379904445332 0 1 0 I I #
point $-1 43.026215399639881 1.5376177460956537 4.6323379904445332 #
point $-1 38.542089583816697 3.2916268607998234 6.8157311850411562 #
point $-1 38.542089583816697 5.9226405328560858 6.8157311850411562 #
point $-1 38.542089583816697 8.5536542049123483 6.8157311850411562 #
straight-curve $-1 0 -26.958647965448364 -11.50351926794943 -1 0 0 I I #
point $-1 -43.026215399639881 -26.958647965448364 -11.50351926794943 #
End-of-ACIS-data 