500 0 11 0           
7 Unknown 11 ACIS 5.0 NT 24 Fri Mar 26 15:04:32 1999 
-1 9.9999999999999995e-007 1e-010 
body $-1 $11 $-1 $12 #
body $-1 $13 $-1 $14 #
body $-1 $15 $-1 $16 #
body $-1 $17 $-1 $18 #
body $-1 $19 $-1 $20 #
body $-1 $21 $-1 $22 #
body $-1 $23 $-1 $24 #
body $-1 $25 $-1 $26 #
body $-1 $27 $-1 $28 #
body $-1 $29 $-1 $30 #
body $-1 $31 $-1 $32 #
lump $-1 $-1 $33 $0 #
transform $-1 1 0 0 0 1 0 0 0 1 40.285653248695333 25.922017324162027 7.7072256104897043 1 rotate no_reflect no_shear #
lump $-1 $-1 $34 $1 #
transform $-1 1 0 0 0 1 0 0 0 1 40.285653248695333 25.922017324162027 7.7072256104897043 1 rotate no_reflect no_shear #
lump $-1 $-1 $35 $2 #
transform $-1 1 0 0 0 1 0 0 0 1 40.285653248695333 25.922017324162027 7.7072256104897043 1 rotate no_reflect no_shear #
lump $-1 $-1 $36 $3 #
transform $-1 1 0 0 0 1 0 0 0 1 40.285653248695333 25.922017324162027 7.7072256104897043 1 rotate no_reflect no_shear #
lump $-1 $-1 $37 $4 #
transform $-1 1 0 0 0 1 0 0 0 1 40.285653248695333 25.922017324162027 7.7072256104897043 1 rotate no_reflect no_shear #
lump $-1 $-1 $38 $5 #
transform $-1 1 0 0 0 1 0 0 0 1 40.285653248695333 25.922017324162027 7.7072256104897043 1 rotate no_reflect no_shear #
lump $-1 $-1 $39 $6 #
transform $-1 1 0 0 0 1 0 0 0 1 40.285653248695333 25.922017324162027 7.7072256104897043 1 rotate no_reflect no_shear #
lump $-1 $-1 $40 $7 #
transform $-1 1 0 0 0 1 0 0 0 1 40.285653248695333 25.922017324162027 7.7072256104897043 1 rotate no_reflect no_shear #
lump $-1 $-1 $41 $8 #
transform $-1 1 0 0 0 1 0 0 0 1 40.285653248695333 25.922017324162027 7.7072256104897043 1 rotate no_reflect no_shear #
lump $-1 $-1 $42 $9 #
transform $-1 1 0 0 0 1 0 0 0 1 40.285653248695333 25.922017324162027 7.7072256104897043 1 rotate no_reflect no_shear #
lump $-1 $-1 $43 $10 #
transform $-1 1 0 0 0 1 0 0 0 1 40.285653248695333 25.922017324162027 7.7072256104897043 1 rotate no_reflect no_shear #
shell $-1 $-1 $-1 $44 $-1 $11 #
shell $-1 $-1 $-1 $45 $-1 $13 #
shell $-1 $-1 $-1 $46 $-1 $15 #
shell $-1 $-1 $-1 $47 $-1 $17 #
shell $-1 $-1 $-1 $48 $-1 $19 #
shell $-1 $-1 $-1 $49 $-1 $21 #
shell $-1 $-1 $-1 $50 $-1 $23 #
shell $-1 $-1 $-1 $51 $-1 $25 #
shell $-1 $-1 $-1 $52 $-1 $27 #
shell $-1 $-1 $-1 $53 $-1 $29 #
shell $-1 $-1 $-1 $54 $-1 $31 #
face $-1 $55 $56 $33 $-1 $57 forward single #
face $-1 $58 $59 $34 $-1 $60 reversed single #
face $-1 $61 $62 $35 $-1 $63 reversed single #
face $-1 $64 $65 $36 $-1 $66 reversed single #
face $-1 $67 $68 $37 $-1 $69 forward single #
face $-1 $70 $71 $38 $-1 $72 forward single #
face $-1 $73 $74 $39 $-1 $75 forward single #
face $-1 $76 $77 $40 $-1 $78 reversed single #
face $-1 $79 $80 $41 $-1 $81 forward single #
face $-1 $82 $83 $42 $-1 $84 forward single #
face $-1 $85 $86 $43 $-1 $87 forward single #
face $-1 $88 $89 $33 $-1 $90 reversed single #
loop $-1 $-1 $91 $44 #
plane-surface $-1 0 0 7.7072256104897043 0 0 1 1 0 0 forward_v I I I I #
face $-1 $92 $93 $34 $-1 $94 reversed single #
loop $-1 $-1 $95 $45 #
plane-surface $-1 -36.629504140836943 0 4.7072256104897043 0 0 1 1 0 0 forward_v I I I I #
face $-1 $96 $97 $35 $-1 $98 reversed single #
loop $-1 $-1 $99 $46 #
plane-surface $-1 36.892559345951945 -14.74107148582247 0 0 1 0 0 0 1 forward_v I I I I #
face $-1 $100 $101 $36 $-1 $102 reversed single #
loop $-1 $-1 $103 $47 #
plane-surface $-1 -5.581659590810105 -76.627184066130852 64.717086991385102 -1 0 0 0 -0.62932039886446345 0.77714595512881146 forward_v I I I I #
face $-1 $104 $105 $37 $-1 $106 forward single #
loop $-1 $107 $108 $48 #
cone-surface $-1 -18.349666928248549 -21.181031468650499 3.3240377182637122 0 0.62932039886446345 -0.77714595512881146 1.5 0 0 1 I I 0 1 1.5 forward I I I I #
face $-1 $109 $110 $38 $-1 $111 forward single #
loop $-1 $112 $113 $49 #
cone-surface $-1 -13.561664176709133 -21.181031468650499 3.3240377182637122 0 0.62932039886446345 -0.77714595512881146 1.5 0 0 1 I I 0 1 1.5 forward I I I I #
face $-1 $114 $115 $39 $-1 $116 forward single #
loop $-1 $117 $118 $50 #
cone-surface $-1 -8.7736614251697169 -21.181031468650499 3.3240377182637122 0 0.62932039886446345 -0.77714595512881146 1.5 0 0 1 I I 0 1 1.5 forward I I I I #
face $-1 $119 $120 $40 $-1 $121 reversed single #
loop $-1 $-1 $122 $51 #
plane-surface $-1 27.654750647283446 -76.627184066130852 64.717086991385102 -1 0 0 0 -0.62932039886446345 0.77714595512881146 forward_v I I I I #
face $-1 $123 $124 $41 $-1 $125 forward single #
loop $-1 $126 $127 $52 #
cone-surface $-1 14.886743309845009 -21.181031468650499 3.3240377182637122 0 0.62932039886446345 -0.77714595512881146 1.5 0 0 1 I I 0 1 1.5 forward I I I I #
face $-1 $128 $129 $42 $-1 $130 forward single #
loop $-1 $131 $132 $53 #
cone-surface $-1 19.674746061384418 -21.181031468650499 3.3240377182637122 0 0.62932039886446345 -0.77714595512881146 1.5 0 0 1 I I 0 1 1.5 forward I I I I #
face $-1 $133 $134 $43 $-1 $135 forward single #
loop $-1 $136 $137 $54 #
cone-surface $-1 24.462748812923842 -21.181031468650499 3.3240377182637122 0 0.62932039886446345 -0.77714595512881146 1.5 0 0 1 I I 0 1 1.5 forward I I I I #
face $-1 $138 $139 $33 $-1 $140 reversed single #
loop $-1 $-1 $141 $55 #
plane-surface $-1 0 0 -7.7072256104897043 0 0 1 1 0 0 forward_v I I I I #
coedge $-1 $142 $143 $144 $145 forward $56 $-1 #
face $-1 $146 $147 $34 $-1 $148 reversed single #
loop $-1 $-1 $149 $58 #
plane-surface $-1 -32.973355032978553 0 6.2072256104897043 -1 0 0 0 0 1 forward_v I I I I #
coedge $-1 $150 $151 $152 $153 forward $59 $-1 #
face $-1 $154 $155 $35 $-1 $156 reversed single #
loop $-1 $-1 $157 $61 #
plane-surface $-1 33.499465443208557 -12.624318794502544 0 1 0 0 0 0 -1 forward_v I I I I #
coedge $-1 $158 $159 $160 $161 forward $62 $-1 #
face $-1 $162 $163 $36 $-1 $164 reversed single #
loop $-1 $-1 $165 $64 #
plane-surface $-1 -13.561664176709133 -25.92201732416202 2.1014220474942178 0 -0.62932039886446345 0.77714595512881146 1 0 0 forward_v I I I I #
coedge $-1 $166 $167 $168 $169 reversed $65 $-1 #
face $-1 $-1 $170 $37 $-1 $171 forward single #
loop $-1 $172 $173 $67 #
cone-surface $-1 -18.349666928248549 -19.429350682843648 1.1608921411888495 0 0.62932039886446345 -0.77714595512881146 0.75 0 0 1 I I -0.70710678118654757 0.70710678118654757 0.75 forward I I I I #
loop $-1 $-1 $174 $48 #
coedge $-1 $108 $108 $175 $176 reversed $68 $-1 #
face $-1 $-1 $177 $38 $-1 $178 forward single #
loop $-1 $179 $180 $70 #
cone-surface $-1 -13.561664176709133 -19.429350682843648 1.1608921411888495 0 0.62932039886446345 -0.77714595512881146 0.75 0 0 1 I I -0.70710678118654757 0.70710678118654757 0.75 forward I I I I #
loop $-1 $-1 $181 $49 #
coedge $-1 $113 $113 $182 $183 reversed $71 $-1 #
face $-1 $-1 $184 $39 $-1 $185 forward single #
loop $-1 $186 $187 $73 #
cone-surface $-1 -8.7736614251697169 -19.429350682843648 1.1608921411888495 0 0.62932039886446345 -0.77714595512881146 0.75 0 0 1 I I -0.70710678118654757 0.70710678118654757 0.75 forward I I I I #
loop $-1 $-1 $188 $50 #
coedge $-1 $118 $118 $189 $190 reversed $74 $-1 #
face $-1 $191 $192 $40 $-1 $193 reversed single #
loop $-1 $-1 $194 $76 #
plane-surface $-1 19.674746061384418 -25.92201732416202 2.1014220474942178 0 -0.62932039886446345 0.77714595512881146 1 0 0 forward_v I I I I #
coedge $-1 $195 $196 $197 $198 reversed $77 $-1 #
face $-1 $-1 $199 $41 $-1 $200 forward single #
loop $-1 $201 $202 $79 #
cone-surface $-1 14.886743309845009 -19.429350682843648 1.1608921411888495 0 0.62932039886446345 -0.77714595512881146 0.75 0 0 1 I I -0.70710678118654757 0.70710678118654757 0.75 forward I I I I #
loop $-1 $-1 $203 $52 #
coedge $-1 $127 $127 $204 $205 reversed $80 $-1 #
face $-1 $-1 $206 $42 $-1 $207 forward single #
loop $-1 $208 $209 $82 #
cone-surface $-1 19.674746061384418 -19.429350682843648 1.1608921411888495 0 0.62932039886446345 -0.77714595512881146 0.75 0 0 1 I I -0.70710678118654757 0.70710678118654757 0.75 forward I I I I #
loop $-1 $-1 $210 $53 #
coedge $-1 $132 $132 $211 $212 reversed $83 $-1 #
face $-1 $-1 $213 $43 $-1 $214 forward single #
loop $-1 $215 $216 $85 #
cone-surface $-1 24.462748812923842 -19.429350682843648 1.1608921411888495 0 0.62932039886446345 -0.77714595512881146 0.75 0 0 1 I I -0.70710678118654757 0.70710678118654757 0.75 forward I I I I #
loop $-1 $-1 $217 $54 #
coedge $-1 $137 $137 $218 $219 reversed $86 $-1 #
face $-1 $220 $221 $33 $-1 $222 reversed single #
loop $-1 $-1 $223 $88 #
plane-surface $-1 0 -25.922017324162027 0 0 1 0 0 0 1 forward_v I I I I #
coedge $-1 $224 $225 $226 $227 forward $89 $-1 #
coedge $-1 $228 $91 $229 $230 forward $56 $-1 #
coedge $-1 $91 $228 $231 $232 forward $56 $-1 #
coedge $-1 $233 $234 $91 $145 reversed $235 $-1 #
edge $-1 $236 -25.922017324162027 $237 25.922017324162027 $144 $238 forward 7 unknown #
face $-1 $239 $240 $34 $-1 $241 reversed single #
loop $-1 $-1 $242 $92 #
plane-surface $-1 0 25.922017324162027 0 0 -1 0 0 0 -1 forward_v I I I I #
coedge $-1 $152 $243 $244 $245 reversed $93 $-1 #
coedge $-1 $246 $95 $247 $248 reversed $59 $-1 #
coedge $-1 $95 $246 $249 $250 reversed $59 $-1 #
coedge $-1 $251 $149 $95 $153 reversed $93 $-1 #
edge $-1 $252 -25.922017324162027 $253 25.922017324162027 $152 $254 forward 7 unknown #
face $-1 $255 $256 $35 $-1 $257 forward single #
loop $-1 $-1 $258 $96 #
plane-surface $-1 36.892559345951945 -10.507566103182619 0 0 -1 0 0 0 -1 forward_v I I I I #
coedge $-1 $259 $260 $261 $262 forward $97 $-1 #
coedge $-1 $263 $99 $264 $265 reversed $62 $-1 #
coedge $-1 $99 $263 $266 $267 reversed $62 $-1 #
coedge $-1 $260 $259 $99 $161 reversed $97 $-1 #
edge $-1 $268 -7.7072256104897043 $269 7.7072256104897043 $160 $270 forward 7 unknown #
face $-1 $271 $272 $36 $-1 $273 reversed single #
loop $-1 $-1 $274 $100 #
plane-surface $-1 -21.541668762608161 -76.627184066130852 64.717086991385102 1 0 0 0 0.62932039886446345 -0.77714595512881146 forward_v I I I I #
coedge $-1 $275 $276 $277 $278 reversed $101 $-1 #
coedge $-1 $167 $103 $279 $280 reversed $65 $-1 #
coedge $-1 $103 $166 $275 $281 reversed $65 $-1 #
coedge $-1 $277 $282 $103 $169 forward $283 $-1 #
edge $-1 $284 12.391574708903399 $285 19.314165446609472 $168 $286 forward 7 unknown #
loop $-1 $-1 $175 $104 #
plane-surface $-1 -13.561664176709133 -25.92201732416202 2.1014220474942178 0 -0.62932039886446345 0.77714595512881146 1 0 0 forward_v I I I I #
loop $-1 $-1 $287 $67 #
coedge $-1 $173 $173 $174 $288 reversed $105 $-1 #
coedge $-1 $174 $174 $173 $288 forward $107 $-1 #
coedge $-1 $175 $175 $108 $176 forward $170 $-1 #
edge $-1 $289 -1.0503637516332849e-015 $289 6.2831853071795996 $175 $290 forward 7 unknown #
loop $-1 $-1 $182 $109 #
plane-surface $-1 -13.561664176709133 -25.92201732416202 2.1014220474942178 0 -0.62932039886446345 0.77714595512881146 1 0 0 forward_v I I I I #
loop $-1 $-1 $291 $70 #
coedge $-1 $180 $180 $181 $292 reversed $110 $-1 #
coedge $-1 $181 $181 $180 $292 forward $112 $-1 #
coedge $-1 $182 $182 $113 $183 forward $177 $-1 #
edge $-1 $293 -1.0503637516332849e-015 $293 6.2831853071795996 $182 $294 forward 7 unknown #
loop $-1 $-1 $189 $114 #
plane-surface $-1 -13.561664176709133 -25.92201732416202 2.1014220474942178 0 -0.62932039886446345 0.77714595512881146 1 0 0 forward_v I I I I #
loop $-1 $-1 $295 $73 #
coedge $-1 $187 $187 $188 $296 reversed $115 $-1 #
coedge $-1 $188 $188 $187 $296 forward $117 $-1 #
coedge $-1 $189 $189 $118 $190 forward $184 $-1 #
edge $-1 $297 -1.0503637516332849e-015 $297 6.2831853071795996 $189 $298 forward 7 unknown #
face $-1 $299 $300 $40 $-1 $301 reversed single #
loop $-1 $-1 $302 $119 #
plane-surface $-1 11.69474147548539 -76.627184066130852 64.717086991385102 1 0 0 0 0.62932039886446345 -0.77714595512881146 forward_v I I I I #
coedge $-1 $303 $304 $305 $306 reversed $120 $-1 #
coedge $-1 $196 $122 $307 $308 reversed $77 $-1 #
coedge $-1 $122 $195 $303 $309 reversed $77 $-1 #
coedge $-1 $305 $310 $122 $198 forward $311 $-1 #
edge $-1 $312 12.391574708903399 $313 19.314165446609472 $197 $314 forward 7 unknown #
loop $-1 $-1 $204 $123 #
plane-surface $-1 19.674746061384418 -25.92201732416202 2.1014220474942178 0 -0.62932039886446345 0.77714595512881146 1 0 0 forward_v I I I I #
loop $-1 $-1 $315 $79 #
coedge $-1 $202 $202 $203 $316 reversed $124 $-1 #
coedge $-1 $203 $203 $202 $316 forward $126 $-1 #
coedge $-1 $204 $204 $127 $205 forward $199 $-1 #
edge $-1 $317 -1.0503637516332849e-015 $317 6.2831853071795996 $204 $318 forward 7 unknown #
loop $-1 $-1 $211 $128 #
plane-surface $-1 19.674746061384418 -25.92201732416202 2.1014220474942178 0 -0.62932039886446345 0.77714595512881146 1 0 0 forward_v I I I I #
loop $-1 $-1 $319 $82 #
coedge $-1 $209 $209 $210 $320 reversed $129 $-1 #
coedge $-1 $210 $210 $209 $320 forward $131 $-1 #
coedge $-1 $211 $211 $132 $212 forward $206 $-1 #
edge $-1 $321 -1.0503637516332849e-015 $321 6.2831853071795996 $211 $322 forward 7 unknown #
loop $-1 $-1 $218 $133 #
plane-surface $-1 19.674746061384418 -25.92201732416202 2.1014220474942178 0 -0.62932039886446345 0.77714595512881146 1 0 0 forward_v I I I I #
loop $-1 $-1 $323 $85 #
coedge $-1 $216 $216 $217 $324 reversed $134 $-1 #
coedge $-1 $217 $217 $216 $324 forward $136 $-1 #
coedge $-1 $218 $218 $137 $219 forward $213 $-1 #
edge $-1 $325 -1.0503637516332849e-015 $325 6.2831853071795996 $218 $326 forward 7 unknown #
face $-1 $327 $328 $33 $-1 $329 reversed single #
loop $-1 $-1 $330 $138 #
plane-surface $-1 -40.285653248695333 0 0 1 0 0 0 0 -1 forward_v I I I I #
coedge $-1 $331 $231 $332 $333 forward $139 $-1 #
coedge $-1 $334 $141 $331 $335 forward $89 $-1 #
coedge $-1 $141 $334 $336 $337 forward $89 $-1 #
coedge $-1 $234 $233 $141 $227 reversed $235 $-1 #
edge $-1 $338 -25.922017324162027 $339 25.922017324162027 $226 $340 forward 7 unknown #
coedge $-1 $143 $142 $341 $342 forward $56 $-1 #
coedge $-1 $343 $344 $142 $230 reversed $328 $-1 #
edge $-1 $237 -40.285653248695333 $345 40.285653248695333 $229 $346 forward 7 unknown #
coedge $-1 $223 $347 $143 $232 reversed $139 $-1 #
edge $-1 $348 -40.285653248695333 $236 40.285653248695333 $231 $349 forward 7 unknown #
coedge $-1 $226 $144 $347 $350 forward $235 $-1 #
coedge $-1 $144 $226 $343 $351 reversed $235 $-1 #
loop $-1 $-1 $233 $327 #
vertex $-1 $145 $352 #
vertex $-1 $145 $353 #
straight-curve $-1 40.285653248695333 0 7.7072256104897043 0 1 0 I I #
face $-1 $354 $355 $34 $-1 $356 forward single #
loop $-1 $-1 $357 $146 #
plane-surface $-1 -40.285653248695333 0 0 1 0 0 0 0 -1 forward_v I I I I #
coedge $-1 $249 $358 $251 $359 forward $147 $-1 #
coedge $-1 $149 $251 $360 $361 reversed $93 $-1 #
coedge $-1 $362 $247 $149 $245 forward $363 $-1 #
edge $-1 $253 1.6036128052448522 $364 4.6036128052448522 $244 $365 forward 7 unknown #
coedge $-1 $151 $150 $357 $366 reversed $59 $-1 #
coedge $-1 $244 $367 $150 $248 forward $363 $-1 #
edge $-1 $368 -21.970901178276861 $253 -14.658602962560082 $247 $369 forward 7 unknown #
coedge $-1 $370 $242 $151 $250 forward $147 $-1 #
edge $-1 $252 14.658602962560082 $371 21.970901178276861 $249 $372 forward 7 unknown #
coedge $-1 $243 $152 $242 $359 reversed $93 $-1 #
vertex $-1 $250 $373 #
vertex $-1 $248 $374 #
straight-curve $-1 -32.973355032978553 0 4.7072256104897043 0 -1 0 I I #
face $-1 $375 $376 $35 $-1 $377 reversed single #
loop $-1 $-1 $378 $154 #
plane-surface $-1 0 0 7.7072256104897043 0 0 1 1 0 0 forward_v I I I I #
coedge $-1 $379 $380 $381 $382 reversed $155 $-1 #
coedge $-1 $160 $157 $383 $384 reversed $97 $-1 #
coedge $-1 $157 $160 $385 $386 reversed $97 $-1 #
coedge $-1 $380 $379 $157 $262 reversed $155 $-1 #
edge $-1 $387 -7.7072256104897043 $388 7.7072256104897043 $261 $389 forward 7 unknown #
coedge $-1 $159 $158 $390 $391 reversed $62 $-1 #
coedge $-1 $383 $392 $158 $265 forward $376 $-1 #
edge $-1 $393 -21.83937357571936 $269 -15.053185770232584 $264 $394 forward 7 unknown #
coedge $-1 $395 $385 $159 $267 forward $256 $-1 #
edge $-1 $268 15.053185770232584 $396 21.83937357571936 $266 $397 forward 7 unknown #
vertex $-1 $267 $398 #
vertex $-1 $265 $399 #
straight-curve $-1 33.499465443208557 -14.74107148582247 0 0 0 -1 I I #
face $-1 $-1 $283 $36 $-1 $400 forward single #
loop $-1 $-1 $401 $162 #
plane-surface $-1 0 -25.922017324162027 0 0 1 0 0 0 1 forward_v I I I I #
coedge $-1 $402 $403 $404 $405 reversed $163 $-1 #
coedge $-1 $406 $165 $167 $281 forward $101 $-1 #
coedge $-1 $165 $406 $402 $407 forward $101 $-1 #
coedge $-1 $404 $168 $165 $278 forward $283 $-1 #
edge $-1 $285 -1.1991724975444615 $408 14.760836674253595 $277 $409 forward 7 unknown #
coedge $-1 $410 $411 $166 $280 forward $272 $-1 #
edge $-1 $412 -30.25712144819834 $284 -24.651317885202847 $279 $413 forward 7 unknown #
edge $-1 $285 -8.9077099250405958 $412 9.1551213131864128e-015 $167 $414 forward 7 unknown #
coedge $-1 $168 $404 $410 $415 forward $283 $-1 #
loop $-1 $-1 $404 $271 #
vertex $-1 $280 $416 #
vertex $-1 $169 $417 #
straight-curve $-1 -5.581659590810105 -38.313592033065426 7.7072256104897043 0 1 0 I I #
coedge $-1 $287 $287 $-1 $418 reversed $172 $-1 #
edge $-1 $419 0 $419 6.2831853071796004 $173 $420 forward 7 unknown #
vertex $-1 $176 $421 #
ellipse-curve $-1 -18.349666928248549 -22.460721955308994 4.9043238289919557 0 -0.62932039886446345 0.77714595512881146 1.5 0 0 1 I I #
coedge $-1 $291 $291 $-1 $422 reversed $179 $-1 #
edge $-1 $423 0 $423 6.2831853071796004 $180 $424 forward 7 unknown #
vertex $-1 $183 $425 #
ellipse-curve $-1 -13.561664176709133 -22.460721955308994 4.9043238289919557 0 -0.62932039886446345 0.77714595512881146 1.5 0 0 1 I I #
coedge $-1 $295 $295 $-1 $426 reversed $186 $-1 #
edge $-1 $427 0 $427 6.2831853071796004 $187 $428 forward 7 unknown #
vertex $-1 $190 $429 #
ellipse-curve $-1 -8.7736614251697169 -22.460721955308994 4.9043238289919557 0 -0.62932039886446345 0.77714595512881146 1.5 0 0 1 I I #
face $-1 $-1 $311 $40 $-1 $430 forward single #
loop $-1 $-1 $431 $191 #
plane-surface $-1 0 -25.922017324162027 0 0 1 0 0 0 1 forward_v I I I I #
coedge $-1 $432 $433 $434 $435 reversed $192 $-1 #
coedge $-1 $436 $194 $196 $309 forward $120 $-1 #
coedge $-1 $194 $436 $432 $437 forward $120 $-1 #
coedge $-1 $434 $197 $194 $306 forward $311 $-1 #
edge $-1 $313 -17.817377616591237 $438 -1.8573684447931811 $305 $439 forward 7 unknown #
coedge $-1 $440 $441 $195 $308 forward $300 $-1 #
edge $-1 $442 -30.25712144819834 $312 -24.651317885202847 $307 $443 forward 7 unknown #
edge $-1 $313 -8.9077099250405958 $442 9.1551213131864128e-015 $196 $444 forward 7 unknown #
coedge $-1 $197 $434 $440 $445 forward $311 $-1 #
loop $-1 $-1 $434 $299 #
vertex $-1 $308 $446 #
vertex $-1 $198 $447 #
straight-curve $-1 27.654750647283446 -38.313592033065426 7.7072256104897043 0 1 0 I I #
coedge $-1 $315 $315 $-1 $448 reversed $201 $-1 #
edge $-1 $449 0 $449 6.2831853071796004 $202 $450 forward 7 unknown #
vertex $-1 $205 $451 #
ellipse-curve $-1 14.886743309845009 -22.460721955308994 4.9043238289919557 0 -0.62932039886446345 0.77714595512881146 1.5 0 0 1 I I #
coedge $-1 $319 $319 $-1 $452 reversed $208 $-1 #
edge $-1 $453 0 $453 6.2831853071796004 $209 $454 forward 7 unknown #
vertex $-1 $212 $455 #
ellipse-curve $-1 19.674746061384418 -22.460721955308994 4.9043238289919557 0 -0.62932039886446345 0.77714595512881146 1.5 0 0 1 I I #
coedge $-1 $323 $323 $-1 $456 reversed $215 $-1 #
edge $-1 $457 0 $457 6.2831853071796004 $216 $458 forward 7 unknown #
vertex $-1 $219 $459 #
ellipse-curve $-1 24.462748812923842 -22.460721955308994 4.9043238289919557 0 -0.62932039886446345 0.77714595512881146 1.5 0 0 1 I I #
face $-1 $-1 $235 $33 $-1 $460 reversed single #
loop $-1 $-1 $343 $220 #
plane-surface $-1 0 25.922017324162027 0 0 -1 0 0 0 -1 forward_v I I I I #
coedge $-1 $461 $341 $344 $462 forward $221 $-1 #
coedge $-1 $347 $223 $224 $335 reversed $139 $-1 #
coedge $-1 $341 $461 $223 $333 reversed $221 $-1 #
edge $-1 $348 -7.7072256104897043 $463 7.7072256104897043 $332 $464 forward 7 unknown #
coedge $-1 $225 $224 $461 $465 forward $89 $-1 #
edge $-1 $339 -40.285653248695333 $463 40.285653248695333 $331 $466 forward 7 unknown #
coedge $-1 $344 $343 $225 $337 reversed $328 $-1 #
edge $-1 $467 -40.285653248695333 $338 40.285653248695333 $336 $468 forward 7 unknown #
vertex $-1 $227 $469 #
vertex $-1 $350 $470 #
straight-curve $-1 40.285653248695333 0 -7.7072256104897043 0 -1 0 I I #
coedge $-1 $330 $332 $228 $342 reversed $221 $-1 #
edge $-1 $345 -25.922017324162027 $348 25.922017324162027 $341 $471 forward 7 unknown #
coedge $-1 $336 $229 $234 $351 forward $328 $-1 #
coedge $-1 $229 $336 $330 $462 reversed $328 $-1 #
vertex $-1 $230 $472 #
straight-curve $-1 0 25.922017324162027 7.7072256104897043 -1 0 0 I I #
coedge $-1 $231 $331 $233 $350 reversed $139 $-1 #
vertex $-1 $342 $473 #
straight-curve $-1 0 -25.922017324162027 7.7072256104897043 1 0 0 I I #
edge $-1 $236 -7.7072256104897043 $339 7.7072256104897043 $233 $474 forward 7 unknown #
edge $-1 $237 -7.7072256104897043 $338 7.7072256104897043 $234 $475 forward 7 unknown #
point $-1 40.285653248695333 -25.922017324162027 7.7072256104897043 #
point $-1 40.285653248695333 25.922017324162027 7.7072256104897043 #
face $-1 $-1 $363 $34 $-1 $476 reversed single #
loop $-1 $-1 $360 $239 #
plane-surface $-1 0 0 7.7072256104897043 0 0 1 1 0 0 forward_v I I I I #
coedge $-1 $477 $478 $246 $366 forward $240 $-1 #
coedge $-1 $242 $370 $479 $480 reversed $147 $-1 #
edge $-1 $481 -4.6036128052448522 $252 -1.6036128052448522 $242 $482 forward 7 unknown #
coedge $-1 $479 $483 $243 $361 forward $355 $-1 #
edge $-1 $364 -25.922017324162027 $481 25.922017324162027 $360 $484 forward 7 unknown #
coedge $-1 $367 $244 $483 $485 reversed $363 $-1 #
loop $-1 $-1 $244 $354 #
vertex $-1 $245 $486 #
straight-curve $-1 -32.973355032978553 -25.922017324162027 3.1036128052448522 0 0 1 I I #
edge $-1 $371 -25.922017324162027 $368 25.922017324162027 $357 $487 forward 7 unknown #
coedge $-1 $247 $362 $477 $488 forward $363 $-1 #
vertex $-1 $366 $489 #
straight-curve $-1 -18.314752070418471 -25.922017324162027 4.7072256104897043 1 0 0 I I #
coedge $-1 $358 $249 $478 $490 reversed $147 $-1 #
vertex $-1 $366 $491 #
straight-curve $-1 -18.314752070418471 25.922017324162027 4.7072256104897043 -1 0 0 I I #
point $-1 -32.973355032978553 25.922017324162027 4.7072256104897043 #
point $-1 -32.973355032978553 -25.922017324162027 4.7072256104897043 #
face $-1 $-1 $492 $35 $-1 $493 reversed single #
loop $-1 $-1 $494 $255 #
plane-surface $-1 0 0 -7.7072256104897043 0 0 1 1 0 0 forward_v I I I I #
coedge $-1 $385 $395 $380 $495 forward $256 $-1 #
coedge $-1 $261 $258 $494 $496 reversed $155 $-1 #
coedge $-1 $258 $261 $378 $495 reversed $155 $-1 #
coedge $-1 $497 $498 $258 $382 forward $492 $-1 #
edge $-1 $499 -7.7072256104897043 $500 7.7072256104897043 $381 $501 forward 7 unknown #
coedge $-1 $494 $264 $259 $384 forward $376 $-1 #
edge $-1 $269 -8.4289120885711988 $388 -4.1954067059313465 $383 $502 forward 7 unknown #
coedge $-1 $266 $378 $260 $386 forward $256 $-1 #
edge $-1 $387 4.1954067059313465 $268 8.4289120885711988 $385 $503 forward 7 unknown #
vertex $-1 $386 $504 #
vertex $-1 $384 $505 #
straight-curve $-1 33.499465443208557 -10.507566103182619 0 0 0 -1 I I #
coedge $-1 $498 $497 $263 $391 forward $492 $-1 #
edge $-1 $396 -7.7072256104897043 $393 7.7072256104897043 $390 $506 forward 7 unknown #
coedge $-1 $264 $494 $498 $507 forward $376 $-1 #
vertex $-1 $391 $508 #
straight-curve $-1 18.446279672975972 -14.74107148582247 -7.7072256104897043 -1 0 0 I I #
coedge $-1 $378 $266 $497 $509 forward $256 $-1 #
vertex $-1 $509 $510 #
straight-curve $-1 18.446279672975972 -14.74107148582247 7.7072256104897043 1 0 0 I I #
point $-1 33.499465443208557 -14.74107148582247 7.7072256104897043 #
point $-1 33.499465443208557 -14.74107148582247 -7.7072256104897043 #
plane-surface $-1 0 0 7.7072256104897043 0 0 1 1 0 0 forward_v I I I I #
coedge $-1 $411 $410 $403 $511 forward $272 $-1 #
coedge $-1 $403 $274 $276 $407 reversed $163 $-1 #
coedge $-1 $274 $402 $401 $511 reversed $163 $-1 #
coedge $-1 $282 $277 $274 $405 forward $283 $-1 #
edge $-1 $408 -19.314165446609472 $512 -12.391574708903399 $404 $513 forward 7 unknown #
coedge $-1 $276 $275 $411 $514 reversed $101 $-1 #
edge $-1 $515 -9.1551213131864128e-015 $408 8.9077099250405958 $402 $516 forward 7 unknown #
vertex $-1 $278 $517 #
straight-curve $-1 -6.7808320883545665 -18.999426586455954 7.7072256104897043 -1 0 0 I I #
coedge $-1 $401 $279 $282 $415 reversed $272 $-1 #
coedge $-1 $279 $401 $406 $514 forward $272 $-1 #
vertex $-1 $280 $518 #
straight-curve $-1 -5.581659590810105 -25.922017324162027 32.358543495692551 0 0 1 I I #
straight-curve $-1 -5.581659590810105 -25.92201732416202 2.1014220474942178 0 -0.77714595512881146 -0.62932039886446345 I I #
edge $-1 $512 -21.541668762608161 $284 -5.581659590810105 $410 $519 forward 7 unknown #
point $-1 -5.581659590810105 -25.922017324162027 7.7072256104897043 #
point $-1 -5.581659590810105 -18.999426586455954 7.7072256104897043 #
edge $-1 $520 1 $520 0 $287 $-1 forward 7 unknown #
vertex $-1 $288 $521 #
ellipse-curve $-1 -18.349666928248549 -19.901340981991996 1.743751607535458 0 -0.62932039886446345 0.77714595512881146 1.5 0 0 1 I I #
point $-1 -16.849666928248549 -22.460721955309005 4.9043238289919664 #
edge $-1 $522 1 $522 0 $291 $-1 forward 7 unknown #
vertex $-1 $292 $523 #
ellipse-curve $-1 -13.561664176709133 -19.901340981991996 1.743751607535458 0 -0.62932039886446345 0.77714595512881146 1.5 0 0 1 I I #
point $-1 -12.061664176709133 -22.460721955309005 4.9043238289919664 #
edge $-1 $524 1 $524 0 $295 $-1 forward 7 unknown #
vertex $-1 $296 $525 #
ellipse-curve $-1 -8.7736614251697169 -19.901340981991996 1.743751607535458 0 -0.62932039886446345 0.77714595512881146 1.5 0 0 1 I I #
point $-1 -7.2736614251697169 -22.460721955309005 4.9043238289919664 #
plane-surface $-1 0 0 7.7072256104897043 0 0 1 1 0 0 forward_v I I I I #
coedge $-1 $441 $440 $433 $526 forward $300 $-1 #
coedge $-1 $433 $302 $304 $437 reversed $192 $-1 #
coedge $-1 $302 $432 $431 $526 reversed $192 $-1 #
coedge $-1 $310 $305 $302 $435 forward $311 $-1 #
edge $-1 $438 -19.314165446609472 $527 -12.391574708903399 $434 $528 forward 7 unknown #
coedge $-1 $304 $303 $441 $529 reversed $120 $-1 #
edge $-1 $530 -9.1551213131864128e-015 $438 8.9077099250405958 $432 $531 forward 7 unknown #
vertex $-1 $306 $532 #
straight-curve $-1 9.8373730306922091 -18.999426586455954 7.7072256104897043 -1 0 0 I I #
coedge $-1 $431 $307 $310 $445 reversed $300 $-1 #
coedge $-1 $307 $431 $436 $529 forward $300 $-1 #
vertex $-1 $308 $533 #
straight-curve $-1 27.654750647283446 -25.922017324162027 32.358543495692551 0 0 1 I I #
straight-curve $-1 27.654750647283446 -25.92201732416202 2.1014220474942178 0 -0.77714595512881146 -0.62932039886446345 I I #
edge $-1 $527 11.69474147548539 $312 27.654750647283446 $440 $534 forward 7 unknown #
point $-1 27.654750647283446 -25.922017324162027 7.7072256104897043 #
point $-1 27.654750647283446 -18.999426586455954 7.7072256104897043 #
edge $-1 $535 1 $535 0 $315 $-1 forward 7 unknown #
vertex $-1 $316 $536 #
ellipse-curve $-1 14.886743309845009 -19.901340981991996 1.743751607535458 0 -0.62932039886446345 0.77714595512881146 1.5 0 0 1 I I #
point $-1 16.386743309845009 -22.460721955309005 4.9043238289919664 #
edge $-1 $537 1 $537 0 $319 $-1 forward 7 unknown #
vertex $-1 $320 $538 #
ellipse-curve $-1 19.674746061384418 -19.901340981991996 1.743751607535458 0 -0.62932039886446345 0.77714595512881146 1.5 0 0 1 I I #
point $-1 21.174746061384418 -22.460721955309005 4.9043238289919664 #
edge $-1 $539 1 $539 0 $323 $-1 forward 7 unknown #
vertex $-1 $324 $540 #
ellipse-curve $-1 24.462748812923842 -19.901340981991996 1.743751607535458 0 -0.62932039886446345 0.77714595512881146 1.5 0 0 1 I I #
point $-1 25.962748812923842 -22.460721955309005 4.9043238289919664 #
plane-surface $-1 40.285653248695333 0 0 -1 0 0 0 0 1 forward_v I I I I #
coedge $-1 $332 $330 $334 $465 reversed $221 $-1 #
edge $-1 $345 -7.7072256104897043 $467 7.7072256104897043 $344 $541 forward 7 unknown #
vertex $-1 $465 $542 #
straight-curve $-1 -40.285653248695333 -25.922017324162027 0 0 0 -1 I I #
edge $-1 $463 -25.922017324162027 $467 25.922017324162027 $461 $543 forward 7 unknown #
straight-curve $-1 0 -25.922017324162027 -7.7072256104897043 -1 0 0 I I #
vertex $-1 $337 $544 #
straight-curve $-1 0 25.922017324162027 -7.7072256104897043 1 0 0 I I #
point $-1 40.285653248695333 25.922017324162027 -7.7072256104897043 #
point $-1 40.285653248695333 -25.922017324162027 -7.7072256104897043 #
straight-curve $-1 -40.285653248695333 0 7.7072256104897043 0 -1 0 I I #
point $-1 -40.285653248695333 25.922017324162027 7.7072256104897043 #
point $-1 -40.285653248695333 -25.922017324162027 7.7072256104897043 #
straight-curve $-1 40.285653248695333 -25.922017324162027 0 0 0 -1 I I #
straight-curve $-1 40.285653248695333 25.922017324162027 0 0 0 -1 I I #
plane-surface $-1 0 -25.922017324162027 0 0 1 0 0 0 1 forward_v I I I I #
coedge $-1 $545 $357 $367 $488 reversed $240 $-1 #
coedge $-1 $357 $545 $370 $490 forward $240 $-1 #
coedge $-1 $546 $360 $358 $480 forward $355 $-1 #
edge $-1 $481 32.973355032978553 $547 40.285653248695333 $358 $548 forward 7 unknown #
vertex $-1 $480 $549 #
straight-curve $-1 -32.973355032978553 25.922017324162027 3.1036128052448522 0 0 -1 I I #
coedge $-1 $360 $546 $362 $485 forward $355 $-1 #
straight-curve $-1 -32.973355032978553 0 7.7072256104897043 0 1 0 I I #
edge $-1 $550 -40.285653248695333 $364 -32.973355032978553 $362 $551 forward 7 unknown #
point $-1 -32.973355032978553 -25.922017324162027 7.7072256104897043 #
straight-curve $-1 -40.285653248695333 0 4.7072256104897043 0 -1 0 I I #
edge $-1 $550 -7.7072256104897043 $368 -4.7072256104897043 $477 $552 forward 7 unknown #
point $-1 -40.285653248695333 -25.922017324162027 4.7072256104897043 #
edge $-1 $547 -7.7072256104897043 $371 -4.7072256104897043 $370 $553 forward 7 unknown #
point $-1 -40.285653248695333 25.922017324162027 4.7072256104897043 #
loop $-1 $-1 $381 $375 #
plane-surface $-1 40.285653248695333 0 0 -1 0 0 0 0 1 forward_v I I I I #
coedge $-1 $392 $383 $379 $496 forward $376 $-1 #
edge $-1 $500 -21.83937357571936 $387 -15.053185770232584 $378 $554 forward 7 unknown #
edge $-1 $388 15.053185770232584 $499 21.83937357571936 $494 $555 forward 7 unknown #
coedge $-1 $390 $381 $395 $509 reversed $492 $-1 #
coedge $-1 $381 $390 $392 $507 reversed $492 $-1 #
vertex $-1 $507 $556 #
vertex $-1 $382 $557 #
straight-curve $-1 40.285653248695333 -10.507566103182619 0 0 0 1 I I #
straight-curve $-1 33.499465443208557 -6.3121593972512722 -7.7072256104897043 0 1 0 I I #
straight-curve $-1 33.499465443208557 -6.3121593972512722 7.7072256104897043 0 -1 0 I I #
point $-1 33.499465443208557 -10.507566103182619 7.7072256104897043 #
point $-1 33.499465443208557 -10.507566103182619 -7.7072256104897043 #
straight-curve $-1 40.285653248695333 -14.74107148582247 0 0 0 -1 I I #
edge $-1 $499 10.507566103182619 $393 14.74107148582247 $498 $558 forward 7 unknown #
point $-1 40.285653248695333 -14.74107148582247 -7.7072256104897043 #
edge $-1 $396 -14.74107148582247 $500 -10.507566103182619 $497 $559 forward 7 unknown #
point $-1 40.285653248695333 -14.74107148582247 7.7072256104897043 #
edge $-1 $512 24.651317885202847 $515 30.25712144819834 $401 $560 forward 7 unknown #
vertex $-1 $415 $561 #
straight-curve $-1 -21.541668762608161 -38.313592033065426 7.7072256104897043 0 -1 0 I I #
edge $-1 $515 -14.760836674253595 $412 1.1991724975444615 $411 $562 forward 7 unknown #
vertex $-1 $514 $563 #
straight-curve $-1 -21.541668762608161 -25.92201732416202 2.1014220474942178 0 0.77714595512881146 0.62932039886446345 I I #
point $-1 -21.541668762608161 -18.999426586455954 7.7072256104897043 #
point $-1 -5.581659590810105 -25.922017324162027 2.101422047494212 #
straight-curve $-1 0 -25.922017324162027 7.7072256104897043 1 0 0 I I #
vertex $-1 $418 $564 #
point $-1 -16.849666928248549 -19.901340981991996 1.743751607535458 #
vertex $-1 $422 $565 #
point $-1 -12.061664176709133 -19.901340981991996 1.743751607535458 #
vertex $-1 $426 $566 #
point $-1 -7.2736614251697169 -19.901340981991996 1.743751607535458 #
edge $-1 $527 24.651317885202847 $530 30.25712144819834 $431 $567 forward 7 unknown #
vertex $-1 $445 $568 #
straight-curve $-1 11.69474147548539 -38.313592033065426 7.7072256104897043 0 -1 0 I I #
edge $-1 $530 1.8573684447931811 $442 17.817377616591237 $441 $569 forward 7 unknown #
vertex $-1 $529 $570 #
straight-curve $-1 11.69474147548539 -25.92201732416202 2.1014220474942178 0 0.77714595512881146 0.62932039886446345 I I #
point $-1 11.69474147548539 -18.999426586455954 7.7072256104897043 #
point $-1 27.654750647283446 -25.922017324162027 2.101422047494212 #
straight-curve $-1 0 -25.922017324162027 7.7072256104897043 1 0 0 I I #
vertex $-1 $448 $571 #
point $-1 16.386743309845009 -19.901340981991996 1.743751607535458 #
vertex $-1 $452 $572 #
point $-1 21.174746061384418 -19.901340981991996 1.743751607535458 #
vertex $-1 $456 $573 #
point $-1 25.962748812923842 -19.901340981991996 1.743751607535458 #
straight-curve $-1 -40.285653248695333 25.922017324162027 0 0 0 -1 I I #
point $-1 -40.285653248695333 -25.922017324162027 -7.7072256104897043 #
straight-curve $-1 -40.285653248695333 0 -7.7072256104897043 0 1 0 I I #
point $-1 -40.285653248695333 25.922017324162027 -7.7072256104897043 #
coedge $-1 $478 $477 $546 $574 reversed $240 $-1 #
coedge $-1 $483 $479 $545 $574 forward $355 $-1 #
vertex $-1 $480 $575 #
straight-curve $-1 0 25.922017324162027 7.7072256104897043 -1 0 0 I I #
point $-1 -32.973355032978553 25.922017324162027 7.7072256104897043 #
vertex $-1 $574 $576 #
straight-curve $-1 0 -25.922017324162027 7.7072256104897043 1 0 0 I I #
straight-curve $-1 -40.285653248695333 -25.922017324162027 0 0 0 -1 I I #
straight-curve $-1 -40.285653248695333 25.922017324162027 0 0 0 -1 I I #
straight-curve $-1 18.446279672975972 -10.507566103182619 7.7072256104897043 -1 0 0 I I #
straight-curve $-1 18.446279672975972 -10.507566103182619 -7.7072256104897043 1 0 0 I I #
point $-1 40.285653248695333 -10.507566103182619 -7.7072256104897043 #
point $-1 40.285653248695333 -10.507566103182619 7.7072256104897043 #
straight-curve $-1 40.285653248695333 0 -7.7072256104897043 0 -1 0 I I #
straight-curve $-1 40.285653248695333 0 7.7072256104897043 0 1 0 I I #
straight-curve $-1 -21.541668762608161 -25.922017324162027 32.358543495692551 0 0 -1 I I #
point $-1 -21.541668762608161 -25.922017324162027 7.7072256104897043 #
straight-curve $-1 -6.7808320883545665 -25.922017324162027 2.101422047494212 1 0 0 I I #
point $-1 -21.541668762608161 -25.922017324162027 2.101422047494212 #
point $-1 -18.349666928248549 -18.957360383695299 0.57803267484224097 #
point $-1 -13.561664176709133 -18.957360383695299 0.57803267484224097 #
point $-1 -8.7736614251697169 -18.957360383695299 0.57803267484224097 #
straight-curve $-1 11.69474147548539 -25.922017324162027 32.358543495692551 0 0 -1 I I #
point $-1 11.69474147548539 -25.922017324162027 7.7072256104897043 #
straight-curve $-1 9.8373730306922091 -25.922017324162027 2.101422047494212 1 0 0 I I #
point $-1 11.69474147548539 -25.922017324162027 2.101422047494212 #
point $-1 14.886743309845009 -18.957360383695299 0.57803267484224097 #
point $-1 19.674746061384418 -18.957360383695299 0.57803267484224097 #
point $-1 24.462748812923842 -18.957360383695299 0.57803267484224097 #
edge $-1 $547 -25.922017324162027 $550 25.922017324162027 $545 $577 forward 7 unknown #
point $-1 -40.285653248695333 25.922017324162027 7.7072256104897043 #
point $-1 -40.285653248695333 -25.922017324162027 7.7072256104897043 #
straight-curve $-1 -40.285653248695333 0 7.7072256104897043 0 -1 0 I I #
End-of-ACIS-data 