500 0 9 0           
7 Unknown 11 ACIS 5.0 NT 24 Fri Mar 26 15:16:34 1999 
-1 9.9999999999999995e-007 1e-010 
body $-1 $9 $-1 $10 #
body $-1 $11 $-1 $12 #
body $-1 $13 $-1 $14 #
body $-1 $15 $-1 $16 #
body $-1 $17 $-1 $18 #
body $-1 $19 $-1 $20 #
body $-1 $21 $-1 $22 #
body $-1 $23 $-1 $24 #
body $-1 $25 $-1 $26 #
lump $-1 $-1 $27 $0 #
transform $-1 1 0 0 0 1 0 0 0 1 78.754844813379322 38.550865470402506 16.105195542399148 1 rotate no_reflect no_shear #
lump $-1 $-1 $28 $1 #
transform $-1 1 0 0 0 1 0 0 0 1 78.754844813379322 38.550865470402506 16.105195542399148 1 rotate no_reflect no_shear #
lump $-1 $-1 $29 $2 #
transform $-1 1 0 0 0 1 0 0 0 1 78.754844813379322 38.550865470402506 16.105195542399148 1 rotate no_reflect no_shear #
lump $-1 $-1 $30 $3 #
transform $-1 1 0 0 0 1 0 0 0 1 78.754844813379322 38.550865470402506 16.105195542399148 1 rotate no_reflect no_shear #
lump $-1 $-1 $31 $4 #
transform $-1 1 0 0 0 1 0 0 0 1 78.754844813379322 38.550865470402506 16.105195542399148 1 rotate no_reflect no_shear #
lump $-1 $-1 $32 $5 #
transform $-1 1 0 0 0 1 0 0 0 1 78.754844813379322 38.550865470402506 16.105195542399148 1 rotate no_reflect no_shear #
lump $-1 $-1 $33 $6 #
transform $-1 1 0 0 0 1 0 0 0 1 78.754844813379322 38.550865470402506 16.105195542399148 1 rotate no_reflect no_shear #
lump $-1 $-1 $34 $7 #
transform $-1 1 0 0 0 1 0 0 0 1 78.754844813379322 38.550865470402506 16.105195542399148 1 rotate no_reflect no_shear #
lump $-1 $-1 $35 $8 #
transform $-1 1 0 0 0 1 0 0 0 1 78.754844813379322 38.550865470402506 16.105195542399148 1 rotate no_reflect no_shear #
shell $-1 $-1 $-1 $36 $-1 $9 #
shell $-1 $-1 $-1 $37 $-1 $11 #
shell $-1 $-1 $-1 $38 $-1 $13 #
shell $-1 $-1 $-1 $39 $-1 $15 #
shell $-1 $-1 $-1 $40 $-1 $17 #
shell $-1 $-1 $-1 $41 $-1 $19 #
shell $-1 $-1 $-1 $42 $-1 $21 #
shell $-1 $-1 $-1 $43 $-1 $23 #
shell $-1 $-1 $-1 $44 $-1 $25 #
face $-1 $45 $46 $27 $-1 $47 forward single #
face $-1 $48 $49 $28 $-1 $50 forward single #
face $-1 $51 $52 $29 $-1 $53 forward single #
face $-1 $54 $55 $30 $-1 $56 reversed single #
face $-1 $57 $58 $31 $-1 $59 forward single #
face $-1 $60 $61 $32 $-1 $62 forward single #
face $-1 $63 $64 $33 $-1 $65 reversed single #
face $-1 $66 $67 $34 $-1 $68 forward single #
face $-1 $69 $70 $35 $-1 $71 forward single #
face $-1 $72 $73 $27 $-1 $74 reversed single #
loop $-1 $-1 $75 $36 #
plane-surface $-1 0 0 16.105195542399148 0 0 1 1 0 0 forward_v I I I I #
face $-1 $76 $77 $28 $-1 $78 reversed single #
loop $-1 $-1 $79 $37 #
plane-surface $-1 0 -38.550865470402506 0 0 1 0 0 0 1 forward_v I I I I #
face $-1 $80 $81 $29 $-1 $82 reversed single #
loop $-1 $-1 $83 $38 #
plane-surface $-1 0 38.550865470402506 0 0 -1 0 0 0 -1 forward_v I I I I #
face $-1 $84 $85 $30 $-1 $86 reversed single #
loop $-1 $-1 $87 $39 #
plane-surface $-1 47.753713114670845 -6.8823781001095234 222.25352478392762 0 -1 0 -0.6018150307709319 0 -0.79863550430605224 forward_v I I I I #
face $-1 $88 $89 $31 $-1 $90 forward single #
loop $-1 $91 $92 $40 #
cone-surface $-1 68.758356868165663 -13.416500824202615 8.3327279617502779 -0.6018150307709319 0 -0.79863550430605224 0.79863550430605224 0 -0.6018150307709319 1 I I 0 1 1 forward I I I I #
face $-1 $93 $94 $32 $-1 $95 forward single #
loop $-1 $96 $97 $41 #
cone-surface $-1 68.758356868165663 -9.4960271897467585 8.3327279617502779 -0.6018150307709319 0 -0.79863550430605224 0.79863550430605224 0 -0.6018150307709319 1 I I 0 1 1 forward I I I I #
face $-1 $98 $99 $33 $-1 $100 reversed single #
loop $-1 $-1 $101 $42 #
plane-surface $-1 47.753713114670845 16.03014991383985 222.25352478392762 0 -1 0 -0.6018150307709319 0 -0.79863550430605224 forward_v I I I I #
face $-1 $102 $103 $34 $-1 $104 forward single #
loop $-1 $105 $106 $43 #
cone-surface $-1 68.758356868165663 9.4960271897467621 8.3327279617502779 -0.6018150307709319 0 -0.79863550430605224 0.79863550430605224 0 -0.6018150307709319 1 I I 0 1 1 forward I I I I #
face $-1 $107 $108 $35 $-1 $109 forward single #
loop $-1 $110 $111 $44 #
cone-surface $-1 68.758356868165663 13.416500824202622 8.3327279617502779 -0.6018150307709319 0 -0.79863550430605224 0.79863550430605224 0 -0.6018150307709319 1 I I 0 1 1 forward I I I I #
face $-1 $112 $113 $27 $-1 $114 reversed single #
loop $-1 $-1 $115 $45 #
plane-surface $-1 0 0 -16.105195542399148 0 0 1 1 0 0 forward_v I I I I #
coedge $-1 $116 $117 $118 $119 forward $46 $-1 #
face $-1 $120 $121 $28 $-1 $122 reversed single #
loop $-1 $-1 $123 $48 #
plane-surface $-1 0 0 -16.105195542399148 0 0 1 1 0 0 forward_v I I I I #
coedge $-1 $124 $125 $126 $127 forward $49 $-1 #
face $-1 $128 $129 $29 $-1 $130 forward single #
loop $-1 $-1 $131 $51 #
plane-surface $-1 -78.754844813379322 0 0 1 0 0 0 0 -1 forward_v I I I I #
coedge $-1 $132 $133 $134 $135 forward $52 $-1 #
face $-1 $136 $137 $30 $-1 $138 reversed single #
loop $-1 $-1 $139 $54 #
plane-surface $-1 -47.037985594776842 -11.456264006974688 96.460694375771467 0.6018150307709319 0 0.79863550430605224 0.79863550430605224 0 -0.6018150307709319 forward_v I I I I #
coedge $-1 $140 $141 $142 $143 reversed $55 $-1 #
face $-1 $-1 $144 $31 $-1 $145 forward single #
loop $-1 $146 $147 $57 #
cone-surface $-1 68.039703362152892 -13.416500824202615 7.3790425669860547 -0.6018150307709319 0 -0.79863550430605224 0.39931775215302612 0 -0.30090751538546595 1 I I -0.70710678118654746 0.70710678118654746 0.5 forward I I I I #
loop $-1 $-1 $148 $40 #
coedge $-1 $92 $92 $149 $150 reversed $58 $-1 #
face $-1 $-1 $151 $32 $-1 $152 forward single #
loop $-1 $153 $154 $60 #
cone-surface $-1 68.039703362152892 -9.4960271897467585 7.3790425669860547 -0.6018150307709319 0 -0.79863550430605224 0.39931775215302612 0 -0.30090751538546595 1 I I -0.70710678118654746 0.70710678118654746 0.5 forward I I I I #
loop $-1 $-1 $155 $41 #
coedge $-1 $97 $97 $156 $157 reversed $61 $-1 #
face $-1 $158 $159 $33 $-1 $160 reversed single #
loop $-1 $-1 $161 $63 #
plane-surface $-1 -47.037985594776842 11.456264006974685 96.460694375771467 0.6018150307709319 0 0.79863550430605224 0.79863550430605224 0 -0.6018150307709319 forward_v I I I I #
coedge $-1 $162 $163 $164 $165 reversed $64 $-1 #
face $-1 $-1 $166 $34 $-1 $167 forward single #
loop $-1 $168 $169 $66 #
cone-surface $-1 68.039703362152892 9.4960271897467621 7.3790425669860547 -0.6018150307709319 0 -0.79863550430605224 0.39931775215302612 0 -0.30090751538546595 1 I I -0.70710678118654746 0.70710678118654746 0.5 forward I I I I #
loop $-1 $-1 $170 $43 #
coedge $-1 $106 $106 $171 $172 reversed $67 $-1 #
face $-1 $-1 $173 $35 $-1 $174 forward single #
loop $-1 $175 $176 $69 #
cone-surface $-1 68.039703362152892 13.416500824202622 7.3790425669860547 -0.6018150307709319 0 -0.79863550430605224 0.39931775215302612 0 -0.30090751538546595 1 I I -0.70710678118654746 0.70710678118654746 0.5 forward I I I I #
loop $-1 $-1 $177 $44 #
coedge $-1 $111 $111 $178 $179 reversed $70 $-1 #
face $-1 $180 $181 $27 $-1 $182 reversed single #
loop $-1 $-1 $183 $72 #
plane-surface $-1 0 -38.550865470402506 0 0 1 0 0 0 1 forward_v I I I I #
coedge $-1 $184 $185 $186 $187 forward $73 $-1 #
coedge $-1 $188 $75 $189 $190 forward $46 $-1 #
coedge $-1 $75 $188 $191 $192 forward $46 $-1 #
coedge $-1 $193 $194 $75 $119 reversed $195 $-1 #
edge $-1 $196 -38.550865470402506 $197 38.550865470402506 $118 $198 forward 7 unknown #
face $-1 $199 $200 $28 $-1 $201 forward single #
loop $-1 $-1 $202 $76 #
plane-surface $-1 78.754844813379322 0 0 -1 0 0 0 0 1 forward_v I I I I #
coedge $-1 $203 $204 $205 $206 forward $77 $-1 #
coedge $-1 $205 $79 $202 $207 reversed $49 $-1 #
coedge $-1 $79 $205 $208 $209 reversed $49 $-1 #
coedge $-1 $210 $211 $79 $127 reversed $200 $-1 #
edge $-1 $212 -78.754844813379322 $213 78.754844813379322 $126 $214 forward 7 unknown #
face $-1 $215 $216 $29 $-1 $217 reversed single #
loop $-1 $-1 $218 $80 #
plane-surface $-1 0 44.378609634551573 -6.9375168322353433 0 0 1 1 0 0 forward_v I I I I #
coedge $-1 $219 $220 $132 $221 forward $81 $-1 #
coedge $-1 $222 $83 $131 $221 reversed $52 $-1 #
coedge $-1 $83 $222 $223 $224 reversed $52 $-1 #
coedge $-1 $218 $225 $83 $135 reversed $129 $-1 #
edge $-1 $226 -78.754844813379322 $227 78.754844813379322 $134 $228 forward 7 unknown #
face $-1 $229 $230 $30 $-1 $231 forward single #
loop $-1 $-1 $232 $84 #
plane-surface $-1 47.753713114670845 -16.030149913839853 222.25352478392762 0 1 0 0.6018150307709319 0 0.79863550430605224 forward_v I I I I #
coedge $-1 $233 $234 $235 $236 reversed $85 $-1 #
coedge $-1 $141 $87 $237 $238 reversed $55 $-1 #
coedge $-1 $87 $140 $233 $239 reversed $55 $-1 #
coedge $-1 $235 $240 $87 $143 forward $230 $-1 #
edge $-1 $241 -54.877988256043899 $242 -35.720504346871174 $142 $243 forward 7 unknown #
loop $-1 $-1 $149 $88 #
plane-surface $-1 -47.037985594776842 -11.456264006974688 96.460694375771467 0.6018150307709319 0 0.79863550430605224 0.79863550430605224 0 -0.6018150307709319 forward_v I I I I #
loop $-1 $-1 $244 $57 #
coedge $-1 $147 $147 $148 $245 reversed $89 $-1 #
coedge $-1 $148 $148 $147 $245 forward $91 $-1 #
coedge $-1 $149 $149 $92 $150 forward $144 $-1 #
edge $-1 $246 0 $246 6.2831853071796004 $149 $247 forward 7 unknown #
loop $-1 $-1 $156 $93 #
plane-surface $-1 -47.037985594776842 -11.456264006974688 96.460694375771467 0.6018150307709319 0 0.79863550430605224 0.79863550430605224 0 -0.6018150307709319 forward_v I I I I #
loop $-1 $-1 $248 $60 #
coedge $-1 $154 $154 $155 $249 reversed $94 $-1 #
coedge $-1 $155 $155 $154 $249 forward $96 $-1 #
coedge $-1 $156 $156 $97 $157 forward $151 $-1 #
edge $-1 $250 0 $250 6.2831853071796004 $156 $251 forward 7 unknown #
face $-1 $252 $253 $33 $-1 $254 reversed single #
loop $-1 $-1 $255 $98 #
plane-surface $-1 47.753713114670845 6.8823781001095199 222.25352478392762 0 1 0 0.6018150307709319 0 0.79863550430605224 forward_v I I I I #
coedge $-1 $256 $257 $258 $259 reversed $99 $-1 #
coedge $-1 $163 $101 $260 $261 reversed $64 $-1 #
coedge $-1 $101 $162 $256 $262 reversed $64 $-1 #
coedge $-1 $258 $263 $101 $165 forward $264 $-1 #
edge $-1 $265 -54.877988256043899 $266 -35.720504346871174 $164 $267 forward 7 unknown #
loop $-1 $-1 $171 $102 #
plane-surface $-1 -47.037985594776842 11.456264006974685 96.460694375771467 0.6018150307709319 0 0.79863550430605224 0.79863550430605224 0 -0.6018150307709319 forward_v I I I I #
loop $-1 $-1 $268 $66 #
coedge $-1 $169 $169 $170 $269 reversed $103 $-1 #
coedge $-1 $170 $170 $169 $269 forward $105 $-1 #
coedge $-1 $171 $171 $106 $172 forward $166 $-1 #
edge $-1 $270 0 $270 6.2831853071796004 $171 $271 forward 7 unknown #
loop $-1 $-1 $178 $107 #
plane-surface $-1 -47.037985594776842 11.456264006974685 96.460694375771467 0.6018150307709319 0 0.79863550430605224 0.79863550430605224 0 -0.6018150307709319 forward_v I I I I #
loop $-1 $-1 $272 $69 #
coedge $-1 $176 $176 $177 $273 reversed $108 $-1 #
coedge $-1 $177 $177 $176 $273 forward $110 $-1 #
coedge $-1 $178 $178 $111 $179 forward $173 $-1 #
edge $-1 $274 0 $274 6.2831853071796004 $178 $275 forward 7 unknown #
face $-1 $276 $277 $27 $-1 $278 reversed single #
loop $-1 $-1 $279 $112 #
plane-surface $-1 -78.754844813379322 0 0 1 0 0 0 0 -1 forward_v I I I I #
coedge $-1 $280 $191 $281 $282 forward $113 $-1 #
coedge $-1 $283 $115 $280 $284 forward $73 $-1 #
coedge $-1 $115 $283 $285 $286 forward $73 $-1 #
coedge $-1 $194 $193 $115 $187 reversed $195 $-1 #
edge $-1 $287 -38.550865470402506 $288 38.550865470402506 $186 $289 forward 7 unknown #
coedge $-1 $117 $116 $290 $291 forward $46 $-1 #
coedge $-1 $292 $293 $116 $190 reversed $277 $-1 #
edge $-1 $197 -78.754844813379322 $294 78.754844813379322 $189 $295 forward 7 unknown #
coedge $-1 $183 $296 $117 $192 reversed $113 $-1 #
edge $-1 $297 -78.754844813379322 $196 78.754844813379322 $191 $298 forward 7 unknown #
coedge $-1 $186 $118 $296 $299 forward $195 $-1 #
coedge $-1 $118 $186 $292 $300 reversed $195 $-1 #
loop $-1 $-1 $193 $276 #
vertex $-1 $119 $301 #
vertex $-1 $119 $302 #
straight-curve $-1 78.754844813379322 0 16.105195542399148 0 1 0 I I #
face $-1 $303 $304 $28 $-1 $305 reversed single #
loop $-1 $-1 $211 $120 #
plane-surface $-1 0 -44.378609634551573 -6.9375168322353433 0 0 1 1 0 0 forward_v I I I I #
coedge $-1 $306 $307 $124 $207 forward $121 $-1 #
coedge $-1 $308 $123 $307 $309 forward $77 $-1 #
coedge $-1 $123 $308 $310 $311 forward $77 $-1 #
coedge $-1 $125 $124 $123 $206 reversed $49 $-1 #
edge $-1 $312 -78.754844813379322 $313 78.754844813379322 $123 $314 forward 7 unknown #
edge $-1 $313 -16.105195542399148 $213 -6.9375168322353433 $202 $315 forward 7 unknown #
coedge $-1 $310 $316 $125 $209 forward $317 $-1 #
edge $-1 $212 6.9375168322353433 $312 16.105195542399148 $208 $318 forward 7 unknown #
coedge $-1 $319 $126 $316 $320 forward $200 $-1 #
coedge $-1 $126 $319 $306 $321 forward $200 $-1 #
vertex $-1 $209 $322 #
vertex $-1 $321 $323 #
straight-curve $-1 0 -38.550865470402506 -6.9375168322353433 1 0 0 I I #
face $-1 $324 $325 $29 $-1 $326 reversed single #
loop $-1 $-1 $327 $128 #
plane-surface $-1 0 50.20635379870064 -11.521356187317245 0 -1 0 0 0 -1 forward_v I I I I #
coedge $-1 $328 $134 $329 $330 forward $129 $-1 #
coedge $-1 $331 $131 $225 $332 reversed $81 $-1 #
coedge $-1 $131 $331 $333 $334 reversed $81 $-1 #
edge $-1 $335 -16.105195542399148 $227 -6.9375168322353433 $131 $336 forward 7 unknown #
coedge $-1 $133 $132 $337 $338 reversed $52 $-1 #
coedge $-1 $339 $329 $133 $224 forward $340 $-1 #
edge $-1 $226 6.9375168322353433 $341 16.105195542399148 $223 $342 forward 7 unknown #
coedge $-1 $134 $328 $219 $332 forward $129 $-1 #
vertex $-1 $224 $343 #
vertex $-1 $332 $344 #
straight-curve $-1 0 38.550865470402506 -6.9375168322353433 -1 0 0 I I #
face $-1 $-1 $345 $30 $-1 $346 reversed single #
loop $-1 $-1 $142 $136 #
plane-surface $-1 0 0 16.105195542399148 0 0 1 1 0 0 forward_v I I I I #
coedge $-1 $347 $348 $349 $350 reversed $137 $-1 #
coedge $-1 $351 $139 $141 $239 forward $85 $-1 #
coedge $-1 $139 $351 $347 $352 forward $85 $-1 #
coedge $-1 $349 $142 $139 $236 forward $230 $-1 #
edge $-1 $242 1.1542460966221793 $353 10.302017910352509 $235 $354 forward 7 unknown #
coedge $-1 $355 $356 $140 $238 forward $345 $-1 #
edge $-1 $357 -109.45776672564003 $241 -95.021566849564664 $237 $358 forward 7 unknown #
edge $-1 $242 133.5219207310858 $357 157.50968962675864 $141 $359 forward 7 unknown #
coedge $-1 $142 $349 $355 $360 forward $230 $-1 #
vertex $-1 $238 $361 #
vertex $-1 $143 $362 #
straight-curve $-1 23.876856557335422 -6.8823781001095234 16.105195542399144 -1 0 0 I I #
coedge $-1 $244 $244 $-1 $363 reversed $146 $-1 #
edge $-1 $364 0 $364 6.2831853071796004 $147 $365 forward 7 unknown #
vertex $-1 $150 $366 #
ellipse-curve $-1 69.176102858792959 -13.416500824202615 8.8870956043614608 0.6018150307709319 0 0.79863550430605224 0.79863550430605224 0 -0.6018150307709319 1 I I #
coedge $-1 $248 $248 $-1 $367 reversed $153 $-1 #
edge $-1 $368 0 $368 6.2831853071796004 $154 $369 forward 7 unknown #
vertex $-1 $157 $370 #
ellipse-curve $-1 69.176102858792959 -9.4960271897467585 8.8870956043614608 0.6018150307709319 0 0.79863550430605224 0.79863550430605224 0 -0.6018150307709319 1 I I #
face $-1 $-1 $264 $33 $-1 $371 forward single #
loop $-1 $-1 $372 $158 #
plane-surface $-1 78.754844813379322 0 0 -1 0 0 0 0 1 forward_v I I I I #
coedge $-1 $373 $374 $375 $376 reversed $159 $-1 #
coedge $-1 $377 $161 $163 $262 forward $99 $-1 #
coedge $-1 $161 $377 $373 $378 forward $99 $-1 #
coedge $-1 $375 $164 $161 $259 forward $264 $-1 #
edge $-1 $266 -10.302017910352507 $379 -1.1542460966221775 $258 $380 forward 7 unknown #
coedge $-1 $381 $382 $162 $261 forward $253 $-1 #
edge $-1 $383 -109.45776672564003 $265 -95.021566849564664 $260 $384 forward 7 unknown #
edge $-1 $266 133.5219207310858 $383 157.50968962675864 $163 $385 forward 7 unknown #
coedge $-1 $164 $375 $381 $386 forward $264 $-1 #
loop $-1 $-1 $375 $252 #
vertex $-1 $261 $387 #
vertex $-1 $165 $388 #
straight-curve $-1 23.876856557335422 16.03014991383985 16.105195542399144 -1 0 0 I I #
coedge $-1 $268 $268 $-1 $389 reversed $168 $-1 #
edge $-1 $390 0 $390 6.2831853071796004 $169 $391 forward 7 unknown #
vertex $-1 $172 $392 #
ellipse-curve $-1 69.176102858792959 9.4960271897467621 8.8870956043614608 0.6018150307709319 0 0.79863550430605224 0.79863550430605224 0 -0.6018150307709319 1 I I #
coedge $-1 $272 $272 $-1 $393 reversed $175 $-1 #
edge $-1 $394 0 $394 6.2831853071796004 $176 $395 forward 7 unknown #
vertex $-1 $179 $396 #
ellipse-curve $-1 69.176102858792959 13.416500824202622 8.8870956043614608 0.6018150307709319 0 0.79863550430605224 0.79863550430605224 0 -0.6018150307709319 1 I I #
face $-1 $-1 $195 $27 $-1 $397 reversed single #
loop $-1 $-1 $292 $180 #
plane-surface $-1 0 38.550865470402506 0 0 -1 0 0 0 -1 forward_v I I I I #
coedge $-1 $398 $290 $293 $399 forward $181 $-1 #
coedge $-1 $296 $183 $184 $284 reversed $113 $-1 #
coedge $-1 $290 $398 $183 $282 reversed $181 $-1 #
edge $-1 $297 -16.105195542399148 $400 16.105195542399148 $281 $401 forward 7 unknown #
coedge $-1 $185 $184 $398 $402 forward $73 $-1 #
edge $-1 $288 -78.754844813379322 $400 78.754844813379322 $280 $403 forward 7 unknown #
coedge $-1 $293 $292 $185 $286 reversed $277 $-1 #
edge $-1 $404 -78.754844813379322 $287 78.754844813379322 $285 $405 forward 7 unknown #
vertex $-1 $187 $406 #
vertex $-1 $299 $407 #
straight-curve $-1 78.754844813379322 0 -16.105195542399148 0 -1 0 I I #
coedge $-1 $279 $281 $188 $291 reversed $181 $-1 #
edge $-1 $294 -38.550865470402506 $297 38.550865470402506 $290 $408 forward 7 unknown #
coedge $-1 $285 $189 $194 $300 forward $277 $-1 #
coedge $-1 $189 $285 $279 $399 reversed $277 $-1 #
vertex $-1 $190 $409 #
straight-curve $-1 0 38.550865470402506 16.105195542399148 -1 0 0 I I #
coedge $-1 $191 $280 $193 $299 reversed $113 $-1 #
vertex $-1 $291 $410 #
straight-curve $-1 0 -38.550865470402506 16.105195542399148 1 0 0 I I #
edge $-1 $196 -16.105195542399148 $288 16.105195542399148 $193 $411 forward 7 unknown #
edge $-1 $197 -16.105195542399148 $287 16.105195542399148 $194 $412 forward 7 unknown #
point $-1 78.754844813379322 -38.550865470402506 16.105195542399148 #
point $-1 78.754844813379322 38.550865470402506 16.105195542399148 #
face $-1 $-1 $317 $28 $-1 $413 reversed single #
loop $-1 $-1 $414 $199 #
plane-surface $-1 0 -50.20635379870064 -11.521356187317245 0 1 0 0 0 1 forward_v I I I I #
coedge $-1 $415 $202 $211 $321 reversed $121 $-1 #
coedge $-1 $202 $415 $203 $309 reversed $121 $-1 #
coedge $-1 $204 $203 $416 $417 forward $77 $-1 #
edge $-1 $313 38.550865470402506 $418 50.20635379870064 $307 $419 forward 7 unknown #
coedge $-1 $420 $208 $204 $311 reversed $317 $-1 #
edge $-1 $421 -50.20635379870064 $312 -38.550865470402506 $310 $422 forward 7 unknown #
vertex $-1 $209 $423 #
vertex $-1 $309 $424 #
straight-curve $-1 0 -38.550865470402506 -16.105195542399148 1 0 0 I I #
straight-curve $-1 78.754844813379322 -38.550865470402506 0 0 0 1 I I #
coedge $-1 $208 $420 $210 $320 reversed $317 $-1 #
loop $-1 $-1 $208 $303 #
straight-curve $-1 -78.754844813379322 -38.550865470402506 0 0 0 -1 I I #
coedge $-1 $211 $210 $425 $426 forward $200 $-1 #
edge $-1 $212 -5.8277441641490668 $427 5.8277441641490668 $316 $428 forward 7 unknown #
edge $-1 $429 -5.8277441641490668 $213 5.8277441641490668 $306 $430 forward 7 unknown #
point $-1 -78.754844813379322 -38.550865470402506 -6.9375168322353433 #
point $-1 78.754844813379322 -38.550865470402506 -6.9375168322353433 #
face $-1 $-1 $340 $29 $-1 $431 reversed single #
loop $-1 $-1 $337 $215 #
plane-surface $-1 0 0 -16.105195542399148 0 0 1 1 0 0 forward_v I I I I #
coedge $-1 $432 $433 $434 $435 forward $216 $-1 #
coedge $-1 $225 $218 $433 $436 forward $129 $-1 #
coedge $-1 $223 $434 $218 $330 reversed $340 $-1 #
edge $-1 $226 -5.8277441641490668 $437 5.8277441641490668 $329 $438 forward 7 unknown #
coedge $-1 $220 $219 $439 $440 forward $81 $-1 #
edge $-1 $441 -5.8277441641490668 $227 5.8277441641490668 $219 $442 forward 7 unknown #
coedge $-1 $443 $337 $220 $334 forward $325 $-1 #
edge $-1 $335 -5.8277441641490668 $444 5.8277441641490668 $220 $445 forward 7 unknown #
vertex $-1 $334 $446 #
straight-curve $-1 -78.754844813379322 38.550865470402506 0 0 0 1 I I #
coedge $-1 $333 $447 $222 $338 forward $325 $-1 #
edge $-1 $341 -78.754844813379322 $335 78.754844813379322 $337 $448 forward 7 unknown #
coedge $-1 $434 $223 $447 $449 reversed $340 $-1 #
loop $-1 $-1 $223 $324 #
vertex $-1 $224 $450 #
straight-curve $-1 78.754844813379322 38.550865470402506 0 0 0 -1 I I #
point $-1 78.754844813379322 38.550865470402506 -6.9375168322353433 #
point $-1 -78.754844813379322 38.550865470402506 -6.9375168322353433 #
loop $-1 $-1 $237 $229 #
plane-surface $-1 78.754844813379322 0 0 -1 0 0 0 0 1 forward_v I I I I #
coedge $-1 $348 $232 $234 $352 reversed $137 $-1 #
coedge $-1 $232 $347 $451 $452 reversed $137 $-1 #
coedge $-1 $240 $235 $232 $350 forward $230 $-1 #
edge $-1 $353 35.720504346871174 $453 54.877988256043899 $349 $454 forward 7 unknown #
coedge $-1 $234 $233 $356 $455 reversed $85 $-1 #
edge $-1 $456 -157.50968962675864 $353 -133.5219207310858 $347 $457 forward 7 unknown #
vertex $-1 $236 $458 #
straight-curve $-1 59.597360904206589 -5.7281320034873442 16.105195542399144 0 -1 0 I I #
coedge $-1 $451 $237 $240 $360 reversed $345 $-1 #
coedge $-1 $237 $451 $351 $455 forward $345 $-1 #
vertex $-1 $238 $459 #
straight-curve $-1 78.754844813379322 -6.8823781001095234 111.12676239196381 0 0 1 I I #
straight-curve $-1 -47.037985594776842 -6.8823781001095234 96.460694375771467 0.79863550430605224 0 -0.6018150307709319 I I #
edge $-1 $453 -16.030149913839853 $241 -6.8823781001095234 $355 $460 forward 7 unknown #
point $-1 78.754844813379322 -6.8823781001095234 16.105195542399148 #
point $-1 59.597360904206596 -6.8823781001095234 16.10519554239913 #
edge $-1 $461 1 $461 0 $244 $-1 forward 7 unknown #
vertex $-1 $245 $462 #
ellipse-curve $-1 68.340610877538353 -13.416500824202615 7.7783603191390807 0.6018150307709319 0 0.79863550430605224 0.79863550430605224 0 -0.6018150307709319 1 I I #
point $-1 69.974738363099021 -13.416500824202615 8.2852805735905459 #
edge $-1 $463 1 $463 0 $248 $-1 forward 7 unknown #
vertex $-1 $249 $464 #
ellipse-curve $-1 68.340610877538353 -9.4960271897467585 7.7783603191390807 0.6018150307709319 0 0.79863550430605224 0.79863550430605224 0 -0.6018150307709319 1 I I #
point $-1 69.974738363099021 -9.4960271897467585 8.2852805735905459 #
plane-surface $-1 0 0 16.105195542399148 0 0 1 1 0 0 forward_v I I I I #
coedge $-1 $382 $381 $374 $465 forward $253 $-1 #
coedge $-1 $374 $255 $257 $378 reversed $159 $-1 #
coedge $-1 $255 $373 $372 $465 reversed $159 $-1 #
coedge $-1 $263 $258 $255 $376 forward $264 $-1 #
edge $-1 $379 35.720504346871174 $466 54.877988256043899 $375 $467 forward 7 unknown #
coedge $-1 $257 $256 $382 $468 reversed $99 $-1 #
edge $-1 $469 -157.50968962675864 $379 -133.5219207310858 $373 $470 forward 7 unknown #
vertex $-1 $259 $471 #
straight-curve $-1 59.597360904206589 5.7281320034873424 16.105195542399144 0 -1 0 I I #
coedge $-1 $372 $260 $263 $386 reversed $253 $-1 #
coedge $-1 $260 $372 $377 $468 forward $253 $-1 #
vertex $-1 $261 $472 #
straight-curve $-1 78.754844813379322 16.03014991383985 111.12676239196381 0 0 1 I I #
straight-curve $-1 -47.037985594776842 16.03014991383985 96.460694375771467 0.79863550430605224 0 -0.6018150307709319 I I #
edge $-1 $466 6.8823781001095199 $265 16.03014991383985 $381 $473 forward 7 unknown #
point $-1 78.754844813379322 16.03014991383985 16.105195542399148 #
point $-1 59.597360904206596 16.03014991383985 16.10519554239913 #
edge $-1 $474 1 $474 0 $268 $-1 forward 7 unknown #
vertex $-1 $269 $475 #
ellipse-curve $-1 68.340610877538353 9.4960271897467621 7.7783603191390807 0.6018150307709319 0 0.79863550430605224 0.79863550430605224 0 -0.6018150307709319 1 I I #
point $-1 69.974738363099021 9.4960271897467621 8.2852805735905459 #
edge $-1 $476 1 $476 0 $272 $-1 forward 7 unknown #
vertex $-1 $273 $477 #
ellipse-curve $-1 68.340610877538353 13.416500824202622 7.7783603191390807 0.6018150307709319 0 0.79863550430605224 0.79863550430605224 0 -0.6018150307709319 1 I I #
point $-1 69.974738363099021 13.416500824202622 8.2852805735905459 #
plane-surface $-1 78.754844813379322 0 0 -1 0 0 0 0 1 forward_v I I I I #
coedge $-1 $281 $279 $283 $402 reversed $181 $-1 #
edge $-1 $294 -16.105195542399148 $404 16.105195542399148 $293 $478 forward 7 unknown #
vertex $-1 $402 $479 #
straight-curve $-1 -78.754844813379322 -38.550865470402506 0 0 0 -1 I I #
edge $-1 $400 -38.550865470402506 $404 38.550865470402506 $398 $480 forward 7 unknown #
straight-curve $-1 0 -38.550865470402506 -16.105195542399148 -1 0 0 I I #
vertex $-1 $286 $481 #
straight-curve $-1 0 38.550865470402506 -16.105195542399148 1 0 0 I I #
point $-1 78.754844813379322 38.550865470402506 -16.105195542399148 #
point $-1 78.754844813379322 -38.550865470402506 -16.105195542399148 #
straight-curve $-1 -78.754844813379322 0 16.105195542399148 0 -1 0 I I #
point $-1 -78.754844813379322 38.550865470402506 16.105195542399148 #
point $-1 -78.754844813379322 -38.550865470402506 16.105195542399148 #
straight-curve $-1 78.754844813379322 -38.550865470402506 0 0 0 -1 I I #
straight-curve $-1 78.754844813379322 38.550865470402506 0 0 0 -1 I I #
plane-surface $-1 -78.754844813379322 0 0 1 0 0 0 0 -1 forward_v I I I I #
coedge $-1 $416 $425 $420 $482 forward $304 $-1 #
coedge $-1 $307 $306 $483 $484 forward $121 $-1 #
coedge $-1 $483 $414 $308 $417 reversed $304 $-1 #
edge $-1 $418 -78.754844813379322 $421 78.754844813379322 $416 $485 forward 7 unknown #
vertex $-1 $484 $486 #
straight-curve $-1 78.754844813379322 0 -16.105195542399148 0 -1 0 I I #
coedge $-1 $316 $310 $414 $482 reversed $317 $-1 #
vertex $-1 $311 $487 #
straight-curve $-1 -78.754844813379322 0 -16.105195542399148 0 1 0 I I #
point $-1 -78.754844813379322 -38.550865470402506 -16.105195542399148 #
point $-1 78.754844813379322 -38.550865470402506 -16.105195542399148 #
coedge $-1 $414 $483 $319 $426 reversed $304 $-1 #
edge $-1 $427 -78.754844813379322 $429 78.754844813379322 $425 $488 forward 7 unknown #
vertex $-1 $320 $489 #
straight-curve $-1 -78.754844813379322 -44.378609634551573 -6.9375168322353433 0 -1 0 I I #
vertex $-1 $321 $490 #
straight-curve $-1 78.754844813379322 -44.378609634551573 -6.9375168322353433 0 1 0 I I #
plane-surface $-1 78.754844813379322 0 0 -1 0 0 0 0 1 forward_v I I I I #
coedge $-1 $439 $327 $443 $491 reversed $216 $-1 #
coedge $-1 $327 $439 $328 $436 reversed $216 $-1 #
coedge $-1 $329 $339 $327 $435 reversed $340 $-1 #
edge $-1 $437 -4.5838393550819019 $492 4.5838393550819028 $434 $493 forward 7 unknown #
edge $-1 $437 -78.754844813379322 $441 78.754844813379322 $433 $494 forward 7 unknown #
vertex $-1 $330 $495 #
straight-curve $-1 78.754844813379322 44.378609634551573 -6.9375168322353433 0 1 0 I I #
coedge $-1 $433 $432 $331 $440 reversed $216 $-1 #
edge $-1 $441 -4.5838393550819019 $444 4.5838393550819028 $439 $496 forward 7 unknown #
vertex $-1 $436 $497 #
straight-curve $-1 -78.754844813379322 44.378609634551573 -6.9375168322353433 0 -1 0 I I #
coedge $-1 $447 $333 $432 $491 forward $325 $-1 #
vertex $-1 $491 $498 #
straight-curve $-1 -78.754844813379322 44.378609634551573 -16.105195542399148 0 1 0 I I #
point $-1 -78.754844813379322 38.550865470402506 -16.105195542399148 #
coedge $-1 $337 $443 $339 $449 forward $325 $-1 #
straight-curve $-1 0 38.550865470402506 -16.105195542399148 -1 0 0 I I #
edge $-1 $492 -50.20635379870064 $341 -38.550865470402506 $339 $499 forward 7 unknown #
point $-1 78.754844813379322 38.550865470402506 -16.105195542399148 #
coedge $-1 $356 $355 $348 $452 forward $345 $-1 #
edge $-1 $453 95.021566849564664 $456 109.45776672564003 $451 $500 forward 7 unknown #
vertex $-1 $360 $501 #
straight-curve $-1 23.876856557335422 -16.030149913839853 16.105195542399144 1 0 0 I I #
edge $-1 $456 -10.302017910352509 $357 -1.1542460966221793 $356 $502 forward 7 unknown #
vertex $-1 $455 $503 #
straight-curve $-1 -47.037985594776842 -16.030149913839853 96.460694375771467 -0.79863550430605224 0 0.6018150307709319 I I #
point $-1 59.597360904206596 -16.030149913839853 16.10519554239913 #
point $-1 78.754844813379307 -6.8823781001095234 1.6689956663237808 #
straight-curve $-1 78.754844813379322 0 16.105195542399148 0 1 0 I I #
vertex $-1 $363 $504 #
point $-1 69.139246381844416 -13.416500824202615 7.1765452883681489 #
vertex $-1 $367 $505 #
point $-1 69.139246381844416 -9.4960271897467585 7.1765452883681489 #
edge $-1 $466 95.021566849564664 $469 109.45776672564003 $372 $506 forward 7 unknown #
vertex $-1 $386 $507 #
straight-curve $-1 23.876856557335422 6.8823781001095199 16.105195542399144 1 0 0 I I #
edge $-1 $469 1.1542460966221775 $383 10.302017910352507 $382 $508 forward 7 unknown #
vertex $-1 $468 $509 #
straight-curve $-1 -47.037985594776842 6.8823781001095199 96.460694375771467 -0.79863550430605224 0 0.6018150307709319 I I #
point $-1 59.597360904206596 6.8823781001095199 16.10519554239913 #
point $-1 78.754844813379307 16.03014991383985 1.6689956663237808 #
straight-curve $-1 78.754844813379322 0 16.105195542399148 0 1 0 I I #
vertex $-1 $389 $510 #
point $-1 69.139246381844416 9.4960271897467621 7.1765452883681489 #
vertex $-1 $393 $511 #
point $-1 69.139246381844416 13.416500824202622 7.1765452883681489 #
straight-curve $-1 -78.754844813379322 38.550865470402506 0 0 0 -1 I I #
point $-1 -78.754844813379322 -38.550865470402506 -16.105195542399148 #
straight-curve $-1 -78.754844813379322 0 -16.105195542399148 0 1 0 I I #
point $-1 -78.754844813379322 38.550865470402506 -16.105195542399148 #
edge $-1 $427 -4.5838393550819019 $421 4.5838393550819028 $420 $512 forward 7 unknown #
coedge $-1 $425 $416 $415 $484 reversed $304 $-1 #
edge $-1 $429 -4.5838393550819019 $418 4.5838393550819028 $415 $513 forward 7 unknown #
straight-curve $-1 0 -50.20635379870064 -16.105195542399148 -1 0 0 I I #
point $-1 78.754844813379322 -50.20635379870064 -16.105195542399148 #
point $-1 -78.754844813379322 -50.20635379870064 -16.105195542399148 #
straight-curve $-1 0 -50.20635379870064 -6.9375168322353433 1 0 0 I I #
point $-1 -78.754844813379322 -50.20635379870064 -6.9375168322353433 #
point $-1 78.754844813379322 -50.20635379870064 -6.9375168322353433 #
edge $-1 $444 -78.754844813379322 $492 78.754844813379322 $432 $514 forward 7 unknown #
vertex $-1 $449 $515 #
straight-curve $-1 78.754844813379322 50.20635379870064 -11.521356187317245 0 0 -1 I I #
straight-curve $-1 0 50.20635379870064 -6.9375168322353433 -1 0 0 I I #
point $-1 78.754844813379322 50.20635379870064 -6.9375168322353433 #
straight-curve $-1 -78.754844813379322 50.20635379870064 -11.521356187317245 0 0 -1 I I #
point $-1 -78.754844813379322 50.20635379870064 -6.9375168322353433 #
point $-1 -78.754844813379322 50.20635379870064 -16.105195542399148 #
straight-curve $-1 78.754844813379322 0 -16.105195542399148 0 -1 0 I I #
straight-curve $-1 78.754844813379322 -16.030149913839853 111.12676239196381 0 0 -1 I I #
point $-1 78.754844813379322 -16.030149913839853 16.105195542399148 #
straight-curve $-1 78.754844813379322 -5.7281320034873442 1.6689956663237737 0 1 0 I I #
point $-1 78.754844813379307 -16.030149913839853 1.6689956663237808 #
point $-1 67.738795846767431 -13.416500824202615 6.9797248148330286 #
point $-1 67.738795846767431 -9.4960271897467585 6.9797248148330286 #
straight-curve $-1 78.754844813379322 6.8823781001095199 111.12676239196381 0 0 -1 I I #
point $-1 78.754844813379322 6.8823781001095199 16.105195542399148 #
straight-curve $-1 78.754844813379322 5.7281320034873424 1.6689956663237737 0 1 0 I I #
point $-1 78.754844813379307 6.8823781001095199 1.6689956663237808 #
point $-1 67.738795846767431 9.4960271897467621 6.9797248148330286 #
point $-1 67.738795846767431 13.416500824202622 6.9797248148330286 #
straight-curve $-1 -78.754844813379322 -50.20635379870064 -11.521356187317245 0 0 -1 I I #
straight-curve $-1 78.754844813379322 -50.20635379870064 -11.521356187317245 0 0 -1 I I #
straight-curve $-1 0 50.20635379870064 -16.105195542399148 1 0 0 I I #
point $-1 78.754844813379322 50.20635379870064 -16.105195542399148 #
End-of-ACIS-data 