500 0 9 0           
7 Unknown 11 ACIS 5.0 NT 24 Thu Mar 25 22:53:24 1999 
-1 9.9999999999999995e-007 1e-010 
body $-1 $9 $-1 $10 #
body $-1 $11 $-1 $12 #
body $-1 $13 $-1 $14 #
body $-1 $15 $-1 $16 #
body $-1 $17 $-1 $18 #
body $-1 $19 $-1 $20 #
body $-1 $21 $-1 $22 #
body $-1 $23 $-1 $24 #
body $-1 $25 $-1 $26 #
lump $-1 $-1 $27 $0 #
transform $-1 1 0 0 0 1 0 0 0 1 46.899624622333448 21.021028076368371 7.7849077914951792 1 rotate no_reflect no_shear #
lump $-1 $-1 $28 $1 #
transform $-1 1 0 0 0 1 0 0 0 1 46.899624622333448 21.021028076368371 7.7849077914951792 1 rotate no_reflect no_shear #
lump $-1 $-1 $29 $2 #
transform $-1 1 0 0 0 1 0 0 0 1 46.899624622333448 21.021028076368371 7.7849077914951792 1 rotate no_reflect no_shear #
lump $-1 $-1 $30 $3 #
transform $-1 1 0 0 0 1 0 0 0 1 46.899624622333448 21.021028076368371 7.7849077914951792 1 rotate no_reflect no_shear #
lump $-1 $-1 $31 $4 #
transform $-1 1 0 0 0 1 0 0 0 1 46.899624622333448 21.021028076368371 7.7849077914951792 1 rotate no_reflect no_shear #
lump $-1 $-1 $32 $5 #
transform $-1 1 0 0 0 1 0 0 0 1 46.899624622333448 21.021028076368371 7.7849077914951792 1 rotate no_reflect no_shear #
lump $-1 $-1 $33 $6 #
transform $-1 1 0 0 0 1 0 0 0 1 46.899624622333448 21.021028076368371 7.7849077914951792 1 rotate no_reflect no_shear #
lump $-1 $-1 $34 $7 #
transform $-1 1 0 0 0 1 0 0 0 1 46.899624622333448 21.021028076368371 7.7849077914951792 1 rotate no_reflect no_shear #
lump $-1 $-1 $35 $8 #
transform $-1 1 0 0 0 1 0 0 0 1 46.899624622333448 21.021028076368371 7.7849077914951792 1 rotate no_reflect no_shear #
shell $-1 $-1 $-1 $36 $-1 $9 #
shell $-1 $-1 $-1 $37 $-1 $11 #
shell $-1 $-1 $-1 $38 $-1 $13 #
shell $-1 $-1 $-1 $39 $-1 $15 #
shell $-1 $-1 $-1 $40 $-1 $17 #
shell $-1 $-1 $-1 $41 $-1 $19 #
shell $-1 $-1 $-1 $42 $-1 $21 #
shell $-1 $-1 $-1 $43 $-1 $23 #
shell $-1 $-1 $-1 $44 $-1 $25 #
face $-1 $45 $46 $27 $-1 $47 reversed single #
face $-1 $48 $49 $28 $-1 $50 forward single #
face $-1 $51 $52 $29 $-1 $53 reversed single #
face $-1 $54 $55 $30 $-1 $56 forward single #
face $-1 $57 $58 $31 $-1 $59 forward single #
face $-1 $60 $61 $32 $-1 $62 forward single #
face $-1 $63 $64 $33 $-1 $65 reversed single #
face $-1 $66 $67 $34 $-1 $68 forward single #
face $-1 $69 $70 $35 $-1 $71 forward single #
face $-1 $72 $73 $27 $-1 $74 forward single #
loop $-1 $-1 $75 $36 #
plane-surface $-1 0 -21.021028076368371 0 0 1 0 0 0 1 forward_v I I I I #
face $-1 $76 $77 $28 $-1 $78 forward single #
loop $-1 $-1 $79 $37 #
plane-surface $-1 0 -21.021028076368371 0 0 1 0 0 0 1 forward_v I I I I #
face $-1 $80 $81 $29 $-1 $82 reversed single #
loop $-1 $-1 $83 $38 #
plane-surface $-1 -119.7953331367377 3.3964561143641525 63.143103108665535 0 1 0 -0.77714596973225614 0 0.62932038083071107 forward_v I I I I #
face $-1 $84 $85 $30 $-1 $86 forward single #
loop $-1 $87 $88 $39 #
cone-surface $-1 -44.928478520166294 5.2389448590797087 5.5567340747371672 0.77714596973225614 0 -0.62932038083071107 0.31466019041535553 0 0.38857298486612807 1 I I 0 1 0.5 forward I I I I #
face $-1 $89 $90 $31 $-1 $91 forward single #
loop $-1 $92 $93 $40 #
cone-surface $-1 -44.928478520166294 8.0026779761530449 5.5567340747371672 0.77714596973225614 0 -0.62932038083071107 0.31466019041535553 0 0.38857298486612807 1 I I 0 1 0.5 forward I I I I #
face $-1 $94 $95 $32 $-1 $96 forward single #
loop $-1 $97 $98 $41 #
cone-surface $-1 -44.928478520166294 10.766411093226381 5.5567340747371672 0.77714596973225614 0 -0.62932038083071107 0.31466019041535553 0 0.38857298486612807 1 I I 0 1 0.5 forward I I I I #
face $-1 $99 $100 $33 $-1 $101 reversed single #
loop $-1 $-1 $102 $42 #
plane-surface $-1 67.650997762944996 13.032922181996035 131.79309756501473 0 1 0 0.80901700255871778 0 0.5877852410284794 forward_v I I I I #
face $-1 $103 $104 $34 $-1 $105 forward single #
loop $-1 $106 $107 $43 #
cone-surface $-1 43.948289652076909 15.315238151816704 3.9856091618679872 -0.80901700255871778 0 -0.5877852410284794 0.2938926205142397 0 -0.40450850127935889 1 I I 0 1 0.5 forward I I I I #
face $-1 $108 $109 $35 $-1 $110 forward single #
loop $-1 $111 $112 $44 #
cone-surface $-1 43.948289652076909 18.738712106547705 3.9856091618679872 -0.80901700255871778 0 -0.5877852410284794 0.2938926205142397 0 -0.40450850127935889 1 I I 0 1 0.5 forward I I I I #
face $-1 $113 $114 $27 $-1 $115 reversed single #
loop $-1 $-1 $116 $45 #
plane-surface $-1 0 0 7.7849077914951792 0 0 1 1 0 0 forward_v I I I I #
coedge $-1 $117 $118 $119 $120 reversed $46 $-1 #
face $-1 $121 $122 $28 $-1 $123 reversed single #
loop $-1 $-1 $124 $48 #
plane-surface $-1 0 0 7.7849077914951792 0 0 1 1 0 0 forward_v I I I I #
coedge $-1 $125 $126 $127 $128 forward $49 $-1 #
face $-1 $129 $130 $29 $-1 $131 reversed single #
loop $-1 $-1 $132 $51 #
plane-surface $-1 -46.899624622333448 8.0026779761530449 4.1133238523769791 -0.77714596973225614 0 0.62932038083071107 0.62932038083071107 0 0.77714596973225614 forward_v I I I I #
coedge $-1 $133 $134 $135 $136 reversed $52 $-1 #
face $-1 $-1 $137 $30 $-1 $138 forward single #
loop $-1 $139 $140 $54 #
cone-surface $-1 -44.249640910813085 5.2389448590797087 5.0070222323305806 0.77714596973225614 0 -0.62932038083071107 0.15733009520767777 0 0.19428649243306403 1 I I -0.70710678118654746 0.70710678118654746 0.25 forward I I I I #
loop $-1 $-1 $141 $39 #
coedge $-1 $88 $88 $142 $143 reversed $55 $-1 #
face $-1 $-1 $144 $31 $-1 $145 forward single #
loop $-1 $146 $147 $57 #
cone-surface $-1 -44.249640910813085 8.0026779761530449 5.0070222323305806 0.77714596973225614 0 -0.62932038083071107 0.15733009520767777 0 0.19428649243306403 1 I I -0.70710678118654746 0.70710678118654746 0.25 forward I I I I #
loop $-1 $-1 $148 $40 #
coedge $-1 $93 $93 $149 $150 reversed $58 $-1 #
face $-1 $-1 $151 $32 $-1 $152 forward single #
loop $-1 $153 $154 $60 #
cone-surface $-1 -44.249640910813085 10.766411093226381 5.0070222323305806 0.77714596973225614 0 -0.62932038083071107 0.15733009520767777 0 0.19428649243306403 1 I I -0.70710678118654746 0.70710678118654746 0.25 forward I I I I #
loop $-1 $-1 $155 $41 #
coedge $-1 $98 $98 $156 $157 reversed $61 $-1 #
face $-1 $158 $159 $33 $-1 $160 forward single #
loop $-1 $-1 $161 $63 #
plane-surface $-1 -8.2341897032334828 17.026975129182201 76.659283239447788 0.80901700255871778 0 0.5877852410284794 0.5877852410284794 0 -0.80901700255871778 forward_v I I I I #
coedge $-1 $162 $163 $164 $165 reversed $64 $-1 #
face $-1 $-1 $166 $34 $-1 $167 forward single #
loop $-1 $168 $169 $66 #
cone-surface $-1 43.341526900157874 15.315238151816704 3.5447702310966278 -0.80901700255871778 0 -0.5877852410284794 0.14694631025711985 0 -0.20225425063967944 1 I I -0.70710678118654746 0.70710678118654746 0.25 forward I I I I #
loop $-1 $-1 $170 $43 #
coedge $-1 $107 $107 $171 $172 reversed $67 $-1 #
face $-1 $-1 $173 $35 $-1 $174 forward single #
loop $-1 $175 $176 $69 #
cone-surface $-1 43.341526900157874 18.738712106547705 3.5447702310966278 -0.80901700255871778 0 -0.5877852410284794 0.14694631025711985 0 -0.20225425063967944 1 I I -0.70710678118654746 0.70710678118654746 0.25 forward I I I I #
loop $-1 $-1 $177 $44 #
coedge $-1 $112 $112 $178 $179 reversed $70 $-1 #
face $-1 $180 $181 $27 $-1 $182 reversed single #
loop $-1 $-1 $183 $72 #
plane-surface $-1 0 0 -7.7849077914951792 0 0 1 1 0 0 forward_v I I I I #
coedge $-1 $184 $185 $186 $187 forward $73 $-1 #
coedge $-1 $188 $75 $189 $190 reversed $46 $-1 #
coedge $-1 $75 $188 $191 $192 forward $46 $-1 #
coedge $-1 $193 $183 $75 $120 forward $114 $-1 #
edge $-1 $194 -46.899624622333448 $195 46.899624622333448 $75 $196 forward 7 unknown #
face $-1 $197 $198 $28 $-1 $199 reversed single #
loop $-1 $-1 $200 $76 #
plane-surface $-1 -46.899624622333448 0 0 1 0 0 0 0 -1 forward_v I I I I #
coedge $-1 $201 $202 $126 $203 forward $77 $-1 #
coedge $-1 $204 $79 $205 $206 reversed $49 $-1 #
coedge $-1 $79 $204 $124 $203 reversed $49 $-1 #
coedge $-1 $207 $208 $79 $128 reversed $209 $-1 #
edge $-1 $210 -7.7849077914951792 $211 7.7849077914951792 $127 $212 forward 7 unknown #
face $-1 $213 $214 $29 $-1 $215 reversed single #
loop $-1 $-1 $216 $80 #
plane-surface $-1 -119.7953331367377 12.608899837941937 63.143103108665535 0 -1 0 0.77714596973225614 0 -0.62932038083071107 forward_v I I I I #
coedge $-1 $217 $218 $219 $220 reversed $81 $-1 #
coedge $-1 $134 $83 $221 $222 reversed $52 $-1 #
coedge $-1 $83 $133 $217 $223 reversed $52 $-1 #
coedge $-1 $219 $224 $83 $136 forward $225 $-1 #
edge $-1 $226 12.9980419460354 $227 15.971231916529412 $135 $228 forward 7 unknown #
loop $-1 $-1 $142 $84 #
plane-surface $-1 -46.899624622333448 8.0026779761530449 4.1133238523769791 -0.77714596973225614 0 0.62932038083071107 0.62932038083071107 0 0.77714596973225614 forward_v I I I I #
loop $-1 $-1 $229 $54 #
coedge $-1 $140 $140 $141 $230 reversed $85 $-1 #
coedge $-1 $141 $141 $140 $230 forward $87 $-1 #
coedge $-1 $142 $142 $88 $143 forward $137 $-1 #
edge $-1 $231 0 $231 6.2831853071796004 $142 $232 forward 7 unknown #
loop $-1 $-1 $149 $89 #
plane-surface $-1 -46.899624622333448 8.0026779761530449 4.1133238523769791 -0.77714596973225614 0 0.62932038083071107 0.62932038083071107 0 0.77714596973225614 forward_v I I I I #
loop $-1 $-1 $233 $57 #
coedge $-1 $147 $147 $148 $234 reversed $90 $-1 #
coedge $-1 $148 $148 $147 $234 forward $92 $-1 #
coedge $-1 $149 $149 $93 $150 forward $144 $-1 #
edge $-1 $235 0 $235 6.2831853071796004 $149 $236 forward 7 unknown #
loop $-1 $-1 $156 $94 #
plane-surface $-1 -46.899624622333448 8.0026779761530449 4.1133238523769791 -0.77714596973225614 0 0.62932038083071107 0.62932038083071107 0 0.77714596973225614 forward_v I I I I #
loop $-1 $-1 $237 $60 #
coedge $-1 $154 $154 $155 $238 reversed $95 $-1 #
coedge $-1 $155 $155 $154 $238 forward $97 $-1 #
coedge $-1 $156 $156 $98 $157 forward $151 $-1 #
edge $-1 $239 0 $239 6.2831853071796004 $156 $240 forward 7 unknown #
face $-1 $241 $242 $33 $-1 $243 reversed single #
loop $-1 $-1 $244 $99 #
plane-surface $-1 0 0 7.7849077914951792 0 0 1 1 0 0 forward_v I I I I #
coedge $-1 $245 $246 $247 $248 reversed $100 $-1 #
coedge $-1 $163 $102 $249 $250 reversed $64 $-1 #
coedge $-1 $102 $162 $245 $251 reversed $64 $-1 #
coedge $-1 $247 $252 $102 $165 forward $253 $-1 #
edge $-1 $254 58.111640991012187 $255 65.122453009238043 $164 $256 forward 7 unknown #
loop $-1 $-1 $171 $103 #
plane-surface $-1 -8.2341897032334828 17.026975129182201 76.659283239447788 0.80901700255871778 0 0.5877852410284794 0.5877852410284794 0 -0.80901700255871778 forward_v I I I I #
loop $-1 $-1 $257 $66 #
coedge $-1 $169 $169 $170 $258 reversed $104 $-1 #
coedge $-1 $170 $170 $169 $258 forward $106 $-1 #
coedge $-1 $171 $171 $107 $172 forward $166 $-1 #
edge $-1 $259 0 $259 6.2831853071796004 $171 $260 forward 7 unknown #
loop $-1 $-1 $178 $108 #
plane-surface $-1 -8.2341897032334828 17.026975129182201 76.659283239447788 0.80901700255871778 0 0.5877852410284794 0.5877852410284794 0 -0.80901700255871778 forward_v I I I I #
loop $-1 $-1 $261 $69 #
coedge $-1 $176 $176 $177 $262 reversed $109 $-1 #
coedge $-1 $177 $177 $176 $262 forward $111 $-1 #
coedge $-1 $178 $178 $112 $179 forward $173 $-1 #
edge $-1 $263 0 $263 6.2831853071796004 $178 $264 forward 7 unknown #
face $-1 $265 $266 $27 $-1 $267 reversed single #
loop $-1 $-1 $268 $113 #
plane-surface $-1 -46.899624622333448 0 0 1 0 0 0 0 -1 forward_v I I I I #
coedge $-1 $119 $269 $270 $271 forward $114 $-1 #
coedge $-1 $272 $116 $273 $274 forward $73 $-1 #
coedge $-1 $116 $272 $188 $275 forward $73 $-1 #
coedge $-1 $189 $276 $116 $187 reversed $277 $-1 #
edge $-1 $278 -21.021028076368371 $279 21.021028076368371 $186 $280 forward 7 unknown #
coedge $-1 $118 $117 $185 $275 reversed $46 $-1 #
coedge $-1 $270 $186 $117 $190 forward $277 $-1 #
edge $-1 $278 -7.7849077914951792 $194 7.7849077914951792 $189 $281 forward 7 unknown #
coedge $-1 $282 $283 $118 $192 reversed $181 $-1 #
edge $-1 $284 -7.7849077914951792 $195 7.7849077914951792 $191 $285 forward 7 unknown #
coedge $-1 $269 $119 $283 $286 forward $114 $-1 #
vertex $-1 $190 $287 #
vertex $-1 $286 $288 #
straight-curve $-1 0 -21.021028076368371 -7.7849077914951792 -1 0 0 I I #
face $-1 $289 $209 $28 $-1 $290 reversed single #
loop $-1 $-1 $291 $121 #
plane-surface $-1 -45.095152038111976 -26.471736979487613 0 0 1 0 0 0 1 forward_v I I I I #
coedge $-1 $292 $293 $204 $294 forward $122 $-1 #
coedge $-1 $295 $124 $293 $296 forward $77 $-1 #
coedge $-1 $124 $295 $207 $297 forward $77 $-1 #
edge $-1 $210 43.290679453890505 $298 46.899624622333448 $124 $299 forward 7 unknown #
coedge $-1 $126 $125 $200 $294 reversed $49 $-1 #
coedge $-1 $300 $301 $125 $206 forward $302 $-1 #
edge $-1 $303 -46.899624622333448 $211 -43.290679453890505 $205 $304 forward 7 unknown #
coedge $-1 $305 $127 $202 $297 reversed $209 $-1 #
coedge $-1 $127 $305 $300 $306 reversed $209 $-1 #
loop $-1 $-1 $305 $197 #
vertex $-1 $203 $307 #
vertex $-1 $306 $308 #
straight-curve $-1 -43.290679453890505 -21.021028076368371 0 0 0 -1 I I #
face $-1 $-1 $225 $29 $-1 $309 forward single #
loop $-1 $-1 $310 $129 #
plane-surface $-1 -46.899624622333448 0 0 1 0 0 0 0 -1 forward_v I I I I #
coedge $-1 $311 $312 $313 $314 reversed $130 $-1 #
coedge $-1 $315 $132 $134 $223 forward $81 $-1 #
coedge $-1 $132 $315 $311 $316 forward $81 $-1 #
coedge $-1 $313 $135 $132 $220 forward $225 $-1 #
edge $-1 $227 -0.60488287371236993 $317 8.6075608498654148 $219 $318 forward 7 unknown #
coedge $-1 $319 $320 $133 $222 forward $214 $-1 #
edge $-1 $321 -27.458227701955789 $226 -23.786643762837588 $221 $322 forward 7 unknown #
edge $-1 $227 -4.7244457053327329 $321 0 $134 $323 forward 7 unknown #
coedge $-1 $135 $313 $319 $324 forward $225 $-1 #
loop $-1 $-1 $313 $213 #
vertex $-1 $222 $325 #
vertex $-1 $136 $326 #
straight-curve $-1 -59.897666568368848 3.3964561143641525 7.7849077914951792 1 0 0 I I #
coedge $-1 $229 $229 $-1 $327 reversed $139 $-1 #
edge $-1 $328 0 $328 6.2831853071796004 $140 $329 forward 7 unknown #
vertex $-1 $143 $330 #
ellipse-curve $-1 -45.413029637086446 5.2389448590797087 5.9491158219360774 -0.77714596973225614 0 0.62932038083071107 0.31466019041535553 0 0.38857298486612807 1 I I #
coedge $-1 $233 $233 $-1 $331 reversed $146 $-1 #
edge $-1 $332 0 $332 6.2831853071796004 $147 $333 forward 7 unknown #
vertex $-1 $150 $334 #
ellipse-curve $-1 -45.413029637086446 8.0026779761530449 5.9491158219360774 -0.77714596973225614 0 0.62932038083071107 0.31466019041535553 0 0.38857298486612807 1 I I #
coedge $-1 $237 $237 $-1 $335 reversed $153 $-1 #
edge $-1 $336 0 $336 6.2831853071796004 $154 $337 forward 7 unknown #
vertex $-1 $157 $338 #
ellipse-curve $-1 -45.413029637086446 10.766411093226381 5.9491158219360774 -0.77714596973225614 0 0.62932038083071107 0.31466019041535553 0 0.38857298486612807 1 I I #
face $-1 $-1 $253 $33 $-1 $339 reversed single #
loop $-1 $-1 $340 $158 #
plane-surface $-1 0 21.021028076368371 0 0 -1 0 0 0 -1 forward_v I I I I #
coedge $-1 $249 $341 $342 $343 forward $159 $-1 #
coedge $-1 $342 $161 $163 $251 forward $100 $-1 #
coedge $-1 $161 $342 $340 $344 reversed $100 $-1 #
coedge $-1 $345 $164 $161 $248 forward $253 $-1 #
edge $-1 $255 4.5194346174049347 $346 12.50754051177727 $247 $347 forward 7 unknown #
coedge $-1 $348 $244 $162 $250 forward $159 $-1 #
edge $-1 $349 7.9804728029065899 $254 13.07412574086095 $249 $350 forward 7 unknown #
edge $-1 $255 -93.799249244666868 $349 -85.133409100328237 $163 $351 forward 7 unknown #
coedge $-1 $164 $345 $348 $352 reversed $253 $-1 #
loop $-1 $-1 $247 $241 #
vertex $-1 $352 $353 #
vertex $-1 $165 $354 #
straight-curve $-1 46.899624622333448 13.032922181996035 65.896548782507367 0 0 -1 I I #
coedge $-1 $257 $257 $-1 $355 reversed $168 $-1 #
edge $-1 $356 0 $356 6.2831853071796004 $169 $357 forward 7 unknown #
vertex $-1 $172 $358 #
ellipse-curve $-1 44.352798153356282 15.315238151816704 4.2795017823822352 0.80901700255871778 0 0.5877852410284794 0.2938926205142397 0 -0.40450850127935889 1 I I #
coedge $-1 $261 $261 $-1 $359 reversed $175 $-1 #
edge $-1 $360 0 $360 6.2831853071796004 $176 $361 forward 7 unknown #
vertex $-1 $179 $362 #
ellipse-curve $-1 44.352798153356282 18.738712106547705 4.2795017823822352 0.80901700255871778 0 0.5877852410284794 0.2938926205142397 0 -0.40450850127935889 1 I I #
face $-1 $-1 $277 $27 $-1 $363 reversed single #
loop $-1 $-1 $364 $180 #
plane-surface $-1 0 21.021028076368371 0 0 -1 0 0 0 -1 forward_v I I I I #
coedge $-1 $283 $282 $365 $366 forward $181 $-1 #
coedge $-1 $183 $193 $367 $368 forward $114 $-1 #
coedge $-1 $276 $189 $183 $271 reversed $277 $-1 #
edge $-1 $369 -21.021028076368371 $194 21.021028076368371 $270 $370 forward 7 unknown #
coedge $-1 $185 $184 $282 $371 forward $73 $-1 #
coedge $-1 $364 $365 $184 $274 reversed $266 $-1 #
edge $-1 $279 -46.899624622333448 $372 46.899624622333448 $273 $373 forward 7 unknown #
edge $-1 $284 -46.899624622333448 $278 46.899624622333448 $188 $374 forward 7 unknown #
coedge $-1 $186 $270 $364 $375 reversed $277 $-1 #
loop $-1 $-1 $189 $265 #
vertex $-1 $187 $376 #
vertex $-1 $187 $377 #
straight-curve $-1 46.899624622333448 0 7.7849077914951792 0 1 0 I I #
straight-curve $-1 46.899624622333448 -21.021028076368371 0 0 0 -1 I I #
coedge $-1 $268 $191 $272 $371 reversed $181 $-1 #
coedge $-1 $191 $268 $193 $286 reversed $181 $-1 #
vertex $-1 $371 $378 #
straight-curve $-1 -46.899624622333448 -21.021028076368371 0 0 0 -1 I I #
edge $-1 $195 -21.021028076368371 $379 21.021028076368371 $283 $380 forward 7 unknown #
point $-1 46.899624622333448 -21.021028076368371 -7.7849077914951792 #
point $-1 -46.899624622333448 -21.021028076368371 -7.7849077914951792 #
face $-1 $-1 $302 $28 $-1 $381 reversed single #
plane-surface $-1 -43.290679453890505 -23.746382527927992 0 -1 0 0 0 0 1 forward_v I I I I #
coedge $-1 $382 $383 $384 $385 forward $198 $-1 #
coedge $-1 $384 $200 $301 $386 reversed $122 $-1 #
coedge $-1 $200 $384 $201 $296 reversed $122 $-1 #
edge $-1 $298 -7.7849077914951792 $303 7.7849077914951792 $200 $387 forward 7 unknown #
coedge $-1 $202 $201 $383 $388 forward $77 $-1 #
edge $-1 $298 21.021028076368371 $389 26.471736979487613 $293 $390 forward 7 unknown #
edge $-1 $391 -2.7253544515596211 $210 2.7253544515596211 $207 $392 forward 7 unknown #
vertex $-1 $296 $393 #
straight-curve $-1 0 -21.021028076368371 7.7849077914951792 -1 0 0 I I #
coedge $-1 $394 $205 $208 $306 forward $302 $-1 #
coedge $-1 $205 $394 $292 $386 forward $302 $-1 #
loop $-1 $-1 $205 $289 #
vertex $-1 $294 $395 #
straight-curve $-1 0 -21.021028076368371 -7.7849077914951792 1 0 0 I I #
coedge $-1 $208 $207 $396 $397 forward $209 $-1 #
edge $-1 $211 -2.7253544515596211 $398 2.7253544515596211 $208 $399 forward 7 unknown #
point $-1 -43.290679453890505 -21.021028076368371 7.7849077914951792 #
point $-1 -43.290679453890505 -21.021028076368371 -7.7849077914951792 #
plane-surface $-1 0 0 7.7849077914951792 0 0 1 1 0 0 forward_v I I I I #
coedge $-1 $320 $319 $312 $400 forward $214 $-1 #
coedge $-1 $312 $216 $218 $316 reversed $130 $-1 #
coedge $-1 $216 $311 $310 $400 reversed $130 $-1 #
coedge $-1 $224 $219 $216 $314 forward $225 $-1 #
edge $-1 $317 -15.971231916529412 $401 -12.9980419460354 $313 $402 forward 7 unknown #
coedge $-1 $218 $217 $320 $403 reversed $81 $-1 #
edge $-1 $404 0 $317 4.7244457053327329 $311 $405 forward 7 unknown #
vertex $-1 $220 $406 #
straight-curve $-1 -43.926434651839436 4.0013389880765224 7.7849077914951792 0 1 0 I I #
coedge $-1 $310 $221 $224 $324 reversed $214 $-1 #
coedge $-1 $221 $310 $315 $403 forward $214 $-1 #
vertex $-1 $222 $407 #
straight-curve $-1 -46.899624622333448 3.3964561143641525 31.571551554332768 0 0 1 I I #
straight-curve $-1 -46.899624622333448 3.3964561143641525 4.1133238523769791 -0.62932038083071107 0 -0.77714596973225614 I I #
edge $-1 $401 -12.608899837941937 $226 -3.3964561143641525 $319 $408 forward 7 unknown #
point $-1 -46.899624622333448 3.3964561143641525 7.7849077914951792 #
point $-1 -43.926434651839436 3.3964561143641525 7.7849077914951792 #
edge $-1 $409 1 $409 0 $229 $-1 forward 7 unknown #
vertex $-1 $230 $410 #
ellipse-curve $-1 -44.44392740324615 5.2389448590797087 5.1643523275382588 -0.77714596973225614 0 0.62932038083071107 0.31466019041535553 0 0.38857298486612807 1 I I #
point $-1 -45.098369446671086 5.2389448590797087 6.3376888068022037 #
edge $-1 $411 1 $411 0 $233 $-1 forward 7 unknown #
vertex $-1 $234 $412 #
ellipse-curve $-1 -44.44392740324615 8.0026779761530449 5.1643523275382588 -0.77714596973225614 0 0.62932038083071107 0.31466019041535553 0 0.38857298486612807 1 I I #
point $-1 -45.098369446671086 8.0026779761530449 6.3376888068022037 #
edge $-1 $413 1 $413 0 $237 $-1 forward 7 unknown #
vertex $-1 $238 $414 #
ellipse-curve $-1 -44.44392740324615 10.766411093226381 5.1643523275382588 -0.77714596973225614 0 0.62932038083071107 0.31466019041535553 0 0.38857298486612807 1 I I #
point $-1 -45.098369446671086 10.766411093226381 6.3376888068022037 #
plane-surface $-1 46.899624622333448 0 0 -1 0 0 0 0 1 forward_v I I I I #
coedge $-1 $415 $416 $246 $344 forward $242 $-1 #
coedge $-1 $244 $348 $415 $417 forward $159 $-1 #
coedge $-1 $246 $245 $244 $343 reversed $100 $-1 #
edge $-1 $418 -12.507540511777266 $349 -4.5194346174049347 $244 $419 forward 7 unknown #
edge $-1 $346 -60.369949882633314 $418 -51.704109738294676 $340 $420 forward 7 unknown #
coedge $-1 $252 $247 $416 $421 reversed $253 $-1 #
vertex $-1 $248 $422 #
straight-curve $-1 46.899624622333448 8.5134875645911006 0.77409577326932322 0 1 0 I I #
coedge $-1 $341 $249 $252 $352 forward $159 $-1 #
vertex $-1 $250 $423 #
straight-curve $-1 33.825498881472498 13.032922181996035 7.7849077914951792 1 0 0 I I #
straight-curve $-1 -8.2341897032334828 13.032922181996035 76.659283239447788 -0.5877852410284794 0 0.80901700255871778 I I #
edge $-1 $254 13.032922181996035 $424 21.021028076368371 $252 $425 forward 7 unknown #
point $-1 46.899624622333448 13.032922181996035 7.7849077914951792 #
point $-1 46.899624622333448 13.032922181996035 0.77409577326932322 #
edge $-1 $426 1 $426 0 $257 $-1 forward 7 unknown #
vertex $-1 $258 $427 #
ellipse-curve $-1 43.54378115079755 15.315238151816704 3.6917165413537476 0.80901700255871778 0 0.5877852410284794 0.2938926205142397 0 -0.40450850127935889 1 I I #
point $-1 44.64669077387051 15.315238151816704 3.874993281102868 #
edge $-1 $428 1 $428 0 $261 $-1 forward 7 unknown #
vertex $-1 $262 $429 #
ellipse-curve $-1 43.54378115079755 18.738712106547705 3.6917165413537476 0.80901700255871778 0 0.5877852410284794 0.2938926205142397 0 -0.40450850127935889 1 I I #
point $-1 44.64669077387051 18.738712106547705 3.874993281102868 #
plane-surface $-1 46.899624622333448 0 0 -1 0 0 0 0 1 forward_v I I I I #
coedge $-1 $367 $273 $276 $375 forward $266 $-1 #
coedge $-1 $273 $367 $268 $366 reversed $266 $-1 #
edge $-1 $372 -7.7849077914951792 $379 7.7849077914951792 $365 $430 forward 7 unknown #
coedge $-1 $365 $364 $269 $368 reversed $266 $-1 #
edge $-1 $379 -46.899624622333448 $369 46.899624622333448 $367 $431 forward 7 unknown #
vertex $-1 $271 $432 #
straight-curve $-1 46.899624622333448 0 -7.7849077914951792 0 -1 0 I I #
edge $-1 $372 -21.021028076368371 $284 21.021028076368371 $282 $433 forward 7 unknown #
vertex $-1 $274 $434 #
straight-curve $-1 0 21.021028076368371 7.7849077914951792 -1 0 0 I I #
straight-curve $-1 0 -21.021028076368371 7.7849077914951792 1 0 0 I I #
edge $-1 $279 -7.7849077914951792 $369 7.7849077914951792 $276 $435 forward 7 unknown #
point $-1 46.899624622333448 -21.021028076368371 7.7849077914951792 #
point $-1 46.899624622333448 21.021028076368371 7.7849077914951792 #
point $-1 -46.899624622333448 -21.021028076368371 7.7849077914951792 #
vertex $-1 $368 $436 #
straight-curve $-1 -46.899624622333448 0 -7.7849077914951792 0 1 0 I I #
plane-surface $-1 0 0 -7.7849077914951792 0 0 1 1 0 0 forward_v I I I I #
coedge $-1 $396 $291 $394 $437 reversed $198 $-1 #
coedge $-1 $291 $396 $295 $388 reversed $198 $-1 #
coedge $-1 $293 $292 $291 $385 reversed $122 $-1 #
edge $-1 $389 -7.7849077914951792 $438 7.7849077914951792 $384 $439 forward 7 unknown #
edge $-1 $438 -26.471736979487613 $303 -21.021028076368371 $292 $440 forward 7 unknown #
straight-curve $-1 -46.899624622333448 -21.021028076368371 0 0 0 -1 I I #
edge $-1 $389 -1.8044725842214717 $391 1.8044725842214717 $383 $441 forward 7 unknown #
vertex $-1 $296 $442 #
straight-curve $-1 -46.899624622333448 0 7.7849077914951792 0 -1 0 I I #
vertex $-1 $297 $443 #
straight-curve $-1 -43.290679453890505 -23.746382527927992 7.7849077914951792 0 1 0 I I #
point $-1 -46.899624622333448 -21.021028076368371 7.7849077914951792 #
coedge $-1 $301 $300 $382 $437 forward $302 $-1 #
point $-1 -46.899624622333448 -21.021028076368371 -7.7849077914951792 #
coedge $-1 $383 $382 $305 $397 reversed $198 $-1 #
edge $-1 $391 -7.7849077914951792 $398 7.7849077914951792 $305 $444 forward 7 unknown #
vertex $-1 $397 $445 #
straight-curve $-1 -43.290679453890505 -23.746382527927992 -7.7849077914951792 0 -1 0 I I #
edge $-1 $401 23.786643762837588 $404 27.458227701955789 $310 $446 forward 7 unknown #
vertex $-1 $324 $447 #
straight-curve $-1 -59.897666568368848 12.608899837941937 7.7849077914951792 -1 0 0 I I #
edge $-1 $404 -8.6075608498654148 $321 0.60488287371236993 $320 $448 forward 7 unknown #
vertex $-1 $403 $449 #
straight-curve $-1 -46.899624622333448 12.608899837941937 4.1133238523769791 0.62932038083071107 0 0.77714596973225614 I I #
point $-1 -43.926434651839436 12.608899837941937 7.7849077914951792 #
point $-1 -46.899624622333448 3.3964561143641525 4.1133238523769791 #
straight-curve $-1 -46.899624622333448 0 7.7849077914951792 0 -1 0 I I #
vertex $-1 $327 $450 #
point $-1 -44.12926721283079 5.2389448590797087 5.5529253124043869 #
vertex $-1 $331 $451 #
point $-1 -44.12926721283079 8.0026779761530449 5.5529253124043869 #
vertex $-1 $335 $452 #
point $-1 -44.12926721283079 10.766411093226381 5.5529253124043869 #
coedge $-1 $416 $340 $341 $417 reversed $242 $-1 #
coedge $-1 $340 $415 $345 $421 forward $242 $-1 #
edge $-1 $424 -46.899624622333448 $418 -41.805971684379088 $415 $453 forward 7 unknown #
vertex $-1 $343 $454 #
straight-curve $-1 41.805971684379088 8.5134875645911006 7.7849077914951863 0 -1 0 I I #
straight-curve $-1 11.415059079692606 21.021028076368371 49.61441167193734 -0.5877852410284794 0 0.80901700255871778 I I #
edge $-1 $424 -7.7849077914951792 $346 -0.77409577326931711 $345 $455 forward 7 unknown #
point $-1 46.899624622333448 21.021028076368371 0.77409577326931711 #
point $-1 41.805971684379088 13.032922181996035 7.7849077914951721 #
vertex $-1 $352 $456 #
straight-curve $-1 46.899624622333448 0 7.7849077914951792 0 1 0 I I #
vertex $-1 $355 $457 #
point $-1 43.837673771311792 15.315238151816704 3.2872080400743888 #
vertex $-1 $359 $458 #
point $-1 43.837673771311792 18.738712106547705 3.2872080400743888 #
straight-curve $-1 -46.899624622333448 21.021028076368371 0 0 0 -1 I I #
straight-curve $-1 0 21.021028076368371 -7.7849077914951792 1 0 0 I I #
point $-1 46.899624622333448 21.021028076368371 -7.7849077914951792 #
straight-curve $-1 -46.899624622333448 0 7.7849077914951792 0 -1 0 I I #
point $-1 -46.899624622333448 21.021028076368371 7.7849077914951792 #
straight-curve $-1 46.899624622333448 21.021028076368371 0 0 0 -1 I I #
point $-1 -46.899624622333448 21.021028076368371 -7.7849077914951792 #
edge $-1 $398 -1.8044725842214717 $438 1.8044725842214717 $382 $459 forward 7 unknown #
vertex $-1 $386 $460 #
straight-curve $-1 -46.899624622333448 -26.471736979487613 0 0 0 -1 I I #
straight-curve $-1 -46.899624622333448 0 -7.7849077914951792 0 1 0 I I #
straight-curve $-1 -45.095152038111976 -26.471736979487613 7.7849077914951792 1 0 0 I I #
point $-1 -46.899624622333448 -26.471736979487613 7.7849077914951792 #
point $-1 -43.290679453890505 -26.471736979487613 7.7849077914951792 #
straight-curve $-1 -43.290679453890505 -26.471736979487613 0 0 0 -1 I I #
point $-1 -43.290679453890505 -26.471736979487613 -7.7849077914951792 #
straight-curve $-1 -46.899624622333448 12.608899837941937 31.571551554332768 0 0 -1 I I #
point $-1 -46.899624622333448 12.608899837941937 7.7849077914951792 #
straight-curve $-1 -46.899624622333448 4.0013389880765224 4.1133238523769791 0 -1 0 I I #
point $-1 -46.899624622333448 12.608899837941937 4.1133238523769791 #
point $-1 -44.05535441838002 5.2389448590797087 4.8496921371229025 #
point $-1 -44.05535441838002 8.0026779761530449 4.8496921371229025 #
point $-1 -44.05535441838002 10.766411093226381 4.8496921371229025 #
straight-curve $-1 0 21.021028076368371 7.7849077914951792 -1 0 0 I I #
point $-1 41.805971684379088 21.021028076368367 7.7849077914951721 #
straight-curve $-1 46.899624622333448 21.021028076368371 0 0 0 -1 I I #
point $-1 46.899624622333448 21.021028076368371 7.7849077914951792 #
point $-1 43.139272649518198 15.315238151816704 3.397823920839508 #
point $-1 43.139272649518198 18.738712106547705 3.397823920839508 #
straight-curve $-1 -45.095152038111976 -26.471736979487613 -7.7849077914951792 -1 0 0 I I #
point $-1 -46.899624622333448 -26.471736979487613 -7.7849077914951792 #
End-of-ACIS-data 