500 0 8 0           
7 Unknown 11 ACIS 5.0 NT 24 Thu Mar 25 19:39:28 1999 
-1 9.9999999999999995e-007 1e-010 
body $-1 $8 $-1 $9 #
body $-1 $10 $-1 $11 #
body $-1 $12 $-1 $13 #
body $-1 $14 $-1 $15 #
body $-1 $16 $-1 $17 #
body $-1 $18 $-1 $19 #
body $-1 $20 $-1 $21 #
body $-1 $22 $-1 $23 #
lump $-1 $-1 $24 $0 #
transform $-1 1 0 0 0 1 0 0 0 1 47.259743034150212 23.955109471547622 5.4209154555353134 1 rotate no_reflect no_shear #
lump $-1 $-1 $25 $1 #
transform $-1 1 0 0 0 1 0 0 0 1 47.259743034150212 23.955109471547622 5.4209154555353134 1 rotate no_reflect no_shear #
lump $-1 $-1 $26 $2 #
transform $-1 1 0 0 0 1 0 0 0 1 47.259743034150212 23.955109471547622 5.4209154555353134 1 rotate no_reflect no_shear #
lump $-1 $-1 $27 $3 #
transform $-1 1 0 0 0 1 0 0 0 1 47.259743034150212 23.955109471547622 5.4209154555353134 1 rotate no_reflect no_shear #
lump $-1 $-1 $28 $4 #
transform $-1 1 0 0 0 1 0 0 0 1 47.259743034150212 23.955109471547622 5.4209154555353134 1 rotate no_reflect no_shear #
lump $-1 $-1 $29 $5 #
transform $-1 1 0 0 0 1 0 0 0 1 47.259743034150212 23.955109471547622 5.4209154555353134 1 rotate no_reflect no_shear #
lump $-1 $-1 $30 $6 #
transform $-1 1 0 0 0 1 0 0 0 1 47.259743034150212 23.955109471547622 5.4209154555353134 1 rotate no_reflect no_shear #
lump $-1 $-1 $31 $7 #
transform $-1 1 0 0 0 1 0 0 0 1 47.259743034150212 23.955109471547622 5.4209154555353134 1 rotate no_reflect no_shear #
shell $-1 $-1 $-1 $32 $-1 $8 #
shell $-1 $-1 $-1 $33 $-1 $10 #
shell $-1 $-1 $-1 $34 $-1 $12 #
shell $-1 $-1 $-1 $35 $-1 $14 #
shell $-1 $-1 $-1 $36 $-1 $16 #
shell $-1 $-1 $-1 $37 $-1 $18 #
shell $-1 $-1 $-1 $38 $-1 $20 #
shell $-1 $-1 $-1 $39 $-1 $22 #
face $-1 $40 $41 $24 $-1 $42 forward single #
face $-1 $43 $44 $25 $-1 $45 forward single #
face $-1 $46 $47 $26 $-1 $48 reversed single #
face $-1 $49 $50 $27 $-1 $51 forward single #
face $-1 $52 $53 $28 $-1 $54 forward single #
face $-1 $55 $56 $29 $-1 $57 reversed single #
face $-1 $58 $59 $30 $-1 $60 forward single #
face $-1 $61 $62 $31 $-1 $63 forward single #
face $-1 $64 $65 $24 $-1 $66 reversed single #
loop $-1 $-1 $67 $32 #
plane-surface $-1 0 0 5.4209154555353134 0 0 1 1 0 0 forward_v I I I I #
face $-1 $68 $69 $25 $-1 $70 forward single #
loop $-1 $-1 $71 $33 #
plane-surface $-1 -47.259743034150212 0 0 1 0 0 0 0 -1 forward_v I I I I #
face $-1 $72 $73 $26 $-1 $74 reversed single #
loop $-1 $-1 $75 $34 #
plane-surface $-1 -42.004464364224866 58.665504276177721 101.88598599854781 1 0 0 0 -0.71933980857756763 -0.69465836192734942 forward_v I I I I #
face $-1 $76 $77 $27 $-1 $78 forward single #
loop $-1 $79 $80 $35 #
cone-surface $-1 -36.357954220556707 21.356378442855416 2.7880127435681334 0 -0.71933980857756763 -0.69465836192734942 1 0 0 1 I I 0 1 1 forward I I I I #
face $-1 $81 $82 $28 $-1 $83 forward single #
loop $-1 $84 $85 $36 #
cone-surface $-1 -27.88818900505445 21.356378442855416 2.7880127435681334 0 -0.71933980857756763 -0.69465836192734942 1 0 0 1 I I 0 1 1 forward I I I I #
face $-1 $86 $87 $29 $-1 $88 reversed single #
loop $-1 $-1 $89 $37 #
plane-surface $-1 -30.373447381060025 -97.410547130691413 61.205762613456479 -1 0 0 0 -0.77714596973225614 0.62932038083071107 forward_v I I I I #
face $-1 $90 $91 $30 $-1 $92 forward single #
loop $-1 $93 $94 $38 #
cone-surface $-1 -38.681316654749196 -22.039432576206792 3.233079937660293 0 0.77714596973225614 -0.62932038083071107 0.5 0 0 1 I I 0 1 0.5 forward I I I I #
face $-1 $95 $96 $31 $-1 $97 forward single #
loop $-1 $98 $99 $39 #
cone-surface $-1 -33.696595090535695 -22.039432576206792 3.233079937660293 0 0.77714596973225614 -0.62932038083071107 0.5 0 0 1 I I 0 1 0.5 forward I I I I #
face $-1 $100 $101 $24 $-1 $102 reversed single #
loop $-1 $-1 $103 $40 #
plane-surface $-1 0 0 -5.4209154555353134 0 0 1 1 0 0 forward_v I I I I #
coedge $-1 $104 $105 $106 $107 forward $41 $-1 #
face $-1 $108 $109 $25 $-1 $110 reversed single #
loop $-1 $-1 $111 $43 #
plane-surface $-1 0 0 5.4209154555353134 0 0 1 1 0 0 forward_v I I I I #
coedge $-1 $112 $113 $114 $115 forward $44 $-1 #
face $-1 $116 $117 $26 $-1 $118 reversed single #
loop $-1 $-1 $119 $46 #
plane-surface $-1 -32.123071612805575 -9.3261247390435713 36.227234636127307 0 0.71933980857756763 0.69465836192734942 1 0 0 forward_v I I I I #
coedge $-1 $120 $121 $122 $123 reversed $47 $-1 #
face $-1 $-1 $124 $27 $-1 $125 forward single #
loop $-1 $126 $127 $49 #
cone-surface $-1 -36.357954220556707 20.163936655312703 1.63648512205903 0 -0.71933980857756763 -0.69465836192734942 0.5 0 0 1 I I -0.70710678118654746 0.70710678118654746 0.5 forward I I I I #
loop $-1 $-1 $128 $35 #
coedge $-1 $80 $80 $129 $130 reversed $50 $-1 #
face $-1 $-1 $131 $28 $-1 $132 forward single #
loop $-1 $133 $134 $52 #
cone-surface $-1 -27.88818900505445 20.163936655312703 1.63648512205903 0 -0.71933980857756763 -0.69465836192734942 0.5 0 0 1 I I -0.70710678118654746 0.70710678118654746 0.5 forward I I I I #
loop $-1 $-1 $135 $36 #
coedge $-1 $85 $85 $136 $137 reversed $53 $-1 #
face $-1 $138 $139 $29 $-1 $140 reversed single #
loop $-1 $-1 $141 $55 #
plane-surface $-1 -36.188955872642445 -23.955109471547601 1.7227236450305696 0 -0.77714596973225614 0.62932038083071107 1 0 0 forward_v I I I I #
coedge $-1 $142 $143 $144 $145 reversed $56 $-1 #
face $-1 $-1 $146 $30 $-1 $147 forward single #
loop $-1 $148 $149 $58 #
cone-surface $-1 -38.681316654749196 -21.426837488093312 2.7370102298299628 0 0.77714596973225614 -0.62932038083071107 0.25 0 0 1 I I -0.70710678118654746 0.70710678118654746 0.25 forward I I I I #
loop $-1 $-1 $150 $38 #
coedge $-1 $94 $94 $151 $152 reversed $59 $-1 #
face $-1 $-1 $153 $31 $-1 $154 forward single #
loop $-1 $155 $156 $61 #
cone-surface $-1 -33.696595090535695 -21.426837488093312 2.7370102298299628 0 0.77714596973225614 -0.62932038083071107 0.25 0 0 1 I I -0.70710678118654746 0.70710678118654746 0.25 forward I I I I #
loop $-1 $-1 $157 $39 #
coedge $-1 $99 $99 $158 $159 reversed $62 $-1 #
face $-1 $160 $161 $24 $-1 $162 reversed single #
loop $-1 $-1 $163 $64 #
plane-surface $-1 0 -23.955109471547622 0 0 1 0 0 0 1 forward_v I I I I #
coedge $-1 $164 $165 $166 $167 forward $65 $-1 #
coedge $-1 $168 $67 $169 $170 forward $41 $-1 #
coedge $-1 $67 $168 $171 $172 forward $41 $-1 #
coedge $-1 $173 $174 $67 $107 reversed $175 $-1 #
edge $-1 $176 -23.955109471547622 $177 23.955109471547622 $106 $178 forward 7 unknown #
face $-1 $179 $180 $25 $-1 $181 reversed single #
loop $-1 $-1 $182 $68 #
plane-surface $-1 -52.515021704075558 -22.455109471547622 0 1 0 0 0 0 -1 forward_v I I I I #
coedge $-1 $183 $184 $112 $185 forward $69 $-1 #
coedge $-1 $186 $71 $111 $185 reversed $44 $-1 #
coedge $-1 $71 $186 $187 $188 reversed $44 $-1 #
coedge $-1 $189 $190 $71 $115 reversed $180 $-1 #
edge $-1 $191 -5.4209154555353134 $192 5.4209154555353134 $114 $193 forward 7 unknown #
face $-1 $194 $195 $26 $-1 $196 forward single #
loop $-1 $-1 $197 $72 #
plane-surface $-1 -22.241678861386283 58.665504276177721 101.88598599854781 -1 0 0 0 0.71933980857756763 0.69465836192734942 forward_v I I I I #
coedge $-1 $198 $199 $200 $201 reversed $73 $-1 #
coedge $-1 $121 $75 $202 $203 reversed $47 $-1 #
coedge $-1 $75 $120 $198 $204 reversed $47 $-1 #
coedge $-1 $200 $205 $75 $123 forward $195 $-1 #
edge $-1 $206 5.377642666541238 $207 8.9095609574177885 $122 $208 forward 7 unknown #
loop $-1 $-1 $129 $76 #
plane-surface $-1 -32.123071612805575 -9.3261247390435713 36.227234636127307 0 0.71933980857756763 0.69465836192734942 1 0 0 forward_v I I I I #
loop $-1 $-1 $209 $49 #
coedge $-1 $127 $127 $128 $210 reversed $77 $-1 #
coedge $-1 $128 $128 $127 $210 forward $79 $-1 #
coedge $-1 $129 $129 $80 $130 forward $124 $-1 #
edge $-1 $211 -6.9529480223427598e-016 $211 6.2831853071795996 $129 $212 forward 7 unknown #
loop $-1 $-1 $136 $81 #
plane-surface $-1 -32.123071612805575 -9.3261247390435713 36.227234636127307 0 0.71933980857756763 0.69465836192734942 1 0 0 forward_v I I I I #
loop $-1 $-1 $213 $52 #
coedge $-1 $134 $134 $135 $214 reversed $82 $-1 #
coedge $-1 $135 $135 $134 $214 forward $84 $-1 #
coedge $-1 $136 $136 $85 $137 forward $131 $-1 #
edge $-1 $215 -6.9529480223427598e-016 $215 6.2831853071795996 $136 $216 forward 7 unknown #
face $-1 $217 $218 $29 $-1 $219 forward single #
loop $-1 $-1 $220 $86 #
plane-surface $-1 -42.004464364224866 -97.410547130691413 61.205762613456479 1 0 0 0 0.77714596973225614 -0.62932038083071107 forward_v I I I I #
coedge $-1 $221 $222 $223 $224 reversed $87 $-1 #
coedge $-1 $143 $89 $225 $226 reversed $56 $-1 #
coedge $-1 $89 $142 $221 $227 reversed $56 $-1 #
coedge $-1 $223 $228 $89 $145 forward $218 $-1 #
edge $-1 $229 24.750164093798084 $230 27.744900693118932 $144 $231 forward 7 unknown #
loop $-1 $-1 $151 $90 #
plane-surface $-1 -36.188955872642445 -23.955109471547601 1.7227236450305696 0 -0.77714596973225614 0.62932038083071107 1 0 0 forward_v I I I I #
loop $-1 $-1 $232 $58 #
coedge $-1 $149 $149 $150 $233 reversed $91 $-1 #
coedge $-1 $150 $150 $149 $233 forward $93 $-1 #
coedge $-1 $151 $151 $94 $152 forward $146 $-1 #
edge $-1 $234 -3.7213557128779296e-015 $234 6.2831853071795969 $151 $235 forward 7 unknown #
loop $-1 $-1 $158 $95 #
plane-surface $-1 -36.188955872642445 -23.955109471547601 1.7227236450305696 0 -0.77714596973225614 0.62932038083071107 1 0 0 forward_v I I I I #
loop $-1 $-1 $236 $61 #
coedge $-1 $156 $156 $157 $237 reversed $96 $-1 #
coedge $-1 $157 $157 $156 $237 forward $98 $-1 #
coedge $-1 $158 $158 $99 $159 forward $153 $-1 #
edge $-1 $238 -3.7213557128779296e-015 $238 6.2831853071795969 $158 $239 forward 7 unknown #
face $-1 $240 $241 $24 $-1 $242 reversed single #
loop $-1 $-1 $243 $100 #
plane-surface $-1 -47.259743034150212 0 0 1 0 0 0 0 -1 forward_v I I I I #
coedge $-1 $244 $171 $245 $246 forward $101 $-1 #
coedge $-1 $247 $103 $244 $248 forward $65 $-1 #
coedge $-1 $103 $247 $249 $250 forward $65 $-1 #
coedge $-1 $174 $173 $103 $167 reversed $175 $-1 #
edge $-1 $251 -23.955109471547622 $252 23.955109471547622 $166 $253 forward 7 unknown #
coedge $-1 $105 $104 $254 $255 forward $41 $-1 #
coedge $-1 $256 $257 $104 $170 reversed $241 $-1 #
edge $-1 $177 -47.259743034150212 $258 47.259743034150212 $169 $259 forward 7 unknown #
coedge $-1 $163 $260 $105 $172 reversed $101 $-1 #
edge $-1 $261 -47.259743034150212 $176 47.259743034150212 $171 $262 forward 7 unknown #
coedge $-1 $166 $106 $260 $263 forward $175 $-1 #
coedge $-1 $106 $166 $256 $264 reversed $175 $-1 #
loop $-1 $-1 $173 $240 #
vertex $-1 $107 $265 #
vertex $-1 $107 $266 #
straight-curve $-1 47.259743034150212 0 5.4209154555353134 0 1 0 I I #
face $-1 $267 $268 $25 $-1 $269 reversed single #
loop $-1 $-1 $114 $108 #
plane-surface $-1 -49.887382369112885 -20.955109471547622 0 0 -1 0 0 0 -1 forward_v I I I I #
coedge $-1 $270 $271 $272 $273 forward $109 $-1 #
coedge $-1 $274 $111 $190 $275 forward $69 $-1 #
coedge $-1 $111 $274 $276 $277 forward $69 $-1 #
edge $-1 $278 -23.955109471547622 $192 -20.955109471547622 $111 $279 forward 7 unknown #
coedge $-1 $113 $112 $280 $281 reversed $44 $-1 #
coedge $-1 $282 $283 $113 $188 forward $268 $-1 #
edge $-1 $191 20.955109471547622 $284 23.955109471547622 $187 $285 forward 7 unknown #
coedge $-1 $272 $114 $283 $286 reversed $180 $-1 #
coedge $-1 $114 $272 $183 $275 reversed $180 $-1 #
vertex $-1 $188 $287 #
vertex $-1 $275 $288 #
straight-curve $-1 -47.259743034150212 -20.955109471547622 0 0 0 1 I I #
face $-1 $-1 $289 $26 $-1 $290 reversed single #
loop $-1 $-1 $122 $116 #
plane-surface $-1 0 0 5.4209154555353134 0 0 1 1 0 0 forward_v I I I I #
coedge $-1 $291 $292 $293 $294 reversed $117 $-1 #
coedge $-1 $295 $119 $121 $204 forward $73 $-1 #
coedge $-1 $119 $295 $291 $296 forward $73 $-1 #
coedge $-1 $293 $122 $119 $201 forward $195 $-1 #
edge $-1 $207 -25.942928557822079 $297 -6.1801430549834961 $200 $298 forward 7 unknown #
coedge $-1 $299 $300 $120 $203 forward $289 $-1 #
edge $-1 $301 -49.179486086582074 $206 -45.52207754373859 $202 $302 forward 7 unknown #
edge $-1 $207 42.825822807594683 $301 47.910218943095231 $121 $303 forward 7 unknown #
coedge $-1 $122 $293 $299 $304 forward $195 $-1 #
vertex $-1 $203 $305 #
vertex $-1 $123 $306 #
straight-curve $-1 -42.004464364224866 29.332752138088861 5.4209154555353152 0 -1 0 I I #
coedge $-1 $209 $209 $-1 $307 reversed $126 $-1 #
edge $-1 $308 0 $308 6.2831853071796004 $127 $309 forward 7 unknown #
vertex $-1 $130 $310 #
ellipse-curve $-1 -36.357954220556707 22.189150326109353 3.5922111841135718 0 0.71933980857756763 0.69465836192734942 1 0 0 1 I I #
coedge $-1 $213 $213 $-1 $311 reversed $133 $-1 #
edge $-1 $312 0 $312 6.2831853071796004 $134 $313 forward 7 unknown #
vertex $-1 $137 $314 #
ellipse-curve $-1 -27.88818900505445 22.189150326109353 3.5922111841135718 0 0.71933980857756763 0.69465836192734942 1 0 0 1 I I #
face $-1 $-1 $315 $29 $-1 $316 reversed single #
loop $-1 $-1 $144 $138 #
plane-surface $-1 0 0 5.4209154555353134 0 0 1 1 0 0 forward_v I I I I #
coedge $-1 $317 $318 $319 $320 reversed $139 $-1 #
coedge $-1 $321 $141 $143 $227 forward $87 $-1 #
coedge $-1 $141 $321 $317 $322 forward $87 $-1 #
coedge $-1 $319 $144 $141 $224 forward $218 $-1 #
edge $-1 $230 12.278969444738802 $323 23.909986427903643 $223 $324 forward 7 unknown #
coedge $-1 $325 $326 $142 $226 forward $315 $-1 #
edge $-1 $327 -28.880157661697694 $229 -25.181965851192928 $225 $328 forward 7 unknown #
edge $-1 $230 -4.7586836380028483 $327 3.3949538060326463e-014 $143 $329 forward 7 unknown #
coedge $-1 $144 $319 $325 $330 forward $218 $-1 #
vertex $-1 $145 $331 #
vertex $-1 $145 $332 #
straight-curve $-1 -30.373447381060025 -48.705273565345706 5.4209154555353152 0 1 0 I I #
coedge $-1 $232 $232 $-1 $333 reversed $148 $-1 #
edge $-1 $334 0 $334 6.2831853071796004 $149 $335 forward 7 unknown #
vertex $-1 $152 $336 #
ellipse-curve $-1 -38.681316654749196 -22.457741171887193 3.5718195502829335 0 -0.77714596973225614 0.62932038083071107 0.5 0 0 1 I I #
coedge $-1 $236 $236 $-1 $337 reversed $155 $-1 #
edge $-1 $338 0 $338 6.2831853071796004 $156 $339 forward 7 unknown #
vertex $-1 $159 $340 #
ellipse-curve $-1 -33.696595090535695 -22.457741171887193 3.5718195502829335 0 -0.77714596973225614 0.62932038083071107 0.5 0 0 1 I I #
face $-1 $-1 $175 $24 $-1 $341 reversed single #
loop $-1 $-1 $256 $160 #
plane-surface $-1 0 23.955109471547622 0 0 -1 0 0 0 -1 forward_v I I I I #
coedge $-1 $342 $254 $257 $343 forward $161 $-1 #
coedge $-1 $260 $163 $164 $248 reversed $101 $-1 #
coedge $-1 $254 $342 $163 $246 reversed $161 $-1 #
edge $-1 $261 -5.4209154555353134 $344 5.4209154555353134 $245 $345 forward 7 unknown #
coedge $-1 $165 $164 $342 $346 forward $65 $-1 #
edge $-1 $252 -47.259743034150212 $344 47.259743034150212 $244 $347 forward 7 unknown #
coedge $-1 $257 $256 $165 $250 reversed $241 $-1 #
edge $-1 $348 -47.259743034150212 $251 47.259743034150212 $249 $349 forward 7 unknown #
vertex $-1 $167 $350 #
vertex $-1 $263 $351 #
straight-curve $-1 47.259743034150212 0 -5.4209154555353134 0 -1 0 I I #
coedge $-1 $243 $245 $168 $255 reversed $161 $-1 #
edge $-1 $258 -23.955109471547622 $261 23.955109471547622 $254 $352 forward 7 unknown #
coedge $-1 $249 $169 $174 $264 forward $241 $-1 #
coedge $-1 $169 $249 $243 $343 reversed $241 $-1 #
vertex $-1 $170 $353 #
straight-curve $-1 0 23.955109471547622 5.4209154555353134 -1 0 0 I I #
coedge $-1 $171 $244 $173 $263 reversed $101 $-1 #
vertex $-1 $255 $354 #
straight-curve $-1 0 -23.955109471547622 5.4209154555353134 1 0 0 I I #
edge $-1 $176 -5.4209154555353134 $252 5.4209154555353134 $173 $355 forward 7 unknown #
edge $-1 $177 -5.4209154555353134 $251 5.4209154555353134 $174 $356 forward 7 unknown #
point $-1 47.259743034150212 -23.955109471547622 5.4209154555353134 #
point $-1 47.259743034150212 23.955109471547622 5.4209154555353134 #
face $-1 $-1 $357 $25 $-1 $358 reversed single #
loop $-1 $-1 $187 $179 #
plane-surface $-1 0 0 -5.4209154555353134 0 0 1 1 0 0 forward_v I I I I #
coedge $-1 $359 $182 $360 $361 reversed $109 $-1 #
coedge $-1 $182 $359 $274 $362 reversed $109 $-1 #
coedge $-1 $190 $189 $182 $273 reversed $180 $-1 #
edge $-1 $363 -5.4209154555353134 $364 5.4209154555353134 $272 $365 forward 7 unknown #
coedge $-1 $184 $183 $271 $362 forward $69 $-1 #
edge $-1 $192 -2.627639334962673 $363 2.627639334962673 $190 $366 forward 7 unknown #
coedge $-1 $367 $280 $184 $277 reversed $357 $-1 #
edge $-1 $368 -52.515021704075558 $278 -47.259743034150212 $276 $369 forward 7 unknown #
vertex $-1 $281 $370 #
straight-curve $-1 -47.259743034150212 0 5.4209154555353134 0 1 0 I I #
coedge $-1 $276 $371 $186 $281 forward $357 $-1 #
edge $-1 $284 -5.4209154555353134 $278 5.4209154555353134 $280 $372 forward 7 unknown #
coedge $-1 $360 $187 $371 $373 forward $268 $-1 #
coedge $-1 $187 $360 $189 $286 forward $268 $-1 #
vertex $-1 $373 $374 #
straight-curve $-1 -47.259743034150212 0 -5.4209154555353134 0 -1 0 I I #
edge $-1 $364 -2.627639334962673 $191 2.627639334962673 $189 $375 forward 7 unknown #
point $-1 -47.259743034150212 -20.955109471547622 -5.4209154555353134 #
point $-1 -47.259743034150212 -20.955109471547622 5.4209154555353134 #
loop $-1 $-1 $202 $194 #
plane-surface $-1 0 23.955109471547622 0 0 -1 0 0 0 -1 forward_v I I I I #
coedge $-1 $292 $197 $199 $296 reversed $117 $-1 #
coedge $-1 $197 $291 $376 $377 reversed $117 $-1 #
coedge $-1 $205 $200 $197 $294 forward $195 $-1 #
edge $-1 $297 -8.9095609574177885 $378 -5.377642666541238 $293 $379 forward 7 unknown #
coedge $-1 $199 $198 $300 $380 reversed $73 $-1 #
edge $-1 $381 -47.910218943095231 $297 -42.825822807594683 $291 $382 forward 7 unknown #
vertex $-1 $201 $383 #
straight-curve $-1 -16.061535806402787 20.423191180671072 5.4209154555353152 1 0 0 I I #
coedge $-1 $376 $202 $205 $304 reversed $289 $-1 #
coedge $-1 $202 $376 $295 $380 forward $289 $-1 #
vertex $-1 $203 $384 #
straight-curve $-1 -42.004464364224866 23.955109471547622 50.942992999273905 0 0 1 I I #
straight-curve $-1 -42.004464364224866 -9.3261247390435713 36.227234636127307 0 0.69465836192734942 -0.71933980857756763 I I #
edge $-1 $378 22.241678861386283 $206 42.004464364224866 $299 $385 forward 7 unknown #
point $-1 -42.004464364224866 23.955109471547622 5.4209154555353134 #
point $-1 -42.004464364224866 20.423191180671072 5.4209154555353187 #
edge $-1 $386 1 $386 0 $209 $-1 forward 7 unknown #
vertex $-1 $210 $387 #
ellipse-curve $-1 -36.357954220556707 20.523606559601486 1.9838143030227047 0 0.71933980857756763 0.69465836192734942 1 0 0 1 I I #
point $-1 -35.357954220556707 22.189150326109342 3.5922111841135624 #
edge $-1 $388 1 $388 0 $213 $-1 forward 7 unknown #
vertex $-1 $214 $389 #
ellipse-curve $-1 -27.88818900505445 20.523606559601486 1.9838143030227047 0 0.71933980857756763 0.69465836192734942 1 0 0 1 I I #
point $-1 -26.88818900505445 22.189150326109342 3.5922111841135624 #
loop $-1 $-1 $225 $217 #
plane-surface $-1 0 -23.955109471547622 0 0 1 0 0 0 1 forward_v I I I I #
coedge $-1 $318 $220 $222 $322 reversed $139 $-1 #
coedge $-1 $220 $317 $390 $391 reversed $139 $-1 #
coedge $-1 $228 $223 $220 $320 forward $218 $-1 #
edge $-1 $323 -27.744900693118932 $392 -24.750164093798084 $319 $393 forward 7 unknown #
coedge $-1 $222 $221 $326 $394 reversed $87 $-1 #
edge $-1 $395 -3.3949538060326463e-014 $323 4.7586836380028483 $317 $396 forward 7 unknown #
vertex $-1 $224 $397 #
straight-curve $-1 -18.094477936321223 -20.960372872226777 5.4209154555353134 -1 0 0 I I #
coedge $-1 $390 $225 $228 $330 reversed $315 $-1 #
coedge $-1 $225 $390 $321 $394 forward $315 $-1 #
vertex $-1 $226 $398 #
straight-curve $-1 -30.373447381060025 -23.955109471547622 30.602881306728239 0 0 1 I I #
straight-curve $-1 -30.373447381060025 -23.955109471547601 1.7227236450305696 0 -0.62932038083071107 -0.77714596973225614 I I #
edge $-1 $392 -42.004464364224866 $229 -30.373447381060025 $325 $399 forward 7 unknown #
point $-1 -30.373447381060025 -23.955109471547622 5.4209154555353134 #
point $-1 -30.373447381060025 -20.960372872226774 5.4209154555353134 #
edge $-1 $400 1 $400 0 $232 $-1 forward 7 unknown #
vertex $-1 $233 $401 #
ellipse-curve $-1 -38.681316654749196 -21.621123980526377 2.8943403250376405 0 -0.77714596973225614 0.62932038083071107 0.5 0 0 1 I I #
point $-1 -38.181316654749196 -22.457741171887211 3.5718195502829455 #
edge $-1 $402 1 $402 0 $236 $-1 forward 7 unknown #
vertex $-1 $237 $403 #
ellipse-curve $-1 -33.696595090535695 -21.621123980526377 2.8943403250376405 0 -0.77714596973225614 0.62932038083071107 0.5 0 0 1 I I #
point $-1 -33.196595090535695 -22.457741171887211 3.5718195502829455 #
plane-surface $-1 47.259743034150212 0 0 -1 0 0 0 0 1 forward_v I I I I #
coedge $-1 $245 $243 $247 $346 reversed $161 $-1 #
edge $-1 $258 -5.4209154555353134 $348 5.4209154555353134 $257 $404 forward 7 unknown #
vertex $-1 $346 $405 #
straight-curve $-1 -47.259743034150212 -23.955109471547622 0 0 0 -1 I I #
edge $-1 $344 -23.955109471547622 $348 23.955109471547622 $342 $406 forward 7 unknown #
straight-curve $-1 0 -23.955109471547622 -5.4209154555353134 -1 0 0 I I #
vertex $-1 $250 $407 #
straight-curve $-1 0 23.955109471547622 -5.4209154555353134 1 0 0 I I #
point $-1 47.259743034150212 23.955109471547622 -5.4209154555353134 #
point $-1 47.259743034150212 -23.955109471547622 -5.4209154555353134 #
straight-curve $-1 -47.259743034150212 0 5.4209154555353134 0 -1 0 I I #
point $-1 -47.259743034150212 23.955109471547622 5.4209154555353134 #
point $-1 -47.259743034150212 -23.955109471547622 5.4209154555353134 #
straight-curve $-1 47.259743034150212 -23.955109471547622 0 0 0 -1 I I #
straight-curve $-1 47.259743034150212 23.955109471547622 0 0 0 -1 I I #
loop $-1 $-1 $280 $267 #
plane-surface $-1 0 -23.955109471547622 0 0 1 0 0 0 1 forward_v I I I I #
coedge $-1 $271 $270 $367 $408 reversed $109 $-1 #
coedge $-1 $283 $282 $270 $361 forward $268 $-1 #
edge $-1 $409 -1.5 $364 1.5 $270 $410 forward 7 unknown #
edge $-1 $363 -1.5 $368 1.5 $271 $411 forward 7 unknown #
vertex $-1 $275 $412 #
vertex $-1 $286 $413 #
straight-curve $-1 -52.515021704075558 -20.955109471547622 0 0 0 -1 I I #
straight-curve $-1 -49.887382369112885 -20.955109471547622 5.4209154555353134 -1 0 0 I I #
coedge $-1 $371 $276 $359 $408 forward $357 $-1 #
vertex $-1 $362 $414 #
straight-curve $-1 0 -23.955109471547622 5.4209154555353134 1 0 0 I I #
point $-1 -47.259743034150212 -23.955109471547622 5.4209154555353134 #
coedge $-1 $280 $367 $282 $373 reversed $357 $-1 #
straight-curve $-1 -47.259743034150212 -23.955109471547622 0 0 0 1 I I #
edge $-1 $284 -2.627639334962673 $409 2.627639334962673 $371 $415 forward 7 unknown #
point $-1 -47.259743034150212 -23.955109471547622 -5.4209154555353134 #
straight-curve $-1 -49.887382369112885 -20.955109471547622 -5.4209154555353134 1 0 0 I I #
coedge $-1 $300 $299 $292 $377 forward $289 $-1 #
edge $-1 $378 45.52207754373859 $381 49.179486086582074 $376 $416 forward 7 unknown #
vertex $-1 $304 $417 #
straight-curve $-1 -22.241678861386283 29.332752138088861 5.4209154555353152 0 1 0 I I #
edge $-1 $381 6.1801430549834961 $301 25.942928557822079 $300 $418 forward 7 unknown #
vertex $-1 $380 $419 #
straight-curve $-1 -22.241678861386283 -9.3261247390435713 36.227234636127307 0 -0.69465836192734942 0.71933980857756763 I I #
point $-1 -22.241678861386283 20.423191180671072 5.4209154555353187 #
point $-1 -42.004464364224866 23.955109471547622 1.763506912691831 #
straight-curve $-1 0 23.955109471547622 5.4209154555353134 -1 0 0 I I #
vertex $-1 $307 $420 #
point $-1 -35.357954220556707 20.523606559601486 1.9838143030227047 #
vertex $-1 $311 $421 #
point $-1 -26.88818900505445 20.523606559601486 1.9838143030227047 #
coedge $-1 $326 $325 $318 $391 forward $315 $-1 #
edge $-1 $392 25.181965851192928 $395 28.880157661697694 $390 $422 forward 7 unknown #
vertex $-1 $330 $423 #
straight-curve $-1 -42.004464364224866 -48.705273565345706 5.4209154555353152 0 -1 0 I I #
edge $-1 $395 -23.909986427903643 $327 -12.278969444738802 $326 $424 forward 7 unknown #
vertex $-1 $394 $425 #
straight-curve $-1 -42.004464364224866 -23.955109471547601 1.7227236450305696 0 0.62932038083071107 0.77714596973225614 I I #
point $-1 -42.004464364224866 -20.960372872226774 5.4209154555353134 #
point $-1 -30.373447381060025 -23.955109471547622 1.7227236450305432 #
straight-curve $-1 0 -23.955109471547622 5.4209154555353134 1 0 0 I I #
vertex $-1 $333 $426 #
point $-1 -38.181316654749196 -21.621123980526377 2.8943403250376405 #
vertex $-1 $337 $427 #
point $-1 -33.196595090535695 -21.621123980526377 2.8943403250376405 #
straight-curve $-1 -47.259743034150212 23.955109471547622 0 0 0 -1 I I #
point $-1 -47.259743034150212 -23.955109471547622 -5.4209154555353134 #
straight-curve $-1 -47.259743034150212 0 -5.4209154555353134 0 1 0 I I #
point $-1 -47.259743034150212 23.955109471547622 -5.4209154555353134 #
edge $-1 $368 -5.4209154555353134 $409 5.4209154555353134 $359 $428 forward 7 unknown #
vertex $-1 $361 $429 #
straight-curve $-1 -52.515021704075558 -22.455109471547622 -5.4209154555353134 0 1 0 I I #
straight-curve $-1 -52.515021704075558 -22.455109471547622 5.4209154555353134 0 -1 0 I I #
point $-1 -52.515021704075558 -20.955109471547622 5.4209154555353134 #
point $-1 -52.515021704075558 -20.955109471547622 -5.4209154555353134 #
point $-1 -52.515021704075558 -23.955109471547622 5.4209154555353134 #
straight-curve $-1 -49.887382369112885 -23.955109471547622 -5.4209154555353134 -1 0 0 I I #
straight-curve $-1 -22.241678861386283 23.955109471547622 50.942992999273905 0 0 -1 I I #
point $-1 -22.241678861386283 23.955109471547622 5.4209154555353134 #
straight-curve $-1 -16.061535806402787 23.955109471547622 1.7635069126918346 -1 0 0 I I #
point $-1 -22.241678861386283 23.955109471547622 1.763506912691831 #
point $-1 -36.357954220556707 19.804266751023921 1.2891559410953553 #
point $-1 -27.88818900505445 19.804266751023921 1.2891559410953553 #
straight-curve $-1 -42.004464364224866 -23.955109471547622 30.602881306728239 0 0 -1 I I #
point $-1 -42.004464364224866 -23.955109471547622 5.4209154555353134 #
straight-curve $-1 -18.094477936321223 -23.955109471547622 1.7227236450305439 1 0 0 I I #
point $-1 -42.004464364224866 -23.955109471547622 1.7227236450305432 #
point $-1 -38.681316654749196 -21.232550995660247 2.5796801346222851 #
point $-1 -33.696595090535695 -21.232550995660247 2.5796801346222851 #
straight-curve $-1 -52.515021704075558 -23.955109471547622 0 0 0 -1 I I #
point $-1 -52.515021704075558 -23.955109471547622 -5.4209154555353134 #
End-of-ACIS-data 