500 0 16 0           
7 Unknown 11 ACIS 5.0 NT 24 Thu Mar 25 20:15:14 1999 
-1 9.9999999999999995e-007 1e-010 
body $-1 $16 $-1 $17 #
body $-1 $18 $-1 $19 #
body $-1 $20 $-1 $21 #
body $-1 $22 $-1 $23 #
body $-1 $24 $-1 $25 #
body $-1 $26 $-1 $27 #
body $-1 $28 $-1 $29 #
body $-1 $30 $-1 $31 #
body $-1 $32 $-1 $33 #
body $-1 $34 $-1 $35 #
body $-1 $36 $-1 $37 #
body $-1 $38 $-1 $39 #
body $-1 $40 $-1 $41 #
body $-1 $42 $-1 $43 #
body $-1 $44 $-1 $45 #
body $-1 $46 $-1 $47 #
lump $-1 $-1 $48 $0 #
transform $-1 1 0 0 0 1 0 0 0 1 68.257698294015313 40.049293628388952 17.01059126783359 1 rotate no_reflect no_shear #
lump $-1 $-1 $49 $1 #
transform $-1 1 0 0 0 1 0 0 0 1 68.257698294015313 40.049293628388952 17.01059126783359 1 rotate no_reflect no_shear #
lump $-1 $-1 $50 $2 #
transform $-1 1 0 0 0 1 0 0 0 1 68.257698294015313 40.049293628388952 17.01059126783359 1 rotate no_reflect no_shear #
lump $-1 $-1 $51 $3 #
transform $-1 1 0 0 0 1 0 0 0 1 68.257698294015313 40.049293628388952 17.01059126783359 1 rotate no_reflect no_shear #
lump $-1 $-1 $52 $4 #
transform $-1 1 0 0 0 1 0 0 0 1 68.257698294015313 40.049293628388952 17.01059126783359 1 rotate no_reflect no_shear #
lump $-1 $-1 $53 $5 #
transform $-1 1 0 0 0 1 0 0 0 1 68.257698294015313 40.049293628388952 17.01059126783359 1 rotate no_reflect no_shear #
lump $-1 $-1 $54 $6 #
transform $-1 1 0 0 0 1 0 0 0 1 68.257698294015313 40.049293628388952 17.01059126783359 1 rotate no_reflect no_shear #
lump $-1 $-1 $55 $7 #
transform $-1 1 0 0 0 1 0 0 0 1 68.257698294015313 40.049293628388952 17.01059126783359 1 rotate no_reflect no_shear #
lump $-1 $-1 $56 $8 #
transform $-1 1 0 0 0 1 0 0 0 1 68.257698294015313 40.049293628388952 17.01059126783359 1 rotate no_reflect no_shear #
lump $-1 $-1 $57 $9 #
transform $-1 1 0 0 0 1 0 0 0 1 68.257698294015313 40.049293628388952 17.01059126783359 1 rotate no_reflect no_shear #
lump $-1 $-1 $58 $10 #
transform $-1 1 0 0 0 1 0 0 0 1 68.257698294015313 40.049293628388952 17.01059126783359 1 rotate no_reflect no_shear #
lump $-1 $-1 $59 $11 #
transform $-1 1 0 0 0 1 0 0 0 1 68.257698294015313 40.049293628388952 17.01059126783359 1 rotate no_reflect no_shear #
lump $-1 $-1 $60 $12 #
transform $-1 1 0 0 0 1 0 0 0 1 68.257698294015313 40.049293628388952 17.01059126783359 1 rotate no_reflect no_shear #
lump $-1 $-1 $61 $13 #
transform $-1 1 0 0 0 1 0 0 0 1 68.257698294015313 40.049293628388952 17.01059126783359 1 rotate no_reflect no_shear #
lump $-1 $-1 $62 $14 #
transform $-1 1 0 0 0 1 0 0 0 1 68.257698294015313 40.049293628388952 17.01059126783359 1 rotate no_reflect no_shear #
lump $-1 $-1 $63 $15 #
transform $-1 1 0 0 0 1 0 0 0 1 68.257698294015313 40.049293628388952 17.01059126783359 1 rotate no_reflect no_shear #
shell $-1 $-1 $-1 $64 $-1 $16 #
shell $-1 $-1 $-1 $65 $-1 $18 #
shell $-1 $-1 $-1 $66 $-1 $20 #
shell $-1 $-1 $-1 $67 $-1 $22 #
shell $-1 $-1 $-1 $68 $-1 $24 #
shell $-1 $-1 $-1 $69 $-1 $26 #
shell $-1 $-1 $-1 $70 $-1 $28 #
shell $-1 $-1 $-1 $71 $-1 $30 #
shell $-1 $-1 $-1 $72 $-1 $32 #
shell $-1 $-1 $-1 $73 $-1 $34 #
shell $-1 $-1 $-1 $74 $-1 $36 #
shell $-1 $-1 $-1 $75 $-1 $38 #
shell $-1 $-1 $-1 $76 $-1 $40 #
shell $-1 $-1 $-1 $77 $-1 $42 #
shell $-1 $-1 $-1 $78 $-1 $44 #
shell $-1 $-1 $-1 $79 $-1 $46 #
face $-1 $80 $81 $48 $-1 $82 forward single #
face $-1 $83 $84 $49 $-1 $85 forward single #
face $-1 $86 $87 $50 $-1 $88 reversed single #
face $-1 $89 $90 $51 $-1 $91 forward single #
face $-1 $92 $93 $52 $-1 $94 forward single #
face $-1 $95 $96 $53 $-1 $97 forward single #
face $-1 $98 $99 $54 $-1 $100 reversed single #
face $-1 $101 $102 $55 $-1 $103 forward single #
face $-1 $104 $105 $56 $-1 $106 forward single #
face $-1 $107 $108 $57 $-1 $109 forward single #
face $-1 $110 $111 $58 $-1 $112 reversed single #
face $-1 $113 $114 $59 $-1 $115 forward single #
face $-1 $116 $117 $60 $-1 $118 forward single #
face $-1 $119 $120 $61 $-1 $121 reversed single #
face $-1 $122 $123 $62 $-1 $124 forward single #
face $-1 $125 $126 $63 $-1 $127 forward single #
face $-1 $128 $129 $48 $-1 $130 reversed single #
loop $-1 $-1 $131 $64 #
plane-surface $-1 0 0 17.01059126783359 0 0 1 1 0 0 forward_v I I I I #
face $-1 $132 $133 $49 $-1 $134 reversed single #
loop $-1 $-1 $135 $65 #
plane-surface $-1 -58.949270386136845 0 -7.235743921966141 0 0 1 1 0 0 forward_v I I I I #
face $-1 $136 $137 $50 $-1 $138 reversed single #
loop $-1 $-1 $139 $66 #
plane-surface $-1 -25.240300544491394 66.440623026423197 157.14929932673766 1 0 0 0 -0.64278761758704617 -0.76604443648966558 forward_v I I I I #
face $-1 $140 $141 $51 $-1 $142 forward single #
loop $-1 $143 $144 $67 #
cone-surface $-1 -20.952099583390421 28.124617506199083 6.1456697822986559 0 -0.64278761758704617 -0.76604443648966558 2 0 0 1 I I 0 1 2 forward I I I I #
face $-1 $145 $146 $52 $-1 $147 forward single #
loop $-1 $148 $149 $68 #
cone-surface $-1 -14.519798141738953 28.124617506199083 6.1456697822986559 0 -0.64278761758704617 -0.76604443648966558 2 0 0 1 I I 0 1 2 forward I I I I #
face $-1 $150 $151 $53 $-1 $152 forward single #
loop $-1 $153 $154 $69 #
cone-surface $-1 -8.0874967000874847 28.124617506199083 6.1456697822986559 0 -0.64278761758704617 -0.76604443648966558 2 0 0 1 I I 0 1 2 forward I I I I #
face $-1 $155 $156 $54 $-1 $157 reversed single #
loop $-1 $-1 $158 $70 #
plane-surface $-1 22.416151554743433 66.440623026423197 157.14929932673766 1 0 0 0 -0.64278761758704617 -0.76604443648966558 forward_v I I I I #
face $-1 $159 $160 $55 $-1 $161 forward single #
loop $-1 $162 $163 $71 #
cone-surface $-1 26.704352515844406 28.124617506199083 6.1456697822986559 0 -0.64278761758704617 -0.76604443648966558 2 0 0 1 I I 0 1 2 forward I I I I #
face $-1 $164 $165 $56 $-1 $166 forward single #
loop $-1 $167 $168 $72 #
cone-surface $-1 33.136653957495867 28.124617506199083 6.1456697822986559 0 -0.64278761758704617 -0.76604443648966558 2 0 0 1 I I 0 1 2 forward I I I I #
face $-1 $169 $170 $57 $-1 $171 forward single #
loop $-1 $172 $173 $73 #
cone-surface $-1 39.568955399147342 28.124617506199083 6.1456697822986559 0 -0.64278761758704617 -0.76604443648966558 2 0 0 1 I I 0 1 2 forward I I I I #
face $-1 $174 $175 $58 $-1 $176 reversed single #
loop $-1 $-1 $177 $74 #
plane-surface $-1 -25.700965741653782 -127.79970016515992 108.81249093309522 -1 0 0 0 -0.64278761758704617 0.76604443648966558 forward_v I I I I #
face $-1 $178 $179 $59 $-1 $180 forward single #
loop $-1 $181 $182 $75 #
cone-surface $-1 -42.800877696371359 -30.376528128058993 8.1675467146653418 0 0.64278761758704617 -0.76604443648966558 2.5 0 0 1 I I 0 1 2.5 forward I I I I #
face $-1 $183 $184 $60 $-1 $185 forward single #
loop $-1 $186 $187 $76 #
cone-surface $-1 -32.540930523540808 -30.376528128058993 8.1675467146653418 0 0.64278761758704617 -0.76604443648966558 2.5 0 0 1 I I 0 1 2.5 forward I I I I #
face $-1 $188 $189 $61 $-1 $190 reversed single #
loop $-1 $-1 $191 $77 #
plane-surface $-1 56.287759925713004 -40.049293628388938 4.2356308816540889 0 -0.64278761758704617 0.76604443648966558 1 0 0 forward_v I I I I #
face $-1 $192 $193 $62 $-1 $194 forward single #
loop $-1 $195 $196 $78 #
cone-surface $-1 51.157786339297729 -30.376528128058993 8.1675467146653418 0 0.64278761758704617 -0.76604443648966558 2.5 0 0 1 I I 0 1 2.5 forward I I I I #
face $-1 $197 $198 $63 $-1 $199 forward single #
loop $-1 $200 $201 $79 #
cone-surface $-1 61.417733512128279 -30.376528128058993 8.1675467146653418 0 0.64278761758704617 -0.76604443648966558 2.5 0 0 1 I I 0 1 2.5 forward I I I I #
face $-1 $202 $203 $48 $-1 $204 reversed single #
loop $-1 $-1 $205 $80 #
plane-surface $-1 0 0 -17.01059126783359 0 0 1 1 0 0 forward_v I I I I #
coedge $-1 $206 $207 $208 $209 forward $81 $-1 #
face $-1 $210 $211 $49 $-1 $212 reversed single #
loop $-1 $-1 $213 $83 #
plane-surface $-1 -49.640842478258378 0 -12.123167594899865 -1 0 0 0 0 1 forward_v I I I I #
coedge $-1 $214 $215 $216 $217 forward $84 $-1 #
face $-1 $218 $219 $50 $-1 $220 reversed single #
loop $-1 $-1 $221 $86 #
plane-surface $-1 -14.519798141738946 -21.309783510347785 52.572439275296531 0 0.64278761758704617 0.76604443648966558 1 0 0 forward_v I I I I #
coedge $-1 $222 $223 $224 $225 reversed $87 $-1 #
face $-1 $-1 $226 $51 $-1 $227 forward single #
loop $-1 $228 $229 $89 #
cone-surface $-1 -20.952099583390421 25.046212718532686 2.476969893978783 0 -0.64278761758704617 -0.76604443648966558 1 0 0 1 I I -0.70710678118654746 0.70710678118654746 1 forward I I I I #
loop $-1 $-1 $230 $67 #
coedge $-1 $144 $144 $231 $232 reversed $90 $-1 #
face $-1 $-1 $233 $52 $-1 $234 forward single #
loop $-1 $235 $236 $92 #
cone-surface $-1 -14.519798141738953 25.046212718532686 2.476969893978783 0 -0.64278761758704617 -0.76604443648966558 1 0 0 1 I I -0.70710678118654746 0.70710678118654746 1 forward I I I I #
loop $-1 $-1 $237 $68 #
coedge $-1 $149 $149 $238 $239 reversed $93 $-1 #
face $-1 $-1 $240 $53 $-1 $241 forward single #
loop $-1 $242 $243 $95 #
cone-surface $-1 -8.0874967000874847 25.046212718532686 2.476969893978783 0 -0.64278761758704617 -0.76604443648966558 1 0 0 1 I I -0.70710678118654746 0.70710678118654746 1 forward I I I I #
loop $-1 $-1 $244 $69 #
coedge $-1 $154 $154 $245 $246 reversed $96 $-1 #
face $-1 $247 $248 $54 $-1 $249 reversed single #
loop $-1 $-1 $250 $98 #
plane-surface $-1 33.136653957495881 -21.309783510347785 52.572439275296531 0 0.64278761758704617 0.76604443648966558 1 0 0 forward_v I I I I #
coedge $-1 $251 $252 $253 $254 reversed $99 $-1 #
face $-1 $-1 $255 $55 $-1 $256 forward single #
loop $-1 $257 $258 $101 #
cone-surface $-1 26.704352515844406 25.046212718532686 2.476969893978783 0 -0.64278761758704617 -0.76604443648966558 1 0 0 1 I I -0.70710678118654746 0.70710678118654746 1 forward I I I I #
loop $-1 $-1 $259 $71 #
coedge $-1 $163 $163 $260 $261 reversed $102 $-1 #
face $-1 $-1 $262 $56 $-1 $263 forward single #
loop $-1 $264 $265 $104 #
cone-surface $-1 33.136653957495867 25.046212718532686 2.476969893978783 0 -0.64278761758704617 -0.76604443648966558 1 0 0 1 I I -0.70710678118654746 0.70710678118654746 1 forward I I I I #
loop $-1 $-1 $266 $72 #
coedge $-1 $168 $168 $267 $268 reversed $105 $-1 #
face $-1 $-1 $269 $57 $-1 $270 forward single #
loop $-1 $271 $272 $107 #
cone-surface $-1 39.568955399147342 25.046212718532686 2.476969893978783 0 -0.64278761758704617 -0.76604443648966558 1 0 0 1 I I -0.70710678118654746 0.70710678118654746 1 forward I I I I #
loop $-1 $-1 $273 $73 #
coedge $-1 $173 $173 $274 $275 reversed $108 $-1 #
face $-1 $276 $277 $58 $-1 $278 reversed single #
loop $-1 $-1 $279 $110 #
plane-surface $-1 -37.670904109956084 -40.049293628388938 4.2356308816540889 0 -0.64278761758704617 0.76604443648966558 1 0 0 forward_v I I I I #
coedge $-1 $280 $281 $282 $283 reversed $111 $-1 #
face $-1 $-1 $284 $59 $-1 $285 forward single #
loop $-1 $286 $287 $113 #
cone-surface $-1 -42.800877696371359 -27.51258041404493 4.7544268089747668 0 0.64278761758704617 -0.76604443648966558 1.25 0 0 1 I I -0.70710678118654746 0.70710678118654746 1.25 forward I I I I #
loop $-1 $-1 $288 $75 #
coedge $-1 $182 $182 $289 $290 reversed $114 $-1 #
face $-1 $-1 $291 $60 $-1 $292 forward single #
loop $-1 $293 $294 $116 #
cone-surface $-1 -32.540930523540808 -27.51258041404493 4.7544268089747668 0 0.64278761758704617 -0.76604443648966558 1.25 0 0 1 I I -0.70710678118654746 0.70710678118654746 1.25 forward I I I I #
loop $-1 $-1 $295 $76 #
coedge $-1 $187 $187 $296 $297 reversed $117 $-1 #
face $-1 $298 $299 $61 $-1 $300 reversed single #
loop $-1 $-1 $301 $119 #
plane-surface $-1 44.317821557410703 -127.79970016515992 108.81249093309522 1 0 0 0 0.64278761758704617 -0.76604443648966558 forward_v I I I I #
coedge $-1 $302 $303 $304 $305 reversed $120 $-1 #
face $-1 $-1 $306 $62 $-1 $307 forward single #
loop $-1 $308 $309 $122 #
cone-surface $-1 51.157786339297729 -27.51258041404493 4.7544268089747668 0 0.64278761758704617 -0.76604443648966558 1.25 0 0 1 I I -0.70710678118654746 0.70710678118654746 1.25 forward I I I I #
loop $-1 $-1 $310 $78 #
coedge $-1 $196 $196 $311 $312 reversed $123 $-1 #
face $-1 $-1 $313 $63 $-1 $314 forward single #
loop $-1 $315 $316 $125 #
cone-surface $-1 61.417733512128279 -27.51258041404493 4.7544268089747668 0 0.64278761758704617 -0.76604443648966558 1.25 0 0 1 I I -0.70710678118654746 0.70710678118654746 1.25 forward I I I I #
loop $-1 $-1 $317 $79 #
coedge $-1 $201 $201 $318 $319 reversed $126 $-1 #
face $-1 $320 $321 $48 $-1 $322 reversed single #
loop $-1 $-1 $323 $128 #
plane-surface $-1 0 -40.049293628388952 0 0 1 0 0 0 1 forward_v I I I I #
coedge $-1 $324 $325 $326 $327 forward $129 $-1 #
coedge $-1 $328 $131 $329 $330 forward $81 $-1 #
coedge $-1 $131 $328 $331 $332 forward $81 $-1 #
coedge $-1 $333 $334 $131 $209 reversed $335 $-1 #
edge $-1 $336 -40.049293628388952 $337 40.049293628388952 $208 $338 forward 7 unknown #
face $-1 $339 $340 $49 $-1 $341 reversed single #
loop $-1 $-1 $342 $132 #
plane-surface $-1 0 0 -17.01059126783359 0 0 1 1 0 0 forward_v I I I I #
coedge $-1 $343 $216 $344 $345 reversed $133 $-1 #
coedge $-1 $346 $135 $347 $348 reversed $84 $-1 #
coedge $-1 $135 $346 $349 $350 reversed $84 $-1 #
coedge $-1 $213 $351 $135 $217 reversed $133 $-1 #
edge $-1 $352 -40.049293628388952 $353 40.049293628388952 $216 $354 forward 7 unknown #
face $-1 $355 $356 $50 $-1 $357 reversed single #
loop $-1 $-1 $358 $136 #
plane-surface $-1 -3.7992957389864976 66.440623026423197 157.14929932673766 -1 0 0 0 0.64278761758704617 0.76604443648966558 forward_v I I I I #
coedge $-1 $359 $360 $361 $362 reversed $137 $-1 #
coedge $-1 $223 $139 $363 $364 reversed $87 $-1 #
coedge $-1 $139 $222 $359 $365 reversed $87 $-1 #
coedge $-1 $361 $366 $139 $225 forward $367 $-1 #
edge $-1 $368 -6.8289821151773538 $369 12.149135789043655 $224 $370 forward 7 unknown #
loop $-1 $-1 $231 $140 #
plane-surface $-1 -14.519798141738946 -21.309783510347785 52.572439275296531 0 0.64278761758704617 0.76604443648966558 1 0 0 forward_v I I I I #
loop $-1 $-1 $371 $89 #
coedge $-1 $229 $229 $230 $372 reversed $141 $-1 #
coedge $-1 $230 $230 $229 $372 forward $143 $-1 #
coedge $-1 $231 $231 $144 $232 forward $226 $-1 #
edge $-1 $373 -2.1894809326038617e-016 $373 6.2831853071796004 $231 $374 forward 7 unknown #
loop $-1 $-1 $238 $145 #
plane-surface $-1 -14.519798141738946 -21.309783510347785 52.572439275296531 0 0.64278761758704617 0.76604443648966558 1 0 0 forward_v I I I I #
loop $-1 $-1 $375 $92 #
coedge $-1 $236 $236 $237 $376 reversed $146 $-1 #
coedge $-1 $237 $237 $236 $376 forward $148 $-1 #
coedge $-1 $238 $238 $149 $239 forward $233 $-1 #
edge $-1 $377 -2.1894809326038617e-016 $377 6.2831853071796004 $238 $378 forward 7 unknown #
loop $-1 $-1 $245 $150 #
plane-surface $-1 -14.519798141738946 -21.309783510347785 52.572439275296531 0 0.64278761758704617 0.76604443648966558 1 0 0 forward_v I I I I #
loop $-1 $-1 $379 $95 #
coedge $-1 $243 $243 $244 $380 reversed $151 $-1 #
coedge $-1 $244 $244 $243 $380 forward $153 $-1 #
coedge $-1 $245 $245 $154 $246 forward $240 $-1 #
edge $-1 $381 -2.1894809326038617e-016 $381 6.2831853071796004 $245 $382 forward 7 unknown #
face $-1 $383 $384 $54 $-1 $385 forward single #
loop $-1 $-1 $386 $155 #
plane-surface $-1 43.857156360248325 66.440623026423197 157.14929932673766 -1 0 0 0 0.64278761758704617 0.76604443648966558 forward_v I I I I #
coedge $-1 $387 $388 $389 $390 reversed $156 $-1 #
coedge $-1 $252 $158 $391 $392 reversed $99 $-1 #
coedge $-1 $158 $251 $387 $393 reversed $99 $-1 #
coedge $-1 $389 $394 $158 $254 forward $384 $-1 #
edge $-1 $395 -6.8289821151773538 $396 12.149135789043655 $253 $397 forward 7 unknown #
loop $-1 $-1 $260 $159 #
plane-surface $-1 33.136653957495881 -21.309783510347785 52.572439275296531 0 0.64278761758704617 0.76604443648966558 1 0 0 forward_v I I I I #
loop $-1 $-1 $398 $101 #
coedge $-1 $258 $258 $259 $399 reversed $160 $-1 #
coedge $-1 $259 $259 $258 $399 forward $162 $-1 #
coedge $-1 $260 $260 $163 $261 forward $255 $-1 #
edge $-1 $400 -2.1894809326038617e-016 $400 6.2831853071796004 $260 $401 forward 7 unknown #
loop $-1 $-1 $267 $164 #
plane-surface $-1 33.136653957495881 -21.309783510347785 52.572439275296531 0 0.64278761758704617 0.76604443648966558 1 0 0 forward_v I I I I #
loop $-1 $-1 $402 $104 #
coedge $-1 $265 $265 $266 $403 reversed $165 $-1 #
coedge $-1 $266 $266 $265 $403 forward $167 $-1 #
coedge $-1 $267 $267 $168 $268 forward $262 $-1 #
edge $-1 $404 -2.1894809326038617e-016 $404 6.2831853071796004 $267 $405 forward 7 unknown #
loop $-1 $-1 $274 $169 #
plane-surface $-1 33.136653957495881 -21.309783510347785 52.572439275296531 0 0.64278761758704617 0.76604443648966558 1 0 0 forward_v I I I I #
loop $-1 $-1 $406 $107 #
coedge $-1 $272 $272 $273 $407 reversed $170 $-1 #
coedge $-1 $273 $273 $272 $407 forward $172 $-1 #
coedge $-1 $274 $274 $173 $275 forward $269 $-1 #
edge $-1 $408 -2.1894809326038617e-016 $408 6.2831853071796004 $274 $409 forward 7 unknown #
face $-1 $410 $411 $58 $-1 $412 forward single #
loop $-1 $-1 $413 $174 #
plane-surface $-1 -49.640842478258385 -127.79970016515992 108.81249093309522 1 0 0 0 0.64278761758704617 -0.76604443648966558 forward_v I I I I #
coedge $-1 $414 $415 $416 $417 reversed $175 $-1 #
coedge $-1 $281 $177 $418 $419 reversed $111 $-1 #
coedge $-1 $177 $280 $414 $420 reversed $111 $-1 #
coedge $-1 $416 $421 $177 $283 forward $411 $-1 #
edge $-1 $422 23.850556454191008 $423 39.075161070790429 $282 $424 forward 7 unknown #
loop $-1 $-1 $289 $178 #
plane-surface $-1 -37.670904109956084 -40.049293628388938 4.2356308816540889 0 -0.64278761758704617 0.76604443648966558 1 0 0 forward_v I I I I #
loop $-1 $-1 $425 $113 #
coedge $-1 $287 $287 $288 $426 reversed $179 $-1 #
coedge $-1 $288 $288 $287 $426 forward $181 $-1 #
coedge $-1 $289 $289 $182 $290 forward $284 $-1 #
edge $-1 $427 1.3701842169390506e-015 $427 6.2831853071796022 $289 $428 forward 7 unknown #
loop $-1 $-1 $296 $183 #
plane-surface $-1 -37.670904109956084 -40.049293628388938 4.2356308816540889 0 -0.64278761758704617 0.76604443648966558 1 0 0 forward_v I I I I #
loop $-1 $-1 $429 $116 #
coedge $-1 $294 $294 $295 $430 reversed $184 $-1 #
coedge $-1 $295 $295 $294 $430 forward $186 $-1 #
coedge $-1 $296 $296 $187 $297 forward $291 $-1 #
edge $-1 $431 1.3701842169390506e-015 $431 6.2831853071796022 $296 $432 forward 7 unknown #
face $-1 $433 $434 $61 $-1 $435 forward single #
loop $-1 $-1 $436 $188 #
plane-surface $-1 0 -40.049293628388952 0 0 1 0 0 0 1 forward_v I I I I #
coedge $-1 $437 $438 $439 $440 reversed $189 $-1 #
coedge $-1 $441 $191 $442 $443 reversed $120 $-1 #
coedge $-1 $191 $441 $437 $444 forward $120 $-1 #
coedge $-1 $439 $445 $191 $305 forward $434 $-1 #
edge $-1 $446 -40.113818331158811 $447 -16.173941594554201 $304 $448 forward 7 unknown #
loop $-1 $-1 $311 $192 #
plane-surface $-1 56.287759925713004 -40.049293628388938 4.2356308816540889 0 -0.64278761758704617 0.76604443648966558 1 0 0 forward_v I I I I #
loop $-1 $-1 $449 $122 #
coedge $-1 $309 $309 $310 $450 reversed $193 $-1 #
coedge $-1 $310 $310 $309 $450 forward $195 $-1 #
coedge $-1 $311 $311 $196 $312 forward $306 $-1 #
edge $-1 $451 1.3701842169390506e-015 $451 6.2831853071796022 $311 $452 forward 7 unknown #
loop $-1 $-1 $318 $197 #
plane-surface $-1 56.287759925713004 -40.049293628388938 4.2356308816540889 0 -0.64278761758704617 0.76604443648966558 1 0 0 forward_v I I I I #
loop $-1 $-1 $453 $125 #
coedge $-1 $316 $316 $317 $454 reversed $198 $-1 #
coedge $-1 $317 $317 $316 $454 forward $200 $-1 #
coedge $-1 $318 $318 $201 $319 forward $313 $-1 #
edge $-1 $455 1.3701842169390506e-015 $455 6.2831853071796022 $318 $456 forward 7 unknown #
face $-1 $457 $458 $48 $-1 $459 reversed single #
loop $-1 $-1 $460 $202 #
plane-surface $-1 -68.257698294015313 0 0 1 0 0 0 0 -1 forward_v I I I I #
coedge $-1 $461 $331 $462 $463 forward $203 $-1 #
coedge $-1 $464 $205 $461 $465 forward $129 $-1 #
coedge $-1 $205 $464 $466 $467 forward $129 $-1 #
coedge $-1 $334 $333 $205 $327 reversed $335 $-1 #
edge $-1 $468 -40.049293628388952 $469 40.049293628388952 $326 $470 forward 7 unknown #
coedge $-1 $207 $206 $471 $472 forward $81 $-1 #
coedge $-1 $473 $474 $206 $330 reversed $458 $-1 #
edge $-1 $337 -68.257698294015313 $475 68.257698294015313 $329 $476 forward 7 unknown #
coedge $-1 $323 $477 $207 $332 reversed $203 $-1 #
edge $-1 $478 -68.257698294015313 $336 68.257698294015313 $331 $479 forward 7 unknown #
coedge $-1 $326 $208 $477 $480 forward $335 $-1 #
coedge $-1 $208 $326 $473 $481 reversed $335 $-1 #
loop $-1 $-1 $333 $457 #
vertex $-1 $209 $482 #
vertex $-1 $209 $483 #
straight-curve $-1 68.257698294015313 0 17.01059126783359 0 1 0 I I #
face $-1 $484 $485 $49 $-1 $486 reversed single #
loop $-1 $-1 $344 $210 #
plane-surface $-1 0 -40.049293628388952 0 0 1 0 0 0 1 forward_v I I I I #
coedge $-1 $487 $488 $343 $489 forward $211 $-1 #
coedge $-1 $351 $213 $342 $489 reversed $133 $-1 #
coedge $-1 $349 $490 $213 $345 forward $340 $-1 #
edge $-1 $491 -10.949007470383657 $352 -1.1741601245162085 $344 $492 forward 7 unknown #
coedge $-1 $215 $214 $493 $494 reversed $84 $-1 #
coedge $-1 $495 $496 $214 $348 forward $497 $-1 #
edge $-1 $498 -38.78306310094689 $353 -20.166207285189955 $347 $499 forward 7 unknown #
coedge $-1 $500 $344 $215 $350 forward $340 $-1 #
edge $-1 $352 20.166207285189955 $501 38.78306310094689 $349 $502 forward 7 unknown #
coedge $-1 $216 $343 $495 $503 reversed $133 $-1 #
vertex $-1 $350 $504 #
vertex $-1 $348 $505 #
straight-curve $-1 -49.640842478258378 0 -7.235743921966141 0 1 0 I I #
face $-1 $-1 $367 $50 $-1 $506 forward single #
loop $-1 $-1 $507 $218 #
plane-surface $-1 0 40.049293628388952 0 0 -1 0 0 0 -1 forward_v I I I I #
coedge $-1 $508 $509 $510 $511 reversed $219 $-1 #
coedge $-1 $512 $221 $223 $365 forward $137 $-1 #
coedge $-1 $221 $512 $508 $513 forward $137 $-1 #
coedge $-1 $510 $224 $221 $362 forward $367 $-1 #
edge $-1 $369 -17.980401473621921 $514 3.4606033318829752 $361 $515 forward 7 unknown #
coedge $-1 $516 $517 $222 $364 forward $356 $-1 #
edge $-1 $518 -77.4885904629447 $368 -61.564058395535241 $363 $519 forward 7 unknown #
edge $-1 $369 55.32441359240584 $518 80.098587256777904 $223 $520 forward 7 unknown #
coedge $-1 $224 $510 $516 $521 forward $367 $-1 #
loop $-1 $-1 $510 $355 #
vertex $-1 $364 $522 #
vertex $-1 $225 $523 #
straight-curve $-1 -25.240300544491394 33.220311513211598 17.01059126783359 0 -1 0 I I #
coedge $-1 $371 $371 $-1 $524 reversed $228 $-1 #
edge $-1 $525 0 $525 6.2831853071796004 $229 $526 forward 7 unknown #
vertex $-1 $232 $527 #
ellipse-curve $-1 -20.952099583390421 30.560234676278437 9.0483252341288676 0 0.64278761758704617 0.76604443648966558 2 0 0 1 I I #
coedge $-1 $375 $375 $-1 $528 reversed $235 $-1 #
edge $-1 $529 0 $529 6.2831853071796004 $236 $530 forward 7 unknown #
vertex $-1 $239 $531 #
ellipse-curve $-1 -14.519798141738953 30.560234676278437 9.0483252341288676 0 0.64278761758704617 0.76604443648966558 2 0 0 1 I I #
coedge $-1 $379 $379 $-1 $532 reversed $242 $-1 #
edge $-1 $533 0 $533 6.2831853071796004 $243 $534 forward 7 unknown #
vertex $-1 $246 $535 #
ellipse-curve $-1 -8.0874967000874847 30.560234676278437 9.0483252341288676 0 0.64278761758704617 0.76604443648966558 2 0 0 1 I I #
face $-1 $-1 $536 $54 $-1 $537 reversed single #
loop $-1 $-1 $253 $247 #
plane-surface $-1 0 0 17.01059126783359 0 0 1 1 0 0 forward_v I I I I #
coedge $-1 $538 $539 $540 $541 reversed $248 $-1 #
coedge $-1 $542 $250 $252 $393 forward $156 $-1 #
coedge $-1 $250 $542 $538 $543 forward $156 $-1 #
coedge $-1 $540 $253 $250 $390 forward $384 $-1 #
edge $-1 $396 5.8478245759954923 $544 27.288829381500385 $389 $545 forward 7 unknown #
coedge $-1 $546 $547 $251 $392 forward $536 $-1 #
edge $-1 $548 -77.4885904629447 $395 -61.564058395535241 $391 $549 forward 7 unknown #
edge $-1 $396 55.32441359240584 $548 80.098587256777904 $252 $550 forward 7 unknown #
coedge $-1 $253 $540 $546 $551 forward $384 $-1 #
vertex $-1 $254 $552 #
vertex $-1 $254 $553 #
straight-curve $-1 22.416151554743433 33.220311513211598 17.01059126783359 0 -1 0 I I #
coedge $-1 $398 $398 $-1 $554 reversed $257 $-1 #
edge $-1 $555 0 $555 6.2831853071796004 $258 $556 forward 7 unknown #
vertex $-1 $261 $557 #
ellipse-curve $-1 26.704352515844406 30.560234676278437 9.0483252341288676 0 0.64278761758704617 0.76604443648966558 2 0 0 1 I I #
coedge $-1 $402 $402 $-1 $558 reversed $264 $-1 #
edge $-1 $559 0 $559 6.2831853071796004 $265 $560 forward 7 unknown #
vertex $-1 $268 $561 #
ellipse-curve $-1 33.136653957495867 30.560234676278437 9.0483252341288676 0 0.64278761758704617 0.76604443648966558 2 0 0 1 I I #
coedge $-1 $406 $406 $-1 $562 reversed $271 $-1 #
edge $-1 $563 0 $563 6.2831853071796004 $272 $564 forward 7 unknown #
vertex $-1 $275 $565 #
ellipse-curve $-1 39.568955399147342 30.560234676278437 9.0483252341288676 0 0.64278761758704617 0.76604443648966558 2 0 0 1 I I #
face $-1 $-1 $566 $58 $-1 $567 reversed single #
loop $-1 $-1 $282 $276 #
plane-surface $-1 0 0 17.01059126783359 0 0 1 1 0 0 forward_v I I I I #
coedge $-1 $568 $569 $570 $571 reversed $277 $-1 #
coedge $-1 $572 $279 $281 $420 forward $175 $-1 #
coedge $-1 $279 $572 $568 $573 forward $175 $-1 #
coedge $-1 $570 $282 $279 $417 forward $411 $-1 #
edge $-1 $423 6.8655136866757402 $574 30.805390423280343 $416 $575 forward 7 unknown #
coedge $-1 $576 $577 $280 $419 forward $566 $-1 #
edge $-1 $578 -50.170614584893535 $422 -37.39565419871402 $418 $579 forward 7 unknown #
edge $-1 $423 -19.874310015702065 $578 1.8307977367429951e-014 $281 $580 forward 7 unknown #
coedge $-1 $282 $570 $576 $581 forward $411 $-1 #
vertex $-1 $283 $582 #
vertex $-1 $283 $583 #
straight-curve $-1 -25.700965741653782 -63.89985008257996 17.01059126783359 0 1 0 I I #
coedge $-1 $425 $425 $-1 $584 reversed $286 $-1 #
edge $-1 $585 0 $585 6.2831853071796004 $287 $586 forward 7 unknown #
vertex $-1 $290 $587 #
ellipse-curve $-1 -42.800877696371359 -32.436991320089248 10.62311107474383 0 -0.64278761758704617 0.76604443648966558 2.5 0 0 1 I I #
coedge $-1 $429 $429 $-1 $588 reversed $293 $-1 #
edge $-1 $589 0 $589 6.2831853071796004 $294 $590 forward 7 unknown #
vertex $-1 $297 $591 #
ellipse-curve $-1 -32.540930523540808 -32.436991320089248 10.62311107474383 0 -0.64278761758704617 0.76604443648966558 2.5 0 0 1 I I #
face $-1 $-1 $592 $61 $-1 $593 reversed single #
loop $-1 $-1 $439 $298 #
plane-surface $-1 0 0 17.01059126783359 0 0 1 1 0 0 forward_v I I I I #
coedge $-1 $594 $595 $438 $596 forward $299 $-1 #
coedge $-1 $438 $301 $303 $444 reversed $189 $-1 #
coedge $-1 $301 $437 $436 $596 reversed $189 $-1 #
coedge $-1 $597 $304 $301 $440 forward $434 $-1 #
edge $-1 $447 -39.075161070790429 $598 -23.850556454191008 $439 $599 forward 7 unknown #
coedge $-1 $303 $302 $594 $600 reversed $120 $-1 #
coedge $-1 $601 $602 $302 $443 forward $592 $-1 #
edge $-1 $603 -13.978463742985923 $446 5.8958462727161622 $442 $604 forward 7 unknown #
edge $-1 $605 -1.8307977367429951e-014 $447 19.874310015702065 $437 $606 forward 7 unknown #
coedge $-1 $304 $597 $601 $607 forward $434 $-1 #
vertex $-1 $443 $608 #
vertex $-1 $305 $609 #
straight-curve $-1 28.143879962856502 -24.82468901178953 17.01059126783359 -1 0 0 I I #
coedge $-1 $449 $449 $-1 $610 reversed $308 $-1 #
edge $-1 $611 0 $611 6.2831853071796004 $309 $612 forward 7 unknown #
vertex $-1 $312 $613 #
ellipse-curve $-1 51.157786339297729 -32.436991320089248 10.62311107474383 0 -0.64278761758704617 0.76604443648966558 2.5 0 0 1 I I #
coedge $-1 $453 $453 $-1 $614 reversed $315 $-1 #
edge $-1 $615 0 $615 6.2831853071796004 $316 $616 forward 7 unknown #
vertex $-1 $319 $617 #
ellipse-curve $-1 61.417733512128279 -32.436991320089248 10.62311107474383 0 -0.64278761758704617 0.76604443648966558 2.5 0 0 1 I I #
face $-1 $-1 $335 $48 $-1 $618 reversed single #
loop $-1 $-1 $473 $320 #
plane-surface $-1 0 40.049293628388952 0 0 -1 0 0 0 -1 forward_v I I I I #
coedge $-1 $619 $471 $474 $620 forward $321 $-1 #
coedge $-1 $477 $323 $324 $465 reversed $203 $-1 #
coedge $-1 $471 $619 $323 $463 reversed $321 $-1 #
edge $-1 $478 -17.01059126783359 $621 17.01059126783359 $462 $622 forward 7 unknown #
coedge $-1 $325 $324 $619 $623 forward $129 $-1 #
edge $-1 $469 -68.257698294015313 $621 68.257698294015313 $461 $624 forward 7 unknown #
coedge $-1 $474 $473 $325 $467 reversed $458 $-1 #
edge $-1 $625 -68.257698294015313 $468 68.257698294015313 $466 $626 forward 7 unknown #
vertex $-1 $327 $627 #
vertex $-1 $480 $628 #
straight-curve $-1 68.257698294015313 0 -17.01059126783359 0 -1 0 I I #
coedge $-1 $460 $462 $328 $472 reversed $321 $-1 #
edge $-1 $475 -40.049293628388952 $478 40.049293628388952 $471 $629 forward 7 unknown #
coedge $-1 $466 $329 $334 $481 forward $458 $-1 #
coedge $-1 $329 $466 $460 $620 reversed $458 $-1 #
vertex $-1 $330 $630 #
straight-curve $-1 0 40.049293628388952 17.01059126783359 -1 0 0 I I #
coedge $-1 $331 $461 $333 $480 reversed $203 $-1 #
vertex $-1 $472 $631 #
straight-curve $-1 0 -40.049293628388952 17.01059126783359 1 0 0 I I #
edge $-1 $336 -17.01059126783359 $469 17.01059126783359 $333 $632 forward 7 unknown #
edge $-1 $337 -17.01059126783359 $468 17.01059126783359 $334 $633 forward 7 unknown #
point $-1 68.257698294015313 -40.049293628388952 17.01059126783359 #
point $-1 68.257698294015313 40.049293628388952 17.01059126783359 #
face $-1 $-1 $497 $49 $-1 $634 reversed single #
loop $-1 $-1 $493 $339 #
plane-surface $-1 -68.257698294015313 0 0 1 0 0 0 0 -1 forward_v I I I I #
coedge $-1 $635 $342 $490 $636 forward $211 $-1 #
coedge $-1 $342 $635 $637 $638 forward $211 $-1 #
edge $-1 $639 -40.049293628388952 $491 40.049293628388952 $342 $640 forward 7 unknown #
coedge $-1 $344 $500 $487 $636 reversed $340 $-1 #
vertex $-1 $636 $641 #
straight-curve $-1 -49.640842478258378 -40.049293628388952 -6.0615837974499325 0 0 1 I I #
coedge $-1 $642 $643 $346 $494 forward $485 $-1 #
edge $-1 $501 -40.049293628388952 $498 40.049293628388952 $493 $644 forward 7 unknown #
coedge $-1 $637 $347 $351 $503 forward $497 $-1 #
coedge $-1 $347 $637 $642 $645 reversed $497 $-1 #
loop $-1 $-1 $495 $484 #
vertex $-1 $645 $646 #
straight-curve $-1 -29.474635193068423 40.049293628388952 -7.235743921966141 1 0 0 I I #
coedge $-1 $490 $349 $643 $647 forward $340 $-1 #
vertex $-1 $647 $648 #
straight-curve $-1 -29.474635193068423 -40.049293628388952 -7.235743921966141 -1 0 0 I I #
edge $-1 $353 1.1741601245162085 $639 10.949007470383657 $495 $649 forward 7 unknown #
point $-1 -49.640842478258378 -40.049293628388952 -7.235743921966141 #
point $-1 -49.640842478258378 40.049293628388952 -7.235743921966141 #
plane-surface $-1 0 0 17.01059126783359 0 0 1 1 0 0 forward_v I I I I #
coedge $-1 $517 $516 $509 $650 forward $356 $-1 #
coedge $-1 $509 $358 $360 $513 reversed $219 $-1 #
coedge $-1 $358 $508 $507 $650 reversed $219 $-1 #
coedge $-1 $366 $361 $358 $511 forward $367 $-1 #
edge $-1 $514 -12.149135789043655 $651 6.8289821151773538 $510 $652 forward 7 unknown #
coedge $-1 $360 $359 $517 $653 reversed $137 $-1 #
edge $-1 $654 -80.098587256777904 $514 -55.32441359240584 $508 $655 forward 7 unknown #
vertex $-1 $362 $656 #
straight-curve $-1 -7.2598990708694728 21.071175724167936 17.010591267833593 1 0 0 I I #
coedge $-1 $507 $363 $366 $521 reversed $356 $-1 #
coedge $-1 $363 $507 $512 $653 forward $356 $-1 #
vertex $-1 $364 $657 #
straight-curve $-1 -25.240300544491394 40.049293628388952 78.574649663368831 0 0 1 I I #
straight-curve $-1 -25.240300544491394 -21.309783510347785 52.572439275296531 0 0.76604443648966558 -0.64278761758704617 I I #
edge $-1 $651 3.7992957389864976 $368 25.240300544491394 $516 $658 forward 7 unknown #
point $-1 -25.240300544491394 40.049293628388952 17.01059126783359 #
point $-1 -25.240300544491394 21.071175724167944 17.01059126783359 #
edge $-1 $659 1 $659 0 $371 $-1 forward 7 unknown #
vertex $-1 $372 $660 #
ellipse-curve $-1 -20.952099583390421 25.689000336119733 3.2430143304684487 0 0.64278761758704617 0.76604443648966558 2 0 0 1 I I #
point $-1 -18.952099583390421 30.560234676278434 9.048325234128864 #
edge $-1 $661 1 $661 0 $375 $-1 forward 7 unknown #
vertex $-1 $376 $662 #
ellipse-curve $-1 -14.519798141738953 25.689000336119733 3.2430143304684487 0 0.64278761758704617 0.76604443648966558 2 0 0 1 I I #
point $-1 -12.519798141738953 30.560234676278434 9.048325234128864 #
edge $-1 $663 1 $663 0 $379 $-1 forward 7 unknown #
vertex $-1 $380 $664 #
ellipse-curve $-1 -8.0874967000874847 25.689000336119733 3.2430143304684487 0 0.64278761758704617 0.76604443648966558 2 0 0 1 I I #
point $-1 -6.0874967000874847 30.560234676278434 9.048325234128864 #
loop $-1 $-1 $391 $383 #
plane-surface $-1 0 40.049293628388952 0 0 -1 0 0 0 -1 forward_v I I I I #
coedge $-1 $539 $386 $388 $543 reversed $248 $-1 #
coedge $-1 $386 $538 $665 $666 reversed $248 $-1 #
coedge $-1 $394 $389 $386 $541 forward $384 $-1 #
edge $-1 $544 -12.149135789043655 $667 6.8289821151773538 $540 $668 forward 7 unknown #
coedge $-1 $388 $387 $547 $669 reversed $156 $-1 #
edge $-1 $670 -80.098587256777904 $544 -55.32441359240584 $538 $671 forward 7 unknown #
vertex $-1 $390 $672 #
straight-curve $-1 16.56832697874794 21.071175724167936 17.010591267833593 1 0 0 I I #
coedge $-1 $665 $391 $394 $551 reversed $536 $-1 #
coedge $-1 $391 $665 $542 $669 forward $536 $-1 #
vertex $-1 $392 $673 #
straight-curve $-1 22.416151554743433 40.049293628388952 78.574649663368831 0 0 1 I I #
straight-curve $-1 22.416151554743433 -21.309783510347785 52.572439275296531 0 0.76604443648966558 -0.64278761758704617 I I #
edge $-1 $667 -43.857156360248325 $395 -22.416151554743433 $546 $674 forward 7 unknown #
point $-1 22.416151554743433 40.049293628388952 17.01059126783359 #
point $-1 22.416151554743433 21.071175724167944 17.01059126783359 #
edge $-1 $675 1 $675 0 $398 $-1 forward 7 unknown #
vertex $-1 $399 $676 #
ellipse-curve $-1 26.704352515844406 25.689000336119733 3.2430143304684487 0 0.64278761758704617 0.76604443648966558 2 0 0 1 I I #
point $-1 28.704352515844406 30.560234676278434 9.048325234128864 #
edge $-1 $677 1 $677 0 $402 $-1 forward 7 unknown #
vertex $-1 $403 $678 #
ellipse-curve $-1 33.136653957495867 25.689000336119733 3.2430143304684487 0 0.64278761758704617 0.76604443648966558 2 0 0 1 I I #
point $-1 35.136653957495867 30.560234676278434 9.048325234128864 #
edge $-1 $679 1 $679 0 $406 $-1 forward 7 unknown #
vertex $-1 $407 $680 #
ellipse-curve $-1 39.568955399147342 25.689000336119733 3.2430143304684487 0 0.64278761758704617 0.76604443648966558 2 0 0 1 I I #
point $-1 41.568955399147342 30.560234676278434 9.048325234128864 #
loop $-1 $-1 $418 $410 #
plane-surface $-1 0 -40.049293628388952 0 0 1 0 0 0 1 forward_v I I I I #
coedge $-1 $569 $413 $415 $573 reversed $277 $-1 #
coedge $-1 $413 $568 $681 $682 reversed $277 $-1 #
coedge $-1 $421 $416 $413 $571 forward $411 $-1 #
edge $-1 $574 -39.075161070790429 $683 -23.850556454191008 $570 $684 forward 7 unknown #
coedge $-1 $415 $414 $577 $685 reversed $175 $-1 #
edge $-1 $686 -1.8307977367429951e-014 $574 19.874310015702065 $568 $687 forward 7 unknown #
vertex $-1 $417 $688 #
straight-curve $-1 -18.835452054978042 -24.82468901178953 17.01059126783359 -1 0 0 I I #
coedge $-1 $681 $418 $421 $581 reversed $566 $-1 #
coedge $-1 $418 $681 $572 $685 forward $566 $-1 #
vertex $-1 $419 $689 #
straight-curve $-1 -25.700965741653782 -40.049293628388952 54.40624546654761 0 0 1 I I #
straight-curve $-1 -25.700965741653782 -40.049293628388938 4.2356308816540889 0 -0.76604443648966558 -0.64278761758704617 I I #
edge $-1 $683 -49.640842478258385 $422 -25.700965741653782 $576 $690 forward 7 unknown #
point $-1 -25.700965741653782 -40.049293628388952 17.01059126783359 #
point $-1 -25.700965741653782 -24.82468901178953 17.01059126783359 #
edge $-1 $691 1 $691 0 $425 $-1 forward 7 unknown #
vertex $-1 $426 $692 #
ellipse-curve $-1 -42.800877696371359 -28.316064936028738 5.7119823545868487 0 -0.64278761758704617 0.76604443648966558 2.5 0 0 1 I I #
point $-1 -40.300877696371359 -32.436991320089248 10.623111074743836 #
edge $-1 $693 1 $693 0 $429 $-1 forward 7 unknown #
vertex $-1 $430 $694 #
ellipse-curve $-1 -32.540930523540808 -28.316064936028738 5.7119823545868487 0 -0.64278761758704617 0.76604443648966558 2.5 0 0 1 I I #
point $-1 -30.040930523540808 -32.436991320089248 10.623111074743836 #
loop $-1 $-1 $442 $433 #
plane-surface $-1 68.257698294015313 0 0 -1 0 0 0 0 1 forward_v I I I I #
coedge $-1 $695 $436 $441 $600 forward $299 $-1 #
coedge $-1 $436 $695 $597 $696 reversed $299 $-1 #
edge $-1 $598 37.39565419871402 $605 50.170614584893535 $436 $697 forward 7 unknown #
coedge $-1 $445 $439 $595 $696 forward $434 $-1 #
vertex $-1 $696 $698 #
straight-curve $-1 44.317821557410703 -63.89985008257996 17.01059126783359 0 -1 0 I I #
edge $-1 $605 16.173941594554201 $603 40.113818331158811 $594 $699 forward 7 unknown #
coedge $-1 $602 $442 $445 $607 reversed $592 $-1 #
coedge $-1 $442 $601 $695 $700 forward $592 $-1 #
vertex $-1 $600 $701 #
straight-curve $-1 68.257698294015313 -29.341169247402078 13.220814288534902 0 0.76604443648966558 0.64278761758704617 I I #
vertex $-1 $600 $702 #
straight-curve $-1 44.317821557410703 -40.049293628388938 4.2356308816540889 0 0.76604443648966558 0.64278761758704617 I I #
edge $-1 $703 -40.049293628388952 $446 -24.82468901178953 $601 $704 forward 7 unknown #
point $-1 68.257698294015313 -24.82468901178953 17.01059126783359 #
point $-1 44.317821557410703 -24.82468901178953 17.01059126783359 #
edge $-1 $705 1 $705 0 $449 $-1 forward 7 unknown #
vertex $-1 $450 $706 #
ellipse-curve $-1 51.157786339297729 -28.316064936028738 5.7119823545868487 0 -0.64278761758704617 0.76604443648966558 2.5 0 0 1 I I #
point $-1 53.657786339297729 -32.436991320089248 10.623111074743836 #
edge $-1 $707 1 $707 0 $453 $-1 forward 7 unknown #
vertex $-1 $454 $708 #
ellipse-curve $-1 61.417733512128279 -28.316064936028738 5.7119823545868487 0 -0.64278761758704617 0.76604443648966558 2.5 0 0 1 I I #
point $-1 63.917733512128279 -32.436991320089248 10.623111074743836 #
plane-surface $-1 68.257698294015313 0 0 -1 0 0 0 0 1 forward_v I I I I #
coedge $-1 $462 $460 $464 $623 reversed $321 $-1 #
edge $-1 $475 -17.01059126783359 $625 17.01059126783359 $474 $709 forward 7 unknown #
vertex $-1 $623 $710 #
straight-curve $-1 -68.257698294015313 -40.049293628388952 0 0 0 -1 I I #
edge $-1 $621 -40.049293628388952 $625 40.049293628388952 $619 $711 forward 7 unknown #
straight-curve $-1 0 -40.049293628388952 -17.01059126783359 -1 0 0 I I #
vertex $-1 $467 $712 #
straight-curve $-1 0 40.049293628388952 -17.01059126783359 1 0 0 I I #
point $-1 68.257698294015313 40.049293628388952 -17.01059126783359 #
point $-1 68.257698294015313 -40.049293628388952 -17.01059126783359 #
straight-curve $-1 -68.257698294015313 0 17.01059126783359 0 -1 0 I I #
point $-1 -68.257698294015313 40.049293628388952 17.01059126783359 #
point $-1 -68.257698294015313 -40.049293628388952 17.01059126783359 #
straight-curve $-1 68.257698294015313 -40.049293628388952 0 0 0 -1 I I #
straight-curve $-1 68.257698294015313 40.049293628388952 0 0 0 -1 I I #
plane-surface $-1 0 40.049293628388952 0 0 -1 0 0 0 -1 forward_v I I I I #
coedge $-1 $488 $487 $713 $714 forward $211 $-1 #
edge $-1 $491 49.640842478258378 $715 68.257698294015313 $490 $716 forward 7 unknown #
coedge $-1 $496 $495 $488 $638 reversed $497 $-1 #
edge $-1 $717 -68.257698294015313 $639 -49.640842478258378 $637 $718 forward 7 unknown #
vertex $-1 $503 $719 #
straight-curve $-1 -49.640842478258378 0 -17.01059126783359 0 -1 0 I I #
point $-1 -49.640842478258378 -40.049293628388952 -17.01059126783359 #
coedge $-1 $713 $493 $496 $645 forward $485 $-1 #
coedge $-1 $493 $713 $500 $647 reversed $485 $-1 #
straight-curve $-1 -68.257698294015313 0 -7.235743921966141 0 1 0 I I #
edge $-1 $498 7.235743921966141 $717 17.01059126783359 $496 $720 forward 7 unknown #
point $-1 -68.257698294015313 40.049293628388952 -7.235743921966141 #
edge $-1 $501 7.235743921966141 $715 17.01059126783359 $643 $721 forward 7 unknown #
point $-1 -68.257698294015313 -40.049293628388952 -7.235743921966141 #
straight-curve $-1 -49.640842478258378 40.049293628388952 -6.0615837974499325 0 0 -1 I I #
edge $-1 $651 61.564058395535241 $654 77.4885904629447 $507 $722 forward 7 unknown #
vertex $-1 $521 $723 #
straight-curve $-1 -3.7992957389864976 33.220311513211598 17.01059126783359 0 1 0 I I #
edge $-1 $654 -3.4606033318829752 $518 17.980401473621921 $517 $724 forward 7 unknown #
vertex $-1 $653 $725 #
straight-curve $-1 -3.7992957389864976 -21.309783510347785 52.572439275296531 0 -0.76604443648966558 0.64278761758704617 I I #
point $-1 -3.7992957389864976 21.071175724167944 17.01059126783359 #
point $-1 -25.240300544491394 40.049293628388952 1.0860592004241241 #
straight-curve $-1 0 40.049293628388952 17.01059126783359 -1 0 0 I I #
vertex $-1 $524 $726 #
point $-1 -18.952099583390421 25.689000336119733 3.2430143304684487 #
vertex $-1 $528 $727 #
point $-1 -12.519798141738953 25.689000336119733 3.2430143304684487 #
vertex $-1 $532 $728 #
point $-1 -6.0874967000874847 25.689000336119733 3.2430143304684487 #
coedge $-1 $547 $546 $539 $666 forward $536 $-1 #
edge $-1 $667 61.564058395535241 $670 77.4885904629447 $665 $729 forward 7 unknown #
vertex $-1 $551 $730 #
straight-curve $-1 43.857156360248325 33.220311513211598 17.01059126783359 0 1 0 I I #
edge $-1 $670 -27.288829381500385 $548 -5.8478245759954923 $547 $731 forward 7 unknown #
vertex $-1 $669 $732 #
straight-curve $-1 43.857156360248325 -21.309783510347785 52.572439275296531 0 -0.76604443648966558 0.64278761758704617 I I #
point $-1 43.857156360248325 21.071175724167944 17.01059126783359 #
point $-1 22.416151554743433 40.049293628388952 1.0860592004241241 #
straight-curve $-1 0 40.049293628388952 17.01059126783359 -1 0 0 I I #
vertex $-1 $554 $733 #
point $-1 28.704352515844406 25.689000336119733 3.2430143304684487 #
vertex $-1 $558 $734 #
point $-1 35.136653957495867 25.689000336119733 3.2430143304684487 #
vertex $-1 $562 $735 #
point $-1 41.568955399147342 25.689000336119733 3.2430143304684487 #
coedge $-1 $577 $576 $569 $682 forward $566 $-1 #
edge $-1 $683 37.39565419871402 $686 50.170614584893535 $681 $736 forward 7 unknown #
vertex $-1 $581 $737 #
straight-curve $-1 -49.640842478258385 -63.89985008257996 17.01059126783359 0 -1 0 I I #
edge $-1 $686 -30.805390423280343 $578 -6.8655136866757402 $577 $738 forward 7 unknown #
vertex $-1 $685 $739 #
straight-curve $-1 -49.640842478258385 -40.049293628388938 4.2356308816540889 0 0.76604443648966558 0.64278761758704617 I I #
point $-1 -49.640842478258385 -24.82468901178953 17.01059126783359 #
point $-1 -25.700965741653782 -40.049293628388952 4.2356308816540773 #
straight-curve $-1 0 -40.049293628388952 17.01059126783359 1 0 0 I I #
vertex $-1 $584 $740 #
point $-1 -40.300877696371359 -28.316064936028738 5.7119823545868487 #
vertex $-1 $588 $741 #
point $-1 -30.040930523540808 -28.316064936028738 5.7119823545868487 #
coedge $-1 $595 $594 $602 $700 reversed $299 $-1 #
edge $-1 $598 44.317821557410703 $703 68.257698294015313 $595 $742 forward 7 unknown #
straight-curve $-1 44.317821557410703 -40.049293628388952 54.40624546654761 0 0 -1 I I #
point $-1 44.317821557410703 -40.049293628388952 17.01059126783359 #
straight-curve $-1 28.143879962856502 -40.049293628388952 4.2356308816540782 1 0 0 I I #
edge $-1 $703 -17.01059126783359 $603 -4.2356308816540773 $602 $743 forward 7 unknown #
point $-1 68.257698294015313 -40.049293628388952 4.2356308816540773 #
point $-1 44.317821557410703 -40.049293628388952 4.2356308816540773 #
vertex $-1 $607 $744 #
straight-curve $-1 68.257698294015313 0 17.01059126783359 0 1 0 I I #
vertex $-1 $610 $745 #
point $-1 53.657786339297729 -28.316064936028738 5.7119823545868487 #
vertex $-1 $614 $746 #
point $-1 63.917733512128279 -28.316064936028738 5.7119823545868487 #
straight-curve $-1 -68.257698294015313 40.049293628388952 0 0 0 -1 I I #
point $-1 -68.257698294015313 -40.049293628388952 -17.01059126783359 #
straight-curve $-1 -68.257698294015313 0 -17.01059126783359 0 1 0 I I #
point $-1 -68.257698294015313 40.049293628388952 -17.01059126783359 #
coedge $-1 $643 $642 $635 $714 reversed $485 $-1 #
edge $-1 $715 -40.049293628388952 $717 40.049293628388952 $713 $747 forward 7 unknown #
vertex $-1 $714 $748 #
straight-curve $-1 0 -40.049293628388952 -17.01059126783359 -1 0 0 I I #
vertex $-1 $638 $749 #
straight-curve $-1 0 40.049293628388952 -17.01059126783359 1 0 0 I I #
point $-1 -49.640842478258378 40.049293628388952 -17.01059126783359 #
straight-curve $-1 -68.257698294015313 40.049293628388952 0 0 0 -1 I I #
straight-curve $-1 -68.257698294015313 -40.049293628388952 0 0 0 -1 I I #
straight-curve $-1 -3.7992957389864976 40.049293628388952 78.574649663368831 0 0 -1 I I #
point $-1 -3.7992957389864976 40.049293628388952 17.01059126783359 #
straight-curve $-1 -7.2598990708694728 40.049293628388952 1.0860592004241347 -1 0 0 I I #
point $-1 -3.7992957389864976 40.049293628388952 1.0860592004241241 #
point $-1 -20.952099583390421 24.40342510094564 1.7109254574891173 #
point $-1 -14.519798141738953 24.40342510094564 1.7109254574891173 #
point $-1 -8.0874967000874847 24.40342510094564 1.7109254574891173 #
straight-curve $-1 43.857156360248325 40.049293628388952 78.574649663368831 0 0 -1 I I #
point $-1 43.857156360248325 40.049293628388952 17.01059126783359 #
straight-curve $-1 16.56832697874794 40.049293628388952 1.0860592004241347 -1 0 0 I I #
point $-1 43.857156360248325 40.049293628388952 1.0860592004241241 #
point $-1 26.704352515844406 24.40342510094564 1.7109254574891173 #
point $-1 33.136653957495867 24.40342510094564 1.7109254574891173 #
point $-1 39.568955399147342 24.40342510094564 1.7109254574891173 #
straight-curve $-1 -49.640842478258385 -40.049293628388952 54.40624546654761 0 0 -1 I I #
point $-1 -49.640842478258385 -40.049293628388952 17.01059126783359 #
straight-curve $-1 -18.835452054978042 -40.049293628388952 4.2356308816540782 1 0 0 I I #
point $-1 -49.640842478258385 -40.049293628388952 4.2356308816540773 #
point $-1 -42.800877696371359 -26.709095892061121 3.7968712633626849 #
point $-1 -32.540930523540808 -26.709095892061121 3.7968712633626849 #
straight-curve $-1 0 -40.049293628388952 17.01059126783359 1 0 0 I I #
straight-curve $-1 68.257698294015313 -40.049293628388952 0 0 0 -1 I I #
point $-1 68.257698294015313 -40.049293628388952 17.01059126783359 #
point $-1 51.157786339297729 -26.709095892061121 3.7968712633626849 #
point $-1 61.417733512128279 -26.709095892061121 3.7968712633626849 #
straight-curve $-1 -68.257698294015313 0 -17.01059126783359 0 1 0 I I #
point $-1 -68.257698294015313 -40.049293628388952 -17.01059126783359 #
point $-1 -68.257698294015313 40.049293628388952 -17.01059126783359 #
End-of-ACIS-data 