500 0 10 0           
7 Unknown 11 ACIS 5.0 NT 24 Thu Mar 25 15:58:53 1999 
-1 9.9999999999999995e-007 1e-010 
body $-1 $10 $-1 $11 #
body $-1 $12 $-1 $13 #
body $-1 $14 $-1 $15 #
body $-1 $16 $-1 $17 #
body $-1 $18 $-1 $19 #
body $-1 $20 $-1 $21 #
body $-1 $22 $-1 $23 #
body $-1 $24 $-1 $25 #
body $-1 $26 $-1 $27 #
body $-1 $28 $-1 $29 #
lump $-1 $-1 $30 $0 #
transform $-1 1 0 0 0 1 0 0 0 1 53.362224188970615 28.66841401952577 8.4636871456247587 1 rotate no_reflect no_shear #
lump $-1 $-1 $31 $1 #
transform $-1 1 0 0 0 1 0 0 0 1 53.362224188970615 28.66841401952577 8.4636871456247587 1 rotate no_reflect no_shear #
lump $-1 $-1 $32 $2 #
transform $-1 1 0 0 0 1 0 0 0 1 53.362224188970615 28.66841401952577 8.4636871456247587 1 rotate no_reflect no_shear #
lump $-1 $-1 $33 $3 #
transform $-1 1 0 0 0 1 0 0 0 1 53.362224188970615 28.66841401952577 8.4636871456247587 1 rotate no_reflect no_shear #
lump $-1 $-1 $34 $4 #
transform $-1 1 0 0 0 1 0 0 0 1 53.362224188970615 28.66841401952577 8.4636871456247587 1 rotate no_reflect no_shear #
lump $-1 $-1 $35 $5 #
transform $-1 1 0 0 0 1 0 0 0 1 53.362224188970615 28.66841401952577 8.4636871456247587 1 rotate no_reflect no_shear #
lump $-1 $-1 $36 $6 #
transform $-1 1 0 0 0 1 0 0 0 1 53.362224188970615 28.66841401952577 8.4636871456247587 1 rotate no_reflect no_shear #
lump $-1 $-1 $37 $7 #
transform $-1 1 0 0 0 1 0 0 0 1 53.362224188970615 28.66841401952577 8.4636871456247587 1 rotate no_reflect no_shear #
lump $-1 $-1 $38 $8 #
transform $-1 1 0 0 0 1 0 0 0 1 53.362224188970615 28.66841401952577 8.4636871456247587 1 rotate no_reflect no_shear #
lump $-1 $-1 $39 $9 #
transform $-1 1 0 0 0 1 0 0 0 1 53.362224188970615 28.66841401952577 8.4636871456247587 1 rotate no_reflect no_shear #
shell $-1 $-1 $-1 $40 $-1 $10 #
shell $-1 $-1 $-1 $41 $-1 $12 #
shell $-1 $-1 $-1 $42 $-1 $14 #
shell $-1 $-1 $-1 $43 $-1 $16 #
shell $-1 $-1 $-1 $44 $-1 $18 #
shell $-1 $-1 $-1 $45 $-1 $20 #
shell $-1 $-1 $-1 $46 $-1 $22 #
shell $-1 $-1 $-1 $47 $-1 $24 #
shell $-1 $-1 $-1 $48 $-1 $26 #
shell $-1 $-1 $-1 $49 $-1 $28 #
face $-1 $50 $51 $30 $-1 $52 forward single #
face $-1 $53 $54 $31 $-1 $55 reversed single #
face $-1 $56 $57 $32 $-1 $58 reversed single #
face $-1 $59 $60 $33 $-1 $61 forward single #
face $-1 $62 $63 $34 $-1 $64 reversed single #
face $-1 $65 $66 $35 $-1 $67 forward single #
face $-1 $68 $69 $36 $-1 $70 reversed single #
face $-1 $71 $72 $37 $-1 $73 forward single #
face $-1 $74 $75 $38 $-1 $76 reversed single #
face $-1 $77 $78 $39 $-1 $79 forward single #
face $-1 $80 $81 $30 $-1 $82 reversed single #
loop $-1 $-1 $83 $40 #
plane-surface $-1 0 0 8.4636871456247587 0 0 1 1 0 0 forward_v I I I I #
face $-1 $84 $85 $31 $-1 $86 reversed single #
loop $-1 $-1 $87 $41 #
plane-surface $-1 0 -24.964365946118654 5.4636871456247587 0 0 1 1 0 0 forward_v I I I I #
face $-1 $88 $89 $32 $-1 $90 reversed single #
loop $-1 $-1 $91 $42 #
plane-surface $-1 16.848672462879662 -14.578211885251338 148.92317062808786 0 -1 0 -0.51503808176128008 0 -0.85716729658548041 forward_v I I I I #
face $-1 $92 $93 $33 $-1 $94 forward single #
loop $-1 $95 $96 $43 #
cone-surface $-1 47.929083859904942 -17.919264878981441 4.7206176764959267 -0.51503808176128008 0 -0.85716729658548041 1.2857509448782207 0 -0.77255712264192011 1 I I 0 1 1.5 forward I I I I #
face $-1 $97 $98 $34 $-1 $99 reversed single #
loop $-1 $-1 $100 $44 #
plane-surface $-1 -38.118482706725949 25.327361025795668 57.442463732391317 0.51503808176128008 0 0.85716729658548041 0.85716729658548041 0 -0.51503808176128008 forward_v I I I I #
face $-1 $101 $102 $35 $-1 $103 forward single #
loop $-1 $104 $105 $45 #
cone-surface $-1 47.929083859904942 25.327361025795668 4.7206176764959267 -0.51503808176128008 0 -0.85716729658548041 1.2857509448782207 0 -0.77255712264192011 1 I I 0 1 1.5 forward I I I I #
face $-1 $106 $107 $36 $-1 $108 reversed single #
loop $-1 $-1 $109 $46 #
plane-surface $-1 -117.59060137355205 -17.070882239963623 90.61524946529083 0 1 0 -0.6018150307709319 0 0.79863550430605224 forward_v I I I I #
face $-1 $110 $111 $37 $-1 $112 forward single #
loop $-1 $113 $114 $47 #
cone-surface $-1 -50.674725346808444 -11.44789984792915 6.0701718921516914 0.6018150307709319 0 -0.79863550430605224 0.79863550430605224 0 0.6018150307709319 1 I I 0 1 1 forward I I I I #
face $-1 $115 $116 $38 $-1 $117 reversed single #
loop $-1 $-1 $118 $48 #
plane-surface $-1 -117.59060137355205 7.8934837061550294 90.61524946529083 0 1 0 -0.6018150307709319 0 0.79863550430605224 forward_v I I I I #
face $-1 $119 $120 $39 $-1 $121 forward single #
loop $-1 $122 $123 $49 #
cone-surface $-1 -50.674725346808444 13.516466098189504 6.0701718921516914 0.6018150307709319 0 -0.79863550430605224 0.79863550430605224 0 0.6018150307709319 1 I I 0 1 1 forward I I I I #
face $-1 $124 $125 $30 $-1 $126 reversed single #
loop $-1 $-1 $127 $50 #
plane-surface $-1 0 0 -8.4636871456247587 0 0 1 1 0 0 forward_v I I I I #
coedge $-1 $128 $129 $130 $131 forward $51 $-1 #
face $-1 $132 $133 $31 $-1 $134 reversed single #
loop $-1 $-1 $135 $53 #
plane-surface $-1 0 -21.260317872711539 6.9636871456247587 0 -1 0 0 0 -1 forward_v I I I I #
coedge $-1 $136 $137 $138 $139 reversed $54 $-1 #
face $-1 $140 $141 $32 $-1 $142 forward single #
loop $-1 $-1 $143 $56 #
plane-surface $-1 -38.118482706725949 -17.919264878981441 57.442463732391317 0.51503808176128008 0 0.85716729658548041 0.85716729658548041 0 -0.51503808176128008 forward_v I I I I #
coedge $-1 $144 $145 $146 $147 reversed $57 $-1 #
face $-1 $-1 $148 $33 $-1 $149 forward single #
loop $-1 $150 $151 $59 #
cone-surface $-1 47.092832683281358 -17.919264878981441 3.3288620263475099 -0.51503808176128008 0 -0.85716729658548041 0.64287547243911036 0 -0.38627856132096006 1 I I -0.70710678118654757 0.70710678118654757 0.75 forward I I I I #
loop $-1 $-1 $152 $43 #
coedge $-1 $96 $96 $153 $154 reversed $60 $-1 #
face $-1 $155 $156 $34 $-1 $157 reversed single #
loop $-1 $-1 $158 $62 #
plane-surface $-1 16.848672462879662 21.986308032065565 148.92317062808786 0 1 0 0.51503808176128008 0 0.85716729658548041 forward_v I I I I #
coedge $-1 $159 $160 $161 $162 reversed $63 $-1 #
face $-1 $-1 $163 $35 $-1 $164 forward single #
loop $-1 $165 $166 $65 #
cone-surface $-1 47.092832683281358 25.327361025795668 3.3288620263475099 -0.51503808176128008 0 -0.85716729658548041 0.64287547243911036 0 -0.38627856132096006 1 I I -0.70710678118654757 0.70710678118654757 0.75 forward I I I I #
loop $-1 $-1 $167 $45 #
coedge $-1 $105 $105 $168 $169 reversed $66 $-1 #
face $-1 $170 $171 $36 $-1 $172 reversed single #
loop $-1 $-1 $173 $68 #
plane-surface $-1 -53.362224188970615 -11.44789984792915 5.3813158131884933 -0.6018150307709319 0 0.79863550430605224 0.79863550430605224 0 0.6018150307709319 forward_v I I I I #
coedge $-1 $174 $175 $176 $177 reversed $69 $-1 #
face $-1 $-1 $178 $37 $-1 $179 forward single #
loop $-1 $180 $181 $71 #
cone-surface $-1 -49.731541406176248 -11.44789984792915 4.8185245527437246 0.6018150307709319 0 -0.79863550430605224 0.39931775215302612 0 0.30090751538546595 1 I I -0.70710678118654746 0.70710678118654746 0.5 forward I I I I #
loop $-1 $-1 $182 $47 #
coedge $-1 $114 $114 $183 $184 reversed $72 $-1 #
face $-1 $185 $186 $38 $-1 $187 reversed single #
loop $-1 $-1 $188 $74 #
plane-surface $-1 -53.362224188970615 13.516466098189504 5.3813158131884933 -0.6018150307709319 0 0.79863550430605224 0.79863550430605224 0 0.6018150307709319 forward_v I I I I #
coedge $-1 $189 $190 $191 $192 reversed $75 $-1 #
face $-1 $-1 $193 $39 $-1 $194 forward single #
loop $-1 $195 $196 $77 #
cone-surface $-1 -49.731541406176248 13.516466098189504 4.8185245527437246 0.6018150307709319 0 -0.79863550430605224 0.39931775215302612 0 0.30090751538546595 1 I I -0.70710678118654746 0.70710678118654746 0.5 forward I I I I #
loop $-1 $-1 $197 $49 #
coedge $-1 $123 $123 $198 $199 reversed $78 $-1 #
face $-1 $200 $201 $30 $-1 $202 reversed single #
loop $-1 $-1 $203 $80 #
plane-surface $-1 0 -28.66841401952577 0 0 1 0 0 0 1 forward_v I I I I #
coedge $-1 $204 $205 $206 $207 forward $81 $-1 #
coedge $-1 $208 $83 $209 $210 forward $51 $-1 #
coedge $-1 $83 $208 $211 $212 forward $51 $-1 #
coedge $-1 $213 $214 $83 $131 reversed $215 $-1 #
edge $-1 $216 -28.66841401952577 $217 28.66841401952577 $130 $218 forward 7 unknown #
face $-1 $219 $220 $31 $-1 $221 reversed single #
loop $-1 $-1 $222 $84 #
plane-surface $-1 -53.362224188970615 0 0 1 0 0 0 0 -1 forward_v I I I I #
coedge $-1 $223 $224 $137 $225 reversed $85 $-1 #
coedge $-1 $226 $87 $227 $228 reversed $54 $-1 #
coedge $-1 $87 $226 $135 $225 forward $54 $-1 #
coedge $-1 $229 $230 $87 $139 forward $231 $-1 #
edge $-1 $232 -16.186231046466443 $233 -8.7781348996522119 $138 $234 forward 7 unknown #
face $-1 $235 $236 $32 $-1 $237 forward single #
loop $-1 $-1 $238 $88 #
plane-surface $-1 0 -21.260317872711539 6.9636871456247587 0 -1 0 0 0 -1 forward_v I I I I #
coedge $-1 $239 $240 $241 $242 reversed $89 $-1 #
coedge $-1 $145 $91 $243 $244 reversed $57 $-1 #
coedge $-1 $91 $144 $239 $245 reversed $57 $-1 #
coedge $-1 $241 $246 $91 $147 forward $236 $-1 #
edge $-1 $247 -44.937887957530783 $248 -34.971552530004629 $146 $249 forward 7 unknown #
loop $-1 $-1 $153 $92 #
plane-surface $-1 -38.118482706725949 -17.919264878981441 57.442463732391317 0.51503808176128008 0 0.85716729658548041 0.85716729658548041 0 -0.51503808176128008 forward_v I I I I #
loop $-1 $-1 $250 $59 #
coedge $-1 $151 $151 $152 $251 reversed $93 $-1 #
coedge $-1 $152 $152 $151 $251 forward $95 $-1 #
coedge $-1 $153 $153 $96 $154 forward $148 $-1 #
edge $-1 $252 0 $252 6.2831853071796004 $153 $253 forward 7 unknown #
face $-1 $254 $255 $34 $-1 $256 forward single #
loop $-1 $-1 $257 $97 #
plane-surface $-1 0 28.66841401952577 0 0 -1 0 0 0 -1 forward_v I I I I #
coedge $-1 $258 $259 $260 $261 reversed $98 $-1 #
coedge $-1 $262 $100 $257 $263 reversed $63 $-1 #
coedge $-1 $100 $262 $258 $264 forward $63 $-1 #
coedge $-1 $260 $265 $100 $162 forward $255 $-1 #
edge $-1 $266 -16.004733506627936 $267 -9.3226275191677317 $161 $268 forward 7 unknown #
loop $-1 $-1 $168 $101 #
plane-surface $-1 -38.118482706725949 25.327361025795668 57.442463732391317 0.51503808176128008 0 0.85716729658548041 0.85716729658548041 0 -0.51503808176128008 forward_v I I I I #
loop $-1 $-1 $269 $65 #
coedge $-1 $166 $166 $167 $270 reversed $102 $-1 #
coedge $-1 $167 $167 $166 $270 forward $104 $-1 #
coedge $-1 $168 $168 $105 $169 forward $163 $-1 #
edge $-1 $271 0 $271 6.2831853071796004 $168 $272 forward 7 unknown #
face $-1 $273 $274 $36 $-1 $275 reversed single #
loop $-1 $-1 $276 $106 #
plane-surface $-1 -117.59060137355205 -5.8249174558946759 90.61524946529083 0 -1 0 0.6018150307709319 0 -0.79863550430605224 forward_v I I I I #
coedge $-1 $277 $278 $279 $280 reversed $107 $-1 #
coedge $-1 $175 $109 $281 $282 reversed $69 $-1 #
coedge $-1 $109 $174 $277 $283 reversed $69 $-1 #
coedge $-1 $279 $284 $109 $177 forward $285 $-1 #
edge $-1 $286 5.4330764978054091 $287 9.5235213316363314 $176 $288 forward 7 unknown #
loop $-1 $-1 $183 $110 #
plane-surface $-1 -53.362224188970615 -11.44789984792915 5.3813158131884933 -0.6018150307709319 0 0.79863550430605224 0.79863550430605224 0 0.6018150307709319 forward_v I I I I #
loop $-1 $-1 $289 $71 #
coedge $-1 $181 $181 $182 $290 reversed $111 $-1 #
coedge $-1 $182 $182 $181 $290 forward $113 $-1 #
coedge $-1 $183 $183 $114 $184 forward $178 $-1 #
edge $-1 $291 0 $291 6.2831853071796004 $183 $292 forward 7 unknown #
face $-1 $293 $294 $38 $-1 $295 forward single #
loop $-1 $-1 $296 $115 #
plane-surface $-1 -117.59060137355205 19.139448490223977 90.61524946529083 0 -1 0 0.6018150307709319 0 -0.79863550430605224 forward_v I I I I #
coedge $-1 $297 $298 $299 $300 reversed $116 $-1 #
coedge $-1 $190 $118 $301 $302 reversed $75 $-1 #
coedge $-1 $118 $189 $297 $303 reversed $75 $-1 #
coedge $-1 $299 $304 $118 $192 forward $294 $-1 #
edge $-1 $305 5.4330764978054091 $306 9.5235213316363314 $191 $307 forward 7 unknown #
loop $-1 $-1 $198 $119 #
plane-surface $-1 -53.362224188970615 13.516466098189504 5.3813158131884933 -0.6018150307709319 0 0.79863550430605224 0.79863550430605224 0 0.6018150307709319 forward_v I I I I #
loop $-1 $-1 $308 $77 #
coedge $-1 $196 $196 $197 $309 reversed $120 $-1 #
coedge $-1 $197 $197 $196 $309 forward $122 $-1 #
coedge $-1 $198 $198 $123 $199 forward $193 $-1 #
edge $-1 $310 0 $310 6.2831853071796004 $198 $311 forward 7 unknown #
face $-1 $312 $313 $30 $-1 $314 reversed single #
loop $-1 $-1 $315 $124 #
plane-surface $-1 -53.362224188970615 0 0 1 0 0 0 0 -1 forward_v I I I I #
coedge $-1 $316 $211 $317 $318 forward $125 $-1 #
coedge $-1 $319 $127 $316 $320 forward $81 $-1 #
coedge $-1 $127 $319 $321 $322 forward $81 $-1 #
coedge $-1 $214 $213 $127 $207 reversed $215 $-1 #
edge $-1 $323 -28.66841401952577 $324 28.66841401952577 $206 $325 forward 7 unknown #
coedge $-1 $129 $128 $326 $327 forward $51 $-1 #
coedge $-1 $328 $329 $128 $210 reversed $313 $-1 #
edge $-1 $217 -53.362224188970615 $330 53.362224188970615 $209 $331 forward 7 unknown #
coedge $-1 $203 $332 $129 $212 reversed $125 $-1 #
edge $-1 $333 -53.362224188970615 $216 53.362224188970615 $211 $334 forward 7 unknown #
coedge $-1 $206 $130 $332 $335 forward $215 $-1 #
coedge $-1 $130 $206 $328 $336 reversed $215 $-1 #
loop $-1 $-1 $213 $312 #
vertex $-1 $131 $337 #
vertex $-1 $131 $338 #
straight-curve $-1 53.362224188970615 0 8.4636871456247587 0 1 0 I I #
face $-1 $339 $340 $31 $-1 $341 forward single #
loop $-1 $-1 $227 $132 #
plane-surface $-1 0 -28.66841401952577 0 0 1 0 0 0 1 forward_v I I I I #
coedge $-1 $342 $343 $223 $344 forward $133 $-1 #
coedge $-1 $345 $135 $222 $344 reversed $85 $-1 #
coedge $-1 $135 $345 $229 $346 reversed $85 $-1 #
edge $-1 $347 -53.362224188970615 $233 53.362224188970615 $135 $348 forward 7 unknown #
coedge $-1 $137 $136 $342 $349 reversed $54 $-1 #
coedge $-1 $350 $351 $136 $228 forward $220 $-1 #
edge $-1 $352 -53.362224188970615 $232 53.362224188970615 $227 $353 forward 7 unknown #
coedge $-1 $354 $138 $224 $346 forward $231 $-1 #
coedge $-1 $138 $354 $350 $355 forward $231 $-1 #
loop $-1 $-1 $229 $339 #
vertex $-1 $228 $356 #
vertex $-1 $139 $357 #
straight-curve $-1 53.362224188970615 -12.482182973059327 5.4636871456247587 0 1 0 I I #
face $-1 $-1 $358 $32 $-1 $359 reversed single #
loop $-1 $-1 $241 $140 #
plane-surface $-1 0 0 8.4636871456247587 0 0 1 1 0 0 forward_v I I I I #
coedge $-1 $360 $361 $240 $362 reversed $141 $-1 #
coedge $-1 $363 $143 $145 $245 forward $89 $-1 #
coedge $-1 $143 $363 $238 $362 forward $89 $-1 #
coedge $-1 $364 $146 $143 $242 forward $236 $-1 #
edge $-1 $248 5.6185794457606182 $365 12.300685433220819 $241 $366 forward 7 unknown #
coedge $-1 $367 $368 $144 $244 forward $358 $-1 #
edge $-1 $369 -71.986276751258231 $247 -65.997898168419169 $243 $370 forward 7 unknown #
edge $-1 $248 95.0973885644988 $369 106.72444837794123 $145 $371 forward 7 unknown #
coedge $-1 $146 $364 $367 $372 forward $236 $-1 #
vertex $-1 $244 $373 #
vertex $-1 $147 $374 #
straight-curve $-1 8.4243362314398311 -14.578211885251338 8.4636871456247604 -1 0 0 I I #
coedge $-1 $250 $250 $-1 $375 reversed $150 $-1 #
edge $-1 $376 0 $376 6.2831853071796004 $151 $377 forward 7 unknown #
vertex $-1 $154 $378 #
ellipse-curve $-1 48.379056475207555 -17.919264878981441 5.4694978542052182 0.51503808176128008 0 0.85716729658548041 1.2857509448782207 0 -0.77255712264192011 1 I I #
face $-1 $-1 $379 $34 $-1 $380 reversed single #
loop $-1 $-1 $161 $155 #
plane-surface $-1 0 0 8.4636871456247587 0 0 1 1 0 0 forward_v I I I I #
coedge $-1 $381 $382 $159 $263 forward $156 $-1 #
coedge $-1 $259 $158 $160 $264 reversed $98 $-1 #
coedge $-1 $158 $258 $383 $384 reversed $98 $-1 #
coedge $-1 $385 $161 $158 $261 forward $255 $-1 #
edge $-1 $267 34.971552530004629 $386 44.937887957530783 $260 $387 forward 7 unknown #
coedge $-1 $160 $159 $388 $389 reversed $63 $-1 #
edge $-1 $390 -75.594961825922553 $266 -63.967902012480096 $257 $391 forward 7 unknown #
edge $-1 $392 -106.72444837794123 $267 -95.0973885644988 $258 $393 forward 7 unknown #
coedge $-1 $161 $385 $381 $394 forward $255 $-1 #
vertex $-1 $263 $395 #
vertex $-1 $162 $396 #
straight-curve $-1 43.395888761444468 12.663680512897834 8.4636871456247604 0 -1 0 I I #
coedge $-1 $269 $269 $-1 $397 reversed $165 $-1 #
edge $-1 $398 0 $398 6.2831853071796004 $166 $399 forward 7 unknown #
vertex $-1 $169 $400 #
ellipse-curve $-1 48.379056475207555 25.327361025795668 5.4694978542052182 0.51503808176128008 0 0.85716729658548041 1.2857509448782207 0 -0.77255712264192011 1 I I #
face $-1 $-1 $285 $36 $-1 $401 forward single #
loop $-1 $-1 $402 $170 #
plane-surface $-1 -53.362224188970615 0 0 1 0 0 0 0 -1 forward_v I I I I #
coedge $-1 $403 $404 $405 $406 reversed $171 $-1 #
coedge $-1 $407 $173 $175 $283 forward $107 $-1 #
coedge $-1 $173 $407 $403 $408 forward $107 $-1 #
coedge $-1 $405 $176 $173 $280 forward $285 $-1 #
edge $-1 $287 -11.346932315999048 $409 -0.10096753193010066 $279 $410 forward 7 unknown #
coedge $-1 $411 $412 $174 $282 forward $274 $-1 #
edge $-1 $413 -39.926308919456922 $286 -36.843937587020655 $281 $414 forward 7 unknown #
edge $-1 $287 -5.1217918709802142 $413 0 $175 $415 forward 7 unknown #
coedge $-1 $176 $405 $411 $416 forward $285 $-1 #
loop $-1 $-1 $405 $273 #
vertex $-1 $282 $417 #
vertex $-1 $177 $418 #
straight-curve $-1 -58.795300686776024 -17.070882239963623 8.4636871456247604 1 0 0 I I #
coedge $-1 $289 $289 $-1 $419 reversed $180 $-1 #
edge $-1 $420 0 $420 6.2831853071796004 $181 $421 forward 7 unknown #
vertex $-1 $184 $422 #
ellipse-curve $-1 -51.317001772055164 -11.44789984792915 6.9225014794066206 -0.6018150307709319 0 0.79863550430605224 0.79863550430605224 0 0.6018150307709319 1 I I #
face $-1 $-1 $423 $38 $-1 $424 reversed single #
loop $-1 $-1 $191 $185 #
plane-surface $-1 0 0 8.4636871456247587 0 0 1 1 0 0 forward_v I I I I #
coedge $-1 $425 $426 $427 $428 reversed $186 $-1 #
coedge $-1 $429 $188 $190 $303 forward $116 $-1 #
coedge $-1 $188 $429 $425 $430 forward $116 $-1 #
coedge $-1 $427 $191 $188 $300 forward $294 $-1 #
edge $-1 $306 1.1352506570602774 $431 12.381215441129225 $299 $432 forward 7 unknown #
coedge $-1 $433 $434 $189 $302 forward $423 $-1 #
edge $-1 $435 -39.926308919456922 $305 -36.843937587020655 $301 $436 forward 7 unknown #
edge $-1 $306 -5.1217918709802142 $435 0 $190 $437 forward 7 unknown #
coedge $-1 $191 $427 $433 $438 forward $294 $-1 #
vertex $-1 $302 $439 #
vertex $-1 $192 $440 #
straight-curve $-1 -58.795300686776024 7.8934837061550294 8.4636871456247604 1 0 0 I I #
coedge $-1 $308 $308 $-1 $441 reversed $195 $-1 #
edge $-1 $442 0 $442 6.2831853071796004 $196 $443 forward 7 unknown #
vertex $-1 $199 $444 #
ellipse-curve $-1 -51.317001772055164 13.516466098189504 6.9225014794066206 -0.6018150307709319 0 0.79863550430605224 0.79863550430605224 0 0.6018150307709319 1 I I #
face $-1 $-1 $215 $30 $-1 $445 reversed single #
loop $-1 $-1 $328 $200 #
plane-surface $-1 0 28.66841401952577 0 0 -1 0 0 0 -1 forward_v I I I I #
coedge $-1 $446 $326 $329 $447 forward $201 $-1 #
coedge $-1 $332 $203 $204 $320 reversed $125 $-1 #
coedge $-1 $326 $446 $203 $318 reversed $201 $-1 #
edge $-1 $333 -8.4636871456247587 $448 8.4636871456247587 $317 $449 forward 7 unknown #
coedge $-1 $205 $204 $446 $450 forward $81 $-1 #
edge $-1 $324 -53.362224188970615 $448 53.362224188970615 $316 $451 forward 7 unknown #
coedge $-1 $329 $328 $205 $322 reversed $313 $-1 #
edge $-1 $452 -53.362224188970615 $323 53.362224188970615 $321 $453 forward 7 unknown #
vertex $-1 $207 $454 #
vertex $-1 $335 $455 #
straight-curve $-1 53.362224188970615 0 -8.4636871456247587 0 -1 0 I I #
coedge $-1 $315 $317 $208 $327 reversed $201 $-1 #
edge $-1 $330 -28.66841401952577 $333 28.66841401952577 $326 $456 forward 7 unknown #
coedge $-1 $321 $209 $214 $336 forward $313 $-1 #
coedge $-1 $209 $321 $315 $447 reversed $313 $-1 #
vertex $-1 $210 $457 #
straight-curve $-1 0 28.66841401952577 8.4636871456247587 -1 0 0 I I #
coedge $-1 $211 $316 $213 $335 reversed $125 $-1 #
vertex $-1 $327 $458 #
straight-curve $-1 0 -28.66841401952577 8.4636871456247587 1 0 0 I I #
edge $-1 $216 -8.4636871456247587 $324 8.4636871456247587 $213 $459 forward 7 unknown #
edge $-1 $217 -8.4636871456247587 $323 8.4636871456247587 $214 $460 forward 7 unknown #
point $-1 53.362224188970615 -28.66841401952577 8.4636871456247587 #
point $-1 53.362224188970615 28.66841401952577 8.4636871456247587 #
face $-1 $-1 $231 $31 $-1 $461 reversed single #
loop $-1 $-1 $462 $219 #
plane-surface $-1 0 0 8.4636871456247587 0 0 1 1 0 0 forward_v I I I I #
coedge $-1 $463 $222 $226 $349 forward $133 $-1 #
coedge $-1 $222 $463 $464 $465 reversed $133 $-1 #
edge $-1 $466 -4.9818435728123793 $347 -1.9818435728123793 $222 $467 forward 7 unknown #
coedge $-1 $224 $223 $462 $468 reversed $85 $-1 #
edge $-1 $233 1.9818435728123793 $469 4.9818435728123793 $229 $470 forward 7 unknown #
vertex $-1 $349 $471 #
straight-curve $-1 0 -21.260317872711539 5.4636871456247587 1 0 0 I I #
edge $-1 $347 8.7781348996522119 $352 16.186231046466443 $342 $472 forward 7 unknown #
coedge $-1 $473 $227 $230 $355 reversed $220 $-1 #
coedge $-1 $227 $473 $463 $474 forward $220 $-1 #
vertex $-1 $228 $475 #
straight-curve $-1 0 -28.66841401952577 5.4636871456247587 1 0 0 I I #
coedge $-1 $230 $229 $476 $477 reversed $231 $-1 #
edge $-1 $478 -8.4636871456247587 $232 -5.4636871456247587 $230 $479 forward 7 unknown #
point $-1 53.362224188970615 -28.66841401952577 5.4636871456247587 #
point $-1 53.362224188970615 -21.260317872711539 5.4636871456247587 #
loop $-1 $-1 $243 $235 #
plane-surface $-1 53.362224188970615 0 0 -1 0 0 0 0 1 forward_v I I I I #
coedge $-1 $361 $238 $480 $481 reversed $141 $-1 #
coedge $-1 $238 $360 $364 $482 reversed $141 $-1 #
edge $-1 $483 -106.72444837794123 $365 -95.0973885644988 $238 $484 forward 7 unknown #
coedge $-1 $240 $239 $368 $485 reversed $89 $-1 #
coedge $-1 $246 $241 $361 $482 forward $236 $-1 #
vertex $-1 $482 $486 #
straight-curve $-1 43.395888761444468 -8.9596324394907203 8.4636871456247604 0 -1 0 I I #
coedge $-1 $480 $243 $246 $372 reversed $358 $-1 #
coedge $-1 $243 $480 $363 $485 forward $358 $-1 #
vertex $-1 $244 $487 #
straight-curve $-1 53.362224188970615 -14.578211885251338 74.46158531404393 0 0 1 I I #
straight-curve $-1 -38.118482706725949 -14.578211885251338 57.442463732391317 0.85716729658548041 0 -0.51503808176128008 I I #
edge $-1 $488 -21.260317872711539 $247 -14.578211885251338 $367 $489 forward 7 unknown #
point $-1 53.362224188970615 -14.578211885251338 8.4636871456247587 #
point $-1 43.395888761444461 -14.578211885251338 8.4636871456247604 #
edge $-1 $490 1 $490 0 $250 $-1 forward 7 unknown #
vertex $-1 $251 $491 #
ellipse-curve $-1 47.479111244602315 -17.919264878981441 3.9717374987866201 0.51503808176128008 0 0.85716729658548041 1.2857509448782207 0 -0.77255712264192011 1 I I #
point $-1 49.664807420085786 -17.919264878981441 4.6969407315633127 #
loop $-1 $-1 $388 $254 #
plane-surface $-1 53.362224188970615 0 0 -1 0 0 0 0 1 forward_v I I I I #
coedge $-1 $382 $257 $265 $394 reversed $156 $-1 #
coedge $-1 $257 $381 $492 $493 forward $156 $-1 #
coedge $-1 $388 $494 $259 $384 forward $379 $-1 #
edge $-1 $386 65.997898168419169 $392 71.986276751258231 $383 $495 forward 7 unknown #
coedge $-1 $265 $260 $494 $496 forward $255 $-1 #
vertex $-1 $496 $497 #
straight-curve $-1 8.4243362314398311 21.986308032065565 8.4636871456247604 1 0 0 I I #
coedge $-1 $492 $383 $262 $389 forward $379 $-1 #
edge $-1 $392 9.3226275191677317 $390 16.004733506627936 $388 $498 forward 7 unknown #
vertex $-1 $263 $499 #
straight-curve $-1 -11.435304874838014 28.66841401952577 41.409592692426045 -0.85716729658548041 0 0.51503808176128008 I I #
vertex $-1 $389 $500 #
straight-curve $-1 -38.118482706725949 21.986308032065565 57.442463732391317 -0.85716729658548041 0 0.51503808176128008 I I #
edge $-1 $501 -53.362224188970615 $266 -43.395888761444461 $381 $502 forward 7 unknown #
point $-1 43.395888761444461 28.66841401952577 8.4636871456247604 #
point $-1 43.395888761444461 21.986308032065565 8.4636871456247604 #
edge $-1 $503 1 $503 0 $269 $-1 forward 7 unknown #
vertex $-1 $270 $504 #
ellipse-curve $-1 47.479111244602315 25.327361025795668 3.9717374987866201 0.51503808176128008 0 0.85716729658548041 1.2857509448782207 0 -0.77255712264192011 1 I I #
point $-1 49.664807420085786 25.327361025795668 4.6969407315633127 #
plane-surface $-1 0 0 8.4636871456247587 0 0 1 1 0 0 forward_v I I I I #
coedge $-1 $412 $411 $404 $505 forward $274 $-1 #
coedge $-1 $404 $276 $278 $408 reversed $171 $-1 #
coedge $-1 $276 $403 $402 $505 reversed $171 $-1 #
coedge $-1 $284 $279 $276 $406 forward $285 $-1 #
edge $-1 $409 -9.5235213316363314 $506 -5.4330764978054091 $405 $507 forward 7 unknown #
coedge $-1 $278 $277 $412 $508 reversed $107 $-1 #
edge $-1 $509 0 $409 5.1217918709802142 $403 $510 forward 7 unknown #
vertex $-1 $280 $511 #
straight-curve $-1 -49.271779355139699 -5.7239499239645752 8.4636871456247587 0 1 0 I I #
coedge $-1 $402 $281 $284 $416 reversed $274 $-1 #
coedge $-1 $281 $402 $407 $508 forward $274 $-1 #
vertex $-1 $282 $512 #
straight-curve $-1 -53.362224188970615 -17.070882239963623 45.307624732645415 0 0 1 I I #
straight-curve $-1 -53.362224188970615 -17.070882239963623 5.3813158131884933 -0.79863550430605224 0 -0.6018150307709319 I I #
edge $-1 $506 5.8249174558946759 $286 17.070882239963623 $411 $513 forward 7 unknown #
point $-1 -53.362224188970615 -17.070882239963623 8.4636871456247587 #
point $-1 -49.271779355139692 -17.070882239963623 8.4636871456247587 #
edge $-1 $514 1 $514 0 $289 $-1 forward 7 unknown #
vertex $-1 $290 $515 #
ellipse-curve $-1 -50.032448921561716 -11.44789984792915 5.2178423048967506 -0.6018150307709319 0 0.79863550430605224 0.79863550430605224 0 0.6018150307709319 1 I I #
point $-1 -50.518366267749116 -11.44789984792915 7.524316510177564 #
loop $-1 $-1 $301 $293 #
plane-surface $-1 -53.362224188970615 0 0 1 0 0 0 0 -1 forward_v I I I I #
coedge $-1 $426 $296 $298 $430 reversed $186 $-1 #
coedge $-1 $296 $425 $516 $517 reversed $186 $-1 #
coedge $-1 $304 $299 $296 $428 forward $294 $-1 #
edge $-1 $431 -9.5235213316363314 $518 -5.4330764978054091 $427 $519 forward 7 unknown #
coedge $-1 $298 $297 $434 $520 reversed $116 $-1 #
edge $-1 $521 0 $431 5.1217918709802142 $425 $522 forward 7 unknown #
vertex $-1 $300 $523 #
straight-curve $-1 -49.271779355139699 6.758233049094752 8.4636871456247587 0 1 0 I I #
coedge $-1 $516 $301 $304 $438 reversed $423 $-1 #
coedge $-1 $301 $516 $429 $520 forward $423 $-1 #
vertex $-1 $302 $524 #
straight-curve $-1 -53.362224188970615 7.8934837061550294 45.307624732645415 0 0 1 I I #
straight-curve $-1 -53.362224188970615 7.8934837061550294 5.3813158131884933 -0.79863550430605224 0 -0.6018150307709319 I I #
edge $-1 $518 -19.139448490223977 $305 -7.8934837061550294 $433 $525 forward 7 unknown #
point $-1 -53.362224188970615 7.8934837061550294 8.4636871456247587 #
point $-1 -49.271779355139692 7.8934837061550294 8.4636871456247587 #
edge $-1 $526 1 $526 0 $308 $-1 forward 7 unknown #
vertex $-1 $309 $527 #
ellipse-curve $-1 -50.032448921561716 13.516466098189504 5.2178423048967506 -0.6018150307709319 0 0.79863550430605224 0.79863550430605224 0 0.6018150307709319 1 I I #
point $-1 -50.518366267749116 13.516466098189504 7.524316510177564 #
plane-surface $-1 53.362224188970615 0 0 -1 0 0 0 0 1 forward_v I I I I #
coedge $-1 $317 $315 $319 $450 reversed $201 $-1 #
edge $-1 $330 -8.4636871456247587 $452 8.4636871456247587 $329 $528 forward 7 unknown #
vertex $-1 $450 $529 #
straight-curve $-1 -53.362224188970615 -28.66841401952577 0 0 0 -1 I I #
edge $-1 $448 -28.66841401952577 $452 28.66841401952577 $446 $530 forward 7 unknown #
straight-curve $-1 0 -28.66841401952577 -8.4636871456247587 -1 0 0 I I #
vertex $-1 $322 $531 #
straight-curve $-1 0 28.66841401952577 -8.4636871456247587 1 0 0 I I #
point $-1 53.362224188970615 28.66841401952577 -8.4636871456247587 #
point $-1 53.362224188970615 -28.66841401952577 -8.4636871456247587 #
straight-curve $-1 -53.362224188970615 0 8.4636871456247587 0 -1 0 I I #
point $-1 -53.362224188970615 28.66841401952577 8.4636871456247587 #
point $-1 -53.362224188970615 -28.66841401952577 8.4636871456247587 #
straight-curve $-1 53.362224188970615 -28.66841401952577 0 0 0 -1 I I #
straight-curve $-1 53.362224188970615 28.66841401952577 0 0 0 -1 I I #
plane-surface $-1 53.362224188970615 0 0 -1 0 0 0 0 1 forward_v I I I I #
coedge $-1 $464 $476 $345 $468 forward $340 $-1 #
coedge $-1 $343 $342 $351 $474 reversed $133 $-1 #
coedge $-1 $532 $462 $343 $465 forward $340 $-1 #
edge $-1 $466 21.260317872711539 $533 28.66841401952577 $343 $534 forward 7 unknown #
vertex $-1 $465 $535 #
straight-curve $-1 -53.362224188970615 -21.260317872711539 3.4818435728123793 0 0 -1 I I #
edge $-1 $469 -53.362224188970615 $466 53.362224188970615 $462 $536 forward 7 unknown #
vertex $-1 $346 $537 #
straight-curve $-1 53.362224188970615 -21.260317872711539 3.4818435728123793 0 0 1 I I #
point $-1 -53.362224188970615 -21.260317872711539 5.4636871456247587 #
straight-curve $-1 -53.362224188970615 -12.482182973059327 5.4636871456247587 0 -1 0 I I #
coedge $-1 $351 $350 $532 $538 reversed $220 $-1 #
edge $-1 $533 -8.4636871456247587 $352 -5.4636871456247587 $463 $539 forward 7 unknown #
point $-1 -53.362224188970615 -28.66841401952577 5.4636871456247587 #
coedge $-1 $462 $532 $354 $477 forward $340 $-1 #
edge $-1 $478 -28.66841401952577 $469 -21.260317872711539 $354 $540 forward 7 unknown #
vertex $-1 $477 $541 #
straight-curve $-1 53.362224188970615 -28.66841401952577 0 0 0 -1 I I #
coedge $-1 $368 $367 $360 $481 forward $358 $-1 #
edge $-1 $488 65.997898168419169 $483 71.986276751258231 $480 $542 forward 7 unknown #
edge $-1 $365 43.395888761444468 $488 53.362224188970615 $364 $543 forward 7 unknown #
vertex $-1 $481 $544 #
straight-curve $-1 -38.118482706725949 -21.260317872711543 57.442463732391317 -0.85716729658548041 0 0.51503808176128008 I I #
edge $-1 $483 -12.300685433220822 $369 -5.6185794457606182 $368 $545 forward 7 unknown #
point $-1 43.395888761444468 -21.260317872711539 8.4636871456247587 #
point $-1 53.362224188970607 -14.578211885251338 2.475308562785699 #
vertex $-1 $372 $546 #
straight-curve $-1 53.362224188970615 0 8.4636871456247587 0 1 0 I I #
vertex $-1 $375 $547 #
point $-1 48.764862189480539 -17.919264878981441 3.1991803761447004 #
coedge $-1 $494 $388 $382 $493 reversed $379 $-1 #
edge $-1 $501 -8.4636871456247587 $390 -2.475308562785699 $492 $548 forward 7 unknown #
coedge $-1 $383 $492 $385 $496 reversed $379 $-1 #
straight-curve $-1 53.362224188970615 21.986308032065565 74.46158531404393 0 0 -1 I I #
edge $-1 $386 21.986308032065565 $501 28.66841401952577 $494 $549 forward 7 unknown #
point $-1 53.362224188970615 21.986308032065565 8.4636871456247587 #
straight-curve $-1 53.362224188970615 12.663680512897834 2.4753085627856919 0 1 0 I I #
point $-1 53.362224188970607 28.66841401952577 2.475308562785699 #
point $-1 53.362224188970607 21.986308032065565 2.475308562785699 #
vertex $-1 $496 $550 #
straight-curve $-1 0 28.66841401952577 8.4636871456247587 -1 0 0 I I #
vertex $-1 $397 $551 #
point $-1 48.764862189480539 25.327361025795668 3.1991803761447004 #
edge $-1 $506 36.843937587020655 $509 39.926308919456922 $402 $552 forward 7 unknown #
vertex $-1 $416 $553 #
straight-curve $-1 -58.795300686776024 -5.8249174558946759 8.4636871456247604 -1 0 0 I I #
edge $-1 $509 0.10096753193010066 $413 11.346932315999048 $412 $554 forward 7 unknown #
vertex $-1 $508 $555 #
straight-curve $-1 -53.362224188970615 -5.8249174558946759 5.3813158131884933 0.79863550430605224 0 0.6018150307709319 I I #
point $-1 -49.271779355139692 -5.8249174558946759 8.4636871456247587 #
point $-1 -53.362224188970615 -17.070882239963623 5.3813158131884933 #
straight-curve $-1 -53.362224188970615 0 8.4636871456247587 0 -1 0 I I #
vertex $-1 $419 $556 #
point $-1 -49.233813417255661 -11.44789984792915 5.8196573356676824 #
coedge $-1 $434 $433 $426 $517 forward $423 $-1 #
edge $-1 $518 36.843937587020655 $521 39.926308919456922 $516 $557 forward 7 unknown #
vertex $-1 $438 $558 #
straight-curve $-1 -58.795300686776024 19.139448490223977 8.4636871456247604 -1 0 0 I I #
edge $-1 $521 -12.381215441129225 $435 -1.1352506570602774 $434 $559 forward 7 unknown #
vertex $-1 $520 $560 #
straight-curve $-1 -53.362224188970615 19.139448490223977 5.3813158131884933 0.79863550430605224 0 0.6018150307709319 I I #
point $-1 -49.271779355139692 19.139448490223977 8.4636871456247587 #
point $-1 -53.362224188970615 7.8934837061550294 5.3813158131884933 #
straight-curve $-1 -53.362224188970615 0 8.4636871456247587 0 -1 0 I I #
vertex $-1 $441 $561 #
point $-1 -49.233813417255661 13.516466098189504 5.8196573356676824 #
straight-curve $-1 -53.362224188970615 28.66841401952577 0 0 0 -1 I I #
point $-1 -53.362224188970615 -28.66841401952577 -8.4636871456247587 #
straight-curve $-1 -53.362224188970615 0 -8.4636871456247587 0 1 0 I I #
point $-1 -53.362224188970615 28.66841401952577 -8.4636871456247587 #
coedge $-1 $476 $464 $473 $538 forward $340 $-1 #
vertex $-1 $465 $562 #
straight-curve $-1 -53.362224188970615 0 8.4636871456247587 0 -1 0 I I #
point $-1 -53.362224188970615 -21.260317872711539 8.4636871456247587 #
straight-curve $-1 0 -21.260317872711539 8.4636871456247587 -1 0 0 I I #
point $-1 53.362224188970615 -21.260317872711539 8.4636871456247587 #
edge $-1 $533 -53.362224188970615 $478 53.362224188970615 $473 $563 forward 7 unknown #
straight-curve $-1 -53.362224188970615 -28.66841401952577 0 0 0 -1 I I #
straight-curve $-1 53.362224188970615 0 8.4636871456247587 0 1 0 I I #
point $-1 53.362224188970615 -28.66841401952577 8.4636871456247587 #
straight-curve $-1 53.362224188970615 -21.260317872711543 74.46158531404393 0 0 -1 I I #
straight-curve $-1 0 -21.260317872711539 8.4636871456247587 1 0 0 I I #
point $-1 53.362224188970607 -21.260317872711543 2.475308562785699 #
straight-curve $-1 53.362224188970615 -8.9596324394907203 2.4753085627856919 0 1 0 I I #
point $-1 53.362224188970615 -21.260317872711539 8.4636871456247587 #
point $-1 46.706554121960401 -17.919264878981441 2.6859865539083998 #
straight-curve $-1 53.362224188970615 28.66841401952577 0 0 0 -1 I I #
straight-curve $-1 53.362224188970615 0 8.4636871456247587 0 1 0 I I #
point $-1 53.362224188970615 28.66841401952577 8.4636871456247587 #
point $-1 46.706554121960401 25.327361025795668 2.6859865539083998 #
straight-curve $-1 -53.362224188970615 -5.8249174558946759 45.307624732645415 0 0 -1 I I #
point $-1 -53.362224188970615 -5.8249174558946759 8.4636871456247587 #
straight-curve $-1 -53.362224188970615 -5.7239499239645752 5.3813158131884915 0 -1 0 I I #
point $-1 -53.362224188970615 -5.8249174558946759 5.3813158131884933 #
point $-1 -49.43063389079078 -11.44789984792915 4.4192068005906986 #
straight-curve $-1 -53.362224188970615 19.139448490223977 45.307624732645415 0 0 -1 I I #
point $-1 -53.362224188970615 19.139448490223977 8.4636871456247587 #
straight-curve $-1 -53.362224188970615 6.758233049094752 5.3813158131884915 0 -1 0 I I #
point $-1 -53.362224188970615 19.139448490223977 5.3813158131884933 #
point $-1 -49.43063389079078 13.516466098189504 4.4192068005906986 #
point $-1 -53.362224188970615 -28.66841401952577 8.4636871456247587 #
straight-curve $-1 0 -28.66841401952577 8.4636871456247587 1 0 0 I I #
End-of-ACIS-data 