500 0 6 0           
7 Unknown 11 ACIS 5.0 NT 24 Thu Mar 25 17:26:33 1999 
-1 9.9999999999999995e-007 1e-010 
body $-1 $6 $-1 $7 #
body $-1 $8 $-1 $9 #
body $-1 $10 $-1 $11 #
body $-1 $12 $-1 $13 #
body $-1 $14 $-1 $15 #
body $-1 $16 $-1 $17 #
lump $-1 $-1 $18 $0 #
transform $-1 1 0 0 0 1 0 0 0 1 61.475264748069705 41.986928538756239 11.952442152891949 1 rotate no_reflect no_shear #
lump $-1 $-1 $19 $1 #
transform $-1 1 0 0 0 1 0 0 0 1 61.475264748069705 41.986928538756239 11.952442152891949 1 rotate no_reflect no_shear #
lump $-1 $-1 $20 $2 #
transform $-1 1 0 0 0 1 0 0 0 1 61.475264748069705 41.986928538756239 11.952442152891949 1 rotate no_reflect no_shear #
lump $-1 $-1 $21 $3 #
transform $-1 1 0 0 0 1 0 0 0 1 61.475264748069705 41.986928538756239 11.952442152891949 1 rotate no_reflect no_shear #
lump $-1 $-1 $22 $4 #
transform $-1 1 0 0 0 1 0 0 0 1 61.475264748069705 41.986928538756239 11.952442152891949 1 rotate no_reflect no_shear #
lump $-1 $-1 $23 $5 #
transform $-1 1 0 0 0 1 0 0 0 1 61.475264748069705 41.986928538756239 11.952442152891949 1 rotate no_reflect no_shear #
shell $-1 $-1 $-1 $24 $-1 $6 #
shell $-1 $-1 $-1 $25 $-1 $8 #
shell $-1 $-1 $-1 $26 $-1 $10 #
shell $-1 $-1 $-1 $27 $-1 $12 #
shell $-1 $-1 $-1 $28 $-1 $14 #
shell $-1 $-1 $-1 $29 $-1 $16 #
face $-1 $30 $31 $18 $-1 $32 forward single #
face $-1 $33 $34 $19 $-1 $35 forward single #
face $-1 $36 $37 $20 $-1 $38 reversed single #
face $-1 $39 $40 $21 $-1 $41 forward single #
face $-1 $42 $43 $22 $-1 $44 reversed single #
face $-1 $45 $46 $23 $-1 $47 forward single #
face $-1 $48 $49 $18 $-1 $50 reversed single #
loop $-1 $-1 $51 $24 #
plane-surface $-1 0 0 11.952442152891949 0 0 1 1 0 0 forward_v I I I I #
face $-1 $52 $53 $19 $-1 $54 forward single #
loop $-1 $-1 $55 $25 #
plane-surface $-1 0 -41.986928538756239 0 0 1 0 0 0 1 forward_v I I I I #
face $-1 $56 $57 $20 $-1 $58 reversed single #
loop $-1 $-1 $59 $26 #
plane-surface $-1 76.629759915666725 4.0207376390255902 176.53812374125621 0 -1 0 -0.7660444514056185 0 -0.64278759981090561 forward_v I I I I #
face $-1 $60 $61 $21 $-1 $62 forward single #
loop $-1 $63 $64 $27 #
cone-surface $-1 56.419626447658416 -4.4480793294136944 6.4332556266994922 -0.7660444514056185 0 -0.64278759981090561 0.96418139971635841 0 -1.1490666771084277 1 I I 0 1 1.5 forward I I I I #
face $-1 $65 $66 $22 $-1 $67 reversed single #
loop $-1 $-1 $68 $28 #
plane-surface $-1 76.629759915666725 38.622098712468365 176.53812374125621 0 -1 0 -0.7660444514056185 0 -0.64278759981090561 forward_v I I I I #
face $-1 $69 $70 $23 $-1 $71 forward single #
loop $-1 $72 $73 $29 #
cone-surface $-1 56.419626447658416 30.15328174402908 6.4332556266994922 -0.7660444514056185 0 -0.64278759981090561 0.96418139971635841 0 -1.1490666771084277 1 I I 0 1 1.5 forward I I I I #
face $-1 $74 $75 $18 $-1 $76 reversed single #
loop $-1 $-1 $77 $30 #
plane-surface $-1 0 0 -11.952442152891949 0 0 1 1 0 0 forward_v I I I I #
coedge $-1 $78 $79 $80 $81 forward $31 $-1 #
face $-1 $82 $83 $19 $-1 $84 reversed single #
loop $-1 $-1 $85 $33 #
plane-surface $-1 0 0 11.952442152891949 0 0 1 1 0 0 forward_v I I I I #
coedge $-1 $86 $87 $88 $89 forward $34 $-1 #
face $-1 $90 $91 $20 $-1 $92 reversed single #
loop $-1 $-1 $93 $36 #
plane-surface $-1 -17.55581100223371 -4.4480793294136944 97.507047990952813 0.7660444514056185 0 0.64278759981090561 0.64278759981090561 0 -0.7660444514056185 forward_v I I I I #
coedge $-1 $94 $95 $96 $97 reversed $37 $-1 #
face $-1 $-1 $98 $21 $-1 $99 forward single #
loop $-1 $100 $101 $39 #
cone-surface $-1 54.410574521486339 -4.4480793294136944 4.7474609405686277 -0.7660444514056185 0 -0.64278759981090561 0.48209069985817921 0 -0.57453333855421385 1 I I -0.70710678118654757 0.70710678118654757 0.75 forward I I I I #
loop $-1 $-1 $102 $27 #
coedge $-1 $64 $64 $103 $104 reversed $40 $-1 #
face $-1 $105 $106 $22 $-1 $107 reversed single #
loop $-1 $-1 $108 $42 #
plane-surface $-1 -17.55581100223371 30.15328174402908 97.507047990952813 0.7660444514056185 0 0.64278759981090561 0.64278759981090561 0 -0.7660444514056185 forward_v I I I I #
coedge $-1 $109 $110 $111 $112 reversed $43 $-1 #
face $-1 $-1 $113 $23 $-1 $114 forward single #
loop $-1 $115 $116 $45 #
cone-surface $-1 54.410574521486339 30.15328174402908 4.7474609405686277 -0.7660444514056185 0 -0.64278759981090561 0.48209069985817921 0 -0.57453333855421385 1 I I -0.70710678118654757 0.70710678118654757 0.75 forward I I I I #
loop $-1 $-1 $117 $29 #
coedge $-1 $73 $73 $118 $119 reversed $46 $-1 #
face $-1 $120 $121 $18 $-1 $122 reversed single #
loop $-1 $-1 $123 $48 #
plane-surface $-1 0 -41.986928538756239 0 0 1 0 0 0 1 forward_v I I I I #
coedge $-1 $124 $125 $126 $127 forward $49 $-1 #
coedge $-1 $128 $51 $129 $130 forward $31 $-1 #
coedge $-1 $51 $128 $131 $132 forward $31 $-1 #
coedge $-1 $133 $134 $51 $81 reversed $135 $-1 #
edge $-1 $136 -41.986928538756239 $137 41.986928538756239 $80 $138 forward 7 unknown #
face $-1 $139 $140 $19 $-1 $141 reversed single #
loop $-1 $-1 $142 $52 #
plane-surface $-1 -61.475264748069705 0 0 1 0 0 0 0 -1 forward_v I I I I #
coedge $-1 $143 $144 $145 $146 forward $53 $-1 #
coedge $-1 $145 $55 $142 $147 reversed $34 $-1 #
coedge $-1 $55 $145 $148 $149 reversed $34 $-1 #
coedge $-1 $150 $151 $55 $89 reversed $140 $-1 #
edge $-1 $152 -61.475264748069705 $153 61.475264748069705 $88 $154 forward 7 unknown #
face $-1 $155 $156 $20 $-1 $157 reversed single #
loop $-1 $-1 $158 $56 #
plane-surface $-1 76.629759915666725 -12.916896297852979 176.53812374125621 0 1 0 0.7660444514056185 0 0.64278759981090561 forward_v I I I I #
coedge $-1 $159 $160 $161 $162 reversed $57 $-1 #
coedge $-1 $95 $59 $163 $164 reversed $37 $-1 #
coedge $-1 $59 $94 $159 $165 reversed $37 $-1 #
coedge $-1 $161 $166 $59 $97 forward $167 $-1 #
edge $-1 $168 -23.160384790236343 $169 -15.918145364649497 $96 $170 forward 7 unknown #
loop $-1 $-1 $103 $60 #
plane-surface $-1 -17.55581100223371 -4.4480793294136944 97.507047990952813 0.7660444514056185 0 0.64278759981090561 0.64278759981090561 0 -0.7660444514056185 forward_v I I I I #
loop $-1 $-1 $171 $39 #
coedge $-1 $101 $101 $102 $172 reversed $61 $-1 #
coedge $-1 $102 $102 $101 $172 forward $63 $-1 #
coedge $-1 $103 $103 $64 $104 forward $98 $-1 #
edge $-1 $173 0 $173 6.2831853071796004 $103 $174 forward 7 unknown #
face $-1 $175 $176 $22 $-1 $177 reversed single #
loop $-1 $-1 $178 $65 #
plane-surface $-1 76.629759915666725 21.684464775589795 176.53812374125621 0 1 0 0.7660444514056185 0 0.64278759981090561 forward_v I I I I #
coedge $-1 $179 $180 $181 $182 reversed $66 $-1 #
coedge $-1 $110 $68 $183 $184 reversed $43 $-1 #
coedge $-1 $68 $109 $179 $185 reversed $43 $-1 #
coedge $-1 $181 $186 $68 $112 forward $187 $-1 #
edge $-1 $188 -23.160384790236343 $189 -15.918145364649497 $111 $190 forward 7 unknown #
loop $-1 $-1 $118 $69 #
plane-surface $-1 -17.55581100223371 30.15328174402908 97.507047990952813 0.7660444514056185 0 0.64278759981090561 0.64278759981090561 0 -0.7660444514056185 forward_v I I I I #
loop $-1 $-1 $191 $45 #
coedge $-1 $116 $116 $117 $192 reversed $70 $-1 #
coedge $-1 $117 $117 $116 $192 forward $72 $-1 #
coedge $-1 $118 $118 $73 $119 forward $113 $-1 #
edge $-1 $193 0 $193 6.2831853071796004 $118 $194 forward 7 unknown #
face $-1 $195 $196 $18 $-1 $197 reversed single #
loop $-1 $-1 $198 $74 #
plane-surface $-1 -61.475264748069705 0 0 1 0 0 0 0 -1 forward_v I I I I #
coedge $-1 $199 $131 $200 $201 forward $75 $-1 #
coedge $-1 $202 $77 $199 $203 forward $49 $-1 #
coedge $-1 $77 $202 $204 $205 forward $49 $-1 #
coedge $-1 $134 $133 $77 $127 reversed $135 $-1 #
edge $-1 $206 -41.986928538756239 $207 41.986928538756239 $126 $208 forward 7 unknown #
coedge $-1 $79 $78 $209 $210 forward $31 $-1 #
coedge $-1 $211 $212 $78 $130 reversed $196 $-1 #
edge $-1 $137 -61.475264748069705 $213 61.475264748069705 $129 $214 forward 7 unknown #
coedge $-1 $123 $215 $79 $132 reversed $75 $-1 #
edge $-1 $216 -61.475264748069705 $136 61.475264748069705 $131 $217 forward 7 unknown #
coedge $-1 $126 $80 $215 $218 forward $135 $-1 #
coedge $-1 $80 $126 $211 $219 reversed $135 $-1 #
loop $-1 $-1 $133 $195 #
vertex $-1 $81 $220 #
vertex $-1 $81 $221 #
straight-curve $-1 61.475264748069705 0 11.952442152891949 0 1 0 I I #
face $-1 $222 $223 $19 $-1 $224 reversed single #
loop $-1 $-1 $150 $82 #
plane-surface $-1 0 -49.372496004069703 8.5782400470329723 0 0 1 1 0 0 forward_v I I I I #
coedge $-1 $225 $226 $86 $147 forward $83 $-1 #
coedge $-1 $227 $85 $226 $228 forward $53 $-1 #
coedge $-1 $85 $227 $229 $230 forward $53 $-1 #
coedge $-1 $87 $86 $85 $146 reversed $34 $-1 #
edge $-1 $231 -61.475264748069705 $232 61.475264748069705 $85 $233 forward 7 unknown #
edge $-1 $232 -11.952442152891949 $153 -8.5782400470329723 $142 $234 forward 7 unknown #
coedge $-1 $229 $235 $87 $149 forward $236 $-1 #
edge $-1 $152 8.5782400470329723 $231 11.952442152891949 $148 $237 forward 7 unknown #
coedge $-1 $238 $88 $235 $239 forward $140 $-1 #
coedge $-1 $88 $238 $225 $240 forward $140 $-1 #
vertex $-1 $149 $241 #
vertex $-1 $147 $242 #
straight-curve $-1 0 -41.986928538756239 8.5782400470329723 -1 0 0 I I #
face $-1 $-1 $167 $20 $-1 $243 forward single #
loop $-1 $-1 $244 $90 #
plane-surface $-1 61.475264748069705 0 0 -1 0 0 0 0 1 forward_v I I I I #
coedge $-1 $245 $246 $247 $248 reversed $91 $-1 #
coedge $-1 $249 $93 $95 $165 forward $57 $-1 #
coedge $-1 $93 $249 $245 $250 forward $57 $-1 #
coedge $-1 $247 $96 $93 $162 forward $167 $-1 #
edge $-1 $169 -6.2447773037324374 $251 10.692856633146132 $161 $252 forward 7 unknown #
coedge $-1 $253 $254 $94 $164 forward $156 $-1 #
edge $-1 $255 -84.947584797575743 $168 -76.31661971773616 $163 $256 forward 7 unknown #
edge $-1 $169 111.68360488882381 $255 122.95052949613945 $95 $257 forward 7 unknown #
coedge $-1 $96 $247 $253 $258 forward $167 $-1 #
loop $-1 $-1 $247 $155 #
vertex $-1 $164 $259 #
vertex $-1 $97 $260 #
straight-curve $-1 38.314879957833362 4.0207376390255902 11.952442152891948 -1 0 0 I I #
coedge $-1 $171 $171 $-1 $261 reversed $100 $-1 #
edge $-1 $262 0 $262 6.2831853071796004 $101 $263 forward 7 unknown #
vertex $-1 $104 $264 #
ellipse-curve $-1 57.854145035276268 -4.4480793294136944 7.6369596129721709 0.7660444514056185 0 0.64278759981090561 0.96418139971635841 0 -1.1490666771084277 1 I I #
face $-1 $-1 $187 $22 $-1 $265 forward single #
loop $-1 $-1 $266 $105 #
plane-surface $-1 61.475264748069705 0 0 -1 0 0 0 0 1 forward_v I I I I #
coedge $-1 $267 $268 $269 $270 reversed $106 $-1 #
coedge $-1 $271 $108 $110 $185 forward $66 $-1 #
coedge $-1 $108 $271 $267 $272 forward $66 $-1 #
coedge $-1 $269 $111 $108 $182 forward $187 $-1 #
edge $-1 $189 -23.545457840453825 $273 -6.6078239035752553 $181 $274 forward 7 unknown #
coedge $-1 $275 $276 $109 $184 forward $176 $-1 #
edge $-1 $277 -84.947584797575743 $188 -76.31661971773616 $183 $278 forward 7 unknown #
edge $-1 $189 111.68360488882381 $277 122.95052949613945 $110 $279 forward 7 unknown #
coedge $-1 $111 $269 $275 $280 forward $187 $-1 #
loop $-1 $-1 $269 $175 #
vertex $-1 $184 $281 #
vertex $-1 $112 $282 #
straight-curve $-1 38.314879957833362 38.622098712468365 11.952442152891948 -1 0 0 I I #
coedge $-1 $191 $191 $-1 $283 reversed $115 $-1 #
edge $-1 $284 0 $284 6.2831853071796004 $116 $285 forward 7 unknown #
vertex $-1 $119 $286 #
ellipse-curve $-1 57.854145035276268 30.15328174402908 7.6369596129721709 0.7660444514056185 0 0.64278759981090561 0.96418139971635841 0 -1.1490666771084277 1 I I #
face $-1 $-1 $135 $18 $-1 $287 reversed single #
loop $-1 $-1 $211 $120 #
plane-surface $-1 0 41.986928538756239 0 0 -1 0 0 0 -1 forward_v I I I I #
coedge $-1 $288 $209 $212 $289 forward $121 $-1 #
coedge $-1 $215 $123 $124 $203 reversed $75 $-1 #
coedge $-1 $209 $288 $123 $201 reversed $121 $-1 #
edge $-1 $216 -11.952442152891949 $290 11.952442152891949 $200 $291 forward 7 unknown #
coedge $-1 $125 $124 $288 $292 forward $49 $-1 #
edge $-1 $207 -61.475264748069705 $290 61.475264748069705 $199 $293 forward 7 unknown #
coedge $-1 $212 $211 $125 $205 reversed $196 $-1 #
edge $-1 $294 -61.475264748069705 $206 61.475264748069705 $204 $295 forward 7 unknown #
vertex $-1 $127 $296 #
vertex $-1 $218 $297 #
straight-curve $-1 61.475264748069705 0 -11.952442152891949 0 -1 0 I I #
coedge $-1 $198 $200 $128 $210 reversed $121 $-1 #
edge $-1 $213 -41.986928538756239 $216 41.986928538756239 $209 $298 forward 7 unknown #
coedge $-1 $204 $129 $134 $219 forward $196 $-1 #
coedge $-1 $129 $204 $198 $289 reversed $196 $-1 #
vertex $-1 $130 $299 #
straight-curve $-1 0 41.986928538756239 11.952442152891949 -1 0 0 I I #
coedge $-1 $131 $199 $133 $218 reversed $75 $-1 #
vertex $-1 $210 $300 #
straight-curve $-1 0 -41.986928538756239 11.952442152891949 1 0 0 I I #
edge $-1 $136 -11.952442152891949 $207 11.952442152891949 $133 $301 forward 7 unknown #
edge $-1 $137 -11.952442152891949 $206 11.952442152891949 $134 $302 forward 7 unknown #
point $-1 61.475264748069705 -41.986928538756239 11.952442152891949 #
point $-1 61.475264748069705 41.986928538756239 11.952442152891949 #
face $-1 $-1 $236 $19 $-1 $303 reversed single #
loop $-1 $-1 $304 $139 #
plane-surface $-1 0 -56.758063469383167 10.265341099962461 0 1 0 0 0 1 forward_v I I I I #
coedge $-1 $305 $142 $151 $240 reversed $83 $-1 #
coedge $-1 $142 $305 $143 $228 reversed $83 $-1 #
coedge $-1 $144 $143 $306 $307 forward $53 $-1 #
edge $-1 $232 41.986928538756239 $308 56.758063469383167 $226 $309 forward 7 unknown #
coedge $-1 $310 $148 $144 $230 reversed $236 $-1 #
edge $-1 $311 -56.758063469383167 $231 -41.986928538756239 $229 $312 forward 7 unknown #
vertex $-1 $149 $313 #
vertex $-1 $228 $314 #
straight-curve $-1 0 -41.986928538756239 11.952442152891949 -1 0 0 I I #
straight-curve $-1 -61.475264748069705 -41.986928538756239 0 0 0 -1 I I #
coedge $-1 $148 $310 $150 $239 reversed $236 $-1 #
loop $-1 $-1 $148 $222 #
straight-curve $-1 61.475264748069705 -41.986928538756239 0 0 0 1 I I #
coedge $-1 $151 $150 $315 $316 forward $140 $-1 #
edge $-1 $152 -7.3855674653134642 $317 7.3855674653134642 $235 $318 forward 7 unknown #
edge $-1 $319 -7.3855674653134642 $153 7.3855674653134642 $225 $320 forward 7 unknown #
point $-1 61.475264748069705 -41.986928538756239 8.5782400470329723 #
point $-1 -61.475264748069705 -41.986928538756239 8.5782400470329723 #
plane-surface $-1 0 0 11.952442152891949 0 0 1 1 0 0 forward_v I I I I #
coedge $-1 $254 $253 $246 $321 forward $156 $-1 #
coedge $-1 $246 $158 $160 $250 reversed $91 $-1 #
coedge $-1 $158 $245 $244 $321 reversed $91 $-1 #
coedge $-1 $166 $161 $158 $248 forward $167 $-1 #
edge $-1 $251 15.918145364649497 $322 23.160384790236343 $247 $323 forward 7 unknown #
coedge $-1 $160 $159 $254 $324 reversed $57 $-1 #
edge $-1 $325 -122.95052949613945 $251 -111.68360488882381 $245 $326 forward 7 unknown #
vertex $-1 $162 $327 #
straight-curve $-1 54.233025322482845 -2.2240396647068472 11.952442152891948 0 -1 0 I I #
coedge $-1 $244 $163 $166 $258 reversed $156 $-1 #
coedge $-1 $163 $244 $249 $324 forward $156 $-1 #
vertex $-1 $164 $328 #
straight-curve $-1 61.475264748069705 4.0207376390255902 88.269061870628107 0 0 1 I I #
straight-curve $-1 -17.55581100223371 4.0207376390255902 97.507047990952813 0.64278759981090561 0 -0.7660444514056185 I I #
edge $-1 $322 -12.916896297852979 $168 4.0207376390255902 $253 $329 forward 7 unknown #
point $-1 61.475264748069705 4.0207376390255902 11.952442152891949 #
point $-1 54.23302532248286 4.0207376390255902 11.952442152891948 #
edge $-1 $330 1 $330 0 $171 $-1 forward 7 unknown #
vertex $-1 $172 $331 #
ellipse-curve $-1 54.98510786004055 -4.4480793294136944 5.2295516404268065 0.7660444514056185 0 0.64278759981090561 0.96418139971635841 0 -1.1490666771084277 1 I I #
point $-1 58.818326434992635 -4.4480793294136944 6.4878929358637496 #
plane-surface $-1 0 0 11.952442152891949 0 0 1 1 0 0 forward_v I I I I #
coedge $-1 $276 $275 $268 $332 forward $176 $-1 #
coedge $-1 $268 $178 $180 $272 reversed $106 $-1 #
coedge $-1 $178 $267 $266 $332 reversed $106 $-1 #
coedge $-1 $186 $181 $178 $270 forward $187 $-1 #
edge $-1 $273 15.918145364649497 $333 23.160384790236343 $269 $334 forward 7 unknown #
coedge $-1 $180 $179 $276 $335 reversed $66 $-1 #
edge $-1 $336 -122.95052949613945 $273 -111.68360488882381 $267 $337 forward 7 unknown #
vertex $-1 $182 $338 #
straight-curve $-1 54.233025322482845 15.07664087201454 11.952442152891948 0 -1 0 I I #
coedge $-1 $266 $183 $186 $280 reversed $176 $-1 #
coedge $-1 $183 $266 $271 $335 forward $176 $-1 #
vertex $-1 $184 $339 #
straight-curve $-1 61.475264748069705 38.622098712468365 88.269061870628107 0 0 1 I I #
straight-curve $-1 -17.55581100223371 38.622098712468365 97.507047990952813 0.64278759981090561 0 -0.7660444514056185 I I #
edge $-1 $333 21.684464775589795 $188 38.622098712468365 $275 $340 forward 7 unknown #
point $-1 61.475264748069705 38.622098712468365 11.952442152891949 #
point $-1 54.23302532248286 38.622098712468365 11.952442152891948 #
edge $-1 $341 1 $341 0 $191 $-1 forward 7 unknown #
vertex $-1 $192 $342 #
ellipse-curve $-1 54.98510786004055 30.15328174402908 5.2295516404268065 0.7660444514056185 0 0.64278759981090561 0.96418139971635841 0 -1.1490666771084277 1 I I #
point $-1 58.818326434992635 30.15328174402908 6.4878929358637496 #
plane-surface $-1 61.475264748069705 0 0 -1 0 0 0 0 1 forward_v I I I I #
coedge $-1 $200 $198 $202 $292 reversed $121 $-1 #
edge $-1 $213 -11.952442152891949 $294 11.952442152891949 $212 $343 forward 7 unknown #
vertex $-1 $292 $344 #
straight-curve $-1 -61.475264748069705 -41.986928538756239 0 0 0 -1 I I #
edge $-1 $290 -41.986928538756239 $294 41.986928538756239 $288 $345 forward 7 unknown #
straight-curve $-1 0 -41.986928538756239 -11.952442152891949 -1 0 0 I I #
vertex $-1 $205 $346 #
straight-curve $-1 0 41.986928538756239 -11.952442152891949 1 0 0 I I #
point $-1 61.475264748069705 41.986928538756239 -11.952442152891949 #
point $-1 61.475264748069705 -41.986928538756239 -11.952442152891949 #
straight-curve $-1 -61.475264748069705 0 11.952442152891949 0 -1 0 I I #
point $-1 -61.475264748069705 41.986928538756239 11.952442152891949 #
point $-1 -61.475264748069705 -41.986928538756239 11.952442152891949 #
straight-curve $-1 61.475264748069705 -41.986928538756239 0 0 0 -1 I I #
straight-curve $-1 61.475264748069705 41.986928538756239 0 0 0 -1 I I #
plane-surface $-1 61.475264748069705 0 0 -1 0 0 0 0 1 forward_v I I I I #
coedge $-1 $315 $306 $305 $347 forward $223 $-1 #
coedge $-1 $226 $225 $304 $347 reversed $83 $-1 #
coedge $-1 $304 $348 $227 $307 reversed $223 $-1 #
edge $-1 $308 -61.475264748069705 $311 61.475264748069705 $306 $349 forward 7 unknown #
vertex $-1 $228 $350 #
straight-curve $-1 -61.475264748069705 0 11.952442152891949 0 -1 0 I I #
coedge $-1 $235 $229 $348 $351 forward $236 $-1 #
vertex $-1 $230 $352 #
straight-curve $-1 61.475264748069705 0 11.952442152891949 0 1 0 I I #
point $-1 61.475264748069705 -41.986928538756239 11.952442152891949 #
point $-1 -61.475264748069705 -41.986928538756239 11.952442152891949 #
coedge $-1 $348 $304 $238 $316 reversed $223 $-1 #
edge $-1 $317 -61.475264748069705 $319 61.475264748069705 $315 $353 forward 7 unknown #
vertex $-1 $351 $354 #
straight-curve $-1 61.475264748069705 -49.372496004069703 8.5782400470329723 0 -1 0 I I #
vertex $-1 $240 $355 #
straight-curve $-1 -61.475264748069705 -49.372496004069703 8.5782400470329723 0 1 0 I I #
edge $-1 $322 76.31661971773616 $325 84.947584797575743 $244 $356 forward 7 unknown #
vertex $-1 $258 $357 #
straight-curve $-1 38.314879957833362 -12.916896297852979 11.952442152891948 1 0 0 I I #
edge $-1 $325 -10.692856633146132 $255 6.2447773037324374 $254 $358 forward 7 unknown #
vertex $-1 $324 $359 #
straight-curve $-1 -17.55581100223371 -12.916896297852979 97.507047990952813 -0.64278759981090561 0 0.7660444514056185 I I #
point $-1 54.23302532248286 -12.916896297852979 11.952442152891948 #
point $-1 61.475264748069705 4.0207376390255902 3.3214770730523639 #
straight-curve $-1 61.475264748069705 0 11.952442152891949 0 1 0 I I #
vertex $-1 $261 $360 #
point $-1 55.94928925975691 -4.4480793294136944 4.0804849633183791 #
edge $-1 $333 76.31661971773616 $336 84.947584797575743 $266 $361 forward 7 unknown #
vertex $-1 $280 $362 #
straight-curve $-1 38.314879957833362 21.684464775589795 11.952442152891948 1 0 0 I I #
edge $-1 $336 6.6078239035752553 $277 23.545457840453825 $276 $363 forward 7 unknown #
vertex $-1 $335 $364 #
straight-curve $-1 -17.55581100223371 21.684464775589795 97.507047990952813 -0.64278759981090561 0 0.7660444514056185 I I #
point $-1 54.23302532248286 21.684464775589795 11.952442152891948 #
point $-1 61.475264748069705 38.622098712468365 3.3214770730523639 #
straight-curve $-1 61.475264748069705 0 11.952442152891949 0 1 0 I I #
vertex $-1 $283 $365 #
point $-1 55.94928925975691 30.15328174402908 4.0804849633183791 #
straight-curve $-1 -61.475264748069705 41.986928538756239 0 0 0 -1 I I #
point $-1 -61.475264748069705 -41.986928538756239 -11.952442152891949 #
straight-curve $-1 -61.475264748069705 0 -11.952442152891949 0 1 0 I I #
point $-1 -61.475264748069705 41.986928538756239 -11.952442152891949 #
edge $-1 $308 -1.6871010529294885 $319 1.6871010529294885 $305 $366 forward 7 unknown #
coedge $-1 $306 $315 $310 $351 reversed $223 $-1 #
straight-curve $-1 0 -56.758063469383167 11.952442152891949 1 0 0 I I #
point $-1 -61.475264748069705 -56.758063469383167 11.952442152891949 #
edge $-1 $311 -1.6871010529294885 $317 1.6871010529294885 $310 $367 forward 7 unknown #
point $-1 61.475264748069705 -56.758063469383167 11.952442152891949 #
straight-curve $-1 0 -56.758063469383167 8.5782400470329723 -1 0 0 I I #
point $-1 61.475264748069705 -56.758063469383167 8.5782400470329723 #
point $-1 -61.475264748069705 -56.758063469383167 8.5782400470329723 #
straight-curve $-1 61.475264748069705 -12.916896297852979 88.269061870628107 0 0 -1 I I #
point $-1 61.475264748069705 -12.916896297852979 11.952442152891949 #
straight-curve $-1 61.475264748069705 -2.2240396647068472 3.3214770730523639 0 1 0 I I #
point $-1 61.475264748069705 -12.916896297852979 3.3214770730523639 #
point $-1 53.836041182932128 -4.4480793294136944 4.2653702407104488 #
straight-curve $-1 61.475264748069705 21.684464775589795 88.269061870628107 0 0 -1 I I #
point $-1 61.475264748069705 21.684464775589795 11.952442152891949 #
straight-curve $-1 61.475264748069705 15.07664087201454 3.3214770730523639 0 1 0 I I #
point $-1 61.475264748069705 21.684464775589795 3.3214770730523639 #
point $-1 53.836041182932128 30.15328174402908 4.2653702407104488 #
straight-curve $-1 -61.475264748069705 -56.758063469383167 10.265341099962461 0 0 -1 I I #
straight-curve $-1 61.475264748069705 -56.758063469383167 10.265341099962461 0 0 -1 I I #
End-of-ACIS-data 