500 0 6 0           
7 Unknown 11 ACIS 5.0 NT 24 Thu Mar 25 16:21:48 1999 
-1 9.9999999999999995e-007 1e-010 
body $-1 $6 $-1 $7 #
body $-1 $8 $-1 $9 #
body $-1 $10 $-1 $11 #
body $-1 $12 $-1 $13 #
body $-1 $14 $-1 $15 #
body $-1 $16 $-1 $17 #
lump $-1 $-1 $18 $0 #
transform $-1 1 0 0 0 1 0 0 0 1 58.809167760246595 40.559606322832742 9.0362005101874239 1 rotate no_reflect no_shear #
lump $-1 $-1 $19 $1 #
transform $-1 1 0 0 0 1 0 0 0 1 58.809167760246595 40.559606322832742 9.0362005101874239 1 rotate no_reflect no_shear #
lump $-1 $-1 $20 $2 #
transform $-1 1 0 0 0 1 0 0 0 1 58.809167760246595 40.559606322832742 9.0362005101874239 1 rotate no_reflect no_shear #
lump $-1 $-1 $21 $3 #
transform $-1 1 0 0 0 1 0 0 0 1 58.809167760246595 40.559606322832742 9.0362005101874239 1 rotate no_reflect no_shear #
lump $-1 $-1 $22 $4 #
transform $-1 1 0 0 0 1 0 0 0 1 58.809167760246595 40.559606322832742 9.0362005101874239 1 rotate no_reflect no_shear #
lump $-1 $-1 $23 $5 #
transform $-1 1 0 0 0 1 0 0 0 1 58.809167760246595 40.559606322832742 9.0362005101874239 1 rotate no_reflect no_shear #
shell $-1 $-1 $-1 $24 $-1 $6 #
shell $-1 $-1 $-1 $25 $-1 $8 #
shell $-1 $-1 $-1 $26 $-1 $10 #
shell $-1 $-1 $-1 $27 $-1 $12 #
shell $-1 $-1 $-1 $28 $-1 $14 #
shell $-1 $-1 $-1 $29 $-1 $16 #
face $-1 $30 $31 $18 $-1 $32 forward single #
face $-1 $33 $34 $19 $-1 $35 forward single #
face $-1 $36 $37 $20 $-1 $38 reversed single #
face $-1 $39 $40 $21 $-1 $41 forward single #
face $-1 $42 $43 $22 $-1 $44 reversed single #
face $-1 $45 $46 $23 $-1 $47 forward single #
face $-1 $48 $49 $18 $-1 $50 reversed single #
loop $-1 $-1 $51 $24 #
plane-surface $-1 0 0 9.0362005101874239 0 0 1 1 0 0 forward_v I I I I #
face $-1 $52 $53 $19 $-1 $54 reversed single #
loop $-1 $-1 $55 $25 #
plane-surface $-1 0 -40.559606322832742 0 0 1 0 0 0 1 forward_v I I I I #
face $-1 $56 $57 $20 $-1 $58 reversed single #
loop $-1 $-1 $59 $26 #
plane-surface $-1 -121.13739040257529 18.084424757872505 101.34370899872543 0 1 0 -0.52991927123019833 0 0.84804809178421925 forward_v I I I I #
face $-1 $60 $61 $21 $-1 $62 forward single #
loop $-1 $63 $64 $27 #
cone-surface $-1 -52.050797538183261 21.703148144814314 4.0265562543675006 0.52991927123019833 0 -0.84804809178421925 1.2720721376763289 0 0.79487890684529749 1 I I 0 1 1.5 forward I I I I #
face $-1 $65 $66 $22 $-1 $67 reversed single #
loop $-1 $-1 $68 $28 #
plane-surface $-1 21.391385405584984 25.321871531756123 163.67193164105413 0 -1 0 -0.52991927123019833 0 -0.84804809178421925 forward_v I I I I #
face $-1 $69 $70 $23 $-1 $71 forward single #
loop $-1 $72 $73 $29 #
cone-surface $-1 52.050797538183247 21.703148144814314 4.0265562543675077 -0.52991927123019833 0 -0.84804809178421925 1.2720721376763289 0 -0.79487890684529749 1 I I 0 1 1.5 forward I I I I #
face $-1 $74 $75 $18 $-1 $76 reversed single #
loop $-1 $-1 $77 $30 #
plane-surface $-1 0 0 -9.0362005101874239 0 0 1 1 0 0 forward_v I I I I #
coedge $-1 $78 $79 $80 $81 forward $31 $-1 #
face $-1 $82 $83 $19 $-1 $84 reversed single #
loop $-1 $-1 $85 $33 #
plane-surface $-1 0 0 -9.0362005101874239 0 0 1 1 0 0 forward_v I I I I #
coedge $-1 $86 $87 $88 $89 forward $34 $-1 #
face $-1 $90 $91 $20 $-1 $92 reversed single #
loop $-1 $-1 $93 $36 #
plane-surface $-1 -58.809167760246588 21.703148144814314 1.5977040017351243 -0.52991927123019833 0 0.84804809178421925 0.84804809178421925 0 0.52991927123019833 forward_v I I I I #
coedge $-1 $94 $95 $96 $97 reversed $37 $-1 #
face $-1 $-1 $98 $21 $-1 $99 forward single #
loop $-1 $100 $101 $39 #
cone-surface $-1 -50.847029156734521 21.703148144814314 2.1001241839355522 0.52991927123019833 0 -0.84804809178421925 0.63603606883816444 0 0.39743945342264875 1 I I -0.70710678118654757 0.70710678118654757 0.75 forward I I I I #
loop $-1 $-1 $102 $27 #
coedge $-1 $64 $64 $103 $104 reversed $40 $-1 #
face $-1 $105 $106 $22 $-1 $107 reversed single #
loop $-1 $-1 $108 $42 #
plane-surface $-1 -40.93683723674372 21.703148144814314 63.925926644063821 0.52991927123019833 0 0.84804809178421925 0.84804809178421925 0 -0.52991927123019833 forward_v I I I I #
coedge $-1 $109 $110 $111 $112 reversed $43 $-1 #
face $-1 $-1 $113 $23 $-1 $114 forward single #
loop $-1 $115 $116 $45 #
cone-surface $-1 50.847029156734507 21.703148144814314 2.1001241839355593 -0.52991927123019833 0 -0.84804809178421925 0.63603606883816444 0 -0.39743945342264875 1 I I -0.70710678118654757 0.70710678118654757 0.75 forward I I I I #
loop $-1 $-1 $117 $29 #
coedge $-1 $73 $73 $118 $119 reversed $46 $-1 #
face $-1 $120 $121 $18 $-1 $122 reversed single #
loop $-1 $-1 $123 $48 #
plane-surface $-1 0 -40.559606322832742 0 0 1 0 0 0 1 forward_v I I I I #
coedge $-1 $124 $125 $126 $127 forward $49 $-1 #
coedge $-1 $128 $51 $129 $130 forward $31 $-1 #
coedge $-1 $51 $128 $131 $132 forward $31 $-1 #
coedge $-1 $133 $134 $51 $81 reversed $135 $-1 #
edge $-1 $136 -40.559606322832742 $137 40.559606322832742 $80 $138 forward 7 unknown #
face $-1 $139 $140 $19 $-1 $141 reversed single #
loop $-1 $-1 $142 $52 #
plane-surface $-1 -42.236766739871747 -49.67353023619382 0 0 1 0 0 0 1 forward_v I I I I #
coedge $-1 $143 $144 $87 $145 forward $53 $-1 #
coedge $-1 $146 $55 $147 $148 reversed $34 $-1 #
coedge $-1 $55 $146 $85 $145 reversed $34 $-1 #
coedge $-1 $149 $150 $55 $89 reversed $140 $-1 #
edge $-1 $151 -9.0362005101874239 $152 9.0362005101874239 $88 $153 forward 7 unknown #
face $-1 $154 $155 $20 $-1 $156 reversed single #
loop $-1 $-1 $157 $56 #
plane-surface $-1 -121.13739040257529 25.321871531756123 101.34370899872543 0 -1 0 0.52991927123019833 0 -0.84804809178421925 forward_v I I I I #
coedge $-1 $158 $159 $160 $161 reversed $57 $-1 #
coedge $-1 $95 $59 $162 $163 reversed $37 $-1 #
coedge $-1 $59 $94 $158 $164 reversed $37 $-1 #
coedge $-1 $160 $165 $59 $97 forward $166 $-1 #
edge $-1 $167 1.7595274410410511 $168 13.663610029115596 $96 $169 forward 7 unknown #
loop $-1 $-1 $103 $60 #
plane-surface $-1 -58.809167760246588 21.703148144814314 1.5977040017351243 -0.52991927123019833 0 0.84804809178421925 0.84804809178421925 0 0.52991927123019833 forward_v I I I I #
loop $-1 $-1 $170 $39 #
coedge $-1 $101 $101 $102 $171 reversed $61 $-1 #
coedge $-1 $102 $102 $101 $171 forward $63 $-1 #
coedge $-1 $103 $103 $64 $104 forward $98 $-1 #
edge $-1 $172 0 $172 6.2831853071796004 $103 $173 forward 7 unknown #
face $-1 $174 $175 $22 $-1 $176 forward single #
loop $-1 $-1 $177 $65 #
plane-surface $-1 21.391385405584984 18.084424757872505 163.67193164105413 0 1 0 0.52991927123019833 0 0.84804809178421925 forward_v I I I I #
coedge $-1 $178 $179 $180 $181 reversed $66 $-1 #
coedge $-1 $110 $68 $182 $183 reversed $43 $-1 #
coedge $-1 $68 $109 $178 $184 reversed $43 $-1 #
coedge $-1 $180 $185 $68 $112 forward $175 $-1 #
edge $-1 $186 -48.113475057454103 $187 -36.209392469379537 $111 $188 forward 7 unknown #
loop $-1 $-1 $118 $69 #
plane-surface $-1 -40.93683723674372 21.703148144814314 63.925926644063821 0.52991927123019833 0 0.84804809178421925 0.84804809178421925 0 -0.52991927123019833 forward_v I I I I #
loop $-1 $-1 $189 $45 #
coedge $-1 $116 $116 $117 $190 reversed $70 $-1 #
coedge $-1 $117 $117 $116 $190 forward $72 $-1 #
coedge $-1 $118 $118 $73 $119 forward $113 $-1 #
edge $-1 $191 0 $191 6.2831853071796004 $118 $192 forward 7 unknown #
face $-1 $193 $194 $18 $-1 $195 reversed single #
loop $-1 $-1 $196 $74 #
plane-surface $-1 -58.809167760246595 0 0 1 0 0 0 0 -1 forward_v I I I I #
coedge $-1 $197 $131 $198 $199 forward $75 $-1 #
coedge $-1 $200 $77 $197 $201 forward $49 $-1 #
coedge $-1 $77 $200 $202 $203 forward $49 $-1 #
coedge $-1 $134 $133 $77 $127 reversed $135 $-1 #
edge $-1 $204 -40.559606322832742 $205 40.559606322832742 $126 $206 forward 7 unknown #
coedge $-1 $79 $78 $207 $208 forward $31 $-1 #
coedge $-1 $209 $210 $78 $130 reversed $194 $-1 #
edge $-1 $137 -58.809167760246595 $211 58.809167760246595 $129 $212 forward 7 unknown #
coedge $-1 $123 $213 $79 $132 reversed $75 $-1 #
edge $-1 $214 -58.809167760246595 $136 58.809167760246595 $131 $215 forward 7 unknown #
coedge $-1 $126 $80 $213 $216 forward $135 $-1 #
coedge $-1 $80 $126 $209 $217 reversed $135 $-1 #
loop $-1 $-1 $133 $193 #
vertex $-1 $81 $218 #
vertex $-1 $81 $219 #
straight-curve $-1 58.809167760246595 0 9.0362005101874239 0 1 0 I I #
face $-1 $220 $221 $19 $-1 $222 reversed single #
loop $-1 $-1 $88 $82 #
plane-surface $-1 -43.736766739871747 -45.116568279513281 0 1 0 0 0 0 -1 forward_v I I I I #
coedge $-1 $223 $224 $225 $226 forward $83 $-1 #
coedge $-1 $227 $85 $228 $229 forward $53 $-1 #
coedge $-1 $85 $227 $149 $230 forward $53 $-1 #
edge $-1 $151 -43.736766739871747 $231 -40.736766739871747 $85 $232 forward 7 unknown #
coedge $-1 $87 $86 $233 $234 forward $34 $-1 #
coedge $-1 $235 $236 $86 $148 forward $237 $-1 #
edge $-1 $238 40.736766739871747 $152 43.736766739871747 $147 $239 forward 7 unknown #
coedge $-1 $225 $88 $144 $230 reversed $140 $-1 #
coedge $-1 $88 $225 $235 $240 reversed $140 $-1 #
vertex $-1 $145 $241 #
vertex $-1 $240 $242 #
straight-curve $-1 -43.736766739871747 -40.559606322832742 0 0 0 1 I I #
face $-1 $-1 $166 $20 $-1 $243 forward single #
loop $-1 $-1 $244 $90 #
plane-surface $-1 -58.809167760246595 0 0 1 0 0 0 0 -1 forward_v I I I I #
coedge $-1 $245 $246 $247 $248 reversed $91 $-1 #
coedge $-1 $249 $93 $95 $164 forward $57 $-1 #
coedge $-1 $93 $249 $245 $250 forward $57 $-1 #
coedge $-1 $247 $96 $93 $161 forward $166 $-1 #
edge $-1 $168 7.2328506854653476 $251 14.470297459348966 $160 $252 forward 7 unknown #
coedge $-1 $253 $254 $94 $163 forward $155 $-1 #
edge $-1 $255 -49.074150497627599 $167 -41.635653989175296 $162 $256 forward 7 unknown #
edge $-1 $168 -14.037037172065778 $255 8.3790584163743152e-015 $95 $257 forward 7 unknown #
coedge $-1 $96 $247 $253 $258 forward $166 $-1 #
loop $-1 $-1 $247 $154 #
vertex $-1 $163 $259 #
vertex $-1 $97 $260 #
straight-curve $-1 -60.568695201287646 18.084424757872505 9.0362005101874203 1 0 0 I I #
coedge $-1 $170 $170 $-1 $261 reversed $100 $-1 #
edge $-1 $262 0 $262 6.2831853071796004 $101 $263 forward 7 unknown #
vertex $-1 $104 $264 #
ellipse-curve $-1 -52.857126466209337 21.703148144814314 5.3169522559612643 -0.52991927123019833 0 0.84804809178421925 1.2720721376763289 0 0.79487890684529749 1 I I #
face $-1 $-1 $265 $22 $-1 $266 reversed single #
loop $-1 $-1 $111 $105 #
plane-surface $-1 0 0 9.0362005101874239 0 0 1 1 0 0 forward_v I I I I #
coedge $-1 $267 $268 $269 $270 reversed $106 $-1 #
coedge $-1 $271 $108 $110 $184 forward $66 $-1 #
coedge $-1 $108 $271 $267 $272 forward $66 $-1 #
coedge $-1 $269 $111 $108 $181 forward $175 $-1 #
edge $-1 $187 -14.470297459348966 $273 -7.2328506854653476 $180 $274 forward 7 unknown #
coedge $-1 $275 $276 $109 $183 forward $265 $-1 #
edge $-1 $277 -80.238261818791955 $186 -72.799765310339637 $182 $278 forward 7 unknown #
edge $-1 $187 103.5812983484274 $277 117.61833552049319 $110 $279 forward 7 unknown #
coedge $-1 $111 $269 $275 $280 forward $175 $-1 #
vertex $-1 $112 $281 #
vertex $-1 $112 $282 #
straight-curve $-1 10.695692702792492 25.321871531756123 9.0362005101874274 -1 0 0 I I #
coedge $-1 $189 $189 $-1 $283 reversed $115 $-1 #
edge $-1 $284 0 $284 6.2831853071796004 $116 $285 forward 7 unknown #
vertex $-1 $119 $286 #
ellipse-curve $-1 52.857126466209323 21.703148144814314 5.3169522559612723 0.52991927123019833 0 0.84804809178421925 1.2720721376763289 0 -0.79487890684529749 1 I I #
face $-1 $-1 $135 $18 $-1 $287 reversed single #
loop $-1 $-1 $209 $120 #
plane-surface $-1 0 40.559606322832742 0 0 -1 0 0 0 -1 forward_v I I I I #
coedge $-1 $288 $207 $210 $289 forward $121 $-1 #
coedge $-1 $213 $123 $124 $201 reversed $75 $-1 #
coedge $-1 $207 $288 $123 $199 reversed $121 $-1 #
edge $-1 $214 -9.0362005101874239 $290 9.0362005101874239 $198 $291 forward 7 unknown #
coedge $-1 $125 $124 $288 $292 forward $49 $-1 #
edge $-1 $205 -58.809167760246595 $290 58.809167760246595 $197 $293 forward 7 unknown #
coedge $-1 $210 $209 $125 $203 reversed $194 $-1 #
edge $-1 $294 -58.809167760246595 $204 58.809167760246595 $202 $295 forward 7 unknown #
vertex $-1 $127 $296 #
vertex $-1 $216 $297 #
straight-curve $-1 58.809167760246595 0 -9.0362005101874239 0 -1 0 I I #
coedge $-1 $196 $198 $128 $208 reversed $121 $-1 #
edge $-1 $211 -40.559606322832742 $214 40.559606322832742 $207 $298 forward 7 unknown #
coedge $-1 $202 $129 $134 $217 forward $194 $-1 #
coedge $-1 $129 $202 $196 $289 reversed $194 $-1 #
vertex $-1 $130 $299 #
straight-curve $-1 0 40.559606322832742 9.0362005101874239 -1 0 0 I I #
coedge $-1 $131 $197 $133 $216 reversed $75 $-1 #
vertex $-1 $208 $300 #
straight-curve $-1 0 -40.559606322832742 9.0362005101874239 1 0 0 I I #
edge $-1 $136 -9.0362005101874239 $205 9.0362005101874239 $133 $301 forward 7 unknown #
edge $-1 $137 -9.0362005101874239 $204 9.0362005101874239 $134 $302 forward 7 unknown #
point $-1 58.809167760246595 -40.559606322832742 9.0362005101874239 #
point $-1 58.809167760246595 40.559606322832742 9.0362005101874239 #
face $-1 $-1 $237 $19 $-1 $303 forward single #
loop $-1 $-1 $304 $139 #
plane-surface $-1 -40.736766739871747 -45.116568279513281 0 -1 0 0 0 0 1 forward_v I I I I #
coedge $-1 $305 $142 $227 $306 reversed $83 $-1 #
coedge $-1 $142 $305 $307 $308 reversed $83 $-1 #
coedge $-1 $150 $149 $142 $226 reversed $140 $-1 #
edge $-1 $309 -9.0362005101874239 $310 9.0362005101874239 $225 $311 forward 7 unknown #
coedge $-1 $144 $143 $223 $306 forward $53 $-1 #
coedge $-1 $233 $304 $143 $229 reversed $221 $-1 #
edge $-1 $231 -4.5569619566805386 $312 4.5569619566805386 $228 $313 forward 7 unknown #
edge $-1 $310 -4.5569619566805386 $151 4.5569619566805386 $149 $314 forward 7 unknown #
vertex $-1 $229 $315 #
straight-curve $-1 0 -40.559606322832742 -9.0362005101874239 1 0 0 I I #
coedge $-1 $316 $228 $146 $234 reversed $221 $-1 #
edge $-1 $238 -9.0362005101874239 $231 9.0362005101874239 $233 $317 forward 7 unknown #
coedge $-1 $307 $147 $150 $240 forward $237 $-1 #
coedge $-1 $147 $307 $316 $318 forward $237 $-1 #
loop $-1 $-1 $147 $220 #
vertex $-1 $148 $319 #
straight-curve $-1 0 -40.559606322832742 9.0362005101874239 -1 0 0 I I #
edge $-1 $152 -4.5569619566805386 $309 4.5569619566805386 $150 $320 forward 7 unknown #
point $-1 -43.736766739871747 -40.559606322832742 -9.0362005101874239 #
point $-1 -43.736766739871747 -40.559606322832742 9.0362005101874239 #
plane-surface $-1 0 0 9.0362005101874239 0 0 1 1 0 0 forward_v I I I I #
coedge $-1 $254 $253 $246 $321 forward $155 $-1 #
coedge $-1 $246 $157 $159 $250 reversed $91 $-1 #
coedge $-1 $157 $245 $244 $321 reversed $91 $-1 #
coedge $-1 $165 $160 $157 $248 forward $166 $-1 #
edge $-1 $251 -13.663610029115596 $322 -1.7595274410410511 $247 $323 forward 7 unknown #
coedge $-1 $159 $158 $254 $324 reversed $57 $-1 #
edge $-1 $325 -8.3790584163743152e-015 $251 14.037037172065778 $245 $326 forward 7 unknown #
vertex $-1 $161 $327 #
straight-curve $-1 -46.905085172172065 10.851574072407157 9.0362005101874239 0 1 0 I I #
coedge $-1 $244 $162 $165 $258 reversed $155 $-1 #
coedge $-1 $162 $244 $249 $324 forward $155 $-1 #
vertex $-1 $163 $328 #
straight-curve $-1 -58.809167760246595 18.084424757872505 50.671854499362716 0 0 1 I I #
straight-curve $-1 -58.809167760246588 18.084424757872505 1.5977040017351243 -0.84804809178421925 0 -0.52991927123019833 I I #
edge $-1 $322 -25.321871531756123 $167 -18.084424757872505 $253 $329 forward 7 unknown #
point $-1 -58.809167760246595 18.084424757872505 9.0362005101874239 #
point $-1 -46.905085172172051 18.084424757872505 9.0362005101874239 #
edge $-1 $330 1 $330 0 $170 $-1 forward 7 unknown #
vertex $-1 $171 $331 #
ellipse-curve $-1 -51.24446861015717 21.703148144814314 2.7361602527737166 -0.52991927123019833 0 0.84804809178421925 1.2720721376763289 0 0.79487890684529749 1 I I #
point $-1 -51.585054328533019 21.703148144814314 6.111831162806582 #
loop $-1 $-1 $182 $174 #
plane-surface $-1 58.809167760246595 0 0 -1 0 0 0 0 1 forward_v I I I I #
coedge $-1 $268 $177 $179 $272 reversed $106 $-1 #
coedge $-1 $177 $267 $332 $333 reversed $106 $-1 #
coedge $-1 $185 $180 $177 $270 forward $175 $-1 #
edge $-1 $273 36.209392469379537 $334 48.113475057454103 $269 $335 forward 7 unknown #
coedge $-1 $179 $178 $276 $336 reversed $66 $-1 #
edge $-1 $337 -117.61833552049319 $273 -103.5812983484274 $267 $338 forward 7 unknown #
vertex $-1 $181 $339 #
straight-curve $-1 46.905085172172058 10.851574072407157 9.0362005101874132 0 -1 0 I I #
coedge $-1 $332 $182 $185 $280 reversed $265 $-1 #
coedge $-1 $182 $332 $271 $336 forward $265 $-1 #
vertex $-1 $183 $340 #
straight-curve $-1 58.809167760246595 25.321871531756123 81.835965820527065 0 0 1 I I #
straight-curve $-1 -40.93683723674372 25.321871531756123 63.925926644063821 0.84804809178421925 0 -0.52991927123019833 I I #
edge $-1 $334 18.084424757872505 $186 25.321871531756123 $275 $341 forward 7 unknown #
point $-1 58.809167760246595 25.321871531756123 9.0362005101874239 #
point $-1 46.905085172172029 25.321871531756123 9.0362005101874274 #
edge $-1 $342 1 $342 0 $189 $-1 forward 7 unknown #
vertex $-1 $190 $343 #
ellipse-curve $-1 51.244468610157156 21.703148144814314 2.7361602527737237 0.52991927123019833 0 0.84804809178421925 1.2720721376763289 0 -0.79487890684529749 1 I I #
point $-1 54.129198603885662 21.703148144814314 4.5220733491159937 #
plane-surface $-1 58.809167760246595 0 0 -1 0 0 0 0 1 forward_v I I I I #
coedge $-1 $198 $196 $200 $292 reversed $121 $-1 #
edge $-1 $211 -9.0362005101874239 $294 9.0362005101874239 $210 $344 forward 7 unknown #
vertex $-1 $292 $345 #
straight-curve $-1 -58.809167760246595 -40.559606322832742 0 0 0 -1 I I #
edge $-1 $290 -40.559606322832742 $294 40.559606322832742 $288 $346 forward 7 unknown #
straight-curve $-1 0 -40.559606322832742 -9.0362005101874239 -1 0 0 I I #
vertex $-1 $203 $347 #
straight-curve $-1 0 40.559606322832742 -9.0362005101874239 1 0 0 I I #
point $-1 58.809167760246595 40.559606322832742 -9.0362005101874239 #
point $-1 58.809167760246595 -40.559606322832742 -9.0362005101874239 #
straight-curve $-1 -58.809167760246595 0 9.0362005101874239 0 -1 0 I I #
point $-1 -58.809167760246595 40.559606322832742 9.0362005101874239 #
point $-1 -58.809167760246595 -40.559606322832742 9.0362005101874239 #
straight-curve $-1 58.809167760246595 -40.559606322832742 0 0 0 -1 I I #
straight-curve $-1 58.809167760246595 40.559606322832742 0 0 0 -1 I I #
plane-surface $-1 0 0 9.0362005101874239 0 0 1 1 0 0 forward_v I I I I #
coedge $-1 $228 $316 $305 $348 forward $221 $-1 #
coedge $-1 $224 $223 $304 $348 reversed $83 $-1 #
edge $-1 $312 -1.5 $310 1.5 $223 $349 forward 7 unknown #
coedge $-1 $236 $235 $224 $308 forward $237 $-1 #
edge $-1 $309 -1.5 $350 1.5 $224 $351 forward 7 unknown #
vertex $-1 $240 $352 #
vertex $-1 $230 $353 #
straight-curve $-1 -43.736766739871747 -49.67353023619382 0 0 0 -1 I I #
vertex $-1 $348 $354 #
straight-curve $-1 -40.736766739871747 -45.116568279513281 -9.0362005101874239 0 -1 0 I I #
straight-curve $-1 -43.736766739871747 -45.116568279513281 -9.0362005101874239 0 1 0 I I #
point $-1 -40.736766739871747 -40.559606322832742 -9.0362005101874239 #
coedge $-1 $304 $233 $236 $318 reversed $221 $-1 #
straight-curve $-1 -40.736766739871747 -40.559606322832742 0 0 0 -1 I I #
edge $-1 $350 -4.5569619566805386 $238 4.5569619566805386 $316 $355 forward 7 unknown #
point $-1 -40.736766739871747 -40.559606322832742 9.0362005101874239 #
straight-curve $-1 -43.736766739871747 -45.116568279513281 9.0362005101874239 0 -1 0 I I #
edge $-1 $322 41.635653989175296 $325 49.074150497627599 $244 $356 forward 7 unknown #
vertex $-1 $258 $357 #
straight-curve $-1 -60.568695201287646 25.321871531756123 9.0362005101874203 -1 0 0 I I #
edge $-1 $325 -14.470297459348966 $255 -7.2328506854653476 $254 $358 forward 7 unknown #
vertex $-1 $324 $359 #
straight-curve $-1 -58.809167760246588 25.321871531756123 1.5977040017351243 0.84804809178421925 0 0.52991927123019833 I I #
point $-1 -46.905085172172051 25.321871531756123 9.0362005101874239 #
point $-1 -58.809167760246595 18.084424757872505 1.5977040017351198 #
straight-curve $-1 -58.809167760246595 0 9.0362005101874239 0 -1 0 I I #
vertex $-1 $261 $360 #
point $-1 -49.972396472480838 21.703148144814314 3.5310391596190143 #
coedge $-1 $276 $275 $268 $333 forward $265 $-1 #
edge $-1 $334 72.799765310339637 $337 80.238261818791955 $332 $361 forward 7 unknown #
vertex $-1 $280 $362 #
straight-curve $-1 10.695692702792492 18.084424757872505 9.0362005101874274 1 0 0 I I #
edge $-1 $337 7.2328506854653476 $277 14.470297459348966 $276 $363 forward 7 unknown #
vertex $-1 $336 $364 #
straight-curve $-1 -40.93683723674372 18.084424757872505 63.925926644063821 -0.84804809178421925 0 0.52991927123019833 I I #
point $-1 46.905085172172029 18.084424757872505 9.0362005101874274 #
point $-1 58.809167760246588 25.321871531756123 1.5977040017351172 #
straight-curve $-1 58.809167760246595 0 9.0362005101874239 0 1 0 I I #
vertex $-1 $283 $365 #
point $-1 52.516540747833488 21.703148144814314 1.9412813459284264 #
straight-curve $-1 -58.809167760246595 40.559606322832742 0 0 0 -1 I I #
point $-1 -58.809167760246595 -40.559606322832742 -9.0362005101874239 #
straight-curve $-1 -58.809167760246595 0 -9.0362005101874239 0 1 0 I I #
point $-1 -58.809167760246595 40.559606322832742 -9.0362005101874239 #
edge $-1 $350 -9.0362005101874239 $312 9.0362005101874239 $304 $366 forward 7 unknown #
straight-curve $-1 -42.236766739871747 -49.67353023619382 -9.0362005101874239 -1 0 0 I I #
vertex $-1 $318 $367 #
straight-curve $-1 -42.236766739871747 -49.67353023619382 9.0362005101874239 1 0 0 I I #
point $-1 -43.736766739871747 -49.67353023619382 9.0362005101874239 #
point $-1 -43.736766739871747 -49.67353023619382 -9.0362005101874239 #
point $-1 -40.736766739871747 -49.67353023619382 -9.0362005101874239 #
straight-curve $-1 -40.736766739871747 -45.116568279513281 9.0362005101874239 0 1 0 I I #
straight-curve $-1 -58.809167760246595 25.321871531756123 50.671854499362716 0 0 -1 I I #
point $-1 -58.809167760246595 25.321871531756123 9.0362005101874239 #
straight-curve $-1 -58.809167760246595 10.851574072407157 1.5977040017351232 0 -1 0 I I #
point $-1 -58.809167760246595 25.321871531756123 1.5977040017351198 #
point $-1 -50.449589703311872 21.703148144814314 1.4640881150973879 #
straight-curve $-1 58.809167760246595 18.084424757872505 81.835965820527065 0 0 -1 I I #
point $-1 58.809167760246595 18.084424757872505 9.0362005101874239 #
straight-curve $-1 58.809167760246595 10.851574072407157 1.5977040017351101 0 1 0 I I #
point $-1 58.809167760246588 18.084424757872505 1.5977040017351172 #
point $-1 50.449589703311858 21.703148144814314 1.464088115097395 #
straight-curve $-1 -40.736766739871747 -49.67353023619382 0 0 0 -1 I I #
point $-1 -40.736766739871747 -49.67353023619382 9.0362005101874239 #
End-of-ACIS-data 