500 0 18 0           
7 Unknown 11 ACIS 5.0 NT 24 Thu Mar 25 17:12:03 1999 
-1 9.9999999999999995e-007 1e-010 
body $-1 $18 $-1 $19 #
body $-1 $20 $-1 $21 #
body $-1 $22 $-1 $23 #
body $-1 $24 $-1 $25 #
body $-1 $26 $-1 $27 #
body $-1 $28 $-1 $29 #
body $-1 $30 $-1 $31 #
body $-1 $32 $-1 $33 #
body $-1 $34 $-1 $35 #
body $-1 $36 $-1 $37 #
body $-1 $38 $-1 $39 #
body $-1 $40 $-1 $41 #
body $-1 $42 $-1 $43 #
body $-1 $44 $-1 $45 #
body $-1 $46 $-1 $47 #
body $-1 $48 $-1 $49 #
body $-1 $50 $-1 $51 #
body $-1 $52 $-1 $53 #
lump $-1 $-1 $54 $0 #
transform $-1 1 0 0 0 1 0 0 0 1 53.924985503708001 33.200886335303991 15.466625857272494 1 rotate no_reflect no_shear #
lump $-1 $-1 $55 $1 #
transform $-1 1 0 0 0 1 0 0 0 1 53.924985503708001 33.200886335303991 15.466625857272494 1 rotate no_reflect no_shear #
lump $-1 $-1 $56 $2 #
transform $-1 1 0 0 0 1 0 0 0 1 53.924985503708001 33.200886335303991 15.466625857272494 1 rotate no_reflect no_shear #
lump $-1 $-1 $57 $3 #
transform $-1 1 0 0 0 1 0 0 0 1 53.924985503708001 33.200886335303991 15.466625857272494 1 rotate no_reflect no_shear #
lump $-1 $-1 $58 $4 #
transform $-1 1 0 0 0 1 0 0 0 1 53.924985503708001 33.200886335303991 15.466625857272494 1 rotate no_reflect no_shear #
lump $-1 $-1 $59 $5 #
transform $-1 1 0 0 0 1 0 0 0 1 53.924985503708001 33.200886335303991 15.466625857272494 1 rotate no_reflect no_shear #
lump $-1 $-1 $60 $6 #
transform $-1 1 0 0 0 1 0 0 0 1 53.924985503708001 33.200886335303991 15.466625857272494 1 rotate no_reflect no_shear #
lump $-1 $-1 $61 $7 #
transform $-1 1 0 0 0 1 0 0 0 1 53.924985503708001 33.200886335303991 15.466625857272494 1 rotate no_reflect no_shear #
lump $-1 $-1 $62 $8 #
transform $-1 1 0 0 0 1 0 0 0 1 53.924985503708001 33.200886335303991 15.466625857272494 1 rotate no_reflect no_shear #
lump $-1 $-1 $63 $9 #
transform $-1 1 0 0 0 1 0 0 0 1 53.924985503708001 33.200886335303991 15.466625857272494 1 rotate no_reflect no_shear #
lump $-1 $-1 $64 $10 #
transform $-1 1 0 0 0 1 0 0 0 1 53.924985503708001 33.200886335303991 15.466625857272494 1 rotate no_reflect no_shear #
lump $-1 $-1 $65 $11 #
transform $-1 1 0 0 0 1 0 0 0 1 53.924985503708001 33.200886335303991 15.466625857272494 1 rotate no_reflect no_shear #
lump $-1 $-1 $66 $12 #
transform $-1 1 0 0 0 1 0 0 0 1 53.924985503708001 33.200886335303991 15.466625857272494 1 rotate no_reflect no_shear #
lump $-1 $-1 $67 $13 #
transform $-1 1 0 0 0 1 0 0 0 1 53.924985503708001 33.200886335303991 15.466625857272494 1 rotate no_reflect no_shear #
lump $-1 $-1 $68 $14 #
transform $-1 1 0 0 0 1 0 0 0 1 53.924985503708001 33.200886335303991 15.466625857272494 1 rotate no_reflect no_shear #
lump $-1 $-1 $69 $15 #
transform $-1 1 0 0 0 1 0 0 0 1 53.924985503708001 33.200886335303991 15.466625857272494 1 rotate no_reflect no_shear #
lump $-1 $-1 $70 $16 #
transform $-1 1 0 0 0 1 0 0 0 1 53.924985503708001 33.200886335303991 15.466625857272494 1 rotate no_reflect no_shear #
lump $-1 $-1 $71 $17 #
transform $-1 1 0 0 0 1 0 0 0 1 53.924985503708001 33.200886335303991 15.466625857272494 1 rotate no_reflect no_shear #
shell $-1 $-1 $-1 $72 $-1 $18 #
shell $-1 $-1 $-1 $73 $-1 $20 #
shell $-1 $-1 $-1 $74 $-1 $22 #
shell $-1 $-1 $-1 $75 $-1 $24 #
shell $-1 $-1 $-1 $76 $-1 $26 #
shell $-1 $-1 $-1 $77 $-1 $28 #
shell $-1 $-1 $-1 $78 $-1 $30 #
shell $-1 $-1 $-1 $79 $-1 $32 #
shell $-1 $-1 $-1 $80 $-1 $34 #
shell $-1 $-1 $-1 $81 $-1 $36 #
shell $-1 $-1 $-1 $82 $-1 $38 #
shell $-1 $-1 $-1 $83 $-1 $40 #
shell $-1 $-1 $-1 $84 $-1 $42 #
shell $-1 $-1 $-1 $85 $-1 $44 #
shell $-1 $-1 $-1 $86 $-1 $46 #
shell $-1 $-1 $-1 $87 $-1 $48 #
shell $-1 $-1 $-1 $88 $-1 $50 #
shell $-1 $-1 $-1 $89 $-1 $52 #
face $-1 $90 $91 $54 $-1 $92 forward single #
face $-1 $93 $94 $55 $-1 $95 reversed single #
face $-1 $96 $97 $56 $-1 $98 reversed single #
face $-1 $99 $100 $57 $-1 $101 forward single #
face $-1 $102 $103 $58 $-1 $104 forward single #
face $-1 $105 $106 $59 $-1 $107 forward single #
face $-1 $108 $109 $60 $-1 $110 reversed single #
face $-1 $111 $112 $61 $-1 $113 forward single #
face $-1 $114 $115 $62 $-1 $116 forward single #
face $-1 $117 $118 $63 $-1 $119 forward single #
face $-1 $120 $121 $64 $-1 $122 reversed single #
face $-1 $123 $124 $65 $-1 $125 forward single #
face $-1 $126 $127 $66 $-1 $128 forward single #
face $-1 $129 $130 $67 $-1 $131 forward single #
face $-1 $132 $133 $68 $-1 $134 reversed single #
face $-1 $135 $136 $69 $-1 $137 forward single #
face $-1 $138 $139 $70 $-1 $140 forward single #
face $-1 $141 $142 $71 $-1 $143 forward single #
face $-1 $144 $145 $54 $-1 $146 reversed single #
loop $-1 $-1 $147 $72 #
plane-surface $-1 0 0 15.466625857272494 0 0 1 1 0 0 forward_v I I I I #
face $-1 $148 $149 $55 $-1 $150 forward single #
loop $-1 $-1 $151 $73 #
plane-surface $-1 -37.259886129889921 0 11.784797241857955 -1 0 0 0 0 1 forward_v I I I I #
face $-1 $152 $153 $56 $-1 $154 reversed single #
loop $-1 $-1 $155 $74 #
plane-surface $-1 -31.64664706094463 -33.200886335303998 3.5306951492504339 0 -0.54463904215088732 0.83867056331134215 1 0 0 forward_v I I I I #
face $-1 $156 $157 $57 $-1 $158 forward single #
loop $-1 $159 $160 $75 #
cone-surface $-1 -35.014590502311805 -23.530471180391345 8.7586713681201331 0 0.54463904215088732 -0.83867056331134215 1 0 0 1 I I 0 1 1 forward I I I I #
face $-1 $161 $162 $58 $-1 $163 forward single #
loop $-1 $164 $165 $76 #
cone-surface $-1 -31.646647060944634 -23.530471180391345 8.7586713681201331 0 0.54463904215088732 -0.83867056331134215 1 0 0 1 I I 0 1 1 forward I I I I #
face $-1 $166 $167 $59 $-1 $168 forward single #
loop $-1 $169 $170 $77 #
cone-surface $-1 -28.27870361957746 -23.530471180391345 8.7586713681201331 0 0.54463904215088732 -0.83867056331134215 1 0 0 1 I I 0 1 1 forward I I I I #
face $-1 $171 $172 $60 $-1 $173 reversed single #
loop $-1 $-1 $174 $78 #
plane-surface $-1 -10.607088297987476 -91.940191240784017 93.981291087151931 1 0 0 0 0.54463904215088732 -0.83867056331134215 forward_v I I I I #
face $-1 $175 $176 $61 $-1 $177 forward single #
loop $-1 $178 $179 $79 #
cone-surface $-1 -8.3617926704093577 -23.530471180391345 8.7586713681201331 0 0.54463904215088732 -0.83867056331134215 1 0 0 1 I I 0 1 1 forward I I I I #
face $-1 $180 $181 $62 $-1 $182 forward single #
loop $-1 $183 $184 $80 #
cone-surface $-1 -4.9938492290421834 -23.530471180391345 8.7586713681201331 0 0.54463904215088732 -0.83867056331134215 1 0 0 1 I I 0 1 1 forward I I I I #
face $-1 $185 $186 $63 $-1 $187 forward single #
loop $-1 $188 $189 $81 #
cone-surface $-1 -1.6259057876750092 -23.530471180391345 8.7586713681201331 0 0.54463904215088732 -0.83867056331134215 1 0 0 1 I I 0 1 1 forward I I I I #
face $-1 $190 $191 $64 $-1 $192 reversed single #
loop $-1 $-1 $193 $82 #
plane-surface $-1 16.045709533914973 -91.940191240784017 93.981291087151931 1 0 0 0 0.54463904215088732 -0.83867056331134215 forward_v I I I I #
face $-1 $194 $195 $65 $-1 $196 forward single #
loop $-1 $197 $198 $83 #
cone-surface $-1 18.291005161493089 -23.530471180391345 8.7586713681201331 0 0.54463904215088732 -0.83867056331134215 1 0 0 1 I I 0 1 1 forward I I I I #
face $-1 $199 $200 $66 $-1 $201 forward single #
loop $-1 $202 $203 $84 #
cone-surface $-1 21.658948602860264 -23.530471180391345 8.7586713681201331 0 0.54463904215088732 -0.83867056331134215 1 0 0 1 I I 0 1 1 forward I I I I #
face $-1 $204 $205 $67 $-1 $206 forward single #
loop $-1 $207 $208 $85 #
cone-surface $-1 25.026892044227438 -23.530471180391345 8.7586713681201331 0 0.54463904215088732 -0.83867056331134215 1 0 0 1 I I 0 1 1 forward I I I I #
face $-1 $209 $210 $68 $-1 $211 reversed single #
loop $-1 $-1 $212 $86 #
plane-surface $-1 42.69850736581742 -91.940191240784017 93.981291087151931 1 0 0 0 0.54463904215088732 -0.83867056331134215 forward_v I I I I #
face $-1 $213 $214 $69 $-1 $215 forward single #
loop $-1 $216 $217 $87 #
cone-surface $-1 44.943802993395536 -23.530471180391345 8.7586713681201331 0 0.54463904215088732 -0.83867056331134215 1 0 0 1 I I 0 1 1 forward I I I I #
face $-1 $218 $219 $70 $-1 $220 forward single #
loop $-1 $221 $222 $88 #
cone-surface $-1 48.311746434762711 -23.530471180391345 8.7586713681201331 0 0.54463904215088732 -0.83867056331134215 1 0 0 1 I I 0 1 1 forward I I I I #
face $-1 $223 $224 $71 $-1 $225 forward single #
loop $-1 $226 $227 $89 #
cone-surface $-1 51.679689876129885 -23.530471180391345 8.7586713681201331 0 0.54463904215088732 -0.83867056331134215 1 0 0 1 I I 0 1 1 forward I I I I #
face $-1 $228 $229 $54 $-1 $230 reversed single #
loop $-1 $-1 $231 $90 #
plane-surface $-1 0 0 -15.466625857272494 0 0 1 1 0 0 forward_v I I I I #
coedge $-1 $232 $233 $234 $235 forward $91 $-1 #
face $-1 $236 $237 $55 $-1 $238 reversed single #
loop $-1 $-1 $239 $93 #
plane-surface $-1 -45.592435816798961 0 14.966625857272494 0 0 1 1 0 0 forward_v I I I I #
coedge $-1 $240 $241 $242 $243 reversed $94 $-1 #
face $-1 $244 $245 $56 $-1 $246 reversed single #
loop $-1 $-1 $247 $96 #
plane-surface $-1 -26.03340799199934 -91.940191240784017 93.981291087151931 -1 0 0 0 -0.54463904215088732 0.83867056331134215 forward_v I I I I #
coedge $-1 $248 $249 $250 $251 reversed $97 $-1 #
face $-1 $-1 $252 $57 $-1 $253 forward single #
loop $-1 $254 $255 $99 #
cone-surface $-1 -35.014590502311805 -22.777597087119929 7.5993469513231346 0 0.54463904215088732 -0.83867056331134215 0.5 0 0 1 I I -0.70710678118654746 0.70710678118654746 0.5 forward I I I I #
loop $-1 $-1 $256 $75 #
coedge $-1 $160 $160 $257 $258 reversed $100 $-1 #
face $-1 $-1 $259 $58 $-1 $260 forward single #
loop $-1 $261 $262 $102 #
cone-surface $-1 -31.646647060944634 -22.777597087119929 7.5993469513231346 0 0.54463904215088732 -0.83867056331134215 0.5 0 0 1 I I -0.70710678118654746 0.70710678118654746 0.5 forward I I I I #
loop $-1 $-1 $263 $76 #
coedge $-1 $165 $165 $264 $265 reversed $103 $-1 #
face $-1 $-1 $266 $59 $-1 $267 forward single #
loop $-1 $268 $269 $105 #
cone-surface $-1 -28.27870361957746 -22.777597087119929 7.5993469513231346 0 0.54463904215088732 -0.83867056331134215 0.5 0 0 1 I I -0.70710678118654746 0.70710678118654746 0.5 forward I I I I #
loop $-1 $-1 $270 $77 #
coedge $-1 $170 $170 $271 $272 reversed $106 $-1 #
face $-1 $273 $274 $60 $-1 $275 reversed single #
loop $-1 $-1 $276 $108 #
plane-surface $-1 -4.9938492290421834 -33.200886335303998 3.5306951492504339 0 -0.54463904215088732 0.83867056331134215 1 0 0 forward_v I I I I #
coedge $-1 $277 $278 $279 $280 reversed $109 $-1 #
face $-1 $-1 $281 $61 $-1 $282 forward single #
loop $-1 $283 $284 $111 #
cone-surface $-1 -8.3617926704093577 -22.777597087119929 7.5993469513231346 0 0.54463904215088732 -0.83867056331134215 0.5 0 0 1 I I -0.70710678118654746 0.70710678118654746 0.5 forward I I I I #
loop $-1 $-1 $285 $79 #
coedge $-1 $179 $179 $286 $287 reversed $112 $-1 #
face $-1 $-1 $288 $62 $-1 $289 forward single #
loop $-1 $290 $291 $114 #
cone-surface $-1 -4.9938492290421834 -22.777597087119929 7.5993469513231346 0 0.54463904215088732 -0.83867056331134215 0.5 0 0 1 I I -0.70710678118654746 0.70710678118654746 0.5 forward I I I I #
loop $-1 $-1 $292 $80 #
coedge $-1 $184 $184 $293 $294 reversed $115 $-1 #
face $-1 $-1 $295 $63 $-1 $296 forward single #
loop $-1 $297 $298 $117 #
cone-surface $-1 -1.6259057876750092 -22.777597087119929 7.5993469513231346 0 0.54463904215088732 -0.83867056331134215 0.5 0 0 1 I I -0.70710678118654746 0.70710678118654746 0.5 forward I I I I #
loop $-1 $-1 $299 $81 #
coedge $-1 $189 $189 $300 $301 reversed $118 $-1 #
face $-1 $302 $303 $64 $-1 $304 reversed single #
loop $-1 $-1 $305 $120 #
plane-surface $-1 21.658948602860264 -33.200886335303998 3.5306951492504339 0 -0.54463904215088732 0.83867056331134215 1 0 0 forward_v I I I I #
coedge $-1 $306 $307 $308 $309 reversed $121 $-1 #
face $-1 $-1 $310 $65 $-1 $311 forward single #
loop $-1 $312 $313 $123 #
cone-surface $-1 18.291005161493089 -22.777597087119929 7.5993469513231346 0 0.54463904215088732 -0.83867056331134215 0.5 0 0 1 I I -0.70710678118654746 0.70710678118654746 0.5 forward I I I I #
loop $-1 $-1 $314 $83 #
coedge $-1 $198 $198 $315 $316 reversed $124 $-1 #
face $-1 $-1 $317 $66 $-1 $318 forward single #
loop $-1 $319 $320 $126 #
cone-surface $-1 21.658948602860264 -22.777597087119929 7.5993469513231346 0 0.54463904215088732 -0.83867056331134215 0.5 0 0 1 I I -0.70710678118654746 0.70710678118654746 0.5 forward I I I I #
loop $-1 $-1 $321 $84 #
coedge $-1 $203 $203 $322 $323 reversed $127 $-1 #
face $-1 $-1 $324 $67 $-1 $325 forward single #
loop $-1 $326 $327 $129 #
cone-surface $-1 25.026892044227438 -22.777597087119929 7.5993469513231346 0 0.54463904215088732 -0.83867056331134215 0.5 0 0 1 I I -0.70710678118654746 0.70710678118654746 0.5 forward I I I I #
loop $-1 $-1 $328 $85 #
coedge $-1 $208 $208 $329 $330 reversed $130 $-1 #
face $-1 $331 $332 $68 $-1 $333 reversed single #
loop $-1 $-1 $334 $132 #
plane-surface $-1 48.311746434762711 -33.200886335303998 3.5306951492504339 0 -0.54463904215088732 0.83867056331134215 1 0 0 forward_v I I I I #
coedge $-1 $335 $336 $337 $338 reversed $133 $-1 #
face $-1 $-1 $339 $69 $-1 $340 forward single #
loop $-1 $341 $342 $135 #
cone-surface $-1 44.943802993395536 -22.777597087119929 7.5993469513231346 0 0.54463904215088732 -0.83867056331134215 0.5 0 0 1 I I -0.70710678118654746 0.70710678118654746 0.5 forward I I I I #
loop $-1 $-1 $343 $87 #
coedge $-1 $217 $217 $344 $345 reversed $136 $-1 #
face $-1 $-1 $346 $70 $-1 $347 forward single #
loop $-1 $348 $349 $138 #
cone-surface $-1 48.311746434762711 -22.777597087119929 7.5993469513231346 0 0.54463904215088732 -0.83867056331134215 0.5 0 0 1 I I -0.70710678118654746 0.70710678118654746 0.5 forward I I I I #
loop $-1 $-1 $350 $88 #
coedge $-1 $222 $222 $351 $352 reversed $139 $-1 #
face $-1 $-1 $353 $71 $-1 $354 forward single #
loop $-1 $355 $356 $141 #
cone-surface $-1 51.679689876129885 -22.777597087119929 7.5993469513231346 0 0.54463904215088732 -0.83867056331134215 0.5 0 0 1 I I -0.70710678118654746 0.70710678118654746 0.5 forward I I I I #
loop $-1 $-1 $357 $89 #
coedge $-1 $227 $227 $358 $359 reversed $142 $-1 #
face $-1 $360 $361 $54 $-1 $362 reversed single #
loop $-1 $-1 $363 $144 #
plane-surface $-1 0 -33.200886335303991 0 0 1 0 0 0 1 forward_v I I I I #
coedge $-1 $364 $365 $366 $367 forward $145 $-1 #
coedge $-1 $368 $147 $369 $370 forward $91 $-1 #
coedge $-1 $147 $368 $371 $372 forward $91 $-1 #
coedge $-1 $373 $374 $147 $235 reversed $375 $-1 #
edge $-1 $376 -33.200886335303991 $377 33.200886335303991 $234 $378 forward 7 unknown #
face $-1 $379 $380 $55 $-1 $381 reversed single #
loop $-1 $-1 $242 $148 #
plane-surface $-1 -45.592435816798961 0 8.6029686264434169 0 0 1 1 0 0 forward_v I I I I #
coedge $-1 $382 $383 $384 $385 forward $149 $-1 #
coedge $-1 $384 $151 $386 $387 reversed $94 $-1 #
coedge $-1 $151 $384 $388 $389 reversed $94 $-1 #
coedge $-1 $390 $391 $151 $243 forward $237 $-1 #
edge $-1 $392 -33.200886335303991 $393 33.200886335303991 $151 $394 forward 7 unknown #
face $-1 $395 $396 $56 $-1 $397 forward single #
loop $-1 $-1 $398 $152 #
plane-surface $-1 0 -33.200886335303991 0 0 1 0 0 0 1 forward_v I I I I #
coedge $-1 $399 $400 $401 $402 reversed $153 $-1 #
coedge $-1 $403 $155 $404 $405 forward $97 $-1 #
coedge $-1 $155 $403 $399 $406 forward $97 $-1 #
coedge $-1 $401 $398 $155 $251 forward $245 $-1 #
edge $-1 $407 -21.436562599417606 $408 -10.210084461527025 $250 $409 forward 7 unknown #
loop $-1 $-1 $257 $156 #
plane-surface $-1 -31.64664706094463 -33.200886335303998 3.5306951492504339 0 -0.54463904215088732 0.83867056331134215 1 0 0 forward_v I I I I #
loop $-1 $-1 $410 $99 #
coedge $-1 $255 $255 $256 $411 reversed $157 $-1 #
coedge $-1 $256 $256 $255 $411 forward $159 $-1 #
coedge $-1 $257 $257 $160 $258 forward $252 $-1 #
edge $-1 $412 2.0892196144505337e-015 $412 6.2831853071796022 $257 $413 forward 7 unknown #
loop $-1 $-1 $264 $161 #
plane-surface $-1 -31.64664706094463 -33.200886335303998 3.5306951492504339 0 -0.54463904215088732 0.83867056331134215 1 0 0 forward_v I I I I #
loop $-1 $-1 $414 $102 #
coedge $-1 $262 $262 $263 $415 reversed $162 $-1 #
coedge $-1 $263 $263 $262 $415 forward $164 $-1 #
coedge $-1 $264 $264 $165 $265 forward $259 $-1 #
edge $-1 $416 2.0892196144505337e-015 $416 6.2831853071796022 $264 $417 forward 7 unknown #
loop $-1 $-1 $271 $166 #
plane-surface $-1 -31.64664706094463 -33.200886335303998 3.5306951492504339 0 -0.54463904215088732 0.83867056331134215 1 0 0 forward_v I I I I #
loop $-1 $-1 $418 $105 #
coedge $-1 $269 $269 $270 $419 reversed $167 $-1 #
coedge $-1 $270 $270 $269 $419 forward $169 $-1 #
coedge $-1 $271 $271 $170 $272 forward $266 $-1 #
edge $-1 $420 2.0892196144505337e-015 $420 6.2831853071796022 $271 $421 forward 7 unknown #
face $-1 $422 $423 $60 $-1 $424 forward single #
loop $-1 $-1 $425 $171 #
plane-surface $-1 0.61938983990310881 -91.940191240784017 93.981291087151931 -1 0 0 0 -0.54463904215088732 0.83867056331134215 forward_v I I I I #
coedge $-1 $426 $427 $428 $429 reversed $172 $-1 #
coedge $-1 $278 $174 $430 $431 reversed $109 $-1 #
coedge $-1 $174 $277 $426 $432 reversed $109 $-1 #
coedge $-1 $428 $433 $174 $280 forward $434 $-1 #
edge $-1 $435 31.524019686303472 $436 43.459950394325524 $279 $437 forward 7 unknown #
loop $-1 $-1 $286 $175 #
plane-surface $-1 -4.9938492290421834 -33.200886335303998 3.5306951492504339 0 -0.54463904215088732 0.83867056331134215 1 0 0 forward_v I I I I #
loop $-1 $-1 $438 $111 #
coedge $-1 $284 $284 $285 $439 reversed $176 $-1 #
coedge $-1 $285 $285 $284 $439 forward $178 $-1 #
coedge $-1 $286 $286 $179 $287 forward $281 $-1 #
edge $-1 $440 2.0892196144505337e-015 $440 6.2831853071796022 $286 $441 forward 7 unknown #
loop $-1 $-1 $293 $180 #
plane-surface $-1 -4.9938492290421834 -33.200886335303998 3.5306951492504339 0 -0.54463904215088732 0.83867056331134215 1 0 0 forward_v I I I I #
loop $-1 $-1 $442 $114 #
coedge $-1 $291 $291 $292 $443 reversed $181 $-1 #
coedge $-1 $292 $292 $291 $443 forward $183 $-1 #
coedge $-1 $293 $293 $184 $294 forward $288 $-1 #
edge $-1 $444 2.0892196144505337e-015 $444 6.2831853071796022 $293 $445 forward 7 unknown #
loop $-1 $-1 $300 $185 #
plane-surface $-1 -4.9938492290421834 -33.200886335303998 3.5306951492504339 0 -0.54463904215088732 0.83867056331134215 1 0 0 forward_v I I I I #
loop $-1 $-1 $446 $117 #
coedge $-1 $298 $298 $299 $447 reversed $186 $-1 #
coedge $-1 $299 $299 $298 $447 forward $188 $-1 #
coedge $-1 $300 $300 $189 $301 forward $295 $-1 #
edge $-1 $448 2.0892196144505337e-015 $448 6.2831853071796022 $300 $449 forward 7 unknown #
face $-1 $450 $451 $64 $-1 $452 reversed single #
loop $-1 $-1 $453 $190 #
plane-surface $-1 27.272187671805554 -91.940191240784017 93.981291087151931 -1 0 0 0 -0.54463904215088732 0.83867056331134215 forward_v I I I I #
coedge $-1 $454 $455 $456 $457 reversed $191 $-1 #
coedge $-1 $307 $193 $458 $459 reversed $121 $-1 #
coedge $-1 $193 $306 $454 $460 reversed $121 $-1 #
coedge $-1 $456 $461 $193 $309 forward $451 $-1 #
edge $-1 $462 31.524019686303472 $463 43.459950394325524 $308 $464 forward 7 unknown #
loop $-1 $-1 $315 $194 #
plane-surface $-1 21.658948602860264 -33.200886335303998 3.5306951492504339 0 -0.54463904215088732 0.83867056331134215 1 0 0 forward_v I I I I #
loop $-1 $-1 $465 $123 #
coedge $-1 $313 $313 $314 $466 reversed $195 $-1 #
coedge $-1 $314 $314 $313 $466 forward $197 $-1 #
coedge $-1 $315 $315 $198 $316 forward $310 $-1 #
edge $-1 $467 2.0892196144505337e-015 $467 6.2831853071796022 $315 $468 forward 7 unknown #
loop $-1 $-1 $322 $199 #
plane-surface $-1 21.658948602860264 -33.200886335303998 3.5306951492504339 0 -0.54463904215088732 0.83867056331134215 1 0 0 forward_v I I I I #
loop $-1 $-1 $469 $126 #
coedge $-1 $320 $320 $321 $470 reversed $200 $-1 #
coedge $-1 $321 $321 $320 $470 forward $202 $-1 #
coedge $-1 $322 $322 $203 $323 forward $317 $-1 #
edge $-1 $471 2.0892196144505337e-015 $471 6.2831853071796022 $322 $472 forward 7 unknown #
loop $-1 $-1 $329 $204 #
plane-surface $-1 21.658948602860264 -33.200886335303998 3.5306951492504339 0 -0.54463904215088732 0.83867056331134215 1 0 0 forward_v I I I I #
loop $-1 $-1 $473 $129 #
coedge $-1 $327 $327 $328 $474 reversed $205 $-1 #
coedge $-1 $328 $328 $327 $474 forward $207 $-1 #
coedge $-1 $329 $329 $208 $330 forward $324 $-1 #
edge $-1 $475 2.0892196144505337e-015 $475 6.2831853071796022 $329 $476 forward 7 unknown #
face $-1 $477 $478 $68 $-1 $479 reversed single #
loop $-1 $-1 $337 $209 #
plane-surface $-1 0 -33.200886335303991 0 0 1 0 0 0 1 forward_v I I I I #
coedge $-1 $480 $481 $482 $483 reversed $210 $-1 #
coedge $-1 $336 $212 $484 $485 reversed $133 $-1 #
coedge $-1 $212 $335 $480 $486 reversed $133 $-1 #
coedge $-1 $482 $487 $212 $338 forward $332 $-1 #
edge $-1 $488 31.524019686303472 $489 43.459950394325524 $337 $490 forward 7 unknown #
loop $-1 $-1 $344 $213 #
plane-surface $-1 48.311746434762711 -33.200886335303998 3.5306951492504339 0 -0.54463904215088732 0.83867056331134215 1 0 0 forward_v I I I I #
loop $-1 $-1 $491 $135 #
coedge $-1 $342 $342 $343 $492 reversed $214 $-1 #
coedge $-1 $343 $343 $342 $492 forward $216 $-1 #
coedge $-1 $344 $344 $217 $345 forward $339 $-1 #
edge $-1 $493 2.0892196144505337e-015 $493 6.2831853071796022 $344 $494 forward 7 unknown #
loop $-1 $-1 $351 $218 #
plane-surface $-1 48.311746434762711 -33.200886335303998 3.5306951492504339 0 -0.54463904215088732 0.83867056331134215 1 0 0 forward_v I I I I #
loop $-1 $-1 $495 $138 #
coedge $-1 $349 $349 $350 $496 reversed $219 $-1 #
coedge $-1 $350 $350 $349 $496 forward $221 $-1 #
coedge $-1 $351 $351 $222 $352 forward $346 $-1 #
edge $-1 $497 2.0892196144505337e-015 $497 6.2831853071796022 $351 $498 forward 7 unknown #
loop $-1 $-1 $358 $223 #
plane-surface $-1 48.311746434762711 -33.200886335303998 3.5306951492504339 0 -0.54463904215088732 0.83867056331134215 1 0 0 forward_v I I I I #
loop $-1 $-1 $499 $141 #
coedge $-1 $356 $356 $357 $500 reversed $224 $-1 #
coedge $-1 $357 $357 $356 $500 forward $226 $-1 #
coedge $-1 $358 $358 $227 $359 forward $353 $-1 #
edge $-1 $501 2.0892196144505337e-015 $501 6.2831853071796022 $358 $502 forward 7 unknown #
face $-1 $503 $504 $54 $-1 $505 reversed single #
loop $-1 $-1 $506 $228 #
plane-surface $-1 -53.924985503708001 0 0 1 0 0 0 0 -1 forward_v I I I I #
coedge $-1 $507 $371 $508 $509 forward $229 $-1 #
coedge $-1 $510 $231 $507 $511 forward $145 $-1 #
coedge $-1 $231 $510 $512 $513 forward $145 $-1 #
coedge $-1 $374 $373 $231 $367 reversed $375 $-1 #
edge $-1 $514 -33.200886335303991 $515 33.200886335303991 $366 $516 forward 7 unknown #
coedge $-1 $233 $232 $517 $518 forward $91 $-1 #
coedge $-1 $519 $520 $232 $370 reversed $504 $-1 #
edge $-1 $377 -53.924985503708001 $521 53.924985503708001 $369 $522 forward 7 unknown #
coedge $-1 $363 $523 $233 $372 reversed $229 $-1 #
edge $-1 $524 -53.924985503708001 $376 53.924985503708001 $371 $525 forward 7 unknown #
coedge $-1 $366 $234 $523 $526 forward $375 $-1 #
coedge $-1 $234 $366 $519 $527 reversed $375 $-1 #
loop $-1 $-1 $373 $503 #
vertex $-1 $235 $528 #
vertex $-1 $235 $529 #
straight-curve $-1 53.924985503708001 0 15.466625857272494 0 1 0 I I #
face $-1 $530 $531 $55 $-1 $532 reversed single #
loop $-1 $-1 $533 $236 #
plane-surface $-1 0 -33.200886335303991 0 0 1 0 0 0 1 forward_v I I I I #
coedge $-1 $534 $239 $535 $536 reversed $149 $-1 #
coedge $-1 $239 $534 $537 $538 reversed $149 $-1 #
coedge $-1 $241 $240 $239 $385 reversed $94 $-1 #
edge $-1 $539 -33.200886335303991 $540 33.200886335303991 $384 $541 forward 7 unknown #
coedge $-1 $542 $535 $240 $387 forward $543 $-1 #
edge $-1 $540 -9.0742272363435159 $392 -2.7105700055144393 $386 $544 forward 7 unknown #
coedge $-1 $537 $533 $241 $389 forward $380 $-1 #
edge $-1 $393 2.7105700055144393 $539 9.0742272363435159 $388 $545 forward 7 unknown #
coedge $-1 $546 $242 $533 $547 reversed $237 $-1 #
coedge $-1 $242 $546 $542 $548 reversed $237 $-1 #
vertex $-1 $548 $549 #
vertex $-1 $547 $550 #
straight-curve $-1 -37.259886129889921 0 8.6029686264434169 0 -1 0 I I #
face $-1 $-1 $551 $56 $-1 $552 forward single #
loop $-1 $-1 $404 $244 #
plane-surface $-1 -37.259886129889921 0 11.784797241857955 -1 0 0 0 0 1 forward_v I I I I #
coedge $-1 $250 $553 $554 $555 forward $245 $-1 #
coedge $-1 $400 $247 $249 $406 reversed $153 $-1 #
coedge $-1 $247 $399 $556 $557 reversed $153 $-1 #
coedge $-1 $553 $250 $247 $402 forward $245 $-1 #
edge $-1 $408 -43.459950394325524 $558 -31.524019686303472 $401 $559 forward 7 unknown #
coedge $-1 $249 $248 $560 $561 reversed $97 $-1 #
coedge $-1 $554 $562 $248 $405 reversed $396 $-1 #
edge $-1 $407 8.3777959833898778e-015 $563 21.915304971315877 $404 $564 forward 7 unknown #
edge $-1 $565 -21.915304971315877 $408 -8.3777959833898778e-015 $399 $566 forward 7 unknown #
vertex $-1 $251 $567 #
vertex $-1 $251 $568 #
straight-curve $-1 -15.823323530472315 -33.200886335303991 3.5306951492504357 1 0 0 I I #
coedge $-1 $410 $410 $-1 $569 reversed $254 $-1 #
edge $-1 $570 0 $570 6.2831853071796004 $255 $571 forward 7 unknown #
vertex $-1 $258 $572 #
ellipse-curve $-1 -35.014590502311805 -24.011025752587322 9.4986605032614673 0 -0.54463904215088732 0.83867056331134215 1 0 0 1 I I #
coedge $-1 $414 $414 $-1 $573 reversed $261 $-1 #
edge $-1 $574 0 $574 6.2831853071796004 $262 $575 forward 7 unknown #
vertex $-1 $265 $576 #
ellipse-curve $-1 -31.646647060944634 -24.011025752587322 9.4986605032614673 0 -0.54463904215088732 0.83867056331134215 1 0 0 1 I I #
coedge $-1 $418 $418 $-1 $577 reversed $268 $-1 #
edge $-1 $578 0 $578 6.2831853071796004 $269 $579 forward 7 unknown #
vertex $-1 $272 $580 #
ellipse-curve $-1 -28.27870361957746 -24.011025752587322 9.4986605032614673 0 -0.54463904215088732 0.83867056331134215 1 0 0 1 I I #
face $-1 $-1 $434 $60 $-1 $581 reversed single #
loop $-1 $-1 $582 $273 #
plane-surface $-1 0 0 15.466625857272494 0 0 1 1 0 0 forward_v I I I I #
coedge $-1 $583 $584 $585 $586 reversed $274 $-1 #
coedge $-1 $587 $276 $278 $432 forward $172 $-1 #
coedge $-1 $276 $587 $583 $588 forward $172 $-1 #
coedge $-1 $585 $279 $276 $429 forward $434 $-1 #
edge $-1 $436 -8.1101636834663839 $589 3.1163144544242005 $428 $590 forward 7 unknown #
coedge $-1 $591 $592 $277 $431 forward $423 $-1 #
edge $-1 $593 -31.148930450521355 $435 -12.769209285088017 $430 $594 forward 7 unknown #
edge $-1 $436 8.3777959833898778e-015 $593 21.915304971315877 $278 $595 forward 7 unknown #
coedge $-1 $279 $585 $591 $596 reversed $434 $-1 #
loop $-1 $-1 $585 $422 #
vertex $-1 $596 $597 #
vertex $-1 $280 $598 #
straight-curve $-1 -10.607088297987476 -33.200886335303991 46.990645543575965 0 0 -1 I I #
coedge $-1 $438 $438 $-1 $599 reversed $283 $-1 #
edge $-1 $600 0 $600 6.2831853071796004 $284 $601 forward 7 unknown #
vertex $-1 $287 $602 #
ellipse-curve $-1 -8.3617926704093577 -24.011025752587322 9.4986605032614673 0 -0.54463904215088732 0.83867056331134215 1 0 0 1 I I #
coedge $-1 $442 $442 $-1 $603 reversed $290 $-1 #
edge $-1 $604 0 $604 6.2831853071796004 $291 $605 forward 7 unknown #
vertex $-1 $294 $606 #
ellipse-curve $-1 -4.9938492290421834 -24.011025752587322 9.4986605032614673 0 -0.54463904215088732 0.83867056331134215 1 0 0 1 I I #
coedge $-1 $446 $446 $-1 $607 reversed $297 $-1 #
edge $-1 $608 0 $608 6.2831853071796004 $298 $609 forward 7 unknown #
vertex $-1 $301 $610 #
ellipse-curve $-1 -1.6259057876750092 -24.011025752587322 9.4986605032614673 0 -0.54463904215088732 0.83867056331134215 1 0 0 1 I I #
face $-1 $-1 $611 $64 $-1 $612 forward single #
loop $-1 $-1 $308 $302 #
plane-surface $-1 0 -33.200886335303991 0 0 1 0 0 0 1 forward_v I I I I #
coedge $-1 $613 $614 $615 $616 reversed $303 $-1 #
coedge $-1 $617 $305 $307 $460 forward $191 $-1 #
coedge $-1 $305 $617 $613 $618 forward $191 $-1 #
coedge $-1 $615 $308 $305 $457 forward $451 $-1 #
edge $-1 $463 5.2162352324848413 $619 16.442713370375422 $456 $620 forward 7 unknown #
coedge $-1 $621 $622 $306 $459 forward $611 $-1 #
edge $-1 $623 -31.148930450521355 $462 -12.769209285088017 $458 $624 forward 7 unknown #
edge $-1 $463 8.3777959833898778e-015 $623 21.915304971315877 $307 $625 forward 7 unknown #
coedge $-1 $308 $615 $621 $626 reversed $451 $-1 #
vertex $-1 $626 $627 #
vertex $-1 $309 $628 #
straight-curve $-1 16.045709533914973 -33.200886335303991 46.990645543575965 0 0 -1 I I #
coedge $-1 $465 $465 $-1 $629 reversed $312 $-1 #
edge $-1 $630 0 $630 6.2831853071796004 $313 $631 forward 7 unknown #
vertex $-1 $316 $632 #
ellipse-curve $-1 18.291005161493089 -24.011025752587322 9.4986605032614673 0 -0.54463904215088732 0.83867056331134215 1 0 0 1 I I #
coedge $-1 $469 $469 $-1 $633 reversed $319 $-1 #
edge $-1 $634 0 $634 6.2831853071796004 $320 $635 forward 7 unknown #
vertex $-1 $323 $636 #
ellipse-curve $-1 21.658948602860264 -24.011025752587322 9.4986605032614673 0 -0.54463904215088732 0.83867056331134215 1 0 0 1 I I #
coedge $-1 $473 $473 $-1 $637 reversed $326 $-1 #
edge $-1 $638 0 $638 6.2831853071796004 $327 $639 forward 7 unknown #
vertex $-1 $330 $640 #
ellipse-curve $-1 25.026892044227438 -24.011025752587322 9.4986605032614673 0 -0.54463904215088732 0.83867056331134215 1 0 0 1 I I #
face $-1 $-1 $641 $68 $-1 $642 forward single #
loop $-1 $-1 $643 $331 #
plane-surface $-1 53.924985503708001 0 0 -1 0 0 0 0 1 forward_v I I I I #
coedge $-1 $644 $334 $336 $486 forward $210 $-1 #
coedge $-1 $334 $644 $643 $645 reversed $210 $-1 #
coedge $-1 $646 $337 $334 $483 forward $332 $-1 #
edge $-1 $489 18.542634148436065 $647 29.769112286326646 $482 $648 forward 7 unknown #
coedge $-1 $649 $650 $335 $485 forward $641 $-1 #
edge $-1 $651 -31.148930450521355 $488 -12.769209285088017 $484 $652 forward 7 unknown #
edge $-1 $489 8.3777959833898778e-015 $651 21.915304971315877 $336 $653 forward 7 unknown #
coedge $-1 $337 $646 $649 $654 reversed $332 $-1 #
vertex $-1 $654 $655 #
vertex $-1 $338 $656 #
straight-curve $-1 42.69850736581742 -33.200886335303991 46.990645543575965 0 0 -1 I I #
coedge $-1 $491 $491 $-1 $657 reversed $341 $-1 #
edge $-1 $658 0 $658 6.2831853071796004 $342 $659 forward 7 unknown #
vertex $-1 $345 $660 #
ellipse-curve $-1 44.943802993395536 -24.011025752587322 9.4986605032614673 0 -0.54463904215088732 0.83867056331134215 1 0 0 1 I I #
coedge $-1 $495 $495 $-1 $661 reversed $348 $-1 #
edge $-1 $662 0 $662 6.2831853071796004 $349 $663 forward 7 unknown #
vertex $-1 $352 $664 #
ellipse-curve $-1 48.311746434762711 -24.011025752587322 9.4986605032614673 0 -0.54463904215088732 0.83867056331134215 1 0 0 1 I I #
coedge $-1 $499 $499 $-1 $665 reversed $355 $-1 #
edge $-1 $666 0 $666 6.2831853071796004 $356 $667 forward 7 unknown #
vertex $-1 $359 $668 #
ellipse-curve $-1 51.679689876129885 -24.011025752587322 9.4986605032614673 0 -0.54463904215088732 0.83867056331134215 1 0 0 1 I I #
face $-1 $-1 $375 $54 $-1 $669 reversed single #
loop $-1 $-1 $519 $360 #
plane-surface $-1 0 33.200886335303991 0 0 -1 0 0 0 -1 forward_v I I I I #
coedge $-1 $670 $517 $520 $671 forward $361 $-1 #
coedge $-1 $523 $363 $364 $511 reversed $229 $-1 #
coedge $-1 $517 $670 $363 $509 reversed $361 $-1 #
edge $-1 $524 -15.466625857272494 $672 15.466625857272494 $508 $673 forward 7 unknown #
coedge $-1 $365 $364 $670 $674 forward $145 $-1 #
edge $-1 $515 -53.924985503708001 $672 53.924985503708001 $507 $675 forward 7 unknown #
coedge $-1 $520 $519 $365 $513 reversed $504 $-1 #
edge $-1 $676 -53.924985503708001 $514 53.924985503708001 $512 $677 forward 7 unknown #
vertex $-1 $367 $678 #
vertex $-1 $526 $679 #
straight-curve $-1 53.924985503708001 0 -15.466625857272494 0 -1 0 I I #
coedge $-1 $506 $508 $368 $518 reversed $361 $-1 #
edge $-1 $521 -33.200886335303991 $524 33.200886335303991 $517 $680 forward 7 unknown #
coedge $-1 $512 $369 $374 $527 forward $504 $-1 #
coedge $-1 $369 $512 $506 $671 reversed $504 $-1 #
vertex $-1 $370 $681 #
straight-curve $-1 0 33.200886335303991 15.466625857272494 -1 0 0 I I #
coedge $-1 $371 $507 $373 $526 reversed $229 $-1 #
vertex $-1 $518 $682 #
straight-curve $-1 0 -33.200886335303991 15.466625857272494 1 0 0 I I #
edge $-1 $376 -15.466625857272494 $515 15.466625857272494 $373 $683 forward 7 unknown #
edge $-1 $377 -15.466625857272494 $514 15.466625857272494 $374 $684 forward 7 unknown #
point $-1 53.924985503708001 -33.200886335303991 15.466625857272494 #
point $-1 53.924985503708001 33.200886335303991 15.466625857272494 #
face $-1 $-1 $543 $55 $-1 $685 reversed single #
loop $-1 $-1 $686 $379 #
plane-surface $-1 -53.924985503708001 0 0 1 0 0 0 0 -1 forward_v I I I I #
coedge $-1 $388 $687 $390 $547 forward $380 $-1 #
coedge $-1 $383 $382 $688 $689 reversed $149 $-1 #
coedge $-1 $386 $690 $382 $536 forward $543 $-1 #
edge $-1 $691 -31.128767595308521 $540 -14.46366822149044 $535 $692 forward 7 unknown #
coedge $-1 $687 $388 $383 $538 forward $380 $-1 #
edge $-1 $539 14.46366822149044 $693 31.128767595308521 $537 $694 forward 7 unknown #
vertex $-1 $538 $695 #
vertex $-1 $536 $696 #
straight-curve $-1 -37.259886129889921 0 14.966625857272494 0 1 0 I I #
coedge $-1 $690 $386 $391 $548 forward $543 $-1 #
loop $-1 $-1 $542 $530 #
straight-curve $-1 -37.259886129889921 33.200886335303991 5.8923986209289776 0 0 -1 I I #
straight-curve $-1 -37.259886129889921 -33.200886335303991 5.8923986209289776 0 0 1 I I #
coedge $-1 $391 $390 $686 $697 reversed $237 $-1 #
edge $-1 $698 -31.128767595308521 $393 -14.46366822149044 $533 $699 forward 7 unknown #
edge $-1 $392 14.46366822149044 $700 31.128767595308521 $542 $701 forward 7 unknown #
point $-1 -37.259886129889921 33.200886335303991 8.6029686264434169 #
point $-1 -37.259886129889921 -33.200886335303991 8.6029686264434169 #
loop $-1 $-1 $702 $395 #
plane-surface $-1 0 0 15.466625857272494 0 0 1 1 0 0 forward_v I I I I #
coedge $-1 $398 $401 $703 $704 reversed $245 $-1 #
coedge $-1 $562 $404 $398 $555 reversed $396 $-1 #
edge $-1 $705 31.524019686303472 $407 43.459950394325524 $398 $706 forward 7 unknown #
coedge $-1 $560 $703 $400 $557 forward $551 $-1 #
edge $-1 $558 12.769209285088017 $565 31.148930450521355 $556 $707 forward 7 unknown #
vertex $-1 $402 $708 #
straight-curve $-1 -26.03340799199934 -33.200886335303991 46.990645543575965 0 0 1 I I #
coedge $-1 $702 $556 $403 $561 forward $551 $-1 #
edge $-1 $565 10.210084461527025 $563 21.436562599417606 $560 $709 forward 7 unknown #
coedge $-1 $404 $554 $702 $710 reversed $396 $-1 #
vertex $-1 $710 $711 #
straight-curve $-1 -37.259886129889921 -33.200886335303998 3.5306951492504339 0 0.83867056331134215 0.54463904215088732 I I #
vertex $-1 $561 $712 #
straight-curve $-1 -26.03340799199934 -33.200886335303998 3.5306951492504339 0 -0.83867056331134215 -0.54463904215088732 I I #
point $-1 -37.259886129889921 -33.200886335303991 3.5306951492504384 #
point $-1 -26.03340799199934 -33.200886335303991 3.5306951492504384 #
edge $-1 $713 1 $713 0 $410 $-1 forward 7 unknown #
vertex $-1 $411 $714 #
ellipse-curve $-1 -35.014590502311805 -23.049916608195375 8.0186822329788061 0 -0.54463904215088732 0.83867056331134215 1 0 0 1 I I #
point $-1 -34.014590502311805 -24.011025752587315 9.4986605032614602 #
edge $-1 $715 1 $715 0 $414 $-1 forward 7 unknown #
vertex $-1 $415 $716 #
ellipse-curve $-1 -31.646647060944634 -23.049916608195375 8.0186822329788061 0 -0.54463904215088732 0.83867056331134215 1 0 0 1 I I #
point $-1 -30.646647060944634 -24.011025752587315 9.4986605032614602 #
edge $-1 $717 1 $717 0 $418 $-1 forward 7 unknown #
vertex $-1 $419 $718 #
ellipse-curve $-1 -28.27870361957746 -23.049916608195375 8.0186822329788061 0 -0.54463904215088732 0.83867056331134215 1 0 0 1 I I #
point $-1 -27.27870361957746 -24.011025752587315 9.4986605032614602 #
plane-surface $-1 0 -33.200886335303991 0 0 1 0 0 0 1 forward_v I I I I #
coedge $-1 $592 $591 $584 $719 forward $423 $-1 #
coedge $-1 $584 $425 $427 $588 reversed $274 $-1 #
coedge $-1 $425 $583 $582 $719 reversed $274 $-1 #
coedge $-1 $433 $428 $425 $586 forward $434 $-1 #
edge $-1 $589 -43.459950394325524 $720 -31.524019686303472 $585 $721 forward 7 unknown #
coedge $-1 $427 $426 $592 $722 reversed $172 $-1 #
edge $-1 $723 -21.915304971315877 $589 -8.3777959833898778e-015 $583 $724 forward 7 unknown #
vertex $-1 $429 $725 #
straight-curve $-1 -2.4969246145210917 -33.200886335303991 3.5306951492504357 1 0 0 I I #
coedge $-1 $582 $430 $433 $596 forward $423 $-1 #
coedge $-1 $430 $582 $587 $722 forward $423 $-1 #
vertex $-1 $431 $726 #
straight-curve $-1 -10.607088297987476 -45.970095620392009 15.466625857272497 0 -1 0 I I #
straight-curve $-1 -10.607088297987476 -33.200886335303998 3.5306951492504339 0 0.83867056331134215 0.54463904215088732 I I #
edge $-1 $435 -10.607088297987476 $720 0.61938983990310881 $433 $727 forward 7 unknown #
point $-1 -10.607088297987476 -33.200886335303991 15.466625857272494 #
point $-1 -10.607088297987476 -33.200886335303991 3.5306951492504384 #
edge $-1 $728 1 $728 0 $438 $-1 forward 7 unknown #
vertex $-1 $439 $729 #
ellipse-curve $-1 -8.3617926704093577 -23.049916608195375 8.0186822329788061 0 -0.54463904215088732 0.83867056331134215 1 0 0 1 I I #
point $-1 -7.3617926704093577 -24.011025752587315 9.4986605032614602 #
edge $-1 $730 1 $730 0 $442 $-1 forward 7 unknown #
vertex $-1 $443 $731 #
ellipse-curve $-1 -4.9938492290421834 -23.049916608195375 8.0186822329788061 0 -0.54463904215088732 0.83867056331134215 1 0 0 1 I I #
point $-1 -3.9938492290421834 -24.011025752587315 9.4986605032614602 #
edge $-1 $732 1 $732 0 $446 $-1 forward 7 unknown #
vertex $-1 $447 $733 #
ellipse-curve $-1 -1.6259057876750092 -23.049916608195375 8.0186822329788061 0 -0.54463904215088732 0.83867056331134215 1 0 0 1 I I #
point $-1 -0.62590578767500915 -24.011025752587315 9.4986605032614602 #
loop $-1 $-1 $458 $450 #
plane-surface $-1 0 0 15.466625857272494 0 0 1 1 0 0 forward_v I I I I #
coedge $-1 $614 $453 $455 $618 reversed $303 $-1 #
coedge $-1 $453 $613 $734 $735 reversed $303 $-1 #
coedge $-1 $461 $456 $453 $616 forward $451 $-1 #
edge $-1 $619 -43.459950394325524 $736 -31.524019686303472 $615 $737 forward 7 unknown #
coedge $-1 $455 $454 $622 $738 reversed $191 $-1 #
edge $-1 $739 -21.915304971315877 $619 -8.3777959833898778e-015 $613 $740 forward 7 unknown #
vertex $-1 $457 $741 #
straight-curve $-1 10.829474301430132 -33.200886335303991 3.5306951492504357 1 0 0 I I #
coedge $-1 $734 $458 $461 $626 forward $611 $-1 #
coedge $-1 $458 $734 $617 $738 forward $611 $-1 #
vertex $-1 $459 $742 #
straight-curve $-1 16.045709533914973 -45.970095620392009 15.466625857272497 0 -1 0 I I #
straight-curve $-1 16.045709533914973 -33.200886335303998 3.5306951492504339 0 0.83867056331134215 0.54463904215088732 I I #
edge $-1 $462 16.045709533914973 $736 27.272187671805554 $461 $743 forward 7 unknown #
point $-1 16.045709533914973 -33.200886335303991 15.466625857272494 #
point $-1 16.045709533914973 -33.200886335303991 3.5306951492504384 #
edge $-1 $744 1 $744 0 $465 $-1 forward 7 unknown #
vertex $-1 $466 $745 #
ellipse-curve $-1 18.291005161493089 -23.049916608195375 8.0186822329788061 0 -0.54463904215088732 0.83867056331134215 1 0 0 1 I I #
point $-1 19.291005161493089 -24.011025752587315 9.4986605032614602 #
edge $-1 $746 1 $746 0 $469 $-1 forward 7 unknown #
vertex $-1 $470 $747 #
ellipse-curve $-1 21.658948602860264 -23.049916608195375 8.0186822329788061 0 -0.54463904215088732 0.83867056331134215 1 0 0 1 I I #
point $-1 22.658948602860264 -24.011025752587315 9.4986605032614602 #
edge $-1 $748 1 $748 0 $473 $-1 forward 7 unknown #
vertex $-1 $474 $749 #
ellipse-curve $-1 25.026892044227438 -23.049916608195375 8.0186822329788061 0 -0.54463904215088732 0.83867056331134215 1 0 0 1 I I #
point $-1 26.026892044227438 -24.011025752587315 9.4986605032614602 #
loop $-1 $-1 $484 $477 #
plane-surface $-1 0 0 15.466625857272494 0 0 1 1 0 0 forward_v I I I I #
coedge $-1 $750 $751 $481 $645 forward $478 $-1 #
coedge $-1 $481 $480 $650 $752 reversed $210 $-1 #
edge $-1 $647 -12.960825810525344 $753 8.9544791607905267 $643 $754 forward 7 unknown #
coedge $-1 $487 $482 $751 $755 reversed $332 $-1 #
vertex $-1 $645 $756 #
straight-curve $-1 24.155873217381355 -33.200886335303991 3.5306951492504357 1 0 0 I I #
coedge $-1 $757 $484 $487 $654 forward $641 $-1 #
coedge $-1 $484 $757 $644 $752 forward $641 $-1 #
vertex $-1 $485 $758 #
straight-curve $-1 42.69850736581742 -45.970095620392009 15.466625857272497 0 -1 0 I I #
straight-curve $-1 42.69850736581742 -33.200886335303998 3.5306951492504339 0 0.83867056331134215 0.54463904215088732 I I #
edge $-1 $488 42.69850736581742 $759 53.924985503708001 $487 $760 forward 7 unknown #
point $-1 42.69850736581742 -33.200886335303991 15.466625857272494 #
point $-1 42.69850736581742 -33.200886335303991 3.5306951492504384 #
edge $-1 $761 1 $761 0 $491 $-1 forward 7 unknown #
vertex $-1 $492 $762 #
ellipse-curve $-1 44.943802993395536 -23.049916608195375 8.0186822329788061 0 -0.54463904215088732 0.83867056331134215 1 0 0 1 I I #
point $-1 45.943802993395536 -24.011025752587315 9.4986605032614602 #
edge $-1 $763 1 $763 0 $495 $-1 forward 7 unknown #
vertex $-1 $496 $764 #
ellipse-curve $-1 48.311746434762711 -23.049916608195375 8.0186822329788061 0 -0.54463904215088732 0.83867056331134215 1 0 0 1 I I #
point $-1 49.311746434762711 -24.011025752587315 9.4986605032614602 #
edge $-1 $765 1 $765 0 $499 $-1 forward 7 unknown #
vertex $-1 $500 $766 #
ellipse-curve $-1 51.679689876129885 -23.049916608195375 8.0186822329788061 0 -0.54463904215088732 0.83867056331134215 1 0 0 1 I I #
point $-1 52.679689876129885 -24.011025752587315 9.4986605032614602 #
plane-surface $-1 53.924985503708001 0 0 -1 0 0 0 0 1 forward_v I I I I #
coedge $-1 $508 $506 $510 $674 reversed $361 $-1 #
edge $-1 $521 -15.466625857272494 $676 15.466625857272494 $520 $767 forward 7 unknown #
vertex $-1 $674 $768 #
straight-curve $-1 -53.924985503708001 -33.200886335303991 0 0 0 -1 I I #
edge $-1 $672 -33.200886335303991 $676 33.200886335303991 $670 $769 forward 7 unknown #
straight-curve $-1 0 -33.200886335303991 -15.466625857272494 -1 0 0 I I #
vertex $-1 $513 $770 #
straight-curve $-1 0 33.200886335303991 -15.466625857272494 1 0 0 I I #
point $-1 53.924985503708001 33.200886335303991 -15.466625857272494 #
point $-1 53.924985503708001 -33.200886335303991 -15.466625857272494 #
straight-curve $-1 -53.924985503708001 0 15.466625857272494 0 -1 0 I I #
point $-1 -53.924985503708001 33.200886335303991 15.466625857272494 #
point $-1 -53.924985503708001 -33.200886335303991 15.466625857272494 #
straight-curve $-1 53.924985503708001 -33.200886335303991 0 0 0 -1 I I #
straight-curve $-1 53.924985503708001 33.200886335303991 0 0 0 -1 I I #
plane-surface $-1 0 33.200886335303991 0 0 -1 0 0 0 -1 forward_v I I I I #
coedge $-1 $771 $772 $546 $697 forward $531 $-1 #
coedge $-1 $533 $537 $771 $773 forward $380 $-1 #
coedge $-1 $772 $771 $534 $689 forward $531 $-1 #
edge $-1 $693 -33.200886335303991 $691 33.200886335303991 $688 $774 forward 7 unknown #
coedge $-1 $535 $542 $772 $775 reversed $543 $-1 #
vertex $-1 $775 $776 #
straight-curve $-1 -22.79621790839948 33.200886335303991 14.966625857272494 1 0 0 I I #
vertex $-1 $773 $777 #
straight-curve $-1 -22.79621790839948 -33.200886335303991 14.966625857272494 -1 0 0 I I #
point $-1 -37.259886129889921 -33.200886335303991 14.966625857272494 #
point $-1 -37.259886129889921 33.200886335303991 14.966625857272494 #
edge $-1 $700 -33.200886335303991 $698 33.200886335303991 $686 $778 forward 7 unknown #
vertex $-1 $547 $779 #
straight-curve $-1 -22.79621790839948 -33.200886335303991 8.6029686264434169 1 0 0 I I #
vertex $-1 $548 $780 #
straight-curve $-1 -22.79621790839948 33.200886335303991 8.6029686264434169 -1 0 0 I I #
coedge $-1 $703 $560 $562 $710 forward $551 $-1 #
coedge $-1 $556 $702 $553 $704 forward $551 $-1 #
edge $-1 $705 -37.259886129889921 $558 -26.03340799199934 $553 $781 forward 7 unknown #
vertex $-1 $704 $782 #
straight-curve $-1 -37.259886129889921 -33.200886335303991 46.990645543575965 0 0 -1 I I #
straight-curve $-1 -26.03340799199934 -45.970095620392009 15.466625857272497 0 1 0 I I #
point $-1 -26.03340799199934 -33.200886335303991 15.466625857272494 #
straight-curve $-1 -15.823323530472315 -14.821165169870651 15.466625857272494 -1 0 0 I I #
edge $-1 $563 -31.148930450521355 $705 -12.769209285088017 $702 $783 forward 7 unknown #
point $-1 -37.259886129889921 -14.821165169870653 15.466625857272494 #
point $-1 -26.03340799199934 -14.821165169870653 15.466625857272494 #
vertex $-1 $569 $784 #
point $-1 -34.014590502311805 -23.049916608195375 8.0186822329788061 #
vertex $-1 $573 $785 #
point $-1 -30.646647060944634 -23.049916608195375 8.0186822329788061 #
vertex $-1 $577 $786 #
point $-1 -27.27870361957746 -23.049916608195375 8.0186822329788061 #
edge $-1 $720 12.769209285088017 $723 31.148930450521355 $582 $787 forward 7 unknown #
vertex $-1 $719 $788 #
straight-curve $-1 0.61938983990310881 -33.200886335303991 46.990645543575965 0 0 1 I I #
edge $-1 $723 -3.1163144544242005 $593 8.1101636834663839 $592 $789 forward 7 unknown #
vertex $-1 $722 $790 #
straight-curve $-1 0.61938983990310881 -33.200886335303998 3.5306951492504339 0 -0.83867056331134215 -0.54463904215088732 I I #
point $-1 0.61938983990310881 -33.200886335303991 3.5306951492504384 #
point $-1 -10.607088297987476 -14.821165169870653 15.466625857272494 #
straight-curve $-1 0 -33.200886335303991 15.466625857272494 1 0 0 I I #
vertex $-1 $599 $791 #
point $-1 -7.3617926704093577 -23.049916608195375 8.0186822329788061 #
vertex $-1 $603 $792 #
point $-1 -3.9938492290421834 -23.049916608195375 8.0186822329788061 #
vertex $-1 $607 $793 #
point $-1 -0.62590578767500915 -23.049916608195375 8.0186822329788061 #
coedge $-1 $622 $621 $614 $735 forward $611 $-1 #
edge $-1 $736 12.769209285088017 $739 31.148930450521355 $734 $794 forward 7 unknown #
vertex $-1 $735 $795 #
straight-curve $-1 27.272187671805554 -33.200886335303991 46.990645543575965 0 0 1 I I #
edge $-1 $739 -16.442713370375422 $623 -5.2162352324848413 $622 $796 forward 7 unknown #
vertex $-1 $738 $797 #
straight-curve $-1 27.272187671805554 -33.200886335303998 3.5306951492504339 0 -0.83867056331134215 -0.54463904215088732 I I #
point $-1 27.272187671805554 -33.200886335303991 3.5306951492504384 #
point $-1 16.045709533914973 -14.821165169870653 15.466625857272494 #
straight-curve $-1 0 -33.200886335303991 15.466625857272494 1 0 0 I I #
vertex $-1 $629 $798 #
point $-1 19.291005161493089 -23.049916608195375 8.0186822329788061 #
vertex $-1 $633 $799 #
point $-1 22.658948602860264 -23.049916608195375 8.0186822329788061 #
vertex $-1 $637 $800 #
point $-1 26.026892044227438 -23.049916608195375 8.0186822329788061 #
coedge $-1 $751 $643 $757 $801 reversed $478 $-1 #
coedge $-1 $643 $750 $646 $755 forward $478 $-1 #
edge $-1 $753 -29.769112286326646 $651 -18.542634148436065 $650 $802 forward 7 unknown #
vertex $-1 $645 $803 #
straight-curve $-1 53.924985503708001 -22.331023251810517 10.58966690417946 0 0.83867056331134215 0.54463904215088732 I I #
edge $-1 $759 -15.466625857272494 $647 -3.5306951492504384 $751 $804 forward 7 unknown #
point $-1 53.924985503708001 -33.200886335303991 3.5306951492504384 #
coedge $-1 $650 $649 $750 $801 forward $641 $-1 #
point $-1 42.69850736581742 -14.821165169870653 15.466625857272494 #
vertex $-1 $801 $805 #
straight-curve $-1 0 -33.200886335303991 15.466625857272494 1 0 0 I I #
vertex $-1 $657 $806 #
point $-1 45.943802993395536 -23.049916608195375 8.0186822329788061 #
vertex $-1 $661 $807 #
point $-1 49.311746434762711 -23.049916608195375 8.0186822329788061 #
vertex $-1 $665 $808 #
point $-1 52.679689876129885 -23.049916608195375 8.0186822329788061 #
straight-curve $-1 -53.924985503708001 33.200886335303991 0 0 0 -1 I I #
point $-1 -53.924985503708001 -33.200886335303991 -15.466625857272494 #
straight-curve $-1 -53.924985503708001 0 -15.466625857272494 0 1 0 I I #
point $-1 -53.924985503708001 33.200886335303991 -15.466625857272494 #
coedge $-1 $688 $686 $687 $773 reversed $531 $-1 #
coedge $-1 $686 $688 $690 $775 forward $531 $-1 #
edge $-1 $693 -14.966625857272494 $698 -8.6029686264434169 $771 $809 forward 7 unknown #
straight-curve $-1 -53.924985503708001 0 14.966625857272494 0 1 0 I I #
edge $-1 $691 -14.966625857272494 $700 -8.6029686264434169 $690 $810 forward 7 unknown #
point $-1 -53.924985503708001 33.200886335303991 14.966625857272494 #
point $-1 -53.924985503708001 -33.200886335303991 14.966625857272494 #
straight-curve $-1 -53.924985503708001 0 8.6029686264434169 0 -1 0 I I #
point $-1 -53.924985503708001 -33.200886335303991 8.6029686264434169 #
point $-1 -53.924985503708001 33.200886335303991 8.6029686264434169 #
straight-curve $-1 0 -33.200886335303991 15.466625857272494 1 0 0 I I #
point $-1 -37.259886129889921 -33.200886335303991 15.466625857272494 #
straight-curve $-1 -37.259886129889921 -45.970095620392009 15.466625857272497 0 -1 0 I I #
point $-1 -35.014590502311805 -22.505277566044484 7.1800116696674632 #
point $-1 -31.646647060944634 -22.505277566044484 7.1800116696674632 #
point $-1 -28.27870361957746 -22.505277566044484 7.1800116696674632 #
straight-curve $-1 0.61938983990310881 -45.970095620392009 15.466625857272497 0 1 0 I I #
point $-1 0.61938983990310881 -33.200886335303991 15.466625857272494 #
straight-curve $-1 -2.4969246145210917 -14.821165169870651 15.466625857272494 -1 0 0 I I #
point $-1 0.61938983990310881 -14.821165169870653 15.466625857272494 #
point $-1 -8.3617926704093577 -22.505277566044484 7.1800116696674632 #
point $-1 -4.9938492290421834 -22.505277566044484 7.1800116696674632 #
point $-1 -1.6259057876750092 -22.505277566044484 7.1800116696674632 #
straight-curve $-1 27.272187671805554 -45.970095620392009 15.466625857272497 0 1 0 I I #
point $-1 27.272187671805554 -33.200886335303991 15.466625857272494 #
straight-curve $-1 10.829474301430132 -14.821165169870651 15.466625857272494 -1 0 0 I I #
point $-1 27.272187671805554 -14.821165169870653 15.466625857272494 #
point $-1 18.291005161493089 -22.505277566044484 7.1800116696674632 #
point $-1 21.658948602860264 -22.505277566044484 7.1800116696674632 #
point $-1 25.026892044227438 -22.505277566044484 7.1800116696674632 #
edge $-1 $759 -33.200886335303991 $753 -14.821165169870653 $750 $811 forward 7 unknown #
straight-curve $-1 24.155873217381355 -14.821165169870651 15.466625857272494 -1 0 0 I I #
point $-1 53.924985503708001 -14.821165169870653 15.466625857272494 #
straight-curve $-1 53.924985503708001 -33.200886335303991 0 0 0 -1 I I #
point $-1 53.924985503708001 -33.200886335303991 15.466625857272494 #
point $-1 44.943802993395536 -22.505277566044484 7.1800116696674632 #
point $-1 48.311746434762711 -22.505277566044484 7.1800116696674632 #
point $-1 51.679689876129885 -22.505277566044484 7.1800116696674632 #
straight-curve $-1 -53.924985503708001 -33.200886335303991 0 0 0 -1 I I #
straight-curve $-1 -53.924985503708001 33.200886335303991 0 0 0 -1 I I #
straight-curve $-1 53.924985503708001 0 15.466625857272494 0 1 0 I I #
End-of-ACIS-data 