500 0 6 0           
7 Unknown 11 ACIS 5.0 NT 24 Fri Mar 26 20:42:57 1999 
-1 9.9999999999999995e-007 1e-010 
body $-1 $6 $-1 $7 #
body $-1 $8 $-1 $9 #
body $-1 $10 $-1 $11 #
body $-1 $12 $-1 $13 #
body $-1 $14 $-1 $15 #
body $-1 $16 $-1 $17 #
lump $-1 $-1 $18 $0 #
transform $-1 1 0 0 0 1 0 0 0 1 47.379375591296125 23.007634160392644 11.421875159772792 1 rotate no_reflect no_shear #
lump $-1 $-1 $19 $1 #
transform $-1 1 0 0 0 1 0 0 0 1 47.379375591296125 23.007634160392644 11.421875159772792 1 rotate no_reflect no_shear #
lump $-1 $-1 $20 $2 #
transform $-1 1 0 0 0 1 0 0 0 1 47.379375591296125 23.007634160392644 11.421875159772792 1 rotate no_reflect no_shear #
lump $-1 $-1 $21 $3 #
transform $-1 1 0 0 0 1 0 0 0 1 47.379375591296125 23.007634160392644 11.421875159772792 1 rotate no_reflect no_shear #
lump $-1 $-1 $22 $4 #
transform $-1 1 0 0 0 1 0 0 0 1 47.379375591296125 23.007634160392644 11.421875159772792 1 rotate no_reflect no_shear #
lump $-1 $-1 $23 $5 #
transform $-1 1 0 0 0 1 0 0 0 1 47.379375591296125 23.007634160392644 11.421875159772792 1 rotate no_reflect no_shear #
shell $-1 $-1 $-1 $24 $-1 $6 #
shell $-1 $-1 $-1 $25 $-1 $8 #
shell $-1 $-1 $-1 $26 $-1 $10 #
shell $-1 $-1 $-1 $27 $-1 $12 #
shell $-1 $-1 $-1 $28 $-1 $14 #
shell $-1 $-1 $-1 $29 $-1 $16 #
face $-1 $30 $31 $18 $-1 $32 forward single #
face $-1 $33 $34 $19 $-1 $35 forward single #
face $-1 $36 $37 $20 $-1 $38 reversed single #
face $-1 $39 $40 $21 $-1 $41 reversed single #
face $-1 $42 $43 $22 $-1 $44 forward single #
face $-1 $45 $46 $23 $-1 $47 forward single #
face $-1 $48 $49 $18 $-1 $50 reversed single #
loop $-1 $-1 $51 $24 #
plane-surface $-1 0 0 11.421875159772792 0 0 1 1 0 0 forward_v I I I I #
face $-1 $52 $53 $19 $-1 $54 reversed single #
loop $-1 $-1 $55 $25 #
plane-surface $-1 -41.826256974958028 0 -7.7480658071036634 0 0 1 1 0 0 forward_v I I I I #
face $-1 $56 $57 $20 $-1 $58 reversed single #
loop $-1 $-1 $59 $26 #
plane-surface $-1 42.061725308622329 0 8.4218751597727923 0 0 1 1 0 0 forward_v I I I I #
face $-1 $60 $61 $21 $-1 $62 reversed single #
loop $-1 $-1 $63 $27 #
plane-surface $-1 14.343294647983917 77.417299823950771 91.963629481603903 1 0 0 0 -0.83867057594974714 -0.54463902268945019 forward_v I I I I #
face $-1 $64 $65 $22 $-1 $66 forward single #
loop $-1 $67 $68 $28 #
cone-surface $-1 18.55651796562826 18.425186860888193 5.6531841822287738 0 -0.83867057594974714 -0.54463902268945019 1 0 0 1 I I 0 1 1 forward I I I I #
face $-1 $69 $70 $23 $-1 $71 forward single #
loop $-1 $72 $73 $29 #
cone-surface $-1 24.876352942094769 18.425186860888193 5.6531841822287738 0 -0.83867057594974714 -0.54463902268945019 1 0 0 1 I I 0 1 1 forward I I I I #
face $-1 $74 $75 $18 $-1 $76 reversed single #
loop $-1 $-1 $77 $30 #
plane-surface $-1 0 0 -11.421875159772792 0 0 1 1 0 0 forward_v I I I I #
coedge $-1 $78 $79 $80 $81 forward $31 $-1 #
face $-1 $82 $83 $19 $-1 $84 reversed single #
loop $-1 $-1 $85 $33 #
plane-surface $-1 -36.273138358619931 0 -9.5849704834382283 -1 0 0 0 0 1 forward_v I I I I #
coedge $-1 $86 $87 $88 $89 forward $34 $-1 #
face $-1 $90 $91 $20 $-1 $92 reversed single #
loop $-1 $-1 $93 $36 #
plane-surface $-1 36.744075025948533 0 9.9218751597727923 1 0 0 0 0 -1 forward_v I I I I #
coedge $-1 $94 $95 $96 $97 reversed $37 $-1 #
face $-1 $98 $99 $21 $-1 $100 reversed single #
loop $-1 $-1 $101 $39 #
plane-surface $-1 21.716435453861507 -2.0540766066326483 40.354315846244077 0 0.83867057594974714 0.54463902268945019 1 0 0 forward_v I I I I #
coedge $-1 $102 $103 $104 $105 reversed $40 $-1 #
face $-1 $-1 $106 $22 $-1 $107 forward single #
loop $-1 $108 $109 $42 #
cone-surface $-1 18.55651796562826 16.559786623421186 4.4417791426419591 0 -0.83867057594974714 -0.54463902268945019 0.5 0 0 1 I I -0.70710678118654746 0.70710678118654746 0.5 forward I I I I #
loop $-1 $-1 $110 $28 #
coedge $-1 $68 $68 $111 $112 reversed $43 $-1 #
face $-1 $-1 $113 $23 $-1 $114 forward single #
loop $-1 $115 $116 $45 #
cone-surface $-1 24.876352942094769 16.559786623421186 4.4417791426419591 0 -0.83867057594974714 -0.54463902268945019 0.5 0 0 1 I I -0.70710678118654746 0.70710678118654746 0.5 forward I I I I #
loop $-1 $-1 $117 $29 #
coedge $-1 $73 $73 $118 $119 reversed $46 $-1 #
face $-1 $120 $121 $18 $-1 $122 reversed single #
loop $-1 $-1 $123 $48 #
plane-surface $-1 0 -23.007634160392644 0 0 1 0 0 0 1 forward_v I I I I #
coedge $-1 $124 $125 $126 $127 forward $49 $-1 #
coedge $-1 $128 $51 $129 $130 forward $31 $-1 #
coedge $-1 $51 $128 $131 $132 forward $31 $-1 #
coedge $-1 $133 $134 $51 $81 reversed $135 $-1 #
edge $-1 $136 -23.007634160392644 $137 23.007634160392644 $80 $138 forward 7 unknown #
face $-1 $139 $140 $19 $-1 $141 reversed single #
loop $-1 $-1 $142 $52 #
plane-surface $-1 0 0 -11.421875159772792 0 0 1 1 0 0 forward_v I I I I #
coedge $-1 $143 $88 $144 $145 reversed $53 $-1 #
coedge $-1 $146 $55 $147 $148 reversed $34 $-1 #
coedge $-1 $55 $146 $149 $150 reversed $34 $-1 #
coedge $-1 $85 $151 $55 $89 reversed $53 $-1 #
edge $-1 $152 -23.007634160392644 $153 23.007634160392644 $88 $154 forward 7 unknown #
face $-1 $155 $156 $20 $-1 $157 reversed single #
loop $-1 $-1 $96 $56 #
plane-surface $-1 47.379375591296125 0 0 -1 0 0 0 0 1 forward_v I I I I #
coedge $-1 $158 $159 $160 $161 reversed $57 $-1 #
coedge $-1 $162 $59 $163 $164 reversed $37 $-1 #
coedge $-1 $59 $162 $165 $166 reversed $37 $-1 #
coedge $-1 $167 $168 $59 $97 forward $91 $-1 #
edge $-1 $169 -23.007634160392644 $170 23.007634160392644 $96 $171 forward 7 unknown #
face $-1 $172 $173 $21 $-1 $174 reversed single #
loop $-1 $-1 $175 $60 #
plane-surface $-1 29.089576259739097 77.417299823950771 91.963629481603903 -1 0 0 0 0.83867057594974714 0.54463902268945019 forward_v I I I I #
coedge $-1 $176 $177 $178 $179 reversed $61 $-1 #
coedge $-1 $103 $63 $180 $181 reversed $40 $-1 #
coedge $-1 $63 $102 $176 $182 reversed $40 $-1 #
coedge $-1 $178 $183 $63 $105 forward $184 $-1 #
edge $-1 $185 15.701015751582741 $186 21.973780451607343 $104 $187 forward 7 unknown #
loop $-1 $-1 $111 $64 #
plane-surface $-1 21.716435453861507 -2.0540766066326483 40.354315846244077 0 0.83867057594974714 0.54463902268945019 1 0 0 forward_v I I I I #
loop $-1 $-1 $188 $42 #
coedge $-1 $109 $109 $110 $189 reversed $65 $-1 #
coedge $-1 $110 $110 $109 $189 forward $67 $-1 #
coedge $-1 $111 $111 $68 $112 forward $106 $-1 #
edge $-1 $190 1.4986040723538738e-015 $190 6.2831853071796022 $111 $191 forward 7 unknown #
loop $-1 $-1 $118 $69 #
plane-surface $-1 21.716435453861507 -2.0540766066326483 40.354315846244077 0 0.83867057594974714 0.54463902268945019 1 0 0 forward_v I I I I #
loop $-1 $-1 $192 $45 #
coedge $-1 $116 $116 $117 $193 reversed $70 $-1 #
coedge $-1 $117 $117 $116 $193 forward $72 $-1 #
coedge $-1 $118 $118 $73 $119 forward $113 $-1 #
edge $-1 $194 1.4986040723538738e-015 $194 6.2831853071796022 $118 $195 forward 7 unknown #
face $-1 $196 $197 $18 $-1 $198 reversed single #
loop $-1 $-1 $199 $74 #
plane-surface $-1 -47.379375591296125 0 0 1 0 0 0 0 -1 forward_v I I I I #
coedge $-1 $200 $131 $201 $202 forward $75 $-1 #
coedge $-1 $203 $77 $200 $204 forward $49 $-1 #
coedge $-1 $77 $203 $205 $206 forward $49 $-1 #
coedge $-1 $134 $133 $77 $127 reversed $135 $-1 #
edge $-1 $207 -23.007634160392644 $208 23.007634160392644 $126 $209 forward 7 unknown #
coedge $-1 $79 $78 $210 $211 forward $31 $-1 #
coedge $-1 $212 $213 $78 $130 reversed $197 $-1 #
edge $-1 $137 -47.379375591296125 $214 47.379375591296125 $129 $215 forward 7 unknown #
coedge $-1 $123 $216 $79 $132 reversed $75 $-1 #
edge $-1 $217 -47.379375591296125 $136 47.379375591296125 $131 $218 forward 7 unknown #
coedge $-1 $126 $80 $216 $219 forward $135 $-1 #
coedge $-1 $80 $126 $212 $220 reversed $135 $-1 #
loop $-1 $-1 $133 $196 #
vertex $-1 $81 $221 #
vertex $-1 $81 $222 #
straight-curve $-1 47.379375591296125 0 11.421875159772792 0 1 0 I I #
face $-1 $223 $224 $19 $-1 $225 reversed single #
loop $-1 $-1 $144 $82 #
plane-surface $-1 0 -23.007634160392644 0 0 1 0 0 0 1 forward_v I I I I #
coedge $-1 $226 $227 $143 $228 forward $83 $-1 #
coedge $-1 $151 $85 $142 $228 reversed $53 $-1 #
coedge $-1 $149 $229 $85 $145 forward $140 $-1 #
edge $-1 $230 -6.6293899180536782 $152 -2.9555805653845493 $144 $231 forward 7 unknown #
coedge $-1 $87 $86 $232 $233 reversed $34 $-1 #
coedge $-1 $234 $235 $86 $148 forward $236 $-1 #
edge $-1 $237 -26.466247103817111 $153 -15.360009871140917 $147 $238 forward 7 unknown #
coedge $-1 $239 $144 $87 $150 forward $140 $-1 #
edge $-1 $152 15.360009871140917 $240 26.466247103817111 $149 $241 forward 7 unknown #
coedge $-1 $88 $143 $234 $242 reversed $53 $-1 #
vertex $-1 $150 $243 #
vertex $-1 $148 $244 #
straight-curve $-1 -36.273138358619931 0 -7.7480658071036634 0 1 0 I I #
face $-1 $245 $246 $20 $-1 $247 reversed single #
loop $-1 $-1 $165 $90 #
plane-surface $-1 0 23.007634160392644 0 0 -1 0 0 0 -1 forward_v I I I I #
coedge $-1 $248 $93 $162 $249 reversed $57 $-1 #
coedge $-1 $93 $248 $250 $251 reversed $57 $-1 #
coedge $-1 $252 $165 $93 $161 forward $156 $-1 #
edge $-1 $253 3.4609375798863962 $254 6.4609375798863962 $160 $255 forward 7 unknown #
coedge $-1 $95 $94 $158 $249 forward $37 $-1 #
coedge $-1 $256 $257 $94 $164 forward $246 $-1 #
edge $-1 $258 15.713212371637368 $169 26.34851293698496 $163 $259 forward 7 unknown #
coedge $-1 $160 $260 $95 $166 forward $156 $-1 #
edge $-1 $170 -26.34851293698496 $253 -15.713212371637368 $165 $261 forward 7 unknown #
coedge $-1 $262 $96 $260 $263 reversed $91 $-1 #
coedge $-1 $96 $262 $256 $264 forward $91 $-1 #
vertex $-1 $97 $265 #
vertex $-1 $97 $266 #
straight-curve $-1 47.379375591296125 0 8.4218751597727923 0 1 0 I I #
face $-1 $-1 $184 $21 $-1 $267 forward single #
loop $-1 $-1 $268 $98 #
plane-surface $-1 0 23.007634160392644 0 0 -1 0 0 0 -1 forward_v I I I I #
coedge $-1 $269 $270 $271 $272 reversed $99 $-1 #
coedge $-1 $273 $101 $103 $182 forward $61 $-1 #
coedge $-1 $101 $273 $269 $274 forward $61 $-1 #
coedge $-1 $271 $104 $101 $179 forward $184 $-1 #
edge $-1 $186 3.4850769210531638 $275 18.231358532808343 $178 $276 forward 7 unknown #
coedge $-1 $277 $278 $102 $181 forward $173 $-1 #
edge $-1 $279 -44.219150479632994 $185 -34.559939581029155 $180 $280 forward 7 unknown #
edge $-1 $186 34.49797991745082 $279 46.015268320785246 $103 $281 forward 7 unknown #
coedge $-1 $104 $271 $277 $282 forward $184 $-1 #
loop $-1 $-1 $271 $172 #
vertex $-1 $181 $283 #
vertex $-1 $105 $284 #
straight-curve $-1 14.343294647983917 38.708649911975385 11.421875159772789 0 -1 0 I I #
coedge $-1 $188 $188 $-1 $285 reversed $108 $-1 #
edge $-1 $286 0 $286 6.2831853071796004 $109 $287 forward 7 unknown #
vertex $-1 $112 $288 #
ellipse-curve $-1 18.55651796562826 19.871251810380347 6.5922697104708758 0 0.83867057594974714 0.54463902268945019 1 0 0 1 I I #
coedge $-1 $192 $192 $-1 $289 reversed $115 $-1 #
edge $-1 $290 0 $290 6.2831853071796004 $116 $291 forward 7 unknown #
vertex $-1 $119 $292 #
ellipse-curve $-1 24.876352942094769 19.871251810380347 6.5922697104708758 0 0.83867057594974714 0.54463902268945019 1 0 0 1 I I #
face $-1 $-1 $135 $18 $-1 $293 reversed single #
loop $-1 $-1 $212 $120 #
plane-surface $-1 0 23.007634160392644 0 0 -1 0 0 0 -1 forward_v I I I I #
coedge $-1 $294 $210 $213 $295 forward $121 $-1 #
coedge $-1 $216 $123 $124 $204 reversed $75 $-1 #
coedge $-1 $210 $294 $123 $202 reversed $121 $-1 #
edge $-1 $217 -11.421875159772792 $296 11.421875159772792 $201 $297 forward 7 unknown #
coedge $-1 $125 $124 $294 $298 forward $49 $-1 #
edge $-1 $208 -47.379375591296125 $296 47.379375591296125 $200 $299 forward 7 unknown #
coedge $-1 $213 $212 $125 $206 reversed $197 $-1 #
edge $-1 $300 -47.379375591296125 $207 47.379375591296125 $205 $301 forward 7 unknown #
vertex $-1 $127 $302 #
vertex $-1 $219 $303 #
straight-curve $-1 47.379375591296125 0 -11.421875159772792 0 -1 0 I I #
coedge $-1 $199 $201 $128 $211 reversed $121 $-1 #
edge $-1 $214 -23.007634160392644 $217 23.007634160392644 $210 $304 forward 7 unknown #
coedge $-1 $205 $129 $134 $220 forward $197 $-1 #
coedge $-1 $129 $205 $199 $295 reversed $197 $-1 #
vertex $-1 $130 $305 #
straight-curve $-1 0 23.007634160392644 11.421875159772792 -1 0 0 I I #
coedge $-1 $131 $200 $133 $219 reversed $75 $-1 #
vertex $-1 $211 $306 #
straight-curve $-1 0 -23.007634160392644 11.421875159772792 1 0 0 I I #
edge $-1 $136 -11.421875159772792 $208 11.421875159772792 $133 $307 forward 7 unknown #
edge $-1 $137 -11.421875159772792 $207 11.421875159772792 $134 $308 forward 7 unknown #
point $-1 47.379375591296125 -23.007634160392644 11.421875159772792 #
point $-1 47.379375591296125 23.007634160392644 11.421875159772792 #
face $-1 $-1 $236 $19 $-1 $309 reversed single #
loop $-1 $-1 $232 $139 #
plane-surface $-1 -47.379375591296125 0 0 1 0 0 0 0 -1 forward_v I I I I #
coedge $-1 $310 $142 $229 $311 forward $83 $-1 #
coedge $-1 $142 $310 $312 $313 forward $83 $-1 #
edge $-1 $314 -23.007634160392644 $230 23.007634160392644 $142 $315 forward 7 unknown #
coedge $-1 $144 $239 $226 $311 reversed $140 $-1 #
vertex $-1 $311 $316 #
straight-curve $-1 -36.273138358619931 -23.007634160392644 -4.7924852417191142 0 0 1 I I #
coedge $-1 $317 $318 $146 $233 forward $224 $-1 #
edge $-1 $240 -23.007634160392644 $237 23.007634160392644 $232 $319 forward 7 unknown #
coedge $-1 $312 $147 $151 $242 forward $236 $-1 #
coedge $-1 $147 $312 $317 $320 reversed $236 $-1 #
loop $-1 $-1 $234 $223 #
vertex $-1 $320 $321 #
straight-curve $-1 -20.913128487479014 23.007634160392644 -7.7480658071036634 1 0 0 I I #
coedge $-1 $229 $149 $318 $322 forward $140 $-1 #
vertex $-1 $322 $323 #
straight-curve $-1 -20.913128487479014 -23.007634160392644 -7.7480658071036634 -1 0 0 I I #
edge $-1 $153 2.9555805653845493 $314 6.6293899180536782 $234 $324 forward 7 unknown #
point $-1 -36.273138358619931 -23.007634160392644 -7.7480658071036634 #
point $-1 -36.273138358619931 23.007634160392644 -7.7480658071036634 #
face $-1 $-1 $325 $20 $-1 $326 forward single #
loop $-1 $-1 $163 $155 #
plane-surface $-1 0 -23.007634160392644 0 0 1 0 0 0 1 forward_v I I I I #
coedge $-1 $159 $158 $257 $327 reversed $57 $-1 #
edge $-1 $258 -23.007634160392644 $253 23.007634160392644 $158 $328 forward 7 unknown #
coedge $-1 $329 $330 $159 $251 forward $325 $-1 #
edge $-1 $254 -23.007634160392644 $331 23.007634160392644 $250 $332 forward 7 unknown #
coedge $-1 $260 $160 $330 $333 reversed $156 $-1 #
vertex $-1 $166 $334 #
vertex $-1 $161 $335 #
straight-curve $-1 36.744075025948533 23.007634160392644 4.9609375798863962 0 0 1 I I #
coedge $-1 $336 $163 $168 $264 reversed $246 $-1 #
coedge $-1 $163 $336 $248 $327 forward $246 $-1 #
vertex $-1 $164 $337 #
straight-curve $-1 21.030862654311164 -23.007634160392644 8.4218751597727923 1 0 0 I I #
coedge $-1 $165 $252 $167 $263 forward $156 $-1 #
straight-curve $-1 21.030862654311164 23.007634160392644 8.4218751597727923 -1 0 0 I I #
coedge $-1 $168 $167 $338 $339 reversed $91 $-1 #
edge $-1 $340 -11.421875159772792 $170 -8.4218751597727923 $167 $341 forward 7 unknown #
edge $-1 $342 -11.421875159772792 $169 -8.4218751597727923 $168 $343 forward 7 unknown #
point $-1 47.379375591296125 -23.007634160392644 8.4218751597727923 #
point $-1 47.379375591296125 23.007634160392644 8.4218751597727923 #
plane-surface $-1 0 0 11.421875159772792 0 0 1 1 0 0 forward_v I I I I #
coedge $-1 $278 $277 $270 $344 forward $173 $-1 #
coedge $-1 $270 $175 $177 $274 reversed $99 $-1 #
coedge $-1 $175 $269 $268 $344 reversed $99 $-1 #
coedge $-1 $183 $178 $175 $272 forward $184 $-1 #
edge $-1 $275 -21.973780451607343 $345 -15.701015751582741 $271 $346 forward 7 unknown #
coedge $-1 $177 $176 $278 $347 reversed $61 $-1 #
edge $-1 $348 -46.015268320785246 $275 -34.49797991745082 $269 $349 forward 7 unknown #
vertex $-1 $179 $350 #
straight-curve $-1 10.858217726930754 16.734869460368042 11.421875159772792 1 0 0 I I #
coedge $-1 $268 $180 $183 $282 reversed $173 $-1 #
coedge $-1 $180 $268 $273 $347 forward $173 $-1 #
vertex $-1 $181 $351 #
straight-curve $-1 14.343294647983917 23.007634160392644 45.981814740801951 0 0 1 I I #
straight-curve $-1 14.343294647983917 -2.0540766066326483 40.354315846244077 0 0.54463902268945019 -0.83867057594974714 I I #
edge $-1 $345 -29.089576259739097 $185 -14.343294647983917 $277 $352 forward 7 unknown #
point $-1 14.343294647983917 23.007634160392644 11.421875159772792 #
point $-1 14.343294647983917 16.734869460368042 11.421875159772792 #
edge $-1 $353 1 $353 0 $188 $-1 forward 7 unknown #
vertex $-1 $189 $354 #
ellipse-curve $-1 18.55651796562826 16.97912191139606 4.7140986539866843 0 0.83867057594974714 0.54463902268945019 1 0 0 1 I I #
point $-1 19.55651796562826 19.871251810380329 6.5922697104708625 #
edge $-1 $355 1 $355 0 $192 $-1 forward 7 unknown #
vertex $-1 $193 $356 #
ellipse-curve $-1 24.876352942094769 16.97912191139606 4.7140986539866843 0 0.83867057594974714 0.54463902268945019 1 0 0 1 I I #
point $-1 25.876352942094769 19.871251810380329 6.5922697104708625 #
plane-surface $-1 47.379375591296125 0 0 -1 0 0 0 0 1 forward_v I I I I #
coedge $-1 $201 $199 $203 $298 reversed $121 $-1 #
edge $-1 $214 -11.421875159772792 $300 11.421875159772792 $213 $357 forward 7 unknown #
vertex $-1 $298 $358 #
straight-curve $-1 -47.379375591296125 -23.007634160392644 0 0 0 -1 I I #
edge $-1 $296 -23.007634160392644 $300 23.007634160392644 $294 $359 forward 7 unknown #
straight-curve $-1 0 -23.007634160392644 -11.421875159772792 -1 0 0 I I #
vertex $-1 $206 $360 #
straight-curve $-1 0 23.007634160392644 -11.421875159772792 1 0 0 I I #
point $-1 47.379375591296125 23.007634160392644 -11.421875159772792 #
point $-1 47.379375591296125 -23.007634160392644 -11.421875159772792 #
straight-curve $-1 -47.379375591296125 0 11.421875159772792 0 -1 0 I I #
point $-1 -47.379375591296125 23.007634160392644 11.421875159772792 #
point $-1 -47.379375591296125 -23.007634160392644 11.421875159772792 #
straight-curve $-1 47.379375591296125 -23.007634160392644 0 0 0 -1 I I #
straight-curve $-1 47.379375591296125 23.007634160392644 0 0 0 -1 I I #
plane-surface $-1 0 23.007634160392644 0 0 -1 0 0 0 -1 forward_v I I I I #
coedge $-1 $227 $226 $361 $362 forward $83 $-1 #
edge $-1 $230 36.273138358619931 $363 47.379375591296125 $229 $364 forward 7 unknown #
coedge $-1 $235 $234 $227 $313 reversed $236 $-1 #
edge $-1 $365 -47.379375591296125 $314 -36.273138358619931 $312 $366 forward 7 unknown #
vertex $-1 $242 $367 #
straight-curve $-1 -36.273138358619931 0 -11.421875159772792 0 -1 0 I I #
point $-1 -36.273138358619931 -23.007634160392644 -11.421875159772792 #
coedge $-1 $361 $232 $235 $320 forward $224 $-1 #
coedge $-1 $232 $361 $239 $322 reversed $224 $-1 #
straight-curve $-1 -47.379375591296125 0 -7.7480658071036634 0 1 0 I I #
edge $-1 $237 7.7480658071036634 $365 11.421875159772792 $235 $368 forward 7 unknown #
point $-1 -47.379375591296125 23.007634160392644 -7.7480658071036634 #
edge $-1 $240 7.7480658071036634 $363 11.421875159772792 $318 $369 forward 7 unknown #
point $-1 -47.379375591296125 -23.007634160392644 -7.7480658071036634 #
straight-curve $-1 -36.273138358619931 23.007634160392644 -4.7924852417191142 0 0 -1 I I #
loop $-1 $-1 $250 $245 #
plane-surface $-1 0 0 11.421875159772792 0 0 1 1 0 0 forward_v I I I I #
edge $-1 $331 -6.4609375798863962 $258 -3.4609375798863962 $257 $370 forward 7 unknown #
straight-curve $-1 36.744075025948533 0 8.4218751597727923 0 1 0 I I #
coedge $-1 $338 $250 $336 $371 forward $325 $-1 #
coedge $-1 $250 $338 $252 $333 forward $325 $-1 #
vertex $-1 $371 $372 #
straight-curve $-1 36.744075025948533 0 11.421875159772792 0 -1 0 I I #
edge $-1 $340 -47.379375591296125 $254 -36.744075025948533 $252 $373 forward 7 unknown #
point $-1 36.744075025948533 23.007634160392644 8.4218751597727923 #
point $-1 36.744075025948533 23.007634160392644 11.421875159772792 #
coedge $-1 $257 $256 $329 $371 reversed $246 $-1 #
point $-1 36.744075025948533 -23.007634160392644 8.4218751597727923 #
coedge $-1 $330 $329 $262 $339 forward $325 $-1 #
edge $-1 $342 -23.007634160392644 $340 23.007634160392644 $262 $374 forward 7 unknown #
vertex $-1 $339 $375 #
straight-curve $-1 47.379375591296125 23.007634160392644 0 0 0 -1 I I #
vertex $-1 $339 $376 #
straight-curve $-1 47.379375591296125 -23.007634160392644 0 0 0 -1 I I #
edge $-1 $345 34.559939581029155 $348 44.219150479632994 $268 $377 forward 7 unknown #
vertex $-1 $282 $378 #
straight-curve $-1 29.089576259739097 38.708649911975385 11.421875159772789 0 1 0 I I #
edge $-1 $348 -18.231358532808343 $279 -3.4850769210531638 $278 $379 forward 7 unknown #
vertex $-1 $347 $380 #
straight-curve $-1 29.089576259739097 -2.0540766066326483 40.354315846244077 0 -0.54463902268945019 0.83867057594974714 I I #
point $-1 29.089576259739097 16.734869460368042 11.421875159772792 #
point $-1 14.343294647983917 23.007634160392644 1.7626642611689576 #
straight-curve $-1 0 23.007634160392644 11.421875159772792 -1 0 0 I I #
vertex $-1 $285 $381 #
point $-1 19.55651796562826 16.97912191139606 4.7140986539866843 #
vertex $-1 $289 $382 #
point $-1 25.876352942094769 16.97912191139606 4.7140986539866843 #
straight-curve $-1 -47.379375591296125 23.007634160392644 0 0 0 -1 I I #
point $-1 -47.379375591296125 -23.007634160392644 -11.421875159772792 #
straight-curve $-1 -47.379375591296125 0 -11.421875159772792 0 1 0 I I #
point $-1 -47.379375591296125 23.007634160392644 -11.421875159772792 #
coedge $-1 $318 $317 $310 $362 reversed $224 $-1 #
edge $-1 $363 -23.007634160392644 $365 23.007634160392644 $361 $383 forward 7 unknown #
vertex $-1 $362 $384 #
straight-curve $-1 0 -23.007634160392644 -11.421875159772792 -1 0 0 I I #
vertex $-1 $313 $385 #
straight-curve $-1 0 23.007634160392644 -11.421875159772792 1 0 0 I I #
point $-1 -36.273138358619931 23.007634160392644 -11.421875159772792 #
straight-curve $-1 -47.379375591296125 23.007634160392644 0 0 0 -1 I I #
straight-curve $-1 -47.379375591296125 -23.007634160392644 0 0 0 -1 I I #
straight-curve $-1 36.744075025948533 -23.007634160392644 4.9609375798863962 0 0 -1 I I #
edge $-1 $331 36.744075025948533 $342 47.379375591296125 $336 $386 forward 7 unknown #
point $-1 36.744075025948533 -23.007634160392644 11.421875159772792 #
straight-curve $-1 0 23.007634160392644 11.421875159772792 -1 0 0 I I #
straight-curve $-1 47.379375591296125 0 11.421875159772792 0 1 0 I I #
point $-1 47.379375591296125 23.007634160392644 11.421875159772792 #
point $-1 47.379375591296125 -23.007634160392644 11.421875159772792 #
straight-curve $-1 29.089576259739097 23.007634160392644 45.981814740801951 0 0 -1 I I #
point $-1 29.089576259739097 23.007634160392644 11.421875159772792 #
straight-curve $-1 10.858217726930754 23.007634160392644 1.7626642611689682 -1 0 0 I I #
point $-1 29.089576259739097 23.007634160392644 1.7626642611689576 #
point $-1 18.55651796562826 16.140451335446311 4.1694596312972338 #
point $-1 24.876352942094769 16.140451335446311 4.1694596312972338 #
straight-curve $-1 -47.379375591296125 0 -11.421875159772792 0 1 0 I I #
point $-1 -47.379375591296125 -23.007634160392644 -11.421875159772792 #
point $-1 -47.379375591296125 23.007634160392644 -11.421875159772792 #
straight-curve $-1 0 -23.007634160392644 11.421875159772792 1 0 0 I I #
End-of-ACIS-data 