500 0 5 0           
7 Unknown 11 ACIS 5.0 NT 24 Thu Mar 25 21:06:55 1999 
-1 9.9999999999999995e-007 1e-010 
body $-1 $5 $-1 $6 #
body $-1 $7 $-1 $8 #
body $-1 $9 $-1 $10 #
body $-1 $11 $-1 $12 #
body $-1 $13 $-1 $14 #
lump $-1 $-1 $15 $0 #
transform $-1 1 0 0 0 1 0 0 0 1 79.169896542252872 53.37341732802296 14.654844763282869 1 rotate no_reflect no_shear #
lump $-1 $-1 $16 $1 #
transform $-1 1 0 0 0 1 0 0 0 1 79.169896542252872 53.37341732802296 14.654844763282869 1 rotate no_reflect no_shear #
lump $-1 $-1 $17 $2 #
transform $-1 1 0 0 0 1 0 0 0 1 79.169896542252872 53.37341732802296 14.654844763282869 1 rotate no_reflect no_shear #
lump $-1 $-1 $18 $3 #
transform $-1 1 0 0 0 1 0 0 0 1 79.169896542252872 53.37341732802296 14.654844763282869 1 rotate no_reflect no_shear #
lump $-1 $-1 $19 $4 #
transform $-1 1 0 0 0 1 0 0 0 1 79.169896542252872 53.37341732802296 14.654844763282869 1 rotate no_reflect no_shear #
shell $-1 $-1 $-1 $20 $-1 $5 #
shell $-1 $-1 $-1 $21 $-1 $7 #
shell $-1 $-1 $-1 $22 $-1 $9 #
shell $-1 $-1 $-1 $23 $-1 $11 #
shell $-1 $-1 $-1 $24 $-1 $13 #
face $-1 $25 $26 $15 $-1 $27 forward single #
face $-1 $28 $29 $16 $-1 $30 forward single #
face $-1 $31 $32 $17 $-1 $33 reversed single #
face $-1 $34 $35 $18 $-1 $36 reversed single #
face $-1 $37 $38 $19 $-1 $39 reversed single #
face $-1 $40 $41 $15 $-1 $42 reversed single #
loop $-1 $-1 $43 $20 #
plane-surface $-1 0 0 14.654844763282869 0 0 1 1 0 0 forward_v I I I I #
face $-1 $44 $45 $16 $-1 $46 forward single #
loop $-1 $-1 $47 $21 #
plane-surface $-1 0.60491618303313999 79.995063322403155 193.58967313151828 1 0 0 0 -0.66913061440640931 -0.74314481823134659 forward_v I I I I #
face $-1 $48 $49 $17 $-1 $50 reversed single #
loop $-1 $51 $52 $22 #
cone-surface $-1 6.0253008963999406 46.757638987402487 8.4935062371340511 0 -0.66913061440640931 -0.74314481823134659 1 0 0 1 I I 0 1 1 forward I I I I #
face $-1 $53 $54 $18 $-1 $55 reversed single #
loop $-1 $56 $57 $23 #
cone-surface $-1 14.155877966450149 46.757638987402487 8.4935062371340511 0 -0.66913061440640931 -0.74314481823134659 1 0 0 1 I I 0 1 1 forward I I I I #
face $-1 $58 $59 $19 $-1 $60 reversed single #
loop $-1 $61 $62 $24 #
cone-surface $-1 22.286455036500357 46.757638987402487 8.4935062371340511 0 -0.66913061440640931 -0.74314481823134659 1 0 0 1 I I 0 1 1 forward I I I I #
face $-1 $63 $64 $15 $-1 $65 reversed single #
loop $-1 $-1 $66 $25 #
plane-surface $-1 0 0 -14.654844763282869 0 0 1 1 0 0 forward_v I I I I #
coedge $-1 $67 $68 $69 $70 forward $26 $-1 #
face $-1 $71 $72 $16 $-1 $73 forward single #
loop $-1 $-1 $74 $28 #
plane-surface $-1 14.155877966450149 -25.954939709215893 75.92027638094423 0 0.66913061440640931 0.74314481823134659 1 0 0 forward_v I I I I #
coedge $-1 $75 $76 $77 $78 reversed $29 $-1 #
face $-1 $79 $80 $17 $-1 $81 forward single #
loop $-1 $82 $83 $31 #
cone-surface $-1 6.0253008963999406 45.450397058595264 7.0416670227085714 0 -0.66913061440640931 -0.74314481823134659 0.5 0 0 1 I I -0.70710678118654746 0.70710678118654746 0.5 forward I I I I #
loop $-1 $-1 $84 $22 #
coedge $-1 $52 $52 $85 $86 reversed $32 $-1 #
face $-1 $87 $88 $18 $-1 $89 reversed single #
loop $-1 $90 $91 $34 #
cone-surface $-1 14.155877966450149 45.450397058595264 7.0416670227085714 0 -0.66913061440640931 -0.74314481823134659 0.5 0 0 1 I I -0.70710678118654746 0.70710678118654746 0.5 forward I I I I #
loop $-1 $-1 $92 $23 #
coedge $-1 $57 $57 $93 $94 reversed $35 $-1 #
face $-1 $95 $96 $19 $-1 $97 reversed single #
loop $-1 $98 $99 $37 #
cone-surface $-1 22.286455036500357 45.450397058595264 7.0416670227085714 0 -0.66913061440640931 -0.74314481823134659 0.5 0 0 1 I I -0.70710678118654746 0.70710678118654746 0.5 forward I I I I #
loop $-1 $-1 $100 $24 #
coedge $-1 $62 $62 $101 $102 reversed $38 $-1 #
face $-1 $103 $104 $15 $-1 $105 reversed single #
loop $-1 $-1 $106 $40 #
plane-surface $-1 0 -53.37341732802296 0 0 1 0 0 0 1 forward_v I I I I #
coedge $-1 $107 $108 $109 $110 forward $41 $-1 #
coedge $-1 $111 $43 $112 $113 forward $26 $-1 #
coedge $-1 $43 $111 $114 $115 forward $26 $-1 #
coedge $-1 $116 $117 $43 $70 reversed $118 $-1 #
edge $-1 $119 -53.37341732802296 $120 53.37341732802296 $69 $121 forward 7 unknown #
face $-1 $122 $123 $16 $-1 $124 forward single #
loop $-1 $-1 $125 $44 #
plane-surface $-1 27.706839749867157 79.995063322403155 193.58967313151828 -1 0 0 0 0.66913061440640931 0.74314481823134659 forward_v I I I I #
coedge $-1 $126 $127 $128 $129 reversed $45 $-1 #
coedge $-1 $76 $47 $127 $130 forward $29 $-1 #
coedge $-1 $47 $75 $131 $132 reversed $29 $-1 #
coedge $-1 $133 $128 $47 $78 forward $123 $-1 #
edge $-1 $134 2.089682228788476 $135 13.375885666821382 $77 $136 forward 7 unknown #
face $-1 $137 $138 $17 $-1 $139 forward single #
loop $-1 $-1 $140 $48 #
plane-surface $-1 0.60491618303313999 79.995063322403155 193.58967313151828 1 0 0 0 -0.66913061440640931 -0.74314481823134659 forward_v I I I I #
loop $-1 $-1 $141 $31 #
coedge $-1 $83 $83 $84 $142 forward $49 $-1 #
coedge $-1 $84 $84 $83 $142 reversed $51 $-1 #
coedge $-1 $85 $85 $52 $86 forward $138 $-1 #
edge $-1 $143 -2.9031320354146e-015 $143 6.2831853071795978 $85 $144 forward 7 unknown #
face $-1 $145 $146 $18 $-1 $147 reversed single #
loop $-1 $148 $149 $53 #
cone-surface $-1 6.0253008963999406 46.757638987402487 8.4935062371340511 0 -0.66913061440640931 -0.74314481823134659 1 0 0 1 I I 0 1 1 forward I I I I #
loop $-1 $-1 $150 $34 #
coedge $-1 $91 $91 $92 $151 forward $54 $-1 #
coedge $-1 $92 $92 $91 $151 reversed $56 $-1 #
coedge $-1 $93 $93 $57 $94 forward $152 $-1 #
edge $-1 $153 -2.9031320354146e-015 $153 6.2831853071795978 $93 $154 forward 7 unknown #
face $-1 $155 $156 $19 $-1 $157 reversed single #
loop $-1 $158 $159 $58 #
cone-surface $-1 14.155877966450149 46.757638987402487 8.4935062371340511 0 -0.66913061440640931 -0.74314481823134659 1 0 0 1 I I 0 1 1 forward I I I I #
loop $-1 $-1 $160 $37 #
coedge $-1 $99 $99 $100 $161 forward $59 $-1 #
coedge $-1 $100 $100 $99 $161 reversed $61 $-1 #
coedge $-1 $101 $101 $62 $102 forward $162 $-1 #
edge $-1 $163 -2.9031320354146e-015 $163 6.2831853071795978 $101 $164 forward 7 unknown #
face $-1 $165 $166 $15 $-1 $167 reversed single #
loop $-1 $-1 $168 $63 #
plane-surface $-1 -79.169896542252872 0 0 1 0 0 0 0 -1 forward_v I I I I #
coedge $-1 $169 $114 $170 $171 forward $64 $-1 #
coedge $-1 $172 $66 $169 $173 forward $41 $-1 #
coedge $-1 $66 $172 $174 $175 forward $41 $-1 #
coedge $-1 $117 $116 $66 $110 reversed $118 $-1 #
edge $-1 $176 -53.37341732802296 $177 53.37341732802296 $109 $178 forward 7 unknown #
coedge $-1 $68 $67 $179 $180 forward $26 $-1 #
coedge $-1 $181 $182 $67 $113 reversed $166 $-1 #
edge $-1 $120 -79.169896542252872 $183 79.169896542252872 $112 $184 forward 7 unknown #
coedge $-1 $106 $185 $68 $115 reversed $64 $-1 #
edge $-1 $186 -79.169896542252872 $119 79.169896542252872 $114 $187 forward 7 unknown #
coedge $-1 $109 $69 $185 $188 forward $118 $-1 #
coedge $-1 $69 $109 $181 $189 reversed $118 $-1 #
loop $-1 $-1 $116 $165 #
vertex $-1 $70 $190 #
vertex $-1 $70 $191 #
straight-curve $-1 79.169896542252872 0 14.654844763282869 0 1 0 I I #
face $-1 $192 $193 $16 $-1 $194 reversed single #
loop $-1 $-1 $195 $71 #
plane-surface $-1 0 0 14.654844763282869 0 0 1 1 0 0 forward_v I I I I #
coedge $-1 $196 $197 $195 $198 reversed $72 $-1 #
coedge $-1 $199 $74 $197 $200 reversed $45 $-1 #
coedge $-1 $74 $199 $75 $130 reversed $45 $-1 #
coedge $-1 $77 $195 $74 $129 forward $123 $-1 #
edge $-1 $201 -20.628900766642083 $134 6.4730228001919343 $128 $202 forward 7 unknown #
edge $-1 $134 91.559749768750862 $203 106.74683465604591 $75 $204 forward 7 unknown #
coedge $-1 $205 $206 $76 $132 forward $207 $-1 #
edge $-1 $135 82.139991802476274 $203 92.3021352441543 $131 $208 forward 7 unknown #
coedge $-1 $209 $77 $206 $210 forward $123 $-1 #
vertex $-1 $129 $211 #
vertex $-1 $210 $212 #
straight-curve $-1 0.60491618303313999 39.997531661201577 14.654844763282867 0 1 0 I I #
face $-1 $213 $214 $17 $-1 $215 forward single #
loop $-1 $216 $85 $79 #
plane-surface $-1 14.155877966450149 -25.954939709215893 75.92027638094423 0 0.66913061440640931 0.74314481823134659 1 0 0 forward_v I I I I #
coedge $-1 $217 $218 $219 $220 reversed $80 $-1 #
coedge $-1 $141 $141 $-1 $221 forward $82 $-1 #
edge $-1 $222 0 $222 6.2831853071796004 $83 $223 forward 7 unknown #
vertex $-1 $86 $224 #
ellipse-curve $-1 6.0253008963999406 47.730315609006503 9.5737730424438521 0 -0.66913061440640931 -0.74314481823134659 1 0 0 1 I I #
face $-1 $225 $226 $18 $-1 $227 forward single #
loop $-1 $228 $229 $87 #
cone-surface $-1 6.0253008963999406 45.450397058595264 7.0416670227085714 0 -0.66913061440640931 -0.74314481823134659 0.5 0 0 1 I I -0.70710678118654746 0.70710678118654746 0.5 forward I I I I #
loop $-1 $-1 $230 $53 #
coedge $-1 $149 $149 $231 $232 reversed $88 $-1 #
coedge $-1 $150 $150 $-1 $233 forward $90 $-1 #
edge $-1 $234 0 $234 6.2831853071796004 $91 $235 forward 7 unknown #
loop $-1 $236 $93 $225 #
vertex $-1 $94 $237 #
ellipse-curve $-1 14.155877966450149 47.730315609006503 9.5737730424438521 0 -0.66913061440640931 -0.74314481823134659 1 0 0 1 I I #
face $-1 $238 $239 $19 $-1 $240 reversed single #
loop $-1 $241 $242 $95 #
cone-surface $-1 14.155877966450149 45.450397058595264 7.0416670227085714 0 -0.66913061440640931 -0.74314481823134659 0.5 0 0 1 I I -0.70710678118654746 0.70710678118654746 0.5 forward I I I I #
loop $-1 $-1 $243 $58 #
coedge $-1 $159 $159 $244 $245 reversed $96 $-1 #
coedge $-1 $160 $160 $-1 $246 forward $98 $-1 #
edge $-1 $247 0 $247 6.2831853071796004 $99 $248 forward 7 unknown #
loop $-1 $249 $101 $250 #
vertex $-1 $102 $251 #
ellipse-curve $-1 22.286455036500357 47.730315609006503 9.5737730424438521 0 -0.66913061440640931 -0.74314481823134659 1 0 0 1 I I #
face $-1 $-1 $118 $15 $-1 $252 reversed single #
loop $-1 $-1 $181 $103 #
plane-surface $-1 0 53.37341732802296 0 0 -1 0 0 0 -1 forward_v I I I I #
coedge $-1 $253 $179 $182 $254 forward $104 $-1 #
coedge $-1 $185 $106 $107 $173 reversed $64 $-1 #
coedge $-1 $179 $253 $106 $171 reversed $104 $-1 #
edge $-1 $186 -14.654844763282869 $255 14.654844763282869 $170 $256 forward 7 unknown #
coedge $-1 $108 $107 $253 $257 forward $41 $-1 #
edge $-1 $177 -79.169896542252872 $255 79.169896542252872 $169 $258 forward 7 unknown #
coedge $-1 $182 $181 $108 $175 reversed $166 $-1 #
edge $-1 $259 -79.169896542252872 $176 79.169896542252872 $174 $260 forward 7 unknown #
vertex $-1 $110 $261 #
vertex $-1 $188 $262 #
straight-curve $-1 79.169896542252872 0 -14.654844763282869 0 -1 0 I I #
coedge $-1 $168 $170 $111 $180 reversed $104 $-1 #
edge $-1 $183 -53.37341732802296 $186 53.37341732802296 $179 $263 forward 7 unknown #
coedge $-1 $174 $112 $117 $189 forward $166 $-1 #
coedge $-1 $112 $174 $168 $254 reversed $166 $-1 #
vertex $-1 $113 $264 #
straight-curve $-1 0 53.37341732802296 14.654844763282869 -1 0 0 I I #
coedge $-1 $114 $169 $116 $188 reversed $64 $-1 #
vertex $-1 $180 $265 #
straight-curve $-1 0 -53.37341732802296 14.654844763282869 1 0 0 I I #
edge $-1 $119 -14.654844763282869 $177 14.654844763282869 $116 $266 forward 7 unknown #
edge $-1 $120 -14.654844763282869 $176 14.654844763282869 $117 $267 forward 7 unknown #
point $-1 79.169896542252872 -53.37341732802296 14.654844763282869 #
point $-1 79.169896542252872 53.37341732802296 14.654844763282869 #
face $-1 $268 $269 $16 $-1 $270 reversed single #
loop $-1 $-1 $271 $122 #
plane-surface $-1 0 0 -14.654844763282869 0 0 1 1 0 0 forward_v I I I I #
coedge $-1 $128 $272 $125 $198 forward $123 $-1 #
coedge $-1 $197 $125 $273 $274 reversed $72 $-1 #
coedge $-1 $125 $196 $126 $200 forward $72 $-1 #
edge $-1 $275 -13.375885666821382 $201 -2.089682228788476 $195 $276 forward 7 unknown #
coedge $-1 $127 $126 $205 $277 reversed $45 $-1 #
edge $-1 $278 -106.74683465604591 $201 -91.559749768750862 $197 $279 forward 7 unknown #
vertex $-1 $129 $280 #
straight-curve $-1 7.0779389832250743 42.087213889990053 14.65484476328286 -1 0 0 I I #
vertex $-1 $277 $281 #
straight-curve $-1 0.60491618303313999 -25.954939709215893 75.92027638094423 0 0.74314481823134659 -0.66913061440640931 I I #
coedge $-1 $273 $131 $199 $277 forward $207 $-1 #
coedge $-1 $131 $282 $133 $210 reversed $207 $-1 #
loop $-1 $-1 $273 $283 #
straight-curve $-1 0.60491618303313999 53.37341732802296 96.794836565759141 0 0 -1 I I #
coedge $-1 $284 $133 $285 $286 forward $123 $-1 #
edge $-1 $135 -0.60491618303313999 $287 79.169896542252872 $206 $288 forward 7 unknown #
point $-1 0.60491618303313999 42.087213889990053 14.654844763282867 #
point $-1 0.60491618303313999 53.37341732802296 14.654844763282869 #
face $-1 $289 $290 $17 $-1 $291 forward single #
loop $-1 $-1 $292 $137 #
plane-surface $-1 27.706839749867157 79.995063322403155 193.58967313151828 -1 0 0 0 0.66913061440640931 0.74314481823134659 forward_v I I I I #
loop $-1 $-1 $293 $79 #
coedge $-1 $218 $140 $294 $295 forward $80 $-1 #
coedge $-1 $140 $217 $296 $297 reversed $80 $-1 #
coedge $-1 $298 $299 $140 $220 forward $290 $-1 #
edge $-1 $300 2.089682228788476 $301 13.375885666821382 $219 $302 forward 7 unknown #
edge $-1 $303 1 $303 0 $141 $-1 forward 7 unknown #
vertex $-1 $142 $304 #
ellipse-curve $-1 6.0253008963999406 45.784962365798471 7.4132394318242447 0 0.66913061440640931 0.74314481823134659 1 0 0 1 I I #
point $-1 7.0253008963999406 47.73031560900651 9.5737730424438556 #
face $-1 $305 $152 $18 $-1 $306 forward single #
loop $-1 $-1 $307 $145 #
plane-surface $-1 0.60491618303313999 79.995063322403155 193.58967313151828 1 0 0 0 -0.66913061440640931 -0.74314481823134659 forward_v I I I I #
loop $-1 $-1 $308 $87 #
coedge $-1 $229 $229 $230 $309 forward $146 $-1 #
coedge $-1 $230 $230 $229 $309 reversed $148 $-1 #
coedge $-1 $231 $231 $149 $232 forward $236 $-1 #
edge $-1 $310 -2.9031320354146e-015 $310 6.2831853071795978 $231 $311 forward 7 unknown #
edge $-1 $312 1 $312 0 $150 $-1 forward 7 unknown #
vertex $-1 $151 $313 #
ellipse-curve $-1 14.155877966450149 45.784962365798471 7.4132394318242447 0 0.66913061440640931 0.74314481823134659 1 0 0 1 I I #
loop $-1 $314 $231 $225 #
point $-1 15.155877966450149 47.73031560900651 9.5737730424438556 #
face $-1 $315 $316 $19 $-1 $317 reversed single #
loop $-1 $318 $319 $155 #
cone-surface $-1 6.0253008963999406 46.757638987402487 8.4935062371340511 0 -0.66913061440640931 -0.74314481823134659 1 0 0 1 I I 0 1 1 forward I I I I #
loop $-1 $-1 $320 $95 #
coedge $-1 $242 $242 $243 $321 forward $156 $-1 #
coedge $-1 $243 $243 $242 $321 reversed $158 $-1 #
coedge $-1 $244 $244 $159 $245 forward $249 $-1 #
edge $-1 $322 -2.9031320354146e-015 $322 6.2831853071795978 $244 $323 forward 7 unknown #
edge $-1 $324 1 $324 0 $160 $-1 forward 7 unknown #
vertex $-1 $161 $325 #
ellipse-curve $-1 22.286455036500357 45.784962365798471 7.4132394318242447 0 0.66913061440640931 0.74314481823134659 1 0 0 1 I I #
loop $-1 $326 $244 $250 #
face $-1 $327 $162 $19 $-1 $328 forward single #
point $-1 23.286455036500357 47.73031560900651 9.5737730424438556 #
plane-surface $-1 79.169896542252872 0 0 -1 0 0 0 0 1 forward_v I I I I #
coedge $-1 $170 $168 $172 $257 reversed $104 $-1 #
edge $-1 $183 -14.654844763282869 $259 14.654844763282869 $182 $329 forward 7 unknown #
vertex $-1 $257 $330 #
straight-curve $-1 -79.169896542252872 -53.37341732802296 0 0 0 -1 I I #
edge $-1 $255 -53.37341732802296 $259 53.37341732802296 $253 $331 forward 7 unknown #
straight-curve $-1 0 -53.37341732802296 -14.654844763282869 -1 0 0 I I #
vertex $-1 $175 $332 #
straight-curve $-1 0 53.37341732802296 -14.654844763282869 1 0 0 I I #
point $-1 79.169896542252872 53.37341732802296 -14.654844763282869 #
point $-1 79.169896542252872 -53.37341732802296 -14.654844763282869 #
straight-curve $-1 -79.169896542252872 0 14.654844763282869 0 -1 0 I I #
point $-1 -79.169896542252872 53.37341732802296 14.654844763282869 #
point $-1 -79.169896542252872 -53.37341732802296 14.654844763282869 #
straight-curve $-1 79.169896542252872 -53.37341732802296 0 0 0 -1 I I #
straight-curve $-1 79.169896542252872 53.37341732802296 0 0 0 -1 I I #
face $-1 $283 $333 $16 $-1 $334 reversed single #
loop $-1 $-1 $335 $192 #
plane-surface $-1 0 -53.37341732802296 0 0 1 0 0 0 1 forward_v I I I I #
coedge $-1 $336 $337 $338 $339 forward $193 $-1 #
coedge $-1 $195 $340 $341 $342 forward $123 $-1 #
coedge $-1 $341 $205 $196 $274 forward $207 $-1 #
edge $-1 $278 -92.3021352441543 $275 -82.139991802476274 $273 $343 forward 7 unknown #
vertex $-1 $274 $344 #
straight-curve $-1 27.706839749867157 39.997531661201577 14.654844763282867 0 -1 0 I I #
edge $-1 $203 -6.4730228001919343 $278 20.628900766642083 $205 $345 forward 7 unknown #
vertex $-1 $277 $346 #
straight-curve $-1 27.706839749867157 -25.954939709215893 75.92027638094423 0 -0.74314481823134659 0.66913061440640931 I I #
point $-1 27.706839749867157 42.087213889990053 14.654844763282867 #
point $-1 0.60491618303313999 53.373417328022953 4.4927013216048408 #
coedge $-1 $206 $347 $348 $349 reversed $207 $-1 #
face $-1 $350 $207 $16 $-1 $351 reversed single #
coedge $-1 $340 $209 $352 $353 forward $123 $-1 #
coedge $-1 $348 $354 $209 $286 reversed $333 $-1 #
edge $-1 $287 -53.37341732802296 $355 53.37341732802296 $285 $356 forward 7 unknown #
vertex $-1 $210 $357 #
straight-curve $-1 0 53.37341732802296 14.654844763282869 -1 0 0 I I #
face $-1 $358 $359 $17 $-1 $360 reversed single #
loop $-1 $-1 $361 $213 #
plane-surface $-1 0 0 14.654844763282869 0 0 1 1 0 0 forward_v I I I I #
coedge $-1 $362 $363 $361 $364 reversed $214 $-1 #
coedge $-1 $365 $294 $299 $366 reversed $216 $-1 #
coedge $-1 $293 $367 $217 $295 reversed $216 $-1 #
edge $-1 $300 91.559749768750862 $368 106.74683465604591 $217 $369 forward 7 unknown #
coedge $-1 $370 $371 $218 $297 forward $372 $-1 #
edge $-1 $301 82.139991802476274 $368 92.3021352441543 $296 $373 forward 7 unknown #
coedge $-1 $374 $219 $371 $375 forward $290 $-1 #
coedge $-1 $219 $361 $293 $366 forward $290 $-1 #
vertex $-1 $366 $376 #
vertex $-1 $375 $377 #
straight-curve $-1 0.60491618303313999 39.997531661201577 14.654844763282867 0 1 0 I I #
vertex $-1 $221 $378 #
point $-1 7.0253008963999406 45.784962365798471 7.4132394318242447 #
face $-1 $379 $380 $18 $-1 $381 forward single #
plane-surface $-1 14.155877966450149 -25.954939709215893 75.92027638094423 0 0.66913061440640931 0.74314481823134659 1 0 0 forward_v I I I I #
coedge $-1 $382 $383 $384 $385 reversed $226 $-1 #
coedge $-1 $308 $308 $-1 $386 forward $228 $-1 #
edge $-1 $387 0 $387 6.2831853071796004 $229 $388 forward 7 unknown #
vertex $-1 $232 $389 #
ellipse-curve $-1 6.0253008963999406 47.730315609006503 9.5737730424438521 0 -0.66913061440640931 -0.74314481823134659 1 0 0 1 I I #
vertex $-1 $233 $390 #
point $-1 15.155877966450149 45.784962365798471 7.4132394318242447 #
loop $-1 $-1 $391 $225 #
face $-1 $250 $392 $19 $-1 $393 forward single #
loop $-1 $394 $395 $238 #
cone-surface $-1 6.0253008963999406 45.450397058595264 7.0416670227085714 0 -0.66913061440640931 -0.74314481823134659 0.5 0 0 1 I I -0.70710678118654746 0.70710678118654746 0.5 forward I I I I #
loop $-1 $-1 $396 $155 #
coedge $-1 $319 $319 $397 $398 reversed $239 $-1 #
coedge $-1 $320 $320 $-1 $399 forward $241 $-1 #
edge $-1 $400 0 $400 6.2831853071796004 $242 $401 forward 7 unknown #
vertex $-1 $245 $402 #
ellipse-curve $-1 14.155877966450149 47.730315609006503 9.5737730424438521 0 -0.66913061440640931 -0.74314481823134659 1 0 0 1 I I #
vertex $-1 $246 $403 #
point $-1 23.286455036500357 45.784962365798471 7.4132394318242447 #
loop $-1 $404 $397 $250 #
face $-1 $405 $406 $19 $-1 $407 forward single #
plane-surface $-1 14.155877966450149 -25.954939709215893 75.92027638094423 0 0.66913061440640931 0.74314481823134659 1 0 0 forward_v I I I I #
straight-curve $-1 -79.169896542252872 53.37341732802296 0 0 0 -1 I I #
point $-1 -79.169896542252872 -53.37341732802296 -14.654844763282869 #
straight-curve $-1 -79.169896542252872 0 -14.654844763282869 0 1 0 I I #
point $-1 -79.169896542252872 53.37341732802296 -14.654844763282869 #
loop $-1 $-1 $348 $268 #
plane-surface $-1 -79.169896542252872 0 0 1 0 0 0 0 -1 forward_v I I I I #
coedge $-1 $408 $352 $354 $409 forward $269 $-1 #
coedge $-1 $410 $271 $408 $411 forward $193 $-1 #
coedge $-1 $271 $410 $347 $412 forward $193 $-1 #
coedge $-1 $413 $414 $271 $339 reversed $415 $-1 #
edge $-1 $416 -53.37341732802296 $417 53.37341732802296 $338 $418 forward 7 unknown #
coedge $-1 $272 $284 $419 $420 forward $123 $-1 #
coedge $-1 $421 $273 $272 $342 reversed $207 $-1 #
edge $-1 $422 -79.169896542252872 $275 -27.706839749867157 $341 $288 forward 7 unknown #
straight-curve $-1 27.706839749867157 53.37341732802296 96.794836565759141 0 0 1 I I #
point $-1 27.706839749867157 53.37341732802296 14.654844763282869 #
straight-curve $-1 7.0779389832250743 53.37341732802296 4.4927013216048479 1 0 0 I I #
point $-1 27.706839749867157 53.373417328022953 4.4927013216048408 #
coedge $-1 $282 $421 $337 $412 reversed $207 $-1 #
coedge $-1 $423 $285 $282 $349 forward $333 $-1 #
edge $-1 $287 -14.654844763282869 $424 14.654844763282869 $282 $425 forward 7 unknown #
face $-1 $-1 $415 $16 $-1 $426 reversed single #
plane-surface $-1 0 53.37341732802296 0 0 -1 0 0 0 -1 forward_v I I I I #
coedge $-1 $335 $427 $284 $353 reversed $269 $-1 #
edge $-1 $355 -79.169896542252872 $428 79.169896542252872 $352 $429 forward 7 unknown #
coedge $-1 $285 $423 $335 $409 reversed $333 $-1 #
vertex $-1 $286 $430 #
straight-curve $-1 -79.169896542252872 0 14.654844763282869 0 -1 0 I I #
point $-1 -79.169896542252872 53.37341732802296 14.654844763282869 #
face $-1 $431 $432 $17 $-1 $433 reversed single #
loop $-1 $-1 $434 $289 #
plane-surface $-1 0 0 -14.654844763282869 0 0 1 1 0 0 forward_v I I I I #
coedge $-1 $299 $435 $292 $364 forward $290 $-1 #
coedge $-1 $363 $292 $436 $437 reversed $214 $-1 #
coedge $-1 $292 $362 $365 $438 forward $214 $-1 #
edge $-1 $439 -13.375885666821382 $440 -2.089682228788476 $361 $441 forward 7 unknown #
coedge $-1 $367 $293 $363 $438 reversed $216 $-1 #
edge $-1 $440 -20.628900766642083 $300 6.4730228001919343 $299 $442 forward 7 unknown #
coedge $-1 $294 $365 $370 $443 reversed $216 $-1 #
vertex $-1 $443 $444 #
straight-curve $-1 0.60491618303313999 -25.954939709215893 75.92027638094423 0 0.74314481823134659 -0.66913061440640931 I I #
coedge $-1 $436 $296 $367 $443 forward $372 $-1 #
coedge $-1 $296 $445 $298 $375 reversed $372 $-1 #
loop $-1 $-1 $436 $446 #
straight-curve $-1 0.60491618303313999 53.37341732802296 96.794836565759141 0 0 -1 I I #
coedge $-1 $447 $298 $448 $449 forward $290 $-1 #
edge $-1 $301 -0.60491618303313999 $450 79.169896542252872 $371 $451 forward 7 unknown #
point $-1 0.60491618303313999 42.087213889990053 14.654844763282867 #
point $-1 0.60491618303313999 53.37341732802296 14.654844763282869 #
point $-1 6.0253008963999406 45.115831751392058 6.670094613592898 #
face $-1 $452 $453 $18 $-1 $454 forward single #
loop $-1 $-1 $455 $305 #
plane-surface $-1 27.706839749867157 79.995063322403155 193.58967313151828 -1 0 0 0 0.66913061440640931 0.74314481823134659 forward_v I I I I #
coedge $-1 $383 $307 $456 $457 forward $226 $-1 #
coedge $-1 $307 $382 $458 $459 reversed $226 $-1 #
coedge $-1 $460 $461 $307 $385 forward $453 $-1 #
edge $-1 $462 2.089682228788476 $463 13.375885666821382 $384 $464 forward 7 unknown #
edge $-1 $465 1 $465 0 $308 $-1 forward 7 unknown #
vertex $-1 $309 $466 #
ellipse-curve $-1 6.0253008963999406 45.784962365798471 7.4132394318242447 0 0.66913061440640931 0.74314481823134659 1 0 0 1 I I #
point $-1 7.0253008963999406 47.73031560900651 9.5737730424438556 #
point $-1 14.155877966450149 45.115831751392058 6.670094613592898 #
coedge $-1 $467 $456 $461 $468 reversed $314 $-1 #
loop $-1 $-1 $469 $315 #
plane-surface $-1 0.60491618303313999 79.995063322403155 193.58967313151828 1 0 0 0 -0.66913061440640931 -0.74314481823134659 forward_v I I I I #
loop $-1 $-1 $470 $238 #
coedge $-1 $395 $395 $396 $471 forward $316 $-1 #
coedge $-1 $396 $396 $395 $471 reversed $318 $-1 #
coedge $-1 $397 $397 $319 $398 forward $326 $-1 #
edge $-1 $472 -2.9031320354146e-015 $472 6.2831853071795978 $397 $473 forward 7 unknown #
edge $-1 $474 1 $474 0 $320 $-1 forward 7 unknown #
vertex $-1 $321 $475 #
ellipse-curve $-1 14.155877966450149 45.784962365798471 7.4132394318242447 0 0.66913061440640931 0.74314481823134659 1 0 0 1 I I #
point $-1 15.155877966450149 47.73031560900651 9.5737730424438556 #
point $-1 22.286455036500357 45.115831751392058 6.670094613592898 #
loop $-1 $-1 $476 $250 #
face $-1 $477 $478 $19 $-1 $479 forward single #
loop $-1 $-1 $480 $327 #
plane-surface $-1 27.706839749867157 79.995063322403155 193.58967313151828 -1 0 0 0 0.66913061440640931 0.74314481823134659 forward_v I I I I #
coedge $-1 $427 $335 $336 $411 reversed $269 $-1 #
edge $-1 $355 -14.654844763282869 $481 14.654844763282869 $354 $482 forward 7 unknown #
coedge $-1 $337 $336 $423 $483 forward $193 $-1 #
edge $-1 $417 -79.169896542252872 $481 79.169896542252872 $408 $484 forward 7 unknown #
edge $-1 $424 -79.169896542252872 $416 79.169896542252872 $347 $485 forward 7 unknown #
coedge $-1 $419 $338 $421 $486 reversed $415 $-1 #
coedge $-1 $338 $419 $427 $487 forward $415 $-1 #
loop $-1 $-1 $414 $350 #
vertex $-1 $339 $488 #
vertex $-1 $487 $489 #
straight-curve $-1 79.169896542252872 0 -14.654844763282869 0 -1 0 I I #
coedge $-1 $414 $413 $340 $420 reversed $415 $-1 #
edge $-1 $428 -53.37341732802296 $422 53.37341732802296 $419 $490 forward 7 unknown #
coedge $-1 $347 $341 $413 $486 forward $207 $-1 #
vertex $-1 $420 $491 #
coedge $-1 $354 $348 $410 $483 reversed $333 $-1 #
vertex $-1 $412 $492 #
straight-curve $-1 -79.169896542252872 53.37341732802296 0 0 0 -1 I I #
plane-surface $-1 79.169896542252872 0 0 -1 0 0 0 0 1 forward_v I I I I #
coedge $-1 $352 $408 $414 $487 reversed $269 $-1 #
vertex $-1 $420 $493 #
straight-curve $-1 0 -53.37341732802296 14.654844763282869 1 0 0 I I #
point $-1 -79.169896542252872 -53.37341732802296 14.654844763282869 #
face $-1 $446 $494 $17 $-1 $495 reversed single #
loop $-1 $-1 $496 $358 #
plane-surface $-1 0 -53.37341732802296 0 0 1 0 0 0 1 forward_v I I I I #
coedge $-1 $497 $498 $499 $500 forward $359 $-1 #
coedge $-1 $361 $501 $502 $503 forward $290 $-1 #
coedge $-1 $502 $370 $362 $437 forward $372 $-1 #
edge $-1 $504 -92.3021352441543 $439 -82.139991802476274 $436 $505 forward 7 unknown #
edge $-1 $504 -106.74683465604591 $440 -91.559749768750862 $363 $506 forward 7 unknown #
vertex $-1 $437 $507 #
vertex $-1 $366 $508 #
straight-curve $-1 27.706839749867157 39.997531661201577 14.654844763282867 0 -1 0 I I #
straight-curve $-1 7.0779389832250743 42.087213889990053 14.65484476328286 -1 0 0 I I #
edge $-1 $368 -6.4730228001919343 $504 20.628900766642083 $370 $509 forward 7 unknown #
point $-1 0.60491618303313999 53.373417328022953 4.4927013216048408 #
coedge $-1 $371 $510 $511 $512 reversed $372 $-1 #
face $-1 $513 $372 $17 $-1 $514 reversed single #
coedge $-1 $501 $374 $515 $516 forward $290 $-1 #
coedge $-1 $511 $517 $374 $449 reversed $494 $-1 #
edge $-1 $450 -53.37341732802296 $518 53.37341732802296 $448 $519 forward 7 unknown #
vertex $-1 $375 $520 #
straight-curve $-1 0 53.37341732802296 14.654844763282869 -1 0 0 I I #
face $-1 $521 $522 $18 $-1 $523 reversed single #
loop $-1 $-1 $524 $379 #
plane-surface $-1 0 0 14.654844763282869 0 0 1 1 0 0 forward_v I I I I #
coedge $-1 $525 $526 $524 $527 reversed $380 $-1 #
coedge $-1 $391 $528 $382 $457 reversed $314 $-1 #
edge $-1 $462 91.559749768750862 $529 106.74683465604591 $382 $530 forward 7 unknown #
coedge $-1 $531 $532 $383 $459 forward $533 $-1 #
edge $-1 $463 82.139991802476274 $529 92.3021352441543 $458 $534 forward 7 unknown #
coedge $-1 $535 $384 $532 $536 forward $453 $-1 #
coedge $-1 $384 $524 $391 $468 forward $453 $-1 #
vertex $-1 $468 $537 #
vertex $-1 $536 $538 #
straight-curve $-1 0.60491618303313999 39.997531661201577 14.654844763282867 0 1 0 I I #
vertex $-1 $386 $539 #
point $-1 7.0253008963999406 45.784962365798471 7.4132394318242447 #
coedge $-1 $528 $391 $526 $540 reversed $314 $-1 #
edge $-1 $541 -20.628900766642083 $462 6.4730228001919343 $461 $542 forward 7 unknown #
coedge $-1 $543 $544 $545 $546 reversed $392 $-1 #
coedge $-1 $470 $470 $-1 $547 forward $394 $-1 #
edge $-1 $548 0 $548 6.2831853071796004 $395 $549 forward 7 unknown #
vertex $-1 $398 $550 #
ellipse-curve $-1 6.0253008963999406 47.730315609006503 9.5737730424438521 0 -0.66913061440640931 -0.74314481823134659 1 0 0 1 I I #
vertex $-1 $399 $551 #
point $-1 15.155877966450149 45.784962365798471 7.4132394318242447 #
coedge $-1 $552 $553 $554 $555 reversed $404 $-1 #
face $-1 $556 $557 $19 $-1 $558 reversed single #
loop $-1 $-1 $559 $405 #
plane-surface $-1 0 0 14.654844763282869 0 0 1 1 0 0 forward_v I I I I #
coedge $-1 $560 $561 $559 $562 reversed $406 $-1 #
vertex $-1 $483 $563 #
straight-curve $-1 -79.169896542252872 -53.37341732802296 0 0 0 -1 I I #
edge $-1 $481 -53.37341732802296 $424 53.37341732802296 $423 $564 forward 7 unknown #
straight-curve $-1 0 -53.37341732802296 -14.654844763282869 -1 0 0 I I #
straight-curve $-1 0 53.37341732802296 -14.654844763282869 1 0 0 I I #
edge $-1 $422 -14.654844763282869 $416 14.654844763282869 $413 $565 forward 7 unknown #
edge $-1 $428 -14.654844763282869 $417 14.654844763282869 $414 $566 forward 7 unknown #
point $-1 79.169896542252872 53.37341732802296 -14.654844763282869 #
point $-1 79.169896542252872 -53.37341732802296 -14.654844763282869 #
straight-curve $-1 79.169896542252872 0 14.654844763282869 0 1 0 I I #
point $-1 79.169896542252872 53.37341732802296 14.654844763282869 #
point $-1 -79.169896542252872 53.37341732802296 -14.654844763282869 #
point $-1 79.169896542252872 -53.37341732802296 14.654844763282869 #
loop $-1 $-1 $511 $431 #
plane-surface $-1 -79.169896542252872 0 0 1 0 0 0 0 -1 forward_v I I I I #
coedge $-1 $567 $515 $517 $568 forward $432 $-1 #
coedge $-1 $569 $434 $567 $570 forward $359 $-1 #
coedge $-1 $434 $569 $510 $571 forward $359 $-1 #
coedge $-1 $572 $573 $434 $500 reversed $574 $-1 #
edge $-1 $575 -53.37341732802296 $576 53.37341732802296 $499 $577 forward 7 unknown #
coedge $-1 $435 $447 $578 $579 forward $290 $-1 #
coedge $-1 $580 $436 $435 $503 reversed $372 $-1 #
edge $-1 $581 -79.169896542252872 $439 -27.706839749867157 $502 $451 forward 7 unknown #
vertex $-1 $443 $582 #
straight-curve $-1 27.706839749867157 53.37341732802296 96.794836565759141 0 0 1 I I #
straight-curve $-1 27.706839749867157 -25.954939709215893 75.92027638094423 0 -0.74314481823134659 0.66913061440640931 I I #
point $-1 27.706839749867157 53.37341732802296 14.654844763282869 #
point $-1 27.706839749867157 42.087213889990053 14.654844763282867 #
straight-curve $-1 7.0779389832250743 53.37341732802296 4.4927013216048479 1 0 0 I I #
coedge $-1 $445 $580 $498 $571 reversed $372 $-1 #
coedge $-1 $583 $448 $445 $512 forward $494 $-1 #
edge $-1 $450 -14.654844763282869 $584 14.654844763282869 $445 $585 forward 7 unknown #
face $-1 $-1 $574 $17 $-1 $586 reversed single #
plane-surface $-1 0 53.37341732802296 0 0 -1 0 0 0 -1 forward_v I I I I #
coedge $-1 $496 $587 $447 $516 reversed $432 $-1 #
edge $-1 $518 -79.169896542252872 $588 79.169896542252872 $515 $589 forward 7 unknown #
coedge $-1 $448 $583 $496 $568 reversed $494 $-1 #
vertex $-1 $449 $590 #
straight-curve $-1 -79.169896542252872 0 14.654844763282869 0 -1 0 I I #
point $-1 -79.169896542252872 53.37341732802296 14.654844763282869 #
face $-1 $591 $592 $18 $-1 $593 reversed single #
loop $-1 $-1 $594 $452 #
plane-surface $-1 0 0 -14.654844763282869 0 0 1 1 0 0 forward_v I I I I #
coedge $-1 $461 $595 $455 $527 forward $453 $-1 #
coedge $-1 $526 $455 $596 $597 reversed $380 $-1 #
coedge $-1 $455 $525 $467 $540 forward $380 $-1 #
edge $-1 $598 -13.375885666821382 $541 -2.089682228788476 $524 $599 forward 7 unknown #
coedge $-1 $456 $467 $531 $600 reversed $314 $-1 #
vertex $-1 $600 $601 #
straight-curve $-1 0.60491618303313999 -25.954939709215893 75.92027638094423 0 0.74314481823134659 -0.66913061440640931 I I #
coedge $-1 $596 $458 $528 $600 forward $533 $-1 #
coedge $-1 $458 $602 $460 $536 reversed $533 $-1 #
loop $-1 $-1 $596 $603 #
straight-curve $-1 0.60491618303313999 53.37341732802296 96.794836565759141 0 0 -1 I I #
coedge $-1 $604 $460 $605 $606 forward $453 $-1 #
edge $-1 $463 -0.60491618303313999 $607 79.169896542252872 $532 $608 forward 7 unknown #
point $-1 0.60491618303313999 42.087213889990053 14.654844763282867 #
point $-1 0.60491618303313999 53.37341732802296 14.654844763282869 #
point $-1 6.0253008963999406 45.115831751392058 6.670094613592898 #
edge $-1 $609 -106.74683465604591 $541 -91.559749768750862 $526 $610 forward 7 unknown #
vertex $-1 $468 $611 #
straight-curve $-1 7.0779389832250743 42.087213889990053 14.65484476328286 -1 0 0 I I #
coedge $-1 $544 $469 $553 $612 forward $392 $-1 #
coedge $-1 $469 $543 $613 $614 reversed $392 $-1 #
coedge $-1 $615 $554 $469 $546 forward $478 $-1 #
edge $-1 $616 2.089682228788476 $617 13.375885666821382 $545 $618 forward 7 unknown #
edge $-1 $619 1 $619 0 $470 $-1 forward 7 unknown #
vertex $-1 $471 $620 #
ellipse-curve $-1 6.0253008963999406 45.784962365798471 7.4132394318242447 0 0.66913061440640931 0.74314481823134659 1 0 0 1 I I #
point $-1 7.0253008963999406 47.73031560900651 9.5737730424438556 #
point $-1 14.155877966450149 45.115831751392058 6.670094613592898 #
coedge $-1 $621 $476 $561 $622 reversed $404 $-1 #
coedge $-1 $476 $621 $543 $612 reversed $404 $-1 #
coedge $-1 $545 $559 $476 $555 forward $478 $-1 #
edge $-1 $623 -20.628900766642083 $616 6.4730228001919343 $554 $624 forward 7 unknown #
face $-1 $625 $626 $19 $-1 $627 reversed single #
loop $-1 $-1 $628 $477 #
plane-surface $-1 0 0 -14.654844763282869 0 0 1 1 0 0 forward_v I I I I #
coedge $-1 $554 $629 $480 $562 forward $478 $-1 #
coedge $-1 $561 $480 $630 $631 reversed $406 $-1 #
coedge $-1 $480 $560 $552 $622 forward $406 $-1 #
edge $-1 $632 -13.375885666821382 $623 -2.089682228788476 $559 $633 forward 7 unknown #
point $-1 -79.169896542252872 -53.37341732802296 -14.654844763282869 #
straight-curve $-1 -79.169896542252872 0 -14.654844763282869 0 1 0 I I #
straight-curve $-1 79.169896542252872 53.37341732802296 0 0 0 -1 I I #
straight-curve $-1 79.169896542252872 -53.37341732802296 0 0 0 -1 I I #
coedge $-1 $587 $496 $497 $570 reversed $432 $-1 #
edge $-1 $518 -14.654844763282869 $634 14.654844763282869 $517 $635 forward 7 unknown #
coedge $-1 $498 $497 $583 $636 forward $359 $-1 #
edge $-1 $576 -79.169896542252872 $634 79.169896542252872 $567 $637 forward 7 unknown #
edge $-1 $584 -79.169896542252872 $575 79.169896542252872 $510 $638 forward 7 unknown #
coedge $-1 $578 $499 $580 $639 reversed $574 $-1 #
coedge $-1 $499 $578 $587 $640 forward $574 $-1 #
loop $-1 $-1 $573 $513 #
vertex $-1 $500 $641 #
vertex $-1 $640 $642 #
straight-curve $-1 79.169896542252872 0 -14.654844763282869 0 -1 0 I I #
coedge $-1 $573 $572 $501 $579 reversed $574 $-1 #
edge $-1 $588 -53.37341732802296 $581 53.37341732802296 $578 $643 forward 7 unknown #
coedge $-1 $510 $502 $572 $639 forward $372 $-1 #
vertex $-1 $579 $644 #
point $-1 27.706839749867157 53.373417328022953 4.4927013216048408 #
coedge $-1 $517 $511 $569 $636 reversed $494 $-1 #
vertex $-1 $571 $645 #
straight-curve $-1 -79.169896542252872 53.37341732802296 0 0 0 -1 I I #
plane-surface $-1 79.169896542252872 0 0 -1 0 0 0 0 1 forward_v I I I I #
coedge $-1 $515 $567 $573 $640 reversed $432 $-1 #
vertex $-1 $579 $646 #
straight-curve $-1 0 -53.37341732802296 14.654844763282869 1 0 0 I I #
point $-1 -79.169896542252872 -53.37341732802296 14.654844763282869 #
face $-1 $603 $647 $18 $-1 $648 reversed single #
loop $-1 $-1 $649 $521 #
plane-surface $-1 0 -53.37341732802296 0 0 1 0 0 0 1 forward_v I I I I #
coedge $-1 $650 $651 $652 $653 forward $522 $-1 #
coedge $-1 $524 $654 $655 $656 forward $453 $-1 #
coedge $-1 $655 $531 $525 $597 forward $533 $-1 #
edge $-1 $609 -92.3021352441543 $598 -82.139991802476274 $596 $657 forward 7 unknown #
vertex $-1 $597 $658 #
straight-curve $-1 27.706839749867157 39.997531661201577 14.654844763282867 0 -1 0 I I #
edge $-1 $529 -6.4730228001919343 $609 20.628900766642083 $531 $659 forward 7 unknown #
point $-1 0.60491618303313999 53.373417328022953 4.4927013216048408 #
coedge $-1 $532 $660 $661 $662 reversed $533 $-1 #
face $-1 $663 $533 $18 $-1 $664 reversed single #
coedge $-1 $654 $535 $665 $666 forward $453 $-1 #
coedge $-1 $661 $667 $535 $606 reversed $647 $-1 #
edge $-1 $607 -53.37341732802296 $668 53.37341732802296 $605 $669 forward 7 unknown #
vertex $-1 $536 $670 #
straight-curve $-1 0 53.37341732802296 14.654844763282869 -1 0 0 I I #
vertex $-1 $600 $671 #
straight-curve $-1 27.706839749867157 -25.954939709215893 75.92027638094423 0 -0.74314481823134659 0.66913061440640931 I I #
point $-1 27.706839749867157 42.087213889990053 14.654844763282867 #
edge $-1 $616 91.559749768750862 $672 106.74683465604591 $543 $673 forward 7 unknown #
coedge $-1 $674 $675 $544 $614 forward $676 $-1 #
edge $-1 $617 82.139991802476274 $672 92.3021352441543 $613 $677 forward 7 unknown #
coedge $-1 $678 $545 $675 $679 forward $478 $-1 #
vertex $-1 $555 $680 #
vertex $-1 $679 $681 #
straight-curve $-1 0.60491618303313999 39.997531661201577 14.654844763282867 0 1 0 I I #
vertex $-1 $547 $682 #
point $-1 7.0253008963999406 45.784962365798471 7.4132394318242447 #
coedge $-1 $553 $552 $674 $683 reversed $404 $-1 #
edge $-1 $684 -106.74683465604591 $623 -91.559749768750862 $561 $685 forward 7 unknown #
vertex $-1 $555 $686 #
straight-curve $-1 7.0779389832250743 42.087213889990053 14.65484476328286 -1 0 0 I I #
face $-1 $687 $688 $19 $-1 $689 reversed single #
loop $-1 $-1 $690 $556 #
plane-surface $-1 0 -53.37341732802296 0 0 1 0 0 0 1 forward_v I I I I #
coedge $-1 $691 $692 $693 $694 forward $557 $-1 #
coedge $-1 $559 $695 $696 $697 forward $478 $-1 #
coedge $-1 $696 $674 $560 $631 forward $676 $-1 #
edge $-1 $684 -92.3021352441543 $632 -82.139991802476274 $630 $698 forward 7 unknown #
vertex $-1 $631 $699 #
straight-curve $-1 27.706839749867157 39.997531661201577 14.654844763282867 0 -1 0 I I #
vertex $-1 $636 $700 #
straight-curve $-1 -79.169896542252872 -53.37341732802296 0 0 0 -1 I I #
edge $-1 $634 -53.37341732802296 $584 53.37341732802296 $583 $701 forward 7 unknown #
straight-curve $-1 0 -53.37341732802296 -14.654844763282869 -1 0 0 I I #
straight-curve $-1 0 53.37341732802296 -14.654844763282869 1 0 0 I I #
edge $-1 $581 -14.654844763282869 $575 14.654844763282869 $572 $702 forward 7 unknown #
edge $-1 $588 -14.654844763282869 $576 14.654844763282869 $573 $703 forward 7 unknown #
point $-1 79.169896542252872 53.37341732802296 -14.654844763282869 #
point $-1 79.169896542252872 -53.37341732802296 -14.654844763282869 #
straight-curve $-1 79.169896542252872 0 14.654844763282869 0 1 0 I I #
point $-1 79.169896542252872 53.37341732802296 14.654844763282869 #
point $-1 -79.169896542252872 53.37341732802296 -14.654844763282869 #
point $-1 79.169896542252872 -53.37341732802296 14.654844763282869 #
loop $-1 $-1 $661 $591 #
plane-surface $-1 -79.169896542252872 0 0 1 0 0 0 0 -1 forward_v I I I I #
coedge $-1 $704 $665 $667 $705 forward $592 $-1 #
coedge $-1 $706 $594 $704 $707 forward $522 $-1 #
coedge $-1 $594 $706 $660 $708 forward $522 $-1 #
coedge $-1 $709 $710 $594 $653 reversed $711 $-1 #
edge $-1 $712 -53.37341732802296 $713 53.37341732802296 $652 $714 forward 7 unknown #
coedge $-1 $595 $604 $715 $716 forward $453 $-1 #
coedge $-1 $717 $596 $595 $656 reversed $533 $-1 #
edge $-1 $718 -79.169896542252872 $598 -27.706839749867157 $655 $608 forward 7 unknown #
straight-curve $-1 27.706839749867157 53.37341732802296 96.794836565759141 0 0 1 I I #
point $-1 27.706839749867157 53.37341732802296 14.654844763282869 #
straight-curve $-1 7.0779389832250743 53.37341732802296 4.4927013216048479 1 0 0 I I #
coedge $-1 $602 $717 $651 $708 reversed $533 $-1 #
coedge $-1 $719 $605 $602 $662 forward $647 $-1 #
edge $-1 $607 -14.654844763282869 $720 14.654844763282869 $602 $721 forward 7 unknown #
face $-1 $-1 $711 $18 $-1 $722 reversed single #
plane-surface $-1 0 53.37341732802296 0 0 -1 0 0 0 -1 forward_v I I I I #
coedge $-1 $649 $723 $604 $666 reversed $592 $-1 #
edge $-1 $668 -79.169896542252872 $724 79.169896542252872 $665 $725 forward 7 unknown #
coedge $-1 $605 $719 $649 $705 reversed $647 $-1 #
vertex $-1 $606 $726 #
straight-curve $-1 -79.169896542252872 0 14.654844763282869 0 -1 0 I I #
point $-1 -79.169896542252872 53.37341732802296 14.654844763282869 #
point $-1 27.706839749867157 53.373417328022953 4.4927013216048408 #
vertex $-1 $683 $727 #
straight-curve $-1 0.60491618303313999 -25.954939709215893 75.92027638094423 0 0.74314481823134659 -0.66913061440640931 I I #
coedge $-1 $630 $613 $621 $683 forward $676 $-1 #
coedge $-1 $613 $728 $615 $679 reversed $676 $-1 #
loop $-1 $-1 $630 $687 #
straight-curve $-1 0.60491618303313999 53.37341732802296 96.794836565759141 0 0 -1 I I #
coedge $-1 $729 $615 $730 $731 forward $478 $-1 #
edge $-1 $617 -0.60491618303313999 $732 79.169896542252872 $675 $733 forward 7 unknown #
point $-1 0.60491618303313999 42.087213889990053 14.654844763282867 #
point $-1 0.60491618303313999 53.37341732802296 14.654844763282869 #
point $-1 6.0253008963999406 45.115831751392058 6.670094613592898 #
edge $-1 $672 -6.4730228001919343 $684 20.628900766642083 $674 $734 forward 7 unknown #
vertex $-1 $683 $735 #
straight-curve $-1 27.706839749867157 -25.954939709215893 75.92027638094423 0 -0.74314481823134659 0.66913061440640931 I I #
point $-1 27.706839749867157 42.087213889990053 14.654844763282867 #
face $-1 $736 $676 $19 $-1 $737 reversed single #
loop $-1 $-1 $738 $625 #
plane-surface $-1 -79.169896542252872 0 0 1 0 0 0 0 -1 forward_v I I I I #
coedge $-1 $739 $740 $741 $742 forward $626 $-1 #
coedge $-1 $743 $628 $739 $744 forward $557 $-1 #
coedge $-1 $628 $743 $745 $746 forward $557 $-1 #
coedge $-1 $747 $748 $628 $694 reversed $749 $-1 #
edge $-1 $750 -53.37341732802296 $751 53.37341732802296 $693 $752 forward 7 unknown #
coedge $-1 $629 $729 $753 $754 forward $478 $-1 #
coedge $-1 $755 $630 $629 $697 reversed $676 $-1 #
edge $-1 $756 -79.169896542252872 $632 -27.706839749867157 $696 $733 forward 7 unknown #
straight-curve $-1 27.706839749867157 53.37341732802296 96.794836565759141 0 0 1 I I #
point $-1 27.706839749867157 53.37341732802296 14.654844763282869 #
point $-1 -79.169896542252872 -53.37341732802296 -14.654844763282869 #
straight-curve $-1 -79.169896542252872 0 -14.654844763282869 0 1 0 I I #
straight-curve $-1 79.169896542252872 53.37341732802296 0 0 0 -1 I I #
straight-curve $-1 79.169896542252872 -53.37341732802296 0 0 0 -1 I I #
coedge $-1 $723 $649 $650 $707 reversed $592 $-1 #
edge $-1 $668 -14.654844763282869 $757 14.654844763282869 $667 $758 forward 7 unknown #
coedge $-1 $651 $650 $719 $759 forward $522 $-1 #
edge $-1 $713 -79.169896542252872 $757 79.169896542252872 $704 $760 forward 7 unknown #
edge $-1 $720 -79.169896542252872 $712 79.169896542252872 $660 $761 forward 7 unknown #
coedge $-1 $715 $652 $717 $762 reversed $711 $-1 #
coedge $-1 $652 $715 $723 $763 forward $711 $-1 #
loop $-1 $-1 $710 $663 #
vertex $-1 $653 $764 #
vertex $-1 $763 $765 #
straight-curve $-1 79.169896542252872 0 -14.654844763282869 0 -1 0 I I #
coedge $-1 $710 $709 $654 $716 reversed $711 $-1 #
edge $-1 $724 -53.37341732802296 $718 53.37341732802296 $715 $766 forward 7 unknown #
coedge $-1 $660 $655 $709 $762 forward $533 $-1 #
vertex $-1 $716 $767 #
coedge $-1 $667 $661 $706 $759 reversed $647 $-1 #
vertex $-1 $708 $768 #
straight-curve $-1 -79.169896542252872 53.37341732802296 0 0 0 -1 I I #
plane-surface $-1 79.169896542252872 0 0 -1 0 0 0 0 1 forward_v I I I I #
coedge $-1 $665 $704 $710 $763 reversed $592 $-1 #
vertex $-1 $716 $769 #
straight-curve $-1 0 -53.37341732802296 14.654844763282869 1 0 0 I I #
point $-1 -79.169896542252872 -53.37341732802296 14.654844763282869 #
point $-1 0.60491618303313999 53.373417328022953 4.4927013216048408 #
coedge $-1 $675 $745 $738 $770 reversed $676 $-1 #
coedge $-1 $695 $678 $740 $771 forward $478 $-1 #
coedge $-1 $738 $741 $678 $731 reversed $688 $-1 #
edge $-1 $732 -53.37341732802296 $772 53.37341732802296 $730 $773 forward 7 unknown #
vertex $-1 $679 $774 #
straight-curve $-1 0 53.37341732802296 14.654844763282869 -1 0 0 I I #
straight-curve $-1 7.0779389832250743 53.37341732802296 4.4927013216048479 1 0 0 I I #
point $-1 27.706839749867157 53.373417328022953 4.4927013216048408 #
face $-1 $-1 $749 $19 $-1 $775 reversed single #
plane-surface $-1 0 53.37341732802296 0 0 -1 0 0 0 -1 forward_v I I I I #
coedge $-1 $776 $730 $728 $770 forward $688 $-1 #
coedge $-1 $777 $690 $691 $744 reversed $626 $-1 #
coedge $-1 $690 $777 $729 $771 reversed $626 $-1 #
coedge $-1 $730 $776 $690 $742 reversed $688 $-1 #
edge $-1 $772 -14.654844763282869 $778 14.654844763282869 $741 $779 forward 7 unknown #
coedge $-1 $692 $691 $776 $780 forward $557 $-1 #
edge $-1 $751 -79.169896542252872 $778 79.169896542252872 $739 $781 forward 7 unknown #
coedge $-1 $728 $755 $692 $746 reversed $676 $-1 #
edge $-1 $782 -79.169896542252872 $750 79.169896542252872 $745 $783 forward 7 unknown #
coedge $-1 $753 $693 $755 $784 reversed $749 $-1 #
coedge $-1 $693 $753 $777 $785 forward $749 $-1 #
loop $-1 $-1 $748 $736 #
vertex $-1 $694 $786 #
vertex $-1 $785 $787 #
straight-curve $-1 79.169896542252872 0 -14.654844763282869 0 -1 0 I I #
coedge $-1 $748 $747 $695 $754 reversed $749 $-1 #
edge $-1 $788 -53.37341732802296 $756 53.37341732802296 $753 $789 forward 7 unknown #
coedge $-1 $745 $696 $747 $784 forward $676 $-1 #
vertex $-1 $754 $790 #
vertex $-1 $759 $791 #
straight-curve $-1 -79.169896542252872 -53.37341732802296 0 0 0 -1 I I #
edge $-1 $757 -53.37341732802296 $720 53.37341732802296 $719 $792 forward 7 unknown #
straight-curve $-1 0 -53.37341732802296 -14.654844763282869 -1 0 0 I I #
straight-curve $-1 0 53.37341732802296 -14.654844763282869 1 0 0 I I #
edge $-1 $718 -14.654844763282869 $712 14.654844763282869 $709 $793 forward 7 unknown #
edge $-1 $724 -14.654844763282869 $713 14.654844763282869 $710 $794 forward 7 unknown #
point $-1 79.169896542252872 53.37341732802296 -14.654844763282869 #
point $-1 79.169896542252872 -53.37341732802296 -14.654844763282869 #
straight-curve $-1 79.169896542252872 0 14.654844763282869 0 1 0 I I #
point $-1 79.169896542252872 53.37341732802296 14.654844763282869 #
point $-1 -79.169896542252872 53.37341732802296 -14.654844763282869 #
point $-1 79.169896542252872 -53.37341732802296 14.654844763282869 #
edge $-1 $732 -14.654844763282869 $782 14.654844763282869 $728 $795 forward 7 unknown #
edge $-1 $772 -79.169896542252872 $788 79.169896542252872 $740 $796 forward 7 unknown #
vertex $-1 $731 $797 #
straight-curve $-1 -79.169896542252872 0 14.654844763282869 0 -1 0 I I #
point $-1 -79.169896542252872 53.37341732802296 14.654844763282869 #
plane-surface $-1 79.169896542252872 0 0 -1 0 0 0 0 1 forward_v I I I I #
coedge $-1 $741 $738 $743 $780 reversed $688 $-1 #
coedge $-1 $740 $739 $748 $785 reversed $626 $-1 #
vertex $-1 $780 $798 #
straight-curve $-1 -79.169896542252872 -53.37341732802296 0 0 0 -1 I I #
edge $-1 $778 -53.37341732802296 $782 53.37341732802296 $776 $799 forward 7 unknown #
straight-curve $-1 0 -53.37341732802296 -14.654844763282869 -1 0 0 I I #
vertex $-1 $746 $800 #
straight-curve $-1 0 53.37341732802296 -14.654844763282869 1 0 0 I I #
edge $-1 $756 -14.654844763282869 $750 14.654844763282869 $747 $801 forward 7 unknown #
edge $-1 $788 -14.654844763282869 $751 14.654844763282869 $748 $802 forward 7 unknown #
point $-1 79.169896542252872 53.37341732802296 -14.654844763282869 #
point $-1 79.169896542252872 -53.37341732802296 -14.654844763282869 #
vertex $-1 $754 $803 #
straight-curve $-1 79.169896542252872 0 14.654844763282869 0 1 0 I I #
point $-1 79.169896542252872 53.37341732802296 14.654844763282869 #
point $-1 -79.169896542252872 -53.37341732802296 -14.654844763282869 #
straight-curve $-1 -79.169896542252872 0 -14.654844763282869 0 1 0 I I #
straight-curve $-1 79.169896542252872 53.37341732802296 0 0 0 -1 I I #
straight-curve $-1 79.169896542252872 -53.37341732802296 0 0 0 -1 I I #
straight-curve $-1 -79.169896542252872 53.37341732802296 0 0 0 -1 I I #
straight-curve $-1 0 -53.37341732802296 14.654844763282869 1 0 0 I I #
point $-1 -79.169896542252872 -53.37341732802296 14.654844763282869 #
point $-1 -79.169896542252872 -53.37341732802296 -14.654844763282869 #
straight-curve $-1 -79.169896542252872 0 -14.654844763282869 0 1 0 I I #
point $-1 -79.169896542252872 53.37341732802296 -14.654844763282869 #
straight-curve $-1 79.169896542252872 53.37341732802296 0 0 0 -1 I I #
straight-curve $-1 79.169896542252872 -53.37341732802296 0 0 0 -1 I I #
point $-1 79.169896542252872 -53.37341732802296 14.654844763282869 #
End-of-ACIS-data 