500 0 8 0           
7 Unknown 11 ACIS 5.0 NT 24 Thu Mar 25 23:53:40 1999 
-1 9.9999999999999995e-007 1e-010 
body $-1 $8 $-1 $9 #
body $-1 $10 $-1 $11 #
body $-1 $12 $-1 $13 #
body $-1 $14 $-1 $15 #
body $-1 $16 $-1 $17 #
body $-1 $18 $-1 $19 #
body $-1 $20 $-1 $21 #
body $-1 $22 $-1 $23 #
lump $-1 $-1 $24 $0 #
transform $-1 1 0 0 0 1 0 0 0 1 67.156590472121337 27.455357095997115 11.268787256946185 1 rotate no_reflect no_shear #
lump $-1 $-1 $25 $1 #
transform $-1 1 0 0 0 1 0 0 0 1 67.156590472121337 27.455357095997115 11.268787256946185 1 rotate no_reflect no_shear #
lump $-1 $-1 $26 $2 #
transform $-1 1 0 0 0 1 0 0 0 1 67.156590472121337 27.455357095997115 11.268787256946185 1 rotate no_reflect no_shear #
lump $-1 $-1 $27 $3 #
transform $-1 1 0 0 0 1 0 0 0 1 67.156590472121337 27.455357095997115 11.268787256946185 1 rotate no_reflect no_shear #
lump $-1 $-1 $28 $4 #
transform $-1 1 0 0 0 1 0 0 0 1 67.156590472121337 27.455357095997115 11.268787256946185 1 rotate no_reflect no_shear #
lump $-1 $-1 $29 $5 #
transform $-1 1 0 0 0 1 0 0 0 1 67.156590472121337 27.455357095997115 11.268787256946185 1 rotate no_reflect no_shear #
lump $-1 $-1 $30 $6 #
transform $-1 1 0 0 0 1 0 0 0 1 67.156590472121337 27.455357095997115 11.268787256946185 1 rotate no_reflect no_shear #
lump $-1 $-1 $31 $7 #
transform $-1 1 0 0 0 1 0 0 0 1 67.156590472121337 27.455357095997115 11.268787256946185 1 rotate no_reflect no_shear #
shell $-1 $-1 $-1 $32 $-1 $8 #
shell $-1 $-1 $-1 $33 $-1 $10 #
shell $-1 $-1 $-1 $34 $-1 $12 #
shell $-1 $-1 $-1 $35 $-1 $14 #
shell $-1 $-1 $-1 $36 $-1 $16 #
shell $-1 $-1 $-1 $37 $-1 $18 #
shell $-1 $-1 $-1 $38 $-1 $20 #
shell $-1 $-1 $-1 $39 $-1 $22 #
face $-1 $40 $41 $24 $-1 $42 forward single #
face $-1 $43 $44 $25 $-1 $45 forward single #
face $-1 $46 $47 $26 $-1 $48 reversed single #
face $-1 $49 $50 $27 $-1 $51 forward single #
face $-1 $52 $53 $28 $-1 $54 forward single #
face $-1 $55 $56 $29 $-1 $57 reversed single #
face $-1 $58 $59 $30 $-1 $60 forward single #
face $-1 $61 $62 $31 $-1 $63 forward single #
face $-1 $64 $65 $24 $-1 $66 reversed single #
loop $-1 $-1 $67 $32 #
plane-surface $-1 0 0 11.268787256946185 0 0 1 1 0 0 forward_v I I I I #
face $-1 $68 $69 $25 $-1 $70 reversed single #
loop $-1 $-1 $71 $33 #
plane-surface $-1 0 -27.455357095997115 0 0 1 0 0 0 1 forward_v I I I I #
face $-1 $72 $73 $26 $-1 $74 reversed single #
loop $-1 $-1 $75 $34 #
plane-surface $-1 -146.10389842823949 15.068693675920372 115.93818809981262 0 1 0 -0.5877852598018023 0 0.80901698891910034 forward_v I I I I #
face $-1 $76 $77 $27 $-1 $78 forward single #
loop $-1 $79 $80 $35 #
cone-surface $-1 -63.500296121158378 18.607740367370873 8.0217157288240326 0.5877852598018023 0 -0.80901698891910034 1.2135254833786506 0 0.88167788970270344 1 I I 0 1 1.5 forward I I I I #
face $-1 $81 $82 $28 $-1 $83 forward single #
loop $-1 $84 $85 $36 #
cone-surface $-1 -63.500296121158378 23.916310404546621 8.0217157288240326 0.5877852598018023 0 -0.80901698891910034 1.2135254833786506 0 0.88167788970270344 1 I I 0 1 1.5 forward I I I I #
face $-1 $86 $87 $29 $-1 $88 reversed single #
loop $-1 $-1 $89 $37 #
plane-surface $-1 70.471634082017772 25.40960149663352 192.61647733643517 0 -1 0 -0.71933980857756763 0 -0.69465836192734942 forward_v I I I I #
face $-1 $90 $91 $30 $-1 $92 forward single #
loop $-1 $93 $94 $38 #
cone-surface $-1 62.658508716054023 21.067977316455064 6.6360070507994982 -0.71933980857756763 0 -0.69465836192734942 0.34732918096367471 0 -0.35966990428878381 1 I I 0 1 0.5 forward I I I I #
face $-1 $95 $96 $31 $-1 $97 forward single #
loop $-1 $98 $99 $39 #
cone-surface $-1 62.658508716054023 23.672951824562134 6.6360070507994982 -0.71933980857756763 0 -0.69465836192734942 0.34732918096367471 0 -0.35966990428878381 1 I I 0 1 0.5 forward I I I I #
face $-1 $100 $101 $24 $-1 $102 reversed single #
loop $-1 $-1 $103 $40 #
plane-surface $-1 0 0 -11.268787256946185 0 0 1 1 0 0 forward_v I I I I #
coedge $-1 $104 $105 $106 $107 forward $41 $-1 #
face $-1 $108 $109 $25 $-1 $110 reversed single #
loop $-1 $-1 $111 $43 #
plane-surface $-1 0 0 -11.268787256946185 0 0 1 1 0 0 forward_v I I I I #
coedge $-1 $112 $113 $114 $115 forward $44 $-1 #
face $-1 $116 $117 $26 $-1 $118 reversed single #
loop $-1 $-1 $119 $46 #
plane-surface $-1 -67.156590472121323 21.262025385958744 7.2765428801551195 -0.5877852598018023 0 0.80901698891910034 0.80901698891910034 0 0.5877852598018023 forward_v I I I I #
coedge $-1 $120 $121 $122 $123 reversed $47 $-1 #
face $-1 $-1 $124 $27 $-1 $125 forward single #
loop $-1 $126 $127 $49 #
cone-surface $-1 -62.150589262874817 18.607740367370873 6.1640036474080784 0.5877852598018023 0 -0.80901698891910034 0.60676274168932531 0 0.44083894485135172 1 I I -0.70710678118654757 0.70710678118654757 0.75 forward I I I I #
loop $-1 $-1 $128 $35 #
coedge $-1 $80 $80 $129 $130 reversed $50 $-1 #
face $-1 $-1 $131 $28 $-1 $132 forward single #
loop $-1 $133 $134 $52 #
cone-surface $-1 -62.150589262874817 23.916310404546621 6.1640036474080784 0.5877852598018023 0 -0.80901698891910034 0.60676274168932531 0 0.44083894485135172 1 I I -0.70710678118654757 0.70710678118654757 0.75 forward I I I I #
loop $-1 $-1 $135 $36 #
coedge $-1 $85 $85 $136 $137 reversed $53 $-1 #
face $-1 $138 $139 $29 $-1 $140 reversed single #
loop $-1 $-1 $141 $55 #
plane-surface $-1 -26.14518378785796 22.370464570508602 99.314703076455871 0.71933980857756763 0 0.69465836192734942 0.69465836192734942 0 -0.71933980857756763 forward_v I I I I #
coedge $-1 $142 $143 $144 $145 reversed $56 $-1 #
face $-1 $-1 $146 $30 $-1 $147 forward single #
loop $-1 $148 $149 $58 #
cone-surface $-1 62.119003859620847 21.067977316455064 6.1150132793539864 -0.71933980857756763 0 -0.69465836192734942 0.17366459048183736 0 -0.17983495214439191 1 I I -0.70710678118654746 0.70710678118654746 0.25 forward I I I I #
loop $-1 $-1 $150 $38 #
coedge $-1 $94 $94 $151 $152 reversed $59 $-1 #
face $-1 $-1 $153 $31 $-1 $154 forward single #
loop $-1 $155 $156 $61 #
cone-surface $-1 62.119003859620847 23.672951824562134 6.1150132793539864 -0.71933980857756763 0 -0.69465836192734942 0.17366459048183736 0 -0.17983495214439191 1 I I -0.70710678118654746 0.70710678118654746 0.25 forward I I I I #
loop $-1 $-1 $157 $39 #
coedge $-1 $99 $99 $158 $159 reversed $62 $-1 #
face $-1 $160 $161 $24 $-1 $162 reversed single #
loop $-1 $-1 $163 $64 #
plane-surface $-1 0 -27.455357095997115 0 0 1 0 0 0 1 forward_v I I I I #
coedge $-1 $164 $165 $166 $167 forward $65 $-1 #
coedge $-1 $168 $67 $169 $170 forward $41 $-1 #
coedge $-1 $67 $168 $171 $172 forward $41 $-1 #
coedge $-1 $173 $174 $67 $107 reversed $175 $-1 #
edge $-1 $176 -27.455357095997115 $177 27.455357095997115 $106 $178 forward 7 unknown #
face $-1 $179 $180 $25 $-1 $181 forward single #
loop $-1 $-1 $182 $68 #
plane-surface $-1 67.156590472121337 0 0 -1 0 0 0 0 1 forward_v I I I I #
coedge $-1 $183 $184 $185 $186 forward $69 $-1 #
coedge $-1 $185 $71 $182 $187 reversed $44 $-1 #
coedge $-1 $71 $185 $188 $189 reversed $44 $-1 #
coedge $-1 $190 $191 $71 $115 reversed $180 $-1 #
edge $-1 $192 -67.156590472121337 $193 67.156590472121337 $114 $194 forward 7 unknown #
face $-1 $195 $196 $26 $-1 $197 reversed single #
loop $-1 $-1 $198 $72 #
plane-surface $-1 0 27.455357095997115 0 0 -1 0 0 0 -1 forward_v I I I I #
coedge $-1 $199 $200 $201 $202 reversed $73 $-1 #
coedge $-1 $121 $75 $203 $204 reversed $47 $-1 #
coedge $-1 $75 $120 $199 $205 reversed $47 $-1 #
coedge $-1 $201 $206 $75 $123 forward $207 $-1 #
edge $-1 $208 5.8953587419984075 $209 11.390211617059947 $122 $210 forward 7 unknown #
loop $-1 $-1 $129 $76 #
plane-surface $-1 -67.156590472121323 21.262025385958744 7.2765428801551195 -0.5877852598018023 0 0.80901698891910034 0.80901698891910034 0 0.5877852598018023 forward_v I I I I #
loop $-1 $-1 $211 $49 #
coedge $-1 $127 $127 $128 $212 reversed $77 $-1 #
coedge $-1 $128 $128 $127 $212 forward $79 $-1 #
coedge $-1 $129 $129 $80 $130 forward $124 $-1 #
edge $-1 $213 0 $213 6.2831853071796004 $129 $214 forward 7 unknown #
loop $-1 $-1 $136 $81 #
plane-surface $-1 -67.156590472121323 21.262025385958744 7.2765428801551195 -0.5877852598018023 0 0.80901698891910034 0.80901698891910034 0 0.5877852598018023 forward_v I I I I #
loop $-1 $-1 $215 $52 #
coedge $-1 $134 $134 $135 $216 reversed $82 $-1 #
coedge $-1 $135 $135 $134 $216 forward $84 $-1 #
coedge $-1 $136 $136 $85 $137 forward $131 $-1 #
edge $-1 $217 0 $217 6.2831853071796004 $136 $218 forward 7 unknown #
face $-1 $219 $220 $29 $-1 $221 forward single #
loop $-1 $-1 $222 $86 #
plane-surface $-1 70.471634082017772 19.331327644383684 192.61647733643517 0 1 0 0.71933980857756763 0 0.69465836192734942 forward_v I I I I #
coedge $-1 $223 $224 $225 $226 reversed $87 $-1 #
coedge $-1 $143 $89 $227 $228 reversed $56 $-1 #
coedge $-1 $89 $142 $223 $229 reversed $56 $-1 #
coedge $-1 $225 $230 $89 $145 forward $220 $-1 #
edge $-1 $231 -31.920773431112451 $232 -23.643949727555352 $144 $233 forward 7 unknown #
loop $-1 $-1 $151 $90 #
plane-surface $-1 -26.14518378785796 22.370464570508602 99.314703076455871 0.71933980857756763 0 0.69465836192734942 0.69465836192734942 0 -0.71933980857756763 forward_v I I I I #
loop $-1 $-1 $234 $58 #
coedge $-1 $149 $149 $150 $235 reversed $91 $-1 #
coedge $-1 $150 $150 $149 $235 forward $93 $-1 #
coedge $-1 $151 $151 $94 $152 forward $146 $-1 #
edge $-1 $236 0 $236 6.2831853071796004 $151 $237 forward 7 unknown #
loop $-1 $-1 $158 $95 #
plane-surface $-1 -26.14518378785796 22.370464570508602 99.314703076455871 0.71933980857756763 0 0.69465836192734942 0.69465836192734942 0 -0.71933980857756763 forward_v I I I I #
loop $-1 $-1 $238 $61 #
coedge $-1 $156 $156 $157 $239 reversed $96 $-1 #
coedge $-1 $157 $157 $156 $239 forward $98 $-1 #
coedge $-1 $158 $158 $99 $159 forward $153 $-1 #
edge $-1 $240 0 $240 6.2831853071796004 $158 $241 forward 7 unknown #
face $-1 $242 $243 $24 $-1 $244 reversed single #
loop $-1 $-1 $245 $100 #
plane-surface $-1 -67.156590472121337 0 0 1 0 0 0 0 -1 forward_v I I I I #
coedge $-1 $246 $171 $247 $248 forward $101 $-1 #
coedge $-1 $249 $103 $246 $250 forward $65 $-1 #
coedge $-1 $103 $249 $251 $252 forward $65 $-1 #
coedge $-1 $174 $173 $103 $167 reversed $175 $-1 #
edge $-1 $253 -27.455357095997115 $254 27.455357095997115 $166 $255 forward 7 unknown #
coedge $-1 $105 $104 $256 $257 forward $41 $-1 #
coedge $-1 $258 $259 $104 $170 reversed $243 $-1 #
edge $-1 $177 -67.156590472121337 $260 67.156590472121337 $169 $261 forward 7 unknown #
coedge $-1 $163 $262 $105 $172 reversed $101 $-1 #
edge $-1 $263 -67.156590472121337 $176 67.156590472121337 $171 $264 forward 7 unknown #
coedge $-1 $166 $106 $262 $265 forward $175 $-1 #
coedge $-1 $106 $166 $258 $266 reversed $175 $-1 #
loop $-1 $-1 $173 $242 #
vertex $-1 $107 $267 #
vertex $-1 $107 $268 #
straight-curve $-1 67.156590472121337 0 11.268787256946185 0 1 0 I I #
face $-1 $269 $270 $25 $-1 $271 reversed single #
loop $-1 $-1 $191 $108 #
plane-surface $-1 0 -33.921856794091759 -5.5968734194294552 0 0 1 1 0 0 forward_v I I I I #
coedge $-1 $272 $273 $112 $187 forward $109 $-1 #
coedge $-1 $274 $111 $273 $275 forward $69 $-1 #
coedge $-1 $111 $274 $276 $277 forward $69 $-1 #
coedge $-1 $113 $112 $111 $186 reversed $44 $-1 #
edge $-1 $278 -67.156590472121337 $279 67.156590472121337 $111 $280 forward 7 unknown #
edge $-1 $279 -11.268787256946185 $193 -5.5968734194294552 $182 $281 forward 7 unknown #
coedge $-1 $276 $282 $113 $189 forward $283 $-1 #
edge $-1 $192 5.5968734194294552 $278 11.268787256946185 $188 $284 forward 7 unknown #
coedge $-1 $285 $114 $282 $286 forward $180 $-1 #
coedge $-1 $114 $285 $272 $287 forward $180 $-1 #
vertex $-1 $189 $288 #
vertex $-1 $287 $289 #
straight-curve $-1 0 -27.455357095997115 -5.5968734194294552 1 0 0 I I #
face $-1 $-1 $207 $26 $-1 $290 forward single #
loop $-1 $-1 $291 $116 #
plane-surface $-1 -67.156590472121337 0 0 1 0 0 0 0 -1 forward_v I I I I #
coedge $-1 $292 $293 $200 $294 forward $117 $-1 #
coedge $-1 $295 $119 $121 $205 forward $73 $-1 #
coedge $-1 $119 $295 $198 $294 reversed $73 $-1 #
coedge $-1 $296 $122 $119 $202 forward $207 $-1 #
edge $-1 $209 4.437680982941 $297 16.824344403017744 $201 $298 forward 7 unknown #
coedge $-1 $299 $291 $120 $204 forward $196 $-1 #
edge $-1 $300 -50.692551169751198 $208 -46.700306792960127 $203 $301 forward 7 unknown #
edge $-1 $209 -6.7920117257401582 $300 1.7761521089745031e-014 $121 $302 forward 7 unknown #
coedge $-1 $122 $296 $299 $303 forward $207 $-1 #
loop $-1 $-1 $201 $195 #
vertex $-1 $204 $304 #
vertex $-1 $123 $305 #
straight-curve $-1 -73.051949214119745 15.068693675920372 11.268787256946183 1 0 0 I I #
coedge $-1 $211 $211 $-1 $306 reversed $126 $-1 #
edge $-1 $307 0 $307 6.2831853071796004 $127 $308 forward 7 unknown #
vertex $-1 $130 $309 #
ellipse-curve $-1 -64.409164034590574 18.607740367370873 9.2726650685506442 -0.5877852598018023 0 0.80901698891910034 1.2135254833786506 0 0.88167788970270344 1 I I #
coedge $-1 $215 $215 $-1 $310 reversed $133 $-1 #
edge $-1 $311 0 $311 6.2831853071796004 $134 $312 forward 7 unknown #
vertex $-1 $137 $313 #
ellipse-curve $-1 -64.409164034590574 23.916310404546621 9.2726650685506442 -0.5877852598018023 0 0.80901698891910034 1.2135254833786506 0 0.88167788970270344 1 I I #
face $-1 $-1 $314 $29 $-1 $315 reversed single #
loop $-1 $-1 $144 $138 #
plane-surface $-1 0 0 11.268787256946185 0 0 1 1 0 0 forward_v I I I I #
coedge $-1 $316 $317 $318 $319 reversed $139 $-1 #
coedge $-1 $320 $141 $143 $229 forward $87 $-1 #
coedge $-1 $141 $320 $316 $321 forward $87 $-1 #
coedge $-1 $318 $144 $141 $226 forward $220 $-1 #
edge $-1 $232 -14.224369211379219 $322 -8.146095359129383 $225 $323 forward 7 unknown #
coedge $-1 $324 $325 $142 $228 forward $314 $-1 #
edge $-1 $326 -93.610353461637445 $231 -85.039451411271401 $227 $327 forward 7 unknown #
edge $-1 $232 122.39822510812085 $326 134.31318094424267 $143 $328 forward 7 unknown #
coedge $-1 $144 $318 $324 $329 forward $220 $-1 #
vertex $-1 $228 $330 #
vertex $-1 $145 $331 #
straight-curve $-1 35.235817041008886 25.40960149663352 11.268787256946183 -1 0 0 I I #
coedge $-1 $234 $234 $-1 $332 reversed $148 $-1 #
edge $-1 $333 0 $333 6.2831853071796004 $149 $334 forward 7 unknown #
vertex $-1 $152 $335 #
ellipse-curve $-1 63.018178620342802 21.067977316455064 6.9833362317631682 0.71933980857756763 0 0.69465836192734942 0.34732918096367471 0 -0.35966990428878381 1 I I #
coedge $-1 $238 $238 $-1 $336 reversed $155 $-1 #
edge $-1 $337 0 $337 6.2831853071796004 $156 $338 forward 7 unknown #
vertex $-1 $159 $339 #
ellipse-curve $-1 63.018178620342802 23.672951824562134 6.9833362317631682 0.71933980857756763 0 0.69465836192734942 0.34732918096367471 0 -0.35966990428878381 1 I I #
face $-1 $-1 $175 $24 $-1 $340 reversed single #
loop $-1 $-1 $258 $160 #
plane-surface $-1 0 27.455357095997115 0 0 -1 0 0 0 -1 forward_v I I I I #
coedge $-1 $341 $256 $259 $342 forward $161 $-1 #
coedge $-1 $262 $163 $164 $250 reversed $101 $-1 #
coedge $-1 $256 $341 $163 $248 reversed $161 $-1 #
edge $-1 $263 -11.268787256946185 $343 11.268787256946185 $247 $344 forward 7 unknown #
coedge $-1 $165 $164 $341 $345 forward $65 $-1 #
edge $-1 $254 -67.156590472121337 $343 67.156590472121337 $246 $346 forward 7 unknown #
coedge $-1 $259 $258 $165 $252 reversed $243 $-1 #
edge $-1 $347 -67.156590472121337 $253 67.156590472121337 $251 $348 forward 7 unknown #
vertex $-1 $167 $349 #
vertex $-1 $265 $350 #
straight-curve $-1 67.156590472121337 0 -11.268787256946185 0 -1 0 I I #
coedge $-1 $245 $247 $168 $257 reversed $161 $-1 #
edge $-1 $260 -27.455357095997115 $263 27.455357095997115 $256 $351 forward 7 unknown #
coedge $-1 $251 $169 $174 $266 forward $243 $-1 #
coedge $-1 $169 $251 $245 $342 reversed $243 $-1 #
vertex $-1 $170 $352 #
straight-curve $-1 0 27.455357095997115 11.268787256946185 -1 0 0 I I #
coedge $-1 $171 $246 $173 $265 reversed $101 $-1 #
vertex $-1 $257 $353 #
straight-curve $-1 0 -27.455357095997115 11.268787256946185 1 0 0 I I #
edge $-1 $176 -11.268787256946185 $254 11.268787256946185 $173 $354 forward 7 unknown #
edge $-1 $177 -11.268787256946185 $253 11.268787256946185 $174 $355 forward 7 unknown #
point $-1 67.156590472121337 -27.455357095997115 11.268787256946185 #
point $-1 67.156590472121337 27.455357095997115 11.268787256946185 #
face $-1 $-1 $283 $25 $-1 $356 reversed single #
loop $-1 $-1 $357 $179 #
plane-surface $-1 0 -40.388356492186404 -8.43283033818782 0 1 0 0 0 1 forward_v I I I I #
coedge $-1 $358 $182 $191 $287 reversed $109 $-1 #
coedge $-1 $182 $358 $183 $275 reversed $109 $-1 #
coedge $-1 $184 $183 $359 $360 forward $69 $-1 #
edge $-1 $279 27.455357095997115 $361 40.388356492186404 $273 $362 forward 7 unknown #
coedge $-1 $363 $188 $184 $277 reversed $283 $-1 #
edge $-1 $364 -40.388356492186404 $278 -27.455357095997115 $276 $365 forward 7 unknown #
vertex $-1 $189 $366 #
vertex $-1 $275 $367 #
straight-curve $-1 0 -27.455357095997115 -11.268787256946185 1 0 0 I I #
straight-curve $-1 67.156590472121337 -27.455357095997115 0 0 0 1 I I #
coedge $-1 $188 $363 $190 $286 reversed $283 $-1 #
loop $-1 $-1 $188 $269 #
straight-curve $-1 -67.156590472121337 -27.455357095997115 0 0 0 -1 I I #
coedge $-1 $191 $190 $368 $369 forward $180 $-1 #
edge $-1 $192 -6.4664996980946405 $370 6.4664996980946441 $282 $371 forward 7 unknown #
edge $-1 $372 -6.4664996980946441 $193 6.4664996980946405 $272 $373 forward 7 unknown #
point $-1 -67.156590472121337 -27.455357095997119 -5.5968734194294552 #
point $-1 67.156590472121337 -27.455357095997119 -5.5968734194294552 #
plane-surface $-1 0 0 11.268787256946185 0 0 1 1 0 0 forward_v I I I I #
coedge $-1 $203 $374 $295 $375 forward $196 $-1 #
coedge $-1 $293 $198 $374 $376 reversed $117 $-1 #
coedge $-1 $198 $292 $296 $377 reversed $117 $-1 #
edge $-1 $297 18.234877255538748 $378 25.026888981278923 $198 $379 forward 7 unknown #
coedge $-1 $200 $199 $291 $375 reversed $73 $-1 #
coedge $-1 $206 $201 $293 $377 forward $207 $-1 #
vertex $-1 $377 $380 #
straight-curve $-1 -61.661737597059791 10.631012692979372 11.268787256946185 0 1 0 I I #
coedge $-1 $374 $203 $206 $303 reversed $196 $-1 #
vertex $-1 $204 $381 #
straight-curve $-1 -67.156590472121337 15.068693675920372 57.96909404990631 0 0 1 I I #
straight-curve $-1 -67.156590472121323 15.068693675920372 7.2765428801551195 -0.80901698891910034 0 -0.5877852598018023 I I #
edge $-1 $382 -27.455357095997115 $208 -15.068693675920372 $299 $383 forward 7 unknown #
point $-1 -67.156590472121337 15.068693675920372 11.268787256946185 #
point $-1 -61.661737597059798 15.068693675920372 11.268787256946185 #
edge $-1 $384 1 $384 0 $211 $-1 forward 7 unknown #
vertex $-1 $212 $385 #
ellipse-curve $-1 -62.591428207726167 18.607740367370873 6.7707663890974032 -0.5877852598018023 0 0.80901698891910034 1.2135254833786506 0 0.88167788970270344 1 I I #
point $-1 -63.195638551211928 18.607740367370873 10.154342958253363 #
edge $-1 $386 1 $386 0 $215 $-1 forward 7 unknown #
vertex $-1 $216 $387 #
ellipse-curve $-1 -62.591428207726167 23.916310404546621 6.7707663890974032 -0.5877852598018023 0 0.80901698891910034 1.2135254833786506 0 0.88167788970270344 1 I I #
point $-1 -63.195638551211928 23.916310404546621 10.154342958253363 #
loop $-1 $-1 $227 $219 #
plane-surface $-1 67.156590472121337 0 0 -1 0 0 0 0 1 forward_v I I I I #
coedge $-1 $317 $222 $224 $321 reversed $139 $-1 #
coedge $-1 $222 $316 $388 $389 reversed $139 $-1 #
coedge $-1 $230 $225 $222 $319 forward $220 $-1 #
edge $-1 $322 23.643949727555352 $390 31.920773431112451 $318 $391 forward 7 unknown #
coedge $-1 $224 $223 $325 $392 reversed $87 $-1 #
edge $-1 $393 -134.31318094424267 $322 -122.39822510812085 $316 $394 forward 7 unknown #
vertex $-1 $226 $395 #
straight-curve $-1 58.879766768564231 11.185232285254301 11.26878725694619 0 -1 0 I I #
coedge $-1 $388 $227 $230 $329 reversed $314 $-1 #
coedge $-1 $227 $388 $320 $392 forward $314 $-1 #
vertex $-1 $228 $396 #
straight-curve $-1 67.156590472121337 25.40960149663352 96.308238668217584 0 0 1 I I #
straight-curve $-1 -26.14518378785796 25.40960149663352 99.314703076455871 0.69465836192734942 0 -0.71933980857756763 I I #
edge $-1 $390 19.331327644383684 $231 25.40960149663352 $324 $397 forward 7 unknown #
point $-1 67.156590472121337 25.40960149663352 11.268787256946185 #
point $-1 58.879766768564238 25.40960149663352 11.268787256946183 #
edge $-1 $398 1 $398 0 $234 $-1 forward 7 unknown #
vertex $-1 $235 $399 #
ellipse-curve $-1 62.298838811765236 21.067977316455064 6.2886778698358237 0.71933980857756763 0 0.69465836192734942 0.34732918096367471 0 -0.35966990428878381 1 I I #
point $-1 63.365507801306478 21.067977316455064 6.623666327474389 #
edge $-1 $400 1 $400 0 $238 $-1 forward 7 unknown #
vertex $-1 $239 $401 #
ellipse-curve $-1 62.298838811765236 23.672951824562134 6.2886778698358237 0.71933980857756763 0 0.69465836192734942 0.34732918096367471 0 -0.35966990428878381 1 I I #
point $-1 63.365507801306478 23.672951824562134 6.623666327474389 #
plane-surface $-1 67.156590472121337 0 0 -1 0 0 0 0 1 forward_v I I I I #
coedge $-1 $247 $245 $249 $345 reversed $161 $-1 #
edge $-1 $260 -11.268787256946185 $347 11.268787256946185 $259 $402 forward 7 unknown #
vertex $-1 $345 $403 #
straight-curve $-1 -67.156590472121337 -27.455357095997115 0 0 0 -1 I I #
edge $-1 $343 -27.455357095997115 $347 27.455357095997115 $341 $404 forward 7 unknown #
straight-curve $-1 0 -27.455357095997115 -11.268787256946185 -1 0 0 I I #
vertex $-1 $252 $405 #
straight-curve $-1 0 27.455357095997115 -11.268787256946185 1 0 0 I I #
point $-1 67.156590472121337 27.455357095997115 -11.268787256946185 #
point $-1 67.156590472121337 -27.455357095997115 -11.268787256946185 #
straight-curve $-1 -67.156590472121337 0 11.268787256946185 0 -1 0 I I #
point $-1 -67.156590472121337 27.455357095997115 11.268787256946185 #
point $-1 -67.156590472121337 -27.455357095997115 11.268787256946185 #
straight-curve $-1 67.156590472121337 -27.455357095997115 0 0 0 -1 I I #
straight-curve $-1 67.156590472121337 27.455357095997115 0 0 0 -1 I I #
plane-surface $-1 -67.156590472121337 0 0 1 0 0 0 0 -1 forward_v I I I I #
coedge $-1 $359 $368 $363 $406 forward $270 $-1 #
coedge $-1 $273 $272 $407 $408 forward $109 $-1 #
coedge $-1 $407 $357 $274 $360 reversed $270 $-1 #
edge $-1 $361 -67.156590472121337 $364 67.156590472121337 $359 $409 forward 7 unknown #
vertex $-1 $408 $410 #
straight-curve $-1 67.156590472121337 0 -11.268787256946185 0 -1 0 I I #
coedge $-1 $282 $276 $357 $406 reversed $283 $-1 #
vertex $-1 $277 $411 #
straight-curve $-1 -67.156590472121337 0 -11.268787256946185 0 1 0 I I #
point $-1 -67.156590472121337 -27.455357095997115 -11.268787256946185 #
point $-1 67.156590472121337 -27.455357095997115 -11.268787256946185 #
coedge $-1 $357 $407 $285 $369 reversed $270 $-1 #
edge $-1 $370 -67.156590472121337 $372 67.156590472121337 $368 $412 forward 7 unknown #
vertex $-1 $286 $413 #
straight-curve $-1 -67.156590472121337 -33.921856794091759 -5.5968734194294552 0 -1 0 I I #
vertex $-1 $287 $414 #
straight-curve $-1 67.156590472121337 -33.921856794091759 -5.5968734194294552 0 1 0 I I #
coedge $-1 $291 $299 $292 $376 forward $196 $-1 #
edge $-1 $378 -16.824344403017744 $300 -4.437680982941 $291 $415 forward 7 unknown #
edge $-1 $382 -11.268787256946185 $378 -7.2765428801551089 $292 $416 forward 7 unknown #
edge $-1 $297 61.661737597059798 $382 67.156590472121337 $293 $417 forward 7 unknown #
vertex $-1 $294 $418 #
straight-curve $-1 -46.909412106474448 27.455357095997115 21.986979322046999 -0.80901698891910034 0 -0.5877852598018023 I I #
point $-1 -61.661737597059798 27.455357095997115 11.268787256946185 #
point $-1 -67.156590472121337 15.068693675920372 7.2765428801551089 #
vertex $-1 $377 $419 #
straight-curve $-1 -67.156590472121337 0 11.268787256946185 0 -1 0 I I #
vertex $-1 $306 $420 #
point $-1 -61.377902724347521 18.607740367370873 7.6524442788001075 #
vertex $-1 $310 $421 #
point $-1 -61.377902724347521 23.916310404546621 7.6524442788001075 #
coedge $-1 $325 $324 $317 $389 forward $314 $-1 #
edge $-1 $390 85.039451411271401 $393 93.610353461637445 $388 $422 forward 7 unknown #
vertex $-1 $329 $423 #
straight-curve $-1 35.235817041008886 19.331327644383684 11.268787256946183 1 0 0 I I #
edge $-1 $393 8.146095359129383 $326 14.224369211379219 $325 $424 forward 7 unknown #
vertex $-1 $392 $425 #
straight-curve $-1 -26.14518378785796 19.331327644383684 99.314703076455871 -0.69465836192734942 0 0.71933980857756763 I I #
point $-1 58.879766768564238 19.331327644383684 11.268787256946183 #
point $-1 67.156590472121337 25.40960149663352 2.6978852065801391 #
straight-curve $-1 67.156590472121337 0 11.268787256946185 0 1 0 I I #
vertex $-1 $332 $426 #
point $-1 62.646167992728913 21.067977316455064 5.92900796554704 #
vertex $-1 $336 $427 #
point $-1 62.646167992728913 23.672951824562134 5.92900796554704 #
straight-curve $-1 -67.156590472121337 27.455357095997115 0 0 0 -1 I I #
point $-1 -67.156590472121337 -27.455357095997115 -11.268787256946185 #
straight-curve $-1 -67.156590472121337 0 -11.268787256946185 0 1 0 I I #
point $-1 -67.156590472121337 27.455357095997115 -11.268787256946185 #
edge $-1 $370 -2.8359569187583649 $364 2.8359569187583649 $363 $428 forward 7 unknown #
coedge $-1 $368 $359 $358 $408 reversed $270 $-1 #
edge $-1 $372 -2.8359569187583649 $361 2.8359569187583649 $358 $429 forward 7 unknown #
straight-curve $-1 0 -40.388356492186404 -11.268787256946185 -1 0 0 I I #
point $-1 67.156590472121337 -40.388356492186404 -11.268787256946185 #
point $-1 -67.156590472121337 -40.388356492186404 -11.268787256946185 #
straight-curve $-1 0 -40.388356492186404 -5.5968734194294552 1 0 0 I I #
point $-1 -67.156590472121337 -40.388356492186404 -5.5968734194294552 #
point $-1 67.156590472121337 -40.388356492186404 -5.5968734194294552 #
straight-curve $-1 -67.156590472121337 10.631012692979372 7.276542880155116 0 -1 0 I I #
straight-curve $-1 -67.156590472121337 27.455357095997115 0 0 0 -1 I I #
straight-curve $-1 0 27.455357095997115 11.268787256946185 -1 0 0 I I #
point $-1 -67.156590472121337 27.455357095997115 7.2765428801551089 #
point $-1 -67.156590472121337 27.455357095997115 11.268787256946185 #
point $-1 -61.709750318023467 18.607740367370873 5.5572409057187535 #
point $-1 -61.709750318023467 23.916310404546621 5.5572409057187535 #
straight-curve $-1 67.156590472121337 19.331327644383684 96.308238668217584 0 0 -1 I I #
point $-1 67.156590472121337 19.331327644383684 11.268787256946185 #
straight-curve $-1 67.156590472121337 11.185232285254301 2.6978852065801462 0 1 0 I I #
point $-1 67.156590472121337 19.331327644383684 2.6978852065801391 #
point $-1 61.939168907476457 21.067977316455064 5.9413486888721492 #
point $-1 61.939168907476457 23.672951824562134 5.9413486888721492 #
straight-curve $-1 -67.156590472121337 -40.388356492186404 -8.43283033818782 0 0 -1 I I #
straight-curve $-1 67.156590472121337 -40.388356492186404 -8.43283033818782 0 0 -1 I I #
End-of-ACIS-data 