500 0 4 0           
7 Unknown 11 ACIS 5.0 NT 24 Fri Mar 26 19:52:12 1999 
-1 9.9999999999999995e-007 1e-010 
body $-1 $4 $-1 $5 #
body $-1 $6 $-1 $7 #
body $-1 $8 $-1 $9 #
body $-1 $10 $-1 $11 #
lump $-1 $-1 $12 $0 #
transform $-1 1 0 0 0 1 0 0 0 1 57.592089602343819 34.334496095032975 16.35119209003452 1 rotate no_reflect no_shear #
lump $-1 $-1 $13 $1 #
transform $-1 1 0 0 0 1 0 0 0 1 57.592089602343819 34.334496095032975 16.35119209003452 1 rotate no_reflect no_shear #
lump $-1 $-1 $14 $2 #
transform $-1 1 0 0 0 1 0 0 0 1 57.592089602343819 34.334496095032975 16.35119209003452 1 rotate no_reflect no_shear #
lump $-1 $-1 $15 $3 #
transform $-1 1 0 0 0 1 0 0 0 1 57.592089602343819 34.334496095032975 16.35119209003452 1 rotate no_reflect no_shear #
shell $-1 $-1 $-1 $16 $-1 $4 #
shell $-1 $-1 $-1 $17 $-1 $6 #
shell $-1 $-1 $-1 $18 $-1 $8 #
shell $-1 $-1 $-1 $19 $-1 $10 #
face $-1 $20 $21 $12 $-1 $22 forward single #
face $-1 $23 $24 $13 $-1 $25 forward single #
face $-1 $26 $27 $14 $-1 $28 reversed single #
face $-1 $29 $30 $15 $-1 $31 reversed single #
face $-1 $32 $33 $12 $-1 $34 reversed single #
loop $-1 $-1 $35 $16 #
plane-surface $-1 0 0 16.35119209003452 0 0 1 1 0 0 forward_v I I I I #
face $-1 $36 $37 $13 $-1 $38 forward single #
loop $-1 $-1 $39 $17 #
plane-surface $-1 -25.484804897156348 69.489571885344077 132.64562075155911 1 0 0 0 -0.71933980857756763 -0.69465836192734942 forward_v I I I I #
face $-1 $40 $41 $14 $-1 $42 reversed single #
loop $-1 $43 $44 $18 #
cone-surface $-1 -19.355917237875751 25.247847040405297 7.1340261514728285 0 -0.71933980857756763 -0.69465836192734942 2 0 0 1 I I 0 1 2 forward I I I I #
face $-1 $45 $46 $15 $-1 $47 reversed single #
loop $-1 $48 $49 $19 #
cone-surface $-1 -10.162585748954861 25.247847040405297 7.1340261514728285 0 -0.71933980857756763 -0.69465836192734942 2 0 0 1 I I 0 1 2 forward I I I I #
face $-1 $50 $51 $12 $-1 $52 reversed single #
loop $-1 $-1 $53 $20 #
plane-surface $-1 0 0 -16.35119209003452 0 0 1 1 0 0 forward_v I I I I #
coedge $-1 $54 $55 $56 $57 forward $21 $-1 #
face $-1 $58 $59 $13 $-1 $60 forward single #
loop $-1 $-1 $61 $23 #
plane-surface $-1 -14.759251493415306 -13.366993534920169 52.631967505284521 0 0.71933980857756763 0.69465836192734942 1 0 0 forward_v I I I I #
coedge $-1 $62 $63 $64 $65 reversed $24 $-1 #
face $-1 $66 $67 $14 $-1 $68 forward single #
loop $-1 $69 $70 $26 #
cone-surface $-1 -19.355917237875751 21.774634628067979 3.7799839919670468 0 -0.71933980857756763 -0.69465836192734942 1 0 0 1 I I -0.70710678118654746 0.70710678118654746 1 forward I I I I #
loop $-1 $-1 $71 $18 #
coedge $-1 $44 $44 $72 $73 reversed $27 $-1 #
face $-1 $74 $75 $15 $-1 $76 reversed single #
loop $-1 $77 $78 $29 #
cone-surface $-1 -10.162585748954861 21.774634628067979 3.7799839919670468 0 -0.71933980857756763 -0.69465836192734942 1 0 0 1 I I -0.70710678118654746 0.70710678118654746 1 forward I I I I #
loop $-1 $-1 $79 $19 #
coedge $-1 $49 $49 $80 $81 reversed $30 $-1 #
face $-1 $82 $83 $12 $-1 $84 reversed single #
loop $-1 $-1 $85 $32 #
plane-surface $-1 0 -34.334496095032975 0 0 1 0 0 0 1 forward_v I I I I #
coedge $-1 $86 $87 $88 $89 forward $33 $-1 #
coedge $-1 $90 $35 $91 $92 forward $21 $-1 #
coedge $-1 $35 $90 $93 $94 forward $21 $-1 #
coedge $-1 $95 $96 $35 $57 reversed $97 $-1 #
edge $-1 $98 -34.334496095032975 $99 34.334496095032975 $56 $100 forward 7 unknown #
face $-1 $101 $102 $13 $-1 $103 forward single #
loop $-1 $-1 $104 $36 #
plane-surface $-1 -4.0336980896742638 69.489571885344077 132.64562075155911 -1 0 0 0 0.71933980857756763 0.69465836192734942 forward_v I I I I #
coedge $-1 $105 $106 $107 $108 reversed $37 $-1 #
coedge $-1 $63 $39 $106 $109 forward $24 $-1 #
coedge $-1 $39 $62 $110 $111 reversed $24 $-1 #
coedge $-1 $112 $107 $39 $65 forward $102 $-1 #
edge $-1 $113 -13.075842749374885 $114 -0.41028984763906351 $64 $115 forward 7 unknown #
face $-1 $116 $117 $14 $-1 $118 forward single #
loop $-1 $-1 $119 $40 #
plane-surface $-1 -25.484804897156348 69.489571885344077 132.64562075155911 1 0 0 0 -0.71933980857756763 -0.69465836192734942 forward_v I I I I #
loop $-1 $-1 $120 $26 #
coedge $-1 $70 $70 $71 $121 forward $41 $-1 #
coedge $-1 $71 $71 $70 $121 reversed $43 $-1 #
coedge $-1 $72 $72 $44 $73 forward $117 $-1 #
edge $-1 $122 -1.3654903019464444e-015 $122 6.2831853071795987 $72 $123 forward 7 unknown #
face $-1 $124 $125 $15 $-1 $126 reversed single #
loop $-1 $127 $128 $45 #
cone-surface $-1 -19.355917237875751 25.247847040405297 7.1340261514728285 0 -0.71933980857756763 -0.69465836192734942 2 0 0 1 I I 0 1 2 forward I I I I #
loop $-1 $-1 $129 $29 #
coedge $-1 $78 $78 $79 $130 forward $46 $-1 #
coedge $-1 $79 $79 $78 $130 reversed $48 $-1 #
coedge $-1 $80 $80 $49 $81 forward $131 $-1 #
edge $-1 $132 -1.3654903019464444e-015 $132 6.2831853071795987 $80 $133 forward 7 unknown #
face $-1 $134 $135 $12 $-1 $136 reversed single #
loop $-1 $-1 $137 $50 #
plane-surface $-1 -57.592089602343819 0 0 1 0 0 0 0 -1 forward_v I I I I #
coedge $-1 $138 $93 $139 $140 forward $51 $-1 #
coedge $-1 $141 $53 $138 $142 forward $33 $-1 #
coedge $-1 $53 $141 $143 $144 forward $33 $-1 #
coedge $-1 $96 $95 $53 $89 reversed $97 $-1 #
edge $-1 $145 -34.334496095032975 $146 34.334496095032975 $88 $147 forward 7 unknown #
coedge $-1 $55 $54 $148 $149 forward $21 $-1 #
coedge $-1 $150 $151 $54 $92 reversed $135 $-1 #
edge $-1 $99 -57.592089602343819 $152 57.592089602343819 $91 $153 forward 7 unknown #
coedge $-1 $85 $154 $55 $94 reversed $51 $-1 #
edge $-1 $155 -57.592089602343819 $98 57.592089602343819 $93 $156 forward 7 unknown #
coedge $-1 $88 $56 $154 $157 forward $97 $-1 #
coedge $-1 $56 $88 $150 $158 reversed $97 $-1 #
loop $-1 $-1 $95 $134 #
vertex $-1 $57 $159 #
vertex $-1 $57 $160 #
straight-curve $-1 57.592089602343819 0 16.35119209003452 0 1 0 I I #
face $-1 $161 $162 $13 $-1 $163 reversed single #
loop $-1 $-1 $164 $58 #
plane-surface $-1 0 0 16.35119209003452 0 0 1 1 0 0 forward_v I I I I #
coedge $-1 $165 $166 $164 $167 reversed $59 $-1 #
coedge $-1 $168 $61 $166 $169 reversed $37 $-1 #
coedge $-1 $61 $168 $62 $109 reversed $37 $-1 #
coedge $-1 $64 $164 $61 $108 forward $102 $-1 #
edge $-1 $170 -3.3459276570333891 $113 18.105179150448695 $107 $171 forward 7 unknown #
edge $-1 $113 50.436212458465363 $172 68.668992190065921 $62 $173 forward 7 unknown #
coedge $-1 $174 $175 $63 $111 forward $176 $-1 #
edge $-1 $114 49.971618285745038 $172 63.087182567711537 $110 $177 forward 7 unknown #
coedge $-1 $178 $64 $175 $179 forward $102 $-1 #
vertex $-1 $108 $180 #
vertex $-1 $179 $181 #
straight-curve $-1 -25.484804897156348 34.744785942672038 16.351192090034516 0 1 0 I I #
face $-1 $182 $183 $14 $-1 $184 forward single #
loop $-1 $185 $72 $66 #
plane-surface $-1 -14.759251493415306 -13.366993534920169 52.631967505284521 0 0.71933980857756763 0.69465836192734942 1 0 0 forward_v I I I I #
coedge $-1 $186 $187 $188 $189 reversed $67 $-1 #
coedge $-1 $120 $120 $-1 $190 forward $69 $-1 #
edge $-1 $191 0 $191 6.2831853071796004 $70 $192 forward 7 unknown #
vertex $-1 $73 $193 #
ellipse-curve $-1 -19.355917237875751 28.001719644165057 9.79340994905127 0 -0.71933980857756763 -0.69465836192734942 2 0 0 1 I I #
face $-1 $194 $195 $15 $-1 $196 forward single #
loop $-1 $197 $198 $74 #
cone-surface $-1 -19.355917237875751 21.774634628067979 3.7799839919670468 0 -0.71933980857756763 -0.69465836192734942 1 0 0 1 I I -0.70710678118654746 0.70710678118654746 1 forward I I I I #
loop $-1 $-1 $199 $45 #
coedge $-1 $128 $128 $200 $201 reversed $75 $-1 #
coedge $-1 $129 $129 $-1 $202 forward $77 $-1 #
edge $-1 $203 0 $203 6.2831853071796004 $78 $204 forward 7 unknown #
loop $-1 $205 $80 $194 #
vertex $-1 $81 $206 #
ellipse-curve $-1 -10.162585748954861 28.001719644165057 9.79340994905127 0 -0.71933980857756763 -0.69465836192734942 2 0 0 1 I I #
face $-1 $-1 $97 $12 $-1 $207 reversed single #
loop $-1 $-1 $150 $82 #
plane-surface $-1 0 34.334496095032975 0 0 -1 0 0 0 -1 forward_v I I I I #
coedge $-1 $208 $148 $151 $209 forward $83 $-1 #
coedge $-1 $154 $85 $86 $142 reversed $51 $-1 #
coedge $-1 $148 $208 $85 $140 reversed $83 $-1 #
edge $-1 $155 -16.35119209003452 $210 16.35119209003452 $139 $211 forward 7 unknown #
coedge $-1 $87 $86 $208 $212 forward $33 $-1 #
edge $-1 $146 -57.592089602343819 $210 57.592089602343819 $138 $213 forward 7 unknown #
coedge $-1 $151 $150 $87 $144 reversed $135 $-1 #
edge $-1 $214 -57.592089602343819 $145 57.592089602343819 $143 $215 forward 7 unknown #
vertex $-1 $89 $216 #
vertex $-1 $157 $217 #
straight-curve $-1 57.592089602343819 0 -16.35119209003452 0 -1 0 I I #
coedge $-1 $137 $139 $90 $149 reversed $83 $-1 #
edge $-1 $152 -34.334496095032975 $155 34.334496095032975 $148 $218 forward 7 unknown #
coedge $-1 $143 $91 $96 $158 forward $135 $-1 #
coedge $-1 $91 $143 $137 $209 reversed $135 $-1 #
vertex $-1 $92 $219 #
straight-curve $-1 0 34.334496095032975 16.35119209003452 -1 0 0 I I #
coedge $-1 $93 $138 $95 $157 reversed $51 $-1 #
vertex $-1 $149 $220 #
straight-curve $-1 0 -34.334496095032975 16.35119209003452 1 0 0 I I #
edge $-1 $98 -16.35119209003452 $146 16.35119209003452 $95 $221 forward 7 unknown #
edge $-1 $99 -16.35119209003452 $145 16.35119209003452 $96 $222 forward 7 unknown #
point $-1 57.592089602343819 -34.334496095032975 16.35119209003452 #
point $-1 57.592089602343819 34.334496095032975 16.35119209003452 #
face $-1 $223 $224 $13 $-1 $225 reversed single #
loop $-1 $-1 $226 $101 #
plane-surface $-1 0 0 -16.35119209003452 0 0 1 1 0 0 forward_v I I I I #
coedge $-1 $107 $227 $104 $167 forward $102 $-1 #
coedge $-1 $166 $104 $228 $229 reversed $59 $-1 #
coedge $-1 $104 $165 $105 $169 forward $59 $-1 #
edge $-1 $230 0.41028984763906351 $170 13.075842749374885 $164 $231 forward 7 unknown #
coedge $-1 $106 $105 $174 $232 reversed $37 $-1 #
edge $-1 $233 -68.668992190065921 $170 -50.436212458465363 $166 $234 forward 7 unknown #
vertex $-1 $108 $235 #
straight-curve $-1 -7.3796257467076529 21.668943193297142 16.351192090034527 -1 0 0 I I #
vertex $-1 $232 $236 #
straight-curve $-1 -25.484804897156348 -13.366993534920169 52.631967505284521 0 0.69465836192734942 -0.71933980857756763 I I #
coedge $-1 $228 $110 $168 $232 forward $176 $-1 #
coedge $-1 $110 $237 $112 $179 reversed $176 $-1 #
loop $-1 $-1 $228 $238 #
straight-curve $-1 -25.484804897156348 34.334496095032975 66.322810375779554 0 0 -1 I I #
coedge $-1 $239 $112 $240 $241 forward $102 $-1 #
edge $-1 $114 25.484804897156348 $242 57.592089602343819 $175 $243 forward 7 unknown #
point $-1 -25.484804897156348 21.668943193297153 16.351192090034516 #
point $-1 -25.484804897156348 34.334496095032975 16.35119209003452 #
face $-1 $244 $245 $14 $-1 $246 forward single #
loop $-1 $-1 $247 $116 #
plane-surface $-1 -4.0336980896742638 69.489571885344077 132.64562075155911 -1 0 0 0 0.71933980857756763 0.69465836192734942 forward_v I I I I #
loop $-1 $-1 $248 $66 #
coedge $-1 $187 $119 $249 $250 forward $67 $-1 #
coedge $-1 $119 $186 $251 $252 reversed $67 $-1 #
coedge $-1 $253 $254 $119 $189 forward $245 $-1 #
edge $-1 $255 -13.075842749374885 $256 -0.41028984763906351 $188 $257 forward 7 unknown #
edge $-1 $258 1 $258 0 $120 $-1 forward 7 unknown #
vertex $-1 $121 $259 #
ellipse-curve $-1 -19.355917237875751 22.493974436645548 4.4746423538943958 0 0.71933980857756763 0.69465836192734942 2 0 0 1 I I #
point $-1 -17.355917237875751 28.00171964416505 9.7934099490512594 #
face $-1 $260 $131 $15 $-1 $261 forward single #
loop $-1 $-1 $262 $124 #
plane-surface $-1 -25.484804897156348 69.489571885344077 132.64562075155911 1 0 0 0 -0.71933980857756763 -0.69465836192734942 forward_v I I I I #
loop $-1 $-1 $263 $74 #
coedge $-1 $198 $198 $199 $264 forward $125 $-1 #
coedge $-1 $199 $199 $198 $264 reversed $127 $-1 #
coedge $-1 $200 $200 $128 $201 forward $205 $-1 #
edge $-1 $265 -1.3654903019464444e-015 $265 6.2831853071795987 $200 $266 forward 7 unknown #
edge $-1 $267 1 $267 0 $129 $-1 forward 7 unknown #
vertex $-1 $130 $268 #
ellipse-curve $-1 -10.162585748954861 22.493974436645548 4.4746423538943958 0 0.71933980857756763 0.69465836192734942 2 0 0 1 I I #
loop $-1 $269 $200 $194 #
point $-1 -8.1625857489548608 28.00171964416505 9.7934099490512594 #
plane-surface $-1 57.592089602343819 0 0 -1 0 0 0 0 1 forward_v I I I I #
coedge $-1 $139 $137 $141 $212 reversed $83 $-1 #
edge $-1 $152 -16.35119209003452 $214 16.35119209003452 $151 $270 forward 7 unknown #
vertex $-1 $212 $271 #
straight-curve $-1 -57.592089602343819 -34.334496095032975 0 0 0 -1 I I #
edge $-1 $210 -34.334496095032975 $214 34.334496095032975 $208 $272 forward 7 unknown #
straight-curve $-1 0 -34.334496095032975 -16.35119209003452 -1 0 0 I I #
vertex $-1 $144 $273 #
straight-curve $-1 0 34.334496095032975 -16.35119209003452 1 0 0 I I #
point $-1 57.592089602343819 34.334496095032975 -16.35119209003452 #
point $-1 57.592089602343819 -34.334496095032975 -16.35119209003452 #
straight-curve $-1 -57.592089602343819 0 16.35119209003452 0 -1 0 I I #
point $-1 -57.592089602343819 34.334496095032975 16.35119209003452 #
point $-1 -57.592089602343819 -34.334496095032975 16.35119209003452 #
straight-curve $-1 57.592089602343819 -34.334496095032975 0 0 0 -1 I I #
straight-curve $-1 57.592089602343819 34.334496095032975 0 0 0 -1 I I #
face $-1 $238 $274 $13 $-1 $275 reversed single #
loop $-1 $-1 $276 $161 #
plane-surface $-1 0 -34.334496095032975 0 0 1 0 0 0 1 forward_v I I I I #
coedge $-1 $277 $278 $279 $280 forward $162 $-1 #
coedge $-1 $164 $281 $282 $283 forward $102 $-1 #
coedge $-1 $282 $174 $165 $229 forward $176 $-1 #
edge $-1 $233 -63.087182567711537 $230 -49.971618285745038 $228 $284 forward 7 unknown #
vertex $-1 $229 $285 #
straight-curve $-1 -4.0336980896742638 34.744785942672038 16.351192090034516 0 -1 0 I I #
edge $-1 $172 -18.105179150448695 $233 3.3459276570333891 $174 $286 forward 7 unknown #
vertex $-1 $232 $287 #
straight-curve $-1 -4.0336980896742638 -13.366993534920169 52.631967505284521 0 -0.69465836192734942 0.71933980857756763 I I #
point $-1 -4.0336980896742638 21.668943193297153 16.351192090034516 #
point $-1 -25.484804897156348 34.334496095032975 3.235627808068017 #
coedge $-1 $175 $288 $289 $290 reversed $176 $-1 #
face $-1 $291 $176 $13 $-1 $292 reversed single #
coedge $-1 $281 $178 $293 $294 forward $102 $-1 #
coedge $-1 $289 $295 $178 $241 reversed $274 $-1 #
edge $-1 $242 -34.334496095032975 $296 34.334496095032975 $240 $297 forward 7 unknown #
vertex $-1 $179 $298 #
straight-curve $-1 0 34.334496095032975 16.35119209003452 -1 0 0 I I #
face $-1 $299 $300 $14 $-1 $301 reversed single #
loop $-1 $-1 $302 $182 #
plane-surface $-1 0 0 16.35119209003452 0 0 1 1 0 0 forward_v I I I I #
coedge $-1 $303 $304 $302 $305 reversed $183 $-1 #
coedge $-1 $306 $249 $254 $307 reversed $185 $-1 #
coedge $-1 $248 $308 $186 $250 reversed $185 $-1 #
edge $-1 $255 50.436212458465363 $309 68.668992190065921 $186 $310 forward 7 unknown #
coedge $-1 $311 $312 $187 $252 forward $313 $-1 #
edge $-1 $256 49.971618285745038 $309 63.087182567711537 $251 $314 forward 7 unknown #
coedge $-1 $315 $188 $312 $316 forward $245 $-1 #
coedge $-1 $188 $302 $248 $307 forward $245 $-1 #
vertex $-1 $307 $317 #
vertex $-1 $316 $318 #
straight-curve $-1 -25.484804897156348 34.744785942672038 16.351192090034516 0 1 0 I I #
vertex $-1 $190 $319 #
point $-1 -17.355917237875751 22.493974436645548 4.4746423538943958 #
face $-1 $320 $321 $15 $-1 $322 forward single #
plane-surface $-1 -14.759251493415306 -13.366993534920169 52.631967505284521 0 0.71933980857756763 0.69465836192734942 1 0 0 forward_v I I I I #
coedge $-1 $323 $324 $325 $326 reversed $195 $-1 #
coedge $-1 $263 $263 $-1 $327 forward $197 $-1 #
edge $-1 $328 0 $328 6.2831853071796004 $198 $329 forward 7 unknown #
vertex $-1 $201 $330 #
ellipse-curve $-1 -19.355917237875751 28.001719644165057 9.79340994905127 0 -0.71933980857756763 -0.69465836192734942 2 0 0 1 I I #
vertex $-1 $202 $331 #
point $-1 -8.1625857489548608 22.493974436645548 4.4746423538943958 #
loop $-1 $-1 $332 $194 #
straight-curve $-1 -57.592089602343819 34.334496095032975 0 0 0 -1 I I #
point $-1 -57.592089602343819 -34.334496095032975 -16.35119209003452 #
straight-curve $-1 -57.592089602343819 0 -16.35119209003452 0 1 0 I I #
point $-1 -57.592089602343819 34.334496095032975 -16.35119209003452 #
loop $-1 $-1 $289 $223 #
plane-surface $-1 -57.592089602343819 0 0 1 0 0 0 0 -1 forward_v I I I I #
coedge $-1 $333 $293 $295 $334 forward $224 $-1 #
coedge $-1 $335 $226 $333 $336 forward $162 $-1 #
coedge $-1 $226 $335 $288 $337 forward $162 $-1 #
coedge $-1 $338 $339 $226 $280 reversed $340 $-1 #
edge $-1 $341 -34.334496095032975 $342 34.334496095032975 $279 $343 forward 7 unknown #
coedge $-1 $227 $239 $344 $345 forward $102 $-1 #
coedge $-1 $346 $228 $227 $283 reversed $176 $-1 #
edge $-1 $347 -57.592089602343819 $230 4.0336980896742638 $282 $243 forward 7 unknown #
straight-curve $-1 -4.0336980896742638 34.334496095032975 66.322810375779554 0 0 1 I I #
point $-1 -4.0336980896742638 34.334496095032975 16.35119209003452 #
straight-curve $-1 -7.3796257467076529 34.334496095032975 3.2356278080680099 1 0 0 I I #
point $-1 -4.0336980896742638 34.334496095032975 3.235627808068017 #
coedge $-1 $237 $346 $278 $337 reversed $176 $-1 #
coedge $-1 $348 $240 $237 $290 forward $274 $-1 #
edge $-1 $242 -16.35119209003452 $349 16.35119209003452 $237 $350 forward 7 unknown #
face $-1 $-1 $340 $13 $-1 $351 reversed single #
plane-surface $-1 0 34.334496095032975 0 0 -1 0 0 0 -1 forward_v I I I I #
coedge $-1 $276 $352 $239 $294 reversed $224 $-1 #
edge $-1 $296 -57.592089602343819 $353 57.592089602343819 $293 $354 forward 7 unknown #
coedge $-1 $240 $348 $276 $334 reversed $274 $-1 #
vertex $-1 $241 $355 #
straight-curve $-1 -57.592089602343819 0 16.35119209003452 0 -1 0 I I #
point $-1 -57.592089602343819 34.334496095032975 16.35119209003452 #
face $-1 $356 $357 $14 $-1 $358 reversed single #
loop $-1 $-1 $359 $244 #
plane-surface $-1 0 0 -16.35119209003452 0 0 1 1 0 0 forward_v I I I I #
coedge $-1 $254 $360 $247 $305 forward $245 $-1 #
coedge $-1 $304 $247 $361 $362 reversed $183 $-1 #
coedge $-1 $247 $303 $306 $363 forward $183 $-1 #
edge $-1 $364 0.41028984763906351 $365 13.075842749374885 $302 $366 forward 7 unknown #
coedge $-1 $308 $248 $304 $363 reversed $185 $-1 #
edge $-1 $365 -3.3459276570333891 $255 18.105179150448695 $254 $367 forward 7 unknown #
coedge $-1 $249 $306 $311 $368 reversed $185 $-1 #
vertex $-1 $368 $369 #
straight-curve $-1 -25.484804897156348 -13.366993534920169 52.631967505284521 0 0.69465836192734942 -0.71933980857756763 I I #
coedge $-1 $361 $251 $308 $368 forward $313 $-1 #
coedge $-1 $251 $370 $253 $316 reversed $313 $-1 #
loop $-1 $-1 $361 $371 #
straight-curve $-1 -25.484804897156348 34.334496095032975 66.322810375779554 0 0 -1 I I #
coedge $-1 $372 $253 $373 $374 forward $245 $-1 #
edge $-1 $256 25.484804897156348 $375 57.592089602343819 $312 $376 forward 7 unknown #
point $-1 -25.484804897156348 21.668943193297153 16.351192090034516 #
point $-1 -25.484804897156348 34.334496095032975 16.35119209003452 #
point $-1 -19.355917237875751 21.05529481949041 3.0853256300396974 #
face $-1 $377 $378 $15 $-1 $379 forward single #
loop $-1 $-1 $380 $260 #
plane-surface $-1 -4.0336980896742638 69.489571885344077 132.64562075155911 -1 0 0 0 0.71933980857756763 0.69465836192734942 forward_v I I I I #
coedge $-1 $324 $262 $381 $382 forward $195 $-1 #
coedge $-1 $262 $323 $383 $384 reversed $195 $-1 #
coedge $-1 $385 $386 $262 $326 forward $378 $-1 #
edge $-1 $387 -13.075842749374885 $388 -0.41028984763906351 $325 $389 forward 7 unknown #
edge $-1 $390 1 $390 0 $263 $-1 forward 7 unknown #
vertex $-1 $264 $391 #
ellipse-curve $-1 -19.355917237875751 22.493974436645548 4.4746423538943958 0 0.71933980857756763 0.69465836192734942 2 0 0 1 I I #
point $-1 -17.355917237875751 28.00171964416505 9.7934099490512594 #
point $-1 -10.162585748954861 21.05529481949041 3.0853256300396974 #
coedge $-1 $392 $381 $386 $393 reversed $269 $-1 #
coedge $-1 $352 $276 $277 $336 reversed $224 $-1 #
edge $-1 $296 -16.35119209003452 $394 16.35119209003452 $295 $395 forward 7 unknown #
coedge $-1 $278 $277 $348 $396 forward $162 $-1 #
edge $-1 $342 -57.592089602343819 $394 57.592089602343819 $333 $397 forward 7 unknown #
edge $-1 $349 -57.592089602343819 $341 57.592089602343819 $288 $398 forward 7 unknown #
coedge $-1 $344 $279 $346 $399 reversed $340 $-1 #
coedge $-1 $279 $344 $352 $400 forward $340 $-1 #
loop $-1 $-1 $339 $291 #
vertex $-1 $280 $401 #
vertex $-1 $400 $402 #
straight-curve $-1 57.592089602343819 0 -16.35119209003452 0 -1 0 I I #
coedge $-1 $339 $338 $281 $345 reversed $340 $-1 #
edge $-1 $353 -34.334496095032975 $347 34.334496095032975 $344 $403 forward 7 unknown #
coedge $-1 $288 $282 $338 $399 forward $176 $-1 #
vertex $-1 $345 $404 #
coedge $-1 $295 $289 $335 $396 reversed $274 $-1 #
vertex $-1 $337 $405 #
straight-curve $-1 -57.592089602343819 34.334496095032975 0 0 0 -1 I I #
plane-surface $-1 57.592089602343819 0 0 -1 0 0 0 0 1 forward_v I I I I #
coedge $-1 $293 $333 $339 $400 reversed $224 $-1 #
vertex $-1 $345 $406 #
straight-curve $-1 0 -34.334496095032975 16.35119209003452 1 0 0 I I #
point $-1 -57.592089602343819 -34.334496095032975 16.35119209003452 #
face $-1 $371 $407 $14 $-1 $408 reversed single #
loop $-1 $-1 $409 $299 #
plane-surface $-1 0 -34.334496095032975 0 0 1 0 0 0 1 forward_v I I I I #
coedge $-1 $410 $411 $412 $413 forward $300 $-1 #
coedge $-1 $302 $414 $415 $416 forward $245 $-1 #
coedge $-1 $415 $311 $303 $362 forward $313 $-1 #
edge $-1 $417 -63.087182567711537 $364 -49.971618285745038 $361 $418 forward 7 unknown #
edge $-1 $417 -68.668992190065921 $365 -50.436212458465363 $304 $419 forward 7 unknown #
vertex $-1 $362 $420 #
vertex $-1 $307 $421 #
straight-curve $-1 -4.0336980896742638 34.744785942672038 16.351192090034516 0 -1 0 I I #
straight-curve $-1 -7.3796257467076529 21.668943193297142 16.351192090034527 -1 0 0 I I #
edge $-1 $309 -18.105179150448695 $417 3.3459276570333891 $311 $422 forward 7 unknown #
point $-1 -25.484804897156348 34.334496095032975 3.235627808068017 #
coedge $-1 $312 $423 $424 $425 reversed $313 $-1 #
face $-1 $426 $313 $14 $-1 $427 reversed single #
coedge $-1 $414 $315 $428 $429 forward $245 $-1 #
coedge $-1 $424 $430 $315 $374 reversed $407 $-1 #
edge $-1 $375 -34.334496095032975 $431 34.334496095032975 $373 $432 forward 7 unknown #
vertex $-1 $316 $433 #
straight-curve $-1 0 34.334496095032975 16.35119209003452 -1 0 0 I I #
face $-1 $434 $435 $15 $-1 $436 reversed single #
loop $-1 $-1 $437 $320 #
plane-surface $-1 0 0 16.35119209003452 0 0 1 1 0 0 forward_v I I I I #
coedge $-1 $438 $439 $437 $440 reversed $321 $-1 #
coedge $-1 $332 $441 $323 $382 reversed $269 $-1 #
edge $-1 $387 50.436212458465363 $442 68.668992190065921 $323 $443 forward 7 unknown #
coedge $-1 $444 $445 $324 $384 forward $446 $-1 #
edge $-1 $388 49.971618285745038 $442 63.087182567711537 $383 $447 forward 7 unknown #
coedge $-1 $448 $325 $445 $449 forward $378 $-1 #
coedge $-1 $325 $437 $332 $393 forward $378 $-1 #
vertex $-1 $393 $450 #
vertex $-1 $449 $451 #
straight-curve $-1 -25.484804897156348 34.744785942672038 16.351192090034516 0 1 0 I I #
vertex $-1 $327 $452 #
point $-1 -17.355917237875751 22.493974436645548 4.4746423538943958 #
coedge $-1 $441 $332 $439 $453 reversed $269 $-1 #
edge $-1 $454 -3.3459276570333891 $387 18.105179150448695 $386 $455 forward 7 unknown #
vertex $-1 $396 $456 #
straight-curve $-1 -57.592089602343819 -34.334496095032975 0 0 0 -1 I I #
edge $-1 $394 -34.334496095032975 $349 34.334496095032975 $348 $457 forward 7 unknown #
straight-curve $-1 0 -34.334496095032975 -16.35119209003452 -1 0 0 I I #
straight-curve $-1 0 34.334496095032975 -16.35119209003452 1 0 0 I I #
edge $-1 $347 -16.35119209003452 $341 16.35119209003452 $338 $458 forward 7 unknown #
edge $-1 $353 -16.35119209003452 $342 16.35119209003452 $339 $459 forward 7 unknown #
point $-1 57.592089602343819 34.334496095032975 -16.35119209003452 #
point $-1 57.592089602343819 -34.334496095032975 -16.35119209003452 #
straight-curve $-1 57.592089602343819 0 16.35119209003452 0 1 0 I I #
point $-1 57.592089602343819 34.334496095032975 16.35119209003452 #
point $-1 -57.592089602343819 34.334496095032975 -16.35119209003452 #
point $-1 57.592089602343819 -34.334496095032975 16.35119209003452 #
loop $-1 $-1 $424 $356 #
plane-surface $-1 -57.592089602343819 0 0 1 0 0 0 0 -1 forward_v I I I I #
coedge $-1 $460 $428 $430 $461 forward $357 $-1 #
coedge $-1 $462 $359 $460 $463 forward $300 $-1 #
coedge $-1 $359 $462 $423 $464 forward $300 $-1 #
coedge $-1 $465 $466 $359 $413 reversed $467 $-1 #
edge $-1 $468 -34.334496095032975 $469 34.334496095032975 $412 $470 forward 7 unknown #
coedge $-1 $360 $372 $471 $472 forward $245 $-1 #
coedge $-1 $473 $361 $360 $416 reversed $313 $-1 #
edge $-1 $474 -57.592089602343819 $364 4.0336980896742638 $415 $376 forward 7 unknown #
vertex $-1 $368 $475 #
straight-curve $-1 -4.0336980896742638 34.334496095032975 66.322810375779554 0 0 1 I I #
straight-curve $-1 -4.0336980896742638 -13.366993534920169 52.631967505284521 0 -0.69465836192734942 0.71933980857756763 I I #
point $-1 -4.0336980896742638 34.334496095032975 16.35119209003452 #
point $-1 -4.0336980896742638 21.668943193297153 16.351192090034516 #
straight-curve $-1 -7.3796257467076529 34.334496095032975 3.2356278080680099 1 0 0 I I #
coedge $-1 $370 $473 $411 $464 reversed $313 $-1 #
coedge $-1 $476 $373 $370 $425 forward $407 $-1 #
edge $-1 $375 -16.35119209003452 $477 16.35119209003452 $370 $478 forward 7 unknown #
face $-1 $-1 $467 $14 $-1 $479 reversed single #
plane-surface $-1 0 34.334496095032975 0 0 -1 0 0 0 -1 forward_v I I I I #
coedge $-1 $409 $480 $372 $429 reversed $357 $-1 #
edge $-1 $431 -57.592089602343819 $481 57.592089602343819 $428 $482 forward 7 unknown #
coedge $-1 $373 $476 $409 $461 reversed $407 $-1 #
vertex $-1 $374 $483 #
straight-curve $-1 -57.592089602343819 0 16.35119209003452 0 -1 0 I I #
point $-1 -57.592089602343819 34.334496095032975 16.35119209003452 #
face $-1 $484 $485 $15 $-1 $486 reversed single #
loop $-1 $-1 $487 $377 #
plane-surface $-1 0 0 -16.35119209003452 0 0 1 1 0 0 forward_v I I I I #
coedge $-1 $386 $488 $380 $440 forward $378 $-1 #
coedge $-1 $439 $380 $489 $490 reversed $321 $-1 #
coedge $-1 $380 $438 $392 $453 forward $321 $-1 #
edge $-1 $491 0.41028984763906351 $454 13.075842749374885 $437 $492 forward 7 unknown #
coedge $-1 $381 $392 $444 $493 reversed $269 $-1 #
vertex $-1 $493 $494 #
straight-curve $-1 -25.484804897156348 -13.366993534920169 52.631967505284521 0 0.69465836192734942 -0.71933980857756763 I I #
coedge $-1 $489 $383 $441 $493 forward $446 $-1 #
coedge $-1 $383 $495 $385 $449 reversed $446 $-1 #
loop $-1 $-1 $489 $496 #
straight-curve $-1 -25.484804897156348 34.334496095032975 66.322810375779554 0 0 -1 I I #
coedge $-1 $497 $385 $498 $499 forward $378 $-1 #
edge $-1 $388 25.484804897156348 $500 57.592089602343819 $445 $501 forward 7 unknown #
point $-1 -25.484804897156348 21.668943193297153 16.351192090034516 #
point $-1 -25.484804897156348 34.334496095032975 16.35119209003452 #
point $-1 -19.355917237875751 21.05529481949041 3.0853256300396974 #
edge $-1 $502 -68.668992190065921 $454 -50.436212458465363 $439 $503 forward 7 unknown #
vertex $-1 $393 $504 #
straight-curve $-1 -7.3796257467076529 21.668943193297142 16.351192090034527 -1 0 0 I I #
point $-1 -57.592089602343819 -34.334496095032975 -16.35119209003452 #
straight-curve $-1 -57.592089602343819 0 -16.35119209003452 0 1 0 I I #
straight-curve $-1 57.592089602343819 34.334496095032975 0 0 0 -1 I I #
straight-curve $-1 57.592089602343819 -34.334496095032975 0 0 0 -1 I I #
coedge $-1 $480 $409 $410 $463 reversed $357 $-1 #
edge $-1 $431 -16.35119209003452 $505 16.35119209003452 $430 $506 forward 7 unknown #
coedge $-1 $411 $410 $476 $507 forward $300 $-1 #
edge $-1 $469 -57.592089602343819 $505 57.592089602343819 $460 $508 forward 7 unknown #
edge $-1 $477 -57.592089602343819 $468 57.592089602343819 $423 $509 forward 7 unknown #
coedge $-1 $471 $412 $473 $510 reversed $467 $-1 #
coedge $-1 $412 $471 $480 $511 forward $467 $-1 #
loop $-1 $-1 $466 $426 #
vertex $-1 $413 $512 #
vertex $-1 $511 $513 #
straight-curve $-1 57.592089602343819 0 -16.35119209003452 0 -1 0 I I #
coedge $-1 $466 $465 $414 $472 reversed $467 $-1 #
edge $-1 $481 -34.334496095032975 $474 34.334496095032975 $471 $514 forward 7 unknown #
coedge $-1 $423 $415 $465 $510 forward $313 $-1 #
vertex $-1 $472 $515 #
point $-1 -4.0336980896742638 34.334496095032975 3.235627808068017 #
coedge $-1 $430 $424 $462 $507 reversed $407 $-1 #
vertex $-1 $464 $516 #
straight-curve $-1 -57.592089602343819 34.334496095032975 0 0 0 -1 I I #
plane-surface $-1 57.592089602343819 0 0 -1 0 0 0 0 1 forward_v I I I I #
coedge $-1 $428 $460 $466 $511 reversed $357 $-1 #
vertex $-1 $472 $517 #
straight-curve $-1 0 -34.334496095032975 16.35119209003452 1 0 0 I I #
point $-1 -57.592089602343819 -34.334496095032975 16.35119209003452 #
face $-1 $496 $518 $15 $-1 $519 reversed single #
loop $-1 $-1 $520 $434 #
plane-surface $-1 0 -34.334496095032975 0 0 1 0 0 0 1 forward_v I I I I #
coedge $-1 $521 $522 $523 $524 forward $435 $-1 #
coedge $-1 $437 $525 $526 $527 forward $378 $-1 #
coedge $-1 $526 $444 $438 $490 forward $446 $-1 #
edge $-1 $502 -63.087182567711537 $491 -49.971618285745038 $489 $528 forward 7 unknown #
vertex $-1 $490 $529 #
straight-curve $-1 -4.0336980896742638 34.744785942672038 16.351192090034516 0 -1 0 I I #
edge $-1 $442 -18.105179150448695 $502 3.3459276570333891 $444 $530 forward 7 unknown #
point $-1 -25.484804897156348 34.334496095032975 3.235627808068017 #
coedge $-1 $445 $531 $532 $533 reversed $446 $-1 #
face $-1 $534 $446 $15 $-1 $535 reversed single #
coedge $-1 $525 $448 $536 $537 forward $378 $-1 #
coedge $-1 $532 $538 $448 $499 reversed $518 $-1 #
edge $-1 $500 -34.334496095032975 $539 34.334496095032975 $498 $540 forward 7 unknown #
vertex $-1 $449 $541 #
straight-curve $-1 0 34.334496095032975 16.35119209003452 -1 0 0 I I #
vertex $-1 $493 $542 #
straight-curve $-1 -4.0336980896742638 -13.366993534920169 52.631967505284521 0 -0.69465836192734942 0.71933980857756763 I I #
point $-1 -4.0336980896742638 21.668943193297153 16.351192090034516 #
vertex $-1 $507 $543 #
straight-curve $-1 -57.592089602343819 -34.334496095032975 0 0 0 -1 I I #
edge $-1 $505 -34.334496095032975 $477 34.334496095032975 $476 $544 forward 7 unknown #
straight-curve $-1 0 -34.334496095032975 -16.35119209003452 -1 0 0 I I #
straight-curve $-1 0 34.334496095032975 -16.35119209003452 1 0 0 I I #
edge $-1 $474 -16.35119209003452 $468 16.35119209003452 $465 $545 forward 7 unknown #
edge $-1 $481 -16.35119209003452 $469 16.35119209003452 $466 $546 forward 7 unknown #
point $-1 57.592089602343819 34.334496095032975 -16.35119209003452 #
point $-1 57.592089602343819 -34.334496095032975 -16.35119209003452 #
straight-curve $-1 57.592089602343819 0 16.35119209003452 0 1 0 I I #
point $-1 57.592089602343819 34.334496095032975 16.35119209003452 #
point $-1 -57.592089602343819 34.334496095032975 -16.35119209003452 #
point $-1 57.592089602343819 -34.334496095032975 16.35119209003452 #
loop $-1 $-1 $532 $484 #
plane-surface $-1 -57.592089602343819 0 0 1 0 0 0 0 -1 forward_v I I I I #
coedge $-1 $547 $536 $538 $548 forward $485 $-1 #
coedge $-1 $549 $487 $547 $550 forward $435 $-1 #
coedge $-1 $487 $549 $531 $551 forward $435 $-1 #
coedge $-1 $552 $553 $487 $524 reversed $554 $-1 #
edge $-1 $555 -34.334496095032975 $556 34.334496095032975 $523 $557 forward 7 unknown #
coedge $-1 $488 $497 $558 $559 forward $378 $-1 #
coedge $-1 $560 $489 $488 $527 reversed $446 $-1 #
edge $-1 $561 -57.592089602343819 $491 4.0336980896742638 $526 $501 forward 7 unknown #
straight-curve $-1 -4.0336980896742638 34.334496095032975 66.322810375779554 0 0 1 I I #
point $-1 -4.0336980896742638 34.334496095032975 16.35119209003452 #
straight-curve $-1 -7.3796257467076529 34.334496095032975 3.2356278080680099 1 0 0 I I #
coedge $-1 $495 $560 $522 $551 reversed $446 $-1 #
coedge $-1 $562 $498 $495 $533 forward $518 $-1 #
edge $-1 $500 -16.35119209003452 $563 16.35119209003452 $495 $564 forward 7 unknown #
face $-1 $-1 $554 $15 $-1 $565 reversed single #
plane-surface $-1 0 34.334496095032975 0 0 -1 0 0 0 -1 forward_v I I I I #
coedge $-1 $520 $566 $497 $537 reversed $485 $-1 #
edge $-1 $539 -57.592089602343819 $567 57.592089602343819 $536 $568 forward 7 unknown #
coedge $-1 $498 $562 $520 $548 reversed $518 $-1 #
vertex $-1 $499 $569 #
straight-curve $-1 -57.592089602343819 0 16.35119209003452 0 -1 0 I I #
point $-1 -57.592089602343819 34.334496095032975 16.35119209003452 #
point $-1 -4.0336980896742638 34.334496095032975 3.235627808068017 #
point $-1 -57.592089602343819 -34.334496095032975 -16.35119209003452 #
straight-curve $-1 -57.592089602343819 0 -16.35119209003452 0 1 0 I I #
straight-curve $-1 57.592089602343819 34.334496095032975 0 0 0 -1 I I #
straight-curve $-1 57.592089602343819 -34.334496095032975 0 0 0 -1 I I #
coedge $-1 $566 $520 $521 $550 reversed $485 $-1 #
edge $-1 $539 -16.35119209003452 $570 16.35119209003452 $538 $571 forward 7 unknown #
coedge $-1 $522 $521 $562 $572 forward $435 $-1 #
edge $-1 $556 -57.592089602343819 $570 57.592089602343819 $547 $573 forward 7 unknown #
edge $-1 $563 -57.592089602343819 $555 57.592089602343819 $531 $574 forward 7 unknown #
coedge $-1 $558 $523 $560 $575 reversed $554 $-1 #
coedge $-1 $523 $558 $566 $576 forward $554 $-1 #
loop $-1 $-1 $553 $534 #
vertex $-1 $524 $577 #
vertex $-1 $576 $578 #
straight-curve $-1 57.592089602343819 0 -16.35119209003452 0 -1 0 I I #
coedge $-1 $553 $552 $525 $559 reversed $554 $-1 #
edge $-1 $567 -34.334496095032975 $561 34.334496095032975 $558 $579 forward 7 unknown #
coedge $-1 $531 $526 $552 $575 forward $446 $-1 #
vertex $-1 $559 $580 #
coedge $-1 $538 $532 $549 $572 reversed $518 $-1 #
vertex $-1 $551 $581 #
straight-curve $-1 -57.592089602343819 34.334496095032975 0 0 0 -1 I I #
plane-surface $-1 57.592089602343819 0 0 -1 0 0 0 0 1 forward_v I I I I #
coedge $-1 $536 $547 $553 $576 reversed $485 $-1 #
vertex $-1 $559 $582 #
straight-curve $-1 0 -34.334496095032975 16.35119209003452 1 0 0 I I #
point $-1 -57.592089602343819 -34.334496095032975 16.35119209003452 #
vertex $-1 $572 $583 #
straight-curve $-1 -57.592089602343819 -34.334496095032975 0 0 0 -1 I I #
edge $-1 $570 -34.334496095032975 $563 34.334496095032975 $562 $584 forward 7 unknown #
straight-curve $-1 0 -34.334496095032975 -16.35119209003452 -1 0 0 I I #
straight-curve $-1 0 34.334496095032975 -16.35119209003452 1 0 0 I I #
edge $-1 $561 -16.35119209003452 $555 16.35119209003452 $552 $585 forward 7 unknown #
edge $-1 $567 -16.35119209003452 $556 16.35119209003452 $553 $586 forward 7 unknown #
point $-1 57.592089602343819 34.334496095032975 -16.35119209003452 #
point $-1 57.592089602343819 -34.334496095032975 -16.35119209003452 #
straight-curve $-1 57.592089602343819 0 16.35119209003452 0 1 0 I I #
point $-1 57.592089602343819 34.334496095032975 16.35119209003452 #
point $-1 -57.592089602343819 34.334496095032975 -16.35119209003452 #
point $-1 57.592089602343819 -34.334496095032975 16.35119209003452 #
point $-1 -57.592089602343819 -34.334496095032975 -16.35119209003452 #
straight-curve $-1 -57.592089602343819 0 -16.35119209003452 0 1 0 I I #
straight-curve $-1 57.592089602343819 34.334496095032975 0 0 0 -1 I I #
straight-curve $-1 57.592089602343819 -34.334496095032975 0 0 0 -1 I I #
End-of-ACIS-data 