500 0 8 0           
7 Unknown 11 ACIS 5.0 NT 24 Thu Mar 25 20:36:19 1999 
-1 9.9999999999999995e-007 1e-010 
body $-1 $8 $-1 $9 #
body $-1 $10 $-1 $11 #
body $-1 $12 $-1 $13 #
body $-1 $14 $-1 $15 #
body $-1 $16 $-1 $17 #
body $-1 $18 $-1 $19 #
body $-1 $20 $-1 $21 #
body $-1 $22 $-1 $23 #
lump $-1 $-1 $24 $0 #
transform $-1 1 0 0 0 1 0 0 0 1 43.33750419629505 24.367906081234132 5.7891903952139421 1 rotate no_reflect no_shear #
lump $-1 $-1 $25 $1 #
transform $-1 1 0 0 0 1 0 0 0 1 3.2816743154104415 24.367906081234132 10.078380790427884 1 rotate no_reflect no_shear #
lump $-1 $-1 $26 $2 #
transform $-1 1 0 0 0 0.48480960649040278 -0.87461971476443456 0 0.87461971476443456 0.48480960649040278 81.192468293320132 100.91589336352396 92.992857731137676 1 rotate no_reflect no_shear #
lump $-1 $-1 $27 $3 #
transform $-1 1 0 0 0 -0.48480960649040278 0.87461971476443456 0 -0.87461971476443456 -0.48480960649040278 81.192468293320132 46.139051161423531 9.0196057073529019 1 rotate no_reflect no_shear #
lump $-1 $-1 $28 $4 #
transform $-1 1 0 0 0 0.62932038083071107 0.77714596973225614 0 -0.77714596973225614 0.62932038083071107 57.936890859944548 -67.35913344881088 60.805838367968335 1 rotate no_reflect no_shear #
lump $-1 $-1 $29 $5 #
transform $-1 1 0 0 0 -0.62932038083071107 -0.77714596973225614 0 0.77714596973225614 -0.62932038083071107 54.582381665445951 3.145666996051685 8.1155561017697053 1 rotate no_reflect no_shear #
lump $-1 $-1 $30 $6 #
transform $-1 1 0 0 0 -0.62932038083071107 -0.77714596973225614 0 0.77714596973225614 -0.62932038083071107 57.936890859944548 3.145666996051685 8.1155561017697053 1 rotate no_reflect no_shear #
lump $-1 $-1 $31 $7 #
transform $-1 1 0 0 0 -0.62932038083071107 -0.77714596973225614 0 0.77714596973225614 -0.62932038083071107 61.291400054443145 3.145666996051685 8.1155561017697053 1 rotate no_reflect no_shear #
shell $-1 $-1 $-1 $32 $-1 $8 #
shell $-1 $-1 $-1 $33 $-1 $10 #
shell $-1 $-1 $-1 $34 $-1 $12 #
shell $-1 $-1 $-1 $35 $-1 $14 #
shell $-1 $-1 $-1 $36 $-1 $16 #
shell $-1 $-1 $-1 $37 $-1 $18 #
shell $-1 $-1 $-1 $38 $-1 $20 #
shell $-1 $-1 $-1 $39 $-1 $22 #
face $-1 $40 $41 $24 $-1 $42 forward single #
face $-1 $43 $44 $25 $-1 $45 forward single #
face $-1 $46 $47 $26 $-1 $48 forward single #
face $-1 $49 $50 $27 $-1 $51 forward single #
face $-1 $52 $53 $28 $-1 $54 forward single #
face $-1 $55 $56 $29 $-1 $57 forward single #
face $-1 $58 $59 $30 $-1 $60 forward single #
face $-1 $61 $62 $31 $-1 $63 forward single #
face $-1 $64 $65 $24 $-1 $66 reversed single #
loop $-1 $-1 $67 $32 #
plane-surface $-1 0 0 5.7891903952139421 0 0 1 1 0 0 forward_v I I I I #
face $-1 $68 $69 $25 $-1 $70 reversed single #
loop $-1 $-1 $71 $33 #
plane-surface $-1 0 0 1.5 0 0 1 1 0 0 forward_v I I I I #
face $-1 $72 $73 $26 $-1 $74 reversed single #
loop $-1 $-1 $75 $34 #
plane-surface $-1 0 0 86.675008392590101 0 0 1 1 0 0 forward_v I I I I #
face $-1 $76 $77 $27 $-1 $78 forward single #
loop $-1 $79 $80 $35 #
cone-surface $-1 0 0 -1.0974684896389659 0 0 1 0.5 0 0 1 I I 0 1 0.5 forward I I I I #
face $-1 $81 $82 $28 $-1 $83 reversed single #
loop $-1 $-1 $84 $36 #
plane-surface $-1 0 0 86.675008392590101 0 0 1 1 0 0 forward_v I I I I #
face $-1 $85 $86 $29 $-1 $87 forward single #
loop $-1 $88 $89 $37 #
cone-surface $-1 0 0 -0.76329081087679729 0 0 1 0.5 0 0 1 I I 0 1 0.5 forward I I I I #
face $-1 $90 $91 $30 $-1 $92 forward single #
loop $-1 $93 $94 $38 #
cone-surface $-1 0 0 -0.76329081087679729 0 0 1 0.5 0 0 1 I I 0 1 0.5 forward I I I I #
face $-1 $95 $96 $31 $-1 $97 forward single #
loop $-1 $98 $99 $39 #
cone-surface $-1 0 0 -0.76329081087679729 0 0 1 0.5 0 0 1 I I 0 1 0.5 forward I I I I #
face $-1 $100 $101 $24 $-1 $102 reversed single #
loop $-1 $-1 $103 $40 #
plane-surface $-1 0 0 -5.7891903952139421 0 0 1 1 0 0 forward_v I I I I #
coedge $-1 $104 $105 $106 $107 forward $41 $-1 #
face $-1 $108 $109 $25 $-1 $110 reversed single #
loop $-1 $-1 $111 $43 #
plane-surface $-1 0 0 -1.5 0 0 1 1 0 0 forward_v I I I I #
coedge $-1 $112 $113 $114 $115 forward $44 $-1 #
face $-1 $116 $117 $26 $-1 $118 reversed single #
loop $-1 $-1 $119 $46 #
plane-surface $-1 0 0 -86.675008392590101 0 0 1 1 0 0 forward_v I I I I #
coedge $-1 $120 $121 $122 $123 forward $47 $-1 #
face $-1 $-1 $124 $27 $-1 $125 forward single #
loop $-1 $-1 $126 $49 #
plane-surface $-1 0 0 -1.9449369792779319 0 0 -1 -1 0 0 forward_v I I I I #
loop $-1 $-1 $127 $35 #
coedge $-1 $80 $80 $126 $128 reversed $50 $-1 #
face $-1 $129 $130 $28 $-1 $131 reversed single #
loop $-1 $-1 $132 $52 #
plane-surface $-1 0 0 -86.675008392590101 0 0 1 1 0 0 forward_v I I I I #
coedge $-1 $133 $134 $135 $136 forward $53 $-1 #
face $-1 $-1 $137 $29 $-1 $138 forward single #
loop $-1 $-1 $139 $55 #
plane-surface $-1 0 0 -1.2765816217535941 0 0 -1 -1 0 0 forward_v I I I I #
loop $-1 $-1 $140 $37 #
coedge $-1 $89 $89 $139 $141 reversed $56 $-1 #
face $-1 $-1 $142 $30 $-1 $143 forward single #
loop $-1 $-1 $144 $58 #
plane-surface $-1 0 0 -1.2765816217535941 0 0 -1 -1 0 0 forward_v I I I I #
loop $-1 $-1 $145 $38 #
coedge $-1 $94 $94 $144 $146 reversed $59 $-1 #
face $-1 $-1 $147 $31 $-1 $148 forward single #
loop $-1 $-1 $149 $61 #
plane-surface $-1 0 0 -1.2765816217535941 0 0 -1 -1 0 0 forward_v I I I I #
loop $-1 $-1 $150 $39 #
coedge $-1 $99 $99 $149 $151 reversed $62 $-1 #
face $-1 $152 $153 $24 $-1 $154 reversed single #
loop $-1 $-1 $155 $64 #
plane-surface $-1 0 -24.367906081234132 0 0 1 0 0 0 1 forward_v I I I I #
coedge $-1 $156 $157 $158 $159 forward $65 $-1 #
coedge $-1 $160 $67 $161 $162 forward $41 $-1 #
coedge $-1 $67 $160 $163 $164 forward $41 $-1 #
coedge $-1 $165 $166 $67 $107 reversed $167 $-1 #
edge $-1 $168 -24.367906081234132 $169 24.367906081234132 $106 $170 forward 7 unknown #
face $-1 $171 $172 $25 $-1 $173 reversed single #
loop $-1 $-1 $174 $68 #
plane-surface $-1 0 -24.367906081234132 0 0 1 0 0 0 1 forward_v I I I I #
coedge $-1 $175 $176 $177 $178 forward $69 $-1 #
coedge $-1 $179 $71 $180 $181 forward $44 $-1 #
coedge $-1 $71 $179 $182 $183 forward $44 $-1 #
coedge $-1 $184 $185 $71 $115 reversed $186 $-1 #
edge $-1 $187 -24.367906081234132 $188 24.367906081234132 $114 $189 forward 7 unknown #
face $-1 $190 $191 $26 $-1 $192 reversed single #
loop $-1 $-1 $193 $72 #
plane-surface $-1 0 -173.3500167851802 0 0 1 0 0 0 1 forward_v I I I I #
coedge $-1 $194 $195 $196 $197 forward $73 $-1 #
coedge $-1 $198 $75 $199 $200 forward $47 $-1 #
coedge $-1 $75 $198 $201 $202 forward $47 $-1 #
coedge $-1 $203 $204 $75 $123 reversed $205 $-1 #
edge $-1 $206 -173.3500167851802 $207 173.3500167851802 $122 $208 forward 7 unknown #
loop $-1 $209 $210 $76 #
cone-surface $-1 0 0 0 0 0 1 0.25 0 0 1 I I -0.70710678118654746 0.70710678118654746 0.25 forward I I I I #
coedge $-1 $126 $126 $80 $128 forward $77 $-1 #
coedge $-1 $127 $127 $210 $211 forward $79 $-1 #
edge $-1 $212 0 $212 6.2831853071796004 $126 $213 forward 7 unknown #
face $-1 $214 $215 $28 $-1 $216 reversed single #
loop $-1 $-1 $217 $81 #
plane-surface $-1 0 -173.3500167851802 0 0 1 0 0 0 1 forward_v I I I I #
coedge $-1 $218 $219 $220 $221 forward $82 $-1 #
coedge $-1 $222 $84 $223 $224 forward $53 $-1 #
coedge $-1 $84 $222 $225 $226 forward $53 $-1 #
coedge $-1 $227 $228 $84 $136 reversed $229 $-1 #
edge $-1 $230 -173.3500167851802 $231 173.3500167851802 $135 $232 forward 7 unknown #
loop $-1 $233 $234 $85 #
cone-surface $-1 0 0 0 0 0 1 0.25 0 0 1 I I -0.70710678118654746 0.70710678118654746 0.25 forward I I I I #
coedge $-1 $139 $139 $89 $141 forward $86 $-1 #
coedge $-1 $140 $140 $234 $235 forward $88 $-1 #
edge $-1 $236 0 $236 6.2831853071796004 $139 $237 forward 7 unknown #
loop $-1 $238 $239 $90 #
cone-surface $-1 0 0 0 0 0 1 0.25 0 0 1 I I -0.70710678118654746 0.70710678118654746 0.25 forward I I I I #
coedge $-1 $144 $144 $94 $146 forward $91 $-1 #
coedge $-1 $145 $145 $239 $240 forward $93 $-1 #
edge $-1 $241 0 $241 6.2831853071796004 $144 $242 forward 7 unknown #
loop $-1 $243 $244 $95 #
cone-surface $-1 0 0 0 0 0 1 0.25 0 0 1 I I -0.70710678118654746 0.70710678118654746 0.25 forward I I I I #
coedge $-1 $149 $149 $99 $151 forward $96 $-1 #
coedge $-1 $150 $150 $244 $245 forward $98 $-1 #
edge $-1 $246 0 $246 6.2831853071796004 $149 $247 forward 7 unknown #
face $-1 $248 $249 $24 $-1 $250 reversed single #
loop $-1 $-1 $251 $100 #
plane-surface $-1 -43.33750419629505 0 0 1 0 0 0 0 -1 forward_v I I I I #
coedge $-1 $252 $163 $253 $254 forward $101 $-1 #
coedge $-1 $255 $103 $252 $256 forward $65 $-1 #
coedge $-1 $103 $255 $257 $258 forward $65 $-1 #
coedge $-1 $166 $165 $103 $159 reversed $167 $-1 #
edge $-1 $259 -24.367906081234132 $260 24.367906081234132 $158 $261 forward 7 unknown #
coedge $-1 $105 $104 $262 $263 forward $41 $-1 #
coedge $-1 $264 $265 $104 $162 reversed $249 $-1 #
edge $-1 $169 -43.33750419629505 $266 43.33750419629505 $161 $267 forward 7 unknown #
coedge $-1 $155 $268 $105 $164 reversed $101 $-1 #
edge $-1 $269 -43.33750419629505 $168 43.33750419629505 $163 $270 forward 7 unknown #
coedge $-1 $158 $106 $268 $271 forward $167 $-1 #
coedge $-1 $106 $158 $264 $272 reversed $167 $-1 #
loop $-1 $-1 $165 $248 #
vertex $-1 $107 $273 #
vertex $-1 $107 $274 #
straight-curve $-1 43.33750419629505 0 5.7891903952139421 0 1 0 I I #
face $-1 $275 $276 $25 $-1 $277 reversed single #
loop $-1 $-1 $278 $108 #
plane-surface $-1 -3.2816743154104415 0 0 1 0 0 0 0 -1 forward_v I I I I #
coedge $-1 $279 $182 $280 $281 forward $109 $-1 #
coedge $-1 $282 $111 $279 $283 forward $69 $-1 #
coedge $-1 $111 $282 $284 $285 forward $69 $-1 #
coedge $-1 $185 $184 $111 $178 reversed $186 $-1 #
edge $-1 $286 -24.367906081234132 $287 24.367906081234132 $177 $288 forward 7 unknown #
coedge $-1 $113 $112 $289 $290 forward $44 $-1 #
coedge $-1 $291 $292 $112 $181 reversed $276 $-1 #
edge $-1 $188 -3.2816743154104415 $293 3.2816743154104415 $180 $294 forward 7 unknown #
coedge $-1 $174 $295 $113 $183 reversed $109 $-1 #
edge $-1 $296 -3.2816743154104415 $187 3.2816743154104415 $182 $297 forward 7 unknown #
coedge $-1 $177 $114 $295 $298 forward $186 $-1 #
coedge $-1 $114 $177 $291 $299 reversed $186 $-1 #
loop $-1 $-1 $184 $275 #
vertex $-1 $115 $300 #
vertex $-1 $115 $301 #
straight-curve $-1 3.2816743154104415 0 1.5 0 1 0 I I #
face $-1 $302 $303 $26 $-1 $304 reversed single #
loop $-1 $-1 $305 $116 #
plane-surface $-1 -5.4825400992699755 0 0 1 0 0 0 0 -1 forward_v I I I I #
coedge $-1 $306 $201 $307 $308 forward $117 $-1 #
coedge $-1 $309 $119 $306 $310 forward $73 $-1 #
coedge $-1 $119 $309 $311 $312 forward $73 $-1 #
coedge $-1 $204 $203 $119 $197 reversed $205 $-1 #
edge $-1 $313 -173.3500167851802 $314 173.3500167851802 $196 $315 forward 7 unknown #
coedge $-1 $121 $120 $316 $317 forward $47 $-1 #
coedge $-1 $318 $319 $120 $200 reversed $303 $-1 #
edge $-1 $207 -5.4825400992699755 $320 5.4825400992699755 $199 $321 forward 7 unknown #
coedge $-1 $193 $322 $121 $202 reversed $117 $-1 #
edge $-1 $323 -5.4825400992699755 $206 5.4825400992699755 $201 $324 forward 7 unknown #
coedge $-1 $196 $122 $322 $325 forward $205 $-1 #
coedge $-1 $122 $196 $318 $326 reversed $205 $-1 #
loop $-1 $-1 $203 $302 #
vertex $-1 $123 $327 #
vertex $-1 $123 $328 #
straight-curve $-1 5.4825400992699755 0 86.675008392590101 0 1 0 I I #
loop $-1 $-1 $329 $76 #
coedge $-1 $210 $210 $127 $211 reversed $124 $-1 #
edge $-1 $330 0 $330 6.2831853071796004 $210 $331 forward 7 unknown #
vertex $-1 $128 $332 #
ellipse-curve $-1 0 0 -1.9449369792779319 0 0 -1 0.5 0 0 1 I I #
face $-1 $333 $334 $28 $-1 $335 reversed single #
loop $-1 $-1 $336 $129 #
plane-surface $-1 -5.5908486574976592 0 0 1 0 0 0 0 -1 forward_v I I I I #
coedge $-1 $337 $225 $338 $339 forward $130 $-1 #
coedge $-1 $340 $132 $337 $341 forward $82 $-1 #
coedge $-1 $132 $340 $342 $343 forward $82 $-1 #
coedge $-1 $228 $227 $132 $221 reversed $229 $-1 #
edge $-1 $344 -173.3500167851802 $345 173.3500167851802 $220 $346 forward 7 unknown #
coedge $-1 $134 $133 $347 $348 forward $53 $-1 #
coedge $-1 $349 $350 $133 $224 reversed $334 $-1 #
edge $-1 $231 -5.5908486574976592 $351 5.5908486574976592 $223 $352 forward 7 unknown #
coedge $-1 $217 $353 $134 $226 reversed $130 $-1 #
edge $-1 $354 -5.5908486574976592 $230 5.5908486574976592 $225 $355 forward 7 unknown #
coedge $-1 $220 $135 $353 $356 forward $229 $-1 #
coedge $-1 $135 $220 $349 $357 reversed $229 $-1 #
loop $-1 $-1 $227 $333 #
vertex $-1 $136 $358 #
vertex $-1 $136 $359 #
straight-curve $-1 5.5908486574976592 0 86.675008392590101 0 1 0 I I #
loop $-1 $-1 $360 $85 #
coedge $-1 $234 $234 $140 $235 reversed $137 $-1 #
edge $-1 $361 0 $361 6.2831853071796004 $234 $362 forward 7 unknown #
vertex $-1 $141 $363 #
ellipse-curve $-1 0 0 -1.2765816217535941 0 0 -1 0.5 0 0 1 I I #
loop $-1 $-1 $364 $90 #
coedge $-1 $239 $239 $145 $240 reversed $142 $-1 #
edge $-1 $365 0 $365 6.2831853071796004 $239 $366 forward 7 unknown #
vertex $-1 $146 $367 #
ellipse-curve $-1 0 0 -1.2765816217535941 0 0 -1 0.5 0 0 1 I I #
loop $-1 $-1 $368 $95 #
coedge $-1 $244 $244 $150 $245 reversed $147 $-1 #
edge $-1 $369 0 $369 6.2831853071796004 $244 $370 forward 7 unknown #
vertex $-1 $151 $371 #
ellipse-curve $-1 0 0 -1.2765816217535941 0 0 -1 0.5 0 0 1 I I #
face $-1 $-1 $167 $24 $-1 $372 reversed single #
loop $-1 $-1 $264 $152 #
plane-surface $-1 0 24.367906081234132 0 0 -1 0 0 0 -1 forward_v I I I I #
coedge $-1 $373 $262 $265 $374 forward $153 $-1 #
coedge $-1 $268 $155 $156 $256 reversed $101 $-1 #
coedge $-1 $262 $373 $155 $254 reversed $153 $-1 #
edge $-1 $269 -5.7891903952139421 $375 5.7891903952139421 $253 $376 forward 7 unknown #
coedge $-1 $157 $156 $373 $377 forward $65 $-1 #
edge $-1 $260 -43.33750419629505 $375 43.33750419629505 $252 $378 forward 7 unknown #
coedge $-1 $265 $264 $157 $258 reversed $249 $-1 #
edge $-1 $379 -43.33750419629505 $259 43.33750419629505 $257 $380 forward 7 unknown #
vertex $-1 $159 $381 #
vertex $-1 $271 $382 #
straight-curve $-1 43.33750419629505 0 -5.7891903952139421 0 -1 0 I I #
coedge $-1 $251 $253 $160 $263 reversed $153 $-1 #
edge $-1 $266 -24.367906081234132 $269 24.367906081234132 $262 $383 forward 7 unknown #
coedge $-1 $257 $161 $166 $272 forward $249 $-1 #
coedge $-1 $161 $257 $251 $374 reversed $249 $-1 #
vertex $-1 $162 $384 #
straight-curve $-1 0 24.367906081234132 5.7891903952139421 -1 0 0 I I #
coedge $-1 $163 $252 $165 $271 reversed $101 $-1 #
vertex $-1 $263 $385 #
straight-curve $-1 0 -24.367906081234132 5.7891903952139421 1 0 0 I I #
edge $-1 $168 -5.7891903952139421 $260 5.7891903952139421 $165 $386 forward 7 unknown #
edge $-1 $169 -5.7891903952139421 $259 5.7891903952139421 $166 $387 forward 7 unknown #
point $-1 43.33750419629505 -24.367906081234132 5.7891903952139421 #
point $-1 43.33750419629505 24.367906081234132 5.7891903952139421 #
face $-1 $-1 $186 $25 $-1 $388 reversed single #
loop $-1 $-1 $291 $171 #
plane-surface $-1 0 24.367906081234132 0 0 -1 0 0 0 -1 forward_v I I I I #
coedge $-1 $389 $289 $292 $390 forward $172 $-1 #
coedge $-1 $295 $174 $175 $283 reversed $109 $-1 #
coedge $-1 $289 $389 $174 $281 reversed $172 $-1 #
edge $-1 $296 -1.5 $391 1.5 $280 $392 forward 7 unknown #
coedge $-1 $176 $175 $389 $393 forward $69 $-1 #
edge $-1 $287 -3.2816743154104415 $391 3.2816743154104415 $279 $394 forward 7 unknown #
coedge $-1 $292 $291 $176 $285 reversed $276 $-1 #
edge $-1 $395 -3.2816743154104415 $286 3.2816743154104415 $284 $396 forward 7 unknown #
vertex $-1 $178 $397 #
vertex $-1 $298 $398 #
straight-curve $-1 3.2816743154104415 0 -1.5 0 -1 0 I I #
coedge $-1 $278 $280 $179 $290 reversed $172 $-1 #
edge $-1 $293 -24.367906081234132 $296 24.367906081234132 $289 $399 forward 7 unknown #
coedge $-1 $284 $180 $185 $299 forward $276 $-1 #
coedge $-1 $180 $284 $278 $390 reversed $276 $-1 #
vertex $-1 $181 $400 #
straight-curve $-1 0 24.367906081234132 1.5 -1 0 0 I I #
coedge $-1 $182 $279 $184 $298 reversed $109 $-1 #
vertex $-1 $290 $401 #
straight-curve $-1 0 -24.367906081234132 1.5 1 0 0 I I #
edge $-1 $187 -1.5 $287 1.5 $184 $402 forward 7 unknown #
edge $-1 $188 -1.5 $286 1.5 $185 $403 forward 7 unknown #
point $-1 3.2816743154104415 -24.367906081234132 1.5 #
point $-1 3.2816743154104415 24.367906081234132 1.5 #
face $-1 $-1 $205 $26 $-1 $404 reversed single #
loop $-1 $-1 $318 $190 #
plane-surface $-1 0 173.3500167851802 0 0 -1 0 0 0 -1 forward_v I I I I #
coedge $-1 $405 $316 $319 $406 forward $191 $-1 #
coedge $-1 $322 $193 $194 $310 reversed $117 $-1 #
coedge $-1 $316 $405 $193 $308 reversed $191 $-1 #
edge $-1 $323 -86.675008392590101 $407 86.675008392590101 $307 $408 forward 7 unknown #
coedge $-1 $195 $194 $405 $409 forward $73 $-1 #
edge $-1 $314 -5.4825400992699755 $407 5.4825400992699755 $306 $410 forward 7 unknown #
coedge $-1 $319 $318 $195 $312 reversed $303 $-1 #
edge $-1 $411 -5.4825400992699755 $313 5.4825400992699755 $311 $412 forward 7 unknown #
vertex $-1 $197 $413 #
vertex $-1 $325 $414 #
straight-curve $-1 5.4825400992699755 0 -86.675008392590101 0 -1 0 I I #
coedge $-1 $305 $307 $198 $317 reversed $191 $-1 #
edge $-1 $320 -173.3500167851802 $323 173.3500167851802 $316 $415 forward 7 unknown #
coedge $-1 $311 $199 $204 $326 forward $303 $-1 #
coedge $-1 $199 $311 $305 $406 reversed $303 $-1 #
vertex $-1 $200 $416 #
straight-curve $-1 0 173.3500167851802 86.675008392590101 -1 0 0 I I #
coedge $-1 $201 $306 $203 $325 reversed $117 $-1 #
vertex $-1 $317 $417 #
straight-curve $-1 0 -173.3500167851802 86.675008392590101 1 0 0 I I #
edge $-1 $206 -86.675008392590101 $314 86.675008392590101 $203 $418 forward 7 unknown #
edge $-1 $207 -86.675008392590101 $313 86.675008392590101 $204 $419 forward 7 unknown #
point $-1 5.4825400992699755 -173.3500167851802 86.675008392590101 #
point $-1 5.4825400992699755 173.3500167851802 86.675008392590101 #
coedge $-1 $329 $329 $-1 $420 reversed $209 $-1 #
vertex $-1 $211 $421 #
ellipse-curve $-1 0 0 -0.25 0 0 -1 0.5 0 0 1 I I #
point $-1 0.5 0 -1.9449369792779319 #
face $-1 $-1 $229 $28 $-1 $422 reversed single #
loop $-1 $-1 $349 $214 #
plane-surface $-1 0 173.3500167851802 0 0 -1 0 0 0 -1 forward_v I I I I #
coedge $-1 $423 $347 $350 $424 forward $215 $-1 #
coedge $-1 $353 $217 $218 $341 reversed $130 $-1 #
coedge $-1 $347 $423 $217 $339 reversed $215 $-1 #
edge $-1 $354 -86.675008392590101 $425 86.675008392590101 $338 $426 forward 7 unknown #
coedge $-1 $219 $218 $423 $427 forward $82 $-1 #
edge $-1 $345 -5.5908486574976592 $425 5.5908486574976592 $337 $428 forward 7 unknown #
coedge $-1 $350 $349 $219 $343 reversed $334 $-1 #
edge $-1 $429 -5.5908486574976592 $344 5.5908486574976592 $342 $430 forward 7 unknown #
vertex $-1 $221 $431 #
vertex $-1 $356 $432 #
straight-curve $-1 5.5908486574976592 0 -86.675008392590101 0 -1 0 I I #
coedge $-1 $336 $338 $222 $348 reversed $215 $-1 #
edge $-1 $351 -173.3500167851802 $354 173.3500167851802 $347 $433 forward 7 unknown #
coedge $-1 $342 $223 $228 $357 forward $334 $-1 #
coedge $-1 $223 $342 $336 $424 reversed $334 $-1 #
vertex $-1 $224 $434 #
straight-curve $-1 0 173.3500167851802 86.675008392590101 -1 0 0 I I #
coedge $-1 $225 $337 $227 $356 reversed $130 $-1 #
vertex $-1 $348 $435 #
straight-curve $-1 0 -173.3500167851802 86.675008392590101 1 0 0 I I #
edge $-1 $230 -86.675008392590101 $345 86.675008392590101 $227 $436 forward 7 unknown #
edge $-1 $231 -86.675008392590101 $344 86.675008392590101 $228 $437 forward 7 unknown #
point $-1 5.5908486574976592 -173.3500167851802 86.675008392590101 #
point $-1 5.5908486574976592 173.3500167851802 86.675008392590101 #
coedge $-1 $360 $360 $-1 $438 reversed $233 $-1 #
vertex $-1 $235 $439 #
ellipse-curve $-1 0 0 -0.25 0 0 -1 0.5 0 0 1 I I #
point $-1 0.5 0 -1.2765816217535941 #
coedge $-1 $364 $364 $-1 $440 reversed $238 $-1 #
vertex $-1 $240 $441 #
ellipse-curve $-1 0 0 -0.25 0 0 -1 0.5 0 0 1 I I #
point $-1 0.5 0 -1.2765816217535941 #
coedge $-1 $368 $368 $-1 $442 reversed $243 $-1 #
vertex $-1 $245 $443 #
ellipse-curve $-1 0 0 -0.25 0 0 -1 0.5 0 0 1 I I #
point $-1 0.5 0 -1.2765816217535941 #
plane-surface $-1 43.33750419629505 0 0 -1 0 0 0 0 1 forward_v I I I I #
coedge $-1 $253 $251 $255 $377 reversed $153 $-1 #
edge $-1 $266 -5.7891903952139421 $379 5.7891903952139421 $265 $444 forward 7 unknown #
vertex $-1 $377 $445 #
straight-curve $-1 -43.33750419629505 -24.367906081234132 0 0 0 -1 I I #
edge $-1 $375 -24.367906081234132 $379 24.367906081234132 $373 $446 forward 7 unknown #
straight-curve $-1 0 -24.367906081234132 -5.7891903952139421 -1 0 0 I I #
vertex $-1 $258 $447 #
straight-curve $-1 0 24.367906081234132 -5.7891903952139421 1 0 0 I I #
point $-1 43.33750419629505 24.367906081234132 -5.7891903952139421 #
point $-1 43.33750419629505 -24.367906081234132 -5.7891903952139421 #
straight-curve $-1 -43.33750419629505 0 5.7891903952139421 0 -1 0 I I #
point $-1 -43.33750419629505 24.367906081234132 5.7891903952139421 #
point $-1 -43.33750419629505 -24.367906081234132 5.7891903952139421 #
straight-curve $-1 43.33750419629505 -24.367906081234132 0 0 0 -1 I I #
straight-curve $-1 43.33750419629505 24.367906081234132 0 0 0 -1 I I #
plane-surface $-1 3.2816743154104415 0 0 -1 0 0 0 0 1 forward_v I I I I #
coedge $-1 $280 $278 $282 $393 reversed $172 $-1 #
edge $-1 $293 -1.5 $395 1.5 $292 $448 forward 7 unknown #
vertex $-1 $393 $449 #
straight-curve $-1 -3.2816743154104415 -24.367906081234132 0 0 0 -1 I I #
edge $-1 $391 -24.367906081234132 $395 24.367906081234132 $389 $450 forward 7 unknown #
straight-curve $-1 0 -24.367906081234132 -1.5 -1 0 0 I I #
vertex $-1 $285 $451 #
straight-curve $-1 0 24.367906081234132 -1.5 1 0 0 I I #
point $-1 3.2816743154104415 24.367906081234132 -1.5 #
point $-1 3.2816743154104415 -24.367906081234132 -1.5 #
straight-curve $-1 -3.2816743154104415 0 1.5 0 -1 0 I I #
point $-1 -3.2816743154104415 24.367906081234132 1.5 #
point $-1 -3.2816743154104415 -24.367906081234132 1.5 #
straight-curve $-1 3.2816743154104415 -24.367906081234132 0 0 0 -1 I I #
straight-curve $-1 3.2816743154104415 24.367906081234132 0 0 0 -1 I I #
plane-surface $-1 5.4825400992699755 0 0 -1 0 0 0 0 1 forward_v I I I I #
coedge $-1 $307 $305 $309 $409 reversed $191 $-1 #
edge $-1 $320 -86.675008392590101 $411 86.675008392590101 $319 $452 forward 7 unknown #
vertex $-1 $409 $453 #
straight-curve $-1 -5.4825400992699755 -173.3500167851802 0 0 0 -1 I I #
edge $-1 $407 -173.3500167851802 $411 173.3500167851802 $405 $454 forward 7 unknown #
straight-curve $-1 0 -173.3500167851802 -86.675008392590101 -1 0 0 I I #
vertex $-1 $312 $455 #
straight-curve $-1 0 173.3500167851802 -86.675008392590101 1 0 0 I I #
point $-1 5.4825400992699755 173.3500167851802 -86.675008392590101 #
point $-1 5.4825400992699755 -173.3500167851802 -86.675008392590101 #
straight-curve $-1 -5.4825400992699755 0 86.675008392590101 0 -1 0 I I #
point $-1 -5.4825400992699755 173.3500167851802 86.675008392590101 #
point $-1 -5.4825400992699755 -173.3500167851802 86.675008392590101 #
straight-curve $-1 5.4825400992699755 -173.3500167851802 0 0 0 -1 I I #
straight-curve $-1 5.4825400992699755 173.3500167851802 0 0 0 -1 I I #
edge $-1 $456 1 $456 0 $329 $-1 forward 7 unknown #
point $-1 0.5 0 -0.25 #
plane-surface $-1 5.5908486574976592 0 0 -1 0 0 0 0 1 forward_v I I I I #
coedge $-1 $338 $336 $340 $427 reversed $215 $-1 #
edge $-1 $351 -86.675008392590101 $429 86.675008392590101 $350 $457 forward 7 unknown #
vertex $-1 $427 $458 #
straight-curve $-1 -5.5908486574976592 -173.3500167851802 0 0 0 -1 I I #
edge $-1 $425 -173.3500167851802 $429 173.3500167851802 $423 $459 forward 7 unknown #
straight-curve $-1 0 -173.3500167851802 -86.675008392590101 -1 0 0 I I #
vertex $-1 $343 $460 #
straight-curve $-1 0 173.3500167851802 -86.675008392590101 1 0 0 I I #
point $-1 5.5908486574976592 173.3500167851802 -86.675008392590101 #
point $-1 5.5908486574976592 -173.3500167851802 -86.675008392590101 #
straight-curve $-1 -5.5908486574976592 0 86.675008392590101 0 -1 0 I I #
point $-1 -5.5908486574976592 173.3500167851802 86.675008392590101 #
point $-1 -5.5908486574976592 -173.3500167851802 86.675008392590101 #
straight-curve $-1 5.5908486574976592 -173.3500167851802 0 0 0 -1 I I #
straight-curve $-1 5.5908486574976592 173.3500167851802 0 0 0 -1 I I #
edge $-1 $461 1 $461 0 $360 $-1 forward 7 unknown #
point $-1 0.5 0 -0.25 #
edge $-1 $462 1 $462 0 $364 $-1 forward 7 unknown #
point $-1 0.5 0 -0.25 #
edge $-1 $463 1 $463 0 $368 $-1 forward 7 unknown #
point $-1 0.5 0 -0.25 #
straight-curve $-1 -43.33750419629505 24.367906081234132 0 0 0 -1 I I #
point $-1 -43.33750419629505 -24.367906081234132 -5.7891903952139421 #
straight-curve $-1 -43.33750419629505 0 -5.7891903952139421 0 1 0 I I #
point $-1 -43.33750419629505 24.367906081234132 -5.7891903952139421 #
straight-curve $-1 -3.2816743154104415 24.367906081234132 0 0 0 -1 I I #
point $-1 -3.2816743154104415 -24.367906081234132 -1.5 #
straight-curve $-1 -3.2816743154104415 0 -1.5 0 1 0 I I #
point $-1 -3.2816743154104415 24.367906081234132 -1.5 #
straight-curve $-1 -5.4825400992699755 173.3500167851802 0 0 0 -1 I I #
point $-1 -5.4825400992699755 -173.3500167851802 -86.675008392590101 #
straight-curve $-1 -5.4825400992699755 0 -86.675008392590101 0 1 0 I I #
point $-1 -5.4825400992699755 173.3500167851802 -86.675008392590101 #
vertex $-1 $420 $464 #
straight-curve $-1 -5.5908486574976592 173.3500167851802 0 0 0 -1 I I #
point $-1 -5.5908486574976592 -173.3500167851802 -86.675008392590101 #
straight-curve $-1 -5.5908486574976592 0 -86.675008392590101 0 1 0 I I #
point $-1 -5.5908486574976592 173.3500167851802 -86.675008392590101 #
vertex $-1 $438 $465 #
vertex $-1 $440 $466 #
vertex $-1 $442 $467 #
point $-1 0 0 0.25 #
point $-1 0 0 0.25 #
point $-1 0 0 0.25 #
point $-1 0 0 0.25 #
End-of-ACIS-data 