500 0 6 0           
7 Unknown 11 ACIS 5.0 NT 24 Fri Mar 26 03:25:17 1999 
-1 9.9999999999999995e-007 1e-010 
body $-1 $6 $-1 $7 #
body $-1 $8 $-1 $9 #
body $-1 $10 $-1 $11 #
body $-1 $12 $-1 $13 #
body $-1 $14 $-1 $15 #
body $-1 $16 $-1 $17 #
lump $-1 $-1 $18 $0 #
transform $-1 1 0 0 0 1 0 0 0 1 76.852931302835174 51.036707209988506 16.529494662168705 1 rotate no_reflect no_shear #
lump $-1 $-1 $19 $1 #
transform $-1 1 0 0 0 1 0 0 0 1 76.852931302835174 51.036707209988506 16.529494662168705 1 rotate no_reflect no_shear #
lump $-1 $-1 $20 $2 #
transform $-1 1 0 0 0 1 0 0 0 1 76.852931302835174 51.036707209988506 16.529494662168705 1 rotate no_reflect no_shear #
lump $-1 $-1 $21 $3 #
transform $-1 1 0 0 0 1 0 0 0 1 76.852931302835174 51.036707209988506 16.529494662168705 1 rotate no_reflect no_shear #
lump $-1 $-1 $22 $4 #
transform $-1 1 0 0 0 1 0 0 0 1 76.852931302835174 51.036707209988506 16.529494662168705 1 rotate no_reflect no_shear #
lump $-1 $-1 $23 $5 #
transform $-1 1 0 0 0 1 0 0 0 1 76.852931302835174 51.036707209988506 16.529494662168705 1 rotate no_reflect no_shear #
shell $-1 $-1 $-1 $24 $-1 $6 #
shell $-1 $-1 $-1 $25 $-1 $8 #
shell $-1 $-1 $-1 $26 $-1 $10 #
shell $-1 $-1 $-1 $27 $-1 $12 #
shell $-1 $-1 $-1 $28 $-1 $14 #
shell $-1 $-1 $-1 $29 $-1 $16 #
face $-1 $30 $31 $18 $-1 $32 forward single #
face $-1 $33 $34 $19 $-1 $35 reversed single #
face $-1 $36 $37 $20 $-1 $38 forward single #
face $-1 $39 $40 $21 $-1 $41 forward single #
face $-1 $42 $43 $22 $-1 $44 reversed single #
face $-1 $45 $46 $23 $-1 $47 forward single #
face $-1 $48 $49 $18 $-1 $50 reversed single #
loop $-1 $-1 $51 $24 #
plane-surface $-1 0 0 16.529494662168705 0 0 1 1 0 0 forward_v I I I I #
face $-1 $52 $53 $19 $-1 $54 reversed single #
loop $-1 $-1 $55 $25 #
plane-surface $-1 23.776363753402975 -145.66748653471547 134.10014484591377 -1 0 0 0 -0.61566148304635926 0.78801074757464917 forward_v I I I I #
face $-1 $56 $57 $20 $-1 $58 forward single #
loop $-1 $59 $60 $26 #
cone-surface $-1 0.080414629206558175 -47.537469188304421 13.183958809205524 0 0.61566148304635926 -0.78801074757464917 1 0 0 1 I I 0 1 1 forward I I I I #
face $-1 $61 $62 $21 $-1 $63 forward single #
loop $-1 $64 $65 $27 #
cone-surface $-1 14.297984103724403 -47.537469188304421 13.183958809205524 0 0.61566148304635926 -0.78801074757464917 1 0 0 1 I I 0 1 1 forward I I I I #
face $-1 $66 $67 $22 $-1 $68 reversed single #
loop $-1 $-1 $69 $28 #
plane-surface $-1 -25.328789074789281 87.546363549830645 183.91500482991421 1 0 0 0 -0.70710678939079041 -0.70710677298230451 forward_v I I I I #
face $-1 $70 $71 $23 $-1 $72 forward single #
loop $-1 $73 $74 $29 #
cone-surface $-1 -8.3405549758615223 41.948326374253263 7.4411137245776819 0 -0.70710678939079041 -0.70710677298230451 2.5 0 0 1 I I 0 1 2.5 forward I I I I #
face $-1 $75 $76 $18 $-1 $77 reversed single #
loop $-1 $-1 $78 $30 #
plane-surface $-1 0 0 -16.529494662168705 0 0 1 1 0 0 forward_v I I I I #
coedge $-1 $79 $80 $81 $82 forward $31 $-1 #
face $-1 $83 $84 $19 $-1 $85 reversed single #
loop $-1 $-1 $86 $33 #
plane-surface $-1 7.1891993664654876 -51.036707209988521 12.978273147413177 0 -0.61566148304635926 0.78801074757464917 1 0 0 forward_v I I I I #
coedge $-1 $87 $88 $89 $90 reversed $34 $-1 #
face $-1 $-1 $91 $20 $-1 $92 forward single #
loop $-1 $93 $94 $36 #
cone-surface $-1 0.080414629206558175 -46.003078510137428 11.220028339832798 0 0.61566148304635926 -0.78801074757464917 0.5 0 0 1 I I -0.70710678118654746 0.70710678118654746 0.5 forward I I I I #
loop $-1 $-1 $95 $26 #
coedge $-1 $60 $60 $96 $97 reversed $37 $-1 #
face $-1 $-1 $98 $21 $-1 $99 forward single #
loop $-1 $100 $101 $39 #
cone-surface $-1 14.297984103724403 -46.003078510137428 11.220028339832798 0 0.61566148304635926 -0.78801074757464917 0.5 0 0 1 I I -0.70710678118654746 0.70710678118654746 0.5 forward I I I I #
loop $-1 $-1 $102 $27 #
coedge $-1 $65 $65 $103 $104 reversed $40 $-1 #
face $-1 $105 $106 $22 $-1 $107 reversed single #
loop $-1 $-1 $108 $42 #
plane-surface $-1 -8.3405549758615365 -21.140095467806859 75.228548334357185 0 0.70710678939079041 0.70710677298230451 1 0 0 forward_v I I I I #
coedge $-1 $109 $110 $111 $112 reversed $43 $-1 #
face $-1 $-1 $113 $23 $-1 $114 forward single #
loop $-1 $115 $116 $45 #
cone-surface $-1 -8.3405549758615223 38.714937235641784 4.2077246609973322 0 -0.70710678939079041 -0.70710677298230451 1.25 0 0 1 I I -0.70710678118654746 0.70710678118654746 1.25 forward I I I I #
loop $-1 $-1 $117 $29 #
coedge $-1 $74 $74 $118 $119 reversed $46 $-1 #
face $-1 $120 $121 $18 $-1 $122 reversed single #
loop $-1 $-1 $123 $48 #
plane-surface $-1 0 -51.036707209988506 0 0 1 0 0 0 1 forward_v I I I I #
coedge $-1 $124 $125 $126 $127 forward $49 $-1 #
coedge $-1 $128 $51 $129 $130 forward $31 $-1 #
coedge $-1 $51 $128 $131 $132 forward $31 $-1 #
coedge $-1 $133 $134 $51 $82 reversed $135 $-1 #
edge $-1 $136 -51.036707209988506 $137 51.036707209988506 $81 $138 forward 7 unknown #
face $-1 $139 $140 $19 $-1 $141 reversed single #
loop $-1 $-1 $142 $52 #
plane-surface $-1 -9.3979650204720002 -145.66748653471547 134.10014484591377 1 0 0 0 0.61566148304635926 -0.78801074757464917 forward_v I I I I #
coedge $-1 $143 $144 $145 $146 reversed $53 $-1 #
coedge $-1 $88 $55 $147 $148 reversed $34 $-1 #
coedge $-1 $55 $87 $143 $149 reversed $34 $-1 #
coedge $-1 $145 $150 $55 $90 forward $151 $-1 #
edge $-1 $152 21.797036057369226 $153 26.342392227449714 $89 $154 forward 7 unknown #
loop $-1 $-1 $96 $56 #
plane-surface $-1 7.1891993664654876 -51.036707209988521 12.978273147413177 0 -0.61566148304635926 0.78801074757464917 1 0 0 forward_v I I I I #
loop $-1 $-1 $155 $36 #
coedge $-1 $94 $94 $95 $156 reversed $57 $-1 #
coedge $-1 $95 $95 $94 $156 forward $59 $-1 #
coedge $-1 $96 $96 $60 $97 forward $91 $-1 #
edge $-1 $157 -3.0189420723400609e-015 $157 6.2831853071795978 $96 $158 forward 7 unknown #
loop $-1 $-1 $103 $61 #
plane-surface $-1 7.1891993664654876 -51.036707209988521 12.978273147413177 0 -0.61566148304635926 0.78801074757464917 1 0 0 forward_v I I I I #
loop $-1 $-1 $159 $39 #
coedge $-1 $101 $101 $102 $160 reversed $62 $-1 #
coedge $-1 $102 $102 $101 $160 forward $64 $-1 #
coedge $-1 $103 $103 $65 $104 forward $98 $-1 #
edge $-1 $161 -3.0189420723400609e-015 $161 6.2831853071795978 $103 $162 forward 7 unknown #
face $-1 $163 $164 $22 $-1 $165 reversed single #
loop $-1 $-1 $166 $66 #
plane-surface $-1 8.647679123066208 87.546363549830645 183.91500482991421 -1 0 0 0 0.70710678939079041 0.70710677298230451 forward_v I I I I #
coedge $-1 $167 $168 $169 $170 reversed $67 $-1 #
coedge $-1 $110 $69 $171 $172 reversed $43 $-1 #
coedge $-1 $69 $109 $167 $173 reversed $43 $-1 #
coedge $-1 $169 $174 $69 $112 forward $175 $-1 #
edge $-1 $176 -7.2635254350731842 $177 6.214224932651284 $111 $178 forward 7 unknown #
loop $-1 $-1 $118 $70 #
plane-surface $-1 -8.3405549758615365 -21.140095467806859 75.228548334357185 0 0.70710678939079041 0.70710677298230451 1 0 0 forward_v I I I I #
loop $-1 $-1 $179 $45 #
coedge $-1 $116 $116 $117 $180 reversed $71 $-1 #
coedge $-1 $117 $117 $116 $180 forward $73 $-1 #
coedge $-1 $118 $118 $74 $119 forward $113 $-1 #
edge $-1 $181 -1.0048589986736585e-015 $181 6.2831853071795996 $118 $182 forward 7 unknown #
face $-1 $183 $184 $18 $-1 $185 reversed single #
loop $-1 $-1 $186 $75 #
plane-surface $-1 -76.852931302835174 0 0 1 0 0 0 0 -1 forward_v I I I I #
coedge $-1 $187 $131 $188 $189 forward $76 $-1 #
coedge $-1 $190 $78 $187 $191 forward $49 $-1 #
coedge $-1 $78 $190 $192 $193 forward $49 $-1 #
coedge $-1 $134 $133 $78 $127 reversed $135 $-1 #
edge $-1 $194 -51.036707209988506 $195 51.036707209988506 $126 $196 forward 7 unknown #
coedge $-1 $80 $79 $197 $198 forward $31 $-1 #
coedge $-1 $199 $200 $79 $130 reversed $184 $-1 #
edge $-1 $137 -76.852931302835174 $201 76.852931302835174 $129 $202 forward 7 unknown #
coedge $-1 $123 $203 $80 $132 reversed $76 $-1 #
edge $-1 $204 -76.852931302835174 $136 76.852931302835174 $131 $205 forward 7 unknown #
coedge $-1 $126 $81 $203 $206 forward $135 $-1 #
coedge $-1 $81 $126 $199 $207 reversed $135 $-1 #
loop $-1 $-1 $133 $183 #
vertex $-1 $82 $208 #
vertex $-1 $82 $209 #
straight-curve $-1 76.852931302835174 0 16.529494662168705 0 1 0 I I #
face $-1 $-1 $151 $19 $-1 $210 forward single #
loop $-1 $-1 $211 $83 #
plane-surface $-1 0 -51.036707209988506 0 0 1 0 0 0 1 forward_v I I I I #
coedge $-1 $212 $213 $214 $215 reversed $84 $-1 #
coedge $-1 $216 $86 $88 $149 forward $53 $-1 #
coedge $-1 $86 $216 $212 $217 forward $53 $-1 #
coedge $-1 $214 $89 $86 $146 forward $151 $-1 #
edge $-1 $153 -20.181764070170232 $218 12.992564703704744 $145 $219 forward 7 unknown #
coedge $-1 $220 $221 $87 $148 forward $140 $-1 #
edge $-1 $222 -54.071799275543697 $152 -50.520577760788186 $147 $223 forward 7 unknown #
edge $-1 $153 -5.7681398179787085 $222 -1.7760113164789269e-014 $88 $224 forward 7 unknown #
coedge $-1 $89 $214 $220 $225 forward $151 $-1 #
loop $-1 $-1 $214 $139 #
vertex $-1 $148 $226 #
vertex $-1 $90 $227 #
straight-curve $-1 23.776363753402975 -72.833743267357733 16.529494662168702 0 1 0 I I #
coedge $-1 $155 $155 $-1 $228 reversed $93 $-1 #
edge $-1 $229 0 $229 6.2831853071796004 $94 $230 forward 7 unknown #
vertex $-1 $97 $231 #
ellipse-curve $-1 0.080414629206558175 -48.764029124948252 14.753883904790952 0 -0.61566148304635926 0.78801074757464917 1 0 0 1 I I #
coedge $-1 $159 $159 $-1 $232 reversed $100 $-1 #
edge $-1 $233 0 $233 6.2831853071796004 $101 $234 forward 7 unknown #
vertex $-1 $104 $235 #
ellipse-curve $-1 14.297984103724403 -48.764029124948252 14.753883904790952 0 -0.61566148304635926 0.78801074757464917 1 0 0 1 I I #
face $-1 $-1 $175 $22 $-1 $236 forward single #
loop $-1 $-1 $237 $105 #
plane-surface $-1 0 51.036707209988506 0 0 -1 0 0 0 -1 forward_v I I I I #
coedge $-1 $238 $239 $240 $241 reversed $106 $-1 #
coedge $-1 $242 $108 $110 $173 forward $67 $-1 #
coedge $-1 $108 $242 $238 $243 forward $67 $-1 #
coedge $-1 $240 $111 $108 $170 forward $175 $-1 #
edge $-1 $177 -21.158511586858513 $244 12.817956610996976 $169 $245 forward 7 unknown #
coedge $-1 $246 $247 $109 $172 forward $164 $-1 #
edge $-1 $248 -88.905758433265461 $176 -75.428007752788403 $171 $249 forward 7 unknown #
edge $-1 $177 83.012996838512635 $248 102.07341441997703 $110 $250 forward 7 unknown #
coedge $-1 $111 $240 $246 $251 forward $175 $-1 #
loop $-1 $-1 $240 $163 #
vertex $-1 $172 $252 #
vertex $-1 $112 $253 #
straight-curve $-1 -25.328789074789281 43.773181774915322 16.529494662168702 0 -1 0 I I #
coedge $-1 $179 $179 $-1 $254 reversed $115 $-1 #
edge $-1 $255 0 $255 6.2831853071796004 $116 $256 forward 7 unknown #
vertex $-1 $119 $257 #
ellipse-curve $-1 -8.3405549758615223 44.297832026126279 9.7906193219301763 0 0.70710678939079041 0.70710677298230451 2.5 0 0 1 I I #
face $-1 $-1 $135 $18 $-1 $258 reversed single #
loop $-1 $-1 $199 $120 #
plane-surface $-1 0 51.036707209988506 0 0 -1 0 0 0 -1 forward_v I I I I #
coedge $-1 $259 $197 $200 $260 forward $121 $-1 #
coedge $-1 $203 $123 $124 $191 reversed $76 $-1 #
coedge $-1 $197 $259 $123 $189 reversed $121 $-1 #
edge $-1 $204 -16.529494662168705 $261 16.529494662168705 $188 $262 forward 7 unknown #
coedge $-1 $125 $124 $259 $263 forward $49 $-1 #
edge $-1 $195 -76.852931302835174 $261 76.852931302835174 $187 $264 forward 7 unknown #
coedge $-1 $200 $199 $125 $193 reversed $184 $-1 #
edge $-1 $265 -76.852931302835174 $194 76.852931302835174 $192 $266 forward 7 unknown #
vertex $-1 $127 $267 #
vertex $-1 $206 $268 #
straight-curve $-1 76.852931302835174 0 -16.529494662168705 0 -1 0 I I #
coedge $-1 $186 $188 $128 $198 reversed $121 $-1 #
edge $-1 $201 -51.036707209988506 $204 51.036707209988506 $197 $269 forward 7 unknown #
coedge $-1 $192 $129 $134 $207 forward $184 $-1 #
coedge $-1 $129 $192 $186 $260 reversed $184 $-1 #
vertex $-1 $130 $270 #
straight-curve $-1 0 51.036707209988506 16.529494662168705 -1 0 0 I I #
coedge $-1 $131 $187 $133 $206 reversed $76 $-1 #
vertex $-1 $198 $271 #
straight-curve $-1 0 -51.036707209988506 16.529494662168705 1 0 0 I I #
edge $-1 $136 -16.529494662168705 $195 16.529494662168705 $133 $272 forward 7 unknown #
edge $-1 $137 -16.529494662168705 $194 16.529494662168705 $134 $273 forward 7 unknown #
point $-1 76.852931302835174 -51.036707209988506 16.529494662168705 #
point $-1 76.852931302835174 51.036707209988506 16.529494662168705 #
plane-surface $-1 0 0 16.529494662168705 0 0 1 1 0 0 forward_v I I I I #
coedge $-1 $221 $220 $213 $274 forward $140 $-1 #
coedge $-1 $213 $142 $144 $217 reversed $84 $-1 #
coedge $-1 $142 $212 $211 $274 reversed $84 $-1 #
coedge $-1 $150 $145 $142 $215 forward $151 $-1 #
edge $-1 $218 -26.342392227449714 $275 -21.797036057369226 $214 $276 forward 7 unknown #
coedge $-1 $144 $143 $221 $277 reversed $53 $-1 #
edge $-1 $278 1.7760113164789269e-014 $218 5.7681398179787085 $212 $279 forward 7 unknown #
vertex $-1 $146 $280 #
straight-curve $-1 3.5945996832327438 -46.491351039908011 16.529494662168705 -1 0 0 I I #
coedge $-1 $211 $147 $150 $225 reversed $140 $-1 #
coedge $-1 $147 $211 $216 $277 forward $140 $-1 #
vertex $-1 $148 $281 #
straight-curve $-1 23.776363753402975 -51.036707209988506 67.050072422956887 0 0 1 I I #
straight-curve $-1 23.776363753402975 -51.036707209988521 12.978273147413177 0 -0.78801074757464917 -0.61566148304635926 I I #
edge $-1 $275 -9.3979650204720002 $152 23.776363753402975 $220 $282 forward 7 unknown #
point $-1 23.776363753402975 -51.036707209988506 16.529494662168705 #
point $-1 23.776363753402975 -46.491351039908018 16.529494662168705 #
edge $-1 $283 1 $283 0 $155 $-1 forward 7 unknown #
vertex $-1 $156 $284 #
ellipse-curve $-1 0.080414629206558175 -46.310909251660604 11.614033713620122 0 -0.61566148304635926 0.78801074757464917 1 0 0 1 I I #
point $-1 1.0804146292065582 -48.764029124948237 14.753883904790928 #
edge $-1 $285 1 $285 0 $159 $-1 forward 7 unknown #
vertex $-1 $160 $286 #
ellipse-curve $-1 14.297984103724403 -46.310909251660604 11.614033713620122 0 -0.61566148304635926 0.78801074757464917 1 0 0 1 I I #
point $-1 15.297984103724403 -48.764029124948237 14.753883904790928 #
plane-surface $-1 0 0 16.529494662168705 0 0 1 1 0 0 forward_v I I I I #
coedge $-1 $247 $246 $239 $287 forward $164 $-1 #
coedge $-1 $239 $166 $168 $243 reversed $106 $-1 #
coedge $-1 $166 $238 $237 $287 reversed $106 $-1 #
coedge $-1 $174 $169 $166 $241 forward $175 $-1 #
edge $-1 $244 -6.214224932651284 $288 7.2635254350731842 $240 $289 forward 7 unknown #
coedge $-1 $168 $167 $247 $290 reversed $67 $-1 #
edge $-1 $291 -102.07341441997703 $244 -83.012996838512635 $238 $292 forward 7 unknown #
vertex $-1 $170 $293 #
straight-curve $-1 -4.1702774879307682 37.558956842264045 16.529494662168695 1 0 0 I I #
coedge $-1 $237 $171 $174 $251 reversed $164 $-1 #
coedge $-1 $171 $237 $242 $290 forward $164 $-1 #
vertex $-1 $172 $294 #
straight-curve $-1 -25.328789074789281 51.036707209988506 91.957502414957105 0 0 1 I I #
straight-curve $-1 -25.328789074789281 -21.140095467806859 75.228548334357185 0 0.70710677298230451 -0.70710678939079041 I I #
edge $-1 $288 -8.647679123066208 $176 25.328789074789281 $246 $295 forward 7 unknown #
point $-1 -25.328789074789281 51.036707209988506 16.529494662168705 #
point $-1 -25.328789074789281 37.558956842264038 16.529494662168702 #
edge $-1 $296 1 $296 0 $179 $-1 forward 7 unknown #
vertex $-1 $180 $297 #
ellipse-curve $-1 -8.3405549758615223 39.598820722380275 5.0916081272252125 0 0.70710678939079041 0.70710677298230451 2.5 0 0 1 I I #
point $-1 -5.8405549758615223 44.297832026126251 9.7906193219301514 #
plane-surface $-1 76.852931302835174 0 0 -1 0 0 0 0 1 forward_v I I I I #
coedge $-1 $188 $186 $190 $263 reversed $121 $-1 #
edge $-1 $201 -16.529494662168705 $265 16.529494662168705 $200 $298 forward 7 unknown #
vertex $-1 $263 $299 #
straight-curve $-1 -76.852931302835174 -51.036707209988506 0 0 0 -1 I I #
edge $-1 $261 -51.036707209988506 $265 51.036707209988506 $259 $300 forward 7 unknown #
straight-curve $-1 0 -51.036707209988506 -16.529494662168705 -1 0 0 I I #
vertex $-1 $193 $301 #
straight-curve $-1 0 51.036707209988506 -16.529494662168705 1 0 0 I I #
point $-1 76.852931302835174 51.036707209988506 -16.529494662168705 #
point $-1 76.852931302835174 -51.036707209988506 -16.529494662168705 #
straight-curve $-1 -76.852931302835174 0 16.529494662168705 0 -1 0 I I #
point $-1 -76.852931302835174 51.036707209988506 16.529494662168705 #
point $-1 -76.852931302835174 -51.036707209988506 16.529494662168705 #
straight-curve $-1 76.852931302835174 -51.036707209988506 0 0 0 -1 I I #
straight-curve $-1 76.852931302835174 51.036707209988506 0 0 0 -1 I I #
edge $-1 $275 50.520577760788186 $278 54.071799275543697 $211 $302 forward 7 unknown #
vertex $-1 $225 $303 #
straight-curve $-1 -9.3979650204720002 -72.833743267357733 16.529494662168702 0 -1 0 I I #
edge $-1 $278 -12.992564703704744 $222 20.181764070170232 $221 $304 forward 7 unknown #
vertex $-1 $277 $305 #
straight-curve $-1 -9.3979650204720002 -51.036707209988521 12.978273147413177 0 0.78801074757464917 0.61566148304635926 I I #
point $-1 -9.3979650204720002 -46.491351039908018 16.529494662168705 #
point $-1 23.776363753402975 -51.036707209988506 12.978273147413187 #
straight-curve $-1 0 -51.036707209988506 16.529494662168705 1 0 0 I I #
vertex $-1 $228 $306 #
point $-1 1.0804146292065582 -46.310909251660604 11.614033713620122 #
vertex $-1 $232 $307 #
point $-1 15.297984103724403 -46.310909251660604 11.614033713620122 #
edge $-1 $288 75.428007752788403 $291 88.905758433265461 $237 $308 forward 7 unknown #
vertex $-1 $251 $309 #
straight-curve $-1 8.647679123066208 43.773181774915322 16.529494662168702 0 1 0 I I #
edge $-1 $291 -12.817956610996976 $248 21.158511586858513 $247 $310 forward 7 unknown #
vertex $-1 $290 $311 #
straight-curve $-1 8.647679123066208 -21.140095467806859 75.228548334357185 0 -0.70710677298230451 0.70710678939079041 I I #
point $-1 8.647679123066208 37.558956842264038 16.529494662168702 #
point $-1 -25.328789074789281 51.036707209988506 3.0517439816916436 #
straight-curve $-1 0 51.036707209988506 16.529494662168705 -1 0 0 I I #
vertex $-1 $254 $312 #
point $-1 -5.8405549758615223 39.598820722380275 5.0916081272252125 #
straight-curve $-1 -76.852931302835174 51.036707209988506 0 0 0 -1 I I #
point $-1 -76.852931302835174 -51.036707209988506 -16.529494662168705 #
straight-curve $-1 -76.852931302835174 0 -16.529494662168705 0 1 0 I I #
point $-1 -76.852931302835174 51.036707209988506 -16.529494662168705 #
straight-curve $-1 -9.3979650204720002 -51.036707209988506 67.050072422956887 0 0 -1 I I #
point $-1 -9.3979650204720002 -51.036707209988506 16.529494662168705 #
straight-curve $-1 3.5945996832327438 -51.036707209988506 12.978273147413187 1 0 0 I I #
point $-1 -9.3979650204720002 -51.036707209988506 12.978273147413187 #
point $-1 0.080414629206558175 -45.695247768614252 10.826022966045473 #
point $-1 14.297984103724403 -45.695247768614252 10.826022966045473 #
straight-curve $-1 8.647679123066208 51.036707209988506 91.957502414957105 0 0 -1 I I #
point $-1 8.647679123066208 51.036707209988506 16.529494662168705 #
straight-curve $-1 -4.1702774879307682 51.036707209988506 3.0517439816916436 -1 0 0 I I #
point $-1 8.647679123066208 51.036707209988506 3.0517439816916436 #
point $-1 -8.3405549758615223 37.831053748903294 3.3238411947694515 #
End-of-ACIS-data 