500 0 11 0           
7 Unknown 11 ACIS 5.0 NT 24 Fri Mar 26 19:26:00 1999 
-1 9.9999999999999995e-007 1e-010 
body $-1 $11 $-1 $12 #
body $-1 $13 $-1 $14 #
body $-1 $15 $-1 $16 #
body $-1 $17 $-1 $18 #
body $-1 $19 $-1 $20 #
body $-1 $21 $-1 $22 #
body $-1 $23 $-1 $24 #
body $-1 $25 $-1 $26 #
body $-1 $27 $-1 $28 #
body $-1 $29 $-1 $30 #
body $-1 $31 $-1 $32 #
lump $-1 $-1 $33 $0 #
transform $-1 1 0 0 0 1 0 0 0 1 48.052003540147098 32.803591027239307 7.5959729886525551 1 rotate no_reflect no_shear #
lump $-1 $-1 $34 $1 #
transform $-1 1 0 0 0 1 0 0 0 1 48.052003540147098 32.803591027239307 7.5959729886525551 1 rotate no_reflect no_shear #
lump $-1 $-1 $35 $2 #
transform $-1 1 0 0 0 1 0 0 0 1 48.052003540147098 32.803591027239307 7.5959729886525551 1 rotate no_reflect no_shear #
lump $-1 $-1 $36 $3 #
transform $-1 1 0 0 0 1 0 0 0 1 48.052003540147098 32.803591027239307 7.5959729886525551 1 rotate no_reflect no_shear #
lump $-1 $-1 $37 $4 #
transform $-1 1 0 0 0 1 0 0 0 1 48.052003540147098 32.803591027239307 7.5959729886525551 1 rotate no_reflect no_shear #
lump $-1 $-1 $38 $5 #
transform $-1 1 0 0 0 1 0 0 0 1 48.052003540147098 32.803591027239307 7.5959729886525551 1 rotate no_reflect no_shear #
lump $-1 $-1 $39 $6 #
transform $-1 1 0 0 0 1 0 0 0 1 48.052003540147098 32.803591027239307 7.5959729886525551 1 rotate no_reflect no_shear #
lump $-1 $-1 $40 $7 #
transform $-1 1 0 0 0 1 0 0 0 1 48.052003540147098 32.803591027239307 7.5959729886525551 1 rotate no_reflect no_shear #
lump $-1 $-1 $41 $8 #
transform $-1 1 0 0 0 1 0 0 0 1 48.052003540147098 32.803591027239307 7.5959729886525551 1 rotate no_reflect no_shear #
lump $-1 $-1 $42 $9 #
transform $-1 1 0 0 0 1 0 0 0 1 48.052003540147098 32.803591027239307 7.5959729886525551 1 rotate no_reflect no_shear #
lump $-1 $-1 $43 $10 #
transform $-1 1 0 0 0 1 0 0 0 1 48.052003540147098 32.803591027239307 7.5959729886525551 1 rotate no_reflect no_shear #
shell $-1 $-1 $-1 $44 $-1 $11 #
shell $-1 $-1 $-1 $45 $-1 $13 #
shell $-1 $-1 $-1 $46 $-1 $15 #
shell $-1 $-1 $-1 $47 $-1 $17 #
shell $-1 $-1 $-1 $48 $-1 $19 #
shell $-1 $-1 $-1 $49 $-1 $21 #
shell $-1 $-1 $-1 $50 $-1 $23 #
shell $-1 $-1 $-1 $51 $-1 $25 #
shell $-1 $-1 $-1 $52 $-1 $27 #
shell $-1 $-1 $-1 $53 $-1 $29 #
shell $-1 $-1 $-1 $54 $-1 $31 #
face $-1 $55 $56 $33 $-1 $57 forward single #
face $-1 $58 $59 $34 $-1 $60 reversed single #
face $-1 $61 $62 $35 $-1 $63 reversed single #
face $-1 $64 $65 $36 $-1 $66 reversed single #
face $-1 $67 $68 $37 $-1 $69 forward single #
face $-1 $70 $71 $38 $-1 $72 forward single #
face $-1 $73 $74 $39 $-1 $75 forward single #
face $-1 $76 $77 $40 $-1 $78 reversed single #
face $-1 $79 $80 $41 $-1 $81 forward single #
face $-1 $82 $83 $42 $-1 $84 forward single #
face $-1 $85 $86 $43 $-1 $87 forward single #
face $-1 $88 $89 $33 $-1 $90 reversed single #
loop $-1 $-1 $91 $44 #
plane-surface $-1 0 0 7.5959729886525551 0 0 1 1 0 0 forward_v I I I I #
face $-1 $92 $93 $34 $-1 $94 reversed single #
loop $-1 $-1 $95 $45 #
plane-surface $-1 0 -28.901868397389723 4.096034605887013 0 0 1 1 0 0 forward_v I I I I #
face $-1 $96 $97 $35 $-1 $98 reversed single #
loop $-1 $-1 $99 $46 #
plane-surface $-1 0 28.90186839738972 4.096034605887013 0 0 1 1 0 0 forward_v I I I I #
face $-1 $100 $101 $36 $-1 $102 reversed single #
loop $-1 $-1 $103 $47 #
plane-surface $-1 -48.052003540147091 -21.857714286765372 1.6708038648893506 -0.57357644374324357 0 0.81915203911291934 0.81915203911291934 0 0.57357644374324357 forward_v I I I I #
face $-1 $104 $105 $37 $-1 $106 forward single #
loop $-1 $107 $108 $48 #
cone-surface $-1 -43.36594225187401 -23.743173175230233 3.9835066430013208 0.57357644374324357 0 -0.81915203911291934 0.40957601955645967 0 0.28678822187162178 1 I I 0 1 0.5 forward I I I I #
face $-1 $109 $110 $38 $-1 $111 forward single #
loop $-1 $112 $113 $49 #
cone-surface $-1 -43.36594225187401 -21.857714286765372 3.9835066430013208 0.57357644374324357 0 -0.81915203911291934 0.40957601955645967 0 0.28678822187162178 1 I I 0 1 0.5 forward I I I I #
face $-1 $114 $115 $39 $-1 $116 forward single #
loop $-1 $117 $118 $50 #
cone-surface $-1 -43.36594225187401 -19.972255398300508 3.9835066430013208 0.57357644374324357 0 -0.81915203911291934 0.40957601955645967 0 0.28678822187162178 1 I I 0 1 0.5 forward I I I I #
face $-1 $119 $120 $40 $-1 $121 reversed single #
loop $-1 $-1 $122 $51 #
plane-surface $-1 -103.17499815073774 18.715282805990594 80.394597231634776 0 1 0 -0.57357644374324357 0 0.81915203911291934 forward_v I I I I #
face $-1 $123 $124 $41 $-1 $125 forward single #
loop $-1 $126 $127 $52 #
cone-surface $-1 -43.36594225187401 19.972255398300504 3.9835066430013208 0.57357644374324357 0 -0.81915203911291934 0.40957601955645967 0 0.28678822187162178 1 I I 0 1 0.5 forward I I I I #
face $-1 $128 $129 $42 $-1 $130 forward single #
loop $-1 $131 $132 $53 #
cone-surface $-1 -43.36594225187401 21.857714286765365 3.9835066430013208 0.57357644374324357 0 -0.81915203911291934 0.40957601955645967 0 0.28678822187162178 1 I I 0 1 0.5 forward I I I I #
face $-1 $133 $134 $43 $-1 $135 forward single #
loop $-1 $136 $137 $54 #
cone-surface $-1 -43.36594225187401 23.743173175230226 3.9835066430013208 0.57357644374324357 0 -0.81915203911291934 0.40957601955645967 0 0.28678822187162178 1 I I 0 1 0.5 forward I I I I #
face $-1 $138 $139 $33 $-1 $140 reversed single #
loop $-1 $-1 $141 $55 #
plane-surface $-1 0 0 -7.5959729886525551 0 0 1 1 0 0 forward_v I I I I #
coedge $-1 $142 $143 $144 $145 forward $56 $-1 #
face $-1 $146 $147 $34 $-1 $148 reversed single #
loop $-1 $-1 $149 $58 #
plane-surface $-1 0 -25.00014576754014 5.846003797269784 0 -1 0 0 0 -1 forward_v I I I I #
coedge $-1 $150 $151 $152 $153 reversed $59 $-1 #
face $-1 $154 $155 $35 $-1 $156 forward single #
loop $-1 $-1 $157 $61 #
plane-surface $-1 0 25.000145767540136 5.846003797269784 0 1 0 0 0 1 forward_v I I I I #
coedge $-1 $158 $159 $160 $161 reversed $62 $-1 #
face $-1 $162 $163 $36 $-1 $164 reversed single #
loop $-1 $-1 $165 $64 #
plane-surface $-1 -103.17499815073774 -18.715282805990601 80.394597231634776 0 -1 0 0.57357644374324357 0 -0.81915203911291934 forward_v I I I I #
coedge $-1 $166 $167 $168 $169 reversed $65 $-1 #
face $-1 $-1 $170 $37 $-1 $171 forward single #
loop $-1 $172 $173 $67 #
cone-surface $-1 -42.767496008257474 -23.743173175230233 3.128836849453462 0.57357644374324357 0 -0.81915203911291934 0.20478800977822983 0 0.14339411093581089 1 I I -0.70710678118654746 0.70710678118654746 0.25 forward I I I I #
loop $-1 $-1 $174 $48 #
coedge $-1 $108 $108 $175 $176 reversed $68 $-1 #
face $-1 $-1 $177 $38 $-1 $178 forward single #
loop $-1 $179 $180 $70 #
cone-surface $-1 -42.767496008257474 -21.857714286765372 3.128836849453462 0.57357644374324357 0 -0.81915203911291934 0.20478800977822983 0 0.14339411093581089 1 I I -0.70710678118654746 0.70710678118654746 0.25 forward I I I I #
loop $-1 $-1 $181 $49 #
coedge $-1 $113 $113 $182 $183 reversed $71 $-1 #
face $-1 $-1 $184 $39 $-1 $185 forward single #
loop $-1 $186 $187 $73 #
cone-surface $-1 -42.767496008257474 -19.972255398300508 3.128836849453462 0.57357644374324357 0 -0.81915203911291934 0.20478800977822983 0 0.14339411093581089 1 I I -0.70710678118654746 0.70710678118654746 0.25 forward I I I I #
loop $-1 $-1 $188 $50 #
coedge $-1 $118 $118 $189 $190 reversed $74 $-1 #
face $-1 $191 $192 $40 $-1 $193 forward single #
loop $-1 $-1 $194 $76 #
plane-surface $-1 -48.052003540147091 21.857714286765365 1.6708038648893506 -0.57357644374324357 0 0.81915203911291934 0.81915203911291934 0 0.57357644374324357 forward_v I I I I #
coedge $-1 $195 $196 $197 $198 reversed $77 $-1 #
face $-1 $-1 $199 $41 $-1 $200 forward single #
loop $-1 $201 $202 $79 #
cone-surface $-1 -42.767496008257474 19.972255398300504 3.128836849453462 0.57357644374324357 0 -0.81915203911291934 0.20478800977822983 0 0.14339411093581089 1 I I -0.70710678118654746 0.70710678118654746 0.25 forward I I I I #
loop $-1 $-1 $203 $52 #
coedge $-1 $127 $127 $204 $205 reversed $80 $-1 #
face $-1 $-1 $206 $42 $-1 $207 forward single #
loop $-1 $208 $209 $82 #
cone-surface $-1 -42.767496008257474 21.857714286765365 3.128836849453462 0.57357644374324357 0 -0.81915203911291934 0.20478800977822983 0 0.14339411093581089 1 I I -0.70710678118654746 0.70710678118654746 0.25 forward I I I I #
loop $-1 $-1 $210 $53 #
coedge $-1 $132 $132 $211 $212 reversed $83 $-1 #
face $-1 $-1 $213 $43 $-1 $214 forward single #
loop $-1 $215 $216 $85 #
cone-surface $-1 -42.767496008257474 23.743173175230226 3.128836849453462 0.57357644374324357 0 -0.81915203911291934 0.20478800977822983 0 0.14339411093581089 1 I I -0.70710678118654746 0.70710678118654746 0.25 forward I I I I #
loop $-1 $-1 $217 $54 #
coedge $-1 $137 $137 $218 $219 reversed $86 $-1 #
face $-1 $220 $221 $33 $-1 $222 reversed single #
loop $-1 $-1 $223 $88 #
plane-surface $-1 0 -32.803591027239307 0 0 1 0 0 0 1 forward_v I I I I #
coedge $-1 $224 $225 $226 $227 forward $89 $-1 #
coedge $-1 $228 $91 $229 $230 forward $56 $-1 #
coedge $-1 $91 $228 $231 $232 forward $56 $-1 #
coedge $-1 $233 $234 $91 $145 reversed $235 $-1 #
edge $-1 $236 -32.803591027239307 $237 32.803591027239307 $144 $238 forward 7 unknown #
face $-1 $239 $240 $34 $-1 $241 reversed single #
loop $-1 $-1 $242 $92 #
plane-surface $-1 -48.052003540147098 0 0 1 0 0 0 0 -1 forward_v I I I I #
coedge $-1 $243 $244 $245 $246 reversed $93 $-1 #
coedge $-1 $247 $95 $248 $249 reversed $59 $-1 #
coedge $-1 $95 $247 $243 $250 forward $59 $-1 #
coedge $-1 $245 $251 $95 $153 forward $252 $-1 #
edge $-1 $253 -18.352656828544447 $254 -10.549211568845278 $152 $255 forward 7 unknown #
face $-1 $256 $257 $35 $-1 $258 reversed single #
loop $-1 $-1 $259 $96 #
plane-surface $-1 0 0 7.5959729886525551 0 0 1 1 0 0 forward_v I I I I #
coedge $-1 $260 $261 $262 $263 reversed $97 $-1 #
coedge $-1 $264 $99 $260 $265 forward $62 $-1 #
coedge $-1 $99 $264 $266 $267 reversed $62 $-1 #
coedge $-1 $268 $269 $99 $161 forward $257 $-1 #
edge $-1 $270 10.549211568845276 $271 18.352656828544447 $160 $272 forward 7 unknown #
face $-1 $273 $274 $36 $-1 $275 forward single #
loop $-1 $-1 $276 $100 #
plane-surface $-1 -48.052003540147098 0 0 1 0 0 0 0 -1 forward_v I I I I #
coedge $-1 $277 $278 $279 $280 reversed $101 $-1 #
coedge $-1 $281 $103 $282 $283 reversed $65 $-1 #
coedge $-1 $103 $281 $277 $284 forward $65 $-1 #
coedge $-1 $279 $285 $103 $169 forward $274 $-1 #
edge $-1 $286 -14.071288624157457 $287 -7.7864256626079147 $168 $288 forward 7 unknown #
loop $-1 $-1 $175 $104 #
plane-surface $-1 -48.052003540147091 -21.857714286765372 1.6708038648893506 -0.57357644374324357 0 0.81915203911291934 0.81915203911291934 0 0.57357644374324357 forward_v I I I I #
loop $-1 $-1 $289 $67 #
coedge $-1 $173 $173 $174 $290 reversed $105 $-1 #
coedge $-1 $174 $174 $173 $290 forward $107 $-1 #
coedge $-1 $175 $175 $108 $176 forward $170 $-1 #
edge $-1 $291 0 $291 6.2831853071796004 $175 $292 forward 7 unknown #
loop $-1 $-1 $182 $109 #
plane-surface $-1 -48.052003540147091 -21.857714286765372 1.6708038648893506 -0.57357644374324357 0 0.81915203911291934 0.81915203911291934 0 0.57357644374324357 forward_v I I I I #
loop $-1 $-1 $293 $70 #
coedge $-1 $180 $180 $181 $294 reversed $110 $-1 #
coedge $-1 $181 $181 $180 $294 forward $112 $-1 #
coedge $-1 $182 $182 $113 $183 forward $177 $-1 #
edge $-1 $295 0 $295 6.2831853071796004 $182 $296 forward 7 unknown #
loop $-1 $-1 $189 $114 #
plane-surface $-1 -48.052003540147091 -21.857714286765372 1.6708038648893506 -0.57357644374324357 0 0.81915203911291934 0.81915203911291934 0 0.57357644374324357 forward_v I I I I #
loop $-1 $-1 $297 $73 #
coedge $-1 $187 $187 $188 $298 reversed $115 $-1 #
coedge $-1 $188 $188 $187 $298 forward $117 $-1 #
coedge $-1 $189 $189 $118 $190 forward $184 $-1 #
edge $-1 $299 0 $299 6.2831853071796004 $189 $300 forward 7 unknown #
face $-1 $301 $302 $40 $-1 $303 forward single #
loop $-1 $-1 $197 $119 #
plane-surface $-1 0 0 7.5959729886525551 0 0 1 1 0 0 forward_v I I I I #
coedge $-1 $304 $305 $306 $307 reversed $120 $-1 #
coedge $-1 $196 $122 $308 $309 reversed $77 $-1 #
coedge $-1 $122 $195 $304 $310 reversed $77 $-1 #
coedge $-1 $306 $311 $122 $198 forward $192 $-1 #
edge $-1 $312 3.5354955352217701 $313 11.997513846406498 $197 $314 forward 7 unknown #
loop $-1 $-1 $204 $123 #
plane-surface $-1 -48.052003540147091 21.857714286765365 1.6708038648893506 -0.57357644374324357 0 0.81915203911291934 0.81915203911291934 0 0.57357644374324357 forward_v I I I I #
loop $-1 $-1 $315 $79 #
coedge $-1 $202 $202 $203 $316 reversed $124 $-1 #
coedge $-1 $203 $203 $202 $316 forward $126 $-1 #
coedge $-1 $204 $204 $127 $205 forward $199 $-1 #
edge $-1 $317 0 $317 6.2831853071796004 $204 $318 forward 7 unknown #
loop $-1 $-1 $211 $128 #
plane-surface $-1 -48.052003540147091 21.857714286765365 1.6708038648893506 -0.57357644374324357 0 0.81915203911291934 0.81915203911291934 0 0.57357644374324357 forward_v I I I I #
loop $-1 $-1 $319 $82 #
coedge $-1 $209 $209 $210 $320 reversed $129 $-1 #
coedge $-1 $210 $210 $209 $320 forward $131 $-1 #
coedge $-1 $211 $211 $132 $212 forward $206 $-1 #
edge $-1 $321 0 $321 6.2831853071796004 $211 $322 forward 7 unknown #
loop $-1 $-1 $218 $133 #
plane-surface $-1 -48.052003540147091 21.857714286765365 1.6708038648893506 -0.57357644374324357 0 0.81915203911291934 0.81915203911291934 0 0.57357644374324357 forward_v I I I I #
loop $-1 $-1 $323 $85 #
coedge $-1 $216 $216 $217 $324 reversed $134 $-1 #
coedge $-1 $217 $217 $216 $324 forward $136 $-1 #
coedge $-1 $218 $218 $137 $219 forward $213 $-1 #
edge $-1 $325 0 $325 6.2831853071796004 $218 $326 forward 7 unknown #
face $-1 $327 $328 $33 $-1 $329 reversed single #
loop $-1 $-1 $330 $138 #
plane-surface $-1 -48.052003540147098 0 0 1 0 0 0 0 -1 forward_v I I I I #
coedge $-1 $331 $231 $332 $333 forward $139 $-1 #
coedge $-1 $334 $141 $331 $335 forward $89 $-1 #
coedge $-1 $141 $334 $336 $337 forward $89 $-1 #
coedge $-1 $234 $233 $141 $227 reversed $235 $-1 #
edge $-1 $338 -32.803591027239307 $339 32.803591027239307 $226 $340 forward 7 unknown #
coedge $-1 $143 $142 $341 $342 forward $56 $-1 #
coedge $-1 $343 $344 $142 $230 reversed $328 $-1 #
edge $-1 $237 -48.052003540147098 $345 48.052003540147098 $229 $346 forward 7 unknown #
coedge $-1 $223 $347 $143 $232 reversed $139 $-1 #
edge $-1 $348 -48.052003540147098 $236 48.052003540147098 $231 $349 forward 7 unknown #
coedge $-1 $226 $144 $347 $350 forward $235 $-1 #
coedge $-1 $144 $226 $343 $351 reversed $235 $-1 #
loop $-1 $-1 $233 $327 #
vertex $-1 $145 $352 #
vertex $-1 $145 $353 #
straight-curve $-1 48.052003540147098 0 7.5959729886525551 0 1 0 I I #
face $-1 $354 $355 $34 $-1 $356 forward single #
loop $-1 $-1 $248 $146 #
plane-surface $-1 0 -32.803591027239307 0 0 1 0 0 0 1 forward_v I I I I #
coedge $-1 $357 $358 $359 $360 forward $147 $-1 #
coedge $-1 $359 $149 $151 $250 reversed $93 $-1 #
coedge $-1 $149 $359 $361 $362 reversed $93 $-1 #
coedge $-1 $363 $152 $149 $246 forward $252 $-1 #
edge $-1 $254 1.1730327072521209 $364 4.6729710900176631 $245 $365 forward 7 unknown #
coedge $-1 $151 $150 $357 $366 reversed $59 $-1 #
coedge $-1 $367 $368 $150 $249 forward $240 $-1 #
edge $-1 $369 -48.052003540147098 $253 48.052003540147098 $248 $370 forward 7 unknown #
edge $-1 $371 -48.052003540147098 $254 48.052003540147098 $243 $372 forward 7 unknown #
coedge $-1 $152 $363 $367 $373 forward $252 $-1 #
loop $-1 $-1 $245 $354 #
vertex $-1 $249 $374 #
vertex $-1 $153 $375 #
straight-curve $-1 48.052003540147098 -14.450934198694862 4.096034605887013 0 1 0 I I #
face $-1 $376 $377 $35 $-1 $378 reversed single #
loop $-1 $-1 $269 $154 #
plane-surface $-1 48.052003540147098 0 0 -1 0 0 0 0 1 forward_v I I I I #
coedge $-1 $379 $380 $261 $381 forward $155 $-1 #
coedge $-1 $382 $157 $158 $265 reversed $97 $-1 #
coedge $-1 $157 $382 $259 $381 reversed $97 $-1 #
coedge $-1 $383 $384 $157 $263 forward $377 $-1 #
edge $-1 $385 1.1730327072521209 $386 4.6729710900176631 $262 $387 forward 7 unknown #
coedge $-1 $159 $158 $384 $388 reversed $62 $-1 #
edge $-1 $270 -48.052003540147098 $385 48.052003540147098 $260 $389 forward 7 unknown #
coedge $-1 $390 $391 $159 $267 forward $392 $-1 #
edge $-1 $271 -48.052003540147098 $393 48.052003540147098 $266 $394 forward 7 unknown #
coedge $-1 $395 $160 $391 $396 reversed $257 $-1 #
coedge $-1 $160 $395 $382 $397 forward $257 $-1 #
vertex $-1 $161 $398 #
vertex $-1 $267 $399 #
straight-curve $-1 48.052003540147098 14.45093419869486 4.096034605887013 0 1 0 I I #
face $-1 $-1 $400 $36 $-1 $401 forward single #
loop $-1 $-1 $279 $162 #
plane-surface $-1 0 0 7.5959729886525551 0 0 1 1 0 0 forward_v I I I I #
coedge $-1 $402 $403 $278 $404 forward $163 $-1 #
coedge $-1 $278 $165 $167 $284 reversed $101 $-1 #
coedge $-1 $165 $277 $276 $404 reversed $101 $-1 #
coedge $-1 $405 $168 $165 $280 forward $274 $-1 #
edge $-1 $287 -11.997513846406498 $406 -3.5354955352217701 $279 $407 forward 7 unknown #
coedge $-1 $167 $166 $402 $408 reversed $65 $-1 #
coedge $-1 $409 $410 $166 $283 forward $400 $-1 #
edge $-1 $411 -20.878346506252264 $286 -10.548129517049057 $282 $412 forward 7 unknown #
edge $-1 $413 -8.6223355153435888e-015 $287 10.330216989203196 $277 $414 forward 7 unknown #
coedge $-1 $168 $405 $409 $415 forward $274 $-1 #
vertex $-1 $283 $416 #
vertex $-1 $169 $417 #
straight-curve $-1 -39.589985228962369 -10.928857143382686 7.595972988652556 0 1 0 I I #
coedge $-1 $289 $289 $-1 $418 reversed $172 $-1 #
edge $-1 $419 0 $419 6.2831853071796004 $173 $420 forward 7 unknown #
vertex $-1 $176 $421 #
ellipse-curve $-1 -43.820994384554737 -23.743173175230233 4.6333884267709502 -0.57357644374324357 0 0.81915203911291934 0.40957601955645967 0 0.28678822187162178 1 I I #
coedge $-1 $293 $293 $-1 $422 reversed $179 $-1 #
edge $-1 $423 0 $423 6.2831853071796004 $180 $424 forward 7 unknown #
vertex $-1 $183 $425 #
ellipse-curve $-1 -43.820994384554737 -21.857714286765372 4.6333884267709502 -0.57357644374324357 0 0.81915203911291934 0.40957601955645967 0 0.28678822187162178 1 I I #
coedge $-1 $297 $297 $-1 $426 reversed $186 $-1 #
edge $-1 $427 0 $427 6.2831853071796004 $187 $428 forward 7 unknown #
vertex $-1 $190 $429 #
ellipse-curve $-1 -43.820994384554737 -19.972255398300508 4.6333884267709502 -0.57357644374324357 0 0.81915203911291934 0.40957601955645967 0 0.28678822187162178 1 I I #
face $-1 $-1 $430 $40 $-1 $431 reversed single #
loop $-1 $-1 $432 $191 #
plane-surface $-1 0 25.000145767540136 5.846003797269784 0 1 0 0 0 1 forward_v I I I I #
coedge $-1 $433 $194 $196 $310 forward $120 $-1 #
coedge $-1 $194 $433 $432 $434 forward $120 $-1 #
coedge $-1 $435 $197 $194 $307 forward $192 $-1 #
edge $-1 $313 7.7864256626079111 $436 14.071288624157454 $306 $437 forward 7 unknown #
coedge $-1 $438 $439 $195 $309 forward $430 $-1 #
edge $-1 $440 -38.526494750928045 $312 -32.601325627164833 $308 $441 forward 7 unknown #
edge $-1 $313 -10.330216989203196 $440 8.6223355153435888e-015 $196 $442 forward 7 unknown #
coedge $-1 $197 $435 $438 $443 forward $192 $-1 #
vertex $-1 $309 $444 #
vertex $-1 $198 $445 #
straight-curve $-1 -51.587499075368868 18.715282805990594 7.5959729886525551 1 0 0 I I #
coedge $-1 $315 $315 $-1 $446 reversed $201 $-1 #
edge $-1 $447 0 $447 6.2831853071796004 $202 $448 forward 7 unknown #
vertex $-1 $205 $449 #
ellipse-curve $-1 -43.820994384554737 19.972255398300504 4.6333884267709502 -0.57357644374324357 0 0.81915203911291934 0.40957601955645967 0 0.28678822187162178 1 I I #
coedge $-1 $319 $319 $-1 $450 reversed $208 $-1 #
edge $-1 $451 0 $451 6.2831853071796004 $209 $452 forward 7 unknown #
vertex $-1 $212 $453 #
ellipse-curve $-1 -43.820994384554737 21.857714286765365 4.6333884267709502 -0.57357644374324357 0 0.81915203911291934 0.40957601955645967 0 0.28678822187162178 1 I I #
coedge $-1 $323 $323 $-1 $454 reversed $215 $-1 #
edge $-1 $455 0 $455 6.2831853071796004 $216 $456 forward 7 unknown #
vertex $-1 $219 $457 #
ellipse-curve $-1 -43.820994384554737 23.743173175230226 4.6333884267709502 -0.57357644374324357 0 0.81915203911291934 0.40957601955645967 0 0.28678822187162178 1 I I #
face $-1 $-1 $235 $33 $-1 $458 reversed single #
loop $-1 $-1 $343 $220 #
plane-surface $-1 0 32.803591027239307 0 0 -1 0 0 0 -1 forward_v I I I I #
coedge $-1 $459 $341 $344 $460 forward $221 $-1 #
coedge $-1 $347 $223 $224 $335 reversed $139 $-1 #
coedge $-1 $341 $459 $223 $333 reversed $221 $-1 #
edge $-1 $348 -7.5959729886525551 $461 7.5959729886525551 $332 $462 forward 7 unknown #
coedge $-1 $225 $224 $459 $463 forward $89 $-1 #
edge $-1 $339 -48.052003540147098 $461 48.052003540147098 $331 $464 forward 7 unknown #
coedge $-1 $344 $343 $225 $337 reversed $328 $-1 #
edge $-1 $465 -48.052003540147098 $338 48.052003540147098 $336 $466 forward 7 unknown #
vertex $-1 $227 $467 #
vertex $-1 $350 $468 #
straight-curve $-1 48.052003540147098 0 -7.5959729886525551 0 -1 0 I I #
coedge $-1 $330 $332 $228 $342 reversed $221 $-1 #
edge $-1 $345 -32.803591027239307 $348 32.803591027239307 $341 $469 forward 7 unknown #
coedge $-1 $336 $229 $234 $351 forward $328 $-1 #
coedge $-1 $229 $336 $330 $460 reversed $328 $-1 #
vertex $-1 $230 $470 #
straight-curve $-1 0 32.803591027239307 7.5959729886525551 -1 0 0 I I #
coedge $-1 $231 $331 $233 $350 reversed $139 $-1 #
vertex $-1 $342 $471 #
straight-curve $-1 0 -32.803591027239307 7.5959729886525551 1 0 0 I I #
edge $-1 $236 -7.5959729886525551 $339 7.5959729886525551 $233 $472 forward 7 unknown #
edge $-1 $237 -7.5959729886525551 $338 7.5959729886525551 $234 $473 forward 7 unknown #
point $-1 48.052003540147098 -32.803591027239307 7.5959729886525551 #
point $-1 48.052003540147098 32.803591027239307 7.5959729886525551 #
face $-1 $-1 $252 $34 $-1 $474 reversed single #
loop $-1 $-1 $361 $239 #
plane-surface $-1 0 0 7.5959729886525551 0 0 1 1 0 0 forward_v I I I I #
coedge $-1 $475 $242 $247 $366 forward $147 $-1 #
coedge $-1 $242 $475 $476 $477 reversed $147 $-1 #
coedge $-1 $244 $243 $242 $360 reversed $93 $-1 #
edge $-1 $478 -4.6729710900176631 $371 -1.1730327072521209 $242 $479 forward 7 unknown #
coedge $-1 $476 $480 $244 $362 forward $355 $-1 #
edge $-1 $364 -48.052003540147098 $478 48.052003540147098 $361 $481 forward 7 unknown #
coedge $-1 $251 $245 $480 $482 reversed $252 $-1 #
vertex $-1 $246 $483 #
straight-curve $-1 48.052003540147098 -25.00014576754014 2.923001898634892 0 0 1 I I #
edge $-1 $371 10.549211568845278 $369 18.352656828544447 $357 $484 forward 7 unknown #
coedge $-1 $485 $248 $251 $373 reversed $240 $-1 #
coedge $-1 $248 $485 $475 $486 forward $240 $-1 #
vertex $-1 $249 $487 #
straight-curve $-1 0 -32.803591027239307 4.096034605887013 1 0 0 I I #
vertex $-1 $366 $488 #
straight-curve $-1 0 -25.00014576754014 4.096034605887013 1 0 0 I I #
edge $-1 $489 -7.5959729886525551 $253 -4.096034605887013 $251 $490 forward 7 unknown #
point $-1 48.052003540147098 -32.803591027239307 4.096034605887013 #
point $-1 48.052003540147098 -25.00014576754014 4.096034605887013 #
face $-1 $-1 $392 $35 $-1 $491 reversed single #
loop $-1 $-1 $262 $256 #
plane-surface $-1 -48.052003540147098 0 0 1 0 0 0 0 -1 forward_v I I I I #
coedge $-1 $492 $259 $395 $493 forward $155 $-1 #
coedge $-1 $259 $492 $383 $494 forward $155 $-1 #
edge $-1 $386 -48.052003540147098 $495 48.052003540147098 $259 $496 forward 7 unknown #
coedge $-1 $261 $260 $269 $397 reversed $97 $-1 #
coedge $-1 $497 $262 $380 $494 reversed $377 $-1 #
coedge $-1 $262 $497 $264 $388 forward $377 $-1 #
vertex $-1 $388 $498 #
vertex $-1 $263 $499 #
straight-curve $-1 -48.052003540147098 25.000145767540136 2.923001898634892 0 0 1 I I #
edge $-1 $393 -18.352656828544447 $385 -10.549211568845276 $384 $500 forward 7 unknown #
straight-curve $-1 0 25.000145767540136 4.096034605887013 -1 0 0 I I #
coedge $-1 $501 $266 $497 $502 reversed $392 $-1 #
coedge $-1 $266 $501 $268 $396 forward $392 $-1 #
loop $-1 $-1 $266 $376 #
vertex $-1 $267 $503 #
straight-curve $-1 0 32.803591027239307 4.096034605887013 -1 0 0 I I #
coedge $-1 $269 $268 $379 $493 reversed $257 $-1 #
edge $-1 $504 -7.5959729886525551 $271 -4.096034605887013 $268 $505 forward 7 unknown #
edge $-1 $495 -4.6729710900176631 $270 -1.1730327072521209 $269 $506 forward 7 unknown #
point $-1 48.052003540147098 25.000145767540136 4.096034605887013 #
point $-1 48.052003540147098 32.803591027239307 4.096034605887013 #
loop $-1 $-1 $282 $273 #
plane-surface $-1 0 -25.00014576754014 5.846003797269784 0 -1 0 0 0 -1 forward_v I I I I #
coedge $-1 $507 $276 $281 $408 forward $163 $-1 #
coedge $-1 $276 $507 $405 $508 reversed $163 $-1 #
edge $-1 $406 32.601325627164833 $413 38.526494750928045 $276 $509 forward 7 unknown #
coedge $-1 $285 $279 $403 $508 forward $274 $-1 #
vertex $-1 $508 $510 #
straight-curve $-1 -51.587499075368868 -18.715282805990601 7.5959729886525551 -1 0 0 I I #
edge $-1 $413 7.7864256626079147 $411 14.071288624157457 $402 $511 forward 7 unknown #
coedge $-1 $410 $282 $285 $415 reversed $400 $-1 #
coedge $-1 $282 $409 $507 $512 reversed $400 $-1 #
vertex $-1 $512 $513 #
straight-curve $-1 -30.949463426244463 -25.00014576754014 13.646131605184694 0.81915203911291934 0 0.57357644374324357 I I #
vertex $-1 $408 $514 #
straight-curve $-1 -48.052003540147091 -18.715282805990601 1.6708038648893506 0.81915203911291934 0 0.57357644374324357 I I #
edge $-1 $515 -48.052003540147098 $286 -39.589985228962369 $285 $516 forward 7 unknown #
point $-1 -39.589985228962369 -25.000145767540143 7.5959729886525551 #
point $-1 -39.589985228962369 -18.715282805990601 7.5959729886525551 #
edge $-1 $517 1 $517 0 $289 $-1 forward 7 unknown #
vertex $-1 $290 $518 #
ellipse-curve $-1 -42.910890119193283 -23.743173175230233 3.3336248592316919 -0.57357644374324357 0 0.81915203911291934 0.40957601955645967 0 0.28678822187162178 1 I I #
point $-1 -43.411418364998276 -23.743173175230233 4.9201766486425722 #
edge $-1 $519 1 $519 0 $293 $-1 forward 7 unknown #
vertex $-1 $294 $520 #
ellipse-curve $-1 -42.910890119193283 -21.857714286765372 3.3336248592316919 -0.57357644374324357 0 0.81915203911291934 0.40957601955645967 0 0.28678822187162178 1 I I #
point $-1 -43.411418364998276 -21.857714286765372 4.9201766486425722 #
edge $-1 $521 1 $521 0 $297 $-1 forward 7 unknown #
vertex $-1 $298 $522 #
ellipse-curve $-1 -42.910890119193283 -19.972255398300508 3.3336248592316919 -0.57357644374324357 0 0.81915203911291934 0.40957601955645967 0 0.28678822187162178 1 I I #
point $-1 -43.411418364998276 -19.972255398300508 4.9201766486425722 #
loop $-1 $-1 $308 $301 #
plane-surface $-1 -48.052003540147098 0 0 1 0 0 0 0 -1 forward_v I I I I #
coedge $-1 $523 $524 $305 $434 reversed $302 $-1 #
coedge $-1 $305 $304 $439 $525 reversed $120 $-1 #
edge $-1 $526 -8.6223355153435888e-015 $436 10.330216989203196 $432 $527 forward 7 unknown #
coedge $-1 $311 $306 $524 $528 forward $192 $-1 #
vertex $-1 $528 $529 #
straight-curve $-1 -39.589985228962369 10.928857143382682 7.595972988652556 0 1 0 I I #
coedge $-1 $530 $308 $311 $443 reversed $430 $-1 #
coedge $-1 $308 $530 $433 $525 forward $430 $-1 #
vertex $-1 $309 $531 #
straight-curve $-1 -48.052003540147098 18.715282805990594 40.197298615817388 0 0 1 I I #
straight-curve $-1 -48.052003540147091 18.715282805990594 1.6708038648893506 -0.81915203911291934 0 -0.57357644374324357 I I #
edge $-1 $532 -25.000145767540136 $312 -18.715282805990594 $438 $533 forward 7 unknown #
point $-1 -48.052003540147098 18.715282805990594 7.5959729886525551 #
point $-1 -39.589985228962369 18.715282805990594 7.5959729886525551 #
edge $-1 $534 1 $534 0 $315 $-1 forward 7 unknown #
vertex $-1 $316 $535 #
ellipse-curve $-1 -42.910890119193283 19.972255398300504 3.3336248592316919 -0.57357644374324357 0 0.81915203911291934 0.40957601955645967 0 0.28678822187162178 1 I I #
point $-1 -43.411418364998276 19.972255398300504 4.9201766486425722 #
edge $-1 $536 1 $536 0 $319 $-1 forward 7 unknown #
vertex $-1 $320 $537 #
ellipse-curve $-1 -42.910890119193283 21.857714286765365 3.3336248592316919 -0.57357644374324357 0 0.81915203911291934 0.40957601955645967 0 0.28678822187162178 1 I I #
point $-1 -43.411418364998276 21.857714286765365 4.9201766486425722 #
edge $-1 $538 1 $538 0 $323 $-1 forward 7 unknown #
vertex $-1 $324 $539 #
ellipse-curve $-1 -42.910890119193283 23.743173175230226 3.3336248592316919 -0.57357644374324357 0 0.81915203911291934 0.40957601955645967 0 0.28678822187162178 1 I I #
point $-1 -43.411418364998276 23.743173175230226 4.9201766486425722 #
plane-surface $-1 48.052003540147098 0 0 -1 0 0 0 0 1 forward_v I I I I #
coedge $-1 $332 $330 $334 $463 reversed $221 $-1 #
edge $-1 $345 -7.5959729886525551 $465 7.5959729886525551 $344 $540 forward 7 unknown #
vertex $-1 $463 $541 #
straight-curve $-1 -48.052003540147098 -32.803591027239307 0 0 0 -1 I I #
edge $-1 $461 -32.803591027239307 $465 32.803591027239307 $459 $542 forward 7 unknown #
straight-curve $-1 0 -32.803591027239307 -7.5959729886525551 -1 0 0 I I #
vertex $-1 $337 $543 #
straight-curve $-1 0 32.803591027239307 -7.5959729886525551 1 0 0 I I #
point $-1 48.052003540147098 32.803591027239307 -7.5959729886525551 #
point $-1 48.052003540147098 -32.803591027239307 -7.5959729886525551 #
straight-curve $-1 -48.052003540147098 0 7.5959729886525551 0 -1 0 I I #
point $-1 -48.052003540147098 32.803591027239307 7.5959729886525551 #
point $-1 -48.052003540147098 -32.803591027239307 7.5959729886525551 #
straight-curve $-1 48.052003540147098 -32.803591027239307 0 0 0 -1 I I #
straight-curve $-1 48.052003540147098 32.803591027239307 0 0 0 -1 I I #
plane-surface $-1 48.052003540147098 0 0 -1 0 0 0 0 1 forward_v I I I I #
coedge $-1 $358 $357 $368 $486 reversed $147 $-1 #
coedge $-1 $544 $361 $358 $477 forward $355 $-1 #
edge $-1 $478 25.00014576754014 $545 32.803591027239307 $358 $546 forward 7 unknown #
vertex $-1 $477 $547 #
straight-curve $-1 -48.052003540147098 -25.00014576754014 2.923001898634892 0 0 -1 I I #
coedge $-1 $361 $544 $363 $482 forward $355 $-1 #
straight-curve $-1 0 -25.00014576754014 7.5959729886525551 -1 0 0 I I #
edge $-1 $489 -32.803591027239307 $364 -25.00014576754014 $363 $548 forward 7 unknown #
point $-1 48.052003540147098 -25.00014576754014 7.5959729886525551 #
straight-curve $-1 -48.052003540147098 -14.450934198694862 4.096034605887013 0 -1 0 I I #
coedge $-1 $368 $367 $544 $549 reversed $240 $-1 #
edge $-1 $545 -7.5959729886525551 $369 -4.096034605887013 $475 $550 forward 7 unknown #
point $-1 -48.052003540147098 -32.803591027239307 4.096034605887013 #
point $-1 -48.052003540147098 -25.00014576754014 4.096034605887013 #
vertex $-1 $482 $551 #
straight-curve $-1 48.052003540147098 -32.803591027239307 0 0 0 -1 I I #
plane-surface $-1 0 32.803591027239307 0 0 -1 0 0 0 -1 forward_v I I I I #
coedge $-1 $380 $379 $501 $552 forward $155 $-1 #
edge $-1 $495 25.000145767540136 $504 32.803591027239307 $395 $553 forward 7 unknown #
edge $-1 $554 -32.803591027239307 $386 -25.000145767540136 $383 $555 forward 7 unknown #
vertex $-1 $493 $556 #
straight-curve $-1 0 25.000145767540136 7.5959729886525551 1 0 0 I I #
coedge $-1 $384 $383 $390 $502 forward $377 $-1 #
point $-1 -48.052003540147098 25.000145767540136 4.096034605887013 #
point $-1 -48.052003540147098 25.000145767540136 7.5959729886525551 #
straight-curve $-1 -48.052003540147098 14.45093419869486 4.096034605887013 0 -1 0 I I #
coedge $-1 $391 $390 $492 $552 reversed $392 $-1 #
edge $-1 $554 -7.5959729886525551 $393 -4.096034605887013 $390 $557 forward 7 unknown #
point $-1 -48.052003540147098 32.803591027239307 4.096034605887013 #
vertex $-1 $493 $558 #
straight-curve $-1 48.052003540147098 32.803591027239307 0 0 0 -1 I I #
straight-curve $-1 48.052003540147098 25.000145767540136 2.923001898634892 0 0 -1 I I #
coedge $-1 $403 $402 $410 $512 forward $163 $-1 #
edge $-1 $406 18.715282805990601 $515 25.00014576754014 $403 $559 forward 7 unknown #
straight-curve $-1 -48.052003540147098 -18.715282805990601 40.197298615817388 0 0 -1 I I #
point $-1 -48.052003540147098 -18.715282805990601 7.5959729886525551 #
straight-curve $-1 -48.052003540147098 -10.928857143382686 1.6708038648893504 0 -1 0 I I #
edge $-1 $411 -38.526494750928045 $515 -32.601325627164833 $507 $560 forward 7 unknown #
point $-1 -48.052003540147098 -25.000145767540143 1.6708038648893457 #
point $-1 -48.052003540147098 -18.715282805990601 1.6708038648893457 #
vertex $-1 $512 $561 #
straight-curve $-1 0 -25.00014576754014 7.5959729886525551 1 0 0 I I #
vertex $-1 $418 $562 #
point $-1 -42.501314099636822 -23.743173175230233 3.6204130811033135 #
vertex $-1 $422 $563 #
point $-1 -42.501314099636822 -21.857714286765372 3.6204130811033135 #
vertex $-1 $426 $564 #
point $-1 -42.501314099636822 -19.972255398300508 3.6204130811033135 #
coedge $-1 $524 $432 $530 $565 reversed $302 $-1 #
coedge $-1 $432 $523 $435 $528 reversed $302 $-1 #
edge $-1 $526 -14.071288624157454 $440 -7.7864256626079111 $439 $566 forward 7 unknown #
vertex $-1 $565 $567 #
straight-curve $-1 -48.052003540147091 25.000145767540136 1.6708038648893506 0.81915203911291934 0 0.57357644374324357 I I #
edge $-1 $436 39.589985228962369 $532 48.052003540147098 $435 $568 forward 7 unknown #
point $-1 -39.589985228962369 25.000145767540136 7.5959729886525551 #
coedge $-1 $439 $438 $523 $565 forward $430 $-1 #
point $-1 -48.052003540147098 18.715282805990594 1.6708038648893457 #
vertex $-1 $443 $569 #
straight-curve $-1 -48.052003540147098 0 7.5959729886525551 0 -1 0 I I #
vertex $-1 $446 $570 #
point $-1 -42.501314099636822 19.972255398300504 3.6204130811033135 #
vertex $-1 $450 $571 #
point $-1 -42.501314099636822 21.857714286765365 3.6204130811033135 #
vertex $-1 $454 $572 #
point $-1 -42.501314099636822 23.743173175230226 3.6204130811033135 #
straight-curve $-1 -48.052003540147098 32.803591027239307 0 0 0 -1 I I #
point $-1 -48.052003540147098 -32.803591027239307 -7.5959729886525551 #
straight-curve $-1 -48.052003540147098 0 -7.5959729886525551 0 1 0 I I #
point $-1 -48.052003540147098 32.803591027239307 -7.5959729886525551 #
coedge $-1 $480 $476 $485 $549 forward $355 $-1 #
vertex $-1 $477 $573 #
straight-curve $-1 -48.052003540147098 0 7.5959729886525551 0 -1 0 I I #
point $-1 -48.052003540147098 -25.00014576754014 7.5959729886525551 #
straight-curve $-1 48.052003540147098 0 7.5959729886525551 0 1 0 I I #
edge $-1 $545 -48.052003540147098 $489 48.052003540147098 $485 $574 forward 7 unknown #
straight-curve $-1 -48.052003540147098 -32.803591027239307 0 0 0 -1 I I #
point $-1 48.052003540147098 -32.803591027239307 7.5959729886525551 #
edge $-1 $504 -48.052003540147098 $554 48.052003540147098 $501 $575 forward 7 unknown #
straight-curve $-1 48.052003540147098 0 7.5959729886525551 0 1 0 I I #
vertex $-1 $552 $576 #
straight-curve $-1 -48.052003540147098 0 7.5959729886525551 0 -1 0 I I #
point $-1 48.052003540147098 25.000145767540136 7.5959729886525551 #
straight-curve $-1 -48.052003540147098 32.803591027239307 0 0 0 -1 I I #
point $-1 48.052003540147098 32.803591027239307 7.5959729886525551 #
straight-curve $-1 -48.052003540147098 0 7.5959729886525551 0 -1 0 I I #
straight-curve $-1 -48.052003540147098 -25.000145767540143 40.197298615817388 0 0 1 I I #
point $-1 -48.052003540147098 -25.00014576754014 7.5959729886525551 #
point $-1 -42.624101897321665 -23.743173175230233 2.924048839675232 #
point $-1 -42.624101897321665 -21.857714286765372 2.924048839675232 #
point $-1 -42.624101897321665 -19.972255398300508 2.924048839675232 #
edge $-1 $532 32.601325627164833 $526 38.526494750928045 $530 $577 forward 7 unknown #
straight-curve $-1 -48.052003540147098 10.928857143382682 1.6708038648893504 0 -1 0 I I #
point $-1 -48.052003540147098 25.000145767540136 1.6708038648893457 #
straight-curve $-1 0 25.000145767540136 7.5959729886525551 -1 0 0 I I #
point $-1 -48.052003540147098 25.000145767540136 7.5959729886525551 #
point $-1 -42.624101897321665 19.972255398300504 2.924048839675232 #
point $-1 -42.624101897321665 21.857714286765365 2.924048839675232 #
point $-1 -42.624101897321665 23.743173175230226 2.924048839675232 #
point $-1 -48.052003540147098 -32.803591027239307 7.5959729886525551 #
straight-curve $-1 0 -32.803591027239307 7.5959729886525551 1 0 0 I I #
straight-curve $-1 0 32.803591027239307 7.5959729886525551 -1 0 0 I I #
point $-1 -48.052003540147098 32.803591027239307 7.5959729886525551 #
straight-curve $-1 -48.052003540147098 25.000145767540136 40.197298615817388 0 0 -1 I I #
End-of-ACIS-data 