500 0 7 0           
7 Unknown 11 ACIS 5.0 NT 24 Fri Mar 26 01:18:48 1999 
-1 9.9999999999999995e-007 1e-010 
body $-1 $7 $-1 $8 #
body $-1 $9 $-1 $10 #
body $-1 $11 $-1 $12 #
body $-1 $13 $-1 $14 #
body $-1 $15 $-1 $16 #
body $-1 $17 $-1 $18 #
body $-1 $19 $-1 $20 #
lump $-1 $-1 $21 $0 #
transform $-1 1 0 0 0 1 0 0 0 1 41.320841090121156 16.549522084118596 6.6360719828862651 1 rotate no_reflect no_shear #
lump $-1 $-1 $22 $1 #
transform $-1 1 0 0 0 1 0 0 0 1 41.320841090121156 16.549522084118596 6.6360719828862651 1 rotate no_reflect no_shear #
lump $-1 $-1 $23 $2 #
transform $-1 1 0 0 0 1 0 0 0 1 41.320841090121156 16.549522084118596 6.6360719828862651 1 rotate no_reflect no_shear #
lump $-1 $-1 $24 $3 #
transform $-1 1 0 0 0 1 0 0 0 1 41.320841090121156 16.549522084118596 6.6360719828862651 1 rotate no_reflect no_shear #
lump $-1 $-1 $25 $4 #
transform $-1 1 0 0 0 1 0 0 0 1 41.320841090121156 16.549522084118596 6.6360719828862651 1 rotate no_reflect no_shear #
lump $-1 $-1 $26 $5 #
transform $-1 1 0 0 0 1 0 0 0 1 41.320841090121156 16.549522084118596 6.6360719828862651 1 rotate no_reflect no_shear #
lump $-1 $-1 $27 $6 #
transform $-1 1 0 0 0 1 0 0 0 1 41.320841090121156 16.549522084118596 6.6360719828862651 1 rotate no_reflect no_shear #
shell $-1 $-1 $-1 $28 $-1 $7 #
shell $-1 $-1 $-1 $29 $-1 $9 #
shell $-1 $-1 $-1 $30 $-1 $11 #
shell $-1 $-1 $-1 $31 $-1 $13 #
shell $-1 $-1 $-1 $32 $-1 $15 #
shell $-1 $-1 $-1 $33 $-1 $17 #
shell $-1 $-1 $-1 $34 $-1 $19 #
face $-1 $35 $36 $21 $-1 $37 forward single #
face $-1 $38 $39 $22 $-1 $40 forward single #
face $-1 $41 $42 $23 $-1 $43 reversed single #
face $-1 $44 $45 $24 $-1 $46 forward single #
face $-1 $47 $48 $25 $-1 $49 reversed single #
face $-1 $50 $51 $26 $-1 $52 forward single #
face $-1 $53 $54 $27 $-1 $55 forward single #
face $-1 $56 $57 $21 $-1 $58 reversed single #
loop $-1 $-1 $59 $28 #
plane-surface $-1 0 0 6.6360719828862651 0 0 1 1 0 0 forward_v I I I I #
face $-1 $60 $61 $22 $-1 $62 reversed single #
loop $-1 $-1 $63 $29 #
plane-surface $-1 -41.320841090121156 0 0 1 0 0 0 0 -1 forward_v I I I I #
face $-1 $64 $65 $23 $-1 $66 reversed single #
loop $-1 $-1 $67 $30 #
plane-surface $-1 -33.094416543374578 51.58145832984286 84.076270351417875 1 0 0 0 -0.70710678939079041 -0.70710677298230451 forward_v I I I I #
face $-1 $68 $69 $24 $-1 $70 forward single #
loop $-1 $71 $72 $31 #
cone-surface $-1 -26.108348402584209 13.829118131159104 3.9156679909317651 0 -0.70710678939079041 -0.70710677298230451 0.5 0 0 1 I I 0 1 0.5 forward I I I I #
face $-1 $73 $74 $25 $-1 $75 reversed single #
loop $-1 $-1 $76 $32 #
plane-surface $-1 -24.624108416428285 -85.062582337943809 48.494465863097453 -1 0 0 0 -0.82903758062907751 0.55919289150049634 forward_v I I I I #
face $-1 $77 $78 $26 $-1 $79 forward single #
loop $-1 $80 $81 $33 #
cone-surface $-1 -30.674328507104207 -13.893025628728218 3.6576267953507022 0 0.82903758062907751 -0.55919289150049634 1 0 0 1 I I 0 1 1 forward I I I I #
face $-1 $82 $83 $27 $-1 $84 forward single #
loop $-1 $85 $86 $34 #
cone-surface $-1 -27.044196452698657 -13.893025628728218 3.6576267953507022 0 0.82903758062907751 -0.55919289150049634 1 0 0 1 I I 0 1 1 forward I I I I #
face $-1 $87 $88 $21 $-1 $89 reversed single #
loop $-1 $-1 $90 $35 #
plane-surface $-1 0 0 -6.6360719828862651 0 0 1 1 0 0 forward_v I I I I #
coedge $-1 $91 $92 $93 $94 forward $36 $-1 #
face $-1 $95 $96 $22 $-1 $97 reversed single #
loop $-1 $-1 $98 $38 #
plane-surface $-1 0 16.549522084118596 0 0 -1 0 0 0 -1 forward_v I I I I #
coedge $-1 $99 $100 $101 $102 forward $39 $-1 #
face $-1 $103 $104 $23 $-1 $105 reversed single #
loop $-1 $-1 $106 $41 #
plane-surface $-1 -26.108348402584213 -6.8550362264823761 25.639777151117514 0 0.70710678939079041 0.70710677298230451 1 0 0 forward_v I I I I #
coedge $-1 $107 $108 $109 $110 reversed $42 $-1 #
face $-1 $-1 $111 $24 $-1 $112 forward single #
loop $-1 $113 $114 $44 #
cone-surface $-1 -26.108348402584209 13.132364272528232 3.2189141484691381 0 -0.70710678939079041 -0.70710677298230451 0.25 0 0 1 I I -0.70710678118654746 0.70710678118654746 0.25 forward I I I I #
loop $-1 $-1 $115 $31 #
coedge $-1 $72 $72 $116 $117 reversed $45 $-1 #
face $-1 $118 $119 $25 $-1 $120 reversed single #
loop $-1 $-1 $121 $47 #
plane-surface $-1 -28.859262479901432 -16.549522084118578 2.281824646262713 0 -0.82903758062907751 0.55919289150049634 1 0 0 forward_v I I I I #
coedge $-1 $122 $123 $124 $125 reversed $48 $-1 #
face $-1 $-1 $126 $26 $-1 $127 forward single #
loop $-1 $128 $129 $50 #
cone-surface $-1 -30.674328507104207 -12.290498793782241 2.5767088303766679 0 0.82903758062907751 -0.55919289150049634 0.5 0 0 1 I I -0.70710678118654746 0.70710678118654746 0.5 forward I I I I #
loop $-1 $-1 $130 $33 #
coedge $-1 $81 $81 $131 $132 reversed $51 $-1 #
face $-1 $-1 $133 $27 $-1 $134 forward single #
loop $-1 $135 $136 $53 #
cone-surface $-1 -27.044196452698657 -12.290498793782241 2.5767088303766679 0 0.82903758062907751 -0.55919289150049634 0.5 0 0 1 I I -0.70710678118654746 0.70710678118654746 0.5 forward I I I I #
loop $-1 $-1 $137 $34 #
coedge $-1 $86 $86 $138 $139 reversed $54 $-1 #
face $-1 $140 $141 $21 $-1 $142 reversed single #
loop $-1 $-1 $143 $56 #
plane-surface $-1 0 -16.549522084118596 0 0 1 0 0 0 1 forward_v I I I I #
coedge $-1 $144 $145 $146 $147 forward $57 $-1 #
coedge $-1 $148 $59 $149 $150 forward $36 $-1 #
coedge $-1 $59 $148 $151 $152 forward $36 $-1 #
coedge $-1 $153 $154 $59 $94 reversed $155 $-1 #
edge $-1 $156 -16.549522084118596 $157 16.549522084118596 $93 $158 forward 7 unknown #
face $-1 $159 $160 $22 $-1 $161 reversed single #
loop $-1 $-1 $101 $60 #
plane-surface $-1 -45.434053363494449 0 3.2907561398822702 0 0 1 1 0 0 forward_v I I I I #
coedge $-1 $162 $163 $99 $164 forward $61 $-1 #
coedge $-1 $165 $63 $98 $164 reversed $39 $-1 #
coedge $-1 $63 $165 $166 $167 reversed $39 $-1 #
coedge $-1 $168 $169 $63 $102 reversed $96 $-1 #
edge $-1 $170 -16.549522084118596 $171 16.549522084118596 $101 $172 forward 7 unknown #
face $-1 $173 $174 $23 $-1 $175 forward single #
loop $-1 $-1 $176 $64 #
plane-surface $-1 -19.122280261793847 51.58145832984286 84.076270351417875 -1 0 0 0 0.70710678939079041 0.70710677298230451 forward_v I I I I #
coedge $-1 $177 $178 $179 $180 reversed $65 $-1 #
coedge $-1 $108 $67 $181 $182 reversed $42 $-1 #
coedge $-1 $67 $107 $177 $183 reversed $42 $-1 #
coedge $-1 $179 $184 $67 $110 forward $174 $-1 #
edge $-1 $185 9.2412070808028339 $186 13.64206066415549 $109 $187 forward 7 unknown #
loop $-1 $-1 $116 $68 #
plane-surface $-1 -26.108348402584213 -6.8550362264823761 25.639777151117514 0 0.70710678939079041 0.70710677298230451 1 0 0 forward_v I I I I #
loop $-1 $-1 $188 $44 #
coedge $-1 $114 $114 $115 $189 reversed $69 $-1 #
coedge $-1 $115 $115 $114 $189 forward $71 $-1 #
coedge $-1 $116 $116 $72 $117 forward $111 $-1 #
edge $-1 $190 -1.2560743895832506e-015 $190 6.2831853071795996 $116 $191 forward 7 unknown #
face $-1 $192 $193 $25 $-1 $194 reversed single #
loop $-1 $-1 $195 $73 #
plane-surface $-1 -33.094416543374578 -85.062582337943809 48.494465863097453 1 0 0 0 0.82903758062907751 -0.55919289150049634 forward_v I I I I #
coedge $-1 $196 $197 $198 $199 reversed $74 $-1 #
coedge $-1 $123 $76 $200 $201 reversed $48 $-1 #
coedge $-1 $76 $122 $196 $202 reversed $48 $-1 #
coedge $-1 $198 $203 $76 $125 forward $204 $-1 #
edge $-1 $205 25.981769084853308 $206 28.918745906371203 $124 $207 forward 7 unknown #
loop $-1 $-1 $131 $77 #
plane-surface $-1 -28.859262479901432 -16.549522084118578 2.281824646262713 0 -0.82903758062907751 0.55919289150049634 1 0 0 forward_v I I I I #
loop $-1 $-1 $208 $50 #
coedge $-1 $129 $129 $130 $209 reversed $78 $-1 #
coedge $-1 $130 $130 $129 $209 forward $80 $-1 #
coedge $-1 $131 $131 $81 $132 forward $126 $-1 #
edge $-1 $210 -6.9290398284259556e-017 $210 6.2831853071796004 $131 $211 forward 7 unknown #
loop $-1 $-1 $138 $82 #
plane-surface $-1 -28.859262479901432 -16.549522084118578 2.281824646262713 0 -0.82903758062907751 0.55919289150049634 1 0 0 forward_v I I I I #
loop $-1 $-1 $212 $53 #
coedge $-1 $136 $136 $137 $213 reversed $83 $-1 #
coedge $-1 $137 $137 $136 $213 forward $85 $-1 #
coedge $-1 $138 $138 $86 $139 forward $133 $-1 #
edge $-1 $214 -6.9290398284259556e-017 $214 6.2831853071796004 $138 $215 forward 7 unknown #
face $-1 $216 $217 $21 $-1 $218 reversed single #
loop $-1 $-1 $219 $87 #
plane-surface $-1 -41.320841090121156 0 0 1 0 0 0 0 -1 forward_v I I I I #
coedge $-1 $220 $151 $221 $222 forward $88 $-1 #
coedge $-1 $223 $90 $220 $224 forward $57 $-1 #
coedge $-1 $90 $223 $225 $226 forward $57 $-1 #
coedge $-1 $154 $153 $90 $147 reversed $155 $-1 #
edge $-1 $227 -16.549522084118596 $228 16.549522084118596 $146 $229 forward 7 unknown #
coedge $-1 $92 $91 $230 $231 forward $36 $-1 #
coedge $-1 $232 $233 $91 $150 reversed $217 $-1 #
edge $-1 $157 -41.320841090121156 $234 41.320841090121156 $149 $235 forward 7 unknown #
coedge $-1 $143 $236 $92 $152 reversed $88 $-1 #
edge $-1 $237 -41.320841090121156 $156 41.320841090121156 $151 $238 forward 7 unknown #
coedge $-1 $146 $93 $236 $239 forward $155 $-1 #
coedge $-1 $93 $146 $232 $240 reversed $155 $-1 #
loop $-1 $-1 $153 $216 #
vertex $-1 $94 $241 #
vertex $-1 $94 $242 #
straight-curve $-1 41.320841090121156 0 6.6360719828862651 0 1 0 I I #
face $-1 $243 $244 $22 $-1 $245 forward single #
loop $-1 $-1 $246 $95 #
plane-surface $-1 -49.547265636867742 0 4.9634140613842677 1 0 0 0 0 -1 forward_v I I I I #
coedge $-1 $247 $98 $169 $248 reversed $61 $-1 #
coedge $-1 $98 $247 $249 $250 reversed $61 $-1 #
edge $-1 $251 -6.6360719828862651 $171 -3.2907561398822702 $98 $252 forward 7 unknown #
coedge $-1 $100 $99 $253 $254 reversed $39 $-1 #
coedge $-1 $255 $256 $100 $167 forward $257 $-1 #
edge $-1 $170 3.2907561398822702 $258 6.6360719828862651 $166 $259 forward 7 unknown #
coedge $-1 $260 $101 $256 $261 forward $96 $-1 #
coedge $-1 $101 $260 $162 $248 forward $96 $-1 #
vertex $-1 $167 $262 #
vertex $-1 $164 $263 #
straight-curve $-1 -41.320841090121156 0 3.2907561398822702 0 1 0 I I #
face $-1 $-1 $264 $23 $-1 $265 reversed single #
loop $-1 $-1 $109 $103 #
plane-surface $-1 0 0 6.6360719828862651 0 0 1 1 0 0 forward_v I I I I #
coedge $-1 $266 $267 $268 $269 reversed $104 $-1 #
coedge $-1 $270 $106 $108 $183 forward $65 $-1 #
coedge $-1 $106 $270 $266 $271 forward $65 $-1 #
coedge $-1 $268 $109 $106 $180 forward $174 $-1 #
edge $-1 $186 -20.040242342082472 $272 -6.0681060605017407 $179 $273 forward 7 unknown #
coedge $-1 $274 $275 $107 $182 forward $264 $-1 #
edge $-1 $276 -39.802916878297594 $185 -35.402063192822673 $181 $277 forward 7 unknown #
edge $-1 $186 26.875297272430299 $276 33.099044168237207 $108 $278 forward 7 unknown #
coedge $-1 $109 $268 $274 $279 forward $174 $-1 #
vertex $-1 $182 $280 #
vertex $-1 $110 $281 #
straight-curve $-1 -33.094416543374578 25.79072916492143 6.6360719828862642 0 -1 0 I I #
coedge $-1 $188 $188 $-1 $282 reversed $113 $-1 #
edge $-1 $283 0 $283 6.2831853071796004 $114 $284 forward 7 unknown #
vertex $-1 $117 $285 #
ellipse-curve $-1 -26.108348402584209 14.349095292442266 4.4356451401488028 0 0.70710678939079041 0.70710677298230451 0.5 0 0 1 I I #
face $-1 $-1 $204 $25 $-1 $286 forward single #
loop $-1 $-1 $287 $118 #
plane-surface $-1 0 -16.549522084118596 0 0 1 0 0 0 1 forward_v I I I I #
coedge $-1 $288 $289 $290 $291 reversed $119 $-1 #
coedge $-1 $292 $121 $123 $202 forward $74 $-1 #
coedge $-1 $121 $292 $288 $293 forward $74 $-1 #
coedge $-1 $290 $124 $121 $199 forward $204 $-1 #
edge $-1 $206 10.194477176477569 $294 18.664785303423862 $198 $295 forward 7 unknown #
coedge $-1 $296 $297 $122 $201 forward $193 $-1 #
edge $-1 $298 -21.965408285286038 $205 -17.611160948662462 $200 $299 forward 7 unknown #
edge $-1 $206 -5.2521712385095132 $298 3.1655093176545992e-014 $123 $300 forward 7 unknown #
coedge $-1 $124 $290 $296 $301 forward $204 $-1 #
loop $-1 $-1 $290 $192 #
vertex $-1 $201 $302 #
vertex $-1 $125 $303 #
straight-curve $-1 -24.624108416428285 -42.531291168971904 6.6360719828862642 0 1 0 I I #
coedge $-1 $208 $208 $-1 $304 reversed $128 $-1 #
edge $-1 $305 0 $305 6.2831853071796004 $129 $306 forward 7 unknown #
vertex $-1 $132 $307 #
ellipse-curve $-1 -30.674328507104207 -15.081033673359645 4.4589483145744815 0 -0.82903758062907751 0.55919289150049634 1 0 0 1 I I #
coedge $-1 $212 $212 $-1 $308 reversed $135 $-1 #
edge $-1 $309 0 $309 6.2831853071796004 $136 $310 forward 7 unknown #
vertex $-1 $139 $311 #
ellipse-curve $-1 -27.044196452698657 -15.081033673359645 4.4589483145744815 0 -0.82903758062907751 0.55919289150049634 1 0 0 1 I I #
face $-1 $-1 $155 $21 $-1 $312 reversed single #
loop $-1 $-1 $232 $140 #
plane-surface $-1 0 16.549522084118596 0 0 -1 0 0 0 -1 forward_v I I I I #
coedge $-1 $313 $230 $233 $314 forward $141 $-1 #
coedge $-1 $236 $143 $144 $224 reversed $88 $-1 #
coedge $-1 $230 $313 $143 $222 reversed $141 $-1 #
edge $-1 $237 -6.6360719828862651 $315 6.6360719828862651 $221 $316 forward 7 unknown #
coedge $-1 $145 $144 $313 $317 forward $57 $-1 #
edge $-1 $228 -41.320841090121156 $315 41.320841090121156 $220 $318 forward 7 unknown #
coedge $-1 $233 $232 $145 $226 reversed $217 $-1 #
edge $-1 $319 -41.320841090121156 $227 41.320841090121156 $225 $320 forward 7 unknown #
vertex $-1 $147 $321 #
vertex $-1 $239 $322 #
straight-curve $-1 41.320841090121156 0 -6.6360719828862651 0 -1 0 I I #
coedge $-1 $219 $221 $148 $231 reversed $141 $-1 #
edge $-1 $234 -16.549522084118596 $237 16.549522084118596 $230 $323 forward 7 unknown #
coedge $-1 $225 $149 $154 $240 forward $217 $-1 #
coedge $-1 $149 $225 $219 $314 reversed $217 $-1 #
vertex $-1 $150 $324 #
straight-curve $-1 0 16.549522084118596 6.6360719828862651 -1 0 0 I I #
coedge $-1 $151 $220 $153 $239 reversed $88 $-1 #
vertex $-1 $231 $325 #
straight-curve $-1 0 -16.549522084118596 6.6360719828862651 1 0 0 I I #
edge $-1 $156 -6.6360719828862651 $228 6.6360719828862651 $153 $326 forward 7 unknown #
edge $-1 $157 -6.6360719828862651 $227 6.6360719828862651 $154 $327 forward 7 unknown #
point $-1 41.320841090121156 -16.549522084118596 6.6360719828862651 #
point $-1 41.320841090121156 16.549522084118596 6.6360719828862651 #
face $-1 $-1 $257 $22 $-1 $328 reversed single #
loop $-1 $-1 $253 $159 #
plane-surface $-1 0 0 6.6360719828862651 0 0 1 1 0 0 forward_v I I I I #
coedge $-1 $329 $330 $247 $331 forward $160 $-1 #
coedge $-1 $163 $162 $246 $331 reversed $61 $-1 #
edge $-1 $332 -4.1132122733732928 $171 4.1132122733732928 $162 $333 forward 7 unknown #
coedge $-1 $334 $253 $163 $250 forward $244 $-1 #
edge $-1 $251 41.320841090121156 $335 49.547265636867742 $163 $336 forward 7 unknown #
vertex $-1 $250 $337 #
straight-curve $-1 -41.320841090121156 16.549522084118596 0 0 0 -1 I I #
coedge $-1 $249 $338 $165 $254 forward $244 $-1 #
edge $-1 $258 -16.549522084118596 $251 16.549522084118596 $253 $339 forward 7 unknown #
coedge $-1 $340 $166 $338 $341 reversed $257 $-1 #
coedge $-1 $166 $340 $168 $261 reversed $257 $-1 #
loop $-1 $-1 $166 $243 #
vertex $-1 $167 $342 #
straight-curve $-1 -41.320841090121156 -16.549522084118596 0 0 0 1 I I #
coedge $-1 $169 $168 $329 $343 forward $96 $-1 #
edge $-1 $170 -4.1132122733732928 $344 4.1132122733732928 $256 $345 forward 7 unknown #
point $-1 -41.320841090121156 -16.549522084118596 3.2907561398822702 #
point $-1 -41.320841090121156 16.549522084118596 3.2907561398822702 #
loop $-1 $-1 $181 $173 #
plane-surface $-1 0 16.549522084118596 0 0 -1 0 0 0 -1 forward_v I I I I #
coedge $-1 $267 $176 $178 $271 reversed $104 $-1 #
coedge $-1 $176 $266 $346 $347 reversed $104 $-1 #
coedge $-1 $184 $179 $176 $269 forward $174 $-1 #
edge $-1 $272 -13.64206066415549 $348 -9.2412070808028339 $268 $349 forward 7 unknown #
coedge $-1 $178 $177 $275 $350 reversed $65 $-1 #
edge $-1 $351 -33.099044168237207 $272 -26.875297272430299 $266 $352 forward 7 unknown #
vertex $-1 $180 $353 #
straight-curve $-1 -13.054174201292106 12.148668500765938 6.6360719828862607 1 0 0 I I #
coedge $-1 $346 $181 $184 $279 reversed $264 $-1 #
coedge $-1 $181 $346 $270 $350 forward $264 $-1 #
vertex $-1 $182 $354 #
straight-curve $-1 -33.094416543374578 16.549522084118596 42.038135175708938 0 0 1 I I #
straight-curve $-1 -33.094416543374578 -6.8550362264823761 25.639777151117514 0 0.70710677298230451 -0.70710678939079041 I I #
edge $-1 $348 19.122280261793847 $185 33.094416543374578 $274 $355 forward 7 unknown #
point $-1 -33.094416543374578 16.549522084118596 6.6360719828862651 #
point $-1 -33.094416543374578 12.14866850076594 6.6360719828862642 #
edge $-1 $356 1 $356 0 $188 $-1 forward 7 unknown #
vertex $-1 $189 $357 #
ellipse-curve $-1 -26.108348402584209 13.30914096987593 3.3956908417147145 0 0.70710678939079041 0.70710677298230451 0.5 0 0 1 I I #
point $-1 -25.608348402584209 14.349095292442279 4.4356451401488162 #
plane-surface $-1 0 0 6.6360719828862651 0 0 1 1 0 0 forward_v I I I I #
coedge $-1 $297 $296 $289 $358 forward $193 $-1 #
coedge $-1 $289 $195 $197 $293 reversed $119 $-1 #
coedge $-1 $195 $288 $287 $358 reversed $119 $-1 #
coedge $-1 $203 $198 $195 $291 forward $204 $-1 #
edge $-1 $294 -28.918745906371203 $359 -25.981769084853308 $290 $360 forward 7 unknown #
coedge $-1 $197 $196 $297 $361 reversed $74 $-1 #
edge $-1 $362 -3.1655093176545992e-014 $294 5.2521712385095132 $288 $363 forward 7 unknown #
vertex $-1 $199 $364 #
straight-curve $-1 -14.429631239950716 -13.612545262600699 6.6360719828862651 -1 0 0 I I #
coedge $-1 $287 $200 $203 $301 reversed $193 $-1 #
coedge $-1 $200 $287 $292 $361 forward $193 $-1 #
vertex $-1 $201 $365 #
straight-curve $-1 -24.624108416428285 -16.549522084118593 24.247232931548726 0 0 1 I I #
straight-curve $-1 -24.624108416428285 -16.549522084118578 2.281824646262713 0 -0.55919289150049634 -0.82903758062907751 I I #
edge $-1 $359 -33.094416543374578 $205 -24.624108416428285 $296 $366 forward 7 unknown #
point $-1 -24.624108416428285 -16.549522084118596 6.6360719828862651 #
point $-1 -24.624108416428285 -13.612545262600701 6.6360719828862651 #
edge $-1 $367 1 $367 0 $208 $-1 forward 7 unknown #
vertex $-1 $209 $368 #
ellipse-curve $-1 -30.674328507104207 -12.70501758409678 2.8563052761269159 0 -0.82903758062907751 0.55919289150049634 1 0 0 1 I I #
point $-1 -29.674328507104207 -15.081033673359656 4.4589483145744886 #
edge $-1 $369 1 $369 0 $212 $-1 forward 7 unknown #
vertex $-1 $213 $370 #
ellipse-curve $-1 -27.044196452698657 -12.70501758409678 2.8563052761269159 0 -0.82903758062907751 0.55919289150049634 1 0 0 1 I I #
point $-1 -26.044196452698657 -15.081033673359656 4.4589483145744886 #
plane-surface $-1 41.320841090121156 0 0 -1 0 0 0 0 1 forward_v I I I I #
coedge $-1 $221 $219 $223 $317 reversed $141 $-1 #
edge $-1 $234 -6.6360719828862651 $319 6.6360719828862651 $233 $371 forward 7 unknown #
vertex $-1 $317 $372 #
straight-curve $-1 -41.320841090121156 -16.549522084118596 0 0 0 -1 I I #
edge $-1 $315 -16.549522084118596 $319 16.549522084118596 $313 $373 forward 7 unknown #
straight-curve $-1 0 -16.549522084118596 -6.6360719828862651 -1 0 0 I I #
vertex $-1 $226 $374 #
straight-curve $-1 0 16.549522084118596 -6.6360719828862651 1 0 0 I I #
point $-1 41.320841090121156 16.549522084118596 -6.6360719828862651 #
point $-1 41.320841090121156 -16.549522084118596 -6.6360719828862651 #
straight-curve $-1 -41.320841090121156 0 6.6360719828862651 0 -1 0 I I #
point $-1 -41.320841090121156 16.549522084118596 6.6360719828862651 #
point $-1 -41.320841090121156 -16.549522084118596 6.6360719828862651 #
straight-curve $-1 41.320841090121156 -16.549522084118596 0 0 0 -1 I I #
straight-curve $-1 41.320841090121156 16.549522084118596 0 0 0 -1 I I #
plane-surface $-1 0 -16.549522084118596 0 0 1 0 0 0 1 forward_v I I I I #
coedge $-1 $375 $246 $260 $343 reversed $160 $-1 #
coedge $-1 $246 $375 $334 $376 reversed $160 $-1 #
edge $-1 $335 -1.6726579215019974 $332 1.6726579215019974 $247 $377 forward 7 unknown #
vertex $-1 $248 $378 #
straight-curve $-1 -45.434053363494449 16.549522084118596 3.2907561398822702 1 0 0 I I #
coedge $-1 $338 $249 $330 $376 forward $244 $-1 #
vertex $-1 $250 $379 #
straight-curve $-1 0 16.549522084118596 6.6360719828862651 -1 0 0 I I #
point $-1 -41.320841090121156 16.549522084118596 6.6360719828862651 #
coedge $-1 $253 $334 $255 $341 forward $244 $-1 #
straight-curve $-1 -41.320841090121156 0 6.6360719828862651 0 1 0 I I #
coedge $-1 $256 $255 $375 $380 forward $257 $-1 #
edge $-1 $381 -49.547265636867742 $258 -41.320841090121156 $255 $382 forward 7 unknown #
point $-1 -41.320841090121156 -16.549522084118596 6.6360719828862651 #
edge $-1 $344 -16.549522084118596 $332 16.549522084118596 $329 $383 forward 7 unknown #
vertex $-1 $343 $384 #
straight-curve $-1 -45.434053363494449 -16.549522084118596 3.2907561398822702 -1 0 0 I I #
coedge $-1 $275 $274 $267 $347 forward $264 $-1 #
edge $-1 $348 35.402063192822673 $351 39.802916878297594 $346 $385 forward 7 unknown #
vertex $-1 $279 $386 #
straight-curve $-1 -19.122280261793847 25.79072916492143 6.6360719828862642 0 1 0 I I #
edge $-1 $351 6.0681060605017407 $276 20.040242342082472 $275 $387 forward 7 unknown #
vertex $-1 $350 $388 #
straight-curve $-1 -19.122280261793847 -6.8550362264823761 25.639777151117514 0 -0.70710677298230451 0.70710678939079041 I I #
point $-1 -19.122280261793847 12.14866850076594 6.6360719828862642 #
point $-1 -33.094416543374578 16.549522084118593 2.2352182974113433 #
straight-curve $-1 0 16.549522084118596 6.6360719828862651 -1 0 0 I I #
vertex $-1 $282 $389 #
point $-1 -25.608348402584209 13.30914096987593 3.3956908417147145 #
edge $-1 $359 17.611160948662462 $362 21.965408285286038 $287 $390 forward 7 unknown #
vertex $-1 $301 $391 #
straight-curve $-1 -33.094416543374578 -42.531291168971904 6.6360719828862642 0 -1 0 I I #
edge $-1 $362 -18.664785303423862 $298 -10.194477176477569 $297 $392 forward 7 unknown #
vertex $-1 $361 $393 #
straight-curve $-1 -33.094416543374578 -16.549522084118578 2.281824646262713 0 0.55919289150049634 0.82903758062907751 I I #
point $-1 -33.094416543374578 -13.612545262600701 6.6360719828862651 #
point $-1 -24.624108416428285 -16.549522084118596 2.2818246462626868 #
straight-curve $-1 0 -16.549522084118596 6.6360719828862651 1 0 0 I I #
vertex $-1 $304 $394 #
point $-1 -29.674328507104207 -12.70501758409678 2.8563052761269159 #
vertex $-1 $308 $395 #
point $-1 -26.044196452698657 -12.70501758409678 2.8563052761269159 #
straight-curve $-1 -41.320841090121156 16.549522084118596 0 0 0 -1 I I #
point $-1 -41.320841090121156 -16.549522084118596 -6.6360719828862651 #
straight-curve $-1 -41.320841090121156 0 -6.6360719828862651 0 1 0 I I #
point $-1 -41.320841090121156 16.549522084118596 -6.6360719828862651 #
coedge $-1 $330 $329 $340 $380 reversed $160 $-1 #
edge $-1 $335 -16.549522084118596 $381 16.549522084118596 $330 $396 forward 7 unknown #
straight-curve $-1 -49.547265636867742 16.549522084118596 4.9634140613842677 0 0 -1 I I #
point $-1 -49.547265636867742 16.549522084118596 3.2907561398822702 #
point $-1 -49.547265636867742 16.549522084118596 6.6360719828862651 #
edge $-1 $381 -1.6726579215019974 $344 1.6726579215019974 $375 $397 forward 7 unknown #
vertex $-1 $376 $398 #
straight-curve $-1 0 -16.549522084118596 6.6360719828862651 1 0 0 I I #
straight-curve $-1 -49.547265636867742 0 3.2907561398822702 0 1 0 I I #
point $-1 -49.547265636867742 -16.549522084118596 3.2907561398822702 #
straight-curve $-1 -19.122280261793847 16.549522084118596 42.038135175708938 0 0 -1 I I #
point $-1 -19.122280261793847 16.549522084118596 6.6360719828862651 #
straight-curve $-1 -13.054174201292106 16.549522084118593 2.2352182974113415 -1 0 0 I I #
point $-1 -19.122280261793847 16.549522084118593 2.2352182974113433 #
point $-1 -26.108348402584209 12.955587575180534 3.0421374552235618 #
straight-curve $-1 -33.094416543374578 -16.549522084118593 24.247232931548726 0 0 -1 I I #
point $-1 -33.094416543374578 -16.549522084118596 6.6360719828862651 #
straight-curve $-1 -14.429631239950716 -16.549522084118596 2.2818246462626868 1 0 0 I I #
point $-1 -33.094416543374578 -16.549522084118596 2.2818246462626868 #
point $-1 -30.674328507104207 -11.875980003467703 2.2971123846264199 #
point $-1 -27.044196452698657 -11.875980003467703 2.2971123846264199 #
straight-curve $-1 -49.547265636867742 0 6.6360719828862651 0 -1 0 I I #
straight-curve $-1 -49.547265636867742 -16.549522084118596 4.9634140613842677 0 0 -1 I I #
point $-1 -49.547265636867742 -16.549522084118596 6.6360719828862651 #
End-of-ACIS-data 