500 0 16 0           
7 Unknown 11 ACIS 5.0 NT 24 Fri Mar 26 19:58:49 1999 
-1 9.9999999999999995e-007 1e-010 
body $-1 $16 $-1 $17 #
body $-1 $18 $-1 $19 #
body $-1 $20 $-1 $21 #
body $-1 $22 $-1 $23 #
body $-1 $24 $-1 $25 #
body $-1 $26 $-1 $27 #
body $-1 $28 $-1 $29 #
body $-1 $30 $-1 $31 #
body $-1 $32 $-1 $33 #
body $-1 $34 $-1 $35 #
body $-1 $36 $-1 $37 #
body $-1 $38 $-1 $39 #
body $-1 $40 $-1 $41 #
body $-1 $42 $-1 $43 #
body $-1 $44 $-1 $45 #
body $-1 $46 $-1 $47 #
lump $-1 $-1 $48 $0 #
transform $-1 1 0 0 0 1 0 0 0 1 61.957457197790461 41.203874058915723 11.73594275351587 1 rotate no_reflect no_shear #
lump $-1 $-1 $49 $1 #
transform $-1 1 0 0 0 1 0 0 0 1 61.957457197790461 41.203874058915723 11.73594275351587 1 rotate no_reflect no_shear #
lump $-1 $-1 $50 $2 #
transform $-1 1 0 0 0 1 0 0 0 1 61.957457197790461 41.203874058915723 11.73594275351587 1 rotate no_reflect no_shear #
lump $-1 $-1 $51 $3 #
transform $-1 1 0 0 0 1 0 0 0 1 61.957457197790461 41.203874058915723 11.73594275351587 1 rotate no_reflect no_shear #
lump $-1 $-1 $52 $4 #
transform $-1 1 0 0 0 1 0 0 0 1 61.957457197790461 41.203874058915723 11.73594275351587 1 rotate no_reflect no_shear #
lump $-1 $-1 $53 $5 #
transform $-1 1 0 0 0 1 0 0 0 1 61.957457197790461 41.203874058915723 11.73594275351587 1 rotate no_reflect no_shear #
lump $-1 $-1 $54 $6 #
transform $-1 1 0 0 0 1 0 0 0 1 61.957457197790461 41.203874058915723 11.73594275351587 1 rotate no_reflect no_shear #
lump $-1 $-1 $55 $7 #
transform $-1 1 0 0 0 1 0 0 0 1 61.957457197790461 41.203874058915723 11.73594275351587 1 rotate no_reflect no_shear #
lump $-1 $-1 $56 $8 #
transform $-1 1 0 0 0 1 0 0 0 1 61.957457197790461 41.203874058915723 11.73594275351587 1 rotate no_reflect no_shear #
lump $-1 $-1 $57 $9 #
transform $-1 1 0 0 0 1 0 0 0 1 61.957457197790461 41.203874058915723 11.73594275351587 1 rotate no_reflect no_shear #
lump $-1 $-1 $58 $10 #
transform $-1 1 0 0 0 1 0 0 0 1 61.957457197790461 41.203874058915723 11.73594275351587 1 rotate no_reflect no_shear #
lump $-1 $-1 $59 $11 #
transform $-1 1 0 0 0 1 0 0 0 1 61.957457197790461 41.203874058915723 11.73594275351587 1 rotate no_reflect no_shear #
lump $-1 $-1 $60 $12 #
transform $-1 1 0 0 0 1 0 0 0 1 61.957457197790461 41.203874058915723 11.73594275351587 1 rotate no_reflect no_shear #
lump $-1 $-1 $61 $13 #
transform $-1 1 0 0 0 1 0 0 0 1 61.957457197790461 41.203874058915723 11.73594275351587 1 rotate no_reflect no_shear #
lump $-1 $-1 $62 $14 #
transform $-1 1 0 0 0 1 0 0 0 1 61.957457197790461 41.203874058915723 11.73594275351587 1 rotate no_reflect no_shear #
lump $-1 $-1 $63 $15 #
transform $-1 1 0 0 0 1 0 0 0 1 61.957457197790461 41.203874058915723 11.73594275351587 1 rotate no_reflect no_shear #
shell $-1 $-1 $-1 $64 $-1 $16 #
shell $-1 $-1 $-1 $65 $-1 $18 #
shell $-1 $-1 $-1 $66 $-1 $20 #
shell $-1 $-1 $-1 $67 $-1 $22 #
shell $-1 $-1 $-1 $68 $-1 $24 #
shell $-1 $-1 $-1 $69 $-1 $26 #
shell $-1 $-1 $-1 $70 $-1 $28 #
shell $-1 $-1 $-1 $71 $-1 $30 #
shell $-1 $-1 $-1 $72 $-1 $32 #
shell $-1 $-1 $-1 $73 $-1 $34 #
shell $-1 $-1 $-1 $74 $-1 $36 #
shell $-1 $-1 $-1 $75 $-1 $38 #
shell $-1 $-1 $-1 $76 $-1 $40 #
shell $-1 $-1 $-1 $77 $-1 $42 #
shell $-1 $-1 $-1 $78 $-1 $44 #
shell $-1 $-1 $-1 $79 $-1 $46 #
face $-1 $80 $81 $48 $-1 $82 reversed single #
face $-1 $83 $84 $49 $-1 $85 forward single #
face $-1 $86 $87 $50 $-1 $88 reversed single #
face $-1 $89 $90 $51 $-1 $91 forward single #
face $-1 $92 $93 $52 $-1 $94 forward single #
face $-1 $95 $96 $53 $-1 $97 reversed single #
face $-1 $98 $99 $54 $-1 $100 forward single #
face $-1 $101 $102 $55 $-1 $103 forward single #
face $-1 $104 $105 $56 $-1 $106 reversed single #
face $-1 $107 $108 $57 $-1 $109 forward single #
face $-1 $110 $111 $58 $-1 $112 forward single #
face $-1 $113 $114 $59 $-1 $115 forward single #
face $-1 $116 $117 $60 $-1 $118 reversed single #
face $-1 $119 $120 $61 $-1 $121 forward single #
face $-1 $122 $123 $62 $-1 $124 forward single #
face $-1 $125 $126 $63 $-1 $127 forward single #
face $-1 $128 $129 $48 $-1 $130 forward single #
loop $-1 $-1 $131 $64 #
plane-surface $-1 0 -41.203874058915723 0 0 1 0 0 0 1 forward_v I I I I #
face $-1 $132 $133 $49 $-1 $134 forward single #
loop $-1 $-1 $135 $65 #
plane-surface $-1 0 -41.203874058915723 0 0 1 0 0 0 1 forward_v I I I I #
face $-1 $136 $137 $50 $-1 $138 reversed single #
loop $-1 $-1 $139 $66 #
plane-surface $-1 -149.57853447368433 -17.687881414535767 94.905071091168509 0 1 0 -0.70710678939079041 0 0.70710677298230451 forward_v I I I I #
face $-1 $140 $141 $51 $-1 $142 forward single #
loop $-1 $143 $144 $67 #
cone-surface $-1 -59.377930402256453 -14.157308366561704 9.1564159145321558 0.70710678939079041 0 -0.70710677298230451 0.35355338649115226 0 0.35355339469539521 1 I I 0 1 0.5 forward I I I I #
face $-1 $145 $146 $52 $-1 $147 forward single #
loop $-1 $148 $149 $68 #
cone-surface $-1 -59.377930402256453 -8.8614487946006122 9.1564159145321558 0.70710678939079041 0 -0.70710677298230451 0.35355338649115226 0 0.35355339469539521 1 I I 0 1 0.5 forward I I I I #
face $-1 $150 $151 $53 $-1 $152 reversed single #
loop $-1 $-1 $153 $69 #
plane-surface $-1 -149.57853447368433 18.013355180627222 94.905071091168509 0 1 0 -0.70710678939079041 0 0.70710677298230451 forward_v I I I I #
face $-1 $154 $155 $54 $-1 $156 forward single #
loop $-1 $157 $158 $70 #
cone-surface $-1 -59.377930402256453 21.543928228601281 9.1564159145321558 0.70710678939079041 0 -0.70710677298230451 0.35355338649115226 0 0.35355339469539521 1 I I 0 1 0.5 forward I I I I #
face $-1 $159 $160 $55 $-1 $161 forward single #
loop $-1 $162 $163 $71 #
cone-surface $-1 -59.377930402256453 26.83978780056237 9.1564159145321558 0.70710678939079041 0 -0.70710677298230451 0.35355338649115226 0 0.35355339469539521 1 I I 0 1 0.5 forward I I I I #
face $-1 $164 $165 $56 $-1 $166 reversed single #
loop $-1 $-1 $167 $72 #
plane-surface $-1 22.53655163207182 -2.0219032665052978 177.78062629839187 0 -1 0 -0.52991927123019833 0 -0.84804809178421925 forward_v I I I I #
face $-1 $168 $169 $57 $-1 $170 forward single #
loop $-1 $171 $172 $73 #
cone-surface $-1 57.23583861045104 -12.153309948599293 7.8529914995833749 -0.52991927123019833 0 -0.84804809178421925 0.84804809178421925 0 -0.52991927123019833 1 I I 0 1 1 forward I I I I #
face $-1 $173 $174 $58 $-1 $175 forward single #
loop $-1 $176 $177 $74 #
cone-surface $-1 57.23583861045104 -8.3540324428140451 7.8529914995833749 -0.52991927123019833 0 -0.84804809178421925 0.84804809178421925 0 -0.52991927123019833 1 I I 0 1 1 forward I I I I #
face $-1 $178 $179 $59 $-1 $180 forward single #
loop $-1 $181 $182 $75 #
cone-surface $-1 57.23583861045104 -4.5547549370287967 7.8529914995833749 -0.52991927123019833 0 -0.84804809178421925 0.84804809178421925 0 -0.52991927123019833 1 I I 0 1 1 forward I I I I #
face $-1 $183 $184 $60 $-1 $185 reversed single #
loop $-1 $-1 $186 $76 #
plane-surface $-1 22.53655163207182 33.679333328657691 177.78062629839187 0 -1 0 -0.52991927123019833 0 -0.84804809178421925 forward_v I I I I #
face $-1 $187 $188 $61 $-1 $189 forward single #
loop $-1 $190 $191 $77 #
cone-surface $-1 57.23583861045104 23.547926646563688 7.8529914995833749 -0.52991927123019833 0 -0.84804809178421925 0.84804809178421925 0 -0.52991927123019833 1 I I 0 1 1 forward I I I I #
face $-1 $192 $193 $62 $-1 $194 forward single #
loop $-1 $195 $196 $78 #
cone-surface $-1 57.23583861045104 27.347204152348944 7.8529914995833749 -0.52991927123019833 0 -0.84804809178421925 0.84804809178421925 0 -0.52991927123019833 1 I I 0 1 1 forward I I I I #
face $-1 $197 $198 $63 $-1 $199 forward single #
loop $-1 $200 $201 $79 #
cone-surface $-1 57.23583861045104 31.146481658134185 7.8529914995833749 -0.52991927123019833 0 -0.84804809178421925 0.84804809178421925 0 -0.52991927123019833 1 I I 0 1 1 forward I I I I #
face $-1 $202 $203 $48 $-1 $204 reversed single #
loop $-1 $-1 $205 $80 #
plane-surface $-1 0 0 11.73594275351587 0 0 1 1 0 0 forward_v I I I I #
coedge $-1 $206 $207 $208 $209 reversed $81 $-1 #
face $-1 $210 $211 $49 $-1 $212 reversed single #
loop $-1 $-1 $213 $83 #
plane-surface $-1 0 0 11.73594275351587 0 0 1 1 0 0 forward_v I I I I #
coedge $-1 $214 $215 $216 $217 forward $84 $-1 #
face $-1 $218 $219 $50 $-1 $220 reversed single #
loop $-1 $-1 $221 $86 #
plane-surface $-1 -61.957457197790461 -11.509378580581156 7.2839958485307648 -0.70710678939079041 0 0.70710677298230451 0.70710677298230451 0 0.70710678939079041 forward_v I I I I #
coedge $-1 $222 $223 $224 $225 reversed $87 $-1 #
face $-1 $-1 $226 $51 $-1 $227 forward single #
loop $-1 $228 $229 $89 #
cone-surface $-1 -58.847600310213359 -14.157308366561704 8.6260858347954272 0.70710678939079041 0 -0.70710677298230451 0.17677669324557613 0 0.1767766973476976 1 I I -0.70710678118654746 0.70710678118654746 0.25 forward I I I I #
loop $-1 $-1 $230 $67 #
coedge $-1 $144 $144 $231 $232 reversed $90 $-1 #
face $-1 $-1 $233 $52 $-1 $234 forward single #
loop $-1 $235 $236 $92 #
cone-surface $-1 -58.847600310213359 -8.8614487946006122 8.6260858347954272 0.70710678939079041 0 -0.70710677298230451 0.17677669324557613 0 0.1767766973476976 1 I I -0.70710678118654746 0.70710678118654746 0.25 forward I I I I #
loop $-1 $-1 $237 $68 #
coedge $-1 $149 $149 $238 $239 reversed $93 $-1 #
face $-1 $240 $241 $53 $-1 $242 reversed single #
loop $-1 $-1 $243 $95 #
plane-surface $-1 -61.957457197790461 24.191858014581832 7.2839958485307648 -0.70710678939079041 0 0.70710677298230451 0.70710677298230451 0 0.70710678939079041 forward_v I I I I #
coedge $-1 $244 $245 $246 $247 reversed $96 $-1 #
face $-1 $-1 $248 $54 $-1 $249 forward single #
loop $-1 $250 $251 $98 #
cone-surface $-1 -58.847600310213359 21.543928228601281 8.6260858347954272 0.70710678939079041 0 -0.70710677298230451 0.17677669324557613 0 0.1767766973476976 1 I I -0.70710678118654746 0.70710678118654746 0.25 forward I I I I #
loop $-1 $-1 $252 $70 #
coedge $-1 $158 $158 $253 $254 reversed $99 $-1 #
face $-1 $-1 $255 $55 $-1 $256 forward single #
loop $-1 $257 $258 $101 #
cone-surface $-1 -58.847600310213359 26.83978780056237 8.6260858347954272 0.70710678939079041 0 -0.70710677298230451 0.17677669324557613 0 0.1767766973476976 1 I I -0.70710678118654746 0.70710678118654746 0.25 forward I I I I #
loop $-1 $-1 $259 $71 #
coedge $-1 $163 $163 $260 $261 reversed $102 $-1 #
face $-1 $262 $263 $56 $-1 $264 reversed single #
loop $-1 $-1 $265 $104 #
plane-surface $-1 -43.128349498986822 -8.3540324428140451 72.694819601614597 0.52991927123019833 0 0.84804809178421925 0.84804809178421925 0 -0.52991927123019833 forward_v I I I I #
coedge $-1 $266 $267 $268 $269 reversed $105 $-1 #
face $-1 $-1 $270 $57 $-1 $271 forward single #
loop $-1 $272 $273 $107 #
cone-surface $-1 56.01486689562509 -12.153309948599293 5.8990283412387274 -0.52991927123019833 0 -0.84804809178421925 0.42402404589210962 0 -0.26495963561509916 1 I I -0.70710678118654746 0.70710678118654746 0.5 forward I I I I #
loop $-1 $-1 $274 $73 #
coedge $-1 $172 $172 $275 $276 reversed $108 $-1 #
face $-1 $-1 $277 $58 $-1 $278 forward single #
loop $-1 $279 $280 $110 #
cone-surface $-1 56.01486689562509 -8.3540324428140451 5.8990283412387274 -0.52991927123019833 0 -0.84804809178421925 0.42402404589210962 0 -0.26495963561509916 1 I I -0.70710678118654746 0.70710678118654746 0.5 forward I I I I #
loop $-1 $-1 $281 $74 #
coedge $-1 $177 $177 $282 $283 reversed $111 $-1 #
face $-1 $-1 $284 $59 $-1 $285 forward single #
loop $-1 $286 $287 $113 #
cone-surface $-1 56.01486689562509 -4.5547549370287967 5.8990283412387274 -0.52991927123019833 0 -0.84804809178421925 0.42402404589210962 0 -0.26495963561509916 1 I I -0.70710678118654746 0.70710678118654746 0.5 forward I I I I #
loop $-1 $-1 $288 $75 #
coedge $-1 $182 $182 $289 $290 reversed $114 $-1 #
face $-1 $291 $292 $60 $-1 $293 reversed single #
loop $-1 $-1 $294 $116 #
plane-surface $-1 -43.128349498986822 27.347204152348944 72.694819601614597 0.52991927123019833 0 0.84804809178421925 0.84804809178421925 0 -0.52991927123019833 forward_v I I I I #
coedge $-1 $295 $296 $297 $298 reversed $117 $-1 #
face $-1 $-1 $299 $61 $-1 $300 forward single #
loop $-1 $301 $302 $119 #
cone-surface $-1 56.01486689562509 23.547926646563688 5.8990283412387274 -0.52991927123019833 0 -0.84804809178421925 0.42402404589210962 0 -0.26495963561509916 1 I I -0.70710678118654746 0.70710678118654746 0.5 forward I I I I #
loop $-1 $-1 $303 $77 #
coedge $-1 $191 $191 $304 $305 reversed $120 $-1 #
face $-1 $-1 $306 $62 $-1 $307 forward single #
loop $-1 $308 $309 $122 #
cone-surface $-1 56.01486689562509 27.347204152348944 5.8990283412387274 -0.52991927123019833 0 -0.84804809178421925 0.42402404589210962 0 -0.26495963561509916 1 I I -0.70710678118654746 0.70710678118654746 0.5 forward I I I I #
loop $-1 $-1 $310 $78 #
coedge $-1 $196 $196 $311 $312 reversed $123 $-1 #
face $-1 $-1 $313 $63 $-1 $314 forward single #
loop $-1 $315 $316 $125 #
cone-surface $-1 56.01486689562509 31.146481658134185 5.8990283412387274 -0.52991927123019833 0 -0.84804809178421925 0.42402404589210962 0 -0.26495963561509916 1 I I -0.70710678118654746 0.70710678118654746 0.5 forward I I I I #
loop $-1 $-1 $317 $79 #
coedge $-1 $201 $201 $318 $319 reversed $126 $-1 #
face $-1 $320 $321 $48 $-1 $322 reversed single #
loop $-1 $-1 $323 $128 #
plane-surface $-1 0 0 -11.73594275351587 0 0 1 1 0 0 forward_v I I I I #
coedge $-1 $324 $325 $326 $327 forward $129 $-1 #
coedge $-1 $328 $131 $329 $330 reversed $81 $-1 #
coedge $-1 $131 $328 $331 $332 forward $81 $-1 #
coedge $-1 $333 $323 $131 $209 forward $203 $-1 #
edge $-1 $334 -61.957457197790461 $335 61.957457197790461 $131 $336 forward 7 unknown #
face $-1 $337 $338 $49 $-1 $339 reversed single #
loop $-1 $-1 $340 $132 #
plane-surface $-1 -61.957457197790461 0 0 1 0 0 0 0 -1 forward_v I I I I #
coedge $-1 $341 $342 $215 $343 forward $133 $-1 #
coedge $-1 $344 $135 $345 $346 reversed $84 $-1 #
coedge $-1 $135 $344 $213 $343 reversed $84 $-1 #
coedge $-1 $347 $348 $135 $217 reversed $349 $-1 #
edge $-1 $350 -11.73594275351587 $351 11.73594275351587 $216 $352 forward 7 unknown #
face $-1 $353 $354 $50 $-1 $355 reversed single #
loop $-1 $-1 $356 $136 #
plane-surface $-1 -149.57853447368433 -5.3308757466265462 94.905071091168509 0 -1 0 0.70710678939079041 0 -0.70710677298230451 forward_v I I I I #
coedge $-1 $357 $358 $359 $360 reversed $137 $-1 #
coedge $-1 $223 $139 $361 $362 reversed $87 $-1 #
coedge $-1 $139 $222 $357 $363 reversed $87 $-1 #
coedge $-1 $359 $364 $139 $225 forward $365 $-1 #
edge $-1 $366 12.831810039051703 $367 17.28375684072892 $224 $368 forward 7 unknown #
loop $-1 $-1 $231 $140 #
plane-surface $-1 -61.957457197790461 -11.509378580581156 7.2839958485307648 -0.70710678939079041 0 0.70710677298230451 0.70710677298230451 0 0.70710678939079041 forward_v I I I I #
loop $-1 $-1 $369 $89 #
coedge $-1 $229 $229 $230 $370 reversed $141 $-1 #
coedge $-1 $230 $230 $229 $370 forward $143 $-1 #
coedge $-1 $231 $231 $144 $232 forward $226 $-1 #
edge $-1 $371 0 $371 6.2831853071796004 $231 $372 forward 7 unknown #
loop $-1 $-1 $238 $145 #
plane-surface $-1 -61.957457197790461 -11.509378580581156 7.2839958485307648 -0.70710678939079041 0 0.70710677298230451 0.70710677298230451 0 0.70710678939079041 forward_v I I I I #
loop $-1 $-1 $373 $92 #
coedge $-1 $236 $236 $237 $374 reversed $146 $-1 #
coedge $-1 $237 $237 $236 $374 forward $148 $-1 #
coedge $-1 $238 $238 $149 $239 forward $233 $-1 #
edge $-1 $375 0 $375 6.2831853071796004 $238 $376 forward 7 unknown #
face $-1 $377 $378 $53 $-1 $379 forward single #
loop $-1 $-1 $380 $150 #
plane-surface $-1 -149.57853447368433 30.370360848536443 94.905071091168509 0 -1 0 0.70710678939079041 0 -0.70710677298230451 forward_v I I I I #
coedge $-1 $381 $382 $383 $384 reversed $151 $-1 #
coedge $-1 $245 $153 $385 $386 reversed $96 $-1 #
coedge $-1 $153 $244 $381 $387 reversed $96 $-1 #
coedge $-1 $383 $388 $153 $247 forward $378 $-1 #
edge $-1 $389 12.831810039051703 $390 17.28375684072892 $246 $391 forward 7 unknown #
loop $-1 $-1 $253 $154 #
plane-surface $-1 -61.957457197790461 24.191858014581832 7.2839958485307648 -0.70710678939079041 0 0.70710677298230451 0.70710677298230451 0 0.70710678939079041 forward_v I I I I #
loop $-1 $-1 $392 $98 #
coedge $-1 $251 $251 $252 $393 reversed $155 $-1 #
coedge $-1 $252 $252 $251 $393 forward $157 $-1 #
coedge $-1 $253 $253 $158 $254 forward $248 $-1 #
edge $-1 $394 0 $394 6.2831853071796004 $253 $395 forward 7 unknown #
loop $-1 $-1 $260 $159 #
plane-surface $-1 -61.957457197790461 24.191858014581832 7.2839958485307648 -0.70710678939079041 0 0.70710677298230451 0.70710677298230451 0 0.70710678939079041 forward_v I I I I #
loop $-1 $-1 $396 $101 #
coedge $-1 $258 $258 $259 $397 reversed $160 $-1 #
coedge $-1 $259 $259 $258 $397 forward $162 $-1 #
coedge $-1 $260 $260 $163 $261 forward $255 $-1 #
edge $-1 $398 0 $398 6.2831853071796004 $260 $399 forward 7 unknown #
face $-1 $400 $401 $56 $-1 $402 forward single #
loop $-1 $-1 $403 $164 #
plane-surface $-1 22.53655163207182 -14.686161619122792 177.78062629839187 0 1 0 0.52991927123019833 0 0.84804809178421925 forward_v I I I I #
coedge $-1 $404 $405 $406 $407 reversed $165 $-1 #
coedge $-1 $267 $167 $408 $409 reversed $105 $-1 #
coedge $-1 $167 $266 $404 $410 reversed $105 $-1 #
coedge $-1 $406 $411 $167 $269 forward $401 $-1 #
edge $-1 $412 -50.689181381754551 $413 -43.15796836549741 $268 $414 forward 7 unknown #
loop $-1 $-1 $275 $168 #
plane-surface $-1 -43.128349498986822 -8.3540324428140451 72.694819601614597 0.52991927123019833 0 0.84804809178421925 0.84804809178421925 0 -0.52991927123019833 forward_v I I I I #
loop $-1 $-1 $415 $107 #
coedge $-1 $273 $273 $274 $416 reversed $169 $-1 #
coedge $-1 $274 $274 $273 $416 forward $171 $-1 #
coedge $-1 $275 $275 $172 $276 forward $270 $-1 #
edge $-1 $417 0 $417 6.2831853071796004 $275 $418 forward 7 unknown #
loop $-1 $-1 $282 $173 #
plane-surface $-1 -43.128349498986822 -8.3540324428140451 72.694819601614597 0.52991927123019833 0 0.84804809178421925 0.84804809178421925 0 -0.52991927123019833 forward_v I I I I #
loop $-1 $-1 $419 $110 #
coedge $-1 $280 $280 $281 $420 reversed $174 $-1 #
coedge $-1 $281 $281 $280 $420 forward $176 $-1 #
coedge $-1 $282 $282 $177 $283 forward $277 $-1 #
edge $-1 $421 0 $421 6.2831853071796004 $282 $422 forward 7 unknown #
loop $-1 $-1 $289 $178 #
plane-surface $-1 -43.128349498986822 -8.3540324428140451 72.694819601614597 0.52991927123019833 0 0.84804809178421925 0.84804809178421925 0 -0.52991927123019833 forward_v I I I I #
loop $-1 $-1 $423 $113 #
coedge $-1 $287 $287 $288 $424 reversed $179 $-1 #
coedge $-1 $288 $288 $287 $424 forward $181 $-1 #
coedge $-1 $289 $289 $182 $290 forward $284 $-1 #
edge $-1 $425 0 $425 6.2831853071796004 $289 $426 forward 7 unknown #
face $-1 $427 $428 $60 $-1 $429 reversed single #
loop $-1 $-1 $430 $183 #
plane-surface $-1 22.53655163207182 21.015074976040196 177.78062629839187 0 1 0 0.52991927123019833 0 0.84804809178421925 forward_v I I I I #
coedge $-1 $431 $432 $433 $434 reversed $184 $-1 #
coedge $-1 $296 $186 $435 $436 reversed $117 $-1 #
coedge $-1 $186 $295 $431 $437 reversed $117 $-1 #
coedge $-1 $433 $438 $186 $298 forward $439 $-1 #
edge $-1 $440 -50.689181381754551 $441 -43.15796836549741 $297 $442 forward 7 unknown #
loop $-1 $-1 $304 $187 #
plane-surface $-1 -43.128349498986822 27.347204152348944 72.694819601614597 0.52991927123019833 0 0.84804809178421925 0.84804809178421925 0 -0.52991927123019833 forward_v I I I I #
loop $-1 $-1 $443 $119 #
coedge $-1 $302 $302 $303 $444 reversed $188 $-1 #
coedge $-1 $303 $303 $302 $444 forward $190 $-1 #
coedge $-1 $304 $304 $191 $305 forward $299 $-1 #
edge $-1 $445 0 $445 6.2831853071796004 $304 $446 forward 7 unknown #
loop $-1 $-1 $311 $192 #
plane-surface $-1 -43.128349498986822 27.347204152348944 72.694819601614597 0.52991927123019833 0 0.84804809178421925 0.84804809178421925 0 -0.52991927123019833 forward_v I I I I #
loop $-1 $-1 $447 $122 #
coedge $-1 $309 $309 $310 $448 reversed $193 $-1 #
coedge $-1 $310 $310 $309 $448 forward $195 $-1 #
coedge $-1 $311 $311 $196 $312 forward $306 $-1 #
edge $-1 $449 0 $449 6.2831853071796004 $311 $450 forward 7 unknown #
loop $-1 $-1 $318 $197 #
plane-surface $-1 -43.128349498986822 27.347204152348944 72.694819601614597 0.52991927123019833 0 0.84804809178421925 0.84804809178421925 0 -0.52991927123019833 forward_v I I I I #
loop $-1 $-1 $451 $125 #
coedge $-1 $316 $316 $317 $452 reversed $198 $-1 #
coedge $-1 $317 $317 $316 $452 forward $200 $-1 #
coedge $-1 $318 $318 $201 $319 forward $313 $-1 #
edge $-1 $453 0 $453 6.2831853071796004 $318 $454 forward 7 unknown #
face $-1 $455 $456 $48 $-1 $457 reversed single #
loop $-1 $-1 $458 $202 #
plane-surface $-1 -61.957457197790461 0 0 1 0 0 0 0 -1 forward_v I I I I #
coedge $-1 $208 $459 $460 $461 forward $203 $-1 #
coedge $-1 $462 $205 $463 $464 forward $129 $-1 #
coedge $-1 $205 $462 $328 $465 forward $129 $-1 #
coedge $-1 $329 $466 $205 $327 reversed $467 $-1 #
edge $-1 $468 -41.203874058915723 $469 41.203874058915723 $326 $470 forward 7 unknown #
coedge $-1 $207 $206 $325 $465 reversed $81 $-1 #
coedge $-1 $460 $326 $206 $330 forward $467 $-1 #
edge $-1 $468 -11.73594275351587 $334 11.73594275351587 $329 $471 forward 7 unknown #
coedge $-1 $472 $473 $207 $332 reversed $321 $-1 #
edge $-1 $474 -11.73594275351587 $335 11.73594275351587 $331 $475 forward 7 unknown #
coedge $-1 $459 $208 $473 $476 forward $203 $-1 #
vertex $-1 $330 $477 #
vertex $-1 $476 $478 #
straight-curve $-1 0 -41.203874058915723 -11.73594275351587 -1 0 0 I I #
face $-1 $479 $349 $49 $-1 $480 reversed single #
loop $-1 $-1 $481 $210 #
plane-surface $-1 -59.369976768266099 -52.209148986421205 0 0 1 0 0 0 1 forward_v I I I I #
coedge $-1 $482 $483 $344 $484 forward $211 $-1 #
coedge $-1 $485 $213 $483 $486 forward $133 $-1 #
coedge $-1 $213 $485 $347 $487 forward $133 $-1 #
edge $-1 $350 56.782496338741737 $488 61.957457197790461 $213 $489 forward 7 unknown #
coedge $-1 $215 $214 $340 $484 reversed $84 $-1 #
coedge $-1 $490 $491 $214 $346 forward $492 $-1 #
edge $-1 $493 -61.957457197790461 $351 -56.782496338741737 $345 $494 forward 7 unknown #
coedge $-1 $495 $216 $342 $487 reversed $349 $-1 #
coedge $-1 $216 $495 $490 $496 reversed $349 $-1 #
loop $-1 $-1 $495 $337 #
vertex $-1 $343 $497 #
vertex $-1 $496 $498 #
straight-curve $-1 -56.782496338741737 -41.203874058915723 0 0 0 -1 I I #
face $-1 $-1 $365 $50 $-1 $499 forward single #
loop $-1 $-1 $500 $218 #
plane-surface $-1 -61.957457197790461 0 0 1 0 0 0 0 -1 forward_v I I I I #
coedge $-1 $501 $502 $503 $504 reversed $219 $-1 #
coedge $-1 $505 $221 $223 $363 forward $137 $-1 #
coedge $-1 $221 $505 $501 $506 forward $137 $-1 #
coedge $-1 $503 $224 $221 $360 forward $365 $-1 #
edge $-1 $367 -11.933192124245188 $507 0.42381354366403201 $359 $508 forward 7 unknown #
coedge $-1 $509 $510 $222 $362 forward $354 $-1 #
edge $-1 $511 -40.16853969705349 $366 -35.716592792068383 $361 $512 forward 7 unknown #
edge $-1 $367 -6.2960036189451545 $511 0 $223 $513 forward 7 unknown #
coedge $-1 $224 $503 $509 $514 forward $365 $-1 #
loop $-1 $-1 $503 $353 #
vertex $-1 $362 $515 #
vertex $-1 $225 $516 #
straight-curve $-1 -74.789267236842164 -17.687881414535767 11.735942753515872 1 0 0 I I #
coedge $-1 $369 $369 $-1 $517 reversed $228 $-1 #
edge $-1 $518 0 $518 6.2831853071796004 $229 $519 forward 7 unknown #
vertex $-1 $232 $520 #
ellipse-curve $-1 -59.731483796951856 -14.157308366561704 9.5099693010233146 -0.70710678939079041 0 0.70710677298230451 0.35355338649115226 0 0.35355339469539521 1 I I #
coedge $-1 $373 $373 $-1 $521 reversed $235 $-1 #
edge $-1 $522 0 $522 6.2831853071796004 $236 $523 forward 7 unknown #
vertex $-1 $239 $524 #
ellipse-curve $-1 -59.731483796951856 -8.8614487946006122 9.5099693010233146 -0.70710678939079041 0 0.70710677298230451 0.35355338649115226 0 0.35355339469539521 1 I I #
face $-1 $-1 $525 $53 $-1 $526 reversed single #
loop $-1 $-1 $246 $240 #
plane-surface $-1 0 0 11.73594275351587 0 0 1 1 0 0 forward_v I I I I #
coedge $-1 $527 $528 $529 $530 reversed $241 $-1 #
coedge $-1 $531 $243 $245 $387 forward $151 $-1 #
coedge $-1 $243 $531 $527 $532 forward $151 $-1 #
coedge $-1 $529 $246 $243 $384 forward $378 $-1 #
edge $-1 $390 5.9174261733363061 $533 18.274431841245526 $383 $534 forward 7 unknown #
coedge $-1 $535 $536 $244 $386 forward $525 $-1 #
edge $-1 $537 -40.16853969705349 $389 -35.716592792068383 $385 $538 forward 7 unknown #
edge $-1 $390 -6.2960036189451545 $537 0 $245 $539 forward 7 unknown #
coedge $-1 $246 $529 $535 $540 forward $378 $-1 #
vertex $-1 $386 $541 #
vertex $-1 $247 $542 #
straight-curve $-1 -74.789267236842164 18.013355180627222 11.735942753515872 1 0 0 I I #
coedge $-1 $392 $392 $-1 $543 reversed $250 $-1 #
edge $-1 $544 0 $544 6.2831853071796004 $251 $545 forward 7 unknown #
vertex $-1 $254 $546 #
ellipse-curve $-1 -59.731483796951856 21.543928228601281 9.5099693010233146 -0.70710678939079041 0 0.70710677298230451 0.35355338649115226 0 0.35355339469539521 1 I I #
coedge $-1 $396 $396 $-1 $547 reversed $257 $-1 #
edge $-1 $548 0 $548 6.2831853071796004 $258 $549 forward 7 unknown #
vertex $-1 $261 $550 #
ellipse-curve $-1 -59.731483796951856 26.83978780056237 9.5099693010233146 -0.70710678939079041 0 0.70710677298230451 0.35355338649115226 0 0.35355339469539521 1 I I #
face $-1 $-1 $551 $56 $-1 $552 reversed single #
loop $-1 $-1 $268 $262 #
plane-surface $-1 0 0 11.73594275351587 0 0 1 1 0 0 forward_v I I I I #
coedge $-1 $553 $554 $555 $556 reversed $263 $-1 #
coedge $-1 $557 $265 $267 $410 forward $165 $-1 #
coedge $-1 $265 $557 $553 $558 forward $165 $-1 #
coedge $-1 $555 $268 $265 $407 forward $401 $-1 #
edge $-1 $413 -2.1551129549017247 $559 10.50914539771577 $406 $560 forward 7 unknown #
coedge $-1 $561 $562 $266 $409 forward $551 $-1 #
edge $-1 $563 -81.860394678639992 $412 -77.154370395680061 $408 $564 forward 7 unknown #
edge $-1 $413 115.03427060990585 $563 123.91491439558092 $267 $565 forward 7 unknown #
coedge $-1 $268 $555 $561 $566 forward $401 $-1 #
vertex $-1 $269 $567 #
vertex $-1 $269 $568 #
straight-curve $-1 11.26827581603591 -2.0219032665052978 11.735942753515872 -1 0 0 I I #
coedge $-1 $415 $415 $-1 $569 reversed $272 $-1 #
edge $-1 $570 0 $570 6.2831853071796004 $273 $571 forward 7 unknown #
vertex $-1 $276 $572 #
ellipse-curve $-1 58.191850689661891 -12.153309948599293 9.3829306120359117 0.52991927123019833 0 0.84804809178421925 0.84804809178421925 0 -0.52991927123019833 1 I I #
coedge $-1 $419 $419 $-1 $573 reversed $279 $-1 #
edge $-1 $574 0 $574 6.2831853071796004 $280 $575 forward 7 unknown #
vertex $-1 $283 $576 #
ellipse-curve $-1 58.191850689661891 -8.3540324428140451 9.3829306120359117 0.52991927123019833 0 0.84804809178421925 0.84804809178421925 0 -0.52991927123019833 1 I I #
coedge $-1 $423 $423 $-1 $577 reversed $286 $-1 #
edge $-1 $578 0 $578 6.2831853071796004 $287 $579 forward 7 unknown #
vertex $-1 $290 $580 #
ellipse-curve $-1 58.191850689661891 -4.5547549370287967 9.3829306120359117 0.52991927123019833 0 0.84804809178421925 0.84804809178421925 0 -0.52991927123019833 1 I I #
face $-1 $-1 $439 $60 $-1 $581 forward single #
loop $-1 $-1 $582 $291 #
plane-surface $-1 61.957457197790461 0 0 -1 0 0 0 0 1 forward_v I I I I #
coedge $-1 $583 $584 $585 $586 reversed $292 $-1 #
coedge $-1 $587 $294 $296 $437 forward $184 $-1 #
coedge $-1 $294 $587 $583 $588 forward $184 $-1 #
coedge $-1 $585 $297 $294 $434 forward $439 $-1 #
edge $-1 $441 -20.005731252483219 $589 -7.3414728998657246 $433 $590 forward 7 unknown #
coedge $-1 $591 $592 $295 $436 forward $428 $-1 #
edge $-1 $593 -81.860394678639992 $440 -77.154370395680061 $435 $594 forward 7 unknown #
edge $-1 $441 115.03427060990585 $593 123.91491439558092 $296 $595 forward 7 unknown #
coedge $-1 $297 $585 $591 $596 forward $439 $-1 #
loop $-1 $-1 $585 $427 #
vertex $-1 $436 $597 #
vertex $-1 $298 $598 #
straight-curve $-1 11.26827581603591 33.679333328657691 11.735942753515872 -1 0 0 I I #
coedge $-1 $443 $443 $-1 $599 reversed $301 $-1 #
edge $-1 $600 0 $600 6.2831853071796004 $302 $601 forward 7 unknown #
vertex $-1 $305 $602 #
ellipse-curve $-1 58.191850689661891 23.547926646563688 9.3829306120359117 0.52991927123019833 0 0.84804809178421925 0.84804809178421925 0 -0.52991927123019833 1 I I #
coedge $-1 $447 $447 $-1 $603 reversed $308 $-1 #
edge $-1 $604 0 $604 6.2831853071796004 $309 $605 forward 7 unknown #
vertex $-1 $312 $606 #
ellipse-curve $-1 58.191850689661891 27.347204152348944 9.3829306120359117 0.52991927123019833 0 0.84804809178421925 0.84804809178421925 0 -0.52991927123019833 1 I I #
coedge $-1 $451 $451 $-1 $607 reversed $315 $-1 #
edge $-1 $608 0 $608 6.2831853071796004 $316 $609 forward 7 unknown #
vertex $-1 $319 $610 #
ellipse-curve $-1 58.191850689661891 31.146481658134185 9.3829306120359117 0.52991927123019833 0 0.84804809178421925 0.84804809178421925 0 -0.52991927123019833 1 I I #
face $-1 $-1 $467 $48 $-1 $611 reversed single #
loop $-1 $-1 $612 $320 #
plane-surface $-1 0 41.203874058915723 0 0 -1 0 0 0 -1 forward_v I I I I #
coedge $-1 $473 $472 $613 $614 forward $321 $-1 #
coedge $-1 $323 $333 $615 $616 forward $203 $-1 #
coedge $-1 $466 $329 $323 $461 reversed $467 $-1 #
edge $-1 $617 -41.203874058915723 $334 41.203874058915723 $460 $618 forward 7 unknown #
coedge $-1 $325 $324 $472 $619 forward $129 $-1 #
coedge $-1 $612 $613 $324 $464 reversed $456 $-1 #
edge $-1 $469 -61.957457197790461 $620 61.957457197790461 $463 $621 forward 7 unknown #
edge $-1 $474 -61.957457197790461 $468 61.957457197790461 $328 $622 forward 7 unknown #
coedge $-1 $326 $460 $612 $623 reversed $467 $-1 #
loop $-1 $-1 $329 $455 #
vertex $-1 $327 $624 #
vertex $-1 $327 $625 #
straight-curve $-1 61.957457197790461 0 11.73594275351587 0 1 0 I I #
straight-curve $-1 61.957457197790461 -41.203874058915723 0 0 0 -1 I I #
coedge $-1 $458 $331 $462 $619 reversed $321 $-1 #
coedge $-1 $331 $458 $333 $476 reversed $321 $-1 #
vertex $-1 $619 $626 #
straight-curve $-1 -61.957457197790461 -41.203874058915723 0 0 0 -1 I I #
edge $-1 $335 -41.203874058915723 $627 41.203874058915723 $473 $628 forward 7 unknown #
point $-1 61.957457197790461 -41.203874058915723 -11.73594275351587 #
point $-1 -61.957457197790461 -41.203874058915723 -11.73594275351587 #
face $-1 $-1 $492 $49 $-1 $629 reversed single #
plane-surface $-1 -56.782496338741737 -46.706511522668464 0 -1 0 0 0 0 1 forward_v I I I I #
coedge $-1 $630 $631 $632 $633 forward $338 $-1 #
coedge $-1 $632 $340 $491 $634 reversed $211 $-1 #
coedge $-1 $340 $632 $341 $486 reversed $211 $-1 #
edge $-1 $488 -11.73594275351587 $493 11.73594275351587 $340 $635 forward 7 unknown #
coedge $-1 $342 $341 $631 $636 forward $133 $-1 #
edge $-1 $488 41.203874058915723 $637 52.209148986421205 $483 $638 forward 7 unknown #
edge $-1 $639 -5.5026374637527411 $350 5.5026374637527411 $347 $640 forward 7 unknown #
vertex $-1 $486 $641 #
straight-curve $-1 0 -41.203874058915723 11.73594275351587 -1 0 0 I I #
coedge $-1 $642 $345 $348 $496 forward $492 $-1 #
coedge $-1 $345 $642 $482 $634 forward $492 $-1 #
loop $-1 $-1 $345 $479 #
vertex $-1 $484 $643 #
straight-curve $-1 0 -41.203874058915723 -11.73594275351587 1 0 0 I I #
coedge $-1 $348 $347 $644 $645 forward $349 $-1 #
edge $-1 $351 -5.5026374637527411 $646 5.5026374637527411 $348 $647 forward 7 unknown #
point $-1 -56.782496338741737 -41.203874058915723 11.73594275351587 #
point $-1 -56.782496338741737 -41.203874058915723 -11.73594275351587 #
plane-surface $-1 0 0 11.73594275351587 0 0 1 1 0 0 forward_v I I I I #
coedge $-1 $510 $509 $502 $648 forward $354 $-1 #
coedge $-1 $502 $356 $358 $506 reversed $219 $-1 #
coedge $-1 $356 $501 $500 $648 reversed $219 $-1 #
coedge $-1 $364 $359 $356 $504 forward $365 $-1 #
edge $-1 $507 -17.28375684072892 $649 -12.831810039051703 $503 $650 forward 7 unknown #
coedge $-1 $358 $357 $510 $651 reversed $137 $-1 #
edge $-1 $652 0 $507 6.2960036189451545 $501 $653 forward 7 unknown #
vertex $-1 $360 $654 #
straight-curve $-1 -57.505510396113252 -5.7546892902905782 11.73594275351587 0 1 0 I I #
coedge $-1 $500 $361 $364 $514 reversed $354 $-1 #
coedge $-1 $361 $500 $505 $651 forward $354 $-1 #
vertex $-1 $362 $655 #
straight-curve $-1 -61.957457197790461 -17.687881414535767 47.452535545584254 0 0 1 I I #
straight-curve $-1 -61.957457197790461 -17.687881414535767 7.2839958485307648 -0.70710677298230451 0 -0.70710678939079041 I I #
edge $-1 $649 5.3308757466265462 $366 17.687881414535767 $509 $656 forward 7 unknown #
point $-1 -61.957457197790461 -17.687881414535767 11.73594275351587 #
point $-1 -57.505510396113245 -17.687881414535767 11.73594275351587 #
edge $-1 $657 1 $657 0 $369 $-1 forward 7 unknown #
vertex $-1 $370 $658 #
ellipse-curve $-1 -59.024377007561057 -14.157308366561704 8.802862528041004 -0.70710678939079041 0 0.70710677298230451 0.35355338649115226 0 0.35355339469539521 1 I I #
point $-1 -59.377930410460692 -14.157308366561704 9.8635226957187037 #
edge $-1 $659 1 $659 0 $373 $-1 forward 7 unknown #
vertex $-1 $374 $660 #
ellipse-curve $-1 -59.024377007561057 -8.8614487946006122 8.802862528041004 -0.70710678939079041 0 0.70710677298230451 0.35355338649115226 0 0.35355339469539521 1 I I #
point $-1 -59.377930410460692 -8.8614487946006122 9.8635226957187037 #
loop $-1 $-1 $385 $377 #
plane-surface $-1 -61.957457197790461 0 0 1 0 0 0 0 -1 forward_v I I I I #
coedge $-1 $528 $380 $382 $532 reversed $241 $-1 #
coedge $-1 $380 $527 $661 $662 reversed $241 $-1 #
coedge $-1 $388 $383 $380 $530 forward $378 $-1 #
edge $-1 $533 -17.28375684072892 $663 -12.831810039051703 $529 $664 forward 7 unknown #
coedge $-1 $382 $381 $536 $665 reversed $151 $-1 #
edge $-1 $666 0 $533 6.2960036189451545 $527 $667 forward 7 unknown #
vertex $-1 $384 $668 #
straight-curve $-1 -57.505510396113252 12.095929007290916 11.73594275351587 0 1 0 I I #
coedge $-1 $661 $385 $388 $540 reversed $525 $-1 #
coedge $-1 $385 $661 $531 $665 forward $525 $-1 #
vertex $-1 $386 $669 #
straight-curve $-1 -61.957457197790461 18.013355180627222 47.452535545584254 0 0 1 I I #
straight-curve $-1 -61.957457197790461 18.013355180627222 7.2839958485307648 -0.70710677298230451 0 -0.70710678939079041 I I #
edge $-1 $663 -30.370360848536443 $389 -18.013355180627222 $535 $670 forward 7 unknown #
point $-1 -61.957457197790461 18.013355180627222 11.73594275351587 #
point $-1 -57.505510396113245 18.013355180627222 11.73594275351587 #
edge $-1 $671 1 $671 0 $392 $-1 forward 7 unknown #
vertex $-1 $393 $672 #
ellipse-curve $-1 -59.024377007561057 21.543928228601281 8.802862528041004 -0.70710678939079041 0 0.70710677298230451 0.35355338649115226 0 0.35355339469539521 1 I I #
point $-1 -59.377930410460692 21.543928228601281 9.8635226957187037 #
edge $-1 $673 1 $673 0 $396 $-1 forward 7 unknown #
vertex $-1 $397 $674 #
ellipse-curve $-1 -59.024377007561057 26.83978780056237 8.802862528041004 -0.70710678939079041 0 0.70710677298230451 0.35355338649115226 0 0.35355339469539521 1 I I #
point $-1 -59.377930410460692 26.83978780056237 9.8635226957187037 #
loop $-1 $-1 $408 $400 #
plane-surface $-1 61.957457197790461 0 0 -1 0 0 0 0 1 forward_v I I I I #
coedge $-1 $554 $403 $405 $558 reversed $263 $-1 #
coedge $-1 $403 $553 $675 $676 reversed $263 $-1 #
coedge $-1 $411 $406 $403 $556 forward $401 $-1 #
edge $-1 $559 43.15796836549741 $677 50.689181381754551 $555 $678 forward 7 unknown #
coedge $-1 $405 $404 $562 $679 reversed $165 $-1 #
edge $-1 $680 -123.91491439558092 $559 -115.03427060990585 $553 $681 forward 7 unknown #
vertex $-1 $407 $682 #
straight-curve $-1 54.426244181533328 -4.1770162214070226 11.735942753515864 0 -1 0 I I #
coedge $-1 $675 $408 $411 $566 reversed $551 $-1 #
coedge $-1 $408 $675 $557 $679 forward $551 $-1 #
vertex $-1 $409 $683 #
straight-curve $-1 61.957457197790461 -2.0219032665052978 88.890313149195933 0 0 1 I I #
straight-curve $-1 -43.128349498986822 -2.0219032665052978 72.694819601614597 0.84804809178421925 0 -0.52991927123019833 I I #
edge $-1 $677 -14.686161619122792 $412 -2.0219032665052978 $561 $684 forward 7 unknown #
point $-1 61.957457197790461 -2.0219032665052978 11.73594275351587 #
point $-1 54.42624418153332 -2.0219032665052978 11.735942753515872 #
edge $-1 $685 1 $685 0 $415 $-1 forward 7 unknown #
vertex $-1 $416 $686 #
ellipse-curve $-1 56.27982653124019 -12.153309948599293 6.3230523871308373 0.52991927123019833 0 0.84804809178421925 0.84804809178421925 0 -0.52991927123019833 1 I I #
point $-1 59.039898781446112 -12.153309948599293 8.8530113408057147 #
edge $-1 $687 1 $687 0 $419 $-1 forward 7 unknown #
vertex $-1 $420 $688 #
ellipse-curve $-1 56.27982653124019 -8.3540324428140451 6.3230523871308373 0.52991927123019833 0 0.84804809178421925 0.84804809178421925 0 -0.52991927123019833 1 I I #
point $-1 59.039898781446112 -8.3540324428140451 8.8530113408057147 #
edge $-1 $689 1 $689 0 $423 $-1 forward 7 unknown #
vertex $-1 $424 $690 #
ellipse-curve $-1 56.27982653124019 -4.5547549370287967 6.3230523871308373 0.52991927123019833 0 0.84804809178421925 0.84804809178421925 0 -0.52991927123019833 1 I I #
point $-1 59.039898781446112 -4.5547549370287967 8.8530113408057147 #
plane-surface $-1 0 0 11.73594275351587 0 0 1 1 0 0 forward_v I I I I #
coedge $-1 $592 $591 $584 $691 forward $428 $-1 #
coedge $-1 $584 $430 $432 $588 reversed $292 $-1 #
coedge $-1 $430 $583 $582 $691 reversed $292 $-1 #
coedge $-1 $438 $433 $430 $586 forward $439 $-1 #
edge $-1 $589 43.15796836549741 $692 50.689181381754551 $585 $693 forward 7 unknown #
coedge $-1 $432 $431 $592 $694 reversed $184 $-1 #
edge $-1 $695 -123.91491439558092 $589 -115.03427060990585 $583 $696 forward 7 unknown #
vertex $-1 $434 $697 #
straight-curve $-1 54.426244181533328 13.673602076174472 11.735942753515864 0 -1 0 I I #
coedge $-1 $582 $435 $438 $596 reversed $428 $-1 #
coedge $-1 $435 $582 $587 $694 forward $428 $-1 #
vertex $-1 $436 $698 #
straight-curve $-1 61.957457197790461 33.679333328657691 88.890313149195933 0 0 1 I I #
straight-curve $-1 -43.128349498986822 33.679333328657691 72.694819601614597 0.84804809178421925 0 -0.52991927123019833 I I #
edge $-1 $692 21.015074976040196 $440 33.679333328657691 $591 $699 forward 7 unknown #
point $-1 61.957457197790461 33.679333328657691 11.73594275351587 #
point $-1 54.42624418153332 33.679333328657691 11.735942753515872 #
edge $-1 $700 1 $700 0 $443 $-1 forward 7 unknown #
vertex $-1 $444 $701 #
ellipse-curve $-1 56.27982653124019 23.547926646563688 6.3230523871308373 0.52991927123019833 0 0.84804809178421925 0.84804809178421925 0 -0.52991927123019833 1 I I #
point $-1 59.039898781446112 23.547926646563688 8.8530113408057147 #
edge $-1 $702 1 $702 0 $447 $-1 forward 7 unknown #
vertex $-1 $448 $703 #
ellipse-curve $-1 56.27982653124019 27.347204152348944 6.3230523871308373 0.52991927123019833 0 0.84804809178421925 0.84804809178421925 0 -0.52991927123019833 1 I I #
point $-1 59.039898781446112 27.347204152348944 8.8530113408057147 #
edge $-1 $704 1 $704 0 $451 $-1 forward 7 unknown #
vertex $-1 $452 $705 #
ellipse-curve $-1 56.27982653124019 31.146481658134185 6.3230523871308373 0.52991927123019833 0 0.84804809178421925 0.84804809178421925 0 -0.52991927123019833 1 I I #
point $-1 59.039898781446112 31.146481658134185 8.8530113408057147 #
plane-surface $-1 61.957457197790461 0 0 -1 0 0 0 0 1 forward_v I I I I #
coedge $-1 $615 $463 $466 $623 forward $456 $-1 #
coedge $-1 $463 $615 $458 $614 reversed $456 $-1 #
edge $-1 $620 -11.73594275351587 $627 11.73594275351587 $613 $706 forward 7 unknown #
coedge $-1 $613 $612 $459 $616 reversed $456 $-1 #
edge $-1 $627 -61.957457197790461 $617 61.957457197790461 $615 $707 forward 7 unknown #
vertex $-1 $461 $708 #
straight-curve $-1 61.957457197790461 0 -11.73594275351587 0 -1 0 I I #
edge $-1 $620 -41.203874058915723 $474 41.203874058915723 $472 $709 forward 7 unknown #
vertex $-1 $464 $710 #
straight-curve $-1 0 41.203874058915723 11.73594275351587 -1 0 0 I I #
straight-curve $-1 0 -41.203874058915723 11.73594275351587 1 0 0 I I #
edge $-1 $469 -11.73594275351587 $617 11.73594275351587 $466 $711 forward 7 unknown #
point $-1 61.957457197790461 -41.203874058915723 11.73594275351587 #
point $-1 61.957457197790461 41.203874058915723 11.73594275351587 #
point $-1 -61.957457197790461 -41.203874058915723 11.73594275351587 #
vertex $-1 $616 $712 #
straight-curve $-1 -61.957457197790461 0 -11.73594275351587 0 1 0 I I #
plane-surface $-1 0 0 -11.73594275351587 0 0 1 1 0 0 forward_v I I I I #
coedge $-1 $644 $481 $642 $713 reversed $338 $-1 #
coedge $-1 $481 $644 $485 $636 reversed $338 $-1 #
coedge $-1 $483 $482 $481 $633 reversed $211 $-1 #
edge $-1 $637 -11.73594275351587 $714 11.73594275351587 $632 $715 forward 7 unknown #
edge $-1 $714 -52.209148986421205 $493 -41.203874058915723 $482 $716 forward 7 unknown #
straight-curve $-1 -61.957457197790461 -41.203874058915723 0 0 0 -1 I I #
edge $-1 $637 -2.5874804295243621 $639 2.5874804295243621 $631 $717 forward 7 unknown #
vertex $-1 $486 $718 #
straight-curve $-1 -61.957457197790461 0 11.73594275351587 0 -1 0 I I #
vertex $-1 $487 $719 #
straight-curve $-1 -56.782496338741737 -46.706511522668464 11.73594275351587 0 1 0 I I #
point $-1 -61.957457197790461 -41.203874058915723 11.73594275351587 #
coedge $-1 $491 $490 $630 $713 forward $492 $-1 #
point $-1 -61.957457197790461 -41.203874058915723 -11.73594275351587 #
coedge $-1 $631 $630 $495 $645 reversed $338 $-1 #
edge $-1 $639 -11.73594275351587 $646 11.73594275351587 $495 $720 forward 7 unknown #
vertex $-1 $645 $721 #
straight-curve $-1 -56.782496338741737 -46.706511522668464 -11.73594275351587 0 -1 0 I I #
edge $-1 $649 35.716592792068383 $652 40.16853969705349 $500 $722 forward 7 unknown #
vertex $-1 $514 $723 #
straight-curve $-1 -74.789267236842164 -5.3308757466265462 11.735942753515872 -1 0 0 I I #
edge $-1 $652 -0.42381354366403201 $511 11.933192124245188 $510 $724 forward 7 unknown #
vertex $-1 $651 $725 #
straight-curve $-1 -61.957457197790461 -5.3308757466265462 7.2839958485307648 0.70710677298230451 0 0.70710678939079041 I I #
point $-1 -57.505510396113245 -5.3308757466265462 11.73594275351587 #
point $-1 -61.957457197790461 -17.687881414535767 7.2839958485307648 #
straight-curve $-1 -61.957457197790461 0 11.73594275351587 0 -1 0 I I #
vertex $-1 $517 $726 #
point $-1 -58.670823621069907 -14.157308366561704 9.1564159227363984 #
vertex $-1 $521 $727 #
point $-1 -58.670823621069907 -8.8614487946006122 9.1564159227363984 #
coedge $-1 $536 $535 $528 $662 forward $525 $-1 #
edge $-1 $663 35.716592792068383 $666 40.16853969705349 $661 $728 forward 7 unknown #
vertex $-1 $540 $729 #
straight-curve $-1 -74.789267236842164 30.370360848536443 11.735942753515872 -1 0 0 I I #
edge $-1 $666 -18.274431841245526 $537 -5.9174261733363061 $536 $730 forward 7 unknown #
vertex $-1 $665 $731 #
straight-curve $-1 -61.957457197790461 30.370360848536443 7.2839958485307648 0.70710677298230451 0 0.70710678939079041 I I #
point $-1 -57.505510396113245 30.370360848536443 11.73594275351587 #
point $-1 -61.957457197790461 18.013355180627222 7.2839958485307648 #
straight-curve $-1 -61.957457197790461 0 11.73594275351587 0 -1 0 I I #
vertex $-1 $543 $732 #
point $-1 -58.670823621069907 21.543928228601281 9.1564159227363984 #
vertex $-1 $547 $733 #
point $-1 -58.670823621069907 26.83978780056237 9.1564159227363984 #
coedge $-1 $562 $561 $554 $676 forward $551 $-1 #
edge $-1 $677 77.154370395680061 $680 81.860394678639992 $675 $734 forward 7 unknown #
vertex $-1 $566 $735 #
straight-curve $-1 11.26827581603591 -14.686161619122792 11.735942753515872 1 0 0 I I #
edge $-1 $680 -10.50914539771577 $563 2.1551129549017247 $562 $736 forward 7 unknown #
vertex $-1 $679 $737 #
straight-curve $-1 -43.128349498986822 -14.686161619122792 72.694819601614597 -0.84804809178421925 0 0.52991927123019833 I I #
point $-1 54.42624418153332 -14.686161619122792 11.735942753515872 #
point $-1 61.957457197790461 -2.0219032665052978 7.0299184705559412 #
straight-curve $-1 61.957457197790461 0 11.73594275351587 0 1 0 I I #
vertex $-1 $569 $738 #
point $-1 57.127874623024411 -12.153309948599293 5.7931331159006385 #
vertex $-1 $573 $739 #
point $-1 57.127874623024411 -8.3540324428140451 5.7931331159006385 #
vertex $-1 $577 $740 #
point $-1 57.127874623024411 -4.5547549370287967 5.7931331159006385 #
edge $-1 $692 77.154370395680061 $695 81.860394678639992 $582 $741 forward 7 unknown #
vertex $-1 $596 $742 #
straight-curve $-1 11.26827581603591 21.015074976040196 11.735942753515872 1 0 0 I I #
edge $-1 $695 7.3414728998657246 $593 20.005731252483219 $592 $743 forward 7 unknown #
vertex $-1 $694 $744 #
straight-curve $-1 -43.128349498986822 21.015074976040196 72.694819601614597 -0.84804809178421925 0 0.52991927123019833 I I #
point $-1 54.42624418153332 21.015074976040196 11.735942753515872 #
point $-1 61.957457197790461 33.679333328657691 7.0299184705559412 #
straight-curve $-1 61.957457197790461 0 11.73594275351587 0 1 0 I I #
vertex $-1 $599 $745 #
point $-1 57.127874623024411 23.547926646563688 5.7931331159006385 #
vertex $-1 $603 $746 #
point $-1 57.127874623024411 27.347204152348944 5.7931331159006385 #
vertex $-1 $607 $747 #
point $-1 57.127874623024411 31.146481658134185 5.7931331159006385 #
straight-curve $-1 -61.957457197790461 41.203874058915723 0 0 0 -1 I I #
straight-curve $-1 0 41.203874058915723 -11.73594275351587 1 0 0 I I #
point $-1 61.957457197790461 41.203874058915723 -11.73594275351587 #
straight-curve $-1 -61.957457197790461 0 11.73594275351587 0 -1 0 I I #
point $-1 -61.957457197790461 41.203874058915723 11.73594275351587 #
straight-curve $-1 61.957457197790461 41.203874058915723 0 0 0 -1 I I #
point $-1 -61.957457197790461 41.203874058915723 -11.73594275351587 #
edge $-1 $646 -2.5874804295243621 $714 2.5874804295243621 $630 $748 forward 7 unknown #
vertex $-1 $634 $749 #
straight-curve $-1 -61.957457197790461 -52.209148986421205 0 0 0 -1 I I #
straight-curve $-1 -61.957457197790461 0 -11.73594275351587 0 1 0 I I #
straight-curve $-1 -59.369976768266099 -52.209148986421205 11.73594275351587 1 0 0 I I #
point $-1 -61.957457197790461 -52.209148986421205 11.73594275351587 #
point $-1 -56.782496338741737 -52.209148986421205 11.73594275351587 #
straight-curve $-1 -56.782496338741737 -52.209148986421205 0 0 0 -1 I I #
point $-1 -56.782496338741737 -52.209148986421205 -11.73594275351587 #
straight-curve $-1 -61.957457197790461 -5.3308757466265462 47.452535545584254 0 0 -1 I I #
point $-1 -61.957457197790461 -5.3308757466265462 11.73594275351587 #
straight-curve $-1 -61.957457197790461 -5.7546892902905782 7.2839958485307648 0 -1 0 I I #
point $-1 -61.957457197790461 -5.3308757466265462 7.2839958485307648 #
point $-1 -58.670823612865661 -14.157308366561704 8.4493091415498505 #
point $-1 -58.670823612865661 -8.8614487946006122 8.4493091415498505 #
straight-curve $-1 -61.957457197790461 30.370360848536443 47.452535545584254 0 0 -1 I I #
point $-1 -61.957457197790461 30.370360848536443 11.73594275351587 #
straight-curve $-1 -61.957457197790461 12.095929007290916 7.2839958485307648 0 -1 0 I I #
point $-1 -61.957457197790461 30.370360848536443 7.2839958485307648 #
point $-1 -58.670823612865661 21.543928228601281 8.4493091415498505 #
point $-1 -58.670823612865661 26.83978780056237 8.4493091415498505 #
straight-curve $-1 61.957457197790461 -14.686161619122792 88.890313149195933 0 0 -1 I I #
point $-1 61.957457197790461 -14.686161619122792 11.73594275351587 #
straight-curve $-1 61.957457197790461 -4.1770162214070226 7.0299184705559377 0 1 0 I I #
point $-1 61.957457197790461 -14.686161619122792 7.0299184705559412 #
point $-1 55.749907260009991 -12.153309948599293 5.4750042953466176 #
point $-1 55.749907260009991 -8.3540324428140451 5.4750042953466176 #
point $-1 55.749907260009991 -4.5547549370287967 5.4750042953466176 #
straight-curve $-1 61.957457197790461 21.015074976040196 88.890313149195933 0 0 -1 I I #
point $-1 61.957457197790461 21.015074976040196 11.73594275351587 #
straight-curve $-1 61.957457197790461 13.673602076174472 7.0299184705559377 0 1 0 I I #
point $-1 61.957457197790461 21.015074976040196 7.0299184705559412 #
point $-1 55.749907260009991 23.547926646563688 5.4750042953466176 #
point $-1 55.749907260009991 27.347204152348944 5.4750042953466176 #
point $-1 55.749907260009991 31.146481658134185 5.4750042953466176 #
straight-curve $-1 -59.369976768266099 -52.209148986421205 -11.73594275351587 -1 0 0 I I #
point $-1 -61.957457197790461 -52.209148986421205 -11.73594275351587 #
End-of-ACIS-data 