500 0 8 0           
7 Unknown 11 ACIS 5.0 NT 24 Fri Mar 26 16:00:43 1999 
-1 9.9999999999999995e-007 1e-010 
body $-1 $8 $-1 $9 #
body $-1 $10 $-1 $11 #
body $-1 $12 $-1 $13 #
body $-1 $14 $-1 $15 #
body $-1 $16 $-1 $17 #
body $-1 $18 $-1 $19 #
body $-1 $20 $-1 $21 #
body $-1 $22 $-1 $23 #
lump $-1 $-1 $24 $0 #
transform $-1 1 0 0 0 1 0 0 0 1 71.506088442640461 31.315420061399902 9.3873626988464167 1 rotate no_reflect no_shear #
lump $-1 $-1 $25 $1 #
transform $-1 1 0 0 0 1 0 0 0 1 71.506088442640461 31.315420061399902 9.3873626988464167 1 rotate no_reflect no_shear #
lump $-1 $-1 $26 $2 #
transform $-1 1 0 0 0 1 0 0 0 1 71.506088442640461 31.315420061399902 9.3873626988464167 1 rotate no_reflect no_shear #
lump $-1 $-1 $27 $3 #
transform $-1 1 0 0 0 1 0 0 0 1 71.506088442640461 31.315420061399902 9.3873626988464167 1 rotate no_reflect no_shear #
lump $-1 $-1 $28 $4 #
transform $-1 1 0 0 0 1 0 0 0 1 71.506088442640461 31.315420061399902 9.3873626988464167 1 rotate no_reflect no_shear #
lump $-1 $-1 $29 $5 #
transform $-1 1 0 0 0 1 0 0 0 1 71.506088442640461 31.315420061399902 9.3873626988464167 1 rotate no_reflect no_shear #
lump $-1 $-1 $30 $6 #
transform $-1 1 0 0 0 1 0 0 0 1 71.506088442640461 31.315420061399902 9.3873626988464167 1 rotate no_reflect no_shear #
lump $-1 $-1 $31 $7 #
transform $-1 1 0 0 0 1 0 0 0 1 71.506088442640461 31.315420061399902 9.3873626988464167 1 rotate no_reflect no_shear #
shell $-1 $-1 $-1 $32 $-1 $8 #
shell $-1 $-1 $-1 $33 $-1 $10 #
shell $-1 $-1 $-1 $34 $-1 $12 #
shell $-1 $-1 $-1 $35 $-1 $14 #
shell $-1 $-1 $-1 $36 $-1 $16 #
shell $-1 $-1 $-1 $37 $-1 $18 #
shell $-1 $-1 $-1 $38 $-1 $20 #
shell $-1 $-1 $-1 $39 $-1 $22 #
face $-1 $40 $41 $24 $-1 $42 forward single #
face $-1 $43 $44 $25 $-1 $45 reversed single #
face $-1 $46 $47 $26 $-1 $48 reversed single #
face $-1 $49 $50 $27 $-1 $51 forward single #
face $-1 $52 $53 $28 $-1 $54 reversed single #
face $-1 $55 $56 $29 $-1 $57 forward single #
face $-1 $58 $59 $30 $-1 $60 reversed single #
face $-1 $61 $62 $31 $-1 $63 forward single #
face $-1 $64 $65 $24 $-1 $66 reversed single #
loop $-1 $-1 $67 $32 #
plane-surface $-1 0 0 9.3873626988464167 0 0 1 1 0 0 forward_v I I I I #
face $-1 $68 $69 $25 $-1 $70 reversed single #
loop $-1 $-1 $71 $33 #
plane-surface $-1 -68.400790001584454 -25.846957712317199 0 0 1 0 0 0 1 forward_v I I I I #
face $-1 $72 $73 $26 $-1 $74 reversed single #
loop $-1 $-1 $75 $34 #
plane-surface $-1 -40.327021782735194 -142.45675695043249 93.749230087121006 -1 0 0 0 -0.77714596973225614 0.62932038083071107 forward_v I I I I #
face $-1 $76 $77 $27 $-1 $78 forward single #
loop $-1 $79 $80 $35 #
cone-surface $-1 -52.811256671631824 -26.816593749831455 4.7737397045229528 0 0.77714596973225614 -0.62932038083071107 1.5 0 0 1 I I 0 1 1.5 forward I I I I #
face $-1 $81 $82 $28 $-1 $83 reversed single #
loop $-1 $-1 $84 $36 #
plane-surface $-1 -48.908438978229398 70.008733829884406 151.78377085636504 1 0 0 0 -0.61566148304635926 -0.78801074757464917 forward_v I I I I #
face $-1 $85 $86 $29 $-1 $87 forward single #
loop $-1 $88 $89 $37 #
cone-surface $-1 -38.909256747720356 24.701429094086354 3.7486903609950435 0 -0.61566148304635926 -0.78801074757464917 3 0 0 1 I I 0 1 3 forward I I I I #
face $-1 $90 $91 $30 $-1 $92 reversed single #
loop $-1 $-1 $93 $38 #
plane-surface $-1 35.120671399323335 70.008733829884406 151.78377085636504 1 0 0 0 -0.61566148304635926 -0.78801074757464917 forward_v I I I I #
face $-1 $94 $95 $31 $-1 $96 forward single #
loop $-1 $97 $98 $39 #
cone-surface $-1 45.119853629832377 24.701429094086354 3.7486903609950435 0 -0.61566148304635926 -0.78801074757464917 3 0 0 1 I I 0 1 3 forward I I I I #
face $-1 $99 $100 $24 $-1 $101 reversed single #
loop $-1 $-1 $102 $40 #
plane-surface $-1 0 0 -9.3873626988464167 0 0 1 1 0 0 forward_v I I I I #
coedge $-1 $103 $104 $105 $106 forward $41 $-1 #
face $-1 $107 $108 $25 $-1 $109 reversed single #
loop $-1 $-1 $110 $43 #
plane-surface $-1 -68.400790001584454 -22.846957712317199 0 0 -1 0 0 0 -1 forward_v I I I I #
coedge $-1 $111 $112 $113 $114 reversed $44 $-1 #
face $-1 $115 $116 $26 $-1 $117 reversed single #
loop $-1 $-1 $118 $46 #
plane-surface $-1 -52.811256671631824 -31.315420061399905 3.748752466246998 0 -0.77714596973225614 0.62932038083071107 1 0 0 forward_v I I I I #
coedge $-1 $119 $120 $121 $122 reversed $47 $-1 #
face $-1 $-1 $123 $27 $-1 $124 forward single #
loop $-1 $125 $126 $49 #
cone-surface $-1 -52.811256671631824 -24.017936167465322 2.5074315408761656 0 0.77714596973225614 -0.62932038083071107 0.75 0 0 1 I I -0.70710678118654757 0.70710678118654757 0.75 forward I I I I #
loop $-1 $-1 $127 $35 #
coedge $-1 $80 $80 $128 $129 reversed $50 $-1 #
face $-1 $130 $131 $28 $-1 $132 reversed single #
loop $-1 $-1 $133 $52 #
plane-surface $-1 -38.909256747720356 -18.038355084995899 39.088638436716849 0 0.61566148304635926 0.78801074757464917 1 0 0 forward_v I I I I #
coedge $-1 $134 $135 $136 $137 reversed $53 $-1 #
face $-1 $-1 $138 $29 $-1 $139 forward single #
loop $-1 $140 $141 $55 #
cone-surface $-1 -38.909256747720356 22.832884186199276 1.3570619900676633 0 -0.61566148304635926 -0.78801074757464917 1.5 0 0 1 I I -0.70710678118654757 0.70710678118654757 1.5 forward I I I I #
loop $-1 $-1 $142 $37 #
coedge $-1 $89 $89 $143 $144 reversed $56 $-1 #
face $-1 $145 $146 $30 $-1 $147 reversed single #
loop $-1 $-1 $148 $58 #
plane-surface $-1 45.119853629832377 -18.038355084995899 39.088638436716849 0 0.61566148304635926 0.78801074757464917 1 0 0 forward_v I I I I #
coedge $-1 $149 $150 $151 $152 reversed $59 $-1 #
face $-1 $-1 $153 $31 $-1 $154 forward single #
loop $-1 $155 $156 $61 #
cone-surface $-1 45.119853629832377 22.832884186199276 1.3570619900676633 0 -0.61566148304635926 -0.78801074757464917 1.5 0 0 1 I I -0.70710678118654757 0.70710678118654757 1.5 forward I I I I #
loop $-1 $-1 $157 $39 #
coedge $-1 $98 $98 $158 $159 reversed $62 $-1 #
face $-1 $160 $161 $24 $-1 $162 reversed single #
loop $-1 $-1 $163 $64 #
plane-surface $-1 0 -31.315420061399902 0 0 1 0 0 0 1 forward_v I I I I #
coedge $-1 $164 $165 $166 $167 forward $65 $-1 #
coedge $-1 $168 $67 $169 $170 forward $41 $-1 #
coedge $-1 $67 $168 $171 $172 forward $41 $-1 #
coedge $-1 $173 $174 $67 $106 reversed $175 $-1 #
edge $-1 $176 -31.315420061399902 $177 31.315420061399902 $105 $178 forward 7 unknown #
face $-1 $179 $180 $25 $-1 $181 reversed single #
loop $-1 $-1 $182 $68 #
plane-surface $-1 -65.295491560528447 -24.346957712317199 0 -1 0 0 0 0 1 forward_v I I I I #
coedge $-1 $183 $184 $185 $186 forward $69 $-1 #
coedge $-1 $187 $71 $188 $189 reversed $44 $-1 #
coedge $-1 $71 $187 $190 $191 reversed $44 $-1 #
coedge $-1 $192 $193 $71 $114 forward $194 $-1 #
edge $-1 $195 -9.3873626988464167 $196 9.3873626988464167 $113 $197 forward 7 unknown #
face $-1 $198 $199 $26 $-1 $200 reversed single #
loop $-1 $-1 $201 $72 #
plane-surface $-1 -65.295491560528447 -142.45675695043249 93.749230087121006 1 0 0 0 0.77714596973225614 -0.62932038083071107 forward_v I I I I #
coedge $-1 $202 $203 $204 $205 reversed $73 $-1 #
coedge $-1 $120 $75 $206 $207 reversed $47 $-1 #
coedge $-1 $75 $119 $202 $208 reversed $47 $-1 #
coedge $-1 $204 $209 $75 $122 forward $210 $-1 #
edge $-1 $211 39.912958413816341 $212 44.479014826819352 $121 $213 forward 7 unknown #
loop $-1 $-1 $128 $76 #
plane-surface $-1 -52.811256671631824 -31.315420061399905 3.748752466246998 0 -0.77714596973225614 0.62932038083071107 1 0 0 forward_v I I I I #
loop $-1 $-1 $214 $49 #
coedge $-1 $126 $126 $127 $215 reversed $77 $-1 #
coedge $-1 $127 $127 $126 $215 forward $79 $-1 #
coedge $-1 $128 $128 $80 $129 forward $123 $-1 #
edge $-1 $216 5.7020437785264969e-016 $216 6.2831853071796013 $128 $217 forward 7 unknown #
face $-1 $218 $219 $28 $-1 $220 reversed single #
loop $-1 $-1 $221 $81 #
plane-surface $-1 -28.910074517211314 70.008733829884406 151.78377085636504 -1 0 0 0 0.61566148304635926 0.78801074757464917 forward_v I I I I #
coedge $-1 $222 $223 $224 $225 reversed $82 $-1 #
coedge $-1 $135 $84 $226 $227 reversed $53 $-1 #
coedge $-1 $84 $134 $222 $228 reversed $53 $-1 #
coedge $-1 $224 $229 $84 $137 forward $230 $-1 #
edge $-1 $231 3.6889468535423013 $232 15.026823421534296 $136 $233 forward 7 unknown #
loop $-1 $-1 $143 $85 #
plane-surface $-1 -38.909256747720356 -18.038355084995899 39.088638436716849 0 0.61566148304635926 0.78801074757464917 1 0 0 forward_v I I I I #
loop $-1 $-1 $234 $55 #
coedge $-1 $141 $141 $142 $235 reversed $86 $-1 #
coedge $-1 $142 $142 $141 $235 forward $88 $-1 #
coedge $-1 $143 $143 $89 $144 forward $138 $-1 #
edge $-1 $236 -6.5490346538510744e-017 $236 6.2831853071796004 $143 $237 forward 7 unknown #
face $-1 $238 $239 $30 $-1 $240 forward single #
loop $-1 $-1 $241 $90 #
plane-surface $-1 55.11903586034142 70.008733829884406 151.78377085636504 -1 0 0 0 0.61566148304635926 0.78801074757464917 forward_v I I I I #
coedge $-1 $242 $243 $244 $245 reversed $91 $-1 #
coedge $-1 $150 $93 $246 $247 reversed $59 $-1 #
coedge $-1 $93 $149 $242 $248 reversed $59 $-1 #
coedge $-1 $244 $249 $93 $152 forward $239 $-1 #
edge $-1 $250 3.6889468535423013 $251 15.026823421534296 $151 $252 forward 7 unknown #
loop $-1 $-1 $158 $94 #
plane-surface $-1 45.119853629832377 -18.038355084995899 39.088638436716849 0 0.61566148304635926 0.78801074757464917 1 0 0 forward_v I I I I #
loop $-1 $-1 $253 $61 #
coedge $-1 $156 $156 $157 $254 reversed $95 $-1 #
coedge $-1 $157 $157 $156 $254 forward $97 $-1 #
coedge $-1 $158 $158 $98 $159 forward $153 $-1 #
edge $-1 $255 -6.5490346538510744e-017 $255 6.2831853071796004 $158 $256 forward 7 unknown #
face $-1 $257 $258 $24 $-1 $259 reversed single #
loop $-1 $-1 $260 $99 #
plane-surface $-1 -71.506088442640461 0 0 1 0 0 0 0 -1 forward_v I I I I #
coedge $-1 $261 $171 $262 $263 forward $100 $-1 #
coedge $-1 $264 $102 $261 $265 forward $65 $-1 #
coedge $-1 $102 $264 $266 $267 forward $65 $-1 #
coedge $-1 $174 $173 $102 $167 reversed $175 $-1 #
edge $-1 $268 -31.315420061399902 $269 31.315420061399902 $166 $270 forward 7 unknown #
coedge $-1 $104 $103 $271 $272 forward $41 $-1 #
coedge $-1 $273 $274 $103 $170 reversed $258 $-1 #
edge $-1 $177 -71.506088442640461 $275 71.506088442640461 $169 $276 forward 7 unknown #
coedge $-1 $163 $277 $104 $172 reversed $100 $-1 #
edge $-1 $278 -71.506088442640461 $176 71.506088442640461 $171 $279 forward 7 unknown #
coedge $-1 $166 $105 $277 $280 forward $175 $-1 #
coedge $-1 $105 $166 $273 $281 reversed $175 $-1 #
loop $-1 $-1 $173 $257 #
vertex $-1 $106 $282 #
vertex $-1 $106 $283 #
straight-curve $-1 71.506088442640461 0 9.3873626988464167 0 1 0 I I #
face $-1 $284 $285 $25 $-1 $286 forward single #
loop $-1 $-1 $287 $107 #
plane-surface $-1 0 0 -9.3873626988464167 0 0 1 1 0 0 forward_v I I I I #
coedge $-1 $288 $289 $187 $290 forward $108 $-1 #
coedge $-1 $291 $110 $287 $292 reversed $69 $-1 #
coedge $-1 $110 $291 $293 $294 reversed $69 $-1 #
coedge $-1 $289 $288 $110 $186 reversed $108 $-1 #
edge $-1 $295 -9.3873626988464167 $296 9.3873626988464167 $185 $297 forward 7 unknown #
coedge $-1 $112 $111 $182 $290 reversed $44 $-1 #
coedge $-1 $298 $299 $111 $189 forward $180 $-1 #
edge $-1 $300 31.09509655973622 $195 37.305693441848234 $188 $301 forward 7 unknown #
coedge $-1 $302 $303 $112 $191 forward $285 $-1 #
edge $-1 $196 -37.305693441848234 $304 -31.09509655973622 $190 $305 forward 7 unknown #
coedge $-1 $306 $113 $303 $307 reversed $194 $-1 #
coedge $-1 $113 $306 $298 $308 reversed $194 $-1 #
loop $-1 $-1 $306 $284 #
vertex $-1 $308 $309 #
vertex $-1 $114 $310 #
straight-curve $-1 -71.506088442640461 -25.846957712317199 0 0 0 1 I I #
face $-1 $-1 $210 $26 $-1 $311 forward single #
loop $-1 $-1 $312 $115 #
plane-surface $-1 0 -31.315420061399902 0 0 1 0 0 0 1 forward_v I I I I #
coedge $-1 $313 $314 $315 $316 reversed $116 $-1 #
coedge $-1 $317 $118 $120 $208 forward $73 $-1 #
coedge $-1 $118 $317 $313 $318 forward $73 $-1 #
coedge $-1 $315 $121 $118 $205 forward $210 $-1 #
edge $-1 $212 13.921393446919282 $319 38.889863224712535 $204 $320 forward 7 unknown #
coedge $-1 $321 $322 $119 $207 forward $199 $-1 #
edge $-1 $323 -43.125862577313498 $211 -37.487252344714086 $206 $324 forward 7 unknown #
edge $-1 $212 -7.2555355778812629 $323 -5.6870165216907905e-015 $120 $325 forward 7 unknown #
coedge $-1 $121 $315 $321 $326 forward $210 $-1 #
loop $-1 $-1 $315 $198 #
vertex $-1 $207 $327 #
vertex $-1 $122 $328 #
straight-curve $-1 -40.327021782735194 -71.228378475216246 9.3873626988464167 0 1 0 I I #
coedge $-1 $214 $214 $-1 $329 reversed $125 $-1 #
edge $-1 $330 0 $330 6.2831853071796004 $126 $331 forward 7 unknown #
vertex $-1 $129 $332 #
ellipse-curve $-1 -52.811256671631824 -29.0323918548984 6.56805758254671 0 -0.77714596973225614 0.62932038083071107 1.5 0 0 1 I I #
face $-1 $-1 $230 $28 $-1 $333 forward single #
loop $-1 $-1 $334 $130 #
plane-surface $-1 0 31.315420061399902 0 0 -1 0 0 0 -1 forward_v I I I I #
coedge $-1 $335 $336 $337 $338 reversed $131 $-1 #
coedge $-1 $339 $133 $135 $228 forward $82 $-1 #
coedge $-1 $133 $339 $335 $340 forward $82 $-1 #
coedge $-1 $337 $136 $133 $225 forward $230 $-1 #
edge $-1 $232 -29.45381060436922 $341 -9.4554461433511356 $224 $342 forward 7 unknown #
coedge $-1 $343 $344 $134 $227 forward $219 $-1 #
edge $-1 $345 -75.362642905908018 $231 -66.504522729336102 $226 $346 forward 7 unknown #
edge $-1 $232 48.242868127636186 $345 62.630840122799796 $135 $347 forward 7 unknown #
coedge $-1 $136 $337 $343 $348 forward $230 $-1 #
loop $-1 $-1 $337 $218 #
vertex $-1 $227 $349 #
vertex $-1 $137 $350 #
straight-curve $-1 -48.908438978229398 35.004366914942203 9.3873626988464167 0 -1 0 I I #
coedge $-1 $234 $234 $-1 $351 reversed $140 $-1 #
edge $-1 $352 0 $352 6.2831853071796004 $141 $353 forward 7 unknown #
vertex $-1 $144 $354 #
ellipse-curve $-1 -38.909256747720356 25.646481777403903 4.9583026105604642 0 0.61566148304635926 0.78801074757464917 3 0 0 1 I I #
face $-1 $-1 $355 $30 $-1 $356 reversed single #
loop $-1 $-1 $151 $145 #
plane-surface $-1 0 0 9.3873626988464167 0 0 1 1 0 0 forward_v I I I I #
coedge $-1 $357 $358 $359 $360 reversed $146 $-1 #
coedge $-1 $361 $148 $150 $248 forward $91 $-1 #
coedge $-1 $148 $361 $357 $362 forward $91 $-1 #
coedge $-1 $359 $151 $148 $245 forward $239 $-1 #
edge $-1 $251 12.560744584407146 $363 32.559109045425231 $244 $364 forward 7 unknown #
coedge $-1 $365 $366 $149 $247 forward $355 $-1 #
edge $-1 $367 -75.362642905908018 $250 -66.504522729336102 $246 $368 forward 7 unknown #
edge $-1 $251 48.242868127636186 $367 62.630840122799796 $150 $369 forward 7 unknown #
coedge $-1 $151 $359 $365 $370 forward $239 $-1 #
vertex $-1 $247 $371 #
vertex $-1 $152 $372 #
straight-curve $-1 35.120671399323335 35.004366914942203 9.3873626988464167 0 -1 0 I I #
coedge $-1 $253 $253 $-1 $373 reversed $155 $-1 #
edge $-1 $374 0 $374 6.2831853071796004 $156 $375 forward 7 unknown #
vertex $-1 $159 $376 #
ellipse-curve $-1 45.119853629832377 25.646481777403903 4.9583026105604642 0 0.61566148304635926 0.78801074757464917 3 0 0 1 I I #
face $-1 $-1 $175 $24 $-1 $377 reversed single #
loop $-1 $-1 $273 $160 #
plane-surface $-1 0 31.315420061399902 0 0 -1 0 0 0 -1 forward_v I I I I #
coedge $-1 $378 $271 $274 $379 forward $161 $-1 #
coedge $-1 $277 $163 $164 $265 reversed $100 $-1 #
coedge $-1 $271 $378 $163 $263 reversed $161 $-1 #
edge $-1 $278 -9.3873626988464167 $380 9.3873626988464167 $262 $381 forward 7 unknown #
coedge $-1 $165 $164 $378 $382 forward $65 $-1 #
edge $-1 $269 -71.506088442640461 $380 71.506088442640461 $261 $383 forward 7 unknown #
coedge $-1 $274 $273 $165 $267 reversed $258 $-1 #
edge $-1 $384 -71.506088442640461 $268 71.506088442640461 $266 $385 forward 7 unknown #
vertex $-1 $167 $386 #
vertex $-1 $280 $387 #
straight-curve $-1 71.506088442640461 0 -9.3873626988464167 0 -1 0 I I #
coedge $-1 $260 $262 $168 $272 reversed $161 $-1 #
edge $-1 $275 -31.315420061399902 $278 31.315420061399902 $271 $388 forward 7 unknown #
coedge $-1 $266 $169 $174 $281 forward $258 $-1 #
coedge $-1 $169 $266 $260 $379 reversed $258 $-1 #
vertex $-1 $170 $389 #
straight-curve $-1 0 31.315420061399902 9.3873626988464167 -1 0 0 I I #
coedge $-1 $171 $261 $173 $280 reversed $100 $-1 #
vertex $-1 $272 $390 #
straight-curve $-1 0 -31.315420061399902 9.3873626988464167 1 0 0 I I #
edge $-1 $176 -9.3873626988464167 $269 9.3873626988464167 $173 $391 forward 7 unknown #
edge $-1 $177 -9.3873626988464167 $268 9.3873626988464167 $174 $392 forward 7 unknown #
point $-1 71.506088442640461 -31.315420061399902 9.3873626988464167 #
point $-1 71.506088442640461 31.315420061399902 9.3873626988464167 #
face $-1 $-1 $194 $25 $-1 $393 reversed single #
loop $-1 $-1 $293 $179 #
plane-surface $-1 0 0 9.3873626988464167 0 0 1 1 0 0 forward_v I I I I #
coedge $-1 $299 $298 $183 $292 forward $180 $-1 #
coedge $-1 $185 $182 $299 $394 reversed $108 $-1 #
coedge $-1 $182 $185 $302 $395 reversed $108 $-1 #
edge $-1 $304 -9.3873626988464167 $300 9.3873626988464167 $182 $396 forward 7 unknown #
coedge $-1 $184 $183 $306 $397 reversed $69 $-1 #
edge $-1 $398 -37.305693441848234 $296 -31.09509655973622 $287 $399 forward 7 unknown #
coedge $-1 $303 $302 $184 $294 forward $285 $-1 #
edge $-1 $295 31.09509655973622 $400 37.305693441848234 $293 $401 forward 7 unknown #
vertex $-1 $294 $402 #
vertex $-1 $292 $403 #
straight-curve $-1 -65.295491560528447 -22.846957712317199 0 0 0 -1 I I #
coedge $-1 $287 $188 $193 $308 forward $180 $-1 #
coedge $-1 $188 $287 $288 $394 forward $180 $-1 #
vertex $-1 $189 $404 #
straight-curve $-1 -34.200395000792227 -25.846957712317199 -9.3873626988464167 -1 0 0 I I #
coedge $-1 $293 $190 $289 $395 forward $285 $-1 #
coedge $-1 $190 $293 $192 $307 forward $285 $-1 #
vertex $-1 $191 $405 #
straight-curve $-1 -34.200395000792227 -25.846957712317199 9.3873626988464167 1 0 0 I I #
coedge $-1 $193 $192 $291 $397 forward $194 $-1 #
edge $-1 $400 22.846957712317199 $196 25.846957712317199 $192 $406 forward 7 unknown #
edge $-1 $195 -25.846957712317199 $398 -22.846957712317199 $193 $407 forward 7 unknown #
point $-1 -71.506088442640461 -25.846957712317199 -9.3873626988464167 #
point $-1 -71.506088442640461 -25.846957712317199 9.3873626988464167 #
plane-surface $-1 0 0 9.3873626988464167 0 0 1 1 0 0 forward_v I I I I #
coedge $-1 $322 $321 $314 $408 forward $199 $-1 #
coedge $-1 $314 $201 $203 $318 reversed $116 $-1 #
coedge $-1 $201 $313 $312 $408 reversed $116 $-1 #
coedge $-1 $209 $204 $201 $316 forward $210 $-1 #
edge $-1 $319 -44.479014826819352 $409 -39.912958413816341 $315 $410 forward 7 unknown #
coedge $-1 $203 $202 $322 $411 reversed $73 $-1 #
edge $-1 $412 5.6870165216907905e-015 $319 7.2555355778812629 $313 $413 forward 7 unknown #
vertex $-1 $205 $414 #
straight-curve $-1 -26.405628335815912 -26.749363648396898 9.3873626988464167 -1 0 0 I I #
coedge $-1 $312 $206 $209 $326 reversed $199 $-1 #
coedge $-1 $206 $312 $317 $411 forward $199 $-1 #
vertex $-1 $207 $415 #
straight-curve $-1 -40.327021782735194 -31.315420061399905 46.874615043560503 0 0 1 I I #
straight-curve $-1 -40.327021782735194 -31.315420061399905 3.748752466246998 0 -0.62932038083071107 -0.77714596973225614 I I #
edge $-1 $409 -65.295491560528447 $211 -40.327021782735194 $321 $416 forward 7 unknown #
point $-1 -40.327021782735194 -31.315420061399902 9.3873626988464167 #
point $-1 -40.327021782735194 -26.749363648396894 9.3873626988464167 #
edge $-1 $417 1 $417 0 $214 $-1 forward 7 unknown #
vertex $-1 $215 $418 #
ellipse-curve $-1 -52.811256671631824 -24.600795644764514 2.9794218264991987 0 -0.77714596973225614 0.62932038083071107 1.5 0 0 1 I I #
point $-1 -51.311256671631824 -29.032391854898396 6.5680575825467082 #
plane-surface $-1 0 0 9.3873626988464167 0 0 1 1 0 0 forward_v I I I I #
coedge $-1 $344 $343 $336 $419 forward $219 $-1 #
coedge $-1 $336 $221 $223 $340 reversed $131 $-1 #
coedge $-1 $221 $335 $334 $419 reversed $131 $-1 #
coedge $-1 $229 $224 $221 $338 forward $230 $-1 #
edge $-1 $341 -15.026823421534296 $420 -3.6889468535423013 $337 $421 forward 7 unknown #
coedge $-1 $223 $222 $344 $422 reversed $82 $-1 #
edge $-1 $423 -62.630840122799796 $341 -48.242868127636186 $335 $424 forward 7 unknown #
vertex $-1 $225 $425 #
straight-curve $-1 -19.454628373860178 19.977543493407911 9.3873626988464132 1 0 0 I I #
coedge $-1 $334 $226 $229 $348 reversed $219 $-1 #
coedge $-1 $226 $334 $339 $422 forward $219 $-1 #
vertex $-1 $227 $426 #
straight-curve $-1 -48.908438978229398 31.315420061399902 75.891885428182519 0 0 1 I I #
straight-curve $-1 -48.908438978229398 -18.038355084995899 39.088638436716849 0 0.78801074757464917 -0.61566148304635926 I I #
edge $-1 $420 28.910074517211314 $231 48.908438978229398 $343 $427 forward 7 unknown #
point $-1 -48.908438978229398 31.315420061399902 9.3873626988464167 #
point $-1 -48.908438978229398 19.977543493407907 9.3873626988464167 #
edge $-1 $428 1 $428 0 $234 $-1 forward 7 unknown #
vertex $-1 $235 $429 #
ellipse-curve $-1 -38.909256747720356 23.756376410768816 2.539078111429637 0 0.61566148304635926 0.78801074757464917 3 0 0 1 I I #
point $-1 -35.909256747720356 25.646481777403892 4.9583026105604509 #
loop $-1 $-1 $246 $238 #
plane-surface $-1 0 31.315420061399902 0 0 -1 0 0 0 -1 forward_v I I I I #
coedge $-1 $358 $241 $243 $362 reversed $146 $-1 #
coedge $-1 $241 $357 $430 $431 reversed $146 $-1 #
coedge $-1 $249 $244 $241 $360 forward $239 $-1 #
edge $-1 $363 -15.026823421534296 $432 -3.6889468535423013 $359 $433 forward 7 unknown #
coedge $-1 $243 $242 $366 $434 reversed $91 $-1 #
edge $-1 $435 -62.630840122799796 $363 -48.242868127636186 $357 $436 forward 7 unknown #
vertex $-1 $245 $437 #
straight-curve $-1 22.559926814916189 19.977543493407911 9.3873626988464132 1 0 0 I I #
coedge $-1 $430 $246 $249 $370 reversed $355 $-1 #
coedge $-1 $246 $430 $361 $434 forward $355 $-1 #
vertex $-1 $247 $438 #
straight-curve $-1 35.120671399323335 31.315420061399902 75.891885428182519 0 0 1 I I #
straight-curve $-1 35.120671399323335 -18.038355084995899 39.088638436716849 0 0.78801074757464917 -0.61566148304635926 I I #
edge $-1 $432 -55.11903586034142 $250 -35.120671399323335 $365 $439 forward 7 unknown #
point $-1 35.120671399323335 31.315420061399902 9.3873626988464167 #
point $-1 35.120671399323335 19.977543493407907 9.3873626988464167 #
edge $-1 $440 1 $440 0 $253 $-1 forward 7 unknown #
vertex $-1 $254 $441 #
ellipse-curve $-1 45.119853629832377 23.756376410768816 2.539078111429637 0 0.61566148304635926 0.78801074757464917 3 0 0 1 I I #
point $-1 48.119853629832377 25.646481777403892 4.9583026105604509 #
plane-surface $-1 71.506088442640461 0 0 -1 0 0 0 0 1 forward_v I I I I #
coedge $-1 $262 $260 $264 $382 reversed $161 $-1 #
edge $-1 $275 -9.3873626988464167 $384 9.3873626988464167 $274 $442 forward 7 unknown #
vertex $-1 $382 $443 #
straight-curve $-1 -71.506088442640461 -31.315420061399902 0 0 0 -1 I I #
edge $-1 $380 -31.315420061399902 $384 31.315420061399902 $378 $444 forward 7 unknown #
straight-curve $-1 0 -31.315420061399902 -9.3873626988464167 -1 0 0 I I #
vertex $-1 $267 $445 #
straight-curve $-1 0 31.315420061399902 -9.3873626988464167 1 0 0 I I #
point $-1 71.506088442640461 31.315420061399902 -9.3873626988464167 #
point $-1 71.506088442640461 -31.315420061399902 -9.3873626988464167 #
straight-curve $-1 -71.506088442640461 0 9.3873626988464167 0 -1 0 I I #
point $-1 -71.506088442640461 31.315420061399902 9.3873626988464167 #
point $-1 -71.506088442640461 -31.315420061399902 9.3873626988464167 #
straight-curve $-1 71.506088442640461 -31.315420061399902 0 0 0 -1 I I #
straight-curve $-1 71.506088442640461 31.315420061399902 0 0 0 -1 I I #
plane-surface $-1 -71.506088442640461 0 0 1 0 0 0 0 -1 forward_v I I I I #
edge $-1 $296 10.673478856158599 $300 13.673478856158599 $299 $446 forward 7 unknown #
edge $-1 $304 -13.673478856158599 $295 -10.673478856158599 $302 $447 forward 7 unknown #
straight-curve $-1 -65.295491560528447 -25.846957712317199 0 0 0 -1 I I #
edge $-1 $400 -9.3873626988464167 $398 9.3873626988464167 $306 $448 forward 7 unknown #
vertex $-1 $397 $449 #
straight-curve $-1 -34.200395000792227 -22.846957712317199 -9.3873626988464167 1 0 0 I I #
vertex $-1 $307 $450 #
straight-curve $-1 -34.200395000792227 -22.846957712317199 9.3873626988464167 -1 0 0 I I #
point $-1 -65.295491560528447 -22.846957712317199 9.3873626988464167 #
point $-1 -65.295491560528447 -22.846957712317199 -9.3873626988464167 #
point $-1 -65.295491560528447 -25.846957712317199 -9.3873626988464167 #
point $-1 -65.295491560528447 -25.846957712317199 9.3873626988464167 #
straight-curve $-1 -71.506088442640461 0 9.3873626988464167 0 -1 0 I I #
straight-curve $-1 -71.506088442640461 0 -9.3873626988464167 0 1 0 I I #
edge $-1 $409 37.487252344714086 $412 43.125862577313498 $312 $451 forward 7 unknown #
vertex $-1 $326 $452 #
straight-curve $-1 -65.295491560528447 -71.228378475216246 9.3873626988464167 0 -1 0 I I #
edge $-1 $412 -38.889863224712535 $323 -13.921393446919282 $322 $453 forward 7 unknown #
vertex $-1 $411 $454 #
straight-curve $-1 -65.295491560528447 -31.315420061399905 3.748752466246998 0 0.62932038083071107 0.77714596973225614 I I #
point $-1 -65.295491560528447 -26.749363648396894 9.3873626988464167 #
point $-1 -40.327021782735194 -31.315420061399902 3.7487524662470024 #
straight-curve $-1 0 -31.315420061399902 9.3873626988464167 1 0 0 I I #
vertex $-1 $329 $455 #
point $-1 -51.311256671631824 -24.600795644764514 2.9794218264991987 #
edge $-1 $420 66.504522729336102 $423 75.362642905908018 $334 $456 forward 7 unknown #
vertex $-1 $348 $457 #
straight-curve $-1 -28.910074517211314 35.004366914942203 9.3873626988464167 0 1 0 I I #
edge $-1 $423 9.4554461433511356 $345 29.45381060436922 $344 $458 forward 7 unknown #
vertex $-1 $422 $459 #
straight-curve $-1 -28.910074517211314 -18.038355084995899 39.088638436716849 0 -0.78801074757464917 0.61566148304635926 I I #
point $-1 -28.910074517211314 19.977543493407907 9.3873626988464167 #
point $-1 -48.908438978229398 31.315420061399905 0.52924252227450097 #
straight-curve $-1 0 31.315420061399902 9.3873626988464167 -1 0 0 I I #
vertex $-1 $351 $460 #
point $-1 -35.909256747720356 23.756376410768816 2.539078111429637 #
coedge $-1 $366 $365 $358 $431 forward $355 $-1 #
edge $-1 $432 66.504522729336102 $435 75.362642905908018 $430 $461 forward 7 unknown #
vertex $-1 $370 $462 #
straight-curve $-1 55.11903586034142 35.004366914942203 9.3873626988464167 0 1 0 I I #
edge $-1 $435 -32.559109045425231 $367 -12.560744584407146 $366 $463 forward 7 unknown #
vertex $-1 $434 $464 #
straight-curve $-1 55.11903586034142 -18.038355084995899 39.088638436716849 0 -0.78801074757464917 0.61566148304635926 I I #
point $-1 55.11903586034142 19.977543493407907 9.3873626988464167 #
point $-1 35.120671399323335 31.315420061399905 0.52924252227450097 #
straight-curve $-1 0 31.315420061399902 9.3873626988464167 -1 0 0 I I #
vertex $-1 $373 $465 #
point $-1 48.119853629832377 23.756376410768816 2.539078111429637 #
straight-curve $-1 -71.506088442640461 31.315420061399902 0 0 0 -1 I I #
point $-1 -71.506088442640461 -31.315420061399902 -9.3873626988464167 #
straight-curve $-1 -71.506088442640461 0 -9.3873626988464167 0 1 0 I I #
point $-1 -71.506088442640461 31.315420061399902 -9.3873626988464167 #
straight-curve $-1 -65.295491560528447 -12.173478856158599 -9.3873626988464167 0 -1 0 I I #
straight-curve $-1 -65.295491560528447 -12.173478856158599 9.3873626988464167 0 1 0 I I #
straight-curve $-1 -71.506088442640461 -22.846957712317199 0 0 0 -1 I I #
point $-1 -71.506088442640461 -22.846957712317199 -9.3873626988464167 #
point $-1 -71.506088442640461 -22.846957712317199 9.3873626988464167 #
straight-curve $-1 -65.295491560528447 -31.315420061399905 46.874615043560503 0 0 -1 I I #
point $-1 -65.295491560528447 -31.315420061399902 9.3873626988464167 #
straight-curve $-1 -26.405628335815912 -31.315420061399902 3.7487524662470042 1 0 0 I I #
point $-1 -65.295491560528447 -31.315420061399902 3.7487524662470024 #
point $-1 -52.811256671631824 -23.435076690166131 2.0354412552531325 #
straight-curve $-1 -28.910074517211314 31.315420061399902 75.891885428182519 0 0 -1 I I #
point $-1 -28.910074517211314 31.315420061399902 9.3873626988464167 #
straight-curve $-1 -19.454628373860178 31.315420061399905 0.52924252227449742 -1 0 0 I I #
point $-1 -28.910074517211314 31.315420061399905 0.52924252227450097 #
point $-1 -38.909256747720356 21.909391961629737 0.1750458687056895 #
straight-curve $-1 55.11903586034142 31.315420061399902 75.891885428182519 0 0 -1 I I #
point $-1 55.11903586034142 31.315420061399902 9.3873626988464167 #
straight-curve $-1 22.559926814916189 31.315420061399905 0.52924252227449742 -1 0 0 I I #
point $-1 55.11903586034142 31.315420061399905 0.52924252227450097 #
point $-1 45.119853629832377 21.909391961629737 0.1750458687056895 #
End-of-ACIS-data 