500 0 10 0           
7 Unknown 11 ACIS 5.0 NT 24 Thu Mar 25 23:43:18 1999 
-1 9.9999999999999995e-007 1e-010 
body $-1 $10 $-1 $11 #
body $-1 $12 $-1 $13 #
body $-1 $14 $-1 $15 #
body $-1 $16 $-1 $17 #
body $-1 $18 $-1 $19 #
body $-1 $20 $-1 $21 #
body $-1 $22 $-1 $23 #
body $-1 $24 $-1 $25 #
body $-1 $26 $-1 $27 #
body $-1 $28 $-1 $29 #
lump $-1 $-1 $30 $0 #
transform $-1 1 0 0 0 1 0 0 0 1 79.277321695608379 49.61564657967407 19.238611945495432 1 rotate no_reflect no_shear #
lump $-1 $-1 $31 $1 #
transform $-1 1 0 0 0 1 0 0 0 1 79.277321695608379 49.61564657967407 19.238611945495432 1 rotate no_reflect no_shear #
lump $-1 $-1 $32 $2 #
transform $-1 1 0 0 0 1 0 0 0 1 79.277321695608379 49.61564657967407 19.238611945495432 1 rotate no_reflect no_shear #
lump $-1 $-1 $33 $3 #
transform $-1 1 0 0 0 1 0 0 0 1 79.277321695608379 49.61564657967407 19.238611945495432 1 rotate no_reflect no_shear #
lump $-1 $-1 $34 $4 #
transform $-1 1 0 0 0 1 0 0 0 1 79.277321695608379 49.61564657967407 19.238611945495432 1 rotate no_reflect no_shear #
lump $-1 $-1 $35 $5 #
transform $-1 1 0 0 0 1 0 0 0 1 79.277321695608379 49.61564657967407 19.238611945495432 1 rotate no_reflect no_shear #
lump $-1 $-1 $36 $6 #
transform $-1 1 0 0 0 1 0 0 0 1 79.277321695608379 49.61564657967407 19.238611945495432 1 rotate no_reflect no_shear #
lump $-1 $-1 $37 $7 #
transform $-1 1 0 0 0 1 0 0 0 1 79.277321695608379 49.61564657967407 19.238611945495432 1 rotate no_reflect no_shear #
lump $-1 $-1 $38 $8 #
transform $-1 1 0 0 0 1 0 0 0 1 79.277321695608379 49.61564657967407 19.238611945495432 1 rotate no_reflect no_shear #
lump $-1 $-1 $39 $9 #
transform $-1 1 0 0 0 1 0 0 0 1 79.277321695608379 49.61564657967407 19.238611945495432 1 rotate no_reflect no_shear #
shell $-1 $-1 $-1 $40 $-1 $10 #
shell $-1 $-1 $-1 $41 $-1 $12 #
shell $-1 $-1 $-1 $42 $-1 $14 #
shell $-1 $-1 $-1 $43 $-1 $16 #
shell $-1 $-1 $-1 $44 $-1 $18 #
shell $-1 $-1 $-1 $45 $-1 $20 #
shell $-1 $-1 $-1 $46 $-1 $22 #
shell $-1 $-1 $-1 $47 $-1 $24 #
shell $-1 $-1 $-1 $48 $-1 $26 #
shell $-1 $-1 $-1 $49 $-1 $28 #
face $-1 $50 $51 $30 $-1 $52 forward single #
face $-1 $53 $54 $31 $-1 $55 forward single #
face $-1 $56 $57 $32 $-1 $58 forward single #
face $-1 $59 $60 $33 $-1 $61 reversed single #
face $-1 $62 $63 $34 $-1 $64 forward single #
face $-1 $65 $66 $35 $-1 $67 reversed single #
face $-1 $68 $69 $36 $-1 $70 forward single #
face $-1 $71 $72 $37 $-1 $73 reversed single #
face $-1 $74 $75 $38 $-1 $76 forward single #
face $-1 $77 $78 $39 $-1 $79 forward single #
face $-1 $80 $81 $30 $-1 $82 reversed single #
loop $-1 $-1 $83 $40 #
plane-surface $-1 0 0 19.238611945495432 0 0 1 1 0 0 forward_v I I I I #
face $-1 $84 $85 $31 $-1 $86 reversed single #
loop $-1 $-1 $87 $41 #
plane-surface $-1 0 -49.61564657967407 0 0 1 0 0 0 1 forward_v I I I I #
face $-1 $88 $89 $32 $-1 $90 reversed single #
loop $-1 $-1 $91 $42 #
plane-surface $-1 0 49.61564657967407 0 0 -1 0 0 0 -1 forward_v I I I I #
face $-1 $92 $93 $33 $-1 $94 reversed single #
loop $-1 $-1 $95 $43 #
plane-surface $-1 87.102842991193114 -10.585719848845887 231.21994701520921 0 -1 0 -0.73135370988377701 0 -0.68199835119979291 forward_v I I I I #
face $-1 $96 $97 $34 $-1 $98 forward single #
loop $-1 $99 $100 $44 #
cone-surface $-1 70.995911433620876 -17.450308910940493 10.726262070844037 -0.73135370988377701 0 -0.68199835119979291 1.3639967023995858 0 -1.462707419767554 1 I I 0 1 2 forward I I I I #
face $-1 $101 $102 $35 $-1 $103 reversed single #
loop $-1 $-1 $104 $45 #
plane-surface $-1 87.102842991193114 21.449257228204242 231.21994701520921 0 -1 0 -0.73135370988377701 0 -0.68199835119979291 forward_v I I I I #
face $-1 $105 $106 $36 $-1 $107 forward single #
loop $-1 $108 $109 $46 #
cone-surface $-1 70.995911433620876 14.584668166109644 10.726262070844037 -0.73135370988377701 0 -0.68199835119979291 1.3639967023995858 0 -1.462707419767554 1 I I 0 1 2 forward I I I I #
face $-1 $110 $111 $37 $-1 $112 reversed single #
loop $-1 $-1 $113 $47 #
plane-surface $-1 -216.58967198681017 -18.384171602946882 83.305379445426567 0 1 0 -0.86602541151947299 0 0.49999998660252726 forward_v I I I I #
face $-1 $114 $115 $38 $-1 $116 forward single #
loop $-1 $117 $118 $48 #
cone-surface $-1 -73.221520996769243 -15.713931423407779 10.672109701817831 0.86602541151947299 0 -0.49999998660252726 0.49999998660252726 0 0.86602541151947299 1 I I 0 1 1 forward I I I I #
face $-1 $119 $120 $39 $-1 $121 forward single #
loop $-1 $122 $123 $49 #
cone-surface $-1 -73.221520996769243 -11.708571154099111 10.672109701817831 0.86602541151947299 0 -0.49999998660252726 0.49999998660252726 0 0.86602541151947299 1 I I 0 1 1 forward I I I I #
face $-1 $124 $125 $30 $-1 $126 reversed single #
loop $-1 $-1 $127 $50 #
plane-surface $-1 0 0 -19.238611945495432 0 0 1 1 0 0 forward_v I I I I #
coedge $-1 $128 $129 $130 $131 forward $51 $-1 #
face $-1 $132 $133 $31 $-1 $134 forward single #
loop $-1 $-1 $135 $53 #
plane-surface $-1 -79.277321695608379 0 0 1 0 0 0 0 -1 forward_v I I I I #
coedge $-1 $136 $137 $138 $139 forward $54 $-1 #
face $-1 $140 $141 $32 $-1 $142 forward single #
loop $-1 $-1 $143 $56 #
plane-surface $-1 79.277321695608379 0 0 -1 0 0 0 0 1 forward_v I I I I #
coedge $-1 $144 $145 $146 $147 forward $57 $-1 #
face $-1 $148 $149 $33 $-1 $150 reversed single #
loop $-1 $-1 $151 $59 #
plane-surface $-1 -28.856683672272553 -17.450308910940485 123.08594164732824 0.73135370988377701 0 0.68199835119979291 0.68199835119979291 0 -0.73135370988377701 forward_v I I I I #
coedge $-1 $152 $153 $154 $155 reversed $60 $-1 #
face $-1 $-1 $156 $34 $-1 $157 forward single #
loop $-1 $158 $159 $62 #
cone-surface $-1 67.63055052103914 -17.450308910940493 7.5880123258092915 -0.73135370988377701 0 -0.68199835119979291 0.68199835119979291 0 -0.73135370988377701 1 I I -0.70710678118654746 0.70710678118654746 1 forward I I I I #
loop $-1 $-1 $160 $44 #
coedge $-1 $100 $100 $161 $162 reversed $63 $-1 #
face $-1 $163 $164 $35 $-1 $165 reversed single #
loop $-1 $-1 $166 $65 #
plane-surface $-1 -28.856683672272553 14.584668166109644 123.08594164732824 0.73135370988377701 0 0.68199835119979291 0.68199835119979291 0 -0.73135370988377701 forward_v I I I I #
coedge $-1 $167 $168 $169 $170 reversed $66 $-1 #
face $-1 $-1 $171 $36 $-1 $172 forward single #
loop $-1 $173 $174 $68 #
cone-surface $-1 67.63055052103914 14.584668166109644 7.5880123258092915 -0.73135370988377701 0 -0.68199835119979291 0.68199835119979291 0 -0.73135370988377701 1 I I -0.70710678118654746 0.70710678118654746 1 forward I I I I #
loop $-1 $-1 $175 $46 #
coedge $-1 $109 $109 $176 $177 reversed $69 $-1 #
face $-1 $178 $179 $37 $-1 $180 reversed single #
loop $-1 $-1 $181 $71 #
plane-surface $-1 -79.277321695608407 -13.711251288753438 4.0280598740497027 -0.86602541151947299 0 0.49999998660252726 0.49999998660252726 0 0.86602541151947299 forward_v I I I I #
coedge $-1 $182 $183 $184 $185 reversed $72 $-1 #
face $-1 $-1 $186 $38 $-1 $187 forward single #
loop $-1 $188 $189 $74 #
cone-surface $-1 -71.123615601784181 -15.713931423407779 9.4608835005618275 0.86602541151947299 0 -0.49999998660252726 0.24999999330126363 0 0.43301270575973649 1 I I -0.70710678118654746 0.70710678118654746 0.5 forward I I I I #
loop $-1 $-1 $190 $48 #
coedge $-1 $118 $118 $191 $192 reversed $75 $-1 #
face $-1 $-1 $193 $39 $-1 $194 forward single #
loop $-1 $195 $196 $77 #
cone-surface $-1 -71.123615601784181 -11.708571154099111 9.4608835005618275 0.86602541151947299 0 -0.49999998660252726 0.24999999330126363 0 0.43301270575973649 1 I I -0.70710678118654746 0.70710678118654746 0.5 forward I I I I #
loop $-1 $-1 $197 $49 #
coedge $-1 $123 $123 $198 $199 reversed $78 $-1 #
face $-1 $200 $201 $30 $-1 $202 reversed single #
loop $-1 $-1 $203 $80 #
plane-surface $-1 0 -49.61564657967407 0 0 1 0 0 0 1 forward_v I I I I #
coedge $-1 $204 $205 $206 $207 forward $81 $-1 #
coedge $-1 $208 $83 $209 $210 forward $51 $-1 #
coedge $-1 $83 $208 $211 $212 forward $51 $-1 #
coedge $-1 $213 $214 $83 $131 reversed $215 $-1 #
edge $-1 $216 -49.61564657967407 $217 49.61564657967407 $130 $218 forward 7 unknown #
face $-1 $219 $220 $31 $-1 $221 reversed single #
loop $-1 $-1 $222 $84 #
plane-surface $-1 0 -56.683991401799815 4.466644529084741 0 0 1 1 0 0 forward_v I I I I #
coedge $-1 $223 $224 $137 $225 forward $85 $-1 #
coedge $-1 $226 $87 $227 $228 reversed $54 $-1 #
coedge $-1 $87 $226 $135 $225 reversed $54 $-1 #
coedge $-1 $229 $222 $87 $139 reversed $133 $-1 #
edge $-1 $230 -79.277321695608379 $231 79.277321695608379 $138 $232 forward 7 unknown #
face $-1 $233 $234 $32 $-1 $235 reversed single #
loop $-1 $-1 $236 $88 #
plane-surface $-1 0 60.127971260172266 -12.815159875728654 0 0 1 1 0 0 forward_v I I I I #
coedge $-1 $237 $238 $145 $239 forward $89 $-1 #
coedge $-1 $240 $91 $241 $242 reversed $57 $-1 #
coedge $-1 $91 $240 $143 $239 reversed $57 $-1 #
coedge $-1 $236 $243 $91 $147 reversed $141 $-1 #
edge $-1 $244 -79.277321695608379 $245 79.277321695608379 $146 $246 forward 7 unknown #
face $-1 $247 $248 $33 $-1 $249 forward single #
loop $-1 $-1 $250 $92 #
plane-surface $-1 87.102842991193114 -24.314897973035084 231.21994701520921 0 1 0 0.73135370988377701 0 0.68199835119979291 forward_v I I I I #
coedge $-1 $251 $252 $253 $254 reversed $93 $-1 #
coedge $-1 $153 $95 $255 $256 reversed $60 $-1 #
coedge $-1 $95 $152 $251 $257 reversed $60 $-1 #
coedge $-1 $253 $258 $95 $155 forward $248 $-1 #
edge $-1 $259 -35.725900200011822 $260 -24.431094081432846 $154 $261 forward 7 unknown #
loop $-1 $-1 $161 $96 #
plane-surface $-1 -28.856683672272553 -17.450308910940485 123.08594164732824 0.73135370988377701 0 0.68199835119979291 0.68199835119979291 0 -0.73135370988377701 forward_v I I I I #
loop $-1 $-1 $262 $62 #
coedge $-1 $159 $159 $160 $263 reversed $97 $-1 #
coedge $-1 $160 $160 $159 $263 forward $99 $-1 #
coedge $-1 $161 $161 $100 $162 forward $156 $-1 #
edge $-1 $264 0 $264 6.2831853071796004 $161 $265 forward 7 unknown #
face $-1 $266 $267 $35 $-1 $268 reversed single #
loop $-1 $-1 $269 $101 #
plane-surface $-1 87.102842991193114 7.7200791040150456 231.21994701520921 0 1 0 0.73135370988377701 0 0.68199835119979291 forward_v I I I I #
coedge $-1 $270 $271 $272 $273 reversed $102 $-1 #
coedge $-1 $168 $104 $274 $275 reversed $66 $-1 #
coedge $-1 $104 $167 $270 $276 reversed $66 $-1 #
coedge $-1 $272 $277 $104 $170 forward $278 $-1 #
edge $-1 $279 -35.725900200011822 $280 -24.431094081432846 $169 $281 forward 7 unknown #
loop $-1 $-1 $176 $105 #
plane-surface $-1 -28.856683672272553 14.584668166109644 123.08594164732824 0.73135370988377701 0 0.68199835119979291 0.68199835119979291 0 -0.73135370988377701 forward_v I I I I #
loop $-1 $-1 $282 $68 #
coedge $-1 $174 $174 $175 $283 reversed $106 $-1 #
coedge $-1 $175 $175 $174 $283 forward $108 $-1 #
coedge $-1 $176 $176 $109 $177 forward $171 $-1 #
edge $-1 $284 0 $284 6.2831853071796004 $176 $285 forward 7 unknown #
face $-1 $286 $287 $37 $-1 $288 reversed single #
loop $-1 $-1 $289 $110 #
plane-surface $-1 -216.58967198681017 -9.0383309745599938 83.305379445426567 0 -1 0 0.86602541151947299 0 -0.49999998660252726 forward_v I I I I #
coedge $-1 $290 $291 $292 $293 reversed $111 $-1 #
coedge $-1 $183 $113 $294 $295 reversed $72 $-1 #
coedge $-1 $113 $182 $290 $296 reversed $72 $-1 #
coedge $-1 $292 $297 $113 $185 forward $298 $-1 #
edge $-1 $299 29.017514297796708 $300 37.799330317024314 $184 $301 forward 7 unknown #
loop $-1 $-1 $191 $114 #
plane-surface $-1 -79.277321695608407 -13.711251288753438 4.0280598740497027 -0.86602541151947299 0 0.49999998660252726 0.49999998660252726 0 0.86602541151947299 forward_v I I I I #
loop $-1 $-1 $302 $74 #
coedge $-1 $189 $189 $190 $303 reversed $115 $-1 #
coedge $-1 $190 $190 $189 $303 forward $117 $-1 #
coedge $-1 $191 $191 $118 $192 forward $186 $-1 #
edge $-1 $304 0 $304 6.2831853071796004 $191 $305 forward 7 unknown #
loop $-1 $-1 $198 $119 #
plane-surface $-1 -79.277321695608407 -13.711251288753438 4.0280598740497027 -0.86602541151947299 0 0.49999998660252726 0.49999998660252726 0 0.86602541151947299 forward_v I I I I #
loop $-1 $-1 $306 $77 #
coedge $-1 $196 $196 $197 $307 reversed $120 $-1 #
coedge $-1 $197 $197 $196 $307 forward $122 $-1 #
coedge $-1 $198 $198 $123 $199 forward $193 $-1 #
edge $-1 $308 0 $308 6.2831853071796004 $198 $309 forward 7 unknown #
face $-1 $310 $311 $30 $-1 $312 reversed single #
loop $-1 $-1 $313 $124 #
plane-surface $-1 -79.277321695608379 0 0 1 0 0 0 0 -1 forward_v I I I I #
coedge $-1 $314 $211 $315 $316 forward $125 $-1 #
coedge $-1 $317 $127 $314 $318 forward $81 $-1 #
coedge $-1 $127 $317 $319 $320 forward $81 $-1 #
coedge $-1 $214 $213 $127 $207 reversed $215 $-1 #
edge $-1 $321 -49.61564657967407 $322 49.61564657967407 $206 $323 forward 7 unknown #
coedge $-1 $129 $128 $324 $325 forward $51 $-1 #
coedge $-1 $326 $327 $128 $210 reversed $311 $-1 #
edge $-1 $217 -79.277321695608379 $328 79.277321695608379 $209 $329 forward 7 unknown #
coedge $-1 $203 $330 $129 $212 reversed $125 $-1 #
edge $-1 $331 -79.277321695608379 $216 79.277321695608379 $211 $332 forward 7 unknown #
coedge $-1 $206 $130 $330 $333 forward $215 $-1 #
coedge $-1 $130 $206 $326 $334 reversed $215 $-1 #
loop $-1 $-1 $213 $310 #
vertex $-1 $131 $335 #
vertex $-1 $131 $336 #
straight-curve $-1 79.277321695608379 0 19.238611945495432 0 1 0 I I #
face $-1 $337 $338 $31 $-1 $339 reversed single #
loop $-1 $-1 $340 $132 #
plane-surface $-1 0 -56.683991401799815 -4.6432054792748279 0 0 1 1 0 0 forward_v I I I I #
coedge $-1 $138 $341 $342 $343 forward $133 $-1 #
coedge $-1 $344 $135 $345 $346 reversed $85 $-1 #
coedge $-1 $135 $344 $229 $347 reversed $85 $-1 #
edge $-1 $230 -4.466644529084741 $348 4.6432054792748279 $135 $349 forward 7 unknown #
coedge $-1 $137 $136 $350 $351 forward $54 $-1 #
coedge $-1 $342 $352 $136 $228 forward $353 $-1 #
edge $-1 $354 -4.6432054792748279 $231 4.466644529084741 $227 $355 forward 7 unknown #
coedge $-1 $341 $138 $224 $347 forward $133 $-1 #
vertex $-1 $225 $356 #
vertex $-1 $343 $357 #
straight-curve $-1 0 -49.61564657967407 4.466644529084741 1 0 0 I I #
face $-1 $358 $359 $32 $-1 $360 reversed single #
loop $-1 $-1 $361 $140 #
plane-surface $-1 0 60.127971260172266 -17.595250677237992 0 0 1 1 0 0 forward_v I I I I #
coedge $-1 $362 $146 $238 $363 forward $141 $-1 #
coedge $-1 $364 $143 $361 $365 reversed $89 $-1 #
coedge $-1 $143 $364 $236 $363 reversed $89 $-1 #
edge $-1 $244 12.815159875728654 $366 17.595250677237992 $143 $367 forward 7 unknown #
coedge $-1 $145 $144 $368 $369 forward $57 $-1 #
coedge $-1 $370 $371 $144 $242 forward $372 $-1 #
edge $-1 $373 -17.595250677237992 $245 -12.815159875728654 $241 $374 forward 7 unknown #
coedge $-1 $146 $362 $370 $375 forward $141 $-1 #
vertex $-1 $239 $376 #
vertex $-1 $375 $377 #
straight-curve $-1 0 49.61564657967407 -12.815159875728654 -1 0 0 I I #
face $-1 $-1 $378 $33 $-1 $379 reversed single #
loop $-1 $-1 $154 $148 #
plane-surface $-1 0 0 19.238611945495432 0 0 1 1 0 0 forward_v I I I I #
coedge $-1 $380 $381 $382 $383 reversed $149 $-1 #
coedge $-1 $384 $151 $153 $257 forward $93 $-1 #
coedge $-1 $151 $384 $380 $385 forward $93 $-1 #
coedge $-1 $382 $154 $151 $254 forward $248 $-1 #
edge $-1 $260 1.8605653933756443 $386 15.589743517564841 $253 $387 forward 7 unknown #
coedge $-1 $388 $389 $152 $256 forward $378 $-1 #
edge $-1 $390 -108.48355852374199 $259 -96.371361562109172 $255 $391 forward 7 unknown #
edge $-1 $260 141.99330405849133 $390 158.5546433912167 $153 $392 forward 7 unknown #
coedge $-1 $154 $382 $388 $393 forward $248 $-1 #
vertex $-1 $256 $394 #
vertex $-1 $155 $395 #
straight-curve $-1 43.551421495596557 -10.585719848845887 19.238611945495435 -1 0 0 I I #
coedge $-1 $262 $262 $-1 $396 reversed $158 $-1 #
edge $-1 $397 0 $397 6.2831853071796004 $159 $398 forward 7 unknown #
vertex $-1 $162 $399 #
ellipse-curve $-1 73.629918636318891 -17.450308910940493 13.182513464679037 0.73135370988377701 0 0.68199835119979291 1.3639967023995858 0 -1.462707419767554 1 I I #
face $-1 $-1 $278 $35 $-1 $400 forward single #
loop $-1 $-1 $401 $163 #
plane-surface $-1 79.277321695608379 0 0 -1 0 0 0 0 1 forward_v I I I I #
coedge $-1 $402 $403 $404 $405 reversed $164 $-1 #
coedge $-1 $406 $166 $168 $276 forward $102 $-1 #
coedge $-1 $166 $406 $402 $407 forward $102 $-1 #
coedge $-1 $404 $169 $166 $273 forward $278 $-1 #
edge $-1 $280 -14.15692314514942 $408 -0.4277450209602236 $272 $409 forward 7 unknown #
coedge $-1 $410 $411 $167 $275 forward $267 $-1 #
edge $-1 $412 -108.48355852374199 $279 -96.371361562109172 $274 $413 forward 7 unknown #
edge $-1 $280 141.99330405849133 $412 158.5546433912167 $168 $414 forward 7 unknown #
coedge $-1 $169 $404 $410 $415 forward $278 $-1 #
loop $-1 $-1 $404 $266 #
vertex $-1 $275 $416 #
vertex $-1 $170 $417 #
straight-curve $-1 43.551421495596557 21.449257228204242 19.238611945495435 -1 0 0 I I #
coedge $-1 $282 $282 $-1 $418 reversed $173 $-1 #
edge $-1 $419 0 $419 6.2831853071796004 $174 $420 forward 7 unknown #
vertex $-1 $177 $421 #
ellipse-curve $-1 73.629918636318891 14.584668166109644 13.182513464679037 0.73135370988377701 0 0.68199835119979291 1.3639967023995858 0 -1.462707419767554 1 I I #
face $-1 $-1 $298 $37 $-1 $422 forward single #
loop $-1 $-1 $423 $178 #
plane-surface $-1 -79.277321695608379 0 0 1 0 0 0 0 -1 forward_v I I I I #
coedge $-1 $424 $425 $426 $427 reversed $179 $-1 #
coedge $-1 $428 $181 $183 $296 forward $111 $-1 #
coedge $-1 $181 $428 $424 $429 forward $111 $-1 #
coedge $-1 $426 $184 $181 $293 forward $298 $-1 #
edge $-1 $300 -11.528545958570163 $430 -2.1827053301832748 $292 $431 forward 7 unknown #
coedge $-1 $432 $433 $182 $295 forward $287 $-1 #
edge $-1 $434 -37.624629848663531 $299 -22.414077777217852 $294 $435 forward 7 unknown #
edge $-1 $300 -17.563632509071837 $434 -5.6516033812716314e-014 $183 $436 forward 7 unknown #
coedge $-1 $184 $426 $432 $437 forward $298 $-1 #
loop $-1 $-1 $426 $286 #
vertex $-1 $295 $438 #
vertex $-1 $185 $439 #
straight-curve $-1 -108.29483599340509 -18.384171602946882 19.238611945495435 1 0 0 I I #
coedge $-1 $302 $302 $-1 $440 reversed $188 $-1 #
edge $-1 $441 0 $441 6.2831853071796004 $189 $442 forward 7 unknown #
vertex $-1 $192 $443 #
ellipse-curve $-1 -74.886413685994583 -15.713931423407779 11.633335909772581 -0.86602541151947299 0 0.49999998660252726 0.49999998660252726 0 0.86602541151947299 1 I I #
coedge $-1 $306 $306 $-1 $444 reversed $195 $-1 #
edge $-1 $445 0 $445 6.2831853071796004 $196 $446 forward 7 unknown #
vertex $-1 $199 $447 #
ellipse-curve $-1 -74.886413685994583 -11.708571154099111 11.633335909772581 -0.86602541151947299 0 0.49999998660252726 0.49999998660252726 0 0.86602541151947299 1 I I #
face $-1 $-1 $215 $30 $-1 $448 reversed single #
loop $-1 $-1 $326 $200 #
plane-surface $-1 0 49.61564657967407 0 0 -1 0 0 0 -1 forward_v I I I I #
coedge $-1 $449 $324 $327 $450 forward $201 $-1 #
coedge $-1 $330 $203 $204 $318 reversed $125 $-1 #
coedge $-1 $324 $449 $203 $316 reversed $201 $-1 #
edge $-1 $331 -19.238611945495432 $451 19.238611945495432 $315 $452 forward 7 unknown #
coedge $-1 $205 $204 $449 $453 forward $81 $-1 #
edge $-1 $322 -79.277321695608379 $451 79.277321695608379 $314 $454 forward 7 unknown #
coedge $-1 $327 $326 $205 $320 reversed $311 $-1 #
edge $-1 $455 -79.277321695608379 $321 79.277321695608379 $319 $456 forward 7 unknown #
vertex $-1 $207 $457 #
vertex $-1 $333 $458 #
straight-curve $-1 79.277321695608379 0 -19.238611945495432 0 -1 0 I I #
coedge $-1 $313 $315 $208 $325 reversed $201 $-1 #
edge $-1 $328 -49.61564657967407 $331 49.61564657967407 $324 $459 forward 7 unknown #
coedge $-1 $319 $209 $214 $334 forward $311 $-1 #
coedge $-1 $209 $319 $313 $450 reversed $311 $-1 #
vertex $-1 $210 $460 #
straight-curve $-1 0 49.61564657967407 19.238611945495432 -1 0 0 I I #
coedge $-1 $211 $314 $213 $333 reversed $125 $-1 #
vertex $-1 $325 $461 #
straight-curve $-1 0 -49.61564657967407 19.238611945495432 1 0 0 I I #
edge $-1 $216 -19.238611945495432 $322 19.238611945495432 $213 $462 forward 7 unknown #
edge $-1 $217 -19.238611945495432 $321 19.238611945495432 $214 $463 forward 7 unknown #
point $-1 79.277321695608379 -49.61564657967407 19.238611945495432 #
point $-1 79.277321695608379 49.61564657967407 19.238611945495432 #
face $-1 $-1 $353 $31 $-1 $464 reversed single #
loop $-1 $-1 $465 $219 #
plane-surface $-1 0 -63.75233622392556 -0.088280475095043442 0 1 0 0 0 1 forward_v I I I I #
coedge $-1 $466 $350 $352 $467 forward $220 $-1 #
coedge $-1 $222 $229 $468 $469 forward $133 $-1 #
coedge $-1 $470 $227 $222 $343 reversed $353 $-1 #
edge $-1 $471 -7.068344822125745 $231 7.068344822125745 $342 $472 forward 7 unknown #
coedge $-1 $224 $223 $465 $473 reversed $85 $-1 #
coedge $-1 $350 $466 $223 $346 forward $220 $-1 #
edge $-1 $474 -7.068344822125745 $348 7.068344822125745 $223 $475 forward 7 unknown #
edge $-1 $230 -7.068344822125745 $476 7.068344822125745 $224 $477 forward 7 unknown #
vertex $-1 $225 $478 #
straight-curve $-1 -79.277321695608379 -49.61564657967407 0 0 0 -1 I I #
coedge $-1 $340 $345 $226 $351 reversed $220 $-1 #
edge $-1 $354 -79.277321695608379 $348 79.277321695608379 $350 $479 forward 7 unknown #
coedge $-1 $227 $470 $340 $467 reversed $353 $-1 #
loop $-1 $-1 $227 $337 #
vertex $-1 $228 $480 #
straight-curve $-1 79.277321695608379 -49.61564657967407 0 0 0 1 I I #
point $-1 -79.277321695608379 -49.61564657967407 4.466644529084741 #
point $-1 79.277321695608379 -49.61564657967407 4.466644529084741 #
face $-1 $-1 $372 $32 $-1 $481 reversed single #
loop $-1 $-1 $482 $233 #
plane-surface $-1 0 70.640295940670455 -15.205205276483323 0 -1 0 0 0 -1 forward_v I I I I #
coedge $-1 $368 $483 $237 $365 forward $234 $-1 #
coedge $-1 $243 $236 $484 $485 forward $141 $-1 #
edge $-1 $244 -10.512324680498189 $486 10.512324680498189 $238 $487 forward 7 unknown #
coedge $-1 $238 $237 $482 $488 reversed $89 $-1 #
edge $-1 $489 -10.512324680498189 $366 10.512324680498189 $237 $490 forward 7 unknown #
vertex $-1 $239 $491 #
straight-curve $-1 79.277321695608379 49.61564657967407 0 0 0 -1 I I #
coedge $-1 $492 $361 $240 $369 reversed $234 $-1 #
edge $-1 $373 -79.277321695608379 $366 79.277321695608379 $368 $493 forward 7 unknown #
coedge $-1 $494 $241 $243 $375 reversed $372 $-1 #
coedge $-1 $241 $494 $492 $495 reversed $372 $-1 #
loop $-1 $-1 $241 $358 #
vertex $-1 $242 $496 #
straight-curve $-1 -79.277321695608379 49.61564657967407 0 0 0 1 I I #
edge $-1 $497 -10.512324680498189 $245 10.512324680498189 $370 $498 forward 7 unknown #
point $-1 79.277321695608379 49.615646579674078 -12.815159875728654 #
point $-1 -79.277321695608379 49.615646579674078 -12.815159875728654 #
loop $-1 $-1 $255 $247 #
plane-surface $-1 79.277321695608379 0 0 -1 0 0 0 0 1 forward_v I I I I #
coedge $-1 $381 $250 $252 $385 reversed $149 $-1 #
coedge $-1 $250 $380 $499 $500 reversed $149 $-1 #
coedge $-1 $258 $253 $250 $383 forward $248 $-1 #
edge $-1 $386 24.431094081432846 $501 35.725900200011822 $382 $502 forward 7 unknown #
coedge $-1 $252 $251 $389 $503 reversed $93 $-1 #
edge $-1 $504 -158.5546433912167 $386 -141.99330405849133 $380 $505 forward 7 unknown #
vertex $-1 $254 $506 #
straight-curve $-1 67.982515577029389 -8.7251544554702427 19.238611945495435 0 -1 0 I I #
coedge $-1 $499 $255 $258 $393 reversed $378 $-1 #
coedge $-1 $255 $499 $384 $503 forward $378 $-1 #
vertex $-1 $256 $507 #
straight-curve $-1 79.277321695608379 -10.585719848845887 115.60997350760461 0 0 1 I I #
straight-curve $-1 -28.856683672272553 -10.585719848845887 123.08594164732824 0.68199835119979291 0 -0.73135370988377701 I I #
edge $-1 $501 -24.314897973035084 $259 -10.585719848845887 $388 $508 forward 7 unknown #
point $-1 79.277321695608379 -10.585719848845887 19.238611945495432 #
point $-1 67.982515577029403 -10.585719848845887 19.238611945495435 #
edge $-1 $509 1 $509 0 $262 $-1 forward 7 unknown #
vertex $-1 $263 $510 #
ellipse-curve $-1 68.361904230922917 -17.450308910940493 8.2700106770090844 0.73135370988377701 0 0.68199835119979291 1.3639967023995858 0 -1.462707419767554 1 I I #
point $-1 74.993915338718438 -17.450308910940493 11.719806044911437 #
plane-surface $-1 0 0 19.238611945495432 0 0 1 1 0 0 forward_v I I I I #
coedge $-1 $411 $410 $403 $511 forward $267 $-1 #
coedge $-1 $403 $269 $271 $407 reversed $164 $-1 #
coedge $-1 $269 $402 $401 $511 reversed $164 $-1 #
coedge $-1 $277 $272 $269 $405 forward $278 $-1 #
edge $-1 $408 24.431094081432846 $512 35.725900200011822 $404 $513 forward 7 unknown #
coedge $-1 $271 $270 $411 $514 reversed $102 $-1 #
edge $-1 $515 -158.5546433912167 $408 -141.99330405849133 $402 $516 forward 7 unknown #
vertex $-1 $273 $517 #
straight-curve $-1 67.982515577029389 7.292334083054822 19.238611945495435 0 -1 0 I I #
coedge $-1 $401 $274 $277 $415 reversed $267 $-1 #
coedge $-1 $274 $401 $406 $514 forward $267 $-1 #
vertex $-1 $275 $518 #
straight-curve $-1 79.277321695608379 21.449257228204242 115.60997350760461 0 0 1 I I #
straight-curve $-1 -28.856683672272553 21.449257228204242 123.08594164732824 0.68199835119979291 0 -0.73135370988377701 I I #
edge $-1 $512 7.7200791040150456 $279 21.449257228204242 $410 $519 forward 7 unknown #
point $-1 79.277321695608379 21.449257228204242 19.238611945495432 #
point $-1 67.982515577029403 21.449257228204242 19.238611945495435 #
edge $-1 $520 1 $520 0 $282 $-1 forward 7 unknown #
vertex $-1 $283 $521 #
ellipse-curve $-1 68.361904230922917 14.584668166109644 8.2700106770090844 0.73135370988377701 0 0.68199835119979291 1.3639967023995858 0 -1.462707419767554 1 I I #
point $-1 74.993915338718438 14.584668166109644 11.719806044911437 #
plane-surface $-1 0 0 19.238611945495432 0 0 1 1 0 0 forward_v I I I I #
coedge $-1 $433 $432 $425 $522 forward $287 $-1 #
coedge $-1 $425 $289 $291 $429 reversed $179 $-1 #
coedge $-1 $289 $424 $423 $522 reversed $179 $-1 #
coedge $-1 $297 $292 $289 $427 forward $298 $-1 #
edge $-1 $430 -37.799330317024314 $523 -29.017514297796708 $426 $524 forward 7 unknown #
coedge $-1 $291 $290 $433 $525 reversed $111 $-1 #
edge $-1 $526 5.6516033812716314e-014 $430 17.563632509071837 $424 $527 forward 7 unknown #
vertex $-1 $293 $528 #
straight-curve $-1 -70.495505676380773 -6.855625644376719 19.238611945495432 0 1 0 I I #
coedge $-1 $423 $294 $297 $437 reversed $287 $-1 #
coedge $-1 $294 $423 $428 $525 forward $287 $-1 #
vertex $-1 $295 $529 #
straight-curve $-1 -79.277321695608379 -18.384171602946882 41.652689722713284 0 0 1 I I #
straight-curve $-1 -79.277321695608407 -18.384171602946882 4.0280598740497027 -0.49999998660252726 0 -0.86602541151947299 I I #
edge $-1 $523 9.0383309745599938 $299 18.384171602946882 $432 $530 forward 7 unknown #
point $-1 -79.277321695608379 -18.384171602946882 19.238611945495432 #
point $-1 -70.495505676380773 -18.384171602946882 19.238611945495432 #
edge $-1 $531 1 $531 0 $302 $-1 forward 7 unknown #
vertex $-1 $303 $532 #
ellipse-curve $-1 -71.556628307543917 -15.713931423407779 9.7108834938630917 -0.86602541151947299 0 0.49999998660252726 0.49999998660252726 0 0.86602541151947299 1 I I #
point $-1 -74.386413699392037 -15.713931423407779 12.499361321292046 #
edge $-1 $533 1 $533 0 $306 $-1 forward 7 unknown #
vertex $-1 $307 $534 #
ellipse-curve $-1 -71.556628307543917 -11.708571154099111 9.7108834938630917 -0.86602541151947299 0 0.49999998660252726 0.49999998660252726 0 0.86602541151947299 1 I I #
point $-1 -74.386413699392037 -11.708571154099111 12.499361321292046 #
plane-surface $-1 79.277321695608379 0 0 -1 0 0 0 0 1 forward_v I I I I #
coedge $-1 $315 $313 $317 $453 reversed $201 $-1 #
edge $-1 $328 -19.238611945495432 $455 19.238611945495432 $327 $535 forward 7 unknown #
vertex $-1 $453 $536 #
straight-curve $-1 -79.277321695608379 -49.61564657967407 0 0 0 -1 I I #
edge $-1 $451 -49.61564657967407 $455 49.61564657967407 $449 $537 forward 7 unknown #
straight-curve $-1 0 -49.61564657967407 -19.238611945495432 -1 0 0 I I #
vertex $-1 $320 $538 #
straight-curve $-1 0 49.61564657967407 -19.238611945495432 1 0 0 I I #
point $-1 79.277321695608379 49.61564657967407 -19.238611945495432 #
point $-1 79.277321695608379 -49.61564657967407 -19.238611945495432 #
straight-curve $-1 -79.277321695608379 0 19.238611945495432 0 -1 0 I I #
point $-1 -79.277321695608379 49.61564657967407 19.238611945495432 #
point $-1 -79.277321695608379 -49.61564657967407 19.238611945495432 #
straight-curve $-1 79.277321695608379 -49.61564657967407 0 0 0 -1 I I #
straight-curve $-1 79.277321695608379 49.61564657967407 0 0 0 -1 I I #
plane-surface $-1 79.277321695608379 0 0 -1 0 0 0 0 1 forward_v I I I I #
coedge $-1 $539 $468 $344 $473 forward $338 $-1 #
coedge $-1 $345 $340 $539 $540 forward $220 $-1 #
edge $-1 $354 -7.068344822125745 $541 7.068344822125745 $352 $542 forward 7 unknown #
coedge $-1 $465 $543 $341 $469 reversed $338 $-1 #
edge $-1 $476 -79.277321695608379 $471 79.277321695608379 $468 $544 forward 7 unknown #
coedge $-1 $352 $342 $543 $545 forward $353 $-1 #
vertex $-1 $343 $546 #
straight-curve $-1 79.277321695608379 -56.683991401799815 4.466644529084741 0 1 0 I I #
edge $-1 $476 -4.5549250041797844 $474 4.5549250041797844 $344 $547 forward 7 unknown #
vertex $-1 $346 $548 #
straight-curve $-1 -79.277321695608379 -56.683991401799815 -4.6432054792748279 0 1 0 I I #
vertex $-1 $347 $549 #
straight-curve $-1 -79.277321695608379 -56.683991401799815 4.466644529084741 0 -1 0 I I #
point $-1 -79.277321695608379 -49.61564657967407 -4.6432054792748279 #
straight-curve $-1 0 -49.61564657967407 -4.6432054792748279 -1 0 0 I I #
point $-1 79.277321695608379 -49.61564657967407 -4.6432054792748279 #
plane-surface $-1 -79.277321695608379 0 0 1 0 0 0 0 -1 forward_v I I I I #
coedge $-1 $550 $484 $364 $488 forward $359 $-1 #
coedge $-1 $361 $492 $550 $551 forward $234 $-1 #
coedge $-1 $482 $552 $362 $485 reversed $359 $-1 #
edge $-1 $486 -79.277321695608379 $497 79.277321695608379 $484 $553 forward 7 unknown #
vertex $-1 $363 $554 #
straight-curve $-1 79.277321695608379 60.127971260172266 -12.815159875728654 0 1 0 I I #
edge $-1 $486 -2.3900454007546692 $489 2.3900454007546692 $364 $555 forward 7 unknown #
vertex $-1 $365 $556 #
straight-curve $-1 79.277321695608379 60.127971260172266 -17.595250677237992 0 -1 0 I I #
point $-1 79.277321695608379 49.615646579674078 -17.595250677237992 #
coedge $-1 $483 $368 $371 $495 forward $234 $-1 #
straight-curve $-1 0 49.61564657967407 -17.595250677237992 1 0 0 I I #
coedge $-1 $371 $370 $552 $557 forward $372 $-1 #
edge $-1 $373 -10.512324680498189 $558 10.512324680498189 $371 $559 forward 7 unknown #
point $-1 -79.277321695608379 49.615646579674078 -17.595250677237992 #
vertex $-1 $485 $560 #
straight-curve $-1 -79.277321695608379 60.127971260172266 -12.815159875728654 0 -1 0 I I #
coedge $-1 $389 $388 $381 $500 forward $378 $-1 #
edge $-1 $501 96.371361562109172 $504 108.48355852374199 $499 $561 forward 7 unknown #
vertex $-1 $393 $562 #
straight-curve $-1 43.551421495596557 -24.314897973035084 19.238611945495435 1 0 0 I I #
edge $-1 $504 -15.589743517564841 $390 -1.8605653933756443 $389 $563 forward 7 unknown #
vertex $-1 $503 $564 #
straight-curve $-1 -28.856683672272553 -24.314897973035084 123.08594164732824 -0.68199835119979291 0 0.73135370988377701 I I #
point $-1 67.982515577029403 -24.314897973035084 19.238611945495435 #
point $-1 79.277321695608379 -10.585719848845887 7.1264149838626167 #
straight-curve $-1 79.277321695608379 0 19.238611945495432 0 1 0 I I #
vertex $-1 $396 $565 #
point $-1 69.725900933322507 -17.450308910940493 6.8073032572415304 #
edge $-1 $512 96.371361562109172 $515 108.48355852374199 $401 $566 forward 7 unknown #
vertex $-1 $415 $567 #
straight-curve $-1 43.551421495596557 7.7200791040150456 19.238611945495435 1 0 0 I I #
edge $-1 $515 0.4277450209602236 $412 14.15692314514942 $411 $568 forward 7 unknown #
vertex $-1 $514 $569 #
straight-curve $-1 -28.856683672272553 7.7200791040150456 123.08594164732824 -0.68199835119979291 0 0.73135370988377701 I I #
point $-1 67.982515577029403 7.7200791040150456 19.238611945495435 #
point $-1 79.277321695608379 21.449257228204242 7.1264149838626167 #
straight-curve $-1 79.277321695608379 0 19.238611945495432 0 1 0 I I #
vertex $-1 $418 $570 #
point $-1 69.725900933322507 14.584668166109644 6.8073032572415304 #
edge $-1 $523 22.414077777217852 $526 37.624629848663531 $423 $571 forward 7 unknown #
vertex $-1 $437 $572 #
straight-curve $-1 -108.29483599340509 -9.0383309745599938 19.238611945495435 -1 0 0 I I #
edge $-1 $526 2.1827053301832748 $434 11.528545958570163 $433 $573 forward 7 unknown #
vertex $-1 $525 $574 #
straight-curve $-1 -79.277321695608407 -9.0383309745599938 4.0280598740497027 0.49999998660252726 0 0.86602541151947299 I I #
point $-1 -70.495505676380773 -9.0383309745599938 19.238611945495432 #
point $-1 -79.277321695608379 -18.384171602946882 4.0280598740497515 #
straight-curve $-1 -79.277321695608379 0 19.238611945495432 0 -1 0 I I #
vertex $-1 $440 $575 #
point $-1 -71.056628320941385 -15.713931423407779 10.576908905382563 #
vertex $-1 $444 $576 #
point $-1 -71.056628320941385 -11.708571154099111 10.576908905382563 #
straight-curve $-1 -79.277321695608379 49.61564657967407 0 0 0 -1 I I #
point $-1 -79.277321695608379 -49.61564657967407 -19.238611945495432 #
straight-curve $-1 -79.277321695608379 0 -19.238611945495432 0 1 0 I I #
point $-1 -79.277321695608379 49.61564657967407 -19.238611945495432 #
coedge $-1 $543 $465 $466 $540 reversed $338 $-1 #
edge $-1 $541 -79.277321695608379 $474 79.277321695608379 $539 $577 forward 7 unknown #
vertex $-1 $545 $578 #
straight-curve $-1 79.277321695608379 -56.683991401799815 -4.6432054792748279 0 -1 0 I I #
coedge $-1 $468 $539 $470 $545 reversed $338 $-1 #
straight-curve $-1 0 -63.75233622392556 4.466644529084741 1 0 0 I I #
edge $-1 $471 -4.5549250041797844 $541 4.5549250041797844 $470 $579 forward 7 unknown #
point $-1 79.277321695608379 -63.75233622392556 4.466644529084741 #
straight-curve $-1 -79.277321695608379 -63.75233622392556 -0.088280475095043442 0 0 -1 I I #
point $-1 -79.277321695608379 -63.75233622392556 -4.6432054792748279 #
point $-1 -79.277321695608379 -63.75233622392556 4.466644529084741 #
coedge $-1 $552 $482 $483 $551 reversed $359 $-1 #
edge $-1 $558 -79.277321695608379 $489 79.277321695608379 $550 $580 forward 7 unknown #
coedge $-1 $484 $550 $494 $557 reversed $359 $-1 #
straight-curve $-1 0 70.640295940670455 -12.815159875728654 -1 0 0 I I #
point $-1 79.277321695608379 70.640295940670455 -12.815159875728654 #
straight-curve $-1 79.277321695608379 70.640295940670455 -15.205205276483323 0 0 -1 I I #
point $-1 79.277321695608379 70.640295940670455 -17.595250677237992 #
edge $-1 $497 -2.3900454007546692 $558 2.3900454007546692 $552 $581 forward 7 unknown #
vertex $-1 $551 $582 #
straight-curve $-1 -79.277321695608379 60.127971260172266 -17.595250677237992 0 1 0 I I #
point $-1 -79.277321695608379 70.640295940670455 -12.815159875728654 #
straight-curve $-1 79.277321695608379 -24.314897973035084 115.60997350760461 0 0 -1 I I #
point $-1 79.277321695608379 -24.314897973035084 19.238611945495432 #
straight-curve $-1 79.277321695608379 -8.7251544554702427 7.1264149838626238 0 1 0 I I #
point $-1 79.277321695608379 -24.314897973035084 7.1264149838626167 #
point $-1 66.899196811155363 -17.450308910940493 6.9060139746094986 #
straight-curve $-1 79.277321695608379 7.7200791040150456 115.60997350760461 0 0 -1 I I #
point $-1 79.277321695608379 7.7200791040150456 19.238611945495432 #
straight-curve $-1 79.277321695608379 7.292334083054822 7.1264149838626238 0 1 0 I I #
point $-1 79.277321695608379 7.7200791040150456 7.1264149838626167 #
point $-1 66.899196811155363 14.584668166109644 6.9060139746094986 #
straight-curve $-1 -79.277321695608379 -9.0383309745599938 41.652689722713284 0 0 -1 I I #
point $-1 -79.277321695608379 -9.0383309745599938 19.238611945495432 #
straight-curve $-1 -79.277321695608379 -6.855625644376719 4.0280598740497435 0 -1 0 I I #
point $-1 -79.277321695608379 -9.0383309745599938 4.0280598740497515 #
point $-1 -70.690602896024444 -15.713931423407779 9.2108835072605633 #
point $-1 -70.690602896024444 -11.708571154099111 9.2108835072605633 #
straight-curve $-1 0 -63.75233622392556 -4.6432054792748279 -1 0 0 I I #
point $-1 79.277321695608379 -63.75233622392556 -4.6432054792748279 #
straight-curve $-1 79.277321695608379 -63.75233622392556 -0.088280475095043442 0 0 -1 I I #
straight-curve $-1 0 70.640295940670455 -17.595250677237992 1 0 0 I I #
straight-curve $-1 -79.277321695608379 70.640295940670455 -15.205205276483323 0 0 -1 I I #
point $-1 -79.277321695608379 70.640295940670455 -17.595250677237992 #
End-of-ACIS-data 