500 0 8 0           
7 Unknown 11 ACIS 5.0 NT 24 Fri Mar 26 18:33:22 1999 
-1 9.9999999999999995e-007 1e-010 
body $-1 $8 $-1 $9 #
body $-1 $10 $-1 $11 #
body $-1 $12 $-1 $13 #
body $-1 $14 $-1 $15 #
body $-1 $16 $-1 $17 #
body $-1 $18 $-1 $19 #
body $-1 $20 $-1 $21 #
body $-1 $22 $-1 $23 #
lump $-1 $-1 $24 $0 #
transform $-1 1 0 0 0 1 0 0 0 1 46.472365489669485 23.07435844287328 5.0861894200061295 1 rotate no_reflect no_shear #
lump $-1 $-1 $25 $1 #
transform $-1 1 0 0 0 1 0 0 0 1 46.472365489669485 23.07435844287328 5.0861894200061295 1 rotate no_reflect no_shear #
lump $-1 $-1 $26 $2 #
transform $-1 1 0 0 0 1 0 0 0 1 46.472365489669485 23.07435844287328 5.0861894200061295 1 rotate no_reflect no_shear #
lump $-1 $-1 $27 $3 #
transform $-1 1 0 0 0 1 0 0 0 1 46.472365489669485 23.07435844287328 5.0861894200061295 1 rotate no_reflect no_shear #
lump $-1 $-1 $28 $4 #
transform $-1 1 0 0 0 1 0 0 0 1 46.472365489669485 23.07435844287328 5.0861894200061295 1 rotate no_reflect no_shear #
lump $-1 $-1 $29 $5 #
transform $-1 1 0 0 0 1 0 0 0 1 46.472365489669485 23.07435844287328 5.0861894200061295 1 rotate no_reflect no_shear #
lump $-1 $-1 $30 $6 #
transform $-1 1 0 0 0 1 0 0 0 1 46.472365489669485 23.07435844287328 5.0861894200061295 1 rotate no_reflect no_shear #
lump $-1 $-1 $31 $7 #
transform $-1 1 0 0 0 1 0 0 0 1 46.472365489669485 23.07435844287328 5.0861894200061295 1 rotate no_reflect no_shear #
shell $-1 $-1 $-1 $32 $-1 $8 #
shell $-1 $-1 $-1 $33 $-1 $10 #
shell $-1 $-1 $-1 $34 $-1 $12 #
shell $-1 $-1 $-1 $35 $-1 $14 #
shell $-1 $-1 $-1 $36 $-1 $16 #
shell $-1 $-1 $-1 $37 $-1 $18 #
shell $-1 $-1 $-1 $38 $-1 $20 #
shell $-1 $-1 $-1 $39 $-1 $22 #
face $-1 $40 $41 $24 $-1 $42 forward single #
face $-1 $43 $44 $25 $-1 $45 forward single #
face $-1 $46 $47 $26 $-1 $48 reversed single #
face $-1 $49 $50 $27 $-1 $51 forward single #
face $-1 $52 $53 $28 $-1 $54 forward single #
face $-1 $55 $56 $29 $-1 $57 reversed single #
face $-1 $58 $59 $30 $-1 $60 forward single #
face $-1 $61 $62 $31 $-1 $63 forward single #
face $-1 $64 $65 $24 $-1 $66 reversed single #
loop $-1 $-1 $67 $32 #
plane-surface $-1 0 0 5.0861894200061295 0 0 1 1 0 0 forward_v I I I I #
face $-1 $68 $69 $25 $-1 $70 reversed single #
loop $-1 $-1 $71 $33 #
plane-surface $-1 0 -23.07435844287328 0 0 1 0 0 0 1 forward_v I I I I #
face $-1 $72 $73 $26 $-1 $74 reversed single #
loop $-1 $-1 $75 $34 #
plane-surface $-1 -28.086231521500981 75.889977441784666 89.707985109787927 -1 0 0 0 0.83867057594974714 0.54463902268945019 forward_v I I I I #
face $-1 $76 $77 $27 $-1 $78 forward single #
loop $-1 $79 $80 $35 #
cone-surface $-1 -41.219184355907053 20.162951706344352 1.8356686913697142 0 -0.83867057594974714 -0.54463902268945019 1 0 0 1 I I 0 1 1 forward I I I I #
face $-1 $81 $82 $28 $-1 $83 forward single #
loop $-1 $84 $85 $36 #
cone-surface $-1 -33.339412655263416 20.162951706344352 1.8356686913697142 0 -0.83867057594974714 -0.54463902268945019 1 0 0 1 I I 0 1 1 forward I I I I #
face $-1 $86 $87 $29 $-1 $88 reversed single #
loop $-1 $-1 $89 $37 #
plane-surface $-1 18.386133968168505 75.889977441784666 89.707985109787927 -1 0 0 0 0.83867057594974714 0.54463902268945019 forward_v I I I I #
face $-1 $90 $91 $30 $-1 $92 forward single #
loop $-1 $93 $94 $38 #
cone-surface $-1 5.2531811337624319 20.162951706344352 1.8356686913697142 0 -0.83867057594974714 -0.54463902268945019 1 0 0 1 I I 0 1 1 forward I I I I #
face $-1 $95 $96 $31 $-1 $97 forward single #
loop $-1 $98 $99 $39 #
cone-surface $-1 13.132952834406069 20.162951706344352 1.8356686913697142 0 -0.83867057594974714 -0.54463902268945019 1 0 0 1 I I 0 1 1 forward I I I I #
face $-1 $100 $101 $24 $-1 $102 reversed single #
loop $-1 $-1 $103 $40 #
plane-surface $-1 0 0 -5.0861894200061295 0 0 1 1 0 0 forward_v I I I I #
coedge $-1 $104 $105 $106 $107 forward $41 $-1 #
face $-1 $108 $109 $25 $-1 $110 reversed single #
loop $-1 $-1 $111 $43 #
plane-surface $-1 0 0 -5.0861894200061295 0 0 1 1 0 0 forward_v I I I I #
coedge $-1 $112 $113 $114 $115 forward $44 $-1 #
face $-1 $116 $117 $26 $-1 $118 forward single #
loop $-1 $-1 $119 $46 #
plane-surface $-1 -37.279298505585231 -2.0600336201518559 39.086657665066888 0 0.83867057594974714 0.54463902268945019 1 0 0 forward_v I I I I #
coedge $-1 $120 $121 $122 $123 reversed $47 $-1 #
face $-1 $-1 $124 $27 $-1 $125 forward single #
loop $-1 $126 $127 $49 #
cone-surface $-1 -41.219184355907053 18.359324943258724 0.66437981381363098 0 -0.83867057594974714 -0.54463902268945019 0.5 0 0 1 I I -0.70710678118654735 0.70710678118654768 0.5 forward I I I I #
loop $-1 $-1 $128 $35 #
coedge $-1 $80 $80 $129 $130 reversed $50 $-1 #
face $-1 $-1 $131 $28 $-1 $132 forward single #
loop $-1 $133 $134 $52 #
cone-surface $-1 -33.339412655263416 18.359324943258724 0.66437981381363098 0 -0.83867057594974714 -0.54463902268945019 0.5 0 0 1 I I -0.70710678118654735 0.70710678118654768 0.5 forward I I I I #
loop $-1 $-1 $135 $36 #
coedge $-1 $85 $85 $136 $137 reversed $53 $-1 #
face $-1 $138 $139 $29 $-1 $140 reversed single #
loop $-1 $-1 $141 $55 #
plane-surface $-1 9.193066984084254 -2.0600336201518559 39.086657665066888 0 0.83867057594974714 0.54463902268945019 1 0 0 forward_v I I I I #
coedge $-1 $142 $143 $144 $145 reversed $56 $-1 #
face $-1 $-1 $146 $30 $-1 $147 forward single #
loop $-1 $148 $149 $58 #
cone-surface $-1 5.2531811337624319 18.359324943258724 0.66437981381363098 0 -0.83867057594974714 -0.54463902268945019 0.5 0 0 1 I I -0.70710678118654735 0.70710678118654768 0.5 forward I I I I #
loop $-1 $-1 $150 $38 #
coedge $-1 $94 $94 $151 $152 reversed $59 $-1 #
face $-1 $-1 $153 $31 $-1 $154 forward single #
loop $-1 $155 $156 $61 #
cone-surface $-1 13.132952834406069 18.359324943258724 0.66437981381363098 0 -0.83867057594974714 -0.54463902268945019 0.5 0 0 1 I I -0.70710678118654735 0.70710678118654768 0.5 forward I I I I #
loop $-1 $-1 $157 $39 #
coedge $-1 $99 $99 $158 $159 reversed $62 $-1 #
face $-1 $160 $161 $24 $-1 $162 reversed single #
loop $-1 $-1 $163 $64 #
plane-surface $-1 0 -23.07435844287328 0 0 1 0 0 0 1 forward_v I I I I #
coedge $-1 $164 $165 $166 $167 forward $65 $-1 #
coedge $-1 $168 $67 $169 $170 forward $41 $-1 #
coedge $-1 $67 $168 $171 $172 forward $41 $-1 #
coedge $-1 $173 $174 $67 $107 reversed $175 $-1 #
edge $-1 $176 -23.07435844287328 $177 23.07435844287328 $106 $178 forward 7 unknown #
face $-1 $179 $180 $25 $-1 $181 forward single #
loop $-1 $-1 $182 $68 #
plane-surface $-1 46.472365489669485 0 0 -1 0 0 0 0 1 forward_v I I I I #
coedge $-1 $183 $184 $185 $186 forward $69 $-1 #
coedge $-1 $185 $71 $182 $187 reversed $44 $-1 #
coedge $-1 $71 $185 $188 $189 reversed $44 $-1 #
coedge $-1 $190 $191 $71 $115 reversed $180 $-1 #
edge $-1 $192 -46.472365489669485 $193 46.472365489669485 $114 $194 forward 7 unknown #
face $-1 $195 $196 $26 $-1 $197 reversed single #
loop $-1 $-1 $198 $72 #
plane-surface $-1 0 0 5.0861894200061295 0 0 1 1 0 0 forward_v I I I I #
coedge $-1 $199 $200 $201 $202 reversed $73 $-1 #
coedge $-1 $121 $75 $203 $204 reversed $47 $-1 #
coedge $-1 $75 $120 $199 $205 reversed $47 $-1 #
coedge $-1 $201 $206 $75 $123 forward $196 $-1 #
edge $-1 $207 39.767803134887835 $208 44.470905859737968 $122 $209 forward 7 unknown #
loop $-1 $-1 $129 $76 #
plane-surface $-1 -37.279298505585231 -2.0600336201518559 39.086657665066888 0 0.83867057594974714 0.54463902268945019 1 0 0 forward_v I I I I #
loop $-1 $-1 $210 $49 #
coedge $-1 $127 $127 $128 $211 reversed $77 $-1 #
coedge $-1 $128 $128 $127 $211 forward $79 $-1 #
coedge $-1 $129 $129 $80 $130 forward $124 $-1 #
edge $-1 $212 5.9061577017975664e-016 $212 6.2831853071796013 $129 $213 forward 7 unknown #
loop $-1 $-1 $136 $81 #
plane-surface $-1 -37.279298505585231 -2.0600336201518559 39.086657665066888 0 0.83867057594974714 0.54463902268945019 1 0 0 forward_v I I I I #
loop $-1 $-1 $214 $52 #
coedge $-1 $134 $134 $135 $215 reversed $82 $-1 #
coedge $-1 $135 $135 $134 $215 forward $84 $-1 #
coedge $-1 $136 $136 $85 $137 forward $131 $-1 #
edge $-1 $216 5.9061577017975664e-016 $216 6.2831853071796013 $136 $217 forward 7 unknown #
face $-1 $218 $219 $29 $-1 $220 forward single #
loop $-1 $-1 $221 $86 #
plane-surface $-1 3.5527136788005009e-015 75.889977441784666 89.707985109787927 1 0 0 0 -0.83867057594974714 -0.54463902268945019 forward_v I I I I #
coedge $-1 $222 $223 $224 $225 reversed $87 $-1 #
coedge $-1 $143 $89 $226 $227 reversed $56 $-1 #
coedge $-1 $89 $142 $222 $228 reversed $56 $-1 #
coedge $-1 $224 $229 $89 $145 forward $230 $-1 #
edge $-1 $231 39.767803134887835 $232 44.470905859737968 $144 $233 forward 7 unknown #
loop $-1 $-1 $151 $90 #
plane-surface $-1 9.193066984084254 -2.0600336201518559 39.086657665066888 0 0.83867057594974714 0.54463902268945019 1 0 0 forward_v I I I I #
loop $-1 $-1 $234 $58 #
coedge $-1 $149 $149 $150 $235 reversed $91 $-1 #
coedge $-1 $150 $150 $149 $235 forward $93 $-1 #
coedge $-1 $151 $151 $94 $152 forward $146 $-1 #
edge $-1 $236 5.9061577017975664e-016 $236 6.2831853071796013 $151 $237 forward 7 unknown #
loop $-1 $-1 $158 $95 #
plane-surface $-1 9.193066984084254 -2.0600336201518559 39.086657665066888 0 0.83867057594974714 0.54463902268945019 1 0 0 forward_v I I I I #
loop $-1 $-1 $238 $61 #
coedge $-1 $156 $156 $157 $239 reversed $96 $-1 #
coedge $-1 $157 $157 $156 $239 forward $98 $-1 #
coedge $-1 $158 $158 $99 $159 forward $153 $-1 #
edge $-1 $240 5.9061577017975664e-016 $240 6.2831853071796013 $158 $241 forward 7 unknown #
face $-1 $242 $243 $24 $-1 $244 reversed single #
loop $-1 $-1 $245 $100 #
plane-surface $-1 -46.472365489669485 0 0 1 0 0 0 0 -1 forward_v I I I I #
coedge $-1 $171 $246 $173 $247 reversed $101 $-1 #
coedge $-1 $248 $103 $246 $249 forward $65 $-1 #
coedge $-1 $103 $248 $250 $251 forward $65 $-1 #
coedge $-1 $174 $173 $103 $167 reversed $175 $-1 #
edge $-1 $252 -23.07435844287328 $253 23.07435844287328 $166 $254 forward 7 unknown #
coedge $-1 $105 $104 $255 $256 forward $41 $-1 #
coedge $-1 $257 $258 $104 $170 reversed $243 $-1 #
edge $-1 $177 -46.472365489669485 $259 46.472365489669485 $169 $260 forward 7 unknown #
coedge $-1 $261 $163 $105 $172 reversed $101 $-1 #
edge $-1 $262 -46.472365489669485 $176 46.472365489669485 $171 $263 forward 7 unknown #
coedge $-1 $166 $106 $163 $247 forward $175 $-1 #
coedge $-1 $106 $166 $257 $264 reversed $175 $-1 #
loop $-1 $-1 $173 $242 #
vertex $-1 $107 $265 #
vertex $-1 $107 $266 #
straight-curve $-1 46.472365489669485 0 5.0861894200061295 0 1 0 I I #
face $-1 $267 $268 $25 $-1 $269 reversed single #
loop $-1 $-1 $191 $108 #
plane-surface $-1 0 -25.211559187109927 -2.0861894200061295 0 0 1 1 0 0 forward_v I I I I #
coedge $-1 $270 $271 $112 $187 forward $109 $-1 #
coedge $-1 $272 $111 $271 $273 forward $69 $-1 #
coedge $-1 $111 $272 $274 $275 forward $69 $-1 #
coedge $-1 $113 $112 $111 $186 reversed $44 $-1 #
edge $-1 $276 -46.472365489669485 $277 46.472365489669485 $111 $278 forward 7 unknown #
edge $-1 $277 -5.0861894200061295 $193 -2.0861894200061295 $182 $279 forward 7 unknown #
coedge $-1 $274 $280 $113 $189 forward $281 $-1 #
edge $-1 $192 2.0861894200061295 $276 5.0861894200061295 $188 $282 forward 7 unknown #
coedge $-1 $283 $114 $280 $284 forward $180 $-1 #
coedge $-1 $114 $283 $270 $285 forward $180 $-1 #
vertex $-1 $189 $286 #
vertex $-1 $285 $287 #
straight-curve $-1 0 -23.07435844287328 -2.0861894200061295 1 0 0 I I #
face $-1 $-1 $288 $26 $-1 $289 reversed single #
loop $-1 $-1 $122 $116 #
plane-surface $-1 0 23.07435844287328 0 0 -1 0 0 0 -1 forward_v I I I I #
coedge $-1 $203 $290 $291 $292 forward $117 $-1 #
coedge $-1 $291 $119 $121 $205 forward $73 $-1 #
coedge $-1 $119 $291 $293 $294 reversed $73 $-1 #
coedge $-1 $295 $122 $119 $202 forward $196 $-1 #
edge $-1 $208 9.4465822687083651 $296 27.83271623687687 $201 $297 forward 7 unknown #
coedge $-1 $298 $198 $120 $204 forward $117 $-1 #
edge $-1 $299 -17.924860800855413 $207 -14.870630278019053 $203 $300 forward 7 unknown #
edge $-1 $208 -46.148716885746566 $299 -40.540909887719792 $121 $301 forward 7 unknown #
coedge $-1 $122 $295 $298 $302 reversed $196 $-1 #
vertex $-1 $302 $303 #
vertex $-1 $123 $304 #
straight-curve $-1 -28.086231521500981 23.07435844287328 44.853992554893964 0 0 -1 I I #
coedge $-1 $210 $210 $-1 $305 reversed $126 $-1 #
edge $-1 $306 0 $306 6.2831853071796004 $127 $307 forward 7 unknown #
vertex $-1 $130 $308 #
ellipse-curve $-1 -41.219184355907053 21.547243181455098 2.734638057581066 0 0.83867057594974714 0.54463902268945019 1 0 0 1 I I #
coedge $-1 $214 $214 $-1 $309 reversed $133 $-1 #
edge $-1 $310 0 $310 6.2831853071796004 $134 $311 forward 7 unknown #
vertex $-1 $137 $312 #
ellipse-curve $-1 -33.339412655263416 21.547243181455098 2.734638057581066 0 0.83867057594974714 0.54463902268945019 1 0 0 1 I I #
face $-1 $-1 $230 $29 $-1 $313 reversed single #
loop $-1 $-1 $314 $138 #
plane-surface $-1 0 0 5.0861894200061295 0 0 1 1 0 0 forward_v I I I I #
coedge $-1 $315 $316 $317 $318 reversed $139 $-1 #
coedge $-1 $319 $141 $143 $228 forward $87 $-1 #
coedge $-1 $141 $319 $315 $320 forward $87 $-1 #
coedge $-1 $317 $144 $141 $225 forward $230 $-1 #
edge $-1 $232 -13.789600476126378 $321 4.5965334920421235 $224 $322 forward 7 unknown #
coedge $-1 $323 $324 $142 $227 forward $219 $-1 #
edge $-1 $325 -17.924860800855413 $231 -14.870630278019053 $226 $326 forward 7 unknown #
edge $-1 $232 -46.148716885746566 $325 -40.540909887719792 $143 $327 forward 7 unknown #
coedge $-1 $144 $317 $323 $328 reversed $230 $-1 #
loop $-1 $-1 $317 $218 #
vertex $-1 $328 $329 #
vertex $-1 $145 $330 #
straight-curve $-1 18.386133968168505 23.07435844287328 44.853992554893964 0 0 -1 I I #
coedge $-1 $234 $234 $-1 $331 reversed $148 $-1 #
edge $-1 $332 0 $332 6.2831853071796004 $149 $333 forward 7 unknown #
vertex $-1 $152 $334 #
ellipse-curve $-1 5.2531811337624319 21.547243181455098 2.734638057581066 0 0.83867057594974714 0.54463902268945019 1 0 0 1 I I #
coedge $-1 $238 $238 $-1 $335 reversed $155 $-1 #
edge $-1 $336 0 $336 6.2831853071796004 $156 $337 forward 7 unknown #
vertex $-1 $159 $338 #
ellipse-curve $-1 13.132952834406069 21.547243181455098 2.734638057581066 0 0.83867057594974714 0.54463902268945019 1 0 0 1 I I #
face $-1 $-1 $175 $24 $-1 $339 reversed single #
loop $-1 $-1 $257 $160 #
plane-surface $-1 0 23.07435844287328 0 0 -1 0 0 0 -1 forward_v I I I I #
coedge $-1 $340 $255 $258 $341 forward $161 $-1 #
coedge $-1 $163 $261 $164 $249 reversed $101 $-1 #
edge $-1 $176 -5.0861894200061295 $253 5.0861894200061295 $173 $342 forward 7 unknown #
coedge $-1 $165 $164 $340 $343 forward $65 $-1 #
edge $-1 $253 -46.472365489669485 $344 46.472365489669485 $246 $345 forward 7 unknown #
coedge $-1 $258 $257 $165 $251 reversed $243 $-1 #
edge $-1 $346 -46.472365489669485 $252 46.472365489669485 $250 $347 forward 7 unknown #
vertex $-1 $167 $348 #
vertex $-1 $247 $349 #
straight-curve $-1 46.472365489669485 0 -5.0861894200061295 0 -1 0 I I #
coedge $-1 $245 $350 $168 $256 reversed $161 $-1 #
edge $-1 $259 -23.07435844287328 $262 23.07435844287328 $255 $351 forward 7 unknown #
coedge $-1 $250 $169 $174 $264 forward $243 $-1 #
coedge $-1 $169 $250 $245 $341 reversed $243 $-1 #
vertex $-1 $170 $352 #
straight-curve $-1 0 23.07435844287328 5.0861894200061295 -1 0 0 I I #
coedge $-1 $246 $171 $350 $353 forward $101 $-1 #
vertex $-1 $256 $354 #
straight-curve $-1 0 -23.07435844287328 5.0861894200061295 1 0 0 I I #
edge $-1 $177 -5.0861894200061295 $252 5.0861894200061295 $174 $355 forward 7 unknown #
point $-1 46.472365489669485 -23.07435844287328 5.0861894200061295 #
point $-1 46.472365489669485 23.07435844287328 5.0861894200061295 #
face $-1 $-1 $281 $25 $-1 $356 reversed single #
loop $-1 $-1 $357 $179 #
plane-surface $-1 0 -27.348759931346574 -3.5861894200061295 0 1 0 0 0 1 forward_v I I I I #
coedge $-1 $358 $182 $191 $285 reversed $109 $-1 #
coedge $-1 $182 $358 $183 $273 reversed $109 $-1 #
coedge $-1 $184 $183 $359 $360 forward $69 $-1 #
edge $-1 $277 23.07435844287328 $361 27.348759931346574 $271 $362 forward 7 unknown #
coedge $-1 $363 $188 $184 $275 reversed $281 $-1 #
edge $-1 $364 -27.348759931346574 $276 -23.07435844287328 $274 $365 forward 7 unknown #
vertex $-1 $189 $366 #
vertex $-1 $273 $367 #
straight-curve $-1 0 -23.07435844287328 -5.0861894200061295 1 0 0 I I #
straight-curve $-1 46.472365489669485 -23.07435844287328 0 0 0 1 I I #
coedge $-1 $188 $363 $190 $284 reversed $281 $-1 #
loop $-1 $-1 $188 $267 #
straight-curve $-1 -46.472365489669485 -23.07435844287328 0 0 0 -1 I I #
coedge $-1 $191 $190 $368 $369 forward $180 $-1 #
edge $-1 $192 -2.1372007442366474 $370 2.1372007442366474 $280 $371 forward 7 unknown #
edge $-1 $372 -2.1372007442366474 $193 2.1372007442366474 $270 $373 forward 7 unknown #
point $-1 -46.472365489669485 -23.07435844287328 -2.0861894200061295 #
point $-1 46.472365489669485 -23.07435844287328 -2.0861894200061295 #
loop $-1 $-1 $293 $195 #
plane-surface $-1 -46.472365489669485 0 0 1 0 0 0 0 -1 forward_v I I I I #
coedge $-1 $198 $298 $374 $375 forward $117 $-1 #
coedge $-1 $200 $199 $198 $292 reversed $73 $-1 #
edge $-1 $376 -27.83271623687687 $299 -9.4465822687083651 $198 $377 forward 7 unknown #
coedge $-1 $374 $378 $200 $294 forward $288 $-1 #
edge $-1 $296 -29.197314688996983 $376 -23.589507690970215 $293 $379 forward 7 unknown #
coedge $-1 $206 $201 $378 $380 reversed $196 $-1 #
vertex $-1 $202 $381 #
straight-curve $-1 -18.639649252792616 23.07435844287328 0.38308669515599192 -1 0 0 I I #
coedge $-1 $290 $203 $206 $302 forward $117 $-1 #
vertex $-1 $204 $382 #
straight-curve $-1 -28.086231521500981 37.944988720892333 5.0861894200061286 0 1 0 I I #
straight-curve $-1 -28.086231521500981 -2.0600336201518559 39.086657665066888 0 -0.54463902268945019 0.83867057594974714 I I #
edge $-1 $207 28.086231521500981 $383 46.472365489669485 $206 $384 forward 7 unknown #
point $-1 -28.086231521500981 23.07435844287328 5.0861894200061295 #
point $-1 -28.086231521500981 23.074358442873283 0.38308669515599547 #
edge $-1 $385 1 $385 0 $210 $-1 forward 7 unknown #
vertex $-1 $211 $386 #
ellipse-curve $-1 -41.219184355907053 18.778660231233598 0.93669932515835619 0 0.83867057594974714 0.54463902268945019 1 0 0 1 I I #
point $-1 -40.219184355907053 21.547243181455109 2.7346380575810723 #
edge $-1 $387 1 $387 0 $214 $-1 forward 7 unknown #
vertex $-1 $215 $388 #
ellipse-curve $-1 -33.339412655263416 18.778660231233598 0.93669932515835619 0 0.83867057594974714 0.54463902268945019 1 0 0 1 I I #
point $-1 -32.339412655263416 21.547243181455109 2.7346380575810723 #
plane-surface $-1 0 23.07435844287328 0 0 -1 0 0 0 -1 forward_v I I I I #
coedge $-1 $324 $323 $316 $389 forward $219 $-1 #
coedge $-1 $316 $221 $223 $320 reversed $139 $-1 #
coedge $-1 $221 $315 $314 $389 reversed $139 $-1 #
coedge $-1 $229 $224 $221 $318 forward $230 $-1 #
edge $-1 $321 -44.470905859737968 $390 -39.767803134887835 $317 $391 forward 7 unknown #
coedge $-1 $223 $222 $324 $392 reversed $87 $-1 #
edge $-1 $393 40.540909887719792 $321 46.148716885746566 $315 $394 forward 7 unknown #
vertex $-1 $225 $395 #
straight-curve $-1 4.596533492042127 23.07435844287328 0.38308669515599192 -1 0 0 I I #
coedge $-1 $314 $226 $229 $328 forward $219 $-1 #
coedge $-1 $226 $314 $319 $392 forward $219 $-1 #
vertex $-1 $227 $396 #
straight-curve $-1 18.386133968168505 37.944988720892333 5.0861894200061286 0 1 0 I I #
straight-curve $-1 18.386133968168505 -2.0600336201518559 39.086657665066888 0 -0.54463902268945019 0.83867057594974714 I I #
edge $-1 $231 -18.386133968168505 $390 -3.5527136788005009e-015 $229 $397 forward 7 unknown #
point $-1 18.386133968168505 23.07435844287328 5.0861894200061295 #
point $-1 18.386133968168505 23.074358442873283 0.38308669515599547 #
edge $-1 $398 1 $398 0 $234 $-1 forward 7 unknown #
vertex $-1 $235 $399 #
ellipse-curve $-1 5.2531811337624319 18.778660231233598 0.93669932515835619 0 0.83867057594974714 0.54463902268945019 1 0 0 1 I I #
point $-1 6.2531811337624319 21.547243181455109 2.7346380575810723 #
edge $-1 $400 1 $400 0 $238 $-1 forward 7 unknown #
vertex $-1 $239 $401 #
ellipse-curve $-1 13.132952834406069 18.778660231233598 0.93669932515835619 0 0.83867057594974714 0.54463902268945019 1 0 0 1 I I #
point $-1 14.132952834406069 21.547243181455109 2.7346380575810723 #
plane-surface $-1 46.472365489669485 0 0 -1 0 0 0 0 1 forward_v I I I I #
coedge $-1 $350 $245 $248 $343 reversed $161 $-1 #
edge $-1 $259 -5.0861894200061295 $346 5.0861894200061295 $258 $402 forward 7 unknown #
straight-curve $-1 46.472365489669485 -23.07435844287328 0 0 0 -1 I I #
edge $-1 $344 -23.07435844287328 $346 23.07435844287328 $340 $403 forward 7 unknown #
vertex $-1 $343 $404 #
straight-curve $-1 0 -23.07435844287328 -5.0861894200061295 -1 0 0 I I #
vertex $-1 $251 $405 #
straight-curve $-1 0 23.07435844287328 -5.0861894200061295 1 0 0 I I #
point $-1 46.472365489669485 23.07435844287328 -5.0861894200061295 #
point $-1 46.472365489669485 -23.07435844287328 -5.0861894200061295 #
coedge $-1 $255 $340 $261 $353 reversed $161 $-1 #
straight-curve $-1 -46.472365489669485 0 5.0861894200061295 0 -1 0 I I #
point $-1 -46.472365489669485 23.07435844287328 5.0861894200061295 #
edge $-1 $262 -5.0861894200061295 $344 5.0861894200061295 $350 $406 forward 7 unknown #
point $-1 -46.472365489669485 -23.07435844287328 5.0861894200061295 #
straight-curve $-1 46.472365489669485 23.07435844287328 0 0 0 -1 I I #
plane-surface $-1 -46.472365489669485 0 0 1 0 0 0 0 -1 forward_v I I I I #
coedge $-1 $359 $368 $363 $407 forward $268 $-1 #
coedge $-1 $271 $270 $408 $409 forward $109 $-1 #
coedge $-1 $408 $357 $272 $360 reversed $268 $-1 #
edge $-1 $361 -46.472365489669485 $364 46.472365489669485 $359 $410 forward 7 unknown #
vertex $-1 $409 $411 #
straight-curve $-1 46.472365489669485 0 -5.0861894200061295 0 -1 0 I I #
coedge $-1 $280 $274 $357 $407 reversed $281 $-1 #
vertex $-1 $275 $412 #
straight-curve $-1 -46.472365489669485 0 -5.0861894200061295 0 1 0 I I #
point $-1 -46.472365489669485 -23.07435844287328 -5.0861894200061295 #
point $-1 46.472365489669485 -23.07435844287328 -5.0861894200061295 #
coedge $-1 $357 $408 $283 $369 reversed $268 $-1 #
edge $-1 $370 -46.472365489669485 $372 46.472365489669485 $368 $413 forward 7 unknown #
vertex $-1 $284 $414 #
straight-curve $-1 -46.472365489669485 -25.211559187109927 -2.0861894200061295 0 -1 0 I I #
vertex $-1 $285 $415 #
straight-curve $-1 46.472365489669485 -25.211559187109927 -2.0861894200061295 0 1 0 I I #
coedge $-1 $378 $293 $290 $375 reversed $288 $-1 #
edge $-1 $383 -23.07435844287328 $376 -20.02012792003692 $374 $416 forward 7 unknown #
vertex $-1 $294 $417 #
straight-curve $-1 -18.639649252792616 20.02012792003692 5.0861894200061286 1 0 0 I I #
coedge $-1 $293 $374 $295 $380 forward $288 $-1 #
straight-curve $-1 -46.472365489669485 7.1723615055016339 24.870015421563107 0 -0.54463902268945019 0.83867057594974714 I I #
edge $-1 $383 -5.0861894200061295 $296 -0.38308669515599425 $295 $418 forward 7 unknown #
point $-1 -46.472365489669485 23.07435844287328 0.38308669515599425 #
point $-1 -28.086231521500981 20.02012792003692 5.0861894200061286 #
vertex $-1 $302 $419 #
straight-curve $-1 0 23.07435844287328 5.0861894200061295 -1 0 0 I I #
vertex $-1 $305 $420 #
point $-1 -40.219184355907053 18.778660231233598 0.93669932515835619 #
vertex $-1 $309 $421 #
point $-1 -32.339412655263416 18.778660231233598 0.93669932515835619 #
edge $-1 $390 14.870630278019053 $393 17.924860800855413 $314 $422 forward 7 unknown #
vertex $-1 $318 $423 #
straight-curve $-1 3.5527136788005009e-015 23.07435844287328 44.853992554893964 0 0 1 I I #
edge $-1 $393 -4.5965334920421235 $325 13.789600476126378 $324 $424 forward 7 unknown #
vertex $-1 $392 $425 #
straight-curve $-1 3.5527136788005009e-015 -2.0600336201518559 39.086657665066888 0 0.54463902268945019 -0.83867057594974714 I I #
point $-1 3.5527136788005009e-015 23.074358442873283 0.38308669515599547 #
point $-1 18.386133968168505 20.02012792003692 5.0861894200061286 #
straight-curve $-1 0 23.07435844287328 5.0861894200061295 -1 0 0 I I #
vertex $-1 $331 $426 #
point $-1 6.2531811337624319 18.778660231233598 0.93669932515835619 #
vertex $-1 $335 $427 #
point $-1 14.132952834406069 18.778660231233598 0.93669932515835619 #
straight-curve $-1 -46.472365489669485 23.07435844287328 0 0 0 -1 I I #
straight-curve $-1 -46.472365489669485 0 -5.0861894200061295 0 1 0 I I #
point $-1 -46.472365489669485 -23.07435844287328 -5.0861894200061295 #
point $-1 -46.472365489669485 23.07435844287328 -5.0861894200061295 #
straight-curve $-1 -46.472365489669485 -23.07435844287328 0 0 0 -1 I I #
edge $-1 $370 -1.5 $364 1.5 $363 $428 forward 7 unknown #
coedge $-1 $368 $359 $358 $409 reversed $268 $-1 #
edge $-1 $372 -1.5 $361 1.5 $358 $429 forward 7 unknown #
straight-curve $-1 0 -27.348759931346574 -5.0861894200061295 -1 0 0 I I #
point $-1 46.472365489669485 -27.348759931346574 -5.0861894200061295 #
point $-1 -46.472365489669485 -27.348759931346574 -5.0861894200061295 #
straight-curve $-1 0 -27.348759931346574 -2.0861894200061295 1 0 0 I I #
point $-1 -46.472365489669485 -27.348759931346574 -2.0861894200061295 #
point $-1 46.472365489669485 -27.348759931346574 -2.0861894200061295 #
straight-curve $-1 -46.472365489669485 0 5.0861894200061295 0 -1 0 I I #
point $-1 -46.472365489669485 20.02012792003692 5.0861894200061286 #
straight-curve $-1 -46.472365489669485 23.07435844287328 0 0 0 -1 I I #
point $-1 -46.472365489669485 23.07435844287328 5.0861894200061295 #
point $-1 -41.219184355907053 17.939989655283849 0.39206030246890577 #
point $-1 -33.339412655263416 17.939989655283849 0.39206030246890577 #
straight-curve $-1 3.5527136788005009e-015 37.944988720892333 5.0861894200061286 0 -1 0 I I #
point $-1 3.5527136788005009e-015 23.07435844287328 5.0861894200061295 #
straight-curve $-1 4.596533492042127 20.02012792003692 5.0861894200061286 1 0 0 I I #
point $-1 3.5527136788005009e-015 20.02012792003692 5.0861894200061286 #
point $-1 5.2531811337624319 17.939989655283849 0.39206030246890577 #
point $-1 13.132952834406069 17.939989655283849 0.39206030246890577 #
straight-curve $-1 -46.472365489669485 -27.348759931346574 -3.5861894200061295 0 0 -1 I I #
straight-curve $-1 46.472365489669485 -27.348759931346574 -3.5861894200061295 0 0 -1 I I #
End-of-ACIS-data 