500 0 13 0           
7 Unknown 11 ACIS 5.0 NT 24 Fri Mar 26 16:53:55 1999 
-1 9.9999999999999995e-007 1e-010 
body $-1 $13 $-1 $14 #
body $-1 $15 $-1 $16 #
body $-1 $17 $-1 $18 #
body $-1 $19 $-1 $20 #
body $-1 $21 $-1 $22 #
body $-1 $23 $-1 $24 #
body $-1 $25 $-1 $26 #
body $-1 $27 $-1 $28 #
body $-1 $29 $-1 $30 #
body $-1 $31 $-1 $32 #
body $-1 $33 $-1 $34 #
body $-1 $35 $-1 $36 #
body $-1 $37 $-1 $38 #
lump $-1 $-1 $39 $0 #
transform $-1 1 0 0 0 1 0 0 0 1 67.799920651875368 33.390741890547609 12.456386353571789 1 rotate no_reflect no_shear #
lump $-1 $-1 $40 $1 #
transform $-1 1 0 0 0 1 0 0 0 1 67.799920651875368 33.390741890547609 12.456386353571789 1 rotate no_reflect no_shear #
lump $-1 $-1 $41 $2 #
transform $-1 1 0 0 0 1 0 0 0 1 67.799920651875368 33.390741890547609 12.456386353571789 1 rotate no_reflect no_shear #
lump $-1 $-1 $42 $3 #
transform $-1 1 0 0 0 1 0 0 0 1 67.799920651875368 33.390741890547609 12.456386353571789 1 rotate no_reflect no_shear #
lump $-1 $-1 $43 $4 #
transform $-1 1 0 0 0 1 0 0 0 1 67.799920651875368 33.390741890547609 12.456386353571789 1 rotate no_reflect no_shear #
lump $-1 $-1 $44 $5 #
transform $-1 1 0 0 0 1 0 0 0 1 67.799920651875368 33.390741890547609 12.456386353571789 1 rotate no_reflect no_shear #
lump $-1 $-1 $45 $6 #
transform $-1 1 0 0 0 1 0 0 0 1 67.799920651875368 33.390741890547609 12.456386353571789 1 rotate no_reflect no_shear #
lump $-1 $-1 $46 $7 #
transform $-1 1 0 0 0 1 0 0 0 1 67.799920651875368 33.390741890547609 12.456386353571789 1 rotate no_reflect no_shear #
lump $-1 $-1 $47 $8 #
transform $-1 1 0 0 0 1 0 0 0 1 67.799920651875368 33.390741890547609 12.456386353571789 1 rotate no_reflect no_shear #
lump $-1 $-1 $48 $9 #
transform $-1 1 0 0 0 1 0 0 0 1 67.799920651875368 33.390741890547609 12.456386353571789 1 rotate no_reflect no_shear #
lump $-1 $-1 $49 $10 #
transform $-1 1 0 0 0 1 0 0 0 1 67.799920651875368 33.390741890547609 12.456386353571789 1 rotate no_reflect no_shear #
lump $-1 $-1 $50 $11 #
transform $-1 1 0 0 0 1 0 0 0 1 67.799920651875368 33.390741890547609 12.456386353571789 1 rotate no_reflect no_shear #
lump $-1 $-1 $51 $12 #
transform $-1 1 0 0 0 1 0 0 0 1 67.799920651875368 33.390741890547609 12.456386353571789 1 rotate no_reflect no_shear #
shell $-1 $-1 $-1 $52 $-1 $13 #
shell $-1 $-1 $-1 $53 $-1 $15 #
shell $-1 $-1 $-1 $54 $-1 $17 #
shell $-1 $-1 $-1 $55 $-1 $19 #
shell $-1 $-1 $-1 $56 $-1 $21 #
shell $-1 $-1 $-1 $57 $-1 $23 #
shell $-1 $-1 $-1 $58 $-1 $25 #
shell $-1 $-1 $-1 $59 $-1 $27 #
shell $-1 $-1 $-1 $60 $-1 $29 #
shell $-1 $-1 $-1 $61 $-1 $31 #
shell $-1 $-1 $-1 $62 $-1 $33 #
shell $-1 $-1 $-1 $63 $-1 $35 #
shell $-1 $-1 $-1 $64 $-1 $37 #
face $-1 $65 $66 $39 $-1 $67 forward single #
face $-1 $68 $69 $40 $-1 $70 reversed single #
face $-1 $71 $72 $41 $-1 $73 reversed single #
face $-1 $74 $75 $42 $-1 $76 forward single #
face $-1 $77 $78 $43 $-1 $79 forward single #
face $-1 $80 $81 $44 $-1 $82 reversed single #
face $-1 $83 $84 $45 $-1 $85 forward single #
face $-1 $86 $87 $46 $-1 $88 reversed single #
face $-1 $89 $90 $47 $-1 $91 forward single #
face $-1 $92 $93 $48 $-1 $94 reversed single #
face $-1 $95 $96 $49 $-1 $97 forward single #
face $-1 $98 $99 $50 $-1 $100 reversed single #
face $-1 $101 $102 $51 $-1 $103 forward single #
face $-1 $104 $105 $39 $-1 $106 reversed single #
loop $-1 $-1 $107 $52 #
plane-surface $-1 0 0 12.456386353571789 0 0 1 1 0 0 forward_v I I I I #
face $-1 $108 $109 $40 $-1 $110 reversed single #
loop $-1 $-1 $111 $53 #
plane-surface $-1 -60.971070922522529 0 6.0556429352048458 0 0 1 1 0 0 forward_v I I I I #
face $-1 $112 $113 $41 $-1 $114 reversed single #
loop $-1 $-1 $115 $54 #
plane-surface $-1 -20.740256666498471 -140.24487614456552 87.205315672458994 -1 0 0 0 -0.78801076186113728 0.61566146476048833 forward_v I I I I #
face $-1 $116 $117 $42 $-1 $118 forward single #
loop $-1 $119 $120 $55 #
cone-surface $-1 -36.635016576565803 -26.900081343311538 5.683844882537902 0 0.78801076186113728 -0.61566146476048833 2 0 0 1 I I 0 1 2 forward I I I I #
face $-1 $121 $122 $43 $-1 $123 forward single #
loop $-1 $124 $125 $56 #
cone-surface $-1 -27.098160630525406 -26.900081343311538 5.683844882537902 0 0.78801076186113728 -0.61566146476048833 2 0 0 1 I I 0 1 2 forward I I I I #
face $-1 $126 $127 $44 $-1 $128 reversed single #
loop $-1 $-1 $129 $57 #
plane-surface $-1 -44.80267080015625 -16.237571735174029 45.123045015290799 0 0.66913061440640931 0.74314481823134659 1 0 0 forward_v I I I I #
face $-1 $130 $131 $45 $-1 $132 forward single #
loop $-1 $133 $134 $58 #
cone-surface $-1 -44.80267080015625 24.344945762815382 3.8129762804040306 0 -0.66913061440640931 -0.74314481823134659 4 0 0 1 I I 0 1 4 forward I I I I #
face $-1 $135 $136 $46 $-1 $137 reversed single #
loop $-1 $-1 $138 $59 #
plane-surface $-1 -19.721207506830293 74.496433389816303 145.89336443316608 1 0 0 0 -0.66913061440640931 -0.74314481823134659 forward_v I I I I #
face $-1 $139 $140 $47 $-1 $141 forward single #
loop $-1 $142 $143 $60 #
cone-surface $-1 -10.381657113816857 24.344945762815382 3.8129762804040306 0 -0.66913061440640931 -0.74314481823134659 4 0 0 1 I I 0 1 4 forward I I I I #
face $-1 $144 $145 $48 $-1 $146 reversed single #
loop $-1 $-1 $147 $61 #
plane-surface $-1 14.6998061795091 74.496433389816303 145.89336443316608 1 0 0 0 -0.66913061440640931 -0.74314481823134659 forward_v I I I I #
face $-1 $148 $149 $49 $-1 $150 forward single #
loop $-1 $151 $152 $62 #
cone-surface $-1 24.039356572522536 24.344945762815382 3.8129762804040306 0 -0.66913061440640931 -0.74314481823134659 4 0 0 1 I I 0 1 4 forward I I I I #
face $-1 $153 $154 $50 $-1 $155 reversed single #
loop $-1 $-1 $156 $63 #
plane-surface $-1 49.120819865848489 74.496433389816303 145.89336443316608 1 0 0 0 -0.66913061440640931 -0.74314481823134659 forward_v I I I I #
face $-1 $157 $158 $51 $-1 $159 forward single #
loop $-1 $160 $161 $64 #
cone-surface $-1 58.460370258861929 24.344945762815382 3.8129762804040306 0 -0.66913061440640931 -0.74314481823134659 4 0 0 1 I I 0 1 4 forward I I I I #
face $-1 $162 $163 $39 $-1 $164 reversed single #
loop $-1 $-1 $165 $65 #
plane-surface $-1 0 0 -12.456386353571789 0 0 1 1 0 0 forward_v I I I I #
coedge $-1 $166 $167 $168 $169 forward $66 $-1 #
face $-1 $170 $171 $40 $-1 $172 reversed single #
loop $-1 $-1 $173 $68 #
plane-surface $-1 -54.142221193169689 0 9.2560146443883173 -1 0 0 0 0 1 forward_v I I I I #
coedge $-1 $174 $175 $176 $177 forward $69 $-1 #
face $-1 $178 $179 $41 $-1 $180 reversed single #
loop $-1 $-1 $181 $71 #
plane-surface $-1 -31.866588603545608 -33.390741890547602 3.7217187541020564 0 -0.78801076186113728 0.61566146476048833 1 0 0 forward_v I I I I #
coedge $-1 $182 $183 $184 $185 reversed $72 $-1 #
face $-1 $-1 $186 $42 $-1 $187 forward single #
loop $-1 $188 $189 $74 #
cone-surface $-1 -36.635016576565803 -23.033545063807466 2.6629757464783967 0 0.78801076186113728 -0.61566146476048833 1 0 0 1 I I -0.70710678118654746 0.70710678118654746 1 forward I I I I #
loop $-1 $-1 $190 $55 #
coedge $-1 $120 $120 $191 $192 reversed $75 $-1 #
face $-1 $-1 $193 $43 $-1 $194 forward single #
loop $-1 $195 $196 $77 #
cone-surface $-1 -27.098160630525406 -23.033545063807466 2.6629757464783967 0 0.78801076186113728 -0.61566146476048833 1 0 0 1 I I -0.70710678118654746 0.70710678118654746 1 forward I I I I #
loop $-1 $-1 $197 $56 #
coedge $-1 $125 $125 $198 $199 reversed $78 $-1 #
face $-1 $200 $201 $44 $-1 $202 forward single #
loop $-1 $-1 $203 $80 #
plane-surface $-1 -35.46312040714281 74.496433389816303 145.89336443316608 -1 0 0 0 0.66913061440640931 0.74314481823134659 forward_v I I I I #
coedge $-1 $204 $205 $206 $207 reversed $81 $-1 #
face $-1 $-1 $208 $45 $-1 $209 forward single #
loop $-1 $210 $211 $83 #
cone-surface $-1 -44.80267080015625 20.635045650493801 -0.30728512337798186 0 -0.66913061440640931 -0.74314481823134659 2 0 0 1 I I -0.70710678118654746 0.70710678118654768 2 forward I I I I #
loop $-1 $-1 $212 $58 #
coedge $-1 $134 $134 $213 $214 reversed $84 $-1 #
face $-1 $215 $216 $46 $-1 $217 reversed single #
loop $-1 $-1 $218 $86 #
plane-surface $-1 -10.381657113816857 -16.237571735174029 45.123045015290799 0 0.66913061440640931 0.74314481823134659 1 0 0 forward_v I I I I #
coedge $-1 $219 $220 $221 $222 reversed $87 $-1 #
face $-1 $-1 $223 $47 $-1 $224 forward single #
loop $-1 $225 $226 $89 #
cone-surface $-1 -10.381657113816857 20.635045650493801 -0.30728512337798186 0 -0.66913061440640931 -0.74314481823134659 2 0 0 1 I I -0.70710678118654746 0.70710678118654768 2 forward I I I I #
loop $-1 $-1 $227 $60 #
coedge $-1 $143 $143 $228 $229 reversed $90 $-1 #
face $-1 $230 $231 $48 $-1 $232 reversed single #
loop $-1 $-1 $233 $92 #
plane-surface $-1 24.039356572522536 -16.237571735174029 45.123045015290799 0 0.66913061440640931 0.74314481823134659 1 0 0 forward_v I I I I #
coedge $-1 $234 $235 $236 $237 reversed $93 $-1 #
face $-1 $-1 $238 $49 $-1 $239 forward single #
loop $-1 $240 $241 $95 #
cone-surface $-1 24.039356572522536 20.635045650493801 -0.30728512337798186 0 -0.66913061440640931 -0.74314481823134659 2 0 0 1 I I -0.70710678118654746 0.70710678118654768 2 forward I I I I #
loop $-1 $-1 $242 $62 #
coedge $-1 $152 $152 $243 $244 reversed $96 $-1 #
face $-1 $245 $246 $50 $-1 $247 forward single #
loop $-1 $-1 $248 $98 #
plane-surface $-1 58.460370258861929 -16.237571735174029 45.123045015290799 0 0.66913061440640931 0.74314481823134659 1 0 0 forward_v I I I I #
coedge $-1 $249 $250 $251 $252 reversed $99 $-1 #
face $-1 $-1 $253 $51 $-1 $254 forward single #
loop $-1 $255 $256 $101 #
cone-surface $-1 58.460370258861929 20.635045650493801 -0.30728512337798186 0 -0.66913061440640931 -0.74314481823134659 2 0 0 1 I I -0.70710678118654746 0.70710678118654768 2 forward I I I I #
loop $-1 $-1 $257 $64 #
coedge $-1 $161 $161 $258 $259 reversed $102 $-1 #
face $-1 $260 $261 $39 $-1 $262 reversed single #
loop $-1 $-1 $263 $104 #
plane-surface $-1 0 -33.390741890547609 0 0 1 0 0 0 1 forward_v I I I I #
coedge $-1 $264 $265 $266 $267 forward $105 $-1 #
coedge $-1 $268 $107 $269 $270 forward $66 $-1 #
coedge $-1 $107 $268 $271 $272 forward $66 $-1 #
coedge $-1 $273 $274 $107 $169 reversed $275 $-1 #
edge $-1 $276 -33.390741890547609 $277 33.390741890547609 $168 $278 forward 7 unknown #
face $-1 $279 $280 $40 $-1 $281 reversed single #
loop $-1 $-1 $282 $108 #
plane-surface $-1 0 33.390741890547609 0 0 -1 0 0 0 -1 forward_v I I I I #
coedge $-1 $176 $283 $284 $285 reversed $109 $-1 #
coedge $-1 $286 $111 $287 $288 reversed $69 $-1 #
coedge $-1 $111 $286 $289 $290 reversed $69 $-1 #
coedge $-1 $291 $173 $111 $177 reversed $109 $-1 #
edge $-1 $292 -33.390741890547609 $293 33.390741890547609 $176 $294 forward 7 unknown #
face $-1 $295 $296 $41 $-1 $297 reversed single #
loop $-1 $-1 $298 $112 #
plane-surface $-1 -42.992920540592749 -140.24487614456552 87.205315672458994 1 0 0 0 0.78801076186113728 -0.61566146476048833 forward_v I I I I #
coedge $-1 $299 $300 $301 $302 reversed $113 $-1 #
coedge $-1 $183 $115 $303 $304 reversed $72 $-1 #
coedge $-1 $115 $182 $299 $305 reversed $72 $-1 #
coedge $-1 $301 $306 $115 $185 forward $307 $-1 #
edge $-1 $308 36.731696181735153 $309 43.555966240921421 $184 $310 forward 7 unknown #
loop $-1 $-1 $191 $116 #
plane-surface $-1 -31.866588603545608 -33.390741890547602 3.7217187541020564 0 -0.78801076186113728 0.61566146476048833 1 0 0 forward_v I I I I #
loop $-1 $-1 $311 $74 #
coedge $-1 $189 $189 $190 $312 reversed $117 $-1 #
coedge $-1 $190 $190 $189 $312 forward $119 $-1 #
coedge $-1 $191 $191 $120 $192 forward $186 $-1 #
edge $-1 $313 -6.9989415317651662e-016 $313 6.2831853071795996 $191 $314 forward 7 unknown #
loop $-1 $-1 $198 $121 #
plane-surface $-1 -31.866588603545608 -33.390741890547602 3.7217187541020564 0 -0.78801076186113728 0.61566146476048833 1 0 0 forward_v I I I I #
loop $-1 $-1 $315 $77 #
coedge $-1 $196 $196 $197 $316 reversed $122 $-1 #
coedge $-1 $197 $197 $196 $316 forward $124 $-1 #
coedge $-1 $198 $198 $125 $199 forward $193 $-1 #
edge $-1 $317 -6.9989415317651662e-016 $317 6.2831853071795996 $198 $318 forward 7 unknown #
face $-1 $319 $320 $44 $-1 $321 reversed single #
loop $-1 $-1 $206 $126 #
plane-surface $-1 0 0 12.456386353571789 0 0 1 1 0 0 forward_v I I I I #
coedge $-1 $322 $323 $324 $325 reversed $127 $-1 #
coedge $-1 $326 $129 $327 $328 reversed $81 $-1 #
coedge $-1 $129 $326 $322 $329 forward $81 $-1 #
coedge $-1 $324 $330 $129 $207 forward $201 $-1 #
edge $-1 $331 -31.740885793091564 $332 -13.061785007064685 $206 $333 forward 7 unknown #
loop $-1 $-1 $213 $130 #
plane-surface $-1 -44.80267080015625 -16.237571735174029 45.123045015290799 0 0.66913061440640931 0.74314481823134659 1 0 0 forward_v I I I I #
loop $-1 $-1 $334 $83 #
coedge $-1 $211 $211 $212 $335 reversed $131 $-1 #
coedge $-1 $212 $212 $211 $335 forward $133 $-1 #
coedge $-1 $213 $213 $134 $214 forward $208 $-1 #
edge $-1 $336 3.4579029868490191e-016 $336 6.2831853071796004 $213 $337 forward 7 unknown #
face $-1 $338 $339 $46 $-1 $340 forward single #
loop $-1 $-1 $341 $135 #
plane-surface $-1 -1.0421067208034209 74.496433389816303 145.89336443316608 -1 0 0 0 0.66913061440640931 0.74314481823134659 forward_v I I I I #
coedge $-1 $342 $343 $344 $345 reversed $136 $-1 #
coedge $-1 $220 $138 $346 $347 reversed $87 $-1 #
coedge $-1 $138 $219 $342 $348 reversed $87 $-1 #
coedge $-1 $344 $349 $138 $222 forward $339 $-1 #
edge $-1 $350 3.8574748043605425 $351 17.205789292807481 $221 $352 forward 7 unknown #
loop $-1 $-1 $228 $139 #
plane-surface $-1 -10.381657113816857 -16.237571735174029 45.123045015290799 0 0.66913061440640931 0.74314481823134659 1 0 0 forward_v I I I I #
loop $-1 $-1 $353 $89 #
coedge $-1 $226 $226 $227 $354 reversed $140 $-1 #
coedge $-1 $227 $227 $226 $354 forward $142 $-1 #
coedge $-1 $228 $228 $143 $229 forward $223 $-1 #
edge $-1 $355 3.4579029868490191e-016 $355 6.2831853071796004 $228 $356 forward 7 unknown #
face $-1 $357 $358 $48 $-1 $359 forward single #
loop $-1 $-1 $360 $144 #
plane-surface $-1 33.378906965535975 74.496433389816303 145.89336443316608 -1 0 0 0 0.66913061440640931 0.74314481823134659 forward_v I I I I #
coedge $-1 $361 $362 $363 $364 reversed $145 $-1 #
coedge $-1 $235 $147 $365 $366 reversed $93 $-1 #
coedge $-1 $147 $234 $361 $367 reversed $93 $-1 #
coedge $-1 $363 $368 $147 $237 forward $358 $-1 #
edge $-1 $369 3.8574748043605425 $370 17.205789292807481 $236 $371 forward 7 unknown #
loop $-1 $-1 $243 $148 #
plane-surface $-1 24.039356572522536 -16.237571735174029 45.123045015290799 0 0.66913061440640931 0.74314481823134659 1 0 0 forward_v I I I I #
loop $-1 $-1 $372 $95 #
coedge $-1 $241 $241 $242 $373 reversed $149 $-1 #
coedge $-1 $242 $242 $241 $373 forward $151 $-1 #
coedge $-1 $243 $243 $152 $244 forward $238 $-1 #
edge $-1 $374 3.4579029868490191e-016 $374 6.2831853071796004 $243 $375 forward 7 unknown #
face $-1 $376 $377 $50 $-1 $378 reversed single #
loop $-1 $-1 $251 $153 #
plane-surface $-1 0 0 12.456386353571789 0 0 1 1 0 0 forward_v I I I I #
coedge $-1 $379 $380 $381 $382 reversed $154 $-1 #
coedge $-1 $250 $156 $383 $384 reversed $99 $-1 #
coedge $-1 $156 $249 $379 $385 reversed $99 $-1 #
coedge $-1 $381 $386 $156 $252 forward $246 $-1 #
edge $-1 $387 3.8574748043605425 $388 17.205789292807481 $251 $389 forward 7 unknown #
loop $-1 $-1 $258 $157 #
plane-surface $-1 58.460370258861929 -16.237571735174029 45.123045015290799 0 0.66913061440640931 0.74314481823134659 1 0 0 forward_v I I I I #
loop $-1 $-1 $390 $101 #
coedge $-1 $256 $256 $257 $391 reversed $158 $-1 #
coedge $-1 $257 $257 $256 $391 forward $160 $-1 #
coedge $-1 $258 $258 $161 $259 forward $253 $-1 #
edge $-1 $392 3.4579029868490191e-016 $392 6.2831853071796004 $258 $393 forward 7 unknown #
face $-1 $394 $395 $39 $-1 $396 reversed single #
loop $-1 $-1 $397 $162 #
plane-surface $-1 -67.799920651875368 0 0 1 0 0 0 0 -1 forward_v I I I I #
coedge $-1 $398 $271 $399 $400 forward $163 $-1 #
coedge $-1 $401 $165 $398 $402 forward $105 $-1 #
coedge $-1 $165 $401 $403 $404 forward $105 $-1 #
coedge $-1 $274 $273 $165 $267 reversed $275 $-1 #
edge $-1 $405 -33.390741890547609 $406 33.390741890547609 $266 $407 forward 7 unknown #
coedge $-1 $167 $166 $408 $409 forward $66 $-1 #
coedge $-1 $410 $411 $166 $270 reversed $395 $-1 #
edge $-1 $277 -67.799920651875368 $412 67.799920651875368 $269 $413 forward 7 unknown #
coedge $-1 $263 $414 $167 $272 reversed $163 $-1 #
edge $-1 $415 -67.799920651875368 $276 67.799920651875368 $271 $416 forward 7 unknown #
coedge $-1 $266 $168 $414 $417 forward $275 $-1 #
coedge $-1 $168 $266 $410 $418 reversed $275 $-1 #
loop $-1 $-1 $273 $394 #
vertex $-1 $169 $419 #
vertex $-1 $169 $420 #
straight-curve $-1 67.799920651875368 0 12.456386353571789 0 1 0 I I #
face $-1 $421 $422 $40 $-1 $423 forward single #
loop $-1 $-1 $424 $170 #
plane-surface $-1 -67.799920651875368 0 0 1 0 0 0 0 -1 forward_v I I I I #
coedge $-1 $289 $425 $291 $426 forward $171 $-1 #
coedge $-1 $173 $291 $427 $428 reversed $109 $-1 #
coedge $-1 $429 $287 $173 $285 forward $430 $-1 #
edge $-1 $293 1.4276356130106871 $431 7.8283790313776302 $284 $432 forward 7 unknown #
coedge $-1 $175 $174 $424 $433 reversed $69 $-1 #
coedge $-1 $284 $434 $174 $288 forward $430 $-1 #
edge $-1 $435 -37.314385190614104 $293 -23.656685731908425 $287 $436 forward 7 unknown #
coedge $-1 $437 $282 $175 $290 forward $171 $-1 #
edge $-1 $292 23.656685731908425 $438 37.314385190614104 $289 $439 forward 7 unknown #
coedge $-1 $283 $176 $282 $426 reversed $109 $-1 #
vertex $-1 $290 $440 #
vertex $-1 $288 $441 #
straight-curve $-1 -54.142221193169689 0 6.0556429352048458 0 -1 0 I I #
face $-1 $-1 $307 $41 $-1 $442 forward single #
loop $-1 $-1 $443 $178 #
plane-surface $-1 0 -33.390741890547609 0 0 1 0 0 0 1 forward_v I I I I #
coedge $-1 $444 $445 $446 $447 reversed $179 $-1 #
coedge $-1 $448 $181 $183 $305 forward $113 $-1 #
coedge $-1 $181 $448 $444 $449 forward $113 $-1 #
coedge $-1 $446 $184 $181 $302 forward $307 $-1 #
edge $-1 $309 4.806962364725667 $450 27.059626238819945 $301 $451 forward 7 unknown #
coedge $-1 $452 $453 $182 $304 forward $296 $-1 #
edge $-1 $454 -39.880939082127448 $308 -31.14627148265771 $303 $455 forward 7 unknown #
edge $-1 $309 -11.084452170221693 $454 1.1373479346495045e-014 $183 $456 forward 7 unknown #
coedge $-1 $184 $446 $452 $457 forward $307 $-1 #
loop $-1 $-1 $446 $295 #
vertex $-1 $304 $458 #
vertex $-1 $185 $459 #
straight-curve $-1 -20.740256666498471 -70.122438072282762 12.456386353571787 0 1 0 I I #
coedge $-1 $311 $311 $-1 $460 reversed $188 $-1 #
edge $-1 $461 0 $461 6.2831853071796004 $189 $462 forward 7 unknown #
vertex $-1 $192 $463 #
ellipse-curve $-1 -36.635016576565803 -29.978606860954475 8.08905255383692 0 -0.78801076186113728 0.61566146476048833 2 0 0 1 I I #
coedge $-1 $315 $315 $-1 $464 reversed $195 $-1 #
edge $-1 $465 0 $465 6.2831853071796004 $196 $466 forward 7 unknown #
vertex $-1 $199 $467 #
ellipse-curve $-1 -27.098160630525406 -29.978606860954475 8.08905255383692 0 -0.78801076186113728 0.61566146476048833 2 0 0 1 I I #
face $-1 $-1 $468 $44 $-1 $469 forward single #
loop $-1 $-1 $470 $200 #
plane-surface $-1 0 33.390741890547609 0 0 -1 0 0 0 -1 forward_v I I I I #
coedge $-1 $323 $203 $205 $329 reversed $127 $-1 #
coedge $-1 $203 $322 $470 $471 reversed $127 $-1 #
coedge $-1 $472 $206 $203 $325 forward $201 $-1 #
edge $-1 $332 -17.205789292807481 $473 -3.8574748043605425 $324 $474 forward 7 unknown #
coedge $-1 $205 $204 $475 $476 reversed $81 $-1 #
coedge $-1 $477 $478 $204 $328 forward $468 $-1 #
edge $-1 $479 -48.748186098760392 $331 -30.786257062889071 $327 $480 forward 7 unknown #
edge $-1 $481 -66.781483781095233 $332 -48.819554745223911 $322 $482 forward 7 unknown #
coedge $-1 $206 $472 $477 $483 forward $201 $-1 #
vertex $-1 $328 $484 #
vertex $-1 $207 $485 #
straight-curve $-1 -22.401335400078125 20.042427402100675 12.456386353571784 1 0 0 I I #
coedge $-1 $334 $334 $-1 $486 reversed $210 $-1 #
edge $-1 $487 0 $487 6.2831853071796004 $211 $488 forward 7 unknown #
vertex $-1 $214 $489 #
ellipse-curve $-1 -44.80267080015625 26.716584646324133 6.4469480477233407 0 0.66913061440640931 0.74314481823134659 4 0 0 1 I I #
face $-1 $-1 $490 $46 $-1 $491 reversed single #
loop $-1 $-1 $221 $215 #
plane-surface $-1 0 0 12.456386353571789 0 0 1 1 0 0 forward_v I I I I #
coedge $-1 $492 $493 $494 $495 reversed $216 $-1 #
coedge $-1 $496 $218 $220 $348 forward $136 $-1 #
coedge $-1 $218 $496 $492 $497 forward $136 $-1 #
coedge $-1 $494 $221 $218 $345 forward $339 $-1 #
edge $-1 $351 -14.530378949921865 $498 4.1487218361050076 $344 $499 forward 7 unknown #
coedge $-1 $500 $501 $219 $347 forward $490 $-1 #
edge $-1 $502 -72.509172474708151 $350 -60.490295863011255 $346 $503 forward 7 unknown #
edge $-1 $351 48.819554745223911 $502 66.781483781095233 $220 $504 forward 7 unknown #
coedge $-1 $221 $494 $500 $505 forward $339 $-1 #
vertex $-1 $222 $506 #
vertex $-1 $222 $507 #
straight-curve $-1 -19.721207506830293 37.248216694908152 12.456386353571787 0 -1 0 I I #
coedge $-1 $353 $353 $-1 $508 reversed $225 $-1 #
edge $-1 $509 0 $509 6.2831853071796004 $226 $510 forward 7 unknown #
vertex $-1 $229 $511 #
ellipse-curve $-1 -10.381657113816857 26.716584646324133 6.4469480477233407 0 0.66913061440640931 0.74314481823134659 4 0 0 1 I I #
face $-1 $-1 $512 $48 $-1 $513 reversed single #
loop $-1 $-1 $236 $230 #
plane-surface $-1 0 0 12.456386353571789 0 0 1 1 0 0 forward_v I I I I #
coedge $-1 $514 $515 $516 $517 reversed $231 $-1 #
coedge $-1 $518 $233 $235 $367 forward $145 $-1 #
coedge $-1 $233 $518 $514 $519 forward $145 $-1 #
coedge $-1 $516 $236 $233 $364 forward $358 $-1 #
edge $-1 $370 2.6801278932478318 $520 21.359228679274707 $363 $521 forward 7 unknown #
coedge $-1 $522 $523 $234 $366 forward $512 $-1 #
edge $-1 $524 -72.509172474708151 $369 -60.490295863011255 $365 $525 forward 7 unknown #
edge $-1 $370 48.819554745223911 $524 66.781483781095233 $235 $526 forward 7 unknown #
coedge $-1 $236 $516 $522 $527 forward $358 $-1 #
vertex $-1 $237 $528 #
vertex $-1 $237 $529 #
straight-curve $-1 14.6998061795091 37.248216694908152 12.456386353571787 0 -1 0 I I #
coedge $-1 $372 $372 $-1 $530 reversed $240 $-1 #
edge $-1 $531 0 $531 6.2831853071796004 $241 $532 forward 7 unknown #
vertex $-1 $244 $533 #
ellipse-curve $-1 24.039356572522536 26.716584646324133 6.4469480477233407 0 0.66913061440640931 0.74314481823134659 4 0 0 1 I I #
face $-1 $-1 $534 $50 $-1 $535 reversed single #
loop $-1 $-1 $536 $245 #
plane-surface $-1 67.799920651875368 0 0 -1 0 0 0 0 1 forward_v I I I I #
coedge $-1 $537 $248 $250 $385 forward $154 $-1 #
coedge $-1 $248 $537 $536 $538 reversed $154 $-1 #
coedge $-1 $539 $251 $248 $382 forward $246 $-1 #
edge $-1 $388 19.890634736417525 $540 38.569735522444404 $381 $541 forward 7 unknown #
coedge $-1 $542 $543 $249 $384 forward $534 $-1 #
edge $-1 $544 -72.509172474708151 $387 -60.490295863011255 $383 $545 forward 7 unknown #
edge $-1 $388 48.819554745223911 $544 66.781483781095233 $250 $546 forward 7 unknown #
coedge $-1 $251 $539 $542 $547 forward $246 $-1 #
vertex $-1 $384 $548 #
vertex $-1 $252 $549 #
straight-curve $-1 49.120819865848489 37.248216694908152 12.456386353571787 0 -1 0 I I #
coedge $-1 $390 $390 $-1 $550 reversed $255 $-1 #
edge $-1 $551 0 $551 6.2831853071796004 $256 $552 forward 7 unknown #
vertex $-1 $259 $553 #
ellipse-curve $-1 58.460370258861929 26.716584646324133 6.4469480477233407 0 0.66913061440640931 0.74314481823134659 4 0 0 1 I I #
face $-1 $-1 $275 $39 $-1 $554 reversed single #
loop $-1 $-1 $410 $260 #
plane-surface $-1 0 33.390741890547609 0 0 -1 0 0 0 -1 forward_v I I I I #
coedge $-1 $555 $408 $411 $556 forward $261 $-1 #
coedge $-1 $414 $263 $264 $402 reversed $163 $-1 #
coedge $-1 $408 $555 $263 $400 reversed $261 $-1 #
edge $-1 $415 -12.456386353571789 $557 12.456386353571789 $399 $558 forward 7 unknown #
coedge $-1 $265 $264 $555 $559 forward $105 $-1 #
edge $-1 $406 -67.799920651875368 $557 67.799920651875368 $398 $560 forward 7 unknown #
coedge $-1 $411 $410 $265 $404 reversed $395 $-1 #
edge $-1 $561 -67.799920651875368 $405 67.799920651875368 $403 $562 forward 7 unknown #
vertex $-1 $267 $563 #
vertex $-1 $417 $564 #
straight-curve $-1 67.799920651875368 0 -12.456386353571789 0 -1 0 I I #
coedge $-1 $397 $399 $268 $409 reversed $261 $-1 #
edge $-1 $412 -33.390741890547609 $415 33.390741890547609 $408 $565 forward 7 unknown #
coedge $-1 $403 $269 $274 $418 forward $395 $-1 #
coedge $-1 $269 $403 $397 $556 reversed $395 $-1 #
vertex $-1 $270 $566 #
straight-curve $-1 0 33.390741890547609 12.456386353571789 -1 0 0 I I #
coedge $-1 $271 $398 $273 $417 reversed $163 $-1 #
vertex $-1 $409 $567 #
straight-curve $-1 0 -33.390741890547609 12.456386353571789 1 0 0 I I #
edge $-1 $276 -12.456386353571789 $406 12.456386353571789 $273 $568 forward 7 unknown #
edge $-1 $277 -12.456386353571789 $405 12.456386353571789 $274 $569 forward 7 unknown #
point $-1 67.799920651875368 -33.390741890547609 12.456386353571789 #
point $-1 67.799920651875368 33.390741890547609 12.456386353571789 #
face $-1 $-1 $430 $40 $-1 $570 reversed single #
loop $-1 $-1 $427 $279 #
plane-surface $-1 0 0 12.456386353571789 0 0 1 1 0 0 forward_v I I I I #
coedge $-1 $571 $572 $286 $433 forward $280 $-1 #
coedge $-1 $282 $437 $573 $574 reversed $171 $-1 #
edge $-1 $575 -7.8283790313776302 $292 -1.4276356130106871 $282 $576 forward 7 unknown #
coedge $-1 $573 $577 $283 $428 forward $422 $-1 #
edge $-1 $431 -33.390741890547609 $575 33.390741890547609 $427 $578 forward 7 unknown #
coedge $-1 $434 $284 $577 $579 reversed $430 $-1 #
loop $-1 $-1 $284 $421 #
vertex $-1 $285 $580 #
straight-curve $-1 -54.142221193169689 -33.390741890547609 4.6280073221941587 0 0 1 I I #
edge $-1 $438 -33.390741890547609 $435 33.390741890547609 $424 $581 forward 7 unknown #
coedge $-1 $287 $429 $571 $582 forward $430 $-1 #
vertex $-1 $433 $583 #
straight-curve $-1 -30.485535461261264 -33.390741890547609 6.0556429352048458 1 0 0 I I #
coedge $-1 $425 $289 $572 $584 reversed $171 $-1 #
vertex $-1 $433 $585 #
straight-curve $-1 -30.485535461261264 33.390741890547609 6.0556429352048458 -1 0 0 I I #
point $-1 -54.142221193169689 33.390741890547609 6.0556429352048458 #
point $-1 -54.142221193169689 -33.390741890547609 6.0556429352048458 #
plane-surface $-1 0 0 12.456386353571789 0 0 1 1 0 0 forward_v I I I I #
coedge $-1 $453 $452 $445 $586 forward $296 $-1 #
coedge $-1 $445 $298 $300 $449 reversed $179 $-1 #
coedge $-1 $298 $444 $443 $586 reversed $179 $-1 #
coedge $-1 $306 $301 $298 $447 forward $307 $-1 #
edge $-1 $450 -43.555966240921421 $587 -36.731696181735153 $446 $588 forward 7 unknown #
coedge $-1 $300 $299 $453 $589 reversed $113 $-1 #
edge $-1 $590 -1.1373479346495045e-014 $450 11.084452170221693 $444 $591 forward 7 unknown #
vertex $-1 $302 $592 #
straight-curve $-1 -15.933294301772804 -26.566471831361341 12.456386353571789 -1 0 0 I I #
coedge $-1 $443 $303 $306 $457 reversed $296 $-1 #
coedge $-1 $303 $443 $448 $589 forward $296 $-1 #
vertex $-1 $304 $593 #
straight-curve $-1 -20.740256666498471 -33.390741890547609 43.602657836229497 0 0 1 I I #
straight-curve $-1 -20.740256666498471 -33.390741890547602 3.7217187541020564 0 -0.61566146476048833 -0.78801076186113728 I I #
edge $-1 $587 -42.992920540592749 $308 -20.740256666498471 $452 $594 forward 7 unknown #
point $-1 -20.740256666498471 -33.390741890547609 12.456386353571789 #
point $-1 -20.740256666498471 -26.566471831361341 12.456386353571789 #
edge $-1 $595 1 $595 0 $311 $-1 forward 7 unknown #
vertex $-1 $312 $596 #
ellipse-curve $-1 -36.635016576565803 -23.821555825668604 3.2786372112388849 0 -0.78801076186113728 0.61566146476048833 2 0 0 1 I I #
point $-1 -34.635016576565803 -29.978606860954475 8.0890525538369182 #
edge $-1 $597 1 $597 0 $315 $-1 forward 7 unknown #
vertex $-1 $316 $598 #
ellipse-curve $-1 -27.098160630525406 -23.821555825668604 3.2786372112388849 0 -0.78801076186113728 0.61566146476048833 2 0 0 1 I I #
point $-1 -25.098160630525406 -29.978606860954475 8.0890525538369182 #
loop $-1 $-1 $327 $319 #
plane-surface $-1 -54.142221193169689 0 9.2560146443883173 -1 0 0 0 0 1 forward_v I I I I #
coedge $-1 $475 $599 $323 $471 forward $320 $-1 #
edge $-1 $473 60.490295863011255 $481 72.509172474708151 $470 $600 forward 7 unknown #
coedge $-1 $330 $324 $599 $601 forward $201 $-1 #
vertex $-1 $601 $602 #
straight-curve $-1 -35.46312040714281 37.248216694908152 12.456386353571787 0 1 0 I I #
coedge $-1 $603 $470 $326 $476 forward $320 $-1 #
edge $-1 $481 13.061785007064685 $479 31.740885793091564 $475 $604 forward 7 unknown #
coedge $-1 $478 $327 $330 $483 reversed $468 $-1 #
coedge $-1 $327 $477 $603 $605 reversed $468 $-1 #
vertex $-1 $605 $606 #
straight-curve $-1 -54.142221193169689 -2.8362200069235417 33.056413457336411 0 -0.74314481823134659 0.66913061440640931 I I #
vertex $-1 $476 $607 #
straight-curve $-1 -35.46312040714281 -16.237571735174029 45.123045015290799 0 -0.74314481823134659 0.66913061440640931 I I #
edge $-1 $608 -33.390741890547609 $331 -20.042427402100671 $330 $609 forward 7 unknown #
point $-1 -54.142221193169689 20.042427402100671 12.456386353571787 #
point $-1 -35.46312040714281 20.042427402100671 12.456386353571787 #
edge $-1 $610 1 $610 0 $334 $-1 forward 7 unknown #
vertex $-1 $335 $611 #
ellipse-curve $-1 -44.80267080015625 21.97330687930662 1.1790045130847115 0 0.66913061440640931 0.74314481823134659 4 0 0 1 I I #
point $-1 -40.80267080015625 26.716584646324144 6.4469480477233505 #
loop $-1 $-1 $346 $338 #
plane-surface $-1 0 33.390741890547609 0 0 -1 0 0 0 -1 forward_v I I I I #
coedge $-1 $493 $341 $343 $497 reversed $216 $-1 #
coedge $-1 $341 $492 $612 $613 reversed $216 $-1 #
coedge $-1 $349 $344 $341 $495 forward $339 $-1 #
edge $-1 $498 -17.205789292807481 $614 -3.8574748043605425 $494 $615 forward 7 unknown #
coedge $-1 $343 $342 $501 $616 reversed $136 $-1 #
edge $-1 $617 -66.781483781095233 $498 -48.819554745223911 $492 $618 forward 7 unknown #
vertex $-1 $345 $619 #
straight-curve $-1 -5.1908285569084285 20.042427402100675 12.456386353571784 1 0 0 I I #
coedge $-1 $612 $346 $349 $505 reversed $490 $-1 #
coedge $-1 $346 $612 $496 $616 forward $490 $-1 #
vertex $-1 $347 $620 #
straight-curve $-1 -19.721207506830293 33.390741890547609 72.946682216583042 0 0 1 I I #
straight-curve $-1 -19.721207506830293 -16.237571735174029 45.123045015290799 0 0.74314481823134659 -0.66913061440640931 I I #
edge $-1 $614 1.0421067208034209 $350 19.721207506830293 $500 $621 forward 7 unknown #
point $-1 -19.721207506830293 33.390741890547609 12.456386353571789 #
point $-1 -19.721207506830293 20.042427402100671 12.456386353571787 #
edge $-1 $622 1 $622 0 $353 $-1 forward 7 unknown #
vertex $-1 $354 $623 #
ellipse-curve $-1 -10.381657113816857 21.97330687930662 1.1790045130847115 0 0.66913061440640931 0.74314481823134659 4 0 0 1 I I #
point $-1 -6.381657113816857 26.716584646324144 6.4469480477233505 #
loop $-1 $-1 $365 $357 #
plane-surface $-1 0 33.390741890547609 0 0 -1 0 0 0 -1 forward_v I I I I #
coedge $-1 $515 $360 $362 $519 reversed $231 $-1 #
coedge $-1 $360 $514 $624 $625 reversed $231 $-1 #
coedge $-1 $368 $363 $360 $517 forward $358 $-1 #
edge $-1 $520 -17.205789292807481 $626 -3.8574748043605425 $516 $627 forward 7 unknown #
coedge $-1 $362 $361 $523 $628 reversed $145 $-1 #
edge $-1 $629 -66.781483781095233 $520 -48.819554745223911 $514 $630 forward 7 unknown #
vertex $-1 $364 $631 #
straight-curve $-1 12.019678286261268 20.042427402100675 12.456386353571784 1 0 0 I I #
coedge $-1 $624 $365 $368 $527 reversed $512 $-1 #
coedge $-1 $365 $624 $518 $628 forward $512 $-1 #
vertex $-1 $366 $632 #
straight-curve $-1 14.6998061795091 33.390741890547609 72.946682216583042 0 0 1 I I #
straight-curve $-1 14.6998061795091 -16.237571735174029 45.123045015290799 0 0.74314481823134659 -0.66913061440640931 I I #
edge $-1 $626 -33.378906965535975 $369 -14.6998061795091 $522 $633 forward 7 unknown #
point $-1 14.6998061795091 33.390741890547609 12.456386353571789 #
point $-1 14.6998061795091 20.042427402100671 12.456386353571787 #
edge $-1 $634 1 $634 0 $372 $-1 forward 7 unknown #
vertex $-1 $373 $635 #
ellipse-curve $-1 24.039356572522536 21.97330687930662 1.1790045130847115 0 0.66913061440640931 0.74314481823134659 4 0 0 1 I I #
point $-1 28.039356572522536 26.716584646324144 6.4469480477233505 #
loop $-1 $-1 $383 $376 #
plane-surface $-1 0 33.390741890547609 0 0 -1 0 0 0 -1 forward_v I I I I #
coedge $-1 $636 $637 $380 $538 forward $377 $-1 #
coedge $-1 $380 $379 $543 $638 reversed $154 $-1 #
edge $-1 $540 27.689515679911938 $639 45.651444715783256 $536 $640 forward 7 unknown #
coedge $-1 $386 $381 $637 $641 forward $246 $-1 #
vertex $-1 $641 $642 #
straight-curve $-1 29.230185129430964 20.042427402100675 12.456386353571784 1 0 0 I I #
coedge $-1 $643 $383 $386 $547 reversed $534 $-1 #
coedge $-1 $383 $643 $537 $638 forward $534 $-1 #
vertex $-1 $384 $644 #
straight-curve $-1 49.120819865848489 33.390741890547609 72.946682216583042 0 0 1 I I #
straight-curve $-1 49.120819865848489 -16.237571735174029 45.123045015290799 0 0.74314481823134659 -0.66913061440640931 I I #
edge $-1 $645 -67.799920651875368 $387 -49.120819865848489 $542 $646 forward 7 unknown #
point $-1 49.120819865848489 33.390741890547609 12.456386353571789 #
point $-1 49.120819865848489 20.042427402100671 12.456386353571787 #
edge $-1 $647 1 $647 0 $390 $-1 forward 7 unknown #
vertex $-1 $391 $648 #
ellipse-curve $-1 58.460370258861929 21.97330687930662 1.1790045130847115 0 0.66913061440640931 0.74314481823134659 4 0 0 1 I I #
point $-1 62.460370258861929 26.716584646324144 6.4469480477233505 #
plane-surface $-1 67.799920651875368 0 0 -1 0 0 0 0 1 forward_v I I I I #
coedge $-1 $399 $397 $401 $559 reversed $261 $-1 #
edge $-1 $412 -12.456386353571789 $561 12.456386353571789 $411 $649 forward 7 unknown #
vertex $-1 $559 $650 #
straight-curve $-1 -67.799920651875368 -33.390741890547609 0 0 0 -1 I I #
edge $-1 $557 -33.390741890547609 $561 33.390741890547609 $555 $651 forward 7 unknown #
straight-curve $-1 0 -33.390741890547609 -12.456386353571789 -1 0 0 I I #
vertex $-1 $404 $652 #
straight-curve $-1 0 33.390741890547609 -12.456386353571789 1 0 0 I I #
point $-1 67.799920651875368 33.390741890547609 -12.456386353571789 #
point $-1 67.799920651875368 -33.390741890547609 -12.456386353571789 #
straight-curve $-1 -67.799920651875368 0 12.456386353571789 0 -1 0 I I #
point $-1 -67.799920651875368 33.390741890547609 12.456386353571789 #
point $-1 -67.799920651875368 -33.390741890547609 12.456386353571789 #
straight-curve $-1 67.799920651875368 -33.390741890547609 0 0 0 -1 I I #
straight-curve $-1 67.799920651875368 33.390741890547609 0 0 0 -1 I I #
plane-surface $-1 0 -33.390741890547609 0 0 1 0 0 0 1 forward_v I I I I #
coedge $-1 $653 $424 $434 $582 reversed $280 $-1 #
coedge $-1 $424 $653 $437 $584 forward $280 $-1 #
coedge $-1 $654 $427 $425 $574 forward $422 $-1 #
edge $-1 $575 54.142221193169689 $655 67.799920651875368 $425 $656 forward 7 unknown #
vertex $-1 $574 $657 #
straight-curve $-1 -54.142221193169689 33.390741890547609 4.6280073221941587 0 0 -1 I I #
coedge $-1 $427 $654 $429 $579 forward $422 $-1 #
straight-curve $-1 -54.142221193169689 0 12.456386353571789 0 1 0 I I #
edge $-1 $658 -67.799920651875368 $431 -54.142221193169689 $429 $659 forward 7 unknown #
point $-1 -54.142221193169689 -33.390741890547609 12.456386353571789 #
straight-curve $-1 -67.799920651875368 0 6.0556429352048458 0 -1 0 I I #
edge $-1 $658 -12.456386353571789 $435 -6.0556429352048458 $571 $660 forward 7 unknown #
point $-1 -67.799920651875368 -33.390741890547609 6.0556429352048458 #
edge $-1 $655 -12.456386353571789 $438 -6.0556429352048458 $437 $661 forward 7 unknown #
point $-1 -67.799920651875368 33.390741890547609 6.0556429352048458 #
edge $-1 $587 31.14627148265771 $590 39.880939082127448 $443 $662 forward 7 unknown #
vertex $-1 $457 $663 #
straight-curve $-1 -42.992920540592749 -70.122438072282762 12.456386353571787 0 -1 0 I I #
edge $-1 $590 -27.059626238819945 $454 -4.806962364725667 $453 $664 forward 7 unknown #
vertex $-1 $589 $665 #
straight-curve $-1 -42.992920540592749 -33.390741890547602 3.7217187541020564 0 0.61566146476048833 0.78801076186113728 I I #
point $-1 -42.992920540592749 -26.566471831361341 12.456386353571789 #
point $-1 -20.740256666498471 -33.390741890547609 3.7217187541020476 #
straight-curve $-1 0 -33.390741890547609 12.456386353571789 1 0 0 I I #
vertex $-1 $460 $666 #
point $-1 -34.635016576565803 -23.821555825668604 3.2786372112388849 #
vertex $-1 $464 $667 #
point $-1 -25.098160630525406 -23.821555825668604 3.2786372112388849 #
coedge $-1 $470 $603 $472 $601 reversed $320 $-1 #
straight-curve $-1 -35.46312040714281 33.390741890547609 72.946682216583042 0 0 -1 I I #
edge $-1 $473 35.46312040714281 $608 54.142221193169689 $599 $668 forward 7 unknown #
point $-1 -35.46312040714281 33.390741890547609 12.456386353571789 #
coedge $-1 $599 $475 $478 $605 forward $320 $-1 #
straight-curve $-1 -22.401335400078125 33.390741890547602 0.43750974187488723 -1 0 0 I I #
edge $-1 $479 -72.509172474708151 $608 -60.490295863011255 $603 $669 forward 7 unknown #
point $-1 -54.142221193169689 33.390741890547609 0.43750974187489078 #
point $-1 -35.46312040714281 33.390741890547609 0.43750974187489078 #
vertex $-1 $483 $670 #
straight-curve $-1 -54.142221193169689 0 12.456386353571789 0 -1 0 I I #
vertex $-1 $486 $671 #
point $-1 -40.80267080015625 21.97330687930662 1.1790045130847115 #
coedge $-1 $501 $500 $493 $613 forward $490 $-1 #
edge $-1 $614 60.490295863011255 $617 72.509172474708151 $612 $672 forward 7 unknown #
vertex $-1 $505 $673 #
straight-curve $-1 -1.0421067208034209 37.248216694908152 12.456386353571787 0 1 0 I I #
edge $-1 $617 -4.1487218361050076 $502 14.530378949921865 $501 $674 forward 7 unknown #
vertex $-1 $616 $675 #
straight-curve $-1 -1.0421067208034209 -16.237571735174029 45.123045015290799 0 -0.74314481823134659 0.66913061440640931 I I #
point $-1 -1.0421067208034209 20.042427402100671 12.456386353571787 #
point $-1 -19.721207506830293 33.390741890547609 0.43750974187489078 #
straight-curve $-1 0 33.390741890547609 12.456386353571789 -1 0 0 I I #
vertex $-1 $508 $676 #
point $-1 -6.381657113816857 21.97330687930662 1.1790045130847115 #
coedge $-1 $523 $522 $515 $625 forward $512 $-1 #
edge $-1 $626 60.490295863011255 $629 72.509172474708151 $624 $677 forward 7 unknown #
vertex $-1 $527 $678 #
straight-curve $-1 33.378906965535975 37.248216694908152 12.456386353571787 0 1 0 I I #
edge $-1 $629 -21.359228679274707 $524 -2.6801278932478318 $523 $679 forward 7 unknown #
vertex $-1 $628 $680 #
straight-curve $-1 33.378906965535975 -16.237571735174029 45.123045015290799 0 -0.74314481823134659 0.66913061440640931 I I #
point $-1 33.378906965535975 20.042427402100671 12.456386353571787 #
point $-1 14.6998061795091 33.390741890547609 0.43750974187489078 #
straight-curve $-1 0 33.390741890547609 12.456386353571789 -1 0 0 I I #
vertex $-1 $530 $681 #
point $-1 28.039356572522536 21.97330687930662 1.1790045130847115 #
coedge $-1 $637 $536 $643 $682 reversed $377 $-1 #
coedge $-1 $536 $636 $539 $641 reversed $377 $-1 #
edge $-1 $639 -38.569735522444404 $544 -19.890634736417525 $543 $683 forward 7 unknown #
vertex $-1 $538 $684 #
straight-curve $-1 67.799920651875368 -0.53489269476150803 30.984288993087166 0 0.74314481823134659 -0.66913061440640931 I I #
edge $-1 $540 20.042427402100671 $645 33.390741890547609 $637 $685 forward 7 unknown #
point $-1 67.799920651875368 20.042427402100671 12.456386353571787 #
coedge $-1 $543 $542 $636 $682 forward $534 $-1 #
point $-1 49.120819865848489 33.390741890547609 0.43750974187489078 #
vertex $-1 $641 $686 #
straight-curve $-1 0 33.390741890547609 12.456386353571789 -1 0 0 I I #
vertex $-1 $550 $687 #
point $-1 62.460370258861929 21.97330687930662 1.1790045130847115 #
straight-curve $-1 -67.799920651875368 33.390741890547609 0 0 0 -1 I I #
point $-1 -67.799920651875368 -33.390741890547609 -12.456386353571789 #
straight-curve $-1 -67.799920651875368 0 -12.456386353571789 0 1 0 I I #
point $-1 -67.799920651875368 33.390741890547609 -12.456386353571789 #
coedge $-1 $572 $571 $654 $688 reversed $280 $-1 #
coedge $-1 $577 $573 $653 $688 forward $422 $-1 #
vertex $-1 $574 $689 #
straight-curve $-1 0 33.390741890547609 12.456386353571789 -1 0 0 I I #
point $-1 -54.142221193169689 33.390741890547609 12.456386353571789 #
vertex $-1 $688 $690 #
straight-curve $-1 0 -33.390741890547609 12.456386353571789 1 0 0 I I #
straight-curve $-1 -67.799920651875368 -33.390741890547609 0 0 0 -1 I I #
straight-curve $-1 -67.799920651875368 33.390741890547609 0 0 0 -1 I I #
straight-curve $-1 -42.992920540592749 -33.390741890547609 43.602657836229497 0 0 -1 I I #
point $-1 -42.992920540592749 -33.390741890547609 12.456386353571789 #
straight-curve $-1 -15.933294301772804 -33.390741890547609 3.7217187541020413 1 0 0 I I #
point $-1 -42.992920540592749 -33.390741890547609 3.7217187541020476 #
point $-1 -36.635016576565803 -22.245534301946329 2.0473142817179086 #
point $-1 -27.098160630525406 -22.245534301946329 2.0473142817179086 #
straight-curve $-1 0 33.390741890547609 12.456386353571789 -1 0 0 I I #
straight-curve $-1 -54.142221193169689 33.390741890547609 72.946682216583042 0 0 1 I I #
point $-1 -54.142221193169689 33.390741890547609 12.456386353571789 #
point $-1 -44.80267080015625 19.296784421680982 -1.7935747598406753 #
straight-curve $-1 -1.0421067208034209 33.390741890547609 72.946682216583042 0 0 -1 I I #
point $-1 -1.0421067208034209 33.390741890547609 12.456386353571789 #
straight-curve $-1 -5.1908285569084285 33.390741890547602 0.43750974187488723 -1 0 0 I I #
point $-1 -1.0421067208034209 33.390741890547609 0.43750974187489078 #
point $-1 -10.381657113816857 19.296784421680982 -1.7935747598406753 #
straight-curve $-1 33.378906965535975 33.390741890547609 72.946682216583042 0 0 -1 I I #
point $-1 33.378906965535975 33.390741890547609 12.456386353571789 #
straight-curve $-1 12.019678286261268 33.390741890547602 0.43750974187488723 -1 0 0 I I #
point $-1 33.378906965535975 33.390741890547609 0.43750974187489078 #
point $-1 24.039356572522536 19.296784421680982 -1.7935747598406753 #
edge $-1 $645 -12.456386353571789 $639 -0.43750974187489078 $636 $691 forward 7 unknown #
straight-curve $-1 29.230185129430964 33.390741890547602 0.43750974187488723 -1 0 0 I I #
point $-1 67.799920651875368 33.390741890547609 0.43750974187489078 #
straight-curve $-1 67.799920651875368 0 12.456386353571789 0 1 0 I I #
point $-1 67.799920651875368 33.390741890547609 12.456386353571789 #
point $-1 58.460370258861929 19.296784421680982 -1.7935747598406753 #
edge $-1 $655 -33.390741890547609 $658 33.390741890547609 $653 $692 forward 7 unknown #
point $-1 -67.799920651875368 33.390741890547609 12.456386353571789 #
point $-1 -67.799920651875368 -33.390741890547609 12.456386353571789 #
straight-curve $-1 67.799920651875368 33.390741890547609 0 0 0 -1 I I #
straight-curve $-1 -67.799920651875368 0 12.456386353571789 0 -1 0 I I #
End-of-ACIS-data 