500 0 15 0           
7 Unknown 11 ACIS 5.0 NT 24 Fri Mar 26 17:57:52 1999 
-1 9.9999999999999995e-007 1e-010 
body $-1 $15 $-1 $16 #
body $-1 $17 $-1 $18 #
body $-1 $19 $-1 $20 #
body $-1 $21 $-1 $22 #
body $-1 $23 $-1 $24 #
body $-1 $25 $-1 $26 #
body $-1 $27 $-1 $28 #
body $-1 $29 $-1 $30 #
body $-1 $31 $-1 $32 #
body $-1 $33 $-1 $34 #
body $-1 $35 $-1 $36 #
body $-1 $37 $-1 $38 #
body $-1 $39 $-1 $40 #
body $-1 $41 $-1 $42 #
body $-1 $43 $-1 $44 #
lump $-1 $-1 $45 $0 #
transform $-1 1 0 0 0 1 0 0 0 1 68.799707022309036 38.940587982007678 16.827748398279688 1 rotate no_reflect no_shear #
lump $-1 $-1 $46 $1 #
transform $-1 1 0 0 0 1 0 0 0 1 68.799707022309036 38.940587982007678 16.827748398279688 1 rotate no_reflect no_shear #
lump $-1 $-1 $47 $2 #
transform $-1 1 0 0 0 1 0 0 0 1 68.799707022309036 38.940587982007678 16.827748398279688 1 rotate no_reflect no_shear #
lump $-1 $-1 $48 $3 #
transform $-1 1 0 0 0 1 0 0 0 1 68.799707022309036 38.940587982007678 16.827748398279688 1 rotate no_reflect no_shear #
lump $-1 $-1 $49 $4 #
transform $-1 1 0 0 0 1 0 0 0 1 68.799707022309036 38.940587982007678 16.827748398279688 1 rotate no_reflect no_shear #
lump $-1 $-1 $50 $5 #
transform $-1 1 0 0 0 1 0 0 0 1 68.799707022309036 38.940587982007678 16.827748398279688 1 rotate no_reflect no_shear #
lump $-1 $-1 $51 $6 #
transform $-1 1 0 0 0 1 0 0 0 1 68.799707022309036 38.940587982007678 16.827748398279688 1 rotate no_reflect no_shear #
lump $-1 $-1 $52 $7 #
transform $-1 1 0 0 0 1 0 0 0 1 68.799707022309036 38.940587982007678 16.827748398279688 1 rotate no_reflect no_shear #
lump $-1 $-1 $53 $8 #
transform $-1 1 0 0 0 1 0 0 0 1 68.799707022309036 38.940587982007678 16.827748398279688 1 rotate no_reflect no_shear #
lump $-1 $-1 $54 $9 #
transform $-1 1 0 0 0 1 0 0 0 1 68.799707022309036 38.940587982007678 16.827748398279688 1 rotate no_reflect no_shear #
lump $-1 $-1 $55 $10 #
transform $-1 1 0 0 0 1 0 0 0 1 68.799707022309036 38.940587982007678 16.827748398279688 1 rotate no_reflect no_shear #
lump $-1 $-1 $56 $11 #
transform $-1 1 0 0 0 1 0 0 0 1 68.799707022309036 38.940587982007678 16.827748398279688 1 rotate no_reflect no_shear #
lump $-1 $-1 $57 $12 #
transform $-1 1 0 0 0 1 0 0 0 1 68.799707022309036 38.940587982007678 16.827748398279688 1 rotate no_reflect no_shear #
lump $-1 $-1 $58 $13 #
transform $-1 1 0 0 0 1 0 0 0 1 68.799707022309036 38.940587982007678 16.827748398279688 1 rotate no_reflect no_shear #
lump $-1 $-1 $59 $14 #
transform $-1 1 0 0 0 1 0 0 0 1 68.799707022309036 38.940587982007678 16.827748398279688 1 rotate no_reflect no_shear #
shell $-1 $-1 $-1 $60 $-1 $15 #
shell $-1 $-1 $-1 $61 $-1 $17 #
shell $-1 $-1 $-1 $62 $-1 $19 #
shell $-1 $-1 $-1 $63 $-1 $21 #
shell $-1 $-1 $-1 $64 $-1 $23 #
shell $-1 $-1 $-1 $65 $-1 $25 #
shell $-1 $-1 $-1 $66 $-1 $27 #
shell $-1 $-1 $-1 $67 $-1 $29 #
shell $-1 $-1 $-1 $68 $-1 $31 #
shell $-1 $-1 $-1 $69 $-1 $33 #
shell $-1 $-1 $-1 $70 $-1 $35 #
shell $-1 $-1 $-1 $71 $-1 $37 #
shell $-1 $-1 $-1 $72 $-1 $39 #
shell $-1 $-1 $-1 $73 $-1 $41 #
shell $-1 $-1 $-1 $74 $-1 $43 #
face $-1 $75 $76 $45 $-1 $77 forward single #
face $-1 $78 $79 $46 $-1 $80 forward single #
face $-1 $81 $82 $47 $-1 $83 reversed single #
face $-1 $84 $85 $48 $-1 $86 reversed single #
face $-1 $87 $88 $49 $-1 $89 forward single #
face $-1 $90 $91 $50 $-1 $92 forward single #
face $-1 $93 $94 $51 $-1 $95 reversed single #
face $-1 $96 $97 $52 $-1 $98 forward single #
face $-1 $99 $100 $53 $-1 $101 forward single #
face $-1 $102 $103 $54 $-1 $104 reversed single #
face $-1 $105 $106 $55 $-1 $107 forward single #
face $-1 $108 $109 $56 $-1 $110 forward single #
face $-1 $111 $112 $57 $-1 $113 reversed single #
face $-1 $114 $115 $58 $-1 $116 forward single #
face $-1 $117 $118 $59 $-1 $119 forward single #
face $-1 $120 $121 $45 $-1 $122 reversed single #
loop $-1 $-1 $123 $60 #
plane-surface $-1 0 0 16.827748398279688 0 0 1 1 0 0 forward_v I I I I #
face $-1 $124 $125 $46 $-1 $126 reversed single #
loop $-1 $-1 $127 $61 #
plane-surface $-1 0 -31.922158169759815 -0.097470674789327028 0 0 1 1 0 0 forward_v I I I I #
face $-1 $128 $129 $47 $-1 $130 reversed single #
loop $-1 $-1 $131 $62 #
plane-surface $-1 -37.283024391047533 17.244856020924278 0 0 1 0 0 0 1 forward_v I I I I #
face $-1 $132 $133 $48 $-1 $134 reversed single #
loop $-1 $-1 $135 $63 #
plane-surface $-1 68.799709280107066 -3.8294361682938387 207.95512739902821 0 -1 0 -0.70710678939079041 0 -0.70710677298230451 forward_v I I I I #
face $-1 $136 $137 $49 $-1 $138 forward single #
loop $-1 $139 $140 $64 #
cone-surface $-1 66.712364409975763 -11.316506016231138 14.740405753917919 -0.70710678939079041 0 -0.70710677298230451 0.35355338649115226 0 -0.35355339469539521 1 I I 0 1 0.5 forward I I I I #
face $-1 $141 $142 $50 $-1 $143 forward single #
loop $-1 $144 $145 $65 #
cone-surface $-1 66.712364409975763 -6.8242641074687569 14.740405753917919 -0.70710678939079041 0 -0.70710677298230451 0.35355338649115226 0 -0.35355339469539521 1 I I 0 1 0.5 forward I I I I #
face $-1 $146 $147 $51 $-1 $148 reversed single #
loop $-1 $-1 $149 $66 #
plane-surface $-1 68.799709280107066 17.244856020924274 207.95512739902821 0 -1 0 -0.70710678939079041 0 -0.70710677298230451 forward_v I I I I #
face $-1 $150 $151 $52 $-1 $152 forward single #
loop $-1 $153 $154 $67 #
cone-surface $-1 66.712364409975763 9.7577861729869753 14.740405753917919 -0.70710678939079041 0 -0.70710677298230451 0.35355338649115226 0 -0.35355339469539521 1 I I 0 1 0.5 forward I I I I #
face $-1 $155 $156 $53 $-1 $157 forward single #
loop $-1 $158 $159 $68 #
cone-surface $-1 66.712364409975763 14.250028081749356 14.740405753917919 -0.70710678939079041 0 -0.70710677298230451 0.35355338649115226 0 -0.35355339469539521 1 I I 0 1 0.5 forward I I I I #
face $-1 $160 $161 $54 $-1 $162 reversed single #
loop $-1 $-1 $163 $69 #
plane-surface $-1 -166.09718690945294 -14.311333955406056 110.65764751188431 0 1 0 -0.70710678939079041 0 0.70710677298230451 forward_v I I I I #
face $-1 $164 $165 $55 $-1 $166 forward single #
loop $-1 $167 $168 $70 #
cone-surface $-1 -66.712364409975763 -11.316506016231138 14.740405753917909 0.70710678939079041 0 -0.70710677298230451 0.35355338649115226 0 0.35355339469539521 1 I I 0 1 0.5 forward I I I I #
face $-1 $169 $170 $56 $-1 $171 forward single #
loop $-1 $172 $173 $71 #
cone-surface $-1 -66.712364409975763 -6.8242641074687569 14.740405753917909 0.70710678939079041 0 -0.70710677298230451 0.35355338649115226 0 0.35355339469539521 1 I I 0 1 0.5 forward I I I I #
face $-1 $174 $175 $57 $-1 $176 reversed single #
loop $-1 $-1 $177 $72 #
plane-surface $-1 -166.09718690945294 6.7629582338120571 110.65764751188431 0 1 0 -0.70710678939079041 0 0.70710677298230451 forward_v I I I I #
face $-1 $178 $179 $58 $-1 $180 forward single #
loop $-1 $181 $182 $73 #
cone-surface $-1 -66.712364409975763 9.7577861729869753 14.740405753917909 0.70710678939079041 0 -0.70710677298230451 0.35355338649115226 0 0.35355339469539521 1 I I 0 1 0.5 forward I I I I #
face $-1 $183 $184 $59 $-1 $185 forward single #
loop $-1 $186 $187 $74 #
cone-surface $-1 -66.712364409975763 14.250028081749356 14.740405753917909 0.70710678939079041 0 -0.70710677298230451 0.35355338649115226 0 0.35355339469539521 1 I I 0 1 0.5 forward I I I I #
face $-1 $188 $189 $45 $-1 $190 reversed single #
loop $-1 $-1 $191 $75 #
plane-surface $-1 0 0 -16.827748398279688 0 0 1 1 0 0 forward_v I I I I #
coedge $-1 $192 $193 $194 $195 forward $76 $-1 #
face $-1 $196 $197 $46 $-1 $198 reversed single #
loop $-1 $-1 $199 $78 #
plane-surface $-1 0 -31.922158169759815 -9.535122346141172 0 0 1 1 0 0 forward_v I I I I #
coedge $-1 $200 $201 $202 $203 reversed $79 $-1 #
face $-1 $204 $205 $47 $-1 $206 reversed single #
loop $-1 $-1 $207 $81 #
plane-surface $-1 -39.421838556345406 28.09272200146598 0 1 0 0 0 0 -1 forward_v I I I I #
coedge $-1 $208 $209 $210 $211 forward $82 $-1 #
face $-1 $212 $213 $48 $-1 $214 reversed single #
loop $-1 $-1 $215 $84 #
plane-surface $-1 -28.497770607036855 -9.0703850618499473 110.65764976968234 0.70710678939079041 0 0.70710677298230451 0.70710677298230451 0 -0.70710678939079041 forward_v I I I I #
coedge $-1 $216 $217 $218 $219 reversed $85 $-1 #
face $-1 $-1 $220 $49 $-1 $221 forward single #
loop $-1 $222 $223 $87 #
cone-surface $-1 66.182034317932676 -11.316506016231138 14.210075674181191 -0.70710678939079041 0 -0.70710677298230451 0.17677669324557613 0 -0.1767766973476976 1 I I -0.70710678118654746 0.70710678118654746 0.25 forward I I I I #
loop $-1 $-1 $224 $64 #
coedge $-1 $140 $140 $225 $226 reversed $88 $-1 #
face $-1 $-1 $227 $50 $-1 $228 forward single #
loop $-1 $229 $230 $90 #
cone-surface $-1 66.182034317932676 -6.8242641074687569 14.210075674181191 -0.70710678939079041 0 -0.70710677298230451 0.17677669324557613 0 -0.1767766973476976 1 I I -0.70710678118654746 0.70710678118654746 0.25 forward I I I I #
loop $-1 $-1 $231 $65 #
coedge $-1 $145 $145 $232 $233 reversed $91 $-1 #
face $-1 $234 $235 $51 $-1 $236 reversed single #
loop $-1 $-1 $237 $93 #
plane-surface $-1 -28.497770607036855 12.003907127368166 110.65764976968234 0.70710678939079041 0 0.70710677298230451 0.70710677298230451 0 -0.70710678939079041 forward_v I I I I #
coedge $-1 $238 $239 $240 $241 reversed $94 $-1 #
face $-1 $-1 $242 $52 $-1 $243 forward single #
loop $-1 $244 $245 $96 #
cone-surface $-1 66.182034317932676 9.7577861729869753 14.210075674181191 -0.70710678939079041 0 -0.70710677298230451 0.17677669324557613 0 -0.1767766973476976 1 I I -0.70710678118654746 0.70710678118654746 0.25 forward I I I I #
loop $-1 $-1 $246 $67 #
coedge $-1 $154 $154 $247 $248 reversed $97 $-1 #
face $-1 $-1 $249 $53 $-1 $250 forward single #
loop $-1 $251 $252 $99 #
cone-surface $-1 66.182034317932676 14.250028081749356 14.210075674181191 -0.70710678939079041 0 -0.70710677298230451 0.17677669324557613 0 -0.1767766973476976 1 I I -0.70710678118654746 0.70710678118654746 0.25 forward I I I I #
loop $-1 $-1 $253 $68 #
coedge $-1 $159 $159 $254 $255 reversed $100 $-1 #
face $-1 $256 $257 $54 $-1 $258 reversed single #
loop $-1 $-1 $259 $102 #
plane-surface $-1 -68.799707022309022 -9.0703850618499473 13.360169882538429 -0.70710678939079041 0 0.70710677298230451 0.70710677298230451 0 0.70710678939079041 forward_v I I I I #
coedge $-1 $260 $261 $262 $263 reversed $103 $-1 #
face $-1 $-1 $264 $55 $-1 $265 forward single #
loop $-1 $266 $267 $105 #
cone-surface $-1 -66.182034317932676 -11.316506016231138 14.21007567418118 0.70710678939079041 0 -0.70710677298230451 0.17677669324557613 0 0.1767766973476976 1 I I -0.70710678118654746 0.70710678118654746 0.25 forward I I I I #
loop $-1 $-1 $268 $70 #
coedge $-1 $168 $168 $269 $270 reversed $106 $-1 #
face $-1 $-1 $271 $56 $-1 $272 forward single #
loop $-1 $273 $274 $108 #
cone-surface $-1 -66.182034317932676 -6.8242641074687569 14.21007567418118 0.70710678939079041 0 -0.70710677298230451 0.17677669324557613 0 0.1767766973476976 1 I I -0.70710678118654746 0.70710678118654746 0.25 forward I I I I #
loop $-1 $-1 $275 $71 #
coedge $-1 $173 $173 $276 $277 reversed $109 $-1 #
face $-1 $278 $279 $57 $-1 $280 reversed single #
loop $-1 $-1 $281 $111 #
plane-surface $-1 -68.799707022309022 12.003907127368166 13.360169882538429 -0.70710678939079041 0 0.70710677298230451 0.70710677298230451 0 0.70710678939079041 forward_v I I I I #
coedge $-1 $282 $283 $284 $285 reversed $112 $-1 #
face $-1 $-1 $286 $58 $-1 $287 forward single #
loop $-1 $288 $289 $114 #
cone-surface $-1 -66.182034317932676 9.7577861729869753 14.21007567418118 0.70710678939079041 0 -0.70710677298230451 0.17677669324557613 0 0.1767766973476976 1 I I -0.70710678118654746 0.70710678118654746 0.25 forward I I I I #
loop $-1 $-1 $290 $73 #
coedge $-1 $182 $182 $291 $292 reversed $115 $-1 #
face $-1 $-1 $293 $59 $-1 $294 forward single #
loop $-1 $295 $296 $117 #
cone-surface $-1 -66.182034317932676 14.250028081749356 14.21007567418118 0.70710678939079041 0 -0.70710677298230451 0.17677669324557613 0 0.1767766973476976 1 I I -0.70710678118654746 0.70710678118654746 0.25 forward I I I I #
loop $-1 $-1 $297 $74 #
coedge $-1 $187 $187 $298 $299 reversed $118 $-1 #
face $-1 $300 $301 $45 $-1 $302 reversed single #
loop $-1 $-1 $303 $120 #
plane-surface $-1 0 -38.940587982007678 0 0 1 0 0 0 1 forward_v I I I I #
coedge $-1 $304 $305 $306 $307 forward $121 $-1 #
coedge $-1 $308 $123 $309 $310 forward $76 $-1 #
coedge $-1 $123 $308 $311 $312 forward $76 $-1 #
coedge $-1 $313 $314 $123 $195 reversed $315 $-1 #
edge $-1 $316 -38.940587982007678 $317 38.940587982007678 $194 $318 forward 7 unknown #
face $-1 $319 $320 $46 $-1 $321 reversed single #
loop $-1 $-1 $322 $124 #
plane-surface $-1 0 -24.903728357511952 -4.81629651046525 0 -1 0 0 0 -1 forward_v I I I I #
coedge $-1 $323 $324 $325 $326 reversed $125 $-1 #
coedge $-1 $327 $127 $328 $329 forward $79 $-1 #
coedge $-1 $127 $327 $330 $331 reversed $79 $-1 #
coedge $-1 $332 $333 $127 $203 forward $334 $-1 #
edge $-1 $335 8.9426492726320443 $336 22.979508897127772 $202 $337 forward 7 unknown #
face $-1 $338 $339 $47 $-1 $340 reversed single #
loop $-1 $-1 $341 $128 #
plane-surface $-1 -35.14421022574966 28.09272200146598 0 -1 0 0 0 0 1 forward_v I I I I #
coedge $-1 $342 $343 $344 $345 reversed $129 $-1 #
coedge $-1 $346 $131 $347 $348 reversed $82 $-1 #
coedge $-1 $131 $346 $349 $350 reversed $82 $-1 #
coedge $-1 $343 $342 $131 $211 reversed $129 $-1 #
edge $-1 $351 -16.827748398279688 $352 16.827748398279688 $210 $353 forward 7 unknown #
face $-1 $354 $355 $48 $-1 $356 forward single #
loop $-1 $-1 $357 $132 #
plane-surface $-1 68.799709280107066 -14.311333955406056 207.95512739902821 0 1 0 0.70710678939079041 0 0.70710677298230451 forward_v I I I I #
coedge $-1 $358 $359 $360 $361 reversed $133 $-1 #
coedge $-1 $217 $135 $362 $363 reversed $85 $-1 #
coedge $-1 $135 $216 $358 $364 reversed $85 $-1 #
coedge $-1 $360 $365 $135 $219 forward $355 $-1 #
edge $-1 $366 -34.399852382255503 $367 -30.932273946979734 $218 $368 forward 7 unknown #
loop $-1 $-1 $225 $136 #
plane-surface $-1 -28.497770607036855 -9.0703850618499473 110.65764976968234 0.70710678939079041 0 0.70710677298230451 0.70710677298230451 0 -0.70710678939079041 forward_v I I I I #
loop $-1 $-1 $369 $87 #
coedge $-1 $223 $223 $224 $370 reversed $137 $-1 #
coedge $-1 $224 $224 $223 $370 forward $139 $-1 #
coedge $-1 $225 $225 $140 $226 forward $220 $-1 #
edge $-1 $371 0 $371 6.2831853071796004 $225 $372 forward 7 unknown #
loop $-1 $-1 $232 $141 #
plane-surface $-1 -28.497770607036855 -9.0703850618499473 110.65764976968234 0.70710678939079041 0 0.70710677298230451 0.70710677298230451 0 -0.70710678939079041 forward_v I I I I #
loop $-1 $-1 $373 $90 #
coedge $-1 $230 $230 $231 $374 reversed $142 $-1 #
coedge $-1 $231 $231 $230 $374 forward $144 $-1 #
coedge $-1 $232 $232 $145 $233 forward $227 $-1 #
edge $-1 $375 0 $375 6.2831853071796004 $232 $376 forward 7 unknown #
face $-1 $377 $378 $51 $-1 $379 reversed single #
loop $-1 $-1 $380 $146 #
plane-surface $-1 68.799709280107066 6.7629582338120571 207.95512739902821 0 1 0 0.70710678939079041 0 0.70710677298230451 forward_v I I I I #
coedge $-1 $381 $382 $383 $384 reversed $147 $-1 #
coedge $-1 $239 $149 $385 $386 reversed $94 $-1 #
coedge $-1 $149 $238 $381 $387 reversed $94 $-1 #
coedge $-1 $383 $388 $149 $241 forward $389 $-1 #
edge $-1 $390 -34.399852382255503 $391 -30.932273946979734 $240 $392 forward 7 unknown #
loop $-1 $-1 $247 $150 #
plane-surface $-1 -28.497770607036855 12.003907127368166 110.65764976968234 0.70710678939079041 0 0.70710677298230451 0.70710677298230451 0 -0.70710678939079041 forward_v I I I I #
loop $-1 $-1 $393 $96 #
coedge $-1 $245 $245 $246 $394 reversed $151 $-1 #
coedge $-1 $246 $246 $245 $394 forward $153 $-1 #
coedge $-1 $247 $247 $154 $248 forward $242 $-1 #
edge $-1 $395 0 $395 6.2831853071796004 $247 $396 forward 7 unknown #
loop $-1 $-1 $254 $155 #
plane-surface $-1 -28.497770607036855 12.003907127368166 110.65764976968234 0.70710678939079041 0 0.70710677298230451 0.70710677298230451 0 -0.70710678939079041 forward_v I I I I #
loop $-1 $-1 $397 $99 #
coedge $-1 $252 $252 $253 $398 reversed $156 $-1 #
coedge $-1 $253 $253 $252 $398 forward $158 $-1 #
coedge $-1 $254 $254 $159 $255 forward $249 $-1 #
edge $-1 $399 0 $399 6.2831853071796004 $254 $400 forward 7 unknown #
face $-1 $401 $402 $54 $-1 $403 reversed single #
loop $-1 $-1 $404 $160 #
plane-surface $-1 -166.09718690945294 -3.8294361682938387 110.65764751188431 0 -1 0 0.70710678939079041 0 -0.70710677298230451 forward_v I I I I #
coedge $-1 $405 $406 $407 $408 reversed $161 $-1 #
coedge $-1 $261 $163 $409 $410 reversed $103 $-1 #
coedge $-1 $163 $260 $405 $411 reversed $103 $-1 #
coedge $-1 $407 $412 $163 $263 forward $413 $-1 #
edge $-1 $414 14.248886432417436 $415 17.71646486769319 $262 $416 forward 7 unknown #
loop $-1 $-1 $269 $164 #
plane-surface $-1 -68.799707022309022 -9.0703850618499473 13.360169882538429 -0.70710678939079041 0 0.70710677298230451 0.70710677298230451 0 0.70710678939079041 forward_v I I I I #
loop $-1 $-1 $417 $105 #
coedge $-1 $267 $267 $268 $418 reversed $165 $-1 #
coedge $-1 $268 $268 $267 $418 forward $167 $-1 #
coedge $-1 $269 $269 $168 $270 forward $264 $-1 #
edge $-1 $419 0 $419 6.2831853071796004 $269 $420 forward 7 unknown #
loop $-1 $-1 $276 $169 #
plane-surface $-1 -68.799707022309022 -9.0703850618499473 13.360169882538429 -0.70710678939079041 0 0.70710677298230451 0.70710677298230451 0 0.70710678939079041 forward_v I I I I #
loop $-1 $-1 $421 $108 #
coedge $-1 $274 $274 $275 $422 reversed $170 $-1 #
coedge $-1 $275 $275 $274 $422 forward $172 $-1 #
coedge $-1 $276 $276 $173 $277 forward $271 $-1 #
edge $-1 $423 0 $423 6.2831853071796004 $276 $424 forward 7 unknown #
face $-1 $425 $426 $57 $-1 $427 forward single #
loop $-1 $-1 $428 $174 #
plane-surface $-1 -166.09718690945294 17.244856020924274 110.65764751188431 0 -1 0 0.70710678939079041 0 -0.70710677298230451 forward_v I I I I #
coedge $-1 $429 $430 $431 $432 reversed $175 $-1 #
coedge $-1 $283 $177 $433 $434 reversed $112 $-1 #
coedge $-1 $177 $282 $429 $435 reversed $112 $-1 #
coedge $-1 $431 $436 $177 $285 forward $426 $-1 #
edge $-1 $437 14.248886432417436 $438 17.71646486769319 $284 $439 forward 7 unknown #
loop $-1 $-1 $291 $178 #
plane-surface $-1 -68.799707022309022 12.003907127368166 13.360169882538429 -0.70710678939079041 0 0.70710677298230451 0.70710677298230451 0 0.70710678939079041 forward_v I I I I #
loop $-1 $-1 $440 $114 #
coedge $-1 $289 $289 $290 $441 reversed $179 $-1 #
coedge $-1 $290 $290 $289 $441 forward $181 $-1 #
coedge $-1 $291 $291 $182 $292 forward $286 $-1 #
edge $-1 $442 0 $442 6.2831853071796004 $291 $443 forward 7 unknown #
loop $-1 $-1 $298 $183 #
plane-surface $-1 -68.799707022309022 12.003907127368166 13.360169882538429 -0.70710678939079041 0 0.70710677298230451 0.70710677298230451 0 0.70710678939079041 forward_v I I I I #
loop $-1 $-1 $444 $117 #
coedge $-1 $296 $296 $297 $445 reversed $184 $-1 #
coedge $-1 $297 $297 $296 $445 forward $186 $-1 #
coedge $-1 $298 $298 $187 $299 forward $293 $-1 #
edge $-1 $446 0 $446 6.2831853071796004 $298 $447 forward 7 unknown #
face $-1 $448 $449 $45 $-1 $450 reversed single #
loop $-1 $-1 $451 $188 #
plane-surface $-1 -68.799707022309036 0 0 1 0 0 0 0 -1 forward_v I I I I #
coedge $-1 $452 $311 $453 $454 forward $189 $-1 #
coedge $-1 $455 $191 $452 $456 forward $121 $-1 #
coedge $-1 $191 $455 $457 $458 forward $121 $-1 #
coedge $-1 $314 $313 $191 $307 reversed $315 $-1 #
edge $-1 $459 -38.940587982007678 $460 38.940587982007678 $306 $461 forward 7 unknown #
coedge $-1 $193 $192 $462 $463 forward $76 $-1 #
coedge $-1 $464 $465 $192 $310 reversed $449 $-1 #
edge $-1 $317 -68.799707022309036 $466 68.799707022309036 $309 $467 forward 7 unknown #
coedge $-1 $303 $468 $193 $312 reversed $189 $-1 #
edge $-1 $469 -68.799707022309036 $316 68.799707022309036 $311 $470 forward 7 unknown #
coedge $-1 $306 $194 $468 $471 forward $315 $-1 #
coedge $-1 $194 $306 $464 $472 reversed $315 $-1 #
loop $-1 $-1 $313 $448 #
vertex $-1 $195 $473 #
vertex $-1 $195 $474 #
straight-curve $-1 68.799707022309036 0 16.827748398279688 0 1 0 I I #
face $-1 $475 $476 $46 $-1 $477 reversed single #
loop $-1 $-1 $478 $196 #
plane-surface $-1 -68.799707022309036 0 0 1 0 0 0 0 -1 forward_v I I I I #
coedge $-1 $479 $328 $333 $480 reversed $197 $-1 #
coedge $-1 $481 $199 $482 $483 reversed $125 $-1 #
coedge $-1 $199 $481 $479 $484 forward $125 $-1 #
coedge $-1 $333 $332 $199 $326 forward $334 $-1 #
edge $-1 $485 -22.979508897127772 $486 -8.9426492726320443 $325 $487 forward 7 unknown #
coedge $-1 $201 $200 $478 $488 reversed $79 $-1 #
coedge $-1 $322 $489 $200 $329 reversed $197 $-1 #
edge $-1 $335 -68.799707022309036 $490 68.799707022309036 $328 $491 forward 7 unknown #
coedge $-1 $492 $493 $201 $331 forward $476 $-1 #
edge $-1 $336 -68.799707022309036 $494 68.799707022309036 $330 $495 forward 7 unknown #
coedge $-1 $325 $202 $493 $496 forward $334 $-1 #
coedge $-1 $202 $325 $322 $480 forward $334 $-1 #
loop $-1 $-1 $202 $475 #
vertex $-1 $203 $497 #
vertex $-1 $496 $498 #
straight-curve $-1 68.799707022309036 -15.961079084879907 -0.097470674789327028 0 -1 0 I I #
face $-1 $499 $500 $47 $-1 $501 reversed single #
loop $-1 $-1 $502 $204 #
plane-surface $-1 0 38.940587982007678 0 0 -1 0 0 0 -1 forward_v I I I I #
coedge $-1 $503 $504 $346 $505 forward $205 $-1 #
coedge $-1 $210 $207 $506 $507 reversed $129 $-1 #
coedge $-1 $207 $210 $508 $509 reversed $129 $-1 #
coedge $-1 $510 $511 $207 $345 forward $339 $-1 #
edge $-1 $512 -16.827748398279688 $513 16.827748398279688 $344 $514 forward 7 unknown #
coedge $-1 $209 $208 $341 $505 reversed $82 $-1 #
coedge $-1 $506 $515 $208 $348 forward $500 $-1 #
edge $-1 $516 16.502698030225893 $352 20.78032636082164 $347 $517 forward 7 unknown #
coedge $-1 $518 $508 $209 $350 forward $519 $-1 #
edge $-1 $351 -20.78032636082164 $520 -16.502698030225893 $349 $521 forward 7 unknown #
vertex $-1 $350 $522 #
vertex $-1 $348 $523 #
straight-curve $-1 -39.421838556345406 17.244856020924278 0 0 0 -1 I I #
face $-1 $-1 $524 $48 $-1 $525 reversed single #
loop $-1 $-1 $218 $212 #
plane-surface $-1 0 0 16.827748398279688 0 0 1 1 0 0 forward_v I I I I #
coedge $-1 $526 $527 $528 $529 reversed $213 $-1 #
coedge $-1 $530 $215 $217 $364 forward $133 $-1 #
coedge $-1 $215 $530 $526 $531 forward $133 $-1 #
coedge $-1 $528 $218 $215 $361 forward $355 $-1 #
edge $-1 $367 -0.70575636263113495 $532 9.7761414244810823 $360 $533 forward 7 unknown #
coedge $-1 $534 $535 $216 $363 forward $524 $-1 #
edge $-1 $536 -90.617393816975706 $366 -87.149815301234412 $362 $537 forward 7 unknown #
edge $-1 $367 132.69551753596096 $536 137.59941404461816 $217 $538 forward 7 unknown #
coedge $-1 $218 $528 $534 $539 forward $355 $-1 #
vertex $-1 $363 $540 #
vertex $-1 $219 $541 #
straight-curve $-1 34.399854640053533 -3.8294361682938387 16.827748398279681 -1 0 0 I I #
coedge $-1 $369 $369 $-1 $542 reversed $222 $-1 #
edge $-1 $543 0 $543 6.2831853071796004 $223 $544 forward 7 unknown #
vertex $-1 $226 $545 #
ellipse-curve $-1 67.065917804671145 -11.316506016231138 15.093959140409062 0.70710678939079041 0 0.70710677298230451 0.35355338649115226 0 -0.35355339469539521 1 I I #
coedge $-1 $373 $373 $-1 $546 reversed $229 $-1 #
edge $-1 $547 0 $547 6.2831853071796004 $230 $548 forward 7 unknown #
vertex $-1 $233 $549 #
ellipse-curve $-1 67.065917804671145 -6.8242641074687569 15.093959140409062 0.70710678939079041 0 0.70710677298230451 0.35355338649115226 0 -0.35355339469539521 1 I I #
face $-1 $-1 $389 $51 $-1 $550 forward single #
loop $-1 $-1 $551 $234 #
plane-surface $-1 68.799707022309036 0 0 -1 0 0 0 0 1 forward_v I I I I #
coedge $-1 $552 $553 $554 $555 reversed $235 $-1 #
coedge $-1 $556 $237 $239 $387 forward $147 $-1 #
coedge $-1 $237 $556 $552 $557 forward $147 $-1 #
coedge $-1 $554 $240 $237 $384 forward $389 $-1 #
edge $-1 $391 -11.242902457240191 $558 -0.76100467012797424 $383 $559 forward 7 unknown #
coedge $-1 $560 $561 $238 $386 forward $378 $-1 #
edge $-1 $562 -90.617393816975706 $390 -87.149815301234412 $385 $563 forward 7 unknown #
edge $-1 $391 132.69551753596096 $562 137.59941404461816 $239 $564 forward 7 unknown #
coedge $-1 $240 $554 $560 $565 forward $389 $-1 #
loop $-1 $-1 $554 $377 #
vertex $-1 $386 $566 #
vertex $-1 $241 $567 #
straight-curve $-1 34.399854640053533 17.244856020924274 16.827748398279681 -1 0 0 I I #
coedge $-1 $393 $393 $-1 $568 reversed $244 $-1 #
edge $-1 $569 0 $569 6.2831853071796004 $245 $570 forward 7 unknown #
vertex $-1 $248 $571 #
ellipse-curve $-1 67.065917804671145 9.7577861729869753 15.093959140409062 0.70710678939079041 0 0.70710677298230451 0.35355338649115226 0 -0.35355339469539521 1 I I #
coedge $-1 $397 $397 $-1 $572 reversed $251 $-1 #
edge $-1 $573 0 $573 6.2831853071796004 $252 $574 forward 7 unknown #
vertex $-1 $255 $575 #
ellipse-curve $-1 67.065917804671145 14.250028081749356 15.093959140409062 0.70710678939079041 0 0.70710677298230451 0.35355338649115226 0 -0.35355339469539521 1 I I #
face $-1 $-1 $413 $54 $-1 $576 forward single #
loop $-1 $-1 $577 $256 #
plane-surface $-1 -68.799707022309036 0 0 1 0 0 0 0 -1 forward_v I I I I #
coedge $-1 $578 $579 $580 $581 reversed $257 $-1 #
coedge $-1 $582 $259 $261 $411 forward $161 $-1 #
coedge $-1 $259 $582 $578 $583 forward $161 $-1 #
coedge $-1 $580 $262 $259 $408 forward $413 $-1 #
edge $-1 $415 -9.7761414244810823 $584 0.70575636263113495 $407 $585 forward 7 unknown #
coedge $-1 $586 $587 $260 $410 forward $402 $-1 #
edge $-1 $588 -41.968653873403738 $414 -38.501075357662465 $409 $589 forward 7 unknown #
edge $-1 $415 -4.9038965086571435 $588 2.0097183471152325e-014 $261 $590 forward 7 unknown #
coedge $-1 $262 $580 $586 $591 forward $413 $-1 #
loop $-1 $-1 $580 $401 #
vertex $-1 $410 $592 #
vertex $-1 $263 $593 #
straight-curve $-1 -83.048593454726472 -14.311333955406056 16.827748398279688 1 0 0 I I #
coedge $-1 $417 $417 $-1 $594 reversed $266 $-1 #
edge $-1 $595 0 $595 6.2831853071796004 $267 $596 forward 7 unknown #
vertex $-1 $270 $597 #
ellipse-curve $-1 -67.065917804671159 -11.316506016231138 15.093959140409057 -0.70710678939079041 0 0.70710677298230451 0.35355338649115226 0 0.35355339469539521 1 I I #
coedge $-1 $421 $421 $-1 $598 reversed $273 $-1 #
edge $-1 $599 0 $599 6.2831853071796004 $274 $600 forward 7 unknown #
vertex $-1 $277 $601 #
ellipse-curve $-1 -67.065917804671159 -6.8242641074687569 15.093959140409057 -0.70710678939079041 0 0.70710677298230451 0.35355338649115226 0 0.35355339469539521 1 I I #
face $-1 $-1 $602 $57 $-1 $603 reversed single #
loop $-1 $-1 $284 $278 #
plane-surface $-1 0 0 16.827748398279688 0 0 1 1 0 0 forward_v I I I I #
coedge $-1 $604 $605 $606 $607 reversed $279 $-1 #
coedge $-1 $608 $281 $283 $435 forward $175 $-1 #
coedge $-1 $281 $608 $604 $609 forward $175 $-1 #
coedge $-1 $606 $284 $281 $432 forward $426 $-1 #
edge $-1 $438 0.76100467012797424 $610 11.242902457240191 $431 $611 forward 7 unknown #
coedge $-1 $612 $613 $282 $434 forward $602 $-1 #
edge $-1 $614 -41.968653873403738 $437 -38.501075357662465 $433 $615 forward 7 unknown #
edge $-1 $438 -4.9038965086571435 $614 2.0097183471152325e-014 $283 $616 forward 7 unknown #
coedge $-1 $284 $606 $612 $617 forward $426 $-1 #
vertex $-1 $285 $618 #
vertex $-1 $285 $619 #
straight-curve $-1 -83.048593454726472 6.7629582338120571 16.827748398279688 1 0 0 I I #
coedge $-1 $440 $440 $-1 $620 reversed $288 $-1 #
edge $-1 $621 0 $621 6.2831853071796004 $289 $622 forward 7 unknown #
vertex $-1 $292 $623 #
ellipse-curve $-1 -67.065917804671159 9.7577861729869753 15.093959140409057 -0.70710678939079041 0 0.70710677298230451 0.35355338649115226 0 0.35355339469539521 1 I I #
coedge $-1 $444 $444 $-1 $624 reversed $295 $-1 #
edge $-1 $625 0 $625 6.2831853071796004 $296 $626 forward 7 unknown #
vertex $-1 $299 $627 #
ellipse-curve $-1 -67.065917804671159 14.250028081749356 15.093959140409057 -0.70710678939079041 0 0.70710677298230451 0.35355338649115226 0 0.35355339469539521 1 I I #
face $-1 $-1 $315 $45 $-1 $628 reversed single #
loop $-1 $-1 $464 $300 #
plane-surface $-1 0 38.940587982007678 0 0 -1 0 0 0 -1 forward_v I I I I #
coedge $-1 $629 $462 $465 $630 forward $301 $-1 #
coedge $-1 $468 $303 $304 $456 reversed $189 $-1 #
coedge $-1 $462 $629 $303 $454 reversed $301 $-1 #
edge $-1 $469 -16.827748398279688 $631 16.827748398279688 $453 $632 forward 7 unknown #
coedge $-1 $305 $304 $629 $633 forward $121 $-1 #
edge $-1 $460 -68.799707022309036 $631 68.799707022309036 $452 $634 forward 7 unknown #
coedge $-1 $465 $464 $305 $458 reversed $449 $-1 #
edge $-1 $635 -68.799707022309036 $459 68.799707022309036 $457 $636 forward 7 unknown #
vertex $-1 $307 $637 #
vertex $-1 $471 $638 #
straight-curve $-1 68.799707022309036 0 -16.827748398279688 0 -1 0 I I #
coedge $-1 $451 $453 $308 $463 reversed $301 $-1 #
edge $-1 $466 -38.940587982007678 $469 38.940587982007678 $462 $639 forward 7 unknown #
coedge $-1 $457 $309 $314 $472 forward $449 $-1 #
coedge $-1 $309 $457 $451 $630 reversed $449 $-1 #
vertex $-1 $310 $640 #
straight-curve $-1 0 38.940587982007678 16.827748398279688 -1 0 0 I I #
coedge $-1 $311 $452 $313 $471 reversed $189 $-1 #
vertex $-1 $463 $641 #
straight-curve $-1 0 -38.940587982007678 16.827748398279688 1 0 0 I I #
edge $-1 $316 -16.827748398279688 $460 16.827748398279688 $313 $642 forward 7 unknown #
edge $-1 $317 -16.827748398279688 $459 16.827748398279688 $314 $643 forward 7 unknown #
point $-1 68.799707022309036 -38.940587982007678 16.827748398279688 #
point $-1 68.799707022309036 38.940587982007678 16.827748398279688 #
face $-1 $-1 $334 $46 $-1 $644 reversed single #
loop $-1 $-1 $330 $319 #
plane-surface $-1 0 -38.940587982007678 0 0 1 0 0 0 1 forward_v I I I I #
coedge $-1 $645 $646 $327 $488 forward $320 $-1 #
coedge $-1 $489 $322 $324 $484 reversed $197 $-1 #
edge $-1 $486 -7.1269740909085471 $335 2.310677580443298 $333 $647 forward 7 unknown #
coedge $-1 $324 $323 $648 $649 reversed $125 $-1 #
coedge $-1 $493 $492 $323 $483 forward $476 $-1 #
edge $-1 $650 -68.799707022309036 $485 68.799707022309036 $482 $651 forward 7 unknown #
edge $-1 $652 -68.799707022309036 $486 68.799707022309036 $479 $653 forward 7 unknown #
vertex $-1 $483 $654 #
vertex $-1 $326 $655 #
straight-curve $-1 68.799707022309036 -15.961079084879907 -9.535122346141172 0 1 0 I I #
edge $-1 $494 -22.979508897127772 $490 -8.9426492726320443 $478 $656 forward 7 unknown #
coedge $-1 $328 $479 $645 $657 reversed $197 $-1 #
vertex $-1 $488 $658 #
straight-curve $-1 0 -24.903728357511952 -0.097470674789327028 -1 0 0 I I #
coedge $-1 $482 $330 $646 $659 forward $476 $-1 #
coedge $-1 $330 $482 $332 $496 reversed $476 $-1 #
vertex $-1 $659 $660 #
straight-curve $-1 0 -38.940587982007678 -0.097470674789327028 -1 0 0 I I #
edge $-1 $336 0.097470674789327028 $485 9.535122346141172 $332 $661 forward 7 unknown #
point $-1 68.799707022309036 -24.903728357511952 -0.097470674789327028 #
point $-1 68.799707022309036 -38.940587982007678 -0.097470674789327028 #
face $-1 $-1 $519 $47 $-1 $662 forward single #
loop $-1 $-1 $515 $338 #
plane-surface $-1 0 0 -16.827748398279688 0 0 1 1 0 0 forward_v I I I I #
coedge $-1 $511 $510 $663 $664 forward $339 $-1 #
coedge $-1 $663 $341 $515 $665 reversed $205 $-1 #
coedge $-1 $341 $663 $518 $666 reversed $205 $-1 #
edge $-1 $520 -16.827748398279688 $516 16.827748398279688 $341 $667 forward 7 unknown #
coedge $-1 $668 $347 $342 $507 forward $500 $-1 #
edge $-1 $352 3.1984950201912881 $512 24.894226981274695 $506 $669 forward 7 unknown #
coedge $-1 $349 $670 $343 $509 forward $519 $-1 #
edge $-1 $513 -24.894226981274695 $351 -3.1984950201912881 $508 $671 forward 7 unknown #
coedge $-1 $502 $344 $670 $672 reversed $339 $-1 #
coedge $-1 $344 $502 $668 $673 reversed $339 $-1 #
vertex $-1 $673 $674 #
vertex $-1 $345 $675 #
straight-curve $-1 -39.421838556345406 38.940587982007678 0 0 0 1 I I #
coedge $-1 $347 $668 $503 $665 forward $500 $-1 #
vertex $-1 $348 $676 #
straight-curve $-1 -18.641512195523767 17.244856020924278 -16.827748398279688 -1 0 0 I I #
coedge $-1 $670 $349 $504 $666 forward $519 $-1 #
loop $-1 $-1 $518 $499 #
vertex $-1 $350 $677 #
straight-curve $-1 -18.641512195523767 17.244856020924278 16.827748398279688 1 0 0 I I #
point $-1 -39.421838556345406 17.244856020924278 16.827748398279688 #
point $-1 -39.421838556345406 17.244856020924278 -16.827748398279688 #
loop $-1 $-1 $362 $354 #
plane-surface $-1 68.799707022309036 0 0 -1 0 0 0 0 1 forward_v I I I I #
coedge $-1 $527 $357 $359 $531 reversed $213 $-1 #
coedge $-1 $357 $526 $678 $679 reversed $213 $-1 #
coedge $-1 $365 $360 $357 $529 forward $355 $-1 #
edge $-1 $532 30.932273946979734 $680 34.399852382255503 $528 $681 forward 7 unknown #
coedge $-1 $359 $358 $535 $682 reversed $133 $-1 #
edge $-1 $683 -137.59941404461816 $532 -132.69551753596096 $526 $684 forward 7 unknown #
vertex $-1 $361 $685 #
straight-curve $-1 65.332128587033282 -4.5351925309249737 16.827748398279674 0 -1 0 I I #
coedge $-1 $678 $362 $365 $539 reversed $524 $-1 #
coedge $-1 $362 $678 $530 $682 forward $524 $-1 #
vertex $-1 $363 $686 #
straight-curve $-1 68.799707022309036 -3.8294361682938387 103.97756369951411 0 0 1 I I #
straight-curve $-1 -28.497770607036855 -3.8294361682938387 110.65764976968234 0.70710677298230451 0 -0.70710678939079041 I I #
edge $-1 $680 -14.311333955406056 $366 -3.8294361682938387 $534 $687 forward 7 unknown #
point $-1 68.799707022309036 -3.8294361682938387 16.827748398279688 #
point $-1 65.332128587033267 -3.8294361682938387 16.827748398279681 #
edge $-1 $688 1 $688 0 $369 $-1 forward 7 unknown #
vertex $-1 $370 $689 #
ellipse-curve $-1 66.358811015280367 -11.316506016231138 14.386852367426767 0.70710678939079041 0 0.70710677298230451 0.35355338649115226 0 -0.35355339469539521 1 I I #
point $-1 67.419471191162316 -11.316506016231138 14.740405745713677 #
edge $-1 $690 1 $690 0 $373 $-1 forward 7 unknown #
vertex $-1 $374 $691 #
ellipse-curve $-1 66.358811015280367 -6.8242641074687569 14.386852367426767 0.70710678939079041 0 0.70710677298230451 0.35355338649115226 0 -0.35355339469539521 1 I I #
point $-1 67.419471191162316 -6.8242641074687569 14.740405745713677 #
plane-surface $-1 0 0 16.827748398279688 0 0 1 1 0 0 forward_v I I I I #
coedge $-1 $561 $560 $553 $692 forward $378 $-1 #
coedge $-1 $553 $380 $382 $557 reversed $235 $-1 #
coedge $-1 $380 $552 $551 $692 reversed $235 $-1 #
coedge $-1 $388 $383 $380 $555 forward $389 $-1 #
edge $-1 $558 30.932273946979734 $693 34.399852382255503 $554 $694 forward 7 unknown #
coedge $-1 $382 $381 $561 $695 reversed $147 $-1 #
edge $-1 $696 -137.59941404461816 $558 -132.69551753596096 $552 $697 forward 7 unknown #
vertex $-1 $384 $698 #
straight-curve $-1 65.332128587033282 6.0019535636840828 16.827748398279674 0 -1 0 I I #
coedge $-1 $551 $385 $388 $565 reversed $378 $-1 #
coedge $-1 $385 $551 $556 $695 forward $378 $-1 #
vertex $-1 $386 $699 #
straight-curve $-1 68.799707022309036 17.244856020924274 103.97756369951411 0 0 1 I I #
straight-curve $-1 -28.497770607036855 17.244856020924274 110.65764976968234 0.70710677298230451 0 -0.70710678939079041 I I #
edge $-1 $693 6.7629582338120571 $390 17.244856020924274 $560 $700 forward 7 unknown #
point $-1 68.799707022309036 17.244856020924274 16.827748398279688 #
point $-1 65.332128587033267 17.244856020924274 16.827748398279681 #
edge $-1 $701 1 $701 0 $393 $-1 forward 7 unknown #
vertex $-1 $394 $702 #
ellipse-curve $-1 66.358811015280367 9.7577861729869753 14.386852367426767 0.70710678939079041 0 0.70710677298230451 0.35355338649115226 0 -0.35355339469539521 1 I I #
point $-1 67.419471191162316 9.7577861729869753 14.740405745713677 #
edge $-1 $703 1 $703 0 $397 $-1 forward 7 unknown #
vertex $-1 $398 $704 #
ellipse-curve $-1 66.358811015280367 14.250028081749356 14.386852367426767 0.70710678939079041 0 0.70710677298230451 0.35355338649115226 0 -0.35355339469539521 1 I I #
point $-1 67.419471191162316 14.250028081749356 14.740405745713677 #
plane-surface $-1 0 0 16.827748398279688 0 0 1 1 0 0 forward_v I I I I #
coedge $-1 $587 $586 $579 $705 forward $402 $-1 #
coedge $-1 $579 $404 $406 $583 reversed $257 $-1 #
coedge $-1 $404 $578 $577 $705 reversed $257 $-1 #
coedge $-1 $412 $407 $404 $581 forward $413 $-1 #
edge $-1 $584 -17.71646486769319 $706 -14.248886432417436 $580 $707 forward 7 unknown #
coedge $-1 $406 $405 $587 $708 reversed $161 $-1 #
edge $-1 $709 -2.0097183471152325e-014 $584 4.9038965086571435 $578 $710 forward 7 unknown #
vertex $-1 $408 $711 #
straight-curve $-1 -65.332128587033267 -4.5351925309249737 16.827748398279688 0 1 0 I I #
coedge $-1 $577 $409 $412 $591 reversed $402 $-1 #
coedge $-1 $409 $577 $582 $708 forward $402 $-1 #
vertex $-1 $410 $712 #
straight-curve $-1 -68.799707022309036 -14.311333955406056 55.328823755942153 0 0 1 I I #
straight-curve $-1 -68.799707022309022 -14.311333955406056 13.360169882538429 -0.70710677298230451 0 -0.70710678939079041 I I #
edge $-1 $706 3.8294361682938387 $414 14.311333955406056 $586 $713 forward 7 unknown #
point $-1 -68.799707022309036 -14.311333955406056 16.827748398279688 #
point $-1 -65.332128587033282 -14.311333955406056 16.827748398279688 #
edge $-1 $714 1 $714 0 $417 $-1 forward 7 unknown #
vertex $-1 $418 $715 #
ellipse-curve $-1 -66.358811015280367 -11.316506016231138 14.386852367426757 -0.70710678939079041 0 0.70710677298230451 0.35355338649115226 0 0.35355339469539521 1 I I #
point $-1 -66.712364418180016 -11.316506016231138 15.447512535104456 #
edge $-1 $716 1 $716 0 $421 $-1 forward 7 unknown #
vertex $-1 $422 $717 #
ellipse-curve $-1 -66.358811015280367 -6.8242641074687569 14.386852367426757 -0.70710678939079041 0 0.70710677298230451 0.35355338649115226 0 0.35355339469539521 1 I I #
point $-1 -66.712364418180016 -6.8242641074687569 15.447512535104456 #
loop $-1 $-1 $433 $425 #
plane-surface $-1 -68.799707022309036 0 0 1 0 0 0 0 -1 forward_v I I I I #
coedge $-1 $605 $428 $430 $609 reversed $279 $-1 #
coedge $-1 $428 $604 $718 $719 reversed $279 $-1 #
coedge $-1 $436 $431 $428 $607 forward $426 $-1 #
edge $-1 $610 -17.71646486769319 $720 -14.248886432417436 $606 $721 forward 7 unknown #
coedge $-1 $430 $429 $613 $722 reversed $175 $-1 #
edge $-1 $723 -2.0097183471152325e-014 $610 4.9038965086571435 $604 $724 forward 7 unknown #
vertex $-1 $432 $725 #
straight-curve $-1 -65.332128587033267 6.0019535636840828 16.827748398279688 0 1 0 I I #
coedge $-1 $718 $433 $436 $617 reversed $602 $-1 #
coedge $-1 $433 $718 $608 $722 forward $602 $-1 #
vertex $-1 $434 $726 #
straight-curve $-1 -68.799707022309036 6.7629582338120571 55.328823755942153 0 0 1 I I #
straight-curve $-1 -68.799707022309022 6.7629582338120571 13.360169882538429 -0.70710677298230451 0 -0.70710678939079041 I I #
edge $-1 $720 -17.244856020924274 $437 -6.7629582338120571 $612 $727 forward 7 unknown #
point $-1 -68.799707022309036 6.7629582338120571 16.827748398279688 #
point $-1 -65.332128587033282 6.7629582338120571 16.827748398279688 #
edge $-1 $728 1 $728 0 $440 $-1 forward 7 unknown #
vertex $-1 $441 $729 #
ellipse-curve $-1 -66.358811015280367 9.7577861729869753 14.386852367426757 -0.70710678939079041 0 0.70710677298230451 0.35355338649115226 0 0.35355339469539521 1 I I #
point $-1 -66.712364418180016 9.7577861729869753 15.447512535104456 #
edge $-1 $730 1 $730 0 $444 $-1 forward 7 unknown #
vertex $-1 $445 $731 #
ellipse-curve $-1 -66.358811015280367 14.250028081749356 14.386852367426757 -0.70710678939079041 0 0.70710677298230451 0.35355338649115226 0 0.35355339469539521 1 I I #
point $-1 -66.712364418180016 14.250028081749356 15.447512535104456 #
plane-surface $-1 68.799707022309036 0 0 -1 0 0 0 0 1 forward_v I I I I #
coedge $-1 $453 $451 $455 $633 reversed $301 $-1 #
edge $-1 $466 -16.827748398279688 $635 16.827748398279688 $465 $732 forward 7 unknown #
vertex $-1 $633 $733 #
straight-curve $-1 -68.799707022309036 -38.940587982007678 0 0 0 -1 I I #
edge $-1 $631 -38.940587982007678 $635 38.940587982007678 $629 $734 forward 7 unknown #
straight-curve $-1 0 -38.940587982007678 -16.827748398279688 -1 0 0 I I #
vertex $-1 $458 $735 #
straight-curve $-1 0 38.940587982007678 -16.827748398279688 1 0 0 I I #
point $-1 68.799707022309036 38.940587982007678 -16.827748398279688 #
point $-1 68.799707022309036 -38.940587982007678 -16.827748398279688 #
straight-curve $-1 -68.799707022309036 0 16.827748398279688 0 -1 0 I I #
point $-1 -68.799707022309036 38.940587982007678 16.827748398279688 #
point $-1 -68.799707022309036 -38.940587982007678 16.827748398279688 #
straight-curve $-1 68.799707022309036 -38.940587982007678 0 0 0 -1 I I #
straight-curve $-1 68.799707022309036 38.940587982007678 0 0 0 -1 I I #
plane-surface $-1 68.799707022309036 0 0 -1 0 0 0 0 1 forward_v I I I I #
coedge $-1 $648 $478 $489 $657 forward $320 $-1 #
coedge $-1 $478 $648 $492 $659 reversed $320 $-1 #
straight-curve $-1 68.799707022309036 -24.903728357511952 -2.408148255232625 0 0 1 I I #
coedge $-1 $646 $645 $481 $649 forward $320 $-1 #
edge $-1 $652 8.9426492726320443 $650 22.979508897127772 $648 $736 forward 7 unknown #
vertex $-1 $483 $737 #
straight-curve $-1 0 -38.940587982007678 -9.535122346141172 1 0 0 I I #
vertex $-1 $649 $738 #
straight-curve $-1 0 -24.903728357511952 -9.535122346141172 1 0 0 I I #
point $-1 68.799707022309036 -38.940587982007678 -9.535122346141172 #
point $-1 68.799707022309036 -24.903728357511952 -9.535122346141172 #
straight-curve $-1 -68.799707022309036 -15.961079084879907 -0.097470674789327028 0 1 0 I I #
edge $-1 $490 -2.310677580443298 $652 7.1269740909085471 $645 $739 forward 7 unknown #
point $-1 -68.799707022309036 -24.903728357511952 -0.097470674789327028 #
edge $-1 $494 0.097470674789327028 $650 9.535122346141172 $646 $740 forward 7 unknown #
point $-1 -68.799707022309036 -38.940587982007678 -0.097470674789327028 #
straight-curve $-1 68.799707022309036 -38.940587982007678 0 0 0 -1 I I #
plane-surface $-1 0 0 16.827748398279688 0 0 1 1 0 0 forward_v I I I I #
coedge $-1 $504 $503 $502 $664 reversed $205 $-1 #
edge $-1 $741 -16.827748398279688 $742 16.827748398279688 $502 $743 forward 7 unknown #
edge $-1 $742 -24.894226981274695 $516 -3.1984950201912881 $515 $744 forward 7 unknown #
edge $-1 $520 3.1984950201912881 $741 24.894226981274695 $518 $745 forward 7 unknown #
straight-curve $-1 -35.14421022574966 17.244856020924278 0 0 0 -1 I I #
coedge $-1 $515 $506 $511 $673 forward $500 $-1 #
straight-curve $-1 -39.421838556345406 14.04636100073299 -16.827748398279688 0 1 0 I I #
coedge $-1 $508 $518 $510 $672 forward $519 $-1 #
straight-curve $-1 -39.421838556345406 14.04636100073299 16.827748398279688 0 -1 0 I I #
edge $-1 $741 35.14421022574966 $513 39.421838556345406 $510 $746 forward 7 unknown #
edge $-1 $512 -39.421838556345406 $742 -35.14421022574966 $511 $747 forward 7 unknown #
point $-1 -39.421838556345406 38.940587982007685 -16.827748398279688 #
point $-1 -39.421838556345406 38.940587982007685 16.827748398279688 #
point $-1 -35.14421022574966 17.244856020924278 -16.827748398279688 #
point $-1 -35.14421022574966 17.244856020924278 16.827748398279688 #
coedge $-1 $535 $534 $527 $679 forward $524 $-1 #
edge $-1 $680 87.149815301234412 $683 90.617393816975706 $678 $748 forward 7 unknown #
vertex $-1 $539 $749 #
straight-curve $-1 34.399854640053533 -14.311333955406056 16.827748398279681 1 0 0 I I #
edge $-1 $683 -9.7761414244810823 $536 0.70575636263113495 $535 $750 forward 7 unknown #
vertex $-1 $682 $751 #
straight-curve $-1 -28.497770607036855 -14.311333955406056 110.65764976968234 -0.70710677298230451 0 0.70710678939079041 I I #
point $-1 65.332128587033267 -14.311333955406056 16.827748398279681 #
point $-1 68.799707022309036 -3.8294361682938387 13.360169882538401 #
straight-curve $-1 68.799707022309036 0 16.827748398279688 0 1 0 I I #
vertex $-1 $542 $752 #
point $-1 66.712364401771524 -11.316506016231138 14.033298972731371 #
vertex $-1 $546 $753 #
point $-1 66.712364401771524 -6.8242641074687569 14.033298972731371 #
edge $-1 $693 87.149815301234412 $696 90.617393816975706 $551 $754 forward 7 unknown #
vertex $-1 $565 $755 #
straight-curve $-1 34.399854640053533 6.7629582338120571 16.827748398279681 1 0 0 I I #
edge $-1 $696 0.76100467012797424 $562 11.242902457240191 $561 $756 forward 7 unknown #
vertex $-1 $695 $757 #
straight-curve $-1 -28.497770607036855 6.7629582338120571 110.65764976968234 -0.70710677298230451 0 0.70710678939079041 I I #
point $-1 65.332128587033267 6.7629582338120571 16.827748398279681 #
point $-1 68.799707022309036 17.244856020924274 13.360169882538401 #
straight-curve $-1 68.799707022309036 0 16.827748398279688 0 1 0 I I #
vertex $-1 $568 $758 #
point $-1 66.712364401771524 9.7577861729869753 14.033298972731371 #
vertex $-1 $572 $759 #
point $-1 66.712364401771524 14.250028081749356 14.033298972731371 #
edge $-1 $706 38.501075357662465 $709 41.968653873403738 $577 $760 forward 7 unknown #
vertex $-1 $591 $761 #
straight-curve $-1 -83.048593454726472 -3.8294361682938387 16.827748398279688 -1 0 0 I I #
edge $-1 $709 -0.70575636263113495 $588 9.7761414244810823 $587 $762 forward 7 unknown #
vertex $-1 $708 $763 #
straight-curve $-1 -68.799707022309022 -3.8294361682938387 13.360169882538429 0.70710677298230451 0 0.70710678939079041 I I #
point $-1 -65.332128587033282 -3.8294361682938387 16.827748398279688 #
point $-1 -68.799707022309036 -14.311333955406056 13.360169882538415 #
straight-curve $-1 -68.799707022309036 0 16.827748398279688 0 -1 0 I I #
vertex $-1 $594 $764 #
point $-1 -66.005257628789224 -11.316506016231138 14.740405762122151 #
vertex $-1 $598 $765 #
point $-1 -66.005257628789224 -6.8242641074687569 14.740405762122151 #
coedge $-1 $613 $612 $605 $719 forward $602 $-1 #
edge $-1 $720 38.501075357662465 $723 41.968653873403738 $718 $766 forward 7 unknown #
vertex $-1 $617 $767 #
straight-curve $-1 -83.048593454726472 17.244856020924274 16.827748398279688 -1 0 0 I I #
edge $-1 $723 -11.242902457240191 $614 -0.76100467012797424 $613 $768 forward 7 unknown #
vertex $-1 $722 $769 #
straight-curve $-1 -68.799707022309022 17.244856020924274 13.360169882538429 0.70710677298230451 0 0.70710678939079041 I I #
point $-1 -65.332128587033282 17.244856020924274 16.827748398279688 #
point $-1 -68.799707022309036 6.7629582338120571 13.360169882538415 #
straight-curve $-1 -68.799707022309036 0 16.827748398279688 0 -1 0 I I #
vertex $-1 $620 $770 #
point $-1 -66.005257628789224 9.7577861729869753 14.740405762122151 #
vertex $-1 $624 $771 #
point $-1 -66.005257628789224 14.250028081749356 14.740405762122151 #
straight-curve $-1 -68.799707022309036 38.940587982007678 0 0 0 -1 I I #
point $-1 -68.799707022309036 -38.940587982007678 -16.827748398279688 #
straight-curve $-1 -68.799707022309036 0 -16.827748398279688 0 1 0 I I #
point $-1 -68.799707022309036 38.940587982007678 -16.827748398279688 #
straight-curve $-1 -68.799707022309036 -15.961079084879907 -9.535122346141172 0 -1 0 I I #
point $-1 -68.799707022309036 -38.940587982007678 -9.535122346141172 #
point $-1 -68.799707022309036 -24.903728357511952 -9.535122346141172 #
straight-curve $-1 -68.799707022309036 -24.903728357511952 -2.408148255232625 0 0 -1 I I #
straight-curve $-1 -68.799707022309036 -38.940587982007678 0 0 0 -1 I I #
vertex $-1 $672 $772 #
vertex $-1 $664 $773 #
straight-curve $-1 -35.14421022574966 38.940587982007678 0 0 0 -1 I I #
straight-curve $-1 -35.14421022574966 14.04636100073299 -16.827748398279688 0 -1 0 I I #
straight-curve $-1 -35.14421022574966 14.04636100073299 16.827748398279688 0 1 0 I I #
straight-curve $-1 0 38.940587982007678 16.827748398279688 -1 0 0 I I #
straight-curve $-1 0 38.940587982007678 -16.827748398279688 1 0 0 I I #
straight-curve $-1 68.799707022309036 -14.311333955406056 103.97756369951411 0 0 -1 I I #
point $-1 68.799707022309036 -14.311333955406056 16.827748398279688 #
straight-curve $-1 68.799707022309036 -4.5351925309249737 13.360169882538401 0 1 0 I I #
point $-1 68.799707022309036 -14.311333955406056 13.360169882538401 #
point $-1 66.005257620584985 -11.316506016231138 14.033298980935614 #
point $-1 66.005257620584985 -6.8242641074687569 14.033298980935614 #
straight-curve $-1 68.799707022309036 6.7629582338120571 103.97756369951411 0 0 -1 I I #
point $-1 68.799707022309036 6.7629582338120571 16.827748398279688 #
straight-curve $-1 68.799707022309036 6.0019535636840828 13.360169882538401 0 1 0 I I #
point $-1 68.799707022309036 6.7629582338120571 13.360169882538401 #
point $-1 66.005257620584985 9.7577861729869753 14.033298980935614 #
point $-1 66.005257620584985 14.250028081749356 14.033298980935614 #
straight-curve $-1 -68.799707022309036 -3.8294361682938387 55.328823755942153 0 0 -1 I I #
point $-1 -68.799707022309036 -3.8294361682938387 16.827748398279688 #
straight-curve $-1 -68.799707022309036 -4.5351925309249737 13.36016988253842 0 -1 0 I I #
point $-1 -68.799707022309036 -3.8294361682938387 13.360169882538415 #
point $-1 -66.005257620584985 -11.316506016231138 14.033298980935603 #
point $-1 -66.005257620584985 -6.8242641074687569 14.033298980935603 #
straight-curve $-1 -68.799707022309036 17.244856020924274 55.328823755942153 0 0 -1 I I #
point $-1 -68.799707022309036 17.244856020924274 16.827748398279688 #
straight-curve $-1 -68.799707022309036 6.0019535636840828 13.36016988253842 0 -1 0 I I #
point $-1 -68.799707022309036 17.244856020924274 13.360169882538415 #
point $-1 -66.005257620584985 9.7577861729869753 14.033298980935603 #
point $-1 -66.005257620584985 14.250028081749356 14.033298980935603 #
point $-1 -35.14421022574966 38.940587982007685 16.827748398279688 #
point $-1 -35.14421022574966 38.940587982007685 -16.827748398279688 #
End-of-ACIS-data 