500 0 10 0           
7 Unknown 11 ACIS 5.0 NT 24 Thu Mar 25 21:57:27 1999 
-1 9.9999999999999995e-007 1e-010 
body $-1 $10 $-1 $11 #
body $-1 $12 $-1 $13 #
body $-1 $14 $-1 $15 #
body $-1 $16 $-1 $17 #
body $-1 $18 $-1 $19 #
body $-1 $20 $-1 $21 #
body $-1 $22 $-1 $23 #
body $-1 $24 $-1 $25 #
body $-1 $26 $-1 $27 #
body $-1 $28 $-1 $29 #
lump $-1 $-1 $30 $0 #
transform $-1 1 0 0 0 1 0 0 0 1 49.452192754905852 22.453984917981181 7.3723928568407402 1 rotate no_reflect no_shear #
lump $-1 $-1 $31 $1 #
transform $-1 1 0 0 0 1 0 0 0 1 49.452192754905852 22.453984917981181 7.3723928568407402 1 rotate no_reflect no_shear #
lump $-1 $-1 $32 $2 #
transform $-1 1 0 0 0 1 0 0 0 1 49.452192754905852 22.453984917981181 7.3723928568407402 1 rotate no_reflect no_shear #
lump $-1 $-1 $33 $3 #
transform $-1 1 0 0 0 1 0 0 0 1 49.452192754905852 22.453984917981181 7.3723928568407402 1 rotate no_reflect no_shear #
lump $-1 $-1 $34 $4 #
transform $-1 1 0 0 0 1 0 0 0 1 49.452192754905852 22.453984917981181 7.3723928568407402 1 rotate no_reflect no_shear #
lump $-1 $-1 $35 $5 #
transform $-1 1 0 0 0 1 0 0 0 1 49.452192754905852 22.453984917981181 7.3723928568407402 1 rotate no_reflect no_shear #
lump $-1 $-1 $36 $6 #
transform $-1 1 0 0 0 1 0 0 0 1 49.452192754905852 22.453984917981181 7.3723928568407402 1 rotate no_reflect no_shear #
lump $-1 $-1 $37 $7 #
transform $-1 1 0 0 0 1 0 0 0 1 49.452192754905852 22.453984917981181 7.3723928568407402 1 rotate no_reflect no_shear #
lump $-1 $-1 $38 $8 #
transform $-1 1 0 0 0 1 0 0 0 1 49.452192754905852 22.453984917981181 7.3723928568407402 1 rotate no_reflect no_shear #
lump $-1 $-1 $39 $9 #
transform $-1 1 0 0 0 1 0 0 0 1 49.452192754905852 22.453984917981181 7.3723928568407402 1 rotate no_reflect no_shear #
shell $-1 $-1 $-1 $40 $-1 $10 #
shell $-1 $-1 $-1 $41 $-1 $12 #
shell $-1 $-1 $-1 $42 $-1 $14 #
shell $-1 $-1 $-1 $43 $-1 $16 #
shell $-1 $-1 $-1 $44 $-1 $18 #
shell $-1 $-1 $-1 $45 $-1 $20 #
shell $-1 $-1 $-1 $46 $-1 $22 #
shell $-1 $-1 $-1 $47 $-1 $24 #
shell $-1 $-1 $-1 $48 $-1 $26 #
shell $-1 $-1 $-1 $49 $-1 $28 #
face $-1 $50 $51 $30 $-1 $52 forward single #
face $-1 $53 $54 $31 $-1 $55 reversed single #
face $-1 $56 $57 $32 $-1 $58 reversed single #
face $-1 $59 $60 $33 $-1 $61 forward single #
face $-1 $62 $63 $34 $-1 $64 forward single #
face $-1 $65 $66 $35 $-1 $67 forward single #
face $-1 $68 $69 $36 $-1 $70 reversed single #
face $-1 $71 $72 $37 $-1 $73 forward single #
face $-1 $74 $75 $38 $-1 $76 forward single #
face $-1 $77 $78 $39 $-1 $79 forward single #
face $-1 $80 $81 $30 $-1 $82 reversed single #
loop $-1 $-1 $83 $40 #
plane-surface $-1 0 0 7.3723928568407402 0 0 1 1 0 0 forward_v I I I I #
face $-1 $84 $85 $31 $-1 $86 reversed single #
loop $-1 $-1 $87 $41 #
plane-surface $-1 0 -19.228570355432698 4.3723928568407402 0 0 1 1 0 0 forward_v I I I I #
face $-1 $88 $89 $32 $-1 $90 reversed single #
loop $-1 $-1 $91 $42 #
plane-surface $-1 -134.22979868485623 8.0290263979473657 51.324093970266851 0 1 0 -0.85716730853699208 0 0.51503806187062418 forward_v I I I I #
face $-1 $92 $93 $33 $-1 $94 forward single #
loop $-1 $95 $96 $43 #
cone-surface $-1 -46.589591051685886 9.9211227036398597 3.4198760858508268 0.85716730853699208 0 -0.51503806187062418 0.25751903093531209 0 0.42858365426849604 1 I I 0 1 0.5 forward I I I I #
face $-1 $97 $98 $34 $-1 $99 forward single #
loop $-1 $100 $101 $44 #
cone-surface $-1 -46.589591051685886 12.75926716217861 3.4198760858508268 0.85716730853699208 0 -0.51503806187062418 0.25751903093531209 0 0.42858365426849604 1 I I 0 1 0.5 forward I I I I #
face $-1 $102 $103 $35 $-1 $104 forward single #
loop $-1 $105 $106 $45 #
cone-surface $-1 -46.589591051685886 15.597411620717359 3.4198760858508268 0.85716730853699208 0 -0.51503806187062418 0.25751903093531209 0 0.42858365426849604 1 I I 0 1 0.5 forward I I I I #
face $-1 $107 $108 $36 $-1 $109 reversed single #
loop $-1 $-1 $110 $46 #
plane-surface $-1 83.290275661377777 17.489507926409853 136.10169990021723 0 -1 0 -0.85716730853699208 0 -0.51503806187062418 forward_v I I I I #
face $-1 $111 $112 $37 $-1 $113 forward single #
loop $-1 $114 $115 $47 #
cone-surface $-1 46.589591051685879 9.9211227036398597 3.4198760858508304 -0.85716730853699208 0 -0.51503806187062418 0.25751903093531209 0 -0.42858365426849604 1 I I 0 1 0.5 forward I I I I #
face $-1 $116 $117 $38 $-1 $118 forward single #
loop $-1 $119 $120 $48 #
cone-surface $-1 46.589591051685879 12.75926716217861 3.4198760858508304 -0.85716730853699208 0 -0.51503806187062418 0.25751903093531209 0 -0.42858365426849604 1 I I 0 1 0.5 forward I I I I #
face $-1 $121 $122 $39 $-1 $123 forward single #
loop $-1 $124 $125 $49 #
cone-surface $-1 46.589591051685879 15.597411620717359 3.4198760858508304 -0.85716730853699208 0 -0.51503806187062418 0.25751903093531209 0 -0.42858365426849604 1 I I 0 1 0.5 forward I I I I #
face $-1 $126 $127 $30 $-1 $128 reversed single #
loop $-1 $-1 $129 $50 #
plane-surface $-1 0 0 -7.3723928568407402 0 0 1 1 0 0 forward_v I I I I #
coedge $-1 $130 $131 $132 $133 forward $51 $-1 #
face $-1 $134 $135 $31 $-1 $136 reversed single #
loop $-1 $-1 $137 $53 #
plane-surface $-1 0 -16.003155792884215 5.8723928568407402 0 -1 0 0 0 -1 forward_v I I I I #
coedge $-1 $138 $139 $140 $141 reversed $54 $-1 #
face $-1 $142 $143 $32 $-1 $144 reversed single #
loop $-1 $-1 $145 $56 #
plane-surface $-1 -49.452192754905852 12.75926716217861 0.38457094678838644 -0.85716730853699208 0 0.51503806187062418 0.51503806187062418 0 0.85716730853699208 forward_v I I I I #
coedge $-1 $146 $147 $148 $149 reversed $57 $-1 #
face $-1 $-1 $150 $33 $-1 $151 forward single #
loop $-1 $152 $153 $59 #
cone-surface $-1 -45.612050948256687 9.9211227036398597 2.8325107544194346 0.85716730853699208 0 -0.51503806187062418 0.12875951546765604 0 0.21429182713424802 1 I I -0.70710678118654746 0.70710678118654746 0.25 forward I I I I #
loop $-1 $-1 $154 $43 #
coedge $-1 $96 $96 $155 $156 reversed $60 $-1 #
face $-1 $-1 $157 $34 $-1 $158 forward single #
loop $-1 $159 $160 $62 #
cone-surface $-1 -45.612050948256687 12.75926716217861 2.8325107544194346 0.85716730853699208 0 -0.51503806187062418 0.12875951546765604 0 0.21429182713424802 1 I I -0.70710678118654746 0.70710678118654746 0.25 forward I I I I #
loop $-1 $-1 $161 $44 #
coedge $-1 $101 $101 $162 $163 reversed $63 $-1 #
face $-1 $-1 $164 $35 $-1 $165 forward single #
loop $-1 $166 $167 $65 #
cone-surface $-1 -45.612050948256687 15.597411620717359 2.8325107544194346 0.85716730853699208 0 -0.51503806187062418 0.12875951546765604 0 0.21429182713424802 1 I I -0.70710678118654746 0.70710678118654746 0.25 forward I I I I #
loop $-1 $-1 $168 $45 #
coedge $-1 $106 $106 $169 $170 reversed $66 $-1 #
face $-1 $171 $172 $36 $-1 $173 reversed single #
loop $-1 $-1 $174 $68 #
plane-surface $-1 -1.487330268572606 12.75926716217861 85.162176876738755 0.85716730853699208 0 0.51503806187062418 0.51503806187062418 0 -0.85716730853699208 forward_v I I I I #
coedge $-1 $175 $176 $177 $178 reversed $69 $-1 #
face $-1 $-1 $179 $37 $-1 $180 forward single #
loop $-1 $181 $182 $71 #
cone-surface $-1 45.61205094825668 9.9211227036398597 2.8325107544194381 -0.85716730853699208 0 -0.51503806187062418 0.12875951546765604 0 -0.21429182713424802 1 I I -0.70710678118654746 0.70710678118654746 0.25 forward I I I I #
loop $-1 $-1 $183 $47 #
coedge $-1 $115 $115 $184 $185 reversed $72 $-1 #
face $-1 $-1 $186 $38 $-1 $187 forward single #
loop $-1 $188 $189 $74 #
cone-surface $-1 45.61205094825668 12.75926716217861 2.8325107544194381 -0.85716730853699208 0 -0.51503806187062418 0.12875951546765604 0 -0.21429182713424802 1 I I -0.70710678118654746 0.70710678118654746 0.25 forward I I I I #
loop $-1 $-1 $190 $48 #
coedge $-1 $120 $120 $191 $192 reversed $75 $-1 #
face $-1 $-1 $193 $39 $-1 $194 forward single #
loop $-1 $195 $196 $77 #
cone-surface $-1 45.61205094825668 15.597411620717359 2.8325107544194381 -0.85716730853699208 0 -0.51503806187062418 0.12875951546765604 0 -0.21429182713424802 1 I I -0.70710678118654746 0.70710678118654746 0.25 forward I I I I #
loop $-1 $-1 $197 $49 #
coedge $-1 $125 $125 $198 $199 reversed $78 $-1 #
face $-1 $200 $201 $30 $-1 $202 reversed single #
loop $-1 $-1 $203 $80 #
plane-surface $-1 0 -22.453984917981181 0 0 1 0 0 0 1 forward_v I I I I #
coedge $-1 $204 $205 $206 $207 forward $81 $-1 #
coedge $-1 $208 $83 $209 $210 forward $51 $-1 #
coedge $-1 $83 $208 $211 $212 forward $51 $-1 #
coedge $-1 $213 $214 $83 $133 reversed $215 $-1 #
edge $-1 $216 -22.453984917981181 $217 22.453984917981181 $132 $218 forward 7 unknown #
face $-1 $219 $220 $31 $-1 $221 reversed single #
loop $-1 $-1 $222 $84 #
plane-surface $-1 -49.452192754905852 0 0 1 0 0 0 0 -1 forward_v I I I I #
coedge $-1 $223 $224 $225 $226 reversed $85 $-1 #
coedge $-1 $227 $87 $228 $229 reversed $54 $-1 #
coedge $-1 $87 $227 $223 $230 forward $54 $-1 #
coedge $-1 $225 $231 $87 $141 forward $232 $-1 #
edge $-1 $233 -12.839699740264832 $234 -6.3888706151678658 $140 $235 forward 7 unknown #
face $-1 $236 $237 $32 $-1 $238 forward single #
loop $-1 $-1 $239 $88 #
plane-surface $-1 -134.22979868485623 17.489507926409853 51.324093970266851 0 -1 0 0.85716730853699208 0 -0.51503806187062418 forward_v I I I I #
coedge $-1 $240 $241 $242 $243 reversed $89 $-1 #
coedge $-1 $147 $91 $244 $245 reversed $57 $-1 #
coedge $-1 $91 $146 $240 $246 reversed $57 $-1 #
coedge $-1 $242 $247 $91 $149 forward $237 $-1 #
edge $-1 $248 17.662706587522266 $249 21.861413441372292 $148 $250 forward 7 unknown #
loop $-1 $-1 $155 $92 #
plane-surface $-1 -49.452192754905852 12.75926716217861 0.38457094678838644 -0.85716730853699208 0 0.51503806187062418 0.51503806187062418 0 0.85716730853699208 forward_v I I I I #
loop $-1 $-1 $251 $59 #
coedge $-1 $153 $153 $154 $252 reversed $93 $-1 #
coedge $-1 $154 $154 $153 $252 forward $95 $-1 #
coedge $-1 $155 $155 $96 $156 forward $150 $-1 #
edge $-1 $253 0 $253 6.2831853071796004 $155 $254 forward 7 unknown #
loop $-1 $-1 $162 $97 #
plane-surface $-1 -49.452192754905852 12.75926716217861 0.38457094678838644 -0.85716730853699208 0 0.51503806187062418 0.51503806187062418 0 0.85716730853699208 forward_v I I I I #
loop $-1 $-1 $255 $62 #
coedge $-1 $160 $160 $161 $256 reversed $98 $-1 #
coedge $-1 $161 $161 $160 $256 forward $100 $-1 #
coedge $-1 $162 $162 $101 $163 forward $157 $-1 #
edge $-1 $257 0 $257 6.2831853071796004 $162 $258 forward 7 unknown #
loop $-1 $-1 $169 $102 #
plane-surface $-1 -49.452192754905852 12.75926716217861 0.38457094678838644 -0.85716730853699208 0 0.51503806187062418 0.51503806187062418 0 0.85716730853699208 forward_v I I I I #
loop $-1 $-1 $259 $65 #
coedge $-1 $167 $167 $168 $260 reversed $103 $-1 #
coedge $-1 $168 $168 $167 $260 forward $105 $-1 #
coedge $-1 $169 $169 $106 $170 forward $164 $-1 #
edge $-1 $261 0 $261 6.2831853071796004 $169 $262 forward 7 unknown #
face $-1 $263 $264 $36 $-1 $265 reversed single #
loop $-1 $-1 $266 $107 #
plane-surface $-1 83.290275661377777 8.0290263979473657 136.10169990021723 0 1 0 0.85716730853699208 0 0.51503806187062418 forward_v I I I I #
coedge $-1 $267 $268 $269 $270 reversed $108 $-1 #
coedge $-1 $176 $110 $271 $272 reversed $69 $-1 #
coedge $-1 $110 $175 $267 $273 reversed $69 $-1 #
coedge $-1 $269 $274 $110 $178 forward $275 $-1 #
edge $-1 $276 -7.8070549242169633 $277 -3.6083480703669437 $177 $278 forward 7 unknown #
loop $-1 $-1 $184 $111 #
plane-surface $-1 -1.487330268572606 12.75926716217861 85.162176876738755 0.85716730853699208 0 0.51503806187062418 0.51503806187062418 0 -0.85716730853699208 forward_v I I I I #
loop $-1 $-1 $279 $71 #
coedge $-1 $182 $182 $183 $280 reversed $112 $-1 #
coedge $-1 $183 $183 $182 $280 forward $114 $-1 #
coedge $-1 $184 $184 $115 $185 forward $179 $-1 #
edge $-1 $281 0 $281 6.2831853071796004 $184 $282 forward 7 unknown #
loop $-1 $-1 $191 $116 #
plane-surface $-1 -1.487330268572606 12.75926716217861 85.162176876738755 0.85716730853699208 0 0.51503806187062418 0.51503806187062418 0 -0.85716730853699208 forward_v I I I I #
loop $-1 $-1 $283 $74 #
coedge $-1 $189 $189 $190 $284 reversed $117 $-1 #
coedge $-1 $190 $190 $189 $284 forward $119 $-1 #
coedge $-1 $191 $191 $120 $192 forward $186 $-1 #
edge $-1 $285 0 $285 6.2831853071796004 $191 $286 forward 7 unknown #
loop $-1 $-1 $198 $121 #
plane-surface $-1 -1.487330268572606 12.75926716217861 85.162176876738755 0.85716730853699208 0 0.51503806187062418 0.51503806187062418 0 -0.85716730853699208 forward_v I I I I #
loop $-1 $-1 $287 $77 #
coedge $-1 $196 $196 $197 $288 reversed $122 $-1 #
coedge $-1 $197 $197 $196 $288 forward $124 $-1 #
coedge $-1 $198 $198 $125 $199 forward $193 $-1 #
edge $-1 $289 0 $289 6.2831853071796004 $198 $290 forward 7 unknown #
face $-1 $291 $292 $30 $-1 $293 reversed single #
loop $-1 $-1 $294 $126 #
plane-surface $-1 -49.452192754905852 0 0 1 0 0 0 0 -1 forward_v I I I I #
coedge $-1 $295 $211 $296 $297 forward $127 $-1 #
coedge $-1 $298 $129 $295 $299 forward $81 $-1 #
coedge $-1 $129 $298 $300 $301 forward $81 $-1 #
coedge $-1 $214 $213 $129 $207 reversed $215 $-1 #
edge $-1 $302 -22.453984917981181 $303 22.453984917981181 $206 $304 forward 7 unknown #
coedge $-1 $131 $130 $305 $306 forward $51 $-1 #
coedge $-1 $307 $308 $130 $210 reversed $292 $-1 #
edge $-1 $217 -49.452192754905852 $309 49.452192754905852 $209 $310 forward 7 unknown #
coedge $-1 $203 $311 $131 $212 reversed $127 $-1 #
edge $-1 $312 -49.452192754905852 $216 49.452192754905852 $211 $313 forward 7 unknown #
coedge $-1 $206 $132 $311 $314 forward $215 $-1 #
coedge $-1 $132 $206 $307 $315 reversed $215 $-1 #
loop $-1 $-1 $213 $291 #
vertex $-1 $133 $316 #
vertex $-1 $133 $317 #
straight-curve $-1 49.452192754905852 0 7.3723928568407402 0 1 0 I I #
face $-1 $318 $319 $31 $-1 $320 forward single #
loop $-1 $-1 $228 $134 #
plane-surface $-1 0 -22.453984917981181 0 0 1 0 0 0 1 forward_v I I I I #
coedge $-1 $321 $322 $323 $324 forward $135 $-1 #
coedge $-1 $323 $137 $139 $230 reversed $85 $-1 #
coedge $-1 $137 $323 $325 $326 reversed $85 $-1 #
coedge $-1 $327 $140 $137 $226 forward $232 $-1 #
edge $-1 $234 1.4361964284203701 $328 4.4361964284203701 $225 $329 forward 7 unknown #
coedge $-1 $139 $138 $321 $330 reversed $54 $-1 #
coedge $-1 $331 $332 $138 $229 forward $220 $-1 #
edge $-1 $333 -49.452192754905852 $233 49.452192754905852 $228 $334 forward 7 unknown #
edge $-1 $335 -49.452192754905852 $234 49.452192754905852 $223 $336 forward 7 unknown #
coedge $-1 $140 $327 $331 $337 forward $232 $-1 #
loop $-1 $-1 $225 $318 #
vertex $-1 $229 $338 #
vertex $-1 $141 $339 #
straight-curve $-1 49.452192754905852 -9.6142851777163489 4.3723928568407402 0 1 0 I I #
face $-1 $-1 $340 $32 $-1 $341 reversed single #
loop $-1 $-1 $148 $142 #
plane-surface $-1 0 0 7.3723928568407402 0 0 1 1 0 0 forward_v I I I I #
coedge $-1 $342 $343 $344 $345 reversed $143 $-1 #
coedge $-1 $346 $145 $147 $246 forward $89 $-1 #
coedge $-1 $145 $346 $342 $347 forward $89 $-1 #
coedge $-1 $344 $148 $145 $243 forward $237 $-1 #
edge $-1 $249 1.6493928168580609 $348 11.109874345320549 $242 $349 forward 7 unknown #
coedge $-1 $350 $351 $146 $245 forward $340 $-1 #
edge $-1 $352 -25.277476038345039 $248 -18.289654128292685 $244 $353 forward 7 unknown #
edge $-1 $249 -8.1522263395452264 $352 0 $147 $354 forward 7 unknown #
coedge $-1 $148 $344 $350 $355 forward $237 $-1 #
vertex $-1 $245 $356 #
vertex $-1 $149 $357 #
straight-curve $-1 -67.114899342428117 8.0290263979473657 7.3723928568407402 1 0 0 I I #
coedge $-1 $251 $251 $-1 $358 reversed $152 $-1 #
edge $-1 $359 0 $359 6.2831853071796004 $153 $360 forward 7 unknown #
vertex $-1 $156 $361 #
ellipse-curve $-1 -47.352839327980838 9.9211227036398597 3.8784819018145633 -0.85716730853699208 0 0.51503806187062418 0.25751903093531209 0 0.42858365426849604 1 I I #
coedge $-1 $255 $255 $-1 $362 reversed $159 $-1 #
edge $-1 $363 0 $363 6.2831853071796004 $160 $364 forward 7 unknown #
vertex $-1 $163 $365 #
ellipse-curve $-1 -47.352839327980838 12.75926716217861 3.8784819018145633 -0.85716730853699208 0 0.51503806187062418 0.25751903093531209 0 0.42858365426849604 1 I I #
coedge $-1 $259 $259 $-1 $366 reversed $166 $-1 #
edge $-1 $367 0 $367 6.2831853071796004 $167 $368 forward 7 unknown #
vertex $-1 $170 $369 #
ellipse-curve $-1 -47.352839327980838 15.597411620717359 3.8784819018145633 -0.85716730853699208 0 0.51503806187062418 0.25751903093531209 0 0.42858365426849604 1 I I #
face $-1 $-1 $275 $36 $-1 $370 forward single #
loop $-1 $-1 $371 $171 #
plane-surface $-1 49.452192754905852 0 0 -1 0 0 0 0 1 forward_v I I I I #
coedge $-1 $372 $373 $374 $375 reversed $172 $-1 #
coedge $-1 $376 $174 $176 $273 forward $108 $-1 #
coedge $-1 $174 $376 $372 $377 forward $108 $-1 #
coedge $-1 $374 $177 $174 $270 forward $275 $-1 #
edge $-1 $277 -11.109874345320549 $378 -1.6493928168580609 $269 $379 forward 7 unknown #
coedge $-1 $380 $381 $175 $272 forward $264 $-1 #
edge $-1 $382 -67.666279003320213 $276 -60.678457093267873 $271 $383 forward 7 unknown #
edge $-1 $277 90.752159170266481 $382 98.904385509811689 $176 $384 forward 7 unknown #
coedge $-1 $177 $374 $380 $385 forward $275 $-1 #
loop $-1 $-1 $374 $263 #
vertex $-1 $272 $386 #
vertex $-1 $178 $387 #
straight-curve $-1 41.645137830688888 17.489507926409853 7.3723928568407473 -1 0 0 I I #
coedge $-1 $279 $279 $-1 $388 reversed $181 $-1 #
edge $-1 $389 0 $389 6.2831853071796004 $182 $390 forward 7 unknown #
vertex $-1 $185 $391 #
ellipse-curve $-1 47.352839327980831 9.9211227036398597 3.8784819018145678 0.85716730853699208 0 0.51503806187062418 0.25751903093531209 0 -0.42858365426849604 1 I I #
coedge $-1 $283 $283 $-1 $392 reversed $188 $-1 #
edge $-1 $393 0 $393 6.2831853071796004 $189 $394 forward 7 unknown #
vertex $-1 $192 $395 #
ellipse-curve $-1 47.352839327980831 12.75926716217861 3.8784819018145678 0.85716730853699208 0 0.51503806187062418 0.25751903093531209 0 -0.42858365426849604 1 I I #
coedge $-1 $287 $287 $-1 $396 reversed $195 $-1 #
edge $-1 $397 0 $397 6.2831853071796004 $196 $398 forward 7 unknown #
vertex $-1 $199 $399 #
ellipse-curve $-1 47.352839327980831 15.597411620717359 3.8784819018145678 0.85716730853699208 0 0.51503806187062418 0.25751903093531209 0 -0.42858365426849604 1 I I #
face $-1 $-1 $215 $30 $-1 $400 reversed single #
loop $-1 $-1 $307 $200 #
plane-surface $-1 0 22.453984917981181 0 0 -1 0 0 0 -1 forward_v I I I I #
coedge $-1 $401 $305 $308 $402 forward $201 $-1 #
coedge $-1 $311 $203 $204 $299 reversed $127 $-1 #
coedge $-1 $305 $401 $203 $297 reversed $201 $-1 #
edge $-1 $312 -7.3723928568407402 $403 7.3723928568407402 $296 $404 forward 7 unknown #
coedge $-1 $205 $204 $401 $405 forward $81 $-1 #
edge $-1 $303 -49.452192754905852 $403 49.452192754905852 $295 $406 forward 7 unknown #
coedge $-1 $308 $307 $205 $301 reversed $292 $-1 #
edge $-1 $407 -49.452192754905852 $302 49.452192754905852 $300 $408 forward 7 unknown #
vertex $-1 $207 $409 #
vertex $-1 $314 $410 #
straight-curve $-1 49.452192754905852 0 -7.3723928568407402 0 -1 0 I I #
coedge $-1 $294 $296 $208 $306 reversed $201 $-1 #
edge $-1 $309 -22.453984917981181 $312 22.453984917981181 $305 $411 forward 7 unknown #
coedge $-1 $300 $209 $214 $315 forward $292 $-1 #
coedge $-1 $209 $300 $294 $402 reversed $292 $-1 #
vertex $-1 $210 $412 #
straight-curve $-1 0 22.453984917981181 7.3723928568407402 -1 0 0 I I #
coedge $-1 $211 $295 $213 $314 reversed $127 $-1 #
vertex $-1 $306 $413 #
straight-curve $-1 0 -22.453984917981181 7.3723928568407402 1 0 0 I I #
edge $-1 $216 -7.3723928568407402 $303 7.3723928568407402 $213 $414 forward 7 unknown #
edge $-1 $217 -7.3723928568407402 $302 7.3723928568407402 $214 $415 forward 7 unknown #
point $-1 49.452192754905852 -22.453984917981181 7.3723928568407402 #
point $-1 49.452192754905852 22.453984917981181 7.3723928568407402 #
face $-1 $-1 $232 $31 $-1 $416 reversed single #
loop $-1 $-1 $325 $219 #
plane-surface $-1 0 0 7.3723928568407402 0 0 1 1 0 0 forward_v I I I I #
coedge $-1 $417 $222 $227 $330 forward $135 $-1 #
coedge $-1 $222 $417 $418 $419 reversed $135 $-1 #
coedge $-1 $224 $223 $222 $324 reversed $85 $-1 #
edge $-1 $420 -4.4361964284203701 $335 -1.4361964284203701 $222 $421 forward 7 unknown #
coedge $-1 $418 $422 $224 $326 forward $319 $-1 #
edge $-1 $328 -49.452192754905852 $420 49.452192754905852 $325 $423 forward 7 unknown #
coedge $-1 $231 $225 $422 $424 reversed $232 $-1 #
vertex $-1 $226 $425 #
straight-curve $-1 49.452192754905852 -16.003155792884215 2.9361964284203701 0 0 1 I I #
edge $-1 $335 6.3888706151678658 $333 12.839699740264832 $321 $426 forward 7 unknown #
coedge $-1 $427 $228 $231 $337 reversed $220 $-1 #
coedge $-1 $228 $427 $417 $428 forward $220 $-1 #
vertex $-1 $229 $429 #
straight-curve $-1 0 -22.453984917981181 4.3723928568407402 1 0 0 I I #
vertex $-1 $330 $430 #
straight-curve $-1 0 -16.003155792884215 4.3723928568407402 1 0 0 I I #
edge $-1 $431 -7.3723928568407402 $233 -4.3723928568407402 $231 $432 forward 7 unknown #
point $-1 49.452192754905852 -22.453984917981181 4.3723928568407402 #
point $-1 49.452192754905852 -16.003155792884215 4.3723928568407402 #
loop $-1 $-1 $244 $236 #
plane-surface $-1 -49.452192754905852 0 0 1 0 0 0 0 -1 forward_v I I I I #
coedge $-1 $343 $239 $241 $347 reversed $143 $-1 #
coedge $-1 $239 $342 $433 $434 reversed $143 $-1 #
coedge $-1 $247 $242 $239 $345 forward $237 $-1 #
edge $-1 $348 -21.861413441372292 $435 -17.662706587522266 $344 $436 forward 7 unknown #
coedge $-1 $241 $240 $351 $437 reversed $89 $-1 #
edge $-1 $438 0 $348 8.1522263395452264 $342 $439 forward 7 unknown #
vertex $-1 $243 $440 #
straight-curve $-1 -45.253485901055832 6.3796335810893048 7.3723928568407402 0 1 0 I I #
coedge $-1 $433 $244 $247 $355 reversed $340 $-1 #
coedge $-1 $244 $433 $346 $437 forward $340 $-1 #
vertex $-1 $245 $441 #
straight-curve $-1 -49.452192754905852 8.0290263979473657 25.662046985133426 0 0 1 I I #
straight-curve $-1 -49.452192754905852 8.0290263979473657 0.38457094678838644 -0.51503806187062418 0 -0.85716730853699208 I I #
edge $-1 $435 -17.489507926409853 $248 -8.0290263979473657 $350 $442 forward 7 unknown #
point $-1 -49.452192754905852 8.0290263979473657 7.3723928568407402 #
point $-1 -45.253485901055825 8.0290263979473657 7.3723928568407411 #
edge $-1 $443 1 $443 0 $251 $-1 forward 7 unknown #
vertex $-1 $252 $444 #
ellipse-curve $-1 -45.826342775390934 9.9211227036398597 2.9612702698870907 -0.85716730853699208 0 0.51503806187062418 0.25751903093531209 0 0.42858365426849604 1 I I #
point $-1 -47.095320297045525 9.9211227036398597 4.3070655560830584 #
edge $-1 $445 1 $445 0 $255 $-1 forward 7 unknown #
vertex $-1 $256 $446 #
ellipse-curve $-1 -45.826342775390934 12.75926716217861 2.9612702698870907 -0.85716730853699208 0 0.51503806187062418 0.25751903093531209 0 0.42858365426849604 1 I I #
point $-1 -47.095320297045525 12.75926716217861 4.3070655560830584 #
edge $-1 $447 1 $447 0 $259 $-1 forward 7 unknown #
vertex $-1 $260 $448 #
ellipse-curve $-1 -45.826342775390934 15.597411620717359 2.9612702698870907 -0.85716730853699208 0 0.51503806187062418 0.25751903093531209 0 0.42858365426849604 1 I I #
point $-1 -47.095320297045525 15.597411620717359 4.3070655560830584 #
plane-surface $-1 0 0 7.3723928568407402 0 0 1 1 0 0 forward_v I I I I #
coedge $-1 $381 $380 $373 $449 forward $264 $-1 #
coedge $-1 $373 $266 $268 $377 reversed $172 $-1 #
coedge $-1 $266 $372 $371 $449 reversed $172 $-1 #
coedge $-1 $274 $269 $266 $375 forward $275 $-1 #
edge $-1 $378 3.6083480703669437 $450 7.8070549242169633 $374 $451 forward 7 unknown #
coedge $-1 $268 $267 $381 $452 reversed $108 $-1 #
edge $-1 $453 -98.904385509811689 $378 -90.752159170266481 $372 $454 forward 7 unknown #
vertex $-1 $270 $455 #
straight-curve $-1 45.253485901055825 6.3796335810893048 7.3723928568407331 0 -1 0 I I #
coedge $-1 $371 $271 $274 $385 reversed $264 $-1 #
coedge $-1 $271 $371 $376 $452 forward $264 $-1 #
vertex $-1 $272 $456 #
straight-curve $-1 49.452192754905852 17.489507926409853 68.050849950108613 0 0 1 I I #
straight-curve $-1 -1.487330268572606 17.489507926409853 85.162176876738755 0.51503806187062418 0 -0.85716730853699208 I I #
edge $-1 $450 8.0290263979473657 $276 17.489507926409853 $380 $457 forward 7 unknown #
point $-1 49.452192754905852 17.489507926409853 7.3723928568407402 #
point $-1 45.253485901055832 17.489507926409853 7.3723928568407473 #
edge $-1 $458 1 $458 0 $279 $-1 forward 7 unknown #
vertex $-1 $280 $459 #
ellipse-curve $-1 45.826342775390927 9.9211227036398597 2.9612702698870943 0.85716730853699208 0 0.51503806187062418 0.25751903093531209 0 -0.42858365426849604 1 I I #
point $-1 47.610358358916145 9.9211227036398597 3.44989824754607 #
edge $-1 $460 1 $460 0 $283 $-1 forward 7 unknown #
vertex $-1 $284 $461 #
ellipse-curve $-1 45.826342775390927 12.75926716217861 2.9612702698870943 0.85716730853699208 0 0.51503806187062418 0.25751903093531209 0 -0.42858365426849604 1 I I #
point $-1 47.610358358916145 12.75926716217861 3.44989824754607 #
edge $-1 $462 1 $462 0 $287 $-1 forward 7 unknown #
vertex $-1 $288 $463 #
ellipse-curve $-1 45.826342775390927 15.597411620717359 2.9612702698870943 0.85716730853699208 0 0.51503806187062418 0.25751903093531209 0 -0.42858365426849604 1 I I #
point $-1 47.610358358916145 15.597411620717359 3.44989824754607 #
plane-surface $-1 49.452192754905852 0 0 -1 0 0 0 0 1 forward_v I I I I #
coedge $-1 $296 $294 $298 $405 reversed $201 $-1 #
edge $-1 $309 -7.3723928568407402 $407 7.3723928568407402 $308 $464 forward 7 unknown #
vertex $-1 $405 $465 #
straight-curve $-1 -49.452192754905852 -22.453984917981181 0 0 0 -1 I I #
edge $-1 $403 -22.453984917981181 $407 22.453984917981181 $401 $466 forward 7 unknown #
straight-curve $-1 0 -22.453984917981181 -7.3723928568407402 -1 0 0 I I #
vertex $-1 $301 $467 #
straight-curve $-1 0 22.453984917981181 -7.3723928568407402 1 0 0 I I #
point $-1 49.452192754905852 22.453984917981181 -7.3723928568407402 #
point $-1 49.452192754905852 -22.453984917981181 -7.3723928568407402 #
straight-curve $-1 -49.452192754905852 0 7.3723928568407402 0 -1 0 I I #
point $-1 -49.452192754905852 22.453984917981181 7.3723928568407402 #
point $-1 -49.452192754905852 -22.453984917981181 7.3723928568407402 #
straight-curve $-1 49.452192754905852 -22.453984917981181 0 0 0 -1 I I #
straight-curve $-1 49.452192754905852 22.453984917981181 0 0 0 -1 I I #
plane-surface $-1 49.452192754905852 0 0 -1 0 0 0 0 1 forward_v I I I I #
coedge $-1 $322 $321 $332 $428 reversed $135 $-1 #
coedge $-1 $468 $325 $322 $419 forward $319 $-1 #
edge $-1 $420 16.003155792884215 $469 22.453984917981181 $322 $470 forward 7 unknown #
vertex $-1 $419 $471 #
straight-curve $-1 -49.452192754905852 -16.003155792884215 2.9361964284203701 0 0 -1 I I #
coedge $-1 $325 $468 $327 $424 forward $319 $-1 #
straight-curve $-1 0 -16.003155792884215 7.3723928568407402 -1 0 0 I I #
edge $-1 $431 -22.453984917981181 $328 -16.003155792884215 $327 $472 forward 7 unknown #
point $-1 49.452192754905852 -16.003155792884215 7.3723928568407402 #
straight-curve $-1 -49.452192754905852 -9.6142851777163489 4.3723928568407402 0 -1 0 I I #
coedge $-1 $332 $331 $468 $473 reversed $220 $-1 #
edge $-1 $469 -7.3723928568407402 $333 -4.3723928568407402 $417 $474 forward 7 unknown #
point $-1 -49.452192754905852 -22.453984917981181 4.3723928568407402 #
point $-1 -49.452192754905852 -16.003155792884215 4.3723928568407402 #
vertex $-1 $424 $475 #
straight-curve $-1 49.452192754905852 -22.453984917981181 0 0 0 -1 I I #
coedge $-1 $351 $350 $343 $434 forward $340 $-1 #
edge $-1 $435 18.289654128292685 $438 25.277476038345039 $433 $476 forward 7 unknown #
vertex $-1 $355 $477 #
straight-curve $-1 -67.114899342428117 17.489507926409853 7.3723928568407402 -1 0 0 I I #
edge $-1 $438 -11.109874345320549 $352 -1.6493928168580609 $351 $478 forward 7 unknown #
vertex $-1 $437 $479 #
straight-curve $-1 -49.452192754905852 17.489507926409853 0.38457094678838644 0.51503806187062418 0 0.85716730853699208 I I #
point $-1 -45.253485901055825 17.489507926409853 7.3723928568407411 #
point $-1 -49.452192754905852 8.0290263979473657 0.38457094678838644 #
straight-curve $-1 -49.452192754905852 0 7.3723928568407402 0 -1 0 I I #
vertex $-1 $358 $480 #
point $-1 -45.568823744455621 9.9211227036398597 3.3898539241555867 #
vertex $-1 $362 $481 #
point $-1 -45.568823744455621 12.75926716217861 3.3898539241555867 #
vertex $-1 $366 $482 #
point $-1 -45.568823744455621 15.597411620717359 3.3898539241555867 #
edge $-1 $450 60.678457093267873 $453 67.666279003320213 $371 $483 forward 7 unknown #
vertex $-1 $385 $484 #
straight-curve $-1 41.645137830688888 8.0290263979473657 7.3723928568407473 1 0 0 I I #
edge $-1 $453 1.6493928168580609 $382 11.109874345320549 $381 $485 forward 7 unknown #
vertex $-1 $452 $486 #
straight-curve $-1 -1.487330268572606 8.0290263979473657 85.162176876738755 -0.51503806187062418 0 0.85716730853699208 I I #
point $-1 45.253485901055832 8.0290263979473657 7.3723928568407473 #
point $-1 49.452192754905852 17.489507926409853 0.38457094678840065 #
straight-curve $-1 49.452192754905852 0 7.3723928568407402 0 1 0 I I #
vertex $-1 $388 $487 #
point $-1 46.08386180632624 9.9211227036398597 2.5326866156185979 #
vertex $-1 $392 $488 #
point $-1 46.08386180632624 12.75926716217861 2.5326866156185979 #
vertex $-1 $396 $489 #
point $-1 46.08386180632624 15.597411620717359 2.5326866156185979 #
straight-curve $-1 -49.452192754905852 22.453984917981181 0 0 0 -1 I I #
point $-1 -49.452192754905852 -22.453984917981181 -7.3723928568407402 #
straight-curve $-1 -49.452192754905852 0 -7.3723928568407402 0 1 0 I I #
point $-1 -49.452192754905852 22.453984917981181 -7.3723928568407402 #
coedge $-1 $422 $418 $427 $473 forward $319 $-1 #
vertex $-1 $419 $490 #
straight-curve $-1 -49.452192754905852 0 7.3723928568407402 0 -1 0 I I #
point $-1 -49.452192754905852 -16.003155792884215 7.3723928568407402 #
straight-curve $-1 49.452192754905852 0 7.3723928568407402 0 1 0 I I #
edge $-1 $469 -49.452192754905852 $431 49.452192754905852 $427 $491 forward 7 unknown #
straight-curve $-1 -49.452192754905852 -22.453984917981181 0 0 0 -1 I I #
point $-1 49.452192754905852 -22.453984917981181 7.3723928568407402 #
straight-curve $-1 -49.452192754905852 17.489507926409853 25.662046985133426 0 0 -1 I I #
point $-1 -49.452192754905852 17.489507926409853 7.3723928568407402 #
straight-curve $-1 -49.452192754905852 6.3796335810893048 0.38457094678838666 0 -1 0 I I #
point $-1 -49.452192754905852 17.489507926409853 0.38457094678838644 #
point $-1 -45.397759121122441 9.9211227036398597 2.7037512389517784 #
point $-1 -45.397759121122441 12.75926716217861 2.7037512389517784 #
point $-1 -45.397759121122441 15.597411620717359 2.7037512389517784 #
straight-curve $-1 49.452192754905852 8.0290263979473657 68.050849950108613 0 0 -1 I I #
point $-1 49.452192754905852 8.0290263979473657 7.3723928568407402 #
straight-curve $-1 49.452192754905852 6.3796335810893048 0.38457094678839354 0 1 0 I I #
point $-1 49.452192754905852 8.0290263979473657 0.38457094678840065 #
point $-1 45.397759121122434 9.9211227036398597 2.7037512389517819 #
point $-1 45.397759121122434 12.75926716217861 2.7037512389517819 #
point $-1 45.397759121122434 15.597411620717359 2.7037512389517819 #
point $-1 -49.452192754905852 -22.453984917981181 7.3723928568407402 #
straight-curve $-1 0 -22.453984917981181 7.3723928568407402 1 0 0 I I #
End-of-ACIS-data 