500 0 5 0           
7 Unknown 11 ACIS 5.0 NT 24 Fri Mar 26 14:54:01 1999 
-1 9.9999999999999995e-007 1e-010 
body $-1 $5 $-1 $6 #
body $-1 $7 $-1 $8 #
body $-1 $9 $-1 $10 #
body $-1 $11 $-1 $12 #
body $-1 $13 $-1 $14 #
lump $-1 $-1 $15 $0 #
transform $-1 1 0 0 0 1 0 0 0 1 45.937681203650016 31.54190235079318 14.167336101505592 1 rotate no_reflect no_shear #
lump $-1 $-1 $16 $1 #
transform $-1 1 0 0 0 1 0 0 0 1 45.937681203650016 31.54190235079318 14.167336101505592 1 rotate no_reflect no_shear #
lump $-1 $-1 $17 $2 #
transform $-1 1 0 0 0 1 0 0 0 1 45.937681203650016 31.54190235079318 14.167336101505592 1 rotate no_reflect no_shear #
lump $-1 $-1 $18 $3 #
transform $-1 1 0 0 0 1 0 0 0 1 45.937681203650016 31.54190235079318 14.167336101505592 1 rotate no_reflect no_shear #
lump $-1 $-1 $19 $4 #
transform $-1 1 0 0 0 1 0 0 0 1 45.937681203650016 31.54190235079318 14.167336101505592 1 rotate no_reflect no_shear #
shell $-1 $-1 $-1 $20 $-1 $5 #
shell $-1 $-1 $-1 $21 $-1 $7 #
shell $-1 $-1 $-1 $22 $-1 $9 #
shell $-1 $-1 $-1 $23 $-1 $11 #
shell $-1 $-1 $-1 $24 $-1 $13 #
face $-1 $25 $26 $15 $-1 $27 forward single #
face $-1 $28 $29 $16 $-1 $30 reversed single #
face $-1 $31 $32 $17 $-1 $33 reversed single #
face $-1 $34 $35 $18 $-1 $36 forward single #
face $-1 $37 $38 $19 $-1 $39 forward single #
face $-1 $40 $41 $15 $-1 $42 reversed single #
loop $-1 $-1 $43 $20 #
plane-surface $-1 0 0 14.167336101505592 0 0 1 1 0 0 forward_v I I I I #
face $-1 $44 $45 $16 $-1 $46 reversed single #
loop $-1 $-1 $47 $21 #
plane-surface $-1 0 -23.441486782631419 8.2464298836266927 0 0 1 1 0 0 forward_v I I I I #
face $-1 $48 $49 $17 $-1 $50 reversed single #
loop $-1 $-1 $51 $22 #
plane-surface $-1 -31.65041324666899 79.566399382446292 110.26557446668347 -1 0 0 0 0.86602541151947299 0.49999998660252726 forward_v I I I I #
face $-1 $52 $53 $18 $-1 $54 forward single #
loop $-1 $55 $56 $23 #
cone-surface $-1 -41.855604644512582 29.141665972483846 11.291019133800525 0 -0.86602541151947299 -0.49999998660252726 1 0 0 1 I I 0 1 1 forward I I I I #
face $-1 $57 $58 $19 $-1 $59 forward single #
loop $-1 $60 $61 $24 #
cone-surface $-1 -35.732489805806424 29.141665972483846 11.291019133800525 0 -0.86602541151947299 -0.49999998660252726 1 0 0 1 I I 0 1 1 forward I I I I #
face $-1 $62 $63 $15 $-1 $64 reversed single #
loop $-1 $-1 $65 $25 #
plane-surface $-1 0 0 -14.167336101505592 0 0 1 1 0 0 forward_v I I I I #
coedge $-1 $66 $67 $68 $69 forward $26 $-1 #
face $-1 $70 $71 $16 $-1 $72 reversed single #
loop $-1 $-1 $73 $28 #
plane-surface $-1 0 -15.341071214469657 11.206882992566142 0 -1 0 0 0 -1 forward_v I I I I #
coedge $-1 $74 $75 $76 $77 reversed $29 $-1 #
face $-1 $78 $79 $17 $-1 $80 reversed single #
loop $-1 $-1 $81 $31 #
plane-surface $-1 -38.794047225159503 8.4516356935182557e-007 64.327894493931126 0 0.86602541151947299 0.49999998660252726 1 0 0 forward_v I I I I #
coedge $-1 $82 $83 $84 $85 reversed $32 $-1 #
face $-1 $-1 $86 $18 $-1 $87 forward single #
loop $-1 $88 $89 $34 #
cone-surface $-1 -41.855604644512582 27.59926221327003 10.400511940034127 0 -0.86602541151947299 -0.49999998660252726 0.5 0 0 1 I I -0.70710678118654746 0.70710678118654746 0.5 forward I I I I #
loop $-1 $-1 $90 $23 #
coedge $-1 $56 $56 $91 $92 reversed $35 $-1 #
face $-1 $-1 $93 $19 $-1 $94 forward single #
loop $-1 $95 $96 $37 #
cone-surface $-1 -35.732489805806424 27.59926221327003 10.400511940034127 0 -0.86602541151947299 -0.49999998660252726 0.5 0 0 1 I I -0.70710678118654746 0.70710678118654746 0.5 forward I I I I #
loop $-1 $-1 $97 $24 #
coedge $-1 $61 $61 $98 $99 reversed $38 $-1 #
face $-1 $100 $101 $15 $-1 $102 reversed single #
loop $-1 $-1 $103 $40 #
plane-surface $-1 0 -31.54190235079318 0 0 1 0 0 0 1 forward_v I I I I #
coedge $-1 $104 $105 $106 $107 forward $41 $-1 #
coedge $-1 $108 $43 $109 $110 forward $26 $-1 #
coedge $-1 $43 $108 $111 $112 forward $26 $-1 #
coedge $-1 $113 $114 $43 $69 reversed $115 $-1 #
edge $-1 $116 -31.54190235079318 $117 31.54190235079318 $68 $118 forward 7 unknown #
face $-1 $119 $120 $16 $-1 $121 reversed single #
loop $-1 $-1 $122 $44 #
plane-surface $-1 -45.937681203650016 0 0 1 0 0 0 0 -1 forward_v I I I I #
coedge $-1 $123 $124 $125 $126 reversed $45 $-1 #
coedge $-1 $127 $47 $128 $129 reversed $29 $-1 #
coedge $-1 $47 $127 $123 $130 forward $29 $-1 #
coedge $-1 $125 $131 $47 $77 forward $132 $-1 #
edge $-1 $133 -19.821158959477472 $134 -3.6203278231539482 $76 $135 forward 7 unknown #
face $-1 $136 $137 $17 $-1 $138 forward single #
loop $-1 $-1 $139 $48 #
plane-surface $-1 -45.937681203650016 0 0 1 0 0 0 0 -1 forward_v I I I I #
coedge $-1 $140 $141 $142 $143 reversed $49 $-1 #
coedge $-1 $83 $51 $144 $145 reversed $32 $-1 #
coedge $-1 $51 $82 $140 $146 reversed $32 $-1 #
coedge $-1 $142 $147 $51 $85 forward $148 $-1 #
edge $-1 $149 40.965451131836147 $150 45.437070666315982 $84 $151 forward 7 unknown #
loop $-1 $-1 $91 $52 #
plane-surface $-1 -38.794047225159503 8.4516356935182557e-007 64.327894493931126 0 0.86602541151947299 0.49999998660252726 1 0 0 forward_v I I I I #
loop $-1 $-1 $152 $34 #
coedge $-1 $89 $89 $90 $153 reversed $53 $-1 #
coedge $-1 $90 $90 $89 $153 forward $55 $-1 #
coedge $-1 $91 $91 $56 $92 forward $86 $-1 #
edge $-1 $154 1.0623969049353655e-015 $154 6.2831853071796013 $91 $155 forward 7 unknown #
loop $-1 $-1 $98 $57 #
plane-surface $-1 -38.794047225159503 8.4516356935182557e-007 64.327894493931126 0 0.86602541151947299 0.49999998660252726 1 0 0 forward_v I I I I #
loop $-1 $-1 $156 $37 #
coedge $-1 $96 $96 $97 $157 reversed $58 $-1 #
coedge $-1 $97 $97 $96 $157 forward $60 $-1 #
coedge $-1 $98 $98 $61 $99 forward $93 $-1 #
edge $-1 $158 1.0623969049353655e-015 $158 6.2831853071796013 $98 $159 forward 7 unknown #
face $-1 $160 $161 $15 $-1 $162 reversed single #
loop $-1 $-1 $163 $62 #
plane-surface $-1 -45.937681203650016 0 0 1 0 0 0 0 -1 forward_v I I I I #
coedge $-1 $164 $111 $165 $166 forward $63 $-1 #
coedge $-1 $167 $65 $164 $168 forward $41 $-1 #
coedge $-1 $65 $167 $169 $170 forward $41 $-1 #
coedge $-1 $114 $113 $65 $107 reversed $115 $-1 #
edge $-1 $171 -31.54190235079318 $172 31.54190235079318 $106 $173 forward 7 unknown #
coedge $-1 $67 $66 $174 $175 forward $26 $-1 #
coedge $-1 $176 $177 $66 $110 reversed $161 $-1 #
edge $-1 $117 -45.937681203650016 $178 45.937681203650016 $109 $179 forward 7 unknown #
coedge $-1 $103 $180 $67 $112 reversed $63 $-1 #
edge $-1 $181 -45.937681203650016 $116 45.937681203650016 $111 $182 forward 7 unknown #
coedge $-1 $106 $68 $180 $183 forward $115 $-1 #
coedge $-1 $68 $106 $176 $184 reversed $115 $-1 #
loop $-1 $-1 $113 $160 #
vertex $-1 $69 $185 #
vertex $-1 $69 $186 #
straight-curve $-1 45.937681203650016 0 14.167336101505592 0 1 0 I I #
face $-1 $187 $188 $16 $-1 $189 forward single #
loop $-1 $-1 $128 $70 #
plane-surface $-1 0 -31.54190235079318 0 0 1 0 0 0 1 forward_v I I I I #
coedge $-1 $190 $191 $192 $193 forward $71 $-1 #
coedge $-1 $192 $73 $75 $130 reversed $45 $-1 #
coedge $-1 $73 $192 $194 $195 reversed $45 $-1 #
coedge $-1 $196 $76 $73 $126 forward $132 $-1 #
edge $-1 $134 2.642988387343622 $197 8.5638946052225187 $125 $198 forward 7 unknown #
coedge $-1 $75 $74 $190 $199 reversed $29 $-1 #
coedge $-1 $200 $201 $74 $129 forward $120 $-1 #
edge $-1 $202 -45.937681203650016 $133 45.937681203650016 $128 $203 forward 7 unknown #
edge $-1 $204 -45.937681203650016 $134 45.937681203650016 $123 $205 forward 7 unknown #
coedge $-1 $76 $196 $200 $206 forward $132 $-1 #
loop $-1 $-1 $125 $187 #
vertex $-1 $129 $207 #
vertex $-1 $77 $208 #
straight-curve $-1 45.937681203650016 -11.720743391315709 8.2464298836266927 0 1 0 I I #
face $-1 $-1 $148 $17 $-1 $209 reversed single #
loop $-1 $-1 $144 $78 #
plane-surface $-1 0 0 14.167336101505592 0 0 1 1 0 0 forward_v I I I I #
coedge $-1 $210 $211 $141 $212 forward $79 $-1 #
coedge $-1 $213 $81 $83 $146 forward $49 $-1 #
coedge $-1 $81 $213 $139 $212 reversed $49 $-1 #
coedge $-1 $214 $84 $81 $143 forward $148 $-1 #
edge $-1 $150 12.253389634089238 $215 26.540657591070264 $142 $216 forward 7 unknown #
coedge $-1 $217 $218 $82 $145 forward $137 $-1 #
edge $-1 $219 -10.822987990140469 $149 -8.2412973404299663 $144 $220 forward 7 unknown #
edge $-1 $150 -63.083804701586331 $219 -57.9204232638128 $83 $221 forward 7 unknown #
coedge $-1 $84 $214 $217 $222 reversed $148 $-1 #
loop $-1 $-1 $142 $136 #
vertex $-1 $222 $223 #
vertex $-1 $85 $224 #
straight-curve $-1 -31.65041324666899 31.54190235079318 55.132787233341737 0 0 -1 I I #
coedge $-1 $152 $152 $-1 $225 reversed $88 $-1 #
edge $-1 $226 0 $226 6.2831853071796004 $89 $227 forward 7 unknown #
vertex $-1 $92 $228 #
ellipse-curve $-1 -41.855604644512582 30.251057025937936 11.931526334265666 0 0.86602541151947299 0.49999998660252726 1 0 0 1 I I #
coedge $-1 $156 $156 $-1 $229 reversed $95 $-1 #
edge $-1 $230 0 $230 6.2831853071796004 $96 $231 forward 7 unknown #
vertex $-1 $99 $232 #
ellipse-curve $-1 -35.732489805806424 30.251057025937936 11.931526334265666 0 0.86602541151947299 0.49999998660252726 1 0 0 1 I I #
face $-1 $-1 $115 $15 $-1 $233 reversed single #
loop $-1 $-1 $176 $100 #
plane-surface $-1 0 31.54190235079318 0 0 -1 0 0 0 -1 forward_v I I I I #
coedge $-1 $234 $174 $177 $235 forward $101 $-1 #
coedge $-1 $180 $103 $104 $168 reversed $63 $-1 #
coedge $-1 $174 $234 $103 $166 reversed $101 $-1 #
edge $-1 $181 -14.167336101505592 $236 14.167336101505592 $165 $237 forward 7 unknown #
coedge $-1 $105 $104 $234 $238 forward $41 $-1 #
edge $-1 $172 -45.937681203650016 $236 45.937681203650016 $164 $239 forward 7 unknown #
coedge $-1 $177 $176 $105 $170 reversed $161 $-1 #
edge $-1 $240 -45.937681203650016 $171 45.937681203650016 $169 $241 forward 7 unknown #
vertex $-1 $107 $242 #
vertex $-1 $183 $243 #
straight-curve $-1 45.937681203650016 0 -14.167336101505592 0 -1 0 I I #
coedge $-1 $163 $165 $108 $175 reversed $101 $-1 #
edge $-1 $178 -31.54190235079318 $181 31.54190235079318 $174 $244 forward 7 unknown #
coedge $-1 $169 $109 $114 $184 forward $161 $-1 #
coedge $-1 $109 $169 $163 $235 reversed $161 $-1 #
vertex $-1 $110 $245 #
straight-curve $-1 0 31.54190235079318 14.167336101505592 -1 0 0 I I #
coedge $-1 $111 $164 $113 $183 reversed $63 $-1 #
vertex $-1 $175 $246 #
straight-curve $-1 0 -31.54190235079318 14.167336101505592 1 0 0 I I #
edge $-1 $116 -14.167336101505592 $172 14.167336101505592 $113 $247 forward 7 unknown #
edge $-1 $117 -14.167336101505592 $171 14.167336101505592 $114 $248 forward 7 unknown #
point $-1 45.937681203650016 -31.54190235079318 14.167336101505592 #
point $-1 45.937681203650016 31.54190235079318 14.167336101505592 #
face $-1 $-1 $132 $16 $-1 $249 reversed single #
loop $-1 $-1 $194 $119 #
plane-surface $-1 0 0 14.167336101505592 0 0 1 1 0 0 forward_v I I I I #
coedge $-1 $250 $122 $127 $199 forward $71 $-1 #
coedge $-1 $122 $250 $251 $252 reversed $71 $-1 #
coedge $-1 $124 $123 $122 $193 reversed $45 $-1 #
edge $-1 $253 -8.5638946052225187 $204 -2.642988387343622 $122 $254 forward 7 unknown #
coedge $-1 $251 $255 $124 $195 forward $188 $-1 #
edge $-1 $197 -45.937681203650016 $253 45.937681203650016 $194 $256 forward 7 unknown #
coedge $-1 $131 $125 $255 $257 reversed $132 $-1 #
vertex $-1 $126 $258 #
straight-curve $-1 45.937681203650016 -15.341071214469657 5.6034414962830708 0 0 1 I I #
edge $-1 $204 3.6203278231539482 $202 19.821158959477472 $190 $259 forward 7 unknown #
coedge $-1 $260 $128 $131 $206 reversed $120 $-1 #
coedge $-1 $128 $260 $250 $261 forward $120 $-1 #
vertex $-1 $129 $262 #
straight-curve $-1 0 -31.54190235079318 8.2464298836266927 1 0 0 I I #
vertex $-1 $199 $263 #
straight-curve $-1 0 -15.341071214469657 8.2464298836266927 1 0 0 I I #
edge $-1 $264 -14.167336101505592 $133 -8.2464298836266927 $131 $265 forward 7 unknown #
point $-1 45.937681203650016 -31.54190235079318 8.2464298836266927 #
point $-1 45.937681203650016 -15.341071214469657 8.2464298836266927 #
plane-surface $-1 0 31.54190235079318 0 0 -1 0 0 0 -1 forward_v I I I I #
coedge $-1 $211 $139 $266 $267 reversed $79 $-1 #
coedge $-1 $139 $210 $214 $268 forward $79 $-1 #
edge $-1 $215 -35.229009262233241 $269 -30.065627824459714 $139 $270 forward 7 unknown #
coedge $-1 $141 $140 $218 $271 reversed $49 $-1 #
coedge $-1 $147 $142 $211 $268 reversed $148 $-1 #
vertex $-1 $212 $272 #
straight-curve $-1 -19.397023612579751 31.54190235079318 9.6957165670257588 -1 0 0 I I #
coedge $-1 $266 $144 $147 $222 forward $137 $-1 #
coedge $-1 $144 $266 $213 $271 forward $137 $-1 #
vertex $-1 $145 $273 #
straight-curve $-1 -31.65041324666899 39.783199691223146 14.16733610150559 0 1 0 I I #
straight-curve $-1 -31.65041324666899 8.4516356935182557e-007 64.327894493931126 0 -0.49999998660252726 0.86602541151947299 I I #
edge $-1 $149 31.65041324666899 $274 45.937681203650016 $147 $275 forward 7 unknown #
point $-1 -31.65041324666899 31.54190235079318 14.167336101505592 #
point $-1 -31.65041324666899 31.54190235079318 9.6957165670257552 #
edge $-1 $276 1 $276 0 $152 $-1 forward 7 unknown #
vertex $-1 $153 $277 #
ellipse-curve $-1 -41.855604644512582 28.032274919029767 10.650511933335391 0 0.86602541151947299 0.49999998660252726 1 0 0 1 I I #
point $-1 -40.855604644512582 30.251057025937929 11.93152633426566 #
edge $-1 $278 1 $278 0 $156 $-1 forward 7 unknown #
vertex $-1 $157 $279 #
ellipse-curve $-1 -35.732489805806424 28.032274919029767 10.650511933335391 0 0.86602541151947299 0.49999998660252726 1 0 0 1 I I #
point $-1 -34.732489805806424 30.251057025937929 11.93152633426566 #
plane-surface $-1 45.937681203650016 0 0 -1 0 0 0 0 1 forward_v I I I I #
coedge $-1 $165 $163 $167 $238 reversed $101 $-1 #
edge $-1 $178 -14.167336101505592 $240 14.167336101505592 $177 $280 forward 7 unknown #
vertex $-1 $238 $281 #
straight-curve $-1 -45.937681203650016 -31.54190235079318 0 0 0 -1 I I #
edge $-1 $236 -31.54190235079318 $240 31.54190235079318 $234 $282 forward 7 unknown #
straight-curve $-1 0 -31.54190235079318 -14.167336101505592 -1 0 0 I I #
vertex $-1 $170 $283 #
straight-curve $-1 0 31.54190235079318 -14.167336101505592 1 0 0 I I #
point $-1 45.937681203650016 31.54190235079318 -14.167336101505592 #
point $-1 45.937681203650016 -31.54190235079318 -14.167336101505592 #
straight-curve $-1 -45.937681203650016 0 14.167336101505592 0 -1 0 I I #
point $-1 -45.937681203650016 31.54190235079318 14.167336101505592 #
point $-1 -45.937681203650016 -31.54190235079318 14.167336101505592 #
straight-curve $-1 45.937681203650016 -31.54190235079318 0 0 0 -1 I I #
straight-curve $-1 45.937681203650016 31.54190235079318 0 0 0 -1 I I #
plane-surface $-1 45.937681203650016 0 0 -1 0 0 0 0 1 forward_v I I I I #
coedge $-1 $191 $190 $201 $261 reversed $71 $-1 #
coedge $-1 $284 $194 $191 $252 forward $188 $-1 #
edge $-1 $253 15.341071214469657 $285 31.54190235079318 $191 $286 forward 7 unknown #
vertex $-1 $252 $287 #
straight-curve $-1 -45.937681203650016 -15.341071214469657 5.6034414962830708 0 0 -1 I I #
coedge $-1 $194 $284 $196 $257 forward $188 $-1 #
straight-curve $-1 0 -15.341071214469657 14.167336101505592 -1 0 0 I I #
edge $-1 $264 -31.54190235079318 $197 -15.341071214469657 $196 $288 forward 7 unknown #
point $-1 45.937681203650016 -15.341071214469657 14.16733610150559 #
straight-curve $-1 -45.937681203650016 -11.720743391315709 8.2464298836266927 0 -1 0 I I #
coedge $-1 $201 $200 $284 $289 reversed $120 $-1 #
edge $-1 $285 -14.167336101505592 $202 -8.2464298836266927 $250 $290 forward 7 unknown #
point $-1 -45.937681203650016 -31.54190235079318 8.2464298836266927 #
point $-1 -45.937681203650016 -15.341071214469657 8.2464298836266927 #
vertex $-1 $257 $291 #
straight-curve $-1 45.937681203650016 -31.54190235079318 0 0 0 -1 I I #
coedge $-1 $218 $217 $210 $267 forward $137 $-1 #
edge $-1 $274 -31.54190235079318 $269 -28.960211701082677 $210 $292 forward 7 unknown #
edge $-1 $274 -14.167336101505592 $215 -9.6957165670257641 $214 $293 forward 7 unknown #
vertex $-1 $212 $294 #
straight-curve $-1 -45.937681203650016 13.92739819165625 40.204933810774634 0 -0.49999998660252726 0.86602541151947299 I I #
edge $-1 $269 -26.540657591070264 $219 -12.253389634089238 $218 $295 forward 7 unknown #
point $-1 -45.937681203650016 31.54190235079318 9.6957165670257641 #
point $-1 -31.65041324666899 28.960211701082677 14.16733610150559 #
vertex $-1 $222 $296 #
straight-curve $-1 0 31.54190235079318 14.167336101505592 -1 0 0 I I #
vertex $-1 $225 $297 #
point $-1 -40.855604644512582 28.032274919029767 10.650511933335391 #
vertex $-1 $229 $298 #
point $-1 -34.732489805806424 28.032274919029767 10.650511933335391 #
straight-curve $-1 -45.937681203650016 31.54190235079318 0 0 0 -1 I I #
point $-1 -45.937681203650016 -31.54190235079318 -14.167336101505592 #
straight-curve $-1 -45.937681203650016 0 -14.167336101505592 0 1 0 I I #
point $-1 -45.937681203650016 31.54190235079318 -14.167336101505592 #
coedge $-1 $255 $251 $260 $289 forward $188 $-1 #
vertex $-1 $252 $299 #
straight-curve $-1 -45.937681203650016 0 14.167336101505592 0 -1 0 I I #
point $-1 -45.937681203650016 -15.341071214469657 14.16733610150559 #
straight-curve $-1 45.937681203650016 0 14.167336101505592 0 1 0 I I #
edge $-1 $285 -45.937681203650016 $264 45.937681203650016 $260 $300 forward 7 unknown #
straight-curve $-1 -45.937681203650016 -31.54190235079318 0 0 0 -1 I I #
point $-1 45.937681203650016 -31.54190235079318 14.167336101505592 #
straight-curve $-1 -45.937681203650016 0 14.167336101505592 0 -1 0 I I #
straight-curve $-1 -45.937681203650016 31.54190235079318 0 0 0 -1 I I #
point $-1 -45.937681203650016 28.960211701082677 14.16733610150559 #
straight-curve $-1 -19.397023612579751 28.960211701082677 14.16733610150559 1 0 0 I I #
point $-1 -45.937681203650016 31.54190235079318 14.167336101505592 #
point $-1 -41.855604644512582 27.166249507510294 10.150511946732863 #
point $-1 -35.732489805806424 27.166249507510294 10.150511946732863 #
point $-1 -45.937681203650016 -31.54190235079318 14.167336101505592 #
straight-curve $-1 0 -31.54190235079318 14.167336101505592 1 0 0 I I #
End-of-ACIS-data 