500 0 15 0           
7 Unknown 11 ACIS 5.0 NT 24 Fri Mar 26 18:07:18 1999 
-1 9.9999999999999995e-007 1e-010 
body $-1 $15 $-1 $16 #
body $-1 $17 $-1 $18 #
body $-1 $19 $-1 $20 #
body $-1 $21 $-1 $22 #
body $-1 $23 $-1 $24 #
body $-1 $25 $-1 $26 #
body $-1 $27 $-1 $28 #
body $-1 $29 $-1 $30 #
body $-1 $31 $-1 $32 #
body $-1 $33 $-1 $34 #
body $-1 $35 $-1 $36 #
body $-1 $37 $-1 $38 #
body $-1 $39 $-1 $40 #
body $-1 $41 $-1 $42 #
body $-1 $43 $-1 $44 #
lump $-1 $-1 $45 $0 #
transform $-1 1 0 0 0 1 0 0 0 1 47.787102877895443 22.747547671698651 10.52321396136081 1 rotate no_reflect no_shear #
lump $-1 $-1 $46 $1 #
transform $-1 1 0 0 0 1 0 0 0 1 47.787102877895443 22.747547671698651 10.52321396136081 1 rotate no_reflect no_shear #
lump $-1 $-1 $47 $2 #
transform $-1 1 0 0 0 1 0 0 0 1 47.787102877895443 22.747547671698651 10.52321396136081 1 rotate no_reflect no_shear #
lump $-1 $-1 $48 $3 #
transform $-1 1 0 0 0 1 0 0 0 1 47.787102877895443 22.747547671698651 10.52321396136081 1 rotate no_reflect no_shear #
lump $-1 $-1 $49 $4 #
transform $-1 1 0 0 0 1 0 0 0 1 47.787102877895443 22.747547671698651 10.52321396136081 1 rotate no_reflect no_shear #
lump $-1 $-1 $50 $5 #
transform $-1 1 0 0 0 1 0 0 0 1 47.787102877895443 22.747547671698651 10.52321396136081 1 rotate no_reflect no_shear #
lump $-1 $-1 $51 $6 #
transform $-1 1 0 0 0 1 0 0 0 1 47.787102877895443 22.747547671698651 10.52321396136081 1 rotate no_reflect no_shear #
lump $-1 $-1 $52 $7 #
transform $-1 1 0 0 0 1 0 0 0 1 47.787102877895443 22.747547671698651 10.52321396136081 1 rotate no_reflect no_shear #
lump $-1 $-1 $53 $8 #
transform $-1 1 0 0 0 1 0 0 0 1 47.787102877895443 22.747547671698651 10.52321396136081 1 rotate no_reflect no_shear #
lump $-1 $-1 $54 $9 #
transform $-1 1 0 0 0 1 0 0 0 1 47.787102877895443 22.747547671698651 10.52321396136081 1 rotate no_reflect no_shear #
lump $-1 $-1 $55 $10 #
transform $-1 1 0 0 0 1 0 0 0 1 47.787102877895443 22.747547671698651 10.52321396136081 1 rotate no_reflect no_shear #
lump $-1 $-1 $56 $11 #
transform $-1 1 0 0 0 1 0 0 0 1 47.787102877895443 22.747547671698651 10.52321396136081 1 rotate no_reflect no_shear #
lump $-1 $-1 $57 $12 #
transform $-1 1 0 0 0 1 0 0 0 1 47.787102877895443 22.747547671698651 10.52321396136081 1 rotate no_reflect no_shear #
lump $-1 $-1 $58 $13 #
transform $-1 1 0 0 0 1 0 0 0 1 47.787102877895443 22.747547671698651 10.52321396136081 1 rotate no_reflect no_shear #
lump $-1 $-1 $59 $14 #
transform $-1 1 0 0 0 1 0 0 0 1 47.787102877895443 22.747547671698651 10.52321396136081 1 rotate no_reflect no_shear #
shell $-1 $-1 $-1 $60 $-1 $15 #
shell $-1 $-1 $-1 $61 $-1 $17 #
shell $-1 $-1 $-1 $62 $-1 $19 #
shell $-1 $-1 $-1 $63 $-1 $21 #
shell $-1 $-1 $-1 $64 $-1 $23 #
shell $-1 $-1 $-1 $65 $-1 $25 #
shell $-1 $-1 $-1 $66 $-1 $27 #
shell $-1 $-1 $-1 $67 $-1 $29 #
shell $-1 $-1 $-1 $68 $-1 $31 #
shell $-1 $-1 $-1 $69 $-1 $33 #
shell $-1 $-1 $-1 $70 $-1 $35 #
shell $-1 $-1 $-1 $71 $-1 $37 #
shell $-1 $-1 $-1 $72 $-1 $39 #
shell $-1 $-1 $-1 $73 $-1 $41 #
shell $-1 $-1 $-1 $74 $-1 $43 #
face $-1 $75 $76 $45 $-1 $77 reversed single #
face $-1 $78 $79 $46 $-1 $80 forward single #
face $-1 $81 $82 $47 $-1 $83 forward single #
face $-1 $84 $85 $48 $-1 $86 reversed single #
face $-1 $87 $88 $49 $-1 $89 forward single #
face $-1 $90 $91 $50 $-1 $92 forward single #
face $-1 $93 $94 $51 $-1 $95 forward single #
face $-1 $96 $97 $52 $-1 $98 reversed single #
face $-1 $99 $100 $53 $-1 $101 forward single #
face $-1 $102 $103 $54 $-1 $104 forward single #
face $-1 $105 $106 $55 $-1 $107 forward single #
face $-1 $108 $109 $56 $-1 $110 reversed single #
face $-1 $111 $112 $57 $-1 $113 forward single #
face $-1 $114 $115 $58 $-1 $116 forward single #
face $-1 $117 $118 $59 $-1 $119 forward single #
face $-1 $120 $121 $45 $-1 $122 forward single #
loop $-1 $-1 $123 $60 #
plane-surface $-1 0 -22.747547671698651 0 0 1 0 0 0 1 forward_v I I I I #
face $-1 $124 $125 $46 $-1 $126 forward single #
loop $-1 $-1 $127 $61 #
plane-surface $-1 0 -22.747547671698651 0 0 1 0 0 0 1 forward_v I I I I #
face $-1 $128 $129 $47 $-1 $130 forward single #
loop $-1 $-1 $131 $62 #
plane-surface $-1 0 22.747547671698651 0 0 -1 0 0 0 -1 forward_v I I I I #
face $-1 $132 $133 $48 $-1 $134 reversed single #
loop $-1 $-1 $135 $63 #
plane-surface $-1 -129.71018759114742 -9.8965712733565496 50.480709994676431 0 1 0 -0.85716730853699208 0 0.51503806187062418 forward_v I I I I #
face $-1 $136 $137 $49 $-1 $138 forward single #
loop $-1 $139 $140 $64 #
cone-surface $-1 -44.57447440335212 -8.7705346930854589 5.6322660984399118 0.85716730853699208 0 -0.51503806187062418 0.12875951546765604 0 0.21429182713424802 1 I I 0 1 0.25 forward I I I I #
face $-1 $141 $142 $50 $-1 $143 forward single #
loop $-1 $144 $145 $65 #
cone-surface $-1 -44.57447440335212 -7.0814798226788227 5.6322660984399118 0.85716730853699208 0 -0.51503806187062418 0.12875951546765604 0 0.21429182713424802 1 I I 0 1 0.25 forward I I I I #
face $-1 $146 $147 $51 $-1 $148 forward single #
loop $-1 $149 $150 $66 #
cone-surface $-1 -44.57447440335212 -5.3924249522721865 5.6322660984399118 0.85716730853699208 0 -0.51503806187062418 0.12875951546765604 0 0.21429182713424802 1 I I 0 1 0.25 forward I I I I #
face $-1 $151 $152 $52 $-1 $153 reversed single #
loop $-1 $-1 $154 $67 #
plane-surface $-1 -129.71018759114742 -2.8150914506777269 50.480709994676431 0 1 0 -0.85716730853699208 0 0.51503806187062418 forward_v I I I I #
face $-1 $155 $156 $53 $-1 $157 forward single #
loop $-1 $158 $159 $68 #
cone-surface $-1 -44.57447440335212 -1.6890548704066362 5.6322660984399118 0.85716730853699208 0 -0.51503806187062418 0.12875951546765604 0 0.21429182713424802 1 I I 0 1 0.25 forward I I I I #
face $-1 $160 $161 $54 $-1 $162 forward single #
loop $-1 $163 $164 $69 #
cone-surface $-1 -44.57447440335212 0 5.6322660984399118 0.85716730853699208 0 -0.51503806187062418 0.12875951546765604 0 0.21429182713424802 1 I I 0 1 0.25 forward I I I I #
face $-1 $165 $166 $55 $-1 $167 forward single #
loop $-1 $168 $169 $70 #
cone-surface $-1 -44.57447440335212 1.6890548704066362 5.6322660984399118 0.85716730853699208 0 -0.51503806187062418 0.12875951546765604 0 0.21429182713424802 1 I I 0 1 0.25 forward I I I I #
face $-1 $170 $171 $56 $-1 $172 reversed single #
loop $-1 $-1 $173 $71 #
plane-surface $-1 -129.71018759114742 4.2663883720010958 50.480709994676431 0 1 0 -0.85716730853699208 0 0.51503806187062418 forward_v I I I I #
face $-1 $174 $175 $57 $-1 $176 forward single #
loop $-1 $177 $178 $72 #
cone-surface $-1 -44.57447440335212 5.3924249522721865 5.6322660984399118 0.85716730853699208 0 -0.51503806187062418 0.12875951546765604 0 0.21429182713424802 1 I I 0 1 0.25 forward I I I I #
face $-1 $179 $180 $58 $-1 $181 forward single #
loop $-1 $182 $183 $73 #
cone-surface $-1 -44.57447440335212 7.0814798226788227 5.6322660984399118 0.85716730853699208 0 -0.51503806187062418 0.12875951546765604 0 0.21429182713424802 1 I I 0 1 0.25 forward I I I I #
face $-1 $184 $185 $59 $-1 $186 forward single #
loop $-1 $187 $188 $74 #
cone-surface $-1 -44.57447440335212 8.7705346930854589 5.6322660984399118 0.85716730853699208 0 -0.51503806187062418 0.12875951546765604 0 0.21429182713424802 1 I I 0 1 0.25 forward I I I I #
face $-1 $189 $190 $45 $-1 $191 reversed single #
loop $-1 $-1 $192 $75 #
plane-surface $-1 0 0 10.52321396136081 0 0 1 1 0 0 forward_v I I I I #
coedge $-1 $193 $194 $195 $196 reversed $76 $-1 #
face $-1 $197 $198 $46 $-1 $199 reversed single #
loop $-1 $-1 $200 $78 #
plane-surface $-1 0 0 10.52321396136081 0 0 1 1 0 0 forward_v I I I I #
coedge $-1 $201 $202 $203 $204 forward $79 $-1 #
face $-1 $205 $206 $47 $-1 $207 reversed single #
loop $-1 $-1 $208 $81 #
plane-surface $-1 0 0 10.52321396136081 0 0 1 1 0 0 forward_v I I I I #
coedge $-1 $209 $210 $211 $212 forward $82 $-1 #
face $-1 $213 $214 $48 $-1 $215 reversed single #
loop $-1 $-1 $216 $84 #
plane-surface $-1 -47.78710287789545 -7.0814798226788227 1.2563562973896367 -0.85716730853699208 0 0.51503806187062418 0.51503806187062418 0 0.85716730853699208 forward_v I I I I #
coedge $-1 $217 $218 $219 $220 reversed $85 $-1 #
face $-1 $-1 $221 $49 $-1 $222 forward single #
loop $-1 $223 $224 $87 #
cone-surface $-1 -44.038744835516503 -8.7705346930854589 5.310367309770772 0.85716730853699208 0 -0.51503806187062418 0.064379757733828022 0 0.10714591356712401 1 I I -0.70710678118654746 0.70710678118654746 0.125 forward I I I I #
loop $-1 $-1 $225 $64 #
coedge $-1 $140 $140 $226 $227 reversed $88 $-1 #
face $-1 $-1 $228 $50 $-1 $229 forward single #
loop $-1 $230 $231 $90 #
cone-surface $-1 -44.038744835516503 -7.0814798226788227 5.310367309770772 0.85716730853699208 0 -0.51503806187062418 0.064379757733828022 0 0.10714591356712401 1 I I -0.70710678118654746 0.70710678118654746 0.125 forward I I I I #
loop $-1 $-1 $232 $65 #
coedge $-1 $145 $145 $233 $234 reversed $91 $-1 #
face $-1 $-1 $235 $51 $-1 $236 forward single #
loop $-1 $237 $238 $93 #
cone-surface $-1 -44.038744835516503 -5.3924249522721865 5.310367309770772 0.85716730853699208 0 -0.51503806187062418 0.064379757733828022 0 0.10714591356712401 1 I I -0.70710678118654746 0.70710678118654746 0.125 forward I I I I #
loop $-1 $-1 $239 $66 #
coedge $-1 $150 $150 $240 $241 reversed $94 $-1 #
face $-1 $242 $243 $52 $-1 $244 reversed single #
loop $-1 $-1 $245 $96 #
plane-surface $-1 -47.78710287789545 0 1.2563562973896367 -0.85716730853699208 0 0.51503806187062418 0.51503806187062418 0 0.85716730853699208 forward_v I I I I #
coedge $-1 $246 $247 $248 $249 reversed $97 $-1 #
face $-1 $-1 $250 $53 $-1 $251 forward single #
loop $-1 $252 $253 $99 #
cone-surface $-1 -44.038744835516503 -1.6890548704066362 5.310367309770772 0.85716730853699208 0 -0.51503806187062418 0.064379757733828022 0 0.10714591356712401 1 I I -0.70710678118654746 0.70710678118654746 0.125 forward I I I I #
loop $-1 $-1 $254 $68 #
coedge $-1 $159 $159 $255 $256 reversed $100 $-1 #
face $-1 $-1 $257 $54 $-1 $258 forward single #
loop $-1 $259 $260 $102 #
cone-surface $-1 -44.038744835516503 0 5.310367309770772 0.85716730853699208 0 -0.51503806187062418 0.064379757733828022 0 0.10714591356712401 1 I I -0.70710678118654746 0.70710678118654746 0.125 forward I I I I #
loop $-1 $-1 $261 $69 #
coedge $-1 $164 $164 $262 $263 reversed $103 $-1 #
face $-1 $-1 $264 $55 $-1 $265 forward single #
loop $-1 $266 $267 $105 #
cone-surface $-1 -44.038744835516503 1.6890548704066362 5.310367309770772 0.85716730853699208 0 -0.51503806187062418 0.064379757733828022 0 0.10714591356712401 1 I I -0.70710678118654746 0.70710678118654746 0.125 forward I I I I #
loop $-1 $-1 $268 $70 #
coedge $-1 $169 $169 $269 $270 reversed $106 $-1 #
face $-1 $271 $272 $56 $-1 $273 reversed single #
loop $-1 $-1 $274 $108 #
plane-surface $-1 -47.78710287789545 7.0814798226788227 1.2563562973896367 -0.85716730853699208 0 0.51503806187062418 0.51503806187062418 0 0.85716730853699208 forward_v I I I I #
coedge $-1 $275 $276 $277 $278 reversed $109 $-1 #
face $-1 $-1 $279 $57 $-1 $280 forward single #
loop $-1 $281 $282 $111 #
cone-surface $-1 -44.038744835516503 5.3924249522721865 5.310367309770772 0.85716730853699208 0 -0.51503806187062418 0.064379757733828022 0 0.10714591356712401 1 I I -0.70710678118654746 0.70710678118654746 0.125 forward I I I I #
loop $-1 $-1 $283 $72 #
coedge $-1 $178 $178 $284 $285 reversed $112 $-1 #
face $-1 $-1 $286 $58 $-1 $287 forward single #
loop $-1 $288 $289 $114 #
cone-surface $-1 -44.038744835516503 7.0814798226788227 5.310367309770772 0.85716730853699208 0 -0.51503806187062418 0.064379757733828022 0 0.10714591356712401 1 I I -0.70710678118654746 0.70710678118654746 0.125 forward I I I I #
loop $-1 $-1 $290 $73 #
coedge $-1 $183 $183 $291 $292 reversed $115 $-1 #
face $-1 $-1 $293 $59 $-1 $294 forward single #
loop $-1 $295 $296 $117 #
cone-surface $-1 -44.038744835516503 8.7705346930854589 5.310367309770772 0.85716730853699208 0 -0.51503806187062418 0.064379757733828022 0 0.10714591356712401 1 I I -0.70710678118654746 0.70710678118654746 0.125 forward I I I I #
loop $-1 $-1 $297 $74 #
coedge $-1 $188 $188 $298 $299 reversed $118 $-1 #
face $-1 $300 $301 $45 $-1 $302 reversed single #
loop $-1 $-1 $303 $120 #
plane-surface $-1 0 0 -10.52321396136081 0 0 1 1 0 0 forward_v I I I I #
coedge $-1 $304 $305 $306 $307 forward $121 $-1 #
coedge $-1 $308 $123 $309 $310 reversed $76 $-1 #
coedge $-1 $123 $308 $311 $312 forward $76 $-1 #
coedge $-1 $313 $303 $123 $196 forward $190 $-1 #
edge $-1 $314 -47.787102877895443 $315 47.787102877895443 $123 $316 forward 7 unknown #
face $-1 $317 $318 $46 $-1 $319 reversed single #
loop $-1 $-1 $320 $124 #
plane-surface $-1 -47.787102877895443 0 0 1 0 0 0 0 -1 forward_v I I I I #
coedge $-1 $321 $322 $202 $323 forward $125 $-1 #
coedge $-1 $324 $127 $325 $326 reversed $79 $-1 #
coedge $-1 $127 $324 $200 $323 reversed $79 $-1 #
coedge $-1 $327 $328 $127 $204 reversed $329 $-1 #
edge $-1 $330 -10.52321396136081 $331 10.52321396136081 $203 $332 forward 7 unknown #
face $-1 $333 $334 $47 $-1 $335 reversed single #
loop $-1 $-1 $336 $128 #
plane-surface $-1 -46.287102877895443 32.695930227394015 0 0 -1 0 0 0 -1 forward_v I I I I #
coedge $-1 $337 $338 $209 $339 forward $129 $-1 #
coedge $-1 $340 $131 $208 $339 reversed $82 $-1 #
coedge $-1 $131 $340 $341 $342 reversed $82 $-1 #
coedge $-1 $343 $344 $131 $212 reversed $334 $-1 #
edge $-1 $345 -10.52321396136081 $346 10.52321396136081 $211 $347 forward 7 unknown #
face $-1 $348 $349 $48 $-1 $350 reversed single #
loop $-1 $-1 $351 $132 #
plane-surface $-1 -129.71018759114742 -4.2663883720010958 50.480709994676431 0 -1 0 0.85716730853699208 0 -0.51503806187062418 forward_v I I I I #
coedge $-1 $352 $353 $354 $355 reversed $133 $-1 #
coedge $-1 $218 $135 $356 $357 reversed $85 $-1 #
coedge $-1 $135 $217 $352 $358 reversed $85 $-1 #
coedge $-1 $354 $359 $135 $220 forward $360 $-1 #
edge $-1 $361 17.067990917678266 $362 22.63608055822791 $219 $363 forward 7 unknown #
loop $-1 $-1 $226 $136 #
plane-surface $-1 -47.78710287789545 -7.0814798226788227 1.2563562973896367 -0.85716730853699208 0 0.51503806187062418 0.51503806187062418 0 0.85716730853699208 forward_v I I I I #
loop $-1 $-1 $364 $87 #
coedge $-1 $224 $224 $225 $365 reversed $137 $-1 #
coedge $-1 $225 $225 $224 $365 forward $139 $-1 #
coedge $-1 $226 $226 $140 $227 forward $221 $-1 #
edge $-1 $366 0 $366 6.2831853071796004 $226 $367 forward 7 unknown #
loop $-1 $-1 $233 $141 #
plane-surface $-1 -47.78710287789545 -7.0814798226788227 1.2563562973896367 -0.85716730853699208 0 0.51503806187062418 0.51503806187062418 0 0.85716730853699208 forward_v I I I I #
loop $-1 $-1 $368 $90 #
coedge $-1 $231 $231 $232 $369 reversed $142 $-1 #
coedge $-1 $232 $232 $231 $369 forward $144 $-1 #
coedge $-1 $233 $233 $145 $234 forward $228 $-1 #
edge $-1 $370 0 $370 6.2831853071796004 $233 $371 forward 7 unknown #
loop $-1 $-1 $240 $146 #
plane-surface $-1 -47.78710287789545 -7.0814798226788227 1.2563562973896367 -0.85716730853699208 0 0.51503806187062418 0.51503806187062418 0 0.85716730853699208 forward_v I I I I #
loop $-1 $-1 $372 $93 #
coedge $-1 $238 $238 $239 $373 reversed $147 $-1 #
coedge $-1 $239 $239 $238 $373 forward $149 $-1 #
coedge $-1 $240 $240 $150 $241 forward $235 $-1 #
edge $-1 $374 0 $374 6.2831853071796004 $240 $375 forward 7 unknown #
face $-1 $376 $377 $52 $-1 $378 forward single #
loop $-1 $-1 $379 $151 #
plane-surface $-1 -129.71018759114742 2.8150914506777269 50.480709994676431 0 -1 0 0.85716730853699208 0 -0.51503806187062418 forward_v I I I I #
coedge $-1 $380 $381 $382 $383 reversed $152 $-1 #
coedge $-1 $247 $154 $384 $385 reversed $97 $-1 #
coedge $-1 $154 $246 $380 $386 reversed $97 $-1 #
coedge $-1 $382 $387 $154 $249 forward $377 $-1 #
edge $-1 $388 17.067990917678266 $389 22.63608055822791 $248 $390 forward 7 unknown #
loop $-1 $-1 $255 $155 #
plane-surface $-1 -47.78710287789545 0 1.2563562973896367 -0.85716730853699208 0 0.51503806187062418 0.51503806187062418 0 0.85716730853699208 forward_v I I I I #
loop $-1 $-1 $391 $99 #
coedge $-1 $253 $253 $254 $392 reversed $156 $-1 #
coedge $-1 $254 $254 $253 $392 forward $158 $-1 #
coedge $-1 $255 $255 $159 $256 forward $250 $-1 #
edge $-1 $393 0 $393 6.2831853071796004 $255 $394 forward 7 unknown #
loop $-1 $-1 $262 $160 #
plane-surface $-1 -47.78710287789545 0 1.2563562973896367 -0.85716730853699208 0 0.51503806187062418 0.51503806187062418 0 0.85716730853699208 forward_v I I I I #
loop $-1 $-1 $395 $102 #
coedge $-1 $260 $260 $261 $396 reversed $161 $-1 #
coedge $-1 $261 $261 $260 $396 forward $163 $-1 #
coedge $-1 $262 $262 $164 $263 forward $257 $-1 #
edge $-1 $397 0 $397 6.2831853071796004 $262 $398 forward 7 unknown #
loop $-1 $-1 $269 $165 #
plane-surface $-1 -47.78710287789545 0 1.2563562973896367 -0.85716730853699208 0 0.51503806187062418 0.51503806187062418 0 0.85716730853699208 forward_v I I I I #
loop $-1 $-1 $399 $105 #
coedge $-1 $267 $267 $268 $400 reversed $166 $-1 #
coedge $-1 $268 $268 $267 $400 forward $168 $-1 #
coedge $-1 $269 $269 $169 $270 forward $264 $-1 #
edge $-1 $401 0 $401 6.2831853071796004 $269 $402 forward 7 unknown #
face $-1 $403 $404 $56 $-1 $405 forward single #
loop $-1 $-1 $406 $170 #
plane-surface $-1 -129.71018759114742 9.8965712733565496 50.480709994676431 0 -1 0 0.85716730853699208 0 -0.51503806187062418 forward_v I I I I #
coedge $-1 $407 $408 $409 $410 reversed $171 $-1 #
coedge $-1 $276 $173 $411 $412 reversed $109 $-1 #
coedge $-1 $173 $275 $407 $413 reversed $109 $-1 #
coedge $-1 $409 $414 $173 $278 forward $404 $-1 #
edge $-1 $415 17.067990917678266 $416 22.63608055822791 $277 $417 forward 7 unknown #
loop $-1 $-1 $284 $174 #
plane-surface $-1 -47.78710287789545 7.0814798226788227 1.2563562973896367 -0.85716730853699208 0 0.51503806187062418 0.51503806187062418 0 0.85716730853699208 forward_v I I I I #
loop $-1 $-1 $418 $111 #
coedge $-1 $282 $282 $283 $419 reversed $175 $-1 #
coedge $-1 $283 $283 $282 $419 forward $177 $-1 #
coedge $-1 $284 $284 $178 $285 forward $279 $-1 #
edge $-1 $420 0 $420 6.2831853071796004 $284 $421 forward 7 unknown #
loop $-1 $-1 $291 $179 #
plane-surface $-1 -47.78710287789545 7.0814798226788227 1.2563562973896367 -0.85716730853699208 0 0.51503806187062418 0.51503806187062418 0 0.85716730853699208 forward_v I I I I #
loop $-1 $-1 $422 $114 #
coedge $-1 $289 $289 $290 $423 reversed $180 $-1 #
coedge $-1 $290 $290 $289 $423 forward $182 $-1 #
coedge $-1 $291 $291 $183 $292 forward $286 $-1 #
edge $-1 $424 0 $424 6.2831853071796004 $291 $425 forward 7 unknown #
loop $-1 $-1 $298 $184 #
plane-surface $-1 -47.78710287789545 7.0814798226788227 1.2563562973896367 -0.85716730853699208 0 0.51503806187062418 0.51503806187062418 0 0.85716730853699208 forward_v I I I I #
loop $-1 $-1 $426 $117 #
coedge $-1 $296 $296 $297 $427 reversed $185 $-1 #
coedge $-1 $297 $297 $296 $427 forward $187 $-1 #
coedge $-1 $298 $298 $188 $299 forward $293 $-1 #
edge $-1 $428 0 $428 6.2831853071796004 $298 $429 forward 7 unknown #
face $-1 $430 $431 $45 $-1 $432 reversed single #
loop $-1 $-1 $433 $189 #
plane-surface $-1 -47.787102877895443 0 0 1 0 0 0 0 -1 forward_v I I I I #
coedge $-1 $195 $434 $435 $436 forward $190 $-1 #
coedge $-1 $437 $192 $438 $439 forward $121 $-1 #
coedge $-1 $192 $437 $308 $440 forward $121 $-1 #
coedge $-1 $309 $441 $192 $307 reversed $442 $-1 #
edge $-1 $443 -22.747547671698651 $444 22.747547671698651 $306 $445 forward 7 unknown #
coedge $-1 $194 $193 $305 $440 reversed $76 $-1 #
coedge $-1 $435 $306 $193 $310 forward $442 $-1 #
edge $-1 $443 -10.52321396136081 $314 10.52321396136081 $309 $446 forward 7 unknown #
coedge $-1 $447 $448 $194 $312 reversed $301 $-1 #
edge $-1 $449 -10.52321396136081 $315 10.52321396136081 $311 $450 forward 7 unknown #
coedge $-1 $434 $195 $448 $451 forward $190 $-1 #
vertex $-1 $310 $452 #
vertex $-1 $451 $453 #
straight-curve $-1 0 -22.747547671698651 -10.52321396136081 -1 0 0 I I #
face $-1 $454 $329 $46 $-1 $455 reversed single #
loop $-1 $-1 $456 $197 #
plane-surface $-1 -46.287102877895443 -32.695930227394015 0 0 1 0 0 0 1 forward_v I I I I #
coedge $-1 $457 $458 $324 $459 forward $198 $-1 #
coedge $-1 $460 $200 $458 $461 forward $125 $-1 #
coedge $-1 $200 $460 $327 $462 forward $125 $-1 #
edge $-1 $330 44.787102877895443 $463 47.787102877895443 $200 $464 forward 7 unknown #
coedge $-1 $202 $201 $320 $459 reversed $79 $-1 #
coedge $-1 $465 $466 $201 $326 forward $467 $-1 #
edge $-1 $468 -47.787102877895443 $331 -44.787102877895443 $325 $469 forward 7 unknown #
coedge $-1 $470 $203 $322 $462 reversed $329 $-1 #
coedge $-1 $203 $470 $465 $471 reversed $329 $-1 #
loop $-1 $-1 $470 $317 #
vertex $-1 $323 $472 #
vertex $-1 $471 $473 #
straight-curve $-1 -44.787102877895443 -22.747547671698651 0 0 0 -1 I I #
face $-1 $474 $475 $47 $-1 $476 reversed single #
loop $-1 $-1 $211 $205 #
plane-surface $-1 -44.787102877895443 27.721738949546332 0 -1 0 0 0 0 1 forward_v I I I I #
coedge $-1 $477 $478 $479 $480 forward $206 $-1 #
coedge $-1 $481 $208 $344 $482 forward $129 $-1 #
coedge $-1 $208 $481 $483 $484 forward $129 $-1 #
edge $-1 $485 -47.787102877895443 $346 -44.787102877895443 $208 $486 forward 7 unknown #
coedge $-1 $210 $209 $487 $488 reversed $82 $-1 #
coedge $-1 $489 $490 $210 $342 forward $475 $-1 #
edge $-1 $345 44.787102877895443 $491 47.787102877895443 $341 $492 forward 7 unknown #
coedge $-1 $479 $211 $490 $493 reversed $334 $-1 #
coedge $-1 $211 $479 $337 $482 reversed $334 $-1 #
vertex $-1 $342 $494 #
vertex $-1 $482 $495 #
straight-curve $-1 -44.787102877895443 22.747547671698651 0 0 0 1 I I #
face $-1 $-1 $360 $48 $-1 $496 forward single #
loop $-1 $-1 $497 $213 #
plane-surface $-1 -47.787102877895443 0 0 1 0 0 0 0 -1 forward_v I I I I #
coedge $-1 $498 $499 $500 $501 reversed $214 $-1 #
coedge $-1 $502 $216 $218 $358 forward $133 $-1 #
coedge $-1 $216 $502 $498 $503 forward $133 $-1 #
coedge $-1 $500 $219 $216 $355 forward $360 $-1 #
edge $-1 $362 -6.3558313620171383 $504 -0.72564846066168442 $354 $505 forward 7 unknown #
coedge $-1 $506 $507 $217 $357 forward $349 $-1 #
edge $-1 $508 -23.983998699948568 $361 -14.717141035977406 $356 $509 forward 7 unknown #
edge $-1 $362 -10.811025539212164 $508 -1.3747022483095021e-014 $218 $510 forward 7 unknown #
coedge $-1 $219 $500 $506 $511 forward $360 $-1 #
loop $-1 $-1 $500 $348 #
vertex $-1 $357 $512 #
vertex $-1 $220 $513 #
straight-curve $-1 -64.855093795573708 -9.8965712733565496 10.52321396136081 1 0 0 I I #
coedge $-1 $364 $364 $-1 $514 reversed $223 $-1 #
edge $-1 $515 0 $515 6.2831853071796004 $224 $516 forward 7 unknown #
vertex $-1 $227 $517 #
ellipse-curve $-1 -45.003058057620621 -8.7705346930854589 5.8897851293752268 -0.85716730853699208 0 0.51503806187062418 0.12875951546765604 0 0.21429182713424802 1 I I #
coedge $-1 $368 $368 $-1 $518 reversed $230 $-1 #
edge $-1 $519 0 $519 6.2831853071796004 $231 $520 forward 7 unknown #
vertex $-1 $234 $521 #
ellipse-curve $-1 -45.003058057620621 -7.0814798226788227 5.8897851293752268 -0.85716730853699208 0 0.51503806187062418 0.12875951546765604 0 0.21429182713424802 1 I I #
coedge $-1 $372 $372 $-1 $522 reversed $237 $-1 #
edge $-1 $523 0 $523 6.2831853071796004 $238 $524 forward 7 unknown #
vertex $-1 $241 $525 #
ellipse-curve $-1 -45.003058057620621 -5.3924249522721865 5.8897851293752268 -0.85716730853699208 0 0.51503806187062418 0.12875951546765604 0 0.21429182713424802 1 I I #
face $-1 $-1 $526 $52 $-1 $527 reversed single #
loop $-1 $-1 $248 $242 #
plane-surface $-1 0 0 10.52321396136081 0 0 1 1 0 0 forward_v I I I I #
coedge $-1 $528 $529 $530 $531 reversed $243 $-1 #
coedge $-1 $532 $245 $247 $386 forward $152 $-1 #
coedge $-1 $245 $532 $528 $533 forward $152 $-1 #
coedge $-1 $530 $248 $245 $383 forward $377 $-1 #
edge $-1 $389 -2.8150914506777269 $534 2.8150914506777269 $382 $535 forward 7 unknown #
coedge $-1 $536 $537 $246 $385 forward $526 $-1 #
edge $-1 $538 -23.983998699948568 $388 -14.717141035977406 $384 $539 forward 7 unknown #
edge $-1 $389 -10.811025539212164 $538 -1.3747022483095021e-014 $247 $540 forward 7 unknown #
coedge $-1 $248 $530 $536 $541 forward $377 $-1 #
vertex $-1 $385 $542 #
vertex $-1 $249 $543 #
straight-curve $-1 -64.855093795573708 -2.8150914506777269 10.52321396136081 1 0 0 I I #
coedge $-1 $391 $391 $-1 $544 reversed $252 $-1 #
edge $-1 $545 0 $545 6.2831853071796004 $253 $546 forward 7 unknown #
vertex $-1 $256 $547 #
ellipse-curve $-1 -45.003058057620621 -1.6890548704066362 5.8897851293752268 -0.85716730853699208 0 0.51503806187062418 0.12875951546765604 0 0.21429182713424802 1 I I #
coedge $-1 $395 $395 $-1 $548 reversed $259 $-1 #
edge $-1 $549 0 $549 6.2831853071796004 $260 $550 forward 7 unknown #
vertex $-1 $263 $551 #
ellipse-curve $-1 -45.003058057620621 0 5.8897851293752268 -0.85716730853699208 0 0.51503806187062418 0.12875951546765604 0 0.21429182713424802 1 I I #
coedge $-1 $399 $399 $-1 $552 reversed $266 $-1 #
edge $-1 $553 0 $553 6.2831853071796004 $267 $554 forward 7 unknown #
vertex $-1 $270 $555 #
ellipse-curve $-1 -45.003058057620621 1.6890548704066362 5.8897851293752268 -0.85716730853699208 0 0.51503806187062418 0.12875951546765604 0 0.21429182713424802 1 I I #
face $-1 $-1 $556 $56 $-1 $557 reversed single #
loop $-1 $-1 $277 $271 #
plane-surface $-1 0 0 10.52321396136081 0 0 1 1 0 0 forward_v I I I I #
coedge $-1 $558 $559 $560 $561 reversed $272 $-1 #
coedge $-1 $562 $274 $276 $413 forward $171 $-1 #
coedge $-1 $274 $562 $558 $563 forward $171 $-1 #
coedge $-1 $560 $277 $274 $410 forward $404 $-1 #
edge $-1 $416 0.72564846066168442 $564 6.3558313620171383 $409 $565 forward 7 unknown #
coedge $-1 $566 $567 $275 $412 forward $556 $-1 #
edge $-1 $568 -23.983998699948568 $415 -14.717141035977406 $411 $569 forward 7 unknown #
edge $-1 $416 -10.811025539212164 $568 -1.3747022483095021e-014 $276 $570 forward 7 unknown #
coedge $-1 $277 $560 $566 $571 forward $404 $-1 #
vertex $-1 $278 $572 #
vertex $-1 $278 $573 #
straight-curve $-1 -64.855093795573708 4.2663883720010958 10.52321396136081 1 0 0 I I #
coedge $-1 $418 $418 $-1 $574 reversed $281 $-1 #
edge $-1 $575 0 $575 6.2831853071796004 $282 $576 forward 7 unknown #
vertex $-1 $285 $577 #
ellipse-curve $-1 -45.003058057620621 5.3924249522721865 5.8897851293752268 -0.85716730853699208 0 0.51503806187062418 0.12875951546765604 0 0.21429182713424802 1 I I #
coedge $-1 $422 $422 $-1 $578 reversed $288 $-1 #
edge $-1 $579 0 $579 6.2831853071796004 $289 $580 forward 7 unknown #
vertex $-1 $292 $581 #
ellipse-curve $-1 -45.003058057620621 7.0814798226788227 5.8897851293752268 -0.85716730853699208 0 0.51503806187062418 0.12875951546765604 0 0.21429182713424802 1 I I #
coedge $-1 $426 $426 $-1 $582 reversed $295 $-1 #
edge $-1 $583 0 $583 6.2831853071796004 $296 $584 forward 7 unknown #
vertex $-1 $299 $585 #
ellipse-curve $-1 -45.003058057620621 8.7705346930854589 5.8897851293752268 -0.85716730853699208 0 0.51503806187062418 0.12875951546765604 0 0.21429182713424802 1 I I #
face $-1 $-1 $442 $45 $-1 $586 reversed single #
loop $-1 $-1 $438 $300 #
plane-surface $-1 0 22.747547671698651 0 0 -1 0 0 0 -1 forward_v I I I I #
coedge $-1 $448 $447 $587 $588 forward $301 $-1 #
coedge $-1 $303 $313 $589 $590 forward $190 $-1 #
coedge $-1 $441 $309 $303 $436 reversed $442 $-1 #
edge $-1 $591 -22.747547671698651 $314 22.747547671698651 $435 $592 forward 7 unknown #
coedge $-1 $305 $304 $447 $593 forward $121 $-1 #
coedge $-1 $594 $587 $304 $439 reversed $431 $-1 #
edge $-1 $444 -47.787102877895443 $595 47.787102877895443 $438 $596 forward 7 unknown #
edge $-1 $449 -47.787102877895443 $443 47.787102877895443 $308 $597 forward 7 unknown #
coedge $-1 $306 $435 $594 $598 reversed $442 $-1 #
loop $-1 $-1 $309 $430 #
vertex $-1 $307 $599 #
vertex $-1 $307 $600 #
straight-curve $-1 47.787102877895443 0 10.52321396136081 0 1 0 I I #
straight-curve $-1 47.787102877895443 -22.747547671698651 0 0 0 -1 I I #
coedge $-1 $433 $311 $437 $593 reversed $301 $-1 #
coedge $-1 $311 $433 $313 $451 reversed $301 $-1 #
vertex $-1 $593 $601 #
straight-curve $-1 -47.787102877895443 -22.747547671698651 0 0 0 -1 I I #
edge $-1 $315 -22.747547671698651 $602 22.747547671698651 $448 $603 forward 7 unknown #
point $-1 47.787102877895443 -22.747547671698651 -10.52321396136081 #
point $-1 -47.787102877895443 -22.747547671698651 -10.52321396136081 #
face $-1 $-1 $467 $46 $-1 $604 reversed single #
plane-surface $-1 -44.787102877895443 -27.721738949546332 0 -1 0 0 0 0 1 forward_v I I I I #
coedge $-1 $605 $606 $607 $608 forward $318 $-1 #
coedge $-1 $607 $320 $466 $609 reversed $198 $-1 #
coedge $-1 $320 $607 $321 $461 reversed $198 $-1 #
edge $-1 $463 -10.52321396136081 $468 10.52321396136081 $320 $610 forward 7 unknown #
coedge $-1 $322 $321 $606 $611 forward $125 $-1 #
edge $-1 $463 22.747547671698651 $612 32.695930227394015 $458 $613 forward 7 unknown #
edge $-1 $614 -4.9741912778476838 $330 4.9741912778476802 $327 $615 forward 7 unknown #
vertex $-1 $461 $616 #
straight-curve $-1 0 -22.747547671698651 10.52321396136081 -1 0 0 I I #
coedge $-1 $617 $325 $328 $471 forward $467 $-1 #
coedge $-1 $325 $617 $457 $609 forward $467 $-1 #
loop $-1 $-1 $325 $454 #
vertex $-1 $459 $618 #
straight-curve $-1 0 -22.747547671698651 -10.52321396136081 1 0 0 I I #
coedge $-1 $328 $327 $619 $620 forward $329 $-1 #
edge $-1 $331 -4.9741912778476802 $621 4.9741912778476838 $328 $622 forward 7 unknown #
point $-1 -44.787102877895443 -22.747547671698651 10.52321396136081 #
point $-1 -44.787102877895443 -22.747547671698651 -10.52321396136081 #
face $-1 $-1 $623 $47 $-1 $624 reversed single #
loop $-1 $-1 $341 $333 #
plane-surface $-1 0 0 -10.52321396136081 0 0 1 1 0 0 forward_v I I I I #
coedge $-1 $625 $336 $626 $627 reversed $206 $-1 #
coedge $-1 $336 $625 $481 $628 reversed $206 $-1 #
coedge $-1 $344 $343 $336 $480 reversed $334 $-1 #
edge $-1 $629 -10.52321396136081 $630 10.52321396136081 $479 $631 forward 7 unknown #
coedge $-1 $338 $337 $478 $628 forward $129 $-1 #
edge $-1 $346 -4.9741912778476802 $629 4.9741912778476838 $344 $632 forward 7 unknown #
coedge $-1 $633 $487 $338 $484 reversed $623 $-1 #
edge $-1 $634 -32.695930227394015 $485 -22.747547671698651 $483 $635 forward 7 unknown #
vertex $-1 $488 $636 #
straight-curve $-1 0 22.747547671698651 10.52321396136081 1 0 0 I I #
coedge $-1 $483 $637 $340 $488 forward $623 $-1 #
edge $-1 $491 -10.52321396136081 $485 10.52321396136081 $487 $638 forward 7 unknown #
coedge $-1 $626 $341 $637 $639 forward $475 $-1 #
coedge $-1 $341 $626 $343 $493 forward $475 $-1 #
vertex $-1 $639 $640 #
straight-curve $-1 0 22.747547671698651 -10.52321396136081 -1 0 0 I I #
edge $-1 $630 -4.9741912778476838 $345 4.9741912778476802 $343 $641 forward 7 unknown #
point $-1 -44.787102877895443 22.747547671698651 -10.52321396136081 #
point $-1 -44.787102877895443 22.747547671698651 10.52321396136081 #
plane-surface $-1 0 0 10.52321396136081 0 0 1 1 0 0 forward_v I I I I #
coedge $-1 $507 $506 $499 $642 forward $349 $-1 #
coedge $-1 $499 $351 $353 $503 reversed $214 $-1 #
coedge $-1 $351 $498 $497 $642 reversed $214 $-1 #
coedge $-1 $359 $354 $351 $501 forward $360 $-1 #
edge $-1 $504 -22.63608055822791 $643 -17.067990917678266 $500 $644 forward 7 unknown #
coedge $-1 $353 $352 $507 $645 reversed $133 $-1 #
edge $-1 $646 1.3747022483095021e-014 $504 10.811025539212164 $498 $647 forward 7 unknown #
vertex $-1 $355 $648 #
straight-curve $-1 -42.219013237345798 -3.5407399113394113 10.52321396136081 0 1 0 I I #
coedge $-1 $497 $356 $359 $511 reversed $349 $-1 #
coedge $-1 $356 $497 $502 $645 forward $349 $-1 #
vertex $-1 $357 $649 #
straight-curve $-1 -47.787102877895443 -9.8965712733565496 25.240354997338216 0 0 1 I I #
straight-curve $-1 -47.78710287789545 -9.8965712733565496 1.2563562973896367 -0.51503806187062418 0 -0.85716730853699208 I I #
edge $-1 $643 4.2663883720010958 $361 9.8965712733565496 $506 $650 forward 7 unknown #
point $-1 -47.787102877895443 -9.8965712733565496 10.52321396136081 #
point $-1 -42.219013237345798 -9.8965712733565496 10.52321396136081 #
edge $-1 $651 1 $651 0 $364 $-1 forward 7 unknown #
vertex $-1 $365 $652 #
ellipse-curve $-1 -44.145890749083627 -8.7705346930854589 5.3747470675046003 -0.85716730853699208 0 0.51503806187062418 0.12875951546765604 0 0.21429182713424802 1 I I #
point $-1 -44.874298542152964 -8.7705346930854589 6.1040769565094717 #
edge $-1 $653 1 $653 0 $368 $-1 forward 7 unknown #
vertex $-1 $369 $654 #
ellipse-curve $-1 -44.145890749083627 -7.0814798226788227 5.3747470675046003 -0.85716730853699208 0 0.51503806187062418 0.12875951546765604 0 0.21429182713424802 1 I I #
point $-1 -44.874298542152964 -7.0814798226788227 6.1040769565094717 #
edge $-1 $655 1 $655 0 $372 $-1 forward 7 unknown #
vertex $-1 $373 $656 #
ellipse-curve $-1 -44.145890749083627 -5.3924249522721865 5.3747470675046003 -0.85716730853699208 0 0.51503806187062418 0.12875951546765604 0 0.21429182713424802 1 I I #
point $-1 -44.874298542152964 -5.3924249522721865 6.1040769565094717 #
loop $-1 $-1 $384 $376 #
plane-surface $-1 -47.787102877895443 0 0 1 0 0 0 0 -1 forward_v I I I I #
coedge $-1 $529 $379 $381 $533 reversed $243 $-1 #
coedge $-1 $379 $528 $657 $658 reversed $243 $-1 #
coedge $-1 $387 $382 $379 $531 forward $377 $-1 #
edge $-1 $534 -22.63608055822791 $659 -17.067990917678266 $530 $660 forward 7 unknown #
coedge $-1 $381 $380 $537 $661 reversed $152 $-1 #
edge $-1 $662 1.3747022483095021e-014 $534 10.811025539212164 $528 $663 forward 7 unknown #
vertex $-1 $383 $664 #
straight-curve $-1 -42.219013237345798 0 10.52321396136081 0 1 0 I I #
coedge $-1 $657 $384 $387 $541 reversed $526 $-1 #
coedge $-1 $384 $657 $532 $661 forward $526 $-1 #
vertex $-1 $385 $665 #
straight-curve $-1 -47.787102877895443 -2.8150914506777269 25.240354997338216 0 0 1 I I #
straight-curve $-1 -47.78710287789545 -2.8150914506777269 1.2563562973896367 -0.51503806187062418 0 -0.85716730853699208 I I #
edge $-1 $659 -2.8150914506777269 $388 2.8150914506777269 $536 $666 forward 7 unknown #
point $-1 -47.787102877895443 -2.8150914506777269 10.52321396136081 #
point $-1 -42.219013237345798 -2.8150914506777269 10.52321396136081 #
edge $-1 $667 1 $667 0 $391 $-1 forward 7 unknown #
vertex $-1 $392 $668 #
ellipse-curve $-1 -44.145890749083627 -1.6890548704066362 5.3747470675046003 -0.85716730853699208 0 0.51503806187062418 0.12875951546765604 0 0.21429182713424802 1 I I #
point $-1 -44.874298542152964 -1.6890548704066362 6.1040769565094717 #
edge $-1 $669 1 $669 0 $395 $-1 forward 7 unknown #
vertex $-1 $396 $670 #
ellipse-curve $-1 -44.145890749083627 0 5.3747470675046003 -0.85716730853699208 0 0.51503806187062418 0.12875951546765604 0 0.21429182713424802 1 I I #
point $-1 -44.874298542152964 0 6.1040769565094717 #
edge $-1 $671 1 $671 0 $399 $-1 forward 7 unknown #
vertex $-1 $400 $672 #
ellipse-curve $-1 -44.145890749083627 1.6890548704066362 5.3747470675046003 -0.85716730853699208 0 0.51503806187062418 0.12875951546765604 0 0.21429182713424802 1 I I #
point $-1 -44.874298542152964 1.6890548704066362 6.1040769565094717 #
loop $-1 $-1 $411 $403 #
plane-surface $-1 -47.787102877895443 0 0 1 0 0 0 0 -1 forward_v I I I I #
coedge $-1 $559 $406 $408 $563 reversed $272 $-1 #
coedge $-1 $406 $558 $673 $674 reversed $272 $-1 #
coedge $-1 $414 $409 $406 $561 forward $404 $-1 #
edge $-1 $564 -22.63608055822791 $675 -17.067990917678266 $560 $676 forward 7 unknown #
coedge $-1 $408 $407 $567 $677 reversed $171 $-1 #
edge $-1 $678 1.3747022483095021e-014 $564 10.811025539212164 $558 $679 forward 7 unknown #
vertex $-1 $410 $680 #
straight-curve $-1 -42.219013237345798 3.5407399113394113 10.52321396136081 0 1 0 I I #
coedge $-1 $673 $411 $414 $571 reversed $556 $-1 #
coedge $-1 $411 $673 $562 $677 forward $556 $-1 #
vertex $-1 $412 $681 #
straight-curve $-1 -47.787102877895443 4.2663883720010958 25.240354997338216 0 0 1 I I #
straight-curve $-1 -47.78710287789545 4.2663883720010958 1.2563562973896367 -0.51503806187062418 0 -0.85716730853699208 I I #
edge $-1 $675 -9.8965712733565496 $415 -4.2663883720010958 $566 $682 forward 7 unknown #
point $-1 -47.787102877895443 4.2663883720010958 10.52321396136081 #
point $-1 -42.219013237345798 4.2663883720010958 10.52321396136081 #
edge $-1 $683 1 $683 0 $418 $-1 forward 7 unknown #
vertex $-1 $419 $684 #
ellipse-curve $-1 -44.145890749083627 5.3924249522721865 5.3747470675046003 -0.85716730853699208 0 0.51503806187062418 0.12875951546765604 0 0.21429182713424802 1 I I #
point $-1 -44.874298542152964 5.3924249522721865 6.1040769565094717 #
edge $-1 $685 1 $685 0 $422 $-1 forward 7 unknown #
vertex $-1 $423 $686 #
ellipse-curve $-1 -44.145890749083627 7.0814798226788227 5.3747470675046003 -0.85716730853699208 0 0.51503806187062418 0.12875951546765604 0 0.21429182713424802 1 I I #
point $-1 -44.874298542152964 7.0814798226788227 6.1040769565094717 #
edge $-1 $687 1 $687 0 $426 $-1 forward 7 unknown #
vertex $-1 $427 $688 #
ellipse-curve $-1 -44.145890749083627 8.7705346930854589 5.3747470675046003 -0.85716730853699208 0 0.51503806187062418 0.12875951546765604 0 0.21429182713424802 1 I I #
point $-1 -44.874298542152964 8.7705346930854589 6.1040769565094717 #
plane-surface $-1 47.787102877895443 0 0 -1 0 0 0 0 1 forward_v I I I I #
coedge $-1 $438 $589 $433 $588 reversed $431 $-1 #
edge $-1 $595 -10.52321396136081 $602 10.52321396136081 $587 $689 forward 7 unknown #
coedge $-1 $587 $594 $434 $590 reversed $431 $-1 #
edge $-1 $602 -47.787102877895443 $591 47.787102877895443 $589 $690 forward 7 unknown #
vertex $-1 $436 $691 #
straight-curve $-1 47.787102877895443 0 -10.52321396136081 0 -1 0 I I #
edge $-1 $595 -22.747547671698651 $449 22.747547671698651 $447 $692 forward 7 unknown #
coedge $-1 $589 $438 $441 $598 forward $431 $-1 #
vertex $-1 $439 $693 #
straight-curve $-1 0 22.747547671698651 10.52321396136081 -1 0 0 I I #
straight-curve $-1 0 -22.747547671698651 10.52321396136081 1 0 0 I I #
edge $-1 $444 -10.52321396136081 $591 10.52321396136081 $441 $694 forward 7 unknown #
point $-1 47.787102877895443 -22.747547671698651 10.52321396136081 #
point $-1 47.787102877895443 22.747547671698651 10.52321396136081 #
point $-1 -47.787102877895443 -22.747547671698651 10.52321396136081 #
vertex $-1 $590 $695 #
straight-curve $-1 -47.787102877895443 0 -10.52321396136081 0 1 0 I I #
plane-surface $-1 0 0 -10.52321396136081 0 0 1 1 0 0 forward_v I I I I #
coedge $-1 $619 $456 $617 $696 reversed $318 $-1 #
coedge $-1 $456 $619 $460 $611 reversed $318 $-1 #
coedge $-1 $458 $457 $456 $608 reversed $198 $-1 #
edge $-1 $612 -10.52321396136081 $697 10.52321396136081 $607 $698 forward 7 unknown #
edge $-1 $697 -32.695930227394015 $468 -22.747547671698651 $457 $699 forward 7 unknown #
straight-curve $-1 -47.787102877895443 -22.747547671698651 0 0 0 -1 I I #
edge $-1 $612 -1.5 $614 1.5 $606 $700 forward 7 unknown #
vertex $-1 $461 $701 #
straight-curve $-1 -47.787102877895443 0 10.52321396136081 0 -1 0 I I #
vertex $-1 $462 $702 #
straight-curve $-1 -44.787102877895443 -27.721738949546332 10.52321396136081 0 1 0 I I #
point $-1 -47.787102877895443 -22.747547671698651 10.52321396136081 #
coedge $-1 $466 $465 $605 $696 forward $467 $-1 #
point $-1 -47.787102877895443 -22.747547671698651 -10.52321396136081 #
coedge $-1 $606 $605 $470 $620 reversed $318 $-1 #
edge $-1 $614 -10.52321396136081 $621 10.52321396136081 $470 $703 forward 7 unknown #
vertex $-1 $620 $704 #
straight-curve $-1 -44.787102877895443 -27.721738949546332 -10.52321396136081 0 -1 0 I I #
loop $-1 $-1 $487 $474 #
plane-surface $-1 -47.787102877895443 0 0 1 0 0 0 0 -1 forward_v I I I I #
coedge $-1 $478 $477 $633 $705 reversed $206 $-1 #
coedge $-1 $490 $489 $477 $627 forward $475 $-1 #
edge $-1 $706 -1.5 $630 1.5 $477 $707 forward 7 unknown #
edge $-1 $629 -1.5 $634 1.5 $478 $708 forward 7 unknown #
vertex $-1 $482 $709 #
vertex $-1 $493 $710 #
straight-curve $-1 -44.787102877895443 32.695930227394015 0 0 0 -1 I I #
straight-curve $-1 -44.787102877895443 27.721738949546332 10.52321396136081 0 1 0 I I #
coedge $-1 $637 $483 $625 $705 forward $623 $-1 #
vertex $-1 $628 $711 #
straight-curve $-1 -47.787102877895443 0 10.52321396136081 0 -1 0 I I #
point $-1 -47.787102877895443 22.747547671698651 10.52321396136081 #
coedge $-1 $487 $633 $489 $639 reversed $623 $-1 #
straight-curve $-1 -47.787102877895443 22.747547671698651 0 0 0 1 I I #
edge $-1 $491 -4.9741912778476802 $706 4.9741912778476838 $637 $712 forward 7 unknown #
point $-1 -47.787102877895443 22.747547671698651 -10.52321396136081 #
straight-curve $-1 -44.787102877895443 27.721738949546332 -10.52321396136081 0 -1 0 I I #
edge $-1 $643 14.717141035977406 $646 23.983998699948568 $497 $713 forward 7 unknown #
vertex $-1 $511 $714 #
straight-curve $-1 -64.855093795573708 -4.2663883720010958 10.52321396136081 -1 0 0 I I #
edge $-1 $646 0.72564846066168442 $508 6.3558313620171383 $507 $715 forward 7 unknown #
vertex $-1 $645 $716 #
straight-curve $-1 -47.78710287789545 -4.2663883720010958 1.2563562973896367 0.51503806187062418 0 0.85716730853699208 I I #
point $-1 -42.219013237345798 -4.2663883720010958 10.52321396136081 #
point $-1 -47.787102877895443 -9.8965712733565496 1.2563562973896485 #
straight-curve $-1 -47.787102877895443 0 10.52321396136081 0 -1 0 I I #
vertex $-1 $514 $717 #
point $-1 -44.01713123361597 -8.7705346930854589 5.5890388946388478 #
vertex $-1 $518 $718 #
point $-1 -44.01713123361597 -7.0814798226788227 5.5890388946388478 #
vertex $-1 $522 $719 #
point $-1 -44.01713123361597 -5.3924249522721865 5.5890388946388478 #
coedge $-1 $537 $536 $529 $658 forward $526 $-1 #
edge $-1 $659 14.717141035977406 $662 23.983998699948568 $657 $720 forward 7 unknown #
vertex $-1 $541 $721 #
straight-curve $-1 -64.855093795573708 2.8150914506777269 10.52321396136081 -1 0 0 I I #
edge $-1 $662 -2.8150914506777269 $538 2.8150914506777269 $537 $722 forward 7 unknown #
vertex $-1 $661 $723 #
straight-curve $-1 -47.78710287789545 2.8150914506777269 1.2563562973896367 0.51503806187062418 0 0.85716730853699208 I I #
point $-1 -42.219013237345798 2.8150914506777269 10.52321396136081 #
point $-1 -47.787102877895443 -2.8150914506777269 1.2563562973896485 #
straight-curve $-1 -47.787102877895443 0 10.52321396136081 0 -1 0 I I #
vertex $-1 $544 $724 #
point $-1 -44.01713123361597 -1.6890548704066362 5.5890388946388478 #
vertex $-1 $548 $725 #
point $-1 -44.01713123361597 0 5.5890388946388478 #
vertex $-1 $552 $726 #
point $-1 -44.01713123361597 1.6890548704066362 5.5890388946388478 #
coedge $-1 $567 $566 $559 $674 forward $556 $-1 #
edge $-1 $675 14.717141035977406 $678 23.983998699948568 $673 $727 forward 7 unknown #
vertex $-1 $571 $728 #
straight-curve $-1 -64.855093795573708 9.8965712733565496 10.52321396136081 -1 0 0 I I #
edge $-1 $678 -6.3558313620171383 $568 -0.72564846066168442 $567 $729 forward 7 unknown #
vertex $-1 $677 $730 #
straight-curve $-1 -47.78710287789545 9.8965712733565496 1.2563562973896367 0.51503806187062418 0 0.85716730853699208 I I #
point $-1 -42.219013237345798 9.8965712733565496 10.52321396136081 #
point $-1 -47.787102877895443 4.2663883720010958 1.2563562973896485 #
straight-curve $-1 -47.787102877895443 0 10.52321396136081 0 -1 0 I I #
vertex $-1 $574 $731 #
point $-1 -44.01713123361597 5.3924249522721865 5.5890388946388478 #
vertex $-1 $578 $732 #
point $-1 -44.01713123361597 7.0814798226788227 5.5890388946388478 #
vertex $-1 $582 $733 #
point $-1 -44.01713123361597 8.7705346930854589 5.5890388946388478 #
straight-curve $-1 -47.787102877895443 22.747547671698651 0 0 0 -1 I I #
straight-curve $-1 0 22.747547671698651 -10.52321396136081 1 0 0 I I #
point $-1 47.787102877895443 22.747547671698651 -10.52321396136081 #
straight-curve $-1 -47.787102877895443 0 10.52321396136081 0 -1 0 I I #
point $-1 -47.787102877895443 22.747547671698651 10.52321396136081 #
straight-curve $-1 47.787102877895443 22.747547671698651 0 0 0 -1 I I #
point $-1 -47.787102877895443 22.747547671698651 -10.52321396136081 #
edge $-1 $621 -1.5 $697 1.5 $605 $734 forward 7 unknown #
vertex $-1 $609 $735 #
straight-curve $-1 -47.787102877895443 -32.695930227394015 0 0 0 -1 I I #
straight-curve $-1 -47.787102877895443 0 -10.52321396136081 0 1 0 I I #
straight-curve $-1 -46.287102877895443 -32.695930227394015 10.52321396136081 1 0 0 I I #
point $-1 -47.787102877895443 -32.695930227394015 10.52321396136081 #
point $-1 -44.787102877895443 -32.695930227394015 10.52321396136081 #
straight-curve $-1 -44.787102877895443 -32.695930227394015 0 0 0 -1 I I #
point $-1 -44.787102877895443 -32.695930227394015 -10.52321396136081 #
edge $-1 $634 -10.52321396136081 $706 10.52321396136081 $625 $736 forward 7 unknown #
vertex $-1 $627 $737 #
straight-curve $-1 -46.287102877895443 32.695930227394015 -10.52321396136081 1 0 0 I I #
straight-curve $-1 -46.287102877895443 32.695930227394015 10.52321396136081 -1 0 0 I I #
point $-1 -44.787102877895443 32.695930227394015 10.52321396136081 #
point $-1 -44.787102877895443 32.695930227394015 -10.52321396136081 #
point $-1 -47.787102877895443 32.695930227394015 10.52321396136081 #
straight-curve $-1 -47.787102877895443 27.721738949546332 -10.52321396136081 0 1 0 I I #
straight-curve $-1 -47.787102877895443 -4.2663883720010958 25.240354997338216 0 0 -1 I I #
point $-1 -47.787102877895443 -4.2663883720010958 10.52321396136081 #
straight-curve $-1 -47.787102877895443 -3.5407399113394113 1.2563562973896563 0 -1 0 I I #
point $-1 -47.787102877895443 -4.2663883720010958 1.2563562973896485 #
point $-1 -43.93159892194938 -8.7705346930854589 5.2459875520369437 #
point $-1 -43.93159892194938 -7.0814798226788227 5.2459875520369437 #
point $-1 -43.93159892194938 -5.3924249522721865 5.2459875520369437 #
straight-curve $-1 -47.787102877895443 2.8150914506777269 25.240354997338216 0 0 -1 I I #
point $-1 -47.787102877895443 2.8150914506777269 10.52321396136081 #
straight-curve $-1 -47.787102877895443 0 1.2563562973896563 0 -1 0 I I #
point $-1 -47.787102877895443 2.8150914506777269 1.2563562973896485 #
point $-1 -43.93159892194938 -1.6890548704066362 5.2459875520369437 #
point $-1 -43.93159892194938 0 5.2459875520369437 #
point $-1 -43.93159892194938 1.6890548704066362 5.2459875520369437 #
straight-curve $-1 -47.787102877895443 9.8965712733565496 25.240354997338216 0 0 -1 I I #
point $-1 -47.787102877895443 9.8965712733565496 10.52321396136081 #
straight-curve $-1 -47.787102877895443 3.5407399113394113 1.2563562973896563 0 -1 0 I I #
point $-1 -47.787102877895443 9.8965712733565496 1.2563562973896485 #
point $-1 -43.93159892194938 5.3924249522721865 5.2459875520369437 #
point $-1 -43.93159892194938 7.0814798226788227 5.2459875520369437 #
point $-1 -43.93159892194938 8.7705346930854589 5.2459875520369437 #
straight-curve $-1 -46.287102877895443 -32.695930227394015 -10.52321396136081 -1 0 0 I I #
point $-1 -47.787102877895443 -32.695930227394015 -10.52321396136081 #
straight-curve $-1 -47.787102877895443 32.695930227394015 0 0 0 -1 I I #
point $-1 -47.787102877895443 32.695930227394015 -10.52321396136081 #
End-of-ACIS-data 