500 0 16 0           
7 Unknown 11 ACIS 5.0 NT 24 Fri Mar 26 15:59:38 1999 
-1 9.9999999999999995e-007 1e-010 
body $-1 $16 $-1 $17 #
body $-1 $18 $-1 $19 #
body $-1 $20 $-1 $21 #
body $-1 $22 $-1 $23 #
body $-1 $24 $-1 $25 #
body $-1 $26 $-1 $27 #
body $-1 $28 $-1 $29 #
body $-1 $30 $-1 $31 #
body $-1 $32 $-1 $33 #
body $-1 $34 $-1 $35 #
body $-1 $36 $-1 $37 #
body $-1 $38 $-1 $39 #
body $-1 $40 $-1 $41 #
body $-1 $42 $-1 $43 #
body $-1 $44 $-1 $45 #
body $-1 $46 $-1 $47 #
lump $-1 $-1 $48 $0 #
transform $-1 1 0 0 0 1 0 0 0 1 49.364299447614982 29.441111042361861 14.639151527515414 1 rotate no_reflect no_shear #
lump $-1 $-1 $49 $1 #
transform $-1 1 0 0 0 1 0 0 0 1 49.364299447614982 29.441111042361861 14.639151527515414 1 rotate no_reflect no_shear #
lump $-1 $-1 $50 $2 #
transform $-1 1 0 0 0 1 0 0 0 1 49.364299447614982 29.441111042361861 14.639151527515414 1 rotate no_reflect no_shear #
lump $-1 $-1 $51 $3 #
transform $-1 1 0 0 0 1 0 0 0 1 49.364299447614982 29.441111042361861 14.639151527515414 1 rotate no_reflect no_shear #
lump $-1 $-1 $52 $4 #
transform $-1 1 0 0 0 1 0 0 0 1 49.364299447614982 29.441111042361861 14.639151527515414 1 rotate no_reflect no_shear #
lump $-1 $-1 $53 $5 #
transform $-1 1 0 0 0 1 0 0 0 1 49.364299447614982 29.441111042361861 14.639151527515414 1 rotate no_reflect no_shear #
lump $-1 $-1 $54 $6 #
transform $-1 1 0 0 0 1 0 0 0 1 49.364299447614982 29.441111042361861 14.639151527515414 1 rotate no_reflect no_shear #
lump $-1 $-1 $55 $7 #
transform $-1 1 0 0 0 1 0 0 0 1 49.364299447614982 29.441111042361861 14.639151527515414 1 rotate no_reflect no_shear #
lump $-1 $-1 $56 $8 #
transform $-1 1 0 0 0 1 0 0 0 1 49.364299447614982 29.441111042361861 14.639151527515414 1 rotate no_reflect no_shear #
lump $-1 $-1 $57 $9 #
transform $-1 1 0 0 0 1 0 0 0 1 49.364299447614982 29.441111042361861 14.639151527515414 1 rotate no_reflect no_shear #
lump $-1 $-1 $58 $10 #
transform $-1 1 0 0 0 1 0 0 0 1 49.364299447614982 29.441111042361861 14.639151527515414 1 rotate no_reflect no_shear #
lump $-1 $-1 $59 $11 #
transform $-1 1 0 0 0 1 0 0 0 1 49.364299447614982 29.441111042361861 14.639151527515414 1 rotate no_reflect no_shear #
lump $-1 $-1 $60 $12 #
transform $-1 1 0 0 0 1 0 0 0 1 49.364299447614982 29.441111042361861 14.639151527515414 1 rotate no_reflect no_shear #
lump $-1 $-1 $61 $13 #
transform $-1 1 0 0 0 1 0 0 0 1 49.364299447614982 29.441111042361861 14.639151527515414 1 rotate no_reflect no_shear #
lump $-1 $-1 $62 $14 #
transform $-1 1 0 0 0 1 0 0 0 1 49.364299447614982 29.441111042361861 14.639151527515414 1 rotate no_reflect no_shear #
lump $-1 $-1 $63 $15 #
transform $-1 1 0 0 0 1 0 0 0 1 49.364299447614982 29.441111042361861 14.639151527515414 1 rotate no_reflect no_shear #
shell $-1 $-1 $-1 $64 $-1 $16 #
shell $-1 $-1 $-1 $65 $-1 $18 #
shell $-1 $-1 $-1 $66 $-1 $20 #
shell $-1 $-1 $-1 $67 $-1 $22 #
shell $-1 $-1 $-1 $68 $-1 $24 #
shell $-1 $-1 $-1 $69 $-1 $26 #
shell $-1 $-1 $-1 $70 $-1 $28 #
shell $-1 $-1 $-1 $71 $-1 $30 #
shell $-1 $-1 $-1 $72 $-1 $32 #
shell $-1 $-1 $-1 $73 $-1 $34 #
shell $-1 $-1 $-1 $74 $-1 $36 #
shell $-1 $-1 $-1 $75 $-1 $38 #
shell $-1 $-1 $-1 $76 $-1 $40 #
shell $-1 $-1 $-1 $77 $-1 $42 #
shell $-1 $-1 $-1 $78 $-1 $44 #
shell $-1 $-1 $-1 $79 $-1 $46 #
face $-1 $80 $81 $48 $-1 $82 forward single #
face $-1 $83 $84 $49 $-1 $85 forward single #
face $-1 $86 $87 $50 $-1 $88 reversed single #
face $-1 $89 $90 $51 $-1 $91 forward single #
face $-1 $92 $93 $52 $-1 $94 reversed single #
face $-1 $95 $96 $53 $-1 $97 forward single #
face $-1 $98 $99 $54 $-1 $100 reversed single #
face $-1 $101 $102 $55 $-1 $103 forward single #
face $-1 $104 $105 $56 $-1 $106 reversed single #
face $-1 $107 $108 $57 $-1 $109 forward single #
face $-1 $110 $111 $58 $-1 $112 reversed single #
face $-1 $113 $114 $59 $-1 $115 forward single #
face $-1 $116 $117 $60 $-1 $118 forward single #
face $-1 $119 $120 $61 $-1 $121 reversed single #
face $-1 $122 $123 $62 $-1 $124 forward single #
face $-1 $125 $126 $63 $-1 $127 forward single #
face $-1 $128 $129 $48 $-1 $130 reversed single #
loop $-1 $-1 $131 $64 #
plane-surface $-1 0 0 14.639151527515414 0 0 1 1 0 0 forward_v I I I I #
face $-1 $132 $133 $49 $-1 $134 reversed single #
loop $-1 $-1 $135 $65 #
plane-surface $-1 -49.364299447614982 0 0 1 0 0 0 0 -1 forward_v I I I I #
face $-1 $136 $137 $50 $-1 $138 reversed single #
loop $-1 $-1 $139 $66 #
plane-surface $-1 -30.019587308220146 63.410862829819713 116.10151606020757 1 0 0 0 -0.74314483375859142 -0.66913059716165679 forward_v I I I I #
face $-1 $140 $141 $51 $-1 $142 forward single #
loop $-1 $143 $144 $67 #
cone-surface $-1 -23.529965526596428 24.235705585521877 9.1612151374666553 0 -0.74314483375859142 -0.66913059716165679 2.5 0 0 1 I I 0 1 2.5 forward I I I I #
face $-1 $145 $146 $52 $-1 $147 reversed single #
loop $-1 $-1 $148 $68 #
plane-surface $-1 -9.8048007852355461 63.410862829819713 116.10151606020757 1 0 0 0 -0.74314483375859142 -0.66913059716165679 forward_v I I I I #
face $-1 $149 $150 $53 $-1 $151 forward single #
loop $-1 $152 $153 $69 #
cone-surface $-1 -3.3151790036118314 24.235705585521877 9.1612151374666553 0 -0.74314483375859142 -0.66913059716165679 2.5 0 0 1 I I 0 1 2.5 forward I I I I #
face $-1 $154 $155 $54 $-1 $156 reversed single #
loop $-1 $-1 $157 $70 #
plane-surface $-1 10.40998573774905 63.410862829819713 116.10151606020757 1 0 0 0 -0.74314483375859142 -0.66913059716165679 forward_v I I I I #
face $-1 $158 $159 $55 $-1 $160 forward single #
loop $-1 $161 $162 $71 #
cone-surface $-1 16.899607519372765 24.235705585521877 9.1612151374666553 0 -0.74314483375859142 -0.66913059716165679 2.5 0 0 1 I I 0 1 2.5 forward I I I I #
face $-1 $163 $164 $56 $-1 $165 reversed single #
loop $-1 $-1 $166 $72 #
plane-surface $-1 30.624772260733646 63.410862829819713 116.10151606020757 1 0 0 0 -0.74314483375859142 -0.66913059716165679 forward_v I I I I #
face $-1 $167 $168 $57 $-1 $169 forward single #
loop $-1 $170 $171 $73 #
cone-surface $-1 37.114394042357361 24.235705585521877 9.1612151374666553 0 -0.74314483375859142 -0.66913059716165679 2.5 0 0 1 I I 0 1 2.5 forward I I I I #
face $-1 $172 $173 $58 $-1 $174 reversed single #
loop $-1 $-1 $175 $74 #
plane-surface $-1 -10.514561061310561 -83.21256057755906 88.13637239385767 -1 0 0 0 -0.54463904215088732 0.83867056331134215 forward_v I I I I #
face $-1 $176 $177 $59 $-1 $178 forward single #
loop $-1 $179 $180 $75 #
cone-surface $-1 -17.904247547906785 -21.499460659067445 8.7885212789767646 0 0.54463904215088732 -0.83867056331134215 1 0 0 1 I I 0 1 1 forward I I I I #
face $-1 $181 $182 $60 $-1 $183 forward single #
loop $-1 $184 $185 $76 #
cone-surface $-1 -13.470435655949046 -21.499460659067445 8.7885212789767646 0 0.54463904215088732 -0.83867056331134215 1 0 0 1 I I 0 1 1 forward I I I I #
face $-1 $186 $187 $61 $-1 $188 reversed single #
loop $-1 $-1 $189 $77 #
plane-surface $-1 32.057524128423942 -83.21256057755906 88.13637239385767 -1 0 0 0 -0.54463904215088732 0.83867056331134215 forward_v I I I I #
face $-1 $190 $191 $62 $-1 $192 forward single #
loop $-1 $193 $194 $78 #
cone-surface $-1 24.667837641827717 -21.499460659067445 8.7885212789767646 0 0.54463904215088732 -0.83867056331134215 1 0 0 1 I I 0 1 1 forward I I I I #
face $-1 $195 $196 $63 $-1 $197 forward single #
loop $-1 $198 $199 $79 #
cone-surface $-1 29.101649533785448 -21.499460659067445 8.7885212789767646 0 0.54463904215088732 -0.83867056331134215 1 0 0 1 I I 0 1 1 forward I I I I #
face $-1 $200 $201 $48 $-1 $202 reversed single #
loop $-1 $-1 $203 $80 #
plane-surface $-1 0 0 -14.639151527515414 0 0 1 1 0 0 forward_v I I I I #
coedge $-1 $204 $205 $206 $207 forward $81 $-1 #
face $-1 $208 $209 $49 $-1 $210 reversed single #
loop $-1 $-1 $211 $83 #
plane-surface $-1 0 0 -14.639151527515414 0 0 1 1 0 0 forward_v I I I I #
coedge $-1 $212 $213 $214 $215 forward $84 $-1 #
face $-1 $216 $217 $50 $-1 $218 reversed single #
loop $-1 $-1 $219 $86 #
plane-surface $-1 -23.529965526596431 -9.9587853833946056 50.03918972450866 0 0.74314483375859142 0.66913059716165679 1 0 0 forward_v I I I I #
coedge $-1 $220 $221 $222 $223 reversed $87 $-1 #
face $-1 $-1 $224 $51 $-1 $225 forward single #
loop $-1 $226 $227 $89 #
cone-surface $-1 -23.529965526596428 21.864148915577985 7.0258559737134423 0 -0.74314483375859142 -0.66913059716165679 1.25 0 0 1 I I -0.70710678118654746 0.70710678118654746 1.25 forward I I I I #
loop $-1 $-1 $228 $67 #
coedge $-1 $144 $144 $229 $230 reversed $90 $-1 #
face $-1 $231 $232 $52 $-1 $233 reversed single #
loop $-1 $-1 $234 $92 #
plane-surface $-1 -3.3151790036118314 -9.9587853833946056 50.03918972450866 0 0.74314483375859142 0.66913059716165679 1 0 0 forward_v I I I I #
coedge $-1 $235 $236 $237 $238 reversed $93 $-1 #
face $-1 $-1 $239 $53 $-1 $240 forward single #
loop $-1 $241 $242 $95 #
cone-surface $-1 -3.3151790036118314 21.864148915577985 7.0258559737134423 0 -0.74314483375859142 -0.66913059716165679 1.25 0 0 1 I I -0.70710678118654746 0.70710678118654746 1.25 forward I I I I #
loop $-1 $-1 $243 $69 #
coedge $-1 $153 $153 $244 $245 reversed $96 $-1 #
face $-1 $246 $247 $54 $-1 $248 reversed single #
loop $-1 $-1 $249 $98 #
plane-surface $-1 16.899607519372765 -9.9587853833946056 50.03918972450866 0 0.74314483375859142 0.66913059716165679 1 0 0 forward_v I I I I #
coedge $-1 $250 $251 $252 $253 reversed $99 $-1 #
face $-1 $-1 $254 $55 $-1 $255 forward single #
loop $-1 $256 $257 $101 #
cone-surface $-1 16.899607519372765 21.864148915577985 7.0258559737134423 0 -0.74314483375859142 -0.66913059716165679 1.25 0 0 1 I I -0.70710678118654746 0.70710678118654746 1.25 forward I I I I #
loop $-1 $-1 $258 $71 #
coedge $-1 $162 $162 $259 $260 reversed $102 $-1 #
face $-1 $261 $262 $56 $-1 $263 reversed single #
loop $-1 $-1 $264 $104 #
plane-surface $-1 37.114394042357361 -9.9587853833946056 50.03918972450866 0 0.74314483375859142 0.66913059716165679 1 0 0 forward_v I I I I #
coedge $-1 $265 $266 $267 $268 reversed $105 $-1 #
face $-1 $-1 $269 $57 $-1 $270 forward single #
loop $-1 $271 $272 $107 #
cone-surface $-1 37.114394042357361 21.864148915577985 7.0258559737134423 0 -0.74314483375859142 -0.66913059716165679 1.25 0 0 1 I I -0.70710678118654746 0.70710678118654746 1.25 forward I I I I #
loop $-1 $-1 $273 $73 #
coedge $-1 $171 $171 $274 $275 reversed $108 $-1 #
face $-1 $276 $277 $58 $-1 $278 reversed single #
loop $-1 $-1 $279 $110 #
plane-surface $-1 -15.687341601927919 -29.441111042361861 5.3356027434555955 0 -0.54463904215088732 0.83867056331134215 1 0 0 forward_v I I I I #
coedge $-1 $280 $281 $282 $283 reversed $111 $-1 #
face $-1 $-1 $284 $59 $-1 $285 forward single #
loop $-1 $286 $287 $113 #
cone-surface $-1 -17.904247547906785 -20.448595027123552 7.1703301408123625 0 0.54463904215088732 -0.83867056331134215 0.5 0 0 1 I I -0.70710678118654746 0.70710678118654746 0.5 forward I I I I #
loop $-1 $-1 $288 $75 #
coedge $-1 $180 $180 $289 $290 reversed $114 $-1 #
face $-1 $-1 $291 $60 $-1 $292 forward single #
loop $-1 $293 $294 $116 #
cone-surface $-1 -13.470435655949046 -20.448595027123552 7.1703301408123625 0 0.54463904215088732 -0.83867056331134215 0.5 0 0 1 I I -0.70710678118654746 0.70710678118654746 0.5 forward I I I I #
loop $-1 $-1 $295 $76 #
coedge $-1 $185 $185 $296 $297 reversed $117 $-1 #
face $-1 $298 $299 $61 $-1 $300 reversed single #
loop $-1 $-1 $301 $119 #
plane-surface $-1 26.884743587806582 -29.441111042361861 5.3356027434555955 0 -0.54463904215088732 0.83867056331134215 1 0 0 forward_v I I I I #
coedge $-1 $302 $303 $304 $305 reversed $120 $-1 #
face $-1 $-1 $306 $62 $-1 $307 forward single #
loop $-1 $308 $309 $122 #
cone-surface $-1 24.667837641827717 -20.448595027123552 7.1703301408123625 0 0.54463904215088732 -0.83867056331134215 0.5 0 0 1 I I -0.70710678118654746 0.70710678118654746 0.5 forward I I I I #
loop $-1 $-1 $310 $78 #
coedge $-1 $194 $194 $311 $312 reversed $123 $-1 #
face $-1 $-1 $313 $63 $-1 $314 forward single #
loop $-1 $315 $316 $125 #
cone-surface $-1 29.101649533785448 -20.448595027123552 7.1703301408123625 0 0.54463904215088732 -0.83867056331134215 0.5 0 0 1 I I -0.70710678118654746 0.70710678118654746 0.5 forward I I I I #
loop $-1 $-1 $317 $79 #
coedge $-1 $199 $199 $318 $319 reversed $126 $-1 #
face $-1 $320 $321 $48 $-1 $322 reversed single #
loop $-1 $-1 $323 $128 #
plane-surface $-1 0 -29.441111042361861 0 0 1 0 0 0 1 forward_v I I I I #
coedge $-1 $324 $325 $326 $327 forward $129 $-1 #
coedge $-1 $328 $131 $329 $330 forward $81 $-1 #
coedge $-1 $131 $328 $331 $332 forward $81 $-1 #
coedge $-1 $333 $334 $131 $207 reversed $335 $-1 #
edge $-1 $336 -29.441111042361861 $337 29.441111042361861 $206 $338 forward 7 unknown #
face $-1 $339 $340 $49 $-1 $341 reversed single #
loop $-1 $-1 $342 $132 #
plane-surface $-1 -56.156513705495463 -20.222412546387879 0 0 1 0 0 0 1 forward_v I I I I #
coedge $-1 $343 $344 $213 $345 forward $133 $-1 #
coedge $-1 $346 $135 $347 $348 reversed $84 $-1 #
coedge $-1 $135 $346 $211 $345 reversed $84 $-1 #
coedge $-1 $349 $350 $135 $215 reversed $351 $-1 #
edge $-1 $352 -14.639151527515414 $353 14.639151527515414 $214 $354 forward 7 unknown #
face $-1 $355 $356 $50 $-1 $357 forward single #
loop $-1 $-1 $358 $136 #
plane-surface $-1 -17.040343744972716 63.410862829819713 116.10151606020757 -1 0 0 0 0.74314483375859142 0.66913059716165679 forward_v I I I I #
coedge $-1 $359 $360 $361 $362 reversed $137 $-1 #
coedge $-1 $221 $139 $363 $364 reversed $87 $-1 #
coedge $-1 $139 $220 $359 $365 reversed $87 $-1 #
coedge $-1 $361 $366 $139 $223 forward $356 $-1 #
edge $-1 $367 2.2643203725479957 $368 9.7898800307366365 $222 $369 forward 7 unknown #
loop $-1 $-1 $229 $140 #
plane-surface $-1 -23.529965526596431 -9.9587853833946056 50.03918972450866 0 0.74314483375859142 0.66913059716165679 1 0 0 forward_v I I I I #
loop $-1 $-1 $370 $89 #
coedge $-1 $227 $227 $228 $371 reversed $141 $-1 #
coedge $-1 $228 $228 $227 $371 forward $143 $-1 #
coedge $-1 $229 $229 $144 $230 forward $224 $-1 #
edge $-1 $372 -1.0731393799056408e-016 $372 6.2831853071796004 $229 $373 forward 7 unknown #
face $-1 $374 $375 $52 $-1 $376 forward single #
loop $-1 $-1 $377 $145 #
plane-surface $-1 3.1744427780118833 63.410862829819713 116.10151606020757 -1 0 0 0 0.74314483375859142 0.66913059716165679 forward_v I I I I #
coedge $-1 $378 $379 $380 $381 reversed $146 $-1 #
coedge $-1 $236 $148 $382 $383 reversed $93 $-1 #
coedge $-1 $148 $235 $378 $384 reversed $93 $-1 #
coedge $-1 $380 $385 $148 $238 forward $375 $-1 #
edge $-1 $386 2.2643203725479957 $387 9.7898800307366365 $237 $388 forward 7 unknown #
loop $-1 $-1 $244 $149 #
plane-surface $-1 -3.3151790036118314 -9.9587853833946056 50.03918972450866 0 0.74314483375859142 0.66913059716165679 1 0 0 forward_v I I I I #
loop $-1 $-1 $389 $95 #
coedge $-1 $242 $242 $243 $390 reversed $150 $-1 #
coedge $-1 $243 $243 $242 $390 forward $152 $-1 #
coedge $-1 $244 $244 $153 $245 forward $239 $-1 #
edge $-1 $391 -1.0731393799056408e-016 $391 6.2831853071796004 $244 $392 forward 7 unknown #
face $-1 $393 $394 $54 $-1 $395 forward single #
loop $-1 $-1 $396 $154 #
plane-surface $-1 23.38922930099648 63.410862829819713 116.10151606020757 -1 0 0 0 0.74314483375859142 0.66913059716165679 forward_v I I I I #
coedge $-1 $397 $398 $399 $400 reversed $155 $-1 #
coedge $-1 $251 $157 $401 $402 reversed $99 $-1 #
coedge $-1 $157 $250 $397 $403 reversed $99 $-1 #
coedge $-1 $399 $404 $157 $253 forward $394 $-1 #
edge $-1 $405 2.2643203725479957 $406 9.7898800307366365 $252 $407 forward 7 unknown #
loop $-1 $-1 $259 $158 #
plane-surface $-1 16.899607519372765 -9.9587853833946056 50.03918972450866 0 0.74314483375859142 0.66913059716165679 1 0 0 forward_v I I I I #
loop $-1 $-1 $408 $101 #
coedge $-1 $257 $257 $258 $409 reversed $159 $-1 #
coedge $-1 $258 $258 $257 $409 forward $161 $-1 #
coedge $-1 $259 $259 $162 $260 forward $254 $-1 #
edge $-1 $410 -1.0731393799056408e-016 $410 6.2831853071796004 $259 $411 forward 7 unknown #
face $-1 $412 $413 $56 $-1 $414 forward single #
loop $-1 $-1 $415 $163 #
plane-surface $-1 43.604015823981072 63.410862829819713 116.10151606020757 -1 0 0 0 0.74314483375859142 0.66913059716165679 forward_v I I I I #
coedge $-1 $416 $417 $418 $419 reversed $164 $-1 #
coedge $-1 $266 $166 $420 $421 reversed $105 $-1 #
coedge $-1 $166 $265 $416 $422 reversed $105 $-1 #
coedge $-1 $418 $423 $166 $268 forward $413 $-1 #
edge $-1 $424 2.2643203725479957 $425 9.7898800307366365 $267 $426 forward 7 unknown #
loop $-1 $-1 $274 $167 #
plane-surface $-1 37.114394042357361 -9.9587853833946056 50.03918972450866 0 0.74314483375859142 0.66913059716165679 1 0 0 forward_v I I I I #
loop $-1 $-1 $427 $107 #
coedge $-1 $272 $272 $273 $428 reversed $168 $-1 #
coedge $-1 $273 $273 $272 $428 forward $170 $-1 #
coedge $-1 $274 $274 $171 $275 forward $269 $-1 #
edge $-1 $429 -1.0731393799056408e-016 $429 6.2831853071796004 $274 $430 forward 7 unknown #
face $-1 $431 $432 $58 $-1 $433 forward single #
loop $-1 $-1 $434 $172 #
plane-surface $-1 -20.860122142545279 -83.21256057755906 88.13637239385767 1 0 0 0 0.54463904215088732 -0.83867056331134215 forward_v I I I I #
coedge $-1 $435 $436 $437 $438 reversed $173 $-1 #
coedge $-1 $281 $175 $439 $440 reversed $111 $-1 #
coedge $-1 $175 $280 $435 $441 reversed $111 $-1 #
coedge $-1 $437 $442 $175 $283 forward $432 $-1 #
edge $-1 $443 12.165169246417669 $444 26.491377791269578 $282 $445 forward 7 unknown #
loop $-1 $-1 $289 $176 #
plane-surface $-1 -15.687341601927919 -29.441111042361861 5.3356027434555955 0 -0.54463904215088732 0.83867056331134215 1 0 0 forward_v I I I I #
loop $-1 $-1 $446 $113 #
coedge $-1 $287 $287 $288 $447 reversed $177 $-1 #
coedge $-1 $288 $288 $287 $447 forward $179 $-1 #
coedge $-1 $289 $289 $180 $290 forward $284 $-1 #
edge $-1 $448 -8.1320024813685592e-016 $448 6.2831853071795996 $289 $449 forward 7 unknown #
loop $-1 $-1 $296 $181 #
plane-surface $-1 -15.687341601927919 -29.441111042361861 5.3356027434555955 0 -0.54463904215088732 0.83867056331134215 1 0 0 forward_v I I I I #
loop $-1 $-1 $450 $116 #
coedge $-1 $294 $294 $295 $451 reversed $182 $-1 #
coedge $-1 $295 $295 $294 $451 forward $184 $-1 #
coedge $-1 $296 $296 $185 $297 forward $291 $-1 #
edge $-1 $452 -8.1320024813685592e-016 $452 6.2831853071795996 $296 $453 forward 7 unknown #
face $-1 $454 $455 $61 $-1 $456 reversed single #
loop $-1 $-1 $457 $186 #
plane-surface $-1 21.711963047189222 -83.21256057755906 88.13637239385767 1 0 0 0 0.54463904215088732 -0.83867056331134215 forward_v I I I I #
coedge $-1 $458 $459 $460 $461 reversed $187 $-1 #
coedge $-1 $303 $189 $462 $463 reversed $120 $-1 #
coedge $-1 $189 $302 $458 $464 reversed $120 $-1 #
coedge $-1 $460 $465 $189 $305 forward $466 $-1 #
edge $-1 $467 12.165169246417669 $468 26.491377791269578 $304 $469 forward 7 unknown #
loop $-1 $-1 $311 $190 #
plane-surface $-1 26.884743587806582 -29.441111042361861 5.3356027434555955 0 -0.54463904215088732 0.83867056331134215 1 0 0 forward_v I I I I #
loop $-1 $-1 $470 $122 #
coedge $-1 $309 $309 $310 $471 reversed $191 $-1 #
coedge $-1 $310 $310 $309 $471 forward $193 $-1 #
coedge $-1 $311 $311 $194 $312 forward $306 $-1 #
edge $-1 $472 -8.1320024813685592e-016 $472 6.2831853071795996 $311 $473 forward 7 unknown #
loop $-1 $-1 $318 $195 #
plane-surface $-1 26.884743587806582 -29.441111042361861 5.3356027434555955 0 -0.54463904215088732 0.83867056331134215 1 0 0 forward_v I I I I #
loop $-1 $-1 $474 $125 #
coedge $-1 $316 $316 $317 $475 reversed $196 $-1 #
coedge $-1 $317 $317 $316 $475 forward $198 $-1 #
coedge $-1 $318 $318 $199 $319 forward $313 $-1 #
edge $-1 $476 -8.1320024813685592e-016 $476 6.2831853071795996 $318 $477 forward 7 unknown #
face $-1 $478 $479 $48 $-1 $480 reversed single #
loop $-1 $-1 $481 $200 #
plane-surface $-1 -49.364299447614982 0 0 1 0 0 0 0 -1 forward_v I I I I #
coedge $-1 $482 $331 $483 $484 forward $201 $-1 #
coedge $-1 $485 $203 $482 $486 forward $129 $-1 #
coedge $-1 $203 $485 $487 $488 forward $129 $-1 #
coedge $-1 $334 $333 $203 $327 reversed $335 $-1 #
edge $-1 $489 -29.441111042361861 $490 29.441111042361861 $326 $491 forward 7 unknown #
coedge $-1 $205 $204 $492 $493 forward $81 $-1 #
coedge $-1 $494 $495 $204 $330 reversed $479 $-1 #
edge $-1 $337 -49.364299447614982 $496 49.364299447614982 $329 $497 forward 7 unknown #
coedge $-1 $323 $498 $205 $332 reversed $201 $-1 #
edge $-1 $499 -49.364299447614982 $336 49.364299447614982 $331 $500 forward 7 unknown #
coedge $-1 $326 $206 $498 $501 forward $335 $-1 #
coedge $-1 $206 $326 $494 $502 reversed $335 $-1 #
loop $-1 $-1 $333 $478 #
vertex $-1 $207 $503 #
vertex $-1 $207 $504 #
straight-curve $-1 49.364299447614982 0 14.639151527515414 0 1 0 I I #
face $-1 $505 $351 $49 $-1 $506 reversed single #
loop $-1 $-1 $507 $208 #
plane-surface $-1 -62.948727963375944 -18.722412546387879 0 1 0 0 0 0 -1 forward_v I I I I #
coedge $-1 $508 $509 $510 $511 forward $209 $-1 #
coedge $-1 $512 $211 $508 $513 forward $133 $-1 #
coedge $-1 $211 $512 $349 $514 forward $133 $-1 #
edge $-1 $352 17.222412546387879 $515 20.222412546387879 $211 $516 forward 7 unknown #
coedge $-1 $213 $212 $517 $518 forward $84 $-1 #
coedge $-1 $519 $520 $212 $348 forward $521 $-1 #
edge $-1 $522 -20.222412546387879 $353 -17.222412546387879 $347 $523 forward 7 unknown #
coedge $-1 $524 $214 $344 $514 reversed $351 $-1 #
coedge $-1 $214 $524 $519 $525 reversed $351 $-1 #
loop $-1 $-1 $214 $339 #
vertex $-1 $345 $526 #
vertex $-1 $525 $527 #
straight-curve $-1 -49.364299447614982 -17.222412546387879 0 0 0 1 I I #
face $-1 $-1 $528 $50 $-1 $529 reversed single #
loop $-1 $-1 $222 $216 #
plane-surface $-1 0 0 14.639151527515414 0 0 1 1 0 0 forward_v I I I I #
coedge $-1 $530 $531 $532 $533 reversed $217 $-1 #
coedge $-1 $534 $219 $221 $365 forward $137 $-1 #
coedge $-1 $219 $534 $530 $535 forward $137 $-1 #
coedge $-1 $532 $222 $219 $362 forward $356 $-1 #
edge $-1 $368 -18.254604544921932 $536 -5.2753609816745008 $361 $537 forward 7 unknown #
coedge $-1 $538 $539 $220 $364 forward $528 $-1 #
edge $-1 $540 -51.769587448083584 $367 -43.41160650258837 $363 $541 forward 7 unknown #
edge $-1 $368 47.635449496366746 $540 58.882222084723701 $221 $542 forward 7 unknown #
coedge $-1 $222 $532 $538 $543 forward $356 $-1 #
vertex $-1 $364 $544 #
vertex $-1 $223 $545 #
straight-curve $-1 -30.019587308220146 31.705431414909857 14.639151527515416 0 -1 0 I I #
coedge $-1 $370 $370 $-1 $546 reversed $226 $-1 #
edge $-1 $547 0 $547 6.2831853071796004 $227 $548 forward 7 unknown #
vertex $-1 $230 $549 #
ellipse-curve $-1 -23.529965526596428 25.678331213267541 10.460161054767809 0 0.74314483375859142 0.66913059716165679 2.5 0 0 1 I I #
face $-1 $-1 $550 $52 $-1 $551 reversed single #
loop $-1 $-1 $237 $231 #
plane-surface $-1 0 0 14.639151527515414 0 0 1 1 0 0 forward_v I I I I #
coedge $-1 $552 $553 $554 $555 reversed $232 $-1 #
coedge $-1 $556 $234 $236 $384 forward $146 $-1 #
coedge $-1 $234 $556 $552 $557 forward $146 $-1 #
coedge $-1 $554 $237 $234 $381 forward $375 $-1 #
edge $-1 $387 -8.1472112834296304 $558 4.832032279817799 $380 $559 forward 7 unknown #
coedge $-1 $560 $561 $235 $383 forward $550 $-1 #
edge $-1 $562 -51.769587448083584 $386 -43.41160650258837 $382 $563 forward 7 unknown #
edge $-1 $387 47.635449496366746 $562 58.882222084723701 $236 $564 forward 7 unknown #
coedge $-1 $237 $554 $560 $565 forward $375 $-1 #
vertex $-1 $238 $566 #
vertex $-1 $238 $567 #
straight-curve $-1 -9.8048007852355461 31.705431414909857 14.639151527515416 0 -1 0 I I #
coedge $-1 $389 $389 $-1 $568 reversed $241 $-1 #
edge $-1 $569 0 $569 6.2831853071796004 $242 $570 forward 7 unknown #
vertex $-1 $245 $571 #
ellipse-curve $-1 -3.3151790036118314 25.678331213267541 10.460161054767809 0 0.74314483375859142 0.66913059716165679 2.5 0 0 1 I I #
face $-1 $-1 $572 $54 $-1 $573 reversed single #
loop $-1 $-1 $252 $246 #
plane-surface $-1 0 0 14.639151527515414 0 0 1 1 0 0 forward_v I I I I #
coedge $-1 $574 $575 $576 $577 reversed $247 $-1 #
coedge $-1 $578 $249 $251 $403 forward $155 $-1 #
coedge $-1 $249 $578 $574 $579 forward $155 $-1 #
coedge $-1 $576 $252 $249 $400 forward $394 $-1 #
edge $-1 $406 1.9601819780626677 $580 14.939425541310097 $399 $581 forward 7 unknown #
coedge $-1 $582 $583 $250 $402 forward $572 $-1 #
edge $-1 $584 -51.769587448083584 $405 -43.41160650258837 $401 $585 forward 7 unknown #
edge $-1 $406 47.635449496366746 $584 58.882222084723701 $251 $586 forward 7 unknown #
coedge $-1 $252 $576 $582 $587 forward $394 $-1 #
vertex $-1 $253 $588 #
vertex $-1 $253 $589 #
straight-curve $-1 10.40998573774905 31.705431414909857 14.639151527515416 0 -1 0 I I #
coedge $-1 $408 $408 $-1 $590 reversed $256 $-1 #
edge $-1 $591 0 $591 6.2831853071796004 $257 $592 forward 7 unknown #
vertex $-1 $260 $593 #
ellipse-curve $-1 16.899607519372765 25.678331213267541 10.460161054767809 0 0.74314483375859142 0.66913059716165679 2.5 0 0 1 I I #
face $-1 $-1 $594 $56 $-1 $595 reversed single #
loop $-1 $-1 $267 $261 #
plane-surface $-1 0 0 14.639151527515414 0 0 1 1 0 0 forward_v I I I I #
coedge $-1 $596 $597 $598 $599 reversed $262 $-1 #
coedge $-1 $600 $264 $266 $422 forward $164 $-1 #
coedge $-1 $264 $600 $596 $601 forward $164 $-1 #
coedge $-1 $598 $267 $264 $419 forward $413 $-1 #
edge $-1 $425 12.067575239554966 $602 25.046818802802392 $418 $603 forward 7 unknown #
coedge $-1 $604 $605 $265 $421 forward $594 $-1 #
edge $-1 $606 -51.769587448083584 $424 -43.41160650258837 $420 $607 forward 7 unknown #
edge $-1 $425 47.635449496366746 $606 58.882222084723701 $266 $608 forward 7 unknown #
coedge $-1 $267 $598 $604 $609 forward $413 $-1 #
vertex $-1 $268 $610 #
vertex $-1 $268 $611 #
straight-curve $-1 30.624772260733646 31.705431414909857 14.639151527515416 0 -1 0 I I #
coedge $-1 $427 $427 $-1 $612 reversed $271 $-1 #
edge $-1 $613 0 $613 6.2831853071796004 $272 $614 forward 7 unknown #
vertex $-1 $275 $615 #
ellipse-curve $-1 37.114394042357361 25.678331213267541 10.460161054767809 0 0.74314483375859142 0.66913059716165679 2.5 0 0 1 I I #
face $-1 $-1 $616 $58 $-1 $617 reversed single #
loop $-1 $-1 $282 $276 #
plane-surface $-1 0 0 14.639151527515414 0 0 1 1 0 0 forward_v I I I I #
coedge $-1 $618 $619 $620 $621 reversed $277 $-1 #
coedge $-1 $622 $279 $281 $441 forward $173 $-1 #
coedge $-1 $279 $622 $618 $623 forward $173 $-1 #
coedge $-1 $620 $282 $279 $438 forward $432 $-1 #
edge $-1 $444 2.6708902603466012 $624 13.01645134158132 $437 $625 forward 7 unknown #
coedge $-1 $626 $627 $280 $440 forward $616 $-1 #
edge $-1 $628 -38.732583453473239 $443 -29.429034669413419 $439 $629 forward 7 unknown #
edge $-1 $444 -17.082045288781107 $628 0 $281 $630 forward 7 unknown #
coedge $-1 $282 $620 $626 $631 forward $432 $-1 #
vertex $-1 $283 $632 #
vertex $-1 $283 $633 #
straight-curve $-1 -10.514561061310561 -41.60628028877953 14.639151527515416 0 1 0 I I #
coedge $-1 $446 $446 $-1 $634 reversed $286 $-1 #
edge $-1 $635 0 $635 6.2831853071796004 $287 $636 forward 7 unknown #
vertex $-1 $290 $637 #
ellipse-curve $-1 -17.904247547906785 -22.278006769935903 9.9873771354855077 0 -0.54463904215088732 0.83867056331134215 1 0 0 1 I I #
coedge $-1 $450 $450 $-1 $638 reversed $293 $-1 #
edge $-1 $639 0 $639 6.2831853071796004 $294 $640 forward 7 unknown #
vertex $-1 $297 $641 #
ellipse-curve $-1 -13.470435655949046 -22.278006769935903 9.9873771354855077 0 -0.54463904215088732 0.83867056331134215 1 0 0 1 I I #
face $-1 $-1 $466 $61 $-1 $642 forward single #
loop $-1 $-1 $643 $298 #
plane-surface $-1 0 -29.441111042361861 0 0 1 0 0 0 1 forward_v I I I I #
coedge $-1 $644 $645 $646 $647 reversed $299 $-1 #
coedge $-1 $648 $301 $303 $464 forward $187 $-1 #
coedge $-1 $301 $648 $644 $649 forward $187 $-1 #
coedge $-1 $646 $304 $301 $461 forward $466 $-1 #
edge $-1 $468 -18.615152334520651 $650 -8.269591253285931 $460 $651 forward 7 unknown #
coedge $-1 $652 $653 $302 $463 forward $455 $-1 #
edge $-1 $654 -38.732583453473239 $467 -29.429034669413419 $462 $655 forward 7 unknown #
edge $-1 $468 -17.082045288781107 $654 0 $303 $656 forward 7 unknown #
coedge $-1 $304 $646 $652 $657 forward $466 $-1 #
loop $-1 $-1 $646 $454 #
vertex $-1 $463 $658 #
vertex $-1 $305 $659 #
straight-curve $-1 32.057524128423942 -41.60628028877953 14.639151527515416 0 1 0 I I #
coedge $-1 $470 $470 $-1 $660 reversed $308 $-1 #
edge $-1 $661 0 $661 6.2831853071796004 $309 $662 forward 7 unknown #
vertex $-1 $312 $663 #
ellipse-curve $-1 24.667837641827717 -22.278006769935903 9.9873771354855077 0 -0.54463904215088732 0.83867056331134215 1 0 0 1 I I #
coedge $-1 $474 $474 $-1 $664 reversed $315 $-1 #
edge $-1 $665 0 $665 6.2831853071796004 $316 $666 forward 7 unknown #
vertex $-1 $319 $667 #
ellipse-curve $-1 29.101649533785448 -22.278006769935903 9.9873771354855077 0 -0.54463904215088732 0.83867056331134215 1 0 0 1 I I #
face $-1 $-1 $335 $48 $-1 $668 reversed single #
loop $-1 $-1 $494 $320 #
plane-surface $-1 0 29.441111042361861 0 0 -1 0 0 0 -1 forward_v I I I I #
coedge $-1 $669 $492 $495 $670 forward $321 $-1 #
coedge $-1 $498 $323 $324 $486 reversed $201 $-1 #
coedge $-1 $492 $669 $323 $484 reversed $321 $-1 #
edge $-1 $499 -14.639151527515414 $671 14.639151527515414 $483 $672 forward 7 unknown #
coedge $-1 $325 $324 $669 $673 forward $129 $-1 #
edge $-1 $490 -49.364299447614982 $671 49.364299447614982 $482 $674 forward 7 unknown #
coedge $-1 $495 $494 $325 $488 reversed $479 $-1 #
edge $-1 $675 -49.364299447614982 $489 49.364299447614982 $487 $676 forward 7 unknown #
vertex $-1 $327 $677 #
vertex $-1 $501 $678 #
straight-curve $-1 49.364299447614982 0 -14.639151527515414 0 -1 0 I I #
coedge $-1 $481 $483 $328 $493 reversed $321 $-1 #
edge $-1 $496 -29.441111042361861 $499 29.441111042361861 $492 $679 forward 7 unknown #
coedge $-1 $487 $329 $334 $502 forward $479 $-1 #
coedge $-1 $329 $487 $481 $670 reversed $479 $-1 #
vertex $-1 $330 $680 #
straight-curve $-1 0 29.441111042361861 14.639151527515414 -1 0 0 I I #
coedge $-1 $331 $482 $333 $501 reversed $201 $-1 #
vertex $-1 $493 $681 #
straight-curve $-1 0 -29.441111042361861 14.639151527515414 1 0 0 I I #
edge $-1 $336 -14.639151527515414 $490 14.639151527515414 $333 $682 forward 7 unknown #
edge $-1 $337 -14.639151527515414 $489 14.639151527515414 $334 $683 forward 7 unknown #
point $-1 49.364299447614982 -29.441111042361861 14.639151527515414 #
point $-1 49.364299447614982 29.441111042361861 14.639151527515414 #
face $-1 $-1 $521 $49 $-1 $684 forward single #
plane-surface $-1 -56.156513705495463 -17.222412546387879 0 0 -1 0 0 0 -1 forward_v I I I I #
coedge $-1 $685 $686 $524 $687 forward $340 $-1 #
coedge $-1 $517 $342 $343 $513 reversed $209 $-1 #
coedge $-1 $342 $517 $520 $688 reversed $209 $-1 #
coedge $-1 $686 $685 $342 $511 reversed $340 $-1 #
edge $-1 $689 -14.639151527515414 $690 14.639151527515414 $510 $691 forward 7 unknown #
coedge $-1 $344 $343 $685 $692 forward $133 $-1 #
edge $-1 $515 -6.7922142578804809 $690 6.7922142578804809 $508 $693 forward 7 unknown #
edge $-1 $694 -6.7922142578804809 $352 6.7922142578804809 $349 $695 forward 7 unknown #
vertex $-1 $513 $696 #
straight-curve $-1 -49.364299447614982 0 -14.639151527515414 0 -1 0 I I #
coedge $-1 $509 $508 $346 $518 reversed $209 $-1 #
edge $-1 $522 -14.639151527515414 $515 14.639151527515414 $517 $697 forward 7 unknown #
coedge $-1 $698 $347 $350 $525 forward $521 $-1 #
coedge $-1 $347 $698 $509 $688 forward $521 $-1 #
loop $-1 $-1 $347 $505 #
vertex $-1 $348 $699 #
straight-curve $-1 -49.364299447614982 0 14.639151527515414 0 1 0 I I #
coedge $-1 $350 $349 $507 $687 reversed $351 $-1 #
edge $-1 $353 -6.7922142578804809 $700 6.7922142578804809 $350 $701 forward 7 unknown #
point $-1 -49.364299447614982 -17.222412546387879 -14.639151527515414 #
point $-1 -49.364299447614982 -17.222412546387879 14.639151527515414 #
loop $-1 $-1 $363 $355 #
plane-surface $-1 0 29.441111042361861 0 0 -1 0 0 0 -1 forward_v I I I I #
coedge $-1 $531 $358 $360 $535 reversed $217 $-1 #
coedge $-1 $358 $530 $702 $703 reversed $217 $-1 #
coedge $-1 $366 $361 $358 $533 forward $356 $-1 #
edge $-1 $536 -9.7898800307366365 $704 -2.2643203725479957 $532 $705 forward 7 unknown #
coedge $-1 $360 $359 $539 $706 reversed $137 $-1 #
edge $-1 $707 -58.882222084723701 $536 -47.635449496366746 $530 $708 forward 7 unknown #
vertex $-1 $362 $709 #
straight-curve $-1 -11.764982763298216 21.915551384173213 14.639151527515413 1 0 0 I I #
coedge $-1 $702 $363 $366 $543 reversed $528 $-1 #
coedge $-1 $363 $702 $534 $706 forward $528 $-1 #
vertex $-1 $364 $710 #
straight-curve $-1 -30.019587308220146 29.441111042361861 58.050758030103786 0 0 1 I I #
straight-curve $-1 -30.019587308220146 -9.9587853833946056 50.03918972450866 0 0.66913059716165679 -0.74314483375859142 I I #
edge $-1 $704 17.040343744972716 $367 30.019587308220146 $538 $711 forward 7 unknown #
point $-1 -30.019587308220146 29.441111042361861 14.639151527515414 #
point $-1 -30.019587308220146 21.91555138417322 14.639151527515416 #
edge $-1 $712 1 $712 0 $370 $-1 forward 7 unknown #
vertex $-1 $371 $713 #
ellipse-curve $-1 -23.529965526596428 22.793079957776225 7.8622692201655138 0 0.74314483375859142 0.66913059716165679 2.5 0 0 1 I I #
point $-1 -21.029965526596428 25.678331213267526 10.460161054767797 #
loop $-1 $-1 $382 $374 #
plane-surface $-1 0 29.441111042361861 0 0 -1 0 0 0 -1 forward_v I I I I #
coedge $-1 $553 $377 $379 $557 reversed $232 $-1 #
coedge $-1 $377 $552 $714 $715 reversed $232 $-1 #
coedge $-1 $385 $380 $377 $555 forward $375 $-1 #
edge $-1 $558 -9.7898800307366365 $716 -2.2643203725479957 $554 $717 forward 7 unknown #
coedge $-1 $379 $378 $561 $718 reversed $146 $-1 #
edge $-1 $719 -58.882222084723701 $558 -47.635449496366746 $552 $720 forward 7 unknown #
vertex $-1 $381 $721 #
straight-curve $-1 -1.6575895018059157 21.915551384173213 14.639151527515413 1 0 0 I I #
coedge $-1 $714 $382 $385 $565 reversed $550 $-1 #
coedge $-1 $382 $714 $556 $718 forward $550 $-1 #
vertex $-1 $383 $722 #
straight-curve $-1 -9.8048007852355461 29.441111042361861 58.050758030103786 0 0 1 I I #
straight-curve $-1 -9.8048007852355461 -9.9587853833946056 50.03918972450866 0 0.66913059716165679 -0.74314483375859142 I I #
edge $-1 $716 -3.1744427780118833 $386 9.8048007852355461 $560 $723 forward 7 unknown #
point $-1 -9.8048007852355461 29.441111042361861 14.639151527515414 #
point $-1 -9.8048007852355461 21.91555138417322 14.639151527515416 #
edge $-1 $724 1 $724 0 $389 $-1 forward 7 unknown #
vertex $-1 $390 $725 #
ellipse-curve $-1 -3.3151790036118314 22.793079957776225 7.8622692201655138 0 0.74314483375859142 0.66913059716165679 2.5 0 0 1 I I #
point $-1 -0.81517900361183138 25.678331213267526 10.460161054767797 #
loop $-1 $-1 $401 $393 #
plane-surface $-1 0 29.441111042361861 0 0 -1 0 0 0 -1 forward_v I I I I #
coedge $-1 $575 $396 $398 $579 reversed $247 $-1 #
coedge $-1 $396 $574 $726 $727 reversed $247 $-1 #
coedge $-1 $404 $399 $396 $577 forward $394 $-1 #
edge $-1 $580 -9.7898800307366365 $728 -2.2643203725479957 $576 $729 forward 7 unknown #
coedge $-1 $398 $397 $583 $730 reversed $155 $-1 #
edge $-1 $731 -58.882222084723701 $580 -47.635449496366746 $574 $732 forward 7 unknown #
vertex $-1 $400 $733 #
straight-curve $-1 8.4498037596863824 21.915551384173213 14.639151527515413 1 0 0 I I #
coedge $-1 $726 $401 $404 $587 reversed $572 $-1 #
coedge $-1 $401 $726 $578 $730 forward $572 $-1 #
vertex $-1 $402 $734 #
straight-curve $-1 10.40998573774905 29.441111042361861 58.050758030103786 0 0 1 I I #
straight-curve $-1 10.40998573774905 -9.9587853833946056 50.03918972450866 0 0.66913059716165679 -0.74314483375859142 I I #
edge $-1 $728 -23.38922930099648 $405 -10.40998573774905 $582 $735 forward 7 unknown #
point $-1 10.40998573774905 29.441111042361861 14.639151527515414 #
point $-1 10.40998573774905 21.91555138417322 14.639151527515416 #
edge $-1 $736 1 $736 0 $408 $-1 forward 7 unknown #
vertex $-1 $409 $737 #
ellipse-curve $-1 16.899607519372765 22.793079957776225 7.8622692201655138 0 0.74314483375859142 0.66913059716165679 2.5 0 0 1 I I #
point $-1 19.399607519372765 25.678331213267526 10.460161054767797 #
loop $-1 $-1 $420 $412 #
plane-surface $-1 0 29.441111042361861 0 0 -1 0 0 0 -1 forward_v I I I I #
coedge $-1 $597 $415 $417 $601 reversed $262 $-1 #
coedge $-1 $415 $596 $738 $739 reversed $262 $-1 #
coedge $-1 $423 $418 $415 $599 forward $413 $-1 #
edge $-1 $602 -9.7898800307366365 $740 -2.2643203725479957 $598 $741 forward 7 unknown #
coedge $-1 $417 $416 $605 $742 reversed $164 $-1 #
edge $-1 $743 -58.882222084723701 $602 -47.635449496366746 $596 $744 forward 7 unknown #
vertex $-1 $419 $745 #
straight-curve $-1 18.557197021178681 21.915551384173213 14.639151527515413 1 0 0 I I #
coedge $-1 $738 $420 $423 $609 reversed $594 $-1 #
coedge $-1 $420 $738 $600 $742 forward $594 $-1 #
vertex $-1 $421 $746 #
straight-curve $-1 30.624772260733646 29.441111042361861 58.050758030103786 0 0 1 I I #
straight-curve $-1 30.624772260733646 -9.9587853833946056 50.03918972450866 0 0.66913059716165679 -0.74314483375859142 I I #
edge $-1 $740 -43.604015823981072 $424 -30.624772260733646 $604 $747 forward 7 unknown #
point $-1 30.624772260733646 29.441111042361861 14.639151527515414 #
point $-1 30.624772260733646 21.91555138417322 14.639151527515416 #
edge $-1 $748 1 $748 0 $427 $-1 forward 7 unknown #
vertex $-1 $428 $749 #
ellipse-curve $-1 37.114394042357361 22.793079957776225 7.8622692201655138 0 0.74314483375859142 0.66913059716165679 2.5 0 0 1 I I #
point $-1 39.614394042357361 25.678331213267526 10.460161054767797 #
loop $-1 $-1 $439 $431 #
plane-surface $-1 0 -29.441111042361861 0 0 1 0 0 0 1 forward_v I I I I #
coedge $-1 $619 $434 $436 $623 reversed $277 $-1 #
coedge $-1 $434 $618 $750 $751 reversed $277 $-1 #
coedge $-1 $442 $437 $434 $621 forward $432 $-1 #
edge $-1 $624 -26.491377791269578 $752 -12.165169246417669 $620 $753 forward 7 unknown #
coedge $-1 $436 $435 $627 $754 reversed $173 $-1 #
edge $-1 $755 0 $624 17.082045288781107 $618 $756 forward 7 unknown #
vertex $-1 $438 $757 #
straight-curve $-1 -7.8436708009639595 -15.114902497509956 14.639151527515414 -1 0 0 I I #
coedge $-1 $750 $439 $442 $631 reversed $616 $-1 #
coedge $-1 $439 $750 $622 $754 forward $616 $-1 #
vertex $-1 $440 $758 #
straight-curve $-1 -10.514561061310561 -29.441111042361861 44.068186196928835 0 0 1 I I #
straight-curve $-1 -10.514561061310561 -29.441111042361861 5.3356027434555955 0 -0.83867056331134215 -0.54463904215088732 I I #
edge $-1 $752 -20.860122142545279 $443 -10.514561061310561 $626 $759 forward 7 unknown #
point $-1 -10.514561061310561 -29.441111042361861 14.639151527515414 #
point $-1 -10.514561061310561 -15.114902497509952 14.639151527515414 #
edge $-1 $760 1 $760 0 $446 $-1 forward 7 unknown #
vertex $-1 $447 $761 #
ellipse-curve $-1 -17.904247547906785 -20.720914548198998 7.589665422468034 0 -0.54463904215088732 0.83867056331134215 1 0 0 1 I I #
point $-1 -16.904247547906785 -22.278006769935896 9.9873771354854952 #
edge $-1 $762 1 $762 0 $450 $-1 forward 7 unknown #
vertex $-1 $451 $763 #
ellipse-curve $-1 -13.470435655949046 -20.720914548198998 7.589665422468034 0 -0.54463904215088732 0.83867056331134215 1 0 0 1 I I #
point $-1 -12.470435655949046 -22.278006769935896 9.9873771354854952 #
plane-surface $-1 0 0 14.639151527515414 0 0 1 1 0 0 forward_v I I I I #
coedge $-1 $653 $652 $645 $764 forward $455 $-1 #
coedge $-1 $645 $457 $459 $649 reversed $299 $-1 #
coedge $-1 $457 $644 $643 $764 reversed $299 $-1 #
coedge $-1 $465 $460 $457 $647 forward $466 $-1 #
edge $-1 $650 -26.491377791269578 $765 -12.165169246417669 $646 $766 forward 7 unknown #
coedge $-1 $459 $458 $653 $767 reversed $187 $-1 #
edge $-1 $768 0 $650 17.082045288781107 $644 $769 forward 7 unknown #
vertex $-1 $461 $770 #
straight-curve $-1 13.442371793903291 -15.114902497509956 14.639151527515414 -1 0 0 I I #
coedge $-1 $643 $462 $465 $657 reversed $455 $-1 #
coedge $-1 $462 $643 $648 $767 forward $455 $-1 #
vertex $-1 $463 $771 #
straight-curve $-1 32.057524128423942 -29.441111042361861 44.068186196928835 0 0 1 I I #
straight-curve $-1 32.057524128423942 -29.441111042361861 5.3356027434555955 0 -0.83867056331134215 -0.54463904215088732 I I #
edge $-1 $765 21.711963047189222 $467 32.057524128423942 $652 $772 forward 7 unknown #
point $-1 32.057524128423942 -29.441111042361861 14.639151527515414 #
point $-1 32.057524128423942 -15.114902497509952 14.639151527515414 #
edge $-1 $773 1 $773 0 $470 $-1 forward 7 unknown #
vertex $-1 $471 $774 #
ellipse-curve $-1 24.667837641827717 -20.720914548198998 7.589665422468034 0 -0.54463904215088732 0.83867056331134215 1 0 0 1 I I #
point $-1 25.667837641827717 -22.278006769935896 9.9873771354854952 #
edge $-1 $775 1 $775 0 $474 $-1 forward 7 unknown #
vertex $-1 $475 $776 #
ellipse-curve $-1 29.101649533785448 -20.720914548198998 7.589665422468034 0 -0.54463904215088732 0.83867056331134215 1 0 0 1 I I #
point $-1 30.101649533785448 -22.278006769935896 9.9873771354854952 #
plane-surface $-1 49.364299447614982 0 0 -1 0 0 0 0 1 forward_v I I I I #
coedge $-1 $483 $481 $485 $673 reversed $321 $-1 #
edge $-1 $496 -14.639151527515414 $675 14.639151527515414 $495 $777 forward 7 unknown #
vertex $-1 $673 $778 #
straight-curve $-1 -49.364299447614982 -29.441111042361861 0 0 0 -1 I I #
edge $-1 $671 -29.441111042361861 $675 29.441111042361861 $669 $779 forward 7 unknown #
straight-curve $-1 0 -29.441111042361861 -14.639151527515414 -1 0 0 I I #
vertex $-1 $488 $780 #
straight-curve $-1 0 29.441111042361861 -14.639151527515414 1 0 0 I I #
point $-1 49.364299447614982 29.441111042361861 -14.639151527515414 #
point $-1 49.364299447614982 -29.441111042361861 -14.639151527515414 #
straight-curve $-1 -49.364299447614982 0 14.639151527515414 0 -1 0 I I #
point $-1 -49.364299447614982 29.441111042361861 14.639151527515414 #
point $-1 -49.364299447614982 -29.441111042361861 14.639151527515414 #
straight-curve $-1 49.364299447614982 -29.441111042361861 0 0 0 -1 I I #
straight-curve $-1 49.364299447614982 29.441111042361861 0 0 0 -1 I I #
plane-surface $-1 0 0 14.639151527515414 0 0 1 1 0 0 forward_v I I I I #
coedge $-1 $510 $507 $512 $692 reversed $340 $-1 #
coedge $-1 $507 $510 $698 $781 reversed $340 $-1 #
edge $-1 $700 -14.639151527515414 $694 14.639151527515414 $524 $782 forward 7 unknown #
edge $-1 $689 -6.7922142578804809 $522 6.7922142578804809 $509 $783 forward 7 unknown #
vertex $-1 $781 $784 #
vertex $-1 $692 $785 #
straight-curve $-1 -62.948727963375944 -20.222412546387879 0 0 0 -1 I I #
edge $-1 $690 -1.5 $694 1.5 $685 $786 forward 7 unknown #
straight-curve $-1 -56.156513705495463 -20.222412546387879 -14.639151527515414 -1 0 0 I I #
vertex $-1 $514 $787 #
straight-curve $-1 -56.156513705495463 -17.222412546387879 -14.639151527515414 1 0 0 I I #
point $-1 -49.364299447614982 -20.222412546387879 -14.639151527515414 #
straight-curve $-1 -49.364299447614982 -20.222412546387879 0 0 0 -1 I I #
coedge $-1 $520 $519 $686 $781 forward $521 $-1 #
point $-1 -49.364299447614982 -20.222412546387879 14.639151527515414 #
vertex $-1 $525 $788 #
straight-curve $-1 -56.156513705495463 -17.222412546387879 14.639151527515414 -1 0 0 I I #
coedge $-1 $539 $538 $531 $703 forward $528 $-1 #
edge $-1 $704 43.41160650258837 $707 51.769587448083584 $702 $789 forward 7 unknown #
vertex $-1 $543 $790 #
straight-curve $-1 -17.040343744972716 31.705431414909857 14.639151527515416 0 1 0 I I #
edge $-1 $707 5.2753609816745008 $540 18.254604544921932 $539 $791 forward 7 unknown #
vertex $-1 $706 $792 #
straight-curve $-1 -17.040343744972716 -9.9587853833946056 50.03918972450866 0 -0.66913059716165679 0.74314483375859142 I I #
point $-1 -17.040343744972716 21.91555138417322 14.639151527515416 #
point $-1 -30.019587308220146 29.441111042361861 6.2811705820202022 #
straight-curve $-1 0 29.441111042361861 14.639151527515414 -1 0 0 I I #
vertex $-1 $546 $793 #
point $-1 -21.029965526596428 22.793079957776225 7.8622692201655138 #
coedge $-1 $561 $560 $553 $715 forward $550 $-1 #
edge $-1 $716 43.41160650258837 $719 51.769587448083584 $714 $794 forward 7 unknown #
vertex $-1 $565 $795 #
straight-curve $-1 3.1744427780118833 31.705431414909857 14.639151527515416 0 1 0 I I #
edge $-1 $719 -4.832032279817799 $562 8.1472112834296304 $561 $796 forward 7 unknown #
vertex $-1 $718 $797 #
straight-curve $-1 3.1744427780118833 -9.9587853833946056 50.03918972450866 0 -0.66913059716165679 0.74314483375859142 I I #
point $-1 3.1744427780118833 21.91555138417322 14.639151527515416 #
point $-1 -9.8048007852355461 29.441111042361861 6.2811705820202022 #
straight-curve $-1 0 29.441111042361861 14.639151527515414 -1 0 0 I I #
vertex $-1 $568 $798 #
point $-1 -0.81517900361183138 22.793079957776225 7.8622692201655138 #
coedge $-1 $583 $582 $575 $727 forward $572 $-1 #
edge $-1 $728 43.41160650258837 $731 51.769587448083584 $726 $799 forward 7 unknown #
vertex $-1 $587 $800 #
straight-curve $-1 23.38922930099648 31.705431414909857 14.639151527515416 0 1 0 I I #
edge $-1 $731 -14.939425541310097 $584 -1.9601819780626677 $583 $801 forward 7 unknown #
vertex $-1 $730 $802 #
straight-curve $-1 23.38922930099648 -9.9587853833946056 50.03918972450866 0 -0.66913059716165679 0.74314483375859142 I I #
point $-1 23.38922930099648 21.91555138417322 14.639151527515416 #
point $-1 10.40998573774905 29.441111042361861 6.2811705820202022 #
straight-curve $-1 0 29.441111042361861 14.639151527515414 -1 0 0 I I #
vertex $-1 $590 $803 #
point $-1 19.399607519372765 22.793079957776225 7.8622692201655138 #
coedge $-1 $605 $604 $597 $739 forward $594 $-1 #
edge $-1 $740 43.41160650258837 $743 51.769587448083584 $738 $804 forward 7 unknown #
vertex $-1 $609 $805 #
straight-curve $-1 43.604015823981072 31.705431414909857 14.639151527515416 0 1 0 I I #
edge $-1 $743 -25.046818802802392 $606 -12.067575239554966 $605 $806 forward 7 unknown #
vertex $-1 $742 $807 #
straight-curve $-1 43.604015823981072 -9.9587853833946056 50.03918972450866 0 -0.66913059716165679 0.74314483375859142 I I #
point $-1 43.604015823981072 21.91555138417322 14.639151527515416 #
point $-1 30.624772260733646 29.441111042361861 6.2811705820202022 #
straight-curve $-1 0 29.441111042361861 14.639151527515414 -1 0 0 I I #
vertex $-1 $612 $808 #
point $-1 39.614394042357361 22.793079957776225 7.8622692201655138 #
coedge $-1 $627 $626 $619 $751 forward $616 $-1 #
edge $-1 $752 29.429034669413419 $755 38.732583453473239 $750 $809 forward 7 unknown #
vertex $-1 $631 $810 #
straight-curve $-1 -20.860122142545279 -41.60628028877953 14.639151527515416 0 -1 0 I I #
edge $-1 $755 -13.01645134158132 $628 -2.6708902603466012 $627 $811 forward 7 unknown #
vertex $-1 $754 $812 #
straight-curve $-1 -20.860122142545279 -29.441111042361861 5.3356027434555955 0 0.83867056331134215 0.54463904215088732 I I #
point $-1 -20.860122142545279 -15.114902497509952 14.639151527515414 #
point $-1 -10.514561061310561 -29.441111042361861 5.3356027434555955 #
straight-curve $-1 0 -29.441111042361861 14.639151527515414 1 0 0 I I #
vertex $-1 $634 $813 #
point $-1 -16.904247547906785 -20.720914548198998 7.589665422468034 #
vertex $-1 $638 $814 #
point $-1 -12.470435655949046 -20.720914548198998 7.589665422468034 #
edge $-1 $765 29.429034669413419 $768 38.732583453473239 $643 $815 forward 7 unknown #
vertex $-1 $657 $816 #
straight-curve $-1 21.711963047189222 -41.60628028877953 14.639151527515416 0 -1 0 I I #
edge $-1 $768 8.269591253285931 $654 18.615152334520651 $653 $817 forward 7 unknown #
vertex $-1 $767 $818 #
straight-curve $-1 21.711963047189222 -29.441111042361861 5.3356027434555955 0 0.83867056331134215 0.54463904215088732 I I #
point $-1 21.711963047189222 -15.114902497509952 14.639151527515414 #
point $-1 32.057524128423942 -29.441111042361861 5.3356027434555955 #
straight-curve $-1 0 -29.441111042361861 14.639151527515414 1 0 0 I I #
vertex $-1 $660 $819 #
point $-1 25.667837641827717 -20.720914548198998 7.589665422468034 #
vertex $-1 $664 $820 #
point $-1 30.101649533785448 -20.720914548198998 7.589665422468034 #
straight-curve $-1 -49.364299447614982 29.441111042361861 0 0 0 -1 I I #
point $-1 -49.364299447614982 -29.441111042361861 -14.639151527515414 #
straight-curve $-1 -49.364299447614982 0 -14.639151527515414 0 1 0 I I #
point $-1 -49.364299447614982 29.441111042361861 -14.639151527515414 #
edge $-1 $700 -1.5 $689 1.5 $686 $821 forward 7 unknown #
straight-curve $-1 -62.948727963375944 -17.222412546387879 0 0 0 -1 I I #
straight-curve $-1 -56.156513705495463 -20.222412546387879 14.639151527515414 1 0 0 I I #
point $-1 -62.948727963375944 -20.222412546387879 14.639151527515414 #
point $-1 -62.948727963375944 -20.222412546387879 -14.639151527515414 #
straight-curve $-1 -62.948727963375944 -18.722412546387879 -14.639151527515414 0 1 0 I I #
point $-1 -62.948727963375944 -17.222412546387879 -14.639151527515414 #
point $-1 -62.948727963375944 -17.222412546387879 14.639151527515414 #
straight-curve $-1 -17.040343744972716 29.441111042361861 58.050758030103786 0 0 -1 I I #
point $-1 -17.040343744972716 29.441111042361861 14.639151527515414 #
straight-curve $-1 -11.764982763298216 29.441111042361868 6.2811705820201986 -1 0 0 I I #
point $-1 -17.040343744972716 29.441111042361861 6.2811705820202022 #
point $-1 -23.529965526596428 20.935217873379745 6.1894427272613708 #
straight-curve $-1 3.1744427780118833 29.441111042361861 58.050758030103786 0 0 -1 I I #
point $-1 3.1744427780118833 29.441111042361861 14.639151527515414 #
straight-curve $-1 -1.6575895018059157 29.441111042361868 6.2811705820201986 -1 0 0 I I #
point $-1 3.1744427780118833 29.441111042361861 6.2811705820202022 #
point $-1 -3.3151790036118314 20.935217873379745 6.1894427272613708 #
straight-curve $-1 23.38922930099648 29.441111042361861 58.050758030103786 0 0 -1 I I #
point $-1 23.38922930099648 29.441111042361861 14.639151527515414 #
straight-curve $-1 8.4498037596863824 29.441111042361868 6.2811705820201986 -1 0 0 I I #
point $-1 23.38922930099648 29.441111042361861 6.2811705820202022 #
point $-1 16.899607519372765 20.935217873379745 6.1894427272613708 #
straight-curve $-1 43.604015823981072 29.441111042361861 58.050758030103786 0 0 -1 I I #
point $-1 43.604015823981072 29.441111042361861 14.639151527515414 #
straight-curve $-1 18.557197021178681 29.441111042361868 6.2811705820201986 -1 0 0 I I #
point $-1 43.604015823981072 29.441111042361861 6.2811705820202022 #
point $-1 37.114394042357361 20.935217873379745 6.1894427272613708 #
straight-curve $-1 -20.860122142545279 -29.441111042361861 44.068186196928835 0 0 -1 I I #
point $-1 -20.860122142545279 -29.441111042361861 14.639151527515414 #
straight-curve $-1 -7.8436708009639595 -29.441111042361861 5.3356027434555955 1 0 0 I I #
point $-1 -20.860122142545279 -29.441111042361861 5.3356027434555955 #
point $-1 -17.904247547906785 -20.176275506048107 6.7509948591566911 #
point $-1 -13.470435655949046 -20.176275506048107 6.7509948591566911 #
straight-curve $-1 21.711963047189222 -29.441111042361861 44.068186196928835 0 0 -1 I I #
point $-1 21.711963047189222 -29.441111042361861 14.639151527515414 #
straight-curve $-1 13.442371793903291 -29.441111042361861 5.3356027434555955 1 0 0 I I #
point $-1 21.711963047189222 -29.441111042361861 5.3356027434555955 #
point $-1 24.667837641827717 -20.176275506048107 6.7509948591566911 #
point $-1 29.101649533785448 -20.176275506048107 6.7509948591566911 #
straight-curve $-1 -62.948727963375944 -18.722412546387879 14.639151527515414 0 -1 0 I I #
End-of-ACIS-data 