500 0 6 0           
7 Unknown 11 ACIS 5.0 NT 24 Thu Mar 25 15:10:46 1999 
-1 9.9999999999999995e-007 1e-010 
body $-1 $6 $-1 $7 #
body $-1 $8 $-1 $9 #
body $-1 $10 $-1 $11 #
body $-1 $12 $-1 $13 #
body $-1 $14 $-1 $15 #
body $-1 $16 $-1 $17 #
lump $-1 $-1 $18 $0 #
transform $-1 1 0 0 0 1 0 0 0 1 47.534409619434186 32.489414283786978 6.9217612895195932 1 rotate no_reflect no_shear #
lump $-1 $-1 $19 $1 #
transform $-1 1 0 0 0 1 0 0 0 1 47.534409619434186 32.489414283786978 6.9217612895195932 1 rotate no_reflect no_shear #
lump $-1 $-1 $20 $2 #
transform $-1 1 0 0 0 1 0 0 0 1 47.534409619434186 32.489414283786978 6.9217612895195932 1 rotate no_reflect no_shear #
lump $-1 $-1 $21 $3 #
transform $-1 1 0 0 0 1 0 0 0 1 47.534409619434186 32.489414283786978 6.9217612895195932 1 rotate no_reflect no_shear #
lump $-1 $-1 $22 $4 #
transform $-1 1 0 0 0 1 0 0 0 1 47.534409619434186 32.489414283786978 6.9217612895195932 1 rotate no_reflect no_shear #
lump $-1 $-1 $23 $5 #
transform $-1 1 0 0 0 1 0 0 0 1 47.534409619434186 32.489414283786978 6.9217612895195932 1 rotate no_reflect no_shear #
shell $-1 $-1 $-1 $24 $-1 $6 #
shell $-1 $-1 $-1 $25 $-1 $8 #
shell $-1 $-1 $-1 $26 $-1 $10 #
shell $-1 $-1 $-1 $27 $-1 $12 #
shell $-1 $-1 $-1 $28 $-1 $14 #
shell $-1 $-1 $-1 $29 $-1 $16 #
face $-1 $30 $31 $18 $-1 $32 forward single #
face $-1 $33 $34 $19 $-1 $35 forward single #
face $-1 $36 $37 $20 $-1 $38 forward single #
face $-1 $39 $40 $21 $-1 $41 reversed single #
face $-1 $42 $43 $22 $-1 $44 forward single #
face $-1 $45 $46 $23 $-1 $47 forward single #
face $-1 $48 $49 $18 $-1 $50 reversed single #
loop $-1 $-1 $51 $24 #
plane-surface $-1 0 0 6.9217612895195932 0 0 1 1 0 0 forward_v I I I I #
face $-1 $52 $53 $19 $-1 $54 reversed single #
loop $-1 $-1 $55 $25 #
plane-surface $-1 0 -29.951977331679387 -3.2532935527833486 0 0 1 1 0 0 forward_v I I I I #
face $-1 $56 $57 $20 $-1 $58 reversed single #
loop $-1 $-1 $59 $26 #
plane-surface $-1 0 29.951977331679387 -3.2532935527833486 0 0 1 1 0 0 forward_v I I I I #
face $-1 $60 $61 $21 $-1 $62 reversed single #
loop $-1 $-1 $63 $27 #
plane-surface $-1 -96.498471915530843 -15.351046889458745 82.36634561792394 0 -1 0 0.51503808176128008 0 -0.85716729658548041 forward_v I I I I #
face $-1 $64 $65 $22 $-1 $66 forward single #
loop $-1 $67 $68 $28 #
cone-surface $-1 -41.76988409229795 -23.967827953825214 2.6775433759504406 0.51503808176128008 0 -0.85716729658548041 0.85716729658548041 0 0.51503808176128008 1 I I 0 1 1 forward I I I I #
face $-1 $69 $70 $23 $-1 $71 forward single #
loop $-1 $72 $73 $29 #
cone-surface $-1 -41.76988409229795 -18.79775931520533 2.6775433759504406 0.51503808176128008 0 -0.85716729658548041 0.85716729658548041 0 0.51503808176128008 1 I I 0 1 1 forward I I I I #
face $-1 $74 $75 $18 $-1 $76 reversed single #
loop $-1 $-1 $77 $30 #
plane-surface $-1 0 0 -6.9217612895195932 0 0 1 1 0 0 forward_v I I I I #
coedge $-1 $78 $79 $80 $81 forward $31 $-1 #
face $-1 $82 $83 $19 $-1 $84 reversed single #
loop $-1 $-1 $85 $33 #
plane-surface $-1 0 -29.951977331679387 -6.2620955410991339 0 0 1 1 0 0 forward_v I I I I #
coedge $-1 $86 $87 $88 $89 reversed $34 $-1 #
face $-1 $90 $91 $20 $-1 $92 reversed single #
loop $-1 $-1 $93 $36 #
plane-surface $-1 0 29.951977331679387 -6.2620955410991339 0 0 1 1 0 0 forward_v I I I I #
coedge $-1 $94 $95 $96 $97 reversed $37 $-1 #
face $-1 $98 $99 $21 $-1 $100 reversed single #
loop $-1 $-1 $101 $39 #
plane-surface $-1 -47.5344096194342 -21.382793634515274 0.87646284136943109 -0.51503808176128008 0 0.85716729658548041 0.85716729658548041 0 0.51503808176128008 forward_v I I I I #
coedge $-1 $102 $103 $104 $105 reversed $40 $-1 #
face $-1 $-1 $106 $22 $-1 $107 forward single #
loop $-1 $108 $109 $42 #
cone-surface $-1 -40.778372519174305 -23.967827953825214 1.0273910381636302 0.51503808176128008 0 -0.85716729658548041 0.4285836482927402 0 0.25751904088064004 1 I I -0.70710678118654746 0.70710678118654746 0.5 forward I I I I #
loop $-1 $-1 $110 $28 #
coedge $-1 $68 $68 $111 $112 reversed $43 $-1 #
face $-1 $-1 $113 $23 $-1 $114 forward single #
loop $-1 $115 $116 $45 #
cone-surface $-1 -40.778372519174305 -18.79775931520533 1.0273910381636302 0.51503808176128008 0 -0.85716729658548041 0.4285836482927402 0 0.25751904088064004 1 I I -0.70710678118654746 0.70710678118654746 0.5 forward I I I I #
loop $-1 $-1 $117 $29 #
coedge $-1 $73 $73 $118 $119 reversed $46 $-1 #
face $-1 $120 $121 $18 $-1 $122 reversed single #
loop $-1 $-1 $123 $48 #
plane-surface $-1 0 -32.489414283786978 0 0 1 0 0 0 1 forward_v I I I I #
coedge $-1 $124 $125 $126 $127 forward $49 $-1 #
coedge $-1 $128 $51 $129 $130 forward $31 $-1 #
coedge $-1 $51 $128 $131 $132 forward $31 $-1 #
coedge $-1 $133 $134 $51 $81 reversed $135 $-1 #
edge $-1 $136 -32.489414283786978 $137 32.489414283786978 $80 $138 forward 7 unknown #
face $-1 $139 $140 $19 $-1 $141 reversed single #
loop $-1 $-1 $142 $52 #
plane-surface $-1 0 -27.414540379571797 -4.7576945469412415 0 -1 0 0 0 -1 forward_v I I I I #
coedge $-1 $143 $144 $145 $146 reversed $53 $-1 #
coedge $-1 $147 $55 $148 $149 forward $34 $-1 #
coedge $-1 $55 $147 $150 $151 reversed $34 $-1 #
coedge $-1 $152 $153 $55 $89 forward $154 $-1 #
edge $-1 $155 12.438551713732103 $156 17.513425617947284 $88 $157 forward 7 unknown #
face $-1 $158 $159 $20 $-1 $160 reversed single #
loop $-1 $-1 $161 $56 #
plane-surface $-1 0 27.414540379571797 -4.7576945469412415 0 1 0 0 0 1 forward_v I I I I #
coedge $-1 $162 $163 $164 $165 reversed $57 $-1 #
coedge $-1 $166 $59 $167 $168 reversed $37 $-1 #
coedge $-1 $59 $166 $169 $170 forward $37 $-1 #
coedge $-1 $171 $172 $59 $97 forward $159 $-1 #
edge $-1 $173 -17.513425617947284 $174 -12.438551713732103 $96 $175 forward 7 unknown #
face $-1 $176 $177 $21 $-1 $178 reversed single #
loop $-1 $-1 $179 $60 #
plane-surface $-1 -96.498471915530843 -27.414540379571804 82.36634561792394 0 1 0 -0.51503808176128008 0 0.85716729658548041 forward_v I I I I #
coedge $-1 $180 $181 $182 $183 reversed $61 $-1 #
coedge $-1 $103 $63 $184 $185 reversed $40 $-1 #
coedge $-1 $63 $102 $180 $186 reversed $40 $-1 #
coedge $-1 $182 $187 $63 $105 forward $177 $-1 #
edge $-1 $188 34.261411519442376 $189 40.306709967592532 $104 $190 forward 7 unknown #
loop $-1 $-1 $111 $64 #
plane-surface $-1 -47.5344096194342 -21.382793634515274 0.87646284136943109 -0.51503808176128008 0 0.85716729658548041 0.85716729658548041 0 0.51503808176128008 forward_v I I I I #
loop $-1 $-1 $191 $42 #
coedge $-1 $109 $109 $110 $192 reversed $65 $-1 #
coedge $-1 $110 $110 $109 $192 forward $67 $-1 #
coedge $-1 $111 $111 $68 $112 forward $106 $-1 #
edge $-1 $193 0 $193 6.2831853071796004 $111 $194 forward 7 unknown #
loop $-1 $-1 $118 $69 #
plane-surface $-1 -47.5344096194342 -21.382793634515274 0.87646284136943109 -0.51503808176128008 0 0.85716729658548041 0.85716729658548041 0 0.51503808176128008 forward_v I I I I #
loop $-1 $-1 $195 $45 #
coedge $-1 $116 $116 $117 $196 reversed $70 $-1 #
coedge $-1 $117 $117 $116 $196 forward $72 $-1 #
coedge $-1 $118 $118 $73 $119 forward $113 $-1 #
edge $-1 $197 0 $197 6.2831853071796004 $118 $198 forward 7 unknown #
face $-1 $199 $200 $18 $-1 $201 reversed single #
loop $-1 $-1 $202 $74 #
plane-surface $-1 -47.534409619434186 0 0 1 0 0 0 0 -1 forward_v I I I I #
coedge $-1 $203 $131 $204 $205 forward $75 $-1 #
coedge $-1 $206 $77 $203 $207 forward $49 $-1 #
coedge $-1 $77 $206 $208 $209 forward $49 $-1 #
coedge $-1 $134 $133 $77 $127 reversed $135 $-1 #
edge $-1 $210 -32.489414283786978 $211 32.489414283786978 $126 $212 forward 7 unknown #
coedge $-1 $79 $78 $213 $214 forward $31 $-1 #
coedge $-1 $215 $216 $78 $130 reversed $200 $-1 #
edge $-1 $137 -47.534409619434186 $217 47.534409619434186 $129 $218 forward 7 unknown #
coedge $-1 $123 $219 $79 $132 reversed $75 $-1 #
edge $-1 $220 -47.534409619434186 $136 47.534409619434186 $131 $221 forward 7 unknown #
coedge $-1 $126 $80 $219 $222 forward $135 $-1 #
coedge $-1 $80 $126 $215 $223 reversed $135 $-1 #
loop $-1 $-1 $133 $199 #
vertex $-1 $81 $224 #
vertex $-1 $81 $225 #
straight-curve $-1 47.534409619434186 0 6.9217612895195932 0 1 0 I I #
face $-1 $226 $227 $19 $-1 $228 reversed single #
loop $-1 $-1 $229 $82 #
plane-surface $-1 -47.534409619434186 0 0 1 0 0 0 0 -1 forward_v I I I I #
coedge $-1 $230 $148 $153 $231 reversed $83 $-1 #
coedge $-1 $232 $85 $233 $234 reversed $53 $-1 #
coedge $-1 $85 $232 $230 $235 forward $53 $-1 #
coedge $-1 $153 $152 $85 $146 forward $154 $-1 #
edge $-1 $236 -17.513425617947284 $237 -12.438551713732103 $145 $238 forward 7 unknown #
coedge $-1 $87 $86 $229 $239 reversed $34 $-1 #
coedge $-1 $142 $240 $86 $149 reversed $83 $-1 #
edge $-1 $155 -47.534409619434186 $241 47.534409619434186 $148 $242 forward 7 unknown #
coedge $-1 $243 $244 $87 $151 forward $227 $-1 #
edge $-1 $156 -47.534409619434186 $245 47.534409619434186 $150 $246 forward 7 unknown #
coedge $-1 $145 $88 $244 $247 forward $154 $-1 #
coedge $-1 $88 $145 $142 $231 forward $154 $-1 #
loop $-1 $-1 $88 $226 #
vertex $-1 $89 $248 #
vertex $-1 $247 $249 #
straight-curve $-1 47.534409619434186 -14.975988665839694 -3.2532935527833486 0 -1 0 I I #
face $-1 $250 $251 $20 $-1 $252 reversed single #
loop $-1 $-1 $96 $90 #
plane-surface $-1 47.534409619434186 0 0 -1 0 0 0 0 1 forward_v I I I I #
coedge $-1 $253 $169 $254 $255 reversed $91 $-1 #
coedge $-1 $256 $93 $253 $257 forward $57 $-1 #
coedge $-1 $93 $256 $258 $259 reversed $57 $-1 #
coedge $-1 $172 $171 $93 $165 forward $159 $-1 #
edge $-1 $260 12.438551713732103 $261 17.513425617947284 $164 $262 forward 7 unknown #
coedge $-1 $95 $94 $263 $264 reversed $37 $-1 #
coedge $-1 $265 $266 $94 $168 forward $267 $-1 #
edge $-1 $268 -47.534409619434186 $173 47.534409619434186 $167 $269 forward 7 unknown #
coedge $-1 $161 $270 $95 $170 reversed $91 $-1 #
edge $-1 $271 -47.534409619434186 $174 47.534409619434186 $169 $272 forward 7 unknown #
coedge $-1 $164 $96 $270 $273 forward $159 $-1 #
coedge $-1 $96 $164 $265 $274 reversed $159 $-1 #
vertex $-1 $274 $275 #
vertex $-1 $97 $276 #
straight-curve $-1 47.534409619434186 14.975988665839694 -3.2532935527833486 0 -1 0 I I #
face $-1 $-1 $277 $21 $-1 $278 forward single #
loop $-1 $-1 $104 $98 #
plane-surface $-1 -47.534409619434186 0 0 1 0 0 0 0 -1 forward_v I I I I #
coedge $-1 $279 $280 $281 $282 reversed $99 $-1 #
coedge $-1 $283 $101 $103 $186 forward $61 $-1 #
coedge $-1 $101 $283 $279 $284 forward $61 $-1 #
coedge $-1 $281 $104 $101 $183 forward $177 $-1 #
edge $-1 $189 4.6596500722011083 $285 16.723143562314167 $182 $286 forward 7 unknown #
coedge $-1 $287 $288 $102 $185 forward $277 $-1 #
edge $-1 $289 -10.775892328117685 $188 -0.71482633833123543 $184 $290 forward 7 unknown #
edge $-1 $189 1.6583994872760861e-014 $289 11.737575651643088 $103 $291 forward 7 unknown #
coedge $-1 $104 $281 $287 $292 reversed $177 $-1 #
vertex $-1 $292 $293 #
vertex $-1 $105 $294 #
straight-curve $-1 -47.534409619434186 -15.351046889458745 41.18317280896197 0 0 -1 I I #
coedge $-1 $191 $191 $-1 $295 reversed $108 $-1 #
edge $-1 $296 0 $296 6.2831853071796004 $109 $297 forward 7 unknown #
vertex $-1 $112 $298 #
ellipse-curve $-1 -42.503876624540958 -23.967827953825214 3.8991120654445179 -0.51503808176128008 0 0.85716729658548041 0.85716729658548041 0 0.51503808176128008 1 I I #
coedge $-1 $195 $195 $-1 $299 reversed $115 $-1 #
edge $-1 $300 0 $300 6.2831853071796004 $116 $301 forward 7 unknown #
vertex $-1 $119 $302 #
ellipse-curve $-1 -42.503876624540958 -18.79775931520533 3.8991120654445179 -0.51503808176128008 0 0.85716729658548041 0.85716729658548041 0 0.51503808176128008 1 I I #
face $-1 $-1 $135 $18 $-1 $303 reversed single #
loop $-1 $-1 $215 $120 #
plane-surface $-1 0 32.489414283786978 0 0 -1 0 0 0 -1 forward_v I I I I #
coedge $-1 $304 $213 $216 $305 forward $121 $-1 #
coedge $-1 $219 $123 $124 $207 reversed $75 $-1 #
coedge $-1 $213 $304 $123 $205 reversed $121 $-1 #
edge $-1 $220 -6.9217612895195932 $306 6.9217612895195932 $204 $307 forward 7 unknown #
coedge $-1 $125 $124 $304 $308 forward $49 $-1 #
edge $-1 $211 -47.534409619434186 $306 47.534409619434186 $203 $309 forward 7 unknown #
coedge $-1 $216 $215 $125 $209 reversed $200 $-1 #
edge $-1 $310 -47.534409619434186 $210 47.534409619434186 $208 $311 forward 7 unknown #
vertex $-1 $127 $312 #
vertex $-1 $222 $313 #
straight-curve $-1 47.534409619434186 0 -6.9217612895195932 0 -1 0 I I #
coedge $-1 $202 $204 $128 $214 reversed $121 $-1 #
edge $-1 $217 -32.489414283786978 $220 32.489414283786978 $213 $314 forward 7 unknown #
coedge $-1 $208 $129 $134 $223 forward $200 $-1 #
coedge $-1 $129 $208 $202 $305 reversed $200 $-1 #
vertex $-1 $130 $315 #
straight-curve $-1 0 32.489414283786978 6.9217612895195932 -1 0 0 I I #
coedge $-1 $131 $203 $133 $222 reversed $75 $-1 #
vertex $-1 $214 $316 #
straight-curve $-1 0 -32.489414283786978 6.9217612895195932 1 0 0 I I #
edge $-1 $136 -6.9217612895195932 $211 6.9217612895195932 $133 $317 forward 7 unknown #
edge $-1 $137 -6.9217612895195932 $210 6.9217612895195932 $134 $318 forward 7 unknown #
point $-1 47.534409619434186 -32.489414283786978 6.9217612895195932 #
point $-1 47.534409619434186 32.489414283786978 6.9217612895195932 #
face $-1 $-1 $154 $19 $-1 $319 reversed single #
loop $-1 $-1 $150 $139 #
plane-surface $-1 0 -32.489414283786978 0 0 1 0 0 0 1 forward_v I I I I #
coedge $-1 $320 $321 $147 $239 forward $140 $-1 #
coedge $-1 $240 $142 $144 $235 reversed $83 $-1 #
edge $-1 $237 -3.8832482676285132 $155 -0.87444627931272789 $153 $322 forward 7 unknown #
coedge $-1 $144 $143 $323 $324 reversed $53 $-1 #
coedge $-1 $244 $243 $143 $234 forward $227 $-1 #
edge $-1 $325 -47.534409619434186 $236 47.534409619434186 $233 $326 forward 7 unknown #
edge $-1 $327 -47.534409619434186 $237 47.534409619434186 $230 $328 forward 7 unknown #
vertex $-1 $234 $329 #
vertex $-1 $146 $330 #
straight-curve $-1 47.534409619434186 -14.975988665839694 -6.2620955410991339 0 1 0 I I #
edge $-1 $245 -17.513425617947284 $241 -12.438551713732103 $229 $331 forward 7 unknown #
coedge $-1 $148 $230 $320 $332 reversed $83 $-1 #
vertex $-1 $239 $333 #
straight-curve $-1 0 -27.414540379571797 -3.2532935527833486 -1 0 0 I I #
coedge $-1 $233 $150 $321 $334 forward $227 $-1 #
coedge $-1 $150 $233 $152 $247 reversed $227 $-1 #
vertex $-1 $334 $335 #
straight-curve $-1 0 -32.489414283786978 -3.2532935527833486 -1 0 0 I I #
edge $-1 $156 3.2532935527833486 $236 6.2620955410991339 $152 $336 forward 7 unknown #
point $-1 47.534409619434186 -27.414540379571797 -3.2532935527833486 #
point $-1 47.534409619434186 -32.489414283786978 -3.2532935527833486 #
face $-1 $-1 $267 $20 $-1 $337 reversed single #
loop $-1 $-1 $263 $158 #
plane-surface $-1 -47.534409619434186 0 0 1 0 0 0 0 -1 forward_v I I I I #
coedge $-1 $270 $161 $162 $257 reversed $91 $-1 #
coedge $-1 $263 $338 $161 $255 forward $251 $-1 #
edge $-1 $339 -3.8832482676285132 $271 -0.87444627931272789 $254 $340 forward 7 unknown #
coedge $-1 $163 $162 $338 $341 reversed $57 $-1 #
edge $-1 $260 -47.534409619434186 $339 47.534409619434186 $253 $342 forward 7 unknown #
coedge $-1 $266 $265 $163 $259 forward $267 $-1 #
edge $-1 $261 -47.534409619434186 $343 47.534409619434186 $258 $344 forward 7 unknown #
vertex $-1 $165 $345 #
vertex $-1 $259 $346 #
straight-curve $-1 47.534409619434186 14.975988665839694 -6.2620955410991339 0 1 0 I I #
coedge $-1 $347 $254 $166 $264 forward $251 $-1 #
edge $-1 $271 12.438551713732103 $268 17.513425617947284 $263 $348 forward 7 unknown #
coedge $-1 $258 $167 $172 $274 forward $267 $-1 #
coedge $-1 $167 $258 $347 $349 reversed $267 $-1 #
loop $-1 $-1 $167 $250 #
vertex $-1 $349 $350 #
straight-curve $-1 0 32.489414283786978 -3.2532935527833486 1 0 0 I I #
coedge $-1 $169 $253 $171 $273 reversed $91 $-1 #
vertex $-1 $264 $351 #
straight-curve $-1 0 27.414540379571797 -3.2532935527833486 1 0 0 I I #
edge $-1 $174 0.87444627931272789 $260 3.8832482676285132 $171 $352 forward 7 unknown #
edge $-1 $173 3.2532935527833486 $261 6.2620955410991339 $172 $353 forward 7 unknown #
point $-1 47.534409619434186 32.489414283786978 -3.2532935527833486 #
point $-1 47.534409619434186 27.414540379571797 -3.2532935527833486 #
loop $-1 $-1 $184 $176 #
plane-surface $-1 0 0 6.9217612895195932 0 0 1 1 0 0 forward_v I I I I #
coedge $-1 $280 $179 $181 $284 reversed $99 $-1 #
coedge $-1 $179 $279 $354 $355 reversed $99 $-1 #
coedge $-1 $187 $182 $179 $282 forward $177 $-1 #
edge $-1 $285 -40.306709967592532 $356 -34.261411519442376 $281 $357 forward 7 unknown #
coedge $-1 $181 $180 $288 $358 reversed $61 $-1 #
edge $-1 $359 -11.737575651643088 $285 -1.6583994872760861e-014 $279 $360 forward 7 unknown #
vertex $-1 $183 $361 #
straight-curve $-1 -47.534409619434186 -10.691396817257637 0.87646284136943786 0 -1 0 I I #
coedge $-1 $354 $184 $187 $292 forward $277 $-1 #
coedge $-1 $184 $354 $283 $358 forward $277 $-1 #
vertex $-1 $185 $362 #
straight-curve $-1 -48.249235957765421 -15.351046889458745 6.9217612895195941 -1 0 0 I I #
straight-curve $-1 -47.5344096194342 -15.351046889458745 0.87646284136943109 0.85716729658548041 0 0.51503808176128008 I I #
edge $-1 $188 15.351046889458745 $356 27.414540379571804 $187 $363 forward 7 unknown #
point $-1 -47.534409619434186 -15.351046889458745 6.9217612895195932 #
point $-1 -47.534409619434186 -15.351046889458745 0.87646284136943964 #
edge $-1 $364 1 $364 0 $191 $-1 forward 7 unknown #
vertex $-1 $192 $365 #
ellipse-curve $-1 -41.035891560054942 -23.967827953825214 1.4559746864563703 -0.51503808176128008 0 0.85716729658548041 0.85716729658548041 0 0.51503808176128008 1 I I #
point $-1 -41.64670932795547 -23.967827953825214 4.41415014720579 #
edge $-1 $366 1 $366 0 $195 $-1 forward 7 unknown #
vertex $-1 $196 $367 #
ellipse-curve $-1 -41.035891560054942 -18.79775931520533 1.4559746864563703 -0.51503808176128008 0 0.85716729658548041 0.85716729658548041 0 0.51503808176128008 1 I I #
point $-1 -41.64670932795547 -18.79775931520533 4.41415014720579 #
plane-surface $-1 47.534409619434186 0 0 -1 0 0 0 0 1 forward_v I I I I #
coedge $-1 $204 $202 $206 $308 reversed $121 $-1 #
edge $-1 $217 -6.9217612895195932 $310 6.9217612895195932 $216 $368 forward 7 unknown #
vertex $-1 $308 $369 #
straight-curve $-1 -47.534409619434186 -32.489414283786978 0 0 0 -1 I I #
edge $-1 $306 -32.489414283786978 $310 32.489414283786978 $304 $370 forward 7 unknown #
straight-curve $-1 0 -32.489414283786978 -6.9217612895195932 -1 0 0 I I #
vertex $-1 $209 $371 #
straight-curve $-1 0 32.489414283786978 -6.9217612895195932 1 0 0 I I #
point $-1 47.534409619434186 32.489414283786978 -6.9217612895195932 #
point $-1 47.534409619434186 -32.489414283786978 -6.9217612895195932 #
straight-curve $-1 -47.534409619434186 0 6.9217612895195932 0 -1 0 I I #
point $-1 -47.534409619434186 32.489414283786978 6.9217612895195932 #
point $-1 -47.534409619434186 -32.489414283786978 6.9217612895195932 #
straight-curve $-1 47.534409619434186 -32.489414283786978 0 0 0 -1 I I #
straight-curve $-1 47.534409619434186 32.489414283786978 0 0 0 -1 I I #
plane-surface $-1 47.534409619434186 0 0 -1 0 0 0 0 1 forward_v I I I I #
coedge $-1 $323 $229 $240 $332 forward $140 $-1 #
coedge $-1 $229 $323 $243 $334 reversed $140 $-1 #
straight-curve $-1 47.534409619434186 -27.414540379571797 -2.3788472734706207 0 0 1 I I #
coedge $-1 $321 $320 $232 $324 forward $140 $-1 #
edge $-1 $327 12.438551713732103 $325 17.513425617947284 $323 $372 forward 7 unknown #
vertex $-1 $234 $373 #
straight-curve $-1 0 -32.489414283786978 -6.2620955410991339 1 0 0 I I #
vertex $-1 $324 $374 #
straight-curve $-1 0 -27.414540379571797 -6.2620955410991339 1 0 0 I I #
point $-1 47.534409619434186 -32.489414283786978 -6.2620955410991339 #
point $-1 47.534409619434186 -27.414540379571797 -6.2620955410991339 #
straight-curve $-1 -47.534409619434186 -14.975988665839694 -3.2532935527833486 0 1 0 I I #
edge $-1 $241 0.87444627931272789 $327 3.8832482676285132 $320 $375 forward 7 unknown #
point $-1 -47.534409619434186 -27.414540379571797 -3.2532935527833486 #
edge $-1 $245 3.2532935527833486 $325 6.2620955410991339 $321 $376 forward 7 unknown #
point $-1 -47.534409619434186 -32.489414283786978 -3.2532935527833486 #
straight-curve $-1 47.534409619434186 -32.489414283786978 0 0 0 -1 I I #
plane-surface $-1 0 32.489414283786978 0 0 -1 0 0 0 -1 forward_v I I I I #
coedge $-1 $254 $347 $256 $341 forward $251 $-1 #
vertex $-1 $341 $377 #
straight-curve $-1 -47.534409619434186 27.414540379571797 -2.3788472734706207 0 0 1 I I #
edge $-1 $343 -17.513425617947284 $339 -12.438551713732103 $338 $378 forward 7 unknown #
straight-curve $-1 0 27.414540379571797 -6.2620955410991339 -1 0 0 I I #
vertex $-1 $259 $379 #
straight-curve $-1 0 32.489414283786978 -6.2620955410991339 -1 0 0 I I #
point $-1 47.534409619434186 27.414540379571797 -6.2620955410991339 #
point $-1 47.534409619434186 32.489414283786978 -6.2620955410991339 #
coedge $-1 $338 $263 $266 $349 forward $251 $-1 #
straight-curve $-1 -47.534409619434186 14.975988665839694 -3.2532935527833486 0 1 0 I I #
edge $-1 $268 3.2532935527833486 $343 6.2620955410991339 $266 $380 forward 7 unknown #
point $-1 -47.534409619434186 32.489414283786978 -3.2532935527833486 #
point $-1 -47.534409619434186 27.414540379571797 -3.2532935527833486 #
straight-curve $-1 47.534409619434186 27.414540379571797 -2.3788472734706207 0 0 -1 I I #
straight-curve $-1 47.534409619434186 32.489414283786978 0 0 0 -1 I I #
coedge $-1 $288 $287 $280 $355 forward $277 $-1 #
edge $-1 $356 0.71482633833123543 $359 10.775892328117685 $354 $381 forward 7 unknown #
vertex $-1 $355 $382 #
straight-curve $-1 -47.534409619434186 -27.414540379571804 41.18317280896197 0 0 1 I I #
edge $-1 $359 -16.723143562314167 $289 -4.6596500722011083 $288 $383 forward 7 unknown #
vertex $-1 $358 $384 #
straight-curve $-1 -47.5344096194342 -27.414540379571804 0.87646284136943109 -0.85716729658548041 0 -0.51503808176128008 I I #
point $-1 -47.534409619434186 -27.414540379571804 0.87646284136943964 #
point $-1 -37.473343629647736 -15.351046889458745 6.9217612895195932 #
straight-curve $-1 -47.534409619434186 0 6.9217612895195932 0 -1 0 I I #
vertex $-1 $295 $385 #
point $-1 -40.178724263469462 -23.967827953825214 1.9710127682176504 #
vertex $-1 $299 $386 #
point $-1 -40.178724263469462 -18.79775931520533 1.9710127682176504 #
straight-curve $-1 -47.534409619434186 32.489414283786978 0 0 0 -1 I I #
point $-1 -47.534409619434186 -32.489414283786978 -6.9217612895195932 #
straight-curve $-1 -47.534409619434186 0 -6.9217612895195932 0 1 0 I I #
point $-1 -47.534409619434186 32.489414283786978 -6.9217612895195932 #
straight-curve $-1 -47.534409619434186 -14.975988665839694 -6.2620955410991339 0 -1 0 I I #
point $-1 -47.534409619434186 -32.489414283786978 -6.2620955410991339 #
point $-1 -47.534409619434186 -27.414540379571797 -6.2620955410991339 #
straight-curve $-1 -47.534409619434186 -27.414540379571797 -2.3788472734706207 0 0 -1 I I #
straight-curve $-1 -47.534409619434186 -32.489414283786978 0 0 0 -1 I I #
point $-1 -47.534409619434186 27.414540379571797 -6.2620955410991339 #
straight-curve $-1 -47.534409619434186 14.975988665839694 -6.2620955410991339 0 -1 0 I I #
point $-1 -47.534409619434186 32.489414283786978 -6.2620955410991339 #
straight-curve $-1 -47.534409619434186 32.489414283786978 0 0 0 -1 I I #
straight-curve $-1 -48.249235957765421 -27.414540379571804 6.9217612895195941 1 0 0 I I #
point $-1 -47.534409619434186 -27.414540379571804 6.9217612895195932 #
straight-curve $-1 -37.473343629647736 -10.691396817257637 6.9217612895195932 0 1 0 I I #
point $-1 -37.473343629647736 -27.414540379571804 6.9217612895195932 #
point $-1 -40.520853478293667 -23.967827953825214 0.59880738987088999 #
point $-1 -40.520853478293667 -18.79775931520533 0.59880738987088999 #
End-of-ACIS-data 