500 0 20 0           
7 Unknown 11 ACIS 5.0 NT 24 Thu Mar 25 16:27:22 1999 
-1 9.9999999999999995e-007 1e-010 
body $-1 $20 $-1 $21 #
body $-1 $22 $-1 $23 #
body $-1 $24 $-1 $25 #
body $-1 $26 $-1 $27 #
body $-1 $28 $-1 $29 #
body $-1 $30 $-1 $31 #
body $-1 $32 $-1 $33 #
body $-1 $34 $-1 $35 #
body $-1 $36 $-1 $37 #
body $-1 $38 $-1 $39 #
body $-1 $40 $-1 $41 #
body $-1 $42 $-1 $43 #
body $-1 $44 $-1 $45 #
body $-1 $46 $-1 $47 #
body $-1 $48 $-1 $49 #
body $-1 $50 $-1 $51 #
body $-1 $52 $-1 $53 #
body $-1 $54 $-1 $55 #
body $-1 $56 $-1 $57 #
body $-1 $58 $-1 $59 #
lump $-1 $-1 $60 $0 #
transform $-1 1 0 0 0 1 0 0 0 1 54.99679555650502 22.849677277356733 11.395968841648349 1 rotate no_reflect no_shear #
lump $-1 $-1 $61 $1 #
transform $-1 1 0 0 0 1 0 0 0 1 54.99679555650502 22.849677277356733 11.395968841648349 1 rotate no_reflect no_shear #
lump $-1 $-1 $62 $2 #
transform $-1 1 0 0 0 1 0 0 0 1 54.99679555650502 22.849677277356733 11.395968841648349 1 rotate no_reflect no_shear #
lump $-1 $-1 $63 $3 #
transform $-1 1 0 0 0 1 0 0 0 1 54.99679555650502 22.849677277356733 11.395968841648349 1 rotate no_reflect no_shear #
lump $-1 $-1 $64 $4 #
transform $-1 1 0 0 0 1 0 0 0 1 54.99679555650502 22.849677277356733 11.395968841648349 1 rotate no_reflect no_shear #
lump $-1 $-1 $65 $5 #
transform $-1 1 0 0 0 1 0 0 0 1 54.99679555650502 22.849677277356733 11.395968841648349 1 rotate no_reflect no_shear #
lump $-1 $-1 $66 $6 #
transform $-1 1 0 0 0 1 0 0 0 1 54.99679555650502 22.849677277356733 11.395968841648349 1 rotate no_reflect no_shear #
lump $-1 $-1 $67 $7 #
transform $-1 1 0 0 0 1 0 0 0 1 54.99679555650502 22.849677277356733 11.395968841648349 1 rotate no_reflect no_shear #
lump $-1 $-1 $68 $8 #
transform $-1 1 0 0 0 1 0 0 0 1 54.99679555650502 22.849677277356733 11.395968841648349 1 rotate no_reflect no_shear #
lump $-1 $-1 $69 $9 #
transform $-1 1 0 0 0 1 0 0 0 1 54.99679555650502 22.849677277356733 11.395968841648349 1 rotate no_reflect no_shear #
lump $-1 $-1 $70 $10 #
transform $-1 1 0 0 0 1 0 0 0 1 54.99679555650502 22.849677277356733 11.395968841648349 1 rotate no_reflect no_shear #
lump $-1 $-1 $71 $11 #
transform $-1 1 0 0 0 1 0 0 0 1 54.99679555650502 22.849677277356733 11.395968841648349 1 rotate no_reflect no_shear #
lump $-1 $-1 $72 $12 #
transform $-1 1 0 0 0 1 0 0 0 1 54.99679555650502 22.849677277356733 11.395968841648349 1 rotate no_reflect no_shear #
lump $-1 $-1 $73 $13 #
transform $-1 1 0 0 0 1 0 0 0 1 54.99679555650502 22.849677277356733 11.395968841648349 1 rotate no_reflect no_shear #
lump $-1 $-1 $74 $14 #
transform $-1 1 0 0 0 1 0 0 0 1 54.99679555650502 22.849677277356733 11.395968841648349 1 rotate no_reflect no_shear #
lump $-1 $-1 $75 $15 #
transform $-1 1 0 0 0 1 0 0 0 1 54.99679555650502 22.849677277356733 11.395968841648349 1 rotate no_reflect no_shear #
lump $-1 $-1 $76 $16 #
transform $-1 1 0 0 0 1 0 0 0 1 54.99679555650502 22.849677277356733 11.395968841648349 1 rotate no_reflect no_shear #
lump $-1 $-1 $77 $17 #
transform $-1 1 0 0 0 1 0 0 0 1 54.99679555650502 22.849677277356733 11.395968841648349 1 rotate no_reflect no_shear #
lump $-1 $-1 $78 $18 #
transform $-1 1 0 0 0 1 0 0 0 1 54.99679555650502 22.849677277356733 11.395968841648349 1 rotate no_reflect no_shear #
lump $-1 $-1 $79 $19 #
transform $-1 1 0 0 0 1 0 0 0 1 54.99679555650502 22.849677277356733 11.395968841648349 1 rotate no_reflect no_shear #
shell $-1 $-1 $-1 $80 $-1 $20 #
shell $-1 $-1 $-1 $81 $-1 $22 #
shell $-1 $-1 $-1 $82 $-1 $24 #
shell $-1 $-1 $-1 $83 $-1 $26 #
shell $-1 $-1 $-1 $84 $-1 $28 #
shell $-1 $-1 $-1 $85 $-1 $30 #
shell $-1 $-1 $-1 $86 $-1 $32 #
shell $-1 $-1 $-1 $87 $-1 $34 #
shell $-1 $-1 $-1 $88 $-1 $36 #
shell $-1 $-1 $-1 $89 $-1 $38 #
shell $-1 $-1 $-1 $90 $-1 $40 #
shell $-1 $-1 $-1 $91 $-1 $42 #
shell $-1 $-1 $-1 $92 $-1 $44 #
shell $-1 $-1 $-1 $93 $-1 $46 #
shell $-1 $-1 $-1 $94 $-1 $48 #
shell $-1 $-1 $-1 $95 $-1 $50 #
shell $-1 $-1 $-1 $96 $-1 $52 #
shell $-1 $-1 $-1 $97 $-1 $54 #
shell $-1 $-1 $-1 $98 $-1 $56 #
shell $-1 $-1 $-1 $99 $-1 $58 #
face $-1 $100 $101 $60 $-1 $102 forward single #
face $-1 $103 $104 $61 $-1 $105 forward single #
face $-1 $106 $107 $62 $-1 $108 reversed single #
face $-1 $109 $110 $63 $-1 $111 forward single #
face $-1 $112 $113 $64 $-1 $114 forward single #
face $-1 $115 $116 $65 $-1 $117 reversed single #
face $-1 $118 $119 $66 $-1 $120 forward single #
face $-1 $121 $122 $67 $-1 $123 forward single #
face $-1 $124 $125 $68 $-1 $126 reversed single #
face $-1 $127 $128 $69 $-1 $129 forward single #
face $-1 $130 $131 $70 $-1 $132 forward single #
face $-1 $133 $134 $71 $-1 $135 forward single #
face $-1 $136 $137 $72 $-1 $138 reversed single #
face $-1 $139 $140 $73 $-1 $141 forward single #
face $-1 $142 $143 $74 $-1 $144 forward single #
face $-1 $145 $146 $75 $-1 $147 forward single #
face $-1 $148 $149 $76 $-1 $150 reversed single #
face $-1 $151 $152 $77 $-1 $153 forward single #
face $-1 $154 $155 $78 $-1 $156 forward single #
face $-1 $157 $158 $79 $-1 $159 forward single #
face $-1 $160 $161 $60 $-1 $162 reversed single #
loop $-1 $-1 $163 $80 #
plane-surface $-1 0 0 11.395968841648349 0 0 1 1 0 0 forward_v I I I I #
face $-1 $164 $165 $61 $-1 $166 forward single #
loop $-1 $-1 $167 $81 #
plane-surface $-1 0 -22.849677277356733 0 0 1 0 0 0 1 forward_v I I I I #
face $-1 $168 $169 $62 $-1 $170 reversed single #
loop $-1 $-1 $171 $82 #
plane-surface $-1 71.256662938181478 -3.2223452429558277 158.40689350741829 0 -1 0 -0.77714596973225614 0 -0.62932038083071107 forward_v I I I I #
face $-1 $172 $173 $63 $-1 $174 forward single #
loop $-1 $175 $176 $83 #
cone-surface $-1 51.230546850205648 -7.6247950692888455 7.0222460723580609 -0.77714596973225614 0 -0.62932038083071107 0.31466019041535553 0 -0.38857298486612807 1 I I 0 1 0.5 forward I I I I #
face $-1 $177 $178 $64 $-1 $179 forward single #
loop $-1 $180 $181 $84 #
cone-surface $-1 51.230546850205648 -4.9833251734890354 7.0222460723580609 -0.77714596973225614 0 -0.62932038083071107 0.31466019041535553 0 -0.38857298486612807 1 I I 0 1 0.5 forward I I I I #
face $-1 $182 $183 $65 $-1 $184 reversed single #
loop $-1 $-1 $185 $85 #
plane-surface $-1 71.256662938181478 16.686247520490518 158.40689350741829 0 1 0 0.77714596973225614 0 0.62932038083071107 forward_v I I I I #
face $-1 $186 $187 $66 $-1 $188 forward single #
loop $-1 $189 $190 $86 #
cone-surface $-1 51.230546850205648 18.447227451023721 7.0222460723580609 -0.77714596973225614 0 -0.62932038083071107 0.31466019041535553 0 -0.38857298486612807 1 I I 0 1 0.5 forward I I I I #
face $-1 $191 $192 $67 $-1 $193 forward single #
loop $-1 $194 $195 $87 #
cone-surface $-1 51.230546850205648 21.088697346823537 7.0222460723580609 -0.77714596973225614 0 -0.62932038083071107 0.31466019041535553 0 -0.38857298486612807 1 I I 0 1 0.5 forward I I I I #
face $-1 $196 $197 $68 $-1 $198 reversed single #
loop $-1 $-1 $199 $88 #
plane-surface $-1 -135.44101648044415 -7.2049110670956633 76.658922745767924 0 1 0 -0.73135370988377701 0 0.68199835119979291 forward_v I I I I #
face $-1 $200 $201 $69 $-1 $202 forward single #
loop $-1 $203 $204 $89 #
cone-surface $-1 -50.070240605296789 -5.9103862816375141 6.1659431933894933 0.73135370988377701 0 -0.68199835119979291 0.34099917559989645 0 0.36567685494188851 1 I I 0 1 0.5 forward I I I I #
face $-1 $205 $206 $70 $-1 $207 forward single #
loop $-1 $208 $209 $90 #
cone-surface $-1 -50.070240605296789 -3.9685991034502948 6.1659431933894933 0.73135370988377701 0 -0.68199835119979291 0.34099917559989645 0 0.36567685494188851 1 I I 0 1 0.5 forward I I I I #
face $-1 $210 $211 $71 $-1 $212 forward single #
loop $-1 $213 $214 $91 #
cone-surface $-1 -50.070240605296789 -2.0268119252630754 6.1659431933894933 0.73135370988377701 0 -0.68199835119979291 0.34099917559989645 0 0.36567685494188851 1 I I 0 1 0.5 forward I I I I #
face $-1 $215 $216 $72 $-1 $217 reversed single #
loop $-1 $-1 $218 $92 #
plane-surface $-1 -135.44101648044415 3.4956391751219709 76.658922745767924 0 1 0 -0.73135370988377701 0 0.68199835119979291 forward_v I I I I #
face $-1 $219 $220 $73 $-1 $221 forward single #
loop $-1 $222 $223 $93 #
cone-surface $-1 -50.070240605296789 4.7901639605801201 6.1659431933894933 0.73135370988377701 0 -0.68199835119979291 0.34099917559989645 0 0.36567685494188851 1 I I 0 1 0.5 forward I I I I #
face $-1 $224 $225 $74 $-1 $226 forward single #
loop $-1 $227 $228 $94 #
cone-surface $-1 -50.070240605296789 6.7319511387673394 6.1659431933894933 0.73135370988377701 0 -0.68199835119979291 0.34099917559989645 0 0.36567685494188851 1 I I 0 1 0.5 forward I I I I #
face $-1 $229 $230 $75 $-1 $231 forward single #
loop $-1 $232 $233 $95 #
cone-surface $-1 -50.070240605296789 8.6737383169545588 6.1659431933894933 0.73135370988377701 0 -0.68199835119979291 0.34099917559989645 0 0.36567685494188851 1 I I 0 1 0.5 forward I I I I #
face $-1 $234 $235 $76 $-1 $236 reversed single #
loop $-1 $-1 $237 $96 #
plane-surface $-1 -135.44101648044415 14.196189417339605 76.658922745767924 0 1 0 -0.73135370988377701 0 0.68199835119979291 forward_v I I I I #
face $-1 $238 $239 $77 $-1 $240 forward single #
loop $-1 $241 $242 $97 #
cone-surface $-1 -50.070240605296789 15.490714202797754 6.1659431933894933 0.73135370988377701 0 -0.68199835119979291 0.34099917559989645 0 0.36567685494188851 1 I I 0 1 0.5 forward I I I I #
face $-1 $243 $244 $78 $-1 $245 forward single #
loop $-1 $246 $247 $98 #
cone-surface $-1 -50.070240605296789 17.432501380984974 6.1659431933894933 0.73135370988377701 0 -0.68199835119979291 0.34099917559989645 0 0.36567685494188851 1 I I 0 1 0.5 forward I I I I #
face $-1 $248 $249 $79 $-1 $250 forward single #
loop $-1 $251 $252 $99 #
cone-surface $-1 -50.070240605296789 19.374288559172193 6.1659431933894933 0.73135370988377701 0 -0.68199835119979291 0.34099917559989645 0 0.36567685494188851 1 I I 0 1 0.5 forward I I I I #
face $-1 $253 $254 $60 $-1 $255 reversed single #
loop $-1 $-1 $256 $100 #
plane-surface $-1 0 0 -11.395968841648349 0 0 1 1 0 0 forward_v I I I I #
coedge $-1 $257 $258 $259 $260 forward $101 $-1 #
face $-1 $261 $262 $61 $-1 $263 reversed single #
loop $-1 $-1 $264 $103 #
plane-surface $-1 0 0 11.395968841648349 0 0 1 1 0 0 forward_v I I I I #
coedge $-1 $265 $266 $267 $268 forward $104 $-1 #
face $-1 $269 $270 $62 $-1 $271 reversed single #
loop $-1 $-1 $272 $106 #
plane-surface $-1 -14.224413091671977 -6.3040601213889396 89.185684859241292 0.77714596973225614 0 0.62932038083071107 0.62932038083071107 0 -0.77714596973225614 forward_v I I I I #
coedge $-1 $273 $274 $275 $276 reversed $107 $-1 #
face $-1 $-1 $277 $63 $-1 $278 forward single #
loop $-1 $279 $280 $109 #
cone-surface $-1 50.384181833485158 -7.6247950692888455 6.3368732139903639 -0.77714596973225614 0 -0.62932038083071107 0.15733009520767777 0 -0.19428649243306403 1 I I -0.70710678118654746 0.70710678118654746 0.25 forward I I I I #
loop $-1 $-1 $281 $83 #
coedge $-1 $176 $176 $282 $283 reversed $110 $-1 #
face $-1 $-1 $284 $64 $-1 $285 forward single #
loop $-1 $286 $287 $112 #
cone-surface $-1 50.384181833485158 -4.9833251734890354 6.3368732139903639 -0.77714596973225614 0 -0.62932038083071107 0.15733009520767777 0 -0.19428649243306403 1 I I -0.70710678118654746 0.70710678118654746 0.25 forward I I I I #
loop $-1 $-1 $288 $84 #
coedge $-1 $181 $181 $289 $290 reversed $113 $-1 #
face $-1 $291 $292 $65 $-1 $293 reversed single #
loop $-1 $-1 $294 $115 #
plane-surface $-1 -14.224413091671977 19.767962398923629 89.185684859241292 0.77714596973225614 0 0.62932038083071107 0.62932038083071107 0 -0.77714596973225614 forward_v I I I I #
coedge $-1 $295 $296 $297 $298 reversed $116 $-1 #
face $-1 $-1 $299 $66 $-1 $300 forward single #
loop $-1 $301 $302 $118 #
cone-surface $-1 50.384181833485158 18.447227451023721 6.3368732139903639 -0.77714596973225614 0 -0.62932038083071107 0.15733009520767777 0 -0.19428649243306403 1 I I -0.70710678118654746 0.70710678118654746 0.25 forward I I I I #
loop $-1 $-1 $303 $86 #
coedge $-1 $190 $190 $304 $305 reversed $119 $-1 #
face $-1 $-1 $306 $67 $-1 $307 forward single #
loop $-1 $308 $309 $121 #
cone-surface $-1 50.384181833485158 21.088697346823537 6.3368732139903639 -0.77714596973225614 0 -0.62932038083071107 0.15733009520767777 0 -0.19428649243306403 1 I I -0.70710678118654746 0.70710678118654746 0.25 forward I I I I #
loop $-1 $-1 $310 $87 #
coedge $-1 $195 $195 $311 $312 reversed $122 $-1 #
face $-1 $313 $314 $68 $-1 $315 reversed single #
loop $-1 $-1 $316 $124 #
plane-surface $-1 -54.996795556505006 -3.9685991034502948 1.643474964150883 -0.73135370988377701 0 0.68199835119979291 0.68199835119979291 0 0.73135370988377701 forward_v I I I I #
coedge $-1 $317 $318 $319 $320 reversed $125 $-1 #
face $-1 $-1 $321 $69 $-1 $322 forward single #
loop $-1 $323 $324 $127 #
cone-surface $-1 -49.508020950256963 -5.9103862816375141 5.6416648960794138 0.73135370988377701 0 -0.68199835119979291 0.17049958779994823 0 0.18283842747094425 1 I I -0.70710678118654746 0.70710678118654746 0.25 forward I I I I #
loop $-1 $-1 $325 $89 #
coedge $-1 $204 $204 $326 $327 reversed $128 $-1 #
face $-1 $-1 $328 $70 $-1 $329 forward single #
loop $-1 $330 $331 $130 #
cone-surface $-1 -49.508020950256963 -3.9685991034502948 5.6416648960794138 0.73135370988377701 0 -0.68199835119979291 0.17049958779994823 0 0.18283842747094425 1 I I -0.70710678118654746 0.70710678118654746 0.25 forward I I I I #
loop $-1 $-1 $332 $90 #
coedge $-1 $209 $209 $333 $334 reversed $131 $-1 #
face $-1 $-1 $335 $71 $-1 $336 forward single #
loop $-1 $337 $338 $133 #
cone-surface $-1 -49.508020950256963 -2.0268119252630754 5.6416648960794138 0.73135370988377701 0 -0.68199835119979291 0.17049958779994823 0 0.18283842747094425 1 I I -0.70710678118654746 0.70710678118654746 0.25 forward I I I I #
loop $-1 $-1 $339 $91 #
coedge $-1 $214 $214 $340 $341 reversed $134 $-1 #
face $-1 $342 $343 $72 $-1 $344 reversed single #
loop $-1 $-1 $345 $136 #
plane-surface $-1 -54.996795556505006 6.7319511387673394 1.643474964150883 -0.73135370988377701 0 0.68199835119979291 0.68199835119979291 0 0.73135370988377701 forward_v I I I I #
coedge $-1 $346 $347 $348 $349 reversed $137 $-1 #
face $-1 $-1 $350 $73 $-1 $351 forward single #
loop $-1 $352 $353 $139 #
cone-surface $-1 -49.508020950256963 4.7901639605801201 5.6416648960794138 0.73135370988377701 0 -0.68199835119979291 0.17049958779994823 0 0.18283842747094425 1 I I -0.70710678118654746 0.70710678118654746 0.25 forward I I I I #
loop $-1 $-1 $354 $93 #
coedge $-1 $223 $223 $355 $356 reversed $140 $-1 #
face $-1 $-1 $357 $74 $-1 $358 forward single #
loop $-1 $359 $360 $142 #
cone-surface $-1 -49.508020950256963 6.7319511387673394 5.6416648960794138 0.73135370988377701 0 -0.68199835119979291 0.17049958779994823 0 0.18283842747094425 1 I I -0.70710678118654746 0.70710678118654746 0.25 forward I I I I #
loop $-1 $-1 $361 $94 #
coedge $-1 $228 $228 $362 $363 reversed $143 $-1 #
face $-1 $-1 $364 $75 $-1 $365 forward single #
loop $-1 $366 $367 $145 #
cone-surface $-1 -49.508020950256963 8.6737383169545588 5.6416648960794138 0.73135370988377701 0 -0.68199835119979291 0.17049958779994823 0 0.18283842747094425 1 I I -0.70710678118654746 0.70710678118654746 0.25 forward I I I I #
loop $-1 $-1 $368 $95 #
coedge $-1 $233 $233 $369 $370 reversed $146 $-1 #
face $-1 $371 $372 $76 $-1 $373 reversed single #
loop $-1 $-1 $374 $148 #
plane-surface $-1 -54.996795556505006 17.432501380984974 1.643474964150883 -0.73135370988377701 0 0.68199835119979291 0.68199835119979291 0 0.73135370988377701 forward_v I I I I #
coedge $-1 $375 $376 $377 $378 reversed $149 $-1 #
face $-1 $-1 $379 $77 $-1 $380 forward single #
loop $-1 $381 $382 $151 #
cone-surface $-1 -49.508020950256963 15.490714202797754 5.6416648960794138 0.73135370988377701 0 -0.68199835119979291 0.17049958779994823 0 0.18283842747094425 1 I I -0.70710678118654746 0.70710678118654746 0.25 forward I I I I #
loop $-1 $-1 $383 $97 #
coedge $-1 $242 $242 $384 $385 reversed $152 $-1 #
face $-1 $-1 $386 $78 $-1 $387 forward single #
loop $-1 $388 $389 $154 #
cone-surface $-1 -49.508020950256963 17.432501380984974 5.6416648960794138 0.73135370988377701 0 -0.68199835119979291 0.17049958779994823 0 0.18283842747094425 1 I I -0.70710678118654746 0.70710678118654746 0.25 forward I I I I #
loop $-1 $-1 $390 $98 #
coedge $-1 $247 $247 $391 $392 reversed $155 $-1 #
face $-1 $-1 $393 $79 $-1 $394 forward single #
loop $-1 $395 $396 $157 #
cone-surface $-1 -49.508020950256963 19.374288559172193 5.6416648960794138 0.73135370988377701 0 -0.68199835119979291 0.17049958779994823 0 0.18283842747094425 1 I I -0.70710678118654746 0.70710678118654746 0.25 forward I I I I #
loop $-1 $-1 $397 $99 #
coedge $-1 $252 $252 $398 $399 reversed $158 $-1 #
face $-1 $400 $401 $60 $-1 $402 reversed single #
loop $-1 $-1 $403 $160 #
plane-surface $-1 0 -22.849677277356733 0 0 1 0 0 0 1 forward_v I I I I #
coedge $-1 $404 $405 $406 $407 forward $161 $-1 #
coedge $-1 $408 $163 $409 $410 forward $101 $-1 #
coedge $-1 $163 $408 $411 $412 forward $101 $-1 #
coedge $-1 $413 $414 $163 $260 reversed $415 $-1 #
edge $-1 $416 -22.849677277356733 $417 22.849677277356733 $259 $418 forward 7 unknown #
face $-1 $419 $420 $61 $-1 $421 reversed single #
loop $-1 $-1 $422 $164 #
plane-surface $-1 -54.99679555650502 0 0 1 0 0 0 0 -1 forward_v I I I I #
coedge $-1 $423 $424 $425 $426 forward $165 $-1 #
coedge $-1 $425 $167 $422 $427 reversed $104 $-1 #
coedge $-1 $167 $425 $428 $429 reversed $104 $-1 #
coedge $-1 $430 $431 $167 $268 reversed $420 $-1 #
edge $-1 $432 -54.99679555650502 $433 54.99679555650502 $267 $434 forward 7 unknown #
face $-1 $435 $436 $62 $-1 $437 reversed single #
loop $-1 $-1 $438 $168 #
plane-surface $-1 71.256662938181478 -9.3857749998220505 158.40689350741829 0 1 0 0.77714596973225614 0 0.62932038083071107 forward_v I I I I #
coedge $-1 $439 $440 $441 $442 reversed $169 $-1 #
coedge $-1 $274 $171 $443 $444 reversed $107 $-1 #
coedge $-1 $171 $273 $439 $445 reversed $107 $-1 #
coedge $-1 $441 $446 $171 $276 forward $447 $-1 #
edge $-1 $448 -19.368464087414281 $449 -13.140123723390396 $275 $450 forward 7 unknown #
loop $-1 $-1 $282 $172 #
plane-surface $-1 -14.224413091671977 -6.3040601213889396 89.185684859241292 0.77714596973225614 0 0.62932038083071107 0.62932038083071107 0 -0.77714596973225614 forward_v I I I I #
loop $-1 $-1 $451 $109 #
coedge $-1 $280 $280 $281 $452 reversed $173 $-1 #
coedge $-1 $281 $281 $280 $452 forward $175 $-1 #
coedge $-1 $282 $282 $176 $283 forward $277 $-1 #
edge $-1 $453 0 $453 6.2831853071796004 $282 $454 forward 7 unknown #
loop $-1 $-1 $289 $177 #
plane-surface $-1 -14.224413091671977 -6.3040601213889396 89.185684859241292 0.77714596973225614 0 0.62932038083071107 0.62932038083071107 0 -0.77714596973225614 forward_v I I I I #
loop $-1 $-1 $455 $112 #
coedge $-1 $287 $287 $288 $456 reversed $178 $-1 #
coedge $-1 $288 $288 $287 $456 forward $180 $-1 #
coedge $-1 $289 $289 $181 $290 forward $284 $-1 #
edge $-1 $457 0 $457 6.2831853071796004 $289 $458 forward 7 unknown #
face $-1 $459 $460 $65 $-1 $461 forward single #
loop $-1 $-1 $297 $182 #
plane-surface $-1 54.99679555650502 0 0 -1 0 0 0 0 1 forward_v I I I I #
coedge $-1 $462 $463 $464 $465 reversed $183 $-1 #
coedge $-1 $296 $185 $466 $467 reversed $116 $-1 #
coedge $-1 $185 $295 $462 $468 reversed $116 $-1 #
coedge $-1 $464 $469 $185 $298 forward $292 $-1 #
edge $-1 $470 67.80747791206079 $471 75.498837924321307 $297 $472 forward 7 unknown #
loop $-1 $-1 $304 $186 #
plane-surface $-1 -14.224413091671977 19.767962398923629 89.185684859241292 0.77714596973225614 0 0.62932038083071107 0.62932038083071107 0 -0.77714596973225614 forward_v I I I I #
loop $-1 $-1 $473 $118 #
coedge $-1 $302 $302 $303 $474 reversed $187 $-1 #
coedge $-1 $303 $303 $302 $474 forward $189 $-1 #
coedge $-1 $304 $304 $190 $305 forward $299 $-1 #
edge $-1 $475 0 $475 6.2831853071796004 $304 $476 forward 7 unknown #
loop $-1 $-1 $311 $191 #
plane-surface $-1 -14.224413091671977 19.767962398923629 89.185684859241292 0.77714596973225614 0 0.62932038083071107 0.62932038083071107 0 -0.77714596973225614 forward_v I I I I #
loop $-1 $-1 $477 $121 #
coedge $-1 $309 $309 $310 $478 reversed $192 $-1 #
coedge $-1 $310 $310 $309 $478 forward $194 $-1 #
coedge $-1 $311 $311 $195 $312 forward $306 $-1 #
edge $-1 $479 0 $479 6.2831853071796004 $311 $480 forward 7 unknown #
face $-1 $481 $482 $68 $-1 $483 forward single #
loop $-1 $-1 $484 $196 #
plane-surface $-1 -135.44101648044415 -0.73228713980492621 76.658922745767924 0 -1 0 0.73135370988377701 0 -0.68199835119979291 forward_v I I I I #
coedge $-1 $485 $486 $487 $488 reversed $197 $-1 #
coedge $-1 $318 $199 $489 $490 reversed $125 $-1 #
coedge $-1 $199 $317 $485 $491 reversed $125 $-1 #
coedge $-1 $487 $492 $199 $320 forward $482 $-1 #
edge $-1 $493 12.723712683717054 $494 21.818060130995789 $319 $495 forward 7 unknown #
loop $-1 $-1 $326 $200 #
plane-surface $-1 -54.996795556505006 -3.9685991034502948 1.643474964150883 -0.73135370988377701 0 0.68199835119979291 0.68199835119979291 0 0.73135370988377701 forward_v I I I I #
loop $-1 $-1 $496 $127 #
coedge $-1 $324 $324 $325 $497 reversed $201 $-1 #
coedge $-1 $325 $325 $324 $497 forward $203 $-1 #
coedge $-1 $326 $326 $204 $327 forward $321 $-1 #
edge $-1 $498 0 $498 6.2831853071796004 $326 $499 forward 7 unknown #
loop $-1 $-1 $333 $205 #
plane-surface $-1 -54.996795556505006 -3.9685991034502948 1.643474964150883 -0.73135370988377701 0 0.68199835119979291 0.68199835119979291 0 0.73135370988377701 forward_v I I I I #
loop $-1 $-1 $500 $130 #
coedge $-1 $331 $331 $332 $501 reversed $206 $-1 #
coedge $-1 $332 $332 $331 $501 forward $208 $-1 #
coedge $-1 $333 $333 $209 $334 forward $328 $-1 #
edge $-1 $502 0 $502 6.2831853071796004 $333 $503 forward 7 unknown #
loop $-1 $-1 $340 $210 #
plane-surface $-1 -54.996795556505006 -3.9685991034502948 1.643474964150883 -0.73135370988377701 0 0.68199835119979291 0.68199835119979291 0 0.73135370988377701 forward_v I I I I #
loop $-1 $-1 $504 $133 #
coedge $-1 $338 $338 $339 $505 reversed $211 $-1 #
coedge $-1 $339 $339 $338 $505 forward $213 $-1 #
coedge $-1 $340 $340 $214 $341 forward $335 $-1 #
edge $-1 $506 0 $506 6.2831853071796004 $340 $507 forward 7 unknown #
face $-1 $508 $509 $72 $-1 $510 forward single #
loop $-1 $-1 $511 $215 #
plane-surface $-1 -135.44101648044415 9.968263102412708 76.658922745767924 0 -1 0 0.73135370988377701 0 -0.68199835119979291 forward_v I I I I #
coedge $-1 $512 $513 $514 $515 reversed $216 $-1 #
coedge $-1 $347 $218 $516 $517 reversed $137 $-1 #
coedge $-1 $218 $346 $512 $518 reversed $137 $-1 #
coedge $-1 $514 $519 $218 $349 forward $509 $-1 #
edge $-1 $520 12.723712683717054 $521 21.818060130995789 $348 $522 forward 7 unknown #
loop $-1 $-1 $355 $219 #
plane-surface $-1 -54.996795556505006 6.7319511387673394 1.643474964150883 -0.73135370988377701 0 0.68199835119979291 0.68199835119979291 0 0.73135370988377701 forward_v I I I I #
loop $-1 $-1 $523 $139 #
coedge $-1 $353 $353 $354 $524 reversed $220 $-1 #
coedge $-1 $354 $354 $353 $524 forward $222 $-1 #
coedge $-1 $355 $355 $223 $356 forward $350 $-1 #
edge $-1 $525 0 $525 6.2831853071796004 $355 $526 forward 7 unknown #
loop $-1 $-1 $362 $224 #
plane-surface $-1 -54.996795556505006 6.7319511387673394 1.643474964150883 -0.73135370988377701 0 0.68199835119979291 0.68199835119979291 0 0.73135370988377701 forward_v I I I I #
loop $-1 $-1 $527 $142 #
coedge $-1 $360 $360 $361 $528 reversed $225 $-1 #
coedge $-1 $361 $361 $360 $528 forward $227 $-1 #
coedge $-1 $362 $362 $228 $363 forward $357 $-1 #
edge $-1 $529 0 $529 6.2831853071796004 $362 $530 forward 7 unknown #
loop $-1 $-1 $369 $229 #
plane-surface $-1 -54.996795556505006 6.7319511387673394 1.643474964150883 -0.73135370988377701 0 0.68199835119979291 0.68199835119979291 0 0.73135370988377701 forward_v I I I I #
loop $-1 $-1 $531 $145 #
coedge $-1 $367 $367 $368 $532 reversed $230 $-1 #
coedge $-1 $368 $368 $367 $532 forward $232 $-1 #
coedge $-1 $369 $369 $233 $370 forward $364 $-1 #
edge $-1 $533 0 $533 6.2831853071796004 $369 $534 forward 7 unknown #
face $-1 $535 $536 $76 $-1 $537 forward single #
loop $-1 $-1 $538 $234 #
plane-surface $-1 -135.44101648044415 20.668813344630344 76.658922745767924 0 -1 0 0.73135370988377701 0 -0.68199835119979291 forward_v I I I I #
coedge $-1 $539 $540 $541 $542 reversed $235 $-1 #
coedge $-1 $376 $237 $543 $544 reversed $149 $-1 #
coedge $-1 $237 $375 $539 $545 reversed $149 $-1 #
coedge $-1 $541 $546 $237 $378 forward $536 $-1 #
edge $-1 $547 12.723712683717054 $548 21.818060130995789 $377 $549 forward 7 unknown #
loop $-1 $-1 $384 $238 #
plane-surface $-1 -54.996795556505006 17.432501380984974 1.643474964150883 -0.73135370988377701 0 0.68199835119979291 0.68199835119979291 0 0.73135370988377701 forward_v I I I I #
loop $-1 $-1 $550 $151 #
coedge $-1 $382 $382 $383 $551 reversed $239 $-1 #
coedge $-1 $383 $383 $382 $551 forward $241 $-1 #
coedge $-1 $384 $384 $242 $385 forward $379 $-1 #
edge $-1 $552 0 $552 6.2831853071796004 $384 $553 forward 7 unknown #
loop $-1 $-1 $391 $243 #
plane-surface $-1 -54.996795556505006 17.432501380984974 1.643474964150883 -0.73135370988377701 0 0.68199835119979291 0.68199835119979291 0 0.73135370988377701 forward_v I I I I #
loop $-1 $-1 $554 $154 #
coedge $-1 $389 $389 $390 $555 reversed $244 $-1 #
coedge $-1 $390 $390 $389 $555 forward $246 $-1 #
coedge $-1 $391 $391 $247 $392 forward $386 $-1 #
edge $-1 $556 0 $556 6.2831853071796004 $391 $557 forward 7 unknown #
loop $-1 $-1 $398 $248 #
plane-surface $-1 -54.996795556505006 17.432501380984974 1.643474964150883 -0.73135370988377701 0 0.68199835119979291 0.68199835119979291 0 0.73135370988377701 forward_v I I I I #
loop $-1 $-1 $558 $157 #
coedge $-1 $396 $396 $397 $559 reversed $249 $-1 #
coedge $-1 $397 $397 $396 $559 forward $251 $-1 #
coedge $-1 $398 $398 $252 $399 forward $393 $-1 #
edge $-1 $560 0 $560 6.2831853071796004 $398 $561 forward 7 unknown #
face $-1 $562 $563 $60 $-1 $564 reversed single #
loop $-1 $-1 $565 $253 #
plane-surface $-1 -54.99679555650502 0 0 1 0 0 0 0 -1 forward_v I I I I #
coedge $-1 $566 $411 $567 $568 forward $254 $-1 #
coedge $-1 $569 $256 $566 $570 forward $161 $-1 #
coedge $-1 $256 $569 $571 $572 forward $161 $-1 #
coedge $-1 $414 $413 $256 $407 reversed $415 $-1 #
edge $-1 $573 -22.849677277356733 $574 22.849677277356733 $406 $575 forward 7 unknown #
coedge $-1 $258 $257 $576 $577 forward $101 $-1 #
coedge $-1 $578 $579 $257 $410 reversed $563 $-1 #
edge $-1 $417 -54.99679555650502 $580 54.99679555650502 $409 $581 forward 7 unknown #
coedge $-1 $403 $582 $258 $412 reversed $254 $-1 #
edge $-1 $583 -54.99679555650502 $416 54.99679555650502 $411 $584 forward 7 unknown #
coedge $-1 $406 $259 $582 $585 forward $415 $-1 #
coedge $-1 $259 $406 $578 $586 reversed $415 $-1 #
loop $-1 $-1 $413 $562 #
vertex $-1 $260 $587 #
vertex $-1 $260 $588 #
straight-curve $-1 54.99679555650502 0 11.395968841648349 0 1 0 I I #
face $-1 $589 $590 $61 $-1 $591 reversed single #
loop $-1 $-1 $430 $261 #
plane-surface $-1 0 -29.581628416124072 5.6042555593835743 0 0 1 1 0 0 forward_v I I I I #
coedge $-1 $592 $593 $265 $427 forward $262 $-1 #
coedge $-1 $594 $264 $593 $595 forward $165 $-1 #
coedge $-1 $264 $594 $596 $597 forward $165 $-1 #
coedge $-1 $266 $265 $264 $426 reversed $104 $-1 #
edge $-1 $598 -54.99679555650502 $599 54.99679555650502 $264 $600 forward 7 unknown #
edge $-1 $599 -11.395968841648349 $433 -5.6042555593835743 $422 $601 forward 7 unknown #
coedge $-1 $596 $602 $266 $429 forward $603 $-1 #
edge $-1 $432 5.6042555593835743 $598 11.395968841648349 $428 $604 forward 7 unknown #
coedge $-1 $605 $267 $602 $606 forward $420 $-1 #
coedge $-1 $267 $605 $592 $607 forward $420 $-1 #
vertex $-1 $429 $608 #
vertex $-1 $427 $609 #
straight-curve $-1 0 -22.849677277356733 5.6042555593835743 -1 0 0 I I #
face $-1 $-1 $447 $62 $-1 $610 forward single #
loop $-1 $-1 $611 $269 #
plane-surface $-1 54.99679555650502 0 0 -1 0 0 0 0 1 forward_v I I I I #
coedge $-1 $612 $613 $614 $615 reversed $270 $-1 #
coedge $-1 $616 $272 $274 $445 forward $169 $-1 #
coedge $-1 $272 $616 $612 $617 forward $169 $-1 #
coedge $-1 $614 $275 $272 $442 forward $447 $-1 #
edge $-1 $449 0.070315182261357911 $618 6.2337449391275808 $441 $619 forward 7 unknown #
coedge $-1 $620 $621 $273 $444 forward $436 $-1 #
edge $-1 $622 -75.498837924321307 $448 -67.80747791206079 $443 $623 forward 7 unknown #
edge $-1 $449 100.09666014789114 $622 109.99359111301004 $274 $624 forward 7 unknown #
coedge $-1 $275 $614 $620 $625 forward $447 $-1 #
loop $-1 $-1 $614 $435 #
vertex $-1 $444 $626 #
vertex $-1 $276 $627 #
straight-curve $-1 35.628331469090739 -3.2223452429558277 11.395968841648354 -1 0 0 I I #
coedge $-1 $451 $451 $-1 $628 reversed $279 $-1 #
edge $-1 $629 0 $629 6.2831853071796004 $280 $630 forward 7 unknown #
vertex $-1 $283 $631 #
ellipse-curve $-1 51.882625374493081 -7.6247950692888455 7.5502888355180833 0.77714596973225614 0 0.62932038083071107 0.31466019041535553 0 -0.38857298486612807 1 I I #
coedge $-1 $455 $455 $-1 $632 reversed $286 $-1 #
edge $-1 $633 0 $633 6.2831853071796004 $287 $634 forward 7 unknown #
vertex $-1 $290 $635 #
ellipse-curve $-1 51.882625374493081 -4.9833251734890354 7.5502888355180833 0.77714596973225614 0 0.62932038083071107 0.31466019041535553 0 -0.38857298486612807 1 I I #
face $-1 $-1 $636 $65 $-1 $637 reversed single #
loop $-1 $-1 $466 $291 #
plane-surface $-1 0 0 11.395968841648349 0 0 1 1 0 0 forward_v I I I I #
coedge $-1 $638 $294 $296 $468 forward $183 $-1 #
coedge $-1 $294 $638 $639 $640 reversed $183 $-1 #
coedge $-1 $641 $297 $294 $465 forward $292 $-1 #
edge $-1 $471 6.8022663210287035 $642 12.965696077894918 $464 $643 forward 7 unknown #
coedge $-1 $644 $645 $295 $467 forward $460 $-1 #
edge $-1 $646 13.140123723390396 $470 19.368464087414281 $466 $647 forward 7 unknown #
edge $-1 $471 -109.99359111301004 $646 -100.09666014789114 $296 $648 forward 7 unknown #
coedge $-1 $297 $641 $644 $649 reversed $292 $-1 #
vertex $-1 $649 $650 #
vertex $-1 $298 $651 #
straight-curve $-1 54.99679555650502 16.686247520490518 79.203446753709144 0 0 -1 I I #
coedge $-1 $473 $473 $-1 $652 reversed $301 $-1 #
edge $-1 $653 0 $653 6.2831853071796004 $302 $654 forward 7 unknown #
vertex $-1 $305 $655 #
ellipse-curve $-1 51.882625374493081 18.447227451023721 7.5502888355180833 0.77714596973225614 0 0.62932038083071107 0.31466019041535553 0 -0.38857298486612807 1 I I #
coedge $-1 $477 $477 $-1 $656 reversed $308 $-1 #
edge $-1 $657 0 $657 6.2831853071796004 $309 $658 forward 7 unknown #
vertex $-1 $312 $659 #
ellipse-curve $-1 51.882625374493081 21.088697346823537 7.5502888355180833 0.77714596973225614 0 0.62932038083071107 0.31466019041535553 0 -0.38857298486612807 1 I I #
face $-1 $-1 $660 $68 $-1 $661 reversed single #
loop $-1 $-1 $319 $313 #
plane-surface $-1 0 0 11.395968841648349 0 0 1 1 0 0 forward_v I I I I #
coedge $-1 $662 $663 $664 $665 reversed $314 $-1 #
coedge $-1 $666 $316 $318 $491 forward $197 $-1 #
coedge $-1 $316 $666 $662 $667 forward $197 $-1 #
coedge $-1 $664 $319 $316 $488 forward $482 $-1 #
edge $-1 $494 -5.2206115153705159 $668 1.2520124119202212 $487 $669 forward 7 unknown #
coedge $-1 $670 $671 $317 $490 forward $660 $-1 #
edge $-1 $672 -36.685986408733093 $493 -26.933492531235615 $489 $673 forward 7 unknown #
edge $-1 $494 -13.334852542208727 $672 2.0896906529347916e-014 $318 $674 forward 7 unknown #
coedge $-1 $319 $664 $670 $675 forward $482 $-1 #
vertex $-1 $490 $676 #
vertex $-1 $320 $677 #
straight-curve $-1 -67.720508240222074 -7.2049110670956633 11.395968841648347 1 0 0 I I #
coedge $-1 $496 $496 $-1 $678 reversed $323 $-1 #
edge $-1 $679 0 $679 6.2831853071796004 $324 $680 forward 7 unknown #
vertex $-1 $327 $681 #
ellipse-curve $-1 -50.449621832865652 -5.9103862816375141 6.5197219028996098 -0.73135370988377701 0 0.68199835119979291 0.34099917559989645 0 0.36567685494188851 1 I I #
coedge $-1 $500 $500 $-1 $682 reversed $330 $-1 #
edge $-1 $683 0 $683 6.2831853071796004 $331 $684 forward 7 unknown #
vertex $-1 $334 $685 #
ellipse-curve $-1 -50.449621832865652 -3.9685991034502948 6.5197219028996098 -0.73135370988377701 0 0.68199835119979291 0.34099917559989645 0 0.36567685494188851 1 I I #
coedge $-1 $504 $504 $-1 $686 reversed $337 $-1 #
edge $-1 $687 0 $687 6.2831853071796004 $338 $688 forward 7 unknown #
vertex $-1 $341 $689 #
ellipse-curve $-1 -50.449621832865652 -2.0268119252630754 6.5197219028996098 -0.73135370988377701 0 0.68199835119979291 0.34099917559989645 0 0.36567685494188851 1 I I #
face $-1 $-1 $690 $72 $-1 $691 reversed single #
loop $-1 $-1 $348 $342 #
plane-surface $-1 0 0 11.395968841648349 0 0 1 1 0 0 forward_v I I I I #
coedge $-1 $692 $693 $694 $695 reversed $343 $-1 #
coedge $-1 $696 $345 $347 $518 forward $216 $-1 #
coedge $-1 $345 $696 $692 $697 forward $216 $-1 #
coedge $-1 $694 $348 $345 $515 forward $509 $-1 #
edge $-1 $521 0.12966360573830116 $698 6.6022875330290383 $514 $699 forward 7 unknown #
coedge $-1 $700 $701 $346 $517 forward $690 $-1 #
edge $-1 $702 -36.685986408733093 $520 -26.933492531235615 $516 $703 forward 7 unknown #
edge $-1 $521 -13.334852542208727 $702 2.0896906529347916e-014 $347 $704 forward 7 unknown #
coedge $-1 $348 $694 $700 $705 forward $509 $-1 #
vertex $-1 $349 $706 #
vertex $-1 $349 $707 #
straight-curve $-1 -67.720508240222074 3.4956391751219709 11.395968841648347 1 0 0 I I #
coedge $-1 $523 $523 $-1 $708 reversed $352 $-1 #
edge $-1 $709 0 $709 6.2831853071796004 $353 $710 forward 7 unknown #
vertex $-1 $356 $711 #
ellipse-curve $-1 -50.449621832865652 4.7901639605801201 6.5197219028996098 -0.73135370988377701 0 0.68199835119979291 0.34099917559989645 0 0.36567685494188851 1 I I #
coedge $-1 $527 $527 $-1 $712 reversed $359 $-1 #
edge $-1 $713 0 $713 6.2831853071796004 $360 $714 forward 7 unknown #
vertex $-1 $363 $715 #
ellipse-curve $-1 -50.449621832865652 6.7319511387673394 6.5197219028996098 -0.73135370988377701 0 0.68199835119979291 0.34099917559989645 0 0.36567685494188851 1 I I #
coedge $-1 $531 $531 $-1 $716 reversed $366 $-1 #
edge $-1 $717 0 $717 6.2831853071796004 $367 $718 forward 7 unknown #
vertex $-1 $370 $719 #
ellipse-curve $-1 -50.449621832865652 8.6737383169545588 6.5197219028996098 -0.73135370988377701 0 0.68199835119979291 0.34099917559989645 0 0.36567685494188851 1 I I #
face $-1 $-1 $720 $76 $-1 $721 reversed single #
loop $-1 $-1 $377 $371 #
plane-surface $-1 0 0 11.395968841648349 0 0 1 1 0 0 forward_v I I I I #
coedge $-1 $722 $723 $724 $725 reversed $372 $-1 #
coedge $-1 $726 $374 $376 $545 forward $235 $-1 #
coedge $-1 $374 $726 $722 $727 forward $235 $-1 #
coedge $-1 $724 $377 $374 $542 forward $536 $-1 #
edge $-1 $548 5.4799387268471182 $728 11.952562654137857 $541 $729 forward 7 unknown #
coedge $-1 $730 $731 $375 $544 forward $720 $-1 #
edge $-1 $732 -36.685986408733093 $547 -26.933492531235615 $543 $733 forward 7 unknown #
edge $-1 $548 -13.334852542208727 $732 2.0896906529347916e-014 $376 $734 forward 7 unknown #
coedge $-1 $377 $724 $730 $735 forward $536 $-1 #
vertex $-1 $378 $736 #
vertex $-1 $378 $737 #
straight-curve $-1 -67.720508240222074 14.196189417339605 11.395968841648347 1 0 0 I I #
coedge $-1 $550 $550 $-1 $738 reversed $381 $-1 #
edge $-1 $739 0 $739 6.2831853071796004 $382 $740 forward 7 unknown #
vertex $-1 $385 $741 #
ellipse-curve $-1 -50.449621832865652 15.490714202797754 6.5197219028996098 -0.73135370988377701 0 0.68199835119979291 0.34099917559989645 0 0.36567685494188851 1 I I #
coedge $-1 $554 $554 $-1 $742 reversed $388 $-1 #
edge $-1 $743 0 $743 6.2831853071796004 $389 $744 forward 7 unknown #
vertex $-1 $392 $745 #
ellipse-curve $-1 -50.449621832865652 17.432501380984974 6.5197219028996098 -0.73135370988377701 0 0.68199835119979291 0.34099917559989645 0 0.36567685494188851 1 I I #
coedge $-1 $558 $558 $-1 $746 reversed $395 $-1 #
edge $-1 $747 0 $747 6.2831853071796004 $396 $748 forward 7 unknown #
vertex $-1 $399 $749 #
ellipse-curve $-1 -50.449621832865652 19.374288559172193 6.5197219028996098 -0.73135370988377701 0 0.68199835119979291 0.34099917559989645 0 0.36567685494188851 1 I I #
face $-1 $-1 $415 $60 $-1 $750 reversed single #
loop $-1 $-1 $578 $400 #
plane-surface $-1 0 22.849677277356733 0 0 -1 0 0 0 -1 forward_v I I I I #
coedge $-1 $751 $576 $579 $752 forward $401 $-1 #
coedge $-1 $582 $403 $404 $570 reversed $254 $-1 #
coedge $-1 $576 $751 $403 $568 reversed $401 $-1 #
edge $-1 $583 -11.395968841648349 $753 11.395968841648349 $567 $754 forward 7 unknown #
coedge $-1 $405 $404 $751 $755 forward $161 $-1 #
edge $-1 $574 -54.99679555650502 $753 54.99679555650502 $566 $756 forward 7 unknown #
coedge $-1 $579 $578 $405 $572 reversed $563 $-1 #
edge $-1 $757 -54.99679555650502 $573 54.99679555650502 $571 $758 forward 7 unknown #
vertex $-1 $407 $759 #
vertex $-1 $585 $760 #
straight-curve $-1 54.99679555650502 0 -11.395968841648349 0 -1 0 I I #
coedge $-1 $565 $567 $408 $577 reversed $401 $-1 #
edge $-1 $580 -22.849677277356733 $583 22.849677277356733 $576 $761 forward 7 unknown #
coedge $-1 $571 $409 $414 $586 forward $563 $-1 #
coedge $-1 $409 $571 $565 $752 reversed $563 $-1 #
vertex $-1 $410 $762 #
straight-curve $-1 0 22.849677277356733 11.395968841648349 -1 0 0 I I #
coedge $-1 $411 $566 $413 $585 reversed $254 $-1 #
vertex $-1 $577 $763 #
straight-curve $-1 0 -22.849677277356733 11.395968841648349 1 0 0 I I #
edge $-1 $416 -11.395968841648349 $574 11.395968841648349 $413 $764 forward 7 unknown #
edge $-1 $417 -11.395968841648349 $573 11.395968841648349 $414 $765 forward 7 unknown #
point $-1 54.99679555650502 -22.849677277356733 11.395968841648349 #
point $-1 54.99679555650502 22.849677277356733 11.395968841648349 #
face $-1 $-1 $603 $61 $-1 $766 reversed single #
loop $-1 $-1 $767 $419 #
plane-surface $-1 0 -36.313579554891412 8.5001122005159626 0 1 0 0 0 1 forward_v I I I I #
coedge $-1 $768 $422 $431 $607 reversed $262 $-1 #
coedge $-1 $422 $768 $423 $595 reversed $262 $-1 #
coedge $-1 $424 $423 $769 $770 forward $165 $-1 #
edge $-1 $599 22.849677277356733 $771 36.313579554891412 $593 $772 forward 7 unknown #
coedge $-1 $773 $428 $424 $597 reversed $603 $-1 #
edge $-1 $774 -36.313579554891412 $598 -22.849677277356733 $596 $775 forward 7 unknown #
vertex $-1 $429 $776 #
vertex $-1 $595 $777 #
straight-curve $-1 0 -22.849677277356733 11.395968841648349 -1 0 0 I I #
straight-curve $-1 -54.99679555650502 -22.849677277356733 0 0 0 -1 I I #
coedge $-1 $428 $773 $430 $606 reversed $603 $-1 #
loop $-1 $-1 $428 $589 #
straight-curve $-1 54.99679555650502 -22.849677277356733 0 0 0 1 I I #
coedge $-1 $431 $430 $778 $779 forward $420 $-1 #
edge $-1 $432 -6.7319511387673394 $780 6.7319511387673394 $602 $781 forward 7 unknown #
edge $-1 $782 -6.7319511387673394 $433 6.7319511387673394 $592 $783 forward 7 unknown #
point $-1 54.99679555650502 -22.849677277356733 5.6042555593835743 #
point $-1 -54.99679555650502 -22.849677277356733 5.6042555593835743 #
plane-surface $-1 0 0 11.395968841648349 0 0 1 1 0 0 forward_v I I I I #
coedge $-1 $621 $620 $613 $784 forward $436 $-1 #
coedge $-1 $613 $438 $440 $617 reversed $270 $-1 #
coedge $-1 $438 $612 $611 $784 reversed $270 $-1 #
coedge $-1 $446 $441 $438 $615 forward $447 $-1 #
edge $-1 $618 13.140123723390396 $785 19.368464087414281 $614 $786 forward 7 unknown #
coedge $-1 $440 $439 $621 $787 reversed $169 $-1 #
edge $-1 $788 -109.99359111301004 $618 -100.09666014789114 $612 $789 forward 7 unknown #
vertex $-1 $442 $790 #
straight-curve $-1 48.768455192481134 -3.1520300606944698 11.395968841648354 0 -1 0 I I #
coedge $-1 $611 $443 $446 $625 reversed $436 $-1 #
coedge $-1 $443 $611 $616 $787 forward $436 $-1 #
vertex $-1 $444 $791 #
straight-curve $-1 54.99679555650502 -3.2223452429558277 79.203446753709144 0 0 1 I I #
straight-curve $-1 -14.224413091671977 -3.2223452429558277 89.185684859241292 0.62932038083071107 0 -0.77714596973225614 I I #
edge $-1 $785 -9.3857749998220505 $448 -3.2223452429558277 $620 $792 forward 7 unknown #
point $-1 54.99679555650502 -3.2223452429558277 11.395968841648349 #
point $-1 48.768455192481134 -3.2223452429558277 11.395968841648354 #
edge $-1 $793 1 $793 0 $451 $-1 forward 7 unknown #
vertex $-1 $452 $794 #
ellipse-curve $-1 50.578468325918223 -7.6247950692888455 6.494203309198042 0.77714596973225614 0 0.62932038083071107 0.31466019041535553 0 -0.38857298486612807 1 I I #
point $-1 52.197285564908441 -7.6247950692888455 7.1617158506519525 #
edge $-1 $795 1 $795 0 $455 $-1 forward 7 unknown #
vertex $-1 $456 $796 #
ellipse-curve $-1 50.578468325918223 -4.9833251734890354 6.494203309198042 0.77714596973225614 0 0.62932038083071107 0.31466019041535553 0 -0.38857298486612807 1 I I #
point $-1 52.197285564908441 -4.9833251734890354 7.1617158506519525 #
loop $-1 $-1 $639 $459 #
plane-surface $-1 0 22.849677277356733 0 0 -1 0 0 0 -1 forward_v I I I I #
coedge $-1 $463 $462 $645 $797 reversed $183 $-1 #
coedge $-1 $798 $799 $463 $640 forward $636 $-1 #
edge $-1 $642 -70.862586807952624 $800 -60.965655842833726 $639 $801 forward 7 unknown #
coedge $-1 $469 $464 $799 $802 reversed $292 $-1 #
vertex $-1 $465 $803 #
straight-curve $-1 54.99679555650502 9.8839811994618145 3.7046088293878299 0 1 0 I I #
coedge $-1 $804 $466 $469 $649 forward $460 $-1 #
coedge $-1 $466 $804 $638 $797 forward $460 $-1 #
vertex $-1 $467 $805 #
straight-curve $-1 35.628331469090739 16.686247520490518 11.395968841648354 1 0 0 I I #
straight-curve $-1 -14.224413091671977 16.686247520490518 89.185684859241292 -0.62932038083071107 0 0.77714596973225614 I I #
edge $-1 $470 16.686247520490518 $806 22.849677277356733 $469 $807 forward 7 unknown #
point $-1 54.99679555650502 16.686247520490518 11.395968841648349 #
point $-1 54.99679555650502 16.686247520490518 3.704608829387837 #
edge $-1 $808 1 $808 0 $473 $-1 forward 7 unknown #
vertex $-1 $474 $809 #
ellipse-curve $-1 50.578468325918223 18.447227451023721 6.494203309198042 0.77714596973225614 0 0.62932038083071107 0.31466019041535553 0 -0.38857298486612807 1 I I #
point $-1 52.197285564908441 18.447227451023721 7.1617158506519525 #
edge $-1 $810 1 $810 0 $477 $-1 forward 7 unknown #
vertex $-1 $478 $811 #
ellipse-curve $-1 50.578468325918223 21.088697346823537 6.494203309198042 0.77714596973225614 0 0.62932038083071107 0.31466019041535553 0 -0.38857298486612807 1 I I #
point $-1 52.197285564908441 21.088697346823537 7.1617158506519525 #
loop $-1 $-1 $489 $481 #
plane-surface $-1 -54.99679555650502 0 0 1 0 0 0 0 -1 forward_v I I I I #
coedge $-1 $663 $484 $486 $667 reversed $314 $-1 #
coedge $-1 $484 $662 $812 $813 reversed $314 $-1 #
coedge $-1 $492 $487 $484 $665 forward $482 $-1 #
edge $-1 $668 -21.818060130995789 $814 -12.723712683717054 $664 $815 forward 7 unknown #
coedge $-1 $486 $485 $671 $816 reversed $197 $-1 #
edge $-1 $817 -2.0896906529347916e-014 $668 13.334852542208727 $662 $818 forward 7 unknown #
vertex $-1 $488 $819 #
straight-curve $-1 -45.902448109226285 -1.9842995517251474 11.395968841648351 0 1 0 I I #
coedge $-1 $812 $489 $492 $675 reversed $660 $-1 #
coedge $-1 $489 $812 $666 $816 forward $660 $-1 #
vertex $-1 $490 $820 #
straight-curve $-1 -54.99679555650502 -7.2049110670956633 38.329461372883962 0 0 1 I I #
straight-curve $-1 -54.996795556505006 -7.2049110670956633 1.643474964150883 -0.68199835119979291 0 -0.73135370988377701 I I #
edge $-1 $814 0.73228713980492621 $493 7.2049110670956633 $670 $821 forward 7 unknown #
point $-1 -54.99679555650502 -7.2049110670956633 11.395968841648349 #
point $-1 -45.902448109226285 -7.2049110670956633 11.395968841648349 #
edge $-1 $822 1 $822 0 $496 $-1 forward 7 unknown #
vertex $-1 $497 $823 #
ellipse-curve $-1 -49.690859377727904 -5.9103862816375141 5.8121644838793625 -0.73135370988377701 0 0.68199835119979291 0.34099917559989645 0 0.36567685494188851 1 I I #
point $-1 -50.108622657265769 -5.9103862816375141 6.8853987578415135 #
edge $-1 $824 1 $824 0 $500 $-1 forward 7 unknown #
vertex $-1 $501 $825 #
ellipse-curve $-1 -49.690859377727904 -3.9685991034502948 5.8121644838793625 -0.73135370988377701 0 0.68199835119979291 0.34099917559989645 0 0.36567685494188851 1 I I #
point $-1 -50.108622657265769 -3.9685991034502948 6.8853987578415135 #
edge $-1 $826 1 $826 0 $504 $-1 forward 7 unknown #
vertex $-1 $505 $827 #
ellipse-curve $-1 -49.690859377727904 -2.0268119252630754 5.8121644838793625 -0.73135370988377701 0 0.68199835119979291 0.34099917559989645 0 0.36567685494188851 1 I I #
point $-1 -50.108622657265769 -2.0268119252630754 6.8853987578415135 #
loop $-1 $-1 $516 $508 #
plane-surface $-1 -54.99679555650502 0 0 1 0 0 0 0 -1 forward_v I I I I #
coedge $-1 $693 $511 $513 $697 reversed $343 $-1 #
coedge $-1 $511 $692 $828 $829 reversed $343 $-1 #
coedge $-1 $519 $514 $511 $695 forward $509 $-1 #
edge $-1 $698 -21.818060130995789 $830 -12.723712683717054 $694 $831 forward 7 unknown #
coedge $-1 $513 $512 $701 $832 reversed $216 $-1 #
edge $-1 $833 -2.0896906529347916e-014 $698 13.334852542208727 $692 $834 forward 7 unknown #
vertex $-1 $515 $835 #
straight-curve $-1 -45.902448109226285 3.3659755693836697 11.395968841648351 0 1 0 I I #
coedge $-1 $828 $516 $519 $705 reversed $690 $-1 #
coedge $-1 $516 $828 $696 $832 forward $690 $-1 #
vertex $-1 $517 $836 #
straight-curve $-1 -54.99679555650502 3.4956391751219709 38.329461372883962 0 0 1 I I #
straight-curve $-1 -54.996795556505006 3.4956391751219709 1.643474964150883 -0.68199835119979291 0 -0.73135370988377701 I I #
edge $-1 $830 -9.968263102412708 $520 -3.4956391751219709 $700 $837 forward 7 unknown #
point $-1 -54.99679555650502 3.4956391751219709 11.395968841648349 #
point $-1 -45.902448109226285 3.4956391751219709 11.395968841648349 #
edge $-1 $838 1 $838 0 $523 $-1 forward 7 unknown #
vertex $-1 $524 $839 #
ellipse-curve $-1 -49.690859377727904 4.7901639605801201 5.8121644838793625 -0.73135370988377701 0 0.68199835119979291 0.34099917559989645 0 0.36567685494188851 1 I I #
point $-1 -50.108622657265769 4.7901639605801201 6.8853987578415135 #
edge $-1 $840 1 $840 0 $527 $-1 forward 7 unknown #
vertex $-1 $528 $841 #
ellipse-curve $-1 -49.690859377727904 6.7319511387673394 5.8121644838793625 -0.73135370988377701 0 0.68199835119979291 0.34099917559989645 0 0.36567685494188851 1 I I #
point $-1 -50.108622657265769 6.7319511387673394 6.8853987578415135 #
edge $-1 $842 1 $842 0 $531 $-1 forward 7 unknown #
vertex $-1 $532 $843 #
ellipse-curve $-1 -49.690859377727904 8.6737383169545588 5.8121644838793625 -0.73135370988377701 0 0.68199835119979291 0.34099917559989645 0 0.36567685494188851 1 I I #
point $-1 -50.108622657265769 8.6737383169545588 6.8853987578415135 #
loop $-1 $-1 $543 $535 #
plane-surface $-1 -54.99679555650502 0 0 1 0 0 0 0 -1 forward_v I I I I #
coedge $-1 $723 $538 $540 $727 reversed $372 $-1 #
coedge $-1 $538 $722 $844 $845 reversed $372 $-1 #
coedge $-1 $546 $541 $538 $725 forward $536 $-1 #
edge $-1 $728 -21.818060130995789 $846 -12.723712683717054 $724 $847 forward 7 unknown #
coedge $-1 $540 $539 $731 $848 reversed $235 $-1 #
edge $-1 $849 -2.0896906529347916e-014 $728 13.334852542208727 $722 $850 forward 7 unknown #
vertex $-1 $542 $851 #
straight-curve $-1 -45.902448109226285 8.7162506904924868 11.395968841648351 0 1 0 I I #
coedge $-1 $844 $543 $546 $735 reversed $720 $-1 #
coedge $-1 $543 $844 $726 $848 forward $720 $-1 #
vertex $-1 $544 $852 #
straight-curve $-1 -54.99679555650502 14.196189417339605 38.329461372883962 0 0 1 I I #
straight-curve $-1 -54.996795556505006 14.196189417339605 1.643474964150883 -0.68199835119979291 0 -0.73135370988377701 I I #
edge $-1 $846 -20.668813344630344 $547 -14.196189417339605 $730 $853 forward 7 unknown #
point $-1 -54.99679555650502 14.196189417339605 11.395968841648349 #
point $-1 -45.902448109226285 14.196189417339605 11.395968841648349 #
edge $-1 $854 1 $854 0 $550 $-1 forward 7 unknown #
vertex $-1 $551 $855 #
ellipse-curve $-1 -49.690859377727904 15.490714202797754 5.8121644838793625 -0.73135370988377701 0 0.68199835119979291 0.34099917559989645 0 0.36567685494188851 1 I I #
point $-1 -50.108622657265769 15.490714202797754 6.8853987578415135 #
edge $-1 $856 1 $856 0 $554 $-1 forward 7 unknown #
vertex $-1 $555 $857 #
ellipse-curve $-1 -49.690859377727904 17.432501380984974 5.8121644838793625 -0.73135370988377701 0 0.68199835119979291 0.34099917559989645 0 0.36567685494188851 1 I I #
point $-1 -50.108622657265769 17.432501380984974 6.8853987578415135 #
edge $-1 $858 1 $858 0 $558 $-1 forward 7 unknown #
vertex $-1 $559 $859 #
ellipse-curve $-1 -49.690859377727904 19.374288559172193 5.8121644838793625 -0.73135370988377701 0 0.68199835119979291 0.34099917559989645 0 0.36567685494188851 1 I I #
point $-1 -50.108622657265769 19.374288559172193 6.8853987578415135 #
plane-surface $-1 54.99679555650502 0 0 -1 0 0 0 0 1 forward_v I I I I #
coedge $-1 $567 $565 $569 $755 reversed $401 $-1 #
edge $-1 $580 -11.395968841648349 $757 11.395968841648349 $579 $860 forward 7 unknown #
vertex $-1 $755 $861 #
straight-curve $-1 -54.99679555650502 -22.849677277356733 0 0 0 -1 I I #
edge $-1 $753 -22.849677277356733 $757 22.849677277356733 $751 $862 forward 7 unknown #
straight-curve $-1 0 -22.849677277356733 -11.395968841648349 -1 0 0 I I #
vertex $-1 $572 $863 #
straight-curve $-1 0 22.849677277356733 -11.395968841648349 1 0 0 I I #
point $-1 54.99679555650502 22.849677277356733 -11.395968841648349 #
point $-1 54.99679555650502 -22.849677277356733 -11.395968841648349 #
straight-curve $-1 -54.99679555650502 0 11.395968841648349 0 -1 0 I I #
point $-1 -54.99679555650502 22.849677277356733 11.395968841648349 #
point $-1 -54.99679555650502 -22.849677277356733 11.395968841648349 #
straight-curve $-1 54.99679555650502 -22.849677277356733 0 0 0 -1 I I #
straight-curve $-1 54.99679555650502 22.849677277356733 0 0 0 -1 I I #
plane-surface $-1 54.99679555650502 0 0 -1 0 0 0 0 1 forward_v I I I I #
coedge $-1 $778 $769 $768 $864 forward $590 $-1 #
coedge $-1 $593 $592 $767 $864 reversed $262 $-1 #
coedge $-1 $767 $865 $594 $770 reversed $590 $-1 #
edge $-1 $771 -54.99679555650502 $774 54.99679555650502 $769 $866 forward 7 unknown #
vertex $-1 $595 $867 #
straight-curve $-1 -54.99679555650502 0 11.395968841648349 0 -1 0 I I #
coedge $-1 $602 $596 $865 $868 forward $603 $-1 #
vertex $-1 $597 $869 #
straight-curve $-1 54.99679555650502 0 11.395968841648349 0 1 0 I I #
point $-1 54.99679555650502 -22.849677277356733 11.395968841648349 #
point $-1 -54.99679555650502 -22.849677277356733 11.395968841648349 #
coedge $-1 $865 $767 $605 $779 reversed $590 $-1 #
edge $-1 $780 -54.99679555650502 $782 54.99679555650502 $778 $870 forward 7 unknown #
vertex $-1 $868 $871 #
straight-curve $-1 54.99679555650502 -29.581628416124072 5.6042555593835743 0 -1 0 I I #
vertex $-1 $607 $872 #
straight-curve $-1 -54.99679555650502 -29.581628416124072 5.6042555593835743 0 1 0 I I #
edge $-1 $785 67.80747791206079 $788 75.498837924321307 $611 $873 forward 7 unknown #
vertex $-1 $625 $874 #
straight-curve $-1 35.628331469090739 -9.3857749998220505 11.395968841648354 1 0 0 I I #
edge $-1 $788 -6.2337449391275808 $622 -0.070315182261357911 $621 $875 forward 7 unknown #
vertex $-1 $787 $876 #
straight-curve $-1 -14.224413091671977 -9.3857749998220505 89.185684859241292 -0.62932038083071107 0 0.77714596973225614 I I #
point $-1 48.768455192481134 -9.3857749998220505 11.395968841648354 #
point $-1 54.99679555650502 -3.2223452429558277 3.704608829387837 #
straight-curve $-1 54.99679555650502 0 11.395968841648349 0 1 0 I I #
vertex $-1 $628 $877 #
point $-1 50.893128516333576 -7.6247950692888455 6.1056303243319139 #
vertex $-1 $632 $878 #
point $-1 50.893128516333576 -4.9833251734890354 6.1056303243319139 #
edge $-1 $800 -12.965696077894926 $646 -6.8022663210287035 $645 $879 forward 7 unknown #
coedge $-1 $799 $639 $804 $880 reversed $636 $-1 #
coedge $-1 $639 $798 $641 $802 forward $636 $-1 #
vertex $-1 $640 $881 #
straight-curve $-1 10.401525439874948 22.849677277356733 58.775182571990356 -0.62932038083071107 0 0.77714596973225614 I I #
edge $-1 $806 -11.395968841648349 $642 -3.7046088293878281 $641 $882 forward 7 unknown #
point $-1 54.99679555650502 22.849677277356733 3.7046088293878281 #
coedge $-1 $645 $644 $798 $880 forward $460 $-1 #
point $-1 48.768455192481134 16.686247520490518 11.395968841648354 #
vertex $-1 $649 $883 #
straight-curve $-1 54.99679555650502 0 11.395968841648349 0 1 0 I I #
vertex $-1 $652 $884 #
point $-1 50.893128516333576 18.447227451023721 6.1056303243319139 #
vertex $-1 $656 $885 #
point $-1 50.893128516333576 21.088697346823537 6.1056303243319139 #
coedge $-1 $671 $670 $663 $813 forward $660 $-1 #
edge $-1 $814 26.933492531235615 $817 36.685986408733093 $812 $886 forward 7 unknown #
vertex $-1 $675 $887 #
straight-curve $-1 -67.720508240222074 -0.73228713980492621 11.395968841648347 -1 0 0 I I #
edge $-1 $817 -1.2520124119202212 $672 5.2206115153705159 $671 $888 forward 7 unknown #
vertex $-1 $816 $889 #
straight-curve $-1 -54.996795556505006 -0.73228713980492621 1.643474964150883 0.68199835119979291 0 0.73135370988377701 I I #
point $-1 -45.902448109226285 -0.73228713980492621 11.395968841648349 #
point $-1 -54.99679555650502 -7.2049110670956633 1.6434749641508677 #
straight-curve $-1 -54.99679555650502 0 11.395968841648349 0 -1 0 I I #
vertex $-1 $678 $890 #
point $-1 -49.349860202128013 -5.9103862816375141 6.177841338821251 #
vertex $-1 $682 $891 #
point $-1 -49.349860202128013 -3.9685991034502948 6.177841338821251 #
vertex $-1 $686 $892 #
point $-1 -49.349860202128013 -2.0268119252630754 6.177841338821251 #
coedge $-1 $701 $700 $693 $829 forward $690 $-1 #
edge $-1 $830 26.933492531235615 $833 36.685986408733093 $828 $893 forward 7 unknown #
vertex $-1 $705 $894 #
straight-curve $-1 -67.720508240222074 9.968263102412708 11.395968841648347 -1 0 0 I I #
edge $-1 $833 -6.6022875330290383 $702 -0.12966360573830116 $701 $895 forward 7 unknown #
vertex $-1 $832 $896 #
straight-curve $-1 -54.996795556505006 9.968263102412708 1.643474964150883 0.68199835119979291 0 0.73135370988377701 I I #
point $-1 -45.902448109226285 9.968263102412708 11.395968841648349 #
point $-1 -54.99679555650502 3.4956391751219709 1.6434749641508677 #
straight-curve $-1 -54.99679555650502 0 11.395968841648349 0 -1 0 I I #
vertex $-1 $708 $897 #
point $-1 -49.349860202128013 4.7901639605801201 6.177841338821251 #
vertex $-1 $712 $898 #
point $-1 -49.349860202128013 6.7319511387673394 6.177841338821251 #
vertex $-1 $716 $899 #
point $-1 -49.349860202128013 8.6737383169545588 6.177841338821251 #
coedge $-1 $731 $730 $723 $845 forward $720 $-1 #
edge $-1 $846 26.933492531235615 $849 36.685986408733093 $844 $900 forward 7 unknown #
vertex $-1 $735 $901 #
straight-curve $-1 -67.720508240222074 20.668813344630344 11.395968841648347 -1 0 0 I I #
edge $-1 $849 -11.952562654137857 $732 -5.4799387268471182 $731 $902 forward 7 unknown #
vertex $-1 $848 $903 #
straight-curve $-1 -54.996795556505006 20.668813344630344 1.643474964150883 0.68199835119979291 0 0.73135370988377701 I I #
point $-1 -45.902448109226285 20.668813344630344 11.395968841648349 #
point $-1 -54.99679555650502 14.196189417339605 1.6434749641508677 #
straight-curve $-1 -54.99679555650502 0 11.395968841648349 0 -1 0 I I #
vertex $-1 $738 $904 #
point $-1 -49.349860202128013 15.490714202797754 6.177841338821251 #
vertex $-1 $742 $905 #
point $-1 -49.349860202128013 17.432501380984974 6.177841338821251 #
vertex $-1 $746 $906 #
point $-1 -49.349860202128013 19.374288559172193 6.177841338821251 #
straight-curve $-1 -54.99679555650502 22.849677277356733 0 0 0 -1 I I #
point $-1 -54.99679555650502 -22.849677277356733 -11.395968841648349 #
straight-curve $-1 -54.99679555650502 0 -11.395968841648349 0 1 0 I I #
point $-1 -54.99679555650502 22.849677277356733 -11.395968841648349 #
edge $-1 $771 -2.8958566411323883 $782 2.8958566411323883 $768 $907 forward 7 unknown #
coedge $-1 $769 $778 $773 $868 reversed $590 $-1 #
straight-curve $-1 0 -36.313579554891412 11.395968841648351 1 0 0 I I #
point $-1 -54.99679555650502 -36.313579554891412 11.395968841648351 #
edge $-1 $774 -2.8958566411323883 $780 2.8958566411323883 $773 $908 forward 7 unknown #
point $-1 54.99679555650502 -36.313579554891412 11.395968841648351 #
straight-curve $-1 0 -36.313579554891412 5.6042555593835743 -1 0 0 I I #
point $-1 54.99679555650502 -36.313579554891412 5.6042555593835743 #
point $-1 -54.99679555650502 -36.313579554891412 5.6042555593835743 #
straight-curve $-1 54.99679555650502 -9.3857749998220505 79.203446753709144 0 0 -1 I I #
point $-1 54.99679555650502 -9.3857749998220505 11.395968841648349 #
straight-curve $-1 54.99679555650502 -3.1520300606944698 3.7046088293878299 0 1 0 I I #
point $-1 54.99679555650502 -9.3857749998220505 3.704608829387837 #
point $-1 50.189895341052093 -7.6247950692888455 6.1795431187826857 #
point $-1 50.189895341052093 -4.9833251734890354 6.1795431187826857 #
straight-curve $-1 48.768455192481134 9.8839811994618145 11.395968841648354 0 -1 0 I I #
edge $-1 $806 -54.99679555650502 $800 -48.768455192481134 $798 $909 forward 7 unknown #
point $-1 48.768455192481134 22.84967727735674 11.395968841648354 #
straight-curve $-1 54.99679555650502 22.849677277356733 0 0 0 -1 I I #
point $-1 54.99679555650502 22.849677277356733 11.395968841648349 #
point $-1 50.189895341052093 18.447227451023721 6.1795431187826857 #
point $-1 50.189895341052093 21.088697346823537 6.1795431187826857 #
straight-curve $-1 -54.99679555650502 -0.73228713980492621 38.329461372883962 0 0 -1 I I #
point $-1 -54.99679555650502 -0.73228713980492621 11.395968841648349 #
straight-curve $-1 -54.99679555650502 -1.9842995517251474 1.6434749641508644 0 -1 0 I I #
point $-1 -54.99679555650502 -0.73228713980492621 1.6434749641508677 #
point $-1 -49.325182522786022 -5.9103862816375141 5.4711653082794651 #
point $-1 -49.325182522786022 -3.9685991034502948 5.4711653082794651 #
point $-1 -49.325182522786022 -2.0268119252630754 5.4711653082794651 #
straight-curve $-1 -54.99679555650502 9.968263102412708 38.329461372883962 0 0 -1 I I #
point $-1 -54.99679555650502 9.968263102412708 11.395968841648349 #
straight-curve $-1 -54.99679555650502 3.3659755693836697 1.6434749641508644 0 -1 0 I I #
point $-1 -54.99679555650502 9.968263102412708 1.6434749641508677 #
point $-1 -49.325182522786022 4.7901639605801201 5.4711653082794651 #
point $-1 -49.325182522786022 6.7319511387673394 5.4711653082794651 #
point $-1 -49.325182522786022 8.6737383169545588 5.4711653082794651 #
straight-curve $-1 -54.99679555650502 20.668813344630344 38.329461372883962 0 0 -1 I I #
point $-1 -54.99679555650502 20.668813344630344 11.395968841648349 #
straight-curve $-1 -54.99679555650502 8.7162506904924868 1.6434749641508644 0 -1 0 I I #
point $-1 -54.99679555650502 20.668813344630344 1.6434749641508677 #
point $-1 -49.325182522786022 15.490714202797754 5.4711653082794651 #
point $-1 -49.325182522786022 17.432501380984974 5.4711653082794651 #
point $-1 -49.325182522786022 19.374288559172193 5.4711653082794651 #
straight-curve $-1 -54.99679555650502 -36.313579554891412 8.5001122005159626 0 0 -1 I I #
straight-curve $-1 54.99679555650502 -36.313579554891412 8.5001122005159626 0 0 -1 I I #
straight-curve $-1 0 22.849677277356733 11.395968841648349 -1 0 0 I I #
End-of-ACIS-data 