500 0 11 0           
7 Unknown 11 ACIS 5.0 NT 24 Thu Mar 25 23:12:40 1999 
-1 9.9999999999999995e-007 1e-010 
body $-1 $11 $-1 $12 #
body $-1 $13 $-1 $14 #
body $-1 $15 $-1 $16 #
body $-1 $17 $-1 $18 #
body $-1 $19 $-1 $20 #
body $-1 $21 $-1 $22 #
body $-1 $23 $-1 $24 #
body $-1 $25 $-1 $26 #
body $-1 $27 $-1 $28 #
body $-1 $29 $-1 $30 #
body $-1 $31 $-1 $32 #
lump $-1 $-1 $33 $0 #
transform $-1 1 0 0 0 1 0 0 0 1 70.968962675862912 40.144344102210113 10.907470795067496 1 rotate no_reflect no_shear #
lump $-1 $-1 $34 $1 #
transform $-1 1 0 0 0 1 0 0 0 1 70.968962675862912 40.144344102210113 10.907470795067496 1 rotate no_reflect no_shear #
lump $-1 $-1 $35 $2 #
transform $-1 1 0 0 0 1 0 0 0 1 70.968962675862912 40.144344102210113 10.907470795067496 1 rotate no_reflect no_shear #
lump $-1 $-1 $36 $3 #
transform $-1 1 0 0 0 1 0 0 0 1 70.968962675862912 40.144344102210113 10.907470795067496 1 rotate no_reflect no_shear #
lump $-1 $-1 $37 $4 #
transform $-1 1 0 0 0 1 0 0 0 1 70.968962675862912 40.144344102210113 10.907470795067496 1 rotate no_reflect no_shear #
lump $-1 $-1 $38 $5 #
transform $-1 1 0 0 0 1 0 0 0 1 70.968962675862912 40.144344102210113 10.907470795067496 1 rotate no_reflect no_shear #
lump $-1 $-1 $39 $6 #
transform $-1 1 0 0 0 1 0 0 0 1 70.968962675862912 40.144344102210113 10.907470795067496 1 rotate no_reflect no_shear #
lump $-1 $-1 $40 $7 #
transform $-1 1 0 0 0 1 0 0 0 1 70.968962675862912 40.144344102210113 10.907470795067496 1 rotate no_reflect no_shear #
lump $-1 $-1 $41 $8 #
transform $-1 1 0 0 0 1 0 0 0 1 70.968962675862912 40.144344102210113 10.907470795067496 1 rotate no_reflect no_shear #
lump $-1 $-1 $42 $9 #
transform $-1 1 0 0 0 1 0 0 0 1 70.968962675862912 40.144344102210113 10.907470795067496 1 rotate no_reflect no_shear #
lump $-1 $-1 $43 $10 #
transform $-1 1 0 0 0 1 0 0 0 1 70.968962675862912 40.144344102210113 10.907470795067496 1 rotate no_reflect no_shear #
shell $-1 $-1 $-1 $44 $-1 $11 #
shell $-1 $-1 $-1 $45 $-1 $13 #
shell $-1 $-1 $-1 $46 $-1 $15 #
shell $-1 $-1 $-1 $47 $-1 $17 #
shell $-1 $-1 $-1 $48 $-1 $19 #
shell $-1 $-1 $-1 $49 $-1 $21 #
shell $-1 $-1 $-1 $50 $-1 $23 #
shell $-1 $-1 $-1 $51 $-1 $25 #
shell $-1 $-1 $-1 $52 $-1 $27 #
shell $-1 $-1 $-1 $53 $-1 $29 #
shell $-1 $-1 $-1 $54 $-1 $31 #
face $-1 $55 $56 $33 $-1 $57 forward single #
face $-1 $58 $59 $34 $-1 $60 forward single #
face $-1 $61 $62 $35 $-1 $63 reversed single #
face $-1 $64 $65 $36 $-1 $66 reversed single #
face $-1 $67 $68 $37 $-1 $69 forward single #
face $-1 $70 $71 $38 $-1 $72 reversed single #
face $-1 $73 $74 $39 $-1 $75 forward single #
face $-1 $76 $77 $40 $-1 $78 reversed single #
face $-1 $79 $80 $41 $-1 $81 forward single #
face $-1 $82 $83 $42 $-1 $84 reversed single #
face $-1 $85 $86 $43 $-1 $87 forward single #
face $-1 $88 $89 $33 $-1 $90 reversed single #
loop $-1 $-1 $91 $44 #
plane-surface $-1 0 0 10.907470795067496 0 0 1 1 0 0 forward_v I I I I #
face $-1 $92 $93 $34 $-1 $94 reversed single #
loop $-1 $-1 $95 $45 #
plane-surface $-1 0 -40.144344102210113 0 0 1 0 0 0 1 forward_v I I I I #
face $-1 $96 $97 $35 $-1 $98 reversed single #
loop $-1 $-1 $99 $46 #
plane-surface $-1 0 35.309721766831046 6.2360360999321376 0 0 1 1 0 0 forward_v I I I I #
face $-1 $100 $101 $36 $-1 $102 reversed single #
loop $-1 $-1 $103 $47 #
plane-surface $-1 60.463540138391522 -18.026679184908019 206.92872587521518 0 -1 0 -0.66913061440640931 0 -0.74314481823134659 forward_v I I I I #
face $-1 $104 $105 $37 $-1 $106 forward single #
loop $-1 $107 $108 $48 #
cone-surface $-1 67.227915382361658 -22.299178712358945 7.2702201558404296 -0.66913061440640931 0 -0.74314481823134659 0.74314481823134659 0 -0.66913061440640931 1 I I 0 1 1 forward I I I I #
face $-1 $109 $110 $38 $-1 $111 reversed single #
loop $-1 $-1 $112 $49 #
plane-surface $-1 60.463540138391522 -1.8594196461213581 206.92872587521518 0 -1 0 -0.66913061440640931 0 -0.74314481823134659 forward_v I I I I #
face $-1 $113 $114 $39 $-1 $115 forward single #
loop $-1 $116 $117 $50 #
cone-surface $-1 67.227915382361658 -6.1319191735722853 7.2702201558404296 -0.66913061440640931 0 -0.74314481823134659 0.74314481823134659 0 -0.66913061440640931 1 I I 0 1 1 forward I I I I #
face $-1 $118 $119 $40 $-1 $120 reversed single #
loop $-1 $-1 $121 $51 #
plane-surface $-1 60.463540138391522 14.307839892665308 206.92872587521518 0 -1 0 -0.66913061440640931 0 -0.74314481823134659 forward_v I I I I #
face $-1 $122 $123 $41 $-1 $124 forward single #
loop $-1 $125 $126 $52 #
cone-surface $-1 67.227915382361658 10.035340365214381 7.2702201558404296 -0.66913061440640931 0 -0.74314481823134659 0.74314481823134659 0 -0.66913061440640931 1 I I 0 1 1 forward I I I I #
face $-1 $127 $128 $42 $-1 $129 reversed single #
loop $-1 $-1 $130 $53 #
plane-surface $-1 60.463540138391522 21.930100376550122 206.92872587521518 0 1 0 0.66913061440640931 0 0.74314481823134659 forward_v I I I I #
face $-1 $131 $132 $43 $-1 $133 forward single #
loop $-1 $134 $135 $54 #
cone-surface $-1 67.227915382361658 26.202599904001048 7.2702201558404296 -0.66913061440640931 0 -0.74314481823134659 0.74314481823134659 0 -0.66913061440640931 1 I I 0 1 1 forward I I I I #
face $-1 $136 $137 $33 $-1 $138 reversed single #
loop $-1 $-1 $139 $55 #
plane-surface $-1 0 0 -10.907470795067496 0 0 1 1 0 0 forward_v I I I I #
coedge $-1 $140 $141 $142 $143 forward $56 $-1 #
face $-1 $144 $145 $34 $-1 $146 reversed single #
loop $-1 $-1 $147 $58 #
plane-surface $-1 0 0 -10.907470795067496 0 0 1 1 0 0 forward_v I I I I #
coedge $-1 $148 $149 $150 $151 forward $59 $-1 #
face $-1 $152 $153 $35 $-1 $154 reversed single #
loop $-1 $-1 $155 $61 #
plane-surface $-1 0 30.475099431451973 8.571753447499816 0 1 0 0 0 1 forward_v I I I I #
coedge $-1 $156 $157 $158 $159 reversed $62 $-1 #
face $-1 $160 $161 $36 $-1 $162 reversed single #
loop $-1 $-1 $163 $64 #
plane-surface $-1 -34.511471059779836 -22.299178712358945 101.44829213957244 0.66913061440640931 0 0.74314481823134659 0.74314481823134659 0 -0.66913061440640931 forward_v I I I I #
coedge $-1 $164 $165 $166 $167 reversed $65 $-1 #
face $-1 $-1 $168 $37 $-1 $169 forward single #
loop $-1 $170 $171 $67 #
cone-surface $-1 65.614636100339254 -22.299178712358945 5.4784920343308698 -0.66913061440640931 0 -0.74314481823134659 0.3715724091156733 0 -0.33456530720320465 1 I I -0.70710678118654746 0.70710678118654746 0.5 forward I I I I #
loop $-1 $-1 $172 $48 #
coedge $-1 $108 $108 $173 $174 reversed $68 $-1 #
face $-1 $175 $176 $38 $-1 $177 reversed single #
loop $-1 $-1 $178 $70 #
plane-surface $-1 -34.511471059779836 -6.1319191735722853 101.44829213957244 0.66913061440640931 0 0.74314481823134659 0.74314481823134659 0 -0.66913061440640931 forward_v I I I I #
coedge $-1 $179 $180 $181 $182 reversed $71 $-1 #
face $-1 $-1 $183 $39 $-1 $184 forward single #
loop $-1 $185 $186 $73 #
cone-surface $-1 65.614636100339254 -6.1319191735722853 5.4784920343308698 -0.66913061440640931 0 -0.74314481823134659 0.3715724091156733 0 -0.33456530720320465 1 I I -0.70710678118654746 0.70710678118654746 0.5 forward I I I I #
loop $-1 $-1 $187 $50 #
coedge $-1 $117 $117 $188 $189 reversed $74 $-1 #
face $-1 $190 $191 $40 $-1 $192 reversed single #
loop $-1 $-1 $193 $76 #
plane-surface $-1 -34.511471059779836 10.035340365214381 101.44829213957244 0.66913061440640931 0 0.74314481823134659 0.74314481823134659 0 -0.66913061440640931 forward_v I I I I #
coedge $-1 $194 $195 $196 $197 reversed $77 $-1 #
face $-1 $-1 $198 $41 $-1 $199 forward single #
loop $-1 $200 $201 $79 #
cone-surface $-1 65.614636100339254 10.035340365214381 5.4784920343308698 -0.66913061440640931 0 -0.74314481823134659 0.3715724091156733 0 -0.33456530720320465 1 I I -0.70710678118654746 0.70710678118654746 0.5 forward I I I I #
loop $-1 $-1 $202 $52 #
coedge $-1 $126 $126 $203 $204 reversed $80 $-1 #
face $-1 $205 $206 $42 $-1 $207 reversed single #
loop $-1 $-1 $208 $82 #
plane-surface $-1 -34.511471059779836 26.202599904001048 101.44829213957244 0.66913061440640931 0 0.74314481823134659 0.74314481823134659 0 -0.66913061440640931 forward_v I I I I #
coedge $-1 $209 $210 $211 $212 reversed $83 $-1 #
face $-1 $-1 $213 $43 $-1 $214 forward single #
loop $-1 $215 $216 $85 #
cone-surface $-1 65.614636100339254 26.202599904001048 5.4784920343308698 -0.66913061440640931 0 -0.74314481823134659 0.3715724091156733 0 -0.33456530720320465 1 I I -0.70710678118654746 0.70710678118654746 0.5 forward I I I I #
loop $-1 $-1 $217 $54 #
coedge $-1 $135 $135 $218 $219 reversed $86 $-1 #
face $-1 $220 $221 $33 $-1 $222 reversed single #
loop $-1 $-1 $223 $88 #
plane-surface $-1 0 -40.144344102210113 0 0 1 0 0 0 1 forward_v I I I I #
coedge $-1 $224 $225 $226 $227 forward $89 $-1 #
coedge $-1 $228 $91 $229 $230 forward $56 $-1 #
coedge $-1 $91 $228 $231 $232 forward $56 $-1 #
coedge $-1 $233 $234 $91 $143 reversed $235 $-1 #
edge $-1 $236 -40.144344102210113 $237 40.144344102210113 $142 $238 forward 7 unknown #
face $-1 $239 $240 $34 $-1 $241 reversed single #
loop $-1 $-1 $242 $92 #
plane-surface $-1 -51.917954944748423 -53.717009964610355 0 0 1 0 0 0 1 forward_v I I I I #
coedge $-1 $243 $244 $149 $245 forward $93 $-1 #
coedge $-1 $246 $95 $247 $248 reversed $59 $-1 #
coedge $-1 $95 $246 $147 $245 reversed $59 $-1 #
coedge $-1 $249 $250 $95 $151 reversed $240 $-1 #
edge $-1 $251 -10.907470795067496 $252 10.907470795067496 $150 $253 forward 7 unknown #
face $-1 $254 $255 $35 $-1 $256 forward single #
loop $-1 $-1 $257 $96 #
plane-surface $-1 -70.968962675862912 0 0 1 0 0 0 0 -1 forward_v I I I I #
coedge $-1 $258 $259 $260 $261 reversed $97 $-1 #
coedge $-1 $262 $99 $258 $263 forward $62 $-1 #
coedge $-1 $99 $262 $264 $265 reversed $62 $-1 #
coedge $-1 $266 $267 $99 $159 forward $268 $-1 #
edge $-1 $269 12.82023854803645 $270 22.489483218794597 $158 $271 forward 7 unknown #
face $-1 $272 $273 $36 $-1 $274 reversed single #
loop $-1 $-1 $275 $100 #
plane-surface $-1 60.463540138391522 -26.57167823980987 206.92872587521518 0 1 0 0.66913061440640931 0 0.74314481823134659 forward_v I I I I #
coedge $-1 $276 $277 $278 $279 reversed $101 $-1 #
coedge $-1 $165 $103 $280 $281 reversed $65 $-1 #
coedge $-1 $103 $164 $276 $282 reversed $65 $-1 #
coedge $-1 $278 $283 $103 $167 forward $284 $-1 #
edge $-1 $285 -40.737192606667151 $286 -35.812525969302996 $166 $287 forward 7 unknown #
loop $-1 $-1 $173 $104 #
plane-surface $-1 -34.511471059779836 -22.299178712358945 101.44829213957244 0.66913061440640931 0 0.74314481823134659 0.74314481823134659 0 -0.66913061440640931 forward_v I I I I #
loop $-1 $-1 $288 $67 #
coedge $-1 $171 $171 $172 $289 reversed $105 $-1 #
coedge $-1 $172 $172 $171 $289 forward $107 $-1 #
coedge $-1 $173 $173 $108 $174 forward $168 $-1 #
edge $-1 $290 0 $290 6.2831853071796004 $173 $291 forward 7 unknown #
face $-1 $292 $293 $38 $-1 $294 reversed single #
loop $-1 $-1 $295 $109 #
plane-surface $-1 60.463540138391522 -10.404418701023213 206.92872587521518 0 1 0 0.66913061440640931 0 0.74314481823134659 forward_v I I I I #
coedge $-1 $296 $297 $298 $299 reversed $110 $-1 #
coedge $-1 $180 $112 $300 $301 reversed $71 $-1 #
coedge $-1 $112 $179 $296 $302 reversed $71 $-1 #
coedge $-1 $298 $303 $112 $182 forward $304 $-1 #
edge $-1 $305 -40.737192606667151 $306 -35.812525969302996 $181 $307 forward 7 unknown #
loop $-1 $-1 $188 $113 #
plane-surface $-1 -34.511471059779836 -6.1319191735722853 101.44829213957244 0.66913061440640931 0 0.74314481823134659 0.74314481823134659 0 -0.66913061440640931 forward_v I I I I #
loop $-1 $-1 $308 $73 #
coedge $-1 $186 $186 $187 $309 reversed $114 $-1 #
coedge $-1 $187 $187 $186 $309 forward $116 $-1 #
coedge $-1 $188 $188 $117 $189 forward $183 $-1 #
edge $-1 $310 0 $310 6.2831853071796004 $188 $311 forward 7 unknown #
face $-1 $312 $313 $40 $-1 $314 reversed single #
loop $-1 $-1 $315 $118 #
plane-surface $-1 60.463540138391522 5.7628408377634539 206.92872587521518 0 1 0 0.66913061440640931 0 0.74314481823134659 forward_v I I I I #
coedge $-1 $316 $317 $318 $319 reversed $119 $-1 #
coedge $-1 $195 $121 $320 $321 reversed $77 $-1 #
coedge $-1 $121 $194 $316 $322 reversed $77 $-1 #
coedge $-1 $318 $323 $121 $197 forward $324 $-1 #
edge $-1 $325 -40.737192606667151 $326 -35.812525969302996 $196 $327 forward 7 unknown #
loop $-1 $-1 $203 $122 #
plane-surface $-1 -34.511471059779836 10.035340365214381 101.44829213957244 0.66913061440640931 0 0.74314481823134659 0.74314481823134659 0 -0.66913061440640931 forward_v I I I I #
loop $-1 $-1 $328 $79 #
coedge $-1 $201 $201 $202 $329 reversed $123 $-1 #
coedge $-1 $202 $202 $201 $329 forward $125 $-1 #
coedge $-1 $203 $203 $126 $204 forward $198 $-1 #
edge $-1 $330 0 $330 6.2831853071796004 $203 $331 forward 7 unknown #
face $-1 $332 $333 $42 $-1 $334 forward single #
loop $-1 $-1 $211 $127 #
plane-surface $-1 70.968962675862912 0 0 -1 0 0 0 0 1 forward_v I I I I #
coedge $-1 $335 $336 $337 $338 reversed $128 $-1 #
coedge $-1 $210 $130 $339 $340 reversed $83 $-1 #
coedge $-1 $130 $209 $335 $341 reversed $83 $-1 #
coedge $-1 $337 $342 $130 $212 forward $206 $-1 #
edge $-1 $343 92.556892142540093 $344 96.991081996206518 $211 $345 forward 7 unknown #
loop $-1 $-1 $218 $131 #
plane-surface $-1 -34.511471059779836 26.202599904001048 101.44829213957244 0.66913061440640931 0 0.74314481823134659 0.74314481823134659 0 -0.66913061440640931 forward_v I I I I #
loop $-1 $-1 $346 $85 #
coedge $-1 $216 $216 $217 $347 reversed $132 $-1 #
coedge $-1 $217 $217 $216 $347 forward $134 $-1 #
coedge $-1 $218 $218 $135 $219 forward $213 $-1 #
edge $-1 $348 0 $348 6.2831853071796004 $218 $349 forward 7 unknown #
face $-1 $350 $351 $33 $-1 $352 reversed single #
loop $-1 $-1 $353 $136 #
plane-surface $-1 -70.968962675862912 0 0 1 0 0 0 0 -1 forward_v I I I I #
coedge $-1 $354 $231 $355 $356 forward $137 $-1 #
coedge $-1 $357 $139 $354 $358 forward $89 $-1 #
coedge $-1 $139 $357 $359 $360 forward $89 $-1 #
coedge $-1 $234 $233 $139 $227 reversed $235 $-1 #
edge $-1 $361 -40.144344102210113 $362 40.144344102210113 $226 $363 forward 7 unknown #
coedge $-1 $141 $140 $364 $365 forward $56 $-1 #
coedge $-1 $366 $367 $140 $230 reversed $351 $-1 #
edge $-1 $237 -70.968962675862912 $368 70.968962675862912 $229 $369 forward 7 unknown #
coedge $-1 $223 $370 $141 $232 reversed $137 $-1 #
edge $-1 $371 -70.968962675862912 $236 70.968962675862912 $231 $372 forward 7 unknown #
coedge $-1 $226 $142 $370 $373 forward $235 $-1 #
coedge $-1 $142 $226 $366 $374 reversed $235 $-1 #
loop $-1 $-1 $233 $350 #
vertex $-1 $143 $375 #
vertex $-1 $143 $376 #
straight-curve $-1 70.968962675862912 0 10.907470795067496 0 1 0 I I #
face $-1 $377 $378 $34 $-1 $379 reversed single #
loop $-1 $-1 $150 $144 #
plane-surface $-1 -54.681888803768928 -46.930677033410234 0 1 0 0 0 0 -1 forward_v I I I I #
coedge $-1 $380 $381 $382 $383 forward $145 $-1 #
coedge $-1 $384 $147 $385 $386 forward $93 $-1 #
coedge $-1 $147 $384 $249 $387 forward $93 $-1 #
edge $-1 $251 -54.681888803768928 $388 -49.154021085727919 $147 $389 forward 7 unknown #
coedge $-1 $149 $148 $390 $391 forward $59 $-1 #
coedge $-1 $392 $393 $148 $248 forward $394 $-1 #
edge $-1 $395 49.154021085727919 $252 54.681888803768928 $247 $396 forward 7 unknown #
coedge $-1 $382 $150 $244 $387 reversed $240 $-1 #
coedge $-1 $150 $382 $392 $397 reversed $240 $-1 #
vertex $-1 $245 $398 #
vertex $-1 $397 $399 #
straight-curve $-1 -54.681888803768928 -40.144344102210113 0 0 0 1 I I #
face $-1 $400 $401 $35 $-1 $402 reversed single #
loop $-1 $-1 $403 $152 #
plane-surface $-1 0 0 10.907470795067496 0 0 1 1 0 0 forward_v I I I I #
coedge $-1 $260 $404 $262 $405 forward $153 $-1 #
coedge $-1 $406 $155 $156 $263 reversed $97 $-1 #
coedge $-1 $155 $406 $403 $407 reversed $97 $-1 #
coedge $-1 $408 $257 $155 $261 forward $153 $-1 #
edge $-1 $409 1.9501593761822296 $410 6.6215940713175865 $260 $411 forward 7 unknown #
coedge $-1 $157 $156 $257 $405 reversed $62 $-1 #
edge $-1 $269 -70.968962675862912 $409 70.968962675862912 $258 $412 forward 7 unknown #
coedge $-1 $413 $414 $157 $265 forward $401 $-1 #
edge $-1 $270 -70.968962675862912 $415 70.968962675862912 $264 $416 forward 7 unknown #
coedge $-1 $417 $158 $414 $418 reversed $268 $-1 #
coedge $-1 $158 $417 $406 $419 forward $268 $-1 #
loop $-1 $-1 $158 $400 #
vertex $-1 $159 $420 #
vertex $-1 $159 $421 #
straight-curve $-1 70.968962675862912 17.654860883415523 6.2360360999321376 0 1 0 I I #
face $-1 $-1 $284 $36 $-1 $422 forward single #
loop $-1 $-1 $423 $160 #
plane-surface $-1 70.968962675862912 0 0 -1 0 0 0 0 1 forward_v I I I I #
coedge $-1 $424 $425 $426 $427 reversed $161 $-1 #
coedge $-1 $428 $163 $165 $282 forward $101 $-1 #
coedge $-1 $163 $428 $424 $429 forward $101 $-1 #
coedge $-1 $426 $166 $163 $279 forward $284 $-1 #
edge $-1 $286 6.8770898287285469 $430 15.422088883630398 $278 $431 forward 7 unknown #
coedge $-1 $432 $433 $164 $281 forward $273 $-1 #
edge $-1 $434 -96.991081996206518 $285 -92.556892142540093 $280 $435 forward 7 unknown #
edge $-1 $286 135.31113267747341 $434 141.93792535172582 $165 $436 forward 7 unknown #
coedge $-1 $166 $426 $432 $437 forward $284 $-1 #
loop $-1 $-1 $426 $272 #
vertex $-1 $281 $438 #
vertex $-1 $167 $439 #
straight-curve $-1 30.231770069195761 -18.026679184908019 10.907470795067496 -1 0 0 I I #
coedge $-1 $288 $288 $-1 $440 reversed $170 $-1 #
edge $-1 $441 0 $441 6.2831853071796004 $171 $442 forward 7 unknown #
vertex $-1 $174 $443 #
ellipse-curve $-1 68.506629357180827 -22.299178712358945 8.6903758682342858 0.66913061440640931 0 0.74314481823134659 0.74314481823134659 0 -0.66913061440640931 1 I I #
face $-1 $-1 $304 $38 $-1 $444 forward single #
loop $-1 $-1 $445 $175 #
plane-surface $-1 70.968962675862912 0 0 -1 0 0 0 0 1 forward_v I I I I #
coedge $-1 $446 $447 $448 $449 reversed $176 $-1 #
coedge $-1 $450 $178 $180 $302 forward $110 $-1 #
coedge $-1 $178 $450 $446 $451 forward $110 $-1 #
coedge $-1 $448 $181 $178 $299 forward $304 $-1 #
edge $-1 $306 -1.2065399406647845 $452 7.3384591142370699 $298 $453 forward 7 unknown #
coedge $-1 $454 $455 $179 $301 forward $293 $-1 #
edge $-1 $456 -96.991081996206518 $305 -92.556892142540093 $300 $457 forward 7 unknown #
edge $-1 $306 135.31113267747341 $456 141.93792535172582 $180 $458 forward 7 unknown #
coedge $-1 $181 $448 $454 $459 forward $304 $-1 #
loop $-1 $-1 $448 $292 #
vertex $-1 $301 $460 #
vertex $-1 $182 $461 #
straight-curve $-1 30.231770069195761 -1.8594196461213581 10.907470795067496 -1 0 0 I I #
coedge $-1 $308 $308 $-1 $462 reversed $185 $-1 #
edge $-1 $463 0 $463 6.2831853071796004 $186 $464 forward 7 unknown #
vertex $-1 $189 $465 #
ellipse-curve $-1 68.506629357180827 -6.1319191735722853 8.6903758682342858 0.66913061440640931 0 0.74314481823134659 0.74314481823134659 0 -0.66913061440640931 1 I I #
face $-1 $-1 $324 $40 $-1 $466 forward single #
loop $-1 $-1 $467 $190 #
plane-surface $-1 70.968962675862912 0 0 -1 0 0 0 0 1 forward_v I I I I #
coedge $-1 $468 $469 $470 $471 reversed $191 $-1 #
coedge $-1 $472 $193 $195 $322 forward $119 $-1 #
coedge $-1 $193 $472 $468 $473 forward $119 $-1 #
coedge $-1 $470 $196 $193 $319 forward $324 $-1 #
edge $-1 $326 -9.2901697100581178 $474 -0.74517065515626335 $318 $475 forward 7 unknown #
coedge $-1 $476 $477 $194 $321 forward $313 $-1 #
edge $-1 $478 -96.991081996206518 $325 -92.556892142540093 $320 $479 forward 7 unknown #
edge $-1 $326 135.31113267747341 $478 141.93792535172582 $195 $480 forward 7 unknown #
coedge $-1 $196 $470 $476 $481 forward $324 $-1 #
loop $-1 $-1 $470 $312 #
vertex $-1 $321 $482 #
vertex $-1 $197 $483 #
straight-curve $-1 30.231770069195761 14.307839892665308 10.907470795067496 -1 0 0 I I #
coedge $-1 $328 $328 $-1 $484 reversed $200 $-1 #
edge $-1 $485 0 $485 6.2831853071796004 $201 $486 forward 7 unknown #
vertex $-1 $204 $487 #
ellipse-curve $-1 68.506629357180827 10.035340365214381 8.6903758682342858 0.66913061440640931 0 0.74314481823134659 0.74314481823134659 0 -0.66913061440640931 1 I I #
face $-1 $-1 $488 $42 $-1 $489 forward single #
loop $-1 $-1 $490 $205 #
plane-surface $-1 0 30.475099431451973 8.571753447499816 0 1 0 0 0 1 forward_v I I I I #
coedge $-1 $491 $208 $210 $341 forward $128 $-1 #
coedge $-1 $208 $491 $490 $492 reversed $128 $-1 #
coedge $-1 $493 $211 $208 $338 forward $206 $-1 #
edge $-1 $344 8.8288004245495983 $494 17.373799479451449 $337 $495 forward 7 unknown #
coedge $-1 $496 $497 $209 $340 forward $488 $-1 #
edge $-1 $498 35.812525969302996 $343 40.737192606667151 $339 $499 forward 7 unknown #
edge $-1 $344 -141.93792535172582 $498 -135.31113267747341 $210 $500 forward 7 unknown #
coedge $-1 $211 $493 $496 $501 reversed $206 $-1 #
vertex $-1 $501 $502 #
vertex $-1 $212 $503 #
straight-curve $-1 70.968962675862912 21.930100376550122 103.46436293760759 0 0 -1 I I #
coedge $-1 $346 $346 $-1 $504 reversed $215 $-1 #
edge $-1 $505 0 $505 6.2831853071796004 $216 $506 forward 7 unknown #
vertex $-1 $219 $507 #
ellipse-curve $-1 68.506629357180827 26.202599904001048 8.6903758682342858 0.66913061440640931 0 0.74314481823134659 0.74314481823134659 0 -0.66913061440640931 1 I I #
face $-1 $-1 $235 $33 $-1 $508 reversed single #
loop $-1 $-1 $366 $220 #
plane-surface $-1 0 40.144344102210113 0 0 -1 0 0 0 -1 forward_v I I I I #
coedge $-1 $509 $364 $367 $510 forward $221 $-1 #
coedge $-1 $370 $223 $224 $358 reversed $137 $-1 #
coedge $-1 $364 $509 $223 $356 reversed $221 $-1 #
edge $-1 $371 -10.907470795067496 $511 10.907470795067496 $355 $512 forward 7 unknown #
coedge $-1 $225 $224 $509 $513 forward $89 $-1 #
edge $-1 $362 -70.968962675862912 $511 70.968962675862912 $354 $514 forward 7 unknown #
coedge $-1 $367 $366 $225 $360 reversed $351 $-1 #
edge $-1 $515 -70.968962675862912 $361 70.968962675862912 $359 $516 forward 7 unknown #
vertex $-1 $227 $517 #
vertex $-1 $373 $518 #
straight-curve $-1 70.968962675862912 0 -10.907470795067496 0 -1 0 I I #
coedge $-1 $353 $355 $228 $365 reversed $221 $-1 #
edge $-1 $368 -40.144344102210113 $371 40.144344102210113 $364 $519 forward 7 unknown #
coedge $-1 $359 $229 $234 $374 forward $351 $-1 #
coedge $-1 $229 $359 $353 $510 reversed $351 $-1 #
vertex $-1 $230 $520 #
straight-curve $-1 0 40.144344102210113 10.907470795067496 -1 0 0 I I #
coedge $-1 $231 $354 $233 $373 reversed $137 $-1 #
vertex $-1 $365 $521 #
straight-curve $-1 0 -40.144344102210113 10.907470795067496 1 0 0 I I #
edge $-1 $236 -10.907470795067496 $362 10.907470795067496 $233 $522 forward 7 unknown #
edge $-1 $237 -10.907470795067496 $361 10.907470795067496 $234 $523 forward 7 unknown #
point $-1 70.968962675862912 -40.144344102210113 10.907470795067496 #
point $-1 70.968962675862912 40.144344102210113 10.907470795067496 #
face $-1 $-1 $394 $34 $-1 $524 forward single #
loop $-1 $-1 $525 $239 #
plane-surface $-1 -49.154021085727919 -46.930677033410234 0 -1 0 0 0 0 1 forward_v I I I I #
coedge $-1 $526 $242 $384 $527 reversed $145 $-1 #
coedge $-1 $242 $526 $528 $529 reversed $145 $-1 #
coedge $-1 $250 $249 $242 $383 reversed $240 $-1 #
edge $-1 $530 -10.907470795067496 $531 10.907470795067496 $382 $532 forward 7 unknown #
coedge $-1 $244 $243 $380 $527 forward $93 $-1 #
coedge $-1 $390 $525 $243 $386 reversed $378 $-1 #
edge $-1 $388 -6.7863329312001213 $533 6.7863329312001213 $385 $534 forward 7 unknown #
edge $-1 $531 -6.7863329312001213 $251 6.7863329312001213 $249 $535 forward 7 unknown #
vertex $-1 $386 $536 #
straight-curve $-1 0 -40.144344102210113 -10.907470795067496 1 0 0 I I #
coedge $-1 $537 $385 $246 $391 reversed $378 $-1 #
edge $-1 $395 -10.907470795067496 $388 10.907470795067496 $390 $538 forward 7 unknown #
coedge $-1 $528 $247 $250 $397 forward $394 $-1 #
coedge $-1 $247 $528 $537 $539 forward $394 $-1 #
loop $-1 $-1 $247 $377 #
vertex $-1 $248 $540 #
straight-curve $-1 0 -40.144344102210113 10.907470795067496 -1 0 0 I I #
edge $-1 $252 -6.7863329312001213 $530 6.7863329312001213 $250 $541 forward 7 unknown #
point $-1 -54.681888803768928 -40.144344102210113 -10.907470795067496 #
point $-1 -54.681888803768928 -40.144344102210113 10.907470795067496 #
face $-1 $-1 $268 $35 $-1 $542 reversed single #
loop $-1 $-1 $264 $254 #
plane-surface $-1 0 40.144344102210113 0 0 -1 0 0 0 -1 forward_v I I I I #
coedge $-1 $543 $544 $259 $407 forward $255 $-1 #
coedge $-1 $257 $408 $413 $545 forward $153 $-1 #
edge $-1 $415 -22.489483218794597 $409 -12.82023854803645 $257 $546 forward 7 unknown #
coedge $-1 $259 $258 $267 $419 reversed $97 $-1 #
edge $-1 $410 -70.968962675862912 $547 70.968962675862912 $403 $548 forward 7 unknown #
coedge $-1 $404 $260 $544 $549 reversed $153 $-1 #
vertex $-1 $405 $550 #
vertex $-1 $407 $551 #
straight-curve $-1 -70.968962675862912 30.475099431451973 4.285876723749908 0 0 1 I I #
straight-curve $-1 0 30.475099431451973 6.2360360999321376 -1 0 0 I I #
coedge $-1 $552 $264 $404 $545 reversed $401 $-1 #
coedge $-1 $264 $552 $266 $418 forward $401 $-1 #
vertex $-1 $405 $553 #
straight-curve $-1 0 40.144344102210113 6.2360360999321376 -1 0 0 I I #
coedge $-1 $267 $266 $543 $554 reversed $268 $-1 #
edge $-1 $555 -10.907470795067496 $270 -6.2360360999321376 $266 $556 forward 7 unknown #
edge $-1 $547 -6.6215940713175865 $269 -1.9501593761822296 $267 $557 forward 7 unknown #
point $-1 70.968962675862912 30.475099431451973 6.2360360999321376 #
point $-1 70.968962675862912 40.14434410221012 6.2360360999321376 #
plane-surface $-1 0 0 10.907470795067496 0 0 1 1 0 0 forward_v I I I I #
coedge $-1 $433 $432 $425 $558 forward $273 $-1 #
coedge $-1 $425 $275 $277 $429 reversed $161 $-1 #
coedge $-1 $275 $424 $423 $558 reversed $161 $-1 #
coedge $-1 $283 $278 $275 $427 forward $284 $-1 #
edge $-1 $430 35.812525969302996 $559 40.737192606667151 $426 $560 forward 7 unknown #
coedge $-1 $277 $276 $433 $561 reversed $101 $-1 #
edge $-1 $562 -141.93792535172582 $430 -135.31113267747341 $424 $563 forward 7 unknown #
vertex $-1 $279 $564 #
straight-curve $-1 66.044296038498771 -11.149589356179472 10.907470795067496 0 -1 0 I I #
coedge $-1 $423 $280 $283 $437 reversed $273 $-1 #
coedge $-1 $280 $423 $428 $561 forward $273 $-1 #
vertex $-1 $281 $565 #
straight-curve $-1 70.968962675862912 -18.026679184908019 103.46436293760759 0 0 1 I I #
straight-curve $-1 -34.511471059779836 -18.026679184908019 101.44829213957244 0.74314481823134659 0 -0.66913061440640931 I I #
edge $-1 $559 -26.57167823980987 $285 -18.026679184908019 $432 $566 forward 7 unknown #
point $-1 70.968962675862912 -18.026679184908019 10.907470795067496 #
point $-1 66.044296038498757 -18.026679184908019 10.907470795067496 #
edge $-1 $567 1 $567 0 $288 $-1 forward 7 unknown #
vertex $-1 $289 $568 #
ellipse-curve $-1 65.949201407542461 -22.299178712358945 5.8500644434465432 0.66913061440640931 0 0.74314481823134659 0.74314481823134659 0 -0.66913061440640931 1 I I #
point $-1 69.249774175412199 -22.299178712358945 8.0212452538279067 #
plane-surface $-1 0 0 10.907470795067496 0 0 1 1 0 0 forward_v I I I I #
coedge $-1 $455 $454 $447 $569 forward $293 $-1 #
coedge $-1 $447 $295 $297 $451 reversed $176 $-1 #
coedge $-1 $295 $446 $445 $569 reversed $176 $-1 #
coedge $-1 $303 $298 $295 $449 forward $304 $-1 #
edge $-1 $452 35.812525969302996 $570 40.737192606667151 $448 $571 forward 7 unknown #
coedge $-1 $297 $296 $455 $572 reversed $110 $-1 #
edge $-1 $573 -141.93792535172582 $452 -135.31113267747341 $446 $574 forward 7 unknown #
vertex $-1 $299 $575 #
straight-curve $-1 66.044296038498771 -3.0659595867861427 10.907470795067496 0 -1 0 I I #
coedge $-1 $445 $300 $303 $459 reversed $293 $-1 #
coedge $-1 $300 $445 $450 $572 forward $293 $-1 #
vertex $-1 $301 $576 #
straight-curve $-1 70.968962675862912 -1.8594196461213581 103.46436293760759 0 0 1 I I #
straight-curve $-1 -34.511471059779836 -1.8594196461213581 101.44829213957244 0.74314481823134659 0 -0.66913061440640931 I I #
edge $-1 $570 -10.404418701023213 $305 -1.8594196461213581 $454 $577 forward 7 unknown #
point $-1 70.968962675862912 -1.8594196461213581 10.907470795067496 #
point $-1 66.044296038498757 -1.8594196461213581 10.907470795067496 #
edge $-1 $578 1 $578 0 $308 $-1 forward 7 unknown #
vertex $-1 $309 $579 #
ellipse-curve $-1 65.949201407542461 -6.1319191735722853 5.8500644434465432 0.66913061440640931 0 0.74314481823134659 0.74314481823134659 0 -0.66913061440640931 1 I I #
point $-1 69.249774175412199 -6.1319191735722853 8.0212452538279067 #
plane-surface $-1 0 0 10.907470795067496 0 0 1 1 0 0 forward_v I I I I #
coedge $-1 $477 $476 $469 $580 forward $313 $-1 #
coedge $-1 $469 $315 $317 $473 reversed $191 $-1 #
coedge $-1 $315 $468 $467 $580 reversed $191 $-1 #
coedge $-1 $323 $318 $315 $471 forward $324 $-1 #
edge $-1 $474 35.812525969302996 $581 40.737192606667151 $470 $582 forward 7 unknown #
coedge $-1 $317 $316 $477 $583 reversed $119 $-1 #
edge $-1 $584 -141.93792535172582 $474 -135.31113267747341 $468 $585 forward 7 unknown #
vertex $-1 $319 $586 #
straight-curve $-1 66.044296038498771 5.0176701826071906 10.907470795067496 0 -1 0 I I #
coedge $-1 $467 $320 $323 $481 reversed $313 $-1 #
coedge $-1 $320 $467 $472 $583 forward $313 $-1 #
vertex $-1 $321 $587 #
straight-curve $-1 70.968962675862912 14.307839892665308 103.46436293760759 0 0 1 I I #
straight-curve $-1 -34.511471059779836 14.307839892665308 101.44829213957244 0.74314481823134659 0 -0.66913061440640931 I I #
edge $-1 $581 5.7628408377634539 $325 14.307839892665308 $476 $588 forward 7 unknown #
point $-1 70.968962675862912 14.307839892665308 10.907470795067496 #
point $-1 66.044296038498757 14.307839892665308 10.907470795067496 #
edge $-1 $589 1 $589 0 $328 $-1 forward 7 unknown #
vertex $-1 $329 $590 #
ellipse-curve $-1 65.949201407542461 10.035340365214381 5.8500644434465432 0.66913061440640931 0 0.74314481823134659 0.74314481823134659 0 -0.66913061440640931 1 I I #
point $-1 69.249774175412199 10.035340365214381 8.0212452538279067 #
loop $-1 $-1 $339 $332 #
plane-surface $-1 0 0 10.907470795067496 0 0 1 1 0 0 forward_v I I I I #
coedge $-1 $591 $592 $336 $492 forward $333 $-1 #
coedge $-1 $336 $335 $497 $593 reversed $128 $-1 #
edge $-1 $494 -98.041147208434012 $594 -91.41435453418157 $490 $595 forward 7 unknown #
coedge $-1 $342 $337 $592 $596 forward $206 $-1 #
vertex $-1 $596 $597 #
straight-curve $-1 70.968962675862912 13.101299952000524 6.4732809414010646 0 1 0 I I #
coedge $-1 $598 $339 $342 $501 forward $488 $-1 #
coedge $-1 $339 $598 $491 $593 forward $488 $-1 #
vertex $-1 $340 $599 #
straight-curve $-1 30.231770069195761 21.930100376550122 10.907470795067496 1 0 0 I I #
straight-curve $-1 -34.511471059779836 21.930100376550122 101.44829213957244 -0.74314481823134659 0 0.66913061440640931 I I #
edge $-1 $343 21.930100376550122 $600 30.475099431451973 $342 $601 forward 7 unknown #
point $-1 70.968962675862912 21.930100376550122 10.907470795067496 #
point $-1 70.968962675862912 21.930100376550122 6.4732809414010717 #
edge $-1 $602 1 $602 0 $346 $-1 forward 7 unknown #
vertex $-1 $347 $603 #
ellipse-curve $-1 65.949201407542461 26.202599904001048 5.8500644434465432 0.66913061440640931 0 0.74314481823134659 0.74314481823134659 0 -0.66913061440640931 1 I I #
point $-1 69.249774175412199 26.202599904001048 8.0212452538279067 #
plane-surface $-1 70.968962675862912 0 0 -1 0 0 0 0 1 forward_v I I I I #
coedge $-1 $355 $353 $357 $513 reversed $221 $-1 #
edge $-1 $368 -10.907470795067496 $515 10.907470795067496 $367 $604 forward 7 unknown #
vertex $-1 $513 $605 #
straight-curve $-1 -70.968962675862912 -40.144344102210113 0 0 0 -1 I I #
edge $-1 $511 -40.144344102210113 $515 40.144344102210113 $509 $606 forward 7 unknown #
straight-curve $-1 0 -40.144344102210113 -10.907470795067496 -1 0 0 I I #
vertex $-1 $360 $607 #
straight-curve $-1 0 40.144344102210113 -10.907470795067496 1 0 0 I I #
point $-1 70.968962675862912 40.144344102210113 -10.907470795067496 #
point $-1 70.968962675862912 -40.144344102210113 -10.907470795067496 #
straight-curve $-1 -70.968962675862912 0 10.907470795067496 0 -1 0 I I #
point $-1 -70.968962675862912 40.144344102210113 10.907470795067496 #
point $-1 -70.968962675862912 -40.144344102210113 10.907470795067496 #
straight-curve $-1 70.968962675862912 -40.144344102210113 0 0 0 -1 I I #
straight-curve $-1 70.968962675862912 40.144344102210113 0 0 0 -1 I I #
plane-surface $-1 0 0 10.907470795067496 0 0 1 1 0 0 forward_v I I I I #
coedge $-1 $385 $537 $526 $608 forward $378 $-1 #
coedge $-1 $381 $380 $525 $608 reversed $145 $-1 #
edge $-1 $533 -2.7639338590205043 $531 2.7639338590205043 $380 $609 forward 7 unknown #
coedge $-1 $393 $392 $381 $529 forward $394 $-1 #
edge $-1 $530 -2.7639338590205043 $610 2.7639338590205043 $381 $611 forward 7 unknown #
vertex $-1 $397 $612 #
vertex $-1 $387 $613 #
straight-curve $-1 -54.681888803768928 -53.717009964610355 0 0 0 -1 I I #
vertex $-1 $608 $614 #
straight-curve $-1 -49.154021085727919 -46.930677033410234 -10.907470795067496 0 -1 0 I I #
straight-curve $-1 -54.681888803768928 -46.930677033410234 -10.907470795067496 0 1 0 I I #
point $-1 -49.154021085727919 -40.144344102210113 -10.907470795067496 #
coedge $-1 $525 $390 $393 $539 reversed $378 $-1 #
straight-curve $-1 -49.154021085727919 -40.144344102210113 0 0 0 -1 I I #
edge $-1 $610 -6.7863329312001213 $395 6.7863329312001213 $537 $615 forward 7 unknown #
point $-1 -49.154021085727919 -40.144344102210113 10.907470795067496 #
straight-curve $-1 -54.681888803768928 -46.930677033410234 10.907470795067496 0 -1 0 I I #
plane-surface $-1 70.968962675862912 0 0 -1 0 0 0 0 1 forward_v I I I I #
coedge $-1 $616 $403 $417 $554 forward $255 $-1 #
coedge $-1 $403 $616 $408 $549 forward $255 $-1 #
edge $-1 $617 -10.907470795067496 $415 -6.2360360999321376 $413 $618 forward 7 unknown #
straight-curve $-1 -70.968962675862912 17.654860883415523 6.2360360999321376 0 -1 0 I I #
vertex $-1 $554 $619 #
straight-curve $-1 0 30.475099431451973 10.907470795067496 1 0 0 I I #
edge $-1 $617 -40.144344102210113 $410 -30.475099431451973 $408 $620 forward 7 unknown #
point $-1 -70.968962675862912 30.475099431451973 6.2360360999321376 #
point $-1 -70.968962675862912 30.475099431451973 10.907470795067495 #
coedge $-1 $414 $413 $616 $621 reversed $401 $-1 #
point $-1 -70.968962675862912 40.14434410221012 6.2360360999321376 #
edge $-1 $547 30.475099431451973 $555 40.144344102210113 $417 $622 forward 7 unknown #
vertex $-1 $554 $623 #
straight-curve $-1 70.968962675862912 40.144344102210113 0 0 0 -1 I I #
straight-curve $-1 70.968962675862912 30.475099431451973 4.285876723749908 0 0 -1 I I #
edge $-1 $559 92.556892142540093 $562 96.991081996206518 $423 $624 forward 7 unknown #
vertex $-1 $437 $625 #
straight-curve $-1 30.231770069195761 -26.57167823980987 10.907470795067496 1 0 0 I I #
edge $-1 $562 -15.422088883630398 $434 -6.8770898287285469 $433 $626 forward 7 unknown #
vertex $-1 $561 $627 #
straight-curve $-1 -34.511471059779836 -26.57167823980987 101.44829213957244 -0.74314481823134659 0 0.66913061440640931 I I #
point $-1 66.044296038498757 -26.57167823980987 10.907470795067496 #
point $-1 70.968962675862912 -18.026679184908019 6.4732809414010717 #
straight-curve $-1 70.968962675862912 0 10.907470795067496 0 1 0 I I #
vertex $-1 $440 $628 #
point $-1 66.692346225773804 -22.299178712358945 5.1809338290401339 #
edge $-1 $570 92.556892142540093 $573 96.991081996206518 $445 $629 forward 7 unknown #
vertex $-1 $459 $630 #
straight-curve $-1 30.231770069195761 -10.404418701023213 10.907470795067496 1 0 0 I I #
edge $-1 $573 -7.3384591142370699 $456 1.2065399406647845 $455 $631 forward 7 unknown #
vertex $-1 $572 $632 #
straight-curve $-1 -34.511471059779836 -10.404418701023213 101.44829213957244 -0.74314481823134659 0 0.66913061440640931 I I #
point $-1 66.044296038498757 -10.404418701023213 10.907470795067496 #
point $-1 70.968962675862912 -1.8594196461213581 6.4732809414010717 #
straight-curve $-1 70.968962675862912 0 10.907470795067496 0 1 0 I I #
vertex $-1 $462 $633 #
point $-1 66.692346225773804 -6.1319191735722853 5.1809338290401339 #
edge $-1 $581 92.556892142540093 $584 96.991081996206518 $467 $634 forward 7 unknown #
vertex $-1 $481 $635 #
straight-curve $-1 30.231770069195761 5.7628408377634539 10.907470795067496 1 0 0 I I #
edge $-1 $584 0.74517065515626335 $478 9.2901697100581178 $477 $636 forward 7 unknown #
vertex $-1 $583 $637 #
straight-curve $-1 -34.511471059779836 5.7628408377634539 101.44829213957244 -0.74314481823134659 0 0.66913061440640931 I I #
point $-1 66.044296038498757 5.7628408377634539 10.907470795067496 #
point $-1 70.968962675862912 14.307839892665308 6.4732809414010717 #
straight-curve $-1 70.968962675862912 0 10.907470795067496 0 1 0 I I #
vertex $-1 $484 $638 #
point $-1 66.692346225773804 10.035340365214381 5.1809338290401339 #
coedge $-1 $592 $490 $598 $639 reversed $333 $-1 #
coedge $-1 $490 $591 $493 $596 reversed $333 $-1 #
edge $-1 $594 -17.373799479451449 $498 -8.8288004245495983 $497 $640 forward 7 unknown #
vertex $-1 $593 $641 #
straight-curve $-1 -1.8898078455414797 30.475099431451973 72.075614010089737 -0.74314481823134659 0 0.66913061440640931 I I #
edge $-1 $494 2.1874042176511566 $600 6.6215940713175865 $493 $642 forward 7 unknown #
point $-1 70.968962675862912 30.475099431451973 6.4732809414010646 #
coedge $-1 $497 $496 $591 $639 forward $488 $-1 #
point $-1 66.044296038498757 21.930100376550122 10.907470795067496 #
vertex $-1 $639 $643 #
straight-curve $-1 70.968962675862912 0 10.907470795067496 0 1 0 I I #
vertex $-1 $504 $644 #
point $-1 66.692346225773804 26.202599904001048 5.1809338290401339 #
straight-curve $-1 -70.968962675862912 40.144344102210113 0 0 0 -1 I I #
point $-1 -70.968962675862912 -40.144344102210113 -10.907470795067496 #
straight-curve $-1 -70.968962675862912 0 -10.907470795067496 0 1 0 I I #
point $-1 -70.968962675862912 40.144344102210113 -10.907470795067496 #
edge $-1 $610 -10.907470795067496 $533 10.907470795067496 $525 $645 forward 7 unknown #
straight-curve $-1 -51.917954944748423 -53.717009964610355 -10.907470795067496 -1 0 0 I I #
vertex $-1 $539 $646 #
straight-curve $-1 -51.917954944748423 -53.717009964610355 10.907470795067496 1 0 0 I I #
point $-1 -54.681888803768928 -53.717009964610355 10.907470795067496 #
point $-1 -54.681888803768928 -53.717009964610355 -10.907470795067496 #
point $-1 -49.154021085727919 -53.717009964610355 -10.907470795067496 #
straight-curve $-1 -49.154021085727919 -46.930677033410234 10.907470795067496 0 1 0 I I #
coedge $-1 $544 $543 $552 $621 forward $255 $-1 #
vertex $-1 $621 $647 #
straight-curve $-1 -70.968962675862912 40.144344102210113 0 0 0 -1 I I #
point $-1 70.968962675862912 30.475099431451973 10.907470795067495 #
straight-curve $-1 -70.968962675862912 0 10.907470795067496 0 -1 0 I I #
edge $-1 $555 -70.968962675862912 $617 70.968962675862912 $552 $648 forward 7 unknown #
straight-curve $-1 70.968962675862912 0 10.907470795067496 0 1 0 I I #
point $-1 70.968962675862912 40.144344102210113 10.907470795067496 #
straight-curve $-1 70.968962675862912 -26.57167823980987 103.46436293760759 0 0 -1 I I #
point $-1 70.968962675862912 -26.57167823980987 10.907470795067496 #
straight-curve $-1 70.968962675862912 -11.149589356179472 6.4732809414010646 0 1 0 I I #
point $-1 70.968962675862912 -26.57167823980987 6.4732809414010717 #
point $-1 65.280070793136048 -22.299178712358945 5.1069196252151965 #
straight-curve $-1 70.968962675862912 -10.404418701023213 103.46436293760759 0 0 -1 I I #
point $-1 70.968962675862912 -10.404418701023213 10.907470795067496 #
straight-curve $-1 70.968962675862912 -3.0659595867861427 6.4732809414010646 0 1 0 I I #
point $-1 70.968962675862912 -10.404418701023213 6.4732809414010717 #
point $-1 65.280070793136048 -6.1319191735722853 5.1069196252151965 #
straight-curve $-1 70.968962675862912 5.7628408377634539 103.46436293760759 0 0 -1 I I #
point $-1 70.968962675862912 5.7628408377634539 10.907470795067496 #
straight-curve $-1 70.968962675862912 5.0176701826071906 6.4732809414010646 0 1 0 I I #
point $-1 70.968962675862912 5.7628408377634539 6.4732809414010717 #
point $-1 65.280070793136048 10.035340365214381 5.1069196252151965 #
edge $-1 $600 -70.968962675862912 $594 -66.044296038498757 $598 $649 forward 7 unknown #
straight-curve $-1 66.044296038498771 13.101299952000524 10.907470795067496 0 -1 0 I I #
point $-1 66.044296038498757 30.475099431451973 10.907470795067496 #
straight-curve $-1 70.968962675862912 30.475099431451973 4.285876723749908 0 0 1 I I #
point $-1 70.968962675862912 30.475099431451973 10.907470795067495 #
point $-1 65.280070793136048 26.202599904001048 5.1069196252151965 #
straight-curve $-1 -49.154021085727919 -53.717009964610355 0 0 0 -1 I I #
point $-1 -49.154021085727919 -53.717009964610355 10.907470795067496 #
point $-1 -70.968962675862912 40.144344102210113 10.907470795067496 #
straight-curve $-1 0 40.144344102210113 10.907470795067496 -1 0 0 I I #
straight-curve $-1 0 30.475099431451973 10.907470795067496 -1 0 0 I I #
End-of-ACIS-data 