500 0 6 0           
7 Unknown 11 ACIS 5.0 NT 24 Fri Mar 26 17:18:09 1999 
-1 9.9999999999999995e-007 1e-010 
body $-1 $6 $-1 $7 #
body $-1 $8 $-1 $9 #
body $-1 $10 $-1 $11 #
body $-1 $12 $-1 $13 #
body $-1 $14 $-1 $15 #
body $-1 $16 $-1 $17 #
lump $-1 $-1 $18 $0 #
transform $-1 1 0 0 0 1 0 0 0 1 52.606585894344917 27.873286548847311 13.734783754234396 1 rotate no_reflect no_shear #
lump $-1 $-1 $19 $1 #
transform $-1 1 0 0 0 1 0 0 0 1 52.606585894344917 27.873286548847311 13.734783754234396 1 rotate no_reflect no_shear #
lump $-1 $-1 $20 $2 #
transform $-1 1 0 0 0 1 0 0 0 1 52.606585894344917 27.873286548847311 13.734783754234396 1 rotate no_reflect no_shear #
lump $-1 $-1 $21 $3 #
transform $-1 1 0 0 0 1 0 0 0 1 52.606585894344917 27.873286548847311 13.734783754234396 1 rotate no_reflect no_shear #
lump $-1 $-1 $22 $4 #
transform $-1 1 0 0 0 1 0 0 0 1 52.606585894344917 27.873286548847311 13.734783754234396 1 rotate no_reflect no_shear #
lump $-1 $-1 $23 $5 #
transform $-1 1 0 0 0 1 0 0 0 1 52.606585894344917 27.873286548847311 13.734783754234396 1 rotate no_reflect no_shear #
shell $-1 $-1 $-1 $24 $-1 $6 #
shell $-1 $-1 $-1 $25 $-1 $8 #
shell $-1 $-1 $-1 $26 $-1 $10 #
shell $-1 $-1 $-1 $27 $-1 $12 #
shell $-1 $-1 $-1 $28 $-1 $14 #
shell $-1 $-1 $-1 $29 $-1 $16 #
face $-1 $30 $31 $18 $-1 $32 forward single #
face $-1 $33 $34 $19 $-1 $35 forward single #
face $-1 $36 $37 $20 $-1 $38 reversed single #
face $-1 $39 $40 $21 $-1 $41 forward single #
face $-1 $42 $43 $22 $-1 $44 reversed single #
face $-1 $45 $46 $23 $-1 $47 forward single #
face $-1 $48 $49 $18 $-1 $50 reversed single #
loop $-1 $-1 $51 $24 #
plane-surface $-1 0 0 13.734783754234396 0 0 1 1 0 0 forward_v I I I I #
face $-1 $52 $53 $19 $-1 $54 reversed single #
loop $-1 $-1 $55 $25 #
plane-surface $-1 -47.064200137231389 0 9.9333384342713522 0 0 1 1 0 0 forward_v I I I I #
face $-1 $56 $57 $20 $-1 $58 reversed single #
loop $-1 $-1 $59 $26 #
plane-surface $-1 -31.094495011965179 -27.873286548847304 4.2513897756492725 0 -0.85716730853699208 0.51503806187062418 1 0 0 forward_v I I I I #
face $-1 $60 $61 $21 $-1 $62 forward single #
loop $-1 $63 $64 $27 #
cone-surface $-1 -31.094495011965179 -23.805705769565339 8.2609490079341192 0 0.85716730853699208 -0.51503806187062418 2 0 0 1 I I 0 1 2 forward I I I I #
face $-1 $65 $66 $22 $-1 $67 reversed single #
loop $-1 $-1 $68 $28 #
plane-surface $-1 -31.094495011965179 -0.83832041531839252 52.035529797960862 0 0.85716730853699208 0.51503806187062418 1 0 0 forward_v I I I I #
face $-1 $69 $70 $23 $-1 $71 forward single #
loop $-1 $72 $73 $29 #
cone-surface $-1 -31.094495011965179 23.805705769565339 8.2609490079341192 0 -0.85716730853699208 -0.51503806187062418 2 0 0 1 I I 0 1 2 forward I I I I #
face $-1 $74 $75 $18 $-1 $76 reversed single #
loop $-1 $-1 $77 $30 #
plane-surface $-1 0 0 -13.734783754234396 0 0 1 1 0 0 forward_v I I I I #
coedge $-1 $78 $79 $80 $81 forward $31 $-1 #
face $-1 $82 $83 $19 $-1 $84 reversed single #
loop $-1 $-1 $85 $33 #
plane-surface $-1 -47.064200137231389 0 4.3474601034605236 0 0 1 1 0 0 forward_v I I I I #
coedge $-1 $86 $87 $88 $89 forward $34 $-1 #
face $-1 $90 $91 $20 $-1 $92 reversed single #
loop $-1 $-1 $93 $36 #
plane-surface $-1 -20.667175643812502 -118.05857783359875 58.440177856957121 -1 0 0 0 -0.85716730853699208 0.51503806187062418 forward_v I I I I #
coedge $-1 $94 $95 $96 $97 reversed $37 $-1 #
face $-1 $-1 $98 $21 $-1 $99 forward single #
loop $-1 $100 $101 $39 #
cone-surface $-1 -31.094495011965179 -21.73005657180002 7.0137731890557795 0 0.85716730853699208 -0.51503806187062418 1 0 0 1 I I -0.70710678118654746 0.70710678118654746 1 forward I I I I #
loop $-1 $-1 $102 $27 #
coedge $-1 $64 $64 $103 $104 reversed $40 $-1 #
face $-1 $105 $106 $22 $-1 $107 forward single #
loop $-1 $-1 $108 $42 #
plane-surface $-1 -20.667175643812502 89.346970869433051 106.22431787926871 -1 0 0 0 0.85716730853699208 0.51503806187062418 forward_v I I I I #
coedge $-1 $109 $110 $111 $112 reversed $43 $-1 #
face $-1 $-1 $113 $23 $-1 $114 forward single #
loop $-1 $115 $116 $45 #
cone-surface $-1 -31.094495011965179 21.73005657180002 7.0137731890557795 0 -0.85716730853699208 -0.51503806187062418 1 0 0 1 I I -0.70710678118654746 0.70710678118654746 1 forward I I I I #
loop $-1 $-1 $117 $29 #
coedge $-1 $73 $73 $118 $119 reversed $46 $-1 #
face $-1 $120 $121 $18 $-1 $122 reversed single #
loop $-1 $-1 $123 $48 #
plane-surface $-1 0 -27.873286548847311 0 0 1 0 0 0 1 forward_v I I I I #
coedge $-1 $124 $125 $126 $127 forward $49 $-1 #
coedge $-1 $128 $51 $129 $130 forward $31 $-1 #
coedge $-1 $51 $128 $131 $132 forward $31 $-1 #
coedge $-1 $133 $134 $51 $81 reversed $135 $-1 #
edge $-1 $136 -27.873286548847311 $137 27.873286548847311 $80 $138 forward 7 unknown #
face $-1 $139 $140 $19 $-1 $141 reversed single #
loop $-1 $-1 $142 $52 #
plane-surface $-1 -41.52181438011786 0 7.1403992688659379 -1 0 0 0 0 1 forward_v I I I I #
coedge $-1 $143 $144 $145 $146 forward $53 $-1 #
coedge $-1 $147 $55 $148 $149 reversed $34 $-1 #
coedge $-1 $55 $147 $150 $151 reversed $34 $-1 #
coedge $-1 $142 $152 $55 $89 reversed $83 $-1 #
edge $-1 $153 -27.873286548847311 $154 27.873286548847311 $88 $155 forward 7 unknown #
face $-1 $156 $157 $20 $-1 $158 forward single #
loop $-1 $-1 $159 $56 #
plane-surface $-1 0 -27.873286548847311 0 0 1 0 0 0 1 forward_v I I I I #
coedge $-1 $160 $161 $162 $163 reversed $57 $-1 #
coedge $-1 $164 $59 $165 $166 forward $37 $-1 #
coedge $-1 $59 $164 $160 $167 forward $37 $-1 #
coedge $-1 $162 $159 $59 $97 forward $91 $-1 #
edge $-1 $168 -25.97456687413527 $169 -5.1199281378299126 $96 $170 forward 7 unknown #
loop $-1 $-1 $103 $60 #
plane-surface $-1 -31.094495011965179 -27.873286548847304 4.2513897756492725 0 -0.85716730853699208 0.51503806187062418 1 0 0 forward_v I I I I #
loop $-1 $-1 $171 $39 #
coedge $-1 $101 $101 $102 $172 reversed $61 $-1 #
coedge $-1 $102 $102 $101 $172 forward $63 $-1 #
coedge $-1 $103 $103 $64 $104 forward $98 $-1 #
edge $-1 $173 1.3690611327896534e-015 $173 6.2831853071796022 $103 $174 forward 7 unknown #
face $-1 $175 $176 $22 $-1 $177 forward single #
loop $-1 $-1 $178 $65 #
plane-surface $-1 0 0 13.734783754234396 0 0 1 1 0 0 forward_v I I I I #
coedge $-1 $179 $180 $181 $182 reversed $66 $-1 #
coedge $-1 $183 $68 $184 $185 forward $43 $-1 #
coedge $-1 $68 $183 $179 $186 forward $43 $-1 #
coedge $-1 $181 $178 $68 $112 forward $106 $-1 #
edge $-1 $187 -25.97456687413527 $188 -5.1199281378299126 $111 $189 forward 7 unknown #
loop $-1 $-1 $118 $69 #
plane-surface $-1 -31.094495011965179 -0.83832041531839252 52.035529797960862 0 0.85716730853699208 0.51503806187062418 1 0 0 forward_v I I I I #
loop $-1 $-1 $190 $45 #
coedge $-1 $116 $116 $117 $191 reversed $70 $-1 #
coedge $-1 $117 $117 $116 $191 forward $72 $-1 #
coedge $-1 $118 $118 $73 $119 forward $113 $-1 #
edge $-1 $192 -6.1429551296134909e-016 $192 6.2831853071795996 $118 $193 forward 7 unknown #
face $-1 $194 $195 $18 $-1 $196 reversed single #
loop $-1 $-1 $197 $74 #
plane-surface $-1 -52.606585894344917 0 0 1 0 0 0 0 -1 forward_v I I I I #
coedge $-1 $198 $131 $199 $200 forward $75 $-1 #
coedge $-1 $201 $77 $198 $202 forward $49 $-1 #
coedge $-1 $77 $201 $203 $204 forward $49 $-1 #
coedge $-1 $134 $133 $77 $127 reversed $135 $-1 #
edge $-1 $205 -27.873286548847311 $206 27.873286548847311 $126 $207 forward 7 unknown #
coedge $-1 $79 $78 $208 $209 forward $31 $-1 #
coedge $-1 $210 $211 $78 $130 reversed $195 $-1 #
edge $-1 $137 -52.606585894344917 $212 52.606585894344917 $129 $213 forward 7 unknown #
coedge $-1 $123 $214 $79 $132 reversed $75 $-1 #
edge $-1 $215 -52.606585894344917 $136 52.606585894344917 $131 $216 forward 7 unknown #
coedge $-1 $126 $80 $214 $217 forward $135 $-1 #
coedge $-1 $80 $126 $210 $218 reversed $135 $-1 #
loop $-1 $-1 $133 $194 #
vertex $-1 $81 $219 #
vertex $-1 $81 $220 #
straight-curve $-1 52.606585894344917 0 13.734783754234396 0 1 0 I I #
face $-1 $221 $222 $19 $-1 $223 reversed single #
loop $-1 $-1 $224 $82 #
plane-surface $-1 0 -27.873286548847311 0 0 1 0 0 0 1 forward_v I I I I #
coedge $-1 $145 $88 $225 $226 reversed $83 $-1 #
coedge $-1 $227 $85 $224 $228 reversed $53 $-1 #
coedge $-1 $85 $227 $229 $230 reversed $53 $-1 #
coedge $-1 $152 $142 $85 $146 reversed $83 $-1 #
edge $-1 $231 -27.873286548847311 $232 27.873286548847311 $145 $233 forward 7 unknown #
coedge $-1 $87 $86 $234 $235 reversed $34 $-1 #
coedge $-1 $236 $237 $86 $149 forward $238 $-1 #
edge $-1 $239 -29.074485825729223 $154 -17.989714311502166 $148 $240 forward 7 unknown #
coedge $-1 $241 $225 $87 $151 forward $140 $-1 #
edge $-1 $153 17.989714311502166 $242 29.074485825729223 $150 $243 forward 7 unknown #
coedge $-1 $88 $145 $236 $244 reversed $83 $-1 #
vertex $-1 $151 $245 #
vertex $-1 $149 $246 #
straight-curve $-1 -41.52181438011786 0 9.9333384342713522 0 1 0 I I #
face $-1 $-1 $247 $20 $-1 $248 forward single #
loop $-1 $-1 $165 $90 #
plane-surface $-1 -41.52181438011786 0 7.1403992688659379 -1 0 0 0 0 1 forward_v I I I I #
coedge $-1 $96 $249 $250 $251 forward $91 $-1 #
coedge $-1 $161 $93 $95 $167 reversed $57 $-1 #
coedge $-1 $93 $160 $252 $253 reversed $57 $-1 #
coedge $-1 $249 $96 $93 $163 forward $91 $-1 #
edge $-1 $169 -24.968699152829299 $254 -15.485305174244164 $162 $255 forward 7 unknown #
coedge $-1 $95 $94 $256 $257 reversed $37 $-1 #
coedge $-1 $250 $258 $94 $166 reversed $157 $-1 #
edge $-1 $168 -1.3556693106716273e-014 $259 11.063644033241685 $165 $260 forward 7 unknown #
edge $-1 $261 -11.063644033241685 $169 1.3556693106716273e-014 $160 $262 forward 7 unknown #
vertex $-1 $97 $263 #
vertex $-1 $97 $264 #
straight-curve $-1 -15.54724750598259 -27.873286548847311 4.2513897756492591 1 0 0 I I #
coedge $-1 $171 $171 $-1 $265 reversed $100 $-1 #
edge $-1 $266 0 $266 6.2831853071796004 $101 $267 forward 7 unknown #
vertex $-1 $104 $268 #
ellipse-curve $-1 -31.094495011965179 -25.024187658793661 8.9930867649418307 0 -0.85716730853699208 0.51503806187062418 2 0 0 1 I I #
face $-1 $-1 $269 $22 $-1 $270 reversed single #
loop $-1 $-1 $184 $105 #
plane-surface $-1 -41.52181438011786 0 7.1403992688659379 -1 0 0 0 0 1 forward_v I I I I #
coedge $-1 $111 $271 $272 $273 forward $106 $-1 #
coedge $-1 $180 $108 $110 $186 reversed $66 $-1 #
coedge $-1 $108 $179 $274 $275 reversed $66 $-1 #
coedge $-1 $271 $111 $108 $182 forward $106 $-1 #
edge $-1 $188 -22.49839666597649 $276 -16.800198885869214 $181 $277 forward 7 unknown #
coedge $-1 $110 $109 $278 $279 reversed $43 $-1 #
coedge $-1 $272 $280 $109 $185 reversed $176 $-1 #
edge $-1 $187 44.682929064452949 $281 55.746573097694601 $184 $282 forward 7 unknown #
edge $-1 $283 -55.746573097694601 $188 -44.682929064452949 $179 $284 forward 7 unknown #
vertex $-1 $273 $285 #
vertex $-1 $112 $286 #
straight-curve $-1 -15.54724750598259 22.175088768740032 13.734783754234396 1 0 0 I I #
coedge $-1 $190 $190 $-1 $287 reversed $115 $-1 #
edge $-1 $288 0 $288 6.2831853071796004 $116 $289 forward 7 unknown #
vertex $-1 $119 $290 #
ellipse-curve $-1 -31.094495011965179 25.024187658793679 8.9930867649418431 0 0.85716730853699208 0.51503806187062418 2 0 0 1 I I #
face $-1 $-1 $135 $18 $-1 $291 reversed single #
loop $-1 $-1 $210 $120 #
plane-surface $-1 0 27.873286548847311 0 0 -1 0 0 0 -1 forward_v I I I I #
coedge $-1 $292 $208 $211 $293 forward $121 $-1 #
coedge $-1 $214 $123 $124 $202 reversed $75 $-1 #
coedge $-1 $208 $292 $123 $200 reversed $121 $-1 #
edge $-1 $215 -13.734783754234396 $294 13.734783754234396 $199 $295 forward 7 unknown #
coedge $-1 $125 $124 $292 $296 forward $49 $-1 #
edge $-1 $206 -52.606585894344917 $294 52.606585894344917 $198 $297 forward 7 unknown #
coedge $-1 $211 $210 $125 $204 reversed $195 $-1 #
edge $-1 $298 -52.606585894344917 $205 52.606585894344917 $203 $299 forward 7 unknown #
vertex $-1 $127 $300 #
vertex $-1 $217 $301 #
straight-curve $-1 52.606585894344917 0 -13.734783754234396 0 -1 0 I I #
coedge $-1 $197 $199 $128 $209 reversed $121 $-1 #
edge $-1 $212 -27.873286548847311 $215 27.873286548847311 $208 $302 forward 7 unknown #
coedge $-1 $203 $129 $134 $218 forward $195 $-1 #
coedge $-1 $129 $203 $197 $293 reversed $195 $-1 #
vertex $-1 $130 $303 #
straight-curve $-1 0 27.873286548847311 13.734783754234396 -1 0 0 I I #
coedge $-1 $131 $198 $133 $217 reversed $75 $-1 #
vertex $-1 $209 $304 #
straight-curve $-1 0 -27.873286548847311 13.734783754234396 1 0 0 I I #
edge $-1 $136 -13.734783754234396 $206 13.734783754234396 $133 $305 forward 7 unknown #
edge $-1 $137 -13.734783754234396 $205 13.734783754234396 $134 $306 forward 7 unknown #
point $-1 52.606585894344917 -27.873286548847311 13.734783754234396 #
point $-1 52.606585894344917 27.873286548847311 13.734783754234396 #
face $-1 $-1 $238 $19 $-1 $307 reversed single #
loop $-1 $-1 $308 $139 #
plane-surface $-1 -52.606585894344917 0 0 1 0 0 0 0 -1 forward_v I I I I #
coedge $-1 $225 $241 $143 $228 forward $140 $-1 #
coedge $-1 $150 $224 $142 $226 forward $140 $-1 #
edge $-1 $232 0.77726046902755463 $153 6.3631387998383833 $225 $309 forward 7 unknown #
coedge $-1 $144 $143 $308 $310 reversed $53 $-1 #
edge $-1 $311 -29.074485825729223 $232 -17.989714311502166 $224 $312 forward 7 unknown #
coedge $-1 $237 $236 $144 $230 forward $238 $-1 #
edge $-1 $231 17.989714311502166 $313 29.074485825729223 $229 $314 forward 7 unknown #
vertex $-1 $230 $315 #
vertex $-1 $228 $316 #
straight-curve $-1 -41.52181438011786 0 4.3474601034605236 0 -1 0 I I #
coedge $-1 $317 $318 $147 $235 forward $222 $-1 #
edge $-1 $242 -27.873286548847311 $239 27.873286548847311 $234 $319 forward 7 unknown #
coedge $-1 $229 $148 $152 $244 forward $238 $-1 #
coedge $-1 $148 $229 $317 $320 reversed $238 $-1 #
loop $-1 $-1 $229 $221 #
vertex $-1 $320 $321 #
straight-curve $-1 -23.532100068615694 27.873286548847311 9.9333384342713522 1 0 0 I I #
coedge $-1 $224 $150 $318 $322 forward $140 $-1 #
vertex $-1 $322 $323 #
straight-curve $-1 -23.532100068615694 -27.873286548847311 9.9333384342713522 -1 0 0 I I #
edge $-1 $154 -6.3631387998383833 $231 -0.77726046902755463 $236 $324 forward 7 unknown #
point $-1 -41.52181438011786 -27.873286548847311 9.9333384342713522 #
point $-1 -41.52181438011786 27.873286548847311 9.9333384342713522 #
loop $-1 $-1 $325 $156 #
plane-surface $-1 0 0 13.734783754234396 0 0 1 1 0 0 forward_v I I I I #
coedge $-1 $159 $162 $326 $327 reversed $91 $-1 #
coedge $-1 $258 $165 $159 $251 reversed $157 $-1 #
edge $-1 $328 15.485305174244164 $168 24.968699152829299 $159 $329 forward 7 unknown #
coedge $-1 $256 $326 $161 $253 forward $247 $-1 #
edge $-1 $254 31.156002367952063 $261 36.854200148059363 $252 $330 forward 7 unknown #
vertex $-1 $163 $331 #
straight-curve $-1 -20.667175643812502 -27.873286548847311 29.22008892847856 0 0 1 I I #
coedge $-1 $325 $252 $164 $257 forward $247 $-1 #
edge $-1 $261 5.1199281378299126 $259 25.97456687413527 $256 $332 forward 7 unknown #
coedge $-1 $165 $250 $325 $333 reversed $157 $-1 #
vertex $-1 $333 $334 #
straight-curve $-1 -41.52181438011786 -27.873286548847304 4.2513897756492725 0 0.51503806187062418 0.85716730853699208 I I #
vertex $-1 $257 $335 #
straight-curve $-1 -20.667175643812502 -27.873286548847304 4.2513897756492725 0 -0.51503806187062418 -0.85716730853699208 I I #
point $-1 -41.52181438011786 -27.873286548847311 4.2513897756492609 #
point $-1 -20.667175643812502 -27.873286548847311 4.2513897756492609 #
edge $-1 $336 1 $336 0 $171 $-1 forward 7 unknown #
vertex $-1 $172 $337 #
ellipse-curve $-1 -31.094495011965179 -22.587223880337014 7.5288112509264034 0 -0.85716730853699208 0.51503806187062418 2 0 0 1 I I #
point $-1 -29.094495011965179 -25.024187658793664 8.993086764941836 #
loop $-1 $-1 $338 $175 #
plane-surface $-1 0 27.873286548847311 0 0 -1 0 0 0 -1 forward_v I I I I #
coedge $-1 $178 $181 $339 $340 forward $106 $-1 #
coedge $-1 $280 $184 $178 $273 reversed $176 $-1 #
edge $-1 $341 16.800198885869214 $187 22.49839666597649 $178 $342 forward 7 unknown #
coedge $-1 $278 $339 $180 $275 forward $269 $-1 #
edge $-1 $276 39.377375185399956 $283 48.860769163985054 $274 $343 forward 7 unknown #
vertex $-1 $340 $344 #
straight-curve $-1 -20.667175643812502 44.673485434716525 13.7347837542344 0 1 0 I I #
coedge $-1 $338 $274 $183 $279 forward $269 $-1 #
edge $-1 $283 5.1199281378299126 $281 25.97456687413527 $278 $345 forward 7 unknown #
coedge $-1 $184 $272 $338 $346 reversed $176 $-1 #
vertex $-1 $346 $347 #
straight-curve $-1 -41.52181438011786 -0.83832041531839252 52.035529797960862 0 0.51503806187062418 -0.85716730853699208 I I #
vertex $-1 $279 $348 #
straight-curve $-1 -20.667175643812502 -0.83832041531839252 52.035529797960862 0 -0.51503806187062418 0.85716730853699208 I I #
point $-1 -41.52181438011786 22.175088768740036 13.7347837542344 #
point $-1 -20.667175643812502 22.175088768740036 13.7347837542344 #
edge $-1 $349 1 $349 0 $190 $-1 forward 7 unknown #
vertex $-1 $191 $350 #
ellipse-curve $-1 -31.094495011965179 22.587223880337014 7.5288112509264034 0 0.85716730853699208 0.51503806187062418 2 0 0 1 I I #
point $-1 -29.094495011965179 25.024187658793664 8.993086764941836 #
plane-surface $-1 52.606585894344917 0 0 -1 0 0 0 0 1 forward_v I I I I #
coedge $-1 $199 $197 $201 $296 reversed $121 $-1 #
edge $-1 $212 -13.734783754234396 $298 13.734783754234396 $211 $351 forward 7 unknown #
vertex $-1 $296 $352 #
straight-curve $-1 -52.606585894344917 -27.873286548847311 0 0 0 -1 I I #
edge $-1 $294 -27.873286548847311 $298 27.873286548847311 $292 $353 forward 7 unknown #
straight-curve $-1 0 -27.873286548847311 -13.734783754234396 -1 0 0 I I #
vertex $-1 $204 $354 #
straight-curve $-1 0 27.873286548847311 -13.734783754234396 1 0 0 I I #
point $-1 52.606585894344917 27.873286548847311 -13.734783754234396 #
point $-1 52.606585894344917 -27.873286548847311 -13.734783754234396 #
straight-curve $-1 -52.606585894344917 0 13.734783754234396 0 -1 0 I I #
point $-1 -52.606585894344917 27.873286548847311 13.734783754234396 #
point $-1 -52.606585894344917 -27.873286548847311 13.734783754234396 #
straight-curve $-1 52.606585894344917 -27.873286548847311 0 0 0 -1 I I #
straight-curve $-1 52.606585894344917 27.873286548847311 0 0 0 -1 I I #
plane-surface $-1 0 27.873286548847311 0 0 -1 0 0 0 -1 forward_v I I I I #
coedge $-1 $318 $317 $227 $310 forward $222 $-1 #
straight-curve $-1 -41.52181438011786 -27.873286548847311 3.5701996344329689 0 0 1 I I #
edge $-1 $313 -27.873286548847311 $311 27.873286548847311 $308 $355 forward 7 unknown #
vertex $-1 $228 $356 #
straight-curve $-1 -23.532100068615694 -27.873286548847311 4.3474601034605236 1 0 0 I I #
vertex $-1 $230 $357 #
straight-curve $-1 -23.532100068615694 27.873286548847311 4.3474601034605236 -1 0 0 I I #
point $-1 -41.52181438011786 27.873286548847311 4.3474601034605236 #
point $-1 -41.52181438011786 -27.873286548847311 4.3474601034605236 #
coedge $-1 $308 $234 $237 $320 forward $222 $-1 #
coedge $-1 $234 $308 $241 $322 reversed $222 $-1 #
straight-curve $-1 -52.606585894344917 0 9.9333384342713522 0 1 0 I I #
edge $-1 $239 -9.9333384342713522 $313 -4.3474601034605236 $237 $358 forward 7 unknown #
point $-1 -52.606585894344917 27.873286548847311 9.9333384342713522 #
edge $-1 $242 -9.9333384342713522 $311 -4.3474601034605236 $318 $359 forward 7 unknown #
point $-1 -52.606585894344917 -27.873286548847311 9.9333384342713522 #
straight-curve $-1 -41.52181438011786 27.873286548847311 3.5701996344329689 0 0 -1 I I #
coedge $-1 $326 $256 $258 $333 forward $247 $-1 #
coedge $-1 $252 $325 $249 $327 forward $247 $-1 #
edge $-1 $328 -41.52181438011786 $254 -20.667175643812502 $249 $360 forward 7 unknown #
vertex $-1 $327 $361 #
straight-curve $-1 -41.52181438011786 -27.873286548847311 29.22008892847856 0 0 -1 I I #
straight-curve $-1 -20.667175643812502 -59.029288916799374 13.734783754234396 0 1 0 I I #
point $-1 -20.667175643812502 -27.873286548847311 13.734783754234396 #
straight-curve $-1 -15.54724750598259 -22.175088768740011 13.734783754234396 -1 0 0 I I #
edge $-1 $259 -36.854200148059363 $328 -31.156002367952063 $325 $362 forward 7 unknown #
point $-1 -41.52181438011786 -22.175088768740011 13.734783754234396 #
point $-1 -20.667175643812502 -22.175088768740011 13.734783754234396 #
vertex $-1 $265 $363 #
point $-1 -29.094495011965179 -22.587223880337014 7.5288112509264034 #
coedge $-1 $339 $278 $280 $346 forward $269 $-1 #
coedge $-1 $274 $338 $271 $340 reversed $269 $-1 #
edge $-1 $276 20.667175643812502 $341 41.52181438011786 $339 $364 forward 7 unknown #
vertex $-1 $346 $365 #
straight-curve $-1 -41.52181438011786 44.673485434716525 13.7347837542344 0 -1 0 I I #
straight-curve $-1 -20.667175643812502 27.873286548847311 53.112158939634355 0 0 -1 I I #
point $-1 -20.667175643812502 27.873286548847311 13.734783754234396 #
straight-curve $-1 -15.54724750598259 27.873286548847311 4.2513897756492938 -1 0 0 I I #
edge $-1 $281 -48.860769163985054 $341 -39.377375185399956 $338 $366 forward 7 unknown #
point $-1 -41.52181438011786 27.873286548847311 4.2513897756493009 #
point $-1 -20.667175643812502 27.873286548847311 4.2513897756493009 #
vertex $-1 $287 $367 #
point $-1 -29.094495011965179 22.587223880337014 7.5288112509264034 #
straight-curve $-1 -52.606585894344917 27.873286548847311 0 0 0 -1 I I #
point $-1 -52.606585894344917 -27.873286548847311 -13.734783754234396 #
straight-curve $-1 -52.606585894344917 0 -13.734783754234396 0 1 0 I I #
point $-1 -52.606585894344917 27.873286548847311 -13.734783754234396 #
straight-curve $-1 -52.606585894344917 0 4.3474601034605236 0 -1 0 I I #
point $-1 -52.606585894344917 -27.873286548847311 4.3474601034605236 #
point $-1 -52.606585894344917 27.873286548847311 4.3474601034605236 #
straight-curve $-1 -52.606585894344917 27.873286548847311 0 0 0 -1 I I #
straight-curve $-1 -52.606585894344917 -27.873286548847311 0 0 0 -1 I I #
straight-curve $-1 0 -27.873286548847311 13.734783754234396 1 0 0 I I #
point $-1 -41.52181438011786 -27.873286548847311 13.734783754234396 #
straight-curve $-1 -41.52181438011786 -59.029288916799374 13.734783754234396 0 -1 0 I I #
point $-1 -31.094495011965179 -20.872889263263026 6.4987351271851557 #
straight-curve $-1 0 27.873286548847311 13.734783754234396 -1 0 0 I I #
point $-1 -41.52181438011786 27.873286548847311 13.734783754234396 #
straight-curve $-1 -41.52181438011786 27.873286548847311 53.112158939634355 0 0 1 I I #
point $-1 -31.094495011965179 20.872889263263026 6.4987351271851557 #
End-of-ACIS-data 