500 0 9 0           
7 Unknown 11 ACIS 5.0 NT 24 Thu Mar 25 19:38:16 1999 
-1 9.9999999999999995e-007 1e-010 
body $-1 $9 $-1 $10 #
body $-1 $11 $-1 $12 #
body $-1 $13 $-1 $14 #
body $-1 $15 $-1 $16 #
body $-1 $17 $-1 $18 #
body $-1 $19 $-1 $20 #
body $-1 $21 $-1 $22 #
body $-1 $23 $-1 $24 #
body $-1 $25 $-1 $26 #
lump $-1 $-1 $27 $0 #
transform $-1 1 0 0 0 1 0 0 0 1 70.469679860835598 41.440696682834165 13.22012227226581 1 rotate no_reflect no_shear #
lump $-1 $-1 $28 $1 #
transform $-1 1 0 0 0 1 0 0 0 1 70.469679860835598 41.440696682834165 13.22012227226581 1 rotate no_reflect no_shear #
lump $-1 $-1 $29 $2 #
transform $-1 1 0 0 0 1 0 0 0 1 70.469679860835598 41.440696682834165 13.22012227226581 1 rotate no_reflect no_shear #
lump $-1 $-1 $30 $3 #
transform $-1 1 0 0 0 1 0 0 0 1 70.469679860835598 41.440696682834165 13.22012227226581 1 rotate no_reflect no_shear #
lump $-1 $-1 $31 $4 #
transform $-1 1 0 0 0 1 0 0 0 1 70.469679860835598 41.440696682834165 13.22012227226581 1 rotate no_reflect no_shear #
lump $-1 $-1 $32 $5 #
transform $-1 1 0 0 0 1 0 0 0 1 70.469679860835598 41.440696682834165 13.22012227226581 1 rotate no_reflect no_shear #
lump $-1 $-1 $33 $6 #
transform $-1 1 0 0 0 1 0 0 0 1 70.469679860835598 41.440696682834165 13.22012227226581 1 rotate no_reflect no_shear #
lump $-1 $-1 $34 $7 #
transform $-1 1 0 0 0 1 0 0 0 1 70.469679860835598 41.440696682834165 13.22012227226581 1 rotate no_reflect no_shear #
lump $-1 $-1 $35 $8 #
transform $-1 1 0 0 0 1 0 0 0 1 70.469679860835598 41.440696682834165 13.22012227226581 1 rotate no_reflect no_shear #
shell $-1 $-1 $-1 $36 $-1 $9 #
shell $-1 $-1 $-1 $37 $-1 $11 #
shell $-1 $-1 $-1 $38 $-1 $13 #
shell $-1 $-1 $-1 $39 $-1 $15 #
shell $-1 $-1 $-1 $40 $-1 $17 #
shell $-1 $-1 $-1 $41 $-1 $19 #
shell $-1 $-1 $-1 $42 $-1 $21 #
shell $-1 $-1 $-1 $43 $-1 $23 #
shell $-1 $-1 $-1 $44 $-1 $25 #
face $-1 $45 $46 $27 $-1 $47 forward single #
face $-1 $48 $49 $28 $-1 $50 forward single #
face $-1 $51 $52 $29 $-1 $53 reversed single #
face $-1 $54 $55 $30 $-1 $56 forward single #
face $-1 $57 $58 $31 $-1 $59 reversed single #
face $-1 $60 $61 $32 $-1 $62 forward single #
face $-1 $63 $64 $33 $-1 $65 reversed single #
face $-1 $66 $67 $34 $-1 $68 forward single #
face $-1 $69 $70 $35 $-1 $71 forward single #
face $-1 $72 $73 $27 $-1 $74 reversed single #
loop $-1 $-1 $75 $36 #
plane-surface $-1 0 0 13.22012227226581 0 0 1 1 0 0 forward_v I I I I #
face $-1 $76 $77 $28 $-1 $78 reversed single #
loop $-1 $-1 $79 $37 #
plane-surface $-1 0 -33.361816901700415 8.1125621300756237 0 0 1 1 0 0 forward_v I I I I #
face $-1 $80 $81 $29 $-1 $82 reversed single #
loop $-1 $-1 $83 $38 #
plane-surface $-1 -170.12885801242021 -3.3966200240780573 108.67316960308972 0 1 0 -0.70710678939079041 0 0.70710677298230451 forward_v I I I I #
face $-1 $84 $85 $30 $-1 $86 forward single #
loop $-1 $87 $88 $39 #
cone-surface $-1 -68.004775600285456 2.3411298785278447 10.755217971310373 0.70710678939079041 0 -0.70710677298230451 0.70710677298230451 0 0.70710678939079041 1 I I 0 1 1 forward I I I I #
face $-1 $89 $90 $31 $-1 $91 reversed single #
loop $-1 $-1 $92 $40 #
plane-surface $-1 -170.12885801242021 29.965196877622365 108.67316960308972 0 1 0 -0.70710678939079041 0 0.70710677298230451 forward_v I I I I #
face $-1 $93 $94 $32 $-1 $95 forward single #
loop $-1 $96 $97 $41 #
cone-surface $-1 -68.004775600285456 35.702946780228267 10.755217971310373 0.70710678939079041 0 -0.70710677298230451 0.70710677298230451 0 0.70710678939079041 1 I I 0 1 1 forward I I I I #
face $-1 $98 $99 $33 $-1 $100 reversed single #
loop $-1 $-1 $101 $42 #
plane-surface $-1 80.901198977095859 -1.4252878712476829 202.17358105561937 0 -1 0 -0.74314483375859142 0 -0.66913059716165679 forward_v I I I I #
face $-1 $102 $103 $34 $-1 $104 forward single #
loop $-1 $105 $106 $43 #
cone-surface $-1 65.554787512261726 -6.9929844177739753 7.8396888730882246 -0.74314483375859142 0 -0.66913059716165679 0.3345652985808284 0 -0.37157241687929571 1 I I 0 1 0.5 forward I I I I #
face $-1 $107 $108 $35 $-1 $109 forward single #
loop $-1 $110 $111 $44 #
cone-surface $-1 65.554787512261726 -3.6523664898581956 7.8396888730882246 -0.74314483375859142 0 -0.66913059716165679 0.3345652985808284 0 -0.37157241687929571 1 I I 0 1 0.5 forward I I I I #
face $-1 $112 $113 $27 $-1 $114 reversed single #
loop $-1 $-1 $115 $45 #
plane-surface $-1 0 0 -13.22012227226581 0 0 1 1 0 0 forward_v I I I I #
coedge $-1 $116 $117 $118 $119 forward $46 $-1 #
face $-1 $120 $121 $28 $-1 $122 reversed single #
loop $-1 $-1 $123 $48 #
plane-surface $-1 0 -33.361816901700415 0.6365581724160565 0 0 1 1 0 0 forward_v I I I I #
coedge $-1 $124 $125 $126 $127 reversed $49 $-1 #
face $-1 $128 $129 $29 $-1 $130 reversed single #
loop $-1 $-1 $131 $51 #
plane-surface $-1 -70.469679860835612 2.3411298785278447 9.0139937641066155 -0.70710678939079041 0 0.70710677298230451 0.70710677298230451 0 0.70710678939079041 forward_v I I I I #
coedge $-1 $132 $133 $134 $135 reversed $52 $-1 #
face $-1 $-1 $136 $30 $-1 $137 forward single #
loop $-1 $138 $139 $54 #
cone-surface $-1 -67.289382150317678 2.3411298785278447 10.039824537943376 0.70710678939079041 0 -0.70710677298230451 0.35355338649115226 0 0.35355339469539521 1 I I -0.70710678118654746 0.70710678118654746 0.5 forward I I I I #
loop $-1 $-1 $140 $39 #
coedge $-1 $88 $88 $141 $142 reversed $55 $-1 #
face $-1 $143 $144 $31 $-1 $145 forward single #
loop $-1 $-1 $146 $57 #
plane-surface $-1 -70.469679860835612 35.702946780228267 9.0139937641066155 -0.70710678939079041 0 0.70710677298230451 0.70710677298230451 0 0.70710678939079041 forward_v I I I I #
coedge $-1 $147 $148 $149 $150 reversed $58 $-1 #
face $-1 $-1 $151 $32 $-1 $152 forward single #
loop $-1 $153 $154 $60 #
cone-surface $-1 -67.289382150317678 35.702946780228267 10.039824537943376 0.70710678939079041 0 -0.70710677298230451 0.35355338649115226 0 0.35355339469539521 1 I I -0.70710678118654746 0.70710678118654746 0.5 forward I I I I #
loop $-1 $-1 $155 $41 #
coedge $-1 $97 $97 $156 $157 reversed $61 $-1 #
face $-1 $158 $159 $33 $-1 $160 reversed single #
loop $-1 $-1 $161 $63 #
plane-surface $-1 -23.837158073307791 -5.322675453816089 107.86674312147596 0.74314483375859142 0 0.66913059716165679 0.66913059716165679 0 -0.74314483375859142 forward_v I I I I #
coedge $-1 $162 $163 $164 $165 reversed $64 $-1 #
face $-1 $-1 $166 $34 $-1 $167 forward single #
loop $-1 $168 $169 $66 #
cone-surface $-1 64.997428886942785 -6.9929844177739753 7.3378409252169821 -0.74314483375859142 0 -0.66913059716165679 0.1672826492904142 0 -0.18578620843964785 1 I I -0.70710678118654746 0.70710678118654746 0.25 forward I I I I #
loop $-1 $-1 $170 $43 #
coedge $-1 $106 $106 $171 $172 reversed $67 $-1 #
face $-1 $-1 $173 $35 $-1 $174 forward single #
loop $-1 $175 $176 $69 #
cone-surface $-1 64.997428886942785 -3.6523664898581956 7.3378409252169821 -0.74314483375859142 0 -0.66913059716165679 0.1672826492904142 0 -0.18578620843964785 1 I I -0.70710678118654746 0.70710678118654746 0.25 forward I I I I #
loop $-1 $-1 $177 $44 #
coedge $-1 $111 $111 $178 $179 reversed $70 $-1 #
face $-1 $180 $181 $27 $-1 $182 reversed single #
loop $-1 $-1 $183 $72 #
plane-surface $-1 0 -41.440696682834165 0 0 1 0 0 0 1 forward_v I I I I #
coedge $-1 $184 $185 $186 $187 forward $73 $-1 #
coedge $-1 $188 $75 $189 $190 forward $46 $-1 #
coedge $-1 $75 $188 $191 $192 forward $46 $-1 #
coedge $-1 $193 $194 $75 $119 reversed $195 $-1 #
edge $-1 $196 -41.440696682834165 $197 41.440696682834165 $118 $198 forward 7 unknown #
face $-1 $199 $200 $28 $-1 $201 reversed single #
loop $-1 $-1 $202 $76 #
plane-surface $-1 0 -25.282937120566665 4.3745601512458396 0 -1 0 0 0 -1 forward_v I I I I #
coedge $-1 $203 $204 $205 $206 reversed $77 $-1 #
coedge $-1 $207 $79 $208 $209 forward $49 $-1 #
coedge $-1 $79 $207 $210 $211 reversed $49 $-1 #
coedge $-1 $212 $213 $79 $127 forward $214 $-1 #
edge $-1 $215 8.6020286697164572 $216 24.759788231983958 $126 $217 forward 7 unknown #
face $-1 $218 $219 $29 $-1 $220 reversed single #
loop $-1 $-1 $221 $80 #
plane-surface $-1 -170.12885801242021 8.0788797811337467 108.67316960308972 0 -1 0 0.70710678939079041 0 -0.70710677298230451 forward_v I I I I #
coedge $-1 $222 $223 $224 $225 reversed $81 $-1 #
coedge $-1 $133 $83 $226 $227 reversed $52 $-1 #
coedge $-1 $83 $132 $222 $228 reversed $52 $-1 #
coedge $-1 $224 $229 $83 $135 forward $230 $-1 #
edge $-1 $231 14.594749145374507 $232 18.800877555930043 $134 $233 forward 7 unknown #
loop $-1 $-1 $141 $84 #
plane-surface $-1 -70.469679860835612 2.3411298785278447 9.0139937641066155 -0.70710678939079041 0 0.70710677298230451 0.70710677298230451 0 0.70710678939079041 forward_v I I I I #
loop $-1 $-1 $234 $54 #
coedge $-1 $139 $139 $140 $235 reversed $85 $-1 #
coedge $-1 $140 $140 $139 $235 forward $87 $-1 #
coedge $-1 $141 $141 $88 $142 forward $136 $-1 #
edge $-1 $236 0 $236 6.2831853071796004 $141 $237 forward 7 unknown #
face $-1 $238 $239 $31 $-1 $240 reversed single #
loop $-1 $-1 $149 $89 #
plane-surface $-1 0 0 13.22012227226581 0 0 1 1 0 0 forward_v I I I I #
coedge $-1 $241 $242 $243 $244 reversed $90 $-1 #
coedge $-1 $148 $92 $245 $246 reversed $58 $-1 #
coedge $-1 $92 $147 $241 $247 reversed $58 $-1 #
coedge $-1 $243 $248 $92 $150 forward $144 $-1 #
edge $-1 $249 14.594749145374507 $250 18.800877555930043 $149 $251 forward 7 unknown #
loop $-1 $-1 $156 $93 #
plane-surface $-1 -70.469679860835612 35.702946780228267 9.0139937641066155 -0.70710678939079041 0 0.70710677298230451 0.70710677298230451 0 0.70710678939079041 forward_v I I I I #
loop $-1 $-1 $252 $60 #
coedge $-1 $154 $154 $155 $253 reversed $94 $-1 #
coedge $-1 $155 $155 $154 $253 forward $96 $-1 #
coedge $-1 $156 $156 $97 $157 forward $151 $-1 #
edge $-1 $254 0 $254 6.2831853071796004 $156 $255 forward 7 unknown #
face $-1 $256 $257 $33 $-1 $258 reversed single #
loop $-1 $-1 $259 $98 #
plane-surface $-1 80.901198977095859 -9.2200630363844951 202.17358105561937 0 1 0 0.74314483375859142 0 0.66913059716165679 forward_v I I I I #
coedge $-1 $260 $261 $262 $263 reversed $99 $-1 #
coedge $-1 $163 $101 $264 $265 reversed $64 $-1 #
coedge $-1 $101 $162 $260 $266 reversed $64 $-1 #
coedge $-1 $262 $267 $101 $165 forward $268 $-1 #
edge $-1 $269 -30.019080372287668 $270 -20.93244050889853 $164 $271 forward 7 unknown #
loop $-1 $-1 $171 $102 #
plane-surface $-1 -23.837158073307791 -5.322675453816089 107.86674312147596 0.74314483375859142 0 0.66913059716165679 0.66913059716165679 0 -0.74314483375859142 forward_v I I I I #
loop $-1 $-1 $272 $66 #
coedge $-1 $169 $169 $170 $273 reversed $103 $-1 #
coedge $-1 $170 $170 $169 $273 forward $105 $-1 #
coedge $-1 $171 $171 $106 $172 forward $166 $-1 #
edge $-1 $274 0 $274 6.2831853071796004 $171 $275 forward 7 unknown #
loop $-1 $-1 $178 $107 #
plane-surface $-1 -23.837158073307791 -5.322675453816089 107.86674312147596 0.74314483375859142 0 0.66913059716165679 0.66913059716165679 0 -0.74314483375859142 forward_v I I I I #
loop $-1 $-1 $276 $69 #
coedge $-1 $176 $176 $177 $277 reversed $108 $-1 #
coedge $-1 $177 $177 $176 $277 forward $110 $-1 #
coedge $-1 $178 $178 $111 $179 forward $173 $-1 #
edge $-1 $278 0 $278 6.2831853071796004 $178 $279 forward 7 unknown #
face $-1 $280 $281 $27 $-1 $282 reversed single #
loop $-1 $-1 $283 $112 #
plane-surface $-1 -70.469679860835598 0 0 1 0 0 0 0 -1 forward_v I I I I #
coedge $-1 $284 $191 $285 $286 forward $113 $-1 #
coedge $-1 $287 $115 $284 $288 forward $73 $-1 #
coedge $-1 $115 $287 $289 $290 forward $73 $-1 #
coedge $-1 $194 $193 $115 $187 reversed $195 $-1 #
edge $-1 $291 -41.440696682834165 $292 41.440696682834165 $186 $293 forward 7 unknown #
coedge $-1 $117 $116 $294 $295 forward $46 $-1 #
coedge $-1 $296 $297 $116 $190 reversed $281 $-1 #
edge $-1 $197 -70.469679860835598 $298 70.469679860835598 $189 $299 forward 7 unknown #
coedge $-1 $183 $300 $117 $192 reversed $113 $-1 #
edge $-1 $301 -70.469679860835598 $196 70.469679860835598 $191 $302 forward 7 unknown #
coedge $-1 $186 $118 $300 $303 forward $195 $-1 #
coedge $-1 $118 $186 $296 $304 reversed $195 $-1 #
loop $-1 $-1 $193 $280 #
vertex $-1 $119 $305 #
vertex $-1 $119 $306 #
straight-curve $-1 70.469679860835598 0 13.22012227226581 0 1 0 I I #
face $-1 $307 $308 $28 $-1 $309 reversed single #
loop $-1 $-1 $310 $120 #
plane-surface $-1 -70.469679860835598 0 0 1 0 0 0 0 -1 forward_v I I I I #
coedge $-1 $311 $208 $213 $312 reversed $121 $-1 #
coedge $-1 $313 $123 $314 $315 reversed $77 $-1 #
coedge $-1 $123 $313 $311 $316 forward $77 $-1 #
coedge $-1 $213 $212 $123 $206 forward $214 $-1 #
edge $-1 $317 -24.759788231983958 $318 -8.6020286697164572 $205 $319 forward 7 unknown #
coedge $-1 $125 $124 $310 $320 reversed $49 $-1 #
coedge $-1 $202 $321 $124 $209 reversed $121 $-1 #
edge $-1 $215 -70.469679860835598 $322 70.469679860835598 $208 $323 forward 7 unknown #
coedge $-1 $324 $325 $125 $211 forward $308 $-1 #
edge $-1 $216 -70.469679860835598 $326 70.469679860835598 $210 $327 forward 7 unknown #
coedge $-1 $205 $126 $325 $328 forward $214 $-1 #
coedge $-1 $126 $205 $202 $312 forward $214 $-1 #
loop $-1 $-1 $126 $307 #
vertex $-1 $127 $329 #
vertex $-1 $328 $330 #
straight-curve $-1 70.469679860835598 -16.680908450850207 8.1125621300756237 0 -1 0 I I #
face $-1 $-1 $230 $29 $-1 $331 forward single #
loop $-1 $-1 $332 $128 #
plane-surface $-1 -70.469679860835598 0 0 1 0 0 0 0 -1 forward_v I I I I #
coedge $-1 $333 $334 $335 $336 reversed $129 $-1 #
coedge $-1 $337 $131 $133 $228 forward $81 $-1 #
coedge $-1 $131 $337 $333 $338 forward $81 $-1 #
coedge $-1 $335 $134 $131 $225 forward $230 $-1 #
edge $-1 $232 -4.5671849633419797 $339 6.9083148418698244 $224 $340 forward 7 unknown #
coedge $-1 $341 $342 $132 $227 forward $219 $-1 #
edge $-1 $343 -45.322591037438229 $231 -41.116462529279048 $226 $344 forward 7 unknown #
edge $-1 $232 -5.9483639123066494 $343 -2.0097183471152325e-014 $133 $345 forward 7 unknown #
coedge $-1 $134 $335 $341 $346 forward $230 $-1 #
loop $-1 $-1 $335 $218 #
vertex $-1 $227 $347 #
vertex $-1 $135 $348 #
straight-curve $-1 -85.064429006210105 -3.3966200240780573 13.220122272265812 1 0 0 I I #
coedge $-1 $234 $234 $-1 $349 reversed $138 $-1 #
edge $-1 $350 0 $350 6.2831853071796004 $139 $351 forward 7 unknown #
vertex $-1 $142 $352 #
ellipse-curve $-1 -68.366615655557837 2.3411298785278447 11.117058018186215 -0.70710678939079041 0 0.70710677298230451 0.70710677298230451 0 0.70710678939079041 1 I I #
face $-1 $-1 $353 $31 $-1 $354 reversed single #
loop $-1 $-1 $355 $143 #
plane-surface $-1 0 41.440696682834165 0 0 -1 0 0 0 -1 forward_v I I I I #
coedge $-1 $356 $146 $148 $247 forward $90 $-1 #
coedge $-1 $146 $356 $355 $357 reversed $90 $-1 #
coedge $-1 $358 $149 $146 $244 forward $144 $-1 #
edge $-1 $250 12.113723487508231 $359 23.589223292720039 $243 $360 forward 7 unknown #
coedge $-1 $361 $362 $147 $246 forward $353 $-1 #
edge $-1 $363 -45.322591037438229 $249 -41.116462529279048 $245 $364 forward 7 unknown #
edge $-1 $250 -5.9483639123066494 $363 -2.0097183471152325e-014 $148 $365 forward 7 unknown #
coedge $-1 $149 $358 $361 $366 forward $144 $-1 #
vertex $-1 $246 $367 #
vertex $-1 $150 $368 #
straight-curve $-1 -85.064429006210105 29.965196877622365 13.220122272265812 1 0 0 I I #
coedge $-1 $252 $252 $-1 $369 reversed $153 $-1 #
edge $-1 $370 0 $370 6.2831853071796004 $154 $371 forward 7 unknown #
vertex $-1 $157 $372 #
ellipse-curve $-1 -68.366615655557837 35.702946780228267 11.117058018186215 -0.70710678939079041 0 0.70710677298230451 0.70710677298230451 0 0.70710678939079041 1 I I #
face $-1 $-1 $268 $33 $-1 $373 forward single #
loop $-1 $-1 $374 $158 #
plane-surface $-1 70.469679860835598 0 0 -1 0 0 0 0 1 forward_v I I I I #
coedge $-1 $375 $376 $377 $378 reversed $159 $-1 #
coedge $-1 $379 $161 $163 $266 forward $99 $-1 #
coedge $-1 $161 $379 $375 $380 forward $99 $-1 #
coedge $-1 $377 $164 $161 $263 forward $268 $-1 #
edge $-1 $270 -1.2360498556603616 $381 6.5587253094764506 $262 $382 forward 7 unknown #
coedge $-1 $383 $384 $162 $265 forward $257 $-1 #
edge $-1 $385 -97.958404456737355 $269 -87.866668255543871 $264 $386 forward 7 unknown #
edge $-1 $270 127.35958934211718 $385 140.93935972167117 $163 $387 forward 7 unknown #
coedge $-1 $164 $377 $383 $388 forward $268 $-1 #
loop $-1 $-1 $377 $256 #
vertex $-1 $265 $389 #
vertex $-1 $165 $390 #
straight-curve $-1 40.45059948854793 -1.4252878712476829 13.220122272265812 -1 0 0 I I #
coedge $-1 $272 $272 $-1 $391 reversed $168 $-1 #
edge $-1 $392 0 $392 6.2831853071796004 $169 $393 forward 7 unknown #
vertex $-1 $172 $394 #
ellipse-curve $-1 65.926359929141043 -6.9929844177739753 8.1742541716690713 0.74314483375859142 0 0.66913059716165679 0.3345652985808284 0 -0.37157241687929571 1 I I #
coedge $-1 $276 $276 $-1 $395 reversed $175 $-1 #
edge $-1 $396 0 $396 6.2831853071796004 $176 $397 forward 7 unknown #
vertex $-1 $179 $398 #
ellipse-curve $-1 65.926359929141043 -3.6523664898581956 8.1742541716690713 0.74314483375859142 0 0.66913059716165679 0.3345652985808284 0 -0.37157241687929571 1 I I #
face $-1 $-1 $195 $27 $-1 $399 reversed single #
loop $-1 $-1 $296 $180 #
plane-surface $-1 0 41.440696682834165 0 0 -1 0 0 0 -1 forward_v I I I I #
coedge $-1 $400 $294 $297 $401 forward $181 $-1 #
coedge $-1 $300 $183 $184 $288 reversed $113 $-1 #
coedge $-1 $294 $400 $183 $286 reversed $181 $-1 #
edge $-1 $301 -13.22012227226581 $402 13.22012227226581 $285 $403 forward 7 unknown #
coedge $-1 $185 $184 $400 $404 forward $73 $-1 #
edge $-1 $292 -70.469679860835598 $402 70.469679860835598 $284 $405 forward 7 unknown #
coedge $-1 $297 $296 $185 $290 reversed $281 $-1 #
edge $-1 $406 -70.469679860835598 $291 70.469679860835598 $289 $407 forward 7 unknown #
vertex $-1 $187 $408 #
vertex $-1 $303 $409 #
straight-curve $-1 70.469679860835598 0 -13.22012227226581 0 -1 0 I I #
coedge $-1 $283 $285 $188 $295 reversed $181 $-1 #
edge $-1 $298 -41.440696682834165 $301 41.440696682834165 $294 $410 forward 7 unknown #
coedge $-1 $289 $189 $194 $304 forward $281 $-1 #
coedge $-1 $189 $289 $283 $401 reversed $281 $-1 #
vertex $-1 $190 $411 #
straight-curve $-1 0 41.440696682834165 13.22012227226581 -1 0 0 I I #
coedge $-1 $191 $284 $193 $303 reversed $113 $-1 #
vertex $-1 $295 $412 #
straight-curve $-1 0 -41.440696682834165 13.22012227226581 1 0 0 I I #
edge $-1 $196 -13.22012227226581 $292 13.22012227226581 $193 $413 forward 7 unknown #
edge $-1 $197 -13.22012227226581 $291 13.22012227226581 $194 $414 forward 7 unknown #
point $-1 70.469679860835598 -41.440696682834165 13.22012227226581 #
point $-1 70.469679860835598 41.440696682834165 13.22012227226581 #
face $-1 $-1 $214 $28 $-1 $415 reversed single #
loop $-1 $-1 $210 $199 #
plane-surface $-1 0 -41.440696682834165 0 0 1 0 0 0 1 forward_v I I I I #
coedge $-1 $416 $417 $207 $320 forward $200 $-1 #
coedge $-1 $321 $202 $204 $316 reversed $121 $-1 #
edge $-1 $318 -1.5507219032068633 $215 5.9252820544527038 $213 $418 forward 7 unknown #
coedge $-1 $204 $203 $419 $420 reversed $77 $-1 #
coedge $-1 $325 $324 $203 $315 forward $308 $-1 #
edge $-1 $421 -70.469679860835598 $317 70.469679860835598 $314 $422 forward 7 unknown #
edge $-1 $423 -70.469679860835598 $318 70.469679860835598 $311 $424 forward 7 unknown #
vertex $-1 $315 $425 #
vertex $-1 $206 $426 #
straight-curve $-1 70.469679860835598 -16.680908450850207 0.6365581724160565 0 1 0 I I #
edge $-1 $326 -24.759788231983958 $322 -8.6020286697164572 $310 $427 forward 7 unknown #
coedge $-1 $208 $311 $416 $428 reversed $121 $-1 #
vertex $-1 $320 $429 #
straight-curve $-1 0 -25.282937120566665 8.1125621300756237 -1 0 0 I I #
coedge $-1 $314 $210 $417 $430 forward $308 $-1 #
coedge $-1 $210 $314 $212 $328 reversed $308 $-1 #
vertex $-1 $430 $431 #
straight-curve $-1 0 -41.440696682834165 8.1125621300756237 -1 0 0 I I #
edge $-1 $216 -8.1125621300756237 $317 -0.6365581724160565 $212 $432 forward 7 unknown #
point $-1 70.469679860835598 -25.282937120566665 8.1125621300756237 #
point $-1 70.469679860835598 -41.440696682834165 8.1125621300756237 #
plane-surface $-1 0 0 13.22012227226581 0 0 1 1 0 0 forward_v I I I I #
coedge $-1 $342 $341 $334 $433 forward $219 $-1 #
coedge $-1 $334 $221 $223 $338 reversed $129 $-1 #
coedge $-1 $221 $333 $332 $433 reversed $129 $-1 #
coedge $-1 $229 $224 $221 $336 forward $230 $-1 #
edge $-1 $339 -18.800877555930043 $434 -14.594749145374507 $335 $435 forward 7 unknown #
coedge $-1 $223 $222 $342 $436 reversed $81 $-1 #
edge $-1 $437 2.0097183471152325e-014 $339 5.9483639123066494 $333 $438 forward 7 unknown #
vertex $-1 $225 $439 #
straight-curve $-1 -66.263551450280062 1.1705649392639224 13.220122272265806 0 1 0 I I #
coedge $-1 $332 $226 $229 $346 reversed $219 $-1 #
coedge $-1 $226 $332 $337 $436 forward $219 $-1 #
vertex $-1 $227 $440 #
straight-curve $-1 -70.469679860835598 -3.3966200240780573 54.336584801544859 0 0 1 I I #
straight-curve $-1 -70.469679860835612 -3.3966200240780573 9.0139937641066155 -0.70710677298230451 0 -0.70710678939079041 I I #
edge $-1 $434 -8.0788797811337467 $231 3.3966200240780573 $341 $441 forward 7 unknown #
point $-1 -70.469679860835598 -3.3966200240780573 13.22012227226581 #
point $-1 -66.263551450280062 -3.3966200240780573 13.22012227226581 #
edge $-1 $442 1 $442 0 $234 $-1 forward 7 unknown #
vertex $-1 $235 $443 #
ellipse-curve $-1 -67.642935545013074 2.3411298785278447 10.393377924434528 -0.70710678939079041 0 0.70710677298230451 0.70710677298230451 0 0.70710678939079041 1 I I #
point $-1 -67.659508882575523 2.3411298785278447 11.824164807577008 #
loop $-1 $-1 $245 $238 #
plane-surface $-1 -70.469679860835598 0 0 1 0 0 0 0 -1 forward_v I I I I #
coedge $-1 $444 $445 $242 $357 forward $239 $-1 #
coedge $-1 $242 $241 $362 $446 reversed $90 $-1 #
edge $-1 $359 15.779501952376119 $447 21.727865864682748 $355 $448 forward 7 unknown #
coedge $-1 $248 $243 $445 $449 forward $144 $-1 #
vertex $-1 $449 $450 #
straight-curve $-1 -66.263551450280062 17.851473390114133 13.220122272265806 0 1 0 I I #
coedge $-1 $451 $245 $248 $366 reversed $353 $-1 #
coedge $-1 $245 $451 $356 $446 forward $353 $-1 #
vertex $-1 $246 $452 #
straight-curve $-1 -70.469679860835598 29.965196877622365 54.336584801544859 0 0 1 I I #
straight-curve $-1 -70.469679860835612 29.965196877622365 9.0139937641066155 -0.70710677298230451 0 -0.70710678939079041 I I #
edge $-1 $453 -41.440696682834165 $249 -29.965196877622365 $361 $454 forward 7 unknown #
point $-1 -70.469679860835598 29.965196877622365 13.22012227226581 #
point $-1 -66.263551450280062 29.965196877622365 13.22012227226581 #
edge $-1 $455 1 $455 0 $252 $-1 forward 7 unknown #
vertex $-1 $253 $456 #
ellipse-curve $-1 -67.642935545013074 35.702946780228267 10.393377924434528 -0.70710678939079041 0 0.70710677298230451 0.70710677298230451 0 0.70710678939079041 1 I I #
point $-1 -67.659508882575523 35.702946780228267 11.824164807577008 #
plane-surface $-1 0 0 13.22012227226581 0 0 1 1 0 0 forward_v I I I I #
coedge $-1 $384 $383 $376 $457 forward $257 $-1 #
coedge $-1 $376 $259 $261 $380 reversed $159 $-1 #
coedge $-1 $259 $375 $374 $457 reversed $159 $-1 #
coedge $-1 $267 $262 $259 $378 forward $268 $-1 #
edge $-1 $381 20.93244050889853 $458 30.019080372287668 $377 $459 forward 7 unknown #
coedge $-1 $261 $260 $384 $460 reversed $99 $-1 #
edge $-1 $461 -140.93935972167117 $381 -127.35958934211718 $375 $462 forward 7 unknown #
vertex $-1 $263 $463 #
straight-curve $-1 61.383039997446474 -2.6613377269080445 13.220122272265804 0 -1 0 I I #
coedge $-1 $374 $264 $267 $388 reversed $257 $-1 #
coedge $-1 $264 $374 $379 $460 forward $257 $-1 #
vertex $-1 $265 $464 #
straight-curve $-1 70.469679860835598 -1.4252878712476829 101.08679052780968 0 0 1 I I #
straight-curve $-1 -23.837158073307791 -1.4252878712476829 107.86674312147596 0.66913059716165679 0 -0.74314483375859142 I I #
edge $-1 $458 -9.2200630363844951 $269 -1.4252878712476829 $383 $465 forward 7 unknown #
point $-1 70.469679860835598 -1.4252878712476829 13.22012227226581 #
point $-1 61.38303999744646 -1.4252878712476829 13.220122272265812 #
edge $-1 $466 1 $466 0 $272 $-1 forward 7 unknown #
vertex $-1 $273 $467 #
ellipse-curve $-1 65.183215095382437 -6.9929844177739753 7.5051235745073965 0.74314483375859142 0 0.66913059716165679 0.3345652985808284 0 -0.37157241687929571 1 I I #
point $-1 66.260925227721856 -6.9929844177739753 7.8026817547897576 #
edge $-1 $468 1 $468 0 $276 $-1 forward 7 unknown #
vertex $-1 $277 $469 #
ellipse-curve $-1 65.183215095382437 -3.6523664898581956 7.5051235745073965 0.74314483375859142 0 0.66913059716165679 0.3345652985808284 0 -0.37157241687929571 1 I I #
point $-1 66.260925227721856 -3.6523664898581956 7.8026817547897576 #
plane-surface $-1 70.469679860835598 0 0 -1 0 0 0 0 1 forward_v I I I I #
coedge $-1 $285 $283 $287 $404 reversed $181 $-1 #
edge $-1 $298 -13.22012227226581 $406 13.22012227226581 $297 $470 forward 7 unknown #
vertex $-1 $404 $471 #
straight-curve $-1 -70.469679860835598 -41.440696682834165 0 0 0 -1 I I #
edge $-1 $402 -41.440696682834165 $406 41.440696682834165 $400 $472 forward 7 unknown #
straight-curve $-1 0 -41.440696682834165 -13.22012227226581 -1 0 0 I I #
vertex $-1 $290 $473 #
straight-curve $-1 0 41.440696682834165 -13.22012227226581 1 0 0 I I #
point $-1 70.469679860835598 41.440696682834165 -13.22012227226581 #
point $-1 70.469679860835598 -41.440696682834165 -13.22012227226581 #
straight-curve $-1 -70.469679860835598 0 13.22012227226581 0 -1 0 I I #
point $-1 -70.469679860835598 41.440696682834165 13.22012227226581 #
point $-1 -70.469679860835598 -41.440696682834165 13.22012227226581 #
straight-curve $-1 70.469679860835598 -41.440696682834165 0 0 0 -1 I I #
straight-curve $-1 70.469679860835598 41.440696682834165 0 0 0 -1 I I #
plane-surface $-1 70.469679860835598 0 0 -1 0 0 0 0 1 forward_v I I I I #
coedge $-1 $419 $310 $321 $428 forward $200 $-1 #
coedge $-1 $310 $419 $324 $430 reversed $200 $-1 #
straight-curve $-1 70.469679860835598 -25.282937120566665 2.1872800756229198 0 0 1 I I #
coedge $-1 $417 $416 $313 $420 forward $200 $-1 #
edge $-1 $423 8.6020286697164572 $421 24.759788231983958 $419 $474 forward 7 unknown #
vertex $-1 $315 $475 #
straight-curve $-1 0 -41.440696682834165 0.6365581724160565 1 0 0 I I #
vertex $-1 $420 $476 #
straight-curve $-1 0 -25.282937120566665 0.6365581724160565 1 0 0 I I #
point $-1 70.469679860835598 -41.440696682834165 0.6365581724160565 #
point $-1 70.469679860835598 -25.282937120566665 0.6365581724160565 #
straight-curve $-1 -70.469679860835598 -16.680908450850207 8.1125621300756237 0 1 0 I I #
edge $-1 $322 -5.9252820544527038 $423 1.5507219032068633 $416 $477 forward 7 unknown #
point $-1 -70.469679860835598 -25.282937120566665 8.1125621300756237 #
edge $-1 $326 -8.1125621300756237 $421 -0.6365581724160565 $417 $478 forward 7 unknown #
point $-1 -70.469679860835598 -41.440696682834165 8.1125621300756237 #
straight-curve $-1 70.469679860835598 -41.440696682834165 0 0 0 -1 I I #
edge $-1 $434 41.116462529279048 $437 45.322591037438229 $332 $479 forward 7 unknown #
vertex $-1 $346 $480 #
straight-curve $-1 -85.064429006210105 8.0788797811337467 13.220122272265812 -1 0 0 I I #
edge $-1 $437 -6.9083148418698244 $343 4.5671849633419797 $342 $481 forward 7 unknown #
vertex $-1 $436 $482 #
straight-curve $-1 -70.469679860835612 8.0788797811337467 9.0139937641066155 0.70710677298230451 0 0.70710678939079041 I I #
point $-1 -66.263551450280062 8.0788797811337467 13.22012227226581 #
point $-1 -70.469679860835598 -3.3966200240780573 9.0139937641066297 #
straight-curve $-1 -70.469679860835598 0 13.22012227226581 0 -1 0 I I #
vertex $-1 $349 $483 #
point $-1 -66.935828772030774 2.3411298785278447 11.100484713825319 #
coedge $-1 $445 $355 $451 $484 reversed $239 $-1 #
coedge $-1 $355 $444 $358 $449 reversed $239 $-1 #
edge $-1 $447 -23.589223292720039 $363 -12.113723487508231 $362 $485 forward 7 unknown #
vertex $-1 $357 $486 #
straight-curve $-1 -55.105758745467412 41.440696682834165 24.377915235996195 -0.70710677298230462 0 -0.70710678939079052 I I #
edge $-1 $359 66.263551450280062 $453 70.469679860835598 $445 $487 forward 7 unknown #
point $-1 -66.263551450280062 41.440696682834172 13.22012227226581 #
coedge $-1 $362 $361 $444 $484 forward $353 $-1 #
point $-1 -70.469679860835598 29.965196877622365 9.0139937641066297 #
vertex $-1 $449 $488 #
straight-curve $-1 -70.469679860835598 0 13.22012227226581 0 -1 0 I I #
vertex $-1 $369 $489 #
point $-1 -66.935828772030774 35.702946780228267 11.100484713825319 #
edge $-1 $458 87.866668255543871 $461 97.958404456737355 $374 $490 forward 7 unknown #
vertex $-1 $388 $491 #
straight-curve $-1 40.45059948854793 -9.2200630363844951 13.220122272265812 1 0 0 I I #
edge $-1 $461 -6.5587253094764506 $385 1.2360498556603616 $384 $492 forward 7 unknown #
vertex $-1 $460 $493 #
straight-curve $-1 -23.837158073307791 -9.2200630363844951 107.86674312147596 -0.66913059716165679 0 0.74314483375859142 I I #
point $-1 61.38303999744646 -9.2200630363844951 13.220122272265812 #
point $-1 70.469679860835598 -1.4252878712476829 3.1283860710723275 #
straight-curve $-1 70.469679860835598 0 13.22012227226581 0 1 0 I I #
vertex $-1 $391 $494 #
point $-1 65.517780393963264 -6.9929844177739753 7.1335511576281005 #
vertex $-1 $395 $495 #
point $-1 65.517780393963264 -3.6523664898581956 7.1335511576281005 #
straight-curve $-1 -70.469679860835598 41.440696682834165 0 0 0 -1 I I #
point $-1 -70.469679860835598 -41.440696682834165 -13.22012227226581 #
straight-curve $-1 -70.469679860835598 0 -13.22012227226581 0 1 0 I I #
point $-1 -70.469679860835598 41.440696682834165 -13.22012227226581 #
straight-curve $-1 -70.469679860835598 -16.680908450850207 0.6365581724160565 0 -1 0 I I #
point $-1 -70.469679860835598 -41.440696682834165 0.6365581724160565 #
point $-1 -70.469679860835598 -25.282937120566665 0.6365581724160565 #
straight-curve $-1 -70.469679860835598 -25.282937120566665 2.1872800756229198 0 0 -1 I I #
straight-curve $-1 -70.469679860835598 -41.440696682834165 0 0 0 -1 I I #
straight-curve $-1 -70.469679860835598 8.0788797811337467 54.336584801544859 0 0 -1 I I #
point $-1 -70.469679860835598 8.0788797811337467 13.22012227226581 #
straight-curve $-1 -70.469679860835598 1.1705649392639224 9.0139937641066297 0 -1 0 I I #
point $-1 -70.469679860835598 8.0788797811337467 9.0139937641066297 #
point $-1 -66.935828755622282 2.3411298785278447 9.6862711514522246 #
edge $-1 $453 -13.22012227226581 $447 -9.0139937641066297 $444 $496 forward 7 unknown #
straight-curve $-1 -70.469679860835598 17.851473390114133 9.0139937641066297 0 -1 0 I I #
point $-1 -70.469679860835598 41.440696682834172 9.0139937641066297 #
straight-curve $-1 0 41.440696682834165 13.22012227226581 -1 0 0 I I #
point $-1 -70.469679860835598 41.440696682834165 13.22012227226581 #
point $-1 -66.935828755622282 35.702946780228267 9.6862711514522246 #
straight-curve $-1 70.469679860835598 -9.2200630363844951 101.08679052780968 0 0 -1 I I #
point $-1 70.469679860835598 -9.2200630363844951 13.22012227226581 #
straight-curve $-1 70.469679860835598 -2.6613377269080445 3.1283860710723346 0 1 0 I I #
point $-1 70.469679860835598 -9.2200630363844951 3.1283860710723275 #
point $-1 64.811642678503134 -6.9929844177739753 7.1705582759265676 #
point $-1 64.811642678503134 -3.6523664898581956 7.1705582759265676 #
straight-curve $-1 -70.469679860835598 41.440696682834165 0 0 0 -1 I I #
End-of-ACIS-data 