500 0 7 0           
7 Unknown 11 ACIS 5.0 NT 24 Fri Mar 26 18:48:43 1999 
-1 9.9999999999999995e-007 1e-010 
body $-1 $7 $-1 $8 #
body $-1 $9 $-1 $10 #
body $-1 $11 $-1 $12 #
body $-1 $13 $-1 $14 #
body $-1 $15 $-1 $16 #
body $-1 $17 $-1 $18 #
body $-1 $19 $-1 $20 #
lump $-1 $-1 $21 $0 #
transform $-1 1 0 0 0 1 0 0 0 1 75.937376018555256 47.43148575575929 10.652289209511309 1 rotate no_reflect no_shear #
lump $-1 $-1 $22 $1 #
transform $-1 1 0 0 0 1 0 0 0 1 75.937376018555256 47.43148575575929 10.652289209511309 1 rotate no_reflect no_shear #
lump $-1 $-1 $23 $2 #
transform $-1 1 0 0 0 1 0 0 0 1 75.937376018555256 47.43148575575929 10.652289209511309 1 rotate no_reflect no_shear #
lump $-1 $-1 $24 $3 #
transform $-1 1 0 0 0 1 0 0 0 1 75.937376018555256 47.43148575575929 10.652289209511309 1 rotate no_reflect no_shear #
lump $-1 $-1 $25 $4 #
transform $-1 1 0 0 0 1 0 0 0 1 75.937376018555256 47.43148575575929 10.652289209511309 1 rotate no_reflect no_shear #
lump $-1 $-1 $26 $5 #
transform $-1 1 0 0 0 1 0 0 0 1 75.937376018555256 47.43148575575929 10.652289209511309 1 rotate no_reflect no_shear #
lump $-1 $-1 $27 $6 #
transform $-1 1 0 0 0 1 0 0 0 1 75.937376018555256 47.43148575575929 10.652289209511309 1 rotate no_reflect no_shear #
shell $-1 $-1 $-1 $28 $-1 $7 #
shell $-1 $-1 $-1 $29 $-1 $9 #
shell $-1 $-1 $-1 $30 $-1 $11 #
shell $-1 $-1 $-1 $31 $-1 $13 #
shell $-1 $-1 $-1 $32 $-1 $15 #
shell $-1 $-1 $-1 $33 $-1 $17 #
shell $-1 $-1 $-1 $34 $-1 $19 #
face $-1 $35 $36 $21 $-1 $37 forward single #
face $-1 $38 $39 $22 $-1 $40 reversed single #
face $-1 $41 $42 $23 $-1 $43 reversed single #
face $-1 $44 $45 $24 $-1 $46 forward single #
face $-1 $47 $48 $25 $-1 $49 forward single #
face $-1 $50 $51 $26 $-1 $52 reversed single #
face $-1 $53 $54 $27 $-1 $55 forward single #
face $-1 $56 $57 $21 $-1 $58 reversed single #
loop $-1 $-1 $59 $28 #
plane-surface $-1 0 0 10.652289209511309 0 0 1 1 0 0 forward_v I I I I #
face $-1 $60 $61 $22 $-1 $62 reversed single #
loop $-1 $-1 $63 $29 #
plane-surface $-1 -73.876910481923773 -38.712382067275108 0 0 -1 0 0 0 -1 forward_v I I I I #
face $-1 $64 $65 $23 $-1 $66 reversed single #
loop $-1 $-1 $67 $30 #
plane-surface $-1 -201.84725300604242 -19.424179801750707 86.332003548985298 0 1 0 -0.82903758062907751 0 0.55919289150049634 forward_v I I I I #
face $-1 $68 $69 $24 $-1 $70 forward single #
loop $-1 $71 $72 $31 #
cone-surface $-1 -71.666026949528089 -14.805207870895316 5.2510888175297508 0.82903758062907751 0 -0.55919289150049634 0.83878933725074445 0 1.2435563709436162 1 I I 0 1 1.5 forward I I I I #
face $-1 $73 $74 $25 $-1 $75 forward single #
loop $-1 $76 $77 $32 #
cone-surface $-1 -71.666026949528089 -7.876749974612224 5.2510888175297508 0.82903758062907751 0 -0.55919289150049634 0.83878933725074445 0 1.2435563709436162 1 I I 0 1 1.5 forward I I I I #
face $-1 $78 $79 $26 $-1 $80 reversed single #
loop $-1 $-1 $81 $33 #
plane-surface $-1 120.59334526104931 23.770380839407729 216.68113535219089 0 1 0 0.83867057594974714 0 0.54463902268945019 forward_v I I I I #
face $-1 $82 $83 $27 $-1 $84 forward single #
loop $-1 $85 $86 $34 #
cone-surface $-1 73.595673009174718 35.600933297583516 7.9574053851191122 -0.83867057594974714 0 -0.54463902268945019 0.54463902268945019 0 -0.83867057594974714 1 I I 0 1 1 forward I I I I #
face $-1 $87 $88 $21 $-1 $89 reversed single #
loop $-1 $-1 $90 $35 #
plane-surface $-1 0 0 -10.652289209511309 0 0 1 1 0 0 forward_v I I I I #
coedge $-1 $91 $92 $93 $94 forward $36 $-1 #
face $-1 $95 $96 $22 $-1 $97 forward single #
loop $-1 $-1 $98 $38 #
plane-surface $-1 -71.81644494529229 -43.071933911517199 0 -1 0 0 0 0 1 forward_v I I I I #
coedge $-1 $99 $100 $101 $102 forward $39 $-1 #
face $-1 $103 $104 $23 $-1 $105 reversed single #
loop $-1 $-1 $106 $41 #
plane-surface $-1 -75.93737601855527 -11.34097892275377 1.4047218114325801 -0.82903758062907751 0 0.55919289150049634 0.55919289150049634 0 0.82903758062907751 forward_v I I I I #
coedge $-1 $107 $108 $109 $110 reversed $42 $-1 #
face $-1 $-1 $111 $24 $-1 $112 forward single #
loop $-1 $113 $114 $44 #
cone-surface $-1 -69.891681082932834 -14.805207870895316 4.0542774559621968 0.82903758062907751 0 -0.55919289150049634 0.41939466862537222 0 0.62177818547180808 1 I I -0.70710678118654724 0.70710678118654768 0.75 forward I I I I #
loop $-1 $-1 $115 $31 #
coedge $-1 $72 $72 $116 $117 reversed $45 $-1 #
face $-1 $-1 $118 $25 $-1 $119 forward single #
loop $-1 $120 $121 $47 #
cone-surface $-1 -69.891681082932834 -7.876749974612224 4.0542774559621968 0.82903758062907751 0 -0.55919289150049634 0.41939466862537222 0 0.62177818547180808 1 I I -0.70710678118654724 0.70710678118654768 0.75 forward I I I I #
loop $-1 $-1 $122 $32 #
coedge $-1 $77 $77 $123 $124 reversed $48 $-1 #
face $-1 $125 $126 $26 $-1 $127 forward single #
loop $-1 $-1 $128 $50 #
plane-surface $-1 -6.7795405021391986 35.600933297583516 133.96421883149645 0.83867057594974714 0 0.54463902268945019 0.54463902268945019 0 -0.83867057594974714 forward_v I I I I #
coedge $-1 $129 $130 $131 $132 reversed $51 $-1 #
face $-1 $-1 $133 $27 $-1 $134 forward single #
loop $-1 $135 $136 $53 #
cone-surface $-1 72.153242546263129 35.600933297583516 7.0206801199838651 -0.83867057594974714 0 -0.54463902268945019 0.2723195113447251 0 -0.41933528797487357 1 I I -0.70710678118654746 0.70710678118654746 0.5 forward I I I I #
loop $-1 $-1 $137 $34 #
coedge $-1 $86 $86 $138 $139 reversed $54 $-1 #
face $-1 $140 $141 $21 $-1 $142 reversed single #
loop $-1 $-1 $143 $56 #
plane-surface $-1 0 -47.43148575575929 0 0 1 0 0 0 1 forward_v I I I I #
coedge $-1 $144 $145 $146 $147 forward $57 $-1 #
coedge $-1 $148 $59 $149 $150 forward $36 $-1 #
coedge $-1 $59 $148 $151 $152 forward $36 $-1 #
coedge $-1 $153 $154 $59 $94 reversed $155 $-1 #
edge $-1 $156 -47.43148575575929 $157 47.43148575575929 $93 $158 forward 7 unknown #
face $-1 $159 $160 $22 $-1 $161 reversed single #
loop $-1 $-1 $162 $60 #
plane-surface $-1 0 0 10.652289209511309 0 0 1 1 0 0 forward_v I I I I #
coedge $-1 $163 $164 $165 $166 reversed $61 $-1 #
coedge $-1 $167 $63 $168 $169 reversed $39 $-1 #
coedge $-1 $63 $167 $170 $171 reversed $39 $-1 #
coedge $-1 $164 $163 $63 $102 reversed $61 $-1 #
edge $-1 $172 -10.652289209511309 $173 10.652289209511309 $101 $174 forward 7 unknown #
face $-1 $175 $176 $23 $-1 $177 reversed single #
loop $-1 $-1 $178 $64 #
plane-surface $-1 -201.84725300604242 -3.2577780437568329 86.332003548985298 0 -1 0 0.82903758062907751 0 -0.55919289150049634 forward_v I I I I #
coedge $-1 $179 $180 $181 $182 reversed $65 $-1 #
coedge $-1 $108 $67 $183 $184 reversed $42 $-1 #
coedge $-1 $67 $107 $179 $185 reversed $42 $-1 #
coedge $-1 $181 $186 $67 $110 forward $187 $-1 #
edge $-1 $188 24.986250484465955 $189 31.223813260273346 $109 $190 forward 7 unknown #
loop $-1 $-1 $116 $68 #
plane-surface $-1 -75.93737601855527 -11.34097892275377 1.4047218114325801 -0.82903758062907751 0 0.55919289150049634 0.55919289150049634 0 0.82903758062907751 forward_v I I I I #
loop $-1 $-1 $191 $44 #
coedge $-1 $114 $114 $115 $192 reversed $69 $-1 #
coedge $-1 $115 $115 $114 $192 forward $71 $-1 #
coedge $-1 $116 $116 $72 $117 forward $111 $-1 #
edge $-1 $193 0 $193 6.2831853071796004 $116 $194 forward 7 unknown #
loop $-1 $-1 $123 $73 #
plane-surface $-1 -75.93737601855527 -11.34097892275377 1.4047218114325801 -0.82903758062907751 0 0.55919289150049634 0.55919289150049634 0 0.82903758062907751 forward_v I I I I #
loop $-1 $-1 $195 $47 #
coedge $-1 $121 $121 $122 $196 reversed $74 $-1 #
coedge $-1 $122 $122 $121 $196 forward $76 $-1 #
coedge $-1 $123 $123 $77 $124 forward $118 $-1 #
edge $-1 $197 0 $197 6.2831853071796004 $123 $198 forward 7 unknown #
face $-1 $199 $200 $26 $-1 $201 reversed single #
loop $-1 $-1 $202 $78 #
plane-surface $-1 0 0 10.652289209511309 0 0 1 1 0 0 forward_v I I I I #
coedge $-1 $203 $204 $205 $206 reversed $79 $-1 #
coedge $-1 $130 $81 $207 $208 reversed $51 $-1 #
coedge $-1 $81 $129 $203 $209 reversed $51 $-1 #
coedge $-1 $205 $210 $81 $132 forward $211 $-1 #
edge $-1 $212 97.688278466584137 $213 101.7492346077875 $131 $214 forward 7 unknown #
loop $-1 $-1 $138 $82 #
plane-surface $-1 -6.7795405021391986 35.600933297583516 133.96421883149645 0.83867057594974714 0 0.54463902268945019 0.54463902268945019 0 -0.83867057594974714 forward_v I I I I #
loop $-1 $-1 $215 $53 #
coedge $-1 $136 $136 $137 $216 reversed $83 $-1 #
coedge $-1 $137 $137 $136 $216 forward $85 $-1 #
coedge $-1 $138 $138 $86 $139 forward $133 $-1 #
edge $-1 $217 0 $217 6.2831853071796004 $138 $218 forward 7 unknown #
face $-1 $219 $220 $21 $-1 $221 reversed single #
loop $-1 $-1 $222 $87 #
plane-surface $-1 -75.937376018555256 0 0 1 0 0 0 0 -1 forward_v I I I I #
coedge $-1 $223 $151 $224 $225 forward $88 $-1 #
coedge $-1 $226 $90 $223 $227 forward $57 $-1 #
coedge $-1 $90 $226 $228 $229 forward $57 $-1 #
coedge $-1 $154 $153 $90 $147 reversed $155 $-1 #
edge $-1 $230 -47.43148575575929 $231 47.43148575575929 $146 $232 forward 7 unknown #
coedge $-1 $92 $91 $233 $234 forward $36 $-1 #
coedge $-1 $235 $236 $91 $150 reversed $220 $-1 #
edge $-1 $157 -75.937376018555256 $237 75.937376018555256 $149 $238 forward 7 unknown #
coedge $-1 $143 $239 $92 $152 reversed $88 $-1 #
edge $-1 $240 -75.937376018555256 $156 75.937376018555256 $151 $241 forward 7 unknown #
coedge $-1 $146 $93 $239 $242 forward $155 $-1 #
coedge $-1 $93 $146 $235 $243 reversed $155 $-1 #
loop $-1 $-1 $153 $219 #
vertex $-1 $94 $244 #
vertex $-1 $94 $245 #
straight-curve $-1 75.937376018555256 0 10.652289209511309 0 1 0 I I #
face $-1 $246 $247 $22 $-1 $248 reversed single #
loop $-1 $-1 $249 $95 #
plane-surface $-1 -75.937376018555256 0 0 1 0 0 0 0 -1 forward_v I I I I #
coedge $-1 $170 $250 $164 $251 forward $96 $-1 #
coedge $-1 $101 $98 $252 $253 reversed $61 $-1 #
coedge $-1 $98 $101 $162 $251 reversed $61 $-1 #
coedge $-1 $254 $255 $98 $166 forward $256 $-1 #
edge $-1 $257 -10.652289209511309 $258 10.652289209511309 $165 $259 forward 7 unknown #
coedge $-1 $100 $99 $249 $260 reversed $39 $-1 #
coedge $-1 $252 $261 $99 $169 forward $247 $-1 #
edge $-1 $262 -38.998920777593369 $173 -34.877989704330403 $168 $263 forward 7 unknown #
coedge $-1 $264 $162 $100 $171 forward $96 $-1 #
edge $-1 $172 34.877989704330403 $265 38.998920777593369 $170 $266 forward 7 unknown #
vertex $-1 $171 $267 #
vertex $-1 $169 $268 #
straight-curve $-1 -71.81644494529229 -38.712382067275108 0 0 0 -1 I I #
face $-1 $-1 $187 $23 $-1 $269 forward single #
loop $-1 $-1 $270 $103 #
plane-surface $-1 -75.937376018555256 0 0 1 0 0 0 0 -1 forward_v I I I I #
coedge $-1 $271 $272 $273 $274 reversed $104 $-1 #
coedge $-1 $275 $106 $108 $185 forward $65 $-1 #
coedge $-1 $106 $275 $271 $276 forward $65 $-1 #
coedge $-1 $273 $109 $106 $182 forward $187 $-1 #
edge $-1 $189 -13.753690340373822 $277 2.4127114176200521 $181 $278 forward 7 unknown #
coedge $-1 $279 $280 $107 $184 forward $176 $-1 #
edge $-1 $281 -41.761279963060048 $188 -32.51371256498134 $183 $282 forward 7 unknown #
edge $-1 $189 -11.154581666927127 $281 -2.5434524534472062e-014 $108 $283 forward 7 unknown #
coedge $-1 $109 $273 $279 $284 forward $187 $-1 #
loop $-1 $-1 $273 $175 #
vertex $-1 $184 $285 #
vertex $-1 $110 $286 #
straight-curve $-1 -100.92362650302121 -19.424179801750707 10.652289209511309 1 0 0 I I #
coedge $-1 $191 $191 $-1 $287 reversed $113 $-1 #
edge $-1 $288 0 $288 6.2831853071796004 $114 $289 forward 7 unknown #
vertex $-1 $117 $290 #
ellipse-curve $-1 -72.81859463065156 -14.805207870895316 6.0285055104719483 -0.82903758062907751 0 0.55919289150049634 0.83878933725074445 0 1.2435563709436162 1 I I #
coedge $-1 $195 $195 $-1 $291 reversed $120 $-1 #
edge $-1 $292 0 $292 6.2831853071796004 $121 $293 forward 7 unknown #
vertex $-1 $124 $294 #
ellipse-curve $-1 -72.81859463065156 -7.876749974612224 6.0285055104719483 -0.82903758062907751 0 0.55919289150049634 0.83878933725074445 0 1.2435563709436162 1 I I #
face $-1 $-1 $211 $26 $-1 $295 reversed single #
loop $-1 $-1 $296 $125 #
plane-surface $-1 0 47.43148575575929 0 0 -1 0 0 0 -1 forward_v I I I I #
coedge $-1 $207 $297 $298 $299 forward $126 $-1 #
coedge $-1 $298 $128 $130 $209 forward $79 $-1 #
coedge $-1 $128 $298 $296 $300 reversed $79 $-1 #
coedge $-1 $301 $131 $128 $206 forward $211 $-1 #
edge $-1 $213 5.9699141906159703 $302 29.631019106967532 $205 $303 forward 7 unknown #
coedge $-1 $304 $202 $129 $208 forward $126 $-1 #
edge $-1 $305 13.003487719142925 $212 15.640703388030602 $207 $306 forward 7 unknown #
edge $-1 $213 -151.87475203711051 $305 -147.03261704673653 $130 $307 forward 7 unknown #
coedge $-1 $131 $301 $304 $308 reversed $211 $-1 #
loop $-1 $-1 $205 $199 #
vertex $-1 $308 $309 #
vertex $-1 $132 $310 #
straight-curve $-1 75.937376018555256 23.770380839407729 108.34056767609545 0 0 -1 I I #
coedge $-1 $215 $215 $-1 $311 reversed $135 $-1 #
edge $-1 $312 0 $312 6.2831853071796004 $136 $313 forward 7 unknown #
vertex $-1 $139 $314 #
ellipse-curve $-1 74.618768184111417 35.600933297583516 8.6218111389096244 0.83867057594974714 0 0.54463902268945019 0.54463902268945019 0 -0.83867057594974714 1 I I #
face $-1 $-1 $155 $21 $-1 $315 reversed single #
loop $-1 $-1 $235 $140 #
plane-surface $-1 0 47.43148575575929 0 0 -1 0 0 0 -1 forward_v I I I I #
coedge $-1 $316 $233 $236 $317 forward $141 $-1 #
coedge $-1 $239 $143 $144 $227 reversed $88 $-1 #
coedge $-1 $233 $316 $143 $225 reversed $141 $-1 #
edge $-1 $240 -10.652289209511309 $318 10.652289209511309 $224 $319 forward 7 unknown #
coedge $-1 $145 $144 $316 $320 forward $57 $-1 #
edge $-1 $231 -75.937376018555256 $318 75.937376018555256 $223 $321 forward 7 unknown #
coedge $-1 $236 $235 $145 $229 reversed $220 $-1 #
edge $-1 $322 -75.937376018555256 $230 75.937376018555256 $228 $323 forward 7 unknown #
vertex $-1 $147 $324 #
vertex $-1 $242 $325 #
straight-curve $-1 75.937376018555256 0 -10.652289209511309 0 -1 0 I I #
coedge $-1 $222 $224 $148 $234 reversed $141 $-1 #
edge $-1 $237 -47.43148575575929 $240 47.43148575575929 $233 $326 forward 7 unknown #
coedge $-1 $228 $149 $154 $243 forward $220 $-1 #
coedge $-1 $149 $228 $222 $317 reversed $220 $-1 #
vertex $-1 $150 $327 #
straight-curve $-1 0 47.43148575575929 10.652289209511309 -1 0 0 I I #
coedge $-1 $151 $223 $153 $242 reversed $88 $-1 #
vertex $-1 $234 $328 #
straight-curve $-1 0 -47.43148575575929 10.652289209511309 1 0 0 I I #
edge $-1 $156 -10.652289209511309 $231 10.652289209511309 $153 $329 forward 7 unknown #
edge $-1 $157 -10.652289209511309 $230 10.652289209511309 $154 $330 forward 7 unknown #
point $-1 75.937376018555256 -47.43148575575929 10.652289209511309 #
point $-1 75.937376018555256 47.43148575575929 10.652289209511309 #
face $-1 $-1 $256 $22 $-1 $331 reversed single #
loop $-1 $-1 $252 $159 #
plane-surface $-1 0 0 -10.652289209511309 0 0 1 1 0 0 forward_v I I I I #
coedge $-1 $332 $333 $167 $260 forward $160 $-1 #
coedge $-1 $162 $264 $254 $334 forward $96 $-1 #
edge $-1 $258 -25.895518800000691 $172 -17.176415111516508 $162 $335 forward 7 unknown #
coedge $-1 $336 $168 $163 $253 forward $247 $-1 #
edge $-1 $173 17.176415111516508 $257 25.895518800000691 $252 $337 forward 7 unknown #
coedge $-1 $338 $165 $250 $334 reversed $256 $-1 #
coedge $-1 $165 $338 $336 $339 reversed $256 $-1 #
loop $-1 $-1 $165 $246 #
vertex $-1 $339 $340 #
vertex $-1 $166 $341 #
straight-curve $-1 -71.81644494529229 -47.43148575575929 0 0 0 1 I I #
edge $-1 $265 -10.652289209511309 $262 10.652289209511309 $249 $342 forward 7 unknown #
coedge $-1 $168 $336 $332 $343 forward $247 $-1 #
vertex $-1 $169 $344 #
straight-curve $-1 -36.938455240961886 -38.712382067275108 -10.652289209511309 1 0 0 I I #
coedge $-1 $250 $170 $333 $345 forward $96 $-1 #
vertex $-1 $345 $346 #
straight-curve $-1 -36.938455240961886 -38.712382067275108 10.652289209511309 -1 0 0 I I #
point $-1 -71.81644494529229 -38.712382067275108 10.652289209511309 #
point $-1 -71.81644494529229 -38.712382067275108 -10.652289209511309 #
plane-surface $-1 0 0 10.652289209511309 0 0 1 1 0 0 forward_v I I I I #
coedge $-1 $280 $279 $272 $347 forward $176 $-1 #
coedge $-1 $272 $178 $180 $276 reversed $104 $-1 #
coedge $-1 $178 $271 $270 $347 reversed $104 $-1 #
coedge $-1 $186 $181 $178 $274 forward $187 $-1 #
edge $-1 $277 -31.223813260273346 $348 -24.986250484465955 $273 $349 forward 7 unknown #
coedge $-1 $180 $179 $280 $350 reversed $65 $-1 #
edge $-1 $351 2.5434524534472062e-014 $277 11.154581666927127 $271 $352 forward 7 unknown #
vertex $-1 $182 $353 #
straight-curve $-1 -69.699813242747865 -5.670489461376885 10.652289209511309 0 1 0 I I #
coedge $-1 $270 $183 $186 $284 reversed $176 $-1 #
coedge $-1 $183 $270 $275 $350 forward $176 $-1 #
vertex $-1 $184 $354 #
straight-curve $-1 -75.937376018555256 -19.424179801750707 43.166001774492649 0 0 1 I I #
straight-curve $-1 -75.93737601855527 -19.424179801750707 1.4047218114325801 -0.55919289150049634 0 -0.82903758062907751 I I #
edge $-1 $348 3.2577780437568329 $188 19.424179801750707 $279 $355 forward 7 unknown #
point $-1 -75.937376018555256 -19.424179801750707 10.652289209511309 #
point $-1 -69.699813242747865 -19.424179801750707 10.652289209511309 #
edge $-1 $356 1 $356 0 $191 $-1 forward 7 unknown #
vertex $-1 $192 $357 #
ellipse-curve $-1 -70.513459268404645 -14.805207870895316 4.4736721245875692 -0.82903758062907751 0 0.55919289150049634 0.83878933725074445 0 1.2435563709436162 1 I I #
point $-1 -71.979805293400801 -14.805207870895316 7.2720618814155493 #
edge $-1 $358 1 $358 0 $195 $-1 forward 7 unknown #
vertex $-1 $196 $359 #
ellipse-curve $-1 -70.513459268404645 -7.876749974612224 4.4736721245875692 -0.82903758062907751 0 0.55919289150049634 0.83878933725074445 0 1.2435563709436162 1 I I #
point $-1 -71.979805293400801 -7.876749974612224 7.2720618814155493 #
plane-surface $-1 75.937376018555256 0 0 -1 0 0 0 0 1 forward_v I I I I #
coedge $-1 $360 $361 $204 $300 forward $200 $-1 #
coedge $-1 $202 $304 $360 $362 forward $126 $-1 #
coedge $-1 $204 $203 $202 $299 reversed $79 $-1 #
edge $-1 $363 -29.631019106967546 $305 -5.9699141906159703 $202 $364 forward 7 unknown #
edge $-1 $302 -93.852626598391652 $363 -89.010491608017674 $296 $365 forward 7 unknown #
coedge $-1 $210 $205 $361 $366 reversed $211 $-1 #
vertex $-1 $206 $367 #
straight-curve $-1 75.937376018555256 17.800466648791758 6.5913330683079323 0 1 0 I I #
coedge $-1 $297 $207 $210 $308 forward $126 $-1 #
vertex $-1 $208 $368 #
straight-curve $-1 60.296672630524654 23.770380839407729 10.652289209511309 1 0 0 I I #
straight-curve $-1 -6.7795405021391986 23.770380839407729 133.96421883149645 -0.54463902268945019 0 0.83867057594974714 I I #
edge $-1 $212 23.770380839407729 $369 47.43148575575929 $210 $370 forward 7 unknown #
point $-1 75.937376018555256 23.770380839407729 10.652289209511309 #
point $-1 75.937376018555256 23.770380839407729 6.5913330683079465 #
edge $-1 $371 1 $371 0 $215 $-1 forward 7 unknown #
vertex $-1 $216 $372 #
ellipse-curve $-1 72.572577834238004 35.600933297583516 7.2929996313285903 0.83867057594974714 0 0.54463902268945019 0.54463902268945019 0 -0.83867057594974714 1 I I #
point $-1 75.163407206800883 35.600933297583516 7.7831405629598871 #
plane-surface $-1 75.937376018555256 0 0 -1 0 0 0 0 1 forward_v I I I I #
coedge $-1 $224 $222 $226 $320 reversed $141 $-1 #
edge $-1 $237 -10.652289209511309 $322 10.652289209511309 $236 $373 forward 7 unknown #
vertex $-1 $320 $374 #
straight-curve $-1 -75.937376018555256 -47.43148575575929 0 0 0 -1 I I #
edge $-1 $318 -47.43148575575929 $322 47.43148575575929 $316 $375 forward 7 unknown #
straight-curve $-1 0 -47.43148575575929 -10.652289209511309 -1 0 0 I I #
vertex $-1 $229 $376 #
straight-curve $-1 0 47.43148575575929 -10.652289209511309 1 0 0 I I #
point $-1 75.937376018555256 47.43148575575929 -10.652289209511309 #
point $-1 75.937376018555256 -47.43148575575929 -10.652289209511309 #
straight-curve $-1 -75.937376018555256 0 10.652289209511309 0 -1 0 I I #
point $-1 -75.937376018555256 47.43148575575929 10.652289209511309 #
point $-1 -75.937376018555256 -47.43148575575929 10.652289209511309 #
straight-curve $-1 75.937376018555256 -47.43148575575929 0 0 0 -1 I I #
straight-curve $-1 75.937376018555256 47.43148575575929 0 0 0 -1 I I #
plane-surface $-1 0 -47.43148575575929 0 0 1 0 0 0 1 forward_v I I I I #
coedge $-1 $377 $249 $261 $343 reversed $160 $-1 #
coedge $-1 $249 $377 $264 $345 reversed $160 $-1 #
edge $-1 $378 -75.937376018555256 $258 -71.81644494529229 $254 $379 forward 7 unknown #
straight-curve $-1 -71.81644494529229 -21.5359669557586 10.652289209511309 0 1 0 I I #
coedge $-1 $261 $252 $255 $339 forward $247 $-1 #
straight-curve $-1 -71.81644494529229 -21.5359669557586 -10.652289209511309 0 -1 0 I I #
coedge $-1 $255 $254 $377 $380 forward $256 $-1 #
edge $-1 $257 71.81644494529229 $381 75.937376018555256 $255 $382 forward 7 unknown #
point $-1 -71.81644494529229 -47.43148575575929 -10.652289209511309 #
point $-1 -71.81644494529229 -47.43148575575929 10.652289209511309 #
straight-curve $-1 -75.937376018555256 -38.712382067275108 0 0 0 -1 I I #
edge $-1 $381 -47.43148575575929 $262 -38.712382067275108 $332 $383 forward 7 unknown #
point $-1 -75.937376018555256 -38.712382067275108 -10.652289209511309 #
edge $-1 $265 38.712382067275108 $378 47.43148575575929 $333 $384 forward 7 unknown #
point $-1 -75.937376018555256 -38.712382067275108 10.652289209511309 #
edge $-1 $348 32.51371256498134 $351 41.761279963060048 $270 $385 forward 7 unknown #
vertex $-1 $284 $386 #
straight-curve $-1 -100.92362650302121 -3.2577780437568329 10.652289209511309 -1 0 0 I I #
edge $-1 $351 -2.4127114176200521 $281 13.753690340373822 $280 $387 forward 7 unknown #
vertex $-1 $350 $388 #
straight-curve $-1 -75.93737601855527 -3.2577780437568329 1.4047218114325801 0.55919289150049634 0 0.82903758062907751 I I #
point $-1 -69.699813242747865 -3.2577780437568329 10.652289209511309 #
point $-1 -75.937376018555256 -19.424179801750707 1.4047218114326012 #
straight-curve $-1 -75.937376018555256 0 10.652289209511309 0 -1 0 I I #
vertex $-1 $287 $389 #
point $-1 -69.6746699311539 -14.805207870895316 5.7172284955311854 #
vertex $-1 $291 $390 #
point $-1 -69.6746699311539 -7.876749974612224 5.7172284955311854 #
coedge $-1 $361 $296 $297 $362 reversed $200 $-1 #
coedge $-1 $296 $360 $301 $366 forward $200 $-1 #
edge $-1 $369 -75.937376018555256 $363 -73.300160349667578 $360 $391 forward 7 unknown #
vertex $-1 $299 $392 #
straight-curve $-1 73.300160349667578 17.800466648791758 10.652289209511324 0 -1 0 I I #
straight-curve $-1 24.821573191169332 47.43148575575929 85.302769471977626 -0.54463902268945019 0 0.83867057594974714 I I #
edge $-1 $369 -10.652289209511309 $302 -6.5913330683079332 $301 $393 forward 7 unknown #
point $-1 75.937376018555256 47.43148575575929 6.5913330683079332 #
point $-1 73.300160349667578 23.770380839407729 10.652289209511309 #
vertex $-1 $308 $394 #
straight-curve $-1 75.937376018555256 0 10.652289209511309 0 1 0 I I #
vertex $-1 $311 $395 #
point $-1 73.117216856927456 35.600933297583516 6.4543290553788433 #
straight-curve $-1 -75.937376018555256 47.43148575575929 0 0 0 -1 I I #
point $-1 -75.937376018555256 -47.43148575575929 -10.652289209511309 #
straight-curve $-1 -75.937376018555256 0 -10.652289209511309 0 1 0 I I #
point $-1 -75.937376018555256 47.43148575575929 -10.652289209511309 #
coedge $-1 $333 $332 $338 $380 reversed $160 $-1 #
vertex $-1 $345 $396 #
straight-curve $-1 0 -47.43148575575929 10.652289209511309 1 0 0 I I #
edge $-1 $378 -10.652289209511309 $381 10.652289209511309 $377 $397 forward 7 unknown #
vertex $-1 $343 $398 #
straight-curve $-1 0 -47.43148575575929 -10.652289209511309 -1 0 0 I I #
straight-curve $-1 -75.937376018555256 0 -10.652289209511309 0 1 0 I I #
straight-curve $-1 -75.937376018555256 0 10.652289209511309 0 -1 0 I I #
straight-curve $-1 -75.937376018555256 -3.2577780437568329 43.166001774492649 0 0 -1 I I #
point $-1 -75.937376018555256 -3.2577780437568329 10.652289209511309 #
straight-curve $-1 -75.937376018555256 -5.670489461376885 1.4047218114325821 0 -1 0 I I #
point $-1 -75.937376018555256 -3.2577780437568329 1.4047218114326012 #
point $-1 -69.269902897461023 -14.805207870895316 3.6348827873368244 #
point $-1 -69.269902897461023 -7.876749974612224 3.6348827873368244 #
straight-curve $-1 0 47.43148575575929 10.652289209511309 -1 0 0 I I #
point $-1 73.300160349667578 47.431485755759304 10.652289209511309 #
straight-curve $-1 75.937376018555256 47.43148575575929 0 0 0 -1 I I #
point $-1 75.937376018555256 47.43148575575929 10.652289209511309 #
point $-1 71.733907258288255 35.600933297583516 6.7483606086391399 #
point $-1 -75.937376018555256 -47.43148575575929 10.652289209511309 #
straight-curve $-1 -75.937376018555256 -47.43148575575929 0 0 0 -1 I I #
point $-1 -75.937376018555256 -47.43148575575929 -10.652289209511309 #
End-of-ACIS-data 