500 0 18 0           
7 Unknown 11 ACIS 5.0 NT 24 Fri Mar 26 19:40:51 1999 
-1 9.9999999999999995e-007 1e-010 
body $-1 $18 $-1 $19 #
body $-1 $20 $-1 $21 #
body $-1 $22 $-1 $23 #
body $-1 $24 $-1 $25 #
body $-1 $26 $-1 $27 #
body $-1 $28 $-1 $29 #
body $-1 $30 $-1 $31 #
body $-1 $32 $-1 $33 #
body $-1 $34 $-1 $35 #
body $-1 $36 $-1 $37 #
body $-1 $38 $-1 $39 #
body $-1 $40 $-1 $41 #
body $-1 $42 $-1 $43 #
body $-1 $44 $-1 $45 #
body $-1 $46 $-1 $47 #
body $-1 $48 $-1 $49 #
body $-1 $50 $-1 $51 #
body $-1 $52 $-1 $53 #
lump $-1 $-1 $54 $0 #
transform $-1 1 0 0 0 1 0 0 0 1 42.839442121646776 23.385783045824528 9.6181678279077794 1 rotate no_reflect no_shear #
lump $-1 $-1 $55 $1 #
transform $-1 1 0 0 0 1 0 0 0 1 42.839442121646776 23.385783045824528 9.6181678279077794 1 rotate no_reflect no_shear #
lump $-1 $-1 $56 $2 #
transform $-1 1 0 0 0 1 0 0 0 1 42.839442121646776 23.385783045824528 9.6181678279077794 1 rotate no_reflect no_shear #
lump $-1 $-1 $57 $3 #
transform $-1 1 0 0 0 1 0 0 0 1 42.839442121646776 23.385783045824528 9.6181678279077794 1 rotate no_reflect no_shear #
lump $-1 $-1 $58 $4 #
transform $-1 1 0 0 0 1 0 0 0 1 42.839442121646776 23.385783045824528 9.6181678279077794 1 rotate no_reflect no_shear #
lump $-1 $-1 $59 $5 #
transform $-1 1 0 0 0 1 0 0 0 1 42.839442121646776 23.385783045824528 9.6181678279077794 1 rotate no_reflect no_shear #
lump $-1 $-1 $60 $6 #
transform $-1 1 0 0 0 1 0 0 0 1 42.839442121646776 23.385783045824528 9.6181678279077794 1 rotate no_reflect no_shear #
lump $-1 $-1 $61 $7 #
transform $-1 1 0 0 0 1 0 0 0 1 42.839442121646776 23.385783045824528 9.6181678279077794 1 rotate no_reflect no_shear #
lump $-1 $-1 $62 $8 #
transform $-1 1 0 0 0 1 0 0 0 1 42.839442121646776 23.385783045824528 9.6181678279077794 1 rotate no_reflect no_shear #
lump $-1 $-1 $63 $9 #
transform $-1 1 0 0 0 1 0 0 0 1 42.839442121646776 23.385783045824528 9.6181678279077794 1 rotate no_reflect no_shear #
lump $-1 $-1 $64 $10 #
transform $-1 1 0 0 0 1 0 0 0 1 42.839442121646776 23.385783045824528 9.6181678279077794 1 rotate no_reflect no_shear #
lump $-1 $-1 $65 $11 #
transform $-1 1 0 0 0 1 0 0 0 1 42.839442121646776 23.385783045824528 9.6181678279077794 1 rotate no_reflect no_shear #
lump $-1 $-1 $66 $12 #
transform $-1 1 0 0 0 1 0 0 0 1 42.839442121646776 23.385783045824528 9.6181678279077794 1 rotate no_reflect no_shear #
lump $-1 $-1 $67 $13 #
transform $-1 1 0 0 0 1 0 0 0 1 42.839442121646776 23.385783045824528 9.6181678279077794 1 rotate no_reflect no_shear #
lump $-1 $-1 $68 $14 #
transform $-1 1 0 0 0 1 0 0 0 1 42.839442121646776 23.385783045824528 9.6181678279077794 1 rotate no_reflect no_shear #
lump $-1 $-1 $69 $15 #
transform $-1 1 0 0 0 1 0 0 0 1 42.839442121646776 23.385783045824528 9.6181678279077794 1 rotate no_reflect no_shear #
lump $-1 $-1 $70 $16 #
transform $-1 1 0 0 0 1 0 0 0 1 42.839442121646776 23.385783045824528 9.6181678279077794 1 rotate no_reflect no_shear #
lump $-1 $-1 $71 $17 #
transform $-1 1 0 0 0 1 0 0 0 1 42.839442121646776 23.385783045824528 9.6181678279077794 1 rotate no_reflect no_shear #
shell $-1 $-1 $-1 $72 $-1 $18 #
shell $-1 $-1 $-1 $73 $-1 $20 #
shell $-1 $-1 $-1 $74 $-1 $22 #
shell $-1 $-1 $-1 $75 $-1 $24 #
shell $-1 $-1 $-1 $76 $-1 $26 #
shell $-1 $-1 $-1 $77 $-1 $28 #
shell $-1 $-1 $-1 $78 $-1 $30 #
shell $-1 $-1 $-1 $79 $-1 $32 #
shell $-1 $-1 $-1 $80 $-1 $34 #
shell $-1 $-1 $-1 $81 $-1 $36 #
shell $-1 $-1 $-1 $82 $-1 $38 #
shell $-1 $-1 $-1 $83 $-1 $40 #
shell $-1 $-1 $-1 $84 $-1 $42 #
shell $-1 $-1 $-1 $85 $-1 $44 #
shell $-1 $-1 $-1 $86 $-1 $46 #
shell $-1 $-1 $-1 $87 $-1 $48 #
shell $-1 $-1 $-1 $88 $-1 $50 #
shell $-1 $-1 $-1 $89 $-1 $52 #
face $-1 $90 $91 $54 $-1 $92 forward single #
face $-1 $93 $94 $55 $-1 $95 reversed single #
face $-1 $96 $97 $56 $-1 $98 reversed single #
face $-1 $99 $100 $57 $-1 $101 forward single #
face $-1 $102 $103 $58 $-1 $104 forward single #
face $-1 $105 $106 $59 $-1 $107 forward single #
face $-1 $108 $109 $60 $-1 $110 reversed single #
face $-1 $111 $112 $61 $-1 $113 forward single #
face $-1 $114 $115 $62 $-1 $116 forward single #
face $-1 $117 $118 $63 $-1 $119 forward single #
face $-1 $120 $121 $64 $-1 $122 reversed single #
face $-1 $123 $124 $65 $-1 $125 forward single #
face $-1 $126 $127 $66 $-1 $128 forward single #
face $-1 $129 $130 $67 $-1 $131 forward single #
face $-1 $132 $133 $68 $-1 $134 reversed single #
face $-1 $135 $136 $69 $-1 $137 forward single #
face $-1 $138 $139 $70 $-1 $140 forward single #
face $-1 $141 $142 $71 $-1 $143 forward single #
face $-1 $144 $145 $54 $-1 $146 reversed single #
loop $-1 $-1 $147 $72 #
plane-surface $-1 0 0 9.6181678279077794 0 0 1 1 0 0 forward_v I I I I #
face $-1 $148 $149 $55 $-1 $150 reversed single #
loop $-1 $-1 $151 $73 #
plane-surface $-1 -40.51399240140892 -10.97497386346598 0 0 -1 0 0 0 -1 forward_v I I I I #
face $-1 $152 $153 $56 $-1 $154 reversed single #
loop $-1 $-1 $155 $74 #
plane-surface $-1 -39.525372521553663 29.1241375700647 97.614022935213711 1 0 0 0 -0.52991927123019833 -0.84804809178421925 forward_v I I I I #
face $-1 $156 $157 $57 $-1 $158 forward single #
loop $-1 $159 $160 $75 #
cone-surface $-1 -36.836738959301272 14.791733534430788 3.2401800432394139 0 -0.52991927123019833 -0.84804809178421925 1 0 0 1 I I 0 1 1 forward I I I I #
face $-1 $161 $162 $58 $-1 $163 forward single #
loop $-1 $164 $165 $76 #
cone-surface $-1 -32.803788615922677 14.791733534430788 3.2401800432394139 0 -0.52991927123019833 -0.84804809178421925 1 0 0 1 I I 0 1 1 forward I I I I #
face $-1 $166 $167 $59 $-1 $168 forward single #
loop $-1 $169 $170 $77 #
cone-surface $-1 -28.77083827254409 14.791733534430788 3.2401800432394139 0 -0.52991927123019833 -0.84804809178421925 1 0 0 1 I I 0 1 1 forward I I I I #
face $-1 $171 $172 $60 $-1 $173 reversed single #
loop $-1 $-1 $174 $78 #
plane-surface $-1 -18.105651460730275 29.1241375700647 97.614022935213711 1 0 0 0 -0.52991927123019833 -0.84804809178421925 forward_v I I I I #
face $-1 $175 $176 $61 $-1 $177 forward single #
loop $-1 $178 $179 $79 #
cone-surface $-1 -15.41701789847788 14.791733534430788 3.2401800432394139 0 -0.52991927123019833 -0.84804809178421925 1 0 0 1 I I 0 1 1 forward I I I I #
face $-1 $180 $181 $62 $-1 $182 forward single #
loop $-1 $183 $184 $80 #
cone-surface $-1 -11.384067555099293 14.791733534430788 3.2401800432394139 0 -0.52991927123019833 -0.84804809178421925 1 0 0 1 I I 0 1 1 forward I I I I #
face $-1 $185 $186 $63 $-1 $187 forward single #
loop $-1 $188 $189 $81 #
cone-surface $-1 -7.3511172117206982 14.791733534430788 3.2401800432394139 0 -0.52991927123019833 -0.84804809178421925 1 0 0 1 I I 0 1 1 forward I I I I #
face $-1 $190 $191 $64 $-1 $192 reversed single #
loop $-1 $-1 $193 $82 #
plane-surface $-1 3.3140696000931102 29.1241375700647 97.614022935213711 1 0 0 0 -0.52991927123019833 -0.84804809178421925 forward_v I I I I #
face $-1 $194 $195 $65 $-1 $196 forward single #
loop $-1 $197 $198 $83 #
cone-surface $-1 6.0027031623455045 14.791733534430788 3.2401800432394139 0 -0.52991927123019833 -0.84804809178421925 1 0 0 1 I I 0 1 1 forward I I I I #
face $-1 $199 $200 $66 $-1 $201 forward single #
loop $-1 $202 $203 $84 #
cone-surface $-1 10.035653505724092 14.791733534430788 3.2401800432394139 0 -0.52991927123019833 -0.84804809178421925 1 0 0 1 I I 0 1 1 forward I I I I #
face $-1 $204 $205 $67 $-1 $206 forward single #
loop $-1 $207 $208 $85 #
cone-surface $-1 14.068603849102693 14.791733534430788 3.2401800432394139 0 -0.52991927123019833 -0.84804809178421925 1 0 0 1 I I 0 1 1 forward I I I I #
face $-1 $209 $210 $68 $-1 $211 reversed single #
loop $-1 $-1 $212 $86 #
plane-surface $-1 24.733790660916501 29.1241375700647 97.614022935213711 1 0 0 0 -0.52991927123019833 -0.84804809178421925 forward_v I I I I #
face $-1 $213 $214 $69 $-1 $215 forward single #
loop $-1 $216 $217 $87 #
cone-surface $-1 27.422424223168896 14.791733534430788 3.2401800432394139 0 -0.52991927123019833 -0.84804809178421925 1 0 0 1 I I 0 1 1 forward I I I I #
face $-1 $218 $219 $70 $-1 $220 forward single #
loop $-1 $221 $222 $88 #
cone-surface $-1 31.455374566547484 14.791733534430788 3.2401800432394139 0 -0.52991927123019833 -0.84804809178421925 1 0 0 1 I I 0 1 1 forward I I I I #
face $-1 $223 $224 $71 $-1 $225 forward single #
loop $-1 $226 $227 $89 #
cone-surface $-1 35.488324909926085 14.791733534430788 3.2401800432394139 0 -0.52991927123019833 -0.84804809178421925 1 0 0 1 I I 0 1 1 forward I I I I #
face $-1 $228 $229 $54 $-1 $230 reversed single #
loop $-1 $-1 $231 $90 #
plane-surface $-1 0 0 -9.6181678279077794 0 0 1 1 0 0 forward_v I I I I #
coedge $-1 $232 $233 $234 $235 forward $91 $-1 #
face $-1 $236 $237 $55 $-1 $238 forward single #
loop $-1 $-1 $239 $93 #
plane-surface $-1 -38.188542681171064 -17.180378454645254 0 -1 0 0 0 0 1 forward_v I I I I #
coedge $-1 $240 $241 $242 $243 forward $94 $-1 #
face $-1 $244 $245 $56 $-1 $246 reversed single #
loop $-1 $-1 $247 $96 #
plane-surface $-1 -32.803788615922684 -16.278754327957945 24.954208646487601 0 0.52991927123019833 0.84804809178421925 1 0 0 forward_v I I I I #
coedge $-1 $248 $249 $250 $251 reversed $97 $-1 #
face $-1 $-1 $252 $57 $-1 $253 forward single #
loop $-1 $254 $255 $99 #
cone-surface $-1 -36.836738959301272 13.493595469231753 1.1627249121798879 0 -0.52991927123019833 -0.84804809178421925 0.5 0 0 1 I I -0.70710678118654746 0.70710678118654746 0.5 forward I I I I #
loop $-1 $-1 $256 $75 #
coedge $-1 $160 $160 $257 $258 reversed $100 $-1 #
face $-1 $-1 $259 $58 $-1 $260 forward single #
loop $-1 $261 $262 $102 #
cone-surface $-1 -32.803788615922677 13.493595469231753 1.1627249121798879 0 -0.52991927123019833 -0.84804809178421925 0.5 0 0 1 I I -0.70710678118654746 0.70710678118654746 0.5 forward I I I I #
loop $-1 $-1 $263 $76 #
coedge $-1 $165 $165 $264 $265 reversed $103 $-1 #
face $-1 $-1 $266 $59 $-1 $267 forward single #
loop $-1 $268 $269 $105 #
cone-surface $-1 -28.77083827254409 13.493595469231753 1.1627249121798879 0 -0.52991927123019833 -0.84804809178421925 0.5 0 0 1 I I -0.70710678118654746 0.70710678118654746 0.5 forward I I I I #
loop $-1 $-1 $270 $77 #
coedge $-1 $170 $170 $271 $272 reversed $106 $-1 #
face $-1 $273 $274 $60 $-1 $275 reversed single #
loop $-1 $-1 $276 $108 #
plane-surface $-1 -11.384067555099293 -16.278754327957945 24.954208646487601 0 0.52991927123019833 0.84804809178421925 1 0 0 forward_v I I I I #
coedge $-1 $277 $278 $279 $280 reversed $109 $-1 #
face $-1 $-1 $281 $61 $-1 $282 forward single #
loop $-1 $283 $284 $111 #
cone-surface $-1 -15.41701789847788 13.493595469231753 1.1627249121798879 0 -0.52991927123019833 -0.84804809178421925 0.5 0 0 1 I I -0.70710678118654746 0.70710678118654746 0.5 forward I I I I #
loop $-1 $-1 $285 $79 #
coedge $-1 $179 $179 $286 $287 reversed $112 $-1 #
face $-1 $-1 $288 $62 $-1 $289 forward single #
loop $-1 $290 $291 $114 #
cone-surface $-1 -11.384067555099293 13.493595469231753 1.1627249121798879 0 -0.52991927123019833 -0.84804809178421925 0.5 0 0 1 I I -0.70710678118654746 0.70710678118654746 0.5 forward I I I I #
loop $-1 $-1 $292 $80 #
coedge $-1 $184 $184 $293 $294 reversed $115 $-1 #
face $-1 $-1 $295 $63 $-1 $296 forward single #
loop $-1 $297 $298 $117 #
cone-surface $-1 -7.3511172117206982 13.493595469231753 1.1627249121798879 0 -0.52991927123019833 -0.84804809178421925 0.5 0 0 1 I I -0.70710678118654746 0.70710678118654746 0.5 forward I I I I #
loop $-1 $-1 $299 $81 #
coedge $-1 $189 $189 $300 $301 reversed $118 $-1 #
face $-1 $302 $303 $64 $-1 $304 reversed single #
loop $-1 $-1 $305 $120 #
plane-surface $-1 10.035653505724092 -16.278754327957945 24.954208646487601 0 0.52991927123019833 0.84804809178421925 1 0 0 forward_v I I I I #
coedge $-1 $306 $307 $308 $309 reversed $121 $-1 #
face $-1 $-1 $310 $65 $-1 $311 forward single #
loop $-1 $312 $313 $123 #
cone-surface $-1 6.0027031623455045 13.493595469231753 1.1627249121798879 0 -0.52991927123019833 -0.84804809178421925 0.5 0 0 1 I I -0.70710678118654746 0.70710678118654746 0.5 forward I I I I #
loop $-1 $-1 $314 $83 #
coedge $-1 $198 $198 $315 $316 reversed $124 $-1 #
face $-1 $-1 $317 $66 $-1 $318 forward single #
loop $-1 $319 $320 $126 #
cone-surface $-1 10.035653505724092 13.493595469231753 1.1627249121798879 0 -0.52991927123019833 -0.84804809178421925 0.5 0 0 1 I I -0.70710678118654746 0.70710678118654746 0.5 forward I I I I #
loop $-1 $-1 $321 $84 #
coedge $-1 $203 $203 $322 $323 reversed $127 $-1 #
face $-1 $-1 $324 $67 $-1 $325 forward single #
loop $-1 $326 $327 $129 #
cone-surface $-1 14.068603849102693 13.493595469231753 1.1627249121798879 0 -0.52991927123019833 -0.84804809178421925 0.5 0 0 1 I I -0.70710678118654746 0.70710678118654746 0.5 forward I I I I #
loop $-1 $-1 $328 $85 #
coedge $-1 $208 $208 $329 $330 reversed $130 $-1 #
face $-1 $331 $332 $68 $-1 $333 reversed single #
loop $-1 $-1 $334 $132 #
plane-surface $-1 31.455374566547484 -16.278754327957945 24.954208646487601 0 0.52991927123019833 0.84804809178421925 1 0 0 forward_v I I I I #
coedge $-1 $335 $336 $337 $338 reversed $133 $-1 #
face $-1 $-1 $339 $69 $-1 $340 forward single #
loop $-1 $341 $342 $135 #
cone-surface $-1 27.422424223168896 13.493595469231753 1.1627249121798879 0 -0.52991927123019833 -0.84804809178421925 0.5 0 0 1 I I -0.70710678118654746 0.70710678118654746 0.5 forward I I I I #
loop $-1 $-1 $343 $87 #
coedge $-1 $217 $217 $344 $345 reversed $136 $-1 #
face $-1 $-1 $346 $70 $-1 $347 forward single #
loop $-1 $348 $349 $138 #
cone-surface $-1 31.455374566547484 13.493595469231753 1.1627249121798879 0 -0.52991927123019833 -0.84804809178421925 0.5 0 0 1 I I -0.70710678118654746 0.70710678118654746 0.5 forward I I I I #
loop $-1 $-1 $350 $88 #
coedge $-1 $222 $222 $351 $352 reversed $139 $-1 #
face $-1 $-1 $353 $71 $-1 $354 forward single #
loop $-1 $355 $356 $141 #
cone-surface $-1 35.488324909926085 13.493595469231753 1.1627249121798879 0 -0.52991927123019833 -0.84804809178421925 0.5 0 0 1 I I -0.70710678118654746 0.70710678118654746 0.5 forward I I I I #
loop $-1 $-1 $357 $89 #
coedge $-1 $227 $227 $358 $359 reversed $142 $-1 #
face $-1 $360 $361 $54 $-1 $362 reversed single #
loop $-1 $-1 $363 $144 #
plane-surface $-1 0 -23.385783045824528 0 0 1 0 0 0 1 forward_v I I I I #
coedge $-1 $364 $365 $366 $367 forward $145 $-1 #
coedge $-1 $368 $147 $369 $370 forward $91 $-1 #
coedge $-1 $147 $368 $371 $372 forward $91 $-1 #
coedge $-1 $373 $374 $147 $235 reversed $375 $-1 #
edge $-1 $376 -23.385783045824528 $377 23.385783045824528 $234 $378 forward 7 unknown #
face $-1 $379 $380 $55 $-1 $381 reversed single #
loop $-1 $-1 $382 $148 #
plane-surface $-1 0 0 9.6181678279077794 0 0 1 1 0 0 forward_v I I I I #
coedge $-1 $383 $384 $385 $386 reversed $149 $-1 #
coedge $-1 $387 $151 $388 $389 reversed $94 $-1 #
coedge $-1 $151 $387 $390 $391 reversed $94 $-1 #
coedge $-1 $384 $383 $151 $243 reversed $149 $-1 #
edge $-1 $392 -9.6181678279077794 $393 9.6181678279077794 $242 $394 forward 7 unknown #
face $-1 $395 $396 $56 $-1 $397 reversed single #
loop $-1 $-1 $398 $152 #
plane-surface $-1 -26.082204710291702 29.1241375700647 97.614022935213711 -1 0 0 0 0.52991927123019833 0.84804809178421925 forward_v I I I I #
coedge $-1 $399 $400 $401 $402 reversed $153 $-1 #
coedge $-1 $249 $155 $403 $404 reversed $97 $-1 #
coedge $-1 $155 $248 $399 $405 reversed $97 $-1 #
coedge $-1 $401 $406 $155 $251 forward $407 $-1 #
edge $-1 $408 -8.8237142607921779 $409 6.2980279028274193 $250 $410 forward 7 unknown #
loop $-1 $-1 $257 $156 #
plane-surface $-1 -32.803788615922684 -16.278754327957945 24.954208646487601 0 0.52991927123019833 0.84804809178421925 1 0 0 forward_v I I I I #
loop $-1 $-1 $411 $99 #
coedge $-1 $255 $255 $256 $412 reversed $157 $-1 #
coedge $-1 $256 $256 $255 $412 forward $159 $-1 #
coedge $-1 $257 $257 $160 $258 forward $252 $-1 #
edge $-1 $413 -6.5955775151306058e-016 $413 6.2831853071795996 $257 $414 forward 7 unknown #
loop $-1 $-1 $264 $161 #
plane-surface $-1 -32.803788615922684 -16.278754327957945 24.954208646487601 0 0.52991927123019833 0.84804809178421925 1 0 0 forward_v I I I I #
loop $-1 $-1 $415 $102 #
coedge $-1 $262 $262 $263 $416 reversed $162 $-1 #
coedge $-1 $263 $263 $262 $416 forward $164 $-1 #
coedge $-1 $264 $264 $165 $265 forward $259 $-1 #
edge $-1 $417 -6.5955775151306058e-016 $417 6.2831853071795996 $264 $418 forward 7 unknown #
loop $-1 $-1 $271 $166 #
plane-surface $-1 -32.803788615922684 -16.278754327957945 24.954208646487601 0 0.52991927123019833 0.84804809178421925 1 0 0 forward_v I I I I #
loop $-1 $-1 $419 $105 #
coedge $-1 $269 $269 $270 $420 reversed $167 $-1 #
coedge $-1 $270 $270 $269 $420 forward $169 $-1 #
coedge $-1 $271 $271 $170 $272 forward $266 $-1 #
edge $-1 $421 -6.5955775151306058e-016 $421 6.2831853071795996 $271 $422 forward 7 unknown #
face $-1 $423 $424 $60 $-1 $425 forward single #
loop $-1 $-1 $426 $171 #
plane-surface $-1 -4.6624836494683111 29.1241375700647 97.614022935213711 -1 0 0 0 0.52991927123019833 0.84804809178421925 forward_v I I I I #
coedge $-1 $427 $428 $429 $430 reversed $172 $-1 #
coedge $-1 $278 $174 $431 $432 reversed $109 $-1 #
coedge $-1 $174 $277 $427 $433 reversed $109 $-1 #
coedge $-1 $429 $434 $174 $280 forward $424 $-1 #
edge $-1 $435 -8.8237142607921779 $436 6.2980279028274193 $279 $437 forward 7 unknown #
loop $-1 $-1 $286 $175 #
plane-surface $-1 -11.384067555099293 -16.278754327957945 24.954208646487601 0 0.52991927123019833 0.84804809178421925 1 0 0 forward_v I I I I #
loop $-1 $-1 $438 $111 #
coedge $-1 $284 $284 $285 $439 reversed $176 $-1 #
coedge $-1 $285 $285 $284 $439 forward $178 $-1 #
coedge $-1 $286 $286 $179 $287 forward $281 $-1 #
edge $-1 $440 -6.5955775151306058e-016 $440 6.2831853071795996 $286 $441 forward 7 unknown #
loop $-1 $-1 $293 $180 #
plane-surface $-1 -11.384067555099293 -16.278754327957945 24.954208646487601 0 0.52991927123019833 0.84804809178421925 1 0 0 forward_v I I I I #
loop $-1 $-1 $442 $114 #
coedge $-1 $291 $291 $292 $443 reversed $181 $-1 #
coedge $-1 $292 $292 $291 $443 forward $183 $-1 #
coedge $-1 $293 $293 $184 $294 forward $288 $-1 #
edge $-1 $444 -6.5955775151306058e-016 $444 6.2831853071795996 $293 $445 forward 7 unknown #
loop $-1 $-1 $300 $185 #
plane-surface $-1 -11.384067555099293 -16.278754327957945 24.954208646487601 0 0.52991927123019833 0.84804809178421925 1 0 0 forward_v I I I I #
loop $-1 $-1 $446 $117 #
coedge $-1 $298 $298 $299 $447 reversed $186 $-1 #
coedge $-1 $299 $299 $298 $447 forward $188 $-1 #
coedge $-1 $300 $300 $189 $301 forward $295 $-1 #
edge $-1 $448 -6.5955775151306058e-016 $448 6.2831853071795996 $300 $449 forward 7 unknown #
face $-1 $450 $451 $64 $-1 $452 forward single #
loop $-1 $-1 $453 $190 #
plane-surface $-1 16.757237411355074 29.1241375700647 97.614022935213711 -1 0 0 0 0.52991927123019833 0.84804809178421925 forward_v I I I I #
coedge $-1 $454 $455 $456 $457 reversed $191 $-1 #
coedge $-1 $307 $193 $458 $459 reversed $121 $-1 #
coedge $-1 $193 $306 $454 $460 reversed $121 $-1 #
coedge $-1 $456 $461 $193 $309 forward $451 $-1 #
edge $-1 $462 -8.8237142607921779 $463 6.2980279028274193 $308 $464 forward 7 unknown #
loop $-1 $-1 $315 $194 #
plane-surface $-1 10.035653505724092 -16.278754327957945 24.954208646487601 0 0.52991927123019833 0.84804809178421925 1 0 0 forward_v I I I I #
loop $-1 $-1 $465 $123 #
coedge $-1 $313 $313 $314 $466 reversed $195 $-1 #
coedge $-1 $314 $314 $313 $466 forward $197 $-1 #
coedge $-1 $315 $315 $198 $316 forward $310 $-1 #
edge $-1 $467 -6.5955775151306058e-016 $467 6.2831853071795996 $315 $468 forward 7 unknown #
loop $-1 $-1 $322 $199 #
plane-surface $-1 10.035653505724092 -16.278754327957945 24.954208646487601 0 0.52991927123019833 0.84804809178421925 1 0 0 forward_v I I I I #
loop $-1 $-1 $469 $126 #
coedge $-1 $320 $320 $321 $470 reversed $200 $-1 #
coedge $-1 $321 $321 $320 $470 forward $202 $-1 #
coedge $-1 $322 $322 $203 $323 forward $317 $-1 #
edge $-1 $471 -6.5955775151306058e-016 $471 6.2831853071795996 $322 $472 forward 7 unknown #
loop $-1 $-1 $329 $204 #
plane-surface $-1 10.035653505724092 -16.278754327957945 24.954208646487601 0 0.52991927123019833 0.84804809178421925 1 0 0 forward_v I I I I #
loop $-1 $-1 $473 $129 #
coedge $-1 $327 $327 $328 $474 reversed $205 $-1 #
coedge $-1 $328 $328 $327 $474 forward $207 $-1 #
coedge $-1 $329 $329 $208 $330 forward $324 $-1 #
edge $-1 $475 -6.5955775151306058e-016 $475 6.2831853071795996 $329 $476 forward 7 unknown #
face $-1 $477 $478 $68 $-1 $479 forward single #
loop $-1 $-1 $480 $209 #
plane-surface $-1 38.176958472178463 29.1241375700647 97.614022935213711 -1 0 0 0 0.52991927123019833 0.84804809178421925 forward_v I I I I #
coedge $-1 $481 $482 $483 $484 reversed $210 $-1 #
coedge $-1 $336 $212 $485 $486 reversed $133 $-1 #
coedge $-1 $212 $335 $481 $487 reversed $133 $-1 #
coedge $-1 $483 $488 $212 $338 forward $478 $-1 #
edge $-1 $489 -8.8237142607921779 $490 6.2980279028274193 $337 $491 forward 7 unknown #
loop $-1 $-1 $344 $213 #
plane-surface $-1 31.455374566547484 -16.278754327957945 24.954208646487601 0 0.52991927123019833 0.84804809178421925 1 0 0 forward_v I I I I #
loop $-1 $-1 $492 $135 #
coedge $-1 $342 $342 $343 $493 reversed $214 $-1 #
coedge $-1 $343 $343 $342 $493 forward $216 $-1 #
coedge $-1 $344 $344 $217 $345 forward $339 $-1 #
edge $-1 $494 -6.5955775151306058e-016 $494 6.2831853071795996 $344 $495 forward 7 unknown #
loop $-1 $-1 $351 $218 #
plane-surface $-1 31.455374566547484 -16.278754327957945 24.954208646487601 0 0.52991927123019833 0.84804809178421925 1 0 0 forward_v I I I I #
loop $-1 $-1 $496 $138 #
coedge $-1 $349 $349 $350 $497 reversed $219 $-1 #
coedge $-1 $350 $350 $349 $497 forward $221 $-1 #
coedge $-1 $351 $351 $222 $352 forward $346 $-1 #
edge $-1 $498 -6.5955775151306058e-016 $498 6.2831853071795996 $351 $499 forward 7 unknown #
loop $-1 $-1 $358 $223 #
plane-surface $-1 31.455374566547484 -16.278754327957945 24.954208646487601 0 0.52991927123019833 0.84804809178421925 1 0 0 forward_v I I I I #
loop $-1 $-1 $500 $141 #
coedge $-1 $356 $356 $357 $501 reversed $224 $-1 #
coedge $-1 $357 $357 $356 $501 forward $226 $-1 #
coedge $-1 $358 $358 $227 $359 forward $353 $-1 #
edge $-1 $502 -6.5955775151306058e-016 $502 6.2831853071795996 $358 $503 forward 7 unknown #
face $-1 $504 $505 $54 $-1 $506 reversed single #
loop $-1 $-1 $507 $228 #
plane-surface $-1 -42.839442121646776 0 0 1 0 0 0 0 -1 forward_v I I I I #
coedge $-1 $508 $371 $509 $510 forward $229 $-1 #
coedge $-1 $511 $231 $508 $512 forward $145 $-1 #
coedge $-1 $231 $511 $513 $514 forward $145 $-1 #
coedge $-1 $374 $373 $231 $367 reversed $375 $-1 #
edge $-1 $515 -23.385783045824528 $516 23.385783045824528 $366 $517 forward 7 unknown #
coedge $-1 $233 $232 $518 $519 forward $91 $-1 #
coedge $-1 $520 $521 $232 $370 reversed $505 $-1 #
edge $-1 $377 -42.839442121646776 $522 42.839442121646776 $369 $523 forward 7 unknown #
coedge $-1 $363 $524 $233 $372 reversed $229 $-1 #
edge $-1 $525 -42.839442121646776 $376 42.839442121646776 $371 $526 forward 7 unknown #
coedge $-1 $366 $234 $524 $527 forward $375 $-1 #
coedge $-1 $234 $366 $520 $528 reversed $375 $-1 #
loop $-1 $-1 $373 $504 #
vertex $-1 $235 $529 #
vertex $-1 $235 $530 #
straight-curve $-1 42.839442121646776 0 9.6181678279077794 0 1 0 I I #
face $-1 $531 $532 $55 $-1 $533 reversed single #
loop $-1 $-1 $534 $236 #
plane-surface $-1 -42.839442121646776 0 0 1 0 0 0 0 -1 forward_v I I I I #
coedge $-1 $390 $535 $384 $536 forward $237 $-1 #
coedge $-1 $242 $239 $537 $538 reversed $149 $-1 #
coedge $-1 $239 $242 $382 $536 reversed $149 $-1 #
coedge $-1 $539 $540 $239 $386 forward $541 $-1 #
edge $-1 $542 -9.6181678279077794 $543 9.6181678279077794 $385 $544 forward 7 unknown #
coedge $-1 $241 $240 $534 $545 reversed $94 $-1 #
coedge $-1 $537 $546 $240 $389 forward $532 $-1 #
edge $-1 $547 -22.582445920942316 $393 -17.931546480466604 $388 $548 forward 7 unknown #
coedge $-1 $549 $382 $241 $391 forward $237 $-1 #
edge $-1 $392 17.931546480466604 $550 22.582445920942316 $390 $551 forward 7 unknown #
vertex $-1 $391 $552 #
vertex $-1 $389 $553 #
straight-curve $-1 -38.188542681171064 -10.97497386346598 0 0 0 -1 I I #
face $-1 $-1 $407 $56 $-1 $554 forward single #
loop $-1 $-1 $555 $244 #
plane-surface $-1 0 23.385783045824528 0 0 -1 0 0 0 -1 forward_v I I I I #
coedge $-1 $556 $557 $558 $559 reversed $245 $-1 #
coedge $-1 $560 $247 $249 $405 forward $153 $-1 #
coedge $-1 $247 $560 $556 $561 forward $153 $-1 #
coedge $-1 $558 $250 $247 $402 forward $407 $-1 #
edge $-1 $409 -23.123478213592321 $562 -9.6803104023303597 $401 $563 forward 7 unknown #
coedge $-1 $564 $565 $248 $404 forward $396 $-1 #
edge $-1 $566 -48.637957038700975 $408 -39.188843639699073 $403 $567 forward 7 unknown #
edge $-1 $409 28.940334219167898 $566 46.771566091649056 $249 $568 forward 7 unknown #
coedge $-1 $250 $558 $564 $569 forward $407 $-1 #
loop $-1 $-1 $558 $395 #
vertex $-1 $404 $570 #
vertex $-1 $251 $571 #
straight-curve $-1 -39.525372521553663 14.56206878503235 9.6181678279077758 0 -1 0 I I #
coedge $-1 $411 $411 $-1 $572 reversed $254 $-1 #
edge $-1 $573 0 $573 6.2831853071796004 $255 $574 forward 7 unknown #
vertex $-1 $258 $575 #
ellipse-curve $-1 -36.836738959301272 15.824911964014728 4.8936111284068344 0 0.52991927123019833 0.84804809178421925 1 0 0 1 I I #
coedge $-1 $415 $415 $-1 $576 reversed $261 $-1 #
edge $-1 $577 0 $577 6.2831853071796004 $262 $578 forward 7 unknown #
vertex $-1 $265 $579 #
ellipse-curve $-1 -32.803788615922677 15.824911964014728 4.8936111284068344 0 0.52991927123019833 0.84804809178421925 1 0 0 1 I I #
coedge $-1 $419 $419 $-1 $580 reversed $268 $-1 #
edge $-1 $581 0 $581 6.2831853071796004 $269 $582 forward 7 unknown #
vertex $-1 $272 $583 #
ellipse-curve $-1 -28.77083827254409 15.824911964014728 4.8936111284068344 0 0.52991927123019833 0.84804809178421925 1 0 0 1 I I #
face $-1 $-1 $584 $60 $-1 $585 reversed single #
loop $-1 $-1 $279 $273 #
plane-surface $-1 0 0 9.6181678279077794 0 0 1 1 0 0 forward_v I I I I #
coedge $-1 $586 $587 $588 $589 reversed $274 $-1 #
coedge $-1 $590 $276 $278 $433 forward $172 $-1 #
coedge $-1 $276 $590 $586 $591 forward $172 $-1 #
coedge $-1 $588 $279 $276 $430 forward $424 $-1 #
edge $-1 $436 -12.413617683180629 $592 1.0295501280813353 $429 $593 forward 7 unknown #
coedge $-1 $594 $595 $277 $432 forward $584 $-1 #
edge $-1 $596 -48.637957038700975 $435 -39.188843639699073 $431 $597 forward 7 unknown #
edge $-1 $436 28.940334219167898 $596 46.771566091649056 $278 $598 forward 7 unknown #
coedge $-1 $279 $588 $594 $599 forward $424 $-1 #
vertex $-1 $432 $600 #
vertex $-1 $280 $601 #
straight-curve $-1 -18.105651460730275 14.56206878503235 9.6181678279077758 0 -1 0 I I #
coedge $-1 $438 $438 $-1 $602 reversed $283 $-1 #
edge $-1 $603 0 $603 6.2831853071796004 $284 $604 forward 7 unknown #
vertex $-1 $287 $605 #
ellipse-curve $-1 -15.41701789847788 15.824911964014728 4.8936111284068344 0 0.52991927123019833 0.84804809178421925 1 0 0 1 I I #
coedge $-1 $442 $442 $-1 $606 reversed $290 $-1 #
edge $-1 $607 0 $607 6.2831853071796004 $291 $608 forward 7 unknown #
vertex $-1 $294 $609 #
ellipse-curve $-1 -11.384067555099293 15.824911964014728 4.8936111284068344 0 0.52991927123019833 0.84804809178421925 1 0 0 1 I I #
coedge $-1 $446 $446 $-1 $610 reversed $297 $-1 #
edge $-1 $611 0 $611 6.2831853071796004 $298 $612 forward 7 unknown #
vertex $-1 $301 $613 #
ellipse-curve $-1 -7.3511172117206982 15.824911964014728 4.8936111284068344 0 0.52991927123019833 0.84804809178421925 1 0 0 1 I I #
face $-1 $-1 $614 $64 $-1 $615 reversed single #
loop $-1 $-1 $308 $302 #
plane-surface $-1 0 0 9.6181678279077794 0 0 1 1 0 0 forward_v I I I I #
coedge $-1 $616 $617 $618 $619 reversed $303 $-1 #
coedge $-1 $620 $305 $307 $460 forward $191 $-1 #
coedge $-1 $305 $620 $616 $621 forward $191 $-1 #
coedge $-1 $618 $308 $305 $457 forward $451 $-1 #
edge $-1 $463 -1.7037571527689357 $622 11.739410658493028 $456 $623 forward 7 unknown #
coedge $-1 $624 $625 $306 $459 forward $614 $-1 #
edge $-1 $626 -48.637957038700975 $462 -39.188843639699073 $458 $627 forward 7 unknown #
edge $-1 $463 28.940334219167898 $626 46.771566091649056 $307 $628 forward 7 unknown #
coedge $-1 $308 $618 $624 $629 forward $451 $-1 #
vertex $-1 $309 $630 #
vertex $-1 $309 $631 #
straight-curve $-1 3.3140696000931102 14.56206878503235 9.6181678279077758 0 -1 0 I I #
coedge $-1 $465 $465 $-1 $632 reversed $312 $-1 #
edge $-1 $633 0 $633 6.2831853071796004 $313 $634 forward 7 unknown #
vertex $-1 $316 $635 #
ellipse-curve $-1 6.0027031623455045 15.824911964014728 4.8936111284068344 0 0.52991927123019833 0.84804809178421925 1 0 0 1 I I #
coedge $-1 $469 $469 $-1 $636 reversed $319 $-1 #
edge $-1 $637 0 $637 6.2831853071796004 $320 $638 forward 7 unknown #
vertex $-1 $323 $639 #
ellipse-curve $-1 10.035653505724092 15.824911964014728 4.8936111284068344 0 0.52991927123019833 0.84804809178421925 1 0 0 1 I I #
coedge $-1 $473 $473 $-1 $640 reversed $326 $-1 #
edge $-1 $641 0 $641 6.2831853071796004 $327 $642 forward 7 unknown #
vertex $-1 $330 $643 #
ellipse-curve $-1 14.068603849102693 15.824911964014728 4.8936111284068344 0 0.52991927123019833 0.84804809178421925 1 0 0 1 I I #
face $-1 $-1 $644 $68 $-1 $645 reversed single #
loop $-1 $-1 $337 $331 #
plane-surface $-1 0 0 9.6181678279077794 0 0 1 1 0 0 forward_v I I I I #
coedge $-1 $646 $647 $648 $649 reversed $332 $-1 #
coedge $-1 $650 $334 $336 $487 forward $210 $-1 #
coedge $-1 $334 $650 $646 $651 forward $210 $-1 #
coedge $-1 $648 $337 $334 $484 forward $478 $-1 #
edge $-1 $490 9.0061033776427593 $652 22.449271188904721 $483 $653 forward 7 unknown #
coedge $-1 $654 $655 $335 $486 forward $644 $-1 #
edge $-1 $656 -48.637957038700975 $489 -39.188843639699073 $485 $657 forward 7 unknown #
edge $-1 $490 28.940334219167898 $656 46.771566091649056 $336 $658 forward 7 unknown #
coedge $-1 $337 $648 $654 $659 forward $478 $-1 #
vertex $-1 $338 $660 #
vertex $-1 $338 $661 #
straight-curve $-1 24.733790660916501 14.56206878503235 9.6181678279077758 0 -1 0 I I #
coedge $-1 $492 $492 $-1 $662 reversed $341 $-1 #
edge $-1 $663 0 $663 6.2831853071796004 $342 $664 forward 7 unknown #
vertex $-1 $345 $665 #
ellipse-curve $-1 27.422424223168896 15.824911964014728 4.8936111284068344 0 0.52991927123019833 0.84804809178421925 1 0 0 1 I I #
coedge $-1 $496 $496 $-1 $666 reversed $348 $-1 #
edge $-1 $667 0 $667 6.2831853071796004 $349 $668 forward 7 unknown #
vertex $-1 $352 $669 #
ellipse-curve $-1 31.455374566547484 15.824911964014728 4.8936111284068344 0 0.52991927123019833 0.84804809178421925 1 0 0 1 I I #
coedge $-1 $500 $500 $-1 $670 reversed $355 $-1 #
edge $-1 $671 0 $671 6.2831853071796004 $356 $672 forward 7 unknown #
vertex $-1 $359 $673 #
ellipse-curve $-1 35.488324909926085 15.824911964014728 4.8936111284068344 0 0.52991927123019833 0.84804809178421925 1 0 0 1 I I #
face $-1 $-1 $375 $54 $-1 $674 reversed single #
loop $-1 $-1 $520 $360 #
plane-surface $-1 0 23.385783045824528 0 0 -1 0 0 0 -1 forward_v I I I I #
coedge $-1 $675 $518 $521 $676 forward $361 $-1 #
coedge $-1 $524 $363 $364 $512 reversed $229 $-1 #
coedge $-1 $518 $675 $363 $510 reversed $361 $-1 #
edge $-1 $525 -9.6181678279077794 $677 9.6181678279077794 $509 $678 forward 7 unknown #
coedge $-1 $365 $364 $675 $679 forward $145 $-1 #
edge $-1 $516 -42.839442121646776 $677 42.839442121646776 $508 $680 forward 7 unknown #
coedge $-1 $521 $520 $365 $514 reversed $505 $-1 #
edge $-1 $681 -42.839442121646776 $515 42.839442121646776 $513 $682 forward 7 unknown #
vertex $-1 $367 $683 #
vertex $-1 $527 $684 #
straight-curve $-1 42.839442121646776 0 -9.6181678279077794 0 -1 0 I I #
coedge $-1 $507 $509 $368 $519 reversed $361 $-1 #
edge $-1 $522 -23.385783045824528 $525 23.385783045824528 $518 $685 forward 7 unknown #
coedge $-1 $513 $369 $374 $528 forward $505 $-1 #
coedge $-1 $369 $513 $507 $676 reversed $505 $-1 #
vertex $-1 $370 $686 #
straight-curve $-1 0 23.385783045824528 9.6181678279077794 -1 0 0 I I #
coedge $-1 $371 $508 $373 $527 reversed $229 $-1 #
vertex $-1 $519 $687 #
straight-curve $-1 0 -23.385783045824528 9.6181678279077794 1 0 0 I I #
edge $-1 $376 -9.6181678279077794 $516 9.6181678279077794 $373 $688 forward 7 unknown #
edge $-1 $377 -9.6181678279077794 $515 9.6181678279077794 $374 $689 forward 7 unknown #
point $-1 42.839442121646776 -23.385783045824528 9.6181678279077794 #
point $-1 42.839442121646776 23.385783045824528 9.6181678279077794 #
face $-1 $-1 $541 $55 $-1 $690 reversed single #
loop $-1 $-1 $537 $379 #
plane-surface $-1 0 0 -9.6181678279077794 0 0 1 1 0 0 forward_v I I I I #
coedge $-1 $691 $692 $387 $545 forward $380 $-1 #
coedge $-1 $382 $549 $539 $693 forward $237 $-1 #
edge $-1 $543 -14.795593818501901 $392 -2.3847846361433529 $382 $694 forward 7 unknown #
coedge $-1 $695 $388 $383 $538 forward $532 $-1 #
edge $-1 $393 2.3847846361433529 $542 14.795593818501901 $537 $696 forward 7 unknown #
coedge $-1 $697 $385 $535 $693 reversed $541 $-1 #
coedge $-1 $385 $697 $695 $698 reversed $541 $-1 #
loop $-1 $-1 $385 $531 #
vertex $-1 $698 $699 #
vertex $-1 $386 $700 #
straight-curve $-1 -38.188542681171064 -23.385783045824528 0 0 0 1 I I #
edge $-1 $550 -9.6181678279077794 $547 9.6181678279077794 $534 $701 forward 7 unknown #
coedge $-1 $388 $695 $691 $702 forward $532 $-1 #
vertex $-1 $389 $703 #
straight-curve $-1 -20.25699620070446 -10.97497386346598 -9.6181678279077794 1 0 0 I I #
coedge $-1 $535 $390 $692 $704 forward $237 $-1 #
vertex $-1 $704 $705 #
straight-curve $-1 -20.25699620070446 -10.97497386346598 9.6181678279077794 -1 0 0 I I #
point $-1 -38.188542681171064 -10.97497386346598 9.6181678279077794 #
point $-1 -38.188542681171064 -10.97497386346598 -9.6181678279077794 #
plane-surface $-1 0 0 9.6181678279077794 0 0 1 1 0 0 forward_v I I I I #
coedge $-1 $565 $564 $557 $706 forward $396 $-1 #
coedge $-1 $557 $398 $400 $561 reversed $245 $-1 #
coedge $-1 $398 $556 $555 $706 reversed $245 $-1 #
coedge $-1 $406 $401 $398 $559 forward $407 $-1 #
edge $-1 $562 -6.2980279028274193 $707 8.8237142607921779 $558 $708 forward 7 unknown #
coedge $-1 $400 $399 $565 $709 reversed $153 $-1 #
edge $-1 $710 -46.771566091649056 $562 -28.940334219167898 $556 $711 forward 7 unknown #
vertex $-1 $402 $712 #
straight-curve $-1 -16.401894307961342 8.2640408822049327 9.6181678279077776 1 0 0 I I #
coedge $-1 $555 $403 $406 $569 reversed $396 $-1 #
coedge $-1 $403 $555 $560 $709 forward $396 $-1 #
vertex $-1 $404 $713 #
straight-curve $-1 -39.525372521553663 23.385783045824528 48.807011467606856 0 0 1 I I #
straight-curve $-1 -39.525372521553663 -16.278754327957945 24.954208646487601 0 0.84804809178421925 -0.52991927123019833 I I #
edge $-1 $707 26.082204710291702 $408 39.525372521553663 $564 $714 forward 7 unknown #
point $-1 -39.525372521553663 23.385783045824528 9.6181678279077794 #
point $-1 -39.525372521553663 8.2640408822049309 9.6181678279077794 #
edge $-1 $715 1 $715 0 $411 $-1 forward 7 unknown #
vertex $-1 $412 $716 #
ellipse-curve $-1 -36.836738959301272 13.758555104846852 1.5867489580719976 0 0.52991927123019833 0.84804809178421925 1 0 0 1 I I #
point $-1 -35.836738959301272 15.824911964014724 4.89361112840683 #
edge $-1 $717 1 $717 0 $415 $-1 forward 7 unknown #
vertex $-1 $416 $718 #
ellipse-curve $-1 -32.803788615922677 13.758555104846852 1.5867489580719976 0 0.52991927123019833 0.84804809178421925 1 0 0 1 I I #
point $-1 -31.803788615922677 15.824911964014724 4.89361112840683 #
edge $-1 $719 1 $719 0 $419 $-1 forward 7 unknown #
vertex $-1 $420 $720 #
ellipse-curve $-1 -28.77083827254409 13.758555104846852 1.5867489580719976 0 0.52991927123019833 0.84804809178421925 1 0 0 1 I I #
point $-1 -27.77083827254409 15.824911964014724 4.89361112840683 #
loop $-1 $-1 $431 $423 #
plane-surface $-1 0 23.385783045824528 0 0 -1 0 0 0 -1 forward_v I I I I #
coedge $-1 $587 $426 $428 $591 reversed $274 $-1 #
coedge $-1 $426 $586 $721 $722 reversed $274 $-1 #
coedge $-1 $434 $429 $426 $589 forward $424 $-1 #
edge $-1 $592 -6.2980279028274193 $723 8.8237142607921779 $588 $724 forward 7 unknown #
coedge $-1 $428 $427 $595 $725 reversed $172 $-1 #
edge $-1 $726 -46.771566091649056 $592 -28.940334219167898 $586 $727 forward 7 unknown #
vertex $-1 $430 $728 #
straight-curve $-1 -5.6920337775496463 8.2640408822049327 9.6181678279077776 1 0 0 I I #
coedge $-1 $721 $431 $434 $599 reversed $584 $-1 #
coedge $-1 $431 $721 $590 $725 forward $584 $-1 #
vertex $-1 $432 $729 #
straight-curve $-1 -18.105651460730275 23.385783045824528 48.807011467606856 0 0 1 I I #
straight-curve $-1 -18.105651460730275 -16.278754327957945 24.954208646487601 0 0.84804809178421925 -0.52991927123019833 I I #
edge $-1 $723 4.6624836494683111 $435 18.105651460730275 $594 $730 forward 7 unknown #
point $-1 -18.105651460730275 23.385783045824528 9.6181678279077794 #
point $-1 -18.105651460730275 8.2640408822049309 9.6181678279077794 #
edge $-1 $731 1 $731 0 $438 $-1 forward 7 unknown #
vertex $-1 $439 $732 #
ellipse-curve $-1 -15.41701789847788 13.758555104846852 1.5867489580719976 0 0.52991927123019833 0.84804809178421925 1 0 0 1 I I #
point $-1 -14.41701789847788 15.824911964014724 4.89361112840683 #
edge $-1 $733 1 $733 0 $442 $-1 forward 7 unknown #
vertex $-1 $443 $734 #
ellipse-curve $-1 -11.384067555099293 13.758555104846852 1.5867489580719976 0 0.52991927123019833 0.84804809178421925 1 0 0 1 I I #
point $-1 -10.384067555099293 15.824911964014724 4.89361112840683 #
edge $-1 $735 1 $735 0 $446 $-1 forward 7 unknown #
vertex $-1 $447 $736 #
ellipse-curve $-1 -7.3511172117206982 13.758555104846852 1.5867489580719976 0 0.52991927123019833 0.84804809178421925 1 0 0 1 I I #
point $-1 -6.3511172117206982 15.824911964014724 4.89361112840683 #
loop $-1 $-1 $458 $450 #
plane-surface $-1 0 23.385783045824528 0 0 -1 0 0 0 -1 forward_v I I I I #
coedge $-1 $617 $453 $455 $621 reversed $303 $-1 #
coedge $-1 $453 $616 $737 $738 reversed $303 $-1 #
coedge $-1 $461 $456 $453 $619 forward $451 $-1 #
edge $-1 $622 -6.2980279028274193 $739 8.8237142607921779 $618 $740 forward 7 unknown #
coedge $-1 $455 $454 $625 $741 reversed $191 $-1 #
edge $-1 $742 -46.771566091649056 $622 -28.940334219167898 $616 $743 forward 7 unknown #
vertex $-1 $457 $744 #
straight-curve $-1 5.0178267528620459 8.2640408822049327 9.6181678279077776 1 0 0 I I #
coedge $-1 $737 $458 $461 $629 reversed $614 $-1 #
coedge $-1 $458 $737 $620 $741 forward $614 $-1 #
vertex $-1 $459 $745 #
straight-curve $-1 3.3140696000931102 23.385783045824528 48.807011467606856 0 0 1 I I #
straight-curve $-1 3.3140696000931102 -16.278754327957945 24.954208646487601 0 0.84804809178421925 -0.52991927123019833 I I #
edge $-1 $739 -16.757237411355074 $462 -3.3140696000931102 $624 $746 forward 7 unknown #
point $-1 3.3140696000931102 23.385783045824528 9.6181678279077794 #
point $-1 3.3140696000931102 8.2640408822049309 9.6181678279077794 #
edge $-1 $747 1 $747 0 $465 $-1 forward 7 unknown #
vertex $-1 $466 $748 #
ellipse-curve $-1 6.0027031623455045 13.758555104846852 1.5867489580719976 0 0.52991927123019833 0.84804809178421925 1 0 0 1 I I #
point $-1 7.0027031623455045 15.824911964014724 4.89361112840683 #
edge $-1 $749 1 $749 0 $469 $-1 forward 7 unknown #
vertex $-1 $470 $750 #
ellipse-curve $-1 10.035653505724092 13.758555104846852 1.5867489580719976 0 0.52991927123019833 0.84804809178421925 1 0 0 1 I I #
point $-1 11.035653505724092 15.824911964014724 4.89361112840683 #
edge $-1 $751 1 $751 0 $473 $-1 forward 7 unknown #
vertex $-1 $474 $752 #
ellipse-curve $-1 14.068603849102693 13.758555104846852 1.5867489580719976 0 0.52991927123019833 0.84804809178421925 1 0 0 1 I I #
point $-1 15.068603849102693 15.824911964014724 4.89361112840683 #
loop $-1 $-1 $485 $477 #
plane-surface $-1 0 23.385783045824528 0 0 -1 0 0 0 -1 forward_v I I I I #
coedge $-1 $647 $480 $482 $651 reversed $332 $-1 #
coedge $-1 $480 $646 $753 $754 reversed $332 $-1 #
coedge $-1 $488 $483 $480 $649 forward $478 $-1 #
edge $-1 $652 -6.2980279028274193 $755 8.8237142607921779 $648 $756 forward 7 unknown #
coedge $-1 $482 $481 $655 $757 reversed $210 $-1 #
edge $-1 $758 -46.771566091649056 $652 -28.940334219167898 $646 $759 forward 7 unknown #
vertex $-1 $484 $760 #
straight-curve $-1 15.727687283273742 8.2640408822049327 9.6181678279077776 1 0 0 I I #
coedge $-1 $753 $485 $488 $659 reversed $644 $-1 #
coedge $-1 $485 $753 $650 $757 forward $644 $-1 #
vertex $-1 $486 $761 #
straight-curve $-1 24.733790660916501 23.385783045824528 48.807011467606856 0 0 1 I I #
straight-curve $-1 24.733790660916501 -16.278754327957945 24.954208646487601 0 0.84804809178421925 -0.52991927123019833 I I #
edge $-1 $755 -38.176958472178463 $489 -24.733790660916501 $654 $762 forward 7 unknown #
point $-1 24.733790660916501 23.385783045824528 9.6181678279077794 #
point $-1 24.733790660916501 8.2640408822049309 9.6181678279077794 #
edge $-1 $763 1 $763 0 $492 $-1 forward 7 unknown #
vertex $-1 $493 $764 #
ellipse-curve $-1 27.422424223168896 13.758555104846852 1.5867489580719976 0 0.52991927123019833 0.84804809178421925 1 0 0 1 I I #
point $-1 28.422424223168896 15.824911964014724 4.89361112840683 #
edge $-1 $765 1 $765 0 $496 $-1 forward 7 unknown #
vertex $-1 $497 $766 #
ellipse-curve $-1 31.455374566547484 13.758555104846852 1.5867489580719976 0 0.52991927123019833 0.84804809178421925 1 0 0 1 I I #
point $-1 32.455374566547484 15.824911964014724 4.89361112840683 #
edge $-1 $767 1 $767 0 $500 $-1 forward 7 unknown #
vertex $-1 $501 $768 #
ellipse-curve $-1 35.488324909926085 13.758555104846852 1.5867489580719976 0 0.52991927123019833 0.84804809178421925 1 0 0 1 I I #
point $-1 36.488324909926085 15.824911964014724 4.89361112840683 #
plane-surface $-1 42.839442121646776 0 0 -1 0 0 0 0 1 forward_v I I I I #
coedge $-1 $509 $507 $511 $679 reversed $361 $-1 #
edge $-1 $522 -9.6181678279077794 $681 9.6181678279077794 $521 $769 forward 7 unknown #
vertex $-1 $679 $770 #
straight-curve $-1 -42.839442121646776 -23.385783045824528 0 0 0 -1 I I #
edge $-1 $677 -23.385783045824528 $681 23.385783045824528 $675 $771 forward 7 unknown #
straight-curve $-1 0 -23.385783045824528 -9.6181678279077794 -1 0 0 I I #
vertex $-1 $514 $772 #
straight-curve $-1 0 23.385783045824528 -9.6181678279077794 1 0 0 I I #
point $-1 42.839442121646776 23.385783045824528 -9.6181678279077794 #
point $-1 42.839442121646776 -23.385783045824528 -9.6181678279077794 #
straight-curve $-1 -42.839442121646776 0 9.6181678279077794 0 -1 0 I I #
point $-1 -42.839442121646776 23.385783045824528 9.6181678279077794 #
point $-1 -42.839442121646776 -23.385783045824528 9.6181678279077794 #
straight-curve $-1 42.839442121646776 -23.385783045824528 0 0 0 -1 I I #
straight-curve $-1 42.839442121646776 23.385783045824528 0 0 0 -1 I I #
plane-surface $-1 0 -23.385783045824528 0 0 1 0 0 0 1 forward_v I I I I #
coedge $-1 $773 $534 $546 $702 reversed $380 $-1 #
coedge $-1 $534 $773 $549 $704 reversed $380 $-1 #
edge $-1 $774 -42.839442121646776 $543 -38.188542681171064 $539 $775 forward 7 unknown #
straight-curve $-1 -38.188542681171064 -8.590189227322627 9.6181678279077794 0 1 0 I I #
coedge $-1 $546 $537 $540 $698 forward $532 $-1 #
straight-curve $-1 -38.188542681171064 -8.590189227322627 -9.6181678279077794 0 -1 0 I I #
coedge $-1 $540 $539 $773 $776 forward $541 $-1 #
edge $-1 $542 38.188542681171064 $777 42.839442121646776 $540 $778 forward 7 unknown #
point $-1 -38.188542681171064 -23.385783045824528 -9.6181678279077794 #
point $-1 -38.188542681171064 -23.385783045824528 9.6181678279077794 #
straight-curve $-1 -42.839442121646776 -10.97497386346598 0 0 0 -1 I I #
edge $-1 $777 -23.385783045824528 $547 -10.97497386346598 $691 $779 forward 7 unknown #
point $-1 -42.839442121646776 -10.97497386346598 -9.6181678279077794 #
edge $-1 $550 10.97497386346598 $774 23.385783045824528 $692 $780 forward 7 unknown #
point $-1 -42.839442121646776 -10.97497386346598 9.6181678279077794 #
edge $-1 $707 39.188843639699073 $710 48.637957038700975 $555 $781 forward 7 unknown #
vertex $-1 $569 $782 #
straight-curve $-1 -26.082204710291702 14.56206878503235 9.6181678279077758 0 1 0 I I #
edge $-1 $710 9.6803104023303597 $566 23.123478213592321 $565 $783 forward 7 unknown #
vertex $-1 $709 $784 #
straight-curve $-1 -26.082204710291702 -16.278754327957945 24.954208646487601 0 -0.84804809178421925 0.52991927123019833 I I #
point $-1 -26.082204710291702 8.2640408822049309 9.6181678279077794 #
point $-1 -39.525372521553663 23.385783045824528 0.16905442890587707 #
straight-curve $-1 0 23.385783045824528 9.6181678279077794 -1 0 0 I I #
vertex $-1 $572 $785 #
point $-1 -35.836738959301272 13.758555104846852 1.5867489580719976 #
vertex $-1 $576 $786 #
point $-1 -31.803788615922677 13.758555104846852 1.5867489580719976 #
vertex $-1 $580 $787 #
point $-1 -27.77083827254409 13.758555104846852 1.5867489580719976 #
coedge $-1 $595 $594 $587 $722 forward $584 $-1 #
edge $-1 $723 39.188843639699073 $726 48.637957038700975 $721 $788 forward 7 unknown #
vertex $-1 $599 $789 #
straight-curve $-1 -4.6624836494683111 14.56206878503235 9.6181678279077758 0 1 0 I I #
edge $-1 $726 -1.0295501280813353 $596 12.413617683180629 $595 $790 forward 7 unknown #
vertex $-1 $725 $791 #
straight-curve $-1 -4.6624836494683111 -16.278754327957945 24.954208646487601 0 -0.84804809178421925 0.52991927123019833 I I #
point $-1 -4.6624836494683111 8.2640408822049309 9.6181678279077794 #
point $-1 -18.105651460730275 23.385783045824528 0.16905442890587707 #
straight-curve $-1 0 23.385783045824528 9.6181678279077794 -1 0 0 I I #
vertex $-1 $602 $792 #
point $-1 -14.41701789847788 13.758555104846852 1.5867489580719976 #
vertex $-1 $606 $793 #
point $-1 -10.384067555099293 13.758555104846852 1.5867489580719976 #
vertex $-1 $610 $794 #
point $-1 -6.3511172117206982 13.758555104846852 1.5867489580719976 #
coedge $-1 $625 $624 $617 $738 forward $614 $-1 #
edge $-1 $739 39.188843639699073 $742 48.637957038700975 $737 $795 forward 7 unknown #
vertex $-1 $629 $796 #
straight-curve $-1 16.757237411355074 14.56206878503235 9.6181678279077758 0 1 0 I I #
edge $-1 $742 -11.739410658493028 $626 1.7037571527689357 $625 $797 forward 7 unknown #
vertex $-1 $741 $798 #
straight-curve $-1 16.757237411355074 -16.278754327957945 24.954208646487601 0 -0.84804809178421925 0.52991927123019833 I I #
point $-1 16.757237411355074 8.2640408822049309 9.6181678279077794 #
point $-1 3.3140696000931102 23.385783045824528 0.16905442890587707 #
straight-curve $-1 0 23.385783045824528 9.6181678279077794 -1 0 0 I I #
vertex $-1 $632 $799 #
point $-1 7.0027031623455045 13.758555104846852 1.5867489580719976 #
vertex $-1 $636 $800 #
point $-1 11.035653505724092 13.758555104846852 1.5867489580719976 #
vertex $-1 $640 $801 #
point $-1 15.068603849102693 13.758555104846852 1.5867489580719976 #
coedge $-1 $655 $654 $647 $754 forward $644 $-1 #
edge $-1 $755 39.188843639699073 $758 48.637957038700975 $753 $802 forward 7 unknown #
vertex $-1 $659 $803 #
straight-curve $-1 38.176958472178463 14.56206878503235 9.6181678279077758 0 1 0 I I #
edge $-1 $758 -22.449271188904721 $656 -9.0061033776427593 $655 $804 forward 7 unknown #
vertex $-1 $757 $805 #
straight-curve $-1 38.176958472178463 -16.278754327957945 24.954208646487601 0 -0.84804809178421925 0.52991927123019833 I I #
point $-1 38.176958472178463 8.2640408822049309 9.6181678279077794 #
point $-1 24.733790660916501 23.385783045824528 0.16905442890587707 #
straight-curve $-1 0 23.385783045824528 9.6181678279077794 -1 0 0 I I #
vertex $-1 $662 $806 #
point $-1 28.422424223168896 13.758555104846852 1.5867489580719976 #
vertex $-1 $666 $807 #
point $-1 32.455374566547484 13.758555104846852 1.5867489580719976 #
vertex $-1 $670 $808 #
point $-1 36.488324909926085 13.758555104846852 1.5867489580719976 #
straight-curve $-1 -42.839442121646776 23.385783045824528 0 0 0 -1 I I #
point $-1 -42.839442121646776 -23.385783045824528 -9.6181678279077794 #
straight-curve $-1 -42.839442121646776 0 -9.6181678279077794 0 1 0 I I #
point $-1 -42.839442121646776 23.385783045824528 -9.6181678279077794 #
coedge $-1 $692 $691 $697 $776 reversed $380 $-1 #
vertex $-1 $704 $809 #
straight-curve $-1 0 -23.385783045824528 9.6181678279077794 1 0 0 I I #
edge $-1 $774 -9.6181678279077794 $777 9.6181678279077794 $773 $810 forward 7 unknown #
vertex $-1 $702 $811 #
straight-curve $-1 0 -23.385783045824528 -9.6181678279077794 -1 0 0 I I #
straight-curve $-1 -42.839442121646776 0 -9.6181678279077794 0 1 0 I I #
straight-curve $-1 -42.839442121646776 0 9.6181678279077794 0 -1 0 I I #
straight-curve $-1 -26.082204710291702 23.385783045824528 48.807011467606856 0 0 -1 I I #
point $-1 -26.082204710291702 23.385783045824528 9.6181678279077794 #
straight-curve $-1 -16.401894307961342 23.385783045824532 0.16905442890587352 -1 0 0 I I #
point $-1 -26.082204710291702 23.385783045824528 0.16905442890587707 #
point $-1 -36.836738959301272 13.228635833616654 0.73870086628777831 #
point $-1 -32.803788615922677 13.228635833616654 0.73870086628777831 #
point $-1 -28.77083827254409 13.228635833616654 0.73870086628777831 #
straight-curve $-1 -4.6624836494683111 23.385783045824528 48.807011467606856 0 0 -1 I I #
point $-1 -4.6624836494683111 23.385783045824528 9.6181678279077794 #
straight-curve $-1 -5.6920337775496463 23.385783045824532 0.16905442890587352 -1 0 0 I I #
point $-1 -4.6624836494683111 23.385783045824528 0.16905442890587707 #
point $-1 -15.41701789847788 13.228635833616654 0.73870086628777831 #
point $-1 -11.384067555099293 13.228635833616654 0.73870086628777831 #
point $-1 -7.3511172117206982 13.228635833616654 0.73870086628777831 #
straight-curve $-1 16.757237411355074 23.385783045824528 48.807011467606856 0 0 -1 I I #
point $-1 16.757237411355074 23.385783045824528 9.6181678279077794 #
straight-curve $-1 5.0178267528620459 23.385783045824532 0.16905442890587352 -1 0 0 I I #
point $-1 16.757237411355074 23.385783045824528 0.16905442890587707 #
point $-1 6.0027031623455045 13.228635833616654 0.73870086628777831 #
point $-1 10.035653505724092 13.228635833616654 0.73870086628777831 #
point $-1 14.068603849102693 13.228635833616654 0.73870086628777831 #
straight-curve $-1 38.176958472178463 23.385783045824528 48.807011467606856 0 0 -1 I I #
point $-1 38.176958472178463 23.385783045824528 9.6181678279077794 #
straight-curve $-1 15.727687283273742 23.385783045824532 0.16905442890587352 -1 0 0 I I #
point $-1 38.176958472178463 23.385783045824528 0.16905442890587707 #
point $-1 27.422424223168896 13.228635833616654 0.73870086628777831 #
point $-1 31.455374566547484 13.228635833616654 0.73870086628777831 #
point $-1 35.488324909926085 13.228635833616654 0.73870086628777831 #
point $-1 -42.839442121646776 -23.385783045824528 9.6181678279077794 #
straight-curve $-1 -42.839442121646776 -23.385783045824528 0 0 0 -1 I I #
point $-1 -42.839442121646776 -23.385783045824528 -9.6181678279077794 #
End-of-ACIS-data 