500 0 10 0           
7 Unknown 11 ACIS 5.0 NT 24 Fri Mar 26 01:45:39 1999 
-1 9.9999999999999995e-007 1e-010 
body $-1 $10 $-1 $11 #
body $-1 $12 $-1 $13 #
body $-1 $14 $-1 $15 #
body $-1 $16 $-1 $17 #
body $-1 $18 $-1 $19 #
body $-1 $20 $-1 $21 #
body $-1 $22 $-1 $23 #
body $-1 $24 $-1 $25 #
body $-1 $26 $-1 $27 #
body $-1 $28 $-1 $29 #
lump $-1 $-1 $30 $0 #
transform $-1 1 0 0 0 1 0 0 0 1 75.90441602832118 44.600533280473698 11.309318853342443 1 rotate no_reflect no_shear #
lump $-1 $-1 $31 $1 #
transform $-1 1 0 0 0 1 0 0 0 1 75.90441602832118 44.600533280473698 11.309318853342443 1 rotate no_reflect no_shear #
lump $-1 $-1 $32 $2 #
transform $-1 1 0 0 0 1 0 0 0 1 75.90441602832118 44.600533280473698 11.309318853342443 1 rotate no_reflect no_shear #
lump $-1 $-1 $33 $3 #
transform $-1 1 0 0 0 1 0 0 0 1 75.90441602832118 44.600533280473698 11.309318853342443 1 rotate no_reflect no_shear #
lump $-1 $-1 $34 $4 #
transform $-1 1 0 0 0 1 0 0 0 1 75.90441602832118 44.600533280473698 11.309318853342443 1 rotate no_reflect no_shear #
lump $-1 $-1 $35 $5 #
transform $-1 1 0 0 0 1 0 0 0 1 75.90441602832118 44.600533280473698 11.309318853342443 1 rotate no_reflect no_shear #
lump $-1 $-1 $36 $6 #
transform $-1 1 0 0 0 1 0 0 0 1 75.90441602832118 44.600533280473698 11.309318853342443 1 rotate no_reflect no_shear #
lump $-1 $-1 $37 $7 #
transform $-1 1 0 0 0 1 0 0 0 1 75.90441602832118 44.600533280473698 11.309318853342443 1 rotate no_reflect no_shear #
lump $-1 $-1 $38 $8 #
transform $-1 1 0 0 0 1 0 0 0 1 75.90441602832118 44.600533280473698 11.309318853342443 1 rotate no_reflect no_shear #
lump $-1 $-1 $39 $9 #
transform $-1 1 0 0 0 1 0 0 0 1 75.90441602832118 44.600533280473698 11.309318853342443 1 rotate no_reflect no_shear #
shell $-1 $-1 $-1 $40 $-1 $10 #
shell $-1 $-1 $-1 $41 $-1 $12 #
shell $-1 $-1 $-1 $42 $-1 $14 #
shell $-1 $-1 $-1 $43 $-1 $16 #
shell $-1 $-1 $-1 $44 $-1 $18 #
shell $-1 $-1 $-1 $45 $-1 $20 #
shell $-1 $-1 $-1 $46 $-1 $22 #
shell $-1 $-1 $-1 $47 $-1 $24 #
shell $-1 $-1 $-1 $48 $-1 $26 #
shell $-1 $-1 $-1 $49 $-1 $28 #
face $-1 $50 $51 $30 $-1 $52 forward single #
face $-1 $53 $54 $31 $-1 $55 forward single #
face $-1 $56 $57 $32 $-1 $58 forward single #
face $-1 $59 $60 $33 $-1 $61 reversed single #
face $-1 $62 $63 $34 $-1 $64 forward single #
face $-1 $65 $66 $35 $-1 $67 forward single #
face $-1 $68 $69 $36 $-1 $70 reversed single #
face $-1 $71 $72 $37 $-1 $73 forward single #
face $-1 $74 $75 $38 $-1 $76 reversed single #
face $-1 $77 $78 $39 $-1 $79 forward single #
face $-1 $80 $81 $30 $-1 $82 reversed single #
loop $-1 $-1 $83 $40 #
plane-surface $-1 0 0 11.309318853342443 0 0 1 1 0 0 forward_v I I I I #
face $-1 $84 $85 $31 $-1 $86 reversed single #
loop $-1 $-1 $87 $41 #
plane-surface $-1 -70.224126241285902 0 9.5155190373926182 0 0 1 1 0 0 forward_v I I I I #
face $-1 $88 $89 $32 $-1 $90 reversed single #
loop $-1 $-1 $91 $42 #
plane-surface $-1 70.224126241285887 0 9.5155190373926182 0 0 1 1 0 0 forward_v I I I I #
face $-1 $92 $93 $33 $-1 $94 reversed single #
loop $-1 $-1 $95 $43 #
plane-surface $-1 1.0170277693216079 -131.67450330033796 131.15168778787097 1 0 0 0 0.57357644374324357 -0.81915203911291934 forward_v I I I I #
face $-1 $96 $97 $34 $-1 $98 forward single #
loop $-1 $99 $100 $44 #
cone-surface $-1 9.4714433179183573 -40.099665000354591 7.2268410975893378 0 0.57357644374324357 -0.81915203911291934 1.5 0 0 1 I I 0 1 1.5 forward I I I I #
face $-1 $101 $102 $35 $-1 $103 forward single #
loop $-1 $104 $105 $45 #
cone-surface $-1 22.153066640813478 -40.099665000354591 7.2268410975893378 0 0.57357644374324357 -0.81915203911291934 1.5 0 0 1 I I 0 1 1.5 forward I I I I #
face $-1 $106 $107 $36 $-1 $108 reversed single #
loop $-1 $-1 $109 $46 #
plane-surface $-1 -38.743241995036598 46.327625860758317 177.10646252759923 -1 0 0 0 0.51503808176128008 0.85716729658548041 forward_v I I I I #
face $-1 $110 $111 $37 $-1 $112 forward single #
loop $-1 $113 $114 $47 #
cone-surface $-1 -51.643539224643604 33.805695176872639 2.4320748821328895 0 -0.51503808176128008 -0.85716729658548041 4 0 0 1 I I 0 1 4 forward I I I I #
face $-1 $115 $116 $38 $-1 $117 reversed single #
loop $-1 $-1 $118 $48 #
plane-surface $-1 38.743241995036627 46.327625860758317 177.10646252759923 1 0 0 0 -0.51503808176128008 -0.85716729658548041 forward_v I I I I #
face $-1 $119 $120 $39 $-1 $121 forward single #
loop $-1 $122 $123 $49 #
cone-surface $-1 51.643539224643632 33.805695176872639 2.4320748821328895 0 -0.51503808176128008 -0.85716729658548041 4 0 0 1 I I 0 1 4 forward I I I I #
face $-1 $124 $125 $30 $-1 $126 reversed single #
loop $-1 $-1 $127 $50 #
plane-surface $-1 0 0 -11.309318853342443 0 0 1 1 0 0 forward_v I I I I #
coedge $-1 $128 $129 $130 $131 forward $51 $-1 #
face $-1 $132 $133 $31 $-1 $134 reversed single #
loop $-1 $-1 $135 $53 #
plane-surface $-1 -70.224126241285902 0 6.5155190373926182 0 0 1 1 0 0 forward_v I I I I #
coedge $-1 $136 $137 $138 $139 forward $54 $-1 #
face $-1 $140 $141 $32 $-1 $142 reversed single #
loop $-1 $-1 $143 $56 #
plane-surface $-1 70.224126241285887 0 6.5155190373926182 0 0 1 1 0 0 forward_v I I I I #
coedge $-1 $144 $145 $146 $147 reversed $57 $-1 #
face $-1 $148 $149 $33 $-1 $150 reversed single #
loop $-1 $-1 $151 $59 #
plane-surface $-1 15.812254979365918 -44.600533280473726 6.7971734533216619 0 -0.57357644374324357 0.81915203911291934 1 0 0 forward_v I I I I #
coedge $-1 $152 $153 $154 $155 reversed $60 $-1 #
face $-1 $-1 $156 $34 $-1 $157 forward single #
loop $-1 $158 $159 $62 #
cone-surface $-1 9.4714433179183573 -38.390620055129027 4.7860720125119371 0 0.57357644374324357 -0.81915203911291934 0.75 0 0 1 I I -0.70710678118654757 0.70710678118654757 0.75 forward I I I I #
loop $-1 $-1 $160 $44 #
coedge $-1 $100 $100 $161 $162 reversed $63 $-1 #
face $-1 $-1 $163 $35 $-1 $164 forward single #
loop $-1 $165 $166 $65 #
cone-surface $-1 22.153066640813478 -38.390620055129027 4.7860720125119371 0 0.57357644374324357 -0.81915203911291934 0.75 0 0 1 I I -0.70710678118654757 0.70710678118654757 0.75 forward I I I I #
loop $-1 $-1 $167 $45 #
coedge $-1 $105 $105 $168 $169 reversed $66 $-1 #
face $-1 $170 $171 $36 $-1 $172 reversed single #
loop $-1 $-1 $173 $68 #
plane-surface $-1 -51.643539224643604 -31.859703796115085 46.980896355807886 0 0.51503808176128008 0.85716729658548041 1 0 0 forward_v I I I I #
coedge $-1 $174 $175 $176 $177 reversed $69 $-1 #
face $-1 $-1 $178 $37 $-1 $179 forward single #
loop $-1 $180 $181 $71 #
cone-surface $-1 -51.643539224643604 30.527162715251762 -3.0243193271750322 0 -0.51503808176128008 -0.85716729658548041 2 0 0 1 I I -0.70710678118654746 0.70710678118654746 2 forward I I I I #
loop $-1 $-1 $182 $47 #
coedge $-1 $114 $114 $183 $184 reversed $72 $-1 #
face $-1 $185 $186 $38 $-1 $187 forward single #
loop $-1 $-1 $188 $74 #
plane-surface $-1 51.643539224643632 -31.859703796115085 46.980896355807886 0 0.51503808176128008 0.85716729658548041 1 0 0 forward_v I I I I #
coedge $-1 $189 $190 $191 $192 reversed $75 $-1 #
face $-1 $-1 $193 $39 $-1 $194 forward single #
loop $-1 $195 $196 $77 #
cone-surface $-1 51.643539224643632 30.527162715251762 -3.0243193271750322 0 -0.51503808176128008 -0.85716729658548041 2 0 0 1 I I -0.70710678118654746 0.70710678118654746 2 forward I I I I #
loop $-1 $-1 $197 $49 #
coedge $-1 $123 $123 $198 $199 reversed $78 $-1 #
face $-1 $200 $201 $30 $-1 $202 reversed single #
loop $-1 $-1 $203 $80 #
plane-surface $-1 0 -44.600533280473698 0 0 1 0 0 0 1 forward_v I I I I #
coedge $-1 $204 $205 $206 $207 forward $81 $-1 #
coedge $-1 $208 $83 $209 $210 forward $51 $-1 #
coedge $-1 $83 $208 $211 $212 forward $51 $-1 #
coedge $-1 $213 $214 $83 $131 reversed $215 $-1 #
edge $-1 $216 -44.600533280473698 $217 44.600533280473698 $130 $218 forward 7 unknown #
face $-1 $219 $220 $31 $-1 $221 reversed single #
loop $-1 $-1 $222 $84 #
plane-surface $-1 -64.543836454250624 0 8.0155190373926182 -1 0 0 0 0 1 forward_v I I I I #
coedge $-1 $223 $224 $225 $226 forward $85 $-1 #
coedge $-1 $227 $87 $228 $229 reversed $54 $-1 #
coedge $-1 $87 $227 $230 $231 reversed $54 $-1 #
coedge $-1 $222 $232 $87 $139 reversed $133 $-1 #
edge $-1 $233 -44.600533280473698 $234 44.600533280473698 $138 $235 forward 7 unknown #
face $-1 $236 $237 $32 $-1 $238 reversed single #
loop $-1 $-1 $239 $88 #
plane-surface $-1 64.543836454250609 0 8.0155190373926182 1 0 0 0 0 -1 forward_v I I I I #
coedge $-1 $240 $241 $242 $243 reversed $89 $-1 #
coedge $-1 $244 $91 $245 $246 reversed $57 $-1 #
coedge $-1 $91 $244 $247 $248 reversed $57 $-1 #
coedge $-1 $249 $250 $91 $147 forward $251 $-1 #
edge $-1 $252 -44.600533280473698 $253 44.600533280473698 $146 $254 forward 7 unknown #
face $-1 $255 $256 $33 $-1 $257 forward single #
loop $-1 $-1 $258 $92 #
plane-surface $-1 30.607482189410227 -131.67450330033796 131.15168778787097 -1 0 0 0 -0.57357644374324357 0.81915203911291934 forward_v I I I I #
coedge $-1 $259 $260 $261 $262 reversed $93 $-1 #
coedge $-1 $153 $95 $263 $264 reversed $60 $-1 #
coedge $-1 $95 $152 $259 $265 reversed $60 $-1 #
coedge $-1 $261 $266 $95 $155 forward $267 $-1 #
edge $-1 $268 54.266525040593038 $269 58.778670440613801 $154 $270 forward 7 unknown #
loop $-1 $-1 $161 $96 #
plane-surface $-1 15.812254979365918 -44.600533280473726 6.7971734533216619 0 -0.57357644374324357 0.81915203911291934 1 0 0 forward_v I I I I #
loop $-1 $-1 $271 $62 #
coedge $-1 $159 $159 $160 $272 reversed $97 $-1 #
coedge $-1 $160 $160 $159 $272 forward $99 $-1 #
coedge $-1 $161 $161 $100 $162 forward $156 $-1 #
edge $-1 $273 1.6473084457570081e-015 $273 6.2831853071796022 $161 $274 forward 7 unknown #
loop $-1 $-1 $168 $101 #
plane-surface $-1 15.812254979365918 -44.600533280473726 6.7971734533216619 0 -0.57357644374324357 0.81915203911291934 1 0 0 forward_v I I I I #
loop $-1 $-1 $275 $65 #
coedge $-1 $166 $166 $167 $276 reversed $102 $-1 #
coedge $-1 $167 $167 $166 $276 forward $104 $-1 #
coedge $-1 $168 $168 $105 $169 forward $163 $-1 #
edge $-1 $277 1.6473084457570081e-015 $277 6.2831853071796022 $168 $278 forward 7 unknown #
face $-1 $279 $280 $36 $-1 $281 forward single #
loop $-1 $-1 $176 $106 #
plane-surface $-1 0 44.600533280473698 0 0 -1 0 0 0 -1 forward_v I I I I #
coedge $-1 $282 $283 $284 $285 reversed $107 $-1 #
coedge $-1 $175 $109 $286 $287 reversed $69 $-1 #
coedge $-1 $109 $174 $282 $288 reversed $69 $-1 #
coedge $-1 $284 $289 $109 $177 forward $171 $-1 #
edge $-1 $290 77.24391241045717 $291 87.514281120602348 $176 $292 forward 7 unknown #
loop $-1 $-1 $183 $110 #
plane-surface $-1 -51.643539224643604 -31.859703796115085 46.980896355807886 0 0.51503808176128008 0.85716729658548041 1 0 0 forward_v I I I I #
loop $-1 $-1 $293 $71 #
coedge $-1 $181 $181 $182 $294 reversed $111 $-1 #
coedge $-1 $182 $182 $181 $294 forward $113 $-1 #
coedge $-1 $183 $183 $114 $184 forward $178 $-1 #
edge $-1 $295 4.2150927576265904e-016 $295 6.2831853071796004 $183 $296 forward 7 unknown #
face $-1 $297 $298 $38 $-1 $299 reversed single #
loop $-1 $-1 $300 $115 #
plane-surface $-1 64.543836454250609 0 8.0155190373926182 1 0 0 0 0 -1 forward_v I I I I #
coedge $-1 $301 $302 $303 $304 reversed $116 $-1 #
coedge $-1 $190 $118 $305 $306 reversed $75 $-1 #
coedge $-1 $118 $189 $301 $307 reversed $75 $-1 #
coedge $-1 $303 $308 $118 $192 forward $309 $-1 #
edge $-1 $310 -21.436720350094539 $311 -4.3439567390891085 $191 $312 forward 7 unknown #
loop $-1 $-1 $198 $119 #
plane-surface $-1 51.643539224643632 -31.859703796115085 46.980896355807886 0 0.51503808176128008 0.85716729658548041 1 0 0 forward_v I I I I #
loop $-1 $-1 $313 $77 #
coedge $-1 $196 $196 $197 $314 reversed $120 $-1 #
coedge $-1 $197 $197 $196 $314 forward $122 $-1 #
coedge $-1 $198 $198 $123 $199 forward $193 $-1 #
edge $-1 $315 4.2150927576265904e-016 $315 6.2831853071796004 $198 $316 forward 7 unknown #
face $-1 $317 $318 $30 $-1 $319 reversed single #
loop $-1 $-1 $320 $124 #
plane-surface $-1 -75.90441602832118 0 0 1 0 0 0 0 -1 forward_v I I I I #
coedge $-1 $321 $211 $322 $323 forward $125 $-1 #
coedge $-1 $324 $127 $321 $325 forward $81 $-1 #
coedge $-1 $127 $324 $326 $327 forward $81 $-1 #
coedge $-1 $214 $213 $127 $207 reversed $215 $-1 #
edge $-1 $328 -44.600533280473698 $329 44.600533280473698 $206 $330 forward 7 unknown #
coedge $-1 $129 $128 $331 $332 forward $51 $-1 #
coedge $-1 $333 $334 $128 $210 reversed $318 $-1 #
edge $-1 $217 -75.90441602832118 $335 75.90441602832118 $209 $336 forward 7 unknown #
coedge $-1 $203 $337 $129 $212 reversed $125 $-1 #
edge $-1 $338 -75.90441602832118 $216 75.90441602832118 $211 $339 forward 7 unknown #
coedge $-1 $206 $130 $337 $340 forward $215 $-1 #
coedge $-1 $130 $206 $333 $341 reversed $215 $-1 #
loop $-1 $-1 $213 $317 #
vertex $-1 $131 $342 #
vertex $-1 $131 $343 #
straight-curve $-1 75.90441602832118 0 11.309318853342443 0 1 0 I I #
face $-1 $344 $345 $31 $-1 $346 reversed single #
loop $-1 $-1 $347 $132 #
plane-surface $-1 0 -44.600533280473698 0 0 1 0 0 0 1 forward_v I I I I #
coedge $-1 $225 $138 $348 $349 reversed $133 $-1 #
coedge $-1 $350 $135 $347 $351 reversed $85 $-1 #
coedge $-1 $135 $350 $352 $353 reversed $85 $-1 #
coedge $-1 $232 $222 $135 $226 reversed $133 $-1 #
edge $-1 $354 -44.600533280473698 $355 44.600533280473698 $225 $356 forward 7 unknown #
coedge $-1 $137 $136 $357 $358 reversed $54 $-1 #
coedge $-1 $359 $360 $136 $229 forward $361 $-1 #
edge $-1 $362 -40.792352907678229 $234 -29.431773333607673 $228 $363 forward 7 unknown #
coedge $-1 $364 $348 $137 $231 forward $220 $-1 #
edge $-1 $233 29.431773333607673 $365 40.792352907678229 $230 $366 forward 7 unknown #
coedge $-1 $138 $225 $359 $367 reversed $133 $-1 #
vertex $-1 $231 $368 #
vertex $-1 $229 $369 #
straight-curve $-1 -64.543836454250624 0 9.5155190373926182 0 1 0 I I #
face $-1 $370 $371 $32 $-1 $372 reversed single #
loop $-1 $-1 $247 $140 #
plane-surface $-1 0 -44.600533280473698 0 0 1 0 0 0 1 forward_v I I I I #
coedge $-1 $373 $374 $375 $376 reversed $141 $-1 #
coedge $-1 $377 $143 $378 $379 reversed $89 $-1 #
coedge $-1 $143 $377 $380 $381 reversed $89 $-1 #
coedge $-1 $250 $249 $143 $243 forward $251 $-1 #
edge $-1 $382 -44.600533280473698 $383 44.600533280473698 $242 $384 forward 7 unknown #
coedge $-1 $145 $144 $374 $385 forward $57 $-1 #
coedge $-1 $386 $375 $144 $246 forward $371 $-1 #
edge $-1 $387 29.431773333607666 $252 40.792352907678222 $245 $388 forward 7 unknown #
coedge $-1 $389 $390 $145 $248 forward $237 $-1 #
edge $-1 $253 -40.792352907678222 $391 -29.431773333607666 $247 $392 forward 7 unknown #
coedge $-1 $242 $146 $390 $393 forward $251 $-1 #
coedge $-1 $146 $242 $386 $394 reversed $251 $-1 #
loop $-1 $-1 $146 $370 #
vertex $-1 $394 $395 #
vertex $-1 $393 $396 #
straight-curve $-1 75.90441602832118 0 9.5155190373926182 0 -1 0 I I #
face $-1 $-1 $267 $33 $-1 $397 reversed single #
loop $-1 $-1 $398 $148 #
plane-surface $-1 0 0 11.309318853342443 0 0 1 1 0 0 forward_v I I I I #
coedge $-1 $399 $400 $401 $402 reversed $149 $-1 #
coedge $-1 $403 $151 $153 $265 forward $93 $-1 #
coedge $-1 $151 $403 $399 $404 forward $93 $-1 #
coedge $-1 $401 $154 $151 $262 forward $267 $-1 #
edge $-1 $269 -6.8890997203613509 $405 22.701354699727268 $261 $406 forward 7 unknown #
coedge $-1 $407 $408 $152 $264 forward $256 $-1 #
edge $-1 $409 -27.680729705097207 $268 -21.236718369695282 $263 $410 forward 7 unknown #
edge $-1 $269 3.4489342061374355e-014 $409 7.866685337657632 $153 $411 forward 7 unknown #
coedge $-1 $154 $401 $407 $412 reversed $267 $-1 #
loop $-1 $-1 $401 $255 #
vertex $-1 $412 $413 #
vertex $-1 $155 $414 #
straight-curve $-1 1.0170277693216079 -44.600533280473698 65.575843893935485 0 0 -1 I I #
coedge $-1 $271 $271 $-1 $415 reversed $158 $-1 #
edge $-1 $416 0 $416 6.2831853071796004 $159 $417 forward 7 unknown #
vertex $-1 $162 $418 #
ellipse-curve $-1 9.4714433179183573 -41.378527612772729 9.0532461533320649 0 -0.57357644374324357 0.81915203911291934 1.5 0 0 1 I I #
coedge $-1 $275 $275 $-1 $419 reversed $165 $-1 #
edge $-1 $420 0 $420 6.2831853071796004 $166 $421 forward 7 unknown #
vertex $-1 $169 $422 #
ellipse-curve $-1 22.153066640813478 -41.378527612772729 9.0532461533320649 0 -0.57357644374324357 0.81915203911291934 1.5 0 0 1 I I #
face $-1 $-1 $423 $36 $-1 $424 forward single #
loop $-1 $-1 $425 $170 #
plane-surface $-1 -64.543836454250624 0 8.0155190373926182 -1 0 0 0 0 1 forward_v I I I I #
coedge $-1 $426 $173 $175 $288 forward $107 $-1 #
coedge $-1 $173 $426 $425 $427 forward $107 $-1 #
coedge $-1 $428 $176 $173 $285 forward $171 $-1 #
edge $-1 $291 12.921472382714796 $429 38.722066841928807 $284 $430 forward 7 unknown #
coedge $-1 $431 $432 $174 $287 forward $423 $-1 #
edge $-1 $433 4.3439567390891085 $290 21.436720350094539 $286 $434 forward 7 unknown #
edge $-1 $291 -89.201066560947396 $433 -69.260077585872949 $175 $435 forward 7 unknown #
coedge $-1 $176 $428 $431 $436 reversed $171 $-1 #
vertex $-1 $436 $437 #
vertex $-1 $177 $438 #
straight-curve $-1 -38.743241995036598 44.600533280473698 88.553231263799617 0 0 -1 I I #
coedge $-1 $293 $293 $-1 $439 reversed $180 $-1 #
edge $-1 $440 0 $440 6.2831853071796004 $181 $441 forward 7 unknown #
vertex $-1 $184 $442 #
ellipse-curve $-1 -51.643539224643604 36.054151474970965 6.1741344982698658 0 0.51503808176128008 0.85716729658548041 4 0 0 1 I I #
face $-1 $-1 $309 $38 $-1 $443 forward single #
loop $-1 $-1 $444 $185 #
plane-surface $-1 0 44.600533280473698 0 0 -1 0 0 0 -1 forward_v I I I I #
coedge $-1 $445 $446 $302 $447 reversed $186 $-1 #
coedge $-1 $448 $188 $190 $307 forward $116 $-1 #
coedge $-1 $188 $448 $300 $447 forward $116 $-1 #
coedge $-1 $449 $191 $188 $304 forward $309 $-1 #
edge $-1 $311 12.921472382714811 $450 38.722066841928822 $303 $451 forward 7 unknown #
coedge $-1 $452 $453 $189 $306 forward $298 $-1 #
edge $-1 $454 -87.514281120602348 $310 -77.24391241045717 $305 $455 forward 7 unknown #
edge $-1 $311 69.260077585872949 $454 89.201066560947396 $190 $456 forward 7 unknown #
coedge $-1 $191 $449 $452 $457 forward $309 $-1 #
loop $-1 $-1 $449 $297 #
vertex $-1 $306 $458 #
vertex $-1 $192 $459 #
straight-curve $-1 38.743241995036627 23.163812930379159 11.309318853342447 0 -1 0 I I #
coedge $-1 $313 $313 $-1 $460 reversed $195 $-1 #
edge $-1 $461 0 $461 6.2831853071796004 $196 $462 forward 7 unknown #
vertex $-1 $199 $463 #
ellipse-curve $-1 51.643539224643632 36.054151474970965 6.1741344982698658 0 0.51503808176128008 0.85716729658548041 4 0 0 1 I I #
face $-1 $-1 $215 $30 $-1 $464 reversed single #
loop $-1 $-1 $333 $200 #
plane-surface $-1 0 44.600533280473698 0 0 -1 0 0 0 -1 forward_v I I I I #
coedge $-1 $465 $331 $334 $466 forward $201 $-1 #
coedge $-1 $337 $203 $204 $325 reversed $125 $-1 #
coedge $-1 $331 $465 $203 $323 reversed $201 $-1 #
edge $-1 $338 -11.309318853342443 $467 11.309318853342443 $322 $468 forward 7 unknown #
coedge $-1 $205 $204 $465 $469 forward $81 $-1 #
edge $-1 $329 -75.90441602832118 $467 75.90441602832118 $321 $470 forward 7 unknown #
coedge $-1 $334 $333 $205 $327 reversed $318 $-1 #
edge $-1 $471 -75.90441602832118 $328 75.90441602832118 $326 $472 forward 7 unknown #
vertex $-1 $207 $473 #
vertex $-1 $340 $474 #
straight-curve $-1 75.90441602832118 0 -11.309318853342443 0 -1 0 I I #
coedge $-1 $320 $322 $208 $332 reversed $201 $-1 #
edge $-1 $335 -44.600533280473698 $338 44.600533280473698 $331 $475 forward 7 unknown #
coedge $-1 $326 $209 $214 $341 forward $318 $-1 #
coedge $-1 $209 $326 $320 $466 reversed $318 $-1 #
vertex $-1 $210 $476 #
straight-curve $-1 0 44.600533280473698 11.309318853342443 -1 0 0 I I #
coedge $-1 $211 $321 $213 $340 reversed $125 $-1 #
vertex $-1 $332 $477 #
straight-curve $-1 0 -44.600533280473698 11.309318853342443 1 0 0 I I #
edge $-1 $216 -11.309318853342443 $329 11.309318853342443 $213 $478 forward 7 unknown #
edge $-1 $217 -11.309318853342443 $328 11.309318853342443 $214 $479 forward 7 unknown #
point $-1 75.90441602832118 -44.600533280473698 11.309318853342443 #
point $-1 75.90441602832118 44.600533280473698 11.309318853342443 #
face $-1 $-1 $361 $31 $-1 $480 reversed single #
loop $-1 $-1 $481 $219 #
plane-surface $-1 -75.90441602832118 0 0 1 0 0 0 0 -1 forward_v I I I I #
coedge $-1 $348 $364 $223 $351 forward $220 $-1 #
coedge $-1 $230 $347 $222 $349 forward $220 $-1 #
edge $-1 $355 2.5077595186963091 $233 5.5077595186963091 $348 $482 forward 7 unknown #
coedge $-1 $224 $223 $481 $483 reversed $85 $-1 #
edge $-1 $484 -40.792352907678229 $355 -29.431773333607673 $347 $485 forward 7 unknown #
coedge $-1 $360 $359 $224 $353 forward $361 $-1 #
edge $-1 $354 29.431773333607673 $486 40.792352907678229 $352 $487 forward 7 unknown #
vertex $-1 $353 $488 #
vertex $-1 $351 $489 #
straight-curve $-1 -64.543836454250624 0 6.5155190373926182 0 -1 0 I I #
coedge $-1 $490 $491 $227 $358 forward $345 $-1 #
edge $-1 $365 -44.600533280473698 $362 44.600533280473698 $357 $492 forward 7 unknown #
coedge $-1 $352 $228 $232 $367 forward $361 $-1 #
coedge $-1 $228 $352 $490 $493 reversed $361 $-1 #
loop $-1 $-1 $352 $344 #
vertex $-1 $493 $494 #
straight-curve $-1 -35.112063120642951 44.600533280473698 9.5155190373926182 1 0 0 I I #
coedge $-1 $347 $230 $491 $495 forward $220 $-1 #
vertex $-1 $495 $496 #
straight-curve $-1 -35.112063120642951 -44.600533280473698 9.5155190373926182 -1 0 0 I I #
edge $-1 $234 -5.5077595186963091 $354 -2.5077595186963091 $359 $497 forward 7 unknown #
point $-1 -64.543836454250624 -44.600533280473698 9.5155190373926182 #
point $-1 -64.543836454250624 44.600533280473698 9.5155190373926182 #
face $-1 $-1 $251 $32 $-1 $498 reversed single #
loop $-1 $-1 $245 $236 #
plane-surface $-1 0 44.600533280473698 0 0 -1 0 0 0 -1 forward_v I I I I #
coedge $-1 $499 $239 $377 $500 reversed $141 $-1 #
coedge $-1 $239 $499 $244 $385 reversed $141 $-1 #
coedge $-1 $245 $380 $239 $376 forward $371 $-1 #
edge $-1 $501 2.5077595186963091 $387 5.5077595186963091 $375 $502 forward 7 unknown #
coedge $-1 $241 $240 $373 $500 forward $89 $-1 #
coedge $-1 $390 $389 $240 $379 forward $237 $-1 #
edge $-1 $503 29.431773333607666 $382 40.792352907678222 $378 $504 forward 7 unknown #
coedge $-1 $375 $386 $241 $381 forward $371 $-1 #
edge $-1 $383 -40.792352907678222 $501 -29.431773333607666 $380 $505 forward 7 unknown #
vertex $-1 $243 $506 #
vertex $-1 $243 $507 #
straight-curve $-1 75.90441602832118 0 6.5155190373926182 0 1 0 I I #
edge $-1 $387 -44.600533280473698 $391 44.600533280473698 $374 $508 forward 7 unknown #
coedge $-1 $380 $245 $250 $394 forward $371 $-1 #
vertex $-1 $246 $509 #
straight-curve $-1 35.112063120642944 44.600533280473698 9.5155190373926182 1 0 0 I I #
coedge $-1 $378 $247 $499 $510 forward $237 $-1 #
coedge $-1 $247 $378 $249 $393 reversed $237 $-1 #
vertex $-1 $248 $511 #
straight-curve $-1 35.112063120642944 -44.600533280473698 9.5155190373926182 -1 0 0 I I #
edge $-1 $253 -9.5155190373926182 $382 -6.5155190373926182 $249 $512 forward 7 unknown #
edge $-1 $252 -9.5155190373926182 $383 -6.5155190373926182 $250 $513 forward 7 unknown #
point $-1 75.904416028321165 44.600533280473698 9.5155190373926182 #
point $-1 75.904416028321165 -44.600533280473698 9.5155190373926182 #
plane-surface $-1 0 -44.600533280473698 0 0 1 0 0 0 1 forward_v I I I I #
coedge $-1 $408 $407 $400 $514 forward $256 $-1 #
coedge $-1 $400 $258 $260 $404 reversed $149 $-1 #
coedge $-1 $258 $399 $398 $514 reversed $149 $-1 #
coedge $-1 $266 $261 $258 $402 forward $267 $-1 #
edge $-1 $405 -58.778670440613801 $515 -54.266525040593038 $401 $516 forward 7 unknown #
coedge $-1 $260 $259 $408 $517 reversed $93 $-1 #
edge $-1 $518 -7.866685337657632 $405 -3.4489342061374355e-014 $399 $519 forward 7 unknown #
vertex $-1 $262 $520 #
straight-curve $-1 7.9061274896829588 -44.600533280473698 6.7971734533216823 1 0 0 I I #
coedge $-1 $398 $263 $266 $412 forward $256 $-1 #
coedge $-1 $263 $398 $403 $517 forward $256 $-1 #
vertex $-1 $264 $521 #
straight-curve $-1 1.0170277693216079 -65.83725165016898 11.309318853342447 0 -1 0 I I #
straight-curve $-1 1.0170277693216079 -44.600533280473726 6.7971734533216619 0 0.81915203911291934 0.57357644374324357 I I #
edge $-1 $268 1.0170277693216079 $515 30.607482189410227 $266 $522 forward 7 unknown #
point $-1 1.0170277693216079 -44.600533280473698 11.309318853342443 #
point $-1 1.0170277693216079 -44.600533280473698 6.7971734533216814 #
edge $-1 $523 1 $523 0 $271 $-1 forward 7 unknown #
vertex $-1 $272 $524 #
ellipse-curve $-1 9.4714433179183573 -38.82080238793646 5.4004360418466266 0 -0.57357644374324357 0.81915203911291934 1.5 0 0 1 I I #
point $-1 10.971443317918357 -41.378527612772714 9.053246153332049 #
edge $-1 $525 1 $525 0 $275 $-1 forward 7 unknown #
vertex $-1 $276 $526 #
ellipse-curve $-1 22.153066640813478 -38.82080238793646 5.4004360418466266 0 -0.57357644374324357 0.81915203911291934 1.5 0 0 1 I I #
point $-1 23.653066640813478 -41.378527612772714 9.053246153332049 #
loop $-1 $-1 $286 $279 #
plane-surface $-1 0 0 11.309318853342443 0 0 1 1 0 0 forward_v I I I I #
coedge $-1 $527 $528 $283 $427 reversed $280 $-1 #
coedge $-1 $283 $282 $432 $529 reversed $107 $-1 #
edge $-1 $530 69.260077585872949 $429 89.201066560947396 $425 $531 forward 7 unknown #
coedge $-1 $289 $284 $528 $532 forward $171 $-1 #
vertex $-1 $285 $533 #
straight-curve $-1 -25.821769612321802 44.600533280473691 1.0389501431972725 -1 0 0 I I #
coedge $-1 $534 $286 $289 $436 forward $423 $-1 #
coedge $-1 $286 $534 $426 $529 forward $423 $-1 #
vertex $-1 $287 $535 #
straight-curve $-1 -38.743241995036598 23.163812930379159 11.309318853342447 0 1 0 I I #
straight-curve $-1 -38.743241995036598 -31.859703796115085 46.980896355807886 0 -0.85716729658548041 0.51503808176128008 I I #
edge $-1 $290 38.743241995036598 $536 64.543836454250609 $289 $537 forward 7 unknown #
point $-1 -38.743241995036598 44.600533280473698 11.309318853342443 #
point $-1 -38.743241995036598 44.600533280473698 1.038950143197269 #
edge $-1 $538 1 $538 0 $293 $-1 forward 7 unknown #
vertex $-1 $294 $539 #
ellipse-curve $-1 -51.643539224643604 31.557238878774321 -1.3099847340040713 0 0.51503808176128008 0.85716729658548041 4 0 0 1 I I #
point $-1 -47.643539224643604 36.054151474970958 6.1741344982698507 #
plane-surface $-1 0 0 11.309318853342443 0 0 1 1 0 0 forward_v I I I I #
coedge $-1 $453 $452 $445 $540 forward $298 $-1 #
coedge $-1 $446 $300 $444 $540 reversed $186 $-1 #
coedge $-1 $300 $445 $449 $541 reversed $186 $-1 #
edge $-1 $542 -89.201066560947396 $450 -69.260077585872949 $300 $543 forward 7 unknown #
coedge $-1 $302 $301 $453 $544 reversed $116 $-1 #
coedge $-1 $308 $303 $446 $541 forward $309 $-1 #
vertex $-1 $541 $545 #
straight-curve $-1 25.821769612321816 27.507769669468274 11.309318853342443 1 0 0 I I #
coedge $-1 $444 $305 $308 $457 reversed $298 $-1 #
coedge $-1 $305 $444 $448 $544 forward $298 $-1 #
vertex $-1 $306 $546 #
straight-curve $-1 38.743241995036627 44.600533280473698 88.553231263799617 0 0 1 I I #
straight-curve $-1 38.743241995036627 -31.859703796115085 46.980896355807886 0 0.85716729658548041 -0.51503808176128008 I I #
edge $-1 $547 -64.543836454250638 $310 -38.743241995036627 $452 $548 forward 7 unknown #
point $-1 38.743241995036627 44.600533280473698 11.309318853342443 #
point $-1 38.743241995036627 27.507769669468267 11.309318853342447 #
edge $-1 $549 1 $549 0 $313 $-1 forward 7 unknown #
vertex $-1 $314 $550 #
ellipse-curve $-1 51.643539224643632 31.557238878774321 -1.3099847340040713 0 0.51503808176128008 0.85716729658548041 4 0 0 1 I I #
point $-1 55.643539224643632 36.054151474970958 6.1741344982698507 #
plane-surface $-1 75.90441602832118 0 0 -1 0 0 0 0 1 forward_v I I I I #
coedge $-1 $322 $320 $324 $469 reversed $201 $-1 #
edge $-1 $335 -11.309318853342443 $471 11.309318853342443 $334 $551 forward 7 unknown #
vertex $-1 $469 $552 #
straight-curve $-1 -75.90441602832118 -44.600533280473698 0 0 0 -1 I I #
edge $-1 $467 -44.600533280473698 $471 44.600533280473698 $465 $553 forward 7 unknown #
straight-curve $-1 0 -44.600533280473698 -11.309318853342443 -1 0 0 I I #
vertex $-1 $327 $554 #
straight-curve $-1 0 44.600533280473698 -11.309318853342443 1 0 0 I I #
point $-1 75.90441602832118 44.600533280473698 -11.309318853342443 #
point $-1 75.90441602832118 -44.600533280473698 -11.309318853342443 #
straight-curve $-1 -75.90441602832118 0 11.309318853342443 0 -1 0 I I #
point $-1 -75.90441602832118 44.600533280473698 11.309318853342443 #
point $-1 -75.90441602832118 -44.600533280473698 11.309318853342443 #
straight-curve $-1 75.90441602832118 -44.600533280473698 0 0 0 -1 I I #
straight-curve $-1 75.90441602832118 44.600533280473698 0 0 0 -1 I I #
plane-surface $-1 0 44.600533280473698 0 0 -1 0 0 0 -1 forward_v I I I I #
coedge $-1 $491 $490 $350 $483 forward $345 $-1 #
straight-curve $-1 -64.543836454250624 -44.600533280473698 4.0077595186963091 0 0 1 I I #
edge $-1 $486 -44.600533280473698 $484 44.600533280473698 $481 $555 forward 7 unknown #
vertex $-1 $351 $556 #
straight-curve $-1 -35.112063120642951 -44.600533280473698 6.5155190373926182 1 0 0 I I #
vertex $-1 $353 $557 #
straight-curve $-1 -35.112063120642951 44.600533280473698 6.5155190373926182 -1 0 0 I I #
point $-1 -64.543836454250624 44.600533280473698 6.5155190373926182 #
point $-1 -64.543836454250624 -44.600533280473698 6.5155190373926182 #
coedge $-1 $481 $357 $360 $493 forward $345 $-1 #
coedge $-1 $357 $481 $364 $495 reversed $345 $-1 #
straight-curve $-1 -75.90441602832118 0 9.5155190373926182 0 1 0 I I #
edge $-1 $362 -9.5155190373926182 $486 -6.5155190373926182 $360 $558 forward 7 unknown #
point $-1 -75.90441602832118 44.600533280473698 9.5155190373926182 #
edge $-1 $365 -9.5155190373926182 $484 -6.5155190373926182 $491 $559 forward 7 unknown #
point $-1 -75.90441602832118 -44.600533280473698 9.5155190373926182 #
straight-curve $-1 -64.543836454250624 44.600533280473698 4.0077595186963091 0 0 -1 I I #
plane-surface $-1 75.90441602832118 0 0 -1 0 0 0 0 1 forward_v I I I I #
coedge $-1 $374 $373 $389 $510 reversed $141 $-1 #
edge $-1 $503 -44.600533280473698 $501 44.600533280473698 $373 $560 forward 7 unknown #
vertex $-1 $381 $561 #
straight-curve $-1 64.543836454250609 44.600533280473698 4.0077595186963091 0 0 1 I I #
vertex $-1 $379 $562 #
straight-curve $-1 35.112063120642944 -44.600533280473698 6.5155190373926182 1 0 0 I I #
straight-curve $-1 35.112063120642944 44.600533280473698 6.5155190373926182 -1 0 0 I I #
point $-1 75.904416028321165 -44.600533280473698 6.5155190373926182 #
point $-1 75.904416028321165 44.600533280473698 6.5155190373926182 #
straight-curve $-1 64.543836454250609 0 9.5155190373926182 0 -1 0 I I #
point $-1 64.543836454250609 44.600533280473698 9.5155190373926182 #
edge $-1 $391 -5.5077595186963091 $503 -2.5077595186963091 $389 $563 forward 7 unknown #
point $-1 64.543836454250609 -44.600533280473698 9.5155190373926182 #
straight-curve $-1 75.90441602832118 -44.600533280473698 0 0 0 -1 I I #
straight-curve $-1 75.90441602832118 44.600533280473698 0 0 0 -1 I I #
edge $-1 $515 21.236718369695282 $518 27.680729705097207 $398 $564 forward 7 unknown #
vertex $-1 $514 $565 #
straight-curve $-1 30.607482189410227 -44.600533280473698 65.575843893935485 0 0 1 I I #
edge $-1 $518 -22.701354699727268 $409 6.8890997203613509 $408 $566 forward 7 unknown #
vertex $-1 $517 $567 #
straight-curve $-1 30.607482189410227 -44.600533280473726 6.7971734533216619 0 -0.81915203911291934 -0.57357644374324357 I I #
point $-1 30.607482189410227 -44.600533280473698 6.7971734533216814 #
point $-1 1.0170277693216079 -38.156521945071773 11.309318853342443 #
straight-curve $-1 0 -44.600533280473698 11.309318853342443 1 0 0 I I #
vertex $-1 $415 $568 #
point $-1 10.971443317918357 -38.82080238793646 5.4004360418466266 #
vertex $-1 $419 $569 #
point $-1 23.653066640813478 -38.82080238793646 5.4004360418466266 #
coedge $-1 $528 $425 $534 $570 reversed $280 $-1 #
coedge $-1 $425 $527 $428 $532 reversed $280 $-1 #
edge $-1 $530 -38.722066841928807 $433 -12.921472382714796 $432 $571 forward 7 unknown #
vertex $-1 $570 $572 #
straight-curve $-1 -64.543836454250609 -31.859703796115085 46.980896355807886 0 0.85716729658548041 -0.51503808176128008 I I #
edge $-1 $429 -87.514281120602348 $536 -77.24391241045717 $428 $573 forward 7 unknown #
point $-1 -64.543836454250609 44.600533280473698 1.038950143197269 #
coedge $-1 $432 $431 $527 $570 forward $423 $-1 #
point $-1 -38.743241995036598 27.507769669468267 11.309318853342447 #
vertex $-1 $532 $574 #
straight-curve $-1 0 44.600533280473698 11.309318853342443 -1 0 0 I I #
vertex $-1 $439 $575 #
point $-1 -47.643539224643604 31.557238878774321 -1.3099847340040713 #
edge $-1 $547 77.24391241045717 $542 87.514281120602348 $444 $576 forward 7 unknown #
edge $-1 $450 4.3439567390891085 $547 21.436720350094539 $449 $577 forward 7 unknown #
vertex $-1 $540 $578 #
straight-curve $-1 64.543836454250638 -31.859703796115085 46.980896355807886 0 -0.85716729658548041 0.51503808176128008 I I #
edge $-1 $542 -38.722066841928822 $454 -12.921472382714811 $453 $579 forward 7 unknown #
point $-1 64.543836454250638 27.507769669468267 11.309318853342447 #
point $-1 38.743241995036627 44.600533280473698 1.038950143197269 #
vertex $-1 $457 $580 #
straight-curve $-1 0 44.600533280473698 11.309318853342443 -1 0 0 I I #
vertex $-1 $460 $581 #
point $-1 55.643539224643632 31.557238878774321 -1.3099847340040713 #
straight-curve $-1 -75.90441602832118 44.600533280473698 0 0 0 -1 I I #
point $-1 -75.90441602832118 -44.600533280473698 -11.309318853342443 #
straight-curve $-1 -75.90441602832118 0 -11.309318853342443 0 1 0 I I #
point $-1 -75.90441602832118 44.600533280473698 -11.309318853342443 #
straight-curve $-1 -75.90441602832118 0 6.5155190373926182 0 -1 0 I I #
point $-1 -75.90441602832118 -44.600533280473698 6.5155190373926182 #
point $-1 -75.90441602832118 44.600533280473698 6.5155190373926182 #
straight-curve $-1 -75.90441602832118 44.600533280473698 0 0 0 -1 I I #
straight-curve $-1 -75.90441602832118 -44.600533280473698 0 0 0 -1 I I #
straight-curve $-1 64.543836454250609 0 6.5155190373926182 0 1 0 I I #
point $-1 64.543836454250609 44.600533280473698 6.5155190373926182 #
point $-1 64.543836454250609 -44.600533280473698 6.5155190373926182 #
straight-curve $-1 64.543836454250609 -44.600533280473698 4.0077595186963091 0 0 -1 I I #
straight-curve $-1 30.607482189410227 -65.83725165016898 11.309318853342447 0 1 0 I I #
point $-1 30.607482189410227 -44.600533280473698 11.309318853342443 #
straight-curve $-1 7.9061274896829588 -38.156521945071766 11.309318853342445 -1 0 0 I I #
point $-1 30.607482189410227 -38.156521945071773 11.309318853342443 #
point $-1 9.4714433179183573 -37.960437722321593 4.1717079831772477 #
point $-1 22.153066640813478 -37.960437722321593 4.1717079831772477 #
edge $-1 $536 -21.436720350094539 $530 -4.3439567390891085 $534 $582 forward 7 unknown #
straight-curve $-1 -25.821769612321802 27.507769669468274 11.309318853342443 1 0 0 I I #
point $-1 -64.543836454250609 27.507769669468267 11.309318853342447 #
straight-curve $-1 -64.543836454250609 44.600533280473698 88.553231263799617 0 0 1 I I #
point $-1 -64.543836454250609 44.600533280473698 11.309318853342443 #
point $-1 -51.643539224643604 29.497086551729204 -4.7386539203459925 #
straight-curve $-1 64.543836454250638 44.600533280473698 88.553231263799617 0 0 -1 I I #
straight-curve $-1 64.543836454250638 23.163812930379159 11.309318853342447 0 1 0 I I #
point $-1 64.543836454250638 44.600533280473698 1.038950143197269 #
straight-curve $-1 25.821769612321816 44.600533280473691 1.0389501431972725 -1 0 0 I I #
point $-1 64.543836454250638 44.600533280473698 11.309318853342443 #
point $-1 51.643539224643632 29.497086551729204 -4.7386539203459925 #
straight-curve $-1 -64.543836454250609 23.163812930379159 11.309318853342447 0 -1 0 I I #
End-of-ACIS-data 