500 0 11 0           
7 Unknown 11 ACIS 5.0 NT 24 Thu Mar 25 21:06:06 1999 
-1 9.9999999999999995e-007 1e-010 
body $-1 $11 $-1 $12 #
body $-1 $13 $-1 $14 #
body $-1 $15 $-1 $16 #
body $-1 $17 $-1 $18 #
body $-1 $19 $-1 $20 #
body $-1 $21 $-1 $22 #
body $-1 $23 $-1 $24 #
body $-1 $25 $-1 $26 #
body $-1 $27 $-1 $28 #
body $-1 $29 $-1 $30 #
body $-1 $31 $-1 $32 #
lump $-1 $-1 $33 $0 #
transform $-1 1 0 0 0 1 0 0 0 1 47.238990447706534 30.728338325072201 8.2767797242120036 1 rotate no_reflect no_shear #
lump $-1 $-1 $34 $1 #
transform $-1 1 0 0 0 1 0 0 0 1 47.238990447706534 30.728338325072201 8.2767797242120036 1 rotate no_reflect no_shear #
lump $-1 $-1 $35 $2 #
transform $-1 1 0 0 0 1 0 0 0 1 47.238990447706534 30.728338325072201 8.2767797242120036 1 rotate no_reflect no_shear #
lump $-1 $-1 $36 $3 #
transform $-1 1 0 0 0 1 0 0 0 1 47.238990447706534 30.728338325072201 8.2767797242120036 1 rotate no_reflect no_shear #
lump $-1 $-1 $37 $4 #
transform $-1 1 0 0 0 1 0 0 0 1 47.238990447706534 30.728338325072201 8.2767797242120036 1 rotate no_reflect no_shear #
lump $-1 $-1 $38 $5 #
transform $-1 1 0 0 0 1 0 0 0 1 47.238990447706534 30.728338325072201 8.2767797242120036 1 rotate no_reflect no_shear #
lump $-1 $-1 $39 $6 #
transform $-1 1 0 0 0 1 0 0 0 1 47.238990447706534 30.728338325072201 8.2767797242120036 1 rotate no_reflect no_shear #
lump $-1 $-1 $40 $7 #
transform $-1 1 0 0 0 1 0 0 0 1 47.238990447706534 30.728338325072201 8.2767797242120036 1 rotate no_reflect no_shear #
lump $-1 $-1 $41 $8 #
transform $-1 1 0 0 0 1 0 0 0 1 47.238990447706534 30.728338325072201 8.2767797242120036 1 rotate no_reflect no_shear #
lump $-1 $-1 $42 $9 #
transform $-1 1 0 0 0 1 0 0 0 1 47.238990447706534 30.728338325072201 8.2767797242120036 1 rotate no_reflect no_shear #
lump $-1 $-1 $43 $10 #
transform $-1 1 0 0 0 1 0 0 0 1 47.238990447706534 30.728338325072201 8.2767797242120036 1 rotate no_reflect no_shear #
shell $-1 $-1 $-1 $44 $-1 $11 #
shell $-1 $-1 $-1 $45 $-1 $13 #
shell $-1 $-1 $-1 $46 $-1 $15 #
shell $-1 $-1 $-1 $47 $-1 $17 #
shell $-1 $-1 $-1 $48 $-1 $19 #
shell $-1 $-1 $-1 $49 $-1 $21 #
shell $-1 $-1 $-1 $50 $-1 $23 #
shell $-1 $-1 $-1 $51 $-1 $25 #
shell $-1 $-1 $-1 $52 $-1 $27 #
shell $-1 $-1 $-1 $53 $-1 $29 #
shell $-1 $-1 $-1 $54 $-1 $31 #
face $-1 $55 $56 $33 $-1 $57 forward single #
face $-1 $58 $59 $34 $-1 $60 reversed single #
face $-1 $61 $62 $35 $-1 $63 forward single #
face $-1 $64 $65 $36 $-1 $66 reversed single #
face $-1 $67 $68 $37 $-1 $69 forward single #
face $-1 $70 $71 $38 $-1 $72 forward single #
face $-1 $73 $74 $39 $-1 $75 forward single #
face $-1 $76 $77 $40 $-1 $78 reversed single #
face $-1 $79 $80 $41 $-1 $81 forward single #
face $-1 $82 $83 $42 $-1 $84 forward single #
face $-1 $85 $86 $43 $-1 $87 forward single #
face $-1 $88 $89 $33 $-1 $90 reversed single #
loop $-1 $-1 $91 $44 #
plane-surface $-1 0 0 8.2767797242120036 0 0 1 1 0 0 forward_v I I I I #
face $-1 $92 $93 $34 $-1 $94 reversed single #
loop $-1 $-1 $95 $45 #
plane-surface $-1 -43.597902005249473 -20.131851434306302 0 0 1 0 0 0 1 forward_v I I I I #
face $-1 $96 $97 $35 $-1 $98 reversed single #
loop $-1 $-1 $99 $46 #
plane-surface $-1 43.97784021913467 0 6.0895373111624185 0 0 1 1 0 0 forward_v I I I I #
face $-1 $100 $101 $36 $-1 $102 reversed single #
loop $-1 $-1 $103 $47 #
plane-surface $-1 -19.910172446642115 40.466270447834034 114.92818629404269 -1 0 0 0 0.61566148304635926 0.78801074757464917 forward_v I I I I #
face $-1 $104 $105 $37 $-1 $106 forward single #
loop $-1 $107 $108 $48 #
cone-surface $-1 -29.511124454963412 26.814421557217035 5.0653911132068545 0 -0.61566148304635926 -0.78801074757464917 0.5 0 0 1 I I 0 1 0.5 forward I I I I #
face $-1 $109 $110 $38 $-1 $111 forward single #
loop $-1 $112 $113 $49 #
cone-surface $-1 -25.910767451842926 26.814421557217035 5.0653911132068545 0 -0.61566148304635926 -0.78801074757464917 0.5 0 0 1 I I 0 1 0.5 forward I I I I #
face $-1 $114 $115 $39 $-1 $116 forward single #
loop $-1 $117 $118 $50 #
cone-surface $-1 -22.31041044872244 26.814421557217035 5.0653911132068545 0 -0.61566148304635926 -0.78801074757464917 0.5 0 0 1 I I 0 1 0.5 forward I I I I #
face $-1 $119 $120 $40 $-1 $121 reversed single #
loop $-1 $-1 $122 $51 #
plane-surface $-1 -1.1898172189285496 -80.794041108470097 83.514489549604434 -1 0 0 0 -0.52991927123019833 0.84804809178421925 forward_v I I I I #
face $-1 $123 $124 $41 $-1 $125 forward single #
loop $-1 $126 $127 $52 #
cone-surface $-1 -16.167459922155064 -26.381488983998182 5.1326270718346789 0 0.52991927123019833 -0.84804809178421925 1.5 0 0 1 I I 0 1 1.5 forward I I I I #
face $-1 $128 $129 $42 $-1 $130 forward single #
loop $-1 $131 $132 $53 #
cone-surface $-1 -10.550843908445124 -26.381488983998182 5.1326270718346789 0 0.52991927123019833 -0.84804809178421925 1.5 0 0 1 I I 0 1 1.5 forward I I I I #
face $-1 $133 $134 $43 $-1 $135 forward single #
loop $-1 $136 $137 $54 #
cone-surface $-1 -4.9342278947351801 -26.381488983998182 5.1326270718346789 0 0.52991927123019833 -0.84804809178421925 1.5 0 0 1 I I 0 1 1.5 forward I I I I #
face $-1 $138 $139 $33 $-1 $140 reversed single #
loop $-1 $-1 $141 $55 #
plane-surface $-1 0 0 -8.2767797242120036 0 0 1 1 0 0 forward_v I I I I #
coedge $-1 $142 $143 $144 $145 forward $56 $-1 #
face $-1 $146 $147 $34 $-1 $148 reversed single #
loop $-1 $-1 $149 $58 #
plane-surface $-1 -43.597902005249473 -17.131851434306302 0 0 -1 0 0 0 -1 forward_v I I I I #
coedge $-1 $150 $151 $152 $153 reversed $59 $-1 #
face $-1 $154 $155 $35 $-1 $156 reversed single #
loop $-1 $-1 $157 $61 #
plane-surface $-1 43.97784021913467 0 2.6238836604732025 0 0 1 1 0 0 forward_v I I I I #
coedge $-1 $158 $159 $160 $161 reversed $62 $-1 #
face $-1 $162 $163 $36 $-1 $164 reversed single #
loop $-1 $-1 $165 $64 #
plane-surface $-1 -25.910767451842926 -17.700183385461571 40.478521939304812 0 0.61566148304635926 0.78801074757464917 1 0 0 forward_v I I I I #
coedge $-1 $166 $167 $168 $169 reversed $65 $-1 #
face $-1 $-1 $170 $37 $-1 $171 forward single #
loop $-1 $172 $173 $67 #
cone-surface $-1 -29.511124454963412 26.352675444932267 4.4743830525258677 0 -0.61566148304635926 -0.78801074757464917 0.25 0 0 1 I I -0.70710678118654746 0.70710678118654746 0.25 forward I I I I #
loop $-1 $-1 $174 $48 #
coedge $-1 $108 $108 $175 $176 reversed $68 $-1 #
face $-1 $-1 $177 $38 $-1 $178 forward single #
loop $-1 $179 $180 $70 #
cone-surface $-1 -25.910767451842926 26.352675444932267 4.4743830525258677 0 -0.61566148304635926 -0.78801074757464917 0.25 0 0 1 I I -0.70710678118654746 0.70710678118654746 0.25 forward I I I I #
loop $-1 $-1 $181 $49 #
coedge $-1 $113 $113 $182 $183 reversed $71 $-1 #
face $-1 $-1 $184 $39 $-1 $185 forward single #
loop $-1 $186 $187 $73 #
cone-surface $-1 -22.31041044872244 26.352675444932267 4.4743830525258677 0 -0.61566148304635926 -0.78801074757464917 0.25 0 0 1 I I -0.70710678118654746 0.70710678118654746 0.25 forward I I I I #
loop $-1 $-1 $188 $50 #
coedge $-1 $118 $118 $189 $190 reversed $74 $-1 #
face $-1 $191 $192 $40 $-1 $193 reversed single #
loop $-1 $-1 $194 $76 #
plane-surface $-1 -10.550843908445124 -30.728338325072201 3.392618135623465 0 -0.52991927123019833 0.84804809178421925 1 0 0 forward_v I I I I #
coedge $-1 $195 $196 $197 $198 reversed $77 $-1 #
face $-1 $-1 $199 $41 $-1 $200 forward single #
loop $-1 $201 $202 $79 #
cone-surface $-1 -16.167459922155064 -25.545346335567025 3.7945191449134565 0 0.52991927123019833 -0.84804809178421925 0.75 0 0 1 I I -0.70710678118654757 0.70710678118654757 0.75 forward I I I I #
loop $-1 $-1 $203 $52 #
coedge $-1 $127 $127 $204 $205 reversed $80 $-1 #
face $-1 $-1 $206 $42 $-1 $207 forward single #
loop $-1 $208 $209 $82 #
cone-surface $-1 -10.550843908445124 -25.545346335567025 3.7945191449134565 0 0.52991927123019833 -0.84804809178421925 0.75 0 0 1 I I -0.70710678118654757 0.70710678118654757 0.75 forward I I I I #
loop $-1 $-1 $210 $53 #
coedge $-1 $132 $132 $211 $212 reversed $83 $-1 #
face $-1 $-1 $213 $43 $-1 $214 forward single #
loop $-1 $215 $216 $85 #
cone-surface $-1 -4.9342278947351801 -25.545346335567025 3.7945191449134565 0 0.52991927123019833 -0.84804809178421925 0.75 0 0 1 I I -0.70710678118654757 0.70710678118654757 0.75 forward I I I I #
loop $-1 $-1 $217 $54 #
coedge $-1 $137 $137 $218 $219 reversed $86 $-1 #
face $-1 $220 $221 $33 $-1 $222 reversed single #
loop $-1 $-1 $223 $88 #
plane-surface $-1 0 -30.728338325072201 0 0 1 0 0 0 1 forward_v I I I I #
coedge $-1 $224 $225 $226 $227 forward $89 $-1 #
coedge $-1 $228 $91 $229 $230 forward $56 $-1 #
coedge $-1 $91 $228 $231 $232 forward $56 $-1 #
coedge $-1 $233 $234 $91 $145 reversed $235 $-1 #
edge $-1 $236 -30.728338325072201 $237 30.728338325072201 $144 $238 forward 7 unknown #
face $-1 $239 $240 $34 $-1 $241 reversed single #
loop $-1 $-1 $242 $92 #
plane-surface $-1 -39.956813562792412 -18.631851434306302 0 -1 0 0 0 0 1 forward_v I I I I #
coedge $-1 $243 $244 $245 $246 forward $93 $-1 #
coedge $-1 $247 $95 $248 $249 reversed $59 $-1 #
coedge $-1 $95 $247 $250 $251 reversed $59 $-1 #
coedge $-1 $252 $253 $95 $153 forward $254 $-1 #
edge $-1 $255 -8.2767797242120036 $256 8.2767797242120036 $152 $257 forward 7 unknown #
face $-1 $258 $259 $35 $-1 $260 reversed single #
loop $-1 $-1 $261 $96 #
plane-surface $-1 40.716689990562806 0 4.3567104858178105 1 0 0 0 0 -1 forward_v I I I I #
coedge $-1 $262 $263 $264 $265 reversed $97 $-1 #
coedge $-1 $266 $99 $267 $268 reversed $62 $-1 #
coedge $-1 $99 $266 $269 $270 reversed $62 $-1 #
coedge $-1 $271 $272 $99 $161 forward $259 $-1 #
edge $-1 $273 -30.728338325072201 $274 30.728338325072201 $160 $275 forward 7 unknown #
face $-1 $276 $277 $36 $-1 $278 reversed single #
loop $-1 $-1 $279 $100 #
plane-surface $-1 -31.911362457043737 40.466270447834034 114.92818629404269 1 0 0 0 -0.61566148304635926 -0.78801074757464917 forward_v I I I I #
coedge $-1 $280 $281 $282 $283 reversed $101 $-1 #
coedge $-1 $167 $103 $284 $285 reversed $65 $-1 #
coedge $-1 $103 $166 $280 $286 reversed $65 $-1 #
coedge $-1 $282 $287 $103 $169 forward $277 $-1 #
edge $-1 $288 49.187313422809339 $289 54.82207989724499 $168 $290 forward 7 unknown #
loop $-1 $-1 $175 $104 #
plane-surface $-1 -25.910767451842926 -17.700183385461571 40.478521939304812 0 0.61566148304635926 0.78801074757464917 1 0 0 forward_v I I I I #
loop $-1 $-1 $291 $67 #
coedge $-1 $173 $173 $174 $292 reversed $105 $-1 #
coedge $-1 $174 $174 $173 $292 forward $107 $-1 #
coedge $-1 $175 $175 $108 $176 forward $170 $-1 #
edge $-1 $293 0 $293 6.2831853071796004 $175 $294 forward 7 unknown #
loop $-1 $-1 $182 $109 #
plane-surface $-1 -25.910767451842926 -17.700183385461571 40.478521939304812 0 0.61566148304635926 0.78801074757464917 1 0 0 forward_v I I I I #
loop $-1 $-1 $295 $70 #
coedge $-1 $180 $180 $181 $296 reversed $110 $-1 #
coedge $-1 $181 $181 $180 $296 forward $112 $-1 #
coedge $-1 $182 $182 $113 $183 forward $177 $-1 #
edge $-1 $297 0 $297 6.2831853071796004 $182 $298 forward 7 unknown #
loop $-1 $-1 $189 $114 #
plane-surface $-1 -25.910767451842926 -17.700183385461571 40.478521939304812 0 0.61566148304635926 0.78801074757464917 1 0 0 forward_v I I I I #
loop $-1 $-1 $299 $73 #
coedge $-1 $187 $187 $188 $300 reversed $115 $-1 #
coedge $-1 $188 $188 $187 $300 forward $117 $-1 #
coedge $-1 $189 $189 $118 $190 forward $184 $-1 #
edge $-1 $301 0 $301 6.2831853071796004 $189 $302 forward 7 unknown #
face $-1 $303 $304 $40 $-1 $305 reversed single #
loop $-1 $-1 $306 $119 #
plane-surface $-1 -19.911870597961698 -80.794041108470097 83.514489549604434 1 0 0 0 0.52991927123019833 -0.84804809178421925 forward_v I I I I #
coedge $-1 $307 $308 $309 $310 reversed $120 $-1 #
coedge $-1 $196 $122 $311 $312 reversed $77 $-1 #
coedge $-1 $122 $195 $307 $313 reversed $77 $-1 #
coedge $-1 $309 $314 $122 $198 forward $315 $-1 #
edge $-1 $316 9.6686822291628474 $317 17.484974521293875 $197 $318 forward 7 unknown #
loop $-1 $-1 $204 $123 #
plane-surface $-1 -10.550843908445124 -30.728338325072201 3.392618135623465 0 -0.52991927123019833 0.84804809178421925 1 0 0 forward_v I I I I #
loop $-1 $-1 $319 $79 #
coedge $-1 $202 $202 $203 $320 reversed $124 $-1 #
coedge $-1 $203 $203 $202 $320 forward $126 $-1 #
coedge $-1 $204 $204 $127 $205 forward $199 $-1 #
edge $-1 $321 9.4132572177975918e-016 $321 6.2831853071796013 $204 $322 forward 7 unknown #
loop $-1 $-1 $211 $128 #
plane-surface $-1 -10.550843908445124 -30.728338325072201 3.392618135623465 0 -0.52991927123019833 0.84804809178421925 1 0 0 forward_v I I I I #
loop $-1 $-1 $323 $82 #
coedge $-1 $209 $209 $210 $324 reversed $129 $-1 #
coedge $-1 $210 $210 $209 $324 forward $131 $-1 #
coedge $-1 $211 $211 $132 $212 forward $206 $-1 #
edge $-1 $325 9.4132572177975918e-016 $325 6.2831853071796013 $211 $326 forward 7 unknown #
loop $-1 $-1 $218 $133 #
plane-surface $-1 -10.550843908445124 -30.728338325072201 3.392618135623465 0 -0.52991927123019833 0.84804809178421925 1 0 0 forward_v I I I I #
loop $-1 $-1 $327 $85 #
coedge $-1 $216 $216 $217 $328 reversed $134 $-1 #
coedge $-1 $217 $217 $216 $328 forward $136 $-1 #
coedge $-1 $218 $218 $137 $219 forward $213 $-1 #
edge $-1 $329 9.4132572177975918e-016 $329 6.2831853071796013 $218 $330 forward 7 unknown #
face $-1 $331 $332 $33 $-1 $333 reversed single #
loop $-1 $-1 $334 $138 #
plane-surface $-1 -47.238990447706534 0 0 1 0 0 0 0 -1 forward_v I I I I #
coedge $-1 $335 $231 $336 $337 forward $139 $-1 #
coedge $-1 $338 $141 $335 $339 forward $89 $-1 #
coedge $-1 $141 $338 $340 $341 forward $89 $-1 #
coedge $-1 $234 $233 $141 $227 reversed $235 $-1 #
edge $-1 $342 -30.728338325072201 $343 30.728338325072201 $226 $344 forward 7 unknown #
coedge $-1 $143 $142 $345 $346 forward $56 $-1 #
coedge $-1 $347 $348 $142 $230 reversed $332 $-1 #
edge $-1 $237 -47.238990447706534 $349 47.238990447706534 $229 $350 forward 7 unknown #
coedge $-1 $223 $351 $143 $232 reversed $139 $-1 #
edge $-1 $352 -47.238990447706534 $236 47.238990447706534 $231 $353 forward 7 unknown #
coedge $-1 $226 $144 $351 $354 forward $235 $-1 #
coedge $-1 $144 $226 $347 $355 reversed $235 $-1 #
loop $-1 $-1 $233 $331 #
vertex $-1 $145 $356 #
vertex $-1 $145 $357 #
straight-curve $-1 47.238990447706534 0 8.2767797242120036 0 1 0 I I #
face $-1 $358 $359 $34 $-1 $360 forward single #
loop $-1 $-1 $361 $146 #
plane-surface $-1 0 0 -8.2767797242120036 0 0 1 1 0 0 forward_v I I I I #
coedge $-1 $362 $363 $247 $364 forward $147 $-1 #
coedge $-1 $365 $149 $361 $366 reversed $93 $-1 #
coedge $-1 $149 $365 $367 $368 reversed $93 $-1 #
coedge $-1 $363 $362 $149 $246 reversed $147 $-1 #
edge $-1 $369 -8.2767797242120036 $370 8.2767797242120036 $245 $371 forward 7 unknown #
coedge $-1 $151 $150 $242 $364 reversed $59 $-1 #
coedge $-1 $372 $373 $150 $249 forward $240 $-1 #
edge $-1 $374 18.157862560167676 $255 25.440039445081798 $248 $375 forward 7 unknown #
coedge $-1 $376 $377 $151 $251 forward $359 $-1 #
edge $-1 $256 -25.440039445081798 $378 -18.157862560167676 $250 $379 forward 7 unknown #
coedge $-1 $380 $152 $377 $381 reversed $254 $-1 #
coedge $-1 $152 $380 $372 $382 reversed $254 $-1 #
loop $-1 $-1 $380 $358 #
vertex $-1 $382 $383 #
vertex $-1 $153 $384 #
straight-curve $-1 -47.238990447706534 -20.131851434306302 0 0 0 1 I I #
face $-1 $385 $386 $35 $-1 $387 reversed single #
loop $-1 $-1 $264 $154 #
plane-surface $-1 47.238990447706534 0 0 -1 0 0 0 0 1 forward_v I I I I #
coedge $-1 $388 $389 $390 $391 reversed $155 $-1 #
coedge $-1 $392 $157 $393 $394 reversed $97 $-1 #
coedge $-1 $157 $392 $395 $396 reversed $97 $-1 #
coedge $-1 $272 $271 $157 $265 forward $259 $-1 #
edge $-1 $397 -30.728338325072201 $398 30.728338325072201 $264 $399 forward 7 unknown #
coedge $-1 $159 $158 $389 $400 forward $62 $-1 #
coedge $-1 $401 $390 $158 $268 forward $386 $-1 #
edge $-1 $402 18.727769880995471 $273 25.250070338139199 $267 $403 forward 7 unknown #
coedge $-1 $404 $405 $159 $270 forward $406 $-1 #
edge $-1 $274 -25.250070338139199 $407 -18.727769880995471 $269 $408 forward 7 unknown #
coedge $-1 $264 $160 $405 $409 forward $259 $-1 #
coedge $-1 $160 $264 $401 $410 reversed $259 $-1 #
vertex $-1 $410 $411 #
vertex $-1 $409 $412 #
straight-curve $-1 47.238990447706534 0 6.0895373111624185 0 -1 0 I I #
face $-1 $-1 $413 $36 $-1 $414 forward single #
loop $-1 $-1 $168 $162 #
plane-surface $-1 0 30.728338325072201 0 0 -1 0 0 0 -1 forward_v I I I I #
coedge $-1 $415 $416 $417 $418 reversed $163 $-1 #
coedge $-1 $419 $165 $167 $286 forward $101 $-1 #
coedge $-1 $165 $419 $415 $420 forward $101 $-1 #
coedge $-1 $417 $168 $165 $283 forward $277 $-1 #
edge $-1 $289 6.9547887207206518 $421 18.955978731122272 $282 $422 forward 7 unknown #
coedge $-1 $423 $424 $166 $285 forward $413 $-1 #
edge $-1 $425 3.2830310484912104 $288 10.495203101155184 $284 $426 forward 7 unknown #
edge $-1 $289 -61.456676650144388 $425 -52.304298875016713 $167 $427 forward 7 unknown #
coedge $-1 $168 $417 $423 $428 reversed $277 $-1 #
vertex $-1 $428 $429 #
vertex $-1 $169 $430 #
straight-curve $-1 -19.910172446642115 30.728338325072201 57.464093147021345 0 0 -1 I I #
coedge $-1 $291 $291 $-1 $431 reversed $172 $-1 #
edge $-1 $432 0 $432 6.2831853071796004 $173 $433 forward 7 unknown #
vertex $-1 $176 $434 #
ellipse-curve $-1 -29.511124454963412 27.122252298740214 5.4593964869941791 0 0.61566148304635926 0.78801074757464917 0.5 0 0 1 I I #
coedge $-1 $295 $295 $-1 $435 reversed $179 $-1 #
edge $-1 $436 0 $436 6.2831853071796004 $180 $437 forward 7 unknown #
vertex $-1 $183 $438 #
ellipse-curve $-1 -25.910767451842926 27.122252298740214 5.4593964869941791 0 0.61566148304635926 0.78801074757464917 0.5 0 0 1 I I #
coedge $-1 $299 $299 $-1 $439 reversed $186 $-1 #
edge $-1 $440 0 $440 6.2831853071796004 $187 $441 forward 7 unknown #
vertex $-1 $190 $442 #
ellipse-curve $-1 -22.31041044872244 27.122252298740214 5.4593964869941791 0 0.61566148304635926 0.78801074757464917 0.5 0 0 1 I I #
face $-1 $-1 $315 $40 $-1 $443 forward single #
loop $-1 $-1 $444 $191 #
plane-surface $-1 0 -30.728338325072201 0 0 1 0 0 0 1 forward_v I I I I #
coedge $-1 $445 $446 $447 $448 reversed $192 $-1 #
coedge $-1 $449 $194 $196 $313 forward $120 $-1 #
coedge $-1 $194 $449 $445 $450 forward $120 $-1 #
coedge $-1 $447 $197 $194 $310 forward $315 $-1 #
edge $-1 $317 -4.0856047352940124 $451 14.636448643739136 $309 $452 forward 7 unknown #
coedge $-1 $453 $454 $195 $312 forward $304 $-1 #
edge $-1 $455 -38.364626639178752 $316 -33.480465050590212 $311 $456 forward 7 unknown #
edge $-1 $317 -9.2168031127647865 $455 0 $196 $457 forward 7 unknown #
coedge $-1 $197 $447 $453 $458 forward $315 $-1 #
loop $-1 $-1 $447 $303 #
vertex $-1 $312 $459 #
vertex $-1 $198 $460 #
straight-curve $-1 -1.1898172189285496 -40.397020554235048 8.2767797242120054 0 1 0 I I #
coedge $-1 $319 $319 $-1 $461 reversed $201 $-1 #
edge $-1 $462 0 $462 6.2831853071796004 $202 $463 forward 7 unknown #
vertex $-1 $205 $464 #
ellipse-curve $-1 -16.167459922155064 -26.820192179006689 5.8346989299177343 0 -0.52991927123019833 0.84804809178421925 1.5 0 0 1 I I #
coedge $-1 $323 $323 $-1 $465 reversed $208 $-1 #
edge $-1 $466 0 $466 6.2831853071796004 $209 $467 forward 7 unknown #
vertex $-1 $212 $468 #
ellipse-curve $-1 -10.550843908445124 -26.820192179006689 5.8346989299177343 0 -0.52991927123019833 0.84804809178421925 1.5 0 0 1 I I #
coedge $-1 $327 $327 $-1 $469 reversed $215 $-1 #
edge $-1 $470 0 $470 6.2831853071796004 $216 $471 forward 7 unknown #
vertex $-1 $219 $472 #
ellipse-curve $-1 -4.9342278947351801 -26.820192179006689 5.8346989299177343 0 -0.52991927123019833 0.84804809178421925 1.5 0 0 1 I I #
face $-1 $-1 $235 $33 $-1 $473 reversed single #
loop $-1 $-1 $347 $220 #
plane-surface $-1 0 30.728338325072201 0 0 -1 0 0 0 -1 forward_v I I I I #
coedge $-1 $474 $345 $348 $475 forward $221 $-1 #
coedge $-1 $351 $223 $224 $339 reversed $139 $-1 #
coedge $-1 $345 $474 $223 $337 reversed $221 $-1 #
edge $-1 $352 -8.2767797242120036 $476 8.2767797242120036 $336 $477 forward 7 unknown #
coedge $-1 $225 $224 $474 $478 forward $89 $-1 #
edge $-1 $343 -47.238990447706534 $476 47.238990447706534 $335 $479 forward 7 unknown #
coedge $-1 $348 $347 $225 $341 reversed $332 $-1 #
edge $-1 $480 -47.238990447706534 $342 47.238990447706534 $340 $481 forward 7 unknown #
vertex $-1 $227 $482 #
vertex $-1 $354 $483 #
straight-curve $-1 47.238990447706534 0 -8.2767797242120036 0 -1 0 I I #
coedge $-1 $334 $336 $228 $346 reversed $221 $-1 #
edge $-1 $349 -30.728338325072201 $352 30.728338325072201 $345 $484 forward 7 unknown #
coedge $-1 $340 $229 $234 $355 forward $332 $-1 #
coedge $-1 $229 $340 $334 $475 reversed $332 $-1 #
vertex $-1 $230 $485 #
straight-curve $-1 0 30.728338325072201 8.2767797242120036 -1 0 0 I I #
coedge $-1 $231 $335 $233 $354 reversed $139 $-1 #
vertex $-1 $346 $486 #
straight-curve $-1 0 -30.728338325072201 8.2767797242120036 1 0 0 I I #
edge $-1 $236 -8.2767797242120036 $343 8.2767797242120036 $233 $487 forward 7 unknown #
edge $-1 $237 -8.2767797242120036 $342 8.2767797242120036 $234 $488 forward 7 unknown #
point $-1 47.238990447706534 -30.728338325072201 8.2767797242120036 #
point $-1 47.238990447706534 30.728338325072201 8.2767797242120036 #
face $-1 $-1 $254 $34 $-1 $489 reversed single #
loop $-1 $-1 $367 $239 #
plane-surface $-1 0 0 8.2767797242120036 0 0 1 1 0 0 forward_v I I I I #
coedge $-1 $373 $372 $243 $366 forward $240 $-1 #
coedge $-1 $245 $242 $373 $490 reversed $147 $-1 #
coedge $-1 $242 $245 $376 $491 reversed $147 $-1 #
edge $-1 $378 -8.2767797242120036 $374 8.2767797242120036 $242 $492 forward 7 unknown #
coedge $-1 $244 $243 $380 $493 reversed $93 $-1 #
edge $-1 $494 -25.440039445081798 $370 -18.157862560167676 $361 $495 forward 7 unknown #
coedge $-1 $377 $376 $244 $368 forward $359 $-1 #
edge $-1 $369 18.157862560167676 $496 25.440039445081798 $367 $497 forward 7 unknown #
vertex $-1 $368 $498 #
vertex $-1 $366 $499 #
straight-curve $-1 -39.956813562792412 -17.131851434306302 0 0 0 -1 I I #
coedge $-1 $361 $248 $253 $382 forward $240 $-1 #
coedge $-1 $248 $361 $362 $490 forward $240 $-1 #
vertex $-1 $249 $500 #
straight-curve $-1 -21.798951002624737 -20.131851434306302 -8.2767797242120036 -1 0 0 I I #
coedge $-1 $367 $250 $363 $491 forward $359 $-1 #
coedge $-1 $250 $367 $252 $381 forward $359 $-1 #
vertex $-1 $251 $501 #
straight-curve $-1 -21.798951002624737 -20.131851434306302 8.2767797242120036 1 0 0 I I #
coedge $-1 $253 $252 $365 $493 forward $254 $-1 #
edge $-1 $496 17.131851434306302 $256 20.131851434306302 $252 $502 forward 7 unknown #
edge $-1 $255 -20.131851434306302 $494 -17.131851434306302 $253 $503 forward 7 unknown #
point $-1 -47.238990447706534 -20.131851434306302 -8.2767797242120036 #
point $-1 -47.238990447706534 -20.131851434306302 8.2767797242120036 #
face $-1 $-1 $406 $35 $-1 $504 reversed single #
loop $-1 $-1 $395 $258 #
plane-surface $-1 0 30.728338325072201 0 0 -1 0 0 0 -1 forward_v I I I I #
coedge $-1 $505 $261 $392 $506 reversed $155 $-1 #
coedge $-1 $261 $505 $266 $400 reversed $155 $-1 #
coedge $-1 $267 $395 $261 $391 forward $386 $-1 #
edge $-1 $507 0.44552841756429729 $402 3.9111820682535132 $390 $508 forward 7 unknown #
coedge $-1 $263 $262 $388 $506 forward $97 $-1 #
coedge $-1 $405 $404 $262 $394 forward $406 $-1 #
edge $-1 $509 18.727769880995471 $397 25.250070338139199 $393 $510 forward 7 unknown #
coedge $-1 $390 $401 $263 $396 forward $386 $-1 #
edge $-1 $398 -25.250070338139199 $507 -18.727769880995471 $395 $511 forward 7 unknown #
vertex $-1 $265 $512 #
vertex $-1 $265 $513 #
straight-curve $-1 47.238990447706534 0 2.6238836604732025 0 1 0 I I #
edge $-1 $402 -30.728338325072201 $407 30.728338325072201 $389 $514 forward 7 unknown #
coedge $-1 $395 $267 $272 $410 forward $386 $-1 #
vertex $-1 $268 $515 #
straight-curve $-1 21.988920109567335 30.728338325072201 6.0895373111624185 1 0 0 I I #
coedge $-1 $393 $269 $505 $516 forward $406 $-1 #
coedge $-1 $269 $393 $271 $409 reversed $406 $-1 #
loop $-1 $-1 $393 $385 #
vertex $-1 $270 $517 #
straight-curve $-1 21.988920109567335 -30.728338325072201 6.0895373111624185 -1 0 0 I I #
edge $-1 $274 -6.0895373111624185 $397 -2.6238836604732025 $271 $518 forward 7 unknown #
edge $-1 $273 -6.0895373111624185 $398 -2.6238836604732025 $272 $519 forward 7 unknown #
point $-1 47.238990447706534 30.728338325072201 6.0895373111624185 #
point $-1 47.238990447706534 -30.728338325072201 6.0895373111624185 #
loop $-1 $-1 $284 $276 #
plane-surface $-1 0 0 8.2767797242120036 0 0 1 1 0 0 forward_v I I I I #
coedge $-1 $416 $279 $281 $420 reversed $163 $-1 #
coedge $-1 $279 $415 $520 $521 reversed $163 $-1 #
coedge $-1 $287 $282 $279 $418 forward $277 $-1 #
edge $-1 $421 -54.82207989724499 $522 -49.187313422809339 $417 $523 forward 7 unknown #
coedge $-1 $281 $280 $424 $524 reversed $101 $-1 #
edge $-1 $525 52.304298875016713 $421 61.456676650144388 $415 $526 forward 7 unknown #
vertex $-1 $283 $527 #
straight-curve $-1 -12.955383725921463 30.728338325072201 2.6420132497763547 -1 0 0 I I #
coedge $-1 $520 $284 $287 $428 forward $413 $-1 #
coedge $-1 $284 $520 $419 $524 forward $413 $-1 #
vertex $-1 $285 $528 #
straight-curve $-1 -19.910172446642115 20.233135223917017 8.2767797242120054 0 1 0 I I #
straight-curve $-1 -19.910172446642115 -17.700183385461571 40.478521939304812 0 -0.78801074757464917 0.61566148304635926 I I #
edge $-1 $288 19.910172446642115 $522 31.911362457043737 $287 $529 forward 7 unknown #
point $-1 -19.910172446642115 30.728338325072201 8.2767797242120036 #
point $-1 -19.910172446642115 30.728338325072201 2.6420132497763547 #
edge $-1 $530 1 $530 0 $291 $-1 forward 7 unknown #
vertex $-1 $292 $531 #
ellipse-curve $-1 -29.511124454963412 26.506590815693855 4.6713857394195299 0 0.61566148304635926 0.78801074757464917 0.5 0 0 1 I I #
point $-1 -29.011124454963412 27.122252298740214 5.4593964869941791 #
edge $-1 $532 1 $532 0 $295 $-1 forward 7 unknown #
vertex $-1 $296 $533 #
ellipse-curve $-1 -25.910767451842926 26.506590815693855 4.6713857394195299 0 0.61566148304635926 0.78801074757464917 0.5 0 0 1 I I #
point $-1 -25.410767451842926 27.122252298740214 5.4593964869941791 #
edge $-1 $534 1 $534 0 $299 $-1 forward 7 unknown #
vertex $-1 $300 $535 #
ellipse-curve $-1 -22.31041044872244 26.506590815693855 4.6713857394195299 0 0.61566148304635926 0.78801074757464917 0.5 0 0 1 I I #
point $-1 -21.81041044872244 27.122252298740214 5.4593964869941791 #
plane-surface $-1 0 0 8.2767797242120036 0 0 1 1 0 0 forward_v I I I I #
coedge $-1 $454 $453 $446 $536 forward $304 $-1 #
coedge $-1 $446 $306 $308 $450 reversed $192 $-1 #
coedge $-1 $306 $445 $444 $536 reversed $192 $-1 #
coedge $-1 $314 $309 $306 $448 forward $315 $-1 #
edge $-1 $451 -17.484974521293875 $537 -9.6686822291628474 $447 $538 forward 7 unknown #
coedge $-1 $308 $307 $454 $539 reversed $120 $-1 #
edge $-1 $540 0 $451 9.2168031127647865 $445 $541 forward 7 unknown #
vertex $-1 $310 $542 #
straight-curve $-1 -5.275421954222562 -22.912046032941173 8.2767797242120036 -1 0 0 I I #
coedge $-1 $444 $311 $314 $458 reversed $304 $-1 #
coedge $-1 $311 $444 $449 $539 forward $304 $-1 #
vertex $-1 $312 $543 #
straight-curve $-1 -1.1898172189285496 -30.728338325072201 41.757244774802217 0 0 1 I I #
straight-curve $-1 -1.1898172189285496 -30.728338325072201 3.392618135623465 0 -0.84804809178421925 -0.52991927123019833 I I #
edge $-1 $537 -19.911870597961698 $316 -1.1898172189285496 $453 $544 forward 7 unknown #
point $-1 -1.1898172189285496 -30.728338325072201 8.2767797242120036 #
point $-1 -1.1898172189285496 -22.912046032941173 8.2767797242120036 #
edge $-1 $545 1 $545 0 $319 $-1 forward 7 unknown #
vertex $-1 $320 $546 #
ellipse-curve $-1 -16.167459922155064 -25.942785788989674 4.4305552137516209 0 -0.52991927123019833 0.84804809178421925 1.5 0 0 1 I I #
point $-1 -14.667459922155064 -26.820192179006689 5.834698929917737 #
edge $-1 $547 1 $547 0 $323 $-1 forward 7 unknown #
vertex $-1 $324 $548 #
ellipse-curve $-1 -10.550843908445124 -25.942785788989674 4.4305552137516209 0 -0.52991927123019833 0.84804809178421925 1.5 0 0 1 I I #
point $-1 -9.050843908445124 -26.820192179006689 5.834698929917737 #
edge $-1 $549 1 $549 0 $327 $-1 forward 7 unknown #
vertex $-1 $328 $550 #
ellipse-curve $-1 -4.9342278947351801 -25.942785788989674 4.4305552137516209 0 -0.52991927123019833 0.84804809178421925 1.5 0 0 1 I I #
point $-1 -3.4342278947351801 -26.820192179006689 5.834698929917737 #
plane-surface $-1 47.238990447706534 0 0 -1 0 0 0 0 1 forward_v I I I I #
coedge $-1 $336 $334 $338 $478 reversed $221 $-1 #
edge $-1 $349 -8.2767797242120036 $480 8.2767797242120036 $348 $551 forward 7 unknown #
vertex $-1 $478 $552 #
straight-curve $-1 -47.238990447706534 -30.728338325072201 0 0 0 -1 I I #
edge $-1 $476 -30.728338325072201 $480 30.728338325072201 $474 $553 forward 7 unknown #
straight-curve $-1 0 -30.728338325072201 -8.2767797242120036 -1 0 0 I I #
vertex $-1 $341 $554 #
straight-curve $-1 0 30.728338325072201 -8.2767797242120036 1 0 0 I I #
point $-1 47.238990447706534 30.728338325072201 -8.2767797242120036 #
point $-1 47.238990447706534 -30.728338325072201 -8.2767797242120036 #
straight-curve $-1 -47.238990447706534 0 8.2767797242120036 0 -1 0 I I #
point $-1 -47.238990447706534 30.728338325072201 8.2767797242120036 #
point $-1 -47.238990447706534 -30.728338325072201 8.2767797242120036 #
straight-curve $-1 47.238990447706534 -30.728338325072201 0 0 0 -1 I I #
straight-curve $-1 47.238990447706534 30.728338325072201 0 0 0 -1 I I #
plane-surface $-1 -47.238990447706534 0 0 1 0 0 0 0 -1 forward_v I I I I #
edge $-1 $370 7.8159257171531511 $374 10.815925717153151 $373 $555 forward 7 unknown #
edge $-1 $378 -10.815925717153151 $369 -7.8159257171531511 $376 $556 forward 7 unknown #
straight-curve $-1 -39.956813562792412 -20.131851434306302 0 0 0 -1 I I #
edge $-1 $496 -8.2767797242120036 $494 8.2767797242120036 $380 $557 forward 7 unknown #
vertex $-1 $493 $558 #
straight-curve $-1 -21.798951002624737 -17.131851434306302 -8.2767797242120036 1 0 0 I I #
vertex $-1 $381 $559 #
straight-curve $-1 -21.798951002624737 -17.131851434306302 8.2767797242120036 -1 0 0 I I #
point $-1 -39.956813562792412 -17.131851434306302 8.2767797242120036 #
point $-1 -39.956813562792412 -17.131851434306302 -8.2767797242120036 #
point $-1 -39.956813562792412 -20.131851434306302 -8.2767797242120036 #
point $-1 -39.956813562792412 -20.131851434306302 8.2767797242120036 #
straight-curve $-1 -47.238990447706534 0 8.2767797242120036 0 -1 0 I I #
straight-curve $-1 -47.238990447706534 0 -8.2767797242120036 0 1 0 I I #
plane-surface $-1 0 -30.728338325072201 0 0 1 0 0 0 1 forward_v I I I I #
coedge $-1 $389 $388 $404 $516 reversed $155 $-1 #
edge $-1 $509 -30.728338325072201 $507 30.728338325072201 $388 $560 forward 7 unknown #
vertex $-1 $396 $561 #
straight-curve $-1 40.716689990562806 30.728338325072201 2.1783552429089053 0 0 1 I I #
vertex $-1 $394 $562 #
straight-curve $-1 21.988920109567335 -30.728338325072201 2.6238836604732025 1 0 0 I I #
straight-curve $-1 21.988920109567335 30.728338325072201 2.6238836604732025 -1 0 0 I I #
point $-1 47.238990447706534 -30.728338325072201 2.6238836604732025 #
point $-1 47.238990447706534 30.728338325072201 2.6238836604732025 #
straight-curve $-1 40.716689990562806 0 6.0895373111624185 0 -1 0 I I #
point $-1 40.716689990562806 30.728338325072201 6.0895373111624185 #
edge $-1 $407 -3.9111820682535132 $509 -0.44552841756429729 $404 $563 forward 7 unknown #
point $-1 40.716689990562806 -30.728338325072201 6.0895373111624185 #
straight-curve $-1 47.238990447706534 -30.728338325072201 0 0 0 -1 I I #
straight-curve $-1 47.238990447706534 30.728338325072201 0 0 0 -1 I I #
coedge $-1 $424 $423 $416 $521 forward $413 $-1 #
edge $-1 $522 -10.495203101155184 $525 -3.2830310484912104 $520 $564 forward 7 unknown #
vertex $-1 $521 $565 #
straight-curve $-1 -31.911362457043737 30.728338325072201 57.464093147021345 0 0 1 I I #
edge $-1 $525 -18.955978731122272 $425 -6.9547887207206518 $424 $566 forward 7 unknown #
vertex $-1 $524 $567 #
straight-curve $-1 -31.911362457043737 -17.700183385461571 40.478521939304812 0 0.78801074757464917 -0.61566148304635926 I I #
point $-1 -31.911362457043737 30.728338325072201 2.6420132497763547 #
point $-1 -19.910172446642115 23.516166272408228 8.2767797242120054 #
straight-curve $-1 0 30.728338325072201 8.2767797242120036 -1 0 0 I I #
vertex $-1 $431 $568 #
point $-1 -29.011124454963412 26.506590815693855 4.6713857394195299 #
vertex $-1 $435 $569 #
point $-1 -25.410767451842926 26.506590815693855 4.6713857394195299 #
vertex $-1 $439 $570 #
point $-1 -21.81041044872244 26.506590815693855 4.6713857394195299 #
edge $-1 $537 33.480465050590212 $540 38.364626639178752 $444 $571 forward 7 unknown #
vertex $-1 $458 $572 #
straight-curve $-1 -19.911870597961698 -40.397020554235048 8.2767797242120054 0 -1 0 I I #
edge $-1 $540 -14.636448643739136 $455 4.0856047352940124 $454 $573 forward 7 unknown #
vertex $-1 $539 $574 #
straight-curve $-1 -19.911870597961698 -30.728338325072201 3.392618135623465 0 0.84804809178421925 0.52991927123019833 I I #
point $-1 -19.911870597961698 -22.912046032941173 8.2767797242120036 #
point $-1 -1.1898172189285496 -30.728338325072201 3.392618135623465 #
straight-curve $-1 0 -30.728338325072201 8.2767797242120036 1 0 0 I I #
vertex $-1 $461 $575 #
point $-1 -14.667459922155064 -25.942785788989674 4.4305552137516209 #
vertex $-1 $465 $576 #
point $-1 -9.050843908445124 -25.942785788989674 4.4305552137516209 #
vertex $-1 $469 $577 #
point $-1 -3.4342278947351801 -25.942785788989674 4.4305552137516209 #
straight-curve $-1 -47.238990447706534 30.728338325072201 0 0 0 -1 I I #
point $-1 -47.238990447706534 -30.728338325072201 -8.2767797242120036 #
straight-curve $-1 -47.238990447706534 0 -8.2767797242120036 0 1 0 I I #
point $-1 -47.238990447706534 30.728338325072201 -8.2767797242120036 #
straight-curve $-1 -39.956813562792412 -9.3159257171531511 -8.2767797242120036 0 -1 0 I I #
straight-curve $-1 -39.956813562792412 -9.3159257171531511 8.2767797242120036 0 1 0 I I #
straight-curve $-1 -47.238990447706534 -17.131851434306302 0 0 0 -1 I I #
point $-1 -47.238990447706534 -17.131851434306302 -8.2767797242120036 #
point $-1 -47.238990447706534 -17.131851434306302 8.2767797242120036 #
straight-curve $-1 40.716689990562806 0 2.6238836604732025 0 1 0 I I #
point $-1 40.716689990562806 30.728338325072201 2.6238836604732025 #
point $-1 40.716689990562806 -30.728338325072201 2.6238836604732025 #
straight-curve $-1 40.716689990562806 -30.728338325072201 2.1783552429089053 0 0 -1 I I #
straight-curve $-1 -31.911362457043737 20.233135223917017 8.2767797242120054 0 -1 0 I I #
point $-1 -31.911362457043737 30.728338325072201 8.2767797242120036 #
straight-curve $-1 -12.955383725921463 23.516166272408231 8.2767797242120018 1 0 0 I I #
point $-1 -31.911362457043737 23.516166272408228 8.2767797242120054 #
point $-1 -29.511124454963412 26.198760074170679 4.2773803656322054 #
point $-1 -25.910767451842926 26.198760074170679 4.2773803656322054 #
point $-1 -22.31041044872244 26.198760074170679 4.2773803656322054 #
straight-curve $-1 -19.911870597961698 -30.728338325072201 41.757244774802217 0 0 -1 I I #
point $-1 -19.911870597961698 -30.728338325072201 8.2767797242120036 #
straight-curve $-1 -5.275421954222562 -30.728338325072201 3.392618135623465 1 0 0 I I #
point $-1 -19.911870597961698 -30.728338325072201 3.392618135623465 #
point $-1 -16.167459922155064 -25.147906882144376 3.1584830760752922 #
point $-1 -10.550843908445124 -25.147906882144376 3.1584830760752922 #
point $-1 -4.9342278947351801 -25.147906882144376 3.1584830760752922 #
End-of-ACIS-data 