500 0 9 0           
7 Unknown 11 ACIS 5.0 NT 24 Fri Mar 26 18:22:37 1999 
-1 9.9999999999999995e-007 1e-010 
body $-1 $9 $-1 $10 #
body $-1 $11 $-1 $12 #
body $-1 $13 $-1 $14 #
body $-1 $15 $-1 $16 #
body $-1 $17 $-1 $18 #
body $-1 $19 $-1 $20 #
body $-1 $21 $-1 $22 #
body $-1 $23 $-1 $24 #
body $-1 $25 $-1 $26 #
lump $-1 $-1 $27 $0 #
transform $-1 1 0 0 0 1 0 0 0 1 48.006836146122623 21.349394705688617 5.0808653478936252 1 rotate no_reflect no_shear #
lump $-1 $-1 $28 $1 #
transform $-1 1 0 0 0 1 0 0 0 1 48.006836146122623 21.349394705688617 5.0808653478936252 1 rotate no_reflect no_shear #
lump $-1 $-1 $29 $2 #
transform $-1 1 0 0 0 1 0 0 0 1 48.006836146122623 21.349394705688617 5.0808653478936252 1 rotate no_reflect no_shear #
lump $-1 $-1 $30 $3 #
transform $-1 1 0 0 0 1 0 0 0 1 48.006836146122623 21.349394705688617 5.0808653478936252 1 rotate no_reflect no_shear #
lump $-1 $-1 $31 $4 #
transform $-1 1 0 0 0 1 0 0 0 1 48.006836146122623 21.349394705688617 5.0808653478936252 1 rotate no_reflect no_shear #
lump $-1 $-1 $32 $5 #
transform $-1 1 0 0 0 1 0 0 0 1 48.006836146122623 21.349394705688617 5.0808653478936252 1 rotate no_reflect no_shear #
lump $-1 $-1 $33 $6 #
transform $-1 1 0 0 0 1 0 0 0 1 48.006836146122623 21.349394705688617 5.0808653478936252 1 rotate no_reflect no_shear #
lump $-1 $-1 $34 $7 #
transform $-1 1 0 0 0 1 0 0 0 1 48.006836146122623 21.349394705688617 5.0808653478936252 1 rotate no_reflect no_shear #
lump $-1 $-1 $35 $8 #
transform $-1 1 0 0 0 1 0 0 0 1 48.006836146122623 21.349394705688617 5.0808653478936252 1 rotate no_reflect no_shear #
shell $-1 $-1 $-1 $36 $-1 $9 #
shell $-1 $-1 $-1 $37 $-1 $11 #
shell $-1 $-1 $-1 $38 $-1 $13 #
shell $-1 $-1 $-1 $39 $-1 $15 #
shell $-1 $-1 $-1 $40 $-1 $17 #
shell $-1 $-1 $-1 $41 $-1 $19 #
shell $-1 $-1 $-1 $42 $-1 $21 #
shell $-1 $-1 $-1 $43 $-1 $23 #
shell $-1 $-1 $-1 $44 $-1 $25 #
face $-1 $45 $46 $27 $-1 $47 forward single #
face $-1 $48 $49 $28 $-1 $50 forward single #
face $-1 $51 $52 $29 $-1 $53 reversed single #
face $-1 $54 $55 $30 $-1 $56 forward single #
face $-1 $57 $58 $31 $-1 $59 forward single #
face $-1 $60 $61 $32 $-1 $62 reversed single #
face $-1 $63 $64 $33 $-1 $65 forward single #
face $-1 $66 $67 $34 $-1 $68 forward single #
face $-1 $69 $70 $35 $-1 $71 forward single #
face $-1 $72 $73 $27 $-1 $74 reversed single #
loop $-1 $-1 $75 $36 #
plane-surface $-1 0 0 5.0808653478936252 0 0 1 1 0 0 forward_v I I I I #
face $-1 $76 $77 $28 $-1 $78 forward single #
loop $-1 $-1 $79 $37 #
plane-surface $-1 -48.006836146122623 0 0 1 0 0 0 0 -1 forward_v I I I I #
face $-1 $80 $81 $29 $-1 $82 reversed single #
loop $-1 $-1 $83 $38 #
plane-surface $-1 -42.34846370567567 73.928369842425241 92.063939461031083 1 0 0 0 -0.80901700255871778 -0.5877852410284794 forward_v I I I I #
face $-1 $84 $85 $30 $-1 $86 forward single #
loop $-1 $87 $88 $39 #
cone-surface $-1 -35.851063251841055 19.401067572357753 2.7219026253627296 0 -0.80901700255871778 -0.5877852410284794 0.5 0 0 1 I I 0 1 0.5 forward I I I I #
face $-1 $89 $90 $31 $-1 $91 forward single #
loop $-1 $92 $93 $40 #
cone-surface $-1 -26.104962571089139 19.401067572357753 2.7219026253627296 0 -0.80901700255871778 -0.5877852410284794 0.5 0 0 1 I I 0 1 0.5 forward I I I I #
face $-1 $94 $95 $32 $-1 $96 reversed single #
loop $-1 $-1 $97 $41 #
plane-surface $-1 15.378747190458469 -90.415851353221626 67.492797854353157 -1 0 0 0 -0.71933980857756763 0.69465836192734942 forward_v I I I I #
face $-1 $98 $99 $33 $-1 $100 forward single #
loop $-1 $101 $102 $42 #
cone-surface $-1 2.7314869693739681 -18.042084969015185 1.7425399513408568 0 0.71933980857756763 -0.69465836192734942 1 0 0 1 I I 0 1 1 forward I I I I #
face $-1 $103 $104 $34 $-1 $105 forward single #
loop $-1 $106 $107 $43 #
cone-surface $-1 7.4742095522806551 -18.042084969015185 1.7425399513408568 0 0.71933980857756763 -0.69465836192734942 1 0 0 1 I I 0 1 1 forward I I I I #
face $-1 $108 $109 $35 $-1 $110 forward single #
loop $-1 $111 $112 $44 #
cone-surface $-1 12.216932135187342 -18.042084969015185 1.7425399513408568 0 0.71933980857756763 -0.69465836192734942 1 0 0 1 I I 0 1 1 forward I I I I #
face $-1 $113 $114 $27 $-1 $115 reversed single #
loop $-1 $-1 $116 $45 #
plane-surface $-1 0 0 -5.0808653478936252 0 0 1 1 0 0 forward_v I I I I #
coedge $-1 $117 $118 $119 $120 forward $46 $-1 #
face $-1 $121 $122 $28 $-1 $123 reversed single #
loop $-1 $-1 $124 $48 #
plane-surface $-1 0 0 5.0808653478936252 0 0 1 1 0 0 forward_v I I I I #
coedge $-1 $125 $126 $127 $128 forward $49 $-1 #
face $-1 $129 $130 $29 $-1 $131 reversed single #
loop $-1 $-1 $132 $51 #
plane-surface $-1 -30.9780129114651 -3.7483235201020193 35.628519950704273 0 0.80901700255871778 0.5877852410284794 1 0 0 forward_v I I I I #
coedge $-1 $133 $134 $135 $136 reversed $52 $-1 #
face $-1 $-1 $137 $30 $-1 $138 forward single #
loop $-1 $139 $140 $54 #
cone-surface $-1 -35.851063251841055 18.702260526315392 2.2141896024085588 0 -0.80901700255871778 -0.5877852410284794 0.25 0 0 1 I I -0.70710678118654746 0.70710678118654746 0.25 forward I I I I #
loop $-1 $-1 $141 $39 #
coedge $-1 $88 $88 $142 $143 reversed $55 $-1 #
face $-1 $-1 $144 $31 $-1 $145 forward single #
loop $-1 $146 $147 $57 #
cone-surface $-1 -26.104962571089139 18.702260526315392 2.2141896024085588 0 -0.80901700255871778 -0.5877852410284794 0.25 0 0 1 I I -0.70710678118654746 0.70710678118654746 0.25 forward I I I I #
loop $-1 $-1 $148 $40 #
coedge $-1 $93 $93 $149 $150 reversed $58 $-1 #
face $-1 $151 $152 $32 $-1 $153 reversed single #
loop $-1 $-1 $154 $60 #
plane-surface $-1 7.4742095522806551 -21.349394705688624 0.79609753719273613 0 -0.71933980857756763 0.69465836192734942 1 0 0 forward_v I I I I #
coedge $-1 $155 $156 $157 $158 reversed $61 $-1 #
face $-1 $-1 $159 $33 $-1 $160 forward single #
loop $-1 $161 $162 $63 #
cone-surface $-1 2.7314869693739681 -16.443981367671988 0.19926927917485671 0 0.71933980857756763 -0.69465836192734942 0.5 0 0 1 I I -0.70710678118654746 0.70710678118654746 0.5 forward I I I I #
loop $-1 $-1 $163 $42 #
coedge $-1 $102 $102 $164 $165 reversed $64 $-1 #
face $-1 $-1 $166 $34 $-1 $167 forward single #
loop $-1 $168 $169 $66 #
cone-surface $-1 7.4742095522806551 -16.443981367671988 0.19926927917485671 0 0.71933980857756763 -0.69465836192734942 0.5 0 0 1 I I -0.70710678118654746 0.70710678118654746 0.5 forward I I I I #
loop $-1 $-1 $170 $43 #
coedge $-1 $107 $107 $171 $172 reversed $67 $-1 #
face $-1 $-1 $173 $35 $-1 $174 forward single #
loop $-1 $175 $176 $69 #
cone-surface $-1 12.216932135187342 -16.443981367671988 0.19926927917485671 0 0.71933980857756763 -0.69465836192734942 0.5 0 0 1 I I -0.70710678118654746 0.70710678118654746 0.5 forward I I I I #
loop $-1 $-1 $177 $44 #
coedge $-1 $112 $112 $178 $179 reversed $70 $-1 #
face $-1 $180 $181 $27 $-1 $182 reversed single #
loop $-1 $-1 $183 $72 #
plane-surface $-1 0 -21.349394705688617 0 0 1 0 0 0 1 forward_v I I I I #
coedge $-1 $184 $185 $186 $187 forward $73 $-1 #
coedge $-1 $188 $75 $189 $190 forward $46 $-1 #
coedge $-1 $75 $188 $191 $192 forward $46 $-1 #
coedge $-1 $193 $194 $75 $120 reversed $195 $-1 #
edge $-1 $196 -21.349394705688617 $197 21.349394705688617 $119 $198 forward 7 unknown #
face $-1 $199 $200 $28 $-1 $201 reversed single #
loop $-1 $-1 $202 $76 #
plane-surface $-1 -53.665208586569577 -19.849394705688617 0 1 0 0 0 0 -1 forward_v I I I I #
coedge $-1 $203 $204 $125 $205 forward $77 $-1 #
coedge $-1 $206 $79 $124 $205 reversed $49 $-1 #
coedge $-1 $79 $206 $207 $208 reversed $49 $-1 #
coedge $-1 $209 $210 $79 $128 reversed $200 $-1 #
edge $-1 $211 -5.0808653478936252 $212 5.0808653478936252 $127 $213 forward 7 unknown #
face $-1 $214 $215 $29 $-1 $216 forward single #
loop $-1 $-1 $217 $80 #
plane-surface $-1 -19.607562117254531 73.928369842425241 92.063939461031083 -1 0 0 0 0.80901700255871778 0.5877852410284794 forward_v I I I I #
coedge $-1 $218 $219 $220 $221 reversed $81 $-1 #
coedge $-1 $134 $83 $222 $223 reversed $52 $-1 #
coedge $-1 $83 $133 $218 $224 reversed $52 $-1 #
coedge $-1 $220 $225 $83 $136 forward $215 $-1 #
edge $-1 $226 15.614790215524003 $227 18.51833889138036 $135 $228 forward 7 unknown #
loop $-1 $-1 $142 $84 #
plane-surface $-1 -30.9780129114651 -3.7483235201020193 35.628519950704273 0 0.80901700255871778 0.5877852410284794 1 0 0 forward_v I I I I #
loop $-1 $-1 $229 $54 #
coedge $-1 $140 $140 $141 $230 reversed $85 $-1 #
coedge $-1 $141 $141 $140 $230 forward $87 $-1 #
coedge $-1 $142 $142 $88 $143 forward $137 $-1 #
edge $-1 $231 2.4253409786512982e-015 $231 6.2831853071796031 $142 $232 forward 7 unknown #
loop $-1 $-1 $149 $89 #
plane-surface $-1 -30.9780129114651 -3.7483235201020193 35.628519950704273 0 0.80901700255871778 0.5877852410284794 1 0 0 forward_v I I I I #
loop $-1 $-1 $233 $57 #
coedge $-1 $147 $147 $148 $234 reversed $90 $-1 #
coedge $-1 $148 $148 $147 $234 forward $92 $-1 #
coedge $-1 $149 $149 $93 $150 forward $144 $-1 #
edge $-1 $235 2.4253409786512982e-015 $235 6.2831853071796031 $149 $236 forward 7 unknown #
face $-1 $237 $238 $32 $-1 $239 forward single #
loop $-1 $-1 $240 $94 #
plane-surface $-1 -0.43032808589715899 -90.415851353221626 67.492797854353157 1 0 0 0 0.71933980857756763 -0.69465836192734942 forward_v I I I I #
coedge $-1 $241 $242 $243 $244 reversed $95 $-1 #
coedge $-1 $156 $97 $245 $246 reversed $61 $-1 #
coedge $-1 $97 $155 $241 $247 reversed $61 $-1 #
coedge $-1 $243 $248 $97 $158 forward $238 $-1 #
edge $-1 $249 23.858530970922196 $250 27.996283050160216 $157 $251 forward 7 unknown #
loop $-1 $-1 $164 $98 #
plane-surface $-1 7.4742095522806551 -21.349394705688624 0.79609753719273613 0 -0.71933980857756763 0.69465836192734942 1 0 0 forward_v I I I I #
loop $-1 $-1 $252 $63 #
coedge $-1 $162 $162 $163 $253 reversed $99 $-1 #
coedge $-1 $163 $163 $162 $253 forward $101 $-1 #
coedge $-1 $164 $164 $102 $165 forward $159 $-1 #
edge $-1 $254 -2.8750594248441656e-015 $254 6.2831853071795978 $164 $255 forward 7 unknown #
loop $-1 $-1 $171 $103 #
plane-surface $-1 7.4742095522806551 -21.349394705688624 0.79609753719273613 0 -0.71933980857756763 0.69465836192734942 1 0 0 forward_v I I I I #
loop $-1 $-1 $256 $66 #
coedge $-1 $169 $169 $170 $257 reversed $104 $-1 #
coedge $-1 $170 $170 $169 $257 forward $106 $-1 #
coedge $-1 $171 $171 $107 $172 forward $166 $-1 #
edge $-1 $258 -2.8750594248441656e-015 $258 6.2831853071795978 $171 $259 forward 7 unknown #
loop $-1 $-1 $178 $108 #
plane-surface $-1 7.4742095522806551 -21.349394705688624 0.79609753719273613 0 -0.71933980857756763 0.69465836192734942 1 0 0 forward_v I I I I #
loop $-1 $-1 $260 $69 #
coedge $-1 $176 $176 $177 $261 reversed $109 $-1 #
coedge $-1 $177 $177 $176 $261 forward $111 $-1 #
coedge $-1 $178 $178 $112 $179 forward $173 $-1 #
edge $-1 $262 -2.8750594248441656e-015 $262 6.2831853071795978 $178 $263 forward 7 unknown #
face $-1 $264 $265 $27 $-1 $266 reversed single #
loop $-1 $-1 $267 $113 #
plane-surface $-1 -48.006836146122623 0 0 1 0 0 0 0 -1 forward_v I I I I #
coedge $-1 $268 $191 $269 $270 forward $114 $-1 #
coedge $-1 $271 $116 $268 $272 forward $73 $-1 #
coedge $-1 $116 $271 $273 $274 forward $73 $-1 #
coedge $-1 $194 $193 $116 $187 reversed $195 $-1 #
edge $-1 $275 -21.349394705688617 $276 21.349394705688617 $186 $277 forward 7 unknown #
coedge $-1 $118 $117 $267 $278 forward $46 $-1 #
coedge $-1 $279 $280 $117 $190 reversed $265 $-1 #
edge $-1 $197 -48.006836146122623 $281 48.006836146122623 $189 $282 forward 7 unknown #
coedge $-1 $183 $283 $118 $192 reversed $114 $-1 #
edge $-1 $284 -48.006836146122623 $196 48.006836146122623 $191 $285 forward 7 unknown #
coedge $-1 $186 $119 $283 $286 forward $195 $-1 #
coedge $-1 $119 $186 $279 $287 reversed $195 $-1 #
loop $-1 $-1 $193 $264 #
vertex $-1 $120 $288 #
vertex $-1 $120 $289 #
straight-curve $-1 48.006836146122623 0 5.0808653478936252 0 1 0 I I #
face $-1 $290 $291 $28 $-1 $292 reversed single #
loop $-1 $-1 $127 $121 #
plane-surface $-1 -50.8360223663461 -18.349394705688617 0 0 -1 0 0 0 -1 forward_v I I I I #
coedge $-1 $293 $294 $295 $296 forward $122 $-1 #
coedge $-1 $297 $124 $210 $298 forward $77 $-1 #
coedge $-1 $124 $297 $299 $300 forward $77 $-1 #
edge $-1 $301 -21.349394705688617 $212 -18.349394705688617 $124 $302 forward 7 unknown #
coedge $-1 $126 $125 $303 $304 reversed $49 $-1 #
coedge $-1 $305 $306 $126 $208 forward $291 $-1 #
edge $-1 $211 18.349394705688617 $307 21.349394705688617 $207 $308 forward 7 unknown #
coedge $-1 $295 $127 $306 $309 reversed $200 $-1 #
coedge $-1 $127 $295 $203 $298 reversed $200 $-1 #
vertex $-1 $208 $310 #
vertex $-1 $298 $311 #
straight-curve $-1 -48.006836146122623 -18.349394705688617 0 0 0 1 I I #
face $-1 $-1 $312 $29 $-1 $313 reversed single #
loop $-1 $-1 $135 $129 #
plane-surface $-1 0 0 5.0808653478936252 0 0 1 1 0 0 forward_v I I I I #
coedge $-1 $314 $315 $316 $317 reversed $130 $-1 #
coedge $-1 $318 $132 $134 $224 forward $81 $-1 #
coedge $-1 $132 $318 $314 $319 forward $81 $-1 #
coedge $-1 $316 $135 $132 $221 forward $215 $-1 #
edge $-1 $227 -26.859457249943119 $320 -4.1185556615219809 $220 $321 forward 7 unknown #
coedge $-1 $322 $323 $133 $223 forward $312 $-1 #
edge $-1 $324 -44.947496402289573 $226 -40.951104382621914 $222 $325 forward 7 unknown #
edge $-1 $227 37.75897726029995 $324 42.698789411377206 $134 $326 forward 7 unknown #
coedge $-1 $135 $316 $322 $327 forward $215 $-1 #
vertex $-1 $223 $328 #
vertex $-1 $136 $329 #
straight-curve $-1 -42.34846370567567 36.96418492121262 5.0808653478936279 0 -1 0 I I #
coedge $-1 $229 $229 $-1 $330 reversed $139 $-1 #
edge $-1 $331 0 $331 6.2831853071796004 $140 $332 forward 7 unknown #
vertex $-1 $143 $333 #
ellipse-curve $-1 -35.851063251841055 19.897620367760442 3.0826693380597869 0 0.80901700255871778 0.5877852410284794 0.5 0 0 1 I I #
coedge $-1 $233 $233 $-1 $334 reversed $146 $-1 #
edge $-1 $335 0 $335 6.2831853071796004 $147 $336 forward 7 unknown #
vertex $-1 $150 $337 #
ellipse-curve $-1 -26.104962571089139 19.897620367760442 3.0826693380597869 0 0.80901700255871778 0.5877852410284794 0.5 0 0 1 I I #
face $-1 $-1 $338 $32 $-1 $339 reversed single #
loop $-1 $-1 $157 $151 #
plane-surface $-1 0 0 5.0808653478936252 0 0 1 1 0 0 forward_v I I I I #
coedge $-1 $340 $341 $342 $343 reversed $152 $-1 #
coedge $-1 $344 $154 $156 $247 forward $95 $-1 #
coedge $-1 $154 $344 $340 $345 forward $95 $-1 #
coedge $-1 $342 $157 $154 $244 forward $238 $-1 #
edge $-1 $250 -11.641642414318142 $346 4.1674328620374865 $243 $347 forward 7 unknown #
coedge $-1 $348 $349 $155 $246 forward $338 $-1 #
edge $-1 $350 -32.950301389983835 $249 -28.665533579282954 $245 $351 forward 7 unknown #
edge $-1 $250 -5.9565281381738728 $350 -1.0206786807905858e-014 $156 $352 forward 7 unknown #
coedge $-1 $157 $342 $348 $353 forward $238 $-1 #
vertex $-1 $158 $354 #
vertex $-1 $158 $355 #
straight-curve $-1 15.378747190458469 -45.207925676610813 5.0808653478936243 0 1 0 I I #
coedge $-1 $252 $252 $-1 $356 reversed $161 $-1 #
edge $-1 $357 0 $357 6.2831853071796004 $162 $358 forward 7 unknown #
vertex $-1 $165 $359 #
ellipse-curve $-1 2.7314869693739681 -19.280518666069604 2.9384814425431864 0 -0.71933980857756763 0.69465836192734942 1 0 0 1 I I #
coedge $-1 $256 $256 $-1 $360 reversed $168 $-1 #
edge $-1 $361 0 $361 6.2831853071796004 $169 $362 forward 7 unknown #
vertex $-1 $172 $363 #
ellipse-curve $-1 7.4742095522806551 -19.280518666069604 2.9384814425431864 0 -0.71933980857756763 0.69465836192734942 1 0 0 1 I I #
coedge $-1 $260 $260 $-1 $364 reversed $175 $-1 #
edge $-1 $365 0 $365 6.2831853071796004 $176 $366 forward 7 unknown #
vertex $-1 $179 $367 #
ellipse-curve $-1 12.216932135187342 -19.280518666069604 2.9384814425431864 0 -0.71933980857756763 0.69465836192734942 1 0 0 1 I I #
face $-1 $-1 $195 $27 $-1 $368 reversed single #
loop $-1 $-1 $279 $180 #
plane-surface $-1 0 21.349394705688617 0 0 -1 0 0 0 -1 forward_v I I I I #
coedge $-1 $369 $269 $188 $278 reversed $181 $-1 #
coedge $-1 $283 $183 $184 $272 reversed $114 $-1 #
coedge $-1 $267 $370 $183 $270 reversed $181 $-1 #
edge $-1 $284 -5.0808653478936252 $371 5.0808653478936252 $269 $372 forward 7 unknown #
coedge $-1 $185 $184 $370 $373 forward $73 $-1 #
edge $-1 $276 -48.006836146122623 $371 48.006836146122623 $268 $374 forward 7 unknown #
coedge $-1 $280 $279 $185 $274 reversed $265 $-1 #
edge $-1 $375 -48.006836146122623 $275 48.006836146122623 $273 $376 forward 7 unknown #
vertex $-1 $187 $377 #
vertex $-1 $286 $378 #
straight-curve $-1 48.006836146122623 0 -5.0808653478936252 0 -1 0 I I #
edge $-1 $281 -21.349394705688617 $284 21.349394705688617 $267 $379 forward 7 unknown #
coedge $-1 $273 $189 $194 $287 forward $265 $-1 #
coedge $-1 $189 $273 $369 $380 reversed $265 $-1 #
vertex $-1 $190 $381 #
straight-curve $-1 0 21.349394705688617 5.0808653478936252 -1 0 0 I I #
coedge $-1 $191 $268 $193 $286 reversed $114 $-1 #
vertex $-1 $278 $382 #
straight-curve $-1 0 -21.349394705688617 5.0808653478936252 1 0 0 I I #
edge $-1 $196 -5.0808653478936252 $276 5.0808653478936252 $193 $383 forward 7 unknown #
edge $-1 $197 -5.0808653478936252 $275 5.0808653478936252 $194 $384 forward 7 unknown #
point $-1 48.006836146122623 -21.349394705688617 5.0808653478936252 #
point $-1 48.006836146122623 21.349394705688617 5.0808653478936252 #
face $-1 $-1 $385 $28 $-1 $386 reversed single #
loop $-1 $-1 $207 $199 #
plane-surface $-1 0 0 -5.0808653478936252 0 0 1 1 0 0 forward_v I I I I #
coedge $-1 $387 $202 $388 $389 reversed $122 $-1 #
coedge $-1 $202 $387 $297 $390 reversed $122 $-1 #
coedge $-1 $210 $209 $202 $296 reversed $200 $-1 #
edge $-1 $391 -5.0808653478936252 $392 5.0808653478936252 $295 $393 forward 7 unknown #
coedge $-1 $204 $203 $294 $390 forward $77 $-1 #
edge $-1 $212 -2.8291862202234768 $391 2.8291862202234768 $210 $394 forward 7 unknown #
coedge $-1 $395 $303 $204 $300 reversed $385 $-1 #
edge $-1 $396 -53.665208586569577 $301 -48.006836146122623 $299 $397 forward 7 unknown #
vertex $-1 $304 $398 #
straight-curve $-1 -48.006836146122623 0 5.0808653478936252 0 1 0 I I #
coedge $-1 $299 $399 $206 $304 forward $385 $-1 #
edge $-1 $307 -5.0808653478936252 $301 5.0808653478936252 $303 $400 forward 7 unknown #
coedge $-1 $388 $207 $399 $401 forward $291 $-1 #
coedge $-1 $207 $388 $209 $309 forward $291 $-1 #
vertex $-1 $401 $402 #
straight-curve $-1 -48.006836146122623 0 -5.0808653478936252 0 -1 0 I I #
edge $-1 $392 -2.8291862202234768 $211 2.8291862202234768 $209 $403 forward 7 unknown #
point $-1 -48.006836146122623 -18.349394705688617 -5.0808653478936252 #
point $-1 -48.006836146122623 -18.349394705688617 5.0808653478936252 #
loop $-1 $-1 $222 $214 #
plane-surface $-1 0 21.349394705688617 0 0 -1 0 0 0 -1 forward_v I I I I #
coedge $-1 $315 $217 $219 $319 reversed $130 $-1 #
coedge $-1 $217 $314 $404 $405 reversed $130 $-1 #
coedge $-1 $225 $220 $217 $317 forward $215 $-1 #
edge $-1 $320 -18.51833889138036 $406 -15.614790215524003 $316 $407 forward 7 unknown #
coedge $-1 $219 $218 $323 $408 reversed $81 $-1 #
edge $-1 $409 -42.698789411377206 $320 -37.75897726029995 $314 $410 forward 7 unknown #
vertex $-1 $221 $411 #
straight-curve $-1 -15.48900645573255 18.445846029832261 5.0808653478936243 1 0 0 I I #
coedge $-1 $404 $222 $225 $327 reversed $312 $-1 #
coedge $-1 $222 $404 $318 $408 forward $312 $-1 #
vertex $-1 $223 $412 #
straight-curve $-1 -42.34846370567567 21.349394705688617 46.031969730515542 0 0 1 I I #
straight-curve $-1 -42.34846370567567 -3.7483235201020193 35.628519950704273 0 0.5877852410284794 -0.80901700255871778 I I #
edge $-1 $406 19.607562117254531 $226 42.34846370567567 $322 $413 forward 7 unknown #
point $-1 -42.34846370567567 21.349394705688617 5.0808653478936252 #
point $-1 -42.34846370567567 18.445846029832261 5.0808653478936208 #
edge $-1 $414 1 $414 0 $229 $-1 forward 7 unknown #
vertex $-1 $230 $415 #
ellipse-curve $-1 -35.851063251841055 18.904514776955072 2.3611359126656786 0 0.80901700255871778 0.5877852410284794 0.5 0 0 1 I I #
point $-1 -35.351063251841055 19.897620367760435 3.0826693380597803 #
edge $-1 $416 1 $416 0 $233 $-1 forward 7 unknown #
vertex $-1 $234 $417 #
ellipse-curve $-1 -26.104962571089139 18.904514776955072 2.3611359126656786 0 0.80901700255871778 0.5877852410284794 0.5 0 0 1 I I #
point $-1 -25.604962571089139 19.897620367760435 3.0826693380597803 #
loop $-1 $-1 $245 $237 #
plane-surface $-1 0 -21.349394705688617 0 0 1 0 0 0 1 forward_v I I I I #
coedge $-1 $341 $240 $242 $345 reversed $152 $-1 #
coedge $-1 $240 $340 $418 $419 reversed $152 $-1 #
coedge $-1 $248 $243 $240 $343 forward $238 $-1 #
edge $-1 $346 -27.996283050160216 $420 -23.858530970922196 $342 $421 forward 7 unknown #
coedge $-1 $242 $241 $349 $422 reversed $95 $-1 #
edge $-1 $423 1.0206786807905858e-014 $346 5.9565281381738728 $340 $424 forward 7 unknown #
vertex $-1 $244 $425 #
straight-curve $-1 3.7371047761403275 -17.211642626450598 5.0808653478936252 -1 0 0 I I #
coedge $-1 $418 $245 $248 $353 reversed $338 $-1 #
coedge $-1 $245 $418 $344 $422 forward $338 $-1 #
vertex $-1 $246 $426 #
straight-curve $-1 15.378747190458469 -21.349394705688617 33.746398927176578 0 0 1 I I #
straight-curve $-1 15.378747190458469 -21.349394705688624 0.79609753719273613 0 -0.69465836192734942 -0.71933980857756763 I I #
edge $-1 $420 -0.43032808589715899 $249 15.378747190458469 $348 $427 forward 7 unknown #
point $-1 15.378747190458469 -21.349394705688617 5.0808653478936252 #
point $-1 15.378747190458469 -17.211642626450598 5.0808653478936252 #
edge $-1 $428 1 $428 0 $252 $-1 forward 7 unknown #
vertex $-1 $253 $429 #
ellipse-curve $-1 2.7314869693739681 -16.803651271960771 0.54659846013853142 0 -0.71933980857756763 0.69465836192734942 1 0 0 1 I I #
point $-1 3.7314869693739681 -19.280518666069604 2.9384814425431824 #
edge $-1 $430 1 $430 0 $256 $-1 forward 7 unknown #
vertex $-1 $257 $431 #
ellipse-curve $-1 7.4742095522806551 -16.803651271960771 0.54659846013853142 0 -0.71933980857756763 0.69465836192734942 1 0 0 1 I I #
point $-1 8.4742095522806551 -19.280518666069604 2.9384814425431824 #
edge $-1 $432 1 $432 0 $260 $-1 forward 7 unknown #
vertex $-1 $261 $433 #
ellipse-curve $-1 12.216932135187342 -16.803651271960771 0.54659846013853142 0 -0.71933980857756763 0.69465836192734942 1 0 0 1 I I #
point $-1 13.216932135187342 -19.280518666069604 2.9384814425431824 #
plane-surface $-1 48.006836146122623 0 0 -1 0 0 0 0 1 forward_v I I I I #
coedge $-1 $370 $267 $280 $380 forward $181 $-1 #
coedge $-1 $269 $369 $271 $373 reversed $181 $-1 #
vertex $-1 $373 $434 #
straight-curve $-1 -48.006836146122623 -21.349394705688617 0 0 0 -1 I I #
edge $-1 $371 -21.349394705688617 $375 21.349394705688617 $370 $435 forward 7 unknown #
straight-curve $-1 0 -21.349394705688617 -5.0808653478936252 -1 0 0 I I #
vertex $-1 $274 $436 #
straight-curve $-1 0 21.349394705688617 -5.0808653478936252 1 0 0 I I #
point $-1 48.006836146122623 21.349394705688617 -5.0808653478936252 #
point $-1 48.006836146122623 -21.349394705688617 -5.0808653478936252 #
straight-curve $-1 -48.006836146122623 0 5.0808653478936252 0 -1 0 I I #
edge $-1 $281 -5.0808653478936252 $375 5.0808653478936252 $280 $437 forward 7 unknown #
point $-1 -48.006836146122623 21.349394705688617 5.0808653478936252 #
point $-1 -48.006836146122623 -21.349394705688617 5.0808653478936252 #
straight-curve $-1 48.006836146122623 -21.349394705688617 0 0 0 -1 I I #
straight-curve $-1 48.006836146122623 21.349394705688617 0 0 0 -1 I I #
loop $-1 $-1 $303 $290 #
plane-surface $-1 0 -21.349394705688617 0 0 1 0 0 0 1 forward_v I I I I #
coedge $-1 $294 $293 $395 $438 reversed $122 $-1 #
coedge $-1 $306 $305 $293 $389 forward $291 $-1 #
edge $-1 $439 -1.5 $392 1.5 $293 $440 forward 7 unknown #
edge $-1 $391 -1.5 $396 1.5 $294 $441 forward 7 unknown #
vertex $-1 $298 $442 #
vertex $-1 $309 $443 #
straight-curve $-1 -53.665208586569577 -18.349394705688617 0 0 0 -1 I I #
straight-curve $-1 -50.8360223663461 -18.349394705688617 5.0808653478936252 -1 0 0 I I #
coedge $-1 $399 $299 $387 $438 forward $385 $-1 #
vertex $-1 $390 $444 #
straight-curve $-1 0 -21.349394705688617 5.0808653478936252 1 0 0 I I #
point $-1 -48.006836146122623 -21.349394705688617 5.0808653478936252 #
coedge $-1 $303 $395 $305 $401 reversed $385 $-1 #
straight-curve $-1 -48.006836146122623 -21.349394705688617 0 0 0 1 I I #
edge $-1 $307 -2.8291862202234768 $439 2.8291862202234768 $399 $445 forward 7 unknown #
point $-1 -48.006836146122623 -21.349394705688617 -5.0808653478936252 #
straight-curve $-1 -50.8360223663461 -18.349394705688617 -5.0808653478936252 1 0 0 I I #
coedge $-1 $323 $322 $315 $405 forward $312 $-1 #
edge $-1 $406 40.951104382621914 $409 44.947496402289573 $404 $446 forward 7 unknown #
vertex $-1 $327 $447 #
straight-curve $-1 -19.607562117254531 36.96418492121262 5.0808653478936279 0 1 0 I I #
edge $-1 $409 4.1185556615219809 $324 26.859457249943119 $323 $448 forward 7 unknown #
vertex $-1 $408 $449 #
straight-curve $-1 -19.607562117254531 -3.7483235201020193 35.628519950704273 0 -0.5877852410284794 0.80901700255871778 I I #
point $-1 -19.607562117254531 18.445846029832261 5.0808653478936208 #
point $-1 -42.34846370567567 21.349394705688617 1.0844733282259682 #
straight-curve $-1 0 21.349394705688617 5.0808653478936252 -1 0 0 I I #
vertex $-1 $330 $450 #
point $-1 -35.351063251841055 18.904514776955072 2.3611359126656786 #
vertex $-1 $334 $451 #
point $-1 -25.604962571089139 18.904514776955072 2.3611359126656786 #
coedge $-1 $349 $348 $341 $419 forward $338 $-1 #
edge $-1 $420 28.665533579282954 $423 32.950301389983835 $418 $452 forward 7 unknown #
vertex $-1 $353 $453 #
straight-curve $-1 -0.43032808589715899 -45.207925676610813 5.0808653478936243 0 -1 0 I I #
edge $-1 $423 -4.1674328620374865 $350 11.641642414318142 $349 $454 forward 7 unknown #
vertex $-1 $422 $455 #
straight-curve $-1 -0.43032808589715899 -21.349394705688624 0.79609753719273613 0 0.69465836192734942 0.71933980857756763 I I #
point $-1 -0.43032808589715899 -17.211642626450598 5.0808653478936252 #
point $-1 15.378747190458469 -21.349394705688617 0.79609753719274345 #
straight-curve $-1 0 -21.349394705688617 5.0808653478936252 1 0 0 I I #
vertex $-1 $356 $456 #
point $-1 3.7314869693739681 -16.803651271960771 0.54659846013853142 #
vertex $-1 $360 $457 #
point $-1 8.4742095522806551 -16.803651271960771 0.54659846013853142 #
vertex $-1 $364 $458 #
point $-1 13.216932135187342 -16.803651271960771 0.54659846013853142 #
point $-1 -48.006836146122623 -21.349394705688617 -5.0808653478936252 #
straight-curve $-1 -48.006836146122623 0 -5.0808653478936252 0 1 0 I I #
point $-1 -48.006836146122623 21.349394705688617 -5.0808653478936252 #
straight-curve $-1 -48.006836146122623 21.349394705688617 0 0 0 -1 I I #
edge $-1 $396 -5.0808653478936252 $439 5.0808653478936252 $387 $459 forward 7 unknown #
vertex $-1 $389 $460 #
straight-curve $-1 -53.665208586569577 -19.849394705688617 -5.0808653478936252 0 1 0 I I #
straight-curve $-1 -53.665208586569577 -19.849394705688617 5.0808653478936252 0 -1 0 I I #
point $-1 -53.665208586569577 -18.349394705688617 5.0808653478936252 #
point $-1 -53.665208586569577 -18.349394705688617 -5.0808653478936252 #
point $-1 -53.665208586569577 -21.349394705688617 5.0808653478936252 #
straight-curve $-1 -50.8360223663461 -21.349394705688617 -5.0808653478936252 -1 0 0 I I #
straight-curve $-1 -19.607562117254531 21.349394705688617 46.031969730515542 0 0 -1 I I #
point $-1 -19.607562117254531 21.349394705688617 5.0808653478936252 #
straight-curve $-1 -15.48900645573255 21.349394705688617 1.0844733282259682 -1 0 0 I I #
point $-1 -19.607562117254531 21.349394705688617 1.0844733282259682 #
point $-1 -35.851063251841055 18.500006275675712 2.067243292151439 #
point $-1 -26.104962571089139 18.500006275675712 2.067243292151439 #
straight-curve $-1 -0.43032808589715899 -21.349394705688617 33.746398927176578 0 0 -1 I I #
point $-1 -0.43032808589715899 -21.349394705688617 5.0808653478936252 #
straight-curve $-1 3.7371047761403275 -21.349394705688617 0.79609753719274268 1 0 0 I I #
point $-1 -0.43032808589715899 -21.349394705688617 0.79609753719274345 #
point $-1 2.7314869693739681 -16.084311463383205 -0.148059901788818 #
point $-1 7.4742095522806551 -16.084311463383205 -0.148059901788818 #
point $-1 12.216932135187342 -16.084311463383205 -0.148059901788818 #
straight-curve $-1 -53.665208586569577 -21.349394705688617 0 0 0 -1 I I #
point $-1 -53.665208586569577 -21.349394705688617 -5.0808653478936252 #
End-of-ACIS-data 