500 0 9 0           
7 Unknown 11 ACIS 5.0 NT 24 Fri Mar 26 20:32:09 1999 
-1 9.9999999999999995e-007 1e-010 
body $-1 $9 $-1 $10 #
body $-1 $11 $-1 $12 #
body $-1 $13 $-1 $14 #
body $-1 $15 $-1 $16 #
body $-1 $17 $-1 $18 #
body $-1 $19 $-1 $20 #
body $-1 $21 $-1 $22 #
body $-1 $23 $-1 $24 #
body $-1 $25 $-1 $26 #
lump $-1 $-1 $27 $0 #
transform $-1 1 0 0 0 1 0 0 0 1 58.622394482253483 34.56926839147139 16.677585731352242 1 rotate no_reflect no_shear #
lump $-1 $-1 $28 $1 #
transform $-1 1 0 0 0 1 0 0 0 1 58.622394482253483 34.56926839147139 16.677585731352242 1 rotate no_reflect no_shear #
lump $-1 $-1 $29 $2 #
transform $-1 1 0 0 0 1 0 0 0 1 58.622394482253483 34.56926839147139 16.677585731352242 1 rotate no_reflect no_shear #
lump $-1 $-1 $30 $3 #
transform $-1 1 0 0 0 1 0 0 0 1 58.622394482253483 34.56926839147139 16.677585731352242 1 rotate no_reflect no_shear #
lump $-1 $-1 $31 $4 #
transform $-1 1 0 0 0 1 0 0 0 1 58.622394482253483 34.56926839147139 16.677585731352242 1 rotate no_reflect no_shear #
lump $-1 $-1 $32 $5 #
transform $-1 1 0 0 0 1 0 0 0 1 58.622394482253483 34.56926839147139 16.677585731352242 1 rotate no_reflect no_shear #
lump $-1 $-1 $33 $6 #
transform $-1 1 0 0 0 1 0 0 0 1 58.622394482253483 34.56926839147139 16.677585731352242 1 rotate no_reflect no_shear #
lump $-1 $-1 $34 $7 #
transform $-1 1 0 0 0 1 0 0 0 1 58.622394482253483 34.56926839147139 16.677585731352242 1 rotate no_reflect no_shear #
lump $-1 $-1 $35 $8 #
transform $-1 1 0 0 0 1 0 0 0 1 58.622394482253483 34.56926839147139 16.677585731352242 1 rotate no_reflect no_shear #
shell $-1 $-1 $-1 $36 $-1 $9 #
shell $-1 $-1 $-1 $37 $-1 $11 #
shell $-1 $-1 $-1 $38 $-1 $13 #
shell $-1 $-1 $-1 $39 $-1 $15 #
shell $-1 $-1 $-1 $40 $-1 $17 #
shell $-1 $-1 $-1 $41 $-1 $19 #
shell $-1 $-1 $-1 $42 $-1 $21 #
shell $-1 $-1 $-1 $43 $-1 $23 #
shell $-1 $-1 $-1 $44 $-1 $25 #
face $-1 $45 $46 $27 $-1 $47 forward single #
face $-1 $48 $49 $28 $-1 $50 forward single #
face $-1 $51 $52 $29 $-1 $53 forward single #
face $-1 $54 $55 $30 $-1 $56 reversed single #
face $-1 $57 $58 $31 $-1 $59 forward single #
face $-1 $60 $61 $32 $-1 $62 forward single #
face $-1 $63 $64 $33 $-1 $65 reversed single #
face $-1 $66 $67 $34 $-1 $68 forward single #
face $-1 $69 $70 $35 $-1 $71 forward single #
face $-1 $72 $73 $27 $-1 $74 reversed single #
loop $-1 $-1 $75 $36 #
plane-surface $-1 0 0 16.677585731352242 0 0 1 1 0 0 forward_v I I I I #
face $-1 $76 $77 $28 $-1 $78 reversed single #
loop $-1 $-1 $79 $37 #
plane-surface $-1 -58.622394482253483 0 0 1 0 0 0 0 -1 forward_v I I I I #
face $-1 $80 $81 $29 $-1 $82 forward single #
loop $-1 $-1 $83 $38 #
plane-surface $-1 58.622394482253483 0 0 -1 0 0 0 0 1 forward_v I I I I #
face $-1 $84 $85 $30 $-1 $86 reversed single #
loop $-1 $-1 $87 $39 #
plane-surface $-1 -24.703535226832571 -108.35380574739474 101.41238362453679 -1 0 0 0 -0.62932039886446345 0.77714595512881146 forward_v I I I I #
face $-1 $88 $89 $31 $-1 $90 forward single #
loop $-1 $91 $92 $40 #
cone-surface $-1 -37.357286267723509 -29.817008417866489 12.484088598406155 0 0.62932039886446345 -0.77714595512881146 2.5 0 0 1 I I 0 1 2.5 forward I I I I #
face $-1 $93 $94 $32 $-1 $95 forward single #
loop $-1 $96 $97 $41 #
cone-surface $-1 -29.765035643188945 -29.817008417866489 12.484088598406155 0 0.62932039886446345 -0.77714595512881146 2.5 0 0 1 I I 0 1 2.5 forward I I I I #
face $-1 $98 $99 $33 $-1 $100 reversed single #
loop $-1 $-1 $101 $42 #
plane-surface $-1 17.715251457247312 -108.35380574739474 101.41238362453679 -1 0 0 0 -0.62932039886446345 0.77714595512881146 forward_v I I I I #
face $-1 $102 $103 $34 $-1 $104 forward single #
loop $-1 $105 $106 $43 #
cone-surface $-1 5.0615004163563668 -29.817008417866489 12.484088598406155 0 0.62932039886446345 -0.77714595512881146 2.5 0 0 1 I I 0 1 2.5 forward I I I I #
face $-1 $107 $108 $35 $-1 $109 forward single #
loop $-1 $110 $111 $44 #
cone-surface $-1 12.653751040890924 -29.817008417866489 12.484088598406155 0 0.62932039886446345 -0.77714595512881146 2.5 0 0 1 I I 0 1 2.5 forward I I I I #
face $-1 $112 $113 $27 $-1 $114 reversed single #
loop $-1 $-1 $115 $45 #
plane-surface $-1 0 0 -16.677585731352242 0 0 1 1 0 0 forward_v I I I I #
coedge $-1 $116 $117 $118 $119 forward $46 $-1 #
face $-1 $120 $121 $28 $-1 $122 reversed single #
loop $-1 $-1 $123 $48 #
plane-surface $-1 0 34.56926839147139 0 0 -1 0 0 0 -1 forward_v I I I I #
coedge $-1 $124 $125 $126 $127 forward $49 $-1 #
face $-1 $128 $129 $29 $-1 $130 reversed single #
loop $-1 $-1 $131 $51 #
plane-surface $-1 0 0 16.677585731352242 0 0 1 1 0 0 forward_v I I I I #
coedge $-1 $132 $133 $134 $135 forward $52 $-1 #
face $-1 $136 $137 $30 $-1 $138 reversed single #
loop $-1 $-1 $139 $54 #
plane-surface $-1 -33.561160955456224 -34.569268391471383 10.29607012083909 0 -0.62932039886446345 0.77714595512881146 1 0 0 forward_v I I I I #
coedge $-1 $140 $141 $142 $143 reversed $55 $-1 #
face $-1 $-1 $144 $31 $-1 $145 forward single #
loop $-1 $146 $147 $57 #
cone-surface $-1 -37.357286267723509 -28.218355605571169 10.509916826805629 0 0.62932039886446345 -0.77714595512881146 1.25 0 0 1 I I -0.70710678118654802 0.70710678118654702 1.25 forward I I I I #
loop $-1 $-1 $148 $40 #
coedge $-1 $92 $92 $149 $150 reversed $58 $-1 #
face $-1 $-1 $151 $32 $-1 $152 forward single #
loop $-1 $153 $154 $60 #
cone-surface $-1 -29.765035643188945 -28.218355605571169 10.509916826805629 0 0.62932039886446345 -0.77714595512881146 1.25 0 0 1 I I -0.70710678118654802 0.70710678118654702 1.25 forward I I I I #
loop $-1 $-1 $155 $41 #
coedge $-1 $97 $97 $156 $157 reversed $61 $-1 #
face $-1 $158 $159 $33 $-1 $160 reversed single #
loop $-1 $-1 $161 $63 #
plane-surface $-1 8.8576257286236597 -34.569268391471383 10.29607012083909 0 -0.62932039886446345 0.77714595512881146 1 0 0 forward_v I I I I #
coedge $-1 $162 $163 $164 $165 reversed $64 $-1 #
face $-1 $-1 $166 $34 $-1 $167 forward single #
loop $-1 $168 $169 $66 #
cone-surface $-1 5.0615004163563668 -28.218355605571169 10.509916826805629 0 0.62932039886446345 -0.77714595512881146 1.25 0 0 1 I I -0.70710678118654802 0.70710678118654702 1.25 forward I I I I #
loop $-1 $-1 $170 $43 #
coedge $-1 $106 $106 $171 $172 reversed $67 $-1 #
face $-1 $-1 $173 $35 $-1 $174 forward single #
loop $-1 $175 $176 $69 #
cone-surface $-1 12.653751040890924 -28.218355605571169 10.509916826805629 0 0.62932039886446345 -0.77714595512881146 1.25 0 0 1 I I -0.70710678118654802 0.70710678118654702 1.25 forward I I I I #
loop $-1 $-1 $177 $44 #
coedge $-1 $111 $111 $178 $179 reversed $70 $-1 #
face $-1 $180 $181 $27 $-1 $182 reversed single #
loop $-1 $-1 $183 $72 #
plane-surface $-1 0 -34.56926839147139 0 0 1 0 0 0 1 forward_v I I I I #
coedge $-1 $184 $185 $186 $187 forward $73 $-1 #
coedge $-1 $188 $75 $189 $190 forward $46 $-1 #
coedge $-1 $75 $188 $191 $192 forward $46 $-1 #
coedge $-1 $193 $194 $75 $119 reversed $195 $-1 #
edge $-1 $196 -34.56926839147139 $197 34.56926839147139 $118 $198 forward 7 unknown #
face $-1 $199 $200 $28 $-1 $201 reversed single #
loop $-1 $-1 $126 $76 #
plane-surface $-1 -66.724198381340287 0 6.8558940336715217 0 0 1 1 0 0 forward_v I I I I #
coedge $-1 $202 $203 $124 $204 forward $77 $-1 #
coedge $-1 $205 $79 $123 $204 reversed $49 $-1 #
coedge $-1 $79 $205 $206 $207 reversed $49 $-1 #
coedge $-1 $208 $209 $79 $127 reversed $121 $-1 #
edge $-1 $210 -34.56926839147139 $211 34.56926839147139 $126 $212 forward 7 unknown #
face $-1 $213 $214 $29 $-1 $215 reversed single #
loop $-1 $-1 $216 $80 #
plane-surface $-1 0 -34.56926839147139 0 0 1 0 0 0 1 forward_v I I I I #
coedge $-1 $217 $218 $219 $220 forward $81 $-1 #
coedge $-1 $219 $83 $216 $221 reversed $52 $-1 #
coedge $-1 $83 $219 $222 $223 reversed $52 $-1 #
coedge $-1 $224 $225 $83 $135 reversed $214 $-1 #
edge $-1 $226 -34.56926839147139 $227 34.56926839147139 $134 $228 forward 7 unknown #
face $-1 $229 $230 $30 $-1 $231 reversed single #
loop $-1 $-1 $232 $84 #
plane-surface $-1 -42.418786684079876 -108.35380574739474 101.41238362453679 1 0 0 0 0.62932039886446345 -0.77714595512881146 forward_v I I I I #
coedge $-1 $233 $234 $235 $236 reversed $85 $-1 #
coedge $-1 $141 $87 $237 $238 reversed $55 $-1 #
coedge $-1 $87 $140 $233 $239 reversed $55 $-1 #
coedge $-1 $235 $240 $87 $143 forward $241 $-1 #
edge $-1 $242 19.607634482225983 $243 27.488149802006305 $142 $244 forward 7 unknown #
loop $-1 $-1 $149 $88 #
plane-surface $-1 -33.561160955456224 -34.569268391471383 10.29607012083909 0 -0.62932039886446345 0.77714595512881146 1 0 0 forward_v I I I I #
loop $-1 $-1 $245 $57 #
coedge $-1 $147 $147 $148 $246 reversed $89 $-1 #
coedge $-1 $148 $148 $147 $246 forward $91 $-1 #
coedge $-1 $149 $149 $92 $150 forward $144 $-1 #
edge $-1 $247 2.3708628755213656e-016 $247 6.2831853071796004 $149 $248 forward 7 unknown #
loop $-1 $-1 $156 $93 #
plane-surface $-1 -33.561160955456224 -34.569268391471383 10.29607012083909 0 -0.62932039886446345 0.77714595512881146 1 0 0 forward_v I I I I #
loop $-1 $-1 $249 $60 #
coedge $-1 $154 $154 $155 $250 reversed $94 $-1 #
coedge $-1 $155 $155 $154 $250 forward $96 $-1 #
coedge $-1 $156 $156 $97 $157 forward $151 $-1 #
edge $-1 $251 2.3708628755213656e-016 $251 6.2831853071796004 $156 $252 forward 7 unknown #
face $-1 $253 $254 $33 $-1 $255 reversed single #
loop $-1 $-1 $256 $98 #
plane-surface $-1 5.3290705182007514e-015 -108.35380574739474 101.41238362453679 1 0 0 0 0.62932039886446345 -0.77714595512881146 forward_v I I I I #
coedge $-1 $257 $258 $259 $260 reversed $99 $-1 #
coedge $-1 $163 $101 $261 $262 reversed $64 $-1 #
coedge $-1 $101 $162 $257 $263 reversed $64 $-1 #
coedge $-1 $259 $264 $101 $165 forward $265 $-1 #
edge $-1 $266 19.607634482225983 $267 27.488149802006305 $164 $268 forward 7 unknown #
loop $-1 $-1 $171 $102 #
plane-surface $-1 8.8576257286236597 -34.569268391471383 10.29607012083909 0 -0.62932039886446345 0.77714595512881146 1 0 0 forward_v I I I I #
loop $-1 $-1 $269 $66 #
coedge $-1 $169 $169 $170 $270 reversed $103 $-1 #
coedge $-1 $170 $170 $169 $270 forward $105 $-1 #
coedge $-1 $171 $171 $106 $172 forward $166 $-1 #
edge $-1 $271 2.3708628755213656e-016 $271 6.2831853071796004 $171 $272 forward 7 unknown #
loop $-1 $-1 $178 $107 #
plane-surface $-1 8.8576257286236597 -34.569268391471383 10.29607012083909 0 -0.62932039886446345 0.77714595512881146 1 0 0 forward_v I I I I #
loop $-1 $-1 $273 $69 #
coedge $-1 $176 $176 $177 $274 reversed $108 $-1 #
coedge $-1 $177 $177 $176 $274 forward $110 $-1 #
coedge $-1 $178 $178 $111 $179 forward $173 $-1 #
edge $-1 $275 2.3708628755213656e-016 $275 6.2831853071796004 $178 $276 forward 7 unknown #
face $-1 $277 $278 $27 $-1 $279 reversed single #
loop $-1 $-1 $280 $112 #
plane-surface $-1 -58.622394482253483 0 0 1 0 0 0 0 -1 forward_v I I I I #
coedge $-1 $281 $191 $282 $283 forward $113 $-1 #
coedge $-1 $284 $115 $281 $285 forward $73 $-1 #
coedge $-1 $115 $284 $286 $287 forward $73 $-1 #
coedge $-1 $194 $193 $115 $187 reversed $195 $-1 #
edge $-1 $288 -34.56926839147139 $289 34.56926839147139 $186 $290 forward 7 unknown #
coedge $-1 $117 $116 $291 $292 forward $46 $-1 #
coedge $-1 $293 $294 $116 $190 reversed $278 $-1 #
edge $-1 $197 -58.622394482253483 $295 58.622394482253483 $189 $296 forward 7 unknown #
coedge $-1 $183 $297 $117 $192 reversed $113 $-1 #
edge $-1 $298 -58.622394482253483 $196 58.622394482253483 $191 $299 forward 7 unknown #
coedge $-1 $186 $118 $297 $300 forward $195 $-1 #
coedge $-1 $118 $186 $293 $301 reversed $195 $-1 #
loop $-1 $-1 $193 $277 #
vertex $-1 $119 $302 #
vertex $-1 $119 $303 #
straight-curve $-1 58.622394482253483 0 16.677585731352242 0 1 0 I I #
face $-1 $304 $305 $28 $-1 $306 forward single #
loop $-1 $-1 $307 $120 #
plane-surface $-1 -74.82600228042709 0 11.766739882511882 1 0 0 0 0 -1 forward_v I I I I #
coedge $-1 $308 $123 $209 $309 reversed $77 $-1 #
coedge $-1 $123 $308 $310 $311 reversed $77 $-1 #
edge $-1 $312 -16.677585731352242 $211 -6.8558940336715217 $123 $313 forward 7 unknown #
coedge $-1 $125 $124 $314 $315 reversed $49 $-1 #
coedge $-1 $316 $317 $125 $207 forward $318 $-1 #
edge $-1 $210 6.8558940336715217 $319 16.677585731352242 $206 $320 forward 7 unknown #
coedge $-1 $321 $126 $317 $322 forward $121 $-1 #
coedge $-1 $126 $321 $202 $309 forward $121 $-1 #
vertex $-1 $207 $323 #
vertex $-1 $204 $324 #
straight-curve $-1 -58.622394482253483 0 6.8558940336715217 0 1 0 I I #
face $-1 $325 $326 $29 $-1 $327 reversed single #
loop $-1 $-1 $328 $128 #
plane-surface $-1 66.724198381340287 0 6.8558940336715217 0 0 1 1 0 0 forward_v I I I I #
coedge $-1 $329 $330 $132 $221 forward $129 $-1 #
coedge $-1 $331 $131 $330 $332 forward $81 $-1 #
coedge $-1 $131 $331 $333 $334 forward $81 $-1 #
coedge $-1 $133 $132 $131 $220 reversed $52 $-1 #
edge $-1 $335 -34.56926839147139 $336 34.56926839147139 $131 $337 forward 7 unknown #
edge $-1 $336 -16.677585731352242 $227 -6.8558940336715217 $216 $338 forward 7 unknown #
coedge $-1 $333 $339 $133 $223 forward $340 $-1 #
edge $-1 $226 6.8558940336715217 $335 16.677585731352242 $222 $341 forward 7 unknown #
coedge $-1 $328 $134 $339 $342 forward $214 $-1 #
coedge $-1 $134 $328 $329 $343 forward $214 $-1 #
vertex $-1 $223 $344 #
vertex $-1 $221 $345 #
straight-curve $-1 58.622394482253483 0 6.8558940336715217 0 -1 0 I I #
face $-1 $-1 $241 $30 $-1 $346 forward single #
loop $-1 $-1 $347 $136 #
plane-surface $-1 0 -34.56926839147139 0 0 1 0 0 0 1 forward_v I I I I #
coedge $-1 $348 $349 $350 $351 reversed $137 $-1 #
coedge $-1 $352 $139 $141 $239 forward $85 $-1 #
coedge $-1 $139 $352 $348 $353 forward $85 $-1 #
coedge $-1 $350 $142 $139 $236 forward $241 $-1 #
edge $-1 $243 7.9229547491044592 $354 25.638206206351764 $235 $355 forward 7 unknown #
coedge $-1 $356 $357 $140 $238 forward $230 $-1 #
edge $-1 $358 -40.41012169142931 $242 -34.028606080916148 $237 $359 forward 7 unknown #
edge $-1 $243 -10.140328554465839 $358 8.8756469145121664e-015 $141 $360 forward 7 unknown #
coedge $-1 $142 $350 $356 $361 forward $241 $-1 #
loop $-1 $-1 $350 $229 #
vertex $-1 $238 $362 #
vertex $-1 $143 $363 #
straight-curve $-1 -24.703535226832571 -54.176902873697372 16.677585731352238 0 1 0 I I #
coedge $-1 $245 $245 $-1 $364 reversed $146 $-1 #
edge $-1 $365 0 $365 6.2831853071796004 $147 $366 forward 7 unknown #
vertex $-1 $150 $367 #
ellipse-curve $-1 -37.357286267723509 -30.629010731581229 13.486827926095662 0 -0.62932039886446345 0.77714595512881146 2.5 0 0 1 I I #
coedge $-1 $249 $249 $-1 $368 reversed $153 $-1 #
edge $-1 $369 0 $369 6.2831853071796004 $154 $370 forward 7 unknown #
vertex $-1 $157 $371 #
ellipse-curve $-1 -29.765035643188945 -30.629010731581229 13.486827926095662 0 -0.62932039886446345 0.77714595512881146 2.5 0 0 1 I I #
face $-1 $-1 $265 $33 $-1 $372 forward single #
loop $-1 $-1 $373 $158 #
plane-surface $-1 0 -34.56926839147139 0 0 1 0 0 0 1 forward_v I I I I #
coedge $-1 $374 $375 $376 $377 reversed $159 $-1 #
coedge $-1 $378 $161 $163 $263 forward $99 $-1 #
coedge $-1 $161 $378 $374 $379 forward $99 $-1 #
coedge $-1 $376 $164 $161 $260 forward $265 $-1 #
edge $-1 $267 -13.286438592935482 $380 4.4288128643118245 $259 $381 forward 7 unknown #
coedge $-1 $382 $383 $162 $262 forward $254 $-1 #
edge $-1 $384 -40.41012169142931 $266 -34.028606080916148 $261 $385 forward 7 unknown #
edge $-1 $267 -10.140328554465839 $384 8.8756469145121664e-015 $163 $386 forward 7 unknown #
coedge $-1 $164 $376 $382 $387 forward $265 $-1 #
loop $-1 $-1 $376 $253 #
vertex $-1 $262 $388 #
vertex $-1 $165 $389 #
straight-curve $-1 17.715251457247312 -54.176902873697372 16.677585731352238 0 1 0 I I #
coedge $-1 $269 $269 $-1 $390 reversed $168 $-1 #
edge $-1 $391 0 $391 6.2831853071796004 $169 $392 forward 7 unknown #
vertex $-1 $172 $393 #
ellipse-curve $-1 5.0615004163563668 -30.629010731581229 13.486827926095662 0 -0.62932039886446345 0.77714595512881146 2.5 0 0 1 I I #
coedge $-1 $273 $273 $-1 $394 reversed $175 $-1 #
edge $-1 $395 0 $395 6.2831853071796004 $176 $396 forward 7 unknown #
vertex $-1 $179 $397 #
ellipse-curve $-1 12.653751040890924 -30.629010731581229 13.486827926095662 0 -0.62932039886446345 0.77714595512881146 2.5 0 0 1 I I #
face $-1 $-1 $195 $27 $-1 $398 reversed single #
loop $-1 $-1 $293 $180 #
plane-surface $-1 0 34.56926839147139 0 0 -1 0 0 0 -1 forward_v I I I I #
coedge $-1 $399 $291 $294 $400 forward $181 $-1 #
coedge $-1 $297 $183 $184 $285 reversed $113 $-1 #
coedge $-1 $291 $399 $183 $283 reversed $181 $-1 #
edge $-1 $298 -16.677585731352242 $401 16.677585731352242 $282 $402 forward 7 unknown #
coedge $-1 $185 $184 $399 $403 forward $73 $-1 #
edge $-1 $289 -58.622394482253483 $401 58.622394482253483 $281 $404 forward 7 unknown #
coedge $-1 $294 $293 $185 $287 reversed $278 $-1 #
edge $-1 $405 -58.622394482253483 $288 58.622394482253483 $286 $406 forward 7 unknown #
vertex $-1 $187 $407 #
vertex $-1 $300 $408 #
straight-curve $-1 58.622394482253483 0 -16.677585731352242 0 -1 0 I I #
coedge $-1 $280 $282 $188 $292 reversed $181 $-1 #
edge $-1 $295 -34.56926839147139 $298 34.56926839147139 $291 $409 forward 7 unknown #
coedge $-1 $286 $189 $194 $301 forward $278 $-1 #
coedge $-1 $189 $286 $280 $400 reversed $278 $-1 #
vertex $-1 $190 $410 #
straight-curve $-1 0 34.56926839147139 16.677585731352242 -1 0 0 I I #
coedge $-1 $191 $281 $193 $300 reversed $113 $-1 #
vertex $-1 $292 $411 #
straight-curve $-1 0 -34.56926839147139 16.677585731352242 1 0 0 I I #
edge $-1 $196 -16.677585731352242 $289 16.677585731352242 $193 $412 forward 7 unknown #
edge $-1 $197 -16.677585731352242 $288 16.677585731352242 $194 $413 forward 7 unknown #
point $-1 58.622394482253483 -34.56926839147139 16.677585731352242 #
point $-1 58.622394482253483 34.56926839147139 16.677585731352242 #
face $-1 $-1 $318 $28 $-1 $414 reversed single #
loop $-1 $-1 $314 $199 #
plane-surface $-1 0 0 16.677585731352242 0 0 1 1 0 0 forward_v I I I I #
coedge $-1 $415 $416 $308 $417 forward $200 $-1 #
coedge $-1 $203 $202 $307 $417 reversed $77 $-1 #
edge $-1 $418 -8.1018038990868035 $211 8.1018038990868035 $202 $419 forward 7 unknown #
coedge $-1 $420 $314 $203 $311 forward $305 $-1 #
edge $-1 $312 58.622394482253483 $421 74.82600228042709 $203 $422 forward 7 unknown #
vertex $-1 $311 $423 #
straight-curve $-1 -58.622394482253483 34.56926839147139 0 0 0 -1 I I #
coedge $-1 $310 $424 $205 $315 forward $305 $-1 #
edge $-1 $319 -34.56926839147139 $312 34.56926839147139 $314 $425 forward 7 unknown #
coedge $-1 $426 $206 $424 $427 reversed $318 $-1 #
coedge $-1 $206 $426 $208 $322 reversed $318 $-1 #
loop $-1 $-1 $206 $304 #
vertex $-1 $207 $428 #
straight-curve $-1 -58.622394482253483 -34.56926839147139 0 0 0 1 I I #
coedge $-1 $209 $208 $415 $429 forward $121 $-1 #
edge $-1 $210 -8.1018038990868035 $430 8.1018038990868035 $317 $431 forward 7 unknown #
point $-1 -58.622394482253483 -34.56926839147139 6.8558940336715217 #
point $-1 -58.622394482253483 34.56926839147139 6.8558940336715217 #
face $-1 $-1 $340 $29 $-1 $432 reversed single #
loop $-1 $-1 $433 $213 #
plane-surface $-1 74.82600228042709 0 11.766739882511882 -1 0 0 0 0 1 forward_v I I I I #
coedge $-1 $225 $224 $434 $435 forward $214 $-1 #
coedge $-1 $436 $216 $225 $343 reversed $129 $-1 #
coedge $-1 $216 $436 $217 $332 reversed $129 $-1 #
coedge $-1 $218 $217 $437 $438 forward $81 $-1 #
edge $-1 $336 -8.1018038990868035 $439 8.1018038990868035 $330 $440 forward 7 unknown #
coedge $-1 $441 $222 $218 $334 reversed $340 $-1 #
edge $-1 $442 -74.82600228042709 $335 -58.622394482253483 $333 $443 forward 7 unknown #
vertex $-1 $223 $444 #
vertex $-1 $332 $445 #
straight-curve $-1 58.622394482253483 0 16.677585731352242 0 -1 0 I I #
straight-curve $-1 58.622394482253483 -34.56926839147139 0 0 0 -1 I I #
coedge $-1 $222 $441 $224 $342 reversed $340 $-1 #
loop $-1 $-1 $222 $325 #
straight-curve $-1 58.622394482253483 34.56926839147139 0 0 0 1 I I #
edge $-1 $226 -8.1018038990868035 $446 8.1018038990868035 $339 $447 forward 7 unknown #
edge $-1 $448 -8.1018038990868035 $227 8.1018038990868035 $329 $449 forward 7 unknown #
point $-1 58.622394482253483 34.56926839147139 6.8558940336715217 #
point $-1 58.622394482253483 -34.56926839147139 6.8558940336715217 #
plane-surface $-1 0 0 16.677585731352242 0 0 1 1 0 0 forward_v I I I I #
coedge $-1 $357 $356 $349 $450 forward $230 $-1 #
coedge $-1 $349 $232 $234 $353 reversed $137 $-1 #
coedge $-1 $232 $348 $347 $450 reversed $137 $-1 #
coedge $-1 $240 $235 $232 $351 forward $241 $-1 #
edge $-1 $354 -27.488149802006305 $451 -19.607634482225983 $350 $452 forward 7 unknown #
coedge $-1 $234 $233 $357 $453 reversed $85 $-1 #
edge $-1 $454 -8.8756469145121664e-015 $354 10.140328554465839 $348 $455 forward 7 unknown #
vertex $-1 $236 $456 #
straight-curve $-1 -16.780580477728112 -26.688753071691067 16.677585731352242 -1 0 0 I I #
coedge $-1 $347 $237 $240 $361 reversed $230 $-1 #
coedge $-1 $237 $347 $352 $453 forward $230 $-1 #
vertex $-1 $238 $457 #
straight-curve $-1 -24.703535226832571 -34.56926839147139 50.706191812268393 0 0 1 I I #
straight-curve $-1 -24.703535226832571 -34.569268391471383 10.29607012083909 0 -0.77714595512881146 -0.62932039886446345 I I #
edge $-1 $451 -109.14298506542016 $242 -91.427733608172858 $356 $458 forward 7 unknown #
point $-1 -24.703535226832571 -34.56926839147139 16.677585731352242 #
point $-1 -24.703535226832571 -26.688753071691067 16.677585731352242 #
edge $-1 $459 1 $459 0 $245 $-1 forward 7 unknown #
vertex $-1 $246 $460 #
ellipse-curve $-1 -37.357286267723509 -29.005006104151747 11.481349270716642 0 -0.62932039886446345 0.77714595512881146 2.5 0 0 1 I I #
point $-1 -34.857286267723509 -30.629010731581232 13.486827926095668 #
edge $-1 $461 1 $461 0 $249 $-1 forward 7 unknown #
vertex $-1 $250 $462 #
ellipse-curve $-1 -29.765035643188945 -29.005006104151747 11.481349270716642 0 -0.62932039886446345 0.77714595512881146 2.5 0 0 1 I I #
point $-1 -27.265035643188945 -30.629010731581232 13.486827926095668 #
plane-surface $-1 0 0 16.677585731352242 0 0 1 1 0 0 forward_v I I I I #
coedge $-1 $383 $382 $375 $463 forward $254 $-1 #
coedge $-1 $375 $256 $258 $379 reversed $159 $-1 #
coedge $-1 $256 $374 $373 $463 reversed $159 $-1 #
coedge $-1 $264 $259 $256 $377 forward $265 $-1 #
edge $-1 $380 -27.488149802006305 $464 -19.607634482225983 $376 $465 forward 7 unknown #
coedge $-1 $258 $257 $383 $466 reversed $99 $-1 #
edge $-1 $467 -8.8756469145121664e-015 $380 10.140328554465839 $374 $468 forward 7 unknown #
vertex $-1 $260 $469 #
straight-curve $-1 4.4288128643118299 -26.688753071691067 16.677585731352242 -1 0 0 I I #
coedge $-1 $373 $261 $264 $387 reversed $254 $-1 #
coedge $-1 $261 $373 $378 $466 forward $254 $-1 #
vertex $-1 $262 $470 #
straight-curve $-1 17.715251457247312 -34.56926839147139 50.706191812268393 0 0 1 I I #
straight-curve $-1 17.715251457247312 -34.569268391471383 10.29607012083909 0 -0.77714595512881146 -0.62932039886446345 I I #
edge $-1 $464 -66.724198381340287 $266 -49.008946924092974 $382 $471 forward 7 unknown #
point $-1 17.715251457247312 -34.56926839147139 16.677585731352242 #
point $-1 17.715251457247312 -26.688753071691067 16.677585731352242 #
edge $-1 $472 1 $472 0 $269 $-1 forward 7 unknown #
vertex $-1 $270 $473 #
ellipse-curve $-1 5.0615004163563668 -29.005006104151747 11.481349270716642 0 -0.62932039886446345 0.77714595512881146 2.5 0 0 1 I I #
point $-1 7.5615004163563668 -30.629010731581232 13.486827926095668 #
edge $-1 $474 1 $474 0 $273 $-1 forward 7 unknown #
vertex $-1 $274 $475 #
ellipse-curve $-1 12.653751040890924 -29.005006104151747 11.481349270716642 0 -0.62932039886446345 0.77714595512881146 2.5 0 0 1 I I #
point $-1 15.153751040890924 -30.629010731581232 13.486827926095668 #
plane-surface $-1 58.622394482253483 0 0 -1 0 0 0 0 1 forward_v I I I I #
coedge $-1 $282 $280 $284 $403 reversed $181 $-1 #
edge $-1 $295 -16.677585731352242 $405 16.677585731352242 $294 $476 forward 7 unknown #
vertex $-1 $403 $477 #
straight-curve $-1 -58.622394482253483 -34.56926839147139 0 0 0 -1 I I #
edge $-1 $401 -34.56926839147139 $405 34.56926839147139 $399 $478 forward 7 unknown #
straight-curve $-1 0 -34.56926839147139 -16.677585731352242 -1 0 0 I I #
vertex $-1 $287 $479 #
straight-curve $-1 0 34.56926839147139 -16.677585731352242 1 0 0 I I #
point $-1 58.622394482253483 34.56926839147139 -16.677585731352242 #
point $-1 58.622394482253483 -34.56926839147139 -16.677585731352242 #
straight-curve $-1 -58.622394482253483 0 16.677585731352242 0 -1 0 I I #
point $-1 -58.622394482253483 34.56926839147139 16.677585731352242 #
point $-1 -58.622394482253483 -34.56926839147139 16.677585731352242 #
straight-curve $-1 58.622394482253483 -34.56926839147139 0 0 0 -1 I I #
straight-curve $-1 58.622394482253483 34.56926839147139 0 0 0 -1 I I #
plane-surface $-1 0 -34.56926839147139 0 0 1 0 0 0 1 forward_v I I I I #
coedge $-1 $480 $307 $321 $429 reversed $200 $-1 #
coedge $-1 $307 $480 $420 $481 reversed $200 $-1 #
edge $-1 $421 -4.9108458488403599 $418 4.9108458488403599 $308 $482 forward 7 unknown #
vertex $-1 $309 $483 #
straight-curve $-1 -66.724198381340287 34.56926839147139 6.8558940336715217 1 0 0 I I #
coedge $-1 $424 $310 $416 $481 forward $305 $-1 #
vertex $-1 $311 $484 #
straight-curve $-1 0 34.56926839147139 16.677585731352242 -1 0 0 I I #
point $-1 -58.622394482253483 34.56926839147139 16.677585731352242 #
coedge $-1 $314 $420 $316 $427 forward $305 $-1 #
straight-curve $-1 -58.622394482253483 0 16.677585731352242 0 1 0 I I #
coedge $-1 $317 $316 $480 $485 forward $318 $-1 #
edge $-1 $486 -74.82600228042709 $319 -58.622394482253483 $316 $487 forward 7 unknown #
point $-1 -58.622394482253483 -34.56926839147139 16.677585731352242 #
edge $-1 $430 -34.56926839147139 $418 34.56926839147139 $415 $488 forward 7 unknown #
vertex $-1 $429 $489 #
straight-curve $-1 -66.724198381340287 -34.56926839147139 6.8558940336715217 -1 0 0 I I #
plane-surface $-1 0 34.56926839147139 0 0 -1 0 0 0 -1 forward_v I I I I #
coedge $-1 $434 $437 $436 $490 forward $326 $-1 #
coedge $-1 $491 $433 $328 $435 reversed $326 $-1 #
edge $-1 $446 -34.56926839147139 $448 34.56926839147139 $434 $492 forward 7 unknown #
coedge $-1 $330 $329 $433 $490 reversed $129 $-1 #
coedge $-1 $433 $491 $331 $438 reversed $326 $-1 #
edge $-1 $439 -34.56926839147139 $442 34.56926839147139 $437 $493 forward 7 unknown #
vertex $-1 $438 $494 #
straight-curve $-1 66.724198381340287 -34.56926839147139 16.677585731352242 1 0 0 I I #
coedge $-1 $339 $333 $491 $495 forward $340 $-1 #
vertex $-1 $438 $496 #
straight-curve $-1 0 34.56926839147139 16.677585731352242 -1 0 0 I I #
point $-1 58.622394482253483 34.56926839147139 16.677585731352242 #
point $-1 58.622394482253483 -34.56926839147139 16.677585731352242 #
vertex $-1 $435 $497 #
straight-curve $-1 66.724198381340287 34.56926839147139 6.8558940336715217 1 0 0 I I #
vertex $-1 $490 $498 #
straight-curve $-1 66.724198381340287 -34.56926839147139 6.8558940336715217 -1 0 0 I I #
edge $-1 $451 34.028606080916148 $454 40.41012169142931 $347 $499 forward 7 unknown #
vertex $-1 $361 $500 #
straight-curve $-1 -42.418786684079876 -54.176902873697372 16.677585731352238 0 -1 0 I I #
edge $-1 $454 -25.638206206351764 $358 -7.9229547491044592 $357 $501 forward 7 unknown #
vertex $-1 $453 $502 #
straight-curve $-1 -42.418786684079876 -34.569268391471383 10.29607012083909 0 0.77714595512881146 0.62932039886446345 I I #
point $-1 -42.418786684079876 -26.688753071691067 16.677585731352242 #
point $-1 -24.703535226832571 -34.56926839147139 10.296070120839085 #
straight-curve $-1 66.724198381340287 -34.56926839147139 16.677585731352242 1 0 0 I I #
vertex $-1 $364 $503 #
point $-1 -34.857286267723509 -29.005006104151747 11.481349270716642 #
vertex $-1 $368 $504 #
point $-1 -27.265035643188945 -29.005006104151747 11.481349270716642 #
edge $-1 $464 34.028606080916148 $467 40.41012169142931 $373 $505 forward 7 unknown #
vertex $-1 $387 $506 #
straight-curve $-1 5.3290705182007514e-015 -54.176902873697372 16.677585731352238 0 -1 0 I I #
edge $-1 $467 -4.4288128643118245 $384 13.286438592935482 $383 $507 forward 7 unknown #
vertex $-1 $466 $508 #
straight-curve $-1 5.3290705182007514e-015 -34.569268391471383 10.29607012083909 0 0.77714595512881146 0.62932039886446345 I I #
point $-1 5.3290705182007514e-015 -26.688753071691067 16.677585731352242 #
point $-1 17.715251457247312 -34.56926839147139 10.296070120839085 #
straight-curve $-1 66.724198381340287 -34.56926839147139 16.677585731352242 1 0 0 I I #
vertex $-1 $390 $509 #
point $-1 7.5615004163563668 -29.005006104151747 11.481349270716642 #
vertex $-1 $394 $510 #
point $-1 15.153751040890924 -29.005006104151747 11.481349270716642 #
straight-curve $-1 -58.622394482253483 34.56926839147139 0 0 0 -1 I I #
point $-1 -58.622394482253483 -34.56926839147139 -16.677585731352242 #
straight-curve $-1 -58.622394482253483 0 -16.677585731352242 0 1 0 I I #
point $-1 -58.622394482253483 34.56926839147139 -16.677585731352242 #
coedge $-1 $416 $415 $426 $485 reversed $200 $-1 #
edge $-1 $421 -34.56926839147139 $486 34.56926839147139 $416 $511 forward 7 unknown #
straight-curve $-1 -74.82600228042709 34.56926839147139 11.766739882511882 0 0 -1 I I #
point $-1 -74.82600228042709 34.56926839147139 6.8558940336715217 #
point $-1 -74.82600228042709 34.56926839147139 16.677585731352242 #
edge $-1 $486 -4.9108458488403599 $430 4.9108458488403599 $480 $512 forward 7 unknown #
vertex $-1 $481 $513 #
straight-curve $-1 0 -34.56926839147139 16.677585731352242 1 0 0 I I #
straight-curve $-1 -74.82600228042709 0 6.8558940336715217 0 1 0 I I #
point $-1 -74.82600228042709 -34.56926839147139 6.8558940336715217 #
edge $-1 $439 -4.9108458488403599 $448 4.9108458488403599 $433 $514 forward 7 unknown #
coedge $-1 $437 $434 $441 $495 reversed $326 $-1 #
straight-curve $-1 74.82600228042709 0 6.8558940336715217 0 -1 0 I I #
straight-curve $-1 74.82600228042709 0 16.677585731352242 0 1 0 I I #
point $-1 74.82600228042709 -34.56926839147139 16.677585731352242 #
edge $-1 $442 -4.9108458488403599 $446 4.9108458488403599 $491 $515 forward 7 unknown #
point $-1 74.82600228042709 34.56926839147139 16.677585731352242 #
point $-1 74.82600228042709 34.56926839147139 6.8558940336715217 #
point $-1 74.82600228042709 -34.56926839147139 6.8558940336715217 #
straight-curve $-1 -42.418786684079876 -34.56926839147139 50.706191812268393 0 0 -1 I I #
point $-1 -42.418786684079876 -34.56926839147139 16.677585731352242 #
straight-curve $-1 -16.780580477728112 -34.56926839147139 10.296070120839079 1 0 0 I I #
point $-1 -42.418786684079876 -34.56926839147139 10.296070120839085 #
point $-1 -37.357286267723509 -27.431705106990592 9.538484382894616 #
point $-1 -29.765035643188945 -27.431705106990592 9.538484382894616 #
straight-curve $-1 5.3290705182007514e-015 -34.56926839147139 50.706191812268393 0 0 -1 I I #
point $-1 0 -34.56926839147139 16.677585731352242 #
straight-curve $-1 4.4288128643118299 -34.56926839147139 10.296070120839079 1 0 0 I I #
point $-1 5.3290705182007514e-015 -34.56926839147139 10.296070120839085 #
point $-1 5.0615004163563668 -27.431705106990592 9.538484382894616 #
point $-1 12.653751040890924 -27.431705106990592 9.538484382894616 #
straight-curve $-1 -74.82600228042709 0 16.677585731352242 0 -1 0 I I #
straight-curve $-1 -74.82600228042709 -34.56926839147139 11.766739882511882 0 0 -1 I I #
point $-1 -74.82600228042709 -34.56926839147139 16.677585731352242 #
straight-curve $-1 74.82600228042709 -34.56926839147139 11.766739882511882 0 0 -1 I I #
straight-curve $-1 74.82600228042709 34.56926839147139 11.766739882511882 0 0 -1 I I #
End-of-ACIS-data 