500 0 3 0           
7 Unknown 11 ACIS 5.0 NT 24 Fri Mar 26 00:30:12 1999 
-1 9.9999999999999995e-007 1e-010 
body $-1 $3 $-1 $4 #
body $-1 $5 $-1 $6 #
body $-1 $7 $-1 $8 #
lump $-1 $-1 $9 $0 #
transform $-1 1 0 0 0 1 0 0 0 1 77.283852656636242 53.244652148595584 24.360399264066611 1 rotate no_reflect no_shear #
lump $-1 $-1 $10 $1 #
transform $-1 1 0 0 0 1 0 0 0 1 77.283852656636242 53.244652148595584 24.360399264066611 1 rotate no_reflect no_shear #
lump $-1 $-1 $11 $2 #
transform $-1 1 0 0 0 1 0 0 0 1 77.283852656636242 53.244652148595584 24.360399264066611 1 rotate no_reflect no_shear #
shell $-1 $-1 $-1 $12 $-1 $3 #
shell $-1 $-1 $-1 $13 $-1 $5 #
shell $-1 $-1 $-1 $14 $-1 $7 #
face $-1 $15 $16 $9 $-1 $17 forward single #
face $-1 $18 $19 $10 $-1 $20 reversed single #
face $-1 $21 $22 $11 $-1 $23 forward single #
face $-1 $24 $25 $9 $-1 $26 reversed single #
loop $-1 $-1 $27 $12 #
plane-surface $-1 0 0 24.360399264066611 0 0 1 1 0 0 forward_v I I I I #
face $-1 $28 $29 $10 $-1 $30 reversed single #
loop $-1 $-1 $31 $13 #
plane-surface $-1 28.6902937077137 -139.67781718887949 129.48467091060985 -1 0 0 0 -0.55919291073839883 0.82903756765294845 forward_v I I I I #
face $-1 $32 $33 $11 $-1 $34 forward single #
loop $-1 $35 $36 $14 #
cone-surface $-1 19.573171833748205 -35.014202465341654 11.120375873036382 0 0.55919291073839883 -0.82903756765294845 4 0 0 1 I I 0 1 4 forward I I I I #
face $-1 $37 $38 $9 $-1 $39 reversed single #
loop $-1 $-1 $40 $15 #
plane-surface $-1 0 0 -24.360399264066611 0 0 1 1 0 0 forward_v I I I I #
coedge $-1 $41 $42 $43 $44 forward $16 $-1 #
face $-1 $45 $46 $10 $-1 $47 reversed single #
loop $-1 $-1 $48 $18 #
plane-surface $-1 19.573171833748205 -53.244652148595577 1.3422364599967125 0 -0.55919291073839883 0.82903756765294845 1 0 0 forward_v I I I I #
coedge $-1 $49 $50 $51 $52 reversed $19 $-1 #
face $-1 $-1 $53 $11 $-1 $54 forward single #
loop $-1 $55 $56 $21 #
cone-surface $-1 19.573171833748205 -32.728281508049655 7.7313587487351931 0 0.55919291073839883 -0.82903756765294845 2 0 0 1 I I -0.70710678118654746 0.70710678118654746 2 forward I I I I #
loop $-1 $-1 $57 $14 #
coedge $-1 $36 $36 $58 $59 reversed $22 $-1 #
face $-1 $60 $61 $9 $-1 $62 reversed single #
loop $-1 $-1 $63 $24 #
plane-surface $-1 0 -53.244652148595584 0 0 1 0 0 0 1 forward_v I I I I #
coedge $-1 $64 $65 $66 $67 forward $25 $-1 #
coedge $-1 $68 $27 $69 $70 forward $16 $-1 #
coedge $-1 $27 $68 $71 $72 forward $16 $-1 #
coedge $-1 $73 $74 $27 $44 reversed $75 $-1 #
edge $-1 $76 -53.244652148595584 $77 53.244652148595584 $43 $78 forward 7 unknown #
face $-1 $79 $80 $10 $-1 $81 reversed single #
loop $-1 $-1 $82 $28 #
plane-surface $-1 10.45604995978271 -139.67781718887949 129.48467091060985 1 0 0 0 0.55919291073839883 -0.82903756765294845 forward_v I I I I #
coedge $-1 $83 $84 $85 $86 reversed $29 $-1 #
coedge $-1 $50 $31 $87 $88 reversed $19 $-1 #
coedge $-1 $31 $49 $83 $89 reversed $19 $-1 #
coedge $-1 $85 $90 $31 $52 forward $91 $-1 #
edge $-1 $92 16.594256445844159 $93 50.720085540721655 $51 $94 forward 7 unknown #
loop $-1 $-1 $58 $32 #
plane-surface $-1 19.573171833748205 -53.244652148595577 1.3422364599967125 0 -0.55919291073839883 0.82903756765294845 1 0 0 forward_v I I I I #
loop $-1 $-1 $95 $21 #
coedge $-1 $56 $56 $57 $96 reversed $33 $-1 #
coedge $-1 $57 $57 $56 $96 forward $35 $-1 #
coedge $-1 $58 $58 $36 $59 forward $53 $-1 #
edge $-1 $97 2.8297688564631229e-016 $97 6.2831853071796004 $58 $98 forward 7 unknown #
face $-1 $99 $100 $9 $-1 $101 reversed single #
loop $-1 $-1 $102 $37 #
plane-surface $-1 -77.283852656636242 0 0 1 0 0 0 0 -1 forward_v I I I I #
coedge $-1 $103 $71 $104 $105 forward $38 $-1 #
coedge $-1 $106 $40 $103 $107 forward $25 $-1 #
coedge $-1 $40 $106 $108 $109 forward $25 $-1 #
coedge $-1 $74 $73 $40 $67 reversed $75 $-1 #
edge $-1 $110 -53.244652148595584 $111 53.244652148595584 $66 $112 forward 7 unknown #
coedge $-1 $42 $41 $113 $114 forward $16 $-1 #
coedge $-1 $115 $116 $41 $70 reversed $100 $-1 #
edge $-1 $77 -77.283852656636242 $117 77.283852656636242 $69 $118 forward 7 unknown #
coedge $-1 $63 $119 $42 $72 reversed $38 $-1 #
edge $-1 $120 -77.283852656636242 $76 77.283852656636242 $71 $121 forward 7 unknown #
coedge $-1 $66 $43 $119 $122 forward $75 $-1 #
coedge $-1 $43 $66 $115 $123 reversed $75 $-1 #
loop $-1 $-1 $73 $99 #
vertex $-1 $44 $124 #
vertex $-1 $44 $125 #
straight-curve $-1 77.283852656636242 0 24.360399264066611 0 1 0 I I #
face $-1 $-1 $91 $10 $-1 $126 forward single #
loop $-1 $-1 $127 $45 #
plane-surface $-1 0 -53.244652148595584 0 0 1 0 0 0 1 forward_v I I I I #
coedge $-1 $128 $129 $130 $131 reversed $46 $-1 #
coedge $-1 $132 $48 $50 $89 forward $29 $-1 #
coedge $-1 $48 $132 $128 $133 forward $29 $-1 #
coedge $-1 $130 $51 $48 $86 forward $91 $-1 #
edge $-1 $93 -18.903707790839597 $134 -0.66946404290860784 $85 $135 forward 7 unknown #
coedge $-1 $136 $137 $49 $88 forward $80 $-1 #
edge $-1 $138 -63.40009899530822 $92 -40.38193619123831 $87 $139 forward 7 unknown #
edge $-1 $93 -41.163187805215642 $138 8.6223131303995443e-015 $50 $140 forward 7 unknown #
coedge $-1 $51 $130 $136 $141 forward $91 $-1 #
loop $-1 $-1 $130 $79 #
vertex $-1 $88 $142 #
vertex $-1 $52 $143 #
straight-curve $-1 28.6902937077137 -69.838908594439744 24.360399264066615 0 1 0 I I #
coedge $-1 $95 $95 $-1 $144 reversed $55 $-1 #
edge $-1 $145 0 $145 6.2831853071796004 $56 $146 forward 7 unknown #
vertex $-1 $59 $147 #
ellipse-curve $-1 19.573171833748205 -36.181737601156847 12.851317862031653 0 -0.55919291073839883 0.82903756765294845 4 0 0 1 I I #
face $-1 $-1 $75 $9 $-1 $148 reversed single #
loop $-1 $-1 $115 $60 #
plane-surface $-1 0 53.244652148595584 0 0 -1 0 0 0 -1 forward_v I I I I #
coedge $-1 $149 $113 $116 $150 forward $61 $-1 #
coedge $-1 $119 $63 $64 $107 reversed $38 $-1 #
coedge $-1 $113 $149 $63 $105 reversed $61 $-1 #
edge $-1 $120 -24.360399264066611 $151 24.360399264066611 $104 $152 forward 7 unknown #
coedge $-1 $65 $64 $149 $153 forward $25 $-1 #
edge $-1 $111 -77.283852656636242 $151 77.283852656636242 $103 $154 forward 7 unknown #
coedge $-1 $116 $115 $65 $109 reversed $100 $-1 #
edge $-1 $155 -77.283852656636242 $110 77.283852656636242 $108 $156 forward 7 unknown #
vertex $-1 $67 $157 #
vertex $-1 $122 $158 #
straight-curve $-1 77.283852656636242 0 -24.360399264066611 0 -1 0 I I #
coedge $-1 $102 $104 $68 $114 reversed $61 $-1 #
edge $-1 $117 -53.244652148595584 $120 53.244652148595584 $113 $159 forward 7 unknown #
coedge $-1 $108 $69 $74 $123 forward $100 $-1 #
coedge $-1 $69 $108 $102 $150 reversed $100 $-1 #
vertex $-1 $70 $160 #
straight-curve $-1 0 53.244652148595584 24.360399264066611 -1 0 0 I I #
coedge $-1 $71 $103 $73 $122 reversed $38 $-1 #
vertex $-1 $114 $161 #
straight-curve $-1 0 -53.244652148595584 24.360399264066611 1 0 0 I I #
edge $-1 $76 -24.360399264066611 $111 24.360399264066611 $73 $162 forward 7 unknown #
edge $-1 $77 -24.360399264066611 $110 24.360399264066611 $74 $163 forward 7 unknown #
point $-1 77.283852656636242 -53.244652148595584 24.360399264066611 #
point $-1 77.283852656636242 53.244652148595584 24.360399264066611 #
plane-surface $-1 0 0 24.360399264066611 0 0 1 1 0 0 forward_v I I I I #
coedge $-1 $137 $136 $129 $164 forward $80 $-1 #
coedge $-1 $129 $82 $84 $133 reversed $46 $-1 #
coedge $-1 $82 $128 $127 $164 reversed $46 $-1 #
coedge $-1 $90 $85 $82 $131 forward $91 $-1 #
edge $-1 $134 -50.720085540721655 $165 -16.594256445844159 $130 $166 forward 7 unknown #
coedge $-1 $84 $83 $137 $167 reversed $29 $-1 #
edge $-1 $168 -8.6223131303995443e-015 $134 41.163187805215642 $128 $169 forward 7 unknown #
vertex $-1 $86 $170 #
straight-curve $-1 9.7865859168741025 -19.118823053718085 24.360399264066611 -1 0 0 I I #
coedge $-1 $127 $87 $90 $141 reversed $80 $-1 #
coedge $-1 $87 $127 $132 $167 forward $80 $-1 #
vertex $-1 $88 $171 #
straight-curve $-1 28.6902937077137 -53.244652148595584 64.742335455304925 0 0 1 I I #
straight-curve $-1 28.6902937077137 -53.244652148595577 1.3422364599967125 0 -0.82903756765294845 -0.55919291073839883 I I #
edge $-1 $165 10.45604995978271 $92 28.6902937077137 $136 $172 forward 7 unknown #
point $-1 28.6902937077137 -53.244652148595584 24.360399264066611 #
point $-1 28.6902937077137 -19.118823053718089 24.360399264066611 #
edge $-1 $173 1 $173 0 $95 $-1 forward 7 unknown #
vertex $-1 $96 $174 #
ellipse-curve $-1 19.573171833748205 -33.846667329526454 9.3894338840410896 0 -0.55919291073839883 0.82903756765294845 4 0 0 1 I I #
point $-1 23.573171833748205 -36.181737601156861 12.851317862031676 #
plane-surface $-1 77.283852656636242 0 0 -1 0 0 0 0 1 forward_v I I I I #
coedge $-1 $104 $102 $106 $153 reversed $61 $-1 #
edge $-1 $117 -24.360399264066611 $155 24.360399264066611 $116 $175 forward 7 unknown #
vertex $-1 $153 $176 #
straight-curve $-1 -77.283852656636242 -53.244652148595584 0 0 0 -1 I I #
edge $-1 $151 -53.244652148595584 $155 53.244652148595584 $149 $177 forward 7 unknown #
straight-curve $-1 0 -53.244652148595584 -24.360399264066611 -1 0 0 I I #
vertex $-1 $109 $178 #
straight-curve $-1 0 53.244652148595584 -24.360399264066611 1 0 0 I I #
point $-1 77.283852656636242 53.244652148595584 -24.360399264066611 #
point $-1 77.283852656636242 -53.244652148595584 -24.360399264066611 #
straight-curve $-1 -77.283852656636242 0 24.360399264066611 0 -1 0 I I #
point $-1 -77.283852656636242 53.244652148595584 24.360399264066611 #
point $-1 -77.283852656636242 -53.244652148595584 24.360399264066611 #
straight-curve $-1 77.283852656636242 -53.244652148595584 0 0 0 -1 I I #
straight-curve $-1 77.283852656636242 53.244652148595584 0 0 0 -1 I I #
edge $-1 $165 40.38193619123831 $168 63.40009899530822 $127 $179 forward 7 unknown #
vertex $-1 $141 $180 #
straight-curve $-1 10.45604995978271 -69.838908594439744 24.360399264066615 0 -1 0 I I #
edge $-1 $168 0.66946404290860784 $138 18.903707790839597 $137 $181 forward 7 unknown #
vertex $-1 $167 $182 #
straight-curve $-1 10.45604995978271 -53.244652148595577 1.3422364599967125 0 0.82903756765294845 0.55919291073839883 I I #
point $-1 10.45604995978271 -19.118823053718089 24.360399264066611 #
point $-1 28.6902937077137 -53.244652148595584 1.3422364599967076 #
straight-curve $-1 0 -53.244652148595584 24.360399264066611 1 0 0 I I #
vertex $-1 $144 $183 #
point $-1 23.573171833748205 -33.846667329526454 9.3894338840410896 #
straight-curve $-1 -77.283852656636242 53.244652148595584 0 0 0 -1 I I #
point $-1 -77.283852656636242 -53.244652148595584 -24.360399264066611 #
straight-curve $-1 -77.283852656636242 0 -24.360399264066611 0 1 0 I I #
point $-1 -77.283852656636242 53.244652148595584 -24.360399264066611 #
straight-curve $-1 10.45604995978271 -53.244652148595584 64.742335455304925 0 0 -1 I I #
point $-1 10.45604995978271 -53.244652148595584 24.360399264066611 #
straight-curve $-1 9.7865859168741025 -53.244652148595584 1.3422364599967076 1 0 0 I I #
point $-1 10.45604995978271 -53.244652148595584 1.3422364599967076 #
point $-1 19.573171833748205 -31.609895686572855 6.0732836134292967 #
End-of-ACIS-data 