500 0 14 0           
7 Unknown 11 ACIS 5.0 NT 24 Fri Mar 26 20:33:02 1999 
-1 9.9999999999999995e-007 1e-010 
body $-1 $14 $-1 $15 #
body $-1 $16 $-1 $17 #
body $-1 $18 $-1 $19 #
body $-1 $20 $-1 $21 #
body $-1 $22 $-1 $23 #
body $-1 $24 $-1 $25 #
body $-1 $26 $-1 $27 #
body $-1 $28 $-1 $29 #
body $-1 $30 $-1 $31 #
body $-1 $32 $-1 $33 #
body $-1 $34 $-1 $35 #
body $-1 $36 $-1 $37 #
body $-1 $38 $-1 $39 #
body $-1 $40 $-1 $41 #
lump $-1 $-1 $42 $0 #
transform $-1 1 0 0 0 1 0 0 0 1 49.278847621082186 23.311013943794006 9.6213512002520503 1 rotate no_reflect no_shear #
lump $-1 $-1 $43 $1 #
transform $-1 1 0 0 0 1 0 0 0 1 49.278847621082186 23.311013943794006 9.6213512002520503 1 rotate no_reflect no_shear #
lump $-1 $-1 $44 $2 #
transform $-1 1 0 0 0 1 0 0 0 1 49.278847621082186 23.311013943794006 9.6213512002520503 1 rotate no_reflect no_shear #
lump $-1 $-1 $45 $3 #
transform $-1 1 0 0 0 1 0 0 0 1 49.278847621082186 23.311013943794006 9.6213512002520503 1 rotate no_reflect no_shear #
lump $-1 $-1 $46 $4 #
transform $-1 1 0 0 0 1 0 0 0 1 49.278847621082186 23.311013943794006 9.6213512002520503 1 rotate no_reflect no_shear #
lump $-1 $-1 $47 $5 #
transform $-1 1 0 0 0 1 0 0 0 1 49.278847621082186 23.311013943794006 9.6213512002520503 1 rotate no_reflect no_shear #
lump $-1 $-1 $48 $6 #
transform $-1 1 0 0 0 1 0 0 0 1 49.278847621082186 23.311013943794006 9.6213512002520503 1 rotate no_reflect no_shear #
lump $-1 $-1 $49 $7 #
transform $-1 1 0 0 0 1 0 0 0 1 49.278847621082186 23.311013943794006 9.6213512002520503 1 rotate no_reflect no_shear #
lump $-1 $-1 $50 $8 #
transform $-1 1 0 0 0 1 0 0 0 1 49.278847621082186 23.311013943794006 9.6213512002520503 1 rotate no_reflect no_shear #
lump $-1 $-1 $51 $9 #
transform $-1 1 0 0 0 1 0 0 0 1 49.278847621082186 23.311013943794006 9.6213512002520503 1 rotate no_reflect no_shear #
lump $-1 $-1 $52 $10 #
transform $-1 1 0 0 0 1 0 0 0 1 49.278847621082186 23.311013943794006 9.6213512002520503 1 rotate no_reflect no_shear #
lump $-1 $-1 $53 $11 #
transform $-1 1 0 0 0 1 0 0 0 1 49.278847621082186 23.311013943794006 9.6213512002520503 1 rotate no_reflect no_shear #
lump $-1 $-1 $54 $12 #
transform $-1 1 0 0 0 1 0 0 0 1 49.278847621082186 23.311013943794006 9.6213512002520503 1 rotate no_reflect no_shear #
lump $-1 $-1 $55 $13 #
transform $-1 1 0 0 0 1 0 0 0 1 49.278847621082186 23.311013943794006 9.6213512002520503 1 rotate no_reflect no_shear #
shell $-1 $-1 $-1 $56 $-1 $14 #
shell $-1 $-1 $-1 $57 $-1 $16 #
shell $-1 $-1 $-1 $58 $-1 $18 #
shell $-1 $-1 $-1 $59 $-1 $20 #
shell $-1 $-1 $-1 $60 $-1 $22 #
shell $-1 $-1 $-1 $61 $-1 $24 #
shell $-1 $-1 $-1 $62 $-1 $26 #
shell $-1 $-1 $-1 $63 $-1 $28 #
shell $-1 $-1 $-1 $64 $-1 $30 #
shell $-1 $-1 $-1 $65 $-1 $32 #
shell $-1 $-1 $-1 $66 $-1 $34 #
shell $-1 $-1 $-1 $67 $-1 $36 #
shell $-1 $-1 $-1 $68 $-1 $38 #
shell $-1 $-1 $-1 $69 $-1 $40 #
face $-1 $70 $71 $42 $-1 $72 forward single #
face $-1 $73 $74 $43 $-1 $75 reversed single #
face $-1 $76 $77 $44 $-1 $78 reversed single #
face $-1 $79 $80 $45 $-1 $81 reversed single #
face $-1 $82 $83 $46 $-1 $84 forward single #
face $-1 $85 $86 $47 $-1 $87 reversed single #
face $-1 $88 $89 $48 $-1 $90 forward single #
face $-1 $91 $92 $49 $-1 $93 forward single #
face $-1 $94 $95 $50 $-1 $96 reversed single #
face $-1 $97 $98 $51 $-1 $99 forward single #
face $-1 $100 $101 $52 $-1 $102 forward single #
face $-1 $103 $104 $53 $-1 $105 reversed single #
face $-1 $106 $107 $54 $-1 $108 forward single #
face $-1 $109 $110 $55 $-1 $111 forward single #
face $-1 $112 $113 $42 $-1 $114 reversed single #
loop $-1 $-1 $115 $56 #
plane-surface $-1 0 0 9.6213512002520503 0 0 1 1 0 0 forward_v I I I I #
face $-1 $116 $117 $43 $-1 $118 reversed single #
loop $-1 $-1 $119 $57 #
plane-surface $-1 -48.448702574938174 -17.131365150108145 0 1 0 0 0 0 -1 forward_v I I I I #
face $-1 $120 $121 $44 $-1 $122 reversed single #
loop $-1 $-1 $123 $58 #
plane-surface $-1 -46.027288570821881 10.951716356422281 0 0 1 0 0 0 1 forward_v I I I I #
face $-1 $124 $125 $45 $-1 $126 reversed single #
loop $-1 $-1 $127 $59 #
plane-surface $-1 20.299778566960065 10.951716356422285 142.86945770505974 0 -1 0 -0.54463904215088732 0 -0.83867056331134215 forward_v I I I I #
face $-1 $128 $129 $46 $-1 $130 forward single #
loop $-1 $131 $132 $60 #
cone-surface $-1 46.619060138100345 7.9413385905557199 7.6425401780843947 -0.54463904215088732 0 -0.83867056331134215 0.83867056331134215 0 -0.54463904215088732 1 I I 0 1 1 forward I I I I #
face $-1 $133 $134 $47 $-1 $135 reversed single #
loop $-1 $-1 $136 $61 #
plane-surface $-1 -125.8725632646302 -7.0570612619702668 65.558636529506515 0 1 0 -0.77714596973225614 0 0.62932038083071107 forward_v I I I I #
face $-1 $137 $138 $48 $-1 $139 forward single #
loop $-1 $140 $141 $62 #
cone-surface $-1 -46.42566421158773 -6.0837786496380275 6.263150522665903 0.77714596973225614 0 -0.62932038083071107 0.15733009520767777 0 0.19428649243306403 1 I I 0 1 0.25 forward I I I I #
face $-1 $142 $143 $49 $-1 $144 forward single #
loop $-1 $145 $146 $63 #
cone-surface $-1 -46.42566421158773 -4.6238547311396694 6.263150522665903 0.77714596973225614 0 -0.62932038083071107 0.15733009520767777 0 0.19428649243306403 1 I I 0 1 0.25 forward I I I I #
face $-1 $147 $148 $50 $-1 $149 reversed single #
loop $-1 $-1 $150 $64 #
plane-surface $-1 -125.8725632646302 -1.7032445715814202 65.558636529506515 0 1 0 -0.77714596973225614 0 0.62932038083071107 forward_v I I I I #
face $-1 $151 $152 $51 $-1 $153 forward single #
loop $-1 $154 $155 $65 #
cone-surface $-1 -46.42566421158773 -0.72996195924918084 6.263150522665903 0.77714596973225614 0 -0.62932038083071107 0.15733009520767777 0 0.19428649243306403 1 I I 0 1 0.25 forward I I I I #
face $-1 $156 $157 $52 $-1 $158 forward single #
loop $-1 $159 $160 $66 #
cone-surface $-1 -46.42566421158773 0.72996195924917728 6.263150522665903 0.77714596973225614 0 -0.62932038083071107 0.15733009520767777 0 0.19428649243306403 1 I I 0 1 0.25 forward I I I I #
face $-1 $161 $162 $53 $-1 $163 reversed single #
loop $-1 $-1 $164 $67 #
plane-surface $-1 -125.8725632646302 3.6505721188074265 65.558636529506515 0 1 0 -0.77714596973225614 0 0.62932038083071107 forward_v I I I I #
face $-1 $165 $166 $54 $-1 $167 forward single #
loop $-1 $168 $169 $68 #
cone-surface $-1 -46.42566421158773 4.6238547311396658 6.263150522665903 0.77714596973225614 0 -0.62932038083071107 0.15733009520767777 0 0.19428649243306403 1 I I 0 1 0.25 forward I I I I #
face $-1 $170 $171 $55 $-1 $172 forward single #
loop $-1 $173 $174 $69 #
cone-surface $-1 -46.42566421158773 6.0837786496380239 6.263150522665903 0.77714596973225614 0 -0.62932038083071107 0.15733009520767777 0 0.19428649243306403 1 I I 0 1 0.25 forward I I I I #
face $-1 $175 $176 $42 $-1 $177 reversed single #
loop $-1 $-1 $178 $70 #
plane-surface $-1 0 0 -9.6213512002520503 0 0 1 1 0 0 forward_v I I I I #
coedge $-1 $179 $180 $181 $182 forward $71 $-1 #
face $-1 $183 $184 $43 $-1 $185 reversed single #
loop $-1 $-1 $186 $73 #
plane-surface $-1 -46.027288570821881 -10.951716356422285 0 0 -1 0 0 0 -1 forward_v I I I I #
coedge $-1 $187 $188 $189 $190 forward $74 $-1 #
face $-1 $191 $192 $44 $-1 $193 reversed single #
loop $-1 $-1 $194 $76 #
plane-surface $-1 -48.448702574938174 17.131365150108142 0 1 0 0 0 0 -1 forward_v I I I I #
coedge $-1 $195 $196 $197 $198 forward $77 $-1 #
face $-1 $199 $200 $45 $-1 $201 reversed single #
loop $-1 $-1 $202 $79 #
plane-surface $-1 -33.378590166331406 7.9413385905557199 60.21201991764616 0.54463904215088732 0 0.83867056331134215 0.83867056331134215 0 -0.54463904215088732 forward_v I I I I #
coedge $-1 $203 $204 $205 $206 reversed $80 $-1 #
face $-1 $-1 $207 $46 $-1 $208 forward single #
loop $-1 $209 $210 $82 #
cone-surface $-1 46.064273626384555 7.9413385905557199 6.7882438822097555 -0.54463904215088732 0 -0.83867056331134215 0.41933528165567108 0 -0.27231952107544366 1 I I -0.70710678118654813 0.70710678118654691 0.5 forward I I I I #
loop $-1 $-1 $211 $60 #
coedge $-1 $132 $132 $212 $213 reversed $83 $-1 #
face $-1 $214 $215 $47 $-1 $216 reversed single #
loop $-1 $-1 $217 $85 #
plane-surface $-1 -49.278847621082207 -5.3538166903888502 3.5342702259104755 -0.77714596973225614 0 0.62932038083071107 0.62932038083071107 0 0.77714596973225614 forward_v I I I I #
coedge $-1 $218 $219 $220 $221 reversed $86 $-1 #
face $-1 $-1 $222 $48 $-1 $223 forward single #
loop $-1 $224 $225 $88 #
cone-surface $-1 -45.939947980505067 -6.0837786496380275 5.8698252846467085 0.77714596973225614 0 -0.62932038083071107 0.078665047603838884 0 0.097143246216532017 1 I I -0.70710678118654746 0.70710678118654746 0.125 forward I I I I #
loop $-1 $-1 $226 $62 #
coedge $-1 $141 $141 $227 $228 reversed $89 $-1 #
face $-1 $-1 $229 $49 $-1 $230 forward single #
loop $-1 $231 $232 $91 #
cone-surface $-1 -45.939947980505067 -4.6238547311396694 5.8698252846467085 0.77714596973225614 0 -0.62932038083071107 0.078665047603838884 0 0.097143246216532017 1 I I -0.70710678118654746 0.70710678118654746 0.125 forward I I I I #
loop $-1 $-1 $233 $63 #
coedge $-1 $146 $146 $234 $235 reversed $92 $-1 #
face $-1 $236 $237 $50 $-1 $238 reversed single #
loop $-1 $-1 $239 $94 #
plane-surface $-1 -49.278847621082207 -3.5527136788005009e-015 3.5342702259104755 -0.77714596973225614 0 0.62932038083071107 0.62932038083071107 0 0.77714596973225614 forward_v I I I I #
coedge $-1 $240 $241 $242 $243 reversed $95 $-1 #
face $-1 $-1 $244 $51 $-1 $245 forward single #
loop $-1 $246 $247 $97 #
cone-surface $-1 -45.939947980505067 -0.72996195924918084 5.8698252846467085 0.77714596973225614 0 -0.62932038083071107 0.078665047603838884 0 0.097143246216532017 1 I I -0.70710678118654746 0.70710678118654746 0.125 forward I I I I #
loop $-1 $-1 $248 $65 #
coedge $-1 $155 $155 $249 $250 reversed $98 $-1 #
face $-1 $-1 $251 $52 $-1 $252 forward single #
loop $-1 $253 $254 $100 #
cone-surface $-1 -45.939947980505067 0.72996195924917728 5.8698252846467085 0.77714596973225614 0 -0.62932038083071107 0.078665047603838884 0 0.097143246216532017 1 I I -0.70710678118654746 0.70710678118654746 0.125 forward I I I I #
loop $-1 $-1 $255 $66 #
coedge $-1 $160 $160 $256 $257 reversed $101 $-1 #
face $-1 $258 $259 $53 $-1 $260 reversed single #
loop $-1 $-1 $261 $103 #
plane-surface $-1 -49.278847621082207 5.3538166903888431 3.5342702259104755 -0.77714596973225614 0 0.62932038083071107 0.62932038083071107 0 0.77714596973225614 forward_v I I I I #
coedge $-1 $262 $263 $264 $265 reversed $104 $-1 #
face $-1 $-1 $266 $54 $-1 $267 forward single #
loop $-1 $268 $269 $106 #
cone-surface $-1 -45.939947980505067 4.6238547311396658 5.8698252846467085 0.77714596973225614 0 -0.62932038083071107 0.078665047603838884 0 0.097143246216532017 1 I I -0.70710678118654746 0.70710678118654746 0.125 forward I I I I #
loop $-1 $-1 $270 $68 #
coedge $-1 $169 $169 $271 $272 reversed $107 $-1 #
face $-1 $-1 $273 $55 $-1 $274 forward single #
loop $-1 $275 $276 $109 #
cone-surface $-1 -45.939947980505067 6.0837786496380239 5.8698252846467085 0.77714596973225614 0 -0.62932038083071107 0.078665047603838884 0 0.097143246216532017 1 I I -0.70710678118654746 0.70710678118654746 0.125 forward I I I I #
loop $-1 $-1 $277 $69 #
coedge $-1 $174 $174 $278 $279 reversed $110 $-1 #
face $-1 $280 $281 $42 $-1 $282 reversed single #
loop $-1 $-1 $283 $112 #
plane-surface $-1 0 -23.311013943794006 0 0 1 0 0 0 1 forward_v I I I I #
coedge $-1 $284 $285 $286 $287 forward $113 $-1 #
coedge $-1 $288 $115 $289 $290 forward $71 $-1 #
coedge $-1 $115 $288 $291 $292 forward $71 $-1 #
coedge $-1 $293 $294 $115 $182 reversed $295 $-1 #
edge $-1 $296 -23.311013943794006 $297 23.311013943794006 $181 $298 forward 7 unknown #
face $-1 $299 $300 $43 $-1 $301 forward single #
loop $-1 $-1 $302 $116 #
plane-surface $-1 -43.605874566705587 -17.131365150108145 0 -1 0 0 0 0 1 forward_v I I I I #
coedge $-1 $303 $304 $305 $306 forward $117 $-1 #
coedge $-1 $307 $119 $308 $309 reversed $74 $-1 #
coedge $-1 $119 $307 $310 $311 reversed $74 $-1 #
coedge $-1 $304 $303 $119 $190 reversed $117 $-1 #
edge $-1 $312 -9.6213512002520503 $313 9.6213512002520503 $189 $314 forward 7 unknown #
face $-1 $315 $316 $44 $-1 $317 reversed single #
loop $-1 $-1 $318 $120 #
plane-surface $-1 -43.605874566705587 17.131365150108142 0 -1 0 0 0 0 1 forward_v I I I I #
coedge $-1 $319 $320 $321 $322 reversed $121 $-1 #
coedge $-1 $323 $123 $324 $325 reversed $77 $-1 #
coedge $-1 $123 $323 $326 $327 reversed $77 $-1 #
coedge $-1 $320 $319 $123 $198 reversed $121 $-1 #
edge $-1 $328 -9.6213512002520503 $329 9.6213512002520503 $197 $330 forward 7 unknown #
face $-1 $331 $332 $45 $-1 $333 forward single #
loop $-1 $-1 $334 $124 #
plane-surface $-1 20.299778566960065 4.930960824689155 142.86945770505974 0 1 0 0.54463904215088732 0 0.83867056331134215 forward_v I I I I #
coedge $-1 $335 $336 $337 $338 reversed $125 $-1 #
coedge $-1 $204 $127 $339 $340 reversed $80 $-1 #
coedge $-1 $127 $203 $335 $341 reversed $80 $-1 #
coedge $-1 $337 $342 $127 $206 forward $332 $-1 #
edge $-1 $343 -39.128958337602157 $344 -34.374317352919178 $205 $345 forward 7 unknown #
loop $-1 $-1 $212 $128 #
plane-surface $-1 -33.378590166331406 7.9413385905557199 60.21201991764616 0.54463904215088732 0 0.83867056331134215 0.83867056331134215 0 -0.54463904215088732 forward_v I I I I #
loop $-1 $-1 $346 $82 #
coedge $-1 $210 $210 $211 $347 reversed $129 $-1 #
coedge $-1 $211 $211 $210 $347 forward $131 $-1 #
coedge $-1 $212 $212 $132 $213 forward $207 $-1 #
edge $-1 $348 0 $348 6.2831853071796004 $212 $349 forward 7 unknown #
face $-1 $350 $351 $47 $-1 $352 reversed single #
loop $-1 $-1 $353 $133 #
plane-surface $-1 -125.8725632646302 -3.6505721188074336 65.558636529506515 0 -1 0 0.77714596973225614 0 -0.62932038083071107 forward_v I I I I #
coedge $-1 $354 $355 $356 $357 reversed $134 $-1 #
coedge $-1 $219 $136 $358 $359 reversed $86 $-1 #
coedge $-1 $136 $218 $354 $360 reversed $86 $-1 #
coedge $-1 $356 $361 $136 $221 forward $362 $-1 #
edge $-1 $363 13.657434011232915 $364 18.586654860489546 $220 $365 forward 7 unknown #
loop $-1 $-1 $227 $137 #
plane-surface $-1 -49.278847621082207 -5.3538166903888502 3.5342702259104755 -0.77714596973225614 0 0.62932038083071107 0.62932038083071107 0 0.77714596973225614 forward_v I I I I #
loop $-1 $-1 $366 $88 #
coedge $-1 $225 $225 $226 $367 reversed $138 $-1 #
coedge $-1 $226 $226 $225 $367 forward $140 $-1 #
coedge $-1 $227 $227 $141 $228 forward $222 $-1 #
edge $-1 $368 0 $368 6.2831853071796004 $227 $369 forward 7 unknown #
loop $-1 $-1 $234 $142 #
plane-surface $-1 -49.278847621082207 -5.3538166903888502 3.5342702259104755 -0.77714596973225614 0 0.62932038083071107 0.62932038083071107 0 0.77714596973225614 forward_v I I I I #
loop $-1 $-1 $370 $91 #
coedge $-1 $232 $232 $233 $371 reversed $143 $-1 #
coedge $-1 $233 $233 $232 $371 forward $145 $-1 #
coedge $-1 $234 $234 $146 $235 forward $229 $-1 #
edge $-1 $372 0 $372 6.2831853071796004 $234 $373 forward 7 unknown #
face $-1 $374 $375 $50 $-1 $376 forward single #
loop $-1 $-1 $377 $147 #
plane-surface $-1 -125.8725632646302 1.7032445715814131 65.558636529506515 0 -1 0 0.77714596973225614 0 -0.62932038083071107 forward_v I I I I #
coedge $-1 $378 $379 $380 $381 reversed $148 $-1 #
coedge $-1 $241 $150 $382 $383 reversed $95 $-1 #
coedge $-1 $150 $240 $378 $384 reversed $95 $-1 #
coedge $-1 $380 $385 $150 $243 forward $375 $-1 #
edge $-1 $386 13.657434011232915 $387 18.586654860489546 $242 $388 forward 7 unknown #
loop $-1 $-1 $249 $151 #
plane-surface $-1 -49.278847621082207 -3.5527136788005009e-015 3.5342702259104755 -0.77714596973225614 0 0.62932038083071107 0.62932038083071107 0 0.77714596973225614 forward_v I I I I #
loop $-1 $-1 $389 $97 #
coedge $-1 $247 $247 $248 $390 reversed $152 $-1 #
coedge $-1 $248 $248 $247 $390 forward $154 $-1 #
coedge $-1 $249 $249 $155 $250 forward $244 $-1 #
edge $-1 $391 0 $391 6.2831853071796004 $249 $392 forward 7 unknown #
loop $-1 $-1 $256 $156 #
plane-surface $-1 -49.278847621082207 -3.5527136788005009e-015 3.5342702259104755 -0.77714596973225614 0 0.62932038083071107 0.62932038083071107 0 0.77714596973225614 forward_v I I I I #
loop $-1 $-1 $393 $100 #
coedge $-1 $254 $254 $255 $394 reversed $157 $-1 #
coedge $-1 $255 $255 $254 $394 forward $159 $-1 #
coedge $-1 $256 $256 $160 $257 forward $251 $-1 #
edge $-1 $395 0 $395 6.2831853071796004 $256 $396 forward 7 unknown #
face $-1 $397 $398 $53 $-1 $399 forward single #
loop $-1 $-1 $400 $161 #
plane-surface $-1 -125.8725632646302 7.0570612619702597 65.558636529506515 0 -1 0 0.77714596973225614 0 -0.62932038083071107 forward_v I I I I #
coedge $-1 $401 $402 $403 $404 reversed $162 $-1 #
coedge $-1 $263 $164 $405 $406 reversed $104 $-1 #
coedge $-1 $164 $262 $401 $407 reversed $104 $-1 #
coedge $-1 $403 $408 $164 $265 forward $398 $-1 #
edge $-1 $409 13.657434011232915 $410 18.586654860489546 $264 $411 forward 7 unknown #
loop $-1 $-1 $271 $165 #
plane-surface $-1 -49.278847621082207 5.3538166903888431 3.5342702259104755 -0.77714596973225614 0 0.62932038083071107 0.62932038083071107 0 0.77714596973225614 forward_v I I I I #
loop $-1 $-1 $412 $106 #
coedge $-1 $269 $269 $270 $413 reversed $166 $-1 #
coedge $-1 $270 $270 $269 $413 forward $168 $-1 #
coedge $-1 $271 $271 $169 $272 forward $266 $-1 #
edge $-1 $414 0 $414 6.2831853071796004 $271 $415 forward 7 unknown #
loop $-1 $-1 $278 $170 #
plane-surface $-1 -49.278847621082207 5.3538166903888431 3.5342702259104755 -0.77714596973225614 0 0.62932038083071107 0.62932038083071107 0 0.77714596973225614 forward_v I I I I #
loop $-1 $-1 $416 $109 #
coedge $-1 $276 $276 $277 $417 reversed $171 $-1 #
coedge $-1 $277 $277 $276 $417 forward $173 $-1 #
coedge $-1 $278 $278 $174 $279 forward $273 $-1 #
edge $-1 $418 0 $418 6.2831853071796004 $278 $419 forward 7 unknown #
face $-1 $420 $421 $42 $-1 $422 reversed single #
loop $-1 $-1 $423 $175 #
plane-surface $-1 -49.278847621082186 0 0 1 0 0 0 0 -1 forward_v I I I I #
coedge $-1 $424 $291 $425 $426 forward $176 $-1 #
coedge $-1 $427 $178 $424 $428 forward $113 $-1 #
coedge $-1 $178 $427 $429 $430 forward $113 $-1 #
coedge $-1 $294 $293 $178 $287 reversed $295 $-1 #
edge $-1 $431 -23.311013943794006 $432 23.311013943794006 $286 $433 forward 7 unknown #
coedge $-1 $180 $179 $434 $435 forward $71 $-1 #
coedge $-1 $436 $437 $179 $290 reversed $421 $-1 #
edge $-1 $297 -49.278847621082186 $438 49.278847621082186 $289 $439 forward 7 unknown #
coedge $-1 $283 $440 $180 $292 reversed $176 $-1 #
edge $-1 $441 -49.278847621082186 $296 49.278847621082186 $291 $442 forward 7 unknown #
coedge $-1 $286 $181 $440 $443 forward $295 $-1 #
coedge $-1 $181 $286 $436 $444 reversed $295 $-1 #
loop $-1 $-1 $293 $420 #
vertex $-1 $182 $445 #
vertex $-1 $182 $446 #
straight-curve $-1 49.278847621082186 0 9.6213512002520503 0 1 0 I I #
face $-1 $447 $448 $43 $-1 $449 reversed single #
loop $-1 $-1 $450 $183 #
plane-surface $-1 0 0 9.6213512002520503 0 0 1 1 0 0 forward_v I I I I #
coedge $-1 $451 $452 $453 $454 reversed $184 $-1 #
coedge $-1 $189 $186 $455 $456 reversed $117 $-1 #
coedge $-1 $186 $189 $457 $458 reversed $117 $-1 #
coedge $-1 $452 $451 $186 $306 reversed $184 $-1 #
edge $-1 $459 -9.6213512002520503 $460 9.6213512002520503 $305 $461 forward 7 unknown #
coedge $-1 $188 $187 $462 $463 reversed $74 $-1 #
coedge $-1 $455 $464 $187 $309 forward $448 $-1 #
edge $-1 $465 -14.745331368739933 $313 -2.3860337813682122 $308 $466 forward 7 unknown #
coedge $-1 $467 $457 $188 $311 forward $300 $-1 #
edge $-1 $312 2.3860337813682122 $468 14.745331368739933 $310 $469 forward 7 unknown #
vertex $-1 $311 $470 #
vertex $-1 $309 $471 #
straight-curve $-1 -48.448702574938174 -10.951716356422285 0 0 0 -1 I I #
face $-1 $472 $473 $44 $-1 $474 forward single #
loop $-1 $-1 $475 $191 #
plane-surface $-1 0 0 -9.6213512002520503 0 0 1 1 0 0 forward_v I I I I #
coedge $-1 $476 $477 $323 $478 forward $192 $-1 #
coedge $-1 $197 $194 $479 $480 reversed $121 $-1 #
coedge $-1 $194 $197 $481 $482 reversed $121 $-1 #
coedge $-1 $483 $484 $194 $322 forward $485 $-1 #
edge $-1 $486 -9.6213512002520503 $487 9.6213512002520503 $321 $488 forward 7 unknown #
coedge $-1 $196 $195 $318 $478 reversed $77 $-1 #
coedge $-1 $479 $475 $195 $325 forward $316 $-1 #
edge $-1 $489 20.592230281294647 $329 25.435058289527234 $324 $490 forward 7 unknown #
coedge $-1 $491 $481 $196 $327 forward $473 $-1 #
edge $-1 $328 -25.435058289527234 $492 -20.592230281294647 $326 $493 forward 7 unknown #
vertex $-1 $327 $494 #
vertex $-1 $325 $495 #
straight-curve $-1 -48.448702574938174 10.951716356422281 0 0 0 -1 I I #
face $-1 $-1 $496 $45 $-1 $497 reversed single #
loop $-1 $-1 $205 $199 #
plane-surface $-1 0 0 9.6213512002520503 0 0 1 1 0 0 forward_v I I I I #
coedge $-1 $498 $499 $500 $501 reversed $200 $-1 #
coedge $-1 $502 $202 $204 $341 forward $125 $-1 #
coedge $-1 $202 $502 $498 $503 forward $125 $-1 #
coedge $-1 $500 $205 $202 $338 forward $332 $-1 #
edge $-1 $344 -6.9810470611444249 $504 -0.96029152941129503 $337 $505 forward 7 unknown #
coedge $-1 $506 $507 $203 $340 forward $496 $-1 #
edge $-1 $508 -64.901077668175191 $343 -61.813377652277822 $339 $509 forward 7 unknown #
edge $-1 $344 92.888435830089492 $508 98.557695242164371 $204 $510 forward 7 unknown #
coedge $-1 $205 $500 $506 $511 forward $332 $-1 #
vertex $-1 $206 $512 #
vertex $-1 $206 $513 #
straight-curve $-1 10.149889283480032 10.951716356422285 9.6213512002520503 -1 0 0 I I #
coedge $-1 $346 $346 $-1 $514 reversed $209 $-1 #
edge $-1 $515 0 $515 6.2831853071796004 $210 $516 forward 7 unknown #
vertex $-1 $213 $517 #
ellipse-curve $-1 46.901527128740696 7.9413385905557199 8.0775011923033748 0.54463904215088732 0 0.83867056331134215 0.83867056331134215 0 -0.54463904215088732 1 I I #
face $-1 $-1 $362 $47 $-1 $518 forward single #
loop $-1 $-1 $519 $214 #
plane-surface $-1 -49.278847621082186 0 0 1 0 0 0 0 -1 forward_v I I I I #
coedge $-1 $520 $521 $522 $523 reversed $215 $-1 #
coedge $-1 $524 $217 $219 $360 forward $134 $-1 #
coedge $-1 $217 $524 $520 $525 forward $134 $-1 #
coedge $-1 $522 $220 $217 $357 forward $362 $-1 #
edge $-1 $364 -4.3801529167758417 $526 -0.97366377361300849 $356 $527 forward 7 unknown #
coedge $-1 $528 $529 $218 $359 forward $351 $-1 #
edge $-1 $530 -29.245048038842757 $363 -23.157967064501207 $358 $531 forward 7 unknown #
edge $-1 $364 -7.832609588696327 $530 -3.377697699050819e-014 $219 $532 forward 7 unknown #
coedge $-1 $220 $522 $528 $533 forward $362 $-1 #
loop $-1 $-1 $522 $350 #
vertex $-1 $359 $534 #
vertex $-1 $221 $535 #
straight-curve $-1 -62.936281632315101 -7.0570612619702668 9.6213512002520503 1 0 0 I I #
coedge $-1 $366 $366 $-1 $536 reversed $224 $-1 #
edge $-1 $537 0 $537 6.2831853071796004 $225 $538 forward 7 unknown #
vertex $-1 $228 $539 #
ellipse-curve $-1 -46.814237196453874 -6.0837786496380275 6.5778107130812717 -0.77714596973225614 0 0.62932038083071107 0.15733009520767777 0 0.19428649243306403 1 I I #
coedge $-1 $370 $370 $-1 $540 reversed $231 $-1 #
edge $-1 $541 0 $541 6.2831853071796004 $232 $542 forward 7 unknown #
vertex $-1 $235 $543 #
ellipse-curve $-1 -46.814237196453874 -4.6238547311396694 6.5778107130812717 -0.77714596973225614 0 0.62932038083071107 0.15733009520767777 0 0.19428649243306403 1 I I #
face $-1 $-1 $544 $50 $-1 $545 reversed single #
loop $-1 $-1 $242 $236 #
plane-surface $-1 0 0 9.6213512002520503 0 0 1 1 0 0 forward_v I I I I #
coedge $-1 $546 $547 $548 $549 reversed $237 $-1 #
coedge $-1 $550 $239 $241 $384 forward $148 $-1 #
coedge $-1 $239 $550 $546 $551 forward $148 $-1 #
coedge $-1 $548 $242 $239 $381 forward $375 $-1 #
edge $-1 $387 -1.7032445715814184 $552 1.7032445715814148 $380 $553 forward 7 unknown #
coedge $-1 $554 $555 $240 $383 forward $544 $-1 #
edge $-1 $556 -29.245048038842757 $386 -23.157967064501207 $382 $557 forward 7 unknown #
edge $-1 $387 -7.832609588696327 $556 -3.377697699050819e-014 $241 $558 forward 7 unknown #
coedge $-1 $242 $548 $554 $559 forward $375 $-1 #
vertex $-1 $383 $560 #
vertex $-1 $243 $561 #
straight-curve $-1 -62.936281632315101 -1.7032445715814202 9.6213512002520503 1 0 0 I I #
coedge $-1 $389 $389 $-1 $562 reversed $246 $-1 #
edge $-1 $563 0 $563 6.2831853071796004 $247 $564 forward 7 unknown #
vertex $-1 $250 $565 #
ellipse-curve $-1 -46.814237196453874 -0.72996195924918084 6.5778107130812717 -0.77714596973225614 0 0.62932038083071107 0.15733009520767777 0 0.19428649243306403 1 I I #
coedge $-1 $393 $393 $-1 $566 reversed $253 $-1 #
edge $-1 $567 0 $567 6.2831853071796004 $254 $568 forward 7 unknown #
vertex $-1 $257 $569 #
ellipse-curve $-1 -46.814237196453874 0.72996195924917728 6.5778107130812717 -0.77714596973225614 0 0.62932038083071107 0.15733009520767777 0 0.19428649243306403 1 I I #
face $-1 $-1 $570 $53 $-1 $571 reversed single #
loop $-1 $-1 $264 $258 #
plane-surface $-1 0 0 9.6213512002520503 0 0 1 1 0 0 forward_v I I I I #
coedge $-1 $572 $573 $574 $575 reversed $259 $-1 #
coedge $-1 $576 $261 $263 $407 forward $162 $-1 #
coedge $-1 $261 $576 $572 $577 forward $162 $-1 #
coedge $-1 $574 $264 $261 $404 forward $398 $-1 #
edge $-1 $410 0.97366377361300493 $578 4.3801529167758382 $403 $579 forward 7 unknown #
coedge $-1 $580 $581 $262 $406 forward $570 $-1 #
edge $-1 $582 -29.245048038842757 $409 -23.157967064501207 $405 $583 forward 7 unknown #
edge $-1 $410 -7.832609588696327 $582 -3.377697699050819e-014 $263 $584 forward 7 unknown #
coedge $-1 $264 $574 $580 $585 forward $398 $-1 #
vertex $-1 $265 $586 #
vertex $-1 $265 $587 #
straight-curve $-1 -62.936281632315101 3.6505721188074265 9.6213512002520503 1 0 0 I I #
coedge $-1 $412 $412 $-1 $588 reversed $268 $-1 #
edge $-1 $589 0 $589 6.2831853071796004 $269 $590 forward 7 unknown #
vertex $-1 $272 $591 #
ellipse-curve $-1 -46.814237196453874 4.6238547311396658 6.5778107130812717 -0.77714596973225614 0 0.62932038083071107 0.15733009520767777 0 0.19428649243306403 1 I I #
coedge $-1 $416 $416 $-1 $592 reversed $275 $-1 #
edge $-1 $593 0 $593 6.2831853071796004 $276 $594 forward 7 unknown #
vertex $-1 $279 $595 #
ellipse-curve $-1 -46.814237196453874 6.0837786496380239 6.5778107130812717 -0.77714596973225614 0 0.62932038083071107 0.15733009520767777 0 0.19428649243306403 1 I I #
face $-1 $-1 $295 $42 $-1 $596 reversed single #
loop $-1 $-1 $436 $280 #
plane-surface $-1 0 23.311013943794006 0 0 -1 0 0 0 -1 forward_v I I I I #
coedge $-1 $597 $434 $437 $598 forward $281 $-1 #
coedge $-1 $440 $283 $284 $428 reversed $176 $-1 #
coedge $-1 $434 $597 $283 $426 reversed $281 $-1 #
edge $-1 $441 -9.6213512002520503 $599 9.6213512002520503 $425 $600 forward 7 unknown #
coedge $-1 $285 $284 $597 $601 forward $113 $-1 #
edge $-1 $432 -49.278847621082186 $599 49.278847621082186 $424 $602 forward 7 unknown #
coedge $-1 $437 $436 $285 $430 reversed $421 $-1 #
edge $-1 $603 -49.278847621082186 $431 49.278847621082186 $429 $604 forward 7 unknown #
vertex $-1 $287 $605 #
vertex $-1 $443 $606 #
straight-curve $-1 49.278847621082186 0 -9.6213512002520503 0 -1 0 I I #
coedge $-1 $423 $425 $288 $435 reversed $281 $-1 #
edge $-1 $438 -23.311013943794006 $441 23.311013943794006 $434 $607 forward 7 unknown #
coedge $-1 $429 $289 $294 $444 forward $421 $-1 #
coedge $-1 $289 $429 $423 $598 reversed $421 $-1 #
vertex $-1 $290 $608 #
straight-curve $-1 0 23.311013943794006 9.6213512002520503 -1 0 0 I I #
coedge $-1 $291 $424 $293 $443 reversed $176 $-1 #
vertex $-1 $435 $609 #
straight-curve $-1 0 -23.311013943794006 9.6213512002520503 1 0 0 I I #
edge $-1 $296 -9.6213512002520503 $432 9.6213512002520503 $293 $610 forward 7 unknown #
edge $-1 $297 -9.6213512002520503 $431 9.6213512002520503 $294 $611 forward 7 unknown #
point $-1 49.278847621082186 -23.311013943794006 9.6213512002520503 #
point $-1 49.278847621082186 23.311013943794006 9.6213512002520503 #
face $-1 $-1 $612 $43 $-1 $613 reversed single #
loop $-1 $-1 $614 $299 #
plane-surface $-1 0 0 -9.6213512002520503 0 0 1 1 0 0 forward_v I I I I #
coedge $-1 $457 $467 $452 $615 forward $300 $-1 #
coedge $-1 $305 $302 $614 $616 reversed $184 $-1 #
coedge $-1 $302 $305 $450 $615 reversed $184 $-1 #
coedge $-1 $617 $618 $302 $454 forward $612 $-1 #
edge $-1 $619 -9.6213512002520503 $620 9.6213512002520503 $453 $621 forward 7 unknown #
coedge $-1 $614 $308 $303 $456 forward $448 $-1 #
edge $-1 $313 -25.435058289527234 $460 -20.592230281294647 $455 $622 forward 7 unknown #
coedge $-1 $310 $450 $304 $458 forward $300 $-1 #
edge $-1 $459 20.592230281294647 $312 25.435058289527234 $457 $623 forward 7 unknown #
vertex $-1 $458 $624 #
vertex $-1 $456 $625 #
straight-curve $-1 -43.605874566705587 -10.951716356422285 0 0 0 -1 I I #
coedge $-1 $618 $617 $307 $463 forward $612 $-1 #
edge $-1 $468 -9.6213512002520503 $465 9.6213512002520503 $462 $626 forward 7 unknown #
coedge $-1 $308 $614 $618 $627 forward $448 $-1 #
vertex $-1 $309 $628 #
straight-curve $-1 -48.448702574938174 -8.5656825750540726 -9.6213512002520503 0 1 0 I I #
coedge $-1 $450 $310 $617 $629 forward $300 $-1 #
vertex $-1 $629 $630 #
straight-curve $-1 -48.448702574938174 -8.5656825750540726 9.6213512002520503 0 -1 0 I I #
point $-1 -48.448702574938174 -10.951716356422285 9.6213512002520503 #
point $-1 -48.448702574938174 -10.951716356422285 -9.6213512002520503 #
face $-1 $-1 $485 $44 $-1 $631 reversed single #
loop $-1 $-1 $491 $315 #
plane-surface $-1 0 0 9.6213512002520503 0 0 1 1 0 0 forward_v I I I I #
coedge $-1 $324 $632 $476 $633 forward $316 $-1 #
coedge $-1 $634 $318 $475 $633 reversed $192 $-1 #
coedge $-1 $318 $634 $491 $635 reversed $192 $-1 #
edge $-1 $492 -9.6213512002520503 $489 9.6213512002520503 $318 $636 forward 7 unknown #
coedge $-1 $632 $324 $319 $480 forward $316 $-1 #
edge $-1 $329 2.3860337813682104 $486 14.745331368739931 $479 $637 forward 7 unknown #
coedge $-1 $326 $638 $320 $482 forward $473 $-1 #
edge $-1 $487 -14.745331368739931 $328 -2.3860337813682104 $481 $639 forward 7 unknown #
coedge $-1 $640 $321 $638 $641 reversed $485 $-1 #
coedge $-1 $321 $640 $632 $642 reversed $485 $-1 #
loop $-1 $-1 $640 $472 #
vertex $-1 $642 $643 #
vertex $-1 $322 $644 #
straight-curve $-1 -48.448702574938174 23.311013943794006 0 0 0 1 I I #
vertex $-1 $325 $645 #
straight-curve $-1 -23.01364428541094 10.951716356422281 -9.6213512002520503 -1 0 0 I I #
coedge $-1 $638 $326 $477 $635 forward $473 $-1 #
vertex $-1 $327 $646 #
straight-curve $-1 -23.01364428541094 10.951716356422281 9.6213512002520503 1 0 0 I I #
point $-1 -48.448702574938174 10.951716356422281 9.6213512002520503 #
point $-1 -48.448702574938174 10.951716356422281 -9.6213512002520503 #
loop $-1 $-1 $339 $331 #
plane-surface $-1 49.278847621082186 0 0 -1 0 0 0 0 1 forward_v I I I I #
coedge $-1 $499 $334 $336 $503 reversed $200 $-1 #
coedge $-1 $334 $498 $647 $648 reversed $200 $-1 #
coedge $-1 $342 $337 $334 $501 forward $332 $-1 #
edge $-1 $504 34.374317352919178 $649 39.128958337602157 $500 $650 forward 7 unknown #
coedge $-1 $336 $335 $507 $651 reversed $125 $-1 #
edge $-1 $652 -98.557695242164371 $504 -92.888435830089492 $498 $653 forward 7 unknown #
vertex $-1 $338 $654 #
straight-curve $-1 44.524206636399214 3.9706692952778599 9.6213512002520432 0 -1 0 I I #
coedge $-1 $647 $339 $342 $511 reversed $496 $-1 #
coedge $-1 $339 $647 $502 $651 forward $496 $-1 #
vertex $-1 $340 $655 #
straight-curve $-1 49.278847621082186 10.951716356422285 71.434728852529872 0 0 1 I I #
straight-curve $-1 -33.378590166331406 10.951716356422285 60.21201991764616 0.83867056331134215 0 -0.54463904215088732 I I #
edge $-1 $649 4.930960824689155 $343 10.951716356422285 $506 $656 forward 7 unknown #
point $-1 49.278847621082186 10.951716356422285 9.6213512002520503 #
point $-1 44.524206636399214 10.951716356422285 9.6213512002520503 #
edge $-1 $657 1 $657 0 $346 $-1 forward 7 unknown #
vertex $-1 $347 $658 #
ellipse-curve $-1 46.33659314746 7.9413385905557199 7.2075791638654261 0.54463904215088732 0 0.83867056331134215 0.83867056331134215 0 -0.54463904215088732 1 I I #
point $-1 47.740197692052028 7.9413385905557199 7.5328621501524768 #
plane-surface $-1 0 0 9.6213512002520503 0 0 1 1 0 0 forward_v I I I I #
coedge $-1 $529 $528 $521 $659 forward $351 $-1 #
coedge $-1 $521 $353 $355 $525 reversed $215 $-1 #
coedge $-1 $353 $520 $519 $659 reversed $215 $-1 #
coedge $-1 $361 $356 $353 $523 forward $362 $-1 #
edge $-1 $526 -18.586654860489546 $660 -13.657434011232915 $522 $661 forward 7 unknown #
coedge $-1 $355 $354 $529 $662 reversed $134 $-1 #
edge $-1 $663 3.377697699050819e-014 $526 7.832609588696327 $520 $664 forward 7 unknown #
vertex $-1 $357 $665 #
straight-curve $-1 -44.349626771825548 -2.6769083451944251 9.6213512002520503 0 1 0 I I #
coedge $-1 $519 $358 $361 $533 reversed $351 $-1 #
coedge $-1 $358 $519 $524 $662 forward $351 $-1 #
vertex $-1 $359 $666 #
straight-curve $-1 -49.278847621082186 -7.0570612619702668 32.779318264753257 0 0 1 I I #
straight-curve $-1 -49.278847621082207 -7.0570612619702668 3.5342702259104755 -0.62932038083071107 0 -0.77714596973225614 I I #
edge $-1 $660 3.6505721188074336 $363 7.0570612619702668 $528 $667 forward 7 unknown #
point $-1 -49.278847621082186 -7.0570612619702668 9.6213512002520503 #
point $-1 -44.349626771825555 -7.0570612619702668 9.6213512002520503 #
edge $-1 $668 1 $668 0 $366 $-1 forward 7 unknown #
vertex $-1 $367 $669 #
ellipse-curve $-1 -46.0370912267216 -6.0837786496380275 5.9484903322505476 -0.77714596973225614 0 0.62932038083071107 0.15733009520767777 0 0.19428649243306403 1 I I #
point $-1 -46.656907101246176 -6.0837786496380275 6.7720972055143225 #
edge $-1 $670 1 $670 0 $370 $-1 forward 7 unknown #
vertex $-1 $371 $671 #
ellipse-curve $-1 -46.0370912267216 -4.6238547311396694 5.9484903322505476 -0.77714596973225614 0 0.62932038083071107 0.15733009520767777 0 0.19428649243306403 1 I I #
point $-1 -46.656907101246176 -4.6238547311396694 6.7720972055143225 #
loop $-1 $-1 $382 $374 #
plane-surface $-1 -49.278847621082186 0 0 1 0 0 0 0 -1 forward_v I I I I #
coedge $-1 $547 $377 $379 $551 reversed $237 $-1 #
coedge $-1 $377 $546 $672 $673 reversed $237 $-1 #
coedge $-1 $385 $380 $377 $549 forward $375 $-1 #
edge $-1 $552 -18.586654860489546 $674 -13.657434011232915 $548 $675 forward 7 unknown #
coedge $-1 $379 $378 $555 $676 reversed $148 $-1 #
edge $-1 $677 3.377697699050819e-014 $552 7.832609588696327 $546 $678 forward 7 unknown #
vertex $-1 $381 $679 #
straight-curve $-1 -44.349626771825548 -1.7763568394002505e-015 9.6213512002520503 0 1 0 I I #
coedge $-1 $672 $382 $385 $559 reversed $544 $-1 #
coedge $-1 $382 $672 $550 $676 forward $544 $-1 #
vertex $-1 $383 $680 #
straight-curve $-1 -49.278847621082186 -1.7032445715814202 32.779318264753257 0 0 1 I I #
straight-curve $-1 -49.278847621082207 -1.7032445715814202 3.5342702259104755 -0.62932038083071107 0 -0.77714596973225614 I I #
edge $-1 $674 -1.7032445715814131 $386 1.7032445715814202 $554 $681 forward 7 unknown #
point $-1 -49.278847621082186 -1.7032445715814202 9.6213512002520503 #
point $-1 -44.349626771825555 -1.7032445715814202 9.6213512002520503 #
edge $-1 $682 1 $682 0 $389 $-1 forward 7 unknown #
vertex $-1 $390 $683 #
ellipse-curve $-1 -46.0370912267216 -0.72996195924918084 5.9484903322505476 -0.77714596973225614 0 0.62932038083071107 0.15733009520767777 0 0.19428649243306403 1 I I #
point $-1 -46.656907101246176 -0.72996195924918084 6.7720972055143225 #
edge $-1 $684 1 $684 0 $393 $-1 forward 7 unknown #
vertex $-1 $394 $685 #
ellipse-curve $-1 -46.0370912267216 0.72996195924917728 5.9484903322505476 -0.77714596973225614 0 0.62932038083071107 0.15733009520767777 0 0.19428649243306403 1 I I #
point $-1 -46.656907101246176 0.72996195924917728 6.7720972055143225 #
loop $-1 $-1 $405 $397 #
plane-surface $-1 -49.278847621082186 0 0 1 0 0 0 0 -1 forward_v I I I I #
coedge $-1 $573 $400 $402 $577 reversed $259 $-1 #
coedge $-1 $400 $572 $686 $687 reversed $259 $-1 #
coedge $-1 $408 $403 $400 $575 forward $398 $-1 #
edge $-1 $578 -18.586654860489546 $688 -13.657434011232915 $574 $689 forward 7 unknown #
coedge $-1 $402 $401 $581 $690 reversed $162 $-1 #
edge $-1 $691 3.377697699050819e-014 $578 7.832609588696327 $572 $692 forward 7 unknown #
vertex $-1 $404 $693 #
straight-curve $-1 -44.349626771825548 2.6769083451944216 9.6213512002520503 0 1 0 I I #
coedge $-1 $686 $405 $408 $585 reversed $570 $-1 #
coedge $-1 $405 $686 $576 $690 forward $570 $-1 #
vertex $-1 $406 $694 #
straight-curve $-1 -49.278847621082186 3.6505721188074265 32.779318264753257 0 0 1 I I #
straight-curve $-1 -49.278847621082207 3.6505721188074265 3.5342702259104755 -0.62932038083071107 0 -0.77714596973225614 I I #
edge $-1 $688 -7.0570612619702597 $409 -3.6505721188074265 $580 $695 forward 7 unknown #
point $-1 -49.278847621082186 3.6505721188074265 9.6213512002520503 #
point $-1 -44.349626771825555 3.6505721188074265 9.6213512002520503 #
edge $-1 $696 1 $696 0 $412 $-1 forward 7 unknown #
vertex $-1 $413 $697 #
ellipse-curve $-1 -46.0370912267216 4.6238547311396658 5.9484903322505476 -0.77714596973225614 0 0.62932038083071107 0.15733009520767777 0 0.19428649243306403 1 I I #
point $-1 -46.656907101246176 4.6238547311396658 6.7720972055143225 #
edge $-1 $698 1 $698 0 $416 $-1 forward 7 unknown #
vertex $-1 $417 $699 #
ellipse-curve $-1 -46.0370912267216 6.0837786496380239 5.9484903322505476 -0.77714596973225614 0 0.62932038083071107 0.15733009520767777 0 0.19428649243306403 1 I I #
point $-1 -46.656907101246176 6.0837786496380239 6.7720972055143225 #
plane-surface $-1 49.278847621082186 0 0 -1 0 0 0 0 1 forward_v I I I I #
coedge $-1 $425 $423 $427 $601 reversed $281 $-1 #
edge $-1 $438 -9.6213512002520503 $603 9.6213512002520503 $437 $700 forward 7 unknown #
vertex $-1 $601 $701 #
straight-curve $-1 -49.278847621082186 -23.311013943794006 0 0 0 -1 I I #
edge $-1 $599 -23.311013943794006 $603 23.311013943794006 $597 $702 forward 7 unknown #
straight-curve $-1 0 -23.311013943794006 -9.6213512002520503 -1 0 0 I I #
vertex $-1 $430 $703 #
straight-curve $-1 0 23.311013943794006 -9.6213512002520503 1 0 0 I I #
point $-1 49.278847621082186 23.311013943794006 -9.6213512002520503 #
point $-1 49.278847621082186 -23.311013943794006 -9.6213512002520503 #
straight-curve $-1 -49.278847621082186 0 9.6213512002520503 0 -1 0 I I #
point $-1 -49.278847621082186 23.311013943794006 9.6213512002520503 #
point $-1 -49.278847621082186 -23.311013943794006 9.6213512002520503 #
straight-curve $-1 49.278847621082186 -23.311013943794006 0 0 0 -1 I I #
straight-curve $-1 49.278847621082186 23.311013943794006 0 0 0 -1 I I #
loop $-1 $-1 $453 $447 #
plane-surface $-1 0 -23.311013943794006 0 0 1 0 0 0 1 forward_v I I I I #
coedge $-1 $464 $455 $451 $616 forward $448 $-1 #
edge $-1 $620 -14.745331368739933 $459 -2.3860337813682122 $450 $704 forward 7 unknown #
edge $-1 $460 2.3860337813682122 $619 14.745331368739933 $614 $705 forward 7 unknown #
coedge $-1 $462 $453 $467 $629 reversed $612 $-1 #
coedge $-1 $453 $462 $464 $627 reversed $612 $-1 #
vertex $-1 $627 $706 #
vertex $-1 $454 $707 #
straight-curve $-1 -43.605874566705587 -23.311013943794006 0 0 0 1 I I #
straight-curve $-1 -23.01364428541094 -10.951716356422285 -9.6213512002520503 1 0 0 I I #
straight-curve $-1 -23.01364428541094 -10.951716356422285 9.6213512002520503 -1 0 0 I I #
point $-1 -43.605874566705587 -10.951716356422285 9.6213512002520503 #
point $-1 -43.605874566705587 -10.951716356422285 -9.6213512002520503 #
straight-curve $-1 -48.448702574938174 -23.311013943794006 0 0 0 -1 I I #
edge $-1 $619 43.605874566705587 $465 48.448702574938174 $618 $708 forward 7 unknown #
point $-1 -48.448702574938174 -23.311013943794006 -9.6213512002520503 #
edge $-1 $468 -48.448702574938174 $620 -43.605874566705587 $617 $709 forward 7 unknown #
point $-1 -48.448702574938174 -23.311013943794006 9.6213512002520503 #
plane-surface $-1 0 23.311013943794006 0 0 -1 0 0 0 -1 forward_v I I I I #
coedge $-1 $475 $479 $484 $642 forward $316 $-1 #
edge $-1 $710 -14.745331368739931 $489 -2.3860337813682104 $475 $711 forward 7 unknown #
coedge $-1 $477 $476 $640 $712 reversed $192 $-1 #
edge $-1 $492 2.3860337813682104 $713 14.745331368739931 $491 $714 forward 7 unknown #
straight-curve $-1 -43.605874566705587 10.951716356422281 0 0 0 -1 I I #
straight-curve $-1 -48.448702574938174 8.5656825750540708 -9.6213512002520503 0 1 0 I I #
coedge $-1 $481 $491 $483 $641 forward $473 $-1 #
straight-curve $-1 -48.448702574938174 8.5656825750540708 9.6213512002520503 0 -1 0 I I #
coedge $-1 $484 $483 $634 $712 forward $485 $-1 #
edge $-1 $713 43.605874566705587 $487 48.448702574938174 $483 $715 forward 7 unknown #
edge $-1 $486 -48.448702574938174 $710 -43.605874566705587 $484 $716 forward 7 unknown #
point $-1 -48.448702574938174 23.311013943794002 -9.6213512002520503 #
point $-1 -48.448702574938174 23.311013943794002 9.6213512002520503 #
point $-1 -43.605874566705587 10.951716356422281 -9.6213512002520503 #
point $-1 -43.605874566705587 10.951716356422281 9.6213512002520503 #
coedge $-1 $507 $506 $499 $648 forward $496 $-1 #
edge $-1 $649 61.813377652277822 $652 64.901077668175191 $647 $717 forward 7 unknown #
vertex $-1 $511 $718 #
straight-curve $-1 10.149889283480032 4.930960824689155 9.6213512002520503 1 0 0 I I #
edge $-1 $652 0.96029152941129503 $508 6.9810470611444249 $507 $719 forward 7 unknown #
vertex $-1 $651 $720 #
straight-curve $-1 -33.378590166331406 4.930960824689155 60.21201991764616 -0.83867056331134215 0 0.54463904215088732 I I #
point $-1 44.524206636399214 4.930960824689155 9.6213512002520503 #
point $-1 49.278847621082178 10.951716356422285 6.5336511843546887 #
straight-curve $-1 49.278847621082186 0 9.6213512002520503 0 1 0 I I #
vertex $-1 $514 $721 #
point $-1 47.17526371077134 7.9413385905557199 6.6629401217145388 #
edge $-1 $660 23.157967064501207 $663 29.245048038842757 $519 $722 forward 7 unknown #
vertex $-1 $533 $723 #
straight-curve $-1 -62.936281632315101 -3.6505721188074336 9.6213512002520503 -1 0 0 I I #
edge $-1 $663 0.97366377361300849 $530 4.3801529167758417 $529 $724 forward 7 unknown #
vertex $-1 $662 $725 #
straight-curve $-1 -49.278847621082207 -3.6505721188074336 3.5342702259104755 0.62932038083071107 0 0.77714596973225614 I I #
point $-1 -44.349626771825555 -3.6505721188074336 9.6213512002520503 #
point $-1 -49.278847621082186 -7.0570612619702668 3.5342702259105017 #
straight-curve $-1 -49.278847621082186 0 9.6213512002520503 0 -1 0 I I #
vertex $-1 $536 $726 #
point $-1 -45.879761131513924 -6.0837786496380275 6.1427768246836116 #
vertex $-1 $540 $727 #
point $-1 -45.879761131513924 -4.6238547311396694 6.1427768246836116 #
coedge $-1 $555 $554 $547 $673 forward $544 $-1 #
edge $-1 $674 23.157967064501207 $677 29.245048038842757 $672 $728 forward 7 unknown #
vertex $-1 $559 $729 #
straight-curve $-1 -62.936281632315101 1.7032445715814131 9.6213512002520503 -1 0 0 I I #
edge $-1 $677 -1.7032445715814148 $556 1.7032445715814184 $555 $730 forward 7 unknown #
vertex $-1 $676 $731 #
straight-curve $-1 -49.278847621082207 1.7032445715814131 3.5342702259104755 0.62932038083071107 0 0.77714596973225614 I I #
point $-1 -44.349626771825555 1.7032445715814131 9.6213512002520503 #
point $-1 -49.278847621082186 -1.7032445715814202 3.5342702259105017 #
straight-curve $-1 -49.278847621082186 0 9.6213512002520503 0 -1 0 I I #
vertex $-1 $562 $732 #
point $-1 -45.879761131513924 -0.72996195924918084 6.1427768246836116 #
vertex $-1 $566 $733 #
point $-1 -45.879761131513924 0.72996195924917728 6.1427768246836116 #
coedge $-1 $581 $580 $573 $687 forward $570 $-1 #
edge $-1 $688 23.157967064501207 $691 29.245048038842757 $686 $734 forward 7 unknown #
vertex $-1 $585 $735 #
straight-curve $-1 -62.936281632315101 7.0570612619702597 9.6213512002520503 -1 0 0 I I #
edge $-1 $691 -4.3801529167758382 $582 -0.97366377361300493 $581 $736 forward 7 unknown #
vertex $-1 $690 $737 #
straight-curve $-1 -49.278847621082207 7.0570612619702597 3.5342702259104755 0.62932038083071107 0 0.77714596973225614 I I #
point $-1 -44.349626771825555 7.0570612619702597 9.6213512002520503 #
point $-1 -49.278847621082186 3.6505721188074265 3.5342702259105017 #
straight-curve $-1 -49.278847621082186 0 9.6213512002520503 0 -1 0 I I #
vertex $-1 $588 $738 #
point $-1 -45.879761131513924 4.6238547311396658 6.1427768246836116 #
vertex $-1 $592 $739 #
point $-1 -45.879761131513924 6.0837786496380239 6.1427768246836116 #
straight-curve $-1 -49.278847621082186 23.311013943794006 0 0 0 -1 I I #
point $-1 -49.278847621082186 -23.311013943794006 -9.6213512002520503 #
straight-curve $-1 -49.278847621082186 0 -9.6213512002520503 0 1 0 I I #
point $-1 -49.278847621082186 23.311013943794006 -9.6213512002520503 #
straight-curve $-1 -43.605874566705587 -8.5656825750540726 9.6213512002520503 0 1 0 I I #
straight-curve $-1 -43.605874566705587 -8.5656825750540726 -9.6213512002520503 0 -1 0 I I #
point $-1 -43.605874566705587 -23.311013943794006 -9.6213512002520503 #
point $-1 -43.605874566705587 -23.311013943794006 9.6213512002520503 #
straight-curve $-1 0 -23.311013943794006 -9.6213512002520503 -1 0 0 I I #
straight-curve $-1 0 -23.311013943794006 9.6213512002520503 1 0 0 I I #
vertex $-1 $712 $740 #
straight-curve $-1 -43.605874566705587 8.5656825750540708 -9.6213512002520503 0 -1 0 I I #
edge $-1 $713 -9.6213512002520503 $710 9.6213512002520503 $640 $741 forward 7 unknown #
vertex $-1 $641 $742 #
straight-curve $-1 -43.605874566705587 8.5656825750540708 9.6213512002520503 0 1 0 I I #
straight-curve $-1 0 23.311013943794006 9.6213512002520503 -1 0 0 I I #
straight-curve $-1 0 23.311013943794006 -9.6213512002520503 1 0 0 I I #
straight-curve $-1 49.278847621082186 4.930960824689155 71.434728852529872 0 0 -1 I I #
point $-1 49.278847621082186 4.930960824689155 9.6213512002520503 #
straight-curve $-1 49.278847621082186 3.9706692952778599 6.5336511843546852 0 1 0 I I #
point $-1 49.278847621082178 4.930960824689155 6.5336511843546887 #
point $-1 45.791954105309109 7.9413385905557199 6.3689086005540849 #
straight-curve $-1 -49.278847621082186 -3.6505721188074336 32.779318264753257 0 0 -1 I I #
point $-1 -49.278847621082186 -3.6505721188074336 9.6213512002520503 #
straight-curve $-1 -49.278847621082186 -2.6769083451944251 3.5342702259104972 0 -1 0 I I #
point $-1 -49.278847621082186 -3.6505721188074336 3.5342702259105017 #
point $-1 -45.842804734288535 -6.0837786496380275 5.7911602370428694 #
point $-1 -45.842804734288535 -4.6238547311396694 5.7911602370428694 #
straight-curve $-1 -49.278847621082186 1.7032445715814131 32.779318264753257 0 0 -1 I I #
point $-1 -49.278847621082186 1.7032445715814131 9.6213512002520503 #
straight-curve $-1 -49.278847621082186 -1.7763568394002505e-015 3.5342702259104972 0 -1 0 I I #
point $-1 -49.278847621082186 1.7032445715814131 3.5342702259105017 #
point $-1 -45.842804734288535 -0.72996195924918084 5.7911602370428694 #
point $-1 -45.842804734288535 0.72996195924917728 5.7911602370428694 #
straight-curve $-1 -49.278847621082186 7.0570612619702597 32.779318264753257 0 0 -1 I I #
point $-1 -49.278847621082186 7.0570612619702597 9.6213512002520503 #
straight-curve $-1 -49.278847621082186 2.6769083451944216 3.5342702259104972 0 -1 0 I I #
point $-1 -49.278847621082186 7.0570612619702597 3.5342702259105017 #
point $-1 -45.842804734288535 4.6238547311396658 5.7911602370428694 #
point $-1 -45.842804734288535 6.0837786496380239 5.7911602370428694 #
point $-1 -43.605874566705587 23.311013943794002 -9.6213512002520503 #
straight-curve $-1 -43.605874566705587 23.311013943794006 0 0 0 -1 I I #
point $-1 -43.605874566705587 23.311013943794002 9.6213512002520503 #
End-of-ACIS-data 