500 0 8 0           
7 Unknown 11 ACIS 5.0 NT 24 Thu Mar 25 17:17:38 1999 
-1 9.9999999999999995e-007 1e-010 
body $-1 $8 $-1 $9 #
body $-1 $10 $-1 $11 #
body $-1 $12 $-1 $13 #
body $-1 $14 $-1 $15 #
body $-1 $16 $-1 $17 #
body $-1 $18 $-1 $19 #
body $-1 $20 $-1 $21 #
body $-1 $22 $-1 $23 #
lump $-1 $-1 $24 $0 #
transform $-1 1 0 0 0 1 0 0 0 1 50.006408886989959 28.977528917004889 10.517409463916614 1 rotate no_reflect no_shear #
lump $-1 $-1 $25 $1 #
transform $-1 1 0 0 0 1 0 0 0 1 50.006408886989959 28.977528917004889 10.517409463916614 1 rotate no_reflect no_shear #
lump $-1 $-1 $26 $2 #
transform $-1 1 0 0 0 1 0 0 0 1 50.006408886989959 28.977528917004889 10.517409463916614 1 rotate no_reflect no_shear #
lump $-1 $-1 $27 $3 #
transform $-1 1 0 0 0 1 0 0 0 1 50.006408886989959 28.977528917004889 10.517409463916614 1 rotate no_reflect no_shear #
lump $-1 $-1 $28 $4 #
transform $-1 1 0 0 0 1 0 0 0 1 50.006408886989959 28.977528917004889 10.517409463916614 1 rotate no_reflect no_shear #
lump $-1 $-1 $29 $5 #
transform $-1 1 0 0 0 1 0 0 0 1 50.006408886989959 28.977528917004889 10.517409463916614 1 rotate no_reflect no_shear #
lump $-1 $-1 $30 $6 #
transform $-1 1 0 0 0 1 0 0 0 1 50.006408886989959 28.977528917004889 10.517409463916614 1 rotate no_reflect no_shear #
lump $-1 $-1 $31 $7 #
transform $-1 1 0 0 0 1 0 0 0 1 50.006408886989959 28.977528917004889 10.517409463916614 1 rotate no_reflect no_shear #
shell $-1 $-1 $-1 $32 $-1 $8 #
shell $-1 $-1 $-1 $33 $-1 $10 #
shell $-1 $-1 $-1 $34 $-1 $12 #
shell $-1 $-1 $-1 $35 $-1 $14 #
shell $-1 $-1 $-1 $36 $-1 $16 #
shell $-1 $-1 $-1 $37 $-1 $18 #
shell $-1 $-1 $-1 $38 $-1 $20 #
shell $-1 $-1 $-1 $39 $-1 $22 #
face $-1 $40 $41 $24 $-1 $42 reversed single #
face $-1 $43 $44 $25 $-1 $45 forward single #
face $-1 $46 $47 $26 $-1 $48 reversed single #
face $-1 $49 $50 $27 $-1 $51 forward single #
face $-1 $52 $53 $28 $-1 $54 forward single #
face $-1 $55 $56 $29 $-1 $57 reversed single #
face $-1 $58 $59 $30 $-1 $60 forward single #
face $-1 $61 $62 $31 $-1 $63 forward single #
face $-1 $64 $65 $24 $-1 $66 forward single #
loop $-1 $-1 $67 $32 #
plane-surface $-1 0 -28.977528917004889 0 0 1 0 0 0 1 forward_v I I I I #
face $-1 $68 $69 $25 $-1 $70 reversed single #
loop $-1 $-1 $71 $33 #
plane-surface $-1 0 -28.977528917004889 0 0 1 0 0 0 1 forward_v I I I I #
face $-1 $72 $73 $26 $-1 $74 reversed single #
loop $-1 $-1 $75 $34 #
plane-surface $-1 -31.747354149231569 46.878096515127808 115.9507738152258 1 0 0 0 -0.62932039886446345 -0.77714595512881146 forward_v I I I I #
face $-1 $76 $77 $27 $-1 $78 forward single #
loop $-1 $79 $80 $35 #
cone-surface $-1 -26.671431888644143 22.989999686205646 5.4237161884469955 0 -0.62932039886446345 -0.77714595512881146 1.5 0 0 1 I I 0 1 1.5 forward I I I I #
face $-1 $81 $82 $28 $-1 $83 forward single #
loop $-1 $84 $85 $36 #
cone-surface $-1 -19.057548497763001 22.989999686205646 5.4237161884469955 0 -0.62932039886446345 -0.77714595512881146 1.5 0 0 1 I I 0 1 1.5 forward I I I I #
face $-1 $86 $87 $29 $-1 $88 reversed single #
loop $-1 $-1 $89 $37 #
plane-surface $-1 13.981626237175583 46.878096515127808 115.9507738152258 1 0 0 0 -0.62932039886446345 -0.77714595512881146 forward_v I I I I #
face $-1 $90 $91 $30 $-1 $92 forward single #
loop $-1 $93 $94 $38 #
cone-surface $-1 19.057548497763008 22.989999686205646 5.4237161884469955 0 -0.62932039886446345 -0.77714595512881146 1.5 0 0 1 I I 0 1 1.5 forward I I I I #
face $-1 $95 $96 $31 $-1 $97 forward single #
loop $-1 $98 $99 $39 #
cone-surface $-1 26.67143188864415 22.989999686205646 5.4237161884469955 0 -0.62932039886446345 -0.77714595512881146 1.5 0 0 1 I I 0 1 1.5 forward I I I I #
face $-1 $100 $101 $24 $-1 $102 reversed single #
loop $-1 $-1 $103 $40 #
plane-surface $-1 0 0 10.517409463916614 0 0 1 1 0 0 forward_v I I I I #
coedge $-1 $104 $105 $106 $107 reversed $41 $-1 #
face $-1 $108 $109 $25 $-1 $110 reversed single #
loop $-1 $-1 $111 $43 #
plane-surface $-1 0 0 -10.517409463916614 0 0 1 1 0 0 forward_v I I I I #
coedge $-1 $112 $113 $114 $115 forward $44 $-1 #
face $-1 $116 $117 $26 $-1 $118 reversed single #
loop $-1 $-1 $119 $46 #
plane-surface $-1 -22.864490193203572 -16.062009857952134 38.226217021142403 0 0.62932039886446345 0.77714595512881146 1 0 0 forward_v I I I I #
coedge $-1 $120 $121 $122 $123 reversed $47 $-1 #
face $-1 $-1 $124 $27 $-1 $125 forward single #
loop $-1 $126 $127 $49 #
cone-surface $-1 -26.671431888644143 21.941486063801783 4.1289097241739157 0 -0.62932039886446345 -0.77714595512881146 0.75 0 0 1 I I -0.70710678118654757 0.70710678118654757 0.75 forward I I I I #
loop $-1 $-1 $128 $35 #
coedge $-1 $80 $80 $129 $130 reversed $50 $-1 #
face $-1 $-1 $131 $28 $-1 $132 forward single #
loop $-1 $133 $134 $52 #
cone-surface $-1 -19.057548497763001 21.941486063801783 4.1289097241739157 0 -0.62932039886446345 -0.77714595512881146 0.75 0 0 1 I I -0.70710678118654757 0.70710678118654757 0.75 forward I I I I #
loop $-1 $-1 $135 $36 #
coedge $-1 $85 $85 $136 $137 reversed $53 $-1 #
face $-1 $138 $139 $29 $-1 $140 reversed single #
loop $-1 $-1 $141 $55 #
plane-surface $-1 22.864490193203579 -16.062009857952134 38.226217021142403 0 0.62932039886446345 0.77714595512881146 1 0 0 forward_v I I I I #
coedge $-1 $142 $143 $144 $145 reversed $56 $-1 #
face $-1 $-1 $146 $30 $-1 $147 forward single #
loop $-1 $148 $149 $58 #
cone-surface $-1 19.057548497763008 21.941486063801783 4.1289097241739157 0 -0.62932039886446345 -0.77714595512881146 0.75 0 0 1 I I -0.70710678118654757 0.70710678118654757 0.75 forward I I I I #
loop $-1 $-1 $150 $38 #
coedge $-1 $94 $94 $151 $152 reversed $59 $-1 #
face $-1 $-1 $153 $31 $-1 $154 forward single #
loop $-1 $155 $156 $61 #
cone-surface $-1 26.67143188864415 21.941486063801783 4.1289097241739157 0 -0.62932039886446345 -0.77714595512881146 0.75 0 0 1 I I -0.70710678118654757 0.70710678118654757 0.75 forward I I I I #
loop $-1 $-1 $157 $39 #
coedge $-1 $99 $99 $158 $159 reversed $62 $-1 #
face $-1 $160 $161 $24 $-1 $162 reversed single #
loop $-1 $-1 $163 $64 #
plane-surface $-1 0 0 -10.517409463916614 0 0 1 1 0 0 forward_v I I I I #
coedge $-1 $164 $165 $166 $167 forward $65 $-1 #
coedge $-1 $168 $67 $169 $170 reversed $41 $-1 #
coedge $-1 $67 $168 $171 $172 forward $41 $-1 #
coedge $-1 $173 $163 $67 $107 forward $101 $-1 #
edge $-1 $174 -50.006408886989959 $175 50.006408886989959 $67 $176 forward 7 unknown #
face $-1 $177 $178 $25 $-1 $179 reversed single #
loop $-1 $-1 $180 $68 #
plane-surface $-1 -43.307920628272811 -38.09952879495296 0 0 1 0 0 0 1 forward_v I I I I #
coedge $-1 $181 $182 $113 $183 forward $69 $-1 #
coedge $-1 $184 $71 $185 $186 reversed $44 $-1 #
coedge $-1 $71 $184 $111 $183 reversed $44 $-1 #
coedge $-1 $187 $188 $71 $115 reversed $178 $-1 #
edge $-1 $189 -10.517409463916614 $190 10.517409463916614 $114 $191 forward 7 unknown #
face $-1 $192 $193 $26 $-1 $194 forward single #
loop $-1 $-1 $195 $72 #
plane-surface $-1 -13.981626237175576 46.878096515127808 115.9507738152258 -1 0 0 0 0.62932039886446345 0.77714595512881146 forward_v I I I I #
coedge $-1 $196 $197 $198 $199 reversed $73 $-1 #
coedge $-1 $121 $75 $200 $201 reversed $47 $-1 #
coedge $-1 $75 $120 $196 $202 reversed $47 $-1 #
coedge $-1 $198 $203 $75 $123 forward $193 $-1 #
edge $-1 $204 -5.5384806594409852 $205 5.2835311556464433 $122 $206 forward 7 unknown #
loop $-1 $-1 $129 $76 #
plane-surface $-1 -22.864490193203572 -16.062009857952134 38.226217021142403 0 0.62932039886446345 0.77714595512881146 1 0 0 forward_v I I I I #
loop $-1 $-1 $207 $49 #
coedge $-1 $127 $127 $128 $208 reversed $77 $-1 #
coedge $-1 $128 $128 $127 $208 forward $79 $-1 #
coedge $-1 $129 $129 $80 $130 forward $124 $-1 #
edge $-1 $209 -3.2760996952319538e-016 $209 6.2831853071796004 $129 $210 forward 7 unknown #
loop $-1 $-1 $136 $81 #
plane-surface $-1 -22.864490193203572 -16.062009857952134 38.226217021142403 0 0.62932039886446345 0.77714595512881146 1 0 0 forward_v I I I I #
loop $-1 $-1 $211 $52 #
coedge $-1 $134 $134 $135 $212 reversed $82 $-1 #
coedge $-1 $135 $135 $134 $212 forward $84 $-1 #
coedge $-1 $136 $136 $85 $137 forward $131 $-1 #
edge $-1 $213 -3.2760996952319538e-016 $213 6.2831853071796004 $136 $214 forward 7 unknown #
face $-1 $215 $216 $29 $-1 $217 forward single #
loop $-1 $-1 $218 $86 #
plane-surface $-1 31.747354149231576 46.878096515127808 115.9507738152258 -1 0 0 0 0.62932039886446345 0.77714595512881146 forward_v I I I I #
coedge $-1 $219 $220 $221 $222 reversed $87 $-1 #
coedge $-1 $143 $89 $223 $224 reversed $56 $-1 #
coedge $-1 $89 $142 $219 $225 reversed $56 $-1 #
coedge $-1 $221 $226 $89 $145 forward $216 $-1 #
edge $-1 $227 -5.5384806594409852 $228 5.2835311556464433 $144 $229 forward 7 unknown #
loop $-1 $-1 $151 $90 #
plane-surface $-1 22.864490193203579 -16.062009857952134 38.226217021142403 0 0.62932039886446345 0.77714595512881146 1 0 0 forward_v I I I I #
loop $-1 $-1 $230 $58 #
coedge $-1 $149 $149 $150 $231 reversed $91 $-1 #
coedge $-1 $150 $150 $149 $231 forward $93 $-1 #
coedge $-1 $151 $151 $94 $152 forward $146 $-1 #
edge $-1 $232 -3.2760996952319538e-016 $232 6.2831853071796004 $151 $233 forward 7 unknown #
loop $-1 $-1 $158 $95 #
plane-surface $-1 22.864490193203579 -16.062009857952134 38.226217021142403 0 0.62932039886446345 0.77714595512881146 1 0 0 forward_v I I I I #
loop $-1 $-1 $234 $61 #
coedge $-1 $156 $156 $157 $235 reversed $96 $-1 #
coedge $-1 $157 $157 $156 $235 forward $98 $-1 #
coedge $-1 $158 $158 $99 $159 forward $153 $-1 #
edge $-1 $236 -3.2760996952319538e-016 $236 6.2831853071796004 $158 $237 forward 7 unknown #
face $-1 $238 $239 $24 $-1 $240 reversed single #
loop $-1 $-1 $241 $100 #
plane-surface $-1 -50.006408886989959 0 0 1 0 0 0 0 -1 forward_v I I I I #
coedge $-1 $106 $242 $243 $244 forward $101 $-1 #
coedge $-1 $245 $103 $246 $247 forward $65 $-1 #
coedge $-1 $103 $245 $168 $248 forward $65 $-1 #
coedge $-1 $169 $249 $103 $167 reversed $250 $-1 #
edge $-1 $251 -28.977528917004889 $252 28.977528917004889 $166 $253 forward 7 unknown #
coedge $-1 $105 $104 $165 $248 reversed $41 $-1 #
coedge $-1 $243 $166 $104 $170 forward $250 $-1 #
edge $-1 $251 -10.517409463916614 $174 10.517409463916614 $169 $254 forward 7 unknown #
coedge $-1 $255 $256 $105 $172 reversed $161 $-1 #
edge $-1 $257 -10.517409463916614 $175 10.517409463916614 $171 $258 forward 7 unknown #
coedge $-1 $242 $106 $256 $259 forward $101 $-1 #
vertex $-1 $170 $260 #
vertex $-1 $259 $261 #
straight-curve $-1 0 -28.977528917004889 -10.517409463916614 -1 0 0 I I #
face $-1 $262 $263 $25 $-1 $264 reversed single #
loop $-1 $-1 $114 $108 #
plane-surface $-1 -44.807920628272811 -33.538528855978925 0 1 0 0 0 0 -1 forward_v I I I I #
coedge $-1 $265 $266 $267 $268 forward $109 $-1 #
coedge $-1 $269 $111 $270 $271 forward $69 $-1 #
coedge $-1 $111 $269 $187 $272 forward $69 $-1 #
edge $-1 $189 -44.807920628272811 $273 -41.807920628272811 $111 $274 forward 7 unknown #
coedge $-1 $113 $112 $275 $276 forward $44 $-1 #
coedge $-1 $277 $278 $112 $186 forward $279 $-1 #
edge $-1 $280 41.807920628272811 $190 44.807920628272811 $185 $281 forward 7 unknown #
coedge $-1 $267 $114 $182 $272 reversed $178 $-1 #
coedge $-1 $114 $267 $277 $282 reversed $178 $-1 #
vertex $-1 $183 $283 #
vertex $-1 $282 $284 #
straight-curve $-1 -44.807920628272811 -28.977528917004889 0 0 0 1 I I #
face $-1 $-1 $285 $26 $-1 $286 reversed single #
loop $-1 $-1 $122 $116 #
plane-surface $-1 0 0 10.517409463916614 0 0 1 1 0 0 forward_v I I I I #
coedge $-1 $287 $288 $289 $290 reversed $117 $-1 #
coedge $-1 $291 $119 $121 $202 forward $73 $-1 #
coedge $-1 $119 $291 $287 $292 forward $73 $-1 #
coedge $-1 $289 $122 $119 $199 forward $193 $-1 #
edge $-1 $205 -20.315109052629783 $293 -2.5493811405737894 $198 $294 forward 7 unknown #
coedge $-1 $295 $296 $120 $201 forward $285 $-1 #
edge $-1 $297 -56.221469998782567 $204 -47.457977443696286 $200 $298 forward 7 unknown #
edge $-1 $205 44.029730495345703 $297 57.955057834009764 $121 $299 forward 7 unknown #
coedge $-1 $122 $289 $295 $300 forward $193 $-1 #
vertex $-1 $201 $301 #
vertex $-1 $123 $302 #
straight-curve $-1 -31.747354149231569 23.439048257563904 10.517409463916614 0 -1 0 I I #
coedge $-1 $207 $207 $-1 $303 reversed $126 $-1 #
edge $-1 $304 0 $304 6.2831853071796004 $127 $305 forward 7 unknown #
vertex $-1 $130 $306 #
ellipse-curve $-1 -26.671431888644143 23.566523009461168 6.1356631863734732 0 0.62932039886446345 0.77714595512881146 1.5 0 0 1 I I #
coedge $-1 $211 $211 $-1 $307 reversed $133 $-1 #
edge $-1 $308 0 $308 6.2831853071796004 $134 $309 forward 7 unknown #
vertex $-1 $137 $310 #
ellipse-curve $-1 -19.057548497763001 23.566523009461168 6.1356631863734732 0 0.62932039886446345 0.77714595512881146 1.5 0 0 1 I I #
face $-1 $-1 $311 $29 $-1 $312 reversed single #
loop $-1 $-1 $144 $138 #
plane-surface $-1 0 0 10.517409463916614 0 0 1 1 0 0 forward_v I I I I #
coedge $-1 $313 $314 $315 $316 reversed $139 $-1 #
coedge $-1 $317 $141 $143 $225 forward $87 $-1 #
coedge $-1 $141 $317 $313 $318 forward $87 $-1 #
coedge $-1 $315 $144 $141 $222 forward $216 $-1 #
edge $-1 $228 2.5493811405737929 $319 20.315109052629786 $221 $320 forward 7 unknown #
coedge $-1 $321 $322 $142 $224 forward $311 $-1 #
edge $-1 $323 -56.221469998782567 $227 -47.457977443696286 $223 $324 forward 7 unknown #
edge $-1 $228 44.029730495345703 $323 57.955057834009764 $143 $325 forward 7 unknown #
coedge $-1 $144 $315 $321 $326 forward $216 $-1 #
vertex $-1 $145 $327 #
vertex $-1 $145 $328 #
straight-curve $-1 13.981626237175583 23.439048257563904 10.517409463916614 0 -1 0 I I #
coedge $-1 $230 $230 $-1 $329 reversed $148 $-1 #
edge $-1 $330 0 $330 6.2831853071796004 $149 $331 forward 7 unknown #
vertex $-1 $152 $332 #
ellipse-curve $-1 19.057548497763008 23.566523009461168 6.1356631863734732 0 0.62932039886446345 0.77714595512881146 1.5 0 0 1 I I #
coedge $-1 $234 $234 $-1 $333 reversed $155 $-1 #
edge $-1 $334 0 $334 6.2831853071796004 $156 $335 forward 7 unknown #
vertex $-1 $159 $336 #
ellipse-curve $-1 26.67143188864415 23.566523009461168 6.1356631863734732 0 0.62932039886446345 0.77714595512881146 1.5 0 0 1 I I #
face $-1 $-1 $250 $24 $-1 $337 reversed single #
loop $-1 $-1 $338 $160 #
plane-surface $-1 0 28.977528917004889 0 0 -1 0 0 0 -1 forward_v I I I I #
coedge $-1 $256 $255 $339 $340 forward $161 $-1 #
coedge $-1 $163 $173 $341 $342 forward $101 $-1 #
coedge $-1 $249 $169 $163 $244 reversed $250 $-1 #
edge $-1 $343 -28.977528917004889 $174 28.977528917004889 $243 $344 forward 7 unknown #
coedge $-1 $165 $164 $255 $345 forward $65 $-1 #
coedge $-1 $338 $339 $164 $247 reversed $239 $-1 #
edge $-1 $252 -50.006408886989959 $346 50.006408886989959 $246 $347 forward 7 unknown #
edge $-1 $257 -50.006408886989959 $251 50.006408886989959 $168 $348 forward 7 unknown #
coedge $-1 $166 $243 $338 $349 reversed $250 $-1 #
loop $-1 $-1 $169 $238 #
vertex $-1 $167 $350 #
vertex $-1 $167 $351 #
straight-curve $-1 50.006408886989959 0 10.517409463916614 0 1 0 I I #
straight-curve $-1 50.006408886989959 -28.977528917004889 0 0 0 -1 I I #
coedge $-1 $241 $171 $245 $345 reversed $161 $-1 #
coedge $-1 $171 $241 $173 $259 reversed $161 $-1 #
vertex $-1 $345 $352 #
straight-curve $-1 -50.006408886989959 -28.977528917004889 0 0 0 -1 I I #
edge $-1 $175 -28.977528917004889 $353 28.977528917004889 $256 $354 forward 7 unknown #
point $-1 50.006408886989959 -28.977528917004889 -10.517409463916614 #
point $-1 -50.006408886989959 -28.977528917004889 -10.517409463916614 #
face $-1 $-1 $279 $25 $-1 $355 forward single #
loop $-1 $-1 $356 $177 #
plane-surface $-1 -41.807920628272811 -33.538528855978925 0 -1 0 0 0 0 1 forward_v I I I I #
coedge $-1 $357 $180 $269 $358 reversed $109 $-1 #
coedge $-1 $180 $357 $359 $360 reversed $109 $-1 #
coedge $-1 $188 $187 $180 $268 reversed $178 $-1 #
edge $-1 $361 -10.517409463916614 $362 10.517409463916614 $267 $363 forward 7 unknown #
coedge $-1 $182 $181 $265 $358 forward $69 $-1 #
coedge $-1 $275 $356 $181 $271 reversed $263 $-1 #
edge $-1 $273 -4.5609999389740388 $364 4.5609999389740352 $270 $365 forward 7 unknown #
edge $-1 $362 -4.5609999389740352 $189 4.5609999389740388 $187 $366 forward 7 unknown #
vertex $-1 $271 $367 #
straight-curve $-1 0 -28.977528917004889 -10.517409463916614 1 0 0 I I #
coedge $-1 $368 $270 $184 $276 reversed $263 $-1 #
edge $-1 $280 -10.517409463916614 $273 10.517409463916614 $275 $369 forward 7 unknown #
coedge $-1 $359 $185 $188 $282 forward $279 $-1 #
coedge $-1 $185 $359 $368 $370 forward $279 $-1 #
loop $-1 $-1 $185 $262 #
vertex $-1 $186 $371 #
straight-curve $-1 0 -28.977528917004889 10.517409463916614 -1 0 0 I I #
edge $-1 $190 -4.5609999389740388 $361 4.5609999389740352 $188 $372 forward 7 unknown #
point $-1 -44.807920628272811 -28.977528917004886 -10.517409463916614 #
point $-1 -44.807920628272811 -28.977528917004886 10.517409463916614 #
loop $-1 $-1 $200 $192 #
plane-surface $-1 0 28.977528917004889 0 0 -1 0 0 0 -1 forward_v I I I I #
coedge $-1 $288 $195 $197 $292 reversed $117 $-1 #
coedge $-1 $195 $287 $373 $374 reversed $117 $-1 #
coedge $-1 $203 $198 $195 $290 forward $193 $-1 #
edge $-1 $293 -5.2835311556464433 $375 5.5384806594409852 $289 $376 forward 7 unknown #
coedge $-1 $197 $196 $296 $377 reversed $73 $-1 #
edge $-1 $378 -57.955057834009764 $293 -44.029730495345703 $287 $379 forward 7 unknown #
vertex $-1 $199 $380 #
straight-curve $-1 -11.432245096601786 18.155517101917468 10.517409463916614 1 0 0 I I #
coedge $-1 $373 $200 $203 $300 reversed $285 $-1 #
coedge $-1 $200 $373 $291 $377 forward $285 $-1 #
vertex $-1 $201 $381 #
straight-curve $-1 -31.747354149231569 28.977528917004889 57.975386907612901 0 0 1 I I #
straight-curve $-1 -31.747354149231569 -16.062009857952134 38.226217021142403 0 0.77714595512881146 -0.62932039886446345 I I #
edge $-1 $375 13.981626237175576 $204 31.747354149231569 $295 $382 forward 7 unknown #
point $-1 -31.747354149231569 28.977528917004889 10.517409463916614 #
point $-1 -31.747354149231569 18.155517101917461 10.517409463916614 #
edge $-1 $383 1 $383 0 $207 $-1 forward 7 unknown #
vertex $-1 $208 $384 #
ellipse-curve $-1 -26.671431888644143 22.413476362950131 4.7117691905205241 0 0.62932039886446345 0.77714595512881146 1.5 0 0 1 I I #
point $-1 -25.171431888644143 23.566523009461161 6.1356631863734652 #
edge $-1 $385 1 $385 0 $211 $-1 forward 7 unknown #
vertex $-1 $212 $386 #
ellipse-curve $-1 -19.057548497763001 22.413476362950131 4.7117691905205241 0 0.62932039886446345 0.77714595512881146 1.5 0 0 1 I I #
point $-1 -17.557548497763001 23.566523009461161 6.1356631863734652 #
loop $-1 $-1 $223 $215 #
plane-surface $-1 0 28.977528917004889 0 0 -1 0 0 0 -1 forward_v I I I I #
coedge $-1 $314 $218 $220 $318 reversed $139 $-1 #
coedge $-1 $218 $313 $387 $388 reversed $139 $-1 #
coedge $-1 $226 $221 $218 $316 forward $216 $-1 #
edge $-1 $319 -5.2835311556464433 $389 5.5384806594409852 $315 $390 forward 7 unknown #
coedge $-1 $220 $219 $322 $391 reversed $87 $-1 #
edge $-1 $392 -57.955057834009764 $319 -44.029730495345703 $313 $393 forward 7 unknown #
vertex $-1 $222 $394 #
straight-curve $-1 11.43224509660179 18.155517101917468 10.517409463916614 1 0 0 I I #
coedge $-1 $387 $223 $226 $326 reversed $311 $-1 #
coedge $-1 $223 $387 $317 $391 forward $311 $-1 #
vertex $-1 $224 $395 #
straight-curve $-1 13.981626237175583 28.977528917004889 57.975386907612901 0 0 1 I I #
straight-curve $-1 13.981626237175583 -16.062009857952134 38.226217021142403 0 0.77714595512881146 -0.62932039886446345 I I #
edge $-1 $389 -31.747354149231576 $227 -13.981626237175583 $321 $396 forward 7 unknown #
point $-1 13.981626237175583 28.977528917004889 10.517409463916614 #
point $-1 13.981626237175583 18.155517101917461 10.517409463916614 #
edge $-1 $397 1 $397 0 $230 $-1 forward 7 unknown #
vertex $-1 $231 $398 #
ellipse-curve $-1 19.057548497763008 22.413476362950131 4.7117691905205241 0 0.62932039886446345 0.77714595512881146 1.5 0 0 1 I I #
point $-1 20.557548497763008 23.566523009461161 6.1356631863734652 #
edge $-1 $399 1 $399 0 $234 $-1 forward 7 unknown #
vertex $-1 $235 $400 #
ellipse-curve $-1 26.67143188864415 22.413476362950131 4.7117691905205241 0 0.62932039886446345 0.77714595512881146 1.5 0 0 1 I I #
point $-1 28.17143188864415 23.566523009461161 6.1356631863734652 #
plane-surface $-1 50.006408886989959 0 0 -1 0 0 0 0 1 forward_v I I I I #
coedge $-1 $341 $246 $249 $349 forward $239 $-1 #
coedge $-1 $246 $341 $241 $340 reversed $239 $-1 #
edge $-1 $346 -10.517409463916614 $353 10.517409463916614 $339 $401 forward 7 unknown #
coedge $-1 $339 $338 $242 $342 reversed $239 $-1 #
edge $-1 $353 -50.006408886989959 $343 50.006408886989959 $341 $402 forward 7 unknown #
vertex $-1 $244 $403 #
straight-curve $-1 50.006408886989959 0 -10.517409463916614 0 -1 0 I I #
edge $-1 $346 -28.977528917004889 $257 28.977528917004889 $255 $404 forward 7 unknown #
vertex $-1 $247 $405 #
straight-curve $-1 0 28.977528917004889 10.517409463916614 -1 0 0 I I #
straight-curve $-1 0 -28.977528917004889 10.517409463916614 1 0 0 I I #
edge $-1 $252 -10.517409463916614 $343 10.517409463916614 $249 $406 forward 7 unknown #
point $-1 50.006408886989959 -28.977528917004889 10.517409463916614 #
point $-1 50.006408886989959 28.977528917004889 10.517409463916614 #
point $-1 -50.006408886989959 -28.977528917004889 10.517409463916614 #
vertex $-1 $342 $407 #
straight-curve $-1 -50.006408886989959 0 -10.517409463916614 0 1 0 I I #
plane-surface $-1 0 0 10.517409463916614 0 0 1 1 0 0 forward_v I I I I #
coedge $-1 $270 $368 $357 $408 forward $263 $-1 #
coedge $-1 $266 $265 $356 $408 reversed $109 $-1 #
edge $-1 $364 -1.5 $362 1.5 $265 $409 forward 7 unknown #
coedge $-1 $278 $277 $266 $360 forward $279 $-1 #
edge $-1 $361 -1.5 $410 1.5 $266 $411 forward 7 unknown #
vertex $-1 $282 $412 #
vertex $-1 $272 $413 #
straight-curve $-1 -44.807920628272811 -38.09952879495296 0 0 0 -1 I I #
vertex $-1 $408 $414 #
straight-curve $-1 -41.807920628272811 -33.538528855978925 -10.517409463916614 0 -1 0 I I #
straight-curve $-1 -44.807920628272811 -33.538528855978925 -10.517409463916614 0 1 0 I I #
point $-1 -41.807920628272811 -28.977528917004886 -10.517409463916614 #
coedge $-1 $356 $275 $278 $370 reversed $263 $-1 #
straight-curve $-1 -41.807920628272811 -28.977528917004889 0 0 0 -1 I I #
edge $-1 $410 -4.5609999389740352 $280 4.5609999389740388 $368 $415 forward 7 unknown #
point $-1 -41.807920628272811 -28.977528917004886 10.517409463916614 #
straight-curve $-1 -44.807920628272811 -33.538528855978925 10.517409463916614 0 -1 0 I I #
coedge $-1 $296 $295 $288 $374 forward $285 $-1 #
edge $-1 $375 47.457977443696286 $378 56.221469998782567 $373 $416 forward 7 unknown #
vertex $-1 $300 $417 #
straight-curve $-1 -13.981626237175576 23.439048257563904 10.517409463916614 0 1 0 I I #
edge $-1 $378 2.5493811405737894 $297 20.315109052629783 $296 $418 forward 7 unknown #
vertex $-1 $377 $419 #
straight-curve $-1 -13.981626237175576 -16.062009857952134 38.226217021142403 0 -0.77714595512881146 0.62932039886446345 I I #
point $-1 -13.981626237175576 18.155517101917461 10.517409463916614 #
point $-1 -31.747354149231569 28.977528917004889 1.7539169088303339 #
straight-curve $-1 0 28.977528917004889 10.517409463916614 -1 0 0 I I #
vertex $-1 $303 $420 #
point $-1 -25.171431888644143 22.413476362950131 4.7117691905205241 #
vertex $-1 $307 $421 #
point $-1 -17.557548497763001 22.413476362950131 4.7117691905205241 #
coedge $-1 $322 $321 $314 $388 forward $311 $-1 #
edge $-1 $389 47.457977443696286 $392 56.221469998782567 $387 $422 forward 7 unknown #
vertex $-1 $326 $423 #
straight-curve $-1 31.747354149231576 23.439048257563904 10.517409463916614 0 1 0 I I #
edge $-1 $392 -20.315109052629786 $323 -2.5493811405737929 $322 $424 forward 7 unknown #
vertex $-1 $391 $425 #
straight-curve $-1 31.747354149231576 -16.062009857952134 38.226217021142403 0 -0.77714595512881146 0.62932039886446345 I I #
point $-1 31.747354149231576 18.155517101917461 10.517409463916614 #
point $-1 13.981626237175583 28.977528917004889 1.7539169088303339 #
straight-curve $-1 0 28.977528917004889 10.517409463916614 -1 0 0 I I #
vertex $-1 $329 $426 #
point $-1 20.557548497763008 22.413476362950131 4.7117691905205241 #
vertex $-1 $333 $427 #
point $-1 28.17143188864415 22.413476362950131 4.7117691905205241 #
straight-curve $-1 -50.006408886989959 28.977528917004889 0 0 0 -1 I I #
straight-curve $-1 0 28.977528917004889 -10.517409463916614 1 0 0 I I #
point $-1 50.006408886989959 28.977528917004889 -10.517409463916614 #
straight-curve $-1 -50.006408886989959 0 10.517409463916614 0 -1 0 I I #
point $-1 -50.006408886989959 28.977528917004889 10.517409463916614 #
straight-curve $-1 50.006408886989959 28.977528917004889 0 0 0 -1 I I #
point $-1 -50.006408886989959 28.977528917004889 -10.517409463916614 #
edge $-1 $410 -10.517409463916614 $364 10.517409463916614 $356 $428 forward 7 unknown #
straight-curve $-1 -43.307920628272811 -38.09952879495296 -10.517409463916614 -1 0 0 I I #
vertex $-1 $370 $429 #
straight-curve $-1 -43.307920628272811 -38.09952879495296 10.517409463916614 1 0 0 I I #
point $-1 -44.807920628272811 -38.09952879495296 10.517409463916614 #
point $-1 -44.807920628272811 -38.09952879495296 -10.517409463916614 #
point $-1 -41.807920628272811 -38.09952879495296 -10.517409463916614 #
straight-curve $-1 -41.807920628272811 -33.538528855978925 10.517409463916614 0 1 0 I I #
straight-curve $-1 -13.981626237175576 28.977528917004889 57.975386907612901 0 0 -1 I I #
point $-1 -13.981626237175576 28.977528917004889 10.517409463916614 #
straight-curve $-1 -11.432245096601786 28.977528917004889 1.7539169088303339 -1 0 0 I I #
point $-1 -13.981626237175576 28.977528917004889 1.7539169088303339 #
point $-1 -26.671431888644143 21.469495764653434 3.5460502578273072 #
point $-1 -19.057548497763001 21.469495764653434 3.5460502578273072 #
straight-curve $-1 31.747354149231576 28.977528917004889 57.975386907612901 0 0 -1 I I #
point $-1 31.747354149231576 28.977528917004889 10.517409463916614 #
straight-curve $-1 11.43224509660179 28.977528917004889 1.7539169088303339 -1 0 0 I I #
point $-1 31.747354149231576 28.977528917004889 1.7539169088303339 #
point $-1 19.057548497763008 21.469495764653434 3.5460502578273072 #
point $-1 26.67143188864415 21.469495764653434 3.5460502578273072 #
straight-curve $-1 -41.807920628272811 -38.09952879495296 0 0 0 -1 I I #
point $-1 -41.807920628272811 -38.09952879495296 10.517409463916614 #
End-of-ACIS-data 