500 0 14 0           
7 Unknown 11 ACIS 5.0 NT 24 Thu Mar 25 17:45:09 1999 
-1 9.9999999999999995e-007 1e-010 
body $-1 $14 $-1 $15 #
body $-1 $16 $-1 $17 #
body $-1 $18 $-1 $19 #
body $-1 $20 $-1 $21 #
body $-1 $22 $-1 $23 #
body $-1 $24 $-1 $25 #
body $-1 $26 $-1 $27 #
body $-1 $28 $-1 $29 #
body $-1 $30 $-1 $31 #
body $-1 $32 $-1 $33 #
body $-1 $34 $-1 $35 #
body $-1 $36 $-1 $37 #
body $-1 $38 $-1 $39 #
body $-1 $40 $-1 $41 #
lump $-1 $-1 $42 $0 #
transform $-1 1 0 0 0 1 0 0 0 1 66.922208319345685 35.145239203470943 12.633065473992783 1 rotate no_reflect no_shear #
lump $-1 $-1 $43 $1 #
transform $-1 1 0 0 0 1 0 0 0 1 66.922208319345685 35.145239203470943 12.633065473992783 1 rotate no_reflect no_shear #
lump $-1 $-1 $44 $2 #
transform $-1 1 0 0 0 1 0 0 0 1 66.922208319345685 35.145239203470943 12.633065473992783 1 rotate no_reflect no_shear #
lump $-1 $-1 $45 $3 #
transform $-1 1 0 0 0 1 0 0 0 1 66.922208319345685 35.145239203470943 12.633065473992783 1 rotate no_reflect no_shear #
lump $-1 $-1 $46 $4 #
transform $-1 1 0 0 0 1 0 0 0 1 66.922208319345685 35.145239203470943 12.633065473992783 1 rotate no_reflect no_shear #
lump $-1 $-1 $47 $5 #
transform $-1 1 0 0 0 1 0 0 0 1 66.922208319345685 35.145239203470943 12.633065473992783 1 rotate no_reflect no_shear #
lump $-1 $-1 $48 $6 #
transform $-1 1 0 0 0 1 0 0 0 1 66.922208319345685 35.145239203470943 12.633065473992783 1 rotate no_reflect no_shear #
lump $-1 $-1 $49 $7 #
transform $-1 1 0 0 0 1 0 0 0 1 66.922208319345685 35.145239203470943 12.633065473992783 1 rotate no_reflect no_shear #
lump $-1 $-1 $50 $8 #
transform $-1 1 0 0 0 1 0 0 0 1 66.922208319345685 35.145239203470943 12.633065473992783 1 rotate no_reflect no_shear #
lump $-1 $-1 $51 $9 #
transform $-1 1 0 0 0 1 0 0 0 1 66.922208319345685 35.145239203470943 12.633065473992783 1 rotate no_reflect no_shear #
lump $-1 $-1 $52 $10 #
transform $-1 1 0 0 0 1 0 0 0 1 66.922208319345685 35.145239203470943 12.633065473992783 1 rotate no_reflect no_shear #
lump $-1 $-1 $53 $11 #
transform $-1 1 0 0 0 1 0 0 0 1 66.922208319345685 35.145239203470943 12.633065473992783 1 rotate no_reflect no_shear #
lump $-1 $-1 $54 $12 #
transform $-1 1 0 0 0 1 0 0 0 1 66.922208319345685 35.145239203470943 12.633065473992783 1 rotate no_reflect no_shear #
lump $-1 $-1 $55 $13 #
transform $-1 1 0 0 0 1 0 0 0 1 66.922208319345685 35.145239203470943 12.633065473992783 1 rotate no_reflect no_shear #
shell $-1 $-1 $-1 $56 $-1 $14 #
shell $-1 $-1 $-1 $57 $-1 $16 #
shell $-1 $-1 $-1 $58 $-1 $18 #
shell $-1 $-1 $-1 $59 $-1 $20 #
shell $-1 $-1 $-1 $60 $-1 $22 #
shell $-1 $-1 $-1 $61 $-1 $24 #
shell $-1 $-1 $-1 $62 $-1 $26 #
shell $-1 $-1 $-1 $63 $-1 $28 #
shell $-1 $-1 $-1 $64 $-1 $30 #
shell $-1 $-1 $-1 $65 $-1 $32 #
shell $-1 $-1 $-1 $66 $-1 $34 #
shell $-1 $-1 $-1 $67 $-1 $36 #
shell $-1 $-1 $-1 $68 $-1 $38 #
shell $-1 $-1 $-1 $69 $-1 $40 #
face $-1 $70 $71 $42 $-1 $72 forward single #
face $-1 $73 $74 $43 $-1 $75 reversed single #
face $-1 $76 $77 $44 $-1 $78 reversed single #
face $-1 $79 $80 $45 $-1 $81 reversed single #
face $-1 $82 $83 $46 $-1 $84 forward single #
face $-1 $85 $86 $47 $-1 $87 forward single #
face $-1 $88 $89 $48 $-1 $90 reversed single #
face $-1 $91 $92 $49 $-1 $93 forward single #
face $-1 $94 $95 $50 $-1 $96 reversed single #
face $-1 $97 $98 $51 $-1 $99 forward single #
face $-1 $100 $101 $52 $-1 $102 reversed single #
face $-1 $103 $104 $53 $-1 $105 forward single #
face $-1 $106 $107 $54 $-1 $108 reversed single #
face $-1 $109 $110 $55 $-1 $111 forward single #
face $-1 $112 $113 $42 $-1 $114 reversed single #
loop $-1 $-1 $115 $56 #
plane-surface $-1 0 0 12.633065473992783 0 0 1 1 0 0 forward_v I I I I #
face $-1 $116 $117 $43 $-1 $118 reversed single #
loop $-1 $-1 $119 $57 #
plane-surface $-1 -44.656077371360119 -28.913691561919123 0 1 0 0 0 0 -1 forward_v I I I I #
face $-1 $120 $121 $44 $-1 $122 reversed single #
loop $-1 $-1 $123 $58 #
plane-surface $-1 -43.156077371360119 22.682143920367309 0 0 1 0 0 0 1 forward_v I I I I #
face $-1 $124 $125 $45 $-1 $126 reversed single #
loop $-1 $-1 $127 $59 #
plane-surface $-1 70.225682148043092 16.381706631909857 195.63262793714352 0 -1 0 -0.71933980857756763 0 -0.69465836192734942 forward_v I I I I #
face $-1 $128 $129 $46 $-1 $130 forward single #
loop $-1 $131 $132 $60 #
cone-surface $-1 62.939120807491975 9.8576839863722725 8.5756673023549261 -0.71933980857756763 0 -0.69465836192734942 0.69465836192734942 0 -0.71933980857756763 1 I I 0 1 1 forward I I I I #
face $-1 $133 $134 $47 $-1 $135 forward single #
loop $-1 $136 $137 $61 #
cone-surface $-1 62.939120807491975 13.772097573694822 8.5756673023549261 -0.71933980857756763 0 -0.69465836192734942 0.69465836192734942 0 -0.71933980857756763 1 I I 0 1 1 forward I I I I #
face $-1 $138 $139 $48 $-1 $140 reversed single #
loop $-1 $-1 $141 $62 #
plane-surface $-1 -156.48160505966069 -20.290634679550784 107.35609639812449 0 1 0 -0.66913061440640931 0 0.74314481823134659 forward_v I I I I #
face $-1 $142 $143 $49 $-1 $144 forward single #
loop $-1 $145 $146 $63 #
cone-surface $-1 -63.838145276171666 -17.067149971198393 9.7614884290693222 0.66913061440640931 0 -0.74314481823134659 0.74314481823134659 0 0.66913061440640931 1 I I 0 1 1 forward I I I I #
face $-1 $147 $148 $50 $-1 $149 reversed single #
loop $-1 $-1 $150 $64 #
plane-surface $-1 -156.48160505966069 -8.9495627193671314 107.35609639812449 0 1 0 -0.66913061440640931 0 0.74314481823134659 forward_v I I I I #
face $-1 $151 $152 $51 $-1 $153 forward single #
loop $-1 $154 $155 $65 #
cone-surface $-1 -63.838145276171666 -5.7260780110147422 9.7614884290693222 0.66913061440640931 0 -0.74314481823134659 0.74314481823134659 0 0.66913061440640931 1 I I 0 1 1 forward I I I I #
face $-1 $156 $157 $52 $-1 $158 reversed single #
loop $-1 $-1 $159 $66 #
plane-surface $-1 -156.48160505966069 2.3915092408165197 107.35609639812449 0 1 0 -0.66913061440640931 0 0.74314481823134659 forward_v I I I I #
face $-1 $160 $161 $53 $-1 $162 forward single #
loop $-1 $163 $164 $67 #
cone-surface $-1 -63.838145276171666 5.6149939491689125 9.7614884290693222 0.66913061440640931 0 -0.74314481823134659 0.74314481823134659 0 0.66913061440640931 1 I I 0 1 1 forward I I I I #
face $-1 $165 $166 $54 $-1 $167 reversed single #
loop $-1 $-1 $168 $68 #
plane-surface $-1 -156.48160505966069 13.732581201000174 107.35609639812449 0 1 0 -0.66913061440640931 0 0.74314481823134659 forward_v I I I I #
face $-1 $169 $170 $55 $-1 $171 forward single #
loop $-1 $172 $173 $69 #
cone-surface $-1 -63.838145276171666 16.956065909352567 9.7614884290693222 0.66913061440640931 0 -0.74314481823134659 0.74314481823134659 0 0.66913061440640931 1 I I 0 1 1 forward I I I I #
face $-1 $174 $175 $42 $-1 $176 reversed single #
loop $-1 $-1 $177 $70 #
plane-surface $-1 0 0 -12.633065473992783 0 0 1 1 0 0 forward_v I I I I #
coedge $-1 $178 $179 $180 $181 forward $71 $-1 #
face $-1 $182 $183 $43 $-1 $184 reversed single #
loop $-1 $-1 $185 $73 #
plane-surface $-1 -43.156077371360119 -22.682143920367302 0 0 -1 0 0 0 -1 forward_v I I I I #
coedge $-1 $186 $187 $188 $189 forward $74 $-1 #
face $-1 $190 $191 $44 $-1 $192 reversed single #
loop $-1 $-1 $193 $76 #
plane-surface $-1 -44.656077371360119 28.91369156191913 0 1 0 0 0 0 -1 forward_v I I I I #
coedge $-1 $194 $195 $196 $197 forward $77 $-1 #
face $-1 $198 $199 $45 $-1 $200 reversed single #
loop $-1 $-1 $201 $79 #
plane-surface $-1 -26.053934896009366 11.814890780033551 102.6564847217885 0.71933980857756763 0 0.69465836192734942 0.69465836192734942 0 -0.71933980857756763 forward_v I I I I #
coedge $-1 $202 $203 $204 $205 reversed $80 $-1 #
face $-1 $-1 $206 $46 $-1 $207 forward single #
loop $-1 $208 $209 $82 #
cone-surface $-1 61.617133312059735 9.8576839863722725 7.2990388478817643 -0.71933980857756763 0 -0.69465836192734942 0.34732918096367471 0 -0.35966990428878381 1 I I -0.70710678118654691 0.70710678118654813 0.5 forward I I I I #
loop $-1 $-1 $210 $60 #
coedge $-1 $132 $132 $211 $212 reversed $83 $-1 #
face $-1 $-1 $213 $47 $-1 $214 forward single #
loop $-1 $215 $216 $85 #
cone-surface $-1 61.617133312059735 13.772097573694822 7.2990388478817643 -0.71933980857756763 0 -0.69465836192734942 0.34732918096367471 0 -0.35966990428878381 1 I I -0.70710678118654691 0.70710678118654813 0.5 forward I I I I #
loop $-1 $-1 $217 $61 #
coedge $-1 $137 $137 $218 $219 reversed $86 $-1 #
face $-1 $220 $221 $48 $-1 $222 reversed single #
loop $-1 $-1 $223 $88 #
plane-surface $-1 -66.9222083193457 -17.06714997119839 7.8903117238835705 -0.66913061440640931 0 0.74314481823134659 0.74314481823134659 0 0.66913061440640931 forward_v I I I I #
coedge $-1 $224 $225 $226 $227 reversed $89 $-1 #
face $-1 $-1 $228 $49 $-1 $229 forward single #
loop $-1 $230 $231 $91 #
cone-surface $-1 -63.053197703251939 -17.067149971198393 8.8897158500848086 0.66913061440640931 0 -0.74314481823134659 0.3715724091156733 0 0.33456530720320465 1 I I -0.70710678118654746 0.70710678118654746 0.5 forward I I I I #
loop $-1 $-1 $232 $63 #
coedge $-1 $146 $146 $233 $234 reversed $92 $-1 #
face $-1 $235 $236 $50 $-1 $237 reversed single #
loop $-1 $-1 $238 $94 #
plane-surface $-1 -66.9222083193457 -5.7260780110147387 7.8903117238835705 -0.66913061440640931 0 0.74314481823134659 0.74314481823134659 0 0.66913061440640931 forward_v I I I I #
coedge $-1 $239 $240 $241 $242 reversed $95 $-1 #
face $-1 $-1 $243 $51 $-1 $244 forward single #
loop $-1 $245 $246 $97 #
cone-surface $-1 -63.053197703251939 -5.7260780110147422 8.8897158500848086 0.66913061440640931 0 -0.74314481823134659 0.3715724091156733 0 0.33456530720320465 1 I I -0.70710678118654746 0.70710678118654746 0.5 forward I I I I #
loop $-1 $-1 $247 $65 #
coedge $-1 $155 $155 $248 $249 reversed $98 $-1 #
face $-1 $250 $251 $52 $-1 $252 reversed single #
loop $-1 $-1 $253 $100 #
plane-surface $-1 -66.9222083193457 5.6149939491689125 7.8903117238835705 -0.66913061440640931 0 0.74314481823134659 0.74314481823134659 0 0.66913061440640931 forward_v I I I I #
coedge $-1 $254 $255 $256 $257 reversed $101 $-1 #
face $-1 $-1 $258 $53 $-1 $259 forward single #
loop $-1 $260 $261 $103 #
cone-surface $-1 -63.053197703251939 5.6149939491689125 8.8897158500848086 0.66913061440640931 0 -0.74314481823134659 0.3715724091156733 0 0.33456530720320465 1 I I -0.70710678118654746 0.70710678118654746 0.5 forward I I I I #
loop $-1 $-1 $262 $67 #
coedge $-1 $164 $164 $263 $264 reversed $104 $-1 #
face $-1 $265 $266 $54 $-1 $267 reversed single #
loop $-1 $-1 $268 $106 #
plane-surface $-1 -66.9222083193457 16.956065909352567 7.8903117238835705 -0.66913061440640931 0 0.74314481823134659 0.74314481823134659 0 0.66913061440640931 forward_v I I I I #
coedge $-1 $269 $270 $271 $272 reversed $107 $-1 #
face $-1 $-1 $273 $55 $-1 $274 forward single #
loop $-1 $275 $276 $109 #
cone-surface $-1 -63.053197703251939 16.956065909352567 8.8897158500848086 0.66913061440640931 0 -0.74314481823134659 0.3715724091156733 0 0.33456530720320465 1 I I -0.70710678118654746 0.70710678118654746 0.5 forward I I I I #
loop $-1 $-1 $277 $69 #
coedge $-1 $173 $173 $278 $279 reversed $110 $-1 #
face $-1 $280 $281 $42 $-1 $282 reversed single #
loop $-1 $-1 $283 $112 #
plane-surface $-1 0 -35.145239203470943 0 0 1 0 0 0 1 forward_v I I I I #
coedge $-1 $284 $285 $286 $287 forward $113 $-1 #
coedge $-1 $288 $115 $289 $290 forward $71 $-1 #
coedge $-1 $115 $288 $291 $292 forward $71 $-1 #
coedge $-1 $293 $294 $115 $181 reversed $295 $-1 #
edge $-1 $296 -35.145239203470943 $297 35.145239203470943 $180 $298 forward 7 unknown #
face $-1 $299 $300 $43 $-1 $301 forward single #
loop $-1 $-1 $302 $116 #
plane-surface $-1 -41.656077371360119 -28.913691561919123 0 -1 0 0 0 0 1 forward_v I I I I #
coedge $-1 $303 $304 $305 $306 forward $117 $-1 #
coedge $-1 $307 $119 $308 $309 reversed $74 $-1 #
coedge $-1 $119 $307 $310 $311 reversed $74 $-1 #
coedge $-1 $304 $303 $119 $189 reversed $117 $-1 #
edge $-1 $312 -12.633065473992783 $313 12.633065473992783 $188 $314 forward 7 unknown #
face $-1 $315 $316 $44 $-1 $317 reversed single #
loop $-1 $-1 $318 $120 #
plane-surface $-1 -41.656077371360119 28.91369156191913 0 -1 0 0 0 0 1 forward_v I I I I #
coedge $-1 $319 $320 $321 $322 reversed $121 $-1 #
coedge $-1 $323 $123 $324 $325 reversed $77 $-1 #
coedge $-1 $123 $323 $326 $327 reversed $77 $-1 #
coedge $-1 $320 $319 $123 $197 reversed $121 $-1 #
edge $-1 $328 -12.633065473992783 $329 12.633065473992783 $196 $330 forward 7 unknown #
face $-1 $331 $332 $45 $-1 $333 forward single #
loop $-1 $-1 $334 $124 #
plane-surface $-1 70.225682148043092 7.2480749281572443 195.63262793714352 0 1 0 0.71933980857756763 0 0.69465836192734942 forward_v I I I I #
coedge $-1 $335 $336 $337 $338 reversed $125 $-1 #
coedge $-1 $203 $127 $339 $340 reversed $80 $-1 #
coedge $-1 $127 $202 $335 $341 reversed $80 $-1 #
coedge $-1 $337 $342 $127 $205 forward $332 $-1 #
edge $-1 $343 -31.80936724532414 $344 -25.767827403903553 $204 $345 forward 7 unknown #
loop $-1 $-1 $211 $128 #
plane-surface $-1 -26.053934896009366 11.814890780033551 102.6564847217885 0.71933980857756763 0 0.69465836192734942 0.69465836192734942 0 -0.71933980857756763 forward_v I I I I #
loop $-1 $-1 $346 $82 #
coedge $-1 $209 $209 $210 $347 reversed $129 $-1 #
coedge $-1 $210 $210 $209 $347 forward $131 $-1 #
coedge $-1 $211 $211 $132 $212 forward $206 $-1 #
edge $-1 $348 0 $348 6.2831853071796004 $211 $349 forward 7 unknown #
loop $-1 $-1 $218 $133 #
plane-surface $-1 -26.053934896009366 11.814890780033551 102.6564847217885 0.71933980857756763 0 0.69465836192734942 0.69465836192734942 0 -0.71933980857756763 forward_v I I I I #
loop $-1 $-1 $350 $85 #
coedge $-1 $216 $216 $217 $351 reversed $134 $-1 #
coedge $-1 $217 $217 $216 $351 forward $136 $-1 #
coedge $-1 $218 $218 $137 $219 forward $213 $-1 #
edge $-1 $352 0 $352 6.2831853071796004 $218 $353 forward 7 unknown #
face $-1 $354 $355 $48 $-1 $356 reversed single #
loop $-1 $-1 $357 $138 #
plane-surface $-1 -156.48160505966069 -13.843665262845997 107.35609639812449 0 -1 0 0.66913061440640931 0 -0.74314481823134659 forward_v I I I I #
coedge $-1 $358 $359 $360 $361 reversed $139 $-1 #
coedge $-1 $225 $141 $362 $363 reversed $89 $-1 #
coedge $-1 $141 $224 $358 $364 reversed $89 $-1 #
coedge $-1 $360 $365 $141 $227 forward $366 $-1 #
edge $-1 $367 11.318594210484662 $368 16.585955765399611 $226 $369 forward 7 unknown #
loop $-1 $-1 $233 $142 #
plane-surface $-1 -66.9222083193457 -17.06714997119839 7.8903117238835705 -0.66913061440640931 0 0.74314481823134659 0.74314481823134659 0 0.66913061440640931 forward_v I I I I #
loop $-1 $-1 $370 $91 #
coedge $-1 $231 $231 $232 $371 reversed $143 $-1 #
coedge $-1 $232 $232 $231 $371 forward $145 $-1 #
coedge $-1 $233 $233 $146 $234 forward $228 $-1 #
edge $-1 $372 0 $372 6.2831853071796004 $233 $373 forward 7 unknown #
face $-1 $374 $375 $50 $-1 $376 forward single #
loop $-1 $-1 $377 $147 #
plane-surface $-1 -156.48160505966069 -2.5025933026623459 107.35609639812449 0 -1 0 0.66913061440640931 0 -0.74314481823134659 forward_v I I I I #
coedge $-1 $378 $379 $380 $381 reversed $148 $-1 #
coedge $-1 $240 $150 $382 $383 reversed $95 $-1 #
coedge $-1 $150 $239 $378 $384 reversed $95 $-1 #
coedge $-1 $380 $385 $150 $242 forward $375 $-1 #
edge $-1 $386 11.318594210484662 $387 16.585955765399611 $241 $388 forward 7 unknown #
loop $-1 $-1 $248 $151 #
plane-surface $-1 -66.9222083193457 -5.7260780110147387 7.8903117238835705 -0.66913061440640931 0 0.74314481823134659 0.74314481823134659 0 0.66913061440640931 forward_v I I I I #
loop $-1 $-1 $389 $97 #
coedge $-1 $246 $246 $247 $390 reversed $152 $-1 #
coedge $-1 $247 $247 $246 $390 forward $154 $-1 #
coedge $-1 $248 $248 $155 $249 forward $243 $-1 #
edge $-1 $391 0 $391 6.2831853071796004 $248 $392 forward 7 unknown #
face $-1 $393 $394 $52 $-1 $395 forward single #
loop $-1 $-1 $396 $156 #
plane-surface $-1 -156.48160505966069 8.8384786575213052 107.35609639812449 0 -1 0 0.66913061440640931 0 -0.74314481823134659 forward_v I I I I #
coedge $-1 $397 $398 $399 $400 reversed $157 $-1 #
coedge $-1 $255 $159 $401 $402 reversed $101 $-1 #
coedge $-1 $159 $254 $397 $403 reversed $101 $-1 #
coedge $-1 $399 $404 $159 $257 forward $394 $-1 #
edge $-1 $405 11.318594210484662 $406 16.585955765399611 $256 $407 forward 7 unknown #
loop $-1 $-1 $263 $160 #
plane-surface $-1 -66.9222083193457 5.6149939491689125 7.8903117238835705 -0.66913061440640931 0 0.74314481823134659 0.74314481823134659 0 0.66913061440640931 forward_v I I I I #
loop $-1 $-1 $408 $103 #
coedge $-1 $261 $261 $262 $409 reversed $161 $-1 #
coedge $-1 $262 $262 $261 $409 forward $163 $-1 #
coedge $-1 $263 $263 $164 $264 forward $258 $-1 #
edge $-1 $410 0 $410 6.2831853071796004 $263 $411 forward 7 unknown #
face $-1 $412 $413 $54 $-1 $414 forward single #
loop $-1 $-1 $415 $165 #
plane-surface $-1 -156.48160505966069 20.179550617704962 107.35609639812449 0 -1 0 0.66913061440640931 0 -0.74314481823134659 forward_v I I I I #
coedge $-1 $416 $417 $418 $419 reversed $166 $-1 #
coedge $-1 $270 $168 $420 $421 reversed $107 $-1 #
coedge $-1 $168 $269 $416 $422 reversed $107 $-1 #
coedge $-1 $418 $423 $168 $272 forward $413 $-1 #
edge $-1 $424 11.318594210484662 $425 16.585955765399611 $271 $426 forward 7 unknown #
loop $-1 $-1 $278 $169 #
plane-surface $-1 -66.9222083193457 16.956065909352567 7.8903117238835705 -0.66913061440640931 0 0.74314481823134659 0.74314481823134659 0 0.66913061440640931 forward_v I I I I #
loop $-1 $-1 $427 $109 #
coedge $-1 $276 $276 $277 $428 reversed $170 $-1 #
coedge $-1 $277 $277 $276 $428 forward $172 $-1 #
coedge $-1 $278 $278 $173 $279 forward $273 $-1 #
edge $-1 $429 0 $429 6.2831853071796004 $278 $430 forward 7 unknown #
face $-1 $431 $432 $42 $-1 $433 reversed single #
loop $-1 $-1 $434 $174 #
plane-surface $-1 -66.922208319345685 0 0 1 0 0 0 0 -1 forward_v I I I I #
coedge $-1 $435 $291 $436 $437 forward $175 $-1 #
coedge $-1 $438 $177 $435 $439 forward $113 $-1 #
coedge $-1 $177 $438 $440 $441 forward $113 $-1 #
coedge $-1 $294 $293 $177 $287 reversed $295 $-1 #
edge $-1 $442 -35.145239203470943 $443 35.145239203470943 $286 $444 forward 7 unknown #
coedge $-1 $179 $178 $445 $446 forward $71 $-1 #
coedge $-1 $447 $448 $178 $290 reversed $432 $-1 #
edge $-1 $297 -66.922208319345685 $449 66.922208319345685 $289 $450 forward 7 unknown #
coedge $-1 $283 $451 $179 $292 reversed $175 $-1 #
edge $-1 $452 -66.922208319345685 $296 66.922208319345685 $291 $453 forward 7 unknown #
coedge $-1 $286 $180 $451 $454 forward $295 $-1 #
coedge $-1 $180 $286 $447 $455 reversed $295 $-1 #
loop $-1 $-1 $293 $431 #
vertex $-1 $181 $456 #
vertex $-1 $181 $457 #
straight-curve $-1 66.922208319345685 0 12.633065473992783 0 1 0 I I #
face $-1 $458 $459 $43 $-1 $460 reversed single #
loop $-1 $-1 $461 $182 #
plane-surface $-1 0 0 12.633065473992783 0 0 1 1 0 0 forward_v I I I I #
coedge $-1 $462 $463 $464 $465 reversed $183 $-1 #
coedge $-1 $188 $185 $466 $467 reversed $117 $-1 #
coedge $-1 $185 $188 $468 $469 reversed $117 $-1 #
coedge $-1 $463 $462 $185 $306 reversed $183 $-1 #
edge $-1 $470 -12.633065473992783 $471 12.633065473992783 $305 $472 forward 7 unknown #
coedge $-1 $187 $186 $473 $474 reversed $74 $-1 #
coedge $-1 $466 $475 $186 $309 forward $459 $-1 #
edge $-1 $476 -20.688393422511382 $313 -8.2252981394077409 $308 $477 forward 7 unknown #
coedge $-1 $478 $468 $187 $311 forward $300 $-1 #
edge $-1 $312 8.2252981394077409 $479 20.688393422511382 $310 $480 forward 7 unknown #
vertex $-1 $311 $481 #
vertex $-1 $309 $482 #
straight-curve $-1 -44.656077371360119 -22.682143920367302 0 0 0 -1 I I #
face $-1 $483 $484 $44 $-1 $485 forward single #
loop $-1 $-1 $486 $190 #
plane-surface $-1 0 0 -12.633065473992783 0 0 1 1 0 0 forward_v I I I I #
coedge $-1 $487 $488 $323 $489 forward $191 $-1 #
coedge $-1 $196 $193 $490 $491 reversed $121 $-1 #
coedge $-1 $193 $196 $492 $493 reversed $121 $-1 #
coedge $-1 $494 $495 $193 $322 forward $496 $-1 #
edge $-1 $497 -12.633065473992783 $498 12.633065473992783 $321 $499 forward 7 unknown #
coedge $-1 $195 $194 $318 $489 reversed $77 $-1 #
coedge $-1 $490 $486 $194 $325 forward $316 $-1 #
edge $-1 $500 20.07803868568006 $329 23.07803868568006 $324 $501 forward 7 unknown #
coedge $-1 $502 $492 $195 $327 forward $484 $-1 #
edge $-1 $328 -23.07803868568006 $503 -20.07803868568006 $326 $504 forward 7 unknown #
vertex $-1 $327 $505 #
vertex $-1 $325 $506 #
straight-curve $-1 -44.656077371360119 22.682143920367309 0 0 0 -1 I I #
face $-1 $-1 $507 $45 $-1 $508 reversed single #
loop $-1 $-1 $204 $198 #
plane-surface $-1 0 0 12.633065473992783 0 0 1 1 0 0 forward_v I I I I #
coedge $-1 $509 $510 $511 $512 reversed $199 $-1 #
coedge $-1 $513 $201 $203 $341 forward $125 $-1 #
coedge $-1 $201 $513 $509 $514 forward $125 $-1 #
coedge $-1 $511 $204 $201 $338 forward $332 $-1 #
edge $-1 $344 -10.474261241893082 $515 -1.3406295381404689 $337 $516 forward 7 unknown #
coedge $-1 $517 $518 $202 $340 forward $507 $-1 #
edge $-1 $519 -91.439446290835761 $343 -85.183248494578976 $339 $520 forward 7 unknown #
edge $-1 $344 125.14727834374862 $519 133.84441663869143 $203 $521 forward 7 unknown #
coedge $-1 $204 $511 $517 $522 forward $332 $-1 #
vertex $-1 $205 $523 #
vertex $-1 $205 $524 #
straight-curve $-1 35.112841074021546 16.381706631909857 12.633065473992787 -1 0 0 I I #
coedge $-1 $346 $346 $-1 $525 reversed $208 $-1 #
edge $-1 $526 0 $526 6.2831853071796004 $209 $527 forward 7 unknown #
vertex $-1 $212 $528 #
ellipse-curve $-1 63.901438398635406 9.8576839863722725 9.5049665758643869 0.71933980857756763 0 0.69465836192734942 0.69465836192734942 0 -0.71933980857756763 1 I I #
coedge $-1 $350 $350 $-1 $529 reversed $215 $-1 #
edge $-1 $530 0 $530 6.2831853071796004 $216 $531 forward 7 unknown #
vertex $-1 $219 $532 #
ellipse-curve $-1 63.901438398635406 13.772097573694822 9.5049665758643869 0.71933980857756763 0 0.69465836192734942 0.69465836192734942 0 -0.71933980857756763 1 I I #
face $-1 $-1 $366 $48 $-1 $533 forward single #
loop $-1 $-1 $534 $220 #
plane-surface $-1 -66.922208319345685 0 0 1 0 0 0 0 -1 forward_v I I I I #
coedge $-1 $535 $536 $537 $538 reversed $221 $-1 #
coedge $-1 $539 $223 $225 $364 forward $139 $-1 #
coedge $-1 $223 $539 $535 $540 forward $139 $-1 #
coedge $-1 $537 $226 $223 $361 forward $366 $-1 #
edge $-1 $368 -11.757059693951589 $541 -5.3100902772468022 $360 $542 forward 7 unknown #
coedge $-1 $543 $544 $224 $363 forward $355 $-1 #
edge $-1 $545 -45.787736475178662 $367 -41.04498272506946 $362 $546 forward 7 unknown #
edge $-1 $368 -7.0879341760749428 $545 -1.8881026247711288e-014 $225 $547 forward 7 unknown #
coedge $-1 $226 $537 $543 $548 forward $366 $-1 #
loop $-1 $-1 $537 $354 #
vertex $-1 $363 $549 #
vertex $-1 $227 $550 #
straight-curve $-1 -78.240802529830347 -20.290634679550784 12.633065473992787 1 0 0 I I #
coedge $-1 $370 $370 $-1 $551 reversed $230 $-1 #
edge $-1 $552 0 $552 6.2831853071796004 $231 $553 forward 7 unknown #
vertex $-1 $234 $554 #
ellipse-curve $-1 -64.288527541888215 -17.067149971198393 10.261688598938186 -0.66913061440640931 0 0.74314481823134659 0.74314481823134659 0 0.66913061440640931 1 I I #
face $-1 $-1 $555 $50 $-1 $556 reversed single #
loop $-1 $-1 $241 $235 #
plane-surface $-1 0 0 12.633065473992783 0 0 1 1 0 0 forward_v I I I I #
coedge $-1 $557 $558 $559 $560 reversed $236 $-1 #
coedge $-1 $561 $238 $240 $384 forward $148 $-1 #
coedge $-1 $238 $561 $557 $562 forward $148 $-1 #
coedge $-1 $559 $241 $238 $381 forward $375 $-1 #
edge $-1 $387 -6.0865237138597621 $563 0.36044570284502342 $380 $564 forward 7 unknown #
coedge $-1 $565 $566 $239 $383 forward $555 $-1 #
edge $-1 $567 -45.787736475178662 $386 -41.04498272506946 $382 $568 forward 7 unknown #
edge $-1 $387 -7.0879341760749428 $567 -1.8881026247711288e-014 $240 $569 forward 7 unknown #
coedge $-1 $241 $559 $565 $570 forward $375 $-1 #
vertex $-1 $383 $571 #
vertex $-1 $242 $572 #
straight-curve $-1 -78.240802529830347 -8.9495627193671314 12.633065473992787 1 0 0 I I #
coedge $-1 $389 $389 $-1 $573 reversed $245 $-1 #
edge $-1 $574 0 $574 6.2831853071796004 $246 $575 forward 7 unknown #
vertex $-1 $249 $576 #
ellipse-curve $-1 -64.288527541888215 -5.7260780110147422 10.261688598938186 -0.66913061440640931 0 0.74314481823134659 0.74314481823134659 0 0.66913061440640931 1 I I #
face $-1 $-1 $577 $52 $-1 $578 reversed single #
loop $-1 $-1 $256 $250 #
plane-surface $-1 0 0 12.633065473992783 0 0 1 1 0 0 forward_v I I I I #
coedge $-1 $579 $580 $581 $582 reversed $251 $-1 #
coedge $-1 $583 $253 $255 $403 forward $157 $-1 #
coedge $-1 $253 $583 $579 $584 forward $157 $-1 #
coedge $-1 $581 $256 $253 $400 forward $394 $-1 #
edge $-1 $406 -0.41598773376793652 $585 6.030981682936849 $399 $586 forward 7 unknown #
coedge $-1 $587 $588 $254 $402 forward $577 $-1 #
edge $-1 $589 -45.787736475178662 $405 -41.04498272506946 $401 $590 forward 7 unknown #
edge $-1 $406 -7.0879341760749428 $589 -1.8881026247711288e-014 $255 $591 forward 7 unknown #
coedge $-1 $256 $581 $587 $592 forward $394 $-1 #
vertex $-1 $257 $593 #
vertex $-1 $257 $594 #
straight-curve $-1 -78.240802529830347 2.3915092408165197 12.633065473992787 1 0 0 I I #
coedge $-1 $408 $408 $-1 $595 reversed $260 $-1 #
edge $-1 $596 0 $596 6.2831853071796004 $261 $597 forward 7 unknown #
vertex $-1 $264 $598 #
ellipse-curve $-1 -64.288527541888215 5.6149939491689125 10.261688598938186 -0.66913061440640931 0 0.74314481823134659 0.74314481823134659 0 0.66913061440640931 1 I I #
face $-1 $-1 $599 $54 $-1 $600 reversed single #
loop $-1 $-1 $271 $265 #
plane-surface $-1 0 0 12.633065473992783 0 0 1 1 0 0 forward_v I I I I #
coedge $-1 $601 $602 $603 $604 reversed $266 $-1 #
coedge $-1 $605 $268 $270 $422 forward $166 $-1 #
coedge $-1 $268 $605 $601 $606 forward $166 $-1 #
coedge $-1 $603 $271 $268 $419 forward $413 $-1 #
edge $-1 $425 5.2545482463238908 $607 11.701517663028678 $418 $608 forward 7 unknown #
coedge $-1 $609 $610 $269 $421 forward $599 $-1 #
edge $-1 $611 -45.787736475178662 $424 -41.04498272506946 $420 $612 forward 7 unknown #
edge $-1 $425 -7.0879341760749428 $611 -1.8881026247711288e-014 $270 $613 forward 7 unknown #
coedge $-1 $271 $603 $609 $614 forward $413 $-1 #
vertex $-1 $272 $615 #
vertex $-1 $272 $616 #
straight-curve $-1 -78.240802529830347 13.732581201000174 12.633065473992787 1 0 0 I I #
coedge $-1 $427 $427 $-1 $617 reversed $275 $-1 #
edge $-1 $618 0 $618 6.2831853071796004 $276 $619 forward 7 unknown #
vertex $-1 $279 $620 #
ellipse-curve $-1 -64.288527541888215 16.956065909352567 10.261688598938186 -0.66913061440640931 0 0.74314481823134659 0.74314481823134659 0 0.66913061440640931 1 I I #
face $-1 $-1 $295 $42 $-1 $621 reversed single #
loop $-1 $-1 $447 $280 #
plane-surface $-1 0 35.145239203470943 0 0 -1 0 0 0 -1 forward_v I I I I #
coedge $-1 $622 $445 $448 $623 forward $281 $-1 #
coedge $-1 $451 $283 $284 $439 reversed $175 $-1 #
coedge $-1 $445 $622 $283 $437 reversed $281 $-1 #
edge $-1 $452 -12.633065473992783 $624 12.633065473992783 $436 $625 forward 7 unknown #
coedge $-1 $285 $284 $622 $626 forward $113 $-1 #
edge $-1 $443 -66.922208319345685 $624 66.922208319345685 $435 $627 forward 7 unknown #
coedge $-1 $448 $447 $285 $441 reversed $432 $-1 #
edge $-1 $628 -66.922208319345685 $442 66.922208319345685 $440 $629 forward 7 unknown #
vertex $-1 $287 $630 #
vertex $-1 $454 $631 #
straight-curve $-1 66.922208319345685 0 -12.633065473992783 0 -1 0 I I #
coedge $-1 $434 $436 $288 $446 reversed $281 $-1 #
edge $-1 $449 -35.145239203470943 $452 35.145239203470943 $445 $632 forward 7 unknown #
coedge $-1 $440 $289 $294 $455 forward $432 $-1 #
coedge $-1 $289 $440 $434 $623 reversed $432 $-1 #
vertex $-1 $290 $633 #
straight-curve $-1 0 35.145239203470943 12.633065473992783 -1 0 0 I I #
coedge $-1 $291 $435 $293 $454 reversed $175 $-1 #
vertex $-1 $446 $634 #
straight-curve $-1 0 -35.145239203470943 12.633065473992783 1 0 0 I I #
edge $-1 $296 -12.633065473992783 $443 12.633065473992783 $293 $635 forward 7 unknown #
edge $-1 $297 -12.633065473992783 $442 12.633065473992783 $294 $636 forward 7 unknown #
point $-1 66.922208319345685 -35.145239203470943 12.633065473992783 #
point $-1 66.922208319345685 35.145239203470943 12.633065473992783 #
face $-1 $-1 $637 $43 $-1 $638 reversed single #
loop $-1 $-1 $639 $299 #
plane-surface $-1 0 0 -12.633065473992783 0 0 1 1 0 0 forward_v I I I I #
coedge $-1 $468 $478 $463 $640 forward $300 $-1 #
coedge $-1 $305 $302 $639 $641 reversed $183 $-1 #
coedge $-1 $302 $305 $461 $640 reversed $183 $-1 #
coedge $-1 $642 $643 $302 $465 forward $637 $-1 #
edge $-1 $644 -12.633065473992783 $645 12.633065473992783 $464 $646 forward 7 unknown #
coedge $-1 $639 $308 $303 $467 forward $459 $-1 #
edge $-1 $313 -23.07803868568006 $471 -20.07803868568006 $466 $647 forward 7 unknown #
coedge $-1 $310 $461 $304 $469 forward $300 $-1 #
edge $-1 $470 20.07803868568006 $312 23.07803868568006 $468 $648 forward 7 unknown #
vertex $-1 $469 $649 #
vertex $-1 $467 $650 #
straight-curve $-1 -41.656077371360119 -22.682143920367302 0 0 0 -1 I I #
coedge $-1 $643 $642 $307 $474 forward $637 $-1 #
edge $-1 $479 -12.633065473992783 $476 12.633065473992783 $473 $651 forward 7 unknown #
coedge $-1 $308 $639 $643 $652 forward $459 $-1 #
vertex $-1 $309 $653 #
straight-curve $-1 -44.656077371360119 -14.456845780959561 -12.633065473992783 0 1 0 I I #
coedge $-1 $461 $310 $642 $654 forward $300 $-1 #
vertex $-1 $654 $655 #
straight-curve $-1 -44.656077371360119 -14.456845780959561 12.633065473992783 0 -1 0 I I #
point $-1 -44.656077371360119 -22.682143920367302 12.633065473992783 #
point $-1 -44.656077371360119 -22.682143920367302 -12.633065473992783 #
face $-1 $-1 $496 $44 $-1 $656 reversed single #
loop $-1 $-1 $502 $315 #
plane-surface $-1 0 0 12.633065473992783 0 0 1 1 0 0 forward_v I I I I #
coedge $-1 $324 $657 $487 $658 forward $316 $-1 #
coedge $-1 $659 $318 $486 $658 reversed $191 $-1 #
coedge $-1 $318 $659 $502 $660 reversed $191 $-1 #
edge $-1 $503 -12.633065473992783 $500 12.633065473992783 $318 $661 forward 7 unknown #
coedge $-1 $657 $324 $319 $491 forward $316 $-1 #
edge $-1 $329 8.2252981394077445 $497 20.688393422511385 $490 $662 forward 7 unknown #
coedge $-1 $326 $663 $320 $493 forward $484 $-1 #
edge $-1 $498 -20.688393422511385 $328 -8.2252981394077445 $492 $664 forward 7 unknown #
coedge $-1 $665 $321 $663 $666 reversed $496 $-1 #
coedge $-1 $321 $665 $657 $667 reversed $496 $-1 #
loop $-1 $-1 $665 $483 #
vertex $-1 $667 $668 #
vertex $-1 $322 $669 #
straight-curve $-1 -44.656077371360119 35.145239203470943 0 0 0 1 I I #
vertex $-1 $325 $670 #
straight-curve $-1 -21.57803868568006 22.682143920367309 -12.633065473992783 -1 0 0 I I #
coedge $-1 $663 $326 $488 $660 forward $484 $-1 #
vertex $-1 $327 $671 #
straight-curve $-1 -21.57803868568006 22.682143920367309 12.633065473992783 1 0 0 I I #
point $-1 -44.656077371360119 22.682143920367309 12.633065473992783 #
point $-1 -44.656077371360119 22.682143920367309 -12.633065473992783 #
loop $-1 $-1 $339 $331 #
plane-surface $-1 66.922208319345685 0 0 -1 0 0 0 0 1 forward_v I I I I #
coedge $-1 $510 $334 $336 $514 reversed $199 $-1 #
coedge $-1 $334 $509 $672 $673 reversed $199 $-1 #
coedge $-1 $342 $337 $334 $512 forward $332 $-1 #
edge $-1 $515 25.767827403903553 $674 31.80936724532414 $511 $675 forward 7 unknown #
coedge $-1 $336 $335 $518 $676 reversed $125 $-1 #
edge $-1 $677 -133.84441663869143 $515 -125.14727834374862 $509 $678 forward 7 unknown #
vertex $-1 $338 $679 #
straight-curve $-1 60.880668477925092 5.9074453900167754 12.633065473992794 0 -1 0 I I #
coedge $-1 $672 $339 $342 $522 reversed $507 $-1 #
coedge $-1 $339 $672 $513 $676 forward $507 $-1 #
vertex $-1 $340 $680 #
straight-curve $-1 66.922208319345685 16.381706631909857 97.816313968571762 0 0 1 I I #
straight-curve $-1 -26.053934896009366 16.381706631909857 102.6564847217885 0.69465836192734942 0 -0.71933980857756763 I I #
edge $-1 $674 7.2480749281572443 $343 16.381706631909857 $517 $681 forward 7 unknown #
point $-1 66.922208319345685 16.381706631909857 12.633065473992783 #
point $-1 60.880668477925099 16.381706631909857 12.633065473992787 #
edge $-1 $682 1 $682 0 $346 $-1 forward 7 unknown #
vertex $-1 $347 $683 #
ellipse-curve $-1 61.976803216348522 9.8576839863722725 7.6463680288454396 0.71933980857756763 0 0.69465836192734942 0.69465836192734942 0 -0.71933980857756763 1 I I #
point $-1 64.596096760562787 9.8576839863722725 8.7856267672868462 #
edge $-1 $684 1 $684 0 $350 $-1 forward 7 unknown #
vertex $-1 $351 $685 #
ellipse-curve $-1 61.976803216348522 13.772097573694822 7.6463680288454396 0.71933980857756763 0 0.69465836192734942 0.69465836192734942 0 -0.71933980857756763 1 I I #
point $-1 64.596096760562787 13.772097573694822 8.7856267672868462 #
plane-surface $-1 0 0 12.633065473992783 0 0 1 1 0 0 forward_v I I I I #
coedge $-1 $544 $543 $536 $686 forward $355 $-1 #
coedge $-1 $536 $357 $359 $540 reversed $221 $-1 #
coedge $-1 $357 $535 $534 $686 reversed $221 $-1 #
coedge $-1 $365 $360 $357 $538 forward $366 $-1 #
edge $-1 $541 -16.585955765399611 $687 -11.318594210484662 $537 $688 forward 7 unknown #
coedge $-1 $359 $358 $544 $689 reversed $139 $-1 #
edge $-1 $690 1.8881026247711288e-014 $541 7.0879341760749428 $535 $691 forward 7 unknown #
vertex $-1 $361 $692 #
straight-curve $-1 -61.654846764430737 -8.5335749855991949 12.633065473992783 0 1 0 I I #
coedge $-1 $534 $362 $365 $548 reversed $355 $-1 #
coedge $-1 $362 $534 $539 $689 forward $355 $-1 #
vertex $-1 $363 $693 #
straight-curve $-1 -66.922208319345685 -20.290634679550784 53.678048199062246 0 0 1 I I #
straight-curve $-1 -66.9222083193457 -20.290634679550784 7.8903117238835705 -0.74314481823134659 0 -0.66913061440640931 I I #
edge $-1 $687 13.843665262845997 $367 20.290634679550784 $543 $694 forward 7 unknown #
point $-1 -66.922208319345685 -20.290634679550784 12.633065473992783 #
point $-1 -61.654846764430737 -20.290634679550784 12.633065473992783 #
edge $-1 $695 1 $695 0 $370 $-1 forward 7 unknown #
vertex $-1 $371 $696 #
ellipse-curve $-1 -63.387763010455146 -17.067149971198393 9.2612882592004819 -0.66913061440640931 0 0.74314481823134659 0.74314481823134659 0 0.66913061440640931 1 I I #
point $-1 -63.545382723656843 -17.067149971198393 10.930819213344574 #
loop $-1 $-1 $382 $374 #
plane-surface $-1 -66.922208319345685 0 0 1 0 0 0 0 -1 forward_v I I I I #
coedge $-1 $558 $377 $379 $562 reversed $236 $-1 #
coedge $-1 $377 $557 $697 $698 reversed $236 $-1 #
coedge $-1 $385 $380 $377 $560 forward $375 $-1 #
edge $-1 $563 -16.585955765399611 $699 -11.318594210484662 $559 $700 forward 7 unknown #
coedge $-1 $379 $378 $566 $701 reversed $148 $-1 #
edge $-1 $702 1.8881026247711288e-014 $563 7.0879341760749428 $557 $703 forward 7 unknown #
vertex $-1 $381 $704 #
straight-curve $-1 -61.654846764430737 -2.8630390055073693 12.633065473992783 0 1 0 I I #
coedge $-1 $697 $382 $385 $570 reversed $555 $-1 #
coedge $-1 $382 $697 $561 $701 forward $555 $-1 #
vertex $-1 $383 $705 #
straight-curve $-1 -66.922208319345685 -8.9495627193671314 53.678048199062246 0 0 1 I I #
straight-curve $-1 -66.9222083193457 -8.9495627193671314 7.8903117238835705 -0.74314481823134659 0 -0.66913061440640931 I I #
edge $-1 $699 2.5025933026623459 $386 8.9495627193671314 $565 $706 forward 7 unknown #
point $-1 -66.922208319345685 -8.9495627193671314 12.633065473992783 #
point $-1 -61.654846764430737 -8.9495627193671314 12.633065473992783 #
edge $-1 $707 1 $707 0 $389 $-1 forward 7 unknown #
vertex $-1 $390 $708 #
ellipse-curve $-1 -63.387763010455146 -5.7260780110147422 9.2612882592004819 -0.66913061440640931 0 0.74314481823134659 0.74314481823134659 0 0.66913061440640931 1 I I #
point $-1 -63.545382723656843 -5.7260780110147422 10.930819213344574 #
loop $-1 $-1 $401 $393 #
plane-surface $-1 -66.922208319345685 0 0 1 0 0 0 0 -1 forward_v I I I I #
coedge $-1 $580 $396 $398 $584 reversed $251 $-1 #
coedge $-1 $396 $579 $709 $710 reversed $251 $-1 #
coedge $-1 $404 $399 $396 $582 forward $394 $-1 #
edge $-1 $585 -16.585955765399611 $711 -11.318594210484662 $581 $712 forward 7 unknown #
coedge $-1 $398 $397 $588 $713 reversed $157 $-1 #
edge $-1 $714 1.8881026247711288e-014 $585 7.0879341760749428 $579 $715 forward 7 unknown #
vertex $-1 $400 $716 #
straight-curve $-1 -61.654846764430737 2.8074969745844562 12.633065473992783 0 1 0 I I #
coedge $-1 $709 $401 $404 $592 reversed $577 $-1 #
coedge $-1 $401 $709 $583 $713 forward $577 $-1 #
vertex $-1 $402 $717 #
straight-curve $-1 -66.922208319345685 2.3915092408165197 53.678048199062246 0 0 1 I I #
straight-curve $-1 -66.9222083193457 2.3915092408165197 7.8903117238835705 -0.74314481823134659 0 -0.66913061440640931 I I #
edge $-1 $711 -8.8384786575213052 $405 -2.3915092408165197 $587 $718 forward 7 unknown #
point $-1 -66.922208319345685 2.3915092408165197 12.633065473992783 #
point $-1 -61.654846764430737 2.3915092408165197 12.633065473992783 #
edge $-1 $719 1 $719 0 $408 $-1 forward 7 unknown #
vertex $-1 $409 $720 #
ellipse-curve $-1 -63.387763010455146 5.6149939491689125 9.2612882592004819 -0.66913061440640931 0 0.74314481823134659 0.74314481823134659 0 0.66913061440640931 1 I I #
point $-1 -63.545382723656843 5.6149939491689125 10.930819213344574 #
loop $-1 $-1 $420 $412 #
plane-surface $-1 -66.922208319345685 0 0 1 0 0 0 0 -1 forward_v I I I I #
coedge $-1 $602 $415 $417 $606 reversed $266 $-1 #
coedge $-1 $415 $601 $721 $722 reversed $266 $-1 #
coedge $-1 $423 $418 $415 $604 forward $413 $-1 #
edge $-1 $607 -16.585955765399611 $723 -11.318594210484662 $603 $724 forward 7 unknown #
coedge $-1 $417 $416 $610 $725 reversed $166 $-1 #
edge $-1 $726 1.8881026247711288e-014 $607 7.0879341760749428 $601 $727 forward 7 unknown #
vertex $-1 $419 $728 #
straight-curve $-1 -61.654846764430737 8.4780329546762836 12.633065473992783 0 1 0 I I #
coedge $-1 $721 $420 $423 $614 reversed $599 $-1 #
coedge $-1 $420 $721 $605 $725 forward $599 $-1 #
vertex $-1 $421 $729 #
straight-curve $-1 -66.922208319345685 13.732581201000174 53.678048199062246 0 0 1 I I #
straight-curve $-1 -66.9222083193457 13.732581201000174 7.8903117238835705 -0.74314481823134659 0 -0.66913061440640931 I I #
edge $-1 $723 -20.179550617704962 $424 -13.732581201000174 $609 $730 forward 7 unknown #
point $-1 -66.922208319345685 13.732581201000174 12.633065473992783 #
point $-1 -61.654846764430737 13.732581201000174 12.633065473992783 #
edge $-1 $731 1 $731 0 $427 $-1 forward 7 unknown #
vertex $-1 $428 $732 #
ellipse-curve $-1 -63.387763010455146 16.956065909352567 9.2612882592004819 -0.66913061440640931 0 0.74314481823134659 0.74314481823134659 0 0.66913061440640931 1 I I #
point $-1 -63.545382723656843 16.956065909352567 10.930819213344574 #
plane-surface $-1 66.922208319345685 0 0 -1 0 0 0 0 1 forward_v I I I I #
coedge $-1 $436 $434 $438 $626 reversed $281 $-1 #
edge $-1 $449 -12.633065473992783 $628 12.633065473992783 $448 $733 forward 7 unknown #
vertex $-1 $626 $734 #
straight-curve $-1 -66.922208319345685 -35.145239203470943 0 0 0 -1 I I #
edge $-1 $624 -35.145239203470943 $628 35.145239203470943 $622 $735 forward 7 unknown #
straight-curve $-1 0 -35.145239203470943 -12.633065473992783 -1 0 0 I I #
vertex $-1 $441 $736 #
straight-curve $-1 0 35.145239203470943 -12.633065473992783 1 0 0 I I #
point $-1 66.922208319345685 35.145239203470943 -12.633065473992783 #
point $-1 66.922208319345685 -35.145239203470943 -12.633065473992783 #
straight-curve $-1 -66.922208319345685 0 12.633065473992783 0 -1 0 I I #
point $-1 -66.922208319345685 35.145239203470943 12.633065473992783 #
point $-1 -66.922208319345685 -35.145239203470943 12.633065473992783 #
straight-curve $-1 66.922208319345685 -35.145239203470943 0 0 0 -1 I I #
straight-curve $-1 66.922208319345685 35.145239203470943 0 0 0 -1 I I #
loop $-1 $-1 $464 $458 #
plane-surface $-1 0 -35.145239203470943 0 0 1 0 0 0 1 forward_v I I I I #
coedge $-1 $475 $466 $462 $641 forward $459 $-1 #
edge $-1 $645 -20.688393422511382 $470 -8.2252981394077409 $461 $737 forward 7 unknown #
edge $-1 $471 8.2252981394077409 $644 20.688393422511382 $639 $738 forward 7 unknown #
coedge $-1 $473 $464 $478 $654 reversed $637 $-1 #
coedge $-1 $464 $473 $475 $652 reversed $637 $-1 #
vertex $-1 $652 $739 #
vertex $-1 $465 $740 #
straight-curve $-1 -41.656077371360119 -35.145239203470943 0 0 0 1 I I #
straight-curve $-1 -21.57803868568006 -22.682143920367302 -12.633065473992783 1 0 0 I I #
straight-curve $-1 -21.57803868568006 -22.682143920367302 12.633065473992783 -1 0 0 I I #
point $-1 -41.656077371360119 -22.682143920367302 12.633065473992783 #
point $-1 -41.656077371360119 -22.682143920367302 -12.633065473992783 #
straight-curve $-1 -44.656077371360119 -35.145239203470943 0 0 0 -1 I I #
edge $-1 $644 41.656077371360119 $476 44.656077371360119 $643 $741 forward 7 unknown #
point $-1 -44.656077371360119 -35.145239203470943 -12.633065473992783 #
edge $-1 $479 -44.656077371360119 $645 -41.656077371360119 $642 $742 forward 7 unknown #
point $-1 -44.656077371360119 -35.145239203470943 12.633065473992783 #
plane-surface $-1 0 35.145239203470943 0 0 -1 0 0 0 -1 forward_v I I I I #
coedge $-1 $486 $490 $495 $667 forward $316 $-1 #
edge $-1 $743 -20.688393422511385 $500 -8.2252981394077445 $486 $744 forward 7 unknown #
coedge $-1 $488 $487 $665 $745 reversed $191 $-1 #
edge $-1 $503 8.2252981394077445 $746 20.688393422511385 $502 $747 forward 7 unknown #
straight-curve $-1 -41.656077371360119 22.682143920367309 0 0 0 -1 I I #
straight-curve $-1 -44.656077371360119 14.456845780959565 -12.633065473992783 0 1 0 I I #
coedge $-1 $492 $502 $494 $666 forward $484 $-1 #
straight-curve $-1 -44.656077371360119 14.456845780959565 12.633065473992783 0 -1 0 I I #
coedge $-1 $495 $494 $659 $745 forward $496 $-1 #
edge $-1 $746 41.656077371360119 $498 44.656077371360119 $494 $748 forward 7 unknown #
edge $-1 $497 -44.656077371360119 $743 -41.656077371360119 $495 $749 forward 7 unknown #
point $-1 -44.656077371360119 35.14523920347095 -12.633065473992783 #
point $-1 -44.656077371360119 35.14523920347095 12.633065473992783 #
point $-1 -41.656077371360119 22.682143920367309 -12.633065473992783 #
point $-1 -41.656077371360119 22.682143920367309 12.633065473992783 #
coedge $-1 $518 $517 $510 $673 forward $507 $-1 #
edge $-1 $674 85.183248494578976 $677 91.439446290835761 $672 $750 forward 7 unknown #
vertex $-1 $522 $751 #
straight-curve $-1 35.112841074021546 7.2480749281572443 12.633065473992787 1 0 0 I I #
edge $-1 $677 1.3406295381404689 $519 10.474261241893082 $518 $752 forward 7 unknown #
vertex $-1 $676 $753 #
straight-curve $-1 -26.053934896009366 7.2480749281572443 102.6564847217885 -0.69465836192734942 0 0.71933980857756763 I I #
point $-1 60.880668477925099 7.2480749281572443 12.633065473992787 #
point $-1 66.922208319345685 16.381706631909857 6.3768676777360014 #
straight-curve $-1 66.922208319345685 0 12.633065473992783 0 1 0 I I #
vertex $-1 $525 $754 #
point $-1 62.671461578275867 9.8576839863722725 6.9270282202678723 #
vertex $-1 $529 $755 #
point $-1 62.671461578275867 13.772097573694822 6.9270282202678723 #
edge $-1 $687 41.04498272506946 $690 45.787736475178662 $534 $756 forward 7 unknown #
vertex $-1 $548 $757 #
straight-curve $-1 -78.240802529830347 -13.843665262845997 12.633065473992787 -1 0 0 I I #
edge $-1 $690 5.3100902772468022 $545 11.757059693951589 $544 $758 forward 7 unknown #
vertex $-1 $689 $759 #
straight-curve $-1 -66.9222083193457 -13.843665262845997 7.8903117238835705 0.74314481823134659 0 0.66913061440640931 I I #
point $-1 -61.654846764430737 -13.843665262845997 12.633065473992783 #
point $-1 -66.922208319345685 -20.290634679550784 7.8903117238835829 #
straight-curve $-1 -66.922208319345685 0 12.633065473992783 0 -1 0 I I #
vertex $-1 $551 $760 #
point $-1 -62.644618192223795 -17.067149971198393 9.9304188736068912 #
coedge $-1 $566 $565 $558 $698 forward $555 $-1 #
edge $-1 $699 41.04498272506946 $702 45.787736475178662 $697 $761 forward 7 unknown #
vertex $-1 $570 $762 #
straight-curve $-1 -78.240802529830347 -2.5025933026623459 12.633065473992787 -1 0 0 I I #
edge $-1 $702 -0.36044570284502342 $567 6.0865237138597621 $566 $763 forward 7 unknown #
vertex $-1 $701 $764 #
straight-curve $-1 -66.9222083193457 -2.5025933026623459 7.8903117238835705 0.74314481823134659 0 0.66913061440640931 I I #
point $-1 -61.654846764430737 -2.5025933026623459 12.633065473992783 #
point $-1 -66.922208319345685 -8.9495627193671314 7.8903117238835829 #
straight-curve $-1 -66.922208319345685 0 12.633065473992783 0 -1 0 I I #
vertex $-1 $573 $765 #
point $-1 -62.644618192223795 -5.7260780110147422 9.9304188736068912 #
coedge $-1 $588 $587 $580 $710 forward $577 $-1 #
edge $-1 $711 41.04498272506946 $714 45.787736475178662 $709 $766 forward 7 unknown #
vertex $-1 $592 $767 #
straight-curve $-1 -78.240802529830347 8.8384786575213052 12.633065473992787 -1 0 0 I I #
edge $-1 $714 -6.030981682936849 $589 0.41598773376793652 $588 $768 forward 7 unknown #
vertex $-1 $713 $769 #
straight-curve $-1 -66.9222083193457 8.8384786575213052 7.8903117238835705 0.74314481823134659 0 0.66913061440640931 I I #
point $-1 -61.654846764430737 8.8384786575213052 12.633065473992783 #
point $-1 -66.922208319345685 2.3915092408165197 7.8903117238835829 #
straight-curve $-1 -66.922208319345685 0 12.633065473992783 0 -1 0 I I #
vertex $-1 $595 $770 #
point $-1 -62.644618192223795 5.6149939491689125 9.9304188736068912 #
coedge $-1 $610 $609 $602 $722 forward $599 $-1 #
edge $-1 $723 41.04498272506946 $726 45.787736475178662 $721 $771 forward 7 unknown #
vertex $-1 $614 $772 #
straight-curve $-1 -78.240802529830347 20.179550617704962 12.633065473992787 -1 0 0 I I #
edge $-1 $726 -11.701517663028678 $611 -5.2545482463238908 $610 $773 forward 7 unknown #
vertex $-1 $725 $774 #
straight-curve $-1 -66.9222083193457 20.179550617704962 7.8903117238835705 0.74314481823134659 0 0.66913061440640931 I I #
point $-1 -61.654846764430737 20.179550617704962 12.633065473992783 #
point $-1 -66.922208319345685 13.732581201000174 7.8903117238835829 #
straight-curve $-1 -66.922208319345685 0 12.633065473992783 0 -1 0 I I #
vertex $-1 $617 $775 #
point $-1 -62.644618192223795 16.956065909352567 9.9304188736068912 #
straight-curve $-1 -66.922208319345685 35.145239203470943 0 0 0 -1 I I #
point $-1 -66.922208319345685 -35.145239203470943 -12.633065473992783 #
straight-curve $-1 -66.922208319345685 0 -12.633065473992783 0 1 0 I I #
point $-1 -66.922208319345685 35.145239203470943 -12.633065473992783 #
straight-curve $-1 -41.656077371360119 -14.456845780959561 12.633065473992783 0 1 0 I I #
straight-curve $-1 -41.656077371360119 -14.456845780959561 -12.633065473992783 0 -1 0 I I #
point $-1 -41.656077371360119 -35.145239203470943 -12.633065473992783 #
point $-1 -41.656077371360119 -35.145239203470943 12.633065473992783 #
straight-curve $-1 0 -35.145239203470943 -12.633065473992783 -1 0 0 I I #
straight-curve $-1 0 -35.145239203470943 12.633065473992783 1 0 0 I I #
vertex $-1 $745 $776 #
straight-curve $-1 -41.656077371360119 14.456845780959565 -12.633065473992783 0 -1 0 I I #
edge $-1 $746 -12.633065473992783 $743 12.633065473992783 $665 $777 forward 7 unknown #
vertex $-1 $666 $778 #
straight-curve $-1 -41.656077371360119 14.456845780959565 12.633065473992783 0 1 0 I I #
straight-curve $-1 0 35.145239203470943 12.633065473992783 -1 0 0 I I #
straight-curve $-1 0 35.145239203470943 -12.633065473992783 1 0 0 I I #
straight-curve $-1 66.922208319345685 7.2480749281572443 97.816313968571762 0 0 -1 I I #
point $-1 66.922208319345685 7.2480749281572443 12.633065473992783 #
straight-curve $-1 66.922208319345685 5.9074453900167754 6.3768676777360085 0 1 0 I I #
point $-1 66.922208319345685 7.2480749281572443 6.3768676777360014 #
point $-1 61.257463407770949 9.8576839863722725 6.9517096669180889 #
point $-1 61.257463407770949 13.772097573694822 6.9517096669180889 #
straight-curve $-1 -66.922208319345685 -13.843665262845997 53.678048199062246 0 0 -1 I I #
point $-1 -66.922208319345685 -13.843665262845997 12.633065473992783 #
straight-curve $-1 -66.922208319345685 -8.5335749855991949 7.8903117238835776 0 -1 0 I I #
point $-1 -66.922208319345685 -13.843665262845997 7.8903117238835829 #
point $-1 -62.718632396048733 -17.067149971198393 8.5181434409691352 #
straight-curve $-1 -66.922208319345685 -2.5025933026623459 53.678048199062246 0 0 -1 I I #
point $-1 -66.922208319345685 -2.5025933026623459 12.633065473992783 #
straight-curve $-1 -66.922208319345685 -2.8630390055073693 7.8903117238835776 0 -1 0 I I #
point $-1 -66.922208319345685 -2.5025933026623459 7.8903117238835829 #
point $-1 -62.718632396048733 -5.7260780110147422 8.5181434409691352 #
straight-curve $-1 -66.922208319345685 8.8384786575213052 53.678048199062246 0 0 -1 I I #
point $-1 -66.922208319345685 8.8384786575213052 12.633065473992783 #
straight-curve $-1 -66.922208319345685 2.8074969745844562 7.8903117238835776 0 -1 0 I I #
point $-1 -66.922208319345685 8.8384786575213052 7.8903117238835829 #
point $-1 -62.718632396048733 5.6149939491689125 8.5181434409691352 #
straight-curve $-1 -66.922208319345685 20.179550617704962 53.678048199062246 0 0 -1 I I #
point $-1 -66.922208319345685 20.179550617704962 12.633065473992783 #
straight-curve $-1 -66.922208319345685 8.4780329546762836 7.8903117238835776 0 -1 0 I I #
point $-1 -66.922208319345685 20.179550617704962 7.8903117238835829 #
point $-1 -62.718632396048733 16.956065909352567 8.5181434409691352 #
point $-1 -41.656077371360119 35.14523920347095 -12.633065473992783 #
straight-curve $-1 -41.656077371360119 35.145239203470943 0 0 0 -1 I I #
point $-1 -41.656077371360119 35.14523920347095 12.633065473992783 #
End-of-ACIS-data 