500 0 18 0           
7 Unknown 11 ACIS 5.0 NT 24 Thu Mar 25 22:59:30 1999 
-1 9.9999999999999995e-007 1e-010 
body $-1 $18 $-1 $19 #
body $-1 $20 $-1 $21 #
body $-1 $22 $-1 $23 #
body $-1 $24 $-1 $25 #
body $-1 $26 $-1 $27 #
body $-1 $28 $-1 $29 #
body $-1 $30 $-1 $31 #
body $-1 $32 $-1 $33 #
body $-1 $34 $-1 $35 #
body $-1 $36 $-1 $37 #
body $-1 $38 $-1 $39 #
body $-1 $40 $-1 $41 #
body $-1 $42 $-1 $43 #
body $-1 $44 $-1 $45 #
body $-1 $46 $-1 $47 #
body $-1 $48 $-1 $49 #
body $-1 $50 $-1 $51 #
body $-1 $52 $-1 $53 #
lump $-1 $-1 $54 $0 #
transform $-1 1 0 0 0 1 0 0 0 1 53.229163487655264 21.956887797118895 4.5664724653165116 1 rotate no_reflect no_shear #
lump $-1 $-1 $55 $1 #
transform $-1 1 0 0 0 1 0 0 0 1 53.229163487655264 21.956887797118895 4.5664724653165116 1 rotate no_reflect no_shear #
lump $-1 $-1 $56 $2 #
transform $-1 1 0 0 0 1 0 0 0 1 53.229163487655264 21.956887797118895 4.5664724653165116 1 rotate no_reflect no_shear #
lump $-1 $-1 $57 $3 #
transform $-1 1 0 0 0 1 0 0 0 1 53.229163487655264 21.956887797118895 4.5664724653165116 1 rotate no_reflect no_shear #
lump $-1 $-1 $58 $4 #
transform $-1 1 0 0 0 1 0 0 0 1 53.229163487655264 21.956887797118895 4.5664724653165116 1 rotate no_reflect no_shear #
lump $-1 $-1 $59 $5 #
transform $-1 1 0 0 0 1 0 0 0 1 53.229163487655264 21.956887797118895 4.5664724653165116 1 rotate no_reflect no_shear #
lump $-1 $-1 $60 $6 #
transform $-1 1 0 0 0 1 0 0 0 1 53.229163487655264 21.956887797118895 4.5664724653165116 1 rotate no_reflect no_shear #
lump $-1 $-1 $61 $7 #
transform $-1 1 0 0 0 1 0 0 0 1 53.229163487655264 21.956887797118895 4.5664724653165116 1 rotate no_reflect no_shear #
lump $-1 $-1 $62 $8 #
transform $-1 1 0 0 0 1 0 0 0 1 53.229163487655264 21.956887797118895 4.5664724653165116 1 rotate no_reflect no_shear #
lump $-1 $-1 $63 $9 #
transform $-1 1 0 0 0 1 0 0 0 1 53.229163487655264 21.956887797118895 4.5664724653165116 1 rotate no_reflect no_shear #
lump $-1 $-1 $64 $10 #
transform $-1 1 0 0 0 1 0 0 0 1 53.229163487655264 21.956887797118895 4.5664724653165116 1 rotate no_reflect no_shear #
lump $-1 $-1 $65 $11 #
transform $-1 1 0 0 0 1 0 0 0 1 53.229163487655264 21.956887797118895 4.5664724653165116 1 rotate no_reflect no_shear #
lump $-1 $-1 $66 $12 #
transform $-1 1 0 0 0 1 0 0 0 1 53.229163487655264 21.956887797118895 4.5664724653165116 1 rotate no_reflect no_shear #
lump $-1 $-1 $67 $13 #
transform $-1 1 0 0 0 1 0 0 0 1 53.229163487655264 21.956887797118895 4.5664724653165116 1 rotate no_reflect no_shear #
lump $-1 $-1 $68 $14 #
transform $-1 1 0 0 0 1 0 0 0 1 53.229163487655264 21.956887797118895 4.5664724653165116 1 rotate no_reflect no_shear #
lump $-1 $-1 $69 $15 #
transform $-1 1 0 0 0 1 0 0 0 1 53.229163487655264 21.956887797118895 4.5664724653165116 1 rotate no_reflect no_shear #
lump $-1 $-1 $70 $16 #
transform $-1 1 0 0 0 1 0 0 0 1 53.229163487655264 21.956887797118895 4.5664724653165116 1 rotate no_reflect no_shear #
lump $-1 $-1 $71 $17 #
transform $-1 1 0 0 0 1 0 0 0 1 53.229163487655264 21.956887797118895 4.5664724653165116 1 rotate no_reflect no_shear #
shell $-1 $-1 $-1 $72 $-1 $18 #
shell $-1 $-1 $-1 $73 $-1 $20 #
shell $-1 $-1 $-1 $74 $-1 $22 #
shell $-1 $-1 $-1 $75 $-1 $24 #
shell $-1 $-1 $-1 $76 $-1 $26 #
shell $-1 $-1 $-1 $77 $-1 $28 #
shell $-1 $-1 $-1 $78 $-1 $30 #
shell $-1 $-1 $-1 $79 $-1 $32 #
shell $-1 $-1 $-1 $80 $-1 $34 #
shell $-1 $-1 $-1 $81 $-1 $36 #
shell $-1 $-1 $-1 $82 $-1 $38 #
shell $-1 $-1 $-1 $83 $-1 $40 #
shell $-1 $-1 $-1 $84 $-1 $42 #
shell $-1 $-1 $-1 $85 $-1 $44 #
shell $-1 $-1 $-1 $86 $-1 $46 #
shell $-1 $-1 $-1 $87 $-1 $48 #
shell $-1 $-1 $-1 $88 $-1 $50 #
shell $-1 $-1 $-1 $89 $-1 $52 #
face $-1 $90 $91 $54 $-1 $92 forward single #
face $-1 $93 $94 $55 $-1 $95 forward single #
face $-1 $96 $97 $56 $-1 $98 reversed single #
face $-1 $99 $100 $57 $-1 $101 forward single #
face $-1 $102 $103 $58 $-1 $104 forward single #
face $-1 $105 $106 $59 $-1 $107 forward single #
face $-1 $108 $109 $60 $-1 $110 reversed single #
face $-1 $111 $112 $61 $-1 $113 forward single #
face $-1 $114 $115 $62 $-1 $116 forward single #
face $-1 $117 $118 $63 $-1 $119 reversed single #
face $-1 $120 $121 $64 $-1 $122 forward single #
face $-1 $123 $124 $65 $-1 $125 forward single #
face $-1 $126 $127 $66 $-1 $128 reversed single #
face $-1 $129 $130 $67 $-1 $131 forward single #
face $-1 $132 $133 $68 $-1 $134 forward single #
face $-1 $135 $136 $69 $-1 $137 reversed single #
face $-1 $138 $139 $70 $-1 $140 forward single #
face $-1 $141 $142 $71 $-1 $143 forward single #
face $-1 $144 $145 $54 $-1 $146 reversed single #
loop $-1 $-1 $147 $72 #
plane-surface $-1 0 0 4.5664724653165116 0 0 1 1 0 0 forward_v I I I I #
face $-1 $148 $149 $55 $-1 $150 reversed single #
loop $-1 $-1 $151 $73 #
plane-surface $-1 -53.229163487655264 0 0 1 0 0 0 0 -1 forward_v I I I I #
face $-1 $152 $153 $56 $-1 $154 reversed single #
loop $-1 $-1 $155 $74 #
plane-surface $-1 47.215666533742969 -21.956887797118895 0.13170664515968156 0 -0.61566148304635926 0.78801074757464917 1 0 0 forward_v I I I I #
face $-1 $156 $157 $57 $-1 $158 forward single #
loop $-1 $159 $160 $75 #
cone-surface $-1 43.6075683613956 -18.266570057910396 1.2583270360268188 0 0.61566148304635926 -0.78801074757464917 1 0 0 1 I I 0 1 1 forward I I I I #
face $-1 $161 $162 $58 $-1 $163 forward single #
loop $-1 $164 $165 $76 #
cone-surface $-1 47.215666533742969 -18.266570057910396 1.2583270360268188 0 0.61566148304635926 -0.78801074757464917 1 0 0 1 I I 0 1 1 forward I I I I #
face $-1 $166 $167 $59 $-1 $168 forward single #
loop $-1 $169 $170 $77 #
cone-surface $-1 50.823764706090337 -18.266570057910396 1.2583270360268188 0 0.61566148304635926 -0.78801074757464917 1 0 0 1 I I 0 1 1 forward I I I I #
face $-1 $171 $172 $60 $-1 $173 reversed single #
loop $-1 $-1 $174 $78 #
plane-surface $-1 -39.795728341127479 68.03152892468843 106.49454489693817 1 0 0 0 -0.71933980857756763 -0.69465836192734942 forward_v I I I I #
face $-1 $175 $176 $61 $-1 $177 forward single #
loop $-1 $178 $179 $79 #
cone-surface $-1 -36.775775296573315 19.145030050181326 1.7292525251101569 0 -0.71933980857756763 -0.69465836192734942 1 0 0 1 I I 0 1 1 forward I I I I #
face $-1 $180 $181 $62 $-1 $182 forward single #
loop $-1 $183 $184 $80 #
cone-surface $-1 -32.245845729742072 19.145030050181326 1.7292525251101569 0 -0.71933980857756763 -0.69465836192734942 1 0 0 1 I I 0 1 1 forward I I I I #
face $-1 $185 $186 $63 $-1 $187 reversed single #
loop $-1 $-1 $188 $81 #
plane-surface $-1 -14.063201022606332 68.03152892468843 106.49454489693817 1 0 0 0 -0.71933980857756763 -0.69465836192734942 forward_v I I I I #
face $-1 $189 $190 $64 $-1 $191 forward single #
loop $-1 $192 $193 $82 #
cone-surface $-1 -11.043247978052172 19.145030050181326 1.7292525251101569 0 -0.71933980857756763 -0.69465836192734942 1 0 0 1 I I 0 1 1 forward I I I I #
face $-1 $194 $195 $65 $-1 $196 forward single #
loop $-1 $197 $198 $83 #
cone-surface $-1 -6.5133184112209292 19.145030050181326 1.7292525251101569 0 -0.71933980857756763 -0.69465836192734942 1 0 0 1 I I 0 1 1 forward I I I I #
face $-1 $199 $200 $66 $-1 $201 reversed single #
loop $-1 $-1 $202 $84 #
plane-surface $-1 11.669326295914818 68.03152892468843 106.49454489693817 1 0 0 0 -0.71933980857756763 -0.69465836192734942 forward_v I I I I #
face $-1 $203 $204 $67 $-1 $205 forward single #
loop $-1 $206 $207 $85 #
cone-surface $-1 14.689279340468978 19.145030050181326 1.7292525251101569 0 -0.71933980857756763 -0.69465836192734942 1 0 0 1 I I 0 1 1 forward I I I I #
face $-1 $208 $209 $68 $-1 $210 forward single #
loop $-1 $211 $212 $86 #
cone-surface $-1 19.219208907300221 19.145030050181326 1.7292525251101569 0 -0.71933980857756763 -0.69465836192734942 1 0 0 1 I I 0 1 1 forward I I I I #
face $-1 $213 $214 $69 $-1 $215 reversed single #
loop $-1 $-1 $216 $87 #
plane-surface $-1 37.401853614435964 68.03152892468843 106.49454489693817 1 0 0 0 -0.71933980857756763 -0.69465836192734942 forward_v I I I I #
face $-1 $217 $218 $70 $-1 $219 forward single #
loop $-1 $220 $221 $88 #
cone-surface $-1 40.421806658990128 19.145030050181326 1.7292525251101569 0 -0.71933980857756763 -0.69465836192734942 1 0 0 1 I I 0 1 1 forward I I I I #
face $-1 $222 $223 $71 $-1 $224 forward single #
loop $-1 $225 $226 $89 #
cone-surface $-1 44.951736225821371 19.145030050181326 1.7292525251101569 0 -0.71933980857756763 -0.69465836192734942 1 0 0 1 I I 0 1 1 forward I I I I #
face $-1 $227 $228 $54 $-1 $229 reversed single #
loop $-1 $-1 $230 $90 #
plane-surface $-1 0 0 -4.5664724653165116 0 0 1 1 0 0 forward_v I I I I #
coedge $-1 $231 $232 $233 $234 forward $91 $-1 #
face $-1 $235 $236 $55 $-1 $237 reversed single #
loop $-1 $-1 $238 $93 #
plane-surface $-1 0 0 -4.5664724653165116 0 0 1 1 0 0 forward_v I I I I #
coedge $-1 $239 $240 $241 $242 forward $94 $-1 #
face $-1 $243 $244 $56 $-1 $245 reversed single #
loop $-1 $-1 $246 $96 #
plane-surface $-1 41.202169579830688 -87.499179265372803 84.022012470520565 1 0 0 0 0.61566148304635926 -0.78801074757464917 forward_v I I I I #
coedge $-1 $247 $248 $249 $250 reversed $97 $-1 #
face $-1 $-1 $251 $57 $-1 $252 forward single #
loop $-1 $253 $254 $99 #
cone-surface $-1 43.6075683613956 -17.10654222098481 -0.22644085697177907 0 0.61566148304635926 -0.78801074757464917 0.5 0 0 1 I I -0.70710678118654746 0.70710678118654746 0.5 forward I I I I #
loop $-1 $-1 $255 $75 #
coedge $-1 $160 $160 $256 $257 reversed $100 $-1 #
face $-1 $-1 $258 $58 $-1 $259 forward single #
loop $-1 $260 $261 $102 #
cone-surface $-1 47.215666533742969 -17.10654222098481 -0.22644085697177907 0 0.61566148304635926 -0.78801074757464917 0.5 0 0 1 I I -0.70710678118654746 0.70710678118654746 0.5 forward I I I I #
loop $-1 $-1 $262 $76 #
coedge $-1 $165 $165 $263 $264 reversed $103 $-1 #
face $-1 $-1 $265 $59 $-1 $266 forward single #
loop $-1 $267 $268 $105 #
cone-surface $-1 50.823764706090337 -17.10654222098481 -0.22644085697177907 0 0.61566148304635926 -0.78801074757464917 0.5 0 0 1 I I -0.70710678118654746 0.70710678118654746 0.5 forward I I I I #
loop $-1 $-1 $269 $77 #
coedge $-1 $170 $170 $270 $271 reversed $106 $-1 #
face $-1 $272 $273 $60 $-1 $274 reversed single #
loop $-1 $-1 $275 $108 #
plane-surface $-1 -34.510810513157693 -8.5481836232195434 32.542377866742797 0 0.71933980857756763 0.69465836192734942 1 0 0 forward_v I I I I #
coedge $-1 $276 $277 $278 $279 reversed $109 $-1 #
face $-1 $-1 $280 $61 $-1 $281 forward single #
loop $-1 $282 $283 $111 #
cone-surface $-1 -36.775775296573315 17.718029524128923 0.35121416816562245 0 -0.71933980857756763 -0.69465836192734942 0.5 0 0 1 I I -0.70710678118654746 0.70710678118654746 0.5 forward I I I I #
loop $-1 $-1 $284 $79 #
coedge $-1 $179 $179 $285 $286 reversed $112 $-1 #
face $-1 $-1 $287 $62 $-1 $288 forward single #
loop $-1 $289 $290 $114 #
cone-surface $-1 -32.245845729742072 17.718029524128923 0.35121416816562245 0 -0.71933980857756763 -0.69465836192734942 0.5 0 0 1 I I -0.70710678118654746 0.70710678118654746 0.5 forward I I I I #
loop $-1 $-1 $291 $80 #
coedge $-1 $184 $184 $292 $293 reversed $115 $-1 #
face $-1 $294 $295 $63 $-1 $296 reversed single #
loop $-1 $-1 $297 $117 #
plane-surface $-1 -8.7782831946365505 -8.5481836232195434 32.542377866742797 0 0.71933980857756763 0.69465836192734942 1 0 0 forward_v I I I I #
coedge $-1 $298 $299 $300 $301 reversed $118 $-1 #
face $-1 $-1 $302 $64 $-1 $303 forward single #
loop $-1 $304 $305 $120 #
cone-surface $-1 -11.043247978052172 17.718029524128923 0.35121416816562245 0 -0.71933980857756763 -0.69465836192734942 0.5 0 0 1 I I -0.70710678118654746 0.70710678118654746 0.5 forward I I I I #
loop $-1 $-1 $306 $82 #
coedge $-1 $193 $193 $307 $308 reversed $121 $-1 #
face $-1 $-1 $309 $65 $-1 $310 forward single #
loop $-1 $311 $312 $123 #
cone-surface $-1 -6.5133184112209292 17.718029524128923 0.35121416816562245 0 -0.71933980857756763 -0.69465836192734942 0.5 0 0 1 I I -0.70710678118654746 0.70710678118654746 0.5 forward I I I I #
loop $-1 $-1 $313 $83 #
coedge $-1 $198 $198 $314 $315 reversed $124 $-1 #
face $-1 $316 $317 $66 $-1 $318 reversed single #
loop $-1 $-1 $319 $126 #
plane-surface $-1 16.9542441238846 -8.5481836232195434 32.542377866742797 0 0.71933980857756763 0.69465836192734942 1 0 0 forward_v I I I I #
coedge $-1 $320 $321 $322 $323 reversed $127 $-1 #
face $-1 $-1 $324 $67 $-1 $325 forward single #
loop $-1 $326 $327 $129 #
cone-surface $-1 14.689279340468978 17.718029524128923 0.35121416816562245 0 -0.71933980857756763 -0.69465836192734942 0.5 0 0 1 I I -0.70710678118654746 0.70710678118654746 0.5 forward I I I I #
loop $-1 $-1 $328 $85 #
coedge $-1 $207 $207 $329 $330 reversed $130 $-1 #
face $-1 $-1 $331 $68 $-1 $332 forward single #
loop $-1 $333 $334 $132 #
cone-surface $-1 19.219208907300221 17.718029524128923 0.35121416816562245 0 -0.71933980857756763 -0.69465836192734942 0.5 0 0 1 I I -0.70710678118654746 0.70710678118654746 0.5 forward I I I I #
loop $-1 $-1 $335 $86 #
coedge $-1 $212 $212 $336 $337 reversed $133 $-1 #
face $-1 $338 $339 $69 $-1 $340 reversed single #
loop $-1 $-1 $341 $135 #
plane-surface $-1 42.68677144240575 -8.5481836232195434 32.542377866742797 0 0.71933980857756763 0.69465836192734942 1 0 0 forward_v I I I I #
coedge $-1 $342 $343 $344 $345 reversed $136 $-1 #
face $-1 $-1 $346 $70 $-1 $347 forward single #
loop $-1 $348 $349 $138 #
cone-surface $-1 40.421806658990128 17.718029524128923 0.35121416816562245 0 -0.71933980857756763 -0.69465836192734942 0.5 0 0 1 I I -0.70710678118654746 0.70710678118654746 0.5 forward I I I I #
loop $-1 $-1 $350 $88 #
coedge $-1 $221 $221 $351 $352 reversed $139 $-1 #
face $-1 $-1 $353 $71 $-1 $354 forward single #
loop $-1 $355 $356 $141 #
cone-surface $-1 44.951736225821371 17.718029524128923 0.35121416816562245 0 -0.71933980857756763 -0.69465836192734942 0.5 0 0 1 I I -0.70710678118654746 0.70710678118654746 0.5 forward I I I I #
loop $-1 $-1 $357 $89 #
coedge $-1 $226 $226 $358 $359 reversed $142 $-1 #
face $-1 $360 $361 $54 $-1 $362 reversed single #
loop $-1 $-1 $363 $144 #
plane-surface $-1 0 -21.956887797118895 0 0 1 0 0 0 1 forward_v I I I I #
coedge $-1 $364 $365 $366 $367 forward $145 $-1 #
coedge $-1 $368 $147 $369 $370 forward $91 $-1 #
coedge $-1 $147 $368 $371 $372 forward $91 $-1 #
coedge $-1 $373 $374 $147 $234 reversed $375 $-1 #
edge $-1 $376 -21.956887797118895 $377 21.956887797118895 $233 $378 forward 7 unknown #
face $-1 $379 $380 $55 $-1 $381 reversed single #
loop $-1 $-1 $382 $148 #
plane-surface $-1 -54.993272338268234 -19.333723540311077 0 0 1 0 0 0 1 forward_v I I I I #
coedge $-1 $383 $384 $240 $385 forward $149 $-1 #
coedge $-1 $386 $151 $387 $388 reversed $94 $-1 #
coedge $-1 $151 $386 $238 $385 reversed $94 $-1 #
coedge $-1 $389 $390 $151 $242 reversed $391 $-1 #
edge $-1 $392 -4.5664724653165116 $393 4.5664724653165116 $241 $394 forward 7 unknown #
face $-1 $395 $396 $56 $-1 $397 forward single #
loop $-1 $-1 $398 $152 #
plane-surface $-1 0 -21.956887797118895 0 0 1 0 0 0 1 forward_v I I I I #
coedge $-1 $399 $400 $401 $402 reversed $153 $-1 #
coedge $-1 $403 $155 $404 $405 reversed $97 $-1 #
coedge $-1 $155 $403 $399 $406 forward $97 $-1 #
coedge $-1 $401 $407 $155 $250 forward $396 $-1 #
edge $-1 $408 -29.621330220783765 $409 -17.594336312959204 $249 $410 forward 7 unknown #
loop $-1 $-1 $256 $156 #
plane-surface $-1 47.215666533742969 -21.956887797118895 0.13170664515968156 0 -0.61566148304635926 0.78801074757464917 1 0 0 forward_v I I I I #
loop $-1 $-1 $411 $99 #
coedge $-1 $254 $254 $255 $412 reversed $157 $-1 #
coedge $-1 $255 $255 $254 $412 forward $159 $-1 #
coedge $-1 $256 $256 $160 $257 forward $251 $-1 #
edge $-1 $413 -4.8132689654384008e-016 $413 6.2831853071795996 $256 $414 forward 7 unknown #
loop $-1 $-1 $263 $161 #
plane-surface $-1 47.215666533742969 -21.956887797118895 0.13170664515968156 0 -0.61566148304635926 0.78801074757464917 1 0 0 forward_v I I I I #
loop $-1 $-1 $415 $102 #
coedge $-1 $261 $261 $262 $416 reversed $162 $-1 #
coedge $-1 $262 $262 $261 $416 forward $164 $-1 #
coedge $-1 $263 $263 $165 $264 forward $258 $-1 #
edge $-1 $417 -4.8132689654384008e-016 $417 6.2831853071795996 $263 $418 forward 7 unknown #
loop $-1 $-1 $270 $166 #
plane-surface $-1 47.215666533742969 -21.956887797118895 0.13170664515968156 0 -0.61566148304635926 0.78801074757464917 1 0 0 forward_v I I I I #
loop $-1 $-1 $419 $105 #
coedge $-1 $268 $268 $269 $420 reversed $167 $-1 #
coedge $-1 $269 $269 $268 $420 forward $169 $-1 #
coedge $-1 $270 $270 $170 $271 forward $265 $-1 #
edge $-1 $421 -4.8132689654384008e-016 $421 6.2831853071795996 $270 $422 forward 7 unknown #
face $-1 $423 $424 $60 $-1 $425 forward single #
loop $-1 $-1 $426 $171 #
plane-surface $-1 -29.225892685187912 68.03152892468843 106.49454489693817 -1 0 0 0 0.71933980857756763 0.69465836192734942 forward_v I I I I #
coedge $-1 $427 $428 $429 $430 reversed $172 $-1 #
coedge $-1 $277 $174 $431 $432 reversed $109 $-1 #
coedge $-1 $174 $276 $427 $433 reversed $109 $-1 #
coedge $-1 $429 $434 $174 $279 forward $424 $-1 #
edge $-1 $435 12.05887666522532 $436 15.547930915573225 $278 $437 forward 7 unknown #
loop $-1 $-1 $285 $175 #
plane-surface $-1 -34.510810513157693 -8.5481836232195434 32.542377866742797 0 0.71933980857756763 0.69465836192734942 1 0 0 forward_v I I I I #
loop $-1 $-1 $438 $111 #
coedge $-1 $283 $283 $284 $439 reversed $176 $-1 #
coedge $-1 $284 $284 $283 $439 forward $178 $-1 #
coedge $-1 $285 $285 $179 $286 forward $280 $-1 #
edge $-1 $440 0 $440 6.2831853071796004 $285 $441 forward 7 unknown #
loop $-1 $-1 $292 $180 #
plane-surface $-1 -34.510810513157693 -8.5481836232195434 32.542377866742797 0 0.71933980857756763 0.69465836192734942 1 0 0 forward_v I I I I #
loop $-1 $-1 $442 $114 #
coedge $-1 $290 $290 $291 $443 reversed $181 $-1 #
coedge $-1 $291 $291 $290 $443 forward $183 $-1 #
coedge $-1 $292 $292 $184 $293 forward $287 $-1 #
edge $-1 $444 0 $444 6.2831853071796004 $292 $445 forward 7 unknown #
face $-1 $446 $447 $63 $-1 $448 forward single #
loop $-1 $-1 $449 $185 #
plane-surface $-1 -3.4933653666667679 68.03152892468843 106.49454489693817 -1 0 0 0 0.71933980857756763 0.69465836192734942 forward_v I I I I #
coedge $-1 $450 $451 $452 $453 reversed $186 $-1 #
coedge $-1 $299 $188 $454 $455 reversed $118 $-1 #
coedge $-1 $188 $298 $450 $456 reversed $118 $-1 #
coedge $-1 $452 $457 $188 $301 forward $447 $-1 #
edge $-1 $458 12.05887666522532 $459 15.547930915573225 $300 $460 forward 7 unknown #
loop $-1 $-1 $307 $189 #
plane-surface $-1 -8.7782831946365505 -8.5481836232195434 32.542377866742797 0 0.71933980857756763 0.69465836192734942 1 0 0 forward_v I I I I #
loop $-1 $-1 $461 $120 #
coedge $-1 $305 $305 $306 $462 reversed $190 $-1 #
coedge $-1 $306 $306 $305 $462 forward $192 $-1 #
coedge $-1 $307 $307 $193 $308 forward $302 $-1 #
edge $-1 $463 0 $463 6.2831853071796004 $307 $464 forward 7 unknown #
loop $-1 $-1 $314 $194 #
plane-surface $-1 -8.7782831946365505 -8.5481836232195434 32.542377866742797 0 0.71933980857756763 0.69465836192734942 1 0 0 forward_v I I I I #
loop $-1 $-1 $465 $123 #
coedge $-1 $312 $312 $313 $466 reversed $195 $-1 #
coedge $-1 $313 $313 $312 $466 forward $197 $-1 #
coedge $-1 $314 $314 $198 $315 forward $309 $-1 #
edge $-1 $467 0 $467 6.2831853071796004 $314 $468 forward 7 unknown #
face $-1 $469 $470 $66 $-1 $471 forward single #
loop $-1 $-1 $472 $199 #
plane-surface $-1 22.239161951854381 68.03152892468843 106.49454489693817 -1 0 0 0 0.71933980857756763 0.69465836192734942 forward_v I I I I #
coedge $-1 $473 $474 $475 $476 reversed $200 $-1 #
coedge $-1 $321 $202 $477 $478 reversed $127 $-1 #
coedge $-1 $202 $320 $473 $479 reversed $127 $-1 #
coedge $-1 $475 $480 $202 $323 forward $470 $-1 #
edge $-1 $481 12.05887666522532 $482 15.547930915573225 $322 $483 forward 7 unknown #
loop $-1 $-1 $329 $203 #
plane-surface $-1 16.9542441238846 -8.5481836232195434 32.542377866742797 0 0.71933980857756763 0.69465836192734942 1 0 0 forward_v I I I I #
loop $-1 $-1 $484 $129 #
coedge $-1 $327 $327 $328 $485 reversed $204 $-1 #
coedge $-1 $328 $328 $327 $485 forward $206 $-1 #
coedge $-1 $329 $329 $207 $330 forward $324 $-1 #
edge $-1 $486 0 $486 6.2831853071796004 $329 $487 forward 7 unknown #
loop $-1 $-1 $336 $208 #
plane-surface $-1 16.9542441238846 -8.5481836232195434 32.542377866742797 0 0.71933980857756763 0.69465836192734942 1 0 0 forward_v I I I I #
loop $-1 $-1 $488 $132 #
coedge $-1 $334 $334 $335 $489 reversed $209 $-1 #
coedge $-1 $335 $335 $334 $489 forward $211 $-1 #
coedge $-1 $336 $336 $212 $337 forward $331 $-1 #
edge $-1 $490 0 $490 6.2831853071796004 $336 $491 forward 7 unknown #
face $-1 $492 $493 $69 $-1 $494 forward single #
loop $-1 $-1 $495 $213 #
plane-surface $-1 47.971689270375535 68.03152892468843 106.49454489693817 -1 0 0 0 0.71933980857756763 0.69465836192734942 forward_v I I I I #
coedge $-1 $496 $497 $498 $499 reversed $214 $-1 #
coedge $-1 $343 $216 $500 $501 reversed $136 $-1 #
coedge $-1 $216 $342 $496 $502 reversed $136 $-1 #
coedge $-1 $498 $503 $216 $345 forward $493 $-1 #
edge $-1 $504 12.05887666522532 $505 15.547930915573225 $344 $506 forward 7 unknown #
loop $-1 $-1 $351 $217 #
plane-surface $-1 42.68677144240575 -8.5481836232195434 32.542377866742797 0 0.71933980857756763 0.69465836192734942 1 0 0 forward_v I I I I #
loop $-1 $-1 $507 $138 #
coedge $-1 $349 $349 $350 $508 reversed $218 $-1 #
coedge $-1 $350 $350 $349 $508 forward $220 $-1 #
coedge $-1 $351 $351 $221 $352 forward $346 $-1 #
edge $-1 $509 0 $509 6.2831853071796004 $351 $510 forward 7 unknown #
loop $-1 $-1 $358 $222 #
plane-surface $-1 42.68677144240575 -8.5481836232195434 32.542377866742797 0 0.71933980857756763 0.69465836192734942 1 0 0 forward_v I I I I #
loop $-1 $-1 $511 $141 #
coedge $-1 $356 $356 $357 $512 reversed $223 $-1 #
coedge $-1 $357 $357 $356 $512 forward $225 $-1 #
coedge $-1 $358 $358 $226 $359 forward $353 $-1 #
edge $-1 $513 0 $513 6.2831853071796004 $358 $514 forward 7 unknown #
face $-1 $515 $516 $54 $-1 $517 reversed single #
loop $-1 $-1 $518 $227 #
plane-surface $-1 -53.229163487655264 0 0 1 0 0 0 0 -1 forward_v I I I I #
coedge $-1 $519 $371 $520 $521 forward $228 $-1 #
coedge $-1 $522 $230 $519 $523 forward $145 $-1 #
coedge $-1 $230 $522 $524 $525 forward $145 $-1 #
coedge $-1 $374 $373 $230 $367 reversed $375 $-1 #
edge $-1 $526 -21.956887797118895 $527 21.956887797118895 $366 $528 forward 7 unknown #
coedge $-1 $232 $231 $529 $530 forward $91 $-1 #
coedge $-1 $531 $532 $231 $370 reversed $516 $-1 #
edge $-1 $377 -53.229163487655264 $533 53.229163487655264 $369 $534 forward 7 unknown #
coedge $-1 $363 $535 $232 $372 reversed $228 $-1 #
edge $-1 $536 -53.229163487655264 $376 53.229163487655264 $371 $537 forward 7 unknown #
coedge $-1 $366 $233 $535 $538 forward $375 $-1 #
coedge $-1 $233 $366 $531 $539 reversed $375 $-1 #
loop $-1 $-1 $373 $515 #
vertex $-1 $234 $540 #
vertex $-1 $234 $541 #
straight-curve $-1 53.229163487655264 0 4.5664724653165116 0 1 0 I I #
face $-1 $542 $391 $55 $-1 $543 reversed single #
loop $-1 $-1 $544 $235 #
plane-surface $-1 -56.757381188881205 -17.833723540311077 0 1 0 0 0 0 -1 forward_v I I I I #
coedge $-1 $545 $546 $547 $548 forward $236 $-1 #
coedge $-1 $549 $238 $545 $550 forward $149 $-1 #
coedge $-1 $238 $549 $389 $551 forward $149 $-1 #
edge $-1 $392 16.333723540311077 $552 19.333723540311077 $238 $553 forward 7 unknown #
coedge $-1 $240 $239 $554 $555 forward $94 $-1 #
coedge $-1 $556 $557 $239 $388 forward $558 $-1 #
edge $-1 $559 -19.333723540311077 $393 -16.333723540311077 $387 $560 forward 7 unknown #
coedge $-1 $561 $241 $384 $551 reversed $391 $-1 #
coedge $-1 $241 $561 $556 $562 reversed $391 $-1 #
loop $-1 $-1 $241 $379 #
vertex $-1 $385 $563 #
vertex $-1 $562 $564 #
straight-curve $-1 -53.229163487655264 -16.333723540311077 0 0 0 1 I I #
face $-1 $-1 $565 $56 $-1 $566 reversed single #
loop $-1 $-1 $401 $243 #
plane-surface $-1 0 0 4.5664724653165116 0 0 1 1 0 0 forward_v I I I I #
coedge $-1 $567 $568 $400 $569 forward $244 $-1 #
coedge $-1 $400 $246 $248 $406 reversed $153 $-1 #
coedge $-1 $246 $399 $398 $569 reversed $153 $-1 #
coedge $-1 $570 $249 $246 $402 forward $396 $-1 #
edge $-1 $409 -27.468943123179677 $571 -21.792701835567506 $401 $572 forward 7 unknown #
coedge $-1 $248 $247 $567 $573 reversed $97 $-1 #
coedge $-1 $574 $575 $247 $405 forward $565 $-1 #
edge $-1 $576 -8.6105884294671426 $408 -1.4073347872007274 $404 $577 forward 7 unknown #
edge $-1 $578 0 $409 7.2032536422664144 $399 $579 forward 7 unknown #
coedge $-1 $249 $570 $574 $580 forward $396 $-1 #
vertex $-1 $405 $581 #
vertex $-1 $250 $582 #
straight-curve $-1 23.607833266871484 -16.280646509506724 4.5664724653165116 -1 0 0 I I #
coedge $-1 $411 $411 $-1 $583 reversed $253 $-1 #
edge $-1 $584 0 $584 6.2831853071796004 $254 $585 forward 7 unknown #
vertex $-1 $257 $586 #
ellipse-curve $-1 43.6075683613956 -19.118767153312806 2.3490895552380975 0 -0.61566148304635926 0.78801074757464917 1 0 0 1 I I #
coedge $-1 $415 $415 $-1 $587 reversed $260 $-1 #
edge $-1 $588 0 $588 6.2831853071796004 $261 $589 forward 7 unknown #
vertex $-1 $264 $590 #
ellipse-curve $-1 47.215666533742969 -19.118767153312806 2.3490895552380975 0 -0.61566148304635926 0.78801074757464917 1 0 0 1 I I #
coedge $-1 $419 $419 $-1 $591 reversed $267 $-1 #
edge $-1 $592 0 $592 6.2831853071796004 $268 $593 forward 7 unknown #
vertex $-1 $271 $594 #
ellipse-curve $-1 50.823764706090337 -19.118767153312806 2.3490895552380975 0 -0.61566148304635926 0.78801074757464917 1 0 0 1 I I #
face $-1 $-1 $595 $60 $-1 $596 reversed single #
loop $-1 $-1 $278 $272 #
plane-surface $-1 0 0 4.5664724653165116 0 0 1 1 0 0 forward_v I I I I #
coedge $-1 $597 $598 $599 $600 reversed $273 $-1 #
coedge $-1 $601 $275 $277 $433 forward $172 $-1 #
coedge $-1 $275 $601 $597 $602 forward $172 $-1 #
coedge $-1 $599 $278 $275 $430 forward $424 $-1 #
edge $-1 $436 -22.540323084548632 $603 -11.970487428609065 $429 $604 forward 7 unknown #
coedge $-1 $605 $606 $276 $432 forward $595 $-1 #
edge $-1 $607 -52.293821511603561 $435 -48.680799983152568 $431 $608 forward 7 unknown #
edge $-1 $436 38.891084669352892 $607 43.913775594237791 $277 $609 forward 7 unknown #
coedge $-1 $278 $599 $605 $610 forward $424 $-1 #
vertex $-1 $432 $611 #
vertex $-1 $279 $612 #
straight-curve $-1 -39.795728341127479 34.015764462344215 4.5664724653165152 0 -1 0 I I #
coedge $-1 $438 $438 $-1 $613 reversed $282 $-1 #
edge $-1 $614 0 $614 6.2831853071796004 $283 $615 forward 7 unknown #
vertex $-1 $286 $616 #
ellipse-curve $-1 -36.775775296573315 20.212360671944943 2.7599617010910169 0 0.71933980857756763 0.69465836192734942 1 0 0 1 I I #
coedge $-1 $442 $442 $-1 $617 reversed $289 $-1 #
edge $-1 $618 0 $618 6.2831853071796004 $290 $619 forward 7 unknown #
vertex $-1 $293 $620 #
ellipse-curve $-1 -32.245845729742072 20.212360671944943 2.7599617010910169 0 0.71933980857756763 0.69465836192734942 1 0 0 1 I I #
face $-1 $-1 $621 $63 $-1 $622 reversed single #
loop $-1 $-1 $300 $294 #
plane-surface $-1 0 0 4.5664724653165116 0 0 1 1 0 0 forward_v I I I I #
coedge $-1 $623 $624 $625 $626 reversed $295 $-1 #
coedge $-1 $627 $297 $299 $456 forward $186 $-1 #
coedge $-1 $297 $627 $623 $628 forward $186 $-1 #
coedge $-1 $625 $300 $297 $453 forward $447 $-1 #
edge $-1 $459 -9.674059425288057 $629 0.89577623065150735 $452 $630 forward 7 unknown #
coedge $-1 $631 $632 $298 $455 forward $621 $-1 #
edge $-1 $633 -52.293821511603561 $458 -48.680799983152568 $454 $634 forward 7 unknown #
edge $-1 $459 38.891084669352892 $633 43.913775594237791 $299 $635 forward 7 unknown #
coedge $-1 $300 $625 $631 $636 forward $447 $-1 #
vertex $-1 $301 $637 #
vertex $-1 $301 $638 #
straight-curve $-1 -14.063201022606332 34.015764462344215 4.5664724653165152 0 -1 0 I I #
coedge $-1 $461 $461 $-1 $639 reversed $304 $-1 #
edge $-1 $640 0 $640 6.2831853071796004 $305 $641 forward 7 unknown #
vertex $-1 $308 $642 #
ellipse-curve $-1 -11.043247978052172 20.212360671944943 2.7599617010910169 0 0.71933980857756763 0.69465836192734942 1 0 0 1 I I #
coedge $-1 $465 $465 $-1 $643 reversed $311 $-1 #
edge $-1 $644 0 $644 6.2831853071796004 $312 $645 forward 7 unknown #
vertex $-1 $315 $646 #
ellipse-curve $-1 -6.5133184112209292 20.212360671944943 2.7599617010910169 0 0.71933980857756763 0.69465836192734942 1 0 0 1 I I #
face $-1 $-1 $647 $66 $-1 $648 reversed single #
loop $-1 $-1 $322 $316 #
plane-surface $-1 0 0 4.5664724653165116 0 0 1 1 0 0 forward_v I I I I #
coedge $-1 $649 $650 $651 $652 reversed $317 $-1 #
coedge $-1 $653 $319 $321 $479 forward $200 $-1 #
coedge $-1 $319 $653 $649 $654 forward $200 $-1 #
coedge $-1 $651 $322 $319 $476 forward $470 $-1 #
edge $-1 $482 3.1922042339725181 $655 13.762039889912081 $475 $656 forward 7 unknown #
coedge $-1 $657 $658 $320 $478 forward $647 $-1 #
edge $-1 $659 -52.293821511603561 $481 -48.680799983152568 $477 $660 forward 7 unknown #
edge $-1 $482 38.891084669352892 $659 43.913775594237791 $321 $661 forward 7 unknown #
coedge $-1 $322 $651 $657 $662 forward $470 $-1 #
vertex $-1 $323 $663 #
vertex $-1 $323 $664 #
straight-curve $-1 11.669326295914818 34.015764462344215 4.5664724653165152 0 -1 0 I I #
coedge $-1 $484 $484 $-1 $665 reversed $326 $-1 #
edge $-1 $666 0 $666 6.2831853071796004 $327 $667 forward 7 unknown #
vertex $-1 $330 $668 #
ellipse-curve $-1 14.689279340468978 20.212360671944943 2.7599617010910169 0 0.71933980857756763 0.69465836192734942 1 0 0 1 I I #
coedge $-1 $488 $488 $-1 $669 reversed $333 $-1 #
edge $-1 $670 0 $670 6.2831853071796004 $334 $671 forward 7 unknown #
vertex $-1 $337 $672 #
ellipse-curve $-1 19.219208907300221 20.212360671944943 2.7599617010910169 0 0.71933980857756763 0.69465836192734942 1 0 0 1 I I #
face $-1 $-1 $673 $69 $-1 $674 reversed single #
loop $-1 $-1 $344 $338 #
plane-surface $-1 0 0 4.5664724653165116 0 0 1 1 0 0 forward_v I I I I #
coedge $-1 $675 $676 $677 $678 reversed $339 $-1 #
coedge $-1 $679 $341 $343 $502 forward $214 $-1 #
coedge $-1 $341 $679 $675 $680 forward $214 $-1 #
coedge $-1 $677 $344 $341 $499 forward $493 $-1 #
edge $-1 $505 16.05846789323309 $681 26.62830354917266 $498 $682 forward 7 unknown #
coedge $-1 $683 $684 $342 $501 forward $673 $-1 #
edge $-1 $685 -52.293821511603561 $504 -48.680799983152568 $500 $686 forward 7 unknown #
edge $-1 $505 38.891084669352892 $685 43.913775594237791 $343 $687 forward 7 unknown #
coedge $-1 $344 $677 $683 $688 forward $493 $-1 #
vertex $-1 $345 $689 #
vertex $-1 $345 $690 #
straight-curve $-1 37.401853614435964 34.015764462344215 4.5664724653165152 0 -1 0 I I #
coedge $-1 $507 $507 $-1 $691 reversed $348 $-1 #
edge $-1 $692 0 $692 6.2831853071796004 $349 $693 forward 7 unknown #
vertex $-1 $352 $694 #
ellipse-curve $-1 40.421806658990128 20.212360671944943 2.7599617010910169 0 0.71933980857756763 0.69465836192734942 1 0 0 1 I I #
coedge $-1 $511 $511 $-1 $695 reversed $355 $-1 #
edge $-1 $696 0 $696 6.2831853071796004 $356 $697 forward 7 unknown #
vertex $-1 $359 $698 #
ellipse-curve $-1 44.951736225821371 20.212360671944943 2.7599617010910169 0 0.71933980857756763 0.69465836192734942 1 0 0 1 I I #
face $-1 $-1 $375 $54 $-1 $699 reversed single #
loop $-1 $-1 $531 $360 #
plane-surface $-1 0 21.956887797118895 0 0 -1 0 0 0 -1 forward_v I I I I #
coedge $-1 $700 $529 $532 $701 forward $361 $-1 #
coedge $-1 $535 $363 $364 $523 reversed $228 $-1 #
coedge $-1 $529 $700 $363 $521 reversed $361 $-1 #
edge $-1 $536 -4.5664724653165116 $702 4.5664724653165116 $520 $703 forward 7 unknown #
coedge $-1 $365 $364 $700 $704 forward $145 $-1 #
edge $-1 $527 -53.229163487655264 $702 53.229163487655264 $519 $705 forward 7 unknown #
coedge $-1 $532 $531 $365 $525 reversed $516 $-1 #
edge $-1 $706 -53.229163487655264 $526 53.229163487655264 $524 $707 forward 7 unknown #
vertex $-1 $367 $708 #
vertex $-1 $538 $709 #
straight-curve $-1 53.229163487655264 0 -4.5664724653165116 0 -1 0 I I #
coedge $-1 $518 $520 $368 $530 reversed $361 $-1 #
edge $-1 $533 -21.956887797118895 $536 21.956887797118895 $529 $710 forward 7 unknown #
coedge $-1 $524 $369 $374 $539 forward $516 $-1 #
coedge $-1 $369 $524 $518 $701 reversed $516 $-1 #
vertex $-1 $370 $711 #
straight-curve $-1 0 21.956887797118895 4.5664724653165116 -1 0 0 I I #
coedge $-1 $371 $519 $373 $538 reversed $228 $-1 #
vertex $-1 $530 $712 #
straight-curve $-1 0 -21.956887797118895 4.5664724653165116 1 0 0 I I #
edge $-1 $376 -4.5664724653165116 $527 4.5664724653165116 $373 $713 forward 7 unknown #
edge $-1 $377 -4.5664724653165116 $526 4.5664724653165116 $374 $714 forward 7 unknown #
point $-1 53.229163487655264 -21.956887797118895 4.5664724653165116 #
point $-1 53.229163487655264 21.956887797118895 4.5664724653165116 #
face $-1 $-1 $558 $55 $-1 $715 forward single #
plane-surface $-1 -54.993272338268234 -16.333723540311077 0 0 -1 0 0 0 -1 forward_v I I I I #
coedge $-1 $716 $717 $561 $718 forward $380 $-1 #
coedge $-1 $554 $382 $383 $550 reversed $236 $-1 #
coedge $-1 $382 $554 $557 $719 reversed $236 $-1 #
coedge $-1 $717 $716 $382 $548 reversed $380 $-1 #
edge $-1 $720 -4.5664724653165116 $721 4.5664724653165116 $547 $722 forward 7 unknown #
coedge $-1 $384 $383 $716 $723 forward $149 $-1 #
edge $-1 $552 -1.7641088506129705 $721 1.7641088506129705 $545 $724 forward 7 unknown #
edge $-1 $725 -1.7641088506129705 $392 1.7641088506129705 $389 $726 forward 7 unknown #
vertex $-1 $550 $727 #
straight-curve $-1 -53.229163487655264 0 -4.5664724653165116 0 -1 0 I I #
coedge $-1 $546 $545 $386 $555 reversed $236 $-1 #
edge $-1 $559 -4.5664724653165116 $552 4.5664724653165116 $554 $728 forward 7 unknown #
coedge $-1 $729 $387 $390 $562 forward $558 $-1 #
coedge $-1 $387 $729 $546 $719 forward $558 $-1 #
loop $-1 $-1 $387 $542 #
vertex $-1 $388 $730 #
straight-curve $-1 -53.229163487655264 0 4.5664724653165116 0 1 0 I I #
coedge $-1 $390 $389 $544 $718 reversed $391 $-1 #
edge $-1 $393 -1.7641088506129705 $731 1.7641088506129705 $390 $732 forward 7 unknown #
point $-1 -53.229163487655264 -16.333723540311077 -4.5664724653165116 #
point $-1 -53.229163487655264 -16.333723540311077 4.5664724653165116 #
loop $-1 $-1 $404 $395 #
plane-surface $-1 53.229163487655264 0 0 -1 0 0 0 0 1 forward_v I I I I #
coedge $-1 $733 $398 $403 $573 forward $244 $-1 #
coedge $-1 $398 $733 $570 $734 reversed $244 $-1 #
edge $-1 $571 37.444533769943774 $578 41.879299590100601 $398 $735 forward 7 unknown #
coedge $-1 $407 $401 $568 $734 forward $396 $-1 #
vertex $-1 $734 $736 #
straight-curve $-1 41.202169579830688 -43.749589632686401 4.5664724653165081 0 -1 0 I I #
edge $-1 $578 17.594336312959204 $576 29.621330220783765 $567 $737 forward 7 unknown #
coedge $-1 $575 $404 $407 $580 reversed $565 $-1 #
coedge $-1 $404 $574 $733 $738 forward $565 $-1 #
vertex $-1 $573 $739 #
straight-curve $-1 53.229163487655264 -15.171651571756868 5.4329142875472431 0 0.78801074757464917 0.61566148304635926 I I #
vertex $-1 $573 $740 #
straight-curve $-1 41.202169579830688 -21.956887797118895 0.13170664515968156 0 0.78801074757464917 0.61566148304635926 I I #
edge $-1 $741 -21.956887797118895 $408 -16.280646509506724 $574 $742 forward 7 unknown #
point $-1 53.229163487655249 -16.280646509506724 4.5664724653165116 #
point $-1 41.202169579830688 -16.280646509506724 4.5664724653165116 #
edge $-1 $743 1 $743 0 $411 $-1 forward 7 unknown #
vertex $-1 $412 $744 #
ellipse-curve $-1 43.6075683613956 -17.41437296250799 0.16756451681554552 0 -0.61566148304635926 0.78801074757464917 1 0 0 1 I I #
point $-1 44.6075683613956 -19.118767153312803 2.3490895552380922 #
edge $-1 $745 1 $745 0 $415 $-1 forward 7 unknown #
vertex $-1 $416 $746 #
ellipse-curve $-1 47.215666533742969 -17.41437296250799 0.16756451681554552 0 -0.61566148304635926 0.78801074757464917 1 0 0 1 I I #
point $-1 48.215666533742969 -19.118767153312803 2.3490895552380922 #
edge $-1 $747 1 $747 0 $419 $-1 forward 7 unknown #
vertex $-1 $420 $748 #
ellipse-curve $-1 50.823764706090337 -17.41437296250799 0.16756451681554552 0 -0.61566148304635926 0.78801074757464917 1 0 0 1 I I #
point $-1 51.823764706090337 -19.118767153312803 2.3490895552380922 #
loop $-1 $-1 $431 $423 #
plane-surface $-1 0 21.956887797118895 0 0 -1 0 0 0 -1 forward_v I I I I #
coedge $-1 $598 $426 $428 $602 reversed $273 $-1 #
coedge $-1 $426 $597 $749 $750 reversed $273 $-1 #
coedge $-1 $434 $429 $426 $600 forward $424 $-1 #
edge $-1 $603 -15.547930915573225 $751 -12.05887666522532 $599 $752 forward 7 unknown #
coedge $-1 $428 $427 $606 $753 reversed $172 $-1 #
edge $-1 $754 -43.913775594237791 $603 -38.891084669352892 $597 $755 forward 7 unknown #
vertex $-1 $430 $756 #
straight-curve $-1 -17.255405256578847 18.467833546770986 4.5664724653165116 1 0 0 I I #
coedge $-1 $749 $431 $434 $610 reversed $595 $-1 #
coedge $-1 $431 $749 $601 $753 forward $595 $-1 #
vertex $-1 $432 $757 #
straight-curve $-1 -39.795728341127479 21.956887797118895 53.247272448469083 0 0 1 I I #
straight-curve $-1 -39.795728341127479 -8.5481836232195434 32.542377866742797 0 0.69465836192734942 -0.71933980857756763 I I #
edge $-1 $751 29.225892685187912 $435 39.795728341127479 $605 $758 forward 7 unknown #
point $-1 -39.795728341127479 21.956887797118895 4.5664724653165116 #
point $-1 -39.795728341127479 18.46783354677099 4.5664724653165116 #
edge $-1 $759 1 $759 0 $438 $-1 forward 7 unknown #
vertex $-1 $439 $760 #
ellipse-curve $-1 -36.775775296573315 18.077699428417706 0.69854334912929716 0 0.71933980857756763 0.69465836192734942 1 0 0 1 I I #
point $-1 -35.775775296573315 20.212360671944943 2.7599617010910169 #
edge $-1 $761 1 $761 0 $442 $-1 forward 7 unknown #
vertex $-1 $443 $762 #
ellipse-curve $-1 -32.245845729742072 18.077699428417706 0.69854334912929716 0 0.71933980857756763 0.69465836192734942 1 0 0 1 I I #
point $-1 -31.245845729742072 20.212360671944943 2.7599617010910169 #
loop $-1 $-1 $454 $446 #
plane-surface $-1 0 21.956887797118895 0 0 -1 0 0 0 -1 forward_v I I I I #
coedge $-1 $624 $449 $451 $628 reversed $295 $-1 #
coedge $-1 $449 $623 $763 $764 reversed $295 $-1 #
coedge $-1 $457 $452 $449 $626 forward $447 $-1 #
edge $-1 $629 -15.547930915573225 $765 -12.05887666522532 $625 $766 forward 7 unknown #
coedge $-1 $451 $450 $632 $767 reversed $186 $-1 #
edge $-1 $768 -43.913775594237791 $629 -38.891084669352892 $623 $769 forward 7 unknown #
vertex $-1 $453 $770 #
straight-curve $-1 -4.3891415973182752 18.467833546770986 4.5664724653165116 1 0 0 I I #
coedge $-1 $763 $454 $457 $636 reversed $621 $-1 #
coedge $-1 $454 $763 $627 $767 forward $621 $-1 #
vertex $-1 $455 $771 #
straight-curve $-1 -14.063201022606332 21.956887797118895 53.247272448469083 0 0 1 I I #
straight-curve $-1 -14.063201022606332 -8.5481836232195434 32.542377866742797 0 0.69465836192734942 -0.71933980857756763 I I #
edge $-1 $765 3.4933653666667679 $458 14.063201022606332 $631 $772 forward 7 unknown #
point $-1 -14.063201022606332 21.956887797118895 4.5664724653165116 #
point $-1 -14.063201022606332 18.46783354677099 4.5664724653165116 #
edge $-1 $773 1 $773 0 $461 $-1 forward 7 unknown #
vertex $-1 $462 $774 #
ellipse-curve $-1 -11.043247978052172 18.077699428417706 0.69854334912929716 0 0.71933980857756763 0.69465836192734942 1 0 0 1 I I #
point $-1 -10.043247978052172 20.212360671944943 2.7599617010910169 #
edge $-1 $775 1 $775 0 $465 $-1 forward 7 unknown #
vertex $-1 $466 $776 #
ellipse-curve $-1 -6.5133184112209292 18.077699428417706 0.69854334912929716 0 0.71933980857756763 0.69465836192734942 1 0 0 1 I I #
point $-1 -5.5133184112209292 20.212360671944943 2.7599617010910169 #
loop $-1 $-1 $477 $469 #
plane-surface $-1 0 21.956887797118895 0 0 -1 0 0 0 -1 forward_v I I I I #
coedge $-1 $650 $472 $474 $654 reversed $317 $-1 #
coedge $-1 $472 $649 $777 $778 reversed $317 $-1 #
coedge $-1 $480 $475 $472 $652 forward $470 $-1 #
edge $-1 $655 -15.547930915573225 $779 -12.05887666522532 $651 $780 forward 7 unknown #
coedge $-1 $474 $473 $658 $781 reversed $200 $-1 #
edge $-1 $782 -43.913775594237791 $655 -38.891084669352892 $649 $783 forward 7 unknown #
vertex $-1 $476 $784 #
straight-curve $-1 8.4771220619422998 18.467833546770986 4.5664724653165116 1 0 0 I I #
coedge $-1 $777 $477 $480 $662 reversed $647 $-1 #
coedge $-1 $477 $777 $653 $781 forward $647 $-1 #
vertex $-1 $478 $785 #
straight-curve $-1 11.669326295914818 21.956887797118895 53.247272448469083 0 0 1 I I #
straight-curve $-1 11.669326295914818 -8.5481836232195434 32.542377866742797 0 0.69465836192734942 -0.71933980857756763 I I #
edge $-1 $779 -22.239161951854381 $481 -11.669326295914818 $657 $786 forward 7 unknown #
point $-1 11.669326295914818 21.956887797118895 4.5664724653165116 #
point $-1 11.669326295914818 18.46783354677099 4.5664724653165116 #
edge $-1 $787 1 $787 0 $484 $-1 forward 7 unknown #
vertex $-1 $485 $788 #
ellipse-curve $-1 14.689279340468978 18.077699428417706 0.69854334912929716 0 0.71933980857756763 0.69465836192734942 1 0 0 1 I I #
point $-1 15.689279340468978 20.212360671944943 2.7599617010910169 #
edge $-1 $789 1 $789 0 $488 $-1 forward 7 unknown #
vertex $-1 $489 $790 #
ellipse-curve $-1 19.219208907300221 18.077699428417706 0.69854334912929716 0 0.71933980857756763 0.69465836192734942 1 0 0 1 I I #
point $-1 20.219208907300221 20.212360671944943 2.7599617010910169 #
loop $-1 $-1 $500 $492 #
plane-surface $-1 0 21.956887797118895 0 0 -1 0 0 0 -1 forward_v I I I I #
coedge $-1 $676 $495 $497 $680 reversed $339 $-1 #
coedge $-1 $495 $675 $791 $792 reversed $339 $-1 #
coedge $-1 $503 $498 $495 $678 forward $493 $-1 #
edge $-1 $681 -15.547930915573225 $793 -12.05887666522532 $677 $794 forward 7 unknown #
coedge $-1 $497 $496 $684 $795 reversed $214 $-1 #
edge $-1 $796 -43.913775594237791 $681 -38.891084669352892 $675 $797 forward 7 unknown #
vertex $-1 $499 $798 #
straight-curve $-1 21.343385721202875 18.467833546770986 4.5664724653165116 1 0 0 I I #
coedge $-1 $791 $500 $503 $688 reversed $673 $-1 #
coedge $-1 $500 $791 $679 $795 forward $673 $-1 #
vertex $-1 $501 $799 #
straight-curve $-1 37.401853614435964 21.956887797118895 53.247272448469083 0 0 1 I I #
straight-curve $-1 37.401853614435964 -8.5481836232195434 32.542377866742797 0 0.69465836192734942 -0.71933980857756763 I I #
edge $-1 $793 -47.971689270375535 $504 -37.401853614435964 $683 $800 forward 7 unknown #
point $-1 37.401853614435964 21.956887797118895 4.5664724653165116 #
point $-1 37.401853614435964 18.46783354677099 4.5664724653165116 #
edge $-1 $801 1 $801 0 $507 $-1 forward 7 unknown #
vertex $-1 $508 $802 #
ellipse-curve $-1 40.421806658990128 18.077699428417706 0.69854334912929716 0 0.71933980857756763 0.69465836192734942 1 0 0 1 I I #
point $-1 41.421806658990128 20.212360671944943 2.7599617010910169 #
edge $-1 $803 1 $803 0 $511 $-1 forward 7 unknown #
vertex $-1 $512 $804 #
ellipse-curve $-1 44.951736225821371 18.077699428417706 0.69854334912929716 0 0.71933980857756763 0.69465836192734942 1 0 0 1 I I #
point $-1 45.951736225821371 20.212360671944943 2.7599617010910169 #
plane-surface $-1 53.229163487655264 0 0 -1 0 0 0 0 1 forward_v I I I I #
coedge $-1 $520 $518 $522 $704 reversed $361 $-1 #
edge $-1 $533 -4.5664724653165116 $706 4.5664724653165116 $532 $805 forward 7 unknown #
vertex $-1 $704 $806 #
straight-curve $-1 -53.229163487655264 -21.956887797118895 0 0 0 -1 I I #
edge $-1 $702 -21.956887797118895 $706 21.956887797118895 $700 $807 forward 7 unknown #
straight-curve $-1 0 -21.956887797118895 -4.5664724653165116 -1 0 0 I I #
vertex $-1 $525 $808 #
straight-curve $-1 0 21.956887797118895 -4.5664724653165116 1 0 0 I I #
point $-1 53.229163487655264 21.956887797118895 -4.5664724653165116 #
point $-1 53.229163487655264 -21.956887797118895 -4.5664724653165116 #
straight-curve $-1 -53.229163487655264 0 4.5664724653165116 0 -1 0 I I #
point $-1 -53.229163487655264 21.956887797118895 4.5664724653165116 #
point $-1 -53.229163487655264 -21.956887797118895 4.5664724653165116 #
straight-curve $-1 53.229163487655264 -21.956887797118895 0 0 0 -1 I I #
straight-curve $-1 53.229163487655264 21.956887797118895 0 0 0 -1 I I #
plane-surface $-1 0 0 4.5664724653165116 0 0 1 1 0 0 forward_v I I I I #
coedge $-1 $547 $544 $549 $723 reversed $380 $-1 #
coedge $-1 $544 $547 $729 $809 reversed $380 $-1 #
edge $-1 $731 -4.5664724653165116 $725 4.5664724653165116 $561 $810 forward 7 unknown #
edge $-1 $720 -1.7641088506129705 $559 1.7641088506129705 $546 $811 forward 7 unknown #
vertex $-1 $809 $812 #
vertex $-1 $723 $813 #
straight-curve $-1 -56.757381188881205 -19.333723540311077 0 0 0 -1 I I #
edge $-1 $721 -1.5 $725 1.5 $716 $814 forward 7 unknown #
straight-curve $-1 -54.993272338268234 -19.333723540311077 -4.5664724653165116 -1 0 0 I I #
vertex $-1 $551 $815 #
straight-curve $-1 -54.993272338268234 -16.333723540311077 -4.5664724653165116 1 0 0 I I #
point $-1 -53.229163487655264 -19.333723540311077 -4.5664724653165116 #
straight-curve $-1 -53.229163487655264 -19.333723540311077 0 0 0 -1 I I #
coedge $-1 $557 $556 $717 $809 forward $558 $-1 #
point $-1 -53.229163487655264 -19.333723540311077 4.5664724653165116 #
vertex $-1 $562 $816 #
straight-curve $-1 -54.993272338268234 -16.333723540311077 4.5664724653165116 -1 0 0 I I #
coedge $-1 $568 $567 $575 $738 reversed $244 $-1 #
edge $-1 $571 41.202169579830688 $741 53.229163487655264 $568 $817 forward 7 unknown #
straight-curve $-1 41.202169579830688 -21.956887797118895 42.011006235260282 0 0 -1 I I #
point $-1 41.202169579830688 -21.956887797118895 4.5664724653165116 #
straight-curve $-1 23.607833266871484 -21.956887797118895 0.13170664515968183 1 0 0 I I #
edge $-1 $741 -4.5664724653165116 $576 -0.13170664515968156 $575 $818 forward 7 unknown #
point $-1 53.229163487655249 -21.956887797118895 0.13170664515968156 #
point $-1 41.202169579830688 -21.956887797118895 0.13170664515968156 #
vertex $-1 $580 $819 #
straight-curve $-1 53.229163487655264 0 4.5664724653165116 0 1 0 I I #
vertex $-1 $583 $820 #
point $-1 44.6075683613956 -17.41437296250799 0.16756451681554552 #
vertex $-1 $587 $821 #
point $-1 48.215666533742969 -17.41437296250799 0.16756451681554552 #
vertex $-1 $591 $822 #
point $-1 51.823764706090337 -17.41437296250799 0.16756451681554552 #
coedge $-1 $606 $605 $598 $750 forward $595 $-1 #
edge $-1 $751 48.680799983152568 $754 52.293821511603561 $749 $823 forward 7 unknown #
vertex $-1 $610 $824 #
straight-curve $-1 -29.225892685187912 34.015764462344215 4.5664724653165152 0 1 0 I I #
edge $-1 $754 11.970487428609065 $607 22.540323084548632 $606 $825 forward 7 unknown #
vertex $-1 $753 $826 #
straight-curve $-1 -29.225892685187912 -8.5481836232195434 32.542377866742797 0 -0.69465836192734942 0.71933980857756763 I I #
point $-1 -29.225892685187912 18.46783354677099 4.5664724653165116 #
point $-1 -39.795728341127479 21.956887797118895 0.95345093686552218 #
straight-curve $-1 0 21.956887797118895 4.5664724653165116 -1 0 0 I I #
vertex $-1 $613 $827 #
point $-1 -35.775775296573315 18.077699428417706 0.69854334912929716 #
vertex $-1 $617 $828 #
point $-1 -31.245845729742072 18.077699428417706 0.69854334912929716 #
coedge $-1 $632 $631 $624 $764 forward $621 $-1 #
edge $-1 $765 48.680799983152568 $768 52.293821511603561 $763 $829 forward 7 unknown #
vertex $-1 $636 $830 #
straight-curve $-1 -3.4933653666667679 34.015764462344215 4.5664724653165152 0 1 0 I I #
edge $-1 $768 -0.89577623065150735 $633 9.674059425288057 $632 $831 forward 7 unknown #
vertex $-1 $767 $832 #
straight-curve $-1 -3.4933653666667679 -8.5481836232195434 32.542377866742797 0 -0.69465836192734942 0.71933980857756763 I I #
point $-1 -3.4933653666667679 18.46783354677099 4.5664724653165116 #
point $-1 -14.063201022606332 21.956887797118895 0.95345093686552218 #
straight-curve $-1 0 21.956887797118895 4.5664724653165116 -1 0 0 I I #
vertex $-1 $639 $833 #
point $-1 -10.043247978052172 18.077699428417706 0.69854334912929716 #
vertex $-1 $643 $834 #
point $-1 -5.5133184112209292 18.077699428417706 0.69854334912929716 #
coedge $-1 $658 $657 $650 $778 forward $647 $-1 #
edge $-1 $779 48.680799983152568 $782 52.293821511603561 $777 $835 forward 7 unknown #
vertex $-1 $662 $836 #
straight-curve $-1 22.239161951854381 34.015764462344215 4.5664724653165152 0 1 0 I I #
edge $-1 $782 -13.762039889912081 $659 -3.1922042339725181 $658 $837 forward 7 unknown #
vertex $-1 $781 $838 #
straight-curve $-1 22.239161951854381 -8.5481836232195434 32.542377866742797 0 -0.69465836192734942 0.71933980857756763 I I #
point $-1 22.239161951854381 18.46783354677099 4.5664724653165116 #
point $-1 11.669326295914818 21.956887797118895 0.95345093686552218 #
straight-curve $-1 0 21.956887797118895 4.5664724653165116 -1 0 0 I I #
vertex $-1 $665 $839 #
point $-1 15.689279340468978 18.077699428417706 0.69854334912929716 #
vertex $-1 $669 $840 #
point $-1 20.219208907300221 18.077699428417706 0.69854334912929716 #
coedge $-1 $684 $683 $676 $792 forward $673 $-1 #
edge $-1 $793 48.680799983152568 $796 52.293821511603561 $791 $841 forward 7 unknown #
vertex $-1 $688 $842 #
straight-curve $-1 47.971689270375535 34.015764462344215 4.5664724653165152 0 1 0 I I #
edge $-1 $796 -26.62830354917266 $685 -16.05846789323309 $684 $843 forward 7 unknown #
vertex $-1 $795 $844 #
straight-curve $-1 47.971689270375535 -8.5481836232195434 32.542377866742797 0 -0.69465836192734942 0.71933980857756763 I I #
point $-1 47.971689270375535 18.46783354677099 4.5664724653165116 #
point $-1 37.401853614435964 21.956887797118895 0.95345093686552218 #
straight-curve $-1 0 21.956887797118895 4.5664724653165116 -1 0 0 I I #
vertex $-1 $691 $845 #
point $-1 41.421806658990128 18.077699428417706 0.69854334912929716 #
vertex $-1 $695 $846 #
point $-1 45.951736225821371 18.077699428417706 0.69854334912929716 #
straight-curve $-1 -53.229163487655264 21.956887797118895 0 0 0 -1 I I #
point $-1 -53.229163487655264 -21.956887797118895 -4.5664724653165116 #
straight-curve $-1 -53.229163487655264 0 -4.5664724653165116 0 1 0 I I #
point $-1 -53.229163487655264 21.956887797118895 -4.5664724653165116 #
edge $-1 $731 -1.5 $720 1.5 $717 $847 forward 7 unknown #
straight-curve $-1 -56.757381188881205 -16.333723540311077 0 0 0 -1 I I #
straight-curve $-1 -54.993272338268234 -19.333723540311077 4.5664724653165116 1 0 0 I I #
point $-1 -56.757381188881205 -19.333723540311077 4.5664724653165116 #
point $-1 -56.757381188881205 -19.333723540311077 -4.5664724653165116 #
straight-curve $-1 -56.757381188881205 -17.833723540311077 -4.5664724653165116 0 1 0 I I #
point $-1 -56.757381188881205 -16.333723540311077 -4.5664724653165116 #
point $-1 -56.757381188881205 -16.333723540311077 4.5664724653165116 #
straight-curve $-1 0 -21.956887797118895 4.5664724653165116 1 0 0 I I #
straight-curve $-1 53.229163487655264 -21.956887797118895 0 0 0 -1 I I #
point $-1 53.229163487655264 -21.956887797118895 4.5664724653165116 #
point $-1 43.6075683613956 -16.79871147946163 -0.62044623075910366 #
point $-1 47.215666533742969 -16.79871147946163 -0.62044623075910366 #
point $-1 50.823764706090337 -16.79871147946163 -0.62044623075910366 #
straight-curve $-1 -29.225892685187912 21.956887797118895 53.247272448469083 0 0 -1 I I #
point $-1 -29.225892685187912 21.956887797118895 4.5664724653165116 #
straight-curve $-1 -17.255405256578847 21.956887797118892 0.95345093686552396 -1 0 0 I I #
point $-1 -29.225892685187912 21.956887797118895 0.95345093686552218 #
point $-1 -36.775775296573315 17.35835961984014 0.0038849872019477427 #
point $-1 -32.245845729742072 17.35835961984014 0.0038849872019477427 #
straight-curve $-1 -3.4933653666667679 21.956887797118895 53.247272448469083 0 0 -1 I I #
point $-1 -3.4933653666667679 21.956887797118895 4.5664724653165116 #
straight-curve $-1 -4.3891415973182752 21.956887797118892 0.95345093686552396 -1 0 0 I I #
point $-1 -3.4933653666667679 21.956887797118895 0.95345093686552218 #
point $-1 -11.043247978052172 17.35835961984014 0.0038849872019477427 #
point $-1 -6.5133184112209292 17.35835961984014 0.0038849872019477427 #
straight-curve $-1 22.239161951854381 21.956887797118895 53.247272448469083 0 0 -1 I I #
point $-1 22.239161951854381 21.956887797118895 4.5664724653165116 #
straight-curve $-1 8.4771220619422998 21.956887797118892 0.95345093686552396 -1 0 0 I I #
point $-1 22.239161951854381 21.956887797118895 0.95345093686552218 #
point $-1 14.689279340468978 17.35835961984014 0.0038849872019477427 #
point $-1 19.219208907300221 17.35835961984014 0.0038849872019477427 #
straight-curve $-1 47.971689270375535 21.956887797118895 53.247272448469083 0 0 -1 I I #
point $-1 47.971689270375535 21.956887797118895 4.5664724653165116 #
straight-curve $-1 21.343385721202875 21.956887797118892 0.95345093686552396 -1 0 0 I I #
point $-1 47.971689270375535 21.956887797118895 0.95345093686552218 #
point $-1 40.421806658990128 17.35835961984014 0.0038849872019477427 #
point $-1 44.951736225821371 17.35835961984014 0.0038849872019477427 #
straight-curve $-1 -56.757381188881205 -17.833723540311077 4.5664724653165116 0 -1 0 I I #
End-of-ACIS-data 