500 0 9 0           
7 Unknown 11 ACIS 5.0 NT 24 Fri Mar 26 03:31:29 1999 
-1 9.9999999999999995e-007 1e-010 
body $-1 $9 $-1 $10 #
body $-1 $11 $-1 $12 #
body $-1 $13 $-1 $14 #
body $-1 $15 $-1 $16 #
body $-1 $17 $-1 $18 #
body $-1 $19 $-1 $20 #
body $-1 $21 $-1 $22 #
body $-1 $23 $-1 $24 #
body $-1 $25 $-1 $26 #
lump $-1 $-1 $27 $0 #
transform $-1 1 0 0 0 1 0 0 0 1 49.248329111606189 29.758363360858382 10.145833677851664 1 rotate no_reflect no_shear #
lump $-1 $-1 $28 $1 #
transform $-1 1 0 0 0 1 0 0 0 1 49.248329111606189 29.758363360858382 10.145833677851664 1 rotate no_reflect no_shear #
lump $-1 $-1 $29 $2 #
transform $-1 1 0 0 0 1 0 0 0 1 49.248329111606189 29.758363360858382 10.145833677851664 1 rotate no_reflect no_shear #
lump $-1 $-1 $30 $3 #
transform $-1 1 0 0 0 1 0 0 0 1 49.248329111606189 29.758363360858382 10.145833677851664 1 rotate no_reflect no_shear #
lump $-1 $-1 $31 $4 #
transform $-1 1 0 0 0 1 0 0 0 1 49.248329111606189 29.758363360858382 10.145833677851664 1 rotate no_reflect no_shear #
lump $-1 $-1 $32 $5 #
transform $-1 1 0 0 0 1 0 0 0 1 49.248329111606189 29.758363360858382 10.145833677851664 1 rotate no_reflect no_shear #
lump $-1 $-1 $33 $6 #
transform $-1 1 0 0 0 1 0 0 0 1 49.248329111606189 29.758363360858382 10.145833677851664 1 rotate no_reflect no_shear #
lump $-1 $-1 $34 $7 #
transform $-1 1 0 0 0 1 0 0 0 1 49.248329111606189 29.758363360858382 10.145833677851664 1 rotate no_reflect no_shear #
lump $-1 $-1 $35 $8 #
transform $-1 1 0 0 0 1 0 0 0 1 49.248329111606189 29.758363360858382 10.145833677851664 1 rotate no_reflect no_shear #
shell $-1 $-1 $-1 $36 $-1 $9 #
shell $-1 $-1 $-1 $37 $-1 $11 #
shell $-1 $-1 $-1 $38 $-1 $13 #
shell $-1 $-1 $-1 $39 $-1 $15 #
shell $-1 $-1 $-1 $40 $-1 $17 #
shell $-1 $-1 $-1 $41 $-1 $19 #
shell $-1 $-1 $-1 $42 $-1 $21 #
shell $-1 $-1 $-1 $43 $-1 $23 #
shell $-1 $-1 $-1 $44 $-1 $25 #
face $-1 $45 $46 $27 $-1 $47 forward single #
face $-1 $48 $49 $28 $-1 $50 forward single #
face $-1 $51 $52 $29 $-1 $53 forward single #
face $-1 $54 $55 $30 $-1 $56 reversed single #
face $-1 $57 $58 $31 $-1 $59 forward single #
face $-1 $60 $61 $32 $-1 $62 forward single #
face $-1 $63 $64 $33 $-1 $65 reversed single #
face $-1 $66 $67 $34 $-1 $68 forward single #
face $-1 $69 $70 $35 $-1 $71 forward single #
face $-1 $72 $73 $27 $-1 $74 reversed single #
loop $-1 $-1 $75 $36 #
plane-surface $-1 0 0 10.145833677851664 0 0 1 1 0 0 forward_v I I I I #
face $-1 $76 $77 $28 $-1 $78 reversed single #
loop $-1 $-1 $79 $37 #
plane-surface $-1 -49.248329111606189 0 0 1 0 0 0 0 -1 forward_v I I I I #
face $-1 $80 $81 $29 $-1 $82 forward single #
loop $-1 $-1 $83 $38 #
plane-surface $-1 49.248329111606189 0 0 -1 0 0 0 0 1 forward_v I I I I #
face $-1 $84 $85 $30 $-1 $86 reversed single #
loop $-1 $-1 $87 $39 #
plane-surface $-1 3.8768408363406408 37.500478249701573 117.82453130103231 1 0 0 0 -0.57357644374324357 -0.81915203911291934 forward_v I I I I #
face $-1 $88 $89 $31 $-1 $90 forward single #
loop $-1 $91 $92 $40 #
cone-surface $-1 7.654408495122226 23.985948384607884 5.6146314550863288 0 -0.57357644374324357 -0.81915203911291934 1 0 0 1 I I 0 1 1 forward I I I I #
face $-1 $93 $94 $32 $-1 $95 forward single #
loop $-1 $96 $97 $41 #
cone-surface $-1 13.320759983294607 23.985948384607884 5.6146314550863288 0 -0.57357644374324357 -0.81915203911291934 1 0 0 1 I I 0 1 1 forward I I I I #
face $-1 $98 $99 $33 $-1 $100 reversed single #
loop $-1 $-1 $101 $42 #
plane-surface $-1 17.098327642076207 -86.253726305122242 83.68713884475153 -1 0 0 0 -0.57357644374324357 0.81915203911291934 forward_v I I I I #
face $-1 $102 $103 $34 $-1 $104 forward single #
loop $-1 $105 $106 $43 #
cone-surface $-1 7.654408495122226 -23.985948384607884 5.614631455086327 0 0.57357644374324357 -0.81915203911291934 1 0 0 1 I I 0 1 1 forward I I I I #
face $-1 $107 $108 $35 $-1 $109 forward single #
loop $-1 $110 $111 $44 #
cone-surface $-1 13.320759983294607 -23.985948384607884 5.614631455086327 0 0.57357644374324357 -0.81915203911291934 1 0 0 1 I I 0 1 1 forward I I I I #
face $-1 $112 $113 $27 $-1 $114 reversed single #
loop $-1 $-1 $115 $45 #
plane-surface $-1 0 0 -10.145833677851664 0 0 1 1 0 0 forward_v I I I I #
coedge $-1 $116 $117 $118 $119 forward $46 $-1 #
face $-1 $120 $121 $28 $-1 $122 reversed single #
loop $-1 $-1 $123 $48 #
plane-surface $-1 0 29.758363360858382 0 0 -1 0 0 0 -1 forward_v I I I I #
coedge $-1 $124 $125 $126 $127 forward $49 $-1 #
face $-1 $128 $129 $29 $-1 $130 reversed single #
loop $-1 $-1 $131 $51 #
plane-surface $-1 0 0 10.145833677851664 0 0 1 1 0 0 forward_v I I I I #
coedge $-1 $132 $133 $134 $135 forward $52 $-1 #
face $-1 $136 $137 $30 $-1 $138 reversed single #
loop $-1 $-1 $139 $54 #
plane-surface $-1 10.487584239208424 -18.994884694562302 37.140792871679579 0 0.57357644374324357 0.81915203911291934 1 0 0 forward_v I I I I #
coedge $-1 $140 $141 $142 $143 reversed $55 $-1 #
face $-1 $-1 $144 $31 $-1 $145 forward single #
loop $-1 $146 $147 $57 #
cone-surface $-1 7.654408495122226 23.026971002057458 4.2450698439909527 0 -0.57357644374324357 -0.81915203911291934 0.5 0 0 1 I I -0.70710678118654746 0.70710678118654746 0.5 forward I I I I #
loop $-1 $-1 $148 $40 #
coedge $-1 $92 $92 $149 $150 reversed $58 $-1 #
face $-1 $-1 $151 $32 $-1 $152 forward single #
loop $-1 $153 $154 $60 #
cone-surface $-1 13.320759983294607 23.026971002057458 4.2450698439909527 0 -0.57357644374324357 -0.81915203911291934 0.5 0 0 1 I I -0.70710678118654746 0.70710678118654746 0.5 forward I I I I #
loop $-1 $-1 $155 $41 #
coedge $-1 $97 $97 $156 $157 reversed $61 $-1 #
face $-1 $158 $159 $33 $-1 $160 reversed single #
loop $-1 $-1 $161 $63 #
plane-surface $-1 10.487584239208424 -29.758363360858368 3.0034004153988008 0 -0.57357644374324357 0.81915203911291934 1 0 0 forward_v I I I I #
coedge $-1 $162 $163 $164 $165 reversed $64 $-1 #
face $-1 $-1 $166 $34 $-1 $167 forward single #
loop $-1 $168 $169 $66 #
cone-surface $-1 7.654408495122226 -23.026971002057458 4.2450698439909509 0 0.57357644374324357 -0.81915203911291934 0.5 0 0 1 I I -0.70710678118654746 0.70710678118654746 0.5 forward I I I I #
loop $-1 $-1 $170 $43 #
coedge $-1 $106 $106 $171 $172 reversed $67 $-1 #
face $-1 $-1 $173 $35 $-1 $174 forward single #
loop $-1 $175 $176 $69 #
cone-surface $-1 13.320759983294607 -23.026971002057458 4.2450698439909509 0 0.57357644374324357 -0.81915203911291934 0.5 0 0 1 I I -0.70710678118654746 0.70710678118654746 0.5 forward I I I I #
loop $-1 $-1 $177 $44 #
coedge $-1 $111 $111 $178 $179 reversed $70 $-1 #
face $-1 $180 $181 $27 $-1 $182 reversed single #
loop $-1 $-1 $183 $72 #
plane-surface $-1 0 -29.758363360858382 0 0 1 0 0 0 1 forward_v I I I I #
coedge $-1 $184 $185 $186 $187 forward $73 $-1 #
coedge $-1 $188 $75 $189 $190 forward $46 $-1 #
coedge $-1 $75 $188 $191 $192 forward $46 $-1 #
coedge $-1 $193 $194 $75 $119 reversed $195 $-1 #
edge $-1 $196 -29.758363360858382 $197 29.758363360858382 $118 $198 forward 7 unknown #
face $-1 $199 $200 $28 $-1 $201 reversed single #
loop $-1 $-1 $126 $76 #
plane-surface $-1 -53.328265867017727 0 7.1458336778516642 0 0 1 1 0 0 forward_v I I I I #
coedge $-1 $202 $203 $124 $204 forward $77 $-1 #
coedge $-1 $205 $79 $123 $204 reversed $49 $-1 #
coedge $-1 $79 $205 $206 $207 reversed $49 $-1 #
coedge $-1 $208 $209 $79 $127 reversed $121 $-1 #
edge $-1 $210 -29.758363360858382 $211 29.758363360858382 $126 $212 forward 7 unknown #
face $-1 $213 $214 $29 $-1 $215 reversed single #
loop $-1 $-1 $216 $80 #
plane-surface $-1 0 -29.758363360858382 0 0 1 0 0 0 1 forward_v I I I I #
coedge $-1 $217 $218 $219 $220 forward $81 $-1 #
coedge $-1 $219 $83 $216 $221 reversed $52 $-1 #
coedge $-1 $83 $219 $222 $223 reversed $52 $-1 #
coedge $-1 $224 $225 $83 $135 reversed $214 $-1 #
edge $-1 $226 -29.758363360858382 $227 29.758363360858382 $134 $228 forward 7 unknown #
face $-1 $229 $230 $30 $-1 $231 reversed single #
loop $-1 $-1 $232 $84 #
plane-surface $-1 17.098327642076207 37.500478249701573 117.82453130103231 -1 0 0 0 0.57357644374324357 0.81915203911291934 forward_v I I I I #
coedge $-1 $233 $234 $235 $236 reversed $85 $-1 #
coedge $-1 $141 $87 $237 $238 reversed $55 $-1 #
coedge $-1 $87 $140 $233 $239 reversed $55 $-1 #
coedge $-1 $235 $240 $87 $143 forward $241 $-1 #
edge $-1 $242 -11.008124236007596 $243 -0.80767260486417314 $142 $244 forward 7 unknown #
loop $-1 $-1 $149 $88 #
plane-surface $-1 10.487584239208424 -18.994884694562302 37.140792871679579 0 0.57357644374324357 0.81915203911291934 1 0 0 forward_v I I I I #
loop $-1 $-1 $245 $57 #
coedge $-1 $147 $147 $148 $246 reversed $89 $-1 #
coedge $-1 $148 $148 $147 $246 forward $91 $-1 #
coedge $-1 $149 $149 $92 $150 forward $144 $-1 #
edge $-1 $247 2.3245460067227537e-015 $247 6.2831853071796031 $149 $248 forward 7 unknown #
loop $-1 $-1 $156 $93 #
plane-surface $-1 10.487584239208424 -18.994884694562302 37.140792871679579 0 0.57357644374324357 0.81915203911291934 1 0 0 forward_v I I I I #
loop $-1 $-1 $249 $60 #
coedge $-1 $154 $154 $155 $250 reversed $94 $-1 #
coedge $-1 $155 $155 $154 $250 forward $96 $-1 #
coedge $-1 $156 $156 $97 $157 forward $151 $-1 #
edge $-1 $251 2.3245460067227537e-015 $251 6.2831853071796031 $156 $252 forward 7 unknown #
face $-1 $253 $254 $33 $-1 $255 reversed single #
loop $-1 $-1 $256 $98 #
plane-surface $-1 3.8768408363406408 -86.253726305122242 83.68713884475153 1 0 0 0 0.57357644374324357 -0.81915203911291934 forward_v I I I I #
coedge $-1 $257 $258 $259 $260 reversed $99 $-1 #
coedge $-1 $163 $101 $261 $262 reversed $64 $-1 #
coedge $-1 $101 $162 $257 $263 reversed $64 $-1 #
coedge $-1 $259 $264 $101 $165 forward $265 $-1 #
edge $-1 $266 13.368499791702739 $267 23.568951422846162 $164 $268 forward 7 unknown #
loop $-1 $-1 $171 $102 #
plane-surface $-1 10.487584239208424 -29.758363360858368 3.0034004153988008 0 -0.57357644374324357 0.81915203911291934 1 0 0 forward_v I I I I #
loop $-1 $-1 $269 $66 #
coedge $-1 $169 $169 $170 $270 reversed $103 $-1 #
coedge $-1 $170 $170 $169 $270 forward $105 $-1 #
coedge $-1 $171 $171 $106 $172 forward $166 $-1 #
edge $-1 $271 -9.4264801049223698e-016 $271 6.2831853071795996 $171 $272 forward 7 unknown #
loop $-1 $-1 $178 $107 #
plane-surface $-1 10.487584239208424 -29.758363360858368 3.0034004153988008 0 -0.57357644374324357 0.81915203911291934 1 0 0 forward_v I I I I #
loop $-1 $-1 $273 $69 #
coedge $-1 $176 $176 $177 $274 reversed $108 $-1 #
coedge $-1 $177 $177 $176 $274 forward $110 $-1 #
coedge $-1 $178 $178 $111 $179 forward $173 $-1 #
edge $-1 $275 -9.4264801049223698e-016 $275 6.2831853071795996 $178 $276 forward 7 unknown #
face $-1 $277 $278 $27 $-1 $279 reversed single #
loop $-1 $-1 $280 $112 #
plane-surface $-1 -49.248329111606189 0 0 1 0 0 0 0 -1 forward_v I I I I #
coedge $-1 $281 $191 $282 $283 forward $113 $-1 #
coedge $-1 $284 $115 $281 $285 forward $73 $-1 #
coedge $-1 $115 $284 $286 $287 forward $73 $-1 #
coedge $-1 $194 $193 $115 $187 reversed $195 $-1 #
edge $-1 $288 -29.758363360858382 $289 29.758363360858382 $186 $290 forward 7 unknown #
coedge $-1 $117 $116 $291 $292 forward $46 $-1 #
coedge $-1 $293 $294 $116 $190 reversed $278 $-1 #
edge $-1 $197 -49.248329111606189 $295 49.248329111606189 $189 $296 forward 7 unknown #
coedge $-1 $183 $297 $117 $192 reversed $113 $-1 #
edge $-1 $298 -49.248329111606189 $196 49.248329111606189 $191 $299 forward 7 unknown #
coedge $-1 $186 $118 $297 $300 forward $195 $-1 #
coedge $-1 $118 $186 $293 $301 reversed $195 $-1 #
loop $-1 $-1 $193 $277 #
vertex $-1 $119 $302 #
vertex $-1 $119 $303 #
straight-curve $-1 49.248329111606189 0 10.145833677851664 0 1 0 I I #
face $-1 $304 $305 $28 $-1 $306 forward single #
loop $-1 $-1 $307 $120 #
plane-surface $-1 -57.408202622429265 0 8.6458336778516642 1 0 0 0 0 -1 forward_v I I I I #
coedge $-1 $308 $123 $209 $309 reversed $77 $-1 #
coedge $-1 $123 $308 $310 $311 reversed $77 $-1 #
edge $-1 $312 -10.145833677851664 $211 -7.1458336778516642 $123 $313 forward 7 unknown #
coedge $-1 $125 $124 $314 $315 reversed $49 $-1 #
coedge $-1 $316 $317 $125 $207 forward $318 $-1 #
edge $-1 $210 7.1458336778516642 $319 10.145833677851664 $206 $320 forward 7 unknown #
coedge $-1 $321 $126 $317 $322 forward $121 $-1 #
coedge $-1 $126 $321 $202 $309 forward $121 $-1 #
vertex $-1 $207 $323 #
vertex $-1 $204 $324 #
straight-curve $-1 -49.248329111606189 0 7.1458336778516642 0 1 0 I I #
face $-1 $325 $326 $29 $-1 $327 reversed single #
loop $-1 $-1 $328 $128 #
plane-surface $-1 53.328265867017727 0 7.1458336778516642 0 0 1 1 0 0 forward_v I I I I #
coedge $-1 $329 $330 $132 $221 forward $129 $-1 #
coedge $-1 $331 $131 $330 $332 forward $81 $-1 #
coedge $-1 $131 $331 $333 $334 forward $81 $-1 #
coedge $-1 $133 $132 $131 $220 reversed $52 $-1 #
edge $-1 $335 -29.758363360858382 $336 29.758363360858382 $131 $337 forward 7 unknown #
edge $-1 $336 -10.145833677851664 $227 -7.1458336778516642 $216 $338 forward 7 unknown #
coedge $-1 $333 $339 $133 $223 forward $340 $-1 #
edge $-1 $226 7.1458336778516642 $335 10.145833677851664 $222 $341 forward 7 unknown #
coedge $-1 $328 $134 $339 $342 forward $214 $-1 #
coedge $-1 $134 $328 $329 $343 forward $214 $-1 #
vertex $-1 $223 $344 #
vertex $-1 $221 $345 #
straight-curve $-1 49.248329111606189 0 7.1458336778516642 0 -1 0 I I #
face $-1 $-1 $241 $30 $-1 $346 forward single #
loop $-1 $-1 $347 $136 #
plane-surface $-1 0 29.758363360858382 0 0 -1 0 0 0 -1 forward_v I I I I #
coedge $-1 $348 $349 $350 $351 reversed $137 $-1 #
coedge $-1 $352 $139 $141 $239 forward $85 $-1 #
coedge $-1 $139 $352 $348 $353 forward $85 $-1 #
coedge $-1 $350 $142 $139 $236 forward $241 $-1 #
edge $-1 $243 -1.3669512832635711 $354 11.854535522471995 $235 $355 forward 7 unknown #
coedge $-1 $356 $357 $140 $238 forward $230 $-1 #
edge $-1 $358 -55.908865235117368 $242 -48.766431972664492 $237 $359 forward 7 unknown #
edge $-1 $243 47.06427449784178 $358 59.516726721716793 $141 $360 forward 7 unknown #
coedge $-1 $142 $350 $356 $361 forward $241 $-1 #
loop $-1 $-1 $350 $229 #
vertex $-1 $238 $362 #
vertex $-1 $143 $363 #
straight-curve $-1 3.8768408363406408 18.750239124850786 10.145833677851662 0 -1 0 I I #
coedge $-1 $245 $245 $-1 $364 reversed $146 $-1 #
edge $-1 $365 0 $365 6.2831853071796004 $147 $366 forward 7 unknown #
vertex $-1 $150 $367 #
ellipse-curve $-1 7.654408495122226 24.658137545286674 6.5746170466252236 0 0.57357644374324357 0.81915203911291934 1 0 0 1 I I #
coedge $-1 $249 $249 $-1 $368 reversed $153 $-1 #
edge $-1 $369 0 $369 6.2831853071796004 $154 $370 forward 7 unknown #
vertex $-1 $157 $371 #
ellipse-curve $-1 13.320759983294607 24.658137545286674 6.5746170466252236 0 0.57357644374324357 0.81915203911291934 1 0 0 1 I I #
face $-1 $-1 $265 $33 $-1 $372 forward single #
loop $-1 $-1 $373 $158 #
plane-surface $-1 0 -29.758363360858382 0 0 1 0 0 0 1 forward_v I I I I #
coedge $-1 $374 $375 $376 $377 reversed $159 $-1 #
coedge $-1 $378 $161 $163 $263 forward $99 $-1 #
coedge $-1 $161 $378 $374 $379 forward $99 $-1 #
coedge $-1 $376 $164 $161 $260 forward $265 $-1 #
edge $-1 $267 -11.854535522471995 $380 1.3669512832635711 $259 $381 forward 7 unknown #
coedge $-1 $382 $383 $162 $262 forward $254 $-1 #
edge $-1 $384 -38.840169006976971 $266 -31.697735744524103 $261 $385 forward 7 unknown #
edge $-1 $267 -12.452452223874994 $384 1.7244671030687178e-014 $163 $386 forward 7 unknown #
coedge $-1 $164 $376 $382 $387 forward $265 $-1 #
loop $-1 $-1 $376 $253 #
vertex $-1 $262 $388 #
vertex $-1 $165 $389 #
straight-curve $-1 17.098327642076207 -43.126863152561121 10.145833677851662 0 1 0 I I #
coedge $-1 $269 $269 $-1 $390 reversed $168 $-1 #
edge $-1 $391 0 $391 6.2831853071796004 $169 $392 forward 7 unknown #
vertex $-1 $172 $393 #
ellipse-curve $-1 7.654408495122226 -24.658137545286678 6.5746170466252245 0 -0.57357644374324357 0.81915203911291934 1 0 0 1 I I #
coedge $-1 $273 $273 $-1 $394 reversed $175 $-1 #
edge $-1 $395 0 $395 6.2831853071796004 $176 $396 forward 7 unknown #
vertex $-1 $179 $397 #
ellipse-curve $-1 13.320759983294607 -24.658137545286678 6.5746170466252245 0 -0.57357644374324357 0.81915203911291934 1 0 0 1 I I #
face $-1 $-1 $195 $27 $-1 $398 reversed single #
loop $-1 $-1 $293 $180 #
plane-surface $-1 0 29.758363360858382 0 0 -1 0 0 0 -1 forward_v I I I I #
coedge $-1 $399 $291 $294 $400 forward $181 $-1 #
coedge $-1 $297 $183 $184 $285 reversed $113 $-1 #
coedge $-1 $291 $399 $183 $283 reversed $181 $-1 #
edge $-1 $298 -10.145833677851664 $401 10.145833677851664 $282 $402 forward 7 unknown #
coedge $-1 $185 $184 $399 $403 forward $73 $-1 #
edge $-1 $289 -49.248329111606189 $401 49.248329111606189 $281 $404 forward 7 unknown #
coedge $-1 $294 $293 $185 $287 reversed $278 $-1 #
edge $-1 $405 -49.248329111606189 $288 49.248329111606189 $286 $406 forward 7 unknown #
vertex $-1 $187 $407 #
vertex $-1 $300 $408 #
straight-curve $-1 49.248329111606189 0 -10.145833677851664 0 -1 0 I I #
coedge $-1 $280 $282 $188 $292 reversed $181 $-1 #
edge $-1 $295 -29.758363360858382 $298 29.758363360858382 $291 $409 forward 7 unknown #
coedge $-1 $286 $189 $194 $301 forward $278 $-1 #
coedge $-1 $189 $286 $280 $400 reversed $278 $-1 #
vertex $-1 $190 $410 #
straight-curve $-1 0 29.758363360858382 10.145833677851664 -1 0 0 I I #
coedge $-1 $191 $281 $193 $300 reversed $113 $-1 #
vertex $-1 $292 $411 #
straight-curve $-1 0 -29.758363360858382 10.145833677851664 1 0 0 I I #
edge $-1 $196 -10.145833677851664 $289 10.145833677851664 $193 $412 forward 7 unknown #
edge $-1 $197 -10.145833677851664 $288 10.145833677851664 $194 $413 forward 7 unknown #
point $-1 49.248329111606189 -29.758363360858382 10.145833677851664 #
point $-1 49.248329111606189 29.758363360858382 10.145833677851664 #
face $-1 $-1 $318 $28 $-1 $414 reversed single #
loop $-1 $-1 $314 $199 #
plane-surface $-1 0 0 10.145833677851664 0 0 1 1 0 0 forward_v I I I I #
coedge $-1 $415 $416 $308 $417 forward $200 $-1 #
coedge $-1 $203 $202 $307 $417 reversed $77 $-1 #
edge $-1 $418 -4.0799367554115378 $211 4.0799367554115378 $202 $419 forward 7 unknown #
coedge $-1 $420 $314 $203 $311 forward $305 $-1 #
edge $-1 $312 49.248329111606189 $421 57.408202622429265 $203 $422 forward 7 unknown #
vertex $-1 $311 $423 #
straight-curve $-1 -49.248329111606189 29.758363360858382 0 0 0 -1 I I #
coedge $-1 $310 $424 $205 $315 forward $305 $-1 #
edge $-1 $319 -29.758363360858382 $312 29.758363360858382 $314 $425 forward 7 unknown #
coedge $-1 $426 $206 $424 $427 reversed $318 $-1 #
coedge $-1 $206 $426 $208 $322 reversed $318 $-1 #
loop $-1 $-1 $206 $304 #
vertex $-1 $207 $428 #
straight-curve $-1 -49.248329111606189 -29.758363360858382 0 0 0 1 I I #
coedge $-1 $209 $208 $415 $429 forward $121 $-1 #
edge $-1 $210 -4.0799367554115378 $430 4.0799367554115378 $317 $431 forward 7 unknown #
point $-1 -49.248329111606189 -29.758363360858382 7.1458336778516642 #
point $-1 -49.248329111606189 29.758363360858382 7.1458336778516642 #
face $-1 $-1 $340 $29 $-1 $432 reversed single #
loop $-1 $-1 $433 $213 #
plane-surface $-1 57.408202622429265 0 8.6458336778516642 -1 0 0 0 0 1 forward_v I I I I #
coedge $-1 $225 $224 $434 $435 forward $214 $-1 #
coedge $-1 $436 $216 $225 $343 reversed $129 $-1 #
coedge $-1 $216 $436 $217 $332 reversed $129 $-1 #
coedge $-1 $218 $217 $437 $438 forward $81 $-1 #
edge $-1 $336 -4.0799367554115378 $439 4.0799367554115378 $330 $440 forward 7 unknown #
coedge $-1 $441 $222 $218 $334 reversed $340 $-1 #
edge $-1 $442 -57.408202622429265 $335 -49.248329111606189 $333 $443 forward 7 unknown #
vertex $-1 $223 $444 #
vertex $-1 $332 $445 #
straight-curve $-1 49.248329111606189 0 10.145833677851664 0 -1 0 I I #
straight-curve $-1 49.248329111606189 -29.758363360858382 0 0 0 -1 I I #
coedge $-1 $222 $441 $224 $342 reversed $340 $-1 #
loop $-1 $-1 $222 $325 #
straight-curve $-1 49.248329111606189 29.758363360858382 0 0 0 1 I I #
edge $-1 $226 -4.0799367554115378 $446 4.0799367554115378 $339 $447 forward 7 unknown #
edge $-1 $448 -4.0799367554115378 $227 4.0799367554115378 $329 $449 forward 7 unknown #
point $-1 49.248329111606189 29.758363360858382 7.1458336778516642 #
point $-1 49.248329111606189 -29.758363360858382 7.1458336778516642 #
plane-surface $-1 0 0 10.145833677851664 0 0 1 1 0 0 forward_v I I I I #
coedge $-1 $357 $356 $349 $450 forward $230 $-1 #
coedge $-1 $349 $232 $234 $353 reversed $137 $-1 #
coedge $-1 $232 $348 $347 $450 reversed $137 $-1 #
coedge $-1 $240 $235 $232 $351 forward $241 $-1 #
edge $-1 $354 0.80767260486417314 $451 11.008124236007596 $350 $452 forward 7 unknown #
coedge $-1 $234 $233 $357 $453 reversed $85 $-1 #
edge $-1 $454 -59.516726721716793 $354 -47.06427449784178 $348 $455 forward 7 unknown #
vertex $-1 $236 $456 #
straight-curve $-1 5.2437921196042119 19.557911729714959 10.145833677851666 1 0 0 I I #
coedge $-1 $347 $237 $240 $361 reversed $230 $-1 #
coedge $-1 $237 $347 $352 $453 forward $230 $-1 #
vertex $-1 $238 $457 #
straight-curve $-1 3.8768408363406408 29.758363360858382 58.912265650516154 0 0 1 I I #
straight-curve $-1 3.8768408363406408 -18.994884694562302 37.140792871679579 0 0.81915203911291934 -0.57357644374324357 I I #
edge $-1 $451 -17.098327642076207 $242 -3.8768408363406408 $356 $458 forward 7 unknown #
point $-1 3.8768408363406408 29.758363360858382 10.145833677851664 #
point $-1 3.8768408363406408 19.557911729714959 10.145833677851662 #
edge $-1 $459 1 $459 0 $245 $-1 forward 7 unknown #
vertex $-1 $246 $460 #
ellipse-curve $-1 7.654408495122226 23.313759223929079 4.6546458635474126 0 0.57357644374324357 0.81915203911291934 1 0 0 1 I I #
point $-1 8.654408495122226 24.658137545286692 6.5746170466252449 #
edge $-1 $461 1 $461 0 $249 $-1 forward 7 unknown #
vertex $-1 $250 $462 #
ellipse-curve $-1 13.320759983294607 23.313759223929079 4.6546458635474126 0 0.57357644374324357 0.81915203911291934 1 0 0 1 I I #
point $-1 14.320759983294607 24.658137545286692 6.5746170466252449 #
plane-surface $-1 0 0 10.145833677851664 0 0 1 1 0 0 forward_v I I I I #
coedge $-1 $383 $382 $375 $463 forward $254 $-1 #
coedge $-1 $375 $256 $258 $379 reversed $159 $-1 #
coedge $-1 $256 $374 $373 $463 reversed $159 $-1 #
coedge $-1 $264 $259 $256 $377 forward $265 $-1 #
edge $-1 $380 -23.568951422846162 $464 -13.368499791702739 $376 $465 forward 7 unknown #
coedge $-1 $258 $257 $383 $466 reversed $99 $-1 #
edge $-1 $467 -1.7244671030687178e-014 $380 12.452452223874994 $374 $468 forward 7 unknown #
vertex $-1 $260 $469 #
straight-curve $-1 5.2437921196042119 -19.557911729714959 10.145833677851664 -1 0 0 I I #
coedge $-1 $373 $261 $264 $387 reversed $254 $-1 #
coedge $-1 $261 $373 $378 $466 forward $254 $-1 #
vertex $-1 $262 $470 #
straight-curve $-1 17.098327642076207 -29.758363360858382 41.843569422375765 0 0 1 I I #
straight-curve $-1 17.098327642076207 -29.758363360858368 3.0034004153988008 0 -0.81915203911291934 -0.57357644374324357 I I #
edge $-1 $464 -49.451425030677086 $266 -36.22993822494152 $382 $471 forward 7 unknown #
point $-1 17.098327642076207 -29.758363360858382 10.145833677851664 #
point $-1 17.098327642076207 -19.557911729714959 10.145833677851664 #
edge $-1 $472 1 $472 0 $269 $-1 forward 7 unknown #
vertex $-1 $270 $473 #
ellipse-curve $-1 7.654408495122226 -23.313759223929079 4.6546458635474108 0 -0.57357644374324357 0.81915203911291934 1 0 0 1 I I #
point $-1 8.654408495122226 -24.658137545286692 6.5746170466252432 #
edge $-1 $474 1 $474 0 $273 $-1 forward 7 unknown #
vertex $-1 $274 $475 #
ellipse-curve $-1 13.320759983294607 -23.313759223929079 4.6546458635474108 0 -0.57357644374324357 0.81915203911291934 1 0 0 1 I I #
point $-1 14.320759983294607 -24.658137545286692 6.5746170466252432 #
plane-surface $-1 49.248329111606189 0 0 -1 0 0 0 0 1 forward_v I I I I #
coedge $-1 $282 $280 $284 $403 reversed $181 $-1 #
edge $-1 $295 -10.145833677851664 $405 10.145833677851664 $294 $476 forward 7 unknown #
vertex $-1 $403 $477 #
straight-curve $-1 -49.248329111606189 -29.758363360858382 0 0 0 -1 I I #
edge $-1 $401 -29.758363360858382 $405 29.758363360858382 $399 $478 forward 7 unknown #
straight-curve $-1 0 -29.758363360858382 -10.145833677851664 -1 0 0 I I #
vertex $-1 $287 $479 #
straight-curve $-1 0 29.758363360858382 -10.145833677851664 1 0 0 I I #
point $-1 49.248329111606189 29.758363360858382 -10.145833677851664 #
point $-1 49.248329111606189 -29.758363360858382 -10.145833677851664 #
straight-curve $-1 -49.248329111606189 0 10.145833677851664 0 -1 0 I I #
point $-1 -49.248329111606189 29.758363360858382 10.145833677851664 #
point $-1 -49.248329111606189 -29.758363360858382 10.145833677851664 #
straight-curve $-1 49.248329111606189 -29.758363360858382 0 0 0 -1 I I #
straight-curve $-1 49.248329111606189 29.758363360858382 0 0 0 -1 I I #
plane-surface $-1 0 -29.758363360858382 0 0 1 0 0 0 1 forward_v I I I I #
coedge $-1 $480 $307 $321 $429 reversed $200 $-1 #
coedge $-1 $307 $480 $420 $481 reversed $200 $-1 #
edge $-1 $421 -1.5 $418 1.5 $308 $482 forward 7 unknown #
vertex $-1 $309 $483 #
straight-curve $-1 -53.328265867017727 29.758363360858382 7.1458336778516642 1 0 0 I I #
coedge $-1 $424 $310 $416 $481 forward $305 $-1 #
vertex $-1 $311 $484 #
straight-curve $-1 0 29.758363360858382 10.145833677851664 -1 0 0 I I #
point $-1 -49.248329111606189 29.758363360858382 10.145833677851664 #
coedge $-1 $314 $420 $316 $427 forward $305 $-1 #
straight-curve $-1 -49.248329111606189 0 10.145833677851664 0 1 0 I I #
coedge $-1 $317 $316 $480 $485 forward $318 $-1 #
edge $-1 $486 -57.408202622429265 $319 -49.248329111606189 $316 $487 forward 7 unknown #
point $-1 -49.248329111606189 -29.758363360858382 10.145833677851664 #
edge $-1 $430 -29.758363360858382 $418 29.758363360858382 $415 $488 forward 7 unknown #
vertex $-1 $429 $489 #
straight-curve $-1 -53.328265867017727 -29.758363360858382 7.1458336778516642 -1 0 0 I I #
plane-surface $-1 0 29.758363360858382 0 0 -1 0 0 0 -1 forward_v I I I I #
coedge $-1 $434 $437 $436 $490 forward $326 $-1 #
coedge $-1 $491 $433 $328 $435 reversed $326 $-1 #
edge $-1 $446 -29.758363360858382 $448 29.758363360858382 $434 $492 forward 7 unknown #
coedge $-1 $330 $329 $433 $490 reversed $129 $-1 #
coedge $-1 $433 $491 $331 $438 reversed $326 $-1 #
edge $-1 $439 -29.758363360858382 $442 29.758363360858382 $437 $493 forward 7 unknown #
vertex $-1 $438 $494 #
straight-curve $-1 53.328265867017727 -29.758363360858382 10.145833677851664 1 0 0 I I #
coedge $-1 $339 $333 $491 $495 forward $340 $-1 #
vertex $-1 $438 $496 #
straight-curve $-1 0 29.758363360858382 10.145833677851664 -1 0 0 I I #
point $-1 49.248329111606189 29.758363360858382 10.145833677851664 #
point $-1 49.248329111606189 -29.758363360858382 10.145833677851664 #
vertex $-1 $435 $497 #
straight-curve $-1 53.328265867017727 29.758363360858382 7.1458336778516642 1 0 0 I I #
vertex $-1 $490 $498 #
straight-curve $-1 53.328265867017727 -29.758363360858382 7.1458336778516642 -1 0 0 I I #
edge $-1 $451 48.766431972664492 $454 55.908865235117368 $347 $499 forward 7 unknown #
vertex $-1 $361 $500 #
straight-curve $-1 17.098327642076207 18.750239124850786 10.145833677851662 0 1 0 I I #
edge $-1 $454 -11.854535522471995 $358 1.3669512832635711 $357 $501 forward 7 unknown #
vertex $-1 $453 $502 #
straight-curve $-1 17.098327642076207 -18.994884694562302 37.140792871679579 0 -0.81915203911291934 0.57357644374324357 I I #
point $-1 17.098327642076207 19.557911729714959 10.145833677851662 #
point $-1 3.8768408363406408 29.758363360858382 3.0034004153987865 #
straight-curve $-1 0 29.758363360858382 10.145833677851664 -1 0 0 I I #
vertex $-1 $364 $503 #
point $-1 8.654408495122226 23.313759223929079 4.6546458635474126 #
vertex $-1 $368 $504 #
point $-1 14.320759983294607 23.313759223929079 4.6546458635474126 #
edge $-1 $464 31.697735744524103 $467 38.840169006976971 $373 $505 forward 7 unknown #
vertex $-1 $387 $506 #
straight-curve $-1 3.8768408363406408 -43.126863152561121 10.145833677851662 0 -1 0 I I #
edge $-1 $467 -1.3669512832635711 $384 11.854535522471995 $383 $507 forward 7 unknown #
vertex $-1 $466 $508 #
straight-curve $-1 3.8768408363406408 -29.758363360858368 3.0034004153988008 0 0.81915203911291934 0.57357644374324357 I I #
point $-1 3.8768408363406408 -19.557911729714959 10.145833677851664 #
point $-1 17.098327642076207 -29.758363360858382 3.003400415398791 #
straight-curve $-1 53.328265867017727 -29.758363360858382 10.145833677851664 1 0 0 I I #
vertex $-1 $390 $509 #
point $-1 8.654408495122226 -23.313759223929079 4.6546458635474108 #
vertex $-1 $394 $510 #
point $-1 14.320759983294607 -23.313759223929079 4.6546458635474108 #
straight-curve $-1 -49.248329111606189 29.758363360858382 0 0 0 -1 I I #
point $-1 -49.248329111606189 -29.758363360858382 -10.145833677851664 #
straight-curve $-1 -49.248329111606189 0 -10.145833677851664 0 1 0 I I #
point $-1 -49.248329111606189 29.758363360858382 -10.145833677851664 #
coedge $-1 $416 $415 $426 $485 reversed $200 $-1 #
edge $-1 $421 -29.758363360858382 $486 29.758363360858382 $416 $511 forward 7 unknown #
straight-curve $-1 -57.408202622429265 29.758363360858382 8.6458336778516642 0 0 -1 I I #
point $-1 -57.408202622429265 29.758363360858382 7.1458336778516642 #
point $-1 -57.408202622429265 29.758363360858382 10.145833677851664 #
edge $-1 $486 -1.5 $430 1.5 $480 $512 forward 7 unknown #
vertex $-1 $481 $513 #
straight-curve $-1 0 -29.758363360858382 10.145833677851664 1 0 0 I I #
straight-curve $-1 -57.408202622429265 0 7.1458336778516642 0 1 0 I I #
point $-1 -57.408202622429265 -29.758363360858382 7.1458336778516642 #
edge $-1 $439 -1.5 $448 1.5 $433 $514 forward 7 unknown #
coedge $-1 $437 $434 $441 $495 reversed $326 $-1 #
straight-curve $-1 57.408202622429265 0 7.1458336778516642 0 -1 0 I I #
straight-curve $-1 57.408202622429265 0 10.145833677851664 0 1 0 I I #
point $-1 57.408202622429265 -29.758363360858382 10.145833677851664 #
edge $-1 $442 -1.5 $446 1.5 $491 $515 forward 7 unknown #
point $-1 57.408202622429265 29.758363360858382 10.145833677851664 #
point $-1 57.408202622429265 29.758363360858382 7.1458336778516642 #
point $-1 57.408202622429265 -29.758363360858382 7.1458336778516642 #
straight-curve $-1 17.098327642076207 29.758363360858382 58.912265650516154 0 0 -1 I I #
point $-1 17.098327642076207 29.758363360858382 10.145833677851664 #
straight-curve $-1 5.2437921196042119 29.758363360858382 3.0034004153987865 -1 0 0 I I #
point $-1 17.098327642076207 29.758363360858382 3.0034004153987865 #
point $-1 7.654408495122226 22.740182780185837 3.8354938244344932 #
point $-1 13.320759983294607 22.740182780185837 3.8354938244344932 #
straight-curve $-1 3.8768408363406408 -29.758363360858382 41.843569422375765 0 0 -1 I I #
point $-1 3.8768408363406408 -29.758363360858382 10.145833677851664 #
straight-curve $-1 5.2437921196042119 -29.758363360858382 3.003400415398791 1 0 0 I I #
point $-1 3.8768408363406408 -29.758363360858382 3.003400415398791 #
point $-1 7.654408495122226 -22.740182780185837 3.8354938244344914 #
point $-1 13.320759983294607 -22.740182780185837 3.8354938244344914 #
straight-curve $-1 -57.408202622429265 0 10.145833677851664 0 -1 0 I I #
straight-curve $-1 -57.408202622429265 -29.758363360858382 8.6458336778516642 0 0 -1 I I #
point $-1 -57.408202622429265 -29.758363360858382 10.145833677851664 #
straight-curve $-1 57.408202622429265 -29.758363360858382 8.6458336778516642 0 0 -1 I I #
straight-curve $-1 57.408202622429265 29.758363360858382 8.6458336778516642 0 0 -1 I I #
End-of-ACIS-data 