500 0 8 0           
7 Unknown 11 ACIS 5.0 NT 24 Thu Mar 25 19:49:21 1999 
-1 9.9999999999999995e-007 1e-010 
body $-1 $8 $-1 $9 #
body $-1 $10 $-1 $11 #
body $-1 $12 $-1 $13 #
body $-1 $14 $-1 $15 #
body $-1 $16 $-1 $17 #
body $-1 $18 $-1 $19 #
body $-1 $20 $-1 $21 #
body $-1 $22 $-1 $23 #
lump $-1 $-1 $24 $0 #
transform $-1 1 0 0 0 1 0 0 0 1 60.144657734916223 33.251642251736449 11.872948063023509 1 rotate no_reflect no_shear #
lump $-1 $-1 $25 $1 #
transform $-1 1 0 0 0 1 0 0 0 1 60.144657734916223 33.251642251736449 11.872948063023509 1 rotate no_reflect no_shear #
lump $-1 $-1 $26 $2 #
transform $-1 1 0 0 0 1 0 0 0 1 60.144657734916223 33.251642251736449 11.872948063023509 1 rotate no_reflect no_shear #
lump $-1 $-1 $27 $3 #
transform $-1 1 0 0 0 1 0 0 0 1 60.144657734916223 33.251642251736449 11.872948063023509 1 rotate no_reflect no_shear #
lump $-1 $-1 $28 $4 #
transform $-1 1 0 0 0 1 0 0 0 1 60.144657734916223 33.251642251736449 11.872948063023509 1 rotate no_reflect no_shear #
lump $-1 $-1 $29 $5 #
transform $-1 1 0 0 0 1 0 0 0 1 60.144657734916223 33.251642251736449 11.872948063023509 1 rotate no_reflect no_shear #
lump $-1 $-1 $30 $6 #
transform $-1 1 0 0 0 1 0 0 0 1 60.144657734916223 33.251642251736449 11.872948063023509 1 rotate no_reflect no_shear #
lump $-1 $-1 $31 $7 #
transform $-1 1 0 0 0 1 0 0 0 1 60.144657734916223 33.251642251736449 11.872948063023509 1 rotate no_reflect no_shear #
shell $-1 $-1 $-1 $32 $-1 $8 #
shell $-1 $-1 $-1 $33 $-1 $10 #
shell $-1 $-1 $-1 $34 $-1 $12 #
shell $-1 $-1 $-1 $35 $-1 $14 #
shell $-1 $-1 $-1 $36 $-1 $16 #
shell $-1 $-1 $-1 $37 $-1 $18 #
shell $-1 $-1 $-1 $38 $-1 $20 #
shell $-1 $-1 $-1 $39 $-1 $22 #
face $-1 $40 $41 $24 $-1 $42 forward single #
face $-1 $43 $44 $25 $-1 $45 forward single #
face $-1 $46 $47 $26 $-1 $48 reversed single #
face $-1 $49 $50 $27 $-1 $51 forward single #
face $-1 $52 $53 $28 $-1 $54 reversed single #
face $-1 $55 $56 $29 $-1 $57 forward single #
face $-1 $58 $59 $30 $-1 $60 reversed single #
face $-1 $61 $62 $31 $-1 $63 forward single #
face $-1 $64 $65 $24 $-1 $66 reversed single #
loop $-1 $-1 $67 $32 #
plane-surface $-1 0 0 11.872948063023509 0 0 1 1 0 0 forward_v I I I I #
face $-1 $68 $69 $25 $-1 $70 reversed single #
loop $-1 $-1 $71 $33 #
plane-surface $-1 -53.805336137331643 0 11.372948063023509 0 0 1 1 0 0 forward_v I I I I #
face $-1 $72 $73 $26 $-1 $74 reversed single #
loop $-1 $-1 $75 $34 #
plane-surface $-1 -33.96484402505989 -33.251642251736442 3.1936872296914345 0 -0.74314483375859142 0.66913059716165679 1 0 0 forward_v I I I I #
face $-1 $76 $77 $27 $-1 $78 forward single #
loop $-1 $79 $80 $35 #
cone-surface $-1 -33.96484402505989 -27.517305899998028 5.8883554284808595 0 0.74314483375859142 -0.66913059716165679 1.5 0 0 1 I I 0 1 1.5 forward I I I I #
face $-1 $81 $82 $28 $-1 $83 reversed single #
loop $-1 $-1 $84 $36 #
plane-surface $-1 -6.3961569635872308 61.977869246670615 139.91980530265377 1 0 0 0 -0.6560590369687036 -0.75470957328743171 forward_v I I I I #
face $-1 $85 $86 $29 $-1 $87 forward single #
loop $-1 $88 $89 $37 #
cone-surface $-1 -0.028417683001322303 28.724551603227876 7.6944575870854512 0 -0.6560590369687036 -0.75470957328743171 1.5 0 0 1 I I 0 1 1.5 forward I I I I #
face $-1 $90 $91 $30 $-1 $92 reversed single #
loop $-1 $-1 $93 $38 #
plane-surface $-1 -0.028417683001322303 -16.939023218092238 49.136307353379266 0 0.6560590369687036 0.75470957328743171 1 0 0 forward_v I I I I #
face $-1 $94 $95 $31 $-1 $96 forward single #
loop $-1 $97 $98 $39 #
cone-surface $-1 12.707060878170481 28.724551603227876 7.6944575870854512 0 -0.6560590369687036 -0.75470957328743171 1.5 0 0 1 I I 0 1 1.5 forward I I I I #
face $-1 $99 $100 $24 $-1 $101 reversed single #
loop $-1 $-1 $102 $40 #
plane-surface $-1 0 0 -11.872948063023509 0 0 1 1 0 0 forward_v I I I I #
coedge $-1 $103 $104 $105 $106 forward $41 $-1 #
face $-1 $107 $108 $25 $-1 $109 reversed single #
loop $-1 $-1 $110 $43 #
plane-surface $-1 -53.805336137331643 0 8.3729480630235091 0 0 1 1 0 0 forward_v I I I I #
coedge $-1 $111 $112 $113 $114 forward $44 $-1 #
face $-1 $115 $116 $26 $-1 $117 reversed single #
loop $-1 $-1 $118 $46 #
plane-surface $-1 -20.463673510372718 -122.64402559949983 83.682948722187334 -1 0 0 0 -0.74314483375859142 0.66913059716165679 forward_v I I I I #
coedge $-1 $119 $120 $121 $122 reversed $47 $-1 #
face $-1 $-1 $123 $27 $-1 $124 forward single #
loop $-1 $125 $126 $49 #
cone-surface $-1 -33.96484402505989 -25.133031603615031 3.7415452627330055 0 0.74314483375859142 -0.66913059716165679 0.75 0 0 1 I I -0.70710678118654757 0.70710678118654757 0.75 forward I I I I #
loop $-1 $-1 $127 $35 #
coedge $-1 $80 $80 $128 $129 reversed $50 $-1 #
face $-1 $130 $131 $28 $-1 $132 reversed single #
loop $-1 $-1 $133 $52 #
plane-surface $-1 -0.028417683001322303 -16.939023218092238 49.136307353379266 0 0.6560590369687036 0.75470957328743171 1 0 0 forward_v I I I I #
coedge $-1 $134 $135 $136 $137 reversed $53 $-1 #
face $-1 $-1 $138 $29 $-1 $139 forward single #
loop $-1 $140 $141 $55 #
cone-surface $-1 -0.028417683001322303 27.367454232237023 6.1332956793060145 0 -0.6560590369687036 -0.75470957328743171 0.75 0 0 1 I I -0.70710678118654757 0.70710678118654757 0.75 forward I I I I #
loop $-1 $-1 $142 $37 #
coedge $-1 $89 $89 $143 $144 reversed $56 $-1 #
face $-1 $145 $146 $30 $-1 $147 forward single #
loop $-1 $-1 $148 $58 #
plane-surface $-1 19.074800158756389 61.977869246670615 139.91980530265377 -1 0 0 0 0.6560590369687036 0.75470957328743171 forward_v I I I I #
coedge $-1 $149 $150 $151 $152 reversed $59 $-1 #
face $-1 $-1 $153 $31 $-1 $154 forward single #
loop $-1 $155 $156 $61 #
cone-surface $-1 12.707060878170481 27.367454232237023 6.1332956793060145 0 -0.6560590369687036 -0.75470957328743171 0.75 0 0 1 I I -0.70710678118654757 0.70710678118654757 0.75 forward I I I I #
loop $-1 $-1 $157 $39 #
coedge $-1 $98 $98 $158 $159 reversed $62 $-1 #
face $-1 $160 $161 $24 $-1 $162 reversed single #
loop $-1 $-1 $163 $64 #
plane-surface $-1 0 -33.251642251736449 0 0 1 0 0 0 1 forward_v I I I I #
coedge $-1 $164 $165 $166 $167 forward $65 $-1 #
coedge $-1 $168 $67 $169 $170 forward $41 $-1 #
coedge $-1 $67 $168 $171 $172 forward $41 $-1 #
coedge $-1 $173 $174 $67 $106 reversed $175 $-1 #
edge $-1 $176 -33.251642251736449 $177 33.251642251736449 $105 $178 forward 7 unknown #
face $-1 $179 $180 $25 $-1 $181 reversed single #
loop $-1 $-1 $182 $68 #
plane-surface $-1 -47.466014539747064 0 9.8729480630235091 -1 0 0 0 0 1 forward_v I I I I #
coedge $-1 $183 $184 $185 $186 forward $69 $-1 #
coedge $-1 $187 $71 $188 $189 reversed $44 $-1 #
coedge $-1 $71 $187 $190 $191 reversed $44 $-1 #
coedge $-1 $182 $192 $71 $114 reversed $108 $-1 #
edge $-1 $193 -33.251642251736449 $194 33.251642251736449 $113 $195 forward 7 unknown #
face $-1 $196 $197 $26 $-1 $198 forward single #
loop $-1 $-1 $199 $72 #
plane-surface $-1 0 -33.251642251736449 0 0 1 0 0 0 1 forward_v I I I I #
coedge $-1 $200 $201 $202 $203 reversed $73 $-1 #
coedge $-1 $204 $75 $205 $206 forward $47 $-1 #
coedge $-1 $75 $204 $200 $207 forward $47 $-1 #
coedge $-1 $202 $199 $75 $122 forward $116 $-1 #
edge $-1 $208 -30.48359252721712 $209 -3.4812514978427735 $121 $210 forward 7 unknown #
loop $-1 $-1 $128 $76 #
plane-surface $-1 -33.96484402505989 -33.251642251736442 3.1936872296914345 0 -0.74314483375859142 0.66913059716165679 1 0 0 forward_v I I I I #
loop $-1 $-1 $211 $49 #
coedge $-1 $126 $126 $127 $212 reversed $77 $-1 #
coedge $-1 $127 $127 $126 $212 forward $79 $-1 #
coedge $-1 $128 $128 $80 $129 forward $123 $-1 #
edge $-1 $213 1.7601205441493813e-015 $213 6.2831853071796022 $128 $214 forward 7 unknown #
face $-1 $215 $216 $28 $-1 $217 forward single #
loop $-1 $-1 $218 $81 #
plane-surface $-1 6.3393215975845862 61.977869246670615 139.91980530265377 -1 0 0 0 0.6560590369687036 0.75470957328743171 forward_v I I I I #
coedge $-1 $219 $220 $221 $222 reversed $82 $-1 #
coedge $-1 $135 $84 $223 $224 reversed $53 $-1 #
coedge $-1 $84 $134 $219 $225 reversed $53 $-1 #
coedge $-1 $221 $226 $84 $137 forward $216 $-1 #
edge $-1 $227 -2.2627076284011416 $228 5.0613674820873449 $136 $229 forward 7 unknown #
loop $-1 $-1 $143 $85 #
plane-surface $-1 -0.028417683001322303 -16.939023218092238 49.136307353379266 0 0.6560590369687036 0.75470957328743171 1 0 0 forward_v I I I I #
loop $-1 $-1 $230 $55 #
coedge $-1 $141 $141 $142 $231 reversed $86 $-1 #
coedge $-1 $142 $142 $141 $231 forward $88 $-1 #
coedge $-1 $143 $143 $89 $144 forward $138 $-1 #
edge $-1 $232 -1.4778841911809012e-015 $232 6.2831853071795987 $143 $233 forward 7 unknown #
face $-1 $234 $235 $30 $-1 $236 forward single #
loop $-1 $-1 $237 $90 #
plane-surface $-1 0 0 11.872948063023509 0 0 1 1 0 0 forward_v I I I I #
coedge $-1 $238 $239 $240 $241 reversed $91 $-1 #
coedge $-1 $242 $93 $243 $244 reversed $59 $-1 #
coedge $-1 $93 $242 $237 $245 reversed $59 $-1 #
coedge $-1 $246 $247 $93 $152 forward $235 $-1 #
edge $-1 $248 -66.503284503472884 $249 -56.798789728634375 $151 $250 forward 7 unknown #
loop $-1 $-1 $158 $94 #
plane-surface $-1 -0.028417683001322303 -16.939023218092238 49.136307353379266 0 0.6560590369687036 0.75470957328743171 1 0 0 forward_v I I I I #
loop $-1 $-1 $251 $61 #
coedge $-1 $156 $156 $157 $252 reversed $95 $-1 #
coedge $-1 $157 $157 $156 $252 forward $97 $-1 #
coedge $-1 $158 $158 $98 $159 forward $153 $-1 #
edge $-1 $253 -1.4778841911809012e-015 $253 6.2831853071795987 $158 $254 forward 7 unknown #
face $-1 $255 $256 $24 $-1 $257 reversed single #
loop $-1 $-1 $258 $99 #
plane-surface $-1 -60.144657734916223 0 0 1 0 0 0 0 -1 forward_v I I I I #
coedge $-1 $259 $171 $260 $261 forward $100 $-1 #
coedge $-1 $262 $102 $259 $263 forward $65 $-1 #
coedge $-1 $102 $262 $264 $265 forward $65 $-1 #
coedge $-1 $174 $173 $102 $167 reversed $175 $-1 #
edge $-1 $266 -33.251642251736449 $267 33.251642251736449 $166 $268 forward 7 unknown #
coedge $-1 $104 $103 $269 $270 forward $41 $-1 #
coedge $-1 $271 $272 $103 $170 reversed $256 $-1 #
edge $-1 $177 -60.144657734916223 $273 60.144657734916223 $169 $274 forward 7 unknown #
coedge $-1 $163 $275 $104 $172 reversed $100 $-1 #
edge $-1 $276 -60.144657734916223 $176 60.144657734916223 $171 $277 forward 7 unknown #
coedge $-1 $166 $105 $275 $278 forward $175 $-1 #
coedge $-1 $105 $166 $271 $279 reversed $175 $-1 #
loop $-1 $-1 $173 $255 #
vertex $-1 $106 $280 #
vertex $-1 $106 $281 #
straight-curve $-1 60.144657734916223 0 11.872948063023509 0 1 0 I I #
face $-1 $282 $283 $25 $-1 $284 reversed single #
loop $-1 $-1 $285 $107 #
plane-surface $-1 0 -33.251642251736449 0 0 1 0 0 0 1 forward_v I I I I #
coedge $-1 $185 $113 $286 $287 reversed $108 $-1 #
coedge $-1 $288 $110 $285 $289 reversed $69 $-1 #
coedge $-1 $110 $288 $290 $291 reversed $69 $-1 #
coedge $-1 $192 $182 $110 $186 reversed $108 $-1 #
edge $-1 $292 -33.251642251736449 $293 33.251642251736449 $185 $294 forward 7 unknown #
coedge $-1 $112 $111 $295 $296 reversed $44 $-1 #
coedge $-1 $297 $298 $111 $189 forward $299 $-1 #
edge $-1 $300 -33.241989666250404 $194 -20.563346471081243 $188 $301 forward 7 unknown #
coedge $-1 $302 $286 $112 $191 forward $180 $-1 #
edge $-1 $193 20.563346471081243 $303 33.241989666250404 $190 $304 forward 7 unknown #
coedge $-1 $113 $185 $297 $305 reversed $108 $-1 #
vertex $-1 $191 $306 #
vertex $-1 $189 $307 #
straight-curve $-1 -47.466014539747064 0 11.372948063023509 0 1 0 I I #
face $-1 $-1 $308 $26 $-1 $309 forward single #
loop $-1 $-1 $205 $115 #
plane-surface $-1 -47.466014539747064 0 9.8729480630235091 -1 0 0 0 0 1 forward_v I I I I #
coedge $-1 $121 $310 $311 $312 forward $116 $-1 #
coedge $-1 $201 $118 $120 $207 reversed $73 $-1 #
coedge $-1 $118 $200 $313 $314 reversed $73 $-1 #
coedge $-1 $310 $121 $118 $203 forward $116 $-1 #
edge $-1 $209 -38.647787131402239 $315 -29.968526298070159 $202 $316 forward 7 unknown #
coedge $-1 $120 $119 $317 $318 reversed $47 $-1 #
coedge $-1 $311 $319 $119 $206 reversed $197 $-1 #
edge $-1 $208 -1.0694865687384493e-014 $320 11.679097315976911 $205 $321 forward 7 unknown #
edge $-1 $322 -11.679097315976911 $209 1.0694865687384493e-014 $200 $323 forward 7 unknown #
vertex $-1 $122 $324 #
vertex $-1 $122 $325 #
straight-curve $-1 -16.982422012529945 -33.251642251736449 3.1936872296914216 1 0 0 I I #
coedge $-1 $211 $211 $-1 $326 reversed $125 $-1 #
edge $-1 $327 0 $327 6.2831853071796004 $126 $328 forward 7 unknown #
vertex $-1 $129 $329 #
ellipse-curve $-1 -33.96484402505989 -29.344221571062079 7.5333176463574674 0 -0.74314483375859142 0.66913059716165679 1.5 0 0 1 I I #
face $-1 $-1 $330 $28 $-1 $331 reversed single #
loop $-1 $-1 $136 $130 #
plane-surface $-1 0 0 11.872948063023509 0 0 1 1 0 0 forward_v I I I I #
coedge $-1 $332 $333 $334 $335 reversed $131 $-1 #
coedge $-1 $336 $133 $135 $225 forward $82 $-1 #
coedge $-1 $133 $336 $332 $337 forward $82 $-1 #
coedge $-1 $334 $136 $133 $222 forward $216 $-1 #
edge $-1 $228 -6.3819481220865697 $338 6.3535304390852474 $221 $339 forward 7 unknown #
coedge $-1 $340 $341 $134 $224 forward $330 $-1 #
edge $-1 $342 -64.453676084551745 $227 -58.086954588303378 $223 $343 forward 7 unknown #
edge $-1 $228 56.798789728634375 $342 66.503284503472884 $135 $344 forward 7 unknown #
coedge $-1 $136 $334 $340 $345 forward $216 $-1 #
vertex $-1 $224 $346 #
vertex $-1 $137 $347 #
straight-curve $-1 -6.3961569635872308 30.988934623335307 11.872948063023514 0 -1 0 I I #
coedge $-1 $230 $230 $-1 $348 reversed $140 $-1 #
edge $-1 $349 0 $349 6.2831853071796004 $141 $350 forward 7 unknown #
vertex $-1 $144 $351 #
ellipse-curve $-1 -0.028417683001322303 29.589604696492209 8.6895873148993221 0 0.6560590369687036 0.75470957328743171 1.5 0 0 1 I I #
face $-1 $-1 $352 $30 $-1 $353 reversed single #
loop $-1 $-1 $246 $145 #
plane-surface $-1 6.3393215975845862 61.977869246670615 139.91980530265377 -1 0 0 0 0.6560590369687036 0.75470957328743171 forward_v I I I I #
coedge $-1 $240 $354 $150 $245 forward $146 $-1 #
coedge $-1 $239 $148 $242 $355 reversed $91 $-1 #
coedge $-1 $148 $238 $356 $357 reversed $91 $-1 #
coedge $-1 $358 $237 $148 $241 forward $146 $-1 #
edge $-1 $359 -5.0613674820873449 $360 2.2627076284011416 $240 $361 forward 7 unknown #
coedge $-1 $150 $149 $238 $355 forward $59 $-1 #
coedge $-1 $362 $356 $149 $244 forward $352 $-1 #
edge $-1 $363 -19.08900900025705 $248 -6.3535304390852474 $243 $364 forward 7 unknown #
edge $-1 $249 6.3535304390852474 $359 19.08900900025705 $237 $365 forward 7 unknown #
coedge $-1 $247 $151 $354 $366 reversed $235 $-1 #
coedge $-1 $151 $246 $362 $367 reversed $235 $-1 #
vertex $-1 $244 $368 #
vertex $-1 $245 $369 #
straight-curve $-1 6.3393215975845862 -16.939023218092238 49.136307353379266 0 -0.75470957328743171 0.6560590369687036 I I #
coedge $-1 $251 $251 $-1 $370 reversed $155 $-1 #
edge $-1 $371 0 $371 6.2831853071796004 $156 $372 forward 7 unknown #
vertex $-1 $159 $373 #
ellipse-curve $-1 12.707060878170481 29.589604696492209 8.6895873148993221 0 0.6560590369687036 0.75470957328743171 1.5 0 0 1 I I #
face $-1 $-1 $175 $24 $-1 $374 reversed single #
loop $-1 $-1 $271 $160 #
plane-surface $-1 0 33.251642251736449 0 0 -1 0 0 0 -1 forward_v I I I I #
coedge $-1 $375 $269 $272 $376 forward $161 $-1 #
coedge $-1 $275 $163 $164 $263 reversed $100 $-1 #
coedge $-1 $269 $375 $163 $261 reversed $161 $-1 #
edge $-1 $276 -11.872948063023509 $377 11.872948063023509 $260 $378 forward 7 unknown #
coedge $-1 $165 $164 $375 $379 forward $65 $-1 #
edge $-1 $267 -60.144657734916223 $377 60.144657734916223 $259 $380 forward 7 unknown #
coedge $-1 $272 $271 $165 $265 reversed $256 $-1 #
edge $-1 $381 -60.144657734916223 $266 60.144657734916223 $264 $382 forward 7 unknown #
vertex $-1 $167 $383 #
vertex $-1 $278 $384 #
straight-curve $-1 60.144657734916223 0 -11.872948063023509 0 -1 0 I I #
coedge $-1 $258 $260 $168 $270 reversed $161 $-1 #
edge $-1 $273 -33.251642251736449 $276 33.251642251736449 $269 $385 forward 7 unknown #
coedge $-1 $264 $169 $174 $279 forward $256 $-1 #
coedge $-1 $169 $264 $258 $376 reversed $256 $-1 #
vertex $-1 $170 $386 #
straight-curve $-1 0 33.251642251736449 11.872948063023509 -1 0 0 I I #
coedge $-1 $171 $259 $173 $278 reversed $100 $-1 #
vertex $-1 $270 $387 #
straight-curve $-1 0 -33.251642251736449 11.872948063023509 1 0 0 I I #
edge $-1 $176 -11.872948063023509 $267 11.872948063023509 $173 $388 forward 7 unknown #
edge $-1 $177 -11.872948063023509 $266 11.872948063023509 $174 $389 forward 7 unknown #
point $-1 60.144657734916223 -33.251642251736449 11.872948063023509 #
point $-1 60.144657734916223 33.251642251736449 11.872948063023509 #
face $-1 $-1 $299 $25 $-1 $390 reversed single #
loop $-1 $-1 $391 $179 #
plane-surface $-1 -60.144657734916223 0 0 1 0 0 0 0 -1 forward_v I I I I #
coedge $-1 $286 $302 $183 $289 forward $180 $-1 #
coedge $-1 $190 $285 $182 $287 forward $180 $-1 #
edge $-1 $293 3.4364740315117546 $193 6.4364740315117546 $286 $392 forward 7 unknown #
coedge $-1 $184 $183 $391 $393 reversed $69 $-1 #
edge $-1 $394 -33.241989666250404 $293 -20.563346471081243 $285 $395 forward 7 unknown #
coedge $-1 $298 $297 $184 $291 forward $299 $-1 #
edge $-1 $292 20.563346471081243 $396 33.241989666250404 $290 $397 forward 7 unknown #
vertex $-1 $291 $398 #
vertex $-1 $289 $399 #
straight-curve $-1 -47.466014539747064 0 8.3729480630235091 0 -1 0 I I #
coedge $-1 $400 $401 $187 $296 forward $283 $-1 #
edge $-1 $303 -33.251642251736449 $300 33.251642251736449 $295 $402 forward 7 unknown #
coedge $-1 $290 $188 $192 $305 forward $299 $-1 #
coedge $-1 $188 $290 $400 $403 reversed $299 $-1 #
loop $-1 $-1 $290 $282 #
vertex $-1 $403 $404 #
straight-curve $-1 -26.902668068665822 33.251642251736449 11.372948063023509 1 0 0 I I #
coedge $-1 $285 $190 $401 $405 forward $180 $-1 #
vertex $-1 $405 $406 #
straight-curve $-1 -26.902668068665822 -33.251642251736449 11.372948063023509 -1 0 0 I I #
edge $-1 $194 -6.4364740315117546 $292 -3.4364740315117546 $297 $407 forward 7 unknown #
point $-1 -47.466014539747064 -33.251642251736449 11.372948063023509 #
point $-1 -47.466014539747064 33.251642251736449 11.372948063023509 #
loop $-1 $-1 $408 $196 #
plane-surface $-1 0 0 11.872948063023509 0 0 1 1 0 0 forward_v I I I I #
coedge $-1 $199 $202 $409 $410 reversed $116 $-1 #
coedge $-1 $319 $205 $199 $312 reversed $197 $-1 #
edge $-1 $411 29.968526298070159 $208 38.647787131402239 $199 $412 forward 7 unknown #
coedge $-1 $317 $409 $201 $314 forward $308 $-1 #
edge $-1 $315 28.070370548013464 $322 35.885211909362205 $313 $413 forward 7 unknown #
vertex $-1 $203 $414 #
straight-curve $-1 -20.463673510372718 -33.251642251736449 41.841474361093667 0 0 1 I I #
coedge $-1 $408 $313 $204 $318 forward $308 $-1 #
edge $-1 $322 3.4812514978427735 $320 30.48359252721712 $317 $415 forward 7 unknown #
coedge $-1 $205 $311 $408 $416 reversed $197 $-1 #
vertex $-1 $416 $417 #
straight-curve $-1 -47.466014539747064 -33.251642251736442 3.1936872296914345 0 0.66913059716165679 0.74314483375859142 I I #
vertex $-1 $318 $418 #
straight-curve $-1 -20.463673510372718 -33.251642251736442 3.1936872296914345 0 -0.66913059716165679 -0.74314483375859142 I I #
point $-1 -47.466014539747064 -33.251642251736449 3.1936872296914265 #
point $-1 -20.463673510372718 -33.251642251736449 3.1936872296914265 #
edge $-1 $419 1 $419 0 $211 $-1 forward 7 unknown #
vertex $-1 $212 $420 #
ellipse-curve $-1 -33.96484402505989 -25.690390228933975 4.243393210604248 0 -0.74314483375859142 0.66913059716165679 1.5 0 0 1 I I #
point $-1 -32.46484402505989 -29.344221571062079 7.5333176463574709 #
loop $-1 $-1 $223 $215 #
plane-surface $-1 0 33.251642251736449 0 0 -1 0 0 0 -1 forward_v I I I I #
coedge $-1 $333 $218 $220 $337 reversed $131 $-1 #
coedge $-1 $218 $332 $421 $422 reversed $131 $-1 #
coedge $-1 $226 $221 $218 $335 forward $216 $-1 #
edge $-1 $338 -5.0613674820873449 $423 2.2627076284011416 $334 $424 forward 7 unknown #
coedge $-1 $220 $219 $341 $425 reversed $82 $-1 #
edge $-1 $426 -66.503284503472884 $338 -56.798789728634375 $332 $427 forward 7 unknown #
vertex $-1 $222 $428 #
straight-curve $-1 -0.014208841500661151 25.927567141247962 11.872948063023511 1 0 0 I I #
coedge $-1 $421 $223 $226 $345 reversed $330 $-1 #
coedge $-1 $223 $421 $336 $425 forward $330 $-1 #
vertex $-1 $224 $429 #
straight-curve $-1 -6.3961569635872308 33.251642251736449 69.959902651326885 0 0 1 I I #
straight-curve $-1 -6.3961569635872308 -16.939023218092238 49.136307353379266 0 0.75470957328743171 -0.6560590369687036 I I #
edge $-1 $423 -6.3393215975845862 $227 6.3961569635872308 $340 $430 forward 7 unknown #
point $-1 -6.3961569635872308 33.251642251736449 11.872948063023509 #
point $-1 -6.3961569635872308 25.927567141247962 11.872948063023507 #
edge $-1 $431 1 $431 0 $230 $-1 forward 7 unknown #
vertex $-1 $231 $432 #
ellipse-curve $-1 -0.028417683001322303 27.859498509963551 6.6993278592715884 0 0.6560590369687036 0.75470957328743171 1.5 0 0 1 I I #
point $-1 1.4715823169986777 29.589604696492199 8.6895873148993132 #
loop $-1 $-1 $243 $234 #
plane-surface $-1 0 33.251642251736449 0 0 -1 0 0 0 -1 forward_v I I I I #
coedge $-1 $237 $358 $246 $366 forward $146 $-1 #
edge $-1 $363 -66.503284503472884 $359 -56.798789728634375 $238 $433 forward 7 unknown #
coedge $-1 $243 $434 $239 $357 forward $352 $-1 #
edge $-1 $360 58.086954588303378 $363 64.453676084551745 $356 $435 forward 7 unknown #
coedge $-1 $354 $240 $434 $436 forward $146 $-1 #
vertex $-1 $241 $437 #
vertex $-1 $436 $438 #
straight-curve $-1 19.074800158756389 30.988934623335307 11.872948063023514 0 1 0 I I #
coedge $-1 $434 $243 $247 $367 forward $352 $-1 #
vertex $-1 $357 $439 #
straight-curve $-1 -0.014208841500661151 33.251642251736449 5.5062265667751404 -1 0 0 I I #
straight-curve $-1 -0.014208841500661151 25.927567141247962 11.872948063023511 1 0 0 I I #
edge $-1 $440 -2.2627076284011416 $249 5.0613674820873449 $354 $441 forward 7 unknown #
edge $-1 $248 -64.453676084551745 $440 -58.086954588303378 $362 $442 forward 7 unknown #
point $-1 6.3393215975845862 33.251642251736449 5.5062265667751333 #
point $-1 6.3393215975845862 25.927567141247962 11.872948063023507 #
edge $-1 $443 1 $443 0 $251 $-1 forward 7 unknown #
vertex $-1 $252 $444 #
ellipse-curve $-1 12.707060878170481 27.859498509963551 6.6993278592715884 0 0.6560590369687036 0.75470957328743171 1.5 0 0 1 I I #
point $-1 14.207060878170481 29.589604696492199 8.6895873148993132 #
plane-surface $-1 60.144657734916223 0 0 -1 0 0 0 0 1 forward_v I I I I #
coedge $-1 $260 $258 $262 $379 reversed $161 $-1 #
edge $-1 $273 -11.872948063023509 $381 11.872948063023509 $272 $445 forward 7 unknown #
vertex $-1 $379 $446 #
straight-curve $-1 -60.144657734916223 -33.251642251736449 0 0 0 -1 I I #
edge $-1 $377 -33.251642251736449 $381 33.251642251736449 $375 $447 forward 7 unknown #
straight-curve $-1 0 -33.251642251736449 -11.872948063023509 -1 0 0 I I #
vertex $-1 $265 $448 #
straight-curve $-1 0 33.251642251736449 -11.872948063023509 1 0 0 I I #
point $-1 60.144657734916223 33.251642251736449 -11.872948063023509 #
point $-1 60.144657734916223 -33.251642251736449 -11.872948063023509 #
straight-curve $-1 -60.144657734916223 0 11.872948063023509 0 -1 0 I I #
point $-1 -60.144657734916223 33.251642251736449 11.872948063023509 #
point $-1 -60.144657734916223 -33.251642251736449 11.872948063023509 #
straight-curve $-1 60.144657734916223 -33.251642251736449 0 0 0 -1 I I #
straight-curve $-1 60.144657734916223 33.251642251736449 0 0 0 -1 I I #
plane-surface $-1 0 33.251642251736449 0 0 -1 0 0 0 -1 forward_v I I I I #
coedge $-1 $401 $400 $288 $393 forward $283 $-1 #
straight-curve $-1 -47.466014539747064 -33.251642251736449 4.9364740315117546 0 0 1 I I #
edge $-1 $396 -33.251642251736449 $394 33.251642251736449 $391 $449 forward 7 unknown #
vertex $-1 $289 $450 #
straight-curve $-1 -26.902668068665822 -33.251642251736449 8.3729480630235091 1 0 0 I I #
vertex $-1 $291 $451 #
straight-curve $-1 -26.902668068665822 33.251642251736449 8.3729480630235091 -1 0 0 I I #
point $-1 -47.466014539747064 33.251642251736449 8.3729480630235091 #
point $-1 -47.466014539747064 -33.251642251736449 8.3729480630235091 #
coedge $-1 $391 $295 $298 $403 forward $283 $-1 #
coedge $-1 $295 $391 $302 $405 reversed $283 $-1 #
straight-curve $-1 -60.144657734916223 0 11.372948063023509 0 1 0 I I #
edge $-1 $300 -11.372948063023509 $396 -8.3729480630235091 $298 $452 forward 7 unknown #
point $-1 -60.144657734916223 33.251642251736449 11.372948063023509 #
edge $-1 $303 -11.372948063023509 $394 -8.3729480630235091 $401 $453 forward 7 unknown #
point $-1 -60.144657734916223 -33.251642251736449 11.372948063023509 #
straight-curve $-1 -47.466014539747064 33.251642251736449 4.9364740315117546 0 0 -1 I I #
coedge $-1 $409 $317 $319 $416 forward $308 $-1 #
coedge $-1 $313 $408 $310 $410 forward $308 $-1 #
edge $-1 $411 -47.466014539747064 $315 -20.463673510372718 $310 $454 forward 7 unknown #
vertex $-1 $410 $455 #
straight-curve $-1 -47.466014539747064 -33.251642251736449 41.841474361093667 0 0 -1 I I #
straight-curve $-1 -20.463673510372718 -61.322012799749913 11.872948063023507 0 1 0 I I #
point $-1 -20.463673510372718 -33.251642251736449 11.872948063023509 #
straight-curve $-1 -16.982422012529945 -25.436800890387705 11.872948063023509 -1 0 0 I I #
edge $-1 $320 -35.885211909362205 $411 -28.070370548013464 $408 $456 forward 7 unknown #
point $-1 -47.466014539747064 -25.436800890387708 11.872948063023509 #
point $-1 -20.463673510372718 -25.436800890387708 11.872948063023509 #
vertex $-1 $326 $457 #
point $-1 -32.46484402505989 -25.690390228933975 4.243393210604248 #
coedge $-1 $341 $340 $333 $422 forward $330 $-1 #
edge $-1 $423 58.086954588303378 $426 64.453676084551745 $421 $458 forward 7 unknown #
vertex $-1 $345 $459 #
straight-curve $-1 6.3393215975845862 30.988934623335307 11.872948063023514 0 1 0 I I #
edge $-1 $426 -6.3535304390852474 $342 6.3819481220865697 $341 $460 forward 7 unknown #
vertex $-1 $425 $461 #
straight-curve $-1 6.3393215975845862 -16.939023218092238 49.136307353379266 0 -0.75470957328743171 0.6560590369687036 I I #
point $-1 6.3393215975845862 25.927567141247962 11.872948063023507 #
point $-1 -6.3961569635872308 33.251642251736449 5.5062265667751333 #
straight-curve $-1 0 33.251642251736449 11.872948063023509 -1 0 0 I I #
vertex $-1 $348 $462 #
point $-1 1.4715823169986777 27.859498509963551 6.6993278592715884 #
straight-curve $-1 19.074800158756389 -16.939023218092238 49.136307353379266 0 -0.75470957328743171 0.6560590369687036 I I #
coedge $-1 $356 $362 $358 $436 reversed $352 $-1 #
straight-curve $-1 19.074800158756389 33.251642251736449 69.959902651326885 0 0 -1 I I #
edge $-1 $360 -19.074800158756389 $440 -6.3393215975845862 $434 $463 forward 7 unknown #
point $-1 19.074800158756389 25.927567141247962 11.872948063023507 #
point $-1 19.074800158756389 33.251642251736449 11.872948063023509 #
point $-1 19.074800158756389 33.251642251736449 5.5062265667751333 #
vertex $-1 $367 $464 #
straight-curve $-1 6.3393215975845862 30.988934623335307 11.872948063023514 0 -1 0 I I #
straight-curve $-1 6.3393215975845862 33.251642251736449 69.959902651326885 0 0 1 I I #
vertex $-1 $370 $465 #
point $-1 14.207060878170481 27.859498509963551 6.6993278592715884 #
straight-curve $-1 -60.144657734916223 33.251642251736449 0 0 0 -1 I I #
point $-1 -60.144657734916223 -33.251642251736449 -11.872948063023509 #
straight-curve $-1 -60.144657734916223 0 -11.872948063023509 0 1 0 I I #
point $-1 -60.144657734916223 33.251642251736449 -11.872948063023509 #
straight-curve $-1 -60.144657734916223 0 8.3729480630235091 0 -1 0 I I #
point $-1 -60.144657734916223 -33.251642251736449 8.3729480630235091 #
point $-1 -60.144657734916223 33.251642251736449 8.3729480630235091 #
straight-curve $-1 -60.144657734916223 33.251642251736449 0 0 0 -1 I I #
straight-curve $-1 -60.144657734916223 -33.251642251736449 0 0 0 -1 I I #
straight-curve $-1 0 -33.251642251736449 11.872948063023509 1 0 0 I I #
point $-1 -47.466014539747064 -33.251642251736449 11.872948063023509 #
straight-curve $-1 -47.466014539747064 -61.322012799749913 11.872948063023507 0 -1 0 I I #
point $-1 -33.96484402505989 -24.575672978296087 3.2396973148617629 #
straight-curve $-1 6.3393215975845862 33.251642251736449 69.959902651326885 0 0 -1 I I #
point $-1 6.3393215975845862 33.251642251736449 11.872948063023509 #
straight-curve $-1 -0.014208841500661151 33.251642251736449 5.5062265667751404 -1 0 0 I I #
point $-1 6.3393215975845862 33.251642251736449 5.5062265667751333 #
point $-1 -0.028417683001322303 26.875409954510495 5.5672634993404406 #
straight-curve $-1 0 33.251642251736449 11.872948063023509 -1 0 0 I I #
point $-1 6.3393215975845862 33.251642251736449 11.872948063023509 #
point $-1 12.707060878170481 26.875409954510495 5.5672634993404406 #
End-of-ACIS-data 