500 0 6 0           
7 Unknown 11 ACIS 5.0 NT 24 Thu Mar 25 22:02:28 1999 
-1 9.9999999999999995e-007 1e-010 
body $-1 $6 $-1 $7 #
body $-1 $8 $-1 $9 #
body $-1 $10 $-1 $11 #
body $-1 $12 $-1 $13 #
body $-1 $14 $-1 $15 #
body $-1 $16 $-1 $17 #
lump $-1 $-1 $18 $0 #
transform $-1 1 0 0 0 1 0 0 0 1 71.828363902706997 50.089142501311215 16.374855631398841 1 rotate no_reflect no_shear #
lump $-1 $-1 $19 $1 #
transform $-1 1 0 0 0 1 0 0 0 1 71.828363902706997 50.089142501311215 16.374855631398841 1 rotate no_reflect no_shear #
lump $-1 $-1 $20 $2 #
transform $-1 1 0 0 0 1 0 0 0 1 71.828363902706997 50.089142501311215 16.374855631398841 1 rotate no_reflect no_shear #
lump $-1 $-1 $21 $3 #
transform $-1 1 0 0 0 1 0 0 0 1 71.828363902706997 50.089142501311215 16.374855631398841 1 rotate no_reflect no_shear #
lump $-1 $-1 $22 $4 #
transform $-1 1 0 0 0 1 0 0 0 1 71.828363902706997 50.089142501311215 16.374855631398841 1 rotate no_reflect no_shear #
lump $-1 $-1 $23 $5 #
transform $-1 1 0 0 0 1 0 0 0 1 71.828363902706997 50.089142501311215 16.374855631398841 1 rotate no_reflect no_shear #
shell $-1 $-1 $-1 $24 $-1 $6 #
shell $-1 $-1 $-1 $25 $-1 $8 #
shell $-1 $-1 $-1 $26 $-1 $10 #
shell $-1 $-1 $-1 $27 $-1 $12 #
shell $-1 $-1 $-1 $28 $-1 $14 #
shell $-1 $-1 $-1 $29 $-1 $16 #
face $-1 $30 $31 $18 $-1 $32 forward single #
face $-1 $33 $34 $19 $-1 $35 forward single #
face $-1 $36 $37 $20 $-1 $38 reversed single #
face $-1 $39 $40 $21 $-1 $41 forward single #
face $-1 $42 $43 $22 $-1 $44 forward single #
face $-1 $45 $46 $23 $-1 $47 forward single #
face $-1 $48 $49 $18 $-1 $50 reversed single #
loop $-1 $-1 $51 $24 #
plane-surface $-1 0 0 16.374855631398841 0 0 1 1 0 0 forward_v I I I I #
face $-1 $52 $53 $19 $-1 $54 reversed single #
loop $-1 $-1 $55 $25 #
plane-surface $-1 0 -43.462940506652878 -10.015312865992932 0 0 1 1 0 0 forward_v I I I I #
face $-1 $56 $57 $20 $-1 $58 reversed single #
loop $-1 $-1 $59 $26 #
plane-surface $-1 -37.626603171977322 83.837462221124582 183.80365616643027 1 0 0 0 -0.71933980857756763 -0.69465836192734942 forward_v I I I I #
face $-1 $60 $61 $21 $-1 $62 forward single #
loop $-1 $63 $64 $27 #
cone-surface $-1 -30.57288115390638 46.978305974518847 13.221507070869094 0 -0.71933980857756763 -0.69465836192734942 1 0 0 1 I I 0 1 1 forward I I I I #
face $-1 $65 $66 $22 $-1 $67 forward single #
loop $-1 $68 $69 $28 #
cone-surface $-1 -19.992298126799966 46.978305974518847 13.221507070869094 0 -0.71933980857756763 -0.69465836192734942 1 0 0 1 I I 0 1 1 forward I I I I #
face $-1 $70 $71 $23 $-1 $72 forward single #
loop $-1 $73 $74 $29 #
cone-surface $-1 -9.4117150996935521 46.978305974518847 13.221507070869094 0 -0.71933980857756763 -0.69465836192734942 1 0 0 1 I I 0 1 1 forward I I I I #
face $-1 $75 $76 $18 $-1 $77 reversed single #
loop $-1 $-1 $78 $30 #
plane-surface $-1 0 0 -16.374855631398841 0 0 1 1 0 0 forward_v I I I I #
coedge $-1 $79 $80 $81 $82 forward $31 $-1 #
face $-1 $83 $84 $19 $-1 $85 reversed single #
loop $-1 $-1 $86 $33 #
plane-surface $-1 0 -36.83673851199454 -13.195084248695887 0 -1 0 0 0 -1 forward_v I I I I #
coedge $-1 $87 $88 $89 $90 reversed $34 $-1 #
face $-1 $91 $92 $20 $-1 $93 reversed single #
loop $-1 $-1 $94 $36 #
plane-surface $-1 -19.992298126799966 -19.500540859301651 84.011308949278273 0 0.71933980857756763 0.69465836192734942 1 0 0 forward_v I I I I #
coedge $-1 $95 $96 $97 $98 reversed $37 $-1 #
face $-1 $-1 $99 $21 $-1 $100 forward single #
loop $-1 $101 $102 $39 #
cone-surface $-1 -30.57288115390638 45.644760130467077 11.933716849143675 0 -0.71933980857756763 -0.69465836192734942 0.5 0 0 1 I I -0.70710678118654746 0.70710678118654746 0.5 forward I I I I #
loop $-1 $-1 $103 $27 #
coedge $-1 $64 $64 $104 $105 reversed $40 $-1 #
face $-1 $-1 $106 $22 $-1 $107 forward single #
loop $-1 $108 $109 $42 #
cone-surface $-1 -19.992298126799966 45.644760130467077 11.933716849143675 0 -0.71933980857756763 -0.69465836192734942 0.5 0 0 1 I I -0.70710678118654746 0.70710678118654746 0.5 forward I I I I #
loop $-1 $-1 $110 $28 #
coedge $-1 $69 $69 $111 $112 reversed $43 $-1 #
face $-1 $-1 $113 $23 $-1 $114 forward single #
loop $-1 $115 $116 $45 #
cone-surface $-1 -9.4117150996935521 45.644760130467077 11.933716849143675 0 -0.71933980857756763 -0.69465836192734942 0.5 0 0 1 I I -0.70710678118654746 0.70710678118654746 0.5 forward I I I I #
loop $-1 $-1 $117 $29 #
coedge $-1 $74 $74 $118 $119 reversed $46 $-1 #
face $-1 $120 $121 $18 $-1 $122 reversed single #
loop $-1 $-1 $123 $48 #
plane-surface $-1 0 -50.089142501311215 0 0 1 0 0 0 1 forward_v I I I I #
coedge $-1 $124 $125 $126 $127 forward $49 $-1 #
coedge $-1 $128 $51 $129 $130 forward $31 $-1 #
coedge $-1 $51 $128 $131 $132 forward $31 $-1 #
coedge $-1 $133 $134 $51 $82 reversed $135 $-1 #
edge $-1 $136 -50.089142501311215 $137 50.089142501311215 $81 $138 forward 7 unknown #
face $-1 $139 $140 $19 $-1 $141 reversed single #
loop $-1 $-1 $142 $52 #
plane-surface $-1 0 0 -16.374855631398841 0 0 1 1 0 0 forward_v I I I I #
coedge $-1 $143 $144 $145 $146 reversed $53 $-1 #
coedge $-1 $147 $55 $144 $148 forward $34 $-1 #
coedge $-1 $55 $147 $149 $150 reversed $34 $-1 #
coedge $-1 $151 $145 $55 $90 forward $140 $-1 #
edge $-1 $152 15.105268258668101 $153 28.357672247984777 $89 $154 forward 7 unknown #
face $-1 $155 $156 $20 $-1 $157 reversed single #
loop $-1 $-1 $158 $56 #
plane-surface $-1 -2.3579930816226096 83.837462221124582 183.80365616643027 -1 0 0 0 0.71933980857756763 0.69465836192734942 forward_v I I I I #
coedge $-1 $159 $160 $161 $162 reversed $57 $-1 #
coedge $-1 $96 $59 $163 $164 reversed $37 $-1 #
coedge $-1 $59 $95 $159 $165 reversed $37 $-1 #
coedge $-1 $161 $166 $59 $98 forward $167 $-1 #
edge $-1 $168 -8.1704113907489244 $169 -3.896490216690168 $97 $170 forward 7 unknown #
loop $-1 $-1 $104 $60 #
plane-surface $-1 -19.992298126799966 -19.500540859301651 84.011308949278273 0 0.71933980857756763 0.69465836192734942 1 0 0 forward_v I I I I #
loop $-1 $-1 $171 $39 #
coedge $-1 $102 $102 $103 $172 reversed $61 $-1 #
coedge $-1 $103 $103 $102 $172 forward $63 $-1 #
coedge $-1 $104 $104 $64 $105 forward $99 $-1 #
edge $-1 $173 2.3802361513856284e-015 $173 6.2831853071796031 $104 $174 forward 7 unknown #
loop $-1 $-1 $111 $65 #
plane-surface $-1 -19.992298126799966 -19.500540859301651 84.011308949278273 0 0.71933980857756763 0.69465836192734942 1 0 0 forward_v I I I I #
loop $-1 $-1 $175 $42 #
coedge $-1 $109 $109 $110 $176 reversed $66 $-1 #
coedge $-1 $110 $110 $109 $176 forward $68 $-1 #
coedge $-1 $111 $111 $69 $112 forward $106 $-1 #
edge $-1 $177 2.3802361513856284e-015 $177 6.2831853071796031 $111 $178 forward 7 unknown #
loop $-1 $-1 $118 $70 #
plane-surface $-1 -19.992298126799966 -19.500540859301651 84.011308949278273 0 0.71933980857756763 0.69465836192734942 1 0 0 forward_v I I I I #
loop $-1 $-1 $179 $45 #
coedge $-1 $116 $116 $117 $180 reversed $71 $-1 #
coedge $-1 $117 $117 $116 $180 forward $73 $-1 #
coedge $-1 $118 $118 $74 $119 forward $113 $-1 #
edge $-1 $181 2.3802361513856284e-015 $181 6.2831853071796031 $118 $182 forward 7 unknown #
face $-1 $183 $184 $18 $-1 $185 reversed single #
loop $-1 $-1 $186 $75 #
plane-surface $-1 -71.828363902706997 0 0 1 0 0 0 0 -1 forward_v I I I I #
coedge $-1 $187 $131 $188 $189 forward $76 $-1 #
coedge $-1 $190 $78 $187 $191 forward $49 $-1 #
coedge $-1 $78 $190 $192 $193 forward $49 $-1 #
coedge $-1 $134 $133 $78 $127 reversed $135 $-1 #
edge $-1 $194 -50.089142501311215 $195 50.089142501311215 $126 $196 forward 7 unknown #
coedge $-1 $80 $79 $197 $198 forward $31 $-1 #
coedge $-1 $199 $200 $79 $130 reversed $184 $-1 #
edge $-1 $137 -71.828363902706997 $201 71.828363902706997 $129 $202 forward 7 unknown #
coedge $-1 $123 $203 $80 $132 reversed $76 $-1 #
edge $-1 $204 -71.828363902706997 $136 71.828363902706997 $131 $205 forward 7 unknown #
coedge $-1 $126 $81 $203 $206 forward $135 $-1 #
coedge $-1 $81 $126 $199 $207 reversed $135 $-1 #
loop $-1 $-1 $133 $183 #
vertex $-1 $82 $208 #
vertex $-1 $82 $209 #
straight-curve $-1 71.828363902706997 0 16.374855631398841 0 1 0 I I #
face $-1 $210 $211 $19 $-1 $212 reversed single #
loop $-1 $-1 $145 $83 #
plane-surface $-1 71.828363902706997 0 0 -1 0 0 0 0 1 forward_v I I I I #
coedge $-1 $213 $214 $143 $215 forward $84 $-1 #
coedge $-1 $216 $86 $142 $215 reversed $53 $-1 #
coedge $-1 $86 $216 $87 $148 reversed $53 $-1 #
coedge $-1 $89 $217 $86 $146 forward $140 $-1 #
edge $-1 $218 -9.7773135070508985 $152 -3.417770741644989 $145 $219 forward 7 unknown #
coedge $-1 $88 $87 $220 $221 reversed $34 $-1 #
edge $-1 $152 -71.828363902706997 $222 71.828363902706997 $144 $223 forward 7 unknown #
coedge $-1 $224 $225 $88 $150 forward $211 $-1 #
edge $-1 $153 -71.828363902706997 $226 71.828363902706997 $149 $227 forward 7 unknown #
coedge $-1 $217 $89 $225 $228 forward $140 $-1 #
vertex $-1 $90 $229 #
vertex $-1 $228 $230 #
straight-curve $-1 71.828363902706997 -21.731470253326439 -10.015312865992932 0 -1 0 I I #
face $-1 $-1 $167 $20 $-1 $231 forward single #
loop $-1 $-1 $232 $91 #
plane-surface $-1 0 50.089142501311215 0 0 -1 0 0 0 -1 forward_v I I I I #
coedge $-1 $233 $234 $235 $236 reversed $92 $-1 #
coedge $-1 $237 $94 $96 $165 forward $57 $-1 #
coedge $-1 $94 $237 $233 $238 forward $57 $-1 #
coedge $-1 $235 $97 $94 $162 forward $167 $-1 #
edge $-1 $169 -27.630454108577339 $239 7.6381559817773734 $161 $240 forward 7 unknown #
coedge $-1 $241 $242 $95 $164 forward $156 $-1 #
edge $-1 $243 -79.952747491352312 $168 -75.526972451816292 $163 $244 forward 7 unknown #
edge $-1 $169 94.025733751096965 $243 100.17828500262246 $96 $245 forward 7 unknown #
coedge $-1 $97 $235 $241 $246 forward $167 $-1 #
loop $-1 $-1 $235 $155 #
vertex $-1 $164 $247 #
vertex $-1 $98 $248 #
straight-curve $-1 -37.626603171977322 41.918731110562291 16.374855631398844 0 -1 0 I I #
coedge $-1 $171 $171 $-1 $249 reversed $101 $-1 #
edge $-1 $250 0 $250 6.2831853071796004 $102 $251 forward 7 unknown #
vertex $-1 $105 $252 #
ellipse-curve $-1 -30.57288115390638 47.95218191428183 14.161968111630838 0 0.71933980857756763 0.69465836192734942 1 0 0 1 I I #
coedge $-1 $175 $175 $-1 $253 reversed $108 $-1 #
edge $-1 $254 0 $254 6.2831853071796004 $109 $255 forward 7 unknown #
vertex $-1 $112 $256 #
ellipse-curve $-1 -19.992298126799966 47.95218191428183 14.161968111630838 0 0.71933980857756763 0.69465836192734942 1 0 0 1 I I #
coedge $-1 $179 $179 $-1 $257 reversed $115 $-1 #
edge $-1 $258 0 $258 6.2831853071796004 $116 $259 forward 7 unknown #
vertex $-1 $119 $260 #
ellipse-curve $-1 -9.4117150996935521 47.95218191428183 14.161968111630838 0 0.71933980857756763 0.69465836192734942 1 0 0 1 I I #
face $-1 $-1 $135 $18 $-1 $261 reversed single #
loop $-1 $-1 $199 $120 #
plane-surface $-1 0 50.089142501311215 0 0 -1 0 0 0 -1 forward_v I I I I #
coedge $-1 $262 $197 $200 $263 forward $121 $-1 #
coedge $-1 $203 $123 $124 $191 reversed $76 $-1 #
coedge $-1 $197 $262 $123 $189 reversed $121 $-1 #
edge $-1 $204 -16.374855631398841 $264 16.374855631398841 $188 $265 forward 7 unknown #
coedge $-1 $125 $124 $262 $266 forward $49 $-1 #
edge $-1 $195 -71.828363902706997 $264 71.828363902706997 $187 $267 forward 7 unknown #
coedge $-1 $200 $199 $125 $193 reversed $184 $-1 #
edge $-1 $268 -71.828363902706997 $194 71.828363902706997 $192 $269 forward 7 unknown #
vertex $-1 $127 $270 #
vertex $-1 $206 $271 #
straight-curve $-1 71.828363902706997 0 -16.374855631398841 0 -1 0 I I #
coedge $-1 $186 $188 $128 $198 reversed $121 $-1 #
edge $-1 $201 -50.089142501311215 $204 50.089142501311215 $197 $272 forward 7 unknown #
coedge $-1 $192 $129 $134 $207 forward $184 $-1 #
coedge $-1 $129 $192 $186 $263 reversed $184 $-1 #
vertex $-1 $130 $273 #
straight-curve $-1 0 50.089142501311215 16.374855631398841 -1 0 0 I I #
coedge $-1 $131 $187 $133 $206 reversed $76 $-1 #
vertex $-1 $198 $274 #
straight-curve $-1 0 -50.089142501311215 16.374855631398841 1 0 0 I I #
edge $-1 $136 -16.374855631398841 $195 16.374855631398841 $133 $275 forward 7 unknown #
edge $-1 $137 -16.374855631398841 $194 16.374855631398841 $134 $276 forward 7 unknown #
point $-1 71.828363902706997 -50.089142501311215 16.374855631398841 #
point $-1 71.828363902706997 50.089142501311215 16.374855631398841 #
face $-1 $-1 $277 $19 $-1 $278 reversed single #
loop $-1 $-1 $149 $139 #
plane-surface $-1 0 -50.089142501311215 0 0 1 0 0 0 1 forward_v I I I I #
coedge $-1 $279 $142 $217 $280 forward $84 $-1 #
coedge $-1 $142 $279 $281 $282 forward $84 $-1 #
edge $-1 $283 -71.828363902706997 $218 71.828363902706997 $142 $284 forward 7 unknown #
coedge $-1 $144 $143 $285 $286 reversed $53 $-1 #
coedge $-1 $145 $151 $213 $280 reversed $140 $-1 #
vertex $-1 $280 $287 #
straight-curve $-1 71.828363902706997 -36.83673851199454 -6.5975421243479433 0 0 1 I I #
coedge $-1 $285 $288 $147 $221 forward $277 $-1 #
edge $-1 $226 -28.357672247984777 $222 -15.105268258668101 $220 $289 forward 7 unknown #
vertex $-1 $221 $290 #
straight-curve $-1 0 -36.83673851199454 -10.015312865992932 -1 0 0 I I #
coedge $-1 $291 $149 $288 $292 forward $211 $-1 #
coedge $-1 $149 $291 $151 $228 reversed $211 $-1 #
vertex $-1 $292 $293 #
straight-curve $-1 0 -50.089142501311215 -10.015312865992932 -1 0 0 I I #
edge $-1 $153 10.015312865992932 $294 16.374855631398841 $151 $295 forward 7 unknown #
point $-1 71.828363902706997 -36.83673851199454 -10.015312865992932 #
point $-1 71.828363902706997 -50.089142501311215 -10.015312865992932 #
plane-surface $-1 0 0 16.374855631398841 0 0 1 1 0 0 forward_v I I I I #
coedge $-1 $242 $241 $234 $296 forward $156 $-1 #
coedge $-1 $234 $158 $160 $238 reversed $92 $-1 #
coedge $-1 $158 $233 $232 $296 reversed $92 $-1 #
coedge $-1 $166 $161 $158 $236 forward $167 $-1 #
edge $-1 $239 3.896490216690168 $297 8.1704113907489244 $235 $298 forward 7 unknown #
coedge $-1 $160 $159 $242 $299 reversed $57 $-1 #
edge $-1 $300 -100.17828500262246 $239 -94.025733751096965 $233 $301 forward 7 unknown #
vertex $-1 $162 $302 #
straight-curve $-1 -9.996149063399983 45.815221327252466 16.374855631398844 1 0 0 I I #
coedge $-1 $232 $163 $166 $246 reversed $156 $-1 #
coedge $-1 $163 $232 $237 $299 forward $156 $-1 #
vertex $-1 $164 $303 #
straight-curve $-1 -37.626603171977322 50.089142501311215 91.901828083215136 0 0 1 I I #
straight-curve $-1 -37.626603171977322 -19.500540859301651 84.011308949278273 0 0.69465836192734942 -0.71933980857756763 I I #
edge $-1 $297 2.3579930816226096 $168 37.626603171977322 $241 $304 forward 7 unknown #
point $-1 -37.626603171977322 50.089142501311215 16.374855631398841 #
point $-1 -37.626603171977322 45.815221327252459 16.374855631398844 #
edge $-1 $305 1 $305 0 $171 $-1 forward 7 unknown #
vertex $-1 $172 $306 #
ellipse-curve $-1 -30.57288115390638 46.004430034755863 12.281046030107349 0 0.71933980857756763 0.69465836192734942 1 0 0 1 I I #
point $-1 -29.57288115390638 47.952181914281837 14.161968111630841 #
edge $-1 $307 1 $307 0 $175 $-1 forward 7 unknown #
vertex $-1 $176 $308 #
ellipse-curve $-1 -19.992298126799966 46.004430034755863 12.281046030107349 0 0.71933980857756763 0.69465836192734942 1 0 0 1 I I #
point $-1 -18.992298126799966 47.952181914281837 14.161968111630841 #
edge $-1 $309 1 $309 0 $179 $-1 forward 7 unknown #
vertex $-1 $180 $310 #
ellipse-curve $-1 -9.4117150996935521 46.004430034755863 12.281046030107349 0 0.71933980857756763 0.69465836192734942 1 0 0 1 I I #
point $-1 -8.4117150996935521 47.952181914281837 14.161968111630841 #
plane-surface $-1 71.828363902706997 0 0 -1 0 0 0 0 1 forward_v I I I I #
coedge $-1 $188 $186 $190 $266 reversed $121 $-1 #
edge $-1 $201 -16.374855631398841 $268 16.374855631398841 $200 $311 forward 7 unknown #
vertex $-1 $266 $312 #
straight-curve $-1 -71.828363902706997 -50.089142501311215 0 0 0 -1 I I #
edge $-1 $264 -50.089142501311215 $268 50.089142501311215 $262 $313 forward 7 unknown #
straight-curve $-1 0 -50.089142501311215 -16.374855631398841 -1 0 0 I I #
vertex $-1 $193 $314 #
straight-curve $-1 0 50.089142501311215 -16.374855631398841 1 0 0 I I #
point $-1 71.828363902706997 50.089142501311215 -16.374855631398841 #
point $-1 71.828363902706997 -50.089142501311215 -16.374855631398841 #
straight-curve $-1 -71.828363902706997 0 16.374855631398841 0 -1 0 I I #
point $-1 -71.828363902706997 50.089142501311215 16.374855631398841 #
point $-1 -71.828363902706997 -50.089142501311215 16.374855631398841 #
straight-curve $-1 71.828363902706997 -50.089142501311215 0 0 0 -1 I I #
straight-curve $-1 71.828363902706997 50.089142501311215 0 0 0 -1 I I #
loop $-1 $-1 $285 $210 #
plane-surface $-1 -71.828363902706997 0 0 1 0 0 0 0 -1 forward_v I I I I #
coedge $-1 $214 $213 $291 $315 forward $84 $-1 #
edge $-1 $218 36.83673851199454 $294 50.089142501311215 $217 $316 forward 7 unknown #
coedge $-1 $288 $285 $214 $282 reversed $277 $-1 #
edge $-1 $317 -50.089142501311215 $283 -36.83673851199454 $281 $318 forward 7 unknown #
vertex $-1 $286 $319 #
straight-curve $-1 0 -36.83673851199454 -16.374855631398841 1 0 0 I I #
coedge $-1 $281 $220 $216 $286 forward $277 $-1 #
edge $-1 $222 3.417770741644989 $283 9.7773135070508985 $285 $320 forward 7 unknown #
point $-1 71.828363902706997 -36.83673851199454 -16.374855631398841 #
coedge $-1 $220 $281 $224 $292 reversed $277 $-1 #
straight-curve $-1 -71.828363902706997 -21.731470253326439 -10.015312865992932 0 1 0 I I #
point $-1 -71.828363902706997 -36.83673851199454 -10.015312865992932 #
coedge $-1 $225 $224 $279 $315 reversed $211 $-1 #
edge $-1 $226 10.015312865992932 $317 16.374855631398841 $288 $321 forward 7 unknown #
point $-1 -71.828363902706997 -50.089142501311215 -10.015312865992932 #
vertex $-1 $228 $322 #
straight-curve $-1 71.828363902706997 -50.089142501311215 0 0 0 -1 I I #
edge $-1 $297 75.526972451816292 $300 79.952747491352312 $232 $323 forward 7 unknown #
vertex $-1 $246 $324 #
straight-curve $-1 -2.3579930816226096 41.918731110562291 16.374855631398844 0 1 0 I I #
edge $-1 $300 -7.6381559817773734 $243 27.630454108577339 $242 $325 forward 7 unknown #
vertex $-1 $299 $326 #
straight-curve $-1 -2.3579930816226096 -19.500540859301651 84.011308949278273 0 -0.69465836192734942 0.71933980857756763 I I #
point $-1 -2.3579930816226096 45.815221327252459 16.374855631398844 #
point $-1 -37.626603171977322 50.089142501311215 11.949080591862824 #
straight-curve $-1 0 50.089142501311215 16.374855631398841 -1 0 0 I I #
vertex $-1 $249 $327 #
point $-1 -29.57288115390638 46.004430034755863 12.281046030107349 #
vertex $-1 $253 $328 #
point $-1 -18.992298126799966 46.004430034755863 12.281046030107349 #
vertex $-1 $257 $329 #
point $-1 -8.4117150996935521 46.004430034755863 12.281046030107349 #
straight-curve $-1 -71.828363902706997 50.089142501311215 0 0 0 -1 I I #
point $-1 -71.828363902706997 -50.089142501311215 -16.374855631398841 #
straight-curve $-1 -71.828363902706997 0 -16.374855631398841 0 1 0 I I #
point $-1 -71.828363902706997 50.089142501311215 -16.374855631398841 #
edge $-1 $294 -71.828363902706997 $317 71.828363902706997 $291 $330 forward 7 unknown #
straight-curve $-1 71.828363902706997 0 -16.374855631398841 0 -1 0 I I #
vertex $-1 $282 $331 #
straight-curve $-1 -71.828363902706997 0 -16.374855631398841 0 1 0 I I #
point $-1 -71.828363902706997 -36.83673851199454 -16.374855631398841 #
straight-curve $-1 -71.828363902706997 -36.83673851199454 -6.5975421243479433 0 0 -1 I I #
straight-curve $-1 -71.828363902706997 -50.089142501311215 0 0 0 -1 I I #
point $-1 71.828363902706997 -50.089142501311215 -16.374855631398841 #
straight-curve $-1 -2.3579930816226096 50.089142501311215 91.901828083215136 0 0 -1 I I #
point $-1 -2.3579930816226096 50.089142501311215 16.374855631398841 #
straight-curve $-1 -9.996149063399983 50.089142501311215 11.949080591862831 -1 0 0 I I #
point $-1 -2.3579930816226096 50.089142501311215 11.949080591862824 #
point $-1 -30.57288115390638 45.285090226178291 11.58638766818 #
point $-1 -19.992298126799966 45.285090226178291 11.58638766818 #
point $-1 -9.4117150996935521 45.285090226178291 11.58638766818 #
straight-curve $-1 0 -50.089142501311215 -16.374855631398841 -1 0 0 I I #
point $-1 -71.828363902706997 -50.089142501311215 -16.374855631398841 #
End-of-ACIS-data 