500 0 9 0           
7 Unknown 11 ACIS 5.0 NT 24 Thu Mar 25 22:37:30 1999 
-1 9.9999999999999995e-007 1e-010 
body $-1 $9 $-1 $10 #
body $-1 $11 $-1 $12 #
body $-1 $13 $-1 $14 #
body $-1 $15 $-1 $16 #
body $-1 $17 $-1 $18 #
body $-1 $19 $-1 $20 #
body $-1 $21 $-1 $22 #
body $-1 $23 $-1 $24 #
body $-1 $25 $-1 $26 #
lump $-1 $-1 $27 $0 #
transform $-1 1 0 0 0 1 0 0 0 1 54.889370403149513 36.072167863623186 14.46827824837349 1 rotate no_reflect no_shear #
lump $-1 $-1 $28 $1 #
transform $-1 1 0 0 0 1 0 0 0 1 54.889370403149513 36.072167863623186 14.46827824837349 1 rotate no_reflect no_shear #
lump $-1 $-1 $29 $2 #
transform $-1 1 0 0 0 1 0 0 0 1 54.889370403149513 36.072167863623186 14.46827824837349 1 rotate no_reflect no_shear #
lump $-1 $-1 $30 $3 #
transform $-1 1 0 0 0 1 0 0 0 1 54.889370403149513 36.072167863623186 14.46827824837349 1 rotate no_reflect no_shear #
lump $-1 $-1 $31 $4 #
transform $-1 1 0 0 0 1 0 0 0 1 54.889370403149513 36.072167863623186 14.46827824837349 1 rotate no_reflect no_shear #
lump $-1 $-1 $32 $5 #
transform $-1 1 0 0 0 1 0 0 0 1 54.889370403149513 36.072167863623186 14.46827824837349 1 rotate no_reflect no_shear #
lump $-1 $-1 $33 $6 #
transform $-1 1 0 0 0 1 0 0 0 1 54.889370403149513 36.072167863623186 14.46827824837349 1 rotate no_reflect no_shear #
lump $-1 $-1 $34 $7 #
transform $-1 1 0 0 0 1 0 0 0 1 54.889370403149513 36.072167863623186 14.46827824837349 1 rotate no_reflect no_shear #
lump $-1 $-1 $35 $8 #
transform $-1 1 0 0 0 1 0 0 0 1 54.889370403149513 36.072167863623186 14.46827824837349 1 rotate no_reflect no_shear #
shell $-1 $-1 $-1 $36 $-1 $9 #
shell $-1 $-1 $-1 $37 $-1 $11 #
shell $-1 $-1 $-1 $38 $-1 $13 #
shell $-1 $-1 $-1 $39 $-1 $15 #
shell $-1 $-1 $-1 $40 $-1 $17 #
shell $-1 $-1 $-1 $41 $-1 $19 #
shell $-1 $-1 $-1 $42 $-1 $21 #
shell $-1 $-1 $-1 $43 $-1 $23 #
shell $-1 $-1 $-1 $44 $-1 $25 #
face $-1 $45 $46 $27 $-1 $47 forward single #
face $-1 $48 $49 $28 $-1 $50 forward single #
face $-1 $51 $52 $29 $-1 $53 reversed single #
face $-1 $54 $55 $30 $-1 $56 forward single #
face $-1 $57 $58 $31 $-1 $59 forward single #
face $-1 $60 $61 $32 $-1 $62 reversed single #
face $-1 $63 $64 $33 $-1 $65 forward single #
face $-1 $66 $67 $34 $-1 $68 reversed single #
face $-1 $69 $70 $35 $-1 $71 forward single #
face $-1 $72 $73 $27 $-1 $74 reversed single #
loop $-1 $-1 $75 $36 #
plane-surface $-1 0 0 14.46827824837349 0 0 1 1 0 0 forward_v I I I I #
face $-1 $76 $77 $28 $-1 $78 reversed single #
loop $-1 $-1 $79 $37 #
plane-surface $-1 -54.889370403149513 0 0 1 0 0 0 0 -1 forward_v I I I I #
face $-1 $80 $81 $29 $-1 $82 reversed single #
loop $-1 $-1 $83 $38 #
plane-surface $-1 -42.513806915716167 55.914794887658267 139.29099476488528 1 0 0 0 -0.66913061440640931 -0.74314481823134659 forward_v I I I I #
face $-1 $84 $85 $30 $-1 $86 forward single #
loop $-1 $87 $88 $39 #
cone-surface $-1 -36.199008580832846 32.828129327392993 11.452883982910926 0 -0.66913061440640931 -0.74314481823134659 1 0 0 1 I I 0 1 1 forward I I I I #
face $-1 $89 $90 $31 $-1 $91 forward single #
loop $-1 $92 $93 $40 #
cone-surface $-1 -26.726811078507861 32.828129327392993 11.452883982910926 0 -0.66913061440640931 -0.74314481823134659 1 0 0 1 I I 0 1 1 forward I I I I #
face $-1 $94 $95 $32 $-1 $96 reversed single #
loop $-1 $-1 $97 $41 #
plane-surface $-1 -3.9857428997752713 -128.14036764267999 65.43940149485519 -1 0 0 0 -0.83867057594974714 0.54463902268945019 forward_v I I I I #
face $-1 $98 $99 $33 $-1 $100 forward single #
loop $-1 $101 $102 $42 #
cone-surface $-1 -12.210392985511277 -31.706379140676077 9.0833187667335498 0 0.83867057594974714 -0.54463902268945019 1.5 0 0 1 I I 0 1 1.5 forward I I I I #
face $-1 $103 $104 $34 $-1 $105 reversed single #
loop $-1 $-1 $106 $43 #
plane-surface $-1 30.324197577091628 -128.14036764267999 65.43940149485519 -1 0 0 0 -0.83867057594974714 0.54463902268945019 forward_v I I I I #
face $-1 $107 $108 $35 $-1 $109 forward single #
loop $-1 $110 $111 $44 #
cone-surface $-1 22.099547491355622 -31.706379140676077 9.0833187667335498 0 0.83867057594974714 -0.54463902268945019 1.5 0 0 1 I I 0 1 1.5 forward I I I I #
face $-1 $112 $113 $27 $-1 $114 reversed single #
loop $-1 $-1 $115 $45 #
plane-surface $-1 0 0 -14.46827824837349 0 0 1 1 0 0 forward_v I I I I #
coedge $-1 $116 $117 $118 $119 forward $46 $-1 #
face $-1 $120 $121 $28 $-1 $122 reversed single #
loop $-1 $-1 $123 $48 #
plane-surface $-1 0 0 -14.46827824837349 0 0 1 1 0 0 forward_v I I I I #
coedge $-1 $124 $125 $126 $127 forward $49 $-1 #
face $-1 $128 $129 $29 $-1 $130 reversed single #
loop $-1 $-1 $131 $51 #
plane-surface $-1 -31.462909829670352 -17.541521396822553 57.709492382722075 0 0.66913061440640931 0.74314481823134659 1 0 0 forward_v I I I I #
coedge $-1 $132 $133 $134 $135 reversed $52 $-1 #
face $-1 $-1 $136 $30 $-1 $137 forward single #
loop $-1 $138 $139 $54 #
cone-surface $-1 -36.199008580832846 32.044253850095579 10.582302086715714 0 -0.66913061440640931 -0.74314481823134659 0.5 0 0 1 I I -0.70710678118654746 0.70710678118654746 0.5 forward I I I I #
loop $-1 $-1 $140 $39 #
coedge $-1 $88 $88 $141 $142 reversed $55 $-1 #
face $-1 $-1 $143 $31 $-1 $144 forward single #
loop $-1 $145 $146 $57 #
cone-surface $-1 -26.726811078507861 32.044253850095579 10.582302086715714 0 -0.66913061440640931 -0.74314481823134659 0.5 0 0 1 I I -0.70710678118654746 0.70710678118654746 0.5 forward I I I I #
loop $-1 $-1 $147 $40 #
coedge $-1 $93 $93 $148 $149 reversed $58 $-1 #
face $-1 $150 $151 $32 $-1 $152 reversed single #
loop $-1 $-1 $153 $60 #
plane-surface $-1 -12.210392985511277 -36.072167863623179 5.6496153900340218 0 -0.83867057594974714 0.54463902268945019 1 0 0 forward_v I I I I #
coedge $-1 $154 $155 $156 $157 reversed $61 $-1 #
face $-1 $-1 $158 $33 $-1 $159 forward single #
loop $-1 $160 $161 $63 #
cone-surface $-1 -12.210392985511277 -29.575040704662911 7.6992114472462525 0 0.83867057594974714 -0.54463902268945019 0.75 0 0 1 I I -0.70710678118654757 0.70710678118654757 0.75 forward I I I I #
loop $-1 $-1 $162 $42 #
coedge $-1 $102 $102 $163 $164 reversed $64 $-1 #
face $-1 $165 $166 $34 $-1 $167 reversed single #
loop $-1 $-1 $168 $66 #
plane-surface $-1 22.099547491355622 -36.072167863623179 5.6496153900340218 0 -0.83867057594974714 0.54463902268945019 1 0 0 forward_v I I I I #
coedge $-1 $169 $170 $171 $172 reversed $67 $-1 #
face $-1 $-1 $173 $35 $-1 $174 forward single #
loop $-1 $175 $176 $69 #
cone-surface $-1 22.099547491355622 -29.575040704662911 7.6992114472462525 0 0.83867057594974714 -0.54463902268945019 0.75 0 0 1 I I -0.70710678118654757 0.70710678118654757 0.75 forward I I I I #
loop $-1 $-1 $177 $44 #
coedge $-1 $111 $111 $178 $179 reversed $70 $-1 #
face $-1 $180 $181 $27 $-1 $182 reversed single #
loop $-1 $-1 $183 $72 #
plane-surface $-1 0 -36.072167863623186 0 0 1 0 0 0 1 forward_v I I I I #
coedge $-1 $184 $185 $186 $187 forward $73 $-1 #
coedge $-1 $188 $75 $189 $190 forward $46 $-1 #
coedge $-1 $75 $188 $191 $192 forward $46 $-1 #
coedge $-1 $193 $194 $75 $119 reversed $195 $-1 #
edge $-1 $196 -36.072167863623186 $197 36.072167863623186 $118 $198 forward 7 unknown #
face $-1 $199 $200 $28 $-1 $201 reversed single #
loop $-1 $-1 $202 $76 #
plane-surface $-1 -59.833947656071693 -19.888898377897668 0 0 1 0 0 0 1 forward_v I I I I #
coedge $-1 $203 $204 $125 $205 forward $77 $-1 #
coedge $-1 $206 $79 $207 $208 reversed $49 $-1 #
coedge $-1 $79 $206 $123 $205 reversed $49 $-1 #
coedge $-1 $209 $210 $79 $127 reversed $211 $-1 #
edge $-1 $212 -14.46827824837349 $213 14.46827824837349 $126 $214 forward 7 unknown #
face $-1 $215 $216 $29 $-1 $217 forward single #
loop $-1 $-1 $218 $80 #
plane-surface $-1 -20.412012743624537 55.914794887658267 139.29099476488528 -1 0 0 0 0.66913061440640931 0.74314481823134659 forward_v I I I I #
coedge $-1 $219 $220 $221 $222 reversed $81 $-1 #
coedge $-1 $133 $83 $223 $224 reversed $52 $-1 #
coedge $-1 $83 $132 $219 $225 reversed $52 $-1 #
coedge $-1 $221 $226 $83 $135 forward $216 $-1 #
edge $-1 $227 -8.114770419794052 $228 -2.5253136875221323 $134 $229 forward 7 unknown #
loop $-1 $-1 $141 $84 #
plane-surface $-1 -31.462909829670352 -17.541521396822553 57.709492382722075 0 0.66913061440640931 0.74314481823134659 1 0 0 forward_v I I I I #
loop $-1 $-1 $230 $54 #
coedge $-1 $139 $139 $140 $231 reversed $85 $-1 #
coedge $-1 $140 $140 $139 $231 forward $87 $-1 #
coedge $-1 $141 $141 $88 $142 forward $136 $-1 #
edge $-1 $232 1.3680964593538434e-016 $232 6.2831853071796004 $141 $233 forward 7 unknown #
loop $-1 $-1 $148 $89 #
plane-surface $-1 -31.462909829670352 -17.541521396822553 57.709492382722075 0 0.66913061440640931 0.74314481823134659 1 0 0 forward_v I I I I #
loop $-1 $-1 $234 $57 #
coedge $-1 $146 $146 $147 $235 reversed $90 $-1 #
coedge $-1 $147 $147 $146 $235 forward $92 $-1 #
coedge $-1 $148 $148 $93 $149 forward $143 $-1 #
edge $-1 $236 1.3680964593538434e-016 $236 6.2831853071796004 $148 $237 forward 7 unknown #
face $-1 $238 $239 $32 $-1 $240 forward single #
loop $-1 $-1 $241 $94 #
plane-surface $-1 -20.435043071247282 -128.14036764267999 65.43940149485519 1 0 0 0 0.83867057594974714 -0.54463902268945019 forward_v I I I I #
coedge $-1 $242 $243 $244 $245 reversed $95 $-1 #
coedge $-1 $155 $97 $246 $247 reversed $61 $-1 #
coedge $-1 $97 $154 $242 $248 reversed $61 $-1 #
coedge $-1 $244 $249 $97 $157 forward $239 $-1 #
edge $-1 $250 27.99801595771681 $251 33.724922395509331 $156 $252 forward 7 unknown #
loop $-1 $-1 $163 $98 #
plane-surface $-1 -12.210392985511277 -36.072167863623179 5.6496153900340218 0 -0.83867057594974714 0.54463902268945019 1 0 0 forward_v I I I I #
loop $-1 $-1 $253 $63 #
coedge $-1 $161 $161 $162 $254 reversed $99 $-1 #
coedge $-1 $162 $162 $161 $254 forward $101 $-1 #
coedge $-1 $163 $163 $102 $164 forward $158 $-1 #
edge $-1 $255 3.9962775262769978e-016 $255 6.2831853071796004 $163 $256 forward 7 unknown #
face $-1 $257 $258 $34 $-1 $259 reversed single #
loop $-1 $-1 $260 $103 #
plane-surface $-1 13.874897405619617 -128.14036764267999 65.43940149485519 1 0 0 0 0.83867057594974714 -0.54463902268945019 forward_v I I I I #
coedge $-1 $261 $262 $263 $264 reversed $104 $-1 #
coedge $-1 $170 $106 $265 $266 reversed $67 $-1 #
coedge $-1 $106 $169 $261 $267 reversed $67 $-1 #
coedge $-1 $263 $268 $106 $172 forward $269 $-1 #
edge $-1 $270 27.99801595771681 $271 33.724922395509331 $171 $272 forward 7 unknown #
loop $-1 $-1 $178 $107 #
plane-surface $-1 22.099547491355622 -36.072167863623179 5.6496153900340218 0 -0.83867057594974714 0.54463902268945019 1 0 0 forward_v I I I I #
loop $-1 $-1 $273 $69 #
coedge $-1 $176 $176 $177 $274 reversed $108 $-1 #
coedge $-1 $177 $177 $176 $274 forward $110 $-1 #
coedge $-1 $178 $178 $111 $179 forward $173 $-1 #
edge $-1 $275 3.9962775262769978e-016 $275 6.2831853071796004 $178 $276 forward 7 unknown #
face $-1 $277 $278 $27 $-1 $279 reversed single #
loop $-1 $-1 $280 $112 #
plane-surface $-1 -54.889370403149513 0 0 1 0 0 0 0 -1 forward_v I I I I #
coedge $-1 $281 $191 $282 $283 forward $113 $-1 #
coedge $-1 $284 $115 $281 $285 forward $73 $-1 #
coedge $-1 $115 $284 $286 $287 forward $73 $-1 #
coedge $-1 $194 $193 $115 $187 reversed $195 $-1 #
edge $-1 $288 -36.072167863623186 $289 36.072167863623186 $186 $290 forward 7 unknown #
coedge $-1 $117 $116 $291 $292 forward $46 $-1 #
coedge $-1 $293 $294 $116 $190 reversed $278 $-1 #
edge $-1 $197 -54.889370403149513 $295 54.889370403149513 $189 $296 forward 7 unknown #
coedge $-1 $183 $297 $117 $192 reversed $113 $-1 #
edge $-1 $298 -54.889370403149513 $196 54.889370403149513 $191 $299 forward 7 unknown #
coedge $-1 $186 $118 $297 $300 forward $195 $-1 #
coedge $-1 $118 $186 $293 $301 reversed $195 $-1 #
loop $-1 $-1 $193 $277 #
vertex $-1 $119 $302 #
vertex $-1 $119 $303 #
straight-curve $-1 54.889370403149513 0 14.46827824837349 0 1 0 I I #
face $-1 $304 $211 $28 $-1 $305 reversed single #
loop $-1 $-1 $306 $120 #
plane-surface $-1 -64.778524908993873 -17.095077248073956 0 1 0 0 0 0 -1 forward_v I I I I #
coedge $-1 $307 $308 $309 $310 forward $121 $-1 #
coedge $-1 $311 $123 $307 $312 forward $77 $-1 #
coedge $-1 $123 $311 $209 $313 forward $77 $-1 #
edge $-1 $212 14.301256118250244 $314 19.888898377897668 $123 $315 forward 7 unknown #
coedge $-1 $125 $124 $316 $317 forward $49 $-1 #
coedge $-1 $318 $319 $124 $208 forward $320 $-1 #
edge $-1 $321 -19.888898377897668 $213 -14.301256118250244 $207 $322 forward 7 unknown #
coedge $-1 $323 $126 $204 $313 reversed $211 $-1 #
coedge $-1 $126 $323 $318 $324 reversed $211 $-1 #
loop $-1 $-1 $126 $199 #
vertex $-1 $205 $325 #
vertex $-1 $324 $326 #
straight-curve $-1 -54.889370403149513 -14.301256118250244 0 0 0 1 I I #
face $-1 $-1 $327 $29 $-1 $328 reversed single #
loop $-1 $-1 $134 $128 #
plane-surface $-1 0 0 14.46827824837349 0 0 1 1 0 0 forward_v I I I I #
coedge $-1 $329 $330 $331 $332 reversed $129 $-1 #
coedge $-1 $333 $131 $133 $225 forward $81 $-1 #
coedge $-1 $131 $333 $329 $334 forward $81 $-1 #
coedge $-1 $331 $134 $131 $222 forward $216 $-1 #
edge $-1 $228 -26.782352000880991 $335 -4.680557828789361 $221 $336 forward 7 unknown #
coedge $-1 $337 $338 $132 $224 forward $327 $-1 #
edge $-1 $339 -60.209988690835189 $227 -55.177219134069148 $223 $340 forward 7 unknown #
edge $-1 $228 64.622979734245433 $339 72.144335727246357 $133 $341 forward 7 unknown #
coedge $-1 $134 $331 $337 $342 forward $216 $-1 #
vertex $-1 $224 $343 #
vertex $-1 $135 $344 #
straight-curve $-1 -42.513806915716167 27.957397443829134 14.468278248373494 0 -1 0 I I #
coedge $-1 $230 $230 $-1 $345 reversed $138 $-1 #
edge $-1 $346 0 $346 6.2831853071796004 $139 $347 forward 7 unknown #
vertex $-1 $142 $348 #
ellipse-curve $-1 -36.199008580832846 33.277439497487222 11.95189346999048 0 0.66913061440640931 0.74314481823134659 1 0 0 1 I I #
coedge $-1 $234 $234 $-1 $349 reversed $145 $-1 #
edge $-1 $350 0 $350 6.2831853071796004 $146 $351 forward 7 unknown #
vertex $-1 $149 $352 #
ellipse-curve $-1 -26.726811078507861 33.277439497487222 11.95189346999048 0 0.66913061440640931 0.74314481823134659 1 0 0 1 I I #
face $-1 $-1 $353 $32 $-1 $354 reversed single #
loop $-1 $-1 $156 $150 #
plane-surface $-1 0 0 14.46827824837349 0 0 1 1 0 0 forward_v I I I I #
coedge $-1 $355 $356 $357 $358 reversed $151 $-1 #
coedge $-1 $359 $153 $155 $248 forward $95 $-1 #
coedge $-1 $153 $359 $355 $360 forward $95 $-1 #
coedge $-1 $357 $156 $153 $245 forward $239 $-1 #
edge $-1 $251 -2.1194535929803671 $361 14.329846578491644 $244 $362 forward 7 unknown #
coedge $-1 $363 $364 $154 $247 forward $353 $-1 #
edge $-1 $365 -27.070085357393584 $250 -18.251422499054105 $246 $366 forward 7 unknown #
edge $-1 $251 -10.515049783823441 $365 1.2808562293387176e-014 $155 $367 forward 7 unknown #
coedge $-1 $156 $357 $363 $368 forward $239 $-1 #
vertex $-1 $157 $369 #
vertex $-1 $157 $370 #
straight-curve $-1 -3.9857428997752713 -64.070183821339995 14.46827824837349 0 1 0 I I #
coedge $-1 $253 $253 $-1 $371 reversed $160 $-1 #
edge $-1 $372 0 $372 6.2831853071796004 $161 $373 forward 7 unknown #
vertex $-1 $164 $374 #
ellipse-curve $-1 -12.210392985511277 -33.208714644726925 10.058946819203753 0 -0.83867057594974714 0.54463902268945019 1.5 0 0 1 I I #
face $-1 $-1 $269 $34 $-1 $375 forward single #
loop $-1 $-1 $376 $165 #
plane-surface $-1 0 -36.072167863623186 0 0 1 0 0 0 1 forward_v I I I I #
coedge $-1 $377 $378 $379 $380 reversed $166 $-1 #
coedge $-1 $381 $168 $170 $267 forward $104 $-1 #
coedge $-1 $168 $381 $377 $382 forward $104 $-1 #
coedge $-1 $379 $171 $168 $264 forward $269 $-1 #
edge $-1 $271 -19.274423831413817 $383 -2.8251236599418057 $263 $384 forward 7 unknown #
coedge $-1 $385 $386 $169 $266 forward $258 $-1 #
edge $-1 $387 -27.070085357393584 $270 -18.251422499054105 $265 $388 forward 7 unknown #
edge $-1 $271 -10.515049783823441 $387 1.2808562293387176e-014 $170 $389 forward 7 unknown #
coedge $-1 $171 $379 $385 $390 forward $269 $-1 #
loop $-1 $-1 $379 $257 #
vertex $-1 $266 $391 #
vertex $-1 $172 $392 #
straight-curve $-1 30.324197577091628 -64.070183821339995 14.46827824837349 0 1 0 I I #
coedge $-1 $273 $273 $-1 $393 reversed $175 $-1 #
edge $-1 $394 0 $394 6.2831853071796004 $176 $395 forward 7 unknown #
vertex $-1 $179 $396 #
ellipse-curve $-1 22.099547491355622 -33.208714644726925 10.058946819203753 0 -0.83867057594974714 0.54463902268945019 1.5 0 0 1 I I #
face $-1 $-1 $195 $27 $-1 $397 reversed single #
loop $-1 $-1 $293 $180 #
plane-surface $-1 0 36.072167863623186 0 0 -1 0 0 0 -1 forward_v I I I I #
coedge $-1 $398 $291 $294 $399 forward $181 $-1 #
coedge $-1 $297 $183 $184 $285 reversed $113 $-1 #
coedge $-1 $291 $398 $183 $283 reversed $181 $-1 #
edge $-1 $298 -14.46827824837349 $400 14.46827824837349 $282 $401 forward 7 unknown #
coedge $-1 $185 $184 $398 $402 forward $73 $-1 #
edge $-1 $289 -54.889370403149513 $400 54.889370403149513 $281 $403 forward 7 unknown #
coedge $-1 $294 $293 $185 $287 reversed $278 $-1 #
edge $-1 $404 -54.889370403149513 $288 54.889370403149513 $286 $405 forward 7 unknown #
vertex $-1 $187 $406 #
vertex $-1 $300 $407 #
straight-curve $-1 54.889370403149513 0 -14.46827824837349 0 -1 0 I I #
coedge $-1 $280 $282 $188 $292 reversed $181 $-1 #
edge $-1 $295 -36.072167863623186 $298 36.072167863623186 $291 $408 forward 7 unknown #
coedge $-1 $286 $189 $194 $301 forward $278 $-1 #
coedge $-1 $189 $286 $280 $399 reversed $278 $-1 #
vertex $-1 $190 $409 #
straight-curve $-1 0 36.072167863623186 14.46827824837349 -1 0 0 I I #
coedge $-1 $191 $281 $193 $300 reversed $113 $-1 #
vertex $-1 $292 $410 #
straight-curve $-1 0 -36.072167863623186 14.46827824837349 1 0 0 I I #
edge $-1 $196 -14.46827824837349 $289 14.46827824837349 $193 $411 forward 7 unknown #
edge $-1 $197 -14.46827824837349 $288 14.46827824837349 $194 $412 forward 7 unknown #
point $-1 54.889370403149513 -36.072167863623186 14.46827824837349 #
point $-1 54.889370403149513 36.072167863623186 14.46827824837349 #
face $-1 $-1 $320 $28 $-1 $413 forward single #
plane-surface $-1 -59.833947656071693 -14.301256118250244 0 0 -1 0 0 0 -1 forward_v I I I I #
coedge $-1 $414 $415 $323 $416 forward $200 $-1 #
coedge $-1 $316 $202 $203 $312 reversed $121 $-1 #
coedge $-1 $202 $316 $319 $417 reversed $121 $-1 #
coedge $-1 $415 $414 $202 $310 reversed $200 $-1 #
edge $-1 $418 -14.46827824837349 $419 14.46827824837349 $309 $420 forward 7 unknown #
coedge $-1 $204 $203 $414 $421 forward $77 $-1 #
edge $-1 $314 -4.9445772529221799 $419 4.9445772529221799 $307 $422 forward 7 unknown #
edge $-1 $423 -4.9445772529221799 $212 4.9445772529221799 $209 $424 forward 7 unknown #
vertex $-1 $312 $425 #
straight-curve $-1 -54.889370403149513 0 -14.46827824837349 0 -1 0 I I #
coedge $-1 $308 $307 $206 $317 reversed $121 $-1 #
edge $-1 $321 -14.46827824837349 $314 14.46827824837349 $316 $426 forward 7 unknown #
coedge $-1 $427 $207 $210 $324 forward $320 $-1 #
coedge $-1 $207 $427 $308 $417 forward $320 $-1 #
loop $-1 $-1 $207 $304 #
vertex $-1 $208 $428 #
straight-curve $-1 -54.889370403149513 0 14.46827824837349 0 1 0 I I #
coedge $-1 $210 $209 $306 $416 reversed $211 $-1 #
edge $-1 $213 -4.9445772529221799 $429 4.9445772529221799 $210 $430 forward 7 unknown #
point $-1 -54.889370403149513 -14.301256118250244 -14.46827824837349 #
point $-1 -54.889370403149513 -14.301256118250244 14.46827824837349 #
loop $-1 $-1 $223 $215 #
plane-surface $-1 0 36.072167863623186 0 0 -1 0 0 0 -1 forward_v I I I I #
coedge $-1 $330 $218 $220 $334 reversed $129 $-1 #
coedge $-1 $218 $329 $431 $432 reversed $129 $-1 #
coedge $-1 $226 $221 $218 $332 forward $216 $-1 #
edge $-1 $335 2.5253136875221323 $433 8.114770419794052 $331 $434 forward 7 unknown #
coedge $-1 $220 $219 $338 $435 reversed $81 $-1 #
edge $-1 $436 -72.144335727246357 $335 -64.622979734245433 $329 $437 forward 7 unknown #
vertex $-1 $222 $438 #
straight-curve $-1 -15.731454914835176 30.482711131351266 14.468278248373487 1 0 0 I I #
coedge $-1 $431 $223 $226 $342 reversed $327 $-1 #
coedge $-1 $223 $431 $333 $435 forward $327 $-1 #
vertex $-1 $224 $439 #
straight-curve $-1 -42.513806915716167 36.072167863623186 69.645497382442642 0 0 1 I I #
straight-curve $-1 -42.513806915716167 -17.541521396822553 57.709492382722075 0 0.74314481823134659 -0.66913061440640931 I I #
edge $-1 $433 20.412012743624537 $227 42.513806915716167 $337 $440 forward 7 unknown #
point $-1 -42.513806915716167 36.072167863623186 14.46827824837349 #
point $-1 -42.513806915716167 30.482711131351266 14.468278248373494 #
edge $-1 $441 1 $441 0 $230 $-1 forward 7 unknown #
vertex $-1 $231 $442 #
ellipse-curve $-1 -36.199008580832846 32.378819157298786 10.953874495831387 0 0.66913061440640931 0.74314481823134659 1 0 0 1 I I #
point $-1 -35.199008580832846 33.277439497487208 11.951893469990464 #
edge $-1 $443 1 $443 0 $234 $-1 forward 7 unknown #
vertex $-1 $235 $444 #
ellipse-curve $-1 -26.726811078507861 32.378819157298786 10.953874495831387 0 0.66913061440640931 0.74314481823134659 1 0 0 1 I I #
point $-1 -25.726811078507861 33.277439497487208 11.951893469990464 #
loop $-1 $-1 $246 $238 #
plane-surface $-1 0 -36.072167863623186 0 0 1 0 0 0 1 forward_v I I I I #
coedge $-1 $356 $241 $243 $360 reversed $151 $-1 #
coedge $-1 $241 $355 $445 $446 reversed $151 $-1 #
coedge $-1 $249 $244 $241 $358 forward $239 $-1 #
edge $-1 $361 -33.724922395509331 $447 -27.99801595771681 $357 $448 forward 7 unknown #
coedge $-1 $243 $242 $364 $449 reversed $95 $-1 #
edge $-1 $450 -1.2808562293387176e-014 $361 10.515049783823441 $355 $451 forward 7 unknown #
vertex $-1 $245 $452 #
straight-curve $-1 -6.1051964927556384 -30.345261425830664 14.46827824837349 -1 0 0 I I #
coedge $-1 $445 $246 $249 $368 reversed $353 $-1 #
coedge $-1 $246 $445 $359 $449 forward $353 $-1 #
vertex $-1 $247 $453 #
straight-curve $-1 -3.9857428997752713 -36.072167863623186 32.719700747427595 0 0 1 I I #
straight-curve $-1 -3.9857428997752713 -36.072167863623179 5.6496153900340218 0 -0.54463902268945019 -0.83867057594974714 I I #
edge $-1 $447 -20.435043071247282 $250 -3.9857428997752713 $363 $454 forward 7 unknown #
point $-1 -3.9857428997752713 -36.072167863623186 14.46827824837349 #
point $-1 -3.9857428997752713 -30.345261425830664 14.46827824837349 #
edge $-1 $455 1 $455 0 $253 $-1 forward 7 unknown #
vertex $-1 $254 $456 #
ellipse-curve $-1 -12.210392985511277 -30.204043636625222 8.1076907142633399 0 -0.83867057594974714 0.54463902268945019 1.5 0 0 1 I I #
point $-1 -10.710392985511277 -33.208714644726932 10.058946819203758 #
plane-surface $-1 0 0 14.46827824837349 0 0 1 1 0 0 forward_v I I I I #
coedge $-1 $386 $385 $378 $457 forward $258 $-1 #
coedge $-1 $378 $260 $262 $382 reversed $166 $-1 #
coedge $-1 $260 $377 $376 $457 reversed $166 $-1 #
coedge $-1 $268 $263 $260 $380 forward $269 $-1 #
edge $-1 $383 -33.724922395509331 $458 -27.99801595771681 $379 $459 forward 7 unknown #
coedge $-1 $262 $261 $386 $460 reversed $104 $-1 #
edge $-1 $461 -1.2808562293387176e-014 $383 10.515049783823441 $377 $462 forward 7 unknown #
vertex $-1 $264 $463 #
straight-curve $-1 11.049773745677811 -30.345261425830664 14.46827824837349 -1 0 0 I I #
coedge $-1 $376 $265 $268 $390 reversed $258 $-1 #
coedge $-1 $265 $376 $381 $460 forward $258 $-1 #
vertex $-1 $266 $464 #
straight-curve $-1 30.324197577091628 -36.072167863623186 32.719700747427595 0 0 1 I I #
straight-curve $-1 30.324197577091628 -36.072167863623179 5.6496153900340218 0 -0.54463902268945019 -0.83867057594974714 I I #
edge $-1 $458 13.874897405619617 $270 30.324197577091628 $385 $465 forward 7 unknown #
point $-1 30.324197577091628 -36.072167863623186 14.46827824837349 #
point $-1 30.324197577091628 -30.345261425830664 14.46827824837349 #
edge $-1 $466 1 $466 0 $273 $-1 forward 7 unknown #
vertex $-1 $274 $467 #
ellipse-curve $-1 22.099547491355622 -30.204043636625222 8.1076907142633399 0 -0.83867057594974714 0.54463902268945019 1.5 0 0 1 I I #
point $-1 23.599547491355622 -33.208714644726932 10.058946819203758 #
plane-surface $-1 54.889370403149513 0 0 -1 0 0 0 0 1 forward_v I I I I #
coedge $-1 $282 $280 $284 $402 reversed $181 $-1 #
edge $-1 $295 -14.46827824837349 $404 14.46827824837349 $294 $468 forward 7 unknown #
vertex $-1 $402 $469 #
straight-curve $-1 -54.889370403149513 -36.072167863623186 0 0 0 -1 I I #
edge $-1 $400 -36.072167863623186 $404 36.072167863623186 $398 $470 forward 7 unknown #
straight-curve $-1 0 -36.072167863623186 -14.46827824837349 -1 0 0 I I #
vertex $-1 $287 $471 #
straight-curve $-1 0 36.072167863623186 -14.46827824837349 1 0 0 I I #
point $-1 54.889370403149513 36.072167863623186 -14.46827824837349 #
point $-1 54.889370403149513 -36.072167863623186 -14.46827824837349 #
straight-curve $-1 -54.889370403149513 0 14.46827824837349 0 -1 0 I I #
point $-1 -54.889370403149513 36.072167863623186 14.46827824837349 #
point $-1 -54.889370403149513 -36.072167863623186 14.46827824837349 #
straight-curve $-1 54.889370403149513 -36.072167863623186 0 0 0 -1 I I #
straight-curve $-1 54.889370403149513 36.072167863623186 0 0 0 -1 I I #
plane-surface $-1 0 0 14.46827824837349 0 0 1 1 0 0 forward_v I I I I #
coedge $-1 $309 $306 $311 $421 reversed $200 $-1 #
coedge $-1 $306 $309 $427 $472 reversed $200 $-1 #
edge $-1 $429 -14.46827824837349 $423 14.46827824837349 $323 $473 forward 7 unknown #
edge $-1 $418 -4.9445772529221799 $321 4.9445772529221799 $308 $474 forward 7 unknown #
vertex $-1 $472 $475 #
vertex $-1 $421 $476 #
straight-curve $-1 -64.778524908993873 -19.888898377897668 0 0 0 -1 I I #
edge $-1 $419 -2.7938211298237121 $423 2.7938211298237121 $414 $477 forward 7 unknown #
straight-curve $-1 -59.833947656071693 -19.888898377897668 -14.46827824837349 -1 0 0 I I #
vertex $-1 $313 $478 #
straight-curve $-1 -59.833947656071693 -14.301256118250244 -14.46827824837349 1 0 0 I I #
point $-1 -54.889370403149513 -19.888898377897668 -14.46827824837349 #
straight-curve $-1 -54.889370403149513 -19.888898377897668 0 0 0 -1 I I #
coedge $-1 $319 $318 $415 $472 forward $320 $-1 #
point $-1 -54.889370403149513 -19.888898377897668 14.46827824837349 #
vertex $-1 $324 $479 #
straight-curve $-1 -59.833947656071693 -14.301256118250244 14.46827824837349 -1 0 0 I I #
coedge $-1 $338 $337 $330 $432 forward $327 $-1 #
edge $-1 $433 55.177219134069148 $436 60.209988690835189 $431 $480 forward 7 unknown #
vertex $-1 $342 $481 #
straight-curve $-1 -20.412012743624537 27.957397443829134 14.468278248373494 0 1 0 I I #
edge $-1 $436 4.680557828789361 $339 26.782352000880991 $338 $482 forward 7 unknown #
vertex $-1 $435 $483 #
straight-curve $-1 -20.412012743624537 -17.541521396822553 57.709492382722075 0 -0.74314481823134659 0.66913061440640931 I I #
point $-1 -20.412012743624537 30.482711131351266 14.468278248373494 #
point $-1 -42.513806915716167 36.072167863623186 9.4355086916074526 #
straight-curve $-1 0 36.072167863623186 14.46827824837349 -1 0 0 I I #
vertex $-1 $345 $484 #
point $-1 -35.199008580832846 32.378819157298786 10.953874495831387 #
vertex $-1 $349 $485 #
point $-1 -25.726811078507861 32.378819157298786 10.953874495831387 #
coedge $-1 $364 $363 $356 $446 forward $353 $-1 #
edge $-1 $447 18.251422499054105 $450 27.070085357393584 $445 $486 forward 7 unknown #
vertex $-1 $368 $487 #
straight-curve $-1 -20.435043071247282 -64.070183821339995 14.46827824837349 0 -1 0 I I #
edge $-1 $450 -14.329846578491644 $365 2.1194535929803671 $364 $488 forward 7 unknown #
vertex $-1 $449 $489 #
straight-curve $-1 -20.435043071247282 -36.072167863623179 5.6496153900340218 0 0.54463902268945019 0.83867057594974714 I I #
point $-1 -20.435043071247282 -30.345261425830664 14.46827824837349 #
point $-1 -3.9857428997752713 -36.072167863623186 5.6496153900340111 #
straight-curve $-1 0 -36.072167863623186 14.46827824837349 1 0 0 I I #
vertex $-1 $371 $490 #
point $-1 -10.710392985511277 -30.204043636625222 8.1076907142633399 #
edge $-1 $458 18.251422499054105 $461 27.070085357393584 $376 $491 forward 7 unknown #
vertex $-1 $390 $492 #
straight-curve $-1 13.874897405619617 -64.070183821339995 14.46827824837349 0 -1 0 I I #
edge $-1 $461 2.8251236599418057 $387 19.274423831413817 $386 $493 forward 7 unknown #
vertex $-1 $460 $494 #
straight-curve $-1 13.874897405619617 -36.072167863623179 5.6496153900340218 0 0.54463902268945019 0.83867057594974714 I I #
point $-1 13.874897405619617 -30.345261425830664 14.46827824837349 #
point $-1 30.324197577091628 -36.072167863623186 5.6496153900340111 #
straight-curve $-1 0 -36.072167863623186 14.46827824837349 1 0 0 I I #
vertex $-1 $393 $495 #
point $-1 23.599547491355622 -30.204043636625222 8.1076907142633399 #
straight-curve $-1 -54.889370403149513 36.072167863623186 0 0 0 -1 I I #
point $-1 -54.889370403149513 -36.072167863623186 -14.46827824837349 #
straight-curve $-1 -54.889370403149513 0 -14.46827824837349 0 1 0 I I #
point $-1 -54.889370403149513 36.072167863623186 -14.46827824837349 #
edge $-1 $429 -2.7938211298237121 $418 2.7938211298237121 $415 $496 forward 7 unknown #
straight-curve $-1 -64.778524908993873 -14.301256118250244 0 0 0 -1 I I #
straight-curve $-1 -59.833947656071693 -19.888898377897668 14.46827824837349 1 0 0 I I #
point $-1 -64.778524908993873 -19.888898377897668 14.46827824837349 #
point $-1 -64.778524908993873 -19.888898377897668 -14.46827824837349 #
straight-curve $-1 -64.778524908993873 -17.095077248073956 -14.46827824837349 0 1 0 I I #
point $-1 -64.778524908993873 -14.301256118250244 -14.46827824837349 #
point $-1 -64.778524908993873 -14.301256118250244 14.46827824837349 #
straight-curve $-1 -20.412012743624537 36.072167863623186 69.645497382442642 0 0 -1 I I #
point $-1 -20.412012743624537 36.072167863623186 14.46827824837349 #
straight-curve $-1 -15.731454914835176 36.072167863623179 9.4355086916074598 -1 0 0 I I #
point $-1 -20.412012743624537 36.072167863623186 9.4355086916074526 #
point $-1 -36.199008580832846 31.709688542892373 10.210729677600041 #
point $-1 -26.726811078507861 31.709688542892373 10.210729677600041 #
straight-curve $-1 -20.435043071247282 -36.072167863623186 32.719700747427595 0 0 -1 I I #
point $-1 -20.435043071247282 -36.072167863623186 14.46827824837349 #
straight-curve $-1 -6.1051964927556384 -36.072167863623186 5.6496153900340023 1 0 0 I I #
point $-1 -20.435043071247282 -36.072167863623186 5.6496153900340111 #
point $-1 -12.210392985511277 -28.946037772700599 7.2907321802291651 #
straight-curve $-1 13.874897405619617 -36.072167863623186 32.719700747427595 0 0 -1 I I #
point $-1 13.874897405619617 -36.072167863623186 14.46827824837349 #
straight-curve $-1 11.049773745677811 -36.072167863623186 5.6496153900340023 1 0 0 I I #
point $-1 13.874897405619617 -36.072167863623186 5.6496153900340111 #
point $-1 22.099547491355622 -28.946037772700599 7.2907321802291651 #
straight-curve $-1 -64.778524908993873 -17.095077248073956 14.46827824837349 0 -1 0 I I #
End-of-ACIS-data 