500 0 15 0           
7 Unknown 11 ACIS 5.0 NT 24 Fri Mar 26 14:32:51 1999 
-1 9.9999999999999995e-007 1e-010 
body $-1 $15 $-1 $16 #
body $-1 $17 $-1 $18 #
body $-1 $19 $-1 $20 #
body $-1 $21 $-1 $22 #
body $-1 $23 $-1 $24 #
body $-1 $25 $-1 $26 #
body $-1 $27 $-1 $28 #
body $-1 $29 $-1 $30 #
body $-1 $31 $-1 $32 #
body $-1 $33 $-1 $34 #
body $-1 $35 $-1 $36 #
body $-1 $37 $-1 $38 #
body $-1 $39 $-1 $40 #
body $-1 $41 $-1 $42 #
body $-1 $43 $-1 $44 #
lump $-1 $-1 $45 $0 #
transform $-1 1 0 0 0 1 0 0 0 1 50.61922055726798 21.145384962487515 9.3290209245035634 1 rotate no_reflect no_shear #
lump $-1 $-1 $46 $1 #
transform $-1 1 0 0 0 1 0 0 0 1 50.61922055726798 21.145384962487515 9.3290209245035634 1 rotate no_reflect no_shear #
lump $-1 $-1 $47 $2 #
transform $-1 1 0 0 0 1 0 0 0 1 50.61922055726798 21.145384962487515 9.3290209245035634 1 rotate no_reflect no_shear #
lump $-1 $-1 $48 $3 #
transform $-1 1 0 0 0 1 0 0 0 1 50.61922055726798 21.145384962487515 9.3290209245035634 1 rotate no_reflect no_shear #
lump $-1 $-1 $49 $4 #
transform $-1 1 0 0 0 1 0 0 0 1 50.61922055726798 21.145384962487515 9.3290209245035634 1 rotate no_reflect no_shear #
lump $-1 $-1 $50 $5 #
transform $-1 1 0 0 0 1 0 0 0 1 50.61922055726798 21.145384962487515 9.3290209245035634 1 rotate no_reflect no_shear #
lump $-1 $-1 $51 $6 #
transform $-1 1 0 0 0 1 0 0 0 1 50.61922055726798 21.145384962487515 9.3290209245035634 1 rotate no_reflect no_shear #
lump $-1 $-1 $52 $7 #
transform $-1 1 0 0 0 1 0 0 0 1 50.61922055726798 21.145384962487515 9.3290209245035634 1 rotate no_reflect no_shear #
lump $-1 $-1 $53 $8 #
transform $-1 1 0 0 0 1 0 0 0 1 50.61922055726798 21.145384962487515 9.3290209245035634 1 rotate no_reflect no_shear #
lump $-1 $-1 $54 $9 #
transform $-1 1 0 0 0 1 0 0 0 1 50.61922055726798 21.145384962487515 9.3290209245035634 1 rotate no_reflect no_shear #
lump $-1 $-1 $55 $10 #
transform $-1 1 0 0 0 1 0 0 0 1 50.61922055726798 21.145384962487515 9.3290209245035634 1 rotate no_reflect no_shear #
lump $-1 $-1 $56 $11 #
transform $-1 1 0 0 0 1 0 0 0 1 50.61922055726798 21.145384962487515 9.3290209245035634 1 rotate no_reflect no_shear #
lump $-1 $-1 $57 $12 #
transform $-1 1 0 0 0 1 0 0 0 1 50.61922055726798 21.145384962487515 9.3290209245035634 1 rotate no_reflect no_shear #
lump $-1 $-1 $58 $13 #
transform $-1 1 0 0 0 1 0 0 0 1 50.61922055726798 21.145384962487515 9.3290209245035634 1 rotate no_reflect no_shear #
lump $-1 $-1 $59 $14 #
transform $-1 1 0 0 0 1 0 0 0 1 50.61922055726798 21.145384962487515 9.3290209245035634 1 rotate no_reflect no_shear #
shell $-1 $-1 $-1 $60 $-1 $15 #
shell $-1 $-1 $-1 $61 $-1 $17 #
shell $-1 $-1 $-1 $62 $-1 $19 #
shell $-1 $-1 $-1 $63 $-1 $21 #
shell $-1 $-1 $-1 $64 $-1 $23 #
shell $-1 $-1 $-1 $65 $-1 $25 #
shell $-1 $-1 $-1 $66 $-1 $27 #
shell $-1 $-1 $-1 $67 $-1 $29 #
shell $-1 $-1 $-1 $68 $-1 $31 #
shell $-1 $-1 $-1 $69 $-1 $33 #
shell $-1 $-1 $-1 $70 $-1 $35 #
shell $-1 $-1 $-1 $71 $-1 $37 #
shell $-1 $-1 $-1 $72 $-1 $39 #
shell $-1 $-1 $-1 $73 $-1 $41 #
shell $-1 $-1 $-1 $74 $-1 $43 #
face $-1 $75 $76 $45 $-1 $77 forward single #
face $-1 $78 $79 $46 $-1 $80 forward single #
face $-1 $81 $82 $47 $-1 $83 forward single #
face $-1 $84 $85 $48 $-1 $86 reversed single #
face $-1 $87 $88 $49 $-1 $89 forward single #
face $-1 $90 $91 $50 $-1 $92 forward single #
face $-1 $93 $94 $51 $-1 $95 reversed single #
face $-1 $96 $97 $52 $-1 $98 forward single #
face $-1 $99 $100 $53 $-1 $101 forward single #
face $-1 $102 $103 $54 $-1 $104 reversed single #
face $-1 $105 $106 $55 $-1 $107 forward single #
face $-1 $108 $109 $56 $-1 $110 forward single #
face $-1 $111 $112 $57 $-1 $113 reversed single #
face $-1 $114 $115 $58 $-1 $116 forward single #
face $-1 $117 $118 $59 $-1 $119 forward single #
face $-1 $120 $121 $45 $-1 $122 reversed single #
loop $-1 $-1 $123 $60 #
plane-surface $-1 0 0 9.3290209245035634 0 0 1 1 0 0 forward_v I I I I #
face $-1 $124 $125 $46 $-1 $126 reversed single #
loop $-1 $-1 $127 $61 #
plane-surface $-1 -50.61922055726798 0 0 1 0 0 0 0 -1 forward_v I I I I #
face $-1 $128 $129 $47 $-1 $130 forward single #
loop $-1 $-1 $131 $62 #
plane-surface $-1 50.61922055726798 0 0 -1 0 0 0 0 1 forward_v I I I I #
face $-1 $132 $133 $48 $-1 $134 reversed single #
loop $-1 $-1 $135 $63 #
plane-surface $-1 -10.031588151752755 -88.887125267004052 81.394256138309146 -1 0 0 0 -0.66913061440640931 0.74314481823134659 forward_v I I I I #
face $-1 $136 $137 $49 $-1 $138 forward single #
loop $-1 $139 $140 $64 #
cone-surface $-1 -21.557519987187362 -18.317383769926511 6.5581936148546696 0 0.66913061440640931 -0.74314481823134659 1 0 0 1 I I 0 1 1 forward I I I I #
face $-1 $141 $142 $50 $-1 $143 forward single #
loop $-1 $144 $145 $65 #
cone-surface $-1 -14.641960885926601 -18.317383769926511 6.5581936148546696 0 0.66913061440640931 -0.74314481823134659 1 0 0 1 I I 0 1 1 forward I I I I #
face $-1 $146 $147 $51 $-1 $148 reversed single #
loop $-1 $-1 $149 $66 #
plane-surface $-1 33.454113008085706 -88.887125267004052 81.394256138309146 -1 0 0 0 -0.66913061440640931 0.74314481823134659 forward_v I I I I #
face $-1 $150 $151 $52 $-1 $152 forward single #
loop $-1 $153 $154 $67 #
cone-surface $-1 21.928181172651094 -18.317383769926511 6.5581936148546696 0 0.66913061440640931 -0.74314481823134659 1 0 0 1 I I 0 1 1 forward I I I I #
face $-1 $155 $156 $53 $-1 $157 forward single #
loop $-1 $158 $159 $68 #
cone-surface $-1 28.843740273911848 -18.317383769926511 6.5581936148546696 0 0.66913061440640931 -0.74314481823134659 1 0 0 1 I I 0 1 1 forward I I I I #
face $-1 $160 $161 $54 $-1 $162 reversed single #
loop $-1 $-1 $163 $69 #
plane-surface $-1 -26.167892721361198 57.458958738244789 109.69230500192778 1 0 0 0 -0.66913061440640931 -0.74314481823134659 forward_v I I I I #
face $-1 $164 $165 $55 $-1 $166 forward single #
loop $-1 $167 $168 $70 #
cone-surface $-1 -21.557519987187362 18.317383769926511 6.558193614854666 0 -0.66913061440640931 -0.74314481823134659 1 0 0 1 I I 0 1 1 forward I I I I #
face $-1 $169 $170 $56 $-1 $171 forward single #
loop $-1 $172 $173 $71 #
cone-surface $-1 -14.641960885926601 18.317383769926511 6.558193614854666 0 -0.66913061440640931 -0.74314481823134659 1 0 0 1 I I 0 1 1 forward I I I I #
face $-1 $174 $175 $57 $-1 $176 reversed single #
loop $-1 $-1 $177 $72 #
plane-surface $-1 17.317808438477265 57.458958738244789 109.69230500192778 1 0 0 0 -0.66913061440640931 -0.74314481823134659 forward_v I I I I #
face $-1 $178 $179 $58 $-1 $180 forward single #
loop $-1 $181 $182 $73 #
cone-surface $-1 21.928181172651094 18.317383769926511 6.558193614854666 0 -0.66913061440640931 -0.74314481823134659 1 0 0 1 I I 0 1 1 forward I I I I #
face $-1 $183 $184 $59 $-1 $185 forward single #
loop $-1 $186 $187 $74 #
cone-surface $-1 28.843740273911848 18.317383769926511 6.558193614854666 0 -0.66913061440640931 -0.74314481823134659 1 0 0 1 I I 0 1 1 forward I I I I #
face $-1 $188 $189 $45 $-1 $190 reversed single #
loop $-1 $-1 $191 $75 #
plane-surface $-1 0 0 -9.3290209245035634 0 0 1 1 0 0 forward_v I I I I #
coedge $-1 $192 $193 $194 $195 forward $76 $-1 #
face $-1 $196 $197 $46 $-1 $198 reversed single #
loop $-1 $-1 $199 $78 #
plane-surface $-1 0 21.145384962487515 0 0 -1 0 0 0 -1 forward_v I I I I #
coedge $-1 $200 $201 $202 $203 forward $79 $-1 #
face $-1 $204 $205 $47 $-1 $206 reversed single #
loop $-1 $-1 $207 $81 #
plane-surface $-1 0 0 9.3290209245035634 0 0 1 1 0 0 forward_v I I I I #
coedge $-1 $208 $209 $210 $211 forward $82 $-1 #
face $-1 $212 $213 $48 $-1 $214 reversed single #
loop $-1 $-1 $215 $84 #
plane-surface $-1 -18.099740436556978 -21.145384962487512 6.1594332182224321 0 -0.66913061440640931 0.74314481823134659 1 0 0 forward_v I I I I #
coedge $-1 $216 $217 $218 $219 reversed $85 $-1 #
face $-1 $-1 $220 $49 $-1 $221 forward single #
loop $-1 $222 $223 $87 #
cone-surface $-1 -21.557519987187362 -16.91490911855438 5.0005877492306716 0 0.66913061440640931 -0.74314481823134659 0.5 0 0 1 I I -0.70710678118654746 0.70710678118654746 0.5 forward I I I I #
loop $-1 $-1 $224 $64 #
coedge $-1 $140 $140 $225 $226 reversed $88 $-1 #
face $-1 $-1 $227 $50 $-1 $228 forward single #
loop $-1 $229 $230 $90 #
cone-surface $-1 -14.641960885926601 -16.91490911855438 5.0005877492306716 0 0.66913061440640931 -0.74314481823134659 0.5 0 0 1 I I -0.70710678118654746 0.70710678118654746 0.5 forward I I I I #
loop $-1 $-1 $231 $65 #
coedge $-1 $145 $145 $232 $233 reversed $91 $-1 #
face $-1 $234 $235 $51 $-1 $236 reversed single #
loop $-1 $-1 $237 $93 #
plane-surface $-1 25.385960723281485 -21.145384962487512 6.1594332182224321 0 -0.66913061440640931 0.74314481823134659 1 0 0 forward_v I I I I #
coedge $-1 $238 $239 $240 $241 reversed $94 $-1 #
face $-1 $-1 $242 $52 $-1 $243 forward single #
loop $-1 $244 $245 $96 #
cone-surface $-1 21.928181172651094 -16.91490911855438 5.0005877492306716 0 0.66913061440640931 -0.74314481823134659 0.5 0 0 1 I I -0.70710678118654746 0.70710678118654746 0.5 forward I I I I #
loop $-1 $-1 $246 $67 #
coedge $-1 $154 $154 $247 $248 reversed $97 $-1 #
face $-1 $-1 $249 $53 $-1 $250 forward single #
loop $-1 $251 $252 $99 #
cone-surface $-1 28.843740273911848 -16.91490911855438 5.0005877492306716 0 0.66913061440640931 -0.74314481823134659 0.5 0 0 1 I I -0.70710678118654746 0.70710678118654746 0.5 forward I I I I #
loop $-1 $-1 $253 $68 #
coedge $-1 $159 $159 $254 $255 reversed $100 $-1 #
face $-1 $256 $257 $54 $-1 $258 reversed single #
loop $-1 $-1 $259 $102 #
plane-surface $-1 -18.099740436556978 -10.282781566271751 34.457482081841064 0 0.66913061440640931 0.74314481823134659 1 0 0 forward_v I I I I #
coedge $-1 $260 $261 $262 $263 reversed $103 $-1 #
face $-1 $-1 $264 $55 $-1 $265 forward single #
loop $-1 $266 $267 $105 #
cone-surface $-1 -21.557519987187362 16.91490911855438 5.0005877492306681 0 -0.66913061440640931 -0.74314481823134659 0.5 0 0 1 I I -0.70710678118654746 0.70710678118654746 0.5 forward I I I I #
loop $-1 $-1 $268 $70 #
coedge $-1 $168 $168 $269 $270 reversed $106 $-1 #
face $-1 $-1 $271 $56 $-1 $272 forward single #
loop $-1 $273 $274 $108 #
cone-surface $-1 -14.641960885926601 16.91490911855438 5.0005877492306681 0 -0.66913061440640931 -0.74314481823134659 0.5 0 0 1 I I -0.70710678118654746 0.70710678118654746 0.5 forward I I I I #
loop $-1 $-1 $275 $71 #
coedge $-1 $173 $173 $276 $277 reversed $109 $-1 #
face $-1 $278 $279 $57 $-1 $280 reversed single #
loop $-1 $-1 $281 $111 #
plane-surface $-1 25.385960723281485 -10.282781566271751 34.457482081841064 0 0.66913061440640931 0.74314481823134659 1 0 0 forward_v I I I I #
coedge $-1 $282 $283 $284 $285 reversed $112 $-1 #
face $-1 $-1 $286 $58 $-1 $287 forward single #
loop $-1 $288 $289 $114 #
cone-surface $-1 21.928181172651094 16.91490911855438 5.0005877492306681 0 -0.66913061440640931 -0.74314481823134659 0.5 0 0 1 I I -0.70710678118654746 0.70710678118654746 0.5 forward I I I I #
loop $-1 $-1 $290 $73 #
coedge $-1 $182 $182 $291 $292 reversed $115 $-1 #
face $-1 $-1 $293 $59 $-1 $294 forward single #
loop $-1 $295 $296 $117 #
cone-surface $-1 28.843740273911848 16.91490911855438 5.0005877492306681 0 -0.66913061440640931 -0.74314481823134659 0.5 0 0 1 I I -0.70710678118654746 0.70710678118654746 0.5 forward I I I I #
loop $-1 $-1 $297 $74 #
coedge $-1 $187 $187 $298 $299 reversed $118 $-1 #
face $-1 $300 $301 $45 $-1 $302 reversed single #
loop $-1 $-1 $303 $120 #
plane-surface $-1 0 -21.145384962487515 0 0 1 0 0 0 1 forward_v I I I I #
coedge $-1 $304 $305 $306 $307 forward $121 $-1 #
coedge $-1 $308 $123 $309 $310 forward $76 $-1 #
coedge $-1 $123 $308 $311 $312 forward $76 $-1 #
coedge $-1 $313 $314 $123 $195 reversed $315 $-1 #
edge $-1 $316 -21.145384962487515 $317 21.145384962487515 $194 $318 forward 7 unknown #
face $-1 $319 $320 $46 $-1 $321 reversed single #
loop $-1 $-1 $202 $124 #
plane-surface $-1 -54.185980255982741 0 6.1471833425440643 0 0 1 1 0 0 forward_v I I I I #
coedge $-1 $322 $323 $200 $324 forward $125 $-1 #
coedge $-1 $325 $127 $199 $324 reversed $79 $-1 #
coedge $-1 $127 $325 $326 $327 reversed $79 $-1 #
coedge $-1 $328 $329 $127 $203 reversed $197 $-1 #
edge $-1 $330 -21.145384962487515 $331 21.145384962487515 $202 $332 forward 7 unknown #
face $-1 $333 $334 $47 $-1 $335 reversed single #
loop $-1 $-1 $336 $128 #
plane-surface $-1 0 -21.145384962487515 0 0 1 0 0 0 1 forward_v I I I I #
coedge $-1 $337 $338 $339 $340 forward $129 $-1 #
coedge $-1 $339 $131 $336 $341 reversed $82 $-1 #
coedge $-1 $131 $339 $342 $343 reversed $82 $-1 #
coedge $-1 $344 $345 $131 $211 reversed $334 $-1 #
edge $-1 $346 -21.145384962487515 $347 21.145384962487515 $210 $348 forward 7 unknown #
face $-1 $349 $350 $48 $-1 $351 reversed single #
loop $-1 $-1 $352 $132 #
plane-surface $-1 -26.167892721361198 -88.887125267004052 81.394256138309146 1 0 0 0 0.66913061440640931 -0.74314481823134659 forward_v I I I I #
coedge $-1 $353 $354 $355 $356 reversed $133 $-1 #
coedge $-1 $217 $135 $357 $358 reversed $85 $-1 #
coedge $-1 $135 $216 $353 $359 reversed $85 $-1 #
coedge $-1 $355 $360 $135 $219 forward $361 $-1 #
edge $-1 $362 23.298177671014511 $363 26.818361367798662 $218 $364 forward 7 unknown #
loop $-1 $-1 $225 $136 #
plane-surface $-1 -18.099740436556978 -21.145384962487512 6.1594332182224321 0 -0.66913061440640931 0.74314481823134659 1 0 0 forward_v I I I I #
loop $-1 $-1 $365 $87 #
coedge $-1 $223 $223 $224 $366 reversed $137 $-1 #
coedge $-1 $224 $224 $223 $366 forward $139 $-1 #
coedge $-1 $225 $225 $140 $226 forward $220 $-1 #
edge $-1 $367 8.5725864603084142e-016 $367 6.2831853071796013 $225 $368 forward 7 unknown #
loop $-1 $-1 $232 $141 #
plane-surface $-1 -18.099740436556978 -21.145384962487512 6.1594332182224321 0 -0.66913061440640931 0.74314481823134659 1 0 0 forward_v I I I I #
loop $-1 $-1 $369 $90 #
coedge $-1 $230 $230 $231 $370 reversed $142 $-1 #
coedge $-1 $231 $231 $230 $370 forward $144 $-1 #
coedge $-1 $232 $232 $145 $233 forward $227 $-1 #
edge $-1 $371 8.5725864603084142e-016 $371 6.2831853071796013 $232 $372 forward 7 unknown #
face $-1 $373 $374 $51 $-1 $375 reversed single #
loop $-1 $-1 $376 $146 #
plane-surface $-1 17.317808438477265 -88.887125267004052 81.394256138309146 1 0 0 0 0.66913061440640931 -0.74314481823134659 forward_v I I I I #
coedge $-1 $377 $378 $379 $380 reversed $147 $-1 #
coedge $-1 $239 $149 $381 $382 reversed $94 $-1 #
coedge $-1 $149 $238 $377 $383 reversed $94 $-1 #
coedge $-1 $379 $384 $149 $241 forward $385 $-1 #
edge $-1 $386 23.298177671014511 $387 26.818361367798662 $240 $388 forward 7 unknown #
loop $-1 $-1 $247 $150 #
plane-surface $-1 25.385960723281485 -21.145384962487512 6.1594332182224321 0 -0.66913061440640931 0.74314481823134659 1 0 0 forward_v I I I I #
loop $-1 $-1 $389 $96 #
coedge $-1 $245 $245 $246 $390 reversed $151 $-1 #
coedge $-1 $246 $246 $245 $390 forward $153 $-1 #
coedge $-1 $247 $247 $154 $248 forward $242 $-1 #
edge $-1 $391 8.5725864603084142e-016 $391 6.2831853071796013 $247 $392 forward 7 unknown #
loop $-1 $-1 $254 $155 #
plane-surface $-1 25.385960723281485 -21.145384962487512 6.1594332182224321 0 -0.66913061440640931 0.74314481823134659 1 0 0 forward_v I I I I #
loop $-1 $-1 $393 $99 #
coedge $-1 $252 $252 $253 $394 reversed $156 $-1 #
coedge $-1 $253 $253 $252 $394 forward $158 $-1 #
coedge $-1 $254 $254 $159 $255 forward $249 $-1 #
edge $-1 $395 8.5725864603084142e-016 $395 6.2831853071796013 $254 $396 forward 7 unknown #
face $-1 $397 $398 $54 $-1 $399 reversed single #
loop $-1 $-1 $400 $160 #
plane-surface $-1 -10.031588151752755 57.458958738244789 109.69230500192778 -1 0 0 0 0.66913061440640931 0.74314481823134659 forward_v I I I I #
coedge $-1 $401 $402 $403 $404 reversed $161 $-1 #
coedge $-1 $261 $163 $405 $406 reversed $103 $-1 #
coedge $-1 $163 $260 $401 $407 reversed $103 $-1 #
coedge $-1 $403 $408 $163 $263 forward $409 $-1 #
edge $-1 $410 7.584094406634879 $411 11.104278103419031 $262 $412 forward 7 unknown #
loop $-1 $-1 $269 $164 #
plane-surface $-1 -18.099740436556978 -10.282781566271751 34.457482081841064 0 0.66913061440640931 0.74314481823134659 1 0 0 forward_v I I I I #
loop $-1 $-1 $413 $105 #
coedge $-1 $267 $267 $268 $414 reversed $165 $-1 #
coedge $-1 $268 $268 $267 $414 forward $167 $-1 #
coedge $-1 $269 $269 $168 $270 forward $264 $-1 #
edge $-1 $415 -2.629512743543829e-016 $415 6.2831853071796004 $269 $416 forward 7 unknown #
loop $-1 $-1 $276 $169 #
plane-surface $-1 -18.099740436556978 -10.282781566271751 34.457482081841064 0 0.66913061440640931 0.74314481823134659 1 0 0 forward_v I I I I #
loop $-1 $-1 $417 $108 #
coedge $-1 $274 $274 $275 $418 reversed $170 $-1 #
coedge $-1 $275 $275 $274 $418 forward $172 $-1 #
coedge $-1 $276 $276 $173 $277 forward $271 $-1 #
edge $-1 $419 -2.629512743543829e-016 $419 6.2831853071796004 $276 $420 forward 7 unknown #
face $-1 $421 $422 $57 $-1 $423 forward single #
loop $-1 $-1 $424 $174 #
plane-surface $-1 33.454113008085706 57.458958738244789 109.69230500192778 -1 0 0 0 0.66913061440640931 0.74314481823134659 forward_v I I I I #
coedge $-1 $425 $426 $427 $428 reversed $175 $-1 #
coedge $-1 $283 $177 $429 $430 reversed $112 $-1 #
coedge $-1 $177 $282 $425 $431 reversed $112 $-1 #
coedge $-1 $427 $432 $177 $285 forward $422 $-1 #
edge $-1 $433 7.584094406634879 $434 11.104278103419031 $284 $435 forward 7 unknown #
loop $-1 $-1 $291 $178 #
plane-surface $-1 25.385960723281485 -10.282781566271751 34.457482081841064 0 0.66913061440640931 0.74314481823134659 1 0 0 forward_v I I I I #
loop $-1 $-1 $436 $114 #
coedge $-1 $289 $289 $290 $437 reversed $179 $-1 #
coedge $-1 $290 $290 $289 $437 forward $181 $-1 #
coedge $-1 $291 $291 $182 $292 forward $286 $-1 #
edge $-1 $438 -2.629512743543829e-016 $438 6.2831853071796004 $291 $439 forward 7 unknown #
loop $-1 $-1 $298 $183 #
plane-surface $-1 25.385960723281485 -10.282781566271751 34.457482081841064 0 0.66913061440640931 0.74314481823134659 1 0 0 forward_v I I I I #
loop $-1 $-1 $440 $117 #
coedge $-1 $296 $296 $297 $441 reversed $184 $-1 #
coedge $-1 $297 $297 $296 $441 forward $186 $-1 #
coedge $-1 $298 $298 $187 $299 forward $293 $-1 #
edge $-1 $442 -2.629512743543829e-016 $442 6.2831853071796004 $298 $443 forward 7 unknown #
face $-1 $444 $445 $45 $-1 $446 reversed single #
loop $-1 $-1 $447 $188 #
plane-surface $-1 -50.61922055726798 0 0 1 0 0 0 0 -1 forward_v I I I I #
coedge $-1 $448 $311 $449 $450 forward $189 $-1 #
coedge $-1 $451 $191 $448 $452 forward $121 $-1 #
coedge $-1 $191 $451 $453 $454 forward $121 $-1 #
coedge $-1 $314 $313 $191 $307 reversed $315 $-1 #
edge $-1 $455 -21.145384962487515 $456 21.145384962487515 $306 $457 forward 7 unknown #
coedge $-1 $193 $192 $458 $459 forward $76 $-1 #
coedge $-1 $460 $461 $192 $310 reversed $445 $-1 #
edge $-1 $317 -50.61922055726798 $462 50.61922055726798 $309 $463 forward 7 unknown #
coedge $-1 $303 $464 $193 $312 reversed $189 $-1 #
edge $-1 $465 -50.61922055726798 $316 50.61922055726798 $311 $466 forward 7 unknown #
coedge $-1 $306 $194 $464 $467 forward $315 $-1 #
coedge $-1 $194 $306 $460 $468 reversed $315 $-1 #
loop $-1 $-1 $313 $444 #
vertex $-1 $195 $469 #
vertex $-1 $195 $470 #
straight-curve $-1 50.61922055726798 0 9.3290209245035634 0 1 0 I I #
face $-1 $471 $472 $46 $-1 $473 forward single #
loop $-1 $-1 $474 $196 #
plane-surface $-1 -57.752739954697503 0 7.7381021335238138 1 0 0 0 0 -1 forward_v I I I I #
coedge $-1 $475 $199 $329 $476 reversed $125 $-1 #
coedge $-1 $199 $475 $477 $478 reversed $125 $-1 #
edge $-1 $479 -9.3290209245035634 $331 -6.1471833425440643 $199 $480 forward 7 unknown #
coedge $-1 $201 $200 $481 $482 reversed $79 $-1 #
coedge $-1 $483 $484 $201 $327 forward $485 $-1 #
edge $-1 $330 6.1471833425440643 $486 9.3290209245035634 $326 $487 forward 7 unknown #
coedge $-1 $488 $202 $484 $489 forward $197 $-1 #
coedge $-1 $202 $488 $322 $476 forward $197 $-1 #
vertex $-1 $327 $490 #
vertex $-1 $324 $491 #
straight-curve $-1 -50.61922055726798 0 6.1471833425440643 0 1 0 I I #
face $-1 $492 $493 $47 $-1 $494 reversed single #
loop $-1 $-1 $495 $204 #
plane-surface $-1 54.185980255982741 0 6.1471833425440643 0 0 1 1 0 0 forward_v I I I I #
coedge $-1 $496 $497 $208 $341 forward $205 $-1 #
coedge $-1 $498 $207 $497 $499 forward $129 $-1 #
coedge $-1 $207 $498 $500 $501 forward $129 $-1 #
coedge $-1 $209 $208 $207 $340 reversed $82 $-1 #
edge $-1 $502 -21.145384962487515 $503 21.145384962487515 $207 $504 forward 7 unknown #
edge $-1 $503 -9.3290209245035634 $347 -6.1471833425440643 $336 $505 forward 7 unknown #
coedge $-1 $500 $506 $209 $343 forward $507 $-1 #
edge $-1 $346 6.1471833425440643 $502 9.3290209245035634 $342 $508 forward 7 unknown #
coedge $-1 $495 $210 $506 $509 forward $334 $-1 #
coedge $-1 $210 $495 $496 $510 forward $334 $-1 #
vertex $-1 $343 $511 #
vertex $-1 $341 $512 #
straight-curve $-1 50.61922055726798 0 6.1471833425440643 0 -1 0 I I #
face $-1 $-1 $361 $48 $-1 $513 forward single #
loop $-1 $-1 $514 $212 #
plane-surface $-1 0 -21.145384962487515 0 0 1 0 0 0 1 forward_v I I I I #
coedge $-1 $515 $516 $517 $518 reversed $213 $-1 #
coedge $-1 $519 $215 $217 $359 forward $133 $-1 #
coedge $-1 $215 $519 $515 $520 forward $133 $-1 #
coedge $-1 $517 $218 $215 $356 forward $361 $-1 #
edge $-1 $363 0.9817179334742665 $521 17.11802250308271 $355 $522 forward 7 unknown #
coedge $-1 $523 $524 $216 $358 forward $350 $-1 #
edge $-1 $525 -34.537694850932141 $362 -31.36810714465101 $357 $526 forward 7 unknown #
edge $-1 $363 -4.7368744428065011 $525 5.0174102477660512e-015 $217 $527 forward 7 unknown #
coedge $-1 $218 $517 $523 $528 forward $361 $-1 #
loop $-1 $-1 $517 $349 #
vertex $-1 $358 $529 #
vertex $-1 $219 $530 #
straight-curve $-1 -10.031588151752755 -44.443562633502026 9.3290209245035669 0 1 0 I I #
coedge $-1 $365 $365 $-1 $531 reversed $222 $-1 #
edge $-1 $532 0 $532 6.2831853071796004 $223 $533 forward 7 unknown #
vertex $-1 $226 $534 #
ellipse-curve $-1 -21.557519987187362 -19.38529311409544 7.7442270713629968 0 -0.66913061440640931 0.74314481823134659 1 0 0 1 I I #
coedge $-1 $369 $369 $-1 $535 reversed $229 $-1 #
edge $-1 $536 0 $536 6.2831853071796004 $230 $537 forward 7 unknown #
vertex $-1 $233 $538 #
ellipse-curve $-1 -14.641960885926601 -19.38529311409544 7.7442270713629968 0 -0.66913061440640931 0.74314481823134659 1 0 0 1 I I #
face $-1 $-1 $385 $51 $-1 $539 forward single #
loop $-1 $-1 $540 $234 #
plane-surface $-1 0 -21.145384962487515 0 0 1 0 0 0 1 forward_v I I I I #
coedge $-1 $541 $542 $543 $544 reversed $235 $-1 #
coedge $-1 $545 $237 $239 $383 forward $147 $-1 #
coedge $-1 $237 $545 $541 $546 forward $147 $-1 #
coedge $-1 $543 $240 $237 $380 forward $385 $-1 #
edge $-1 $387 -20.761132646444963 $547 -4.624828076836522 $379 $548 forward 7 unknown #
coedge $-1 $549 $550 $238 $382 forward $374 $-1 #
edge $-1 $551 -34.537694850932141 $386 -31.36810714465101 $381 $552 forward 7 unknown #
edge $-1 $387 -4.7368744428065011 $551 5.0174102477660512e-015 $239 $553 forward 7 unknown #
coedge $-1 $240 $543 $549 $554 forward $385 $-1 #
loop $-1 $-1 $543 $373 #
vertex $-1 $382 $555 #
vertex $-1 $241 $556 #
straight-curve $-1 33.454113008085706 -44.443562633502026 9.3290209245035669 0 1 0 I I #
coedge $-1 $389 $389 $-1 $557 reversed $244 $-1 #
edge $-1 $558 0 $558 6.2831853071796004 $245 $559 forward 7 unknown #
vertex $-1 $248 $560 #
ellipse-curve $-1 21.928181172651094 -19.38529311409544 7.7442270713629968 0 -0.66913061440640931 0.74314481823134659 1 0 0 1 I I #
coedge $-1 $393 $393 $-1 $561 reversed $251 $-1 #
edge $-1 $562 0 $562 6.2831853071796004 $252 $563 forward 7 unknown #
vertex $-1 $255 $564 #
ellipse-curve $-1 28.843740273911848 -19.38529311409544 7.7442270713629968 0 -0.66913061440640931 0.74314481823134659 1 0 0 1 I I #
face $-1 $-1 $409 $54 $-1 $565 forward single #
loop $-1 $-1 $566 $256 #
plane-surface $-1 0 21.145384962487515 0 0 -1 0 0 0 -1 forward_v I I I I #
coedge $-1 $567 $568 $569 $570 reversed $257 $-1 #
coedge $-1 $571 $259 $261 $407 forward $161 $-1 #
coedge $-1 $259 $571 $567 $572 forward $161 $-1 #
coedge $-1 $569 $262 $259 $404 forward $409 $-1 #
edge $-1 $411 -17.11802250308271 $573 -0.9817179334742665 $403 $574 forward 7 unknown #
coedge $-1 $575 $576 $260 $406 forward $398 $-1 #
edge $-1 $577 -48.686719282741464 $410 -45.517131576460329 $405 $578 forward 7 unknown #
edge $-1 $411 37.553895482168521 $577 42.290769924975038 $261 $579 forward 7 unknown #
coedge $-1 $262 $569 $575 $580 forward $409 $-1 #
loop $-1 $-1 $569 $397 #
vertex $-1 $406 $581 #
vertex $-1 $263 $582 #
straight-curve $-1 -26.167892721361198 28.729479369122394 9.3290209245035598 0 -1 0 I I #
coedge $-1 $413 $413 $-1 $583 reversed $266 $-1 #
edge $-1 $584 0 $584 6.2831853071796004 $267 $585 forward 7 unknown #
vertex $-1 $270 $586 #
ellipse-curve $-1 -21.557519987187362 19.38529311409544 7.7442270713629942 0 0.66913061440640931 0.74314481823134659 1 0 0 1 I I #
coedge $-1 $417 $417 $-1 $587 reversed $273 $-1 #
edge $-1 $588 0 $588 6.2831853071796004 $274 $589 forward 7 unknown #
vertex $-1 $277 $590 #
ellipse-curve $-1 -14.641960885926601 19.38529311409544 7.7442270713629942 0 0.66913061440640931 0.74314481823134659 1 0 0 1 I I #
face $-1 $-1 $591 $57 $-1 $592 reversed single #
loop $-1 $-1 $284 $278 #
plane-surface $-1 0 0 9.3290209245035634 0 0 1 1 0 0 forward_v I I I I #
coedge $-1 $593 $594 $595 $596 reversed $279 $-1 #
coedge $-1 $597 $281 $283 $431 forward $175 $-1 #
coedge $-1 $281 $597 $593 $598 forward $175 $-1 #
coedge $-1 $595 $284 $281 $428 forward $422 $-1 #
edge $-1 $434 4.624828076836522 $599 20.761132646444963 $427 $600 forward 7 unknown #
coedge $-1 $601 $602 $282 $430 forward $591 $-1 #
edge $-1 $603 -48.686719282741464 $433 -45.517131576460329 $429 $604 forward 7 unknown #
edge $-1 $434 37.553895482168521 $603 42.290769924975038 $283 $605 forward 7 unknown #
coedge $-1 $284 $595 $601 $606 forward $422 $-1 #
vertex $-1 $285 $607 #
vertex $-1 $285 $608 #
straight-curve $-1 17.317808438477265 28.729479369122394 9.3290209245035598 0 -1 0 I I #
coedge $-1 $436 $436 $-1 $609 reversed $288 $-1 #
edge $-1 $610 0 $610 6.2831853071796004 $289 $611 forward 7 unknown #
vertex $-1 $292 $612 #
ellipse-curve $-1 21.928181172651094 19.38529311409544 7.7442270713629942 0 0.66913061440640931 0.74314481823134659 1 0 0 1 I I #
coedge $-1 $440 $440 $-1 $613 reversed $295 $-1 #
edge $-1 $614 0 $614 6.2831853071796004 $296 $615 forward 7 unknown #
vertex $-1 $299 $616 #
ellipse-curve $-1 28.843740273911848 19.38529311409544 7.7442270713629942 0 0.66913061440640931 0.74314481823134659 1 0 0 1 I I #
face $-1 $-1 $315 $45 $-1 $617 reversed single #
loop $-1 $-1 $460 $300 #
plane-surface $-1 0 21.145384962487515 0 0 -1 0 0 0 -1 forward_v I I I I #
coedge $-1 $618 $458 $461 $619 forward $301 $-1 #
coedge $-1 $464 $303 $304 $452 reversed $189 $-1 #
coedge $-1 $458 $618 $303 $450 reversed $301 $-1 #
edge $-1 $465 -9.3290209245035634 $620 9.3290209245035634 $449 $621 forward 7 unknown #
coedge $-1 $305 $304 $618 $622 forward $121 $-1 #
edge $-1 $456 -50.61922055726798 $620 50.61922055726798 $448 $623 forward 7 unknown #
coedge $-1 $461 $460 $305 $454 reversed $445 $-1 #
edge $-1 $624 -50.61922055726798 $455 50.61922055726798 $453 $625 forward 7 unknown #
vertex $-1 $307 $626 #
vertex $-1 $467 $627 #
straight-curve $-1 50.61922055726798 0 -9.3290209245035634 0 -1 0 I I #
coedge $-1 $447 $449 $308 $459 reversed $301 $-1 #
edge $-1 $462 -21.145384962487515 $465 21.145384962487515 $458 $628 forward 7 unknown #
coedge $-1 $453 $309 $314 $468 forward $445 $-1 #
coedge $-1 $309 $453 $447 $619 reversed $445 $-1 #
vertex $-1 $310 $629 #
straight-curve $-1 0 21.145384962487515 9.3290209245035634 -1 0 0 I I #
coedge $-1 $311 $448 $313 $467 reversed $189 $-1 #
vertex $-1 $459 $630 #
straight-curve $-1 0 -21.145384962487515 9.3290209245035634 1 0 0 I I #
edge $-1 $316 -9.3290209245035634 $456 9.3290209245035634 $313 $631 forward 7 unknown #
edge $-1 $317 -9.3290209245035634 $455 9.3290209245035634 $314 $632 forward 7 unknown #
point $-1 50.61922055726798 -21.145384962487515 9.3290209245035634 #
point $-1 50.61922055726798 21.145384962487515 9.3290209245035634 #
face $-1 $-1 $485 $46 $-1 $633 reversed single #
loop $-1 $-1 $481 $319 #
plane-surface $-1 0 0 9.3290209245035634 0 0 1 1 0 0 forward_v I I I I #
coedge $-1 $634 $635 $475 $636 forward $320 $-1 #
coedge $-1 $323 $322 $474 $636 reversed $125 $-1 #
edge $-1 $637 -3.5667596987147618 $331 3.5667596987147618 $322 $638 forward 7 unknown #
coedge $-1 $639 $481 $323 $478 forward $472 $-1 #
edge $-1 $479 50.61922055726798 $640 57.752739954697503 $323 $641 forward 7 unknown #
vertex $-1 $478 $642 #
straight-curve $-1 -50.61922055726798 21.145384962487515 0 0 0 -1 I I #
coedge $-1 $477 $643 $325 $482 forward $472 $-1 #
edge $-1 $486 -21.145384962487515 $479 21.145384962487515 $481 $644 forward 7 unknown #
coedge $-1 $645 $326 $643 $646 reversed $485 $-1 #
coedge $-1 $326 $645 $328 $489 reversed $485 $-1 #
loop $-1 $-1 $326 $471 #
vertex $-1 $327 $647 #
straight-curve $-1 -50.61922055726798 -21.145384962487515 0 0 0 1 I I #
coedge $-1 $329 $328 $634 $648 forward $197 $-1 #
edge $-1 $330 -3.5667596987147618 $649 3.5667596987147618 $484 $650 forward 7 unknown #
point $-1 -50.61922055726798 -21.145384962487515 6.1471833425440643 #
point $-1 -50.61922055726798 21.145384962487515 6.1471833425440643 #
face $-1 $-1 $507 $47 $-1 $651 reversed single #
loop $-1 $-1 $652 $333 #
plane-surface $-1 57.752739954697503 0 7.7381021335238138 -1 0 0 0 0 1 forward_v I I I I #
coedge $-1 $345 $344 $653 $654 forward $334 $-1 #
coedge $-1 $655 $336 $345 $510 reversed $205 $-1 #
coedge $-1 $336 $655 $337 $499 reversed $205 $-1 #
coedge $-1 $338 $337 $656 $657 forward $129 $-1 #
edge $-1 $503 -3.5667596987147618 $658 3.5667596987147618 $497 $659 forward 7 unknown #
coedge $-1 $660 $342 $338 $501 reversed $507 $-1 #
edge $-1 $661 -57.752739954697503 $502 -50.61922055726798 $500 $662 forward 7 unknown #
vertex $-1 $343 $663 #
vertex $-1 $499 $664 #
straight-curve $-1 50.61922055726798 0 9.3290209245035634 0 -1 0 I I #
straight-curve $-1 50.61922055726798 -21.145384962487515 0 0 0 -1 I I #
coedge $-1 $342 $660 $344 $509 reversed $507 $-1 #
loop $-1 $-1 $342 $492 #
straight-curve $-1 50.61922055726798 21.145384962487515 0 0 0 1 I I #
edge $-1 $346 -3.5667596987147618 $665 3.5667596987147618 $506 $666 forward 7 unknown #
edge $-1 $667 -3.5667596987147618 $347 3.5667596987147618 $496 $668 forward 7 unknown #
point $-1 50.61922055726798 21.145384962487515 6.1471833425440643 #
point $-1 50.61922055726798 -21.145384962487515 6.1471833425440643 #
plane-surface $-1 0 0 9.3290209245035634 0 0 1 1 0 0 forward_v I I I I #
coedge $-1 $524 $523 $516 $669 forward $350 $-1 #
coedge $-1 $516 $352 $354 $520 reversed $213 $-1 #
coedge $-1 $352 $515 $514 $669 reversed $213 $-1 #
coedge $-1 $360 $355 $352 $518 forward $361 $-1 #
edge $-1 $521 -26.818361367798662 $670 -23.298177671014511 $517 $671 forward 7 unknown #
coedge $-1 $354 $353 $524 $672 reversed $133 $-1 #
edge $-1 $673 -5.0174102477660512e-015 $521 4.7368744428065011 $515 $674 forward 7 unknown #
vertex $-1 $356 $675 #
straight-curve $-1 -9.0498702182784889 -17.625201265703364 9.3290209245035634 -1 0 0 I I #
coedge $-1 $514 $357 $360 $528 reversed $350 $-1 #
coedge $-1 $357 $514 $519 $672 forward $350 $-1 #
vertex $-1 $358 $676 #
straight-curve $-1 -10.031588151752755 -21.145384962487519 40.697128069154573 0 0 1 I I #
straight-curve $-1 -10.031588151752755 -21.145384962487512 6.1594332182224321 0 -0.74314481823134659 -0.66913061440640931 I I #
edge $-1 $670 -80.35387297734394 $362 -64.217568407735499 $523 $677 forward 7 unknown #
point $-1 -10.031588151752757 -21.145384962487515 9.3290209245035634 #
point $-1 -10.031588151752755 -17.625201265703364 9.3290209245035634 #
edge $-1 $678 1 $678 0 $365 $-1 forward 7 unknown #
vertex $-1 $366 $679 #
ellipse-curve $-1 -21.557519987187362 -17.249474425757583 5.372160158346345 0 -0.66913061440640931 0.74314481823134659 1 0 0 1 I I #
point $-1 -20.557519987187362 -19.385293114095436 7.7442270713629942 #
edge $-1 $680 1 $680 0 $369 $-1 forward 7 unknown #
vertex $-1 $370 $681 #
ellipse-curve $-1 -14.641960885926601 -17.249474425757583 5.372160158346345 0 -0.66913061440640931 0.74314481823134659 1 0 0 1 I I #
point $-1 -13.641960885926601 -19.385293114095436 7.7442270713629942 #
plane-surface $-1 0 0 9.3290209245035634 0 0 1 1 0 0 forward_v I I I I #
coedge $-1 $550 $549 $542 $682 forward $374 $-1 #
coedge $-1 $542 $376 $378 $546 reversed $235 $-1 #
coedge $-1 $376 $541 $540 $682 reversed $235 $-1 #
coedge $-1 $384 $379 $376 $544 forward $385 $-1 #
edge $-1 $547 -26.818361367798662 $683 -23.298177671014511 $543 $684 forward 7 unknown #
coedge $-1 $378 $377 $550 $685 reversed $147 $-1 #
edge $-1 $686 -5.0174102477660512e-015 $547 4.7368744428065011 $541 $687 forward 7 unknown #
vertex $-1 $380 $688 #
straight-curve $-1 12.692980361640743 -17.625201265703364 9.3290209245035634 -1 0 0 I I #
coedge $-1 $540 $381 $384 $554 reversed $374 $-1 #
coedge $-1 $381 $540 $545 $685 forward $374 $-1 #
vertex $-1 $382 $689 #
straight-curve $-1 33.454113008085706 -21.145384962487519 40.697128069154573 0 0 1 I I #
straight-curve $-1 33.454113008085706 -21.145384962487512 6.1594332182224321 0 -0.74314481823134659 -0.66913061440640931 I I #
edge $-1 $683 -36.868171817505477 $386 -20.731867247897036 $549 $690 forward 7 unknown #
point $-1 33.454113008085706 -21.145384962487515 9.3290209245035634 #
point $-1 33.454113008085706 -17.625201265703364 9.3290209245035634 #
edge $-1 $691 1 $691 0 $389 $-1 forward 7 unknown #
vertex $-1 $390 $692 #
ellipse-curve $-1 21.928181172651094 -17.249474425757583 5.372160158346345 0 -0.66913061440640931 0.74314481823134659 1 0 0 1 I I #
point $-1 22.928181172651094 -19.385293114095436 7.7442270713629942 #
edge $-1 $693 1 $693 0 $393 $-1 forward 7 unknown #
vertex $-1 $394 $694 #
ellipse-curve $-1 28.843740273911848 -17.249474425757583 5.372160158346345 0 -0.66913061440640931 0.74314481823134659 1 0 0 1 I I #
point $-1 29.843740273911848 -19.385293114095436 7.7442270713629942 #
plane-surface $-1 0 0 9.3290209245035634 0 0 1 1 0 0 forward_v I I I I #
coedge $-1 $576 $575 $568 $695 forward $398 $-1 #
coedge $-1 $568 $400 $402 $572 reversed $257 $-1 #
coedge $-1 $400 $567 $566 $695 reversed $257 $-1 #
coedge $-1 $408 $403 $400 $570 forward $409 $-1 #
edge $-1 $573 -11.104278103419031 $696 -7.584094406634879 $569 $697 forward 7 unknown #
coedge $-1 $402 $401 $576 $698 reversed $161 $-1 #
edge $-1 $699 -42.290769924975038 $573 -37.553895482168521 $567 $700 forward 7 unknown #
vertex $-1 $404 $701 #
straight-curve $-1 -9.0498702182784889 17.625201265703364 9.3290209245035598 1 0 0 I I #
coedge $-1 $566 $405 $408 $580 reversed $398 $-1 #
coedge $-1 $405 $566 $571 $698 forward $398 $-1 #
vertex $-1 $406 $702 #
straight-curve $-1 -26.167892721361198 21.145384962487515 54.846152500963889 0 0 1 I I #
straight-curve $-1 -26.167892721361198 -10.282781566271751 34.457482081841064 0 0.74314481823134659 -0.66913061440640931 I I #
edge $-1 $696 10.031588151752755 $410 26.167892721361198 $575 $703 forward 7 unknown #
point $-1 -26.167892721361198 21.145384962487515 9.3290209245035634 #
point $-1 -26.167892721361198 17.625201265703364 9.3290209245035634 #
edge $-1 $704 1 $704 0 $413 $-1 forward 7 unknown #
vertex $-1 $414 $705 #
ellipse-curve $-1 -21.557519987187362 17.249474425757583 5.3721601583463414 0 0.66913061440640931 0.74314481823134659 1 0 0 1 I I #
point $-1 -20.557519987187362 19.385293114095436 7.7442270713629906 #
edge $-1 $706 1 $706 0 $417 $-1 forward 7 unknown #
vertex $-1 $418 $707 #
ellipse-curve $-1 -14.641960885926601 17.249474425757583 5.3721601583463414 0 0.66913061440640931 0.74314481823134659 1 0 0 1 I I #
point $-1 -13.641960885926601 19.385293114095436 7.7442270713629906 #
loop $-1 $-1 $429 $421 #
plane-surface $-1 0 21.145384962487515 0 0 -1 0 0 0 -1 forward_v I I I I #
coedge $-1 $594 $424 $426 $598 reversed $279 $-1 #
coedge $-1 $424 $593 $708 $709 reversed $279 $-1 #
coedge $-1 $432 $427 $424 $596 forward $422 $-1 #
edge $-1 $599 -11.104278103419031 $710 -7.584094406634879 $595 $711 forward 7 unknown #
coedge $-1 $426 $425 $602 $712 reversed $175 $-1 #
edge $-1 $713 -42.290769924975038 $599 -37.553895482168521 $593 $714 forward 7 unknown #
vertex $-1 $428 $715 #
straight-curve $-1 12.692980361640743 17.625201265703364 9.3290209245035598 1 0 0 I I #
coedge $-1 $708 $429 $432 $606 reversed $591 $-1 #
coedge $-1 $429 $708 $597 $712 forward $591 $-1 #
vertex $-1 $430 $716 #
straight-curve $-1 17.317808438477265 21.145384962487515 54.846152500963889 0 0 1 I I #
straight-curve $-1 17.317808438477265 -10.282781566271751 34.457482081841064 0 0.74314481823134659 -0.66913061440640931 I I #
edge $-1 $710 -33.454113008085706 $433 -17.317808438477265 $601 $717 forward 7 unknown #
point $-1 17.317808438477265 21.145384962487515 9.3290209245035634 #
point $-1 17.317808438477265 17.625201265703364 9.3290209245035634 #
edge $-1 $718 1 $718 0 $436 $-1 forward 7 unknown #
vertex $-1 $437 $719 #
ellipse-curve $-1 21.928181172651094 17.249474425757583 5.3721601583463414 0 0.66913061440640931 0.74314481823134659 1 0 0 1 I I #
point $-1 22.928181172651094 19.385293114095436 7.7442270713629906 #
edge $-1 $720 1 $720 0 $440 $-1 forward 7 unknown #
vertex $-1 $441 $721 #
ellipse-curve $-1 28.843740273911848 17.249474425757583 5.3721601583463414 0 0.66913061440640931 0.74314481823134659 1 0 0 1 I I #
point $-1 29.843740273911848 19.385293114095436 7.7442270713629906 #
plane-surface $-1 50.61922055726798 0 0 -1 0 0 0 0 1 forward_v I I I I #
coedge $-1 $449 $447 $451 $622 reversed $301 $-1 #
edge $-1 $462 -9.3290209245035634 $624 9.3290209245035634 $461 $722 forward 7 unknown #
vertex $-1 $622 $723 #
straight-curve $-1 -50.61922055726798 -21.145384962487515 0 0 0 -1 I I #
edge $-1 $620 -21.145384962487515 $624 21.145384962487515 $618 $724 forward 7 unknown #
straight-curve $-1 0 -21.145384962487515 -9.3290209245035634 -1 0 0 I I #
vertex $-1 $454 $725 #
straight-curve $-1 0 21.145384962487515 -9.3290209245035634 1 0 0 I I #
point $-1 50.61922055726798 21.145384962487515 -9.3290209245035634 #
point $-1 50.61922055726798 -21.145384962487515 -9.3290209245035634 #
straight-curve $-1 -50.61922055726798 0 9.3290209245035634 0 -1 0 I I #
point $-1 -50.61922055726798 21.145384962487515 9.3290209245035634 #
point $-1 -50.61922055726798 -21.145384962487515 9.3290209245035634 #
straight-curve $-1 50.61922055726798 -21.145384962487515 0 0 0 -1 I I #
straight-curve $-1 50.61922055726798 21.145384962487515 0 0 0 -1 I I #
plane-surface $-1 0 -21.145384962487515 0 0 1 0 0 0 1 forward_v I I I I #
coedge $-1 $726 $474 $488 $648 reversed $320 $-1 #
coedge $-1 $474 $726 $639 $727 reversed $320 $-1 #
edge $-1 $640 -1.5909187909797495 $637 1.5909187909797495 $475 $728 forward 7 unknown #
vertex $-1 $476 $729 #
straight-curve $-1 -54.185980255982741 21.145384962487515 6.1471833425440643 1 0 0 I I #
coedge $-1 $643 $477 $635 $727 forward $472 $-1 #
vertex $-1 $478 $730 #
straight-curve $-1 0 21.145384962487515 9.3290209245035634 -1 0 0 I I #
point $-1 -50.61922055726798 21.145384962487515 9.3290209245035634 #
coedge $-1 $481 $639 $483 $646 forward $472 $-1 #
straight-curve $-1 -50.61922055726798 0 9.3290209245035634 0 1 0 I I #
coedge $-1 $484 $483 $726 $731 forward $485 $-1 #
edge $-1 $732 -57.752739954697503 $486 -50.61922055726798 $483 $733 forward 7 unknown #
point $-1 -50.61922055726798 -21.145384962487515 9.3290209245035634 #
edge $-1 $649 -21.145384962487515 $637 21.145384962487515 $634 $734 forward 7 unknown #
vertex $-1 $648 $735 #
straight-curve $-1 -54.185980255982741 -21.145384962487515 6.1471833425440643 -1 0 0 I I #
plane-surface $-1 0 21.145384962487515 0 0 -1 0 0 0 -1 forward_v I I I I #
coedge $-1 $653 $656 $655 $736 forward $493 $-1 #
coedge $-1 $737 $652 $495 $654 reversed $493 $-1 #
edge $-1 $665 -21.145384962487515 $667 21.145384962487515 $653 $738 forward 7 unknown #
coedge $-1 $497 $496 $652 $736 reversed $205 $-1 #
coedge $-1 $652 $737 $498 $657 reversed $493 $-1 #
edge $-1 $658 -21.145384962487515 $661 21.145384962487515 $656 $739 forward 7 unknown #
vertex $-1 $657 $740 #
straight-curve $-1 54.185980255982741 -21.145384962487515 9.3290209245035634 1 0 0 I I #
coedge $-1 $506 $500 $737 $741 forward $507 $-1 #
vertex $-1 $657 $742 #
straight-curve $-1 0 21.145384962487515 9.3290209245035634 -1 0 0 I I #
point $-1 50.61922055726798 21.145384962487515 9.3290209245035634 #
point $-1 50.61922055726798 -21.145384962487515 9.3290209245035634 #
vertex $-1 $654 $743 #
straight-curve $-1 54.185980255982741 21.145384962487515 6.1471833425440643 1 0 0 I I #
vertex $-1 $736 $744 #
straight-curve $-1 54.185980255982741 -21.145384962487515 6.1471833425440643 -1 0 0 I I #
edge $-1 $670 31.36810714465101 $673 34.537694850932141 $514 $745 forward 7 unknown #
vertex $-1 $528 $746 #
straight-curve $-1 -26.167892721361198 -44.443562633502026 9.3290209245035669 0 -1 0 I I #
edge $-1 $673 -17.11802250308271 $525 -0.9817179334742665 $524 $747 forward 7 unknown #
vertex $-1 $672 $748 #
straight-curve $-1 -26.167892721361198 -21.145384962487512 6.1594332182224321 0 0.74314481823134659 0.66913061440640931 I I #
point $-1 -26.167892721361198 -17.625201265703364 9.3290209245035634 #
point $-1 -10.031588151752755 -21.145384962487515 6.1594332182224285 #
straight-curve $-1 54.185980255982741 -21.145384962487515 9.3290209245035634 1 0 0 I I #
vertex $-1 $531 $749 #
point $-1 -20.557519987187362 -17.249474425757583 5.372160158346345 #
vertex $-1 $535 $750 #
point $-1 -13.641960885926601 -17.249474425757583 5.372160158346345 #
edge $-1 $683 31.36810714465101 $686 34.537694850932141 $540 $751 forward 7 unknown #
vertex $-1 $554 $752 #
straight-curve $-1 17.317808438477265 -44.443562633502026 9.3290209245035669 0 -1 0 I I #
edge $-1 $686 4.624828076836522 $551 20.761132646444963 $550 $753 forward 7 unknown #
vertex $-1 $685 $754 #
straight-curve $-1 17.317808438477265 -21.145384962487512 6.1594332182224321 0 0.74314481823134659 0.66913061440640931 I I #
point $-1 17.317808438477265 -17.625201265703364 9.3290209245035634 #
point $-1 33.454113008085706 -21.145384962487515 6.1594332182224285 #
straight-curve $-1 54.185980255982741 -21.145384962487515 9.3290209245035634 1 0 0 I I #
vertex $-1 $557 $755 #
point $-1 22.928181172651094 -17.249474425757583 5.372160158346345 #
vertex $-1 $561 $756 #
point $-1 29.843740273911848 -17.249474425757583 5.372160158346345 #
edge $-1 $696 45.517131576460329 $699 48.686719282741464 $566 $757 forward 7 unknown #
vertex $-1 $580 $758 #
straight-curve $-1 -10.031588151752755 28.729479369122394 9.3290209245035598 0 1 0 I I #
edge $-1 $699 0.9817179334742665 $577 17.11802250308271 $576 $759 forward 7 unknown #
vertex $-1 $698 $760 #
straight-curve $-1 -10.031588151752755 -10.282781566271751 34.457482081841064 0 -0.74314481823134659 0.66913061440640931 I I #
point $-1 -10.031588151752755 17.625201265703364 9.3290209245035634 #
point $-1 -26.167892721361198 21.145384962487519 6.159433218222425 #
straight-curve $-1 0 21.145384962487515 9.3290209245035634 -1 0 0 I I #
vertex $-1 $583 $761 #
point $-1 -20.557519987187362 17.249474425757583 5.3721601583463414 #
vertex $-1 $587 $762 #
point $-1 -13.641960885926601 17.249474425757583 5.3721601583463414 #
coedge $-1 $602 $601 $594 $709 forward $591 $-1 #
edge $-1 $710 45.517131576460329 $713 48.686719282741464 $708 $763 forward 7 unknown #
vertex $-1 $606 $764 #
straight-curve $-1 33.454113008085706 28.729479369122394 9.3290209245035598 0 1 0 I I #
edge $-1 $713 -20.761132646444963 $603 -4.624828076836522 $602 $765 forward 7 unknown #
vertex $-1 $712 $766 #
straight-curve $-1 33.454113008085706 -10.282781566271751 34.457482081841064 0 -0.74314481823134659 0.66913061440640931 I I #
point $-1 33.454113008085706 17.625201265703364 9.3290209245035634 #
point $-1 17.317808438477265 21.145384962487519 6.159433218222425 #
straight-curve $-1 0 21.145384962487515 9.3290209245035634 -1 0 0 I I #
vertex $-1 $609 $767 #
point $-1 22.928181172651094 17.249474425757583 5.3721601583463414 #
vertex $-1 $613 $768 #
point $-1 29.843740273911848 17.249474425757583 5.3721601583463414 #
straight-curve $-1 -50.61922055726798 21.145384962487515 0 0 0 -1 I I #
point $-1 -50.61922055726798 -21.145384962487515 -9.3290209245035634 #
straight-curve $-1 -50.61922055726798 0 -9.3290209245035634 0 1 0 I I #
point $-1 -50.61922055726798 21.145384962487515 -9.3290209245035634 #
coedge $-1 $635 $634 $645 $731 reversed $320 $-1 #
edge $-1 $640 -21.145384962487515 $732 21.145384962487515 $635 $769 forward 7 unknown #
straight-curve $-1 -57.752739954697503 21.145384962487515 7.7381021335238138 0 0 -1 I I #
point $-1 -57.752739954697503 21.145384962487515 6.1471833425440643 #
point $-1 -57.752739954697503 21.145384962487515 9.3290209245035634 #
edge $-1 $732 -1.5909187909797495 $649 1.5909187909797495 $726 $770 forward 7 unknown #
vertex $-1 $727 $771 #
straight-curve $-1 0 -21.145384962487515 9.3290209245035634 1 0 0 I I #
straight-curve $-1 -57.752739954697503 0 6.1471833425440643 0 1 0 I I #
point $-1 -57.752739954697503 -21.145384962487515 6.1471833425440643 #
edge $-1 $658 -1.5909187909797495 $667 1.5909187909797495 $652 $772 forward 7 unknown #
coedge $-1 $656 $653 $660 $741 reversed $493 $-1 #
straight-curve $-1 57.752739954697503 0 6.1471833425440643 0 -1 0 I I #
straight-curve $-1 57.752739954697503 0 9.3290209245035634 0 1 0 I I #
point $-1 57.752739954697503 -21.145384962487515 9.3290209245035634 #
edge $-1 $661 -1.5909187909797495 $665 1.5909187909797495 $737 $773 forward 7 unknown #
point $-1 57.752739954697503 21.145384962487515 9.3290209245035634 #
point $-1 57.752739954697503 21.145384962487515 6.1471833425440643 #
point $-1 57.752739954697503 -21.145384962487515 6.1471833425440643 #
straight-curve $-1 -26.167892721361198 -21.145384962487519 40.697128069154573 0 0 -1 I I #
point $-1 -26.167892721361198 -21.145384962487515 9.3290209245035634 #
straight-curve $-1 -9.0498702182784889 -21.145384962487515 6.1594332182224285 1 0 0 I I #
point $-1 -26.167892721361198 -21.145384962487515 6.1594332182224285 #
point $-1 -21.557519987187362 -16.580343811351177 4.6290153401149983 #
point $-1 -14.641960885926601 -16.580343811351177 4.6290153401149983 #
straight-curve $-1 17.317808438477265 -21.145384962487519 40.697128069154573 0 0 -1 I I #
point $-1 17.317808438477265 -21.145384962487515 9.3290209245035634 #
straight-curve $-1 12.692980361640743 -21.145384962487515 6.1594332182224285 1 0 0 I I #
point $-1 17.317808438477265 -21.145384962487515 6.1594332182224285 #
point $-1 21.928181172651094 -16.580343811351177 4.6290153401149983 #
point $-1 28.843740273911848 -16.580343811351177 4.6290153401149983 #
straight-curve $-1 -10.031588151752755 21.145384962487515 54.846152500963889 0 0 -1 I I #
point $-1 -10.031588151752755 21.145384962487515 9.3290209245035634 #
straight-curve $-1 -9.0498702182784889 21.145384962487515 6.1594332182224267 -1 0 0 I I #
point $-1 -10.031588151752755 21.145384962487519 6.159433218222425 #
point $-1 -21.557519987187362 16.580343811351177 4.6290153401149947 #
point $-1 -14.641960885926601 16.580343811351177 4.6290153401149947 #
straight-curve $-1 33.454113008085706 21.145384962487515 54.846152500963889 0 0 -1 I I #
point $-1 33.454113008085706 21.145384962487515 9.3290209245035634 #
straight-curve $-1 12.692980361640743 21.145384962487515 6.1594332182224267 -1 0 0 I I #
point $-1 33.454113008085706 21.145384962487519 6.159433218222425 #
point $-1 21.928181172651094 16.580343811351177 4.6290153401149947 #
point $-1 28.843740273911848 16.580343811351177 4.6290153401149947 #
straight-curve $-1 -57.752739954697503 0 9.3290209245035634 0 -1 0 I I #
straight-curve $-1 -57.752739954697503 -21.145384962487515 7.7381021335238138 0 0 -1 I I #
point $-1 -57.752739954697503 -21.145384962487515 9.3290209245035634 #
straight-curve $-1 57.752739954697503 -21.145384962487515 7.7381021335238138 0 0 -1 I I #
straight-curve $-1 57.752739954697503 21.145384962487515 7.7381021335238138 0 0 -1 I I #
End-of-ACIS-data 