500 0 10 0           
7 Unknown 11 ACIS 5.0 NT 24 Fri Mar 26 18:22:48 1999 
-1 9.9999999999999995e-007 1e-010 
body $-1 $10 $-1 $11 #
body $-1 $12 $-1 $13 #
body $-1 $14 $-1 $15 #
body $-1 $16 $-1 $17 #
body $-1 $18 $-1 $19 #
body $-1 $20 $-1 $21 #
body $-1 $22 $-1 $23 #
body $-1 $24 $-1 $25 #
body $-1 $26 $-1 $27 #
body $-1 $28 $-1 $29 #
lump $-1 $-1 $30 $0 #
transform $-1 1 0 0 0 1 0 0 0 1 62.968230231635488 27.370531521535725 10.461896392548185 1 rotate no_reflect no_shear #
lump $-1 $-1 $31 $1 #
transform $-1 1 0 0 0 1 0 0 0 1 62.968230231635488 27.370531521535725 10.461896392548185 1 rotate no_reflect no_shear #
lump $-1 $-1 $32 $2 #
transform $-1 1 0 0 0 1 0 0 0 1 62.968230231635488 27.370531521535725 10.461896392548185 1 rotate no_reflect no_shear #
lump $-1 $-1 $33 $3 #
transform $-1 1 0 0 0 1 0 0 0 1 62.968230231635488 27.370531521535725 10.461896392548185 1 rotate no_reflect no_shear #
lump $-1 $-1 $34 $4 #
transform $-1 1 0 0 0 1 0 0 0 1 62.968230231635488 27.370531521535725 10.461896392548185 1 rotate no_reflect no_shear #
lump $-1 $-1 $35 $5 #
transform $-1 1 0 0 0 1 0 0 0 1 62.968230231635488 27.370531521535725 10.461896392548185 1 rotate no_reflect no_shear #
lump $-1 $-1 $36 $6 #
transform $-1 1 0 0 0 1 0 0 0 1 62.968230231635488 27.370531521535725 10.461896392548185 1 rotate no_reflect no_shear #
lump $-1 $-1 $37 $7 #
transform $-1 1 0 0 0 1 0 0 0 1 62.968230231635488 27.370531521535725 10.461896392548185 1 rotate no_reflect no_shear #
lump $-1 $-1 $38 $8 #
transform $-1 1 0 0 0 1 0 0 0 1 62.968230231635488 27.370531521535725 10.461896392548185 1 rotate no_reflect no_shear #
lump $-1 $-1 $39 $9 #
transform $-1 1 0 0 0 1 0 0 0 1 62.968230231635488 27.370531521535725 10.461896392548185 1 rotate no_reflect no_shear #
shell $-1 $-1 $-1 $40 $-1 $10 #
shell $-1 $-1 $-1 $41 $-1 $12 #
shell $-1 $-1 $-1 $42 $-1 $14 #
shell $-1 $-1 $-1 $43 $-1 $16 #
shell $-1 $-1 $-1 $44 $-1 $18 #
shell $-1 $-1 $-1 $45 $-1 $20 #
shell $-1 $-1 $-1 $46 $-1 $22 #
shell $-1 $-1 $-1 $47 $-1 $24 #
shell $-1 $-1 $-1 $48 $-1 $26 #
shell $-1 $-1 $-1 $49 $-1 $28 #
face $-1 $50 $51 $30 $-1 $52 forward single #
face $-1 $53 $54 $31 $-1 $55 forward single #
face $-1 $56 $57 $32 $-1 $58 forward single #
face $-1 $59 $60 $33 $-1 $61 reversed single #
face $-1 $62 $63 $34 $-1 $64 forward single #
face $-1 $65 $66 $35 $-1 $67 forward single #
face $-1 $68 $69 $36 $-1 $70 reversed single #
face $-1 $71 $72 $37 $-1 $73 forward single #
face $-1 $74 $75 $38 $-1 $76 forward single #
face $-1 $77 $78 $39 $-1 $79 forward single #
face $-1 $80 $81 $30 $-1 $82 reversed single #
loop $-1 $-1 $83 $40 #
plane-surface $-1 0 0 10.461896392548185 0 0 1 1 0 0 forward_v I I I I #
face $-1 $84 $85 $31 $-1 $86 reversed single #
loop $-1 $-1 $87 $41 #
plane-surface $-1 0 -22.176351780981285 8.0722901160250284 0 0 1 1 0 0 forward_v I I I I #
face $-1 $88 $89 $32 $-1 $90 reversed single #
loop $-1 $-1 $91 $42 #
plane-surface $-1 0 22.176351780981285 8.0722901160250284 0 0 1 1 0 0 forward_v I I I I #
face $-1 $92 $93 $33 $-1 $94 reversed single #
loop $-1 $-1 $95 $43 #
plane-surface $-1 -34.902780620635042 -12.000604894434066 81.388175735841457 0.62932039886446345 0 0.77714595512881146 0.77714595512881146 0 -0.62932039886446345 forward_v I I I I #
face $-1 $96 $97 $34 $-1 $98 forward single #
loop $-1 $99 $100 $44 #
cone-surface $-1 57.511394047982151 -14.135562242716684 5.9092713214681982 -0.62932039886446345 0 -0.77714595512881146 0.38857297756440573 0 -0.31466019943223172 1 I I 0 1 0.5 forward I I I I #
face $-1 $101 $102 $35 $-1 $103 forward single #
loop $-1 $104 $105 $45 #
cone-surface $-1 57.511394047982151 -9.8656475461514432 5.9092713214681982 -0.62932039886446345 0 -0.77714595512881146 0.38857297756440573 0 -0.31466019943223172 1 I I 0 1 0.5 forward I I I I #
face $-1 $106 $107 $36 $-1 $108 reversed single #
loop $-1 $-1 $109 $46 #
plane-surface $-1 -142.22261376195991 9.9203903100661321 103.76045952026216 0 -1 0 0.62932039886446345 0 -0.77714595512881146 forward_v I I I I #
face $-1 $110 $111 $37 $-1 $112 forward single #
loop $-1 $113 $114 $47 #
cone-surface $-1 -59.830318743520344 2.4646633111267136 7.7870995527054943 0.62932039886446345 0 -0.77714595512881146 0.19428648878220287 0 0.15733009971611586 1 I I 0 1 0.25 forward I I I I #
face $-1 $115 $116 $38 $-1 $117 forward single #
loop $-1 $118 $119 $48 #
cone-surface $-1 -59.830318743520344 5.2605609357289964 7.7870995527054943 0.62932039886446345 0 -0.77714595512881146 0.19428648878220287 0 0.15733009971611586 1 I I 0 1 0.25 forward I I I I #
face $-1 $120 $121 $39 $-1 $122 forward single #
loop $-1 $123 $124 $49 #
cone-surface $-1 -59.830318743520344 8.0564585603312793 7.7870995527054943 0.62932039886446345 0 -0.77714595512881146 0.19428648878220287 0 0.15733009971611586 1 I I 0 1 0.25 forward I I I I #
face $-1 $125 $126 $30 $-1 $127 reversed single #
loop $-1 $-1 $128 $50 #
plane-surface $-1 0 0 -10.461896392548185 0 0 1 1 0 0 forward_v I I I I #
coedge $-1 $129 $130 $131 $132 forward $51 $-1 #
face $-1 $133 $134 $31 $-1 $135 reversed single #
loop $-1 $-1 $136 $53 #
plane-surface $-1 0 -22.176351780981285 2.2236280322829653 0 0 1 1 0 0 forward_v I I I I #
coedge $-1 $137 $138 $139 $140 reversed $54 $-1 #
face $-1 $141 $142 $32 $-1 $143 reversed single #
loop $-1 $-1 $144 $56 #
plane-surface $-1 0 22.176351780981285 2.2236280322829653 0 0 1 1 0 0 forward_v I I I I #
coedge $-1 $145 $146 $147 $148 reversed $57 $-1 #
face $-1 $149 $150 $33 $-1 $151 forward single #
loop $-1 $-1 $152 $59 #
plane-surface $-1 44.35160290968939 -7.0190377484412858 179.25918658811199 0 -1 0 -0.62932039886446345 0 -0.77714595512881146 forward_v I I I I #
coedge $-1 $153 $154 $155 $156 reversed $60 $-1 #
face $-1 $-1 $157 $34 $-1 $158 forward single #
loop $-1 $159 $160 $62 #
cone-surface $-1 57.039403748833806 -14.135562242716684 5.3264118551215898 -0.62932039886446345 0 -0.77714595512881146 0.19428648878220287 0 -0.15733009971611586 1 I I -0.70710678118654746 0.70710678118654746 0.25 forward I I I I #
loop $-1 $-1 $161 $44 #
coedge $-1 $100 $100 $162 $163 reversed $63 $-1 #
face $-1 $-1 $164 $35 $-1 $165 forward single #
loop $-1 $166 $167 $65 #
cone-surface $-1 57.039403748833806 -9.8656475461514432 5.3264118551215898 -0.62932039886446345 0 -0.77714595512881146 0.19428648878220287 0 -0.15733009971611586 1 I I -0.70710678118654746 0.70710678118654746 0.25 forward I I I I #
loop $-1 $-1 $168 $45 #
coedge $-1 $105 $105 $169 $170 reversed $66 $-1 #
face $-1 $171 $172 $36 $-1 $173 reversed single #
loop $-1 $-1 $174 $68 #
plane-surface $-1 -62.968230231635488 5.2605609357289964 5.8894486679916298 -0.62932039886446345 0 0.77714595512881146 0.77714595512881146 0 0.62932039886446345 forward_v I I I I #
coedge $-1 $175 $176 $177 $178 reversed $69 $-1 #
face $-1 $-1 $179 $37 $-1 $180 forward single #
loop $-1 $181 $182 $71 #
cone-surface $-1 -59.436993494230052 2.4646633111267136 7.3013833307499869 0.62932039886446345 0 -0.77714595512881146 0.097143244391101433 0 0.078665049858057931 1 I I -0.70710678118654746 0.70710678118654746 0.125 forward I I I I #
loop $-1 $-1 $183 $47 #
coedge $-1 $114 $114 $184 $185 reversed $72 $-1 #
face $-1 $-1 $186 $38 $-1 $187 forward single #
loop $-1 $188 $189 $74 #
cone-surface $-1 -59.436993494230052 5.2605609357289964 7.3013833307499869 0.62932039886446345 0 -0.77714595512881146 0.097143244391101433 0 0.078665049858057931 1 I I -0.70710678118654746 0.70710678118654746 0.125 forward I I I I #
loop $-1 $-1 $190 $48 #
coedge $-1 $119 $119 $191 $192 reversed $75 $-1 #
face $-1 $-1 $193 $39 $-1 $194 forward single #
loop $-1 $195 $196 $77 #
cone-surface $-1 -59.436993494230052 8.0564585603312793 7.3013833307499869 0.62932039886446345 0 -0.77714595512881146 0.097143244391101433 0 0.078665049858057931 1 I I -0.70710678118654746 0.70710678118654746 0.125 forward I I I I #
loop $-1 $-1 $197 $49 #
coedge $-1 $124 $124 $198 $199 reversed $78 $-1 #
face $-1 $200 $201 $30 $-1 $202 reversed single #
loop $-1 $-1 $203 $80 #
plane-surface $-1 0 -27.370531521535725 0 0 1 0 0 0 1 forward_v I I I I #
coedge $-1 $204 $205 $206 $207 forward $81 $-1 #
coedge $-1 $208 $83 $209 $210 forward $51 $-1 #
coedge $-1 $83 $208 $211 $212 forward $51 $-1 #
coedge $-1 $213 $214 $83 $132 reversed $215 $-1 #
edge $-1 $216 -27.370531521535725 $217 27.370531521535725 $131 $218 forward 7 unknown #
face $-1 $219 $220 $31 $-1 $221 reversed single #
loop $-1 $-1 $222 $84 #
plane-surface $-1 0 -16.982172040426846 5.1479590741539969 0 -1 0 0 0 -1 forward_v I I I I #
coedge $-1 $223 $224 $225 $226 reversed $85 $-1 #
coedge $-1 $227 $87 $228 $229 forward $54 $-1 #
coedge $-1 $87 $227 $230 $231 reversed $54 $-1 #
coedge $-1 $232 $233 $87 $140 forward $234 $-1 #
edge $-1 $235 5.8939961499362035 $236 16.282355631045082 $139 $237 forward 7 unknown #
face $-1 $238 $239 $32 $-1 $240 reversed single #
loop $-1 $-1 $241 $88 #
plane-surface $-1 0 16.982172040426846 5.1479590741539969 0 1 0 0 0 1 forward_v I I I I #
coedge $-1 $242 $243 $244 $245 reversed $89 $-1 #
coedge $-1 $246 $91 $247 $248 reversed $57 $-1 #
coedge $-1 $91 $246 $249 $250 forward $57 $-1 #
coedge $-1 $251 $252 $91 $148 forward $239 $-1 #
edge $-1 $253 -16.282355631045082 $254 -5.8939961499362035 $147 $255 forward 7 unknown #
face $-1 $256 $257 $33 $-1 $258 reversed single #
loop $-1 $-1 $259 $92 #
plane-surface $-1 0 -16.982172040426846 5.1479590741539969 0 -1 0 0 0 -1 forward_v I I I I #
coedge $-1 $260 $261 $262 $263 reversed $93 $-1 #
coedge $-1 $264 $95 $259 $265 forward $60 $-1 #
coedge $-1 $95 $264 $260 $266 forward $60 $-1 #
coedge $-1 $262 $267 $95 $156 forward $257 $-1 #
edge $-1 $268 -10.981869593209813 $269 -1.018735301224253 $155 $270 forward 7 unknown #
loop $-1 $-1 $162 $96 #
plane-surface $-1 -34.902780620635042 -12.000604894434066 81.388175735841457 0.62932039886446345 0 0.77714595512881146 0.77714595512881146 0 -0.62932039886446345 forward_v I I I I #
loop $-1 $-1 $271 $62 #
coedge $-1 $160 $160 $161 $272 reversed $97 $-1 #
coedge $-1 $161 $161 $160 $272 forward $99 $-1 #
coedge $-1 $162 $162 $100 $163 forward $157 $-1 #
edge $-1 $273 0 $273 6.2831853071796004 $162 $274 forward 7 unknown #
loop $-1 $-1 $169 $101 #
plane-surface $-1 -34.902780620635042 -12.000604894434066 81.388175735841457 0.62932039886446345 0 0.77714595512881146 0.77714595512881146 0 -0.62932039886446345 forward_v I I I I #
loop $-1 $-1 $275 $65 #
coedge $-1 $167 $167 $168 $276 reversed $102 $-1 #
coedge $-1 $168 $168 $167 $276 forward $104 $-1 #
coedge $-1 $169 $169 $105 $170 forward $164 $-1 #
edge $-1 $277 0 $277 6.2831853071796004 $169 $278 forward 7 unknown #
face $-1 $279 $280 $36 $-1 $281 forward single #
loop $-1 $-1 $282 $106 #
plane-surface $-1 -142.22261376195991 0.60073156139186068 103.76045952026216 0 1 0 -0.62932039886446345 0 0.77714595512881146 forward_v I I I I #
coedge $-1 $283 $284 $285 $286 reversed $107 $-1 #
coedge $-1 $176 $109 $287 $288 reversed $69 $-1 #
coedge $-1 $109 $175 $283 $289 reversed $69 $-1 #
coedge $-1 $285 $290 $109 $178 forward $291 $-1 #
edge $-1 $292 41.418333367582896 $293 45.99078109213945 $177 $294 forward 7 unknown #
loop $-1 $-1 $184 $110 #
plane-surface $-1 -62.968230231635488 5.2605609357289964 5.8894486679916298 -0.62932039886446345 0 0.77714595512881146 0.77714595512881146 0 0.62932039886446345 forward_v I I I I #
loop $-1 $-1 $295 $71 #
coedge $-1 $182 $182 $183 $296 reversed $111 $-1 #
coedge $-1 $183 $183 $182 $296 forward $113 $-1 #
coedge $-1 $184 $184 $114 $185 forward $179 $-1 #
edge $-1 $297 0 $297 6.2831853071796004 $184 $298 forward 7 unknown #
loop $-1 $-1 $191 $115 #
plane-surface $-1 -62.968230231635488 5.2605609357289964 5.8894486679916298 -0.62932039886446345 0 0.77714595512881146 0.77714595512881146 0 0.62932039886446345 forward_v I I I I #
loop $-1 $-1 $299 $74 #
coedge $-1 $189 $189 $190 $300 reversed $116 $-1 #
coedge $-1 $190 $190 $189 $300 forward $118 $-1 #
coedge $-1 $191 $191 $119 $192 forward $186 $-1 #
edge $-1 $301 0 $301 6.2831853071796004 $191 $302 forward 7 unknown #
loop $-1 $-1 $198 $120 #
plane-surface $-1 -62.968230231635488 5.2605609357289964 5.8894486679916298 -0.62932039886446345 0 0.77714595512881146 0.77714595512881146 0 0.62932039886446345 forward_v I I I I #
loop $-1 $-1 $303 $77 #
coedge $-1 $196 $196 $197 $304 reversed $121 $-1 #
coedge $-1 $197 $197 $196 $304 forward $123 $-1 #
coedge $-1 $198 $198 $124 $199 forward $193 $-1 #
edge $-1 $305 0 $305 6.2831853071796004 $198 $306 forward 7 unknown #
face $-1 $307 $308 $30 $-1 $309 reversed single #
loop $-1 $-1 $310 $125 #
plane-surface $-1 -62.968230231635488 0 0 1 0 0 0 0 -1 forward_v I I I I #
coedge $-1 $311 $211 $312 $313 forward $126 $-1 #
coedge $-1 $314 $128 $311 $315 forward $81 $-1 #
coedge $-1 $128 $314 $316 $317 forward $81 $-1 #
coedge $-1 $214 $213 $128 $207 reversed $215 $-1 #
edge $-1 $318 -27.370531521535725 $319 27.370531521535725 $206 $320 forward 7 unknown #
coedge $-1 $130 $129 $321 $322 forward $51 $-1 #
coedge $-1 $323 $324 $129 $210 reversed $308 $-1 #
edge $-1 $217 -62.968230231635488 $325 62.968230231635488 $209 $326 forward 7 unknown #
coedge $-1 $203 $327 $130 $212 reversed $126 $-1 #
edge $-1 $328 -62.968230231635488 $216 62.968230231635488 $211 $329 forward 7 unknown #
coedge $-1 $206 $131 $327 $330 forward $215 $-1 #
coedge $-1 $131 $206 $323 $331 reversed $215 $-1 #
loop $-1 $-1 $213 $307 #
vertex $-1 $132 $332 #
vertex $-1 $132 $333 #
straight-curve $-1 62.968230231635488 0 10.461896392548185 0 1 0 I I #
face $-1 $334 $335 $31 $-1 $336 reversed single #
loop $-1 $-1 $337 $133 #
plane-surface $-1 -62.968230231635488 0 0 1 0 0 0 0 -1 forward_v I I I I #
coedge $-1 $338 $339 $224 $340 reversed $134 $-1 #
coedge $-1 $341 $136 $342 $343 reversed $85 $-1 #
coedge $-1 $136 $341 $222 $340 forward $85 $-1 #
coedge $-1 $233 $232 $136 $226 forward $234 $-1 #
edge $-1 $344 -16.282355631045082 $345 -5.8939961499362035 $225 $346 forward 7 unknown #
coedge $-1 $138 $137 $337 $347 reversed $54 $-1 #
coedge $-1 $339 $338 $137 $229 reversed $134 $-1 #
edge $-1 $235 -62.968230231635488 $348 62.968230231635488 $228 $349 forward 7 unknown #
coedge $-1 $350 $351 $138 $231 forward $335 $-1 #
edge $-1 $236 -62.968230231635488 $352 62.968230231635488 $230 $353 forward 7 unknown #
coedge $-1 $225 $139 $351 $354 forward $234 $-1 #
coedge $-1 $139 $225 $339 $355 forward $234 $-1 #
loop $-1 $-1 $139 $334 #
vertex $-1 $140 $356 #
vertex $-1 $354 $357 #
straight-curve $-1 62.968230231635488 -11.088175890490643 8.0722901160250284 0 -1 0 I I #
face $-1 $358 $359 $32 $-1 $360 reversed single #
loop $-1 $-1 $147 $141 #
plane-surface $-1 62.968230231635488 0 0 -1 0 0 0 0 1 forward_v I I I I #
coedge $-1 $361 $249 $362 $363 reversed $142 $-1 #
coedge $-1 $364 $144 $361 $365 forward $89 $-1 #
coedge $-1 $144 $364 $366 $367 reversed $89 $-1 #
coedge $-1 $252 $251 $144 $245 forward $239 $-1 #
edge $-1 $368 5.8939961499362035 $369 16.282355631045082 $244 $370 forward 7 unknown #
coedge $-1 $146 $145 $371 $372 reversed $57 $-1 #
coedge $-1 $373 $374 $145 $248 forward $375 $-1 #
edge $-1 $376 -62.968230231635488 $253 62.968230231635488 $247 $377 forward 7 unknown #
coedge $-1 $241 $378 $146 $250 reversed $142 $-1 #
edge $-1 $379 -62.968230231635488 $254 62.968230231635488 $249 $380 forward 7 unknown #
coedge $-1 $244 $147 $378 $381 forward $239 $-1 #
coedge $-1 $147 $244 $373 $382 reversed $239 $-1 #
vertex $-1 $382 $383 #
vertex $-1 $148 $384 #
straight-curve $-1 62.968230231635488 11.088175890490643 8.0722901160250284 0 -1 0 I I #
face $-1 $-1 $385 $33 $-1 $386 forward single #
loop $-1 $-1 $267 $149 #
plane-surface $-1 62.968230231635488 0 0 -1 0 0 0 0 1 forward_v I I I I #
coedge $-1 $387 $388 $153 $265 reversed $150 $-1 #
coedge $-1 $261 $152 $154 $266 reversed $93 $-1 #
coedge $-1 $152 $260 $389 $390 reversed $93 $-1 #
coedge $-1 $391 $155 $152 $263 forward $257 $-1 #
edge $-1 $269 -87.495801088538954 $392 -79.16769690150781 $262 $393 forward 7 unknown #
coedge $-1 $154 $153 $394 $395 reversed $60 $-1 #
edge $-1 $268 -125.93646046327098 $396 -112.70297208110784 $259 $397 forward 7 unknown #
edge $-1 $398 112.70297208110784 $269 125.93646046327098 $260 $399 forward 7 unknown #
coedge $-1 $155 $391 $387 $400 forward $257 $-1 #
vertex $-1 $156 $401 #
vertex $-1 $156 $402 #
straight-curve $-1 62.968230231635488 -6.0003024472170328 2.1337922055170324 0 1 0 I I #
coedge $-1 $271 $271 $-1 $403 reversed $159 $-1 #
edge $-1 $404 0 $404 6.2831853071796004 $160 $405 forward 7 unknown #
vertex $-1 $163 $406 #
ellipse-curve $-1 57.82605424741439 -14.135562242716684 6.2978442990326098 0.62932039886446345 0 0.77714595512881146 0.38857297756440573 0 -0.31466019943223172 1 I I #
coedge $-1 $275 $275 $-1 $407 reversed $166 $-1 #
edge $-1 $408 0 $408 6.2831853071796004 $167 $409 forward 7 unknown #
vertex $-1 $170 $410 #
ellipse-curve $-1 57.82605424741439 -9.8656475461514432 6.2978442990326098 0.62932039886446345 0 0.77714595512881146 0.38857297756440573 0 -0.31466019943223172 1 I I #
face $-1 $-1 $291 $36 $-1 $411 reversed single #
loop $-1 $-1 $412 $171 #
plane-surface $-1 0 0 10.461896392548185 0 0 1 1 0 0 forward_v I I I I #
coedge $-1 $413 $414 $415 $416 reversed $172 $-1 #
coedge $-1 $417 $174 $176 $289 forward $107 $-1 #
coedge $-1 $174 $417 $413 $418 forward $107 $-1 #
coedge $-1 $415 $177 $174 $286 forward $291 $-1 #
edge $-1 $293 -7.2901098422016339 $419 2.0295489064726375 $285 $420 forward 7 unknown #
coedge $-1 $421 $422 $175 $288 forward $280 $-1 #
edge $-1 $423 -13.789579226710266 $292 -8.1430766493444651 $287 $424 forward 7 unknown #
edge $-1 $293 0 $423 7.2656912644290808 $176 $425 forward 7 unknown #
coedge $-1 $177 $415 $421 $426 reversed $291 $-1 #
loop $-1 $-1 $415 $279 #
vertex $-1 $426 $427 #
vertex $-1 $178 $428 #
straight-curve $-1 -62.968230231635488 9.9203903100661321 51.88022976013108 0 0 -1 I I #
coedge $-1 $295 $295 $-1 $429 reversed $181 $-1 #
edge $-1 $430 0 $430 6.2831853071796004 $182 $431 forward 7 unknown #
vertex $-1 $185 $432 #
ellipse-curve $-1 -60.144978942952584 2.4646633111267136 8.1756725302699103 -0.62932039886446345 0 0.77714595512881146 0.19428648878220287 0 0.15733009971611586 1 I I #
coedge $-1 $299 $299 $-1 $433 reversed $188 $-1 #
edge $-1 $434 0 $434 6.2831853071796004 $189 $435 forward 7 unknown #
vertex $-1 $192 $436 #
ellipse-curve $-1 -60.144978942952584 5.2605609357289964 8.1756725302699103 -0.62932039886446345 0 0.77714595512881146 0.19428648878220287 0 0.15733009971611586 1 I I #
coedge $-1 $303 $303 $-1 $437 reversed $195 $-1 #
edge $-1 $438 0 $438 6.2831853071796004 $196 $439 forward 7 unknown #
vertex $-1 $199 $440 #
ellipse-curve $-1 -60.144978942952584 8.0564585603312793 8.1756725302699103 -0.62932039886446345 0 0.77714595512881146 0.19428648878220287 0 0.15733009971611586 1 I I #
face $-1 $-1 $215 $30 $-1 $441 reversed single #
loop $-1 $-1 $323 $200 #
plane-surface $-1 0 27.370531521535725 0 0 -1 0 0 0 -1 forward_v I I I I #
coedge $-1 $442 $321 $324 $443 forward $201 $-1 #
coedge $-1 $327 $203 $204 $315 reversed $126 $-1 #
coedge $-1 $321 $442 $203 $313 reversed $201 $-1 #
edge $-1 $328 -10.461896392548185 $444 10.461896392548185 $312 $445 forward 7 unknown #
coedge $-1 $205 $204 $442 $446 forward $81 $-1 #
edge $-1 $319 -62.968230231635488 $444 62.968230231635488 $311 $447 forward 7 unknown #
coedge $-1 $324 $323 $205 $317 reversed $308 $-1 #
edge $-1 $448 -62.968230231635488 $318 62.968230231635488 $316 $449 forward 7 unknown #
vertex $-1 $207 $450 #
vertex $-1 $330 $451 #
straight-curve $-1 62.968230231635488 0 -10.461896392548185 0 -1 0 I I #
coedge $-1 $310 $312 $208 $322 reversed $201 $-1 #
edge $-1 $325 -27.370531521535725 $328 27.370531521535725 $321 $452 forward 7 unknown #
coedge $-1 $316 $209 $214 $331 forward $308 $-1 #
coedge $-1 $209 $316 $310 $443 reversed $308 $-1 #
vertex $-1 $210 $453 #
straight-curve $-1 0 27.370531521535725 10.461896392548185 -1 0 0 I I #
coedge $-1 $211 $311 $213 $330 reversed $126 $-1 #
vertex $-1 $322 $454 #
straight-curve $-1 0 -27.370531521535725 10.461896392548185 1 0 0 I I #
edge $-1 $216 -10.461896392548185 $319 10.461896392548185 $213 $455 forward 7 unknown #
edge $-1 $217 -10.461896392548185 $318 10.461896392548185 $214 $456 forward 7 unknown #
point $-1 62.968230231635488 -27.370531521535725 10.461896392548185 #
point $-1 62.968230231635488 27.370531521535725 10.461896392548185 #
face $-1 $-1 $234 $31 $-1 $457 reversed single #
loop $-1 $-1 $230 $219 #
plane-surface $-1 0 -27.370531521535725 0 0 1 0 0 0 1 forward_v I I I I #
coedge $-1 $458 $459 $227 $347 forward $220 $-1 #
coedge $-1 $228 $222 $458 $460 reversed $134 $-1 #
coedge $-1 $222 $228 $233 $355 reversed $134 $-1 #
edge $-1 $461 -62.968230231635488 $345 62.968230231635488 $222 $462 forward 7 unknown #
coedge $-1 $224 $223 $463 $464 reversed $85 $-1 #
coedge $-1 $351 $350 $223 $343 forward $335 $-1 #
edge $-1 $465 -62.968230231635488 $344 62.968230231635488 $342 $466 forward 7 unknown #
vertex $-1 $343 $467 #
vertex $-1 $226 $468 #
straight-curve $-1 62.968230231635488 -11.088175890490643 2.2236280322829653 0 1 0 I I #
edge $-1 $352 -16.282355631045082 $348 -5.8939961499362035 $337 $469 forward 7 unknown #
vertex $-1 $347 $470 #
straight-curve $-1 0 -16.982172040426846 8.0722901160250284 -1 0 0 I I #
coedge $-1 $342 $230 $459 $471 forward $335 $-1 #
coedge $-1 $230 $342 $232 $354 reversed $335 $-1 #
vertex $-1 $471 $472 #
straight-curve $-1 0 -27.370531521535725 8.0722901160250284 -1 0 0 I I #
edge $-1 $236 -8.0722901160250284 $344 -2.2236280322829653 $232 $473 forward 7 unknown #
edge $-1 $345 -0.3503515047940331 $235 5.49831057894803 $233 $474 forward 7 unknown #
point $-1 62.968230231635488 -16.982172040426846 8.0722901160250284 #
point $-1 62.968230231635488 -27.370531521535725 8.0722901160250284 #
face $-1 $-1 $375 $32 $-1 $475 reversed single #
loop $-1 $-1 $371 $238 #
plane-surface $-1 -62.968230231635488 0 0 1 0 0 0 0 -1 forward_v I I I I #
coedge $-1 $378 $241 $242 $365 reversed $142 $-1 #
coedge $-1 $371 $476 $241 $363 forward $359 $-1 #
edge $-1 $477 -0.3503515047940331 $379 5.49831057894803 $362 $478 forward 7 unknown #
coedge $-1 $243 $242 $476 $479 reversed $89 $-1 #
edge $-1 $368 -62.968230231635488 $477 62.968230231635488 $361 $480 forward 7 unknown #
coedge $-1 $374 $373 $243 $367 forward $375 $-1 #
edge $-1 $369 -62.968230231635488 $481 62.968230231635488 $366 $482 forward 7 unknown #
vertex $-1 $245 $483 #
vertex $-1 $367 $484 #
straight-curve $-1 62.968230231635488 11.088175890490643 2.2236280322829653 0 1 0 I I #
coedge $-1 $485 $362 $246 $372 forward $359 $-1 #
edge $-1 $379 5.8939961499362035 $376 16.282355631045082 $371 $486 forward 7 unknown #
coedge $-1 $366 $247 $252 $382 forward $375 $-1 #
coedge $-1 $247 $366 $485 $487 reversed $375 $-1 #
loop $-1 $-1 $247 $358 #
vertex $-1 $487 $488 #
straight-curve $-1 0 27.370531521535725 8.0722901160250284 1 0 0 I I #
coedge $-1 $249 $361 $251 $381 reversed $142 $-1 #
vertex $-1 $372 $489 #
straight-curve $-1 0 16.982172040426846 8.0722901160250284 1 0 0 I I #
edge $-1 $254 -5.49831057894803 $368 0.3503515047940331 $251 $490 forward 7 unknown #
edge $-1 $253 -8.0722901160250284 $369 -2.2236280322829653 $252 $491 forward 7 unknown #
point $-1 62.968230231635488 27.370531521535725 8.0722901160250284 #
point $-1 62.968230231635488 16.982172040426846 8.0722901160250284 #
loop $-1 $-1 $492 $256 #
plane-surface $-1 0 0 10.461896392548185 0 0 1 1 0 0 forward_v I I I I #
coedge $-1 $388 $259 $267 $400 reversed $150 $-1 #
coedge $-1 $259 $387 $492 $493 reversed $150 $-1 #
coedge $-1 $394 $494 $261 $390 forward $385 $-1 #
edge $-1 $392 -40.792428776790793 $398 -30.508076808348598 $389 $495 forward 7 unknown #
coedge $-1 $267 $262 $494 $496 reversed $257 $-1 #
vertex $-1 $390 $497 #
straight-curve $-1 62.968230231635488 -7.0190377484412858 89.629593294055994 0 0 1 I I #
coedge $-1 $492 $389 $264 $395 forward $385 $-1 #
edge $-1 $398 1.018735301224253 $396 10.981869593209813 $394 $498 forward 7 unknown #
vertex $-1 $493 $499 #
straight-curve $-1 -34.902780620635042 -16.982172040426846 81.388175735841457 -0.77714595512881146 0 0.62932039886446345 I I #
vertex $-1 $395 $500 #
straight-curve $-1 -34.902780620635042 -7.0190377484412858 81.388175735841457 0.77714595512881146 0 -0.62932039886446345 I I #
edge $-1 $501 79.16769690150781 $268 87.495801088538954 $267 $502 forward 7 unknown #
point $-1 62.968230231635488 -16.982172040426846 2.1337922055170395 #
point $-1 62.968230231635488 -7.0190377484412858 2.1337922055170395 #
edge $-1 $503 1 $503 0 $271 $-1 forward 7 unknown #
vertex $-1 $272 $504 #
ellipse-curve $-1 57.196733848549918 -14.135562242716684 5.5206983439037929 0.62932039886446345 0 0.77714595512881146 0.38857297756440573 0 -0.31466019943223172 1 I I #
point $-1 58.214627224978791 -14.135562242716684 5.983184099600372 #
edge $-1 $505 1 $505 0 $275 $-1 forward 7 unknown #
vertex $-1 $276 $506 #
ellipse-curve $-1 57.196733848549918 -9.8656475461514432 5.5206983439037929 0.62932039886446345 0 0.77714595512881146 0.38857297756440573 0 -0.31466019943223172 1 I I #
point $-1 58.214627224978791 -9.8656475461514432 5.983184099600372 #
plane-surface $-1 -62.968230231635488 0 0 1 0 0 0 0 -1 forward_v I I I I #
coedge $-1 $422 $421 $414 $507 forward $280 $-1 #
coedge $-1 $414 $282 $284 $418 reversed $172 $-1 #
coedge $-1 $282 $413 $412 $507 reversed $172 $-1 #
coedge $-1 $290 $285 $282 $416 forward $291 $-1 #
edge $-1 $419 -45.99078109213945 $508 -41.418333367582896 $415 $509 forward 7 unknown #
coedge $-1 $284 $283 $422 $510 reversed $107 $-1 #
edge $-1 $511 -7.2656912644290808 $419 0 $413 $512 forward 7 unknown #
vertex $-1 $286 $513 #
straight-curve $-1 -62.968230231635488 2.6302804678644982 5.8894486679916316 0 -1 0 I I #
coedge $-1 $412 $287 $290 $426 forward $280 $-1 #
coedge $-1 $287 $412 $417 $510 forward $280 $-1 #
vertex $-1 $288 $514 #
straight-curve $-1 -71.111306880979953 9.9203903100661321 10.461896392548184 -1 0 0 I I #
straight-curve $-1 -62.968230231635488 9.9203903100661321 5.8894486679916298 0.77714595512881146 0 0.62932039886446345 I I #
edge $-1 $292 -9.9203903100661321 $508 -0.60073156139186068 $290 $515 forward 7 unknown #
point $-1 -62.968230231635488 9.9203903100661321 10.461896392548185 #
point $-1 -62.968230231635488 9.9203903100661321 5.8894486679916298 #
edge $-1 $516 1 $516 0 $295 $-1 forward 7 unknown #
vertex $-1 $296 $517 #
ellipse-curve $-1 -59.515658544088112 2.4646633111267136 7.398526575141088 -0.62932039886446345 0 0.77714595512881146 0.19428648878220287 0 0.15733009971611586 1 I I #
point $-1 -59.950692454170373 2.4646633111267136 8.3330026299860158 #
edge $-1 $518 1 $518 0 $299 $-1 forward 7 unknown #
vertex $-1 $300 $519 #
ellipse-curve $-1 -59.515658544088112 5.2605609357289964 7.398526575141088 -0.62932039886446345 0 0.77714595512881146 0.19428648878220287 0 0.15733009971611586 1 I I #
point $-1 -59.950692454170373 5.2605609357289964 8.3330026299860158 #
edge $-1 $520 1 $520 0 $303 $-1 forward 7 unknown #
vertex $-1 $304 $521 #
ellipse-curve $-1 -59.515658544088112 8.0564585603312793 7.398526575141088 -0.62932039886446345 0 0.77714595512881146 0.19428648878220287 0 0.15733009971611586 1 I I #
point $-1 -59.950692454170373 8.0564585603312793 8.3330026299860158 #
plane-surface $-1 62.968230231635488 0 0 -1 0 0 0 0 1 forward_v I I I I #
coedge $-1 $312 $310 $314 $446 reversed $201 $-1 #
edge $-1 $325 -10.461896392548185 $448 10.461896392548185 $324 $522 forward 7 unknown #
vertex $-1 $446 $523 #
straight-curve $-1 -62.968230231635488 -27.370531521535725 0 0 0 -1 I I #
edge $-1 $444 -27.370531521535725 $448 27.370531521535725 $442 $524 forward 7 unknown #
straight-curve $-1 0 -27.370531521535725 -10.461896392548185 -1 0 0 I I #
vertex $-1 $317 $525 #
straight-curve $-1 0 27.370531521535725 -10.461896392548185 1 0 0 I I #
point $-1 62.968230231635488 27.370531521535725 -10.461896392548185 #
point $-1 62.968230231635488 -27.370531521535725 -10.461896392548185 #
straight-curve $-1 -62.968230231635488 0 10.461896392548185 0 -1 0 I I #
point $-1 -62.968230231635488 27.370531521535725 10.461896392548185 #
point $-1 -62.968230231635488 -27.370531521535725 10.461896392548185 #
straight-curve $-1 62.968230231635488 -27.370531521535725 0 0 0 -1 I I #
straight-curve $-1 62.968230231635488 27.370531521535725 0 0 0 -1 I I #
plane-surface $-1 62.968230231635488 0 0 -1 0 0 0 0 1 forward_v I I I I #
coedge $-1 $463 $337 $338 $460 forward $220 $-1 #
coedge $-1 $337 $463 $350 $471 reversed $220 $-1 #
edge $-1 $348 -5.49831057894803 $461 0.3503515047940331 $458 $526 forward 7 unknown #
vertex $-1 $464 $527 #
straight-curve $-1 0 -16.982172040426846 2.2236280322829653 1 0 0 I I #
coedge $-1 $459 $458 $341 $464 forward $220 $-1 #
edge $-1 $461 5.8939961499362035 $465 16.282355631045082 $463 $528 forward 7 unknown #
vertex $-1 $343 $529 #
straight-curve $-1 0 -27.370531521535725 2.2236280322829653 1 0 0 I I #
point $-1 62.968230231635488 -27.370531521535725 2.2236280322829653 #
point $-1 62.968230231635488 -16.982172040426846 2.2236280322829653 #
straight-curve $-1 -62.968230231635488 -11.088175890490643 8.0722901160250284 0 1 0 I I #
point $-1 -62.968230231635488 -16.982172040426846 8.0722901160250284 #
edge $-1 $352 -8.0722901160250284 $465 -2.2236280322829653 $459 $530 forward 7 unknown #
point $-1 -62.968230231635488 -27.370531521535725 8.0722901160250284 #
straight-curve $-1 62.968230231635488 -27.370531521535725 0 0 0 -1 I I #
straight-curve $-1 62.968230231635488 -16.982172040426846 2.5739795370769984 0 0 1 I I #
plane-surface $-1 0 27.370531521535725 0 0 -1 0 0 0 -1 forward_v I I I I #
coedge $-1 $362 $485 $364 $479 forward $359 $-1 #
vertex $-1 $479 $531 #
straight-curve $-1 -62.968230231635488 16.982172040426846 2.5739795370769984 0 0 1 I I #
edge $-1 $481 -16.282355631045082 $477 -5.8939961499362035 $476 $532 forward 7 unknown #
straight-curve $-1 0 16.982172040426846 2.2236280322829653 -1 0 0 I I #
vertex $-1 $367 $533 #
straight-curve $-1 0 27.370531521535725 2.2236280322829653 -1 0 0 I I #
point $-1 62.968230231635488 16.982172040426846 2.2236280322829653 #
point $-1 62.968230231635488 27.370531521535725 2.2236280322829653 #
coedge $-1 $476 $371 $374 $487 forward $359 $-1 #
straight-curve $-1 -62.968230231635488 11.088175890490643 8.0722901160250284 0 1 0 I I #
edge $-1 $376 -8.0722901160250284 $481 -2.2236280322829653 $374 $534 forward 7 unknown #
point $-1 -62.968230231635488 27.370531521535725 8.0722901160250284 #
point $-1 -62.968230231635488 16.982172040426846 8.0722901160250284 #
straight-curve $-1 62.968230231635488 16.982172040426846 2.5739795370769984 0 0 -1 I I #
straight-curve $-1 62.968230231635488 27.370531521535725 0 0 0 -1 I I #
coedge $-1 $494 $394 $388 $493 forward $385 $-1 #
edge $-1 $396 30.508076808348598 $501 40.792428776790793 $492 $535 forward 7 unknown #
coedge $-1 $389 $492 $391 $496 forward $385 $-1 #
straight-curve $-1 22.175801454844695 -7.0190377484412858 10.461896392548184 -1 0 0 I I #
edge $-1 $501 -16.982172040426846 $392 -7.0190377484412858 $391 $536 forward 7 unknown #
point $-1 62.968230231635488 -7.0190377484412858 10.461896392548185 #
straight-curve $-1 52.683878263193293 -6.0003024472170328 10.461896392548176 0 -1 0 I I #
point $-1 52.683878263193293 -16.982172040426846 10.461896392548184 #
point $-1 52.683878263193293 -7.0190377484412858 10.461896392548184 #
vertex $-1 $496 $537 #
straight-curve $-1 62.968230231635488 -16.982172040426846 89.629593294055994 0 0 -1 I I #
vertex $-1 $403 $538 #
point $-1 57.585306826114326 -14.135562242716684 5.2060381444715613 #
vertex $-1 $407 $539 #
point $-1 57.585306826114326 -9.8656475461514432 5.2060381444715613 #
edge $-1 $508 8.1430766493444651 $511 13.789579226710266 $412 $540 forward 7 unknown #
vertex $-1 $507 $541 #
straight-curve $-1 -62.968230231635488 0.60073156139186068 51.88022976013108 0 0 1 I I #
edge $-1 $511 -2.0295489064726375 $423 7.2901098422016339 $422 $542 forward 7 unknown #
vertex $-1 $510 $543 #
straight-curve $-1 -62.968230231635488 0.60073156139186068 5.8894486679916298 -0.77714595512881146 0 -0.62932039886446345 I I #
point $-1 -62.968230231635488 0.60073156139186068 5.8894486679916298 #
point $-1 -57.321727654269687 9.9203903100661321 10.461896392548185 #
straight-curve $-1 -62.968230231635488 0 10.461896392548185 0 -1 0 I I #
vertex $-1 $429 $544 #
point $-1 -59.321372055305908 2.4646633111267136 7.5558566748572042 #
vertex $-1 $433 $545 #
point $-1 -59.321372055305908 5.2605609357289964 7.5558566748572042 #
vertex $-1 $437 $546 #
point $-1 -59.321372055305908 8.0564585603312793 7.5558566748572042 #
straight-curve $-1 -62.968230231635488 27.370531521535725 0 0 0 -1 I I #
point $-1 -62.968230231635488 -27.370531521535725 -10.461896392548185 #
straight-curve $-1 -62.968230231635488 0 -10.461896392548185 0 1 0 I I #
point $-1 -62.968230231635488 27.370531521535725 -10.461896392548185 #
straight-curve $-1 -62.968230231635488 -16.982172040426846 2.5739795370769984 0 0 -1 I I #
point $-1 -62.968230231635488 -16.982172040426846 2.2236280322829653 #
straight-curve $-1 -62.968230231635488 -11.088175890490643 2.2236280322829653 0 -1 0 I I #
point $-1 -62.968230231635488 -27.370531521535725 2.2236280322829653 #
straight-curve $-1 -62.968230231635488 -27.370531521535725 0 0 0 -1 I I #
point $-1 -62.968230231635488 16.982172040426846 2.2236280322829653 #
straight-curve $-1 -62.968230231635488 11.088175890490643 2.2236280322829653 0 -1 0 I I #
point $-1 -62.968230231635488 27.370531521535725 2.2236280322829653 #
straight-curve $-1 -62.968230231635488 27.370531521535725 0 0 0 -1 I I #
straight-curve $-1 22.175801454844695 -16.982172040426846 10.461896392548184 1 0 0 I I #
straight-curve $-1 62.968230231635488 0 10.461896392548185 0 1 0 I I #
point $-1 62.968230231635488 -16.982172040426846 10.461896392548185 #
point $-1 56.882073649117693 -14.135562242716684 5.1321253663393867 #
point $-1 56.882073649117693 -9.8656475461514432 5.1321253663393867 #
straight-curve $-1 -71.111306880979953 0.60073156139186068 10.461896392548184 1 0 0 I I #
point $-1 -62.968230231635488 0.60073156139186068 10.461896392548185 #
straight-curve $-1 -57.321727654269687 2.6302804678644982 10.461896392548184 0 1 0 I I #
point $-1 -57.321727654269687 0.60073156139186068 10.461896392548185 #
point $-1 -59.358328444371992 2.4646633111267136 7.2042400863588858 #
point $-1 -59.358328444371992 5.2605609357289964 7.2042400863588858 #
point $-1 -59.358328444371992 8.0564585603312793 7.2042400863588858 #
End-of-ACIS-data 