500 0 8 0           
7 Unknown 11 ACIS 5.0 NT 24 Fri Mar 26 18:24:46 1999 
-1 9.9999999999999995e-007 1e-010 
body $-1 $8 $-1 $9 #
body $-1 $10 $-1 $11 #
body $-1 $12 $-1 $13 #
body $-1 $14 $-1 $15 #
body $-1 $16 $-1 $17 #
body $-1 $18 $-1 $19 #
body $-1 $20 $-1 $21 #
body $-1 $22 $-1 $23 #
lump $-1 $-1 $24 $0 #
transform $-1 1 0 0 0 1 0 0 0 1 55.839106418042547 24.011991606904157 8.8585027418103657 1 rotate no_reflect no_shear #
lump $-1 $-1 $25 $1 #
transform $-1 1 0 0 0 1 0 0 0 1 55.839106418042547 24.011991606904157 8.8585027418103657 1 rotate no_reflect no_shear #
lump $-1 $-1 $26 $2 #
transform $-1 1 0 0 0 1 0 0 0 1 55.839106418042547 24.011991606904157 8.8585027418103657 1 rotate no_reflect no_shear #
lump $-1 $-1 $27 $3 #
transform $-1 1 0 0 0 1 0 0 0 1 55.839106418042547 24.011991606904157 8.8585027418103657 1 rotate no_reflect no_shear #
lump $-1 $-1 $28 $4 #
transform $-1 1 0 0 0 1 0 0 0 1 55.839106418042547 24.011991606904157 8.8585027418103657 1 rotate no_reflect no_shear #
lump $-1 $-1 $29 $5 #
transform $-1 1 0 0 0 1 0 0 0 1 55.839106418042547 24.011991606904157 8.8585027418103657 1 rotate no_reflect no_shear #
lump $-1 $-1 $30 $6 #
transform $-1 1 0 0 0 1 0 0 0 1 55.839106418042547 24.011991606904157 8.8585027418103657 1 rotate no_reflect no_shear #
lump $-1 $-1 $31 $7 #
transform $-1 1 0 0 0 1 0 0 0 1 55.839106418042547 24.011991606904157 8.8585027418103657 1 rotate no_reflect no_shear #
shell $-1 $-1 $-1 $32 $-1 $8 #
shell $-1 $-1 $-1 $33 $-1 $10 #
shell $-1 $-1 $-1 $34 $-1 $12 #
shell $-1 $-1 $-1 $35 $-1 $14 #
shell $-1 $-1 $-1 $36 $-1 $16 #
shell $-1 $-1 $-1 $37 $-1 $18 #
shell $-1 $-1 $-1 $38 $-1 $20 #
shell $-1 $-1 $-1 $39 $-1 $22 #
face $-1 $40 $41 $24 $-1 $42 forward single #
face $-1 $43 $44 $25 $-1 $45 reversed single #
face $-1 $46 $47 $26 $-1 $48 reversed single #
face $-1 $49 $50 $27 $-1 $51 forward single #
face $-1 $52 $53 $28 $-1 $54 reversed single #
face $-1 $55 $56 $29 $-1 $57 forward single #
face $-1 $58 $59 $30 $-1 $60 reversed single #
face $-1 $61 $62 $31 $-1 $63 forward single #
face $-1 $64 $65 $24 $-1 $66 reversed single #
loop $-1 $-1 $67 $32 #
plane-surface $-1 0 0 8.8585027418103657 0 0 1 1 0 0 forward_v I I I I #
face $-1 $68 $69 $25 $-1 $70 reversed single #
loop $-1 $-1 $71 $33 #
plane-surface $-1 -43.228709970649 -19.943344315779356 0 1 0 0 0 0 -1 forward_v I I I I #
face $-1 $72 $73 $26 $-1 $74 reversed single #
loop $-1 $-1 $75 $34 #
plane-surface $-1 36.591448571909453 -5.3428844079411251 159.45383439624118 0 -1 0 -0.61566148304635926 0 -0.78801074757464917 forward_v I I I I #
face $-1 $76 $77 $27 $-1 $78 forward single #
loop $-1 $79 $80 $35 #
cone-surface $-1 51.352377273057641 -10.60879071629784 5.0829271119626167 -0.61566148304635926 0 -0.78801074757464917 1.1820161213619738 0 -0.92349222456953894 1 I I 0 1 1.5 forward I I I I #
face $-1 $81 $82 $28 $-1 $83 reversed single #
loop $-1 $-1 $84 $36 #
plane-surface $-1 -124.59508055667365 -10.298819997221194 91.788317370629301 0 1 0 -0.61566148304635926 0 0.78801074757464917 forward_v I I I I #
face $-1 $85 $86 $29 $-1 $87 forward single #
loop $-1 $88 $89 $37 #
cone-surface $-1 -51.561957009973099 -6.3806579257464087 5.0031845297474149 0.61566148304635926 0 -0.78801074757464917 1.1820161213619738 0 0.92349222456953894 1 I I 0 1 1.5 forward I I I I #
face $-1 $90 $91 $30 $-1 $92 reversed single #
loop $-1 $-1 $93 $38 #
plane-surface $-1 -124.59508055667365 10.599790436521232 91.788317370629301 0 1 0 -0.61566148304635926 0 0.78801074757464917 forward_v I I I I #
face $-1 $94 $95 $31 $-1 $96 forward single #
loop $-1 $97 $98 $39 #
cone-surface $-1 -51.561957009973099 14.517952507996018 5.0031845297474149 0.61566148304635926 0 -0.78801074757464917 1.1820161213619738 0 0.92349222456953894 1 I I 0 1 1.5 forward I I I I #
face $-1 $99 $100 $24 $-1 $101 reversed single #
loop $-1 $-1 $102 $40 #
plane-surface $-1 0 0 -8.8585027418103657 0 0 1 1 0 0 forward_v I I I I #
coedge $-1 $103 $104 $105 $106 forward $41 $-1 #
face $-1 $107 $108 $25 $-1 $109 reversed single #
loop $-1 $-1 $110 $43 #
plane-surface $-1 -40.675405452535408 -15.874697024654555 0 0 -1 0 0 0 -1 forward_v I I I I #
coedge $-1 $111 $112 $113 $114 forward $44 $-1 #
face $-1 $115 $116 $26 $-1 $117 reversed single #
loop $-1 $-1 $118 $46 #
plane-surface $-1 -32.16452556672165 -10.60879071629784 71.45020241147698 0.61566148304635926 0 0.78801074757464917 0.78801074757464917 0 -0.61566148304635926 forward_v I I I I #
coedge $-1 $119 $120 $121 $122 reversed $47 $-1 #
face $-1 $-1 $123 $27 $-1 $124 forward single #
loop $-1 $125 $126 $49 #
cone-surface $-1 50.348857698664645 -10.60879071629784 3.7984806559161335 -0.61566148304635926 0 -0.78801074757464917 0.59100806068098688 0 -0.46174611228476947 1 I I -0.70710678118654757 0.70710678118654757 0.75 forward I I I I #
loop $-1 $-1 $127 $35 #
coedge $-1 $80 $80 $128 $129 reversed $50 $-1 #
face $-1 $130 $131 $28 $-1 $132 reversed single #
loop $-1 $-1 $133 $52 #
plane-surface $-1 -55.839106418042547 -6.3806579257464087 3.7846853858651031 -0.61566148304635926 0 0.78801074757464917 0.78801074757464917 0 0.61566148304635926 forward_v I I I I #
coedge $-1 $134 $135 $136 $137 reversed $53 $-1 #
face $-1 $-1 $138 $29 $-1 $139 forward single #
loop $-1 $140 $141 $55 #
cone-surface $-1 -50.070156458051883 -6.3806579257464087 3.0937669349761112 0.61566148304635926 0 -0.78801074757464917 0.59100806068098688 0 0.46174611228476947 1 I I -0.70710678118654768 0.70710678118654735 0.75 forward I I I I #
loop $-1 $-1 $142 $37 #
coedge $-1 $89 $89 $143 $144 reversed $56 $-1 #
face $-1 $145 $146 $30 $-1 $147 reversed single #
loop $-1 $-1 $148 $58 #
plane-surface $-1 -55.839106418042547 14.517952507996018 3.7846853858651031 -0.61566148304635926 0 0.78801074757464917 0.78801074757464917 0 0.61566148304635926 forward_v I I I I #
coedge $-1 $149 $150 $151 $152 reversed $59 $-1 #
face $-1 $-1 $153 $31 $-1 $154 forward single #
loop $-1 $155 $156 $61 #
cone-surface $-1 -50.070156458051883 14.517952507996018 3.0937669349761112 0.61566148304635926 0 -0.78801074757464917 0.59100806068098688 0 0.46174611228476947 1 I I -0.70710678118654768 0.70710678118654735 0.75 forward I I I I #
loop $-1 $-1 $157 $39 #
coedge $-1 $98 $98 $158 $159 reversed $62 $-1 #
face $-1 $160 $161 $24 $-1 $162 reversed single #
loop $-1 $-1 $163 $64 #
plane-surface $-1 0 -24.011991606904157 0 0 1 0 0 0 1 forward_v I I I I #
coedge $-1 $164 $165 $166 $167 forward $65 $-1 #
coedge $-1 $168 $67 $169 $170 forward $41 $-1 #
coedge $-1 $67 $168 $171 $172 forward $41 $-1 #
coedge $-1 $173 $174 $67 $106 reversed $175 $-1 #
edge $-1 $176 -24.011991606904157 $177 24.011991606904157 $105 $178 forward 7 unknown #
face $-1 $179 $180 $25 $-1 $181 forward single #
loop $-1 $-1 $182 $68 #
plane-surface $-1 -38.122100934421816 -19.943344315779356 0 -1 0 0 0 0 1 forward_v I I I I #
coedge $-1 $183 $184 $185 $186 forward $69 $-1 #
coedge $-1 $187 $71 $188 $189 reversed $44 $-1 #
coedge $-1 $71 $187 $190 $191 reversed $44 $-1 #
coedge $-1 $184 $183 $71 $114 reversed $69 $-1 #
edge $-1 $192 -8.8585027418103657 $193 8.8585027418103657 $113 $194 forward 7 unknown #
face $-1 $195 $196 $26 $-1 $197 reversed single #
loop $-1 $-1 $198 $72 #
plane-surface $-1 36.591448571909453 -15.874697024654555 159.45383439624118 0 1 0 0.61566148304635926 0 0.78801074757464917 forward_v I I I I #
coedge $-1 $199 $200 $201 $202 reversed $73 $-1 #
coedge $-1 $120 $75 $203 $204 reversed $47 $-1 #
coedge $-1 $75 $119 $199 $205 reversed $47 $-1 #
coedge $-1 $201 $206 $75 $122 forward $207 $-1 #
edge $-1 $208 -37.543382132087821 $209 -29.653470766334458 $121 $210 forward 7 unknown #
loop $-1 $-1 $128 $76 #
plane-surface $-1 -32.16452556672165 -10.60879071629784 71.45020241147698 0.61566148304635926 0 0.78801074757464917 0.78801074757464917 0 -0.61566148304635926 forward_v I I I I #
loop $-1 $-1 $211 $49 #
coedge $-1 $126 $126 $127 $212 reversed $77 $-1 #
coedge $-1 $127 $127 $126 $212 forward $79 $-1 #
coedge $-1 $128 $128 $80 $129 forward $123 $-1 #
edge $-1 $213 0 $213 6.2831853071796004 $128 $214 forward 7 unknown #
face $-1 $215 $216 $28 $-1 $217 reversed single #
loop $-1 $-1 $218 $81 #
plane-surface $-1 -124.59508055667365 -2.4624958542716229 91.788317370629301 0 -1 0 0.61566148304635926 0 -0.78801074757464917 forward_v I I I I #
coedge $-1 $219 $220 $221 $222 reversed $82 $-1 #
coedge $-1 $135 $84 $223 $224 reversed $53 $-1 #
coedge $-1 $84 $134 $219 $225 reversed $53 $-1 #
coedge $-1 $221 $226 $84 $137 forward $227 $-1 #
edge $-1 $228 6.4584338602942779 $229 12.952623797160264 $136 $230 forward 7 unknown #
loop $-1 $-1 $143 $85 #
plane-surface $-1 -55.839106418042547 -6.3806579257464087 3.7846853858651031 -0.61566148304635926 0 0.78801074757464917 0.78801074757464917 0 0.61566148304635926 forward_v I I I I #
loop $-1 $-1 $231 $55 #
coedge $-1 $141 $141 $142 $232 reversed $86 $-1 #
coedge $-1 $142 $142 $141 $232 forward $88 $-1 #
coedge $-1 $143 $143 $89 $144 forward $138 $-1 #
edge $-1 $233 0 $233 6.2831853071796004 $143 $234 forward 7 unknown #
face $-1 $235 $236 $30 $-1 $237 forward single #
loop $-1 $-1 $238 $90 #
plane-surface $-1 -124.59508055667365 18.436114579470804 91.788317370629301 0 -1 0 0.61566148304635926 0 -0.78801074757464917 forward_v I I I I #
coedge $-1 $239 $240 $241 $242 reversed $91 $-1 #
coedge $-1 $150 $93 $243 $244 reversed $59 $-1 #
coedge $-1 $93 $149 $239 $245 reversed $59 $-1 #
coedge $-1 $241 $246 $93 $152 forward $236 $-1 #
edge $-1 $247 6.4584338602942779 $248 12.952623797160264 $151 $249 forward 7 unknown #
loop $-1 $-1 $158 $94 #
plane-surface $-1 -55.839106418042547 14.517952507996018 3.7846853858651031 -0.61566148304635926 0 0.78801074757464917 0.78801074757464917 0 0.61566148304635926 forward_v I I I I #
loop $-1 $-1 $250 $61 #
coedge $-1 $156 $156 $157 $251 reversed $95 $-1 #
coedge $-1 $157 $157 $156 $251 forward $97 $-1 #
coedge $-1 $158 $158 $98 $159 forward $153 $-1 #
edge $-1 $252 0 $252 6.2831853071796004 $158 $253 forward 7 unknown #
face $-1 $254 $255 $24 $-1 $256 reversed single #
loop $-1 $-1 $257 $99 #
plane-surface $-1 -55.839106418042547 0 0 1 0 0 0 0 -1 forward_v I I I I #
coedge $-1 $258 $171 $259 $260 forward $100 $-1 #
coedge $-1 $261 $102 $258 $262 forward $65 $-1 #
coedge $-1 $102 $261 $263 $264 forward $65 $-1 #
coedge $-1 $174 $173 $102 $167 reversed $175 $-1 #
edge $-1 $265 -24.011991606904157 $266 24.011991606904157 $166 $267 forward 7 unknown #
coedge $-1 $104 $103 $268 $269 forward $41 $-1 #
coedge $-1 $270 $271 $103 $170 reversed $255 $-1 #
edge $-1 $177 -55.839106418042547 $272 55.839106418042547 $169 $273 forward 7 unknown #
coedge $-1 $163 $274 $104 $172 reversed $100 $-1 #
edge $-1 $275 -55.839106418042547 $176 55.839106418042547 $171 $276 forward 7 unknown #
coedge $-1 $166 $105 $274 $277 forward $175 $-1 #
coedge $-1 $105 $166 $270 $278 reversed $175 $-1 #
loop $-1 $-1 $173 $254 #
vertex $-1 $106 $279 #
vertex $-1 $106 $280 #
straight-curve $-1 55.839106418042547 0 8.8585027418103657 0 1 0 I I #
face $-1 $281 $282 $25 $-1 $283 reversed single #
loop $-1 $-1 $284 $107 #
plane-surface $-1 0 0 8.8585027418103657 0 0 1 1 0 0 forward_v I I I I #
coedge $-1 $285 $286 $287 $288 reversed $108 $-1 #
coedge $-1 $113 $110 $289 $290 reversed $69 $-1 #
coedge $-1 $110 $113 $291 $292 reversed $69 $-1 #
coedge $-1 $286 $285 $110 $186 reversed $108 $-1 #
edge $-1 $293 -8.8585027418103657 $294 8.8585027418103657 $185 $295 forward 7 unknown #
coedge $-1 $112 $111 $296 $297 reversed $44 $-1 #
coedge $-1 $289 $298 $111 $189 forward $282 $-1 #
edge $-1 $299 -14.040319449014479 $193 -5.903024866764877 $188 $300 forward 7 unknown #
coedge $-1 $301 $291 $112 $191 forward $180 $-1 #
edge $-1 $192 5.903024866764877 $302 14.040319449014479 $190 $303 forward 7 unknown #
vertex $-1 $191 $304 #
vertex $-1 $189 $305 #
straight-curve $-1 -43.228709970649 -15.874697024654555 0 0 0 -1 I I #
face $-1 $-1 $207 $26 $-1 $306 forward single #
loop $-1 $-1 $307 $115 #
plane-surface $-1 55.839106418042547 0 0 -1 0 0 0 0 1 forward_v I I I I #
coedge $-1 $308 $309 $310 $311 reversed $116 $-1 #
coedge $-1 $312 $118 $120 $205 forward $73 $-1 #
coedge $-1 $118 $312 $308 $313 forward $73 $-1 #
coedge $-1 $310 $121 $118 $202 forward $207 $-1 #
edge $-1 $209 0.038489049792205243 $314 10.570301666505635 $201 $315 forward 7 unknown #
coedge $-1 $316 $317 $119 $204 forward $196 $-1 #
edge $-1 $318 -77.032688925274712 $208 -70.868414456310219 $203 $319 forward 7 unknown #
edge $-1 $209 101.66577152099256 $318 111.67821283608509 $120 $320 forward 7 unknown #
coedge $-1 $121 $310 $316 $321 forward $207 $-1 #
loop $-1 $-1 $310 $195 #
vertex $-1 $204 $322 #
vertex $-1 $122 $323 #
straight-curve $-1 18.295724285954726 -5.3428844079411251 8.8585027418103692 -1 0 0 I I #
coedge $-1 $211 $211 $-1 $324 reversed $125 $-1 #
edge $-1 $325 0 $325 6.2831853071796004 $126 $326 forward 7 unknown #
vertex $-1 $129 $327 #
ellipse-curve $-1 51.894150735165873 -10.60879071629784 5.776365507328121 0.61566148304635926 0 0.78801074757464917 1.1820161213619738 0 -0.92349222456953894 1 I I #
face $-1 $-1 $227 $28 $-1 $328 forward single #
loop $-1 $-1 $329 $130 #
plane-surface $-1 -55.839106418042547 0 0 1 0 0 0 0 -1 forward_v I I I I #
coedge $-1 $330 $331 $332 $333 reversed $131 $-1 #
coedge $-1 $334 $133 $135 $225 forward $82 $-1 #
coedge $-1 $133 $334 $330 $335 forward $82 $-1 #
coedge $-1 $332 $136 $133 $222 forward $227 $-1 #
edge $-1 $229 -7.1084910343479901 $336 0.72783310860158146 $221 $337 forward 7 unknown #
coedge $-1 $338 $339 $134 $224 forward $216 $-1 #
edge $-1 $340 -42.109473299449547 $228 -37.035655943504281 $223 $341 forward 7 unknown #
edge $-1 $229 -8.2412453851091474 $340 0 $135 $342 forward 7 unknown #
coedge $-1 $136 $332 $338 $343 forward $227 $-1 #
loop $-1 $-1 $332 $215 #
vertex $-1 $224 $344 #
vertex $-1 $137 $345 #
straight-curve $-1 -62.297540278336825 -10.298819997221194 8.8585027418103621 1 0 0 I I #
coedge $-1 $231 $231 $-1 $346 reversed $140 $-1 #
edge $-1 $347 0 $347 6.2831853071796004 $141 $348 forward 7 unknown #
vertex $-1 $144 $349 #
ellipse-curve $-1 -52.592011449609551 -6.3806579257464087 6.3215940638377361 -0.61566148304635926 0 0.78801074757464917 1.1820161213619738 0 0.92349222456953894 1 I I #
face $-1 $-1 $350 $30 $-1 $351 reversed single #
loop $-1 $-1 $151 $145 #
plane-surface $-1 0 0 8.8585027418103657 0 0 1 1 0 0 forward_v I I I I #
coedge $-1 $352 $353 $354 $355 reversed $146 $-1 #
coedge $-1 $356 $148 $150 $245 forward $91 $-1 #
coedge $-1 $148 $356 $352 $357 forward $91 $-1 #
coedge $-1 $354 $151 $148 $242 forward $236 $-1 #
edge $-1 $248 3.3408141825232232 $358 11.177138325472795 $241 $359 forward 7 unknown #
coedge $-1 $360 $361 $149 $244 forward $350 $-1 #
edge $-1 $362 -42.109473299449547 $247 -37.035655943504281 $243 $363 forward 7 unknown #
edge $-1 $248 -8.2412453851091474 $362 0 $150 $364 forward 7 unknown #
coedge $-1 $151 $354 $360 $365 forward $236 $-1 #
vertex $-1 $244 $366 #
vertex $-1 $152 $367 #
straight-curve $-1 -62.297540278336825 10.599790436521232 8.8585027418103621 1 0 0 I I #
coedge $-1 $250 $250 $-1 $368 reversed $155 $-1 #
edge $-1 $369 0 $369 6.2831853071796004 $156 $370 forward 7 unknown #
vertex $-1 $159 $371 #
ellipse-curve $-1 -52.592011449609551 14.517952507996018 6.3215940638377361 -0.61566148304635926 0 0.78801074757464917 1.1820161213619738 0 0.92349222456953894 1 I I #
face $-1 $-1 $175 $24 $-1 $372 reversed single #
loop $-1 $-1 $270 $160 #
plane-surface $-1 0 24.011991606904157 0 0 -1 0 0 0 -1 forward_v I I I I #
coedge $-1 $373 $268 $271 $374 forward $161 $-1 #
coedge $-1 $274 $163 $164 $262 reversed $100 $-1 #
coedge $-1 $268 $373 $163 $260 reversed $161 $-1 #
edge $-1 $275 -8.8585027418103657 $375 8.8585027418103657 $259 $376 forward 7 unknown #
coedge $-1 $165 $164 $373 $377 forward $65 $-1 #
edge $-1 $266 -55.839106418042547 $375 55.839106418042547 $258 $378 forward 7 unknown #
coedge $-1 $271 $270 $165 $264 reversed $255 $-1 #
edge $-1 $379 -55.839106418042547 $265 55.839106418042547 $263 $380 forward 7 unknown #
vertex $-1 $167 $381 #
vertex $-1 $277 $382 #
straight-curve $-1 55.839106418042547 0 -8.8585027418103657 0 -1 0 I I #
coedge $-1 $257 $259 $168 $269 reversed $161 $-1 #
edge $-1 $272 -24.011991606904157 $275 24.011991606904157 $268 $383 forward 7 unknown #
coedge $-1 $263 $169 $174 $278 forward $255 $-1 #
coedge $-1 $169 $263 $257 $374 reversed $255 $-1 #
vertex $-1 $170 $384 #
straight-curve $-1 0 24.011991606904157 8.8585027418103657 -1 0 0 I I #
coedge $-1 $171 $258 $173 $277 reversed $100 $-1 #
vertex $-1 $269 $385 #
straight-curve $-1 0 -24.011991606904157 8.8585027418103657 1 0 0 I I #
edge $-1 $176 -8.8585027418103657 $266 8.8585027418103657 $173 $386 forward 7 unknown #
edge $-1 $177 -8.8585027418103657 $265 8.8585027418103657 $174 $387 forward 7 unknown #
point $-1 55.839106418042547 -24.011991606904157 8.8585027418103657 #
point $-1 55.839106418042547 24.011991606904157 8.8585027418103657 #
face $-1 $-1 $388 $25 $-1 $389 reversed single #
loop $-1 $-1 $390 $179 #
plane-surface $-1 0 0 -8.8585027418103657 0 0 1 1 0 0 forward_v I I I I #
coedge $-1 $291 $301 $286 $391 forward $180 $-1 #
coedge $-1 $185 $182 $390 $392 reversed $108 $-1 #
coedge $-1 $182 $185 $284 $391 reversed $108 $-1 #
coedge $-1 $393 $394 $182 $288 forward $388 $-1 #
edge $-1 $395 -8.8585027418103657 $396 8.8585027418103657 $287 $397 forward 7 unknown #
coedge $-1 $390 $188 $183 $290 forward $282 $-1 #
edge $-1 $193 -22.891007244381296 $294 -17.784398208154112 $289 $398 forward 7 unknown #
coedge $-1 $190 $284 $184 $292 forward $180 $-1 #
edge $-1 $293 17.784398208154112 $192 22.891007244381296 $291 $399 forward 7 unknown #
vertex $-1 $292 $400 #
vertex $-1 $290 $401 #
straight-curve $-1 -38.122100934421816 -15.874697024654555 0 0 0 -1 I I #
coedge $-1 $394 $393 $187 $297 forward $388 $-1 #
edge $-1 $302 -8.8585027418103657 $299 8.8585027418103657 $296 $402 forward 7 unknown #
coedge $-1 $188 $390 $394 $403 forward $282 $-1 #
vertex $-1 $189 $404 #
straight-curve $-1 -43.228709970649 -9.9716721578896781 -8.8585027418103657 0 1 0 I I #
coedge $-1 $284 $190 $393 $405 forward $180 $-1 #
vertex $-1 $405 $406 #
straight-curve $-1 -43.228709970649 -9.9716721578896781 8.8585027418103657 0 -1 0 I I #
point $-1 -43.228709970649 -15.874697024654555 8.8585027418103657 #
point $-1 -43.228709970649 -15.874697024654555 -8.8585027418103657 #
plane-surface $-1 0 0 8.8585027418103657 0 0 1 1 0 0 forward_v I I I I #
coedge $-1 $317 $316 $309 $407 forward $196 $-1 #
coedge $-1 $309 $198 $200 $313 reversed $116 $-1 #
coedge $-1 $198 $308 $307 $407 reversed $116 $-1 #
coedge $-1 $206 $201 $198 $311 forward $207 $-1 #
edge $-1 $314 29.653470766334458 $408 37.543382132087821 $310 $409 forward 7 unknown #
coedge $-1 $200 $199 $317 $410 reversed $73 $-1 #
edge $-1 $411 -111.67821283608509 $314 -101.66577152099256 $308 $412 forward 7 unknown #
vertex $-1 $202 $413 #
straight-curve $-1 47.949195052289191 -5.3043953581489198 8.8585027418103621 0 -1 0 I I #
coedge $-1 $307 $203 $206 $321 reversed $196 $-1 #
coedge $-1 $203 $307 $312 $410 forward $196 $-1 #
vertex $-1 $204 $414 #
straight-curve $-1 55.839106418042547 -5.3428844079411251 79.726917198120589 0 0 1 I I #
straight-curve $-1 -32.16452556672165 -5.3428844079411251 71.45020241147698 0.78801074757464917 0 -0.61566148304635926 I I #
edge $-1 $408 -15.874697024654555 $208 -5.3428844079411251 $316 $415 forward 7 unknown #
point $-1 55.839106418042547 -5.3428844079411251 8.8585027418103657 #
point $-1 47.949195052289184 -5.3428844079411251 8.8585027418103763 #
edge $-1 $416 1 $416 0 $211 $-1 forward 7 unknown #
vertex $-1 $212 $417 #
ellipse-curve $-1 50.810603810949416 -10.60879071629784 4.3894887165971204 0.61566148304635926 0 0.78801074757464917 1.1820161213619738 0 -0.92349222456953894 1 I I #
point $-1 53.076166856527841 -10.60879071629784 4.8528732827585745 #
plane-surface $-1 0 0 8.8585027418103657 0 0 1 1 0 0 forward_v I I I I #
coedge $-1 $339 $338 $331 $418 forward $216 $-1 #
coedge $-1 $331 $218 $220 $335 reversed $131 $-1 #
coedge $-1 $218 $330 $329 $418 reversed $131 $-1 #
coedge $-1 $226 $221 $218 $333 forward $227 $-1 #
edge $-1 $336 -12.952623797160264 $419 -6.4584338602942779 $332 $420 forward 7 unknown #
coedge $-1 $220 $219 $339 $421 reversed $82 $-1 #
edge $-1 $422 0 $336 8.2412453851091474 $330 $423 forward 7 unknown #
vertex $-1 $222 $424 #
straight-curve $-1 -49.344916481176561 -3.1903289628732043 8.8585027418103639 0 1 0 I I #
coedge $-1 $329 $223 $226 $343 reversed $216 $-1 #
coedge $-1 $223 $329 $334 $421 forward $216 $-1 #
vertex $-1 $224 $425 #
straight-curve $-1 -55.839106418042547 -10.298819997221194 45.89415868531465 0 0 1 I I #
straight-curve $-1 -55.839106418042547 -10.298819997221194 3.7846853858651031 -0.78801074757464917 0 -0.61566148304635926 I I #
edge $-1 $419 2.4624958542716229 $228 10.298819997221194 $338 $426 forward 7 unknown #
point $-1 -55.839106418042547 -10.298819997221194 8.8585027418103657 #
point $-1 -49.344916481176561 -10.298819997221194 8.8585027418103657 #
edge $-1 $427 1 $427 0 $231 $-1 forward 7 unknown #
vertex $-1 $232 $428 #
ellipse-curve $-1 -50.531902570336655 -6.3806579257464087 3.6847749956570977 -0.61566148304635926 0 0.78801074757464917 1.1820161213619738 0 0.92349222456953894 1 I I #
point $-1 -51.409995328247575 -6.3806579257464087 7.245086288407272 #
loop $-1 $-1 $243 $235 #
plane-surface $-1 -55.839106418042547 0 0 1 0 0 0 0 -1 forward_v I I I I #
coedge $-1 $353 $238 $240 $357 reversed $146 $-1 #
coedge $-1 $238 $352 $429 $430 reversed $146 $-1 #
coedge $-1 $246 $241 $238 $355 forward $236 $-1 #
edge $-1 $358 -12.952623797160264 $431 -6.4584338602942779 $354 $432 forward 7 unknown #
coedge $-1 $240 $239 $361 $433 reversed $91 $-1 #
edge $-1 $434 0 $358 8.2412453851091474 $352 $435 forward 7 unknown #
vertex $-1 $242 $436 #
straight-curve $-1 -49.344916481176561 7.2589762539980089 8.8585027418103639 0 1 0 I I #
coedge $-1 $429 $243 $246 $365 reversed $350 $-1 #
coedge $-1 $243 $429 $356 $433 forward $350 $-1 #
vertex $-1 $244 $437 #
straight-curve $-1 -55.839106418042547 10.599790436521232 45.89415868531465 0 0 1 I I #
straight-curve $-1 -55.839106418042547 10.599790436521232 3.7846853858651031 -0.78801074757464917 0 -0.61566148304635926 I I #
edge $-1 $431 -18.436114579470804 $247 -10.599790436521232 $360 $438 forward 7 unknown #
point $-1 -55.839106418042547 10.599790436521232 8.8585027418103657 #
point $-1 -49.344916481176561 10.599790436521232 8.8585027418103657 #
edge $-1 $439 1 $439 0 $250 $-1 forward 7 unknown #
vertex $-1 $251 $440 #
ellipse-curve $-1 -50.531902570336655 14.517952507996018 3.6847749956570977 -0.61566148304635926 0 0.78801074757464917 1.1820161213619738 0 0.92349222456953894 1 I I #
point $-1 -51.409995328247575 14.517952507996018 7.245086288407272 #
plane-surface $-1 55.839106418042547 0 0 -1 0 0 0 0 1 forward_v I I I I #
coedge $-1 $259 $257 $261 $377 reversed $161 $-1 #
edge $-1 $272 -8.8585027418103657 $379 8.8585027418103657 $271 $441 forward 7 unknown #
vertex $-1 $377 $442 #
straight-curve $-1 -55.839106418042547 -24.011991606904157 0 0 0 -1 I I #
edge $-1 $375 -24.011991606904157 $379 24.011991606904157 $373 $443 forward 7 unknown #
straight-curve $-1 0 -24.011991606904157 -8.8585027418103657 -1 0 0 I I #
vertex $-1 $264 $444 #
straight-curve $-1 0 24.011991606904157 -8.8585027418103657 1 0 0 I I #
point $-1 55.839106418042547 24.011991606904157 -8.8585027418103657 #
point $-1 55.839106418042547 -24.011991606904157 -8.8585027418103657 #
straight-curve $-1 -55.839106418042547 0 8.8585027418103657 0 -1 0 I I #
point $-1 -55.839106418042547 24.011991606904157 8.8585027418103657 #
point $-1 -55.839106418042547 -24.011991606904157 8.8585027418103657 #
straight-curve $-1 55.839106418042547 -24.011991606904157 0 0 0 -1 I I #
straight-curve $-1 55.839106418042547 24.011991606904157 0 0 0 -1 I I #
loop $-1 $-1 $287 $281 #
plane-surface $-1 0 -24.011991606904157 0 0 1 0 0 0 1 forward_v I I I I #
coedge $-1 $298 $289 $285 $392 forward $282 $-1 #
edge $-1 $396 -14.040319449014479 $293 -5.903024866764877 $284 $445 forward 7 unknown #
edge $-1 $294 5.903024866764877 $395 14.040319449014479 $390 $446 forward 7 unknown #
coedge $-1 $296 $287 $301 $405 reversed $388 $-1 #
coedge $-1 $287 $296 $298 $403 reversed $388 $-1 #
vertex $-1 $403 $447 #
vertex $-1 $288 $448 #
straight-curve $-1 -38.122100934421816 -24.011991606904157 0 0 0 1 I I #
straight-curve $-1 -20.337702726267704 -15.874697024654555 -8.8585027418103657 1 0 0 I I #
straight-curve $-1 -20.337702726267704 -15.874697024654555 8.8585027418103657 -1 0 0 I I #
point $-1 -38.122100934421816 -15.874697024654555 8.8585027418103657 #
point $-1 -38.122100934421816 -15.874697024654555 -8.8585027418103657 #
straight-curve $-1 -43.228709970649 -24.011991606904157 0 0 0 -1 I I #
edge $-1 $395 38.122100934421816 $299 43.228709970649 $394 $449 forward 7 unknown #
point $-1 -43.228709970649 -24.011991606904157 -8.8585027418103657 #
edge $-1 $302 -43.228709970649 $396 -38.122100934421816 $393 $450 forward 7 unknown #
point $-1 -43.228709970649 -24.011991606904157 8.8585027418103657 #
edge $-1 $408 70.868414456310219 $411 77.032688925274712 $307 $451 forward 7 unknown #
vertex $-1 $321 $452 #
straight-curve $-1 18.295724285954726 -15.874697024654555 8.8585027418103692 1 0 0 I I #
edge $-1 $411 -10.570301666505635 $318 -0.038489049792205243 $317 $453 forward 7 unknown #
vertex $-1 $410 $454 #
straight-curve $-1 -32.16452556672165 -15.874697024654555 71.45020241147698 -0.78801074757464917 0 0.61566148304635926 I I #
point $-1 47.949195052289184 -15.874697024654555 8.8585027418103763 #
point $-1 55.839106418042547 -5.3428844079411251 2.6942282728458764 #
straight-curve $-1 55.839106418042547 0 8.8585027418103657 0 1 0 I I #
vertex $-1 $324 $455 #
point $-1 51.992619932311385 -10.60879071629784 3.4659964920275814 #
edge $-1 $419 37.035655943504281 $422 42.109473299449547 $329 $456 forward 7 unknown #
vertex $-1 $343 $457 #
straight-curve $-1 -62.297540278336825 -2.4624958542716229 8.8585027418103621 -1 0 0 I I #
edge $-1 $422 -0.72783310860158146 $340 7.1084910343479901 $339 $458 forward 7 unknown #
vertex $-1 $421 $459 #
straight-curve $-1 -55.839106418042547 -2.4624958542716229 3.7846853858651031 0.78801074757464917 0 0.61566148304635926 I I #
point $-1 -49.344916481176561 -2.4624958542716229 8.8585027418103657 #
point $-1 -55.839106418042547 -10.298819997221194 3.7846853858651031 #
straight-curve $-1 -55.839106418042547 0 8.8585027418103657 0 -1 0 I I #
vertex $-1 $346 $460 #
point $-1 -49.349886448974679 -6.3806579257464087 4.6082672202266366 #
coedge $-1 $361 $360 $353 $430 forward $350 $-1 #
edge $-1 $431 37.035655943504281 $434 42.109473299449547 $429 $461 forward 7 unknown #
vertex $-1 $365 $462 #
straight-curve $-1 -62.297540278336825 18.436114579470804 8.8585027418103621 -1 0 0 I I #
edge $-1 $434 -11.177138325472795 $362 -3.3408141825232232 $361 $463 forward 7 unknown #
vertex $-1 $433 $464 #
straight-curve $-1 -55.839106418042547 18.436114579470804 3.7846853858651031 0.78801074757464917 0 0.61566148304635926 I I #
point $-1 -49.344916481176561 18.436114579470804 8.8585027418103657 #
point $-1 -55.839106418042547 10.599790436521232 3.7846853858651031 #
straight-curve $-1 -55.839106418042547 0 8.8585027418103657 0 -1 0 I I #
vertex $-1 $368 $465 #
point $-1 -49.349886448974679 14.517952507996018 4.6082672202266366 #
straight-curve $-1 -55.839106418042547 24.011991606904157 0 0 0 -1 I I #
point $-1 -55.839106418042547 -24.011991606904157 -8.8585027418103657 #
straight-curve $-1 -55.839106418042547 0 -8.8585027418103657 0 1 0 I I #
point $-1 -55.839106418042547 24.011991606904157 -8.8585027418103657 #
straight-curve $-1 -38.122100934421816 -9.9716721578896781 8.8585027418103657 0 1 0 I I #
straight-curve $-1 -38.122100934421816 -9.9716721578896781 -8.8585027418103657 0 -1 0 I I #
point $-1 -38.122100934421816 -24.011991606904157 -8.8585027418103657 #
point $-1 -38.122100934421816 -24.011991606904157 8.8585027418103657 #
straight-curve $-1 0 -24.011991606904157 -8.8585027418103657 -1 0 0 I I #
straight-curve $-1 0 -24.011991606904157 8.8585027418103657 1 0 0 I I #
straight-curve $-1 55.839106418042547 -15.874697024654555 79.726917198120589 0 0 -1 I I #
point $-1 55.839106418042547 -15.874697024654555 8.8585027418103657 #
straight-curve $-1 55.839106418042547 -5.3043953581489198 2.6942282728458835 0 1 0 I I #
point $-1 55.839106418042547 -15.874697024654555 2.6942282728458764 #
point $-1 49.887111586379874 -10.60879071629784 3.2074725952351466 #
straight-curve $-1 -55.839106418042547 -2.4624958542716229 45.89415868531465 0 0 -1 I I #
point $-1 -55.839106418042547 -2.4624958542716229 8.8585027418103657 #
straight-curve $-1 -55.839106418042547 -3.1903289628732043 3.7846853858651044 0 -1 0 I I #
point $-1 -55.839106418042547 -2.4624958542716229 3.7846853858651031 #
point $-1 -49.608410345767112 -6.3806579257464087 2.5027588742951248 #
straight-curve $-1 -55.839106418042547 18.436114579470804 45.89415868531465 0 0 -1 I I #
point $-1 -55.839106418042547 18.436114579470804 8.8585027418103657 #
straight-curve $-1 -55.839106418042547 7.2589762539980089 3.7846853858651044 0 -1 0 I I #
point $-1 -55.839106418042547 18.436114579470804 3.7846853858651031 #
point $-1 -49.608410345767112 14.517952507996018 2.5027588742951248 #
End-of-ACIS-data 