500 0 6 0           
7 Unknown 11 ACIS 5.0 NT 24 Fri Mar 26 20:41:28 1999 
-1 9.9999999999999995e-007 1e-010 
body $-1 $6 $-1 $7 #
body $-1 $8 $-1 $9 #
body $-1 $10 $-1 $11 #
body $-1 $12 $-1 $13 #
body $-1 $14 $-1 $15 #
body $-1 $16 $-1 $17 #
lump $-1 $-1 $18 $0 #
transform $-1 1 0 0 0 1 0 0 0 1 76.60267952513199 36.308599382695313 12.650333994341953 1 rotate no_reflect no_shear #
lump $-1 $-1 $19 $1 #
transform $-1 1 0 0 0 1 0 0 0 1 76.60267952513199 36.308599382695313 12.650333994341953 1 rotate no_reflect no_shear #
lump $-1 $-1 $20 $2 #
transform $-1 1 0 0 0 1 0 0 0 1 76.60267952513199 36.308599382695313 12.650333994341953 1 rotate no_reflect no_shear #
lump $-1 $-1 $21 $3 #
transform $-1 1 0 0 0 1 0 0 0 1 76.60267952513199 36.308599382695313 12.650333994341953 1 rotate no_reflect no_shear #
lump $-1 $-1 $22 $4 #
transform $-1 1 0 0 0 1 0 0 0 1 76.60267952513199 36.308599382695313 12.650333994341953 1 rotate no_reflect no_shear #
lump $-1 $-1 $23 $5 #
transform $-1 1 0 0 0 1 0 0 0 1 76.60267952513199 36.308599382695313 12.650333994341953 1 rotate no_reflect no_shear #
shell $-1 $-1 $-1 $24 $-1 $6 #
shell $-1 $-1 $-1 $25 $-1 $8 #
shell $-1 $-1 $-1 $26 $-1 $10 #
shell $-1 $-1 $-1 $27 $-1 $12 #
shell $-1 $-1 $-1 $28 $-1 $14 #
shell $-1 $-1 $-1 $29 $-1 $16 #
face $-1 $30 $31 $18 $-1 $32 forward single #
face $-1 $33 $34 $19 $-1 $35 forward single #
face $-1 $36 $37 $20 $-1 $38 reversed single #
face $-1 $39 $40 $21 $-1 $41 forward single #
face $-1 $42 $43 $22 $-1 $44 forward single #
face $-1 $45 $46 $23 $-1 $47 forward single #
face $-1 $48 $49 $18 $-1 $50 reversed single #
loop $-1 $-1 $51 $24 #
plane-surface $-1 0 0 12.650333994341953 0 0 1 1 0 0 forward_v I I I I #
face $-1 $52 $53 $19 $-1 $54 reversed single #
loop $-1 $-1 $55 $25 #
plane-surface $-1 0 -29.620839924080016 -9.6503339943419526 0 0 1 1 0 0 forward_v I I I I #
face $-1 $56 $57 $20 $-1 $58 reversed single #
loop $-1 $-1 $59 $26 #
plane-surface $-1 -42.323523976042665 55.912194755467205 169.19370634108483 -1 0 0 0 0.52991927123019833 0.84804809178421925 forward_v I I I I #
face $-1 $60 $61 $21 $-1 $62 forward single #
loop $-1 $63 $64 $27 #
cone-surface $-1 -69.746848415314119 24.2533318382103 2.6176699999752264 0 -0.52991927123019833 -0.84804809178421925 2.5 0 0 1 I I 0 1 2.5 forward I I I I #
face $-1 $65 $66 $22 $-1 $67 forward single #
loop $-1 $68 $69 $28 #
cone-surface $-1 -59.463101750587327 24.2533318382103 2.6176699999752264 0 -0.52991927123019833 -0.84804809178421925 2.5 0 0 1 I I 0 1 2.5 forward I I I I #
face $-1 $70 $71 $23 $-1 $72 forward single #
loop $-1 $73 $74 $29 #
cone-surface $-1 -49.179355085860522 24.2533318382103 2.6176699999752264 0 -0.52991927123019833 -0.84804809178421925 2.5 0 0 1 I I 0 1 2.5 forward I I I I #
face $-1 $75 $76 $18 $-1 $77 reversed single #
loop $-1 $-1 $78 $30 #
plane-surface $-1 0 0 -12.650333994341953 0 0 1 1 0 0 forward_v I I I I #
coedge $-1 $79 $80 $81 $82 forward $31 $-1 #
face $-1 $83 $84 $19 $-1 $85 reversed single #
loop $-1 $-1 $86 $33 #
plane-surface $-1 0 -22.93308046546472 -11.150333994341953 0 -1 0 0 0 -1 forward_v I I I I #
coedge $-1 $87 $88 $89 $90 reversed $34 $-1 #
face $-1 $91 $92 $20 $-1 $93 reversed single #
loop $-1 $-1 $94 $36 #
plane-surface $-1 -59.463101750587327 -25.274277461009554 39.268193947392291 0 0.52991927123019833 0.84804809178421925 1 0 0 forward_v I I I I #
coedge $-1 $95 $96 $97 $98 reversed $37 $-1 #
face $-1 $-1 $99 $21 $-1 $100 forward single #
loop $-1 $101 $102 $39 #
cone-surface $-1 -69.746848415314119 21.02836383155141 -2.5433575613798141 0 -0.52991927123019833 -0.84804809178421925 1.25 0 0 1 I I -0.70710678118654746 0.70710678118654746 1.25 forward I I I I #
loop $-1 $-1 $103 $27 #
coedge $-1 $64 $64 $104 $105 reversed $40 $-1 #
face $-1 $-1 $106 $22 $-1 $107 forward single #
loop $-1 $108 $109 $42 #
cone-surface $-1 -59.463101750587327 21.02836383155141 -2.5433575613798141 0 -0.52991927123019833 -0.84804809178421925 1.25 0 0 1 I I -0.70710678118654746 0.70710678118654746 1.25 forward I I I I #
loop $-1 $-1 $110 $28 #
coedge $-1 $69 $69 $111 $112 reversed $43 $-1 #
face $-1 $-1 $113 $23 $-1 $114 forward single #
loop $-1 $115 $116 $45 #
cone-surface $-1 -49.179355085860522 21.02836383155141 -2.5433575613798141 0 -0.52991927123019833 -0.84804809178421925 1.25 0 0 1 I I -0.70710678118654746 0.70710678118654746 1.25 forward I I I I #
loop $-1 $-1 $117 $29 #
coedge $-1 $74 $74 $118 $119 reversed $46 $-1 #
face $-1 $120 $121 $18 $-1 $122 reversed single #
loop $-1 $-1 $123 $48 #
plane-surface $-1 0 -36.308599382695313 0 0 1 0 0 0 1 forward_v I I I I #
coedge $-1 $124 $125 $126 $127 forward $49 $-1 #
coedge $-1 $128 $51 $129 $130 forward $31 $-1 #
coedge $-1 $51 $128 $131 $132 forward $31 $-1 #
coedge $-1 $133 $134 $51 $82 reversed $135 $-1 #
edge $-1 $136 -36.308599382695313 $137 36.308599382695313 $81 $138 forward 7 unknown #
face $-1 $139 $140 $19 $-1 $141 reversed single #
loop $-1 $-1 $142 $52 #
plane-surface $-1 0 0 -12.650333994341953 0 0 1 1 0 0 forward_v I I I I #
coedge $-1 $143 $144 $145 $146 reversed $53 $-1 #
coedge $-1 $147 $55 $144 $148 forward $34 $-1 #
coedge $-1 $55 $147 $149 $150 reversed $34 $-1 #
coedge $-1 $151 $145 $55 $90 forward $140 $-1 #
edge $-1 $152 8.1226605034247115 $153 21.498179420655305 $89 $154 forward 7 unknown #
face $-1 $155 $156 $20 $-1 $157 forward single #
loop $-1 $-1 $97 $56 #
plane-surface $-1 0 36.308599382695313 0 0 -1 0 0 0 -1 forward_v I I I I #
coedge $-1 $158 $159 $160 $161 reversed $57 $-1 #
coedge $-1 $96 $59 $162 $163 reversed $37 $-1 #
coedge $-1 $59 $95 $158 $164 reversed $37 $-1 #
coedge $-1 $160 $165 $59 $98 forward $92 $-1 #
edge $-1 $166 71.946519176200468 $167 83.809912271684368 $97 $168 forward 7 unknown #
loop $-1 $-1 $104 $60 #
plane-surface $-1 -59.463101750587327 -25.274277461009554 39.268193947392291 0 0.52991927123019833 0.84804809178421925 1 0 0 forward_v I I I I #
loop $-1 $-1 $169 $39 #
coedge $-1 $102 $102 $103 $170 reversed $61 $-1 #
coedge $-1 $103 $103 $102 $170 forward $63 $-1 #
coedge $-1 $104 $104 $64 $105 forward $99 $-1 #
edge $-1 $171 1.1295908661357111e-015 $171 6.2831853071796013 $104 $172 forward 7 unknown #
loop $-1 $-1 $111 $65 #
plane-surface $-1 -59.463101750587327 -25.274277461009554 39.268193947392291 0 0.52991927123019833 0.84804809178421925 1 0 0 forward_v I I I I #
loop $-1 $-1 $173 $42 #
coedge $-1 $109 $109 $110 $174 reversed $66 $-1 #
coedge $-1 $110 $110 $109 $174 forward $68 $-1 #
coedge $-1 $111 $111 $69 $112 forward $106 $-1 #
edge $-1 $175 1.1295908661357111e-015 $175 6.2831853071796013 $111 $176 forward 7 unknown #
loop $-1 $-1 $118 $70 #
plane-surface $-1 -59.463101750587327 -25.274277461009554 39.268193947392291 0 0.52991927123019833 0.84804809178421925 1 0 0 forward_v I I I I #
loop $-1 $-1 $177 $45 #
coedge $-1 $116 $116 $117 $178 reversed $71 $-1 #
coedge $-1 $117 $117 $116 $178 forward $73 $-1 #
coedge $-1 $118 $118 $74 $119 forward $113 $-1 #
edge $-1 $179 1.1295908661357111e-015 $179 6.2831853071796013 $118 $180 forward 7 unknown #
face $-1 $181 $182 $18 $-1 $183 reversed single #
loop $-1 $-1 $184 $75 #
plane-surface $-1 -76.60267952513199 0 0 1 0 0 0 0 -1 forward_v I I I I #
coedge $-1 $185 $131 $186 $187 forward $76 $-1 #
coedge $-1 $188 $78 $185 $189 forward $49 $-1 #
coedge $-1 $78 $188 $190 $191 forward $49 $-1 #
coedge $-1 $134 $133 $78 $127 reversed $135 $-1 #
edge $-1 $192 -36.308599382695313 $193 36.308599382695313 $126 $194 forward 7 unknown #
coedge $-1 $80 $79 $195 $196 forward $31 $-1 #
coedge $-1 $197 $198 $79 $130 reversed $182 $-1 #
edge $-1 $137 -76.60267952513199 $199 76.60267952513199 $129 $200 forward 7 unknown #
coedge $-1 $123 $201 $80 $132 reversed $76 $-1 #
edge $-1 $202 -76.60267952513199 $136 76.60267952513199 $131 $203 forward 7 unknown #
coedge $-1 $126 $81 $201 $204 forward $135 $-1 #
coedge $-1 $81 $126 $197 $205 reversed $135 $-1 #
loop $-1 $-1 $133 $181 #
vertex $-1 $82 $206 #
vertex $-1 $82 $207 #
straight-curve $-1 76.60267952513199 0 12.650333994341953 0 1 0 I I #
face $-1 $208 $209 $19 $-1 $210 reversed single #
loop $-1 $-1 $145 $83 #
plane-surface $-1 76.60267952513199 0 0 -1 0 0 0 0 1 forward_v I I I I #
coedge $-1 $211 $212 $143 $213 forward $84 $-1 #
coedge $-1 $214 $86 $142 $213 reversed $53 $-1 #
coedge $-1 $86 $214 $87 $148 reversed $53 $-1 #
coedge $-1 $89 $215 $86 $146 forward $140 $-1 #
edge $-1 $216 -7.0751669971709763 $152 -4.0751669971709763 $145 $217 forward 7 unknown #
coedge $-1 $88 $87 $218 $219 reversed $34 $-1 #
edge $-1 $152 -76.60267952513199 $220 76.60267952513199 $144 $221 forward 7 unknown #
coedge $-1 $222 $223 $88 $150 forward $209 $-1 #
edge $-1 $153 -76.60267952513199 $224 76.60267952513199 $149 $225 forward 7 unknown #
coedge $-1 $215 $89 $223 $226 forward $140 $-1 #
vertex $-1 $90 $227 #
vertex $-1 $226 $228 #
straight-curve $-1 76.60267952513199 -14.810419962040008 -9.6503339943419526 0 -1 0 I I #
face $-1 $-1 $229 $20 $-1 $230 reversed single #
loop $-1 $-1 $162 $91 #
plane-surface $-1 0 0 12.650333994341953 0 0 1 1 0 0 forward_v I I I I #
coedge $-1 $231 $94 $96 $164 forward $57 $-1 #
coedge $-1 $94 $231 $232 $233 reversed $57 $-1 #
coedge $-1 $234 $97 $94 $161 forward $92 $-1 #
edge $-1 $167 12.591973100749001 $235 46.871128649838326 $160 $236 forward 7 unknown #
coedge $-1 $237 $238 $95 $163 forward $156 $-1 #
edge $-1 $239 -10.632895248766022 $166 8.3525020049617105 $162 $240 forward 7 unknown #
edge $-1 $167 -72.617198765390611 $239 -50.230028229125253 $96 $241 forward 7 unknown #
coedge $-1 $97 $234 $237 $242 reversed $92 $-1 #
vertex $-1 $242 $243 #
vertex $-1 $98 $244 #
straight-curve $-1 -42.323523976042665 36.308599382695313 84.596853170542417 0 0 -1 I I #
coedge $-1 $169 $169 $-1 $245 reversed $101 $-1 #
edge $-1 $246 0 $246 6.2831853071796004 $102 $247 forward 7 unknown #
vertex $-1 $105 $248 #
ellipse-curve $-1 -69.746848415314119 26.815900755831446 6.7186374465999972 0 0.52991927123019833 0.84804809178421925 2.5 0 0 1 I I #
coedge $-1 $173 $173 $-1 $249 reversed $108 $-1 #
edge $-1 $250 0 $250 6.2831853071796004 $109 $251 forward 7 unknown #
vertex $-1 $112 $252 #
ellipse-curve $-1 -59.463101750587327 26.815900755831446 6.7186374465999972 0 0.52991927123019833 0.84804809178421925 2.5 0 0 1 I I #
coedge $-1 $177 $177 $-1 $253 reversed $115 $-1 #
edge $-1 $254 0 $254 6.2831853071796004 $116 $255 forward 7 unknown #
vertex $-1 $119 $256 #
ellipse-curve $-1 -49.179355085860522 26.815900755831446 6.7186374465999972 0 0.52991927123019833 0.84804809178421925 2.5 0 0 1 I I #
face $-1 $-1 $135 $18 $-1 $257 reversed single #
loop $-1 $-1 $197 $120 #
plane-surface $-1 0 36.308599382695313 0 0 -1 0 0 0 -1 forward_v I I I I #
coedge $-1 $258 $195 $198 $259 forward $121 $-1 #
coedge $-1 $201 $123 $124 $189 reversed $76 $-1 #
coedge $-1 $195 $258 $123 $187 reversed $121 $-1 #
edge $-1 $202 -12.650333994341953 $260 12.650333994341953 $186 $261 forward 7 unknown #
coedge $-1 $125 $124 $258 $262 forward $49 $-1 #
edge $-1 $193 -76.60267952513199 $260 76.60267952513199 $185 $263 forward 7 unknown #
coedge $-1 $198 $197 $125 $191 reversed $182 $-1 #
edge $-1 $264 -76.60267952513199 $192 76.60267952513199 $190 $265 forward 7 unknown #
vertex $-1 $127 $266 #
vertex $-1 $204 $267 #
straight-curve $-1 76.60267952513199 0 -12.650333994341953 0 -1 0 I I #
coedge $-1 $184 $186 $128 $196 reversed $121 $-1 #
edge $-1 $199 -36.308599382695313 $202 36.308599382695313 $195 $268 forward 7 unknown #
coedge $-1 $190 $129 $134 $205 forward $182 $-1 #
coedge $-1 $129 $190 $184 $259 reversed $182 $-1 #
vertex $-1 $130 $269 #
straight-curve $-1 0 36.308599382695313 12.650333994341953 -1 0 0 I I #
coedge $-1 $131 $185 $133 $204 reversed $76 $-1 #
vertex $-1 $196 $270 #
straight-curve $-1 0 -36.308599382695313 12.650333994341953 1 0 0 I I #
edge $-1 $136 -12.650333994341953 $193 12.650333994341953 $133 $271 forward 7 unknown #
edge $-1 $137 -12.650333994341953 $192 12.650333994341953 $134 $272 forward 7 unknown #
point $-1 76.60267952513199 -36.308599382695313 12.650333994341953 #
point $-1 76.60267952513199 36.308599382695313 12.650333994341953 #
face $-1 $-1 $273 $19 $-1 $274 reversed single #
loop $-1 $-1 $149 $139 #
plane-surface $-1 0 -36.308599382695313 0 0 1 0 0 0 1 forward_v I I I I #
coedge $-1 $275 $142 $215 $276 forward $84 $-1 #
coedge $-1 $142 $275 $277 $278 forward $84 $-1 #
edge $-1 $279 -76.60267952513199 $216 76.60267952513199 $142 $280 forward 7 unknown #
coedge $-1 $144 $143 $281 $282 reversed $53 $-1 #
coedge $-1 $145 $151 $211 $276 reversed $140 $-1 #
vertex $-1 $276 $283 #
straight-curve $-1 76.60267952513199 -22.93308046546472 -5.5751669971709763 0 0 1 I I #
coedge $-1 $281 $284 $147 $219 forward $273 $-1 #
edge $-1 $224 -21.498179420655305 $220 -8.1226605034247115 $218 $285 forward 7 unknown #
vertex $-1 $219 $286 #
straight-curve $-1 0 -22.93308046546472 -9.6503339943419526 -1 0 0 I I #
coedge $-1 $287 $149 $284 $288 forward $209 $-1 #
coedge $-1 $149 $287 $151 $226 reversed $209 $-1 #
vertex $-1 $288 $289 #
straight-curve $-1 0 -36.308599382695313 -9.6503339943419526 -1 0 0 I I #
edge $-1 $153 9.6503339943419526 $290 12.650333994341953 $151 $291 forward 7 unknown #
point $-1 76.60267952513199 -22.93308046546472 -9.6503339943419526 #
point $-1 76.60267952513199 -36.308599382695313 -9.6503339943419526 #
loop $-1 $-1 $232 $155 #
plane-surface $-1 -76.60267952513199 0 0 1 0 0 0 0 -1 forward_v I I I I #
coedge $-1 $159 $158 $238 $292 reversed $57 $-1 #
coedge $-1 $293 $294 $159 $233 forward $229 $-1 #
edge $-1 $235 -51.49581101980948 $295 -29.108640483544121 $232 $296 forward 7 unknown #
coedge $-1 $165 $160 $294 $297 reversed $92 $-1 #
vertex $-1 $161 $298 #
straight-curve $-1 -29.731550875293664 36.308599382695313 0.7869408988580382 -1 0 0 I I #
coedge $-1 $299 $162 $165 $242 forward $156 $-1 #
coedge $-1 $162 $299 $231 $292 forward $156 $-1 #
vertex $-1 $163 $300 #
straight-curve $-1 -42.323523976042665 27.956097377733602 12.650333994341949 0 1 0 I I #
straight-curve $-1 -42.323523976042665 -25.274277461009554 39.268193947392291 0 -0.84804809178421925 0.52991927123019833 I I #
edge $-1 $166 42.323523976042665 $301 76.60267952513199 $165 $302 forward 7 unknown #
point $-1 -42.323523976042665 36.308599382695313 12.650333994341953 #
point $-1 -42.323523976042665 36.308599382695313 0.78694089885804175 #
edge $-1 $303 1 $303 0 $169 $-1 forward 7 unknown #
vertex $-1 $170 $304 #
ellipse-curve $-1 -69.746848415314119 21.690762920589158 -1.4832974466495399 0 0.52991927123019833 0.84804809178421925 2.5 0 0 1 I I #
point $-1 -67.246848415314119 26.815900755831446 6.7186374465999918 #
edge $-1 $305 1 $305 0 $173 $-1 forward 7 unknown #
vertex $-1 $174 $306 #
ellipse-curve $-1 -59.463101750587327 21.690762920589158 -1.4832974466495399 0 0.52991927123019833 0.84804809178421925 2.5 0 0 1 I I #
point $-1 -56.963101750587327 26.815900755831446 6.7186374465999918 #
edge $-1 $307 1 $307 0 $177 $-1 forward 7 unknown #
vertex $-1 $178 $308 #
ellipse-curve $-1 -49.179355085860522 21.690762920589158 -1.4832974466495399 0 0.52991927123019833 0.84804809178421925 2.5 0 0 1 I I #
point $-1 -46.679355085860522 26.815900755831446 6.7186374465999918 #
plane-surface $-1 76.60267952513199 0 0 -1 0 0 0 0 1 forward_v I I I I #
coedge $-1 $186 $184 $188 $262 reversed $121 $-1 #
edge $-1 $199 -12.650333994341953 $264 12.650333994341953 $198 $309 forward 7 unknown #
vertex $-1 $262 $310 #
straight-curve $-1 -76.60267952513199 -36.308599382695313 0 0 0 -1 I I #
edge $-1 $260 -36.308599382695313 $264 36.308599382695313 $258 $311 forward 7 unknown #
straight-curve $-1 0 -36.308599382695313 -12.650333994341953 -1 0 0 I I #
vertex $-1 $191 $312 #
straight-curve $-1 0 36.308599382695313 -12.650333994341953 1 0 0 I I #
point $-1 76.60267952513199 36.308599382695313 -12.650333994341953 #
point $-1 76.60267952513199 -36.308599382695313 -12.650333994341953 #
straight-curve $-1 -76.60267952513199 0 12.650333994341953 0 -1 0 I I #
point $-1 -76.60267952513199 36.308599382695313 12.650333994341953 #
point $-1 -76.60267952513199 -36.308599382695313 12.650333994341953 #
straight-curve $-1 76.60267952513199 -36.308599382695313 0 0 0 -1 I I #
straight-curve $-1 76.60267952513199 36.308599382695313 0 0 0 -1 I I #
loop $-1 $-1 $281 $208 #
plane-surface $-1 -76.60267952513199 0 0 1 0 0 0 0 -1 forward_v I I I I #
coedge $-1 $212 $211 $287 $313 forward $84 $-1 #
edge $-1 $216 22.93308046546472 $290 36.308599382695313 $215 $314 forward 7 unknown #
coedge $-1 $284 $281 $212 $278 reversed $273 $-1 #
edge $-1 $315 -36.308599382695313 $279 -22.93308046546472 $277 $316 forward 7 unknown #
vertex $-1 $282 $317 #
straight-curve $-1 0 -22.93308046546472 -12.650333994341953 1 0 0 I I #
coedge $-1 $277 $218 $214 $282 forward $273 $-1 #
edge $-1 $220 4.0751669971709763 $279 7.0751669971709763 $281 $318 forward 7 unknown #
point $-1 76.60267952513199 -22.93308046546472 -12.650333994341953 #
coedge $-1 $218 $277 $222 $288 reversed $273 $-1 #
straight-curve $-1 -76.60267952513199 -14.810419962040008 -9.6503339943419526 0 1 0 I I #
point $-1 -76.60267952513199 -22.93308046546472 -9.6503339943419526 #
coedge $-1 $223 $222 $275 $313 reversed $209 $-1 #
edge $-1 $224 9.6503339943419526 $315 12.650333994341953 $284 $319 forward 7 unknown #
point $-1 -76.60267952513199 -36.308599382695313 -9.6503339943419526 #
vertex $-1 $226 $320 #
straight-curve $-1 76.60267952513199 -36.308599382695313 0 0 0 -1 I I #
edge $-1 $295 -46.871128649838326 $239 -12.591973100749001 $238 $321 forward 7 unknown #
coedge $-1 $294 $232 $299 $322 reversed $229 $-1 #
coedge $-1 $232 $293 $234 $297 forward $229 $-1 #
vertex $-1 $233 $323 #
straight-curve $-1 -76.60267952513199 -7.3623248875348848 28.075563545883497 0 -0.84804809178421925 0.52991927123019833 I I #
edge $-1 $301 -12.650333994341953 $235 -0.78694089885803742 $234 $324 forward 7 unknown #
point $-1 -76.60267952513199 36.308599382695313 0.78694089885803742 #
coedge $-1 $238 $237 $293 $322 forward $156 $-1 #
point $-1 -42.323523976042665 17.32320212896758 12.650333994341953 #
vertex $-1 $242 $325 #
straight-curve $-1 0 36.308599382695313 12.650333994341953 -1 0 0 I I #
vertex $-1 $245 $326 #
point $-1 -67.246848415314119 21.690762920589158 -1.4832974466495399 #
vertex $-1 $249 $327 #
point $-1 -56.963101750587327 21.690762920589158 -1.4832974466495399 #
vertex $-1 $253 $328 #
point $-1 -46.679355085860522 21.690762920589158 -1.4832974466495399 #
straight-curve $-1 -76.60267952513199 36.308599382695313 0 0 0 -1 I I #
point $-1 -76.60267952513199 -36.308599382695313 -12.650333994341953 #
straight-curve $-1 -76.60267952513199 0 -12.650333994341953 0 1 0 I I #
point $-1 -76.60267952513199 36.308599382695313 -12.650333994341953 #
edge $-1 $290 -76.60267952513199 $315 76.60267952513199 $287 $329 forward 7 unknown #
straight-curve $-1 76.60267952513199 0 -12.650333994341953 0 -1 0 I I #
vertex $-1 $278 $330 #
straight-curve $-1 -76.60267952513199 0 -12.650333994341953 0 1 0 I I #
point $-1 -76.60267952513199 -22.93308046546472 -12.650333994341953 #
straight-curve $-1 -76.60267952513199 -22.93308046546472 -5.5751669971709763 0 0 -1 I I #
straight-curve $-1 -76.60267952513199 -36.308599382695313 0 0 0 -1 I I #
point $-1 76.60267952513199 -36.308599382695313 -12.650333994341953 #
straight-curve $-1 -29.731550875293664 17.323202128967576 12.650333994341953 1 0 0 I I #
edge $-1 $301 -36.308599382695313 $295 -17.32320212896758 $293 $331 forward 7 unknown #
point $-1 -76.60267952513199 17.32320212896758 12.650333994341953 #
straight-curve $-1 -76.60267952513199 36.308599382695313 0 0 0 -1 I I #
point $-1 -76.60267952513199 36.308599382695313 12.650333994341953 #
point $-1 -69.746848415314119 20.365964742513661 -3.6034176761100882 #
point $-1 -59.463101750587327 20.365964742513661 -3.6034176761100882 #
point $-1 -49.179355085860522 20.365964742513661 -3.6034176761100882 #
straight-curve $-1 0 -36.308599382695313 -12.650333994341953 -1 0 0 I I #
point $-1 -76.60267952513199 -36.308599382695313 -12.650333994341953 #
straight-curve $-1 -76.60267952513199 0 12.650333994341953 0 -1 0 I I #
End-of-ACIS-data 