500 0 10 0           
7 Unknown 11 ACIS 5.0 NT 24 Fri Mar 26 20:38:45 1999 
-1 9.9999999999999995e-007 1e-010 
body $-1 $10 $-1 $11 #
body $-1 $12 $-1 $13 #
body $-1 $14 $-1 $15 #
body $-1 $16 $-1 $17 #
body $-1 $18 $-1 $19 #
body $-1 $20 $-1 $21 #
body $-1 $22 $-1 $23 #
body $-1 $24 $-1 $25 #
body $-1 $26 $-1 $27 #
body $-1 $28 $-1 $29 #
lump $-1 $-1 $30 $0 #
transform $-1 1 0 0 0 1 0 0 0 1 42.732016968291269 28.964057657419307 9.7716016656913194 1 rotate no_reflect no_shear #
lump $-1 $-1 $31 $1 #
transform $-1 1 0 0 0 1 0 0 0 1 42.732016968291269 28.964057657419307 9.7716016656913194 1 rotate no_reflect no_shear #
lump $-1 $-1 $32 $2 #
transform $-1 1 0 0 0 1 0 0 0 1 42.732016968291269 28.964057657419307 9.7716016656913194 1 rotate no_reflect no_shear #
lump $-1 $-1 $33 $3 #
transform $-1 1 0 0 0 1 0 0 0 1 42.732016968291269 28.964057657419307 9.7716016656913194 1 rotate no_reflect no_shear #
lump $-1 $-1 $34 $4 #
transform $-1 1 0 0 0 1 0 0 0 1 42.732016968291269 28.964057657419307 9.7716016656913194 1 rotate no_reflect no_shear #
lump $-1 $-1 $35 $5 #
transform $-1 1 0 0 0 1 0 0 0 1 42.732016968291269 28.964057657419307 9.7716016656913194 1 rotate no_reflect no_shear #
lump $-1 $-1 $36 $6 #
transform $-1 1 0 0 0 1 0 0 0 1 42.732016968291269 28.964057657419307 9.7716016656913194 1 rotate no_reflect no_shear #
lump $-1 $-1 $37 $7 #
transform $-1 1 0 0 0 1 0 0 0 1 42.732016968291269 28.964057657419307 9.7716016656913194 1 rotate no_reflect no_shear #
lump $-1 $-1 $38 $8 #
transform $-1 1 0 0 0 1 0 0 0 1 42.732016968291269 28.964057657419307 9.7716016656913194 1 rotate no_reflect no_shear #
lump $-1 $-1 $39 $9 #
transform $-1 1 0 0 0 1 0 0 0 1 42.732016968291269 28.964057657419307 9.7716016656913194 1 rotate no_reflect no_shear #
shell $-1 $-1 $-1 $40 $-1 $10 #
shell $-1 $-1 $-1 $41 $-1 $12 #
shell $-1 $-1 $-1 $42 $-1 $14 #
shell $-1 $-1 $-1 $43 $-1 $16 #
shell $-1 $-1 $-1 $44 $-1 $18 #
shell $-1 $-1 $-1 $45 $-1 $20 #
shell $-1 $-1 $-1 $46 $-1 $22 #
shell $-1 $-1 $-1 $47 $-1 $24 #
shell $-1 $-1 $-1 $48 $-1 $26 #
shell $-1 $-1 $-1 $49 $-1 $28 #
face $-1 $50 $51 $30 $-1 $52 forward single #
face $-1 $53 $54 $31 $-1 $55 forward single #
face $-1 $56 $57 $32 $-1 $58 reversed single #
face $-1 $59 $60 $33 $-1 $61 forward single #
face $-1 $62 $63 $34 $-1 $64 reversed single #
face $-1 $65 $66 $35 $-1 $67 forward single #
face $-1 $68 $69 $36 $-1 $70 forward single #
face $-1 $71 $72 $37 $-1 $73 reversed single #
face $-1 $74 $75 $38 $-1 $76 forward single #
face $-1 $77 $78 $39 $-1 $79 forward single #
face $-1 $80 $81 $30 $-1 $82 reversed single #
loop $-1 $-1 $83 $40 #
plane-surface $-1 0 0 9.7716016656913194 0 0 1 1 0 0 forward_v I I I I #
face $-1 $84 $85 $31 $-1 $86 reversed single #
loop $-1 $-1 $87 $41 #
plane-surface $-1 0 -23.130163646570907 5.9639714528637864 0 0 1 1 0 0 forward_v I I I I #
face $-1 $88 $89 $32 $-1 $90 reversed single #
loop $-1 $-1 $91 $42 #
plane-surface $-1 61.639375743561494 2.2777913978002537 121.70147689084385 0 1 0 0.80901700255871778 0 0.5877852410284794 forward_v I I I I #
face $-1 $92 $93 $33 $-1 $94 forward single #
loop $-1 $95 $96 $43 #
cone-surface $-1 38.37322029134932 5.3154183507227977 4.8468752204249448 -0.80901700255871778 0 -0.5877852410284794 0.8816778615427191 0 -1.2135255038380768 1 I I 0 1 1.5 forward I I I I #
face $-1 $97 $98 $34 $-1 $99 reversed single #
loop $-1 $-1 $100 $44 #
plane-surface $-1 -114.40818753287368 -8.2472720012817824 49.706866927334104 0 1 0 -0.83867057594974714 0 0.54463902268945019 forward_v I I I I #
face $-1 $101 $102 $35 $-1 $103 forward single #
loop $-1 $104 $105 $45 #
cone-surface $-1 -40.101733796269038 -5.3735265074654208 6.1517787225723506 0.83867057594974714 0 -0.54463902268945019 0.54463902268945019 0 0.83867057594974714 1 I I 0 1 1 forward I I I I #
face $-1 $106 $107 $36 $-1 $108 forward single #
loop $-1 $109 $110 $46 #
cone-surface $-1 -40.101733796269038 -1.0629082667408767 6.1517787225723506 0.83867057594974714 0 -0.54463902268945019 0.54463902268945019 0 0.83867057594974714 1 I I 0 1 1 forward I I I I #
face $-1 $111 $112 $37 $-1 $113 reversed single #
loop $-1 $-1 $114 $47 #
plane-surface $-1 -114.40818753287368 14.882891645289124 49.706866927334104 0 1 0 -0.83867057594974714 0 0.54463902268945019 forward_v I I I I #
face $-1 $115 $116 $38 $-1 $117 forward single #
loop $-1 $118 $119 $48 #
cone-surface $-1 -40.101733796269038 17.756637139105489 6.1517787225723506 0.83867057594974714 0 -0.54463902268945019 0.54463902268945019 0 0.83867057594974714 1 I I 0 1 1 forward I I I I #
face $-1 $120 $121 $39 $-1 $122 forward single #
loop $-1 $123 $124 $49 #
cone-surface $-1 -40.101733796269038 22.067255379830026 6.1517787225723506 0.83867057594974714 0 -0.54463902268945019 0.54463902268945019 0 0.83867057594974714 1 I I 0 1 1 forward I I I I #
face $-1 $125 $126 $30 $-1 $127 reversed single #
loop $-1 $-1 $128 $50 #
plane-surface $-1 0 0 -9.7716016656913194 0 0 1 1 0 0 forward_v I I I I #
coedge $-1 $129 $130 $131 $132 forward $51 $-1 #
face $-1 $133 $134 $31 $-1 $135 reversed single #
loop $-1 $-1 $136 $53 #
plane-surface $-1 0 -23.130163646570907 0.63409908339954946 0 0 1 1 0 0 forward_v I I I I #
coedge $-1 $137 $138 $139 $140 reversed $54 $-1 #
face $-1 $141 $142 $32 $-1 $143 reversed single #
loop $-1 $-1 $144 $56 #
plane-surface $-1 -7.5024808183890386 5.3154183507227977 71.466979104163542 0.80901700255871778 0 0.5877852410284794 0.5877852410284794 0 -0.80901700255871778 forward_v I I I I #
coedge $-1 $145 $146 $147 $148 reversed $57 $-1 #
face $-1 $-1 $149 $33 $-1 $150 forward single #
loop $-1 $151 $152 $59 #
cone-surface $-1 36.112752666841097 5.3154183507227977 3.20454940612637 -0.80901700255871778 0 -0.5877852410284794 0.44083893077135955 0 -0.60676275191903839 1 I I -0.70710678118654757 0.70710678118654757 0.75 forward I I I I #
loop $-1 $-1 $153 $43 #
coedge $-1 $96 $96 $154 $155 reversed $60 $-1 #
face $-1 $156 $157 $34 $-1 $158 reversed single #
loop $-1 $-1 $159 $62 #
plane-surface $-1 -42.732016968291276 -3.2182173871031488 3.1598190090157843 -0.83867057594974714 0 0.54463902268945019 0.54463902268945019 0 0.83867057594974714 forward_v I I I I #
coedge $-1 $160 $161 $162 $163 reversed $63 $-1 #
face $-1 $-1 $164 $35 $-1 $165 forward single #
loop $-1 $166 $167 $65 #
cone-surface $-1 -39.198986198105167 -5.3735265074654208 5.5655275964464241 0.83867057594974714 0 -0.54463902268945019 0.2723195113447251 0 0.41933528797487357 1 I I -0.70710678118654746 0.70710678118654746 0.5 forward I I I I #
loop $-1 $-1 $168 $45 #
coedge $-1 $105 $105 $169 $170 reversed $66 $-1 #
face $-1 $-1 $171 $36 $-1 $172 forward single #
loop $-1 $173 $174 $68 #
cone-surface $-1 -39.198986198105167 -1.0629082667408767 5.5655275964464241 0.83867057594974714 0 -0.54463902268945019 0.2723195113447251 0 0.41933528797487357 1 I I -0.70710678118654746 0.70710678118654746 0.5 forward I I I I #
loop $-1 $-1 $175 $46 #
coedge $-1 $110 $110 $176 $177 reversed $69 $-1 #
face $-1 $178 $179 $37 $-1 $180 reversed single #
loop $-1 $-1 $181 $71 #
plane-surface $-1 -42.732016968291276 19.911946259467758 3.1598190090157843 -0.83867057594974714 0 0.54463902268945019 0.54463902268945019 0 0.83867057594974714 forward_v I I I I #
coedge $-1 $182 $183 $184 $185 reversed $72 $-1 #
face $-1 $-1 $186 $38 $-1 $187 forward single #
loop $-1 $188 $189 $74 #
cone-surface $-1 -39.198986198105167 17.756637139105489 5.5655275964464241 0.83867057594974714 0 -0.54463902268945019 0.2723195113447251 0 0.41933528797487357 1 I I -0.70710678118654746 0.70710678118654746 0.5 forward I I I I #
loop $-1 $-1 $190 $48 #
coedge $-1 $119 $119 $191 $192 reversed $75 $-1 #
face $-1 $-1 $193 $39 $-1 $194 forward single #
loop $-1 $195 $196 $77 #
cone-surface $-1 -39.198986198105167 22.067255379830026 5.5655275964464241 0.83867057594974714 0 -0.54463902268945019 0.2723195113447251 0 0.41933528797487357 1 I I -0.70710678118654746 0.70710678118654746 0.5 forward I I I I #
loop $-1 $-1 $197 $49 #
coedge $-1 $124 $124 $198 $199 reversed $78 $-1 #
face $-1 $200 $201 $30 $-1 $202 reversed single #
loop $-1 $-1 $203 $80 #
plane-surface $-1 0 -28.964057657419307 0 0 1 0 0 0 1 forward_v I I I I #
coedge $-1 $204 $205 $206 $207 forward $81 $-1 #
coedge $-1 $208 $83 $209 $210 forward $51 $-1 #
coedge $-1 $83 $208 $211 $212 forward $51 $-1 #
coedge $-1 $213 $214 $83 $132 reversed $215 $-1 #
edge $-1 $216 -28.964057657419307 $217 28.964057657419307 $131 $218 forward 7 unknown #
face $-1 $219 $220 $31 $-1 $221 reversed single #
loop $-1 $-1 $222 $84 #
plane-surface $-1 0 -17.296269635722506 3.2990352681316679 0 -1 0 0 0 -1 forward_v I I I I #
coedge $-1 $223 $224 $225 $226 reversed $85 $-1 #
coedge $-1 $227 $87 $228 $229 forward $54 $-1 #
coedge $-1 $87 $227 $230 $231 reversed $54 $-1 #
coedge $-1 $232 $233 $87 $140 forward $234 $-1 #
edge $-1 $235 5.731187812437053 $236 17.398975834133854 $139 $237 forward 7 unknown #
face $-1 $238 $239 $32 $-1 $240 forward single #
loop $-1 $-1 $241 $88 #
plane-surface $-1 61.639375743561494 8.3530453036453416 121.70147689084385 0 -1 0 -0.80901700255871778 0 -0.5877852410284794 forward_v I I I I #
coedge $-1 $242 $243 $244 $245 reversed $89 $-1 #
coedge $-1 $146 $91 $246 $247 reversed $57 $-1 #
coedge $-1 $91 $145 $242 $248 reversed $57 $-1 #
coedge $-1 $244 $249 $91 $148 forward $250 $-1 #
edge $-1 $251 51.079136779730604 $252 58.525615903208916 $147 $253 forward 7 unknown #
loop $-1 $-1 $154 $92 #
plane-surface $-1 -7.5024808183890386 5.3154183507227977 71.466979104163542 0.80901700255871778 0 0.5877852410284794 0.5877852410284794 0 -0.80901700255871778 forward_v I I I I #
loop $-1 $-1 $254 $59 #
coedge $-1 $152 $152 $153 $255 reversed $93 $-1 #
coedge $-1 $153 $153 $152 $255 forward $95 $-1 #
coedge $-1 $154 $154 $96 $155 forward $149 $-1 #
edge $-1 $256 0 $256 6.2831853071796004 $154 $257 forward 7 unknown #
face $-1 $258 $259 $34 $-1 $260 reversed single #
loop $-1 $-1 $261 $97 #
plane-surface $-1 -114.40818753287368 1.8108372270754849 49.706866927334104 0 -1 0 0.83867057594974714 0 -0.54463902268945019 forward_v I I I I #
coedge $-1 $262 $263 $264 $265 reversed $98 $-1 #
coedge $-1 $161 $100 $266 $267 reversed $63 $-1 #
coedge $-1 $100 $160 $262 $268 reversed $63 $-1 #
coedge $-1 $264 $269 $100 $163 forward $270 $-1 #
edge $-1 $271 14.472076798145572 $272 18.765818521812037 $162 $273 forward 7 unknown #
loop $-1 $-1 $169 $101 #
plane-surface $-1 -42.732016968291276 -3.2182173871031488 3.1598190090157843 -0.83867057594974714 0 0.54463902268945019 0.54463902268945019 0 0.83867057594974714 forward_v I I I I #
loop $-1 $-1 $274 $65 #
coedge $-1 $167 $167 $168 $275 reversed $102 $-1 #
coedge $-1 $168 $168 $167 $275 forward $104 $-1 #
coedge $-1 $169 $169 $105 $170 forward $164 $-1 #
edge $-1 $276 0 $276 6.2831853071796004 $169 $277 forward 7 unknown #
loop $-1 $-1 $176 $106 #
plane-surface $-1 -42.732016968291276 -3.2182173871031488 3.1598190090157843 -0.83867057594974714 0 0.54463902268945019 0.54463902268945019 0 0.83867057594974714 forward_v I I I I #
loop $-1 $-1 $278 $68 #
coedge $-1 $174 $174 $175 $279 reversed $107 $-1 #
coedge $-1 $175 $175 $174 $279 forward $109 $-1 #
coedge $-1 $176 $176 $110 $177 forward $171 $-1 #
edge $-1 $280 0 $280 6.2831853071796004 $176 $281 forward 7 unknown #
face $-1 $282 $283 $37 $-1 $284 forward single #
loop $-1 $-1 $285 $111 #
plane-surface $-1 -114.40818753287368 24.941000873646392 49.706866927334104 0 -1 0 0.83867057594974714 0 -0.54463902268945019 forward_v I I I I #
coedge $-1 $286 $287 $288 $289 reversed $112 $-1 #
coedge $-1 $183 $114 $290 $291 reversed $72 $-1 #
coedge $-1 $114 $182 $286 $292 reversed $72 $-1 #
coedge $-1 $288 $293 $114 $185 forward $283 $-1 #
edge $-1 $294 14.472076798145572 $295 18.765818521812037 $184 $296 forward 7 unknown #
loop $-1 $-1 $191 $115 #
plane-surface $-1 -42.732016968291276 19.911946259467758 3.1598190090157843 -0.83867057594974714 0 0.54463902268945019 0.54463902268945019 0 0.83867057594974714 forward_v I I I I #
loop $-1 $-1 $297 $74 #
coedge $-1 $189 $189 $190 $298 reversed $116 $-1 #
coedge $-1 $190 $190 $189 $298 forward $118 $-1 #
coedge $-1 $191 $191 $119 $192 forward $186 $-1 #
edge $-1 $299 0 $299 6.2831853071796004 $191 $300 forward 7 unknown #
loop $-1 $-1 $198 $120 #
plane-surface $-1 -42.732016968291276 19.911946259467758 3.1598190090157843 -0.83867057594974714 0 0.54463902268945019 0.54463902268945019 0 0.83867057594974714 forward_v I I I I #
loop $-1 $-1 $301 $77 #
coedge $-1 $196 $196 $197 $302 reversed $121 $-1 #
coedge $-1 $197 $197 $196 $302 forward $123 $-1 #
coedge $-1 $198 $198 $124 $199 forward $193 $-1 #
edge $-1 $303 0 $303 6.2831853071796004 $198 $304 forward 7 unknown #
face $-1 $305 $306 $30 $-1 $307 reversed single #
loop $-1 $-1 $308 $125 #
plane-surface $-1 -42.732016968291269 0 0 1 0 0 0 0 -1 forward_v I I I I #
coedge $-1 $309 $211 $310 $311 forward $126 $-1 #
coedge $-1 $312 $128 $309 $313 forward $81 $-1 #
coedge $-1 $128 $312 $314 $315 forward $81 $-1 #
coedge $-1 $214 $213 $128 $207 reversed $215 $-1 #
edge $-1 $316 -28.964057657419307 $317 28.964057657419307 $206 $318 forward 7 unknown #
coedge $-1 $130 $129 $319 $320 forward $51 $-1 #
coedge $-1 $321 $322 $129 $210 reversed $306 $-1 #
edge $-1 $217 -42.732016968291269 $323 42.732016968291269 $209 $324 forward 7 unknown #
coedge $-1 $203 $325 $130 $212 reversed $126 $-1 #
edge $-1 $326 -42.732016968291269 $216 42.732016968291269 $211 $327 forward 7 unknown #
coedge $-1 $206 $131 $325 $328 forward $215 $-1 #
coedge $-1 $131 $206 $321 $329 reversed $215 $-1 #
loop $-1 $-1 $213 $305 #
vertex $-1 $132 $330 #
vertex $-1 $132 $331 #
straight-curve $-1 42.732016968291269 0 9.7716016656913194 0 1 0 I I #
face $-1 $332 $333 $31 $-1 $334 reversed single #
loop $-1 $-1 $335 $133 #
plane-surface $-1 -42.732016968291269 0 0 1 0 0 0 0 -1 forward_v I I I I #
coedge $-1 $336 $228 $233 $337 reversed $134 $-1 #
coedge $-1 $338 $136 $339 $340 reversed $85 $-1 #
coedge $-1 $136 $338 $336 $341 forward $85 $-1 #
coedge $-1 $233 $232 $136 $226 forward $234 $-1 #
edge $-1 $342 -17.398975834133854 $343 -5.731187812437053 $225 $344 forward 7 unknown #
coedge $-1 $138 $137 $335 $345 reversed $54 $-1 #
coedge $-1 $222 $346 $137 $229 reversed $134 $-1 #
edge $-1 $235 -42.732016968291269 $347 42.732016968291269 $228 $348 forward 7 unknown #
coedge $-1 $349 $350 $138 $231 forward $333 $-1 #
edge $-1 $236 -42.732016968291269 $351 42.732016968291269 $230 $352 forward 7 unknown #
coedge $-1 $225 $139 $350 $353 forward $234 $-1 #
coedge $-1 $139 $225 $222 $337 forward $234 $-1 #
loop $-1 $-1 $139 $332 #
vertex $-1 $140 $354 #
vertex $-1 $353 $355 #
straight-curve $-1 42.732016968291269 -11.565081823285453 5.9639714528637864 0 -1 0 I I #
face $-1 $-1 $250 $32 $-1 $356 reversed single #
loop $-1 $-1 $357 $141 #
plane-surface $-1 0 0 9.7716016656913194 0 0 1 1 0 0 forward_v I I I I #
coedge $-1 $358 $359 $360 $361 reversed $142 $-1 #
coedge $-1 $362 $144 $146 $248 forward $89 $-1 #
coedge $-1 $144 $362 $358 $363 forward $89 $-1 #
coedge $-1 $360 $147 $144 $245 forward $250 $-1 #
edge $-1 $252 -0.37991777756114509 $364 5.6953361282839428 $244 $365 forward 7 unknown #
coedge $-1 $366 $367 $145 $247 forward $239 $-1 #
edge $-1 $368 6.5021454878050058 $251 11.912329096510522 $246 $369 forward 7 unknown #
edge $-1 $252 -85.464033936582524 $368 -76.25967964003874 $146 $370 forward 7 unknown #
coedge $-1 $147 $360 $366 $371 reversed $250 $-1 #
loop $-1 $-1 $360 $238 #
vertex $-1 $371 $372 #
vertex $-1 $148 $373 #
straight-curve $-1 42.732016968291269 2.2777913978002537 60.850738445421925 0 0 -1 I I #
coedge $-1 $254 $254 $-1 $374 reversed $151 $-1 #
edge $-1 $375 0 $375 6.2831853071796004 $152 $376 forward 7 unknown #
vertex $-1 $155 $377 #
ellipse-curve $-1 40.026925163938508 5.3154183507227977 6.0483621039521633 0.80901700255871778 0 0.5877852410284794 0.8816778615427191 0 -1.2135255038380768 1 I I #
face $-1 $-1 $270 $34 $-1 $378 forward single #
loop $-1 $-1 $379 $156 #
plane-surface $-1 -42.732016968291269 0 0 1 0 0 0 0 -1 forward_v I I I I #
coedge $-1 $380 $381 $382 $383 reversed $157 $-1 #
coedge $-1 $384 $159 $161 $268 forward $98 $-1 #
coedge $-1 $159 $384 $380 $385 forward $98 $-1 #
coedge $-1 $382 $162 $159 $265 forward $270 $-1 #
edge $-1 $272 -6.638163307730208 $386 3.4199459206270593 $264 $387 forward 7 unknown #
coedge $-1 $388 $389 $160 $267 forward $259 $-1 #
edge $-1 $390 -21.693614454651257 $271 -15.081831797975733 $266 $391 forward 7 unknown #
edge $-1 $272 -7.8836468647872433 $390 -1.3181006846785195e-014 $161 $392 forward 7 unknown #
coedge $-1 $162 $382 $388 $393 forward $270 $-1 #
loop $-1 $-1 $382 $258 #
vertex $-1 $267 $394 #
vertex $-1 $163 $395 #
straight-curve $-1 -57.204093766436841 -8.2472720012817824 9.7716016656913212 1 0 0 I I #
coedge $-1 $274 $274 $-1 $396 reversed $166 $-1 #
edge $-1 $397 0 $397 6.2831853071796004 $167 $398 forward 7 unknown #
vertex $-1 $170 $399 #
ellipse-curve $-1 -40.585146106458041 -5.3735265074654208 6.4657103373535545 -0.83867057594974714 0 0.54463902268945019 0.54463902268945019 0 0.83867057594974714 1 I I #
coedge $-1 $278 $278 $-1 $400 reversed $173 $-1 #
edge $-1 $401 0 $401 6.2831853071796004 $174 $402 forward 7 unknown #
vertex $-1 $177 $403 #
ellipse-curve $-1 -40.585146106458041 -1.0629082667408767 6.4657103373535545 -0.83867057594974714 0 0.54463902268945019 0.54463902268945019 0 0.83867057594974714 1 I I #
face $-1 $-1 $404 $37 $-1 $405 reversed single #
loop $-1 $-1 $184 $178 #
plane-surface $-1 0 0 9.7716016656913194 0 0 1 1 0 0 forward_v I I I I #
coedge $-1 $406 $407 $408 $409 reversed $179 $-1 #
coedge $-1 $410 $181 $183 $292 forward $112 $-1 #
coedge $-1 $181 $410 $406 $411 forward $112 $-1 #
coedge $-1 $408 $184 $181 $289 forward $283 $-1 #
edge $-1 $295 4.9269185155552453 $412 14.985027743912513 $288 $413 forward 7 unknown #
coedge $-1 $414 $415 $182 $291 forward $404 $-1 #
edge $-1 $416 -21.693614454651257 $294 -15.081831797975733 $290 $417 forward 7 unknown #
edge $-1 $295 -7.8836468647872433 $416 -1.3181006846785195e-014 $183 $418 forward 7 unknown #
coedge $-1 $184 $408 $414 $419 forward $283 $-1 #
vertex $-1 $185 $420 #
vertex $-1 $185 $421 #
straight-curve $-1 -57.204093766436841 14.882891645289124 9.7716016656913212 1 0 0 I I #
coedge $-1 $297 $297 $-1 $422 reversed $188 $-1 #
edge $-1 $423 0 $423 6.2831853071796004 $189 $424 forward 7 unknown #
vertex $-1 $192 $425 #
ellipse-curve $-1 -40.585146106458041 17.756637139105489 6.4657103373535545 -0.83867057594974714 0 0.54463902268945019 0.54463902268945019 0 0.83867057594974714 1 I I #
coedge $-1 $301 $301 $-1 $426 reversed $195 $-1 #
edge $-1 $427 0 $427 6.2831853071796004 $196 $428 forward 7 unknown #
vertex $-1 $199 $429 #
ellipse-curve $-1 -40.585146106458041 22.067255379830026 6.4657103373535545 -0.83867057594974714 0 0.54463902268945019 0.54463902268945019 0 0.83867057594974714 1 I I #
face $-1 $-1 $215 $30 $-1 $430 reversed single #
loop $-1 $-1 $321 $200 #
plane-surface $-1 0 28.964057657419307 0 0 -1 0 0 0 -1 forward_v I I I I #
coedge $-1 $431 $319 $322 $432 forward $201 $-1 #
coedge $-1 $325 $203 $204 $313 reversed $126 $-1 #
coedge $-1 $319 $431 $203 $311 reversed $201 $-1 #
edge $-1 $326 -9.7716016656913194 $433 9.7716016656913194 $310 $434 forward 7 unknown #
coedge $-1 $205 $204 $431 $435 forward $81 $-1 #
edge $-1 $317 -42.732016968291269 $433 42.732016968291269 $309 $436 forward 7 unknown #
coedge $-1 $322 $321 $205 $315 reversed $306 $-1 #
edge $-1 $437 -42.732016968291269 $316 42.732016968291269 $314 $438 forward 7 unknown #
vertex $-1 $207 $439 #
vertex $-1 $328 $440 #
straight-curve $-1 42.732016968291269 0 -9.7716016656913194 0 -1 0 I I #
coedge $-1 $308 $310 $208 $320 reversed $201 $-1 #
edge $-1 $323 -28.964057657419307 $326 28.964057657419307 $319 $441 forward 7 unknown #
coedge $-1 $314 $209 $214 $329 forward $306 $-1 #
coedge $-1 $209 $314 $308 $432 reversed $306 $-1 #
vertex $-1 $210 $442 #
straight-curve $-1 0 28.964057657419307 9.7716016656913194 -1 0 0 I I #
coedge $-1 $211 $309 $213 $328 reversed $126 $-1 #
vertex $-1 $320 $443 #
straight-curve $-1 0 -28.964057657419307 9.7716016656913194 1 0 0 I I #
edge $-1 $216 -9.7716016656913194 $317 9.7716016656913194 $213 $444 forward 7 unknown #
edge $-1 $217 -9.7716016656913194 $316 9.7716016656913194 $214 $445 forward 7 unknown #
point $-1 42.732016968291269 -28.964057657419307 9.7716016656913194 #
point $-1 42.732016968291269 28.964057657419307 9.7716016656913194 #
face $-1 $-1 $234 $31 $-1 $446 reversed single #
loop $-1 $-1 $230 $219 #
plane-surface $-1 0 -28.964057657419307 0 0 1 0 0 0 1 forward_v I I I I #
coedge $-1 $447 $448 $227 $345 forward $220 $-1 #
coedge $-1 $346 $222 $224 $341 reversed $134 $-1 #
edge $-1 $343 -1.0154185506662845 $235 4.3144538187979524 $233 $449 forward 7 unknown #
coedge $-1 $224 $223 $450 $451 reversed $85 $-1 #
coedge $-1 $350 $349 $223 $340 forward $333 $-1 #
edge $-1 $452 -42.732016968291269 $342 42.732016968291269 $339 $453 forward 7 unknown #
edge $-1 $454 -42.732016968291269 $343 42.732016968291269 $336 $455 forward 7 unknown #
vertex $-1 $340 $456 #
vertex $-1 $226 $457 #
straight-curve $-1 42.732016968291269 -11.565081823285453 0.63409908339954946 0 1 0 I I #
edge $-1 $351 -17.398975834133854 $347 -5.731187812437053 $335 $458 forward 7 unknown #
coedge $-1 $228 $336 $447 $459 reversed $134 $-1 #
vertex $-1 $345 $460 #
straight-curve $-1 0 -17.296269635722506 5.9639714528637864 -1 0 0 I I #
coedge $-1 $339 $230 $448 $461 forward $333 $-1 #
coedge $-1 $230 $339 $232 $353 reversed $333 $-1 #
vertex $-1 $461 $462 #
straight-curve $-1 0 -28.964057657419307 5.9639714528637864 -1 0 0 I I #
edge $-1 $236 -5.9639714528637864 $342 -0.63409908339954946 $232 $463 forward 7 unknown #
point $-1 42.732016968291269 -17.296269635722506 5.9639714528637864 #
point $-1 42.732016968291269 -28.964057657419307 5.9639714528637864 #
plane-surface $-1 42.732016968291269 0 0 -1 0 0 0 0 1 forward_v I I I I #
coedge $-1 $367 $366 $359 $464 forward $239 $-1 #
coedge $-1 $359 $241 $243 $363 reversed $142 $-1 #
coedge $-1 $241 $358 $357 $464 reversed $142 $-1 #
coedge $-1 $249 $244 $241 $361 forward $250 $-1 #
edge $-1 $364 -58.525615903208916 $465 -51.079136779730604 $360 $466 forward 7 unknown #
coedge $-1 $243 $242 $367 $467 reversed $89 $-1 #
edge $-1 $468 76.25967964003874 $364 85.464033936582524 $358 $469 forward 7 unknown #
vertex $-1 $245 $470 #
straight-curve $-1 42.732016968291262 2.6577091753613988 2.3251225422130091 0 1 0 I I #
coedge $-1 $357 $246 $249 $371 forward $239 $-1 #
coedge $-1 $246 $357 $362 $467 forward $239 $-1 #
vertex $-1 $247 $471 #
straight-curve $-1 30.819687871780747 2.2777913978002537 9.7716016656913212 1 0 0 I I #
straight-curve $-1 -7.5024808183890386 2.2777913978002537 71.466979104163542 -0.5877852410284794 0 0.80901700255871778 I I #
edge $-1 $251 2.2777913978002537 $465 8.3530453036453416 $249 $472 forward 7 unknown #
point $-1 42.732016968291269 2.2777913978002537 9.7716016656913194 #
point $-1 42.732016968291269 2.2777913978002537 2.3251225422130091 #
edge $-1 $473 1 $473 0 $254 $-1 forward 7 unknown #
vertex $-1 $255 $474 #
ellipse-curve $-1 36.719515418760132 5.3154183507227977 3.6453883368977293 0.80901700255871778 0 0.5877852410284794 0.8816778615427191 0 -1.2135255038380768 1 I I #
point $-1 40.90860302548122 5.3154183507227977 4.8348366001140839 #
plane-surface $-1 0 0 9.7716016656913194 0 0 1 1 0 0 forward_v I I I I #
coedge $-1 $389 $388 $381 $475 forward $259 $-1 #
coedge $-1 $381 $261 $263 $385 reversed $157 $-1 #
coedge $-1 $261 $380 $379 $475 reversed $157 $-1 #
coedge $-1 $269 $264 $261 $383 forward $270 $-1 #
edge $-1 $386 -18.765818521812037 $476 -14.472076798145572 $382 $477 forward 7 unknown #
coedge $-1 $263 $262 $389 $478 reversed $98 $-1 #
edge $-1 $479 1.3181006846785195e-014 $386 7.8836468647872433 $380 $480 forward 7 unknown #
vertex $-1 $265 $481 #
straight-curve $-1 -38.438275244624805 -1.6091086935515744 9.7716016656913194 0 1 0 I I #
coedge $-1 $379 $266 $269 $393 reversed $259 $-1 #
coedge $-1 $266 $379 $384 $478 forward $259 $-1 #
vertex $-1 $267 $482 #
straight-curve $-1 -42.732016968291269 -8.2472720012817824 24.853433463667052 0 0 1 I I #
straight-curve $-1 -42.732016968291276 -8.2472720012817824 3.1598190090157843 -0.54463902268945019 0 -0.83867057594974714 I I #
edge $-1 $476 -1.8108372270754849 $271 8.2472720012817824 $388 $483 forward 7 unknown #
point $-1 -42.732016968291269 -8.2472720012817824 9.7716016656913194 #
point $-1 -38.438275244624805 -8.2472720012817824 9.7716016656913194 #
edge $-1 $484 1 $484 0 $274 $-1 forward 7 unknown #
vertex $-1 $275 $485 #
ellipse-curve $-1 -39.618321486080042 -5.3735265074654208 5.8378471077911493 -0.83867057594974714 0 0.54463902268945019 0.54463902268945019 0 0.83867057594974714 1 I I #
point $-1 -40.040507083768588 -5.3735265074654208 7.3043809133032997 #
edge $-1 $486 1 $486 0 $278 $-1 forward 7 unknown #
vertex $-1 $279 $487 #
ellipse-curve $-1 -39.618321486080042 -1.0629082667408767 5.8378471077911493 -0.83867057594974714 0 0.54463902268945019 0.54463902268945019 0 0.83867057594974714 1 I I #
point $-1 -40.040507083768588 -1.0629082667408767 7.3043809133032997 #
loop $-1 $-1 $290 $282 #
plane-surface $-1 -42.732016968291269 0 0 1 0 0 0 0 -1 forward_v I I I I #
coedge $-1 $407 $285 $287 $411 reversed $179 $-1 #
coedge $-1 $285 $406 $488 $489 reversed $179 $-1 #
coedge $-1 $293 $288 $285 $409 forward $283 $-1 #
edge $-1 $412 -18.765818521812037 $490 -14.472076798145572 $408 $491 forward 7 unknown #
coedge $-1 $287 $286 $415 $492 reversed $112 $-1 #
edge $-1 $493 1.3181006846785195e-014 $412 7.8836468647872433 $406 $494 forward 7 unknown #
vertex $-1 $289 $495 #
straight-curve $-1 -38.438275244624805 9.9559731297338789 9.7716016656913194 0 1 0 I I #
coedge $-1 $488 $290 $293 $419 reversed $404 $-1 #
coedge $-1 $290 $488 $410 $492 forward $404 $-1 #
vertex $-1 $291 $496 #
straight-curve $-1 -42.732016968291269 14.882891645289124 24.853433463667052 0 0 1 I I #
straight-curve $-1 -42.732016968291276 14.882891645289124 3.1598190090157843 -0.54463902268945019 0 -0.83867057594974714 I I #
edge $-1 $490 -24.941000873646392 $294 -14.882891645289124 $414 $497 forward 7 unknown #
point $-1 -42.732016968291269 14.882891645289124 9.7716016656913194 #
point $-1 -38.438275244624805 14.882891645289124 9.7716016656913194 #
edge $-1 $498 1 $498 0 $297 $-1 forward 7 unknown #
vertex $-1 $298 $499 #
ellipse-curve $-1 -39.618321486080042 17.756637139105489 5.8378471077911493 -0.83867057594974714 0 0.54463902268945019 0.54463902268945019 0 0.83867057594974714 1 I I #
point $-1 -40.040507083768588 17.756637139105489 7.3043809133032997 #
edge $-1 $500 1 $500 0 $301 $-1 forward 7 unknown #
vertex $-1 $302 $501 #
ellipse-curve $-1 -39.618321486080042 22.067255379830026 5.8378471077911493 -0.83867057594974714 0 0.54463902268945019 0.54463902268945019 0 0.83867057594974714 1 I I #
point $-1 -40.040507083768588 22.067255379830026 7.3043809133032997 #
plane-surface $-1 42.732016968291269 0 0 -1 0 0 0 0 1 forward_v I I I I #
coedge $-1 $310 $308 $312 $435 reversed $201 $-1 #
edge $-1 $323 -9.7716016656913194 $437 9.7716016656913194 $322 $502 forward 7 unknown #
vertex $-1 $435 $503 #
straight-curve $-1 -42.732016968291269 -28.964057657419307 0 0 0 -1 I I #
edge $-1 $433 -28.964057657419307 $437 28.964057657419307 $431 $504 forward 7 unknown #
straight-curve $-1 0 -28.964057657419307 -9.7716016656913194 -1 0 0 I I #
vertex $-1 $315 $505 #
straight-curve $-1 0 28.964057657419307 -9.7716016656913194 1 0 0 I I #
point $-1 42.732016968291269 28.964057657419307 -9.7716016656913194 #
point $-1 42.732016968291269 -28.964057657419307 -9.7716016656913194 #
straight-curve $-1 -42.732016968291269 0 9.7716016656913194 0 -1 0 I I #
point $-1 -42.732016968291269 28.964057657419307 9.7716016656913194 #
point $-1 -42.732016968291269 -28.964057657419307 9.7716016656913194 #
straight-curve $-1 42.732016968291269 -28.964057657419307 0 0 0 -1 I I #
straight-curve $-1 42.732016968291269 28.964057657419307 0 0 0 -1 I I #
plane-surface $-1 42.732016968291269 0 0 -1 0 0 0 0 1 forward_v I I I I #
coedge $-1 $450 $335 $346 $459 forward $220 $-1 #
coedge $-1 $335 $450 $349 $461 reversed $220 $-1 #
straight-curve $-1 42.732016968291269 -17.296269635722506 1.649517634065834 0 0 1 I I #
coedge $-1 $448 $447 $338 $451 forward $220 $-1 #
edge $-1 $454 5.731187812437053 $452 17.398975834133854 $450 $506 forward 7 unknown #
vertex $-1 $340 $507 #
straight-curve $-1 0 -28.964057657419307 0.63409908339954946 1 0 0 I I #
vertex $-1 $451 $508 #
straight-curve $-1 0 -17.296269635722506 0.63409908339954946 1 0 0 I I #
point $-1 42.732016968291269 -28.964057657419307 0.63409908339954946 #
point $-1 42.732016968291269 -17.296269635722506 0.63409908339954946 #
straight-curve $-1 -42.732016968291269 -11.565081823285453 5.9639714528637864 0 1 0 I I #
edge $-1 $347 -4.3144538187979524 $454 1.0154185506662845 $447 $509 forward 7 unknown #
point $-1 -42.732016968291269 -17.296269635722506 5.9639714528637864 #
edge $-1 $351 -5.9639714528637864 $452 -0.63409908339954946 $448 $510 forward 7 unknown #
point $-1 -42.732016968291269 -28.964057657419307 5.9639714528637864 #
straight-curve $-1 42.732016968291269 -28.964057657419307 0 0 0 -1 I I #
edge $-1 $465 -11.912329096510522 $468 -6.5021454878050058 $357 $511 forward 7 unknown #
vertex $-1 $464 $512 #
straight-curve $-1 42.732016968291269 8.3530453036453416 60.850738445421925 0 0 1 I I #
edge $-1 $468 -5.6953361282839428 $368 0.37991777756114509 $367 $513 forward 7 unknown #
vertex $-1 $467 $514 #
straight-curve $-1 -7.5024808183890386 8.3530453036453416 71.466979104163542 0.5877852410284794 0 -0.80901700255871778 I I #
point $-1 42.732016968291269 8.3530453036453416 2.3251225422130091 #
point $-1 37.321833359585753 2.2777913978002537 9.7716016656913212 #
straight-curve $-1 42.732016968291269 0 9.7716016656913194 0 1 0 I I #
vertex $-1 $374 $515 #
point $-1 37.601193280302851 5.3154183507227977 2.431862833059653 #
edge $-1 $476 15.081831797975733 $479 21.693614454651257 $379 $516 forward 7 unknown #
vertex $-1 $393 $517 #
straight-curve $-1 -57.204093766436841 1.8108372270754849 9.7716016656913212 -1 0 0 I I #
edge $-1 $479 -3.4199459206270593 $390 6.638163307730208 $389 $518 forward 7 unknown #
vertex $-1 $478 $519 #
straight-curve $-1 -42.732016968291276 1.8108372270754849 3.1598190090157843 0.54463902268945019 0 0.83867057594974714 I I #
point $-1 -38.438275244624805 1.8108372270754849 9.7716016656913194 #
point $-1 -42.732016968291269 -8.2472720012817824 3.1598190090157954 #
straight-curve $-1 -42.732016968291269 0 9.7716016656913194 0 -1 0 I I #
vertex $-1 $396 $520 #
point $-1 -39.07368246339059 -5.3735265074654208 6.6765176837408964 #
vertex $-1 $400 $521 #
point $-1 -39.07368246339059 -1.0629082667408767 6.6765176837408964 #
coedge $-1 $415 $414 $407 $489 forward $404 $-1 #
edge $-1 $490 15.081831797975733 $493 21.693614454651257 $488 $522 forward 7 unknown #
vertex $-1 $419 $523 #
straight-curve $-1 -57.204093766436841 24.941000873646392 9.7716016656913212 -1 0 0 I I #
edge $-1 $493 -14.985027743912513 $416 -4.9269185155552453 $415 $524 forward 7 unknown #
vertex $-1 $492 $525 #
straight-curve $-1 -42.732016968291276 24.941000873646392 3.1598190090157843 0.54463902268945019 0 0.83867057594974714 I I #
point $-1 -38.438275244624805 24.941000873646392 9.7716016656913194 #
point $-1 -42.732016968291269 14.882891645289124 3.1598190090157954 #
straight-curve $-1 -42.732016968291269 0 9.7716016656913194 0 -1 0 I I #
vertex $-1 $422 $526 #
point $-1 -39.07368246339059 17.756637139105489 6.6765176837408964 #
vertex $-1 $426 $527 #
point $-1 -39.07368246339059 22.067255379830026 6.6765176837408964 #
straight-curve $-1 -42.732016968291269 28.964057657419307 0 0 0 -1 I I #
point $-1 -42.732016968291269 -28.964057657419307 -9.7716016656913194 #
straight-curve $-1 -42.732016968291269 0 -9.7716016656913194 0 1 0 I I #
point $-1 -42.732016968291269 28.964057657419307 -9.7716016656913194 #
straight-curve $-1 -42.732016968291269 -11.565081823285453 0.63409908339954946 0 -1 0 I I #
point $-1 -42.732016968291269 -28.964057657419307 0.63409908339954946 #
point $-1 -42.732016968291269 -17.296269635722506 0.63409908339954946 #
straight-curve $-1 -42.732016968291269 -17.296269635722506 1.649517634065834 0 0 -1 I I #
straight-curve $-1 -42.732016968291269 -28.964057657419307 0 0 0 -1 I I #
straight-curve $-1 30.819687871780747 8.3530453036453416 9.7716016656913212 -1 0 0 I I #
point $-1 42.732016968291269 8.3530453036453416 9.7716016656913194 #
straight-curve $-1 37.32183335958576 2.6577091753613988 9.7716016656913212 0 -1 0 I I #
point $-1 37.321833359585753 8.3530453036453416 9.7716016656913212 #
point $-1 35.505989914922061 5.3154183507227977 2.7637104753550106 #
straight-curve $-1 -42.732016968291269 1.8108372270754849 24.853433463667052 0 0 -1 I I #
point $-1 -42.732016968291269 1.8108372270754849 9.7716016656913194 #
straight-curve $-1 -42.732016968291269 -1.6091086935515744 3.1598190090158038 0 -1 0 I I #
point $-1 -42.732016968291269 1.8108372270754849 3.1598190090157954 #
point $-1 -38.779650910130293 -5.3735265074654208 5.2932080851016989 #
point $-1 -38.779650910130293 -1.0629082667408767 5.2932080851016989 #
straight-curve $-1 -42.732016968291269 24.941000873646392 24.853433463667052 0 0 -1 I I #
point $-1 -42.732016968291269 24.941000873646392 9.7716016656913194 #
straight-curve $-1 -42.732016968291269 9.9559731297338789 3.1598190090158038 0 -1 0 I I #
point $-1 -42.732016968291269 24.941000873646392 3.1598190090157954 #
point $-1 -38.779650910130293 17.756637139105489 5.2932080851016989 #
point $-1 -38.779650910130293 22.067255379830026 5.2932080851016989 #
End-of-ACIS-data 