500 0 6 0           
7 Unknown 11 ACIS 5.0 NT 24 Fri Mar 26 14:53:03 1999 
-1 9.9999999999999995e-007 1e-010 
body $-1 $6 $-1 $7 #
body $-1 $8 $-1 $9 #
body $-1 $10 $-1 $11 #
body $-1 $12 $-1 $13 #
body $-1 $14 $-1 $15 #
body $-1 $16 $-1 $17 #
lump $-1 $-1 $18 $0 #
transform $-1 1 0 0 0 1 0 0 0 1 65.568407238990446 28.172983866648469 9.8905942750817584 1 rotate no_reflect no_shear #
lump $-1 $-1 $19 $1 #
transform $-1 1 0 0 0 1 0 0 0 1 65.568407238990446 28.172983866648469 9.8905942750817584 1 rotate no_reflect no_shear #
lump $-1 $-1 $20 $2 #
transform $-1 1 0 0 0 1 0 0 0 1 65.568407238990446 28.172983866648469 9.8905942750817584 1 rotate no_reflect no_shear #
lump $-1 $-1 $21 $3 #
transform $-1 1 0 0 0 1 0 0 0 1 65.568407238990446 28.172983866648469 9.8905942750817584 1 rotate no_reflect no_shear #
lump $-1 $-1 $22 $4 #
transform $-1 1 0 0 0 1 0 0 0 1 65.568407238990446 28.172983866648469 9.8905942750817584 1 rotate no_reflect no_shear #
lump $-1 $-1 $23 $5 #
transform $-1 1 0 0 0 1 0 0 0 1 65.568407238990446 28.172983866648469 9.8905942750817584 1 rotate no_reflect no_shear #
shell $-1 $-1 $-1 $24 $-1 $6 #
shell $-1 $-1 $-1 $25 $-1 $8 #
shell $-1 $-1 $-1 $26 $-1 $10 #
shell $-1 $-1 $-1 $27 $-1 $12 #
shell $-1 $-1 $-1 $28 $-1 $14 #
shell $-1 $-1 $-1 $29 $-1 $16 #
face $-1 $30 $31 $18 $-1 $32 reversed single #
face $-1 $33 $34 $19 $-1 $35 forward single #
face $-1 $36 $37 $20 $-1 $38 forward single #
face $-1 $39 $40 $21 $-1 $41 reversed single #
face $-1 $42 $43 $22 $-1 $44 forward single #
face $-1 $45 $46 $23 $-1 $47 forward single #
face $-1 $48 $49 $18 $-1 $50 forward single #
loop $-1 $-1 $51 $24 #
plane-surface $-1 65.568407238990446 0 0 -1 0 0 0 0 1 forward_v I I I I #
face $-1 $52 $53 $19 $-1 $54 forward single #
loop $-1 $-1 $55 $25 #
plane-surface $-1 -65.568407238990446 0 0 1 0 0 0 0 -1 forward_v I I I I #
face $-1 $56 $57 $20 $-1 $58 reversed single #
loop $-1 $-1 $59 $26 #
plane-surface $-1 65.568407238990446 0 0 -1 0 0 0 0 1 forward_v I I I I #
face $-1 $60 $61 $21 $-1 $62 reversed single #
loop $-1 $-1 $63 $27 #
plane-surface $-1 17.977422427894155 98.993652400704249 128.40213002276465 1 0 0 0 -0.79863551827123203 -0.60181501223851219 forward_v I I I I #
face $-1 $64 $65 $22 $-1 $66 forward single #
loop $-1 $67 $68 $28 #
cone-surface $-1 22.389585939713626 24.961364800376078 6.3018159029184666 0 -0.79863551827123203 -0.60181501223851219 1 0 0 1 I I 0 1 1 forward I I I I #
face $-1 $69 $70 $23 $-1 $71 forward single #
loop $-1 $72 $73 $29 #
cone-surface $-1 29.00783120744282 24.961364800376078 6.3018159029184666 0 -0.79863551827123203 -0.60181501223851219 1 0 0 1 I I 0 1 1 forward I I I I #
face $-1 $74 $75 $18 $-1 $76 reversed single #
loop $-1 $-1 $77 $30 #
plane-surface $-1 0 0 9.8905942750817584 0 0 1 1 0 0 forward_v I I I I #
coedge $-1 $78 $79 $80 $81 reversed $31 $-1 #
face $-1 $82 $83 $19 $-1 $84 reversed single #
loop $-1 $-1 $85 $33 #
plane-surface $-1 0 0 9.8905942750817584 0 0 1 1 0 0 forward_v I I I I #
coedge $-1 $86 $87 $88 $89 forward $34 $-1 #
face $-1 $90 $91 $20 $-1 $92 reversed single #
loop $-1 $-1 $93 $36 #
plane-surface $-1 0 0 -9.8905942750817584 0 0 1 1 0 0 forward_v I I I I #
coedge $-1 $94 $95 $96 $97 forward $37 $-1 #
face $-1 $98 $99 $21 $-1 $100 reversed single #
loop $-1 $-1 $101 $39 #
plane-surface $-1 25.698708573578216 -5.7368653943564283 49.482026412779078 0 0.79863551827123203 0.60181501223851219 1 0 0 forward_v I I I I #
coedge $-1 $102 $103 $104 $105 reversed $40 $-1 #
face $-1 $-1 $106 $22 $-1 $107 forward single #
loop $-1 $108 $109 $42 #
cone-surface $-1 22.389585939713626 23.388211011226705 5.1163595273751259 0 -0.79863551827123203 -0.60181501223851219 0.5 0 0 1 I I -0.70710678118654746 0.70710678118654746 0.5 forward I I I I #
loop $-1 $-1 $110 $28 #
coedge $-1 $68 $68 $111 $112 reversed $43 $-1 #
face $-1 $-1 $113 $23 $-1 $114 forward single #
loop $-1 $115 $116 $45 #
cone-surface $-1 29.00783120744282 23.388211011226705 5.1163595273751259 0 -0.79863551827123203 -0.60181501223851219 0.5 0 0 1 I I -0.70710678118654746 0.70710678118654746 0.5 forward I I I I #
loop $-1 $-1 $117 $29 #
coedge $-1 $73 $73 $118 $119 reversed $46 $-1 #
face $-1 $120 $121 $18 $-1 $122 reversed single #
loop $-1 $-1 $80 $48 #
plane-surface $-1 0 0 -9.8905942750817584 0 0 1 1 0 0 forward_v I I I I #
coedge $-1 $123 $124 $125 $126 forward $49 $-1 #
coedge $-1 $125 $51 $127 $128 reversed $31 $-1 #
coedge $-1 $51 $125 $129 $130 forward $31 $-1 #
coedge $-1 $131 $132 $51 $81 forward $75 $-1 #
edge $-1 $133 -28.172983866648469 $134 28.172983866648469 $51 $135 forward 7 unknown #
face $-1 $136 $137 $19 $-1 $138 reversed single #
loop $-1 $-1 $139 $52 #
plane-surface $-1 -73.252862006347883 -26.672983866648469 0 1 0 0 0 0 -1 forward_v I I I I #
coedge $-1 $140 $141 $86 $142 forward $53 $-1 #
coedge $-1 $143 $55 $85 $142 reversed $34 $-1 #
coedge $-1 $55 $143 $144 $145 reversed $34 $-1 #
coedge $-1 $146 $147 $55 $89 reversed $137 $-1 #
edge $-1 $148 -9.8905942750817584 $149 9.8905942750817584 $88 $150 forward 7 unknown #
face $-1 $151 $152 $20 $-1 $153 reversed single #
loop $-1 $-1 $96 $56 #
plane-surface $-1 70.867220603317108 -15.024162531034889 0 0 1 0 0 0 1 forward_v I I I I #
coedge $-1 $154 $155 $95 $156 forward $57 $-1 #
coedge $-1 $157 $59 $158 $159 reversed $37 $-1 #
coedge $-1 $59 $157 $93 $156 reversed $37 $-1 #
coedge $-1 $160 $161 $59 $97 reversed $91 $-1 #
edge $-1 $162 -9.8905942750817584 $163 9.8905942750817584 $96 $164 forward 7 unknown #
face $-1 $165 $166 $21 $-1 $167 reversed single #
loop $-1 $-1 $168 $60 #
plane-surface $-1 33.419994719262277 98.993652400704249 128.40213002276465 -1 0 0 0 0.79863551827123203 0.60181501223851219 forward_v I I I I #
coedge $-1 $169 $170 $171 $172 reversed $61 $-1 #
coedge $-1 $103 $63 $173 $174 reversed $40 $-1 #
coedge $-1 $63 $102 $169 $175 reversed $40 $-1 #
coedge $-1 $171 $176 $63 $105 forward $177 $-1 #
edge $-1 $178 21.323842333703656 $179 25.399408406220907 $104 $180 forward 7 unknown #
loop $-1 $-1 $111 $64 #
plane-surface $-1 25.698708573578216 -5.7368653943564283 49.482026412779078 0 0.79863551827123203 0.60181501223851219 1 0 0 forward_v I I I I #
loop $-1 $-1 $181 $42 #
coedge $-1 $109 $109 $110 $182 reversed $65 $-1 #
coedge $-1 $110 $110 $109 $182 forward $67 $-1 #
coedge $-1 $111 $111 $68 $112 forward $106 $-1 #
edge $-1 $183 -1.4690813074873316e-015 $183 6.2831853071795987 $111 $184 forward 7 unknown #
loop $-1 $-1 $118 $69 #
plane-surface $-1 25.698708573578216 -5.7368653943564283 49.482026412779078 0 0.79863551827123203 0.60181501223851219 1 0 0 forward_v I I I I #
loop $-1 $-1 $185 $45 #
coedge $-1 $116 $116 $117 $186 reversed $70 $-1 #
coedge $-1 $117 $117 $116 $186 forward $72 $-1 #
coedge $-1 $118 $118 $73 $119 forward $113 $-1 #
edge $-1 $187 -1.4690813074873316e-015 $187 6.2831853071795987 $118 $188 forward 7 unknown #
face $-1 $189 $190 $18 $-1 $191 reversed single #
loop $-1 $-1 $192 $74 #
plane-surface $-1 0 -28.172983866648469 0 0 1 0 0 0 1 forward_v I I I I #
coedge $-1 $193 $77 $194 $195 forward $49 $-1 #
coedge $-1 $77 $193 $196 $197 forward $49 $-1 #
coedge $-1 $79 $78 $77 $126 reversed $31 $-1 #
edge $-1 $198 -28.172983866648469 $199 28.172983866648469 $125 $200 forward 7 unknown #
coedge $-1 $201 $194 $78 $128 forward $202 $-1 #
edge $-1 $199 -9.8905942750817584 $133 9.8905942750817584 $78 $203 forward 7 unknown #
coedge $-1 $196 $204 $79 $130 reversed $121 $-1 #
edge $-1 $198 -9.8905942750817584 $134 9.8905942750817584 $79 $205 forward 7 unknown #
coedge $-1 $206 $80 $204 $207 forward $75 $-1 #
coedge $-1 $80 $206 $201 $208 forward $75 $-1 #
vertex $-1 $81 $209 #
vertex $-1 $130 $210 #
straight-curve $-1 65.568407238990446 0 -9.8905942750817584 0 -1 0 I I #
face $-1 $211 $212 $19 $-1 $213 reversed single #
loop $-1 $-1 $88 $82 #
plane-surface $-1 -69.410634622669164 -25.172983866648469 0 0 -1 0 0 0 -1 forward_v I I I I #
coedge $-1 $214 $215 $216 $217 forward $83 $-1 #
coedge $-1 $218 $85 $147 $219 forward $53 $-1 #
coedge $-1 $85 $218 $220 $221 forward $53 $-1 #
edge $-1 $222 -28.172983866648469 $149 -25.172983866648469 $85 $223 forward 7 unknown #
coedge $-1 $87 $86 $224 $225 reversed $34 $-1 #
coedge $-1 $226 $227 $87 $145 forward $212 $-1 #
edge $-1 $148 25.172983866648469 $228 28.172983866648469 $144 $229 forward 7 unknown #
coedge $-1 $216 $88 $227 $230 reversed $137 $-1 #
coedge $-1 $88 $216 $140 $219 reversed $137 $-1 #
vertex $-1 $145 $231 #
vertex $-1 $219 $232 #
straight-curve $-1 -65.568407238990446 -25.172983866648469 0 0 0 1 I I #
face $-1 $233 $234 $20 $-1 $235 reversed single #
loop $-1 $-1 $236 $90 #
plane-surface $-1 70.867220603317108 -11.103361564307786 0 0 -1 0 0 0 -1 forward_v I I I I #
coedge $-1 $237 $93 $238 $239 forward $57 $-1 #
coedge $-1 $93 $237 $160 $240 forward $57 $-1 #
edge $-1 $162 -15.024162531034889 $241 -11.103361564307786 $93 $242 forward 7 unknown #
coedge $-1 $95 $94 $243 $244 forward $37 $-1 #
coedge $-1 $245 $246 $94 $159 forward $247 $-1 #
edge $-1 $248 11.103361564307786 $163 15.024162531034889 $158 $249 forward 7 unknown #
coedge $-1 $250 $96 $155 $240 reversed $91 $-1 #
coedge $-1 $96 $250 $245 $251 reversed $91 $-1 #
vertex $-1 $156 $252 #
vertex $-1 $251 $253 #
straight-curve $-1 65.568407238990446 -15.024162531034889 0 0 0 1 I I #
face $-1 $-1 $177 $21 $-1 $254 forward single #
loop $-1 $-1 $255 $98 #
plane-surface $-1 0 28.172983866648469 0 0 -1 0 0 0 -1 forward_v I I I I #
coedge $-1 $256 $257 $258 $259 reversed $99 $-1 #
coedge $-1 $260 $101 $103 $175 forward $61 $-1 #
coedge $-1 $101 $260 $256 $261 forward $61 $-1 #
coedge $-1 $258 $104 $101 $172 forward $177 $-1 #
edge $-1 $179 5.1280681411050466 $262 20.570640432473169 $171 $263 forward 7 unknown #
coedge $-1 $264 $265 $102 $174 forward $166 $-1 #
edge $-1 $266 -59.718929741778943 $178 -54.310470736300566 $173 $267 forward 7 unknown #
edge $-1 $179 49.573843426597136 $266 56.345967733296902 $103 $268 forward 7 unknown #
coedge $-1 $104 $258 $264 $269 forward $177 $-1 #
loop $-1 $-1 $258 $165 #
vertex $-1 $174 $270 #
vertex $-1 $105 $271 #
straight-curve $-1 17.977422427894155 49.496826200352125 9.8905942750817601 0 -1 0 I I #
coedge $-1 $181 $181 $-1 $272 reversed $108 $-1 #
edge $-1 $273 0 $273 6.2831853071796004 $109 $274 forward 7 unknown #
vertex $-1 $112 $275 #
ellipse-curve $-1 22.389585939713626 26.135200830389852 7.1863647723425625 0 0.79863551827123203 0.60181501223851219 1 0 0 1 I I #
coedge $-1 $185 $185 $-1 $276 reversed $115 $-1 #
edge $-1 $277 0 $277 6.2831853071796004 $116 $278 forward 7 unknown #
vertex $-1 $119 $279 #
ellipse-curve $-1 29.00783120744282 26.135200830389852 7.1863647723425625 0 0.79863551827123203 0.60181501223851219 1 0 0 1 I I #
face $-1 $-1 $202 $18 $-1 $280 reversed single #
loop $-1 $-1 $281 $120 #
plane-surface $-1 -65.568407238990446 0 0 1 0 0 0 0 -1 forward_v I I I I #
coedge $-1 $204 $196 $282 $283 forward $121 $-1 #
coedge $-1 $124 $123 $281 $284 forward $49 $-1 #
coedge $-1 $127 $285 $123 $195 reversed $202 $-1 #
edge $-1 $199 -65.568407238990446 $286 65.568407238990446 $194 $287 forward 7 unknown #
coedge $-1 $192 $129 $124 $197 reversed $121 $-1 #
edge $-1 $288 -65.568407238990446 $198 65.568407238990446 $196 $289 forward 7 unknown #
vertex $-1 $126 $290 #
vertex $-1 $126 $291 #
straight-curve $-1 65.568407238990446 0 9.8905942750817584 0 1 0 I I #
coedge $-1 $285 $127 $132 $208 reversed $202 $-1 #
loop $-1 $-1 $127 $189 #
straight-curve $-1 65.568407238990446 28.172983866648469 0 0 0 -1 I I #
coedge $-1 $129 $192 $131 $207 reversed $121 $-1 #
straight-curve $-1 65.568407238990446 -28.172983866648469 0 0 0 -1 I I #
coedge $-1 $132 $131 $292 $293 forward $75 $-1 #
edge $-1 $134 -65.568407238990446 $294 65.568407238990446 $204 $295 forward 7 unknown #
edge $-1 $296 -65.568407238990446 $133 65.568407238990446 $201 $297 forward 7 unknown #
point $-1 65.568407238990446 28.172983866648469 -9.8905942750817584 #
point $-1 65.568407238990446 -28.172983866648469 -9.8905942750817584 #
face $-1 $-1 $298 $19 $-1 $299 reversed single #
loop $-1 $-1 $144 $136 #
plane-surface $-1 0 0 -9.8905942750817584 0 0 1 1 0 0 forward_v I I I I #
coedge $-1 $300 $139 $301 $302 reversed $83 $-1 #
coedge $-1 $139 $300 $218 $303 reversed $83 $-1 #
coedge $-1 $147 $146 $139 $217 reversed $137 $-1 #
edge $-1 $304 -9.8905942750817584 $305 9.8905942750817584 $216 $306 forward 7 unknown #
coedge $-1 $141 $140 $215 $303 forward $53 $-1 #
edge $-1 $149 -3.8422273836787184 $304 3.8422273836787184 $147 $307 forward 7 unknown #
coedge $-1 $308 $224 $141 $221 reversed $298 $-1 #
edge $-1 $309 -73.252862006347883 $222 -65.568407238990446 $220 $310 forward 7 unknown #
vertex $-1 $225 $311 #
straight-curve $-1 -65.568407238990446 0 9.8905942750817584 0 1 0 I I #
coedge $-1 $220 $312 $143 $225 forward $298 $-1 #
edge $-1 $228 -9.8905942750817584 $222 9.8905942750817584 $224 $313 forward 7 unknown #
coedge $-1 $301 $144 $312 $314 forward $212 $-1 #
coedge $-1 $144 $301 $146 $230 forward $212 $-1 #
vertex $-1 $314 $315 #
straight-curve $-1 -65.568407238990446 0 -9.8905942750817584 0 -1 0 I I #
edge $-1 $305 -3.8422273836787184 $148 3.8422273836787184 $146 $316 forward 7 unknown #
point $-1 -65.568407238990446 -25.172983866648469 -9.8905942750817584 #
point $-1 -65.568407238990446 -25.172983866648469 9.8905942750817584 #
face $-1 $-1 $247 $20 $-1 $317 forward single #
loop $-1 $-1 $318 $151 #
plane-surface $-1 76.166033967643784 -13.063762047671338 0 -1 0 0 0 0 1 forward_v I I I I #
coedge $-1 $238 $319 $320 $321 forward $152 $-1 #
coedge $-1 $155 $154 $322 $323 forward $57 $-1 #
coedge $-1 $243 $236 $154 $239 reversed $152 $-1 #
edge $-1 $241 -5.2988133643266764 $324 5.2988133643266764 $238 $325 forward 7 unknown #
edge $-1 $326 -5.2988133643266764 $162 5.2988133643266764 $160 $327 forward 7 unknown #
vertex $-1 $239 $328 #
straight-curve $-1 65.568407238990446 0 -9.8905942750817584 0 1 0 I I #
coedge $-1 $319 $238 $157 $244 reversed $152 $-1 #
edge $-1 $248 -9.8905942750817584 $241 9.8905942750817584 $243 $329 forward 7 unknown #
coedge $-1 $330 $158 $161 $251 forward $247 $-1 #
coedge $-1 $158 $330 $319 $331 forward $247 $-1 #
loop $-1 $-1 $158 $233 #
vertex $-1 $159 $332 #
straight-curve $-1 65.568407238990446 0 9.8905942750817584 0 -1 0 I I #
coedge $-1 $161 $160 $318 $333 reversed $91 $-1 #
edge $-1 $163 -5.2988133643266764 $334 5.2988133643266764 $161 $335 forward 7 unknown #
point $-1 65.568407238990432 -15.024162531034889 -9.8905942750817584 #
point $-1 65.568407238990432 -15.024162531034889 9.8905942750817584 #
plane-surface $-1 0 0 9.8905942750817584 0 0 1 1 0 0 forward_v I I I I #
coedge $-1 $265 $264 $257 $336 forward $166 $-1 #
coedge $-1 $257 $168 $170 $261 reversed $99 $-1 #
coedge $-1 $168 $256 $255 $336 reversed $99 $-1 #
coedge $-1 $176 $171 $168 $259 forward $177 $-1 #
edge $-1 $262 -25.399408406220907 $337 -21.323842333703656 $258 $338 forward 7 unknown #
coedge $-1 $170 $169 $265 $339 reversed $61 $-1 #
edge $-1 $340 -56.345967733296902 $262 -49.573843426597136 $256 $341 forward 7 unknown #
vertex $-1 $172 $342 #
straight-curve $-1 12.849354286789108 24.097417794131218 9.8905942750817601 1 0 0 I I #
coedge $-1 $255 $173 $176 $269 reversed $166 $-1 #
coedge $-1 $173 $255 $260 $339 forward $166 $-1 #
vertex $-1 $174 $343 #
straight-curve $-1 17.977422427894155 28.172983866648465 64.201065011382326 0 0 1 I I #
straight-curve $-1 17.977422427894155 -5.7368653943564283 49.482026412779078 0 0.60181501223851219 -0.79863551827123203 I I #
edge $-1 $337 -33.419994719262277 $178 -17.977422427894155 $264 $344 forward 7 unknown #
point $-1 17.977422427894155 28.172983866648469 9.8905942750817584 #
point $-1 17.977422427894155 24.097417794131218 9.8905942750817601 #
edge $-1 $345 1 $345 0 $181 $-1 forward 7 unknown #
vertex $-1 $182 $346 #
ellipse-curve $-1 22.389585939713626 23.787528770362321 5.4172670334943822 0 0.79863551827123203 0.60181501223851219 1 0 0 1 I I #
point $-1 23.389585939713626 26.135200830389834 7.186364772342551 #
edge $-1 $347 1 $347 0 $185 $-1 forward 7 unknown #
vertex $-1 $186 $348 #
ellipse-curve $-1 29.00783120744282 23.787528770362321 5.4172670334943822 0 0.79863551827123203 0.60181501223851219 1 0 0 1 I I #
point $-1 30.00783120744282 26.135200830389834 7.186364772342551 #
plane-surface $-1 0 28.172983866648469 0 0 -1 0 0 0 -1 forward_v I I I I #
coedge $-1 $349 $282 $193 $284 reversed $190 $-1 #
coedge $-1 $281 $292 $192 $283 reversed $190 $-1 #
edge $-1 $288 -9.8905942750817584 $294 9.8905942750817584 $282 $350 forward 7 unknown #
edge $-1 $286 -28.172983866648469 $288 28.172983866648469 $281 $351 forward 7 unknown #
coedge $-1 $194 $201 $349 $352 reversed $202 $-1 #
vertex $-1 $195 $353 #
straight-curve $-1 0 28.172983866648469 9.8905942750817584 -1 0 0 I I #
vertex $-1 $284 $354 #
straight-curve $-1 0 -28.172983866648469 9.8905942750817584 1 0 0 I I #
point $-1 65.568407238990446 -28.172983866648469 9.8905942750817584 #
point $-1 65.568407238990446 28.172983866648469 9.8905942750817584 #
coedge $-1 $282 $349 $206 $293 reversed $190 $-1 #
edge $-1 $294 -28.172983866648469 $296 28.172983866648469 $292 $355 forward 7 unknown #
vertex $-1 $293 $356 #
straight-curve $-1 0 -28.172983866648469 -9.8905942750817584 -1 0 0 I I #
vertex $-1 $208 $357 #
straight-curve $-1 0 28.172983866648469 -9.8905942750817584 1 0 0 I I #
loop $-1 $-1 $224 $211 #
plane-surface $-1 0 -28.172983866648469 0 0 1 0 0 0 1 forward_v I I I I #
coedge $-1 $215 $214 $308 $358 reversed $83 $-1 #
coedge $-1 $227 $226 $214 $302 forward $212 $-1 #
edge $-1 $359 -1.5 $305 1.5 $214 $360 forward 7 unknown #
edge $-1 $304 -1.5 $309 1.5 $215 $361 forward 7 unknown #
vertex $-1 $219 $362 #
vertex $-1 $230 $363 #
straight-curve $-1 -73.252862006347883 -25.172983866648469 0 0 0 -1 I I #
straight-curve $-1 -69.410634622669164 -25.172983866648469 9.8905942750817584 -1 0 0 I I #
coedge $-1 $312 $220 $300 $358 forward $298 $-1 #
vertex $-1 $303 $364 #
straight-curve $-1 0 -28.172983866648469 9.8905942750817584 1 0 0 I I #
point $-1 -65.568407238990446 -28.172983866648469 9.8905942750817584 #
coedge $-1 $224 $308 $226 $314 reversed $298 $-1 #
straight-curve $-1 -65.568407238990446 -28.172983866648469 0 0 0 1 I I #
edge $-1 $228 -3.8422273836787184 $359 3.8422273836787184 $312 $365 forward 7 unknown #
point $-1 -65.568407238990446 -28.172983866648469 -9.8905942750817584 #
straight-curve $-1 -69.410634622669164 -25.172983866648469 -9.8905942750817584 1 0 0 I I #
plane-surface $-1 0 0 9.8905942750817584 0 0 1 1 0 0 forward_v I I I I #
coedge $-1 $322 $366 $250 $333 forward $234 $-1 #
coedge $-1 $236 $243 $246 $331 reversed $152 $-1 #
coedge $-1 $366 $322 $236 $321 reversed $234 $-1 #
edge $-1 $367 -9.8905942750817584 $324 9.8905942750817584 $320 $368 forward 7 unknown #
coedge $-1 $320 $318 $237 $323 reversed $234 $-1 #
edge $-1 $324 -1.9604004833635518 $326 1.9604004833635518 $322 $369 forward 7 unknown #
vertex $-1 $323 $370 #
straight-curve $-1 70.867220603317108 -11.103361564307786 -9.8905942750817584 1 0 0 I I #
vertex $-1 $333 $371 #
straight-curve $-1 70.867220603317108 -15.024162531034889 -9.8905942750817584 -1 0 0 I I #
point $-1 65.568407238990432 -11.103361564307786 -9.8905942750817584 #
straight-curve $-1 65.568407238990446 -11.103361564307786 0 0 0 -1 I I #
coedge $-1 $246 $245 $366 $372 forward $247 $-1 #
edge $-1 $367 -5.2988133643266764 $248 5.2988133643266764 $319 $373 forward 7 unknown #
point $-1 65.568407238990432 -11.103361564307786 9.8905942750817584 #
edge $-1 $334 -9.8905942750817584 $326 9.8905942750817584 $318 $374 forward 7 unknown #
vertex $-1 $372 $375 #
straight-curve $-1 70.867220603317108 -15.024162531034889 9.8905942750817584 1 0 0 I I #
edge $-1 $337 54.310470736300566 $340 59.718929741778943 $255 $376 forward 7 unknown #
vertex $-1 $269 $377 #
straight-curve $-1 33.419994719262277 49.496826200352125 9.8905942750817601 0 1 0 I I #
edge $-1 $340 -20.570640432473169 $266 -5.1280681411050466 $265 $378 forward 7 unknown #
vertex $-1 $339 $379 #
straight-curve $-1 33.419994719262277 -5.7368653943564283 49.482026412779078 0 -0.60181501223851219 0.79863551827123203 I I #
point $-1 33.419994719262277 24.097417794131218 9.8905942750817601 #
point $-1 17.977422427894155 28.172983866648465 4.4821352696033827 #
straight-curve $-1 0 28.172983866648469 9.8905942750817584 -1 0 0 I I #
vertex $-1 $272 $380 #
point $-1 23.389585939713626 23.787528770362321 5.4172670334943822 #
vertex $-1 $276 $381 #
point $-1 30.00783120744282 23.787528770362321 5.4172670334943822 #
coedge $-1 $292 $281 $285 $352 forward $190 $-1 #
straight-curve $-1 -65.568407238990446 -28.172983866648469 0 0 0 -1 I I #
straight-curve $-1 -65.568407238990446 0 9.8905942750817584 0 -1 0 I I #
edge $-1 $286 -9.8905942750817584 $296 9.8905942750817584 $285 $382 forward 7 unknown #
point $-1 -65.568407238990446 28.172983866648469 9.8905942750817584 #
point $-1 -65.568407238990446 -28.172983866648469 9.8905942750817584 #
straight-curve $-1 -65.568407238990446 0 -9.8905942750817584 0 1 0 I I #
point $-1 -65.568407238990446 -28.172983866648469 -9.8905942750817584 #
point $-1 -65.568407238990446 28.172983866648469 -9.8905942750817584 #
edge $-1 $309 -9.8905942750817584 $359 9.8905942750817584 $300 $383 forward 7 unknown #
vertex $-1 $302 $384 #
straight-curve $-1 -73.252862006347883 -26.672983866648469 -9.8905942750817584 0 1 0 I I #
straight-curve $-1 -73.252862006347883 -26.672983866648469 9.8905942750817584 0 -1 0 I I #
point $-1 -73.252862006347883 -25.172983866648469 9.8905942750817584 #
point $-1 -73.252862006347883 -25.172983866648469 -9.8905942750817584 #
point $-1 -73.252862006347883 -28.172983866648469 9.8905942750817584 #
straight-curve $-1 -69.410634622669164 -28.172983866648469 -9.8905942750817584 -1 0 0 I I #
coedge $-1 $318 $320 $330 $372 reversed $234 $-1 #
vertex $-1 $372 $385 #
straight-curve $-1 76.166033967643784 -11.103361564307786 0 0 0 -1 I I #
straight-curve $-1 76.166033967643784 -13.063762047671338 -9.8905942750817584 0 -1 0 I I #
point $-1 76.166033967643784 -11.103361564307786 -9.8905942750817584 #
point $-1 76.166033967643784 -15.024162531034889 -9.8905942750817584 #
edge $-1 $334 -1.9604004833635518 $367 1.9604004833635518 $366 $386 forward 7 unknown #
straight-curve $-1 70.867220603317108 -11.103361564307786 9.8905942750817584 -1 0 0 I I #
straight-curve $-1 76.166033967643784 -15.024162531034889 0 0 0 -1 I I #
point $-1 76.166033967643784 -15.024162531034889 9.8905942750817584 #
straight-curve $-1 33.419994719262277 28.172983866648465 64.201065011382326 0 0 -1 I I #
point $-1 33.419994719262277 28.172983866648469 9.8905942750817584 #
straight-curve $-1 12.849354286789108 28.172983866648465 4.4821352696033827 -1 0 0 I I #
point $-1 33.419994719262277 28.172983866648465 4.4821352696033827 #
point $-1 22.389585939713626 22.988893252091088 4.8154520212558696 #
point $-1 29.00783120744282 22.988893252091088 4.8154520212558696 #
straight-curve $-1 -65.568407238990446 28.172983866648469 0 0 0 -1 I I #
straight-curve $-1 -73.252862006347883 -28.172983866648469 0 0 0 -1 I I #
point $-1 -73.252862006347883 -28.172983866648469 -9.8905942750817584 #
point $-1 76.166033967643784 -11.103361564307786 9.8905942750817584 #
straight-curve $-1 76.166033967643784 -13.063762047671338 9.8905942750817584 0 1 0 I I #
End-of-ACIS-data 