500 0 10 0           
7 Unknown 11 ACIS 5.0 NT 24 Thu Mar 25 23:01:47 1999 
-1 9.9999999999999995e-007 1e-010 
body $-1 $10 $-1 $11 #
body $-1 $12 $-1 $13 #
body $-1 $14 $-1 $15 #
body $-1 $16 $-1 $17 #
body $-1 $18 $-1 $19 #
body $-1 $20 $-1 $21 #
body $-1 $22 $-1 $23 #
body $-1 $24 $-1 $25 #
body $-1 $26 $-1 $27 #
body $-1 $28 $-1 $29 #
lump $-1 $-1 $30 $0 #
transform $-1 1 0 0 0 1 0 0 0 1 55.422833948789943 34.302720469223296 9.7605775495727496 1 rotate no_reflect no_shear #
lump $-1 $-1 $31 $1 #
transform $-1 1 0 0 0 1 0 0 0 1 55.422833948789943 34.302720469223296 9.7605775495727496 1 rotate no_reflect no_shear #
lump $-1 $-1 $32 $2 #
transform $-1 1 0 0 0 1 0 0 0 1 55.422833948789943 34.302720469223296 9.7605775495727496 1 rotate no_reflect no_shear #
lump $-1 $-1 $33 $3 #
transform $-1 1 0 0 0 1 0 0 0 1 55.422833948789943 34.302720469223296 9.7605775495727496 1 rotate no_reflect no_shear #
lump $-1 $-1 $34 $4 #
transform $-1 1 0 0 0 1 0 0 0 1 55.422833948789943 34.302720469223296 9.7605775495727496 1 rotate no_reflect no_shear #
lump $-1 $-1 $35 $5 #
transform $-1 1 0 0 0 1 0 0 0 1 55.422833948789943 34.302720469223296 9.7605775495727496 1 rotate no_reflect no_shear #
lump $-1 $-1 $36 $6 #
transform $-1 1 0 0 0 1 0 0 0 1 55.422833948789943 34.302720469223296 9.7605775495727496 1 rotate no_reflect no_shear #
lump $-1 $-1 $37 $7 #
transform $-1 1 0 0 0 1 0 0 0 1 55.422833948789943 34.302720469223296 9.7605775495727496 1 rotate no_reflect no_shear #
lump $-1 $-1 $38 $8 #
transform $-1 1 0 0 0 1 0 0 0 1 55.422833948789943 34.302720469223296 9.7605775495727496 1 rotate no_reflect no_shear #
lump $-1 $-1 $39 $9 #
transform $-1 1 0 0 0 1 0 0 0 1 55.422833948789943 34.302720469223296 9.7605775495727496 1 rotate no_reflect no_shear #
shell $-1 $-1 $-1 $40 $-1 $10 #
shell $-1 $-1 $-1 $41 $-1 $12 #
shell $-1 $-1 $-1 $42 $-1 $14 #
shell $-1 $-1 $-1 $43 $-1 $16 #
shell $-1 $-1 $-1 $44 $-1 $18 #
shell $-1 $-1 $-1 $45 $-1 $20 #
shell $-1 $-1 $-1 $46 $-1 $22 #
shell $-1 $-1 $-1 $47 $-1 $24 #
shell $-1 $-1 $-1 $48 $-1 $26 #
shell $-1 $-1 $-1 $49 $-1 $28 #
face $-1 $50 $51 $30 $-1 $52 forward single #
face $-1 $53 $54 $31 $-1 $55 reversed single #
face $-1 $56 $57 $32 $-1 $58 reversed single #
face $-1 $59 $60 $33 $-1 $61 forward single #
face $-1 $62 $63 $34 $-1 $64 forward single #
face $-1 $65 $66 $35 $-1 $67 forward single #
face $-1 $68 $69 $36 $-1 $70 reversed single #
face $-1 $71 $72 $37 $-1 $73 forward single #
face $-1 $74 $75 $38 $-1 $76 forward single #
face $-1 $77 $78 $39 $-1 $79 forward single #
face $-1 $80 $81 $30 $-1 $82 reversed single #
loop $-1 $-1 $83 $40 #
plane-surface $-1 0 0 9.7605775495727496 0 0 1 1 0 0 forward_v I I I I #
face $-1 $84 $85 $31 $-1 $86 reversed single #
loop $-1 $-1 $87 $41 #
plane-surface $-1 -50.386048862860676 0 4.1966283379436851 0 0 1 1 0 0 forward_v I I I I #
face $-1 $88 $89 $32 $-1 $90 reversed single #
loop $-1 $-1 $91 $42 #
plane-surface $-1 -30.493629161030949 -23.23464332884673 39.820029718672018 0 0.54463904215088732 0.83867056331134215 1 0 0 forward_v I I I I #
face $-1 $92 $93 $33 $-1 $94 forward single #
loop $-1 $95 $96 $43 #
cone-surface $-1 -39.407009930571228 27.28903780954435 3.9692170137823903 0 -0.54463904215088732 -0.83867056331134215 2 0 0 1 I I 0 1 2 forward I I I I #
face $-1 $97 $98 $34 $-1 $99 forward single #
loop $-1 $100 $101 $44 #
cone-surface $-1 -30.493629161030945 27.28903780954435 3.9692170137823903 0 -0.54463904215088732 -0.83867056331134215 2 0 0 1 I I 0 1 2 forward I I I I #
face $-1 $102 $103 $35 $-1 $104 forward single #
loop $-1 $105 $106 $45 #
cone-surface $-1 -21.580248391490663 27.28903780954435 3.9692170137823903 0 -0.54463904215088732 -0.83867056331134215 2 0 0 1 I I 0 1 2 forward I I I I #
face $-1 $107 $108 $36 $-1 $109 reversed single #
loop $-1 $-1 $110 $46 #
plane-surface $-1 -15.637994545130482 -94.673598859536554 95.417826815902487 -1 0 0 0 -0.54463904215088732 0.83867056331134215 forward_v I I I I #
face $-1 $111 $112 $37 $-1 $113 forward single #
loop $-1 $114 $115 $47 #
cone-surface $-1 -39.407009930571228 -27.28903780954435 3.9692170137823886 0 0.54463904215088732 -0.83867056331134215 2 0 0 1 I I 0 1 2 forward I I I I #
face $-1 $116 $117 $38 $-1 $118 forward single #
loop $-1 $119 $120 $48 #
cone-surface $-1 -30.493629161030945 -27.28903780954435 3.9692170137823886 0 0.54463904215088732 -0.83867056331134215 2 0 0 1 I I 0 1 2 forward I I I I #
face $-1 $121 $122 $39 $-1 $123 forward single #
loop $-1 $124 $125 $49 #
cone-surface $-1 -21.580248391490663 -27.28903780954435 3.9692170137823886 0 0.54463904215088732 -0.83867056331134215 2 0 0 1 I I 0 1 2 forward I I I I #
face $-1 $126 $127 $30 $-1 $128 reversed single #
loop $-1 $-1 $129 $50 #
plane-surface $-1 0 0 -9.7605775495727496 0 0 1 1 0 0 forward_v I I I I #
coedge $-1 $130 $131 $132 $133 forward $51 $-1 #
face $-1 $134 $135 $31 $-1 $136 reversed single #
loop $-1 $-1 $137 $53 #
plane-surface $-1 -45.349263776931409 0 6.9786029437582169 -1 0 0 0 0 1 forward_v I I I I #
coedge $-1 $138 $139 $137 $140 forward $54 $-1 #
face $-1 $141 $142 $32 $-1 $143 forward single #
loop $-1 $-1 $144 $56 #
plane-surface $-1 -15.637994545130482 37.136235061466543 132.7830284549573 -1 0 0 0 0.54463904215088732 0.83867056331134215 forward_v I I I I #
coedge $-1 $145 $146 $147 $148 reversed $57 $-1 #
face $-1 $-1 $149 $33 $-1 $150 forward single #
loop $-1 $151 $152 $59 #
cone-surface $-1 -39.407009930571228 25.355649824531781 0.9920606496584643 0 -0.54463904215088732 -0.83867056331134215 1 0 0 1 I I -0.70710678118654746 0.70710678118654746 1 forward I I I I #
loop $-1 $-1 $153 $43 #
coedge $-1 $96 $96 $154 $155 reversed $60 $-1 #
face $-1 $-1 $156 $34 $-1 $157 forward single #
loop $-1 $158 $159 $62 #
cone-surface $-1 -30.493629161030945 25.355649824531781 0.9920606496584643 0 -0.54463904215088732 -0.83867056331134215 1 0 0 1 I I -0.70710678118654746 0.70710678118654746 1 forward I I I I #
loop $-1 $-1 $160 $44 #
coedge $-1 $101 $101 $161 $162 reversed $63 $-1 #
face $-1 $-1 $163 $35 $-1 $164 forward single #
loop $-1 $165 $166 $65 #
cone-surface $-1 -21.580248391490663 25.355649824531781 0.9920606496584643 0 -0.54463904215088732 -0.83867056331134215 1 0 0 1 I I -0.70710678118654746 0.70710678118654746 1 forward I I I I #
loop $-1 $-1 $167 $45 #
coedge $-1 $106 $106 $168 $169 reversed $66 $-1 #
face $-1 $170 $171 $36 $-1 $172 forward single #
loop $-1 $-1 $173 $68 #
plane-surface $-1 -30.493629161030949 -34.302720469223281 2.4548280796172008 0 -0.54463904215088732 0.83867056331134215 1 0 0 forward_v I I I I #
coedge $-1 $174 $175 $176 $177 reversed $69 $-1 #
face $-1 $-1 $178 $37 $-1 $179 forward single #
loop $-1 $180 $181 $71 #
cone-surface $-1 -39.407009930571228 -25.355649824531781 0.99206064965846252 0 0.54463904215088732 -0.83867056331134215 1 0 0 1 I I -0.70710678118654746 0.70710678118654746 1 forward I I I I #
loop $-1 $-1 $182 $47 #
coedge $-1 $115 $115 $183 $184 reversed $72 $-1 #
face $-1 $-1 $185 $38 $-1 $186 forward single #
loop $-1 $187 $188 $74 #
cone-surface $-1 -30.493629161030945 -25.355649824531781 0.99206064965846252 0 0.54463904215088732 -0.83867056331134215 1 0 0 1 I I -0.70710678118654746 0.70710678118654746 1 forward I I I I #
loop $-1 $-1 $189 $48 #
coedge $-1 $120 $120 $190 $191 reversed $75 $-1 #
face $-1 $-1 $192 $39 $-1 $193 forward single #
loop $-1 $194 $195 $77 #
cone-surface $-1 -21.580248391490663 -25.355649824531781 0.99206064965846252 0 0.54463904215088732 -0.83867056331134215 1 0 0 1 I I -0.70710678118654746 0.70710678118654746 1 forward I I I I #
loop $-1 $-1 $196 $49 #
coedge $-1 $125 $125 $197 $198 reversed $78 $-1 #
face $-1 $199 $200 $30 $-1 $201 reversed single #
loop $-1 $-1 $202 $80 #
plane-surface $-1 0 -34.302720469223296 0 0 1 0 0 0 1 forward_v I I I I #
coedge $-1 $203 $204 $205 $206 forward $81 $-1 #
coedge $-1 $207 $83 $208 $209 forward $51 $-1 #
coedge $-1 $83 $207 $210 $211 forward $51 $-1 #
coedge $-1 $212 $213 $83 $133 reversed $214 $-1 #
edge $-1 $215 -34.302720469223296 $216 34.302720469223296 $132 $217 forward 7 unknown #
face $-1 $218 $219 $31 $-1 $220 reversed single #
loop $-1 $-1 $221 $84 #
plane-surface $-1 0 34.302720469223296 0 0 -1 0 0 0 -1 forward_v I I I I #
coedge $-1 $222 $223 $87 $140 reversed $85 $-1 #
coedge $-1 $224 $87 $225 $226 reversed $54 $-1 #
coedge $-1 $87 $224 $227 $228 reversed $54 $-1 #
edge $-1 $229 -34.302720469223296 $230 34.302720469223296 $137 $231 forward 7 unknown #
face $-1 $232 $233 $32 $-1 $234 reversed single #
loop $-1 $-1 $147 $88 #
plane-surface $-1 0 0 9.7605775495727496 0 0 1 1 0 0 forward_v I I I I #
coedge $-1 $235 $236 $237 $238 reversed $89 $-1 #
coedge $-1 $239 $91 $240 $241 reversed $57 $-1 #
coedge $-1 $91 $239 $235 $242 forward $57 $-1 #
coedge $-1 $237 $243 $91 $148 forward $142 $-1 #
edge $-1 $244 -30.102449196415932 $245 -0.39117996461500759 $147 $246 forward 7 unknown #
loop $-1 $-1 $154 $92 #
plane-surface $-1 -30.493629161030949 -23.23464332884673 39.820029718672018 0 0.54463904215088732 0.83867056331134215 1 0 0 forward_v I I I I #
loop $-1 $-1 $247 $59 #
coedge $-1 $152 $152 $153 $248 reversed $93 $-1 #
coedge $-1 $153 $153 $152 $248 forward $95 $-1 #
coedge $-1 $154 $154 $96 $155 forward $149 $-1 #
edge $-1 $249 1.0446098072252668e-015 $249 6.2831853071796013 $154 $250 forward 7 unknown #
loop $-1 $-1 $161 $97 #
plane-surface $-1 -30.493629161030949 -23.23464332884673 39.820029718672018 0 0.54463904215088732 0.83867056331134215 1 0 0 forward_v I I I I #
loop $-1 $-1 $251 $62 #
coedge $-1 $159 $159 $160 $252 reversed $98 $-1 #
coedge $-1 $160 $160 $159 $252 forward $100 $-1 #
coedge $-1 $161 $161 $101 $162 forward $156 $-1 #
edge $-1 $253 1.0446098072252668e-015 $253 6.2831853071796013 $161 $254 forward 7 unknown #
loop $-1 $-1 $168 $102 #
plane-surface $-1 -30.493629161030949 -23.23464332884673 39.820029718672018 0 0.54463904215088732 0.83867056331134215 1 0 0 forward_v I I I I #
loop $-1 $-1 $255 $65 #
coedge $-1 $166 $166 $167 $256 reversed $103 $-1 #
coedge $-1 $167 $167 $166 $256 forward $105 $-1 #
coedge $-1 $168 $168 $106 $169 forward $163 $-1 #
edge $-1 $257 1.0446098072252668e-015 $257 6.2831853071796013 $168 $258 forward 7 unknown #
face $-1 $259 $260 $36 $-1 $261 forward single #
loop $-1 $-1 $262 $107 #
plane-surface $-1 -45.349263776931409 0 6.9786029437582169 -1 0 0 0 0 1 forward_v I I I I #
coedge $-1 $263 $264 $265 $266 reversed $108 $-1 #
coedge $-1 $175 $110 $267 $268 reversed $69 $-1 #
coedge $-1 $110 $174 $263 $269 reversed $69 $-1 #
coedge $-1 $265 $270 $110 $177 forward $260 $-1 #
edge $-1 $271 13.034078960544981 $272 24.283946394179502 $176 $273 forward 7 unknown #
loop $-1 $-1 $183 $111 #
plane-surface $-1 -30.493629161030949 -34.302720469223281 2.4548280796172008 0 -0.54463904215088732 0.83867056331134215 1 0 0 forward_v I I I I #
loop $-1 $-1 $274 $71 #
coedge $-1 $181 $181 $182 $275 reversed $112 $-1 #
coedge $-1 $182 $182 $181 $275 forward $114 $-1 #
coedge $-1 $183 $183 $115 $184 forward $178 $-1 #
edge $-1 $276 -1.2479098692594809e-015 $276 6.2831853071795996 $183 $277 forward 7 unknown #
loop $-1 $-1 $190 $116 #
plane-surface $-1 -30.493629161030949 -34.302720469223281 2.4548280796172008 0 -0.54463904215088732 0.83867056331134215 1 0 0 forward_v I I I I #
loop $-1 $-1 $278 $74 #
coedge $-1 $188 $188 $189 $279 reversed $117 $-1 #
coedge $-1 $189 $189 $188 $279 forward $119 $-1 #
coedge $-1 $190 $190 $120 $191 forward $185 $-1 #
edge $-1 $280 -1.2479098692594809e-015 $280 6.2831853071795996 $190 $281 forward 7 unknown #
loop $-1 $-1 $197 $121 #
plane-surface $-1 -30.493629161030949 -34.302720469223281 2.4548280796172008 0 -0.54463904215088732 0.83867056331134215 1 0 0 forward_v I I I I #
loop $-1 $-1 $282 $77 #
coedge $-1 $195 $195 $196 $283 reversed $122 $-1 #
coedge $-1 $196 $196 $195 $283 forward $124 $-1 #
coedge $-1 $197 $197 $125 $198 forward $192 $-1 #
edge $-1 $284 -1.2479098692594809e-015 $284 6.2831853071795996 $197 $285 forward 7 unknown #
face $-1 $286 $287 $30 $-1 $288 reversed single #
loop $-1 $-1 $289 $126 #
plane-surface $-1 -55.422833948789943 0 0 1 0 0 0 0 -1 forward_v I I I I #
coedge $-1 $290 $210 $291 $292 forward $127 $-1 #
coedge $-1 $293 $129 $290 $294 forward $81 $-1 #
coedge $-1 $129 $293 $295 $296 forward $81 $-1 #
coedge $-1 $213 $212 $129 $206 reversed $214 $-1 #
edge $-1 $297 -34.302720469223296 $298 34.302720469223296 $205 $299 forward 7 unknown #
coedge $-1 $131 $130 $300 $301 forward $51 $-1 #
coedge $-1 $302 $303 $130 $209 reversed $287 $-1 #
edge $-1 $216 -55.422833948789943 $304 55.422833948789943 $208 $305 forward 7 unknown #
coedge $-1 $202 $306 $131 $211 reversed $127 $-1 #
edge $-1 $307 -55.422833948789943 $215 55.422833948789943 $210 $308 forward 7 unknown #
coedge $-1 $205 $132 $306 $309 forward $214 $-1 #
coedge $-1 $132 $205 $302 $310 reversed $214 $-1 #
loop $-1 $-1 $212 $286 #
vertex $-1 $133 $311 #
vertex $-1 $133 $312 #
straight-curve $-1 55.422833948789943 0 9.7605775495727496 0 1 0 I I #
face $-1 $313 $314 $31 $-1 $315 forward single #
loop $-1 $-1 $316 $134 #
plane-surface $-1 -55.422833948789943 0 0 1 0 0 0 0 -1 forward_v I I I I #
coedge $-1 $227 $317 $222 $318 forward $135 $-1 #
coedge $-1 $319 $137 $221 $318 reversed $85 $-1 #
coedge $-1 $137 $319 $320 $321 reversed $85 $-1 #
coedge $-1 $139 $138 $316 $322 reversed $54 $-1 #
coedge $-1 $320 $323 $138 $226 forward $324 $-1 #
edge $-1 $325 -30.229809517359605 $230 -20.156239345501071 $225 $326 forward 7 unknown #
coedge $-1 $327 $221 $139 $228 forward $135 $-1 #
edge $-1 $229 20.156239345501071 $328 30.229809517359605 $227 $329 forward 7 unknown #
vertex $-1 $228 $330 #
vertex $-1 $226 $331 #
straight-curve $-1 -45.349263776931409 0 4.1966283379436851 0 -1 0 I I #
face $-1 $-1 $332 $32 $-1 $333 forward single #
loop $-1 $-1 $334 $141 #
plane-surface $-1 0 34.302720469223296 0 0 -1 0 0 0 -1 forward_v I I I I #
coedge $-1 $236 $144 $146 $242 reversed $89 $-1 #
coedge $-1 $144 $235 $334 $335 reversed $89 $-1 #
coedge $-1 $336 $147 $144 $238 forward $142 $-1 #
edge $-1 $245 4.4847355048554967 $337 15.734602938490024 $237 $338 forward 7 unknown #
coedge $-1 $146 $145 $339 $340 reversed $57 $-1 #
coedge $-1 $341 $342 $145 $241 forward $332 $-1 #
edge $-1 $343 -49.918973623196834 $244 -36.505044571941674 $240 $344 forward 7 unknown #
edge $-1 $345 -68.605440938446606 $245 -55.19151188719146 $235 $346 forward 7 unknown #
coedge $-1 $147 $336 $341 $347 forward $142 $-1 #
vertex $-1 $241 $348 #
vertex $-1 $148 $349 #
straight-curve $-1 -15.246814580515474 23.052853035588768 9.7605775495727478 1 0 0 I I #
coedge $-1 $247 $247 $-1 $350 reversed $151 $-1 #
edge $-1 $351 0 $351 6.2831853071796004 $152 $352 forward 7 unknown #
vertex $-1 $155 $353 #
ellipse-curve $-1 -39.407009930571228 28.677786752406028 6.1077028145949672 0 0.54463904215088732 0.83867056331134215 2 0 0 1 I I #
coedge $-1 $251 $251 $-1 $354 reversed $158 $-1 #
edge $-1 $355 0 $355 6.2831853071796004 $159 $356 forward 7 unknown #
vertex $-1 $162 $357 #
ellipse-curve $-1 -30.493629161030945 28.677786752406028 6.1077028145949672 0 0.54463904215088732 0.83867056331134215 2 0 0 1 I I #
coedge $-1 $255 $255 $-1 $358 reversed $165 $-1 #
edge $-1 $359 0 $359 6.2831853071796004 $166 $360 forward 7 unknown #
vertex $-1 $169 $361 #
ellipse-curve $-1 -21.580248391490663 28.677786752406028 6.1077028145949672 0 0.54463904215088732 0.83867056331134215 2 0 0 1 I I #
face $-1 $-1 $362 $36 $-1 $363 reversed single #
loop $-1 $-1 $265 $170 #
plane-surface $-1 0 0 9.7605775495727496 0 0 1 1 0 0 forward_v I I I I #
coedge $-1 $364 $365 $264 $366 reversed $171 $-1 #
coedge $-1 $367 $173 $175 $269 forward $108 $-1 #
coedge $-1 $173 $367 $262 $366 forward $108 $-1 #
coedge $-1 $368 $176 $173 $266 forward $260 $-1 #
edge $-1 $272 0.39117996461500759 $369 30.102449196415932 $265 $370 forward 7 unknown #
coedge $-1 $371 $372 $174 $268 forward $362 $-1 #
edge $-1 $373 -45.25408532833405 $271 -37.948335858378492 $267 $374 forward 7 unknown #
edge $-1 $272 -13.413929051255117 $373 1.699746028866204e-014 $175 $375 forward 7 unknown #
coedge $-1 $176 $368 $371 $376 forward $260 $-1 #
vertex $-1 $268 $377 #
vertex $-1 $177 $378 #
straight-curve $-1 -15.637994545130482 -47.336799429768277 9.7605775495727514 0 1 0 I I #
coedge $-1 $274 $274 $-1 $379 reversed $180 $-1 #
edge $-1 $380 0 $380 6.2831853071796004 $181 $381 forward 7 unknown #
vertex $-1 $184 $382 #
ellipse-curve $-1 -39.407009930571228 -28.677786752406032 6.1077028145949717 0 -0.54463904215088732 0.83867056331134215 2 0 0 1 I I #
coedge $-1 $278 $278 $-1 $383 reversed $187 $-1 #
edge $-1 $384 0 $384 6.2831853071796004 $188 $385 forward 7 unknown #
vertex $-1 $191 $386 #
ellipse-curve $-1 -30.493629161030945 -28.677786752406032 6.1077028145949717 0 -0.54463904215088732 0.83867056331134215 2 0 0 1 I I #
coedge $-1 $282 $282 $-1 $387 reversed $194 $-1 #
edge $-1 $388 0 $388 6.2831853071796004 $195 $389 forward 7 unknown #
vertex $-1 $198 $390 #
ellipse-curve $-1 -21.580248391490663 -28.677786752406032 6.1077028145949717 0 -0.54463904215088732 0.83867056331134215 2 0 0 1 I I #
face $-1 $-1 $214 $30 $-1 $391 reversed single #
loop $-1 $-1 $302 $199 #
plane-surface $-1 0 34.302720469223296 0 0 -1 0 0 0 -1 forward_v I I I I #
coedge $-1 $392 $300 $303 $393 forward $200 $-1 #
coedge $-1 $306 $202 $203 $294 reversed $127 $-1 #
coedge $-1 $300 $392 $202 $292 reversed $200 $-1 #
edge $-1 $307 -9.7605775495727496 $394 9.7605775495727496 $291 $395 forward 7 unknown #
coedge $-1 $204 $203 $392 $396 forward $81 $-1 #
edge $-1 $298 -55.422833948789943 $394 55.422833948789943 $290 $397 forward 7 unknown #
coedge $-1 $303 $302 $204 $296 reversed $287 $-1 #
edge $-1 $398 -55.422833948789943 $297 55.422833948789943 $295 $399 forward 7 unknown #
vertex $-1 $206 $400 #
vertex $-1 $309 $401 #
straight-curve $-1 55.422833948789943 0 -9.7605775495727496 0 -1 0 I I #
coedge $-1 $289 $291 $207 $301 reversed $200 $-1 #
edge $-1 $304 -34.302720469223296 $307 34.302720469223296 $300 $402 forward 7 unknown #
coedge $-1 $295 $208 $213 $310 forward $287 $-1 #
coedge $-1 $208 $295 $289 $393 reversed $287 $-1 #
vertex $-1 $209 $403 #
straight-curve $-1 0 34.302720469223296 9.7605775495727496 -1 0 0 I I #
coedge $-1 $210 $290 $212 $309 reversed $127 $-1 #
vertex $-1 $301 $404 #
straight-curve $-1 0 -34.302720469223296 9.7605775495727496 1 0 0 I I #
edge $-1 $215 -9.7605775495727496 $298 9.7605775495727496 $212 $405 forward 7 unknown #
edge $-1 $216 -9.7605775495727496 $297 9.7605775495727496 $213 $406 forward 7 unknown #
point $-1 55.422833948789943 -34.302720469223296 9.7605775495727496 #
point $-1 55.422833948789943 34.302720469223296 9.7605775495727496 #
face $-1 $-1 $324 $31 $-1 $407 reversed single #
loop $-1 $-1 $408 $218 #
plane-surface $-1 0 0 9.7605775495727496 0 0 1 1 0 0 forward_v I I I I #
coedge $-1 $409 $410 $224 $322 forward $219 $-1 #
coedge $-1 $221 $327 $411 $412 reversed $135 $-1 #
edge $-1 $413 -6.2712760776936394 $229 -0.70732686606457662 $221 $414 forward 7 unknown #
coedge $-1 $223 $222 $408 $415 reversed $85 $-1 #
coedge $-1 $416 $225 $223 $321 forward $324 $-1 #
edge $-1 $230 0.70732686606457662 $417 6.2712760776936394 $320 $418 forward 7 unknown #
edge $-1 $328 -34.302720469223296 $325 34.302720469223296 $316 $419 forward 7 unknown #
coedge $-1 $225 $416 $409 $420 forward $324 $-1 #
loop $-1 $-1 $320 $313 #
vertex $-1 $322 $421 #
straight-curve $-1 -25.193024431430338 -34.302720469223296 4.1966283379436851 1 0 0 I I #
coedge $-1 $317 $227 $410 $422 reversed $135 $-1 #
vertex $-1 $322 $423 #
straight-curve $-1 -25.193024431430338 34.302720469223296 4.1966283379436851 -1 0 0 I I #
point $-1 -45.349263776931409 34.302720469223296 4.1966283379436851 #
point $-1 -45.349263776931409 -34.302720469223296 4.1966283379436851 #
loop $-1 $-1 $240 $232 #
plane-surface $-1 -45.349263776931409 0 6.9786029437582169 -1 0 0 0 0 1 forward_v I I I I #
coedge $-1 $339 $424 $236 $335 forward $233 $-1 #
edge $-1 $337 56.6309366779059 $345 63.936686147861465 $334 $425 forward 7 unknown #
coedge $-1 $243 $237 $424 $426 forward $142 $-1 #
vertex $-1 $426 $427 #
straight-curve $-1 -15.637994545130482 18.568117530733272 9.7605775495727514 0 1 0 I I #
coedge $-1 $428 $334 $239 $340 forward $233 $-1 #
edge $-1 $345 0.39117996461500759 $343 30.10244919641594 $339 $429 forward 7 unknown #
coedge $-1 $342 $240 $243 $347 reversed $332 $-1 #
coedge $-1 $240 $341 $428 $430 reversed $332 $-1 #
vertex $-1 $430 $431 #
straight-curve $-1 -45.349263776931409 -7.5628532592672126 29.642650058910512 0 -0.83867056331134215 0.54463904215088732 I I #
vertex $-1 $340 $432 #
straight-curve $-1 -15.637994545130482 -23.23464332884673 39.820029718672018 0 -0.83867056331134215 0.54463904215088732 I I #
edge $-1 $433 -34.302720469223296 $244 -23.052853035588765 $243 $434 forward 7 unknown #
point $-1 -45.349263776931409 23.052853035588765 9.7605775495727496 #
point $-1 -15.637994545130482 23.052853035588768 9.7605775495727478 #
edge $-1 $435 1 $435 0 $247 $-1 forward 7 unknown #
vertex $-1 $248 $436 #
ellipse-curve $-1 -39.407009930571228 25.900288866682668 1.8307312129698063 0 0.54463904215088732 0.83867056331134215 2 0 0 1 I I #
point $-1 -37.407009930571228 28.677786752406035 6.1077028145949743 #
edge $-1 $437 1 $437 0 $251 $-1 forward 7 unknown #
vertex $-1 $252 $438 #
ellipse-curve $-1 -30.493629161030945 25.900288866682668 1.8307312129698063 0 0.54463904215088732 0.83867056331134215 2 0 0 1 I I #
point $-1 -28.493629161030945 28.677786752406035 6.1077028145949743 #
edge $-1 $439 1 $439 0 $255 $-1 forward 7 unknown #
vertex $-1 $256 $440 #
ellipse-curve $-1 -21.580248391490663 25.900288866682668 1.8307312129698063 0 0.54463904215088732 0.83867056331134215 2 0 0 1 I I #
point $-1 -19.580248391490663 28.677786752406035 6.1077028145949743 #
loop $-1 $-1 $267 $259 #
plane-surface $-1 0 -34.302720469223296 0 0 1 0 0 0 1 forward_v I I I I #
coedge $-1 $365 $262 $441 $442 reversed $171 $-1 #
coedge $-1 $262 $364 $368 $443 reversed $171 $-1 #
edge $-1 $444 -1.699746028866204e-014 $369 13.413929051255117 $262 $445 forward 7 unknown #
coedge $-1 $264 $263 $372 $446 reversed $108 $-1 #
coedge $-1 $270 $265 $365 $443 forward $260 $-1 #
vertex $-1 $443 $447 #
straight-curve $-1 -15.246814580515474 -23.052853035588772 9.7605775495727496 -1 0 0 I I #
coedge $-1 $441 $267 $270 $376 reversed $362 $-1 #
coedge $-1 $267 $441 $367 $446 forward $362 $-1 #
vertex $-1 $268 $448 #
straight-curve $-1 -15.637994545130482 -34.302720469223296 47.708913407951243 0 0 1 I I #
straight-curve $-1 -15.637994545130482 -34.302720469223281 2.4548280796172008 0 -0.83867056331134215 -0.54463904215088732 I I #
edge $-1 $449 -45.349263776931409 $271 -15.637994545130482 $371 $450 forward 7 unknown #
point $-1 -15.637994545130482 -34.302720469223296 9.7605775495727496 #
point $-1 -15.637994545130482 -23.052853035588775 9.7605775495727496 #
edge $-1 $451 1 $451 0 $274 $-1 forward 7 unknown #
vertex $-1 $275 $452 #
ellipse-curve $-1 -39.407009930571228 -25.900288866682668 1.8307312129698046 0 -0.54463904215088732 0.83867056331134215 2 0 0 1 I I #
point $-1 -37.407009930571228 -28.677786752406035 6.1077028145949726 #
edge $-1 $453 1 $453 0 $278 $-1 forward 7 unknown #
vertex $-1 $279 $454 #
ellipse-curve $-1 -30.493629161030945 -25.900288866682668 1.8307312129698046 0 -0.54463904215088732 0.83867056331134215 2 0 0 1 I I #
point $-1 -28.493629161030945 -28.677786752406035 6.1077028145949726 #
edge $-1 $455 1 $455 0 $282 $-1 forward 7 unknown #
vertex $-1 $283 $456 #
ellipse-curve $-1 -21.580248391490663 -25.900288866682668 1.8307312129698046 0 -0.54463904215088732 0.83867056331134215 2 0 0 1 I I #
point $-1 -19.580248391490663 -28.677786752406035 6.1077028145949726 #
plane-surface $-1 55.422833948789943 0 0 -1 0 0 0 0 1 forward_v I I I I #
coedge $-1 $291 $289 $293 $396 reversed $200 $-1 #
edge $-1 $304 -9.7605775495727496 $398 9.7605775495727496 $303 $457 forward 7 unknown #
vertex $-1 $396 $458 #
straight-curve $-1 -55.422833948789943 -34.302720469223296 0 0 0 -1 I I #
edge $-1 $394 -34.302720469223296 $398 34.302720469223296 $392 $459 forward 7 unknown #
straight-curve $-1 0 -34.302720469223296 -9.7605775495727496 -1 0 0 I I #
vertex $-1 $296 $460 #
straight-curve $-1 0 34.302720469223296 -9.7605775495727496 1 0 0 I I #
point $-1 55.422833948789943 34.302720469223296 -9.7605775495727496 #
point $-1 55.422833948789943 -34.302720469223296 -9.7605775495727496 #
straight-curve $-1 -55.422833948789943 0 9.7605775495727496 0 -1 0 I I #
point $-1 -55.422833948789943 34.302720469223296 9.7605775495727496 #
point $-1 -55.422833948789943 -34.302720469223296 9.7605775495727496 #
straight-curve $-1 55.422833948789943 -34.302720469223296 0 0 0 -1 I I #
straight-curve $-1 55.422833948789943 34.302720469223296 0 0 0 -1 I I #
plane-surface $-1 0 -34.302720469223296 0 0 1 0 0 0 1 forward_v I I I I #
coedge $-1 $411 $461 $319 $415 forward $314 $-1 #
coedge $-1 $462 $316 $323 $420 reversed $219 $-1 #
coedge $-1 $316 $462 $327 $422 forward $219 $-1 #
coedge $-1 $463 $408 $317 $412 forward $314 $-1 #
edge $-1 $413 45.349263776931409 $464 55.422833948789943 $317 $465 forward 7 unknown #
vertex $-1 $412 $466 #
straight-curve $-1 -45.349263776931409 34.302720469223296 3.4893014718791084 0 0 -1 I I #
edge $-1 $417 -34.302720469223296 $413 34.302720469223296 $408 $467 forward 7 unknown #
coedge $-1 $323 $320 $461 $468 reversed $324 $-1 #
vertex $-1 $321 $469 #
straight-curve $-1 -45.349263776931409 -34.302720469223296 3.4893014718791084 0 0 1 I I #
straight-curve $-1 -55.422833948789943 0 4.1966283379436851 0 -1 0 I I #
edge $-1 $470 -9.7605775495727496 $325 -4.1966283379436851 $409 $471 forward 7 unknown #
point $-1 -55.422833948789943 -34.302720469223296 4.1966283379436851 #
edge $-1 $464 -9.7605775495727496 $328 -4.1966283379436851 $327 $472 forward 7 unknown #
point $-1 -55.422833948789943 34.302720469223296 4.1966283379436851 #
coedge $-1 $334 $428 $336 $426 reversed $233 $-1 #
straight-curve $-1 -15.637994545130482 34.302720469223296 66.391514227478652 0 0 -1 I I #
edge $-1 $337 15.637994545130482 $433 45.349263776931409 $424 $473 forward 7 unknown #
point $-1 -15.637994545130482 34.302720469223296 9.7605775495727496 #
coedge $-1 $424 $339 $342 $430 forward $233 $-1 #
straight-curve $-1 -15.246814580515474 34.302720469223296 2.4548280796171902 -1 0 0 I I #
edge $-1 $343 -63.936686147861465 $433 -56.630936677905908 $428 $474 forward 7 unknown #
point $-1 -45.349263776931416 34.302720469223303 2.4548280796171866 #
point $-1 -15.637994545130482 34.302720469223303 2.4548280796171866 #
vertex $-1 $347 $475 #
straight-curve $-1 -45.349263776931409 0 9.7605775495727496 0 -1 0 I I #
vertex $-1 $350 $476 #
point $-1 -37.407009930571228 25.900288866682668 1.8307312129698063 #
vertex $-1 $354 $477 #
point $-1 -28.493629161030945 25.900288866682668 1.8307312129698063 #
vertex $-1 $358 $478 #
point $-1 -19.580248391490663 25.900288866682668 1.8307312129698063 #
coedge $-1 $372 $371 $364 $442 forward $362 $-1 #
edge $-1 $449 37.948335858378499 $444 45.25408532833405 $441 $479 forward 7 unknown #
edge $-1 $369 23.052853035588775 $449 34.302720469223296 $368 $480 forward 7 unknown #
vertex $-1 $442 $481 #
straight-curve $-1 -45.349263776931416 -34.302720469223281 2.4548280796172008 0 0.83867056331134215 0.54463904215088732 I I #
edge $-1 $444 -30.10244919641594 $373 -0.39117996461500759 $372 $482 forward 7 unknown #
point $-1 -45.349263776931409 -23.052853035588775 9.7605775495727496 #
point $-1 -15.637994545130482 -34.302720469223296 2.4548280796171915 #
vertex $-1 $376 $483 #
straight-curve $-1 0 -34.302720469223296 9.7605775495727496 1 0 0 I I #
vertex $-1 $379 $484 #
point $-1 -37.407009930571228 -25.900288866682668 1.8307312129698046 #
vertex $-1 $383 $485 #
point $-1 -28.493629161030945 -25.900288866682668 1.8307312129698046 #
vertex $-1 $387 $486 #
point $-1 -19.580248391490663 -25.900288866682668 1.8307312129698046 #
straight-curve $-1 -55.422833948789943 34.302720469223296 0 0 0 -1 I I #
point $-1 -55.422833948789943 -34.302720469223296 -9.7605775495727496 #
straight-curve $-1 -55.422833948789943 0 -9.7605775495727496 0 1 0 I I #
point $-1 -55.422833948789943 34.302720469223296 -9.7605775495727496 #
coedge $-1 $408 $463 $416 $468 forward $314 $-1 #
coedge $-1 $410 $409 $463 $487 reversed $219 $-1 #
coedge $-1 $461 $411 $462 $487 forward $314 $-1 #
vertex $-1 $412 $488 #
straight-curve $-1 0 34.302720469223296 9.7605775495727496 -1 0 0 I I #
point $-1 -45.349263776931409 34.302720469223296 9.7605775495727478 #
straight-curve $-1 -45.349263776931409 0 9.7605775495727496 0 1 0 I I #
edge $-1 $470 -55.422833948789943 $417 -45.349263776931409 $416 $489 forward 7 unknown #
point $-1 -45.349263776931409 -34.302720469223296 9.7605775495727478 #
vertex $-1 $487 $490 #
straight-curve $-1 -55.422833948789943 -34.302720469223296 0 0 0 -1 I I #
straight-curve $-1 -55.422833948789943 34.302720469223296 0 0 0 -1 I I #
straight-curve $-1 0 34.302720469223296 9.7605775495727496 -1 0 0 I I #
straight-curve $-1 -45.349263776931416 34.302720469223296 66.391514227478652 0 0 1 I I #
point $-1 -45.349263776931409 34.302720469223296 9.7605775495727478 #
point $-1 -39.407009930571228 24.811010782380894 0.15339008634712215 #
point $-1 -30.493629161030945 24.811010782380894 0.15339008634712215 #
point $-1 -21.580248391490663 24.811010782380894 0.15339008634712215 #
straight-curve $-1 -45.349263776931416 -34.302720469223296 47.708913407951243 0 0 -1 I I #
straight-curve $-1 -45.349263776931409 0 9.7605775495727496 0 -1 0 I I #
point $-1 -45.349263776931416 -34.302720469223296 2.4548280796171915 #
straight-curve $-1 -15.246814580515474 -34.302720469223296 2.4548280796171897 1 0 0 I I #
point $-1 -45.349263776931409 -34.302720469223296 9.7605775495727478 #
point $-1 -39.407009930571228 -24.811010782380894 0.15339008634712037 #
point $-1 -30.493629161030945 -24.811010782380894 0.15339008634712037 #
point $-1 -21.580248391490663 -24.811010782380894 0.15339008634712037 #
edge $-1 $464 -34.302720469223296 $470 34.302720469223296 $462 $491 forward 7 unknown #
point $-1 -55.422833948789943 34.302720469223296 9.7605775495727496 #
straight-curve $-1 0 -34.302720469223296 9.7605775495727496 1 0 0 I I #
point $-1 -55.422833948789943 -34.302720469223296 9.7605775495727496 #
straight-curve $-1 -55.422833948789943 0 9.7605775495727496 0 -1 0 I I #
End-of-ACIS-data 