500 0 8 0           
7 Unknown 11 ACIS 5.0 NT 24 Fri Mar 26 01:35:13 1999 
-1 9.9999999999999995e-007 1e-010 
body $-1 $8 $-1 $9 #
body $-1 $10 $-1 $11 #
body $-1 $12 $-1 $13 #
body $-1 $14 $-1 $15 #
body $-1 $16 $-1 $17 #
body $-1 $18 $-1 $19 #
body $-1 $20 $-1 $21 #
body $-1 $22 $-1 $23 #
lump $-1 $-1 $24 $0 #
transform $-1 1 0 0 0 1 0 0 0 1 64.611346781823187 25.9894690996571 5.9826461844201049 1 rotate no_reflect no_shear #
lump $-1 $-1 $25 $1 #
transform $-1 1 0 0 0 1 0 0 0 1 64.611346781823187 25.9894690996571 5.9826461844201049 1 rotate no_reflect no_shear #
lump $-1 $-1 $26 $2 #
transform $-1 1 0 0 0 1 0 0 0 1 64.611346781823187 25.9894690996571 5.9826461844201049 1 rotate no_reflect no_shear #
lump $-1 $-1 $27 $3 #
transform $-1 1 0 0 0 1 0 0 0 1 64.611346781823187 25.9894690996571 5.9826461844201049 1 rotate no_reflect no_shear #
lump $-1 $-1 $28 $4 #
transform $-1 1 0 0 0 1 0 0 0 1 64.611346781823187 25.9894690996571 5.9826461844201049 1 rotate no_reflect no_shear #
lump $-1 $-1 $29 $5 #
transform $-1 1 0 0 0 1 0 0 0 1 64.611346781823187 25.9894690996571 5.9826461844201049 1 rotate no_reflect no_shear #
lump $-1 $-1 $30 $6 #
transform $-1 1 0 0 0 1 0 0 0 1 64.611346781823187 25.9894690996571 5.9826461844201049 1 rotate no_reflect no_shear #
lump $-1 $-1 $31 $7 #
transform $-1 1 0 0 0 1 0 0 0 1 64.611346781823187 25.9894690996571 5.9826461844201049 1 rotate no_reflect no_shear #
shell $-1 $-1 $-1 $32 $-1 $8 #
shell $-1 $-1 $-1 $33 $-1 $10 #
shell $-1 $-1 $-1 $34 $-1 $12 #
shell $-1 $-1 $-1 $35 $-1 $14 #
shell $-1 $-1 $-1 $36 $-1 $16 #
shell $-1 $-1 $-1 $37 $-1 $18 #
shell $-1 $-1 $-1 $38 $-1 $20 #
shell $-1 $-1 $-1 $39 $-1 $22 #
face $-1 $40 $41 $24 $-1 $42 forward single #
face $-1 $43 $44 $25 $-1 $45 reversed single #
face $-1 $46 $47 $26 $-1 $48 reversed single #
face $-1 $49 $50 $27 $-1 $51 reversed single #
face $-1 $52 $53 $28 $-1 $54 forward single #
face $-1 $55 $56 $29 $-1 $57 forward single #
face $-1 $58 $59 $30 $-1 $60 reversed single #
face $-1 $61 $62 $31 $-1 $63 forward single #
face $-1 $64 $65 $24 $-1 $66 reversed single #
loop $-1 $-1 $67 $32 #
plane-surface $-1 0 0 5.9826461844201049 0 0 1 1 0 0 forward_v I I I I #
face $-1 $68 $69 $25 $-1 $70 reversed single #
loop $-1 $-1 $71 $33 #
plane-surface $-1 -61.523859868730163 0 2.4787987199975925 0 0 1 1 0 0 forward_v I I I I #
face $-1 $72 $73 $26 $-1 $74 reversed single #
loop $-1 $-1 $75 $34 #
plane-surface $-1 61.52385986873017 0 2.4787987199975925 0 0 1 1 0 0 forward_v I I I I #
face $-1 $76 $77 $27 $-1 $78 reversed single #
loop $-1 $-1 $79 $35 #
plane-surface $-1 51.075426595750912 -25.9894690996571 1.7688155966567365 0 -0.61566148304635926 0.78801074757464917 1 0 0 forward_v I I I I #
face $-1 $80 $81 $28 $-1 $82 forward single #
loop $-1 $83 $84 $36 #
cone-surface $-1 47.920735298656808 -21.784466684225947 1.9452284108848885 0 0.61566148304635926 -0.78801074757464917 1.5 0 0 1 I I 0 1 1.5 forward I I I I #
face $-1 $85 $86 $29 $-1 $87 forward single #
loop $-1 $88 $89 $37 #
cone-surface $-1 54.230117892845016 -21.784466684225947 1.9452284108848885 0 0.61566148304635926 -0.78801074757464917 1.5 0 0 1 I I 0 1 1.5 forward I I I I #
face $-1 $90 $91 $30 $-1 $92 reversed single #
loop $-1 $-1 $93 $38 #
plane-surface $-1 -50.628865488902818 -3.0767836491429961 44.562106579709337 0 0.82903758062907751 0.55919289150049634 1 0 0 forward_v I I I I #
face $-1 $94 $95 $31 $-1 $96 forward single #
loop $-1 $97 $98 $39 #
cone-surface $-1 -50.628865488902811 23.641402863256982 3.1689677286437554 0 -0.82903758062907751 -0.55919289150049634 1 0 0 1 I I 0 1 1 forward I I I I #
face $-1 $99 $100 $24 $-1 $101 reversed single #
loop $-1 $-1 $102 $40 #
plane-surface $-1 0 0 -5.9826461844201049 0 0 1 1 0 0 forward_v I I I I #
coedge $-1 $103 $104 $105 $106 forward $41 $-1 #
face $-1 $107 $108 $25 $-1 $109 reversed single #
loop $-1 $-1 $110 $43 #
plane-surface $-1 -58.43637295563714 0 4.2307224522088482 -1 0 0 0 0 1 forward_v I I I I #
coedge $-1 $111 $112 $113 $114 forward $44 $-1 #
face $-1 $115 $116 $26 $-1 $117 forward single #
loop $-1 $-1 $118 $46 #
plane-surface $-1 58.436372955637147 0 4.2307224522088482 1 0 0 0 0 -1 forward_v I I I I #
coedge $-1 $119 $120 $121 $122 reversed $47 $-1 #
face $-1 $123 $124 $27 $-1 $125 forward single #
loop $-1 $-1 $126 $49 #
plane-surface $-1 43.714480235864677 -105.54690426229685 103.59768695535553 1 0 0 0 0.61566148304635926 -0.78801074757464917 forward_v I I I I #
coedge $-1 $127 $128 $129 $130 reversed $50 $-1 #
face $-1 $-1 $131 $28 $-1 $132 forward single #
loop $-1 $133 $134 $52 #
cone-surface $-1 47.920735298656808 -19.814446702192239 -0.57628212944963408 0 0.61566148304635926 -0.78801074757464917 0.75 0 0 1 I I -0.70710678118654757 0.70710678118654757 0.75 forward I I I I #
loop $-1 $-1 $135 $36 #
coedge $-1 $84 $84 $136 $137 reversed $53 $-1 #
face $-1 $-1 $138 $29 $-1 $139 forward single #
loop $-1 $140 $141 $55 #
cone-surface $-1 54.230117892845016 -19.814446702192239 -0.57628212944963408 0 0.61566148304635926 -0.78801074757464917 0.75 0 0 1 I I -0.70710678118654757 0.70710678118654757 0.75 forward I I I I #
loop $-1 $-1 $142 $37 #
coedge $-1 $89 $89 $143 $144 reversed $56 $-1 #
face $-1 $145 $146 $30 $-1 $147 reversed single #
loop $-1 $-1 $148 $58 #
plane-surface $-1 -42.821358022168489 104.05368558523506 116.82251824104733 -1 0 0 0 0.82903758062907751 0.55919289150049634 forward_v I I I I #
coedge $-1 $149 $150 $151 $152 reversed $59 $-1 #
face $-1 $-1 $153 $31 $-1 $154 forward single #
loop $-1 $155 $156 $61 #
cone-surface $-1 -50.628865488902811 22.400857310273352 2.3322092136864327 0 -0.82903758062907751 -0.55919289150049634 0.5 0 0 1 I I -0.70710678118654746 0.70710678118654746 0.5 forward I I I I #
loop $-1 $-1 $157 $39 #
coedge $-1 $98 $98 $158 $159 reversed $62 $-1 #
face $-1 $160 $161 $24 $-1 $162 reversed single #
loop $-1 $-1 $163 $64 #
plane-surface $-1 0 -25.9894690996571 0 0 1 0 0 0 1 forward_v I I I I #
coedge $-1 $164 $165 $166 $167 forward $65 $-1 #
coedge $-1 $168 $67 $169 $170 forward $41 $-1 #
coedge $-1 $67 $168 $171 $172 forward $41 $-1 #
coedge $-1 $173 $174 $67 $106 reversed $175 $-1 #
edge $-1 $176 -25.9894690996571 $177 25.9894690996571 $105 $178 forward 7 unknown #
face $-1 $179 $180 $25 $-1 $181 reversed single #
loop $-1 $-1 $182 $68 #
plane-surface $-1 0 25.9894690996571 0 0 -1 0 0 0 -1 forward_v I I I I #
coedge $-1 $113 $183 $184 $185 reversed $69 $-1 #
coedge $-1 $186 $71 $187 $188 reversed $44 $-1 #
coedge $-1 $71 $186 $189 $190 reversed $44 $-1 #
coedge $-1 $191 $110 $71 $114 reversed $69 $-1 #
edge $-1 $192 -25.9894690996571 $193 25.9894690996571 $113 $194 forward 7 unknown #
face $-1 $195 $196 $26 $-1 $197 reversed single #
loop $-1 $-1 $198 $72 #
plane-surface $-1 0 0 5.9826461844201049 0 0 1 1 0 0 forward_v I I I I #
coedge $-1 $199 $200 $201 $202 reversed $73 $-1 #
coedge $-1 $203 $75 $204 $205 reversed $47 $-1 #
coedge $-1 $75 $203 $206 $207 reversed $47 $-1 #
coedge $-1 $208 $209 $75 $122 forward $210 $-1 #
edge $-1 $211 -25.9894690996571 $212 25.9894690996571 $121 $213 forward 7 unknown #
face $-1 $214 $215 $27 $-1 $216 reversed single #
loop $-1 $-1 $129 $76 #
plane-surface $-1 0 0 5.9826461844201049 0 0 1 1 0 0 forward_v I I I I #
coedge $-1 $217 $218 $219 $220 reversed $77 $-1 #
coedge $-1 $221 $79 $222 $223 reversed $50 $-1 #
coedge $-1 $79 $221 $217 $224 forward $50 $-1 #
coedge $-1 $219 $225 $79 $130 forward $124 $-1 #
edge $-1 $226 -32.898659657761691 $227 -18.176766937989221 $129 $228 forward 7 unknown #
loop $-1 $-1 $136 $80 #
plane-surface $-1 51.075426595750912 -25.9894690996571 1.7688155966567365 0 -0.61566148304635926 0.78801074757464917 1 0 0 forward_v I I I I #
loop $-1 $-1 $229 $52 #
coedge $-1 $134 $134 $135 $230 reversed $81 $-1 #
coedge $-1 $135 $135 $134 $230 forward $83 $-1 #
coedge $-1 $136 $136 $84 $137 forward $131 $-1 #
edge $-1 $231 3.2088459769589345e-016 $231 6.2831853071796004 $136 $232 forward 7 unknown #
loop $-1 $-1 $143 $85 #
plane-surface $-1 51.075426595750912 -25.9894690996571 1.7688155966567365 0 -0.61566148304635926 0.78801074757464917 1 0 0 forward_v I I I I #
loop $-1 $-1 $233 $55 #
coedge $-1 $141 $141 $142 $234 reversed $86 $-1 #
coedge $-1 $142 $142 $141 $234 forward $88 $-1 #
coedge $-1 $143 $143 $89 $144 forward $138 $-1 #
edge $-1 $235 3.2088459769589345e-016 $235 6.2831853071796004 $143 $236 forward 7 unknown #
face $-1 $237 $238 $30 $-1 $239 forward single #
loop $-1 $-1 $240 $90 #
plane-surface $-1 0 25.9894690996571 0 0 -1 0 0 0 -1 forward_v I I I I #
coedge $-1 $241 $242 $243 $244 reversed $91 $-1 #
coedge $-1 $245 $93 $246 $247 reversed $59 $-1 #
coedge $-1 $93 $245 $241 $248 forward $59 $-1 #
coedge $-1 $243 $249 $93 $152 forward $238 $-1 #
edge $-1 $250 -33.121940211185738 $251 -17.50692527771708 $151 $252 forward 7 unknown #
loop $-1 $-1 $158 $94 #
plane-surface $-1 -50.628865488902818 -3.0767836491429961 44.562106579709337 0 0.82903758062907751 0.55919289150049634 1 0 0 forward_v I I I I #
loop $-1 $-1 $253 $61 #
coedge $-1 $156 $156 $157 $254 reversed $95 $-1 #
coedge $-1 $157 $157 $156 $254 forward $97 $-1 #
coedge $-1 $158 $158 $98 $159 forward $153 $-1 #
edge $-1 $255 -6.5980467238546365e-016 $255 6.2831853071795996 $158 $256 forward 7 unknown #
face $-1 $257 $258 $24 $-1 $259 reversed single #
loop $-1 $-1 $260 $99 #
plane-surface $-1 -64.611346781823187 0 0 1 0 0 0 0 -1 forward_v I I I I #
coedge $-1 $261 $171 $262 $263 forward $100 $-1 #
coedge $-1 $264 $102 $261 $265 forward $65 $-1 #
coedge $-1 $102 $264 $266 $267 forward $65 $-1 #
coedge $-1 $174 $173 $102 $167 reversed $175 $-1 #
edge $-1 $268 -25.9894690996571 $269 25.9894690996571 $166 $270 forward 7 unknown #
coedge $-1 $104 $103 $271 $272 forward $41 $-1 #
coedge $-1 $273 $274 $103 $170 reversed $258 $-1 #
edge $-1 $177 -64.611346781823187 $275 64.611346781823187 $169 $276 forward 7 unknown #
coedge $-1 $163 $277 $104 $172 reversed $100 $-1 #
edge $-1 $278 -64.611346781823187 $176 64.611346781823187 $171 $279 forward 7 unknown #
coedge $-1 $166 $105 $277 $280 forward $175 $-1 #
coedge $-1 $105 $166 $273 $281 reversed $175 $-1 #
loop $-1 $-1 $173 $257 #
vertex $-1 $106 $282 #
vertex $-1 $106 $283 #
straight-curve $-1 64.611346781823187 0 5.9826461844201049 0 1 0 I I #
face $-1 $284 $285 $25 $-1 $286 forward single #
loop $-1 $-1 $287 $107 #
plane-surface $-1 -64.611346781823187 0 0 1 0 0 0 0 -1 forward_v I I I I #
coedge $-1 $189 $288 $191 $289 forward $108 $-1 #
coedge $-1 $110 $191 $290 $291 reversed $69 $-1 #
coedge $-1 $292 $187 $110 $185 forward $293 $-1 #
edge $-1 $193 0.36343749389316837 $294 3.8672849583156799 $184 $295 forward 7 unknown #
coedge $-1 $112 $111 $287 $296 reversed $44 $-1 #
coedge $-1 $184 $297 $111 $188 forward $293 $-1 #
edge $-1 $298 -33.849416847458102 $193 -27.674443021272058 $187 $299 forward 7 unknown #
coedge $-1 $300 $182 $112 $190 forward $108 $-1 #
edge $-1 $192 27.674443021272058 $301 33.849416847458102 $189 $302 forward 7 unknown #
coedge $-1 $183 $113 $182 $289 reversed $69 $-1 #
vertex $-1 $190 $303 #
vertex $-1 $188 $304 #
straight-curve $-1 -58.43637295563714 0 2.4787987199975925 0 -1 0 I I #
face $-1 $305 $306 $26 $-1 $307 reversed single #
loop $-1 $-1 $308 $115 #
plane-surface $-1 0 -25.9894690996571 0 0 1 0 0 0 1 forward_v I I I I #
coedge $-1 $309 $310 $200 $311 forward $116 $-1 #
coedge $-1 $312 $118 $203 $313 reversed $73 $-1 #
coedge $-1 $118 $312 $198 $311 reversed $73 $-1 #
coedge $-1 $314 $206 $118 $202 forward $306 $-1 #
edge $-1 $315 0.36343749389316837 $316 3.8672849583156799 $201 $317 forward 7 unknown #
coedge $-1 $120 $119 $199 $313 forward $47 $-1 #
coedge $-1 $318 $308 $119 $205 forward $196 $-1 #
edge $-1 $319 27.674443021272062 $211 33.849416847458102 $204 $320 forward 7 unknown #
coedge $-1 $201 $321 $120 $207 forward $306 $-1 #
edge $-1 $212 -33.849416847458102 $315 -27.674443021272062 $206 $322 forward 7 unknown #
coedge $-1 $323 $121 $321 $324 reversed $210 $-1 #
coedge $-1 $121 $323 $318 $325 forward $210 $-1 #
loop $-1 $-1 $121 $305 #
vertex $-1 $205 $326 #
vertex $-1 $122 $327 #
straight-curve $-1 64.611346781823187 0 2.4787987199975925 0 1 0 I I #
face $-1 $-1 $328 $27 $-1 $329 forward single #
loop $-1 $-1 $330 $123 #
plane-surface $-1 0 -25.9894690996571 0 0 1 0 0 0 1 forward_v I I I I #
coedge $-1 $218 $126 $128 $224 reversed $77 $-1 #
coedge $-1 $126 $217 $330 $331 reversed $77 $-1 #
coedge $-1 $332 $129 $126 $220 forward $124 $-1 #
edge $-1 $227 -32.177440122855764 $333 -26.783983031491324 $219 $334 forward 7 unknown #
coedge $-1 $128 $127 $335 $336 reversed $50 $-1 #
coedge $-1 $337 $338 $127 $223 forward $328 $-1 #
edge $-1 $339 -10.997841100050124 $226 -4.1534457565037322 $222 $340 forward 7 unknown #
edge $-1 $341 0 $227 6.8443953435463918 $217 $342 forward 7 unknown #
coedge $-1 $129 $332 $337 $343 forward $124 $-1 #
vertex $-1 $223 $344 #
vertex $-1 $130 $345 #
straight-curve $-1 25.537713297875456 -20.596012008292657 5.9826461844201049 -1 0 0 I I #
coedge $-1 $229 $229 $-1 $346 reversed $133 $-1 #
edge $-1 $347 0 $347 6.2831853071796004 $134 $348 forward 7 unknown #
vertex $-1 $137 $349 #
ellipse-curve $-1 47.920735298656808 -23.29274055397488 3.8757308905384189 0 -0.61566148304635926 0.78801074757464917 1.5 0 0 1 I I #
coedge $-1 $233 $233 $-1 $350 reversed $140 $-1 #
edge $-1 $351 0 $351 6.2831853071796004 $141 $352 forward 7 unknown #
vertex $-1 $144 $353 #
ellipse-curve $-1 54.230117892845016 -23.29274055397488 3.8757308905384189 0 -0.61566148304635926 0.78801074757464917 1.5 0 0 1 I I #
face $-1 $-1 $354 $30 $-1 $355 forward single #
loop $-1 $-1 $243 $145 #
plane-surface $-1 0 0 5.9826461844201049 0 0 1 1 0 0 forward_v I I I I #
coedge $-1 $356 $357 $242 $358 forward $146 $-1 #
coedge $-1 $242 $148 $150 $248 reversed $91 $-1 #
coedge $-1 $148 $241 $240 $358 reversed $91 $-1 #
coedge $-1 $359 $151 $148 $244 forward $238 $-1 #
edge $-1 $251 -29.081452640422469 $360 -26.037373692960429 $243 $361 forward 7 unknown #
coedge $-1 $150 $149 $356 $362 reversed $59 $-1 #
coedge $-1 $363 $364 $149 $247 forward $354 $-1 #
edge $-1 $365 -34.400563866428833 $250 -28.956862786299233 $246 $366 forward 7 unknown #
edge $-1 $367 -51.978938199314179 $251 -46.535237119184586 $241 $368 forward 7 unknown #
coedge $-1 $151 $359 $363 $369 forward $238 $-1 #
vertex $-1 $247 $370 #
vertex $-1 $152 $371 #
straight-curve $-1 -25.314432744451409 22.94539015219506 5.9826461844201084 1 0 0 I I #
coedge $-1 $253 $253 $-1 $372 reversed $155 $-1 #
edge $-1 $373 0 $373 6.2831853071796004 $156 $374 forward 7 unknown #
vertex $-1 $159 $375 #
ellipse-curve $-1 -50.628865488902811 24.46742962592608 3.7261297978508336 0 0.82903758062907751 0.55919289150049634 1 0 0 1 I I #
face $-1 $-1 $175 $24 $-1 $376 reversed single #
loop $-1 $-1 $273 $160 #
plane-surface $-1 0 25.9894690996571 0 0 -1 0 0 0 -1 forward_v I I I I #
coedge $-1 $377 $271 $274 $378 forward $161 $-1 #
coedge $-1 $277 $163 $164 $265 reversed $100 $-1 #
coedge $-1 $271 $377 $163 $263 reversed $161 $-1 #
edge $-1 $278 -5.9826461844201049 $379 5.9826461844201049 $262 $380 forward 7 unknown #
coedge $-1 $165 $164 $377 $381 forward $65 $-1 #
edge $-1 $269 -64.611346781823187 $379 64.611346781823187 $261 $382 forward 7 unknown #
coedge $-1 $274 $273 $165 $267 reversed $258 $-1 #
edge $-1 $383 -64.611346781823187 $268 64.611346781823187 $266 $384 forward 7 unknown #
vertex $-1 $167 $385 #
vertex $-1 $280 $386 #
straight-curve $-1 64.611346781823187 0 -5.9826461844201049 0 -1 0 I I #
coedge $-1 $260 $262 $168 $272 reversed $161 $-1 #
edge $-1 $275 -25.9894690996571 $278 25.9894690996571 $271 $387 forward 7 unknown #
coedge $-1 $266 $169 $174 $281 forward $258 $-1 #
coedge $-1 $169 $266 $260 $378 reversed $258 $-1 #
vertex $-1 $170 $388 #
straight-curve $-1 0 25.9894690996571 5.9826461844201049 -1 0 0 I I #
coedge $-1 $171 $261 $173 $280 reversed $100 $-1 #
vertex $-1 $272 $389 #
straight-curve $-1 0 -25.9894690996571 5.9826461844201049 1 0 0 I I #
edge $-1 $176 -5.9826461844201049 $269 5.9826461844201049 $173 $390 forward 7 unknown #
edge $-1 $177 -5.9826461844201049 $268 5.9826461844201049 $174 $391 forward 7 unknown #
point $-1 64.611346781823187 -25.9894690996571 5.9826461844201049 #
point $-1 64.611346781823187 25.9894690996571 5.9826461844201049 #
face $-1 $-1 $293 $25 $-1 $392 reversed single #
loop $-1 $-1 $290 $179 #
plane-surface $-1 0 0 5.9826461844201049 0 0 1 1 0 0 forward_v I I I I #
coedge $-1 $393 $394 $186 $296 forward $180 $-1 #
coedge $-1 $182 $300 $395 $396 reversed $108 $-1 #
edge $-1 $397 -3.8672849583156799 $192 -0.36343749389316837 $182 $398 forward 7 unknown #
coedge $-1 $395 $399 $183 $291 forward $285 $-1 #
edge $-1 $294 -25.9894690996571 $397 25.9894690996571 $290 $400 forward 7 unknown #
coedge $-1 $297 $184 $399 $401 reversed $293 $-1 #
loop $-1 $-1 $184 $284 #
vertex $-1 $185 $402 #
straight-curve $-1 -58.43637295563714 -25.9894690996571 2.1153612261044241 0 0 1 I I #
edge $-1 $301 -25.9894690996571 $298 25.9894690996571 $287 $403 forward 7 unknown #
coedge $-1 $187 $292 $393 $404 forward $293 $-1 #
vertex $-1 $296 $405 #
straight-curve $-1 -30.761929934365082 -25.9894690996571 2.4787987199975925 1 0 0 I I #
coedge $-1 $288 $189 $394 $406 reversed $108 $-1 #
vertex $-1 $296 $407 #
straight-curve $-1 -30.761929934365082 25.9894690996571 2.4787987199975925 -1 0 0 I I #
point $-1 -58.43637295563714 25.9894690996571 2.4787987199975925 #
point $-1 -58.43637295563714 -25.9894690996571 2.4787987199975925 #
face $-1 $-1 $210 $26 $-1 $408 reversed single #
loop $-1 $-1 $201 $195 #
plane-surface $-1 0 25.9894690996571 0 0 -1 0 0 0 -1 forward_v I I I I #
coedge $-1 $204 $409 $312 $410 forward $196 $-1 #
coedge $-1 $411 $198 $409 $412 forward $116 $-1 #
coedge $-1 $198 $411 $314 $413 forward $116 $-1 #
edge $-1 $316 -25.9894690996571 $414 25.9894690996571 $198 $415 forward 7 unknown #
coedge $-1 $200 $199 $308 $410 reversed $73 $-1 #
edge $-1 $319 -25.9894690996571 $315 25.9894690996571 $199 $416 forward 7 unknown #
coedge $-1 $321 $201 $310 $413 reversed $306 $-1 #
vertex $-1 $207 $417 #
vertex $-1 $202 $418 #
straight-curve $-1 58.436372955637147 25.9894690996571 2.1153612261044241 0 0 1 I I #
coedge $-1 $409 $204 $209 $325 reversed $196 $-1 #
vertex $-1 $205 $419 #
straight-curve $-1 30.761929934365085 -25.9894690996571 2.4787987199975925 1 0 0 I I #
coedge $-1 $206 $314 $208 $324 forward $306 $-1 #
straight-curve $-1 30.761929934365085 25.9894690996571 2.4787987199975925 -1 0 0 I I #
coedge $-1 $209 $208 $411 $420 reversed $210 $-1 #
edge $-1 $421 -5.9826461844201049 $212 -2.4787987199975925 $208 $422 forward 7 unknown #
edge $-1 $423 -5.9826461844201049 $211 -2.4787987199975925 $209 $424 forward 7 unknown #
point $-1 64.611346781823187 -25.9894690996571 2.4787987199975925 #
point $-1 64.611346781823187 25.9894690996571 2.4787987199975925 #
loop $-1 $-1 $222 $214 #
plane-surface $-1 58.436372955637147 0 4.2307224522088482 1 0 0 0 0 -1 forward_v I I I I #
coedge $-1 $335 $425 $218 $331 forward $215 $-1 #
edge $-1 $333 45.816197293257659 $341 50.030027881021027 $330 $426 forward 7 unknown #
coedge $-1 $225 $219 $425 $427 forward $124 $-1 #
vertex $-1 $427 $428 #
straight-curve $-1 43.714480235864677 -52.773452131148424 5.9826461844201049 0 -1 0 I I #
coedge $-1 $429 $330 $221 $336 forward $215 $-1 #
edge $-1 $341 18.176766937989221 $339 32.898659657761691 $335 $430 forward 7 unknown #
coedge $-1 $338 $222 $225 $343 reversed $328 $-1 #
coedge $-1 $222 $337 $429 $431 reversed $328 $-1 #
vertex $-1 $431 $432 #
straight-curve $-1 58.436372955637147 -17.323052112699401 8.5397627586217997 0 0.78801074757464917 0.61566148304635926 I I #
vertex $-1 $336 $433 #
straight-curve $-1 43.714480235864677 -25.9894690996571 1.7688155966567365 0 0.78801074757464917 0.61566148304635926 I I #
edge $-1 $434 -25.9894690996571 $226 -20.596012008292661 $225 $435 forward 7 unknown #
point $-1 58.436372955637147 -20.596012008292661 5.9826461844201049 #
point $-1 43.714480235864677 -20.596012008292661 5.9826461844201049 #
edge $-1 $436 1 $436 0 $229 $-1 forward 7 unknown #
vertex $-1 $230 $437 #
ellipse-curve $-1 47.920735298656808 -20.276192814477007 0.014725931231352796 0 -0.61566148304635926 0.78801074757464917 1.5 0 0 1 I I #
point $-1 49.420735298656808 -23.292740553974884 3.8757308905384242 #
edge $-1 $438 1 $438 0 $233 $-1 forward 7 unknown #
vertex $-1 $234 $439 #
ellipse-curve $-1 54.230117892845016 -20.276192814477007 0.014725931231352796 0 -0.61566148304635926 0.78801074757464917 1.5 0 0 1 I I #
point $-1 55.730117892845016 -23.292740553974884 3.8757308905384242 #
loop $-1 $-1 $246 $237 #
plane-surface $-1 -58.43637295563714 0 4.2307224522088482 -1 0 0 0 0 1 forward_v I I I I #
coedge $-1 $440 $240 $245 $362 forward $146 $-1 #
coedge $-1 $240 $440 $359 $441 reversed $146 $-1 #
edge $-1 $360 52.428612936103562 $367 56.941645709242096 $240 $442 forward 7 unknown #
coedge $-1 $249 $243 $357 $441 forward $238 $-1 #
vertex $-1 $441 $443 #
straight-curve $-1 -42.821358022168489 52.026842792617529 5.9826461844201049 0 1 0 I I #
edge $-1 $367 17.50692527771708 $365 33.121940211185738 $356 $444 forward 7 unknown #
coedge $-1 $364 $246 $249 $369 reversed $354 $-1 #
coedge $-1 $246 $363 $440 $445 reversed $354 $-1 #
vertex $-1 $445 $446 #
straight-curve $-1 -58.43637295563714 6.7529183219412712 29.988973651381791 0 -0.55919289150049634 0.82903758062907751 I I #
vertex $-1 $362 $447 #
straight-curve $-1 -42.821358022168489 -3.0767836491429961 44.562106579709337 0 -0.55919289150049634 0.82903758062907751 I I #
edge $-1 $448 -25.9894690996571 $250 -22.94539015219506 $249 $449 forward 7 unknown #
point $-1 -58.436372955637147 22.94539015219506 5.9826461844201049 #
point $-1 -42.821358022168489 22.94539015219506 5.9826461844201049 #
edge $-1 $450 1 $450 0 $253 $-1 forward 7 unknown #
vertex $-1 $254 $451 #
ellipse-curve $-1 -50.628865488902811 22.815376100587891 2.6118056594366807 0 0.82903758062907751 0.55919289150049634 1 0 0 1 I I #
point $-1 -49.628865488902811 24.467429625926073 3.7261297978508297 #
plane-surface $-1 64.611346781823187 0 0 -1 0 0 0 0 1 forward_v I I I I #
coedge $-1 $262 $260 $264 $381 reversed $161 $-1 #
edge $-1 $275 -5.9826461844201049 $383 5.9826461844201049 $274 $452 forward 7 unknown #
vertex $-1 $381 $453 #
straight-curve $-1 -64.611346781823187 -25.9894690996571 0 0 0 -1 I I #
edge $-1 $379 -25.9894690996571 $383 25.9894690996571 $377 $454 forward 7 unknown #
straight-curve $-1 0 -25.9894690996571 -5.9826461844201049 -1 0 0 I I #
vertex $-1 $267 $455 #
straight-curve $-1 0 25.9894690996571 -5.9826461844201049 1 0 0 I I #
point $-1 64.611346781823187 25.9894690996571 -5.9826461844201049 #
point $-1 64.611346781823187 -25.9894690996571 -5.9826461844201049 #
straight-curve $-1 -64.611346781823187 0 5.9826461844201049 0 -1 0 I I #
point $-1 -64.611346781823187 25.9894690996571 5.9826461844201049 #
point $-1 -64.611346781823187 -25.9894690996571 5.9826461844201049 #
straight-curve $-1 64.611346781823187 -25.9894690996571 0 0 0 -1 I I #
straight-curve $-1 64.611346781823187 25.9894690996571 0 0 0 -1 I I #
plane-surface $-1 0 -25.9894690996571 0 0 1 0 0 0 1 forward_v I I I I #
coedge $-1 $456 $287 $297 $404 reversed $180 $-1 #
coedge $-1 $287 $456 $300 $406 forward $180 $-1 #
coedge $-1 $457 $290 $288 $396 forward $285 $-1 #
edge $-1 $397 58.43637295563714 $458 64.611346781823187 $288 $459 forward 7 unknown #
vertex $-1 $396 $460 #
straight-curve $-1 -58.43637295563714 25.9894690996571 2.1153612261044241 0 0 -1 I I #
coedge $-1 $290 $457 $292 $401 forward $285 $-1 #
straight-curve $-1 -58.43637295563714 0 5.9826461844201049 0 1 0 I I #
edge $-1 $461 -64.611346781823187 $294 -58.43637295563714 $292 $462 forward 7 unknown #
point $-1 -58.43637295563714 -25.9894690996571 5.982646184420104 #
straight-curve $-1 -64.611346781823187 0 2.4787987199975925 0 -1 0 I I #
edge $-1 $461 -5.9826461844201049 $298 -2.4787987199975925 $393 $463 forward 7 unknown #
point $-1 -64.611346781823187 -25.9894690996571 2.4787987199975925 #
edge $-1 $458 -5.9826461844201049 $301 -2.4787987199975925 $300 $464 forward 7 unknown #
point $-1 -64.611346781823187 25.9894690996571 2.4787987199975925 #
plane-surface $-1 64.611346781823187 0 0 -1 0 0 0 0 1 forward_v I I I I #
coedge $-1 $308 $318 $309 $412 reversed $196 $-1 #
edge $-1 $414 -3.8672849583156799 $319 -0.36343749389316837 $308 $465 forward 7 unknown #
coedge $-1 $310 $309 $323 $420 forward $116 $-1 #
edge $-1 $414 58.436372955637147 $423 64.611346781823187 $409 $466 forward 7 unknown #
edge $-1 $421 -64.611346781823187 $316 -58.436372955637147 $314 $467 forward 7 unknown #
vertex $-1 $412 $468 #
straight-curve $-1 58.436372955637147 0 5.9826461844201049 0 -1 0 I I #
straight-curve $-1 58.436372955637147 0 2.4787987199975925 0 1 0 I I #
point $-1 58.436372955637147 25.9894690996571 2.4787987199975925 #
point $-1 58.436372955637147 25.9894690996571 5.982646184420104 #
point $-1 58.436372955637147 -25.9894690996571 2.4787987199975925 #
edge $-1 $423 -25.9894690996571 $421 25.9894690996571 $323 $469 forward 7 unknown #
vertex $-1 $420 $470 #
straight-curve $-1 64.611346781823187 25.9894690996571 0 0 0 -1 I I #
vertex $-1 $420 $471 #
straight-curve $-1 64.611346781823187 -25.9894690996571 0 0 0 -1 I I #
coedge $-1 $330 $429 $332 $427 reversed $215 $-1 #
straight-curve $-1 43.714480235864677 -25.9894690996571 51.798843477677764 0 0 -1 I I #
edge $-1 $333 43.714480235864677 $434 58.436372955637147 $425 $472 forward 7 unknown #
point $-1 43.714480235864677 -25.9894690996571 5.9826461844201049 #
coedge $-1 $425 $335 $338 $431 forward $215 $-1 #
straight-curve $-1 25.537713297875456 -25.9894690996571 1.7688155966567358 1 0 0 I I #
edge $-1 $339 -50.030027881021027 $434 -45.816197293257659 $429 $473 forward 7 unknown #
point $-1 58.436372955637147 -25.9894690996571 1.7688155966567365 #
point $-1 43.714480235864677 -25.9894690996571 1.7688155966567365 #
vertex $-1 $343 $474 #
straight-curve $-1 58.436372955637147 0 5.9826461844201049 0 1 0 I I #
vertex $-1 $346 $475 #
point $-1 49.420735298656808 -20.276192814477007 0.014725931231352796 #
vertex $-1 $350 $476 #
point $-1 55.730117892845016 -20.276192814477007 0.014725931231352796 #
coedge $-1 $357 $356 $364 $445 forward $146 $-1 #
edge $-1 $360 42.821358022168489 $448 58.43637295563714 $357 $477 forward 7 unknown #
straight-curve $-1 -42.821358022168489 25.9894690996571 58.411259120523667 0 0 -1 I I #
point $-1 -42.821358022168489 25.9894690996571 5.9826461844201049 #
straight-curve $-1 -25.314432744451409 25.9894690996571 1.4696134112815713 -1 0 0 I I #
edge $-1 $365 -56.941645709242096 $448 -52.428612936103562 $440 $478 forward 7 unknown #
point $-1 -58.436372955637147 25.989469099657104 1.4696134112815713 #
point $-1 -42.821358022168489 25.989469099657104 1.4696134112815713 #
vertex $-1 $369 $479 #
straight-curve $-1 -58.43637295563714 0 5.9826461844201049 0 -1 0 I I #
vertex $-1 $372 $480 #
point $-1 -49.628865488902811 22.815376100587891 2.6118056594366807 #
straight-curve $-1 -64.611346781823187 25.9894690996571 0 0 0 -1 I I #
point $-1 -64.611346781823187 -25.9894690996571 -5.9826461844201049 #
straight-curve $-1 -64.611346781823187 0 -5.9826461844201049 0 1 0 I I #
point $-1 -64.611346781823187 25.9894690996571 -5.9826461844201049 #
coedge $-1 $394 $393 $457 $481 reversed $180 $-1 #
coedge $-1 $399 $395 $456 $481 forward $285 $-1 #
vertex $-1 $396 $482 #
straight-curve $-1 0 25.9894690996571 5.9826461844201049 -1 0 0 I I #
point $-1 -58.43637295563714 25.9894690996571 5.982646184420104 #
vertex $-1 $481 $483 #
straight-curve $-1 0 -25.9894690996571 5.9826461844201049 1 0 0 I I #
straight-curve $-1 -64.611346781823187 -25.9894690996571 0 0 0 -1 I I #
straight-curve $-1 -64.611346781823187 25.9894690996571 0 0 0 -1 I I #
straight-curve $-1 58.436372955637147 -25.9894690996571 2.1153612261044241 0 0 -1 I I #
straight-curve $-1 0 -25.9894690996571 5.9826461844201049 1 0 0 I I #
straight-curve $-1 0 25.9894690996571 5.9826461844201049 -1 0 0 I I #
point $-1 58.436372955637147 -25.9894690996571 5.982646184420104 #
straight-curve $-1 64.611346781823187 0 5.9826461844201049 0 1 0 I I #
point $-1 64.611346781823187 25.9894690996571 5.9826461844201049 #
point $-1 64.611346781823187 -25.9894690996571 5.9826461844201049 #
straight-curve $-1 0 -25.9894690996571 5.9826461844201049 1 0 0 I I #
straight-curve $-1 58.436372955637147 -25.9894690996571 51.798843477677764 0 0 1 I I #
point $-1 58.436372955637147 -25.9894690996571 5.982646184420104 #
point $-1 47.920735298656808 -19.352700589907471 -1.167290190130621 #
point $-1 54.230117892845016 -19.352700589907471 -1.167290190130621 #
straight-curve $-1 0 25.9894690996571 5.9826461844201049 -1 0 0 I I #
straight-curve $-1 -58.436372955637147 25.9894690996571 58.411259120523667 0 0 1 I I #
point $-1 -58.43637295563714 25.9894690996571 5.982646184420104 #
point $-1 -50.628865488902811 21.986338519958814 2.0526127679361847 #
edge $-1 $458 -25.9894690996571 $461 25.9894690996571 $456 $484 forward 7 unknown #
point $-1 -64.611346781823187 25.9894690996571 5.9826461844201049 #
point $-1 -64.611346781823187 -25.9894690996571 5.9826461844201049 #
straight-curve $-1 -64.611346781823187 0 5.9826461844201049 0 -1 0 I I #
End-of-ACIS-data 