500 0 11 0           
7 Unknown 11 ACIS 5.0 NT 24 Fri Mar 26 18:00:13 1999 
-1 9.9999999999999995e-007 1e-010 
body $-1 $11 $-1 $12 #
body $-1 $13 $-1 $14 #
body $-1 $15 $-1 $16 #
body $-1 $17 $-1 $18 #
body $-1 $19 $-1 $20 #
body $-1 $21 $-1 $22 #
body $-1 $23 $-1 $24 #
body $-1 $25 $-1 $26 #
body $-1 $27 $-1 $28 #
body $-1 $29 $-1 $30 #
body $-1 $31 $-1 $32 #
lump $-1 $-1 $33 $0 #
transform $-1 1 0 0 0 1 0 0 0 1 43.623157444990383 20.628440198328715 8.2191431578508976 1 rotate no_reflect no_shear #
lump $-1 $-1 $34 $1 #
transform $-1 1 0 0 0 1 0 0 0 1 43.623157444990383 20.628440198328715 8.2191431578508976 1 rotate no_reflect no_shear #
lump $-1 $-1 $35 $2 #
transform $-1 1 0 0 0 1 0 0 0 1 43.623157444990383 20.628440198328715 8.2191431578508976 1 rotate no_reflect no_shear #
lump $-1 $-1 $36 $3 #
transform $-1 1 0 0 0 1 0 0 0 1 43.623157444990383 20.628440198328715 8.2191431578508976 1 rotate no_reflect no_shear #
lump $-1 $-1 $37 $4 #
transform $-1 1 0 0 0 1 0 0 0 1 43.623157444990383 20.628440198328715 8.2191431578508976 1 rotate no_reflect no_shear #
lump $-1 $-1 $38 $5 #
transform $-1 1 0 0 0 1 0 0 0 1 43.623157444990383 20.628440198328715 8.2191431578508976 1 rotate no_reflect no_shear #
lump $-1 $-1 $39 $6 #
transform $-1 1 0 0 0 1 0 0 0 1 43.623157444990383 20.628440198328715 8.2191431578508976 1 rotate no_reflect no_shear #
lump $-1 $-1 $40 $7 #
transform $-1 1 0 0 0 1 0 0 0 1 43.623157444990383 20.628440198328715 8.2191431578508976 1 rotate no_reflect no_shear #
lump $-1 $-1 $41 $8 #
transform $-1 1 0 0 0 1 0 0 0 1 43.623157444990383 20.628440198328715 8.2191431578508976 1 rotate no_reflect no_shear #
lump $-1 $-1 $42 $9 #
transform $-1 1 0 0 0 1 0 0 0 1 43.623157444990383 20.628440198328715 8.2191431578508976 1 rotate no_reflect no_shear #
lump $-1 $-1 $43 $10 #
transform $-1 1 0 0 0 1 0 0 0 1 43.623157444990383 20.628440198328715 8.2191431578508976 1 rotate no_reflect no_shear #
shell $-1 $-1 $-1 $44 $-1 $11 #
shell $-1 $-1 $-1 $45 $-1 $13 #
shell $-1 $-1 $-1 $46 $-1 $15 #
shell $-1 $-1 $-1 $47 $-1 $17 #
shell $-1 $-1 $-1 $48 $-1 $19 #
shell $-1 $-1 $-1 $49 $-1 $21 #
shell $-1 $-1 $-1 $50 $-1 $23 #
shell $-1 $-1 $-1 $51 $-1 $25 #
shell $-1 $-1 $-1 $52 $-1 $27 #
shell $-1 $-1 $-1 $53 $-1 $29 #
shell $-1 $-1 $-1 $54 $-1 $31 #
face $-1 $55 $56 $33 $-1 $57 forward single #
face $-1 $58 $59 $34 $-1 $60 forward single #
face $-1 $61 $62 $35 $-1 $63 forward single #
face $-1 $64 $65 $36 $-1 $66 reversed single #
face $-1 $67 $68 $37 $-1 $69 forward single #
face $-1 $70 $71 $38 $-1 $72 reversed single #
face $-1 $73 $74 $39 $-1 $75 forward single #
face $-1 $76 $77 $40 $-1 $78 reversed single #
face $-1 $79 $80 $41 $-1 $81 forward single #
face $-1 $82 $83 $42 $-1 $84 reversed single #
face $-1 $85 $86 $43 $-1 $87 forward single #
face $-1 $88 $89 $33 $-1 $90 reversed single #
loop $-1 $-1 $91 $44 #
plane-surface $-1 0 0 8.2191431578508976 0 0 1 1 0 0 forward_v I I I I #
face $-1 $92 $93 $34 $-1 $94 reversed single #
loop $-1 $-1 $95 $45 #
plane-surface $-1 0 -16.148030171086411 7.7191431578508976 0 0 1 1 0 0 forward_v I I I I #
face $-1 $96 $97 $35 $-1 $98 reversed single #
loop $-1 $-1 $99 $46 #
plane-surface $-1 0 16.148030171086408 7.7191431578508976 0 0 1 1 0 0 forward_v I I I I #
face $-1 $100 $101 $36 $-1 $102 reversed single #
loop $-1 $-1 $103 $47 #
plane-surface $-1 -43.623157444990383 8.5652177728175047 4.7871745234293286 -0.61566148304635926 0 0.78801074757464917 0.78801074757464917 0 0.61566148304635926 forward_v I I I I #
face $-1 $104 $105 $37 $-1 $106 forward single #
loop $-1 $107 $108 $48 #
cone-surface $-1 -40.850630865342445 8.5652177728175047 5.7656989091731896 0.61566148304635926 0 -0.78801074757464917 0.78801074757464917 0 0.61566148304635926 1 I I 0 1 1 forward I I I I #
face $-1 $109 $110 $38 $-1 $111 reversed single #
loop $-1 $-1 $112 $49 #
plane-surface $-1 32.86945421067513 -8.0802479666447873 124.82071799825179 0 1 0 0.64278761758704617 0 0.76604443648966558 forward_v I I I I #
face $-1 $113 $114 $39 $-1 $115 forward single #
loop $-1 $116 $117 $50 #
cone-surface $-1 39.539498816956645 -5.9847273406297461 4.6792058512689012 -0.64278761758704617 0 -0.76604443648966558 0.1915111091224164 0 -0.16069690439676154 1 I I 0 1 0.25 forward I I I I #
face $-1 $118 $119 $40 $-1 $120 reversed single #
loop $-1 $-1 $121 $51 #
plane-surface $-1 32.86945421067513 -0.30183453741538102 124.82071799825179 0 1 0 0.64278761758704617 0 0.76604443648966558 forward_v I I I I #
face $-1 $122 $123 $41 $-1 $124 forward single #
loop $-1 $125 $126 $52 #
cone-surface $-1 39.539498816956645 1.7936860885996602 4.6792058512689012 -0.64278761758704617 0 -0.76604443648966558 0.1915111091224164 0 -0.16069690439676154 1 I I 0 1 0.25 forward I I I I #
face $-1 $127 $128 $42 $-1 $129 reversed single #
loop $-1 $-1 $130 $53 #
plane-surface $-1 32.86945421067513 7.4765788918140252 124.82071799825179 0 1 0 0.64278761758704617 0 0.76604443648966558 forward_v I I I I #
face $-1 $131 $132 $43 $-1 $133 forward single #
loop $-1 $134 $135 $54 #
cone-surface $-1 39.539498816956645 9.5720995178290664 4.6792058512689012 -0.64278761758704617 0 -0.76604443648966558 0.1915111091224164 0 -0.16069690439676154 1 I I 0 1 0.25 forward I I I I #
face $-1 $136 $137 $33 $-1 $138 reversed single #
loop $-1 $-1 $139 $55 #
plane-surface $-1 0 0 -8.2191431578508976 0 0 1 1 0 0 forward_v I I I I #
coedge $-1 $140 $141 $142 $143 forward $56 $-1 #
face $-1 $144 $145 $34 $-1 $146 reversed single #
loop $-1 $-1 $147 $58 #
plane-surface $-1 0 -16.148030171086411 3.3120048340858688 0 0 1 1 0 0 forward_v I I I I #
coedge $-1 $148 $149 $150 $151 reversed $59 $-1 #
face $-1 $152 $153 $35 $-1 $154 reversed single #
loop $-1 $-1 $155 $61 #
plane-surface $-1 0 16.148030171086408 3.3120048340858688 0 0 1 1 0 0 forward_v I I I I #
coedge $-1 $156 $157 $158 $159 reversed $62 $-1 #
face $-1 $160 $161 $36 $-1 $162 forward single #
loop $-1 $-1 $163 $64 #
plane-surface $-1 -97.337353060485597 5.4628154017909019 73.538208343016322 0 1 0 -0.61566148304635926 0 0.78801074757464917 forward_v I I I I #
coedge $-1 $164 $165 $166 $167 reversed $65 $-1 #
face $-1 $-1 $168 $37 $-1 $169 forward single #
loop $-1 $170 $171 $67 #
cone-surface $-1 -39.966633267603662 8.5652177728175047 4.6342336039189433 0.61566148304635926 0 -0.78801074757464917 0.39400537378732459 0 0.30783074152317963 1 I I -0.70710678118654746 0.70710678118654746 0.5 forward I I I I #
loop $-1 $-1 $172 $48 #
coedge $-1 $108 $108 $173 $174 reversed $68 $-1 #
face $-1 $175 $176 $38 $-1 $177 reversed single #
loop $-1 $-1 $178 $70 #
plane-surface $-1 -23.211396680704837 -5.9847273406297461 57.98616387255656 0.64278761758704617 0 0.76604443648966558 0.76604443648966558 0 -0.64278761758704617 forward_v I I I I #
coedge $-1 $179 $180 $181 $182 reversed $71 $-1 #
face $-1 $-1 $183 $39 $-1 $184 forward single #
loop $-1 $185 $186 $73 #
cone-surface $-1 39.137756555964742 -5.9847273406297461 4.2004280784628598 -0.64278761758704617 0 -0.76604443648966558 0.095755554561208198 0 -0.080348452198380771 1 I I -0.70710678118654746 0.70710678118654746 0.125 forward I I I I #
loop $-1 $-1 $187 $50 #
coedge $-1 $117 $117 $188 $189 reversed $74 $-1 #
face $-1 $190 $191 $40 $-1 $192 reversed single #
loop $-1 $-1 $193 $76 #
plane-surface $-1 -23.211396680704837 1.7936860885996602 57.98616387255656 0.64278761758704617 0 0.76604443648966558 0.76604443648966558 0 -0.64278761758704617 forward_v I I I I #
coedge $-1 $194 $195 $196 $197 reversed $77 $-1 #
face $-1 $-1 $198 $41 $-1 $199 forward single #
loop $-1 $200 $201 $79 #
cone-surface $-1 39.137756555964742 1.7936860885996602 4.2004280784628598 -0.64278761758704617 0 -0.76604443648966558 0.095755554561208198 0 -0.080348452198380771 1 I I -0.70710678118654746 0.70710678118654746 0.125 forward I I I I #
loop $-1 $-1 $202 $52 #
coedge $-1 $126 $126 $203 $204 reversed $80 $-1 #
face $-1 $205 $206 $42 $-1 $207 reversed single #
loop $-1 $-1 $208 $82 #
plane-surface $-1 -23.211396680704837 9.5720995178290664 57.98616387255656 0.64278761758704617 0 0.76604443648966558 0.76604443648966558 0 -0.64278761758704617 forward_v I I I I #
coedge $-1 $209 $210 $211 $212 reversed $83 $-1 #
face $-1 $-1 $213 $43 $-1 $214 forward single #
loop $-1 $215 $216 $85 #
cone-surface $-1 39.137756555964742 9.5720995178290664 4.2004280784628598 -0.64278761758704617 0 -0.76604443648966558 0.095755554561208198 0 -0.080348452198380771 1 I I -0.70710678118654746 0.70710678118654746 0.125 forward I I I I #
loop $-1 $-1 $217 $54 #
coedge $-1 $135 $135 $218 $219 reversed $86 $-1 #
face $-1 $220 $221 $33 $-1 $222 reversed single #
loop $-1 $-1 $223 $88 #
plane-surface $-1 0 -20.628440198328715 0 0 1 0 0 0 1 forward_v I I I I #
coedge $-1 $224 $225 $226 $227 forward $89 $-1 #
coedge $-1 $228 $91 $229 $230 forward $56 $-1 #
coedge $-1 $91 $228 $231 $232 forward $56 $-1 #
coedge $-1 $233 $234 $91 $143 reversed $235 $-1 #
edge $-1 $236 -20.628440198328715 $237 20.628440198328715 $142 $238 forward 7 unknown #
face $-1 $239 $240 $34 $-1 $241 reversed single #
loop $-1 $-1 $242 $92 #
plane-surface $-1 0 -11.667620143844108 5.5155739959683832 0 -1 0 0 0 -1 forward_v I I I I #
coedge $-1 $243 $244 $245 $246 reversed $93 $-1 #
coedge $-1 $247 $95 $248 $249 forward $59 $-1 #
coedge $-1 $95 $247 $250 $251 reversed $59 $-1 #
coedge $-1 $252 $253 $95 $151 forward $254 $-1 #
edge $-1 $255 3.593605058300902 $256 12.554425112785509 $150 $257 forward 7 unknown #
face $-1 $258 $259 $35 $-1 $260 reversed single #
loop $-1 $-1 $261 $96 #
plane-surface $-1 0 11.667620143844104 5.5155739959683832 0 1 0 0 0 1 forward_v I I I I #
coedge $-1 $262 $263 $264 $265 reversed $97 $-1 #
coedge $-1 $266 $99 $267 $268 reversed $62 $-1 #
coedge $-1 $99 $266 $269 $270 forward $62 $-1 #
coedge $-1 $271 $272 $99 $159 forward $259 $-1 #
edge $-1 $273 -12.554425112785507 $274 -3.5936050583009003 $158 $275 forward 7 unknown #
face $-1 $276 $277 $36 $-1 $278 reversed single #
loop $-1 $-1 $279 $100 #
plane-surface $-1 0 11.667620143844104 5.5155739959683832 0 1 0 0 0 1 forward_v I I I I #
coedge $-1 $280 $281 $282 $283 reversed $101 $-1 #
coedge $-1 $284 $103 $279 $285 reversed $65 $-1 #
coedge $-1 $103 $284 $280 $286 forward $65 $-1 #
coedge $-1 $282 $287 $103 $167 forward $277 $-1 #
edge $-1 $288 -7.3850112574353517 $289 -1.1802065153821495 $166 $290 forward 7 unknown #
loop $-1 $-1 $173 $104 #
plane-surface $-1 -43.623157444990383 8.5652177728175047 4.7871745234293286 -0.61566148304635926 0 0.78801074757464917 0.78801074757464917 0 0.61566148304635926 forward_v I I I I #
loop $-1 $-1 $291 $67 #
coedge $-1 $171 $171 $172 $292 reversed $105 $-1 #
coedge $-1 $172 $172 $171 $292 forward $107 $-1 #
coedge $-1 $173 $173 $108 $174 forward $168 $-1 #
edge $-1 $293 0 $293 6.2831853071796004 $173 $294 forward 7 unknown #
face $-1 $295 $296 $38 $-1 $297 forward single #
loop $-1 $-1 $298 $109 #
plane-surface $-1 32.86945421067513 -3.8892067146147049 124.82071799825179 0 -1 0 -0.64278761758704617 0 -0.76604443648966558 forward_v I I I I #
coedge $-1 $299 $300 $301 $302 reversed $110 $-1 #
coedge $-1 $180 $112 $303 $304 reversed $71 $-1 #
coedge $-1 $112 $179 $299 $305 reversed $71 $-1 #
coedge $-1 $301 $306 $112 $182 forward $307 $-1 #
edge $-1 $308 54.191215841274996 $309 60.505046017949297 $181 $310 forward 7 unknown #
loop $-1 $-1 $188 $113 #
plane-surface $-1 -23.211396680704837 -5.9847273406297461 57.98616387255656 0.64278761758704617 0 0.76604443648966558 0.76604443648966558 0 -0.64278761758704617 forward_v I I I I #
loop $-1 $-1 $311 $73 #
coedge $-1 $186 $186 $187 $312 reversed $114 $-1 #
coedge $-1 $187 $187 $186 $312 forward $116 $-1 #
coedge $-1 $188 $188 $117 $189 forward $183 $-1 #
edge $-1 $313 0 $313 6.2831853071796004 $188 $314 forward 7 unknown #
face $-1 $315 $316 $40 $-1 $317 reversed single #
loop $-1 $-1 $318 $118 #
plane-surface $-1 32.86945421067513 3.8892067146147014 124.82071799825179 0 -1 0 -0.64278761758704617 0 -0.76604443648966558 forward_v I I I I #
coedge $-1 $319 $320 $321 $322 reversed $119 $-1 #
coedge $-1 $195 $121 $323 $324 reversed $77 $-1 #
coedge $-1 $121 $194 $319 $325 reversed $77 $-1 #
coedge $-1 $321 $326 $121 $197 forward $316 $-1 #
edge $-1 $327 54.191215841274996 $328 60.505046017949297 $196 $329 forward 7 unknown #
loop $-1 $-1 $203 $122 #
plane-surface $-1 -23.211396680704837 1.7936860885996602 57.98616387255656 0.64278761758704617 0 0.76604443648966558 0.76604443648966558 0 -0.64278761758704617 forward_v I I I I #
loop $-1 $-1 $330 $79 #
coedge $-1 $201 $201 $202 $331 reversed $123 $-1 #
coedge $-1 $202 $202 $201 $331 forward $125 $-1 #
coedge $-1 $203 $203 $126 $204 forward $198 $-1 #
edge $-1 $332 0 $332 6.2831853071796004 $203 $333 forward 7 unknown #
face $-1 $334 $335 $42 $-1 $336 forward single #
loop $-1 $-1 $211 $127 #
plane-surface $-1 43.623157444990383 0 0 -1 0 0 0 0 1 forward_v I I I I #
coedge $-1 $337 $338 $339 $340 reversed $128 $-1 #
coedge $-1 $210 $130 $341 $342 reversed $83 $-1 #
coedge $-1 $130 $209 $337 $343 reversed $83 $-1 #
coedge $-1 $339 $344 $130 $212 forward $206 $-1 #
edge $-1 $345 54.191215841274996 $346 60.505046017949297 $211 $347 forward 7 unknown #
loop $-1 $-1 $218 $131 #
plane-surface $-1 -23.211396680704837 9.5720995178290664 57.98616387255656 0.64278761758704617 0 0.76604443648966558 0.76604443648966558 0 -0.64278761758704617 forward_v I I I I #
loop $-1 $-1 $348 $85 #
coedge $-1 $216 $216 $217 $349 reversed $132 $-1 #
coedge $-1 $217 $217 $216 $349 forward $134 $-1 #
coedge $-1 $218 $218 $135 $219 forward $213 $-1 #
edge $-1 $350 0 $350 6.2831853071796004 $218 $351 forward 7 unknown #
face $-1 $352 $353 $33 $-1 $354 reversed single #
loop $-1 $-1 $355 $136 #
plane-surface $-1 -43.623157444990383 0 0 1 0 0 0 0 -1 forward_v I I I I #
coedge $-1 $356 $231 $357 $358 forward $137 $-1 #
coedge $-1 $359 $139 $356 $360 forward $89 $-1 #
coedge $-1 $139 $359 $361 $362 forward $89 $-1 #
coedge $-1 $234 $233 $139 $227 reversed $235 $-1 #
edge $-1 $363 -20.628440198328715 $364 20.628440198328715 $226 $365 forward 7 unknown #
coedge $-1 $141 $140 $366 $367 forward $56 $-1 #
coedge $-1 $368 $369 $140 $230 reversed $353 $-1 #
edge $-1 $237 -43.623157444990383 $370 43.623157444990383 $229 $371 forward 7 unknown #
coedge $-1 $223 $372 $141 $232 reversed $137 $-1 #
edge $-1 $373 -43.623157444990383 $236 43.623157444990383 $231 $374 forward 7 unknown #
coedge $-1 $226 $142 $372 $375 forward $235 $-1 #
coedge $-1 $142 $226 $368 $376 reversed $235 $-1 #
loop $-1 $-1 $233 $352 #
vertex $-1 $143 $377 #
vertex $-1 $143 $378 #
straight-curve $-1 43.623157444990383 0 8.2191431578508976 0 1 0 I I #
face $-1 $379 $380 $34 $-1 $381 reversed single #
loop $-1 $-1 $382 $144 #
plane-surface $-1 -43.623157444990383 0 0 1 0 0 0 0 -1 forward_v I I I I #
coedge $-1 $383 $248 $253 $384 reversed $145 $-1 #
coedge $-1 $385 $147 $386 $387 reversed $93 $-1 #
coedge $-1 $147 $385 $383 $388 forward $93 $-1 #
coedge $-1 $253 $252 $147 $246 forward $254 $-1 #
edge $-1 $389 -12.554425112785509 $390 -3.593605058300902 $245 $391 forward 7 unknown #
coedge $-1 $149 $148 $382 $392 reversed $59 $-1 #
coedge $-1 $242 $393 $148 $249 reversed $145 $-1 #
edge $-1 $255 -43.623157444990383 $394 43.623157444990383 $248 $395 forward 7 unknown #
coedge $-1 $396 $397 $149 $251 forward $380 $-1 #
edge $-1 $256 -43.623157444990383 $398 43.623157444990383 $250 $399 forward 7 unknown #
coedge $-1 $245 $150 $397 $400 forward $254 $-1 #
coedge $-1 $150 $245 $242 $384 forward $254 $-1 #
loop $-1 $-1 $150 $379 #
vertex $-1 $151 $401 #
vertex $-1 $400 $402 #
straight-curve $-1 43.623157444990383 -8.0740150855432056 7.7191431578508976 0 -1 0 I I #
face $-1 $403 $404 $35 $-1 $405 reversed single #
loop $-1 $-1 $158 $152 #
plane-surface $-1 43.623157444990383 0 0 -1 0 0 0 0 1 forward_v I I I I #
coedge $-1 $406 $269 $407 $408 reversed $153 $-1 #
coedge $-1 $409 $155 $406 $410 forward $97 $-1 #
coedge $-1 $155 $409 $411 $412 reversed $97 $-1 #
coedge $-1 $272 $271 $155 $265 forward $259 $-1 #
edge $-1 $413 3.5936050583009003 $414 12.554425112785507 $264 $415 forward 7 unknown #
coedge $-1 $157 $156 $416 $417 reversed $62 $-1 #
coedge $-1 $418 $419 $156 $268 forward $420 $-1 #
edge $-1 $421 -43.623157444990383 $273 43.623157444990383 $267 $422 forward 7 unknown #
coedge $-1 $261 $423 $157 $270 reversed $153 $-1 #
edge $-1 $424 -43.623157444990383 $274 43.623157444990383 $269 $425 forward 7 unknown #
coedge $-1 $264 $158 $423 $426 forward $259 $-1 #
coedge $-1 $158 $264 $418 $427 reversed $259 $-1 #
vertex $-1 $427 $428 #
vertex $-1 $159 $429 #
straight-curve $-1 43.623157444990383 8.0740150855432038 7.7191431578508976 0 -1 0 I I #
face $-1 $-1 $430 $36 $-1 $431 forward single #
loop $-1 $-1 $287 $160 #
plane-surface $-1 -43.623157444990383 0 0 1 0 0 0 0 -1 forward_v I I I I #
coedge $-1 $432 $433 $164 $285 forward $161 $-1 #
coedge $-1 $281 $163 $165 $286 reversed $101 $-1 #
coedge $-1 $163 $280 $434 $435 reversed $101 $-1 #
coedge $-1 $436 $166 $163 $283 forward $277 $-1 #
edge $-1 $289 -31.981929648078832 $437 -28.549961013657263 $282 $438 forward 7 unknown #
coedge $-1 $165 $164 $439 $440 reversed $65 $-1 #
edge $-1 $441 11.837541170207434 $288 17.411982204653537 $279 $442 forward 7 unknown #
edge $-1 $443 -5.5744410344461031 $289 0 $280 $444 forward 7 unknown #
coedge $-1 $166 $436 $432 $445 forward $277 $-1 #
vertex $-1 $285 $446 #
vertex $-1 $167 $447 #
straight-curve $-1 -43.623157444990383 4.2826088864087524 4.7871745234293295 0 -1 0 I I #
coedge $-1 $291 $291 $-1 $448 reversed $170 $-1 #
edge $-1 $449 0 $449 6.2831853071796004 $171 $450 forward 7 unknown #
vertex $-1 $174 $451 #
ellipse-curve $-1 -41.426797721558046 8.5652177728175047 6.5031588406401122 -0.61566148304635926 0 0.78801074757464917 0.78801074757464917 0 0.61566148304635926 1 I I #
face $-1 $-1 $307 $38 $-1 $452 reversed single #
loop $-1 $-1 $453 $175 #
plane-surface $-1 0 0 8.2191431578508976 0 0 1 1 0 0 forward_v I I I I #
coedge $-1 $454 $455 $456 $457 reversed $176 $-1 #
coedge $-1 $458 $178 $180 $305 forward $110 $-1 #
coedge $-1 $178 $458 $454 $459 forward $110 $-1 #
coedge $-1 $456 $181 $178 $302 forward $307 $-1 #
edge $-1 $309 -5.0878842963299142 $460 -0.89684304429983186 $301 $461 forward 7 unknown #
coedge $-1 $462 $463 $179 $304 forward $296 $-1 #
edge $-1 $464 19.663900701172466 $308 27.188430339652818 $303 $465 forward 7 unknown #
edge $-1 $309 -87.246314889980752 $464 -77.423738966107607 $180 $466 forward 7 unknown #
coedge $-1 $181 $456 $462 $467 reversed $307 $-1 #
loop $-1 $-1 $456 $295 #
vertex $-1 $467 $468 #
vertex $-1 $182 $469 #
straight-curve $-1 43.623157444990383 -8.0802479666447873 62.410358999125897 0 0 -1 I I #
coedge $-1 $311 $311 $-1 $470 reversed $185 $-1 #
edge $-1 $471 0 $471 6.2831853071796004 $186 $472 forward 7 unknown #
vertex $-1 $189 $473 #
ellipse-curve $-1 39.860892625750189 -5.9847273406297461 5.0622280695137611 0.64278761758704617 0 0.76604443648966558 0.1915111091224164 0 -0.16069690439676154 1 I I #
face $-1 $-1 $474 $40 $-1 $475 forward single #
loop $-1 $-1 $196 $190 #
plane-surface $-1 43.623157444990383 0 0 -1 0 0 0 0 1 forward_v I I I I #
coedge $-1 $476 $477 $478 $479 reversed $191 $-1 #
coedge $-1 $480 $193 $195 $325 forward $119 $-1 #
coedge $-1 $193 $480 $476 $481 forward $119 $-1 #
coedge $-1 $478 $196 $193 $322 forward $316 $-1 #
edge $-1 $328 -1.1986775817152111 $482 2.9923636703148713 $321 $483 forward 7 unknown #
coedge $-1 $484 $485 $194 $324 forward $474 $-1 #
edge $-1 $486 19.663900701172466 $327 27.188430339652818 $323 $487 forward 7 unknown #
edge $-1 $328 -87.246314889980752 $486 -77.423738966107607 $195 $488 forward 7 unknown #
coedge $-1 $196 $478 $484 $489 reversed $316 $-1 #
vertex $-1 $489 $490 #
vertex $-1 $197 $491 #
straight-curve $-1 43.623157444990383 -0.30183453741538102 62.410358999125897 0 0 -1 I I #
coedge $-1 $330 $330 $-1 $492 reversed $200 $-1 #
edge $-1 $493 0 $493 6.2831853071796004 $201 $494 forward 7 unknown #
vertex $-1 $204 $495 #
ellipse-curve $-1 39.860892625750189 1.7936860885996602 5.0622280695137611 0.64278761758704617 0 0.76604443648966558 0.1915111091224164 0 -0.16069690439676154 1 I I #
face $-1 $-1 $496 $42 $-1 $497 forward single #
loop $-1 $-1 $498 $205 #
plane-surface $-1 0 11.667620143844104 5.5155739959683832 0 1 0 0 0 1 forward_v I I I I #
coedge $-1 $499 $208 $210 $343 forward $128 $-1 #
coedge $-1 $208 $499 $498 $500 forward $128 $-1 #
coedge $-1 $501 $211 $208 $340 forward $206 $-1 #
edge $-1 $346 2.690529132899492 $502 6.8815703849295744 $339 $503 forward 7 unknown #
coedge $-1 $504 $505 $209 $342 forward $496 $-1 #
edge $-1 $506 19.663900701172466 $345 27.188430339652818 $341 $507 forward 7 unknown #
edge $-1 $346 -87.246314889980752 $506 -77.423738966107607 $210 $508 forward 7 unknown #
coedge $-1 $211 $501 $504 $509 reversed $206 $-1 #
vertex $-1 $509 $510 #
vertex $-1 $212 $511 #
straight-curve $-1 43.623157444990383 7.4765788918140252 62.410358999125897 0 0 -1 I I #
coedge $-1 $348 $348 $-1 $512 reversed $215 $-1 #
edge $-1 $513 0 $513 6.2831853071796004 $216 $514 forward 7 unknown #
vertex $-1 $219 $515 #
ellipse-curve $-1 39.860892625750189 9.5720995178290664 5.0622280695137611 0.64278761758704617 0 0.76604443648966558 0.1915111091224164 0 -0.16069690439676154 1 I I #
face $-1 $-1 $235 $33 $-1 $516 reversed single #
loop $-1 $-1 $368 $220 #
plane-surface $-1 0 20.628440198328715 0 0 -1 0 0 0 -1 forward_v I I I I #
coedge $-1 $517 $366 $369 $518 forward $221 $-1 #
coedge $-1 $372 $223 $224 $360 reversed $137 $-1 #
coedge $-1 $366 $517 $223 $358 reversed $221 $-1 #
edge $-1 $373 -8.2191431578508976 $519 8.2191431578508976 $357 $520 forward 7 unknown #
coedge $-1 $225 $224 $517 $521 forward $89 $-1 #
edge $-1 $364 -43.623157444990383 $519 43.623157444990383 $356 $522 forward 7 unknown #
coedge $-1 $369 $368 $225 $362 reversed $353 $-1 #
edge $-1 $523 -43.623157444990383 $363 43.623157444990383 $361 $524 forward 7 unknown #
vertex $-1 $227 $525 #
vertex $-1 $375 $526 #
straight-curve $-1 43.623157444990383 0 -8.2191431578508976 0 -1 0 I I #
coedge $-1 $355 $357 $228 $367 reversed $221 $-1 #
edge $-1 $370 -20.628440198328715 $373 20.628440198328715 $366 $527 forward 7 unknown #
coedge $-1 $361 $229 $234 $376 forward $353 $-1 #
coedge $-1 $229 $361 $355 $518 reversed $353 $-1 #
vertex $-1 $230 $528 #
straight-curve $-1 0 20.628440198328715 8.2191431578508976 -1 0 0 I I #
coedge $-1 $231 $356 $233 $375 reversed $137 $-1 #
vertex $-1 $367 $529 #
straight-curve $-1 0 -20.628440198328715 8.2191431578508976 1 0 0 I I #
edge $-1 $236 -8.2191431578508976 $364 8.2191431578508976 $233 $530 forward 7 unknown #
edge $-1 $237 -8.2191431578508976 $363 8.2191431578508976 $234 $531 forward 7 unknown #
point $-1 43.623157444990383 -20.628440198328715 8.2191431578508976 #
point $-1 43.623157444990383 20.628440198328715 8.2191431578508976 #
face $-1 $-1 $254 $34 $-1 $532 reversed single #
loop $-1 $-1 $250 $239 #
plane-surface $-1 0 -20.628440198328715 0 0 1 0 0 0 1 forward_v I I I I #
coedge $-1 $533 $534 $247 $392 forward $240 $-1 #
coedge $-1 $393 $242 $244 $388 reversed $145 $-1 #
edge $-1 $390 0.55421783610167719 $255 4.961356159866706 $253 $535 forward 7 unknown #
coedge $-1 $244 $243 $536 $537 reversed $93 $-1 #
coedge $-1 $397 $396 $243 $387 forward $380 $-1 #
edge $-1 $538 -43.623157444990383 $389 43.623157444990383 $386 $539 forward 7 unknown #
edge $-1 $540 -43.623157444990383 $390 43.623157444990383 $383 $541 forward 7 unknown #
vertex $-1 $387 $542 #
vertex $-1 $246 $543 #
straight-curve $-1 43.623157444990383 -8.0740150855432056 3.3120048340858688 0 1 0 I I #
edge $-1 $398 -12.554425112785509 $394 -3.593605058300902 $382 $544 forward 7 unknown #
coedge $-1 $248 $383 $533 $545 reversed $145 $-1 #
vertex $-1 $392 $546 #
straight-curve $-1 0 -11.667620143844108 7.7191431578508976 -1 0 0 I I #
coedge $-1 $386 $250 $534 $547 forward $380 $-1 #
coedge $-1 $250 $386 $252 $400 reversed $380 $-1 #
vertex $-1 $547 $548 #
straight-curve $-1 0 -20.628440198328715 7.7191431578508976 -1 0 0 I I #
edge $-1 $256 -7.7191431578508976 $389 -3.3120048340858688 $252 $549 forward 7 unknown #
point $-1 43.623157444990383 -11.667620143844108 7.7191431578508976 #
point $-1 43.623157444990383 -20.628440198328715 7.7191431578508976 #
face $-1 $-1 $420 $35 $-1 $550 reversed single #
loop $-1 $-1 $416 $258 #
plane-surface $-1 -43.623157444990383 0 0 1 0 0 0 0 -1 forward_v I I I I #
coedge $-1 $423 $261 $262 $410 reversed $153 $-1 #
coedge $-1 $416 $551 $261 $408 forward $404 $-1 #
edge $-1 $552 0.55421783610167719 $424 4.961356159866706 $407 $553 forward 7 unknown #
coedge $-1 $263 $262 $551 $554 reversed $97 $-1 #
edge $-1 $413 -43.623157444990383 $552 43.623157444990383 $406 $555 forward 7 unknown #
coedge $-1 $419 $418 $263 $412 forward $420 $-1 #
edge $-1 $414 -43.623157444990383 $556 43.623157444990383 $411 $557 forward 7 unknown #
vertex $-1 $265 $558 #
vertex $-1 $412 $559 #
straight-curve $-1 43.623157444990383 8.0740150855432038 3.3120048340858688 0 1 0 I I #
coedge $-1 $560 $407 $266 $417 forward $404 $-1 #
edge $-1 $424 3.5936050583009003 $421 12.554425112785507 $416 $561 forward 7 unknown #
coedge $-1 $411 $267 $272 $427 forward $420 $-1 #
coedge $-1 $267 $411 $560 $562 reversed $420 $-1 #
loop $-1 $-1 $267 $403 #
vertex $-1 $562 $563 #
straight-curve $-1 0 20.628440198328715 7.7191431578508976 1 0 0 I I #
coedge $-1 $269 $406 $271 $426 reversed $153 $-1 #
vertex $-1 $417 $564 #
straight-curve $-1 0 11.667620143844104 7.7191431578508976 1 0 0 I I #
edge $-1 $274 -4.961356159866706 $413 -0.55421783610167719 $271 $565 forward 7 unknown #
edge $-1 $273 -7.7191431578508976 $414 -3.3120048340858688 $272 $566 forward 7 unknown #
point $-1 43.623157444990383 20.628440198328711 7.7191431578508976 #
point $-1 43.623157444990383 11.667620143844104 7.7191431578508976 #
loop $-1 $-1 $567 $276 #
plane-surface $-1 0 0 8.2191431578508976 0 0 1 1 0 0 forward_v I I I I #
coedge $-1 $433 $279 $287 $445 reversed $161 $-1 #
coedge $-1 $279 $432 $567 $568 reversed $161 $-1 #
coedge $-1 $439 $569 $281 $435 forward $430 $-1 #
edge $-1 $437 5.0455190852524154 $443 9.4382385321170901 $434 $570 forward 7 unknown #
coedge $-1 $287 $282 $569 $571 reversed $277 $-1 #
vertex $-1 $435 $572 #
straight-curve $-1 -43.623157444990383 5.4628154017909019 36.769104171508161 0 0 1 I I #
coedge $-1 $567 $434 $284 $440 forward $430 $-1 #
edge $-1 $443 1.1802065153821495 $441 7.3850112574353552 $439 $573 forward 7 unknown #
vertex $-1 $568 $574 #
straight-curve $-1 -29.902328331144862 11.667620143844104 15.507061310323142 -0.78801074757464917 0 -0.61566148304635926 I I #
vertex $-1 $440 $575 #
straight-curve $-1 -43.623157444990383 5.4628154017909019 4.7871745234293286 -0.78801074757464917 0 -0.61566148304635926 I I #
edge $-1 $576 28.549961013657263 $288 31.981929648078832 $287 $577 forward 7 unknown #
point $-1 -43.623157444990383 11.667620143844104 4.7871745234293286 #
point $-1 -43.623157444990383 5.4628154017909019 4.7871745234293286 #
edge $-1 $578 1 $578 0 $291 $-1 forward 7 unknown #
vertex $-1 $292 $579 #
ellipse-curve $-1 -40.274464009126838 8.5652177728175047 5.0282389777062679 -0.61566148304635926 0 0.78801074757464917 0.78801074757464917 0 0.61566148304635926 1 I I #
point $-1 -40.638786973983393 8.5652177728175047 7.1188203236864709 #
plane-surface $-1 43.623157444990383 0 0 -1 0 0 0 0 1 forward_v I I I I #
coedge $-1 $463 $462 $455 $580 forward $296 $-1 #
coedge $-1 $455 $298 $300 $459 reversed $176 $-1 #
coedge $-1 $298 $454 $453 $580 reversed $176 $-1 #
coedge $-1 $306 $301 $298 $457 forward $307 $-1 #
edge $-1 $460 -60.505046017949297 $581 -54.191215841274996 $456 $582 forward 7 unknown #
coedge $-1 $300 $299 $463 $583 reversed $110 $-1 #
edge $-1 $584 77.423738966107607 $460 87.246314889980752 $454 $585 forward 7 unknown #
vertex $-1 $302 $586 #
straight-curve $-1 43.623157444990383 -2.992363670314873 1.9053129811766141 0 1 0 I I #
coedge $-1 $453 $303 $306 $467 forward $296 $-1 #
coedge $-1 $303 $453 $458 $583 forward $296 $-1 #
vertex $-1 $304 $587 #
straight-curve $-1 16.434727105337565 -8.0802479666447873 8.219143157850894 1 0 0 I I #
straight-curve $-1 -23.211396680704837 -8.0802479666447873 57.98616387255656 -0.76604443648966558 0 0.64278761758704617 I I #
edge $-1 $308 -8.0802479666447873 $581 -3.8892067146147049 $306 $588 forward 7 unknown #
point $-1 43.623157444990383 -8.0802479666447873 8.2191431578508976 #
point $-1 43.623157444990383 -8.0802479666447873 1.9053129811765999 #
edge $-1 $589 1 $589 0 $311 $-1 forward 7 unknown #
vertex $-1 $312 $590 #
ellipse-curve $-1 39.218105008163121 -5.9847273406297461 4.2961836330240679 0.64278761758704617 0 0.76604443648966558 0.1915111091224164 0 -0.16069690439676154 1 I I #
point $-1 40.052403734872584 -5.9847273406297461 4.901531165116972 #
loop $-1 $-1 $323 $315 #
plane-surface $-1 0 0 8.2191431578508976 0 0 1 1 0 0 forward_v I I I I #
coedge $-1 $477 $318 $320 $481 reversed $191 $-1 #
coedge $-1 $318 $476 $591 $592 reversed $191 $-1 #
coedge $-1 $326 $321 $318 $479 forward $316 $-1 #
edge $-1 $482 -60.505046017949297 $593 -54.191215841274996 $478 $594 forward 7 unknown #
coedge $-1 $320 $319 $485 $595 reversed $119 $-1 #
edge $-1 $596 77.423738966107607 $482 87.246314889980752 $476 $597 forward 7 unknown #
vertex $-1 $322 $598 #
straight-curve $-1 43.623157444990383 0.89684304429983008 1.9053129811766141 0 1 0 I I #
coedge $-1 $591 $323 $326 $489 forward $474 $-1 #
coedge $-1 $323 $591 $480 $595 forward $474 $-1 #
vertex $-1 $324 $599 #
straight-curve $-1 16.434727105337565 -0.30183453741538102 8.219143157850894 1 0 0 I I #
straight-curve $-1 -23.211396680704837 -0.30183453741538102 57.98616387255656 -0.76604443648966558 0 0.64278761758704617 I I #
edge $-1 $327 -0.30183453741538102 $593 3.8892067146147014 $326 $600 forward 7 unknown #
point $-1 43.623157444990383 -0.30183453741538102 8.2191431578508976 #
point $-1 43.623157444990383 -0.30183453741538102 1.9053129811765999 #
edge $-1 $601 1 $601 0 $330 $-1 forward 7 unknown #
vertex $-1 $331 $602 #
ellipse-curve $-1 39.218105008163121 1.7936860885996602 4.2961836330240679 0.64278761758704617 0 0.76604443648966558 0.1915111091224164 0 -0.16069690439676154 1 I I #
point $-1 40.052403734872584 1.7936860885996602 4.901531165116972 #
loop $-1 $-1 $341 $334 #
plane-surface $-1 0 0 8.2191431578508976 0 0 1 1 0 0 forward_v I I I I #
coedge $-1 $603 $604 $338 $500 reversed $335 $-1 #
coedge $-1 $338 $337 $505 $605 reversed $128 $-1 #
edge $-1 $606 77.423738966107607 $502 87.246314889980752 $498 $607 forward 7 unknown #
coedge $-1 $344 $339 $604 $608 forward $206 $-1 #
vertex $-1 $340 $609 #
straight-curve $-1 43.623157444990383 4.7860497589145332 1.9053129811766141 0 1 0 I I #
coedge $-1 $610 $341 $344 $509 forward $496 $-1 #
coedge $-1 $341 $610 $499 $605 forward $496 $-1 #
vertex $-1 $342 $611 #
straight-curve $-1 16.434727105337565 7.4765788918140252 8.219143157850894 1 0 0 I I #
straight-curve $-1 -23.211396680704837 7.4765788918140252 57.98616387255656 -0.76604443648966558 0 0.64278761758704617 I I #
edge $-1 $345 7.4765788918140252 $612 11.667620143844108 $344 $613 forward 7 unknown #
point $-1 43.623157444990383 7.4765788918140252 8.2191431578508976 #
point $-1 43.623157444990383 7.4765788918140252 1.9053129811765999 #
edge $-1 $614 1 $614 0 $348 $-1 forward 7 unknown #
vertex $-1 $349 $615 #
ellipse-curve $-1 39.218105008163121 9.5720995178290664 4.2961836330240679 0.64278761758704617 0 0.76604443648966558 0.1915111091224164 0 -0.16069690439676154 1 I I #
point $-1 40.052403734872584 9.5720995178290664 4.901531165116972 #
plane-surface $-1 43.623157444990383 0 0 -1 0 0 0 0 1 forward_v I I I I #
coedge $-1 $357 $355 $359 $521 reversed $221 $-1 #
edge $-1 $370 -8.2191431578508976 $523 8.2191431578508976 $369 $616 forward 7 unknown #
vertex $-1 $521 $617 #
straight-curve $-1 -43.623157444990383 -20.628440198328715 0 0 0 -1 I I #
edge $-1 $519 -20.628440198328715 $523 20.628440198328715 $517 $618 forward 7 unknown #
straight-curve $-1 0 -20.628440198328715 -8.2191431578508976 -1 0 0 I I #
vertex $-1 $362 $619 #
straight-curve $-1 0 20.628440198328715 -8.2191431578508976 1 0 0 I I #
point $-1 43.623157444990383 20.628440198328715 -8.2191431578508976 #
point $-1 43.623157444990383 -20.628440198328715 -8.2191431578508976 #
straight-curve $-1 -43.623157444990383 0 8.2191431578508976 0 -1 0 I I #
point $-1 -43.623157444990383 20.628440198328715 8.2191431578508976 #
point $-1 -43.623157444990383 -20.628440198328715 8.2191431578508976 #
straight-curve $-1 43.623157444990383 -20.628440198328715 0 0 0 -1 I I #
straight-curve $-1 43.623157444990383 20.628440198328715 0 0 0 -1 I I #
plane-surface $-1 43.623157444990383 0 0 -1 0 0 0 0 1 forward_v I I I I #
coedge $-1 $536 $382 $393 $545 forward $240 $-1 #
coedge $-1 $382 $536 $396 $547 reversed $240 $-1 #
straight-curve $-1 43.623157444990383 -11.667620143844108 2.7577869979841916 0 0 1 I I #
coedge $-1 $534 $533 $385 $537 forward $240 $-1 #
edge $-1 $540 3.593605058300902 $538 12.554425112785509 $536 $620 forward 7 unknown #
vertex $-1 $387 $621 #
straight-curve $-1 0 -20.628440198328715 3.3120048340858688 1 0 0 I I #
vertex $-1 $537 $622 #
straight-curve $-1 0 -11.667620143844108 3.3120048340858688 1 0 0 I I #
point $-1 43.623157444990383 -20.628440198328715 3.3120048340858688 #
point $-1 43.623157444990383 -11.667620143844108 3.3120048340858688 #
straight-curve $-1 -43.623157444990383 -8.0740150855432056 7.7191431578508976 0 1 0 I I #
edge $-1 $394 -4.961356159866706 $540 -0.55421783610167719 $533 $623 forward 7 unknown #
point $-1 -43.623157444990383 -11.667620143844108 7.7191431578508976 #
edge $-1 $398 -7.7191431578508976 $538 -3.3120048340858688 $534 $624 forward 7 unknown #
point $-1 -43.623157444990383 -20.628440198328715 7.7191431578508976 #
straight-curve $-1 43.623157444990383 -20.628440198328715 0 0 0 -1 I I #
plane-surface $-1 0 20.628440198328715 0 0 -1 0 0 0 -1 forward_v I I I I #
coedge $-1 $407 $560 $409 $554 forward $404 $-1 #
vertex $-1 $554 $625 #
straight-curve $-1 -43.623157444990383 11.667620143844104 2.7577869979841916 0 0 1 I I #
edge $-1 $556 -12.554425112785507 $552 -3.5936050583009003 $551 $626 forward 7 unknown #
straight-curve $-1 0 11.667620143844104 3.3120048340858688 -1 0 0 I I #
vertex $-1 $412 $627 #
straight-curve $-1 0 20.628440198328715 3.3120048340858688 -1 0 0 I I #
point $-1 43.623157444990383 11.667620143844104 3.3120048340858688 #
point $-1 43.623157444990383 20.628440198328711 3.3120048340858688 #
coedge $-1 $551 $416 $419 $562 forward $404 $-1 #
straight-curve $-1 -43.623157444990383 8.0740150855432038 7.7191431578508976 0 1 0 I I #
edge $-1 $421 -7.7191431578508976 $556 -3.3120048340858688 $419 $628 forward 7 unknown #
point $-1 -43.623157444990383 20.628440198328711 7.7191431578508976 #
point $-1 -43.623157444990383 11.667620143844104 7.7191431578508976 #
straight-curve $-1 43.623157444990383 11.667620143844104 2.7577869979841916 0 0 -1 I I #
straight-curve $-1 43.623157444990383 20.628440198328715 0 0 0 -1 I I #
coedge $-1 $569 $439 $433 $568 forward $430 $-1 #
edge $-1 $441 -9.4382385321170901 $576 -5.0455190852524154 $567 $629 forward 7 unknown #
coedge $-1 $434 $567 $436 $571 forward $430 $-1 #
straight-curve $-1 -48.668676530242799 5.4628154017909019 8.2191431578509011 1 0 0 I I #
edge $-1 $576 -11.667620143844108 $437 -5.4628154017909019 $436 $630 forward 7 unknown #
point $-1 -43.623157444990383 5.4628154017909019 8.2191431578508976 #
straight-curve $-1 -39.230437998125709 4.2826088864087524 8.2191431578508976 0 1 0 I I #
point $-1 -39.230437998125709 11.667620143844108 8.2191431578508976 #
point $-1 -39.230437998125709 5.4628154017909019 8.2191431578508976 #
vertex $-1 $571 $631 #
straight-curve $-1 -43.623157444990383 11.667620143844108 36.769104171508161 0 0 -1 I I #
vertex $-1 $448 $632 #
point $-1 -39.486453261552192 8.5652177728175047 5.6439004607526275 #
edge $-1 $581 -27.188430339652818 $584 -19.663900701172466 $453 $633 forward 7 unknown #
vertex $-1 $457 $634 #
straight-curve $-1 43.623157444990383 -3.8892067146147049 62.410358999125897 0 0 1 I I #
edge $-1 $584 0.89684304429983186 $464 5.0878842963299142 $463 $635 forward 7 unknown #
vertex $-1 $583 $636 #
straight-curve $-1 -23.211396680704837 -3.8892067146147049 57.98616387255656 0.76604443648966558 0 -0.64278761758704617 I I #
point $-1 43.623157444990383 -3.8892067146147049 1.9053129811765999 #
point $-1 36.098627806510031 -8.0802479666447873 8.2191431578509011 #
straight-curve $-1 43.623157444990383 0 8.2191431578508976 0 1 0 I I #
vertex $-1 $470 $637 #
point $-1 39.409616117285537 -5.9847273406297461 4.1354867286273063 #
coedge $-1 $485 $484 $477 $592 forward $474 $-1 #
edge $-1 $593 -27.188430339652818 $596 -19.663900701172466 $591 $638 forward 7 unknown #
vertex $-1 $592 $639 #
straight-curve $-1 43.623157444990383 3.8892067146147014 62.410358999125897 0 0 1 I I #
edge $-1 $596 -2.9923636703148713 $486 1.1986775817152111 $485 $640 forward 7 unknown #
vertex $-1 $595 $641 #
straight-curve $-1 -23.211396680704837 3.8892067146147014 57.98616387255656 0.76604443648966558 0 -0.64278761758704617 I I #
point $-1 43.623157444990383 3.8892067146147014 1.9053129811765999 #
point $-1 36.098627806510031 -0.30183453741538102 8.2191431578509011 #
straight-curve $-1 43.623157444990383 0 8.2191431578508976 0 1 0 I I #
vertex $-1 $492 $642 #
point $-1 39.409616117285537 1.7936860885996602 4.1354867286273063 #
coedge $-1 $604 $498 $610 $643 reversed $335 $-1 #
coedge $-1 $498 $603 $501 $608 reversed $335 $-1 #
edge $-1 $606 -6.8815703849295744 $506 -2.690529132899492 $505 $644 forward 7 unknown #
vertex $-1 $643 $645 #
straight-curve $-1 -23.211396680704837 11.667620143844108 57.98616387255656 0.76604443648966558 0 -0.64278761758704617 I I #
edge $-1 $502 -60.505046017949297 $612 -54.191215841274996 $501 $646 forward 7 unknown #
point $-1 43.623157444990383 11.667620143844108 1.9053129811765999 #
coedge $-1 $505 $504 $603 $643 forward $496 $-1 #
point $-1 36.098627806510031 7.4765788918140252 8.2191431578509011 #
vertex $-1 $608 $647 #
straight-curve $-1 43.623157444990383 0 8.2191431578508976 0 1 0 I I #
vertex $-1 $512 $648 #
point $-1 39.409616117285537 9.5720995178290664 4.1354867286273063 #
straight-curve $-1 -43.623157444990383 20.628440198328715 0 0 0 -1 I I #
point $-1 -43.623157444990383 -20.628440198328715 -8.2191431578508976 #
straight-curve $-1 -43.623157444990383 0 -8.2191431578508976 0 1 0 I I #
point $-1 -43.623157444990383 20.628440198328715 -8.2191431578508976 #
straight-curve $-1 -43.623157444990383 -8.0740150855432056 3.3120048340858688 0 -1 0 I I #
point $-1 -43.623157444990383 -20.628440198328715 3.3120048340858688 #
point $-1 -43.623157444990383 -11.667620143844108 3.3120048340858688 #
straight-curve $-1 -43.623157444990383 -11.667620143844108 2.7577869979841916 0 0 -1 I I #
straight-curve $-1 -43.623157444990383 -20.628440198328715 0 0 0 -1 I I #
point $-1 -43.623157444990383 11.667620143844104 3.3120048340858688 #
straight-curve $-1 -43.623157444990383 8.0740150855432038 3.3120048340858688 0 -1 0 I I #
point $-1 -43.623157444990383 20.628440198328711 3.3120048340858688 #
straight-curve $-1 -43.623157444990383 20.628440198328715 0 0 0 -1 I I #
straight-curve $-1 -48.668676530242799 11.667620143844108 8.2191431578509011 -1 0 0 I I #
straight-curve $-1 -43.623157444990383 0 8.2191431578508976 0 -1 0 I I #
point $-1 -43.623157444990383 11.667620143844108 8.2191431578508976 #
point $-1 -39.658802526080486 8.5652177728175047 4.2402282301316188 #
straight-curve $-1 16.434727105337565 -3.8892067146147049 8.219143157850894 -1 0 0 I I #
point $-1 43.623157444990383 -3.8892067146147049 8.2191431578508976 #
straight-curve $-1 36.098627806510031 -2.992363670314873 8.2191431578509011 0 -1 0 I I #
point $-1 36.098627806510031 -3.8892067146147049 8.2191431578509011 #
point $-1 39.057408103766363 -5.9847273406297461 4.1046725239016517 #
straight-curve $-1 16.434727105337565 3.8892067146147014 8.219143157850894 -1 0 0 I I #
point $-1 43.623157444990383 3.8892067146147014 8.2191431578508976 #
straight-curve $-1 36.098627806510031 0.89684304429983008 8.2191431578509011 0 -1 0 I I #
point $-1 36.098627806510031 3.8892067146147014 8.2191431578509011 #
point $-1 39.057408103766363 1.7936860885996602 4.1046725239016517 #
edge $-1 $612 -27.188430339652818 $606 -19.663900701172466 $610 $649 forward 7 unknown #
straight-curve $-1 36.098627806510031 4.7860497589145332 8.2191431578509011 0 -1 0 I I #
point $-1 36.098627806510031 11.667620143844108 8.2191431578509011 #
straight-curve $-1 43.623157444990383 11.667620143844108 62.410358999125897 0 0 1 I I #
point $-1 43.623157444990383 11.667620143844108 8.2191431578508976 #
point $-1 39.057408103766363 9.5720995178290664 4.1046725239016517 #
straight-curve $-1 16.434727105337565 11.667620143844108 8.219143157850894 -1 0 0 I I #
End-of-ACIS-data 