500 0 10 0           
7 Unknown 11 ACIS 5.0 NT 24 Fri Mar 26 20:10:43 1999 
-1 9.9999999999999995e-007 1e-010 
body $-1 $10 $-1 $11 #
body $-1 $12 $-1 $13 #
body $-1 $14 $-1 $15 #
body $-1 $16 $-1 $17 #
body $-1 $18 $-1 $19 #
body $-1 $20 $-1 $21 #
body $-1 $22 $-1 $23 #
body $-1 $24 $-1 $25 #
body $-1 $26 $-1 $27 #
body $-1 $28 $-1 $29 #
lump $-1 $-1 $30 $0 #
transform $-1 1 0 0 0 1 0 0 0 1 76.834620197149576 51.851116645084069 20.59771248275403 1 rotate no_reflect no_shear #
lump $-1 $-1 $31 $1 #
transform $-1 1 0 0 0 1 0 0 0 1 76.834620197149576 51.851116645084069 20.59771248275403 1 rotate no_reflect no_shear #
lump $-1 $-1 $32 $2 #
transform $-1 1 0 0 0 1 0 0 0 1 76.834620197149576 51.851116645084069 20.59771248275403 1 rotate no_reflect no_shear #
lump $-1 $-1 $33 $3 #
transform $-1 1 0 0 0 1 0 0 0 1 76.834620197149576 51.851116645084069 20.59771248275403 1 rotate no_reflect no_shear #
lump $-1 $-1 $34 $4 #
transform $-1 1 0 0 0 1 0 0 0 1 76.834620197149576 51.851116645084069 20.59771248275403 1 rotate no_reflect no_shear #
lump $-1 $-1 $35 $5 #
transform $-1 1 0 0 0 1 0 0 0 1 76.834620197149576 51.851116645084069 20.59771248275403 1 rotate no_reflect no_shear #
lump $-1 $-1 $36 $6 #
transform $-1 1 0 0 0 1 0 0 0 1 76.834620197149576 51.851116645084069 20.59771248275403 1 rotate no_reflect no_shear #
lump $-1 $-1 $37 $7 #
transform $-1 1 0 0 0 1 0 0 0 1 76.834620197149576 51.851116645084069 20.59771248275403 1 rotate no_reflect no_shear #
lump $-1 $-1 $38 $8 #
transform $-1 1 0 0 0 1 0 0 0 1 76.834620197149576 51.851116645084069 20.59771248275403 1 rotate no_reflect no_shear #
lump $-1 $-1 $39 $9 #
transform $-1 1 0 0 0 1 0 0 0 1 76.834620197149576 51.851116645084069 20.59771248275403 1 rotate no_reflect no_shear #
shell $-1 $-1 $-1 $40 $-1 $10 #
shell $-1 $-1 $-1 $41 $-1 $12 #
shell $-1 $-1 $-1 $42 $-1 $14 #
shell $-1 $-1 $-1 $43 $-1 $16 #
shell $-1 $-1 $-1 $44 $-1 $18 #
shell $-1 $-1 $-1 $45 $-1 $20 #
shell $-1 $-1 $-1 $46 $-1 $22 #
shell $-1 $-1 $-1 $47 $-1 $24 #
shell $-1 $-1 $-1 $48 $-1 $26 #
shell $-1 $-1 $-1 $49 $-1 $28 #
face $-1 $50 $51 $30 $-1 $52 forward single #
face $-1 $53 $54 $31 $-1 $55 forward single #
face $-1 $56 $57 $32 $-1 $58 forward single #
face $-1 $59 $60 $33 $-1 $61 reversed single #
face $-1 $62 $63 $34 $-1 $64 forward single #
face $-1 $65 $66 $35 $-1 $67 reversed single #
face $-1 $68 $69 $36 $-1 $70 forward single #
face $-1 $71 $72 $37 $-1 $73 reversed single #
face $-1 $74 $75 $38 $-1 $76 forward single #
face $-1 $77 $78 $39 $-1 $79 forward single #
face $-1 $80 $81 $30 $-1 $82 reversed single #
loop $-1 $-1 $83 $40 #
plane-surface $-1 0 0 20.59771248275403 0 0 1 1 0 0 forward_v I I I I #
face $-1 $84 $85 $31 $-1 $86 forward single #
loop $-1 $-1 $87 $41 #
plane-surface $-1 0 -51.851116645084069 0 0 1 0 0 0 1 forward_v I I I I #
face $-1 $88 $89 $32 $-1 $90 forward single #
loop $-1 $-1 $91 $42 #
plane-surface $-1 0 51.851116645084069 0 0 -1 0 0 0 -1 forward_v I I I I #
face $-1 $92 $93 $33 $-1 $94 reversed single #
loop $-1 $-1 $95 $43 #
plane-surface $-1 114.57204036333073 -3.0832537937834879 215.48837519767542 0 -1 0 -0.81915205242281985 0 -0.57357642473473569 forward_v I I I I #
face $-1 $96 $97 $34 $-1 $98 forward single #
loop $-1 $99 $100 $44 #
cone-surface $-1 68.09252764665986 -10.417350220285989 9.6013522384412191 -0.81915205242281985 0 -0.57357642473473569 1.7207292742042071 0 -2.4574561572684597 1 I I 0 1 3 forward I I I I #
face $-1 $101 $102 $35 $-1 $103 reversed single #
loop $-1 $-1 $104 $45 #
plane-surface $-1 114.57204036333073 17.751446646788491 215.48837519767542 0 -1 0 -0.81915205242281985 0 -0.57357642473473569 forward_v I I I I #
face $-1 $105 $106 $36 $-1 $107 forward single #
loop $-1 $108 $109 $46 #
cone-surface $-1 68.09252764665986 10.417350220285989 9.6013522384412191 -0.81915205242281985 0 -0.57357642473473569 1.7207292742042071 0 -2.4574561572684597 1 I I 0 1 3 forward I I I I #
face $-1 $110 $111 $37 $-1 $112 reversed single #
loop $-1 $-1 $113 $47 #
plane-surface $-1 -197.92763539488351 -37.93799581766492 96.343457420910383 0 1 0 -0.78801076186113728 0 0.61566146476048833 forward_v I I I I #
face $-1 $114 $115 $38 $-1 $116 forward single #
loop $-1 $117 $118 $48 #
cone-surface $-1 -67.924590934711091 -35.46537446483417 9.9620907341515093 0.78801076186113728 0 -0.61566146476048833 0.61566146476048833 0 0.78801076186113728 1 I I 0 1 1 forward I I I I #
face $-1 $119 $120 $39 $-1 $121 forward single #
loop $-1 $122 $123 $49 #
cone-surface $-1 -67.924590934711091 -31.756442435588045 9.9620907341515093 0.78801076186113728 0 -0.61566146476048833 0.61566146476048833 0 0.78801076186113728 1 I I 0 1 1 forward I I I I #
face $-1 $124 $125 $30 $-1 $126 reversed single #
loop $-1 $-1 $127 $50 #
plane-surface $-1 0 0 -20.59771248275403 0 0 1 1 0 0 forward_v I I I I #
coedge $-1 $128 $129 $130 $131 forward $51 $-1 #
face $-1 $132 $133 $31 $-1 $134 reversed single #
loop $-1 $-1 $135 $53 #
plane-surface $-1 0 0 20.59771248275403 0 0 1 1 0 0 forward_v I I I I #
coedge $-1 $136 $137 $138 $139 forward $54 $-1 #
face $-1 $140 $141 $32 $-1 $142 reversed single #
loop $-1 $-1 $143 $56 #
plane-surface $-1 0 0 20.59771248275403 0 0 1 1 0 0 forward_v I I I I #
coedge $-1 $144 $145 $146 $147 forward $57 $-1 #
face $-1 $148 $149 $33 $-1 $150 reversed single #
loop $-1 $-1 $151 $59 #
plane-surface $-1 -11.306433299915113 -10.417350220285989 127.34732170061069 0.81915205242281985 0 0.57357642473473569 0.57357642473473569 0 -0.81915205242281985 forward_v I I I I #
coedge $-1 $152 $153 $154 $155 reversed $60 $-1 #
face $-1 $-1 $156 $34 $-1 $157 forward single #
loop $-1 $158 $159 $62 #
cone-surface $-1 64.818794356431113 -10.417350220285989 7.3090595797209268 -0.81915205242281985 0 -0.57357642473473569 0.86036463710210354 0 -1.2287280786342298 1 I I -0.70710678118654757 0.70710678118654757 1.5 forward I I I I #
loop $-1 $-1 $160 $44 #
coedge $-1 $100 $100 $161 $162 reversed $63 $-1 #
face $-1 $163 $164 $35 $-1 $165 reversed single #
loop $-1 $-1 $166 $65 #
plane-surface $-1 -11.306433299915113 10.417350220285989 127.34732170061069 0.81915205242281985 0 0.57357642473473569 0.57357642473473569 0 -0.81915205242281985 forward_v I I I I #
coedge $-1 $167 $168 $169 $170 reversed $66 $-1 #
face $-1 $-1 $171 $36 $-1 $172 forward single #
loop $-1 $173 $174 $68 #
cone-surface $-1 64.818794356431113 10.417350220285989 7.3090595797209268 -0.81915205242281985 0 -0.57357642473473569 0.86036463710210354 0 -1.2287280786342298 1 I I -0.70710678118654757 0.70710678118654757 1.5 forward I I I I #
loop $-1 $-1 $175 $46 #
coedge $-1 $109 $109 $176 $177 reversed $69 $-1 #
face $-1 $178 $179 $37 $-1 $180 reversed single #
loop $-1 $-1 $181 $71 #
plane-surface $-1 -76.83462019714959 -33.610908450211106 1.7352277911245721 -0.78801076186113728 0 0.61566146476048833 0.61566146476048833 0 0.78801076186113728 forward_v I I I I #
coedge $-1 $182 $183 $184 $185 reversed $72 $-1 #
face $-1 $-1 $186 $38 $-1 $187 forward single #
loop $-1 $188 $189 $74 #
cone-surface $-1 -65.989050172595213 -35.46537446483417 8.44988059898348 0.78801076186113728 0 -0.61566146476048833 0.30783073238024417 0 0.39400538093056864 1 I I -0.70710678118654624 0.70710678118654879 0.5 forward I I I I #
loop $-1 $-1 $190 $48 #
coedge $-1 $118 $118 $191 $192 reversed $75 $-1 #
face $-1 $-1 $193 $39 $-1 $194 forward single #
loop $-1 $195 $196 $77 #
cone-surface $-1 -65.989050172595213 -31.756442435588045 8.44988059898348 0.78801076186113728 0 -0.61566146476048833 0.30783073238024417 0 0.39400538093056864 1 I I -0.70710678118654624 0.70710678118654879 0.5 forward I I I I #
loop $-1 $-1 $197 $49 #
coedge $-1 $123 $123 $198 $199 reversed $78 $-1 #
face $-1 $200 $201 $30 $-1 $202 reversed single #
loop $-1 $-1 $203 $80 #
plane-surface $-1 0 -51.851116645084069 0 0 1 0 0 0 1 forward_v I I I I #
coedge $-1 $204 $205 $206 $207 forward $81 $-1 #
coedge $-1 $208 $83 $209 $210 forward $51 $-1 #
coedge $-1 $83 $208 $211 $212 forward $51 $-1 #
coedge $-1 $213 $214 $83 $131 reversed $215 $-1 #
edge $-1 $216 -51.851116645084069 $217 51.851116645084069 $130 $218 forward 7 unknown #
face $-1 $219 $220 $31 $-1 $221 reversed single #
loop $-1 $-1 $222 $84 #
plane-surface $-1 -76.834620197149576 0 0 1 0 0 0 0 -1 forward_v I I I I #
coedge $-1 $223 $224 $137 $225 forward $85 $-1 #
coedge $-1 $226 $87 $227 $228 reversed $54 $-1 #
coedge $-1 $87 $226 $135 $225 reversed $54 $-1 #
coedge $-1 $229 $230 $87 $139 reversed $231 $-1 #
edge $-1 $232 -20.59771248275403 $233 20.59771248275403 $138 $234 forward 7 unknown #
face $-1 $235 $236 $32 $-1 $237 reversed single #
loop $-1 $-1 $238 $88 #
plane-surface $-1 -72.311823433876555 65.764237472503211 0 0 -1 0 0 0 -1 forward_v I I I I #
coedge $-1 $239 $240 $144 $241 forward $89 $-1 #
coedge $-1 $242 $91 $143 $241 reversed $57 $-1 #
coedge $-1 $91 $242 $243 $244 reversed $57 $-1 #
coedge $-1 $245 $246 $91 $147 reversed $236 $-1 #
edge $-1 $247 -20.59771248275403 $248 20.59771248275403 $146 $249 forward 7 unknown #
face $-1 $250 $251 $33 $-1 $252 forward single #
loop $-1 $-1 $253 $92 #
plane-surface $-1 114.57204036333073 -17.751446646788491 215.48837519767542 0 1 0 0.81915205242281985 0 0.57357642473473569 forward_v I I I I #
coedge $-1 $254 $255 $256 $257 reversed $93 $-1 #
coedge $-1 $153 $95 $258 $259 reversed $60 $-1 #
coedge $-1 $95 $152 $254 $260 reversed $60 $-1 #
coedge $-1 $256 $261 $95 $155 forward $251 $-1 #
edge $-1 $262 -19.548600015484212 $263 -6.154425337693894 $154 $264 forward 7 unknown #
loop $-1 $-1 $161 $96 #
plane-surface $-1 -11.306433299915113 -10.417350220285989 127.34732170061069 0.81915205242281985 0 0.57357642473473569 0.57357642473473569 0 -0.81915205242281985 forward_v I I I I #
loop $-1 $-1 $265 $62 #
coedge $-1 $159 $159 $160 $266 reversed $97 $-1 #
coedge $-1 $160 $160 $159 $266 forward $99 $-1 #
coedge $-1 $161 $161 $100 $162 forward $156 $-1 #
edge $-1 $267 0 $267 6.2831853071796004 $161 $268 forward 7 unknown #
face $-1 $269 $270 $35 $-1 $271 reversed single #
loop $-1 $-1 $272 $101 #
plane-surface $-1 114.57204036333073 3.0832537937834879 215.48837519767542 0 1 0 0.81915205242281985 0 0.57357642473473569 forward_v I I I I #
coedge $-1 $273 $274 $275 $276 reversed $102 $-1 #
coedge $-1 $168 $104 $277 $278 reversed $66 $-1 #
coedge $-1 $104 $167 $273 $279 reversed $66 $-1 #
coedge $-1 $275 $280 $104 $170 forward $281 $-1 #
edge $-1 $282 -19.548600015484212 $283 -6.154425337693894 $169 $284 forward 7 unknown #
loop $-1 $-1 $176 $105 #
plane-surface $-1 -11.306433299915113 10.417350220285989 127.34732170061069 0.81915205242281985 0 0.57357642473473569 0.57357642473473569 0 -0.81915205242281985 forward_v I I I I #
loop $-1 $-1 $285 $68 #
coedge $-1 $174 $174 $175 $286 reversed $106 $-1 #
coedge $-1 $175 $175 $174 $286 forward $108 $-1 #
coedge $-1 $176 $176 $109 $177 forward $171 $-1 #
edge $-1 $287 0 $287 6.2831853071796004 $176 $288 forward 7 unknown #
face $-1 $289 $290 $37 $-1 $291 reversed single #
loop $-1 $-1 $292 $110 #
plane-surface $-1 -197.92763539488351 -29.283821082757292 96.343457420910383 0 -1 0 0.78801076186113728 0 -0.61566146476048833 forward_v I I I I #
coedge $-1 $293 $294 $295 $296 reversed $111 $-1 #
coedge $-1 $183 $113 $297 $298 reversed $72 $-1 #
coedge $-1 $113 $182 $293 $299 reversed $72 $-1 #
coedge $-1 $295 $300 $113 $185 forward $301 $-1 #
edge $-1 $302 22.129197500292179 $303 36.86618526279851 $184 $304 forward 7 unknown #
loop $-1 $-1 $191 $114 #
plane-surface $-1 -76.83462019714959 -33.610908450211106 1.7352277911245721 -0.78801076186113728 0 0.61566146476048833 0.61566146476048833 0 0.78801076186113728 forward_v I I I I #
loop $-1 $-1 $305 $74 #
coedge $-1 $189 $189 $190 $306 reversed $115 $-1 #
coedge $-1 $190 $190 $189 $306 forward $117 $-1 #
coedge $-1 $191 $191 $118 $192 forward $186 $-1 #
edge $-1 $307 0 $307 6.2831853071796004 $191 $308 forward 7 unknown #
loop $-1 $-1 $198 $119 #
plane-surface $-1 -76.83462019714959 -33.610908450211106 1.7352277911245721 -0.78801076186113728 0 0.61566146476048833 0.61566146476048833 0 0.78801076186113728 forward_v I I I I #
loop $-1 $-1 $309 $77 #
coedge $-1 $196 $196 $197 $310 reversed $120 $-1 #
coedge $-1 $197 $197 $196 $310 forward $122 $-1 #
coedge $-1 $198 $198 $123 $199 forward $193 $-1 #
edge $-1 $311 0 $311 6.2831853071796004 $198 $312 forward 7 unknown #
face $-1 $313 $314 $30 $-1 $315 reversed single #
loop $-1 $-1 $316 $124 #
plane-surface $-1 -76.834620197149576 0 0 1 0 0 0 0 -1 forward_v I I I I #
coedge $-1 $317 $211 $318 $319 forward $125 $-1 #
coedge $-1 $320 $127 $317 $321 forward $81 $-1 #
coedge $-1 $127 $320 $322 $323 forward $81 $-1 #
coedge $-1 $214 $213 $127 $207 reversed $215 $-1 #
edge $-1 $324 -51.851116645084069 $325 51.851116645084069 $206 $326 forward 7 unknown #
coedge $-1 $129 $128 $327 $328 forward $51 $-1 #
coedge $-1 $329 $330 $128 $210 reversed $314 $-1 #
edge $-1 $217 -76.834620197149576 $331 76.834620197149576 $209 $332 forward 7 unknown #
coedge $-1 $203 $333 $129 $212 reversed $125 $-1 #
edge $-1 $334 -76.834620197149576 $216 76.834620197149576 $211 $335 forward 7 unknown #
coedge $-1 $206 $130 $333 $336 forward $215 $-1 #
coedge $-1 $130 $206 $329 $337 reversed $215 $-1 #
loop $-1 $-1 $213 $313 #
vertex $-1 $131 $338 #
vertex $-1 $131 $339 #
straight-curve $-1 76.834620197149576 0 20.59771248275403 0 1 0 I I #
face $-1 $340 $231 $31 $-1 $341 reversed single #
loop $-1 $-1 $342 $132 #
plane-surface $-1 -72.311823433876555 -65.764237472503225 0 0 1 0 0 0 1 forward_v I I I I #
coedge $-1 $343 $344 $226 $345 forward $133 $-1 #
coedge $-1 $346 $135 $344 $347 forward $85 $-1 #
coedge $-1 $135 $346 $229 $348 forward $85 $-1 #
edge $-1 $232 67.789026670603533 $349 76.834620197149576 $135 $350 forward 7 unknown #
coedge $-1 $137 $136 $222 $345 reversed $54 $-1 #
coedge $-1 $351 $352 $136 $228 forward $353 $-1 #
edge $-1 $354 -76.834620197149576 $233 -67.789026670603533 $227 $355 forward 7 unknown #
coedge $-1 $356 $138 $224 $348 reversed $231 $-1 #
coedge $-1 $138 $356 $351 $357 reversed $231 $-1 #
loop $-1 $-1 $356 $219 #
vertex $-1 $225 $358 #
vertex $-1 $357 $359 #
straight-curve $-1 -67.789026670603533 -51.851116645084069 0 0 0 -1 I I #
face $-1 $360 $361 $32 $-1 $362 reversed single #
loop $-1 $-1 $146 $140 #
plane-surface $-1 -67.789026670603533 58.807677058793637 0 -1 0 0 0 0 1 forward_v I I I I #
coedge $-1 $363 $364 $365 $366 forward $141 $-1 #
coedge $-1 $367 $143 $246 $368 forward $89 $-1 #
coedge $-1 $143 $367 $369 $370 forward $89 $-1 #
edge $-1 $371 -76.834620197149576 $248 -67.789026670603533 $143 $372 forward 7 unknown #
coedge $-1 $145 $144 $373 $374 reversed $57 $-1 #
coedge $-1 $375 $376 $145 $244 forward $361 $-1 #
edge $-1 $247 67.789026670603533 $377 76.834620197149576 $243 $378 forward 7 unknown #
coedge $-1 $365 $146 $376 $379 reversed $236 $-1 #
coedge $-1 $146 $365 $239 $368 reversed $236 $-1 #
vertex $-1 $244 $380 #
vertex $-1 $368 $381 #
straight-curve $-1 -67.789026670603533 51.851116645084069 0 0 0 1 I I #
face $-1 $-1 $382 $33 $-1 $383 reversed single #
loop $-1 $-1 $154 $148 #
plane-surface $-1 0 0 20.59771248275403 0 0 1 1 0 0 forward_v I I I I #
coedge $-1 $384 $385 $386 $387 reversed $149 $-1 #
coedge $-1 $388 $151 $153 $260 forward $93 $-1 #
coedge $-1 $151 $388 $384 $389 forward $93 $-1 #
coedge $-1 $386 $154 $151 $257 forward $251 $-1 #
edge $-1 $263 -2.1254213163595068 $390 12.542771536645496 $256 $391 forward 7 unknown #
coedge $-1 $392 $393 $152 $259 forward $382 $-1 #
edge $-1 $394 -106.27533956147279 $262 -87.146475116083678 $258 $395 forward 7 unknown #
edge $-1 $263 130.31720899938119 $394 153.66924039429909 $153 $396 forward 7 unknown #
coedge $-1 $154 $386 $392 $397 forward $251 $-1 #
vertex $-1 $155 $398 #
vertex $-1 $155 $399 #
straight-curve $-1 57.286020181665364 -3.0832537937834879 20.597712482754034 -1 0 0 I I #
coedge $-1 $265 $265 $-1 $400 reversed $158 $-1 #
edge $-1 $401 0 $401 6.2831853071796004 $159 $402 forward 7 unknown #
vertex $-1 $162 $403 #
ellipse-curve $-1 70.137532858254431 -10.417350220285989 11.033280260059442 0.81915205242281985 0 0.57357642473473569 1.7207292742042071 0 -2.4574561572684597 1 I I #
face $-1 $-1 $281 $35 $-1 $404 forward single #
loop $-1 $-1 $405 $163 #
plane-surface $-1 76.834620197149576 0 0 -1 0 0 0 0 1 forward_v I I I I #
coedge $-1 $406 $407 $408 $409 reversed $164 $-1 #
coedge $-1 $410 $166 $168 $279 forward $102 $-1 #
coedge $-1 $166 $410 $406 $411 forward $102 $-1 #
coedge $-1 $408 $169 $166 $276 forward $281 $-1 #
edge $-1 $283 -12.542771536645496 $412 2.1254213163595068 $275 $413 forward 7 unknown #
coedge $-1 $414 $415 $167 $278 forward $270 $-1 #
edge $-1 $416 -106.27533956147279 $282 -87.146475116083678 $277 $417 forward 7 unknown #
edge $-1 $283 130.31720899938119 $416 153.66924039429909 $168 $418 forward 7 unknown #
coedge $-1 $169 $408 $414 $419 forward $281 $-1 #
loop $-1 $-1 $408 $269 #
vertex $-1 $278 $420 #
vertex $-1 $170 $421 #
straight-curve $-1 57.286020181665364 17.751446646788491 20.597712482754034 -1 0 0 I I #
coedge $-1 $285 $285 $-1 $422 reversed $173 $-1 #
edge $-1 $423 0 $423 6.2831853071796004 $174 $424 forward 7 unknown #
vertex $-1 $177 $425 #
ellipse-curve $-1 70.137532858254431 10.417350220285989 11.033280260059442 0.81915205242281985 0 0.57357642473473569 1.7207292742042071 0 -2.4574561572684597 1 I I #
face $-1 $-1 $301 $37 $-1 $426 forward single #
loop $-1 $-1 $427 $178 #
plane-surface $-1 -76.834620197149576 0 0 1 0 0 0 0 -1 forward_v I I I I #
coedge $-1 $428 $429 $430 $431 reversed $179 $-1 #
coedge $-1 $432 $181 $183 $299 forward $111 $-1 #
coedge $-1 $181 $432 $428 $433 forward $111 $-1 #
coedge $-1 $430 $184 $181 $296 forward $301 $-1 #
edge $-1 $303 -21.132541592559367 $434 -12.478366857651739 $295 $435 forward 7 unknown #
coedge $-1 $436 $437 $182 $298 forward $290 $-1 #
edge $-1 $438 -46.436500919330598 $302 -27.574016227701161 $297 $439 forward 7 unknown #
edge $-1 $303 -23.936836404467016 $438 -2.3096905769578348e-014 $183 $440 forward 7 unknown #
coedge $-1 $184 $430 $436 $441 forward $301 $-1 #
loop $-1 $-1 $430 $289 #
vertex $-1 $298 $442 #
vertex $-1 $185 $443 #
straight-curve $-1 -98.963817697441755 -37.93799581766492 20.597712482754034 1 0 0 I I #
coedge $-1 $305 $305 $-1 $444 reversed $188 $-1 #
edge $-1 $445 0 $445 6.2831853071796004 $189 $446 forward 7 unknown #
vertex $-1 $192 $447 #
ellipse-curve $-1 -69.466126315896418 -35.46537446483417 11.166470136939306 -0.78801076186113728 0 0.61566146476048833 0.61566146476048833 0 0.78801076186113728 1 I I #
coedge $-1 $309 $309 $-1 $448 reversed $195 $-1 #
edge $-1 $449 0 $449 6.2831853071796004 $196 $450 forward 7 unknown #
vertex $-1 $199 $451 #
ellipse-curve $-1 -69.466126315896418 -31.756442435588045 11.166470136939306 -0.78801076186113728 0 0.61566146476048833 0.61566146476048833 0 0.78801076186113728 1 I I #
face $-1 $-1 $215 $30 $-1 $452 reversed single #
loop $-1 $-1 $329 $200 #
plane-surface $-1 0 51.851116645084069 0 0 -1 0 0 0 -1 forward_v I I I I #
coedge $-1 $453 $327 $330 $454 forward $201 $-1 #
coedge $-1 $333 $203 $204 $321 reversed $125 $-1 #
coedge $-1 $327 $453 $203 $319 reversed $201 $-1 #
edge $-1 $334 -20.59771248275403 $455 20.59771248275403 $318 $456 forward 7 unknown #
coedge $-1 $205 $204 $453 $457 forward $81 $-1 #
edge $-1 $325 -76.834620197149576 $455 76.834620197149576 $317 $458 forward 7 unknown #
coedge $-1 $330 $329 $205 $323 reversed $314 $-1 #
edge $-1 $459 -76.834620197149576 $324 76.834620197149576 $322 $460 forward 7 unknown #
vertex $-1 $207 $461 #
vertex $-1 $336 $462 #
straight-curve $-1 76.834620197149576 0 -20.59771248275403 0 -1 0 I I #
coedge $-1 $316 $318 $208 $328 reversed $201 $-1 #
edge $-1 $331 -51.851116645084069 $334 51.851116645084069 $327 $463 forward 7 unknown #
coedge $-1 $322 $209 $214 $337 forward $314 $-1 #
coedge $-1 $209 $322 $316 $454 reversed $314 $-1 #
vertex $-1 $210 $464 #
straight-curve $-1 0 51.851116645084069 20.59771248275403 -1 0 0 I I #
coedge $-1 $211 $317 $213 $336 reversed $125 $-1 #
vertex $-1 $328 $465 #
straight-curve $-1 0 -51.851116645084069 20.59771248275403 1 0 0 I I #
edge $-1 $216 -20.59771248275403 $325 20.59771248275403 $213 $466 forward 7 unknown #
edge $-1 $217 -20.59771248275403 $324 20.59771248275403 $214 $467 forward 7 unknown #
point $-1 76.834620197149576 -51.851116645084069 20.59771248275403 #
point $-1 76.834620197149576 51.851116645084069 20.59771248275403 #
face $-1 $-1 $353 $31 $-1 $468 reversed single #
plane-surface $-1 -67.789026670603533 -58.807677058793644 0 -1 0 0 0 0 1 forward_v I I I I #
coedge $-1 $469 $470 $471 $472 forward $220 $-1 #
coedge $-1 $471 $222 $352 $473 reversed $133 $-1 #
coedge $-1 $222 $471 $223 $347 reversed $133 $-1 #
edge $-1 $349 -20.59771248275403 $354 20.59771248275403 $222 $474 forward 7 unknown #
coedge $-1 $224 $223 $470 $475 forward $85 $-1 #
edge $-1 $349 51.851116645084069 $476 65.764237472503225 $344 $477 forward 7 unknown #
edge $-1 $478 -6.9565604137095818 $232 6.9565604137095747 $229 $479 forward 7 unknown #
vertex $-1 $347 $480 #
straight-curve $-1 0 -51.851116645084069 20.59771248275403 -1 0 0 I I #
coedge $-1 $481 $227 $230 $357 forward $353 $-1 #
coedge $-1 $227 $481 $343 $473 forward $353 $-1 #
loop $-1 $-1 $227 $340 #
vertex $-1 $345 $482 #
straight-curve $-1 0 -51.851116645084069 -20.59771248275403 1 0 0 I I #
coedge $-1 $230 $229 $483 $484 forward $231 $-1 #
edge $-1 $233 -6.9565604137095747 $485 6.9565604137095818 $230 $486 forward 7 unknown #
point $-1 -67.789026670603533 -51.851116645084069 20.59771248275403 #
point $-1 -67.789026670603533 -51.851116645084069 -20.59771248275403 #
face $-1 $-1 $487 $32 $-1 $488 reversed single #
loop $-1 $-1 $243 $235 #
plane-surface $-1 0 0 -20.59771248275403 0 0 1 1 0 0 forward_v I I I I #
coedge $-1 $489 $238 $490 $491 reversed $141 $-1 #
coedge $-1 $238 $489 $367 $492 reversed $141 $-1 #
coedge $-1 $246 $245 $238 $366 reversed $236 $-1 #
edge $-1 $493 -20.59771248275403 $494 20.59771248275403 $365 $495 forward 7 unknown #
coedge $-1 $240 $239 $364 $492 forward $89 $-1 #
edge $-1 $248 -6.9565604137095747 $493 6.9565604137095747 $246 $496 forward 7 unknown #
coedge $-1 $497 $373 $240 $370 reversed $487 $-1 #
edge $-1 $498 -65.764237472503211 $371 -51.851116645084069 $369 $499 forward 7 unknown #
vertex $-1 $374 $500 #
straight-curve $-1 0 51.851116645084069 20.59771248275403 1 0 0 I I #
coedge $-1 $369 $501 $242 $374 forward $487 $-1 #
edge $-1 $377 -20.59771248275403 $371 20.59771248275403 $373 $502 forward 7 unknown #
coedge $-1 $490 $243 $501 $503 forward $361 $-1 #
coedge $-1 $243 $490 $245 $379 forward $361 $-1 #
vertex $-1 $503 $504 #
straight-curve $-1 0 51.851116645084069 -20.59771248275403 -1 0 0 I I #
edge $-1 $494 -6.9565604137095747 $247 6.9565604137095747 $245 $505 forward 7 unknown #
point $-1 -67.789026670603533 51.851116645084062 -20.59771248275403 #
point $-1 -67.789026670603533 51.851116645084062 20.59771248275403 #
loop $-1 $-1 $258 $250 #
plane-surface $-1 76.834620197149576 0 0 -1 0 0 0 0 1 forward_v I I I I #
coedge $-1 $385 $253 $255 $389 reversed $149 $-1 #
coedge $-1 $253 $384 $506 $507 reversed $149 $-1 #
coedge $-1 $261 $256 $253 $387 forward $251 $-1 #
edge $-1 $390 6.154425337693894 $508 19.548600015484212 $386 $509 forward 7 unknown #
coedge $-1 $255 $254 $393 $510 reversed $93 $-1 #
edge $-1 $511 -153.66924039429909 $390 -130.31720899938119 $384 $512 forward 7 unknown #
vertex $-1 $257 $513 #
straight-curve $-1 63.440445519359272 -5.2086751101429947 20.597712482754034 0 -1 0 I I #
coedge $-1 $506 $258 $261 $397 reversed $382 $-1 #
coedge $-1 $258 $506 $388 $510 forward $382 $-1 #
vertex $-1 $259 $514 #
straight-curve $-1 76.834620197149576 -3.0832537937834879 107.74418759883771 0 0 1 I I #
straight-curve $-1 -11.306433299915113 -3.0832537937834879 127.34732170061069 0.57357642473473569 0 -0.81915205242281985 I I #
edge $-1 $508 -17.751446646788491 $262 -3.0832537937834879 $392 $515 forward 7 unknown #
point $-1 76.834620197149576 -3.0832537937834879 20.59771248275403 #
point $-1 63.440445519359258 -3.0832537937834879 20.597712482754034 #
edge $-1 $516 1 $516 0 $265 $-1 forward 7 unknown #
vertex $-1 $266 $517 #
ellipse-curve $-1 66.047522435065346 -10.417350220285989 8.16942421682303 0.81915205242281985 0 0.57357642473473569 1.7207292742042071 0 -2.4574561572684597 1 I I #
point $-1 71.858262132458592 -10.417350220285989 8.5758241027909499 #
plane-surface $-1 0 0 20.59771248275403 0 0 1 1 0 0 forward_v I I I I #
coedge $-1 $415 $414 $407 $518 forward $270 $-1 #
coedge $-1 $407 $272 $274 $411 reversed $164 $-1 #
coedge $-1 $272 $406 $405 $518 reversed $164 $-1 #
coedge $-1 $280 $275 $272 $409 forward $281 $-1 #
edge $-1 $412 6.154425337693894 $519 19.548600015484212 $408 $520 forward 7 unknown #
coedge $-1 $274 $273 $415 $521 reversed $102 $-1 #
edge $-1 $522 -153.66924039429909 $412 -130.31720899938119 $406 $523 forward 7 unknown #
vertex $-1 $276 $524 #
straight-curve $-1 63.440445519359272 5.2086751101429947 20.597712482754034 0 -1 0 I I #
coedge $-1 $405 $277 $280 $419 reversed $270 $-1 #
coedge $-1 $277 $405 $410 $521 forward $270 $-1 #
vertex $-1 $278 $525 #
straight-curve $-1 76.834620197149576 17.751446646788491 107.74418759883771 0 0 1 I I #
straight-curve $-1 -11.306433299915113 17.751446646788491 127.34732170061069 0.57357642473473569 0 -0.81915205242281985 I I #
edge $-1 $519 3.0832537937834879 $282 17.751446646788491 $414 $526 forward 7 unknown #
point $-1 76.834620197149576 17.751446646788491 20.59771248275403 #
point $-1 63.440445519359258 17.751446646788491 20.597712482754034 #
edge $-1 $527 1 $527 0 $285 $-1 forward 7 unknown #
vertex $-1 $286 $528 #
ellipse-curve $-1 66.047522435065346 10.417350220285989 8.16942421682303 0.81915205242281985 0 0.57357642473473569 1.7207292742042071 0 -2.4574561572684597 1 I I #
point $-1 71.858262132458592 10.417350220285989 8.5758241027909499 #
plane-surface $-1 0 0 20.59771248275403 0 0 1 1 0 0 forward_v I I I I #
coedge $-1 $437 $436 $429 $529 forward $290 $-1 #
coedge $-1 $429 $292 $294 $433 reversed $179 $-1 #
coedge $-1 $292 $428 $427 $529 reversed $179 $-1 #
coedge $-1 $300 $295 $292 $431 forward $301 $-1 #
edge $-1 $434 -36.86618526279851 $530 -22.129197500292179 $430 $531 forward 7 unknown #
coedge $-1 $294 $293 $437 $532 reversed $111 $-1 #
edge $-1 $533 2.3096905769578348e-014 $434 23.936836404467016 $428 $534 forward 7 unknown #
vertex $-1 $296 $535 #
straight-curve $-1 -62.097632434643245 -16.805454225105553 20.59771248275403 0 1 0 I I #
coedge $-1 $427 $297 $300 $441 reversed $290 $-1 #
coedge $-1 $297 $427 $432 $532 forward $290 $-1 #
vertex $-1 $298 $536 #
straight-curve $-1 -76.834620197149576 -37.93799581766492 48.171728710455191 0 0 1 I I #
straight-curve $-1 -76.83462019714959 -37.93799581766492 1.7352277911245721 -0.61566146476048833 0 -0.78801076186113728 I I #
edge $-1 $530 29.283821082757292 $302 37.93799581766492 $436 $537 forward 7 unknown #
point $-1 -76.834620197149576 -37.93799581766492 20.59771248275403 #
point $-1 -62.097632434643245 -37.93799581766492 20.59771248275403 #
edge $-1 $538 1 $538 0 $305 $-1 forward 7 unknown #
vertex $-1 $306 $539 #
ellipse-curve $-1 -66.383055553525779 -35.46537446483417 8.7577113313637245 -0.78801076186113728 0 0.61566146476048833 0.61566146476048833 0 0.78801076186113728 1 I I #
point $-1 -68.850464851135911 -35.46537446483417 11.95448089880043 #
edge $-1 $540 1 $540 0 $309 $-1 forward 7 unknown #
vertex $-1 $310 $541 #
ellipse-curve $-1 -66.383055553525779 -31.756442435588045 8.7577113313637245 -0.78801076186113728 0 0.61566146476048833 0.61566146476048833 0 0.78801076186113728 1 I I #
point $-1 -68.850464851135911 -31.756442435588045 11.95448089880043 #
plane-surface $-1 76.834620197149576 0 0 -1 0 0 0 0 1 forward_v I I I I #
coedge $-1 $318 $316 $320 $457 reversed $201 $-1 #
edge $-1 $331 -20.59771248275403 $459 20.59771248275403 $330 $542 forward 7 unknown #
vertex $-1 $457 $543 #
straight-curve $-1 -76.834620197149576 -51.851116645084069 0 0 0 -1 I I #
edge $-1 $455 -51.851116645084069 $459 51.851116645084069 $453 $544 forward 7 unknown #
straight-curve $-1 0 -51.851116645084069 -20.59771248275403 -1 0 0 I I #
vertex $-1 $323 $545 #
straight-curve $-1 0 51.851116645084069 -20.59771248275403 1 0 0 I I #
point $-1 76.834620197149576 51.851116645084069 -20.59771248275403 #
point $-1 76.834620197149576 -51.851116645084069 -20.59771248275403 #
straight-curve $-1 -76.834620197149576 0 20.59771248275403 0 -1 0 I I #
point $-1 -76.834620197149576 51.851116645084069 20.59771248275403 #
point $-1 -76.834620197149576 -51.851116645084069 20.59771248275403 #
straight-curve $-1 76.834620197149576 -51.851116645084069 0 0 0 -1 I I #
straight-curve $-1 76.834620197149576 51.851116645084069 0 0 0 -1 I I #
plane-surface $-1 0 0 -20.59771248275403 0 0 1 1 0 0 forward_v I I I I #
coedge $-1 $483 $342 $481 $546 reversed $220 $-1 #
coedge $-1 $342 $483 $346 $475 reversed $220 $-1 #
coedge $-1 $344 $343 $342 $472 reversed $133 $-1 #
edge $-1 $476 -20.59771248275403 $547 20.59771248275403 $471 $548 forward 7 unknown #
edge $-1 $547 -65.764237472503225 $354 -51.851116645084069 $343 $549 forward 7 unknown #
straight-curve $-1 -76.834620197149576 -51.851116645084069 0 0 0 -1 I I #
edge $-1 $476 -4.5227967632730213 $478 4.5227967632730213 $470 $550 forward 7 unknown #
vertex $-1 $347 $551 #
straight-curve $-1 -76.834620197149576 0 20.59771248275403 0 -1 0 I I #
vertex $-1 $348 $552 #
straight-curve $-1 -67.789026670603533 -58.807677058793644 20.59771248275403 0 1 0 I I #
point $-1 -76.834620197149576 -51.851116645084069 20.59771248275403 #
coedge $-1 $352 $351 $469 $546 forward $353 $-1 #
point $-1 -76.834620197149576 -51.851116645084069 -20.59771248275403 #
coedge $-1 $470 $469 $356 $484 reversed $220 $-1 #
edge $-1 $478 -20.59771248275403 $485 20.59771248275403 $356 $553 forward 7 unknown #
vertex $-1 $484 $554 #
straight-curve $-1 -67.789026670603533 -58.807677058793644 -20.59771248275403 0 -1 0 I I #
loop $-1 $-1 $373 $360 #
plane-surface $-1 -76.834620197149576 0 0 1 0 0 0 0 -1 forward_v I I I I #
coedge $-1 $364 $363 $497 $555 reversed $141 $-1 #
coedge $-1 $376 $375 $363 $491 forward $361 $-1 #
edge $-1 $556 -4.5227967632730213 $494 4.5227967632730213 $363 $557 forward 7 unknown #
edge $-1 $493 -4.5227967632730213 $498 4.5227967632730213 $364 $558 forward 7 unknown #
vertex $-1 $368 $559 #
vertex $-1 $379 $560 #
straight-curve $-1 -67.789026670603533 65.764237472503211 0 0 0 -1 I I #
straight-curve $-1 -67.789026670603533 58.807677058793637 20.59771248275403 0 1 0 I I #
coedge $-1 $501 $369 $489 $555 forward $487 $-1 #
vertex $-1 $492 $561 #
straight-curve $-1 -76.834620197149576 0 20.59771248275403 0 -1 0 I I #
point $-1 -76.834620197149576 51.851116645084069 20.59771248275403 #
coedge $-1 $373 $497 $375 $503 reversed $487 $-1 #
straight-curve $-1 -76.834620197149576 51.851116645084069 0 0 0 1 I I #
edge $-1 $377 -6.9565604137095676 $556 6.9565604137095747 $501 $562 forward 7 unknown #
point $-1 -76.834620197149576 51.851116645084069 -20.59771248275403 #
straight-curve $-1 -67.789026670603533 58.807677058793637 -20.59771248275403 0 -1 0 I I #
coedge $-1 $393 $392 $385 $507 forward $382 $-1 #
edge $-1 $508 87.146475116083678 $511 106.27533956147279 $506 $563 forward 7 unknown #
vertex $-1 $397 $564 #
straight-curve $-1 57.286020181665364 -17.751446646788491 20.597712482754034 1 0 0 I I #
edge $-1 $511 -12.542771536645496 $394 2.1254213163595068 $393 $565 forward 7 unknown #
vertex $-1 $510 $566 #
straight-curve $-1 -11.306433299915113 -17.751446646788491 127.34732170061069 -0.57357642473473569 0 0.81915205242281985 I I #
point $-1 63.440445519359258 -17.751446646788491 20.597712482754034 #
point $-1 76.834620197149576 -3.0832537937834879 1.4688480373649213 #
straight-curve $-1 76.834620197149576 0 20.59771248275403 0 1 0 I I #
vertex $-1 $400 $567 #
point $-1 67.768251709269549 -10.417350220285989 5.7119680595545708 #
edge $-1 $519 87.146475116083678 $522 106.27533956147279 $405 $568 forward 7 unknown #
vertex $-1 $419 $569 #
straight-curve $-1 57.286020181665364 3.0832537937834879 20.597712482754034 1 0 0 I I #
edge $-1 $522 -2.1254213163595068 $416 12.542771536645496 $415 $570 forward 7 unknown #
vertex $-1 $521 $571 #
straight-curve $-1 -11.306433299915113 3.0832537937834879 127.34732170061069 -0.57357642473473569 0 0.81915205242281985 I I #
point $-1 63.440445519359258 3.0832537937834879 20.597712482754034 #
point $-1 76.834620197149576 17.751446646788491 1.4688480373649213 #
straight-curve $-1 76.834620197149576 0 20.59771248275403 0 1 0 I I #
vertex $-1 $422 $572 #
point $-1 67.768251709269549 10.417350220285989 5.7119680595545708 #
edge $-1 $530 27.574016227701161 $533 46.436500919330598 $427 $573 forward 7 unknown #
vertex $-1 $441 $574 #
straight-curve $-1 -98.963817697441755 -29.283821082757292 20.597712482754034 -1 0 0 I I #
edge $-1 $533 12.478366857651739 $438 21.132541592559367 $437 $575 forward 7 unknown #
vertex $-1 $532 $576 #
straight-curve $-1 -76.83462019714959 -29.283821082757292 1.7352277911245721 0.61566146476048833 0 0.78801076186113728 I I #
point $-1 -62.097632434643245 -29.283821082757292 20.59771248275403 #
point $-1 -76.834620197149576 -37.93799581766492 1.7352277911245904 #
straight-curve $-1 -76.834620197149576 0 20.59771248275403 0 -1 0 I I #
vertex $-1 $444 $577 #
point $-1 -65.7673940887653 -35.46537446483417 9.5457220932248621 #
vertex $-1 $448 $578 #
point $-1 -65.7673940887653 -31.756442435588045 9.5457220932248621 #
straight-curve $-1 -76.834620197149576 51.851116645084069 0 0 0 -1 I I #
point $-1 -76.834620197149576 -51.851116645084069 -20.59771248275403 #
straight-curve $-1 -76.834620197149576 0 -20.59771248275403 0 1 0 I I #
point $-1 -76.834620197149576 51.851116645084069 -20.59771248275403 #
edge $-1 $485 -4.5227967632730213 $547 4.5227967632730213 $469 $579 forward 7 unknown #
vertex $-1 $473 $580 #
straight-curve $-1 -76.834620197149576 -65.764237472503225 0 0 0 -1 I I #
straight-curve $-1 -76.834620197149576 0 -20.59771248275403 0 1 0 I I #
straight-curve $-1 -72.311823433876555 -65.764237472503225 20.59771248275403 1 0 0 I I #
point $-1 -76.834620197149576 -65.764237472503225 20.59771248275403 #
point $-1 -67.789026670603533 -65.764237472503225 20.59771248275403 #
straight-curve $-1 -67.789026670603533 -65.764237472503225 0 0 0 -1 I I #
point $-1 -67.789026670603533 -65.764237472503225 -20.59771248275403 #
edge $-1 $498 -20.59771248275403 $556 20.59771248275403 $489 $581 forward 7 unknown #
vertex $-1 $491 $582 #
straight-curve $-1 -72.311823433876555 65.764237472503211 -20.59771248275403 1 0 0 I I #
straight-curve $-1 -72.311823433876555 65.764237472503211 20.59771248275403 -1 0 0 I I #
point $-1 -67.789026670603533 65.764237472503211 20.59771248275403 #
point $-1 -67.789026670603533 65.764237472503211 -20.59771248275403 #
point $-1 -76.834620197149576 65.764237472503211 20.59771248275403 #
straight-curve $-1 -76.834620197149576 58.807677058793637 -20.59771248275403 0 1 0 I I #
straight-curve $-1 76.834620197149576 -17.751446646788491 107.74418759883771 0 0 -1 I I #
point $-1 76.834620197149576 -17.751446646788491 20.59771248275403 #
straight-curve $-1 76.834620197149576 -5.2086751101429947 1.4688480373649071 0 1 0 I I #
point $-1 76.834620197149576 -17.751446646788491 1.4688480373649213 #
point $-1 63.590066277796886 -10.417350220285989 6.4486949426188236 #
straight-curve $-1 76.834620197149576 3.0832537937834879 107.74418759883771 0 0 -1 I I #
point $-1 76.834620197149576 3.0832537937834879 20.59771248275403 #
straight-curve $-1 76.834620197149576 5.2086751101429947 1.4688480373649071 0 1 0 I I #
point $-1 76.834620197149576 3.0832537937834879 1.4688480373649213 #
point $-1 63.590066277796886 10.417350220285989 6.4486949426188236 #
straight-curve $-1 -76.834620197149576 -29.283821082757292 48.171728710455191 0 0 -1 I I #
point $-1 -76.834620197149576 -29.283821082757292 20.59771248275403 #
straight-curve $-1 -76.834620197149576 -16.805454225105553 1.7352277911245881 0 -1 0 I I #
point $-1 -76.834620197149576 -29.283821082757292 1.7352277911245904 #
point $-1 -65.595044791664648 -35.46537446483417 8.1420498666032355 #
point $-1 -65.595044791664648 -31.756442435588045 8.1420498666032355 #
straight-curve $-1 -72.311823433876555 -65.764237472503225 -20.59771248275403 -1 0 0 I I #
point $-1 -76.834620197149576 -65.764237472503225 -20.59771248275403 #
straight-curve $-1 -76.834620197149576 65.764237472503211 0 0 0 -1 I I #
point $-1 -76.834620197149576 65.764237472503211 -20.59771248275403 #
End-of-ACIS-data 