500 0 4 0           
7 Unknown 11 ACIS 5.0 NT 24 Fri Mar 26 17:16:53 1999 
-1 9.9999999999999995e-007 1e-010 
body $-1 $4 $-1 $5 #
body $-1 $6 $-1 $7 #
body $-1 $8 $-1 $9 #
body $-1 $10 $-1 $11 #
lump $-1 $-1 $12 $0 #
transform $-1 1 0 0 0 1 0 0 0 1 65.316934720908222 41.763608591713989 11.015921283526868 1 rotate no_reflect no_shear #
lump $-1 $-1 $13 $1 #
transform $-1 1 0 0 0 1 0 0 0 1 65.316934720908222 41.763608591713989 11.015921283526868 1 rotate no_reflect no_shear #
lump $-1 $-1 $14 $2 #
transform $-1 1 0 0 0 1 0 0 0 1 65.316934720908222 41.763608591713989 11.015921283526868 1 rotate no_reflect no_shear #
lump $-1 $-1 $15 $3 #
transform $-1 1 0 0 0 1 0 0 0 1 65.316934720908222 41.763608591713989 11.015921283526868 1 rotate no_reflect no_shear #
shell $-1 $-1 $-1 $16 $-1 $4 #
shell $-1 $-1 $-1 $17 $-1 $6 #
shell $-1 $-1 $-1 $18 $-1 $8 #
shell $-1 $-1 $-1 $19 $-1 $10 #
face $-1 $20 $21 $12 $-1 $22 forward single #
face $-1 $23 $24 $13 $-1 $25 forward single #
face $-1 $26 $27 $14 $-1 $28 forward single #
face $-1 $29 $30 $15 $-1 $31 reversed single #
face $-1 $32 $33 $12 $-1 $34 reversed single #
loop $-1 $-1 $35 $16 #
plane-surface $-1 0 0 11.015921283526868 0 0 1 1 0 0 forward_v I I I I #
face $-1 $36 $37 $13 $-1 $38 forward single #
loop $-1 $-1 $39 $17 #
plane-surface $-1 -60.871800196474084 0 8.0159212835268683 0 0 1 1 0 0 forward_v I I I I #
face $-1 $40 $41 $14 $-1 $42 forward single #
loop $-1 $-1 $43 $18 #
plane-surface $-1 -47.815314305135772 -34.95400039984564 72.410586813935822 0.50000000669873634 0 0.8660253999169214 0.8660253999169214 0 -0.50000000669873634 forward_v I I I I #
face $-1 $44 $45 $15 $-1 $46 reversed single #
loop $-1 $47 $48 $19 #
cone-surface $-1 61.614277498968434 -34.95400039984564 8.5250008220631148 -0.50000000669873634 0 -0.8660253999169214 0.8660253999169214 0 -0.50000000669873634 1 I I 0 1 1 forward I I I I #
face $-1 $49 $50 $12 $-1 $51 reversed single #
loop $-1 $-1 $52 $20 #
plane-surface $-1 0 0 -11.015921283526868 0 0 1 1 0 0 forward_v I I I I #
coedge $-1 $53 $54 $55 $56 forward $21 $-1 #
face $-1 $57 $58 $13 $-1 $59 forward single #
loop $-1 $-1 $60 $23 #
plane-surface $-1 -56.426665672039945 0 9.5159212835268683 -1 0 0 0 0 1 forward_v I I I I #
coedge $-1 $61 $62 $63 $64 reversed $24 $-1 #
face $-1 $65 $66 $14 $-1 $67 reversed single #
loop $-1 $-1 $68 $26 #
plane-surface $-1 17.501621290854303 -28.144392207977287 185.5428358399798 0 -1 0 -0.50000000669873634 0 -0.8660253999169214 forward_v I I I I #
coedge $-1 $69 $70 $71 $72 reversed $27 $-1 #
face $-1 $73 $74 $15 $-1 $75 forward single #
loop $-1 $76 $77 $29 #
cone-surface $-1 61.058405730297977 -34.95400039984564 7.5622026934314555 -0.50000000669873634 0 -0.8660253999169214 0.4330126999584607 0 -0.25000000334936817 1 I I -0.70710678118654746 0.70710678118654746 0.5 forward I I I I #
loop $-1 $-1 $78 $19 #
coedge $-1 $48 $48 $79 $80 reversed $30 $-1 #
face $-1 $81 $82 $12 $-1 $83 reversed single #
loop $-1 $-1 $84 $32 #
plane-surface $-1 0 -41.763608591713989 0 0 1 0 0 0 1 forward_v I I I I #
coedge $-1 $85 $86 $87 $88 forward $33 $-1 #
coedge $-1 $89 $35 $90 $91 forward $21 $-1 #
coedge $-1 $35 $89 $92 $93 forward $21 $-1 #
coedge $-1 $94 $95 $35 $56 reversed $96 $-1 #
edge $-1 $97 -41.763608591713989 $98 41.763608591713989 $55 $99 forward 7 unknown #
face $-1 $100 $101 $13 $-1 $102 reversed single #
loop $-1 $-1 $103 $36 #
plane-surface $-1 0 0 11.015921283526868 0 0 1 1 0 0 forward_v I I I I #
coedge $-1 $104 $63 $105 $106 reversed $37 $-1 #
coedge $-1 $107 $39 $108 $109 reversed $24 $-1 #
coedge $-1 $39 $107 $110 $111 reversed $24 $-1 #
coedge $-1 $60 $112 $39 $64 forward $37 $-1 #
edge $-1 $113 -41.763608591713989 $114 41.763608591713989 $63 $115 forward 7 unknown #
face $-1 $116 $117 $14 $-1 $118 reversed single #
loop $-1 $-1 $119 $40 #
plane-surface $-1 65.316934720908222 0 0 -1 0 0 0 0 1 forward_v I I I I #
coedge $-1 $120 $121 $119 $122 reversed $41 $-1 #
coedge $-1 $123 $43 $121 $124 reversed $27 $-1 #
coedge $-1 $43 $123 $125 $126 reversed $27 $-1 #
coedge $-1 $127 $119 $43 $72 forward $66 $-1 #
edge $-1 $128 10.667392008054467 $129 24.286608391791169 $71 $130 forward 7 unknown #
face $-1 $131 $132 $15 $-1 $133 forward single #
loop $-1 $134 $79 $44 #
plane-surface $-1 -47.815314305135772 -34.95400039984564 72.410586813935822 0.50000000669873634 0 0.8660253999169214 0.8660253999169214 0 -0.50000000669873634 forward_v I I I I #
loop $-1 $-1 $135 $29 #
coedge $-1 $77 $77 $78 $136 forward $45 $-1 #
coedge $-1 $78 $78 $77 $136 reversed $47 $-1 #
coedge $-1 $79 $79 $48 $80 forward $74 $-1 #
edge $-1 $137 0 $137 6.2831853071796004 $79 $138 forward 7 unknown #
face $-1 $139 $140 $12 $-1 $141 reversed single #
loop $-1 $-1 $142 $49 #
plane-surface $-1 -65.316934720908222 0 0 1 0 0 0 0 -1 forward_v I I I I #
coedge $-1 $143 $92 $144 $145 forward $50 $-1 #
coedge $-1 $146 $52 $143 $147 forward $33 $-1 #
coedge $-1 $52 $146 $148 $149 forward $33 $-1 #
coedge $-1 $95 $94 $52 $88 reversed $96 $-1 #
edge $-1 $150 -41.763608591713989 $151 41.763608591713989 $87 $152 forward 7 unknown #
coedge $-1 $54 $53 $153 $154 forward $21 $-1 #
coedge $-1 $155 $156 $53 $91 reversed $140 $-1 #
edge $-1 $98 -65.316934720908222 $157 65.316934720908222 $90 $158 forward 7 unknown #
coedge $-1 $84 $159 $54 $93 reversed $50 $-1 #
edge $-1 $160 -65.316934720908222 $97 65.316934720908222 $92 $161 forward 7 unknown #
coedge $-1 $87 $55 $159 $162 forward $96 $-1 #
coedge $-1 $55 $87 $155 $163 reversed $96 $-1 #
loop $-1 $-1 $94 $139 #
vertex $-1 $56 $164 #
vertex $-1 $56 $165 #
straight-curve $-1 65.316934720908222 0 11.015921283526868 0 1 0 I I #
face $-1 $166 $167 $13 $-1 $168 reversed single #
loop $-1 $-1 $105 $57 #
plane-surface $-1 0 -41.763608591713989 0 0 1 0 0 0 1 forward_v I I I I #
coedge $-1 $169 $170 $104 $171 forward $58 $-1 #
coedge $-1 $112 $60 $103 $171 reversed $37 $-1 #
coedge $-1 $110 $172 $60 $106 forward $101 $-1 #
edge $-1 $173 -6.2579606417634341 $114 -3.2579606417634341 $105 $174 forward 7 unknown #
coedge $-1 $62 $61 $175 $176 reversed $24 $-1 #
coedge $-1 $177 $178 $61 $109 forward $179 $-1 #
edge $-1 $180 -34.88103462267118 $113 -25.990765573802904 $108 $181 forward 7 unknown #
coedge $-1 $182 $105 $62 $111 forward $101 $-1 #
edge $-1 $114 25.990765573802904 $183 34.88103462267118 $110 $184 forward 7 unknown #
coedge $-1 $63 $104 $177 $185 reversed $37 $-1 #
vertex $-1 $109 $186 #
vertex $-1 $111 $187 #
straight-curve $-1 -56.426665672039945 0 8.0159212835268683 0 -1 0 I I #
face $-1 $188 $189 $14 $-1 $190 forward single #
loop $-1 $-1 $125 $65 #
plane-surface $-1 0 -41.763608591713989 0 0 1 0 0 0 1 forward_v I I I I #
coedge $-1 $71 $191 $68 $122 forward $66 $-1 #
coedge $-1 $121 $68 $192 $193 reversed $41 $-1 #
coedge $-1 $68 $120 $69 $124 forward $41 $-1 #
edge $-1 $194 81.755496636463036 $128 85.677766702044153 $119 $195 forward 7 unknown #
coedge $-1 $70 $69 $196 $197 reversed $27 $-1 #
edge $-1 $198 122.78932941575124 $128 130.63386944181644 $121 $199 forward 7 unknown #
coedge $-1 $200 $201 $70 $126 forward $117 $-1 #
edge $-1 $129 -91.826584149173527 $202 -83.982044123108309 $125 $203 forward 7 unknown #
coedge $-1 $204 $71 $201 $205 forward $66 $-1 #
vertex $-1 $72 $206 #
vertex $-1 $205 $207 #
straight-curve $-1 65.316934720908222 -17.47700019992282 7.093651217945748 0 -1 0 I I #
face $-1 $208 $209 $15 $-1 $210 reversed single #
loop $-1 $-1 $211 $73 #
plane-surface $-1 17.501621290854303 -28.144392207977287 185.5428358399798 0 -1 0 -0.50000000669873634 0 -0.8660253999169214 forward_v I I I I #
loop $-1 $-1 $212 $44 #
coedge $-1 $135 $135 $-1 $213 forward $76 $-1 #
edge $-1 $214 0 $214 6.2831853071796004 $77 $215 forward 7 unknown #
vertex $-1 $80 $216 #
ellipse-curve $-1 61.920149264289513 -34.95400039984564 9.0547862507362975 -0.50000000669873634 0 -0.8660253999169214 0.8660253999169214 0 -0.50000000669873634 1 I I #
face $-1 $-1 $96 $12 $-1 $217 reversed single #
loop $-1 $-1 $155 $81 #
plane-surface $-1 0 41.763608591713989 0 0 -1 0 0 0 -1 forward_v I I I I #
coedge $-1 $218 $153 $156 $219 forward $82 $-1 #
coedge $-1 $159 $84 $85 $147 reversed $50 $-1 #
coedge $-1 $153 $218 $84 $145 reversed $82 $-1 #
edge $-1 $160 -11.015921283526868 $220 11.015921283526868 $144 $221 forward 7 unknown #
coedge $-1 $86 $85 $218 $222 forward $33 $-1 #
edge $-1 $151 -65.316934720908222 $220 65.316934720908222 $143 $223 forward 7 unknown #
coedge $-1 $156 $155 $86 $149 reversed $140 $-1 #
edge $-1 $224 -65.316934720908222 $150 65.316934720908222 $148 $225 forward 7 unknown #
vertex $-1 $88 $226 #
vertex $-1 $162 $227 #
straight-curve $-1 65.316934720908222 0 -11.015921283526868 0 -1 0 I I #
coedge $-1 $142 $144 $89 $154 reversed $82 $-1 #
edge $-1 $157 -41.763608591713989 $160 41.763608591713989 $153 $228 forward 7 unknown #
coedge $-1 $148 $90 $95 $163 forward $140 $-1 #
coedge $-1 $90 $148 $142 $219 reversed $140 $-1 #
vertex $-1 $91 $229 #
straight-curve $-1 0 41.763608591713989 11.015921283526868 -1 0 0 I I #
coedge $-1 $92 $143 $94 $162 reversed $50 $-1 #
vertex $-1 $154 $230 #
straight-curve $-1 0 -41.763608591713989 11.015921283526868 1 0 0 I I #
edge $-1 $97 -11.015921283526868 $151 11.015921283526868 $94 $231 forward 7 unknown #
edge $-1 $98 -11.015921283526868 $150 11.015921283526868 $95 $232 forward 7 unknown #
point $-1 65.316934720908222 -41.763608591713989 11.015921283526868 #
point $-1 65.316934720908222 41.763608591713989 11.015921283526868 #
face $-1 $233 $234 $13 $-1 $235 reversed single #
loop $-1 $-1 $236 $100 #
plane-surface $-1 0 0 -11.015921283526868 0 0 1 1 0 0 forward_v I I I I #
coedge $-1 $237 $103 $172 $238 forward $58 $-1 #
coedge $-1 $103 $237 $239 $240 forward $58 $-1 #
edge $-1 $241 -41.763608591713989 $173 41.763608591713989 $103 $242 forward 7 unknown #
coedge $-1 $105 $243 $169 $238 reversed $101 $-1 #
vertex $-1 $238 $244 #
straight-curve $-1 -56.426665672039945 -41.763608591713989 4.7579606417634341 0 0 -1 I I #
coedge $-1 $245 $246 $107 $176 forward $234 $-1 #
edge $-1 $183 -41.763608591713989 $180 41.763608591713989 $175 $247 forward 7 unknown #
coedge $-1 $239 $108 $112 $185 forward $179 $-1 #
coedge $-1 $108 $248 $245 $249 reversed $179 $-1 #
loop $-1 $-1 $177 $233 #
vertex $-1 $249 $250 #
straight-curve $-1 -30.435900098237042 41.763608591713989 8.0159212835268683 1 0 0 I I #
coedge $-1 $251 $110 $246 $252 forward $101 $-1 #
vertex $-1 $252 $253 #
straight-curve $-1 -30.435900098237042 -41.763608591713989 8.0159212835268683 -1 0 0 I I #
edge $-1 $113 3.2579606417634341 $241 6.2579606417634341 $177 $254 forward 7 unknown #
point $-1 -56.426665672039945 41.763608591713989 8.0159212835268683 #
point $-1 -56.426665672039945 -41.763608591713989 8.0159212835268683 #
face $-1 $255 $256 $14 $-1 $257 forward single #
loop $-1 $-1 $258 $116 #
plane-surface $-1 -60.871800196474084 0 8.0159212835268683 0 0 1 1 0 0 forward_v I I I I #
coedge $-1 $119 $259 $260 $261 reversed $66 $-1 #
coedge $-1 $260 $196 $120 $193 forward $262 $-1 #
edge $-1 $198 49.772553162243639 $194 56.566124075481071 $192 $263 forward 7 unknown #
vertex $-1 $261 $264 #
straight-curve $-1 65.316934720908222 -28.144392207977287 92.771417919989901 0 0 -1 I I #
coedge $-1 $192 $265 $123 $197 forward $262 $-1 #
edge $-1 $202 -24.286608391791169 $198 -10.667392008054467 $196 $266 forward 7 unknown #
vertex $-1 $197 $267 #
straight-curve $-1 -47.815314305135772 -28.144392207977287 72.410586813935822 0.8660253999169214 0 -0.50000000669873634 I I #
coedge $-1 $268 $125 $265 $269 reversed $117 $-1 #
coedge $-1 $125 $270 $127 $205 reversed $117 $-1 #
vertex $-1 $197 $271 #
straight-curve $-1 -14.207219539884626 -41.763608591713989 53.006943907654588 -0.8660253999169214 0 0.50000000669873634 I I #
coedge $-1 $259 $127 $272 $273 reversed $66 $-1 #
edge $-1 $129 -7.0936512179457392 $274 11.015921283526868 $127 $275 forward 7 unknown #
point $-1 65.316934720908208 -28.144392207977287 7.093651217945748 #
point $-1 65.316934720908222 -41.763608591713989 7.0936512179457392 #
face $-1 $276 $277 $15 $-1 $278 reversed single #
loop $-1 $-1 $279 $131 #
plane-surface $-1 65.316934720908222 0 0 -1 0 0 0 0 1 forward_v I I I I #
coedge $-1 $280 $281 $279 $282 reversed $132 $-1 #
coedge $-1 $283 $284 $285 $286 reversed $134 $-1 #
edge $-1 $287 1 $287 0 $135 $-1 forward 7 unknown #
vertex $-1 $136 $288 #
ellipse-curve $-1 61.308405733647348 -34.95400039984564 7.9952153933899162 0.50000000669873634 0 0.8660253999169214 0.8660253999169214 0 -0.50000000669873634 1 I I #
point $-1 62.786174664206449 -34.95400039984564 8.5547862440375777 #
plane-surface $-1 65.316934720908222 0 0 -1 0 0 0 0 1 forward_v I I I I #
coedge $-1 $144 $142 $146 $222 reversed $82 $-1 #
edge $-1 $157 -11.015921283526868 $224 11.015921283526868 $156 $289 forward 7 unknown #
vertex $-1 $222 $290 #
straight-curve $-1 -65.316934720908222 -41.763608591713989 0 0 0 -1 I I #
edge $-1 $220 -41.763608591713989 $224 41.763608591713989 $218 $291 forward 7 unknown #
straight-curve $-1 0 -41.763608591713989 -11.015921283526868 -1 0 0 I I #
vertex $-1 $149 $292 #
straight-curve $-1 0 41.763608591713989 -11.015921283526868 1 0 0 I I #
point $-1 65.316934720908222 41.763608591713989 -11.015921283526868 #
point $-1 65.316934720908222 -41.763608591713989 -11.015921283526868 #
straight-curve $-1 -65.316934720908222 0 11.015921283526868 0 -1 0 I I #
point $-1 -65.316934720908222 41.763608591713989 11.015921283526868 #
point $-1 -65.316934720908222 -41.763608591713989 11.015921283526868 #
straight-curve $-1 65.316934720908222 -41.763608591713989 0 0 0 -1 I I #
straight-curve $-1 65.316934720908222 41.763608591713989 0 0 0 -1 I I #
face $-1 $293 $179 $13 $-1 $294 reversed single #
loop $-1 $-1 $175 $166 #
plane-surface $-1 -65.316934720908222 0 0 1 0 0 0 0 -1 forward_v I I I I #
coedge $-1 $295 $296 $297 $298 forward $167 $-1 #
coedge $-1 $170 $169 $299 $300 forward $58 $-1 #
edge $-1 $173 -56.426665672039945 $301 65.316934720908222 $172 $302 forward 7 unknown #
coedge $-1 $303 $177 $170 $240 reversed $179 $-1 #
edge $-1 $304 -65.316934720908222 $241 56.426665672039945 $239 $305 forward 7 unknown #
vertex $-1 $171 $306 #
straight-curve $-1 -56.426665672039945 0 11.015921283526868 0 -1 0 I I #
coedge $-1 $172 $251 $307 $308 reversed $101 $-1 #
point $-1 -56.426665672039945 -41.763608591713989 11.015921283526868 #
coedge $-1 $309 $175 $178 $249 forward $234 $-1 #
coedge $-1 $175 $309 $182 $252 reversed $234 $-1 #
straight-curve $-1 -65.316934720908222 0 8.0159212835268683 0 1 0 I I #
coedge $-1 $178 $303 $296 $310 reversed $179 $-1 #
edge $-1 $180 -8.0159212835268683 $311 11.015921283526868 $178 $312 forward 7 unknown #
point $-1 -65.316934720908222 41.763608591713989 8.0159212835268683 #
coedge $-1 $243 $182 $295 $313 reversed $101 $-1 #
edge $-1 $183 -8.0159212835268683 $314 11.015921283526868 $246 $315 forward 7 unknown #
point $-1 -65.316934720908222 -41.763608591713989 8.0159212835268683 #
straight-curve $-1 -56.426665672039945 41.763608591713989 4.7579606417634341 0 0 1 I I #
face $-1 $316 $262 $14 $-1 $317 forward single #
loop $-1 $-1 $318 $188 #
plane-surface $-1 -56.426665672039945 0 9.5159212835268683 -1 0 0 0 0 1 forward_v I I I I #
coedge $-1 $319 $320 $321 $322 reversed $189 $-1 #
coedge $-1 $191 $204 $323 $324 reversed $66 $-1 #
coedge $-1 $325 $192 $191 $261 forward $262 $-1 #
edge $-1 $194 -28.144392207977287 $326 41.763608591713989 $191 $327 forward 7 unknown #
loop $-1 $-1 $192 $255 #
straight-curve $-1 8.7508106454271513 -28.144392207977287 11.015921283526865 1 0 0 I I #
point $-1 65.316934720908222 -28.144392207977287 11.015921283526868 #
coedge $-1 $196 $328 $200 $269 forward $262 $-1 #
straight-curve $-1 58.523363807670776 -17.47700019992282 11.015921283526872 0 1 0 I I #
point $-1 58.52336380767079 -28.144392207977287 11.015921283526865 #
coedge $-1 $329 $200 $318 $330 forward $117 $-1 #
edge $-1 $331 -56.426665672039945 $202 58.52336380767079 $200 $332 forward 7 unknown #
coedge $-1 $201 $333 $334 $335 reversed $117 $-1 #
point $-1 58.52336380767079 -41.763608591713989 11.015921283526865 #
coedge $-1 $334 $336 $204 $273 forward $337 $-1 #
edge $-1 $338 -41.763608591713989 $274 41.763608591713989 $204 $339 forward 7 unknown #
vertex $-1 $205 $340 #
straight-curve $-1 65.316934720908222 -41.763608591713989 0 0 0 -1 I I #
face $-1 $341 $342 $15 $-1 $343 forward single #
loop $-1 $-1 $344 $208 #
plane-surface $-1 0 -41.763608591713989 0 0 1 0 0 0 1 forward_v I I I I #
coedge $-1 $285 $345 $211 $282 forward $209 $-1 #
coedge $-1 $281 $211 $346 $347 reversed $132 $-1 #
coedge $-1 $211 $280 $283 $348 forward $132 $-1 #
edge $-1 $349 81.755496636463036 $350 85.677766702044153 $279 $351 forward 7 unknown #
coedge $-1 $352 $212 $281 $348 reversed $134 $-1 #
coedge $-1 $212 $352 $344 $353 reversed $134 $-1 #
coedge $-1 $354 $279 $212 $286 forward $209 $-1 #
edge $-1 $350 10.667392008054467 $355 24.286608391791169 $285 $356 forward 7 unknown #
vertex $-1 $213 $357 #
point $-1 62.174431133564269 -34.95400039984564 7.4952153866911795 #
straight-curve $-1 -65.316934720908222 41.763608591713989 0 0 0 -1 I I #
point $-1 -65.316934720908222 -41.763608591713989 -11.015921283526868 #
straight-curve $-1 -65.316934720908222 0 -11.015921283526868 0 1 0 I I #
point $-1 -65.316934720908222 41.763608591713989 -11.015921283526868 #
face $-1 $-1 $358 $13 $-1 $359 reversed single #
plane-surface $-1 0 41.763608591713989 0 0 -1 0 0 0 -1 forward_v I I I I #
coedge $-1 $360 $236 $251 $313 forward $167 $-1 #
coedge $-1 $236 $360 $248 $310 forward $167 $-1 #
coedge $-1 $361 $307 $236 $298 reversed $358 $-1 #
edge $-1 $362 -41.763608591713989 $363 41.763608591713989 $297 $364 forward 7 unknown #
coedge $-1 $307 $361 $237 $300 reversed $358 $-1 #
edge $-1 $301 -41.763608591713989 $304 41.763608591713989 $299 $365 forward 7 unknown #
vertex $-1 $300 $366 #
straight-curve $-1 0 -41.763608591713989 11.015921283526868 1 0 0 I I #
coedge $-1 $248 $239 $361 $367 forward $179 $-1 #
vertex $-1 $300 $368 #
straight-curve $-1 0 41.763608591713989 11.015921283526868 -1 0 0 I I #
point $-1 -56.426665672039945 41.763608591713989 11.015921283526868 #
coedge $-1 $297 $299 $243 $308 forward $358 $-1 #
edge $-1 $301 -11.015921283526868 $363 11.015921283526868 $307 $369 forward 7 unknown #
coedge $-1 $246 $245 $360 $370 reversed $234 $-1 #
edge $-1 $311 -65.316934720908222 $362 65.316934720908222 $248 $371 forward 7 unknown #
vertex $-1 $310 $372 #
straight-curve $-1 -65.316934720908222 41.763608591713989 0 0 0 -1 I I #
edge $-1 $363 -65.316934720908222 $314 65.316934720908222 $251 $373 forward 7 unknown #
vertex $-1 $370 $374 #
straight-curve $-1 -65.316934720908222 -41.763608591713989 0 0 0 -1 I I #
face $-1 $375 $337 $14 $-1 $376 reversed single #
plane-surface $-1 0 0 11.015921283526868 0 0 1 1 0 0 forward_v I I I I #
coedge $-1 $377 $321 $268 $330 reversed $256 $-1 #
coedge $-1 $378 $258 $379 $380 reversed $189 $-1 #
coedge $-1 $258 $378 $329 $381 reversed $189 $-1 #
coedge $-1 $318 $382 $258 $322 forward $256 $-1 #
edge $-1 $383 -41.763608591713989 $384 41.763608591713989 $321 $385 forward 7 unknown #
coedge $-1 $386 $387 $259 $324 forward $388 $-1 #
edge $-1 $326 -11.015921283526868 $338 11.015921283526868 $259 $389 forward 7 unknown #
coedge $-1 $328 $260 $387 $390 forward $262 $-1 #
vertex $-1 $261 $391 #
straight-curve $-1 65.316934720908222 0 11.015921283526868 0 1 0 I I #
coedge $-1 $265 $325 $377 $392 forward $262 $-1 #
coedge $-1 $333 $268 $320 $381 forward $117 $-1 #
edge $-1 $331 -6.2579606417634341 $384 -3.2579606417634341 $268 $393 forward 7 unknown #
vertex $-1 $269 $394 #
straight-curve $-1 0 -41.763608591713989 11.015921283526868 1 0 0 I I #
coedge $-1 $270 $329 $395 $396 forward $117 $-1 #
coedge $-1 $397 $272 $270 $335 forward $337 $-1 #
edge $-1 $274 -65.316934720908222 $398 65.316934720908222 $270 $399 forward 7 unknown #
coedge $-1 $272 $397 $386 $400 forward $337 $-1 #
loop $-1 $-1 $272 $316 #
vertex $-1 $273 $401 #
straight-curve $-1 65.316934720908222 0 -11.015921283526868 0 -1 0 I I #
point $-1 65.316934720908222 -41.763608591713989 -11.015921283526868 #
face $-1 $402 $403 $15 $-1 $404 forward single #
loop $-1 $-1 $405 $276 #
plane-surface $-1 -60.871800196474084 0 8.0159212835268683 0 0 1 1 0 0 forward_v I I I I #
coedge $-1 $406 $407 $284 $353 forward $277 $-1 #
coedge $-1 $279 $408 $409 $410 reversed $209 $-1 #
coedge $-1 $409 $411 $280 $347 forward $412 $-1 #
edge $-1 $413 49.772553162243639 $349 56.566124075481071 $346 $414 forward 7 unknown #
edge $-1 $413 122.78932941575124 $350 130.63386944181644 $281 $415 forward 7 unknown #
vertex $-1 $410 $416 #
vertex $-1 $286 $417 #
straight-curve $-1 65.316934720908222 -28.144392207977287 92.771417919989901 0 0 -1 I I #
coedge $-1 $284 $283 $411 $418 reversed $134 $-1 #
edge $-1 $355 -91.826584149173527 $419 -83.982044123108309 $344 $420 forward 7 unknown #
coedge $-1 $421 $285 $407 $422 forward $209 $-1 #
vertex $-1 $422 $423 #
straight-curve $-1 65.316934720908222 -17.47700019992282 7.093651217945748 0 -1 0 I I #
point $-1 60.808405726948607 -34.95400039984564 7.1291899934729948 #
loop $-1 $-1 $307 $293 #
plane-surface $-1 65.316934720908222 0 0 -1 0 0 0 0 1 forward_v I I I I #
coedge $-1 $296 $295 $309 $370 forward $167 $-1 #
coedge $-1 $299 $297 $303 $367 reversed $358 $-1 #
vertex $-1 $298 $424 #
vertex $-1 $308 $425 #
straight-curve $-1 65.316934720908222 0 -11.015921283526868 0 -1 0 I I #
straight-curve $-1 65.316934720908222 0 11.015921283526868 0 1 0 I I #
point $-1 65.316934720908222 -41.763608591713989 11.015921283526868 #
edge $-1 $304 -11.015921283526868 $362 11.015921283526868 $361 $426 forward 7 unknown #
point $-1 65.316934720908222 41.763608591713989 11.015921283526868 #
straight-curve $-1 65.316934720908222 -41.763608591713989 0 0 0 -1 I I #
edge $-1 $314 -41.763608591713989 $311 41.763608591713989 $309 $427 forward 7 unknown #
straight-curve $-1 0 41.763608591713989 -11.015921283526868 1 0 0 I I #
point $-1 -65.316934720908222 41.763608591713989 -11.015921283526868 #
straight-curve $-1 0 -41.763608591713989 -11.015921283526868 -1 0 0 I I #
point $-1 -65.316934720908222 -41.763608591713989 -11.015921283526868 #
face $-1 $428 $429 $14 $-1 $430 reversed single #
plane-surface $-1 0 0 -11.015921283526868 0 0 1 1 0 0 forward_v I I I I #
coedge $-1 $382 $318 $328 $392 reversed $256 $-1 #
coedge $-1 $320 $319 $431 $432 reversed $189 $-1 #
coedge $-1 $433 $434 $319 $380 forward $388 $-1 #
edge $-1 $435 -34.88103462267118 $383 -25.990765573802904 $379 $436 forward 7 unknown #
edge $-1 $384 25.990765573802904 $437 34.88103462267118 $329 $438 forward 7 unknown #
coedge $-1 $321 $377 $433 $439 reversed $256 $-1 #
vertex $-1 $380 $440 #
vertex $-1 $381 $441 #
straight-curve $-1 -56.426665672039945 0 8.0159212835268683 0 -1 0 I I #
coedge $-1 $434 $323 $336 $400 reversed $388 $-1 #
coedge $-1 $323 $433 $325 $390 reversed $388 $-1 #
loop $-1 $-1 $433 $428 #
straight-curve $-1 65.316934720908222 41.763608591713989 0 0 0 -1 I I #
edge $-1 $326 -65.316934720908222 $442 56.426665672039945 $387 $443 forward 7 unknown #
point $-1 65.316934720908222 41.763608591713989 11.015921283526868 #
edge $-1 $442 -41.763608591713989 $331 41.763608591713989 $328 $444 forward 7 unknown #
straight-curve $-1 -56.426665672039945 -41.763608591713989 4.7579606417634341 0 0 -1 I I #
point $-1 -56.426665672039945 -41.763608591713989 11.015921283526868 #
coedge $-1 $431 $445 $333 $396 reversed $429 $-1 #
edge $-1 $437 -8.0159212835268683 $398 11.015921283526868 $395 $446 forward 7 unknown #
coedge $-1 $336 $334 $445 $447 forward $337 $-1 #
vertex $-1 $447 $448 #
straight-curve $-1 0 -41.763608591713989 -11.015921283526868 -1 0 0 I I #
edge $-1 $449 -65.316934720908222 $338 65.316934720908222 $386 $450 forward 7 unknown #
point $-1 65.316934720908222 41.763608591713989 -11.015921283526868 #
face $-1 $451 $412 $15 $-1 $452 forward single #
loop $-1 $-1 $453 $341 #
plane-surface $-1 -56.426665672039945 0 9.5159212835268683 -1 0 0 0 0 1 forward_v I I I I #
coedge $-1 $454 $455 $456 $457 reversed $342 $-1 #
coedge $-1 $458 $344 $459 $460 reversed $277 $-1 #
coedge $-1 $344 $461 $354 $422 reversed $277 $-1 #
coedge $-1 $345 $421 $462 $463 reversed $209 $-1 #
coedge $-1 $464 $346 $345 $410 forward $412 $-1 #
edge $-1 $349 -28.144392207977287 $465 41.763608591713989 $345 $466 forward 7 unknown #
coedge $-1 $346 $459 $352 $418 forward $412 $-1 #
loop $-1 $-1 $346 $402 #
vertex $-1 $418 $467 #
straight-curve $-1 8.7508106454271513 -28.144392207977287 11.015921283526865 1 0 0 I I #
straight-curve $-1 -47.815314305135772 -28.144392207977287 72.410586813935822 0.8660253999169214 0 -0.50000000669873634 I I #
point $-1 65.316934720908222 -28.144392207977287 11.015921283526868 #
point $-1 65.316934720908208 -28.144392207977287 7.093651217945748 #
edge $-1 $419 -24.286608391791169 $413 -10.667392008054467 $411 $468 forward 7 unknown #
vertex $-1 $418 $469 #
straight-curve $-1 -14.207219539884626 -41.763608591713989 53.006943907654588 -0.8660253999169214 0 0.50000000669873634 I I #
coedge $-1 $408 $354 $470 $471 reversed $209 $-1 #
edge $-1 $355 -7.0936512179457392 $472 11.015921283526868 $354 $473 forward 7 unknown #
point $-1 65.316934720908222 -41.763608591713989 7.0936512179457392 #
point $-1 65.316934720908222 41.763608591713989 -11.015921283526868 #
point $-1 65.316934720908222 -41.763608591713989 -11.015921283526868 #
straight-curve $-1 65.316934720908222 41.763608591713989 0 0 0 -1 I I #
straight-curve $-1 -65.316934720908222 0 -11.015921283526868 0 1 0 I I #
face $-1 $-1 $388 $14 $-1 $474 reversed single #
loop $-1 $-1 $431 $375 #
plane-surface $-1 -65.316934720908222 0 0 1 0 0 0 0 -1 forward_v I I I I #
coedge $-1 $475 $395 $378 $432 forward $429 $-1 #
edge $-1 $437 -41.763608591713989 $435 41.763608591713989 $431 $476 forward 7 unknown #
coedge $-1 $387 $379 $382 $439 forward $388 $-1 #
coedge $-1 $379 $386 $475 $477 reversed $388 $-1 #
vertex $-1 $477 $478 #
straight-curve $-1 -30.435900098237042 41.763608591713989 8.0159212835268683 1 0 0 I I #
vertex $-1 $396 $479 #
straight-curve $-1 -30.435900098237042 -41.763608591713989 8.0159212835268683 -1 0 0 I I #
edge $-1 $383 3.2579606417634341 $442 6.2579606417634341 $433 $480 forward 7 unknown #
point $-1 -56.426665672039945 41.763608591713989 8.0159212835268683 #
point $-1 -56.426665672039945 -41.763608591713989 8.0159212835268683 #
vertex $-1 $392 $481 #
straight-curve $-1 0 41.763608591713989 11.015921283526868 -1 0 0 I I #
straight-curve $-1 -56.426665672039945 0 11.015921283526868 0 -1 0 I I #
coedge $-1 $395 $475 $397 $447 reversed $429 $-1 #
straight-curve $-1 -65.316934720908222 -41.763608591713989 0 0 0 -1 I I #
edge $-1 $398 -41.763608591713989 $449 41.763608591713989 $445 $482 forward 7 unknown #
point $-1 -65.316934720908222 -41.763608591713989 -11.015921283526868 #
vertex $-1 $400 $483 #
straight-curve $-1 0 41.763608591713989 -11.015921283526868 1 0 0 I I #
face $-1 $484 $485 $15 $-1 $486 reversed single #
plane-surface $-1 0 0 11.015921283526868 0 0 1 1 0 0 forward_v I I I I #
coedge $-1 $487 $456 $458 $488 reversed $403 $-1 #
coedge $-1 $489 $405 $490 $491 reversed $342 $-1 #
coedge $-1 $405 $489 $492 $493 reversed $342 $-1 #
coedge $-1 $453 $494 $405 $457 forward $403 $-1 #
edge $-1 $495 -41.763608591713989 $496 41.763608591713989 $456 $497 forward 7 unknown #
coedge $-1 $492 $406 $453 $488 forward $277 $-1 #
coedge $-1 $411 $498 $406 $460 forward $412 $-1 #
edge $-1 $499 -56.426665672039945 $419 58.52336380767079 $406 $500 forward 7 unknown #
coedge $-1 $407 $501 $502 $503 reversed $277 $-1 #
coedge $-1 $504 $505 $408 $463 forward $506 $-1 #
edge $-1 $465 -11.015921283526868 $507 11.015921283526868 $408 $508 forward 7 unknown #
coedge $-1 $498 $409 $505 $509 forward $412 $-1 #
vertex $-1 $410 $510 #
straight-curve $-1 65.316934720908222 0 11.015921283526868 0 1 0 I I #
point $-1 58.52336380767079 -28.144392207977287 11.015921283526865 #
straight-curve $-1 58.523363807670776 -17.47700019992282 11.015921283526872 0 1 0 I I #
point $-1 58.52336380767079 -41.763608591713989 11.015921283526865 #
coedge $-1 $502 $511 $421 $471 forward $485 $-1 #
edge $-1 $507 -41.763608591713989 $472 41.763608591713989 $421 $512 forward 7 unknown #
vertex $-1 $422 $513 #
straight-curve $-1 65.316934720908222 -41.763608591713989 0 0 0 -1 I I #
plane-surface $-1 0 41.763608591713989 0 0 -1 0 0 0 -1 forward_v I I I I #
coedge $-1 $445 $431 $434 $477 forward $429 $-1 #
straight-curve $-1 -65.316934720908222 0 8.0159212835268683 0 1 0 I I #
edge $-1 $435 -8.0159212835268683 $449 11.015921283526868 $434 $514 forward 7 unknown #
point $-1 -65.316934720908222 41.763608591713989 8.0159212835268683 #
point $-1 -65.316934720908222 -41.763608591713989 8.0159212835268683 #
straight-curve $-1 -56.426665672039945 41.763608591713989 4.7579606417634341 0 0 1 I I #
point $-1 -56.426665672039945 41.763608591713989 11.015921283526868 #
straight-curve $-1 -65.316934720908222 0 -11.015921283526868 0 1 0 I I #
point $-1 -65.316934720908222 41.763608591713989 -11.015921283526868 #
face $-1 $515 $516 $15 $-1 $517 reversed single #
loop $-1 $-1 $470 $451 #
plane-surface $-1 0 0 -11.015921283526868 0 0 1 1 0 0 forward_v I I I I #
coedge $-1 $494 $453 $498 $518 reversed $403 $-1 #
edge $-1 $499 -6.2579606417634341 $496 -3.2579606417634341 $458 $519 forward 7 unknown #
coedge $-1 $455 $454 $520 $521 reversed $342 $-1 #
coedge $-1 $522 $523 $454 $491 forward $506 $-1 #
edge $-1 $524 -34.88103462267118 $495 -25.990765573802904 $490 $525 forward 7 unknown #
coedge $-1 $501 $458 $455 $493 forward $277 $-1 #
edge $-1 $496 25.990765573802904 $526 34.88103462267118 $492 $527 forward 7 unknown #
coedge $-1 $456 $487 $522 $528 reversed $403 $-1 #
vertex $-1 $491 $529 #
vertex $-1 $493 $530 #
straight-curve $-1 -56.426665672039945 0 8.0159212835268683 0 -1 0 I I #
coedge $-1 $459 $464 $487 $518 forward $412 $-1 #
vertex $-1 $460 $531 #
straight-curve $-1 0 -41.763608591713989 11.015921283526868 1 0 0 I I #
coedge $-1 $461 $492 $532 $533 forward $277 $-1 #
coedge $-1 $534 $470 $461 $503 forward $485 $-1 #
edge $-1 $472 -65.316934720908222 $535 65.316934720908222 $461 $536 forward 7 unknown #
coedge $-1 $523 $462 $511 $537 reversed $506 $-1 #
coedge $-1 $462 $522 $464 $509 reversed $506 $-1 #
loop $-1 $-1 $522 $515 #
vertex $-1 $471 $538 #
straight-curve $-1 65.316934720908222 41.763608591713989 0 0 0 -1 I I #
edge $-1 $465 -65.316934720908222 $539 56.426665672039945 $505 $540 forward 7 unknown #
point $-1 65.316934720908222 41.763608591713989 11.015921283526868 #
coedge $-1 $470 $534 $504 $537 forward $485 $-1 #
straight-curve $-1 65.316934720908222 0 -11.015921283526868 0 -1 0 I I #
point $-1 65.316934720908222 -41.763608591713989 -11.015921283526868 #
straight-curve $-1 -65.316934720908222 41.763608591713989 0 0 0 -1 I I #
face $-1 $-1 $506 $15 $-1 $541 reversed single #
loop $-1 $-1 $520 $484 #
plane-surface $-1 -65.316934720908222 0 0 1 0 0 0 0 -1 forward_v I I I I #
edge $-1 $539 -41.763608591713989 $499 41.763608591713989 $498 $542 forward 7 unknown #
straight-curve $-1 -56.426665672039945 -41.763608591713989 4.7579606417634341 0 0 -1 I I #
coedge $-1 $543 $532 $489 $521 forward $516 $-1 #
edge $-1 $526 -41.763608591713989 $524 41.763608591713989 $520 $544 forward 7 unknown #
coedge $-1 $505 $490 $494 $528 forward $506 $-1 #
coedge $-1 $490 $504 $543 $545 reversed $506 $-1 #
vertex $-1 $545 $546 #
straight-curve $-1 -30.435900098237042 41.763608591713989 8.0159212835268683 1 0 0 I I #
vertex $-1 $533 $547 #
straight-curve $-1 -30.435900098237042 -41.763608591713989 8.0159212835268683 -1 0 0 I I #
edge $-1 $495 3.2579606417634341 $539 6.2579606417634341 $522 $548 forward 7 unknown #
point $-1 -56.426665672039945 41.763608591713989 8.0159212835268683 #
point $-1 -56.426665672039945 -41.763608591713989 8.0159212835268683 #
point $-1 -56.426665672039945 -41.763608591713989 11.015921283526868 #
coedge $-1 $520 $549 $501 $533 reversed $516 $-1 #
edge $-1 $526 -8.0159212835268683 $535 11.015921283526868 $532 $550 forward 7 unknown #
coedge $-1 $511 $502 $549 $551 forward $485 $-1 #
vertex $-1 $551 $552 #
straight-curve $-1 0 -41.763608591713989 -11.015921283526868 -1 0 0 I I #
edge $-1 $553 -65.316934720908222 $507 65.316934720908222 $504 $554 forward 7 unknown #
point $-1 65.316934720908222 41.763608591713989 -11.015921283526868 #
vertex $-1 $518 $555 #
straight-curve $-1 0 41.763608591713989 11.015921283526868 -1 0 0 I I #
plane-surface $-1 0 41.763608591713989 0 0 -1 0 0 0 -1 forward_v I I I I #
straight-curve $-1 -56.426665672039945 0 11.015921283526868 0 -1 0 I I #
coedge $-1 $549 $520 $523 $545 forward $516 $-1 #
straight-curve $-1 -65.316934720908222 0 8.0159212835268683 0 1 0 I I #
edge $-1 $524 -8.0159212835268683 $553 11.015921283526868 $523 $556 forward 7 unknown #
point $-1 -65.316934720908222 41.763608591713989 8.0159212835268683 #
point $-1 -65.316934720908222 -41.763608591713989 8.0159212835268683 #
straight-curve $-1 -56.426665672039945 41.763608591713989 4.7579606417634341 0 0 1 I I #
coedge $-1 $532 $543 $534 $551 reversed $516 $-1 #
straight-curve $-1 -65.316934720908222 -41.763608591713989 0 0 0 -1 I I #
edge $-1 $535 -41.763608591713989 $553 41.763608591713989 $549 $557 forward 7 unknown #
point $-1 -65.316934720908222 -41.763608591713989 -11.015921283526868 #
vertex $-1 $537 $558 #
straight-curve $-1 0 41.763608591713989 -11.015921283526868 1 0 0 I I #
point $-1 -56.426665672039945 41.763608591713989 11.015921283526868 #
straight-curve $-1 -65.316934720908222 41.763608591713989 0 0 0 -1 I I #
straight-curve $-1 -65.316934720908222 0 -11.015921283526868 0 1 0 I I #
point $-1 -65.316934720908222 41.763608591713989 -11.015921283526868 #
End-of-ACIS-data 