500 0 12 0           
7 Unknown 11 ACIS 5.0 NT 24 Fri Mar 26 00:06:58 1999 
-1 9.9999999999999995e-007 1e-010 
body $-1 $12 $-1 $13 #
body $-1 $14 $-1 $15 #
body $-1 $16 $-1 $17 #
body $-1 $18 $-1 $19 #
body $-1 $20 $-1 $21 #
body $-1 $22 $-1 $23 #
body $-1 $24 $-1 $25 #
body $-1 $26 $-1 $27 #
body $-1 $28 $-1 $29 #
body $-1 $30 $-1 $31 #
body $-1 $32 $-1 $33 #
body $-1 $34 $-1 $35 #
lump $-1 $-1 $36 $0 #
transform $-1 1 0 0 0 1 0 0 0 1 52.1317178868984 23.396667894563144 11.189372343373842 1 rotate no_reflect no_shear #
lump $-1 $-1 $37 $1 #
transform $-1 1 0 0 0 1 0 0 0 1 52.1317178868984 23.396667894563144 11.189372343373842 1 rotate no_reflect no_shear #
lump $-1 $-1 $38 $2 #
transform $-1 1 0 0 0 1 0 0 0 1 52.1317178868984 23.396667894563144 11.189372343373842 1 rotate no_reflect no_shear #
lump $-1 $-1 $39 $3 #
transform $-1 1 0 0 0 1 0 0 0 1 52.1317178868984 23.396667894563144 11.189372343373842 1 rotate no_reflect no_shear #
lump $-1 $-1 $40 $4 #
transform $-1 1 0 0 0 1 0 0 0 1 52.1317178868984 23.396667894563144 11.189372343373842 1 rotate no_reflect no_shear #
lump $-1 $-1 $41 $5 #
transform $-1 1 0 0 0 1 0 0 0 1 52.1317178868984 23.396667894563144 11.189372343373842 1 rotate no_reflect no_shear #
lump $-1 $-1 $42 $6 #
transform $-1 1 0 0 0 1 0 0 0 1 52.1317178868984 23.396667894563144 11.189372343373842 1 rotate no_reflect no_shear #
lump $-1 $-1 $43 $7 #
transform $-1 1 0 0 0 1 0 0 0 1 52.1317178868984 23.396667894563144 11.189372343373842 1 rotate no_reflect no_shear #
lump $-1 $-1 $44 $8 #
transform $-1 1 0 0 0 1 0 0 0 1 52.1317178868984 23.396667894563144 11.189372343373842 1 rotate no_reflect no_shear #
lump $-1 $-1 $45 $9 #
transform $-1 1 0 0 0 1 0 0 0 1 52.1317178868984 23.396667894563144 11.189372343373842 1 rotate no_reflect no_shear #
lump $-1 $-1 $46 $10 #
transform $-1 1 0 0 0 1 0 0 0 1 52.1317178868984 23.396667894563144 11.189372343373842 1 rotate no_reflect no_shear #
lump $-1 $-1 $47 $11 #
transform $-1 1 0 0 0 1 0 0 0 1 52.1317178868984 23.396667894563144 11.189372343373842 1 rotate no_reflect no_shear #
shell $-1 $-1 $-1 $48 $-1 $12 #
shell $-1 $-1 $-1 $49 $-1 $14 #
shell $-1 $-1 $-1 $50 $-1 $16 #
shell $-1 $-1 $-1 $51 $-1 $18 #
shell $-1 $-1 $-1 $52 $-1 $20 #
shell $-1 $-1 $-1 $53 $-1 $22 #
shell $-1 $-1 $-1 $54 $-1 $24 #
shell $-1 $-1 $-1 $55 $-1 $26 #
shell $-1 $-1 $-1 $56 $-1 $28 #
shell $-1 $-1 $-1 $57 $-1 $30 #
shell $-1 $-1 $-1 $58 $-1 $32 #
shell $-1 $-1 $-1 $59 $-1 $34 #
face $-1 $60 $61 $36 $-1 $62 forward single #
face $-1 $63 $64 $37 $-1 $65 forward single #
face $-1 $66 $67 $38 $-1 $68 reversed single #
face $-1 $69 $70 $39 $-1 $71 forward single #
face $-1 $72 $73 $40 $-1 $74 forward single #
face $-1 $75 $76 $41 $-1 $77 reversed single #
face $-1 $78 $79 $42 $-1 $80 forward single #
face $-1 $81 $82 $43 $-1 $83 forward single #
face $-1 $84 $85 $44 $-1 $86 reversed single #
face $-1 $87 $88 $45 $-1 $89 forward single #
face $-1 $90 $91 $46 $-1 $92 forward single #
face $-1 $93 $94 $47 $-1 $95 forward single #
face $-1 $96 $97 $36 $-1 $98 reversed single #
loop $-1 $-1 $99 $48 #
plane-surface $-1 0 0 11.189372343373842 0 0 1 1 0 0 forward_v I I I I #
face $-1 $100 $101 $37 $-1 $102 forward single #
loop $-1 $-1 $103 $49 #
plane-surface $-1 0 -23.396667894563144 0 0 1 0 0 0 1 forward_v I I I I #
face $-1 $104 $105 $38 $-1 $106 reversed single #
loop $-1 $-1 $107 $50 #
plane-surface $-1 -123.2392109445225 -5.1843588431066223 78.691491060797105 0 1 0 -0.68199836817093118 0 0.7313536940579346 forward_v I I I I #
face $-1 $108 $109 $39 $-1 $110 forward single #
loop $-1 $111 $112 $51 #
cone-surface $-1 -47.087626652221161 -3.3055902548431213 6.4364854715909781 0.68199836817093118 0 -0.7313536940579346 0.3656768470289673 0 0.34099918408546559 1 I I 0 1 0.5 forward I I I I #
face $-1 $113 $114 $40 $-1 $115 forward single #
loop $-1 $116 $117 $52 #
cone-surface $-1 -47.087626652221161 -0.48743737244787155 6.4364854715909781 0.68199836817093118 0 -0.7313536940579346 0.3656768470289673 0 0.34099918408546559 1 I I 0 1 0.5 forward I I I I #
face $-1 $118 $119 $41 $-1 $120 reversed single #
loop $-1 $-1 $121 $53 #
plane-surface $-1 -123.2392109445225 6.2656866910997735 78.691491060797105 0 1 0 -0.68199836817093118 0 0.7313536940579346 forward_v I I I I #
face $-1 $122 $123 $42 $-1 $124 forward single #
loop $-1 $125 $126 $54 #
cone-surface $-1 -47.087626652221161 8.1444552793632745 6.4364854715909781 0.68199836817093118 0 -0.7313536940579346 0.3656768470289673 0 0.34099918408546559 1 I I 0 1 0.5 forward I I I I #
face $-1 $127 $128 $43 $-1 $129 forward single #
loop $-1 $130 $131 $55 #
cone-surface $-1 -47.087626652221161 10.962608161758524 6.4364854715909781 0.68199836817093118 0 -0.7313536940579346 0.3656768470289673 0 0.34099918408546559 1 I I 0 1 0.5 forward I I I I #
face $-1 $132 $133 $44 $-1 $134 reversed single #
loop $-1 $-1 $135 $56 #
plane-surface $-1 87.803288623034746 5.465623173183694 144.86757485388026 0 -1 0 -0.85716730853699208 0 -0.51503806187062418 forward_v I I I I #
face $-1 $136 $137 $45 $-1 $138 forward single #
loop $-1 $139 $140 $57 #
cone-surface $-1 48.881299387159324 0.10469142479336568 6.235531314714958 -0.85716730853699208 0 -0.51503806187062418 0.25751903093531209 0 -0.42858365426849604 1 I I 0 1 0.5 forward I I I I #
face $-1 $141 $142 $46 $-1 $143 forward single #
loop $-1 $144 $145 $58 #
cone-surface $-1 48.881299387159324 2.1150408304397388 6.235531314714958 -0.85716730853699208 0 -0.51503806187062418 0.25751903093531209 0 -0.42858365426849604 1 I I 0 1 0.5 forward I I I I #
face $-1 $146 $147 $47 $-1 $148 forward single #
loop $-1 $149 $150 $59 #
cone-surface $-1 48.881299387159324 4.1253902360861119 6.235531314714958 -0.85716730853699208 0 -0.51503806187062418 0.25751903093531209 0 -0.42858365426849604 1 I I 0 1 0.5 forward I I I I #
face $-1 $151 $152 $36 $-1 $153 reversed single #
loop $-1 $-1 $154 $60 #
plane-surface $-1 0 0 -11.189372343373842 0 0 1 1 0 0 forward_v I I I I #
coedge $-1 $155 $156 $157 $158 forward $61 $-1 #
face $-1 $159 $160 $37 $-1 $161 reversed single #
loop $-1 $-1 $162 $63 #
plane-surface $-1 0 0 11.189372343373842 0 0 1 1 0 0 forward_v I I I I #
coedge $-1 $163 $164 $165 $166 forward $64 $-1 #
face $-1 $167 $168 $38 $-1 $169 reversed single #
loop $-1 $-1 $170 $66 #
plane-surface $-1 -52.131717886898386 -1.8965138136454982 2.4380421524586069 -0.68199836817093118 0 0.7313536940579346 0.7313536940579346 0 0.68199836817093118 forward_v I I I I #
coedge $-1 $171 $172 $173 $174 reversed $67 $-1 #
face $-1 $-1 $175 $39 $-1 $176 forward single #
loop $-1 $177 $178 $69 #
cone-surface $-1 -46.565362055116481 -3.3055902548431213 5.8764252717512395 0.68199836817093118 0 -0.7313536940579346 0.18283842351448365 0 0.17049959204273279 1 I I -0.70710678118654746 0.70710678118654746 0.25 forward I I I I #
loop $-1 $-1 $179 $51 #
coedge $-1 $112 $112 $180 $181 reversed $70 $-1 #
face $-1 $-1 $182 $40 $-1 $183 forward single #
loop $-1 $184 $185 $72 #
cone-surface $-1 -46.565362055116481 -0.48743737244787155 5.8764252717512395 0.68199836817093118 0 -0.7313536940579346 0.18283842351448365 0 0.17049959204273279 1 I I -0.70710678118654746 0.70710678118654746 0.25 forward I I I I #
loop $-1 $-1 $186 $52 #
coedge $-1 $117 $117 $187 $188 reversed $73 $-1 #
face $-1 $189 $190 $41 $-1 $191 reversed single #
loop $-1 $-1 $192 $75 #
plane-surface $-1 -52.131717886898386 9.5535317205608976 2.4380421524586069 -0.68199836817093118 0 0.7313536940579346 0.7313536940579346 0 0.68199836817093118 forward_v I I I I #
coedge $-1 $193 $194 $195 $196 reversed $76 $-1 #
face $-1 $-1 $197 $42 $-1 $198 forward single #
loop $-1 $199 $200 $78 #
cone-surface $-1 -46.565362055116481 8.1444552793632745 5.8764252717512395 0.68199836817093118 0 -0.7313536940579346 0.18283842351448365 0 0.17049959204273279 1 I I -0.70710678118654746 0.70710678118654746 0.25 forward I I I I #
loop $-1 $-1 $201 $54 #
coedge $-1 $126 $126 $202 $203 reversed $79 $-1 #
face $-1 $-1 $204 $43 $-1 $205 forward single #
loop $-1 $206 $207 $81 #
cone-surface $-1 -46.565362055116481 10.962608161758524 5.8764252717512395 0.68199836817093118 0 -0.7313536940579346 0.18283842351448365 0 0.17049959204273279 1 I I -0.70710678118654746 0.70710678118654746 0.25 forward I I I I #
loop $-1 $-1 $208 $55 #
coedge $-1 $131 $131 $209 $210 reversed $82 $-1 #
face $-1 $211 $212 $44 $-1 $213 reversed single #
loop $-1 $-1 $214 $84 #
plane-surface $-1 -1.567919998010197 2.1150408304397388 91.167936968971645 0.85716730853699208 0 0.51503806187062418 0.51503806187062418 0 -0.85716730853699208 forward_v I I I I #
coedge $-1 $215 $216 $217 $218 reversed $85 $-1 #
face $-1 $-1 $219 $45 $-1 $220 forward single #
loop $-1 $221 $222 $87 #
cone-surface $-1 48.238423905756576 0.10469142479336568 5.8492527683119899 -0.85716730853699208 0 -0.51503806187062418 0.12875951546765604 0 -0.21429182713424802 1 I I -0.70710678118654746 0.70710678118654746 0.25 forward I I I I #
loop $-1 $-1 $223 $57 #
coedge $-1 $140 $140 $224 $225 reversed $88 $-1 #
face $-1 $-1 $226 $46 $-1 $227 forward single #
loop $-1 $228 $229 $90 #
cone-surface $-1 48.238423905756576 2.1150408304397388 5.8492527683119899 -0.85716730853699208 0 -0.51503806187062418 0.12875951546765604 0 -0.21429182713424802 1 I I -0.70710678118654746 0.70710678118654746 0.25 forward I I I I #
loop $-1 $-1 $230 $58 #
coedge $-1 $145 $145 $231 $232 reversed $91 $-1 #
face $-1 $-1 $233 $47 $-1 $234 forward single #
loop $-1 $235 $236 $93 #
cone-surface $-1 48.238423905756576 4.1253902360861119 5.8492527683119899 -0.85716730853699208 0 -0.51503806187062418 0.12875951546765604 0 -0.21429182713424802 1 I I -0.70710678118654746 0.70710678118654746 0.25 forward I I I I #
loop $-1 $-1 $237 $59 #
coedge $-1 $150 $150 $238 $239 reversed $94 $-1 #
face $-1 $240 $241 $36 $-1 $242 reversed single #
loop $-1 $-1 $243 $96 #
plane-surface $-1 0 -23.396667894563144 0 0 1 0 0 0 1 forward_v I I I I #
coedge $-1 $244 $245 $246 $247 forward $97 $-1 #
coedge $-1 $248 $99 $249 $250 forward $61 $-1 #
coedge $-1 $99 $248 $251 $252 forward $61 $-1 #
coedge $-1 $253 $254 $99 $158 reversed $255 $-1 #
edge $-1 $256 -23.396667894563144 $257 23.396667894563144 $157 $258 forward 7 unknown #
face $-1 $259 $260 $37 $-1 $261 reversed single #
loop $-1 $-1 $262 $100 #
plane-surface $-1 -52.1317178868984 0 0 1 0 0 0 0 -1 forward_v I I I I #
coedge $-1 $263 $264 $164 $265 forward $101 $-1 #
coedge $-1 $266 $103 $267 $268 reversed $64 $-1 #
coedge $-1 $103 $266 $162 $265 reversed $64 $-1 #
coedge $-1 $269 $270 $103 $166 reversed $271 $-1 #
edge $-1 $272 -11.189372343373842 $273 11.189372343373842 $165 $274 forward 7 unknown #
face $-1 $275 $276 $38 $-1 $277 reversed single #
loop $-1 $-1 $278 $104 #
plane-surface $-1 -123.2392109445225 1.3913312158156259 78.691491060797105 0 -1 0 0.68199836817093118 0 -0.7313536940579346 forward_v I I I I #
coedge $-1 $279 $280 $281 $282 reversed $105 $-1 #
coedge $-1 $172 $107 $283 $284 reversed $67 $-1 #
coedge $-1 $107 $171 $279 $285 reversed $67 $-1 #
coedge $-1 $281 $286 $107 $174 forward $287 $-1 #
edge $-1 $288 9.4878875853628486 $289 18.872540044593464 $173 $290 forward 7 unknown #
loop $-1 $-1 $180 $108 #
plane-surface $-1 -52.131717886898386 -1.8965138136454982 2.4380421524586069 -0.68199836817093118 0 0.7313536940579346 0.7313536940579346 0 0.68199836817093118 forward_v I I I I #
loop $-1 $-1 $291 $69 #
coedge $-1 $178 $178 $179 $292 reversed $109 $-1 #
coedge $-1 $179 $179 $178 $292 forward $111 $-1 #
coedge $-1 $180 $180 $112 $181 forward $175 $-1 #
edge $-1 $293 0 $293 6.2831853071796004 $180 $294 forward 7 unknown #
loop $-1 $-1 $187 $113 #
plane-surface $-1 -52.131717886898386 -1.8965138136454982 2.4380421524586069 -0.68199836817093118 0 0.7313536940579346 0.7313536940579346 0 0.68199836817093118 forward_v I I I I #
loop $-1 $-1 $295 $72 #
coedge $-1 $185 $185 $186 $296 reversed $114 $-1 #
coedge $-1 $186 $186 $185 $296 forward $116 $-1 #
coedge $-1 $187 $187 $117 $188 forward $182 $-1 #
edge $-1 $297 0 $297 6.2831853071796004 $187 $298 forward 7 unknown #
face $-1 $299 $300 $41 $-1 $301 forward single #
loop $-1 $-1 $302 $118 #
plane-surface $-1 -123.2392109445225 12.841376750022022 78.691491060797105 0 -1 0 0.68199836817093118 0 -0.7313536940579346 forward_v I I I I #
coedge $-1 $303 $304 $305 $306 reversed $119 $-1 #
coedge $-1 $194 $121 $307 $308 reversed $76 $-1 #
coedge $-1 $121 $193 $303 $309 reversed $76 $-1 #
coedge $-1 $305 $310 $121 $196 forward $300 $-1 #
edge $-1 $311 9.4878875853628486 $312 18.872540044593464 $195 $313 forward 7 unknown #
loop $-1 $-1 $202 $122 #
plane-surface $-1 -52.131717886898386 9.5535317205608976 2.4380421524586069 -0.68199836817093118 0 0.7313536940579346 0.7313536940579346 0 0.68199836817093118 forward_v I I I I #
loop $-1 $-1 $314 $78 #
coedge $-1 $200 $200 $201 $315 reversed $123 $-1 #
coedge $-1 $201 $201 $200 $315 forward $125 $-1 #
coedge $-1 $202 $202 $126 $203 forward $197 $-1 #
edge $-1 $316 0 $316 6.2831853071796004 $202 $317 forward 7 unknown #
loop $-1 $-1 $209 $127 #
plane-surface $-1 -52.131717886898386 9.5535317205608976 2.4380421524586069 -0.68199836817093118 0 0.7313536940579346 0.7313536940579346 0 0.68199836817093118 forward_v I I I I #
loop $-1 $-1 $318 $81 #
coedge $-1 $207 $207 $208 $319 reversed $128 $-1 #
coedge $-1 $208 $208 $207 $319 forward $130 $-1 #
coedge $-1 $209 $209 $131 $210 forward $204 $-1 #
edge $-1 $320 0 $320 6.2831853071796004 $209 $321 forward 7 unknown #
face $-1 $322 $323 $44 $-1 $324 forward single #
loop $-1 $-1 $325 $132 #
plane-surface $-1 87.803288623034746 -1.2355415123042164 144.86757485388026 0 1 0 0.85716730853699208 0 0.51503806187062418 forward_v I I I I #
coedge $-1 $326 $327 $328 $329 reversed $133 $-1 #
coedge $-1 $216 $135 $330 $331 reversed $85 $-1 #
coedge $-1 $135 $215 $326 $332 reversed $85 $-1 #
coedge $-1 $328 $333 $135 $218 forward $323 $-1 #
edge $-1 $334 -8.2300735753810272 $335 -2.5864038844398536 $217 $336 forward 7 unknown #
loop $-1 $-1 $224 $136 #
plane-surface $-1 -1.567919998010197 2.1150408304397388 91.167936968971645 0.85716730853699208 0 0.51503806187062418 0.51503806187062418 0 -0.85716730853699208 forward_v I I I I #
loop $-1 $-1 $337 $87 #
coedge $-1 $222 $222 $223 $338 reversed $137 $-1 #
coedge $-1 $223 $223 $222 $338 forward $139 $-1 #
coedge $-1 $224 $224 $140 $225 forward $219 $-1 #
edge $-1 $339 0 $339 6.2831853071796004 $224 $340 forward 7 unknown #
loop $-1 $-1 $231 $141 #
plane-surface $-1 -1.567919998010197 2.1150408304397388 91.167936968971645 0.85716730853699208 0 0.51503806187062418 0.51503806187062418 0 -0.85716730853699208 forward_v I I I I #
loop $-1 $-1 $341 $90 #
coedge $-1 $229 $229 $230 $342 reversed $142 $-1 #
coedge $-1 $230 $230 $229 $342 forward $144 $-1 #
coedge $-1 $231 $231 $145 $232 forward $226 $-1 #
edge $-1 $343 0 $343 6.2831853071796004 $231 $344 forward 7 unknown #
loop $-1 $-1 $238 $146 #
plane-surface $-1 -1.567919998010197 2.1150408304397388 91.167936968971645 0.85716730853699208 0 0.51503806187062418 0.51503806187062418 0 -0.85716730853699208 forward_v I I I I #
loop $-1 $-1 $345 $93 #
coedge $-1 $236 $236 $237 $346 reversed $147 $-1 #
coedge $-1 $237 $237 $236 $346 forward $149 $-1 #
coedge $-1 $238 $238 $150 $239 forward $233 $-1 #
edge $-1 $347 0 $347 6.2831853071796004 $238 $348 forward 7 unknown #
face $-1 $349 $350 $36 $-1 $351 reversed single #
loop $-1 $-1 $352 $151 #
plane-surface $-1 -52.1317178868984 0 0 1 0 0 0 0 -1 forward_v I I I I #
coedge $-1 $353 $251 $354 $355 forward $152 $-1 #
coedge $-1 $356 $154 $353 $357 forward $97 $-1 #
coedge $-1 $154 $356 $358 $359 forward $97 $-1 #
coedge $-1 $254 $253 $154 $247 reversed $255 $-1 #
edge $-1 $360 -23.396667894563144 $361 23.396667894563144 $246 $362 forward 7 unknown #
coedge $-1 $156 $155 $363 $364 forward $61 $-1 #
coedge $-1 $365 $366 $155 $250 reversed $350 $-1 #
edge $-1 $257 -52.1317178868984 $367 52.1317178868984 $249 $368 forward 7 unknown #
coedge $-1 $243 $369 $156 $252 reversed $152 $-1 #
edge $-1 $370 -52.1317178868984 $256 52.1317178868984 $251 $371 forward 7 unknown #
coedge $-1 $246 $157 $369 $372 forward $255 $-1 #
coedge $-1 $157 $246 $365 $373 reversed $255 $-1 #
loop $-1 $-1 $253 $349 #
vertex $-1 $158 $374 #
vertex $-1 $158 $375 #
straight-curve $-1 52.1317178868984 0 11.189372343373842 0 1 0 I I #
face $-1 $376 $271 $37 $-1 $377 reversed single #
loop $-1 $-1 $378 $159 #
plane-surface $-1 -49.243762296055571 -31.053685801478537 0 0 1 0 0 0 1 forward_v I I I I #
coedge $-1 $379 $380 $266 $381 forward $160 $-1 #
coedge $-1 $382 $162 $380 $383 forward $101 $-1 #
coedge $-1 $162 $382 $269 $384 forward $101 $-1 #
edge $-1 $272 46.355806705212743 $385 52.1317178868984 $162 $386 forward 7 unknown #
coedge $-1 $164 $163 $262 $381 reversed $64 $-1 #
coedge $-1 $387 $388 $163 $268 forward $389 $-1 #
edge $-1 $390 -52.1317178868984 $273 -46.355806705212743 $267 $391 forward 7 unknown #
coedge $-1 $392 $165 $264 $384 reversed $271 $-1 #
coedge $-1 $165 $392 $387 $393 reversed $271 $-1 #
loop $-1 $-1 $392 $259 #
vertex $-1 $265 $394 #
vertex $-1 $393 $395 #
straight-curve $-1 -46.355806705212743 -23.396667894563144 0 0 0 -1 I I #
face $-1 $-1 $287 $38 $-1 $396 forward single #
loop $-1 $-1 $397 $167 #
plane-surface $-1 -52.1317178868984 0 0 1 0 0 0 0 -1 forward_v I I I I #
coedge $-1 $398 $399 $400 $401 reversed $168 $-1 #
coedge $-1 $402 $170 $172 $285 forward $105 $-1 #
coedge $-1 $170 $402 $398 $403 forward $105 $-1 #
coedge $-1 $400 $173 $170 $282 forward $287 $-1 #
edge $-1 $289 -4.2361019362838732 $404 2.339588122638375 $281 $405 forward 7 unknown #
coedge $-1 $406 $407 $171 $284 forward $276 $-1 #
edge $-1 $408 -36.90770337793996 $288 -28.156373187024712 $283 $409 forward 7 unknown #
edge $-1 $289 -12.831893153037374 $408 1.9479204584885432e-014 $172 $410 forward 7 unknown #
coedge $-1 $173 $400 $406 $411 forward $287 $-1 #
loop $-1 $-1 $400 $275 #
vertex $-1 $284 $412 #
vertex $-1 $174 $413 #
straight-curve $-1 -61.619605472261249 -5.1843588431066223 11.18937234337384 1 0 0 I I #
coedge $-1 $291 $291 $-1 $414 reversed $177 $-1 #
edge $-1 $415 0 $415 6.2831853071796004 $178 $416 forward 7 unknown #
vertex $-1 $181 $417 #
ellipse-curve $-1 -47.439391657283096 -3.3055902548431213 6.8137072479162164 -0.68199836817093118 0 0.7313536940579346 0.3656768470289673 0 0.34099918408546559 1 I I #
coedge $-1 $295 $295 $-1 $418 reversed $184 $-1 #
edge $-1 $419 0 $419 6.2831853071796004 $185 $420 forward 7 unknown #
vertex $-1 $188 $421 #
ellipse-curve $-1 -47.439391657283096 -0.48743737244787155 6.8137072479162164 -0.68199836817093118 0 0.7313536940579346 0.3656768470289673 0 0.34099918408546559 1 I I #
face $-1 $-1 $422 $41 $-1 $423 reversed single #
loop $-1 $-1 $195 $189 #
plane-surface $-1 0 0 11.189372343373842 0 0 1 1 0 0 forward_v I I I I #
coedge $-1 $424 $425 $426 $427 reversed $190 $-1 #
coedge $-1 $428 $192 $194 $309 forward $119 $-1 #
coedge $-1 $192 $428 $424 $429 forward $119 $-1 #
coedge $-1 $426 $195 $192 $306 forward $300 $-1 #
edge $-1 $312 1.4889208308193247 $430 8.0646108897415729 $305 $431 forward 7 unknown #
coedge $-1 $432 $433 $193 $308 forward $422 $-1 #
edge $-1 $434 -36.90770337793996 $311 -28.156373187024712 $307 $435 forward 7 unknown #
edge $-1 $312 -12.831893153037374 $434 1.9479204584885432e-014 $194 $436 forward 7 unknown #
coedge $-1 $195 $426 $432 $437 forward $300 $-1 #
vertex $-1 $308 $438 #
vertex $-1 $196 $439 #
straight-curve $-1 -61.619605472261249 6.2656866910997735 11.18937234337384 1 0 0 I I #
coedge $-1 $314 $314 $-1 $440 reversed $199 $-1 #
edge $-1 $441 0 $441 6.2831853071796004 $200 $442 forward 7 unknown #
vertex $-1 $203 $443 #
ellipse-curve $-1 -47.439391657283096 8.1444552793632745 6.8137072479162164 -0.68199836817093118 0 0.7313536940579346 0.3656768470289673 0 0.34099918408546559 1 I I #
coedge $-1 $318 $318 $-1 $444 reversed $206 $-1 #
edge $-1 $445 0 $445 6.2831853071796004 $207 $446 forward 7 unknown #
vertex $-1 $210 $447 #
ellipse-curve $-1 -47.439391657283096 10.962608161758524 6.8137072479162164 -0.68199836817093118 0 0.7313536940579346 0.3656768470289673 0 0.34099918408546559 1 I I #
face $-1 $-1 $448 $44 $-1 $449 reversed single #
loop $-1 $-1 $217 $211 #
plane-surface $-1 0 0 11.189372343373842 0 0 1 1 0 0 forward_v I I I I #
coedge $-1 $450 $451 $452 $453 reversed $212 $-1 #
coedge $-1 $454 $214 $216 $332 forward $133 $-1 #
coedge $-1 $214 $454 $450 $455 forward $133 $-1 #
coedge $-1 $452 $217 $214 $329 forward $323 $-1 #
edge $-1 $335 -4.4081027579638246 $456 2.2930619275240858 $328 $457 forward 7 unknown #
coedge $-1 $458 $459 $215 $331 forward $448 $-1 #
edge $-1 $460 -70.637059079013397 $334 -61.244415083566288 $330 $461 forward 7 unknown #
edge $-1 $335 93.305663700712927 $460 104.26343577379679 $216 $462 forward 7 unknown #
coedge $-1 $217 $452 $458 $463 forward $323 $-1 #
vertex $-1 $218 $464 #
vertex $-1 $218 $465 #
straight-curve $-1 43.901644311517373 5.465623173183694 11.189372343373847 -1 0 0 I I #
coedge $-1 $337 $337 $-1 $466 reversed $221 $-1 #
edge $-1 $467 0 $467 6.2831853071796004 $222 $468 forward 7 unknown #
vertex $-1 $225 $469 #
ellipse-curve $-1 49.309883041427817 0.10469142479336568 6.4930503456502704 0.85716730853699208 0 0.51503806187062418 0.25751903093531209 0 -0.42858365426849604 1 I I #
coedge $-1 $341 $341 $-1 $470 reversed $228 $-1 #
edge $-1 $471 0 $471 6.2831853071796004 $229 $472 forward 7 unknown #
vertex $-1 $232 $473 #
ellipse-curve $-1 49.309883041427817 2.1150408304397388 6.4930503456502704 0.85716730853699208 0 0.51503806187062418 0.25751903093531209 0 -0.42858365426849604 1 I I #
coedge $-1 $345 $345 $-1 $474 reversed $235 $-1 #
edge $-1 $475 0 $475 6.2831853071796004 $236 $476 forward 7 unknown #
vertex $-1 $239 $477 #
ellipse-curve $-1 49.309883041427817 4.1253902360861119 6.4930503456502704 0.85716730853699208 0 0.51503806187062418 0.25751903093531209 0 -0.42858365426849604 1 I I #
face $-1 $-1 $255 $36 $-1 $478 reversed single #
loop $-1 $-1 $365 $240 #
plane-surface $-1 0 23.396667894563144 0 0 -1 0 0 0 -1 forward_v I I I I #
coedge $-1 $479 $363 $366 $480 forward $241 $-1 #
coedge $-1 $369 $243 $244 $357 reversed $152 $-1 #
coedge $-1 $363 $479 $243 $355 reversed $241 $-1 #
edge $-1 $370 -11.189372343373842 $481 11.189372343373842 $354 $482 forward 7 unknown #
coedge $-1 $245 $244 $479 $483 forward $97 $-1 #
edge $-1 $361 -52.1317178868984 $481 52.1317178868984 $353 $484 forward 7 unknown #
coedge $-1 $366 $365 $245 $359 reversed $350 $-1 #
edge $-1 $485 -52.1317178868984 $360 52.1317178868984 $358 $486 forward 7 unknown #
vertex $-1 $247 $487 #
vertex $-1 $372 $488 #
straight-curve $-1 52.1317178868984 0 -11.189372343373842 0 -1 0 I I #
coedge $-1 $352 $354 $248 $364 reversed $241 $-1 #
edge $-1 $367 -23.396667894563144 $370 23.396667894563144 $363 $489 forward 7 unknown #
coedge $-1 $358 $249 $254 $373 forward $350 $-1 #
coedge $-1 $249 $358 $352 $480 reversed $350 $-1 #
vertex $-1 $250 $490 #
straight-curve $-1 0 23.396667894563144 11.189372343373842 -1 0 0 I I #
coedge $-1 $251 $353 $253 $372 reversed $152 $-1 #
vertex $-1 $364 $491 #
straight-curve $-1 0 -23.396667894563144 11.189372343373842 1 0 0 I I #
edge $-1 $256 -11.189372343373842 $361 11.189372343373842 $253 $492 forward 7 unknown #
edge $-1 $257 -11.189372343373842 $360 11.189372343373842 $254 $493 forward 7 unknown #
point $-1 52.1317178868984 -23.396667894563144 11.189372343373842 #
point $-1 52.1317178868984 23.396667894563144 11.189372343373842 #
face $-1 $-1 $389 $37 $-1 $494 reversed single #
plane-surface $-1 -46.355806705212743 -27.22517684802084 0 -1 0 0 0 0 1 forward_v I I I I #
coedge $-1 $495 $496 $497 $498 forward $260 $-1 #
coedge $-1 $497 $262 $388 $499 reversed $160 $-1 #
coedge $-1 $262 $497 $263 $383 reversed $160 $-1 #
edge $-1 $385 -11.189372343373842 $390 11.189372343373842 $262 $500 forward 7 unknown #
coedge $-1 $264 $263 $496 $501 forward $101 $-1 #
edge $-1 $385 23.396667894563144 $502 31.053685801478537 $380 $503 forward 7 unknown #
edge $-1 $504 -3.8285089534576962 $272 3.8285089534576962 $269 $505 forward 7 unknown #
vertex $-1 $383 $506 #
straight-curve $-1 0 -23.396667894563144 11.189372343373842 -1 0 0 I I #
coedge $-1 $507 $267 $270 $393 forward $389 $-1 #
coedge $-1 $267 $507 $379 $499 forward $389 $-1 #
loop $-1 $-1 $267 $376 #
vertex $-1 $381 $508 #
straight-curve $-1 0 -23.396667894563144 -11.189372343373842 1 0 0 I I #
coedge $-1 $270 $269 $509 $510 forward $271 $-1 #
edge $-1 $273 -3.8285089534576962 $511 3.8285089534576962 $270 $512 forward 7 unknown #
point $-1 -46.355806705212743 -23.396667894563144 11.189372343373842 #
point $-1 -46.355806705212743 -23.396667894563144 -11.189372343373842 #
plane-surface $-1 0 0 11.189372343373842 0 0 1 1 0 0 forward_v I I I I #
coedge $-1 $407 $406 $399 $513 forward $276 $-1 #
coedge $-1 $399 $278 $280 $403 reversed $168 $-1 #
coedge $-1 $278 $398 $397 $513 reversed $168 $-1 #
coedge $-1 $286 $281 $278 $401 forward $287 $-1 #
edge $-1 $404 -18.872540044593464 $514 -9.4878875853628486 $400 $515 forward 7 unknown #
coedge $-1 $280 $279 $407 $516 reversed $105 $-1 #
edge $-1 $517 -1.9479204584885432e-014 $404 12.831893153037374 $398 $518 forward 7 unknown #
vertex $-1 $282 $519 #
straight-curve $-1 -42.747065427667785 -0.9482569068227491 11.189372343373844 0 1 0 I I #
coedge $-1 $397 $283 $286 $411 reversed $276 $-1 #
coedge $-1 $283 $397 $402 $516 forward $276 $-1 #
vertex $-1 $284 $520 #
straight-curve $-1 -52.1317178868984 -5.1843588431066223 39.345745530398553 0 0 1 I I #
straight-curve $-1 -52.131717886898386 -5.1843588431066223 2.4380421524586069 -0.7313536940579346 0 -0.68199836817093118 I I #
edge $-1 $514 -1.3913312158156259 $288 5.1843588431066223 $406 $521 forward 7 unknown #
point $-1 -52.1317178868984 -5.1843588431066223 11.189372343373842 #
point $-1 -42.747065427667785 -5.1843588431066223 11.189372343373842 #
edge $-1 $522 1 $522 0 $291 $-1 forward 7 unknown #
vertex $-1 $292 $523 #
ellipse-curve $-1 -46.735861647159211 -3.3055902548431213 6.0592636952657228 -0.68199836817093118 0 0.7313536940579346 0.3656768470289673 0 0.34099918408546559 1 I I #
point $-1 -47.073714810254145 -3.3055902548431213 7.1547064320016984 #
edge $-1 $524 1 $524 0 $295 $-1 forward 7 unknown #
vertex $-1 $296 $525 #
ellipse-curve $-1 -46.735861647159211 -0.48743737244787155 6.0592636952657228 -0.68199836817093118 0 0.7313536940579346 0.3656768470289673 0 0.34099918408546559 1 I I #
point $-1 -47.073714810254145 -0.48743737244787155 7.1547064320016984 #
loop $-1 $-1 $307 $299 #
plane-surface $-1 -52.1317178868984 0 0 1 0 0 0 0 -1 forward_v I I I I #
coedge $-1 $425 $302 $304 $429 reversed $190 $-1 #
coedge $-1 $302 $424 $526 $527 reversed $190 $-1 #
coedge $-1 $310 $305 $302 $427 forward $300 $-1 #
edge $-1 $430 -18.872540044593464 $528 -9.4878875853628486 $426 $529 forward 7 unknown #
coedge $-1 $304 $303 $433 $530 reversed $119 $-1 #
edge $-1 $531 -1.9479204584885432e-014 $430 12.831893153037374 $424 $532 forward 7 unknown #
vertex $-1 $306 $533 #
straight-curve $-1 -42.747065427667785 4.7767658602804488 11.189372343373844 0 1 0 I I #
coedge $-1 $526 $307 $310 $437 reversed $422 $-1 #
coedge $-1 $307 $526 $428 $530 forward $422 $-1 #
vertex $-1 $308 $534 #
straight-curve $-1 -52.1317178868984 6.2656866910997735 39.345745530398553 0 0 1 I I #
straight-curve $-1 -52.131717886898386 6.2656866910997735 2.4380421524586069 -0.7313536940579346 0 -0.68199836817093118 I I #
edge $-1 $528 -12.841376750022022 $311 -6.2656866910997735 $432 $535 forward 7 unknown #
point $-1 -52.1317178868984 6.2656866910997735 11.189372343373842 #
point $-1 -42.747065427667785 6.2656866910997735 11.189372343373842 #
edge $-1 $536 1 $536 0 $314 $-1 forward 7 unknown #
vertex $-1 $315 $537 #
ellipse-curve $-1 -46.735861647159211 8.1444552793632745 6.0592636952657228 -0.68199836817093118 0 0.7313536940579346 0.3656768470289673 0 0.34099918408546559 1 I I #
point $-1 -47.073714810254145 8.1444552793632745 7.1547064320016984 #
edge $-1 $538 1 $538 0 $318 $-1 forward 7 unknown #
vertex $-1 $319 $539 #
ellipse-curve $-1 -46.735861647159211 10.962608161758524 6.0592636952657228 -0.68199836817093118 0 0.7313536940579346 0.3656768470289673 0 0.34099918408546559 1 I I #
point $-1 -47.073714810254145 10.962608161758524 7.1547064320016984 #
loop $-1 $-1 $330 $322 #
plane-surface $-1 52.1317178868984 0 0 -1 0 0 0 0 1 forward_v I I I I #
coedge $-1 $451 $325 $327 $455 reversed $212 $-1 #
coedge $-1 $325 $450 $540 $541 reversed $212 $-1 #
coedge $-1 $333 $328 $325 $453 forward $323 $-1 #
edge $-1 $456 2.5864038844398536 $542 8.2300735753810272 $452 $543 forward 7 unknown #
coedge $-1 $327 $326 $459 $544 reversed $133 $-1 #
edge $-1 $545 -104.26343577379679 $456 -93.305663700712927 $450 $546 forward 7 unknown #
vertex $-1 $329 $547 #
straight-curve $-1 46.488048195957234 1.0575204152198694 11.18937234337384 0 -1 0 I I #
coedge $-1 $540 $330 $333 $463 reversed $448 $-1 #
coedge $-1 $330 $540 $454 $544 forward $448 $-1 #
vertex $-1 $331 $548 #
straight-curve $-1 52.1317178868984 5.465623173183694 72.433787426940128 0 0 1 I I #
straight-curve $-1 -1.567919998010197 5.465623173183694 91.167936968971645 0.51503806187062418 0 -0.85716730853699208 I I #
edge $-1 $542 -1.2355415123042164 $334 5.465623173183694 $458 $549 forward 7 unknown #
point $-1 52.1317178868984 5.465623173183694 11.189372343373842 #
point $-1 46.488048195957226 5.465623173183694 11.189372343373847 #
edge $-1 $550 1 $550 0 $337 $-1 forward 7 unknown #
vertex $-1 $338 $551 #
ellipse-curve $-1 48.452715732890823 0.10469142479336568 5.9780122837796457 0.85716730853699208 0 0.51503806187062418 0.25751903093531209 0 -0.42858365426849604 1 I I #
point $-1 49.56740207236313 0.10469142479336568 6.0644666913817744 #
edge $-1 $552 1 $552 0 $341 $-1 forward 7 unknown #
vertex $-1 $342 $553 #
ellipse-curve $-1 48.452715732890823 2.1150408304397388 5.9780122837796457 0.85716730853699208 0 0.51503806187062418 0.25751903093531209 0 -0.42858365426849604 1 I I #
point $-1 49.56740207236313 2.1150408304397388 6.0644666913817744 #
edge $-1 $554 1 $554 0 $345 $-1 forward 7 unknown #
vertex $-1 $346 $555 #
ellipse-curve $-1 48.452715732890823 4.1253902360861119 5.9780122837796457 0.85716730853699208 0 0.51503806187062418 0.25751903093531209 0 -0.42858365426849604 1 I I #
point $-1 49.56740207236313 4.1253902360861119 6.0644666913817744 #
plane-surface $-1 52.1317178868984 0 0 -1 0 0 0 0 1 forward_v I I I I #
coedge $-1 $354 $352 $356 $483 reversed $241 $-1 #
edge $-1 $367 -11.189372343373842 $485 11.189372343373842 $366 $556 forward 7 unknown #
vertex $-1 $483 $557 #
straight-curve $-1 -52.1317178868984 -23.396667894563144 0 0 0 -1 I I #
edge $-1 $481 -23.396667894563144 $485 23.396667894563144 $479 $558 forward 7 unknown #
straight-curve $-1 0 -23.396667894563144 -11.189372343373842 -1 0 0 I I #
vertex $-1 $359 $559 #
straight-curve $-1 0 23.396667894563144 -11.189372343373842 1 0 0 I I #
point $-1 52.1317178868984 23.396667894563144 -11.189372343373842 #
point $-1 52.1317178868984 -23.396667894563144 -11.189372343373842 #
straight-curve $-1 -52.1317178868984 0 11.189372343373842 0 -1 0 I I #
point $-1 -52.1317178868984 23.396667894563144 11.189372343373842 #
point $-1 -52.1317178868984 -23.396667894563144 11.189372343373842 #
straight-curve $-1 52.1317178868984 -23.396667894563144 0 0 0 -1 I I #
straight-curve $-1 52.1317178868984 23.396667894563144 0 0 0 -1 I I #
plane-surface $-1 0 0 -11.189372343373842 0 0 1 1 0 0 forward_v I I I I #
coedge $-1 $509 $378 $507 $560 reversed $260 $-1 #
coedge $-1 $378 $509 $382 $501 reversed $260 $-1 #
coedge $-1 $380 $379 $378 $498 reversed $160 $-1 #
edge $-1 $502 -11.189372343373842 $561 11.189372343373842 $497 $562 forward 7 unknown #
edge $-1 $561 -31.053685801478537 $390 -23.396667894563144 $379 $563 forward 7 unknown #
straight-curve $-1 -52.1317178868984 -23.396667894563144 0 0 0 -1 I I #
edge $-1 $502 -2.8879555908428287 $504 2.8879555908428287 $496 $564 forward 7 unknown #
vertex $-1 $383 $565 #
straight-curve $-1 -52.1317178868984 0 11.189372343373842 0 -1 0 I I #
vertex $-1 $384 $566 #
straight-curve $-1 -46.355806705212743 -27.22517684802084 11.189372343373842 0 1 0 I I #
point $-1 -52.1317178868984 -23.396667894563144 11.189372343373842 #
coedge $-1 $388 $387 $495 $560 forward $389 $-1 #
point $-1 -52.1317178868984 -23.396667894563144 -11.189372343373842 #
coedge $-1 $496 $495 $392 $510 reversed $260 $-1 #
edge $-1 $504 -11.189372343373842 $511 11.189372343373842 $392 $567 forward 7 unknown #
vertex $-1 $510 $568 #
straight-curve $-1 -46.355806705212743 -27.22517684802084 -11.189372343373842 0 -1 0 I I #
edge $-1 $514 28.156373187024712 $517 36.90770337793996 $397 $569 forward 7 unknown #
vertex $-1 $411 $570 #
straight-curve $-1 -61.619605472261249 1.3913312158156259 11.18937234337384 -1 0 0 I I #
edge $-1 $517 -2.339588122638375 $408 4.2361019362838732 $407 $571 forward 7 unknown #
vertex $-1 $516 $572 #
straight-curve $-1 -52.131717886898386 1.3913312158156259 2.4380421524586069 0.7313536940579346 0 0.68199836817093118 I I #
point $-1 -42.747065427667785 1.3913312158156259 11.189372343373842 #
point $-1 -52.1317178868984 -5.1843588431066223 2.4380421524585936 #
straight-curve $-1 -52.1317178868984 0 11.189372343373842 0 -1 0 I I #
vertex $-1 $414 $573 #
point $-1 -46.370184800130247 -3.3055902548431213 6.4002628793511889 #
vertex $-1 $418 $574 #
point $-1 -46.370184800130247 -0.48743737244787155 6.4002628793511889 #
coedge $-1 $433 $432 $425 $527 forward $422 $-1 #
edge $-1 $528 28.156373187024712 $531 36.90770337793996 $526 $575 forward 7 unknown #
vertex $-1 $437 $576 #
straight-curve $-1 -61.619605472261249 12.841376750022022 11.18937234337384 -1 0 0 I I #
edge $-1 $531 -8.0646108897415729 $434 -1.4889208308193247 $433 $577 forward 7 unknown #
vertex $-1 $530 $578 #
straight-curve $-1 -52.131717886898386 12.841376750022022 2.4380421524586069 0.7313536940579346 0 0.68199836817093118 I I #
point $-1 -42.747065427667785 12.841376750022022 11.189372343373842 #
point $-1 -52.1317178868984 6.2656866910997735 2.4380421524585936 #
straight-curve $-1 -52.1317178868984 0 11.189372343373842 0 -1 0 I I #
vertex $-1 $440 $579 #
point $-1 -46.370184800130247 8.1444552793632745 6.4002628793511889 #
vertex $-1 $444 $580 #
point $-1 -46.370184800130247 10.962608161758524 6.4002628793511889 #
coedge $-1 $459 $458 $451 $541 forward $448 $-1 #
edge $-1 $542 61.244415083566288 $545 70.637059079013397 $540 $581 forward 7 unknown #
vertex $-1 $463 $582 #
straight-curve $-1 43.901644311517373 -1.2355415123042164 11.189372343373847 1 0 0 I I #
edge $-1 $545 -2.2930619275240858 $460 4.4081027579638246 $459 $583 forward 7 unknown #
vertex $-1 $544 $584 #
straight-curve $-1 -1.567919998010197 -1.2355415123042164 91.167936968971645 -0.51503806187062418 0 0.85716730853699208 I I #
point $-1 46.488048195957226 -1.2355415123042164 11.189372343373847 #
point $-1 52.1317178868984 5.465623173183694 1.7967283479267309 #
straight-curve $-1 52.1317178868984 0 11.189372343373842 0 1 0 I I #
vertex $-1 $466 $585 #
point $-1 48.710234763826136 0.10469142479336568 5.5494286295111497 #
vertex $-1 $470 $586 #
point $-1 48.710234763826136 2.1150408304397388 5.5494286295111497 #
vertex $-1 $474 $587 #
point $-1 48.710234763826136 4.1253902360861119 5.5494286295111497 #
straight-curve $-1 -52.1317178868984 23.396667894563144 0 0 0 -1 I I #
point $-1 -52.1317178868984 -23.396667894563144 -11.189372343373842 #
straight-curve $-1 -52.1317178868984 0 -11.189372343373842 0 1 0 I I #
point $-1 -52.1317178868984 23.396667894563144 -11.189372343373842 #
edge $-1 $511 -2.8879555908428287 $561 2.8879555908428287 $495 $588 forward 7 unknown #
vertex $-1 $499 $589 #
straight-curve $-1 -52.1317178868984 -31.053685801478537 0 0 0 -1 I I #
straight-curve $-1 -52.1317178868984 0 -11.189372343373842 0 1 0 I I #
straight-curve $-1 -49.243762296055571 -31.053685801478537 11.189372343373842 1 0 0 I I #
point $-1 -52.1317178868984 -31.053685801478537 11.189372343373842 #
point $-1 -46.355806705212743 -31.053685801478537 11.189372343373842 #
straight-curve $-1 -46.355806705212743 -31.053685801478537 0 0 0 -1 I I #
point $-1 -46.355806705212743 -31.053685801478537 -11.189372343373842 #
straight-curve $-1 -52.1317178868984 1.3913312158156259 39.345745530398553 0 0 -1 I I #
point $-1 -52.1317178868984 1.3913312158156259 11.189372343373842 #
straight-curve $-1 -52.1317178868984 -0.9482569068227491 2.4380421524585953 0 -1 0 I I #
point $-1 -52.1317178868984 1.3913312158156259 2.4380421524585936 #
point $-1 -46.39486246307375 -3.3055902548431213 5.6935868482367562 #
point $-1 -46.39486246307375 -0.48743737244787155 5.6935868482367562 #
straight-curve $-1 -52.1317178868984 12.841376750022022 39.345745530398553 0 0 -1 I I #
point $-1 -52.1317178868984 12.841376750022022 11.189372343373842 #
straight-curve $-1 -52.1317178868984 4.7767658602804488 2.4380421524585953 0 -1 0 I I #
point $-1 -52.1317178868984 12.841376750022022 2.4380421524585936 #
point $-1 -46.39486246307375 8.1444552793632745 5.6935868482367562 #
point $-1 -46.39486246307375 10.962608161758524 5.6935868482367562 #
straight-curve $-1 52.1317178868984 -1.2355415123042164 72.433787426940128 0 0 -1 I I #
point $-1 52.1317178868984 -1.2355415123042164 11.189372343373842 #
straight-curve $-1 52.1317178868984 1.0575204152198694 1.7967283479267238 0 1 0 I I #
point $-1 52.1317178868984 -1.2355415123042164 1.7967283479267309 #
point $-1 48.02413207862233 0.10469142479336568 5.7204932528443342 #
point $-1 48.02413207862233 2.1150408304397388 5.7204932528443342 #
point $-1 48.02413207862233 4.1253902360861119 5.7204932528443342 #
straight-curve $-1 -49.243762296055571 -31.053685801478537 -11.189372343373842 -1 0 0 I I #
point $-1 -52.1317178868984 -31.053685801478537 -11.189372343373842 #
End-of-ACIS-data 