500 0 7 0           
7 Unknown 11 ACIS 5.0 NT 24 Thu Mar 25 17:20:02 1999 
-1 9.9999999999999995e-007 1e-010 
body $-1 $7 $-1 $8 #
body $-1 $9 $-1 $10 #
body $-1 $11 $-1 $12 #
body $-1 $13 $-1 $14 #
body $-1 $15 $-1 $16 #
body $-1 $17 $-1 $18 #
body $-1 $19 $-1 $20 #
lump $-1 $-1 $21 $0 #
transform $-1 1 0 0 0 1 0 0 0 1 51.713003936887723 21.473514373194845 9.7169831543049181 1 rotate no_reflect no_shear #
lump $-1 $-1 $22 $1 #
transform $-1 1 0 0 0 1 0 0 0 1 51.713003936887723 21.473514373194845 9.7169831543049181 1 rotate no_reflect no_shear #
lump $-1 $-1 $23 $2 #
transform $-1 1 0 0 0 1 0 0 0 1 51.713003936887723 21.473514373194845 9.7169831543049181 1 rotate no_reflect no_shear #
lump $-1 $-1 $24 $3 #
transform $-1 1 0 0 0 1 0 0 0 1 51.713003936887723 21.473514373194845 9.7169831543049181 1 rotate no_reflect no_shear #
lump $-1 $-1 $25 $4 #
transform $-1 1 0 0 0 1 0 0 0 1 51.713003936887723 21.473514373194845 9.7169831543049181 1 rotate no_reflect no_shear #
lump $-1 $-1 $26 $5 #
transform $-1 1 0 0 0 1 0 0 0 1 51.713003936887723 21.473514373194845 9.7169831543049181 1 rotate no_reflect no_shear #
lump $-1 $-1 $27 $6 #
transform $-1 1 0 0 0 1 0 0 0 1 51.713003936887723 21.473514373194845 9.7169831543049181 1 rotate no_reflect no_shear #
shell $-1 $-1 $-1 $28 $-1 $7 #
shell $-1 $-1 $-1 $29 $-1 $9 #
shell $-1 $-1 $-1 $30 $-1 $11 #
shell $-1 $-1 $-1 $31 $-1 $13 #
shell $-1 $-1 $-1 $32 $-1 $15 #
shell $-1 $-1 $-1 $33 $-1 $17 #
shell $-1 $-1 $-1 $34 $-1 $19 #
face $-1 $35 $36 $21 $-1 $37 forward single #
face $-1 $38 $39 $22 $-1 $40 reversed single #
face $-1 $41 $42 $23 $-1 $43 reversed single #
face $-1 $44 $45 $24 $-1 $46 reversed single #
face $-1 $47 $48 $25 $-1 $49 forward single #
face $-1 $50 $51 $26 $-1 $52 reversed single #
face $-1 $53 $54 $27 $-1 $55 forward single #
face $-1 $56 $57 $21 $-1 $58 reversed single #
loop $-1 $-1 $59 $28 #
plane-surface $-1 0 0 9.7169831543049181 0 0 1 1 0 0 forward_v I I I I #
face $-1 $60 $61 $22 $-1 $62 reversed single #
loop $-1 $-1 $63 $29 #
plane-surface $-1 -42.714900200391575 0 7.8141246135099625 -1 0 0 0 0 1 forward_v I I I I #
face $-1 $64 $65 $23 $-1 $66 reversed single #
loop $-1 $-1 $67 $30 #
plane-surface $-1 47.213952068639649 0 5.911266072715005 0 0 1 1 0 0 forward_v I I I I #
face $-1 $68 $69 $24 $-1 $70 reversed single #
loop $-1 $-1 $71 $31 #
plane-surface $-1 -38.437348463200038 -1.9171133906545634 39.306281059029025 0 0.83867057594974714 0.54463902268945019 1 0 0 forward_v I I I I #
face $-1 $72 $73 $25 $-1 $74 forward single #
loop $-1 $75 $76 $32 #
cone-surface $-1 -38.437348463200038 17.502615234911623 5.2793706786540264 0 -0.83867057594974714 -0.54463902268945019 1.5 0 0 1 I I 0 1 1.5 forward I I I I #
face $-1 $77 $78 $26 $-1 $79 reversed single #
loop $-1 $-1 $80 $33 #
plane-surface $-1 6.2172489379008766e-015 84.823236201027768 95.636120908073465 1 0 0 0 -0.83867057594974714 -0.54463902268945019 forward_v I I I I #
face $-1 $81 $82 $27 $-1 $83 forward single #
loop $-1 $84 $85 $34 #
cone-surface $-1 4.277551737191537 17.502615234911623 5.2793706786540264 0 -0.83867057594974714 -0.54463902268945019 1.5 0 0 1 I I 0 1 1.5 forward I I I I #
face $-1 $86 $87 $21 $-1 $88 reversed single #
loop $-1 $-1 $89 $35 #
plane-surface $-1 0 0 -9.7169831543049181 0 0 1 1 0 0 forward_v I I I I #
coedge $-1 $90 $91 $92 $93 forward $36 $-1 #
face $-1 $94 $95 $22 $-1 $96 reversed single #
loop $-1 $-1 $97 $38 #
plane-surface $-1 -47.213952068639649 0 5.911266072715005 0 0 1 1 0 0 forward_v I I I I #
coedge $-1 $98 $99 $100 $101 reversed $39 $-1 #
face $-1 $102 $103 $23 $-1 $104 forward single #
loop $-1 $-1 $105 $41 #
plane-surface $-1 42.714900200391575 0 7.8141246135099625 1 0 0 0 0 -1 forward_v I I I I #
coedge $-1 $106 $107 $108 $109 reversed $42 $-1 #
face $-1 $110 $111 $24 $-1 $112 reversed single #
loop $-1 $-1 $113 $44 #
plane-surface $-1 -34.159796726008508 84.823236201027768 95.636120908073465 -1 0 0 0 0.83867057594974714 0.54463902268945019 forward_v I I I I #
coedge $-1 $114 $115 $116 $117 reversed $45 $-1 #
face $-1 $-1 $118 $25 $-1 $119 forward single #
loop $-1 $120 $121 $47 #
cone-surface $-1 -38.437348463200038 14.990269987362829 3.6478346506564865 0 -0.83867057594974714 -0.54463902268945019 0.75 0 0 1 I I -0.70710678118654757 0.70710678118654757 0.75 forward I I I I #
loop $-1 $-1 $122 $32 #
coedge $-1 $76 $76 $123 $124 reversed $48 $-1 #
face $-1 $125 $126 $26 $-1 $127 reversed single #
loop $-1 $-1 $128 $50 #
plane-surface $-1 4.277551737191537 -1.9171133906545634 39.306281059029025 0 0.83867057594974714 0.54463902268945019 1 0 0 forward_v I I I I #
coedge $-1 $129 $130 $131 $132 reversed $51 $-1 #
face $-1 $-1 $133 $27 $-1 $134 forward single #
loop $-1 $135 $136 $53 #
cone-surface $-1 4.277551737191537 14.990269987362829 3.6478346506564865 0 -0.83867057594974714 -0.54463902268945019 0.75 0 0 1 I I -0.70710678118654757 0.70710678118654757 0.75 forward I I I I #
loop $-1 $-1 $137 $34 #
coedge $-1 $85 $85 $138 $139 reversed $54 $-1 #
face $-1 $140 $141 $21 $-1 $142 reversed single #
loop $-1 $-1 $143 $56 #
plane-surface $-1 0 -21.473514373194845 0 0 1 0 0 0 1 forward_v I I I I #
coedge $-1 $144 $145 $146 $147 forward $57 $-1 #
coedge $-1 $148 $59 $149 $150 forward $36 $-1 #
coedge $-1 $59 $148 $151 $152 forward $36 $-1 #
coedge $-1 $153 $154 $59 $93 reversed $155 $-1 #
edge $-1 $156 -21.473514373194845 $157 21.473514373194845 $92 $158 forward 7 unknown #
face $-1 $159 $160 $22 $-1 $161 reversed single #
loop $-1 $-1 $162 $60 #
plane-surface $-1 0 21.473514373194845 0 0 -1 0 0 0 -1 forward_v I I I I #
coedge $-1 $163 $164 $165 $166 forward $61 $-1 #
coedge $-1 $165 $63 $167 $168 reversed $39 $-1 #
coedge $-1 $63 $165 $162 $169 reversed $39 $-1 #
coedge $-1 $170 $171 $63 $101 forward $172 $-1 #
edge $-1 $173 -21.473514373194845 $174 21.473514373194845 $100 $175 forward 7 unknown #
face $-1 $176 $177 $23 $-1 $178 reversed single #
loop $-1 $-1 $179 $64 #
plane-surface $-1 0 0 9.7169831543049181 0 0 1 1 0 0 forward_v I I I I #
coedge $-1 $180 $181 $182 $183 reversed $65 $-1 #
coedge $-1 $184 $67 $185 $186 reversed $42 $-1 #
coedge $-1 $67 $184 $187 $188 reversed $42 $-1 #
coedge $-1 $189 $190 $67 $109 forward $191 $-1 #
edge $-1 $192 -21.473514373194845 $193 21.473514373194845 $108 $194 forward 7 unknown #
face $-1 $195 $196 $24 $-1 $197 forward single #
loop $-1 $-1 $198 $68 #
plane-surface $-1 0 21.473514373194845 0 0 -1 0 0 0 -1 forward_v I I I I #
coedge $-1 $199 $200 $201 $202 reversed $69 $-1 #
coedge $-1 $203 $71 $204 $205 reversed $45 $-1 #
coedge $-1 $71 $203 $199 $206 forward $45 $-1 #
coedge $-1 $201 $207 $71 $117 forward $196 $-1 #
edge $-1 $208 -23.496225968791549 $209 -14.941122494408489 $116 $210 forward 7 unknown #
loop $-1 $-1 $123 $72 #
plane-surface $-1 -38.437348463200038 -1.9171133906545634 39.306281059029025 0 0.83867057594974714 0.54463902268945019 1 0 0 forward_v I I I I #
loop $-1 $-1 $211 $47 #
coedge $-1 $121 $121 $122 $212 reversed $73 $-1 #
coedge $-1 $122 $122 $121 $212 forward $75 $-1 #
coedge $-1 $123 $123 $76 $124 forward $118 $-1 #
edge $-1 $213 0 $213 6.2831853071796004 $123 $214 forward 7 unknown #
face $-1 $215 $216 $26 $-1 $217 forward single #
loop $-1 $-1 $218 $77 #
plane-surface $-1 8.555103474383067 84.823236201027768 95.636120908073465 -1 0 0 0 0.83867057594974714 0.54463902268945019 forward_v I I I I #
coedge $-1 $219 $220 $221 $222 reversed $78 $-1 #
coedge $-1 $130 $80 $223 $224 reversed $51 $-1 #
coedge $-1 $80 $129 $219 $225 reversed $51 $-1 #
coedge $-1 $221 $226 $80 $132 forward $216 $-1 #
edge $-1 $227 20.938103727319039 $228 25.113217372712516 $131 $229 forward 7 unknown #
loop $-1 $-1 $138 $81 #
plane-surface $-1 4.277551737191537 -1.9171133906545634 39.306281059029025 0 0.83867057594974714 0.54463902268945019 1 0 0 forward_v I I I I #
loop $-1 $-1 $230 $53 #
coedge $-1 $136 $136 $137 $231 reversed $82 $-1 #
coedge $-1 $137 $137 $136 $231 forward $84 $-1 #
coedge $-1 $138 $138 $85 $139 forward $133 $-1 #
edge $-1 $232 0 $232 6.2831853071796004 $138 $233 forward 7 unknown #
face $-1 $234 $235 $21 $-1 $236 reversed single #
loop $-1 $-1 $237 $86 #
plane-surface $-1 -51.713003936887723 0 0 1 0 0 0 0 -1 forward_v I I I I #
coedge $-1 $238 $151 $239 $240 forward $87 $-1 #
coedge $-1 $241 $89 $238 $242 forward $57 $-1 #
coedge $-1 $89 $241 $243 $244 forward $57 $-1 #
coedge $-1 $154 $153 $89 $147 reversed $155 $-1 #
edge $-1 $245 -21.473514373194845 $246 21.473514373194845 $146 $247 forward 7 unknown #
coedge $-1 $91 $90 $248 $249 forward $36 $-1 #
coedge $-1 $250 $251 $90 $150 reversed $235 $-1 #
edge $-1 $157 -51.713003936887723 $252 51.713003936887723 $149 $253 forward 7 unknown #
coedge $-1 $143 $254 $91 $152 reversed $87 $-1 #
edge $-1 $255 -51.713003936887723 $156 51.713003936887723 $151 $256 forward 7 unknown #
coedge $-1 $146 $92 $254 $257 forward $155 $-1 #
coedge $-1 $92 $146 $250 $258 reversed $155 $-1 #
loop $-1 $-1 $153 $234 #
vertex $-1 $93 $259 #
vertex $-1 $93 $260 #
straight-curve $-1 51.713003936887723 0 9.7169831543049181 0 1 0 I I #
face $-1 $261 $172 $22 $-1 $262 forward single #
loop $-1 $-1 $263 $94 #
plane-surface $-1 -51.713003936887723 0 0 1 0 0 0 0 -1 forward_v I I I I #
coedge $-1 $264 $265 $99 $169 forward $95 $-1 #
coedge $-1 $266 $97 $267 $268 reversed $61 $-1 #
coedge $-1 $97 $266 $264 $269 reversed $61 $-1 #
coedge $-1 $99 $98 $97 $166 reversed $39 $-1 #
edge $-1 $270 -21.473514373194845 $271 21.473514373194845 $165 $272 forward 7 unknown #
coedge $-1 $273 $267 $98 $168 forward $274 $-1 #
edge $-1 $271 2.0042037659600238 $173 5.8099208475499386 $167 $275 forward 7 unknown #
edge $-1 $174 -5.8099208475499386 $270 -2.0042037659600238 $162 $276 forward 7 unknown #
coedge $-1 $277 $100 $265 $278 forward $172 $-1 #
coedge $-1 $100 $277 $273 $279 forward $172 $-1 #
loop $-1 $-1 $100 $159 #
vertex $-1 $168 $280 #
vertex $-1 $278 $281 #
straight-curve $-1 -42.714900200391575 0 9.7169831543049181 0 1 0 I I #
face $-1 $282 $283 $23 $-1 $284 reversed single #
loop $-1 $-1 $285 $102 #
plane-surface $-1 0 -21.473514373194845 0 0 1 0 0 0 1 forward_v I I I I #
coedge $-1 $286 $287 $181 $288 forward $103 $-1 #
coedge $-1 $289 $105 $184 $290 reversed $65 $-1 #
coedge $-1 $105 $289 $179 $288 reversed $65 $-1 #
coedge $-1 $291 $187 $105 $183 forward $283 $-1 #
edge $-1 $292 2.0042037659600238 $293 5.8099208475499386 $182 $294 forward 7 unknown #
coedge $-1 $107 $106 $180 $290 forward $42 $-1 #
coedge $-1 $295 $285 $106 $186 forward $177 $-1 #
edge $-1 $296 19.107924166071751 $192 28.106027902567899 $185 $297 forward 7 unknown #
coedge $-1 $182 $298 $107 $188 forward $283 $-1 #
edge $-1 $193 -28.106027902567899 $292 -19.107924166071751 $187 $299 forward 7 unknown #
coedge $-1 $300 $108 $298 $301 reversed $191 $-1 #
coedge $-1 $108 $300 $295 $302 forward $191 $-1 #
loop $-1 $-1 $108 $282 #
vertex $-1 $186 $303 #
vertex $-1 $109 $304 #
straight-curve $-1 51.713003936887723 0 5.911266072715005 0 1 0 I I #
face $-1 $-1 $305 $24 $-1 $306 forward single #
loop $-1 $-1 $201 $110 #
plane-surface $-1 0 0 9.7169831543049181 0 0 1 1 0 0 forward_v I I I I #
coedge $-1 $307 $308 $200 $309 forward $111 $-1 #
coedge $-1 $200 $113 $115 $206 reversed $69 $-1 #
coedge $-1 $113 $199 $198 $309 reversed $69 $-1 #
coedge $-1 $310 $116 $113 $202 forward $196 $-1 #
edge $-1 $209 -25.113217372712516 $311 -20.938103727319039 $201 $312 forward 7 unknown #
coedge $-1 $115 $114 $307 $313 reversed $45 $-1 #
coedge $-1 $314 $315 $114 $205 forward $305 $-1 #
edge $-1 $316 -29.219188872622716 $208 -21.553352471887791 $204 $317 forward 7 unknown #
edge $-1 $318 -42.947028746389705 $209 -35.28119234565478 $199 $319 forward 7 unknown #
coedge $-1 $116 $310 $314 $320 forward $196 $-1 #
vertex $-1 $205 $321 #
vertex $-1 $117 $322 #
straight-curve $-1 -19.218674231600019 17.298400727801369 9.7169831543049199 1 0 0 I I #
coedge $-1 $211 $211 $-1 $323 reversed $120 $-1 #
edge $-1 $324 0 $324 6.2831853071796004 $121 $325 forward 7 unknown #
vertex $-1 $124 $326 #
ellipse-curve $-1 -38.437348463200038 19.385957550498105 6.5024274396344781 0 0.83867057594974714 0.54463902268945019 1.5 0 0 1 I I #
face $-1 $-1 $327 $26 $-1 $328 reversed single #
loop $-1 $-1 $131 $125 #
plane-surface $-1 0 0 9.7169831543049181 0 0 1 1 0 0 forward_v I I I I #
coedge $-1 $329 $330 $331 $332 reversed $126 $-1 #
coedge $-1 $333 $128 $130 $225 forward $78 $-1 #
coedge $-1 $128 $333 $329 $334 forward $78 $-1 #
coedge $-1 $331 $131 $128 $222 forward $216 $-1 #
edge $-1 $228 -2.1387758685957623 $335 6.4163276057872984 $221 $336 forward 7 unknown #
coedge $-1 $337 $338 $129 $224 forward $327 $-1 #
edge $-1 $339 -44.530188729072705 $227 -38.101077299731813 $223 $340 forward 7 unknown #
edge $-1 $228 35.28119234565478 $339 42.947028746389705 $130 $341 forward 7 unknown #
coedge $-1 $131 $331 $337 $342 forward $216 $-1 #
vertex $-1 $224 $343 #
vertex $-1 $132 $344 #
straight-curve $-1 6.2172489379008766e-015 42.411618100513884 9.7169831543049199 0 -1 0 I I #
coedge $-1 $230 $230 $-1 $345 reversed $135 $-1 #
edge $-1 $346 0 $346 6.2831853071796004 $136 $347 forward 7 unknown #
vertex $-1 $139 $348 #
ellipse-curve $-1 4.277551737191537 19.385957550498105 6.5024274396344781 0 0.83867057594974714 0.54463902268945019 1.5 0 0 1 I I #
face $-1 $-1 $155 $21 $-1 $349 reversed single #
loop $-1 $-1 $250 $140 #
plane-surface $-1 0 21.473514373194845 0 0 -1 0 0 0 -1 forward_v I I I I #
coedge $-1 $350 $248 $251 $351 forward $141 $-1 #
coedge $-1 $254 $143 $144 $242 reversed $87 $-1 #
coedge $-1 $248 $350 $143 $240 reversed $141 $-1 #
edge $-1 $255 -9.7169831543049181 $352 9.7169831543049181 $239 $353 forward 7 unknown #
coedge $-1 $145 $144 $350 $354 forward $57 $-1 #
edge $-1 $246 -51.713003936887723 $352 51.713003936887723 $238 $355 forward 7 unknown #
coedge $-1 $251 $250 $145 $244 reversed $235 $-1 #
edge $-1 $356 -51.713003936887723 $245 51.713003936887723 $243 $357 forward 7 unknown #
vertex $-1 $147 $358 #
vertex $-1 $257 $359 #
straight-curve $-1 51.713003936887723 0 -9.7169831543049181 0 -1 0 I I #
coedge $-1 $237 $239 $148 $249 reversed $141 $-1 #
edge $-1 $252 -21.473514373194845 $255 21.473514373194845 $248 $360 forward 7 unknown #
coedge $-1 $243 $149 $154 $258 forward $235 $-1 #
coedge $-1 $149 $243 $237 $351 reversed $235 $-1 #
vertex $-1 $150 $361 #
straight-curve $-1 0 21.473514373194845 9.7169831543049181 -1 0 0 I I #
coedge $-1 $151 $238 $153 $257 reversed $87 $-1 #
vertex $-1 $249 $362 #
straight-curve $-1 0 -21.473514373194845 9.7169831543049181 1 0 0 I I #
edge $-1 $156 -9.7169831543049181 $246 9.7169831543049181 $153 $363 forward 7 unknown #
edge $-1 $157 -9.7169831543049181 $245 9.7169831543049181 $154 $364 forward 7 unknown #
point $-1 51.713003936887723 -21.473514373194845 9.7169831543049181 #
point $-1 51.713003936887723 21.473514373194845 9.7169831543049181 #
face $-1 $-1 $274 $22 $-1 $365 reversed single #
plane-surface $-1 0 0 9.7169831543049181 0 0 1 1 0 0 forward_v I I I I #
coedge $-1 $366 $367 $266 $368 forward $160 $-1 #
coedge $-1 $369 $162 $164 $269 forward $95 $-1 #
coedge $-1 $162 $369 $170 $278 reversed $95 $-1 #
coedge $-1 $164 $163 $263 $368 reversed $61 $-1 #
coedge $-1 $167 $370 $163 $268 forward $274 $-1 #
edge $-1 $371 -28.106027902567899 $271 -19.107924166071751 $267 $372 forward 7 unknown #
edge $-1 $270 19.107924166071751 $373 28.106027902567899 $264 $374 forward 7 unknown #
vertex $-1 $269 $375 #
vertex $-1 $268 $376 #
straight-curve $-1 -42.714900200391575 0 5.911266072715005 0 -1 0 I I #
coedge $-1 $370 $167 $171 $279 reversed $274 $-1 #
loop $-1 $-1 $167 $261 #
straight-curve $-1 -42.714900200391575 -21.473514373194845 3.9070623067549812 0 0 1 I I #
straight-curve $-1 -42.714900200391575 21.473514373194845 3.9070623067549812 0 0 -1 I I #
coedge $-1 $171 $170 $377 $378 forward $172 $-1 #
edge $-1 $174 42.714900200391575 $379 51.713003936887723 $265 $380 forward 7 unknown #
edge $-1 $381 -51.713003936887723 $173 -42.714900200391575 $273 $382 forward 7 unknown #
point $-1 -42.714900200391575 -21.473514373194845 9.7169831543049199 #
point $-1 -42.714900200391575 21.473514373194845 9.7169831543049199 #
face $-1 $-1 $191 $23 $-1 $383 reversed single #
loop $-1 $-1 $182 $176 #
plane-surface $-1 0 21.473514373194845 0 0 -1 0 0 0 -1 forward_v I I I I #
coedge $-1 $185 $384 $289 $385 forward $177 $-1 #
coedge $-1 $386 $179 $384 $387 forward $103 $-1 #
coedge $-1 $179 $386 $291 $388 forward $103 $-1 #
edge $-1 $293 -21.473514373194845 $389 21.473514373194845 $179 $390 forward 7 unknown #
coedge $-1 $181 $180 $285 $385 reversed $65 $-1 #
edge $-1 $296 -21.473514373194845 $292 21.473514373194845 $180 $391 forward 7 unknown #
coedge $-1 $298 $182 $287 $388 reversed $283 $-1 #
vertex $-1 $188 $392 #
vertex $-1 $183 $393 #
straight-curve $-1 42.714900200391575 21.473514373194845 3.9070623067549812 0 0 1 I I #
coedge $-1 $384 $185 $190 $302 reversed $177 $-1 #
vertex $-1 $186 $394 #
straight-curve $-1 23.606976034319825 -21.473514373194845 5.911266072715005 1 0 0 I I #
coedge $-1 $187 $291 $189 $301 forward $283 $-1 #
straight-curve $-1 23.606976034319825 21.473514373194845 5.911266072715005 -1 0 0 I I #
coedge $-1 $190 $189 $386 $395 reversed $191 $-1 #
edge $-1 $396 -9.7169831543049181 $193 -5.911266072715005 $189 $397 forward 7 unknown #
edge $-1 $398 -9.7169831543049181 $192 -5.911266072715005 $190 $399 forward 7 unknown #
point $-1 51.713003936887723 -21.473514373194845 5.911266072715005 #
point $-1 51.713003936887723 21.473514373194845 5.911266072715005 #
loop $-1 $-1 $204 $195 #
plane-surface $-1 -42.714900200391575 0 7.8141246135099625 -1 0 0 0 0 1 forward_v I I I I #
coedge $-1 $400 $198 $203 $313 forward $111 $-1 #
coedge $-1 $198 $400 $310 $401 reversed $111 $-1 #
edge $-1 $311 38.101077299731813 $318 44.530188729072705 $198 $402 forward 7 unknown #
coedge $-1 $207 $201 $308 $401 forward $196 $-1 #
vertex $-1 $401 $403 #
straight-curve $-1 -34.159796726008508 42.411618100513884 9.7169831543049199 0 1 0 I I #
edge $-1 $318 14.941122494408489 $316 23.496225968791549 $307 $404 forward 7 unknown #
coedge $-1 $315 $204 $207 $320 reversed $305 $-1 #
coedge $-1 $204 $314 $400 $405 reversed $305 $-1 #
vertex $-1 $405 $406 #
straight-curve $-1 -42.714900200391575 5.5596039018311547 27.793145685550961 0 -0.54463902268945019 0.83867057594974714 I I #
vertex $-1 $313 $407 #
straight-curve $-1 -34.159796726008508 -1.9171133906545634 39.306281059029025 0 -0.54463902268945019 0.83867057594974714 I I #
edge $-1 $408 -21.473514373194845 $208 -17.298400727801369 $207 $409 forward 7 unknown #
point $-1 -42.714900200391568 17.298400727801369 9.7169831543049199 #
point $-1 -34.159796726008508 17.298400727801369 9.7169831543049199 #
edge $-1 $410 1 $410 0 $211 $-1 forward 7 unknown #
vertex $-1 $212 $411 #
ellipse-curve $-1 -38.437348463200038 15.619272919325139 4.0563139176735739 0 0.83867057594974714 0.54463902268945019 1.5 0 0 1 I I #
point $-1 -36.937348463200038 19.385957550498105 6.5024274396344781 #
loop $-1 $-1 $223 $215 #
plane-surface $-1 0 21.473514373194845 0 0 -1 0 0 0 -1 forward_v I I I I #
coedge $-1 $330 $218 $220 $334 reversed $126 $-1 #
coedge $-1 $218 $329 $412 $413 reversed $126 $-1 #
coedge $-1 $226 $221 $218 $332 forward $216 $-1 #
edge $-1 $335 -25.113217372712516 $414 -20.938103727319039 $331 $415 forward 7 unknown #
coedge $-1 $220 $219 $338 $416 reversed $78 $-1 #
edge $-1 $417 -42.947028746389705 $335 -35.28119234565478 $329 $418 forward 7 unknown #
vertex $-1 $222 $419 #
straight-curve $-1 2.1387758685957685 17.298400727801369 9.7169831543049199 1 0 0 I I #
coedge $-1 $412 $223 $226 $342 reversed $327 $-1 #
coedge $-1 $223 $412 $333 $416 forward $327 $-1 #
vertex $-1 $224 $420 #
straight-curve $-1 6.2172489379008766e-015 21.473514373194845 47.818060454036733 0 0 1 I I #
straight-curve $-1 6.2172489379008766e-015 -1.9171133906545634 39.306281059029025 0 0.54463902268945019 -0.83867057594974714 I I #
edge $-1 $414 -8.555103474383067 $227 -6.2172489379008766e-015 $337 $421 forward 7 unknown #
point $-1 6.2172489379008766e-015 21.473514373194845 9.7169831543049181 #
point $-1 6.2172489379008766e-015 17.298400727801369 9.7169831543049199 #
edge $-1 $422 1 $422 0 $230 $-1 forward 7 unknown #
vertex $-1 $231 $423 #
ellipse-curve $-1 4.277551737191537 15.619272919325139 4.0563139176735739 0 0.83867057594974714 0.54463902268945019 1.5 0 0 1 I I #
point $-1 5.777551737191537 19.385957550498105 6.5024274396344781 #
plane-surface $-1 51.713003936887723 0 0 -1 0 0 0 0 1 forward_v I I I I #
coedge $-1 $239 $237 $241 $354 reversed $141 $-1 #
edge $-1 $252 -9.7169831543049181 $356 9.7169831543049181 $251 $424 forward 7 unknown #
vertex $-1 $354 $425 #
straight-curve $-1 -51.713003936887723 -21.473514373194845 0 0 0 -1 I I #
edge $-1 $352 -21.473514373194845 $356 21.473514373194845 $350 $426 forward 7 unknown #
straight-curve $-1 0 -21.473514373194845 -9.7169831543049181 -1 0 0 I I #
vertex $-1 $244 $427 #
straight-curve $-1 0 21.473514373194845 -9.7169831543049181 1 0 0 I I #
point $-1 51.713003936887723 21.473514373194845 -9.7169831543049181 #
point $-1 51.713003936887723 -21.473514373194845 -9.7169831543049181 #
straight-curve $-1 -51.713003936887723 0 9.7169831543049181 0 -1 0 I I #
point $-1 -51.713003936887723 21.473514373194845 9.7169831543049181 #
point $-1 -51.713003936887723 -21.473514373194845 9.7169831543049181 #
straight-curve $-1 51.713003936887723 -21.473514373194845 0 0 0 -1 I I #
straight-curve $-1 51.713003936887723 21.473514373194845 0 0 0 -1 I I #
plane-surface $-1 0 -21.473514373194845 0 0 1 0 0 0 1 forward_v I I I I #
coedge $-1 $377 $263 $370 $428 reversed $160 $-1 #
coedge $-1 $263 $377 $369 $429 forward $160 $-1 #
edge $-1 $373 -21.473514373194845 $371 21.473514373194845 $263 $430 forward 7 unknown #
coedge $-1 $265 $264 $367 $429 reversed $95 $-1 #
coedge $-1 $267 $273 $366 $428 forward $274 $-1 #
vertex $-1 $368 $431 #
straight-curve $-1 -23.606976034319825 -21.473514373194845 5.911266072715005 1 0 0 I I #
vertex $-1 $368 $432 #
straight-curve $-1 -23.606976034319825 21.473514373194845 5.911266072715005 -1 0 0 I I #
point $-1 -42.714900200391575 21.473514373194845 5.911266072715005 #
point $-1 -42.714900200391575 -21.473514373194845 5.911266072715005 #
coedge $-1 $367 $366 $277 $378 reversed $160 $-1 #
edge $-1 $379 -21.473514373194845 $381 21.473514373194845 $377 $433 forward 7 unknown #
vertex $-1 $278 $434 #
straight-curve $-1 0 21.473514373194845 9.7169831543049181 -1 0 0 I I #
vertex $-1 $378 $435 #
straight-curve $-1 0 -21.473514373194845 9.7169831543049181 1 0 0 I I #
plane-surface $-1 51.713003936887723 0 0 -1 0 0 0 0 1 forward_v I I I I #
coedge $-1 $285 $295 $286 $387 reversed $177 $-1 #
edge $-1 $389 -5.8099208475499386 $296 -2.0042037659600238 $285 $436 forward 7 unknown #
coedge $-1 $287 $286 $300 $395 forward $103 $-1 #
edge $-1 $389 42.714900200391575 $398 51.713003936887723 $384 $437 forward 7 unknown #
edge $-1 $396 -51.713003936887723 $293 -42.714900200391575 $291 $438 forward 7 unknown #
vertex $-1 $387 $439 #
straight-curve $-1 42.714900200391575 0 9.7169831543049181 0 -1 0 I I #
straight-curve $-1 42.714900200391575 0 5.911266072715005 0 1 0 I I #
point $-1 42.714900200391575 21.473514373194845 5.911266072715005 #
point $-1 42.714900200391575 21.473514373194845 9.7169831543049199 #
point $-1 42.714900200391575 -21.473514373194845 5.911266072715005 #
edge $-1 $398 -21.473514373194845 $396 21.473514373194845 $300 $440 forward 7 unknown #
vertex $-1 $395 $441 #
straight-curve $-1 51.713003936887723 21.473514373194845 0 0 0 -1 I I #
vertex $-1 $395 $442 #
straight-curve $-1 51.713003936887723 -21.473514373194845 0 0 0 -1 I I #
coedge $-1 $308 $307 $315 $405 forward $111 $-1 #
edge $-1 $311 34.159796726008508 $408 42.714900200391575 $308 $443 forward 7 unknown #
straight-curve $-1 -34.159796726008508 21.473514373194845 47.818060454036733 0 0 -1 I I #
point $-1 -34.159796726008508 21.473514373194845 9.7169831543049181 #
straight-curve $-1 -19.218674231600019 21.473514373194845 3.2878717249640275 -1 0 0 I I #
edge $-1 $316 -44.530188729072705 $408 -38.101077299731813 $400 $444 forward 7 unknown #
point $-1 -42.714900200391568 21.473514373194845 3.2878717249640275 #
point $-1 -34.159796726008508 21.473514373194845 3.2878717249640275 #
vertex $-1 $320 $445 #
straight-curve $-1 -42.714900200391575 0 9.7169831543049181 0 -1 0 I I #
vertex $-1 $323 $446 #
point $-1 -36.937348463200038 15.619272919325139 4.0563139176735739 #
coedge $-1 $338 $337 $330 $413 forward $327 $-1 #
edge $-1 $414 38.101077299731813 $417 44.530188729072705 $412 $447 forward 7 unknown #
vertex $-1 $342 $448 #
straight-curve $-1 8.555103474383067 42.411618100513884 9.7169831543049199 0 1 0 I I #
edge $-1 $417 -6.4163276057872984 $339 2.1387758685957623 $338 $449 forward 7 unknown #
vertex $-1 $416 $450 #
straight-curve $-1 8.555103474383067 -1.9171133906545634 39.306281059029025 0 -0.54463902268945019 0.83867057594974714 I I #
point $-1 8.555103474383067 17.298400727801369 9.7169831543049199 #
point $-1 6.2172489379008766e-015 21.473514373194845 3.2878717249640275 #
straight-curve $-1 0 21.473514373194845 9.7169831543049181 -1 0 0 I I #
vertex $-1 $345 $451 #
point $-1 5.777551737191537 15.619272919325139 4.0563139176735739 #
straight-curve $-1 -51.713003936887723 21.473514373194845 0 0 0 -1 I I #
point $-1 -51.713003936887723 -21.473514373194845 -9.7169831543049181 #
straight-curve $-1 -51.713003936887723 0 -9.7169831543049181 0 1 0 I I #
point $-1 -51.713003936887723 21.473514373194845 -9.7169831543049181 #
edge $-1 $381 -9.7169831543049181 $371 -5.911266072715005 $366 $452 forward 7 unknown #
edge $-1 $379 -9.7169831543049181 $373 -5.911266072715005 $369 $453 forward 7 unknown #
straight-curve $-1 -51.713003936887723 0 5.911266072715005 0 -1 0 I I #
point $-1 -51.713003936887723 -21.473514373194845 5.911266072715005 #
point $-1 -51.713003936887723 21.473514373194845 5.911266072715005 #
straight-curve $-1 -51.713003936887723 0 9.7169831543049181 0 -1 0 I I #
point $-1 -51.713003936887723 21.473514373194845 9.7169831543049181 #
point $-1 -51.713003936887723 -21.473514373194845 9.7169831543049181 #
straight-curve $-1 42.714900200391575 -21.473514373194845 3.9070623067549812 0 0 -1 I I #
straight-curve $-1 0 -21.473514373194845 9.7169831543049181 1 0 0 I I #
straight-curve $-1 0 21.473514373194845 9.7169831543049181 -1 0 0 I I #
point $-1 42.714900200391575 -21.473514373194845 9.7169831543049199 #
straight-curve $-1 51.713003936887723 0 9.7169831543049181 0 1 0 I I #
point $-1 51.713003936887723 21.473514373194845 9.7169831543049181 #
point $-1 51.713003936887723 -21.473514373194845 9.7169831543049181 #
straight-curve $-1 0 21.473514373194845 9.7169831543049181 -1 0 0 I I #
straight-curve $-1 -42.714900200391568 21.473514373194845 47.818060454036733 0 0 1 I I #
point $-1 -42.714900200391575 21.473514373194845 9.7169831543049199 #
point $-1 -38.437348463200038 14.36126705540052 3.2393553836393987 #
straight-curve $-1 8.555103474383067 21.473514373194845 47.818060454036733 0 0 -1 I I #
point $-1 8.555103474383067 21.473514373194845 9.7169831543049181 #
straight-curve $-1 2.1387758685957685 21.473514373194845 3.2878717249640275 -1 0 0 I I #
point $-1 8.555103474383067 21.473514373194845 3.2878717249640275 #
point $-1 4.277551737191537 14.36126705540052 3.2393553836393987 #
straight-curve $-1 -51.713003936887723 -21.473514373194845 0 0 0 -1 I I #
straight-curve $-1 -51.713003936887723 21.473514373194845 0 0 0 -1 I I #
End-of-ACIS-data 