500 0 5 0           
7 Unknown 11 ACIS 5.0 NT 24 Fri Mar 26 18:22:05 1999 
-1 9.9999999999999995e-007 1e-010 
body $-1 $5 $-1 $6 #
body $-1 $7 $-1 $8 #
body $-1 $9 $-1 $10 #
body $-1 $11 $-1 $12 #
body $-1 $13 $-1 $14 #
lump $-1 $-1 $15 $0 #
transform $-1 1 0 0 0 1 0 0 0 1 63.744621112704856 38.799069122406593 13.27151483314791 1 rotate no_reflect no_shear #
lump $-1 $-1 $16 $1 #
transform $-1 1 0 0 0 1 0 0 0 1 63.744621112704856 38.799069122406593 13.27151483314791 1 rotate no_reflect no_shear #
lump $-1 $-1 $17 $2 #
transform $-1 1 0 0 0 1 0 0 0 1 63.744621112704856 38.799069122406593 13.27151483314791 1 rotate no_reflect no_shear #
lump $-1 $-1 $18 $3 #
transform $-1 1 0 0 0 1 0 0 0 1 63.744621112704856 38.799069122406593 13.27151483314791 1 rotate no_reflect no_shear #
lump $-1 $-1 $19 $4 #
transform $-1 1 0 0 0 1 0 0 0 1 63.744621112704856 38.799069122406593 13.27151483314791 1 rotate no_reflect no_shear #
shell $-1 $-1 $-1 $20 $-1 $5 #
shell $-1 $-1 $-1 $21 $-1 $7 #
shell $-1 $-1 $-1 $22 $-1 $9 #
shell $-1 $-1 $-1 $23 $-1 $11 #
shell $-1 $-1 $-1 $24 $-1 $13 #
face $-1 $25 $26 $15 $-1 $27 forward single #
face $-1 $28 $29 $16 $-1 $30 reversed single #
face $-1 $31 $32 $17 $-1 $33 reversed single #
face $-1 $34 $35 $18 $-1 $36 forward single #
face $-1 $37 $38 $19 $-1 $39 forward single #
face $-1 $40 $41 $15 $-1 $42 reversed single #
loop $-1 $-1 $43 $20 #
plane-surface $-1 0 0 13.27151483314791 0 0 1 1 0 0 forward_v I I I I #
face $-1 $44 $45 $16 $-1 $46 reversed single #
loop $-1 $-1 $47 $21 #
plane-surface $-1 0 -31.911494361638386 9.9458393579754016 0 0 1 1 0 0 forward_v I I I I #
face $-1 $48 $49 $17 $-1 $50 reversed single #
loop $-1 $-1 $51 $22 #
plane-surface $-1 48.030702671695344 -17.5559267707693 186.7765719642673 0 -1 0 -0.64278761758704617 0 -0.76604443648966558 forward_v I I I I #
face $-1 $52 $53 $18 $-1 $54 forward single #
loop $-1 $55 $56 $23 #
cone-surface $-1 59.781749923517481 -22.890207363698497 9.8318268056732219 -0.64278761758704617 0 -0.76604443648966558 0.38302221824483279 0 -0.32139380879352308 1 I I 0 1 0.5 forward I I I I #
face $-1 $57 $58 $19 $-1 $59 forward single #
loop $-1 $60 $61 $24 #
cone-surface $-1 59.781749923517481 -19.689639007940979 9.8318268056732219 -0.64278761758704617 0 -0.76604443648966558 0.38302221824483279 0 -0.32139380879352308 1 I I 0 1 0.5 forward I I I I #
face $-1 $62 $63 $15 $-1 $64 reversed single #
loop $-1 $-1 $65 $25 #
plane-surface $-1 0 0 -13.27151483314791 0 0 1 1 0 0 forward_v I I I I #
coedge $-1 $66 $67 $68 $69 forward $26 $-1 #
face $-1 $70 $71 $16 $-1 $72 reversed single #
loop $-1 $-1 $73 $28 #
plane-surface $-1 0 -25.02391960087018 11.608677095561655 0 -1 0 0 0 -1 forward_v I I I I #
coedge $-1 $74 $75 $76 $77 reversed $29 $-1 #
face $-1 $78 $79 $17 $-1 $80 forward single #
loop $-1 $-1 $81 $31 #
plane-surface $-1 -33.917803606353608 -21.289923185819738 89.114147245208841 0.64278761758704617 0 0.76604443648966558 0.76604443648966558 0 -0.64278761758704617 forward_v I I I I #
coedge $-1 $82 $83 $84 $85 reversed $32 $-1 #
face $-1 $-1 $86 $18 $-1 $87 forward single #
loop $-1 $88 $89 $34 #
cone-surface $-1 59.296530311587453 -22.890207363698497 9.2535646020701225 -0.64278761758704617 0 -0.76604443648966558 0.1915111091224164 0 -0.16069690439676154 1 I I -0.70710678118654746 0.70710678118654746 0.25 forward I I I I #
loop $-1 $-1 $90 $23 #
coedge $-1 $56 $56 $91 $92 reversed $35 $-1 #
face $-1 $-1 $93 $19 $-1 $94 forward single #
loop $-1 $95 $96 $37 #
cone-surface $-1 59.296530311587453 -19.689639007940979 9.2535646020701225 -0.64278761758704617 0 -0.76604443648966558 0.1915111091224164 0 -0.16069690439676154 1 I I -0.70710678118654746 0.70710678118654746 0.25 forward I I I I #
loop $-1 $-1 $97 $24 #
coedge $-1 $61 $61 $98 $99 reversed $38 $-1 #
face $-1 $100 $101 $15 $-1 $102 reversed single #
loop $-1 $-1 $103 $40 #
plane-surface $-1 0 -38.799069122406593 0 0 1 0 0 0 1 forward_v I I I I #
coedge $-1 $104 $105 $106 $107 forward $41 $-1 #
coedge $-1 $108 $43 $109 $110 forward $26 $-1 #
coedge $-1 $43 $108 $111 $112 forward $26 $-1 #
coedge $-1 $113 $114 $43 $69 reversed $115 $-1 #
edge $-1 $116 -38.799069122406593 $117 38.799069122406593 $68 $118 forward 7 unknown #
face $-1 $119 $120 $16 $-1 $121 reversed single #
loop $-1 $-1 $122 $44 #
plane-surface $-1 -63.744621112704856 0 0 1 0 0 0 0 -1 forward_v I I I I #
coedge $-1 $123 $124 $75 $125 reversed $45 $-1 #
coedge $-1 $126 $47 $127 $128 reversed $29 $-1 #
coedge $-1 $47 $126 $73 $125 forward $29 $-1 #
coedge $-1 $129 $130 $47 $77 forward $131 $-1 #
edge $-1 $132 -22.843321941587398 $133 -9.0681724200509866 $76 $134 forward 7 unknown #
face $-1 $135 $136 $17 $-1 $137 forward single #
loop $-1 $-1 $138 $48 #
plane-surface $-1 0 -25.02391960087018 11.608677095561655 0 -1 0 0 0 -1 forward_v I I I I #
coedge $-1 $139 $140 $141 $142 reversed $49 $-1 #
coedge $-1 $83 $51 $143 $144 reversed $32 $-1 #
coedge $-1 $51 $82 $139 $145 reversed $32 $-1 #
coedge $-1 $141 $146 $51 $85 forward $136 $-1 #
edge $-1 $147 -39.72926977685718 $148 -32.452572813548983 $84 $149 forward 7 unknown #
loop $-1 $-1 $91 $52 #
plane-surface $-1 -33.917803606353608 -21.289923185819738 89.114147245208841 0.64278761758704617 0 0.76604443648966558 0.76604443648966558 0 -0.64278761758704617 forward_v I I I I #
loop $-1 $-1 $150 $34 #
coedge $-1 $89 $89 $90 $151 reversed $53 $-1 #
coedge $-1 $90 $90 $89 $151 forward $55 $-1 #
coedge $-1 $91 $91 $56 $92 forward $86 $-1 #
edge $-1 $152 0 $152 6.2831853071796004 $91 $153 forward 7 unknown #
loop $-1 $-1 $98 $57 #
plane-surface $-1 -33.917803606353608 -21.289923185819738 89.114147245208841 0.64278761758704617 0 0.76604443648966558 0.76604443648966558 0 -0.64278761758704617 forward_v I I I I #
loop $-1 $-1 $154 $37 #
coedge $-1 $96 $96 $97 $155 reversed $58 $-1 #
coedge $-1 $97 $97 $96 $155 forward $60 $-1 #
coedge $-1 $98 $98 $61 $99 forward $93 $-1 #
edge $-1 $156 0 $156 6.2831853071796004 $98 $157 forward 7 unknown #
face $-1 $158 $159 $15 $-1 $160 reversed single #
loop $-1 $-1 $161 $62 #
plane-surface $-1 -63.744621112704856 0 0 1 0 0 0 0 -1 forward_v I I I I #
coedge $-1 $162 $111 $163 $164 forward $63 $-1 #
coedge $-1 $165 $65 $162 $166 forward $41 $-1 #
coedge $-1 $65 $165 $167 $168 forward $41 $-1 #
coedge $-1 $114 $113 $65 $107 reversed $115 $-1 #
edge $-1 $169 -38.799069122406593 $170 38.799069122406593 $106 $171 forward 7 unknown #
coedge $-1 $67 $66 $172 $173 forward $26 $-1 #
coedge $-1 $174 $175 $66 $110 reversed $159 $-1 #
edge $-1 $117 -63.744621112704856 $176 63.744621112704856 $109 $177 forward 7 unknown #
coedge $-1 $103 $178 $67 $112 reversed $63 $-1 #
edge $-1 $179 -63.744621112704856 $116 63.744621112704856 $111 $180 forward 7 unknown #
coedge $-1 $106 $68 $178 $181 forward $115 $-1 #
coedge $-1 $68 $106 $174 $182 reversed $115 $-1 #
loop $-1 $-1 $113 $158 #
vertex $-1 $69 $183 #
vertex $-1 $69 $184 #
straight-curve $-1 63.744621112704856 0 13.27151483314791 0 1 0 I I #
face $-1 $185 $186 $16 $-1 $187 forward single #
loop $-1 $-1 $127 $70 #
plane-surface $-1 0 -38.799069122406593 0 0 1 0 0 0 1 forward_v I I I I #
coedge $-1 $188 $189 $123 $190 forward $71 $-1 #
coedge $-1 $191 $73 $122 $190 reversed $45 $-1 #
coedge $-1 $73 $191 $129 $192 reversed $45 $-1 #
edge $-1 $193 -63.744621112704856 $133 63.744621112704856 $73 $194 forward 7 unknown #
coedge $-1 $75 $74 $188 $195 reversed $29 $-1 #
coedge $-1 $196 $197 $74 $128 forward $120 $-1 #
edge $-1 $198 -63.744621112704856 $132 63.744621112704856 $127 $199 forward 7 unknown #
coedge $-1 $200 $76 $124 $192 forward $131 $-1 #
coedge $-1 $76 $200 $196 $201 forward $131 $-1 #
loop $-1 $-1 $129 $185 #
vertex $-1 $128 $202 #
vertex $-1 $77 $203 #
straight-curve $-1 63.744621112704856 -15.955747180819193 9.9458393579754016 0 1 0 I I #
face $-1 $-1 $204 $17 $-1 $205 reversed single #
loop $-1 $-1 $141 $78 #
plane-surface $-1 0 0 13.27151483314791 0 0 1 1 0 0 forward_v I I I I #
coedge $-1 $206 $207 $140 $208 reversed $79 $-1 #
coedge $-1 $209 $81 $83 $145 forward $49 $-1 #
coedge $-1 $81 $209 $138 $208 forward $49 $-1 #
coedge $-1 $210 $84 $81 $142 forward $136 $-1 #
edge $-1 $148 6.9109651778594312 $211 14.378958007960311 $141 $212 forward 7 unknown #
coedge $-1 $213 $214 $82 $144 forward $204 $-1 #
edge $-1 $215 -86.222645014973764 $147 -80.116771148985748 $143 $216 forward 7 unknown #
edge $-1 $148 117.99018888504077 $215 127.4892422254097 $83 $217 forward 7 unknown #
coedge $-1 $84 $210 $213 $218 forward $136 $-1 #
vertex $-1 $144 $219 #
vertex $-1 $85 $220 #
straight-curve $-1 24.015351335847672 -17.5559267707693 13.271514833147904 -1 0 0 I I #
coedge $-1 $150 $150 $-1 $221 reversed $88 $-1 #
edge $-1 $222 0 $222 6.2831853071796004 $89 $223 forward 7 unknown #
vertex $-1 $92 $224 #
ellipse-curve $-1 60.10627263105075 -22.890207363698497 10.21857790015391 0.64278761758704617 0 0.76604443648966558 0.38302221824483279 0 -0.32139380879352308 1 I I #
coedge $-1 $154 $154 $-1 $225 reversed $95 $-1 #
edge $-1 $226 0 $226 6.2831853071796004 $96 $227 forward 7 unknown #
vertex $-1 $99 $228 #
ellipse-curve $-1 60.10627263105075 -19.689639007940979 10.21857790015391 0.64278761758704617 0 0.76604443648966558 0.38302221824483279 0 -0.32139380879352308 1 I I #
face $-1 $-1 $115 $15 $-1 $229 reversed single #
loop $-1 $-1 $174 $100 #
plane-surface $-1 0 38.799069122406593 0 0 -1 0 0 0 -1 forward_v I I I I #
coedge $-1 $230 $172 $175 $231 forward $101 $-1 #
coedge $-1 $178 $103 $104 $166 reversed $63 $-1 #
coedge $-1 $172 $230 $103 $164 reversed $101 $-1 #
edge $-1 $179 -13.27151483314791 $232 13.27151483314791 $163 $233 forward 7 unknown #
coedge $-1 $105 $104 $230 $234 forward $41 $-1 #
edge $-1 $170 -63.744621112704856 $232 63.744621112704856 $162 $235 forward 7 unknown #
coedge $-1 $175 $174 $105 $168 reversed $159 $-1 #
edge $-1 $236 -63.744621112704856 $169 63.744621112704856 $167 $237 forward 7 unknown #
vertex $-1 $107 $238 #
vertex $-1 $181 $239 #
straight-curve $-1 63.744621112704856 0 -13.27151483314791 0 -1 0 I I #
coedge $-1 $161 $163 $108 $173 reversed $101 $-1 #
edge $-1 $176 -38.799069122406593 $179 38.799069122406593 $172 $240 forward 7 unknown #
coedge $-1 $167 $109 $114 $182 forward $159 $-1 #
coedge $-1 $109 $167 $161 $231 reversed $159 $-1 #
vertex $-1 $110 $241 #
straight-curve $-1 0 38.799069122406593 13.27151483314791 -1 0 0 I I #
coedge $-1 $111 $162 $113 $181 reversed $63 $-1 #
vertex $-1 $173 $242 #
straight-curve $-1 0 -38.799069122406593 13.27151483314791 1 0 0 I I #
edge $-1 $116 -13.27151483314791 $170 13.27151483314791 $113 $243 forward 7 unknown #
edge $-1 $117 -13.27151483314791 $169 13.27151483314791 $114 $244 forward 7 unknown #
point $-1 63.744621112704856 -38.799069122406593 13.27151483314791 #
point $-1 63.744621112704856 38.799069122406593 13.27151483314791 #
face $-1 $-1 $131 $16 $-1 $245 reversed single #
loop $-1 $-1 $246 $119 #
plane-surface $-1 0 0 13.27151483314791 0 0 1 1 0 0 forward_v I I I I #
coedge $-1 $247 $122 $126 $195 forward $71 $-1 #
coedge $-1 $122 $247 $248 $249 reversed $71 $-1 #
edge $-1 $250 -7.4671762853670804 $193 -4.1415008101945743 $122 $251 forward 7 unknown #
coedge $-1 $124 $123 $246 $252 reversed $45 $-1 #
edge $-1 $133 4.1415008101945743 $253 7.4671762853670804 $129 $254 forward 7 unknown #
vertex $-1 $195 $255 #
straight-curve $-1 0 -25.02391960087018 9.9458393579754016 1 0 0 I I #
edge $-1 $193 9.0681724200509866 $198 22.843321941587398 $188 $256 forward 7 unknown #
coedge $-1 $257 $127 $130 $201 reversed $120 $-1 #
coedge $-1 $127 $257 $247 $258 forward $120 $-1 #
vertex $-1 $128 $259 #
straight-curve $-1 0 -38.799069122406593 9.9458393579754016 1 0 0 I I #
coedge $-1 $130 $129 $260 $261 reversed $131 $-1 #
edge $-1 $262 -13.27151483314791 $132 -9.9458393579754016 $130 $263 forward 7 unknown #
point $-1 63.744621112704856 -38.799069122406593 9.9458393579754016 #
point $-1 63.744621112704856 -25.02391960087018 9.9458393579754016 #
loop $-1 $-1 $143 $135 #
plane-surface $-1 63.744621112704856 0 0 -1 0 0 0 0 1 forward_v I I I I #
coedge $-1 $207 $138 $264 $265 reversed $79 $-1 #
coedge $-1 $138 $206 $210 $266 reversed $79 $-1 #
edge $-1 $267 -127.4892422254097 $211 -117.99018888504077 $138 $268 forward 7 unknown #
coedge $-1 $140 $139 $214 $269 reversed $49 $-1 #
coedge $-1 $146 $141 $207 $266 forward $136 $-1 #
vertex $-1 $266 $270 #
straight-curve $-1 56.467924149396637 -10.644961592909869 13.271514833147918 0 -1 0 I I #
coedge $-1 $264 $143 $146 $218 reversed $204 $-1 #
coedge $-1 $143 $264 $209 $269 forward $204 $-1 #
vertex $-1 $144 $271 #
straight-curve $-1 63.744621112704856 -17.5559267707693 93.388285982133652 0 0 1 I I #
straight-curve $-1 -33.917803606353608 -17.5559267707693 89.114147245208841 0.76604443648966558 0 -0.64278761758704617 I I #
edge $-1 $272 -25.02391960087018 $147 -17.5559267707693 $213 $273 forward 7 unknown #
point $-1 63.744621112704856 -17.5559267707693 13.27151483314791 #
point $-1 56.467924149396659 -17.5559267707693 13.271514833147904 #
edge $-1 $274 1 $274 0 $150 $-1 forward 7 unknown #
vertex $-1 $151 $275 #
ellipse-curve $-1 59.457227215984211 -22.890207363698497 9.4450757111925387 0.64278761758704617 0 0.76604443648966558 0.38302221824483279 0 -0.32139380879352308 1 I I #
point $-1 60.489294849295575 -22.890207363698497 9.8971840913603817 #
edge $-1 $276 1 $276 0 $154 $-1 forward 7 unknown #
vertex $-1 $155 $277 #
ellipse-curve $-1 59.457227215984211 -19.689639007940979 9.4450757111925387 0.64278761758704617 0 0.76604443648966558 0.38302221824483279 0 -0.32139380879352308 1 I I #
point $-1 60.489294849295575 -19.689639007940979 9.8971840913603817 #
plane-surface $-1 63.744621112704856 0 0 -1 0 0 0 0 1 forward_v I I I I #
coedge $-1 $163 $161 $165 $234 reversed $101 $-1 #
edge $-1 $176 -13.27151483314791 $236 13.27151483314791 $175 $278 forward 7 unknown #
vertex $-1 $234 $279 #
straight-curve $-1 -63.744621112704856 -38.799069122406593 0 0 0 -1 I I #
edge $-1 $232 -38.799069122406593 $236 38.799069122406593 $230 $280 forward 7 unknown #
straight-curve $-1 0 -38.799069122406593 -13.27151483314791 -1 0 0 I I #
vertex $-1 $168 $281 #
straight-curve $-1 0 38.799069122406593 -13.27151483314791 1 0 0 I I #
point $-1 63.744621112704856 38.799069122406593 -13.27151483314791 #
point $-1 63.744621112704856 -38.799069122406593 -13.27151483314791 #
straight-curve $-1 -63.744621112704856 0 13.27151483314791 0 -1 0 I I #
point $-1 -63.744621112704856 38.799069122406593 13.27151483314791 #
point $-1 -63.744621112704856 -38.799069122406593 13.27151483314791 #
straight-curve $-1 63.744621112704856 -38.799069122406593 0 0 0 -1 I I #
straight-curve $-1 63.744621112704856 38.799069122406593 0 0 0 -1 I I #
plane-surface $-1 63.744621112704856 0 0 -1 0 0 0 0 1 forward_v I I I I #
coedge $-1 $248 $260 $191 $252 forward $186 $-1 #
coedge $-1 $189 $188 $197 $258 reversed $71 $-1 #
coedge $-1 $282 $246 $189 $249 forward $186 $-1 #
edge $-1 $250 25.02391960087018 $283 38.799069122406593 $189 $284 forward 7 unknown #
vertex $-1 $249 $285 #
straight-curve $-1 -63.744621112704856 -25.02391960087018 5.8043385477808274 0 0 -1 I I #
edge $-1 $253 -63.744621112704856 $250 63.744621112704856 $246 $286 forward 7 unknown #
vertex $-1 $192 $287 #
straight-curve $-1 63.744621112704856 -25.02391960087018 5.8043385477808274 0 0 1 I I #
point $-1 -63.744621112704856 -25.02391960087018 9.9458393579754016 #
straight-curve $-1 -63.744621112704856 -15.955747180819193 9.9458393579754016 0 -1 0 I I #
coedge $-1 $197 $196 $282 $288 reversed $120 $-1 #
edge $-1 $283 -13.27151483314791 $198 -9.9458393579754016 $247 $289 forward 7 unknown #
point $-1 -63.744621112704856 -38.799069122406593 9.9458393579754016 #
coedge $-1 $246 $282 $200 $261 forward $186 $-1 #
edge $-1 $262 -38.799069122406593 $253 -25.02391960087018 $200 $290 forward 7 unknown #
vertex $-1 $261 $291 #
straight-curve $-1 63.744621112704856 -38.799069122406593 0 0 0 -1 I I #
coedge $-1 $214 $213 $206 $265 forward $204 $-1 #
edge $-1 $272 80.116771148985748 $267 86.222645014973764 $264 $292 forward 7 unknown #
edge $-1 $211 56.467924149396659 $272 63.744621112704856 $210 $293 forward 7 unknown #
vertex $-1 $265 $294 #
straight-curve $-1 -33.917803606353608 -25.023919600870176 89.114147245208841 -0.76604443648966558 0 0.64278761758704617 I I #
edge $-1 $267 -14.378958007960307 $215 -6.9109651778594312 $214 $295 forward 7 unknown #
point $-1 56.467924149396659 -25.02391960087018 13.27151483314791 #
point $-1 63.744621112704856 -17.5559267707693 7.165640967159888 #
vertex $-1 $218 $296 #
straight-curve $-1 63.744621112704856 0 13.27151483314791 0 1 0 I I #
vertex $-1 $221 $297 #
point $-1 59.840249434229051 -22.890207363698497 9.1236819023990154 #
vertex $-1 $225 $298 #
point $-1 59.840249434229051 -19.689639007940979 9.1236819023990154 #
straight-curve $-1 -63.744621112704856 38.799069122406593 0 0 0 -1 I I #
point $-1 -63.744621112704856 -38.799069122406593 -13.27151483314791 #
straight-curve $-1 -63.744621112704856 0 -13.27151483314791 0 1 0 I I #
point $-1 -63.744621112704856 38.799069122406593 -13.27151483314791 #
coedge $-1 $260 $248 $257 $288 forward $186 $-1 #
vertex $-1 $249 $299 #
straight-curve $-1 -63.744621112704856 0 13.27151483314791 0 -1 0 I I #
point $-1 -63.744621112704856 -25.02391960087018 13.271514833147908 #
straight-curve $-1 0 -25.02391960087018 13.27151483314791 -1 0 0 I I #
point $-1 63.744621112704856 -25.02391960087018 13.271514833147908 #
edge $-1 $283 -63.744621112704856 $262 63.744621112704856 $257 $300 forward 7 unknown #
straight-curve $-1 -63.744621112704856 -38.799069122406593 0 0 0 -1 I I #
straight-curve $-1 63.744621112704856 0 13.27151483314791 0 1 0 I I #
point $-1 63.744621112704856 -38.799069122406593 13.27151483314791 #
straight-curve $-1 63.744621112704856 -25.023919600870176 93.388285982133652 0 0 -1 I I #
straight-curve $-1 0 -25.02391960087018 13.27151483314791 1 0 0 I I #
point $-1 63.744621112704856 -25.023919600870176 7.165640967159888 #
straight-curve $-1 63.744621112704849 -10.644961592909869 7.1656409671598809 0 1 0 I I #
point $-1 63.744621112704856 -25.02391960087018 13.271514833147908 #
point $-1 59.135833407190695 -22.890207363698497 9.0620534929477063 #
point $-1 59.135833407190695 -19.689639007940979 9.0620534929477063 #
point $-1 -63.744621112704856 -38.799069122406593 13.27151483314791 #
straight-curve $-1 0 -38.799069122406593 13.27151483314791 1 0 0 I I #
End-of-ACIS-data 