500 0 6 0           
7 Unknown 11 ACIS 5.0 NT 24 Fri Mar 26 02:24:46 1999 
-1 9.9999999999999995e-007 1e-010 
body $-1 $6 $-1 $7 #
body $-1 $8 $-1 $9 #
body $-1 $10 $-1 $11 #
body $-1 $12 $-1 $13 #
body $-1 $14 $-1 $15 #
body $-1 $16 $-1 $17 #
lump $-1 $-1 $18 $0 #
transform $-1 1 0 0 0 1 0 0 0 1 46.549272133548996 30.471894815216505 13.944795371674337 1 rotate no_reflect no_shear #
lump $-1 $-1 $19 $1 #
transform $-1 1 0 0 0 1 0 0 0 1 46.549272133548996 30.471894815216505 13.944795371674337 1 rotate no_reflect no_shear #
lump $-1 $-1 $20 $2 #
transform $-1 1 0 0 0 1 0 0 0 1 46.549272133548996 30.471894815216505 13.944795371674337 1 rotate no_reflect no_shear #
lump $-1 $-1 $21 $3 #
transform $-1 1 0 0 0 1 0 0 0 1 46.549272133548996 30.471894815216505 13.944795371674337 1 rotate no_reflect no_shear #
lump $-1 $-1 $22 $4 #
transform $-1 1 0 0 0 1 0 0 0 1 46.549272133548996 30.471894815216505 13.944795371674337 1 rotate no_reflect no_shear #
lump $-1 $-1 $23 $5 #
transform $-1 1 0 0 0 1 0 0 0 1 46.549272133548996 30.471894815216505 13.944795371674337 1 rotate no_reflect no_shear #
shell $-1 $-1 $-1 $24 $-1 $6 #
shell $-1 $-1 $-1 $25 $-1 $8 #
shell $-1 $-1 $-1 $26 $-1 $10 #
shell $-1 $-1 $-1 $27 $-1 $12 #
shell $-1 $-1 $-1 $28 $-1 $14 #
shell $-1 $-1 $-1 $29 $-1 $16 #
face $-1 $30 $31 $18 $-1 $32 forward single #
face $-1 $33 $34 $19 $-1 $35 forward single #
face $-1 $36 $37 $20 $-1 $38 reversed single #
face $-1 $39 $40 $21 $-1 $41 forward single #
face $-1 $42 $43 $22 $-1 $44 reversed single #
face $-1 $45 $46 $23 $-1 $47 forward single #
face $-1 $48 $49 $18 $-1 $50 reversed single #
loop $-1 $-1 $51 $24 #
plane-surface $-1 0 0 13.944795371674337 0 0 1 1 0 0 forward_v I I I I #
face $-1 $52 $53 $19 $-1 $54 reversed single #
loop $-1 $-1 $55 $25 #
plane-surface $-1 0 -25.502582061154882 -8.5094446368511836 0 0 1 1 0 0 forward_v I I I I #
face $-1 $56 $57 $20 $-1 $58 reversed single #
loop $-1 $-1 $59 $26 #
plane-surface $-1 21.42712739654992 -4.0194029904381594 129.74059275661631 0 -1 0 -0.55919291073839883 0 -0.82903756765294845 forward_v I I I I #
face $-1 $60 $61 $21 $-1 $62 forward single #
loop $-1 $63 $64 $27 #
cone-surface $-1 35.510221463600494 -9.8529590040499109 5.6330593552475658 -0.55919291073839883 0 -0.82903756765294845 1.2435563514794228 0 -0.83878936610759824 1 I I 0 1 1.5 forward I I I I #
face $-1 $65 $66 $22 $-1 $67 reversed single #
loop $-1 $-1 $68 $28 #
plane-surface $-1 21.42712739654992 21.483179070716723 129.74059275661631 0 -1 0 -0.55919291073839883 0 -0.82903756765294845 forward_v I I I I #
face $-1 $69 $70 $23 $-1 $71 forward single #
loop $-1 $72 $73 $29 #
cone-surface $-1 35.510221463600494 15.649623057104971 5.6330593552475658 -0.55919291073839883 0 -0.82903756765294845 1.2435563514794228 0 -0.83878936610759824 1 I I 0 1 1.5 forward I I I I #
face $-1 $74 $75 $18 $-1 $76 reversed single #
loop $-1 $-1 $77 $30 #
plane-surface $-1 0 0 -13.944795371674337 0 0 1 1 0 0 forward_v I I I I #
coedge $-1 $78 $79 $80 $81 forward $31 $-1 #
face $-1 $82 $83 $19 $-1 $84 reversed single #
loop $-1 $-1 $85 $33 #
plane-surface $-1 0 -20.53326930709326 -11.22712000426276 0 -1 0 0 0 -1 forward_v I I I I #
coedge $-1 $86 $87 $88 $89 reversed $34 $-1 #
face $-1 $90 $91 $20 $-1 $92 reversed single #
loop $-1 $-1 $93 $36 #
plane-surface $-1 -30.632918557676277 -9.8529590040499109 52.558402065391036 0.55919291073839883 0 0.82903756765294845 0.82903756765294845 0 -0.55919291073839883 forward_v I I I I #
coedge $-1 $94 $95 $96 $97 reversed $37 $-1 #
face $-1 $-1 $98 $21 $-1 $99 forward single #
loop $-1 $100 $101 $39 #
cone-surface $-1 34.019358928668808 -9.8529590040499109 3.4227647933358387 -0.55919291073839883 0 -0.82903756765294845 0.62177817573971139 0 -0.41939468305379912 1 I I -0.70710678118654757 0.70710678118654757 0.75 forward I I I I #
loop $-1 $-1 $102 $27 #
coedge $-1 $64 $64 $103 $104 reversed $40 $-1 #
face $-1 $105 $106 $22 $-1 $107 reversed single #
loop $-1 $-1 $108 $42 #
plane-surface $-1 -30.632918557676277 15.649623057104971 52.558402065391036 0.55919291073839883 0 0.82903756765294845 0.82903756765294845 0 -0.55919291073839883 forward_v I I I I #
coedge $-1 $109 $110 $111 $112 reversed $43 $-1 #
face $-1 $-1 $113 $23 $-1 $114 forward single #
loop $-1 $115 $116 $45 #
cone-surface $-1 34.019358928668808 15.649623057104971 3.4227647933358387 -0.55919291073839883 0 -0.82903756765294845 0.62177817573971139 0 -0.41939468305379912 1 I I -0.70710678118654757 0.70710678118654757 0.75 forward I I I I #
loop $-1 $-1 $117 $29 #
coedge $-1 $73 $73 $118 $119 reversed $46 $-1 #
face $-1 $120 $121 $18 $-1 $122 reversed single #
loop $-1 $-1 $123 $48 #
plane-surface $-1 0 -30.471894815216505 0 0 1 0 0 0 1 forward_v I I I I #
coedge $-1 $124 $125 $126 $127 forward $49 $-1 #
coedge $-1 $128 $51 $129 $130 forward $31 $-1 #
coedge $-1 $51 $128 $131 $132 forward $31 $-1 #
coedge $-1 $133 $134 $51 $81 reversed $135 $-1 #
edge $-1 $136 -30.471894815216505 $137 30.471894815216505 $80 $138 forward 7 unknown #
face $-1 $139 $140 $19 $-1 $141 reversed single #
loop $-1 $-1 $142 $52 #
plane-surface $-1 0 0 -13.944795371674337 0 0 1 1 0 0 forward_v I I I I #
coedge $-1 $143 $144 $145 $146 reversed $53 $-1 #
coedge $-1 $147 $55 $144 $148 forward $34 $-1 #
coedge $-1 $55 $147 $149 $150 reversed $34 $-1 #
coedge $-1 $151 $145 $55 $89 forward $140 $-1 #
edge $-1 $152 7.7819782765158187 $153 17.720603784639064 $88 $154 forward 7 unknown #
face $-1 $155 $156 $20 $-1 $157 reversed single #
loop $-1 $-1 $158 $56 #
plane-surface $-1 21.42712739654992 -15.686515017661662 129.74059275661631 0 1 0 0.55919291073839883 0 0.82903756765294845 forward_v I I I I #
coedge $-1 $159 $160 $161 $162 reversed $57 $-1 #
coedge $-1 $95 $59 $163 $164 reversed $37 $-1 #
coedge $-1 $59 $94 $159 $165 reversed $37 $-1 #
coedge $-1 $161 $166 $59 $97 forward $167 $-1 #
edge $-1 $168 -35.835708435274036 $169 -15.900542799132815 $96 $170 forward 7 unknown #
loop $-1 $-1 $103 $60 #
plane-surface $-1 -30.632918557676277 -9.8529590040499109 52.558402065391036 0.55919291073839883 0 0.82903756765294845 0.82903756765294845 0 -0.55919291073839883 forward_v I I I I #
loop $-1 $-1 $171 $39 #
coedge $-1 $101 $101 $102 $172 reversed $61 $-1 #
coedge $-1 $102 $102 $101 $172 forward $63 $-1 #
coedge $-1 $103 $103 $64 $104 forward $98 $-1 #
edge $-1 $173 0 $173 6.2831853071796004 $103 $174 forward 7 unknown #
face $-1 $175 $176 $22 $-1 $177 reversed single #
loop $-1 $-1 $178 $65 #
plane-surface $-1 21.42712739654992 9.81606704349322 129.74059275661631 0 1 0 0.55919291073839883 0 0.82903756765294845 forward_v I I I I #
coedge $-1 $179 $180 $181 $182 reversed $66 $-1 #
coedge $-1 $110 $68 $183 $184 reversed $43 $-1 #
coedge $-1 $68 $109 $179 $185 reversed $43 $-1 #
coedge $-1 $181 $186 $68 $112 forward $187 $-1 #
edge $-1 $188 -35.835708435274036 $189 -15.900542799132815 $111 $190 forward 7 unknown #
loop $-1 $-1 $118 $69 #
plane-surface $-1 -30.632918557676277 15.649623057104971 52.558402065391036 0.55919291073839883 0 0.82903756765294845 0.82903756765294845 0 -0.55919291073839883 forward_v I I I I #
loop $-1 $-1 $191 $45 #
coedge $-1 $116 $116 $117 $192 reversed $70 $-1 #
coedge $-1 $117 $117 $116 $192 forward $72 $-1 #
coedge $-1 $118 $118 $73 $119 forward $113 $-1 #
edge $-1 $193 0 $193 6.2831853071796004 $118 $194 forward 7 unknown #
face $-1 $195 $196 $18 $-1 $197 reversed single #
loop $-1 $-1 $198 $74 #
plane-surface $-1 -46.549272133548996 0 0 1 0 0 0 0 -1 forward_v I I I I #
coedge $-1 $199 $131 $200 $201 forward $75 $-1 #
coedge $-1 $202 $77 $199 $203 forward $49 $-1 #
coedge $-1 $77 $202 $204 $205 forward $49 $-1 #
coedge $-1 $134 $133 $77 $127 reversed $135 $-1 #
edge $-1 $206 -30.471894815216505 $207 30.471894815216505 $126 $208 forward 7 unknown #
coedge $-1 $79 $78 $209 $210 forward $31 $-1 #
coedge $-1 $211 $212 $78 $130 reversed $196 $-1 #
edge $-1 $137 -46.549272133548996 $213 46.549272133548996 $129 $214 forward 7 unknown #
coedge $-1 $123 $215 $79 $132 reversed $75 $-1 #
edge $-1 $216 -46.549272133548996 $136 46.549272133548996 $131 $217 forward 7 unknown #
coedge $-1 $126 $80 $215 $218 forward $135 $-1 #
coedge $-1 $80 $126 $211 $219 reversed $135 $-1 #
loop $-1 $-1 $133 $195 #
vertex $-1 $81 $220 #
vertex $-1 $81 $221 #
straight-curve $-1 46.549272133548996 0 13.944795371674337 0 1 0 I I #
face $-1 $222 $223 $19 $-1 $224 reversed single #
loop $-1 $-1 $145 $82 #
plane-surface $-1 46.549272133548996 0 0 -1 0 0 0 0 1 forward_v I I I I #
coedge $-1 $225 $226 $143 $227 forward $83 $-1 #
coedge $-1 $228 $85 $142 $227 reversed $53 $-1 #
coedge $-1 $85 $228 $86 $148 reversed $53 $-1 #
coedge $-1 $88 $229 $85 $146 forward $140 $-1 #
edge $-1 $230 -8.3312353695429557 $152 -2.8958846347198035 $145 $231 forward 7 unknown #
coedge $-1 $87 $86 $232 $233 reversed $34 $-1 #
edge $-1 $152 -46.549272133548996 $234 46.549272133548996 $144 $235 forward 7 unknown #
coedge $-1 $236 $237 $87 $150 forward $223 $-1 #
edge $-1 $153 -46.549272133548996 $238 46.549272133548996 $149 $239 forward 7 unknown #
coedge $-1 $229 $88 $237 $240 forward $140 $-1 #
vertex $-1 $89 $241 #
vertex $-1 $240 $242 #
straight-curve $-1 46.549272133548996 -12.751291030577441 -8.5094446368511836 0 -1 0 I I #
face $-1 $-1 $167 $20 $-1 $243 forward single #
loop $-1 $-1 $244 $90 #
plane-surface $-1 46.549272133548996 0 0 -1 0 0 0 0 1 forward_v I I I I #
coedge $-1 $245 $246 $247 $248 reversed $91 $-1 #
coedge $-1 $249 $93 $95 $165 forward $57 $-1 #
coedge $-1 $93 $249 $245 $250 forward $57 $-1 #
coedge $-1 $247 $96 $93 $162 forward $167 $-1 #
edge $-1 $169 -0.90707651158679603 $251 10.760035515636707 $161 $252 forward 7 unknown #
coedge $-1 $253 $254 $94 $164 forward $156 $-1 #
edge $-1 $255 -64.371940267143316 $168 -50.925501006633816 $163 $256 forward 7 unknown #
edge $-1 $169 69.052389528201445 $255 93.098544267097992 $95 $257 forward 7 unknown #
coedge $-1 $96 $247 $253 $258 forward $167 $-1 #
loop $-1 $-1 $247 $155 #
vertex $-1 $164 $259 #
vertex $-1 $97 $260 #
straight-curve $-1 10.71356369827496 -4.0194029904381594 13.944795371674338 -1 0 0 I I #
coedge $-1 $171 $171 $-1 $261 reversed $100 $-1 #
edge $-1 $262 0 $262 6.2831853071796004 $101 $263 forward 7 unknown #
vertex $-1 $104 $264 #
ellipse-curve $-1 36.581689315478386 -9.8529590040499109 7.2215757414195902 0.55919291073839883 0 0.82903756765294845 1.2435563514794228 0 -0.83878936610759824 1 I I #
face $-1 $-1 $187 $22 $-1 $265 forward single #
loop $-1 $-1 $266 $105 #
plane-surface $-1 46.549272133548996 0 0 -1 0 0 0 0 1 forward_v I I I I #
coedge $-1 $267 $268 $269 $270 reversed $106 $-1 #
coedge $-1 $271 $108 $110 $185 forward $66 $-1 #
coedge $-1 $108 $271 $267 $272 forward $66 $-1 #
coedge $-1 $269 $111 $108 $182 forward $187 $-1 #
edge $-1 $189 -13.658367542164237 $273 -1.9912555149407343 $181 $274 forward 7 unknown #
coedge $-1 $275 $276 $109 $184 forward $176 $-1 #
edge $-1 $277 -64.371940267143316 $188 -50.925501006633816 $183 $278 forward 7 unknown #
edge $-1 $189 69.052389528201445 $277 93.098544267097992 $110 $279 forward 7 unknown #
coedge $-1 $111 $269 $275 $280 forward $187 $-1 #
loop $-1 $-1 $269 $175 #
vertex $-1 $184 $281 #
vertex $-1 $112 $282 #
straight-curve $-1 10.71356369827496 21.483179070716723 13.944795371674338 -1 0 0 I I #
coedge $-1 $191 $191 $-1 $283 reversed $115 $-1 #
edge $-1 $284 0 $284 6.2831853071796004 $116 $285 forward 7 unknown #
vertex $-1 $119 $286 #
ellipse-curve $-1 36.581689315478386 15.649623057104971 7.2215757414195902 0.55919291073839883 0 0.82903756765294845 1.2435563514794228 0 -0.83878936610759824 1 I I #
face $-1 $-1 $135 $18 $-1 $287 reversed single #
loop $-1 $-1 $211 $120 #
plane-surface $-1 0 30.471894815216505 0 0 -1 0 0 0 -1 forward_v I I I I #
coedge $-1 $288 $209 $212 $289 forward $121 $-1 #
coedge $-1 $215 $123 $124 $203 reversed $75 $-1 #
coedge $-1 $209 $288 $123 $201 reversed $121 $-1 #
edge $-1 $216 -13.944795371674337 $290 13.944795371674337 $200 $291 forward 7 unknown #
coedge $-1 $125 $124 $288 $292 forward $49 $-1 #
edge $-1 $207 -46.549272133548996 $290 46.549272133548996 $199 $293 forward 7 unknown #
coedge $-1 $212 $211 $125 $205 reversed $196 $-1 #
edge $-1 $294 -46.549272133548996 $206 46.549272133548996 $204 $295 forward 7 unknown #
vertex $-1 $127 $296 #
vertex $-1 $218 $297 #
straight-curve $-1 46.549272133548996 0 -13.944795371674337 0 -1 0 I I #
coedge $-1 $198 $200 $128 $210 reversed $121 $-1 #
edge $-1 $213 -30.471894815216505 $216 30.471894815216505 $209 $298 forward 7 unknown #
coedge $-1 $204 $129 $134 $219 forward $196 $-1 #
coedge $-1 $129 $204 $198 $289 reversed $196 $-1 #
vertex $-1 $130 $299 #
straight-curve $-1 0 30.471894815216505 13.944795371674337 -1 0 0 I I #
coedge $-1 $131 $199 $133 $218 reversed $75 $-1 #
vertex $-1 $210 $300 #
straight-curve $-1 0 -30.471894815216505 13.944795371674337 1 0 0 I I #
edge $-1 $136 -13.944795371674337 $207 13.944795371674337 $133 $301 forward 7 unknown #
edge $-1 $137 -13.944795371674337 $206 13.944795371674337 $134 $302 forward 7 unknown #
point $-1 46.549272133548996 -30.471894815216505 13.944795371674337 #
point $-1 46.549272133548996 30.471894815216505 13.944795371674337 #
face $-1 $-1 $303 $19 $-1 $304 reversed single #
loop $-1 $-1 $149 $139 #
plane-surface $-1 0 -30.471894815216505 0 0 1 0 0 0 1 forward_v I I I I #
coedge $-1 $305 $142 $229 $306 forward $83 $-1 #
coedge $-1 $142 $305 $307 $308 forward $83 $-1 #
edge $-1 $309 -46.549272133548996 $230 46.549272133548996 $142 $310 forward 7 unknown #
coedge $-1 $144 $143 $311 $312 reversed $53 $-1 #
coedge $-1 $145 $151 $225 $306 reversed $140 $-1 #
vertex $-1 $306 $313 #
straight-curve $-1 46.549272133548996 -20.53326930709326 -5.6135600021313801 0 0 1 I I #
coedge $-1 $311 $314 $147 $233 forward $303 $-1 #
edge $-1 $238 -17.720603784639064 $234 -7.7819782765158187 $232 $315 forward 7 unknown #
vertex $-1 $233 $316 #
straight-curve $-1 0 -20.53326930709326 -8.5094446368511836 -1 0 0 I I #
coedge $-1 $317 $149 $314 $318 forward $223 $-1 #
coedge $-1 $149 $317 $151 $240 reversed $223 $-1 #
vertex $-1 $318 $319 #
straight-curve $-1 0 -30.471894815216505 -8.5094446368511836 -1 0 0 I I #
edge $-1 $153 8.5094446368511836 $320 13.944795371674337 $151 $321 forward 7 unknown #
point $-1 46.549272133548996 -20.53326930709326 -8.5094446368511836 #
point $-1 46.549272133548996 -30.471894815216505 -8.5094446368511836 #
plane-surface $-1 0 0 13.944795371674337 0 0 1 1 0 0 forward_v I I I I #
coedge $-1 $254 $253 $246 $322 forward $156 $-1 #
coedge $-1 $246 $158 $160 $250 reversed $91 $-1 #
coedge $-1 $158 $245 $244 $322 reversed $91 $-1 #
coedge $-1 $166 $161 $158 $248 forward $167 $-1 #
edge $-1 $251 15.900542799132815 $323 35.835708435274036 $247 $324 forward 7 unknown #
coedge $-1 $160 $159 $254 $325 reversed $57 $-1 #
edge $-1 $326 -93.098544267097992 $251 -69.052389528201445 $245 $327 forward 7 unknown #
vertex $-1 $162 $328 #
straight-curve $-1 26.614106497407764 -4.9264795020249554 13.944795371674335 0 -1 0 I I #
coedge $-1 $244 $163 $166 $258 reversed $156 $-1 #
coedge $-1 $163 $244 $249 $325 forward $156 $-1 #
vertex $-1 $164 $329 #
straight-curve $-1 46.549272133548996 -4.0194029904381594 64.870296378308154 0 0 1 I I #
straight-curve $-1 -30.632918557676277 -4.0194029904381594 52.558402065391036 0.82903756765294845 0 -0.55919291073839883 I I #
edge $-1 $323 -15.686515017661662 $168 -4.0194029904381594 $253 $330 forward 7 unknown #
point $-1 46.549272133548996 -4.0194029904381594 13.944795371674337 #
point $-1 26.614106497407775 -4.0194029904381594 13.944795371674338 #
edge $-1 $331 1 $331 0 $171 $-1 forward 7 unknown #
vertex $-1 $172 $332 #
ellipse-curve $-1 34.438753611722611 -9.8529590040499109 4.0445429690755503 0.55919291073839883 0 0.82903756765294845 1.2435563514794228 0 -0.83878936610759824 1 I I #
point $-1 37.825245666957798 -9.8529590040499109 6.3827863753119836 #
plane-surface $-1 0 0 13.944795371674337 0 0 1 1 0 0 forward_v I I I I #
coedge $-1 $276 $275 $268 $333 forward $176 $-1 #
coedge $-1 $268 $178 $180 $272 reversed $106 $-1 #
coedge $-1 $178 $267 $266 $333 reversed $106 $-1 #
coedge $-1 $186 $181 $178 $270 forward $187 $-1 #
edge $-1 $273 15.900542799132815 $334 35.835708435274036 $269 $335 forward 7 unknown #
coedge $-1 $180 $179 $276 $336 reversed $66 $-1 #
edge $-1 $337 -93.098544267097992 $273 -69.052389528201445 $267 $338 forward 7 unknown #
vertex $-1 $182 $339 #
straight-curve $-1 26.614106497407764 7.8248115285524857 13.944795371674335 0 -1 0 I I #
coedge $-1 $266 $183 $186 $280 reversed $176 $-1 #
coedge $-1 $183 $266 $271 $336 forward $176 $-1 #
vertex $-1 $184 $340 #
straight-curve $-1 46.549272133548996 21.483179070716723 64.870296378308154 0 0 1 I I #
straight-curve $-1 -30.632918557676277 21.483179070716723 52.558402065391036 0.82903756765294845 0 -0.55919291073839883 I I #
edge $-1 $334 9.81606704349322 $188 21.483179070716723 $275 $341 forward 7 unknown #
point $-1 46.549272133548996 21.483179070716723 13.944795371674337 #
point $-1 26.614106497407775 21.483179070716723 13.944795371674338 #
edge $-1 $342 1 $342 0 $191 $-1 forward 7 unknown #
vertex $-1 $192 $343 #
ellipse-curve $-1 34.438753611722611 15.649623057104971 4.0445429690755503 0.55919291073839883 0 0.82903756765294845 1.2435563514794228 0 -0.83878936610759824 1 I I #
point $-1 37.825245666957798 15.649623057104971 6.3827863753119836 #
plane-surface $-1 46.549272133548996 0 0 -1 0 0 0 0 1 forward_v I I I I #
coedge $-1 $200 $198 $202 $292 reversed $121 $-1 #
edge $-1 $213 -13.944795371674337 $294 13.944795371674337 $212 $344 forward 7 unknown #
vertex $-1 $292 $345 #
straight-curve $-1 -46.549272133548996 -30.471894815216505 0 0 0 -1 I I #
edge $-1 $290 -30.471894815216505 $294 30.471894815216505 $288 $346 forward 7 unknown #
straight-curve $-1 0 -30.471894815216505 -13.944795371674337 -1 0 0 I I #
vertex $-1 $205 $347 #
straight-curve $-1 0 30.471894815216505 -13.944795371674337 1 0 0 I I #
point $-1 46.549272133548996 30.471894815216505 -13.944795371674337 #
point $-1 46.549272133548996 -30.471894815216505 -13.944795371674337 #
straight-curve $-1 -46.549272133548996 0 13.944795371674337 0 -1 0 I I #
point $-1 -46.549272133548996 30.471894815216505 13.944795371674337 #
point $-1 -46.549272133548996 -30.471894815216505 13.944795371674337 #
straight-curve $-1 46.549272133548996 -30.471894815216505 0 0 0 -1 I I #
straight-curve $-1 46.549272133548996 30.471894815216505 0 0 0 -1 I I #
loop $-1 $-1 $311 $222 #
plane-surface $-1 -46.549272133548996 0 0 1 0 0 0 0 -1 forward_v I I I I #
coedge $-1 $226 $225 $317 $348 forward $83 $-1 #
edge $-1 $230 20.53326930709326 $320 30.471894815216505 $229 $349 forward 7 unknown #
coedge $-1 $314 $311 $226 $308 reversed $303 $-1 #
edge $-1 $350 -30.471894815216505 $309 -20.53326930709326 $307 $351 forward 7 unknown #
vertex $-1 $312 $352 #
straight-curve $-1 0 -20.53326930709326 -13.944795371674337 1 0 0 I I #
coedge $-1 $307 $232 $228 $312 forward $303 $-1 #
edge $-1 $234 2.8958846347198035 $309 8.3312353695429557 $311 $353 forward 7 unknown #
point $-1 46.549272133548996 -20.53326930709326 -13.944795371674337 #
coedge $-1 $232 $307 $236 $318 reversed $303 $-1 #
straight-curve $-1 -46.549272133548996 -12.751291030577441 -8.5094446368511836 0 1 0 I I #
point $-1 -46.549272133548996 -20.53326930709326 -8.5094446368511836 #
coedge $-1 $237 $236 $305 $348 reversed $223 $-1 #
edge $-1 $238 8.5094446368511836 $350 13.944795371674337 $314 $354 forward 7 unknown #
point $-1 -46.549272133548996 -30.471894815216505 -8.5094446368511836 #
vertex $-1 $240 $355 #
straight-curve $-1 46.549272133548996 -30.471894815216505 0 0 0 -1 I I #
edge $-1 $323 50.925501006633816 $326 64.371940267143316 $244 $356 forward 7 unknown #
vertex $-1 $258 $357 #
straight-curve $-1 10.71356369827496 -15.686515017661662 13.944795371674338 1 0 0 I I #
edge $-1 $326 -10.760035515636707 $255 0.90707651158679603 $254 $358 forward 7 unknown #
vertex $-1 $325 $359 #
straight-curve $-1 -30.632918557676277 -15.686515017661662 52.558402065391036 -0.82903756765294845 0 0.55919291073839883 I I #
point $-1 26.614106497407775 -15.686515017661662 13.944795371674338 #
point $-1 46.549272133548996 -4.0194029904381594 0.49835611116483847 #
straight-curve $-1 46.549272133548996 0 13.944795371674337 0 1 0 I I #
vertex $-1 $261 $360 #
point $-1 35.68230996320203 -9.8529590040499109 3.2057536029679516 #
edge $-1 $334 50.925501006633816 $337 64.371940267143316 $266 $361 forward 7 unknown #
vertex $-1 $280 $362 #
straight-curve $-1 10.71356369827496 9.81606704349322 13.944795371674338 1 0 0 I I #
edge $-1 $337 1.9912555149407343 $277 13.658367542164237 $276 $363 forward 7 unknown #
vertex $-1 $336 $364 #
straight-curve $-1 -30.632918557676277 9.81606704349322 52.558402065391036 -0.82903756765294845 0 0.55919291073839883 I I #
point $-1 26.614106497407775 9.81606704349322 13.944795371674338 #
point $-1 46.549272133548996 21.483179070716723 0.49835611116483847 #
straight-curve $-1 46.549272133548996 0 13.944795371674337 0 1 0 I I #
vertex $-1 $283 $365 #
point $-1 35.68230996320203 15.649623057104971 3.2057536029679516 #
straight-curve $-1 -46.549272133548996 30.471894815216505 0 0 0 -1 I I #
point $-1 -46.549272133548996 -30.471894815216505 -13.944795371674337 #
straight-curve $-1 -46.549272133548996 0 -13.944795371674337 0 1 0 I I #
point $-1 -46.549272133548996 30.471894815216505 -13.944795371674337 #
edge $-1 $320 -46.549272133548996 $350 46.549272133548996 $317 $366 forward 7 unknown #
straight-curve $-1 46.549272133548996 0 -13.944795371674337 0 -1 0 I I #
vertex $-1 $308 $367 #
straight-curve $-1 -46.549272133548996 0 -13.944795371674337 0 1 0 I I #
point $-1 -46.549272133548996 -20.53326930709326 -13.944795371674337 #
straight-curve $-1 -46.549272133548996 -20.53326930709326 -5.6135600021313801 0 0 -1 I I #
straight-curve $-1 -46.549272133548996 -30.471894815216505 0 0 0 -1 I I #
point $-1 46.549272133548996 -30.471894815216505 -13.944795371674337 #
straight-curve $-1 46.549272133548996 -15.686515017661662 64.870296378308154 0 0 -1 I I #
point $-1 46.549272133548996 -15.686515017661662 13.944795371674337 #
straight-curve $-1 46.549272133549003 -4.9264795020249554 0.49835611116483136 0 1 0 I I #
point $-1 46.549272133548996 -15.686515017661662 0.49835611116483847 #
point $-1 33.599964245615006 -9.8529590040499109 2.8009866175961271 #
straight-curve $-1 46.549272133548996 9.81606704349322 64.870296378308154 0 0 -1 I I #
point $-1 46.549272133548996 9.81606704349322 13.944795371674337 #
straight-curve $-1 46.549272133549003 7.8248115285524857 0.49835611116483136 0 1 0 I I #
point $-1 46.549272133548996 9.81606704349322 0.49835611116483847 #
point $-1 33.599964245615006 15.649623057104971 2.8009866175961271 #
straight-curve $-1 0 -30.471894815216505 -13.944795371674337 -1 0 0 I I #
point $-1 -46.549272133548996 -30.471894815216505 -13.944795371674337 #
End-of-ACIS-data 