500 0 9 0           
7 Unknown 11 ACIS 5.0 NT 24 Thu Mar 25 19:55:22 1999 
-1 9.9999999999999995e-007 1e-010 
body $-1 $9 $-1 $10 #
body $-1 $11 $-1 $12 #
body $-1 $13 $-1 $14 #
body $-1 $15 $-1 $16 #
body $-1 $17 $-1 $18 #
body $-1 $19 $-1 $20 #
body $-1 $21 $-1 $22 #
body $-1 $23 $-1 $24 #
body $-1 $25 $-1 $26 #
lump $-1 $-1 $27 $0 #
transform $-1 1 0 0 0 1 0 0 0 1 49.460737937559131 34.044692206106824 7.5514030260318128 1 rotate no_reflect no_shear #
lump $-1 $-1 $28 $1 #
transform $-1 1 0 0 0 1 0 0 0 1 49.460737937559131 34.044692206106824 7.5514030260318128 1 rotate no_reflect no_shear #
lump $-1 $-1 $29 $2 #
transform $-1 1 0 0 0 1 0 0 0 1 49.460737937559131 34.044692206106824 7.5514030260318128 1 rotate no_reflect no_shear #
lump $-1 $-1 $30 $3 #
transform $-1 1 0 0 0 1 0 0 0 1 49.460737937559131 34.044692206106824 7.5514030260318128 1 rotate no_reflect no_shear #
lump $-1 $-1 $31 $4 #
transform $-1 1 0 0 0 1 0 0 0 1 49.460737937559131 34.044692206106824 7.5514030260318128 1 rotate no_reflect no_shear #
lump $-1 $-1 $32 $5 #
transform $-1 1 0 0 0 1 0 0 0 1 49.460737937559131 34.044692206106824 7.5514030260318128 1 rotate no_reflect no_shear #
lump $-1 $-1 $33 $6 #
transform $-1 1 0 0 0 1 0 0 0 1 49.460737937559131 34.044692206106824 7.5514030260318128 1 rotate no_reflect no_shear #
lump $-1 $-1 $34 $7 #
transform $-1 1 0 0 0 1 0 0 0 1 49.460737937559131 34.044692206106824 7.5514030260318128 1 rotate no_reflect no_shear #
lump $-1 $-1 $35 $8 #
transform $-1 1 0 0 0 1 0 0 0 1 49.460737937559131 34.044692206106824 7.5514030260318128 1 rotate no_reflect no_shear #
shell $-1 $-1 $-1 $36 $-1 $9 #
shell $-1 $-1 $-1 $37 $-1 $11 #
shell $-1 $-1 $-1 $38 $-1 $13 #
shell $-1 $-1 $-1 $39 $-1 $15 #
shell $-1 $-1 $-1 $40 $-1 $17 #
shell $-1 $-1 $-1 $41 $-1 $19 #
shell $-1 $-1 $-1 $42 $-1 $21 #
shell $-1 $-1 $-1 $43 $-1 $23 #
shell $-1 $-1 $-1 $44 $-1 $25 #
face $-1 $45 $46 $27 $-1 $47 forward single #
face $-1 $48 $49 $28 $-1 $50 forward single #
face $-1 $51 $52 $29 $-1 $53 forward single #
face $-1 $54 $55 $30 $-1 $56 reversed single #
face $-1 $57 $58 $31 $-1 $59 forward single #
face $-1 $60 $61 $32 $-1 $62 forward single #
face $-1 $63 $64 $33 $-1 $65 reversed single #
face $-1 $66 $67 $34 $-1 $68 forward single #
face $-1 $69 $70 $35 $-1 $71 forward single #
face $-1 $72 $73 $27 $-1 $74 reversed single #
loop $-1 $-1 $75 $36 #
plane-surface $-1 0 0 7.5514030260318128 0 0 1 1 0 0 forward_v I I I I #
face $-1 $76 $77 $28 $-1 $78 reversed single #
loop $-1 $-1 $79 $37 #
plane-surface $-1 0 -34.044692206106824 0 0 1 0 0 0 1 forward_v I I I I #
face $-1 $80 $81 $29 $-1 $82 reversed single #
loop $-1 $-1 $83 $38 #
plane-surface $-1 0 34.044692206106824 0 0 -1 0 0 0 -1 forward_v I I I I #
face $-1 $84 $85 $30 $-1 $86 reversed single #
loop $-1 $-1 $87 $39 #
plane-surface $-1 34.837615739829502 -16.210420058210914 142.31433449377337 0 -1 0 -0.62932039886446345 0 -0.77714595512881146 forward_v I I I I #
face $-1 $88 $89 $31 $-1 $90 forward single #
loop $-1 $91 $92 $40 #
cone-surface $-1 46.449805788334643 -23.416475891031894 4.9794320294825498 -0.62932039886446345 0 -0.77714595512881146 0.38857297756440573 0 -0.31466019943223172 1 I I 0 1 0.5 forward I I I I #
face $-1 $93 $94 $32 $-1 $95 forward single #
loop $-1 $96 $97 $41 #
cone-surface $-1 46.449805788334643 -19.092842391339303 4.9794320294825498 -0.62932039886446345 0 -0.77714595512881146 0.38857297756440573 0 -0.31466019943223172 1 I I 0 1 0.5 forward I I I I #
face $-1 $98 $99 $33 $-1 $100 reversed single #
loop $-1 $-1 $101 $42 #
plane-surface $-1 -111.71404059154995 -26.298898224160283 80.061031839782572 0 1 0 -0.62932039886446345 0 0.77714595512881146 forward_v I I I I #
face $-1 $102 $103 $34 $-1 $104 forward single #
loop $-1 $105 $106 $43 #
cone-surface $-1 -46.449805788334629 -23.416475891031894 4.9794320294825587 0.62932039886446345 0 -0.77714595512881146 0.38857297756440573 0 0.31466019943223172 1 I I 0 1 0.5 forward I I I I #
face $-1 $107 $108 $35 $-1 $109 forward single #
loop $-1 $110 $111 $44 #
cone-surface $-1 -46.449805788334629 -19.092842391339303 4.9794320294825587 0.62932039886446345 0 -0.77714595512881146 0.38857297756440573 0 0.31466019943223172 1 I I 0 1 0.5 forward I I I I #
face $-1 $112 $113 $27 $-1 $114 reversed single #
loop $-1 $-1 $115 $45 #
plane-surface $-1 0 0 -7.5514030260318128 0 0 1 1 0 0 forward_v I I I I #
coedge $-1 $116 $117 $118 $119 forward $46 $-1 #
face $-1 $120 $121 $28 $-1 $122 reversed single #
loop $-1 $-1 $123 $48 #
plane-surface $-1 0 0 -7.5514030260318128 0 0 1 1 0 0 forward_v I I I I #
coedge $-1 $124 $125 $126 $127 forward $49 $-1 #
face $-1 $128 $129 $29 $-1 $130 reversed single #
loop $-1 $-1 $131 $51 #
plane-surface $-1 0 0 -7.5514030260318128 0 0 1 1 0 0 forward_v I I I I #
coedge $-1 $132 $133 $134 $135 forward $52 $-1 #
face $-1 $136 $137 $30 $-1 $138 reversed single #
loop $-1 $-1 $139 $54 #
plane-surface $-1 -27.41568691416132 -21.254659141185599 65.437909642052915 0.62932039886446345 0 0.77714595512881146 0.77714595512881146 0 -0.62932039886446345 forward_v I I I I #
coedge $-1 $140 $141 $142 $143 reversed $55 $-1 #
face $-1 $-1 $144 $31 $-1 $145 forward single #
loop $-1 $146 $147 $57 #
cone-surface $-1 45.977815489186298 -23.416475891031894 4.3965725631359414 -0.62932039886446345 0 -0.77714595512881146 0.19428648878220287 0 -0.15733009971611586 1 I I -0.70710678118654746 0.70710678118654746 0.25 forward I I I I #
loop $-1 $-1 $148 $40 #
coedge $-1 $92 $92 $149 $150 reversed $58 $-1 #
face $-1 $-1 $151 $32 $-1 $152 forward single #
loop $-1 $153 $154 $60 #
cone-surface $-1 45.977815489186298 -19.092842391339303 4.3965725631359414 -0.62932039886446345 0 -0.77714595512881146 0.19428648878220287 0 -0.15733009971611586 1 I I -0.70710678118654746 0.70710678118654746 0.25 forward I I I I #
loop $-1 $-1 $155 $41 #
coedge $-1 $97 $97 $156 $157 reversed $61 $-1 #
face $-1 $158 $159 $33 $-1 $160 reversed single #
loop $-1 $-1 $161 $63 #
plane-surface $-1 -49.460737937559124 -21.254659141185599 3.1846069880621144 -0.62932039886446345 0 0.77714595512881146 0.77714595512881146 0 0.62932039886446345 forward_v I I I I #
coedge $-1 $162 $163 $164 $165 reversed $64 $-1 #
face $-1 $-1 $166 $34 $-1 $167 forward single #
loop $-1 $168 $169 $66 #
cone-surface $-1 -45.977815489186284 -23.416475891031894 4.3965725631359502 0.62932039886446345 0 -0.77714595512881146 0.19428648878220287 0 0.15733009971611586 1 I I -0.70710678118654746 0.70710678118654746 0.25 forward I I I I #
loop $-1 $-1 $170 $43 #
coedge $-1 $106 $106 $171 $172 reversed $67 $-1 #
face $-1 $-1 $173 $35 $-1 $174 forward single #
loop $-1 $175 $176 $69 #
cone-surface $-1 -45.977815489186284 -19.092842391339303 4.3965725631359502 0.62932039886446345 0 -0.77714595512881146 0.19428648878220287 0 0.15733009971611586 1 I I -0.70710678118654746 0.70710678118654746 0.25 forward I I I I #
loop $-1 $-1 $177 $44 #
coedge $-1 $111 $111 $178 $179 reversed $70 $-1 #
face $-1 $180 $181 $27 $-1 $182 reversed single #
loop $-1 $-1 $183 $72 #
plane-surface $-1 0 -34.044692206106824 0 0 1 0 0 0 1 forward_v I I I I #
coedge $-1 $184 $185 $186 $187 forward $73 $-1 #
coedge $-1 $188 $75 $189 $190 forward $46 $-1 #
coedge $-1 $75 $188 $191 $192 forward $46 $-1 #
coedge $-1 $193 $194 $75 $119 reversed $195 $-1 #
edge $-1 $196 -34.044692206106824 $197 34.044692206106824 $118 $198 forward 7 unknown #
face $-1 $199 $200 $28 $-1 $201 reversed single #
loop $-1 $-1 $202 $76 #
plane-surface $-1 -36.090488811958245 -41.790486188053357 0 0 1 0 0 0 1 forward_v I I I I #
coedge $-1 $203 $204 $125 $205 forward $77 $-1 #
coedge $-1 $206 $79 $207 $208 reversed $49 $-1 #
coedge $-1 $79 $206 $123 $205 reversed $49 $-1 #
coedge $-1 $209 $210 $79 $127 reversed $200 $-1 #
edge $-1 $211 -7.5514030260318128 $212 7.5514030260318128 $126 $213 forward 7 unknown #
face $-1 $214 $215 $29 $-1 $216 reversed single #
loop $-1 $-1 $217 $80 #
plane-surface $-1 -37.823045738420987 37.917589197080098 0 1 0 0 0 0 -1 forward_v I I I I #
coedge $-1 $218 $219 $133 $220 forward $81 $-1 #
coedge $-1 $221 $83 $222 $223 reversed $52 $-1 #
coedge $-1 $83 $221 $131 $220 reversed $52 $-1 #
coedge $-1 $224 $225 $83 $135 reversed $226 $-1 #
edge $-1 $227 -7.5514030260318128 $228 7.5514030260318128 $134 $229 forward 7 unknown #
face $-1 $230 $231 $30 $-1 $232 forward single #
loop $-1 $-1 $233 $84 #
plane-surface $-1 34.837615739829502 -26.298898224160283 142.31433449377337 0 1 0 0.62932039886446345 0 0.77714595512881146 forward_v I I I I #
coedge $-1 $234 $235 $236 $237 reversed $85 $-1 #
coedge $-1 $141 $87 $238 $239 reversed $55 $-1 #
coedge $-1 $87 $140 $234 $240 reversed $55 $-1 #
coedge $-1 $236 $241 $87 $143 forward $231 $-1 #
edge $-1 $242 -32.04193006764438 $243 -26.64938616805982 $142 $244 forward 7 unknown #
loop $-1 $-1 $149 $88 #
plane-surface $-1 -27.41568691416132 -21.254659141185599 65.437909642052915 0.62932039886446345 0 0.77714595512881146 0.77714595512881146 0 -0.62932039886446345 forward_v I I I I #
loop $-1 $-1 $245 $57 #
coedge $-1 $147 $147 $148 $246 reversed $89 $-1 #
coedge $-1 $148 $148 $147 $246 forward $91 $-1 #
coedge $-1 $149 $149 $92 $150 forward $144 $-1 #
edge $-1 $247 0 $247 6.2831853071796004 $149 $248 forward 7 unknown #
loop $-1 $-1 $156 $93 #
plane-surface $-1 -27.41568691416132 -21.254659141185599 65.437909642052915 0.62932039886446345 0 0.77714595512881146 0.77714595512881146 0 -0.62932039886446345 forward_v I I I I #
loop $-1 $-1 $249 $60 #
coedge $-1 $154 $154 $155 $250 reversed $94 $-1 #
coedge $-1 $155 $155 $154 $250 forward $96 $-1 #
coedge $-1 $156 $156 $97 $157 forward $151 $-1 #
edge $-1 $251 0 $251 6.2831853071796004 $156 $252 forward 7 unknown #
face $-1 $253 $254 $33 $-1 $255 reversed single #
loop $-1 $-1 $256 $98 #
plane-surface $-1 -111.71404059154995 -16.210420058210914 80.061031839782572 0 -1 0 0.62932039886446345 0 -0.77714595512881146 forward_v I I I I #
coedge $-1 $257 $258 $259 $260 reversed $99 $-1 #
coedge $-1 $163 $101 $261 $262 reversed $64 $-1 #
coedge $-1 $101 $162 $257 $263 reversed $64 $-1 #
coedge $-1 $259 $264 $101 $165 forward $265 $-1 #
edge $-1 $266 6.3962823582158421 $267 11.788826257800388 $164 $268 forward 7 unknown #
loop $-1 $-1 $171 $102 #
plane-surface $-1 -49.460737937559124 -21.254659141185599 3.1846069880621144 -0.62932039886446345 0 0.77714595512881146 0.77714595512881146 0 0.62932039886446345 forward_v I I I I #
loop $-1 $-1 $269 $66 #
coedge $-1 $169 $169 $170 $270 reversed $103 $-1 #
coedge $-1 $170 $170 $169 $270 forward $105 $-1 #
coedge $-1 $171 $171 $106 $172 forward $166 $-1 #
edge $-1 $271 0 $271 6.2831853071796004 $171 $272 forward 7 unknown #
loop $-1 $-1 $178 $107 #
plane-surface $-1 -49.460737937559124 -21.254659141185599 3.1846069880621144 -0.62932039886446345 0 0.77714595512881146 0.77714595512881146 0 0.62932039886446345 forward_v I I I I #
loop $-1 $-1 $273 $69 #
coedge $-1 $176 $176 $177 $274 reversed $108 $-1 #
coedge $-1 $177 $177 $176 $274 forward $110 $-1 #
coedge $-1 $178 $178 $111 $179 forward $173 $-1 #
edge $-1 $275 0 $275 6.2831853071796004 $178 $276 forward 7 unknown #
face $-1 $277 $278 $27 $-1 $279 reversed single #
loop $-1 $-1 $280 $112 #
plane-surface $-1 -49.460737937559131 0 0 1 0 0 0 0 -1 forward_v I I I I #
coedge $-1 $281 $191 $282 $283 forward $113 $-1 #
coedge $-1 $284 $115 $281 $285 forward $73 $-1 #
coedge $-1 $115 $284 $286 $287 forward $73 $-1 #
coedge $-1 $194 $193 $115 $187 reversed $195 $-1 #
edge $-1 $288 -34.044692206106824 $289 34.044692206106824 $186 $290 forward 7 unknown #
coedge $-1 $117 $116 $291 $292 forward $46 $-1 #
coedge $-1 $293 $294 $116 $190 reversed $278 $-1 #
edge $-1 $197 -49.460737937559131 $295 49.460737937559131 $189 $296 forward 7 unknown #
coedge $-1 $183 $297 $117 $192 reversed $113 $-1 #
edge $-1 $298 -49.460737937559131 $196 49.460737937559131 $191 $299 forward 7 unknown #
coedge $-1 $186 $118 $297 $300 forward $195 $-1 #
coedge $-1 $118 $186 $293 $301 reversed $195 $-1 #
loop $-1 $-1 $193 $277 #
vertex $-1 $119 $302 #
vertex $-1 $119 $303 #
straight-curve $-1 49.460737937559131 0 7.5514030260318128 0 1 0 I I #
face $-1 $304 $305 $28 $-1 $306 reversed single #
loop $-1 $-1 $126 $120 #
plane-surface $-1 -37.823045738420987 -37.91758919708009 0 1 0 0 0 0 -1 forward_v I I I I #
coedge $-1 $307 $308 $309 $310 forward $121 $-1 #
coedge $-1 $311 $123 $312 $313 forward $77 $-1 #
coedge $-1 $123 $311 $209 $314 forward $77 $-1 #
edge $-1 $211 -37.823045738420987 $315 -34.357931885495503 $123 $316 forward 7 unknown #
coedge $-1 $125 $124 $317 $318 forward $49 $-1 #
coedge $-1 $319 $320 $124 $208 forward $321 $-1 #
edge $-1 $322 34.357931885495503 $212 37.823045738420987 $207 $323 forward 7 unknown #
coedge $-1 $309 $126 $204 $314 reversed $200 $-1 #
coedge $-1 $126 $309 $319 $324 reversed $200 $-1 #
vertex $-1 $205 $325 #
vertex $-1 $324 $326 #
straight-curve $-1 -37.823045738420987 -34.044692206106824 0 0 0 1 I I #
face $-1 $327 $226 $29 $-1 $328 reversed single #
loop $-1 $-1 $329 $128 #
plane-surface $-1 -36.090488811958245 41.790486188053364 0 0 -1 0 0 0 -1 forward_v I I I I #
coedge $-1 $330 $331 $332 $333 forward $129 $-1 #
coedge $-1 $334 $131 $330 $335 forward $81 $-1 #
coedge $-1 $131 $334 $224 $336 forward $81 $-1 #
edge $-1 $227 34.357931885495503 $337 37.823045738420987 $131 $338 forward 7 unknown #
coedge $-1 $133 $132 $339 $340 forward $52 $-1 #
coedge $-1 $341 $342 $132 $223 forward $343 $-1 #
edge $-1 $344 -37.823045738420987 $228 -34.357931885495503 $222 $345 forward 7 unknown #
coedge $-1 $346 $134 $219 $336 reversed $226 $-1 #
coedge $-1 $134 $346 $341 $347 reversed $226 $-1 #
loop $-1 $-1 $134 $214 #
vertex $-1 $220 $348 #
vertex $-1 $347 $349 #
straight-curve $-1 -34.357931885495503 34.044692206106824 0 0 0 1 I I #
face $-1 $-1 $350 $30 $-1 $351 reversed single #
loop $-1 $-1 $142 $136 #
plane-surface $-1 0 0 7.5514030260318128 0 0 1 1 0 0 forward_v I I I I #
coedge $-1 $352 $353 $354 $355 reversed $137 $-1 #
coedge $-1 $356 $139 $141 $240 forward $85 $-1 #
coedge $-1 $139 $356 $352 $357 forward $85 $-1 #
coedge $-1 $354 $142 $139 $237 forward $231 $-1 #
edge $-1 $243 5.5830904876181151 $358 15.671568653567483 $236 $359 forward 7 unknown #
coedge $-1 $360 $361 $140 $239 forward $350 $-1 #
edge $-1 $362 -67.972560258824586 $242 -63.605764220854873 $238 $363 forward 7 unknown #
edge $-1 $243 91.982568371326693 $362 98.921475875118261 $141 $364 forward 7 unknown #
coedge $-1 $142 $354 $360 $365 forward $231 $-1 #
vertex $-1 $143 $366 #
vertex $-1 $143 $367 #
straight-curve $-1 17.418807869914751 -16.210420058210914 7.5514030260318066 -1 0 0 I I #
coedge $-1 $245 $245 $-1 $368 reversed $146 $-1 #
edge $-1 $369 0 $369 6.2831853071796004 $147 $370 forward 7 unknown #
vertex $-1 $150 $371 #
ellipse-curve $-1 46.764465987766862 -23.416475891031894 5.3680050070469392 0.62932039886446345 0 0.77714595512881146 0.38857297756440573 0 -0.31466019943223172 1 I I #
coedge $-1 $249 $249 $-1 $372 reversed $153 $-1 #
edge $-1 $373 0 $373 6.2831853071796004 $154 $374 forward 7 unknown #
vertex $-1 $157 $375 #
ellipse-curve $-1 46.764465987766862 -19.092842391339303 5.3680050070469392 0.62932039886446345 0 0.77714595512881146 0.38857297756440573 0 -0.31466019943223172 1 I I #
face $-1 $-1 $265 $33 $-1 $376 forward single #
loop $-1 $-1 $377 $158 #
plane-surface $-1 -49.460737937559131 0 0 1 0 0 0 0 -1 forward_v I I I I #
coedge $-1 $378 $379 $380 $381 reversed $159 $-1 #
coedge $-1 $382 $161 $163 $263 forward $99 $-1 #
coedge $-1 $161 $382 $378 $383 forward $99 $-1 #
coedge $-1 $380 $164 $161 $260 forward $265 $-1 #
edge $-1 $267 -15.671568653567483 $384 -5.5830904876181151 $259 $385 forward 7 unknown #
coedge $-1 $386 $387 $162 $262 forward $254 $-1 #
edge $-1 $388 -36.845908931829179 $266 -32.479112893859472 $261 $389 forward 7 unknown #
edge $-1 $267 -6.9389075037915209 $388 9.1551213131864128e-015 $163 $390 forward 7 unknown #
coedge $-1 $164 $380 $386 $391 forward $265 $-1 #
loop $-1 $-1 $380 $253 #
vertex $-1 $262 $392 #
vertex $-1 $165 $393 #
straight-curve $-1 -55.857020295774973 -26.298898224160283 7.5514030260318137 1 0 0 I I #
coedge $-1 $269 $269 $-1 $394 reversed $168 $-1 #
edge $-1 $395 0 $395 6.2831853071796004 $169 $396 forward 7 unknown #
vertex $-1 $172 $397 #
ellipse-curve $-1 -46.764465987766854 -23.416475891031894 5.3680050070469605 -0.62932039886446345 0 0.77714595512881146 0.38857297756440573 0 0.31466019943223172 1 I I #
coedge $-1 $273 $273 $-1 $398 reversed $175 $-1 #
edge $-1 $399 0 $399 6.2831853071796004 $176 $400 forward 7 unknown #
vertex $-1 $179 $401 #
ellipse-curve $-1 -46.764465987766854 -19.092842391339303 5.3680050070469605 -0.62932039886446345 0 0.77714595512881146 0.38857297756440573 0 0.31466019943223172 1 I I #
face $-1 $-1 $195 $27 $-1 $402 reversed single #
loop $-1 $-1 $293 $180 #
plane-surface $-1 0 34.044692206106824 0 0 -1 0 0 0 -1 forward_v I I I I #
coedge $-1 $403 $291 $294 $404 forward $181 $-1 #
coedge $-1 $297 $183 $184 $285 reversed $113 $-1 #
coedge $-1 $291 $403 $183 $283 reversed $181 $-1 #
edge $-1 $298 -7.5514030260318128 $405 7.5514030260318128 $282 $406 forward 7 unknown #
coedge $-1 $185 $184 $403 $407 forward $73 $-1 #
edge $-1 $289 -49.460737937559131 $405 49.460737937559131 $281 $408 forward 7 unknown #
coedge $-1 $294 $293 $185 $287 reversed $278 $-1 #
edge $-1 $409 -49.460737937559131 $288 49.460737937559131 $286 $410 forward 7 unknown #
vertex $-1 $187 $411 #
vertex $-1 $300 $412 #
straight-curve $-1 49.460737937559131 0 -7.5514030260318128 0 -1 0 I I #
coedge $-1 $280 $282 $188 $292 reversed $181 $-1 #
edge $-1 $295 -34.044692206106824 $298 34.044692206106824 $291 $413 forward 7 unknown #
coedge $-1 $286 $189 $194 $301 forward $278 $-1 #
coedge $-1 $189 $286 $280 $404 reversed $278 $-1 #
vertex $-1 $190 $414 #
straight-curve $-1 0 34.044692206106824 7.5514030260318128 -1 0 0 I I #
coedge $-1 $191 $281 $193 $300 reversed $113 $-1 #
vertex $-1 $292 $415 #
straight-curve $-1 0 -34.044692206106824 7.5514030260318128 1 0 0 I I #
edge $-1 $196 -7.5514030260318128 $289 7.5514030260318128 $193 $416 forward 7 unknown #
edge $-1 $197 -7.5514030260318128 $288 7.5514030260318128 $194 $417 forward 7 unknown #
point $-1 49.460737937559131 -34.044692206106824 7.5514030260318128 #
point $-1 49.460737937559131 34.044692206106824 7.5514030260318128 #
face $-1 $-1 $321 $28 $-1 $418 forward single #
loop $-1 $-1 $419 $199 #
plane-surface $-1 -34.357931885495503 -37.91758919708009 0 -1 0 0 0 0 1 forward_v I I I I #
coedge $-1 $420 $202 $311 $421 reversed $121 $-1 #
coedge $-1 $202 $420 $422 $423 reversed $121 $-1 #
coedge $-1 $210 $209 $202 $310 reversed $200 $-1 #
edge $-1 $424 -7.5514030260318128 $425 7.5514030260318128 $309 $426 forward 7 unknown #
coedge $-1 $204 $203 $307 $421 forward $77 $-1 #
coedge $-1 $317 $419 $203 $313 reversed $305 $-1 #
edge $-1 $315 -3.8728969909732669 $427 3.8728969909732669 $312 $428 forward 7 unknown #
edge $-1 $425 -3.8728969909732669 $211 3.8728969909732669 $209 $429 forward 7 unknown #
vertex $-1 $313 $430 #
straight-curve $-1 0 -34.044692206106824 -7.5514030260318128 1 0 0 I I #
coedge $-1 $431 $312 $206 $318 reversed $305 $-1 #
edge $-1 $322 -7.5514030260318128 $315 7.5514030260318128 $317 $432 forward 7 unknown #
coedge $-1 $422 $207 $210 $324 forward $321 $-1 #
coedge $-1 $207 $422 $431 $433 forward $321 $-1 #
loop $-1 $-1 $207 $304 #
vertex $-1 $208 $434 #
straight-curve $-1 0 -34.044692206106824 7.5514030260318128 -1 0 0 I I #
edge $-1 $212 -3.8728969909732669 $424 3.8728969909732669 $210 $435 forward 7 unknown #
point $-1 -37.823045738420987 -34.044692206106824 -7.5514030260318128 #
point $-1 -37.823045738420987 -34.044692206106824 7.5514030260318128 #
face $-1 $-1 $343 $29 $-1 $436 forward single #
plane-surface $-1 -34.357931885495503 37.917589197080098 0 -1 0 0 0 0 1 forward_v I I I I #
coedge $-1 $437 $438 $346 $439 forward $215 $-1 #
coedge $-1 $339 $217 $218 $335 reversed $129 $-1 #
coedge $-1 $217 $339 $342 $440 reversed $129 $-1 #
coedge $-1 $438 $437 $217 $333 reversed $215 $-1 #
edge $-1 $441 -7.5514030260318128 $442 7.5514030260318128 $332 $443 forward 7 unknown #
coedge $-1 $219 $218 $437 $444 forward $81 $-1 #
edge $-1 $337 -3.8728969909732669 $442 3.8728969909732669 $330 $445 forward 7 unknown #
edge $-1 $446 -3.8728969909732669 $227 3.8728969909732669 $224 $447 forward 7 unknown #
vertex $-1 $335 $448 #
straight-curve $-1 0 34.044692206106824 -7.5514030260318128 -1 0 0 I I #
coedge $-1 $331 $330 $221 $340 reversed $129 $-1 #
edge $-1 $344 -7.5514030260318128 $337 7.5514030260318128 $339 $449 forward 7 unknown #
coedge $-1 $450 $222 $225 $347 forward $343 $-1 #
coedge $-1 $222 $450 $331 $440 forward $343 $-1 #
loop $-1 $-1 $222 $327 #
vertex $-1 $223 $451 #
straight-curve $-1 0 34.044692206106824 7.5514030260318128 1 0 0 I I #
coedge $-1 $225 $224 $329 $439 reversed $226 $-1 #
edge $-1 $228 -3.8728969909732669 $452 3.8728969909732669 $225 $453 forward 7 unknown #
point $-1 -34.357931885495503 34.044692206106831 -7.5514030260318128 #
point $-1 -34.357931885495503 34.044692206106831 7.5514030260318128 #
loop $-1 $-1 $238 $230 #
plane-surface $-1 49.460737937559131 0 0 -1 0 0 0 0 1 forward_v I I I I #
coedge $-1 $353 $233 $235 $357 reversed $137 $-1 #
coedge $-1 $233 $352 $454 $455 reversed $137 $-1 #
coedge $-1 $241 $236 $233 $355 forward $231 $-1 #
edge $-1 $358 26.64938616805982 $456 32.04193006764438 $354 $457 forward 7 unknown #
coedge $-1 $235 $234 $361 $458 reversed $85 $-1 #
edge $-1 $459 -98.921475875118261 $358 -91.982568371326693 $352 $460 forward 7 unknown #
vertex $-1 $237 $461 #
straight-curve $-1 44.068194037974571 -10.627329570592799 7.5514030260318137 0 -1 0 I I #
coedge $-1 $454 $238 $241 $365 reversed $350 $-1 #
coedge $-1 $238 $454 $356 $458 forward $350 $-1 #
vertex $-1 $239 $462 #
straight-curve $-1 49.460737937559131 -16.210420058210914 71.157167246886686 0 0 1 I I #
straight-curve $-1 -27.41568691416132 -16.210420058210914 65.437909642052915 0.77714595512881146 0 -0.62932039886446345 I I #
edge $-1 $456 -26.298898224160283 $242 -16.210420058210914 $360 $463 forward 7 unknown #
point $-1 49.460737937559131 -16.210420058210914 7.5514030260318128 #
point $-1 44.068194037974571 -16.210420058210914 7.5514030260318137 #
edge $-1 $464 1 $464 0 $245 $-1 forward 7 unknown #
vertex $-1 $246 $465 #
ellipse-curve $-1 46.135145588902411 -23.416475891031894 4.5908590519181445 0.62932039886446345 0 0.77714595512881146 0.38857297756440573 0 -0.31466019943223172 1 I I #
point $-1 47.153038965331284 -23.416475891031894 5.0533448076147245 #
edge $-1 $466 1 $466 0 $249 $-1 forward 7 unknown #
vertex $-1 $250 $467 #
ellipse-curve $-1 46.135145588902411 -19.092842391339303 4.5908590519181445 0.62932039886446345 0 0.77714595512881146 0.38857297756440573 0 -0.31466019943223172 1 I I #
point $-1 47.153038965331284 -19.092842391339303 5.0533448076147245 #
plane-surface $-1 0 0 7.5514030260318128 0 0 1 1 0 0 forward_v I I I I #
coedge $-1 $387 $386 $379 $468 forward $254 $-1 #
coedge $-1 $379 $256 $258 $383 reversed $159 $-1 #
coedge $-1 $256 $378 $377 $468 reversed $159 $-1 #
coedge $-1 $264 $259 $256 $381 forward $265 $-1 #
edge $-1 $384 -11.788826257800388 $469 -6.3962823582158421 $380 $470 forward 7 unknown #
coedge $-1 $258 $257 $387 $471 reversed $99 $-1 #
edge $-1 $472 -9.1551213131864128e-015 $384 6.9389075037915209 $378 $473 forward 7 unknown #
vertex $-1 $260 $474 #
straight-curve $-1 -44.068194037974592 -10.627329570592799 7.5514030260318119 0 1 0 I I #
coedge $-1 $377 $261 $264 $391 reversed $254 $-1 #
coedge $-1 $261 $377 $382 $471 forward $254 $-1 #
vertex $-1 $262 $475 #
straight-curve $-1 -49.460737937559131 -26.298898224160283 40.030515919891286 0 0 1 I I #
straight-curve $-1 -49.460737937559124 -26.298898224160283 3.1846069880621144 -0.77714595512881146 0 -0.62932039886446345 I I #
edge $-1 $469 16.210420058210914 $266 26.298898224160283 $386 $476 forward 7 unknown #
point $-1 -49.460737937559131 -26.298898224160283 7.5514030260318128 #
point $-1 -44.068194037974585 -26.298898224160283 7.5514030260318128 #
edge $-1 $477 1 $477 0 $269 $-1 forward 7 unknown #
vertex $-1 $270 $478 #
ellipse-curve $-1 -46.135145588902397 -23.416475891031894 4.5908590519181534 -0.62932039886446345 0 0.77714595512881146 0.38857297756440573 0 0.31466019943223172 1 I I #
point $-1 -46.375893010202461 -23.416475891031894 5.6826652064791965 #
edge $-1 $479 1 $479 0 $273 $-1 forward 7 unknown #
vertex $-1 $274 $480 #
ellipse-curve $-1 -46.135145588902397 -19.092842391339303 4.5908590519181534 -0.62932039886446345 0 0.77714595512881146 0.38857297756440573 0 0.31466019943223172 1 I I #
point $-1 -46.375893010202461 -19.092842391339303 5.6826652064791965 #
plane-surface $-1 49.460737937559131 0 0 -1 0 0 0 0 1 forward_v I I I I #
coedge $-1 $282 $280 $284 $407 reversed $181 $-1 #
edge $-1 $295 -7.5514030260318128 $409 7.5514030260318128 $294 $481 forward 7 unknown #
vertex $-1 $407 $482 #
straight-curve $-1 -49.460737937559131 -34.044692206106824 0 0 0 -1 I I #
edge $-1 $405 -34.044692206106824 $409 34.044692206106824 $403 $483 forward 7 unknown #
straight-curve $-1 0 -34.044692206106824 -7.5514030260318128 -1 0 0 I I #
vertex $-1 $287 $484 #
straight-curve $-1 0 34.044692206106824 -7.5514030260318128 1 0 0 I I #
point $-1 49.460737937559131 34.044692206106824 -7.5514030260318128 #
point $-1 49.460737937559131 -34.044692206106824 -7.5514030260318128 #
straight-curve $-1 -49.460737937559131 0 7.5514030260318128 0 -1 0 I I #
point $-1 -49.460737937559131 34.044692206106824 7.5514030260318128 #
point $-1 -49.460737937559131 -34.044692206106824 7.5514030260318128 #
straight-curve $-1 49.460737937559131 -34.044692206106824 0 0 0 -1 I I #
straight-curve $-1 49.460737937559131 34.044692206106824 0 0 0 -1 I I #
plane-surface $-1 0 0 7.5514030260318128 0 0 1 1 0 0 forward_v I I I I #
coedge $-1 $312 $431 $420 $485 forward $305 $-1 #
coedge $-1 $308 $307 $419 $485 reversed $121 $-1 #
edge $-1 $427 -1.7325569264627418 $425 1.7325569264627418 $307 $486 forward 7 unknown #
coedge $-1 $320 $319 $308 $423 forward $321 $-1 #
edge $-1 $424 -1.7325569264627418 $487 1.7325569264627418 $308 $488 forward 7 unknown #
vertex $-1 $324 $489 #
vertex $-1 $314 $490 #
straight-curve $-1 -37.823045738420987 -41.790486188053357 0 0 0 -1 I I #
vertex $-1 $485 $491 #
straight-curve $-1 -34.357931885495503 -37.91758919708009 -7.5514030260318128 0 -1 0 I I #
straight-curve $-1 -37.823045738420987 -37.91758919708009 -7.5514030260318128 0 1 0 I I #
point $-1 -34.357931885495503 -34.044692206106824 -7.5514030260318128 #
coedge $-1 $419 $317 $320 $433 reversed $305 $-1 #
straight-curve $-1 -34.357931885495503 -34.044692206106824 0 0 0 -1 I I #
edge $-1 $487 -3.8728969909732669 $322 3.8728969909732669 $431 $492 forward 7 unknown #
point $-1 -34.357931885495503 -34.044692206106824 7.5514030260318128 #
straight-curve $-1 -37.823045738420987 -37.91758919708009 7.5514030260318128 0 -1 0 I I #
plane-surface $-1 0 0 7.5514030260318128 0 0 1 1 0 0 forward_v I I I I #
coedge $-1 $332 $329 $334 $444 reversed $215 $-1 #
coedge $-1 $329 $332 $450 $493 reversed $215 $-1 #
edge $-1 $452 -7.5514030260318128 $446 7.5514030260318128 $346 $494 forward 7 unknown #
edge $-1 $441 -3.8728969909732669 $344 3.8728969909732669 $331 $495 forward 7 unknown #
vertex $-1 $493 $496 #
vertex $-1 $444 $497 #
straight-curve $-1 -37.823045738420987 41.790486188053364 0 0 0 -1 I I #
edge $-1 $442 -1.7325569264627418 $446 1.7325569264627418 $437 $498 forward 7 unknown #
straight-curve $-1 -37.823045738420987 37.917589197080098 -7.5514030260318128 0 1 0 I I #
vertex $-1 $336 $499 #
straight-curve $-1 -34.357931885495503 37.917589197080098 -7.5514030260318128 0 -1 0 I I #
point $-1 -37.823045738420987 34.044692206106831 -7.5514030260318128 #
straight-curve $-1 -37.823045738420987 34.044692206106824 0 0 0 -1 I I #
coedge $-1 $342 $341 $438 $493 forward $343 $-1 #
point $-1 -37.823045738420987 34.044692206106831 7.5514030260318128 #
vertex $-1 $347 $500 #
straight-curve $-1 -34.357931885495503 37.917589197080098 7.5514030260318128 0 1 0 I I #
coedge $-1 $361 $360 $353 $455 forward $350 $-1 #
edge $-1 $456 63.605764220854873 $459 67.972560258824586 $454 $501 forward 7 unknown #
vertex $-1 $365 $502 #
straight-curve $-1 17.418807869914751 -26.298898224160283 7.5514030260318066 1 0 0 I I #
edge $-1 $459 -15.671568653567483 $362 -5.5830904876181151 $361 $503 forward 7 unknown #
vertex $-1 $458 $504 #
straight-curve $-1 -27.41568691416132 -26.298898224160283 65.437909642052915 -0.77714595512881146 0 0.62932039886446345 I I #
point $-1 44.068194037974571 -26.298898224160283 7.5514030260318137 #
point $-1 49.460737937559138 -16.210420058210914 3.1846069880620931 #
straight-curve $-1 49.460737937559131 0 7.5514030260318128 0 1 0 I I #
vertex $-1 $368 $505 #
point $-1 46.523718566466819 -23.416475891031894 4.2761988524859129 #
vertex $-1 $372 $506 #
point $-1 46.523718566466819 -19.092842391339303 4.2761988524859129 #
edge $-1 $469 32.479112893859472 $472 36.845908931829179 $377 $507 forward 7 unknown #
vertex $-1 $391 $508 #
straight-curve $-1 -55.857020295774973 -16.210420058210914 7.5514030260318137 -1 0 0 I I #
edge $-1 $472 5.5830904876181151 $388 15.671568653567483 $387 $509 forward 7 unknown #
vertex $-1 $471 $510 #
straight-curve $-1 -49.460737937559124 -16.210420058210914 3.1846069880621144 0.77714595512881146 0 0.62932039886446345 I I #
point $-1 -44.068194037974585 -16.210420058210914 7.5514030260318128 #
point $-1 -49.460737937559131 -26.298898224160283 3.1846069880621086 #
straight-curve $-1 -49.460737937559131 0 7.5514030260318128 0 -1 0 I I #
vertex $-1 $394 $511 #
point $-1 -45.746572611337996 -23.416475891031894 4.9055192513503849 #
vertex $-1 $398 $512 #
point $-1 -45.746572611337996 -19.092842391339303 4.9055192513503849 #
straight-curve $-1 -49.460737937559131 34.044692206106824 0 0 0 -1 I I #
point $-1 -49.460737937559131 -34.044692206106824 -7.5514030260318128 #
straight-curve $-1 -49.460737937559131 0 -7.5514030260318128 0 1 0 I I #
point $-1 -49.460737937559131 34.044692206106824 -7.5514030260318128 #
edge $-1 $487 -7.5514030260318128 $427 7.5514030260318128 $419 $513 forward 7 unknown #
straight-curve $-1 -36.090488811958245 -41.790486188053357 -7.5514030260318128 -1 0 0 I I #
vertex $-1 $433 $514 #
straight-curve $-1 -36.090488811958245 -41.790486188053357 7.5514030260318128 1 0 0 I I #
point $-1 -37.823045738420987 -41.790486188053357 7.5514030260318128 #
point $-1 -37.823045738420987 -41.790486188053357 -7.5514030260318128 #
point $-1 -34.357931885495503 -41.790486188053357 -7.5514030260318128 #
straight-curve $-1 -34.357931885495503 -37.91758919708009 7.5514030260318128 0 1 0 I I #
edge $-1 $452 -1.7325569264627418 $441 1.7325569264627418 $438 $515 forward 7 unknown #
straight-curve $-1 -34.357931885495503 41.790486188053364 0 0 0 -1 I I #
straight-curve $-1 -37.823045738420987 37.917589197080098 7.5514030260318128 0 -1 0 I I #
point $-1 -37.823045738420987 41.790486188053364 7.5514030260318128 #
point $-1 -37.823045738420987 41.790486188053364 -7.5514030260318128 #
straight-curve $-1 -36.090488811958245 41.790486188053364 -7.5514030260318128 1 0 0 I I #
point $-1 -34.357931885495503 41.790486188053364 -7.5514030260318128 #
point $-1 -34.357931885495503 41.790486188053364 7.5514030260318128 #
straight-curve $-1 49.460737937559131 -26.298898224160283 71.157167246886686 0 0 -1 I I #
point $-1 49.460737937559131 -26.298898224160283 7.5514030260318128 #
straight-curve $-1 49.460737937559131 -10.627329570592799 3.1846069880621037 0 1 0 I I #
point $-1 49.460737937559138 -26.298898224160283 3.1846069880620931 #
point $-1 45.820485389470186 -23.416475891031894 4.2022860743537382 #
point $-1 45.820485389470186 -19.092842391339303 4.2022860743537382 #
straight-curve $-1 -49.460737937559131 -16.210420058210914 40.030515919891286 0 0 -1 I I #
point $-1 -49.460737937559131 -16.210420058210914 7.5514030260318128 #
straight-curve $-1 -49.460737937559131 -10.627329570592799 3.1846069880621091 0 -1 0 I I #
point $-1 -49.460737937559131 -16.210420058210914 3.1846069880621086 #
point $-1 -45.820485389470171 -23.416475891031894 4.2022860743537471 #
point $-1 -45.820485389470171 -19.092842391339303 4.2022860743537471 #
straight-curve $-1 -34.357931885495503 -41.790486188053357 0 0 0 -1 I I #
point $-1 -34.357931885495503 -41.790486188053357 7.5514030260318128 #
straight-curve $-1 -36.090488811958245 41.790486188053364 7.5514030260318128 -1 0 0 I I #
End-of-ACIS-data 