500 0 8 0           
7 Unknown 11 ACIS 5.0 NT 24 Fri Mar 26 20:37:09 1999 
-1 9.9999999999999995e-007 1e-010 
body $-1 $8 $-1 $9 #
body $-1 $10 $-1 $11 #
body $-1 $12 $-1 $13 #
body $-1 $14 $-1 $15 #
body $-1 $16 $-1 $17 #
body $-1 $18 $-1 $19 #
body $-1 $20 $-1 $21 #
body $-1 $22 $-1 $23 #
lump $-1 $-1 $24 $0 #
transform $-1 1 0 0 0 1 0 0 0 1 45.606860560930201 19.915891203964176 5.5443818342405846 1 rotate no_reflect no_shear #
lump $-1 $-1 $25 $1 #
transform $-1 1 0 0 0 1 0 0 0 1 45.606860560930201 19.915891203964176 5.5443818342405846 1 rotate no_reflect no_shear #
lump $-1 $-1 $26 $2 #
transform $-1 1 0 0 0 1 0 0 0 1 45.606860560930201 19.915891203964176 5.5443818342405846 1 rotate no_reflect no_shear #
lump $-1 $-1 $27 $3 #
transform $-1 1 0 0 0 1 0 0 0 1 45.606860560930201 19.915891203964176 5.5443818342405846 1 rotate no_reflect no_shear #
lump $-1 $-1 $28 $4 #
transform $-1 1 0 0 0 1 0 0 0 1 45.606860560930201 19.915891203964176 5.5443818342405846 1 rotate no_reflect no_shear #
lump $-1 $-1 $29 $5 #
transform $-1 1 0 0 0 1 0 0 0 1 45.606860560930201 19.915891203964176 5.5443818342405846 1 rotate no_reflect no_shear #
lump $-1 $-1 $30 $6 #
transform $-1 1 0 0 0 1 0 0 0 1 45.606860560930201 19.915891203964176 5.5443818342405846 1 rotate no_reflect no_shear #
lump $-1 $-1 $31 $7 #
transform $-1 1 0 0 0 1 0 0 0 1 45.606860560930201 19.915891203964176 5.5443818342405846 1 rotate no_reflect no_shear #
shell $-1 $-1 $-1 $32 $-1 $8 #
shell $-1 $-1 $-1 $33 $-1 $10 #
shell $-1 $-1 $-1 $34 $-1 $12 #
shell $-1 $-1 $-1 $35 $-1 $14 #
shell $-1 $-1 $-1 $36 $-1 $16 #
shell $-1 $-1 $-1 $37 $-1 $18 #
shell $-1 $-1 $-1 $38 $-1 $20 #
shell $-1 $-1 $-1 $39 $-1 $22 #
face $-1 $40 $41 $24 $-1 $42 forward single #
face $-1 $43 $44 $25 $-1 $45 reversed single #
face $-1 $46 $47 $26 $-1 $48 reversed single #
face $-1 $49 $50 $27 $-1 $51 forward single #
face $-1 $52 $53 $28 $-1 $54 reversed single #
face $-1 $55 $56 $29 $-1 $57 forward single #
face $-1 $58 $59 $30 $-1 $60 forward single #
face $-1 $61 $62 $31 $-1 $63 forward single #
face $-1 $64 $65 $24 $-1 $66 reversed single #
loop $-1 $-1 $67 $32 #
plane-surface $-1 0 0 5.5443818342405846 0 0 1 1 0 0 forward_v I I I I #
face $-1 $68 $69 $25 $-1 $70 reversed single #
loop $-1 $-1 $71 $33 #
plane-surface $-1 -43.494729764810479 -11.827127535483006 0 0 1 0 0 0 1 forward_v I I I I #
face $-1 $72 $73 $26 $-1 $74 reversed single #
loop $-1 $-1 $75 $34 #
plane-surface $-1 26.607575069246266 52.992378958921108 94.758523230204091 1 0 0 0 -0.68199836817093118 -0.7313536940579346 forward_v I I I I #
face $-1 $76 $77 $27 $-1 $78 forward single #
loop $-1 $79 $80 $35 #
cone-surface $-1 33.935189947650855 16.199033829568954 1.9080232661397971 0 -0.68199836817093118 -0.7313536940579346 1.5 0 0 1 I I 0 1 1.5 forward I I I I #
face $-1 $81 $82 $28 $-1 $83 reversed single #
loop $-1 $-1 $84 $36 #
plane-surface $-1 -21.588760310684204 -88.755761138432405 62.235013233608925 -1 0 0 0 -0.75470958851134928 0.65605901945558964 forward_v I I I I #
face $-1 $85 $86 $29 $-1 $87 forward single #
loop $-1 $88 $89 $37 #
cone-surface $-1 -37.423831237089452 -17.594516198022539 3.1414884918108901 0 0.75470958851134928 -0.65605901945558964 1 0 0 1 I I 0 1 1 forward I I I I #
face $-1 $90 $91 $30 $-1 $92 forward single #
loop $-1 $93 $94 $38 #
cone-surface $-1 -31.485679639687483 -17.594516198022539 3.1414884918108901 0 0.75470958851134928 -0.65605901945558964 1 0 0 1 I I 0 1 1 forward I I I I #
face $-1 $95 $96 $31 $-1 $97 forward single #
loop $-1 $98 $99 $39 #
cone-surface $-1 -25.547528042285514 -17.594516198022539 3.1414884918108901 0 0.75470958851134928 -0.65605901945558964 1 0 0 1 I I 0 1 1 forward I I I I #
face $-1 $100 $101 $24 $-1 $102 reversed single #
loop $-1 $-1 $103 $40 #
plane-surface $-1 0 0 -5.5443818342405846 0 0 1 1 0 0 forward_v I I I I #
coedge $-1 $104 $105 $106 $107 forward $41 $-1 #
face $-1 $108 $109 $25 $-1 $110 reversed single #
loop $-1 $-1 $111 $43 #
plane-surface $-1 -43.494729764810479 -8.8271275354830063 0 0 -1 0 0 0 -1 forward_v I I I I #
coedge $-1 $112 $113 $114 $115 reversed $44 $-1 #
face $-1 $116 $117 $26 $-1 $118 reversed single #
loop $-1 $-1 $119 $46 #
plane-surface $-1 33.935189947650855 -9.2152300009860824 28.049031338961228 0 0.68199836817093118 0.7313536940579346 1 0 0 forward_v I I I I #
coedge $-1 $120 $121 $122 $123 reversed $47 $-1 #
face $-1 $-1 $124 $27 $-1 $125 forward single #
loop $-1 $126 $127 $49 #
cone-surface $-1 33.935189947650855 14.469597570269446 0.053429976908607735 0 -0.68199836817093118 -0.7313536940579346 0.75 0 0 1 I I -0.70710678118654757 0.70710678118654757 0.75 forward I I I I #
loop $-1 $-1 $128 $35 #
coedge $-1 $80 $80 $129 $130 reversed $50 $-1 #
face $-1 $131 $132 $28 $-1 $133 reversed single #
loop $-1 $-1 $134 $52 #
plane-surface $-1 -31.485679639687483 -19.915891203964165 2.3934287935055849 0 -0.75470958851134928 0.65605901945558964 1 0 0 forward_v I I I I #
coedge $-1 $135 $136 $137 $138 reversed $53 $-1 #
face $-1 $-1 $139 $29 $-1 $140 forward single #
loop $-1 $141 $142 $55 #
cone-surface $-1 -37.423831237089452 -16.26532720777621 1.9860421600208991 0 0.75470958851134928 -0.65605901945558964 0.5 0 0 1 I I -0.70710678118654746 0.70710678118654746 0.5 forward I I I I #
loop $-1 $-1 $143 $37 #
coedge $-1 $89 $89 $144 $145 reversed $56 $-1 #
face $-1 $-1 $146 $30 $-1 $147 forward single #
loop $-1 $148 $149 $58 #
cone-surface $-1 -31.485679639687483 -16.26532720777621 1.9860421600208991 0 0.75470958851134928 -0.65605901945558964 0.5 0 0 1 I I -0.70710678118654746 0.70710678118654746 0.5 forward I I I I #
loop $-1 $-1 $150 $38 #
coedge $-1 $94 $94 $151 $152 reversed $59 $-1 #
face $-1 $-1 $153 $31 $-1 $154 forward single #
loop $-1 $155 $156 $61 #
cone-surface $-1 -25.547528042285514 -16.26532720777621 1.9860421600208991 0 0.75470958851134928 -0.65605901945558964 0.5 0 0 1 I I -0.70710678118654746 0.70710678118654746 0.5 forward I I I I #
loop $-1 $-1 $157 $39 #
coedge $-1 $99 $99 $158 $159 reversed $62 $-1 #
face $-1 $160 $161 $24 $-1 $162 reversed single #
loop $-1 $-1 $163 $64 #
plane-surface $-1 0 -19.915891203964176 0 0 1 0 0 0 1 forward_v I I I I #
coedge $-1 $164 $165 $166 $167 forward $65 $-1 #
coedge $-1 $168 $67 $169 $170 forward $41 $-1 #
coedge $-1 $67 $168 $171 $172 forward $41 $-1 #
coedge $-1 $173 $174 $67 $107 reversed $175 $-1 #
edge $-1 $176 -19.915891203964176 $177 19.915891203964176 $106 $178 forward 7 unknown #
face $-1 $179 $180 $25 $-1 $181 reversed single #
loop $-1 $-1 $182 $68 #
plane-surface $-1 -41.382598968690758 -10.327127535483006 0 -1 0 0 0 0 1 forward_v I I I I #
coedge $-1 $183 $184 $185 $186 forward $69 $-1 #
coedge $-1 $187 $71 $188 $189 reversed $44 $-1 #
coedge $-1 $71 $187 $190 $191 reversed $44 $-1 #
coedge $-1 $192 $193 $71 $115 forward $194 $-1 #
edge $-1 $195 -5.5443818342405846 $196 5.5443818342405846 $114 $197 forward 7 unknown #
face $-1 $198 $199 $26 $-1 $200 reversed single #
loop $-1 $-1 $201 $72 #
plane-surface $-1 41.262804826055444 52.992378958921108 94.758523230204091 -1 0 0 0 0.68199836817093118 0.7313536940579346 forward_v I I I I #
coedge $-1 $202 $203 $204 $205 reversed $73 $-1 #
coedge $-1 $121 $75 $206 $207 reversed $47 $-1 #
coedge $-1 $75 $120 $202 $208 reversed $47 $-1 #
coedge $-1 $204 $209 $75 $123 forward $210 $-1 #
edge $-1 $211 6.5802982754963786 $212 11.578138057944201 $122 $213 forward 7 unknown #
loop $-1 $-1 $129 $76 #
plane-surface $-1 33.935189947650855 -9.2152300009860824 28.049031338961228 0 0.68199836817093118 0.7313536940579346 1 0 0 forward_v I I I I #
loop $-1 $-1 $214 $49 #
coedge $-1 $127 $127 $128 $215 reversed $77 $-1 #
coedge $-1 $128 $128 $127 $215 forward $79 $-1 #
coedge $-1 $129 $129 $80 $130 forward $124 $-1 #
edge $-1 $216 -2.0191207762670729e-016 $216 6.2831853071796004 $129 $217 forward 7 unknown #
face $-1 $218 $219 $28 $-1 $220 forward single #
loop $-1 $-1 $221 $81 #
plane-surface $-1 -41.382598968690758 -88.755761138432405 62.235013233608925 1 0 0 0 0.75470958851134928 -0.65605901945558964 forward_v I I I I #
coedge $-1 $222 $223 $224 $225 reversed $82 $-1 #
coedge $-1 $136 $84 $226 $227 reversed $53 $-1 #
coedge $-1 $84 $135 $222 $228 reversed $53 $-1 #
coedge $-1 $224 $229 $84 $138 forward $219 $-1 #
edge $-1 $230 24.461989365252027 $231 27.201070985154004 $137 $232 forward 7 unknown #
loop $-1 $-1 $144 $85 #
plane-surface $-1 -31.485679639687483 -19.915891203964165 2.3934287935055849 0 -0.75470958851134928 0.65605901945558964 1 0 0 forward_v I I I I #
loop $-1 $-1 $233 $55 #
coedge $-1 $142 $142 $143 $234 reversed $86 $-1 #
coedge $-1 $143 $143 $142 $234 forward $88 $-1 #
coedge $-1 $144 $144 $89 $145 forward $139 $-1 #
edge $-1 $235 3.6579606738343048e-016 $235 6.2831853071796004 $144 $236 forward 7 unknown #
loop $-1 $-1 $151 $90 #
plane-surface $-1 -31.485679639687483 -19.915891203964165 2.3934287935055849 0 -0.75470958851134928 0.65605901945558964 1 0 0 forward_v I I I I #
loop $-1 $-1 $237 $58 #
coedge $-1 $149 $149 $150 $238 reversed $91 $-1 #
coedge $-1 $150 $150 $149 $238 forward $93 $-1 #
coedge $-1 $151 $151 $94 $152 forward $146 $-1 #
edge $-1 $239 3.6579606738343048e-016 $239 6.2831853071796004 $151 $240 forward 7 unknown #
loop $-1 $-1 $158 $95 #
plane-surface $-1 -31.485679639687483 -19.915891203964165 2.3934287935055849 0 -0.75470958851134928 0.65605901945558964 1 0 0 forward_v I I I I #
loop $-1 $-1 $241 $61 #
coedge $-1 $156 $156 $157 $242 reversed $96 $-1 #
coedge $-1 $157 $157 $156 $242 forward $98 $-1 #
coedge $-1 $158 $158 $99 $159 forward $153 $-1 #
edge $-1 $243 3.6579606738343048e-016 $243 6.2831853071796004 $158 $244 forward 7 unknown #
face $-1 $245 $246 $24 $-1 $247 reversed single #
loop $-1 $-1 $248 $100 #
plane-surface $-1 -45.606860560930201 0 0 1 0 0 0 0 -1 forward_v I I I I #
coedge $-1 $249 $171 $250 $251 forward $101 $-1 #
coedge $-1 $252 $103 $249 $253 forward $65 $-1 #
coedge $-1 $103 $252 $254 $255 forward $65 $-1 #
coedge $-1 $174 $173 $103 $167 reversed $175 $-1 #
edge $-1 $256 -19.915891203964176 $257 19.915891203964176 $166 $258 forward 7 unknown #
coedge $-1 $105 $104 $259 $260 forward $41 $-1 #
coedge $-1 $261 $262 $104 $170 reversed $246 $-1 #
edge $-1 $177 -45.606860560930201 $263 45.606860560930201 $169 $264 forward 7 unknown #
coedge $-1 $163 $265 $105 $172 reversed $101 $-1 #
edge $-1 $266 -45.606860560930201 $176 45.606860560930201 $171 $267 forward 7 unknown #
coedge $-1 $166 $106 $265 $268 forward $175 $-1 #
coedge $-1 $106 $166 $261 $269 reversed $175 $-1 #
loop $-1 $-1 $173 $245 #
vertex $-1 $107 $270 #
vertex $-1 $107 $271 #
straight-curve $-1 45.606860560930201 0 5.5443818342405846 0 1 0 I I #
face $-1 $272 $273 $25 $-1 $274 forward single #
loop $-1 $-1 $275 $108 #
plane-surface $-1 0 0 -5.5443818342405846 0 0 1 1 0 0 forward_v I I I I #
coedge $-1 $276 $277 $187 $278 forward $109 $-1 #
coedge $-1 $279 $111 $275 $280 reversed $69 $-1 #
coedge $-1 $111 $279 $281 $282 reversed $69 $-1 #
coedge $-1 $277 $276 $111 $186 reversed $109 $-1 #
edge $-1 $283 -5.5443818342405846 $284 5.5443818342405846 $185 $285 forward 7 unknown #
coedge $-1 $113 $112 $182 $278 reversed $44 $-1 #
coedge $-1 $286 $287 $112 $189 forward $180 $-1 #
edge $-1 $288 19.635234086285518 $195 23.859495678524961 $188 $289 forward 7 unknown #
coedge $-1 $290 $291 $113 $191 forward $273 $-1 #
edge $-1 $196 -23.859495678524961 $292 -19.635234086285518 $190 $293 forward 7 unknown #
coedge $-1 $294 $114 $291 $295 reversed $194 $-1 #
coedge $-1 $114 $294 $286 $296 reversed $194 $-1 #
loop $-1 $-1 $294 $272 #
vertex $-1 $296 $297 #
vertex $-1 $115 $298 #
straight-curve $-1 -45.606860560930201 -11.827127535483006 0 0 0 1 I I #
face $-1 $-1 $210 $26 $-1 $299 forward single #
loop $-1 $-1 $300 $116 #
plane-surface $-1 0 19.915891203964176 0 0 -1 0 0 0 -1 forward_v I I I I #
coedge $-1 $301 $302 $303 $304 reversed $117 $-1 #
coedge $-1 $305 $119 $121 $208 forward $73 $-1 #
coedge $-1 $119 $305 $301 $306 forward $73 $-1 #
coedge $-1 $303 $122 $119 $205 forward $210 $-1 #
edge $-1 $212 9.6399800954208388 $307 24.295209852230016 $204 $308 forward 7 unknown #
coedge $-1 $309 $310 $120 $207 forward $199 $-1 #
edge $-1 $311 -46.495440879687564 $211 -41.834879780861463 $206 $312 forward 7 unknown #
edge $-1 $212 32.998098756565113 $311 39.831782407928358 $121 $313 forward 7 unknown #
coedge $-1 $122 $303 $309 $314 forward $210 $-1 #
loop $-1 $-1 $303 $198 #
vertex $-1 $207 $315 #
vertex $-1 $123 $316 #
straight-curve $-1 26.607575069246266 26.496189479460554 5.544381834240582 0 -1 0 I I #
coedge $-1 $214 $214 $-1 $317 reversed $126 $-1 #
edge $-1 $318 0 $318 6.2831853071796004 $127 $319 forward 7 unknown #
vertex $-1 $130 $320 #
ellipse-curve $-1 33.935189947650855 17.416971312740262 3.2141012848275352 0 0.68199836817093118 0.7313536940579346 1.5 0 0 1 I I #
face $-1 $-1 $321 $28 $-1 $322 reversed single #
loop $-1 $-1 $137 $131 #
plane-surface $-1 0 0 5.5443818342405846 0 0 1 1 0 0 forward_v I I I I #
coedge $-1 $323 $324 $325 $326 reversed $132 $-1 #
coedge $-1 $327 $134 $136 $228 forward $82 $-1 #
coedge $-1 $134 $327 $323 $328 forward $82 $-1 #
coedge $-1 $325 $137 $134 $225 forward $219 $-1 #
edge $-1 $231 5.8459204908404629 $329 25.639759148847016 $224 $330 forward 7 unknown #
coedge $-1 $331 $332 $135 $227 forward $321 $-1 #
edge $-1 $333 -28.724077823298892 $230 -25.573124782563877 $226 $334 forward 7 unknown #
edge $-1 $231 -4.1750536745534097 $333 1.6376804332752545e-014 $136 $335 forward 7 unknown #
coedge $-1 $137 $325 $331 $336 forward $219 $-1 #
vertex $-1 $227 $337 #
vertex $-1 $138 $338 #
straight-curve $-1 -21.588760310684204 -44.377880569216202 5.5443818342405855 0 1 0 I I #
coedge $-1 $233 $233 $-1 $339 reversed $141 $-1 #
edge $-1 $340 0 $340 6.2831853071796004 $142 $341 forward 7 unknown #
vertex $-1 $145 $342 #
ellipse-curve $-1 -37.423831237089452 -18.546350394013185 3.9689053138730794 0 -0.75470958851134928 0.65605901945558964 1 0 0 1 I I #
coedge $-1 $237 $237 $-1 $343 reversed $148 $-1 #
edge $-1 $344 0 $344 6.2831853071796004 $149 $345 forward 7 unknown #
vertex $-1 $152 $346 #
ellipse-curve $-1 -31.485679639687483 -18.546350394013185 3.9689053138730794 0 -0.75470958851134928 0.65605901945558964 1 0 0 1 I I #
coedge $-1 $241 $241 $-1 $347 reversed $155 $-1 #
edge $-1 $348 0 $348 6.2831853071796004 $156 $349 forward 7 unknown #
vertex $-1 $159 $350 #
ellipse-curve $-1 -25.547528042285514 -18.546350394013185 3.9689053138730794 0 -0.75470958851134928 0.65605901945558964 1 0 0 1 I I #
face $-1 $-1 $175 $24 $-1 $351 reversed single #
loop $-1 $-1 $261 $160 #
plane-surface $-1 0 19.915891203964176 0 0 -1 0 0 0 -1 forward_v I I I I #
coedge $-1 $352 $259 $262 $353 forward $161 $-1 #
coedge $-1 $265 $163 $164 $253 reversed $101 $-1 #
coedge $-1 $259 $352 $163 $251 reversed $161 $-1 #
edge $-1 $266 -5.5443818342405846 $354 5.5443818342405846 $250 $355 forward 7 unknown #
coedge $-1 $165 $164 $352 $356 forward $65 $-1 #
edge $-1 $257 -45.606860560930201 $354 45.606860560930201 $249 $357 forward 7 unknown #
coedge $-1 $262 $261 $165 $255 reversed $246 $-1 #
edge $-1 $358 -45.606860560930201 $256 45.606860560930201 $254 $359 forward 7 unknown #
vertex $-1 $167 $360 #
vertex $-1 $268 $361 #
straight-curve $-1 45.606860560930201 0 -5.5443818342405846 0 -1 0 I I #
coedge $-1 $248 $250 $168 $260 reversed $161 $-1 #
edge $-1 $263 -19.915891203964176 $266 19.915891203964176 $259 $362 forward 7 unknown #
coedge $-1 $254 $169 $174 $269 forward $246 $-1 #
coedge $-1 $169 $254 $248 $353 reversed $246 $-1 #
vertex $-1 $170 $363 #
straight-curve $-1 0 19.915891203964176 5.5443818342405846 -1 0 0 I I #
coedge $-1 $171 $249 $173 $268 reversed $101 $-1 #
vertex $-1 $260 $364 #
straight-curve $-1 0 -19.915891203964176 5.5443818342405846 1 0 0 I I #
edge $-1 $176 -5.5443818342405846 $257 5.5443818342405846 $173 $365 forward 7 unknown #
edge $-1 $177 -5.5443818342405846 $256 5.5443818342405846 $174 $366 forward 7 unknown #
point $-1 45.606860560930201 -19.915891203964176 5.5443818342405846 #
point $-1 45.606860560930201 19.915891203964176 5.5443818342405846 #
face $-1 $-1 $194 $25 $-1 $367 reversed single #
loop $-1 $-1 $281 $179 #
plane-surface $-1 0 0 5.5443818342405846 0 0 1 1 0 0 forward_v I I I I #
coedge $-1 $287 $286 $183 $280 forward $180 $-1 #
coedge $-1 $185 $182 $287 $368 reversed $109 $-1 #
coedge $-1 $182 $185 $290 $369 reversed $109 $-1 #
edge $-1 $292 -5.5443818342405846 $288 5.5443818342405846 $182 $370 forward 7 unknown #
coedge $-1 $184 $183 $294 $371 reversed $69 $-1 #
edge $-1 $372 -23.859495678524961 $284 -19.635234086285518 $275 $373 forward 7 unknown #
coedge $-1 $291 $290 $184 $282 forward $273 $-1 #
edge $-1 $283 19.635234086285518 $374 23.859495678524961 $281 $375 forward 7 unknown #
vertex $-1 $282 $376 #
vertex $-1 $280 $377 #
straight-curve $-1 -41.382598968690758 -8.8271275354830063 0 0 0 -1 I I #
coedge $-1 $275 $188 $193 $296 forward $180 $-1 #
coedge $-1 $188 $275 $276 $368 forward $180 $-1 #
vertex $-1 $189 $378 #
straight-curve $-1 -21.74736488240524 -11.827127535483006 -5.5443818342405846 -1 0 0 I I #
coedge $-1 $281 $190 $277 $369 forward $273 $-1 #
coedge $-1 $190 $281 $192 $295 forward $273 $-1 #
vertex $-1 $191 $379 #
straight-curve $-1 -21.74736488240524 -11.827127535483006 5.5443818342405846 1 0 0 I I #
coedge $-1 $193 $192 $279 $371 forward $194 $-1 #
edge $-1 $374 8.8271275354830063 $196 11.827127535483006 $192 $380 forward 7 unknown #
edge $-1 $195 -11.827127535483006 $372 -8.8271275354830063 $193 $381 forward 7 unknown #
point $-1 -45.606860560930201 -11.827127535483006 -5.5443818342405846 #
point $-1 -45.606860560930201 -11.827127535483006 5.5443818342405846 #
plane-surface $-1 0 0 5.5443818342405846 0 0 1 1 0 0 forward_v I I I I #
coedge $-1 $310 $309 $302 $382 forward $199 $-1 #
coedge $-1 $302 $201 $203 $306 reversed $117 $-1 #
coedge $-1 $201 $301 $300 $382 reversed $117 $-1 #
coedge $-1 $209 $204 $201 $304 forward $210 $-1 #
edge $-1 $307 -11.578138057944201 $383 -6.5802982754963786 $303 $384 forward 7 unknown #
coedge $-1 $203 $202 $310 $385 reversed $73 $-1 #
edge $-1 $386 -39.831782407928358 $307 -32.998098756565113 $301 $387 forward 7 unknown #
vertex $-1 $205 $388 #
straight-curve $-1 16.967594973825427 14.918051421516349 5.5443818342405855 1 0 0 I I #
coedge $-1 $300 $206 $209 $314 reversed $199 $-1 #
coedge $-1 $206 $300 $305 $385 forward $199 $-1 #
vertex $-1 $207 $389 #
straight-curve $-1 26.607575069246266 19.915891203964176 47.379261615102045 0 0 1 I I #
straight-curve $-1 26.607575069246266 -9.2152300009860824 28.049031338961228 0 0.7313536940579346 -0.68199836817093118 I I #
edge $-1 $383 -41.262804826055444 $211 -26.607575069246266 $309 $390 forward 7 unknown #
point $-1 26.607575069246266 19.915891203964176 5.5443818342405846 #
point $-1 26.607575069246266 14.918051421516353 5.5443818342405891 #
edge $-1 $391 1 $391 0 $214 $-1 forward 7 unknown #
vertex $-1 $215 $392 #
ellipse-curve $-1 33.935189947650855 14.981096346397644 0.60194524745205868 0 0.68199836817093118 0.7313536940579346 1.5 0 0 1 I I #
point $-1 35.435189947650855 17.416971312740262 3.2141012848275357 #
loop $-1 $-1 $226 $218 #
plane-surface $-1 0 -19.915891203964176 0 0 1 0 0 0 1 forward_v I I I I #
coedge $-1 $324 $221 $223 $328 reversed $132 $-1 #
coedge $-1 $221 $323 $393 $394 reversed $132 $-1 #
coedge $-1 $229 $224 $221 $326 forward $219 $-1 #
edge $-1 $329 -27.201070985154004 $395 -24.461989365252027 $325 $396 forward 7 unknown #
coedge $-1 $223 $222 $332 $397 reversed $82 $-1 #
edge $-1 $398 -1.6376804332752545e-014 $329 4.1750536745534097 $323 $399 forward 7 unknown #
vertex $-1 $225 $400 #
straight-curve $-1 -15.742839819843741 -17.176809584062198 5.5443818342405837 -1 0 0 I I #
coedge $-1 $393 $226 $229 $336 reversed $321 $-1 #
coedge $-1 $226 $393 $327 $397 forward $321 $-1 #
vertex $-1 $227 $401 #
straight-curve $-1 -21.588760310684204 -19.915891203964179 31.117506616804462 0 0 1 I I #
straight-curve $-1 -21.588760310684204 -19.915891203964165 2.3934287935055849 0 -0.65605901945558964 -0.75470958851134928 I I #
edge $-1 $395 -41.382598968690758 $230 -21.588760310684204 $331 $402 forward 7 unknown #
point $-1 -21.588760310684204 -19.915891203964176 5.5443818342405846 #
point $-1 -21.588760310684204 -17.176809584062198 5.5443818342405846 #
edge $-1 $403 1 $403 0 $233 $-1 forward 7 unknown #
vertex $-1 $234 $404 #
ellipse-curve $-1 -37.423831237089452 -16.642682002031883 2.314071669748694 0 -0.75470958851134928 0.65605901945558964 1 0 0 1 I I #
point $-1 -36.423831237089452 -18.546350394013192 3.9689053138730861 #
edge $-1 $405 1 $405 0 $237 $-1 forward 7 unknown #
vertex $-1 $238 $406 #
ellipse-curve $-1 -31.485679639687483 -16.642682002031883 2.314071669748694 0 -0.75470958851134928 0.65605901945558964 1 0 0 1 I I #
point $-1 -30.485679639687483 -18.546350394013192 3.9689053138730861 #
edge $-1 $407 1 $407 0 $241 $-1 forward 7 unknown #
vertex $-1 $242 $408 #
ellipse-curve $-1 -25.547528042285514 -16.642682002031883 2.314071669748694 0 -0.75470958851134928 0.65605901945558964 1 0 0 1 I I #
point $-1 -24.547528042285514 -18.546350394013192 3.9689053138730861 #
plane-surface $-1 45.606860560930201 0 0 -1 0 0 0 0 1 forward_v I I I I #
coedge $-1 $250 $248 $252 $356 reversed $161 $-1 #
edge $-1 $263 -5.5443818342405846 $358 5.5443818342405846 $262 $409 forward 7 unknown #
vertex $-1 $356 $410 #
straight-curve $-1 -45.606860560930201 -19.915891203964176 0 0 0 -1 I I #
edge $-1 $354 -19.915891203964176 $358 19.915891203964176 $352 $411 forward 7 unknown #
straight-curve $-1 0 -19.915891203964176 -5.5443818342405846 -1 0 0 I I #
vertex $-1 $255 $412 #
straight-curve $-1 0 19.915891203964176 -5.5443818342405846 1 0 0 I I #
point $-1 45.606860560930201 19.915891203964176 -5.5443818342405846 #
point $-1 45.606860560930201 -19.915891203964176 -5.5443818342405846 #
straight-curve $-1 -45.606860560930201 0 5.5443818342405846 0 -1 0 I I #
point $-1 -45.606860560930201 19.915891203964176 5.5443818342405846 #
point $-1 -45.606860560930201 -19.915891203964176 5.5443818342405846 #
straight-curve $-1 45.606860560930201 -19.915891203964176 0 0 0 -1 I I #
straight-curve $-1 45.606860560930201 19.915891203964176 0 0 0 -1 I I #
plane-surface $-1 -45.606860560930201 0 0 1 0 0 0 0 -1 forward_v I I I I #
edge $-1 $284 3.6635637677415032 $288 6.6635637677415032 $287 $413 forward 7 unknown #
edge $-1 $292 -6.6635637677415032 $283 -3.6635637677415032 $290 $414 forward 7 unknown #
straight-curve $-1 -41.382598968690758 -11.827127535483006 0 0 0 -1 I I #
edge $-1 $374 -5.5443818342405846 $372 5.5443818342405846 $294 $415 forward 7 unknown #
vertex $-1 $371 $416 #
straight-curve $-1 -21.74736488240524 -8.8271275354830063 -5.5443818342405846 1 0 0 I I #
vertex $-1 $295 $417 #
straight-curve $-1 -21.74736488240524 -8.8271275354830063 5.5443818342405846 -1 0 0 I I #
point $-1 -41.382598968690758 -8.8271275354830063 5.5443818342405846 #
point $-1 -41.382598968690758 -8.8271275354830063 -5.5443818342405846 #
point $-1 -41.382598968690758 -11.827127535483006 -5.5443818342405846 #
point $-1 -41.382598968690758 -11.827127535483006 5.5443818342405846 #
straight-curve $-1 -45.606860560930201 0 5.5443818342405846 0 -1 0 I I #
straight-curve $-1 -45.606860560930201 0 -5.5443818342405846 0 1 0 I I #
edge $-1 $383 41.834879780861463 $386 46.495440879687564 $300 $418 forward 7 unknown #
vertex $-1 $314 $419 #
straight-curve $-1 41.262804826055444 26.496189479460554 5.544381834240582 0 1 0 I I #
edge $-1 $386 -24.295209852230016 $311 -9.6399800954208388 $310 $420 forward 7 unknown #
vertex $-1 $385 $421 #
straight-curve $-1 41.262804826055444 -9.2152300009860824 28.049031338961228 0 -0.7313536940579346 0.68199836817093118 I I #
point $-1 41.262804826055444 14.918051421516353 5.5443818342405891 #
point $-1 26.607575069246266 19.915891203964176 0.88382073541448491 #
straight-curve $-1 0 19.915891203964176 5.5443818342405846 -1 0 0 I I #
vertex $-1 $317 $422 #
point $-1 35.435189947650855 14.981096346397644 0.60194524745205868 #
coedge $-1 $332 $331 $324 $394 forward $321 $-1 #
edge $-1 $395 25.573124782563877 $398 28.724077823298892 $393 $423 forward 7 unknown #
vertex $-1 $336 $424 #
straight-curve $-1 -41.382598968690758 -44.377880569216202 5.5443818342405855 0 -1 0 I I #
edge $-1 $398 -25.639759148847016 $333 -5.8459204908404629 $332 $425 forward 7 unknown #
vertex $-1 $397 $426 #
straight-curve $-1 -41.382598968690758 -19.915891203964165 2.3934287935055849 0 0.65605901945558964 0.75470958851134928 I I #
point $-1 -41.382598968690758 -17.176809584062198 5.5443818342405846 #
point $-1 -21.588760310684204 -19.915891203964176 2.3934287935055725 #
straight-curve $-1 0 -19.915891203964176 5.5443818342405846 1 0 0 I I #
vertex $-1 $339 $427 #
point $-1 -36.423831237089452 -16.642682002031883 2.314071669748694 #
vertex $-1 $343 $428 #
point $-1 -30.485679639687483 -16.642682002031883 2.314071669748694 #
vertex $-1 $347 $429 #
point $-1 -24.547528042285514 -16.642682002031883 2.314071669748694 #
straight-curve $-1 -45.606860560930201 19.915891203964176 0 0 0 -1 I I #
point $-1 -45.606860560930201 -19.915891203964176 -5.5443818342405846 #
straight-curve $-1 -45.606860560930201 0 -5.5443818342405846 0 1 0 I I #
point $-1 -45.606860560930201 19.915891203964176 -5.5443818342405846 #
straight-curve $-1 -41.382598968690758 -5.1635637677415032 -5.5443818342405846 0 -1 0 I I #
straight-curve $-1 -41.382598968690758 -5.1635637677415032 5.5443818342405846 0 1 0 I I #
straight-curve $-1 -45.606860560930201 -8.8271275354830063 0 0 0 -1 I I #
point $-1 -45.606860560930201 -8.8271275354830063 -5.5443818342405846 #
point $-1 -45.606860560930201 -8.8271275354830063 5.5443818342405846 #
straight-curve $-1 41.262804826055444 19.915891203964176 47.379261615102045 0 0 -1 I I #
point $-1 41.262804826055444 19.915891203964176 5.5443818342405846 #
straight-curve $-1 16.967594973825427 19.915891203964176 0.88382073541448491 -1 0 0 I I #
point $-1 41.262804826055444 19.915891203964176 0.88382073541448491 #
point $-1 33.935189947650855 13.958098794141248 -0.49508529363484322 #
straight-curve $-1 -41.382598968690758 -19.915891203964179 31.117506616804462 0 0 -1 I I #
point $-1 -41.382598968690758 -19.915891203964176 5.5443818342405846 #
straight-curve $-1 -15.742839819843741 -19.915891203964176 2.3934287935055765 1 0 0 I I #
point $-1 -41.382598968690758 -19.915891203964176 2.3934287935055725 #
point $-1 -37.423831237089452 -15.887972413520535 1.6580126502931043 #
point $-1 -31.485679639687483 -15.887972413520535 1.6580126502931043 #
point $-1 -25.547528042285514 -15.887972413520535 1.6580126502931043 #
End-of-ACIS-data 