500 0 3 0           
7 Unknown 11 ACIS 5.0 NT 24 Thu Mar 25 15:13:05 1999 
-1 9.9999999999999995e-007 1e-010 
body $-1 $3 $-1 $4 #
body $-1 $5 $-1 $6 #
body $-1 $7 $-1 $8 #
lump $-1 $-1 $9 $0 #
transform $-1 1 0 0 0 1 0 0 0 1 68.913235877559742 42.652302282517859 15.362352559222618 1 rotate no_reflect no_shear #
lump $-1 $-1 $10 $1 #
transform $-1 1 0 0 0 1 0 0 0 1 68.913235877559742 42.652302282517859 15.362352559222618 1 rotate no_reflect no_shear #
lump $-1 $-1 $11 $2 #
transform $-1 1 0 0 0 1 0 0 0 1 68.913235877559742 42.652302282517859 15.362352559222618 1 rotate no_reflect no_shear #
shell $-1 $-1 $-1 $12 $-1 $3 #
shell $-1 $-1 $-1 $13 $-1 $5 #
shell $-1 $-1 $-1 $14 $-1 $7 #
face $-1 $15 $16 $9 $-1 $17 forward single #
face $-1 $18 $19 $10 $-1 $20 forward single #
face $-1 $21 $22 $11 $-1 $23 forward single #
face $-1 $24 $25 $9 $-1 $26 reversed single #
loop $-1 $-1 $27 $12 #
plane-surface $-1 0 0 15.362352559222618 0 0 1 1 0 0 forward_v I I I I #
face $-1 $28 $29 $10 $-1 $30 reversed single #
loop $-1 $-1 $31 $13 #
plane-surface $-1 0 -36.99480546587548 -8.8906327723334577 0 0 1 1 0 0 forward_v I I I I #
face $-1 $32 $33 $11 $-1 $34 reversed single #
loop $-1 $-1 $35 $14 #
plane-surface $-1 0 42.652302282517859 0 0 -1 0 0 0 -1 forward_v I I I I #
face $-1 $36 $37 $9 $-1 $38 reversed single #
loop $-1 $-1 $39 $15 #
plane-surface $-1 0 0 -15.362352559222618 0 0 1 1 0 0 forward_v I I I I #
coedge $-1 $40 $41 $42 $43 forward $16 $-1 #
face $-1 $44 $45 $10 $-1 $46 reversed single #
loop $-1 $-1 $47 $18 #
plane-surface $-1 0 -31.337308649233101 -12.126492665778038 0 -1 0 0 0 -1 forward_v I I I I #
coedge $-1 $48 $49 $50 $51 reversed $19 $-1 #
face $-1 $52 $53 $11 $-1 $54 reversed single #
loop $-1 $-1 $55 $21 #
plane-surface $-1 0 0 -15.362352559222618 0 0 1 1 0 0 forward_v I I I I #
coedge $-1 $56 $57 $58 $59 forward $22 $-1 #
face $-1 $60 $61 $9 $-1 $62 reversed single #
loop $-1 $-1 $63 $24 #
plane-surface $-1 0 -42.652302282517859 0 0 1 0 0 0 1 forward_v I I I I #
coedge $-1 $64 $65 $66 $67 forward $25 $-1 #
coedge $-1 $68 $27 $69 $70 forward $16 $-1 #
coedge $-1 $27 $68 $71 $72 forward $16 $-1 #
coedge $-1 $73 $74 $27 $43 reversed $75 $-1 #
edge $-1 $76 -42.652302282517859 $77 42.652302282517859 $42 $78 forward 7 unknown #
face $-1 $79 $80 $10 $-1 $81 reversed single #
loop $-1 $-1 $82 $28 #
plane-surface $-1 0 0 -15.362352559222618 0 0 1 1 0 0 forward_v I I I I #
coedge $-1 $83 $84 $85 $86 reversed $29 $-1 #
coedge $-1 $87 $31 $84 $88 forward $19 $-1 #
coedge $-1 $31 $87 $89 $90 reversed $19 $-1 #
coedge $-1 $91 $85 $31 $51 forward $80 $-1 #
edge $-1 $92 12.839905916295361 $93 24.154899549580119 $50 $94 forward 7 unknown #
face $-1 $95 $96 $11 $-1 $97 reversed single #
loop $-1 $-1 $98 $32 #
plane-surface $-1 -56.662984933505143 49.258981229772566 0 1 0 0 0 0 -1 forward_v I I I I #
coedge $-1 $99 $100 $57 $101 forward $33 $-1 #
coedge $-1 $102 $35 $103 $104 reversed $22 $-1 #
coedge $-1 $35 $102 $55 $101 reversed $22 $-1 #
coedge $-1 $105 $106 $35 $59 reversed $107 $-1 #
edge $-1 $108 -15.362352559222618 $109 15.362352559222618 $58 $110 forward 7 unknown #
face $-1 $111 $112 $9 $-1 $113 reversed single #
loop $-1 $-1 $114 $36 #
plane-surface $-1 -68.913235877559742 0 0 1 0 0 0 0 -1 forward_v I I I I #
coedge $-1 $115 $71 $116 $117 forward $37 $-1 #
coedge $-1 $118 $39 $115 $119 forward $25 $-1 #
coedge $-1 $39 $118 $120 $121 forward $25 $-1 #
coedge $-1 $74 $73 $39 $67 reversed $75 $-1 #
edge $-1 $122 -42.652302282517859 $123 42.652302282517859 $66 $124 forward 7 unknown #
coedge $-1 $41 $40 $125 $126 forward $16 $-1 #
coedge $-1 $127 $128 $40 $70 reversed $112 $-1 #
edge $-1 $77 -68.913235877559742 $129 68.913235877559742 $69 $130 forward 7 unknown #
coedge $-1 $63 $131 $41 $72 reversed $37 $-1 #
edge $-1 $132 -68.913235877559742 $76 68.913235877559742 $71 $133 forward 7 unknown #
coedge $-1 $66 $42 $131 $134 forward $75 $-1 #
coedge $-1 $42 $66 $127 $135 reversed $75 $-1 #
loop $-1 $-1 $73 $111 #
vertex $-1 $43 $136 #
vertex $-1 $43 $137 #
straight-curve $-1 68.913235877559742 0 15.362352559222618 0 1 0 I I #
face $-1 $138 $139 $10 $-1 $140 reversed single #
loop $-1 $-1 $85 $44 #
plane-surface $-1 68.913235877559742 0 0 -1 0 0 0 0 1 forward_v I I I I #
coedge $-1 $141 $142 $83 $143 forward $45 $-1 #
coedge $-1 $144 $47 $82 $143 reversed $29 $-1 #
coedge $-1 $47 $144 $48 $88 reversed $29 $-1 #
coedge $-1 $50 $145 $47 $86 forward $80 $-1 #
edge $-1 $146 -9.2991062263335991 $92 -2.8273864394444388 $85 $147 forward 7 unknown #
coedge $-1 $49 $48 $148 $149 reversed $19 $-1 #
edge $-1 $92 -68.913235877559742 $150 68.913235877559742 $84 $151 forward 7 unknown #
coedge $-1 $152 $153 $49 $90 forward $139 $-1 #
edge $-1 $93 -68.913235877559742 $154 68.913235877559742 $89 $155 forward 7 unknown #
coedge $-1 $145 $50 $153 $156 forward $80 $-1 #
vertex $-1 $51 $157 #
vertex $-1 $156 $158 #
straight-curve $-1 68.913235877559742 -18.49740273293774 -8.8906327723334577 0 -1 0 I I #
face $-1 $159 $107 $11 $-1 $160 reversed single #
loop $-1 $-1 $161 $52 #
plane-surface $-1 -53.732618644222967 55.865660177027273 0 0 -1 0 0 0 -1 forward_v I I I I #
coedge $-1 $162 $163 $164 $165 forward $53 $-1 #
coedge $-1 $166 $55 $162 $167 forward $33 $-1 #
coedge $-1 $55 $166 $105 $168 forward $33 $-1 #
edge $-1 $108 50.802252354940791 $169 56.662984933505143 $55 $170 forward 7 unknown #
coedge $-1 $57 $56 $171 $172 forward $22 $-1 #
coedge $-1 $173 $174 $56 $104 forward $175 $-1 #
edge $-1 $176 -56.662984933505143 $109 -50.802252354940791 $103 $177 forward 7 unknown #
coedge $-1 $178 $58 $100 $168 reversed $107 $-1 #
coedge $-1 $58 $178 $173 $179 reversed $107 $-1 #
loop $-1 $-1 $58 $95 #
vertex $-1 $101 $180 #
vertex $-1 $179 $181 #
straight-curve $-1 -50.802252354940791 42.652302282517859 0 0 0 1 I I #
face $-1 $-1 $75 $9 $-1 $182 reversed single #
loop $-1 $-1 $127 $60 #
plane-surface $-1 0 42.652302282517859 0 0 -1 0 0 0 -1 forward_v I I I I #
coedge $-1 $183 $125 $128 $184 forward $61 $-1 #
coedge $-1 $131 $63 $64 $119 reversed $37 $-1 #
coedge $-1 $125 $183 $63 $117 reversed $61 $-1 #
edge $-1 $132 -15.362352559222618 $185 15.362352559222618 $116 $186 forward 7 unknown #
coedge $-1 $65 $64 $183 $187 forward $25 $-1 #
edge $-1 $123 -68.913235877559742 $185 68.913235877559742 $115 $188 forward 7 unknown #
coedge $-1 $128 $127 $65 $121 reversed $112 $-1 #
edge $-1 $189 -68.913235877559742 $122 68.913235877559742 $120 $190 forward 7 unknown #
vertex $-1 $67 $191 #
vertex $-1 $134 $192 #
straight-curve $-1 68.913235877559742 0 -15.362352559222618 0 -1 0 I I #
coedge $-1 $114 $116 $68 $126 reversed $61 $-1 #
edge $-1 $129 -42.652302282517859 $132 42.652302282517859 $125 $193 forward 7 unknown #
coedge $-1 $120 $69 $74 $135 forward $112 $-1 #
coedge $-1 $69 $120 $114 $184 reversed $112 $-1 #
vertex $-1 $70 $194 #
straight-curve $-1 0 42.652302282517859 15.362352559222618 -1 0 0 I I #
coedge $-1 $71 $115 $73 $134 reversed $37 $-1 #
vertex $-1 $126 $195 #
straight-curve $-1 0 -42.652302282517859 15.362352559222618 1 0 0 I I #
edge $-1 $76 -15.362352559222618 $123 15.362352559222618 $73 $196 forward 7 unknown #
edge $-1 $77 -15.362352559222618 $122 15.362352559222618 $74 $197 forward 7 unknown #
point $-1 68.913235877559742 -42.652302282517859 15.362352559222618 #
point $-1 68.913235877559742 42.652302282517859 15.362352559222618 #
face $-1 $-1 $198 $10 $-1 $199 reversed single #
loop $-1 $-1 $89 $79 #
plane-surface $-1 0 -42.652302282517859 0 0 1 0 0 0 1 forward_v I I I I #
coedge $-1 $200 $82 $145 $201 forward $45 $-1 #
coedge $-1 $82 $200 $202 $203 forward $45 $-1 #
edge $-1 $204 -68.913235877559742 $146 68.913235877559742 $82 $205 forward 7 unknown #
coedge $-1 $84 $83 $206 $207 reversed $29 $-1 #
coedge $-1 $85 $91 $141 $201 reversed $80 $-1 #
vertex $-1 $201 $208 #
straight-curve $-1 68.913235877559742 -31.337308649233101 -6.0632463328890189 0 0 1 I I #
coedge $-1 $206 $209 $87 $149 forward $198 $-1 #
edge $-1 $154 -24.154899549580119 $150 -12.839905916295361 $148 $210 forward 7 unknown #
vertex $-1 $149 $211 #
straight-curve $-1 0 -31.337308649233101 -8.8906327723334577 -1 0 0 I I #
coedge $-1 $212 $89 $209 $213 forward $139 $-1 #
coedge $-1 $89 $212 $91 $156 reversed $139 $-1 #
vertex $-1 $213 $214 #
straight-curve $-1 0 -42.652302282517859 -8.8906327723334577 -1 0 0 I I #
edge $-1 $93 8.8906327723334577 $215 15.362352559222618 $91 $216 forward 7 unknown #
point $-1 68.913235877559742 -31.337308649233101 -8.8906327723334577 #
point $-1 68.913235877559742 -42.652302282517859 -8.8906327723334577 #
face $-1 $-1 $175 $11 $-1 $217 forward single #
plane-surface $-1 -50.802252354940791 49.258981229772566 0 -1 0 0 0 0 1 forward_v I I I I #
coedge $-1 $218 $219 $178 $220 forward $96 $-1 #
coedge $-1 $171 $98 $99 $167 reversed $53 $-1 #
coedge $-1 $98 $171 $174 $221 reversed $53 $-1 #
coedge $-1 $219 $218 $98 $165 reversed $96 $-1 #
edge $-1 $222 -15.362352559222618 $223 15.362352559222618 $164 $224 forward 7 unknown #
coedge $-1 $100 $99 $218 $225 forward $33 $-1 #
edge $-1 $169 -6.6066789472547072 $223 6.6066789472547072 $162 $226 forward 7 unknown #
edge $-1 $227 -6.6066789472547072 $108 6.6066789472547072 $105 $228 forward 7 unknown #
vertex $-1 $167 $229 #
straight-curve $-1 0 42.652302282517859 -15.362352559222618 -1 0 0 I I #
coedge $-1 $163 $162 $102 $172 reversed $53 $-1 #
edge $-1 $176 -15.362352559222618 $169 15.362352559222618 $171 $230 forward 7 unknown #
coedge $-1 $231 $103 $106 $179 forward $175 $-1 #
coedge $-1 $103 $231 $163 $221 forward $175 $-1 #
loop $-1 $-1 $103 $159 #
vertex $-1 $104 $232 #
straight-curve $-1 0 42.652302282517859 15.362352559222618 1 0 0 I I #
coedge $-1 $106 $105 $161 $220 reversed $107 $-1 #
edge $-1 $109 -6.6066789472547072 $233 6.6066789472547072 $106 $234 forward 7 unknown #
point $-1 -50.802252354940791 42.652302282517859 -15.362352559222618 #
point $-1 -50.802252354940791 42.652302282517859 15.362352559222618 #
plane-surface $-1 68.913235877559742 0 0 -1 0 0 0 0 1 forward_v I I I I #
coedge $-1 $116 $114 $118 $187 reversed $61 $-1 #
edge $-1 $129 -15.362352559222618 $189 15.362352559222618 $128 $235 forward 7 unknown #
vertex $-1 $187 $236 #
straight-curve $-1 -68.913235877559742 -42.652302282517859 0 0 0 -1 I I #
edge $-1 $185 -42.652302282517859 $189 42.652302282517859 $183 $237 forward 7 unknown #
straight-curve $-1 0 -42.652302282517859 -15.362352559222618 -1 0 0 I I #
vertex $-1 $121 $238 #
straight-curve $-1 0 42.652302282517859 -15.362352559222618 1 0 0 I I #
point $-1 68.913235877559742 42.652302282517859 -15.362352559222618 #
point $-1 68.913235877559742 -42.652302282517859 -15.362352559222618 #
straight-curve $-1 -68.913235877559742 0 15.362352559222618 0 -1 0 I I #
point $-1 -68.913235877559742 42.652302282517859 15.362352559222618 #
point $-1 -68.913235877559742 -42.652302282517859 15.362352559222618 #
straight-curve $-1 68.913235877559742 -42.652302282517859 0 0 0 -1 I I #
straight-curve $-1 68.913235877559742 42.652302282517859 0 0 0 -1 I I #
loop $-1 $-1 $206 $138 #
plane-surface $-1 -68.913235877559742 0 0 1 0 0 0 0 -1 forward_v I I I I #
coedge $-1 $142 $141 $212 $239 forward $45 $-1 #
edge $-1 $146 31.337308649233101 $215 42.652302282517859 $145 $240 forward 7 unknown #
coedge $-1 $209 $206 $142 $203 reversed $198 $-1 #
edge $-1 $241 -42.652302282517859 $204 -31.337308649233101 $202 $242 forward 7 unknown #
vertex $-1 $207 $243 #
straight-curve $-1 0 -31.337308649233101 -15.362352559222618 1 0 0 I I #
coedge $-1 $202 $148 $144 $207 forward $198 $-1 #
edge $-1 $150 2.8273864394444388 $204 9.2991062263335991 $206 $244 forward 7 unknown #
point $-1 68.913235877559742 -31.337308649233101 -15.362352559222618 #
coedge $-1 $148 $202 $152 $213 reversed $198 $-1 #
straight-curve $-1 -68.913235877559742 -18.49740273293774 -8.8906327723334577 0 1 0 I I #
point $-1 -68.913235877559742 -31.337308649233101 -8.8906327723334577 #
coedge $-1 $153 $152 $200 $239 reversed $139 $-1 #
edge $-1 $154 8.8906327723334577 $241 15.362352559222618 $209 $245 forward 7 unknown #
point $-1 -68.913235877559742 -42.652302282517859 -8.8906327723334577 #
vertex $-1 $156 $246 #
straight-curve $-1 68.913235877559742 -42.652302282517859 0 0 0 -1 I I #
plane-surface $-1 0 0 15.362352559222618 0 0 1 1 0 0 forward_v I I I I #
coedge $-1 $164 $161 $166 $225 reversed $96 $-1 #
coedge $-1 $161 $164 $231 $247 reversed $96 $-1 #
edge $-1 $233 -15.362352559222618 $227 15.362352559222618 $178 $248 forward 7 unknown #
edge $-1 $222 -6.6066789472547072 $176 6.6066789472547072 $163 $249 forward 7 unknown #
vertex $-1 $247 $250 #
vertex $-1 $225 $251 #
straight-curve $-1 -56.662984933505143 55.865660177027273 0 0 0 -1 I I #
edge $-1 $223 -2.9303662892821762 $227 2.9303662892821762 $218 $252 forward 7 unknown #
straight-curve $-1 -56.662984933505143 49.258981229772566 -15.362352559222618 0 1 0 I I #
vertex $-1 $168 $253 #
straight-curve $-1 -50.802252354940791 49.258981229772566 -15.362352559222618 0 -1 0 I I #
point $-1 -56.662984933505143 42.652302282517859 -15.362352559222618 #
straight-curve $-1 -56.662984933505143 42.652302282517859 0 0 0 -1 I I #
coedge $-1 $174 $173 $219 $247 forward $175 $-1 #
point $-1 -56.662984933505143 42.652302282517859 15.362352559222618 #
vertex $-1 $179 $254 #
straight-curve $-1 -50.802252354940791 49.258981229772566 15.362352559222618 0 1 0 I I #
straight-curve $-1 -68.913235877559742 42.652302282517859 0 0 0 -1 I I #
point $-1 -68.913235877559742 -42.652302282517859 -15.362352559222618 #
straight-curve $-1 -68.913235877559742 0 -15.362352559222618 0 1 0 I I #
point $-1 -68.913235877559742 42.652302282517859 -15.362352559222618 #
edge $-1 $215 -68.913235877559742 $241 68.913235877559742 $212 $255 forward 7 unknown #
straight-curve $-1 68.913235877559742 0 -15.362352559222618 0 -1 0 I I #
vertex $-1 $203 $256 #
straight-curve $-1 -68.913235877559742 0 -15.362352559222618 0 1 0 I I #
point $-1 -68.913235877559742 -31.337308649233101 -15.362352559222618 #
straight-curve $-1 -68.913235877559742 -31.337308649233101 -6.0632463328890189 0 0 -1 I I #
straight-curve $-1 -68.913235877559742 -42.652302282517859 0 0 0 -1 I I #
point $-1 68.913235877559742 -42.652302282517859 -15.362352559222618 #
edge $-1 $233 -2.9303662892821762 $222 2.9303662892821762 $219 $257 forward 7 unknown #
straight-curve $-1 -50.802252354940791 55.865660177027273 0 0 0 -1 I I #
straight-curve $-1 -56.662984933505143 49.258981229772566 15.362352559222618 0 -1 0 I I #
point $-1 -56.662984933505143 55.865660177027273 15.362352559222618 #
point $-1 -56.662984933505143 55.865660177027273 -15.362352559222618 #
straight-curve $-1 -53.732618644222967 55.865660177027273 -15.362352559222618 1 0 0 I I #
point $-1 -50.802252354940791 55.865660177027273 -15.362352559222618 #
point $-1 -50.802252354940791 55.865660177027273 15.362352559222618 #
straight-curve $-1 0 -42.652302282517859 -15.362352559222618 -1 0 0 I I #
point $-1 -68.913235877559742 -42.652302282517859 -15.362352559222618 #
straight-curve $-1 -53.732618644222967 55.865660177027273 15.362352559222618 -1 0 0 I I #
End-of-ACIS-data 