500 0 14 0           
7 Unknown 11 ACIS 5.0 NT 24 Fri Mar 26 14:55:02 1999 
-1 9.9999999999999995e-007 1e-010 
body $-1 $14 $-1 $15 #
body $-1 $16 $-1 $17 #
body $-1 $18 $-1 $19 #
body $-1 $20 $-1 $21 #
body $-1 $22 $-1 $23 #
body $-1 $24 $-1 $25 #
body $-1 $26 $-1 $27 #
body $-1 $28 $-1 $29 #
body $-1 $30 $-1 $31 #
body $-1 $32 $-1 $33 #
body $-1 $34 $-1 $35 #
body $-1 $36 $-1 $37 #
body $-1 $38 $-1 $39 #
body $-1 $40 $-1 $41 #
lump $-1 $-1 $42 $0 #
transform $-1 1 0 0 0 1 0 0 0 1 40.092776268807029 25.456533083594991 8.4465626694986256 1 rotate no_reflect no_shear #
lump $-1 $-1 $43 $1 #
transform $-1 1 0 0 0 1 0 0 0 1 40.092776268807029 25.456533083594991 8.4465626694986256 1 rotate no_reflect no_shear #
lump $-1 $-1 $44 $2 #
transform $-1 1 0 0 0 1 0 0 0 1 40.092776268807029 25.456533083594991 8.4465626694986256 1 rotate no_reflect no_shear #
lump $-1 $-1 $45 $3 #
transform $-1 1 0 0 0 1 0 0 0 1 40.092776268807029 25.456533083594991 8.4465626694986256 1 rotate no_reflect no_shear #
lump $-1 $-1 $46 $4 #
transform $-1 1 0 0 0 1 0 0 0 1 40.092776268807029 25.456533083594991 8.4465626694986256 1 rotate no_reflect no_shear #
lump $-1 $-1 $47 $5 #
transform $-1 1 0 0 0 1 0 0 0 1 40.092776268807029 25.456533083594991 8.4465626694986256 1 rotate no_reflect no_shear #
lump $-1 $-1 $48 $6 #
transform $-1 1 0 0 0 1 0 0 0 1 40.092776268807029 25.456533083594991 8.4465626694986256 1 rotate no_reflect no_shear #
lump $-1 $-1 $49 $7 #
transform $-1 1 0 0 0 1 0 0 0 1 40.092776268807029 25.456533083594991 8.4465626694986256 1 rotate no_reflect no_shear #
lump $-1 $-1 $50 $8 #
transform $-1 1 0 0 0 1 0 0 0 1 40.092776268807029 25.456533083594991 8.4465626694986256 1 rotate no_reflect no_shear #
lump $-1 $-1 $51 $9 #
transform $-1 1 0 0 0 1 0 0 0 1 40.092776268807029 25.456533083594991 8.4465626694986256 1 rotate no_reflect no_shear #
lump $-1 $-1 $52 $10 #
transform $-1 1 0 0 0 1 0 0 0 1 40.092776268807029 25.456533083594991 8.4465626694986256 1 rotate no_reflect no_shear #
lump $-1 $-1 $53 $11 #
transform $-1 1 0 0 0 1 0 0 0 1 40.092776268807029 25.456533083594991 8.4465626694986256 1 rotate no_reflect no_shear #
lump $-1 $-1 $54 $12 #
transform $-1 1 0 0 0 1 0 0 0 1 40.092776268807029 25.456533083594991 8.4465626694986256 1 rotate no_reflect no_shear #
lump $-1 $-1 $55 $13 #
transform $-1 1 0 0 0 1 0 0 0 1 40.092776268807029 25.456533083594991 8.4465626694986256 1 rotate no_reflect no_shear #
shell $-1 $-1 $-1 $56 $-1 $14 #
shell $-1 $-1 $-1 $57 $-1 $16 #
shell $-1 $-1 $-1 $58 $-1 $18 #
shell $-1 $-1 $-1 $59 $-1 $20 #
shell $-1 $-1 $-1 $60 $-1 $22 #
shell $-1 $-1 $-1 $61 $-1 $24 #
shell $-1 $-1 $-1 $62 $-1 $26 #
shell $-1 $-1 $-1 $63 $-1 $28 #
shell $-1 $-1 $-1 $64 $-1 $30 #
shell $-1 $-1 $-1 $65 $-1 $32 #
shell $-1 $-1 $-1 $66 $-1 $34 #
shell $-1 $-1 $-1 $67 $-1 $36 #
shell $-1 $-1 $-1 $68 $-1 $38 #
shell $-1 $-1 $-1 $69 $-1 $40 #
face $-1 $70 $71 $42 $-1 $72 forward single #
face $-1 $73 $74 $43 $-1 $75 forward single #
face $-1 $76 $77 $44 $-1 $78 reversed single #
face $-1 $79 $80 $45 $-1 $81 forward single #
face $-1 $82 $83 $46 $-1 $84 reversed single #
face $-1 $85 $86 $47 $-1 $87 forward single #
face $-1 $88 $89 $48 $-1 $90 reversed single #
face $-1 $91 $92 $49 $-1 $93 forward single #
face $-1 $94 $95 $50 $-1 $96 reversed single #
face $-1 $97 $98 $51 $-1 $99 forward single #
face $-1 $100 $101 $52 $-1 $102 reversed single #
face $-1 $103 $104 $53 $-1 $105 forward single #
face $-1 $106 $107 $54 $-1 $108 reversed single #
face $-1 $109 $110 $55 $-1 $111 forward single #
face $-1 $112 $113 $42 $-1 $114 reversed single #
loop $-1 $-1 $115 $56 #
plane-surface $-1 0 0 8.4465626694986256 0 0 1 1 0 0 forward_v I I I I #
face $-1 $116 $117 $43 $-1 $118 reversed single #
loop $-1 $-1 $119 $57 #
plane-surface $-1 0 -20.330356036602691 -5.4465626694986256 0 0 1 1 0 0 forward_v I I I I #
face $-1 $120 $121 $44 $-1 $122 reversed single #
loop $-1 $-1 $123 $58 #
plane-surface $-1 -87.224662099479573 -10.620581107120596 64.983507205567889 0 1 0 -0.5877852598018023 0 0.80901698891910034 forward_v I I I I #
face $-1 $124 $125 $45 $-1 $126 forward single #
loop $-1 $127 $128 $59 #
cone-surface $-1 -32.228143230643475 -5.7371813418640301 1.3491388563008746 0.5877852598018023 0 -0.80901698891910034 1.6180339778382007 0 1.1755705196036046 1 I I 0 1 2 forward I I I I #
face $-1 $129 $130 $46 $-1 $131 reversed single #
loop $-1 $-1 $132 $60 #
plane-surface $-1 -87.224662099479573 9.7097749294820979 64.983507205567889 0 1 0 -0.5877852598018023 0 0.80901698891910034 forward_v I I I I #
face $-1 $133 $134 $47 $-1 $135 forward single #
loop $-1 $136 $137 $61 #
cone-surface $-1 -32.228143230643475 14.593174694738664 1.3491388563008746 0.5877852598018023 0 -0.80901698891910034 1.6180339778382007 0 1.1755705196036046 1 I I 0 1 2 forward I I I I #
face $-1 $138 $139 $48 $-1 $140 reversed single #
loop $-1 $-1 $141 $62 #
plane-surface $-1 46.027648725981948 -7.0655617003006341 115.31735997783602 0 -1 0 -0.74314483375859142 0 -0.66913059716165679 forward_v I I I I #
face $-1 $142 $143 $49 $-1 $144 forward single #
loop $-1 $145 $146 $63 #
cone-surface $-1 35.833965135998604 -10.134179614211519 4.0087675672020282 -0.74314483375859142 0 -0.66913059716165679 1.0036958957424851 0 -1.1147172506378871 1 I I 0 1 1.5 forward I I I I #
face $-1 $147 $148 $50 $-1 $149 reversed single #
loop $-1 $-1 $150 $64 #
plane-surface $-1 46.027648725981948 3.099616318000713 115.31735997783602 0 -1 0 -0.74314483375859142 0 -0.66913059716165679 forward_v I I I I #
face $-1 $151 $152 $51 $-1 $153 forward single #
loop $-1 $154 $155 $65 #
cone-surface $-1 35.833965135998604 0.030998404089828568 4.0087675672020282 -0.74314483375859142 0 -0.66913059716165679 1.0036958957424851 0 -1.1147172506378871 1 I I 0 1 1.5 forward I I I I #
face $-1 $156 $157 $52 $-1 $158 reversed single #
loop $-1 $-1 $159 $66 #
plane-surface $-1 46.027648725981948 13.26479433630206 115.31735997783602 0 -1 0 -0.74314483375859142 0 -0.66913059716165679 forward_v I I I I #
face $-1 $160 $161 $53 $-1 $162 forward single #
loop $-1 $163 $164 $67 #
cone-surface $-1 35.833965135998604 10.196176422391176 4.0087675672020282 -0.74314483375859142 0 -0.66913059716165679 1.0036958957424851 0 -1.1147172506378871 1 I I 0 1 1.5 forward I I I I #
face $-1 $165 $166 $54 $-1 $167 reversed single #
loop $-1 $-1 $168 $68 #
plane-surface $-1 46.027648725981948 23.429972354603407 115.31735997783602 0 -1 0 -0.74314483375859142 0 -0.66913059716165679 forward_v I I I I #
face $-1 $169 $170 $55 $-1 $171 forward single #
loop $-1 $172 $173 $69 #
cone-surface $-1 35.833965135998604 20.361354440692523 4.0087675672020282 -0.74314483375859142 0 -0.66913059716165679 1.0036958957424851 0 -1.1147172506378871 1 I I 0 1 1.5 forward I I I I #
face $-1 $174 $175 $42 $-1 $176 reversed single #
loop $-1 $-1 $177 $70 #
plane-surface $-1 0 0 -8.4465626694986256 0 0 1 1 0 0 forward_v I I I I #
coedge $-1 $178 $179 $180 $181 forward $71 $-1 #
face $-1 $182 $183 $43 $-1 $184 reversed single #
loop $-1 $-1 $185 $73 #
plane-surface $-1 0 -15.204178989610391 -6.9465626694986256 0 -1 0 0 0 -1 forward_v I I I I #
coedge $-1 $186 $187 $188 $189 reversed $74 $-1 #
face $-1 $190 $191 $44 $-1 $192 reversed single #
loop $-1 $-1 $193 $76 #
plane-surface $-1 -40.092776268807029 -5.7371813418640301 0.1120329367730335 -0.5877852598018023 0 0.80901698891910034 0.80901698891910034 0 0.5877852598018023 forward_v I I I I #
coedge $-1 $194 $195 $196 $197 reversed $77 $-1 #
face $-1 $-1 $198 $45 $-1 $199 forward single #
loop $-1 $200 $201 $79 #
cone-surface $-1 -29.511472840596049 -5.7371813418640301 -2.3900370794531813 0.5877852598018023 0 -0.80901698891910034 0.80901698891910034 0 0.5877852598018023 1 I I -0.70710678118654746 0.70710678118654746 1 forward I I I I #
loop $-1 $-1 $202 $59 #
coedge $-1 $128 $128 $203 $204 reversed $80 $-1 #
face $-1 $205 $206 $46 $-1 $207 reversed single #
loop $-1 $-1 $208 $82 #
plane-surface $-1 -40.092776268807029 14.593174694738664 0.1120329367730335 -0.5877852598018023 0 0.80901698891910034 0.80901698891910034 0 0.5877852598018023 forward_v I I I I #
coedge $-1 $209 $210 $211 $212 reversed $83 $-1 #
face $-1 $-1 $213 $47 $-1 $214 forward single #
loop $-1 $215 $216 $85 #
cone-surface $-1 -29.511472840596049 14.593174694738664 -2.3900370794531813 0.5877852598018023 0 -0.80901698891910034 0.80901698891910034 0 0.5877852598018023 1 I I -0.70710678118654746 0.70710678118654746 1 forward I I I I #
loop $-1 $-1 $217 $61 #
coedge $-1 $137 $137 $218 $219 reversed $86 $-1 #
face $-1 $220 $221 $48 $-1 $222 reversed single #
loop $-1 $-1 $223 $88 #
plane-surface $-1 -13.561830384424049 -10.134179614211519 61.662753324604921 0.74314483375859142 0 0.66913059716165679 0.66913059716165679 0 -0.74314483375859142 forward_v I I I I #
coedge $-1 $224 $225 $226 $227 reversed $89 $-1 #
face $-1 $-1 $228 $49 $-1 $229 forward single #
loop $-1 $230 $231 $91 #
cone-surface $-1 33.887062656773907 -10.134179614211519 2.2557687446840475 -0.74314483375859142 0 -0.66913059716165679 0.50184794787124254 0 -0.55735862531894353 1 I I -0.70710678118654757 0.70710678118654757 0.75 forward I I I I #
loop $-1 $-1 $232 $63 #
coedge $-1 $146 $146 $233 $234 reversed $92 $-1 #
face $-1 $235 $236 $50 $-1 $237 reversed single #
loop $-1 $-1 $238 $94 #
plane-surface $-1 -13.561830384424049 0.030998404089828568 61.662753324604921 0.74314483375859142 0 0.66913059716165679 0.66913059716165679 0 -0.74314483375859142 forward_v I I I I #
coedge $-1 $239 $240 $241 $242 reversed $95 $-1 #
face $-1 $-1 $243 $51 $-1 $244 forward single #
loop $-1 $245 $246 $97 #
cone-surface $-1 33.887062656773907 0.030998404089828568 2.2557687446840475 -0.74314483375859142 0 -0.66913059716165679 0.50184794787124254 0 -0.55735862531894353 1 I I -0.70710678118654757 0.70710678118654757 0.75 forward I I I I #
loop $-1 $-1 $247 $65 #
coedge $-1 $155 $155 $248 $249 reversed $98 $-1 #
face $-1 $250 $251 $52 $-1 $252 reversed single #
loop $-1 $-1 $253 $100 #
plane-surface $-1 -13.561830384424049 10.196176422391176 61.662753324604921 0.74314483375859142 0 0.66913059716165679 0.66913059716165679 0 -0.74314483375859142 forward_v I I I I #
coedge $-1 $254 $255 $256 $257 reversed $101 $-1 #
face $-1 $-1 $258 $53 $-1 $259 forward single #
loop $-1 $260 $261 $103 #
cone-surface $-1 33.887062656773907 10.196176422391176 2.2557687446840475 -0.74314483375859142 0 -0.66913059716165679 0.50184794787124254 0 -0.55735862531894353 1 I I -0.70710678118654757 0.70710678118654757 0.75 forward I I I I #
loop $-1 $-1 $262 $67 #
coedge $-1 $164 $164 $263 $264 reversed $104 $-1 #
face $-1 $265 $266 $54 $-1 $267 reversed single #
loop $-1 $-1 $268 $106 #
plane-surface $-1 -13.561830384424049 20.361354440692523 61.662753324604921 0.74314483375859142 0 0.66913059716165679 0.66913059716165679 0 -0.74314483375859142 forward_v I I I I #
coedge $-1 $269 $270 $271 $272 reversed $107 $-1 #
face $-1 $-1 $273 $55 $-1 $274 forward single #
loop $-1 $275 $276 $109 #
cone-surface $-1 33.887062656773907 20.361354440692523 2.2557687446840475 -0.74314483375859142 0 -0.66913059716165679 0.50184794787124254 0 -0.55735862531894353 1 I I -0.70710678118654757 0.70710678118654757 0.75 forward I I I I #
loop $-1 $-1 $277 $69 #
coedge $-1 $173 $173 $278 $279 reversed $110 $-1 #
face $-1 $280 $281 $42 $-1 $282 reversed single #
loop $-1 $-1 $283 $112 #
plane-surface $-1 0 -25.456533083594991 0 0 1 0 0 0 1 forward_v I I I I #
coedge $-1 $284 $285 $286 $287 forward $113 $-1 #
coedge $-1 $288 $115 $289 $290 forward $71 $-1 #
coedge $-1 $115 $288 $291 $292 forward $71 $-1 #
coedge $-1 $293 $294 $115 $181 reversed $295 $-1 #
edge $-1 $296 -25.456533083594991 $297 25.456533083594991 $180 $298 forward 7 unknown #
face $-1 $299 $300 $43 $-1 $301 reversed single #
loop $-1 $-1 $302 $116 #
plane-surface $-1 0 0 -8.4465626694986256 0 0 1 1 0 0 forward_v I I I I #
coedge $-1 $303 $304 $305 $306 reversed $117 $-1 #
coedge $-1 $307 $119 $304 $308 forward $74 $-1 #
coedge $-1 $119 $307 $309 $310 reversed $74 $-1 #
coedge $-1 $311 $305 $119 $189 forward $300 $-1 #
edge $-1 $312 5.0390009713090453 $313 15.291355065293645 $188 $314 forward 7 unknown #
face $-1 $315 $316 $44 $-1 $317 forward single #
loop $-1 $-1 $318 $120 #
plane-surface $-1 -87.224662099479573 -0.85378157660746457 64.983507205567889 0 -1 0 0.5877852598018023 0 -0.80901698891910034 forward_v I I I I #
coedge $-1 $319 $320 $321 $322 reversed $121 $-1 #
coedge $-1 $195 $123 $323 $324 reversed $77 $-1 #
coedge $-1 $123 $194 $319 $325 reversed $77 $-1 #
coedge $-1 $321 $326 $123 $197 forward $316 $-1 #
edge $-1 $327 3.5195547809327579 $328 14.991050596768623 $196 $329 forward 7 unknown #
loop $-1 $-1 $203 $124 #
plane-surface $-1 -40.092776268807029 -5.7371813418640301 0.1120329367730335 -0.5877852598018023 0 0.80901698891910034 0.80901698891910034 0 0.5877852598018023 forward_v I I I I #
loop $-1 $-1 $330 $79 #
coedge $-1 $201 $201 $202 $331 reversed $125 $-1 #
coedge $-1 $202 $202 $201 $331 forward $127 $-1 #
coedge $-1 $203 $203 $128 $204 forward $198 $-1 #
edge $-1 $332 0 $332 6.2831853071796004 $203 $333 forward 7 unknown #
face $-1 $334 $335 $46 $-1 $336 forward single #
loop $-1 $-1 $337 $129 #
plane-surface $-1 -87.224662099479573 19.476574459995231 64.983507205567889 0 -1 0 0.5877852598018023 0 -0.80901698891910034 forward_v I I I I #
coedge $-1 $338 $339 $340 $341 reversed $130 $-1 #
coedge $-1 $210 $132 $342 $343 reversed $83 $-1 #
coedge $-1 $132 $209 $338 $344 reversed $83 $-1 #
coedge $-1 $340 $345 $132 $212 forward $335 $-1 #
edge $-1 $346 3.5195547809327579 $347 14.991050596768623 $211 $348 forward 7 unknown #
loop $-1 $-1 $218 $133 #
plane-surface $-1 -40.092776268807029 14.593174694738664 0.1120329367730335 -0.5877852598018023 0 0.80901698891910034 0.80901698891910034 0 0.5877852598018023 forward_v I I I I #
loop $-1 $-1 $349 $85 #
coedge $-1 $216 $216 $217 $350 reversed $134 $-1 #
coedge $-1 $217 $217 $216 $350 forward $136 $-1 #
coedge $-1 $218 $218 $137 $219 forward $213 $-1 #
edge $-1 $351 0 $351 6.2831853071796004 $218 $352 forward 7 unknown #
face $-1 $353 $354 $48 $-1 $355 reversed single #
loop $-1 $-1 $356 $138 #
plane-surface $-1 46.027648725981948 -13.202797528122403 115.31735997783602 0 1 0 0.74314483375859142 0 0.66913059716165679 forward_v I I I I #
coedge $-1 $357 $358 $359 $360 reversed $139 $-1 #
coedge $-1 $225 $141 $361 $362 reversed $89 $-1 #
coedge $-1 $141 $224 $357 $363 reversed $89 $-1 #
coedge $-1 $359 $364 $141 $227 forward $365 $-1 #
edge $-1 $366 -17.078951905816055 $367 -11.340417348010739 $226 $368 forward 7 unknown #
loop $-1 $-1 $233 $142 #
plane-surface $-1 -13.561830384424049 -10.134179614211519 61.662753324604921 0.74314483375859142 0 0.66913059716165679 0.66913059716165679 0 -0.74314483375859142 forward_v I I I I #
loop $-1 $-1 $369 $91 #
coedge $-1 $231 $231 $232 $370 reversed $143 $-1 #
coedge $-1 $232 $232 $231 $370 forward $145 $-1 #
coedge $-1 $233 $233 $146 $234 forward $228 $-1 #
edge $-1 $371 0 $371 6.2831853071796004 $233 $372 forward 7 unknown #
face $-1 $373 $374 $50 $-1 $375 reversed single #
loop $-1 $-1 $376 $147 #
plane-surface $-1 46.027648725981948 -3.0376195098210559 115.31735997783602 0 1 0 0.74314483375859142 0 0.66913059716165679 forward_v I I I I #
coedge $-1 $377 $378 $379 $380 reversed $148 $-1 #
coedge $-1 $240 $150 $381 $382 reversed $95 $-1 #
coedge $-1 $150 $239 $377 $383 reversed $95 $-1 #
coedge $-1 $379 $384 $150 $242 forward $385 $-1 #
edge $-1 $386 -17.078951905816055 $387 -11.340417348010739 $241 $388 forward 7 unknown #
loop $-1 $-1 $248 $151 #
plane-surface $-1 -13.561830384424049 0.030998404089828568 61.662753324604921 0.74314483375859142 0 0.66913059716165679 0.66913059716165679 0 -0.74314483375859142 forward_v I I I I #
loop $-1 $-1 $389 $97 #
coedge $-1 $246 $246 $247 $390 reversed $152 $-1 #
coedge $-1 $247 $247 $246 $390 forward $154 $-1 #
coedge $-1 $248 $248 $155 $249 forward $243 $-1 #
edge $-1 $391 0 $391 6.2831853071796004 $248 $392 forward 7 unknown #
face $-1 $393 $394 $52 $-1 $395 reversed single #
loop $-1 $-1 $396 $156 #
plane-surface $-1 46.027648725981948 7.1275585084802913 115.31735997783602 0 1 0 0.74314483375859142 0 0.66913059716165679 forward_v I I I I #
coedge $-1 $397 $398 $399 $400 reversed $157 $-1 #
coedge $-1 $255 $159 $401 $402 reversed $101 $-1 #
coedge $-1 $159 $254 $397 $403 reversed $101 $-1 #
coedge $-1 $399 $404 $159 $257 forward $405 $-1 #
edge $-1 $406 -17.078951905816055 $407 -11.340417348010739 $256 $408 forward 7 unknown #
loop $-1 $-1 $263 $160 #
plane-surface $-1 -13.561830384424049 10.196176422391176 61.662753324604921 0.74314483375859142 0 0.66913059716165679 0.66913059716165679 0 -0.74314483375859142 forward_v I I I I #
loop $-1 $-1 $409 $103 #
coedge $-1 $261 $261 $262 $410 reversed $161 $-1 #
coedge $-1 $262 $262 $261 $410 forward $163 $-1 #
coedge $-1 $263 $263 $164 $264 forward $258 $-1 #
edge $-1 $411 0 $411 6.2831853071796004 $263 $412 forward 7 unknown #
face $-1 $413 $414 $54 $-1 $415 reversed single #
loop $-1 $-1 $416 $165 #
plane-surface $-1 46.027648725981948 17.292736526781638 115.31735997783602 0 1 0 0.74314483375859142 0 0.66913059716165679 forward_v I I I I #
coedge $-1 $417 $418 $419 $420 reversed $166 $-1 #
coedge $-1 $270 $168 $421 $422 reversed $107 $-1 #
coedge $-1 $168 $269 $417 $423 reversed $107 $-1 #
coedge $-1 $419 $424 $168 $272 forward $425 $-1 #
edge $-1 $426 -17.078951905816055 $427 -11.340417348010739 $271 $428 forward 7 unknown #
loop $-1 $-1 $278 $169 #
plane-surface $-1 -13.561830384424049 20.361354440692523 61.662753324604921 0.74314483375859142 0 0.66913059716165679 0.66913059716165679 0 -0.74314483375859142 forward_v I I I I #
loop $-1 $-1 $429 $109 #
coedge $-1 $276 $276 $277 $430 reversed $170 $-1 #
coedge $-1 $277 $277 $276 $430 forward $172 $-1 #
coedge $-1 $278 $278 $173 $279 forward $273 $-1 #
edge $-1 $431 0 $431 6.2831853071796004 $278 $432 forward 7 unknown #
face $-1 $433 $434 $42 $-1 $435 reversed single #
loop $-1 $-1 $436 $174 #
plane-surface $-1 -40.092776268807029 0 0 1 0 0 0 0 -1 forward_v I I I I #
coedge $-1 $437 $291 $438 $439 forward $175 $-1 #
coedge $-1 $440 $177 $437 $441 forward $113 $-1 #
coedge $-1 $177 $440 $442 $443 forward $113 $-1 #
coedge $-1 $294 $293 $177 $287 reversed $295 $-1 #
edge $-1 $444 -25.456533083594991 $445 25.456533083594991 $286 $446 forward 7 unknown #
coedge $-1 $179 $178 $447 $448 forward $71 $-1 #
coedge $-1 $449 $450 $178 $290 reversed $434 $-1 #
edge $-1 $297 -40.092776268807029 $451 40.092776268807029 $289 $452 forward 7 unknown #
coedge $-1 $283 $453 $179 $292 reversed $175 $-1 #
edge $-1 $454 -40.092776268807029 $296 40.092776268807029 $291 $455 forward 7 unknown #
coedge $-1 $286 $180 $453 $456 forward $295 $-1 #
coedge $-1 $180 $286 $449 $457 reversed $295 $-1 #
loop $-1 $-1 $293 $433 #
vertex $-1 $181 $458 #
vertex $-1 $181 $459 #
straight-curve $-1 40.092776268807029 0 8.4465626694986256 0 1 0 I I #
face $-1 $460 $461 $43 $-1 $462 reversed single #
loop $-1 $-1 $305 $182 #
plane-surface $-1 40.092776268807029 0 0 -1 0 0 0 0 1 forward_v I I I I #
coedge $-1 $463 $464 $303 $465 forward $183 $-1 #
coedge $-1 $466 $185 $302 $465 reversed $117 $-1 #
coedge $-1 $185 $466 $186 $308 reversed $117 $-1 #
coedge $-1 $188 $467 $185 $306 forward $300 $-1 #
edge $-1 $468 -4.9732813347493128 $312 -1.9732813347493128 $305 $469 forward 7 unknown #
coedge $-1 $187 $186 $470 $471 reversed $74 $-1 #
edge $-1 $312 -40.092776268807029 $472 40.092776268807029 $304 $473 forward 7 unknown #
coedge $-1 $474 $475 $187 $310 forward $461 $-1 #
edge $-1 $313 -40.092776268807029 $476 40.092776268807029 $309 $477 forward 7 unknown #
coedge $-1 $467 $188 $475 $478 forward $300 $-1 #
vertex $-1 $189 $479 #
vertex $-1 $478 $480 #
straight-curve $-1 40.092776268807029 -10.165178018301345 -5.4465626694986256 0 -1 0 I I #
face $-1 $-1 $481 $44 $-1 $482 reversed single #
loop $-1 $-1 $196 $190 #
plane-surface $-1 0 0 8.4465626694986256 0 0 1 1 0 0 forward_v I I I I #
coedge $-1 $483 $484 $485 $486 reversed $191 $-1 #
coedge $-1 $487 $193 $195 $325 forward $121 $-1 #
coedge $-1 $193 $487 $483 $488 forward $121 $-1 #
coedge $-1 $485 $196 $193 $322 forward $316 $-1 #
edge $-1 $328 -7.7519904361885814 $489 2.0148090943245505 $321 $490 forward 7 unknown #
coedge $-1 $491 $492 $194 $324 forward $481 $-1 #
edge $-1 $493 -32.379720666010911 $327 -24.045190933285319 $323 $494 forward 7 unknown #
edge $-1 $328 -14.179548727601549 $493 0 $195 $495 forward 7 unknown #
coedge $-1 $196 $485 $491 $496 forward $316 $-1 #
vertex $-1 $324 $497 #
vertex $-1 $197 $498 #
straight-curve $-1 -43.612331049739787 -10.620581107120596 8.4465626694986256 1 0 0 I I #
coedge $-1 $330 $330 $-1 $499 reversed $200 $-1 #
edge $-1 $500 0 $500 6.2831853071796004 $201 $501 forward 7 unknown #
vertex $-1 $204 $502 #
ellipse-curve $-1 -34.357028360889096 -5.7371813418640301 4.2792978031358295 -0.5877852598018023 0 0.80901698891910034 1.6180339778382007 0 1.1755705196036046 1 I I #
face $-1 $-1 $503 $46 $-1 $504 reversed single #
loop $-1 $-1 $211 $205 #
plane-surface $-1 0 0 8.4465626694986256 0 0 1 1 0 0 forward_v I I I I #
coedge $-1 $505 $506 $507 $508 reversed $206 $-1 #
coedge $-1 $509 $208 $210 $344 forward $130 $-1 #
coedge $-1 $208 $509 $505 $510 forward $130 $-1 #
coedge $-1 $507 $211 $208 $341 forward $335 $-1 #
edge $-1 $347 2.4131875821127657 $511 12.179987112625899 $340 $512 forward 7 unknown #
coedge $-1 $513 $514 $209 $343 forward $503 $-1 #
edge $-1 $515 -32.379720666010911 $346 -24.045190933285319 $342 $516 forward 7 unknown #
edge $-1 $347 -14.179548727601549 $515 0 $210 $517 forward 7 unknown #
coedge $-1 $211 $507 $513 $518 forward $335 $-1 #
vertex $-1 $212 $519 #
vertex $-1 $212 $520 #
straight-curve $-1 -43.612331049739787 9.7097749294820979 8.4465626694986256 1 0 0 I I #
coedge $-1 $349 $349 $-1 $521 reversed $215 $-1 #
edge $-1 $522 0 $522 6.2831853071796004 $216 $523 forward 7 unknown #
vertex $-1 $219 $524 #
ellipse-curve $-1 -34.357028360889096 14.593174694738664 4.2792978031358295 -0.5877852598018023 0 0.80901698891910034 1.6180339778382007 0 1.1755705196036046 1 I I #
face $-1 $-1 $365 $48 $-1 $525 forward single #
loop $-1 $-1 $526 $220 #
plane-surface $-1 40.092776268807029 0 0 -1 0 0 0 0 1 forward_v I I I I #
coedge $-1 $527 $528 $529 $530 reversed $221 $-1 #
coedge $-1 $531 $223 $225 $363 forward $139 $-1 #
coedge $-1 $223 $531 $527 $532 forward $139 $-1 #
coedge $-1 $529 $226 $223 $360 forward $365 $-1 #
edge $-1 $367 1.9984718931948748 $533 8.1357077210166437 $359 $534 forward 7 unknown #
coedge $-1 $535 $536 $224 $362 forward $354 $-1 #
edge $-1 $537 -55.585405774719064 $366 -49.212117319419384 $361 $538 forward 7 unknown #
edge $-1 $367 71.609447092507708 $537 80.185552537614029 $225 $539 forward 7 unknown #
coedge $-1 $226 $529 $535 $540 forward $365 $-1 #
loop $-1 $-1 $529 $353 #
vertex $-1 $362 $541 #
vertex $-1 $227 $542 #
straight-curve $-1 23.013824362990974 -7.0655617003006341 8.4465626694986256 -1 0 0 I I #
coedge $-1 $369 $369 $-1 $543 reversed $230 $-1 #
edge $-1 $544 0 $544 6.2831853071796004 $231 $545 forward 7 unknown #
vertex $-1 $234 $546 #
ellipse-curve $-1 37.223508989904367 -10.134179614211519 5.2599184418487788 0.74314483375859142 0 0.66913059716165679 1.0036958957424851 0 -1.1147172506378871 1 I I #
face $-1 $-1 $385 $50 $-1 $547 forward single #
loop $-1 $-1 $548 $235 #
plane-surface $-1 40.092776268807029 0 0 -1 0 0 0 0 1 forward_v I I I I #
coedge $-1 $549 $550 $551 $552 reversed $236 $-1 #
coedge $-1 $553 $238 $240 $383 forward $148 $-1 #
coedge $-1 $238 $553 $549 $554 forward $148 $-1 #
coedge $-1 $551 $241 $238 $380 forward $385 $-1 #
edge $-1 $387 -3.0841171159557987 $555 3.0531187118659702 $379 $556 forward 7 unknown #
coedge $-1 $557 $558 $239 $382 forward $374 $-1 #
edge $-1 $559 -55.585405774719064 $386 -49.212117319419384 $381 $560 forward 7 unknown #
edge $-1 $387 71.609447092507708 $559 80.185552537614029 $240 $561 forward 7 unknown #
coedge $-1 $241 $551 $557 $562 forward $385 $-1 #
loop $-1 $-1 $551 $373 #
vertex $-1 $382 $563 #
vertex $-1 $242 $564 #
straight-curve $-1 23.013824362990974 3.099616318000713 8.4465626694986256 -1 0 0 I I #
coedge $-1 $389 $389 $-1 $565 reversed $245 $-1 #
edge $-1 $566 0 $566 6.2831853071796004 $246 $567 forward 7 unknown #
vertex $-1 $249 $568 #
ellipse-curve $-1 37.223508989904367 0.030998404089828568 5.2599184418487788 0.74314483375859142 0 0.66913059716165679 1.0036958957424851 0 -1.1147172506378871 1 I I #
face $-1 $-1 $405 $52 $-1 $569 forward single #
loop $-1 $-1 $570 $250 #
plane-surface $-1 40.092776268807029 0 0 -1 0 0 0 0 1 forward_v I I I I #
coedge $-1 $571 $572 $573 $574 reversed $251 $-1 #
coedge $-1 $575 $253 $255 $403 forward $157 $-1 #
coedge $-1 $253 $575 $571 $576 forward $157 $-1 #
coedge $-1 $573 $256 $253 $400 forward $405 $-1 #
edge $-1 $407 -8.1667061251064723 $577 -2.0294702972847034 $399 $578 forward 7 unknown #
coedge $-1 $579 $580 $254 $402 forward $394 $-1 #
edge $-1 $581 -55.585405774719064 $406 -49.212117319419384 $401 $582 forward 7 unknown #
edge $-1 $407 71.609447092507708 $581 80.185552537614029 $255 $583 forward 7 unknown #
coedge $-1 $256 $573 $579 $584 forward $405 $-1 #
loop $-1 $-1 $573 $393 #
vertex $-1 $402 $585 #
vertex $-1 $257 $586 #
straight-curve $-1 23.013824362990974 13.26479433630206 8.4465626694986256 -1 0 0 I I #
coedge $-1 $409 $409 $-1 $587 reversed $260 $-1 #
edge $-1 $588 0 $588 6.2831853071796004 $261 $589 forward 7 unknown #
vertex $-1 $264 $590 #
ellipse-curve $-1 37.223508989904367 10.196176422391176 5.2599184418487788 0.74314483375859142 0 0.66913059716165679 1.0036958957424851 0 -1.1147172506378871 1 I I #
face $-1 $-1 $425 $54 $-1 $591 forward single #
loop $-1 $-1 $592 $265 #
plane-surface $-1 40.092776268807029 0 0 -1 0 0 0 0 1 forward_v I I I I #
coedge $-1 $593 $594 $595 $596 reversed $266 $-1 #
coedge $-1 $597 $268 $270 $423 forward $166 $-1 #
coedge $-1 $268 $597 $593 $598 forward $166 $-1 #
coedge $-1 $595 $271 $268 $420 forward $425 $-1 #
edge $-1 $427 -13.249295134257146 $599 -7.112059306435377 $419 $600 forward 7 unknown #
coedge $-1 $601 $602 $269 $422 forward $414 $-1 #
edge $-1 $603 -55.585405774719064 $426 -49.212117319419384 $421 $604 forward 7 unknown #
edge $-1 $427 71.609447092507708 $603 80.185552537614029 $270 $605 forward 7 unknown #
coedge $-1 $271 $595 $601 $606 forward $425 $-1 #
loop $-1 $-1 $595 $413 #
vertex $-1 $422 $607 #
vertex $-1 $272 $608 #
straight-curve $-1 23.013824362990974 23.429972354603407 8.4465626694986256 -1 0 0 I I #
coedge $-1 $429 $429 $-1 $609 reversed $275 $-1 #
edge $-1 $610 0 $610 6.2831853071796004 $276 $611 forward 7 unknown #
vertex $-1 $279 $612 #
ellipse-curve $-1 37.223508989904367 20.361354440692523 5.2599184418487788 0.74314483375859142 0 0.66913059716165679 1.0036958957424851 0 -1.1147172506378871 1 I I #
face $-1 $-1 $295 $42 $-1 $613 reversed single #
loop $-1 $-1 $449 $280 #
plane-surface $-1 0 25.456533083594991 0 0 -1 0 0 0 -1 forward_v I I I I #
coedge $-1 $614 $447 $450 $615 forward $281 $-1 #
coedge $-1 $453 $283 $284 $441 reversed $175 $-1 #
coedge $-1 $447 $614 $283 $439 reversed $281 $-1 #
edge $-1 $454 -8.4465626694986256 $616 8.4465626694986256 $438 $617 forward 7 unknown #
coedge $-1 $285 $284 $614 $618 forward $113 $-1 #
edge $-1 $445 -40.092776268807029 $616 40.092776268807029 $437 $619 forward 7 unknown #
coedge $-1 $450 $449 $285 $443 reversed $434 $-1 #
edge $-1 $620 -40.092776268807029 $444 40.092776268807029 $442 $621 forward 7 unknown #
vertex $-1 $287 $622 #
vertex $-1 $456 $623 #
straight-curve $-1 40.092776268807029 0 -8.4465626694986256 0 -1 0 I I #
coedge $-1 $436 $438 $288 $448 reversed $281 $-1 #
edge $-1 $451 -25.456533083594991 $454 25.456533083594991 $447 $624 forward 7 unknown #
coedge $-1 $442 $289 $294 $457 forward $434 $-1 #
coedge $-1 $289 $442 $436 $615 reversed $434 $-1 #
vertex $-1 $290 $625 #
straight-curve $-1 0 25.456533083594991 8.4465626694986256 -1 0 0 I I #
coedge $-1 $291 $437 $293 $456 reversed $175 $-1 #
vertex $-1 $448 $626 #
straight-curve $-1 0 -25.456533083594991 8.4465626694986256 1 0 0 I I #
edge $-1 $296 -8.4465626694986256 $445 8.4465626694986256 $293 $627 forward 7 unknown #
edge $-1 $297 -8.4465626694986256 $444 8.4465626694986256 $294 $628 forward 7 unknown #
point $-1 40.092776268807029 -25.456533083594991 8.4465626694986256 #
point $-1 40.092776268807029 25.456533083594991 8.4465626694986256 #
face $-1 $-1 $629 $43 $-1 $630 reversed single #
loop $-1 $-1 $309 $299 #
plane-surface $-1 0 -25.456533083594991 0 0 1 0 0 0 1 forward_v I I I I #
coedge $-1 $631 $302 $467 $632 forward $183 $-1 #
coedge $-1 $302 $631 $633 $634 forward $183 $-1 #
edge $-1 $635 -40.092776268807029 $468 40.092776268807029 $302 $636 forward 7 unknown #
coedge $-1 $304 $303 $637 $638 reversed $117 $-1 #
coedge $-1 $305 $311 $463 $632 reversed $300 $-1 #
vertex $-1 $632 $639 #
straight-curve $-1 40.092776268807029 -15.204178989610391 -3.4732813347493128 0 0 1 I I #
coedge $-1 $637 $640 $307 $471 forward $629 $-1 #
edge $-1 $476 -15.291355065293645 $472 -5.0390009713090453 $470 $641 forward 7 unknown #
vertex $-1 $471 $642 #
straight-curve $-1 0 -15.204178989610391 -5.4465626694986256 -1 0 0 I I #
coedge $-1 $643 $309 $640 $644 forward $461 $-1 #
coedge $-1 $309 $643 $311 $478 reversed $461 $-1 #
vertex $-1 $644 $645 #
straight-curve $-1 0 -25.456533083594991 -5.4465626694986256 -1 0 0 I I #
edge $-1 $313 5.4465626694986256 $646 8.4465626694986256 $311 $647 forward 7 unknown #
point $-1 40.092776268807029 -15.204178989610391 -5.4465626694986256 #
point $-1 40.092776268807029 -25.456533083594991 -5.4465626694986256 #
loop $-1 $-1 $323 $315 #
plane-surface $-1 -40.092776268807029 0 0 1 0 0 0 0 -1 forward_v I I I I #
coedge $-1 $484 $318 $320 $488 reversed $191 $-1 #
coedge $-1 $318 $483 $648 $649 reversed $191 $-1 #
coedge $-1 $326 $321 $318 $486 forward $316 $-1 #
edge $-1 $489 -14.991050596768623 $650 -3.5195547809327579 $485 $651 forward 7 unknown #
coedge $-1 $320 $319 $492 $652 reversed $121 $-1 #
edge $-1 $653 0 $489 14.179548727601549 $483 $654 forward 7 unknown #
vertex $-1 $322 $655 #
straight-curve $-1 -28.62128045297116 -2.868590670932015 8.4465626694986256 0 1 0 I I #
coedge $-1 $648 $323 $326 $496 reversed $481 $-1 #
coedge $-1 $323 $648 $487 $652 forward $481 $-1 #
vertex $-1 $324 $656 #
straight-curve $-1 -40.092776268807029 -10.620581107120596 32.491753602783945 0 0 1 I I #
straight-curve $-1 -40.092776268807029 -10.620581107120596 0.1120329367730335 -0.80901698891910034 0 -0.5877852598018023 I I #
edge $-1 $650 0.85378157660746457 $327 10.620581107120596 $491 $657 forward 7 unknown #
point $-1 -40.092776268807029 -10.620581107120596 8.4465626694986256 #
point $-1 -28.621280452971163 -10.620581107120596 8.4465626694986256 #
edge $-1 $658 1 $658 0 $330 $-1 forward 7 unknown #
vertex $-1 $331 $659 #
ellipse-curve $-1 -30.099258100397851 -5.7371813418640301 -1.581020090534081 -0.5877852598018023 0 0.80901698891910034 1.6180339778382007 0 1.1755705196036046 1 I I #
point $-1 -32.738994383050894 -5.7371813418640301 5.4548683227394346 #
loop $-1 $-1 $342 $334 #
plane-surface $-1 -40.092776268807029 0 0 1 0 0 0 0 -1 forward_v I I I I #
coedge $-1 $506 $337 $339 $510 reversed $206 $-1 #
coedge $-1 $337 $505 $660 $661 reversed $206 $-1 #
coedge $-1 $345 $340 $337 $508 forward $335 $-1 #
edge $-1 $511 -14.991050596768623 $662 -3.5195547809327579 $507 $663 forward 7 unknown #
coedge $-1 $339 $338 $514 $664 reversed $130 $-1 #
edge $-1 $665 0 $511 14.179548727601549 $505 $666 forward 7 unknown #
vertex $-1 $341 $667 #
straight-curve $-1 -28.62128045297116 7.2965873473693321 8.4465626694986256 0 1 0 I I #
coedge $-1 $660 $342 $345 $518 reversed $503 $-1 #
coedge $-1 $342 $660 $509 $664 forward $503 $-1 #
vertex $-1 $343 $668 #
straight-curve $-1 -40.092776268807029 9.7097749294820979 32.491753602783945 0 0 1 I I #
straight-curve $-1 -40.092776268807029 9.7097749294820979 0.1120329367730335 -0.80901698891910034 0 -0.5877852598018023 I I #
edge $-1 $662 -19.476574459995231 $346 -9.7097749294820979 $513 $669 forward 7 unknown #
point $-1 -40.092776268807029 9.7097749294820979 8.4465626694986256 #
point $-1 -28.621280452971163 9.7097749294820979 8.4465626694986256 #
edge $-1 $670 1 $670 0 $349 $-1 forward 7 unknown #
vertex $-1 $350 $671 #
ellipse-curve $-1 -30.099258100397851 14.593174694738664 -1.581020090534081 -0.5877852598018023 0 0.80901698891910034 1.6180339778382007 0 1.1755705196036046 1 I I #
point $-1 -32.738994383050894 14.593174694738664 5.4548683227394346 #
plane-surface $-1 0 0 8.4465626694986256 0 0 1 1 0 0 forward_v I I I I #
coedge $-1 $536 $535 $528 $672 forward $354 $-1 #
coedge $-1 $528 $356 $358 $532 reversed $221 $-1 #
coedge $-1 $356 $527 $526 $672 reversed $221 $-1 #
coedge $-1 $364 $359 $356 $530 forward $365 $-1 #
edge $-1 $533 11.340417348010739 $673 17.078951905816055 $529 $674 forward 7 unknown #
coedge $-1 $358 $357 $536 $675 reversed $139 $-1 #
edge $-1 $676 -80.185552537614029 $533 -71.609447092507708 $527 $677 forward 7 unknown #
vertex $-1 $360 $678 #
straight-curve $-1 34.354241711001713 -5.0670898071057593 8.4465626694986256 0 -1 0 I I #
coedge $-1 $526 $361 $364 $540 reversed $354 $-1 #
coedge $-1 $361 $526 $531 $675 forward $354 $-1 #
vertex $-1 $362 $679 #
straight-curve $-1 40.092776268807029 -7.0655617003006341 57.65867998891801 0 0 1 I I #
straight-curve $-1 -13.561830384424049 -7.0655617003006341 61.662753324604921 0.66913059716165679 0 -0.74314483375859142 I I #
edge $-1 $673 -13.202797528122403 $366 -7.0655617003006341 $535 $680 forward 7 unknown #
point $-1 40.092776268807029 -7.0655617003006341 8.4465626694986256 #
point $-1 34.354241711001713 -7.0655617003006341 8.4465626694986256 #
edge $-1 $681 1 $681 0 $369 $-1 forward 7 unknown #
vertex $-1 $370 $682 #
ellipse-curve $-1 34.444421282092847 -10.134179614211519 2.7576166925552901 0.74314483375859142 0 0.66913059716165679 1.0036958957424851 0 -1.1147172506378871 1 I I #
point $-1 38.227204885646842 -10.134179614211519 4.1452011912108802 #
plane-surface $-1 0 0 8.4465626694986256 0 0 1 1 0 0 forward_v I I I I #
coedge $-1 $558 $557 $550 $683 forward $374 $-1 #
coedge $-1 $550 $376 $378 $554 reversed $236 $-1 #
coedge $-1 $376 $549 $548 $683 reversed $236 $-1 #
coedge $-1 $384 $379 $376 $552 forward $385 $-1 #
edge $-1 $555 11.340417348010739 $684 17.078951905816055 $551 $685 forward 7 unknown #
coedge $-1 $378 $377 $558 $686 reversed $148 $-1 #
edge $-1 $687 -80.185552537614029 $555 -71.609447092507708 $549 $688 forward 7 unknown #
vertex $-1 $380 $689 #
straight-curve $-1 34.354241711001713 0.015499202044914284 8.4465626694986256 0 -1 0 I I #
coedge $-1 $548 $381 $384 $562 reversed $374 $-1 #
coedge $-1 $381 $548 $553 $686 forward $374 $-1 #
vertex $-1 $382 $690 #
straight-curve $-1 40.092776268807029 3.099616318000713 57.65867998891801 0 0 1 I I #
straight-curve $-1 -13.561830384424049 3.099616318000713 61.662753324604921 0.66913059716165679 0 -0.74314483375859142 I I #
edge $-1 $684 -3.0376195098210559 $386 3.099616318000713 $557 $691 forward 7 unknown #
point $-1 40.092776268807029 3.099616318000713 8.4465626694986256 #
point $-1 34.354241711001713 3.099616318000713 8.4465626694986256 #
edge $-1 $692 1 $692 0 $389 $-1 forward 7 unknown #
vertex $-1 $390 $693 #
ellipse-curve $-1 34.444421282092847 0.030998404089828568 2.7576166925552901 0.74314483375859142 0 0.66913059716165679 1.0036958957424851 0 -1.1147172506378871 1 I I #
point $-1 38.227204885646842 0.030998404089828568 4.1452011912108802 #
plane-surface $-1 0 0 8.4465626694986256 0 0 1 1 0 0 forward_v I I I I #
coedge $-1 $580 $579 $572 $694 forward $394 $-1 #
coedge $-1 $572 $396 $398 $576 reversed $251 $-1 #
coedge $-1 $396 $571 $570 $694 reversed $251 $-1 #
coedge $-1 $404 $399 $396 $574 forward $405 $-1 #
edge $-1 $577 11.340417348010739 $695 17.078951905816055 $573 $696 forward 7 unknown #
coedge $-1 $398 $397 $580 $697 reversed $157 $-1 #
edge $-1 $698 -80.185552537614029 $577 -71.609447092507708 $571 $699 forward 7 unknown #
vertex $-1 $400 $700 #
straight-curve $-1 34.354241711001713 5.0980882111955879 8.4465626694986256 0 -1 0 I I #
coedge $-1 $570 $401 $404 $584 reversed $394 $-1 #
coedge $-1 $401 $570 $575 $697 forward $394 $-1 #
vertex $-1 $402 $701 #
straight-curve $-1 40.092776268807029 13.26479433630206 57.65867998891801 0 0 1 I I #
straight-curve $-1 -13.561830384424049 13.26479433630206 61.662753324604921 0.66913059716165679 0 -0.74314483375859142 I I #
edge $-1 $695 7.1275585084802913 $406 13.26479433630206 $579 $702 forward 7 unknown #
point $-1 40.092776268807029 13.26479433630206 8.4465626694986256 #
point $-1 34.354241711001713 13.26479433630206 8.4465626694986256 #
edge $-1 $703 1 $703 0 $409 $-1 forward 7 unknown #
vertex $-1 $410 $704 #
ellipse-curve $-1 34.444421282092847 10.196176422391176 2.7576166925552901 0.74314483375859142 0 0.66913059716165679 1.0036958957424851 0 -1.1147172506378871 1 I I #
point $-1 38.227204885646842 10.196176422391176 4.1452011912108802 #
plane-surface $-1 0 0 8.4465626694986256 0 0 1 1 0 0 forward_v I I I I #
coedge $-1 $602 $601 $594 $705 forward $414 $-1 #
coedge $-1 $594 $416 $418 $598 reversed $266 $-1 #
coedge $-1 $416 $593 $592 $705 reversed $266 $-1 #
coedge $-1 $424 $419 $416 $596 forward $425 $-1 #
edge $-1 $599 11.340417348010739 $706 17.078951905816055 $595 $707 forward 7 unknown #
coedge $-1 $418 $417 $602 $708 reversed $166 $-1 #
edge $-1 $709 -80.185552537614029 $599 -71.609447092507708 $593 $710 forward 7 unknown #
vertex $-1 $420 $711 #
straight-curve $-1 34.354241711001713 10.180677220346261 8.4465626694986256 0 -1 0 I I #
coedge $-1 $592 $421 $424 $606 reversed $414 $-1 #
coedge $-1 $421 $592 $597 $708 forward $414 $-1 #
vertex $-1 $422 $712 #
straight-curve $-1 40.092776268807029 23.429972354603407 57.65867998891801 0 0 1 I I #
straight-curve $-1 -13.561830384424049 23.429972354603407 61.662753324604921 0.66913059716165679 0 -0.74314483375859142 I I #
edge $-1 $706 17.292736526781638 $426 23.429972354603407 $601 $713 forward 7 unknown #
point $-1 40.092776268807029 23.429972354603407 8.4465626694986256 #
point $-1 34.354241711001713 23.429972354603407 8.4465626694986256 #
edge $-1 $714 1 $714 0 $429 $-1 forward 7 unknown #
vertex $-1 $430 $715 #
ellipse-curve $-1 34.444421282092847 20.361354440692523 2.7576166925552901 0.74314483375859142 0 0.66913059716165679 1.0036958957424851 0 -1.1147172506378871 1 I I #
point $-1 38.227204885646842 20.361354440692523 4.1452011912108802 #
plane-surface $-1 40.092776268807029 0 0 -1 0 0 0 0 1 forward_v I I I I #
coedge $-1 $438 $436 $440 $618 reversed $281 $-1 #
edge $-1 $451 -8.4465626694986256 $620 8.4465626694986256 $450 $716 forward 7 unknown #
vertex $-1 $618 $717 #
straight-curve $-1 -40.092776268807029 -25.456533083594991 0 0 0 -1 I I #
edge $-1 $616 -25.456533083594991 $620 25.456533083594991 $614 $718 forward 7 unknown #
straight-curve $-1 0 -25.456533083594991 -8.4465626694986256 -1 0 0 I I #
vertex $-1 $443 $719 #
straight-curve $-1 0 25.456533083594991 -8.4465626694986256 1 0 0 I I #
point $-1 40.092776268807029 25.456533083594991 -8.4465626694986256 #
point $-1 40.092776268807029 -25.456533083594991 -8.4465626694986256 #
straight-curve $-1 -40.092776268807029 0 8.4465626694986256 0 -1 0 I I #
point $-1 -40.092776268807029 25.456533083594991 8.4465626694986256 #
point $-1 -40.092776268807029 -25.456533083594991 8.4465626694986256 #
straight-curve $-1 40.092776268807029 -25.456533083594991 0 0 0 -1 I I #
straight-curve $-1 40.092776268807029 25.456533083594991 0 0 0 -1 I I #
loop $-1 $-1 $637 $460 #
plane-surface $-1 -40.092776268807029 0 0 1 0 0 0 0 -1 forward_v I I I I #
coedge $-1 $464 $463 $643 $720 forward $183 $-1 #
edge $-1 $468 15.204178989610391 $646 25.456533083594991 $467 $721 forward 7 unknown #
coedge $-1 $640 $637 $464 $634 reversed $629 $-1 #
edge $-1 $722 -25.456533083594991 $635 -15.204178989610391 $633 $723 forward 7 unknown #
vertex $-1 $638 $724 #
straight-curve $-1 0 -15.204178989610391 -8.4465626694986256 1 0 0 I I #
coedge $-1 $633 $470 $466 $638 forward $629 $-1 #
edge $-1 $472 1.9732813347493128 $635 4.9732813347493128 $637 $725 forward 7 unknown #
point $-1 40.092776268807029 -15.204178989610391 -8.4465626694986256 #
coedge $-1 $470 $633 $474 $644 reversed $629 $-1 #
straight-curve $-1 -40.092776268807029 -10.165178018301345 -5.4465626694986256 0 1 0 I I #
point $-1 -40.092776268807029 -15.204178989610391 -5.4465626694986256 #
coedge $-1 $475 $474 $631 $720 reversed $461 $-1 #
edge $-1 $476 5.4465626694986256 $722 8.4465626694986256 $640 $726 forward 7 unknown #
point $-1 -40.092776268807029 -25.456533083594991 -5.4465626694986256 #
vertex $-1 $478 $727 #
straight-curve $-1 40.092776268807029 -25.456533083594991 0 0 0 -1 I I #
coedge $-1 $492 $491 $484 $649 forward $481 $-1 #
edge $-1 $650 24.045190933285319 $653 32.379720666010911 $648 $728 forward 7 unknown #
vertex $-1 $496 $729 #
straight-curve $-1 -43.612331049739787 -0.85378157660746457 8.4465626694986256 -1 0 0 I I #
edge $-1 $653 -2.0148090943245505 $493 7.7519904361885814 $492 $730 forward 7 unknown #
vertex $-1 $652 $731 #
straight-curve $-1 -40.092776268807029 -0.85378157660746457 0.1120329367730335 0.80901698891910034 0 0.5877852598018023 I I #
point $-1 -28.621280452971163 -0.85378157660746457 8.4465626694986256 #
point $-1 -40.092776268807029 -10.620581107120596 0.1120329367730335 #
straight-curve $-1 -40.092776268807029 0 8.4465626694986256 0 -1 0 I I #
vertex $-1 $499 $732 #
point $-1 -28.481224122559652 -5.7371813418640301 -0.4054495709304764 #
coedge $-1 $514 $513 $506 $661 forward $503 $-1 #
edge $-1 $662 24.045190933285319 $665 32.379720666010911 $660 $733 forward 7 unknown #
vertex $-1 $518 $734 #
straight-curve $-1 -43.612331049739787 19.476574459995231 8.4465626694986256 -1 0 0 I I #
edge $-1 $665 -12.179987112625899 $515 -2.4131875821127657 $514 $735 forward 7 unknown #
vertex $-1 $664 $736 #
straight-curve $-1 -40.092776268807029 19.476574459995231 0.1120329367730335 0.80901698891910034 0 0.5877852598018023 I I #
point $-1 -28.621280452971163 19.476574459995231 8.4465626694986256 #
point $-1 -40.092776268807029 9.7097749294820979 0.1120329367730335 #
straight-curve $-1 -40.092776268807029 0 8.4465626694986256 0 -1 0 I I #
vertex $-1 $521 $737 #
point $-1 -28.481224122559652 14.593174694738664 -0.4054495709304764 #
edge $-1 $673 49.212117319419384 $676 55.585405774719064 $526 $738 forward 7 unknown #
vertex $-1 $540 $739 #
straight-curve $-1 23.013824362990974 -13.202797528122403 8.4465626694986256 1 0 0 I I #
edge $-1 $676 -8.1357077210166437 $537 -1.9984718931948748 $536 $740 forward 7 unknown #
vertex $-1 $675 $741 #
straight-curve $-1 -13.561830384424049 -13.202797528122403 61.662753324604921 -0.66913059716165679 0 0.74314483375859142 I I #
point $-1 34.354241711001713 -13.202797528122403 8.4465626694986256 #
point $-1 40.092776268807029 -7.0655617003006341 2.0732742141989462 #
straight-curve $-1 40.092776268807029 0 8.4465626694986256 0 1 0 I I #
vertex $-1 $543 $742 #
point $-1 35.448117177835336 -10.134179614211519 1.642899441917403 #
edge $-1 $684 49.212117319419384 $687 55.585405774719064 $548 $743 forward 7 unknown #
vertex $-1 $562 $744 #
straight-curve $-1 23.013824362990974 -3.0376195098210559 8.4465626694986256 1 0 0 I I #
edge $-1 $687 -3.0531187118659702 $559 3.0841171159557987 $558 $745 forward 7 unknown #
vertex $-1 $686 $746 #
straight-curve $-1 -13.561830384424049 -3.0376195098210559 61.662753324604921 -0.66913059716165679 0 0.74314483375859142 I I #
point $-1 34.354241711001713 -3.0376195098210559 8.4465626694986256 #
point $-1 40.092776268807029 3.099616318000713 2.0732742141989462 #
straight-curve $-1 40.092776268807029 0 8.4465626694986256 0 1 0 I I #
vertex $-1 $565 $747 #
point $-1 35.448117177835336 0.030998404089828568 1.642899441917403 #
edge $-1 $695 49.212117319419384 $698 55.585405774719064 $570 $748 forward 7 unknown #
vertex $-1 $584 $749 #
straight-curve $-1 23.013824362990974 7.1275585084802913 8.4465626694986256 1 0 0 I I #
edge $-1 $698 2.0294702972847034 $581 8.1667061251064723 $580 $750 forward 7 unknown #
vertex $-1 $697 $751 #
straight-curve $-1 -13.561830384424049 7.1275585084802913 61.662753324604921 -0.66913059716165679 0 0.74314483375859142 I I #
point $-1 34.354241711001713 7.1275585084802913 8.4465626694986256 #
point $-1 40.092776268807029 13.26479433630206 2.0732742141989462 #
straight-curve $-1 40.092776268807029 0 8.4465626694986256 0 1 0 I I #
vertex $-1 $587 $752 #
point $-1 35.448117177835336 10.196176422391176 1.642899441917403 #
edge $-1 $706 49.212117319419384 $709 55.585405774719064 $592 $753 forward 7 unknown #
vertex $-1 $606 $754 #
straight-curve $-1 23.013824362990974 17.292736526781638 8.4465626694986256 1 0 0 I I #
edge $-1 $709 7.112059306435377 $603 13.249295134257146 $602 $755 forward 7 unknown #
vertex $-1 $708 $756 #
straight-curve $-1 -13.561830384424049 17.292736526781638 61.662753324604921 -0.66913059716165679 0 0.74314483375859142 I I #
point $-1 34.354241711001713 17.292736526781638 8.4465626694986256 #
point $-1 40.092776268807029 23.429972354603407 2.0732742141989462 #
straight-curve $-1 40.092776268807029 0 8.4465626694986256 0 1 0 I I #
vertex $-1 $609 $757 #
point $-1 35.448117177835336 20.361354440692523 1.642899441917403 #
straight-curve $-1 -40.092776268807029 25.456533083594991 0 0 0 -1 I I #
point $-1 -40.092776268807029 -25.456533083594991 -8.4465626694986256 #
straight-curve $-1 -40.092776268807029 0 -8.4465626694986256 0 1 0 I I #
point $-1 -40.092776268807029 25.456533083594991 -8.4465626694986256 #
edge $-1 $646 -40.092776268807029 $722 40.092776268807029 $643 $758 forward 7 unknown #
straight-curve $-1 40.092776268807029 0 -8.4465626694986256 0 -1 0 I I #
vertex $-1 $634 $759 #
straight-curve $-1 -40.092776268807029 0 -8.4465626694986256 0 1 0 I I #
point $-1 -40.092776268807029 -15.204178989610391 -8.4465626694986256 #
straight-curve $-1 -40.092776268807029 -15.204178989610391 -3.4732813347493128 0 0 -1 I I #
straight-curve $-1 -40.092776268807029 -25.456533083594991 0 0 0 -1 I I #
point $-1 40.092776268807029 -25.456533083594991 -8.4465626694986256 #
straight-curve $-1 -40.092776268807029 -0.85378157660746457 32.491753602783945 0 0 -1 I I #
point $-1 -40.092776268807029 -0.85378157660746457 8.4465626694986256 #
straight-curve $-1 -40.092776268807029 -2.868590670932015 0.11203293677303118 0 -1 0 I I #
point $-1 -40.092776268807029 -0.85378157660746457 0.1120329367730335 #
point $-1 -28.923687580794248 -5.7371813418640301 -3.1990540683722815 #
straight-curve $-1 -40.092776268807029 19.476574459995231 32.491753602783945 0 0 -1 I I #
point $-1 -40.092776268807029 19.476574459995231 8.4465626694986256 #
straight-curve $-1 -40.092776268807029 7.2965873473693321 0.11203293677303118 0 -1 0 I I #
point $-1 -40.092776268807029 19.476574459995231 0.1120329367730335 #
point $-1 -28.923687580794248 14.593174694738664 -3.1990540683722815 #
straight-curve $-1 40.092776268807029 -13.202797528122403 57.65867998891801 0 0 -1 I I #
point $-1 40.092776268807029 -13.202797528122403 8.4465626694986256 #
straight-curve $-1 40.092776268807029 -5.0670898071057593 2.0732742141989462 0 1 0 I I #
point $-1 40.092776268807029 -13.202797528122403 2.0732742141989462 #
point $-1 33.329704031454966 -10.134179614211519 1.753920796812805 #
straight-curve $-1 40.092776268807029 -3.0376195098210559 57.65867998891801 0 0 -1 I I #
point $-1 40.092776268807029 -3.0376195098210559 8.4465626694986256 #
straight-curve $-1 40.092776268807029 0.015499202044914284 2.0732742141989462 0 1 0 I I #
point $-1 40.092776268807029 -3.0376195098210559 2.0732742141989462 #
point $-1 33.329704031454966 0.030998404089828568 1.753920796812805 #
straight-curve $-1 40.092776268807029 7.1275585084802913 57.65867998891801 0 0 -1 I I #
point $-1 40.092776268807029 7.1275585084802913 8.4465626694986256 #
straight-curve $-1 40.092776268807029 5.0980882111955879 2.0732742141989462 0 1 0 I I #
point $-1 40.092776268807029 7.1275585084802913 2.0732742141989462 #
point $-1 33.329704031454966 10.196176422391176 1.753920796812805 #
straight-curve $-1 40.092776268807029 17.292736526781638 57.65867998891801 0 0 -1 I I #
point $-1 40.092776268807029 17.292736526781638 8.4465626694986256 #
straight-curve $-1 40.092776268807029 10.180677220346261 2.0732742141989462 0 1 0 I I #
point $-1 40.092776268807029 17.292736526781638 2.0732742141989462 #
point $-1 33.329704031454966 20.361354440692523 1.753920796812805 #
straight-curve $-1 0 -25.456533083594991 -8.4465626694986256 -1 0 0 I I #
point $-1 -40.092776268807029 -25.456533083594991 -8.4465626694986256 #
End-of-ACIS-data 