500 0 9 0           
7 Unknown 11 ACIS 5.0 NT 24 Fri Mar 26 19:04:32 1999 
-1 9.9999999999999995e-007 1e-010 
body $-1 $9 $-1 $10 #
body $-1 $11 $-1 $12 #
body $-1 $13 $-1 $14 #
body $-1 $15 $-1 $16 #
body $-1 $17 $-1 $18 #
body $-1 $19 $-1 $20 #
body $-1 $21 $-1 $22 #
body $-1 $23 $-1 $24 #
body $-1 $25 $-1 $26 #
lump $-1 $-1 $27 $0 #
transform $-1 1 0 0 0 1 0 0 0 1 49.349650563066497 26.627906944492462 8.4717327526364787 1 rotate no_reflect no_shear #
lump $-1 $-1 $28 $1 #
transform $-1 1 0 0 0 1 0 0 0 1 49.349650563066497 26.627906944492462 8.4717327526364787 1 rotate no_reflect no_shear #
lump $-1 $-1 $29 $2 #
transform $-1 1 0 0 0 1 0 0 0 1 49.349650563066497 26.627906944492462 8.4717327526364787 1 rotate no_reflect no_shear #
lump $-1 $-1 $30 $3 #
transform $-1 1 0 0 0 1 0 0 0 1 49.349650563066497 26.627906944492462 8.4717327526364787 1 rotate no_reflect no_shear #
lump $-1 $-1 $31 $4 #
transform $-1 1 0 0 0 1 0 0 0 1 49.349650563066497 26.627906944492462 8.4717327526364787 1 rotate no_reflect no_shear #
lump $-1 $-1 $32 $5 #
transform $-1 1 0 0 0 1 0 0 0 1 49.349650563066497 26.627906944492462 8.4717327526364787 1 rotate no_reflect no_shear #
lump $-1 $-1 $33 $6 #
transform $-1 1 0 0 0 1 0 0 0 1 49.349650563066497 26.627906944492462 8.4717327526364787 1 rotate no_reflect no_shear #
lump $-1 $-1 $34 $7 #
transform $-1 1 0 0 0 1 0 0 0 1 49.349650563066497 26.627906944492462 8.4717327526364787 1 rotate no_reflect no_shear #
lump $-1 $-1 $35 $8 #
transform $-1 1 0 0 0 1 0 0 0 1 49.349650563066497 26.627906944492462 8.4717327526364787 1 rotate no_reflect no_shear #
shell $-1 $-1 $-1 $36 $-1 $9 #
shell $-1 $-1 $-1 $37 $-1 $11 #
shell $-1 $-1 $-1 $38 $-1 $13 #
shell $-1 $-1 $-1 $39 $-1 $15 #
shell $-1 $-1 $-1 $40 $-1 $17 #
shell $-1 $-1 $-1 $41 $-1 $19 #
shell $-1 $-1 $-1 $42 $-1 $21 #
shell $-1 $-1 $-1 $43 $-1 $23 #
shell $-1 $-1 $-1 $44 $-1 $25 #
face $-1 $45 $46 $27 $-1 $47 forward single #
face $-1 $48 $49 $28 $-1 $50 reversed single #
face $-1 $51 $52 $29 $-1 $53 reversed single #
face $-1 $54 $55 $30 $-1 $56 forward single #
face $-1 $57 $58 $31 $-1 $59 forward single #
face $-1 $60 $61 $32 $-1 $62 forward single #
face $-1 $63 $64 $33 $-1 $65 reversed single #
face $-1 $66 $67 $34 $-1 $68 forward single #
face $-1 $69 $70 $35 $-1 $71 forward single #
face $-1 $72 $73 $27 $-1 $74 reversed single #
loop $-1 $-1 $75 $36 #
plane-surface $-1 0 0 8.4717327526364787 0 0 1 1 0 0 forward_v I I I I #
face $-1 $76 $77 $28 $-1 $78 reversed single #
loop $-1 $-1 $79 $37 #
plane-surface $-1 -45.440897471332235 0 5.4717327526364787 0 0 1 1 0 0 forward_v I I I I #
face $-1 $80 $81 $29 $-1 $82 reversed single #
loop $-1 $-1 $83 $38 #
plane-surface $-1 -20.17477002134121 -96.418852878907188 72.132966833165611 -1 0 0 0 -0.70710678939079041 0.70710677298230451 forward_v I I I I #
face $-1 $84 $85 $30 $-1 $86 forward single #
loop $-1 $87 $88 $39 #
cone-surface $-1 -37.260669507946616 -23.184832740603916 5.0286584864042698 0 0.70710678939079041 -0.70710677298230451 1 0 0 1 I I 0 1 1 forward I I I I #
face $-1 $89 $90 $31 $-1 $91 forward single #
loop $-1 $92 $93 $40 #
cone-surface $-1 -30.853457200469592 -23.184832740603916 5.0286584864042698 0 0.70710678939079041 -0.70710677298230451 1 0 0 1 I I 0 1 1 forward I I I I #
face $-1 $94 $95 $32 $-1 $96 forward single #
loop $-1 $97 $98 $41 #
cone-surface $-1 -24.446244892992564 -23.184832740603916 5.0286584864042698 0 0.70710678939079041 -0.70710677298230451 1 0 0 1 I I 0 1 1 forward I I I I #
face $-1 $99 $100 $33 $-1 $101 reversed single #
loop $-1 $-1 $102 $42 #
plane-surface $-1 -5.3327479483686737 39.614892542583206 112.4615717404719 1 0 0 0 -0.57357644374324357 -0.81915203911291934 forward_v I I I I #
face $-1 $103 $104 $34 $-1 $105 forward single #
loop $-1 $106 $107 $43 #
cone-surface $-1 -0.47288646887599839 19.988372330372943 2.8392492698583767 0 -0.57357644374324357 -0.81915203911291934 1.5 0 0 1 I I 0 1 1.5 forward I I I I #
face $-1 $108 $109 $35 $-1 $110 forward single #
loop $-1 $111 $112 $44 #
cone-surface $-1 6.8169057503630199 19.988372330372943 2.8392492698583767 0 -0.57357644374324357 -0.81915203911291934 1.5 0 0 1 I I 0 1 1.5 forward I I I I #
face $-1 $113 $114 $27 $-1 $115 reversed single #
loop $-1 $-1 $116 $45 #
plane-surface $-1 0 0 -8.4717327526364787 0 0 1 1 0 0 forward_v I I I I #
coedge $-1 $117 $118 $119 $120 forward $46 $-1 #
face $-1 $121 $122 $28 $-1 $123 reversed single #
loop $-1 $-1 $124 $48 #
plane-surface $-1 -41.532144379597973 0 6.9717327526364787 -1 0 0 0 0 1 forward_v I I I I #
coedge $-1 $125 $126 $127 $128 forward $49 $-1 #
face $-1 $129 $130 $29 $-1 $131 forward single #
loop $-1 $-1 $132 $51 #
plane-surface $-1 -30.853457200469592 -26.627906944492466 2.3420225182569823 0 -0.70710678939079041 0.70710677298230451 1 0 0 forward_v I I I I #
coedge $-1 $133 $134 $135 $136 reversed $52 $-1 #
face $-1 $-1 $137 $30 $-1 $138 forward single #
loop $-1 $139 $140 $54 #
cone-surface $-1 -37.260669507946616 -22.453060188089445 4.2968859508706547 0 0.70710678939079041 -0.70710677298230451 0.5 0 0 1 I I -0.70710678118654746 0.70710678118654746 0.5 forward I I I I #
loop $-1 $-1 $141 $39 #
coedge $-1 $88 $88 $142 $143 reversed $55 $-1 #
face $-1 $-1 $144 $31 $-1 $145 forward single #
loop $-1 $146 $147 $57 #
cone-surface $-1 -30.853457200469592 -22.453060188089445 4.2968859508706547 0 0.70710678939079041 -0.70710677298230451 0.5 0 0 1 I I -0.70710678118654746 0.70710678118654746 0.5 forward I I I I #
loop $-1 $-1 $148 $40 #
coedge $-1 $93 $93 $149 $150 reversed $58 $-1 #
face $-1 $-1 $151 $32 $-1 $152 forward single #
loop $-1 $153 $154 $60 #
cone-surface $-1 -24.446244892992564 -22.453060188089445 4.2968859508706547 0 0.70710678939079041 -0.70710677298230451 0.5 0 0 1 I I -0.70710678118654746 0.70710678118654746 0.5 forward I I I I #
loop $-1 $-1 $155 $41 #
coedge $-1 $98 $98 $156 $157 reversed $61 $-1 #
face $-1 $158 $159 $33 $-1 $160 reversed single #
loop $-1 $-1 $161 $63 #
plane-surface $-1 3.1720096407435179 -16.996701597287675 31.611837963979994 0 0.57357644374324357 0.81915203911291934 1 0 0 forward_v I I I I #
coedge $-1 $162 $163 $164 $165 reversed $64 $-1 #
face $-1 $-1 $166 $34 $-1 $167 forward single #
loop $-1 $168 $169 $66 #
cone-surface $-1 -0.47288646887599839 18.207212405011536 0.29548932162183839 0 -0.57357644374324357 -0.81915203911291934 0.75 0 0 1 I I -0.70710678118654757 0.70710678118654757 0.75 forward I I I I #
loop $-1 $-1 $170 $43 #
coedge $-1 $107 $107 $171 $172 reversed $67 $-1 #
face $-1 $-1 $173 $35 $-1 $174 forward single #
loop $-1 $175 $176 $69 #
cone-surface $-1 6.8169057503630199 18.207212405011536 0.29548932162183839 0 -0.57357644374324357 -0.81915203911291934 0.75 0 0 1 I I -0.70710678118654757 0.70710678118654757 0.75 forward I I I I #
loop $-1 $-1 $177 $44 #
coedge $-1 $112 $112 $178 $179 reversed $70 $-1 #
face $-1 $180 $181 $27 $-1 $182 reversed single #
loop $-1 $-1 $183 $72 #
plane-surface $-1 0 -26.627906944492462 0 0 1 0 0 0 1 forward_v I I I I #
coedge $-1 $184 $185 $186 $187 forward $73 $-1 #
coedge $-1 $188 $75 $189 $190 forward $46 $-1 #
coedge $-1 $75 $188 $191 $192 forward $46 $-1 #
coedge $-1 $193 $194 $75 $120 reversed $195 $-1 #
edge $-1 $196 -26.627906944492462 $197 26.627906944492462 $119 $198 forward 7 unknown #
face $-1 $199 $200 $28 $-1 $201 reversed single #
loop $-1 $-1 $202 $76 #
plane-surface $-1 0 26.627906944492462 0 0 -1 0 0 0 -1 forward_v I I I I #
coedge $-1 $127 $203 $204 $205 reversed $77 $-1 #
coedge $-1 $206 $79 $207 $208 reversed $49 $-1 #
coedge $-1 $79 $206 $209 $210 reversed $49 $-1 #
coedge $-1 $211 $124 $79 $128 reversed $77 $-1 #
edge $-1 $212 -26.627906944492462 $213 26.627906944492462 $127 $214 forward 7 unknown #
face $-1 $215 $216 $29 $-1 $217 forward single #
loop $-1 $-1 $218 $80 #
plane-surface $-1 -41.532144379597973 0 6.9717327526364787 -1 0 0 0 0 1 forward_v I I I I #
coedge $-1 $219 $220 $221 $222 reversed $81 $-1 #
coedge $-1 $134 $83 $223 $224 reversed $52 $-1 #
coedge $-1 $83 $133 $219 $225 reversed $52 $-1 #
coedge $-1 $221 $226 $83 $136 forward $216 $-1 #
edge $-1 $227 21.581519494961132 $228 27.711229587100068 $135 $229 forward 7 unknown #
loop $-1 $-1 $142 $84 #
plane-surface $-1 -30.853457200469592 -26.627906944492466 2.3420225182569823 0 -0.70710678939079041 0.70710677298230451 1 0 0 forward_v I I I I #
loop $-1 $-1 $230 $54 #
coedge $-1 $140 $140 $141 $231 reversed $85 $-1 #
coedge $-1 $141 $141 $140 $231 forward $87 $-1 #
coedge $-1 $142 $142 $88 $143 forward $137 $-1 #
edge $-1 $232 -1.256073981520683e-015 $232 6.2831853071795996 $142 $233 forward 7 unknown #
loop $-1 $-1 $149 $89 #
plane-surface $-1 -30.853457200469592 -26.627906944492466 2.3420225182569823 0 -0.70710678939079041 0.70710677298230451 1 0 0 forward_v I I I I #
loop $-1 $-1 $234 $57 #
coedge $-1 $147 $147 $148 $235 reversed $90 $-1 #
coedge $-1 $148 $148 $147 $235 forward $92 $-1 #
coedge $-1 $149 $149 $93 $150 forward $144 $-1 #
edge $-1 $236 -1.256073981520683e-015 $236 6.2831853071795996 $149 $237 forward 7 unknown #
loop $-1 $-1 $156 $94 #
plane-surface $-1 -30.853457200469592 -26.627906944492466 2.3420225182569823 0 -0.70710678939079041 0.70710677298230451 1 0 0 forward_v I I I I #
loop $-1 $-1 $238 $60 #
coedge $-1 $154 $154 $155 $239 reversed $95 $-1 #
coedge $-1 $155 $155 $154 $239 forward $97 $-1 #
coedge $-1 $156 $156 $98 $157 forward $151 $-1 #
edge $-1 $240 -1.256073981520683e-015 $240 6.2831853071795996 $156 $241 forward 7 unknown #
face $-1 $242 $243 $33 $-1 $244 forward single #
loop $-1 $-1 $245 $99 #
plane-surface $-1 11.676767229855709 39.614892542583206 112.4615717404719 -1 0 0 0 0.57357644374324357 0.81915203911291934 forward_v I I I I #
coedge $-1 $246 $247 $248 $249 reversed $100 $-1 #
coedge $-1 $163 $102 $250 $251 reversed $64 $-1 #
coedge $-1 $102 $162 $246 $252 reversed $64 $-1 #
coedge $-1 $248 $253 $102 $165 forward $243 $-1 #
edge $-1 $254 -6.8204606732008592 $255 3.7566533699302198 $164 $256 forward 7 unknown #
loop $-1 $-1 $171 $103 #
plane-surface $-1 3.1720096407435179 -16.996701597287675 31.611837963979994 0 0.57357644374324357 0.81915203911291934 1 0 0 forward_v I I I I #
loop $-1 $-1 $257 $66 #
coedge $-1 $169 $169 $170 $258 reversed $104 $-1 #
coedge $-1 $170 $170 $169 $258 forward $106 $-1 #
coedge $-1 $171 $171 $107 $172 forward $166 $-1 #
edge $-1 $259 -1.600516289995133e-015 $259 6.2831853071795987 $171 $260 forward 7 unknown #
loop $-1 $-1 $178 $108 #
plane-surface $-1 3.1720096407435179 -16.996701597287675 31.611837963979994 0 0.57357644374324357 0.81915203911291934 1 0 0 forward_v I I I I #
loop $-1 $-1 $261 $69 #
coedge $-1 $176 $176 $177 $262 reversed $109 $-1 #
coedge $-1 $177 $177 $176 $262 forward $111 $-1 #
coedge $-1 $178 $178 $112 $179 forward $173 $-1 #
edge $-1 $263 -1.600516289995133e-015 $263 6.2831853071795987 $178 $264 forward 7 unknown #
face $-1 $265 $266 $27 $-1 $267 reversed single #
loop $-1 $-1 $268 $113 #
plane-surface $-1 -49.349650563066497 0 0 1 0 0 0 0 -1 forward_v I I I I #
coedge $-1 $269 $191 $270 $271 forward $114 $-1 #
coedge $-1 $272 $116 $269 $273 forward $73 $-1 #
coedge $-1 $116 $272 $274 $275 forward $73 $-1 #
coedge $-1 $194 $193 $116 $187 reversed $195 $-1 #
edge $-1 $276 -26.627906944492462 $277 26.627906944492462 $186 $278 forward 7 unknown #
coedge $-1 $118 $117 $279 $280 forward $46 $-1 #
coedge $-1 $281 $282 $117 $190 reversed $266 $-1 #
edge $-1 $197 -49.349650563066497 $283 49.349650563066497 $189 $284 forward 7 unknown #
coedge $-1 $183 $285 $118 $192 reversed $114 $-1 #
edge $-1 $286 -49.349650563066497 $196 49.349650563066497 $191 $287 forward 7 unknown #
coedge $-1 $186 $119 $285 $288 forward $195 $-1 #
coedge $-1 $119 $186 $281 $289 reversed $195 $-1 #
loop $-1 $-1 $193 $265 #
vertex $-1 $120 $290 #
vertex $-1 $120 $291 #
straight-curve $-1 49.349650563066497 0 8.4717327526364787 0 1 0 I I #
face $-1 $292 $293 $28 $-1 $294 forward single #
loop $-1 $-1 $295 $121 #
plane-surface $-1 -49.349650563066497 0 0 1 0 0 0 0 -1 forward_v I I I I #
coedge $-1 $209 $296 $211 $297 forward $122 $-1 #
coedge $-1 $124 $211 $298 $299 reversed $77 $-1 #
coedge $-1 $300 $207 $124 $205 forward $301 $-1 #
edge $-1 $213 1.9858663763182394 $302 4.9858663763182394 $204 $303 forward 7 unknown #
coedge $-1 $126 $125 $295 $304 reversed $49 $-1 #
coedge $-1 $204 $305 $125 $208 forward $301 $-1 #
edge $-1 $306 -26.629201827400379 $213 -18.811695643931856 $207 $307 forward 7 unknown #
coedge $-1 $308 $202 $126 $210 forward $122 $-1 #
edge $-1 $212 18.811695643931856 $309 26.629201827400379 $209 $310 forward 7 unknown #
coedge $-1 $203 $127 $202 $297 reversed $77 $-1 #
vertex $-1 $210 $311 #
vertex $-1 $208 $312 #
straight-curve $-1 -41.532144379597973 0 5.4717327526364787 0 -1 0 I I #
face $-1 $-1 $313 $29 $-1 $314 reversed single #
loop $-1 $-1 $221 $129 #
plane-surface $-1 0 0 8.4717327526364787 0 0 1 1 0 0 forward_v I I I I #
coedge $-1 $315 $316 $220 $317 reversed $130 $-1 #
coedge $-1 $318 $132 $134 $225 forward $81 $-1 #
coedge $-1 $132 $318 $218 $317 forward $81 $-1 #
coedge $-1 $319 $135 $132 $222 forward $216 $-1 #
edge $-1 $228 4.7480414211064144 $320 26.105415779363177 $221 $321 forward 7 unknown #
coedge $-1 $322 $323 $133 $224 forward $313 $-1 #
edge $-1 $324 -33.724460898325816 $227 -27.594750663946328 $223 $325 forward 7 unknown #
edge $-1 $228 -8.6687192462973872 $324 -5.0242958677880813e-015 $134 $326 forward 7 unknown #
coedge $-1 $135 $319 $322 $327 forward $216 $-1 #
vertex $-1 $224 $328 #
vertex $-1 $136 $329 #
straight-curve $-1 -20.17477002134121 -48.209426439453594 8.471732752636477 0 1 0 I I #
coedge $-1 $230 $230 $-1 $330 reversed $139 $-1 #
edge $-1 $331 0 $331 6.2831853071796004 $140 $332 forward 7 unknown #
vertex $-1 $143 $333 #
ellipse-curve $-1 -37.260669507946616 -23.563051898422994 5.4068776354467332 0 -0.70710678939079041 0.70710677298230451 1 0 0 1 I I #
coedge $-1 $234 $234 $-1 $334 reversed $146 $-1 #
edge $-1 $335 0 $335 6.2831853071796004 $147 $336 forward 7 unknown #
vertex $-1 $150 $337 #
ellipse-curve $-1 -30.853457200469592 -23.563051898422994 5.4068776354467332 0 -0.70710678939079041 0.70710677298230451 1 0 0 1 I I #
coedge $-1 $238 $238 $-1 $338 reversed $153 $-1 #
edge $-1 $339 0 $339 6.2831853071796004 $154 $340 forward 7 unknown #
vertex $-1 $157 $341 #
ellipse-curve $-1 -24.446244892992564 -23.563051898422994 5.4068776354467332 0 -0.70710678939079041 0.70710677298230451 1 0 0 1 I I #
face $-1 $-1 $342 $33 $-1 $343 reversed single #
loop $-1 $-1 $164 $158 #
plane-surface $-1 0 0 8.4717327526364787 0 0 1 1 0 0 forward_v I I I I #
coedge $-1 $344 $345 $346 $347 reversed $159 $-1 #
coedge $-1 $348 $161 $163 $252 forward $100 $-1 #
coedge $-1 $161 $348 $344 $349 forward $100 $-1 #
coedge $-1 $346 $164 $161 $249 forward $243 $-1 #
edge $-1 $255 -6.9187527687404327 $350 10.090762409483951 $248 $351 forward 7 unknown #
coedge $-1 $352 $353 $162 $251 forward $342 $-1 #
edge $-1 $354 -55.165228245351969 $254 -47.759053117599471 $250 $355 forward 7 unknown #
edge $-1 $255 40.34354176110827 $354 53.255813888984932 $163 $356 forward 7 unknown #
coedge $-1 $164 $346 $352 $357 forward $243 $-1 #
vertex $-1 $251 $358 #
vertex $-1 $165 $359 #
straight-curve $-1 -5.3327479483686737 19.807446271291603 8.471732752636477 0 -1 0 I I #
coedge $-1 $257 $257 $-1 $360 reversed $168 $-1 #
edge $-1 $361 0 $361 6.2831853071796004 $169 $362 forward 7 unknown #
vertex $-1 $172 $363 #
ellipse-curve $-1 -0.47288646887599839 21.339349922926917 4.7686451887602264 0 0.57357644374324357 0.81915203911291934 1.5 0 0 1 I I #
coedge $-1 $261 $261 $-1 $364 reversed $175 $-1 #
edge $-1 $365 0 $365 6.2831853071796004 $176 $366 forward 7 unknown #
vertex $-1 $179 $367 #
ellipse-curve $-1 6.8169057503630199 21.339349922926917 4.7686451887602264 0 0.57357644374324357 0.81915203911291934 1.5 0 0 1 I I #
face $-1 $-1 $195 $27 $-1 $368 reversed single #
loop $-1 $-1 $281 $180 #
plane-surface $-1 0 26.627906944492462 0 0 -1 0 0 0 -1 forward_v I I I I #
coedge $-1 $369 $279 $282 $370 forward $181 $-1 #
coedge $-1 $285 $183 $184 $273 reversed $114 $-1 #
coedge $-1 $279 $369 $183 $271 reversed $181 $-1 #
edge $-1 $286 -8.4717327526364787 $371 8.4717327526364787 $270 $372 forward 7 unknown #
coedge $-1 $185 $184 $369 $373 forward $73 $-1 #
edge $-1 $277 -49.349650563066497 $371 49.349650563066497 $269 $374 forward 7 unknown #
coedge $-1 $282 $281 $185 $275 reversed $266 $-1 #
edge $-1 $375 -49.349650563066497 $276 49.349650563066497 $274 $376 forward 7 unknown #
vertex $-1 $187 $377 #
vertex $-1 $288 $378 #
straight-curve $-1 49.349650563066497 0 -8.4717327526364787 0 -1 0 I I #
coedge $-1 $268 $270 $188 $280 reversed $181 $-1 #
edge $-1 $283 -26.627906944492462 $286 26.627906944492462 $279 $379 forward 7 unknown #
coedge $-1 $274 $189 $194 $289 forward $266 $-1 #
coedge $-1 $189 $274 $268 $370 reversed $266 $-1 #
vertex $-1 $190 $380 #
straight-curve $-1 0 26.627906944492462 8.4717327526364787 -1 0 0 I I #
coedge $-1 $191 $269 $193 $288 reversed $114 $-1 #
vertex $-1 $280 $381 #
straight-curve $-1 0 -26.627906944492462 8.4717327526364787 1 0 0 I I #
edge $-1 $196 -8.4717327526364787 $277 8.4717327526364787 $193 $382 forward 7 unknown #
edge $-1 $197 -8.4717327526364787 $276 8.4717327526364787 $194 $383 forward 7 unknown #
point $-1 49.349650563066497 -26.627906944492462 8.4717327526364787 #
point $-1 49.349650563066497 26.627906944492462 8.4717327526364787 #
face $-1 $-1 $301 $28 $-1 $384 reversed single #
loop $-1 $-1 $298 $199 #
plane-surface $-1 0 0 8.4717327526364787 0 0 1 1 0 0 forward_v I I I I #
coedge $-1 $385 $386 $206 $304 forward $200 $-1 #
coedge $-1 $202 $308 $387 $388 reversed $122 $-1 #
edge $-1 $389 -4.9858663763182394 $212 -1.9858663763182394 $202 $390 forward 7 unknown #
coedge $-1 $387 $391 $203 $299 forward $293 $-1 #
edge $-1 $302 -26.627906944492462 $389 26.627906944492462 $298 $392 forward 7 unknown #
coedge $-1 $305 $204 $391 $393 reversed $301 $-1 #
loop $-1 $-1 $204 $292 #
vertex $-1 $205 $394 #
straight-curve $-1 -41.532144379597973 -26.627906944492462 3.4858663763182394 0 0 1 I I #
edge $-1 $309 -26.627906944492462 $306 26.627906944492462 $295 $395 forward 7 unknown #
coedge $-1 $207 $300 $385 $396 forward $301 $-1 #
vertex $-1 $304 $397 #
straight-curve $-1 -22.720448735666118 -26.627906944492462 5.4717327526364787 1 0 0 I I #
coedge $-1 $296 $209 $386 $398 reversed $122 $-1 #
vertex $-1 $304 $399 #
straight-curve $-1 -22.720448735666118 26.627906944492462 5.4717327526364787 -1 0 0 I I #
point $-1 -41.532144379597973 26.627906944492462 5.4717327526364787 #
point $-1 -41.532144379597973 -26.627906944492462 5.4717327526364787 #
loop $-1 $-1 $223 $215 #
plane-surface $-1 0 -26.627906944492462 0 0 1 0 0 0 1 forward_v I I I I #
coedge $-1 $316 $218 $400 $401 reversed $130 $-1 #
coedge $-1 $218 $315 $319 $402 reversed $130 $-1 #
edge $-1 $403 5.0242958677880813e-015 $320 8.6687192462973872 $218 $404 forward 7 unknown #
coedge $-1 $220 $219 $323 $405 reversed $81 $-1 #
coedge $-1 $226 $221 $316 $402 forward $216 $-1 #
vertex $-1 $402 $406 #
straight-curve $-1 -15.426728600234796 -20.498196852353527 8.4717327526364787 -1 0 0 I I #
coedge $-1 $400 $223 $226 $327 reversed $313 $-1 #
coedge $-1 $223 $400 $318 $405 forward $313 $-1 #
vertex $-1 $224 $407 #
straight-curve $-1 -20.17477002134121 -26.627906944492459 36.066483416582805 0 0 1 I I #
straight-curve $-1 -20.17477002134121 -26.627906944492466 2.3420225182569823 0 -0.70710677298230451 -0.70710678939079041 I I #
edge $-1 $408 -41.532144379597973 $227 -20.17477002134121 $322 $409 forward 7 unknown #
point $-1 -20.17477002134121 -26.627906944492462 8.4717327526364787 #
point $-1 -20.17477002134121 -20.498196852353527 8.4717327526364787 #
edge $-1 $410 1 $410 0 $230 $-1 forward 7 unknown #
vertex $-1 $231 $411 #
ellipse-curve $-1 -37.260669507946616 -22.806613582784841 4.6504393373618074 0 -0.70710678939079041 0.70710677298230451 1 0 0 1 I I #
point $-1 -36.260669507946616 -23.563051898422994 5.4068776354467314 #
edge $-1 $412 1 $412 0 $234 $-1 forward 7 unknown #
vertex $-1 $235 $413 #
ellipse-curve $-1 -30.853457200469592 -22.806613582784841 4.6504393373618074 0 -0.70710678939079041 0.70710677298230451 1 0 0 1 I I #
point $-1 -29.853457200469592 -23.563051898422994 5.4068776354467314 #
edge $-1 $414 1 $414 0 $238 $-1 forward 7 unknown #
vertex $-1 $239 $415 #
ellipse-curve $-1 -24.446244892992564 -22.806613582784841 4.6504393373618074 0 -0.70710678939079041 0.70710677298230451 1 0 0 1 I I #
point $-1 -23.446244892992564 -23.563051898422994 5.4068776354467314 #
loop $-1 $-1 $250 $242 #
plane-surface $-1 0 26.627906944492462 0 0 -1 0 0 0 -1 forward_v I I I I #
coedge $-1 $345 $245 $247 $349 reversed $159 $-1 #
coedge $-1 $245 $344 $416 $417 reversed $159 $-1 #
coedge $-1 $253 $248 $245 $347 forward $243 $-1 #
edge $-1 $350 -3.7566533699302198 $418 6.8204606732008592 $346 $419 forward 7 unknown #
coedge $-1 $247 $246 $353 $420 reversed $100 $-1 #
edge $-1 $421 -53.255813888984932 $350 -40.34354176110827 $344 $422 forward 7 unknown #
vertex $-1 $249 $423 #
straight-curve $-1 1.5860048203717589 16.050792901361376 8.4717327526364805 1 0 0 I I #
coedge $-1 $416 $250 $253 $357 reversed $342 $-1 #
coedge $-1 $250 $416 $348 $420 forward $342 $-1 #
vertex $-1 $251 $424 #
straight-curve $-1 -5.3327479483686737 26.627906944492462 56.230785870235948 0 0 1 I I #
straight-curve $-1 -5.3327479483686737 -16.996701597287675 31.611837963979994 0 0.81915203911291934 -0.57357644374324357 I I #
edge $-1 $418 -11.676767229855709 $254 5.3327479483686737 $352 $425 forward 7 unknown #
point $-1 -5.3327479483686737 26.627906944492462 8.4717327526364787 #
point $-1 -5.3327479483686737 16.050792901361383 8.4717327526364805 #
edge $-1 $426 1 $426 0 $257 $-1 forward 7 unknown #
vertex $-1 $258 $427 #
ellipse-curve $-1 -0.47288646887599839 18.637394737818969 0.90985335095652786 0 0.57357644374324357 0.81915203911291934 1.5 0 0 1 I I #
point $-1 1.0271135311240016 21.339349922926914 4.7686451887602255 #
edge $-1 $428 1 $428 0 $261 $-1 forward 7 unknown #
vertex $-1 $262 $429 #
ellipse-curve $-1 6.8169057503630199 18.637394737818969 0.90985335095652786 0 0.57357644374324357 0.81915203911291934 1.5 0 0 1 I I #
point $-1 8.3169057503630199 21.339349922926914 4.7686451887602255 #
plane-surface $-1 49.349650563066497 0 0 -1 0 0 0 0 1 forward_v I I I I #
coedge $-1 $270 $268 $272 $373 reversed $181 $-1 #
edge $-1 $283 -8.4717327526364787 $375 8.4717327526364787 $282 $430 forward 7 unknown #
vertex $-1 $373 $431 #
straight-curve $-1 -49.349650563066497 -26.627906944492462 0 0 0 -1 I I #
edge $-1 $371 -26.627906944492462 $375 26.627906944492462 $369 $432 forward 7 unknown #
straight-curve $-1 0 -26.627906944492462 -8.4717327526364787 -1 0 0 I I #
vertex $-1 $275 $433 #
straight-curve $-1 0 26.627906944492462 -8.4717327526364787 1 0 0 I I #
point $-1 49.349650563066497 26.627906944492462 -8.4717327526364787 #
point $-1 49.349650563066497 -26.627906944492462 -8.4717327526364787 #
straight-curve $-1 -49.349650563066497 0 8.4717327526364787 0 -1 0 I I #
point $-1 -49.349650563066497 26.627906944492462 8.4717327526364787 #
point $-1 -49.349650563066497 -26.627906944492462 8.4717327526364787 #
straight-curve $-1 49.349650563066497 -26.627906944492462 0 0 0 -1 I I #
straight-curve $-1 49.349650563066497 26.627906944492462 0 0 0 -1 I I #
plane-surface $-1 0 -26.627906944492462 0 0 1 0 0 0 1 forward_v I I I I #
coedge $-1 $434 $295 $305 $396 reversed $200 $-1 #
coedge $-1 $295 $434 $308 $398 forward $200 $-1 #
coedge $-1 $435 $298 $296 $388 forward $293 $-1 #
edge $-1 $389 41.532144379597973 $436 49.349650563066497 $296 $437 forward 7 unknown #
vertex $-1 $388 $438 #
straight-curve $-1 -41.532144379597973 26.627906944492462 3.4858663763182394 0 0 -1 I I #
coedge $-1 $298 $435 $300 $393 forward $293 $-1 #
straight-curve $-1 -41.532144379597973 0 8.4717327526364787 0 1 0 I I #
edge $-1 $439 -49.349650563066497 $302 -41.532144379597973 $300 $440 forward 7 unknown #
point $-1 -41.532144379597973 -26.627906944492462 8.4717327526364787 #
straight-curve $-1 -49.349650563066497 0 5.4717327526364787 0 -1 0 I I #
edge $-1 $439 -8.4717327526364787 $306 -5.4717327526364787 $385 $441 forward 7 unknown #
point $-1 -49.349650563066497 -26.627906944492462 5.4717327526364787 #
edge $-1 $436 -8.4717327526364787 $309 -5.4717327526364787 $308 $442 forward 7 unknown #
point $-1 -49.349650563066497 26.627906944492462 5.4717327526364787 #
coedge $-1 $323 $322 $315 $401 forward $313 $-1 #
edge $-1 $408 27.594750663946328 $403 33.724460898325816 $400 $443 forward 7 unknown #
edge $-1 $320 20.498196852353527 $408 26.627906944492462 $319 $444 forward 7 unknown #
vertex $-1 $401 $445 #
straight-curve $-1 -41.532144379597973 -26.627906944492466 2.3420225182569823 0 0.70710677298230451 0.70710678939079041 I I #
edge $-1 $403 -26.105415779363177 $324 -4.7480414211064144 $323 $446 forward 7 unknown #
point $-1 -41.532144379597973 -20.498196852353527 8.4717327526364787 #
point $-1 -20.17477002134121 -26.627906944492462 2.3420225182569858 #
vertex $-1 $327 $447 #
straight-curve $-1 0 -26.627906944492462 8.4717327526364787 1 0 0 I I #
vertex $-1 $330 $448 #
point $-1 -36.260669507946616 -22.806613582784841 4.6504393373618074 #
vertex $-1 $334 $449 #
point $-1 -29.853457200469592 -22.806613582784841 4.6504393373618074 #
vertex $-1 $338 $450 #
point $-1 -23.446244892992564 -22.806613582784841 4.6504393373618074 #
coedge $-1 $353 $352 $345 $417 forward $342 $-1 #
edge $-1 $418 47.759053117599471 $421 55.165228245351969 $416 $451 forward 7 unknown #
vertex $-1 $357 $452 #
straight-curve $-1 11.676767229855709 19.807446271291603 8.471732752636477 0 1 0 I I #
edge $-1 $421 -10.090762409483951 $354 6.9187527687404327 $353 $453 forward 7 unknown #
vertex $-1 $420 $454 #
straight-curve $-1 11.676767229855709 -16.996701597287675 31.611837963979994 0 -0.81915203911291934 0.57357644374324357 I I #
point $-1 11.676767229855709 16.050792901361383 8.4717327526364805 #
point $-1 -5.3327479483686737 26.627906944492459 1.0655576248839829 #
straight-curve $-1 0 26.627906944492462 8.4717327526364787 -1 0 0 I I #
vertex $-1 $360 $455 #
point $-1 1.0271135311240016 18.637394737818969 0.90985335095652786 #
vertex $-1 $364 $456 #
point $-1 8.3169057503630199 18.637394737818969 0.90985335095652786 #
straight-curve $-1 -49.349650563066497 26.627906944492462 0 0 0 -1 I I #
point $-1 -49.349650563066497 -26.627906944492462 -8.4717327526364787 #
straight-curve $-1 -49.349650563066497 0 -8.4717327526364787 0 1 0 I I #
point $-1 -49.349650563066497 26.627906944492462 -8.4717327526364787 #
coedge $-1 $386 $385 $435 $457 reversed $200 $-1 #
coedge $-1 $391 $387 $434 $457 forward $293 $-1 #
vertex $-1 $388 $458 #
straight-curve $-1 0 26.627906944492462 8.4717327526364787 -1 0 0 I I #
point $-1 -41.532144379597973 26.627906944492462 8.4717327526364787 #
vertex $-1 $457 $459 #
straight-curve $-1 0 -26.627906944492462 8.4717327526364787 1 0 0 I I #
straight-curve $-1 -49.349650563066497 -26.627906944492462 0 0 0 -1 I I #
straight-curve $-1 -49.349650563066497 26.627906944492462 0 0 0 -1 I I #
straight-curve $-1 -41.532144379597973 -26.627906944492459 36.066483416582805 0 0 -1 I I #
straight-curve $-1 -41.532144379597973 0 8.4717327526364787 0 -1 0 I I #
point $-1 -41.532144379597973 -26.627906944492462 2.3420225182569858 #
straight-curve $-1 -15.426728600234796 -26.627906944492462 2.3420225182569867 1 0 0 I I #
point $-1 -41.532144379597973 -26.627906944492462 8.4717327526364787 #
point $-1 -37.260669507946616 -22.099506793394049 3.9433325643795025 #
point $-1 -30.853457200469592 -22.099506793394049 3.9433325643795025 #
point $-1 -24.446244892992564 -22.099506793394049 3.9433325643795025 #
straight-curve $-1 11.676767229855709 26.627906944492462 56.230785870235948 0 0 -1 I I #
point $-1 11.676767229855709 26.627906944492462 8.4717327526364787 #
straight-curve $-1 1.5860048203717589 26.627906944492466 1.0655576248839758 -1 0 0 I I #
point $-1 11.676767229855709 26.627906944492459 1.0655576248839829 #
point $-1 -0.47288646887599839 17.777030072204102 -0.31887470771285109 #
point $-1 6.8169057503630199 17.777030072204102 -0.31887470771285109 #
edge $-1 $436 -26.627906944492462 $439 26.627906944492462 $434 $460 forward 7 unknown #
point $-1 -49.349650563066497 26.627906944492462 8.4717327526364787 #
point $-1 -49.349650563066497 -26.627906944492462 8.4717327526364787 #
straight-curve $-1 -49.349650563066497 0 8.4717327526364787 0 -1 0 I I #
End-of-ACIS-data 