500 0 6 0           
7 Unknown 11 ACIS 5.0 NT 24 Fri Mar 26 01:25:28 1999 
-1 9.9999999999999995e-007 1e-010 
body $-1 $6 $-1 $7 #
body $-1 $8 $-1 $9 #
body $-1 $10 $-1 $11 #
body $-1 $12 $-1 $13 #
body $-1 $14 $-1 $15 #
body $-1 $16 $-1 $17 #
lump $-1 $-1 $18 $0 #
transform $-1 1 0 0 0 1 0 0 0 1 40.545670949430829 26.233359690035961 11.133986425651727 1 rotate no_reflect no_shear #
lump $-1 $-1 $19 $1 #
transform $-1 1 0 0 0 1 0 0 0 1 40.545670949430829 26.233359690035961 11.133986425651727 1 rotate no_reflect no_shear #
lump $-1 $-1 $20 $2 #
transform $-1 1 0 0 0 1 0 0 0 1 40.545670949430829 26.233359690035961 11.133986425651727 1 rotate no_reflect no_shear #
lump $-1 $-1 $21 $3 #
transform $-1 1 0 0 0 1 0 0 0 1 40.545670949430829 26.233359690035961 11.133986425651727 1 rotate no_reflect no_shear #
lump $-1 $-1 $22 $4 #
transform $-1 1 0 0 0 1 0 0 0 1 40.545670949430829 26.233359690035961 11.133986425651727 1 rotate no_reflect no_shear #
lump $-1 $-1 $23 $5 #
transform $-1 1 0 0 0 1 0 0 0 1 40.545670949430829 26.233359690035961 11.133986425651727 1 rotate no_reflect no_shear #
shell $-1 $-1 $-1 $24 $-1 $6 #
shell $-1 $-1 $-1 $25 $-1 $8 #
shell $-1 $-1 $-1 $26 $-1 $10 #
shell $-1 $-1 $-1 $27 $-1 $12 #
shell $-1 $-1 $-1 $28 $-1 $14 #
shell $-1 $-1 $-1 $29 $-1 $16 #
face $-1 $30 $31 $18 $-1 $32 forward single #
face $-1 $33 $34 $19 $-1 $35 forward single #
face $-1 $36 $37 $20 $-1 $38 reversed single #
face $-1 $39 $40 $21 $-1 $41 forward single #
face $-1 $42 $43 $22 $-1 $44 reversed single #
face $-1 $45 $46 $23 $-1 $47 forward single #
face $-1 $48 $49 $18 $-1 $50 reversed single #
loop $-1 $-1 $51 $24 #
plane-surface $-1 0 0 11.133986425651727 0 0 1 1 0 0 forward_v I I I I #
face $-1 $52 $53 $19 $-1 $54 reversed single #
loop $-1 $-1 $55 $25 #
plane-surface $-1 -40.545670949430829 0 0 1 0 0 0 0 -1 forward_v I I I I #
face $-1 $56 $57 $20 $-1 $58 reversed single #
loop $-1 $-1 $59 $26 #
plane-surface $-1 16.002620279867855 -75.035348110155553 72.816975272524772 -1 0 0 0 -0.6018150307709319 0.79863550430605224 forward_v I I I I #
face $-1 $60 $61 $21 $-1 $62 forward single #
loop $-1 $63 $64 $27 #
cone-surface $-1 8.998627060229488 -23.179220523262078 8.2528060297701096 0 0.6018150307709319 -0.79863550430605224 1 0 0 1 I I 0 1 1 forward I I I I #
face $-1 $65 $66 $22 $-1 $67 reversed single #
loop $-1 $-1 $68 $28 #
plane-surface $-1 22.093136928628216 70.227163441549379 90.494395683308142 1 0 0 0 -0.86602541151947299 -0.49999998660252726 forward_v I I I I #
face $-1 $69 $70 $23 $-1 $71 forward single #
loop $-1 $72 $73 $29 #
cone-surface $-1 31.319403939029513 22.830016744968979 6.9614745023166424 0 -0.86602541151947299 -0.49999998660252726 1.5 0 0 1 I I 0 1 1.5 forward I I I I #
face $-1 $74 $75 $18 $-1 $76 reversed single #
loop $-1 $-1 $77 $30 #
plane-surface $-1 0 0 -11.133986425651727 0 0 1 1 0 0 forward_v I I I I #
coedge $-1 $78 $79 $80 $81 forward $31 $-1 #
face $-1 $82 $83 $19 $-1 $84 forward single #
loop $-1 $-1 $85 $33 #
plane-surface $-1 0 26.233359690035961 0 0 -1 0 0 0 -1 forward_v I I I I #
coedge $-1 $86 $87 $88 $89 forward $34 $-1 #
face $-1 $90 $91 $20 $-1 $92 reversed single #
loop $-1 $-1 $93 $36 #
plane-surface $-1 8.998627060229488 -26.233359690035968 8.054550540272885 0 -0.6018150307709319 0.79863550430605224 1 0 0 forward_v I I I I #
coedge $-1 $94 $95 $96 $97 reversed $37 $-1 #
face $-1 $-1 $98 $21 $-1 $99 forward single #
loop $-1 $100 $101 $39 #
cone-surface $-1 8.998627060229488 -21.867448523148504 6.5120258244248888 0 0.6018150307709319 -0.79863550430605224 0.5 0 0 1 I I -0.70710678118654746 0.70710678118654746 0.5 forward I I I I #
loop $-1 $-1 $102 $27 #
coedge $-1 $64 $64 $103 $104 reversed $40 $-1 #
face $-1 $105 $106 $22 $-1 $107 forward single #
loop $-1 $-1 $108 $42 #
plane-surface $-1 31.319403939029513 7.0292142595462792e-007 49.948725820296353 0 0.86602541151947299 0.49999998660252726 1 0 0 forward_v I I I I #
coedge $-1 $109 $110 $111 $112 reversed $43 $-1 #
face $-1 $-1 $113 $23 $-1 $114 forward single #
loop $-1 $115 $116 $45 #
cone-surface $-1 31.319403939029513 20.688984516119149 5.7253490128090831 0 -0.86602541151947299 -0.49999998660252726 0.75 0 0 1 I I -0.70710678118654757 0.70710678118654757 0.75 forward I I I I #
loop $-1 $-1 $117 $29 #
coedge $-1 $73 $73 $118 $119 reversed $46 $-1 #
face $-1 $120 $121 $18 $-1 $122 reversed single #
loop $-1 $-1 $123 $48 #
plane-surface $-1 0 -26.233359690035961 0 0 1 0 0 0 1 forward_v I I I I #
coedge $-1 $124 $125 $126 $127 forward $49 $-1 #
coedge $-1 $128 $51 $129 $130 forward $31 $-1 #
coedge $-1 $51 $128 $131 $132 forward $31 $-1 #
coedge $-1 $133 $134 $51 $81 reversed $135 $-1 #
edge $-1 $136 -26.233359690035961 $137 26.233359690035961 $80 $138 forward 7 unknown #
face $-1 $139 $140 $19 $-1 $141 reversed single #
loop $-1 $-1 $88 $52 #
plane-surface $-1 -46.511968120758858 0 9.4090459512711497 0 0 1 1 0 0 forward_v I I I I #
coedge $-1 $142 $143 $87 $144 forward $53 $-1 #
coedge $-1 $145 $55 $146 $147 reversed $34 $-1 #
coedge $-1 $55 $145 $85 $144 reversed $34 $-1 #
coedge $-1 $148 $149 $55 $89 reversed $83 $-1 #
edge $-1 $150 -26.233359690035961 $151 26.233359690035961 $88 $152 forward 7 unknown #
face $-1 $153 $154 $20 $-1 $155 reversed single #
loop $-1 $-1 $156 $56 #
plane-surface $-1 1.9946338405911206 -75.035348110155553 72.816975272524772 1 0 0 0 0.6018150307709319 -0.79863550430605224 forward_v I I I I #
coedge $-1 $157 $158 $159 $160 reversed $57 $-1 #
coedge $-1 $95 $59 $161 $162 reversed $37 $-1 #
coedge $-1 $59 $94 $157 $163 reversed $37 $-1 #
coedge $-1 $159 $164 $59 $97 forward $165 $-1 #
edge $-1 $166 11.284314365041816 $167 15.370863729133355 $96 $168 forward 7 unknown #
loop $-1 $-1 $103 $60 #
plane-surface $-1 8.998627060229488 -26.233359690035968 8.054550540272885 0 -0.6018150307709319 0.79863550430605224 1 0 0 forward_v I I I I #
loop $-1 $-1 $169 $39 #
coedge $-1 $101 $101 $102 $170 reversed $61 $-1 #
coedge $-1 $102 $102 $101 $170 forward $63 $-1 #
coedge $-1 $103 $103 $64 $104 forward $98 $-1 #
edge $-1 $171 2.4675318231562449e-015 $171 6.2831853071796031 $103 $172 forward 7 unknown #
face $-1 $173 $174 $22 $-1 $175 reversed single #
loop $-1 $-1 $111 $65 #
plane-surface $-1 0 0 11.133986425651727 0 0 1 1 0 0 forward_v I I I I #
coedge $-1 $176 $177 $178 $179 reversed $66 $-1 #
coedge $-1 $110 $68 $180 $181 reversed $43 $-1 #
coedge $-1 $68 $109 $176 $182 reversed $43 $-1 #
coedge $-1 $178 $183 $68 $112 forward $106 $-1 #
edge $-1 $184 8.8802220307387287 $185 12.703881580452268 $111 $186 forward 7 unknown #
loop $-1 $-1 $118 $69 #
plane-surface $-1 31.319403939029513 7.0292142595462792e-007 49.948725820296353 0 0.86602541151947299 0.49999998660252726 1 0 0 forward_v I I I I #
loop $-1 $-1 $187 $45 #
coedge $-1 $116 $116 $117 $188 reversed $70 $-1 #
coedge $-1 $117 $117 $116 $188 forward $72 $-1 #
coedge $-1 $118 $118 $73 $119 forward $113 $-1 #
edge $-1 $189 -7.4508139966091999e-016 $189 6.2831853071795996 $118 $190 forward 7 unknown #
face $-1 $191 $192 $18 $-1 $193 reversed single #
loop $-1 $-1 $194 $74 #
plane-surface $-1 -40.545670949430829 0 0 1 0 0 0 0 -1 forward_v I I I I #
coedge $-1 $195 $131 $194 $196 forward $75 $-1 #
coedge $-1 $197 $77 $195 $198 forward $49 $-1 #
coedge $-1 $77 $197 $199 $200 forward $49 $-1 #
coedge $-1 $134 $133 $77 $127 reversed $135 $-1 #
edge $-1 $201 -26.233359690035961 $202 26.233359690035961 $126 $203 forward 7 unknown #
coedge $-1 $79 $78 $204 $205 forward $31 $-1 #
coedge $-1 $206 $207 $78 $130 reversed $192 $-1 #
edge $-1 $137 -40.545670949430829 $208 40.545670949430829 $129 $209 forward 7 unknown #
coedge $-1 $123 $210 $79 $132 reversed $75 $-1 #
edge $-1 $211 -40.545670949430829 $136 40.545670949430829 $131 $212 forward 7 unknown #
coedge $-1 $126 $80 $210 $213 forward $135 $-1 #
coedge $-1 $80 $126 $206 $214 reversed $135 $-1 #
loop $-1 $-1 $133 $191 #
vertex $-1 $81 $215 #
vertex $-1 $81 $216 #
straight-curve $-1 40.545670949430829 0 11.133986425651727 0 1 0 I I #
face $-1 $217 $218 $19 $-1 $219 reversed single #
loop $-1 $-1 $220 $82 #
plane-surface $-1 -46.511968120758858 0 4.76537136127995 0 0 1 1 0 0 forward_v I I I I #
coedge $-1 $221 $85 $222 $223 reversed $53 $-1 #
coedge $-1 $85 $221 $148 $224 reversed $53 $-1 #
edge $-1 $150 -9.4090459512711497 $225 -4.76537136127995 $85 $226 forward 7 unknown #
coedge $-1 $87 $86 $220 $227 forward $34 $-1 #
coedge $-1 $228 $229 $86 $147 forward $230 $-1 #
edge $-1 $231 4.76537136127995 $151 9.4090459512711497 $146 $232 forward 7 unknown #
coedge $-1 $233 $88 $143 $224 forward $83 $-1 #
coedge $-1 $88 $233 $228 $234 forward $83 $-1 #
vertex $-1 $144 $235 #
vertex $-1 $234 $236 #
straight-curve $-1 -40.545670949430829 0 9.4090459512711497 0 -1 0 I I #
face $-1 $-1 $165 $20 $-1 $237 forward single #
loop $-1 $-1 $238 $90 #
plane-surface $-1 0 -26.233359690035961 0 0 1 0 0 0 1 forward_v I I I I #
coedge $-1 $239 $240 $241 $242 reversed $91 $-1 #
coedge $-1 $243 $93 $95 $163 forward $57 $-1 #
coedge $-1 $93 $243 $239 $244 forward $57 $-1 #
coedge $-1 $241 $96 $93 $160 forward $165 $-1 #
edge $-1 $167 -11.503306749753111 $245 2.5046796895236234 $159 $246 forward 7 unknown #
coedge $-1 $247 $248 $94 $162 forward $154 $-1 #
edge $-1 $249 -28.353937095989494 $166 -25.274501210610659 $161 $250 forward 7 unknown #
edge $-1 $167 -5.116914214379209 $249 -8.8817612989391469e-015 $95 $251 forward 7 unknown #
coedge $-1 $96 $241 $247 $252 forward $165 $-1 #
loop $-1 $-1 $241 $153 #
vertex $-1 $162 $253 #
vertex $-1 $97 $254 #
straight-curve $-1 16.002620279867855 -37.517674055077777 11.133986425651727 0 1 0 I I #
coedge $-1 $169 $169 $-1 $255 reversed $100 $-1 #
edge $-1 $256 0 $256 6.2831853071796004 $101 $257 forward 7 unknown #
vertex $-1 $104 $258 #
ellipse-curve $-1 8.998627060229488 -24.190085007990191 9.5942684829623097 0 -0.6018150307709319 0.79863550430605224 1 0 0 1 I I #
face $-1 $-1 $259 $22 $-1 $260 reversed single #
loop $-1 $-1 $261 $105 #
plane-surface $-1 40.545670949430829 0 0 -1 0 0 0 0 1 forward_v I I I I #
coedge $-1 $262 $108 $110 $182 forward $66 $-1 #
coedge $-1 $108 $262 $261 $263 reversed $66 $-1 #
coedge $-1 $264 $111 $108 $179 forward $106 $-1 #
edge $-1 $185 6.433434959113459 $265 24.885968979916058 $178 $266 forward 7 unknown #
coedge $-1 $267 $268 $109 $181 forward $259 $-1 #
edge $-1 $269 -40.735984263561242 $184 -34.113211416002343 $180 $270 forward 7 unknown #
edge $-1 $185 44.819400075735373 $269 52.466719380071957 $110 $271 forward 7 unknown #
coedge $-1 $111 $264 $267 $272 forward $106 $-1 #
vertex $-1 $181 $273 #
vertex $-1 $112 $274 #
straight-curve $-1 22.093136928628216 35.11358172077469 11.133986425651727 0 -1 0 I I #
coedge $-1 $187 $187 $-1 $275 reversed $115 $-1 #
edge $-1 $276 0 $276 6.2831853071796004 $116 $277 forward 7 unknown #
vertex $-1 $119 $278 #
ellipse-curve $-1 31.319403939029513 24.321529915179184 7.8226000018722939 0 0.86602541151947299 0.49999998660252726 1.5 0 0 1 I I #
face $-1 $-1 $135 $18 $-1 $279 reversed single #
loop $-1 $-1 $206 $120 #
plane-surface $-1 0 26.233359690035961 0 0 -1 0 0 0 -1 forward_v I I I I #
coedge $-1 $204 $280 $123 $196 reversed $121 $-1 #
coedge $-1 $210 $123 $124 $198 reversed $75 $-1 #
edge $-1 $211 -11.133986425651727 $281 11.133986425651727 $194 $282 forward 7 unknown #
coedge $-1 $125 $124 $280 $283 forward $49 $-1 #
edge $-1 $202 -40.545670949430829 $281 40.545670949430829 $195 $284 forward 7 unknown #
coedge $-1 $207 $206 $125 $200 reversed $192 $-1 #
edge $-1 $285 -40.545670949430829 $201 40.545670949430829 $199 $286 forward 7 unknown #
vertex $-1 $127 $287 #
vertex $-1 $213 $288 #
straight-curve $-1 40.545670949430829 0 -11.133986425651727 0 -1 0 I I #
coedge $-1 $289 $194 $128 $205 reversed $121 $-1 #
edge $-1 $208 -26.233359690035961 $211 26.233359690035961 $204 $290 forward 7 unknown #
coedge $-1 $199 $129 $134 $214 forward $192 $-1 #
coedge $-1 $129 $199 $289 $291 reversed $192 $-1 #
vertex $-1 $130 $292 #
straight-curve $-1 0 26.233359690035961 11.133986425651727 -1 0 0 I I #
coedge $-1 $131 $195 $133 $213 reversed $75 $-1 #
vertex $-1 $205 $293 #
straight-curve $-1 0 -26.233359690035961 11.133986425651727 1 0 0 I I #
edge $-1 $136 -11.133986425651727 $202 11.133986425651727 $133 $294 forward 7 unknown #
edge $-1 $137 -11.133986425651727 $201 11.133986425651727 $134 $295 forward 7 unknown #
point $-1 40.545670949430829 -26.233359690035961 11.133986425651727 #
point $-1 40.545670949430829 26.233359690035961 11.133986425651727 #
face $-1 $-1 $230 $19 $-1 $296 reversed single #
loop $-1 $-1 $297 $139 #
plane-surface $-1 -52.478265292086888 0 7.0872086562755499 1 0 0 0 0 -1 forward_v I I I I #
coedge $-1 $298 $222 $145 $227 reversed $140 $-1 #
coedge $-1 $143 $142 $297 $299 reversed $53 $-1 #
coedge $-1 $220 $300 $142 $223 forward $140 $-1 #
edge $-1 $301 -5.9662971713280299 $225 5.9662971713280299 $142 $302 forward 7 unknown #
edge $-1 $150 -5.9662971713280299 $303 5.9662971713280299 $143 $304 forward 7 unknown #
vertex $-1 $144 $305 #
straight-curve $-1 -40.545670949430829 26.233359690035961 0 0 0 -1 I I #
edge $-1 $231 -26.233359690035961 $225 26.233359690035961 $220 $306 forward 7 unknown #
coedge $-1 $307 $146 $149 $234 reversed $230 $-1 #
coedge $-1 $146 $307 $298 $308 reversed $230 $-1 #
loop $-1 $-1 $146 $217 #
vertex $-1 $147 $309 #
straight-curve $-1 -40.545670949430829 -26.233359690035961 0 0 0 1 I I #
coedge $-1 $149 $148 $310 $311 forward $83 $-1 #
edge $-1 $312 -5.9662971713280299 $151 5.9662971713280299 $228 $313 forward 7 unknown #
point $-1 -40.545670949430829 26.233359690035961 9.4090459512711497 #
point $-1 -40.545670949430829 -26.233359690035961 9.4090459512711497 #
plane-surface $-1 0 0 11.133986425651727 0 0 1 1 0 0 forward_v I I I I #
coedge $-1 $248 $247 $240 $314 forward $154 $-1 #
coedge $-1 $240 $156 $158 $244 reversed $91 $-1 #
coedge $-1 $156 $239 $238 $314 reversed $91 $-1 #
coedge $-1 $164 $159 $156 $242 forward $165 $-1 #
edge $-1 $245 -15.370863729133355 $315 -11.284314365041816 $241 $316 forward 7 unknown #
coedge $-1 $158 $157 $248 $317 reversed $57 $-1 #
edge $-1 $318 8.8817612989391469e-015 $245 5.116914214379209 $239 $319 forward 7 unknown #
vertex $-1 $160 $320 #
straight-curve $-1 4.499313530114744 -22.146810325944422 11.133986425651727 -1 0 0 I I #
coedge $-1 $238 $161 $164 $252 reversed $154 $-1 #
coedge $-1 $161 $238 $243 $317 forward $154 $-1 #
vertex $-1 $162 $321 #
straight-curve $-1 16.002620279867855 -26.233359690035961 36.408487636262386 0 0 1 I I #
straight-curve $-1 16.002620279867855 -26.233359690035968 8.054550540272885 0 -0.79863550430605224 -0.6018150307709319 I I #
edge $-1 $315 1.9946338405911206 $166 16.002620279867855 $247 $322 forward 7 unknown #
point $-1 16.002620279867855 -26.233359690035961 11.133986425651727 #
point $-1 16.002620279867855 -22.146810325944422 11.133986425651727 #
edge $-1 $323 1 $323 0 $169 $-1 forward 7 unknown #
vertex $-1 $170 $324 #
ellipse-curve $-1 8.998627060229488 -22.168356038533968 6.9113435765779148 0 -0.6018150307709319 0.79863550430605224 1 0 0 1 I I #
point $-1 9.998627060229488 -24.190085007990184 9.5942684829623044 #
loop $-1 $-1 $180 $173 #
plane-surface $-1 0 26.233359690035961 0 0 -1 0 0 0 -1 forward_v I I I I #
coedge $-1 $325 $326 $177 $263 forward $174 $-1 #
coedge $-1 $177 $176 $268 $327 reversed $66 $-1 #
edge $-1 $265 23.19096733476799 $328 30.83828663910457 $261 $329 forward 7 unknown #
coedge $-1 $183 $178 $326 $330 forward $106 $-1 #
vertex $-1 $330 $331 #
straight-curve $-1 15.659701969514757 22.409700140322421 11.133986425651727 1 0 0 I I #
coedge $-1 $332 $180 $183 $272 reversed $259 $-1 #
coedge $-1 $180 $332 $262 $327 forward $259 $-1 #
vertex $-1 $181 $333 #
straight-curve $-1 22.093136928628216 26.233359690035961 45.247197841654071 0 0 1 I I #
straight-curve $-1 22.093136928628216 7.0292142595462792e-007 49.948725820296353 0 0.49999998660252726 -0.86602541151947299 I I #
edge $-1 $334 -40.545670949430829 $184 -22.093136928628216 $267 $335 forward 7 unknown #
point $-1 22.093136928628216 26.233359690035961 11.133986425651727 #
point $-1 22.093136928628216 22.409700140322421 11.133986425651727 #
edge $-1 $336 1 $336 0 $187 $-1 forward 7 unknown #
vertex $-1 $188 $337 #
ellipse-curve $-1 31.319403939029513 21.338503574758754 6.1003490027609786 0 0.86602541151947299 0.49999998660252726 1.5 0 0 1 I I #
point $-1 32.819403939029513 24.321529915179202 7.8226000018723054 #
plane-surface $-1 40.545670949430829 0 0 -1 0 0 0 0 1 forward_v I I I I #
coedge $-1 $194 $289 $197 $283 reversed $121 $-1 #
vertex $-1 $283 $338 #
straight-curve $-1 -40.545670949430829 -26.233359690035961 0 0 0 -1 I I #
edge $-1 $281 -26.233359690035961 $285 26.233359690035961 $280 $339 forward 7 unknown #
straight-curve $-1 0 -26.233359690035961 -11.133986425651727 -1 0 0 I I #
vertex $-1 $200 $340 #
straight-curve $-1 0 26.233359690035961 -11.133986425651727 1 0 0 I I #
point $-1 40.545670949430829 26.233359690035961 -11.133986425651727 #
point $-1 40.545670949430829 -26.233359690035961 -11.133986425651727 #
coedge $-1 $280 $204 $207 $291 forward $121 $-1 #
straight-curve $-1 -40.545670949430829 0 11.133986425651727 0 -1 0 I I #
edge $-1 $208 -11.133986425651727 $285 11.133986425651727 $207 $341 forward 7 unknown #
point $-1 -40.545670949430829 26.233359690035961 11.133986425651727 #
point $-1 -40.545670949430829 -26.233359690035961 11.133986425651727 #
straight-curve $-1 40.545670949430829 -26.233359690035961 0 0 0 -1 I I #
straight-curve $-1 40.545670949430829 26.233359690035961 0 0 0 -1 I I #
plane-surface $-1 0 -26.233359690035961 0 0 1 0 0 0 1 forward_v I I I I #
coedge $-1 $342 $310 $221 $299 forward $218 $-1 #
coedge $-1 $300 $220 $229 $308 forward $140 $-1 #
edge $-1 $303 -2.3218372949955999 $301 2.3218372949955999 $221 $343 forward 7 unknown #
coedge $-1 $222 $298 $342 $344 forward $140 $-1 #
vertex $-1 $223 $345 #
straight-curve $-1 -46.511968120758858 26.233359690035961 4.76537136127995 1 0 0 I I #
vertex $-1 $224 $346 #
straight-curve $-1 -46.511968120758858 26.233359690035961 9.4090459512711497 -1 0 0 I I #
point $-1 -40.545670949430829 26.233359690035961 4.76537136127995 #
straight-curve $-1 -40.545670949430829 0 4.76537136127995 0 1 0 I I #
coedge $-1 $229 $228 $347 $348 forward $230 $-1 #
edge $-1 $231 -5.9662971713280299 $349 5.9662971713280299 $229 $350 forward 7 unknown #
point $-1 -40.545670949430829 -26.233359690035961 4.76537136127995 #
coedge $-1 $297 $347 $233 $311 reversed $218 $-1 #
edge $-1 $303 -26.233359690035961 $312 26.233359690035961 $310 $351 forward 7 unknown #
vertex $-1 $311 $352 #
straight-curve $-1 -46.511968120758858 -26.233359690035961 9.4090459512711497 1 0 0 I I #
edge $-1 $315 25.274501210610659 $318 28.353937095989494 $238 $353 forward 7 unknown #
vertex $-1 $252 $354 #
straight-curve $-1 1.9946338405911206 -37.517674055077777 11.133986425651727 0 -1 0 I I #
edge $-1 $318 -2.5046796895236234 $249 11.503306749753111 $248 $355 forward 7 unknown #
vertex $-1 $317 $356 #
straight-curve $-1 1.9946338405911206 -26.233359690035968 8.054550540272885 0 0.79863550430605224 0.6018150307709319 I I #
point $-1 1.9946338405911206 -22.146810325944422 11.133986425651727 #
point $-1 16.002620279867855 -26.233359690035961 8.0545505402728903 #
straight-curve $-1 0 -26.233359690035961 11.133986425651727 1 0 0 I I #
vertex $-1 $255 $357 #
point $-1 9.998627060229488 -22.168356038533968 6.9113435765779148 #
coedge $-1 $326 $261 $332 $358 reversed $174 $-1 #
coedge $-1 $261 $325 $264 $330 reversed $174 $-1 #
edge $-1 $328 -24.885968979916058 $269 -6.433434959113459 $268 $359 forward 7 unknown #
vertex $-1 $263 $360 #
straight-curve $-1 40.545670949430829 10.814216783638781 31.217953455278831 0 0.49999998660252726 -0.86602541151947299 I I #
edge $-1 $265 22.409700140322421 $334 26.233359690035961 $326 $361 forward 7 unknown #
point $-1 40.545670949430814 22.409700140322421 11.133986425651727 #
coedge $-1 $268 $267 $325 $358 forward $259 $-1 #
point $-1 22.093136928628216 26.233359690035961 4.5112135780928284 #
vertex $-1 $330 $362 #
straight-curve $-1 0 26.233359690035961 11.133986425651727 -1 0 0 I I #
vertex $-1 $275 $363 #
point $-1 32.819403939029513 21.338503574758754 6.1003490027609786 #
point $-1 -40.545670949430829 -26.233359690035961 -11.133986425651727 #
straight-curve $-1 -40.545670949430829 0 -11.133986425651727 0 1 0 I I #
point $-1 -40.545670949430829 26.233359690035961 -11.133986425651727 #
straight-curve $-1 -40.545670949430829 26.233359690035961 0 0 0 -1 I I #
coedge $-1 $347 $297 $300 $344 reversed $218 $-1 #
straight-curve $-1 -52.478265292086888 26.233359690035961 7.0872086562755499 0 0 -1 I I #
edge $-1 $349 -26.233359690035961 $301 26.233359690035961 $342 $364 forward 7 unknown #
point $-1 -52.478265292086888 26.233359690035961 4.76537136127995 #
point $-1 -52.478265292086888 26.233359690035961 9.4090459512711497 #
coedge $-1 $310 $342 $307 $348 reversed $218 $-1 #
edge $-1 $312 -2.3218372949955999 $349 2.3218372949955999 $347 $365 forward 7 unknown #
vertex $-1 $344 $366 #
straight-curve $-1 -46.511968120758858 -26.233359690035961 4.76537136127995 -1 0 0 I I #
straight-curve $-1 -52.478265292086888 0 9.4090459512711497 0 -1 0 I I #
point $-1 -52.478265292086888 -26.233359690035961 9.4090459512711497 #
straight-curve $-1 1.9946338405911206 -26.233359690035961 36.408487636262386 0 0 -1 I I #
point $-1 1.9946338405911206 -26.233359690035961 11.133986425651727 #
straight-curve $-1 4.499313530114744 -26.233359690035961 8.0545505402728921 1 0 0 I I #
point $-1 1.9946338405911206 -26.233359690035961 8.0545505402728903 #
point $-1 8.998627060229488 -21.566541007763039 6.1127080722718627 #
edge $-1 $334 -11.133986425651727 $328 -4.5112135780928284 $325 $367 forward 7 unknown #
straight-curve $-1 15.659701969514757 26.233359690035961 4.5112135780928284 -1 0 0 I I #
point $-1 40.545670949430814 26.233359690035961 4.5112135780928284 #
straight-curve $-1 40.545670949430829 0 11.133986425651727 0 1 0 I I #
point $-1 40.545670949430829 26.233359690035961 11.133986425651727 #
point $-1 31.319403939029513 20.039465457479544 5.3503490228571877 #
straight-curve $-1 -52.478265292086888 0 4.76537136127995 0 1 0 I I #
straight-curve $-1 -52.478265292086888 -26.233359690035961 7.0872086562755499 0 0 -1 I I #
point $-1 -52.478265292086888 -26.233359690035961 4.76537136127995 #
straight-curve $-1 40.545670949430829 26.233359690035961 0 0 0 -1 I I #
End-of-ACIS-data 