500 0 11 0           
7 Unknown 11 ACIS 5.0 NT 24 Thu Mar 25 21:14:30 1999 
-1 9.9999999999999995e-007 1e-010 
body $-1 $11 $-1 $12 #
body $-1 $13 $-1 $14 #
body $-1 $15 $-1 $16 #
body $-1 $17 $-1 $18 #
body $-1 $19 $-1 $20 #
body $-1 $21 $-1 $22 #
body $-1 $23 $-1 $24 #
body $-1 $25 $-1 $26 #
body $-1 $27 $-1 $28 #
body $-1 $29 $-1 $30 #
body $-1 $31 $-1 $32 #
lump $-1 $-1 $33 $0 #
transform $-1 1 0 0 0 1 0 0 0 1 68.471327860347301 33.042477852465645 10.104744081564746 1 rotate no_reflect no_shear #
lump $-1 $-1 $34 $1 #
transform $-1 1 0 0 0 1 0 0 0 1 68.471327860347301 33.042477852465645 10.104744081564746 1 rotate no_reflect no_shear #
lump $-1 $-1 $35 $2 #
transform $-1 1 0 0 0 1 0 0 0 1 68.471327860347301 33.042477852465645 10.104744081564746 1 rotate no_reflect no_shear #
lump $-1 $-1 $36 $3 #
transform $-1 1 0 0 0 1 0 0 0 1 68.471327860347301 33.042477852465645 10.104744081564746 1 rotate no_reflect no_shear #
lump $-1 $-1 $37 $4 #
transform $-1 1 0 0 0 1 0 0 0 1 68.471327860347301 33.042477852465645 10.104744081564746 1 rotate no_reflect no_shear #
lump $-1 $-1 $38 $5 #
transform $-1 1 0 0 0 1 0 0 0 1 68.471327860347301 33.042477852465645 10.104744081564746 1 rotate no_reflect no_shear #
lump $-1 $-1 $39 $6 #
transform $-1 1 0 0 0 1 0 0 0 1 68.471327860347301 33.042477852465645 10.104744081564746 1 rotate no_reflect no_shear #
lump $-1 $-1 $40 $7 #
transform $-1 1 0 0 0 1 0 0 0 1 68.471327860347301 33.042477852465645 10.104744081564746 1 rotate no_reflect no_shear #
lump $-1 $-1 $41 $8 #
transform $-1 1 0 0 0 1 0 0 0 1 68.471327860347301 33.042477852465645 10.104744081564746 1 rotate no_reflect no_shear #
lump $-1 $-1 $42 $9 #
transform $-1 1 0 0 0 1 0 0 0 1 68.471327860347301 33.042477852465645 10.104744081564746 1 rotate no_reflect no_shear #
lump $-1 $-1 $43 $10 #
transform $-1 1 0 0 0 1 0 0 0 1 68.471327860347301 33.042477852465645 10.104744081564746 1 rotate no_reflect no_shear #
shell $-1 $-1 $-1 $44 $-1 $11 #
shell $-1 $-1 $-1 $45 $-1 $13 #
shell $-1 $-1 $-1 $46 $-1 $15 #
shell $-1 $-1 $-1 $47 $-1 $17 #
shell $-1 $-1 $-1 $48 $-1 $19 #
shell $-1 $-1 $-1 $49 $-1 $21 #
shell $-1 $-1 $-1 $50 $-1 $23 #
shell $-1 $-1 $-1 $51 $-1 $25 #
shell $-1 $-1 $-1 $52 $-1 $27 #
shell $-1 $-1 $-1 $53 $-1 $29 #
shell $-1 $-1 $-1 $54 $-1 $31 #
face $-1 $55 $56 $33 $-1 $57 forward single #
face $-1 $58 $59 $34 $-1 $60 reversed single #
face $-1 $61 $62 $35 $-1 $63 reversed single #
face $-1 $64 $65 $36 $-1 $66 forward single #
face $-1 $67 $68 $37 $-1 $69 forward single #
face $-1 $70 $71 $38 $-1 $72 reversed single #
face $-1 $73 $74 $39 $-1 $75 forward single #
face $-1 $76 $77 $40 $-1 $78 forward single #
face $-1 $79 $80 $41 $-1 $81 reversed single #
face $-1 $82 $83 $42 $-1 $84 forward single #
face $-1 $85 $86 $43 $-1 $87 forward single #
face $-1 $88 $89 $33 $-1 $90 reversed single #
loop $-1 $-1 $91 $44 #
plane-surface $-1 0 0 10.104744081564746 0 0 1 1 0 0 forward_v I I I I #
face $-1 $92 $93 $34 $-1 $94 reversed single #
loop $-1 $-1 $95 $45 #
plane-surface $-1 -65.45970274281585 -22.823749716595408 0 0 -1 0 0 0 -1 forward_v I I I I #
face $-1 $96 $97 $35 $-1 $98 reversed single #
loop $-1 $-1 $99 $46 #
plane-surface $-1 -188.24407434586539 5.3430895890027692 67.691855402967704 0 1 0 -0.87461971476443456 0 0.48480960649040278 forward_v I I I I #
face $-1 $100 $101 $36 $-1 $102 forward single #
loop $-1 $103 $104 $47 #
cone-surface $-1 -64.324179204743231 8.9035003503778896 4.7564927687819747 0.87461971476443456 0 -0.48480960649040278 0.48480960649040278 0 0.87461971476443456 1 I I 0 1 1 forward I I I I #
face $-1 $105 $106 $37 $-1 $107 forward single #
loop $-1 $108 $109 $48 #
cone-surface $-1 -64.324179204743231 14.244116492440561 4.7564927687819747 0.87461971476443456 0 -0.48480960649040278 0.48480960649040278 0 0.87461971476443456 1 I I 0 1 1 forward I I I I #
face $-1 $110 $111 $38 $-1 $112 reversed single #
loop $-1 $-1 $113 $49 #
plane-surface $-1 118.59582160976957 -11.275581489980425 187.15864645696766 0 -1 0 -0.86602541151947299 0 -0.49999998660252726 forward_v I I I I #
face $-1 $114 $115 $39 $-1 $116 forward single #
loop $-1 $117 $118 $50 #
cone-surface $-1 63.783520241127022 -19.5242730804197 4.0604892596990094 -0.86602541151947299 0 -0.49999998660252726 0.74999997990379086 0 -1.2990381172792094 1 I I 0 1 1.5 forward I I I I #
face $-1 $119 $120 $40 $-1 $121 forward single #
loop $-1 $122 $123 $51 #
cone-surface $-1 63.783520241127022 -14.575058126156136 4.0604892596990094 -0.86602541151947299 0 -0.49999998660252726 0.74999997990379086 0 -1.2990381172792094 1 I I 0 1 1.5 forward I I I I #
face $-1 $124 $125 $41 $-1 $126 reversed single #
loop $-1 $-1 $127 $52 #
plane-surface $-1 118.59582160976957 21.494309625850658 187.15864645696766 0 1 0 0.86602541151947299 0 0.49999998660252726 forward_v I I I I #
face $-1 $128 $129 $42 $-1 $130 forward single #
loop $-1 $131 $132 $53 #
cone-surface $-1 63.783520241127022 24.793786262026366 4.0604892596990094 -0.86602541151947299 0 -0.49999998660252726 0.74999997990379086 0 -1.2990381172792094 1 I I 0 1 1.5 forward I I I I #
face $-1 $133 $134 $43 $-1 $135 forward single #
loop $-1 $136 $137 $54 #
cone-surface $-1 63.783520241127022 29.743001216289926 4.0604892596990094 -0.86602541151947299 0 -0.49999998660252726 0.74999997990379086 0 -1.2990381172792094 1 I I 0 1 1.5 forward I I I I #
face $-1 $138 $139 $33 $-1 $140 reversed single #
loop $-1 $-1 $141 $55 #
plane-surface $-1 0 0 -10.104744081564746 0 0 1 1 0 0 forward_v I I I I #
coedge $-1 $142 $143 $144 $145 forward $56 $-1 #
face $-1 $146 $147 $34 $-1 $148 forward single #
loop $-1 $-1 $149 $58 #
plane-surface $-1 -62.448077625284398 -27.933113784530526 0 -1 0 0 0 0 1 forward_v I I I I #
coedge $-1 $150 $151 $152 $153 forward $59 $-1 #
face $-1 $154 $155 $35 $-1 $156 reversed single #
loop $-1 $-1 $157 $61 #
plane-surface $-1 -68.471327860347316 11.573808421409218 1.3007403712670538 -0.87461971476443456 0 0.48480960649040278 0.48480960649040278 0 0.87461971476443456 forward_v I I I I #
coedge $-1 $158 $159 $160 $161 reversed $62 $-1 #
face $-1 $-1 $162 $36 $-1 $163 forward single #
loop $-1 $164 $165 $64 #
cone-surface $-1 -62.179790074070745 8.9035003503778896 3.5678385079028594 0.87461971476443456 0 -0.48480960649040278 0.24240480324520139 0 0.43730985738221728 1 I I -0.70710678118654746 0.70710678118654746 0.5 forward I I I I #
loop $-1 $-1 $166 $47 #
coedge $-1 $104 $104 $167 $168 reversed $65 $-1 #
face $-1 $-1 $169 $37 $-1 $170 forward single #
loop $-1 $171 $172 $67 #
cone-surface $-1 -62.179790074070745 14.244116492440561 3.5678385079028594 0.87461971476443456 0 -0.48480960649040278 0.24240480324520139 0 0.43730985738221728 1 I I -0.70710678118654746 0.70710678118654746 0.5 forward I I I I #
loop $-1 $-1 $173 $48 #
coedge $-1 $109 $109 $174 $175 reversed $68 $-1 #
face $-1 $176 $177 $38 $-1 $178 reversed single #
loop $-1 $-1 $179 $70 #
plane-surface $-1 1.8346855199524725e-006 -17.049665603287917 118.68732043130585 0.86602541151947299 0 0.49999998660252726 0.49999998660252726 0 -0.86602541151947299 forward_v I I I I #
coedge $-1 $180 $181 $182 $183 reversed $71 $-1 #
face $-1 $-1 $184 $39 $-1 $185 forward single #
loop $-1 $186 $187 $73 #
cone-surface $-1 61.336767853538262 -19.5242730804197 2.6478561605528483 -0.86602541151947299 0 -0.49999998660252726 0.37499998995189543 0 -0.64951905863960469 1 I I -0.70710678118654757 0.70710678118654757 0.75 forward I I I I #
loop $-1 $-1 $188 $50 #
coedge $-1 $118 $118 $189 $190 reversed $74 $-1 #
face $-1 $-1 $191 $40 $-1 $192 forward single #
loop $-1 $193 $194 $76 #
cone-surface $-1 61.336767853538262 -14.575058126156136 2.6478561605528483 -0.86602541151947299 0 -0.49999998660252726 0.37499998995189543 0 -0.64951905863960469 1 I I -0.70710678118654757 0.70710678118654757 0.75 forward I I I I #
loop $-1 $-1 $195 $51 #
coedge $-1 $123 $123 $196 $197 reversed $77 $-1 #
face $-1 $198 $199 $41 $-1 $200 reversed single #
loop $-1 $-1 $201 $79 #
plane-surface $-1 1.8346855199524725e-006 27.268393739158149 118.68732043130585 0.86602541151947299 0 0.49999998660252726 0.49999998660252726 0 -0.86602541151947299 forward_v I I I I #
coedge $-1 $202 $203 $204 $205 reversed $80 $-1 #
face $-1 $-1 $206 $42 $-1 $207 forward single #
loop $-1 $208 $209 $82 #
cone-surface $-1 61.336767853538262 24.793786262026366 2.6478561605528483 -0.86602541151947299 0 -0.49999998660252726 0.37499998995189543 0 -0.64951905863960469 1 I I -0.70710678118654757 0.70710678118654757 0.75 forward I I I I #
loop $-1 $-1 $210 $53 #
coedge $-1 $132 $132 $211 $212 reversed $83 $-1 #
face $-1 $-1 $213 $43 $-1 $214 forward single #
loop $-1 $215 $216 $85 #
cone-surface $-1 61.336767853538262 29.743001216289926 2.6478561605528483 -0.86602541151947299 0 -0.49999998660252726 0.37499998995189543 0 -0.64951905863960469 1 I I -0.70710678118654757 0.70710678118654757 0.75 forward I I I I #
loop $-1 $-1 $217 $54 #
coedge $-1 $137 $137 $218 $219 reversed $86 $-1 #
face $-1 $220 $221 $33 $-1 $222 reversed single #
loop $-1 $-1 $223 $88 #
plane-surface $-1 0 -33.042477852465645 0 0 1 0 0 0 1 forward_v I I I I #
coedge $-1 $224 $225 $226 $227 forward $89 $-1 #
coedge $-1 $228 $91 $229 $230 forward $56 $-1 #
coedge $-1 $91 $228 $231 $232 forward $56 $-1 #
coedge $-1 $233 $234 $91 $145 reversed $235 $-1 #
edge $-1 $236 -33.042477852465645 $237 33.042477852465645 $144 $238 forward 7 unknown #
face $-1 $239 $240 $34 $-1 $241 reversed single #
loop $-1 $-1 $242 $92 #
plane-surface $-1 0 0 10.104744081564746 0 0 1 1 0 0 forward_v I I I I #
coedge $-1 $243 $244 $245 $246 reversed $93 $-1 #
coedge $-1 $247 $95 $248 $249 reversed $59 $-1 #
coedge $-1 $95 $247 $250 $251 reversed $59 $-1 #
coedge $-1 $244 $243 $95 $153 reversed $93 $-1 #
edge $-1 $252 -10.104744081564746 $253 10.104744081564746 $152 $254 forward 7 unknown #
face $-1 $255 $256 $35 $-1 $257 reversed single #
loop $-1 $-1 $258 $96 #
plane-surface $-1 -188.24407434586539 17.804527253815667 67.691855402967704 0 -1 0 0.87461971476443456 0 -0.48480960649040278 forward_v I I I I #
coedge $-1 $259 $260 $261 $262 reversed $97 $-1 #
coedge $-1 $159 $99 $263 $264 reversed $62 $-1 #
coedge $-1 $99 $158 $259 $265 reversed $62 $-1 #
coedge $-1 $261 $266 $99 $161 forward $267 $-1 #
edge $-1 $268 25.650709312585391 $269 30.530848077213001 $160 $270 forward 7 unknown #
loop $-1 $-1 $167 $100 #
plane-surface $-1 -68.471327860347316 11.573808421409218 1.3007403712670538 -0.87461971476443456 0 0.48480960649040278 0.48480960649040278 0 0.87461971476443456 forward_v I I I I #
loop $-1 $-1 $271 $64 #
coedge $-1 $165 $165 $166 $272 reversed $101 $-1 #
coedge $-1 $166 $166 $165 $272 forward $103 $-1 #
coedge $-1 $167 $167 $104 $168 forward $162 $-1 #
edge $-1 $273 0 $273 6.2831853071796004 $167 $274 forward 7 unknown #
loop $-1 $-1 $174 $105 #
plane-surface $-1 -68.471327860347316 11.573808421409218 1.3007403712670538 -0.87461971476443456 0 0.48480960649040278 0.48480960649040278 0 0.87461971476443456 forward_v I I I I #
loop $-1 $-1 $275 $67 #
coedge $-1 $172 $172 $173 $276 reversed $106 $-1 #
coedge $-1 $173 $173 $172 $276 forward $108 $-1 #
coedge $-1 $174 $174 $109 $175 forward $169 $-1 #
edge $-1 $277 0 $277 6.2831853071796004 $174 $278 forward 7 unknown #
face $-1 $279 $280 $38 $-1 $281 forward single #
loop $-1 $-1 $282 $110 #
plane-surface $-1 118.59582160976957 -22.823749716595408 187.15864645696766 0 1 0 0.86602541151947299 0 0.49999998660252726 forward_v I I I I #
coedge $-1 $283 $284 $285 $286 reversed $111 $-1 #
coedge $-1 $181 $113 $287 $288 reversed $71 $-1 #
coedge $-1 $113 $180 $283 $289 reversed $71 $-1 #
coedge $-1 $285 $290 $113 $183 forward $280 $-1 #
edge $-1 $291 -9.1734170554625152 $292 -3.3922684749202858 $182 $293 forward 7 unknown #
loop $-1 $-1 $189 $114 #
plane-surface $-1 1.8346855199524725e-006 -17.049665603287917 118.68732043130585 0.86602541151947299 0 0.49999998660252726 0.49999998660252726 0 -0.86602541151947299 forward_v I I I I #
loop $-1 $-1 $294 $73 #
coedge $-1 $187 $187 $188 $295 reversed $115 $-1 #
coedge $-1 $188 $188 $187 $295 forward $117 $-1 #
coedge $-1 $189 $189 $118 $190 forward $184 $-1 #
edge $-1 $296 0 $296 6.2831853071796004 $189 $297 forward 7 unknown #
loop $-1 $-1 $196 $119 #
plane-surface $-1 1.8346855199524725e-006 -17.049665603287917 118.68732043130585 0.86602541151947299 0 0.49999998660252726 0.49999998660252726 0 -0.86602541151947299 forward_v I I I I #
loop $-1 $-1 $298 $76 #
coedge $-1 $194 $194 $195 $299 reversed $120 $-1 #
coedge $-1 $195 $195 $194 $299 forward $122 $-1 #
coedge $-1 $196 $196 $123 $197 forward $191 $-1 #
edge $-1 $300 0 $300 6.2831853071796004 $196 $301 forward 7 unknown #
face $-1 $302 $303 $41 $-1 $304 forward single #
loop $-1 $-1 $204 $124 #
plane-surface $-1 68.471327860347301 0 0 -1 0 0 0 0 1 forward_v I I I I #
coedge $-1 $305 $306 $307 $308 reversed $125 $-1 #
coedge $-1 $203 $127 $309 $310 reversed $80 $-1 #
coedge $-1 $127 $202 $305 $311 reversed $80 $-1 #
coedge $-1 $307 $312 $127 $205 forward $199 $-1 #
edge $-1 $313 83.474579146919083 $314 93.48782257226199 $204 $315 forward 7 unknown #
loop $-1 $-1 $211 $128 #
plane-surface $-1 1.8346855199524725e-006 27.268393739158149 118.68732043130585 0.86602541151947299 0 0.49999998660252726 0.49999998660252726 0 -0.86602541151947299 forward_v I I I I #
loop $-1 $-1 $316 $82 #
coedge $-1 $209 $209 $210 $317 reversed $129 $-1 #
coedge $-1 $210 $210 $209 $317 forward $131 $-1 #
coedge $-1 $211 $211 $132 $212 forward $206 $-1 #
edge $-1 $318 0 $318 6.2831853071796004 $211 $319 forward 7 unknown #
loop $-1 $-1 $218 $133 #
plane-surface $-1 1.8346855199524725e-006 27.268393739158149 118.68732043130585 0.86602541151947299 0 0.49999998660252726 0.49999998660252726 0 -0.86602541151947299 forward_v I I I I #
loop $-1 $-1 $320 $85 #
coedge $-1 $216 $216 $217 $321 reversed $134 $-1 #
coedge $-1 $217 $217 $216 $321 forward $136 $-1 #
coedge $-1 $218 $218 $137 $219 forward $213 $-1 #
edge $-1 $322 0 $322 6.2831853071796004 $218 $323 forward 7 unknown #
face $-1 $324 $325 $33 $-1 $326 reversed single #
loop $-1 $-1 $327 $138 #
plane-surface $-1 -68.471327860347301 0 0 1 0 0 0 0 -1 forward_v I I I I #
coedge $-1 $328 $231 $329 $330 forward $139 $-1 #
coedge $-1 $331 $141 $328 $332 forward $89 $-1 #
coedge $-1 $141 $331 $333 $334 forward $89 $-1 #
coedge $-1 $234 $233 $141 $227 reversed $235 $-1 #
edge $-1 $335 -33.042477852465645 $336 33.042477852465645 $226 $337 forward 7 unknown #
coedge $-1 $143 $142 $338 $339 forward $56 $-1 #
coedge $-1 $340 $341 $142 $230 reversed $325 $-1 #
edge $-1 $237 -68.471327860347301 $342 68.471327860347301 $229 $343 forward 7 unknown #
coedge $-1 $223 $344 $143 $232 reversed $139 $-1 #
edge $-1 $345 -68.471327860347301 $236 68.471327860347301 $231 $346 forward 7 unknown #
coedge $-1 $226 $144 $344 $347 forward $235 $-1 #
coedge $-1 $144 $226 $340 $348 reversed $235 $-1 #
loop $-1 $-1 $233 $324 #
vertex $-1 $145 $349 #
vertex $-1 $145 $350 #
straight-curve $-1 68.471327860347301 0 10.104744081564746 0 1 0 I I #
face $-1 $351 $352 $34 $-1 $353 reversed single #
loop $-1 $-1 $354 $146 #
plane-surface $-1 -68.471327860347301 0 0 1 0 0 0 0 -1 forward_v I I I I #
coedge $-1 $250 $355 $244 $356 forward $147 $-1 #
coedge $-1 $152 $149 $357 $358 reversed $93 $-1 #
coedge $-1 $149 $152 $242 $356 reversed $93 $-1 #
coedge $-1 $359 $360 $149 $246 forward $361 $-1 #
edge $-1 $362 -10.104744081564746 $363 10.104744081564746 $245 $364 forward 7 unknown #
coedge $-1 $151 $150 $354 $365 reversed $59 $-1 #
coedge $-1 $357 $366 $150 $249 forward $352 $-1 #
edge $-1 $367 -35.741476488939377 $253 -29.718226253876473 $248 $368 forward 7 unknown #
coedge $-1 $369 $242 $151 $251 forward $147 $-1 #
edge $-1 $252 29.718226253876473 $370 35.741476488939377 $250 $371 forward 7 unknown #
vertex $-1 $251 $372 #
vertex $-1 $249 $373 #
straight-curve $-1 -62.448077625284398 -22.823749716595408 0 0 0 -1 I I #
face $-1 $-1 $267 $35 $-1 $374 forward single #
loop $-1 $-1 $375 $154 #
plane-surface $-1 -68.471327860347301 0 0 1 0 0 0 0 -1 forward_v I I I I #
coedge $-1 $376 $377 $378 $379 reversed $155 $-1 #
coedge $-1 $380 $157 $159 $265 forward $97 $-1 #
coedge $-1 $157 $380 $376 $381 forward $97 $-1 #
coedge $-1 $378 $160 $157 $262 forward $267 $-1 #
edge $-1 $269 -0.44381462170183994 $382 12.017623043111058 $261 $383 forward 7 unknown #
coedge $-1 $384 $385 $158 $264 forward $256 $-1 #
edge $-1 $386 -32.54518733021677 $268 -23.741183619919106 $263 $387 forward 7 unknown #
edge $-1 $269 -10.066093367983271 $386 -2.9223086620188301e-014 $159 $388 forward 7 unknown #
coedge $-1 $160 $378 $384 $389 forward $267 $-1 #
loop $-1 $-1 $378 $255 #
vertex $-1 $264 $390 #
vertex $-1 $161 $391 #
straight-curve $-1 -94.122037172932693 5.3430895890027692 10.104744081564746 1 0 0 I I #
coedge $-1 $271 $271 $-1 $392 reversed $164 $-1 #
edge $-1 $393 0 $393 6.2831853071796004 $165 $394 forward 7 unknown #
vertex $-1 $168 $395 #
ellipse-curve $-1 -66.031258478033507 8.9035003503778896 5.7027422264158965 -0.87461971476443456 0 0.48480960649040278 0.48480960649040278 0 0.87461971476443456 1 I I #
coedge $-1 $275 $275 $-1 $396 reversed $171 $-1 #
edge $-1 $397 0 $397 6.2831853071796004 $172 $398 forward 7 unknown #
vertex $-1 $175 $399 #
ellipse-curve $-1 -66.031258478033507 14.244116492440561 5.7027422264158965 -0.87461971476443456 0 0.48480960649040278 0.48480960649040278 0 0.87461971476443456 1 I I #
face $-1 $-1 $400 $38 $-1 $401 reversed single #
loop $-1 $-1 $182 $176 #
plane-surface $-1 0 0 10.104744081564746 0 0 1 1 0 0 forward_v I I I I #
coedge $-1 $402 $403 $404 $405 reversed $177 $-1 #
coedge $-1 $406 $179 $181 $289 forward $111 $-1 #
coedge $-1 $179 $406 $402 $407 forward $111 $-1 #
coedge $-1 $404 $182 $179 $286 forward $280 $-1 #
edge $-1 $292 2.7507486883364667 $408 14.29891691495145 $285 $409 forward 7 unknown #
coedge $-1 $410 $411 $180 $288 forward $400 $-1 #
edge $-1 $412 -93.48782257226199 $291 -83.474579146919083 $287 $413 forward 7 unknown #
edge $-1 $292 125.38035824979896 $412 136.94265572069455 $181 $414 forward 7 unknown #
coedge $-1 $182 $404 $410 $415 forward $280 $-1 #
vertex $-1 $183 $416 #
vertex $-1 $183 $417 #
straight-curve $-1 59.297910804884786 -11.275581489980425 10.104744081564746 -1 0 0 I I #
coedge $-1 $294 $294 $-1 $418 reversed $186 $-1 #
edge $-1 $419 0 $419 6.2831853071796004 $187 $420 forward 7 unknown #
vertex $-1 $190 $421 #
ellipse-curve $-1 65.580753570076183 -19.5242730804197 5.0981223688932813 0.86602541151947299 0 0.49999998660252726 0.74999997990379086 0 -1.2990381172792094 1 I I #
coedge $-1 $298 $298 $-1 $422 reversed $193 $-1 #
edge $-1 $423 0 $423 6.2831853071796004 $194 $424 forward 7 unknown #
vertex $-1 $197 $425 #
ellipse-curve $-1 65.580753570076183 -14.575058126156136 5.0981223688932813 0.86602541151947299 0 0.49999998660252726 0.74999997990379086 0 -1.2990381172792094 1 I I #
face $-1 $-1 $426 $41 $-1 $427 reversed single #
loop $-1 $-1 $309 $198 #
plane-surface $-1 0 0 10.104744081564746 0 0 1 1 0 0 forward_v I I I I #
coedge $-1 $428 $201 $203 $311 forward $125 $-1 #
coedge $-1 $201 $428 $429 $430 reversed $125 $-1 #
coedge $-1 $431 $204 $201 $308 forward $199 $-1 #
edge $-1 $314 7.8601127562715831 $432 19.40828098288657 $307 $433 forward 7 unknown #
coedge $-1 $434 $435 $202 $310 forward $303 $-1 #
edge $-1 $436 3.3922684749202858 $313 9.1734170554625152 $309 $437 forward 7 unknown #
edge $-1 $314 -136.94265572069455 $436 -125.38035824979896 $203 $438 forward 7 unknown #
coedge $-1 $204 $431 $434 $439 reversed $199 $-1 #
vertex $-1 $439 $440 #
vertex $-1 $205 $441 #
straight-curve $-1 68.471327860347301 21.494309625850658 93.57932322848383 0 0 -1 I I #
coedge $-1 $316 $316 $-1 $442 reversed $208 $-1 #
edge $-1 $443 0 $443 6.2831853071796004 $209 $444 forward 7 unknown #
vertex $-1 $212 $445 #
ellipse-curve $-1 65.580753570076183 24.793786262026366 5.0981223688932813 0.86602541151947299 0 0.49999998660252726 0.74999997990379086 0 -1.2990381172792094 1 I I #
coedge $-1 $320 $320 $-1 $446 reversed $215 $-1 #
edge $-1 $447 0 $447 6.2831853071796004 $216 $448 forward 7 unknown #
vertex $-1 $219 $449 #
ellipse-curve $-1 65.580753570076183 29.743001216289926 5.0981223688932813 0.86602541151947299 0 0.49999998660252726 0.74999997990379086 0 -1.2990381172792094 1 I I #
face $-1 $-1 $235 $33 $-1 $450 reversed single #
loop $-1 $-1 $340 $220 #
plane-surface $-1 0 33.042477852465645 0 0 -1 0 0 0 -1 forward_v I I I I #
coedge $-1 $451 $338 $341 $452 forward $221 $-1 #
coedge $-1 $344 $223 $224 $332 reversed $139 $-1 #
coedge $-1 $338 $451 $223 $330 reversed $221 $-1 #
edge $-1 $345 -10.104744081564746 $453 10.104744081564746 $329 $454 forward 7 unknown #
coedge $-1 $225 $224 $451 $455 forward $89 $-1 #
edge $-1 $336 -68.471327860347301 $453 68.471327860347301 $328 $456 forward 7 unknown #
coedge $-1 $341 $340 $225 $334 reversed $325 $-1 #
edge $-1 $457 -68.471327860347301 $335 68.471327860347301 $333 $458 forward 7 unknown #
vertex $-1 $227 $459 #
vertex $-1 $347 $460 #
straight-curve $-1 68.471327860347301 0 -10.104744081564746 0 -1 0 I I #
coedge $-1 $327 $329 $228 $339 reversed $221 $-1 #
edge $-1 $342 -33.042477852465645 $345 33.042477852465645 $338 $461 forward 7 unknown #
coedge $-1 $333 $229 $234 $348 forward $325 $-1 #
coedge $-1 $229 $333 $327 $452 reversed $325 $-1 #
vertex $-1 $230 $462 #
straight-curve $-1 0 33.042477852465645 10.104744081564746 -1 0 0 I I #
coedge $-1 $231 $328 $233 $347 reversed $139 $-1 #
vertex $-1 $339 $463 #
straight-curve $-1 0 -33.042477852465645 10.104744081564746 1 0 0 I I #
edge $-1 $236 -10.104744081564746 $336 10.104744081564746 $233 $464 forward 7 unknown #
edge $-1 $237 -10.104744081564746 $335 10.104744081564746 $234 $465 forward 7 unknown #
point $-1 68.471327860347301 -33.042477852465645 10.104744081564746 #
point $-1 68.471327860347301 33.042477852465645 10.104744081564746 #
face $-1 $-1 $361 $34 $-1 $466 reversed single #
loop $-1 $-1 $357 $239 #
plane-surface $-1 0 0 -10.104744081564746 0 0 1 1 0 0 forward_v I I I I #
coedge $-1 $467 $468 $247 $365 forward $240 $-1 #
coedge $-1 $242 $369 $359 $469 forward $147 $-1 #
edge $-1 $363 -19.075920960200381 $252 -8.857192824330145 $242 $470 forward 7 unknown #
coedge $-1 $471 $248 $243 $358 forward $352 $-1 #
edge $-1 $253 8.857192824330145 $362 19.075920960200381 $357 $472 forward 7 unknown #
coedge $-1 $473 $245 $355 $469 reversed $361 $-1 #
coedge $-1 $245 $473 $471 $474 reversed $361 $-1 #
loop $-1 $-1 $245 $351 #
vertex $-1 $474 $475 #
vertex $-1 $246 $476 #
straight-curve $-1 -62.448077625284398 -33.042477852465645 0 0 0 1 I I #
edge $-1 $370 -10.104744081564746 $367 10.104744081564746 $354 $477 forward 7 unknown #
coedge $-1 $248 $471 $467 $478 forward $352 $-1 #
vertex $-1 $249 $479 #
straight-curve $-1 -32.729851371407925 -22.823749716595408 -10.104744081564746 1 0 0 I I #
coedge $-1 $355 $250 $468 $480 forward $147 $-1 #
vertex $-1 $480 $481 #
straight-curve $-1 -32.729851371407925 -22.823749716595408 10.104744081564746 -1 0 0 I I #
point $-1 -62.448077625284398 -22.823749716595408 10.104744081564746 #
point $-1 -62.448077625284398 -22.823749716595408 -10.104744081564746 #
plane-surface $-1 0 0 10.104744081564746 0 0 1 1 0 0 forward_v I I I I #
coedge $-1 $385 $384 $377 $482 forward $256 $-1 #
coedge $-1 $377 $258 $260 $381 reversed $155 $-1 #
coedge $-1 $258 $376 $375 $482 reversed $155 $-1 #
coedge $-1 $266 $261 $258 $379 forward $267 $-1 #
edge $-1 $382 -30.530848077213001 $483 -25.650709312585391 $378 $484 forward 7 unknown #
coedge $-1 $260 $259 $385 $485 reversed $97 $-1 #
edge $-1 $486 2.9223086620188301e-014 $382 10.066093367983271 $376 $487 forward 7 unknown #
vertex $-1 $262 $488 #
straight-curve $-1 -63.591189095719692 5.7869042107046091 10.104744081564748 0 1 0 I I #
coedge $-1 $375 $263 $266 $389 reversed $256 $-1 #
coedge $-1 $263 $375 $380 $485 forward $256 $-1 #
vertex $-1 $264 $489 #
straight-curve $-1 -68.471327860347301 5.3430895890027692 33.845927701483852 0 0 1 I I #
straight-curve $-1 -68.471327860347316 5.3430895890027692 1.3007403712670538 -0.48480960649040278 0 -0.87461971476443456 I I #
edge $-1 $483 -17.804527253815667 $268 -5.3430895890027692 $384 $490 forward 7 unknown #
point $-1 -68.471327860347301 5.3430895890027692 10.104744081564746 #
point $-1 -63.591189095719692 5.3430895890027692 10.104744081564746 #
edge $-1 $491 1 $491 0 $271 $-1 forward 7 unknown #
vertex $-1 $272 $492 #
ellipse-curve $-1 -62.617099931452962 8.9035003503778896 3.8102433111480609 -0.87461971476443456 0 0.48480960649040278 0.48480960649040278 0 0.87461971476443456 1 I I #
point $-1 -65.546448871543092 8.9035003503778896 6.5773619411803237 #
edge $-1 $493 1 $493 0 $275 $-1 forward 7 unknown #
vertex $-1 $276 $494 #
ellipse-curve $-1 -62.617099931452962 14.244116492440561 3.8102433111480609 -0.87461971476443456 0 0.48480960649040278 0.48480960649040278 0 0.87461971476443456 1 I I #
point $-1 -65.546448871543092 14.244116492440561 6.5773619411803237 #
loop $-1 $-1 $287 $279 #
plane-surface $-1 68.471327860347301 0 0 -1 0 0 0 0 1 forward_v I I I I #
coedge $-1 $403 $282 $284 $407 reversed $177 $-1 #
coedge $-1 $282 $402 $495 $496 reversed $177 $-1 #
coedge $-1 $290 $285 $282 $405 forward $280 $-1 #
edge $-1 $408 3.3922684749202858 $497 9.1734170554625152 $404 $498 forward 7 unknown #
coedge $-1 $284 $283 $411 $499 reversed $111 $-1 #
edge $-1 $500 -136.94265572069455 $408 -125.38035824979896 $402 $501 forward 7 unknown #
vertex $-1 $286 $502 #
straight-curve $-1 62.690179279805065 -8.5248328016439583 10.104744081564746 0 -1 0 I I #
coedge $-1 $495 $287 $290 $415 reversed $400 $-1 #
coedge $-1 $287 $495 $406 $499 forward $400 $-1 #
vertex $-1 $288 $503 #
straight-curve $-1 68.471327860347301 -11.275581489980425 93.57932322848383 0 0 1 I I #
straight-curve $-1 1.8346855199524725e-006 -11.275581489980425 118.68732043130585 0.49999998660252726 0 -0.86602541151947299 I I #
edge $-1 $497 -22.823749716595408 $291 -11.275581489980425 $410 $504 forward 7 unknown #
point $-1 68.471327860347301 -11.275581489980425 10.104744081564746 #
point $-1 62.690179279805072 -11.275581489980425 10.104744081564746 #
edge $-1 $505 1 $505 0 $294 $-1 forward 7 unknown #
vertex $-1 $295 $506 #
ellipse-curve $-1 61.986286912177867 -19.5242730804197 3.0228561505047438 0.86602541151947299 0 0.49999998660252726 0.74999997990379086 0 -1.2990381172792094 1 I I #
point $-1 66.330753549979974 -19.5242730804197 3.7990842516140662 #
edge $-1 $507 1 $507 0 $298 $-1 forward 7 unknown #
vertex $-1 $299 $508 #
ellipse-curve $-1 61.986286912177867 -14.575058126156136 3.0228561505047438 0.86602541151947299 0 0.49999998660252726 0.74999997990379086 0 -1.2990381172792094 1 I I #
point $-1 66.330753549979974 -14.575058126156136 3.7990842516140662 #
loop $-1 $-1 $429 $302 #
plane-surface $-1 0 33.042477852465645 0 0 -1 0 0 0 -1 forward_v I I I I #
coedge $-1 $306 $305 $435 $509 reversed $125 $-1 #
coedge $-1 $510 $511 $306 $430 forward $426 $-1 #
edge $-1 $432 -85.549538420033315 $512 -73.987240949137743 $429 $513 forward 7 unknown #
coedge $-1 $312 $307 $511 $514 reversed $199 $-1 #
vertex $-1 $308 $515 #
straight-curve $-1 68.471327860347301 13.634196869579075 0.091500656221832344 0 1 0 I I #
coedge $-1 $516 $309 $312 $439 forward $303 $-1 #
coedge $-1 $309 $516 $428 $509 forward $303 $-1 #
vertex $-1 $310 $517 #
straight-curve $-1 59.297910804884786 21.494309625850658 10.104744081564746 1 0 0 I I #
straight-curve $-1 1.8346855199524725e-006 21.494309625850658 118.68732043130585 -0.49999998660252726 0 0.86602541151947299 I I #
edge $-1 $313 21.494309625850658 $518 33.042477852465645 $312 $519 forward 7 unknown #
point $-1 68.471327860347301 21.494309625850658 10.104744081564746 #
point $-1 68.471327860347301 21.494309625850658 0.091500656221839449 #
edge $-1 $520 1 $520 0 $316 $-1 forward 7 unknown #
vertex $-1 $317 $521 #
ellipse-curve $-1 61.986286912177867 24.793786262026366 3.0228561505047438 0.86602541151947299 0 0.49999998660252726 0.74999997990379086 0 -1.2990381172792094 1 I I #
point $-1 66.330753549979974 24.793786262026366 3.7990842516140662 #
edge $-1 $522 1 $522 0 $320 $-1 forward 7 unknown #
vertex $-1 $321 $523 #
ellipse-curve $-1 61.986286912177867 29.743001216289926 3.0228561505047438 0.86602541151947299 0 0.49999998660252726 0.74999997990379086 0 -1.2990381172792094 1 I I #
point $-1 66.330753549979974 29.743001216289926 3.7990842516140662 #
plane-surface $-1 68.471327860347301 0 0 -1 0 0 0 0 1 forward_v I I I I #
coedge $-1 $329 $327 $331 $455 reversed $221 $-1 #
edge $-1 $342 -10.104744081564746 $457 10.104744081564746 $341 $524 forward 7 unknown #
vertex $-1 $455 $525 #
straight-curve $-1 -68.471327860347301 -33.042477852465645 0 0 0 -1 I I #
edge $-1 $453 -33.042477852465645 $457 33.042477852465645 $451 $526 forward 7 unknown #
straight-curve $-1 0 -33.042477852465645 -10.104744081564746 -1 0 0 I I #
vertex $-1 $334 $527 #
straight-curve $-1 0 33.042477852465645 -10.104744081564746 1 0 0 I I #
point $-1 68.471327860347301 33.042477852465645 -10.104744081564746 #
point $-1 68.471327860347301 -33.042477852465645 -10.104744081564746 #
straight-curve $-1 -68.471327860347301 0 10.104744081564746 0 -1 0 I I #
point $-1 -68.471327860347301 33.042477852465645 10.104744081564746 #
point $-1 -68.471327860347301 -33.042477852465645 10.104744081564746 #
straight-curve $-1 68.471327860347301 -33.042477852465645 0 0 0 -1 I I #
straight-curve $-1 68.471327860347301 33.042477852465645 0 0 0 -1 I I #
plane-surface $-1 0 -33.042477852465645 0 0 1 0 0 0 1 forward_v I I I I #
coedge $-1 $528 $354 $366 $478 reversed $240 $-1 #
coedge $-1 $354 $528 $369 $480 reversed $240 $-1 #
edge $-1 $529 -68.471327860347301 $363 -62.448077625284398 $359 $530 forward 7 unknown #
straight-curve $-1 -62.448077625284398 -13.966556892265263 10.104744081564746 0 1 0 I I #
coedge $-1 $366 $357 $360 $474 forward $352 $-1 #
straight-curve $-1 -62.448077625284398 -13.966556892265263 -10.104744081564746 0 -1 0 I I #
coedge $-1 $360 $359 $528 $531 forward $361 $-1 #
edge $-1 $362 62.448077625284398 $532 68.471327860347301 $360 $533 forward 7 unknown #
point $-1 -62.448077625284398 -33.042477852465645 -10.104744081564746 #
point $-1 -62.448077625284398 -33.042477852465645 10.104744081564746 #
straight-curve $-1 -68.471327860347301 -22.823749716595408 0 0 0 -1 I I #
edge $-1 $532 -33.042477852465645 $367 -22.823749716595408 $467 $534 forward 7 unknown #
point $-1 -68.471327860347301 -22.823749716595408 -10.104744081564746 #
edge $-1 $370 22.823749716595408 $529 33.042477852465645 $468 $535 forward 7 unknown #
point $-1 -68.471327860347301 -22.823749716595408 10.104744081564746 #
edge $-1 $483 23.741183619919106 $486 32.54518733021677 $375 $536 forward 7 unknown #
vertex $-1 $389 $537 #
straight-curve $-1 -94.122037172932693 17.804527253815667 10.104744081564746 -1 0 0 I I #
edge $-1 $486 -12.017623043111058 $386 0.44381462170183994 $385 $538 forward 7 unknown #
vertex $-1 $485 $539 #
straight-curve $-1 -68.471327860347316 17.804527253815667 1.3007403712670538 0.48480960649040278 0 0.87461971476443456 I I #
point $-1 -63.591189095719692 17.804527253815667 10.104744081564746 #
point $-1 -68.471327860347301 5.3430895890027692 1.3007403712670793 #
straight-curve $-1 -68.471327860347301 0 10.104744081564746 0 -1 0 I I #
vertex $-1 $392 $540 #
point $-1 -62.132290324962561 8.9035003503778896 4.6848630259124953 #
vertex $-1 $396 $541 #
point $-1 -62.132290324962561 14.244116492440561 4.6848630259124953 #
coedge $-1 $411 $410 $403 $496 forward $400 $-1 #
edge $-1 $497 83.474579146919083 $500 93.48782257226199 $495 $542 forward 7 unknown #
vertex $-1 $415 $543 #
straight-curve $-1 59.297910804884786 -22.823749716595408 10.104744081564746 1 0 0 I I #
edge $-1 $500 -14.29891691495145 $412 -2.7507486883364667 $411 $544 forward 7 unknown #
vertex $-1 $499 $545 #
straight-curve $-1 1.8346855199524725e-006 -22.823749716595408 118.68732043130585 -0.49999998660252726 0 0.86602541151947299 I I #
point $-1 62.690179279805072 -22.823749716595408 10.104744081564746 #
point $-1 68.471327860347301 -11.275581489980425 0.091500656221839449 #
straight-curve $-1 68.471327860347301 0 10.104744081564746 0 1 0 I I #
vertex $-1 $418 $546 #
point $-1 62.736286892081658 -19.5242730804197 1.7238180332255344 #
vertex $-1 $422 $547 #
point $-1 62.736286892081658 -14.575058126156136 1.7238180332255344 #
edge $-1 $512 -19.40828098288657 $436 -7.8601127562715831 $435 $548 forward 7 unknown #
coedge $-1 $511 $429 $516 $549 reversed $426 $-1 #
coedge $-1 $429 $510 $431 $514 forward $426 $-1 #
vertex $-1 $430 $550 #
straight-curve $-1 25.696559796478248 33.042477852465645 74.179574871732157 -0.49999998660252726 0 0.86602541151947299 I I #
edge $-1 $518 -10.104744081564746 $432 -0.091500656221838408 $431 $551 forward 7 unknown #
point $-1 68.471327860347301 33.042477852465645 0.091500656221838408 #
coedge $-1 $435 $434 $510 $549 forward $303 $-1 #
point $-1 62.690179279805072 21.494309625850658 10.104744081564746 #
vertex $-1 $439 $552 #
straight-curve $-1 68.471327860347301 0 10.104744081564746 0 1 0 I I #
vertex $-1 $442 $553 #
point $-1 62.736286892081658 24.793786262026366 1.7238180332255344 #
vertex $-1 $446 $554 #
point $-1 62.736286892081658 29.743001216289926 1.7238180332255344 #
straight-curve $-1 -68.471327860347301 33.042477852465645 0 0 0 -1 I I #
point $-1 -68.471327860347301 -33.042477852465645 -10.104744081564746 #
straight-curve $-1 -68.471327860347301 0 -10.104744081564746 0 1 0 I I #
point $-1 -68.471327860347301 33.042477852465645 -10.104744081564746 #
coedge $-1 $468 $467 $473 $531 reversed $240 $-1 #
vertex $-1 $480 $555 #
straight-curve $-1 0 -33.042477852465645 10.104744081564746 1 0 0 I I #
edge $-1 $529 -10.104744081564746 $532 10.104744081564746 $528 $556 forward 7 unknown #
vertex $-1 $478 $557 #
straight-curve $-1 0 -33.042477852465645 -10.104744081564746 -1 0 0 I I #
straight-curve $-1 -68.471327860347301 0 -10.104744081564746 0 1 0 I I #
straight-curve $-1 -68.471327860347301 0 10.104744081564746 0 -1 0 I I #
straight-curve $-1 -68.471327860347301 17.804527253815667 33.845927701483852 0 0 -1 I I #
point $-1 -68.471327860347301 17.804527253815667 10.104744081564746 #
straight-curve $-1 -68.471327860347301 5.7869042107046091 1.300740371267092 0 -1 0 I I #
point $-1 -68.471327860347301 17.804527253815667 1.3007403712670793 #
point $-1 -61.742480216688527 8.9035003503778896 3.3254337046576579 #
point $-1 -61.742480216688527 14.244116492440561 3.3254337046576579 #
straight-curve $-1 68.471327860347301 -22.823749716595408 93.57932322848383 0 0 -1 I I #
point $-1 68.471327860347301 -22.823749716595408 10.104744081564746 #
straight-curve $-1 68.471327860347301 -8.5248328016439583 0.091500656221832344 0 1 0 I I #
point $-1 68.471327860347301 -22.823749716595408 0.091500656221839449 #
point $-1 60.687248794898657 -19.5242730804197 2.2728561706009529 #
point $-1 60.687248794898657 -14.575058126156136 2.2728561706009529 #
straight-curve $-1 62.690179279805065 13.634196869579075 10.104744081564746 0 -1 0 I I #
edge $-1 $518 -68.471327860347301 $512 -62.690179279805072 $510 $558 forward 7 unknown #
point $-1 62.690179279805072 33.042477852465645 10.104744081564746 #
straight-curve $-1 68.471327860347301 33.042477852465645 0 0 0 -1 I I #
point $-1 68.471327860347301 33.042477852465645 10.104744081564746 #
point $-1 60.687248794898657 24.793786262026366 2.2728561706009529 #
point $-1 60.687248794898657 29.743001216289926 2.2728561706009529 #
point $-1 -68.471327860347301 -33.042477852465645 10.104744081564746 #
straight-curve $-1 -68.471327860347301 -33.042477852465645 0 0 0 -1 I I #
point $-1 -68.471327860347301 -33.042477852465645 -10.104744081564746 #
straight-curve $-1 0 33.042477852465645 10.104744081564746 -1 0 0 I I #
End-of-ACIS-data 