500 0 10 0           
7 Unknown 11 ACIS 5.0 NT 24 Fri Mar 26 20:37:50 1999 
-1 9.9999999999999995e-007 1e-010 
body $-1 $10 $-1 $11 #
body $-1 $12 $-1 $13 #
body $-1 $14 $-1 $15 #
body $-1 $16 $-1 $17 #
body $-1 $18 $-1 $19 #
body $-1 $20 $-1 $21 #
body $-1 $22 $-1 $23 #
body $-1 $24 $-1 $25 #
body $-1 $26 $-1 $27 #
body $-1 $28 $-1 $29 #
lump $-1 $-1 $30 $0 #
transform $-1 1 0 0 0 1 0 0 0 1 51.714224677266763 35.322139598819064 14.18458735651908 1 rotate no_reflect no_shear #
lump $-1 $-1 $31 $1 #
transform $-1 1 0 0 0 1 0 0 0 1 51.714224677266763 35.322139598819064 14.18458735651908 1 rotate no_reflect no_shear #
lump $-1 $-1 $32 $2 #
transform $-1 1 0 0 0 1 0 0 0 1 51.714224677266763 35.322139598819064 14.18458735651908 1 rotate no_reflect no_shear #
lump $-1 $-1 $33 $3 #
transform $-1 1 0 0 0 1 0 0 0 1 51.714224677266763 35.322139598819064 14.18458735651908 1 rotate no_reflect no_shear #
lump $-1 $-1 $34 $4 #
transform $-1 1 0 0 0 1 0 0 0 1 51.714224677266763 35.322139598819064 14.18458735651908 1 rotate no_reflect no_shear #
lump $-1 $-1 $35 $5 #
transform $-1 1 0 0 0 1 0 0 0 1 51.714224677266763 35.322139598819064 14.18458735651908 1 rotate no_reflect no_shear #
lump $-1 $-1 $36 $6 #
transform $-1 1 0 0 0 1 0 0 0 1 51.714224677266763 35.322139598819064 14.18458735651908 1 rotate no_reflect no_shear #
lump $-1 $-1 $37 $7 #
transform $-1 1 0 0 0 1 0 0 0 1 51.714224677266763 35.322139598819064 14.18458735651908 1 rotate no_reflect no_shear #
lump $-1 $-1 $38 $8 #
transform $-1 1 0 0 0 1 0 0 0 1 51.714224677266763 35.322139598819064 14.18458735651908 1 rotate no_reflect no_shear #
lump $-1 $-1 $39 $9 #
transform $-1 1 0 0 0 1 0 0 0 1 51.714224677266763 35.322139598819064 14.18458735651908 1 rotate no_reflect no_shear #
shell $-1 $-1 $-1 $40 $-1 $10 #
shell $-1 $-1 $-1 $41 $-1 $12 #
shell $-1 $-1 $-1 $42 $-1 $14 #
shell $-1 $-1 $-1 $43 $-1 $16 #
shell $-1 $-1 $-1 $44 $-1 $18 #
shell $-1 $-1 $-1 $45 $-1 $20 #
shell $-1 $-1 $-1 $46 $-1 $22 #
shell $-1 $-1 $-1 $47 $-1 $24 #
shell $-1 $-1 $-1 $48 $-1 $26 #
shell $-1 $-1 $-1 $49 $-1 $28 #
face $-1 $50 $51 $30 $-1 $52 forward single #
face $-1 $53 $54 $31 $-1 $55 reversed single #
face $-1 $56 $57 $32 $-1 $58 reversed single #
face $-1 $59 $60 $33 $-1 $61 forward single #
face $-1 $62 $63 $34 $-1 $64 forward single #
face $-1 $65 $66 $35 $-1 $67 forward single #
face $-1 $68 $69 $36 $-1 $70 reversed single #
face $-1 $71 $72 $37 $-1 $73 forward single #
face $-1 $74 $75 $38 $-1 $76 forward single #
face $-1 $77 $78 $39 $-1 $79 forward single #
face $-1 $80 $81 $30 $-1 $82 reversed single #
loop $-1 $-1 $83 $40 #
plane-surface $-1 0 0 14.18458735651908 0 0 1 1 0 0 forward_v I I I I #
face $-1 $84 $85 $31 $-1 $86 reversed single #
loop $-1 $-1 $87 $41 #
plane-surface $-1 0 -26.485159424298686 8.2462551186194428 0 0 1 1 0 0 forward_v I I I I #
face $-1 $88 $89 $32 $-1 $90 reversed single #
loop $-1 $-1 $91 $42 #
plane-surface $-1 -119.56939355596836 19.893193895323581 84.737722026624454 0 1 0 -0.6560590369687036 0 0.75470957328743171 forward_v I I I I #
face $-1 $92 $93 $33 $-1 $94 forward single #
loop $-1 $95 $96 $43 #
cone-surface $-1 -46.25545474906928 22.978983036022683 9.1184017065740139 0.6560590369687036 0 -0.75470957328743171 1.1320643599311475 0 0.9840885554530554 1 I I 0 1 1.5 forward I I I I #
face $-1 $97 $98 $34 $-1 $99 forward single #
loop $-1 $100 $101 $44 #
cone-surface $-1 -46.25545474906928 27.607666747071328 9.1184017065740139 0.6560590369687036 0 -0.75470957328743171 1.1320643599311475 0 0.9840885554530554 1 I I 0 1 1.5 forward I I I I #
face $-1 $102 $103 $35 $-1 $104 forward single #
loop $-1 $105 $106 $45 #
cone-surface $-1 -46.25545474906928 32.236350458119972 9.1184017065740139 0.6560590369687036 0 -0.75470957328743171 1.1320643599311475 0 0.9840885554530554 1 I I 0 1 1.5 forward I I I I #
face $-1 $107 $108 $36 $-1 $109 reversed single #
loop $-1 $-1 $110 $46 #
plane-surface $-1 -13.375406459258173 -14.485324972436914 88.967722535665104 0.77714596973225614 0 0.62932038083071107 0.62932038083071107 0 -0.77714596973225614 forward_v I I I I #
face $-1 $111 $112 $37 $-1 $113 forward single #
loop $-1 $114 $115 $47 #
cone-surface $-1 48.927610699079771 -16.383037538841752 10.964843642198021 -0.77714596973225614 0 -0.62932038083071107 0.31466019041535553 0 -0.38857298486612807 1 I I 0 1 0.5 forward I I I I #
face $-1 $116 $117 $38 $-1 $118 forward single #
loop $-1 $119 $120 $48 #
cone-surface $-1 48.927610699079771 -14.485324972436914 10.964843642198021 -0.77714596973225614 0 -0.62932038083071107 0.31466019041535553 0 -0.38857298486612807 1 I I 0 1 0.5 forward I I I I #
face $-1 $121 $122 $39 $-1 $123 forward single #
loop $-1 $124 $125 $49 #
cone-surface $-1 48.927610699079771 -12.587612406032076 10.964843642198021 -0.77714596973225614 0 -0.62932038083071107 0.31466019041535553 0 -0.38857298486612807 1 I I 0 1 0.5 forward I I I I #
face $-1 $126 $127 $30 $-1 $128 reversed single #
loop $-1 $-1 $129 $50 #
plane-surface $-1 0 0 -14.18458735651908 0 0 1 1 0 0 forward_v I I I I #
coedge $-1 $130 $131 $132 $133 forward $51 $-1 #
face $-1 $134 $135 $31 $-1 $136 reversed single #
loop $-1 $-1 $137 $53 #
plane-surface $-1 0 -17.648179249778309 11.215421237569261 0 -1 0 0 0 -1 forward_v I I I I #
coedge $-1 $138 $139 $140 $141 reversed $54 $-1 #
face $-1 $142 $143 $32 $-1 $144 forward single #
loop $-1 $-1 $145 $56 #
plane-surface $-1 -51.714224677266756 27.60766674707132 6.6792811484837102 -0.6560590369687036 0 0.75470957328743171 0.75470957328743171 0 0.6560590369687036 forward_v I I I I #
coedge $-1 $146 $147 $148 $149 reversed $57 $-1 #
face $-1 $-1 $150 $33 $-1 $151 forward single #
loop $-1 $152 $153 $59 #
cone-surface $-1 -44.621574025099662 22.978983036022683 7.2388369806810662 0.6560590369687036 0 -0.75470957328743171 0.56603217996557376 0 0.4920442777265277 1 I I -0.70710678118654757 0.70710678118654757 0.75 forward I I I I #
loop $-1 $-1 $154 $43 #
coedge $-1 $96 $96 $155 $156 reversed $60 $-1 #
face $-1 $-1 $157 $34 $-1 $158 forward single #
loop $-1 $159 $160 $62 #
cone-surface $-1 -44.621574025099662 27.607666747071328 7.2388369806810662 0.6560590369687036 0 -0.75470957328743171 0.56603217996557376 0 0.4920442777265277 1 I I -0.70710678118654757 0.70710678118654757 0.75 forward I I I I #
loop $-1 $-1 $161 $44 #
coedge $-1 $101 $101 $162 $163 reversed $63 $-1 #
face $-1 $-1 $164 $35 $-1 $165 forward single #
loop $-1 $166 $167 $65 #
cone-surface $-1 -44.621574025099662 32.236350458119972 7.2388369806810662 0.6560590369687036 0 -0.75470957328743171 0.56603217996557376 0 0.4920442777265277 1 I I -0.70710678118654757 0.70710678118654757 0.75 forward I I I I #
loop $-1 $-1 $168 $45 #
coedge $-1 $106 $106 $169 $170 reversed $66 $-1 #
face $-1 $171 $172 $36 $-1 $173 forward single #
loop $-1 $-1 $174 $68 #
plane-surface $-1 67.003596112274323 -11.322470695095518 154.05735367219006 0 -1 0 -0.77714596973225614 0 -0.62932038083071107 forward_v I I I I #
coedge $-1 $175 $176 $177 $178 reversed $69 $-1 #
face $-1 $-1 $179 $37 $-1 $180 forward single #
loop $-1 $181 $182 $71 #
cone-surface $-1 48.212432200657609 -16.383037538841752 10.385703528862516 -0.77714596973225614 0 -0.62932038083071107 0.15733009520767777 0 -0.19428649243306403 1 I I -0.70710678118654746 0.70710678118654746 0.25 forward I I I I #
loop $-1 $-1 $183 $47 #
coedge $-1 $115 $115 $184 $185 reversed $72 $-1 #
face $-1 $-1 $186 $38 $-1 $187 forward single #
loop $-1 $188 $189 $74 #
cone-surface $-1 48.212432200657609 -14.485324972436914 10.385703528862516 -0.77714596973225614 0 -0.62932038083071107 0.15733009520767777 0 -0.19428649243306403 1 I I -0.70710678118654746 0.70710678118654746 0.25 forward I I I I #
loop $-1 $-1 $190 $48 #
coedge $-1 $120 $120 $191 $192 reversed $75 $-1 #
face $-1 $-1 $193 $39 $-1 $194 forward single #
loop $-1 $195 $196 $77 #
cone-surface $-1 48.212432200657609 -12.587612406032076 10.385703528862516 -0.77714596973225614 0 -0.62932038083071107 0.15733009520767777 0 -0.19428649243306403 1 I I -0.70710678118654746 0.70710678118654746 0.25 forward I I I I #
loop $-1 $-1 $197 $49 #
coedge $-1 $125 $125 $198 $199 reversed $78 $-1 #
face $-1 $200 $201 $30 $-1 $202 reversed single #
loop $-1 $-1 $203 $80 #
plane-surface $-1 0 -35.322139598819064 0 0 1 0 0 0 1 forward_v I I I I #
coedge $-1 $204 $205 $206 $207 forward $81 $-1 #
coedge $-1 $208 $83 $209 $210 forward $51 $-1 #
coedge $-1 $83 $208 $211 $212 forward $51 $-1 #
coedge $-1 $213 $214 $83 $133 reversed $215 $-1 #
edge $-1 $216 -35.322139598819064 $217 35.322139598819064 $132 $218 forward 7 unknown #
face $-1 $219 $220 $31 $-1 $221 reversed single #
loop $-1 $-1 $222 $84 #
plane-surface $-1 -51.714224677266763 0 0 1 0 0 0 0 -1 forward_v I I I I #
coedge $-1 $223 $224 $225 $226 reversed $85 $-1 #
coedge $-1 $227 $87 $228 $229 reversed $54 $-1 #
coedge $-1 $87 $227 $223 $230 forward $54 $-1 #
coedge $-1 $225 $231 $87 $141 forward $232 $-1 #
edge $-1 $233 -22.07955988666972 $234 -4.4055995376289658 $140 $235 forward 7 unknown #
face $-1 $236 $237 $32 $-1 $238 reversed single #
loop $-1 $-1 $148 $88 #
plane-surface $-1 0 0 14.18458735651908 0 0 1 1 0 0 forward_v I I I I #
coedge $-1 $239 $240 $241 $242 reversed $89 $-1 #
coedge $-1 $147 $91 $243 $244 reversed $57 $-1 #
coedge $-1 $91 $146 $239 $245 reversed $57 $-1 #
coedge $-1 $241 $246 $91 $149 forward $143 $-1 #
edge $-1 $247 8.0704721007174172 $248 16.704339064626183 $148 $249 forward 7 unknown #
loop $-1 $-1 $155 $92 #
plane-surface $-1 -51.714224677266756 27.60766674707132 6.6792811484837102 -0.6560590369687036 0 0.75470957328743171 0.75470957328743171 0 0.6560590369687036 forward_v I I I I #
loop $-1 $-1 $250 $59 #
coedge $-1 $153 $153 $154 $251 reversed $93 $-1 #
coedge $-1 $154 $154 $153 $251 forward $95 $-1 #
coedge $-1 $155 $155 $96 $156 forward $150 $-1 #
edge $-1 $252 0 $252 6.2831853071796004 $155 $253 forward 7 unknown #
loop $-1 $-1 $162 $97 #
plane-surface $-1 -51.714224677266756 27.60766674707132 6.6792811484837102 -0.6560590369687036 0 0.75470957328743171 0.75470957328743171 0 0.6560590369687036 forward_v I I I I #
loop $-1 $-1 $254 $62 #
coedge $-1 $160 $160 $161 $255 reversed $98 $-1 #
coedge $-1 $161 $161 $160 $255 forward $100 $-1 #
coedge $-1 $162 $162 $101 $163 forward $157 $-1 #
edge $-1 $256 0 $256 6.2831853071796004 $162 $257 forward 7 unknown #
loop $-1 $-1 $169 $102 #
plane-surface $-1 -51.714224677266756 27.60766674707132 6.6792811484837102 -0.6560590369687036 0 0.75470957328743171 0.75470957328743171 0 0.6560590369687036 forward_v I I I I #
loop $-1 $-1 $258 $65 #
coedge $-1 $167 $167 $168 $259 reversed $103 $-1 #
coedge $-1 $168 $168 $167 $259 forward $105 $-1 #
coedge $-1 $169 $169 $106 $170 forward $164 $-1 #
edge $-1 $260 0 $260 6.2831853071796004 $169 $261 forward 7 unknown #
face $-1 $262 $263 $36 $-1 $264 reversed single #
loop $-1 $-1 $265 $107 #
plane-surface $-1 0 -17.648179249778309 11.215421237569261 0 -1 0 0 0 -1 forward_v I I I I #
coedge $-1 $266 $267 $268 $269 reversed $108 $-1 #
coedge $-1 $270 $110 $265 $271 reversed $69 $-1 #
coedge $-1 $110 $270 $266 $272 forward $69 $-1 #
coedge $-1 $268 $273 $110 $178 forward $263 $-1 #
edge $-1 $274 -10.405516763559852 $275 -4.0798082088770613 $177 $276 forward 7 unknown #
loop $-1 $-1 $184 $111 #
plane-surface $-1 -13.375406459258173 -14.485324972436914 88.967722535665104 0.77714596973225614 0 0.62932038083071107 0.62932038083071107 0 -0.77714596973225614 forward_v I I I I #
loop $-1 $-1 $277 $71 #
coedge $-1 $182 $182 $183 $278 reversed $112 $-1 #
coedge $-1 $183 $183 $182 $278 forward $114 $-1 #
coedge $-1 $184 $184 $115 $185 forward $179 $-1 #
edge $-1 $279 0 $279 6.2831853071796004 $184 $280 forward 7 unknown #
loop $-1 $-1 $191 $116 #
plane-surface $-1 -13.375406459258173 -14.485324972436914 88.967722535665104 0.77714596973225614 0 0.62932038083071107 0.62932038083071107 0 -0.77714596973225614 forward_v I I I I #
loop $-1 $-1 $281 $74 #
coedge $-1 $189 $189 $190 $282 reversed $117 $-1 #
coedge $-1 $190 $190 $189 $282 forward $119 $-1 #
coedge $-1 $191 $191 $120 $192 forward $186 $-1 #
edge $-1 $283 0 $283 6.2831853071796004 $191 $284 forward 7 unknown #
loop $-1 $-1 $198 $121 #
plane-surface $-1 -13.375406459258173 -14.485324972436914 88.967722535665104 0.77714596973225614 0 0.62932038083071107 0.62932038083071107 0 -0.77714596973225614 forward_v I I I I #
loop $-1 $-1 $285 $77 #
coedge $-1 $196 $196 $197 $286 reversed $122 $-1 #
coedge $-1 $197 $197 $196 $286 forward $124 $-1 #
coedge $-1 $198 $198 $125 $199 forward $193 $-1 #
edge $-1 $287 0 $287 6.2831853071796004 $198 $288 forward 7 unknown #
face $-1 $289 $290 $30 $-1 $291 reversed single #
loop $-1 $-1 $292 $126 #
plane-surface $-1 -51.714224677266763 0 0 1 0 0 0 0 -1 forward_v I I I I #
coedge $-1 $293 $211 $294 $295 forward $127 $-1 #
coedge $-1 $296 $129 $293 $297 forward $81 $-1 #
coedge $-1 $129 $296 $298 $299 forward $81 $-1 #
coedge $-1 $214 $213 $129 $207 reversed $215 $-1 #
edge $-1 $300 -35.322139598819064 $301 35.322139598819064 $206 $302 forward 7 unknown #
coedge $-1 $131 $130 $303 $304 forward $51 $-1 #
coedge $-1 $305 $306 $130 $210 reversed $290 $-1 #
edge $-1 $217 -51.714224677266763 $307 51.714224677266763 $209 $308 forward 7 unknown #
coedge $-1 $203 $309 $131 $212 reversed $127 $-1 #
edge $-1 $310 -51.714224677266763 $216 51.714224677266763 $211 $311 forward 7 unknown #
coedge $-1 $206 $132 $309 $312 forward $215 $-1 #
coedge $-1 $132 $206 $305 $313 reversed $215 $-1 #
loop $-1 $-1 $213 $289 #
vertex $-1 $133 $314 #
vertex $-1 $133 $315 #
straight-curve $-1 51.714224677266763 0 14.18458735651908 0 1 0 I I #
face $-1 $316 $317 $31 $-1 $318 forward single #
loop $-1 $-1 $228 $134 #
plane-surface $-1 0 -35.322139598819064 0 0 1 0 0 0 1 forward_v I I I I #
coedge $-1 $319 $320 $321 $322 forward $135 $-1 #
coedge $-1 $321 $137 $139 $230 reversed $85 $-1 #
coedge $-1 $137 $321 $323 $324 reversed $85 $-1 #
coedge $-1 $325 $140 $137 $226 forward $232 $-1 #
edge $-1 $234 2.6385444998348122 $326 8.5768767377344481 $225 $327 forward 7 unknown #
coedge $-1 $139 $138 $319 $328 reversed $54 $-1 #
coedge $-1 $329 $330 $138 $229 forward $220 $-1 #
edge $-1 $331 -51.714224677266763 $233 51.714224677266763 $228 $332 forward 7 unknown #
edge $-1 $333 -51.714224677266763 $234 51.714224677266763 $223 $334 forward 7 unknown #
coedge $-1 $140 $325 $329 $335 forward $232 $-1 #
loop $-1 $-1 $225 $316 #
vertex $-1 $229 $336 #
vertex $-1 $141 $337 #
straight-curve $-1 51.714224677266763 -13.242579712149343 8.2462551186194428 0 1 0 I I #
face $-1 $-1 $338 $32 $-1 $339 reversed single #
loop $-1 $-1 $340 $142 #
plane-surface $-1 0 35.322139598819064 0 0 -1 0 0 0 -1 forward_v I I I I #
coedge $-1 $341 $145 $147 $245 forward $89 $-1 #
coedge $-1 $145 $341 $340 $342 reversed $89 $-1 #
coedge $-1 $343 $148 $145 $242 forward $143 $-1 #
edge $-1 $248 6.0893605217879205 $344 21.518306225283403 $241 $345 forward 7 unknown #
coedge $-1 $346 $347 $146 $244 forward $338 $-1 #
edge $-1 $348 -35.689579864828524 $247 -28.184273656793145 $243 $349 forward 7 unknown #
edge $-1 $248 -11.43998601515095 $348 9.44141639987384e-015 $147 $350 forward 7 unknown #
coedge $-1 $148 $343 $346 $351 forward $143 $-1 #
vertex $-1 $244 $352 #
vertex $-1 $149 $353 #
straight-curve $-1 -59.78469677798418 19.893193895323581 14.184587356519081 1 0 0 I I #
coedge $-1 $250 $250 $-1 $354 reversed $152 $-1 #
edge $-1 $355 0 $355 6.2831853071796004 $153 $356 forward 7 unknown #
vertex $-1 $156 $357 #
ellipse-curve $-1 -47.397291195312377 22.978983036022683 10.431934252501394 -0.6560590369687036 0 0.75470957328743171 1.1320643599311475 0 0.9840885554530554 1 I I #
coedge $-1 $254 $254 $-1 $358 reversed $159 $-1 #
edge $-1 $359 0 $359 6.2831853071796004 $160 $360 forward 7 unknown #
vertex $-1 $163 $361 #
ellipse-curve $-1 -47.397291195312377 27.607666747071328 10.431934252501394 -0.6560590369687036 0 0.75470957328743171 1.1320643599311475 0 0.9840885554530554 1 I I #
coedge $-1 $258 $258 $-1 $362 reversed $166 $-1 #
edge $-1 $363 0 $363 6.2831853071796004 $167 $364 forward 7 unknown #
vertex $-1 $170 $365 #
ellipse-curve $-1 -47.397291195312377 32.236350458119972 10.431934252501394 -0.6560590369687036 0 0.75470957328743171 1.1320643599311475 0 0.9840885554530554 1 I I #
face $-1 $-1 $366 $36 $-1 $367 forward single #
loop $-1 $-1 $177 $171 #
plane-surface $-1 51.714224677266763 0 0 -1 0 0 0 0 1 forward_v I I I I #
coedge $-1 $368 $369 $175 $271 forward $172 $-1 #
coedge $-1 $267 $174 $176 $272 reversed $108 $-1 #
coedge $-1 $174 $266 $370 $371 reversed $108 $-1 #
coedge $-1 $372 $177 $174 $269 forward $263 $-1 #
edge $-1 $275 -68.439956871962394 $373 -62.844089479575949 $268 $374 forward 7 unknown #
coedge $-1 $176 $175 $375 $376 reversed $69 $-1 #
edge $-1 $377 61.806761795619479 $274 69.007297615568916 $265 $378 forward 7 unknown #
edge $-1 $379 96.227913534584061 $275 103.42844935453348 $266 $380 forward 7 unknown #
coedge $-1 $177 $372 $368 $381 forward $263 $-1 #
vertex $-1 $271 $382 #
vertex $-1 $178 $383 #
straight-curve $-1 51.714224677266763 -7.2426624862184568 8.5887199641326291 0 1 0 I I #
coedge $-1 $277 $277 $-1 $384 reversed $181 $-1 #
edge $-1 $385 0 $385 6.2831853071796004 $182 $386 forward 7 unknown #
vertex $-1 $185 $387 #
ellipse-curve $-1 49.448502705068876 -16.383037538841752 11.386653660325859 0.77714596973225614 0 0.62932038083071107 0.31466019041535553 0 -0.38857298486612807 1 I I #
coedge $-1 $281 $281 $-1 $388 reversed $188 $-1 #
edge $-1 $389 0 $389 6.2831853071796004 $189 $390 forward 7 unknown #
vertex $-1 $192 $391 #
ellipse-curve $-1 49.448502705068876 -14.485324972436914 11.386653660325859 0.77714596973225614 0 0.62932038083071107 0.31466019041535553 0 -0.38857298486612807 1 I I #
coedge $-1 $285 $285 $-1 $392 reversed $195 $-1 #
edge $-1 $393 0 $393 6.2831853071796004 $196 $394 forward 7 unknown #
vertex $-1 $199 $395 #
ellipse-curve $-1 49.448502705068876 -12.587612406032076 11.386653660325859 0.77714596973225614 0 0.62932038083071107 0.31466019041535553 0 -0.38857298486612807 1 I I #
face $-1 $-1 $215 $30 $-1 $396 reversed single #
loop $-1 $-1 $305 $200 #
plane-surface $-1 0 35.322139598819064 0 0 -1 0 0 0 -1 forward_v I I I I #
coedge $-1 $397 $303 $306 $398 forward $201 $-1 #
coedge $-1 $309 $203 $204 $297 reversed $127 $-1 #
coedge $-1 $303 $397 $203 $295 reversed $201 $-1 #
edge $-1 $310 -14.18458735651908 $399 14.18458735651908 $294 $400 forward 7 unknown #
coedge $-1 $205 $204 $397 $401 forward $81 $-1 #
edge $-1 $301 -51.714224677266763 $399 51.714224677266763 $293 $402 forward 7 unknown #
coedge $-1 $306 $305 $205 $299 reversed $290 $-1 #
edge $-1 $403 -51.714224677266763 $300 51.714224677266763 $298 $404 forward 7 unknown #
vertex $-1 $207 $405 #
vertex $-1 $312 $406 #
straight-curve $-1 51.714224677266763 0 -14.18458735651908 0 -1 0 I I #
coedge $-1 $292 $294 $208 $304 reversed $201 $-1 #
edge $-1 $307 -35.322139598819064 $310 35.322139598819064 $303 $407 forward 7 unknown #
coedge $-1 $298 $209 $214 $313 forward $290 $-1 #
coedge $-1 $209 $298 $292 $398 reversed $290 $-1 #
vertex $-1 $210 $408 #
straight-curve $-1 0 35.322139598819064 14.18458735651908 -1 0 0 I I #
coedge $-1 $211 $293 $213 $312 reversed $127 $-1 #
vertex $-1 $304 $409 #
straight-curve $-1 0 -35.322139598819064 14.18458735651908 1 0 0 I I #
edge $-1 $216 -14.18458735651908 $301 14.18458735651908 $213 $410 forward 7 unknown #
edge $-1 $217 -14.18458735651908 $300 14.18458735651908 $214 $411 forward 7 unknown #
point $-1 51.714224677266763 -35.322139598819064 14.18458735651908 #
point $-1 51.714224677266763 35.322139598819064 14.18458735651908 #
face $-1 $-1 $232 $31 $-1 $412 reversed single #
loop $-1 $-1 $323 $219 #
plane-surface $-1 0 0 14.18458735651908 0 0 1 1 0 0 forward_v I I I I #
coedge $-1 $413 $222 $227 $328 forward $135 $-1 #
coedge $-1 $222 $413 $414 $415 reversed $135 $-1 #
coedge $-1 $224 $223 $222 $322 reversed $85 $-1 #
edge $-1 $416 -8.5768767377344481 $333 -2.6385444998348122 $222 $417 forward 7 unknown #
coedge $-1 $414 $418 $224 $324 forward $317 $-1 #
edge $-1 $326 -51.714224677266763 $416 51.714224677266763 $323 $419 forward 7 unknown #
coedge $-1 $231 $225 $418 $420 reversed $232 $-1 #
vertex $-1 $226 $421 #
straight-curve $-1 51.714224677266763 -17.648179249778309 5.6077106187846306 0 0 1 I I #
edge $-1 $333 4.4055995376289658 $331 22.07955988666972 $319 $422 forward 7 unknown #
coedge $-1 $423 $228 $231 $335 reversed $220 $-1 #
coedge $-1 $228 $423 $413 $424 forward $220 $-1 #
vertex $-1 $229 $425 #
straight-curve $-1 0 -35.322139598819064 8.2462551186194428 1 0 0 I I #
vertex $-1 $328 $426 #
straight-curve $-1 0 -17.648179249778309 8.2462551186194428 1 0 0 I I #
edge $-1 $427 -14.18458735651908 $233 -8.2462551186194428 $231 $428 forward 7 unknown #
point $-1 51.714224677266763 -35.322139598819064 8.2462551186194428 #
point $-1 51.714224677266763 -17.648179249778309 8.2462551186194428 #
loop $-1 $-1 $243 $236 #
plane-surface $-1 -51.714224677266763 0 0 1 0 0 0 0 -1 forward_v I I I I #
coedge $-1 $429 $430 $240 $342 forward $237 $-1 #
coedge $-1 $240 $239 $347 $431 reversed $89 $-1 #
edge $-1 $344 5.8836228254255136 $432 17.323608840576473 $340 $433 forward 7 unknown #
coedge $-1 $246 $241 $430 $434 forward $143 $-1 #
vertex $-1 $434 $435 #
straight-curve $-1 -43.080357713357998 13.80383337353566 14.18458735651908 0 1 0 I I #
coedge $-1 $436 $243 $246 $351 reversed $338 $-1 #
coedge $-1 $243 $436 $341 $431 forward $338 $-1 #
vertex $-1 $244 $437 #
straight-curve $-1 -51.714224677266763 19.893193895323581 42.368861013312227 0 0 1 I I #
straight-curve $-1 -51.714224677266756 19.893193895323581 6.6792811484837102 -0.75470957328743171 0 -0.6560590369687036 I I #
edge $-1 $438 -35.322139598819064 $247 -19.893193895323581 $346 $439 forward 7 unknown #
point $-1 -51.714224677266763 19.893193895323581 14.18458735651908 #
point $-1 -43.080357713357998 19.893193895323581 14.18458735651908 #
edge $-1 $440 1 $440 0 $250 $-1 forward 7 unknown #
vertex $-1 $251 $441 #
ellipse-curve $-1 -45.11361830282619 22.978983036022683 7.80486916064664 -0.6560590369687036 0 0.75470957328743171 1.1320643599311475 0 0.9840885554530554 1 I I #
point $-1 -46.265226835381227 22.978983036022683 11.416022807954445 #
edge $-1 $442 1 $442 0 $254 $-1 forward 7 unknown #
vertex $-1 $255 $443 #
ellipse-curve $-1 -45.11361830282619 27.607666747071328 7.80486916064664 -0.6560590369687036 0 0.75470957328743171 1.1320643599311475 0 0.9840885554530554 1 I I #
point $-1 -46.265226835381227 27.607666747071328 11.416022807954445 #
edge $-1 $444 1 $444 0 $258 $-1 forward 7 unknown #
vertex $-1 $259 $445 #
ellipse-curve $-1 -45.11361830282619 32.236350458119972 7.80486916064664 -0.6560590369687036 0 0.75470957328743171 1.1320643599311475 0 0.9840885554530554 1 I I #
point $-1 -46.265226835381227 32.236350458119972 11.416022807954445 #
loop $-1 $-1 $375 $262 #
plane-surface $-1 0 0 14.18458735651908 0 0 1 1 0 0 forward_v I I I I #
coedge $-1 $369 $265 $273 $381 reversed $172 $-1 #
coedge $-1 $265 $368 $446 $447 reversed $172 $-1 #
coedge $-1 $375 $448 $267 $371 forward $366 $-1 #
edge $-1 $373 -18.212426621129602 $379 -13.680982676733841 $370 $449 forward 7 unknown #
coedge $-1 $273 $268 $448 $450 reversed $263 $-1 #
vertex $-1 $269 $451 #
straight-curve $-1 51.714224677266763 -11.322470695095518 77.02867683609503 0 0 1 I I #
coedge $-1 $446 $370 $270 $376 forward $366 $-1 #
edge $-1 $379 4.0798082088770613 $377 10.405516763559852 $375 $452 forward 7 unknown #
vertex $-1 $447 $453 #
straight-curve $-1 8.2865258617387099 -17.648179249778309 62.217463188186343 0.62932038083071107 0 -0.77714596973225614 I I #
vertex $-1 $376 $454 #
straight-curve $-1 -13.375406459258173 -11.322470695095518 88.967722535665104 0.62932038083071107 0 -0.77714596973225614 I I #
edge $-1 $455 -8.5768767377344481 $274 -2.9810093453479878 $273 $456 forward 7 unknown #
point $-1 51.714224677266763 -17.648179249778309 8.5887199641326184 #
point $-1 51.714224677266756 -11.322470695095518 8.5887199641326362 #
edge $-1 $457 1 $457 0 $277 $-1 forward 7 unknown #
vertex $-1 $278 $458 #
ellipse-curve $-1 48.406718693090674 -16.383037538841752 10.543033624070194 0.77714596973225614 0 0.62932038083071107 0.31466019041535553 0 -0.38857298486612807 1 I I #
point $-1 49.763162895484221 -16.383037538841752 10.99808067545972 #
edge $-1 $459 1 $459 0 $281 $-1 forward 7 unknown #
vertex $-1 $282 $460 #
ellipse-curve $-1 48.406718693090674 -14.485324972436914 10.543033624070194 0.77714596973225614 0 0.62932038083071107 0.31466019041535553 0 -0.38857298486612807 1 I I #
point $-1 49.763162895484221 -14.485324972436914 10.99808067545972 #
edge $-1 $461 1 $461 0 $285 $-1 forward 7 unknown #
vertex $-1 $286 $462 #
ellipse-curve $-1 48.406718693090674 -12.587612406032076 10.543033624070194 0.77714596973225614 0 0.62932038083071107 0.31466019041535553 0 -0.38857298486612807 1 I I #
point $-1 49.763162895484221 -12.587612406032076 10.99808067545972 #
plane-surface $-1 51.714224677266763 0 0 -1 0 0 0 0 1 forward_v I I I I #
coedge $-1 $294 $292 $296 $401 reversed $201 $-1 #
edge $-1 $307 -14.18458735651908 $403 14.18458735651908 $306 $463 forward 7 unknown #
vertex $-1 $401 $464 #
straight-curve $-1 -51.714224677266763 -35.322139598819064 0 0 0 -1 I I #
edge $-1 $399 -35.322139598819064 $403 35.322139598819064 $397 $465 forward 7 unknown #
straight-curve $-1 0 -35.322139598819064 -14.18458735651908 -1 0 0 I I #
vertex $-1 $299 $466 #
straight-curve $-1 0 35.322139598819064 -14.18458735651908 1 0 0 I I #
point $-1 51.714224677266763 35.322139598819064 -14.18458735651908 #
point $-1 51.714224677266763 -35.322139598819064 -14.18458735651908 #
straight-curve $-1 -51.714224677266763 0 14.18458735651908 0 -1 0 I I #
point $-1 -51.714224677266763 35.322139598819064 14.18458735651908 #
point $-1 -51.714224677266763 -35.322139598819064 14.18458735651908 #
straight-curve $-1 51.714224677266763 -35.322139598819064 0 0 0 -1 I I #
straight-curve $-1 51.714224677266763 35.322139598819064 0 0 0 -1 I I #
plane-surface $-1 51.714224677266763 0 0 -1 0 0 0 0 1 forward_v I I I I #
coedge $-1 $320 $319 $330 $424 reversed $135 $-1 #
coedge $-1 $467 $323 $320 $415 forward $317 $-1 #
edge $-1 $416 17.648179249778309 $468 35.322139598819064 $320 $469 forward 7 unknown #
vertex $-1 $415 $470 #
straight-curve $-1 -51.714224677266763 -17.648179249778309 5.6077106187846306 0 0 -1 I I #
coedge $-1 $323 $467 $325 $420 forward $317 $-1 #
straight-curve $-1 0 -17.648179249778309 14.18458735651908 -1 0 0 I I #
edge $-1 $427 -35.322139598819064 $326 -17.648179249778309 $325 $471 forward 7 unknown #
point $-1 51.714224677266763 -17.648179249778309 14.18458735651908 #
straight-curve $-1 -51.714224677266763 -13.242579712149343 8.2462551186194428 0 -1 0 I I #
coedge $-1 $330 $329 $467 $472 reversed $220 $-1 #
edge $-1 $468 -14.18458735651908 $331 -8.2462551186194428 $413 $473 forward 7 unknown #
point $-1 -51.714224677266763 -35.322139598819064 8.2462551186194428 #
point $-1 -51.714224677266763 -17.648179249778309 8.2462551186194428 #
vertex $-1 $420 $474 #
straight-curve $-1 51.714224677266763 -35.322139598819064 0 0 0 -1 I I #
coedge $-1 $430 $340 $436 $475 reversed $237 $-1 #
coedge $-1 $340 $429 $343 $434 reversed $237 $-1 #
edge $-1 $432 -21.518306225283403 $348 -6.0893605217879205 $347 $476 forward 7 unknown #
vertex $-1 $342 $477 #
straight-curve $-1 -38.639931241396916 35.322139598819064 18.044591281254824 -0.75470957328743171 0 -0.6560590369687036 I I #
edge $-1 $344 43.080357713357998 $438 51.714224677266763 $430 $478 forward 7 unknown #
point $-1 -43.080357713357998 35.322139598819064 14.18458735651908 #
coedge $-1 $347 $346 $429 $475 forward $338 $-1 #
point $-1 -51.714224677266763 19.893193895323581 6.679281148483704 #
vertex $-1 $434 $479 #
straight-curve $-1 -51.714224677266763 0 14.18458735651908 0 -1 0 I I #
vertex $-1 $354 $480 #
point $-1 -43.98155394289504 22.978983036022683 8.788957716099695 #
vertex $-1 $358 $481 #
point $-1 -43.98155394289504 27.607666747071328 8.788957716099695 #
vertex $-1 $362 $482 #
point $-1 -43.98155394289504 32.236350458119972 8.788957716099695 #
coedge $-1 $448 $375 $369 $447 forward $366 $-1 #
edge $-1 $377 47.182780732871002 $455 51.714224677266763 $446 $483 forward 7 unknown #
coedge $-1 $370 $446 $372 $450 forward $366 $-1 #
straight-curve $-1 33.501798056137162 -11.322470695095518 14.184587356519074 -1 0 0 I I #
edge $-1 $455 -17.648179249778309 $373 -11.322470695095518 $372 $484 forward 7 unknown #
point $-1 51.714224677266763 -11.322470695095518 14.18458735651908 #
straight-curve $-1 47.182780732871002 -7.2426624862184568 14.184587356519089 0 -1 0 I I #
point $-1 47.182780732871002 -17.648179249778309 14.184587356519074 #
point $-1 47.182780732871002 -11.322470695095518 14.184587356519074 #
vertex $-1 $450 $485 #
straight-curve $-1 51.714224677266763 -17.648179249778309 5.6077106187846306 0 0 -1 I I #
vertex $-1 $384 $486 #
point $-1 48.721378883506027 -16.383037538841752 10.154460639204066 #
vertex $-1 $388 $487 #
point $-1 48.721378883506027 -14.485324972436914 10.154460639204066 #
vertex $-1 $392 $488 #
point $-1 48.721378883506027 -12.587612406032076 10.154460639204066 #
straight-curve $-1 -51.714224677266763 35.322139598819064 0 0 0 -1 I I #
point $-1 -51.714224677266763 -35.322139598819064 -14.18458735651908 #
straight-curve $-1 -51.714224677266763 0 -14.18458735651908 0 1 0 I I #
point $-1 -51.714224677266763 35.322139598819064 -14.18458735651908 #
coedge $-1 $418 $414 $423 $472 forward $317 $-1 #
vertex $-1 $415 $489 #
straight-curve $-1 -51.714224677266763 0 14.18458735651908 0 -1 0 I I #
point $-1 -51.714224677266763 -17.648179249778309 14.18458735651908 #
straight-curve $-1 51.714224677266763 0 14.18458735651908 0 1 0 I I #
edge $-1 $468 -51.714224677266763 $427 51.714224677266763 $423 $490 forward 7 unknown #
straight-curve $-1 -51.714224677266763 -35.322139598819064 0 0 0 -1 I I #
point $-1 51.714224677266763 -35.322139598819064 14.18458735651908 #
edge $-1 $438 -14.18458735651908 $432 -6.679281148483704 $429 $491 forward 7 unknown #
straight-curve $-1 -51.714224677266763 13.80383337353566 6.6792811484836978 0 -1 0 I I #
point $-1 -51.714224677266763 35.322139598819064 6.679281148483704 #
straight-curve $-1 0 35.322139598819064 14.18458735651908 -1 0 0 I I #
point $-1 -51.714224677266763 35.322139598819064 14.18458735651908 #
point $-1 -44.129529747373134 22.978983036022683 6.6728048007154923 #
point $-1 -44.129529747373134 27.607666747071328 6.6728048007154923 #
point $-1 -44.129529747373134 32.236350458119972 6.6728048007154923 #
straight-curve $-1 0 -17.648179249778309 14.18458735651908 1 0 0 I I #
straight-curve $-1 51.714224677266763 0 14.18458735651908 0 1 0 I I #
point $-1 51.714224677266763 -17.648179249778309 14.18458735651908 #
point $-1 48.018145708224544 -16.383037538841752 10.228373433654838 #
point $-1 48.018145708224544 -14.485324972436914 10.228373433654838 #
point $-1 48.018145708224544 -12.587612406032076 10.228373433654838 #
point $-1 -51.714224677266763 -35.322139598819064 14.18458735651908 #
straight-curve $-1 0 -35.322139598819064 14.18458735651908 1 0 0 I I #
straight-curve $-1 -51.714224677266763 35.322139598819064 0 0 0 -1 I I #
End-of-ACIS-data 