500 0 18 0           
7 Unknown 11 ACIS 5.0 NT 24 Thu Mar 25 21:30:37 1999 
-1 9.9999999999999995e-007 1e-010 
body $-1 $18 $-1 $19 #
body $-1 $20 $-1 $21 #
body $-1 $22 $-1 $23 #
body $-1 $24 $-1 $25 #
body $-1 $26 $-1 $27 #
body $-1 $28 $-1 $29 #
body $-1 $30 $-1 $31 #
body $-1 $32 $-1 $33 #
body $-1 $34 $-1 $35 #
body $-1 $36 $-1 $37 #
body $-1 $38 $-1 $39 #
body $-1 $40 $-1 $41 #
body $-1 $42 $-1 $43 #
body $-1 $44 $-1 $45 #
body $-1 $46 $-1 $47 #
body $-1 $48 $-1 $49 #
body $-1 $50 $-1 $51 #
body $-1 $52 $-1 $53 #
lump $-1 $-1 $54 $0 #
transform $-1 1 0 0 0 1 0 0 0 1 49.69267860957671 29.072347734411036 14.269201931011045 1 rotate no_reflect no_shear #
lump $-1 $-1 $55 $1 #
transform $-1 1 0 0 0 1 0 0 0 1 49.69267860957671 29.072347734411036 14.269201931011045 1 rotate no_reflect no_shear #
lump $-1 $-1 $56 $2 #
transform $-1 1 0 0 0 1 0 0 0 1 49.69267860957671 29.072347734411036 14.269201931011045 1 rotate no_reflect no_shear #
lump $-1 $-1 $57 $3 #
transform $-1 1 0 0 0 1 0 0 0 1 49.69267860957671 29.072347734411036 14.269201931011045 1 rotate no_reflect no_shear #
lump $-1 $-1 $58 $4 #
transform $-1 1 0 0 0 1 0 0 0 1 49.69267860957671 29.072347734411036 14.269201931011045 1 rotate no_reflect no_shear #
lump $-1 $-1 $59 $5 #
transform $-1 1 0 0 0 1 0 0 0 1 49.69267860957671 29.072347734411036 14.269201931011045 1 rotate no_reflect no_shear #
lump $-1 $-1 $60 $6 #
transform $-1 1 0 0 0 1 0 0 0 1 49.69267860957671 29.072347734411036 14.269201931011045 1 rotate no_reflect no_shear #
lump $-1 $-1 $61 $7 #
transform $-1 1 0 0 0 1 0 0 0 1 49.69267860957671 29.072347734411036 14.269201931011045 1 rotate no_reflect no_shear #
lump $-1 $-1 $62 $8 #
transform $-1 1 0 0 0 1 0 0 0 1 49.69267860957671 29.072347734411036 14.269201931011045 1 rotate no_reflect no_shear #
lump $-1 $-1 $63 $9 #
transform $-1 1 0 0 0 1 0 0 0 1 49.69267860957671 29.072347734411036 14.269201931011045 1 rotate no_reflect no_shear #
lump $-1 $-1 $64 $10 #
transform $-1 1 0 0 0 1 0 0 0 1 49.69267860957671 29.072347734411036 14.269201931011045 1 rotate no_reflect no_shear #
lump $-1 $-1 $65 $11 #
transform $-1 1 0 0 0 1 0 0 0 1 49.69267860957671 29.072347734411036 14.269201931011045 1 rotate no_reflect no_shear #
lump $-1 $-1 $66 $12 #
transform $-1 1 0 0 0 1 0 0 0 1 49.69267860957671 29.072347734411036 14.269201931011045 1 rotate no_reflect no_shear #
lump $-1 $-1 $67 $13 #
transform $-1 1 0 0 0 1 0 0 0 1 49.69267860957671 29.072347734411036 14.269201931011045 1 rotate no_reflect no_shear #
lump $-1 $-1 $68 $14 #
transform $-1 1 0 0 0 1 0 0 0 1 49.69267860957671 29.072347734411036 14.269201931011045 1 rotate no_reflect no_shear #
lump $-1 $-1 $69 $15 #
transform $-1 1 0 0 0 1 0 0 0 1 49.69267860957671 29.072347734411036 14.269201931011045 1 rotate no_reflect no_shear #
lump $-1 $-1 $70 $16 #
transform $-1 1 0 0 0 1 0 0 0 1 49.69267860957671 29.072347734411036 14.269201931011045 1 rotate no_reflect no_shear #
lump $-1 $-1 $71 $17 #
transform $-1 1 0 0 0 1 0 0 0 1 49.69267860957671 29.072347734411036 14.269201931011045 1 rotate no_reflect no_shear #
shell $-1 $-1 $-1 $72 $-1 $18 #
shell $-1 $-1 $-1 $73 $-1 $20 #
shell $-1 $-1 $-1 $74 $-1 $22 #
shell $-1 $-1 $-1 $75 $-1 $24 #
shell $-1 $-1 $-1 $76 $-1 $26 #
shell $-1 $-1 $-1 $77 $-1 $28 #
shell $-1 $-1 $-1 $78 $-1 $30 #
shell $-1 $-1 $-1 $79 $-1 $32 #
shell $-1 $-1 $-1 $80 $-1 $34 #
shell $-1 $-1 $-1 $81 $-1 $36 #
shell $-1 $-1 $-1 $82 $-1 $38 #
shell $-1 $-1 $-1 $83 $-1 $40 #
shell $-1 $-1 $-1 $84 $-1 $42 #
shell $-1 $-1 $-1 $85 $-1 $44 #
shell $-1 $-1 $-1 $86 $-1 $46 #
shell $-1 $-1 $-1 $87 $-1 $48 #
shell $-1 $-1 $-1 $88 $-1 $50 #
shell $-1 $-1 $-1 $89 $-1 $52 #
face $-1 $90 $91 $54 $-1 $92 forward single #
face $-1 $93 $94 $55 $-1 $95 reversed single #
face $-1 $96 $97 $56 $-1 $98 reversed single #
face $-1 $99 $100 $57 $-1 $101 forward single #
face $-1 $102 $103 $58 $-1 $104 forward single #
face $-1 $105 $106 $59 $-1 $107 forward single #
face $-1 $108 $109 $60 $-1 $110 reversed single #
face $-1 $111 $112 $61 $-1 $113 forward single #
face $-1 $114 $115 $62 $-1 $116 forward single #
face $-1 $117 $118 $63 $-1 $119 forward single #
face $-1 $120 $121 $64 $-1 $122 reversed single #
face $-1 $123 $124 $65 $-1 $125 forward single #
face $-1 $126 $127 $66 $-1 $128 forward single #
face $-1 $129 $130 $67 $-1 $131 forward single #
face $-1 $132 $133 $68 $-1 $134 reversed single #
face $-1 $135 $136 $69 $-1 $137 forward single #
face $-1 $138 $139 $70 $-1 $140 forward single #
face $-1 $141 $142 $71 $-1 $143 forward single #
face $-1 $144 $145 $54 $-1 $146 reversed single #
loop $-1 $-1 $147 $72 #
plane-surface $-1 0 0 14.269201931011045 0 0 1 1 0 0 forward_v I I I I #
face $-1 $148 $149 $55 $-1 $150 reversed single #
loop $-1 $-1 $151 $73 #
plane-surface $-1 -34.203612630780924 -20.277355485034033 0 1 0 0 0 0 -1 forward_v I I I I #
face $-1 $152 $153 $56 $-1 $154 reversed single #
loop $-1 $-1 $155 $74 #
plane-surface $-1 -44.069017688346918 28.410243863309812 120.71030052768485 1 0 0 0 -0.50000000669873634 -0.8660253999169214 forward_v I I I I #
face $-1 $156 $157 $57 $-1 $158 forward single #
loop $-1 $159 $160 $75 #
cone-surface $-1 -41.190855110985581 21.232974482657703 9.3925021945537175 0 -0.50000000669873634 -0.8660253999169214 0.5 0 0 1 I I 0 1 0.5 forward I I I I #
face $-1 $161 $162 $58 $-1 $163 forward single #
loop $-1 $164 $165 $76 #
cone-surface $-1 -36.873611244943568 21.232974482657703 9.3925021945537175 0 -0.50000000669873634 -0.8660253999169214 0.5 0 0 1 I I 0 1 0.5 forward I I I I #
face $-1 $166 $167 $59 $-1 $168 forward single #
loop $-1 $169 $170 $77 #
cone-surface $-1 -32.556367378901555 21.232974482657703 9.3925021945537175 0 -0.50000000669873634 -0.8660253999169214 0.5 0 0 1 I I 0 1 0.5 forward I I I I #
face $-1 $171 $172 $60 $-1 $173 reversed single #
loop $-1 $-1 $174 $78 #
plane-surface $-1 -19.222678383558566 28.410243863309812 120.71030052768485 1 0 0 0 -0.50000000669873634 -0.8660253999169214 forward_v I I I I #
face $-1 $175 $176 $61 $-1 $177 forward single #
loop $-1 $178 $179 $79 #
cone-surface $-1 -16.344515806197229 21.232974482657703 9.3925021945537175 0 -0.50000000669873634 -0.8660253999169214 0.5 0 0 1 I I 0 1 0.5 forward I I I I #
face $-1 $180 $181 $62 $-1 $182 forward single #
loop $-1 $183 $184 $80 #
cone-surface $-1 -12.02727194015521 21.232974482657703 9.3925021945537175 0 -0.50000000669873634 -0.8660253999169214 0.5 0 0 1 I I 0 1 0.5 forward I I I I #
face $-1 $185 $186 $63 $-1 $187 forward single #
loop $-1 $188 $189 $81 #
cone-surface $-1 -7.7100280741132039 21.232974482657703 9.3925021945537175 0 -0.50000000669873634 -0.8660253999169214 0.5 0 0 1 I I 0 1 0.5 forward I I I I #
face $-1 $190 $191 $64 $-1 $192 reversed single #
loop $-1 $-1 $193 $82 #
plane-surface $-1 5.6236609212297832 28.410243863309812 120.71030052768485 1 0 0 0 -0.50000000669873634 -0.8660253999169214 forward_v I I I I #
face $-1 $194 $195 $65 $-1 $196 forward single #
loop $-1 $197 $198 $83 #
cone-surface $-1 8.5018234985911292 21.232974482657703 9.3925021945537175 0 -0.50000000669873634 -0.8660253999169214 0.5 0 0 1 I I 0 1 0.5 forward I I I I #
face $-1 $199 $200 $66 $-1 $201 forward single #
loop $-1 $202 $203 $84 #
cone-surface $-1 12.819067364633149 21.232974482657703 9.3925021945537175 0 -0.50000000669873634 -0.8660253999169214 0.5 0 0 1 I I 0 1 0.5 forward I I I I #
face $-1 $204 $205 $67 $-1 $206 forward single #
loop $-1 $207 $208 $85 #
cone-surface $-1 17.136311230675155 21.232974482657703 9.3925021945537175 0 -0.50000000669873634 -0.8660253999169214 0.5 0 0 1 I I 0 1 0.5 forward I I I I #
face $-1 $209 $210 $68 $-1 $211 reversed single #
loop $-1 $-1 $212 $86 #
plane-surface $-1 30.470000226018144 28.410243863309812 120.71030052768485 1 0 0 0 -0.50000000669873634 -0.8660253999169214 forward_v I I I I #
face $-1 $213 $214 $69 $-1 $215 forward single #
loop $-1 $216 $217 $87 #
cone-surface $-1 33.348162803379488 21.232974482657703 9.3925021945537175 0 -0.50000000669873634 -0.8660253999169214 0.5 0 0 1 I I 0 1 0.5 forward I I I I #
face $-1 $218 $219 $70 $-1 $220 forward single #
loop $-1 $221 $222 $88 #
cone-surface $-1 37.665406669421508 21.232974482657703 9.3925021945537175 0 -0.50000000669873634 -0.8660253999169214 0.5 0 0 1 I I 0 1 0.5 forward I I I I #
face $-1 $223 $224 $71 $-1 $225 forward single #
loop $-1 $226 $227 $89 #
cone-surface $-1 41.982650535463513 21.232974482657703 9.3925021945537175 0 -0.50000000669873634 -0.8660253999169214 0.5 0 0 1 I I 0 1 0.5 forward I I I I #
face $-1 $228 $229 $54 $-1 $230 reversed single #
loop $-1 $-1 $231 $90 #
plane-surface $-1 0 0 -14.269201931011045 0 0 1 1 0 0 forward_v I I I I #
coedge $-1 $232 $233 $234 $235 forward $91 $-1 #
face $-1 $236 $237 $55 $-1 $238 reversed single #
loop $-1 $-1 $239 $93 #
plane-surface $-1 -31.172403368987396 -11.482363235657029 0 0 -1 0 0 0 -1 forward_v I I I I #
coedge $-1 $240 $241 $242 $243 forward $94 $-1 #
face $-1 $244 $245 $56 $-1 $246 reversed single #
loop $-1 $-1 $247 $96 #
plane-surface $-1 -36.873611244943568 -21.282435412023201 34.640056796081424 0 0.50000000669873634 0.8660253999169214 1 0 0 forward_v I I I I #
coedge $-1 $248 $249 $250 $251 reversed $97 $-1 #
face $-1 $-1 $252 $57 $-1 $253 forward single #
loop $-1 $254 $255 $99 #
cone-surface $-1 -41.190855110985581 20.804315307628581 8.6500427375354914 0 -0.50000000669873634 -0.8660253999169214 0.25 0 0 1 I I -0.70710678118654746 0.70710678118654746 0.25 forward I I I I #
loop $-1 $-1 $256 $75 #
coedge $-1 $160 $160 $257 $258 reversed $100 $-1 #
face $-1 $-1 $259 $58 $-1 $260 forward single #
loop $-1 $261 $262 $102 #
cone-surface $-1 -36.873611244943568 20.804315307628581 8.6500427375354914 0 -0.50000000669873634 -0.8660253999169214 0.25 0 0 1 I I -0.70710678118654746 0.70710678118654746 0.25 forward I I I I #
loop $-1 $-1 $263 $76 #
coedge $-1 $165 $165 $264 $265 reversed $103 $-1 #
face $-1 $-1 $266 $59 $-1 $267 forward single #
loop $-1 $268 $269 $105 #
cone-surface $-1 -32.556367378901555 20.804315307628581 8.6500427375354914 0 -0.50000000669873634 -0.8660253999169214 0.25 0 0 1 I I -0.70710678118654746 0.70710678118654746 0.25 forward I I I I #
loop $-1 $-1 $270 $77 #
coedge $-1 $170 $170 $271 $272 reversed $106 $-1 #
face $-1 $273 $274 $60 $-1 $275 reversed single #
loop $-1 $-1 $276 $108 #
plane-surface $-1 -12.027271940155217 -21.282435412023201 34.640056796081424 0 0.50000000669873634 0.8660253999169214 1 0 0 forward_v I I I I #
coedge $-1 $277 $278 $279 $280 reversed $109 $-1 #
face $-1 $-1 $281 $61 $-1 $282 forward single #
loop $-1 $283 $284 $111 #
cone-surface $-1 -16.344515806197229 20.804315307628581 8.6500427375354914 0 -0.50000000669873634 -0.8660253999169214 0.25 0 0 1 I I -0.70710678118654746 0.70710678118654746 0.25 forward I I I I #
loop $-1 $-1 $285 $79 #
coedge $-1 $179 $179 $286 $287 reversed $112 $-1 #
face $-1 $-1 $288 $62 $-1 $289 forward single #
loop $-1 $290 $291 $114 #
cone-surface $-1 -12.02727194015521 20.804315307628581 8.6500427375354914 0 -0.50000000669873634 -0.8660253999169214 0.25 0 0 1 I I -0.70710678118654746 0.70710678118654746 0.25 forward I I I I #
loop $-1 $-1 $292 $80 #
coedge $-1 $184 $184 $293 $294 reversed $115 $-1 #
face $-1 $-1 $295 $63 $-1 $296 forward single #
loop $-1 $297 $298 $117 #
cone-surface $-1 -7.7100280741132039 20.804315307628581 8.6500427375354914 0 -0.50000000669873634 -0.8660253999169214 0.25 0 0 1 I I -0.70710678118654746 0.70710678118654746 0.25 forward I I I I #
loop $-1 $-1 $299 $81 #
coedge $-1 $189 $189 $300 $301 reversed $118 $-1 #
face $-1 $302 $303 $64 $-1 $304 reversed single #
loop $-1 $-1 $305 $120 #
plane-surface $-1 12.819067364633135 -21.282435412023201 34.640056796081424 0 0.50000000669873634 0.8660253999169214 1 0 0 forward_v I I I I #
coedge $-1 $306 $307 $308 $309 reversed $121 $-1 #
face $-1 $-1 $310 $65 $-1 $311 forward single #
loop $-1 $312 $313 $123 #
cone-surface $-1 8.5018234985911292 20.804315307628581 8.6500427375354914 0 -0.50000000669873634 -0.8660253999169214 0.25 0 0 1 I I -0.70710678118654746 0.70710678118654746 0.25 forward I I I I #
loop $-1 $-1 $314 $83 #
coedge $-1 $198 $198 $315 $316 reversed $124 $-1 #
face $-1 $-1 $317 $66 $-1 $318 forward single #
loop $-1 $319 $320 $126 #
cone-surface $-1 12.819067364633149 20.804315307628581 8.6500427375354914 0 -0.50000000669873634 -0.8660253999169214 0.25 0 0 1 I I -0.70710678118654746 0.70710678118654746 0.25 forward I I I I #
loop $-1 $-1 $321 $84 #
coedge $-1 $203 $203 $322 $323 reversed $127 $-1 #
face $-1 $-1 $324 $67 $-1 $325 forward single #
loop $-1 $326 $327 $129 #
cone-surface $-1 17.136311230675155 20.804315307628581 8.6500427375354914 0 -0.50000000669873634 -0.8660253999169214 0.25 0 0 1 I I -0.70710678118654746 0.70710678118654746 0.25 forward I I I I #
loop $-1 $-1 $328 $85 #
coedge $-1 $208 $208 $329 $330 reversed $130 $-1 #
face $-1 $331 $332 $68 $-1 $333 reversed single #
loop $-1 $-1 $334 $132 #
plane-surface $-1 37.665406669421493 -21.282435412023201 34.640056796081424 0 0.50000000669873634 0.8660253999169214 1 0 0 forward_v I I I I #
coedge $-1 $335 $336 $337 $338 reversed $133 $-1 #
face $-1 $-1 $339 $69 $-1 $340 forward single #
loop $-1 $341 $342 $135 #
cone-surface $-1 33.348162803379488 20.804315307628581 8.6500427375354914 0 -0.50000000669873634 -0.8660253999169214 0.25 0 0 1 I I -0.70710678118654746 0.70710678118654746 0.25 forward I I I I #
loop $-1 $-1 $343 $87 #
coedge $-1 $217 $217 $344 $345 reversed $136 $-1 #
face $-1 $-1 $346 $70 $-1 $347 forward single #
loop $-1 $348 $349 $138 #
cone-surface $-1 37.665406669421508 20.804315307628581 8.6500427375354914 0 -0.50000000669873634 -0.8660253999169214 0.25 0 0 1 I I -0.70710678118654746 0.70710678118654746 0.25 forward I I I I #
loop $-1 $-1 $350 $88 #
coedge $-1 $222 $222 $351 $352 reversed $139 $-1 #
face $-1 $-1 $353 $71 $-1 $354 forward single #
loop $-1 $355 $356 $141 #
cone-surface $-1 41.982650535463513 20.804315307628581 8.6500427375354914 0 -0.50000000669873634 -0.8660253999169214 0.25 0 0 1 I I -0.70710678118654746 0.70710678118654746 0.25 forward I I I I #
loop $-1 $-1 $357 $89 #
coedge $-1 $227 $227 $358 $359 reversed $142 $-1 #
face $-1 $360 $361 $54 $-1 $362 reversed single #
loop $-1 $-1 $363 $144 #
plane-surface $-1 0 -29.072347734411036 0 0 1 0 0 0 1 forward_v I I I I #
coedge $-1 $364 $365 $366 $367 forward $145 $-1 #
coedge $-1 $368 $147 $369 $370 forward $91 $-1 #
coedge $-1 $147 $368 $371 $372 forward $91 $-1 #
coedge $-1 $373 $374 $147 $235 reversed $375 $-1 #
edge $-1 $376 -29.072347734411036 $377 29.072347734411036 $234 $378 forward 7 unknown #
face $-1 $379 $380 $55 $-1 $381 forward single #
loop $-1 $-1 $382 $148 #
plane-surface $-1 -28.141194107193868 -20.277355485034033 0 -1 0 0 0 0 1 forward_v I I I I #
coedge $-1 $383 $384 $385 $386 forward $149 $-1 #
coedge $-1 $387 $151 $388 $389 reversed $94 $-1 #
coedge $-1 $151 $387 $390 $391 reversed $94 $-1 #
coedge $-1 $384 $383 $151 $243 reversed $149 $-1 #
edge $-1 $392 -14.269201931011045 $393 14.269201931011045 $242 $394 forward 7 unknown #
face $-1 $395 $396 $56 $-1 $397 reversed single #
loop $-1 $-1 $398 $152 #
plane-surface $-1 -29.678204801540218 28.410243863309812 120.71030052768485 -1 0 0 0 0.50000000669873634 0.8660253999169214 forward_v I I I I #
coedge $-1 $399 $400 $401 $402 reversed $153 $-1 #
coedge $-1 $249 $155 $403 $404 reversed $97 $-1 #
coedge $-1 $155 $248 $399 $405 reversed $97 $-1 #
coedge $-1 $401 $406 $155 $251 forward $407 $-1 #
edge $-1 $408 -14.867225802756129 $409 0.20420235404162135 $250 $410 forward 7 unknown #
loop $-1 $-1 $257 $156 #
plane-surface $-1 -36.873611244943568 -21.282435412023201 34.640056796081424 0 0.50000000669873634 0.8660253999169214 1 0 0 forward_v I I I I #
loop $-1 $-1 $411 $99 #
coedge $-1 $255 $255 $256 $412 reversed $157 $-1 #
coedge $-1 $256 $256 $255 $412 forward $159 $-1 #
coedge $-1 $257 $257 $160 $258 forward $252 $-1 #
edge $-1 $413 4.6321975147451288e-015 $413 6.2831853071796049 $257 $414 forward 7 unknown #
loop $-1 $-1 $264 $161 #
plane-surface $-1 -36.873611244943568 -21.282435412023201 34.640056796081424 0 0.50000000669873634 0.8660253999169214 1 0 0 forward_v I I I I #
loop $-1 $-1 $415 $102 #
coedge $-1 $262 $262 $263 $416 reversed $162 $-1 #
coedge $-1 $263 $263 $262 $416 forward $164 $-1 #
coedge $-1 $264 $264 $165 $265 forward $259 $-1 #
edge $-1 $417 4.6321975147451288e-015 $417 6.2831853071796049 $264 $418 forward 7 unknown #
loop $-1 $-1 $271 $166 #
plane-surface $-1 -36.873611244943568 -21.282435412023201 34.640056796081424 0 0.50000000669873634 0.8660253999169214 1 0 0 forward_v I I I I #
loop $-1 $-1 $419 $105 #
coedge $-1 $269 $269 $270 $420 reversed $167 $-1 #
coedge $-1 $270 $270 $269 $420 forward $169 $-1 #
coedge $-1 $271 $271 $170 $272 forward $266 $-1 #
edge $-1 $421 4.6321975147451288e-015 $421 6.2831853071796049 $271 $422 forward 7 unknown #
face $-1 $423 $424 $60 $-1 $425 forward single #
loop $-1 $-1 $426 $171 #
plane-surface $-1 -4.8318654967518651 28.410243863309812 120.71030052768485 -1 0 0 0 0.50000000669873634 0.8660253999169214 forward_v I I I I #
coedge $-1 $427 $428 $429 $430 reversed $172 $-1 #
coedge $-1 $278 $174 $431 $432 reversed $109 $-1 #
coedge $-1 $174 $277 $427 $433 reversed $109 $-1 #
coedge $-1 $429 $434 $174 $280 forward $424 $-1 #
edge $-1 $435 -14.867225802756129 $436 0.20420235404162135 $279 $437 forward 7 unknown #
loop $-1 $-1 $286 $175 #
plane-surface $-1 -12.027271940155217 -21.282435412023201 34.640056796081424 0 0.50000000669873634 0.8660253999169214 1 0 0 forward_v I I I I #
loop $-1 $-1 $438 $111 #
coedge $-1 $284 $284 $285 $439 reversed $176 $-1 #
coedge $-1 $285 $285 $284 $439 forward $178 $-1 #
coedge $-1 $286 $286 $179 $287 forward $281 $-1 #
edge $-1 $440 4.6321975147451288e-015 $440 6.2831853071796049 $286 $441 forward 7 unknown #
loop $-1 $-1 $293 $180 #
plane-surface $-1 -12.027271940155217 -21.282435412023201 34.640056796081424 0 0.50000000669873634 0.8660253999169214 1 0 0 forward_v I I I I #
loop $-1 $-1 $442 $114 #
coedge $-1 $291 $291 $292 $443 reversed $181 $-1 #
coedge $-1 $292 $292 $291 $443 forward $183 $-1 #
coedge $-1 $293 $293 $184 $294 forward $288 $-1 #
edge $-1 $444 4.6321975147451288e-015 $444 6.2831853071796049 $293 $445 forward 7 unknown #
loop $-1 $-1 $300 $185 #
plane-surface $-1 -12.027271940155217 -21.282435412023201 34.640056796081424 0 0.50000000669873634 0.8660253999169214 1 0 0 forward_v I I I I #
loop $-1 $-1 $446 $117 #
coedge $-1 $298 $298 $299 $447 reversed $186 $-1 #
coedge $-1 $299 $299 $298 $447 forward $188 $-1 #
coedge $-1 $300 $300 $189 $301 forward $295 $-1 #
edge $-1 $448 4.6321975147451288e-015 $448 6.2831853071796049 $300 $449 forward 7 unknown #
face $-1 $450 $451 $64 $-1 $452 forward single #
loop $-1 $-1 $453 $190 #
plane-surface $-1 20.014473808036485 28.410243863309812 120.71030052768485 -1 0 0 0 0.50000000669873634 0.8660253999169214 forward_v I I I I #
coedge $-1 $454 $455 $456 $457 reversed $191 $-1 #
coedge $-1 $307 $193 $458 $459 reversed $121 $-1 #
coedge $-1 $193 $306 $454 $460 reversed $121 $-1 #
coedge $-1 $456 $461 $193 $309 forward $451 $-1 #
edge $-1 $462 -14.867225802756129 $463 0.20420235404162135 $308 $464 forward 7 unknown #
loop $-1 $-1 $315 $194 #
plane-surface $-1 12.819067364633135 -21.282435412023201 34.640056796081424 0 0.50000000669873634 0.8660253999169214 1 0 0 forward_v I I I I #
loop $-1 $-1 $465 $123 #
coedge $-1 $313 $313 $314 $466 reversed $195 $-1 #
coedge $-1 $314 $314 $313 $466 forward $197 $-1 #
coedge $-1 $315 $315 $198 $316 forward $310 $-1 #
edge $-1 $467 4.6321975147451288e-015 $467 6.2831853071796049 $315 $468 forward 7 unknown #
loop $-1 $-1 $322 $199 #
plane-surface $-1 12.819067364633135 -21.282435412023201 34.640056796081424 0 0.50000000669873634 0.8660253999169214 1 0 0 forward_v I I I I #
loop $-1 $-1 $469 $126 #
coedge $-1 $320 $320 $321 $470 reversed $200 $-1 #
coedge $-1 $321 $321 $320 $470 forward $202 $-1 #
coedge $-1 $322 $322 $203 $323 forward $317 $-1 #
edge $-1 $471 4.6321975147451288e-015 $471 6.2831853071796049 $322 $472 forward 7 unknown #
loop $-1 $-1 $329 $204 #
plane-surface $-1 12.819067364633135 -21.282435412023201 34.640056796081424 0 0.50000000669873634 0.8660253999169214 1 0 0 forward_v I I I I #
loop $-1 $-1 $473 $129 #
coedge $-1 $327 $327 $328 $474 reversed $205 $-1 #
coedge $-1 $328 $328 $327 $474 forward $207 $-1 #
coedge $-1 $329 $329 $208 $330 forward $324 $-1 #
edge $-1 $475 4.6321975147451288e-015 $475 6.2831853071796049 $329 $476 forward 7 unknown #
face $-1 $477 $478 $68 $-1 $479 forward single #
loop $-1 $-1 $480 $209 #
plane-surface $-1 44.860813112824843 28.410243863309812 120.71030052768485 -1 0 0 0 0.50000000669873634 0.8660253999169214 forward_v I I I I #
coedge $-1 $481 $482 $483 $484 reversed $210 $-1 #
coedge $-1 $336 $212 $485 $486 reversed $133 $-1 #
coedge $-1 $212 $335 $481 $487 reversed $133 $-1 #
coedge $-1 $483 $488 $212 $338 forward $478 $-1 #
edge $-1 $489 -14.867225802756129 $490 0.20420235404162135 $337 $491 forward 7 unknown #
loop $-1 $-1 $344 $213 #
plane-surface $-1 37.665406669421493 -21.282435412023201 34.640056796081424 0 0.50000000669873634 0.8660253999169214 1 0 0 forward_v I I I I #
loop $-1 $-1 $492 $135 #
coedge $-1 $342 $342 $343 $493 reversed $214 $-1 #
coedge $-1 $343 $343 $342 $493 forward $216 $-1 #
coedge $-1 $344 $344 $217 $345 forward $339 $-1 #
edge $-1 $494 4.6321975147451288e-015 $494 6.2831853071796049 $344 $495 forward 7 unknown #
loop $-1 $-1 $351 $218 #
plane-surface $-1 37.665406669421493 -21.282435412023201 34.640056796081424 0 0.50000000669873634 0.8660253999169214 1 0 0 forward_v I I I I #
loop $-1 $-1 $496 $138 #
coedge $-1 $349 $349 $350 $497 reversed $219 $-1 #
coedge $-1 $350 $350 $349 $497 forward $221 $-1 #
coedge $-1 $351 $351 $222 $352 forward $346 $-1 #
edge $-1 $498 4.6321975147451288e-015 $498 6.2831853071796049 $351 $499 forward 7 unknown #
loop $-1 $-1 $358 $223 #
plane-surface $-1 37.665406669421493 -21.282435412023201 34.640056796081424 0 0.50000000669873634 0.8660253999169214 1 0 0 forward_v I I I I #
loop $-1 $-1 $500 $141 #
coedge $-1 $356 $356 $357 $501 reversed $224 $-1 #
coedge $-1 $357 $357 $356 $501 forward $226 $-1 #
coedge $-1 $358 $358 $227 $359 forward $353 $-1 #
edge $-1 $502 4.6321975147451288e-015 $502 6.2831853071796049 $358 $503 forward 7 unknown #
face $-1 $504 $505 $54 $-1 $506 reversed single #
loop $-1 $-1 $507 $228 #
plane-surface $-1 -49.69267860957671 0 0 1 0 0 0 0 -1 forward_v I I I I #
coedge $-1 $508 $371 $509 $510 forward $229 $-1 #
coedge $-1 $511 $231 $508 $512 forward $145 $-1 #
coedge $-1 $231 $511 $513 $514 forward $145 $-1 #
coedge $-1 $374 $373 $231 $367 reversed $375 $-1 #
edge $-1 $515 -29.072347734411036 $516 29.072347734411036 $366 $517 forward 7 unknown #
coedge $-1 $233 $232 $518 $519 forward $91 $-1 #
coedge $-1 $520 $521 $232 $370 reversed $505 $-1 #
edge $-1 $377 -49.69267860957671 $522 49.69267860957671 $369 $523 forward 7 unknown #
coedge $-1 $363 $524 $233 $372 reversed $229 $-1 #
edge $-1 $525 -49.69267860957671 $376 49.69267860957671 $371 $526 forward 7 unknown #
coedge $-1 $366 $234 $524 $527 forward $375 $-1 #
coedge $-1 $234 $366 $520 $528 reversed $375 $-1 #
loop $-1 $-1 $373 $504 #
vertex $-1 $235 $529 #
vertex $-1 $235 $530 #
straight-curve $-1 49.69267860957671 0 14.269201931011045 0 1 0 I I #
face $-1 $531 $532 $55 $-1 $533 reversed single #
loop $-1 $-1 $534 $236 #
plane-surface $-1 0 0 14.269201931011045 0 0 1 1 0 0 forward_v I I I I #
coedge $-1 $535 $536 $537 $538 reversed $237 $-1 #
coedge $-1 $242 $239 $539 $540 reversed $149 $-1 #
coedge $-1 $239 $242 $541 $542 reversed $149 $-1 #
coedge $-1 $536 $535 $239 $386 reversed $237 $-1 #
edge $-1 $543 -14.269201931011045 $544 14.269201931011045 $385 $545 forward 7 unknown #
coedge $-1 $241 $240 $546 $547 reversed $94 $-1 #
coedge $-1 $539 $548 $240 $389 forward $532 $-1 #
edge $-1 $549 -18.933669991894021 $393 -1.3436854931400131 $388 $550 forward 7 unknown #
coedge $-1 $551 $541 $241 $391 forward $380 $-1 #
edge $-1 $392 1.3436854931400131 $552 18.933669991894021 $390 $553 forward 7 unknown #
vertex $-1 $391 $554 #
vertex $-1 $389 $555 #
straight-curve $-1 -34.203612630780924 -11.482363235657029 0 0 0 -1 I I #
face $-1 $-1 $407 $56 $-1 $556 forward single #
loop $-1 $-1 $557 $244 #
plane-surface $-1 0 29.072347734411036 0 0 -1 0 0 0 -1 forward_v I I I I #
coedge $-1 $558 $559 $560 $561 reversed $245 $-1 #
coedge $-1 $562 $247 $249 $405 forward $153 $-1 #
coedge $-1 $247 $562 $558 $563 forward $153 $-1 #
coedge $-1 $560 $250 $247 $402 forward $407 $-1 #
edge $-1 $409 -25.632212065875134 $564 -11.241399179068434 $401 $565 forward 7 unknown #
coedge $-1 $566 $567 $248 $404 forward $396 $-1 #
edge $-1 $568 -54.787441591668014 $408 -46.085948332831379 $403 $569 forward 7 unknown #
edge $-1 $409 40.741709184304817 $568 58.144695468822064 $249 $570 forward 7 unknown #
coedge $-1 $250 $560 $566 $571 forward $407 $-1 #
loop $-1 $-1 $560 $395 #
vertex $-1 $404 $572 #
vertex $-1 $251 $573 #
straight-curve $-1 -44.069017688346918 14.205121931654906 14.269201931011047 0 -1 0 I I #
coedge $-1 $411 $411 $-1 $574 reversed $254 $-1 #
edge $-1 $575 0 $575 6.2831853071796004 $255 $576 forward 7 unknown #
vertex $-1 $258 $577 #
ellipse-curve $-1 -41.190855110985581 21.536633656012153 9.9184553015927346 0 0.50000000669873634 0.8660253999169214 0.5 0 0 1 I I #
coedge $-1 $415 $415 $-1 $578 reversed $261 $-1 #
edge $-1 $579 0 $579 6.2831853071796004 $262 $580 forward 7 unknown #
vertex $-1 $265 $581 #
ellipse-curve $-1 -36.873611244943568 21.536633656012153 9.9184553015927346 0 0.50000000669873634 0.8660253999169214 0.5 0 0 1 I I #
coedge $-1 $419 $419 $-1 $582 reversed $268 $-1 #
edge $-1 $583 0 $583 6.2831853071796004 $269 $584 forward 7 unknown #
vertex $-1 $272 $585 #
ellipse-curve $-1 -32.556367378901555 21.536633656012153 9.9184553015927346 0 0.50000000669873634 0.8660253999169214 0.5 0 0 1 I I #
face $-1 $-1 $586 $60 $-1 $587 reversed single #
loop $-1 $-1 $279 $273 #
plane-surface $-1 0 0 14.269201931011045 0 0 1 1 0 0 forward_v I I I I #
coedge $-1 $588 $589 $590 $591 reversed $274 $-1 #
coedge $-1 $592 $276 $278 $433 forward $172 $-1 #
coedge $-1 $276 $592 $588 $593 forward $172 $-1 #
coedge $-1 $590 $279 $276 $430 forward $424 $-1 #
edge $-1 $436 -13.209042413480958 $594 1.1817704733257433 $429 $595 forward 7 unknown #
coedge $-1 $596 $597 $277 $432 forward $586 $-1 #
edge $-1 $598 -54.787441591668014 $435 -46.085948332831379 $431 $599 forward 7 unknown #
edge $-1 $436 40.741709184304817 $598 58.144695468822064 $278 $600 forward 7 unknown #
coedge $-1 $279 $590 $596 $601 forward $424 $-1 #
vertex $-1 $432 $602 #
vertex $-1 $280 $603 #
straight-curve $-1 -19.222678383558566 14.205121931654906 14.269201931011047 0 -1 0 I I #
coedge $-1 $438 $438 $-1 $604 reversed $283 $-1 #
edge $-1 $605 0 $605 6.2831853071796004 $284 $606 forward 7 unknown #
vertex $-1 $287 $607 #
ellipse-curve $-1 -16.344515806197229 21.536633656012153 9.9184553015927346 0 0.50000000669873634 0.8660253999169214 0.5 0 0 1 I I #
coedge $-1 $442 $442 $-1 $608 reversed $290 $-1 #
edge $-1 $609 0 $609 6.2831853071796004 $291 $610 forward 7 unknown #
vertex $-1 $294 $611 #
ellipse-curve $-1 -12.02727194015521 21.536633656012153 9.9184553015927346 0 0.50000000669873634 0.8660253999169214 0.5 0 0 1 I I #
coedge $-1 $446 $446 $-1 $612 reversed $297 $-1 #
edge $-1 $613 0 $613 6.2831853071796004 $298 $614 forward 7 unknown #
vertex $-1 $301 $615 #
ellipse-curve $-1 -7.7100280741132039 21.536633656012153 9.9184553015927346 0 0.50000000669873634 0.8660253999169214 0.5 0 0 1 I I #
face $-1 $-1 $616 $64 $-1 $617 reversed single #
loop $-1 $-1 $308 $302 #
plane-surface $-1 0 0 14.269201931011045 0 0 1 1 0 0 forward_v I I I I #
coedge $-1 $618 $619 $620 $621 reversed $303 $-1 #
coedge $-1 $622 $305 $307 $460 forward $191 $-1 #
coedge $-1 $305 $622 $618 $623 forward $191 $-1 #
coedge $-1 $620 $308 $305 $457 forward $451 $-1 #
edge $-1 $463 -0.78587276108678417 $624 13.604940125719917 $456 $625 forward 7 unknown #
coedge $-1 $626 $627 $306 $459 forward $616 $-1 #
edge $-1 $628 -54.787441591668014 $462 -46.085948332831379 $458 $629 forward 7 unknown #
edge $-1 $463 40.741709184304817 $628 58.144695468822064 $307 $630 forward 7 unknown #
coedge $-1 $308 $620 $626 $631 forward $451 $-1 #
vertex $-1 $309 $632 #
vertex $-1 $309 $633 #
straight-curve $-1 5.6236609212297832 14.205121931654906 14.269201931011047 0 -1 0 I I #
coedge $-1 $465 $465 $-1 $634 reversed $312 $-1 #
edge $-1 $635 0 $635 6.2831853071796004 $313 $636 forward 7 unknown #
vertex $-1 $316 $637 #
ellipse-curve $-1 8.5018234985911292 21.536633656012153 9.9184553015927346 0 0.50000000669873634 0.8660253999169214 0.5 0 0 1 I I #
coedge $-1 $469 $469 $-1 $638 reversed $319 $-1 #
edge $-1 $639 0 $639 6.2831853071796004 $320 $640 forward 7 unknown #
vertex $-1 $323 $641 #
ellipse-curve $-1 12.819067364633149 21.536633656012153 9.9184553015927346 0 0.50000000669873634 0.8660253999169214 0.5 0 0 1 I I #
coedge $-1 $473 $473 $-1 $642 reversed $326 $-1 #
edge $-1 $643 0 $643 6.2831853071796004 $327 $644 forward 7 unknown #
vertex $-1 $330 $645 #
ellipse-curve $-1 17.136311230675155 21.536633656012153 9.9184553015927346 0 0.50000000669873634 0.8660253999169214 0.5 0 0 1 I I #
face $-1 $-1 $646 $68 $-1 $647 reversed single #
loop $-1 $-1 $337 $331 #
plane-surface $-1 0 0 14.269201931011045 0 0 1 1 0 0 forward_v I I I I #
coedge $-1 $648 $649 $650 $651 reversed $332 $-1 #
coedge $-1 $652 $334 $336 $487 forward $210 $-1 #
coedge $-1 $334 $652 $648 $653 forward $210 $-1 #
coedge $-1 $650 $337 $334 $484 forward $478 $-1 #
edge $-1 $490 11.637296891307397 $654 26.028109778114096 $483 $655 forward 7 unknown #
coedge $-1 $656 $657 $335 $486 forward $646 $-1 #
edge $-1 $658 -54.787441591668014 $489 -46.085948332831379 $485 $659 forward 7 unknown #
edge $-1 $490 40.741709184304817 $658 58.144695468822064 $336 $660 forward 7 unknown #
coedge $-1 $337 $650 $656 $661 forward $478 $-1 #
vertex $-1 $338 $662 #
vertex $-1 $338 $663 #
straight-curve $-1 30.470000226018144 14.205121931654906 14.269201931011047 0 -1 0 I I #
coedge $-1 $492 $492 $-1 $664 reversed $341 $-1 #
edge $-1 $665 0 $665 6.2831853071796004 $342 $666 forward 7 unknown #
vertex $-1 $345 $667 #
ellipse-curve $-1 33.348162803379488 21.536633656012153 9.9184553015927346 0 0.50000000669873634 0.8660253999169214 0.5 0 0 1 I I #
coedge $-1 $496 $496 $-1 $668 reversed $348 $-1 #
edge $-1 $669 0 $669 6.2831853071796004 $349 $670 forward 7 unknown #
vertex $-1 $352 $671 #
ellipse-curve $-1 37.665406669421508 21.536633656012153 9.9184553015927346 0 0.50000000669873634 0.8660253999169214 0.5 0 0 1 I I #
coedge $-1 $500 $500 $-1 $672 reversed $355 $-1 #
edge $-1 $673 0 $673 6.2831853071796004 $356 $674 forward 7 unknown #
vertex $-1 $359 $675 #
ellipse-curve $-1 41.982650535463513 21.536633656012153 9.9184553015927346 0 0.50000000669873634 0.8660253999169214 0.5 0 0 1 I I #
face $-1 $-1 $375 $54 $-1 $676 reversed single #
loop $-1 $-1 $520 $360 #
plane-surface $-1 0 29.072347734411036 0 0 -1 0 0 0 -1 forward_v I I I I #
coedge $-1 $677 $518 $521 $678 forward $361 $-1 #
coedge $-1 $524 $363 $364 $512 reversed $229 $-1 #
coedge $-1 $518 $677 $363 $510 reversed $361 $-1 #
edge $-1 $525 -14.269201931011045 $679 14.269201931011045 $509 $680 forward 7 unknown #
coedge $-1 $365 $364 $677 $681 forward $145 $-1 #
edge $-1 $516 -49.69267860957671 $679 49.69267860957671 $508 $682 forward 7 unknown #
coedge $-1 $521 $520 $365 $514 reversed $505 $-1 #
edge $-1 $683 -49.69267860957671 $515 49.69267860957671 $513 $684 forward 7 unknown #
vertex $-1 $367 $685 #
vertex $-1 $527 $686 #
straight-curve $-1 49.69267860957671 0 -14.269201931011045 0 -1 0 I I #
coedge $-1 $507 $509 $368 $519 reversed $361 $-1 #
edge $-1 $522 -29.072347734411036 $525 29.072347734411036 $518 $687 forward 7 unknown #
coedge $-1 $513 $369 $374 $528 forward $505 $-1 #
coedge $-1 $369 $513 $507 $678 reversed $505 $-1 #
vertex $-1 $370 $688 #
straight-curve $-1 0 29.072347734411036 14.269201931011045 -1 0 0 I I #
coedge $-1 $371 $508 $373 $527 reversed $229 $-1 #
vertex $-1 $519 $689 #
straight-curve $-1 0 -29.072347734411036 14.269201931011045 1 0 0 I I #
edge $-1 $376 -14.269201931011045 $516 14.269201931011045 $373 $690 forward 7 unknown #
edge $-1 $377 -14.269201931011045 $515 14.269201931011045 $374 $691 forward 7 unknown #
point $-1 49.69267860957671 -29.072347734411036 14.269201931011045 #
point $-1 49.69267860957671 29.072347734411036 14.269201931011045 #
face $-1 $-1 $692 $55 $-1 $693 reversed single #
loop $-1 $-1 $694 $379 #
plane-surface $-1 0 0 -14.269201931011045 0 0 1 1 0 0 forward_v I I I I #
coedge $-1 $541 $551 $536 $695 forward $380 $-1 #
coedge $-1 $385 $382 $694 $696 reversed $237 $-1 #
coedge $-1 $382 $385 $534 $695 reversed $237 $-1 #
coedge $-1 $697 $698 $382 $538 forward $692 $-1 #
edge $-1 $699 -14.269201931011045 $700 14.269201931011045 $537 $701 forward 7 unknown #
coedge $-1 $694 $388 $383 $540 forward $532 $-1 #
edge $-1 $393 -18.617410946287226 $544 -12.55499242270017 $539 $702 forward 7 unknown #
coedge $-1 $390 $534 $384 $542 forward $380 $-1 #
edge $-1 $543 12.55499242270017 $392 18.617410946287226 $541 $703 forward 7 unknown #
vertex $-1 $542 $704 #
vertex $-1 $540 $705 #
straight-curve $-1 -28.141194107193868 -11.482363235657029 0 0 0 -1 I I #
coedge $-1 $698 $697 $387 $547 forward $692 $-1 #
edge $-1 $552 -14.269201931011045 $549 14.269201931011045 $546 $706 forward 7 unknown #
coedge $-1 $388 $694 $698 $707 forward $532 $-1 #
vertex $-1 $389 $708 #
straight-curve $-1 -34.203612630780924 -10.138677742517016 -14.269201931011045 0 1 0 I I #
coedge $-1 $534 $390 $697 $709 forward $380 $-1 #
vertex $-1 $709 $710 #
straight-curve $-1 -34.203612630780924 -10.138677742517016 14.269201931011045 0 -1 0 I I #
point $-1 -34.203612630780924 -11.482363235657029 14.269201931011045 #
point $-1 -34.203612630780924 -11.482363235657029 -14.269201931011045 #
plane-surface $-1 0 0 14.269201931011045 0 0 1 1 0 0 forward_v I I I I #
coedge $-1 $567 $566 $559 $711 forward $396 $-1 #
coedge $-1 $559 $398 $400 $563 reversed $245 $-1 #
coedge $-1 $398 $558 $557 $711 reversed $245 $-1 #
coedge $-1 $406 $401 $398 $561 forward $407 $-1 #
edge $-1 $564 -0.20420235404162135 $712 14.867225802756129 $560 $713 forward 7 unknown #
coedge $-1 $400 $399 $567 $714 reversed $153 $-1 #
edge $-1 $715 -58.144695468822064 $564 -40.741709184304817 $558 $716 forward 7 unknown #
vertex $-1 $402 $717 #
straight-curve $-1 -18.436805622471784 14.000919577613287 14.269201931011047 1 0 0 I I #
coedge $-1 $557 $403 $406 $571 reversed $396 $-1 #
coedge $-1 $403 $557 $562 $714 forward $396 $-1 #
vertex $-1 $404 $718 #
straight-curve $-1 -44.069017688346918 29.072347734411036 60.355150263842425 0 0 1 I I #
straight-curve $-1 -44.069017688346918 -21.282435412023201 34.640056796081424 0 0.8660253999169214 -0.50000000669873634 I I #
edge $-1 $712 29.678204801540218 $408 44.069017688346918 $566 $719 forward 7 unknown #
point $-1 -44.069017688346918 29.072347734411036 14.269201931011045 #
point $-1 -44.069017688346918 14.000919577613285 14.269201931011047 #
edge $-1 $720 1 $720 0 $411 $-1 forward 7 unknown #
vertex $-1 $412 $721 #
ellipse-curve $-1 -41.190855110985581 20.929315309303266 8.8665490875147217 0 0.50000000669873634 0.8660253999169214 0.5 0 0 1 I I #
point $-1 -40.690855110985581 21.536633656012143 9.9184553015927115 #
edge $-1 $722 1 $722 0 $415 $-1 forward 7 unknown #
vertex $-1 $416 $723 #
ellipse-curve $-1 -36.873611244943568 20.929315309303266 8.8665490875147217 0 0.50000000669873634 0.8660253999169214 0.5 0 0 1 I I #
point $-1 -36.373611244943568 21.536633656012143 9.9184553015927115 #
edge $-1 $724 1 $724 0 $419 $-1 forward 7 unknown #
vertex $-1 $420 $725 #
ellipse-curve $-1 -32.556367378901555 20.929315309303266 8.8665490875147217 0 0.50000000669873634 0.8660253999169214 0.5 0 0 1 I I #
point $-1 -32.056367378901555 21.536633656012143 9.9184553015927115 #
loop $-1 $-1 $431 $423 #
plane-surface $-1 0 29.072347734411036 0 0 -1 0 0 0 -1 forward_v I I I I #
coedge $-1 $589 $426 $428 $593 reversed $274 $-1 #
coedge $-1 $426 $588 $726 $727 reversed $274 $-1 #
coedge $-1 $434 $429 $426 $591 forward $424 $-1 #
edge $-1 $594 -0.20420235404162135 $728 14.867225802756129 $590 $729 forward 7 unknown #
coedge $-1 $428 $427 $597 $730 reversed $172 $-1 #
edge $-1 $731 -58.144695468822064 $594 -40.741709184304817 $588 $732 forward 7 unknown #
vertex $-1 $430 $733 #
straight-curve $-1 -6.0136359700776083 14.000919577613287 14.269201931011047 1 0 0 I I #
coedge $-1 $726 $431 $434 $601 reversed $586 $-1 #
coedge $-1 $431 $726 $592 $730 forward $586 $-1 #
vertex $-1 $432 $734 #
straight-curve $-1 -19.222678383558566 29.072347734411036 60.355150263842425 0 0 1 I I #
straight-curve $-1 -19.222678383558566 -21.282435412023201 34.640056796081424 0 0.8660253999169214 -0.50000000669873634 I I #
edge $-1 $728 4.8318654967518651 $435 19.222678383558566 $596 $735 forward 7 unknown #
point $-1 -19.222678383558566 29.072347734411036 14.269201931011045 #
point $-1 -19.222678383558566 14.000919577613285 14.269201931011047 #
edge $-1 $736 1 $736 0 $438 $-1 forward 7 unknown #
vertex $-1 $439 $737 #
ellipse-curve $-1 -16.344515806197229 20.929315309303266 8.8665490875147217 0 0.50000000669873634 0.8660253999169214 0.5 0 0 1 I I #
point $-1 -15.844515806197229 21.536633656012143 9.9184553015927115 #
edge $-1 $738 1 $738 0 $442 $-1 forward 7 unknown #
vertex $-1 $443 $739 #
ellipse-curve $-1 -12.02727194015521 20.929315309303266 8.8665490875147217 0 0.50000000669873634 0.8660253999169214 0.5 0 0 1 I I #
point $-1 -11.52727194015521 21.536633656012143 9.9184553015927115 #
edge $-1 $740 1 $740 0 $446 $-1 forward 7 unknown #
vertex $-1 $447 $741 #
ellipse-curve $-1 -7.7100280741132039 20.929315309303266 8.8665490875147217 0 0.50000000669873634 0.8660253999169214 0.5 0 0 1 I I #
point $-1 -7.2100280741132039 21.536633656012143 9.9184553015927115 #
loop $-1 $-1 $458 $450 #
plane-surface $-1 0 29.072347734411036 0 0 -1 0 0 0 -1 forward_v I I I I #
coedge $-1 $619 $453 $455 $623 reversed $303 $-1 #
coedge $-1 $453 $618 $742 $743 reversed $303 $-1 #
coedge $-1 $461 $456 $453 $621 forward $451 $-1 #
edge $-1 $624 -0.20420235404162135 $744 14.867225802756129 $620 $745 forward 7 unknown #
coedge $-1 $455 $454 $627 $746 reversed $191 $-1 #
edge $-1 $747 -58.144695468822064 $624 -40.741709184304817 $618 $748 forward 7 unknown #
vertex $-1 $457 $749 #
straight-curve $-1 6.4095336823165674 14.000919577613287 14.269201931011047 1 0 0 I I #
coedge $-1 $742 $458 $461 $631 reversed $616 $-1 #
coedge $-1 $458 $742 $622 $746 forward $616 $-1 #
vertex $-1 $459 $750 #
straight-curve $-1 5.6236609212297832 29.072347734411036 60.355150263842425 0 0 1 I I #
straight-curve $-1 5.6236609212297832 -21.282435412023201 34.640056796081424 0 0.8660253999169214 -0.50000000669873634 I I #
edge $-1 $744 -20.014473808036485 $462 -5.6236609212297832 $626 $751 forward 7 unknown #
point $-1 5.6236609212297832 29.072347734411036 14.269201931011045 #
point $-1 5.6236609212297832 14.000919577613285 14.269201931011047 #
edge $-1 $752 1 $752 0 $465 $-1 forward 7 unknown #
vertex $-1 $466 $753 #
ellipse-curve $-1 8.5018234985911292 20.929315309303266 8.8665490875147217 0 0.50000000669873634 0.8660253999169214 0.5 0 0 1 I I #
point $-1 9.0018234985911292 21.536633656012143 9.9184553015927115 #
edge $-1 $754 1 $754 0 $469 $-1 forward 7 unknown #
vertex $-1 $470 $755 #
ellipse-curve $-1 12.819067364633149 20.929315309303266 8.8665490875147217 0 0.50000000669873634 0.8660253999169214 0.5 0 0 1 I I #
point $-1 13.319067364633149 21.536633656012143 9.9184553015927115 #
edge $-1 $756 1 $756 0 $473 $-1 forward 7 unknown #
vertex $-1 $474 $757 #
ellipse-curve $-1 17.136311230675155 20.929315309303266 8.8665490875147217 0 0.50000000669873634 0.8660253999169214 0.5 0 0 1 I I #
point $-1 17.636311230675155 21.536633656012143 9.9184553015927115 #
loop $-1 $-1 $485 $477 #
plane-surface $-1 0 29.072347734411036 0 0 -1 0 0 0 -1 forward_v I I I I #
coedge $-1 $649 $480 $482 $653 reversed $332 $-1 #
coedge $-1 $480 $648 $758 $759 reversed $332 $-1 #
coedge $-1 $488 $483 $480 $651 forward $478 $-1 #
edge $-1 $654 -0.20420235404162135 $760 14.867225802756129 $650 $761 forward 7 unknown #
coedge $-1 $482 $481 $657 $762 reversed $210 $-1 #
edge $-1 $763 -58.144695468822064 $654 -40.741709184304817 $648 $764 forward 7 unknown #
vertex $-1 $484 $765 #
straight-curve $-1 18.832703334710747 14.000919577613287 14.269201931011047 1 0 0 I I #
coedge $-1 $758 $485 $488 $661 reversed $646 $-1 #
coedge $-1 $485 $758 $652 $762 forward $646 $-1 #
vertex $-1 $486 $766 #
straight-curve $-1 30.470000226018144 29.072347734411036 60.355150263842425 0 0 1 I I #
straight-curve $-1 30.470000226018144 -21.282435412023201 34.640056796081424 0 0.8660253999169214 -0.50000000669873634 I I #
edge $-1 $760 -44.860813112824843 $489 -30.470000226018144 $656 $767 forward 7 unknown #
point $-1 30.470000226018144 29.072347734411036 14.269201931011045 #
point $-1 30.470000226018144 14.000919577613285 14.269201931011047 #
edge $-1 $768 1 $768 0 $492 $-1 forward 7 unknown #
vertex $-1 $493 $769 #
ellipse-curve $-1 33.348162803379488 20.929315309303266 8.8665490875147217 0 0.50000000669873634 0.8660253999169214 0.5 0 0 1 I I #
point $-1 33.848162803379488 21.536633656012143 9.9184553015927115 #
edge $-1 $770 1 $770 0 $496 $-1 forward 7 unknown #
vertex $-1 $497 $771 #
ellipse-curve $-1 37.665406669421508 20.929315309303266 8.8665490875147217 0 0.50000000669873634 0.8660253999169214 0.5 0 0 1 I I #
point $-1 38.165406669421508 21.536633656012143 9.9184553015927115 #
edge $-1 $772 1 $772 0 $500 $-1 forward 7 unknown #
vertex $-1 $501 $773 #
ellipse-curve $-1 41.982650535463513 20.929315309303266 8.8665490875147217 0 0.50000000669873634 0.8660253999169214 0.5 0 0 1 I I #
point $-1 42.482650535463513 21.536633656012143 9.9184553015927115 #
plane-surface $-1 49.69267860957671 0 0 -1 0 0 0 0 1 forward_v I I I I #
coedge $-1 $509 $507 $511 $681 reversed $361 $-1 #
edge $-1 $522 -14.269201931011045 $683 14.269201931011045 $521 $774 forward 7 unknown #
vertex $-1 $681 $775 #
straight-curve $-1 -49.69267860957671 -29.072347734411036 0 0 0 -1 I I #
edge $-1 $679 -29.072347734411036 $683 29.072347734411036 $677 $776 forward 7 unknown #
straight-curve $-1 0 -29.072347734411036 -14.269201931011045 -1 0 0 I I #
vertex $-1 $514 $777 #
straight-curve $-1 0 29.072347734411036 -14.269201931011045 1 0 0 I I #
point $-1 49.69267860957671 29.072347734411036 -14.269201931011045 #
point $-1 49.69267860957671 -29.072347734411036 -14.269201931011045 #
straight-curve $-1 -49.69267860957671 0 14.269201931011045 0 -1 0 I I #
point $-1 -49.69267860957671 29.072347734411036 14.269201931011045 #
point $-1 -49.69267860957671 -29.072347734411036 14.269201931011045 #
straight-curve $-1 49.69267860957671 -29.072347734411036 0 0 0 -1 I I #
straight-curve $-1 49.69267860957671 29.072347734411036 0 0 0 -1 I I #
loop $-1 $-1 $537 $531 #
plane-surface $-1 0 -29.072347734411036 0 0 1 0 0 0 1 forward_v I I I I #
coedge $-1 $548 $539 $535 $696 forward $532 $-1 #
edge $-1 $700 -18.933669991894021 $543 -1.3436854931400131 $534 $778 forward 7 unknown #
edge $-1 $544 1.3436854931400131 $699 18.933669991894021 $694 $779 forward 7 unknown #
coedge $-1 $546 $537 $551 $709 reversed $692 $-1 #
coedge $-1 $537 $546 $548 $707 reversed $692 $-1 #
vertex $-1 $707 $780 #
vertex $-1 $538 $781 #
straight-curve $-1 -28.141194107193868 -29.072347734411036 0 0 0 1 I I #
straight-curve $-1 -15.586201684493698 -11.482363235657029 -14.269201931011045 1 0 0 I I #
straight-curve $-1 -15.586201684493698 -11.482363235657029 14.269201931011045 -1 0 0 I I #
point $-1 -28.141194107193868 -11.482363235657029 14.269201931011045 #
point $-1 -28.141194107193868 -11.482363235657029 -14.269201931011045 #
straight-curve $-1 -34.203612630780924 -29.072347734411036 0 0 0 -1 I I #
edge $-1 $699 28.141194107193868 $549 34.203612630780924 $698 $782 forward 7 unknown #
point $-1 -34.203612630780924 -29.072347734411036 -14.269201931011045 #
edge $-1 $552 -34.203612630780924 $700 -28.141194107193868 $697 $783 forward 7 unknown #
point $-1 -34.203612630780924 -29.072347734411036 14.269201931011045 #
edge $-1 $712 46.085948332831379 $715 54.787441591668014 $557 $784 forward 7 unknown #
vertex $-1 $571 $785 #
straight-curve $-1 -29.678204801540218 14.205121931654906 14.269201931011047 0 1 0 I I #
edge $-1 $715 11.241399179068434 $568 25.632212065875134 $567 $786 forward 7 unknown #
vertex $-1 $714 $787 #
straight-curve $-1 -29.678204801540218 -21.282435412023201 34.640056796081424 0 -0.8660253999169214 0.50000000669873634 I I #
point $-1 -29.678204801540218 14.000919577613285 14.269201931011047 #
point $-1 -44.069017688346918 29.072347734411036 5.5677086721744082 #
straight-curve $-1 0 29.072347734411036 14.269201931011045 -1 0 0 I I #
vertex $-1 $574 $788 #
point $-1 -40.690855110985581 20.929315309303266 8.8665490875147217 #
vertex $-1 $578 $789 #
point $-1 -36.373611244943568 20.929315309303266 8.8665490875147217 #
vertex $-1 $582 $790 #
point $-1 -32.056367378901555 20.929315309303266 8.8665490875147217 #
coedge $-1 $597 $596 $589 $727 forward $586 $-1 #
edge $-1 $728 46.085948332831379 $731 54.787441591668014 $726 $791 forward 7 unknown #
vertex $-1 $601 $792 #
straight-curve $-1 -4.8318654967518651 14.205121931654906 14.269201931011047 0 1 0 I I #
edge $-1 $731 -1.1817704733257433 $598 13.209042413480958 $597 $793 forward 7 unknown #
vertex $-1 $730 $794 #
straight-curve $-1 -4.8318654967518651 -21.282435412023201 34.640056796081424 0 -0.8660253999169214 0.50000000669873634 I I #
point $-1 -4.8318654967518651 14.000919577613285 14.269201931011047 #
point $-1 -19.222678383558566 29.072347734411036 5.5677086721744082 #
straight-curve $-1 0 29.072347734411036 14.269201931011045 -1 0 0 I I #
vertex $-1 $604 $795 #
point $-1 -15.844515806197229 20.929315309303266 8.8665490875147217 #
vertex $-1 $608 $796 #
point $-1 -11.52727194015521 20.929315309303266 8.8665490875147217 #
vertex $-1 $612 $797 #
point $-1 -7.2100280741132039 20.929315309303266 8.8665490875147217 #
coedge $-1 $627 $626 $619 $743 forward $616 $-1 #
edge $-1 $744 46.085948332831379 $747 54.787441591668014 $742 $798 forward 7 unknown #
vertex $-1 $631 $799 #
straight-curve $-1 20.014473808036485 14.205121931654906 14.269201931011047 0 1 0 I I #
edge $-1 $747 -13.604940125719917 $628 0.78587276108678417 $627 $800 forward 7 unknown #
vertex $-1 $746 $801 #
straight-curve $-1 20.014473808036485 -21.282435412023201 34.640056796081424 0 -0.8660253999169214 0.50000000669873634 I I #
point $-1 20.014473808036485 14.000919577613285 14.269201931011047 #
point $-1 5.6236609212297832 29.072347734411036 5.5677086721744082 #
straight-curve $-1 0 29.072347734411036 14.269201931011045 -1 0 0 I I #
vertex $-1 $634 $802 #
point $-1 9.0018234985911292 20.929315309303266 8.8665490875147217 #
vertex $-1 $638 $803 #
point $-1 13.319067364633149 20.929315309303266 8.8665490875147217 #
vertex $-1 $642 $804 #
point $-1 17.636311230675155 20.929315309303266 8.8665490875147217 #
coedge $-1 $657 $656 $649 $759 forward $646 $-1 #
edge $-1 $760 46.085948332831379 $763 54.787441591668014 $758 $805 forward 7 unknown #
vertex $-1 $661 $806 #
straight-curve $-1 44.860813112824843 14.205121931654906 14.269201931011047 0 1 0 I I #
edge $-1 $763 -26.028109778114096 $658 -11.637296891307397 $657 $807 forward 7 unknown #
vertex $-1 $762 $808 #
straight-curve $-1 44.860813112824843 -21.282435412023201 34.640056796081424 0 -0.8660253999169214 0.50000000669873634 I I #
point $-1 44.860813112824843 14.000919577613285 14.269201931011047 #
point $-1 30.470000226018144 29.072347734411036 5.5677086721744082 #
straight-curve $-1 0 29.072347734411036 14.269201931011045 -1 0 0 I I #
vertex $-1 $664 $809 #
point $-1 33.848162803379488 20.929315309303266 8.8665490875147217 #
vertex $-1 $668 $810 #
point $-1 38.165406669421508 20.929315309303266 8.8665490875147217 #
vertex $-1 $672 $811 #
point $-1 42.482650535463513 20.929315309303266 8.8665490875147217 #
straight-curve $-1 -49.69267860957671 29.072347734411036 0 0 0 -1 I I #
point $-1 -49.69267860957671 -29.072347734411036 -14.269201931011045 #
straight-curve $-1 -49.69267860957671 0 -14.269201931011045 0 1 0 I I #
point $-1 -49.69267860957671 29.072347734411036 -14.269201931011045 #
straight-curve $-1 -28.141194107193868 -10.138677742517016 14.269201931011045 0 1 0 I I #
straight-curve $-1 -28.141194107193868 -10.138677742517016 -14.269201931011045 0 -1 0 I I #
point $-1 -28.141194107193868 -29.072347734411036 -14.269201931011045 #
point $-1 -28.141194107193868 -29.072347734411036 14.269201931011045 #
straight-curve $-1 0 -29.072347734411036 -14.269201931011045 -1 0 0 I I #
straight-curve $-1 0 -29.072347734411036 14.269201931011045 1 0 0 I I #
straight-curve $-1 -29.678204801540218 29.072347734411036 60.355150263842425 0 0 -1 I I #
point $-1 -29.678204801540218 29.072347734411036 14.269201931011045 #
straight-curve $-1 -18.436805622471784 29.072347734411036 5.56770867217441 -1 0 0 I I #
point $-1 -29.678204801540218 29.072347734411036 5.5677086721744082 #
point $-1 -41.190855110985581 20.679315305953896 8.433536387556261 #
point $-1 -36.873611244943568 20.679315305953896 8.433536387556261 #
point $-1 -32.556367378901555 20.679315305953896 8.433536387556261 #
straight-curve $-1 -4.8318654967518651 29.072347734411036 60.355150263842425 0 0 -1 I I #
point $-1 -4.8318654967518651 29.072347734411036 14.269201931011045 #
straight-curve $-1 -6.0136359700776083 29.072347734411036 5.56770867217441 -1 0 0 I I #
point $-1 -4.8318654967518651 29.072347734411036 5.5677086721744082 #
point $-1 -16.344515806197229 20.679315305953896 8.433536387556261 #
point $-1 -12.02727194015521 20.679315305953896 8.433536387556261 #
point $-1 -7.7100280741132039 20.679315305953896 8.433536387556261 #
straight-curve $-1 20.014473808036485 29.072347734411036 60.355150263842425 0 0 -1 I I #
point $-1 20.014473808036485 29.072347734411036 14.269201931011045 #
straight-curve $-1 6.4095336823165674 29.072347734411036 5.56770867217441 -1 0 0 I I #
point $-1 20.014473808036485 29.072347734411036 5.5677086721744082 #
point $-1 8.5018234985911292 20.679315305953896 8.433536387556261 #
point $-1 12.819067364633149 20.679315305953896 8.433536387556261 #
point $-1 17.136311230675155 20.679315305953896 8.433536387556261 #
straight-curve $-1 44.860813112824843 29.072347734411036 60.355150263842425 0 0 -1 I I #
point $-1 44.860813112824843 29.072347734411036 14.269201931011045 #
straight-curve $-1 18.832703334710747 29.072347734411036 5.56770867217441 -1 0 0 I I #
point $-1 44.860813112824843 29.072347734411036 5.5677086721744082 #
point $-1 33.348162803379488 20.679315305953896 8.433536387556261 #
point $-1 37.665406669421508 20.679315305953896 8.433536387556261 #
point $-1 41.982650535463513 20.679315305953896 8.433536387556261 #
End-of-ACIS-data 