500 0 10 0           
7 Unknown 11 ACIS 5.0 NT 24 Thu Mar 25 21:12:25 1999 
-1 9.9999999999999995e-007 1e-010 
body $-1 $10 $-1 $11 #
body $-1 $12 $-1 $13 #
body $-1 $14 $-1 $15 #
body $-1 $16 $-1 $17 #
body $-1 $18 $-1 $19 #
body $-1 $20 $-1 $21 #
body $-1 $22 $-1 $23 #
body $-1 $24 $-1 $25 #
body $-1 $26 $-1 $27 #
body $-1 $28 $-1 $29 #
lump $-1 $-1 $30 $0 #
transform $-1 1 0 0 0 1 0 0 0 1 78.083437604907374 41.805272456752554 15.289601889758679 1 rotate no_reflect no_shear #
lump $-1 $-1 $31 $1 #
transform $-1 1 0 0 0 1 0 0 0 1 78.083437604907374 41.805272456752554 15.289601889758679 1 rotate no_reflect no_shear #
lump $-1 $-1 $32 $2 #
transform $-1 1 0 0 0 1 0 0 0 1 78.083437604907374 41.805272456752554 15.289601889758679 1 rotate no_reflect no_shear #
lump $-1 $-1 $33 $3 #
transform $-1 1 0 0 0 1 0 0 0 1 78.083437604907374 41.805272456752554 15.289601889758679 1 rotate no_reflect no_shear #
lump $-1 $-1 $34 $4 #
transform $-1 1 0 0 0 1 0 0 0 1 78.083437604907374 41.805272456752554 15.289601889758679 1 rotate no_reflect no_shear #
lump $-1 $-1 $35 $5 #
transform $-1 1 0 0 0 1 0 0 0 1 78.083437604907374 41.805272456752554 15.289601889758679 1 rotate no_reflect no_shear #
lump $-1 $-1 $36 $6 #
transform $-1 1 0 0 0 1 0 0 0 1 78.083437604907374 41.805272456752554 15.289601889758679 1 rotate no_reflect no_shear #
lump $-1 $-1 $37 $7 #
transform $-1 1 0 0 0 1 0 0 0 1 78.083437604907374 41.805272456752554 15.289601889758679 1 rotate no_reflect no_shear #
lump $-1 $-1 $38 $8 #
transform $-1 1 0 0 0 1 0 0 0 1 78.083437604907374 41.805272456752554 15.289601889758679 1 rotate no_reflect no_shear #
lump $-1 $-1 $39 $9 #
transform $-1 1 0 0 0 1 0 0 0 1 78.083437604907374 41.805272456752554 15.289601889758679 1 rotate no_reflect no_shear #
shell $-1 $-1 $-1 $40 $-1 $10 #
shell $-1 $-1 $-1 $41 $-1 $12 #
shell $-1 $-1 $-1 $42 $-1 $14 #
shell $-1 $-1 $-1 $43 $-1 $16 #
shell $-1 $-1 $-1 $44 $-1 $18 #
shell $-1 $-1 $-1 $45 $-1 $20 #
shell $-1 $-1 $-1 $46 $-1 $22 #
shell $-1 $-1 $-1 $47 $-1 $24 #
shell $-1 $-1 $-1 $48 $-1 $26 #
shell $-1 $-1 $-1 $49 $-1 $28 #
face $-1 $50 $51 $30 $-1 $52 forward single #
face $-1 $53 $54 $31 $-1 $55 reversed single #
face $-1 $56 $57 $32 $-1 $58 reversed single #
face $-1 $59 $60 $33 $-1 $61 forward single #
face $-1 $62 $63 $34 $-1 $64 forward single #
face $-1 $65 $66 $35 $-1 $67 forward single #
face $-1 $68 $69 $36 $-1 $70 reversed single #
face $-1 $71 $72 $37 $-1 $73 forward single #
face $-1 $74 $75 $38 $-1 $76 forward single #
face $-1 $77 $78 $39 $-1 $79 forward single #
face $-1 $80 $81 $30 $-1 $82 reversed single #
loop $-1 $-1 $83 $40 #
plane-surface $-1 0 0 15.289601889758679 0 0 1 1 0 0 forward_v I I I I #
face $-1 $84 $85 $31 $-1 $86 reversed single #
loop $-1 $-1 $87 $41 #
plane-surface $-1 -70.555967218064467 0 10.705847649094125 0 0 1 1 0 0 forward_v I I I I #
face $-1 $88 $89 $32 $-1 $90 reversed single #
loop $-1 $-1 $91 $42 #
plane-surface $-1 68.039973207946446 -41.805272456752562 5.0944444858727422 0 -0.68199836817093118 0.7313536940579346 1 0 0 forward_v I I I I #
face $-1 $92 $93 $33 $-1 $94 forward single #
loop $-1 $95 $96 $43 #
cone-surface $-1 62.013894569769917 -35.963197337898094 9.7892507922310568 0 0.68199836817093118 -0.7313536940579346 1 0 0 1 I I 0 1 1 forward I I I I #
face $-1 $97 $98 $34 $-1 $99 forward single #
loop $-1 $100 $101 $44 #
cone-surface $-1 68.039973207946474 -35.963197337898094 9.7892507922310568 0 0.68199836817093118 -0.7313536940579346 1 0 0 1 I I 0 1 1 forward I I I I #
face $-1 $102 $103 $35 $-1 $104 forward single #
loop $-1 $105 $106 $45 #
cone-surface $-1 74.066051846123031 -35.963197337898094 9.7892507922310568 0 0.68199836817093118 -0.7313536940579346 1 0 0 1 I I 0 1 1 forward I I I I #
face $-1 $107 $108 $36 $-1 $109 reversed single #
loop $-1 $-1 $110 $46 #
plane-surface $-1 -44.153424427885597 135.24448348945998 162.09665874244166 -1 0 0 0 0.86602541151947299 0.49999998660252726 forward_v I I I I #
face $-1 $111 $112 $37 $-1 $113 forward single #
loop $-1 $114 $115 $47 #
cone-surface $-1 -59.253482350554364 39.931052654744853 12.979108835298257 0 -0.86602541151947299 -0.49999998660252726 0.5 0 0 1 I I 0 1 0.5 forward I I I I #
face $-1 $116 $117 $38 $-1 $118 forward single #
loop $-1 $119 $120 $48 #
cone-surface $-1 -53.590960629553578 39.931052654744853 12.979108835298257 0 -0.86602541151947299 -0.49999998660252726 0.5 0 0 1 I I 0 1 0.5 forward I I I I #
face $-1 $121 $122 $39 $-1 $123 forward single #
loop $-1 $124 $125 $49 #
cone-surface $-1 -47.928438908552792 39.931052654744853 12.979108835298257 0 -0.86602541151947299 -0.49999998660252726 0.5 0 0 1 I I 0 1 0.5 forward I I I I #
face $-1 $126 $127 $30 $-1 $128 reversed single #
loop $-1 $-1 $129 $50 #
plane-surface $-1 0 0 -15.289601889758679 0 0 1 1 0 0 forward_v I I I I #
coedge $-1 $130 $131 $132 $133 forward $51 $-1 #
face $-1 $134 $135 $31 $-1 $136 reversed single #
loop $-1 $-1 $137 $53 #
plane-surface $-1 -63.02849683122156 0 12.997724769426402 -1 0 0 0 0 1 forward_v I I I I #
coedge $-1 $138 $139 $140 $141 forward $54 $-1 #
face $-1 $142 $143 $32 $-1 $144 reversed single #
loop $-1 $-1 $145 $56 #
plane-surface $-1 57.996508810985532 -148.31082651219967 119.30766556005526 1 0 0 0 0.68199836817093118 -0.7313536940579346 forward_v I I I I #
coedge $-1 $146 $147 $148 $149 reversed $57 $-1 #
face $-1 $-1 $150 $33 $-1 $151 forward single #
loop $-1 $152 $153 $59 #
cone-surface $-1 62.013894569769917 -35.246606810301515 9.0208015496174312 0 0.68199836817093118 -0.7313536940579346 0.5 0 0 1 I I -0.70710678118654746 0.70710678118654746 0.5 forward I I I I #
loop $-1 $-1 $154 $43 #
coedge $-1 $96 $96 $155 $156 reversed $60 $-1 #
face $-1 $-1 $157 $34 $-1 $158 forward single #
loop $-1 $159 $160 $62 #
cone-surface $-1 68.039973207946474 -35.246606810301515 9.0208015496174312 0 0.68199836817093118 -0.7313536940579346 0.5 0 0 1 I I -0.70710678118654746 0.70710678118654746 0.5 forward I I I I #
loop $-1 $-1 $161 $44 #
coedge $-1 $101 $101 $162 $163 reversed $63 $-1 #
face $-1 $-1 $164 $35 $-1 $165 forward single #
loop $-1 $166 $167 $65 #
cone-surface $-1 74.066051846123031 -35.246606810301515 9.0208015496174312 0 0.68199836817093118 -0.7313536940579346 0.5 0 0 1 I I -0.70710678118654746 0.70710678118654746 0.5 forward I I I I #
loop $-1 $-1 $168 $45 #
coedge $-1 $106 $106 $169 $170 reversed $66 $-1 #
face $-1 $171 $172 $36 $-1 $173 forward single #
loop $-1 $-1 $174 $68 #
plane-surface $-1 -53.590960629553578 1.120169969226481e-006 84.013223229775747 0 0.86602541151947299 0.49999998660252726 1 0 0 forward_v I I I I #
coedge $-1 $175 $176 $177 $178 reversed $69 $-1 #
face $-1 $-1 $179 $37 $-1 $180 forward single #
loop $-1 $181 $182 $71 #
cone-surface $-1 -59.253482350554364 38.904162236748952 12.386233397221496 0 -0.86602541151947299 -0.49999998660252726 0.25 0 0 1 I I -0.70710678118654746 0.70710678118654746 0.25 forward I I I I #
loop $-1 $-1 $183 $47 #
coedge $-1 $115 $115 $184 $185 reversed $72 $-1 #
face $-1 $-1 $186 $38 $-1 $187 forward single #
loop $-1 $188 $189 $74 #
cone-surface $-1 -53.590960629553578 38.904162236748952 12.386233397221496 0 -0.86602541151947299 -0.49999998660252726 0.25 0 0 1 I I -0.70710678118654746 0.70710678118654746 0.25 forward I I I I #
loop $-1 $-1 $190 $48 #
coedge $-1 $120 $120 $191 $192 reversed $75 $-1 #
face $-1 $-1 $193 $39 $-1 $194 forward single #
loop $-1 $195 $196 $77 #
cone-surface $-1 -47.928438908552792 38.904162236748952 12.386233397221496 0 -0.86602541151947299 -0.49999998660252726 0.25 0 0 1 I I -0.70710678118654746 0.70710678118654746 0.25 forward I I I I #
loop $-1 $-1 $197 $49 #
coedge $-1 $125 $125 $198 $199 reversed $78 $-1 #
face $-1 $200 $201 $30 $-1 $202 reversed single #
loop $-1 $-1 $203 $80 #
plane-surface $-1 0 -41.805272456752554 0 0 1 0 0 0 1 forward_v I I I I #
coedge $-1 $204 $205 $206 $207 forward $81 $-1 #
coedge $-1 $208 $83 $209 $210 forward $51 $-1 #
coedge $-1 $83 $208 $211 $212 forward $51 $-1 #
coedge $-1 $213 $214 $83 $133 reversed $215 $-1 #
edge $-1 $216 -41.805272456752554 $217 41.805272456752554 $132 $218 forward 7 unknown #
face $-1 $219 $220 $31 $-1 $221 reversed single #
loop $-1 $-1 $222 $84 #
plane-surface $-1 0 41.805272456752554 0 0 -1 0 0 0 -1 forward_v I I I I #
coedge $-1 $140 $223 $224 $225 reversed $85 $-1 #
coedge $-1 $226 $87 $227 $228 reversed $54 $-1 #
coedge $-1 $87 $226 $229 $230 reversed $54 $-1 #
coedge $-1 $231 $137 $87 $141 reversed $85 $-1 #
edge $-1 $232 -41.805272456752554 $233 41.805272456752554 $140 $234 forward 7 unknown #
face $-1 $235 $236 $32 $-1 $237 forward single #
loop $-1 $-1 $238 $88 #
plane-surface $-1 78.083437604907374 0 0 -1 0 0 0 0 1 forward_v I I I I #
coedge $-1 $239 $240 $241 $242 reversed $89 $-1 #
coedge $-1 $243 $91 $238 $244 reversed $57 $-1 #
coedge $-1 $91 $243 $239 $245 forward $57 $-1 #
coedge $-1 $241 $246 $91 $149 forward $236 $-1 #
edge $-1 $247 -44.063451000934137 $248 -23.976522207012309 $148 $249 forward 7 unknown #
loop $-1 $-1 $155 $92 #
plane-surface $-1 68.039973207946446 -41.805272456752562 5.0944444858727422 0 -0.68199836817093118 0.7313536940579346 1 0 0 forward_v I I I I #
loop $-1 $-1 $250 $59 #
coedge $-1 $153 $153 $154 $251 reversed $93 $-1 #
coedge $-1 $154 $154 $153 $251 forward $95 $-1 #
coedge $-1 $155 $155 $96 $156 forward $150 $-1 #
edge $-1 $252 6.4080530116020455e-015 $252 6.2831853071796067 $155 $253 forward 7 unknown #
loop $-1 $-1 $162 $97 #
plane-surface $-1 68.039973207946446 -41.805272456752562 5.0944444858727422 0 -0.68199836817093118 0.7313536940579346 1 0 0 forward_v I I I I #
loop $-1 $-1 $254 $62 #
coedge $-1 $160 $160 $161 $255 reversed $98 $-1 #
coedge $-1 $161 $161 $160 $255 forward $100 $-1 #
coedge $-1 $162 $162 $101 $163 forward $157 $-1 #
edge $-1 $256 6.4080530116020455e-015 $256 6.2831853071796067 $162 $257 forward 7 unknown #
loop $-1 $-1 $169 $102 #
plane-surface $-1 68.039973207946446 -41.805272456752562 5.0944444858727422 0 -0.68199836817093118 0.7313536940579346 1 0 0 forward_v I I I I #
loop $-1 $-1 $258 $65 #
coedge $-1 $167 $167 $168 $259 reversed $103 $-1 #
coedge $-1 $168 $168 $167 $259 forward $105 $-1 #
coedge $-1 $169 $169 $106 $170 forward $164 $-1 #
edge $-1 $260 6.4080530116020455e-015 $260 6.2831853071796067 $169 $261 forward 7 unknown #
face $-1 $262 $263 $36 $-1 $264 forward single #
loop $-1 $-1 $265 $107 #
plane-surface $-1 -63.02849683122156 0 12.997724769426402 -1 0 0 0 0 1 forward_v I I I I #
coedge $-1 $266 $267 $268 $269 reversed $108 $-1 #
coedge $-1 $176 $110 $270 $271 reversed $69 $-1 #
coedge $-1 $110 $175 $266 $272 reversed $69 $-1 #
coedge $-1 $268 $273 $110 $178 forward $274 $-1 #
edge $-1 $275 65.758727481462159 $276 69.443962707530773 $177 $277 forward 7 unknown #
loop $-1 $-1 $184 $111 #
plane-surface $-1 -53.590960629553578 1.120169969226481e-006 84.013223229775747 0 0.86602541151947299 0.49999998660252726 1 0 0 forward_v I I I I #
loop $-1 $-1 $278 $71 #
coedge $-1 $182 $182 $183 $279 reversed $112 $-1 #
coedge $-1 $183 $183 $182 $279 forward $114 $-1 #
coedge $-1 $184 $184 $115 $185 forward $179 $-1 #
edge $-1 $280 3.8077860632933375e-015 $280 6.283185307179604 $184 $281 forward 7 unknown #
loop $-1 $-1 $191 $116 #
plane-surface $-1 -53.590960629553578 1.120169969226481e-006 84.013223229775747 0 0.86602541151947299 0.49999998660252726 1 0 0 forward_v I I I I #
loop $-1 $-1 $282 $74 #
coedge $-1 $189 $189 $190 $283 reversed $117 $-1 #
coedge $-1 $190 $190 $189 $283 forward $119 $-1 #
coedge $-1 $191 $191 $120 $192 forward $186 $-1 #
edge $-1 $284 3.8077860632933375e-015 $284 6.283185307179604 $191 $285 forward 7 unknown #
loop $-1 $-1 $198 $121 #
plane-surface $-1 -53.590960629553578 1.120169969226481e-006 84.013223229775747 0 0.86602541151947299 0.49999998660252726 1 0 0 forward_v I I I I #
loop $-1 $-1 $286 $77 #
coedge $-1 $196 $196 $197 $287 reversed $122 $-1 #
coedge $-1 $197 $197 $196 $287 forward $124 $-1 #
coedge $-1 $198 $198 $125 $199 forward $193 $-1 #
edge $-1 $288 3.8077860632933375e-015 $288 6.283185307179604 $198 $289 forward 7 unknown #
face $-1 $290 $291 $30 $-1 $292 reversed single #
loop $-1 $-1 $293 $126 #
plane-surface $-1 -78.083437604907374 0 0 1 0 0 0 0 -1 forward_v I I I I #
coedge $-1 $294 $211 $295 $296 forward $127 $-1 #
coedge $-1 $297 $129 $294 $298 forward $81 $-1 #
coedge $-1 $129 $297 $299 $300 forward $81 $-1 #
coedge $-1 $214 $213 $129 $207 reversed $215 $-1 #
edge $-1 $301 -41.805272456752554 $302 41.805272456752554 $206 $303 forward 7 unknown #
coedge $-1 $131 $130 $304 $305 forward $51 $-1 #
coedge $-1 $306 $307 $130 $210 reversed $291 $-1 #
edge $-1 $217 -78.083437604907374 $308 78.083437604907374 $209 $309 forward 7 unknown #
coedge $-1 $203 $310 $131 $212 reversed $127 $-1 #
edge $-1 $311 -78.083437604907374 $216 78.083437604907374 $211 $312 forward 7 unknown #
coedge $-1 $206 $132 $310 $313 forward $215 $-1 #
coedge $-1 $132 $206 $306 $314 reversed $215 $-1 #
loop $-1 $-1 $213 $290 #
vertex $-1 $133 $315 #
vertex $-1 $133 $316 #
straight-curve $-1 78.083437604907374 0 15.289601889758679 0 1 0 I I #
face $-1 $317 $318 $31 $-1 $319 forward single #
loop $-1 $-1 $320 $134 #
plane-surface $-1 -78.083437604907374 0 0 1 0 0 0 0 -1 forward_v I I I I #
coedge $-1 $229 $321 $231 $322 forward $135 $-1 #
coedge $-1 $137 $231 $323 $324 reversed $85 $-1 #
coedge $-1 $325 $227 $137 $225 forward $326 $-1 #
edge $-1 $233 4.2069852643809238 $327 8.7907395050454777 $224 $328 forward 7 unknown #
coedge $-1 $139 $138 $320 $329 reversed $54 $-1 #
coedge $-1 $224 $330 $138 $228 forward $326 $-1 #
edge $-1 $331 -42.805453995875141 $233 -27.750513222189326 $227 $332 forward 7 unknown #
coedge $-1 $333 $222 $139 $230 forward $135 $-1 #
edge $-1 $232 27.750513222189326 $334 42.805453995875141 $229 $335 forward 7 unknown #
coedge $-1 $223 $140 $222 $322 reversed $85 $-1 #
vertex $-1 $230 $336 #
vertex $-1 $228 $337 #
straight-curve $-1 -63.02849683122156 0 10.705847649094125 0 -1 0 I I #
face $-1 $-1 $338 $32 $-1 $339 reversed single #
loop $-1 $-1 $148 $142 #
plane-surface $-1 0 0 15.289601889758679 0 0 1 1 0 0 forward_v I I I I #
coedge $-1 $340 $341 $146 $244 forward $143 $-1 #
coedge $-1 $240 $145 $147 $245 reversed $89 $-1 #
coedge $-1 $145 $239 $342 $343 reversed $89 $-1 #
coedge $-1 $344 $148 $145 $242 forward $236 $-1 #
edge $-1 $248 -43.283108350033984 $345 -32.35014079934728 $241 $346 forward 7 unknown #
coedge $-1 $147 $146 $347 $348 reversed $57 $-1 #
edge $-1 $349 -13.550018808120893 $247 1.3989281097853492 $238 $350 forward 7 unknown #
edge $-1 $351 9.4367341760026555e-015 $248 14.948946917906252 $239 $352 forward 7 unknown #
coedge $-1 $148 $344 $340 $353 forward $236 $-1 #
vertex $-1 $149 $354 #
vertex $-1 $149 $355 #
straight-curve $-1 34.019986603973223 -30.87230490606585 15.289601889758679 -1 0 0 I I #
coedge $-1 $250 $250 $-1 $356 reversed $152 $-1 #
edge $-1 $357 0 $357 6.2831853071796004 $153 $358 forward 7 unknown #
vertex $-1 $156 $359 #
ellipse-curve $-1 62.013894569769917 -36.338788681409206 10.192023187815712 0 -0.68199836817093118 0.7313536940579346 1 0 0 1 I I #
coedge $-1 $254 $254 $-1 $360 reversed $159 $-1 #
edge $-1 $361 0 $361 6.2831853071796004 $160 $362 forward 7 unknown #
vertex $-1 $163 $363 #
ellipse-curve $-1 68.039973207946474 -36.338788681409206 10.192023187815712 0 -0.68199836817093118 0.7313536940579346 1 0 0 1 I I #
coedge $-1 $258 $258 $-1 $364 reversed $166 $-1 #
edge $-1 $365 0 $365 6.2831853071796004 $167 $366 forward 7 unknown #
vertex $-1 $170 $367 #
ellipse-curve $-1 74.066051846123031 -36.338788681409206 10.192023187815712 0 -0.68199836817093118 0.7313536940579346 1 0 0 1 I I #
face $-1 $-1 $274 $36 $-1 $368 reversed single #
loop $-1 $-1 $369 $171 #
plane-surface $-1 0 0 15.289601889758679 0 0 1 1 0 0 forward_v I I I I #
coedge $-1 $370 $371 $267 $372 forward $172 $-1 #
coedge $-1 $373 $174 $176 $272 forward $108 $-1 #
coedge $-1 $174 $373 $265 $372 reversed $108 $-1 #
coedge $-1 $374 $177 $174 $269 forward $274 $-1 #
edge $-1 $276 17.357944113108807 $375 36.233016516444771 $268 $376 forward 7 unknown #
coedge $-1 $377 $369 $175 $271 forward $263 $-1 #
edge $-1 $378 -27.944640761760787 $275 -25.816969287977436 $270 $379 forward 7 unknown #
edge $-1 $276 -83.610544913505166 $378 -79.355201851916775 $176 $380 forward 7 unknown #
coedge $-1 $177 $374 $377 $381 reversed $274 $-1 #
loop $-1 $-1 $268 $262 #
vertex $-1 $381 $382 #
vertex $-1 $178 $383 #
straight-curve $-1 -44.153424427885597 41.805272456752554 81.048329371220831 0 0 -1 I I #
coedge $-1 $278 $278 $-1 $384 reversed $181 $-1 #
edge $-1 $385 0 $385 6.2831853071796004 $182 $386 forward 7 unknown #
vertex $-1 $185 $387 #
ellipse-curve $-1 -59.253482350554364 40.741436719860864 13.446984276724375 0 0.86602541151947299 0.49999998660252726 0.5 0 0 1 I I #
coedge $-1 $282 $282 $-1 $388 reversed $188 $-1 #
edge $-1 $389 0 $389 6.2831853071796004 $189 $390 forward 7 unknown #
vertex $-1 $192 $391 #
ellipse-curve $-1 -53.590960629553578 40.741436719860864 13.446984276724375 0 0.86602541151947299 0.49999998660252726 0.5 0 0 1 I I #
coedge $-1 $286 $286 $-1 $392 reversed $195 $-1 #
edge $-1 $393 0 $393 6.2831853071796004 $196 $394 forward 7 unknown #
vertex $-1 $199 $395 #
ellipse-curve $-1 -47.928438908552792 40.741436719860864 13.446984276724375 0 0.86602541151947299 0.49999998660252726 0.5 0 0 1 I I #
face $-1 $-1 $215 $30 $-1 $396 reversed single #
loop $-1 $-1 $306 $200 #
plane-surface $-1 0 41.805272456752554 0 0 -1 0 0 0 -1 forward_v I I I I #
coedge $-1 $397 $304 $307 $398 forward $201 $-1 #
coedge $-1 $310 $203 $204 $298 reversed $127 $-1 #
coedge $-1 $304 $397 $203 $296 reversed $201 $-1 #
edge $-1 $311 -15.289601889758679 $399 15.289601889758679 $295 $400 forward 7 unknown #
coedge $-1 $205 $204 $397 $401 forward $81 $-1 #
edge $-1 $302 -78.083437604907374 $399 78.083437604907374 $294 $402 forward 7 unknown #
coedge $-1 $307 $306 $205 $300 reversed $291 $-1 #
edge $-1 $403 -78.083437604907374 $301 78.083437604907374 $299 $404 forward 7 unknown #
vertex $-1 $207 $405 #
vertex $-1 $313 $406 #
straight-curve $-1 78.083437604907374 0 -15.289601889758679 0 -1 0 I I #
coedge $-1 $293 $295 $208 $305 reversed $201 $-1 #
edge $-1 $308 -41.805272456752554 $311 41.805272456752554 $304 $407 forward 7 unknown #
coedge $-1 $299 $209 $214 $314 forward $291 $-1 #
coedge $-1 $209 $299 $293 $398 reversed $291 $-1 #
vertex $-1 $210 $408 #
straight-curve $-1 0 41.805272456752554 15.289601889758679 -1 0 0 I I #
coedge $-1 $211 $294 $213 $313 reversed $127 $-1 #
vertex $-1 $305 $409 #
straight-curve $-1 0 -41.805272456752554 15.289601889758679 1 0 0 I I #
edge $-1 $216 -15.289601889758679 $302 15.289601889758679 $213 $410 forward 7 unknown #
edge $-1 $217 -15.289601889758679 $301 15.289601889758679 $214 $411 forward 7 unknown #
point $-1 78.083437604907374 -41.805272456752554 15.289601889758679 #
point $-1 78.083437604907374 41.805272456752554 15.289601889758679 #
face $-1 $-1 $326 $31 $-1 $412 reversed single #
loop $-1 $-1 $323 $219 #
plane-surface $-1 0 0 15.289601889758679 0 0 1 1 0 0 forward_v I I I I #
coedge $-1 $413 $414 $226 $329 forward $220 $-1 #
coedge $-1 $222 $333 $415 $416 reversed $135 $-1 #
edge $-1 $417 -8.7907395050454777 $232 -4.2069852643809238 $222 $418 forward 7 unknown #
coedge $-1 $415 $419 $223 $324 forward $318 $-1 #
edge $-1 $327 -41.805272456752554 $417 41.805272456752554 $323 $420 forward 7 unknown #
coedge $-1 $330 $224 $419 $421 reversed $326 $-1 #
loop $-1 $-1 $224 $317 #
vertex $-1 $225 $422 #
straight-curve $-1 -63.02849683122156 -41.805272456752554 6.4988623847132008 0 0 1 I I #
edge $-1 $334 -41.805272456752554 $331 41.805272456752554 $320 $423 forward 7 unknown #
coedge $-1 $227 $325 $413 $424 forward $326 $-1 #
vertex $-1 $329 $425 #
straight-curve $-1 -35.277983609032233 -41.805272456752554 10.705847649094125 1 0 0 I I #
coedge $-1 $321 $229 $414 $426 reversed $135 $-1 #
vertex $-1 $329 $427 #
straight-curve $-1 -35.277983609032233 41.805272456752554 10.705847649094125 -1 0 0 I I #
point $-1 -63.02849683122156 41.805272456752554 10.705847649094125 #
point $-1 -63.02849683122156 -41.805272456752554 10.705847649094125 #
loop $-1 $-1 $347 $235 #
plane-surface $-1 0 -41.805272456752554 0 0 1 0 0 0 1 forward_v I I I I #
coedge $-1 $341 $238 $246 $353 reversed $143 $-1 #
coedge $-1 $238 $340 $428 $429 forward $143 $-1 #
coedge $-1 $347 $430 $240 $343 forward $338 $-1 #
edge $-1 $345 44.364230890268949 $351 54.559388294154878 $342 $431 forward 7 unknown #
coedge $-1 $246 $241 $430 $432 forward $236 $-1 #
vertex $-1 $432 $433 #
straight-curve $-1 57.996508810985532 -74.155413256099834 15.289601889758679 0 -1 0 I I #
coedge $-1 $428 $342 $243 $348 forward $338 $-1 #
edge $-1 $351 23.976522207012309 $349 44.063451000934137 $347 $434 forward 7 unknown #
vertex $-1 $348 $435 #
straight-curve $-1 78.083437604907374 -31.895416146878848 14.335535201696624 0 0.7313536940579346 0.68199836817093118 I I #
vertex $-1 $348 $436 #
straight-curve $-1 57.996508810985532 -41.805272456752562 5.0944444858727422 0 0.7313536940579346 0.68199836817093118 I I #
edge $-1 $437 -41.805272456752554 $247 -30.87230490606585 $340 $438 forward 7 unknown #
point $-1 78.08343760490736 -30.87230490606585 15.289601889758679 #
point $-1 57.996508810985532 -30.87230490606585 15.289601889758679 #
edge $-1 $439 1 $439 0 $250 $-1 forward 7 unknown #
vertex $-1 $251 $440 #
ellipse-curve $-1 62.013894569769917 -35.587605994386983 9.3864783966463978 0 -0.68199836817093118 0.7313536940579346 1 0 0 1 I I #
point $-1 63.013894569769917 -36.338788681409198 10.192023187815714 #
edge $-1 $441 1 $441 0 $254 $-1 forward 7 unknown #
vertex $-1 $255 $442 #
ellipse-curve $-1 68.039973207946474 -35.587605994386983 9.3864783966463978 0 -0.68199836817093118 0.7313536940579346 1 0 0 1 I I #
point $-1 69.039973207946474 -36.338788681409198 10.192023187815714 #
edge $-1 $443 1 $443 0 $258 $-1 forward 7 unknown #
vertex $-1 $259 $444 #
ellipse-curve $-1 74.066051846123031 -35.587605994386983 9.3864783966463978 0 -0.68199836817093118 0.7313536940579346 1 0 0 1 I I #
point $-1 75.066051846123031 -36.338788681409198 10.192023187815714 #
plane-surface $-1 0 41.805272456752554 0 0 -1 0 0 0 -1 forward_v I I I I #
coedge $-1 $270 $445 $373 $446 forward $263 $-1 #
coedge $-1 $371 $265 $445 $447 reversed $172 $-1 #
coedge $-1 $265 $370 $374 $448 reversed $172 $-1 #
edge $-1 $375 -52.859932054355369 $449 -48.604588992766992 $265 $450 forward 7 unknown #
coedge $-1 $267 $266 $369 $446 reversed $108 $-1 #
coedge $-1 $273 $268 $371 $448 forward $274 $-1 #
vertex $-1 $448 $451 #
straight-curve $-1 -26.795480314776789 41.805272456752554 11.604366663690051 -1 0 0 I I #
coedge $-1 $445 $270 $273 $381 forward $263 $-1 #
vertex $-1 $271 $452 #
straight-curve $-1 -44.153424427885597 67.62224174472999 15.289601889758671 0 1 0 I I #
straight-curve $-1 -44.153424427885597 1.120169969226481e-006 84.013223229775747 0 -0.49999998660252726 0.86602541151947299 I I #
edge $-1 $275 44.153424427885597 $453 63.02849683122156 $273 $454 forward 7 unknown #
point $-1 -44.153424427885597 41.805272456752554 15.289601889758679 #
point $-1 -44.153424427885597 41.805272456752554 11.604366663690058 #
edge $-1 $455 1 $455 0 $278 $-1 forward 7 unknown #
vertex $-1 $279 $456 #
ellipse-curve $-1 -59.253482350554364 39.120668589628821 12.511233393872127 0 0.86602541151947299 0.49999998660252726 0.5 0 0 1 I I #
point $-1 -58.753482350554364 40.741436719860893 13.44698427672439 #
edge $-1 $457 1 $457 0 $282 $-1 forward 7 unknown #
vertex $-1 $283 $458 #
ellipse-curve $-1 -53.590960629553578 39.120668589628821 12.511233393872127 0 0.86602541151947299 0.49999998660252726 0.5 0 0 1 I I #
point $-1 -53.090960629553578 40.741436719860893 13.44698427672439 #
edge $-1 $459 1 $459 0 $286 $-1 forward 7 unknown #
vertex $-1 $287 $460 #
ellipse-curve $-1 -47.928438908552792 39.120668589628821 12.511233393872127 0 0.86602541151947299 0.49999998660252726 0.5 0 0 1 I I #
point $-1 -47.428438908552792 40.741436719860893 13.44698427672439 #
plane-surface $-1 78.083437604907374 0 0 -1 0 0 0 0 1 forward_v I I I I #
coedge $-1 $295 $293 $297 $401 reversed $201 $-1 #
edge $-1 $308 -15.289601889758679 $403 15.289601889758679 $307 $461 forward 7 unknown #
vertex $-1 $401 $462 #
straight-curve $-1 -78.083437604907374 -41.805272456752554 0 0 0 -1 I I #
edge $-1 $399 -41.805272456752554 $403 41.805272456752554 $397 $463 forward 7 unknown #
straight-curve $-1 0 -41.805272456752554 -15.289601889758679 -1 0 0 I I #
vertex $-1 $300 $464 #
straight-curve $-1 0 41.805272456752554 -15.289601889758679 1 0 0 I I #
point $-1 78.083437604907374 41.805272456752554 -15.289601889758679 #
point $-1 78.083437604907374 -41.805272456752554 -15.289601889758679 #
straight-curve $-1 -78.083437604907374 0 15.289601889758679 0 -1 0 I I #
point $-1 -78.083437604907374 41.805272456752554 15.289601889758679 #
point $-1 -78.083437604907374 -41.805272456752554 15.289601889758679 #
straight-curve $-1 78.083437604907374 -41.805272456752554 0 0 0 -1 I I #
straight-curve $-1 78.083437604907374 41.805272456752554 0 0 0 -1 I I #
plane-surface $-1 0 -41.805272456752554 0 0 1 0 0 0 1 forward_v I I I I #
coedge $-1 $465 $320 $330 $424 reversed $220 $-1 #
coedge $-1 $320 $465 $333 $426 forward $220 $-1 #
coedge $-1 $466 $323 $321 $416 forward $318 $-1 #
edge $-1 $417 63.02849683122156 $467 78.083437604907374 $321 $468 forward 7 unknown #
vertex $-1 $416 $469 #
straight-curve $-1 -63.02849683122156 41.805272456752554 6.4988623847132008 0 0 -1 I I #
coedge $-1 $323 $466 $325 $421 forward $318 $-1 #
straight-curve $-1 -63.02849683122156 0 15.289601889758679 0 1 0 I I #
edge $-1 $470 -78.083437604907374 $327 -63.02849683122156 $325 $471 forward 7 unknown #
point $-1 -63.02849683122156 -41.805272456752554 15.289601889758679 #
straight-curve $-1 -78.083437604907374 0 10.705847649094125 0 -1 0 I I #
edge $-1 $470 -15.289601889758679 $331 -10.705847649094125 $413 $472 forward 7 unknown #
point $-1 -78.083437604907374 -41.805272456752554 10.705847649094125 #
edge $-1 $467 -15.289601889758679 $334 -10.705847649094125 $333 $473 forward 7 unknown #
point $-1 -78.083437604907374 41.805272456752554 10.705847649094125 #
coedge $-1 $430 $347 $341 $429 reversed $338 $-1 #
edge $-1 $437 -15.289601889758679 $349 -5.0944444858727485 $341 $474 forward 7 unknown #
coedge $-1 $342 $428 $344 $432 reversed $338 $-1 #
straight-curve $-1 57.996508810985532 -41.805272456752554 59.653832780027628 0 0 -1 I I #
edge $-1 $345 57.996508810985532 $437 78.083437604907374 $430 $475 forward 7 unknown #
point $-1 57.996508810985532 -41.805272456752554 15.289601889758679 #
straight-curve $-1 34.019986603973223 -41.805272456752554 5.0944444858727502 1 0 0 I I #
point $-1 78.08343760490736 -41.805272456752554 5.0944444858727485 #
point $-1 57.996508810985532 -41.805272456752554 5.0944444858727485 #
vertex $-1 $353 $476 #
straight-curve $-1 78.083437604907374 0 15.289601889758679 0 1 0 I I #
vertex $-1 $356 $477 #
point $-1 63.013894569769917 -35.587605994386983 9.3864783966463978 #
vertex $-1 $360 $478 #
point $-1 69.039973207946474 -35.587605994386983 9.3864783966463978 #
vertex $-1 $364 $479 #
point $-1 75.066051846123031 -35.587605994386983 9.3864783966463978 #
coedge $-1 $369 $377 $370 $447 forward $263 $-1 #
edge $-1 $449 -36.233016516444771 $378 -17.357944113108807 $369 $480 forward 7 unknown #
edge $-1 $453 -41.805272456752554 $449 -39.677600982969203 $445 $481 forward 7 unknown #
edge $-1 $375 5.1055042789768574 $453 8.7907395050454777 $374 $482 forward 7 unknown #
vertex $-1 $446 $483 #
straight-curve $-1 -63.02849683122156 15.375307137764365 57.38241107395455 0 -0.49999998660252726 0.86602541151947299 I I #
point $-1 -63.02849683122156 41.805272456752554 11.604366663690058 #
point $-1 -44.153424427885597 39.677600982969203 15.289601889758671 #
vertex $-1 $447 $484 #
straight-curve $-1 0 41.805272456752554 15.289601889758679 -1 0 0 I I #
vertex $-1 $384 $485 #
point $-1 -58.753482350554364 39.120668589628821 12.511233393872127 #
vertex $-1 $388 $486 #
point $-1 -53.090960629553578 39.120668589628821 12.511233393872127 #
vertex $-1 $392 $487 #
point $-1 -47.428438908552792 39.120668589628821 12.511233393872127 #
straight-curve $-1 -78.083437604907374 41.805272456752554 0 0 0 -1 I I #
point $-1 -78.083437604907374 -41.805272456752554 -15.289601889758679 #
straight-curve $-1 -78.083437604907374 0 -15.289601889758679 0 1 0 I I #
point $-1 -78.083437604907374 41.805272456752554 -15.289601889758679 #
coedge $-1 $414 $413 $466 $488 reversed $220 $-1 #
coedge $-1 $419 $415 $465 $488 forward $318 $-1 #
vertex $-1 $416 $489 #
straight-curve $-1 0 41.805272456752554 15.289601889758679 -1 0 0 I I #
point $-1 -63.02849683122156 41.805272456752554 15.289601889758679 #
vertex $-1 $488 $490 #
straight-curve $-1 0 -41.805272456752554 15.289601889758679 1 0 0 I I #
straight-curve $-1 -78.083437604907374 -41.805272456752554 0 0 0 -1 I I #
straight-curve $-1 -78.083437604907374 41.805272456752554 0 0 0 -1 I I #
straight-curve $-1 78.083437604907374 -41.805272456752554 0 0 0 -1 I I #
straight-curve $-1 0 -41.805272456752554 15.289601889758679 1 0 0 I I #
point $-1 78.083437604907374 -41.805272456752554 15.289601889758679 #
point $-1 62.013894569769917 -34.905607626216046 8.6551247025884646 #
point $-1 68.039973207946474 -34.905607626216046 8.6551247025884646 #
point $-1 74.066051846123031 -34.905607626216046 8.6551247025884646 #
straight-curve $-1 -26.795480314776789 39.677600982969196 15.289601889758679 1 0 0 I I #
straight-curve $-1 -63.02849683122156 0 15.289601889758679 0 -1 0 I I #
straight-curve $-1 -63.02849683122156 41.805272456752554 6.4988623847132008 0 0 1 I I #
point $-1 -63.02849683122156 39.677600982969203 15.289601889758671 #
point $-1 -63.02849683122156 41.805272456752554 15.289601889758679 #
point $-1 -59.253482350554364 38.687655883869084 12.261233400570864 #
point $-1 -53.590960629553578 38.687655883869084 12.261233400570864 #
point $-1 -47.928438908552792 38.687655883869084 12.261233400570864 #
edge $-1 $467 -41.805272456752554 $470 41.805272456752554 $465 $491 forward 7 unknown #
point $-1 -78.083437604907374 41.805272456752554 15.289601889758679 #
point $-1 -78.083437604907374 -41.805272456752554 15.289601889758679 #
straight-curve $-1 -78.083437604907374 0 15.289601889758679 0 -1 0 I I #
End-of-ACIS-data 