500 0 6 0           
7 Unknown 11 ACIS 5.0 NT 24 Thu Mar 25 15:44:05 1999 
-1 9.9999999999999995e-007 1e-010 
body $-1 $6 $-1 $7 #
body $-1 $8 $-1 $9 #
body $-1 $10 $-1 $11 #
body $-1 $12 $-1 $13 #
body $-1 $14 $-1 $15 #
body $-1 $16 $-1 $17 #
lump $-1 $-1 $18 $0 #
transform $-1 1 0 0 0 1 0 0 0 1 52.224494155705436 35.237468149024203 9.2664636843931945 1 rotate no_reflect no_shear #
lump $-1 $-1 $19 $1 #
transform $-1 1 0 0 0 1 0 0 0 1 52.224494155705436 35.237468149024203 9.2664636843931945 1 rotate no_reflect no_shear #
lump $-1 $-1 $20 $2 #
transform $-1 1 0 0 0 1 0 0 0 1 52.224494155705436 35.237468149024203 9.2664636843931945 1 rotate no_reflect no_shear #
lump $-1 $-1 $21 $3 #
transform $-1 1 0 0 0 1 0 0 0 1 52.224494155705436 35.237468149024203 9.2664636843931945 1 rotate no_reflect no_shear #
lump $-1 $-1 $22 $4 #
transform $-1 1 0 0 0 1 0 0 0 1 52.224494155705436 35.237468149024203 9.2664636843931945 1 rotate no_reflect no_shear #
lump $-1 $-1 $23 $5 #
transform $-1 1 0 0 0 1 0 0 0 1 52.224494155705436 35.237468149024203 9.2664636843931945 1 rotate no_reflect no_shear #
shell $-1 $-1 $-1 $24 $-1 $6 #
shell $-1 $-1 $-1 $25 $-1 $8 #
shell $-1 $-1 $-1 $26 $-1 $10 #
shell $-1 $-1 $-1 $27 $-1 $12 #
shell $-1 $-1 $-1 $28 $-1 $14 #
shell $-1 $-1 $-1 $29 $-1 $16 #
face $-1 $30 $31 $18 $-1 $32 forward single #
face $-1 $33 $34 $19 $-1 $35 reversed single #
face $-1 $36 $37 $20 $-1 $38 reversed single #
face $-1 $39 $40 $21 $-1 $41 forward single #
face $-1 $42 $43 $22 $-1 $44 reversed single #
face $-1 $45 $46 $23 $-1 $47 forward single #
face $-1 $48 $49 $18 $-1 $50 reversed single #
loop $-1 $-1 $51 $24 #
plane-surface $-1 0 0 9.2664636843931945 0 0 1 1 0 0 forward_v I I I I #
face $-1 $52 $53 $19 $-1 $54 reversed single #
loop $-1 $-1 $55 $25 #
plane-surface $-1 -50.085037455014501 -26.88202337913193 0 0 -1 0 0 0 -1 forward_v I I I I #
face $-1 $56 $57 $20 $-1 $58 reversed single #
loop $-1 $-1 $59 $26 #
plane-surface $-1 29.117063867019546 13.153149468590176 150.87111051355311 0 -1 0 -0.5877852598018023 0 -0.80901698891910034 forward_v I I I I #
face $-1 $60 $61 $21 $-1 $62 forward single #
loop $-1 $63 $64 $27 #
cone-surface $-1 48.504304718431271 9.6329438396324747 6.0645793639253354 -0.5877852598018023 0 -0.80901698891910034 0.80901698891910034 0 -0.5877852598018023 1 I I 0 1 1 forward I I I I #
face $-1 $65 $66 $22 $-1 $67 reversed single #
loop $-1 $-1 $68 $28 #
plane-surface $-1 -113.61806988636349 6.1127382106747881 89.477534782895049 0 1 0 -0.5877852598018023 0 0.80901698891910034 forward_v I I I I #
face $-1 $69 $70 $23 $-1 $71 forward single #
loop $-1 $72 $73 $29 #
cone-surface $-1 -48.504304718431278 9.6329438396324747 6.0645793639253318 0.5877852598018023 0 -0.80901698891910034 0.80901698891910034 0 0.5877852598018023 1 I I 0 1 1 forward I I I I #
face $-1 $74 $75 $18 $-1 $76 reversed single #
loop $-1 $-1 $77 $30 #
plane-surface $-1 0 0 -9.2664636843931945 0 0 1 1 0 0 forward_v I I I I #
coedge $-1 $78 $79 $80 $81 forward $31 $-1 #
face $-1 $82 $83 $19 $-1 $84 forward single #
loop $-1 $-1 $85 $33 #
plane-surface $-1 -47.945580754323565 -31.059745764078066 0 -1 0 0 0 0 1 forward_v I I I I #
coedge $-1 $86 $87 $88 $89 forward $34 $-1 #
face $-1 $90 $91 $20 $-1 $92 reversed single #
loop $-1 $-1 $93 $36 #
plane-surface $-1 -32.276511863638504 9.6329438396324818 66.370104494209173 0.5877852598018023 0 0.80901698891910034 0.80901698891910034 0 -0.5877852598018023 forward_v I I I I #
coedge $-1 $94 $95 $96 $97 reversed $37 $-1 #
face $-1 $-1 $98 $21 $-1 $99 forward single #
loop $-1 $100 $101 $39 #
cone-surface $-1 47.442517026151585 9.6329438396324747 4.603154009418958 -0.5877852598018023 0 -0.80901698891910034 0.40450849445955017 0 -0.29389262990090115 1 I I -0.70710678118654746 0.70710678118654746 0.5 forward I I I I #
loop $-1 $-1 $102 $27 #
coedge $-1 $64 $64 $103 $104 reversed $40 $-1 #
face $-1 $105 $106 $22 $-1 $107 reversed single #
loop $-1 $-1 $108 $42 #
plane-surface $-1 -52.224494155705436 9.6329438396324818 4.9765287635511157 -0.5877852598018023 0 0.80901698891910034 0.80901698891910034 0 0.5877852598018023 forward_v I I I I #
coedge $-1 $109 $110 $111 $112 reversed $43 $-1 #
face $-1 $-1 $113 $23 $-1 $114 forward single #
loop $-1 $115 $116 $45 #
cone-surface $-1 -47.442517026151592 9.6329438396324747 4.6031540094189545 0.5877852598018023 0 -0.80901698891910034 0.40450849445955017 0 0.29389262990090115 1 I I -0.70710678118654746 0.70710678118654746 0.5 forward I I I I #
loop $-1 $-1 $117 $29 #
coedge $-1 $73 $73 $118 $119 reversed $46 $-1 #
face $-1 $120 $121 $18 $-1 $122 reversed single #
loop $-1 $-1 $123 $48 #
plane-surface $-1 0 -35.237468149024203 0 0 1 0 0 0 1 forward_v I I I I #
coedge $-1 $124 $125 $126 $127 forward $49 $-1 #
coedge $-1 $128 $51 $129 $130 forward $31 $-1 #
coedge $-1 $51 $128 $131 $132 forward $31 $-1 #
coedge $-1 $133 $134 $51 $81 reversed $135 $-1 #
edge $-1 $136 -35.237468149024203 $137 35.237468149024203 $80 $138 forward 7 unknown #
face $-1 $139 $140 $19 $-1 $141 reversed single #
loop $-1 $-1 $142 $52 #
plane-surface $-1 0 0 9.2664636843931945 0 0 1 1 0 0 forward_v I I I I #
coedge $-1 $143 $144 $145 $146 reversed $53 $-1 #
coedge $-1 $147 $55 $148 $149 reversed $34 $-1 #
coedge $-1 $55 $147 $150 $151 reversed $34 $-1 #
coedge $-1 $144 $143 $55 $89 reversed $53 $-1 #
edge $-1 $152 -9.2664636843931945 $153 9.2664636843931945 $88 $154 forward 7 unknown #
face $-1 $155 $156 $20 $-1 $157 reversed single #
loop $-1 $-1 $158 $56 #
plane-surface $-1 29.117063867019546 6.1127382106747881 150.87111051355311 0 1 0 0.5877852598018023 0 0.80901698891910034 forward_v I I I I #
coedge $-1 $159 $160 $161 $162 reversed $57 $-1 #
coedge $-1 $95 $59 $163 $164 reversed $37 $-1 #
coedge $-1 $59 $94 $159 $165 reversed $37 $-1 #
coedge $-1 $161 $166 $59 $97 forward $167 $-1 #
edge $-1 $168 -37.66596222219566 $169 -31.761373472404909 $96 $170 forward 7 unknown #
loop $-1 $-1 $103 $60 #
plane-surface $-1 -32.276511863638504 9.6329438396324818 66.370104494209173 0.5877852598018023 0 0.80901698891910034 0.80901698891910034 0 -0.5877852598018023 forward_v I I I I #
loop $-1 $-1 $171 $39 #
coedge $-1 $101 $101 $102 $172 reversed $61 $-1 #
coedge $-1 $102 $102 $101 $172 forward $63 $-1 #
coedge $-1 $103 $103 $64 $104 forward $98 $-1 #
edge $-1 $173 0 $173 6.2831853071796004 $103 $174 forward 7 unknown #
face $-1 $175 $176 $22 $-1 $177 reversed single #
loop $-1 $-1 $178 $65 #
plane-surface $-1 -113.61806988636349 13.153149468590176 89.477534782895049 0 -1 0 0.5877852598018023 0 -0.80901698891910034 forward_v I I I I #
coedge $-1 $179 $180 $181 $182 reversed $66 $-1 #
coedge $-1 $110 $68 $183 $184 reversed $43 $-1 #
coedge $-1 $68 $109 $179 $185 reversed $43 $-1 #
coedge $-1 $181 $186 $68 $112 forward $187 $-1 #
edge $-1 $188 4.5845407874763069 $189 10.489129537267061 $111 $190 forward 7 unknown #
loop $-1 $-1 $118 $69 #
plane-surface $-1 -52.224494155705436 9.6329438396324818 4.9765287635511157 -0.5877852598018023 0 0.80901698891910034 0.80901698891910034 0 0.5877852598018023 forward_v I I I I #
loop $-1 $-1 $191 $45 #
coedge $-1 $116 $116 $117 $192 reversed $70 $-1 #
coedge $-1 $117 $117 $116 $192 forward $72 $-1 #
coedge $-1 $118 $118 $73 $119 forward $113 $-1 #
edge $-1 $193 0 $193 6.2831853071796004 $118 $194 forward 7 unknown #
face $-1 $195 $196 $18 $-1 $197 reversed single #
loop $-1 $-1 $198 $74 #
plane-surface $-1 -52.224494155705436 0 0 1 0 0 0 0 -1 forward_v I I I I #
coedge $-1 $199 $131 $200 $201 forward $75 $-1 #
coedge $-1 $202 $77 $199 $203 forward $49 $-1 #
coedge $-1 $77 $202 $204 $205 forward $49 $-1 #
coedge $-1 $134 $133 $77 $127 reversed $135 $-1 #
edge $-1 $206 -35.237468149024203 $207 35.237468149024203 $126 $208 forward 7 unknown #
coedge $-1 $79 $78 $209 $210 forward $31 $-1 #
coedge $-1 $211 $212 $78 $130 reversed $196 $-1 #
edge $-1 $137 -52.224494155705436 $213 52.224494155705436 $129 $214 forward 7 unknown #
coedge $-1 $123 $215 $79 $132 reversed $75 $-1 #
edge $-1 $216 -52.224494155705436 $136 52.224494155705436 $131 $217 forward 7 unknown #
coedge $-1 $126 $80 $215 $218 forward $135 $-1 #
coedge $-1 $80 $126 $211 $219 reversed $135 $-1 #
loop $-1 $-1 $133 $195 #
vertex $-1 $81 $220 #
vertex $-1 $81 $221 #
straight-curve $-1 52.224494155705436 0 9.2664636843931945 0 1 0 I I #
face $-1 $222 $223 $19 $-1 $224 reversed single #
loop $-1 $-1 $225 $82 #
plane-surface $-1 -52.224494155705436 0 0 1 0 0 0 0 -1 forward_v I I I I #
coedge $-1 $150 $226 $144 $227 forward $83 $-1 #
coedge $-1 $88 $85 $228 $229 reversed $53 $-1 #
coedge $-1 $85 $88 $142 $227 reversed $53 $-1 #
coedge $-1 $230 $231 $85 $146 forward $232 $-1 #
edge $-1 $233 -9.2664636843931945 $234 9.2664636843931945 $145 $235 forward 7 unknown #
coedge $-1 $87 $86 $225 $236 reversed $34 $-1 #
coedge $-1 $228 $237 $86 $149 forward $223 $-1 #
edge $-1 $238 -27.181975428198186 $153 -22.903062026816315 $148 $239 forward 7 unknown #
coedge $-1 $240 $142 $87 $151 forward $83 $-1 #
edge $-1 $152 22.903062026816315 $241 27.181975428198186 $150 $242 forward 7 unknown #
vertex $-1 $151 $243 #
vertex $-1 $149 $244 #
straight-curve $-1 -47.945580754323565 -26.88202337913193 0 0 0 -1 I I #
face $-1 $-1 $167 $20 $-1 $245 forward single #
loop $-1 $-1 $246 $90 #
plane-surface $-1 52.224494155705436 0 0 -1 0 0 0 0 1 forward_v I I I I #
coedge $-1 $247 $248 $249 $250 reversed $91 $-1 #
coedge $-1 $251 $93 $95 $165 forward $57 $-1 #
coedge $-1 $93 $251 $247 $252 forward $57 $-1 #
coedge $-1 $249 $96 $93 $162 forward $167 $-1 #
edge $-1 $169 -8.3366775487739346 $253 -1.2962662908585472 $161 $254 forward 7 unknown #
coedge $-1 $255 $256 $94 $164 forward $156 $-1 #
edge $-1 $257 -70.459026493225437 $168 -66.169091572383365 $163 $258 forward 7 unknown #
edge $-1 $169 97.15051518826958 $257 104.44898831141089 $95 $259 forward 7 unknown #
coedge $-1 $96 $249 $255 $260 forward $167 $-1 #
loop $-1 $-1 $249 $155 #
vertex $-1 $164 $261 #
vertex $-1 $97 $262 #
straight-curve $-1 14.558531933509773 13.153149468590176 9.2664636843932016 -1 0 0 I I #
coedge $-1 $171 $171 $-1 $263 reversed $100 $-1 #
edge $-1 $264 0 $264 6.2831853071796004 $101 $265 forward 7 unknown #
vertex $-1 $104 $266 #
ellipse-curve $-1 49.272199780810055 9.6329438396324747 7.1214962239721613 0.5877852598018023 0 0.80901698891910034 0.80901698891910034 0 -0.5877852598018023 1 I I #
face $-1 $-1 $187 $22 $-1 $267 forward single #
loop $-1 $-1 $268 $105 #
plane-surface $-1 -52.224494155705436 0 0 1 0 0 0 0 -1 forward_v I I I I #
coedge $-1 $269 $270 $271 $272 reversed $106 $-1 #
coedge $-1 $273 $108 $110 $185 forward $66 $-1 #
coedge $-1 $108 $273 $269 $274 forward $66 $-1 #
coedge $-1 $271 $111 $108 $182 forward $187 $-1 #
edge $-1 $189 1.2962662908585472 $275 8.3366775487739346 $181 $276 forward 7 unknown #
coedge $-1 $277 $278 $109 $184 forward $176 $-1 #
edge $-1 $279 -39.762238627896409 $188 -35.47230370705433 $183 $280 forward 7 unknown #
edge $-1 $189 -7.2984731231412967 $279 0 $110 $281 forward 7 unknown #
coedge $-1 $111 $271 $277 $282 forward $187 $-1 #
loop $-1 $-1 $271 $175 #
vertex $-1 $184 $283 #
vertex $-1 $112 $284 #
straight-curve $-1 -56.809034943181743 6.1127382106747881 9.2664636843931945 1 0 0 I I #
coedge $-1 $191 $191 $-1 $285 reversed $115 $-1 #
edge $-1 $286 0 $286 6.2831853071796004 $116 $287 forward 7 unknown #
vertex $-1 $119 $288 #
ellipse-curve $-1 -49.272199780810062 9.6329438396324747 7.1214962239721542 -0.5877852598018023 0 0.80901698891910034 0.80901698891910034 0 0.5877852598018023 1 I I #
face $-1 $-1 $135 $18 $-1 $289 reversed single #
loop $-1 $-1 $211 $120 #
plane-surface $-1 0 35.237468149024203 0 0 -1 0 0 0 -1 forward_v I I I I #
coedge $-1 $290 $209 $212 $291 forward $121 $-1 #
coedge $-1 $215 $123 $124 $203 reversed $75 $-1 #
coedge $-1 $209 $290 $123 $201 reversed $121 $-1 #
edge $-1 $216 -9.2664636843931945 $292 9.2664636843931945 $200 $293 forward 7 unknown #
coedge $-1 $125 $124 $290 $294 forward $49 $-1 #
edge $-1 $207 -52.224494155705436 $292 52.224494155705436 $199 $295 forward 7 unknown #
coedge $-1 $212 $211 $125 $205 reversed $196 $-1 #
edge $-1 $296 -52.224494155705436 $206 52.224494155705436 $204 $297 forward 7 unknown #
vertex $-1 $127 $298 #
vertex $-1 $218 $299 #
straight-curve $-1 52.224494155705436 0 -9.2664636843931945 0 -1 0 I I #
coedge $-1 $198 $200 $128 $210 reversed $121 $-1 #
edge $-1 $213 -35.237468149024203 $216 35.237468149024203 $209 $300 forward 7 unknown #
coedge $-1 $204 $129 $134 $219 forward $196 $-1 #
coedge $-1 $129 $204 $198 $291 reversed $196 $-1 #
vertex $-1 $130 $301 #
straight-curve $-1 0 35.237468149024203 9.2664636843931945 -1 0 0 I I #
coedge $-1 $131 $199 $133 $218 reversed $75 $-1 #
vertex $-1 $210 $302 #
straight-curve $-1 0 -35.237468149024203 9.2664636843931945 1 0 0 I I #
edge $-1 $136 -9.2664636843931945 $207 9.2664636843931945 $133 $303 forward 7 unknown #
edge $-1 $137 -9.2664636843931945 $206 9.2664636843931945 $134 $304 forward 7 unknown #
point $-1 52.224494155705436 -35.237468149024203 9.2664636843931945 #
point $-1 52.224494155705436 35.237468149024203 9.2664636843931945 #
face $-1 $-1 $232 $19 $-1 $305 reversed single #
loop $-1 $-1 $228 $139 #
plane-surface $-1 0 0 -9.2664636843931945 0 0 1 1 0 0 forward_v I I I I #
coedge $-1 $306 $307 $147 $236 forward $140 $-1 #
coedge $-1 $142 $240 $230 $308 forward $83 $-1 #
edge $-1 $234 -19.70759526698517 $152 -11.352150497092897 $142 $309 forward 7 unknown #
coedge $-1 $310 $148 $143 $229 forward $223 $-1 #
edge $-1 $153 11.352150497092897 $233 19.70759526698517 $228 $311 forward 7 unknown #
coedge $-1 $312 $145 $226 $308 reversed $232 $-1 #
coedge $-1 $145 $312 $310 $313 reversed $232 $-1 #
loop $-1 $-1 $145 $222 #
vertex $-1 $313 $314 #
vertex $-1 $146 $315 #
straight-curve $-1 -47.945580754323565 -35.237468149024203 0 0 0 1 I I #
edge $-1 $241 -9.2664636843931945 $238 9.2664636843931945 $225 $316 forward 7 unknown #
coedge $-1 $148 $310 $306 $317 forward $223 $-1 #
vertex $-1 $149 $318 #
straight-curve $-1 -25.04251872750725 -26.88202337913193 -9.2664636843931945 1 0 0 I I #
coedge $-1 $226 $150 $307 $319 forward $83 $-1 #
vertex $-1 $319 $320 #
straight-curve $-1 -25.04251872750725 -26.88202337913193 9.2664636843931945 -1 0 0 I I #
point $-1 -47.945580754323565 -26.88202337913193 9.2664636843931945 #
point $-1 -47.945580754323565 -26.88202337913193 -9.2664636843931945 #
plane-surface $-1 0 0 9.2664636843931945 0 0 1 1 0 0 forward_v I I I I #
coedge $-1 $256 $255 $248 $321 forward $156 $-1 #
coedge $-1 $248 $158 $160 $252 reversed $91 $-1 #
coedge $-1 $158 $247 $246 $321 reversed $91 $-1 #
coedge $-1 $166 $161 $158 $250 forward $167 $-1 #
edge $-1 $253 31.761373472404909 $322 37.66596222219566 $249 $323 forward 7 unknown #
coedge $-1 $160 $159 $256 $324 reversed $57 $-1 #
edge $-1 $325 -104.44898831141089 $253 -97.15051518826958 $247 $326 forward 7 unknown #
vertex $-1 $162 $327 #
straight-curve $-1 46.319905405914682 4.8164719198162409 9.2664636843932016 0 -1 0 I I #
coedge $-1 $246 $163 $166 $260 reversed $156 $-1 #
coedge $-1 $163 $246 $251 $324 forward $156 $-1 #
vertex $-1 $164 $328 #
straight-curve $-1 52.224494155705436 13.153149468590176 75.435555256776553 0 0 1 I I #
straight-curve $-1 -32.276511863638504 13.153149468590176 66.370104494209173 0.80901698891910034 0 -0.5877852598018023 I I #
edge $-1 $322 6.1127382106747881 $168 13.153149468590176 $255 $329 forward 7 unknown #
point $-1 52.224494155705436 13.153149468590176 9.2664636843931945 #
point $-1 46.319905405914682 13.153149468590176 9.2664636843931945 #
edge $-1 $330 1 $330 0 $171 $-1 forward 7 unknown #
vertex $-1 $172 $331 #
ellipse-curve $-1 47.736409656052487 9.6329438396324747 5.0076625038785085 0.5877852598018023 0 0.80901698891910034 0.80901698891910034 0 -0.5877852598018023 1 I I #
point $-1 50.081216769729153 9.6329438396324747 6.5337109641703606 #
plane-surface $-1 0 0 9.2664636843931945 0 0 1 1 0 0 forward_v I I I I #
coedge $-1 $278 $277 $270 $332 forward $176 $-1 #
coedge $-1 $270 $178 $180 $274 reversed $106 $-1 #
coedge $-1 $178 $269 $268 $332 reversed $106 $-1 #
coedge $-1 $186 $181 $178 $272 forward $187 $-1 #
edge $-1 $275 -10.489129537267061 $333 -4.5845407874763069 $271 $334 forward 7 unknown #
coedge $-1 $180 $179 $278 $335 reversed $66 $-1 #
edge $-1 $336 0 $275 7.2984731231412967 $269 $337 forward 7 unknown #
vertex $-1 $182 $338 #
straight-curve $-1 -46.319905405914682 4.8164719198162409 9.2664636843931927 0 1 0 I I #
coedge $-1 $268 $183 $186 $282 reversed $176 $-1 #
coedge $-1 $183 $268 $273 $335 forward $176 $-1 #
vertex $-1 $184 $339 #
straight-curve $-1 -52.224494155705436 6.1127382106747881 44.738767391447524 0 0 1 I I #
straight-curve $-1 -52.224494155705436 6.1127382106747881 4.9765287635511157 -0.80901698891910034 0 -0.5877852598018023 I I #
edge $-1 $333 -13.153149468590176 $188 -6.1127382106747881 $277 $340 forward 7 unknown #
point $-1 -52.224494155705436 6.1127382106747881 9.2664636843931945 #
point $-1 -46.319905405914682 6.1127382106747881 9.2664636843931945 #
edge $-1 $341 1 $341 0 $191 $-1 forward 7 unknown #
vertex $-1 $192 $342 #
ellipse-curve $-1 -47.736409656052494 9.6329438396324747 5.007662503878505 -0.5877852598018023 0 0.80901698891910034 0.80901698891910034 0 0.5877852598018023 1 I I #
point $-1 -48.463182791890965 9.6329438396324747 7.7092814837739621 #
plane-surface $-1 52.224494155705436 0 0 -1 0 0 0 0 1 forward_v I I I I #
coedge $-1 $200 $198 $202 $294 reversed $121 $-1 #
edge $-1 $213 -9.2664636843931945 $296 9.2664636843931945 $212 $343 forward 7 unknown #
vertex $-1 $294 $344 #
straight-curve $-1 -52.224494155705436 -35.237468149024203 0 0 0 -1 I I #
edge $-1 $292 -35.237468149024203 $296 35.237468149024203 $290 $345 forward 7 unknown #
straight-curve $-1 0 -35.237468149024203 -9.2664636843931945 -1 0 0 I I #
vertex $-1 $205 $346 #
straight-curve $-1 0 35.237468149024203 -9.2664636843931945 1 0 0 I I #
point $-1 52.224494155705436 35.237468149024203 -9.2664636843931945 #
point $-1 52.224494155705436 -35.237468149024203 -9.2664636843931945 #
straight-curve $-1 -52.224494155705436 0 9.2664636843931945 0 -1 0 I I #
point $-1 -52.224494155705436 35.237468149024203 9.2664636843931945 #
point $-1 -52.224494155705436 -35.237468149024203 9.2664636843931945 #
straight-curve $-1 52.224494155705436 -35.237468149024203 0 0 0 -1 I I #
straight-curve $-1 52.224494155705436 35.237468149024203 0 0 0 -1 I I #
plane-surface $-1 0 -35.237468149024203 0 0 1 0 0 0 1 forward_v I I I I #
coedge $-1 $347 $225 $237 $317 reversed $140 $-1 #
coedge $-1 $225 $347 $240 $319 reversed $140 $-1 #
edge $-1 $348 -52.224494155705436 $234 -47.945580754323565 $230 $349 forward 7 unknown #
straight-curve $-1 -47.945580754323565 -15.529872882039033 9.2664636843931945 0 1 0 I I #
coedge $-1 $237 $228 $231 $313 forward $223 $-1 #
straight-curve $-1 -47.945580754323565 -15.529872882039033 -9.2664636843931945 0 -1 0 I I #
coedge $-1 $231 $230 $347 $350 forward $232 $-1 #
edge $-1 $233 47.945580754323565 $351 52.224494155705436 $231 $352 forward 7 unknown #
point $-1 -47.945580754323565 -35.237468149024203 -9.2664636843931945 #
point $-1 -47.945580754323565 -35.237468149024203 9.2664636843931945 #
straight-curve $-1 -52.224494155705436 -26.88202337913193 0 0 0 -1 I I #
edge $-1 $351 -35.237468149024203 $238 -26.88202337913193 $306 $353 forward 7 unknown #
point $-1 -52.224494155705436 -26.88202337913193 -9.2664636843931945 #
edge $-1 $241 26.88202337913193 $348 35.237468149024203 $307 $354 forward 7 unknown #
point $-1 -52.224494155705436 -26.88202337913193 9.2664636843931945 #
edge $-1 $322 66.169091572383365 $325 70.459026493225437 $246 $355 forward 7 unknown #
vertex $-1 $260 $356 #
straight-curve $-1 14.558531933509773 6.1127382106747881 9.2664636843932016 1 0 0 I I #
edge $-1 $325 1.2962662908585472 $257 8.3366775487739346 $256 $357 forward 7 unknown #
vertex $-1 $324 $358 #
straight-curve $-1 -32.276511863638504 6.1127382106747881 66.370104494209173 -0.80901698891910034 0 0.5877852598018023 I I #
point $-1 46.319905405914682 6.1127382106747881 9.2664636843931945 #
point $-1 52.224494155705443 13.153149468590176 4.9765287635511157 #
straight-curve $-1 52.224494155705436 0 9.2664636843931945 0 1 0 I I #
vertex $-1 $263 $359 #
point $-1 48.545426644971585 9.6329438396324747 4.419877244076706 #
edge $-1 $333 35.47230370705433 $336 39.762238627896409 $268 $360 forward 7 unknown #
vertex $-1 $282 $361 #
straight-curve $-1 -56.809034943181743 13.153149468590176 9.2664636843931945 -1 0 0 I I #
edge $-1 $336 -8.3366775487739346 $279 -1.2962662908585472 $278 $362 forward 7 unknown #
vertex $-1 $335 $363 #
straight-curve $-1 -52.224494155705436 13.153149468590176 4.9765287635511157 0.80901698891910034 0 0.5877852598018023 I I #
point $-1 -46.319905405914682 13.153149468590176 9.2664636843931945 #
point $-1 -52.224494155705436 6.1127382106747881 4.9765287635511157 #
straight-curve $-1 -52.224494155705436 0 9.2664636843931945 0 -1 0 I I #
vertex $-1 $285 $364 #
point $-1 -46.92739266713339 9.6329438396324747 5.5954477636803066 #
straight-curve $-1 -52.224494155705436 35.237468149024203 0 0 0 -1 I I #
point $-1 -52.224494155705436 -35.237468149024203 -9.2664636843931945 #
straight-curve $-1 -52.224494155705436 0 -9.2664636843931945 0 1 0 I I #
point $-1 -52.224494155705436 35.237468149024203 -9.2664636843931945 #
coedge $-1 $307 $306 $312 $350 reversed $140 $-1 #
vertex $-1 $319 $365 #
straight-curve $-1 0 -35.237468149024203 9.2664636843931945 1 0 0 I I #
edge $-1 $348 -9.2664636843931945 $351 9.2664636843931945 $347 $366 forward 7 unknown #
vertex $-1 $317 $367 #
straight-curve $-1 0 -35.237468149024203 -9.2664636843931945 -1 0 0 I I #
straight-curve $-1 -52.224494155705436 0 -9.2664636843931945 0 1 0 I I #
straight-curve $-1 -52.224494155705436 0 9.2664636843931945 0 -1 0 I I #
straight-curve $-1 52.224494155705436 6.1127382106747881 75.435555256776553 0 0 -1 I I #
point $-1 52.224494155705436 6.1127382106747881 9.2664636843931945 #
straight-curve $-1 52.224494155705436 4.8164719198162409 4.9765287635511193 0 1 0 I I #
point $-1 52.224494155705443 6.1127382106747881 4.9765287635511157 #
point $-1 47.148624396250682 9.6329438396324747 4.1986455149594075 #
straight-curve $-1 -52.224494155705436 13.153149468590176 44.738767391447524 0 0 -1 I I #
point $-1 -52.224494155705436 13.153149468590176 9.2664636843931945 #
straight-curve $-1 -52.224494155705436 4.8164719198162409 4.9765287635511184 0 -1 0 I I #
point $-1 -52.224494155705436 13.153149468590176 4.9765287635511157 #
point $-1 -47.148624396250689 9.6329438396324747 4.198645514959404 #
point $-1 -52.224494155705436 -35.237468149024203 9.2664636843931945 #
straight-curve $-1 -52.224494155705436 -35.237468149024203 0 0 0 -1 I I #
point $-1 -52.224494155705436 -35.237468149024203 -9.2664636843931945 #
End-of-ACIS-data 