500 0 18 0           
7 Unknown 11 ACIS 5.0 NT 24 Fri Mar 26 18:41:07 1999 
-1 9.9999999999999995e-007 1e-010 
body $-1 $18 $-1 $19 #
body $-1 $20 $-1 $21 #
body $-1 $22 $-1 $23 #
body $-1 $24 $-1 $25 #
body $-1 $26 $-1 $27 #
body $-1 $28 $-1 $29 #
body $-1 $30 $-1 $31 #
body $-1 $32 $-1 $33 #
body $-1 $34 $-1 $35 #
body $-1 $36 $-1 $37 #
body $-1 $38 $-1 $39 #
body $-1 $40 $-1 $41 #
body $-1 $42 $-1 $43 #
body $-1 $44 $-1 $45 #
body $-1 $46 $-1 $47 #
body $-1 $48 $-1 $49 #
body $-1 $50 $-1 $51 #
body $-1 $52 $-1 $53 #
lump $-1 $-1 $54 $0 #
transform $-1 1 0 0 0 1 0 0 0 1 68.699606311227768 38.434208290502731 7.7822028792687297 1 rotate no_reflect no_shear #
lump $-1 $-1 $55 $1 #
transform $-1 1 0 0 0 1 0 0 0 1 68.699606311227768 38.434208290502731 7.7822028792687297 1 rotate no_reflect no_shear #
lump $-1 $-1 $56 $2 #
transform $-1 1 0 0 0 1 0 0 0 1 68.699606311227768 38.434208290502731 7.7822028792687297 1 rotate no_reflect no_shear #
lump $-1 $-1 $57 $3 #
transform $-1 1 0 0 0 1 0 0 0 1 68.699606311227768 38.434208290502731 7.7822028792687297 1 rotate no_reflect no_shear #
lump $-1 $-1 $58 $4 #
transform $-1 1 0 0 0 1 0 0 0 1 68.699606311227768 38.434208290502731 7.7822028792687297 1 rotate no_reflect no_shear #
lump $-1 $-1 $59 $5 #
transform $-1 1 0 0 0 1 0 0 0 1 68.699606311227768 38.434208290502731 7.7822028792687297 1 rotate no_reflect no_shear #
lump $-1 $-1 $60 $6 #
transform $-1 1 0 0 0 1 0 0 0 1 68.699606311227768 38.434208290502731 7.7822028792687297 1 rotate no_reflect no_shear #
lump $-1 $-1 $61 $7 #
transform $-1 1 0 0 0 1 0 0 0 1 68.699606311227768 38.434208290502731 7.7822028792687297 1 rotate no_reflect no_shear #
lump $-1 $-1 $62 $8 #
transform $-1 1 0 0 0 1 0 0 0 1 68.699606311227768 38.434208290502731 7.7822028792687297 1 rotate no_reflect no_shear #
lump $-1 $-1 $63 $9 #
transform $-1 1 0 0 0 1 0 0 0 1 68.699606311227768 38.434208290502731 7.7822028792687297 1 rotate no_reflect no_shear #
lump $-1 $-1 $64 $10 #
transform $-1 1 0 0 0 1 0 0 0 1 68.699606311227768 38.434208290502731 7.7822028792687297 1 rotate no_reflect no_shear #
lump $-1 $-1 $65 $11 #
transform $-1 1 0 0 0 1 0 0 0 1 68.699606311227768 38.434208290502731 7.7822028792687297 1 rotate no_reflect no_shear #
lump $-1 $-1 $66 $12 #
transform $-1 1 0 0 0 1 0 0 0 1 68.699606311227768 38.434208290502731 7.7822028792687297 1 rotate no_reflect no_shear #
lump $-1 $-1 $67 $13 #
transform $-1 1 0 0 0 1 0 0 0 1 68.699606311227768 38.434208290502731 7.7822028792687297 1 rotate no_reflect no_shear #
lump $-1 $-1 $68 $14 #
transform $-1 1 0 0 0 1 0 0 0 1 68.699606311227768 38.434208290502731 7.7822028792687297 1 rotate no_reflect no_shear #
lump $-1 $-1 $69 $15 #
transform $-1 1 0 0 0 1 0 0 0 1 68.699606311227768 38.434208290502731 7.7822028792687297 1 rotate no_reflect no_shear #
lump $-1 $-1 $70 $16 #
transform $-1 1 0 0 0 1 0 0 0 1 68.699606311227768 38.434208290502731 7.7822028792687297 1 rotate no_reflect no_shear #
lump $-1 $-1 $71 $17 #
transform $-1 1 0 0 0 1 0 0 0 1 68.699606311227768 38.434208290502731 7.7822028792687297 1 rotate no_reflect no_shear #
shell $-1 $-1 $-1 $72 $-1 $18 #
shell $-1 $-1 $-1 $73 $-1 $20 #
shell $-1 $-1 $-1 $74 $-1 $22 #
shell $-1 $-1 $-1 $75 $-1 $24 #
shell $-1 $-1 $-1 $76 $-1 $26 #
shell $-1 $-1 $-1 $77 $-1 $28 #
shell $-1 $-1 $-1 $78 $-1 $30 #
shell $-1 $-1 $-1 $79 $-1 $32 #
shell $-1 $-1 $-1 $80 $-1 $34 #
shell $-1 $-1 $-1 $81 $-1 $36 #
shell $-1 $-1 $-1 $82 $-1 $38 #
shell $-1 $-1 $-1 $83 $-1 $40 #
shell $-1 $-1 $-1 $84 $-1 $42 #
shell $-1 $-1 $-1 $85 $-1 $44 #
shell $-1 $-1 $-1 $86 $-1 $46 #
shell $-1 $-1 $-1 $87 $-1 $48 #
shell $-1 $-1 $-1 $88 $-1 $50 #
shell $-1 $-1 $-1 $89 $-1 $52 #
face $-1 $90 $91 $54 $-1 $92 forward single #
face $-1 $93 $94 $55 $-1 $95 forward single #
face $-1 $96 $97 $56 $-1 $98 reversed single #
face $-1 $99 $100 $57 $-1 $101 forward single #
face $-1 $102 $103 $58 $-1 $104 reversed single #
face $-1 $105 $106 $59 $-1 $107 forward single #
face $-1 $108 $109 $60 $-1 $110 reversed single #
face $-1 $111 $112 $61 $-1 $113 forward single #
face $-1 $114 $115 $62 $-1 $116 reversed single #
face $-1 $117 $118 $63 $-1 $119 forward single #
face $-1 $120 $121 $64 $-1 $122 reversed single #
face $-1 $123 $124 $65 $-1 $125 forward single #
face $-1 $126 $127 $66 $-1 $128 reversed single #
face $-1 $129 $130 $67 $-1 $131 forward single #
face $-1 $132 $133 $68 $-1 $134 reversed single #
face $-1 $135 $136 $69 $-1 $137 forward single #
face $-1 $138 $139 $70 $-1 $140 reversed single #
face $-1 $141 $142 $71 $-1 $143 forward single #
face $-1 $144 $145 $54 $-1 $146 reversed single #
loop $-1 $-1 $147 $72 #
plane-surface $-1 0 0 7.7822028792687297 0 0 1 1 0 0 forward_v I I I I #
face $-1 $148 $149 $55 $-1 $150 reversed single #
loop $-1 $-1 $151 $73 #
plane-surface $-1 -68.699606311227768 0 0 1 0 0 0 0 -1 forward_v I I I I #
face $-1 $152 $153 $56 $-1 $154 reversed single #
loop $-1 $-1 $155 $74 #
plane-surface $-1 -50.05462049258081 91.700493501341299 152.88031591777283 1 0 0 0 -0.75470958851134928 -0.65605901945558964 forward_v I I I I #
face $-1 $156 $157 $57 $-1 $158 forward single #
loop $-1 $159 $160 $75 #
cone-surface $-1 -39.378345921994089 36.475700354717169 5.7061975886942928 0 -0.75470958851134928 -0.65605901945558964 0.5 0 0 1 I I 0 1 0.5 forward I I I I #
face $-1 $161 $162 $58 $-1 $163 reversed single #
loop $-1 $-1 $164 $76 #
plane-surface $-1 -17.587394605035751 91.700493501341299 152.88031591777283 1 0 0 0 -0.75470958851134928 -0.65605901945558964 forward_v I I I I #
face $-1 $165 $166 $59 $-1 $167 forward single #
loop $-1 $168 $169 $77 #
cone-surface $-1 -6.9111200344490413 36.475700354717169 5.7061975886942928 0 -0.75470958851134928 -0.65605901945558964 0.5 0 0 1 I I 0 1 0.5 forward I I I I #
face $-1 $170 $171 $60 $-1 $172 reversed single #
loop $-1 $-1 $173 $78 #
plane-surface $-1 14.87983128250929 91.700493501341299 152.88031591777283 1 0 0 0 -0.75470958851134928 -0.65605901945558964 forward_v I I I I #
face $-1 $174 $175 $61 $-1 $176 forward single #
loop $-1 $177 $178 $79 #
cone-surface $-1 25.556105853096 36.475700354717169 5.7061975886942928 0 -0.75470958851134928 -0.65605901945558964 0.5 0 0 1 I I 0 1 0.5 forward I I I I #
face $-1 $179 $180 $62 $-1 $181 reversed single #
loop $-1 $-1 $182 $80 #
plane-surface $-1 47.347057170054342 91.700493501341299 152.88031591777283 1 0 0 0 -0.75470958851134928 -0.65605901945558964 forward_v I I I I #
face $-1 $183 $184 $63 $-1 $185 forward single #
loop $-1 $186 $187 $81 #
cone-surface $-1 58.023331740641055 36.475700354717169 5.7061975886942928 0 -0.75470958851134928 -0.65605901945558964 0.5 0 0 1 I I 0 1 0.5 forward I I I I #
face $-1 $188 $189 $64 $-1 $190 reversed single #
loop $-1 $-1 $191 $82 #
plane-surface $-1 -28.702071351407387 -142.13071151057954 94.866984870403243 -1 0 0 0 -0.75470958851134928 0.65605901945558964 forward_v I I I I #
face $-1 $192 $193 $65 $-1 $194 forward single #
loop $-1 $195 $196 $83 #
cone-surface $-1 -39.378345921994089 -36.475700354717162 5.7061975886942946 0 0.75470958851134928 -0.65605901945558964 0.5 0 0 1 I I 0 1 0.5 forward I I I I #
face $-1 $197 $198 $66 $-1 $199 reversed single #
loop $-1 $-1 $200 $84 #
plane-surface $-1 3.7651545361376684 -142.13071151057954 94.866984870403243 -1 0 0 0 -0.75470958851134928 0.65605901945558964 forward_v I I I I #
face $-1 $201 $202 $67 $-1 $203 forward single #
loop $-1 $204 $205 $85 #
cone-surface $-1 -6.9111200344490413 -36.475700354717162 5.7061975886942946 0 0.75470958851134928 -0.65605901945558964 0.5 0 0 1 I I 0 1 0.5 forward I I I I #
face $-1 $206 $207 $68 $-1 $208 reversed single #
loop $-1 $-1 $209 $86 #
plane-surface $-1 36.232380423682713 -142.13071151057954 94.866984870403243 -1 0 0 0 -0.75470958851134928 0.65605901945558964 forward_v I I I I #
face $-1 $210 $211 $69 $-1 $212 forward single #
loop $-1 $213 $214 $87 #
cone-surface $-1 25.556105853096 -36.475700354717162 5.7061975886942946 0 0.75470958851134928 -0.65605901945558964 0.5 0 0 1 I I 0 1 0.5 forward I I I I #
face $-1 $215 $216 $70 $-1 $217 reversed single #
loop $-1 $-1 $218 $88 #
plane-surface $-1 58.023331740641055 -38.434208290502738 4.7249921633449929 0 -0.75470958851134928 0.65605901945558964 1 0 0 forward_v I I I I #
face $-1 $219 $220 $71 $-1 $221 forward single #
loop $-1 $222 $223 $89 #
cone-surface $-1 58.023331740641055 -36.475700354717162 5.7061975886942946 0 0.75470958851134928 -0.65605901945558964 0.5 0 0 1 I I 0 1 0.5 forward I I I I #
face $-1 $224 $225 $54 $-1 $226 reversed single #
loop $-1 $-1 $227 $90 #
plane-surface $-1 0 0 -7.7822028792687297 0 0 1 1 0 0 forward_v I I I I #
coedge $-1 $228 $229 $230 $231 forward $91 $-1 #
face $-1 $232 $233 $55 $-1 $234 forward single #
loop $-1 $-1 $235 $93 #
plane-surface $-1 0 38.434208290502731 0 0 -1 0 0 0 -1 forward_v I I I I #
coedge $-1 $236 $237 $238 $239 forward $94 $-1 #
face $-1 $240 $241 $56 $-1 $242 reversed single #
loop $-1 $-1 $243 $96 #
plane-surface $-1 -39.378345921994097 -11.996009718735507 62.738323210714583 0 0.75470958851134928 0.65605901945558964 1 0 0 forward_v I I I I #
coedge $-1 $244 $245 $246 $247 reversed $97 $-1 #
face $-1 $-1 $248 $57 $-1 $249 forward single #
loop $-1 $250 $251 $99 #
cone-surface $-1 -39.378345921994089 35.657311352929149 4.9947829012178326 0 -0.75470958851134928 -0.65605901945558964 0.25 0 0 1 I I -0.70710678118654746 0.70710678118654746 0.25 forward I I I I #
loop $-1 $-1 $252 $75 #
coedge $-1 $160 $160 $253 $254 reversed $100 $-1 #
face $-1 $255 $256 $58 $-1 $257 reversed single #
loop $-1 $-1 $258 $102 #
plane-surface $-1 -6.9111200344490413 -11.996009718735507 62.738323210714583 0 0.75470958851134928 0.65605901945558964 1 0 0 forward_v I I I I #
coedge $-1 $259 $260 $261 $262 reversed $103 $-1 #
face $-1 $-1 $263 $59 $-1 $264 forward single #
loop $-1 $265 $266 $105 #
cone-surface $-1 -6.9111200344490413 35.657311352929149 4.9947829012178326 0 -0.75470958851134928 -0.65605901945558964 0.25 0 0 1 I I -0.70710678118654746 0.70710678118654746 0.25 forward I I I I #
loop $-1 $-1 $267 $77 #
coedge $-1 $169 $169 $268 $269 reversed $106 $-1 #
face $-1 $270 $271 $60 $-1 $272 reversed single #
loop $-1 $-1 $273 $108 #
plane-surface $-1 25.556105853096 -11.996009718735507 62.738323210714583 0 0.75470958851134928 0.65605901945558964 1 0 0 forward_v I I I I #
coedge $-1 $274 $275 $276 $277 reversed $109 $-1 #
face $-1 $-1 $278 $61 $-1 $279 forward single #
loop $-1 $280 $281 $111 #
cone-surface $-1 25.556105853096 35.657311352929149 4.9947829012178326 0 -0.75470958851134928 -0.65605901945558964 0.25 0 0 1 I I -0.70710678118654746 0.70710678118654746 0.25 forward I I I I #
loop $-1 $-1 $282 $79 #
coedge $-1 $178 $178 $283 $284 reversed $112 $-1 #
face $-1 $285 $286 $62 $-1 $287 forward single #
loop $-1 $-1 $288 $114 #
plane-surface $-1 58.023331740641055 -11.996009718735507 62.738323210714583 0 0.75470958851134928 0.65605901945558964 1 0 0 forward_v I I I I #
coedge $-1 $289 $290 $291 $292 reversed $115 $-1 #
face $-1 $-1 $293 $63 $-1 $294 forward single #
loop $-1 $295 $296 $117 #
cone-surface $-1 58.023331740641055 35.657311352929149 4.9947829012178326 0 -0.75470958851134928 -0.65605901945558964 0.25 0 0 1 I I -0.70710678118654746 0.70710678118654746 0.25 forward I I I I #
loop $-1 $-1 $297 $81 #
coedge $-1 $187 $187 $298 $299 reversed $118 $-1 #
face $-1 $300 $301 $64 $-1 $302 reversed single #
loop $-1 $-1 $303 $120 #
plane-surface $-1 -39.378345921994097 -38.434208290502738 4.7249921633449929 0 -0.75470958851134928 0.65605901945558964 1 0 0 forward_v I I I I #
coedge $-1 $304 $305 $306 $307 reversed $121 $-1 #
face $-1 $-1 $308 $65 $-1 $309 forward single #
loop $-1 $310 $311 $123 #
cone-surface $-1 -39.378345921994089 -35.657311352929142 4.9947829012178344 0 0.75470958851134928 -0.65605901945558964 0.25 0 0 1 I I -0.70710678118654746 0.70710678118654746 0.25 forward I I I I #
loop $-1 $-1 $312 $83 #
coedge $-1 $196 $196 $313 $314 reversed $124 $-1 #
face $-1 $315 $316 $66 $-1 $317 reversed single #
loop $-1 $-1 $318 $126 #
plane-surface $-1 -6.9111200344490413 -38.434208290502738 4.7249921633449929 0 -0.75470958851134928 0.65605901945558964 1 0 0 forward_v I I I I #
coedge $-1 $319 $320 $321 $322 reversed $127 $-1 #
face $-1 $-1 $323 $67 $-1 $324 forward single #
loop $-1 $325 $326 $129 #
cone-surface $-1 -6.9111200344490413 -35.657311352929142 4.9947829012178344 0 0.75470958851134928 -0.65605901945558964 0.25 0 0 1 I I -0.70710678118654746 0.70710678118654746 0.25 forward I I I I #
loop $-1 $-1 $327 $85 #
coedge $-1 $205 $205 $328 $329 reversed $130 $-1 #
face $-1 $330 $331 $68 $-1 $332 reversed single #
loop $-1 $-1 $333 $132 #
plane-surface $-1 25.556105853096 -38.434208290502738 4.7249921633449929 0 -0.75470958851134928 0.65605901945558964 1 0 0 forward_v I I I I #
coedge $-1 $334 $335 $336 $337 reversed $133 $-1 #
face $-1 $-1 $338 $69 $-1 $339 forward single #
loop $-1 $340 $341 $135 #
cone-surface $-1 25.556105853096 -35.657311352929142 4.9947829012178344 0 0.75470958851134928 -0.65605901945558964 0.25 0 0 1 I I -0.70710678118654746 0.70710678118654746 0.25 forward I I I I #
loop $-1 $-1 $342 $87 #
coedge $-1 $214 $214 $343 $344 reversed $136 $-1 #
face $-1 $345 $346 $70 $-1 $347 reversed single #
loop $-1 $-1 $348 $138 #
plane-surface $-1 47.347057170054342 -142.13071151057954 94.866984870403243 1 0 0 0 0.75470958851134928 -0.65605901945558964 forward_v I I I I #
coedge $-1 $349 $350 $351 $352 reversed $139 $-1 #
face $-1 $-1 $353 $71 $-1 $354 forward single #
loop $-1 $355 $356 $141 #
cone-surface $-1 58.023331740641055 -35.657311352929142 4.9947829012178344 0 0.75470958851134928 -0.65605901945558964 0.25 0 0 1 I I -0.70710678118654746 0.70710678118654746 0.25 forward I I I I #
loop $-1 $-1 $357 $89 #
coedge $-1 $223 $223 $358 $359 reversed $142 $-1 #
face $-1 $360 $361 $54 $-1 $362 reversed single #
loop $-1 $-1 $363 $144 #
plane-surface $-1 0 -38.434208290502731 0 0 1 0 0 0 1 forward_v I I I I #
coedge $-1 $364 $365 $366 $367 forward $145 $-1 #
coedge $-1 $368 $147 $369 $370 forward $91 $-1 #
coedge $-1 $147 $368 $371 $372 forward $91 $-1 #
coedge $-1 $373 $374 $147 $231 reversed $375 $-1 #
edge $-1 $376 -38.434208290502731 $377 38.434208290502731 $230 $378 forward 7 unknown #
face $-1 $379 $380 $55 $-1 $381 reversed single #
loop $-1 $-1 $238 $148 #
plane-surface $-1 -72.46476084736544 0 3.0121229929133739 0 0 1 1 0 0 forward_v I I I I #
coedge $-1 $382 $383 $237 $384 forward $149 $-1 #
coedge $-1 $385 $151 $386 $387 reversed $94 $-1 #
coedge $-1 $151 $385 $235 $384 reversed $94 $-1 #
coedge $-1 $388 $389 $151 $239 reversed $233 $-1 #
edge $-1 $390 -38.434208290502731 $391 38.434208290502731 $238 $392 forward 7 unknown #
face $-1 $393 $394 $56 $-1 $395 forward single #
loop $-1 $-1 $396 $152 #
plane-surface $-1 -28.702071351407387 91.700493501341299 152.88031591777283 -1 0 0 0 0.75470958851134928 0.65605901945558964 forward_v I I I I #
coedge $-1 $397 $398 $399 $400 reversed $153 $-1 #
coedge $-1 $245 $155 $401 $402 reversed $97 $-1 #
coedge $-1 $155 $244 $397 $403 reversed $97 $-1 #
coedge $-1 $399 $404 $155 $247 forward $394 $-1 #
edge $-1 $405 7.4160384601679183 $406 10.073631122418696 $246 $407 forward 7 unknown #
loop $-1 $-1 $253 $156 #
plane-surface $-1 -39.378345921994097 -11.996009718735507 62.738323210714583 0 0.75470958851134928 0.65605901945558964 1 0 0 forward_v I I I I #
loop $-1 $-1 $408 $99 #
coedge $-1 $251 $251 $252 $409 reversed $157 $-1 #
coedge $-1 $252 $252 $251 $409 forward $159 $-1 #
coedge $-1 $253 $253 $160 $254 forward $248 $-1 #
edge $-1 $410 -6.1275365110318934e-017 $410 6.2831853071796004 $253 $411 forward 7 unknown #
face $-1 $412 $413 $58 $-1 $414 forward single #
loop $-1 $-1 $415 $161 #
plane-surface $-1 3.7651545361376684 91.700493501341299 152.88031591777283 -1 0 0 0 0.75470958851134928 0.65605901945558964 forward_v I I I I #
coedge $-1 $416 $417 $418 $419 reversed $162 $-1 #
coedge $-1 $260 $164 $420 $421 reversed $103 $-1 #
coedge $-1 $164 $259 $416 $422 reversed $103 $-1 #
coedge $-1 $418 $423 $164 $262 forward $413 $-1 #
edge $-1 $424 7.4160384601679183 $425 10.073631122418696 $261 $426 forward 7 unknown #
loop $-1 $-1 $268 $165 #
plane-surface $-1 -6.9111200344490413 -11.996009718735507 62.738323210714583 0 0.75470958851134928 0.65605901945558964 1 0 0 forward_v I I I I #
loop $-1 $-1 $427 $105 #
coedge $-1 $266 $266 $267 $428 reversed $166 $-1 #
coedge $-1 $267 $267 $266 $428 forward $168 $-1 #
coedge $-1 $268 $268 $169 $269 forward $263 $-1 #
edge $-1 $429 -6.1275365110318934e-017 $429 6.2831853071796004 $268 $430 forward 7 unknown #
face $-1 $431 $432 $60 $-1 $433 forward single #
loop $-1 $-1 $434 $170 #
plane-surface $-1 36.232380423682713 91.700493501341299 152.88031591777283 -1 0 0 0 0.75470958851134928 0.65605901945558964 forward_v I I I I #
coedge $-1 $435 $436 $437 $438 reversed $171 $-1 #
coedge $-1 $275 $173 $439 $440 reversed $109 $-1 #
coedge $-1 $173 $274 $435 $441 reversed $109 $-1 #
coedge $-1 $437 $442 $173 $277 forward $432 $-1 #
edge $-1 $443 7.4160384601679183 $444 10.073631122418696 $276 $445 forward 7 unknown #
loop $-1 $-1 $283 $174 #
plane-surface $-1 25.556105853096 -11.996009718735507 62.738323210714583 0 0.75470958851134928 0.65605901945558964 1 0 0 forward_v I I I I #
loop $-1 $-1 $446 $111 #
coedge $-1 $281 $281 $282 $447 reversed $175 $-1 #
coedge $-1 $282 $282 $281 $447 forward $177 $-1 #
coedge $-1 $283 $283 $178 $284 forward $278 $-1 #
edge $-1 $448 -6.1275365110318934e-017 $448 6.2831853071796004 $283 $449 forward 7 unknown #
face $-1 $450 $451 $62 $-1 $452 reversed single #
loop $-1 $-1 $291 $179 #
plane-surface $-1 0 0 7.7822028792687297 0 0 1 1 0 0 forward_v I I I I #
coedge $-1 $453 $454 $455 $456 reversed $180 $-1 #
coedge $-1 $290 $182 $457 $458 reversed $115 $-1 #
coedge $-1 $182 $289 $453 $459 reversed $115 $-1 #
coedge $-1 $455 $460 $182 $292 forward $286 $-1 #
edge $-1 $461 7.4160384601679183 $462 10.073631122418696 $291 $463 forward 7 unknown #
loop $-1 $-1 $298 $183 #
plane-surface $-1 58.023331740641055 -11.996009718735507 62.738323210714583 0 0.75470958851134928 0.65605901945558964 1 0 0 forward_v I I I I #
loop $-1 $-1 $464 $117 #
coedge $-1 $296 $296 $297 $465 reversed $184 $-1 #
coedge $-1 $297 $297 $296 $465 forward $186 $-1 #
coedge $-1 $298 $298 $187 $299 forward $293 $-1 #
edge $-1 $466 -6.1275365110318934e-017 $466 6.2831853071796004 $298 $467 forward 7 unknown #
face $-1 $468 $469 $64 $-1 $470 reversed single #
loop $-1 $-1 $471 $188 #
plane-surface $-1 -50.05462049258081 -142.13071151057954 94.866984870403243 1 0 0 0 0.75470958851134928 -0.65605901945558964 forward_v I I I I #
coedge $-1 $472 $473 $474 $475 reversed $189 $-1 #
coedge $-1 $305 $191 $476 $477 reversed $121 $-1 #
coedge $-1 $191 $304 $472 $478 reversed $121 $-1 #
coedge $-1 $474 $479 $191 $307 forward $480 $-1 #
edge $-1 $481 32.631147464787041 $482 35.288740127037791 $306 $483 forward 7 unknown #
loop $-1 $-1 $313 $192 #
plane-surface $-1 -39.378345921994097 -38.434208290502738 4.7249921633449929 0 -0.75470958851134928 0.65605901945558964 1 0 0 forward_v I I I I #
loop $-1 $-1 $484 $123 #
coedge $-1 $311 $311 $312 $485 reversed $193 $-1 #
coedge $-1 $312 $312 $311 $485 forward $195 $-1 #
coedge $-1 $313 $313 $196 $314 forward $308 $-1 #
edge $-1 $486 -4.0831759830495707e-015 $486 6.283185307179596 $313 $487 forward 7 unknown #
face $-1 $488 $489 $66 $-1 $490 reversed single #
loop $-1 $-1 $491 $197 #
plane-surface $-1 -17.587394605035751 -142.13071151057954 94.866984870403243 1 0 0 0 0.75470958851134928 -0.65605901945558964 forward_v I I I I #
coedge $-1 $492 $493 $494 $495 reversed $198 $-1 #
coedge $-1 $320 $200 $496 $497 reversed $127 $-1 #
coedge $-1 $200 $319 $492 $498 reversed $127 $-1 #
coedge $-1 $494 $499 $200 $322 forward $500 $-1 #
edge $-1 $501 32.631147464787041 $502 35.288740127037791 $321 $503 forward 7 unknown #
loop $-1 $-1 $328 $201 #
plane-surface $-1 -6.9111200344490413 -38.434208290502738 4.7249921633449929 0 -0.75470958851134928 0.65605901945558964 1 0 0 forward_v I I I I #
loop $-1 $-1 $504 $129 #
coedge $-1 $326 $326 $327 $505 reversed $202 $-1 #
coedge $-1 $327 $327 $326 $505 forward $204 $-1 #
coedge $-1 $328 $328 $205 $329 forward $323 $-1 #
edge $-1 $506 -4.0831759830495707e-015 $506 6.283185307179596 $328 $507 forward 7 unknown #
face $-1 $508 $509 $68 $-1 $510 reversed single #
loop $-1 $-1 $511 $206 #
plane-surface $-1 14.87983128250929 -142.13071151057954 94.866984870403243 1 0 0 0 0.75470958851134928 -0.65605901945558964 forward_v I I I I #
coedge $-1 $512 $513 $514 $515 reversed $207 $-1 #
coedge $-1 $335 $209 $516 $517 reversed $133 $-1 #
coedge $-1 $209 $334 $512 $518 reversed $133 $-1 #
coedge $-1 $514 $519 $209 $337 forward $520 $-1 #
edge $-1 $521 32.631147464787041 $522 35.288740127037791 $336 $523 forward 7 unknown #
loop $-1 $-1 $343 $210 #
plane-surface $-1 25.556105853096 -38.434208290502738 4.7249921633449929 0 -0.75470958851134928 0.65605901945558964 1 0 0 forward_v I I I I #
loop $-1 $-1 $524 $135 #
coedge $-1 $341 $341 $342 $525 reversed $211 $-1 #
coedge $-1 $342 $342 $341 $525 forward $213 $-1 #
coedge $-1 $343 $343 $214 $344 forward $338 $-1 #
edge $-1 $526 -4.0831759830495707e-015 $526 6.283185307179596 $343 $527 forward 7 unknown #
face $-1 $528 $529 $70 $-1 $530 forward single #
loop $-1 $-1 $531 $215 #
plane-surface $-1 0 -38.434208290502731 0 0 1 0 0 0 1 forward_v I I I I #
coedge $-1 $532 $533 $534 $535 reversed $216 $-1 #
coedge $-1 $536 $218 $537 $538 reversed $139 $-1 #
coedge $-1 $218 $536 $532 $539 forward $139 $-1 #
coedge $-1 $534 $540 $218 $352 forward $529 $-1 #
edge $-1 $541 -39.687940440907241 $542 -18.335391299733814 $351 $543 forward 7 unknown #
loop $-1 $-1 $358 $219 #
plane-surface $-1 58.023331740641055 -38.434208290502738 4.7249921633449929 0 -0.75470958851134928 0.65605901945558964 1 0 0 forward_v I I I I #
loop $-1 $-1 $544 $141 #
coedge $-1 $356 $356 $357 $545 reversed $220 $-1 #
coedge $-1 $357 $357 $356 $545 forward $222 $-1 #
coedge $-1 $358 $358 $223 $359 forward $353 $-1 #
edge $-1 $546 -4.0831759830495707e-015 $546 6.283185307179596 $358 $547 forward 7 unknown #
face $-1 $548 $549 $54 $-1 $550 reversed single #
loop $-1 $-1 $551 $224 #
plane-surface $-1 -68.699606311227768 0 0 1 0 0 0 0 -1 forward_v I I I I #
coedge $-1 $552 $371 $553 $554 forward $225 $-1 #
coedge $-1 $555 $227 $552 $556 forward $145 $-1 #
coedge $-1 $227 $555 $557 $558 forward $145 $-1 #
coedge $-1 $374 $373 $227 $367 reversed $375 $-1 #
edge $-1 $559 -38.434208290502731 $560 38.434208290502731 $366 $561 forward 7 unknown #
coedge $-1 $229 $228 $562 $563 forward $91 $-1 #
coedge $-1 $564 $565 $228 $370 reversed $549 $-1 #
edge $-1 $377 -68.699606311227768 $566 68.699606311227768 $369 $567 forward 7 unknown #
coedge $-1 $363 $568 $229 $372 reversed $225 $-1 #
edge $-1 $569 -68.699606311227768 $376 68.699606311227768 $371 $570 forward 7 unknown #
coedge $-1 $366 $230 $568 $571 forward $375 $-1 #
coedge $-1 $230 $366 $564 $572 reversed $375 $-1 #
loop $-1 $-1 $373 $548 #
vertex $-1 $231 $573 #
vertex $-1 $231 $574 #
straight-curve $-1 68.699606311227768 0 7.7822028792687297 0 1 0 I I #
face $-1 $575 $576 $55 $-1 $577 reversed single #
loop $-1 $-1 $578 $232 #
plane-surface $-1 -72.46476084736544 0 0.012122992913373043 0 0 1 1 0 0 forward_v I I I I #
coedge $-1 $579 $235 $580 $581 reversed $149 $-1 #
coedge $-1 $235 $579 $388 $582 reversed $149 $-1 #
edge $-1 $390 -3.0121229929133739 $583 -0.012122992913373043 $235 $584 forward 7 unknown #
coedge $-1 $237 $236 $578 $585 forward $94 $-1 #
coedge $-1 $586 $587 $236 $387 forward $588 $-1 #
edge $-1 $589 0.012122992913373043 $391 3.0121229929133739 $386 $590 forward 7 unknown #
coedge $-1 $591 $238 $383 $582 forward $233 $-1 #
coedge $-1 $238 $591 $586 $592 forward $233 $-1 #
vertex $-1 $384 $593 #
vertex $-1 $592 $594 #
straight-curve $-1 -68.699606311227768 0 3.0121229929133739 0 -1 0 I I #
face $-1 $-1 $595 $56 $-1 $596 reversed single #
loop $-1 $-1 $246 $240 #
plane-surface $-1 0 0 7.7822028792687297 0 0 1 1 0 0 forward_v I I I I #
coedge $-1 $597 $598 $599 $600 reversed $241 $-1 #
coedge $-1 $601 $243 $245 $403 forward $153 $-1 #
coedge $-1 $243 $601 $597 $602 forward $153 $-1 #
coedge $-1 $599 $246 $243 $400 forward $394 $-1 #
edge $-1 $406 -30.365447531583762 $603 -9.0128983904103386 $399 $604 forward 7 unknown #
coedge $-1 $605 $606 $244 $402 forward $595 $-1 #
edge $-1 $607 -71.715165795541452 $405 -68.657955079617693 $401 $608 forward 7 unknown #
edge $-1 $406 72.81757270348956 $607 76.868416581005491 $245 $609 forward 7 unknown #
coedge $-1 $246 $599 $605 $610 forward $394 $-1 #
vertex $-1 $402 $611 #
vertex $-1 $247 $612 #
straight-curve $-1 -50.05462049258081 45.850246750670649 7.7822028792687234 0 -1 0 I I #
coedge $-1 $408 $408 $-1 $613 reversed $250 $-1 #
edge $-1 $614 0 $614 6.2831853071796004 $251 $615 forward 7 unknown #
vertex $-1 $254 $616 #
ellipse-curve $-1 -39.378345921994089 37.105411959377349 6.2535975213068484 0 0.75470958851134928 0.65605901945558964 0.5 0 0 1 I I #
face $-1 $-1 $617 $58 $-1 $618 reversed single #
loop $-1 $-1 $261 $255 #
plane-surface $-1 0 0 7.7822028792687297 0 0 1 1 0 0 forward_v I I I I #
coedge $-1 $619 $620 $621 $622 reversed $256 $-1 #
coedge $-1 $623 $258 $260 $422 forward $162 $-1 #
coedge $-1 $258 $623 $619 $624 forward $162 $-1 #
coedge $-1 $621 $261 $258 $419 forward $413 $-1 #
edge $-1 $425 -14.13183458781123 $625 7.220714553362189 $418 $626 forward 7 unknown #
coedge $-1 $627 $628 $259 $421 forward $617 $-1 #
edge $-1 $629 -71.715165795541452 $424 -68.657955079617693 $420 $630 forward 7 unknown #
edge $-1 $425 72.81757270348956 $629 76.868416581005491 $260 $631 forward 7 unknown #
coedge $-1 $261 $621 $627 $632 forward $413 $-1 #
vertex $-1 $262 $633 #
vertex $-1 $262 $634 #
straight-curve $-1 -17.587394605035751 45.850246750670649 7.7822028792687234 0 -1 0 I I #
coedge $-1 $427 $427 $-1 $635 reversed $265 $-1 #
edge $-1 $636 0 $636 6.2831853071796004 $266 $637 forward 7 unknown #
vertex $-1 $269 $638 #
ellipse-curve $-1 -6.9111200344490413 37.105411959377349 6.2535975213068484 0 0.75470958851134928 0.65605901945558964 0.5 0 0 1 I I #
face $-1 $-1 $639 $60 $-1 $640 reversed single #
loop $-1 $-1 $276 $270 #
plane-surface $-1 0 0 7.7822028792687297 0 0 1 1 0 0 forward_v I I I I #
coedge $-1 $641 $642 $643 $644 reversed $271 $-1 #
coedge $-1 $645 $273 $275 $441 forward $171 $-1 #
coedge $-1 $273 $645 $641 $646 forward $171 $-1 #
coedge $-1 $643 $276 $273 $438 forward $432 $-1 #
edge $-1 $444 2.1017783559612901 $647 23.454327497134713 $437 $648 forward 7 unknown #
coedge $-1 $649 $650 $274 $440 forward $639 $-1 #
edge $-1 $651 -71.715165795541452 $443 -68.657955079617693 $439 $652 forward 7 unknown #
edge $-1 $444 72.81757270348956 $651 76.868416581005491 $275 $653 forward 7 unknown #
coedge $-1 $276 $643 $649 $654 forward $432 $-1 #
vertex $-1 $277 $655 #
vertex $-1 $277 $656 #
straight-curve $-1 14.87983128250929 45.850246750670649 7.7822028792687234 0 -1 0 I I #
coedge $-1 $446 $446 $-1 $657 reversed $280 $-1 #
edge $-1 $658 0 $658 6.2831853071796004 $281 $659 forward 7 unknown #
vertex $-1 $284 $660 #
ellipse-curve $-1 25.556105853096 37.105411959377349 6.2535975213068484 0 0.75470958851134928 0.65605901945558964 0.5 0 0 1 I I #
face $-1 $-1 $661 $62 $-1 $662 reversed single #
loop $-1 $-1 $663 $285 #
plane-surface $-1 68.699606311227768 0 0 -1 0 0 0 0 1 forward_v I I I I #
coedge $-1 $664 $288 $290 $459 forward $180 $-1 #
coedge $-1 $288 $664 $663 $665 reversed $180 $-1 #
coedge $-1 $666 $291 $288 $456 forward $286 $-1 #
edge $-1 $462 18.335391299733814 $667 39.687940440907241 $455 $668 forward 7 unknown #
coedge $-1 $669 $670 $289 $458 forward $661 $-1 #
edge $-1 $671 -71.715165795541452 $461 -68.657955079617693 $457 $672 forward 7 unknown #
edge $-1 $462 72.81757270348956 $671 76.868416581005491 $290 $673 forward 7 unknown #
coedge $-1 $291 $666 $669 $674 forward $286 $-1 #
vertex $-1 $458 $675 #
vertex $-1 $292 $676 #
straight-curve $-1 47.347057170054342 45.850246750670649 7.7822028792687234 0 -1 0 I I #
coedge $-1 $464 $464 $-1 $677 reversed $295 $-1 #
edge $-1 $678 0 $678 6.2831853071796004 $296 $679 forward 7 unknown #
vertex $-1 $299 $680 #
ellipse-curve $-1 58.023331740641055 37.105411959377349 6.2535975213068484 0 0.75470958851134928 0.65605901945558964 0.5 0 0 1 I I #
face $-1 $-1 $480 $64 $-1 $681 forward single #
loop $-1 $-1 $682 $300 #
plane-surface $-1 0 -38.434208290502731 0 0 1 0 0 0 1 forward_v I I I I #
coedge $-1 $683 $684 $685 $686 reversed $301 $-1 #
coedge $-1 $687 $303 $305 $478 forward $189 $-1 #
coedge $-1 $303 $687 $683 $688 forward $189 $-1 #
coedge $-1 $685 $306 $303 $475 forward $480 $-1 #
edge $-1 $482 9.0128983904103386 $689 30.365447531583762 $474 $690 forward 7 unknown #
coedge $-1 $691 $692 $304 $477 forward $469 $-1 #
edge $-1 $693 -42.708500271856622 $481 -39.651289555932891 $476 $694 forward 7 unknown #
edge $-1 $482 -4.0508438775158941 $693 -1.0694430631949516e-014 $305 $695 forward 7 unknown #
coedge $-1 $306 $685 $691 $696 forward $480 $-1 #
loop $-1 $-1 $685 $468 #
vertex $-1 $477 $697 #
vertex $-1 $307 $698 #
straight-curve $-1 -28.702071351407387 -71.065355755289772 7.7822028792687306 0 1 0 I I #
coedge $-1 $484 $484 $-1 $699 reversed $310 $-1 #
edge $-1 $700 0 $700 6.2831853071796004 $311 $701 forward 7 unknown #
vertex $-1 $314 $702 #
ellipse-curve $-1 -39.378345921994089 -37.105411959377356 6.2535975213068653 0 -0.75470958851134928 0.65605901945558964 0.5 0 0 1 I I #
face $-1 $-1 $500 $66 $-1 $703 forward single #
loop $-1 $-1 $704 $315 #
plane-surface $-1 0 -38.434208290502731 0 0 1 0 0 0 1 forward_v I I I I #
coedge $-1 $705 $706 $707 $708 reversed $316 $-1 #
coedge $-1 $709 $318 $320 $498 forward $198 $-1 #
coedge $-1 $318 $709 $705 $710 forward $198 $-1 #
coedge $-1 $707 $321 $318 $495 forward $500 $-1 #
edge $-1 $502 -7.220714553362189 $711 14.13183458781123 $494 $712 forward 7 unknown #
coedge $-1 $713 $714 $319 $497 forward $489 $-1 #
edge $-1 $715 -42.708500271856622 $501 -39.651289555932891 $496 $716 forward 7 unknown #
edge $-1 $502 -4.0508438775158941 $715 -1.0694430631949516e-014 $320 $717 forward 7 unknown #
coedge $-1 $321 $707 $713 $718 forward $500 $-1 #
loop $-1 $-1 $707 $488 #
vertex $-1 $497 $719 #
vertex $-1 $322 $720 #
straight-curve $-1 3.7651545361376684 -71.065355755289772 7.7822028792687306 0 1 0 I I #
coedge $-1 $504 $504 $-1 $721 reversed $325 $-1 #
edge $-1 $722 0 $722 6.2831853071796004 $326 $723 forward 7 unknown #
vertex $-1 $329 $724 #
ellipse-curve $-1 -6.9111200344490413 -37.105411959377356 6.2535975213068653 0 -0.75470958851134928 0.65605901945558964 0.5 0 0 1 I I #
face $-1 $-1 $520 $68 $-1 $725 forward single #
loop $-1 $-1 $726 $330 #
plane-surface $-1 0 -38.434208290502731 0 0 1 0 0 0 1 forward_v I I I I #
coedge $-1 $727 $728 $729 $730 reversed $331 $-1 #
coedge $-1 $731 $333 $335 $518 forward $207 $-1 #
coedge $-1 $333 $731 $727 $732 forward $207 $-1 #
coedge $-1 $729 $336 $333 $515 forward $520 $-1 #
edge $-1 $522 -23.454327497134713 $733 -2.1017783559612901 $514 $734 forward 7 unknown #
coedge $-1 $735 $736 $334 $517 forward $509 $-1 #
edge $-1 $737 -42.708500271856622 $521 -39.651289555932891 $516 $738 forward 7 unknown #
edge $-1 $522 -4.0508438775158941 $737 -1.0694430631949516e-014 $335 $739 forward 7 unknown #
coedge $-1 $336 $729 $735 $740 forward $520 $-1 #
loop $-1 $-1 $729 $508 #
vertex $-1 $517 $741 #
vertex $-1 $337 $742 #
straight-curve $-1 36.232380423682713 -71.065355755289772 7.7822028792687306 0 1 0 I I #
coedge $-1 $524 $524 $-1 $743 reversed $340 $-1 #
edge $-1 $744 0 $744 6.2831853071796004 $341 $745 forward 7 unknown #
vertex $-1 $344 $746 #
ellipse-curve $-1 25.556105853096 -37.105411959377356 6.2535975213068653 0 -0.75470958851134928 0.65605901945558964 0.5 0 0 1 I I #
face $-1 $-1 $747 $70 $-1 $748 reversed single #
loop $-1 $-1 $534 $345 #
plane-surface $-1 0 0 7.7822028792687297 0 0 1 1 0 0 forward_v I I I I #
coedge $-1 $749 $750 $533 $751 forward $346 $-1 #
coedge $-1 $533 $348 $350 $539 reversed $216 $-1 #
coedge $-1 $348 $532 $531 $751 reversed $216 $-1 #
coedge $-1 $752 $351 $348 $535 forward $529 $-1 #
edge $-1 $542 -35.288740127037791 $753 -32.631147464787041 $534 $754 forward 7 unknown #
coedge $-1 $350 $349 $749 $755 reversed $139 $-1 #
coedge $-1 $756 $757 $349 $538 forward $747 $-1 #
edge $-1 $758 -10.824556056650824 $541 -6.7737121791349431 $537 $759 forward 7 unknown #
edge $-1 $760 1.0694430631949516e-014 $542 4.0508438775158941 $532 $761 forward 7 unknown #
coedge $-1 $351 $752 $756 $762 forward $529 $-1 #
vertex $-1 $538 $763 #
vertex $-1 $352 $764 #
straight-curve $-1 29.011665870320527 -35.776615628251982 7.7822028792687279 -1 0 0 I I #
coedge $-1 $544 $544 $-1 $765 reversed $355 $-1 #
edge $-1 $766 0 $766 6.2831853071796004 $356 $767 forward 7 unknown #
vertex $-1 $359 $768 #
ellipse-curve $-1 58.023331740641055 -37.105411959377356 6.2535975213068653 0 -0.75470958851134928 0.65605901945558964 0.5 0 0 1 I I #
face $-1 $-1 $375 $54 $-1 $769 reversed single #
loop $-1 $-1 $564 $360 #
plane-surface $-1 0 38.434208290502731 0 0 -1 0 0 0 -1 forward_v I I I I #
coedge $-1 $770 $562 $565 $771 forward $361 $-1 #
coedge $-1 $568 $363 $364 $556 reversed $225 $-1 #
coedge $-1 $562 $770 $363 $554 reversed $361 $-1 #
edge $-1 $569 -7.7822028792687297 $772 7.7822028792687297 $553 $773 forward 7 unknown #
coedge $-1 $365 $364 $770 $774 forward $145 $-1 #
edge $-1 $560 -68.699606311227768 $772 68.699606311227768 $552 $775 forward 7 unknown #
coedge $-1 $565 $564 $365 $558 reversed $549 $-1 #
edge $-1 $776 -68.699606311227768 $559 68.699606311227768 $557 $777 forward 7 unknown #
vertex $-1 $367 $778 #
vertex $-1 $571 $779 #
straight-curve $-1 68.699606311227768 0 -7.7822028792687297 0 -1 0 I I #
coedge $-1 $551 $553 $368 $563 reversed $361 $-1 #
edge $-1 $566 -38.434208290502731 $569 38.434208290502731 $562 $780 forward 7 unknown #
coedge $-1 $557 $369 $374 $572 forward $549 $-1 #
coedge $-1 $369 $557 $551 $771 reversed $549 $-1 #
vertex $-1 $370 $781 #
straight-curve $-1 0 38.434208290502731 7.7822028792687297 -1 0 0 I I #
coedge $-1 $371 $552 $373 $571 reversed $225 $-1 #
vertex $-1 $563 $782 #
straight-curve $-1 0 -38.434208290502731 7.7822028792687297 1 0 0 I I #
edge $-1 $376 -7.7822028792687297 $560 7.7822028792687297 $373 $783 forward 7 unknown #
edge $-1 $377 -7.7822028792687297 $559 7.7822028792687297 $374 $784 forward 7 unknown #
point $-1 68.699606311227768 -38.434208290502731 7.7822028792687297 #
point $-1 68.699606311227768 38.434208290502731 7.7822028792687297 #
face $-1 $-1 $588 $55 $-1 $785 reversed single #
loop $-1 $-1 $786 $379 #
plane-surface $-1 -76.229915383503112 0 1.5121229929133735 1 0 0 0 0 -1 forward_v I I I I #
coedge $-1 $787 $580 $385 $585 reversed $380 $-1 #
coedge $-1 $383 $382 $786 $788 reversed $149 $-1 #
coedge $-1 $578 $789 $382 $581 forward $380 $-1 #
edge $-1 $790 -3.7651545361376719 $583 3.7651545361376719 $382 $791 forward 7 unknown #
edge $-1 $390 -3.7651545361376719 $792 3.7651545361376719 $383 $793 forward 7 unknown #
vertex $-1 $384 $794 #
straight-curve $-1 -68.699606311227768 38.434208290502731 0 0 0 -1 I I #
edge $-1 $589 -38.434208290502731 $583 38.434208290502731 $578 $795 forward 7 unknown #
coedge $-1 $796 $386 $389 $592 reversed $588 $-1 #
coedge $-1 $386 $796 $787 $797 reversed $588 $-1 #
loop $-1 $-1 $386 $575 #
vertex $-1 $387 $798 #
straight-curve $-1 -68.699606311227768 -38.434208290502731 0 0 0 1 I I #
coedge $-1 $389 $388 $799 $800 forward $233 $-1 #
edge $-1 $801 -3.7651545361376719 $391 3.7651545361376719 $586 $802 forward 7 unknown #
point $-1 -68.699606311227768 38.434208290502731 3.0121229929133739 #
point $-1 -68.699606311227768 -38.434208290502731 3.0121229929133739 #
loop $-1 $-1 $401 $393 #
plane-surface $-1 0 38.434208290502731 0 0 -1 0 0 0 -1 forward_v I I I I #
coedge $-1 $598 $396 $398 $602 reversed $241 $-1 #
coedge $-1 $396 $597 $803 $804 reversed $241 $-1 #
coedge $-1 $404 $399 $396 $600 forward $394 $-1 #
edge $-1 $603 -10.073631122418696 $805 -7.4160384601679183 $599 $806 forward 7 unknown #
coedge $-1 $398 $397 $606 $807 reversed $153 $-1 #
edge $-1 $808 -76.868416581005491 $603 -72.81757270348956 $597 $809 forward 7 unknown #
vertex $-1 $400 $810 #
straight-curve $-1 -19.689172960997048 35.776615628251946 7.7822028792687306 1 0 0 I I #
coedge $-1 $803 $401 $404 $610 reversed $595 $-1 #
coedge $-1 $401 $803 $601 $807 forward $595 $-1 #
vertex $-1 $402 $811 #
straight-curve $-1 -50.05462049258081 38.434208290502731 76.440157958886417 0 0 1 I I #
straight-curve $-1 -50.05462049258081 -11.996009718735507 62.738323210714583 0 0.65605901945558964 -0.75470958851134928 I I #
edge $-1 $805 28.702071351407387 $405 50.05462049258081 $605 $812 forward 7 unknown #
point $-1 -50.05462049258081 38.434208290502731 7.7822028792687297 #
point $-1 -50.05462049258081 35.776615628251953 7.7822028792687306 #
edge $-1 $813 1 $813 0 $408 $-1 forward 7 unknown #
vertex $-1 $409 $814 #
ellipse-curve $-1 -39.378345921994089 35.845988750056989 5.1587976560817301 0 0.75470958851134928 0.65605901945558964 0.5 0 0 1 I I #
point $-1 -38.878345921994089 37.105411959377356 6.2535975213068546 #
loop $-1 $-1 $420 $412 #
plane-surface $-1 0 38.434208290502731 0 0 -1 0 0 0 -1 forward_v I I I I #
coedge $-1 $620 $415 $417 $624 reversed $256 $-1 #
coedge $-1 $415 $619 $815 $816 reversed $256 $-1 #
coedge $-1 $423 $418 $415 $622 forward $413 $-1 #
edge $-1 $625 -10.073631122418696 $817 -7.4160384601679183 $621 $818 forward 7 unknown #
coedge $-1 $417 $416 $628 $819 reversed $162 $-1 #
edge $-1 $820 -76.868416581005491 $625 -72.81757270348956 $619 $821 forward 7 unknown #
vertex $-1 $419 $822 #
straight-curve $-1 -3.4555600172245207 35.776615628251946 7.7822028792687306 1 0 0 I I #
coedge $-1 $815 $420 $423 $632 reversed $617 $-1 #
coedge $-1 $420 $815 $623 $819 forward $617 $-1 #
vertex $-1 $421 $823 #
straight-curve $-1 -17.587394605035751 38.434208290502731 76.440157958886417 0 0 1 I I #
straight-curve $-1 -17.587394605035751 -11.996009718735507 62.738323210714583 0 0.65605901945558964 -0.75470958851134928 I I #
edge $-1 $817 -3.7651545361376684 $424 17.587394605035751 $627 $824 forward 7 unknown #
point $-1 -17.587394605035751 38.434208290502731 7.7822028792687297 #
point $-1 -17.587394605035751 35.776615628251953 7.7822028792687306 #
edge $-1 $825 1 $825 0 $427 $-1 forward 7 unknown #
vertex $-1 $428 $826 #
ellipse-curve $-1 -6.9111200344490413 35.845988750056989 5.1587976560817301 0 0.75470958851134928 0.65605901945558964 0.5 0 0 1 I I #
point $-1 -6.4111200344490413 37.105411959377356 6.2535975213068546 #
loop $-1 $-1 $439 $431 #
plane-surface $-1 0 38.434208290502731 0 0 -1 0 0 0 -1 forward_v I I I I #
coedge $-1 $642 $434 $436 $646 reversed $271 $-1 #
coedge $-1 $434 $641 $827 $828 reversed $271 $-1 #
coedge $-1 $442 $437 $434 $644 forward $432 $-1 #
edge $-1 $647 -10.073631122418696 $829 -7.4160384601679183 $643 $830 forward 7 unknown #
coedge $-1 $436 $435 $650 $831 reversed $171 $-1 #
edge $-1 $832 -76.868416581005491 $647 -72.81757270348956 $641 $833 forward 7 unknown #
vertex $-1 $438 $834 #
straight-curve $-1 12.778052926548 35.776615628251946 7.7822028792687306 1 0 0 I I #
coedge $-1 $827 $439 $442 $654 reversed $639 $-1 #
coedge $-1 $439 $827 $645 $831 forward $639 $-1 #
vertex $-1 $440 $835 #
straight-curve $-1 14.87983128250929 38.434208290502731 76.440157958886417 0 0 1 I I #
straight-curve $-1 14.87983128250929 -11.996009718735507 62.738323210714583 0 0.65605901945558964 -0.75470958851134928 I I #
edge $-1 $829 -36.232380423682713 $443 -14.87983128250929 $649 $836 forward 7 unknown #
point $-1 14.87983128250929 38.434208290502731 7.7822028792687297 #
point $-1 14.87983128250929 35.776615628251953 7.7822028792687306 #
edge $-1 $837 1 $837 0 $446 $-1 forward 7 unknown #
vertex $-1 $447 $838 #
ellipse-curve $-1 25.556105853096 35.845988750056989 5.1587976560817301 0 0.75470958851134928 0.65605901945558964 0.5 0 0 1 I I #
point $-1 26.056105853096 37.105411959377356 6.2535975213068546 #
loop $-1 $-1 $457 $450 #
plane-surface $-1 0 38.434208290502731 0 0 -1 0 0 0 -1 forward_v I I I I #
coedge $-1 $839 $840 $454 $665 forward $451 $-1 #
coedge $-1 $454 $453 $670 $841 reversed $180 $-1 #
edge $-1 $667 45.207920469637656 $842 49.25876434715358 $663 $843 forward 7 unknown #
coedge $-1 $460 $455 $840 $844 forward $286 $-1 #
vertex $-1 $844 $845 #
straight-curve $-1 29.011665870320527 35.776615628251946 7.7822028792687306 1 0 0 I I #
coedge $-1 $846 $457 $460 $674 reversed $661 $-1 #
coedge $-1 $457 $846 $664 $841 forward $661 $-1 #
vertex $-1 $458 $847 #
straight-curve $-1 47.347057170054342 38.434208290502731 76.440157958886417 0 0 1 I I #
straight-curve $-1 47.347057170054342 -11.996009718735507 62.738323210714583 0 0.65605901945558964 -0.75470958851134928 I I #
edge $-1 $848 -68.699606311227768 $461 -47.347057170054342 $669 $849 forward 7 unknown #
point $-1 47.347057170054342 38.434208290502731 7.7822028792687297 #
point $-1 47.347057170054342 35.776615628251953 7.7822028792687306 #
edge $-1 $850 1 $850 0 $464 $-1 forward 7 unknown #
vertex $-1 $465 $851 #
ellipse-curve $-1 58.023331740641055 35.845988750056989 5.1587976560817301 0 0.75470958851134928 0.65605901945558964 0.5 0 0 1 I I #
point $-1 58.523331740641055 37.105411959377356 6.2535975213068546 #
plane-surface $-1 0 0 7.7822028792687297 0 0 1 1 0 0 forward_v I I I I #
coedge $-1 $692 $691 $684 $852 forward $469 $-1 #
coedge $-1 $684 $471 $473 $688 reversed $301 $-1 #
coedge $-1 $471 $683 $682 $852 reversed $301 $-1 #
coedge $-1 $479 $474 $471 $686 forward $480 $-1 #
edge $-1 $689 -35.288740127037791 $853 -32.631147464787041 $685 $854 forward 7 unknown #
coedge $-1 $473 $472 $692 $855 reversed $189 $-1 #
edge $-1 $856 1.0694430631949516e-014 $689 4.0508438775158941 $683 $857 forward 7 unknown #
vertex $-1 $475 $858 #
straight-curve $-1 -19.689172960997048 -35.776615628251982 7.7822028792687279 -1 0 0 I I #
coedge $-1 $682 $476 $479 $696 reversed $469 $-1 #
coedge $-1 $476 $682 $687 $855 forward $469 $-1 #
vertex $-1 $477 $859 #
straight-curve $-1 -28.702071351407387 -38.434208290502731 47.433492435201622 0 0 1 I I #
straight-curve $-1 -28.702071351407387 -38.434208290502738 4.7249921633449929 0 -0.65605901945558964 -0.75470958851134928 I I #
edge $-1 $853 -50.05462049258081 $481 -28.702071351407387 $691 $860 forward 7 unknown #
point $-1 -28.702071351407387 -38.434208290502731 7.7822028792687297 #
point $-1 -28.702071351407387 -35.776615628251982 7.7822028792687297 #
edge $-1 $861 1 $861 0 $484 $-1 forward 7 unknown #
vertex $-1 $485 $862 #
ellipse-curve $-1 -39.378345921994089 -35.845988750056982 5.1587976560817319 0 -0.75470958851134928 0.65605901945558964 0.5 0 0 1 I I #
point $-1 -38.878345921994089 -37.105411959377349 6.2535975213068564 #
plane-surface $-1 0 0 7.7822028792687297 0 0 1 1 0 0 forward_v I I I I #
coedge $-1 $714 $713 $706 $863 forward $489 $-1 #
coedge $-1 $706 $491 $493 $710 reversed $316 $-1 #
coedge $-1 $491 $705 $704 $863 reversed $316 $-1 #
coedge $-1 $499 $494 $491 $708 forward $500 $-1 #
edge $-1 $711 -35.288740127037791 $864 -32.631147464787041 $707 $865 forward 7 unknown #
coedge $-1 $493 $492 $714 $866 reversed $198 $-1 #
edge $-1 $867 1.0694430631949516e-014 $711 4.0508438775158941 $705 $868 forward 7 unknown #
vertex $-1 $495 $869 #
straight-curve $-1 -3.4555600172245207 -35.776615628251982 7.7822028792687279 -1 0 0 I I #
coedge $-1 $704 $496 $499 $718 reversed $489 $-1 #
coedge $-1 $496 $704 $709 $866 forward $489 $-1 #
vertex $-1 $497 $870 #
straight-curve $-1 3.7651545361376684 -38.434208290502731 47.433492435201622 0 0 1 I I #
straight-curve $-1 3.7651545361376684 -38.434208290502738 4.7249921633449929 0 -0.65605901945558964 -0.75470958851134928 I I #
edge $-1 $864 -17.587394605035751 $501 3.7651545361376684 $713 $871 forward 7 unknown #
point $-1 3.7651545361376684 -38.434208290502731 7.7822028792687297 #
point $-1 3.7651545361376684 -35.776615628251982 7.7822028792687297 #
edge $-1 $872 1 $872 0 $504 $-1 forward 7 unknown #
vertex $-1 $505 $873 #
ellipse-curve $-1 -6.9111200344490413 -35.845988750056982 5.1587976560817319 0 -0.75470958851134928 0.65605901945558964 0.5 0 0 1 I I #
point $-1 -6.4111200344490413 -37.105411959377349 6.2535975213068564 #
plane-surface $-1 0 0 7.7822028792687297 0 0 1 1 0 0 forward_v I I I I #
coedge $-1 $736 $735 $728 $874 forward $509 $-1 #
coedge $-1 $728 $511 $513 $732 reversed $331 $-1 #
coedge $-1 $511 $727 $726 $874 reversed $331 $-1 #
coedge $-1 $519 $514 $511 $730 forward $520 $-1 #
edge $-1 $733 -35.288740127037791 $875 -32.631147464787041 $729 $876 forward 7 unknown #
coedge $-1 $513 $512 $736 $877 reversed $207 $-1 #
edge $-1 $878 1.0694430631949516e-014 $733 4.0508438775158941 $727 $879 forward 7 unknown #
vertex $-1 $515 $880 #
straight-curve $-1 12.778052926548 -35.776615628251982 7.7822028792687279 -1 0 0 I I #
coedge $-1 $726 $516 $519 $740 reversed $509 $-1 #
coedge $-1 $516 $726 $731 $877 forward $509 $-1 #
vertex $-1 $517 $881 #
straight-curve $-1 36.232380423682713 -38.434208290502731 47.433492435201622 0 0 1 I I #
straight-curve $-1 36.232380423682713 -38.434208290502738 4.7249921633449929 0 -0.65605901945558964 -0.75470958851134928 I I #
edge $-1 $875 14.87983128250929 $521 36.232380423682713 $735 $882 forward 7 unknown #
point $-1 36.232380423682713 -38.434208290502731 7.7822028792687297 #
point $-1 36.232380423682713 -35.776615628251982 7.7822028792687297 #
edge $-1 $883 1 $883 0 $524 $-1 forward 7 unknown #
vertex $-1 $525 $884 #
ellipse-curve $-1 25.556105853096 -35.845988750056982 5.1587976560817319 0 -0.75470958851134928 0.65605901945558964 0.5 0 0 1 I I #
point $-1 26.056105853096 -37.105411959377349 6.2535975213068564 #
loop $-1 $-1 $537 $528 #
plane-surface $-1 68.699606311227768 0 0 -1 0 0 0 0 1 forward_v I I I I #
coedge $-1 $885 $531 $536 $755 forward $346 $-1 #
coedge $-1 $531 $885 $752 $886 reversed $346 $-1 #
edge $-1 $753 39.651289555932891 $760 42.708500271856622 $531 $887 forward 7 unknown #
coedge $-1 $540 $534 $750 $886 forward $529 $-1 #
vertex $-1 $886 $888 #
straight-curve $-1 47.347057170054342 -71.065355755289772 7.7822028792687306 0 -1 0 I I #
edge $-1 $760 18.335391299733814 $758 39.687940440907241 $749 $889 forward 7 unknown #
coedge $-1 $757 $537 $540 $762 reversed $747 $-1 #
coedge $-1 $537 $756 $885 $890 forward $747 $-1 #
vertex $-1 $755 $891 #
straight-curve $-1 68.699606311227768 -31.332660657934326 12.894388410677978 0 0.65605901945558975 0.75470958851134939 I I #
vertex $-1 $755 $892 #
straight-curve $-1 47.347057170054342 -38.434208290502738 4.7249921633449929 0 0.65605901945558964 0.75470958851134928 I I #
edge $-1 $893 -38.434208290502731 $541 -35.776615628251982 $756 $894 forward 7 unknown #
point $-1 68.699606311227768 -35.776615628251982 7.7822028792687297 #
point $-1 47.347057170054342 -35.776615628251982 7.7822028792687297 #
edge $-1 $895 1 $895 0 $544 $-1 forward 7 unknown #
vertex $-1 $545 $896 #
ellipse-curve $-1 58.023331740641055 -35.845988750056982 5.1587976560817319 0 -0.75470958851134928 0.65605901945558964 0.5 0 0 1 I I #
point $-1 58.523331740641055 -37.105411959377349 6.2535975213068564 #
plane-surface $-1 68.699606311227768 0 0 -1 0 0 0 0 1 forward_v I I I I #
coedge $-1 $553 $551 $555 $774 reversed $361 $-1 #
edge $-1 $566 -7.7822028792687297 $776 7.7822028792687297 $565 $897 forward 7 unknown #
vertex $-1 $774 $898 #
straight-curve $-1 -68.699606311227768 -38.434208290502731 0 0 0 -1 I I #
edge $-1 $772 -38.434208290502731 $776 38.434208290502731 $770 $899 forward 7 unknown #
straight-curve $-1 0 -38.434208290502731 -7.7822028792687297 -1 0 0 I I #
vertex $-1 $558 $900 #
straight-curve $-1 0 38.434208290502731 -7.7822028792687297 1 0 0 I I #
point $-1 68.699606311227768 38.434208290502731 -7.7822028792687297 #
point $-1 68.699606311227768 -38.434208290502731 -7.7822028792687297 #
straight-curve $-1 -68.699606311227768 0 7.7822028792687297 0 -1 0 I I #
point $-1 -68.699606311227768 38.434208290502731 7.7822028792687297 #
point $-1 -68.699606311227768 -38.434208290502731 7.7822028792687297 #
straight-curve $-1 68.699606311227768 -38.434208290502731 0 0 0 -1 I I #
straight-curve $-1 68.699606311227768 38.434208290502731 0 0 0 -1 I I #
plane-surface $-1 0 -38.434208290502731 0 0 1 0 0 0 1 forward_v I I I I #
coedge $-1 $901 $799 $579 $788 forward $576 $-1 #
coedge $-1 $789 $578 $587 $797 forward $380 $-1 #
edge $-1 $792 -1.5000000000000004 $790 1.5000000000000004 $579 $902 forward 7 unknown #
coedge $-1 $580 $787 $901 $903 forward $380 $-1 #
vertex $-1 $581 $904 #
straight-curve $-1 -72.46476084736544 38.434208290502731 0.012122992913373043 1 0 0 I I #
vertex $-1 $582 $905 #
straight-curve $-1 -72.46476084736544 38.434208290502731 3.0121229929133739 -1 0 0 I I #
point $-1 -68.699606311227768 38.434208290502731 0.012122992913373043 #
straight-curve $-1 -68.699606311227768 0 0.012122992913373043 0 1 0 I I #
coedge $-1 $587 $586 $906 $907 forward $588 $-1 #
edge $-1 $589 -3.7651545361376719 $908 3.7651545361376719 $587 $909 forward 7 unknown #
point $-1 -68.699606311227768 -38.434208290502731 0.012122992913373043 #
coedge $-1 $786 $906 $591 $800 reversed $576 $-1 #
edge $-1 $792 -38.434208290502731 $801 38.434208290502731 $799 $910 forward 7 unknown #
vertex $-1 $800 $911 #
straight-curve $-1 -72.46476084736544 -38.434208290502731 3.0121229929133739 1 0 0 I I #
coedge $-1 $606 $605 $598 $804 forward $595 $-1 #
edge $-1 $805 68.657955079617693 $808 71.715165795541452 $803 $912 forward 7 unknown #
vertex $-1 $610 $913 #
straight-curve $-1 -28.702071351407387 45.850246750670649 7.7822028792687234 0 1 0 I I #
edge $-1 $808 9.0128983904103386 $607 30.365447531583762 $606 $914 forward 7 unknown #
vertex $-1 $807 $915 #
straight-curve $-1 -28.702071351407387 -11.996009718735507 62.738323210714583 0 -0.65605901945558964 0.75470958851134928 I I #
point $-1 -28.702071351407387 35.776615628251953 7.7822028792687306 #
point $-1 -50.05462049258081 38.434208290502731 4.7249921633449645 #
straight-curve $-1 0 38.434208290502731 7.7822028792687297 -1 0 0 I I #
vertex $-1 $613 $916 #
point $-1 -38.878345921994089 35.845988750056989 5.1587976560817301 #
coedge $-1 $628 $627 $620 $816 forward $617 $-1 #
edge $-1 $817 68.657955079617693 $820 71.715165795541452 $815 $917 forward 7 unknown #
vertex $-1 $632 $918 #
straight-curve $-1 3.7651545361376684 45.850246750670649 7.7822028792687234 0 1 0 I I #
edge $-1 $820 -7.220714553362189 $629 14.13183458781123 $628 $919 forward 7 unknown #
vertex $-1 $819 $920 #
straight-curve $-1 3.7651545361376684 -11.996009718735507 62.738323210714583 0 -0.65605901945558964 0.75470958851134928 I I #
point $-1 3.7651545361376684 35.776615628251953 7.7822028792687306 #
point $-1 -17.587394605035751 38.434208290502731 4.7249921633449645 #
straight-curve $-1 0 38.434208290502731 7.7822028792687297 -1 0 0 I I #
vertex $-1 $635 $921 #
point $-1 -6.4111200344490413 35.845988750056989 5.1587976560817301 #
coedge $-1 $650 $649 $642 $828 forward $639 $-1 #
edge $-1 $829 68.657955079617693 $832 71.715165795541452 $827 $922 forward 7 unknown #
vertex $-1 $654 $923 #
straight-curve $-1 36.232380423682713 45.850246750670649 7.7822028792687234 0 1 0 I I #
edge $-1 $832 -23.454327497134713 $651 -2.1017783559612901 $650 $924 forward 7 unknown #
vertex $-1 $831 $925 #
straight-curve $-1 36.232380423682713 -11.996009718735507 62.738323210714583 0 -0.65605901945558964 0.75470958851134928 I I #
point $-1 36.232380423682713 35.776615628251953 7.7822028792687306 #
point $-1 14.87983128250929 38.434208290502731 4.7249921633449645 #
straight-curve $-1 0 38.434208290502731 7.7822028792687297 -1 0 0 I I #
vertex $-1 $657 $926 #
point $-1 26.056105853096 35.845988750056989 5.1587976560817301 #
coedge $-1 $840 $663 $846 $927 reversed $451 $-1 #
coedge $-1 $663 $839 $666 $844 reversed $451 $-1 #
edge $-1 $842 -39.687940440907241 $671 -18.335391299733814 $670 $928 forward 7 unknown #
vertex $-1 $665 $929 #
straight-curve $-1 68.699606311227768 6.1175516533151928 41.901053934362764 0 0.65605901945558975 -0.75470958851134939 I I #
edge $-1 $667 35.776615628251953 $848 38.434208290502731 $840 $930 forward 7 unknown #
point $-1 68.699606311227768 35.776615628251953 7.7822028792687306 #
coedge $-1 $670 $669 $839 $927 forward $661 $-1 #
point $-1 47.347057170054342 38.434208290502731 4.7249921633449645 #
vertex $-1 $844 $931 #
straight-curve $-1 0 38.434208290502731 7.7822028792687297 -1 0 0 I I #
vertex $-1 $677 $932 #
point $-1 58.523331740641055 35.845988750056989 5.1587976560817301 #
edge $-1 $853 39.651289555932891 $856 42.708500271856622 $682 $933 forward 7 unknown #
vertex $-1 $696 $934 #
straight-curve $-1 -50.05462049258081 -71.065355755289772 7.7822028792687306 0 -1 0 I I #
edge $-1 $856 -30.365447531583762 $693 -9.0128983904103386 $692 $935 forward 7 unknown #
vertex $-1 $855 $936 #
straight-curve $-1 -50.05462049258081 -38.434208290502738 4.7249921633449929 0 0.65605901945558964 0.75470958851134928 I I #
point $-1 -50.05462049258081 -35.776615628251982 7.7822028792687297 #
point $-1 -28.702071351407387 -38.434208290502731 4.7249921633450009 #
straight-curve $-1 0 -38.434208290502731 7.7822028792687297 1 0 0 I I #
vertex $-1 $699 $937 #
point $-1 -38.878345921994089 -35.845988750056982 5.1587976560817319 #
edge $-1 $864 39.651289555932891 $867 42.708500271856622 $704 $938 forward 7 unknown #
vertex $-1 $718 $939 #
straight-curve $-1 -17.587394605035751 -71.065355755289772 7.7822028792687306 0 -1 0 I I #
edge $-1 $867 -14.13183458781123 $715 7.220714553362189 $714 $940 forward 7 unknown #
vertex $-1 $866 $941 #
straight-curve $-1 -17.587394605035751 -38.434208290502738 4.7249921633449929 0 0.65605901945558964 0.75470958851134928 I I #
point $-1 -17.587394605035751 -35.776615628251982 7.7822028792687297 #
point $-1 3.7651545361376684 -38.434208290502731 4.7249921633450009 #
straight-curve $-1 0 -38.434208290502731 7.7822028792687297 1 0 0 I I #
vertex $-1 $721 $942 #
point $-1 -6.4111200344490413 -35.845988750056982 5.1587976560817319 #
edge $-1 $875 39.651289555932891 $878 42.708500271856622 $726 $943 forward 7 unknown #
vertex $-1 $740 $944 #
straight-curve $-1 14.87983128250929 -71.065355755289772 7.7822028792687306 0 -1 0 I I #
edge $-1 $878 2.1017783559612901 $737 23.454327497134713 $736 $945 forward 7 unknown #
vertex $-1 $877 $946 #
straight-curve $-1 14.87983128250929 -38.434208290502738 4.7249921633449929 0 0.65605901945558964 0.75470958851134928 I I #
point $-1 14.87983128250929 -35.776615628251982 7.7822028792687297 #
point $-1 36.232380423682713 -38.434208290502731 4.7249921633450009 #
straight-curve $-1 0 -38.434208290502731 7.7822028792687297 1 0 0 I I #
vertex $-1 $743 $947 #
point $-1 26.056105853096 -35.845988750056982 5.1587976560817319 #
coedge $-1 $750 $749 $757 $890 reversed $346 $-1 #
edge $-1 $753 47.347057170054342 $893 68.699606311227768 $750 $948 forward 7 unknown #
straight-curve $-1 47.347057170054342 -38.434208290502731 47.433492435201622 0 0 -1 I I #
point $-1 47.347057170054342 -38.434208290502731 7.7822028792687297 #
straight-curve $-1 29.011665870320527 -38.434208290502731 4.7249921633450063 1 0 0 I I #
edge $-1 $893 -7.7822028792687297 $758 -4.7249921633450009 $757 $949 forward 7 unknown #
point $-1 68.699606311227768 -38.434208290502731 4.7249921633450009 #
point $-1 47.347057170054342 -38.434208290502731 4.7249921633450009 #
vertex $-1 $762 $950 #
straight-curve $-1 68.699606311227768 0 7.7822028792687297 0 1 0 I I #
vertex $-1 $765 $951 #
point $-1 58.523331740641055 -35.845988750056982 5.1587976560817319 #
straight-curve $-1 -68.699606311227768 38.434208290502731 0 0 0 -1 I I #
point $-1 -68.699606311227768 -38.434208290502731 -7.7822028792687297 #
straight-curve $-1 -68.699606311227768 0 -7.7822028792687297 0 1 0 I I #
point $-1 -68.699606311227768 38.434208290502731 -7.7822028792687297 #
coedge $-1 $906 $786 $789 $903 reversed $576 $-1 #
straight-curve $-1 -76.229915383503112 38.434208290502731 1.5121229929133735 0 0 -1 I I #
edge $-1 $908 -38.434208290502731 $790 38.434208290502731 $901 $952 forward 7 unknown #
point $-1 -76.229915383503112 38.434208290502731 0.012122992913373043 #
point $-1 -76.229915383503112 38.434208290502731 3.0121229929133739 #
coedge $-1 $799 $901 $796 $907 reversed $576 $-1 #
edge $-1 $801 -1.5000000000000004 $908 1.5000000000000004 $906 $953 forward 7 unknown #
vertex $-1 $903 $954 #
straight-curve $-1 -72.46476084736544 -38.434208290502731 0.012122992913373043 -1 0 0 I I #
straight-curve $-1 -76.229915383503112 0 3.0121229929133739 0 -1 0 I I #
point $-1 -76.229915383503112 -38.434208290502731 3.0121229929133739 #
straight-curve $-1 -28.702071351407387 38.434208290502731 76.440157958886417 0 0 -1 I I #
point $-1 -28.702071351407387 38.434208290502731 7.7822028792687297 #
straight-curve $-1 -19.689172960997048 38.434208290502731 4.7249921633449681 -1 0 0 I I #
point $-1 -28.702071351407387 38.434208290502731 4.7249921633449645 #
point $-1 -39.378345921994089 35.468633955801309 4.8307681463539351 #
straight-curve $-1 3.7651545361376684 38.434208290502731 76.440157958886417 0 0 -1 I I #
point $-1 3.7651545361376684 38.434208290502731 7.7822028792687297 #
straight-curve $-1 -3.4555600172245207 38.434208290502731 4.7249921633449681 -1 0 0 I I #
point $-1 3.7651545361376684 38.434208290502731 4.7249921633449645 #
point $-1 -6.9111200344490413 35.468633955801309 4.8307681463539351 #
straight-curve $-1 36.232380423682713 38.434208290502731 76.440157958886417 0 0 -1 I I #
point $-1 36.232380423682713 38.434208290502731 7.7822028792687297 #
straight-curve $-1 12.778052926548 38.434208290502731 4.7249921633449681 -1 0 0 I I #
point $-1 36.232380423682713 38.434208290502731 4.7249921633449645 #
point $-1 25.556105853096 35.468633955801309 4.8307681463539351 #
edge $-1 $848 -7.7822028792687297 $842 -4.7249921633449645 $839 $955 forward 7 unknown #
straight-curve $-1 29.011665870320527 38.434208290502731 4.7249921633449681 -1 0 0 I I #
point $-1 68.699606311227768 38.434208290502731 4.7249921633449645 #
straight-curve $-1 68.699606311227768 0 7.7822028792687297 0 1 0 I I #
point $-1 68.699606311227768 38.434208290502731 7.7822028792687297 #
point $-1 58.023331740641055 35.468633955801309 4.8307681463539351 #
straight-curve $-1 -50.05462049258081 -38.434208290502731 47.433492435201622 0 0 -1 I I #
point $-1 -50.05462049258081 -38.434208290502731 7.7822028792687297 #
straight-curve $-1 -19.689172960997048 -38.434208290502731 4.7249921633450063 1 0 0 I I #
point $-1 -50.05462049258081 -38.434208290502731 4.7249921633450009 #
point $-1 -39.378345921994089 -35.468633955801302 4.8307681463539369 #
straight-curve $-1 -17.587394605035751 -38.434208290502731 47.433492435201622 0 0 -1 I I #
point $-1 -17.587394605035751 -38.434208290502731 7.7822028792687297 #
straight-curve $-1 -3.4555600172245207 -38.434208290502731 4.7249921633450063 1 0 0 I I #
point $-1 -17.587394605035751 -38.434208290502731 4.7249921633450009 #
point $-1 -6.9111200344490413 -35.468633955801302 4.8307681463539369 #
straight-curve $-1 14.87983128250929 -38.434208290502731 47.433492435201622 0 0 -1 I I #
point $-1 14.87983128250929 -38.434208290502731 7.7822028792687297 #
straight-curve $-1 12.778052926548 -38.434208290502731 4.7249921633450063 1 0 0 I I #
point $-1 14.87983128250929 -38.434208290502731 4.7249921633450009 #
point $-1 25.556105853096 -35.468633955801302 4.8307681463539369 #
straight-curve $-1 0 -38.434208290502731 7.7822028792687297 1 0 0 I I #
straight-curve $-1 68.699606311227768 -38.434208290502731 0 0 0 -1 I I #
point $-1 68.699606311227768 -38.434208290502731 7.7822028792687297 #
point $-1 58.023331740641055 -35.468633955801302 4.8307681463539369 #
straight-curve $-1 -76.229915383503112 0 0.012122992913373043 0 1 0 I I #
straight-curve $-1 -76.229915383503112 -38.434208290502731 1.5121229929133735 0 0 -1 I I #
point $-1 -76.229915383503112 -38.434208290502731 0.012122992913373043 #
straight-curve $-1 68.699606311227768 38.434208290502731 0 0 0 -1 I I #
End-of-ACIS-data 