500 0 10 0           
7 Unknown 11 ACIS 5.0 NT 24 Fri Mar 26 02:31:38 1999 
-1 9.9999999999999995e-007 1e-010 
body $-1 $10 $-1 $11 #
body $-1 $12 $-1 $13 #
body $-1 $14 $-1 $15 #
body $-1 $16 $-1 $17 #
body $-1 $18 $-1 $19 #
body $-1 $20 $-1 $21 #
body $-1 $22 $-1 $23 #
body $-1 $24 $-1 $25 #
body $-1 $26 $-1 $27 #
body $-1 $28 $-1 $29 #
lump $-1 $-1 $30 $0 #
transform $-1 1 0 0 0 1 0 0 0 1 69.898373363444932 35.592771362765937 14.953808595313992 1 rotate no_reflect no_shear #
lump $-1 $-1 $31 $1 #
transform $-1 1 0 0 0 1 0 0 0 1 69.898373363444932 35.592771362765937 14.953808595313992 1 rotate no_reflect no_shear #
lump $-1 $-1 $32 $2 #
transform $-1 1 0 0 0 1 0 0 0 1 69.898373363444932 35.592771362765937 14.953808595313992 1 rotate no_reflect no_shear #
lump $-1 $-1 $33 $3 #
transform $-1 1 0 0 0 1 0 0 0 1 69.898373363444932 35.592771362765937 14.953808595313992 1 rotate no_reflect no_shear #
lump $-1 $-1 $34 $4 #
transform $-1 1 0 0 0 1 0 0 0 1 69.898373363444932 35.592771362765937 14.953808595313992 1 rotate no_reflect no_shear #
lump $-1 $-1 $35 $5 #
transform $-1 1 0 0 0 1 0 0 0 1 69.898373363444932 35.592771362765937 14.953808595313992 1 rotate no_reflect no_shear #
lump $-1 $-1 $36 $6 #
transform $-1 1 0 0 0 1 0 0 0 1 69.898373363444932 35.592771362765937 14.953808595313992 1 rotate no_reflect no_shear #
lump $-1 $-1 $37 $7 #
transform $-1 1 0 0 0 1 0 0 0 1 69.898373363444932 35.592771362765937 14.953808595313992 1 rotate no_reflect no_shear #
lump $-1 $-1 $38 $8 #
transform $-1 1 0 0 0 1 0 0 0 1 69.898373363444932 35.592771362765937 14.953808595313992 1 rotate no_reflect no_shear #
lump $-1 $-1 $39 $9 #
transform $-1 1 0 0 0 1 0 0 0 1 69.898373363444932 35.592771362765937 14.953808595313992 1 rotate no_reflect no_shear #
shell $-1 $-1 $-1 $40 $-1 $10 #
shell $-1 $-1 $-1 $41 $-1 $12 #
shell $-1 $-1 $-1 $42 $-1 $14 #
shell $-1 $-1 $-1 $43 $-1 $16 #
shell $-1 $-1 $-1 $44 $-1 $18 #
shell $-1 $-1 $-1 $45 $-1 $20 #
shell $-1 $-1 $-1 $46 $-1 $22 #
shell $-1 $-1 $-1 $47 $-1 $24 #
shell $-1 $-1 $-1 $48 $-1 $26 #
shell $-1 $-1 $-1 $49 $-1 $28 #
face $-1 $50 $51 $30 $-1 $52 forward single #
face $-1 $53 $54 $31 $-1 $55 forward single #
face $-1 $56 $57 $32 $-1 $58 reversed single #
face $-1 $59 $60 $33 $-1 $61 forward single #
face $-1 $62 $63 $34 $-1 $64 forward single #
face $-1 $65 $66 $35 $-1 $67 forward single #
face $-1 $68 $69 $36 $-1 $70 reversed single #
face $-1 $71 $72 $37 $-1 $73 forward single #
face $-1 $74 $75 $38 $-1 $76 forward single #
face $-1 $77 $78 $39 $-1 $79 forward single #
face $-1 $80 $81 $30 $-1 $82 reversed single #
loop $-1 $-1 $83 $40 #
plane-surface $-1 0 0 14.953808595313992 0 0 1 1 0 0 forward_v I I I I #
face $-1 $84 $85 $31 $-1 $86 reversed single #
loop $-1 $-1 $87 $41 #
plane-surface $-1 -69.898373363444932 0 0 1 0 0 0 0 -1 forward_v I I I I #
face $-1 $88 $89 $32 $-1 $90 reversed single #
loop $-1 $-1 $91 $42 #
plane-surface $-1 -21.983028164085965 -113.76612107673421 126.94801753828735 -1 0 0 0 -0.55919291073839883 0.82903756765294845 forward_v I I I I #
face $-1 $92 $93 $33 $-1 $94 forward single #
loop $-1 $95 $96 $43 #
cone-surface $-1 -46.696357376240911 -31.573206246473021 11.332157888558937 0 0.55919291073839883 -0.82903756765294845 1.5 0 0 1 I I 0 1 1.5 forward I I I I #
face $-1 $97 $98 $34 $-1 $99 forward single #
loop $-1 $100 $101 $44 #
cone-surface $-1 -37.428858921682803 -31.573206246473021 11.332157888558937 0 0.55919291073839883 -0.82903756765294845 1.5 0 0 1 I I 0 1 1.5 forward I I I I #
face $-1 $102 $103 $35 $-1 $104 forward single #
loop $-1 $105 $106 $45 #
cone-surface $-1 -28.161360467124702 -31.573206246473021 11.332157888558937 0 0.55919291073839883 -0.82903756765294845 1.5 0 0 1 I I 0 1 1.5 forward I I I I #
face $-1 $107 $108 $36 $-1 $109 reversed single #
loop $-1 $-1 $110 $46 #
plane-surface $-1 23.674549172322486 104.39889037105669 146.46439027424896 1 0 0 0 -0.79863551827123203 -0.60181501223851219 forward_v I I I I #
face $-1 $111 $112 $37 $-1 $113 forward single #
loop $-1 $114 $115 $47 #
cone-surface $-1 28.032211691929092 31.15304338260275 9.5614328652734404 0 -0.79863551827123203 -0.60181501223851219 1.5 0 0 1 I I 0 1 1.5 forward I I I I #
face $-1 $116 $117 $38 $-1 $118 forward single #
loop $-1 $119 $120 $48 #
cone-surface $-1 34.568705471339001 31.15304338260275 9.5614328652734404 0 -0.79863551827123203 -0.60181501223851219 1.5 0 0 1 I I 0 1 1.5 forward I I I I #
face $-1 $121 $122 $39 $-1 $123 forward single #
loop $-1 $124 $125 $49 #
cone-surface $-1 41.10519925074891 31.15304338260275 9.5614328652734404 0 -0.79863551827123203 -0.60181501223851219 1.5 0 0 1 I I 0 1 1.5 forward I I I I #
face $-1 $126 $127 $30 $-1 $128 reversed single #
loop $-1 $-1 $129 $50 #
plane-surface $-1 0 0 -14.953808595313992 0 0 1 1 0 0 forward_v I I I I #
coedge $-1 $130 $131 $132 $133 forward $51 $-1 #
face $-1 $134 $135 $31 $-1 $136 reversed single #
loop $-1 $-1 $137 $53 #
plane-surface $-1 0 0 -14.953808595313992 0 0 1 1 0 0 forward_v I I I I #
coedge $-1 $138 $139 $140 $141 forward $54 $-1 #
face $-1 $142 $143 $32 $-1 $144 reversed single #
loop $-1 $-1 $145 $56 #
plane-surface $-1 -37.428858921682803 -35.59277136276593 11.051262666031292 0 -0.55919291073839883 0.82903756765294845 1 0 0 forward_v I I I I #
coedge $-1 $146 $147 $148 $149 reversed $57 $-1 #
face $-1 $-1 $150 $33 $-1 $151 forward single #
loop $-1 $152 $153 $59 #
cone-surface $-1 -46.696357376240911 -30.027127528714281 9.0400019707055268 0 0.55919291073839883 -0.82903756765294845 0.75 0 0 1 I I -0.70710678118654757 0.70710678118654757 0.75 forward I I I I #
loop $-1 $-1 $154 $43 #
coedge $-1 $96 $96 $155 $156 reversed $60 $-1 #
face $-1 $-1 $157 $34 $-1 $158 forward single #
loop $-1 $159 $160 $62 #
cone-surface $-1 -37.428858921682803 -30.027127528714281 9.0400019707055268 0 0.55919291073839883 -0.82903756765294845 0.75 0 0 1 I I -0.70710678118654757 0.70710678118654757 0.75 forward I I I I #
loop $-1 $-1 $161 $44 #
coedge $-1 $101 $101 $162 $163 reversed $63 $-1 #
face $-1 $-1 $164 $35 $-1 $165 forward single #
loop $-1 $166 $167 $65 #
cone-surface $-1 -28.161360467124702 -30.027127528714281 9.0400019707055268 0 0.55919291073839883 -0.82903756765294845 0.75 0 0 1 I I -0.70710678118654757 0.70710678118654757 0.75 forward I I I I #
loop $-1 $-1 $168 $45 #
coedge $-1 $106 $106 $169 $170 reversed $66 $-1 #
face $-1 $171 $172 $36 $-1 $173 reversed single #
loop $-1 $-1 $174 $68 #
plane-surface $-1 34.568705471338987 -7.2477569038051541 62.332609431901545 0 0.79863551827123203 0.60181501223851219 1 0 0 forward_v I I I I #
coedge $-1 $175 $176 $177 $178 reversed $69 $-1 #
face $-1 $-1 $179 $37 $-1 $180 forward single #
loop $-1 $181 $182 $71 #
cone-surface $-1 28.032211691929092 29.683359774853592 8.4539468617722608 0 -0.79863551827123203 -0.60181501223851219 0.75 0 0 1 I I -0.70710678118654757 0.70710678118654757 0.75 forward I I I I #
loop $-1 $-1 $183 $47 #
coedge $-1 $115 $115 $184 $185 reversed $72 $-1 #
face $-1 $-1 $186 $38 $-1 $187 forward single #
loop $-1 $188 $189 $74 #
cone-surface $-1 34.568705471339001 29.683359774853592 8.4539468617722608 0 -0.79863551827123203 -0.60181501223851219 0.75 0 0 1 I I -0.70710678118654757 0.70710678118654757 0.75 forward I I I I #
loop $-1 $-1 $190 $48 #
coedge $-1 $120 $120 $191 $192 reversed $75 $-1 #
face $-1 $-1 $193 $39 $-1 $194 forward single #
loop $-1 $195 $196 $77 #
cone-surface $-1 41.10519925074891 29.683359774853592 8.4539468617722608 0 -0.79863551827123203 -0.60181501223851219 0.75 0 0 1 I I -0.70710678118654757 0.70710678118654757 0.75 forward I I I I #
loop $-1 $-1 $197 $49 #
coedge $-1 $125 $125 $198 $199 reversed $78 $-1 #
face $-1 $200 $201 $30 $-1 $202 reversed single #
loop $-1 $-1 $203 $80 #
plane-surface $-1 0 -35.592771362765937 0 0 1 0 0 0 1 forward_v I I I I #
coedge $-1 $204 $205 $206 $207 forward $81 $-1 #
coedge $-1 $208 $83 $209 $210 forward $51 $-1 #
coedge $-1 $83 $208 $211 $212 forward $51 $-1 #
coedge $-1 $213 $214 $83 $133 reversed $215 $-1 #
edge $-1 $216 -35.592771362765937 $217 35.592771362765937 $132 $218 forward 7 unknown #
face $-1 $219 $220 $31 $-1 $221 reversed single #
loop $-1 $-1 $222 $84 #
plane-surface $-1 -78.410215205527578 -34.789429342098821 0 0 1 0 0 0 1 forward_v I I I I #
coedge $-1 $223 $224 $139 $225 forward $85 $-1 #
coedge $-1 $226 $87 $227 $228 reversed $54 $-1 #
coedge $-1 $87 $226 $137 $225 reversed $54 $-1 #
coedge $-1 $229 $230 $87 $141 reversed $231 $-1 #
edge $-1 $232 -14.953808595313992 $233 14.953808595313992 $140 $234 forward 7 unknown #
face $-1 $235 $236 $32 $-1 $237 forward single #
loop $-1 $-1 $238 $88 #
plane-surface $-1 -52.874689679279641 -113.76612107673421 126.94801753828735 1 0 0 0 0.55919291073839883 -0.82903756765294845 forward_v I I I I #
coedge $-1 $239 $240 $241 $242 reversed $89 $-1 #
coedge $-1 $147 $91 $243 $244 reversed $57 $-1 #
coedge $-1 $91 $146 $239 $245 reversed $57 $-1 #
coedge $-1 $241 $246 $91 $149 forward $236 $-1 #
edge $-1 $247 21.290289175601167 $248 27.076051338777109 $148 $249 forward 7 unknown #
loop $-1 $-1 $155 $92 #
plane-surface $-1 -37.428858921682803 -35.59277136276593 11.051262666031292 0 -0.55919291073839883 0.82903756765294845 1 0 0 forward_v I I I I #
loop $-1 $-1 $250 $59 #
coedge $-1 $153 $153 $154 $251 reversed $93 $-1 #
coedge $-1 $154 $154 $153 $251 forward $95 $-1 #
coedge $-1 $155 $155 $96 $156 forward $150 $-1 #
edge $-1 $252 1.9404585060515909e-015 $252 6.2831853071796022 $155 $253 forward 7 unknown #
loop $-1 $-1 $162 $97 #
plane-surface $-1 -37.428858921682803 -35.59277136276593 11.051262666031292 0 -0.55919291073839883 0.82903756765294845 1 0 0 forward_v I I I I #
loop $-1 $-1 $254 $62 #
coedge $-1 $160 $160 $161 $255 reversed $98 $-1 #
coedge $-1 $161 $161 $160 $255 forward $100 $-1 #
coedge $-1 $162 $162 $101 $163 forward $157 $-1 #
edge $-1 $256 1.9404585060515909e-015 $256 6.2831853071796022 $162 $257 forward 7 unknown #
loop $-1 $-1 $169 $102 #
plane-surface $-1 -37.428858921682803 -35.59277136276593 11.051262666031292 0 -0.55919291073839883 0.82903756765294845 1 0 0 forward_v I I I I #
loop $-1 $-1 $258 $65 #
coedge $-1 $167 $167 $168 $259 reversed $103 $-1 #
coedge $-1 $168 $168 $167 $259 forward $105 $-1 #
coedge $-1 $169 $169 $106 $170 forward $164 $-1 #
edge $-1 $260 1.9404585060515909e-015 $260 6.2831853071796022 $169 $261 forward 7 unknown #
face $-1 $262 $263 $36 $-1 $264 reversed single #
loop $-1 $-1 $265 $107 #
plane-surface $-1 45.462861770355488 104.39889037105669 146.46439027424896 -1 0 0 0 0.79863551827123203 0.60181501223851219 forward_v I I I I #
coedge $-1 $266 $267 $268 $269 reversed $108 $-1 #
coedge $-1 $176 $110 $270 $271 reversed $69 $-1 #
coedge $-1 $110 $175 $266 $272 reversed $69 $-1 #
coedge $-1 $268 $273 $110 $178 forward $274 $-1 #
edge $-1 $275 16.60667382276241 $276 23.744715844997309 $177 $277 forward 7 unknown #
loop $-1 $-1 $184 $111 #
plane-surface $-1 34.568705471338987 -7.2477569038051541 62.332609431901545 0 0.79863551827123203 0.60181501223851219 1 0 0 forward_v I I I I #
loop $-1 $-1 $278 $71 #
coedge $-1 $182 $182 $183 $279 reversed $112 $-1 #
coedge $-1 $183 $183 $182 $279 forward $114 $-1 #
coedge $-1 $184 $184 $115 $185 forward $179 $-1 #
edge $-1 $280 -9.5921968135758198e-016 $280 6.2831853071795996 $184 $281 forward 7 unknown #
loop $-1 $-1 $191 $116 #
plane-surface $-1 34.568705471338987 -7.2477569038051541 62.332609431901545 0 0.79863551827123203 0.60181501223851219 1 0 0 forward_v I I I I #
loop $-1 $-1 $282 $74 #
coedge $-1 $189 $189 $190 $283 reversed $117 $-1 #
coedge $-1 $190 $190 $189 $283 forward $119 $-1 #
coedge $-1 $191 $191 $120 $192 forward $186 $-1 #
edge $-1 $284 -9.5921968135758198e-016 $284 6.2831853071795996 $191 $285 forward 7 unknown #
loop $-1 $-1 $198 $121 #
plane-surface $-1 34.568705471338987 -7.2477569038051541 62.332609431901545 0 0.79863551827123203 0.60181501223851219 1 0 0 forward_v I I I I #
loop $-1 $-1 $286 $77 #
coedge $-1 $196 $196 $197 $287 reversed $122 $-1 #
coedge $-1 $197 $197 $196 $287 forward $124 $-1 #
coedge $-1 $198 $198 $125 $199 forward $193 $-1 #
edge $-1 $288 -9.5921968135758198e-016 $288 6.2831853071795996 $198 $289 forward 7 unknown #
face $-1 $290 $291 $30 $-1 $292 reversed single #
loop $-1 $-1 $293 $126 #
plane-surface $-1 -69.898373363444932 0 0 1 0 0 0 0 -1 forward_v I I I I #
coedge $-1 $294 $211 $295 $296 forward $127 $-1 #
coedge $-1 $297 $129 $294 $298 forward $81 $-1 #
coedge $-1 $129 $297 $299 $300 forward $81 $-1 #
coedge $-1 $214 $213 $129 $207 reversed $215 $-1 #
edge $-1 $301 -35.592771362765937 $302 35.592771362765937 $206 $303 forward 7 unknown #
coedge $-1 $131 $130 $304 $305 forward $51 $-1 #
coedge $-1 $306 $307 $130 $210 reversed $291 $-1 #
edge $-1 $217 -69.898373363444932 $308 69.898373363444932 $209 $309 forward 7 unknown #
coedge $-1 $203 $310 $131 $212 reversed $127 $-1 #
edge $-1 $311 -69.898373363444932 $216 69.898373363444932 $211 $312 forward 7 unknown #
coedge $-1 $206 $132 $310 $313 forward $215 $-1 #
coedge $-1 $132 $206 $306 $314 reversed $215 $-1 #
loop $-1 $-1 $213 $290 #
vertex $-1 $133 $315 #
vertex $-1 $133 $316 #
straight-curve $-1 69.898373363444932 0 14.953808595313992 0 1 0 I I #
face $-1 $317 $231 $31 $-1 $318 reversed single #
loop $-1 $-1 $319 $134 #
plane-surface $-1 -86.922057047610224 -32.739105056196323 0 1 0 0 0 0 -1 forward_v I I I I #
coedge $-1 $320 $321 $322 $323 forward $135 $-1 #
coedge $-1 $324 $137 $320 $325 forward $85 $-1 #
coedge $-1 $137 $324 $229 $326 forward $85 $-1 #
edge $-1 $232 30.688780770293825 $327 34.789429342098821 $137 $328 forward 7 unknown #
coedge $-1 $139 $138 $329 $330 forward $54 $-1 #
coedge $-1 $331 $332 $138 $228 forward $333 $-1 #
edge $-1 $334 -34.789429342098821 $233 -30.688780770293825 $227 $335 forward 7 unknown #
coedge $-1 $336 $140 $224 $326 reversed $231 $-1 #
coedge $-1 $140 $336 $331 $337 reversed $231 $-1 #
loop $-1 $-1 $140 $219 #
vertex $-1 $225 $338 #
vertex $-1 $337 $339 #
straight-curve $-1 -69.898373363444932 -30.688780770293825 0 0 0 1 I I #
face $-1 $-1 $340 $32 $-1 $341 reversed single #
loop $-1 $-1 $148 $142 #
plane-surface $-1 0 0 14.953808595313992 0 0 1 1 0 0 forward_v I I I I #
coedge $-1 $342 $343 $344 $345 reversed $143 $-1 #
coedge $-1 $346 $145 $147 $245 forward $89 $-1 #
coedge $-1 $145 $346 $342 $347 forward $89 $-1 #
coedge $-1 $344 $148 $145 $242 forward $236 $-1 #
edge $-1 $248 3.2685987032445638 $348 34.160260218438239 $241 $349 forward 7 unknown #
coedge $-1 $350 $351 $146 $244 forward $340 $-1 #
edge $-1 $352 -52.422746103112388 $247 -48.520200173829679 $243 $353 forward 7 unknown #
edge $-1 $248 -6.9788902082637216 $352 8.8706446682831169e-015 $147 $354 forward 7 unknown #
coedge $-1 $148 $344 $350 $355 forward $236 $-1 #
vertex $-1 $149 $356 #
vertex $-1 $149 $357 #
straight-curve $-1 -21.983028164085965 -56.883060538367104 14.953808595313994 0 1 0 I I #
coedge $-1 $250 $250 $-1 $358 reversed $152 $-1 #
edge $-1 $359 0 $359 6.2831853071796004 $153 $360 forward 7 unknown #
vertex $-1 $156 $361 #
ellipse-curve $-1 -46.696357376240911 -32.699890281177964 13.002535630672641 0 -0.55919291073839883 0.82903756765294845 1.5 0 0 1 I I #
coedge $-1 $254 $254 $-1 $362 reversed $159 $-1 #
edge $-1 $363 0 $363 6.2831853071796004 $160 $364 forward 7 unknown #
vertex $-1 $163 $365 #
ellipse-curve $-1 -37.428858921682803 -32.699890281177964 13.002535630672641 0 -0.55919291073839883 0.82903756765294845 1.5 0 0 1 I I #
coedge $-1 $258 $258 $-1 $366 reversed $166 $-1 #
edge $-1 $367 0 $367 6.2831853071796004 $167 $368 forward 7 unknown #
vertex $-1 $170 $369 #
ellipse-curve $-1 -28.161360467124702 -32.699890281177964 13.002535630672641 0 -0.55919291073839883 0.82903756765294845 1.5 0 0 1 I I #
face $-1 $-1 $274 $36 $-1 $370 forward single #
loop $-1 $-1 $371 $171 #
plane-surface $-1 0 35.592771362765937 0 0 -1 0 0 0 -1 forward_v I I I I #
coedge $-1 $372 $373 $374 $375 reversed $172 $-1 #
coedge $-1 $376 $174 $176 $272 forward $108 $-1 #
coedge $-1 $174 $376 $372 $377 forward $108 $-1 #
coedge $-1 $374 $177 $174 $269 forward $274 $-1 #
edge $-1 $276 6.3901964366529924 $378 28.178509034685995 $268 $379 forward 7 unknown #
coedge $-1 $380 $381 $175 $271 forward $263 $-1 #
edge $-1 $382 -67.750888513246991 $275 -58.278386541810484 $270 $383 forward 7 unknown #
edge $-1 $276 59.324685357278078 $382 71.18554272553186 $176 $384 forward 7 unknown #
coedge $-1 $177 $374 $380 $385 forward $274 $-1 #
loop $-1 $-1 $374 $262 #
vertex $-1 $271 $386 #
vertex $-1 $178 $387 #
straight-curve $-1 23.674549172322486 52.199445185528347 14.953808595313987 0 -1 0 I I #
coedge $-1 $278 $278 $-1 $388 reversed $181 $-1 #
edge $-1 $389 0 $389 6.2831853071796004 $182 $390 forward 7 unknown #
vertex $-1 $185 $391 #
ellipse-curve $-1 28.032211691929092 32.023750351648488 10.217557609595739 0 0.79863551827123203 0.60181501223851219 1.5 0 0 1 I I #
coedge $-1 $282 $282 $-1 $392 reversed $188 $-1 #
edge $-1 $393 0 $393 6.2831853071796004 $189 $394 forward 7 unknown #
vertex $-1 $192 $395 #
ellipse-curve $-1 34.568705471339001 32.023750351648488 10.217557609595739 0 0.79863551827123203 0.60181501223851219 1.5 0 0 1 I I #
coedge $-1 $286 $286 $-1 $396 reversed $195 $-1 #
edge $-1 $397 0 $397 6.2831853071796004 $196 $398 forward 7 unknown #
vertex $-1 $199 $399 #
ellipse-curve $-1 41.10519925074891 32.023750351648488 10.217557609595739 0 0.79863551827123203 0.60181501223851219 1.5 0 0 1 I I #
face $-1 $-1 $215 $30 $-1 $400 reversed single #
loop $-1 $-1 $306 $200 #
plane-surface $-1 0 35.592771362765937 0 0 -1 0 0 0 -1 forward_v I I I I #
coedge $-1 $401 $304 $307 $402 forward $201 $-1 #
coedge $-1 $310 $203 $204 $298 reversed $127 $-1 #
coedge $-1 $304 $401 $203 $296 reversed $201 $-1 #
edge $-1 $311 -14.953808595313992 $403 14.953808595313992 $295 $404 forward 7 unknown #
coedge $-1 $205 $204 $401 $405 forward $81 $-1 #
edge $-1 $302 -69.898373363444932 $403 69.898373363444932 $294 $406 forward 7 unknown #
coedge $-1 $307 $306 $205 $300 reversed $291 $-1 #
edge $-1 $407 -69.898373363444932 $301 69.898373363444932 $299 $408 forward 7 unknown #
vertex $-1 $207 $409 #
vertex $-1 $313 $410 #
straight-curve $-1 69.898373363444932 0 -14.953808595313992 0 -1 0 I I #
coedge $-1 $293 $295 $208 $305 reversed $201 $-1 #
edge $-1 $308 -35.592771362765937 $311 35.592771362765937 $304 $411 forward 7 unknown #
coedge $-1 $299 $209 $214 $314 forward $291 $-1 #
coedge $-1 $209 $299 $293 $402 reversed $291 $-1 #
vertex $-1 $210 $412 #
straight-curve $-1 0 35.592771362765937 14.953808595313992 -1 0 0 I I #
coedge $-1 $211 $294 $213 $313 reversed $127 $-1 #
vertex $-1 $305 $413 #
straight-curve $-1 0 -35.592771362765937 14.953808595313992 1 0 0 I I #
edge $-1 $216 -14.953808595313992 $302 14.953808595313992 $213 $414 forward 7 unknown #
edge $-1 $217 -14.953808595313992 $301 14.953808595313992 $214 $415 forward 7 unknown #
point $-1 69.898373363444932 -35.592771362765937 14.953808595313992 #
point $-1 69.898373363444932 35.592771362765937 14.953808595313992 #
face $-1 $-1 $333 $31 $-1 $416 forward single #
plane-surface $-1 -78.410215205527578 -30.688780770293825 0 0 -1 0 0 0 -1 forward_v I I I I #
coedge $-1 $417 $418 $336 $419 forward $220 $-1 #
coedge $-1 $329 $222 $223 $325 reversed $135 $-1 #
coedge $-1 $222 $329 $332 $420 reversed $135 $-1 #
coedge $-1 $418 $417 $222 $323 reversed $220 $-1 #
edge $-1 $421 -14.953808595313992 $422 14.953808595313992 $322 $423 forward 7 unknown #
coedge $-1 $224 $223 $417 $424 forward $85 $-1 #
edge $-1 $327 -8.5118418420826458 $422 8.5118418420826458 $320 $425 forward 7 unknown #
edge $-1 $426 -8.5118418420826458 $232 8.5118418420826458 $229 $427 forward 7 unknown #
vertex $-1 $325 $428 #
straight-curve $-1 -69.898373363444932 0 -14.953808595313992 0 -1 0 I I #
coedge $-1 $321 $320 $226 $330 reversed $135 $-1 #
edge $-1 $334 -14.953808595313992 $327 14.953808595313992 $329 $429 forward 7 unknown #
coedge $-1 $430 $227 $230 $337 forward $333 $-1 #
coedge $-1 $227 $430 $321 $420 forward $333 $-1 #
loop $-1 $-1 $227 $317 #
vertex $-1 $228 $431 #
straight-curve $-1 -69.898373363444932 0 14.953808595313992 0 1 0 I I #
coedge $-1 $230 $229 $319 $419 reversed $231 $-1 #
edge $-1 $233 -8.5118418420826458 $432 8.5118418420826458 $230 $433 forward 7 unknown #
point $-1 -69.898373363444932 -30.688780770293825 -14.953808595313992 #
point $-1 -69.898373363444932 -30.688780770293825 14.953808595313992 #
loop $-1 $-1 $243 $235 #
plane-surface $-1 0 -35.592771362765937 0 0 1 0 0 0 1 forward_v I I I I #
coedge $-1 $343 $238 $240 $347 reversed $143 $-1 #
coedge $-1 $238 $342 $434 $435 reversed $143 $-1 #
coedge $-1 $246 $241 $238 $345 forward $236 $-1 #
edge $-1 $348 -27.076051338777109 $436 -21.290289175601167 $344 $437 forward 7 unknown #
coedge $-1 $240 $239 $351 $438 reversed $89 $-1 #
edge $-1 $439 -8.8706446682831169e-015 $348 6.9788902082637216 $342 $440 forward 7 unknown #
vertex $-1 $242 $441 #
straight-curve $-1 -18.714429460841401 -29.807009199589999 14.953808595313992 -1 0 0 I I #
coedge $-1 $434 $243 $246 $355 reversed $340 $-1 #
coedge $-1 $243 $434 $346 $438 forward $340 $-1 #
vertex $-1 $244 $442 #
straight-curve $-1 -21.983028164085965 -35.592771362765937 63.474008769143673 0 0 1 I I #
straight-curve $-1 -21.983028164085965 -35.59277136276593 11.051262666031292 0 -0.82903756765294845 -0.55919291073839883 I I #
edge $-1 $436 -52.874689679279641 $247 -21.983028164085965 $350 $443 forward 7 unknown #
point $-1 -21.983028164085965 -35.592771362765937 14.953808595313992 #
point $-1 -21.983028164085965 -29.807009199589995 14.953808595313992 #
edge $-1 $444 1 $444 0 $250 $-1 forward 7 unknown #
vertex $-1 $251 $445 #
ellipse-curve $-1 -46.696357376240911 -30.44652221176808 9.6617801464452384 0 -0.55919291073839883 0.82903756765294845 1.5 0 0 1 I I #
point $-1 -45.196357376240911 -32.699890281177957 13.002535630672636 #
edge $-1 $446 1 $446 0 $254 $-1 forward 7 unknown #
vertex $-1 $255 $447 #
ellipse-curve $-1 -37.428858921682803 -30.44652221176808 9.6617801464452384 0 -0.55919291073839883 0.82903756765294845 1.5 0 0 1 I I #
point $-1 -35.928858921682803 -32.699890281177957 13.002535630672636 #
edge $-1 $448 1 $448 0 $258 $-1 forward 7 unknown #
vertex $-1 $259 $449 #
ellipse-curve $-1 -28.161360467124702 -30.44652221176808 9.6617801464452384 0 -0.55919291073839883 0.82903756765294845 1.5 0 0 1 I I #
point $-1 -26.661360467124702 -32.699890281177957 13.002535630672636 #
plane-surface $-1 0 0 14.953808595313992 0 0 1 1 0 0 forward_v I I I I #
coedge $-1 $381 $380 $373 $450 forward $263 $-1 #
coedge $-1 $373 $265 $267 $377 reversed $172 $-1 #
coedge $-1 $265 $372 $371 $450 reversed $172 $-1 #
coedge $-1 $273 $268 $265 $375 forward $274 $-1 #
edge $-1 $378 -23.744715844997309 $451 -16.60667382276241 $374 $452 forward 7 unknown #
coedge $-1 $267 $266 $381 $453 reversed $108 $-1 #
edge $-1 $454 -71.18554272553186 $378 -59.324685357278078 $372 $455 forward 7 unknown #
vertex $-1 $269 $456 #
straight-curve $-1 17.284352735669493 28.454729340531031 14.953808595313998 1 0 0 I I #
coedge $-1 $371 $270 $273 $385 reversed $263 $-1 #
coedge $-1 $270 $371 $376 $453 forward $263 $-1 #
vertex $-1 $271 $457 #
straight-curve $-1 23.674549172322486 35.592771362765937 73.232195137124478 0 0 1 I I #
straight-curve $-1 23.674549172322486 -7.2477569038051541 62.332609431901545 0 0.60181501223851219 -0.79863551827123203 I I #
edge $-1 $451 -45.462861770355488 $275 -23.674549172322486 $380 $458 forward 7 unknown #
point $-1 23.674549172322486 35.592771362765937 14.953808595313992 #
point $-1 23.674549172322486 28.454729340531038 14.953808595313994 #
edge $-1 $459 1 $459 0 $278 $-1 forward 7 unknown #
vertex $-1 $279 $460 #
ellipse-curve $-1 28.032211691929092 30.282336413557015 8.9053081209511458 0 0.79863551827123203 0.60181501223851219 1.5 0 0 1 I I #
point $-1 29.532211691929092 32.023750351648481 10.217557609595735 #
edge $-1 $461 1 $461 0 $282 $-1 forward 7 unknown #
vertex $-1 $283 $462 #
ellipse-curve $-1 34.568705471339001 30.282336413557015 8.9053081209511458 0 0.79863551827123203 0.60181501223851219 1.5 0 0 1 I I #
point $-1 36.068705471339001 32.023750351648481 10.217557609595735 #
edge $-1 $463 1 $463 0 $286 $-1 forward 7 unknown #
vertex $-1 $287 $464 #
ellipse-curve $-1 41.10519925074891 30.282336413557015 8.9053081209511458 0 0.79863551827123203 0.60181501223851219 1.5 0 0 1 I I #
point $-1 42.60519925074891 32.023750351648481 10.217557609595735 #
plane-surface $-1 69.898373363444932 0 0 -1 0 0 0 0 1 forward_v I I I I #
coedge $-1 $295 $293 $297 $405 reversed $201 $-1 #
edge $-1 $308 -14.953808595313992 $407 14.953808595313992 $307 $465 forward 7 unknown #
vertex $-1 $405 $466 #
straight-curve $-1 -69.898373363444932 -35.592771362765937 0 0 0 -1 I I #
edge $-1 $403 -35.592771362765937 $407 35.592771362765937 $401 $467 forward 7 unknown #
straight-curve $-1 0 -35.592771362765937 -14.953808595313992 -1 0 0 I I #
vertex $-1 $300 $468 #
straight-curve $-1 0 35.592771362765937 -14.953808595313992 1 0 0 I I #
point $-1 69.898373363444932 35.592771362765937 -14.953808595313992 #
point $-1 69.898373363444932 -35.592771362765937 -14.953808595313992 #
straight-curve $-1 -69.898373363444932 0 14.953808595313992 0 -1 0 I I #
point $-1 -69.898373363444932 35.592771362765937 14.953808595313992 #
point $-1 -69.898373363444932 -35.592771362765937 14.953808595313992 #
straight-curve $-1 69.898373363444932 -35.592771362765937 0 0 0 -1 I I #
straight-curve $-1 69.898373363444932 35.592771362765937 0 0 0 -1 I I #
plane-surface $-1 0 0 14.953808595313992 0 0 1 1 0 0 forward_v I I I I #
coedge $-1 $322 $319 $324 $424 reversed $220 $-1 #
coedge $-1 $319 $322 $430 $469 reversed $220 $-1 #
edge $-1 $432 -14.953808595313992 $426 14.953808595313992 $336 $470 forward 7 unknown #
edge $-1 $421 -8.5118418420826458 $334 8.5118418420826458 $321 $471 forward 7 unknown #
vertex $-1 $469 $472 #
vertex $-1 $424 $473 #
straight-curve $-1 -86.922057047610224 -34.789429342098821 0 0 0 -1 I I #
edge $-1 $422 -2.0503242859024979 $426 2.0503242859024979 $417 $474 forward 7 unknown #
straight-curve $-1 -78.410215205527578 -34.789429342098821 -14.953808595313992 -1 0 0 I I #
vertex $-1 $326 $475 #
straight-curve $-1 -78.410215205527578 -30.688780770293825 -14.953808595313992 1 0 0 I I #
point $-1 -69.898373363444932 -34.789429342098821 -14.953808595313992 #
straight-curve $-1 -69.898373363444932 -34.789429342098821 0 0 0 -1 I I #
coedge $-1 $332 $331 $418 $469 forward $333 $-1 #
point $-1 -69.898373363444932 -34.789429342098821 14.953808595313992 #
vertex $-1 $337 $476 #
straight-curve $-1 -78.410215205527578 -30.688780770293825 14.953808595313992 -1 0 0 I I #
coedge $-1 $351 $350 $343 $435 forward $340 $-1 #
edge $-1 $436 48.520200173829679 $439 52.422746103112388 $434 $477 forward 7 unknown #
vertex $-1 $355 $478 #
straight-curve $-1 -52.874689679279641 -56.883060538367104 14.953808595313994 0 -1 0 I I #
edge $-1 $439 -34.160260218438239 $352 -3.2685987032445638 $351 $479 forward 7 unknown #
vertex $-1 $438 $480 #
straight-curve $-1 -52.874689679279641 -35.59277136276593 11.051262666031292 0 0.82903756765294845 0.55919291073839883 I I #
point $-1 -52.874689679279641 -29.807009199589995 14.953808595313992 #
point $-1 -21.983028164085965 -35.592771362765937 11.051262666031286 #
straight-curve $-1 0 -35.592771362765937 14.953808595313992 1 0 0 I I #
vertex $-1 $358 $481 #
point $-1 -45.196357376240911 -30.44652221176808 9.6617801464452384 #
vertex $-1 $362 $482 #
point $-1 -35.928858921682803 -30.44652221176808 9.6617801464452384 #
vertex $-1 $366 $483 #
point $-1 -26.661360467124702 -30.44652221176808 9.6617801464452384 #
edge $-1 $451 58.278386541810484 $454 67.750888513246991 $371 $484 forward 7 unknown #
vertex $-1 $385 $485 #
straight-curve $-1 45.462861770355488 52.199445185528347 14.953808595313987 0 1 0 I I #
edge $-1 $454 -28.178509034685995 $382 -6.3901964366529924 $381 $486 forward 7 unknown #
vertex $-1 $453 $487 #
straight-curve $-1 45.462861770355488 -7.2477569038051541 62.332609431901545 0 -0.60181501223851219 0.79863551827123203 I I #
point $-1 45.462861770355488 28.454729340531038 14.953808595313994 #
point $-1 23.674549172322486 35.592771362765937 5.4813066238774795 #
straight-curve $-1 0 35.592771362765937 14.953808595313992 -1 0 0 I I #
vertex $-1 $388 $488 #
point $-1 29.532211691929092 30.282336413557015 8.9053081209511458 #
vertex $-1 $392 $489 #
point $-1 36.068705471339001 30.282336413557015 8.9053081209511458 #
vertex $-1 $396 $490 #
point $-1 42.60519925074891 30.282336413557015 8.9053081209511458 #
straight-curve $-1 -69.898373363444932 35.592771362765937 0 0 0 -1 I I #
point $-1 -69.898373363444932 -35.592771362765937 -14.953808595313992 #
straight-curve $-1 -69.898373363444932 0 -14.953808595313992 0 1 0 I I #
point $-1 -69.898373363444932 35.592771362765937 -14.953808595313992 #
edge $-1 $432 -2.0503242859024979 $421 2.0503242859024979 $418 $491 forward 7 unknown #
straight-curve $-1 -86.922057047610224 -30.688780770293825 0 0 0 -1 I I #
straight-curve $-1 -78.410215205527578 -34.789429342098821 14.953808595313992 1 0 0 I I #
point $-1 -86.922057047610224 -34.789429342098821 14.953808595313992 #
point $-1 -86.922057047610224 -34.789429342098821 -14.953808595313992 #
straight-curve $-1 -86.922057047610224 -32.739105056196323 -14.953808595313992 0 1 0 I I #
point $-1 -86.922057047610224 -30.688780770293825 -14.953808595313992 #
point $-1 -86.922057047610224 -30.688780770293825 14.953808595313992 #
straight-curve $-1 -52.874689679279641 -35.592771362765937 63.474008769143673 0 0 -1 I I #
point $-1 -52.874689679279641 -35.592771362765937 14.953808595313992 #
straight-curve $-1 -18.714429460841401 -35.592771362765937 11.051262666031283 1 0 0 I I #
point $-1 -52.874689679279641 -35.592771362765937 11.051262666031286 #
point $-1 -46.696357376240911 -29.607732845660482 8.4182237949658152 #
point $-1 -37.428858921682803 -29.607732845660482 8.4182237949658152 #
point $-1 -28.161360467124702 -29.607732845660482 8.4182237949658152 #
straight-curve $-1 45.462861770355488 35.592771362765937 73.232195137124478 0 0 -1 I I #
point $-1 45.462861770355488 35.592771362765937 14.953808595313992 #
straight-curve $-1 17.284352735669493 35.592771362765937 5.481306623877483 -1 0 0 I I #
point $-1 45.462861770355488 35.592771362765937 5.4813066238774795 #
point $-1 28.032211691929092 29.084383136150169 8.0025856025933759 #
point $-1 34.568705471339001 29.084383136150169 8.0025856025933759 #
point $-1 41.10519925074891 29.084383136150169 8.0025856025933759 #
straight-curve $-1 -86.922057047610224 -32.739105056196323 14.953808595313992 0 -1 0 I I #
End-of-ACIS-data 