500 0 6 0           
7 Unknown 11 ACIS 5.0 NT 24 Fri Mar 26 02:59:40 1999 
-1 9.9999999999999995e-007 1e-010 
body $-1 $6 $-1 $7 #
body $-1 $8 $-1 $9 #
body $-1 $10 $-1 $11 #
body $-1 $12 $-1 $13 #
body $-1 $14 $-1 $15 #
body $-1 $16 $-1 $17 #
lump $-1 $-1 $18 $0 #
transform $-1 1 0 0 0 1 0 0 0 1 54.003112887966552 36.738663632721796 11.131477596729187 1 rotate no_reflect no_shear #
lump $-1 $-1 $19 $1 #
transform $-1 1 0 0 0 1 0 0 0 1 54.003112887966552 36.738663632721796 11.131477596729187 1 rotate no_reflect no_shear #
lump $-1 $-1 $20 $2 #
transform $-1 1 0 0 0 1 0 0 0 1 54.003112887966552 36.738663632721796 11.131477596729187 1 rotate no_reflect no_shear #
lump $-1 $-1 $21 $3 #
transform $-1 1 0 0 0 1 0 0 0 1 54.003112887966552 36.738663632721796 11.131477596729187 1 rotate no_reflect no_shear #
lump $-1 $-1 $22 $4 #
transform $-1 1 0 0 0 1 0 0 0 1 54.003112887966552 36.738663632721796 11.131477596729187 1 rotate no_reflect no_shear #
lump $-1 $-1 $23 $5 #
transform $-1 1 0 0 0 1 0 0 0 1 54.003112887966552 36.738663632721796 11.131477596729187 1 rotate no_reflect no_shear #
shell $-1 $-1 $-1 $24 $-1 $6 #
shell $-1 $-1 $-1 $25 $-1 $8 #
shell $-1 $-1 $-1 $26 $-1 $10 #
shell $-1 $-1 $-1 $27 $-1 $12 #
shell $-1 $-1 $-1 $28 $-1 $14 #
shell $-1 $-1 $-1 $29 $-1 $16 #
face $-1 $30 $31 $18 $-1 $32 forward single #
face $-1 $33 $34 $19 $-1 $35 reversed single #
face $-1 $36 $37 $20 $-1 $38 reversed single #
face $-1 $39 $40 $21 $-1 $41 forward single #
face $-1 $42 $43 $22 $-1 $44 reversed single #
face $-1 $45 $46 $23 $-1 $47 forward single #
face $-1 $48 $49 $18 $-1 $50 reversed single #
loop $-1 $-1 $51 $24 #
plane-surface $-1 0 0 11.131477596729187 0 0 1 1 0 0 forward_v I I I I #
face $-1 $52 $53 $19 $-1 $54 reversed single #
loop $-1 $-1 $55 $25 #
plane-surface $-1 0 -31.067093076316823 5.2472549503793164 0 0 1 1 0 0 forward_v I I I I #
face $-1 $56 $57 $20 $-1 $58 reversed single #
loop $-1 $-1 $59 $26 #
plane-surface $-1 -46.359063577869335 61.154283405326169 133.48105694802771 1 0 0 0 -0.70710678939079041 -0.70710677298230451 forward_v I I I I #
face $-1 $60 $61 $21 $-1 $62 forward single #
loop $-1 $63 $64 $27 #
cone-surface $-1 -33.212543271319099 33.172579665506305 7.5653935735293629 0 -0.70710678939079041 -0.70710677298230451 1.5 0 0 1 I I 0 1 1.5 forward I I I I #
face $-1 $65 $66 $22 $-1 $67 reversed single #
loop $-1 $-1 $68 $28 #
plane-surface $-1 20.066022964768869 61.154283405326169 133.48105694802771 1 0 0 0 -0.70710678939079041 -0.70710677298230451 forward_v I I I I #
face $-1 $69 $70 $23 $-1 $71 forward single #
loop $-1 $72 $73 $29 #
cone-surface $-1 33.212543271319106 33.172579665506305 7.5653935735293629 0 -0.70710678939079041 -0.70710677298230451 1.5 0 0 1 I I 0 1 1.5 forward I I I I #
face $-1 $74 $75 $18 $-1 $76 reversed single #
loop $-1 $-1 $77 $30 #
plane-surface $-1 0 0 -11.131477596729187 0 0 1 1 0 0 forward_v I I I I #
coedge $-1 $78 $79 $80 $81 forward $31 $-1 #
face $-1 $82 $83 $19 $-1 $84 reversed single #
loop $-1 $-1 $85 $33 #
plane-surface $-1 0 -25.39552251991185 8.1893662735542527 0 -1 0 0 0 -1 forward_v I I I I #
coedge $-1 $86 $87 $88 $89 reversed $34 $-1 #
face $-1 $90 $91 $20 $-1 $92 reversed single #
loop $-1 $-1 $93 $36 #
plane-surface $-1 -33.212543271319099 -15.217652137310722 57.109123177609462 0 0.70710678939079041 0.70710677298230451 1 0 0 forward_v I I I I #
coedge $-1 $94 $95 $96 $97 reversed $37 $-1 #
face $-1 $-1 $98 $21 $-1 $99 forward single #
loop $-1 $100 $101 $39 #
cone-surface $-1 -33.212543271319099 32.065501234281854 6.4583151679947797 0 -0.70710678939079041 -0.70710677298230451 0.75 0 0 1 I I -0.70710678118654757 0.70710678118654757 0.75 forward I I I I #
loop $-1 $-1 $102 $27 #
coedge $-1 $64 $64 $103 $104 reversed $40 $-1 #
face $-1 $105 $106 $22 $-1 $107 reversed single #
loop $-1 $-1 $108 $42 #
plane-surface $-1 33.212543271319106 -15.217652137310722 57.109123177609462 0 0.70710678939079041 0.70710677298230451 1 0 0 forward_v I I I I #
coedge $-1 $109 $110 $111 $112 reversed $43 $-1 #
face $-1 $-1 $113 $23 $-1 $114 forward single #
loop $-1 $115 $116 $45 #
cone-surface $-1 33.212543271319106 32.065501234281854 6.4583151679947797 0 -0.70710678939079041 -0.70710677298230451 0.75 0 0 1 I I -0.70710678118654757 0.70710678118654757 0.75 forward I I I I #
loop $-1 $-1 $117 $29 #
coedge $-1 $73 $73 $118 $119 reversed $46 $-1 #
face $-1 $120 $121 $18 $-1 $122 reversed single #
loop $-1 $-1 $123 $48 #
plane-surface $-1 0 -36.738663632721796 0 0 1 0 0 0 1 forward_v I I I I #
coedge $-1 $124 $125 $126 $127 forward $49 $-1 #
coedge $-1 $128 $51 $129 $130 forward $31 $-1 #
coedge $-1 $51 $128 $131 $132 forward $31 $-1 #
coedge $-1 $133 $134 $51 $81 reversed $135 $-1 #
edge $-1 $136 -36.738663632721796 $137 36.738663632721796 $80 $138 forward 7 unknown #
face $-1 $139 $140 $19 $-1 $141 reversed single #
loop $-1 $-1 $142 $52 #
plane-surface $-1 -54.003112887966552 0 0 1 0 0 0 0 -1 forward_v I I I I #
coedge $-1 $143 $144 $145 $146 reversed $53 $-1 #
coedge $-1 $147 $55 $148 $149 reversed $34 $-1 #
coedge $-1 $55 $147 $143 $150 forward $34 $-1 #
coedge $-1 $145 $151 $55 $89 forward $152 $-1 #
edge $-1 $153 -21.205117094563384 $154 -9.8619759817534387 $88 $155 forward 7 unknown #
face $-1 $156 $157 $20 $-1 $158 forward single #
loop $-1 $-1 $159 $56 #
plane-surface $-1 -20.066022964768862 61.154283405326169 133.48105694802771 -1 0 0 0 0.70710678939079041 0.70710677298230451 forward_v I I I I #
coedge $-1 $160 $161 $162 $163 reversed $57 $-1 #
coedge $-1 $95 $59 $164 $165 reversed $37 $-1 #
coedge $-1 $59 $94 $160 $166 reversed $37 $-1 #
coedge $-1 $162 $167 $59 $97 forward $157 $-1 #
edge $-1 $168 -6.1615219300587114 $169 -0.1828506739904725 $96 $170 forward 7 unknown #
loop $-1 $-1 $103 $60 #
plane-surface $-1 -33.212543271319099 -15.217652137310722 57.109123177609462 0 0.70710678939079041 0.70710677298230451 1 0 0 forward_v I I I I #
loop $-1 $-1 $171 $39 #
coedge $-1 $101 $101 $102 $172 reversed $61 $-1 #
coedge $-1 $102 $102 $101 $172 forward $63 $-1 #
coedge $-1 $103 $103 $64 $104 forward $98 $-1 #
edge $-1 $173 1.674765308694244e-015 $173 6.2831853071796022 $103 $174 forward 7 unknown #
face $-1 $175 $176 $22 $-1 $177 forward single #
loop $-1 $-1 $178 $65 #
plane-surface $-1 46.359063577869343 61.154283405326169 133.48105694802771 -1 0 0 0 0.70710678939079041 0.70710677298230451 forward_v I I I I #
coedge $-1 $179 $180 $181 $182 reversed $66 $-1 #
coedge $-1 $110 $68 $183 $184 reversed $43 $-1 #
coedge $-1 $68 $109 $179 $185 reversed $43 $-1 #
coedge $-1 $181 $186 $68 $112 forward $176 $-1 #
edge $-1 $187 -6.1615219300587114 $188 -0.1828506739904725 $111 $189 forward 7 unknown #
loop $-1 $-1 $118 $69 #
plane-surface $-1 33.212543271319106 -15.217652137310722 57.109123177609462 0 0.70710678939079041 0.70710677298230451 1 0 0 forward_v I I I I #
loop $-1 $-1 $190 $45 #
coedge $-1 $116 $116 $117 $191 reversed $70 $-1 #
coedge $-1 $117 $117 $116 $191 forward $72 $-1 #
coedge $-1 $118 $118 $73 $119 forward $113 $-1 #
edge $-1 $192 1.674765308694244e-015 $192 6.2831853071796022 $118 $193 forward 7 unknown #
face $-1 $194 $195 $18 $-1 $196 reversed single #
loop $-1 $-1 $197 $74 #
plane-surface $-1 -54.003112887966552 0 0 1 0 0 0 0 -1 forward_v I I I I #
coedge $-1 $198 $131 $199 $200 forward $75 $-1 #
coedge $-1 $201 $77 $198 $202 forward $49 $-1 #
coedge $-1 $77 $201 $203 $204 forward $49 $-1 #
coedge $-1 $134 $133 $77 $127 reversed $135 $-1 #
edge $-1 $205 -36.738663632721796 $206 36.738663632721796 $126 $207 forward 7 unknown #
coedge $-1 $79 $78 $208 $209 forward $31 $-1 #
coedge $-1 $210 $211 $78 $130 reversed $195 $-1 #
edge $-1 $137 -54.003112887966552 $212 54.003112887966552 $129 $213 forward 7 unknown #
coedge $-1 $123 $214 $79 $132 reversed $75 $-1 #
edge $-1 $215 -54.003112887966552 $136 54.003112887966552 $131 $216 forward 7 unknown #
coedge $-1 $126 $80 $214 $217 forward $135 $-1 #
coedge $-1 $80 $126 $210 $218 reversed $135 $-1 #
loop $-1 $-1 $133 $194 #
vertex $-1 $81 $219 #
vertex $-1 $81 $220 #
straight-curve $-1 54.003112887966552 0 11.131477596729187 0 1 0 I I #
face $-1 $221 $222 $19 $-1 $223 forward single #
loop $-1 $-1 $148 $82 #
plane-surface $-1 0 -36.738663632721796 0 0 1 0 0 0 1 forward_v I I I I #
coedge $-1 $224 $225 $226 $227 forward $83 $-1 #
coedge $-1 $226 $85 $87 $150 reversed $53 $-1 #
coedge $-1 $85 $226 $228 $229 reversed $53 $-1 #
coedge $-1 $230 $88 $85 $146 forward $152 $-1 #
edge $-1 $154 1.1525718136021901 $231 7.0367944599520627 $145 $232 forward 7 unknown #
coedge $-1 $87 $86 $224 $233 reversed $34 $-1 #
coedge $-1 $234 $235 $86 $149 forward $140 $-1 #
edge $-1 $236 -54.003112887966552 $153 54.003112887966552 $148 $237 forward 7 unknown #
edge $-1 $238 -54.003112887966552 $154 54.003112887966552 $143 $239 forward 7 unknown #
coedge $-1 $88 $230 $234 $240 forward $152 $-1 #
loop $-1 $-1 $145 $221 #
vertex $-1 $149 $241 #
vertex $-1 $89 $242 #
straight-curve $-1 54.003112887966552 -15.533546538158411 5.2472549503793164 0 1 0 I I #
face $-1 $-1 $243 $20 $-1 $244 reversed single #
loop $-1 $-1 $96 $90 #
plane-surface $-1 0 0 11.131477596729187 0 0 1 1 0 0 forward_v I I I I #
coedge $-1 $245 $246 $247 $248 reversed $91 $-1 #
coedge $-1 $249 $93 $95 $166 forward $57 $-1 #
coedge $-1 $93 $249 $245 $250 forward $57 $-1 #
coedge $-1 $247 $96 $93 $163 forward $157 $-1 #
edge $-1 $169 -29.752791942209786 $251 -3.4597513291093129 $162 $252 forward 7 unknown #
coedge $-1 $253 $254 $94 $165 forward $243 $-1 #
edge $-1 $255 -61.587722272088598 $168 -55.609050877284673 $164 $256 forward 7 unknown #
edge $-1 $169 65.022209192040776 $255 73.477327265443606 $95 $257 forward 7 unknown #
coedge $-1 $96 $247 $253 $258 forward $157 $-1 #
vertex $-1 $165 $259 #
vertex $-1 $97 $260 #
straight-curve $-1 -46.359063577869335 30.577141702663084 11.131477596729184 0 -1 0 I I #
coedge $-1 $171 $171 $-1 $261 reversed $100 $-1 #
edge $-1 $262 0 $262 6.2831853071796004 $101 $263 forward 7 unknown #
vertex $-1 $104 $264 #
ellipse-curve $-1 -33.212543271319099 33.749328004687669 8.1421418993272212 0 0.70710678939079041 0.70710677298230451 1.5 0 0 1 I I #
face $-1 $-1 $265 $22 $-1 $266 reversed single #
loop $-1 $-1 $111 $105 #
plane-surface $-1 0 0 11.131477596729187 0 0 1 1 0 0 forward_v I I I I #
coedge $-1 $267 $268 $269 $270 reversed $106 $-1 #
coedge $-1 $271 $108 $110 $185 forward $66 $-1 #
coedge $-1 $108 $271 $267 $272 forward $66 $-1 #
coedge $-1 $269 $111 $108 $182 forward $176 $-1 #
edge $-1 $188 3.4597513291093165 $273 29.75279194220979 $181 $274 forward 7 unknown #
coedge $-1 $275 $276 $109 $184 forward $265 $-1 #
edge $-1 $277 -61.587722272088598 $187 -55.609050877284673 $183 $278 forward 7 unknown #
edge $-1 $188 65.022209192040776 $277 73.477327265443606 $110 $279 forward 7 unknown #
coedge $-1 $111 $269 $275 $280 forward $176 $-1 #
vertex $-1 $112 $281 #
vertex $-1 $112 $282 #
straight-curve $-1 20.066022964768869 30.577141702663084 11.131477596729184 0 -1 0 I I #
coedge $-1 $190 $190 $-1 $283 reversed $115 $-1 #
edge $-1 $284 0 $284 6.2831853071796004 $116 $285 forward 7 unknown #
vertex $-1 $119 $286 #
ellipse-curve $-1 33.212543271319106 33.749328004687669 8.1421418993272212 0 0.70710678939079041 0.70710677298230451 1.5 0 0 1 I I #
face $-1 $-1 $135 $18 $-1 $287 reversed single #
loop $-1 $-1 $210 $120 #
plane-surface $-1 0 36.738663632721796 0 0 -1 0 0 0 -1 forward_v I I I I #
coedge $-1 $288 $208 $211 $289 forward $121 $-1 #
coedge $-1 $214 $123 $124 $202 reversed $75 $-1 #
coedge $-1 $208 $288 $123 $200 reversed $121 $-1 #
edge $-1 $215 -11.131477596729187 $290 11.131477596729187 $199 $291 forward 7 unknown #
coedge $-1 $125 $124 $288 $292 forward $49 $-1 #
edge $-1 $206 -54.003112887966552 $290 54.003112887966552 $198 $293 forward 7 unknown #
coedge $-1 $211 $210 $125 $204 reversed $195 $-1 #
edge $-1 $294 -54.003112887966552 $205 54.003112887966552 $203 $295 forward 7 unknown #
vertex $-1 $127 $296 #
vertex $-1 $217 $297 #
straight-curve $-1 54.003112887966552 0 -11.131477596729187 0 -1 0 I I #
coedge $-1 $197 $199 $128 $209 reversed $121 $-1 #
edge $-1 $212 -36.738663632721796 $215 36.738663632721796 $208 $298 forward 7 unknown #
coedge $-1 $203 $129 $134 $218 forward $195 $-1 #
coedge $-1 $129 $203 $197 $289 reversed $195 $-1 #
vertex $-1 $130 $299 #
straight-curve $-1 0 36.738663632721796 11.131477596729187 -1 0 0 I I #
coedge $-1 $131 $198 $133 $217 reversed $75 $-1 #
vertex $-1 $209 $300 #
straight-curve $-1 0 -36.738663632721796 11.131477596729187 1 0 0 I I #
edge $-1 $136 -11.131477596729187 $206 11.131477596729187 $133 $301 forward 7 unknown #
edge $-1 $137 -11.131477596729187 $205 11.131477596729187 $134 $302 forward 7 unknown #
point $-1 54.003112887966552 -36.738663632721796 11.131477596729187 #
point $-1 54.003112887966552 36.738663632721796 11.131477596729187 #
face $-1 $-1 $152 $19 $-1 $303 reversed single #
loop $-1 $-1 $228 $139 #
plane-surface $-1 0 0 11.131477596729187 0 0 1 1 0 0 forward_v I I I I #
coedge $-1 $304 $142 $147 $233 forward $83 $-1 #
coedge $-1 $142 $304 $305 $306 reversed $83 $-1 #
coedge $-1 $144 $143 $142 $227 reversed $53 $-1 #
edge $-1 $307 -7.0367944599520627 $238 -1.1525718136021901 $142 $308 forward 7 unknown #
coedge $-1 $305 $309 $144 $229 forward $222 $-1 #
edge $-1 $231 -54.003112887966552 $307 54.003112887966552 $228 $310 forward 7 unknown #
coedge $-1 $151 $145 $309 $311 reversed $152 $-1 #
vertex $-1 $146 $312 #
straight-curve $-1 54.003112887966552 -25.39552251991185 4.0946831367771264 0 0 1 I I #
edge $-1 $238 9.8619759817534387 $236 21.205117094563384 $224 $313 forward 7 unknown #
coedge $-1 $314 $148 $151 $240 reversed $140 $-1 #
coedge $-1 $148 $314 $304 $315 forward $140 $-1 #
vertex $-1 $149 $316 #
straight-curve $-1 0 -36.738663632721796 5.2472549503793164 1 0 0 I I #
vertex $-1 $233 $317 #
straight-curve $-1 0 -25.39552251991185 5.2472549503793164 1 0 0 I I #
edge $-1 $318 -11.131477596729187 $153 -5.2472549503793164 $151 $319 forward 7 unknown #
point $-1 54.003112887966552 -36.738663632721796 5.2472549503793164 #
point $-1 54.003112887966552 -25.39552251991185 5.2472549503793164 #
loop $-1 $-1 $164 $156 #
plane-surface $-1 0 36.738663632721796 0 0 -1 0 0 0 -1 forward_v I I I I #
coedge $-1 $246 $159 $161 $250 reversed $91 $-1 #
coedge $-1 $159 $245 $320 $321 reversed $91 $-1 #
coedge $-1 $167 $162 $159 $248 forward $157 $-1 #
edge $-1 $251 0.1828506739904725 $322 6.1615219300587114 $247 $323 forward 7 unknown #
coedge $-1 $161 $160 $254 $324 reversed $57 $-1 #
edge $-1 $325 -73.477327265443606 $251 -65.022209192040776 $245 $326 forward 7 unknown #
vertex $-1 $163 $327 #
straight-curve $-1 -16.606271635659549 30.75999237665355 11.131477596729187 1 0 0 I I #
coedge $-1 $320 $164 $167 $258 reversed $243 $-1 #
coedge $-1 $164 $320 $249 $324 forward $243 $-1 #
vertex $-1 $165 $328 #
straight-curve $-1 -46.359063577869335 36.738663632721796 66.740528474013857 0 0 1 I I #
straight-curve $-1 -46.359063577869335 -15.217652137310722 57.109123177609462 0 0.70710677298230451 -0.70710678939079041 I I #
edge $-1 $322 20.066022964768862 $168 46.359063577869335 $253 $329 forward 7 unknown #
point $-1 -46.359063577869335 36.738663632721796 11.131477596729187 #
point $-1 -46.359063577869335 30.759992376653557 11.131477596729184 #
edge $-1 $330 1 $330 0 $171 $-1 forward 7 unknown #
vertex $-1 $172 $331 #
ellipse-curve $-1 -33.212543271319099 32.595831326324948 6.9886452477315082 0 0.70710678939079041 0.70710677298230451 1.5 0 0 1 I I #
point $-1 -31.712543271319099 33.749328004687669 8.1421418993272177 #
loop $-1 $-1 $183 $175 #
plane-surface $-1 0 36.738663632721796 0 0 -1 0 0 0 -1 forward_v I I I I #
coedge $-1 $268 $178 $180 $272 reversed $106 $-1 #
coedge $-1 $178 $267 $332 $333 reversed $106 $-1 #
coedge $-1 $186 $181 $178 $270 forward $176 $-1 #
edge $-1 $273 0.1828506739904725 $334 6.1615219300587114 $269 $335 forward 7 unknown #
coedge $-1 $180 $179 $276 $336 reversed $66 $-1 #
edge $-1 $337 -73.477327265443606 $273 -65.022209192040776 $267 $338 forward 7 unknown #
vertex $-1 $182 $339 #
straight-curve $-1 16.606271635659553 30.75999237665355 11.131477596729187 1 0 0 I I #
coedge $-1 $332 $183 $186 $280 reversed $265 $-1 #
coedge $-1 $183 $332 $271 $336 forward $265 $-1 #
vertex $-1 $184 $340 #
straight-curve $-1 20.066022964768869 36.738663632721796 66.740528474013857 0 0 1 I I #
straight-curve $-1 20.066022964768869 -15.217652137310722 57.109123177609462 0 0.70710677298230451 -0.70710678939079041 I I #
edge $-1 $334 -46.359063577869343 $187 -20.066022964768869 $275 $341 forward 7 unknown #
point $-1 20.066022964768869 36.738663632721796 11.131477596729187 #
point $-1 20.066022964768869 30.759992376653557 11.131477596729184 #
edge $-1 $342 1 $342 0 $190 $-1 forward 7 unknown #
vertex $-1 $191 $343 #
ellipse-curve $-1 33.212543271319106 32.595831326324948 6.9886452477315082 0 0.70710678939079041 0.70710677298230451 1.5 0 0 1 I I #
point $-1 34.712543271319106 33.749328004687669 8.1421418993272177 #
plane-surface $-1 54.003112887966552 0 0 -1 0 0 0 0 1 forward_v I I I I #
coedge $-1 $199 $197 $201 $292 reversed $121 $-1 #
edge $-1 $212 -11.131477596729187 $294 11.131477596729187 $211 $344 forward 7 unknown #
vertex $-1 $292 $345 #
straight-curve $-1 -54.003112887966552 -36.738663632721796 0 0 0 -1 I I #
edge $-1 $290 -36.738663632721796 $294 36.738663632721796 $288 $346 forward 7 unknown #
straight-curve $-1 0 -36.738663632721796 -11.131477596729187 -1 0 0 I I #
vertex $-1 $204 $347 #
straight-curve $-1 0 36.738663632721796 -11.131477596729187 1 0 0 I I #
point $-1 54.003112887966552 36.738663632721796 -11.131477596729187 #
point $-1 54.003112887966552 -36.738663632721796 -11.131477596729187 #
straight-curve $-1 -54.003112887966552 0 11.131477596729187 0 -1 0 I I #
point $-1 -54.003112887966552 36.738663632721796 11.131477596729187 #
point $-1 -54.003112887966552 -36.738663632721796 11.131477596729187 #
straight-curve $-1 54.003112887966552 -36.738663632721796 0 0 0 -1 I I #
straight-curve $-1 54.003112887966552 36.738663632721796 0 0 0 -1 I I #
plane-surface $-1 54.003112887966552 0 0 -1 0 0 0 0 1 forward_v I I I I #
coedge $-1 $225 $224 $235 $315 reversed $83 $-1 #
coedge $-1 $348 $228 $225 $306 forward $222 $-1 #
edge $-1 $307 25.39552251991185 $349 36.738663632721796 $225 $350 forward 7 unknown #
vertex $-1 $306 $351 #
straight-curve $-1 -54.003112887966552 -25.39552251991185 4.0946831367771264 0 0 -1 I I #
coedge $-1 $228 $348 $230 $311 forward $222 $-1 #
straight-curve $-1 0 -25.39552251991185 11.131477596729187 -1 0 0 I I #
edge $-1 $318 -36.738663632721796 $231 -25.39552251991185 $230 $352 forward 7 unknown #
point $-1 54.003112887966552 -25.39552251991185 11.131477596729189 #
straight-curve $-1 -54.003112887966552 -15.533546538158411 5.2472549503793164 0 -1 0 I I #
coedge $-1 $235 $234 $348 $353 reversed $140 $-1 #
edge $-1 $349 -11.131477596729187 $236 -5.2472549503793164 $304 $354 forward 7 unknown #
point $-1 -54.003112887966552 -36.738663632721796 5.2472549503793164 #
point $-1 -54.003112887966552 -25.39552251991185 5.2472549503793164 #
vertex $-1 $311 $355 #
straight-curve $-1 54.003112887966552 -36.738663632721796 0 0 0 -1 I I #
coedge $-1 $254 $253 $246 $321 forward $243 $-1 #
edge $-1 $322 55.609050877284673 $325 61.587722272088598 $320 $356 forward 7 unknown #
vertex $-1 $258 $357 #
straight-curve $-1 -20.066022964768862 30.577141702663084 11.131477596729184 0 1 0 I I #
edge $-1 $325 3.4597513291093129 $255 29.752791942209786 $254 $358 forward 7 unknown #
vertex $-1 $324 $359 #
straight-curve $-1 -20.066022964768862 -15.217652137310722 57.109123177609462 0 -0.70710677298230451 0.70710678939079041 I I #
point $-1 -20.066022964768862 30.759992376653557 11.131477596729184 #
point $-1 -46.359063577869335 36.738663632721789 5.1528062019252587 #
straight-curve $-1 0 36.738663632721796 11.131477596729187 -1 0 0 I I #
vertex $-1 $261 $360 #
point $-1 -31.712543271319099 32.595831326324948 6.9886452477315082 #
coedge $-1 $276 $275 $268 $333 forward $265 $-1 #
edge $-1 $334 55.609050877284673 $337 61.587722272088598 $332 $361 forward 7 unknown #
vertex $-1 $280 $362 #
straight-curve $-1 46.359063577869343 30.577141702663084 11.131477596729184 0 1 0 I I #
edge $-1 $337 -29.75279194220979 $277 -3.4597513291093165 $276 $363 forward 7 unknown #
vertex $-1 $336 $364 #
straight-curve $-1 46.359063577869343 -15.217652137310722 57.109123177609462 0 -0.70710677298230451 0.70710678939079041 I I #
point $-1 46.359063577869343 30.759992376653557 11.131477596729184 #
point $-1 20.066022964768869 36.738663632721789 5.1528062019252587 #
straight-curve $-1 0 36.738663632721796 11.131477596729187 -1 0 0 I I #
vertex $-1 $283 $365 #
point $-1 34.712543271319106 32.595831326324948 6.9886452477315082 #
straight-curve $-1 -54.003112887966552 36.738663632721796 0 0 0 -1 I I #
point $-1 -54.003112887966552 -36.738663632721796 -11.131477596729187 #
straight-curve $-1 -54.003112887966552 0 -11.131477596729187 0 1 0 I I #
point $-1 -54.003112887966552 36.738663632721796 -11.131477596729187 #
coedge $-1 $309 $305 $314 $353 forward $222 $-1 #
vertex $-1 $306 $366 #
straight-curve $-1 -54.003112887966552 0 11.131477596729187 0 -1 0 I I #
point $-1 -54.003112887966552 -25.39552251991185 11.131477596729189 #
straight-curve $-1 54.003112887966552 0 11.131477596729187 0 1 0 I I #
edge $-1 $349 -54.003112887966552 $318 54.003112887966552 $314 $367 forward 7 unknown #
straight-curve $-1 -54.003112887966552 -36.738663632721796 0 0 0 -1 I I #
point $-1 54.003112887966552 -36.738663632721796 11.131477596729187 #
straight-curve $-1 -20.066022964768862 36.738663632721796 66.740528474013857 0 0 -1 I I #
point $-1 -20.066022964768862 36.738663632721796 11.131477596729187 #
straight-curve $-1 -16.606271635659549 36.738663632721796 5.1528062019252587 -1 0 0 I I #
point $-1 -20.066022964768862 36.738663632721789 5.1528062019252587 #
point $-1 -33.212543271319099 31.53517114223876 5.9279850882580511 #
straight-curve $-1 46.359063577869343 36.738663632721796 66.740528474013857 0 0 -1 I I #
point $-1 46.359063577869343 36.738663632721796 11.131477596729187 #
straight-curve $-1 16.606271635659553 36.738663632721796 5.1528062019252587 -1 0 0 I I #
point $-1 46.359063577869343 36.738663632721789 5.1528062019252587 #
point $-1 33.212543271319106 31.53517114223876 5.9279850882580511 #
point $-1 -54.003112887966552 -36.738663632721796 11.131477596729187 #
straight-curve $-1 0 -36.738663632721796 11.131477596729187 1 0 0 I I #
End-of-ACIS-data 