500 0 18 0           
7 Unknown 11 ACIS 5.0 NT 24 Thu Mar 25 22:45:25 1999 
-1 9.9999999999999995e-007 1e-010 
body $-1 $18 $-1 $19 #
body $-1 $20 $-1 $21 #
body $-1 $22 $-1 $23 #
body $-1 $24 $-1 $25 #
body $-1 $26 $-1 $27 #
body $-1 $28 $-1 $29 #
body $-1 $30 $-1 $31 #
body $-1 $32 $-1 $33 #
body $-1 $34 $-1 $35 #
body $-1 $36 $-1 $37 #
body $-1 $38 $-1 $39 #
body $-1 $40 $-1 $41 #
body $-1 $42 $-1 $43 #
body $-1 $44 $-1 $45 #
body $-1 $46 $-1 $47 #
body $-1 $48 $-1 $49 #
body $-1 $50 $-1 $51 #
body $-1 $52 $-1 $53 #
lump $-1 $-1 $54 $0 #
transform $-1 1 0 0 0 1 0 0 0 1 60.123905148472545 32.893924839202626 14.889352208702945 1 rotate no_reflect no_shear #
lump $-1 $-1 $55 $1 #
transform $-1 1 0 0 0 1 0 0 0 1 60.123905148472545 32.893924839202626 14.889352208702945 1 rotate no_reflect no_shear #
lump $-1 $-1 $56 $2 #
transform $-1 1 0 0 0 1 0 0 0 1 60.123905148472545 32.893924839202626 14.889352208702945 1 rotate no_reflect no_shear #
lump $-1 $-1 $57 $3 #
transform $-1 1 0 0 0 1 0 0 0 1 60.123905148472545 32.893924839202626 14.889352208702945 1 rotate no_reflect no_shear #
lump $-1 $-1 $58 $4 #
transform $-1 1 0 0 0 1 0 0 0 1 60.123905148472545 32.893924839202626 14.889352208702945 1 rotate no_reflect no_shear #
lump $-1 $-1 $59 $5 #
transform $-1 1 0 0 0 1 0 0 0 1 60.123905148472545 32.893924839202626 14.889352208702945 1 rotate no_reflect no_shear #
lump $-1 $-1 $60 $6 #
transform $-1 1 0 0 0 1 0 0 0 1 60.123905148472545 32.893924839202626 14.889352208702945 1 rotate no_reflect no_shear #
lump $-1 $-1 $61 $7 #
transform $-1 1 0 0 0 1 0 0 0 1 60.123905148472545 32.893924839202626 14.889352208702945 1 rotate no_reflect no_shear #
lump $-1 $-1 $62 $8 #
transform $-1 1 0 0 0 1 0 0 0 1 60.123905148472545 32.893924839202626 14.889352208702945 1 rotate no_reflect no_shear #
lump $-1 $-1 $63 $9 #
transform $-1 1 0 0 0 1 0 0 0 1 60.123905148472545 32.893924839202626 14.889352208702945 1 rotate no_reflect no_shear #
lump $-1 $-1 $64 $10 #
transform $-1 1 0 0 0 1 0 0 0 1 60.123905148472545 32.893924839202626 14.889352208702945 1 rotate no_reflect no_shear #
lump $-1 $-1 $65 $11 #
transform $-1 1 0 0 0 1 0 0 0 1 60.123905148472545 32.893924839202626 14.889352208702945 1 rotate no_reflect no_shear #
lump $-1 $-1 $66 $12 #
transform $-1 1 0 0 0 1 0 0 0 1 60.123905148472545 32.893924839202626 14.889352208702945 1 rotate no_reflect no_shear #
lump $-1 $-1 $67 $13 #
transform $-1 1 0 0 0 1 0 0 0 1 60.123905148472545 32.893924839202626 14.889352208702945 1 rotate no_reflect no_shear #
lump $-1 $-1 $68 $14 #
transform $-1 1 0 0 0 1 0 0 0 1 60.123905148472545 32.893924839202626 14.889352208702945 1 rotate no_reflect no_shear #
lump $-1 $-1 $69 $15 #
transform $-1 1 0 0 0 1 0 0 0 1 60.123905148472545 32.893924839202626 14.889352208702945 1 rotate no_reflect no_shear #
lump $-1 $-1 $70 $16 #
transform $-1 1 0 0 0 1 0 0 0 1 60.123905148472545 32.893924839202626 14.889352208702945 1 rotate no_reflect no_shear #
lump $-1 $-1 $71 $17 #
transform $-1 1 0 0 0 1 0 0 0 1 60.123905148472545 32.893924839202626 14.889352208702945 1 rotate no_reflect no_shear #
shell $-1 $-1 $-1 $72 $-1 $18 #
shell $-1 $-1 $-1 $73 $-1 $20 #
shell $-1 $-1 $-1 $74 $-1 $22 #
shell $-1 $-1 $-1 $75 $-1 $24 #
shell $-1 $-1 $-1 $76 $-1 $26 #
shell $-1 $-1 $-1 $77 $-1 $28 #
shell $-1 $-1 $-1 $78 $-1 $30 #
shell $-1 $-1 $-1 $79 $-1 $32 #
shell $-1 $-1 $-1 $80 $-1 $34 #
shell $-1 $-1 $-1 $81 $-1 $36 #
shell $-1 $-1 $-1 $82 $-1 $38 #
shell $-1 $-1 $-1 $83 $-1 $40 #
shell $-1 $-1 $-1 $84 $-1 $42 #
shell $-1 $-1 $-1 $85 $-1 $44 #
shell $-1 $-1 $-1 $86 $-1 $46 #
shell $-1 $-1 $-1 $87 $-1 $48 #
shell $-1 $-1 $-1 $88 $-1 $50 #
shell $-1 $-1 $-1 $89 $-1 $52 #
face $-1 $90 $91 $54 $-1 $92 forward single #
face $-1 $93 $94 $55 $-1 $95 reversed single #
face $-1 $96 $97 $56 $-1 $98 reversed single #
face $-1 $99 $100 $57 $-1 $101 reversed single #
face $-1 $102 $103 $58 $-1 $104 forward single #
face $-1 $105 $106 $59 $-1 $107 forward single #
face $-1 $108 $109 $60 $-1 $110 reversed single #
face $-1 $111 $112 $61 $-1 $113 forward single #
face $-1 $114 $115 $62 $-1 $116 forward single #
face $-1 $117 $118 $63 $-1 $119 reversed single #
face $-1 $120 $121 $64 $-1 $122 forward single #
face $-1 $123 $124 $65 $-1 $125 forward single #
face $-1 $126 $127 $66 $-1 $128 reversed single #
face $-1 $129 $130 $67 $-1 $131 forward single #
face $-1 $132 $133 $68 $-1 $134 forward single #
face $-1 $135 $136 $69 $-1 $137 reversed single #
face $-1 $138 $139 $70 $-1 $140 forward single #
face $-1 $141 $142 $71 $-1 $143 forward single #
face $-1 $144 $145 $54 $-1 $146 reversed single #
loop $-1 $-1 $147 $72 #
plane-surface $-1 0 0 14.889352208702945 0 0 1 1 0 0 forward_v I I I I #
face $-1 $148 $149 $55 $-1 $150 reversed single #
loop $-1 $-1 $151 $73 #
plane-surface $-1 -54.311005167936578 0 9.2555997579463689 0 0 1 1 0 0 forward_v I I I I #
face $-1 $152 $153 $56 $-1 $154 reversed single #
loop $-1 $-1 $155 $74 #
plane-surface $-1 54.311005167936571 0 9.2555997579463689 0 0 1 1 0 0 forward_v I I I I #
face $-1 $156 $157 $57 $-1 $158 reversed single #
loop $-1 $-1 $159 $75 #
plane-surface $-1 -40.202402831878388 84.942391366954823 131.18070287315706 1 0 0 0 -0.77714596973225614 -0.62932038083071107 forward_v I I I I #
face $-1 $160 $161 $58 $-1 $162 forward single #
loop $-1 $163 $164 $76 #
cone-surface $-1 -36.353048497298815 28.008666453112465 9.1243479060070687 0 -0.77714596973225614 -0.62932038083071107 1 0 0 1 I I 0 1 1 forward I I I I #
face $-1 $165 $166 $59 $-1 $167 forward single #
loop $-1 $168 $169 $77 #
cone-surface $-1 -30.579016995429438 28.008666453112465 9.1243479060070687 0 -0.77714596973225614 -0.62932038083071107 1 0 0 1 I I 0 1 1 forward I I I I #
face $-1 $170 $171 $60 $-1 $172 reversed single #
loop $-1 $-1 $173 $78 #
plane-surface $-1 -15.953350238178093 84.942391366954823 131.18070287315706 1 0 0 0 -0.77714596973225614 -0.62932038083071107 forward_v I I I I #
face $-1 $174 $175 $61 $-1 $176 forward single #
loop $-1 $177 $178 $79 #
cone-surface $-1 -12.103995903598502 28.008666453112465 9.1243479060070687 0 -0.77714596973225614 -0.62932038083071107 1 0 0 1 I I 0 1 1 forward I I I I #
face $-1 $179 $180 $62 $-1 $181 forward single #
loop $-1 $182 $183 $80 #
cone-surface $-1 -6.3299644017291286 28.008666453112465 9.1243479060070687 0 -0.77714596973225614 -0.62932038083071107 1 0 0 1 I I 0 1 1 forward I I I I #
face $-1 $184 $185 $63 $-1 $186 reversed single #
loop $-1 $-1 $187 $81 #
plane-surface $-1 8.29570235552222 84.942391366954823 131.18070287315706 1 0 0 0 -0.77714596973225614 -0.62932038083071107 forward_v I I I I #
face $-1 $188 $189 $64 $-1 $190 forward single #
loop $-1 $191 $192 $82 #
cone-surface $-1 12.145056690101796 28.008666453112465 9.1243479060070687 0 -0.77714596973225614 -0.62932038083071107 1 0 0 1 I I 0 1 1 forward I I I I #
face $-1 $193 $194 $65 $-1 $195 forward single #
loop $-1 $196 $197 $83 #
cone-surface $-1 17.919088191971184 28.008666453112465 9.1243479060070687 0 -0.77714596973225614 -0.62932038083071107 1 0 0 1 I I 0 1 1 forward I I I I #
face $-1 $198 $199 $66 $-1 $200 reversed single #
loop $-1 $-1 $201 $84 #
plane-surface $-1 32.544754949222522 84.942391366954823 131.18070287315706 1 0 0 0 -0.77714596973225614 -0.62932038083071107 forward_v I I I I #
face $-1 $202 $203 $67 $-1 $204 forward single #
loop $-1 $205 $206 $85 #
cone-surface $-1 36.394109283802095 28.008666453112465 9.1243479060070687 0 -0.77714596973225614 -0.62932038083071107 1 0 0 1 I I 0 1 1 forward I I I I #
face $-1 $207 $208 $68 $-1 $209 forward single #
loop $-1 $210 $211 $86 #
cone-surface $-1 42.168140785671483 28.008666453112465 9.1243479060070687 0 -0.77714596973225614 -0.62932038083071107 1 0 0 1 I I 0 1 1 forward I I I I #
face $-1 $212 $213 $69 $-1 $214 reversed single #
loop $-1 $-1 $215 $87 #
plane-surface $-1 -24.343334319230181 -120.83760700527407 88.71491534118546 -1 0 0 0 -0.73135370988377701 0.68199835119979291 forward_v I I I I #
face $-1 $216 $217 $70 $-1 $218 forward single #
loop $-1 $219 $220 $88 #
cone-surface $-1 -41.596742082209062 -27.158669059952206 9.0075281529366542 0 0.73135370988377701 -0.68199835119979291 2.5 0 0 1 I I 0 1 2.5 forward I I I I #
face $-1 $221 $222 $71 $-1 $223 forward single #
loop $-1 $224 $225 $89 #
cone-surface $-1 -31.244697424421734 -27.158669059952206 9.0075281529366542 0 0.73135370988377701 -0.68199835119979291 2.5 0 0 1 I I 0 1 2.5 forward I I I I #
face $-1 $226 $227 $54 $-1 $228 reversed single #
loop $-1 $-1 $229 $90 #
plane-surface $-1 0 0 -14.889352208702945 0 0 1 1 0 0 forward_v I I I I #
coedge $-1 $230 $231 $232 $233 forward $91 $-1 #
face $-1 $234 $235 $55 $-1 $236 reversed single #
loop $-1 $-1 $237 $93 #
plane-surface $-1 -48.498105187400611 0 12.072475983324658 -1 0 0 0 0 1 forward_v I I I I #
coedge $-1 $238 $239 $240 $241 forward $94 $-1 #
face $-1 $242 $243 $56 $-1 $244 forward single #
loop $-1 $-1 $245 $96 #
plane-surface $-1 48.498105187400604 0 12.072475983324658 1 0 0 0 0 -1 forward_v I I I I #
coedge $-1 $246 $247 $248 $249 reversed $97 $-1 #
face $-1 $250 $251 $57 $-1 $252 reversed single #
loop $-1 $-1 $253 $99 #
plane-surface $-1 -33.466032746364121 -8.5077097744449475 55.506305103024474 0 0.77714596973225614 0.62932038083071107 1 0 0 forward_v I I I I #
coedge $-1 $254 $255 $256 $257 reversed $100 $-1 #
face $-1 $-1 $258 $58 $-1 $259 forward single #
loop $-1 $260 $261 $102 #
cone-surface $-1 -36.353048497298815 26.990172865716232 8.2995880831971292 0 -0.77714596973225614 -0.62932038083071107 0.5 0 0 1 I I -0.70710678118654746 0.70710678118654746 0.5 forward I I I I #
loop $-1 $-1 $262 $76 #
coedge $-1 $164 $164 $263 $264 reversed $103 $-1 #
face $-1 $-1 $265 $59 $-1 $266 forward single #
loop $-1 $267 $268 $105 #
cone-surface $-1 -30.579016995429438 26.990172865716232 8.2995880831971292 0 -0.77714596973225614 -0.62932038083071107 0.5 0 0 1 I I -0.70710678118654746 0.70710678118654746 0.5 forward I I I I #
loop $-1 $-1 $269 $77 #
coedge $-1 $169 $169 $270 $271 reversed $106 $-1 #
face $-1 $272 $273 $60 $-1 $274 reversed single #
loop $-1 $-1 $275 $108 #
plane-surface $-1 -9.2169801526638224 -8.5077097744449475 55.506305103024474 0 0.77714596973225614 0.62932038083071107 1 0 0 forward_v I I I I #
coedge $-1 $276 $277 $278 $279 reversed $109 $-1 #
face $-1 $-1 $280 $61 $-1 $281 forward single #
loop $-1 $282 $283 $111 #
cone-surface $-1 -12.103995903598502 26.990172865716232 8.2995880831971292 0 -0.77714596973225614 -0.62932038083071107 0.5 0 0 1 I I -0.70710678118654746 0.70710678118654746 0.5 forward I I I I #
loop $-1 $-1 $284 $79 #
coedge $-1 $178 $178 $285 $286 reversed $112 $-1 #
face $-1 $-1 $287 $62 $-1 $288 forward single #
loop $-1 $289 $290 $114 #
cone-surface $-1 -6.3299644017291286 26.990172865716232 8.2995880831971292 0 -0.77714596973225614 -0.62932038083071107 0.5 0 0 1 I I -0.70710678118654746 0.70710678118654746 0.5 forward I I I I #
loop $-1 $-1 $291 $80 #
coedge $-1 $183 $183 $292 $293 reversed $115 $-1 #
face $-1 $294 $295 $63 $-1 $296 reversed single #
loop $-1 $-1 $297 $117 #
plane-surface $-1 15.03207244103649 -8.5077097744449475 55.506305103024474 0 0.77714596973225614 0.62932038083071107 1 0 0 forward_v I I I I #
coedge $-1 $298 $299 $300 $301 reversed $118 $-1 #
face $-1 $-1 $302 $64 $-1 $303 forward single #
loop $-1 $304 $305 $120 #
cone-surface $-1 12.145056690101796 26.990172865716232 8.2995880831971292 0 -0.77714596973225614 -0.62932038083071107 0.5 0 0 1 I I -0.70710678118654746 0.70710678118654746 0.5 forward I I I I #
loop $-1 $-1 $306 $82 #
coedge $-1 $192 $192 $307 $308 reversed $121 $-1 #
face $-1 $-1 $309 $65 $-1 $310 forward single #
loop $-1 $311 $312 $123 #
cone-surface $-1 17.919088191971184 26.990172865716232 8.2995880831971292 0 -0.77714596973225614 -0.62932038083071107 0.5 0 0 1 I I -0.70710678118654746 0.70710678118654746 0.5 forward I I I I #
loop $-1 $-1 $313 $83 #
coedge $-1 $197 $197 $314 $315 reversed $124 $-1 #
face $-1 $316 $317 $66 $-1 $318 reversed single #
loop $-1 $-1 $319 $126 #
plane-surface $-1 39.281125034736789 -8.5077097744449475 55.506305103024474 0 0.77714596973225614 0.62932038083071107 1 0 0 forward_v I I I I #
coedge $-1 $320 $321 $322 $323 reversed $127 $-1 #
face $-1 $-1 $324 $67 $-1 $325 forward single #
loop $-1 $326 $327 $129 #
cone-surface $-1 36.394109283802095 26.990172865716232 8.2995880831971292 0 -0.77714596973225614 -0.62932038083071107 0.5 0 0 1 I I -0.70710678118654746 0.70710678118654746 0.5 forward I I I I #
loop $-1 $-1 $328 $85 #
coedge $-1 $206 $206 $329 $330 reversed $130 $-1 #
face $-1 $-1 $331 $68 $-1 $332 forward single #
loop $-1 $333 $334 $132 #
cone-surface $-1 42.168140785671483 26.990172865716232 8.2995880831971292 0 -0.77714596973225614 -0.62932038083071107 0.5 0 0 1 I I -0.70710678118654746 0.70710678118654746 0.5 forward I I I I #
loop $-1 $-1 $335 $86 #
coedge $-1 $211 $211 $336 $337 reversed $133 $-1 #
face $-1 $338 $339 $69 $-1 $340 forward single #
loop $-1 $-1 $341 $135 #
plane-surface $-1 -36.420719753315396 -32.893924839202626 6.7061069832834335 0 -0.73135370988377701 0.68199835119979291 1 0 0 forward_v I I I I #
coedge $-1 $342 $343 $344 $345 reversed $136 $-1 #
face $-1 $-1 $346 $70 $-1 $347 forward single #
loop $-1 $348 $349 $138 #
cone-surface $-1 -41.596742082209062 -24.324720863780961 6.3648287708803863 0 0.73135370988377701 -0.68199835119979291 1.25 0 0 1 I I -0.70710678118654746 0.70710678118654746 1.25 forward I I I I #
loop $-1 $-1 $350 $88 #
coedge $-1 $220 $220 $351 $352 reversed $139 $-1 #
face $-1 $-1 $353 $71 $-1 $354 forward single #
loop $-1 $355 $356 $141 #
cone-surface $-1 -31.244697424421734 -24.324720863780961 6.3648287708803863 0 0.73135370988377701 -0.68199835119979291 1.25 0 0 1 I I -0.70710678118654746 0.70710678118654746 1.25 forward I I I I #
loop $-1 $-1 $357 $89 #
coedge $-1 $225 $225 $358 $359 reversed $142 $-1 #
face $-1 $360 $361 $54 $-1 $362 reversed single #
loop $-1 $-1 $363 $144 #
plane-surface $-1 0 -32.893924839202626 0 0 1 0 0 0 1 forward_v I I I I #
coedge $-1 $364 $365 $366 $367 forward $145 $-1 #
coedge $-1 $368 $147 $369 $370 forward $91 $-1 #
coedge $-1 $147 $368 $371 $372 forward $91 $-1 #
coedge $-1 $373 $374 $147 $233 reversed $375 $-1 #
edge $-1 $376 -32.893924839202626 $377 32.893924839202626 $232 $378 forward 7 unknown #
face $-1 $379 $380 $55 $-1 $381 reversed single #
loop $-1 $-1 $382 $148 #
plane-surface $-1 0 32.893924839202626 0 0 -1 0 0 0 -1 forward_v I I I I #
coedge $-1 $240 $383 $384 $385 reversed $149 $-1 #
coedge $-1 $386 $151 $387 $388 reversed $94 $-1 #
coedge $-1 $151 $386 $389 $390 reversed $94 $-1 #
coedge $-1 $391 $237 $151 $241 reversed $149 $-1 #
edge $-1 $392 -32.893924839202626 $393 32.893924839202626 $240 $394 forward 7 unknown #
face $-1 $395 $396 $56 $-1 $397 reversed single #
loop $-1 $-1 $398 $152 #
plane-surface $-1 0 0 14.889352208702945 0 0 1 1 0 0 forward_v I I I I #
coedge $-1 $399 $400 $401 $402 reversed $153 $-1 #
coedge $-1 $403 $155 $404 $405 reversed $97 $-1 #
coedge $-1 $155 $403 $406 $407 reversed $97 $-1 #
coedge $-1 $408 $409 $155 $249 forward $410 $-1 #
edge $-1 $411 -32.893924839202626 $412 32.893924839202626 $248 $413 forward 7 unknown #
face $-1 $414 $415 $57 $-1 $416 reversed single #
loop $-1 $-1 $417 $156 #
plane-surface $-1 -26.729662660849851 84.942391366954823 131.18070287315706 -1 0 0 0 0.77714596973225614 0.62932038083071107 forward_v I I I I #
coedge $-1 $418 $419 $420 $421 reversed $157 $-1 #
coedge $-1 $255 $159 $422 $423 reversed $100 $-1 #
coedge $-1 $159 $254 $418 $424 reversed $100 $-1 #
coedge $-1 $420 $425 $159 $257 forward $426 $-1 #
edge $-1 $427 9.5772708442747856 $428 18.087946411394938 $256 $429 forward 7 unknown #
loop $-1 $-1 $263 $160 #
plane-surface $-1 -33.466032746364121 -8.5077097744449475 55.506305103024474 0 0.77714596973225614 0.62932038083071107 1 0 0 forward_v I I I I #
loop $-1 $-1 $430 $102 #
coedge $-1 $261 $261 $262 $431 reversed $161 $-1 #
coedge $-1 $262 $262 $261 $431 forward $163 $-1 #
coedge $-1 $263 $263 $164 $264 forward $258 $-1 #
edge $-1 $432 9.9037372503514738e-016 $432 6.2831853071796013 $263 $433 forward 7 unknown #
loop $-1 $-1 $270 $165 #
plane-surface $-1 -33.466032746364121 -8.5077097744449475 55.506305103024474 0 0.77714596973225614 0.62932038083071107 1 0 0 forward_v I I I I #
loop $-1 $-1 $434 $105 #
coedge $-1 $268 $268 $269 $435 reversed $166 $-1 #
coedge $-1 $269 $269 $268 $435 forward $168 $-1 #
coedge $-1 $270 $270 $169 $271 forward $265 $-1 #
edge $-1 $436 9.9037372503514738e-016 $436 6.2831853071796013 $270 $437 forward 7 unknown #
face $-1 $438 $439 $60 $-1 $440 forward single #
loop $-1 $-1 $441 $170 #
plane-surface $-1 -2.4806100671495521 84.942391366954823 131.18070287315706 -1 0 0 0 0.77714596973225614 0.62932038083071107 forward_v I I I I #
coedge $-1 $442 $443 $444 $445 reversed $171 $-1 #
coedge $-1 $277 $173 $446 $447 reversed $109 $-1 #
coedge $-1 $173 $276 $442 $448 reversed $109 $-1 #
coedge $-1 $444 $449 $173 $279 forward $439 $-1 #
edge $-1 $450 9.5772708442747856 $451 18.087946411394938 $278 $452 forward 7 unknown #
loop $-1 $-1 $285 $174 #
plane-surface $-1 -9.2169801526638224 -8.5077097744449475 55.506305103024474 0 0.77714596973225614 0.62932038083071107 1 0 0 forward_v I I I I #
loop $-1 $-1 $453 $111 #
coedge $-1 $283 $283 $284 $454 reversed $175 $-1 #
coedge $-1 $284 $284 $283 $454 forward $177 $-1 #
coedge $-1 $285 $285 $178 $286 forward $280 $-1 #
edge $-1 $455 9.9037372503514738e-016 $455 6.2831853071796013 $285 $456 forward 7 unknown #
loop $-1 $-1 $292 $179 #
plane-surface $-1 -9.2169801526638224 -8.5077097744449475 55.506305103024474 0 0.77714596973225614 0.62932038083071107 1 0 0 forward_v I I I I #
loop $-1 $-1 $457 $114 #
coedge $-1 $290 $290 $291 $458 reversed $180 $-1 #
coedge $-1 $291 $291 $290 $458 forward $182 $-1 #
coedge $-1 $292 $292 $183 $293 forward $287 $-1 #
edge $-1 $459 9.9037372503514738e-016 $459 6.2831853071796013 $292 $460 forward 7 unknown #
face $-1 $461 $462 $63 $-1 $463 forward single #
loop $-1 $-1 $464 $184 #
plane-surface $-1 21.768442526550761 84.942391366954823 131.18070287315706 -1 0 0 0 0.77714596973225614 0.62932038083071107 forward_v I I I I #
coedge $-1 $465 $466 $467 $468 reversed $185 $-1 #
coedge $-1 $299 $187 $469 $470 reversed $118 $-1 #
coedge $-1 $187 $298 $465 $471 reversed $118 $-1 #
coedge $-1 $467 $472 $187 $301 forward $462 $-1 #
edge $-1 $473 9.5772708442747856 $474 18.087946411394938 $300 $475 forward 7 unknown #
loop $-1 $-1 $307 $188 #
plane-surface $-1 15.03207244103649 -8.5077097744449475 55.506305103024474 0 0.77714596973225614 0.62932038083071107 1 0 0 forward_v I I I I #
loop $-1 $-1 $476 $120 #
coedge $-1 $305 $305 $306 $477 reversed $189 $-1 #
coedge $-1 $306 $306 $305 $477 forward $191 $-1 #
coedge $-1 $307 $307 $192 $308 forward $302 $-1 #
edge $-1 $478 9.9037372503514738e-016 $478 6.2831853071796013 $307 $479 forward 7 unknown #
loop $-1 $-1 $314 $193 #
plane-surface $-1 15.03207244103649 -8.5077097744449475 55.506305103024474 0 0.77714596973225614 0.62932038083071107 1 0 0 forward_v I I I I #
loop $-1 $-1 $480 $123 #
coedge $-1 $312 $312 $313 $481 reversed $194 $-1 #
coedge $-1 $313 $313 $312 $481 forward $196 $-1 #
coedge $-1 $314 $314 $197 $315 forward $309 $-1 #
edge $-1 $482 9.9037372503514738e-016 $482 6.2831853071796013 $314 $483 forward 7 unknown #
face $-1 $484 $485 $66 $-1 $486 forward single #
loop $-1 $-1 $487 $198 #
plane-surface $-1 46.017495120251056 84.942391366954823 131.18070287315706 -1 0 0 0 0.77714596973225614 0.62932038083071107 forward_v I I I I #
coedge $-1 $488 $489 $490 $491 reversed $199 $-1 #
coedge $-1 $321 $201 $492 $493 reversed $127 $-1 #
coedge $-1 $201 $320 $488 $494 reversed $127 $-1 #
coedge $-1 $490 $495 $201 $323 forward $485 $-1 #
edge $-1 $496 9.5772708442747856 $497 18.087946411394938 $322 $498 forward 7 unknown #
loop $-1 $-1 $329 $202 #
plane-surface $-1 39.281125034736789 -8.5077097744449475 55.506305103024474 0 0.77714596973225614 0.62932038083071107 1 0 0 forward_v I I I I #
loop $-1 $-1 $499 $129 #
coedge $-1 $327 $327 $328 $500 reversed $203 $-1 #
coedge $-1 $328 $328 $327 $500 forward $205 $-1 #
coedge $-1 $329 $329 $206 $330 forward $324 $-1 #
edge $-1 $501 9.9037372503514738e-016 $501 6.2831853071796013 $329 $502 forward 7 unknown #
loop $-1 $-1 $336 $207 #
plane-surface $-1 39.281125034736789 -8.5077097744449475 55.506305103024474 0 0.77714596973225614 0.62932038083071107 1 0 0 forward_v I I I I #
loop $-1 $-1 $503 $132 #
coedge $-1 $334 $334 $335 $504 reversed $208 $-1 #
coedge $-1 $335 $335 $334 $504 forward $210 $-1 #
coedge $-1 $336 $336 $211 $337 forward $331 $-1 #
edge $-1 $505 9.9037372503514738e-016 $505 6.2831853071796013 $336 $506 forward 7 unknown #
face $-1 $507 $508 $69 $-1 $509 forward single #
loop $-1 $-1 $344 $212 #
plane-surface $-1 0 0 14.889352208702945 0 0 1 1 0 0 forward_v I I I I #
coedge $-1 $510 $511 $512 $513 reversed $213 $-1 #
coedge $-1 $343 $215 $514 $515 reversed $136 $-1 #
coedge $-1 $215 $342 $510 $516 reversed $136 $-1 #
coedge $-1 $512 $517 $215 $345 forward $339 $-1 #
edge $-1 $518 27.524878663434407 $519 35.15587810430219 $344 $520 forward 7 unknown #
loop $-1 $-1 $351 $216 #
plane-surface $-1 -36.420719753315396 -32.893924839202626 6.7061069832834335 0 -0.73135370988377701 0.68199835119979291 1 0 0 forward_v I I I I #
loop $-1 $-1 $521 $138 #
coedge $-1 $349 $349 $350 $522 reversed $217 $-1 #
coedge $-1 $350 $350 $349 $522 forward $219 $-1 #
coedge $-1 $351 $351 $220 $352 forward $346 $-1 #
edge $-1 $523 -1.4027636633495637e-016 $523 6.2831853071796004 $351 $524 forward 7 unknown #
loop $-1 $-1 $358 $221 #
plane-surface $-1 -36.420719753315396 -32.893924839202626 6.7061069832834335 0 -0.73135370988377701 0.68199835119979291 1 0 0 forward_v I I I I #
loop $-1 $-1 $525 $141 #
coedge $-1 $356 $356 $357 $526 reversed $222 $-1 #
coedge $-1 $357 $357 $356 $526 forward $224 $-1 #
coedge $-1 $358 $358 $225 $359 forward $353 $-1 #
edge $-1 $527 -1.4027636633495637e-016 $527 6.2831853071796004 $358 $528 forward 7 unknown #
face $-1 $529 $530 $54 $-1 $531 reversed single #
loop $-1 $-1 $532 $226 #
plane-surface $-1 -60.123905148472545 0 0 1 0 0 0 0 -1 forward_v I I I I #
coedge $-1 $533 $371 $534 $535 forward $227 $-1 #
coedge $-1 $536 $229 $533 $537 forward $145 $-1 #
coedge $-1 $229 $536 $538 $539 forward $145 $-1 #
coedge $-1 $374 $373 $229 $367 reversed $375 $-1 #
edge $-1 $540 -32.893924839202626 $541 32.893924839202626 $366 $542 forward 7 unknown #
coedge $-1 $231 $230 $543 $544 forward $91 $-1 #
coedge $-1 $545 $546 $230 $370 reversed $530 $-1 #
edge $-1 $377 -60.123905148472545 $547 60.123905148472545 $369 $548 forward 7 unknown #
coedge $-1 $363 $549 $231 $372 reversed $227 $-1 #
edge $-1 $550 -60.123905148472545 $376 60.123905148472545 $371 $551 forward 7 unknown #
coedge $-1 $366 $232 $549 $552 forward $375 $-1 #
coedge $-1 $232 $366 $545 $553 reversed $375 $-1 #
loop $-1 $-1 $373 $529 #
vertex $-1 $233 $554 #
vertex $-1 $233 $555 #
straight-curve $-1 60.123905148472545 0 14.889352208702945 0 1 0 I I #
face $-1 $556 $557 $55 $-1 $558 forward single #
loop $-1 $-1 $559 $234 #
plane-surface $-1 -60.123905148472545 0 0 1 0 0 0 0 -1 forward_v I I I I #
coedge $-1 $389 $560 $391 $561 forward $235 $-1 #
coedge $-1 $237 $391 $562 $563 reversed $149 $-1 #
coedge $-1 $564 $387 $237 $385 forward $565 $-1 #
edge $-1 $393 3.2193617662840399 $566 8.8531142170406181 $384 $567 forward 7 unknown #
coedge $-1 $239 $238 $559 $568 reversed $94 $-1 #
coedge $-1 $384 $569 $238 $388 forward $565 $-1 #
edge $-1 $570 -32.96840256450426 $393 -21.342602603432322 $387 $571 forward 7 unknown #
coedge $-1 $572 $382 $239 $390 forward $235 $-1 #
edge $-1 $392 21.342602603432322 $573 32.96840256450426 $389 $574 forward 7 unknown #
coedge $-1 $383 $240 $382 $561 reversed $149 $-1 #
vertex $-1 $390 $575 #
vertex $-1 $388 $576 #
straight-curve $-1 -48.498105187400611 0 9.2555997579463689 0 -1 0 I I #
face $-1 $577 $578 $56 $-1 $579 reversed single #
loop $-1 $-1 $580 $242 #
plane-surface $-1 0 -32.893924839202626 0 0 1 0 0 0 1 forward_v I I I I #
coedge $-1 $581 $582 $400 $583 forward $243 $-1 #
coedge $-1 $584 $245 $403 $585 reversed $153 $-1 #
coedge $-1 $245 $584 $398 $583 reversed $153 $-1 #
coedge $-1 $586 $406 $245 $402 forward $578 $-1 #
edge $-1 $587 3.2193617662840399 $588 8.8531142170406181 $401 $589 forward 7 unknown #
coedge $-1 $247 $246 $399 $585 forward $97 $-1 #
coedge $-1 $590 $580 $246 $405 forward $396 $-1 #
edge $-1 $591 21.342602603432319 $411 32.968402564504252 $404 $592 forward 7 unknown #
coedge $-1 $401 $593 $247 $407 forward $578 $-1 #
edge $-1 $412 -32.968402564504252 $587 -21.342602603432319 $406 $594 forward 7 unknown #
coedge $-1 $595 $248 $593 $596 reversed $410 $-1 #
coedge $-1 $248 $595 $590 $597 forward $410 $-1 #
loop $-1 $-1 $248 $577 #
vertex $-1 $405 $598 #
vertex $-1 $249 $599 #
straight-curve $-1 60.123905148472545 0 9.2555997579463689 0 1 0 I I #
face $-1 $-1 $426 $57 $-1 $600 forward single #
loop $-1 $-1 $601 $250 #
plane-surface $-1 0 32.893924839202626 0 0 -1 0 0 0 -1 forward_v I I I I #
coedge $-1 $602 $603 $604 $605 reversed $251 $-1 #
coedge $-1 $606 $253 $255 $424 forward $157 $-1 #
coedge $-1 $253 $606 $602 $607 forward $157 $-1 #
coedge $-1 $604 $256 $253 $421 forward $426 $-1 #
edge $-1 $428 -23.469386458696327 $608 -9.9966462876677902 $420 $609 forward 7 unknown #
coedge $-1 $610 $611 $254 $423 forward $415 $-1 #
edge $-1 $612 -61.210808568478214 $427 -50.700999227875585 $422 $613 forward 7 unknown #
edge $-1 $428 52.264252117674829 $612 65.787849678405266 $255 $614 forward 7 unknown #
coedge $-1 $256 $604 $610 $615 forward $426 $-1 #
loop $-1 $-1 $604 $414 #
vertex $-1 $423 $616 #
vertex $-1 $257 $617 #
straight-curve $-1 -40.202402831878388 42.471195683477411 14.889352208702945 0 -1 0 I I #
coedge $-1 $430 $430 $-1 $618 reversed $260 $-1 #
edge $-1 $619 0 $619 6.2831853071796004 $261 $620 forward 7 unknown #
vertex $-1 $264 $621 #
ellipse-curve $-1 -36.353048497298815 28.638587055642546 9.6344475384016341 0 0.77714596973225614 0.62932038083071107 1 0 0 1 I I #
coedge $-1 $434 $434 $-1 $622 reversed $267 $-1 #
edge $-1 $623 0 $623 6.2831853071796004 $268 $624 forward 7 unknown #
vertex $-1 $271 $625 #
ellipse-curve $-1 -30.579016995429438 28.638587055642546 9.6344475384016341 0 0.77714596973225614 0.62932038083071107 1 0 0 1 I I #
face $-1 $-1 $626 $60 $-1 $627 reversed single #
loop $-1 $-1 $278 $272 #
plane-surface $-1 0 0 14.889352208702945 0 0 1 1 0 0 forward_v I I I I #
coedge $-1 $628 $629 $630 $631 reversed $273 $-1 #
coedge $-1 $632 $275 $277 $448 forward $171 $-1 #
coedge $-1 $275 $632 $628 $633 forward $171 $-1 #
coedge $-1 $630 $278 $275 $445 forward $439 $-1 #
edge $-1 $451 -11.344860161846182 $634 2.1278800091823591 $444 $635 forward 7 unknown #
coedge $-1 $636 $637 $276 $447 forward $626 $-1 #
edge $-1 $638 -61.210808568478214 $450 -50.700999227875585 $446 $639 forward 7 unknown #
edge $-1 $451 52.264252117674829 $638 65.787849678405266 $277 $640 forward 7 unknown #
coedge $-1 $278 $630 $636 $641 forward $439 $-1 #
vertex $-1 $279 $642 #
vertex $-1 $279 $643 #
straight-curve $-1 -15.953350238178093 42.471195683477411 14.889352208702945 0 -1 0 I I #
coedge $-1 $453 $453 $-1 $644 reversed $282 $-1 #
edge $-1 $645 0 $645 6.2831853071796004 $283 $646 forward 7 unknown #
vertex $-1 $286 $647 #
ellipse-curve $-1 -12.103995903598502 28.638587055642546 9.6344475384016341 0 0.77714596973225614 0.62932038083071107 1 0 0 1 I I #
coedge $-1 $457 $457 $-1 $648 reversed $289 $-1 #
edge $-1 $649 0 $649 6.2831853071796004 $290 $650 forward 7 unknown #
vertex $-1 $293 $651 #
ellipse-curve $-1 -6.3299644017291286 28.638587055642546 9.6344475384016341 0 0.77714596973225614 0.62932038083071107 1 0 0 1 I I #
face $-1 $-1 $652 $63 $-1 $653 reversed single #
loop $-1 $-1 $300 $294 #
plane-surface $-1 0 0 14.889352208702945 0 0 1 1 0 0 forward_v I I I I #
coedge $-1 $654 $655 $656 $657 reversed $295 $-1 #
coedge $-1 $658 $297 $299 $471 forward $185 $-1 #
coedge $-1 $297 $658 $654 $659 forward $185 $-1 #
coedge $-1 $656 $300 $297 $468 forward $462 $-1 #
edge $-1 $474 0.77966613500397486 $660 14.252406306032515 $467 $661 forward 7 unknown #
coedge $-1 $662 $663 $298 $470 forward $652 $-1 #
edge $-1 $664 -61.210808568478214 $473 -50.700999227875585 $469 $665 forward 7 unknown #
edge $-1 $474 52.264252117674829 $664 65.787849678405266 $299 $666 forward 7 unknown #
coedge $-1 $300 $656 $662 $667 forward $462 $-1 #
vertex $-1 $301 $668 #
vertex $-1 $301 $669 #
straight-curve $-1 8.29570235552222 42.471195683477411 14.889352208702945 0 -1 0 I I #
coedge $-1 $476 $476 $-1 $670 reversed $304 $-1 #
edge $-1 $671 0 $671 6.2831853071796004 $305 $672 forward 7 unknown #
vertex $-1 $308 $673 #
ellipse-curve $-1 12.145056690101796 28.638587055642546 9.6344475384016341 0 0.77714596973225614 0.62932038083071107 1 0 0 1 I I #
coedge $-1 $480 $480 $-1 $674 reversed $311 $-1 #
edge $-1 $675 0 $675 6.2831853071796004 $312 $676 forward 7 unknown #
vertex $-1 $315 $677 #
ellipse-curve $-1 17.919088191971184 28.638587055642546 9.6344475384016341 0 0.77714596973225614 0.62932038083071107 1 0 0 1 I I #
face $-1 $-1 $678 $66 $-1 $679 reversed single #
loop $-1 $-1 $322 $316 #
plane-surface $-1 0 0 14.889352208702945 0 0 1 1 0 0 forward_v I I I I #
coedge $-1 $680 $681 $682 $683 reversed $317 $-1 #
coedge $-1 $684 $319 $321 $494 forward $199 $-1 #
coedge $-1 $319 $684 $680 $685 forward $199 $-1 #
coedge $-1 $682 $322 $319 $491 forward $485 $-1 #
edge $-1 $497 12.904192431854128 $686 26.376932602882661 $490 $687 forward 7 unknown #
coedge $-1 $688 $689 $320 $493 forward $678 $-1 #
edge $-1 $690 -61.210808568478214 $496 -50.700999227875585 $492 $691 forward 7 unknown #
edge $-1 $497 52.264252117674829 $690 65.787849678405266 $321 $692 forward 7 unknown #
coedge $-1 $322 $682 $688 $693 forward $485 $-1 #
vertex $-1 $323 $694 #
vertex $-1 $323 $695 #
straight-curve $-1 32.544754949222522 42.471195683477411 14.889352208702945 0 -1 0 I I #
coedge $-1 $499 $499 $-1 $696 reversed $326 $-1 #
edge $-1 $697 0 $697 6.2831853071796004 $327 $698 forward 7 unknown #
vertex $-1 $330 $699 #
ellipse-curve $-1 36.394109283802095 28.638587055642546 9.6344475384016341 0 0.77714596973225614 0.62932038083071107 1 0 0 1 I I #
coedge $-1 $503 $503 $-1 $700 reversed $333 $-1 #
edge $-1 $701 0 $701 6.2831853071796004 $334 $702 forward 7 unknown #
vertex $-1 $337 $703 #
ellipse-curve $-1 42.168140785671483 28.638587055642546 9.6344475384016341 0 0.77714596973225614 0.62932038083071107 1 0 0 1 I I #
face $-1 $-1 $704 $69 $-1 $705 reversed single #
loop $-1 $-1 $706 $338 #
plane-surface $-1 -48.498105187400611 0 12.072475983324658 -1 0 0 0 0 1 forward_v I I I I #
coedge $-1 $707 $341 $343 $516 forward $213 $-1 #
coedge $-1 $341 $707 $706 $708 forward $213 $-1 #
coedge $-1 $709 $344 $341 $513 forward $339 $-1 #
edge $-1 $519 6.1329744425724826 $710 30.287745310742913 $512 $711 forward 7 unknown #
coedge $-1 $712 $713 $342 $515 forward $704 $-1 #
edge $-1 $714 -37.651350687309296 $518 -29.468105461889785 $514 $715 forward 7 unknown #
edge $-1 $519 -11.189175791177636 $714 0 $343 $716 forward 7 unknown #
coedge $-1 $344 $709 $712 $717 forward $339 $-1 #
vertex $-1 $515 $718 #
vertex $-1 $345 $719 #
straight-curve $-1 -24.343334319230181 -60.418803502637033 14.889352208702945 0 1 0 I I #
coedge $-1 $521 $521 $-1 $720 reversed $348 $-1 #
edge $-1 $721 0 $721 6.2831853071796004 $349 $722 forward 7 unknown #
vertex $-1 $352 $723 #
ellipse-curve $-1 -41.596742082209062 -29.078425118768735 10.797729595993186 0 -0.73135370988377701 0.68199835119979291 2.5 0 0 1 I I #
coedge $-1 $525 $525 $-1 $724 reversed $355 $-1 #
edge $-1 $725 0 $725 6.2831853071796004 $356 $726 forward 7 unknown #
vertex $-1 $359 $727 #
ellipse-curve $-1 -31.244697424421734 -29.078425118768735 10.797729595993186 0 -0.73135370988377701 0.68199835119979291 2.5 0 0 1 I I #
face $-1 $-1 $375 $54 $-1 $728 reversed single #
loop $-1 $-1 $545 $360 #
plane-surface $-1 0 32.893924839202626 0 0 -1 0 0 0 -1 forward_v I I I I #
coedge $-1 $729 $543 $546 $730 forward $361 $-1 #
coedge $-1 $549 $363 $364 $537 reversed $227 $-1 #
coedge $-1 $543 $729 $363 $535 reversed $361 $-1 #
edge $-1 $550 -14.889352208702945 $731 14.889352208702945 $534 $732 forward 7 unknown #
coedge $-1 $365 $364 $729 $733 forward $145 $-1 #
edge $-1 $541 -60.123905148472545 $731 60.123905148472545 $533 $734 forward 7 unknown #
coedge $-1 $546 $545 $365 $539 reversed $530 $-1 #
edge $-1 $735 -60.123905148472545 $540 60.123905148472545 $538 $736 forward 7 unknown #
vertex $-1 $367 $737 #
vertex $-1 $552 $738 #
straight-curve $-1 60.123905148472545 0 -14.889352208702945 0 -1 0 I I #
coedge $-1 $532 $534 $368 $544 reversed $361 $-1 #
edge $-1 $547 -32.893924839202626 $550 32.893924839202626 $543 $739 forward 7 unknown #
coedge $-1 $538 $369 $374 $553 forward $530 $-1 #
coedge $-1 $369 $538 $532 $730 reversed $530 $-1 #
vertex $-1 $370 $740 #
straight-curve $-1 0 32.893924839202626 14.889352208702945 -1 0 0 I I #
coedge $-1 $371 $533 $373 $552 reversed $227 $-1 #
vertex $-1 $544 $741 #
straight-curve $-1 0 -32.893924839202626 14.889352208702945 1 0 0 I I #
edge $-1 $376 -14.889352208702945 $541 14.889352208702945 $373 $742 forward 7 unknown #
edge $-1 $377 -14.889352208702945 $540 14.889352208702945 $374 $743 forward 7 unknown #
point $-1 60.123905148472545 -32.893924839202626 14.889352208702945 #
point $-1 60.123905148472545 32.893924839202626 14.889352208702945 #
face $-1 $-1 $565 $55 $-1 $744 reversed single #
loop $-1 $-1 $562 $379 #
plane-surface $-1 0 0 14.889352208702945 0 0 1 1 0 0 forward_v I I I I #
coedge $-1 $745 $746 $386 $568 forward $380 $-1 #
coedge $-1 $382 $572 $747 $748 reversed $235 $-1 #
edge $-1 $749 -8.8531142170406181 $392 -3.2193617662840399 $382 $750 forward 7 unknown #
coedge $-1 $747 $751 $383 $563 forward $557 $-1 #
edge $-1 $566 -32.893924839202626 $749 32.893924839202626 $562 $752 forward 7 unknown #
coedge $-1 $569 $384 $751 $753 reversed $565 $-1 #
loop $-1 $-1 $384 $556 #
vertex $-1 $385 $754 #
straight-curve $-1 -48.498105187400611 -32.893924839202626 6.036237991662329 0 0 1 I I #
edge $-1 $573 -32.893924839202626 $570 32.893924839202626 $559 $755 forward 7 unknown #
coedge $-1 $387 $564 $745 $756 forward $565 $-1 #
vertex $-1 $568 $757 #
straight-curve $-1 -27.155502583968289 -32.893924839202626 9.2555997579463689 1 0 0 I I #
coedge $-1 $560 $389 $746 $758 reversed $235 $-1 #
vertex $-1 $568 $759 #
straight-curve $-1 -27.155502583968289 32.893924839202626 9.2555997579463689 -1 0 0 I I #
point $-1 -48.498105187400611 32.893924839202626 9.2555997579463689 #
point $-1 -48.498105187400611 -32.893924839202626 9.2555997579463689 #
face $-1 $-1 $410 $56 $-1 $760 reversed single #
loop $-1 $-1 $401 $395 #
plane-surface $-1 0 32.893924839202626 0 0 -1 0 0 0 -1 forward_v I I I I #
coedge $-1 $404 $761 $584 $762 forward $396 $-1 #
coedge $-1 $763 $398 $761 $764 forward $243 $-1 #
coedge $-1 $398 $763 $586 $765 forward $243 $-1 #
edge $-1 $588 -32.893924839202626 $766 32.893924839202626 $398 $767 forward 7 unknown #
coedge $-1 $400 $399 $580 $762 reversed $153 $-1 #
edge $-1 $591 -32.893924839202626 $587 32.893924839202626 $399 $768 forward 7 unknown #
coedge $-1 $593 $401 $582 $765 reversed $578 $-1 #
vertex $-1 $407 $769 #
vertex $-1 $402 $770 #
straight-curve $-1 48.498105187400604 32.893924839202626 6.036237991662329 0 0 1 I I #
coedge $-1 $761 $404 $409 $597 reversed $396 $-1 #
vertex $-1 $405 $771 #
straight-curve $-1 27.155502583968286 -32.893924839202626 9.2555997579463689 1 0 0 I I #
coedge $-1 $406 $586 $408 $596 forward $578 $-1 #
straight-curve $-1 27.155502583968286 32.893924839202626 9.2555997579463689 -1 0 0 I I #
coedge $-1 $409 $408 $763 $772 reversed $410 $-1 #
edge $-1 $773 -14.889352208702945 $412 -9.2555997579463689 $408 $774 forward 7 unknown #
edge $-1 $775 -14.889352208702945 $411 -9.2555997579463689 $409 $776 forward 7 unknown #
point $-1 60.123905148472538 -32.893924839202626 9.2555997579463689 #
point $-1 60.123905148472538 32.893924839202626 9.2555997579463689 #
plane-surface $-1 0 0 14.889352208702945 0 0 1 1 0 0 forward_v I I I I #
coedge $-1 $611 $610 $603 $777 forward $415 $-1 #
coedge $-1 $603 $417 $419 $607 reversed $251 $-1 #
coedge $-1 $417 $602 $601 $777 reversed $251 $-1 #
coedge $-1 $425 $420 $417 $605 forward $426 $-1 #
edge $-1 $608 -18.087946411394938 $778 -9.5772708442747856 $604 $779 forward 7 unknown #
coedge $-1 $419 $418 $611 $780 reversed $157 $-1 #
edge $-1 $781 -65.787849678405266 $608 -52.264252117674829 $602 $782 forward 7 unknown #
vertex $-1 $421 $783 #
straight-curve $-1 -16.73301637318206 24.383249272082477 14.889352208702945 1 0 0 I I #
coedge $-1 $601 $422 $425 $615 reversed $415 $-1 #
coedge $-1 $422 $601 $606 $780 forward $415 $-1 #
vertex $-1 $423 $784 #
straight-curve $-1 -40.202402831878388 32.893924839202626 65.59035143657853 0 0 1 I I #
straight-curve $-1 -40.202402831878388 -8.5077097744449475 55.506305103024474 0 0.62932038083071107 -0.77714596973225614 I I #
edge $-1 $778 26.729662660849851 $427 40.202402831878388 $610 $785 forward 7 unknown #
point $-1 -40.202402831878388 32.893924839202626 14.889352208702945 #
point $-1 -40.202402831878388 24.383249272082473 14.889352208702945 #
edge $-1 $786 1 $786 0 $430 $-1 forward 7 unknown #
vertex $-1 $431 $787 #
ellipse-curve $-1 -36.353048497298815 27.378745850582359 8.6142482736124855 0 0.77714596973225614 0.62932038083071107 1 0 0 1 I I #
point $-1 -35.353048497298815 28.638587055642567 9.6344475384016501 #
edge $-1 $788 1 $788 0 $434 $-1 forward 7 unknown #
vertex $-1 $435 $789 #
ellipse-curve $-1 -30.579016995429438 27.378745850582359 8.6142482736124855 0 0.77714596973225614 0.62932038083071107 1 0 0 1 I I #
point $-1 -29.579016995429438 28.638587055642567 9.6344475384016501 #
loop $-1 $-1 $446 $438 #
plane-surface $-1 0 32.893924839202626 0 0 -1 0 0 0 -1 forward_v I I I I #
coedge $-1 $629 $441 $443 $633 reversed $273 $-1 #
coedge $-1 $441 $628 $790 $791 reversed $273 $-1 #
coedge $-1 $449 $444 $441 $631 forward $439 $-1 #
edge $-1 $634 -18.087946411394938 $792 -9.5772708442747856 $630 $793 forward 7 unknown #
coedge $-1 $443 $442 $637 $794 reversed $171 $-1 #
edge $-1 $795 -65.787849678405266 $634 -52.264252117674829 $628 $796 forward 7 unknown #
vertex $-1 $445 $797 #
straight-curve $-1 -4.6084900763319112 24.383249272082477 14.889352208702945 1 0 0 I I #
coedge $-1 $790 $446 $449 $641 reversed $626 $-1 #
coedge $-1 $446 $790 $632 $794 forward $626 $-1 #
vertex $-1 $447 $798 #
straight-curve $-1 -15.953350238178093 32.893924839202626 65.59035143657853 0 0 1 I I #
straight-curve $-1 -15.953350238178093 -8.5077097744449475 55.506305103024474 0 0.62932038083071107 -0.77714596973225614 I I #
edge $-1 $792 2.4806100671495521 $450 15.953350238178093 $636 $799 forward 7 unknown #
point $-1 -15.953350238178093 32.893924839202626 14.889352208702945 #
point $-1 -15.953350238178093 24.383249272082473 14.889352208702945 #
edge $-1 $800 1 $800 0 $453 $-1 forward 7 unknown #
vertex $-1 $454 $801 #
ellipse-curve $-1 -12.103995903598502 27.378745850582359 8.6142482736124855 0 0.77714596973225614 0.62932038083071107 1 0 0 1 I I #
point $-1 -11.103995903598502 28.638587055642567 9.6344475384016501 #
edge $-1 $802 1 $802 0 $457 $-1 forward 7 unknown #
vertex $-1 $458 $803 #
ellipse-curve $-1 -6.3299644017291286 27.378745850582359 8.6142482736124855 0 0.77714596973225614 0.62932038083071107 1 0 0 1 I I #
point $-1 -5.3299644017291286 28.638587055642567 9.6344475384016501 #
loop $-1 $-1 $469 $461 #
plane-surface $-1 0 32.893924839202626 0 0 -1 0 0 0 -1 forward_v I I I I #
coedge $-1 $655 $464 $466 $659 reversed $295 $-1 #
coedge $-1 $464 $654 $804 $805 reversed $295 $-1 #
coedge $-1 $472 $467 $464 $657 forward $462 $-1 #
edge $-1 $660 -18.087946411394938 $806 -9.5772708442747856 $656 $807 forward 7 unknown #
coedge $-1 $466 $465 $663 $808 reversed $185 $-1 #
edge $-1 $809 -65.787849678405266 $660 -52.264252117674829 $654 $810 forward 7 unknown #
vertex $-1 $468 $811 #
straight-curve $-1 7.5160362205182452 24.383249272082477 14.889352208702945 1 0 0 I I #
coedge $-1 $804 $469 $472 $667 reversed $652 $-1 #
coedge $-1 $469 $804 $658 $808 forward $652 $-1 #
vertex $-1 $470 $812 #
straight-curve $-1 8.29570235552222 32.893924839202626 65.59035143657853 0 0 1 I I #
straight-curve $-1 8.29570235552222 -8.5077097744449475 55.506305103024474 0 0.62932038083071107 -0.77714596973225614 I I #
edge $-1 $806 -21.768442526550761 $473 -8.29570235552222 $662 $813 forward 7 unknown #
point $-1 8.29570235552222 32.893924839202626 14.889352208702945 #
point $-1 8.29570235552222 24.383249272082473 14.889352208702945 #
edge $-1 $814 1 $814 0 $476 $-1 forward 7 unknown #
vertex $-1 $477 $815 #
ellipse-curve $-1 12.145056690101796 27.378745850582359 8.6142482736124855 0 0.77714596973225614 0.62932038083071107 1 0 0 1 I I #
point $-1 13.145056690101796 28.638587055642567 9.6344475384016501 #
edge $-1 $816 1 $816 0 $480 $-1 forward 7 unknown #
vertex $-1 $481 $817 #
ellipse-curve $-1 17.919088191971184 27.378745850582359 8.6142482736124855 0 0.77714596973225614 0.62932038083071107 1 0 0 1 I I #
point $-1 18.919088191971184 28.638587055642567 9.6344475384016501 #
loop $-1 $-1 $492 $484 #
plane-surface $-1 0 32.893924839202626 0 0 -1 0 0 0 -1 forward_v I I I I #
coedge $-1 $681 $487 $489 $685 reversed $317 $-1 #
coedge $-1 $487 $680 $818 $819 reversed $317 $-1 #
coedge $-1 $495 $490 $487 $683 forward $485 $-1 #
edge $-1 $686 -18.087946411394938 $820 -9.5772708442747856 $682 $821 forward 7 unknown #
coedge $-1 $489 $488 $689 $822 reversed $199 $-1 #
edge $-1 $823 -65.787849678405266 $686 -52.264252117674829 $680 $824 forward 7 unknown #
vertex $-1 $491 $825 #
straight-curve $-1 19.640562517368394 24.383249272082477 14.889352208702945 1 0 0 I I #
coedge $-1 $818 $492 $495 $693 reversed $678 $-1 #
coedge $-1 $492 $818 $684 $822 forward $678 $-1 #
vertex $-1 $493 $826 #
straight-curve $-1 32.544754949222522 32.893924839202626 65.59035143657853 0 0 1 I I #
straight-curve $-1 32.544754949222522 -8.5077097744449475 55.506305103024474 0 0.62932038083071107 -0.77714596973225614 I I #
edge $-1 $820 -46.017495120251056 $496 -32.544754949222522 $688 $827 forward 7 unknown #
point $-1 32.544754949222522 32.893924839202626 14.889352208702945 #
point $-1 32.544754949222522 24.383249272082473 14.889352208702945 #
edge $-1 $828 1 $828 0 $499 $-1 forward 7 unknown #
vertex $-1 $500 $829 #
ellipse-curve $-1 36.394109283802095 27.378745850582359 8.6142482736124855 0 0.77714596973225614 0.62932038083071107 1 0 0 1 I I #
point $-1 37.394109283802095 28.638587055642567 9.6344475384016501 #
edge $-1 $830 1 $830 0 $503 $-1 forward 7 unknown #
vertex $-1 $504 $831 #
ellipse-curve $-1 42.168140785671483 27.378745850582359 8.6142482736124855 0 0.77714596973225614 0.62932038083071107 1 0 0 1 I I #
point $-1 43.168140785671483 28.638587055642567 9.6344475384016501 #
loop $-1 $-1 $514 $507 #
plane-surface $-1 0 -32.893924839202626 0 0 1 0 0 0 1 forward_v I I I I #
coedge $-1 $832 $833 $511 $708 reversed $508 $-1 #
coedge $-1 $511 $510 $713 $834 reversed $213 $-1 #
edge $-1 $835 0 $710 11.189175791177636 $706 $836 forward 7 unknown #
coedge $-1 $517 $512 $833 $837 forward $339 $-1 #
vertex $-1 $837 $838 #
straight-curve $-1 -18.210359876657698 -25.26292539833484 14.889352208702945 -1 0 0 I I #
coedge $-1 $839 $514 $517 $717 reversed $704 $-1 #
coedge $-1 $514 $839 $707 $834 forward $704 $-1 #
vertex $-1 $515 $840 #
straight-curve $-1 -24.343334319230181 -32.893924839202626 44.35745767059273 0 0 1 I I #
straight-curve $-1 -24.343334319230181 -32.893924839202626 6.7061069832834335 0 -0.68199835119979291 -0.73135370988377701 I I #
edge $-1 $841 -48.498105187400611 $518 -24.343334319230181 $712 $842 forward 7 unknown #
point $-1 -24.343334319230181 -32.893924839202626 14.889352208702945 #
point $-1 -24.343334319230181 -25.26292539833484 14.889352208702945 #
edge $-1 $843 1 $843 0 $521 $-1 forward 7 unknown #
vertex $-1 $522 $844 #
ellipse-curve $-1 -41.596742082209062 -25.238913001135682 7.2173267098801279 0 -0.73135370988377701 0.68199835119979291 2.5 0 0 1 I I #
point $-1 -39.096742082209062 -29.078425118768727 10.797729595993179 #
edge $-1 $845 1 $845 0 $525 $-1 forward 7 unknown #
vertex $-1 $526 $846 #
ellipse-curve $-1 -31.244697424421734 -25.238913001135682 7.2173267098801279 0 -0.73135370988377701 0.68199835119979291 2.5 0 0 1 I I #
point $-1 -28.744697424421734 -29.078425118768727 10.797729595993179 #
plane-surface $-1 60.123905148472545 0 0 -1 0 0 0 0 1 forward_v I I I I #
coedge $-1 $534 $532 $536 $733 reversed $361 $-1 #
edge $-1 $547 -14.889352208702945 $735 14.889352208702945 $546 $847 forward 7 unknown #
vertex $-1 $733 $848 #
straight-curve $-1 -60.123905148472545 -32.893924839202626 0 0 0 -1 I I #
edge $-1 $731 -32.893924839202626 $735 32.893924839202626 $729 $849 forward 7 unknown #
straight-curve $-1 0 -32.893924839202626 -14.889352208702945 -1 0 0 I I #
vertex $-1 $539 $850 #
straight-curve $-1 0 32.893924839202626 -14.889352208702945 1 0 0 I I #
point $-1 60.123905148472545 32.893924839202626 -14.889352208702945 #
point $-1 60.123905148472545 -32.893924839202626 -14.889352208702945 #
straight-curve $-1 -60.123905148472545 0 14.889352208702945 0 -1 0 I I #
point $-1 -60.123905148472545 32.893924839202626 14.889352208702945 #
point $-1 -60.123905148472545 -32.893924839202626 14.889352208702945 #
straight-curve $-1 60.123905148472545 -32.893924839202626 0 0 0 -1 I I #
straight-curve $-1 60.123905148472545 32.893924839202626 0 0 0 -1 I I #
plane-surface $-1 0 -32.893924839202626 0 0 1 0 0 0 1 forward_v I I I I #
coedge $-1 $851 $559 $569 $756 reversed $380 $-1 #
coedge $-1 $559 $851 $572 $758 forward $380 $-1 #
coedge $-1 $852 $562 $560 $748 forward $557 $-1 #
edge $-1 $749 48.498105187400611 $853 60.123905148472545 $560 $854 forward 7 unknown #
vertex $-1 $748 $855 #
straight-curve $-1 -48.498105187400611 32.893924839202626 6.036237991662329 0 0 -1 I I #
coedge $-1 $562 $852 $564 $753 forward $557 $-1 #
straight-curve $-1 -48.498105187400611 0 14.889352208702945 0 1 0 I I #
edge $-1 $856 -60.123905148472545 $566 -48.498105187400611 $564 $857 forward 7 unknown #
point $-1 -48.498105187400611 -32.893924839202626 14.889352208702947 #
straight-curve $-1 -60.123905148472545 0 9.2555997579463689 0 -1 0 I I #
edge $-1 $856 -14.889352208702945 $570 -9.2555997579463689 $745 $858 forward 7 unknown #
point $-1 -60.123905148472545 -32.893924839202626 9.2555997579463689 #
edge $-1 $853 -14.889352208702945 $573 -9.2555997579463689 $572 $859 forward 7 unknown #
point $-1 -60.123905148472545 32.893924839202626 9.2555997579463689 #
plane-surface $-1 60.123905148472545 0 0 -1 0 0 0 0 1 forward_v I I I I #
coedge $-1 $580 $590 $581 $764 reversed $396 $-1 #
edge $-1 $766 -8.8531142170406181 $591 -3.2193617662840399 $580 $860 forward 7 unknown #
coedge $-1 $582 $581 $595 $772 forward $243 $-1 #
edge $-1 $766 48.498105187400604 $775 60.123905148472545 $761 $861 forward 7 unknown #
edge $-1 $773 -60.123905148472545 $588 -48.498105187400604 $586 $862 forward 7 unknown #
vertex $-1 $764 $863 #
straight-curve $-1 48.498105187400604 0 14.889352208702945 0 -1 0 I I #
straight-curve $-1 48.498105187400604 0 9.2555997579463689 0 1 0 I I #
point $-1 48.498105187400604 32.893924839202626 9.2555997579463689 #
point $-1 48.498105187400604 32.893924839202626 14.889352208702947 #
point $-1 48.498105187400604 -32.893924839202626 9.2555997579463689 #
edge $-1 $775 -32.893924839202626 $773 32.893924839202626 $595 $864 forward 7 unknown #
vertex $-1 $772 $865 #
straight-curve $-1 60.123905148472545 32.893924839202626 0 0 0 -1 I I #
vertex $-1 $772 $866 #
straight-curve $-1 60.123905148472545 -32.893924839202626 0 0 0 -1 I I #
edge $-1 $778 50.700999227875585 $781 61.210808568478214 $601 $867 forward 7 unknown #
vertex $-1 $615 $868 #
straight-curve $-1 -26.729662660849851 42.471195683477411 14.889352208702945 0 1 0 I I #
edge $-1 $781 9.9966462876677902 $612 23.469386458696327 $611 $869 forward 7 unknown #
vertex $-1 $780 $870 #
straight-curve $-1 -26.729662660849851 -8.5077097744449475 55.506305103024474 0 -0.62932038083071107 0.77714596973225614 I I #
point $-1 -26.729662660849851 24.383249272082473 14.889352208702945 #
point $-1 -40.202402831878388 32.893924839202626 4.3795428681003159 #
straight-curve $-1 0 32.893924839202626 14.889352208702945 -1 0 0 I I #
vertex $-1 $618 $871 #
point $-1 -35.353048497298815 27.378745850582359 8.6142482736124855 #
vertex $-1 $622 $872 #
point $-1 -29.579016995429438 27.378745850582359 8.6142482736124855 #
coedge $-1 $637 $636 $629 $791 forward $626 $-1 #
edge $-1 $792 50.700999227875585 $795 61.210808568478214 $790 $873 forward 7 unknown #
vertex $-1 $641 $874 #
straight-curve $-1 -2.4806100671495521 42.471195683477411 14.889352208702945 0 1 0 I I #
edge $-1 $795 -2.1278800091823591 $638 11.344860161846182 $637 $875 forward 7 unknown #
vertex $-1 $794 $876 #
straight-curve $-1 -2.4806100671495521 -8.5077097744449475 55.506305103024474 0 -0.62932038083071107 0.77714596973225614 I I #
point $-1 -2.4806100671495521 24.383249272082473 14.889352208702945 #
point $-1 -15.953350238178093 32.893924839202626 4.3795428681003159 #
straight-curve $-1 0 32.893924839202626 14.889352208702945 -1 0 0 I I #
vertex $-1 $644 $877 #
point $-1 -11.103995903598502 27.378745850582359 8.6142482736124855 #
vertex $-1 $648 $878 #
point $-1 -5.3299644017291286 27.378745850582359 8.6142482736124855 #
coedge $-1 $663 $662 $655 $805 forward $652 $-1 #
edge $-1 $806 50.700999227875585 $809 61.210808568478214 $804 $879 forward 7 unknown #
vertex $-1 $667 $880 #
straight-curve $-1 21.768442526550761 42.471195683477411 14.889352208702945 0 1 0 I I #
edge $-1 $809 -14.252406306032515 $664 -0.77966613500397486 $663 $881 forward 7 unknown #
vertex $-1 $808 $882 #
straight-curve $-1 21.768442526550761 -8.5077097744449475 55.506305103024474 0 -0.62932038083071107 0.77714596973225614 I I #
point $-1 21.768442526550761 24.383249272082473 14.889352208702945 #
point $-1 8.29570235552222 32.893924839202626 4.3795428681003159 #
straight-curve $-1 0 32.893924839202626 14.889352208702945 -1 0 0 I I #
vertex $-1 $670 $883 #
point $-1 13.145056690101796 27.378745850582359 8.6142482736124855 #
vertex $-1 $674 $884 #
point $-1 18.919088191971184 27.378745850582359 8.6142482736124855 #
coedge $-1 $689 $688 $681 $819 forward $678 $-1 #
edge $-1 $820 50.700999227875585 $823 61.210808568478214 $818 $885 forward 7 unknown #
vertex $-1 $693 $886 #
straight-curve $-1 46.017495120251056 42.471195683477411 14.889352208702945 0 1 0 I I #
edge $-1 $823 -26.376932602882661 $690 -12.904192431854128 $689 $887 forward 7 unknown #
vertex $-1 $822 $888 #
straight-curve $-1 46.017495120251056 -8.5077097744449475 55.506305103024474 0 -0.62932038083071107 0.77714596973225614 I I #
point $-1 46.017495120251056 24.383249272082473 14.889352208702945 #
point $-1 32.544754949222522 32.893924839202626 4.3795428681003159 #
straight-curve $-1 0 32.893924839202626 14.889352208702945 -1 0 0 I I #
vertex $-1 $696 $889 #
point $-1 37.394109283802095 27.378745850582359 8.6142482736124855 #
vertex $-1 $700 $890 #
point $-1 43.168140785671483 27.378745850582359 8.6142482736124855 #
coedge $-1 $833 $706 $839 $891 reversed $508 $-1 #
coedge $-1 $706 $832 $709 $837 reversed $508 $-1 #
edge $-1 $835 -30.287745310742913 $714 -6.1329744425724826 $713 $892 forward 7 unknown #
vertex $-1 $891 $893 #
straight-curve $-1 -48.498105187400611 -32.893924839202626 6.7061069832834335 0 0.68199835119979291 0.73135370988377701 I I #
edge $-1 $710 25.26292539833484 $841 32.893924839202626 $709 $894 forward 7 unknown #
point $-1 -48.498105187400611 -25.26292539833484 14.889352208702945 #
coedge $-1 $713 $712 $832 $891 forward $704 $-1 #
point $-1 -24.343334319230181 -32.893924839202626 6.7061069832834335 #
vertex $-1 $717 $895 #
straight-curve $-1 0 -32.893924839202626 14.889352208702945 1 0 0 I I #
vertex $-1 $720 $896 #
point $-1 -39.096742082209062 -25.238913001135682 7.2173267098801279 #
vertex $-1 $724 $897 #
point $-1 -28.744697424421734 -25.238913001135682 7.2173267098801279 #
straight-curve $-1 -60.123905148472545 32.893924839202626 0 0 0 -1 I I #
point $-1 -60.123905148472545 -32.893924839202626 -14.889352208702945 #
straight-curve $-1 -60.123905148472545 0 -14.889352208702945 0 1 0 I I #
point $-1 -60.123905148472545 32.893924839202626 -14.889352208702945 #
coedge $-1 $746 $745 $852 $898 reversed $380 $-1 #
coedge $-1 $751 $747 $851 $898 forward $557 $-1 #
vertex $-1 $748 $899 #
straight-curve $-1 0 32.893924839202626 14.889352208702945 -1 0 0 I I #
point $-1 -48.498105187400611 32.893924839202626 14.889352208702947 #
vertex $-1 $898 $900 #
straight-curve $-1 0 -32.893924839202626 14.889352208702945 1 0 0 I I #
straight-curve $-1 -60.123905148472545 -32.893924839202626 0 0 0 -1 I I #
straight-curve $-1 -60.123905148472545 32.893924839202626 0 0 0 -1 I I #
straight-curve $-1 48.498105187400604 -32.893924839202626 6.036237991662329 0 0 -1 I I #
straight-curve $-1 0 -32.893924839202626 14.889352208702945 1 0 0 I I #
straight-curve $-1 0 32.893924839202626 14.889352208702945 -1 0 0 I I #
point $-1 48.498105187400604 -32.893924839202626 14.889352208702947 #
straight-curve $-1 60.123905148472545 0 14.889352208702945 0 1 0 I I #
point $-1 60.123905148472545 32.893924839202626 14.889352208702945 #
point $-1 60.123905148472545 -32.893924839202626 14.889352208702945 #
straight-curve $-1 -26.729662660849851 32.893924839202626 65.59035143657853 0 0 -1 I I #
point $-1 -26.729662660849851 32.893924839202626 14.889352208702945 #
straight-curve $-1 -16.73301637318206 32.893924839202626 4.379542868100323 -1 0 0 I I #
point $-1 -26.729662660849851 32.893924839202626 4.3795428681003159 #
point $-1 -36.353048497298815 26.601599880850106 7.9849278927817737 #
point $-1 -30.579016995429438 26.601599880850106 7.9849278927817737 #
straight-curve $-1 -2.4806100671495521 32.893924839202626 65.59035143657853 0 0 -1 I I #
point $-1 -2.4806100671495521 32.893924839202626 14.889352208702945 #
straight-curve $-1 -4.6084900763319112 32.893924839202626 4.379542868100323 -1 0 0 I I #
point $-1 -2.4806100671495521 32.893924839202626 4.3795428681003159 #
point $-1 -12.103995903598502 26.601599880850106 7.9849278927817737 #
point $-1 -6.3299644017291286 26.601599880850106 7.9849278927817737 #
straight-curve $-1 21.768442526550761 32.893924839202626 65.59035143657853 0 0 -1 I I #
point $-1 21.768442526550761 32.893924839202626 14.889352208702945 #
straight-curve $-1 7.5160362205182452 32.893924839202626 4.379542868100323 -1 0 0 I I #
point $-1 21.768442526550761 32.893924839202626 4.3795428681003159 #
point $-1 12.145056690101796 26.601599880850106 7.9849278927817737 #
point $-1 17.919088191971184 26.601599880850106 7.9849278927817737 #
straight-curve $-1 46.017495120251056 32.893924839202626 65.59035143657853 0 0 -1 I I #
point $-1 46.017495120251056 32.893924839202626 14.889352208702945 #
straight-curve $-1 19.640562517368394 32.893924839202626 4.379542868100323 -1 0 0 I I #
point $-1 46.017495120251056 32.893924839202626 4.3795428681003159 #
point $-1 36.394109283802095 26.601599880850106 7.9849278927817737 #
point $-1 42.168140785671483 26.601599880850106 7.9849278927817737 #
edge $-1 $841 29.468105461889785 $835 37.651350687309296 $839 $901 forward 7 unknown #
straight-curve $-1 -18.210359876657698 -32.893924839202626 6.7061069832834344 1 0 0 I I #
point $-1 -48.498105187400611 -32.893924839202626 6.7061069832834335 #
straight-curve $-1 -48.498105187400611 0 14.889352208702945 0 -1 0 I I #
point $-1 -48.498105187400611 -32.893924839202626 14.889352208702947 #
point $-1 -41.596742082209062 -23.410528726426239 5.5123308318806448 #
point $-1 -31.244697424421734 -23.410528726426239 5.5123308318806448 #
edge $-1 $853 -32.893924839202626 $856 32.893924839202626 $851 $902 forward 7 unknown #
point $-1 -60.123905148472545 32.893924839202626 14.889352208702945 #
point $-1 -60.123905148472545 -32.893924839202626 14.889352208702945 #
straight-curve $-1 -48.498105187400611 -32.893924839202626 44.35745767059273 0 0 -1 I I #
straight-curve $-1 -60.123905148472545 0 14.889352208702945 0 -1 0 I I #
End-of-ACIS-data 