500 0 14 0           
7 Unknown 11 ACIS 5.0 NT 24 Fri Mar 26 00:59:02 1999 
-1 9.9999999999999995e-007 1e-010 
body $-1 $14 $-1 $15 #
body $-1 $16 $-1 $17 #
body $-1 $18 $-1 $19 #
body $-1 $20 $-1 $21 #
body $-1 $22 $-1 $23 #
body $-1 $24 $-1 $25 #
body $-1 $26 $-1 $27 #
body $-1 $28 $-1 $29 #
body $-1 $30 $-1 $31 #
body $-1 $32 $-1 $33 #
body $-1 $34 $-1 $35 #
body $-1 $36 $-1 $37 #
body $-1 $38 $-1 $39 #
body $-1 $40 $-1 $41 #
lump $-1 $-1 $42 $0 #
transform $-1 1 0 0 0 1 0 0 0 1 51.334574419385355 21.393453199374882 7.6815208876798398 1 rotate no_reflect no_shear #
lump $-1 $-1 $43 $1 #
transform $-1 1 0 0 0 1 0 0 0 1 51.334574419385355 21.393453199374882 7.6815208876798398 1 rotate no_reflect no_shear #
lump $-1 $-1 $44 $2 #
transform $-1 1 0 0 0 1 0 0 0 1 51.334574419385355 21.393453199374882 7.6815208876798398 1 rotate no_reflect no_shear #
lump $-1 $-1 $45 $3 #
transform $-1 1 0 0 0 1 0 0 0 1 51.334574419385355 21.393453199374882 7.6815208876798398 1 rotate no_reflect no_shear #
lump $-1 $-1 $46 $4 #
transform $-1 1 0 0 0 1 0 0 0 1 51.334574419385355 21.393453199374882 7.6815208876798398 1 rotate no_reflect no_shear #
lump $-1 $-1 $47 $5 #
transform $-1 1 0 0 0 1 0 0 0 1 51.334574419385355 21.393453199374882 7.6815208876798398 1 rotate no_reflect no_shear #
lump $-1 $-1 $48 $6 #
transform $-1 1 0 0 0 1 0 0 0 1 51.334574419385355 21.393453199374882 7.6815208876798398 1 rotate no_reflect no_shear #
lump $-1 $-1 $49 $7 #
transform $-1 1 0 0 0 1 0 0 0 1 51.334574419385355 21.393453199374882 7.6815208876798398 1 rotate no_reflect no_shear #
lump $-1 $-1 $50 $8 #
transform $-1 1 0 0 0 1 0 0 0 1 51.334574419385355 21.393453199374882 7.6815208876798398 1 rotate no_reflect no_shear #
lump $-1 $-1 $51 $9 #
transform $-1 1 0 0 0 1 0 0 0 1 51.334574419385355 21.393453199374882 7.6815208876798398 1 rotate no_reflect no_shear #
lump $-1 $-1 $52 $10 #
transform $-1 1 0 0 0 1 0 0 0 1 51.334574419385355 21.393453199374882 7.6815208876798398 1 rotate no_reflect no_shear #
lump $-1 $-1 $53 $11 #
transform $-1 1 0 0 0 1 0 0 0 1 51.334574419385355 21.393453199374882 7.6815208876798398 1 rotate no_reflect no_shear #
lump $-1 $-1 $54 $12 #
transform $-1 1 0 0 0 1 0 0 0 1 51.334574419385355 21.393453199374882 7.6815208876798398 1 rotate no_reflect no_shear #
lump $-1 $-1 $55 $13 #
transform $-1 1 0 0 0 1 0 0 0 1 51.334574419385355 21.393453199374882 7.6815208876798398 1 rotate no_reflect no_shear #
shell $-1 $-1 $-1 $56 $-1 $14 #
shell $-1 $-1 $-1 $57 $-1 $16 #
shell $-1 $-1 $-1 $58 $-1 $18 #
shell $-1 $-1 $-1 $59 $-1 $20 #
shell $-1 $-1 $-1 $60 $-1 $22 #
shell $-1 $-1 $-1 $61 $-1 $24 #
shell $-1 $-1 $-1 $62 $-1 $26 #
shell $-1 $-1 $-1 $63 $-1 $28 #
shell $-1 $-1 $-1 $64 $-1 $30 #
shell $-1 $-1 $-1 $65 $-1 $32 #
shell $-1 $-1 $-1 $66 $-1 $34 #
shell $-1 $-1 $-1 $67 $-1 $36 #
shell $-1 $-1 $-1 $68 $-1 $38 #
shell $-1 $-1 $-1 $69 $-1 $40 #
face $-1 $70 $71 $42 $-1 $72 forward single #
face $-1 $73 $74 $43 $-1 $75 forward single #
face $-1 $76 $77 $44 $-1 $78 reversed single #
face $-1 $79 $80 $45 $-1 $81 forward single #
face $-1 $82 $83 $46 $-1 $84 reversed single #
face $-1 $85 $86 $47 $-1 $87 forward single #
face $-1 $88 $89 $48 $-1 $90 reversed single #
face $-1 $91 $92 $49 $-1 $93 forward single #
face $-1 $94 $95 $50 $-1 $96 reversed single #
face $-1 $97 $98 $51 $-1 $99 forward single #
face $-1 $100 $101 $52 $-1 $102 reversed single #
face $-1 $103 $104 $53 $-1 $105 forward single #
face $-1 $106 $107 $54 $-1 $108 forward single #
face $-1 $109 $110 $55 $-1 $111 forward single #
face $-1 $112 $113 $42 $-1 $114 reversed single #
loop $-1 $-1 $115 $56 #
plane-surface $-1 0 0 7.6815208876798398 0 0 1 1 0 0 forward_v I I I I #
face $-1 $116 $117 $43 $-1 $118 reversed single #
loop $-1 $-1 $119 $57 #
plane-surface $-1 -51.334574419385355 0 0 1 0 0 0 0 -1 forward_v I I I I #
face $-1 $120 $121 $44 $-1 $122 reversed single #
loop $-1 $-1 $123 $58 #
plane-surface $-1 -26.135049788113221 -77.311080081369852 89.711136917965419 -1 0 0 0 -0.54463904215088732 0.83867056331134215 forward_v I I I I #
face $-1 $124 $125 $45 $-1 $126 forward single #
loop $-1 $127 $128 $59 #
cone-surface $-1 -33.310569129527124 -16.666187394351972 3.1966272011755485 0 0.54463904215088732 -0.83867056331134215 1.5 0 0 1 I I 0 1 1.5 forward I I I I #
face $-1 $129 $130 $46 $-1 $131 reversed single #
loop $-1 $-1 $132 $60 #
plane-surface $-1 -1.4950899573361749 -77.311080081369852 89.711136917965419 -1 0 0 0 -0.54463904215088732 0.83867056331134215 forward_v I I I I #
face $-1 $133 $134 $47 $-1 $135 forward single #
loop $-1 $136 $137 $61 #
cone-surface $-1 -8.6706092987500725 -16.666187394351972 3.1966272011755485 0 0.54463904215088732 -0.83867056331134215 1.5 0 0 1 I I 0 1 1.5 forward I I I I #
face $-1 $138 $139 $48 $-1 $140 reversed single #
loop $-1 $-1 $141 $62 #
plane-surface $-1 23.144869873440868 -77.311080081369852 89.711136917965419 -1 0 0 0 -0.54463904215088732 0.83867056331134215 forward_v I I I I #
face $-1 $142 $143 $49 $-1 $144 forward single #
loop $-1 $145 $146 $63 #
cone-surface $-1 15.969350532026972 -16.666187394351972 3.1966272011755485 0 0.54463904215088732 -0.83867056331134215 1.5 0 0 1 I I 0 1 1.5 forward I I I I #
face $-1 $147 $148 $50 $-1 $149 reversed single #
loop $-1 $-1 $150 $64 #
plane-surface $-1 47.784829704217913 -77.311080081369852 89.711136917965419 -1 0 0 0 -0.54463904215088732 0.83867056331134215 forward_v I I I I #
face $-1 $151 $152 $51 $-1 $153 forward single #
loop $-1 $154 $155 $65 #
cone-surface $-1 40.609310362804017 -16.666187394351972 3.1966272011755485 0 0.54463904215088732 -0.83867056331134215 1.5 0 0 1 I I 0 1 1.5 forward I I I I #
face $-1 $156 $157 $52 $-1 $158 reversed single #
loop $-1 $-1 $159 $66 #
plane-surface $-1 -11.415799437575895 60.121283116878239 107.44027170968202 1 0 0 0 -0.68199836817093118 -0.7313536940579346 forward_v I I I I #
face $-1 $160 $161 $53 $-1 $162 forward single #
loop $-1 $163 $164 $67 #
cone-surface $-1 -7.1939118357791827 17.324605031684104 3.6563565628095849 0 -0.68199836817093118 -0.7313536940579346 1.5 0 0 1 I I 0 1 1.5 forward I I I I #
face $-1 $165 $166 $54 $-1 $167 forward single #
loop $-1 $168 $169 $68 #
cone-surface $-1 -0.86108043308410487 17.324605031684104 3.6563565628095849 0 -0.68199836817093118 -0.7313536940579346 1.5 0 0 1 I I 0 1 1.5 forward I I I I #
face $-1 $170 $171 $55 $-1 $172 forward single #
loop $-1 $173 $174 $69 #
cone-surface $-1 5.471750969610973 17.324605031684104 3.6563565628095849 0 -0.68199836817093118 -0.7313536940579346 1.5 0 0 1 I I 0 1 1.5 forward I I I I #
face $-1 $175 $176 $42 $-1 $177 reversed single #
loop $-1 $-1 $178 $70 #
plane-surface $-1 0 0 -7.6815208876798398 0 0 1 1 0 0 forward_v I I I I #
coedge $-1 $179 $180 $181 $182 forward $71 $-1 #
face $-1 $183 $184 $43 $-1 $185 reversed single #
loop $-1 $-1 $186 $73 #
plane-surface $-1 0 0 -7.6815208876798398 0 0 1 1 0 0 forward_v I I I I #
coedge $-1 $187 $188 $189 $190 forward $74 $-1 #
face $-1 $191 $192 $44 $-1 $193 reversed single #
loop $-1 $-1 $194 $76 #
plane-surface $-1 -33.310569129527117 -21.393453199374889 3.6055440266575545 0 -0.54463904215088732 0.83867056331134215 1 0 0 forward_v I I I I #
coedge $-1 $195 $196 $197 $198 reversed $77 $-1 #
face $-1 $-1 $199 $45 $-1 $200 forward single #
loop $-1 $201 $202 $79 #
cone-surface $-1 -33.310569129527124 -14.668669230062122 0.12071902269889012 0 0.54463904215088732 -0.83867056331134215 0.75 0 0 1 I I -0.70710678118654757 0.70710678118654757 0.75 forward I I I I #
loop $-1 $-1 $203 $59 #
coedge $-1 $128 $128 $204 $205 reversed $80 $-1 #
face $-1 $206 $207 $46 $-1 $208 reversed single #
loop $-1 $-1 $209 $82 #
plane-surface $-1 -8.6706092987500725 -21.393453199374889 3.6055440266575545 0 -0.54463904215088732 0.83867056331134215 1 0 0 forward_v I I I I #
coedge $-1 $210 $211 $212 $213 reversed $83 $-1 #
face $-1 $-1 $214 $47 $-1 $215 forward single #
loop $-1 $216 $217 $85 #
cone-surface $-1 -8.6706092987500725 -14.668669230062122 0.12071902269889012 0 0.54463904215088732 -0.83867056331134215 0.75 0 0 1 I I -0.70710678118654757 0.70710678118654757 0.75 forward I I I I #
loop $-1 $-1 $218 $61 #
coedge $-1 $137 $137 $219 $220 reversed $86 $-1 #
face $-1 $221 $222 $48 $-1 $223 reversed single #
loop $-1 $-1 $224 $88 #
plane-surface $-1 15.969350532026972 -21.393453199374889 3.6055440266575545 0 -0.54463904215088732 0.83867056331134215 1 0 0 forward_v I I I I #
coedge $-1 $225 $226 $227 $228 reversed $89 $-1 #
face $-1 $-1 $229 $49 $-1 $230 forward single #
loop $-1 $231 $232 $91 #
cone-surface $-1 15.969350532026972 -14.668669230062122 0.12071902269889012 0 0.54463904215088732 -0.83867056331134215 0.75 0 0 1 I I -0.70710678118654757 0.70710678118654757 0.75 forward I I I I #
loop $-1 $-1 $233 $63 #
coedge $-1 $146 $146 $234 $235 reversed $92 $-1 #
face $-1 $236 $237 $50 $-1 $238 reversed single #
loop $-1 $-1 $239 $94 #
plane-surface $-1 40.609310362804017 -21.393453199374889 3.6055440266575545 0 -0.54463904215088732 0.83867056331134215 1 0 0 forward_v I I I I #
coedge $-1 $240 $241 $242 $243 reversed $95 $-1 #
face $-1 $-1 $244 $51 $-1 $245 forward single #
loop $-1 $246 $247 $97 #
cone-surface $-1 40.609310362804017 -14.668669230062122 0.12071902269889012 0 0.54463904215088732 -0.83867056331134215 0.75 0 0 1 I I -0.70710678118654757 0.70710678118654757 0.75 forward I I I I #
loop $-1 $-1 $248 $65 #
coedge $-1 $155 $155 $249 $250 reversed $98 $-1 #
face $-1 $251 $252 $52 $-1 $253 reversed single #
loop $-1 $-1 $254 $100 #
plane-surface $-1 -0.86108043308410487 -9.8989088526618403 32.352810440663163 0 0.68199836817093118 0.7313536940579346 1 0 0 forward_v I I I I #
coedge $-1 $255 $256 $257 $258 reversed $101 $-1 #
face $-1 $-1 $259 $53 $-1 $260 forward single #
loop $-1 $261 $262 $103 #
cone-surface $-1 -7.1939118357791827 15.162079931633208 1.3373323624190743 0 -0.68199836817093118 -0.7313536940579346 0.75 0 0 1 I I -0.70710678118654757 0.70710678118654757 0.75 forward I I I I #
loop $-1 $-1 $263 $67 #
coedge $-1 $164 $164 $264 $265 reversed $104 $-1 #
face $-1 $-1 $266 $54 $-1 $267 forward single #
loop $-1 $268 $269 $106 #
cone-surface $-1 -0.86108043308410487 15.162079931633208 1.3373323624190743 0 -0.68199836817093118 -0.7313536940579346 0.75 0 0 1 I I -0.70710678118654757 0.70710678118654757 0.75 forward I I I I #
loop $-1 $-1 $270 $68 #
coedge $-1 $169 $169 $271 $272 reversed $107 $-1 #
face $-1 $-1 $273 $55 $-1 $274 forward single #
loop $-1 $275 $276 $109 #
cone-surface $-1 5.471750969610973 15.162079931633208 1.3373323624190743 0 -0.68199836817093118 -0.7313536940579346 0.75 0 0 1 I I -0.70710678118654757 0.70710678118654757 0.75 forward I I I I #
loop $-1 $-1 $277 $69 #
coedge $-1 $174 $174 $278 $279 reversed $110 $-1 #
face $-1 $280 $281 $42 $-1 $282 reversed single #
loop $-1 $-1 $283 $112 #
plane-surface $-1 0 -21.393453199374882 0 0 1 0 0 0 1 forward_v I I I I #
coedge $-1 $284 $285 $286 $287 forward $113 $-1 #
coedge $-1 $288 $115 $289 $290 forward $71 $-1 #
coedge $-1 $115 $288 $291 $292 forward $71 $-1 #
coedge $-1 $293 $294 $115 $182 reversed $295 $-1 #
edge $-1 $296 -21.393453199374882 $297 21.393453199374882 $181 $298 forward 7 unknown #
face $-1 $299 $300 $43 $-1 $301 reversed single #
loop $-1 $-1 $302 $116 #
plane-surface $-1 -54.983945036023798 -10.659751097767245 0 0 1 0 0 0 1 forward_v I I I I #
coedge $-1 $303 $304 $188 $305 forward $117 $-1 #
coedge $-1 $306 $119 $307 $308 reversed $74 $-1 #
coedge $-1 $119 $306 $186 $305 reversed $74 $-1 #
coedge $-1 $309 $310 $119 $190 reversed $311 $-1 #
edge $-1 $312 -7.6815208876798398 $313 7.6815208876798398 $189 $314 forward 7 unknown #
face $-1 $315 $316 $44 $-1 $317 forward single #
loop $-1 $-1 $318 $120 #
plane-surface $-1 -40.486088470941013 -77.311080081369852 89.711136917965419 1 0 0 0 0.54463904215088732 -0.83867056331134215 forward_v I I I I #
coedge $-1 $319 $320 $321 $322 reversed $121 $-1 #
coedge $-1 $196 $123 $323 $324 reversed $77 $-1 #
coedge $-1 $123 $195 $319 $325 reversed $77 $-1 #
coedge $-1 $321 $326 $123 $198 forward $316 $-1 #
edge $-1 $327 17.262086841310044 $328 23.538540686002499 $197 $329 forward 7 unknown #
loop $-1 $-1 $204 $124 #
plane-surface $-1 -33.310569129527117 -21.393453199374889 3.6055440266575545 0 -0.54463904215088732 0.83867056331134215 1 0 0 forward_v I I I I #
loop $-1 $-1 $330 $79 #
coedge $-1 $202 $202 $203 $331 reversed $125 $-1 #
coedge $-1 $203 $203 $202 $331 forward $127 $-1 #
coedge $-1 $204 $204 $128 $205 forward $199 $-1 #
edge $-1 $332 9.6747328752912999e-016 $332 6.2831853071796013 $204 $333 forward 7 unknown #
face $-1 $334 $335 $46 $-1 $336 reversed single #
loop $-1 $-1 $337 $129 #
plane-surface $-1 -15.84612864016397 -77.311080081369852 89.711136917965419 1 0 0 0 0.54463904215088732 -0.83867056331134215 forward_v I I I I #
coedge $-1 $338 $339 $340 $341 reversed $130 $-1 #
coedge $-1 $211 $132 $342 $343 reversed $83 $-1 #
coedge $-1 $132 $210 $338 $344 reversed $83 $-1 #
coedge $-1 $340 $345 $132 $213 forward $346 $-1 #
edge $-1 $347 17.262086841310044 $348 23.538540686002499 $212 $349 forward 7 unknown #
loop $-1 $-1 $219 $133 #
plane-surface $-1 -8.6706092987500725 -21.393453199374889 3.6055440266575545 0 -0.54463904215088732 0.83867056331134215 1 0 0 forward_v I I I I #
loop $-1 $-1 $350 $85 #
coedge $-1 $217 $217 $218 $351 reversed $134 $-1 #
coedge $-1 $218 $218 $217 $351 forward $136 $-1 #
coedge $-1 $219 $219 $137 $220 forward $214 $-1 #
edge $-1 $352 9.6747328752912999e-016 $352 6.2831853071796013 $219 $353 forward 7 unknown #
face $-1 $354 $355 $48 $-1 $356 reversed single #
loop $-1 $-1 $357 $138 #
plane-surface $-1 8.7938311906130746 -77.311080081369852 89.711136917965419 1 0 0 0 0.54463904215088732 -0.83867056331134215 forward_v I I I I #
coedge $-1 $358 $359 $360 $361 reversed $139 $-1 #
coedge $-1 $226 $141 $362 $363 reversed $89 $-1 #
coedge $-1 $141 $225 $358 $364 reversed $89 $-1 #
coedge $-1 $360 $365 $141 $228 forward $366 $-1 #
edge $-1 $367 17.262086841310044 $368 23.538540686002499 $227 $369 forward 7 unknown #
loop $-1 $-1 $234 $142 #
plane-surface $-1 15.969350532026972 -21.393453199374889 3.6055440266575545 0 -0.54463904215088732 0.83867056331134215 1 0 0 forward_v I I I I #
loop $-1 $-1 $370 $91 #
coedge $-1 $232 $232 $233 $371 reversed $143 $-1 #
coedge $-1 $233 $233 $232 $371 forward $145 $-1 #
coedge $-1 $234 $234 $146 $235 forward $229 $-1 #
edge $-1 $372 9.6747328752912999e-016 $372 6.2831853071796013 $234 $373 forward 7 unknown #
face $-1 $374 $375 $50 $-1 $376 reversed single #
loop $-1 $-1 $377 $147 #
plane-surface $-1 33.433791021390121 -77.311080081369852 89.711136917965419 1 0 0 0 0.54463904215088732 -0.83867056331134215 forward_v I I I I #
coedge $-1 $378 $379 $380 $381 reversed $148 $-1 #
coedge $-1 $241 $150 $382 $383 reversed $95 $-1 #
coedge $-1 $150 $240 $378 $384 reversed $95 $-1 #
coedge $-1 $380 $385 $150 $243 forward $386 $-1 #
edge $-1 $387 17.262086841310044 $388 23.538540686002499 $242 $389 forward 7 unknown #
loop $-1 $-1 $249 $151 #
plane-surface $-1 40.609310362804017 -21.393453199374889 3.6055440266575545 0 -0.54463904215088732 0.83867056331134215 1 0 0 forward_v I I I I #
loop $-1 $-1 $390 $97 #
coedge $-1 $247 $247 $248 $391 reversed $152 $-1 #
coedge $-1 $248 $248 $247 $391 forward $154 $-1 #
coedge $-1 $249 $249 $155 $250 forward $244 $-1 #
edge $-1 $392 9.6747328752912999e-016 $392 6.2831853071796013 $249 $393 forward 7 unknown #
face $-1 $394 $395 $52 $-1 $396 reversed single #
loop $-1 $-1 $397 $156 #
plane-surface $-1 9.6936385714076856 60.121283116878239 107.44027170968202 -1 0 0 0 0.68199836817093118 0.7313536940579346 forward_v I I I I #
coedge $-1 $398 $399 $400 $401 reversed $157 $-1 #
coedge $-1 $256 $159 $402 $403 reversed $101 $-1 #
coedge $-1 $159 $255 $398 $404 reversed $101 $-1 #
coedge $-1 $400 $405 $159 $258 forward $406 $-1 #
edge $-1 $407 8.6671883590642373 $408 13.502832046600407 $257 $409 forward 7 unknown #
loop $-1 $-1 $264 $160 #
plane-surface $-1 -0.86108043308410487 -9.8989088526618403 32.352810440663163 0 0.68199836817093118 0.7313536940579346 1 0 0 forward_v I I I I #
loop $-1 $-1 $410 $103 #
coedge $-1 $262 $262 $263 $411 reversed $161 $-1 #
coedge $-1 $263 $263 $262 $411 forward $163 $-1 #
coedge $-1 $264 $264 $164 $265 forward $259 $-1 #
edge $-1 $412 5.2072104952035711e-016 $412 6.2831853071796013 $264 $413 forward 7 unknown #
loop $-1 $-1 $271 $165 #
plane-surface $-1 -0.86108043308410487 -9.8989088526618403 32.352810440663163 0 0.68199836817093118 0.7313536940579346 1 0 0 forward_v I I I I #
loop $-1 $-1 $414 $106 #
coedge $-1 $269 $269 $270 $415 reversed $166 $-1 #
coedge $-1 $270 $270 $269 $415 forward $168 $-1 #
coedge $-1 $271 $271 $169 $272 forward $266 $-1 #
edge $-1 $416 5.2072104952035711e-016 $416 6.2831853071796013 $271 $417 forward 7 unknown #
loop $-1 $-1 $278 $170 #
plane-surface $-1 -0.86108043308410487 -9.8989088526618403 32.352810440663163 0 0.68199836817093118 0.7313536940579346 1 0 0 forward_v I I I I #
loop $-1 $-1 $418 $109 #
coedge $-1 $276 $276 $277 $419 reversed $171 $-1 #
coedge $-1 $277 $277 $276 $419 forward $173 $-1 #
coedge $-1 $278 $278 $174 $279 forward $273 $-1 #
edge $-1 $420 5.2072104952035711e-016 $420 6.2831853071796013 $278 $421 forward 7 unknown #
face $-1 $422 $423 $42 $-1 $424 reversed single #
loop $-1 $-1 $425 $175 #
plane-surface $-1 -51.334574419385355 0 0 1 0 0 0 0 -1 forward_v I I I I #
coedge $-1 $426 $291 $427 $428 forward $176 $-1 #
coedge $-1 $429 $178 $426 $430 forward $113 $-1 #
coedge $-1 $178 $429 $431 $432 forward $113 $-1 #
coedge $-1 $294 $293 $178 $287 reversed $295 $-1 #
edge $-1 $433 -21.393453199374882 $434 21.393453199374882 $286 $435 forward 7 unknown #
coedge $-1 $180 $179 $436 $437 forward $71 $-1 #
coedge $-1 $438 $439 $179 $290 reversed $423 $-1 #
edge $-1 $297 -51.334574419385355 $440 51.334574419385355 $289 $441 forward 7 unknown #
coedge $-1 $283 $442 $180 $292 reversed $176 $-1 #
edge $-1 $443 -51.334574419385355 $296 51.334574419385355 $291 $444 forward 7 unknown #
coedge $-1 $286 $181 $442 $445 forward $295 $-1 #
coedge $-1 $181 $286 $438 $446 reversed $295 $-1 #
loop $-1 $-1 $293 $422 #
vertex $-1 $182 $447 #
vertex $-1 $182 $448 #
straight-curve $-1 51.334574419385355 0 7.6815208876798398 0 1 0 I I #
face $-1 $449 $311 $43 $-1 $450 reversed single #
loop $-1 $-1 $451 $183 #
plane-surface $-1 -58.63331565266224 -8.672851769677079 0 1 0 0 0 0 -1 forward_v I I I I #
coedge $-1 $452 $453 $454 $455 forward $184 $-1 #
coedge $-1 $456 $186 $452 $457 forward $117 $-1 #
coedge $-1 $186 $456 $309 $458 forward $117 $-1 #
edge $-1 $312 6.6859524415869132 $459 10.659751097767245 $186 $460 forward 7 unknown #
coedge $-1 $188 $187 $461 $462 forward $74 $-1 #
coedge $-1 $463 $464 $187 $308 forward $465 $-1 #
edge $-1 $466 -10.659751097767245 $313 -6.6859524415869132 $307 $467 forward 7 unknown #
coedge $-1 $468 $189 $304 $458 reversed $311 $-1 #
coedge $-1 $189 $468 $463 $469 reversed $311 $-1 #
loop $-1 $-1 $189 $299 #
vertex $-1 $305 $470 #
vertex $-1 $469 $471 #
straight-curve $-1 -51.334574419385355 -6.6859524415869132 0 0 0 1 I I #
face $-1 $-1 $472 $44 $-1 $473 reversed single #
loop $-1 $-1 $197 $191 #
plane-surface $-1 0 0 7.6815208876798398 0 0 1 1 0 0 forward_v I I I I #
coedge $-1 $474 $475 $476 $477 reversed $192 $-1 #
coedge $-1 $478 $194 $196 $325 forward $121 $-1 #
coedge $-1 $194 $478 $474 $479 forward $121 $-1 #
coedge $-1 $476 $197 $194 $322 forward $316 $-1 #
edge $-1 $328 9.4797652233496628 $480 23.830803906177454 $321 $481 forward 7 unknown #
coedge $-1 $482 $483 $195 $324 forward $472 $-1 #
edge $-1 $484 -41.250024432325148 $327 -37.174047571302872 $323 $485 forward 7 unknown #
edge $-1 $328 -7.4838132149422236 $484 -8.3777959833898778e-015 $196 $486 forward 7 unknown #
coedge $-1 $197 $476 $482 $487 forward $316 $-1 #
vertex $-1 $198 $488 #
vertex $-1 $198 $489 #
straight-curve $-1 -26.135049788113221 -38.655540040684926 7.681520887679838 0 1 0 I I #
coedge $-1 $330 $330 $-1 $490 reversed $201 $-1 #
edge $-1 $491 0 $491 6.2831853071796004 $202 $492 forward 7 unknown #
vertex $-1 $205 $493 #
ellipse-curve $-1 -33.310569129527124 -18.255226277028658 5.643532457168698 0 -0.54463904215088732 0.83867056331134215 1.5 0 0 1 I I #
face $-1 $-1 $346 $46 $-1 $494 forward single #
loop $-1 $-1 $495 $206 #
plane-surface $-1 0 -21.393453199374882 0 0 1 0 0 0 1 forward_v I I I I #
coedge $-1 $496 $497 $498 $499 reversed $207 $-1 #
coedge $-1 $500 $209 $211 $344 forward $130 $-1 #
coedge $-1 $209 $500 $496 $501 forward $130 $-1 #
coedge $-1 $498 $212 $209 $341 forward $346 $-1 #
edge $-1 $348 -2.8402146920388613 $502 11.510823990788934 $340 $503 forward 7 unknown #
coedge $-1 $504 $505 $210 $343 forward $335 $-1 #
edge $-1 $506 -41.250024432325148 $347 -37.174047571302872 $342 $507 forward 7 unknown #
edge $-1 $348 -7.4838132149422236 $506 -8.3777959833898778e-015 $211 $508 forward 7 unknown #
coedge $-1 $212 $498 $504 $509 forward $346 $-1 #
loop $-1 $-1 $498 $334 #
vertex $-1 $343 $510 #
vertex $-1 $213 $511 #
straight-curve $-1 -1.4950899573361749 -38.655540040684926 7.681520887679838 0 1 0 I I #
coedge $-1 $350 $350 $-1 $512 reversed $216 $-1 #
edge $-1 $513 0 $513 6.2831853071796004 $217 $514 forward 7 unknown #
vertex $-1 $220 $515 #
ellipse-curve $-1 -8.6706092987500725 -18.255226277028658 5.643532457168698 0 -0.54463904215088732 0.83867056331134215 1.5 0 0 1 I I #
face $-1 $-1 $366 $48 $-1 $516 forward single #
loop $-1 $-1 $517 $221 #
plane-surface $-1 0 -21.393453199374882 0 0 1 0 0 0 1 forward_v I I I I #
coedge $-1 $518 $519 $520 $521 reversed $222 $-1 #
coedge $-1 $522 $224 $226 $364 forward $139 $-1 #
coedge $-1 $224 $522 $518 $523 forward $139 $-1 #
coedge $-1 $520 $227 $224 $361 forward $366 $-1 #
edge $-1 $368 -15.160194607427382 $524 -0.80915592459958852 $360 $525 forward 7 unknown #
coedge $-1 $526 $527 $225 $363 forward $355 $-1 #
edge $-1 $528 -41.250024432325148 $367 -37.174047571302872 $362 $529 forward 7 unknown #
edge $-1 $368 -7.4838132149422236 $528 -8.3777959833898778e-015 $226 $530 forward 7 unknown #
coedge $-1 $227 $520 $526 $531 forward $366 $-1 #
loop $-1 $-1 $520 $354 #
vertex $-1 $363 $532 #
vertex $-1 $228 $533 #
straight-curve $-1 23.144869873440868 -38.655540040684926 7.681520887679838 0 1 0 I I #
coedge $-1 $370 $370 $-1 $534 reversed $231 $-1 #
edge $-1 $535 0 $535 6.2831853071796004 $232 $536 forward 7 unknown #
vertex $-1 $235 $537 #
ellipse-curve $-1 15.969350532026972 -18.255226277028658 5.643532457168698 0 -0.54463904215088732 0.83867056331134215 1.5 0 0 1 I I #
face $-1 $-1 $386 $50 $-1 $538 forward single #
loop $-1 $-1 $539 $236 #
plane-surface $-1 0 -21.393453199374882 0 0 1 0 0 0 1 forward_v I I I I #
coedge $-1 $540 $541 $542 $543 reversed $237 $-1 #
coedge $-1 $544 $239 $241 $384 forward $148 $-1 #
coedge $-1 $239 $544 $540 $545 forward $148 $-1 #
coedge $-1 $542 $242 $239 $381 forward $386 $-1 #
edge $-1 $388 -27.480174522815904 $546 -13.129135839988113 $380 $547 forward 7 unknown #
coedge $-1 $548 $549 $240 $383 forward $375 $-1 #
edge $-1 $550 -41.250024432325148 $387 -37.174047571302872 $382 $551 forward 7 unknown #
edge $-1 $388 -7.4838132149422236 $550 -8.3777959833898778e-015 $241 $552 forward 7 unknown #
coedge $-1 $242 $542 $548 $553 forward $386 $-1 #
loop $-1 $-1 $542 $374 #
vertex $-1 $383 $554 #
vertex $-1 $243 $555 #
straight-curve $-1 47.784829704217913 -38.655540040684926 7.681520887679838 0 1 0 I I #
coedge $-1 $390 $390 $-1 $556 reversed $246 $-1 #
edge $-1 $557 0 $557 6.2831853071796004 $247 $558 forward 7 unknown #
vertex $-1 $250 $559 #
ellipse-curve $-1 40.609310362804017 -18.255226277028658 5.643532457168698 0 -0.54463904215088732 0.83867056331134215 1.5 0 0 1 I I #
face $-1 $-1 $406 $52 $-1 $560 forward single #
loop $-1 $-1 $561 $251 #
plane-surface $-1 0 21.393453199374882 0 0 -1 0 0 0 -1 forward_v I I I I #
coedge $-1 $562 $563 $564 $565 reversed $252 $-1 #
coedge $-1 $566 $254 $256 $404 forward $157 $-1 #
coedge $-1 $254 $566 $562 $567 forward $157 $-1 #
coedge $-1 $564 $257 $254 $401 forward $406 $-1 #
edge $-1 $408 -10.985259221033843 $568 10.124178787949738 $400 $569 forward 7 unknown #
coedge $-1 $570 $571 $255 $403 forward $395 $-1 #
edge $-1 $572 -50.547925757207565 $407 -46.038614967161173 $402 $573 forward 7 unknown #
edge $-1 $408 36.174997924335045 $572 42.786906398749778 $256 $574 forward 7 unknown #
coedge $-1 $257 $564 $570 $575 forward $406 $-1 #
loop $-1 $-1 $564 $394 #
vertex $-1 $403 $576 #
vertex $-1 $258 $577 #
straight-curve $-1 -11.415799437575895 30.060641558439119 7.681520887679838 0 -1 0 I I #
coedge $-1 $410 $410 $-1 $578 reversed $261 $-1 #
edge $-1 $579 0 $579 6.2831853071796004 $262 $580 forward 7 unknown #
vertex $-1 $265 $581 #
ellipse-curve $-1 -7.1939118357791827 18.975631355606797 5.426865492656642 0 0.68199836817093118 0.7313536940579346 1.5 0 0 1 I I #
coedge $-1 $414 $414 $-1 $582 reversed $268 $-1 #
edge $-1 $583 0 $583 6.2831853071796004 $269 $584 forward 7 unknown #
vertex $-1 $272 $585 #
ellipse-curve $-1 -0.86108043308410487 18.975631355606797 5.426865492656642 0 0.68199836817093118 0.7313536940579346 1.5 0 0 1 I I #
coedge $-1 $418 $418 $-1 $586 reversed $275 $-1 #
edge $-1 $587 0 $587 6.2831853071796004 $276 $588 forward 7 unknown #
vertex $-1 $279 $589 #
ellipse-curve $-1 5.471750969610973 18.975631355606797 5.426865492656642 0 0.68199836817093118 0.7313536940579346 1.5 0 0 1 I I #
face $-1 $-1 $295 $42 $-1 $590 reversed single #
loop $-1 $-1 $438 $280 #
plane-surface $-1 0 21.393453199374882 0 0 -1 0 0 0 -1 forward_v I I I I #
coedge $-1 $591 $436 $439 $592 forward $281 $-1 #
coedge $-1 $442 $283 $284 $430 reversed $176 $-1 #
coedge $-1 $436 $591 $283 $428 reversed $281 $-1 #
edge $-1 $443 -7.6815208876798398 $593 7.6815208876798398 $427 $594 forward 7 unknown #
coedge $-1 $285 $284 $591 $595 forward $113 $-1 #
edge $-1 $434 -51.334574419385355 $593 51.334574419385355 $426 $596 forward 7 unknown #
coedge $-1 $439 $438 $285 $432 reversed $423 $-1 #
edge $-1 $597 -51.334574419385355 $433 51.334574419385355 $431 $598 forward 7 unknown #
vertex $-1 $287 $599 #
vertex $-1 $445 $600 #
straight-curve $-1 51.334574419385355 0 -7.6815208876798398 0 -1 0 I I #
coedge $-1 $425 $427 $288 $437 reversed $281 $-1 #
edge $-1 $440 -21.393453199374882 $443 21.393453199374882 $436 $601 forward 7 unknown #
coedge $-1 $431 $289 $294 $446 forward $423 $-1 #
coedge $-1 $289 $431 $425 $592 reversed $423 $-1 #
vertex $-1 $290 $602 #
straight-curve $-1 0 21.393453199374882 7.6815208876798398 -1 0 0 I I #
coedge $-1 $291 $426 $293 $445 reversed $176 $-1 #
vertex $-1 $437 $603 #
straight-curve $-1 0 -21.393453199374882 7.6815208876798398 1 0 0 I I #
edge $-1 $296 -7.6815208876798398 $434 7.6815208876798398 $293 $604 forward 7 unknown #
edge $-1 $297 -7.6815208876798398 $433 7.6815208876798398 $294 $605 forward 7 unknown #
point $-1 51.334574419385355 -21.393453199374882 7.6815208876798398 #
point $-1 51.334574419385355 21.393453199374882 7.6815208876798398 #
face $-1 $-1 $465 $43 $-1 $606 forward single #
plane-surface $-1 -54.983945036023798 -6.6859524415869132 0 0 -1 0 0 0 -1 forward_v I I I I #
coedge $-1 $607 $608 $468 $609 forward $300 $-1 #
coedge $-1 $461 $302 $303 $457 reversed $184 $-1 #
coedge $-1 $302 $461 $464 $610 reversed $184 $-1 #
coedge $-1 $608 $607 $302 $455 reversed $300 $-1 #
edge $-1 $611 -7.6815208876798398 $612 7.6815208876798398 $454 $613 forward 7 unknown #
coedge $-1 $304 $303 $607 $614 forward $117 $-1 #
edge $-1 $459 -3.6493706166384428 $612 3.6493706166384428 $452 $615 forward 7 unknown #
edge $-1 $616 -3.6493706166384428 $312 3.6493706166384428 $309 $617 forward 7 unknown #
vertex $-1 $457 $618 #
straight-curve $-1 -51.334574419385355 0 -7.6815208876798398 0 -1 0 I I #
coedge $-1 $453 $452 $306 $462 reversed $184 $-1 #
edge $-1 $466 -7.6815208876798398 $459 7.6815208876798398 $461 $619 forward 7 unknown #
coedge $-1 $620 $307 $310 $469 forward $465 $-1 #
coedge $-1 $307 $620 $453 $610 forward $465 $-1 #
loop $-1 $-1 $307 $449 #
vertex $-1 $308 $621 #
straight-curve $-1 -51.334574419385355 0 7.6815208876798398 0 1 0 I I #
coedge $-1 $310 $309 $451 $609 reversed $311 $-1 #
edge $-1 $313 -3.6493706166384428 $622 3.6493706166384428 $310 $623 forward 7 unknown #
point $-1 -51.334574419385355 -6.6859524415869132 -7.6815208876798398 #
point $-1 -51.334574419385355 -6.6859524415869132 7.6815208876798398 #
loop $-1 $-1 $323 $315 #
plane-surface $-1 0 -21.393453199374882 0 0 1 0 0 0 1 forward_v I I I I #
coedge $-1 $475 $318 $320 $479 reversed $192 $-1 #
coedge $-1 $318 $474 $624 $625 reversed $192 $-1 #
coedge $-1 $326 $321 $318 $477 forward $316 $-1 #
edge $-1 $480 -23.538540686002499 $626 -17.262086841310044 $476 $627 forward 7 unknown #
coedge $-1 $320 $319 $483 $628 reversed $121 $-1 #
edge $-1 $629 8.3777959833898778e-015 $480 7.4838132149422236 $474 $630 forward 7 unknown #
vertex $-1 $322 $631 #
straight-curve $-1 -16.655284564763559 -15.116999354682427 7.6815208876798398 -1 0 0 I I #
coedge $-1 $624 $323 $326 $487 reversed $472 $-1 #
coedge $-1 $323 $624 $478 $628 forward $472 $-1 #
vertex $-1 $324 $632 #
straight-curve $-1 -26.135049788113221 -21.393453199374882 44.85556845898271 0 0 1 I I #
straight-curve $-1 -26.135049788113221 -21.393453199374889 3.6055440266575545 0 -0.83867056331134215 -0.54463904215088732 I I #
edge $-1 $626 -40.486088470941013 $327 -26.135049788113221 $482 $633 forward 7 unknown #
point $-1 -26.135049788113221 -21.393453199374882 7.6815208876798398 #
point $-1 -26.135049788113221 -15.116999354682427 7.6815208876798398 #
edge $-1 $634 1 $634 0 $330 $-1 forward 7 unknown #
vertex $-1 $331 $635 #
ellipse-curve $-1 -33.310569129527124 -15.077148511675286 0.74972194518239677 0 -0.54463904215088732 0.83867056331134215 1.5 0 0 1 I I #
point $-1 -31.810569129527124 -18.255226277028658 5.6435324571687007 #
plane-surface $-1 0 0 7.6815208876798398 0 0 1 1 0 0 forward_v I I I I #
coedge $-1 $505 $504 $497 $636 forward $335 $-1 #
coedge $-1 $497 $337 $339 $501 reversed $207 $-1 #
coedge $-1 $337 $496 $495 $636 reversed $207 $-1 #
coedge $-1 $345 $340 $337 $499 forward $346 $-1 #
edge $-1 $502 -23.538540686002499 $637 -17.262086841310044 $498 $638 forward 7 unknown #
coedge $-1 $339 $338 $505 $639 reversed $130 $-1 #
edge $-1 $640 8.3777959833898778e-015 $502 7.4838132149422236 $496 $641 forward 7 unknown #
vertex $-1 $341 $642 #
straight-curve $-1 -4.3353046493750362 -15.116999354682427 7.6815208876798398 -1 0 0 I I #
coedge $-1 $495 $342 $345 $509 reversed $335 $-1 #
coedge $-1 $342 $495 $500 $639 forward $335 $-1 #
vertex $-1 $343 $643 #
straight-curve $-1 -1.4950899573361749 -21.393453199374882 44.85556845898271 0 0 1 I I #
straight-curve $-1 -1.4950899573361749 -21.393453199374889 3.6055440266575545 0 -0.83867056331134215 -0.54463904215088732 I I #
edge $-1 $637 -15.84612864016397 $347 -1.4950899573361749 $504 $644 forward 7 unknown #
point $-1 -1.4950899573361749 -21.393453199374882 7.6815208876798398 #
point $-1 -1.4950899573361749 -15.116999354682427 7.6815208876798398 #
edge $-1 $645 1 $645 0 $350 $-1 forward 7 unknown #
vertex $-1 $351 $646 #
ellipse-curve $-1 -8.6706092987500725 -15.077148511675286 0.74972194518239677 0 -0.54463904215088732 0.83867056331134215 1.5 0 0 1 I I #
point $-1 -7.1706092987500725 -18.255226277028658 5.6435324571687007 #
plane-surface $-1 0 0 7.6815208876798398 0 0 1 1 0 0 forward_v I I I I #
coedge $-1 $527 $526 $519 $647 forward $355 $-1 #
coedge $-1 $519 $357 $359 $523 reversed $222 $-1 #
coedge $-1 $357 $518 $517 $647 reversed $222 $-1 #
coedge $-1 $365 $360 $357 $521 forward $366 $-1 #
edge $-1 $524 -23.538540686002499 $648 -17.262086841310044 $520 $649 forward 7 unknown #
coedge $-1 $359 $358 $527 $650 reversed $139 $-1 #
edge $-1 $651 8.3777959833898778e-015 $524 7.4838132149422236 $518 $652 forward 7 unknown #
vertex $-1 $361 $653 #
straight-curve $-1 7.9846752660134861 -15.116999354682427 7.6815208876798398 -1 0 0 I I #
coedge $-1 $517 $362 $365 $531 reversed $355 $-1 #
coedge $-1 $362 $517 $522 $650 forward $355 $-1 #
vertex $-1 $363 $654 #
straight-curve $-1 23.144869873440868 -21.393453199374882 44.85556845898271 0 0 1 I I #
straight-curve $-1 23.144869873440868 -21.393453199374889 3.6055440266575545 0 -0.83867056331134215 -0.54463904215088732 I I #
edge $-1 $648 8.7938311906130746 $367 23.144869873440868 $526 $655 forward 7 unknown #
point $-1 23.144869873440868 -21.393453199374882 7.6815208876798398 #
point $-1 23.144869873440868 -15.116999354682427 7.6815208876798398 #
edge $-1 $656 1 $656 0 $370 $-1 forward 7 unknown #
vertex $-1 $371 $657 #
ellipse-curve $-1 15.969350532026972 -15.077148511675286 0.74972194518239677 0 -0.54463904215088732 0.83867056331134215 1.5 0 0 1 I I #
point $-1 17.469350532026972 -18.255226277028658 5.6435324571687007 #
plane-surface $-1 0 0 7.6815208876798398 0 0 1 1 0 0 forward_v I I I I #
coedge $-1 $549 $548 $541 $658 forward $375 $-1 #
coedge $-1 $541 $377 $379 $545 reversed $237 $-1 #
coedge $-1 $377 $540 $539 $658 reversed $237 $-1 #
coedge $-1 $385 $380 $377 $543 forward $386 $-1 #
edge $-1 $546 -23.538540686002499 $659 -17.262086841310044 $542 $660 forward 7 unknown #
coedge $-1 $379 $378 $549 $661 reversed $148 $-1 #
edge $-1 $662 8.3777959833898778e-015 $546 7.4838132149422236 $540 $663 forward 7 unknown #
vertex $-1 $381 $664 #
straight-curve $-1 20.304655181402008 -15.116999354682427 7.6815208876798398 -1 0 0 I I #
coedge $-1 $539 $382 $385 $553 reversed $375 $-1 #
coedge $-1 $382 $539 $544 $661 forward $375 $-1 #
vertex $-1 $383 $665 #
straight-curve $-1 47.784829704217913 -21.393453199374882 44.85556845898271 0 0 1 I I #
straight-curve $-1 47.784829704217913 -21.393453199374889 3.6055440266575545 0 -0.83867056331134215 -0.54463904215088732 I I #
edge $-1 $659 33.433791021390121 $387 47.784829704217913 $548 $666 forward 7 unknown #
point $-1 47.784829704217913 -21.393453199374882 7.6815208876798398 #
point $-1 47.784829704217913 -15.116999354682427 7.6815208876798398 #
edge $-1 $667 1 $667 0 $390 $-1 forward 7 unknown #
vertex $-1 $391 $668 #
ellipse-curve $-1 40.609310362804017 -15.077148511675286 0.74972194518239677 0 -0.54463904215088732 0.83867056331134215 1.5 0 0 1 I I #
point $-1 42.109310362804017 -18.255226277028658 5.6435324571687007 #
plane-surface $-1 0 0 7.6815208876798398 0 0 1 1 0 0 forward_v I I I I #
coedge $-1 $571 $570 $563 $669 forward $395 $-1 #
coedge $-1 $563 $397 $399 $567 reversed $252 $-1 #
coedge $-1 $397 $562 $561 $669 reversed $252 $-1 #
coedge $-1 $405 $400 $397 $565 forward $406 $-1 #
edge $-1 $568 -13.502832046600407 $670 -8.6671883590642373 $564 $671 forward 7 unknown #
coedge $-1 $399 $398 $571 $672 reversed $157 $-1 #
edge $-1 $673 -42.786906398749778 $568 -36.174997924335045 $562 $674 forward 7 unknown #
vertex $-1 $401 $675 #
straight-curve $-1 -0.43054021654205243 16.557809511838713 7.681520887679838 1 0 0 I I #
coedge $-1 $561 $402 $405 $575 reversed $395 $-1 #
coedge $-1 $402 $561 $566 $672 forward $395 $-1 #
vertex $-1 $403 $676 #
straight-curve $-1 -11.415799437575895 21.393453199374882 53.720135854841011 0 0 1 I I #
straight-curve $-1 -11.415799437575895 -9.8989088526618403 32.352810440663163 0 0.7313536940579346 -0.68199836817093118 I I #
edge $-1 $670 -9.6936385714076856 $407 11.415799437575895 $570 $677 forward 7 unknown #
point $-1 -11.415799437575895 21.393453199374882 7.6815208876798398 #
point $-1 -11.415799437575895 16.557809511838713 7.681520887679838 #
edge $-1 $678 1 $678 0 $410 $-1 forward 7 unknown #
vertex $-1 $411 $679 #
ellipse-curve $-1 -7.1939118357791827 15.673578707761406 1.8858476329625251 0 0.68199836817093118 0.7313536940579346 1.5 0 0 1 I I #
point $-1 -5.6939118357791827 18.975631355606801 5.4268654926566446 #
edge $-1 $680 1 $680 0 $414 $-1 forward 7 unknown #
vertex $-1 $415 $681 #
ellipse-curve $-1 -0.86108043308410487 15.673578707761406 1.8858476329625251 0 0.68199836817093118 0.7313536940579346 1.5 0 0 1 I I #
point $-1 0.63891956691589513 18.975631355606801 5.4268654926566446 #
edge $-1 $682 1 $682 0 $418 $-1 forward 7 unknown #
vertex $-1 $419 $683 #
ellipse-curve $-1 5.471750969610973 15.673578707761406 1.8858476329625251 0 0.68199836817093118 0.7313536940579346 1.5 0 0 1 I I #
point $-1 6.971750969610973 18.975631355606801 5.4268654926566446 #
plane-surface $-1 51.334574419385355 0 0 -1 0 0 0 0 1 forward_v I I I I #
coedge $-1 $427 $425 $429 $595 reversed $281 $-1 #
edge $-1 $440 -7.6815208876798398 $597 7.6815208876798398 $439 $684 forward 7 unknown #
vertex $-1 $595 $685 #
straight-curve $-1 -51.334574419385355 -21.393453199374882 0 0 0 -1 I I #
edge $-1 $593 -21.393453199374882 $597 21.393453199374882 $591 $686 forward 7 unknown #
straight-curve $-1 0 -21.393453199374882 -7.6815208876798398 -1 0 0 I I #
vertex $-1 $432 $687 #
straight-curve $-1 0 21.393453199374882 -7.6815208876798398 1 0 0 I I #
point $-1 51.334574419385355 21.393453199374882 -7.6815208876798398 #
point $-1 51.334574419385355 -21.393453199374882 -7.6815208876798398 #
straight-curve $-1 -51.334574419385355 0 7.6815208876798398 0 -1 0 I I #
point $-1 -51.334574419385355 21.393453199374882 7.6815208876798398 #
point $-1 -51.334574419385355 -21.393453199374882 7.6815208876798398 #
straight-curve $-1 51.334574419385355 -21.393453199374882 0 0 0 -1 I I #
straight-curve $-1 51.334574419385355 21.393453199374882 0 0 0 -1 I I #
plane-surface $-1 0 0 7.6815208876798398 0 0 1 1 0 0 forward_v I I I I #
coedge $-1 $454 $451 $456 $614 reversed $300 $-1 #
coedge $-1 $451 $454 $620 $688 reversed $300 $-1 #
edge $-1 $622 -7.6815208876798398 $616 7.6815208876798398 $468 $689 forward 7 unknown #
edge $-1 $611 -3.6493706166384428 $466 3.6493706166384428 $453 $690 forward 7 unknown #
vertex $-1 $688 $691 #
vertex $-1 $614 $692 #
straight-curve $-1 -58.63331565266224 -10.659751097767245 0 0 0 -1 I I #
edge $-1 $612 -1.9868993280901659 $616 1.9868993280901659 $607 $693 forward 7 unknown #
straight-curve $-1 -54.983945036023798 -10.659751097767245 -7.6815208876798398 -1 0 0 I I #
vertex $-1 $458 $694 #
straight-curve $-1 -54.983945036023798 -6.6859524415869132 -7.6815208876798398 1 0 0 I I #
point $-1 -51.334574419385355 -10.659751097767245 -7.6815208876798398 #
straight-curve $-1 -51.334574419385355 -10.659751097767245 0 0 0 -1 I I #
coedge $-1 $464 $463 $608 $688 forward $465 $-1 #
point $-1 -51.334574419385355 -10.659751097767245 7.6815208876798398 #
vertex $-1 $469 $695 #
straight-curve $-1 -54.983945036023798 -6.6859524415869132 7.6815208876798398 -1 0 0 I I #
coedge $-1 $483 $482 $475 $625 forward $472 $-1 #
edge $-1 $626 37.174047571302872 $629 41.250024432325148 $624 $696 forward 7 unknown #
vertex $-1 $487 $697 #
straight-curve $-1 -40.486088470941013 -38.655540040684926 7.681520887679838 0 -1 0 I I #
edge $-1 $629 -23.830803906177454 $484 -9.4797652233496628 $483 $698 forward 7 unknown #
vertex $-1 $628 $699 #
straight-curve $-1 -40.486088470941013 -21.393453199374889 3.6055440266575545 0 0.83867056331134215 0.54463904215088732 I I #
point $-1 -40.486088470941013 -15.116999354682427 7.6815208876798398 #
point $-1 -26.135049788113221 -21.393453199374882 3.6055440266575589 #
straight-curve $-1 0 -21.393453199374882 7.6815208876798398 1 0 0 I I #
vertex $-1 $490 $700 #
point $-1 -31.810569129527124 -15.077148511675286 0.74972194518239677 #
edge $-1 $637 37.174047571302872 $640 41.250024432325148 $495 $701 forward 7 unknown #
vertex $-1 $509 $702 #
straight-curve $-1 -15.84612864016397 -38.655540040684926 7.681520887679838 0 -1 0 I I #
edge $-1 $640 -11.510823990788934 $506 2.8402146920388613 $505 $703 forward 7 unknown #
vertex $-1 $639 $704 #
straight-curve $-1 -15.84612864016397 -21.393453199374889 3.6055440266575545 0 0.83867056331134215 0.54463904215088732 I I #
point $-1 -15.84612864016397 -15.116999354682427 7.6815208876798398 #
point $-1 -1.4950899573361749 -21.393453199374882 3.6055440266575589 #
straight-curve $-1 0 -21.393453199374882 7.6815208876798398 1 0 0 I I #
vertex $-1 $512 $705 #
point $-1 -7.1706092987500725 -15.077148511675286 0.74972194518239677 #
edge $-1 $648 37.174047571302872 $651 41.250024432325148 $517 $706 forward 7 unknown #
vertex $-1 $531 $707 #
straight-curve $-1 8.7938311906130746 -38.655540040684926 7.681520887679838 0 -1 0 I I #
edge $-1 $651 0.80915592459958852 $528 15.160194607427382 $527 $708 forward 7 unknown #
vertex $-1 $650 $709 #
straight-curve $-1 8.7938311906130746 -21.393453199374889 3.6055440266575545 0 0.83867056331134215 0.54463904215088732 I I #
point $-1 8.7938311906130746 -15.116999354682427 7.6815208876798398 #
point $-1 23.144869873440868 -21.393453199374882 3.6055440266575589 #
straight-curve $-1 0 -21.393453199374882 7.6815208876798398 1 0 0 I I #
vertex $-1 $534 $710 #
point $-1 17.469350532026972 -15.077148511675286 0.74972194518239677 #
edge $-1 $659 37.174047571302872 $662 41.250024432325148 $539 $711 forward 7 unknown #
vertex $-1 $553 $712 #
straight-curve $-1 33.433791021390121 -38.655540040684926 7.681520887679838 0 -1 0 I I #
edge $-1 $662 13.129135839988113 $550 27.480174522815904 $549 $713 forward 7 unknown #
vertex $-1 $661 $714 #
straight-curve $-1 33.433791021390121 -21.393453199374889 3.6055440266575545 0 0.83867056331134215 0.54463904215088732 I I #
point $-1 33.433791021390121 -15.116999354682427 7.6815208876798398 #
point $-1 47.784829704217913 -21.393453199374882 3.6055440266575589 #
straight-curve $-1 0 -21.393453199374882 7.6815208876798398 1 0 0 I I #
vertex $-1 $556 $715 #
point $-1 42.109310362804017 -15.077148511675286 0.74972194518239677 #
edge $-1 $670 46.038614967161173 $673 50.547925757207565 $561 $716 forward 7 unknown #
vertex $-1 $575 $717 #
straight-curve $-1 9.6936385714076856 30.060641558439119 7.681520887679838 0 1 0 I I #
edge $-1 $673 -10.124178787949738 $572 10.985259221033843 $571 $718 forward 7 unknown #
vertex $-1 $672 $719 #
straight-curve $-1 9.6936385714076856 -9.8989088526618403 32.352810440663163 0 -0.7313536940579346 0.68199836817093118 I I #
point $-1 9.6936385714076856 16.557809511838713 7.681520887679838 #
point $-1 -11.415799437575895 21.393453199374886 3.172210097633446 #
straight-curve $-1 0 21.393453199374882 7.6815208876798398 -1 0 0 I I #
vertex $-1 $578 $720 #
point $-1 -5.6939118357791827 15.673578707761406 1.8858476329625251 #
vertex $-1 $582 $721 #
point $-1 0.63891956691589513 15.673578707761406 1.8858476329625251 #
vertex $-1 $586 $722 #
point $-1 6.971750969610973 15.673578707761406 1.8858476329625251 #
straight-curve $-1 -51.334574419385355 21.393453199374882 0 0 0 -1 I I #
point $-1 -51.334574419385355 -21.393453199374882 -7.6815208876798398 #
straight-curve $-1 -51.334574419385355 0 -7.6815208876798398 0 1 0 I I #
point $-1 -51.334574419385355 21.393453199374882 -7.6815208876798398 #
edge $-1 $622 -1.9868993280901659 $611 1.9868993280901659 $608 $723 forward 7 unknown #
straight-curve $-1 -58.63331565266224 -6.6859524415869132 0 0 0 -1 I I #
straight-curve $-1 -54.983945036023798 -10.659751097767245 7.6815208876798398 1 0 0 I I #
point $-1 -58.63331565266224 -10.659751097767245 7.6815208876798398 #
point $-1 -58.63331565266224 -10.659751097767245 -7.6815208876798398 #
straight-curve $-1 -58.63331565266224 -8.672851769677079 -7.6815208876798398 0 1 0 I I #
point $-1 -58.63331565266224 -6.6859524415869132 -7.6815208876798398 #
point $-1 -58.63331565266224 -6.6859524415869132 7.6815208876798398 #
straight-curve $-1 -40.486088470941013 -21.393453199374882 44.85556845898271 0 0 -1 I I #
point $-1 -40.486088470941013 -21.393453199374882 7.6815208876798398 #
straight-curve $-1 -16.655284564763559 -21.393453199374882 3.6055440266575598 1 0 0 I I #
point $-1 -40.486088470941013 -21.393453199374882 3.6055440266575589 #
point $-1 -33.310569129527124 -14.260189948448957 -0.50828389978461652 #
straight-curve $-1 -15.84612864016397 -21.393453199374882 44.85556845898271 0 0 -1 I I #
point $-1 -15.84612864016397 -21.393453199374882 7.6815208876798398 #
straight-curve $-1 -4.3353046493750362 -21.393453199374882 3.6055440266575598 1 0 0 I I #
point $-1 -15.84612864016397 -21.393453199374882 3.6055440266575589 #
point $-1 -8.6706092987500725 -14.260189948448957 -0.50828389978461652 #
straight-curve $-1 8.7938311906130746 -21.393453199374882 44.85556845898271 0 0 -1 I I #
point $-1 8.7938311906130746 -21.393453199374882 7.6815208876798398 #
straight-curve $-1 7.9846752660134861 -21.393453199374882 3.6055440266575598 1 0 0 I I #
point $-1 8.7938311906130746 -21.393453199374882 3.6055440266575589 #
point $-1 15.969350532026972 -14.260189948448957 -0.50828389978461652 #
straight-curve $-1 33.433791021390121 -21.393453199374882 44.85556845898271 0 0 -1 I I #
point $-1 33.433791021390121 -21.393453199374882 7.6815208876798398 #
straight-curve $-1 20.304655181402008 -21.393453199374882 3.6055440266575598 1 0 0 I I #
point $-1 33.433791021390121 -21.393453199374882 3.6055440266575589 #
point $-1 40.609310362804017 -14.260189948448957 -0.50828389978461652 #
straight-curve $-1 9.6936385714076856 21.393453199374882 53.720135854841011 0 0 -1 I I #
point $-1 9.6936385714076856 21.393453199374882 7.6815208876798398 #
straight-curve $-1 -0.43054021654205243 21.393453199374882 3.1722100976334477 -1 0 0 I I #
point $-1 9.6936385714076856 21.393453199374886 3.172210097633446 #
point $-1 -7.1939118357791827 14.65058115550501 0.78881709187562332 #
point $-1 -0.86108043308410487 14.65058115550501 0.78881709187562332 #
point $-1 5.471750969610973 14.65058115550501 0.78881709187562332 #
straight-curve $-1 -58.63331565266224 -8.672851769677079 7.6815208876798398 0 -1 0 I I #
End-of-ACIS-data 