500 0 8 0           
7 Unknown 11 ACIS 5.0 NT 24 Thu Mar 25 17:35:14 1999 
-1 9.9999999999999995e-007 1e-010 
body $-1 $8 $-1 $9 #
body $-1 $10 $-1 $11 #
body $-1 $12 $-1 $13 #
body $-1 $14 $-1 $15 #
body $-1 $16 $-1 $17 #
body $-1 $18 $-1 $19 #
body $-1 $20 $-1 $21 #
body $-1 $22 $-1 $23 #
lump $-1 $-1 $24 $0 #
transform $-1 1 0 0 0 1 0 0 0 1 50.973235267189551 35.261245352881218 15.559628484673896 1 rotate no_reflect no_shear #
lump $-1 $-1 $25 $1 #
transform $-1 1 0 0 0 1 0 0 0 1 50.973235267189551 35.261245352881218 15.559628484673896 1 rotate no_reflect no_shear #
lump $-1 $-1 $26 $2 #
transform $-1 1 0 0 0 1 0 0 0 1 50.973235267189551 35.261245352881218 15.559628484673896 1 rotate no_reflect no_shear #
lump $-1 $-1 $27 $3 #
transform $-1 1 0 0 0 1 0 0 0 1 50.973235267189551 35.261245352881218 15.559628484673896 1 rotate no_reflect no_shear #
lump $-1 $-1 $28 $4 #
transform $-1 1 0 0 0 1 0 0 0 1 50.973235267189551 35.261245352881218 15.559628484673896 1 rotate no_reflect no_shear #
lump $-1 $-1 $29 $5 #
transform $-1 1 0 0 0 1 0 0 0 1 50.973235267189551 35.261245352881218 15.559628484673896 1 rotate no_reflect no_shear #
lump $-1 $-1 $30 $6 #
transform $-1 1 0 0 0 1 0 0 0 1 50.973235267189551 35.261245352881218 15.559628484673896 1 rotate no_reflect no_shear #
lump $-1 $-1 $31 $7 #
transform $-1 1 0 0 0 1 0 0 0 1 50.973235267189551 35.261245352881218 15.559628484673896 1 rotate no_reflect no_shear #
shell $-1 $-1 $-1 $32 $-1 $8 #
shell $-1 $-1 $-1 $33 $-1 $10 #
shell $-1 $-1 $-1 $34 $-1 $12 #
shell $-1 $-1 $-1 $35 $-1 $14 #
shell $-1 $-1 $-1 $36 $-1 $16 #
shell $-1 $-1 $-1 $37 $-1 $18 #
shell $-1 $-1 $-1 $38 $-1 $20 #
shell $-1 $-1 $-1 $39 $-1 $22 #
face $-1 $40 $41 $24 $-1 $42 forward single #
face $-1 $43 $44 $25 $-1 $45 reversed single #
face $-1 $46 $47 $26 $-1 $48 reversed single #
face $-1 $49 $50 $27 $-1 $51 forward single #
face $-1 $52 $53 $28 $-1 $54 forward single #
face $-1 $55 $56 $29 $-1 $57 reversed single #
face $-1 $58 $59 $30 $-1 $60 forward single #
face $-1 $61 $62 $31 $-1 $63 forward single #
face $-1 $64 $65 $24 $-1 $66 reversed single #
loop $-1 $-1 $67 $32 #
plane-surface $-1 0 0 15.559628484673896 0 0 1 1 0 0 forward_v I I I I #
face $-1 $68 $69 $25 $-1 $70 reversed single #
loop $-1 $-1 $71 $33 #
plane-surface $-1 0 -27.083558204427185 6.2255608778792304 0 0 1 1 0 0 forward_v I I I I #
face $-1 $72 $73 $26 $-1 $74 reversed single #
loop $-1 $-1 $75 $34 #
plane-surface $-1 -50.973235267189537 -11.278654778134708 0.99734956868560687 -0.6560590369687036 0 0.75470957328743171 0.75470957328743171 0 0.6560590369687036 forward_v I I I I #
face $-1 $76 $77 $27 $-1 $78 forward single #
loop $-1 $79 $80 $35 #
cone-surface $-1 -42.269213126487607 -14.547461754351183 7.9011342400360371 0.6560590369687036 0 -0.75470957328743171 0.37735478664371586 0 0.3280295184843518 1 I I 0 1 0.5 forward I I I I #
face $-1 $81 $82 $28 $-1 $83 forward single #
loop $-1 $84 $85 $36 #
cone-surface $-1 -42.269213126487607 -8.0098478019182338 7.9011342400360371 0.6560590369687036 0 -0.75470957328743171 0.37735478664371586 0 0.3280295184843518 1 I I 0 1 0.5 forward I I I I #
face $-1 $86 $87 $29 $-1 $88 reversed single #
loop $-1 $-1 $89 $37 #
plane-surface $-1 63.538836256450281 24.239257885889117 154.12445674829786 0 -1 0 -0.7660444514056185 0 -0.64278759981090561 forward_v I I I I #
face $-1 $90 $91 $30 $-1 $92 forward single #
loop $-1 $93 $94 $38 #
cone-surface $-1 47.771493210014938 17.926030634425686 12.12429824723136 -0.7660444514056185 0 -0.64278759981090561 0.64278759981090561 0 -0.7660444514056185 1 I I 0 1 1 forward I I I I #
face $-1 $95 $96 $31 $-1 $97 forward single #
loop $-1 $98 $99 $39 #
cone-surface $-1 47.771493210014938 21.713966985303749 12.12429824723136 -0.7660444514056185 0 -0.64278759981090561 0.64278759981090561 0 -0.7660444514056185 1 I I 0 1 1 forward I I I I #
face $-1 $100 $101 $24 $-1 $102 reversed single #
loop $-1 $-1 $103 $40 #
plane-surface $-1 0 0 -15.559628484673896 0 0 1 1 0 0 forward_v I I I I #
coedge $-1 $104 $105 $106 $107 forward $41 $-1 #
face $-1 $108 $109 $25 $-1 $110 reversed single #
loop $-1 $-1 $111 $43 #
plane-surface $-1 0 -18.905871055973151 10.892594681276565 0 -1 0 0 0 -1 forward_v I I I I #
coedge $-1 $112 $113 $114 $115 reversed $44 $-1 #
face $-1 $116 $117 $26 $-1 $118 forward single #
loop $-1 $-1 $119 $46 #
plane-surface $-1 -117.85613854833261 -3.6514385002962673 77.937326843846591 0 -1 0 0.6560590369687036 0 -0.75470957328743171 forward_v I I I I #
coedge $-1 $120 $121 $122 $123 reversed $47 $-1 #
face $-1 $-1 $124 $27 $-1 $125 forward single #
loop $-1 $126 $127 $49 #
cone-surface $-1 -41.777168848761079 -14.547461754351183 7.3351020600704633 0.6560590369687036 0 -0.75470957328743171 0.18867739332185793 0 0.1640147592421759 1 I I -0.70710678118654746 0.70710678118654746 0.25 forward I I I I #
loop $-1 $-1 $128 $35 #
coedge $-1 $80 $80 $129 $130 reversed $50 $-1 #
face $-1 $-1 $131 $28 $-1 $132 forward single #
loop $-1 $133 $134 $52 #
cone-surface $-1 -41.777168848761079 -8.0098478019182338 7.3351020600704633 0.6560590369687036 0 -0.75470957328743171 0.18867739332185793 0 0.1640147592421759 1 I I -0.70710678118654746 0.70710678118654746 0.25 forward I I I I #
loop $-1 $-1 $135 $36 #
coedge $-1 $85 $85 $136 $137 reversed $53 $-1 #
face $-1 $138 $139 $29 $-1 $140 reversed single #
loop $-1 $-1 $141 $55 #
plane-surface $-1 -14.556691836797214 19.819998809864714 88.594529644311109 0.7660444514056185 0 0.64278759981090561 0.64278759981090561 0 -0.7660444514056185 forward_v I I I I #
coedge $-1 $142 $143 $144 $145 reversed $56 $-1 #
face $-1 $-1 $146 $30 $-1 $147 forward single #
loop $-1 $148 $149 $58 #
cone-surface $-1 46.309913968309061 17.926030634425686 10.897887676688489 -0.7660444514056185 0 -0.64278759981090561 0.3213937999054528 0 -0.38302222570280925 1 I I -0.70710678118654746 0.70710678118654746 0.5 forward I I I I #
loop $-1 $-1 $150 $38 #
coedge $-1 $94 $94 $151 $152 reversed $59 $-1 #
face $-1 $-1 $153 $31 $-1 $154 forward single #
loop $-1 $155 $156 $61 #
cone-surface $-1 46.309913968309061 21.713966985303749 10.897887676688489 -0.7660444514056185 0 -0.64278759981090561 0.3213937999054528 0 -0.38302222570280925 1 I I -0.70710678118654746 0.70710678118654746 0.5 forward I I I I #
loop $-1 $-1 $157 $39 #
coedge $-1 $99 $99 $158 $159 reversed $62 $-1 #
face $-1 $160 $161 $24 $-1 $162 reversed single #
loop $-1 $-1 $163 $64 #
plane-surface $-1 0 -35.261245352881218 0 0 1 0 0 0 1 forward_v I I I I #
coedge $-1 $164 $165 $166 $167 forward $65 $-1 #
coedge $-1 $168 $67 $169 $170 forward $41 $-1 #
coedge $-1 $67 $168 $171 $172 forward $41 $-1 #
coedge $-1 $173 $174 $67 $107 reversed $175 $-1 #
edge $-1 $176 -35.261245352881218 $177 35.261245352881218 $106 $178 forward 7 unknown #
face $-1 $179 $180 $25 $-1 $181 reversed single #
loop $-1 $-1 $182 $68 #
plane-surface $-1 -50.973235267189551 0 0 1 0 0 0 0 -1 forward_v I I I I #
coedge $-1 $183 $184 $185 $186 reversed $69 $-1 #
coedge $-1 $187 $71 $188 $189 reversed $44 $-1 #
coedge $-1 $71 $187 $190 $191 forward $44 $-1 #
coedge $-1 $192 $193 $71 $115 forward $194 $-1 #
edge $-1 $195 -21.719466250667626 $196 -5.3640919537595586 $114 $197 forward 7 unknown #
face $-1 $198 $199 $26 $-1 $200 reversed single #
loop $-1 $-1 $122 $72 #
plane-surface $-1 0 0 15.559628484673896 0 0 1 1 0 0 forward_v I I I I #
coedge $-1 $201 $202 $203 $204 reversed $73 $-1 #
coedge $-1 $205 $75 $206 $207 reversed $47 $-1 #
coedge $-1 $75 $205 $201 $208 forward $47 $-1 #
coedge $-1 $203 $209 $75 $123 forward $117 $-1 #
edge $-1 $210 -13.266543666905797 $211 1.9878888887710868 $122 $212 forward 7 unknown #
loop $-1 $-1 $129 $76 #
plane-surface $-1 -50.973235267189537 -11.278654778134708 0.99734956868560687 -0.6560590369687036 0 0.75470957328743171 0.75470957328743171 0 0.6560590369687036 forward_v I I I I #
loop $-1 $-1 $213 $49 #
coedge $-1 $127 $127 $128 $214 reversed $77 $-1 #
coedge $-1 $128 $128 $127 $214 forward $79 $-1 #
coedge $-1 $129 $129 $80 $130 forward $124 $-1 #
edge $-1 $215 0 $215 6.2831853071796004 $129 $216 forward 7 unknown #
loop $-1 $-1 $136 $81 #
plane-surface $-1 -50.973235267189537 -11.278654778134708 0.99734956868560687 -0.6560590369687036 0 0.75470957328743171 0.75470957328743171 0 0.6560590369687036 forward_v I I I I #
loop $-1 $-1 $217 $52 #
coedge $-1 $134 $134 $135 $218 reversed $82 $-1 #
coedge $-1 $135 $135 $134 $218 forward $84 $-1 #
coedge $-1 $136 $136 $85 $137 forward $131 $-1 #
edge $-1 $219 0 $219 6.2831853071796004 $136 $220 forward 7 unknown #
face $-1 $221 $222 $29 $-1 $223 reversed single #
loop $-1 $-1 $224 $86 #
plane-surface $-1 63.538836256450281 15.400739733840311 154.12445674829786 0 1 0 0.7660444514056185 0 0.64278759981090561 forward_v I I I I #
coedge $-1 $225 $226 $227 $228 reversed $87 $-1 #
coedge $-1 $143 $89 $229 $230 reversed $56 $-1 #
coedge $-1 $89 $142 $225 $231 reversed $56 $-1 #
coedge $-1 $227 $232 $89 $145 forward $233 $-1 #
edge $-1 $234 -19.203817138964411 $235 -14.957447056621277 $144 $236 forward 7 unknown #
loop $-1 $-1 $151 $90 #
plane-surface $-1 -14.556691836797214 19.819998809864714 88.594529644311109 0.7660444514056185 0 0.64278759981090561 0.64278759981090561 0 -0.7660444514056185 forward_v I I I I #
loop $-1 $-1 $237 $58 #
coedge $-1 $149 $149 $150 $238 reversed $91 $-1 #
coedge $-1 $150 $150 $149 $238 forward $93 $-1 #
coedge $-1 $151 $151 $94 $152 forward $146 $-1 #
edge $-1 $239 0 $239 6.2831853071796004 $151 $240 forward 7 unknown #
loop $-1 $-1 $158 $95 #
plane-surface $-1 -14.556691836797214 19.819998809864714 88.594529644311109 0.7660444514056185 0 0.64278759981090561 0.64278759981090561 0 -0.7660444514056185 forward_v I I I I #
loop $-1 $-1 $241 $61 #
coedge $-1 $156 $156 $157 $242 reversed $96 $-1 #
coedge $-1 $157 $157 $156 $242 forward $98 $-1 #
coedge $-1 $158 $158 $99 $159 forward $153 $-1 #
edge $-1 $243 0 $243 6.2831853071796004 $158 $244 forward 7 unknown #
face $-1 $245 $246 $24 $-1 $247 reversed single #
loop $-1 $-1 $248 $100 #
plane-surface $-1 -50.973235267189551 0 0 1 0 0 0 0 -1 forward_v I I I I #
coedge $-1 $249 $171 $250 $251 forward $101 $-1 #
coedge $-1 $252 $103 $249 $253 forward $65 $-1 #
coedge $-1 $103 $252 $254 $255 forward $65 $-1 #
coedge $-1 $174 $173 $103 $167 reversed $175 $-1 #
edge $-1 $256 -35.261245352881218 $257 35.261245352881218 $166 $258 forward 7 unknown #
coedge $-1 $105 $104 $259 $260 forward $41 $-1 #
coedge $-1 $261 $262 $104 $170 reversed $246 $-1 #
edge $-1 $177 -50.973235267189551 $263 50.973235267189551 $169 $264 forward 7 unknown #
coedge $-1 $163 $265 $105 $172 reversed $101 $-1 #
edge $-1 $266 -50.973235267189551 $176 50.973235267189551 $171 $267 forward 7 unknown #
coedge $-1 $166 $106 $265 $268 forward $175 $-1 #
coedge $-1 $106 $166 $261 $269 reversed $175 $-1 #
loop $-1 $-1 $173 $245 #
vertex $-1 $107 $270 #
vertex $-1 $107 $271 #
straight-curve $-1 50.973235267189551 0 15.559628484673896 0 1 0 I I #
face $-1 $272 $273 $25 $-1 $274 forward single #
loop $-1 $-1 $188 $108 #
plane-surface $-1 0 -35.261245352881218 0 0 1 0 0 0 1 forward_v I I I I #
coedge $-1 $275 $276 $184 $277 forward $109 $-1 #
coedge $-1 $190 $111 $192 $278 reversed $69 $-1 #
coedge $-1 $111 $190 $182 $277 reversed $69 $-1 #
coedge $-1 $279 $280 $111 $186 forward $273 $-1 #
edge $-1 $281 -50.973235267189551 $282 50.973235267189551 $185 $283 forward 7 unknown #
coedge $-1 $113 $112 $275 $284 reversed $44 $-1 #
coedge $-1 $285 $286 $112 $189 forward $180 $-1 #
edge $-1 $287 -50.973235267189551 $195 50.973235267189551 $188 $288 forward 7 unknown #
coedge $-1 $184 $183 $113 $191 reversed $69 $-1 #
edge $-1 $289 -50.973235267189551 $196 50.973235267189551 $190 $290 forward 7 unknown #
coedge $-1 $291 $114 $183 $278 forward $194 $-1 #
coedge $-1 $114 $291 $285 $292 forward $194 $-1 #
loop $-1 $-1 $192 $272 #
vertex $-1 $189 $293 #
vertex $-1 $115 $294 #
straight-curve $-1 50.973235267189551 -13.541779102213592 6.2255608778792304 0 1 0 I I #
face $-1 $-1 $295 $26 $-1 $296 forward single #
loop $-1 $-1 $297 $116 #
plane-surface $-1 -50.973235267189551 0 0 1 0 0 0 0 -1 forward_v I I I I #
coedge $-1 $202 $119 $121 $208 reversed $73 $-1 #
coedge $-1 $119 $201 $297 $298 reversed $73 $-1 #
coedge $-1 $299 $122 $119 $204 forward $117 $-1 #
edge $-1 $211 -24.706819251411957 $300 -7.9548340069767534 $203 $301 forward 7 unknown #
coedge $-1 $121 $120 $302 $303 reversed $47 $-1 #
coedge $-1 $304 $305 $120 $207 forward $295 $-1 #
edge $-1 $306 -22.480926808358106 $210 -0.28432849112012454 $206 $307 forward 7 unknown #
edge $-1 $308 -1.8809995614912076e-014 $211 22.196598317237967 $201 $309 forward 7 unknown #
coedge $-1 $122 $299 $304 $310 forward $117 $-1 #
vertex $-1 $207 $311 #
vertex $-1 $123 $312 #
straight-curve $-1 -34.221250022754347 -5.6393273890673541 15.559628484673896 0 1 0 I I #
coedge $-1 $213 $213 $-1 $313 reversed $126 $-1 #
edge $-1 $314 0 $314 6.2831853071796004 $127 $315 forward 7 unknown #
vertex $-1 $130 $316 #
ellipse-curve $-1 -42.597242644971949 -14.547461754351183 8.2784890266797433 -0.6560590369687036 0 0.75470957328743171 0.37735478664371586 0 0.3280295184843518 1 I I #
coedge $-1 $217 $217 $-1 $317 reversed $133 $-1 #
edge $-1 $318 0 $318 6.2831853071796004 $134 $319 forward 7 unknown #
vertex $-1 $137 $320 #
ellipse-curve $-1 -42.597242644971949 -8.0098478019182338 8.2784890266797433 -0.6560590369687036 0 0.75470957328743171 0.37735478664371586 0 0.3280295184843518 1 I I #
face $-1 $-1 $233 $29 $-1 $321 forward single #
loop $-1 $-1 $322 $138 #
plane-surface $-1 50.973235267189551 0 0 -1 0 0 0 0 1 forward_v I I I I #
coedge $-1 $323 $324 $325 $326 reversed $139 $-1 #
coedge $-1 $327 $141 $143 $231 forward $87 $-1 #
coedge $-1 $141 $327 $323 $328 forward $87 $-1 #
coedge $-1 $325 $144 $141 $228 forward $233 $-1 #
edge $-1 $235 -14.32925848095676 $329 -5.4907403289079539 $227 $330 forward 7 unknown #
coedge $-1 $331 $332 $142 $230 forward $222 $-1 #
edge $-1 $333 -66.563226823085316 $234 -61.502599889475036 $229 $334 forward 7 unknown #
edge $-1 $235 95.340291318114978 $333 101.94647053437915 $143 $335 forward 7 unknown #
coedge $-1 $144 $325 $331 $336 forward $233 $-1 #
loop $-1 $-1 $325 $221 #
vertex $-1 $230 $337 #
vertex $-1 $145 $338 #
straight-curve $-1 31.769418128225141 24.239257885889117 15.559628484673894 -1 0 0 I I #
coedge $-1 $237 $237 $-1 $339 reversed $148 $-1 #
edge $-1 $340 0 $340 6.2831853071796004 $149 $341 forward 7 unknown #
vertex $-1 $152 $342 #
ellipse-curve $-1 48.850050226017977 17.926030634425686 13.02931501786875 0.7660444514056185 0 0.64278759981090561 0.64278759981090561 0 -0.7660444514056185 1 I I #
coedge $-1 $241 $241 $-1 $343 reversed $155 $-1 #
edge $-1 $344 0 $344 6.2831853071796004 $156 $345 forward 7 unknown #
vertex $-1 $159 $346 #
ellipse-curve $-1 48.850050226017977 21.713966985303749 13.02931501786875 0.7660444514056185 0 0.64278759981090561 0.64278759981090561 0 -0.7660444514056185 1 I I #
face $-1 $-1 $175 $24 $-1 $347 reversed single #
loop $-1 $-1 $261 $160 #
plane-surface $-1 0 35.261245352881218 0 0 -1 0 0 0 -1 forward_v I I I I #
coedge $-1 $348 $259 $262 $349 forward $161 $-1 #
coedge $-1 $265 $163 $164 $253 reversed $101 $-1 #
coedge $-1 $259 $348 $163 $251 reversed $161 $-1 #
edge $-1 $266 -15.559628484673896 $350 15.559628484673896 $250 $351 forward 7 unknown #
coedge $-1 $165 $164 $348 $352 forward $65 $-1 #
edge $-1 $257 -50.973235267189551 $350 50.973235267189551 $249 $353 forward 7 unknown #
coedge $-1 $262 $261 $165 $255 reversed $246 $-1 #
edge $-1 $354 -50.973235267189551 $256 50.973235267189551 $254 $355 forward 7 unknown #
vertex $-1 $167 $356 #
vertex $-1 $268 $357 #
straight-curve $-1 50.973235267189551 0 -15.559628484673896 0 -1 0 I I #
coedge $-1 $248 $250 $168 $260 reversed $161 $-1 #
edge $-1 $263 -35.261245352881218 $266 35.261245352881218 $259 $358 forward 7 unknown #
coedge $-1 $254 $169 $174 $269 forward $246 $-1 #
coedge $-1 $169 $254 $248 $349 reversed $246 $-1 #
vertex $-1 $170 $359 #
straight-curve $-1 0 35.261245352881218 15.559628484673896 -1 0 0 I I #
coedge $-1 $171 $249 $173 $268 reversed $101 $-1 #
vertex $-1 $260 $360 #
straight-curve $-1 0 -35.261245352881218 15.559628484673896 1 0 0 I I #
edge $-1 $176 -15.559628484673896 $257 15.559628484673896 $173 $361 forward 7 unknown #
edge $-1 $177 -15.559628484673896 $256 15.559628484673896 $174 $362 forward 7 unknown #
point $-1 50.973235267189551 -35.261245352881218 15.559628484673896 #
point $-1 50.973235267189551 35.261245352881218 15.559628484673896 #
face $-1 $-1 $194 $25 $-1 $363 reversed single #
loop $-1 $-1 $185 $179 #
plane-surface $-1 0 0 15.559628484673896 0 0 1 1 0 0 forward_v I I I I #
coedge $-1 $364 $182 $187 $284 forward $109 $-1 #
coedge $-1 $182 $364 $279 $365 reversed $109 $-1 #
edge $-1 $282 -10.113331144035616 $289 -0.77926353724094799 $182 $366 forward 7 unknown #
edge $-1 $196 0.77926353724094799 $281 10.113331144035616 $192 $367 forward 7 unknown #
coedge $-1 $368 $185 $276 $365 forward $273 $-1 #
coedge $-1 $185 $368 $291 $369 forward $273 $-1 #
vertex $-1 $278 $370 #
vertex $-1 $365 $371 #
straight-curve $-1 0 -18.905871055973151 15.559628484673896 -1 0 0 I I #
edge $-1 $289 5.3640919537595586 $287 21.719466250667626 $275 $372 forward 7 unknown #
coedge $-1 $373 $188 $193 $292 reversed $180 $-1 #
coedge $-1 $188 $373 $364 $374 forward $180 $-1 #
vertex $-1 $189 $375 #
straight-curve $-1 0 -35.261245352881218 6.2255608778792304 1 0 0 I I #
vertex $-1 $284 $376 #
straight-curve $-1 0 -18.905871055973151 6.2255608778792304 1 0 0 I I #
coedge $-1 $193 $192 $280 $369 reversed $194 $-1 #
edge $-1 $377 -15.559628484673896 $195 -6.2255608778792304 $193 $378 forward 7 unknown #
point $-1 50.973235267189551 -35.261245352881218 6.2255608778792304 #
point $-1 50.973235267189551 -18.905871055973151 6.2255608778792304 #
loop $-1 $-1 $206 $198 #
plane-surface $-1 0 -18.905871055973151 10.892594681276565 0 -1 0 0 0 -1 forward_v I I I I #
coedge $-1 $302 $379 $202 $298 forward $199 $-1 #
edge $-1 $300 23.409034937249402 $308 37.971313853237703 $297 $380 forward 7 unknown #
coedge $-1 $209 $203 $379 $381 forward $117 $-1 #
vertex $-1 $381 $382 #
straight-curve $-1 -58.928069274166305 -3.6514385002962673 15.559628484673894 -1 0 0 I I #
coedge $-1 $383 $297 $205 $303 forward $199 $-1 #
edge $-1 $308 -1.9878888887710868 $306 13.266543666905797 $302 $384 forward 7 unknown #
coedge $-1 $305 $206 $209 $310 reversed $295 $-1 #
coedge $-1 $206 $304 $383 $385 reversed $295 $-1 #
vertex $-1 $385 $386 #
straight-curve $-1 -34.006664588547622 -18.905871055973151 15.746164760740925 0.75470957328743171 0 0.6560590369687036 I I #
vertex $-1 $303 $387 #
straight-curve $-1 -50.973235267189537 -3.6514385002962673 0.99734956868560687 0.75470957328743171 0 0.6560590369687036 I I #
edge $-1 $388 -50.973235267189551 $210 -34.221250022754354 $209 $389 forward 7 unknown #
point $-1 -34.221250022754354 -18.905871055973151 15.559628484673896 #
point $-1 -34.221250022754347 -3.6514385002962673 15.559628484673894 #
edge $-1 $390 1 $390 0 $213 $-1 forward 7 unknown #
vertex $-1 $214 $391 #
ellipse-curve $-1 -41.941183608003257 -14.547461754351183 7.5237794533923212 -0.6560590369687036 0 0.75470957328743171 0.37735478664371586 0 0.3280295184843518 1 I I #
point $-1 -42.219887858328242 -14.547461754351183 8.6065185451641053 #
edge $-1 $392 1 $392 0 $217 $-1 forward 7 unknown #
vertex $-1 $218 $393 #
ellipse-curve $-1 -41.941183608003257 -8.0098478019182338 7.5237794533923212 -0.6560590369687036 0 0.75470957328743171 0.37735478664371586 0 0.3280295184843518 1 I I #
point $-1 -42.219887858328242 -8.0098478019182338 8.6065185451641053 #
plane-surface $-1 0 0 15.559628484673896 0 0 1 1 0 0 forward_v I I I I #
coedge $-1 $332 $331 $324 $394 forward $222 $-1 #
coedge $-1 $324 $224 $226 $328 reversed $139 $-1 #
coedge $-1 $224 $323 $322 $394 reversed $139 $-1 #
coedge $-1 $232 $227 $224 $326 forward $233 $-1 #
edge $-1 $329 14.957447056621277 $395 19.203817138964411 $325 $396 forward 7 unknown #
coedge $-1 $226 $225 $332 $397 reversed $87 $-1 #
edge $-1 $398 -101.94647053437915 $329 -95.340291318114978 $323 $399 forward 7 unknown #
vertex $-1 $228 $400 #
straight-curve $-1 46.726865184846417 9.909999404932357 15.559628484673887 0 -1 0 I I #
coedge $-1 $322 $229 $232 $336 reversed $222 $-1 #
coedge $-1 $229 $322 $327 $397 forward $222 $-1 #
vertex $-1 $230 $401 #
straight-curve $-1 50.973235267189551 24.239257885889117 77.06222837414893 0 0 1 I I #
straight-curve $-1 -14.556691836797214 24.239257885889117 88.594529644311109 0.64278759981090561 0 -0.7660444514056185 I I #
edge $-1 $395 15.400739733840311 $234 24.239257885889117 $331 $402 forward 7 unknown #
point $-1 50.973235267189551 24.239257885889117 15.559628484673896 #
point $-1 46.726865184846417 24.239257885889117 15.559628484673894 #
edge $-1 $403 1 $403 0 $237 $-1 forward 7 unknown #
vertex $-1 $238 $404 #
ellipse-curve $-1 46.692936194011871 17.926030634425686 11.219281476593942 0.7660444514056185 0 0.64278759981090561 0.64278759981090561 0 -0.7660444514056185 1 I I #
point $-1 49.492837825828914 17.926030634425686 12.263270566463159 #
edge $-1 $405 1 $405 0 $241 $-1 forward 7 unknown #
vertex $-1 $242 $406 #
ellipse-curve $-1 46.692936194011871 21.713966985303749 11.219281476593942 0.7660444514056185 0 0.64278759981090561 0.64278759981090561 0 -0.7660444514056185 1 I I #
point $-1 49.492837825828914 21.713966985303749 12.263270566463159 #
plane-surface $-1 50.973235267189551 0 0 -1 0 0 0 0 1 forward_v I I I I #
coedge $-1 $250 $248 $252 $352 reversed $161 $-1 #
edge $-1 $263 -15.559628484673896 $354 15.559628484673896 $262 $407 forward 7 unknown #
vertex $-1 $352 $408 #
straight-curve $-1 -50.973235267189551 -35.261245352881218 0 0 0 -1 I I #
edge $-1 $350 -35.261245352881218 $354 35.261245352881218 $348 $409 forward 7 unknown #
straight-curve $-1 0 -35.261245352881218 -15.559628484673896 -1 0 0 I I #
vertex $-1 $255 $410 #
straight-curve $-1 0 35.261245352881218 -15.559628484673896 1 0 0 I I #
point $-1 50.973235267189551 35.261245352881218 -15.559628484673896 #
point $-1 50.973235267189551 -35.261245352881218 -15.559628484673896 #
straight-curve $-1 -50.973235267189551 0 15.559628484673896 0 -1 0 I I #
point $-1 -50.973235267189551 35.261245352881218 15.559628484673896 #
point $-1 -50.973235267189551 -35.261245352881218 15.559628484673896 #
straight-curve $-1 50.973235267189551 -35.261245352881218 0 0 0 -1 I I #
straight-curve $-1 50.973235267189551 35.261245352881218 0 0 0 -1 I I #
plane-surface $-1 50.973235267189551 0 0 -1 0 0 0 0 1 forward_v I I I I #
coedge $-1 $276 $275 $286 $374 reversed $109 $-1 #
edge $-1 $282 18.905871055973151 $411 35.261245352881218 $276 $412 forward 7 unknown #
straight-curve $-1 -50.973235267189551 -18.905871055973151 5.4462973406382824 0 0 -1 I I #
straight-curve $-1 50.973235267189551 -18.905871055973151 5.4462973406382824 0 0 1 I I #
coedge $-1 $280 $279 $373 $413 forward $273 $-1 #
edge $-1 $377 -35.261245352881218 $281 -18.905871055973151 $291 $414 forward 7 unknown #
point $-1 50.973235267189551 -18.905871055973151 15.559628484673899 #
point $-1 -50.973235267189551 -18.905871055973151 15.559628484673899 #
straight-curve $-1 -50.973235267189551 -13.541779102213592 6.2255608778792304 0 -1 0 I I #
coedge $-1 $286 $285 $368 $413 reversed $180 $-1 #
edge $-1 $411 -15.559628484673896 $287 -6.2255608778792304 $364 $415 forward 7 unknown #
point $-1 -50.973235267189551 -35.261245352881218 6.2255608778792304 #
point $-1 -50.973235267189551 -18.905871055973151 6.2255608778792304 #
vertex $-1 $369 $416 #
straight-curve $-1 50.973235267189551 -35.261245352881218 0 0 0 -1 I I #
coedge $-1 $297 $383 $299 $381 reversed $199 $-1 #
straight-curve $-1 -50.973235267189551 -3.6514385002962673 38.968663421923296 0 0 -1 I I #
edge $-1 $300 3.6514385002962673 $388 18.905871055973151 $379 $417 forward 7 unknown #
point $-1 -50.973235267189551 -3.6514385002962673 15.559628484673896 #
coedge $-1 $379 $302 $305 $385 forward $199 $-1 #
straight-curve $-1 -50.973235267189551 -5.6393273890673541 0.99734956868559599 0 -1 0 I I #
edge $-1 $306 -37.971313853237703 $388 -23.409034937249395 $383 $418 forward 7 unknown #
point $-1 -50.973235267189551 -18.905871055973151 0.99734956868559455 #
point $-1 -50.973235267189551 -3.6514385002962673 0.99734956868559455 #
vertex $-1 $385 $419 #
straight-curve $-1 0 -18.905871055973151 15.559628484673896 1 0 0 I I #
vertex $-1 $313 $420 #
point $-1 -41.563828821359536 -14.547461754351183 7.8518089718766735 #
vertex $-1 $317 $421 #
point $-1 -41.563828821359536 -8.0098478019182338 7.8518089718766735 #
edge $-1 $395 61.502599889475036 $398 66.563226823085316 $322 $422 forward 7 unknown #
vertex $-1 $336 $423 #
straight-curve $-1 31.769418128225141 15.400739733840311 15.559628484673894 1 0 0 I I #
edge $-1 $398 5.4907403289079539 $333 14.32925848095676 $332 $424 forward 7 unknown #
vertex $-1 $397 $425 #
straight-curve $-1 -14.556691836797214 15.400739733840311 88.594529644311109 -0.64278759981090561 0 0.7660444514056185 I I #
point $-1 46.726865184846417 15.400739733840311 15.559628484673894 #
point $-1 50.973235267189551 24.239257885889117 10.499001551063614 #
straight-curve $-1 50.973235267189551 0 15.559628484673896 0 1 0 I I #
vertex $-1 $339 $426 #
point $-1 47.33572379382278 17.926030634425686 10.453237025188324 #
vertex $-1 $343 $427 #
point $-1 47.33572379382278 21.713966985303749 10.453237025188324 #
straight-curve $-1 -50.973235267189551 35.261245352881218 0 0 0 -1 I I #
point $-1 -50.973235267189551 -35.261245352881218 -15.559628484673896 #
straight-curve $-1 -50.973235267189551 0 -15.559628484673896 0 1 0 I I #
point $-1 -50.973235267189551 35.261245352881218 -15.559628484673896 #
vertex $-1 $365 $428 #
straight-curve $-1 -50.973235267189551 0 15.559628484673896 0 -1 0 I I #
edge $-1 $411 -50.973235267189551 $377 50.973235267189551 $373 $429 forward 7 unknown #
straight-curve $-1 50.973235267189551 0 15.559628484673896 0 1 0 I I #
straight-curve $-1 -50.973235267189551 -35.261245352881218 0 0 0 -1 I I #
point $-1 50.973235267189551 -35.261245352881218 15.559628484673896 #
straight-curve $-1 -50.973235267189551 0 15.559628484673896 0 -1 0 I I #
straight-curve $-1 -50.973235267189551 -18.905871055973151 38.968663421923296 0 0 1 I I #
point $-1 -50.973235267189551 -18.905871055973151 15.559628484673899 #
point $-1 -41.6131540895189 -14.547461754351183 7.1464246667486053 #
point $-1 -41.6131540895189 -8.0098478019182338 7.1464246667486053 #
straight-curve $-1 50.973235267189551 15.400739733840311 77.06222837414893 0 0 -1 I I #
point $-1 50.973235267189551 15.400739733840311 15.559628484673896 #
straight-curve $-1 50.973235267189551 9.909999404932357 10.499001551063607 0 1 0 I I #
point $-1 50.973235267189551 15.400739733840311 10.499001551063614 #
point $-1 45.926891742606252 17.926030634425686 10.576493876783037 #
point $-1 45.926891742606252 21.713966985303749 10.576493876783037 #
point $-1 -50.973235267189551 -35.261245352881218 15.559628484673896 #
straight-curve $-1 0 -35.261245352881218 15.559628484673896 1 0 0 I I #
End-of-ACIS-data 