500 0 5 0           
7 Unknown 11 ACIS 5.0 NT 24 Fri Mar 26 14:32:58 1999 
-1 9.9999999999999995e-007 1e-010 
body $-1 $5 $-1 $6 #
body $-1 $7 $-1 $8 #
body $-1 $9 $-1 $10 #
body $-1 $11 $-1 $12 #
body $-1 $13 $-1 $14 #
lump $-1 $-1 $15 $0 #
transform $-1 1 0 0 0 1 0 0 0 1 65.548875392925808 36.264629746331295 13.926250879270647 1 rotate no_reflect no_shear #
lump $-1 $-1 $16 $1 #
transform $-1 1 0 0 0 1 0 0 0 1 65.548875392925808 36.264629746331295 13.926250879270647 1 rotate no_reflect no_shear #
lump $-1 $-1 $17 $2 #
transform $-1 1 0 0 0 1 0 0 0 1 65.548875392925808 36.264629746331295 13.926250879270647 1 rotate no_reflect no_shear #
lump $-1 $-1 $18 $3 #
transform $-1 1 0 0 0 1 0 0 0 1 65.548875392925808 36.264629746331295 13.926250879270647 1 rotate no_reflect no_shear #
lump $-1 $-1 $19 $4 #
transform $-1 1 0 0 0 1 0 0 0 1 65.548875392925808 36.264629746331295 13.926250879270647 1 rotate no_reflect no_shear #
shell $-1 $-1 $-1 $20 $-1 $5 #
shell $-1 $-1 $-1 $21 $-1 $7 #
shell $-1 $-1 $-1 $22 $-1 $9 #
shell $-1 $-1 $-1 $23 $-1 $11 #
shell $-1 $-1 $-1 $24 $-1 $13 #
face $-1 $25 $26 $15 $-1 $27 forward single #
face $-1 $28 $29 $16 $-1 $30 reversed single #
face $-1 $31 $32 $17 $-1 $33 reversed single #
face $-1 $34 $35 $18 $-1 $36 forward single #
face $-1 $37 $38 $19 $-1 $39 forward single #
face $-1 $40 $41 $15 $-1 $42 reversed single #
loop $-1 $-1 $43 $20 #
plane-surface $-1 0 0 13.926250879270647 0 0 1 1 0 0 forward_v I I I I #
face $-1 $44 $45 $16 $-1 $46 reversed single #
loop $-1 $-1 $47 $21 #
plane-surface $-1 -59.326280373210906 -31.622432784329234 0 0 -1 0 0 0 -1 forward_v I I I I #
face $-1 $48 $49 $17 $-1 $50 reversed single #
loop $-1 $-1 $51 $22 #
plane-surface $-1 56.181272560107558 -36.264629746331309 6.0685091632388435 0 -0.6018150307709319 0.79863550430605224 1 0 0 forward_v I I I I #
face $-1 $52 $53 $18 $-1 $54 forward single #
loop $-1 $55 $56 $23 #
cone-surface $-1 52.166585631756874 -29.377635814139357 7.7769602978200103 0 0.6018150307709319 -0.79863550430605224 1.5 0 0 1 I I 0 1 1.5 forward I I I I #
face $-1 $57 $58 $19 $-1 $59 forward single #
loop $-1 $60 $61 $24 #
cone-surface $-1 60.195959488458243 -29.377635814139357 7.7769602978200103 0 0.6018150307709319 -0.79863550430605224 1.5 0 0 1 I I 0 1 1.5 forward I I I I #
face $-1 $62 $63 $15 $-1 $64 reversed single #
loop $-1 $-1 $65 $25 #
plane-surface $-1 0 0 -13.926250879270647 0 0 1 1 0 0 forward_v I I I I #
coedge $-1 $66 $67 $68 $69 forward $26 $-1 #
face $-1 $70 $71 $16 $-1 $72 forward single #
loop $-1 $-1 $73 $28 #
plane-surface $-1 -53.103685353496004 -33.943531265330265 0 -1 0 0 0 0 1 forward_v I I I I #
coedge $-1 $74 $75 $76 $77 forward $29 $-1 #
face $-1 $78 $79 $17 $-1 $80 reversed single #
loop $-1 $-1 $81 $31 #
plane-surface $-1 46.813669727289302 -115.16122666951856 110.7678274754866 1 0 0 0 0.6018150307709319 -0.79863550430605224 forward_v I I I I #
coedge $-1 $82 $83 $84 $85 reversed $32 $-1 #
face $-1 $-1 $86 $18 $-1 $87 forward single #
loop $-1 $88 $89 $34 #
cone-surface $-1 52.166585631756874 -27.253068232327898 4.9575639461557444 0 0.6018150307709319 -0.79863550430605224 0.75 0 0 1 I I -0.70710678118654757 0.70710678118654757 0.75 forward I I I I #
loop $-1 $-1 $90 $23 #
coedge $-1 $56 $56 $91 $92 reversed $35 $-1 #
face $-1 $-1 $93 $19 $-1 $94 forward single #
loop $-1 $95 $96 $37 #
cone-surface $-1 60.195959488458243 -27.253068232327898 4.9575639461557444 0 0.6018150307709319 -0.79863550430605224 0.75 0 0 1 I I -0.70710678118654757 0.70710678118654757 0.75 forward I I I I #
loop $-1 $-1 $97 $24 #
coedge $-1 $61 $61 $98 $99 reversed $38 $-1 #
face $-1 $100 $101 $15 $-1 $102 reversed single #
loop $-1 $-1 $103 $40 #
plane-surface $-1 0 -36.264629746331295 0 0 1 0 0 0 1 forward_v I I I I #
coedge $-1 $104 $105 $106 $107 forward $41 $-1 #
coedge $-1 $108 $43 $109 $110 forward $26 $-1 #
coedge $-1 $43 $108 $111 $112 forward $26 $-1 #
coedge $-1 $113 $114 $43 $69 reversed $115 $-1 #
edge $-1 $116 -36.264629746331295 $117 36.264629746331295 $68 $118 forward 7 unknown #
face $-1 $119 $120 $16 $-1 $121 reversed single #
loop $-1 $-1 $122 $44 #
plane-surface $-1 0 0 13.926250879270647 0 0 1 1 0 0 forward_v I I I I #
coedge $-1 $123 $124 $125 $126 reversed $45 $-1 #
coedge $-1 $127 $47 $128 $129 reversed $29 $-1 #
coedge $-1 $47 $127 $130 $131 reversed $29 $-1 #
coedge $-1 $124 $123 $47 $77 reversed $45 $-1 #
edge $-1 $132 -13.926250879270647 $133 13.926250879270647 $76 $134 forward 7 unknown #
face $-1 $135 $136 $17 $-1 $137 forward single #
loop $-1 $-1 $138 $48 #
plane-surface $-1 65.548875392925808 0 0 -1 0 0 0 0 1 forward_v I I I I #
coedge $-1 $139 $140 $141 $142 reversed $49 $-1 #
coedge $-1 $143 $51 $138 $144 reversed $32 $-1 #
coedge $-1 $51 $143 $139 $145 forward $32 $-1 #
coedge $-1 $141 $146 $51 $85 forward $136 $-1 #
edge $-1 $147 -37.458239112872043 $148 -18.723033447235522 $84 $149 forward 7 unknown #
loop $-1 $-1 $91 $52 #
plane-surface $-1 56.181272560107558 -36.264629746331309 6.0685091632388435 0 -0.6018150307709319 0.79863550430605224 1 0 0 forward_v I I I I #
loop $-1 $-1 $150 $34 #
coedge $-1 $89 $89 $90 $151 reversed $53 $-1 #
coedge $-1 $90 $90 $89 $151 forward $55 $-1 #
coedge $-1 $91 $91 $56 $92 forward $86 $-1 #
edge $-1 $152 4.3927377497148149e-016 $152 6.2831853071796004 $91 $153 forward 7 unknown #
loop $-1 $-1 $98 $57 #
plane-surface $-1 56.181272560107558 -36.264629746331309 6.0685091632388435 0 -0.6018150307709319 0.79863550430605224 1 0 0 forward_v I I I I #
loop $-1 $-1 $154 $37 #
coedge $-1 $96 $96 $97 $155 reversed $58 $-1 #
coedge $-1 $97 $97 $96 $155 forward $60 $-1 #
coedge $-1 $98 $98 $61 $99 forward $93 $-1 #
edge $-1 $156 4.3927377497148149e-016 $156 6.2831853071796004 $98 $157 forward 7 unknown #
face $-1 $158 $159 $15 $-1 $160 reversed single #
loop $-1 $-1 $161 $62 #
plane-surface $-1 -65.548875392925808 0 0 1 0 0 0 0 -1 forward_v I I I I #
coedge $-1 $162 $111 $163 $164 forward $63 $-1 #
coedge $-1 $165 $65 $162 $166 forward $41 $-1 #
coedge $-1 $65 $165 $167 $168 forward $41 $-1 #
coedge $-1 $114 $113 $65 $107 reversed $115 $-1 #
edge $-1 $169 -36.264629746331295 $170 36.264629746331295 $106 $171 forward 7 unknown #
coedge $-1 $67 $66 $172 $173 forward $26 $-1 #
coedge $-1 $174 $175 $66 $110 reversed $159 $-1 #
edge $-1 $117 -65.548875392925808 $176 65.548875392925808 $109 $177 forward 7 unknown #
coedge $-1 $103 $178 $67 $112 reversed $63 $-1 #
edge $-1 $179 -65.548875392925808 $116 65.548875392925808 $111 $180 forward 7 unknown #
coedge $-1 $106 $68 $178 $181 forward $115 $-1 #
coedge $-1 $68 $106 $174 $182 reversed $115 $-1 #
loop $-1 $-1 $113 $158 #
vertex $-1 $69 $183 #
vertex $-1 $69 $184 #
straight-curve $-1 65.548875392925808 0 13.926250879270647 0 1 0 I I #
face $-1 $185 $186 $16 $-1 $187 reversed single #
loop $-1 $-1 $188 $70 #
plane-surface $-1 -65.548875392925808 0 0 1 0 0 0 0 -1 forward_v I I I I #
coedge $-1 $130 $189 $124 $190 forward $71 $-1 #
coedge $-1 $76 $73 $191 $192 reversed $45 $-1 #
coedge $-1 $73 $76 $122 $190 reversed $45 $-1 #
coedge $-1 $193 $194 $73 $126 forward $195 $-1 #
edge $-1 $196 -13.926250879270647 $197 13.926250879270647 $125 $198 forward 7 unknown #
coedge $-1 $75 $74 $188 $199 reversed $29 $-1 #
coedge $-1 $191 $200 $74 $129 forward $186 $-1 #
edge $-1 $201 -35.885735206320355 $133 -23.440545166890551 $128 $202 forward 7 unknown #
coedge $-1 $203 $122 $75 $131 forward $71 $-1 #
edge $-1 $132 23.440545166890551 $204 35.885735206320355 $130 $205 forward 7 unknown #
vertex $-1 $131 $206 #
vertex $-1 $129 $207 #
straight-curve $-1 -53.103685353496004 -31.622432784329234 0 0 0 -1 I I #
face $-1 $-1 $208 $17 $-1 $209 reversed single #
loop $-1 $-1 $84 $78 #
plane-surface $-1 0 0 13.926250879270647 0 0 1 1 0 0 forward_v I I I I #
coedge $-1 $210 $211 $82 $144 forward $79 $-1 #
coedge $-1 $140 $81 $83 $145 reversed $49 $-1 #
coedge $-1 $81 $139 $212 $213 reversed $49 $-1 #
coedge $-1 $214 $84 $81 $142 forward $136 $-1 #
edge $-1 $148 -31.743558835345304 $215 -21.315983588427983 $141 $216 forward 7 unknown #
coedge $-1 $83 $82 $217 $218 reversed $32 $-1 #
edge $-1 $219 -12.655050418562634 $147 0.40168847007219793 $138 $220 forward 7 unknown #
edge $-1 $221 1.7763522597878294e-014 $148 13.05673888863485 $139 $222 forward 7 unknown #
coedge $-1 $84 $214 $210 $223 forward $136 $-1 #
vertex $-1 $144 $224 #
vertex $-1 $85 $225 #
straight-curve $-1 28.090636280053779 -25.837054499413977 13.926250879270647 -1 0 0 I I #
coedge $-1 $150 $150 $-1 $226 reversed $88 $-1 #
edge $-1 $227 0 $227 6.2831853071796004 $89 $228 forward 7 unknown #
vertex $-1 $92 $229 #
ellipse-curve $-1 52.166585631756874 -31.050842122872627 9.9973800212547541 0 -0.6018150307709319 0.79863550430605224 1.5 0 0 1 I I #
coedge $-1 $154 $154 $-1 $230 reversed $95 $-1 #
edge $-1 $231 0 $231 6.2831853071796004 $96 $232 forward 7 unknown #
vertex $-1 $99 $233 #
ellipse-curve $-1 60.195959488458243 -31.050842122872627 9.9973800212547541 0 -0.6018150307709319 0.79863550430605224 1.5 0 0 1 I I #
face $-1 $-1 $115 $15 $-1 $234 reversed single #
loop $-1 $-1 $174 $100 #
plane-surface $-1 0 36.264629746331295 0 0 -1 0 0 0 -1 forward_v I I I I #
coedge $-1 $235 $172 $175 $236 forward $101 $-1 #
coedge $-1 $178 $103 $104 $166 reversed $63 $-1 #
coedge $-1 $172 $235 $103 $164 reversed $101 $-1 #
edge $-1 $179 -13.926250879270647 $237 13.926250879270647 $163 $238 forward 7 unknown #
coedge $-1 $105 $104 $235 $239 forward $41 $-1 #
edge $-1 $170 -65.548875392925808 $237 65.548875392925808 $162 $240 forward 7 unknown #
coedge $-1 $175 $174 $105 $168 reversed $159 $-1 #
edge $-1 $241 -65.548875392925808 $169 65.548875392925808 $167 $242 forward 7 unknown #
vertex $-1 $107 $243 #
vertex $-1 $181 $244 #
straight-curve $-1 65.548875392925808 0 -13.926250879270647 0 -1 0 I I #
coedge $-1 $161 $163 $108 $173 reversed $101 $-1 #
edge $-1 $176 -36.264629746331295 $179 36.264629746331295 $172 $245 forward 7 unknown #
coedge $-1 $167 $109 $114 $182 forward $159 $-1 #
coedge $-1 $109 $167 $161 $236 reversed $159 $-1 #
vertex $-1 $110 $246 #
straight-curve $-1 0 36.264629746331295 13.926250879270647 -1 0 0 I I #
coedge $-1 $111 $162 $113 $181 reversed $63 $-1 #
vertex $-1 $173 $247 #
straight-curve $-1 0 -36.264629746331295 13.926250879270647 1 0 0 I I #
edge $-1 $116 -13.926250879270647 $170 13.926250879270647 $113 $248 forward 7 unknown #
edge $-1 $117 -13.926250879270647 $169 13.926250879270647 $114 $249 forward 7 unknown #
point $-1 65.548875392925808 -36.264629746331295 13.926250879270647 #
point $-1 65.548875392925808 36.264629746331295 13.926250879270647 #
face $-1 $-1 $195 $16 $-1 $250 reversed single #
loop $-1 $-1 $191 $119 #
plane-surface $-1 0 0 -13.926250879270647 0 0 1 1 0 0 forward_v I I I I #
coedge $-1 $251 $252 $127 $199 forward $120 $-1 #
coedge $-1 $122 $203 $193 $253 forward $71 $-1 #
edge $-1 $197 -19.292864113666162 $132 -14.650667151664102 $122 $254 forward 7 unknown #
coedge $-1 $255 $128 $123 $192 forward $186 $-1 #
edge $-1 $133 14.650667151664102 $196 19.292864113666162 $191 $256 forward 7 unknown #
coedge $-1 $257 $125 $189 $253 reversed $195 $-1 #
coedge $-1 $125 $257 $255 $258 reversed $195 $-1 #
loop $-1 $-1 $125 $185 #
vertex $-1 $258 $259 #
vertex $-1 $126 $260 #
straight-curve $-1 -53.103685353496004 -36.264629746331295 0 0 0 1 I I #
edge $-1 $204 -13.926250879270647 $201 13.926250879270647 $188 $261 forward 7 unknown #
coedge $-1 $128 $255 $251 $262 forward $186 $-1 #
vertex $-1 $129 $263 #
straight-curve $-1 -29.663140186605453 -31.622432784329234 -13.926250879270647 1 0 0 I I #
coedge $-1 $189 $130 $252 $264 forward $71 $-1 #
vertex $-1 $264 $265 #
straight-curve $-1 -29.663140186605453 -31.622432784329234 13.926250879270647 -1 0 0 I I #
point $-1 -53.103685353496004 -31.622432784329234 13.926250879270647 #
point $-1 -53.103685353496004 -31.622432784329234 -13.926250879270647 #
loop $-1 $-1 $217 $135 #
plane-surface $-1 0 -36.264629746331295 0 0 1 0 0 0 1 forward_v I I I I #
coedge $-1 $211 $138 $146 $223 reversed $79 $-1 #
coedge $-1 $138 $210 $266 $267 forward $79 $-1 #
coedge $-1 $217 $268 $140 $213 forward $208 $-1 #
edge $-1 $215 41.457662858472652 $221 49.315404574504441 $212 $269 forward 7 unknown #
coedge $-1 $146 $141 $268 $270 forward $136 $-1 #
vertex $-1 $270 $271 #
straight-curve $-1 46.813669727289302 -57.580613334759278 13.926250879270647 0 -1 0 I I #
coedge $-1 $266 $212 $143 $218 forward $208 $-1 #
edge $-1 $221 18.723033447235522 $219 37.458239112872043 $217 $272 forward 7 unknown #
vertex $-1 $144 $273 #
straight-curve $-1 65.548875392925808 -26.157857173284011 13.68450872029382 0 0.79863550430605224 0.6018150307709319 I I #
vertex $-1 $218 $274 #
straight-curve $-1 46.813669727289302 -36.264629746331309 6.0685091632388435 0 0.79863550430605224 0.6018150307709319 I I #
edge $-1 $275 -36.264629746331295 $147 -25.837054499413973 $210 $276 forward 7 unknown #
point $-1 65.548875392925822 -25.837054499413973 13.926250879270647 #
point $-1 46.813669727289302 -25.837054499413973 13.926250879270647 #
edge $-1 $277 1 $277 0 $150 $-1 forward 7 unknown #
vertex $-1 $151 $278 #
ellipse-curve $-1 52.166585631756874 -27.704429505406097 5.5565405743852834 0 -0.6018150307709319 0.79863550430605224 1.5 0 0 1 I I #
point $-1 53.666585631756874 -31.050842122872613 9.9973800212547363 #
edge $-1 $279 1 $279 0 $154 $-1 forward 7 unknown #
vertex $-1 $155 $280 #
ellipse-curve $-1 60.195959488458243 -27.704429505406097 5.5565405743852834 0 -0.6018150307709319 0.79863550430605224 1.5 0 0 1 I I #
point $-1 61.695959488458243 -31.050842122872613 9.9973800212547363 #
plane-surface $-1 65.548875392925808 0 0 -1 0 0 0 0 1 forward_v I I I I #
coedge $-1 $163 $161 $165 $239 reversed $101 $-1 #
edge $-1 $176 -13.926250879270647 $241 13.926250879270647 $175 $281 forward 7 unknown #
vertex $-1 $239 $282 #
straight-curve $-1 -65.548875392925808 -36.264629746331295 0 0 0 -1 I I #
edge $-1 $237 -36.264629746331295 $241 36.264629746331295 $235 $283 forward 7 unknown #
straight-curve $-1 0 -36.264629746331295 -13.926250879270647 -1 0 0 I I #
vertex $-1 $168 $284 #
straight-curve $-1 0 36.264629746331295 -13.926250879270647 1 0 0 I I #
point $-1 65.548875392925808 36.264629746331295 -13.926250879270647 #
point $-1 65.548875392925808 -36.264629746331295 -13.926250879270647 #
straight-curve $-1 -65.548875392925808 0 13.926250879270647 0 -1 0 I I #
point $-1 -65.548875392925808 36.264629746331295 13.926250879270647 #
point $-1 -65.548875392925808 -36.264629746331295 13.926250879270647 #
straight-curve $-1 65.548875392925808 -36.264629746331295 0 0 0 -1 I I #
straight-curve $-1 65.548875392925808 36.264629746331295 0 0 0 -1 I I #
plane-surface $-1 0 -36.264629746331295 0 0 1 0 0 0 1 forward_v I I I I #
coedge $-1 $285 $188 $200 $262 reversed $120 $-1 #
coedge $-1 $188 $285 $203 $264 reversed $120 $-1 #
edge $-1 $286 -65.548875392925808 $197 -53.103685353496004 $193 $287 forward 7 unknown #
straight-curve $-1 -53.103685353496004 -16.971765632665132 13.926250879270647 0 1 0 I I #
coedge $-1 $200 $191 $194 $258 forward $186 $-1 #
straight-curve $-1 -53.103685353496004 -16.971765632665132 -13.926250879270647 0 -1 0 I I #
coedge $-1 $194 $193 $285 $288 forward $195 $-1 #
edge $-1 $196 53.103685353496004 $289 65.548875392925808 $194 $290 forward 7 unknown #
point $-1 -53.103685353496004 -36.264629746331295 -13.926250879270647 #
point $-1 -53.103685353496004 -36.264629746331295 13.926250879270647 #
straight-curve $-1 -65.548875392925808 -31.622432784329234 0 0 0 -1 I I #
edge $-1 $289 -36.264629746331295 $201 -31.622432784329234 $251 $291 forward 7 unknown #
point $-1 -65.548875392925808 -31.622432784329234 -13.926250879270647 #
edge $-1 $204 31.622432784329234 $286 36.264629746331295 $252 $292 forward 7 unknown #
point $-1 -65.548875392925808 -31.622432784329234 13.926250879270647 #
coedge $-1 $268 $217 $211 $267 reversed $208 $-1 #
edge $-1 $275 -13.926250879270647 $219 -6.0685091632388541 $211 $293 forward 7 unknown #
coedge $-1 $212 $266 $214 $270 reversed $208 $-1 #
straight-curve $-1 46.813669727289302 -36.264629746331295 55.383913737743299 0 0 -1 I I #
edge $-1 $215 46.813669727289302 $275 65.548875392925808 $268 $294 forward 7 unknown #
point $-1 46.813669727289302 -36.264629746331295 13.926250879270647 #
straight-curve $-1 28.090636280053779 -36.264629746331295 6.0685091632388541 1 0 0 I I #
point $-1 65.548875392925822 -36.264629746331295 6.0685091632388541 #
point $-1 46.813669727289302 -36.264629746331295 6.0685091632388541 #
vertex $-1 $223 $295 #
straight-curve $-1 65.548875392925808 0 13.926250879270647 0 1 0 I I #
vertex $-1 $226 $296 #
point $-1 53.666585631756874 -27.704429505406097 5.5565405743852834 #
vertex $-1 $230 $297 #
point $-1 61.695959488458243 -27.704429505406097 5.5565405743852834 #
straight-curve $-1 -65.548875392925808 36.264629746331295 0 0 0 -1 I I #
point $-1 -65.548875392925808 -36.264629746331295 -13.926250879270647 #
straight-curve $-1 -65.548875392925808 0 -13.926250879270647 0 1 0 I I #
point $-1 -65.548875392925808 36.264629746331295 -13.926250879270647 #
coedge $-1 $252 $251 $257 $288 reversed $120 $-1 #
vertex $-1 $264 $298 #
straight-curve $-1 0 -36.264629746331295 13.926250879270647 1 0 0 I I #
edge $-1 $286 -13.926250879270647 $289 13.926250879270647 $285 $299 forward 7 unknown #
vertex $-1 $262 $300 #
straight-curve $-1 0 -36.264629746331295 -13.926250879270647 -1 0 0 I I #
straight-curve $-1 -65.548875392925808 0 -13.926250879270647 0 1 0 I I #
straight-curve $-1 -65.548875392925808 0 13.926250879270647 0 -1 0 I I #
straight-curve $-1 65.548875392925808 -36.264629746331295 0 0 0 -1 I I #
straight-curve $-1 0 -36.264629746331295 13.926250879270647 1 0 0 I I #
point $-1 65.548875392925808 -36.264629746331295 13.926250879270647 #
point $-1 52.166585631756874 -26.801706959249699 4.3585873179262054 #
point $-1 60.195959488458243 -26.801706959249699 4.3585873179262054 #
point $-1 -65.548875392925808 -36.264629746331295 13.926250879270647 #
straight-curve $-1 -65.548875392925808 -36.264629746331295 0 0 0 -1 I I #
point $-1 -65.548875392925808 -36.264629746331295 -13.926250879270647 #
End-of-ACIS-data 