500 0 8 0           
7 Unknown 11 ACIS 5.0 NT 24 Fri Mar 26 15:10:21 1999 
-1 9.9999999999999995e-007 1e-010 
body $-1 $8 $-1 $9 #
body $-1 $10 $-1 $11 #
body $-1 $12 $-1 $13 #
body $-1 $14 $-1 $15 #
body $-1 $16 $-1 $17 #
body $-1 $18 $-1 $19 #
body $-1 $20 $-1 $21 #
body $-1 $22 $-1 $23 #
lump $-1 $-1 $24 $0 #
transform $-1 1 0 0 0 1 0 0 0 1 45.387127292703028 18.733704046620705 5.0168272847282953 1 rotate no_reflect no_shear #
lump $-1 $-1 $25 $1 #
transform $-1 1 0 0 0 1 0 0 0 1 45.387127292703028 18.733704046620705 5.0168272847282953 1 rotate no_reflect no_shear #
lump $-1 $-1 $26 $2 #
transform $-1 1 0 0 0 1 0 0 0 1 45.387127292703028 18.733704046620705 5.0168272847282953 1 rotate no_reflect no_shear #
lump $-1 $-1 $27 $3 #
transform $-1 1 0 0 0 1 0 0 0 1 45.387127292703028 18.733704046620705 5.0168272847282953 1 rotate no_reflect no_shear #
lump $-1 $-1 $28 $4 #
transform $-1 1 0 0 0 1 0 0 0 1 45.387127292703028 18.733704046620705 5.0168272847282953 1 rotate no_reflect no_shear #
lump $-1 $-1 $29 $5 #
transform $-1 1 0 0 0 1 0 0 0 1 45.387127292703028 18.733704046620705 5.0168272847282953 1 rotate no_reflect no_shear #
lump $-1 $-1 $30 $6 #
transform $-1 1 0 0 0 1 0 0 0 1 45.387127292703028 18.733704046620705 5.0168272847282953 1 rotate no_reflect no_shear #
lump $-1 $-1 $31 $7 #
transform $-1 1 0 0 0 1 0 0 0 1 45.387127292703028 18.733704046620705 5.0168272847282953 1 rotate no_reflect no_shear #
shell $-1 $-1 $-1 $32 $-1 $8 #
shell $-1 $-1 $-1 $33 $-1 $10 #
shell $-1 $-1 $-1 $34 $-1 $12 #
shell $-1 $-1 $-1 $35 $-1 $14 #
shell $-1 $-1 $-1 $36 $-1 $16 #
shell $-1 $-1 $-1 $37 $-1 $18 #
shell $-1 $-1 $-1 $38 $-1 $20 #
shell $-1 $-1 $-1 $39 $-1 $22 #
face $-1 $40 $41 $24 $-1 $42 forward single #
face $-1 $43 $44 $25 $-1 $45 forward single #
face $-1 $46 $47 $26 $-1 $48 reversed single #
face $-1 $49 $50 $27 $-1 $51 forward single #
face $-1 $52 $53 $28 $-1 $54 forward single #
face $-1 $55 $56 $29 $-1 $57 forward single #
face $-1 $58 $59 $30 $-1 $60 reversed single #
face $-1 $61 $62 $31 $-1 $63 forward single #
face $-1 $64 $65 $24 $-1 $66 reversed single #
loop $-1 $-1 $67 $32 #
plane-surface $-1 0 0 5.0168272847282953 0 0 1 1 0 0 forward_v I I I I #
face $-1 $68 $69 $25 $-1 $70 forward single #
loop $-1 $-1 $71 $33 #
plane-surface $-1 0 -18.733704046620705 0 0 1 0 0 0 1 forward_v I I I I #
face $-1 $72 $73 $26 $-1 $74 reversed single #
loop $-1 $-1 $75 $34 #
plane-surface $-1 -112.84554562613467 -8.1963210196738423 62.732284439575537 0 1 0 -0.74314483375859142 0 0.66913059716165679 forward_v I I I I #
face $-1 $76 $77 $27 $-1 $78 forward single #
loop $-1 $79 $80 $35 #
cone-surface $-1 -43.65397560891671 -6.7555741729594292 3.1700749747525823 0.74314483375859142 0 -0.66913059716165679 0.3345652985808284 0 0.37157241687929571 1 I I 0 1 0.5 forward I I I I #
face $-1 $81 $82 $28 $-1 $83 forward single #
loop $-1 $84 $85 $36 #
cone-surface $-1 -43.65397560891671 -4.5944539028878104 3.1700749747525823 0.74314483375859142 0 -0.66913059716165679 0.3345652985808284 0 0.37157241687929571 1 I I 0 1 0.5 forward I I I I #
face $-1 $86 $87 $29 $-1 $88 forward single #
loop $-1 $89 $90 $37 #
cone-surface $-1 -43.65397560891671 -2.4333336328161899 3.1700749747525823 0.74314483375859142 0 -0.66913059716165679 0.3345652985808284 0 0.37157241687929571 1 I I 0 1 0.5 forward I I I I #
face $-1 $91 $92 $30 $-1 $93 reversed single #
loop $-1 $-1 $94 $38 #
plane-surface $-1 47.627567214466055 -2.9111467448932622 129.89850267441832 0 -1 0 -0.71933980857756763 0 -0.69465836192734942 forward_v I I I I #
face $-1 $95 $96 $31 $-1 $97 forward single #
loop $-1 $98 $99 $39 #
cone-surface $-1 43.102407584607384 -7.4025674360854516 2.693382045335039 -0.71933980857756763 0 -0.69465836192734942 0.34732918096367471 0 -0.35966990428878381 1 I I 0 1 0.5 forward I I I I #
face $-1 $100 $101 $24 $-1 $102 reversed single #
loop $-1 $-1 $103 $40 #
plane-surface $-1 0 0 -5.0168272847282953 0 0 1 1 0 0 forward_v I I I I #
coedge $-1 $104 $105 $106 $107 forward $41 $-1 #
face $-1 $108 $109 $25 $-1 $110 reversed single #
loop $-1 $-1 $111 $43 #
plane-surface $-1 0 0 5.0168272847282953 0 0 1 1 0 0 forward_v I I I I #
coedge $-1 $112 $113 $114 $115 forward $44 $-1 #
face $-1 $116 $117 $26 $-1 $118 reversed single #
loop $-1 $-1 $119 $46 #
plane-surface $-1 -45.387127292703028 -4.5944539028878104 1.9924532619385218 -0.74314483375859142 0 0.66913059716165679 0.66913059716165679 0 0.74314483375859142 forward_v I I I I #
coedge $-1 $120 $121 $122 $123 reversed $47 $-1 #
face $-1 $-1 $124 $27 $-1 $125 forward single #
loop $-1 $126 $127 $49 #
cone-surface $-1 -43.096616983597769 -6.7555741729594292 2.6682270268813397 0.74314483375859142 0 -0.66913059716165679 0.1672826492904142 0 0.18578620843964785 1 I I -0.70710678118654746 0.70710678118654746 0.25 forward I I I I #
loop $-1 $-1 $128 $35 #
coedge $-1 $80 $80 $129 $130 reversed $50 $-1 #
face $-1 $-1 $131 $28 $-1 $132 forward single #
loop $-1 $133 $134 $52 #
cone-surface $-1 -43.096616983597769 -4.5944539028878104 2.6682270268813397 0.74314483375859142 0 -0.66913059716165679 0.1672826492904142 0 0.18578620843964785 1 I I -0.70710678118654746 0.70710678118654746 0.25 forward I I I I #
loop $-1 $-1 $135 $36 #
coedge $-1 $85 $85 $136 $137 reversed $53 $-1 #
face $-1 $-1 $138 $29 $-1 $139 forward single #
loop $-1 $140 $141 $55 #
cone-surface $-1 -43.096616983597769 -2.4333336328161899 2.6682270268813397 0.74314483375859142 0 -0.66913059716165679 0.1672826492904142 0 0.18578620843964785 1 I I -0.70710678118654746 0.70710678118654746 0.25 forward I I I I #
loop $-1 $-1 $142 $37 #
coedge $-1 $90 $90 $143 $144 reversed $56 $-1 #
face $-1 $145 $146 $30 $-1 $147 reversed single #
loop $-1 $-1 $148 $58 #
plane-surface $-1 -17.669967702771331 -7.4025674360854516 66.841407678943966 0.71933980857756763 0 0.69465836192734942 0.69465836192734942 0 -0.71933980857756763 forward_v I I I I #
coedge $-1 $149 $150 $151 $152 reversed $59 $-1 #
face $-1 $-1 $153 $31 $-1 $154 forward single #
loop $-1 $155 $156 $61 #
cone-surface $-1 42.314749483714579 -7.4025674360854516 1.9327494769707894 -0.71933980857756763 0 -0.69465836192734942 0.17366459048183736 0 -0.17983495214439191 1 I I -0.70710678118654746 0.70710678118654746 0.25 forward I I I I #
loop $-1 $-1 $157 $39 #
coedge $-1 $99 $99 $158 $159 reversed $62 $-1 #
face $-1 $160 $161 $24 $-1 $162 reversed single #
loop $-1 $-1 $163 $64 #
plane-surface $-1 0 -18.733704046620705 0 0 1 0 0 0 1 forward_v I I I I #
coedge $-1 $164 $165 $166 $167 forward $65 $-1 #
coedge $-1 $168 $67 $169 $170 forward $41 $-1 #
coedge $-1 $67 $168 $171 $172 forward $41 $-1 #
coedge $-1 $173 $174 $67 $107 reversed $175 $-1 #
edge $-1 $176 -18.733704046620705 $177 18.733704046620705 $106 $178 forward 7 unknown #
face $-1 $179 $180 $25 $-1 $181 reversed single #
loop $-1 $-1 $182 $68 #
plane-surface $-1 -45.387127292703028 0 0 1 0 0 0 0 -1 forward_v I I I I #
coedge $-1 $183 $184 $113 $185 forward $69 $-1 #
coedge $-1 $186 $71 $187 $188 reversed $44 $-1 #
coedge $-1 $71 $186 $111 $185 reversed $44 $-1 #
coedge $-1 $189 $190 $71 $115 reversed $191 $-1 #
edge $-1 $192 -5.0168272847282953 $193 5.0168272847282953 $114 $194 forward 7 unknown #
face $-1 $195 $196 $26 $-1 $197 reversed single #
loop $-1 $-1 $198 $72 #
plane-surface $-1 -112.84554562613467 -0.99258678610177853 62.732284439575537 0 -1 0 0.74314483375859142 0 -0.66913059716165679 forward_v I I I I #
coedge $-1 $199 $200 $201 $202 reversed $73 $-1 #
coedge $-1 $121 $75 $203 $204 reversed $47 $-1 #
coedge $-1 $75 $120 $199 $205 reversed $47 $-1 #
coedge $-1 $201 $206 $75 $123 forward $207 $-1 #
edge $-1 $208 11.035645520364305 $209 13.758804054178341 $122 $210 forward 7 unknown #
loop $-1 $-1 $129 $76 #
plane-surface $-1 -45.387127292703028 -4.5944539028878104 1.9924532619385218 -0.74314483375859142 0 0.66913059716165679 0.66913059716165679 0 0.74314483375859142 forward_v I I I I #
loop $-1 $-1 $211 $49 #
coedge $-1 $127 $127 $128 $212 reversed $77 $-1 #
coedge $-1 $128 $128 $127 $212 forward $79 $-1 #
coedge $-1 $129 $129 $80 $130 forward $124 $-1 #
edge $-1 $213 0 $213 6.2831853071796004 $129 $214 forward 7 unknown #
loop $-1 $-1 $136 $81 #
plane-surface $-1 -45.387127292703028 -4.5944539028878104 1.9924532619385218 -0.74314483375859142 0 0.66913059716165679 0.66913059716165679 0 0.74314483375859142 forward_v I I I I #
loop $-1 $-1 $215 $52 #
coedge $-1 $134 $134 $135 $216 reversed $82 $-1 #
coedge $-1 $135 $135 $134 $216 forward $84 $-1 #
coedge $-1 $136 $136 $85 $137 forward $131 $-1 #
edge $-1 $217 0 $217 6.2831853071796004 $136 $218 forward 7 unknown #
loop $-1 $-1 $143 $86 #
plane-surface $-1 -45.387127292703028 -4.5944539028878104 1.9924532619385218 -0.74314483375859142 0 0.66913059716165679 0.66913059716165679 0 0.74314483375859142 forward_v I I I I #
loop $-1 $-1 $219 $55 #
coedge $-1 $141 $141 $142 $220 reversed $87 $-1 #
coedge $-1 $142 $142 $141 $220 forward $89 $-1 #
coedge $-1 $143 $143 $90 $144 forward $138 $-1 #
edge $-1 $221 0 $221 6.2831853071796004 $143 $222 forward 7 unknown #
face $-1 $223 $224 $30 $-1 $225 forward single #
loop $-1 $-1 $226 $91 #
plane-surface $-1 47.627567214466055 -11.893988127277641 129.89850267441832 0 1 0 0.71933980857756763 0 0.69465836192734942 forward_v I I I I #
coedge $-1 $227 $228 $229 $230 reversed $92 $-1 #
coedge $-1 $150 $94 $231 $232 reversed $59 $-1 #
coedge $-1 $94 $149 $227 $233 reversed $59 $-1 #
coedge $-1 $229 $234 $94 $152 forward $224 $-1 #
edge $-1 $235 -21.57334368547 $236 -18.219550566775538 $151 $237 forward 7 unknown #
loop $-1 $-1 $158 $95 #
plane-surface $-1 -17.669967702771331 -7.4025674360854516 66.841407678943966 0.71933980857756763 0 0.69465836192734942 0.69465836192734942 0 -0.71933980857756763 forward_v I I I I #
loop $-1 $-1 $238 $61 #
coedge $-1 $156 $156 $157 $239 reversed $96 $-1 #
coedge $-1 $157 $157 $156 $239 forward $98 $-1 #
coedge $-1 $158 $158 $99 $159 forward $153 $-1 #
edge $-1 $240 0 $240 6.2831853071796004 $158 $241 forward 7 unknown #
face $-1 $242 $243 $24 $-1 $244 reversed single #
loop $-1 $-1 $245 $100 #
plane-surface $-1 -45.387127292703028 0 0 1 0 0 0 0 -1 forward_v I I I I #
coedge $-1 $246 $171 $247 $248 forward $101 $-1 #
coedge $-1 $249 $103 $246 $250 forward $65 $-1 #
coedge $-1 $103 $249 $251 $252 forward $65 $-1 #
coedge $-1 $174 $173 $103 $167 reversed $175 $-1 #
edge $-1 $253 -18.733704046620705 $254 18.733704046620705 $166 $255 forward 7 unknown #
coedge $-1 $105 $104 $256 $257 forward $41 $-1 #
coedge $-1 $258 $259 $104 $170 reversed $243 $-1 #
edge $-1 $177 -45.387127292703028 $260 45.387127292703028 $169 $261 forward 7 unknown #
coedge $-1 $163 $262 $105 $172 reversed $101 $-1 #
edge $-1 $263 -45.387127292703028 $176 45.387127292703028 $171 $264 forward 7 unknown #
coedge $-1 $166 $106 $262 $265 forward $175 $-1 #
coedge $-1 $106 $166 $258 $266 reversed $175 $-1 #
loop $-1 $-1 $173 $242 #
vertex $-1 $107 $267 #
vertex $-1 $107 $268 #
straight-curve $-1 45.387127292703028 0 5.0168272847282953 0 1 0 I I #
face $-1 $269 $191 $25 $-1 $270 reversed single #
loop $-1 $-1 $271 $108 #
plane-surface $-1 -43.887127292703028 -22.772875449208836 0 0 1 0 0 0 1 forward_v I I I I #
coedge $-1 $272 $273 $186 $274 forward $109 $-1 #
coedge $-1 $275 $111 $273 $276 forward $69 $-1 #
coedge $-1 $111 $275 $189 $277 forward $69 $-1 #
edge $-1 $192 42.387127292703028 $278 45.387127292703028 $111 $279 forward 7 unknown #
coedge $-1 $113 $112 $182 $274 reversed $44 $-1 #
coedge $-1 $280 $281 $112 $188 forward $282 $-1 #
edge $-1 $283 -45.387127292703028 $193 -42.387127292703028 $187 $284 forward 7 unknown #
coedge $-1 $285 $114 $184 $277 reversed $191 $-1 #
coedge $-1 $114 $285 $280 $286 reversed $191 $-1 #
loop $-1 $-1 $285 $179 #
vertex $-1 $185 $287 #
vertex $-1 $286 $288 #
straight-curve $-1 -42.387127292703028 -18.733704046620705 0 0 0 -1 I I #
face $-1 $-1 $207 $26 $-1 $289 forward single #
loop $-1 $-1 $290 $116 #
plane-surface $-1 -45.387127292703028 0 0 1 0 0 0 0 -1 forward_v I I I I #
coedge $-1 $291 $292 $293 $294 reversed $117 $-1 #
coedge $-1 $295 $119 $121 $205 forward $73 $-1 #
coedge $-1 $119 $295 $291 $296 forward $73 $-1 #
coedge $-1 $293 $122 $119 $202 forward $207 $-1 #
edge $-1 $209 -5.8990940682299371 $297 1.3046401653421267 $201 $298 forward 7 unknown #
coedge $-1 $299 $300 $120 $204 forward $196 $-1 #
edge $-1 $301 -29.373688957849247 $208 -26.349314935059475 $203 $302 forward 7 unknown #
edge $-1 $209 -4.0696966262867562 $301 0 $121 $303 forward 7 unknown #
coedge $-1 $122 $293 $299 $304 forward $207 $-1 #
loop $-1 $-1 $293 $195 #
vertex $-1 $204 $305 #
vertex $-1 $123 $306 #
straight-curve $-1 -56.422772813067333 -8.1963210196738423 5.0168272847282935 1 0 0 I I #
coedge $-1 $211 $211 $-1 $307 reversed $126 $-1 #
edge $-1 $308 0 $308 6.2831853071796004 $127 $309 forward 7 unknown #
vertex $-1 $130 $310 #
ellipse-curve $-1 -44.025548025796006 -6.7555741729594292 3.5046402733334108 -0.74314483375859142 0 0.66913059716165679 0.3345652985808284 0 0.37157241687929571 1 I I #
coedge $-1 $215 $215 $-1 $311 reversed $133 $-1 #
edge $-1 $312 0 $312 6.2831853071796004 $134 $313 forward 7 unknown #
vertex $-1 $137 $314 #
ellipse-curve $-1 -44.025548025796006 -4.5944539028878104 3.5046402733334108 -0.74314483375859142 0 0.66913059716165679 0.3345652985808284 0 0.37157241687929571 1 I I #
coedge $-1 $219 $219 $-1 $315 reversed $140 $-1 #
edge $-1 $316 0 $316 6.2831853071796004 $141 $317 forward 7 unknown #
vertex $-1 $144 $318 #
ellipse-curve $-1 -44.025548025796006 -2.4333336328161899 3.5046402733334108 -0.74314483375859142 0 0.66913059716165679 0.3345652985808284 0 0.37157241687929571 1 I I #
face $-1 $-1 $319 $30 $-1 $320 reversed single #
loop $-1 $-1 $151 $145 #
plane-surface $-1 0 0 5.0168272847282953 0 0 1 1 0 0 forward_v I I I I #
coedge $-1 $321 $322 $323 $324 reversed $146 $-1 #
coedge $-1 $325 $148 $150 $233 forward $92 $-1 #
coedge $-1 $148 $325 $321 $326 forward $92 $-1 #
coedge $-1 $323 $151 $148 $230 forward $224 $-1 #
edge $-1 $236 -0.79013697314946363 $327 8.1927044092349153 $229 $328 forward 7 unknown #
coedge $-1 $329 $330 $149 $232 forward $319 $-1 #
edge $-1 $331 -63.405378575502581 $235 -59.932424052480869 $231 $332 forward 7 unknown #
edge $-1 $236 85.946279709541528 $331 90.774254585406055 $150 $333 forward 7 unknown #
coedge $-1 $151 $323 $329 $334 forward $224 $-1 #
vertex $-1 $152 $335 #
vertex $-1 $152 $336 #
straight-curve $-1 23.813783607233027 -2.9111467448932622 5.0168272847282935 -1 0 0 I I #
coedge $-1 $238 $238 $-1 $337 reversed $155 $-1 #
edge $-1 $338 0 $338 6.2831853071796004 $156 $339 forward 7 unknown #
vertex $-1 $159 $340 #
ellipse-curve $-1 43.710230733355793 -7.4025674360854516 3.2803500232174443 0.71933980857756763 0 0.69465836192734942 0.34732918096367471 0 -0.35966990428878381 1 I I #
face $-1 $-1 $175 $24 $-1 $341 reversed single #
loop $-1 $-1 $258 $160 #
plane-surface $-1 0 18.733704046620705 0 0 -1 0 0 0 -1 forward_v I I I I #
coedge $-1 $342 $256 $259 $343 forward $161 $-1 #
coedge $-1 $262 $163 $164 $250 reversed $101 $-1 #
coedge $-1 $256 $342 $163 $248 reversed $161 $-1 #
edge $-1 $263 -5.0168272847282953 $344 5.0168272847282953 $247 $345 forward 7 unknown #
coedge $-1 $165 $164 $342 $346 forward $65 $-1 #
edge $-1 $254 -45.387127292703028 $344 45.387127292703028 $246 $347 forward 7 unknown #
coedge $-1 $259 $258 $165 $252 reversed $243 $-1 #
edge $-1 $348 -45.387127292703028 $253 45.387127292703028 $251 $349 forward 7 unknown #
vertex $-1 $167 $350 #
vertex $-1 $265 $351 #
straight-curve $-1 45.387127292703028 0 -5.0168272847282953 0 -1 0 I I #
coedge $-1 $245 $247 $168 $257 reversed $161 $-1 #
edge $-1 $260 -18.733704046620705 $263 18.733704046620705 $256 $352 forward 7 unknown #
coedge $-1 $251 $169 $174 $266 forward $243 $-1 #
coedge $-1 $169 $251 $245 $343 reversed $243 $-1 #
vertex $-1 $170 $353 #
straight-curve $-1 0 18.733704046620705 5.0168272847282953 -1 0 0 I I #
coedge $-1 $171 $246 $173 $265 reversed $101 $-1 #
vertex $-1 $257 $354 #
straight-curve $-1 0 -18.733704046620705 5.0168272847282953 1 0 0 I I #
edge $-1 $176 -5.0168272847282953 $254 5.0168272847282953 $173 $355 forward 7 unknown #
edge $-1 $177 -5.0168272847282953 $253 5.0168272847282953 $174 $356 forward 7 unknown #
point $-1 45.387127292703028 -18.733704046620705 5.0168272847282953 #
point $-1 45.387127292703028 18.733704046620705 5.0168272847282953 #
face $-1 $-1 $282 $25 $-1 $357 reversed single #
plane-surface $-1 -42.387127292703028 -20.753289747914771 0 -1 0 0 0 0 1 forward_v I I I I #
coedge $-1 $358 $359 $360 $361 forward $180 $-1 #
coedge $-1 $360 $182 $281 $362 reversed $109 $-1 #
coedge $-1 $182 $360 $183 $276 reversed $109 $-1 #
edge $-1 $278 -5.0168272847282953 $283 5.0168272847282953 $182 $363 forward 7 unknown #
coedge $-1 $184 $183 $359 $364 forward $69 $-1 #
edge $-1 $278 18.733704046620705 $365 22.772875449208836 $273 $366 forward 7 unknown #
edge $-1 $367 -2.0195857012940657 $192 2.0195857012940657 $189 $368 forward 7 unknown #
vertex $-1 $276 $369 #
straight-curve $-1 0 -18.733704046620705 5.0168272847282953 -1 0 0 I I #
coedge $-1 $370 $187 $190 $286 forward $282 $-1 #
coedge $-1 $187 $370 $272 $362 forward $282 $-1 #
loop $-1 $-1 $187 $269 #
vertex $-1 $274 $371 #
straight-curve $-1 0 -18.733704046620705 -5.0168272847282953 1 0 0 I I #
coedge $-1 $190 $189 $372 $373 forward $191 $-1 #
edge $-1 $193 -2.0195857012940657 $374 2.0195857012940657 $190 $375 forward 7 unknown #
point $-1 -42.387127292703028 -18.733704046620705 5.0168272847282953 #
point $-1 -42.387127292703028 -18.733704046620705 -5.0168272847282953 #
plane-surface $-1 0 0 5.0168272847282953 0 0 1 1 0 0 forward_v I I I I #
coedge $-1 $300 $299 $292 $376 forward $196 $-1 #
coedge $-1 $292 $198 $200 $296 reversed $117 $-1 #
coedge $-1 $198 $291 $290 $376 reversed $117 $-1 #
coedge $-1 $206 $201 $198 $294 forward $207 $-1 #
edge $-1 $297 -13.758804054178341 $377 -11.035645520364305 $293 $378 forward 7 unknown #
coedge $-1 $200 $199 $300 $379 reversed $73 $-1 #
edge $-1 $380 0 $297 4.0696966262867562 $291 $381 forward 7 unknown #
vertex $-1 $202 $382 #
straight-curve $-1 -42.663968758888984 -2.2972269514439052 5.0168272847282953 0 1 0 I I #
coedge $-1 $290 $203 $206 $304 reversed $196 $-1 #
coedge $-1 $203 $290 $295 $379 forward $196 $-1 #
vertex $-1 $204 $383 #
straight-curve $-1 -45.387127292703028 -8.1963210196738423 31.366142219787768 0 0 1 I I #
straight-curve $-1 -45.387127292703028 -8.1963210196738423 1.9924532619385218 -0.66913059716165679 0 -0.74314483375859142 I I #
edge $-1 $377 0.99258678610177853 $208 8.1963210196738423 $299 $384 forward 7 unknown #
point $-1 -45.387127292703028 -8.1963210196738423 5.0168272847282953 #
point $-1 -42.663968758888991 -8.1963210196738423 5.0168272847282953 #
edge $-1 $385 1 $385 0 $211 $-1 forward 7 unknown #
vertex $-1 $212 $386 #
ellipse-curve $-1 -43.282403192037414 -6.7555741729594292 2.8355096761717538 -0.74314483375859142 0 0.66913059716165679 0.3345652985808284 0 0.37157241687929571 1 I I #
point $-1 -43.690982727215179 -6.7555741729594292 3.8762126902127063 #
edge $-1 $387 1 $387 0 $215 $-1 forward 7 unknown #
vertex $-1 $216 $388 #
ellipse-curve $-1 -43.282403192037414 -4.5944539028878104 2.8355096761717538 -0.74314483375859142 0 0.66913059716165679 0.3345652985808284 0 0.37157241687929571 1 I I #
point $-1 -43.690982727215179 -4.5944539028878104 3.8762126902127063 #
edge $-1 $389 1 $389 0 $219 $-1 forward 7 unknown #
vertex $-1 $220 $390 #
ellipse-curve $-1 -43.282403192037414 -2.4333336328161899 2.8355096761717538 -0.74314483375859142 0 0.66913059716165679 0.3345652985808284 0 0.37157241687929571 1 I I #
point $-1 -43.690982727215179 -2.4333336328161899 3.8762126902127063 #
loop $-1 $-1 $231 $223 #
plane-surface $-1 45.387127292703028 0 0 -1 0 0 0 0 1 forward_v I I I I #
coedge $-1 $322 $226 $228 $326 reversed $146 $-1 #
coedge $-1 $226 $321 $391 $392 reversed $146 $-1 #
coedge $-1 $234 $229 $226 $324 forward $224 $-1 #
edge $-1 $327 18.219550566775538 $393 21.57334368547 $323 $394 forward 7 unknown #
coedge $-1 $228 $227 $330 $395 reversed $92 $-1 #
edge $-1 $396 -90.774254585406055 $327 -85.946279709541528 $321 $397 forward 7 unknown #
vertex $-1 $230 $398 #
straight-curve $-1 42.033334174008566 -3.7012837180427258 5.0168272847282935 0 -1 0 I I #
coedge $-1 $391 $231 $234 $334 reversed $319 $-1 #
coedge $-1 $231 $391 $325 $395 forward $319 $-1 #
vertex $-1 $232 $399 #
straight-curve $-1 45.387127292703028 -2.9111467448932622 64.949251337209162 0 0 1 I I #
straight-curve $-1 -17.669967702771331 -2.9111467448932622 66.841407678943966 0.69465836192734942 0 -0.71933980857756763 I I #
edge $-1 $393 -11.893988127277641 $235 -2.9111467448932622 $329 $400 forward 7 unknown #
point $-1 45.387127292703028 -2.9111467448932622 5.0168272847282953 #
point $-1 42.033334174008566 -2.9111467448932622 5.0168272847282864 #
edge $-1 $401 1 $401 0 $238 $-1 forward 7 unknown #
vertex $-1 $239 $402 #
ellipse-curve $-1 42.494584435858968 -7.4025674360854516 2.1064140674526266 0.71933980857756763 0 0.69465836192734942 0.34732918096367471 0 -0.35966990428878381 1 I I #
point $-1 44.057559914319469 -7.4025674360854516 2.9206801189286677 #
plane-surface $-1 45.387127292703028 0 0 -1 0 0 0 0 1 forward_v I I I I #
coedge $-1 $247 $245 $249 $346 reversed $161 $-1 #
edge $-1 $260 -5.0168272847282953 $348 5.0168272847282953 $259 $403 forward 7 unknown #
vertex $-1 $346 $404 #
straight-curve $-1 -45.387127292703028 -18.733704046620705 0 0 0 -1 I I #
edge $-1 $344 -18.733704046620705 $348 18.733704046620705 $342 $405 forward 7 unknown #
straight-curve $-1 0 -18.733704046620705 -5.0168272847282953 -1 0 0 I I #
vertex $-1 $252 $406 #
straight-curve $-1 0 18.733704046620705 -5.0168272847282953 1 0 0 I I #
point $-1 45.387127292703028 18.733704046620705 -5.0168272847282953 #
point $-1 45.387127292703028 -18.733704046620705 -5.0168272847282953 #
straight-curve $-1 -45.387127292703028 0 5.0168272847282953 0 -1 0 I I #
point $-1 -45.387127292703028 18.733704046620705 5.0168272847282953 #
point $-1 -45.387127292703028 -18.733704046620705 5.0168272847282953 #
straight-curve $-1 45.387127292703028 -18.733704046620705 0 0 0 -1 I I #
straight-curve $-1 45.387127292703028 18.733704046620705 0 0 0 -1 I I #
plane-surface $-1 0 0 -5.0168272847282953 0 0 1 1 0 0 forward_v I I I I #
coedge $-1 $372 $271 $370 $407 reversed $180 $-1 #
coedge $-1 $271 $372 $275 $364 reversed $180 $-1 #
coedge $-1 $273 $272 $271 $361 reversed $109 $-1 #
edge $-1 $365 -5.0168272847282953 $408 5.0168272847282953 $360 $409 forward 7 unknown #
edge $-1 $408 -22.772875449208836 $283 -18.733704046620705 $272 $410 forward 7 unknown #
straight-curve $-1 -45.387127292703028 -18.733704046620705 0 0 0 -1 I I #
edge $-1 $365 -1.5 $367 1.5 $359 $411 forward 7 unknown #
vertex $-1 $276 $412 #
straight-curve $-1 -45.387127292703028 0 5.0168272847282953 0 -1 0 I I #
vertex $-1 $277 $413 #
straight-curve $-1 -42.387127292703028 -20.753289747914771 5.0168272847282953 0 1 0 I I #
point $-1 -45.387127292703028 -18.733704046620705 5.0168272847282953 #
coedge $-1 $281 $280 $358 $407 forward $282 $-1 #
point $-1 -45.387127292703028 -18.733704046620705 -5.0168272847282953 #
coedge $-1 $359 $358 $285 $373 reversed $180 $-1 #
edge $-1 $367 -5.0168272847282953 $374 5.0168272847282953 $285 $414 forward 7 unknown #
vertex $-1 $373 $415 #
straight-curve $-1 -42.387127292703028 -20.753289747914771 -5.0168272847282953 0 -1 0 I I #
edge $-1 $377 26.349314935059475 $380 29.373688957849247 $290 $416 forward 7 unknown #
vertex $-1 $304 $417 #
straight-curve $-1 -56.422772813067333 -0.99258678610177853 5.0168272847282935 -1 0 0 I I #
edge $-1 $380 -1.3046401653421267 $301 5.8990940682299371 $300 $418 forward 7 unknown #
vertex $-1 $379 $419 #
straight-curve $-1 -45.387127292703028 -0.99258678610177853 1.9924532619385218 0.66913059716165679 0 0.74314483375859142 I I #
point $-1 -42.663968758888991 -0.99258678610177853 5.0168272847282953 #
point $-1 -45.387127292703028 -8.1963210196738423 1.9924532619385218 #
straight-curve $-1 -45.387127292703028 0 5.0168272847282953 0 -1 0 I I #
vertex $-1 $307 $420 #
point $-1 -42.947837893456587 -6.7555741729594292 3.2070820930510497 #
vertex $-1 $311 $421 #
point $-1 -42.947837893456587 -4.5944539028878104 3.2070820930510497 #
vertex $-1 $315 $422 #
point $-1 -42.947837893456587 -2.4333336328161899 3.2070820930510497 #
coedge $-1 $330 $329 $322 $392 forward $319 $-1 #
edge $-1 $393 59.932424052480869 $396 63.405378575502581 $391 $423 forward 7 unknown #
vertex $-1 $334 $424 #
straight-curve $-1 23.813783607233027 -11.893988127277641 5.0168272847282935 1 0 0 I I #
edge $-1 $396 -8.1927044092349153 $331 0.79013697314946363 $330 $425 forward 7 unknown #
vertex $-1 $395 $426 #
straight-curve $-1 -17.669967702771331 -11.893988127277641 66.841407678943966 -0.69465836192734942 0 0.71933980857756763 I I #
point $-1 42.033334174008566 -11.893988127277641 5.0168272847282864 #
point $-1 45.387127292703028 -2.9111467448932622 1.5438727617065808 #
straight-curve $-1 45.387127292703028 0 5.0168272847282953 0 1 0 I I #
vertex $-1 $337 $427 #
point $-1 42.841913616822644 -7.4025674360854516 1.746744163163843 #
straight-curve $-1 -45.387127292703028 18.733704046620705 0 0 0 -1 I I #
point $-1 -45.387127292703028 -18.733704046620705 -5.0168272847282953 #
straight-curve $-1 -45.387127292703028 0 -5.0168272847282953 0 1 0 I I #
point $-1 -45.387127292703028 18.733704046620705 -5.0168272847282953 #
edge $-1 $374 -1.5 $408 1.5 $358 $428 forward 7 unknown #
vertex $-1 $362 $429 #
straight-curve $-1 -45.387127292703028 -22.772875449208836 0 0 0 -1 I I #
straight-curve $-1 -45.387127292703028 0 -5.0168272847282953 0 1 0 I I #
straight-curve $-1 -43.887127292703028 -22.772875449208836 5.0168272847282953 1 0 0 I I #
point $-1 -45.387127292703028 -22.772875449208836 5.0168272847282953 #
point $-1 -42.387127292703028 -22.772875449208836 5.0168272847282953 #
straight-curve $-1 -42.387127292703028 -22.772875449208836 0 0 0 -1 I I #
point $-1 -42.387127292703028 -22.772875449208836 -5.0168272847282953 #
straight-curve $-1 -45.387127292703028 -0.99258678610177853 31.366142219787768 0 0 -1 I I #
point $-1 -45.387127292703028 -0.99258678610177853 5.0168272847282953 #
straight-curve $-1 -45.387127292703028 -2.2972269514439052 1.9924532619385231 0 -1 0 I I #
point $-1 -45.387127292703028 -0.99258678610177853 1.9924532619385218 #
point $-1 -42.910830775158125 -6.7555741729594292 2.5009443775909257 #
point $-1 -42.910830775158125 -4.5944539028878104 2.5009443775909257 #
point $-1 -42.910830775158125 -2.4333336328161899 2.5009443775909257 #
straight-curve $-1 45.387127292703028 -11.893988127277641 64.949251337209162 0 0 -1 I I #
point $-1 45.387127292703028 -11.893988127277641 5.0168272847282953 #
straight-curve $-1 45.387127292703028 -3.7012837180427258 1.5438727617065879 0 1 0 I I #
point $-1 45.387127292703028 -11.893988127277641 1.5438727617065808 #
point $-1 42.134914531570189 -7.4025674360854516 1.7590848864889521 #
straight-curve $-1 -43.887127292703028 -22.772875449208836 -5.0168272847282953 -1 0 0 I I #
point $-1 -45.387127292703028 -22.772875449208836 -5.0168272847282953 #
End-of-ACIS-data 