500 0 8 0           
7 Unknown 11 ACIS 5.0 NT 24 Fri Mar 26 19:10:13 1999 
-1 9.9999999999999995e-007 1e-010 
body $-1 $8 $-1 $9 #
body $-1 $10 $-1 $11 #
body $-1 $12 $-1 $13 #
body $-1 $14 $-1 $15 #
body $-1 $16 $-1 $17 #
body $-1 $18 $-1 $19 #
body $-1 $20 $-1 $21 #
body $-1 $22 $-1 $23 #
lump $-1 $-1 $24 $0 #
transform $-1 1 0 0 0 1 0 0 0 1 49.251991332743309 26.369588608843721 6.5199284655985954 1 rotate no_reflect no_shear #
lump $-1 $-1 $25 $1 #
transform $-1 1 0 0 0 1 0 0 0 1 49.251991332743309 26.369588608843721 6.5199284655985954 1 rotate no_reflect no_shear #
lump $-1 $-1 $26 $2 #
transform $-1 1 0 0 0 1 0 0 0 1 49.251991332743309 26.369588608843721 6.5199284655985954 1 rotate no_reflect no_shear #
lump $-1 $-1 $27 $3 #
transform $-1 1 0 0 0 1 0 0 0 1 49.251991332743309 26.369588608843721 6.5199284655985954 1 rotate no_reflect no_shear #
lump $-1 $-1 $28 $4 #
transform $-1 1 0 0 0 1 0 0 0 1 49.251991332743309 26.369588608843721 6.5199284655985954 1 rotate no_reflect no_shear #
lump $-1 $-1 $29 $5 #
transform $-1 1 0 0 0 1 0 0 0 1 49.251991332743309 26.369588608843721 6.5199284655985954 1 rotate no_reflect no_shear #
lump $-1 $-1 $30 $6 #
transform $-1 1 0 0 0 1 0 0 0 1 49.251991332743309 26.369588608843721 6.5199284655985954 1 rotate no_reflect no_shear #
lump $-1 $-1 $31 $7 #
transform $-1 1 0 0 0 1 0 0 0 1 49.251991332743309 26.369588608843721 6.5199284655985954 1 rotate no_reflect no_shear #
shell $-1 $-1 $-1 $32 $-1 $8 #
shell $-1 $-1 $-1 $33 $-1 $10 #
shell $-1 $-1 $-1 $34 $-1 $12 #
shell $-1 $-1 $-1 $35 $-1 $14 #
shell $-1 $-1 $-1 $36 $-1 $16 #
shell $-1 $-1 $-1 $37 $-1 $18 #
shell $-1 $-1 $-1 $38 $-1 $20 #
shell $-1 $-1 $-1 $39 $-1 $22 #
face $-1 $40 $41 $24 $-1 $42 forward single #
face $-1 $43 $44 $25 $-1 $45 forward single #
face $-1 $46 $47 $26 $-1 $48 reversed single #
face $-1 $49 $50 $27 $-1 $51 forward single #
face $-1 $52 $53 $28 $-1 $54 forward single #
face $-1 $55 $56 $29 $-1 $57 reversed single #
face $-1 $58 $59 $30 $-1 $60 forward single #
face $-1 $61 $62 $31 $-1 $63 forward single #
face $-1 $64 $65 $24 $-1 $66 reversed single #
loop $-1 $-1 $67 $32 #
plane-surface $-1 0 0 6.5199284655985954 0 0 1 1 0 0 forward_v I I I I #
face $-1 $68 $69 $25 $-1 $70 reversed single #
loop $-1 $-1 $71 $33 #
plane-surface $-1 0 -26.369588608843721 0 0 1 0 0 0 1 forward_v I I I I #
face $-1 $72 $73 $26 $-1 $74 reversed single #
loop $-1 $-1 $75 $34 #
plane-surface $-1 27.45978492271734 14.503629571676647 138.24146027175345 0 1 0 0.5877852598018023 0 0.80901698891910034 forward_v I I I I #
face $-1 $76 $77 $27 $-1 $78 forward single #
loop $-1 $79 $80 $35 #
cone-surface $-1 44.234596917376578 17.893903582295813 2.2387975773956494 -0.5877852598018023 0 -0.80901698891910034 0.80901698891910034 0 -0.5877852598018023 1 I I 0 1 1 forward I I I I #
face $-1 $81 $82 $28 $-1 $83 forward single #
loop $-1 $84 $85 $36 #
cone-surface $-1 44.234596917376578 22.979314598224555 2.2387975773956494 -0.5877852598018023 0 -0.80901698891910034 0.80901698891910034 0 -0.5877852598018023 1 I I 0 1 1 forward I I I I #
face $-1 $86 $87 $29 $-1 $88 reversed single #
loop $-1 $-1 $89 $37 #
plane-surface $-1 -130.9154948040669 -1.4559896462464028 55.219046640252884 0 1 0 -0.82903758062907751 0 0.55919289150049634 forward_v I I I I #
face $-1 $90 $91 $30 $-1 $92 forward single #
loop $-1 $93 $94 $38 #
cone-surface $-1 -45.472289040043897 1.2344766392050133 2.2308315710885345 0.82903758062907751 0 -0.55919289150049634 0.55919289150049634 0 0.82903758062907751 1 I I 0 1 1 forward I I I I #
face $-1 $95 $96 $31 $-1 $97 forward single #
loop $-1 $98 $99 $39 #
cone-surface $-1 -45.472289040043897 5.2701760673821383 2.2308315710885345 0.82903758062907751 0 -0.55919289150049634 0.55919289150049634 0 0.82903758062907751 1 I I 0 1 1 forward I I I I #
face $-1 $100 $101 $24 $-1 $102 reversed single #
loop $-1 $-1 $103 $40 #
plane-surface $-1 0 0 -6.5199284655985954 0 0 1 1 0 0 forward_v I I I I #
coedge $-1 $104 $105 $106 $107 forward $41 $-1 #
face $-1 $108 $109 $25 $-1 $110 forward single #
loop $-1 $-1 $111 $43 #
plane-surface $-1 -49.251991332743309 0 0 1 0 0 0 0 -1 forward_v I I I I #
coedge $-1 $112 $113 $114 $115 forward $44 $-1 #
face $-1 $116 $117 $26 $-1 $118 forward single #
loop $-1 $-1 $119 $46 #
plane-surface $-1 -30.439404119827941 20.436609090260184 58.550064819182211 0.5877852598018023 0 0.80901698891910034 0.80901698891910034 0 -0.5877852598018023 forward_v I I I I #
coedge $-1 $120 $121 $122 $123 reversed $47 $-1 #
face $-1 $-1 $124 $27 $-1 $125 forward single #
loop $-1 $126 $127 $49 #
cone-surface $-1 42.962338798959173 17.893903582295813 0.48768453921399502 -0.5877852598018023 0 -0.80901698891910034 0.40450849445955017 0 -0.29389262990090115 1 I I -0.70710678118654768 0.70710678118654735 0.5 forward I I I I #
loop $-1 $-1 $128 $35 #
coedge $-1 $80 $80 $129 $130 reversed $50 $-1 #
face $-1 $-1 $131 $28 $-1 $132 forward single #
loop $-1 $133 $134 $52 #
cone-surface $-1 42.962338798959173 22.979314598224555 0.48768453921399502 -0.5877852598018023 0 -0.80901698891910034 0.40450849445955017 0 -0.29389262990090115 1 I I -0.70710678118654768 0.70710678118654735 0.5 forward I I I I #
loop $-1 $-1 $135 $36 #
coedge $-1 $85 $85 $136 $137 reversed $53 $-1 #
face $-1 $138 $139 $29 $-1 $140 reversed single #
loop $-1 $-1 $141 $55 #
plane-surface $-1 -49.251991332743287 3.2523263532935758 0.13631974922465417 -0.82903758062907751 0 0.55919289150049634 0.55919289150049634 0 0.82903758062907751 forward_v I I I I #
coedge $-1 $142 $143 $144 $145 reversed $56 $-1 #
face $-1 $-1 $146 $30 $-1 $147 forward single #
loop $-1 $148 $149 $58 #
cone-surface $-1 -43.430967113669041 1.2344766392050133 0.85394258901518949 0.82903758062907751 0 -0.55919289150049634 0.27959644575024817 0 0.41451879031453875 1 I I -0.70710678118654746 0.70710678118654746 0.5 forward I I I I #
loop $-1 $-1 $150 $38 #
coedge $-1 $94 $94 $151 $152 reversed $59 $-1 #
face $-1 $-1 $153 $31 $-1 $154 forward single #
loop $-1 $155 $156 $61 #
cone-surface $-1 -43.430967113669041 5.2701760673821383 0.85394258901518949 0.82903758062907751 0 -0.55919289150049634 0.27959644575024817 0 0.41451879031453875 1 I I -0.70710678118654746 0.70710678118654746 0.5 forward I I I I #
loop $-1 $-1 $157 $39 #
coedge $-1 $99 $99 $158 $159 reversed $62 $-1 #
face $-1 $160 $161 $24 $-1 $162 reversed single #
loop $-1 $-1 $163 $64 #
plane-surface $-1 0 -26.369588608843721 0 0 1 0 0 0 1 forward_v I I I I #
coedge $-1 $164 $165 $166 $167 forward $65 $-1 #
coedge $-1 $168 $67 $169 $170 forward $41 $-1 #
coedge $-1 $67 $168 $171 $172 forward $41 $-1 #
coedge $-1 $173 $174 $67 $107 reversed $175 $-1 #
edge $-1 $176 -26.369588608843721 $177 26.369588608843721 $106 $178 forward 7 unknown #
face $-1 $179 $180 $25 $-1 $181 reversed single #
loop $-1 $-1 $182 $68 #
plane-surface $-1 0 -29.689242411671103 -1.7611840341562335 0 0 1 1 0 0 forward_v I I I I #
coedge $-1 $183 $184 $113 $185 forward $69 $-1 #
coedge $-1 $186 $71 $187 $188 reversed $44 $-1 #
coedge $-1 $71 $186 $111 $185 reversed $44 $-1 #
coedge $-1 $189 $182 $71 $115 reversed $109 $-1 #
edge $-1 $190 -49.251991332743309 $191 49.251991332743309 $114 $192 forward 7 unknown #
face $-1 $193 $194 $26 $-1 $195 reversed single #
loop $-1 $-1 $196 $72 #
plane-surface $-1 0 0 6.5199284655985954 0 0 1 1 0 0 forward_v I I I I #
coedge $-1 $197 $198 $199 $200 reversed $73 $-1 #
coedge $-1 $121 $75 $201 $202 reversed $47 $-1 #
coedge $-1 $75 $120 $197 $203 reversed $47 $-1 #
coedge $-1 $199 $204 $75 $123 forward $194 $-1 #
edge $-1 $205 62.60080167027813 $206 68.469854359239804 $122 $207 forward 7 unknown #
loop $-1 $-1 $129 $76 #
plane-surface $-1 -30.439404119827941 20.436609090260184 58.550064819182211 0.5877852598018023 0 0.80901698891910034 0.80901698891910034 0 -0.5877852598018023 forward_v I I I I #
loop $-1 $-1 $208 $49 #
coedge $-1 $127 $127 $128 $209 reversed $77 $-1 #
coedge $-1 $128 $128 $127 $209 forward $79 $-1 #
coedge $-1 $129 $129 $80 $130 forward $124 $-1 #
edge $-1 $210 0 $210 6.2831853071796004 $129 $211 forward 7 unknown #
loop $-1 $-1 $136 $81 #
plane-surface $-1 -30.439404119827941 20.436609090260184 58.550064819182211 0.5877852598018023 0 0.80901698891910034 0.80901698891910034 0 -0.5877852598018023 forward_v I I I I #
loop $-1 $-1 $212 $52 #
coedge $-1 $134 $134 $135 $213 reversed $82 $-1 #
coedge $-1 $135 $135 $134 $213 forward $84 $-1 #
coedge $-1 $136 $136 $85 $137 forward $131 $-1 #
edge $-1 $214 0 $214 6.2831853071796004 $136 $215 forward 7 unknown #
face $-1 $216 $217 $29 $-1 $218 reversed single #
loop $-1 $-1 $219 $86 #
plane-surface $-1 -130.9154948040669 7.9606423528335544 55.219046640252884 0 -1 0 0.82903758062907751 0 -0.55919289150049634 forward_v I I I I #
coedge $-1 $220 $221 $222 $223 reversed $87 $-1 #
coedge $-1 $143 $89 $224 $225 reversed $56 $-1 #
coedge $-1 $89 $142 $220 $226 reversed $56 $-1 #
coedge $-1 $222 $227 $89 $145 forward $228 $-1 #
edge $-1 $229 16.205756069290139 $230 20.511554382568356 $144 $231 forward 7 unknown #
loop $-1 $-1 $151 $90 #
plane-surface $-1 -49.251991332743287 3.2523263532935758 0.13631974922465417 -0.82903758062907751 0 0.55919289150049634 0.55919289150049634 0 0.82903758062907751 forward_v I I I I #
loop $-1 $-1 $232 $58 #
coedge $-1 $149 $149 $150 $233 reversed $91 $-1 #
coedge $-1 $150 $150 $149 $233 forward $93 $-1 #
coedge $-1 $151 $151 $94 $152 forward $146 $-1 #
edge $-1 $234 0 $234 6.2831853071796004 $151 $235 forward 7 unknown #
loop $-1 $-1 $158 $95 #
plane-surface $-1 -49.251991332743287 3.2523263532935758 0.13631974922465417 -0.82903758062907751 0 0.55919289150049634 0.55919289150049634 0 0.82903758062907751 forward_v I I I I #
loop $-1 $-1 $236 $61 #
coedge $-1 $156 $156 $157 $237 reversed $96 $-1 #
coedge $-1 $157 $157 $156 $237 forward $98 $-1 #
coedge $-1 $158 $158 $99 $159 forward $153 $-1 #
edge $-1 $238 0 $238 6.2831853071796004 $158 $239 forward 7 unknown #
face $-1 $240 $241 $24 $-1 $242 reversed single #
loop $-1 $-1 $243 $100 #
plane-surface $-1 -49.251991332743309 0 0 1 0 0 0 0 -1 forward_v I I I I #
coedge $-1 $244 $171 $245 $246 forward $101 $-1 #
coedge $-1 $247 $103 $244 $248 forward $65 $-1 #
coedge $-1 $103 $247 $249 $250 forward $65 $-1 #
coedge $-1 $174 $173 $103 $167 reversed $175 $-1 #
edge $-1 $251 -26.369588608843721 $252 26.369588608843721 $166 $253 forward 7 unknown #
coedge $-1 $105 $104 $254 $255 forward $41 $-1 #
coedge $-1 $256 $257 $104 $170 reversed $241 $-1 #
edge $-1 $177 -49.251991332743309 $258 49.251991332743309 $169 $259 forward 7 unknown #
coedge $-1 $163 $260 $105 $172 reversed $101 $-1 #
edge $-1 $261 -49.251991332743309 $176 49.251991332743309 $171 $262 forward 7 unknown #
coedge $-1 $166 $106 $260 $263 forward $175 $-1 #
coedge $-1 $106 $166 $256 $264 reversed $175 $-1 #
loop $-1 $-1 $173 $240 #
vertex $-1 $107 $265 #
vertex $-1 $107 $266 #
straight-curve $-1 49.251991332743309 0 6.5199284655985954 0 1 0 I I #
face $-1 $267 $268 $25 $-1 $269 reversed single #
loop $-1 $-1 $270 $108 #
plane-surface $-1 0 -29.689242411671103 -4.7611840341562335 0 0 1 1 0 0 forward_v I I I I #
coedge $-1 $114 $271 $272 $273 forward $109 $-1 #
coedge $-1 $274 $111 $275 $276 reversed $69 $-1 #
coedge $-1 $111 $274 $189 $277 reversed $69 $-1 #
edge $-1 $190 1.7611840341562335 $278 4.7611840341562335 $111 $279 forward 7 unknown #
coedge $-1 $113 $112 $280 $281 forward $44 $-1 #
coedge $-1 $272 $282 $112 $188 forward $283 $-1 #
edge $-1 $284 -4.7611840341562335 $191 -1.7611840341562335 $187 $285 forward 7 unknown #
coedge $-1 $271 $114 $184 $277 forward $109 $-1 #
vertex $-1 $185 $286 #
vertex $-1 $273 $287 #
straight-curve $-1 0 -26.369588608843721 -1.7611840341562335 1 0 0 I I #
face $-1 $-1 $288 $26 $-1 $289 reversed single #
loop $-1 $-1 $122 $116 #
plane-surface $-1 49.251991332743309 0 0 -1 0 0 0 0 1 forward_v I I I I #
coedge $-1 $201 $290 $291 $292 forward $117 $-1 #
coedge $-1 $291 $119 $121 $203 forward $73 $-1 #
coedge $-1 $119 $291 $293 $294 reversed $73 $-1 #
coedge $-1 $295 $122 $119 $200 forward $194 $-1 #
edge $-1 $206 4.2853250265465554 $296 16.151284063713629 $199 $297 forward 7 unknown #
coedge $-1 $298 $196 $120 $202 forward $117 $-1 #
edge $-1 $299 27.44404101768416 $205 35.522098871384642 $201 $300 forward 7 unknown #
edge $-1 $206 -98.503982665486632 $299 -88.518953964799778 $121 $301 forward 7 unknown #
coedge $-1 $122 $295 $298 $302 reversed $194 $-1 #
vertex $-1 $302 $303 #
vertex $-1 $123 $304 #
straight-curve $-1 49.251991332743309 14.503629571676647 69.120730135876727 0 0 -1 I I #
coedge $-1 $208 $208 $-1 $305 reversed $126 $-1 #
edge $-1 $306 0 $306 6.2831853071796004 $127 $307 forward 7 unknown #
vertex $-1 $130 $308 #
ellipse-curve $-1 45.21296240589308 17.893903582295813 3.585402121117756 0.5877852598018023 0 0.80901698891910034 0.80901698891910034 0 -0.5877852598018023 1 I I #
coedge $-1 $212 $212 $-1 $309 reversed $133 $-1 #
edge $-1 $310 0 $310 6.2831853071796004 $134 $311 forward 7 unknown #
vertex $-1 $137 $312 #
ellipse-curve $-1 45.21296240589308 22.979314598224555 3.585402121117756 0.5877852598018023 0 0.80901698891910034 0.80901698891910034 0 -0.5877852598018023 1 I I #
face $-1 $-1 $228 $29 $-1 $313 forward single #
loop $-1 $-1 $314 $138 #
plane-surface $-1 -49.251991332743309 0 0 1 0 0 0 0 -1 forward_v I I I I #
coedge $-1 $315 $316 $317 $318 reversed $139 $-1 #
coedge $-1 $319 $141 $143 $226 forward $87 $-1 #
coedge $-1 $141 $319 $315 $320 forward $87 $-1 #
coedge $-1 $317 $144 $141 $223 forward $228 $-1 #
edge $-1 $230 -3.0821528228931907 $321 6.3344791761867665 $222 $322 forward 7 unknown #
coedge $-1 $323 $324 $142 $225 forward $217 $-1 #
edge $-1 $325 -27.47320357090182 $229 -21.089594854527846 $224 $326 forward 7 unknown #
edge $-1 $230 -7.7000233349253371 $325 3.8128776386450749e-014 $143 $327 forward 7 unknown #
coedge $-1 $144 $317 $323 $328 forward $228 $-1 #
loop $-1 $-1 $317 $216 #
vertex $-1 $225 $329 #
vertex $-1 $145 $330 #
straight-curve $-1 -65.457747402033448 -1.4559896462464028 6.5199284655985963 1 0 0 I I #
coedge $-1 $232 $232 $-1 $331 reversed $148 $-1 #
edge $-1 $332 0 $332 6.2831853071796004 $149 $333 forward 7 unknown #
vertex $-1 $152 $334 #
ellipse-curve $-1 -47.099092176104193 1.2344766392050133 3.3281241074116181 -0.82903758062907751 0 0.55919289150049634 0.55919289150049634 0 0.82903758062907751 1 I I #
coedge $-1 $236 $236 $-1 $335 reversed $155 $-1 #
edge $-1 $336 0 $336 6.2831853071796004 $156 $337 forward 7 unknown #
vertex $-1 $159 $338 #
ellipse-curve $-1 -47.099092176104193 5.2701760673821383 3.3281241074116181 -0.82903758062907751 0 0.55919289150049634 0.55919289150049634 0 0.82903758062907751 1 I I #
face $-1 $-1 $175 $24 $-1 $339 reversed single #
loop $-1 $-1 $256 $160 #
plane-surface $-1 0 26.369588608843721 0 0 -1 0 0 0 -1 forward_v I I I I #
coedge $-1 $340 $254 $257 $341 forward $161 $-1 #
coedge $-1 $260 $163 $164 $248 reversed $101 $-1 #
coedge $-1 $254 $340 $163 $246 reversed $161 $-1 #
edge $-1 $261 -6.5199284655985954 $342 6.5199284655985954 $245 $343 forward 7 unknown #
coedge $-1 $165 $164 $340 $344 forward $65 $-1 #
edge $-1 $252 -49.251991332743309 $342 49.251991332743309 $244 $345 forward 7 unknown #
coedge $-1 $257 $256 $165 $250 reversed $241 $-1 #
edge $-1 $346 -49.251991332743309 $251 49.251991332743309 $249 $347 forward 7 unknown #
vertex $-1 $167 $348 #
vertex $-1 $263 $349 #
straight-curve $-1 49.251991332743309 0 -6.5199284655985954 0 -1 0 I I #
coedge $-1 $243 $245 $168 $255 reversed $161 $-1 #
edge $-1 $258 -26.369588608843721 $261 26.369588608843721 $254 $350 forward 7 unknown #
coedge $-1 $249 $169 $174 $264 forward $241 $-1 #
coedge $-1 $169 $249 $243 $341 reversed $241 $-1 #
vertex $-1 $170 $351 #
straight-curve $-1 0 26.369588608843721 6.5199284655985954 -1 0 0 I I #
coedge $-1 $171 $244 $173 $263 reversed $101 $-1 #
vertex $-1 $255 $352 #
straight-curve $-1 0 -26.369588608843721 6.5199284655985954 1 0 0 I I #
edge $-1 $176 -6.5199284655985954 $252 6.5199284655985954 $173 $353 forward 7 unknown #
edge $-1 $177 -6.5199284655985954 $251 6.5199284655985954 $174 $354 forward 7 unknown #
point $-1 49.251991332743309 -26.369588608843721 6.5199284655985954 #
point $-1 49.251991332743309 26.369588608843721 6.5199284655985954 #
face $-1 $-1 $283 $25 $-1 $355 reversed single #
loop $-1 $-1 $356 $179 #
plane-surface $-1 0 -33.008896214498485 -3.2611840341562335 0 1 0 0 0 1 forward_v I I I I #
coedge $-1 $357 $280 $282 $358 forward $180 $-1 #
coedge $-1 $182 $189 $359 $360 forward $109 $-1 #
coedge $-1 $361 $187 $182 $273 reversed $283 $-1 #
edge $-1 $362 -3.3196538028273821 $191 3.3196538028273821 $272 $363 forward 7 unknown #
coedge $-1 $184 $183 $356 $364 reversed $69 $-1 #
coedge $-1 $280 $357 $183 $276 forward $180 $-1 #
edge $-1 $365 -3.3196538028273821 $278 3.3196538028273821 $183 $366 forward 7 unknown #
edge $-1 $190 -3.3196538028273821 $367 3.3196538028273821 $184 $368 forward 7 unknown #
vertex $-1 $185 $369 #
straight-curve $-1 -49.251991332743309 -26.369588608843721 0 0 0 -1 I I #
coedge $-1 $270 $275 $186 $281 reversed $180 $-1 #
edge $-1 $284 -49.251991332743309 $278 49.251991332743309 $280 $370 forward 7 unknown #
coedge $-1 $187 $361 $270 $358 reversed $283 $-1 #
loop $-1 $-1 $187 $267 #
vertex $-1 $188 $371 #
straight-curve $-1 49.251991332743309 -26.369588608843721 0 0 0 1 I I #
point $-1 -49.251991332743309 -26.369588608843721 -1.7611840341562335 #
point $-1 49.251991332743309 -26.369588608843721 -1.7611840341562335 #
loop $-1 $-1 $293 $193 #
plane-surface $-1 0 26.369588608843721 0 0 -1 0 0 0 -1 forward_v I I I I #
coedge $-1 $196 $298 $372 $373 forward $117 $-1 #
coedge $-1 $198 $197 $196 $292 reversed $73 $-1 #
edge $-1 $374 -16.151284063713629 $299 -4.2853250265465554 $196 $375 forward 7 unknown #
coedge $-1 $372 $376 $198 $294 forward $288 $-1 #
edge $-1 $296 -68.983552602151505 $374 -58.998523901464651 $293 $377 forward 7 unknown #
coedge $-1 $204 $199 $376 $378 reversed $194 $-1 #
vertex $-1 $200 $379 #
straight-curve $-1 49.251991332743316 10.218304545130092 0.65087577663692642 0 1 0 I I #
coedge $-1 $290 $201 $204 $302 forward $117 $-1 #
vertex $-1 $202 $380 #
straight-curve $-1 13.72989246135867 14.503629571676647 6.5199284655985963 1 0 0 I I #
straight-curve $-1 -30.439404119827941 14.503629571676647 58.550064819182211 -0.80901698891910034 0 0.5877852598018023 I I #
edge $-1 $205 14.503629571676647 $381 26.369588608843721 $204 $382 forward 7 unknown #
point $-1 49.251991332743309 14.503629571676647 6.5199284655985954 #
point $-1 49.251991332743302 14.503629571676647 0.65087577663692997 #
edge $-1 $383 1 $383 0 $208 $-1 forward 7 unknown #
vertex $-1 $209 $384 #
ellipse-curve $-1 43.256231428860076 17.893903582295813 0.89219303367354508 0.5877852598018023 0 0.80901698891910034 0.80901698891910034 0 -0.5877852598018023 1 I I #
point $-1 46.021979394812178 17.893903582295813 2.9976168613159508 #
edge $-1 $385 1 $385 0 $212 $-1 forward 7 unknown #
vertex $-1 $213 $386 #
ellipse-curve $-1 43.256231428860076 22.979314598224555 0.89219303367354508 0.5877852598018023 0 0.80901698891910034 0.80901698891910034 0 -0.5877852598018023 1 I I #
point $-1 46.021979394812178 22.979314598224555 2.9976168613159508 #
plane-surface $-1 0 0 6.5199284655985954 0 0 1 1 0 0 forward_v I I I I #
coedge $-1 $324 $323 $316 $387 forward $217 $-1 #
coedge $-1 $316 $219 $221 $320 reversed $139 $-1 #
coedge $-1 $219 $315 $314 $387 reversed $139 $-1 #
coedge $-1 $227 $222 $219 $318 forward $228 $-1 #
edge $-1 $321 -20.511554382568356 $388 -16.205756069290139 $317 $389 forward 7 unknown #
coedge $-1 $221 $220 $324 $390 reversed $87 $-1 #
edge $-1 $391 -3.8128776386450749e-014 $321 7.7000233349253371 $315 $392 forward 7 unknown #
vertex $-1 $223 $393 #
straight-curve $-1 -44.946193019465099 1.6261631766467879 6.5199284655985954 0 1 0 I I #
coedge $-1 $314 $224 $227 $328 reversed $217 $-1 #
coedge $-1 $224 $314 $319 $390 forward $217 $-1 #
vertex $-1 $225 $394 #
straight-curve $-1 -49.251991332743309 -1.4559896462464028 27.609523320126442 0 0 1 I I #
straight-curve $-1 -49.251991332743287 -1.4559896462464028 0.13631974922465417 -0.55919289150049634 0 -0.82903758062907751 I I #
edge $-1 $388 -7.9606423528335544 $229 1.4559896462464028 $323 $395 forward 7 unknown #
point $-1 -49.251991332743309 -1.4559896462464028 6.5199284655985954 #
point $-1 -44.946193019465092 -1.4559896462464028 6.5199284655985954 #
edge $-1 $396 1 $396 0 $232 $-1 forward 7 unknown #
vertex $-1 $233 $397 #
ellipse-curve $-1 -43.84548590398358 1.2344766392050133 1.1335390347654377 -0.82903758062907751 0 0.55919289150049634 0.55919289150049634 0 0.82903758062907751 1 I I #
point $-1 -46.53989928460372 1.2344766392050133 4.1571616880407092 #
edge $-1 $398 1 $398 0 $236 $-1 forward 7 unknown #
vertex $-1 $237 $399 #
ellipse-curve $-1 -43.84548590398358 5.2701760673821383 1.1335390347654377 -0.82903758062907751 0 0.55919289150049634 0.55919289150049634 0 0.82903758062907751 1 I I #
point $-1 -46.53989928460372 5.2701760673821383 4.1571616880407092 #
plane-surface $-1 49.251991332743309 0 0 -1 0 0 0 0 1 forward_v I I I I #
coedge $-1 $245 $243 $247 $344 reversed $161 $-1 #
edge $-1 $258 -6.5199284655985954 $346 6.5199284655985954 $257 $400 forward 7 unknown #
vertex $-1 $344 $401 #
straight-curve $-1 -49.251991332743309 -26.369588608843721 0 0 0 -1 I I #
edge $-1 $342 -26.369588608843721 $346 26.369588608843721 $340 $402 forward 7 unknown #
straight-curve $-1 0 -26.369588608843721 -6.5199284655985954 -1 0 0 I I #
vertex $-1 $250 $403 #
straight-curve $-1 0 26.369588608843721 -6.5199284655985954 1 0 0 I I #
point $-1 49.251991332743309 26.369588608843721 -6.5199284655985954 #
point $-1 49.251991332743309 -26.369588608843721 -6.5199284655985954 #
straight-curve $-1 -49.251991332743309 0 6.5199284655985954 0 -1 0 I I #
point $-1 -49.251991332743309 26.369588608843721 6.5199284655985954 #
point $-1 -49.251991332743309 -26.369588608843721 6.5199284655985954 #
straight-curve $-1 49.251991332743309 -26.369588608843721 0 0 0 -1 I I #
straight-curve $-1 49.251991332743309 26.369588608843721 0 0 0 -1 I I #
plane-surface $-1 49.251991332743309 0 0 -1 0 0 0 0 1 forward_v I I I I #
coedge $-1 $404 $359 $274 $364 forward $268 $-1 #
coedge $-1 $275 $270 $404 $405 forward $180 $-1 #
edge $-1 $284 -3.3196538028273821 $406 3.3196538028273821 $282 $407 forward 7 unknown #
coedge $-1 $356 $408 $271 $360 reversed $268 $-1 #
edge $-1 $367 -49.251991332743309 $362 49.251991332743309 $359 $409 forward 7 unknown #
coedge $-1 $282 $272 $408 $410 forward $283 $-1 #
vertex $-1 $273 $411 #
straight-curve $-1 49.251991332743309 -29.689242411671103 -1.7611840341562335 0 1 0 I I #
edge $-1 $367 -1.5 $365 1.5 $274 $412 forward 7 unknown #
vertex $-1 $276 $413 #
straight-curve $-1 -49.251991332743309 -29.689242411671103 -4.7611840341562335 0 1 0 I I #
vertex $-1 $277 $414 #
straight-curve $-1 -49.251991332743309 -29.689242411671103 -1.7611840341562335 0 -1 0 I I #
point $-1 -49.251991332743309 -26.369588608843721 -4.7611840341562335 #
straight-curve $-1 0 -26.369588608843721 -4.7611840341562335 -1 0 0 I I #
point $-1 49.251991332743309 -26.369588608843721 -4.7611840341562335 #
coedge $-1 $376 $293 $290 $373 reversed $288 $-1 #
edge $-1 $381 -49.251991332743309 $374 -41.17393347904283 $372 $415 forward 7 unknown #
vertex $-1 $294 $416 #
straight-curve $-1 41.17393347904283 10.218304545130092 6.5199284655985963 0 -1 0 I I #
coedge $-1 $293 $372 $295 $378 forward $288 $-1 #
straight-curve $-1 -6.556874678391674 26.369588608843721 41.198391164943843 -0.80901698891910034 0 0.5877852598018023 I I #
edge $-1 $381 -6.5199284655985954 $296 -0.65087577663693019 $295 $417 forward 7 unknown #
point $-1 49.251991332743309 26.369588608843721 0.65087577663693019 #
point $-1 41.17393347904283 14.503629571676647 6.5199284655985963 #
vertex $-1 $302 $418 #
straight-curve $-1 49.251991332743309 0 6.5199284655985954 0 1 0 I I #
vertex $-1 $305 $419 #
point $-1 44.065248417779173 17.893903582295813 0.30440777387174273 #
vertex $-1 $309 $420 #
point $-1 44.065248417779173 22.979314598224555 0.30440777387174273 #
edge $-1 $388 21.089594854527846 $391 27.47320357090182 $314 $421 forward 7 unknown #
vertex $-1 $328 $422 #
straight-curve $-1 -65.457747402033448 7.9606423528335544 6.5199284655985963 -1 0 0 I I #
edge $-1 $391 -6.3344791761867665 $325 3.0821528228931907 $324 $423 forward 7 unknown #
vertex $-1 $390 $424 #
straight-curve $-1 -49.251991332743287 7.9606423528335544 0.13631974922465417 0.55919289150049634 0 0.82903758062907751 I I #
point $-1 -44.946193019465092 7.9606423528335544 6.5199284655985954 #
point $-1 -49.251991332743309 -1.4559896462464028 0.13631974922462256 #
straight-curve $-1 -49.251991332743309 0 6.5199284655985954 0 -1 0 I I #
vertex $-1 $331 $425 #
point $-1 -43.286293012483085 1.2344766392050133 1.9625766153945152 #
vertex $-1 $335 $426 #
point $-1 -43.286293012483085 5.2701760673821383 1.9625766153945152 #
straight-curve $-1 -49.251991332743309 26.369588608843721 0 0 0 -1 I I #
point $-1 -49.251991332743309 -26.369588608843721 -6.5199284655985954 #
straight-curve $-1 -49.251991332743309 0 -6.5199284655985954 0 1 0 I I #
point $-1 -49.251991332743309 26.369588608843721 -6.5199284655985954 #
coedge $-1 $408 $356 $357 $405 reversed $268 $-1 #
edge $-1 $406 -49.251991332743309 $365 49.251991332743309 $404 $427 forward 7 unknown #
vertex $-1 $410 $428 #
straight-curve $-1 49.251991332743309 -29.689242411671103 -4.7611840341562335 0 -1 0 I I #
coedge $-1 $359 $404 $361 $410 reversed $268 $-1 #
straight-curve $-1 0 -33.008896214498485 -1.7611840341562335 1 0 0 I I #
edge $-1 $362 -1.5 $406 1.5 $361 $429 forward 7 unknown #
point $-1 49.251991332743309 -33.008896214498485 -1.7611840341562335 #
straight-curve $-1 -49.251991332743309 -33.008896214498485 -3.2611840341562335 0 0 -1 I I #
point $-1 -49.251991332743309 -33.008896214498485 -4.7611840341562335 #
point $-1 -49.251991332743309 -33.008896214498485 -1.7611840341562335 #
straight-curve $-1 0 26.369588608843721 6.5199284655985954 -1 0 0 I I #
point $-1 41.17393347904283 26.369588608843721 6.5199284655985963 #
straight-curve $-1 49.251991332743309 26.369588608843721 0 0 0 -1 I I #
point $-1 49.251991332743309 26.369588608843721 6.5199284655985954 #
point $-1 42.668446169058271 17.893903582295813 0.083176044754445011 #
point $-1 42.668446169058271 22.979314598224555 0.083176044754445011 #
straight-curve $-1 -49.251991332743309 7.9606423528335544 27.609523320126442 0 0 -1 I I #
point $-1 -49.251991332743309 7.9606423528335544 6.5199284655985954 #
straight-curve $-1 -49.251991332743309 1.6261631766467879 0.13631974922462575 0 -1 0 I I #
point $-1 -49.251991332743309 7.9606423528335544 0.13631974922462256 #
point $-1 -43.016448323354503 1.2344766392050133 0.57434614326494127 #
point $-1 -43.016448323354503 5.2701760673821383 0.57434614326494127 #
straight-curve $-1 0 -33.008896214498485 -4.7611840341562335 -1 0 0 I I #
point $-1 49.251991332743309 -33.008896214498485 -4.7611840341562335 #
straight-curve $-1 49.251991332743309 -33.008896214498485 -3.2611840341562335 0 0 -1 I I #
End-of-ACIS-data 