500 0 11 0           
7 Unknown 11 ACIS 5.0 NT 24 Thu Mar 25 18:37:49 1999 
-1 9.9999999999999995e-007 1e-010 
body $-1 $11 $-1 $12 #
body $-1 $13 $-1 $14 #
body $-1 $15 $-1 $16 #
body $-1 $17 $-1 $18 #
body $-1 $19 $-1 $20 #
body $-1 $21 $-1 $22 #
body $-1 $23 $-1 $24 #
body $-1 $25 $-1 $26 #
body $-1 $27 $-1 $28 #
body $-1 $29 $-1 $30 #
body $-1 $31 $-1 $32 #
lump $-1 $-1 $33 $0 #
transform $-1 1 0 0 0 1 0 0 0 1 49.685354167302471 29.284593539161225 10.998591582680367 1 rotate no_reflect no_shear #
lump $-1 $-1 $34 $1 #
transform $-1 1 0 0 0 1 0 0 0 1 49.685354167302471 29.284593539161225 10.998591582680367 1 rotate no_reflect no_shear #
lump $-1 $-1 $35 $2 #
transform $-1 1 0 0 0 1 0 0 0 1 49.685354167302471 29.284593539161225 10.998591582680367 1 rotate no_reflect no_shear #
lump $-1 $-1 $36 $3 #
transform $-1 1 0 0 0 1 0 0 0 1 49.685354167302471 29.284593539161225 10.998591582680367 1 rotate no_reflect no_shear #
lump $-1 $-1 $37 $4 #
transform $-1 1 0 0 0 1 0 0 0 1 49.685354167302471 29.284593539161225 10.998591582680367 1 rotate no_reflect no_shear #
lump $-1 $-1 $38 $5 #
transform $-1 1 0 0 0 1 0 0 0 1 49.685354167302471 29.284593539161225 10.998591582680367 1 rotate no_reflect no_shear #
lump $-1 $-1 $39 $6 #
transform $-1 1 0 0 0 1 0 0 0 1 49.685354167302471 29.284593539161225 10.998591582680367 1 rotate no_reflect no_shear #
lump $-1 $-1 $40 $7 #
transform $-1 1 0 0 0 1 0 0 0 1 49.685354167302471 29.284593539161225 10.998591582680367 1 rotate no_reflect no_shear #
lump $-1 $-1 $41 $8 #
transform $-1 1 0 0 0 1 0 0 0 1 49.685354167302471 29.284593539161225 10.998591582680367 1 rotate no_reflect no_shear #
lump $-1 $-1 $42 $9 #
transform $-1 1 0 0 0 1 0 0 0 1 49.685354167302471 29.284593539161225 10.998591582680367 1 rotate no_reflect no_shear #
lump $-1 $-1 $43 $10 #
transform $-1 1 0 0 0 1 0 0 0 1 49.685354167302471 29.284593539161225 10.998591582680367 1 rotate no_reflect no_shear #
shell $-1 $-1 $-1 $44 $-1 $11 #
shell $-1 $-1 $-1 $45 $-1 $13 #
shell $-1 $-1 $-1 $46 $-1 $15 #
shell $-1 $-1 $-1 $47 $-1 $17 #
shell $-1 $-1 $-1 $48 $-1 $19 #
shell $-1 $-1 $-1 $49 $-1 $21 #
shell $-1 $-1 $-1 $50 $-1 $23 #
shell $-1 $-1 $-1 $51 $-1 $25 #
shell $-1 $-1 $-1 $52 $-1 $27 #
shell $-1 $-1 $-1 $53 $-1 $29 #
shell $-1 $-1 $-1 $54 $-1 $31 #
face $-1 $55 $56 $33 $-1 $57 forward single #
face $-1 $58 $59 $34 $-1 $60 forward single #
face $-1 $61 $62 $35 $-1 $63 forward single #
face $-1 $64 $65 $36 $-1 $66 reversed single #
face $-1 $67 $68 $37 $-1 $69 forward single #
face $-1 $70 $71 $38 $-1 $72 forward single #
face $-1 $73 $74 $39 $-1 $75 forward single #
face $-1 $76 $77 $40 $-1 $78 reversed single #
face $-1 $79 $80 $41 $-1 $81 forward single #
face $-1 $82 $83 $42 $-1 $84 forward single #
face $-1 $85 $86 $43 $-1 $87 forward single #
face $-1 $88 $89 $33 $-1 $90 reversed single #
loop $-1 $-1 $91 $44 #
plane-surface $-1 0 0 10.998591582680367 0 0 1 1 0 0 forward_v I I I I #
face $-1 $92 $93 $34 $-1 $94 reversed single #
loop $-1 $-1 $95 $45 #
plane-surface $-1 -49.685354167302471 0 0 1 0 0 0 0 -1 forward_v I I I I #
face $-1 $96 $97 $35 $-1 $98 reversed single #
loop $-1 $-1 $99 $46 #
plane-surface $-1 49.685354167302471 0 0 -1 0 0 0 0 1 forward_v I I I I #
face $-1 $100 $101 $36 $-1 $102 reversed single #
loop $-1 $-1 $103 $47 #
plane-surface $-1 -8.6722292140660429 63.940986939964006 114.17350351660635 1 0 0 0 -0.74314483375859142 -0.66913059716165679 forward_v I I I I #
face $-1 $104 $105 $37 $-1 $106 forward single #
loop $-1 $107 $108 $48 #
cone-surface $-1 -6.2343475730011377 25.433279692390769 6.8833081810104702 0 -0.74314483375859142 -0.66913059716165679 1 0 0 1 I I 0 1 1 forward I I I I #
face $-1 $109 $110 $38 $-1 $111 forward single #
loop $-1 $112 $113 $49 #
cone-surface $-1 -2.5775251114037729 25.433279692390769 6.8833081810104702 0 -0.74314483375859142 -0.66913059716165679 1 0 0 1 I I 0 1 1 forward I I I I #
face $-1 $114 $115 $39 $-1 $116 forward single #
loop $-1 $117 $118 $50 #
cone-surface $-1 1.0792973501935919 25.433279692390769 6.8833081810104702 0 -0.74314483375859142 -0.66913059716165679 1 0 0 1 I I 0 1 1 forward I I I I #
face $-1 $119 $120 $40 $-1 $121 reversed single #
loop $-1 $-1 $122 $51 #
plane-surface $-1 3.517178991258497 -103.13142206495468 70.648114721910574 -1 0 0 0 -0.74314483375859142 0.66913059716165679 forward_v I I I I #
face $-1 $123 $124 $41 $-1 $125 forward single #
loop $-1 $126 $127 $52 #
cone-surface $-1 -6.2343475730011377 -25.433279692390766 6.8833081810104702 0 0.74314483375859142 -0.66913059716165679 1 0 0 1 I I 0 1 1 forward I I I I #
face $-1 $128 $129 $42 $-1 $130 forward single #
loop $-1 $131 $132 $53 #
cone-surface $-1 -2.5775251114037729 -25.433279692390766 6.8833081810104702 0 0.74314483375859142 -0.66913059716165679 1 0 0 1 I I 0 1 1 forward I I I I #
face $-1 $133 $134 $43 $-1 $135 forward single #
loop $-1 $136 $137 $54 #
cone-surface $-1 1.0792973501935919 -25.433279692390766 6.8833081810104702 0 0.74314483375859142 -0.66913059716165679 1 0 0 1 I I 0 1 1 forward I I I I #
face $-1 $138 $139 $33 $-1 $140 reversed single #
loop $-1 $-1 $141 $55 #
plane-surface $-1 0 0 -10.998591582680367 0 0 1 1 0 0 forward_v I I I I #
coedge $-1 $142 $143 $144 $145 forward $56 $-1 #
face $-1 $146 $147 $34 $-1 $148 forward single #
loop $-1 $-1 $149 $58 #
plane-surface $-1 0 29.284593539161225 0 0 -1 0 0 0 -1 forward_v I I I I #
coedge $-1 $150 $151 $152 $153 forward $59 $-1 #
face $-1 $154 $155 $35 $-1 $156 forward single #
loop $-1 $-1 $157 $61 #
plane-surface $-1 0 29.284593539161225 0 0 -1 0 0 0 -1 forward_v I I I I #
coedge $-1 $158 $159 $160 $161 forward $62 $-1 #
face $-1 $162 $163 $36 $-1 $164 reversed single #
loop $-1 $-1 $165 $64 #
plane-surface $-1 -2.5775251114037729 -9.9058415858294637 47.681522108295312 0 0.74314483375859142 0.66913059716165679 1 0 0 forward_v I I I I #
coedge $-1 $166 $167 $168 $169 reversed $65 $-1 #
face $-1 $-1 $170 $37 $-1 $171 forward single #
loop $-1 $172 $173 $67 #
cone-surface $-1 -6.2343475730011377 24.290881901282216 5.8546886153001569 0 -0.74314483375859142 -0.66913059716165679 0.5 0 0 1 I I -0.70710678118654746 0.70710678118654746 0.5 forward I I I I #
loop $-1 $-1 $174 $48 #
coedge $-1 $108 $108 $175 $176 reversed $68 $-1 #
face $-1 $-1 $177 $38 $-1 $178 forward single #
loop $-1 $179 $180 $70 #
cone-surface $-1 -2.5775251114037729 24.290881901282216 5.8546886153001569 0 -0.74314483375859142 -0.66913059716165679 0.5 0 0 1 I I -0.70710678118654746 0.70710678118654746 0.5 forward I I I I #
loop $-1 $-1 $181 $49 #
coedge $-1 $113 $113 $182 $183 reversed $71 $-1 #
face $-1 $-1 $184 $39 $-1 $185 forward single #
loop $-1 $186 $187 $73 #
cone-surface $-1 1.0792973501935919 24.290881901282216 5.8546886153001569 0 -0.74314483375859142 -0.66913059716165679 0.5 0 0 1 I I -0.70710678118654746 0.70710678118654746 0.5 forward I I I I #
loop $-1 $-1 $188 $50 #
coedge $-1 $118 $118 $189 $190 reversed $74 $-1 #
face $-1 $191 $192 $40 $-1 $193 reversed single #
loop $-1 $-1 $194 $76 #
plane-surface $-1 -2.5775251114037729 -29.284593539161207 4.1561333135995397 0 -0.74314483375859142 0.66913059716165679 1 0 0 forward_v I I I I #
coedge $-1 $195 $196 $197 $198 reversed $77 $-1 #
face $-1 $-1 $199 $41 $-1 $200 forward single #
loop $-1 $201 $202 $79 #
cone-surface $-1 -6.2343475730011377 -24.290881901282212 5.8546886153001569 0 0.74314483375859142 -0.66913059716165679 0.5 0 0 1 I I -0.70710678118654746 0.70710678118654746 0.5 forward I I I I #
loop $-1 $-1 $203 $52 #
coedge $-1 $127 $127 $204 $205 reversed $80 $-1 #
face $-1 $-1 $206 $42 $-1 $207 forward single #
loop $-1 $208 $209 $82 #
cone-surface $-1 -2.5775251114037729 -24.290881901282212 5.8546886153001569 0 0.74314483375859142 -0.66913059716165679 0.5 0 0 1 I I -0.70710678118654746 0.70710678118654746 0.5 forward I I I I #
loop $-1 $-1 $210 $53 #
coedge $-1 $132 $132 $211 $212 reversed $83 $-1 #
face $-1 $-1 $213 $43 $-1 $214 forward single #
loop $-1 $215 $216 $85 #
cone-surface $-1 1.0792973501935919 -24.290881901282212 5.8546886153001569 0 0.74314483375859142 -0.66913059716165679 0.5 0 0 1 I I -0.70710678118654746 0.70710678118654746 0.5 forward I I I I #
loop $-1 $-1 $217 $54 #
coedge $-1 $137 $137 $218 $219 reversed $86 $-1 #
face $-1 $220 $221 $33 $-1 $222 reversed single #
loop $-1 $-1 $223 $88 #
plane-surface $-1 0 -29.284593539161225 0 0 1 0 0 0 1 forward_v I I I I #
coedge $-1 $224 $225 $226 $227 forward $89 $-1 #
coedge $-1 $228 $91 $229 $230 forward $56 $-1 #
coedge $-1 $91 $228 $231 $232 forward $56 $-1 #
coedge $-1 $233 $234 $91 $145 reversed $235 $-1 #
edge $-1 $236 -29.284593539161225 $237 29.284593539161225 $144 $238 forward 7 unknown #
face $-1 $239 $240 $34 $-1 $241 reversed single #
loop $-1 $-1 $152 $92 #
plane-surface $-1 -56.333649831889311 0 -7.9985915826803673 0 0 1 1 0 0 forward_v I I I I #
coedge $-1 $242 $243 $151 $244 forward $93 $-1 #
coedge $-1 $245 $95 $246 $247 reversed $59 $-1 #
coedge $-1 $95 $245 $149 $244 reversed $59 $-1 #
coedge $-1 $248 $249 $95 $153 reversed $147 $-1 #
edge $-1 $250 -29.284593539161225 $251 29.284593539161225 $152 $252 forward 7 unknown #
face $-1 $253 $254 $35 $-1 $255 reversed single #
loop $-1 $-1 $256 $96 #
plane-surface $-1 56.333649831889311 0 -7.9985915826803673 0 0 1 1 0 0 forward_v I I I I #
coedge $-1 $257 $258 $158 $259 forward $97 $-1 #
coedge $-1 $260 $99 $157 $259 reversed $62 $-1 #
coedge $-1 $99 $260 $261 $262 reversed $62 $-1 #
coedge $-1 $263 $264 $99 $161 reversed $155 $-1 #
edge $-1 $265 -29.284593539161225 $266 29.284593539161225 $160 $267 forward 7 unknown #
face $-1 $268 $269 $36 $-1 $270 reversed single #
loop $-1 $-1 $271 $100 #
plane-surface $-1 3.517178991258497 63.940986939964006 114.17350351660635 -1 0 0 0 0.74314483375859142 0.66913059716165679 forward_v I I I I #
coedge $-1 $272 $273 $274 $275 reversed $101 $-1 #
coedge $-1 $167 $103 $276 $277 reversed $65 $-1 #
coedge $-1 $103 $166 $272 $278 reversed $65 $-1 #
coedge $-1 $274 $279 $103 $169 forward $280 $-1 #
edge $-1 $281 2.6858999308207778 $282 8.8468768759031775 $168 $283 forward 7 unknown #
loop $-1 $-1 $175 $104 #
plane-surface $-1 -2.5775251114037729 -9.9058415858294637 47.681522108295312 0 0.74314483375859142 0.66913059716165679 1 0 0 forward_v I I I I #
loop $-1 $-1 $284 $67 #
coedge $-1 $173 $173 $174 $285 reversed $105 $-1 #
coedge $-1 $174 $174 $173 $285 forward $107 $-1 #
coedge $-1 $175 $175 $108 $176 forward $170 $-1 #
edge $-1 $286 2.1142780346562591e-015 $286 6.2831853071796022 $175 $287 forward 7 unknown #
loop $-1 $-1 $182 $109 #
plane-surface $-1 -2.5775251114037729 -9.9058415858294637 47.681522108295312 0 0.74314483375859142 0.66913059716165679 1 0 0 forward_v I I I I #
loop $-1 $-1 $288 $70 #
coedge $-1 $180 $180 $181 $289 reversed $110 $-1 #
coedge $-1 $181 $181 $180 $289 forward $112 $-1 #
coedge $-1 $182 $182 $113 $183 forward $177 $-1 #
edge $-1 $290 2.1142780346562591e-015 $290 6.2831853071796022 $182 $291 forward 7 unknown #
loop $-1 $-1 $189 $114 #
plane-surface $-1 -2.5775251114037729 -9.9058415858294637 47.681522108295312 0 0.74314483375859142 0.66913059716165679 1 0 0 forward_v I I I I #
loop $-1 $-1 $292 $73 #
coedge $-1 $187 $187 $188 $293 reversed $115 $-1 #
coedge $-1 $188 $188 $187 $293 forward $117 $-1 #
coedge $-1 $189 $189 $118 $190 forward $184 $-1 #
edge $-1 $294 2.1142780346562591e-015 $294 6.2831853071796022 $189 $295 forward 7 unknown #
face $-1 $296 $297 $40 $-1 $298 forward single #
loop $-1 $-1 $299 $119 #
plane-surface $-1 -8.6722292140660429 -103.13142206495468 70.648114721910574 1 0 0 0 0.74314483375859142 -0.66913059716165679 forward_v I I I I #
coedge $-1 $300 $301 $302 $303 reversed $120 $-1 #
coedge $-1 $196 $122 $304 $305 reversed $77 $-1 #
coedge $-1 $122 $195 $300 $306 reversed $77 $-1 #
coedge $-1 $302 $307 $122 $198 forward $297 $-1 #
edge $-1 $308 22.281117493316113 $309 28.442094438398527 $197 $310 forward 7 unknown #
loop $-1 $-1 $204 $123 #
plane-surface $-1 -2.5775251114037729 -29.284593539161207 4.1561333135995397 0 -0.74314483375859142 0.66913059716165679 1 0 0 forward_v I I I I #
loop $-1 $-1 $311 $79 #
coedge $-1 $202 $202 $203 $312 reversed $124 $-1 #
coedge $-1 $203 $203 $202 $312 forward $126 $-1 #
coedge $-1 $204 $204 $127 $205 forward $199 $-1 #
edge $-1 $313 -1.1912814398163355e-015 $313 6.2831853071795996 $204 $314 forward 7 unknown #
loop $-1 $-1 $211 $128 #
plane-surface $-1 -2.5775251114037729 -29.284593539161207 4.1561333135995397 0 -0.74314483375859142 0.66913059716165679 1 0 0 forward_v I I I I #
loop $-1 $-1 $315 $82 #
coedge $-1 $209 $209 $210 $316 reversed $129 $-1 #
coedge $-1 $210 $210 $209 $316 forward $131 $-1 #
coedge $-1 $211 $211 $132 $212 forward $206 $-1 #
edge $-1 $317 -1.1912814398163355e-015 $317 6.2831853071795996 $211 $318 forward 7 unknown #
loop $-1 $-1 $218 $133 #
plane-surface $-1 -2.5775251114037729 -29.284593539161207 4.1561333135995397 0 -0.74314483375859142 0.66913059716165679 1 0 0 forward_v I I I I #
loop $-1 $-1 $319 $85 #
coedge $-1 $216 $216 $217 $320 reversed $134 $-1 #
coedge $-1 $217 $217 $216 $320 forward $136 $-1 #
coedge $-1 $218 $218 $137 $219 forward $213 $-1 #
edge $-1 $321 -1.1912814398163355e-015 $321 6.2831853071795996 $218 $322 forward 7 unknown #
face $-1 $323 $324 $33 $-1 $325 reversed single #
loop $-1 $-1 $326 $138 #
plane-surface $-1 -49.685354167302471 0 0 1 0 0 0 0 -1 forward_v I I I I #
coedge $-1 $327 $231 $326 $328 forward $139 $-1 #
coedge $-1 $329 $141 $327 $330 forward $89 $-1 #
coedge $-1 $141 $329 $331 $332 forward $89 $-1 #
coedge $-1 $234 $233 $141 $227 reversed $235 $-1 #
edge $-1 $333 -29.284593539161225 $334 29.284593539161225 $226 $335 forward 7 unknown #
coedge $-1 $143 $142 $336 $337 forward $56 $-1 #
coedge $-1 $338 $339 $142 $230 reversed $324 $-1 #
edge $-1 $237 -49.685354167302471 $340 49.685354167302471 $229 $341 forward 7 unknown #
coedge $-1 $223 $342 $143 $232 reversed $139 $-1 #
edge $-1 $343 -49.685354167302471 $236 49.685354167302471 $231 $344 forward 7 unknown #
coedge $-1 $226 $144 $342 $345 forward $235 $-1 #
coedge $-1 $144 $226 $338 $346 reversed $235 $-1 #
loop $-1 $-1 $234 $323 #
vertex $-1 $145 $347 #
vertex $-1 $145 $348 #
straight-curve $-1 49.685354167302471 0 10.998591582680367 0 1 0 I I #
face $-1 $349 $350 $34 $-1 $351 reversed single #
loop $-1 $-1 $352 $146 #
plane-surface $-1 -62.98194549647615 0 -9.4985915826803673 1 0 0 0 0 -1 forward_v I I I I #
coedge $-1 $353 $149 $354 $355 reversed $93 $-1 #
coedge $-1 $149 $353 $248 $356 reversed $93 $-1 #
edge $-1 $250 7.9985915826803673 $357 10.998591582680367 $149 $358 forward 7 unknown #
coedge $-1 $151 $150 $359 $360 reversed $59 $-1 #
coedge $-1 $361 $362 $150 $247 forward $363 $-1 #
edge $-1 $364 -10.998591582680367 $251 -7.9985915826803673 $246 $365 forward 7 unknown #
coedge $-1 $366 $152 $243 $356 forward $147 $-1 #
coedge $-1 $152 $366 $361 $367 forward $147 $-1 #
vertex $-1 $244 $368 #
vertex $-1 $367 $369 #
straight-curve $-1 -49.685354167302471 0 -7.9985915826803673 0 -1 0 I I #
face $-1 $370 $371 $35 $-1 $372 reversed single #
loop $-1 $-1 $373 $154 #
plane-surface $-1 62.98194549647615 0 -9.4985915826803673 -1 0 0 0 0 1 forward_v I I I I #
coedge $-1 $264 $263 $374 $375 forward $155 $-1 #
coedge $-1 $376 $157 $264 $377 reversed $97 $-1 #
coedge $-1 $157 $376 $378 $379 reversed $97 $-1 #
edge $-1 $380 -10.998591582680367 $266 -7.9985915826803673 $157 $381 forward 7 unknown #
coedge $-1 $159 $158 $382 $383 reversed $62 $-1 #
coedge $-1 $384 $385 $159 $262 forward $386 $-1 #
edge $-1 $265 7.9985915826803673 $387 10.998591582680367 $261 $388 forward 7 unknown #
coedge $-1 $256 $160 $385 $389 forward $155 $-1 #
coedge $-1 $160 $256 $257 $377 forward $155 $-1 #
vertex $-1 $262 $390 #
vertex $-1 $377 $391 #
straight-curve $-1 49.685354167302471 0 -7.9985915826803673 0 1 0 I I #
face $-1 $-1 $280 $36 $-1 $392 forward single #
loop $-1 $-1 $393 $162 #
plane-surface $-1 0 29.284593539161225 0 0 -1 0 0 0 -1 forward_v I I I I #
coedge $-1 $394 $395 $396 $397 reversed $163 $-1 #
coedge $-1 $398 $165 $167 $278 forward $101 $-1 #
coedge $-1 $165 $398 $394 $399 forward $101 $-1 #
coedge $-1 $396 $168 $165 $275 forward $280 $-1 #
edge $-1 $282 -7.3834666583641564 $400 4.8059415469603834 $274 $401 forward 7 unknown #
coedge $-1 $402 $403 $166 $277 forward $269 $-1 #
edge $-1 $404 -52.930618444703626 $281 -46.088160175622804 $276 $405 forward 7 unknown #
edge $-1 $282 49.361751383084076 $404 58.569187078322429 $167 $406 forward 7 unknown #
coedge $-1 $168 $396 $402 $407 forward $280 $-1 #
loop $-1 $-1 $396 $268 #
vertex $-1 $277 $408 #
vertex $-1 $169 $409 #
straight-curve $-1 -8.6722292140660429 31.970493469982003 10.998591582680369 0 -1 0 I I #
coedge $-1 $284 $284 $-1 $410 reversed $172 $-1 #
edge $-1 $411 0 $411 6.2831853071796004 $173 $412 forward 7 unknown #
vertex $-1 $176 $413 #
ellipse-curve $-1 -6.2343475730011377 26.204105066620023 7.5773624481399509 0 0.74314483375859142 0.66913059716165679 1 0 0 1 I I #
coedge $-1 $288 $288 $-1 $414 reversed $179 $-1 #
edge $-1 $415 0 $415 6.2831853071796004 $180 $416 forward 7 unknown #
vertex $-1 $183 $417 #
ellipse-curve $-1 -2.5775251114037729 26.204105066620023 7.5773624481399509 0 0.74314483375859142 0.66913059716165679 1 0 0 1 I I #
coedge $-1 $292 $292 $-1 $418 reversed $186 $-1 #
edge $-1 $419 0 $419 6.2831853071796004 $187 $420 forward 7 unknown #
vertex $-1 $190 $421 #
ellipse-curve $-1 1.0792973501935919 26.204105066620023 7.5773624481399509 0 0.74314483375859142 0.66913059716165679 1 0 0 1 I I #
face $-1 $-1 $422 $40 $-1 $423 reversed single #
loop $-1 $-1 $197 $191 #
plane-surface $-1 0 0 10.998591582680367 0 0 1 1 0 0 forward_v I I I I #
coedge $-1 $424 $425 $426 $427 reversed $192 $-1 #
coedge $-1 $428 $194 $196 $306 forward $120 $-1 #
coedge $-1 $194 $428 $424 $429 forward $120 $-1 #
coedge $-1 $426 $197 $194 $303 forward $297 $-1 #
edge $-1 $309 -4.8059415469603834 $430 7.3834666583641564 $302 $431 forward 7 unknown #
coedge $-1 $432 $433 $195 $305 forward $422 $-1 #
edge $-1 $434 -31.167924047355768 $308 -24.325465778274918 $304 $435 forward 7 unknown #
edge $-1 $309 -9.2074356952383543 $434 2.6407141616433227e-014 $196 $436 forward 7 unknown #
coedge $-1 $197 $426 $432 $437 forward $297 $-1 #
vertex $-1 $305 $438 #
vertex $-1 $198 $439 #
straight-curve $-1 3.517178991258497 -51.565711032477338 10.998591582680369 0 1 0 I I #
coedge $-1 $311 $311 $-1 $440 reversed $201 $-1 #
edge $-1 $441 0 $441 6.2831853071796004 $202 $442 forward 7 unknown #
vertex $-1 $205 $443 #
ellipse-curve $-1 -6.2343475730011377 -26.204105066620016 7.5773624481399464 0 -0.74314483375859142 0.66913059716165679 1 0 0 1 I I #
coedge $-1 $315 $315 $-1 $444 reversed $208 $-1 #
edge $-1 $445 0 $445 6.2831853071796004 $209 $446 forward 7 unknown #
vertex $-1 $212 $447 #
ellipse-curve $-1 -2.5775251114037729 -26.204105066620016 7.5773624481399464 0 -0.74314483375859142 0.66913059716165679 1 0 0 1 I I #
coedge $-1 $319 $319 $-1 $448 reversed $215 $-1 #
edge $-1 $449 0 $449 6.2831853071796004 $216 $450 forward 7 unknown #
vertex $-1 $219 $451 #
ellipse-curve $-1 1.0792973501935919 -26.204105066620016 7.5773624481399464 0 -0.74314483375859142 0.66913059716165679 1 0 0 1 I I #
face $-1 $-1 $235 $33 $-1 $452 reversed single #
loop $-1 $-1 $338 $220 #
plane-surface $-1 0 29.284593539161225 0 0 -1 0 0 0 -1 forward_v I I I I #
coedge $-1 $336 $453 $223 $328 reversed $221 $-1 #
coedge $-1 $342 $223 $224 $330 reversed $139 $-1 #
edge $-1 $343 -10.998591582680367 $454 10.998591582680367 $326 $455 forward 7 unknown #
coedge $-1 $225 $224 $453 $456 forward $89 $-1 #
edge $-1 $334 -49.685354167302471 $454 49.685354167302471 $327 $457 forward 7 unknown #
coedge $-1 $339 $338 $225 $332 reversed $324 $-1 #
edge $-1 $458 -49.685354167302471 $333 49.685354167302471 $331 $459 forward 7 unknown #
vertex $-1 $227 $460 #
vertex $-1 $345 $461 #
straight-curve $-1 49.685354167302471 0 -10.998591582680367 0 -1 0 I I #
coedge $-1 $462 $326 $228 $337 reversed $221 $-1 #
edge $-1 $340 -29.284593539161225 $343 29.284593539161225 $336 $463 forward 7 unknown #
coedge $-1 $331 $229 $234 $346 forward $324 $-1 #
coedge $-1 $229 $331 $462 $464 reversed $324 $-1 #
vertex $-1 $230 $465 #
straight-curve $-1 0 29.284593539161225 10.998591582680367 -1 0 0 I I #
coedge $-1 $231 $327 $233 $345 reversed $139 $-1 #
vertex $-1 $337 $466 #
straight-curve $-1 0 -29.284593539161225 10.998591582680367 1 0 0 I I #
edge $-1 $236 -10.998591582680367 $334 10.998591582680367 $233 $467 forward 7 unknown #
edge $-1 $237 -10.998591582680367 $333 10.998591582680367 $234 $468 forward 7 unknown #
point $-1 49.685354167302471 -29.284593539161225 10.998591582680367 #
point $-1 49.685354167302471 29.284593539161225 10.998591582680367 #
face $-1 $-1 $363 $34 $-1 $469 reversed single #
loop $-1 $-1 $359 $239 #
plane-surface $-1 0 0 -10.998591582680367 0 0 1 1 0 0 forward_v I I I I #
coedge $-1 $470 $471 $353 $472 forward $240 $-1 #
coedge $-1 $243 $242 $352 $472 reversed $93 $-1 #
coedge $-1 $359 $473 $242 $355 forward $350 $-1 #
edge $-1 $474 -62.98194549647615 $357 -49.685354167302471 $242 $475 forward 7 unknown #
edge $-1 $250 -6.6482956645868398 $476 6.6482956645868398 $243 $477 forward 7 unknown #
vertex $-1 $244 $478 #
straight-curve $-1 -49.685354167302471 29.284593539161225 0 0 0 -1 I I #
coedge $-1 $479 $354 $245 $360 forward $350 $-1 #
edge $-1 $357 -29.284593539161225 $364 29.284593539161225 $359 $480 forward 7 unknown #
coedge $-1 $481 $246 $249 $367 reversed $363 $-1 #
coedge $-1 $246 $481 $479 $482 reversed $363 $-1 #
loop $-1 $-1 $246 $349 #
vertex $-1 $482 $483 #
straight-curve $-1 -49.685354167302471 -29.284593539161225 0 0 0 1 I I #
coedge $-1 $249 $248 $471 $484 forward $147 $-1 #
edge $-1 $485 -6.6482956645868398 $251 6.6482956645868398 $361 $486 forward 7 unknown #
point $-1 -49.685354167302471 29.284593539161225 -7.9985915826803673 #
point $-1 -49.685354167302471 -29.284593539161225 -7.9985915826803673 #
face $-1 $-1 $386 $35 $-1 $487 reversed single #
loop $-1 $-1 $382 $253 #
plane-surface $-1 0 0 -10.998591582680367 0 0 1 1 0 0 forward_v I I I I #
coedge $-1 $488 $374 $489 $490 forward $254 $-1 #
coedge $-1 $373 $491 $256 $375 reversed $254 $-1 #
edge $-1 $492 -29.284593539161225 $493 29.284593539161225 $374 $494 forward 7 unknown #
coedge $-1 $258 $257 $491 $495 forward $97 $-1 #
edge $-1 $493 -6.6482956645868398 $266 6.6482956645868398 $257 $496 forward 7 unknown #
coedge $-1 $497 $382 $258 $379 forward $371 $-1 #
edge $-1 $380 -6.6482956645868398 $498 6.6482956645868398 $258 $499 forward 7 unknown #
vertex $-1 $379 $500 #
straight-curve $-1 49.685354167302471 29.284593539161225 0 0 0 1 I I #
coedge $-1 $378 $501 $260 $383 forward $371 $-1 #
edge $-1 $387 -29.284593539161225 $380 29.284593539161225 $382 $502 forward 7 unknown #
coedge $-1 $489 $261 $501 $503 reversed $386 $-1 #
coedge $-1 $261 $489 $263 $389 reversed $386 $-1 #
loop $-1 $-1 $261 $370 #
vertex $-1 $262 $504 #
straight-curve $-1 49.685354167302471 -29.284593539161225 0 0 0 -1 I I #
edge $-1 $265 -6.6482956645868398 $492 6.6482956645868398 $385 $505 forward 7 unknown #
point $-1 49.685354167302471 -29.284593539161225 -7.9985915826803673 #
point $-1 49.685354167302471 29.284593539161225 -7.9985915826803673 #
plane-surface $-1 0 0 10.998591582680367 0 0 1 1 0 0 forward_v I I I I #
coedge $-1 $403 $402 $395 $506 forward $269 $-1 #
coedge $-1 $395 $271 $273 $399 reversed $163 $-1 #
coedge $-1 $271 $394 $393 $506 reversed $163 $-1 #
coedge $-1 $279 $274 $271 $397 forward $280 $-1 #
edge $-1 $400 -8.8468768759031775 $507 -2.6858999308207778 $396 $508 forward 7 unknown #
coedge $-1 $273 $272 $403 $509 reversed $101 $-1 #
edge $-1 $510 -58.569187078322429 $400 -49.361751383084076 $394 $511 forward 7 unknown #
vertex $-1 $275 $512 #
straight-curve $-1 -1.2887625557018865 23.123616594078825 10.998591582680369 1 0 0 I I #
coedge $-1 $393 $276 $279 $407 reversed $269 $-1 #
coedge $-1 $276 $393 $398 $509 forward $269 $-1 #
vertex $-1 $277 $513 #
straight-curve $-1 -8.6722292140660429 29.284593539161225 57.086751758303173 0 0 1 I I #
straight-curve $-1 -8.6722292140660429 -9.9058415858294637 47.681522108295312 0 0.66913059716165679 -0.74314483375859142 I I #
edge $-1 $507 -3.517178991258497 $281 8.6722292140660429 $402 $514 forward 7 unknown #
point $-1 -8.6722292140660429 29.284593539161225 10.998591582680367 #
point $-1 -8.6722292140660429 23.123616594078825 10.998591582680369 #
edge $-1 $515 1 $515 0 $284 $-1 forward 7 unknown #
vertex $-1 $285 $516 #
ellipse-curve $-1 -6.2343475730011377 24.662454318161512 6.189253913880985 0 0.74314483375859142 0.66913059716165679 1 0 0 1 I I #
point $-1 -5.2343475730011377 26.204105066620031 7.5773624481399544 #
edge $-1 $517 1 $517 0 $288 $-1 forward 7 unknown #
vertex $-1 $289 $518 #
ellipse-curve $-1 -2.5775251114037729 24.662454318161512 6.189253913880985 0 0.74314483375859142 0.66913059716165679 1 0 0 1 I I #
point $-1 -1.5775251114037729 26.204105066620031 7.5773624481399544 #
edge $-1 $519 1 $519 0 $292 $-1 forward 7 unknown #
vertex $-1 $293 $520 #
ellipse-curve $-1 1.0792973501935919 24.662454318161512 6.189253913880985 0 0.74314483375859142 0.66913059716165679 1 0 0 1 I I #
point $-1 2.0792973501935919 26.204105066620031 7.5773624481399544 #
loop $-1 $-1 $304 $296 #
plane-surface $-1 0 -29.284593539161225 0 0 1 0 0 0 1 forward_v I I I I #
coedge $-1 $425 $299 $301 $429 reversed $192 $-1 #
coedge $-1 $299 $424 $521 $522 reversed $192 $-1 #
coedge $-1 $307 $302 $299 $427 forward $297 $-1 #
edge $-1 $430 -28.442094438398527 $523 -22.281117493316113 $426 $524 forward 7 unknown #
coedge $-1 $301 $300 $433 $525 reversed $120 $-1 #
edge $-1 $526 -2.6407141616433227e-014 $430 9.2074356952383543 $424 $527 forward 7 unknown #
vertex $-1 $303 $528 #
straight-curve $-1 -1.2887625557018865 -23.123616594078811 10.998591582680367 -1 0 0 I I #
coedge $-1 $521 $304 $307 $437 reversed $422 $-1 #
coedge $-1 $304 $521 $428 $525 forward $422 $-1 #
vertex $-1 $305 $529 #
straight-curve $-1 3.517178991258497 -29.284593539161222 35.324057360955287 0 0 1 I I #
straight-curve $-1 3.517178991258497 -29.284593539161207 4.1561333135995397 0 -0.66913059716165679 -0.74314483375859142 I I #
edge $-1 $523 -8.6722292140660429 $308 3.517178991258497 $432 $530 forward 7 unknown #
point $-1 3.517178991258497 -29.284593539161225 10.998591582680367 #
point $-1 3.517178991258497 -23.123616594078811 10.998591582680367 #
edge $-1 $531 1 $531 0 $311 $-1 forward 7 unknown #
vertex $-1 $312 $532 #
ellipse-curve $-1 -6.2343475730011377 -24.662454318161508 6.189253913880985 0 -0.74314483375859142 0.66913059716165679 1 0 0 1 I I #
point $-1 -5.2343475730011377 -26.204105066620027 7.5773624481399544 #
edge $-1 $533 1 $533 0 $315 $-1 forward 7 unknown #
vertex $-1 $316 $534 #
ellipse-curve $-1 -2.5775251114037729 -24.662454318161508 6.189253913880985 0 -0.74314483375859142 0.66913059716165679 1 0 0 1 I I #
point $-1 -1.5775251114037729 -26.204105066620027 7.5773624481399544 #
edge $-1 $535 1 $535 0 $319 $-1 forward 7 unknown #
vertex $-1 $320 $536 #
ellipse-curve $-1 1.0792973501935919 -24.662454318161508 6.189253913880985 0 -0.74314483375859142 0.66913059716165679 1 0 0 1 I I #
point $-1 2.0792973501935919 -26.204105066620027 7.5773624481399544 #
plane-surface $-1 49.685354167302471 0 0 -1 0 0 0 0 1 forward_v I I I I #
coedge $-1 $326 $462 $329 $456 reversed $221 $-1 #
vertex $-1 $456 $537 #
straight-curve $-1 -49.685354167302471 -29.284593539161225 0 0 0 -1 I I #
edge $-1 $454 -29.284593539161225 $458 29.284593539161225 $453 $538 forward 7 unknown #
straight-curve $-1 0 -29.284593539161225 -10.998591582680367 -1 0 0 I I #
vertex $-1 $332 $539 #
straight-curve $-1 0 29.284593539161225 -10.998591582680367 1 0 0 I I #
point $-1 49.685354167302471 29.284593539161225 -10.998591582680367 #
point $-1 49.685354167302471 -29.284593539161225 -10.998591582680367 #
coedge $-1 $453 $336 $339 $464 forward $221 $-1 #
straight-curve $-1 -49.685354167302471 0 10.998591582680367 0 -1 0 I I #
edge $-1 $340 -10.998591582680367 $458 10.998591582680367 $339 $540 forward 7 unknown #
point $-1 -49.685354167302471 29.284593539161225 10.998591582680367 #
point $-1 -49.685354167302471 -29.284593539161225 10.998591582680367 #
straight-curve $-1 49.685354167302471 -29.284593539161225 0 0 0 -1 I I #
straight-curve $-1 49.685354167302471 29.284593539161225 0 0 0 -1 I I #
plane-surface $-1 0 -29.284593539161225 0 0 1 0 0 0 1 forward_v I I I I #
coedge $-1 $541 $352 $473 $542 reversed $240 $-1 #
coedge $-1 $352 $541 $366 $484 reversed $240 $-1 #
edge $-1 $476 -1.5 $474 1.5 $353 $543 forward 7 unknown #
coedge $-1 $354 $479 $470 $542 forward $350 $-1 #
vertex $-1 $355 $544 #
straight-curve $-1 0 29.284593539161225 -10.998591582680367 1 0 0 I I #
vertex $-1 $356 $545 #
straight-curve $-1 -56.333649831889311 29.284593539161225 -7.9985915826803673 -1 0 0 I I #
point $-1 -49.685354167302471 29.284593539161225 -10.998591582680367 #
coedge $-1 $473 $359 $362 $482 forward $350 $-1 #
straight-curve $-1 -49.685354167302471 0 -10.998591582680367 0 -1 0 I I #
coedge $-1 $362 $361 $541 $546 forward $363 $-1 #
edge $-1 $364 -6.6482956645868398 $547 6.6482956645868398 $362 $548 forward 7 unknown #
point $-1 -49.685354167302471 -29.284593539161225 -10.998591582680367 #
edge $-1 $476 -29.284593539161225 $485 29.284593539161225 $471 $549 forward 7 unknown #
vertex $-1 $484 $550 #
straight-curve $-1 -56.333649831889311 -29.284593539161225 -7.9985915826803673 1 0 0 I I #
plane-surface $-1 0 -29.284593539161225 0 0 1 0 0 0 1 forward_v I I I I #
coedge $-1 $491 $373 $497 $551 reversed $254 $-1 #
coedge $-1 $385 $384 $373 $490 reversed $386 $-1 #
edge $-1 $492 -1.5 $552 1.5 $373 $553 forward 7 unknown #
coedge $-1 $374 $488 $376 $495 reversed $254 $-1 #
vertex $-1 $375 $554 #
vertex $-1 $375 $555 #
straight-curve $-1 62.98194549647615 0 -7.9985915826803673 0 1 0 I I #
edge $-1 $493 -1.5 $498 1.5 $491 $556 forward 7 unknown #
straight-curve $-1 56.333649831889311 29.284593539161225 -7.9985915826803673 -1 0 0 I I #
coedge $-1 $501 $378 $488 $551 forward $371 $-1 #
vertex $-1 $551 $557 #
straight-curve $-1 56.333649831889311 29.284593539161225 -10.998591582680367 1 0 0 I I #
point $-1 49.685354167302471 29.284593539161225 -10.998591582680367 #
coedge $-1 $382 $497 $384 $503 forward $371 $-1 #
straight-curve $-1 49.685354167302471 0 -10.998591582680367 0 1 0 I I #
edge $-1 $552 -6.6482956645868398 $387 6.6482956645868398 $384 $558 forward 7 unknown #
point $-1 49.685354167302471 -29.284593539161225 -10.998591582680367 #
straight-curve $-1 56.333649831889311 -29.284593539161225 -7.9985915826803673 1 0 0 I I #
edge $-1 $507 46.088160175622804 $510 52.930618444703626 $393 $559 forward 7 unknown #
vertex $-1 $407 $560 #
straight-curve $-1 3.517178991258497 31.970493469982003 10.998591582680369 0 1 0 I I #
edge $-1 $510 -4.8059415469603834 $404 7.3834666583641564 $403 $561 forward 7 unknown #
vertex $-1 $509 $562 #
straight-curve $-1 3.517178991258497 -9.9058415858294637 47.681522108295312 0 -0.66913059716165679 0.74314483375859142 I I #
point $-1 3.517178991258497 23.123616594078825 10.998591582680369 #
point $-1 -8.6722292140660429 29.284593539161222 4.1561333135995469 #
straight-curve $-1 0 29.284593539161225 10.998591582680367 -1 0 0 I I #
vertex $-1 $410 $563 #
point $-1 -5.2343475730011377 24.662454318161512 6.189253913880985 #
vertex $-1 $414 $564 #
point $-1 -1.5775251114037729 24.662454318161512 6.189253913880985 #
vertex $-1 $418 $565 #
point $-1 2.0792973501935919 24.662454318161512 6.189253913880985 #
coedge $-1 $433 $432 $425 $522 forward $422 $-1 #
edge $-1 $523 24.325465778274918 $526 31.167924047355768 $521 $566 forward 7 unknown #
vertex $-1 $437 $567 #
straight-curve $-1 -8.6722292140660429 -51.565711032477338 10.998591582680369 0 -1 0 I I #
edge $-1 $526 -7.3834666583641564 $434 4.8059415469603834 $433 $568 forward 7 unknown #
vertex $-1 $525 $569 #
straight-curve $-1 -8.6722292140660429 -29.284593539161207 4.1561333135995397 0 0.66913059716165679 0.74314483375859142 I I #
point $-1 -8.6722292140660429 -23.123616594078811 10.998591582680367 #
point $-1 3.517178991258497 -29.284593539161225 4.1561333135995202 #
straight-curve $-1 0 -29.284593539161225 10.998591582680367 1 0 0 I I #
vertex $-1 $440 $570 #
point $-1 -5.2343475730011377 -24.662454318161508 6.189253913880985 #
vertex $-1 $444 $571 #
point $-1 -1.5775251114037729 -24.662454318161508 6.189253913880985 #
vertex $-1 $448 $572 #
point $-1 2.0792973501935919 -24.662454318161508 6.189253913880985 #
point $-1 -49.685354167302471 -29.284593539161225 -10.998591582680367 #
straight-curve $-1 -49.685354167302471 0 -10.998591582680367 0 1 0 I I #
point $-1 -49.685354167302471 29.284593539161225 -10.998591582680367 #
straight-curve $-1 -49.685354167302471 29.284593539161225 0 0 0 -1 I I #
coedge $-1 $471 $470 $481 $546 reversed $240 $-1 #
edge $-1 $547 -29.284593539161225 $474 29.284593539161225 $470 $573 forward 7 unknown #
straight-curve $-1 -62.98194549647615 29.284593539161225 -9.4985915826803673 0 0 -1 I I #
point $-1 -62.98194549647615 29.284593539161225 -10.998591582680367 #
point $-1 -62.98194549647615 29.284593539161225 -7.9985915826803673 #
edge $-1 $485 -1.5 $547 1.5 $541 $574 forward 7 unknown #
vertex $-1 $542 $575 #
straight-curve $-1 -56.333649831889311 -29.284593539161225 -10.998591582680367 -1 0 0 I I #
straight-curve $-1 -62.98194549647615 0 -7.9985915826803673 0 -1 0 I I #
point $-1 -62.98194549647615 -29.284593539161225 -7.9985915826803673 #
edge $-1 $498 -29.284593539161225 $552 29.284593539161225 $488 $576 forward 7 unknown #
vertex $-1 $490 $577 #
straight-curve $-1 62.98194549647615 -29.284593539161225 -9.4985915826803673 0 0 -1 I I #
point $-1 62.98194549647615 -29.284593539161225 -7.9985915826803673 #
point $-1 62.98194549647615 29.284593539161225 -7.9985915826803673 #
straight-curve $-1 62.98194549647615 29.284593539161225 -9.4985915826803673 0 0 -1 I I #
point $-1 62.98194549647615 29.284593539161225 -10.998591582680367 #
straight-curve $-1 56.333649831889311 -29.284593539161225 -10.998591582680367 -1 0 0 I I #
straight-curve $-1 3.517178991258497 29.284593539161225 57.086751758303173 0 0 -1 I I #
point $-1 3.517178991258497 29.284593539161225 10.998591582680367 #
straight-curve $-1 -1.2887625557018865 29.284593539161222 4.1561333135995469 -1 0 0 I I #
point $-1 3.517178991258497 29.284593539161222 4.1561333135995469 #
point $-1 -6.2343475730011377 23.91930948440292 5.5201233167193289 #
point $-1 -2.5775251114037729 23.91930948440292 5.5201233167193289 #
point $-1 1.0792973501935919 23.91930948440292 5.5201233167193289 #
straight-curve $-1 -8.6722292140660429 -29.284593539161222 35.324057360955287 0 0 -1 I I #
point $-1 -8.6722292140660429 -29.284593539161225 10.998591582680367 #
straight-curve $-1 -1.2887625557018865 -29.284593539161225 4.1561333135995175 1 0 0 I I #
point $-1 -8.6722292140660429 -29.284593539161225 4.1561333135995202 #
point $-1 -6.2343475730011377 -23.919309484402916 5.5201233167193289 #
point $-1 -2.5775251114037729 -23.919309484402916 5.5201233167193289 #
point $-1 1.0792973501935919 -23.919309484402916 5.5201233167193289 #
straight-curve $-1 -62.98194549647615 0 -10.998591582680367 0 1 0 I I #
straight-curve $-1 -62.98194549647615 -29.284593539161225 -9.4985915826803673 0 0 -1 I I #
point $-1 -62.98194549647615 -29.284593539161225 -10.998591582680367 #
straight-curve $-1 62.98194549647615 0 -10.998591582680367 0 -1 0 I I #
point $-1 62.98194549647615 -29.284593539161225 -10.998591582680367 #
End-of-ACIS-data 