500 0 2 0           
7 Unknown 11 ACIS 5.0 NT 24 Fri Mar 26 00:33:12 1999 
-1 9.9999999999999995e-007 1e-010 
body $-1 $2 $-1 $3 #
body $-1 $4 $-1 $5 #
lump $-1 $-1 $6 $0 #
transform $-1 1 0 0 0 1 0 0 0 1 51.255226294747764 35.652470298708437 14.396560426964045 1 rotate no_reflect no_shear #
lump $-1 $-1 $7 $1 #
transform $-1 1 0 0 0 1 0 0 0 1 51.255226294747764 35.652470298708437 14.396560426964045 1 rotate no_reflect no_shear #
shell $-1 $-1 $-1 $8 $-1 $2 #
shell $-1 $-1 $-1 $9 $-1 $4 #
face $-1 $10 $11 $6 $-1 $12 forward single #
face $-1 $13 $14 $7 $-1 $15 reversed single #
face $-1 $16 $17 $6 $-1 $18 reversed single #
loop $-1 $-1 $19 $8 #
plane-surface $-1 0 0 14.396560426964045 0 0 1 1 0 0 forward_v I I I I #
face $-1 $20 $21 $7 $-1 $22 forward single #
loop $-1 $-1 $23 $9 #
plane-surface $-1 -43.935875608190571 0 -7.4916419309747422 0 0 1 1 0 0 forward_v I I I I #
face $-1 $24 $25 $6 $-1 $26 reversed single #
loop $-1 $-1 $27 $10 #
plane-surface $-1 0 0 -14.396560426964045 0 0 1 1 0 0 forward_v I I I I #
coedge $-1 $28 $29 $30 $31 forward $11 $-1 #
face $-1 $32 $33 $7 $-1 $34 reversed single #
loop $-1 $-1 $35 $13 #
plane-surface $-1 -36.616524921633371 0 -10.944101178969394 -1 0 0 0 0 1 forward_v I I I I #
coedge $-1 $36 $37 $38 $39 reversed $14 $-1 #
face $-1 $40 $41 $6 $-1 $42 reversed single #
loop $-1 $-1 $43 $16 #
plane-surface $-1 0 -35.652470298708437 0 0 1 0 0 0 1 forward_v I I I I #
coedge $-1 $44 $45 $46 $47 forward $17 $-1 #
coedge $-1 $48 $19 $49 $50 forward $11 $-1 #
coedge $-1 $19 $48 $51 $52 forward $11 $-1 #
coedge $-1 $53 $54 $19 $31 reversed $55 $-1 #
edge $-1 $56 -35.652470298708437 $57 35.652470298708437 $30 $58 forward 7 unknown #
face $-1 $59 $60 $7 $-1 $61 reversed single #
loop $-1 $-1 $62 $20 #
plane-surface $-1 -51.255226294747764 0 0 1 0 0 0 0 -1 forward_v I I I I #
coedge $-1 $38 $63 $64 $65 reversed $21 $-1 #
coedge $-1 $66 $23 $67 $68 reversed $14 $-1 #
coedge $-1 $23 $66 $69 $70 reversed $14 $-1 #
coedge $-1 $71 $35 $23 $39 forward $21 $-1 #
edge $-1 $72 -35.652470298708437 $73 35.652470298708437 $38 $74 forward 7 unknown #
face $-1 $75 $76 $6 $-1 $77 reversed single #
loop $-1 $-1 $78 $24 #
plane-surface $-1 -51.255226294747764 0 0 1 0 0 0 0 -1 forward_v I I I I #
coedge $-1 $79 $51 $80 $81 forward $25 $-1 #
coedge $-1 $82 $27 $79 $83 forward $17 $-1 #
coedge $-1 $27 $82 $84 $85 forward $17 $-1 #
coedge $-1 $54 $53 $27 $47 reversed $55 $-1 #
edge $-1 $86 -35.652470298708437 $87 35.652470298708437 $46 $88 forward 7 unknown #
coedge $-1 $29 $28 $89 $90 forward $11 $-1 #
coedge $-1 $91 $92 $28 $50 reversed $76 $-1 #
edge $-1 $57 -51.255226294747764 $93 51.255226294747764 $49 $94 forward 7 unknown #
coedge $-1 $43 $95 $29 $52 reversed $25 $-1 #
edge $-1 $96 -51.255226294747764 $56 51.255226294747764 $51 $97 forward 7 unknown #
coedge $-1 $46 $30 $95 $98 forward $55 $-1 #
coedge $-1 $30 $46 $91 $99 reversed $55 $-1 #
loop $-1 $-1 $53 $75 #
vertex $-1 $31 $100 #
vertex $-1 $31 $101 #
straight-curve $-1 51.255226294747764 0 14.396560426964045 0 1 0 I I #
face $-1 $102 $103 $7 $-1 $104 forward single #
loop $-1 $-1 $67 $32 #
plane-surface $-1 0 -35.652470298708437 0 0 1 0 0 0 1 forward_v I I I I #
coedge $-1 $105 $106 $66 $107 forward $33 $-1 #
coedge $-1 $35 $71 $108 $109 reversed $21 $-1 #
coedge $-1 $110 $67 $35 $65 forward $60 $-1 #
edge $-1 $72 2.0195913414900453 $111 8.9245098374793486 $64 $112 forward 7 unknown #
coedge $-1 $37 $36 $62 $107 reversed $14 $-1 #
coedge $-1 $64 $113 $36 $68 forward $60 $-1 #
edge $-1 $114 -29.287288490652486 $72 -14.648587117538085 $67 $115 forward 7 unknown #
coedge $-1 $116 $117 $37 $70 forward $118 $-1 #
edge $-1 $73 14.648587117538085 $119 29.287288490652486 $69 $120 forward 7 unknown #
coedge $-1 $63 $38 $117 $121 reversed $21 $-1 #
vertex $-1 $68 $122 #
vertex $-1 $70 $123 #
straight-curve $-1 -36.616524921633371 0 -7.4916419309747422 0 1 0 I I #
face $-1 $-1 $55 $6 $-1 $124 reversed single #
loop $-1 $-1 $91 $40 #
plane-surface $-1 0 35.652470298708437 0 0 -1 0 0 0 -1 forward_v I I I I #
coedge $-1 $125 $89 $92 $126 forward $41 $-1 #
coedge $-1 $95 $43 $44 $83 reversed $25 $-1 #
coedge $-1 $89 $125 $43 $81 reversed $41 $-1 #
edge $-1 $96 -14.396560426964045 $127 14.396560426964045 $80 $128 forward 7 unknown #
coedge $-1 $45 $44 $125 $129 forward $17 $-1 #
edge $-1 $87 -51.255226294747764 $127 51.255226294747764 $79 $130 forward 7 unknown #
coedge $-1 $92 $91 $45 $85 reversed $76 $-1 #
edge $-1 $131 -51.255226294747764 $86 51.255226294747764 $84 $132 forward 7 unknown #
vertex $-1 $47 $133 #
vertex $-1 $98 $134 #
straight-curve $-1 51.255226294747764 0 -14.396560426964045 0 -1 0 I I #
coedge $-1 $78 $80 $48 $90 reversed $41 $-1 #
edge $-1 $93 -35.652470298708437 $96 35.652470298708437 $89 $135 forward 7 unknown #
coedge $-1 $84 $49 $54 $99 forward $76 $-1 #
coedge $-1 $49 $84 $78 $126 reversed $76 $-1 #
vertex $-1 $50 $136 #
straight-curve $-1 0 35.652470298708437 14.396560426964045 -1 0 0 I I #
coedge $-1 $51 $79 $53 $98 reversed $25 $-1 #
vertex $-1 $90 $137 #
straight-curve $-1 0 -35.652470298708437 14.396560426964045 1 0 0 I I #
edge $-1 $56 -14.396560426964045 $87 14.396560426964045 $53 $138 forward 7 unknown #
edge $-1 $57 -14.396560426964045 $86 14.396560426964045 $54 $139 forward 7 unknown #
point $-1 51.255226294747764 -35.652470298708437 14.396560426964045 #
point $-1 51.255226294747764 35.652470298708437 14.396560426964045 #
face $-1 $140 $141 $7 $-1 $142 reversed single #
loop $-1 $-1 $143 $59 #
plane-surface $-1 0 0 14.396560426964045 0 0 1 1 0 0 forward_v I I I I #
coedge $-1 $144 $62 $113 $145 reversed $33 $-1 #
coedge $-1 $62 $144 $116 $146 forward $33 $-1 #
edge $-1 $119 -35.652470298708437 $114 35.652470298708437 $62 $147 forward 7 unknown #
coedge $-1 $148 $149 $63 $109 forward $141 $-1 #
edge $-1 $111 -35.652470298708437 $150 35.652470298708437 $108 $151 forward 7 unknown #
coedge $-1 $152 $64 $149 $153 reversed $60 $-1 #
vertex $-1 $65 $154 #
straight-curve $-1 -36.616524921633371 -35.652470298708437 -5.4720505894846969 0 0 -1 I I #
coedge $-1 $67 $155 $105 $145 forward $60 $-1 #
vertex $-1 $68 $156 #
straight-curve $-1 -21.967937804095286 -35.652470298708437 -7.4916419309747422 1 0 0 I I #
coedge $-1 $157 $69 $106 $146 reversed $118 $-1 #
coedge $-1 $69 $158 $71 $121 forward $118 $-1 #
loop $-1 $-1 $69 $140 #
vertex $-1 $107 $159 #
straight-curve $-1 -21.967937804095286 35.652470298708437 -7.4916419309747422 -1 0 0 I I #
edge $-1 $150 -8.9245098374793486 $73 -2.0195913414900453 $117 $160 forward 7 unknown #
point $-1 -36.616524921633371 -35.652470298708437 -7.4916419309747422 #
point $-1 -36.616524921633371 35.652470298708437 -7.4916419309747422 #
plane-surface $-1 51.255226294747764 0 0 -1 0 0 0 0 1 forward_v I I I I #
coedge $-1 $80 $78 $82 $129 reversed $41 $-1 #
edge $-1 $93 -14.396560426964045 $131 14.396560426964045 $92 $161 forward 7 unknown #
vertex $-1 $129 $162 #
straight-curve $-1 -51.255226294747764 -35.652470298708437 0 0 0 -1 I I #
edge $-1 $127 -35.652470298708437 $131 35.652470298708437 $125 $163 forward 7 unknown #
straight-curve $-1 0 -35.652470298708437 -14.396560426964045 -1 0 0 I I #
vertex $-1 $85 $164 #
straight-curve $-1 0 35.652470298708437 -14.396560426964045 1 0 0 I I #
point $-1 51.255226294747764 35.652470298708437 -14.396560426964045 #
point $-1 51.255226294747764 -35.652470298708437 -14.396560426964045 #
straight-curve $-1 -51.255226294747764 0 14.396560426964045 0 -1 0 I I #
point $-1 -51.255226294747764 35.652470298708437 14.396560426964045 #
point $-1 -51.255226294747764 -35.652470298708437 14.396560426964045 #
straight-curve $-1 51.255226294747764 -35.652470298708437 0 0 0 -1 I I #
straight-curve $-1 51.255226294747764 35.652470298708437 0 0 0 -1 I I #
face $-1 $165 $118 $7 $-1 $166 reversed single #
loop $-1 $-1 $108 $102 #
plane-surface $-1 0 0 -14.396560426964045 0 0 1 1 0 0 forward_v I I I I #
coedge $-1 $167 $168 $169 $170 forward $103 $-1 #
coedge $-1 $106 $105 $171 $172 reversed $33 $-1 #
edge $-1 $173 -14.396560426964045 $114 7.4916419309747422 $105 $174 forward 7 unknown #
edge $-1 $175 -14.396560426964045 $119 7.4916419309747422 $116 $176 forward 7 unknown #
straight-curve $-1 -51.255226294747764 0 -7.4916419309747422 0 -1 0 I I #
coedge $-1 $177 $108 $158 $178 forward $141 $-1 #
coedge $-1 $108 $177 $110 $153 forward $141 $-1 #
vertex $-1 $178 $179 #
straight-curve $-1 -36.616524921633371 0 -14.396560426964045 0 1 0 I I #
coedge $-1 $155 $110 $180 $181 reversed $60 $-1 #
edge $-1 $182 -51.255226294747764 $111 36.616524921633371 $110 $183 forward 7 unknown #
point $-1 -36.616524921633371 -35.652470298708437 -14.396560426964045 #
coedge $-1 $113 $152 $168 $184 reversed $60 $-1 #
point $-1 -51.255226294747771 -35.652470298708437 -7.4916419309747422 #
coedge $-1 $185 $116 $167 $186 reversed $118 $-1 #
coedge $-1 $117 $185 $148 $178 reversed $118 $-1 #
point $-1 -51.255226294747771 35.652470298708437 -7.4916419309747422 #
straight-curve $-1 -36.616524921633371 35.652470298708437 -5.4720505894846969 0 0 1 I I #
straight-curve $-1 -51.255226294747764 35.652470298708437 0 0 0 -1 I I #
point $-1 -51.255226294747764 -35.652470298708437 -14.396560426964045 #
straight-curve $-1 -51.255226294747764 0 -14.396560426964045 0 1 0 I I #
point $-1 -51.255226294747764 35.652470298708437 -14.396560426964045 #
face $-1 $-1 $187 $7 $-1 $188 reversed single #
plane-surface $-1 0 35.652470298708437 0 0 -1 0 0 0 -1 forward_v I I I I #
coedge $-1 $171 $143 $157 $186 forward $103 $-1 #
coedge $-1 $143 $171 $155 $184 forward $103 $-1 #
coedge $-1 $180 $189 $143 $170 reversed $187 $-1 #
edge $-1 $190 -35.652470298708437 $191 35.652470298708437 $169 $192 forward 7 unknown #
coedge $-1 $168 $167 $144 $172 forward $103 $-1 #
edge $-1 $175 -35.652470298708437 $173 35.652470298708437 $144 $193 forward 7 unknown #
vertex $-1 $172 $194 #
straight-curve $-1 -51.255226294747764 -35.652470298708437 0 0 0 -1 I I #
vertex $-1 $186 $195 #
straight-curve $-1 -51.255226294747764 35.652470298708437 0 0 0 -1 I I #
coedge $-1 $149 $148 $196 $197 forward $141 $-1 #
edge $-1 $150 -36.616524921633371 $198 51.255226294747764 $158 $199 forward 7 unknown #
point $-1 -36.616524921633371 35.652470298708437 -14.396560426964045 #
coedge $-1 $196 $169 $152 $181 forward $187 $-1 #
edge $-1 $190 -14.396560426964045 $182 14.396560426964045 $180 $200 forward 7 unknown #
vertex $-1 $181 $201 #
straight-curve $-1 0 -35.652470298708437 -14.396560426964045 -1 0 0 I I #
edge $-1 $173 -51.255226294747764 $190 51.255226294747764 $155 $202 forward 7 unknown #
coedge $-1 $158 $157 $189 $203 forward $118 $-1 #
edge $-1 $191 -51.255226294747764 $175 51.255226294747764 $157 $204 forward 7 unknown #
loop $-1 $-1 $180 $165 #
plane-surface $-1 51.255226294747764 0 0 -1 0 0 0 0 1 forward_v I I I I #
coedge $-1 $169 $196 $185 $203 reversed $187 $-1 #
vertex $-1 $170 $205 #
vertex $-1 $170 $206 #
straight-curve $-1 51.255226294747764 0 14.396560426964045 0 1 0 I I #
straight-curve $-1 -51.255226294747764 0 14.396560426964045 0 -1 0 I I #
point $-1 -51.255226294747764 -35.652470298708437 14.396560426964045 #
point $-1 -51.255226294747764 35.652470298708437 14.396560426964045 #
coedge $-1 $189 $180 $177 $197 reversed $187 $-1 #
edge $-1 $198 -35.652470298708437 $182 35.652470298708437 $196 $207 forward 7 unknown #
vertex $-1 $197 $208 #
straight-curve $-1 0 35.652470298708437 -14.396560426964045 1 0 0 I I #
straight-curve $-1 51.255226294747764 -35.652470298708437 0 0 0 -1 I I #
point $-1 51.255226294747764 -35.652470298708437 -14.396560426964045 #
straight-curve $-1 0 -35.652470298708437 14.396560426964045 1 0 0 I I #
edge $-1 $191 -14.396560426964045 $198 14.396560426964045 $189 $209 forward 7 unknown #
straight-curve $-1 0 35.652470298708437 14.396560426964045 -1 0 0 I I #
point $-1 51.255226294747764 -35.652470298708437 14.396560426964045 #
point $-1 51.255226294747764 35.652470298708437 14.396560426964045 #
straight-curve $-1 51.255226294747764 0 -14.396560426964045 0 -1 0 I I #
point $-1 51.255226294747764 35.652470298708437 -14.396560426964045 #
straight-curve $-1 51.255226294747764 35.652470298708437 0 0 0 -1 I I #
End-of-ACIS-data 