500 0 4 0           
7 Unknown 11 ACIS 5.0 NT 24 Fri Mar 26 19:19:19 1999 
-1 9.9999999999999995e-007 1e-010 
body $-1 $4 $-1 $5 #
body $-1 $6 $-1 $7 #
body $-1 $8 $-1 $9 #
body $-1 $10 $-1 $11 #
lump $-1 $-1 $12 $0 #
transform $-1 1 0 0 0 1 0 0 0 1 68.268684957426672 31.885249018477669 9.5400797403562496 1 rotate no_reflect no_shear #
lump $-1 $-1 $13 $1 #
transform $-1 1 0 0 0 1 0 0 0 1 68.268684957426672 31.885249018477669 9.5400797403562496 1 rotate no_reflect no_shear #
lump $-1 $-1 $14 $2 #
transform $-1 1 0 0 0 1 0 0 0 1 68.268684957426672 31.885249018477669 9.5400797403562496 1 rotate no_reflect no_shear #
lump $-1 $-1 $15 $3 #
transform $-1 1 0 0 0 1 0 0 0 1 68.268684957426672 31.885249018477669 9.5400797403562496 1 rotate no_reflect no_shear #
shell $-1 $-1 $-1 $16 $-1 $4 #
shell $-1 $-1 $-1 $17 $-1 $6 #
shell $-1 $-1 $-1 $18 $-1 $8 #
shell $-1 $-1 $-1 $19 $-1 $10 #
face $-1 $20 $21 $12 $-1 $22 forward single #
face $-1 $23 $24 $13 $-1 $25 forward single #
face $-1 $26 $27 $14 $-1 $28 reversed single #
face $-1 $29 $30 $15 $-1 $31 forward single #
face $-1 $32 $33 $12 $-1 $34 reversed single #
loop $-1 $-1 $35 $16 #
plane-surface $-1 0 0 9.5400797403562496 0 0 1 1 0 0 forward_v I I I I #
face $-1 $36 $37 $13 $-1 $38 reversed single #
loop $-1 $-1 $39 $17 #
plane-surface $-1 -68.268684957426672 0 0 1 0 0 0 0 -1 forward_v I I I I #
face $-1 $40 $41 $14 $-1 $42 reversed single #
loop $-1 $-1 $43 $18 #
plane-surface $-1 -39.32422998105335 -25.389774128398006 86.192258485001133 0.61566148304635926 0 0.78801074757464917 0.78801074757464917 0 -0.61566148304635926 forward_v I I I I #
face $-1 $44 $45 $15 $-1 $46 forward single #
loop $-1 $47 $48 $19 #
cone-surface $-1 62.73216934337038 -25.389774128398006 4.8179411092706221 -0.61566148304635926 0 -0.78801074757464917 1.1820161213619738 0 -0.92349222456953894 1 I I 0 1 1.5 forward I I I I #
face $-1 $49 $50 $12 $-1 $51 reversed single #
loop $-1 $-1 $52 $20 #
plane-surface $-1 0 0 -9.5400797403562496 0 0 1 1 0 0 forward_v I I I I #
coedge $-1 $53 $54 $55 $56 forward $21 $-1 #
face $-1 $57 $58 $13 $-1 $59 forward single #
loop $-1 $-1 $60 $23 #
plane-surface $-1 0 31.885249018477669 0 0 -1 0 0 0 -1 forward_v I I I I #
coedge $-1 $61 $62 $63 $64 forward $24 $-1 #
face $-1 $65 $66 $14 $-1 $67 forward single #
loop $-1 $-1 $68 $26 #
plane-surface $-1 44.736569671974621 -18.894299238318343 193.78517342348113 0 -1 0 -0.61566148304635926 0 -0.78801074757464917 forward_v I I I I #
coedge $-1 $69 $70 $71 $72 reversed $27 $-1 #
face $-1 $-1 $73 $15 $-1 $74 forward single #
loop $-1 $75 $76 $29 #
cone-surface $-1 61.475208690165118 -25.389774128398006 3.2091048716955424 -0.61566148304635926 0 -0.78801074757464917 0.59100806068098688 0 -0.46174611228476947 1 I I -0.70710678118654757 0.70710678118654757 0.75 forward I I I I #
loop $-1 $-1 $77 $19 #
coedge $-1 $48 $48 $78 $79 reversed $30 $-1 #
face $-1 $80 $81 $12 $-1 $82 reversed single #
loop $-1 $-1 $83 $32 #
plane-surface $-1 0 -31.885249018477669 0 0 1 0 0 0 1 forward_v I I I I #
coedge $-1 $84 $85 $86 $87 forward $33 $-1 #
coedge $-1 $88 $35 $89 $90 forward $21 $-1 #
coedge $-1 $35 $88 $91 $92 forward $21 $-1 #
coedge $-1 $93 $94 $35 $56 reversed $95 $-1 #
edge $-1 $96 -31.885249018477669 $97 31.885249018477669 $55 $98 forward 7 unknown #
face $-1 $99 $100 $13 $-1 $101 reversed single #
loop $-1 $-1 $63 $36 #
plane-surface $-1 -73.715509445020189 0 -6.0400797403562496 0 0 1 1 0 0 forward_v I I I I #
coedge $-1 $102 $103 $62 $104 forward $37 $-1 #
coedge $-1 $105 $39 $106 $107 reversed $24 $-1 #
coedge $-1 $39 $105 $60 $104 reversed $24 $-1 #
coedge $-1 $108 $109 $39 $64 reversed $58 $-1 #
edge $-1 $110 -31.885249018477669 $111 31.885249018477669 $63 $112 forward 7 unknown #
face $-1 $113 $114 $14 $-1 $115 reversed single #
loop $-1 $-1 $116 $40 #
plane-surface $-1 0 0 9.5400797403562496 0 0 1 1 0 0 forward_v I I I I #
coedge $-1 $117 $118 $119 $120 reversed $41 $-1 #
coedge $-1 $121 $43 $122 $123 reversed $27 $-1 #
coedge $-1 $43 $121 $117 $124 forward $27 $-1 #
coedge $-1 $119 $125 $43 $72 forward $126 $-1 #
edge $-1 $127 -19.190361954278664 $128 -6.19941217411934 $71 $129 forward 7 unknown #
loop $-1 $-1 $78 $44 #
plane-surface $-1 -39.32422998105335 -25.389774128398006 86.192258485001133 0.61566148304635926 0 0.78801074757464917 0.78801074757464917 0 -0.61566148304635926 forward_v I I I I #
loop $-1 $-1 $130 $29 #
coedge $-1 $76 $76 $77 $131 reversed $45 $-1 #
coedge $-1 $77 $77 $76 $131 forward $47 $-1 #
coedge $-1 $78 $78 $48 $79 forward $73 $-1 #
edge $-1 $132 0 $132 6.2831853071796004 $78 $133 forward 7 unknown #
face $-1 $134 $135 $12 $-1 $136 reversed single #
loop $-1 $-1 $137 $49 #
plane-surface $-1 -68.268684957426672 0 0 1 0 0 0 0 -1 forward_v I I I I #
coedge $-1 $138 $91 $139 $140 forward $50 $-1 #
coedge $-1 $141 $52 $138 $142 forward $33 $-1 #
coedge $-1 $52 $141 $143 $144 forward $33 $-1 #
coedge $-1 $94 $93 $52 $87 reversed $95 $-1 #
edge $-1 $145 -31.885249018477669 $146 31.885249018477669 $86 $147 forward 7 unknown #
coedge $-1 $54 $53 $148 $149 forward $21 $-1 #
coedge $-1 $150 $151 $53 $90 reversed $135 $-1 #
edge $-1 $97 -68.268684957426672 $152 68.268684957426672 $89 $153 forward 7 unknown #
coedge $-1 $83 $154 $54 $92 reversed $50 $-1 #
edge $-1 $155 -68.268684957426672 $96 68.268684957426672 $91 $156 forward 7 unknown #
coedge $-1 $86 $55 $154 $157 forward $95 $-1 #
coedge $-1 $55 $86 $150 $158 reversed $95 $-1 #
loop $-1 $-1 $93 $134 #
vertex $-1 $56 $159 #
vertex $-1 $56 $160 #
straight-curve $-1 68.268684957426672 0 9.5400797403562496 0 1 0 I I #
face $-1 $161 $162 $13 $-1 $163 reversed single #
loop $-1 $-1 $164 $57 #
plane-surface $-1 -73.715509445020189 0 -9.0400797403562496 0 0 1 1 0 0 forward_v I I I I #
coedge $-1 $165 $60 $166 $167 reversed $37 $-1 #
coedge $-1 $60 $165 $108 $168 reversed $37 $-1 #
edge $-1 $110 6.0400797403562496 $169 9.0400797403562496 $60 $170 forward 7 unknown #
coedge $-1 $62 $61 $164 $171 forward $24 $-1 #
coedge $-1 $172 $173 $61 $107 forward $174 $-1 #
edge $-1 $175 -9.0400797403562496 $111 -6.0400797403562496 $106 $176 forward 7 unknown #
coedge $-1 $177 $63 $103 $168 forward $58 $-1 #
coedge $-1 $63 $177 $172 $178 forward $58 $-1 #
vertex $-1 $104 $179 #
vertex $-1 $178 $180 #
straight-curve $-1 -68.268684957426672 0 -6.0400797403562496 0 -1 0 I I #
face $-1 $-1 $126 $14 $-1 $181 reversed single #
loop $-1 $-1 $122 $65 #
plane-surface $-1 0 -31.885249018477669 0 0 1 0 0 0 1 forward_v I I I I #
coedge $-1 $182 $183 $118 $184 forward $66 $-1 #
coedge $-1 $118 $68 $70 $124 reversed $41 $-1 #
coedge $-1 $68 $117 $116 $184 reversed $41 $-1 #
coedge $-1 $185 $71 $68 $120 forward $126 $-1 #
edge $-1 $128 -94.761127879767415 $186 -87.352506971384315 $119 $187 forward 7 unknown #
coedge $-1 $70 $69 $182 $188 reversed $27 $-1 #
coedge $-1 $189 $190 $69 $123 forward $114 $-1 #
edge $-1 $191 82.477190197254416 $127 94.510785139274248 $122 $192 forward 7 unknown #
edge $-1 $193 124.50377497283353 $128 136.53736991485337 $117 $194 forward 7 unknown #
coedge $-1 $71 $185 $189 $195 forward $126 $-1 #
loop $-1 $-1 $119 $113 #
vertex $-1 $123 $196 #
vertex $-1 $72 $197 #
straight-curve $-1 68.268684957426672 -12.694887064199003 2.1314588319731484 0 1 0 I I #
coedge $-1 $130 $130 $-1 $198 reversed $75 $-1 #
edge $-1 $199 0 $199 6.2831853071796004 $76 $200 forward 7 unknown #
vertex $-1 $79 $201 #
ellipse-curve $-1 63.527383884290877 -25.389774128398006 5.8357692861647203 0.61566148304635926 0 0.78801074757464917 1.1820161213619738 0 -0.92349222456953894 1 I I #
face $-1 $-1 $95 $12 $-1 $202 reversed single #
loop $-1 $-1 $150 $80 #
plane-surface $-1 0 31.885249018477669 0 0 -1 0 0 0 -1 forward_v I I I I #
coedge $-1 $203 $148 $151 $204 forward $81 $-1 #
coedge $-1 $154 $83 $84 $142 reversed $50 $-1 #
coedge $-1 $148 $203 $83 $140 reversed $81 $-1 #
edge $-1 $155 -9.5400797403562496 $205 9.5400797403562496 $139 $206 forward 7 unknown #
coedge $-1 $85 $84 $203 $207 forward $33 $-1 #
edge $-1 $146 -68.268684957426672 $205 68.268684957426672 $138 $208 forward 7 unknown #
coedge $-1 $151 $150 $85 $144 reversed $135 $-1 #
edge $-1 $209 -68.268684957426672 $145 68.268684957426672 $143 $210 forward 7 unknown #
vertex $-1 $87 $211 #
vertex $-1 $157 $212 #
straight-curve $-1 68.268684957426672 0 -9.5400797403562496 0 -1 0 I I #
coedge $-1 $137 $139 $88 $149 reversed $81 $-1 #
edge $-1 $152 -31.885249018477669 $155 31.885249018477669 $148 $213 forward 7 unknown #
coedge $-1 $143 $89 $94 $158 forward $135 $-1 #
coedge $-1 $89 $143 $137 $204 reversed $135 $-1 #
vertex $-1 $90 $214 #
straight-curve $-1 0 31.885249018477669 9.5400797403562496 -1 0 0 I I #
coedge $-1 $91 $138 $93 $157 reversed $50 $-1 #
vertex $-1 $149 $215 #
straight-curve $-1 0 -31.885249018477669 9.5400797403562496 1 0 0 I I #
edge $-1 $96 -9.5400797403562496 $146 9.5400797403562496 $93 $216 forward 7 unknown #
edge $-1 $97 -9.5400797403562496 $145 9.5400797403562496 $94 $217 forward 7 unknown #
point $-1 68.268684957426672 -31.885249018477669 9.5400797403562496 #
point $-1 68.268684957426672 31.885249018477669 9.5400797403562496 #
face $-1 $-1 $174 $13 $-1 $218 reversed single #
loop $-1 $-1 $219 $99 #
plane-surface $-1 -79.162333932613706 0 -7.5400797403562496 1 0 0 0 0 -1 forward_v I I I I #
coedge $-1 $220 $166 $105 $171 reversed $100 $-1 #
coedge $-1 $103 $102 $219 $221 reversed $37 $-1 #
coedge $-1 $164 $222 $102 $167 forward $100 $-1 #
edge $-1 $223 -5.446824487593517 $169 5.446824487593517 $102 $224 forward 7 unknown #
edge $-1 $110 -5.446824487593517 $225 5.446824487593517 $103 $226 forward 7 unknown #
vertex $-1 $104 $227 #
straight-curve $-1 -68.268684957426672 31.885249018477669 0 0 0 -1 I I #
edge $-1 $175 -31.885249018477669 $169 31.885249018477669 $164 $228 forward 7 unknown #
coedge $-1 $229 $106 $109 $178 reversed $174 $-1 #
coedge $-1 $106 $229 $220 $230 reversed $174 $-1 #
loop $-1 $-1 $106 $161 #
vertex $-1 $107 $231 #
straight-curve $-1 -68.268684957426672 -31.885249018477669 0 0 0 1 I I #
coedge $-1 $109 $108 $232 $233 forward $58 $-1 #
edge $-1 $234 -5.446824487593517 $111 5.446824487593517 $172 $235 forward 7 unknown #
point $-1 -68.268684957426672 31.885249018477669 -6.0400797403562496 #
point $-1 -68.268684957426672 -31.885249018477669 -6.0400797403562496 #
plane-surface $-1 68.268684957426672 0 0 -1 0 0 0 0 1 forward_v I I I I #
coedge $-1 $236 $116 $121 $188 forward $66 $-1 #
coedge $-1 $116 $236 $185 $237 forward $66 $-1 #
edge $-1 $186 -45.900400121439361 $193 -36.417797975167787 $116 $238 forward 7 unknown #
coedge $-1 $125 $119 $183 $237 reversed $126 $-1 #
vertex $-1 $120 $239 #
straight-curve $-1 68.268684957426672 -18.894299238318343 96.892586711740563 0 0 1 I I #
edge $-1 $193 6.19941217411934 $191 19.190361954278664 $182 $240 forward 7 unknown #
coedge $-1 $190 $122 $125 $195 reversed $114 $-1 #
coedge $-1 $122 $189 $236 $241 reversed $114 $-1 #
vertex $-1 $241 $242 #
straight-curve $-1 -6.2068294940398854 -31.885249018477669 60.318108974694553 0.78801074757464917 0 -0.61566148304635926 I I #
vertex $-1 $188 $243 #
straight-curve $-1 -39.32422998105335 -18.894299238318343 86.192258485001133 0.78801074757464917 0 -0.61566148304635926 I I #
edge $-1 $244 -9.5400797403562496 $127 -2.1314588319731542 $125 $245 forward 7 unknown #
point $-1 68.268684957426672 -31.885249018477669 2.1314588319731542 #
point $-1 68.268684957426672 -18.894299238318343 2.1314588319731484 #
edge $-1 $246 1 $246 0 $130 $-1 forward 7 unknown #
vertex $-1 $131 $247 #
ellipse-curve $-1 61.93695480244989 -25.389774128398006 3.8001129323765293 0.61566148304635926 0 0.78801074757464917 1.1820161213619738 0 -0.92349222456953894 1 I I #
point $-1 64.709400005652853 -25.389774128398006 4.9122770615951765 #
plane-surface $-1 68.268684957426672 0 0 -1 0 0 0 0 1 forward_v I I I I #
coedge $-1 $139 $137 $141 $207 reversed $81 $-1 #
edge $-1 $152 -9.5400797403562496 $209 9.5400797403562496 $151 $248 forward 7 unknown #
vertex $-1 $207 $249 #
straight-curve $-1 -68.268684957426672 -31.885249018477669 0 0 0 -1 I I #
edge $-1 $205 -31.885249018477669 $209 31.885249018477669 $203 $250 forward 7 unknown #
straight-curve $-1 0 -31.885249018477669 -9.5400797403562496 -1 0 0 I I #
vertex $-1 $144 $251 #
straight-curve $-1 0 31.885249018477669 -9.5400797403562496 1 0 0 I I #
point $-1 68.268684957426672 31.885249018477669 -9.5400797403562496 #
point $-1 68.268684957426672 -31.885249018477669 -9.5400797403562496 #
straight-curve $-1 -68.268684957426672 0 9.5400797403562496 0 -1 0 I I #
point $-1 -68.268684957426672 31.885249018477669 9.5400797403562496 #
point $-1 -68.268684957426672 -31.885249018477669 9.5400797403562496 #
straight-curve $-1 68.268684957426672 -31.885249018477669 0 0 0 -1 I I #
straight-curve $-1 68.268684957426672 31.885249018477669 0 0 0 -1 I I #
plane-surface $-1 0 -31.885249018477669 0 0 1 0 0 0 1 forward_v I I I I #
coedge $-1 $252 $232 $165 $221 forward $162 $-1 #
coedge $-1 $222 $164 $173 $230 forward $100 $-1 #
edge $-1 $225 -1.5 $223 1.5 $165 $253 forward 7 unknown #
coedge $-1 $166 $220 $252 $254 forward $100 $-1 #
vertex $-1 $167 $255 #
straight-curve $-1 -73.715509445020189 31.885249018477669 -9.0400797403562496 1 0 0 I I #
vertex $-1 $168 $256 #
straight-curve $-1 -73.715509445020189 31.885249018477669 -6.0400797403562496 -1 0 0 I I #
point $-1 -68.268684957426672 31.885249018477669 -9.0400797403562496 #
straight-curve $-1 -68.268684957426672 0 -9.0400797403562496 0 1 0 I I #
coedge $-1 $173 $172 $257 $258 forward $174 $-1 #
edge $-1 $175 -5.446824487593517 $259 5.446824487593517 $173 $260 forward 7 unknown #
point $-1 -68.268684957426672 -31.885249018477669 -9.0400797403562496 #
coedge $-1 $219 $257 $177 $233 reversed $162 $-1 #
edge $-1 $225 -31.885249018477669 $234 31.885249018477669 $232 $261 forward 7 unknown #
vertex $-1 $233 $262 #
straight-curve $-1 -73.715509445020189 -31.885249018477669 -6.0400797403562496 1 0 0 I I #
coedge $-1 $183 $182 $190 $241 forward $66 $-1 #
edge $-1 $244 -31.885249018477669 $186 -18.894299238318343 $185 $263 forward 7 unknown #
straight-curve $-1 22.368284835987311 -18.894299238318343 9.5400797403562478 -1 0 0 I I #
point $-1 68.268684957426672 -18.894299238318343 9.5400797403562496 #
straight-curve $-1 58.786082811155111 -12.694887064199003 9.5400797403562407 0 -1 0 I I #
edge $-1 $191 58.786082811155097 $244 68.268684957426672 $190 $264 forward 7 unknown #
point $-1 58.786082811155097 -31.885249018477669 9.5400797403562478 #
point $-1 58.786082811155097 -18.894299238318343 9.5400797403562478 #
vertex $-1 $237 $265 #
straight-curve $-1 68.268684957426672 -31.885249018477669 0 0 0 -1 I I #
vertex $-1 $198 $266 #
point $-1 63.118970923811858 -25.389774128398006 2.8766207078069903 #
straight-curve $-1 -68.268684957426672 31.885249018477669 0 0 0 -1 I I #
point $-1 -68.268684957426672 -31.885249018477669 -9.5400797403562496 #
straight-curve $-1 -68.268684957426672 0 -9.5400797403562496 0 1 0 I I #
point $-1 -68.268684957426672 31.885249018477669 -9.5400797403562496 #
coedge $-1 $257 $219 $222 $254 reversed $162 $-1 #
straight-curve $-1 -79.162333932613706 31.885249018477669 -7.5400797403562496 0 0 -1 I I #
edge $-1 $259 -31.885249018477669 $223 31.885249018477669 $252 $267 forward 7 unknown #
point $-1 -79.162333932613706 31.885249018477669 -9.0400797403562496 #
point $-1 -79.162333932613706 31.885249018477669 -6.0400797403562496 #
coedge $-1 $232 $252 $229 $258 reversed $162 $-1 #
edge $-1 $234 -1.5 $259 1.5 $257 $268 forward 7 unknown #
vertex $-1 $254 $269 #
straight-curve $-1 -73.715509445020189 -31.885249018477669 -9.0400797403562496 -1 0 0 I I #
straight-curve $-1 -79.162333932613706 0 -6.0400797403562496 0 -1 0 I I #
point $-1 -79.162333932613706 -31.885249018477669 -6.0400797403562496 #
straight-curve $-1 68.268684957426672 0 9.5400797403562496 0 1 0 I I #
straight-curve $-1 0 -31.885249018477669 9.5400797403562496 1 0 0 I I #
point $-1 68.268684957426672 -31.885249018477669 9.5400797403562496 #
point $-1 61.013462577880347 -25.389774128398006 2.6180968110145555 #
straight-curve $-1 -79.162333932613706 0 -9.0400797403562496 0 1 0 I I #
straight-curve $-1 -79.162333932613706 -31.885249018477669 -7.5400797403562496 0 0 -1 I I #
point $-1 -79.162333932613706 -31.885249018477669 -9.0400797403562496 #
End-of-ACIS-data 