500 0 5 0           
7 Unknown 11 ACIS 5.0 NT 24 Thu Mar 25 15:14:16 1999 
-1 9.9999999999999995e-007 1e-010 
body $-1 $5 $-1 $6 #
body $-1 $7 $-1 $8 #
body $-1 $9 $-1 $10 #
body $-1 $11 $-1 $12 #
body $-1 $13 $-1 $14 #
lump $-1 $-1 $15 $0 #
transform $-1 1 0 0 0 1 0 0 0 1 63.25510422070986 37.725655346012772 7.8138516709591812 1 rotate no_reflect no_shear #
lump $-1 $-1 $16 $1 #
transform $-1 1 0 0 0 1 0 0 0 1 63.25510422070986 37.725655346012772 7.8138516709591812 1 rotate no_reflect no_shear #
lump $-1 $-1 $17 $2 #
transform $-1 1 0 0 0 1 0 0 0 1 63.25510422070986 37.725655346012772 7.8138516709591812 1 rotate no_reflect no_shear #
lump $-1 $-1 $18 $3 #
transform $-1 1 0 0 0 1 0 0 0 1 63.25510422070986 37.725655346012772 7.8138516709591812 1 rotate no_reflect no_shear #
lump $-1 $-1 $19 $4 #
transform $-1 1 0 0 0 1 0 0 0 1 63.25510422070986 37.725655346012772 7.8138516709591812 1 rotate no_reflect no_shear #
shell $-1 $-1 $-1 $20 $-1 $5 #
shell $-1 $-1 $-1 $21 $-1 $7 #
shell $-1 $-1 $-1 $22 $-1 $9 #
shell $-1 $-1 $-1 $23 $-1 $11 #
shell $-1 $-1 $-1 $24 $-1 $13 #
face $-1 $25 $26 $15 $-1 $27 forward single #
face $-1 $28 $29 $16 $-1 $30 forward single #
face $-1 $31 $32 $17 $-1 $33 reversed single #
face $-1 $34 $35 $18 $-1 $36 forward single #
face $-1 $37 $38 $19 $-1 $39 forward single #
face $-1 $40 $41 $15 $-1 $42 reversed single #
loop $-1 $-1 $43 $20 #
plane-surface $-1 0 0 7.8138516709591812 0 0 1 1 0 0 forward_v I I I I #
face $-1 $44 $45 $16 $-1 $46 reversed single #
loop $-1 $-1 $47 $21 #
plane-surface $-1 0 -33.342942324785902 0.56796165250314168 0 0 1 1 0 0 forward_v I I I I #
face $-1 $48 $49 $17 $-1 $50 reversed single #
loop $-1 $-1 $51 $22 #
plane-surface $-1 -132.15750296855379 21.81461940195878 109.2676544847717 0 1 0 -0.54463904215088732 0 0.83867056331134215 forward_v I I I I #
face $-1 $52 $53 $18 $-1 $54 forward single #
loop $-1 $55 $56 $23 #
cone-surface $-1 -59.405228072250821 26.3606296716885 5.0712239071093741 0.54463904215088732 0 -0.83867056331134215 0.41933528165567108 0 0.27231952107544366 1 I I 0 1 0.5 forward I I I I #
face $-1 $57 $58 $19 $-1 $59 forward single #
loop $-1 $60 $61 $24 #
cone-surface $-1 -59.405228072250821 33.179645076283066 5.0712239071093741 0.54463904215088732 0 -0.83867056331134215 0.41933528165567108 0 0.27231952107544366 1 I I 0 1 0.5 forward I I I I #
face $-1 $62 $63 $15 $-1 $64 reversed single #
loop $-1 $-1 $65 $25 #
plane-surface $-1 0 0 -7.8138516709591812 0 0 1 1 0 0 forward_v I I I I #
coedge $-1 $66 $67 $68 $69 forward $26 $-1 #
face $-1 $70 $71 $16 $-1 $72 reversed single #
loop $-1 $-1 $73 $28 #
plane-surface $-1 0 -33.342942324785902 -2.4320383474968583 0 0 1 1 0 0 forward_v I I I I #
coedge $-1 $74 $75 $76 $77 reversed $29 $-1 #
face $-1 $78 $79 $17 $-1 $80 forward single #
loop $-1 $-1 $81 $31 #
plane-surface $-1 -63.255104220709853 29.770137373985776 3.1672667065709135 -0.54463904215088732 0 0.83867056331134215 0.83867056331134215 0 0.54463904215088732 forward_v I I I I #
coedge $-1 $82 $83 $84 $85 reversed $32 $-1 #
face $-1 $-1 $86 $18 $-1 $87 forward single #
loop $-1 $88 $89 $34 #
cone-surface $-1 -58.996748790637653 26.3606296716885 4.4422209846258678 0.54463904215088732 0 -0.83867056331134215 0.20966764082783554 0 0.13615976053772183 1 I I -0.70710678118654746 0.70710678118654746 0.25 forward I I I I #
loop $-1 $-1 $90 $23 #
coedge $-1 $56 $56 $91 $92 reversed $35 $-1 #
face $-1 $-1 $93 $19 $-1 $94 forward single #
loop $-1 $95 $96 $37 #
cone-surface $-1 -58.996748790637653 33.179645076283066 4.4422209846258678 0.54463904215088732 0 -0.83867056331134215 0.20966764082783554 0 0.13615976053772183 1 I I -0.70710678118654746 0.70710678118654746 0.25 forward I I I I #
loop $-1 $-1 $97 $24 #
coedge $-1 $61 $61 $98 $99 reversed $38 $-1 #
face $-1 $100 $101 $15 $-1 $102 reversed single #
loop $-1 $-1 $103 $40 #
plane-surface $-1 0 -37.725655346012772 0 0 1 0 0 0 1 forward_v I I I I #
coedge $-1 $104 $105 $106 $107 forward $41 $-1 #
coedge $-1 $108 $43 $109 $110 forward $26 $-1 #
coedge $-1 $43 $108 $111 $112 forward $26 $-1 #
coedge $-1 $113 $114 $43 $69 reversed $115 $-1 #
edge $-1 $116 -37.725655346012772 $117 37.725655346012772 $68 $118 forward 7 unknown #
face $-1 $119 $120 $16 $-1 $121 reversed single #
loop $-1 $-1 $122 $44 #
plane-surface $-1 0 -28.960229303559032 -0.93203834749685832 0 -1 0 0 0 -1 forward_v I I I I #
coedge $-1 $123 $124 $125 $126 reversed $45 $-1 #
coedge $-1 $127 $47 $128 $129 forward $29 $-1 #
coedge $-1 $47 $127 $130 $131 reversed $29 $-1 #
coedge $-1 $132 $133 $47 $77 forward $134 $-1 #
edge $-1 $135 12.288758141166081 $136 21.054184183619821 $76 $137 forward 7 unknown #
face $-1 $138 $139 $17 $-1 $140 reversed single #
loop $-1 $-1 $84 $48 #
plane-surface $-1 0 0 7.8138516709591812 0 0 1 1 0 0 forward_v I I I I #
coedge $-1 $141 $142 $143 $144 reversed $49 $-1 #
coedge $-1 $83 $51 $145 $146 reversed $32 $-1 #
coedge $-1 $51 $82 $141 $147 reversed $32 $-1 #
coedge $-1 $143 $148 $51 $85 forward $79 $-1 #
edge $-1 $149 2.8236472635670324 $150 9.9787605183342336 $84 $151 forward 7 unknown #
loop $-1 $-1 $91 $52 #
plane-surface $-1 -63.255104220709853 29.770137373985776 3.1672667065709135 -0.54463904215088732 0 0.83867056331134215 0.83867056331134215 0 0.54463904215088732 forward_v I I I I #
loop $-1 $-1 $152 $34 #
coedge $-1 $89 $89 $90 $153 reversed $53 $-1 #
coedge $-1 $90 $90 $89 $153 forward $55 $-1 #
coedge $-1 $91 $91 $56 $92 forward $86 $-1 #
edge $-1 $154 0 $154 6.2831853071796004 $91 $155 forward 7 unknown #
loop $-1 $-1 $98 $57 #
plane-surface $-1 -63.255104220709853 29.770137373985776 3.1672667065709135 -0.54463904215088732 0 0.83867056331134215 0.83867056331134215 0 0.54463904215088732 forward_v I I I I #
loop $-1 $-1 $156 $37 #
coedge $-1 $96 $96 $97 $157 reversed $58 $-1 #
coedge $-1 $97 $97 $96 $157 forward $60 $-1 #
coedge $-1 $98 $98 $61 $99 forward $93 $-1 #
edge $-1 $158 0 $158 6.2831853071796004 $98 $159 forward 7 unknown #
face $-1 $160 $161 $15 $-1 $162 reversed single #
loop $-1 $-1 $163 $62 #
plane-surface $-1 -63.25510422070986 0 0 1 0 0 0 0 -1 forward_v I I I I #
coedge $-1 $164 $111 $165 $166 forward $63 $-1 #
coedge $-1 $167 $65 $164 $168 forward $41 $-1 #
coedge $-1 $65 $167 $169 $170 forward $41 $-1 #
coedge $-1 $114 $113 $65 $107 reversed $115 $-1 #
edge $-1 $171 -37.725655346012772 $172 37.725655346012772 $106 $173 forward 7 unknown #
coedge $-1 $67 $66 $174 $175 forward $26 $-1 #
coedge $-1 $176 $177 $66 $110 reversed $161 $-1 #
edge $-1 $117 -63.25510422070986 $178 63.25510422070986 $109 $179 forward 7 unknown #
coedge $-1 $103 $180 $67 $112 reversed $63 $-1 #
edge $-1 $181 -63.25510422070986 $116 63.25510422070986 $111 $182 forward 7 unknown #
coedge $-1 $106 $68 $180 $183 forward $115 $-1 #
coedge $-1 $68 $106 $176 $184 reversed $115 $-1 #
loop $-1 $-1 $113 $160 #
vertex $-1 $69 $185 #
vertex $-1 $69 $186 #
straight-curve $-1 63.25510422070986 0 7.8138516709591812 0 1 0 I I #
face $-1 $187 $188 $16 $-1 $189 reversed single #
loop $-1 $-1 $190 $70 #
plane-surface $-1 -63.25510422070986 0 0 1 0 0 0 0 -1 forward_v I I I I #
coedge $-1 $191 $128 $133 $192 reversed $71 $-1 #
coedge $-1 $193 $73 $194 $195 reversed $45 $-1 #
coedge $-1 $73 $193 $191 $196 forward $45 $-1 #
coedge $-1 $133 $132 $73 $126 forward $134 $-1 #
edge $-1 $197 -21.054184183619821 $198 -12.288758141166081 $125 $199 forward 7 unknown #
coedge $-1 $75 $74 $190 $200 reversed $29 $-1 #
coedge $-1 $122 $201 $74 $129 reversed $71 $-1 #
edge $-1 $135 -63.25510422070986 $202 63.25510422070986 $128 $203 forward 7 unknown #
coedge $-1 $204 $205 $75 $131 forward $188 $-1 #
edge $-1 $136 -63.25510422070986 $206 63.25510422070986 $130 $207 forward 7 unknown #
coedge $-1 $125 $76 $205 $208 forward $134 $-1 #
coedge $-1 $76 $125 $122 $192 forward $134 $-1 #
loop $-1 $-1 $76 $187 #
vertex $-1 $77 $209 #
vertex $-1 $208 $210 #
straight-curve $-1 63.25510422070986 -16.671471162392951 0.56796165250314168 0 -1 0 I I #
face $-1 $-1 $211 $17 $-1 $212 reversed single #
loop $-1 $-1 $213 $78 #
plane-surface $-1 0 37.725655346012772 0 0 -1 0 0 0 -1 forward_v I I I I #
coedge $-1 $214 $81 $83 $147 forward $49 $-1 #
coedge $-1 $81 $214 $213 $215 reversed $49 $-1 #
coedge $-1 $216 $84 $81 $144 forward $79 $-1 #
edge $-1 $150 6.9295507149658917 $217 22.840586659019884 $143 $218 forward 7 unknown #
coedge $-1 $219 $220 $82 $146 forward $211 $-1 #
edge $-1 $221 -51.466560535814942 $149 -46.819975571426667 $145 $222 forward 7 unknown #
edge $-1 $150 -8.5314944482091946 $221 8.3777959833898778e-015 $83 $223 forward 7 unknown #
coedge $-1 $84 $216 $219 $224 forward $79 $-1 #
vertex $-1 $146 $225 #
vertex $-1 $85 $226 #
straight-curve $-1 -66.078751484276893 21.81461940195878 7.8138516709591812 1 0 0 I I #
coedge $-1 $152 $152 $-1 $227 reversed $88 $-1 #
edge $-1 $228 0 $228 6.2831853071796004 $89 $229 forward 7 unknown #
vertex $-1 $92 $230 #
ellipse-curve $-1 -59.677547593326267 26.3606296716885 5.4905591887650429 -0.54463904215088732 0 0.83867056331134215 0.41933528165567108 0 0.27231952107544366 1 I I #
coedge $-1 $156 $156 $-1 $231 reversed $95 $-1 #
edge $-1 $232 0 $232 6.2831853071796004 $96 $233 forward 7 unknown #
vertex $-1 $99 $234 #
ellipse-curve $-1 -59.677547593326267 33.179645076283066 5.4905591887650429 -0.54463904215088732 0 0.83867056331134215 0.41933528165567108 0 0.27231952107544366 1 I I #
face $-1 $-1 $115 $15 $-1 $235 reversed single #
loop $-1 $-1 $176 $100 #
plane-surface $-1 0 37.725655346012772 0 0 -1 0 0 0 -1 forward_v I I I I #
coedge $-1 $236 $174 $177 $237 forward $101 $-1 #
coedge $-1 $180 $103 $104 $168 reversed $63 $-1 #
coedge $-1 $174 $236 $103 $166 reversed $101 $-1 #
edge $-1 $181 -7.8138516709591812 $238 7.8138516709591812 $165 $239 forward 7 unknown #
coedge $-1 $105 $104 $236 $240 forward $41 $-1 #
edge $-1 $172 -63.25510422070986 $238 63.25510422070986 $164 $241 forward 7 unknown #
coedge $-1 $177 $176 $105 $170 reversed $161 $-1 #
edge $-1 $242 -63.25510422070986 $171 63.25510422070986 $169 $243 forward 7 unknown #
vertex $-1 $107 $244 #
vertex $-1 $183 $245 #
straight-curve $-1 63.25510422070986 0 -7.8138516709591812 0 -1 0 I I #
coedge $-1 $163 $165 $108 $175 reversed $101 $-1 #
edge $-1 $178 -37.725655346012772 $181 37.725655346012772 $174 $246 forward 7 unknown #
coedge $-1 $169 $109 $114 $184 forward $161 $-1 #
coedge $-1 $109 $169 $163 $237 reversed $161 $-1 #
vertex $-1 $110 $247 #
straight-curve $-1 0 37.725655346012772 7.8138516709591812 -1 0 0 I I #
coedge $-1 $111 $164 $113 $183 reversed $63 $-1 #
vertex $-1 $175 $248 #
straight-curve $-1 0 -37.725655346012772 7.8138516709591812 1 0 0 I I #
edge $-1 $116 -7.8138516709591812 $172 7.8138516709591812 $113 $249 forward 7 unknown #
edge $-1 $117 -7.8138516709591812 $171 7.8138516709591812 $114 $250 forward 7 unknown #
point $-1 63.25510422070986 -37.725655346012772 7.8138516709591812 #
point $-1 63.25510422070986 37.725655346012772 7.8138516709591812 #
face $-1 $-1 $134 $16 $-1 $251 reversed single #
loop $-1 $-1 $130 $119 #
plane-surface $-1 0 -37.725655346012772 0 0 1 0 0 0 1 forward_v I I I I #
coedge $-1 $252 $253 $127 $200 forward $120 $-1 #
coedge $-1 $201 $122 $124 $196 reversed $71 $-1 #
edge $-1 $198 -1.9660191737484292 $135 1.0339808262515708 $133 $254 forward 7 unknown #
coedge $-1 $124 $123 $255 $256 reversed $45 $-1 #
coedge $-1 $205 $204 $123 $195 forward $188 $-1 #
edge $-1 $257 -63.25510422070986 $197 63.25510422070986 $194 $258 forward 7 unknown #
edge $-1 $259 -63.25510422070986 $198 63.25510422070986 $191 $260 forward 7 unknown #
vertex $-1 $195 $261 #
vertex $-1 $126 $262 #
straight-curve $-1 63.25510422070986 -16.671471162392951 -2.4320383474968583 0 1 0 I I #
edge $-1 $206 -21.054184183619821 $202 -12.288758141166081 $190 $263 forward 7 unknown #
coedge $-1 $128 $191 $252 $264 reversed $71 $-1 #
vertex $-1 $200 $265 #
straight-curve $-1 0 -28.960229303559032 0.56796165250314168 -1 0 0 I I #
coedge $-1 $194 $130 $253 $266 forward $188 $-1 #
coedge $-1 $130 $194 $132 $208 reversed $188 $-1 #
vertex $-1 $266 $267 #
straight-curve $-1 0 -37.725655346012772 0.56796165250314168 -1 0 0 I I #
edge $-1 $136 -0.56796165250314168 $197 2.4320383474968583 $132 $268 forward 7 unknown #
point $-1 63.25510422070986 -28.960229303559032 0.56796165250314168 #
point $-1 63.25510422070986 -37.725655346012772 0.56796165250314168 #
loop $-1 $-1 $145 $138 #
plane-surface $-1 -63.25510422070986 0 0 1 0 0 0 0 -1 forward_v I I I I #
coedge $-1 $269 $270 $142 $215 forward $139 $-1 #
coedge $-1 $142 $141 $220 $271 reversed $49 $-1 #
edge $-1 $217 17.131093943689407 $272 25.662588391898613 $213 $273 forward 7 unknown #
coedge $-1 $148 $143 $270 $274 forward $79 $-1 #
vertex $-1 $274 $275 #
straight-curve $-1 -56.099990965942659 14.885068686992888 7.8138516709591812 0 1 0 I I #
coedge $-1 $276 $145 $148 $224 reversed $211 $-1 #
coedge $-1 $145 $276 $214 $271 forward $211 $-1 #
vertex $-1 $146 $277 #
straight-curve $-1 -63.25510422070986 21.81461940195878 54.633827242385848 0 0 1 I I #
straight-curve $-1 -63.255104220709853 21.81461940195878 3.1672667065709135 -0.83867056331134215 0 -0.54463904215088732 I I #
edge $-1 $278 -37.725655346012772 $149 -21.81461940195878 $219 $279 forward 7 unknown #
point $-1 -63.25510422070986 21.81461940195878 7.8138516709591812 #
point $-1 -56.099990965942659 21.81461940195878 7.8138516709591812 #
edge $-1 $280 1 $280 0 $152 $-1 forward 7 unknown #
vertex $-1 $153 $281 #
ellipse-curve $-1 -59.132908551175376 26.3606296716885 4.6518886254537035 -0.54463904215088732 0 0.83867056331134215 0.41933528165567108 0 0.27231952107544366 1 I I #
point $-1 -59.25821231167059 26.3606296716885 5.7628787098404892 #
edge $-1 $282 1 $282 0 $156 $-1 forward 7 unknown #
vertex $-1 $157 $283 #
ellipse-curve $-1 -59.132908551175376 33.179645076283066 4.6518886254537035 -0.54463904215088732 0 0.83867056331134215 0.41933528165567108 0 0.27231952107544366 1 I I #
point $-1 -59.25821231167059 33.179645076283066 5.7628787098404892 #
plane-surface $-1 63.25510422070986 0 0 -1 0 0 0 0 1 forward_v I I I I #
coedge $-1 $165 $163 $167 $240 reversed $101 $-1 #
edge $-1 $178 -7.8138516709591812 $242 7.8138516709591812 $177 $284 forward 7 unknown #
vertex $-1 $240 $285 #
straight-curve $-1 -63.25510422070986 -37.725655346012772 0 0 0 -1 I I #
edge $-1 $238 -37.725655346012772 $242 37.725655346012772 $236 $286 forward 7 unknown #
straight-curve $-1 0 -37.725655346012772 -7.8138516709591812 -1 0 0 I I #
vertex $-1 $170 $287 #
straight-curve $-1 0 37.725655346012772 -7.8138516709591812 1 0 0 I I #
point $-1 63.25510422070986 37.725655346012772 -7.8138516709591812 #
point $-1 63.25510422070986 -37.725655346012772 -7.8138516709591812 #
straight-curve $-1 -63.25510422070986 0 7.8138516709591812 0 -1 0 I I #
point $-1 -63.25510422070986 37.725655346012772 7.8138516709591812 #
point $-1 -63.25510422070986 -37.725655346012772 7.8138516709591812 #
straight-curve $-1 63.25510422070986 -37.725655346012772 0 0 0 -1 I I #
straight-curve $-1 63.25510422070986 37.725655346012772 0 0 0 -1 I I #
plane-surface $-1 63.25510422070986 0 0 -1 0 0 0 0 1 forward_v I I I I #
coedge $-1 $255 $190 $201 $264 forward $120 $-1 #
coedge $-1 $190 $255 $204 $266 reversed $120 $-1 #
straight-curve $-1 63.25510422070986 -28.960229303559032 -0.46601917374842916 0 0 1 I I #
coedge $-1 $253 $252 $193 $256 forward $120 $-1 #
edge $-1 $259 12.288758141166081 $257 21.054184183619821 $255 $288 forward 7 unknown #
vertex $-1 $195 $289 #
straight-curve $-1 0 -37.725655346012772 -2.4320383474968583 1 0 0 I I #
vertex $-1 $256 $290 #
straight-curve $-1 0 -28.960229303559032 -2.4320383474968583 1 0 0 I I #
point $-1 63.25510422070986 -37.725655346012772 -2.4320383474968583 #
point $-1 63.25510422070986 -28.960229303559032 -2.4320383474968583 #
straight-curve $-1 -63.25510422070986 -16.671471162392951 0.56796165250314168 0 1 0 I I #
edge $-1 $202 -1.0339808262515708 $259 1.9660191737484292 $252 $291 forward 7 unknown #
point $-1 -63.25510422070986 -28.960229303559032 0.56796165250314168 #
edge $-1 $206 -0.56796165250314168 $257 2.4320383474968583 $253 $292 forward 7 unknown #
point $-1 -63.25510422070986 -37.725655346012772 0.56796165250314168 #
straight-curve $-1 63.25510422070986 -37.725655346012772 0 0 0 -1 I I #
coedge $-1 $270 $213 $276 $293 reversed $139 $-1 #
coedge $-1 $213 $269 $216 $274 reversed $139 $-1 #
edge $-1 $272 -22.840586659019884 $221 -6.9295507149658917 $220 $294 forward 7 unknown #
vertex $-1 $215 $295 #
straight-curve $-1 -41.732646758049142 37.725655346012772 17.144114267447051 -0.83867056331134215 0 -0.54463904215088732 I I #
edge $-1 $217 56.099990965942659 $278 63.25510422070986 $270 $296 forward 7 unknown #
point $-1 -56.099990965942659 37.725655346012772 7.8138516709591812 #
coedge $-1 $220 $219 $269 $293 forward $211 $-1 #
point $-1 -63.25510422070986 21.81461940195878 3.167266706570909 #
vertex $-1 $274 $297 #
straight-curve $-1 -63.25510422070986 0 7.8138516709591812 0 -1 0 I I #
vertex $-1 $227 $298 #
point $-1 -58.713573269519706 26.3606296716885 4.9242081465291472 #
vertex $-1 $231 $299 #
point $-1 -58.713573269519706 33.179645076283066 4.9242081465291472 #
straight-curve $-1 -63.25510422070986 37.725655346012772 0 0 0 -1 I I #
point $-1 -63.25510422070986 -37.725655346012772 -7.8138516709591812 #
straight-curve $-1 -63.25510422070986 0 -7.8138516709591812 0 1 0 I I #
point $-1 -63.25510422070986 37.725655346012772 -7.8138516709591812 #
straight-curve $-1 -63.25510422070986 -16.671471162392951 -2.4320383474968583 0 -1 0 I I #
point $-1 -63.25510422070986 -37.725655346012772 -2.4320383474968583 #
point $-1 -63.25510422070986 -28.960229303559032 -2.4320383474968583 #
straight-curve $-1 -63.25510422070986 -28.960229303559032 -0.46601917374842916 0 0 -1 I I #
straight-curve $-1 -63.25510422070986 -37.725655346012772 0 0 0 -1 I I #
edge $-1 $278 -7.8138516709591812 $272 -3.167266706570909 $269 $300 forward 7 unknown #
straight-curve $-1 -63.25510422070986 14.885068686992888 3.167266706570905 0 -1 0 I I #
point $-1 -63.25510422070986 37.725655346012772 3.167266706570909 #
straight-curve $-1 0 37.725655346012772 7.8138516709591812 -1 0 0 I I #
point $-1 -63.25510422070986 37.725655346012772 7.8138516709591812 #
point $-1 -58.860589030099931 26.3606296716885 4.2325533437980321 #
point $-1 -58.860589030099931 33.179645076283066 4.2325533437980321 #
straight-curve $-1 -63.25510422070986 37.725655346012772 0 0 0 -1 I I #
End-of-ACIS-data 