500 0 11 0           
7 Unknown 11 ACIS 5.0 NT 24 Thu Mar 25 16:39:19 1999 
-1 9.9999999999999995e-007 1e-010 
body $-1 $11 $-1 $12 #
body $-1 $13 $-1 $14 #
body $-1 $15 $-1 $16 #
body $-1 $17 $-1 $18 #
body $-1 $19 $-1 $20 #
body $-1 $21 $-1 $22 #
body $-1 $23 $-1 $24 #
body $-1 $25 $-1 $26 #
body $-1 $27 $-1 $28 #
body $-1 $29 $-1 $30 #
body $-1 $31 $-1 $32 #
lump $-1 $-1 $33 $0 #
transform $-1 1 0 0 0 1 0 0 0 1 40.656758323923462 27.868621489134888 6.6841485727442578 1 rotate no_reflect no_shear #
lump $-1 $-1 $34 $1 #
transform $-1 1 0 0 0 1 0 0 0 1 40.656758323923462 27.868621489134888 6.6841485727442578 1 rotate no_reflect no_shear #
lump $-1 $-1 $35 $2 #
transform $-1 1 0 0 0 1 0 0 0 1 40.656758323923462 27.868621489134888 6.6841485727442578 1 rotate no_reflect no_shear #
lump $-1 $-1 $36 $3 #
transform $-1 1 0 0 0 1 0 0 0 1 40.656758323923462 27.868621489134888 6.6841485727442578 1 rotate no_reflect no_shear #
lump $-1 $-1 $37 $4 #
transform $-1 1 0 0 0 1 0 0 0 1 40.656758323923462 27.868621489134888 6.6841485727442578 1 rotate no_reflect no_shear #
lump $-1 $-1 $38 $5 #
transform $-1 1 0 0 0 1 0 0 0 1 40.656758323923462 27.868621489134888 6.6841485727442578 1 rotate no_reflect no_shear #
lump $-1 $-1 $39 $6 #
transform $-1 1 0 0 0 1 0 0 0 1 40.656758323923462 27.868621489134888 6.6841485727442578 1 rotate no_reflect no_shear #
lump $-1 $-1 $40 $7 #
transform $-1 1 0 0 0 1 0 0 0 1 40.656758323923462 27.868621489134888 6.6841485727442578 1 rotate no_reflect no_shear #
lump $-1 $-1 $41 $8 #
transform $-1 1 0 0 0 1 0 0 0 1 40.656758323923462 27.868621489134888 6.6841485727442578 1 rotate no_reflect no_shear #
lump $-1 $-1 $42 $9 #
transform $-1 1 0 0 0 1 0 0 0 1 40.656758323923462 27.868621489134888 6.6841485727442578 1 rotate no_reflect no_shear #
lump $-1 $-1 $43 $10 #
transform $-1 1 0 0 0 1 0 0 0 1 40.656758323923462 27.868621489134888 6.6841485727442578 1 rotate no_reflect no_shear #
shell $-1 $-1 $-1 $44 $-1 $11 #
shell $-1 $-1 $-1 $45 $-1 $13 #
shell $-1 $-1 $-1 $46 $-1 $15 #
shell $-1 $-1 $-1 $47 $-1 $17 #
shell $-1 $-1 $-1 $48 $-1 $19 #
shell $-1 $-1 $-1 $49 $-1 $21 #
shell $-1 $-1 $-1 $50 $-1 $23 #
shell $-1 $-1 $-1 $51 $-1 $25 #
shell $-1 $-1 $-1 $52 $-1 $27 #
shell $-1 $-1 $-1 $53 $-1 $29 #
shell $-1 $-1 $-1 $54 $-1 $31 #
face $-1 $55 $56 $33 $-1 $57 forward single #
face $-1 $58 $59 $34 $-1 $60 forward single #
face $-1 $61 $62 $35 $-1 $63 forward single #
face $-1 $64 $65 $36 $-1 $66 reversed single #
face $-1 $67 $68 $37 $-1 $69 forward single #
face $-1 $70 $71 $38 $-1 $72 forward single #
face $-1 $73 $74 $39 $-1 $75 forward single #
face $-1 $76 $77 $40 $-1 $78 reversed single #
face $-1 $79 $80 $41 $-1 $81 forward single #
face $-1 $82 $83 $42 $-1 $84 reversed single #
face $-1 $85 $86 $43 $-1 $87 forward single #
face $-1 $88 $89 $33 $-1 $90 reversed single #
loop $-1 $-1 $91 $44 #
plane-surface $-1 0 0 6.6841485727442578 0 0 1 1 0 0 forward_v I I I I #
face $-1 $92 $93 $34 $-1 $94 reversed single #
loop $-1 $-1 $95 $45 #
plane-surface $-1 -38.30821039814608 0 1.1266505916256868 0 0 1 1 0 0 forward_v I I I I #
face $-1 $96 $97 $35 $-1 $98 reversed single #
loop $-1 $-1 $99 $46 #
plane-surface $-1 38.30821039814608 0 1.1266505916256868 0 0 1 1 0 0 forward_v I I I I #
face $-1 $100 $101 $36 $-1 $102 reversed single #
loop $-1 $-1 $103 $47 #
plane-surface $-1 -8.1071206177329689 39.149658049312102 100.82132318083733 -1 0 0 0 0.6560590369687036 0.75470957328743171 forward_v I I I I #
face $-1 $104 $105 $37 $-1 $106 forward single #
loop $-1 $107 $108 $48 #
cone-surface $-1 -21.519184699898261 25.04319330100315 4.0478756743851152 0 -0.6560590369687036 -0.75470957328743171 1 0 0 1 I I 0 1 1 forward I I I I #
face $-1 $109 $110 $38 $-1 $111 forward single #
loop $-1 $112 $113 $49 #
cone-surface $-1 -16.489660669086277 25.04319330100315 4.0478756743851152 0 -0.6560590369687036 -0.75470957328743171 1 0 0 1 I I 0 1 1 forward I I I I #
face $-1 $114 $115 $39 $-1 $116 forward single #
loop $-1 $117 $118 $50 #
cone-surface $-1 -11.460136638274292 25.04319330100315 4.0478756743851152 0 -0.6560590369687036 -0.75470957328743171 1 0 0 1 I I 0 1 1 forward I I I I #
face $-1 $119 $120 $40 $-1 $121 reversed single #
loop $-1 $-1 $122 $51 #
plane-surface $-1 -16.816999848056561 -95.280582603308119 46.465999704576674 1 0 0 0 0.82903758062907751 -0.55919289150049634 forward_v I I I I #
face $-1 $123 $124 $41 $-1 $125 forward single #
loop $-1 $126 $127 $52 #
cone-surface $-1 -11.204331621927871 -24.323062262091913 2.7425255051086364 0 0.82903758062907751 -0.55919289150049634 1.5 0 0 1 I I 0 1 1.5 forward I I I I #
face $-1 $128 $129 $42 $-1 $130 reversed single #
loop $-1 $-1 $131 $53 #
plane-surface $-1 19.142662624312145 -95.280582603308119 46.465999704576674 1 0 0 0 0.82903758062907751 -0.55919289150049634 forward_v I I I I #
face $-1 $132 $133 $43 $-1 $134 forward single #
loop $-1 $135 $136 $54 #
cone-surface $-1 24.755330850440835 -24.323062262091913 2.7425255051086364 0 0.82903758062907751 -0.55919289150049634 1.5 0 0 1 I I 0 1 1.5 forward I I I I #
face $-1 $137 $138 $33 $-1 $139 reversed single #
loop $-1 $-1 $140 $55 #
plane-surface $-1 0 0 -6.6841485727442578 0 0 1 1 0 0 forward_v I I I I #
coedge $-1 $141 $142 $143 $144 forward $56 $-1 #
face $-1 $145 $146 $34 $-1 $147 reversed single #
loop $-1 $-1 $148 $58 #
plane-surface $-1 -38.30821039814608 0 -2.074568426046838 0 0 1 1 0 0 forward_v I I I I #
coedge $-1 $149 $150 $151 $152 forward $59 $-1 #
face $-1 $153 $154 $35 $-1 $155 reversed single #
loop $-1 $-1 $156 $61 #
plane-surface $-1 38.30821039814608 0 -2.074568426046838 0 0 1 1 0 0 forward_v I I I I #
coedge $-1 $157 $158 $159 $160 reversed $62 $-1 #
face $-1 $161 $162 $36 $-1 $163 reversed single #
loop $-1 $-1 $164 $64 #
plane-surface $-1 -16.489660669086277 -14.196809375213 39.453233729040299 0 0.6560590369687036 0.75470957328743171 1 0 0 forward_v I I I I #
coedge $-1 $165 $166 $167 $168 reversed $65 $-1 #
face $-1 $-1 $169 $37 $-1 $170 forward single #
loop $-1 $171 $172 $67 #
cone-surface $-1 -21.519184699898261 24.07419128030628 2.9331663870413909 0 -0.6560590369687036 -0.75470957328743171 0.5 0 0 1 I I -0.70710678118654746 0.70710678118654746 0.5 forward I I I I #
loop $-1 $-1 $173 $48 #
coedge $-1 $108 $108 $174 $175 reversed $68 $-1 #
face $-1 $-1 $176 $38 $-1 $177 forward single #
loop $-1 $178 $179 $70 #
cone-surface $-1 -16.489660669086277 24.07419128030628 2.9331663870413909 0 -0.6560590369687036 -0.75470957328743171 0.5 0 0 1 I I -0.70710678118654746 0.70710678118654746 0.5 forward I I I I #
loop $-1 $-1 $180 $49 #
coedge $-1 $113 $113 $181 $182 reversed $71 $-1 #
face $-1 $-1 $183 $39 $-1 $184 forward single #
loop $-1 $185 $186 $73 #
cone-surface $-1 -11.460136638274292 24.07419128030628 2.9331663870413909 0 -0.6560590369687036 -0.75470957328743171 0.5 0 0 1 I I -0.70710678118654746 0.70710678118654746 0.5 forward I I I I #
loop $-1 $-1 $187 $50 #
coedge $-1 $118 $118 $188 $189 reversed $74 $-1 #
face $-1 $190 $191 $40 $-1 $192 reversed single #
loop $-1 $-1 $193 $76 #
plane-surface $-1 -11.204331621927871 -27.868621489134881 0.99605921219340843 0 -0.82903758062907751 0.55919289150049634 1 0 0 forward_v I I I I #
coedge $-1 $194 $195 $196 $197 reversed $77 $-1 #
face $-1 $-1 $198 $41 $-1 $199 forward single #
loop $-1 $200 $201 $79 #
cone-surface $-1 -11.204331621927871 -22.074057148956175 1.225552449123068 0 0.82903758062907751 -0.55919289150049634 0.75 0 0 1 I I -0.70710678118654757 0.70710678118654757 0.75 forward I I I I #
loop $-1 $-1 $202 $52 #
coedge $-1 $127 $127 $203 $204 reversed $80 $-1 #
face $-1 $205 $206 $42 $-1 $207 reversed single #
loop $-1 $-1 $208 $82 #
plane-surface $-1 24.755330850440835 -27.868621489134881 0.99605921219340843 0 -0.82903758062907751 0.55919289150049634 1 0 0 forward_v I I I I #
coedge $-1 $209 $210 $211 $212 reversed $83 $-1 #
face $-1 $-1 $213 $43 $-1 $214 forward single #
loop $-1 $215 $216 $85 #
cone-surface $-1 24.755330850440835 -22.074057148956175 1.225552449123068 0 0.82903758062907751 -0.55919289150049634 0.75 0 0 1 I I -0.70710678118654757 0.70710678118654757 0.75 forward I I I I #
loop $-1 $-1 $217 $54 #
coedge $-1 $136 $136 $218 $219 reversed $86 $-1 #
face $-1 $220 $221 $33 $-1 $222 reversed single #
loop $-1 $-1 $223 $88 #
plane-surface $-1 0 -27.868621489134888 0 0 1 0 0 0 1 forward_v I I I I #
coedge $-1 $224 $225 $226 $227 forward $89 $-1 #
coedge $-1 $228 $91 $229 $230 forward $56 $-1 #
coedge $-1 $91 $228 $231 $232 forward $56 $-1 #
coedge $-1 $233 $234 $91 $144 reversed $235 $-1 #
edge $-1 $236 -27.868621489134888 $237 27.868621489134888 $143 $238 forward 7 unknown #
face $-1 $239 $240 $34 $-1 $241 reversed single #
loop $-1 $-1 $242 $92 #
plane-surface $-1 -35.959662472368699 0 -0.47395891721057559 -1 0 0 0 0 1 forward_v I I I I #
coedge $-1 $243 $244 $245 $246 forward $93 $-1 #
coedge $-1 $247 $95 $248 $249 reversed $59 $-1 #
coedge $-1 $95 $247 $250 $251 reversed $59 $-1 #
coedge $-1 $242 $252 $95 $152 reversed $146 $-1 #
edge $-1 $253 -27.868621489134888 $254 27.868621489134888 $151 $255 forward 7 unknown #
face $-1 $256 $257 $35 $-1 $258 reversed single #
loop $-1 $-1 $259 $96 #
plane-surface $-1 35.959662472368699 0 -0.47395891721057559 1 0 0 0 0 -1 forward_v I I I I #
coedge $-1 $260 $261 $262 $263 reversed $97 $-1 #
coedge $-1 $264 $99 $265 $266 reversed $62 $-1 #
coedge $-1 $99 $264 $267 $268 reversed $62 $-1 #
coedge $-1 $269 $270 $99 $160 forward $271 $-1 #
edge $-1 $272 -27.868621489134888 $273 27.868621489134888 $159 $274 forward 7 unknown #
face $-1 $275 $276 $36 $-1 $277 reversed single #
loop $-1 $-1 $278 $100 #
plane-surface $-1 -24.872200720439587 39.149658049312102 100.82132318083733 1 0 0 0 -0.6560590369687036 -0.75470957328743171 forward_v I I I I #
coedge $-1 $279 $280 $281 $282 reversed $101 $-1 #
coedge $-1 $166 $103 $283 $284 reversed $65 $-1 #
coedge $-1 $103 $165 $279 $285 reversed $65 $-1 #
coedge $-1 $281 $286 $103 $168 forward $276 $-1 #
edge $-1 $287 43.726513017674407 $288 47.524349812992675 $167 $289 forward 7 unknown #
loop $-1 $-1 $174 $104 #
plane-surface $-1 -16.489660669086277 -14.196809375213 39.453233729040299 0 0.6560590369687036 0.75470957328743171 1 0 0 forward_v I I I I #
loop $-1 $-1 $290 $67 #
coedge $-1 $172 $172 $173 $291 reversed $105 $-1 #
coedge $-1 $173 $173 $172 $291 forward $107 $-1 #
coedge $-1 $174 $174 $108 $175 forward $169 $-1 #
edge $-1 $292 -1.9803128049388458e-015 $292 6.2831853071795987 $174 $293 forward 7 unknown #
loop $-1 $-1 $181 $109 #
plane-surface $-1 -16.489660669086277 -14.196809375213 39.453233729040299 0 0.6560590369687036 0.75470957328743171 1 0 0 forward_v I I I I #
loop $-1 $-1 $294 $70 #
coedge $-1 $179 $179 $180 $295 reversed $110 $-1 #
coedge $-1 $180 $180 $179 $295 forward $112 $-1 #
coedge $-1 $181 $181 $113 $182 forward $176 $-1 #
edge $-1 $296 -1.9803128049388458e-015 $296 6.2831853071795987 $181 $297 forward 7 unknown #
loop $-1 $-1 $188 $114 #
plane-surface $-1 -16.489660669086277 -14.196809375213 39.453233729040299 0 0.6560590369687036 0.75470957328743171 1 0 0 forward_v I I I I #
loop $-1 $-1 $298 $73 #
coedge $-1 $186 $186 $187 $299 reversed $115 $-1 #
coedge $-1 $187 $187 $186 $299 forward $117 $-1 #
coedge $-1 $188 $188 $118 $189 forward $183 $-1 #
edge $-1 $300 -1.9803128049388458e-015 $300 6.2831853071795987 $188 $301 forward 7 unknown #
face $-1 $302 $303 $40 $-1 $304 forward single #
loop $-1 $-1 $305 $119 #
plane-surface $-1 -5.5916633957991806 -95.280582603308119 46.465999704576674 -1 0 0 0 -0.82903758062907751 0.55919289150049634 forward_v I I I I #
coedge $-1 $306 $307 $308 $309 reversed $120 $-1 #
coedge $-1 $195 $122 $310 $311 reversed $77 $-1 #
coedge $-1 $122 $194 $306 $312 reversed $77 $-1 #
coedge $-1 $308 $313 $122 $197 forward $314 $-1 #
edge $-1 $315 16.548851279544081 $316 22.236940640094939 $196 $317 forward 7 unknown #
loop $-1 $-1 $203 $123 #
plane-surface $-1 -11.204331621927871 -27.868621489134881 0.99605921219340843 0 -0.82903758062907751 0.55919289150049634 1 0 0 forward_v I I I I #
loop $-1 $-1 $318 $79 #
coedge $-1 $201 $201 $202 $319 reversed $124 $-1 #
coedge $-1 $202 $202 $201 $319 forward $126 $-1 #
coedge $-1 $203 $203 $127 $204 forward $198 $-1 #
edge $-1 $320 3.936761827341363e-016 $320 6.2831853071796004 $203 $321 forward 7 unknown #
face $-1 $322 $323 $42 $-1 $324 reversed single #
loop $-1 $-1 $325 $128 #
plane-surface $-1 30.367999076569525 -95.280582603308119 46.465999704576674 -1 0 0 0 -0.82903758062907751 0.55919289150049634 forward_v I I I I #
coedge $-1 $326 $327 $328 $329 reversed $129 $-1 #
coedge $-1 $210 $131 $330 $331 reversed $83 $-1 #
coedge $-1 $131 $209 $326 $332 reversed $83 $-1 #
coedge $-1 $328 $333 $131 $212 forward $323 $-1 #
edge $-1 $334 16.548851279544081 $335 22.236940640094939 $211 $336 forward 7 unknown #
loop $-1 $-1 $218 $132 #
plane-surface $-1 24.755330850440835 -27.868621489134881 0.99605921219340843 0 -0.82903758062907751 0.55919289150049634 1 0 0 forward_v I I I I #
loop $-1 $-1 $337 $85 #
coedge $-1 $216 $216 $217 $338 reversed $133 $-1 #
coedge $-1 $217 $217 $216 $338 forward $135 $-1 #
coedge $-1 $218 $218 $136 $219 forward $213 $-1 #
edge $-1 $339 3.936761827341363e-016 $339 6.2831853071796004 $218 $340 forward 7 unknown #
face $-1 $341 $342 $33 $-1 $343 reversed single #
loop $-1 $-1 $344 $137 #
plane-surface $-1 -40.656758323923462 0 0 1 0 0 0 0 -1 forward_v I I I I #
coedge $-1 $345 $231 $346 $347 forward $138 $-1 #
coedge $-1 $348 $140 $345 $349 forward $89 $-1 #
coedge $-1 $140 $348 $350 $351 forward $89 $-1 #
coedge $-1 $234 $233 $140 $227 reversed $235 $-1 #
edge $-1 $352 -27.868621489134888 $353 27.868621489134888 $226 $354 forward 7 unknown #
coedge $-1 $142 $141 $355 $356 forward $56 $-1 #
coedge $-1 $357 $358 $141 $230 reversed $342 $-1 #
edge $-1 $237 -40.656758323923462 $359 40.656758323923462 $229 $360 forward 7 unknown #
coedge $-1 $223 $361 $142 $232 reversed $138 $-1 #
edge $-1 $362 -40.656758323923462 $236 40.656758323923462 $231 $363 forward 7 unknown #
coedge $-1 $226 $143 $361 $364 forward $235 $-1 #
coedge $-1 $143 $226 $357 $365 reversed $235 $-1 #
loop $-1 $-1 $233 $341 #
vertex $-1 $144 $366 #
vertex $-1 $144 $367 #
straight-curve $-1 40.656758323923462 0 6.6841485727442578 0 1 0 I I #
face $-1 $368 $369 $34 $-1 $370 reversed single #
loop $-1 $-1 $371 $145 #
plane-surface $-1 0 -27.868621489134888 0 0 1 0 0 0 1 forward_v I I I I #
coedge $-1 $245 $151 $372 $373 reversed $146 $-1 #
coedge $-1 $374 $148 $371 $375 reversed $93 $-1 #
coedge $-1 $148 $374 $376 $377 reversed $93 $-1 #
coedge $-1 $252 $242 $148 $246 reversed $146 $-1 #
edge $-1 $378 -27.868621489134888 $379 27.868621489134888 $245 $380 forward 7 unknown #
coedge $-1 $150 $149 $381 $382 reversed $59 $-1 #
coedge $-1 $383 $384 $149 $249 forward $385 $-1 #
edge $-1 $386 -21.502653124850422 $254 -16.805557273295658 $248 $387 forward 7 unknown #
coedge $-1 $388 $372 $150 $251 forward $240 $-1 #
edge $-1 $253 16.805557273295658 $389 21.502653124850422 $250 $390 forward 7 unknown #
coedge $-1 $151 $245 $383 $391 reversed $146 $-1 #
vertex $-1 $251 $392 #
vertex $-1 $249 $393 #
straight-curve $-1 -35.959662472368699 0 1.1266505916256868 0 1 0 I I #
face $-1 $394 $395 $35 $-1 $396 reversed single #
loop $-1 $-1 $267 $153 #
plane-surface $-1 0 -27.868621489134888 0 0 1 0 0 0 1 forward_v I I I I #
coedge $-1 $397 $398 $399 $400 reversed $154 $-1 #
coedge $-1 $401 $156 $402 $403 reversed $97 $-1 #
coedge $-1 $156 $401 $404 $405 reversed $97 $-1 #
coedge $-1 $270 $269 $156 $263 forward $271 $-1 #
edge $-1 $406 -27.868621489134888 $407 27.868621489134888 $262 $408 forward 7 unknown #
coedge $-1 $158 $157 $398 $409 forward $62 $-1 #
coedge $-1 $410 $399 $157 $266 forward $395 $-1 #
edge $-1 $411 16.805557273295658 $272 21.502653124850422 $265 $412 forward 7 unknown #
coedge $-1 $413 $414 $158 $268 forward $257 $-1 #
edge $-1 $273 -21.502653124850422 $415 -16.805557273295658 $267 $416 forward 7 unknown #
coedge $-1 $262 $159 $414 $417 forward $271 $-1 #
coedge $-1 $159 $262 $410 $418 reversed $271 $-1 #
loop $-1 $-1 $159 $394 #
vertex $-1 $418 $419 #
vertex $-1 $417 $420 #
straight-curve $-1 40.656758323923462 0 1.1266505916256868 0 -1 0 I I #
face $-1 $-1 $421 $36 $-1 $422 forward single #
loop $-1 $-1 $167 $161 #
plane-surface $-1 0 27.868621489134888 0 0 -1 0 0 0 -1 forward_v I I I I #
coedge $-1 $423 $424 $425 $426 reversed $162 $-1 #
coedge $-1 $427 $164 $166 $285 forward $101 $-1 #
coedge $-1 $164 $427 $423 $428 forward $101 $-1 #
coedge $-1 $425 $167 $164 $282 forward $276 $-1 #
edge $-1 $288 -0.13770971681016952 $429 16.627370385896448 $281 $430 forward 7 unknown #
coedge $-1 $431 $432 $165 $284 forward $421 $-1 #
edge $-1 $433 3.9248810926403799 $287 8.2937924644788374 $283 $434 forward 7 unknown #
edge $-1 $288 -55.737242978269791 $433 -49.948378590598168 $166 $435 forward 7 unknown #
coedge $-1 $167 $425 $431 $436 reversed $276 $-1 #
vertex $-1 $436 $437 #
vertex $-1 $168 $438 #
straight-curve $-1 -8.1071206177329689 27.868621489134888 50.410661590418663 0 0 -1 I I #
coedge $-1 $290 $290 $-1 $439 reversed $171 $-1 #
edge $-1 $440 0 $440 6.2831853071796004 $172 $441 forward 7 unknown #
vertex $-1 $175 $442 #
ellipse-curve $-1 -21.519184699898261 25.684165803215663 4.7852301750851165 0 0.6560590369687036 0.75470957328743171 1 0 0 1 I I #
coedge $-1 $294 $294 $-1 $443 reversed $178 $-1 #
edge $-1 $444 0 $444 6.2831853071796004 $179 $445 forward 7 unknown #
vertex $-1 $182 $446 #
ellipse-curve $-1 -16.489660669086277 25.684165803215663 4.7852301750851165 0 0.6560590369687036 0.75470957328743171 1 0 0 1 I I #
coedge $-1 $298 $298 $-1 $447 reversed $185 $-1 #
edge $-1 $448 0 $448 6.2831853071796004 $186 $449 forward 7 unknown #
vertex $-1 $189 $450 #
ellipse-curve $-1 -11.460136638274292 25.684165803215663 4.7852301750851165 0 0.6560590369687036 0.75470957328743171 1 0 0 1 I I #
face $-1 $-1 $314 $40 $-1 $451 reversed single #
loop $-1 $-1 $452 $190 #
plane-surface $-1 0 0 6.6841485727442578 0 0 1 1 0 0 forward_v I I I I #
coedge $-1 $453 $454 $455 $456 reversed $191 $-1 #
coedge $-1 $457 $193 $195 $312 forward $120 $-1 #
coedge $-1 $193 $457 $453 $458 forward $120 $-1 #
coedge $-1 $455 $196 $193 $309 forward $314 $-1 #
edge $-1 $316 -11.214834037092626 $459 0.010502415164754808 $308 $460 forward 7 unknown #
coedge $-1 $461 $462 $194 $311 forward $303 $-1 #
edge $-1 $463 -23.608334411277269 $315 -19.771669812519171 $310 $464 forward 7 unknown #
edge $-1 $316 -1.2717262267236031e-014 $463 6.8610754125702016 $195 $465 forward 7 unknown #
coedge $-1 $196 $455 $461 $466 reversed $314 $-1 #
loop $-1 $-1 $455 $302 #
vertex $-1 $466 $467 #
vertex $-1 $197 $468 #
straight-curve $-1 -16.816999848056561 -27.868621489134888 23.232999852288337 0 0 -1 I I #
coedge $-1 $318 $318 $-1 $469 reversed $200 $-1 #
edge $-1 $470 0 $470 6.2831853071796004 $201 $471 forward 7 unknown #
vertex $-1 $204 $472 #
ellipse-curve $-1 -11.204331621927871 -25.950289189755839 3.8401038924688295 0 -0.82903758062907751 0.55919289150049634 1.5 0 0 1 I I #
face $-1 $-1 $473 $42 $-1 $474 forward single #
loop $-1 $-1 $211 $205 #
plane-surface $-1 0 -27.868621489134888 0 0 1 0 0 0 1 forward_v I I I I #
coedge $-1 $475 $476 $477 $478 reversed $206 $-1 #
coedge $-1 $479 $208 $210 $332 forward $129 $-1 #
coedge $-1 $208 $479 $475 $480 forward $129 $-1 #
coedge $-1 $477 $211 $208 $329 forward $323 $-1 #
edge $-1 $335 6.7649971990917273 $481 17.990333651349108 $328 $482 forward 7 unknown #
coedge $-1 $483 $484 $209 $331 forward $473 $-1 #
edge $-1 $485 -23.608334411277269 $334 -19.771669812519171 $330 $486 forward 7 unknown #
edge $-1 $335 -1.2717262267236031e-014 $485 6.8610754125702016 $210 $487 forward 7 unknown #
coedge $-1 $211 $477 $483 $488 reversed $323 $-1 #
vertex $-1 $488 $489 #
vertex $-1 $212 $490 #
straight-curve $-1 19.142662624312145 -27.868621489134888 23.232999852288337 0 0 -1 I I #
coedge $-1 $337 $337 $-1 $491 reversed $215 $-1 #
edge $-1 $492 0 $492 6.2831853071796004 $216 $493 forward 7 unknown #
vertex $-1 $219 $494 #
ellipse-curve $-1 24.755330850440835 -25.950289189755839 3.8401038924688295 0 -0.82903758062907751 0.55919289150049634 1.5 0 0 1 I I #
face $-1 $-1 $235 $33 $-1 $495 reversed single #
loop $-1 $-1 $357 $220 #
plane-surface $-1 0 27.868621489134888 0 0 -1 0 0 0 -1 forward_v I I I I #
coedge $-1 $496 $355 $358 $497 forward $221 $-1 #
coedge $-1 $361 $223 $224 $349 reversed $138 $-1 #
coedge $-1 $355 $496 $223 $347 reversed $221 $-1 #
edge $-1 $362 -6.6841485727442578 $498 6.6841485727442578 $346 $499 forward 7 unknown #
coedge $-1 $225 $224 $496 $500 forward $89 $-1 #
edge $-1 $353 -40.656758323923462 $498 40.656758323923462 $345 $501 forward 7 unknown #
coedge $-1 $358 $357 $225 $351 reversed $342 $-1 #
edge $-1 $502 -40.656758323923462 $352 40.656758323923462 $350 $503 forward 7 unknown #
vertex $-1 $227 $504 #
vertex $-1 $364 $505 #
straight-curve $-1 40.656758323923462 0 -6.6841485727442578 0 -1 0 I I #
coedge $-1 $344 $346 $228 $356 reversed $221 $-1 #
edge $-1 $359 -27.868621489134888 $362 27.868621489134888 $355 $506 forward 7 unknown #
coedge $-1 $350 $229 $234 $365 forward $342 $-1 #
coedge $-1 $229 $350 $344 $497 reversed $342 $-1 #
vertex $-1 $230 $507 #
straight-curve $-1 0 27.868621489134888 6.6841485727442578 -1 0 0 I I #
coedge $-1 $231 $345 $233 $364 reversed $138 $-1 #
vertex $-1 $356 $508 #
straight-curve $-1 0 -27.868621489134888 6.6841485727442578 1 0 0 I I #
edge $-1 $236 -6.6841485727442578 $353 6.6841485727442578 $233 $509 forward 7 unknown #
edge $-1 $237 -6.6841485727442578 $352 6.6841485727442578 $234 $510 forward 7 unknown #
point $-1 40.656758323923462 -27.868621489134888 6.6841485727442578 #
point $-1 40.656758323923462 27.868621489134888 6.6841485727442578 #
face $-1 $-1 $385 $34 $-1 $511 reversed single #
loop $-1 $-1 $512 $239 #
plane-surface $-1 -40.656758323923462 0 0 1 0 0 0 0 -1 forward_v I I I I #
coedge $-1 $372 $388 $243 $375 forward $240 $-1 #
coedge $-1 $250 $371 $242 $373 forward $240 $-1 #
edge $-1 $379 -1.8375889674415502 $253 1.3636300502309746 $372 $513 forward 7 unknown #
coedge $-1 $244 $243 $512 $514 reversed $93 $-1 #
edge $-1 $515 -21.502653124850422 $379 -16.805557273295658 $371 $516 forward 7 unknown #
coedge $-1 $384 $383 $244 $377 forward $385 $-1 #
edge $-1 $378 16.805557273295658 $517 21.502653124850422 $376 $518 forward 7 unknown #
vertex $-1 $377 $519 #
vertex $-1 $375 $520 #
straight-curve $-1 -35.959662472368699 0 -2.074568426046838 0 -1 0 I I #
coedge $-1 $521 $522 $247 $382 forward $369 $-1 #
edge $-1 $389 -27.868621489134888 $386 27.868621489134888 $381 $523 forward 7 unknown #
coedge $-1 $376 $248 $252 $391 forward $385 $-1 #
coedge $-1 $248 $376 $521 $524 reversed $385 $-1 #
loop $-1 $-1 $376 $368 #
vertex $-1 $524 $525 #
straight-curve $-1 -19.15410519907304 27.868621489134888 1.1266505916256868 1 0 0 I I #
coedge $-1 $371 $250 $522 $526 forward $240 $-1 #
vertex $-1 $526 $527 #
straight-curve $-1 -19.15410519907304 -27.868621489134888 1.1266505916256868 -1 0 0 I I #
edge $-1 $254 -1.3636300502309746 $378 1.8375889674415502 $383 $528 forward 7 unknown #
point $-1 -35.959662472368699 -27.868621489134888 1.1266505916256868 #
point $-1 -35.959662472368699 27.868621489134888 1.1266505916256868 #
face $-1 $-1 $271 $35 $-1 $529 reversed single #
loop $-1 $-1 $265 $256 #
plane-surface $-1 0 27.868621489134888 0 0 -1 0 0 0 -1 forward_v I I I I #
coedge $-1 $530 $259 $401 $531 reversed $154 $-1 #
coedge $-1 $259 $530 $264 $409 reversed $154 $-1 #
coedge $-1 $265 $404 $259 $400 forward $395 $-1 #
edge $-1 $532 -1.8375889674415502 $411 1.3636300502309746 $399 $533 forward 7 unknown #
coedge $-1 $261 $260 $397 $531 forward $97 $-1 #
coedge $-1 $414 $413 $260 $403 forward $257 $-1 #
edge $-1 $534 16.805557273295658 $406 21.502653124850422 $402 $535 forward 7 unknown #
coedge $-1 $399 $410 $261 $405 forward $395 $-1 #
edge $-1 $407 -21.502653124850422 $532 -16.805557273295658 $404 $536 forward 7 unknown #
vertex $-1 $263 $537 #
vertex $-1 $263 $538 #
straight-curve $-1 40.656758323923462 0 -2.074568426046838 0 1 0 I I #
edge $-1 $411 -27.868621489134888 $415 27.868621489134888 $398 $539 forward 7 unknown #
coedge $-1 $404 $265 $270 $418 forward $395 $-1 #
vertex $-1 $266 $540 #
straight-curve $-1 19.15410519907304 27.868621489134888 1.1266505916256868 1 0 0 I I #
coedge $-1 $402 $267 $530 $541 forward $257 $-1 #
coedge $-1 $267 $402 $269 $417 reversed $257 $-1 #
vertex $-1 $268 $542 #
straight-curve $-1 19.15410519907304 -27.868621489134888 1.1266505916256868 -1 0 0 I I #
edge $-1 $273 -1.1266505916256868 $406 2.074568426046838 $269 $543 forward 7 unknown #
edge $-1 $272 -1.1266505916256868 $407 2.074568426046838 $270 $544 forward 7 unknown #
point $-1 40.656758323923462 27.868621489134888 1.1266505916256868 #
point $-1 40.656758323923462 -27.868621489134888 1.1266505916256868 #
loop $-1 $-1 $283 $275 #
plane-surface $-1 0 0 6.6841485727442578 0 0 1 1 0 0 forward_v I I I I #
coedge $-1 $424 $278 $280 $428 reversed $162 $-1 #
coedge $-1 $278 $423 $545 $546 reversed $162 $-1 #
coedge $-1 $286 $281 $278 $426 forward $276 $-1 #
edge $-1 $429 -47.524349812992675 $547 -43.726513017674407 $425 $548 forward 7 unknown #
coedge $-1 $280 $279 $432 $549 reversed $101 $-1 #
edge $-1 $550 49.948378590598168 $429 55.737242978269791 $423 $551 forward 7 unknown #
vertex $-1 $282 $552 #
straight-curve $-1 -8.2448303345431384 27.868621489134888 2.8863117774259877 -1 0 0 I I #
coedge $-1 $545 $283 $286 $436 forward $421 $-1 #
coedge $-1 $283 $545 $427 $549 forward $421 $-1 #
vertex $-1 $284 $553 #
straight-curve $-1 -8.1071206177329689 19.574829024656051 6.684148572744256 0 1 0 I I #
straight-curve $-1 -8.1071206177329689 -14.196809375213 39.453233729040299 0 -0.75470957328743171 0.6560590369687036 I I #
edge $-1 $287 8.1071206177329689 $547 24.872200720439587 $286 $554 forward 7 unknown #
point $-1 -8.1071206177329689 27.868621489134888 6.6841485727442578 #
point $-1 -8.1071206177329689 27.868621489134888 2.8863117774259877 #
edge $-1 $555 1 $555 0 $290 $-1 forward 7 unknown #
vertex $-1 $291 $556 #
ellipse-curve $-1 -21.519184699898261 24.402220798790633 3.3105211736851068 0 0.6560590369687036 0.75470957328743171 1 0 0 1 I I #
point $-1 -20.519184699898261 25.684165803215667 4.7852301750851236 #
edge $-1 $557 1 $557 0 $294 $-1 forward 7 unknown #
vertex $-1 $295 $558 #
ellipse-curve $-1 -16.489660669086277 24.402220798790633 3.3105211736851068 0 0.6560590369687036 0.75470957328743171 1 0 0 1 I I #
point $-1 -15.489660669086277 25.684165803215667 4.7852301750851236 #
edge $-1 $559 1 $559 0 $298 $-1 forward 7 unknown #
vertex $-1 $299 $560 #
ellipse-curve $-1 -11.460136638274292 24.402220798790633 3.3105211736851068 0 0.6560590369687036 0.75470957328743171 1 0 0 1 I I #
point $-1 -10.460136638274292 25.684165803215667 4.7852301750851236 #
plane-surface $-1 0 -27.868621489134888 0 0 1 0 0 0 1 forward_v I I I I #
coedge $-1 $462 $461 $454 $561 forward $303 $-1 #
coedge $-1 $454 $305 $307 $458 reversed $191 $-1 #
coedge $-1 $305 $453 $452 $561 reversed $191 $-1 #
coedge $-1 $313 $308 $305 $456 forward $314 $-1 #
edge $-1 $459 -22.236940640094939 $562 -16.548851279544081 $455 $563 forward 7 unknown #
coedge $-1 $307 $306 $462 $564 reversed $120 $-1 #
edge $-1 $565 -6.8610754125702016 $459 1.2717262267236031e-014 $453 $566 forward 7 unknown #
vertex $-1 $309 $567 #
straight-curve $-1 -5.6021658109639354 -27.868621489134888 0.99605921219339599 1 0 0 I I #
coedge $-1 $452 $310 $313 $466 forward $303 $-1 #
coedge $-1 $310 $452 $457 $564 forward $303 $-1 #
vertex $-1 $311 $568 #
straight-curve $-1 -16.816999848056561 -47.640291301654059 6.6841485727442596 0 -1 0 I I #
straight-curve $-1 -16.816999848056561 -27.868621489134881 0.99605921219340843 0 0.55919289150049634 0.82903758062907751 I I #
edge $-1 $315 -16.816999848056561 $562 -5.5916633957991806 $313 $569 forward 7 unknown #
point $-1 -16.816999848056561 -27.868621489134888 6.6841485727442578 #
point $-1 -16.816999848056561 -27.868621489134888 0.99605921219339788 #
edge $-1 $570 1 $570 0 $318 $-1 forward 7 unknown #
vertex $-1 $319 $571 #
ellipse-curve $-1 -11.204331621927871 -22.695835334427983 1.6449471177484403 0 -0.82903758062907751 0.55919289150049634 1.5 0 0 1 I I #
point $-1 -9.7043316219278708 -25.950289189755843 3.8401038924688327 #
loop $-1 $-1 $330 $322 #
plane-surface $-1 0 0 6.6841485727442578 0 0 1 1 0 0 forward_v I I I I #
coedge $-1 $476 $325 $327 $480 reversed $206 $-1 #
coedge $-1 $325 $475 $572 $573 reversed $206 $-1 #
coedge $-1 $333 $328 $325 $478 forward $323 $-1 #
edge $-1 $481 -22.236940640094939 $574 -16.548851279544081 $477 $575 forward 7 unknown #
coedge $-1 $327 $326 $484 $576 reversed $129 $-1 #
edge $-1 $577 -6.8610754125702016 $481 1.2717262267236031e-014 $475 $578 forward 7 unknown #
vertex $-1 $329 $579 #
straight-curve $-1 12.377665425220417 -27.868621489134888 0.99605921219339599 1 0 0 I I #
coedge $-1 $572 $330 $333 $488 forward $473 $-1 #
coedge $-1 $330 $572 $479 $576 forward $473 $-1 #
vertex $-1 $331 $580 #
straight-curve $-1 19.142662624312145 -47.640291301654059 6.6841485727442596 0 -1 0 I I #
straight-curve $-1 19.142662624312145 -27.868621489134881 0.99605921219340843 0 0.55919289150049634 0.82903758062907751 I I #
edge $-1 $334 19.142662624312145 $574 30.367999076569525 $333 $581 forward 7 unknown #
point $-1 19.142662624312145 -27.868621489134888 6.6841485727442578 #
point $-1 19.142662624312145 -27.868621489134888 0.99605921219339788 #
edge $-1 $582 1 $582 0 $337 $-1 forward 7 unknown #
vertex $-1 $338 $583 #
ellipse-curve $-1 24.755330850440835 -22.695835334427983 1.6449471177484403 0 -0.82903758062907751 0.55919289150049634 1.5 0 0 1 I I #
point $-1 26.255330850440835 -25.950289189755843 3.8401038924688327 #
plane-surface $-1 40.656758323923462 0 0 -1 0 0 0 0 1 forward_v I I I I #
coedge $-1 $346 $344 $348 $500 reversed $221 $-1 #
edge $-1 $359 -6.6841485727442578 $502 6.6841485727442578 $358 $584 forward 7 unknown #
vertex $-1 $500 $585 #
straight-curve $-1 -40.656758323923462 -27.868621489134888 0 0 0 -1 I I #
edge $-1 $498 -27.868621489134888 $502 27.868621489134888 $496 $586 forward 7 unknown #
straight-curve $-1 0 -27.868621489134888 -6.6841485727442578 -1 0 0 I I #
vertex $-1 $351 $587 #
straight-curve $-1 0 27.868621489134888 -6.6841485727442578 1 0 0 I I #
point $-1 40.656758323923462 27.868621489134888 -6.6841485727442578 #
point $-1 40.656758323923462 -27.868621489134888 -6.6841485727442578 #
straight-curve $-1 -40.656758323923462 0 6.6841485727442578 0 -1 0 I I #
point $-1 -40.656758323923462 27.868621489134888 6.6841485727442578 #
point $-1 -40.656758323923462 -27.868621489134888 6.6841485727442578 #
straight-curve $-1 40.656758323923462 -27.868621489134888 0 0 0 -1 I I #
straight-curve $-1 40.656758323923462 27.868621489134888 0 0 0 -1 I I #
plane-surface $-1 0 27.868621489134888 0 0 -1 0 0 0 -1 forward_v I I I I #
coedge $-1 $522 $521 $374 $514 forward $369 $-1 #
straight-curve $-1 -35.959662472368699 -27.868621489134888 -0.2369794586052878 0 0 1 I I #
edge $-1 $517 -27.868621489134888 $515 27.868621489134888 $512 $588 forward 7 unknown #
vertex $-1 $375 $589 #
straight-curve $-1 -19.15410519907304 -27.868621489134888 -2.074568426046838 1 0 0 I I #
vertex $-1 $377 $590 #
straight-curve $-1 -19.15410519907304 27.868621489134888 -2.074568426046838 -1 0 0 I I #
point $-1 -35.959662472368699 27.868621489134888 -2.074568426046838 #
point $-1 -35.959662472368699 -27.868621489134888 -2.074568426046838 #
coedge $-1 $512 $381 $384 $524 forward $369 $-1 #
coedge $-1 $381 $512 $388 $526 reversed $369 $-1 #
straight-curve $-1 -40.656758323923462 0 1.1266505916256868 0 1 0 I I #
edge $-1 $386 -1.1266505916256868 $517 2.074568426046838 $384 $591 forward 7 unknown #
point $-1 -40.656758323923462 27.868621489134888 1.1266505916256868 #
edge $-1 $389 -1.1266505916256868 $515 2.074568426046838 $522 $592 forward 7 unknown #
point $-1 -40.656758323923462 -27.868621489134888 1.1266505916256868 #
straight-curve $-1 -35.959662472368699 27.868621489134888 -0.2369794586052878 0 0 -1 I I #
plane-surface $-1 40.656758323923462 0 0 -1 0 0 0 0 1 forward_v I I I I #
coedge $-1 $398 $397 $413 $541 reversed $154 $-1 #
edge $-1 $534 -27.868621489134888 $532 27.868621489134888 $397 $593 forward 7 unknown #
vertex $-1 $405 $594 #
straight-curve $-1 35.959662472368699 27.868621489134888 -0.2369794586052878 0 0 1 I I #
vertex $-1 $403 $595 #
straight-curve $-1 19.15410519907304 -27.868621489134888 -2.074568426046838 1 0 0 I I #
straight-curve $-1 19.15410519907304 27.868621489134888 -2.074568426046838 -1 0 0 I I #
point $-1 40.656758323923462 -27.868621489134888 -2.074568426046838 #
point $-1 40.656758323923462 27.868621489134888 -2.074568426046838 #
straight-curve $-1 35.959662472368699 0 1.1266505916256868 0 -1 0 I I #
point $-1 35.959662472368699 27.868621489134888 1.1266505916256868 #
edge $-1 $415 -1.3636300502309746 $534 1.8375889674415502 $413 $596 forward 7 unknown #
point $-1 35.959662472368699 -27.868621489134888 1.1266505916256868 #
straight-curve $-1 40.656758323923462 -27.868621489134888 0 0 0 -1 I I #
straight-curve $-1 40.656758323923462 27.868621489134888 0 0 0 -1 I I #
coedge $-1 $432 $431 $424 $546 forward $421 $-1 #
edge $-1 $547 -8.2937924644788374 $550 -3.9248810926403799 $545 $597 forward 7 unknown #
vertex $-1 $546 $598 #
straight-curve $-1 -24.872200720439587 27.868621489134888 50.410661590418663 0 0 1 I I #
edge $-1 $550 -16.627370385896448 $433 0.13770971681016952 $432 $599 forward 7 unknown #
vertex $-1 $549 $600 #
straight-curve $-1 -24.872200720439587 -14.196809375213 39.453233729040299 0 0.75470957328743171 -0.6560590369687036 I I #
point $-1 -24.872200720439587 27.868621489134888 2.8863117774259877 #
point $-1 -8.1071206177329689 23.499710117296431 6.684148572744256 #
straight-curve $-1 0 27.868621489134888 6.6841485727442578 -1 0 0 I I #
vertex $-1 $439 $601 #
point $-1 -20.519184699898261 24.402220798790633 3.3105211736851068 #
vertex $-1 $443 $602 #
point $-1 -15.489660669086277 24.402220798790633 3.3105211736851068 #
vertex $-1 $447 $603 #
point $-1 -10.460136638274292 24.402220798790633 3.3105211736851068 #
edge $-1 $562 19.771669812519171 $565 23.608334411277269 $452 $604 forward 7 unknown #
vertex $-1 $456 $605 #
straight-curve $-1 -5.5916633957991806 -27.868621489134888 23.232999852288337 0 0 1 I I #
edge $-1 $565 -0.010502415164754808 $463 11.214834037092626 $462 $606 forward 7 unknown #
vertex $-1 $564 $607 #
straight-curve $-1 -5.5916633957991806 -27.868621489134881 0.99605921219340843 0 -0.55919289150049634 -0.82903758062907751 I I #
point $-1 -5.5916633957991806 -27.868621489134888 0.99605921219339788 #
point $-1 -16.816999848056561 -24.03195689037679 6.6841485727442578 #
straight-curve $-1 0 -27.868621489134888 6.6841485727442578 1 0 0 I I #
vertex $-1 $469 $608 #
point $-1 -9.7043316219278708 -22.695835334427983 1.6449471177484403 #
coedge $-1 $484 $483 $476 $573 forward $473 $-1 #
edge $-1 $574 19.771669812519171 $577 23.608334411277269 $572 $609 forward 7 unknown #
vertex $-1 $573 $610 #
straight-curve $-1 30.367999076569525 -27.868621489134888 23.232999852288337 0 0 1 I I #
edge $-1 $577 -17.990333651349108 $485 -6.7649971990917273 $484 $611 forward 7 unknown #
vertex $-1 $576 $612 #
straight-curve $-1 30.367999076569525 -27.868621489134881 0.99605921219340843 0 -0.55919289150049634 -0.82903758062907751 I I #
point $-1 30.367999076569525 -27.868621489134888 0.99605921219339788 #
point $-1 19.142662624312145 -24.03195689037679 6.6841485727442578 #
straight-curve $-1 0 -27.868621489134888 6.6841485727442578 1 0 0 I I #
vertex $-1 $491 $613 #
point $-1 26.255330850440835 -22.695835334427983 1.6449471177484403 #
straight-curve $-1 -40.656758323923462 27.868621489134888 0 0 0 -1 I I #
point $-1 -40.656758323923462 -27.868621489134888 -6.6841485727442578 #
straight-curve $-1 -40.656758323923462 0 -6.6841485727442578 0 1 0 I I #
point $-1 -40.656758323923462 27.868621489134888 -6.6841485727442578 #
straight-curve $-1 -40.656758323923462 0 -2.074568426046838 0 -1 0 I I #
point $-1 -40.656758323923462 -27.868621489134888 -2.074568426046838 #
point $-1 -40.656758323923462 27.868621489134888 -2.074568426046838 #
straight-curve $-1 -40.656758323923462 27.868621489134888 0 0 0 -1 I I #
straight-curve $-1 -40.656758323923462 -27.868621489134888 0 0 0 -1 I I #
straight-curve $-1 35.959662472368699 0 -2.074568426046838 0 1 0 I I #
point $-1 35.959662472368699 27.868621489134888 -2.074568426046838 #
point $-1 35.959662472368699 -27.868621489134888 -2.074568426046838 #
straight-curve $-1 35.959662472368699 -27.868621489134888 -0.2369794586052878 0 0 -1 I I #
straight-curve $-1 -24.872200720439587 19.574829024656051 6.684148572744256 0 -1 0 I I #
point $-1 -24.872200720439587 27.868621489134888 6.6841485727442578 #
straight-curve $-1 -8.2448303345431384 23.499710117296424 6.6841485727442596 1 0 0 I I #
point $-1 -24.872200720439587 23.499710117296431 6.684148572744256 #
point $-1 -21.519184699898261 23.746161761821927 2.555811600397675 #
point $-1 -16.489660669086277 23.746161761821927 2.555811600397675 #
point $-1 -11.460136638274292 23.746161761821927 2.555811600397675 #
straight-curve $-1 -5.5916633957991806 -47.640291301654059 6.6841485727442596 0 1 0 I I #
point $-1 -5.5916633957991806 -27.868621489134888 6.6841485727442578 #
straight-curve $-1 -5.6021658109639354 -24.03195689037679 6.6841485727442578 -1 0 0 I I #
point $-1 -5.5916633957991806 -24.03195689037679 6.6841485727442578 #
point $-1 -11.204331621927871 -21.452278963484368 0.80615778049769582 #
straight-curve $-1 30.367999076569525 -47.640291301654059 6.6841485727442596 0 1 0 I I #
point $-1 30.367999076569525 -27.868621489134888 6.6841485727442578 #
straight-curve $-1 12.377665425220417 -24.03195689037679 6.6841485727442578 -1 0 0 I I #
point $-1 30.367999076569525 -24.03195689037679 6.6841485727442578 #
point $-1 24.755330850440835 -21.452278963484368 0.80615778049769582 #
End-of-ACIS-data 