500 0 7 0           
7 Unknown 11 ACIS 5.0 NT 24 Fri Mar 26 16:49:59 1999 
-1 9.9999999999999995e-007 1e-010 
body $-1 $7 $-1 $8 #
body $-1 $9 $-1 $10 #
body $-1 $11 $-1 $12 #
body $-1 $13 $-1 $14 #
body $-1 $15 $-1 $16 #
body $-1 $17 $-1 $18 #
body $-1 $19 $-1 $20 #
lump $-1 $-1 $21 $0 #
transform $-1 1 0 0 0 1 0 0 0 1 54.477980895413069 36.138484943295602 10.28855508562034 1 rotate no_reflect no_shear #
lump $-1 $-1 $22 $1 #
transform $-1 1 0 0 0 1 0 0 0 1 54.477980895413069 36.138484943295602 10.28855508562034 1 rotate no_reflect no_shear #
lump $-1 $-1 $23 $2 #
transform $-1 1 0 0 0 1 0 0 0 1 54.477980895413069 36.138484943295602 10.28855508562034 1 rotate no_reflect no_shear #
lump $-1 $-1 $24 $3 #
transform $-1 1 0 0 0 1 0 0 0 1 54.477980895413069 36.138484943295602 10.28855508562034 1 rotate no_reflect no_shear #
lump $-1 $-1 $25 $4 #
transform $-1 1 0 0 0 1 0 0 0 1 54.477980895413069 36.138484943295602 10.28855508562034 1 rotate no_reflect no_shear #
lump $-1 $-1 $26 $5 #
transform $-1 1 0 0 0 1 0 0 0 1 54.477980895413069 36.138484943295602 10.28855508562034 1 rotate no_reflect no_shear #
lump $-1 $-1 $27 $6 #
transform $-1 1 0 0 0 1 0 0 0 1 54.477980895413069 36.138484943295602 10.28855508562034 1 rotate no_reflect no_shear #
shell $-1 $-1 $-1 $28 $-1 $7 #
shell $-1 $-1 $-1 $29 $-1 $9 #
shell $-1 $-1 $-1 $30 $-1 $11 #
shell $-1 $-1 $-1 $31 $-1 $13 #
shell $-1 $-1 $-1 $32 $-1 $15 #
shell $-1 $-1 $-1 $33 $-1 $17 #
shell $-1 $-1 $-1 $34 $-1 $19 #
face $-1 $35 $36 $21 $-1 $37 forward single #
face $-1 $38 $39 $22 $-1 $40 reversed single #
face $-1 $41 $42 $23 $-1 $43 reversed single #
face $-1 $44 $45 $24 $-1 $46 reversed single #
face $-1 $47 $48 $25 $-1 $49 forward single #
face $-1 $50 $51 $26 $-1 $52 forward single #
face $-1 $53 $54 $27 $-1 $55 forward single #
face $-1 $56 $57 $21 $-1 $58 reversed single #
loop $-1 $-1 $59 $28 #
plane-surface $-1 0 0 10.28855508562034 0 0 1 1 0 0 forward_v I I I I #
face $-1 $60 $61 $22 $-1 $62 reversed single #
loop $-1 $-1 $63 $29 #
plane-surface $-1 -50.489342294877872 0 6.0935676392595219 0 0 1 1 0 0 forward_v I I I I #
face $-1 $64 $65 $23 $-1 $66 reversed single #
loop $-1 $-1 $67 $30 #
plane-surface $-1 50.489342294877872 0 6.0935676392595219 0 0 1 1 0 0 forward_v I I I I #
face $-1 $68 $69 $24 $-1 $70 reversed single #
loop $-1 $-1 $71 $31 #
plane-surface $-1 -32.926846436552268 -3.226373298692252 66.909722675735736 0 0.83867057594974714 0.54463902268945019 1 0 0 forward_v I I I I #
face $-1 $72 $73 $25 $-1 $74 forward single #
loop $-1 $75 $76 $32 #
cone-surface $-1 -41.071160791226504 33.513423939312688 7.4286108946327296 0 -0.83867057594974714 -0.54463902268945019 1 0 0 1 I I 0 1 1 forward I I I I #
face $-1 $77 $78 $26 $-1 $79 forward single #
loop $-1 $80 $81 $33 #
cone-surface $-1 -32.926846436552268 33.513423939312688 7.4286108946327296 0 -0.83867057594974714 -0.54463902268945019 1 0 0 1 I I 0 1 1 forward I I I I #
face $-1 $82 $83 $27 $-1 $84 forward single #
loop $-1 $85 $86 $34 #
cone-surface $-1 -24.782532081878021 33.513423939312688 7.4286108946327296 0 -0.83867057594974714 -0.54463902268945019 1 0 0 1 I I 0 1 1 forward I I I I #
face $-1 $87 $88 $21 $-1 $89 reversed single #
loop $-1 $-1 $90 $35 #
plane-surface $-1 0 0 -10.28855508562034 0 0 1 1 0 0 forward_v I I I I #
coedge $-1 $91 $92 $93 $94 forward $36 $-1 #
face $-1 $95 $96 $22 $-1 $97 reversed single #
loop $-1 $-1 $98 $38 #
plane-surface $-1 -46.500703694342675 0 8.19106136243993 -1 0 0 0 0 1 forward_v I I I I #
coedge $-1 $99 $100 $101 $102 forward $39 $-1 #
face $-1 $103 $104 $23 $-1 $105 forward single #
loop $-1 $-1 $106 $41 #
plane-surface $-1 46.500703694342675 0 8.19106136243993 1 0 0 0 0 -1 forward_v I I I I #
coedge $-1 $107 $108 $109 $110 reversed $42 $-1 #
face $-1 $111 $112 $24 $-1 $113 reversed single #
loop $-1 $-1 $114 $44 #
plane-surface $-1 -19.352989178761863 88.151785929578551 126.25139122168036 -1 0 0 0 0.83867057594974714 0.54463902268945019 forward_v I I I I #
coedge $-1 $115 $116 $117 $118 reversed $45 $-1 #
face $-1 $-1 $119 $25 $-1 $120 forward single #
loop $-1 $121 $122 $47 #
cone-surface $-1 -41.071160791226504 31.766349275520888 6.29404737858769 0 -0.83867057594974714 -0.54463902268945019 0.5 0 0 1 I I -0.70710678118654746 0.70710678118654746 0.5 forward I I I I #
loop $-1 $-1 $123 $32 #
coedge $-1 $76 $76 $124 $125 reversed $48 $-1 #
face $-1 $-1 $126 $26 $-1 $127 forward single #
loop $-1 $128 $129 $50 #
cone-surface $-1 -32.926846436552268 31.766349275520888 6.29404737858769 0 -0.83867057594974714 -0.54463902268945019 0.5 0 0 1 I I -0.70710678118654746 0.70710678118654746 0.5 forward I I I I #
loop $-1 $-1 $130 $33 #
coedge $-1 $81 $81 $131 $132 reversed $51 $-1 #
face $-1 $-1 $133 $27 $-1 $134 forward single #
loop $-1 $135 $136 $53 #
cone-surface $-1 -24.782532081878021 31.766349275520888 6.29404737858769 0 -0.83867057594974714 -0.54463902268945019 0.5 0 0 1 I I -0.70710678118654746 0.70710678118654746 0.5 forward I I I I #
loop $-1 $-1 $137 $34 #
coedge $-1 $86 $86 $138 $139 reversed $54 $-1 #
face $-1 $140 $141 $21 $-1 $142 reversed single #
loop $-1 $-1 $143 $56 #
plane-surface $-1 0 -36.138484943295602 0 0 1 0 0 0 1 forward_v I I I I #
coedge $-1 $144 $145 $146 $147 forward $57 $-1 #
coedge $-1 $148 $59 $149 $150 forward $36 $-1 #
coedge $-1 $59 $148 $151 $152 forward $36 $-1 #
coedge $-1 $153 $154 $59 $94 reversed $155 $-1 #
edge $-1 $156 -36.138484943295602 $157 36.138484943295602 $93 $158 forward 7 unknown #
face $-1 $159 $160 $22 $-1 $161 reversed single #
loop $-1 $-1 $162 $60 #
plane-surface $-1 0 36.138484943295602 0 0 -1 0 0 0 -1 forward_v I I I I #
coedge $-1 $163 $164 $165 $166 reversed $61 $-1 #
coedge $-1 $167 $63 $168 $169 reversed $39 $-1 #
coedge $-1 $63 $167 $170 $171 reversed $39 $-1 #
coedge $-1 $164 $163 $63 $102 reversed $61 $-1 #
edge $-1 $172 -36.138484943295602 $173 36.138484943295602 $101 $174 forward 7 unknown #
face $-1 $175 $176 $23 $-1 $177 reversed single #
loop $-1 $-1 $178 $64 #
plane-surface $-1 0 0 10.28855508562034 0 0 1 1 0 0 forward_v I I I I #
coedge $-1 $179 $180 $181 $182 reversed $65 $-1 #
coedge $-1 $183 $67 $184 $185 reversed $42 $-1 #
coedge $-1 $67 $183 $186 $187 reversed $42 $-1 #
coedge $-1 $188 $189 $67 $110 forward $190 $-1 #
edge $-1 $191 -36.138484943295602 $192 36.138484943295602 $109 $193 forward 7 unknown #
face $-1 $194 $195 $24 $-1 $196 forward single #
loop $-1 $-1 $197 $68 #
plane-surface $-1 0 36.138484943295602 0 0 -1 0 0 0 -1 forward_v I I I I #
coedge $-1 $198 $199 $200 $201 reversed $69 $-1 #
coedge $-1 $202 $71 $203 $204 reversed $45 $-1 #
coedge $-1 $71 $202 $198 $205 forward $45 $-1 #
coedge $-1 $200 $206 $71 $118 forward $195 $-1 #
edge $-1 $207 -30.037280476066542 $208 -2.8895659604857293 $117 $209 forward 7 unknown #
loop $-1 $-1 $124 $72 #
plane-surface $-1 -32.926846436552268 -3.226373298692252 66.909722675735736 0 0.83867057594974714 0.54463902268945019 1 0 0 forward_v I I I I #
loop $-1 $-1 $210 $47 #
coedge $-1 $122 $122 $123 $211 reversed $73 $-1 #
coedge $-1 $123 $123 $122 $211 forward $75 $-1 #
coedge $-1 $124 $124 $76 $125 forward $119 $-1 #
edge $-1 $212 -1.4897782135920807e-015 $212 6.2831853071795987 $124 $213 forward 7 unknown #
loop $-1 $-1 $131 $77 #
plane-surface $-1 -32.926846436552268 -3.226373298692252 66.909722675735736 0 0.83867057594974714 0.54463902268945019 1 0 0 forward_v I I I I #
loop $-1 $-1 $214 $50 #
coedge $-1 $129 $129 $130 $215 reversed $78 $-1 #
coedge $-1 $130 $130 $129 $215 forward $80 $-1 #
coedge $-1 $131 $131 $81 $132 forward $126 $-1 #
edge $-1 $216 -1.4897782135920807e-015 $216 6.2831853071795987 $131 $217 forward 7 unknown #
loop $-1 $-1 $138 $82 #
plane-surface $-1 -32.926846436552268 -3.226373298692252 66.909722675735736 0 0.83867057594974714 0.54463902268945019 1 0 0 forward_v I I I I #
loop $-1 $-1 $218 $53 #
coedge $-1 $136 $136 $137 $219 reversed $83 $-1 #
coedge $-1 $137 $137 $136 $219 forward $85 $-1 #
coedge $-1 $138 $138 $86 $139 forward $133 $-1 #
edge $-1 $220 -1.4897782135920807e-015 $220 6.2831853071795987 $138 $221 forward 7 unknown #
face $-1 $222 $223 $21 $-1 $224 reversed single #
loop $-1 $-1 $225 $87 #
plane-surface $-1 -54.477980895413069 0 0 1 0 0 0 0 -1 forward_v I I I I #
coedge $-1 $226 $151 $227 $228 forward $88 $-1 #
coedge $-1 $229 $90 $226 $230 forward $57 $-1 #
coedge $-1 $90 $229 $231 $232 forward $57 $-1 #
coedge $-1 $154 $153 $90 $147 reversed $155 $-1 #
edge $-1 $233 -36.138484943295602 $234 36.138484943295602 $146 $235 forward 7 unknown #
coedge $-1 $92 $91 $236 $237 forward $36 $-1 #
coedge $-1 $238 $239 $91 $150 reversed $223 $-1 #
edge $-1 $157 -54.477980895413069 $240 54.477980895413069 $149 $241 forward 7 unknown #
coedge $-1 $143 $242 $92 $152 reversed $88 $-1 #
edge $-1 $243 -54.477980895413069 $156 54.477980895413069 $151 $244 forward 7 unknown #
coedge $-1 $146 $93 $242 $245 forward $155 $-1 #
coedge $-1 $93 $146 $238 $246 reversed $155 $-1 #
loop $-1 $-1 $153 $222 #
vertex $-1 $94 $247 #
vertex $-1 $94 $248 #
straight-curve $-1 54.477980895413069 0 10.28855508562034 0 1 0 I I #
face $-1 $249 $250 $22 $-1 $251 forward single #
loop $-1 $-1 $252 $95 #
plane-surface $-1 -54.477980895413069 0 0 1 0 0 0 0 -1 forward_v I I I I #
coedge $-1 $170 $253 $164 $254 forward $96 $-1 #
coedge $-1 $101 $98 $255 $256 reversed $61 $-1 #
coedge $-1 $98 $101 $162 $254 reversed $61 $-1 #
coedge $-1 $257 $258 $98 $166 forward $250 $-1 #
edge $-1 $259 -36.138484943295602 $260 36.138484943295602 $165 $261 forward 7 unknown #
coedge $-1 $100 $99 $252 $262 reversed $39 $-1 #
coedge $-1 $255 $263 $99 $169 forward $264 $-1 #
edge $-1 $265 -29.233309747974133 $173 -21.256032546903739 $168 $266 forward 7 unknown #
coedge $-1 $267 $162 $100 $171 forward $96 $-1 #
edge $-1 $172 21.256032546903739 $268 29.233309747974133 $170 $269 forward 7 unknown #
vertex $-1 $171 $270 #
vertex $-1 $169 $271 #
straight-curve $-1 -46.500703694342675 0 6.0935676392595219 0 -1 0 I I #
face $-1 $272 $273 $23 $-1 $274 reversed single #
loop $-1 $-1 $275 $103 #
plane-surface $-1 0 -36.138484943295602 0 0 1 0 0 0 1 forward_v I I I I #
coedge $-1 $276 $277 $180 $278 forward $104 $-1 #
coedge $-1 $279 $106 $183 $280 reversed $65 $-1 #
coedge $-1 $106 $279 $178 $278 reversed $65 $-1 #
coedge $-1 $281 $186 $106 $182 forward $273 $-1 #
edge $-1 $282 1.9980369580395569 $283 6.1930244044003731 $181 $284 forward 7 unknown #
coedge $-1 $108 $107 $179 $280 forward $42 $-1 #
coedge $-1 $285 $275 $107 $185 forward $176 $-1 #
edge $-1 $286 21.256032546903739 $191 29.233309747974133 $184 $287 forward 7 unknown #
coedge $-1 $181 $288 $108 $187 forward $273 $-1 #
edge $-1 $192 -29.233309747974133 $282 -21.256032546903739 $186 $289 forward 7 unknown #
coedge $-1 $290 $109 $288 $291 reversed $190 $-1 #
coedge $-1 $109 $290 $285 $292 forward $190 $-1 #
loop $-1 $-1 $109 $272 #
vertex $-1 $185 $293 #
vertex $-1 $110 $294 #
straight-curve $-1 54.477980895413069 0 6.0935676392595219 0 1 0 I I #
face $-1 $-1 $295 $24 $-1 $296 forward single #
loop $-1 $-1 $200 $111 #
plane-surface $-1 0 0 10.28855508562034 0 0 1 1 0 0 forward_v I I I I #
coedge $-1 $297 $298 $199 $299 forward $112 $-1 #
coedge $-1 $199 $114 $116 $205 reversed $69 $-1 #
coedge $-1 $114 $198 $197 $299 reversed $69 $-1 #
coedge $-1 $300 $117 $114 $201 forward $195 $-1 #
edge $-1 $208 -10.532051277825673 $301 -7.937408021493674 $200 $302 forward 7 unknown #
coedge $-1 $116 $115 $297 $303 reversed $45 $-1 #
coedge $-1 $304 $305 $115 $204 forward $295 $-1 #
edge $-1 $306 -46.775558735165696 $207 -42.01159003619231 $203 $307 forward 7 unknown #
edge $-1 $308 -72.276969886591218 $208 -67.513001187617817 $198 $309 forward 7 unknown #
coedge $-1 $117 $300 $304 $310 forward $195 $-1 #
vertex $-1 $204 $311 #
vertex $-1 $118 $312 #
straight-curve $-1 -16.463423218276134 33.54384168696361 10.288555085620338 1 0 0 I I #
coedge $-1 $210 $210 $-1 $313 reversed $121 $-1 #
edge $-1 $314 0 $314 6.2831853071796004 $122 $315 forward 7 unknown #
vertex $-1 $125 $316 #
ellipse-curve $-1 -41.071160791226504 34.841163315129606 8.2908548993330431 0 0.83867057594974714 0.54463902268945019 1 0 0 1 I I #
coedge $-1 $214 $214 $-1 $317 reversed $128 $-1 #
edge $-1 $318 0 $318 6.2831853071796004 $129 $319 forward 7 unknown #
vertex $-1 $132 $320 #
ellipse-curve $-1 -32.926846436552268 34.841163315129606 8.2908548993330431 0 0.83867057594974714 0.54463902268945019 1 0 0 1 I I #
coedge $-1 $218 $218 $-1 $321 reversed $135 $-1 #
edge $-1 $322 0 $322 6.2831853071796004 $136 $323 forward 7 unknown #
vertex $-1 $139 $324 #
ellipse-curve $-1 -24.782532081878021 34.841163315129606 8.2908548993330431 0 0.83867057594974714 0.54463902268945019 1 0 0 1 I I #
face $-1 $-1 $155 $21 $-1 $325 reversed single #
loop $-1 $-1 $238 $140 #
plane-surface $-1 0 36.138484943295602 0 0 -1 0 0 0 -1 forward_v I I I I #
coedge $-1 $326 $236 $239 $327 forward $141 $-1 #
coedge $-1 $242 $143 $144 $230 reversed $88 $-1 #
coedge $-1 $236 $326 $143 $228 reversed $141 $-1 #
edge $-1 $243 -10.28855508562034 $328 10.28855508562034 $227 $329 forward 7 unknown #
coedge $-1 $145 $144 $326 $330 forward $57 $-1 #
edge $-1 $234 -54.477980895413069 $328 54.477980895413069 $226 $331 forward 7 unknown #
coedge $-1 $239 $238 $145 $232 reversed $223 $-1 #
edge $-1 $332 -54.477980895413069 $233 54.477980895413069 $231 $333 forward 7 unknown #
vertex $-1 $147 $334 #
vertex $-1 $245 $335 #
straight-curve $-1 54.477980895413069 0 -10.28855508562034 0 -1 0 I I #
coedge $-1 $225 $227 $148 $237 reversed $141 $-1 #
edge $-1 $240 -36.138484943295602 $243 36.138484943295602 $236 $336 forward 7 unknown #
coedge $-1 $231 $149 $154 $246 forward $223 $-1 #
coedge $-1 $149 $231 $225 $327 reversed $223 $-1 #
vertex $-1 $150 $337 #
straight-curve $-1 0 36.138484943295602 10.28855508562034 -1 0 0 I I #
coedge $-1 $151 $226 $153 $245 reversed $88 $-1 #
vertex $-1 $237 $338 #
straight-curve $-1 0 -36.138484943295602 10.28855508562034 1 0 0 I I #
edge $-1 $156 -10.28855508562034 $234 10.28855508562034 $153 $339 forward 7 unknown #
edge $-1 $157 -10.28855508562034 $233 10.28855508562034 $154 $340 forward 7 unknown #
point $-1 54.477980895413069 -36.138484943295602 10.28855508562034 #
point $-1 54.477980895413069 36.138484943295602 10.28855508562034 #
face $-1 $-1 $264 $22 $-1 $341 reversed single #
loop $-1 $-1 $165 $159 #
plane-surface $-1 0 0 10.28855508562034 0 0 1 1 0 0 forward_v I I I I #
coedge $-1 $342 $343 $167 $262 forward $160 $-1 #
coedge $-1 $162 $267 $257 $344 reversed $96 $-1 #
edge $-1 $260 -6.1930244044003731 $172 -1.9980369580395569 $162 $345 forward 7 unknown #
coedge $-1 $346 $168 $163 $256 forward $264 $-1 #
edge $-1 $173 1.9980369580395569 $259 6.1930244044003731 $255 $347 forward 7 unknown #
coedge $-1 $348 $165 $253 $344 forward $250 $-1 #
coedge $-1 $165 $348 $346 $349 forward $250 $-1 #
vertex $-1 $256 $350 #
vertex $-1 $344 $351 #
straight-curve $-1 -46.500703694342675 0 10.28855508562034 0 1 0 I I #
edge $-1 $268 -36.138484943295602 $265 36.138484943295602 $252 $352 forward 7 unknown #
coedge $-1 $168 $346 $342 $353 forward $264 $-1 #
loop $-1 $-1 $255 $249 #
vertex $-1 $262 $354 #
straight-curve $-1 -25.244671147438936 -36.138484943295602 6.0935676392595219 1 0 0 I I #
coedge $-1 $253 $170 $343 $355 reversed $96 $-1 #
vertex $-1 $262 $356 #
straight-curve $-1 -25.244671147438936 36.138484943295602 6.0935676392595219 -1 0 0 I I #
point $-1 -46.500703694342675 36.138484943295602 6.0935676392595219 #
point $-1 -46.500703694342675 -36.138484943295602 6.0935676392595219 #
face $-1 $-1 $190 $23 $-1 $357 reversed single #
loop $-1 $-1 $181 $175 #
plane-surface $-1 0 36.138484943295602 0 0 -1 0 0 0 -1 forward_v I I I I #
coedge $-1 $184 $358 $279 $359 forward $176 $-1 #
coedge $-1 $360 $178 $358 $361 forward $104 $-1 #
coedge $-1 $178 $360 $281 $362 forward $104 $-1 #
edge $-1 $283 -36.138484943295602 $363 36.138484943295602 $178 $364 forward 7 unknown #
coedge $-1 $180 $179 $275 $359 reversed $65 $-1 #
edge $-1 $286 -36.138484943295602 $282 36.138484943295602 $179 $365 forward 7 unknown #
coedge $-1 $288 $181 $277 $362 reversed $273 $-1 #
vertex $-1 $187 $366 #
vertex $-1 $182 $367 #
straight-curve $-1 46.500703694342675 36.138484943295602 4.095530681219965 0 0 1 I I #
coedge $-1 $358 $184 $189 $292 reversed $176 $-1 #
vertex $-1 $185 $368 #
straight-curve $-1 25.244671147438936 -36.138484943295602 6.0935676392595219 1 0 0 I I #
coedge $-1 $186 $281 $188 $291 forward $273 $-1 #
straight-curve $-1 25.244671147438936 36.138484943295602 6.0935676392595219 -1 0 0 I I #
coedge $-1 $189 $188 $360 $369 reversed $190 $-1 #
edge $-1 $370 -10.28855508562034 $192 -6.0935676392595219 $188 $371 forward 7 unknown #
edge $-1 $372 -10.28855508562034 $191 -6.0935676392595219 $189 $373 forward 7 unknown #
point $-1 54.477980895413069 -36.138484943295602 6.0935676392595219 #
point $-1 54.477980895413069 36.138484943295602 6.0935676392595219 #
loop $-1 $-1 $203 $194 #
plane-surface $-1 -46.500703694342675 0 8.19106136243993 -1 0 0 0 0 1 forward_v I I I I #
coedge $-1 $374 $197 $202 $303 forward $112 $-1 #
coedge $-1 $197 $374 $300 $375 reversed $112 $-1 #
edge $-1 $301 52.837140525219844 $308 56.832540897794424 $197 $376 forward 7 unknown #
coedge $-1 $206 $200 $298 $375 forward $195 $-1 #
vertex $-1 $375 $377 #
straight-curve $-1 -19.352989178761863 44.075892964789276 10.288555085620338 0 1 0 I I #
edge $-1 $308 2.8895659604857293 $306 30.037280476066542 $297 $378 forward 7 unknown #
coedge $-1 $305 $203 $206 $310 reversed $295 $-1 #
coedge $-1 $203 $304 $374 $379 reversed $295 $-1 #
vertex $-1 $379 $380 #
straight-curve $-1 -46.500703694342675 10.662690348021984 45.522439497838398 0 -0.54463902268945019 0.83867057594974714 I I #
vertex $-1 $303 $381 #
straight-curve $-1 -19.352989178761863 -3.226373298692252 66.909722675735736 0 -0.54463902268945019 0.83867057594974714 I I #
edge $-1 $382 -36.138484943295602 $207 -33.543841686963603 $206 $383 forward 7 unknown #
point $-1 -46.500703694342675 33.543841686963603 10.288555085620338 #
point $-1 -19.352989178761863 33.543841686963603 10.288555085620338 #
edge $-1 $384 1 $384 0 $210 $-1 forward 7 unknown #
vertex $-1 $211 $385 #
ellipse-curve $-1 -41.071160791226504 32.185684563495762 6.5663668899324152 0 0.83867057594974714 0.54463902268945019 1 0 0 1 I I #
point $-1 -40.071160791226504 34.841163315129606 8.2908548993330449 #
edge $-1 $386 1 $386 0 $214 $-1 forward 7 unknown #
vertex $-1 $215 $387 #
ellipse-curve $-1 -32.926846436552268 32.185684563495762 6.5663668899324152 0 0.83867057594974714 0.54463902268945019 1 0 0 1 I I #
point $-1 -31.926846436552268 34.841163315129606 8.2908548993330449 #
edge $-1 $388 1 $388 0 $218 $-1 forward 7 unknown #
vertex $-1 $219 $389 #
ellipse-curve $-1 -24.782532081878021 32.185684563495762 6.5663668899324152 0 0.83867057594974714 0.54463902268945019 1 0 0 1 I I #
point $-1 -23.782532081878021 34.841163315129606 8.2908548993330449 #
plane-surface $-1 54.477980895413069 0 0 -1 0 0 0 0 1 forward_v I I I I #
coedge $-1 $227 $225 $229 $330 reversed $141 $-1 #
edge $-1 $240 -10.28855508562034 $332 10.28855508562034 $239 $390 forward 7 unknown #
vertex $-1 $330 $391 #
straight-curve $-1 -54.477980895413069 -36.138484943295602 0 0 0 -1 I I #
edge $-1 $328 -36.138484943295602 $332 36.138484943295602 $326 $392 forward 7 unknown #
straight-curve $-1 0 -36.138484943295602 -10.28855508562034 -1 0 0 I I #
vertex $-1 $232 $393 #
straight-curve $-1 0 36.138484943295602 -10.28855508562034 1 0 0 I I #
point $-1 54.477980895413069 36.138484943295602 -10.28855508562034 #
point $-1 54.477980895413069 -36.138484943295602 -10.28855508562034 #
straight-curve $-1 -54.477980895413069 0 10.28855508562034 0 -1 0 I I #
point $-1 -54.477980895413069 36.138484943295602 10.28855508562034 #
point $-1 -54.477980895413069 -36.138484943295602 10.28855508562034 #
straight-curve $-1 54.477980895413069 -36.138484943295602 0 0 0 -1 I I #
straight-curve $-1 54.477980895413069 36.138484943295602 0 0 0 -1 I I #
plane-surface $-1 0 -36.138484943295602 0 0 1 0 0 0 1 forward_v I I I I #
coedge $-1 $394 $252 $263 $353 reversed $160 $-1 #
coedge $-1 $252 $394 $267 $355 forward $160 $-1 #
edge $-1 $260 46.500703694342675 $395 54.477980895413069 $253 $396 forward 7 unknown #
straight-curve $-1 -46.500703694342675 36.138484943295602 4.095530681219965 0 0 -1 I I #
coedge $-1 $263 $255 $258 $349 reversed $264 $-1 #
straight-curve $-1 -46.500703694342675 -36.138484943295602 4.095530681219965 0 0 1 I I #
coedge $-1 $258 $257 $394 $397 forward $250 $-1 #
edge $-1 $398 -54.477980895413069 $259 -46.500703694342675 $346 $399 forward 7 unknown #
point $-1 -46.500703694342675 -36.138484943295602 10.288555085620338 #
point $-1 -46.500703694342675 36.138484943295602 10.288555085620338 #
straight-curve $-1 -54.477980895413069 0 6.0935676392595219 0 -1 0 I I #
edge $-1 $398 -10.28855508562034 $265 -6.0935676392595219 $342 $400 forward 7 unknown #
point $-1 -54.477980895413069 -36.138484943295602 6.0935676392595219 #
edge $-1 $395 -10.28855508562034 $268 -6.0935676392595219 $267 $401 forward 7 unknown #
point $-1 -54.477980895413069 36.138484943295602 6.0935676392595219 #
plane-surface $-1 54.477980895413069 0 0 -1 0 0 0 0 1 forward_v I I I I #
coedge $-1 $275 $285 $276 $361 reversed $176 $-1 #
edge $-1 $363 -6.1930244044003731 $286 -1.9980369580395569 $275 $402 forward 7 unknown #
coedge $-1 $277 $276 $290 $369 forward $104 $-1 #
edge $-1 $363 46.500703694342675 $372 54.477980895413069 $358 $403 forward 7 unknown #
edge $-1 $370 -54.477980895413069 $283 -46.500703694342675 $281 $404 forward 7 unknown #
vertex $-1 $361 $405 #
straight-curve $-1 46.500703694342675 0 10.28855508562034 0 -1 0 I I #
straight-curve $-1 46.500703694342675 0 6.0935676392595219 0 1 0 I I #
point $-1 46.500703694342675 36.138484943295602 6.0935676392595219 #
point $-1 46.500703694342675 36.138484943295602 10.288555085620338 #
point $-1 46.500703694342675 -36.138484943295602 6.0935676392595219 #
edge $-1 $372 -36.138484943295602 $370 36.138484943295602 $290 $406 forward 7 unknown #
vertex $-1 $369 $407 #
straight-curve $-1 54.477980895413069 36.138484943295602 0 0 0 -1 I I #
vertex $-1 $369 $408 #
straight-curve $-1 54.477980895413069 -36.138484943295602 0 0 0 -1 I I #
coedge $-1 $298 $297 $305 $379 forward $112 $-1 #
edge $-1 $301 19.352989178761863 $382 46.500703694342675 $298 $409 forward 7 unknown #
straight-curve $-1 -19.352989178761863 36.138484943295602 63.125695610840182 0 0 -1 I I #
point $-1 -19.352989178761863 36.138484943295602 10.28855508562034 #
straight-curve $-1 -16.463423218276134 36.138484943295602 6.2931547130457623 -1 0 0 I I #
edge $-1 $306 2.1976240318257938 $382 6.1930244044003731 $374 $410 forward 7 unknown #
point $-1 -46.500703694342675 36.138484943295602 6.2931547130457588 #
point $-1 -19.352989178761863 36.138484943295602 6.2931547130457588 #
vertex $-1 $310 $411 #
straight-curve $-1 -46.500703694342675 0 10.28855508562034 0 -1 0 I I #
vertex $-1 $313 $412 #
point $-1 -40.071160791226504 32.185684563495762 6.5663668899324152 #
vertex $-1 $317 $413 #
point $-1 -31.926846436552268 32.185684563495762 6.5663668899324152 #
vertex $-1 $321 $414 #
point $-1 -23.782532081878021 32.185684563495762 6.5663668899324152 #
straight-curve $-1 -54.477980895413069 36.138484943295602 0 0 0 -1 I I #
point $-1 -54.477980895413069 -36.138484943295602 -10.28855508562034 #
straight-curve $-1 -54.477980895413069 0 -10.28855508562034 0 1 0 I I #
point $-1 -54.477980895413069 36.138484943295602 -10.28855508562034 #
coedge $-1 $343 $342 $348 $397 reversed $160 $-1 #
vertex $-1 $344 $415 #
straight-curve $-1 0 36.138484943295602 10.28855508562034 -1 0 0 I I #
edge $-1 $395 -36.138484943295602 $398 36.138484943295602 $394 $416 forward 7 unknown #
vertex $-1 $397 $417 #
straight-curve $-1 0 -36.138484943295602 10.28855508562034 1 0 0 I I #
straight-curve $-1 -54.477980895413069 -36.138484943295602 0 0 0 -1 I I #
straight-curve $-1 -54.477980895413069 36.138484943295602 0 0 0 -1 I I #
straight-curve $-1 46.500703694342675 -36.138484943295602 4.095530681219965 0 0 -1 I I #
straight-curve $-1 0 -36.138484943295602 10.28855508562034 1 0 0 I I #
straight-curve $-1 0 36.138484943295602 10.28855508562034 -1 0 0 I I #
point $-1 46.500703694342675 -36.138484943295602 10.288555085620338 #
straight-curve $-1 54.477980895413069 0 10.28855508562034 0 1 0 I I #
point $-1 54.477980895413069 36.138484943295602 10.28855508562034 #
point $-1 54.477980895413069 -36.138484943295602 10.28855508562034 #
straight-curve $-1 0 36.138484943295602 10.28855508562034 -1 0 0 I I #
straight-curve $-1 -46.500703694342675 36.138484943295602 4.095530681219965 0 0 1 I I #
point $-1 -46.500703694342675 36.138484943295602 10.288555085620338 #
point $-1 -41.071160791226504 31.347013987546013 6.0217278672429648 #
point $-1 -32.926846436552268 31.347013987546013 6.0217278672429648 #
point $-1 -24.782532081878021 31.347013987546013 6.0217278672429648 #
point $-1 -54.477980895413069 36.138484943295602 10.28855508562034 #
straight-curve $-1 -54.477980895413069 0 10.28855508562034 0 -1 0 I I #
point $-1 -54.477980895413069 -36.138484943295602 10.28855508562034 #
End-of-ACIS-data 