500 0 9 0           
7 Unknown 11 ACIS 5.0 NT 24 Fri Mar 26 01:08:39 1999 
-1 9.9999999999999995e-007 1e-010 
body $-1 $9 $-1 $10 #
body $-1 $11 $-1 $12 #
body $-1 $13 $-1 $14 #
body $-1 $15 $-1 $16 #
body $-1 $17 $-1 $18 #
body $-1 $19 $-1 $20 #
body $-1 $21 $-1 $22 #
body $-1 $23 $-1 $24 #
body $-1 $25 $-1 $26 #
lump $-1 $-1 $27 $0 #
transform $-1 1 0 0 0 1 0 0 0 1 56.525162511062959 39.033534033832055 18.477524636133072 1 rotate no_reflect no_shear #
lump $-1 $-1 $28 $1 #
transform $-1 1 0 0 0 1 0 0 0 1 56.525162511062959 39.033534033832055 18.477524636133072 1 rotate no_reflect no_shear #
lump $-1 $-1 $29 $2 #
transform $-1 1 0 0 0 1 0 0 0 1 56.525162511062959 39.033534033832055 18.477524636133072 1 rotate no_reflect no_shear #
lump $-1 $-1 $30 $3 #
transform $-1 1 0 0 0 1 0 0 0 1 56.525162511062959 39.033534033832055 18.477524636133072 1 rotate no_reflect no_shear #
lump $-1 $-1 $31 $4 #
transform $-1 1 0 0 0 1 0 0 0 1 56.525162511062959 39.033534033832055 18.477524636133072 1 rotate no_reflect no_shear #
lump $-1 $-1 $32 $5 #
transform $-1 1 0 0 0 1 0 0 0 1 56.525162511062959 39.033534033832055 18.477524636133072 1 rotate no_reflect no_shear #
lump $-1 $-1 $33 $6 #
transform $-1 1 0 0 0 1 0 0 0 1 56.525162511062959 39.033534033832055 18.477524636133072 1 rotate no_reflect no_shear #
lump $-1 $-1 $34 $7 #
transform $-1 1 0 0 0 1 0 0 0 1 56.525162511062959 39.033534033832055 18.477524636133072 1 rotate no_reflect no_shear #
lump $-1 $-1 $35 $8 #
transform $-1 1 0 0 0 1 0 0 0 1 56.525162511062959 39.033534033832055 18.477524636133072 1 rotate no_reflect no_shear #
shell $-1 $-1 $-1 $36 $-1 $9 #
shell $-1 $-1 $-1 $37 $-1 $11 #
shell $-1 $-1 $-1 $38 $-1 $13 #
shell $-1 $-1 $-1 $39 $-1 $15 #
shell $-1 $-1 $-1 $40 $-1 $17 #
shell $-1 $-1 $-1 $41 $-1 $19 #
shell $-1 $-1 $-1 $42 $-1 $21 #
shell $-1 $-1 $-1 $43 $-1 $23 #
shell $-1 $-1 $-1 $44 $-1 $25 #
face $-1 $45 $46 $27 $-1 $47 forward single #
face $-1 $48 $49 $28 $-1 $50 forward single #
face $-1 $51 $52 $29 $-1 $53 reversed single #
face $-1 $54 $55 $30 $-1 $56 forward single #
face $-1 $57 $58 $31 $-1 $59 forward single #
face $-1 $60 $61 $32 $-1 $62 reversed single #
face $-1 $63 $64 $33 $-1 $65 forward single #
face $-1 $66 $67 $34 $-1 $68 reversed single #
face $-1 $69 $70 $35 $-1 $71 forward single #
face $-1 $72 $73 $27 $-1 $74 reversed single #
loop $-1 $-1 $75 $36 #
plane-surface $-1 0 0 18.477524636133072 0 0 1 1 0 0 forward_v I I I I #
face $-1 $76 $77 $28 $-1 $78 reversed single #
loop $-1 $-1 $79 $37 #
plane-surface $-1 -56.525162511062959 0 0 1 0 0 0 0 -1 forward_v I I I I #
face $-1 $80 $81 $29 $-1 $82 reversed single #
loop $-1 $-1 $83 $38 #
plane-surface $-1 -26.342541759420271 66.125191570525459 149.83309293984289 1 0 0 0 -0.71933980857756763 -0.69465836192734942 forward_v I I I I #
face $-1 $84 $85 $30 $-1 $86 forward single #
loop $-1 $87 $88 $39 #
cone-surface $-1 -22.488536283949955 36.848458144308061 16.255039622271081 0 -0.71933980857756763 -0.69465836192734942 0.5 0 0 1 I I 0 1 0.5 forward I I I I #
face $-1 $89 $90 $31 $-1 $91 forward single #
loop $-1 $92 $93 $40 #
cone-surface $-1 -16.707528070744473 36.848458144308061 16.255039622271081 0 -0.71933980857756763 -0.69465836192734942 0.5 0 0 1 I I 0 1 0.5 forward I I I I #
face $-1 $94 $95 $32 $-1 $96 reversed single #
loop $-1 $-1 $97 $41 #
plane-surface $-1 -17.316283481306542 -123.04629902875455 79.1946767721724 -1 0 0 0 -0.74314483375859142 0.66913059716165679 forward_v I I I I #
face $-1 $98 $99 $33 $-1 $100 forward single #
loop $-1 $101 $102 $42 #
cone-surface $-1 -27.418673628938624 -30.519510931602554 9.3987068885301017 0 0.74314483375859142 -0.66913059716165679 2.5 0 0 1 I I 0 1 2.5 forward I I I I #
face $-1 $103 $104 $34 $-1 $105 reversed single #
loop $-1 $-1 $106 $43 #
plane-surface $-1 33.058074403352563 -123.04629902875455 79.1946767721724 -1 0 0 0 -0.74314483375859142 0.66913059716165679 forward_v I I I I #
face $-1 $107 $108 $35 $-1 $109 forward single #
loop $-1 $110 $111 $44 #
cone-surface $-1 22.955684255720485 -30.519510931602554 9.3987068885301017 0 0.74314483375859142 -0.66913059716165679 2.5 0 0 1 I I 0 1 2.5 forward I I I I #
face $-1 $112 $113 $27 $-1 $114 reversed single #
loop $-1 $-1 $115 $45 #
plane-surface $-1 0 0 -18.477524636133072 0 0 1 1 0 0 forward_v I I I I #
coedge $-1 $116 $117 $118 $119 forward $46 $-1 #
face $-1 $120 $121 $28 $-1 $122 forward single #
loop $-1 $-1 $123 $48 #
plane-surface $-1 0 39.033534033832055 0 0 -1 0 0 0 -1 forward_v I I I I #
coedge $-1 $124 $125 $126 $127 forward $49 $-1 #
face $-1 $128 $129 $29 $-1 $130 reversed single #
loop $-1 $-1 $131 $51 #
plane-surface $-1 -19.598032177347214 -15.196407590522398 71.301739344618468 0 0.71933980857756763 0.69465836192734942 1 0 0 forward_v I I I I #
coedge $-1 $132 $133 $134 $135 reversed $52 $-1 #
face $-1 $-1 $136 $30 $-1 $137 forward single #
loop $-1 $138 $139 $54 #
cone-surface $-1 -22.488536283949955 36.092643129213215 15.525157563687269 0 -0.71933980857756763 -0.69465836192734942 0.25 0 0 1 I I -0.70710678118654502 0.70710678118655002 0.25 forward I I I I #
loop $-1 $-1 $140 $39 #
coedge $-1 $88 $88 $141 $142 reversed $55 $-1 #
face $-1 $-1 $143 $31 $-1 $144 forward single #
loop $-1 $145 $146 $57 #
cone-surface $-1 -16.707528070744473 36.092643129213215 15.525157563687269 0 -0.71933980857756763 -0.69465836192734942 0.25 0 0 1 I I -0.70710678118654502 0.70710678118655002 0.25 forward I I I I #
loop $-1 $-1 $147 $40 #
coedge $-1 $93 $93 $148 $149 reversed $58 $-1 #
face $-1 $150 $151 $32 $-1 $152 reversed single #
loop $-1 $-1 $153 $60 #
plane-surface $-1 -27.418673628938624 -39.033534033832055 3.5492452807978907 0 -0.74314483375859142 0.66913059716165679 1 0 0 forward_v I I I I #
coedge $-1 $154 $155 $156 $157 reversed $61 $-1 #
face $-1 $-1 $158 $33 $-1 $159 forward single #
loop $-1 $160 $161 $63 #
cone-surface $-1 -27.418673628938624 -27.797298172881845 6.9476155721426629 0 0.74314483375859142 -0.66913059716165679 1.25 0 0 1 I I -0.70710678118654724 0.70710678118654768 1.25 forward I I I I #
loop $-1 $-1 $162 $42 #
coedge $-1 $102 $102 $163 $164 reversed $64 $-1 #
face $-1 $165 $166 $34 $-1 $167 reversed single #
loop $-1 $-1 $168 $66 #
plane-surface $-1 22.955684255720485 -39.033534033832055 3.5492452807978907 0 -0.74314483375859142 0.66913059716165679 1 0 0 forward_v I I I I #
coedge $-1 $169 $170 $171 $172 reversed $67 $-1 #
face $-1 $-1 $173 $35 $-1 $174 forward single #
loop $-1 $175 $176 $69 #
cone-surface $-1 22.955684255720485 -27.797298172881845 6.9476155721426629 0 0.74314483375859142 -0.66913059716165679 1.25 0 0 1 I I -0.70710678118654724 0.70710678118654768 1.25 forward I I I I #
loop $-1 $-1 $177 $44 #
coedge $-1 $111 $111 $178 $179 reversed $70 $-1 #
face $-1 $180 $181 $27 $-1 $182 reversed single #
loop $-1 $-1 $183 $72 #
plane-surface $-1 0 -39.033534033832055 0 0 1 0 0 0 1 forward_v I I I I #
coedge $-1 $184 $185 $186 $187 forward $73 $-1 #
coedge $-1 $188 $75 $189 $190 forward $46 $-1 #
coedge $-1 $75 $188 $191 $192 forward $46 $-1 #
coedge $-1 $193 $194 $75 $119 reversed $195 $-1 #
edge $-1 $196 -39.033534033832055 $197 39.033534033832055 $118 $198 forward 7 unknown #
face $-1 $199 $200 $28 $-1 $201 reversed single #
loop $-1 $-1 $126 $76 #
plane-surface $-1 -62.675967137466813 0 -9.7037272400701617 0 0 1 1 0 0 forward_v I I I I #
coedge $-1 $202 $203 $125 $204 forward $77 $-1 #
coedge $-1 $205 $79 $206 $207 reversed $49 $-1 #
coedge $-1 $79 $205 $123 $204 reversed $49 $-1 #
coedge $-1 $208 $209 $79 $127 reversed $121 $-1 #
edge $-1 $210 -39.033534033832055 $211 39.033534033832055 $126 $212 forward 7 unknown #
face $-1 $213 $214 $29 $-1 $215 forward single #
loop $-1 $-1 $216 $80 #
plane-surface $-1 -12.853522595274155 66.125191570525459 149.83309293984289 -1 0 0 0 0.71933980857756763 0.69465836192734942 forward_v I I I I #
coedge $-1 $217 $218 $219 $220 reversed $81 $-1 #
coedge $-1 $133 $83 $221 $222 reversed $52 $-1 #
coedge $-1 $83 $132 $217 $223 reversed $52 $-1 #
coedge $-1 $219 $224 $83 $135 forward $214 $-1 #
edge $-1 $225 -5.9709382485693254 $226 -2.7527465954222592 $134 $227 forward 7 unknown #
loop $-1 $-1 $141 $84 #
plane-surface $-1 -19.598032177347214 -15.196407590522398 71.301739344618468 0 0.71933980857756763 0.69465836192734942 1 0 0 forward_v I I I I #
loop $-1 $-1 $228 $54 #
coedge $-1 $139 $139 $140 $229 reversed $85 $-1 #
coedge $-1 $140 $140 $139 $229 forward $87 $-1 #
coedge $-1 $141 $141 $88 $142 forward $136 $-1 #
edge $-1 $230 -5.1112167552785176e-015 $230 6.2831853071795951 $141 $231 forward 7 unknown #
loop $-1 $-1 $148 $89 #
plane-surface $-1 -19.598032177347214 -15.196407590522398 71.301739344618468 0 0.71933980857756763 0.69465836192734942 1 0 0 forward_v I I I I #
loop $-1 $-1 $232 $57 #
coedge $-1 $146 $146 $147 $233 reversed $90 $-1 #
coedge $-1 $147 $147 $146 $233 forward $92 $-1 #
coedge $-1 $148 $148 $93 $149 forward $143 $-1 #
edge $-1 $234 -5.1112167552785176e-015 $234 6.2831853071795951 $148 $235 forward 7 unknown #
face $-1 $236 $237 $32 $-1 $238 reversed single #
loop $-1 $-1 $239 $94 #
plane-surface $-1 -37.521063776570706 -123.04629902875455 79.1946767721724 1 0 0 0 0.74314483375859142 -0.66913059716165679 forward_v I I I I #
coedge $-1 $240 $241 $242 $243 reversed $95 $-1 #
coedge $-1 $155 $97 $244 $245 reversed $61 $-1 #
coedge $-1 $97 $154 $240 $246 reversed $61 $-1 #
coedge $-1 $242 $247 $97 $157 forward $248 $-1 #
edge $-1 $249 22.489615480545218 $250 35.931098251959263 $156 $251 forward 7 unknown #
loop $-1 $-1 $163 $98 #
plane-surface $-1 -27.418673628938624 -39.033534033832055 3.5492452807978907 0 -0.74314483375859142 0.66913059716165679 1 0 0 forward_v I I I I #
loop $-1 $-1 $252 $63 #
coedge $-1 $161 $161 $162 $253 reversed $99 $-1 #
coedge $-1 $162 $162 $161 $253 forward $101 $-1 #
coedge $-1 $163 $163 $102 $164 forward $158 $-1 #
edge $-1 $254 -7.3839727587193992e-016 $254 6.2831853071795996 $163 $255 forward 7 unknown #
face $-1 $256 $257 $34 $-1 $258 reversed single #
loop $-1 $-1 $259 $103 #
plane-surface $-1 12.853294108088402 -123.04629902875455 79.1946767721724 1 0 0 0 0.74314483375859142 -0.66913059716165679 forward_v I I I I #
coedge $-1 $260 $261 $262 $263 reversed $104 $-1 #
coedge $-1 $170 $106 $264 $265 reversed $67 $-1 #
coedge $-1 $106 $169 $260 $266 reversed $67 $-1 #
coedge $-1 $262 $267 $106 $172 forward $268 $-1 #
edge $-1 $269 22.489615480545218 $270 35.931098251959263 $171 $271 forward 7 unknown #
loop $-1 $-1 $178 $107 #
plane-surface $-1 22.955684255720485 -39.033534033832055 3.5492452807978907 0 -0.74314483375859142 0.66913059716165679 1 0 0 forward_v I I I I #
loop $-1 $-1 $272 $69 #
coedge $-1 $176 $176 $177 $273 reversed $108 $-1 #
coedge $-1 $177 $177 $176 $273 forward $110 $-1 #
coedge $-1 $178 $178 $111 $179 forward $173 $-1 #
edge $-1 $274 -7.3839727587193992e-016 $274 6.2831853071795996 $178 $275 forward 7 unknown #
face $-1 $276 $277 $27 $-1 $278 reversed single #
loop $-1 $-1 $279 $112 #
plane-surface $-1 -56.525162511062959 0 0 1 0 0 0 0 -1 forward_v I I I I #
coedge $-1 $280 $191 $281 $282 forward $113 $-1 #
coedge $-1 $283 $115 $280 $284 forward $73 $-1 #
coedge $-1 $115 $283 $285 $286 forward $73 $-1 #
coedge $-1 $194 $193 $115 $187 reversed $195 $-1 #
edge $-1 $287 -39.033534033832055 $288 39.033534033832055 $186 $289 forward 7 unknown #
coedge $-1 $117 $116 $290 $291 forward $46 $-1 #
coedge $-1 $292 $293 $116 $190 reversed $277 $-1 #
edge $-1 $197 -56.525162511062959 $294 56.525162511062959 $189 $295 forward 7 unknown #
coedge $-1 $183 $296 $117 $192 reversed $113 $-1 #
edge $-1 $297 -56.525162511062959 $196 56.525162511062959 $191 $298 forward 7 unknown #
coedge $-1 $186 $118 $296 $299 forward $195 $-1 #
coedge $-1 $118 $186 $292 $300 reversed $195 $-1 #
loop $-1 $-1 $193 $276 #
vertex $-1 $119 $301 #
vertex $-1 $119 $302 #
straight-curve $-1 56.525162511062959 0 18.477524636133072 0 1 0 I I #
face $-1 $303 $304 $28 $-1 $305 reversed single #
loop $-1 $-1 $306 $120 #
plane-surface $-1 -62.675967137466813 0 -15.231928327074375 0 0 1 1 0 0 forward_v I I I I #
coedge $-1 $307 $123 $308 $309 reversed $77 $-1 #
coedge $-1 $123 $307 $208 $310 reversed $77 $-1 #
edge $-1 $210 9.7037272400701617 $311 15.231928327074375 $123 $312 forward 7 unknown #
coedge $-1 $125 $124 $306 $313 forward $49 $-1 #
coedge $-1 $314 $315 $124 $207 forward $316 $-1 #
edge $-1 $317 -15.231928327074375 $211 -9.7037272400701617 $206 $318 forward 7 unknown #
coedge $-1 $319 $126 $203 $310 forward $121 $-1 #
coedge $-1 $126 $319 $314 $320 forward $121 $-1 #
vertex $-1 $204 $321 #
vertex $-1 $320 $322 #
straight-curve $-1 -56.525162511062959 0 -9.7037272400701617 0 -1 0 I I #
face $-1 $-1 $323 $29 $-1 $324 reversed single #
loop $-1 $-1 $134 $128 #
plane-surface $-1 0 0 18.477524636133072 0 0 1 1 0 0 forward_v I I I I #
coedge $-1 $325 $326 $327 $328 reversed $129 $-1 #
coedge $-1 $329 $131 $133 $223 forward $81 $-1 #
coedge $-1 $131 $329 $325 $330 forward $81 $-1 #
coedge $-1 $327 $134 $131 $220 forward $214 $-1 #
edge $-1 $226 -16.543525670746664 $331 -3.0545065066005481 $219 $332 forward 7 unknown #
coedge $-1 $333 $334 $132 $222 forward $323 $-1 #
edge $-1 $335 -59.771556925308424 $225 -56.439021833788374 $221 $336 forward 7 unknown #
edge $-1 $226 73.43429917070867 $335 78.06706806766411 $133 $337 forward 7 unknown #
coedge $-1 $134 $327 $333 $338 forward $214 $-1 #
vertex $-1 $222 $339 #
vertex $-1 $135 $340 #
straight-curve $-1 -26.342541759420271 33.062595785262729 18.477524636133069 0 -1 0 I I #
coedge $-1 $228 $228 $-1 $341 reversed $138 $-1 #
edge $-1 $342 0 $342 6.2831853071796004 $139 $343 forward 7 unknown #
vertex $-1 $142 $344 #
ellipse-curve $-1 -22.488536283949955 37.424438207258511 16.811257090373051 0 0.71933980857756763 0.69465836192734942 0.5 0 0 1 I I #
coedge $-1 $232 $232 $-1 $345 reversed $145 $-1 #
edge $-1 $346 0 $346 6.2831853071796004 $146 $347 forward 7 unknown #
vertex $-1 $149 $348 #
ellipse-curve $-1 -16.707528070744473 37.424438207258511 16.811257090373051 0 0.71933980857756763 0.69465836192734942 0.5 0 0 1 I I #
face $-1 $-1 $248 $32 $-1 $349 forward single #
loop $-1 $-1 $350 $150 #
plane-surface $-1 0 -39.033534033832055 0 0 1 0 0 0 1 forward_v I I I I #
coedge $-1 $351 $352 $353 $354 reversed $151 $-1 #
coedge $-1 $355 $153 $155 $246 forward $95 $-1 #
coedge $-1 $153 $355 $351 $356 forward $95 $-1 #
coedge $-1 $353 $156 $153 $243 forward $248 $-1 #
edge $-1 $250 3.6069466668372296 $357 23.811726962101396 $242 $358 forward 7 unknown #
coedge $-1 $359 $360 $154 $245 forward $237 $-1 #
edge $-1 $361 -36.048093105288309 $249 -21.119813749953128 $244 $362 forward 7 unknown #
edge $-1 $250 -20.087981073396776 $361 0 $155 $363 forward 7 unknown #
coedge $-1 $156 $353 $359 $364 forward $248 $-1 #
loop $-1 $-1 $353 $236 #
vertex $-1 $245 $365 #
vertex $-1 $157 $366 #
straight-curve $-1 -17.316283481306542 -61.523149514377273 18.477524636133072 0 1 0 I I #
coedge $-1 $252 $252 $-1 $367 reversed $160 $-1 #
edge $-1 $368 0 $368 6.2831853071796004 $161 $369 forward 7 unknown #
vertex $-1 $164 $370 #
ellipse-curve $-1 -27.418673628938624 -32.312792648125033 11.013384958465478 0 -0.74314483375859142 0.66913059716165679 2.5 0 0 1 I I #
face $-1 $-1 $268 $34 $-1 $371 forward single #
loop $-1 $-1 $372 $165 #
plane-surface $-1 0 -39.033534033832055 0 0 1 0 0 0 1 forward_v I I I I #
coedge $-1 $373 $374 $375 $376 reversed $166 $-1 #
coedge $-1 $377 $168 $170 $266 forward $104 $-1 #
coedge $-1 $168 $377 $373 $378 forward $104 $-1 #
coedge $-1 $375 $171 $168 $263 forward $268 $-1 #
edge $-1 $270 -21.580232275492321 $379 -1.37545198022816 $262 $380 forward 7 unknown #
coedge $-1 $381 $382 $169 $265 forward $257 $-1 #
edge $-1 $383 -36.048093105288309 $269 -21.119813749953128 $264 $384 forward 7 unknown #
edge $-1 $270 -20.087981073396776 $383 0 $170 $385 forward 7 unknown #
coedge $-1 $171 $375 $381 $386 forward $268 $-1 #
loop $-1 $-1 $375 $256 #
vertex $-1 $265 $387 #
vertex $-1 $172 $388 #
straight-curve $-1 33.058074403352563 -61.523149514377273 18.477524636133072 0 1 0 I I #
coedge $-1 $272 $272 $-1 $389 reversed $175 $-1 #
edge $-1 $390 0 $390 6.2831853071796004 $176 $391 forward 7 unknown #
vertex $-1 $179 $392 #
ellipse-curve $-1 22.955684255720485 -32.312792648125033 11.013384958465478 0 -0.74314483375859142 0.66913059716165679 2.5 0 0 1 I I #
face $-1 $-1 $195 $27 $-1 $393 reversed single #
loop $-1 $-1 $292 $180 #
plane-surface $-1 0 39.033534033832055 0 0 -1 0 0 0 -1 forward_v I I I I #
coedge $-1 $394 $290 $293 $395 forward $181 $-1 #
coedge $-1 $296 $183 $184 $284 reversed $113 $-1 #
coedge $-1 $290 $394 $183 $282 reversed $181 $-1 #
edge $-1 $297 -18.477524636133072 $396 18.477524636133072 $281 $397 forward 7 unknown #
coedge $-1 $185 $184 $394 $398 forward $73 $-1 #
edge $-1 $288 -56.525162511062959 $396 56.525162511062959 $280 $399 forward 7 unknown #
coedge $-1 $293 $292 $185 $286 reversed $277 $-1 #
edge $-1 $400 -56.525162511062959 $287 56.525162511062959 $285 $401 forward 7 unknown #
vertex $-1 $187 $402 #
vertex $-1 $299 $403 #
straight-curve $-1 56.525162511062959 0 -18.477524636133072 0 -1 0 I I #
coedge $-1 $279 $281 $188 $291 reversed $181 $-1 #
edge $-1 $294 -39.033534033832055 $297 39.033534033832055 $290 $404 forward 7 unknown #
coedge $-1 $285 $189 $194 $300 forward $277 $-1 #
coedge $-1 $189 $285 $279 $395 reversed $277 $-1 #
vertex $-1 $190 $405 #
straight-curve $-1 0 39.033534033832055 18.477524636133072 -1 0 0 I I #
coedge $-1 $191 $280 $193 $299 reversed $113 $-1 #
vertex $-1 $291 $406 #
straight-curve $-1 0 -39.033534033832055 18.477524636133072 1 0 0 I I #
edge $-1 $196 -18.477524636133072 $288 18.477524636133072 $193 $407 forward 7 unknown #
edge $-1 $197 -18.477524636133072 $287 18.477524636133072 $194 $408 forward 7 unknown #
point $-1 56.525162511062959 -39.033534033832055 18.477524636133072 #
point $-1 56.525162511062959 39.033534033832055 18.477524636133072 #
face $-1 $-1 $316 $28 $-1 $409 reversed single #
loop $-1 $-1 $410 $199 #
plane-surface $-1 -68.826771763870667 0 -12.467827783572268 1 0 0 0 0 -1 forward_v I I I I #
coedge $-1 $411 $308 $205 $313 reversed $200 $-1 #
coedge $-1 $203 $202 $410 $412 reversed $77 $-1 #
coedge $-1 $306 $413 $202 $309 forward $200 $-1 #
edge $-1 $414 -6.1508046264038541 $311 6.1508046264038541 $202 $415 forward 7 unknown #
edge $-1 $210 -6.1508046264038541 $416 6.1508046264038541 $203 $417 forward 7 unknown #
vertex $-1 $204 $418 #
straight-curve $-1 -56.525162511062959 39.033534033832055 0 0 0 -1 I I #
edge $-1 $317 -39.033534033832055 $311 39.033534033832055 $306 $419 forward 7 unknown #
coedge $-1 $420 $206 $209 $320 reversed $316 $-1 #
coedge $-1 $206 $420 $411 $421 reversed $316 $-1 #
loop $-1 $-1 $206 $303 #
vertex $-1 $207 $422 #
straight-curve $-1 -56.525162511062959 -39.033534033832055 0 0 0 1 I I #
coedge $-1 $209 $208 $423 $424 forward $121 $-1 #
edge $-1 $425 -6.1508046264038541 $211 6.1508046264038541 $314 $426 forward 7 unknown #
point $-1 -56.525162511062959 39.033534033832055 -9.7037272400701617 #
point $-1 -56.525162511062959 -39.033534033832055 -9.7037272400701617 #
loop $-1 $-1 $221 $213 #
plane-surface $-1 0 39.033534033832055 0 0 -1 0 0 0 -1 forward_v I I I I #
coedge $-1 $326 $216 $218 $330 reversed $129 $-1 #
coedge $-1 $216 $325 $427 $428 reversed $129 $-1 #
coedge $-1 $224 $219 $216 $328 forward $214 $-1 #
edge $-1 $331 2.7527465954222592 $429 5.9709382485693254 $327 $430 forward 7 unknown #
coedge $-1 $218 $217 $334 $431 reversed $81 $-1 #
edge $-1 $432 -78.06706806766411 $331 -73.43429917070867 $325 $433 forward 7 unknown #
vertex $-1 $220 $434 #
straight-curve $-1 -9.7990160886736071 35.815342380684982 18.477524636133076 1 0 0 I I #
coedge $-1 $427 $221 $224 $338 reversed $323 $-1 #
coedge $-1 $221 $427 $329 $431 forward $323 $-1 #
vertex $-1 $222 $435 #
straight-curve $-1 -26.342541759420271 39.033534033832055 74.916546469921443 0 0 1 I I #
straight-curve $-1 -26.342541759420271 -15.196407590522398 71.301739344618468 0 0.69465836192734942 -0.71933980857756763 I I #
edge $-1 $429 12.853522595274155 $225 26.342541759420271 $333 $436 forward 7 unknown #
point $-1 -26.342541759420271 39.033534033832055 18.477524636133072 #
point $-1 -26.342541759420271 35.815342380684989 18.477524636133069 #
edge $-1 $437 1 $437 0 $228 $-1 forward 7 unknown #
vertex $-1 $229 $438 #
ellipse-curve $-1 -22.488536283949955 36.272478081357612 15.698822154169108 0 0.71933980857756763 0.69465836192734942 0.5 0 0 1 I I #
point $-1 -21.988536283949955 37.424438207258511 16.811257090373054 #
edge $-1 $439 1 $439 0 $232 $-1 forward 7 unknown #
vertex $-1 $233 $440 #
ellipse-curve $-1 -16.707528070744473 36.272478081357612 15.698822154169108 0 0.71933980857756763 0.69465836192734942 0.5 0 0 1 I I #
point $-1 -16.207528070744473 37.424438207258511 16.811257090373054 #
plane-surface $-1 0 0 18.477524636133072 0 0 1 1 0 0 forward_v I I I I #
coedge $-1 $360 $359 $352 $441 forward $237 $-1 #
coedge $-1 $352 $239 $241 $356 reversed $151 $-1 #
coedge $-1 $239 $351 $350 $441 reversed $151 $-1 #
coedge $-1 $247 $242 $239 $354 forward $248 $-1 #
edge $-1 $357 -35.931098251959263 $442 -22.489615480545218 $353 $443 forward 7 unknown #
coedge $-1 $241 $240 $360 $444 reversed $95 $-1 #
edge $-1 $445 0 $357 20.087981073396776 $351 $446 forward 7 unknown #
vertex $-1 $243 $447 #
straight-curve $-1 -13.709336814469312 -25.592051262418003 18.477524636133072 -1 0 0 I I #
coedge $-1 $350 $244 $247 $364 reversed $237 $-1 #
coedge $-1 $244 $350 $355 $444 forward $237 $-1 #
vertex $-1 $245 $448 #
straight-curve $-1 -17.316283481306542 -39.033534033832055 39.5973383860862 0 0 1 I I #
straight-curve $-1 -17.316283481306542 -39.033534033832055 3.5492452807978907 0 -0.66913059716165679 -0.74314483375859142 I I #
edge $-1 $442 -37.521063776570706 $249 -17.316283481306542 $359 $449 forward 7 unknown #
point $-1 -17.316283481306542 -39.033534033832055 18.477524636133072 #
point $-1 -17.316283481306542 -25.592051262418011 18.477524636133069 #
edge $-1 $450 1 $450 0 $252 $-1 forward 7 unknown #
vertex $-1 $253 $451 #
ellipse-curve $-1 -27.418673628938624 -28.726229215080085 7.7840288185947344 0 -0.74314483375859142 0.66913059716165679 2.5 0 0 1 I I #
point $-1 -24.918673628938624 -32.312792648125026 11.013384958465469 #
plane-surface $-1 0 0 18.477524636133072 0 0 1 1 0 0 forward_v I I I I #
coedge $-1 $382 $381 $374 $452 forward $257 $-1 #
coedge $-1 $374 $259 $261 $378 reversed $166 $-1 #
coedge $-1 $259 $373 $372 $452 reversed $166 $-1 #
coedge $-1 $267 $262 $259 $376 forward $268 $-1 #
edge $-1 $379 -35.931098251959263 $453 -22.489615480545218 $375 $454 forward 7 unknown #
coedge $-1 $261 $260 $382 $455 reversed $104 $-1 #
edge $-1 $456 0 $379 20.087981073396776 $373 $457 forward 7 unknown #
vertex $-1 $263 $458 #
straight-curve $-1 11.477842127860242 -25.592051262418003 18.477524636133072 -1 0 0 I I #
coedge $-1 $372 $264 $267 $386 reversed $257 $-1 #
coedge $-1 $264 $372 $377 $455 forward $257 $-1 #
vertex $-1 $265 $459 #
straight-curve $-1 33.058074403352563 -39.033534033832055 39.5973383860862 0 0 1 I I #
straight-curve $-1 33.058074403352563 -39.033534033832055 3.5492452807978907 0 -0.66913059716165679 -0.74314483375859142 I I #
edge $-1 $453 12.853294108088402 $269 33.058074403352563 $381 $460 forward 7 unknown #
point $-1 33.058074403352563 -39.033534033832055 18.477524636133072 #
point $-1 33.058074403352563 -25.592051262418011 18.477524636133069 #
edge $-1 $461 1 $461 0 $272 $-1 forward 7 unknown #
vertex $-1 $273 $462 #
ellipse-curve $-1 22.955684255720485 -28.726229215080085 7.7840288185947344 0 -0.74314483375859142 0.66913059716165679 2.5 0 0 1 I I #
point $-1 25.455684255720485 -32.312792648125026 11.013384958465469 #
plane-surface $-1 56.525162511062959 0 0 -1 0 0 0 0 1 forward_v I I I I #
coedge $-1 $281 $279 $283 $398 reversed $181 $-1 #
edge $-1 $294 -18.477524636133072 $400 18.477524636133072 $293 $463 forward 7 unknown #
vertex $-1 $398 $464 #
straight-curve $-1 -56.525162511062959 -39.033534033832055 0 0 0 -1 I I #
edge $-1 $396 -39.033534033832055 $400 39.033534033832055 $394 $465 forward 7 unknown #
straight-curve $-1 0 -39.033534033832055 -18.477524636133072 -1 0 0 I I #
vertex $-1 $286 $466 #
straight-curve $-1 0 39.033534033832055 -18.477524636133072 1 0 0 I I #
point $-1 56.525162511062959 39.033534033832055 -18.477524636133072 #
point $-1 56.525162511062959 -39.033534033832055 -18.477524636133072 #
straight-curve $-1 -56.525162511062959 0 18.477524636133072 0 -1 0 I I #
point $-1 -56.525162511062959 39.033534033832055 18.477524636133072 #
point $-1 -56.525162511062959 -39.033534033832055 18.477524636133072 #
straight-curve $-1 56.525162511062959 -39.033534033832055 0 0 0 -1 I I #
straight-curve $-1 56.525162511062959 39.033534033832055 0 0 0 -1 I I #
plane-surface $-1 0 -39.033534033832055 0 0 1 0 0 0 1 forward_v I I I I #
coedge $-1 $467 $423 $307 $412 forward $304 $-1 #
coedge $-1 $413 $306 $315 $421 forward $200 $-1 #
edge $-1 $416 -2.7641005435021064 $414 2.7641005435021064 $307 $468 forward 7 unknown #
coedge $-1 $308 $411 $467 $469 forward $200 $-1 #
vertex $-1 $309 $470 #
straight-curve $-1 -62.675967137466813 39.033534033832055 -15.231928327074375 1 0 0 I I #
vertex $-1 $310 $471 #
straight-curve $-1 -62.675967137466813 39.033534033832055 -9.7037272400701617 -1 0 0 I I #
point $-1 -56.525162511062959 39.033534033832055 -15.231928327074375 #
straight-curve $-1 -56.525162511062959 0 -15.231928327074375 0 1 0 I I #
coedge $-1 $315 $314 $472 $473 forward $316 $-1 #
edge $-1 $317 -6.1508046264038541 $474 6.1508046264038541 $315 $475 forward 7 unknown #
point $-1 -56.525162511062959 -39.033534033832055 -15.231928327074375 #
coedge $-1 $410 $472 $319 $424 reversed $304 $-1 #
edge $-1 $416 -39.033534033832055 $425 39.033534033832055 $423 $476 forward 7 unknown #
vertex $-1 $424 $477 #
straight-curve $-1 -62.675967137466813 -39.033534033832055 -9.7037272400701617 1 0 0 I I #
coedge $-1 $334 $333 $326 $428 forward $323 $-1 #
edge $-1 $429 56.439021833788374 $432 59.771556925308424 $427 $478 forward 7 unknown #
vertex $-1 $338 $479 #
straight-curve $-1 -12.853522595274155 33.062595785262729 18.477524636133069 0 1 0 I I #
edge $-1 $432 3.0545065066005481 $335 16.543525670746664 $334 $480 forward 7 unknown #
vertex $-1 $431 $481 #
straight-curve $-1 -12.853522595274155 -15.196407590522398 71.301739344618468 0 -0.69465836192734942 0.71933980857756763 I I #
point $-1 -12.853522595274155 35.815342380684989 18.477524636133069 #
point $-1 -26.342541759420271 39.033534033832048 15.144989544613018 #
straight-curve $-1 0 39.033534033832055 18.477524636133072 -1 0 0 I I #
vertex $-1 $341 $482 #
point $-1 -21.988536283949955 36.272478081357612 15.698822154169108 #
vertex $-1 $345 $483 #
point $-1 -16.207528070744473 36.272478081357612 15.698822154169108 #
edge $-1 $442 21.119813749953128 $445 36.048093105288309 $350 $484 forward 7 unknown #
vertex $-1 $364 $485 #
straight-curve $-1 -37.521063776570706 -61.523149514377273 18.477524636133072 0 -1 0 I I #
edge $-1 $445 -23.811726962101396 $361 -3.6069466668372296 $360 $486 forward 7 unknown #
vertex $-1 $444 $487 #
straight-curve $-1 -37.521063776570706 -39.033534033832055 3.5492452807978907 0 0.66913059716165679 0.74314483375859142 I I #
point $-1 -37.521063776570706 -25.592051262418011 18.477524636133069 #
point $-1 -17.316283481306542 -39.033534033832055 3.5492452807978907 #
straight-curve $-1 0 -39.033534033832055 18.477524636133072 1 0 0 I I #
vertex $-1 $367 $488 #
point $-1 -24.918673628938624 -28.726229215080085 7.7840288185947344 #
edge $-1 $453 21.119813749953128 $456 36.048093105288309 $372 $489 forward 7 unknown #
vertex $-1 $386 $490 #
straight-curve $-1 12.853294108088402 -61.523149514377273 18.477524636133072 0 -1 0 I I #
edge $-1 $456 1.37545198022816 $383 21.580232275492321 $382 $491 forward 7 unknown #
vertex $-1 $455 $492 #
straight-curve $-1 12.853294108088402 -39.033534033832055 3.5492452807978907 0 0.66913059716165679 0.74314483375859142 I I #
point $-1 12.853294108088402 -25.592051262418011 18.477524636133069 #
point $-1 33.058074403352563 -39.033534033832055 3.5492452807978907 #
straight-curve $-1 0 -39.033534033832055 18.477524636133072 1 0 0 I I #
vertex $-1 $389 $493 #
point $-1 25.455684255720485 -28.726229215080085 7.7840288185947344 #
straight-curve $-1 -56.525162511062959 39.033534033832055 0 0 0 -1 I I #
point $-1 -56.525162511062959 -39.033534033832055 -18.477524636133072 #
straight-curve $-1 -56.525162511062959 0 -18.477524636133072 0 1 0 I I #
point $-1 -56.525162511062959 39.033534033832055 -18.477524636133072 #
coedge $-1 $472 $410 $413 $469 reversed $304 $-1 #
straight-curve $-1 -68.826771763870667 39.033534033832055 -12.467827783572268 0 0 -1 I I #
edge $-1 $474 -39.033534033832055 $414 39.033534033832055 $467 $494 forward 7 unknown #
point $-1 -68.826771763870667 39.033534033832055 -15.231928327074375 #
point $-1 -68.826771763870667 39.033534033832055 -9.7037272400701617 #
coedge $-1 $423 $467 $420 $473 reversed $304 $-1 #
edge $-1 $425 -2.7641005435021064 $474 2.7641005435021064 $472 $495 forward 7 unknown #
vertex $-1 $469 $496 #
straight-curve $-1 -62.675967137466813 -39.033534033832055 -15.231928327074375 -1 0 0 I I #
straight-curve $-1 -68.826771763870667 0 -9.7037272400701617 0 -1 0 I I #
point $-1 -68.826771763870667 -39.033534033832055 -9.7037272400701617 #
straight-curve $-1 -12.853522595274155 39.033534033832055 74.916546469921443 0 0 -1 I I #
point $-1 -12.853522595274155 39.033534033832055 18.477524636133072 #
straight-curve $-1 -9.7990160886736071 39.033534033832055 15.144989544613011 -1 0 0 I I #
point $-1 -12.853522595274155 39.033534033832048 15.144989544613018 #
point $-1 -22.488536283949955 35.912808177068818 15.351492973205431 #
point $-1 -16.707528070744473 35.912808177068818 15.351492973205431 #
straight-curve $-1 -37.521063776570706 -39.033534033832055 39.5973383860862 0 0 -1 I I #
point $-1 -37.521063776570706 -39.033534033832055 18.477524636133072 #
straight-curve $-1 -13.709336814469312 -39.033534033832055 3.549245280797888 1 0 0 I I #
point $-1 -37.521063776570706 -39.033534033832055 3.5492452807978907 #
point $-1 -27.418673628938624 -26.868367130683605 6.1112023256905914 #
straight-curve $-1 12.853294108088402 -39.033534033832055 39.5973383860862 0 0 -1 I I #
point $-1 12.853294108088402 -39.033534033832055 18.477524636133072 #
straight-curve $-1 11.477842127860242 -39.033534033832055 3.549245280797888 1 0 0 I I #
point $-1 12.853294108088402 -39.033534033832055 3.5492452807978907 #
point $-1 22.955684255720485 -26.868367130683605 6.1112023256905914 #
straight-curve $-1 -68.826771763870667 0 -15.231928327074375 0 1 0 I I #
straight-curve $-1 -68.826771763870667 -39.033534033832055 -12.467827783572268 0 0 -1 I I #
point $-1 -68.826771763870667 -39.033534033832055 -15.231928327074375 #
End-of-ACIS-data 