500 0 10 0           
7 Unknown 11 ACIS 5.0 NT 24 Fri Mar 26 15:28:18 1999 
-1 9.9999999999999995e-007 1e-010 
body $-1 $10 $-1 $11 #
body $-1 $12 $-1 $13 #
body $-1 $14 $-1 $15 #
body $-1 $16 $-1 $17 #
body $-1 $18 $-1 $19 #
body $-1 $20 $-1 $21 #
body $-1 $22 $-1 $23 #
body $-1 $24 $-1 $25 #
body $-1 $26 $-1 $27 #
body $-1 $28 $-1 $29 #
lump $-1 $-1 $30 $0 #
transform $-1 1 0 0 0 1 0 0 0 1 54.496292001098666 31.730489717464554 11.329509491209091 1 rotate no_reflect no_shear #
lump $-1 $-1 $31 $1 #
transform $-1 1 0 0 0 1 0 0 0 1 54.496292001098666 31.730489717464554 11.329509491209091 1 rotate no_reflect no_shear #
lump $-1 $-1 $32 $2 #
transform $-1 1 0 0 0 1 0 0 0 1 54.496292001098666 31.730489717464554 11.329509491209091 1 rotate no_reflect no_shear #
lump $-1 $-1 $33 $3 #
transform $-1 1 0 0 0 1 0 0 0 1 54.496292001098666 31.730489717464554 11.329509491209091 1 rotate no_reflect no_shear #
lump $-1 $-1 $34 $4 #
transform $-1 1 0 0 0 1 0 0 0 1 54.496292001098666 31.730489717464554 11.329509491209091 1 rotate no_reflect no_shear #
lump $-1 $-1 $35 $5 #
transform $-1 1 0 0 0 1 0 0 0 1 54.496292001098666 31.730489717464554 11.329509491209091 1 rotate no_reflect no_shear #
lump $-1 $-1 $36 $6 #
transform $-1 1 0 0 0 1 0 0 0 1 54.496292001098666 31.730489717464554 11.329509491209091 1 rotate no_reflect no_shear #
lump $-1 $-1 $37 $7 #
transform $-1 1 0 0 0 1 0 0 0 1 54.496292001098666 31.730489717464554 11.329509491209091 1 rotate no_reflect no_shear #
lump $-1 $-1 $38 $8 #
transform $-1 1 0 0 0 1 0 0 0 1 54.496292001098666 31.730489717464554 11.329509491209091 1 rotate no_reflect no_shear #
lump $-1 $-1 $39 $9 #
transform $-1 1 0 0 0 1 0 0 0 1 54.496292001098666 31.730489717464554 11.329509491209091 1 rotate no_reflect no_shear #
shell $-1 $-1 $-1 $40 $-1 $10 #
shell $-1 $-1 $-1 $41 $-1 $12 #
shell $-1 $-1 $-1 $42 $-1 $14 #
shell $-1 $-1 $-1 $43 $-1 $16 #
shell $-1 $-1 $-1 $44 $-1 $18 #
shell $-1 $-1 $-1 $45 $-1 $20 #
shell $-1 $-1 $-1 $46 $-1 $22 #
shell $-1 $-1 $-1 $47 $-1 $24 #
shell $-1 $-1 $-1 $48 $-1 $26 #
shell $-1 $-1 $-1 $49 $-1 $28 #
face $-1 $50 $51 $30 $-1 $52 forward single #
face $-1 $53 $54 $31 $-1 $55 reversed single #
face $-1 $56 $57 $32 $-1 $58 forward single #
face $-1 $59 $60 $33 $-1 $61 forward single #
face $-1 $62 $63 $34 $-1 $64 reversed single #
face $-1 $65 $66 $35 $-1 $67 forward single #
face $-1 $68 $69 $36 $-1 $70 forward single #
face $-1 $71 $72 $37 $-1 $73 reversed single #
face $-1 $74 $75 $38 $-1 $76 forward single #
face $-1 $77 $78 $39 $-1 $79 forward single #
face $-1 $80 $81 $30 $-1 $82 reversed single #
loop $-1 $-1 $83 $40 #
plane-surface $-1 0 0 11.329509491209091 0 0 1 1 0 0 forward_v I I I I #
face $-1 $84 $85 $31 $-1 $86 reversed single #
loop $-1 $-1 $87 $41 #
plane-surface $-1 -39.01262628099294 96.291059981561531 110.07066790366663 1 0 0 0 -0.87461971476443456 -0.48480960649040278 forward_v I I I I #
face $-1 $88 $89 $32 $-1 $90 forward single #
loop $-1 $91 $92 $42 #
cone-surface $-1 -33.431394745173328 28.143634995443758 6.0148368467841973 0 -0.87461971476443456 -0.48480960649040278 1.5 0 0 1 I I 0 1 1.5 forward I I I I #
face $-1 $93 $94 $33 $-1 $95 forward single #
loop $-1 $96 $97 $43 #
cone-surface $-1 -25.059547441443911 28.143634995443758 6.0148368467841973 0 -0.87461971476443456 -0.48480960649040278 1.5 0 0 1 I I 0 1 1.5 forward I I I I #
face $-1 $98 $99 $34 $-1 $100 reversed single #
loop $-1 $-1 $101 $44 #
plane-surface $-1 -21.046464564617462 -101.78957312289297 90.743575194860611 -1 0 0 0 -0.64278761758704617 0.76604443648966558 forward_v I I I I #
face $-1 $102 $103 $35 $-1 $104 forward single #
loop $-1 $105 $106 $45 #
cone-surface $-1 -38.23495558421245 -28.520048586540629 8.3606292363120875 0 0.64278761758704617 -0.76604443648966558 1.5 0 0 1 I I 0 1 1.5 forward I I I I #
face $-1 $107 $108 $36 $-1 $109 forward single #
loop $-1 $110 $111 $46 #
cone-surface $-1 -27.921860972455459 -28.520048586540629 8.3606292363120875 0 0.64278761758704617 -0.76604443648966558 1.5 0 0 1 I I 0 1 1.5 forward I I I I #
face $-1 $112 $113 $37 $-1 $114 reversed single #
loop $-1 $-1 $115 $47 #
plane-surface $-1 45.110351992050454 -101.78957312289297 90.743575194860611 -1 0 0 0 -0.64278761758704617 0.76604443648966558 forward_v I I I I #
face $-1 $116 $117 $38 $-1 $118 forward single #
loop $-1 $119 $120 $48 #
cone-surface $-1 27.921860972455463 -28.520048586540629 8.3606292363120875 0 0.64278761758704617 -0.76604443648966558 1.5 0 0 1 I I 0 1 1.5 forward I I I I #
face $-1 $121 $122 $39 $-1 $123 forward single #
loop $-1 $124 $125 $49 #
cone-surface $-1 38.234955584212457 -28.520048586540629 8.3606292363120875 0 0.64278761758704617 -0.76604443648966558 1.5 0 0 1 I I 0 1 1.5 forward I I I I #
face $-1 $126 $127 $30 $-1 $128 reversed single #
loop $-1 $-1 $129 $50 #
plane-surface $-1 0 0 -11.329509491209091 0 0 1 1 0 0 forward_v I I I I #
coedge $-1 $130 $131 $132 $133 forward $51 $-1 #
face $-1 $134 $135 $31 $-1 $136 reversed single #
loop $-1 $-1 $137 $53 #
plane-surface $-1 -29.24547109330862 0.96399725012102522 57.230016143189175 0 0.87461971476443456 0.48480960649040278 1 0 0 forward_v I I I I #
coedge $-1 $138 $139 $140 $141 reversed $54 $-1 #
face $-1 $-1 $142 $32 $-1 $143 forward single #
loop $-1 $144 $145 $56 #
cone-surface $-1 -33.431394745173328 26.56252904115831 5.1384155375261322 0 -0.87461971476443456 -0.48480960649040278 0.75 0 0 1 I I -0.70710678118654757 0.70710678118654757 0.75 forward I I I I #
loop $-1 $-1 $146 $42 #
coedge $-1 $92 $92 $147 $148 reversed $57 $-1 #
face $-1 $-1 $149 $33 $-1 $150 forward single #
loop $-1 $151 $152 $59 #
cone-surface $-1 -25.059547441443911 26.56252904115831 5.1384155375261322 0 -0.87461971476443456 -0.48480960649040278 0.75 0 0 1 I I -0.70710678118654757 0.70710678118654757 0.75 forward I I I I #
loop $-1 $-1 $153 $43 #
coedge $-1 $97 $97 $154 $155 reversed $60 $-1 #
face $-1 $156 $157 $34 $-1 $158 reversed single #
loop $-1 $-1 $159 $62 #
plane-surface $-1 -33.078408278333953 -31.73048971746455 7.25041260134482 0 -0.64278761758704617 0.76604443648966558 1 0 0 forward_v I I I I #
coedge $-1 $160 $161 $162 $163 reversed $63 $-1 #
face $-1 $-1 $164 $35 $-1 $165 forward single #
loop $-1 $166 $167 $65 #
cone-surface $-1 -38.23495558421245 -27.258155878034586 6.8567640989799656 0 0.64278761758704617 -0.76604443648966558 0.75 0 0 1 I I -0.70710678118654713 0.70710678118654802 0.75 forward I I I I #
loop $-1 $-1 $168 $45 #
coedge $-1 $106 $106 $169 $170 reversed $66 $-1 #
face $-1 $-1 $171 $36 $-1 $172 forward single #
loop $-1 $173 $174 $68 #
cone-surface $-1 -27.921860972455459 -27.258155878034586 6.8567640989799656 0 0.64278761758704617 -0.76604443648966558 0.75 0 0 1 I I -0.70710678118654713 0.70710678118654802 0.75 forward I I I I #
loop $-1 $-1 $175 $46 #
coedge $-1 $111 $111 $176 $177 reversed $69 $-1 #
face $-1 $178 $179 $37 $-1 $180 reversed single #
loop $-1 $-1 $181 $71 #
plane-surface $-1 33.078408278333967 -31.73048971746455 7.25041260134482 0 -0.64278761758704617 0.76604443648966558 1 0 0 forward_v I I I I #
coedge $-1 $182 $183 $184 $185 reversed $72 $-1 #
face $-1 $-1 $186 $38 $-1 $187 forward single #
loop $-1 $188 $189 $74 #
cone-surface $-1 27.921860972455463 -27.258155878034586 6.8567640989799656 0 0.64278761758704617 -0.76604443648966558 0.75 0 0 1 I I -0.70710678118654713 0.70710678118654802 0.75 forward I I I I #
loop $-1 $-1 $190 $48 #
coedge $-1 $120 $120 $191 $192 reversed $75 $-1 #
face $-1 $-1 $193 $39 $-1 $194 forward single #
loop $-1 $195 $196 $77 #
cone-surface $-1 38.234955584212457 -27.258155878034586 6.8567640989799656 0 0.64278761758704617 -0.76604443648966558 0.75 0 0 1 I I -0.70710678118654713 0.70710678118654802 0.75 forward I I I I #
loop $-1 $-1 $197 $49 #
coedge $-1 $125 $125 $198 $199 reversed $78 $-1 #
face $-1 $200 $201 $30 $-1 $202 reversed single #
loop $-1 $-1 $203 $80 #
plane-surface $-1 0 -31.730489717464554 0 0 1 0 0 0 1 forward_v I I I I #
coedge $-1 $204 $205 $206 $207 forward $81 $-1 #
coedge $-1 $208 $83 $209 $210 forward $51 $-1 #
coedge $-1 $83 $208 $211 $212 forward $51 $-1 #
coedge $-1 $213 $214 $83 $133 reversed $215 $-1 #
edge $-1 $216 -31.730489717464554 $217 31.730489717464554 $132 $218 forward 7 unknown #
face $-1 $219 $220 $31 $-1 $221 reversed single #
loop $-1 $-1 $222 $84 #
plane-surface $-1 -19.478315905624299 96.291059981561531 110.07066790366663 -1 0 0 0 0.87461971476443456 0.48480960649040278 forward_v I I I I #
coedge $-1 $223 $224 $225 $226 reversed $85 $-1 #
coedge $-1 $139 $87 $227 $228 reversed $54 $-1 #
coedge $-1 $87 $138 $223 $229 reversed $54 $-1 #
coedge $-1 $225 $230 $87 $141 forward $231 $-1 #
edge $-1 $232 16.415040273316212 $233 21.73846738093356 $140 $234 forward 7 unknown #
loop $-1 $-1 $147 $88 #
plane-surface $-1 -29.24547109330862 0.96399725012102522 57.230016143189175 0 0.87461971476443456 0.48480960649040278 1 0 0 forward_v I I I I #
loop $-1 $-1 $235 $56 #
coedge $-1 $145 $145 $146 $236 reversed $89 $-1 #
coedge $-1 $146 $146 $145 $236 forward $91 $-1 #
coedge $-1 $147 $147 $92 $148 forward $142 $-1 #
edge $-1 $237 0 $237 6.2831853071796004 $147 $238 forward 7 unknown #
loop $-1 $-1 $154 $93 #
plane-surface $-1 -29.24547109330862 0.96399725012102522 57.230016143189175 0 0.87461971476443456 0.48480960649040278 1 0 0 forward_v I I I I #
loop $-1 $-1 $239 $59 #
coedge $-1 $152 $152 $153 $240 reversed $94 $-1 #
coedge $-1 $153 $153 $152 $240 forward $96 $-1 #
coedge $-1 $154 $154 $97 $155 forward $149 $-1 #
edge $-1 $241 0 $241 6.2831853071796004 $154 $242 forward 7 unknown #
face $-1 $243 $244 $34 $-1 $245 reversed single #
loop $-1 $-1 $246 $98 #
plane-surface $-1 -45.11035199205044 -101.78957312289297 90.743575194860611 1 0 0 0 0.64278761758704617 -0.76604443648966558 forward_v I I I I #
coedge $-1 $247 $248 $249 $250 reversed $99 $-1 #
coedge $-1 $161 $101 $251 $252 reversed $63 $-1 #
coedge $-1 $101 $160 $247 $253 reversed $63 $-1 #
coedge $-1 $249 $254 $101 $163 forward $255 $-1 #
edge $-1 $256 19.164296843981933 $257 24.025575115198272 $162 $258 forward 7 unknown #
loop $-1 $-1 $169 $102 #
plane-surface $-1 -33.078408278333953 -31.73048971746455 7.25041260134482 0 -0.64278761758704617 0.76604443648966558 1 0 0 forward_v I I I I #
loop $-1 $-1 $259 $65 #
coedge $-1 $167 $167 $168 $260 reversed $103 $-1 #
coedge $-1 $168 $168 $167 $260 forward $105 $-1 #
coedge $-1 $169 $169 $106 $170 forward $164 $-1 #
edge $-1 $261 -2.1062884897377527e-015 $261 6.2831853071795987 $169 $262 forward 7 unknown #
loop $-1 $-1 $176 $107 #
plane-surface $-1 -33.078408278333953 -31.73048971746455 7.25041260134482 0 -0.64278761758704617 0.76604443648966558 1 0 0 forward_v I I I I #
loop $-1 $-1 $263 $68 #
coedge $-1 $174 $174 $175 $264 reversed $108 $-1 #
coedge $-1 $175 $175 $174 $264 forward $110 $-1 #
coedge $-1 $176 $176 $111 $177 forward $171 $-1 #
edge $-1 $265 -2.1062884897377527e-015 $265 6.2831853071795987 $176 $266 forward 7 unknown #
face $-1 $267 $268 $37 $-1 $269 reversed single #
loop $-1 $-1 $270 $112 #
plane-surface $-1 21.046464564617477 -101.78957312289297 90.743575194860611 1 0 0 0 0.64278761758704617 -0.76604443648966558 forward_v I I I I #
coedge $-1 $271 $272 $273 $274 reversed $113 $-1 #
coedge $-1 $183 $115 $275 $276 reversed $72 $-1 #
coedge $-1 $115 $182 $271 $277 reversed $72 $-1 #
coedge $-1 $273 $278 $115 $185 forward $279 $-1 #
edge $-1 $280 19.164296843981933 $281 24.025575115198272 $184 $282 forward 7 unknown #
loop $-1 $-1 $191 $116 #
plane-surface $-1 33.078408278333967 -31.73048971746455 7.25041260134482 0 -0.64278761758704617 0.76604443648966558 1 0 0 forward_v I I I I #
loop $-1 $-1 $283 $74 #
coedge $-1 $189 $189 $190 $284 reversed $117 $-1 #
coedge $-1 $190 $190 $189 $284 forward $119 $-1 #
coedge $-1 $191 $191 $120 $192 forward $186 $-1 #
edge $-1 $285 -2.1062884897377527e-015 $285 6.2831853071795987 $191 $286 forward 7 unknown #
loop $-1 $-1 $198 $121 #
plane-surface $-1 33.078408278333967 -31.73048971746455 7.25041260134482 0 -0.64278761758704617 0.76604443648966558 1 0 0 forward_v I I I I #
loop $-1 $-1 $287 $77 #
coedge $-1 $196 $196 $197 $288 reversed $122 $-1 #
coedge $-1 $197 $197 $196 $288 forward $124 $-1 #
coedge $-1 $198 $198 $125 $199 forward $193 $-1 #
edge $-1 $289 -2.1062884897377527e-015 $289 6.2831853071795987 $198 $290 forward 7 unknown #
face $-1 $291 $292 $30 $-1 $293 reversed single #
loop $-1 $-1 $294 $126 #
plane-surface $-1 -54.496292001098666 0 0 1 0 0 0 0 -1 forward_v I I I I #
coedge $-1 $295 $211 $296 $297 forward $127 $-1 #
coedge $-1 $298 $129 $295 $299 forward $81 $-1 #
coedge $-1 $129 $298 $300 $301 forward $81 $-1 #
coedge $-1 $214 $213 $129 $207 reversed $215 $-1 #
edge $-1 $302 -31.730489717464554 $303 31.730489717464554 $206 $304 forward 7 unknown #
coedge $-1 $131 $130 $305 $306 forward $51 $-1 #
coedge $-1 $307 $308 $130 $210 reversed $292 $-1 #
edge $-1 $217 -54.496292001098666 $309 54.496292001098666 $209 $310 forward 7 unknown #
coedge $-1 $203 $311 $131 $212 reversed $127 $-1 #
edge $-1 $312 -54.496292001098666 $216 54.496292001098666 $211 $313 forward 7 unknown #
coedge $-1 $206 $132 $311 $314 forward $215 $-1 #
coedge $-1 $132 $206 $307 $315 reversed $215 $-1 #
loop $-1 $-1 $213 $291 #
vertex $-1 $133 $316 #
vertex $-1 $133 $317 #
straight-curve $-1 54.496292001098666 0 11.329509491209091 0 1 0 I I #
face $-1 $-1 $231 $31 $-1 $318 forward single #
loop $-1 $-1 $319 $134 #
plane-surface $-1 0 31.730489717464554 0 0 -1 0 0 0 -1 forward_v I I I I #
coedge $-1 $320 $321 $322 $323 reversed $135 $-1 #
coedge $-1 $324 $137 $139 $229 forward $85 $-1 #
coedge $-1 $137 $324 $320 $325 forward $85 $-1 #
coedge $-1 $322 $140 $137 $226 forward $231 $-1 #
edge $-1 $233 -24.389890734338628 $326 -4.8555803589699895 $225 $327 forward 7 unknown #
coedge $-1 $328 $329 $138 $228 forward $220 $-1 #
edge $-1 $330 -53.309541540693488 $232 -43.705824460624228 $227 $331 forward 7 unknown #
edge $-1 $233 52.4805305404563 $330 63.460979434929115 $139 $332 forward 7 unknown #
coedge $-1 $140 $322 $328 $333 forward $231 $-1 #
loop $-1 $-1 $322 $219 #
vertex $-1 $228 $334 #
vertex $-1 $141 $335 #
straight-curve $-1 -39.01262628099294 48.145529990780766 11.329509491209095 0 -1 0 I I #
coedge $-1 $235 $235 $-1 $336 reversed $144 $-1 #
edge $-1 $337 0 $337 6.2831853071796004 $145 $338 forward 7 unknown #
vertex $-1 $148 $339 #
ellipse-curve $-1 -33.431394745173328 29.06877616365588 6.5276509511744596 0 0.87461971476443456 0.48480960649040278 1.5 0 0 1 I I #
coedge $-1 $239 $239 $-1 $340 reversed $151 $-1 #
edge $-1 $341 0 $341 6.2831853071796004 $152 $342 forward 7 unknown #
vertex $-1 $155 $343 #
ellipse-curve $-1 -25.059547441443911 29.06877616365588 6.5276509511744596 0 0.87461971476443456 0.48480960649040278 1.5 0 0 1 I I #
face $-1 $-1 $255 $34 $-1 $344 forward single #
loop $-1 $-1 $345 $156 #
plane-surface $-1 0 -31.730489717464554 0 0 1 0 0 0 1 forward_v I I I I #
coedge $-1 $346 $347 $348 $349 reversed $157 $-1 #
coedge $-1 $350 $159 $161 $253 forward $99 $-1 #
coedge $-1 $159 $350 $346 $351 forward $99 $-1 #
coedge $-1 $348 $162 $159 $250 forward $255 $-1 #
edge $-1 $257 4.507260425450486 $352 28.571147852883463 $249 $353 forward 7 unknown #
coedge $-1 $354 $355 $160 $252 forward $244 $-1 #
edge $-1 $356 -38.121374996085486 $256 -34.042278106221218 $251 $357 forward 7 unknown #
edge $-1 $257 -6.3459481456359574 $356 4.4342668192596698e-015 $161 $358 forward 7 unknown #
coedge $-1 $162 $348 $354 $359 forward $255 $-1 #
loop $-1 $-1 $348 $243 #
vertex $-1 $252 $360 #
vertex $-1 $163 $361 #
straight-curve $-1 -21.046464564617462 -50.894786561446487 11.329509491209095 0 1 0 I I #
coedge $-1 $259 $259 $-1 $362 reversed $166 $-1 #
edge $-1 $363 0 $363 6.2831853071796004 $167 $364 forward 7 unknown #
vertex $-1 $170 $365 #
ellipse-curve $-1 -38.23495558421245 -29.299850581856383 9.2899610462769537 0 -0.64278761758704617 0.76604443648966558 1.5 0 0 1 I I #
coedge $-1 $263 $263 $-1 $366 reversed $173 $-1 #
edge $-1 $367 0 $367 6.2831853071796004 $174 $368 forward 7 unknown #
vertex $-1 $177 $369 #
ellipse-curve $-1 -27.921860972455459 -29.299850581856383 9.2899610462769537 0 -0.64278761758704617 0.76604443648966558 1.5 0 0 1 I I #
face $-1 $-1 $279 $37 $-1 $370 forward single #
loop $-1 $-1 $371 $178 #
plane-surface $-1 0 -31.730489717464554 0 0 1 0 0 0 1 forward_v I I I I #
coedge $-1 $372 $373 $374 $375 reversed $179 $-1 #
coedge $-1 $376 $181 $183 $277 forward $113 $-1 #
coedge $-1 $181 $376 $372 $377 forward $113 $-1 #
coedge $-1 $374 $184 $181 $274 forward $279 $-1 #
edge $-1 $281 -28.57114785288347 $378 -4.5072604254504931 $273 $379 forward 7 unknown #
coedge $-1 $380 $381 $182 $276 forward $268 $-1 #
edge $-1 $382 -38.121374996085486 $280 -34.042278106221218 $275 $383 forward 7 unknown #
edge $-1 $281 -6.3459481456359574 $382 4.4342668192596698e-015 $183 $384 forward 7 unknown #
coedge $-1 $184 $374 $380 $385 forward $279 $-1 #
loop $-1 $-1 $374 $267 #
vertex $-1 $276 $386 #
vertex $-1 $185 $387 #
straight-curve $-1 45.110351992050454 -50.894786561446487 11.329509491209095 0 1 0 I I #
coedge $-1 $283 $283 $-1 $388 reversed $188 $-1 #
edge $-1 $389 0 $389 6.2831853071796004 $189 $390 forward 7 unknown #
vertex $-1 $192 $391 #
ellipse-curve $-1 27.921860972455463 -29.299850581856383 9.2899610462769537 0 -0.64278761758704617 0.76604443648966558 1.5 0 0 1 I I #
coedge $-1 $287 $287 $-1 $392 reversed $195 $-1 #
edge $-1 $393 0 $393 6.2831853071796004 $196 $394 forward 7 unknown #
vertex $-1 $199 $395 #
ellipse-curve $-1 38.234955584212457 -29.299850581856383 9.2899610462769537 0 -0.64278761758704617 0.76604443648966558 1.5 0 0 1 I I #
face $-1 $-1 $215 $30 $-1 $396 reversed single #
loop $-1 $-1 $307 $200 #
plane-surface $-1 0 31.730489717464554 0 0 -1 0 0 0 -1 forward_v I I I I #
coedge $-1 $397 $305 $308 $398 forward $201 $-1 #
coedge $-1 $311 $203 $204 $299 reversed $127 $-1 #
coedge $-1 $305 $397 $203 $297 reversed $201 $-1 #
edge $-1 $312 -11.329509491209091 $399 11.329509491209091 $296 $400 forward 7 unknown #
coedge $-1 $205 $204 $397 $401 forward $81 $-1 #
edge $-1 $303 -54.496292001098666 $399 54.496292001098666 $295 $402 forward 7 unknown #
coedge $-1 $308 $307 $205 $301 reversed $292 $-1 #
edge $-1 $403 -54.496292001098666 $302 54.496292001098666 $300 $404 forward 7 unknown #
vertex $-1 $207 $405 #
vertex $-1 $314 $406 #
straight-curve $-1 54.496292001098666 0 -11.329509491209091 0 -1 0 I I #
coedge $-1 $294 $296 $208 $306 reversed $201 $-1 #
edge $-1 $309 -31.730489717464554 $312 31.730489717464554 $305 $407 forward 7 unknown #
coedge $-1 $300 $209 $214 $315 forward $292 $-1 #
coedge $-1 $209 $300 $294 $398 reversed $292 $-1 #
vertex $-1 $210 $408 #
straight-curve $-1 0 31.730489717464554 11.329509491209091 -1 0 0 I I #
coedge $-1 $211 $295 $213 $314 reversed $127 $-1 #
vertex $-1 $306 $409 #
straight-curve $-1 0 -31.730489717464554 11.329509491209091 1 0 0 I I #
edge $-1 $216 -11.329509491209091 $303 11.329509491209091 $213 $410 forward 7 unknown #
edge $-1 $217 -11.329509491209091 $302 11.329509491209091 $214 $411 forward 7 unknown #
point $-1 54.496292001098666 -31.730489717464554 11.329509491209091 #
point $-1 54.496292001098666 31.730489717464554 11.329509491209091 #
plane-surface $-1 0 0 11.329509491209091 0 0 1 1 0 0 forward_v I I I I #
coedge $-1 $329 $328 $321 $412 forward $220 $-1 #
coedge $-1 $321 $222 $224 $325 reversed $135 $-1 #
coedge $-1 $222 $320 $319 $412 reversed $135 $-1 #
coedge $-1 $230 $225 $222 $323 forward $231 $-1 #
edge $-1 $326 -21.73846738093356 $413 -16.415040273316212 $322 $414 forward 7 unknown #
coedge $-1 $224 $223 $329 $415 reversed $85 $-1 #
edge $-1 $416 -63.460979434929115 $326 -52.4805305404563 $320 $417 forward 7 unknown #
vertex $-1 $226 $418 #
straight-curve $-1 -14.62273554665431 26.407062609847209 11.329509491209091 1 0 0 I I #
coedge $-1 $319 $227 $230 $333 reversed $220 $-1 #
coedge $-1 $227 $319 $324 $415 forward $220 $-1 #
vertex $-1 $228 $419 #
straight-curve $-1 -39.01262628099294 31.73048971746455 55.035333951833316 0 0 1 I I #
straight-curve $-1 -39.01262628099294 0.96399725012102522 57.230016143189175 0 0.48480960649040278 -0.87461971476443456 I I #
edge $-1 $413 19.478315905624299 $232 39.01262628099294 $328 $420 forward 7 unknown #
point $-1 -39.01262628099294 31.730489717464554 11.329509491209091 #
point $-1 -39.01262628099294 26.407062609847205 11.329509491209095 #
edge $-1 $421 1 $421 0 $235 $-1 forward 7 unknown #
vertex $-1 $236 $422 #
ellipse-curve $-1 -33.431394745173328 27.218493827231637 5.5020227423939341 0 0.87461971476443456 0.48480960649040278 1.5 0 0 1 I I #
point $-1 -31.931394745173328 29.06877616365588 6.5276509511744596 #
edge $-1 $423 1 $423 0 $239 $-1 forward 7 unknown #
vertex $-1 $240 $424 #
ellipse-curve $-1 -25.059547441443911 27.218493827231637 5.5020227423939341 0 0.87461971476443456 0.48480960649040278 1.5 0 0 1 I I #
point $-1 -23.559547441443911 29.06877616365588 6.5276509511744596 #
plane-surface $-1 0 0 11.329509491209091 0 0 1 1 0 0 forward_v I I I I #
coedge $-1 $355 $354 $347 $425 forward $244 $-1 #
coedge $-1 $347 $246 $248 $351 reversed $157 $-1 #
coedge $-1 $246 $346 $345 $425 reversed $157 $-1 #
coedge $-1 $254 $249 $246 $349 forward $255 $-1 #
edge $-1 $352 -24.025575115198272 $426 -19.164296843981933 $348 $427 forward 7 unknown #
coedge $-1 $248 $247 $355 $428 reversed $99 $-1 #
edge $-1 $429 -4.4342668192596698e-015 $352 6.3459481456359574 $346 $430 forward 7 unknown #
vertex $-1 $250 $431 #
straight-curve $-1 -16.539204139166976 -26.869211446248212 11.329509491209091 -1 0 0 I I #
coedge $-1 $345 $251 $254 $359 reversed $244 $-1 #
coedge $-1 $251 $345 $350 $428 forward $244 $-1 #
vertex $-1 $252 $432 #
straight-curve $-1 -21.046464564617462 -31.73048971746455 45.371787597430306 0 0 1 I I #
straight-curve $-1 -21.046464564617462 -31.73048971746455 7.25041260134482 0 -0.76604443648966558 -0.64278761758704617 I I #
edge $-1 $426 -45.11035199205044 $256 -21.046464564617462 $354 $433 forward 7 unknown #
point $-1 -21.046464564617462 -31.730489717464554 11.329509491209091 #
point $-1 -21.046464564617462 -26.869211446248215 11.329509491209091 #
edge $-1 $434 1 $434 0 $259 $-1 forward 7 unknown #
vertex $-1 $260 $435 #
ellipse-curve $-1 -38.23495558421245 -27.740246591224871 7.4312974263472151 0 -0.64278761758704617 0.76604443648966558 1.5 0 0 1 I I #
point $-1 -36.73495558421245 -29.29985058185639 9.2899610462769573 #
edge $-1 $436 1 $436 0 $263 $-1 forward 7 unknown #
vertex $-1 $264 $437 #
ellipse-curve $-1 -27.921860972455459 -27.740246591224871 7.4312974263472151 0 -0.64278761758704617 0.76604443648966558 1.5 0 0 1 I I #
point $-1 -26.421860972455459 -29.29985058185639 9.2899610462769573 #
plane-surface $-1 0 0 11.329509491209091 0 0 1 1 0 0 forward_v I I I I #
coedge $-1 $381 $380 $373 $438 forward $268 $-1 #
coedge $-1 $373 $270 $272 $377 reversed $179 $-1 #
coedge $-1 $270 $372 $371 $438 reversed $179 $-1 #
coedge $-1 $278 $273 $270 $375 forward $279 $-1 #
edge $-1 $378 -24.025575115198272 $439 -19.164296843981933 $374 $440 forward 7 unknown #
coedge $-1 $272 $271 $381 $441 reversed $113 $-1 #
edge $-1 $442 -4.4342668192596698e-015 $378 6.3459481456359574 $372 $443 forward 7 unknown #
vertex $-1 $274 $444 #
straight-curve $-1 16.539204139166984 -26.869211446248212 11.329509491209091 -1 0 0 I I #
coedge $-1 $371 $275 $278 $385 reversed $268 $-1 #
coedge $-1 $275 $371 $376 $441 forward $268 $-1 #
vertex $-1 $276 $445 #
straight-curve $-1 45.110351992050454 -31.73048971746455 45.371787597430306 0 0 1 I I #
straight-curve $-1 45.110351992050454 -31.73048971746455 7.25041260134482 0 -0.76604443648966558 -0.64278761758704617 I I #
edge $-1 $439 21.046464564617477 $280 45.110351992050454 $380 $446 forward 7 unknown #
point $-1 45.110351992050454 -31.730489717464554 11.329509491209091 #
point $-1 45.110351992050454 -26.869211446248215 11.329509491209091 #
edge $-1 $447 1 $447 0 $283 $-1 forward 7 unknown #
vertex $-1 $284 $448 #
ellipse-curve $-1 27.921860972455463 -27.740246591224871 7.4312974263472151 0 -0.64278761758704617 0.76604443648966558 1.5 0 0 1 I I #
point $-1 29.421860972455463 -29.29985058185639 9.2899610462769573 #
edge $-1 $449 1 $449 0 $287 $-1 forward 7 unknown #
vertex $-1 $288 $450 #
ellipse-curve $-1 38.234955584212457 -27.740246591224871 7.4312974263472151 0 -0.64278761758704617 0.76604443648966558 1.5 0 0 1 I I #
point $-1 39.734955584212457 -29.29985058185639 9.2899610462769573 #
plane-surface $-1 54.496292001098666 0 0 -1 0 0 0 0 1 forward_v I I I I #
coedge $-1 $296 $294 $298 $401 reversed $201 $-1 #
edge $-1 $309 -11.329509491209091 $403 11.329509491209091 $308 $451 forward 7 unknown #
vertex $-1 $401 $452 #
straight-curve $-1 -54.496292001098666 -31.730489717464554 0 0 0 -1 I I #
edge $-1 $399 -31.730489717464554 $403 31.730489717464554 $397 $453 forward 7 unknown #
straight-curve $-1 0 -31.730489717464554 -11.329509491209091 -1 0 0 I I #
vertex $-1 $301 $454 #
straight-curve $-1 0 31.730489717464554 -11.329509491209091 1 0 0 I I #
point $-1 54.496292001098666 31.730489717464554 -11.329509491209091 #
point $-1 54.496292001098666 -31.730489717464554 -11.329509491209091 #
straight-curve $-1 -54.496292001098666 0 11.329509491209091 0 -1 0 I I #
point $-1 -54.496292001098666 31.730489717464554 11.329509491209091 #
point $-1 -54.496292001098666 -31.730489717464554 11.329509491209091 #
straight-curve $-1 54.496292001098666 -31.730489717464554 0 0 0 -1 I I #
straight-curve $-1 54.496292001098666 31.730489717464554 0 0 0 -1 I I #
edge $-1 $413 43.705824460624228 $416 53.309541540693488 $319 $455 forward 7 unknown #
vertex $-1 $333 $456 #
straight-curve $-1 -19.478315905624299 48.145529990780766 11.329509491209095 0 1 0 I I #
edge $-1 $416 4.8555803589699895 $330 24.389890734338628 $329 $457 forward 7 unknown #
vertex $-1 $415 $458 #
straight-curve $-1 -19.478315905624299 0.96399725012102522 57.230016143189175 0 -0.48480960649040278 0.87461971476443456 I I #
point $-1 -19.478315905624299 26.407062609847205 11.329509491209095 #
point $-1 -39.01262628099294 31.730489717464554 1.7257924111398282 #
straight-curve $-1 0 31.730489717464554 11.329509491209091 -1 0 0 I I #
vertex $-1 $336 $459 #
point $-1 -31.931394745173328 27.218493827231637 5.5020227423939341 #
vertex $-1 $340 $460 #
point $-1 -23.559547441443911 27.218493827231637 5.5020227423939341 #
edge $-1 $426 34.042278106221218 $429 38.121374996085486 $345 $461 forward 7 unknown #
vertex $-1 $359 $462 #
straight-curve $-1 -45.11035199205044 -50.894786561446487 11.329509491209095 0 -1 0 I I #
edge $-1 $429 -28.571147852883463 $356 -4.507260425450486 $355 $463 forward 7 unknown #
vertex $-1 $428 $464 #
straight-curve $-1 -45.11035199205044 -31.73048971746455 7.25041260134482 0 0.76604443648966558 0.64278761758704617 I I #
point $-1 -45.11035199205044 -26.869211446248215 11.329509491209091 #
point $-1 -21.046464564617462 -31.730489717464554 7.2504126013448174 #
straight-curve $-1 0 -31.730489717464554 11.329509491209091 1 0 0 I I #
vertex $-1 $362 $465 #
point $-1 -36.73495558421245 -27.740246591224871 7.4312974263472151 #
vertex $-1 $366 $466 #
point $-1 -26.421860972455459 -27.740246591224871 7.4312974263472151 #
edge $-1 $439 34.042278106221218 $442 38.121374996085486 $371 $467 forward 7 unknown #
vertex $-1 $385 $468 #
straight-curve $-1 21.046464564617477 -50.894786561446487 11.329509491209095 0 -1 0 I I #
edge $-1 $442 4.5072604254504931 $382 28.57114785288347 $381 $469 forward 7 unknown #
vertex $-1 $441 $470 #
straight-curve $-1 21.046464564617477 -31.73048971746455 7.25041260134482 0 0.76604443648966558 0.64278761758704617 I I #
point $-1 21.046464564617477 -26.869211446248215 11.329509491209091 #
point $-1 45.110351992050454 -31.730489717464554 7.2504126013448174 #
straight-curve $-1 0 -31.730489717464554 11.329509491209091 1 0 0 I I #
vertex $-1 $388 $471 #
point $-1 29.421860972455463 -27.740246591224871 7.4312974263472151 #
vertex $-1 $392 $472 #
point $-1 39.734955584212457 -27.740246591224871 7.4312974263472151 #
straight-curve $-1 -54.496292001098666 31.730489717464554 0 0 0 -1 I I #
point $-1 -54.496292001098666 -31.730489717464554 -11.329509491209091 #
straight-curve $-1 -54.496292001098666 0 -11.329509491209091 0 1 0 I I #
point $-1 -54.496292001098666 31.730489717464554 -11.329509491209091 #
straight-curve $-1 -19.478315905624299 31.73048971746455 55.035333951833316 0 0 -1 I I #
point $-1 -19.478315905624299 31.730489717464554 11.329509491209091 #
straight-curve $-1 -14.62273554665431 31.730489717464554 1.7257924111398175 -1 0 0 I I #
point $-1 -19.478315905624299 31.730489717464554 1.7257924111398282 #
point $-1 -33.431394745173328 25.906564255084984 4.7748083326583304 #
point $-1 -25.059547441443911 25.906564255084984 4.7748083326583304 #
straight-curve $-1 -45.11035199205044 -31.73048971746455 45.371787597430306 0 0 -1 I I #
point $-1 -45.11035199205044 -31.730489717464554 11.329509491209091 #
straight-curve $-1 -16.539204139166976 -31.730489717464554 7.2504126013448147 1 0 0 I I #
point $-1 -45.11035199205044 -31.730489717464554 7.2504126013448174 #
point $-1 -38.23495558421245 -26.776065164844301 6.2822307716127161 #
point $-1 -27.921860972455459 -26.776065164844301 6.2822307716127161 #
straight-curve $-1 21.046464564617477 -31.73048971746455 45.371787597430306 0 0 -1 I I #
point $-1 21.046464564617477 -31.730489717464554 11.329509491209091 #
straight-curve $-1 16.539204139166984 -31.730489717464554 7.2504126013448147 1 0 0 I I #
point $-1 21.046464564617477 -31.730489717464554 7.2504126013448174 #
point $-1 27.921860972455463 -26.776065164844301 6.2822307716127161 #
point $-1 38.234955584212457 -26.776065164844301 6.2822307716127161 #
End-of-ACIS-data 