500 0 17 0           
7 Unknown 11 ACIS 5.0 NT 24 Thu Mar 25 17:28:41 1999 
-1 9.9999999999999995e-007 1e-010 
body $-1 $17 $-1 $18 #
body $-1 $19 $-1 $20 #
body $-1 $21 $-1 $22 #
body $-1 $23 $-1 $24 #
body $-1 $25 $-1 $26 #
body $-1 $27 $-1 $28 #
body $-1 $29 $-1 $30 #
body $-1 $31 $-1 $32 #
body $-1 $33 $-1 $34 #
body $-1 $35 $-1 $36 #
body $-1 $37 $-1 $38 #
body $-1 $39 $-1 $40 #
body $-1 $41 $-1 $42 #
body $-1 $43 $-1 $44 #
body $-1 $45 $-1 $46 #
body $-1 $47 $-1 $48 #
body $-1 $49 $-1 $50 #
lump $-1 $-1 $51 $0 #
transform $-1 1 0 0 0 1 0 0 0 1 71.952879421369062 32.396472691407268 8.1922035301898699 1 rotate no_reflect no_shear #
lump $-1 $-1 $52 $1 #
transform $-1 1 0 0 0 1 0 0 0 1 71.952879421369062 32.396472691407268 8.1922035301898699 1 rotate no_reflect no_shear #
lump $-1 $-1 $53 $2 #
transform $-1 1 0 0 0 1 0 0 0 1 71.952879421369062 32.396472691407268 8.1922035301898699 1 rotate no_reflect no_shear #
lump $-1 $-1 $54 $3 #
transform $-1 1 0 0 0 1 0 0 0 1 71.952879421369062 32.396472691407268 8.1922035301898699 1 rotate no_reflect no_shear #
lump $-1 $-1 $55 $4 #
transform $-1 1 0 0 0 1 0 0 0 1 71.952879421369062 32.396472691407268 8.1922035301898699 1 rotate no_reflect no_shear #
lump $-1 $-1 $56 $5 #
transform $-1 1 0 0 0 1 0 0 0 1 71.952879421369062 32.396472691407268 8.1922035301898699 1 rotate no_reflect no_shear #
lump $-1 $-1 $57 $6 #
transform $-1 1 0 0 0 1 0 0 0 1 71.952879421369062 32.396472691407268 8.1922035301898699 1 rotate no_reflect no_shear #
lump $-1 $-1 $58 $7 #
transform $-1 1 0 0 0 1 0 0 0 1 71.952879421369062 32.396472691407268 8.1922035301898699 1 rotate no_reflect no_shear #
lump $-1 $-1 $59 $8 #
transform $-1 1 0 0 0 1 0 0 0 1 71.952879421369062 32.396472691407268 8.1922035301898699 1 rotate no_reflect no_shear #
lump $-1 $-1 $60 $9 #
transform $-1 1 0 0 0 1 0 0 0 1 71.952879421369062 32.396472691407268 8.1922035301898699 1 rotate no_reflect no_shear #
lump $-1 $-1 $61 $10 #
transform $-1 1 0 0 0 1 0 0 0 1 71.952879421369062 32.396472691407268 8.1922035301898699 1 rotate no_reflect no_shear #
lump $-1 $-1 $62 $11 #
transform $-1 1 0 0 0 1 0 0 0 1 71.952879421369062 32.396472691407268 8.1922035301898699 1 rotate no_reflect no_shear #
lump $-1 $-1 $63 $12 #
transform $-1 1 0 0 0 1 0 0 0 1 71.952879421369062 32.396472691407268 8.1922035301898699 1 rotate no_reflect no_shear #
lump $-1 $-1 $64 $13 #
transform $-1 1 0 0 0 1 0 0 0 1 71.952879421369062 32.396472691407268 8.1922035301898699 1 rotate no_reflect no_shear #
lump $-1 $-1 $65 $14 #
transform $-1 1 0 0 0 1 0 0 0 1 71.952879421369062 32.396472691407268 8.1922035301898699 1 rotate no_reflect no_shear #
lump $-1 $-1 $66 $15 #
transform $-1 1 0 0 0 1 0 0 0 1 71.952879421369062 32.396472691407268 8.1922035301898699 1 rotate no_reflect no_shear #
lump $-1 $-1 $67 $16 #
transform $-1 1 0 0 0 1 0 0 0 1 71.952879421369062 32.396472691407268 8.1922035301898699 1 rotate no_reflect no_shear #
shell $-1 $-1 $-1 $68 $-1 $17 #
shell $-1 $-1 $-1 $69 $-1 $19 #
shell $-1 $-1 $-1 $70 $-1 $21 #
shell $-1 $-1 $-1 $71 $-1 $23 #
shell $-1 $-1 $-1 $72 $-1 $25 #
shell $-1 $-1 $-1 $73 $-1 $27 #
shell $-1 $-1 $-1 $74 $-1 $29 #
shell $-1 $-1 $-1 $75 $-1 $31 #
shell $-1 $-1 $-1 $76 $-1 $33 #
shell $-1 $-1 $-1 $77 $-1 $35 #
shell $-1 $-1 $-1 $78 $-1 $37 #
shell $-1 $-1 $-1 $79 $-1 $39 #
shell $-1 $-1 $-1 $80 $-1 $41 #
shell $-1 $-1 $-1 $81 $-1 $43 #
shell $-1 $-1 $-1 $82 $-1 $45 #
shell $-1 $-1 $-1 $83 $-1 $47 #
shell $-1 $-1 $-1 $84 $-1 $49 #
face $-1 $85 $86 $51 $-1 $87 forward single #
face $-1 $88 $89 $52 $-1 $90 forward single #
face $-1 $91 $92 $53 $-1 $93 reversed single #
face $-1 $94 $95 $54 $-1 $96 forward single #
face $-1 $97 $98 $55 $-1 $99 forward single #
face $-1 $100 $101 $56 $-1 $102 reversed single #
face $-1 $103 $104 $57 $-1 $105 forward single #
face $-1 $106 $107 $58 $-1 $108 forward single #
face $-1 $109 $110 $59 $-1 $111 reversed single #
face $-1 $112 $113 $60 $-1 $114 forward single #
face $-1 $115 $116 $61 $-1 $117 forward single #
face $-1 $118 $119 $62 $-1 $120 reversed single #
face $-1 $121 $122 $63 $-1 $123 forward single #
face $-1 $124 $125 $64 $-1 $126 forward single #
face $-1 $127 $128 $65 $-1 $129 reversed single #
face $-1 $130 $131 $66 $-1 $132 forward single #
face $-1 $133 $134 $67 $-1 $135 forward single #
face $-1 $136 $137 $51 $-1 $138 reversed single #
loop $-1 $-1 $139 $68 #
plane-surface $-1 0 0 8.1922035301898699 0 0 1 1 0 0 forward_v I I I I #
face $-1 $140 $141 $52 $-1 $142 reversed single #
loop $-1 $-1 $143 $69 #
plane-surface $-1 -68.698156736026746 0 -3.9520820715481602 0 0 1 1 0 0 forward_v I I I I #
face $-1 $144 $145 $53 $-1 $146 reversed single #
loop $-1 $-1 $147 $70 #
plane-surface $-1 -50.959531863213556 -124.89731257498693 111.46657477986822 1 0 0 0 0.64278761758704617 -0.76604443648966558 forward_v I I I I #
face $-1 $148 $149 $54 $-1 $150 forward single #
loop $-1 $151 $152 $71 #
cone-surface $-1 -41.62598234809402 -26.851509232293076 3.0473418102611212 0 0.64278761758704617 -0.76604443648966558 2.5 0 0 1 I I 0 1 2.5 forward I I I I #
face $-1 $153 $154 $55 $-1 $155 forward single #
loop $-1 $156 $157 $72 #
cone-surface $-1 -27.625658075414705 -26.851509232293076 3.0473418102611212 0 0.64278761758704617 -0.76604443648966558 2.5 0 0 1 I I 0 1 2.5 forward I I I I #
face $-1 $158 $159 $56 $-1 $160 reversed single #
loop $-1 $-1 $161 $73 #
plane-surface $-1 -65.443434050684417 103.45673213384686 145.02617812654469 1 0 0 0 -0.77714596973225614 -0.62932038083071107 forward_v I I I I #
face $-1 $162 $163 $57 $-1 $164 forward single #
loop $-1 $165 $166 $74 #
cone-surface $-1 -60.216846394453476 29.968530382509691 5.5234069183066214 0 -0.77714596973225614 -0.62932038083071107 1 0 0 1 I I 0 1 1 forward I I I I #
face $-1 $167 $168 $58 $-1 $169 forward single #
loop $-1 $170 $171 $75 #
cone-surface $-1 -52.376964910107063 29.968530382509691 5.5234069183066214 0 -0.77714596973225614 -0.62932038083071107 1 0 0 1 I I 0 1 1 forward I I I I #
face $-1 $172 $173 $59 $-1 $174 reversed single #
loop $-1 $-1 $175 $76 #
plane-surface $-1 -25.742348492269347 103.45673213384686 145.02617812654469 1 0 0 0 -0.77714596973225614 -0.62932038083071107 forward_v I I I I #
face $-1 $176 $177 $60 $-1 $178 forward single #
loop $-1 $179 $180 $77 #
cone-surface $-1 -20.51576083603841 29.968530382509691 5.5234069183066214 0 -0.77714596973225614 -0.62932038083071107 1 0 0 1 I I 0 1 1 forward I I I I #
face $-1 $181 $182 $61 $-1 $183 forward single #
loop $-1 $184 $185 $78 #
cone-surface $-1 -12.675879351691997 29.968530382509691 5.5234069183066214 0 -0.77714596973225614 -0.62932038083071107 1 0 0 1 I I 0 1 1 forward I I I I #
face $-1 $186 $187 $62 $-1 $188 reversed single #
loop $-1 $-1 $189 $79 #
plane-surface $-1 13.958737066145712 103.45673213384686 145.02617812654469 1 0 0 0 -0.77714596973225614 -0.62932038083071107 forward_v I I I I #
face $-1 $190 $191 $63 $-1 $192 forward single #
loop $-1 $193 $194 $80 #
cone-surface $-1 19.185324722376663 29.968530382509691 5.5234069183066214 0 -0.77714596973225614 -0.62932038083071107 1 0 0 1 I I 0 1 1 forward I I I I #
face $-1 $195 $196 $64 $-1 $197 forward single #
loop $-1 $198 $199 $81 #
cone-surface $-1 27.02520620672307 29.968530382509691 5.5234069183066214 0 -0.77714596973225614 -0.62932038083071107 1 0 0 1 I I 0 1 1 forward I I I I #
face $-1 $200 $201 $65 $-1 $202 reversed single #
loop $-1 $-1 $203 $82 #
plane-surface $-1 53.659822624560775 103.45673213384686 145.02617812654469 1 0 0 0 -0.77714596973225614 -0.62932038083071107 forward_v I I I I #
face $-1 $204 $205 $66 $-1 $206 forward single #
loop $-1 $207 $208 $83 #
cone-surface $-1 58.886410280791722 29.968530382509691 5.5234069183066214 0 -0.77714596973225614 -0.62932038083071107 1 0 0 1 I I 0 1 1 forward I I I I #
face $-1 $209 $210 $67 $-1 $211 forward single #
loop $-1 $212 $213 $84 #
cone-surface $-1 66.726291765138143 29.968530382509691 5.5234069183066214 0 -0.77714596973225614 -0.62932038083071107 1 0 0 1 I I 0 1 1 forward I I I I #
face $-1 $214 $215 $51 $-1 $216 reversed single #
loop $-1 $-1 $217 $85 #
plane-surface $-1 0 0 -8.1922035301898699 0 0 1 1 0 0 forward_v I I I I #
coedge $-1 $218 $219 $220 $221 forward $86 $-1 #
face $-1 $222 $223 $52 $-1 $224 reversed single #
loop $-1 $-1 $225 $88 #
plane-surface $-1 -68.698156736026746 0 -6.9520820715481602 0 0 1 1 0 0 forward_v I I I I #
coedge $-1 $226 $227 $228 $229 forward $89 $-1 #
face $-1 $230 $231 $53 $-1 $232 reversed single #
loop $-1 $-1 $233 $91 #
plane-surface $-1 -34.625820211754359 -32.396472691407283 1.2283688395651922 0 -0.64278761758704617 0.76604443648966558 1 0 0 forward_v I I I I #
coedge $-1 $234 $235 $236 $237 reversed $92 $-1 #
face $-1 $-1 $238 $54 $-1 $239 forward single #
loop $-1 $240 $241 $94 #
cone-surface $-1 -41.62598234809402 -24.652648669674221 0.42684189003264095 0 0.64278761758704617 -0.76604443648966558 1.25 0 0 1 I I -0.70710678118654746 0.70710678118654746 1.25 forward I I I I #
loop $-1 $-1 $242 $71 #
coedge $-1 $152 $152 $243 $244 reversed $95 $-1 #
face $-1 $-1 $245 $55 $-1 $246 forward single #
loop $-1 $247 $248 $97 #
cone-surface $-1 -27.625658075414705 -24.652648669674221 0.42684189003264095 0 0.64278761758704617 -0.76604443648966558 1.25 0 0 1 I I -0.70710678118654746 0.70710678118654746 1.25 forward I I I I #
loop $-1 $-1 $249 $72 #
coedge $-1 $157 $157 $250 $251 reversed $98 $-1 #
face $-1 $252 $253 $56 $-1 $254 reversed single #
loop $-1 $-1 $255 $100 #
plane-surface $-1 -56.296905652280273 -8.3790483720490556 54.463351167900271 0 0.77714596973225614 0.62932038083071107 1 0 0 forward_v I I I I #
coedge $-1 $256 $257 $258 $259 reversed $101 $-1 #
face $-1 $-1 $260 $57 $-1 $261 forward single #
loop $-1 $262 $263 $103 #
cone-surface $-1 -60.216846394453476 28.804957846877365 4.581164482821082 0 -0.77714596973225614 -0.62932038083071107 0.5 0 0 1 I I -0.70710678118654746 0.70710678118654746 0.5 forward I I I I #
loop $-1 $-1 $264 $74 #
coedge $-1 $166 $166 $265 $266 reversed $104 $-1 #
face $-1 $-1 $267 $58 $-1 $268 forward single #
loop $-1 $269 $270 $106 #
cone-surface $-1 -52.376964910107063 28.804957846877365 4.581164482821082 0 -0.77714596973225614 -0.62932038083071107 0.5 0 0 1 I I -0.70710678118654746 0.70710678118654746 0.5 forward I I I I #
loop $-1 $-1 $271 $75 #
coedge $-1 $171 $171 $272 $273 reversed $107 $-1 #
face $-1 $274 $275 $59 $-1 $276 reversed single #
loop $-1 $-1 $277 $109 #
plane-surface $-1 -16.5958200938652 -8.3790483720490556 54.463351167900271 0 0.77714596973225614 0.62932038083071107 1 0 0 forward_v I I I I #
coedge $-1 $278 $279 $280 $281 reversed $110 $-1 #
face $-1 $-1 $282 $60 $-1 $283 forward single #
loop $-1 $284 $285 $112 #
cone-surface $-1 -20.51576083603841 28.804957846877365 4.581164482821082 0 -0.77714596973225614 -0.62932038083071107 0.5 0 0 1 I I -0.70710678118654746 0.70710678118654746 0.5 forward I I I I #
loop $-1 $-1 $286 $77 #
coedge $-1 $180 $180 $287 $288 reversed $113 $-1 #
face $-1 $-1 $289 $61 $-1 $290 forward single #
loop $-1 $291 $292 $115 #
cone-surface $-1 -12.675879351691997 28.804957846877365 4.581164482821082 0 -0.77714596973225614 -0.62932038083071107 0.5 0 0 1 I I -0.70710678118654746 0.70710678118654746 0.5 forward I I I I #
loop $-1 $-1 $293 $78 #
coedge $-1 $185 $185 $294 $295 reversed $116 $-1 #
face $-1 $296 $297 $62 $-1 $298 reversed single #
loop $-1 $-1 $299 $118 #
plane-surface $-1 23.105265464549859 -8.3790483720490556 54.463351167900271 0 0.77714596973225614 0.62932038083071107 1 0 0 forward_v I I I I #
coedge $-1 $300 $301 $302 $303 reversed $119 $-1 #
face $-1 $-1 $304 $63 $-1 $305 forward single #
loop $-1 $306 $307 $121 #
cone-surface $-1 19.185324722376663 28.804957846877365 4.581164482821082 0 -0.77714596973225614 -0.62932038083071107 0.5 0 0 1 I I -0.70710678118654746 0.70710678118654746 0.5 forward I I I I #
loop $-1 $-1 $308 $80 #
coedge $-1 $194 $194 $309 $310 reversed $122 $-1 #
face $-1 $-1 $311 $64 $-1 $312 forward single #
loop $-1 $313 $314 $124 #
cone-surface $-1 27.02520620672307 28.804957846877365 4.581164482821082 0 -0.77714596973225614 -0.62932038083071107 0.5 0 0 1 I I -0.70710678118654746 0.70710678118654746 0.5 forward I I I I #
loop $-1 $-1 $315 $81 #
coedge $-1 $199 $199 $316 $317 reversed $125 $-1 #
face $-1 $318 $319 $65 $-1 $320 forward single #
loop $-1 $-1 $321 $127 #
plane-surface $-1 62.806351022964918 -8.3790483720490556 54.463351167900271 0 0.77714596973225614 0.62932038083071107 1 0 0 forward_v I I I I #
coedge $-1 $322 $323 $324 $325 reversed $128 $-1 #
face $-1 $-1 $326 $66 $-1 $327 forward single #
loop $-1 $328 $329 $130 #
cone-surface $-1 58.886410280791722 28.804957846877365 4.581164482821082 0 -0.77714596973225614 -0.62932038083071107 0.5 0 0 1 I I -0.70710678118654746 0.70710678118654746 0.5 forward I I I I #
loop $-1 $-1 $330 $83 #
coedge $-1 $208 $208 $331 $332 reversed $131 $-1 #
face $-1 $-1 $333 $67 $-1 $334 forward single #
loop $-1 $335 $336 $133 #
cone-surface $-1 66.726291765138143 28.804957846877365 4.581164482821082 0 -0.77714596973225614 -0.62932038083071107 0.5 0 0 1 I I -0.70710678118654746 0.70710678118654746 0.5 forward I I I I #
loop $-1 $-1 $337 $84 #
coedge $-1 $213 $213 $338 $339 reversed $134 $-1 #
face $-1 $340 $341 $51 $-1 $342 reversed single #
loop $-1 $-1 $343 $136 #
plane-surface $-1 0 -32.396472691407268 0 0 1 0 0 0 1 forward_v I I I I #
coedge $-1 $344 $345 $346 $347 forward $137 $-1 #
coedge $-1 $348 $139 $349 $350 forward $86 $-1 #
coedge $-1 $139 $348 $351 $352 forward $86 $-1 #
coedge $-1 $353 $354 $139 $221 reversed $355 $-1 #
edge $-1 $356 -32.396472691407268 $357 32.396472691407268 $220 $358 forward 7 unknown #
face $-1 $359 $360 $52 $-1 $361 reversed single #
loop $-1 $-1 $362 $140 #
plane-surface $-1 -65.443434050684431 0 -5.4520820715481602 -1 0 0 0 0 1 forward_v I I I I #
coedge $-1 $363 $364 $365 $366 forward $141 $-1 #
coedge $-1 $367 $143 $368 $369 reversed $89 $-1 #
coedge $-1 $143 $367 $370 $371 reversed $89 $-1 #
coedge $-1 $362 $372 $143 $229 reversed $223 $-1 #
edge $-1 $373 -32.396472691407268 $374 32.396472691407268 $228 $375 forward 7 unknown #
face $-1 $376 $377 $53 $-1 $378 forward single #
loop $-1 $-1 $379 $144 #
plane-surface $-1 -18.292108560295162 -124.89731257498693 111.46657477986822 -1 0 0 0 -0.64278761758704617 0.76604443648966558 forward_v I I I I #
coedge $-1 $380 $381 $382 $383 reversed $145 $-1 #
coedge $-1 $235 $147 $384 $385 reversed $92 $-1 #
coedge $-1 $147 $234 $380 $386 reversed $92 $-1 #
coedge $-1 $382 $387 $147 $237 forward $388 $-1 #
edge $-1 $389 47.541083859744241 $390 54.504918550368906 $236 $391 forward 7 unknown #
loop $-1 $-1 $243 $148 #
plane-surface $-1 -34.625820211754359 -32.396472691407283 1.2283688395651922 0 -0.64278761758704617 0.76604443648966558 1 0 0 forward_v I I I I #
loop $-1 $-1 $392 $94 #
coedge $-1 $241 $241 $242 $393 reversed $149 $-1 #
coedge $-1 $242 $242 $241 $393 forward $151 $-1 #
coedge $-1 $243 $243 $152 $244 forward $238 $-1 #
edge $-1 $394 -3.76637715844896e-017 $394 6.2831853071796004 $243 $395 forward 7 unknown #
loop $-1 $-1 $250 $153 #
plane-surface $-1 -34.625820211754359 -32.396472691407283 1.2283688395651922 0 -0.64278761758704617 0.76604443648966558 1 0 0 forward_v I I I I #
loop $-1 $-1 $396 $97 #
coedge $-1 $248 $248 $249 $397 reversed $154 $-1 #
coedge $-1 $249 $249 $248 $397 forward $156 $-1 #
coedge $-1 $250 $250 $157 $251 forward $245 $-1 #
edge $-1 $398 -3.76637715844896e-017 $398 6.2831853071796004 $250 $399 forward 7 unknown #
face $-1 $400 $401 $56 $-1 $402 reversed single #
loop $-1 $-1 $403 $158 #
plane-surface $-1 -47.15037725387613 103.45673213384686 145.02617812654469 -1 0 0 0 0.77714596973225614 0.62932038083071107 forward_v I I I I #
coedge $-1 $404 $405 $406 $407 reversed $159 $-1 #
coedge $-1 $257 $161 $408 $409 reversed $101 $-1 #
coedge $-1 $161 $256 $404 $410 reversed $101 $-1 #
coedge $-1 $406 $411 $161 $259 forward $412 $-1 #
edge $-1 $413 19.331893375516159 $414 22.637778891778908 $258 $415 forward 7 unknown #
loop $-1 $-1 $265 $162 #
plane-surface $-1 -56.296905652280273 -8.3790483720490556 54.463351167900271 0 0.77714596973225614 0.62932038083071107 1 0 0 forward_v I I I I #
loop $-1 $-1 $416 $103 #
coedge $-1 $263 $263 $264 $417 reversed $163 $-1 #
coedge $-1 $264 $264 $263 $417 forward $165 $-1 #
coedge $-1 $265 $265 $166 $266 forward $260 $-1 #
edge $-1 $418 -8.5530656677897454e-016 $418 6.2831853071795996 $265 $419 forward 7 unknown #
loop $-1 $-1 $272 $167 #
plane-surface $-1 -56.296905652280273 -8.3790483720490556 54.463351167900271 0 0.77714596973225614 0.62932038083071107 1 0 0 forward_v I I I I #
loop $-1 $-1 $420 $106 #
coedge $-1 $270 $270 $271 $421 reversed $168 $-1 #
coedge $-1 $271 $271 $270 $421 forward $170 $-1 #
coedge $-1 $272 $272 $171 $273 forward $267 $-1 #
edge $-1 $422 -8.5530656677897454e-016 $422 6.2831853071795996 $272 $423 forward 7 unknown #
face $-1 $424 $425 $59 $-1 $426 forward single #
loop $-1 $-1 $427 $172 #
plane-surface $-1 -7.4492916954610529 103.45673213384686 145.02617812654469 -1 0 0 0 0.77714596973225614 0.62932038083071107 forward_v I I I I #
coedge $-1 $428 $429 $430 $431 reversed $173 $-1 #
coedge $-1 $279 $175 $432 $433 reversed $110 $-1 #
coedge $-1 $175 $278 $428 $434 reversed $110 $-1 #
coedge $-1 $430 $435 $175 $281 forward $425 $-1 #
edge $-1 $436 19.331893375516159 $437 22.637778891778908 $280 $438 forward 7 unknown #
loop $-1 $-1 $287 $176 #
plane-surface $-1 -16.5958200938652 -8.3790483720490556 54.463351167900271 0 0.77714596973225614 0.62932038083071107 1 0 0 forward_v I I I I #
loop $-1 $-1 $439 $112 #
coedge $-1 $285 $285 $286 $440 reversed $177 $-1 #
coedge $-1 $286 $286 $285 $440 forward $179 $-1 #
coedge $-1 $287 $287 $180 $288 forward $282 $-1 #
edge $-1 $441 -8.5530656677897454e-016 $441 6.2831853071795996 $287 $442 forward 7 unknown #
loop $-1 $-1 $294 $181 #
plane-surface $-1 -16.5958200938652 -8.3790483720490556 54.463351167900271 0 0.77714596973225614 0.62932038083071107 1 0 0 forward_v I I I I #
loop $-1 $-1 $443 $115 #
coedge $-1 $292 $292 $293 $444 reversed $182 $-1 #
coedge $-1 $293 $293 $292 $444 forward $184 $-1 #
coedge $-1 $294 $294 $185 $295 forward $289 $-1 #
edge $-1 $445 -8.5530656677897454e-016 $445 6.2831853071795996 $294 $446 forward 7 unknown #
face $-1 $447 $448 $62 $-1 $449 forward single #
loop $-1 $-1 $450 $186 #
plane-surface $-1 32.251793862954003 103.45673213384686 145.02617812654469 -1 0 0 0 0.77714596973225614 0.62932038083071107 forward_v I I I I #
coedge $-1 $451 $452 $453 $454 reversed $187 $-1 #
coedge $-1 $301 $189 $455 $456 reversed $119 $-1 #
coedge $-1 $189 $300 $451 $457 reversed $119 $-1 #
coedge $-1 $453 $458 $189 $303 forward $448 $-1 #
edge $-1 $459 19.331893375516159 $460 22.637778891778908 $302 $461 forward 7 unknown #
loop $-1 $-1 $309 $190 #
plane-surface $-1 23.105265464549859 -8.3790483720490556 54.463351167900271 0 0.77714596973225614 0.62932038083071107 1 0 0 forward_v I I I I #
loop $-1 $-1 $462 $121 #
coedge $-1 $307 $307 $308 $463 reversed $191 $-1 #
coedge $-1 $308 $308 $307 $463 forward $193 $-1 #
coedge $-1 $309 $309 $194 $310 forward $304 $-1 #
edge $-1 $464 -8.5530656677897454e-016 $464 6.2831853071795996 $309 $465 forward 7 unknown #
loop $-1 $-1 $316 $195 #
plane-surface $-1 23.105265464549859 -8.3790483720490556 54.463351167900271 0 0.77714596973225614 0.62932038083071107 1 0 0 forward_v I I I I #
loop $-1 $-1 $466 $124 #
coedge $-1 $314 $314 $315 $467 reversed $196 $-1 #
coedge $-1 $315 $315 $314 $467 forward $198 $-1 #
coedge $-1 $316 $316 $199 $317 forward $311 $-1 #
edge $-1 $468 -8.5530656677897454e-016 $468 6.2831853071795996 $316 $469 forward 7 unknown #
face $-1 $470 $471 $65 $-1 $472 reversed single #
loop $-1 $-1 $324 $200 #
plane-surface $-1 0 0 8.1922035301898699 0 0 1 1 0 0 forward_v I I I I #
coedge $-1 $473 $474 $475 $476 reversed $201 $-1 #
coedge $-1 $323 $203 $477 $478 reversed $128 $-1 #
coedge $-1 $203 $322 $473 $479 reversed $128 $-1 #
coedge $-1 $475 $480 $203 $325 forward $319 $-1 #
edge $-1 $481 19.331893375516159 $482 22.637778891778908 $324 $483 forward 7 unknown #
loop $-1 $-1 $331 $204 #
plane-surface $-1 62.806351022964918 -8.3790483720490556 54.463351167900271 0 0.77714596973225614 0.62932038083071107 1 0 0 forward_v I I I I #
loop $-1 $-1 $484 $130 #
coedge $-1 $329 $329 $330 $485 reversed $205 $-1 #
coedge $-1 $330 $330 $329 $485 forward $207 $-1 #
coedge $-1 $331 $331 $208 $332 forward $326 $-1 #
edge $-1 $486 -8.5530656677897454e-016 $486 6.2831853071795996 $331 $487 forward 7 unknown #
loop $-1 $-1 $338 $209 #
plane-surface $-1 62.806351022964918 -8.3790483720490556 54.463351167900271 0 0.77714596973225614 0.62932038083071107 1 0 0 forward_v I I I I #
loop $-1 $-1 $488 $133 #
coedge $-1 $336 $336 $337 $489 reversed $210 $-1 #
coedge $-1 $337 $337 $336 $489 forward $212 $-1 #
coedge $-1 $338 $338 $213 $339 forward $333 $-1 #
edge $-1 $490 -8.5530656677897454e-016 $490 6.2831853071795996 $338 $491 forward 7 unknown #
face $-1 $492 $493 $51 $-1 $494 reversed single #
loop $-1 $-1 $495 $214 #
plane-surface $-1 -71.952879421369062 0 0 1 0 0 0 0 -1 forward_v I I I I #
coedge $-1 $496 $351 $497 $498 forward $215 $-1 #
coedge $-1 $499 $217 $496 $500 forward $137 $-1 #
coedge $-1 $217 $499 $501 $502 forward $137 $-1 #
coedge $-1 $354 $353 $217 $347 reversed $355 $-1 #
edge $-1 $503 -32.396472691407268 $504 32.396472691407268 $346 $505 forward 7 unknown #
coedge $-1 $219 $218 $506 $507 forward $86 $-1 #
coedge $-1 $508 $509 $218 $350 reversed $493 $-1 #
edge $-1 $357 -71.952879421369062 $510 71.952879421369062 $349 $511 forward 7 unknown #
coedge $-1 $343 $512 $219 $352 reversed $215 $-1 #
edge $-1 $513 -71.952879421369062 $356 71.952879421369062 $351 $514 forward 7 unknown #
coedge $-1 $346 $220 $512 $515 forward $355 $-1 #
coedge $-1 $220 $346 $508 $516 reversed $355 $-1 #
loop $-1 $-1 $353 $492 #
vertex $-1 $221 $517 #
vertex $-1 $221 $518 #
straight-curve $-1 71.952879421369062 0 8.1922035301898699 0 1 0 I I #
face $-1 $519 $520 $52 $-1 $521 reversed single #
loop $-1 $-1 $522 $222 #
plane-surface $-1 0 -32.396472691407268 0 0 1 0 0 0 1 forward_v I I I I #
coedge $-1 $365 $228 $523 $524 reversed $223 $-1 #
coedge $-1 $525 $225 $522 $526 reversed $141 $-1 #
coedge $-1 $225 $525 $527 $528 reversed $141 $-1 #
coedge $-1 $372 $362 $225 $366 reversed $223 $-1 #
edge $-1 $529 -32.396472691407268 $530 32.396472691407268 $365 $531 forward 7 unknown #
coedge $-1 $227 $226 $532 $533 reversed $89 $-1 #
coedge $-1 $534 $535 $226 $369 forward $536 $-1 #
edge $-1 $537 -37.603801053355689 $374 -31.094355682671058 $368 $538 forward 7 unknown #
coedge $-1 $539 $523 $227 $371 forward $360 $-1 #
edge $-1 $373 31.094355682671058 $540 37.603801053355689 $370 $541 forward 7 unknown #
coedge $-1 $228 $365 $534 $542 reversed $223 $-1 #
vertex $-1 $371 $543 #
vertex $-1 $369 $544 #
straight-curve $-1 -65.443434050684431 0 -3.9520820715481602 0 1 0 I I #
face $-1 $-1 $388 $53 $-1 $545 reversed single #
loop $-1 $-1 $546 $230 #
plane-surface $-1 0 0 8.1922035301898699 0 0 1 1 0 0 forward_v I I I I #
coedge $-1 $547 $548 $549 $550 reversed $231 $-1 #
coedge $-1 $551 $233 $235 $386 forward $145 $-1 #
coedge $-1 $233 $551 $547 $552 forward $145 $-1 #
coedge $-1 $549 $236 $233 $383 forward $388 $-1 #
edge $-1 $390 -33.646621757336376 $553 -0.97919845441798259 $382 $554 forward 7 unknown #
coedge $-1 $555 $556 $234 $385 forward $377 $-1 #
edge $-1 $557 -38.351358433044446 $389 -30.052183596086195 $384 $558 forward 7 unknown #
edge $-1 $390 1.8593432412625586e-014 $557 10.833803421363568 $235 $559 forward 7 unknown #
coedge $-1 $236 $549 $555 $560 reversed $388 $-1 #
loop $-1 $-1 $549 $376 #
vertex $-1 $560 $561 #
vertex $-1 $237 $562 #
straight-curve $-1 -50.959531863213556 -32.396472691407268 55.733287389934112 0 0 -1 I I #
coedge $-1 $392 $392 $-1 $563 reversed $240 $-1 #
edge $-1 $564 0 $564 6.2831853071796004 $241 $565 forward 7 unknown #
vertex $-1 $244 $566 #
ellipse-curve $-1 -41.62598234809402 -28.246885272928139 4.7102861848775399 0 -0.64278761758704617 0.76604443648966558 2.5 0 0 1 I I #
coedge $-1 $396 $396 $-1 $567 reversed $247 $-1 #
edge $-1 $568 0 $568 6.2831853071796004 $248 $569 forward 7 unknown #
vertex $-1 $251 $570 #
ellipse-curve $-1 -27.625658075414705 -28.246885272928139 4.7102861848775399 0 -0.64278761758704617 0.76604443648966558 2.5 0 0 1 I I #
face $-1 $-1 $412 $56 $-1 $571 forward single #
loop $-1 $-1 $572 $252 #
plane-surface $-1 0 32.396472691407268 0 0 -1 0 0 0 -1 forward_v I I I I #
coedge $-1 $573 $574 $575 $576 reversed $253 $-1 #
coedge $-1 $577 $255 $257 $410 forward $159 $-1 #
coedge $-1 $255 $577 $573 $578 forward $159 $-1 #
coedge $-1 $575 $258 $255 $407 forward $412 $-1 #
edge $-1 $414 -37.29498122454428 $579 -19.001924427735993 $406 $580 forward 7 unknown #
coedge $-1 $581 $582 $256 $409 forward $401 $-1 #
edge $-1 $583 -68.403314266708605 $413 -64.320885533082475 $408 $584 forward 7 unknown #
edge $-1 $414 59.539841213680653 $583 64.792945382814565 $257 $585 forward 7 unknown #
coedge $-1 $258 $575 $581 $586 forward $412 $-1 #
loop $-1 $-1 $575 $400 #
vertex $-1 $409 $587 #
vertex $-1 $259 $588 #
straight-curve $-1 -65.443434050684417 51.728366066923428 8.1922035301898717 0 -1 0 I I #
coedge $-1 $416 $416 $-1 $589 reversed $262 $-1 #
edge $-1 $590 0 $590 6.2831853071796004 $263 $591 forward 7 unknown #
vertex $-1 $266 $592 #
ellipse-curve $-1 -60.216846394453476 30.743529933275894 6.1509891633768081 0 0.77714596973225614 0.62932038083071107 1 0 0 1 I I #
coedge $-1 $420 $420 $-1 $593 reversed $269 $-1 #
edge $-1 $594 0 $594 6.2831853071796004 $270 $595 forward 7 unknown #
vertex $-1 $273 $596 #
ellipse-curve $-1 -52.376964910107063 30.743529933275894 6.1509891633768081 0 0.77714596973225614 0.62932038083071107 1 0 0 1 I I #
face $-1 $-1 $597 $59 $-1 $598 reversed single #
loop $-1 $-1 $280 $274 #
plane-surface $-1 0 0 8.1922035301898699 0 0 1 1 0 0 forward_v I I I I #
coedge $-1 $599 $600 $601 $602 reversed $275 $-1 #
coedge $-1 $603 $277 $279 $434 forward $173 $-1 #
coedge $-1 $277 $603 $599 $604 forward $173 $-1 #
coedge $-1 $601 $280 $277 $431 forward $425 $-1 #
edge $-1 $437 -17.444438445336747 $605 0.84861835147154707 $430 $606 forward 7 unknown #
coedge $-1 $607 $608 $278 $433 forward $597 $-1 #
edge $-1 $609 -68.403314266708605 $436 -64.320885533082475 $432 $610 forward 7 unknown #
edge $-1 $437 59.539841213680653 $609 64.792945382814565 $279 $611 forward 7 unknown #
coedge $-1 $280 $601 $607 $612 forward $425 $-1 #
vertex $-1 $281 $613 #
vertex $-1 $281 $614 #
straight-curve $-1 -25.742348492269347 51.728366066923428 8.1922035301898717 0 -1 0 I I #
coedge $-1 $439 $439 $-1 $615 reversed $284 $-1 #
edge $-1 $616 0 $616 6.2831853071796004 $285 $617 forward 7 unknown #
vertex $-1 $288 $618 #
ellipse-curve $-1 -20.51576083603841 30.743529933275894 6.1509891633768081 0 0.77714596973225614 0.62932038083071107 1 0 0 1 I I #
coedge $-1 $443 $443 $-1 $619 reversed $291 $-1 #
edge $-1 $620 0 $620 6.2831853071796004 $292 $621 forward 7 unknown #
vertex $-1 $295 $622 #
ellipse-curve $-1 -12.675879351691997 30.743529933275894 6.1509891633768081 0 0.77714596973225614 0.62932038083071107 1 0 0 1 I I #
face $-1 $-1 $623 $62 $-1 $624 reversed single #
loop $-1 $-1 $302 $296 #
plane-surface $-1 0 0 8.1922035301898699 0 0 1 1 0 0 forward_v I I I I #
coedge $-1 $625 $626 $627 $628 reversed $297 $-1 #
coedge $-1 $629 $299 $301 $457 forward $187 $-1 #
coedge $-1 $299 $629 $625 $630 forward $187 $-1 #
coedge $-1 $627 $302 $299 $454 forward $448 $-1 #
edge $-1 $460 2.4061043338707826 $631 20.699161130679073 $453 $632 forward 7 unknown #
coedge $-1 $633 $634 $300 $456 forward $623 $-1 #
edge $-1 $635 -68.403314266708605 $459 -64.320885533082475 $455 $636 forward 7 unknown #
edge $-1 $460 59.539841213680653 $635 64.792945382814565 $301 $637 forward 7 unknown #
coedge $-1 $302 $627 $633 $638 forward $448 $-1 #
vertex $-1 $303 $639 #
vertex $-1 $303 $640 #
straight-curve $-1 13.958737066145712 51.728366066923428 8.1922035301898717 0 -1 0 I I #
coedge $-1 $462 $462 $-1 $641 reversed $306 $-1 #
edge $-1 $642 0 $642 6.2831853071796004 $307 $643 forward 7 unknown #
vertex $-1 $310 $644 #
ellipse-curve $-1 19.185324722376663 30.743529933275894 6.1509891633768081 0 0.77714596973225614 0.62932038083071107 1 0 0 1 I I #
coedge $-1 $466 $466 $-1 $645 reversed $313 $-1 #
edge $-1 $646 0 $646 6.2831853071796004 $314 $647 forward 7 unknown #
vertex $-1 $317 $648 #
ellipse-curve $-1 27.02520620672307 30.743529933275894 6.1509891633768081 0 0.77714596973225614 0.62932038083071107 1 0 0 1 I I #
face $-1 $-1 $649 $65 $-1 $650 reversed single #
loop $-1 $-1 $651 $318 #
plane-surface $-1 71.952879421369062 0 0 -1 0 0 0 0 1 forward_v I I I I #
coedge $-1 $652 $321 $323 $479 forward $201 $-1 #
coedge $-1 $321 $652 $651 $653 reversed $201 $-1 #
coedge $-1 $654 $324 $321 $476 forward $319 $-1 #
edge $-1 $482 22.256647113078316 $655 40.549703909886603 $475 $656 forward 7 unknown #
coedge $-1 $657 $658 $322 $478 forward $649 $-1 #
edge $-1 $659 -68.403314266708605 $481 -64.320885533082475 $477 $660 forward 7 unknown #
edge $-1 $482 59.539841213680653 $659 64.792945382814565 $323 $661 forward 7 unknown #
coedge $-1 $324 $654 $657 $662 forward $319 $-1 #
vertex $-1 $478 $663 #
vertex $-1 $325 $664 #
straight-curve $-1 53.659822624560775 51.728366066923428 8.1922035301898717 0 -1 0 I I #
coedge $-1 $484 $484 $-1 $665 reversed $328 $-1 #
edge $-1 $666 0 $666 6.2831853071796004 $329 $667 forward 7 unknown #
vertex $-1 $332 $668 #
ellipse-curve $-1 58.886410280791722 30.743529933275894 6.1509891633768081 0 0.77714596973225614 0.62932038083071107 1 0 0 1 I I #
coedge $-1 $488 $488 $-1 $669 reversed $335 $-1 #
edge $-1 $670 0 $670 6.2831853071796004 $336 $671 forward 7 unknown #
vertex $-1 $339 $672 #
ellipse-curve $-1 66.726291765138143 30.743529933275894 6.1509891633768081 0 0.77714596973225614 0.62932038083071107 1 0 0 1 I I #
face $-1 $-1 $355 $51 $-1 $673 reversed single #
loop $-1 $-1 $508 $340 #
plane-surface $-1 0 32.396472691407268 0 0 -1 0 0 0 -1 forward_v I I I I #
coedge $-1 $674 $506 $509 $675 forward $341 $-1 #
coedge $-1 $512 $343 $344 $500 reversed $215 $-1 #
coedge $-1 $506 $674 $343 $498 reversed $341 $-1 #
edge $-1 $513 -8.1922035301898699 $676 8.1922035301898699 $497 $677 forward 7 unknown #
coedge $-1 $345 $344 $674 $678 forward $137 $-1 #
edge $-1 $504 -71.952879421369062 $676 71.952879421369062 $496 $679 forward 7 unknown #
coedge $-1 $509 $508 $345 $502 reversed $493 $-1 #
edge $-1 $680 -71.952879421369062 $503 71.952879421369062 $501 $681 forward 7 unknown #
vertex $-1 $347 $682 #
vertex $-1 $515 $683 #
straight-curve $-1 71.952879421369062 0 -8.1922035301898699 0 -1 0 I I #
coedge $-1 $495 $497 $348 $507 reversed $341 $-1 #
edge $-1 $510 -32.396472691407268 $513 32.396472691407268 $506 $684 forward 7 unknown #
coedge $-1 $501 $349 $354 $516 forward $493 $-1 #
coedge $-1 $349 $501 $495 $675 reversed $493 $-1 #
vertex $-1 $350 $685 #
straight-curve $-1 0 32.396472691407268 8.1922035301898699 -1 0 0 I I #
coedge $-1 $351 $496 $353 $515 reversed $215 $-1 #
vertex $-1 $507 $686 #
straight-curve $-1 0 -32.396472691407268 8.1922035301898699 1 0 0 I I #
edge $-1 $356 -8.1922035301898699 $504 8.1922035301898699 $353 $687 forward 7 unknown #
edge $-1 $357 -8.1922035301898699 $503 8.1922035301898699 $354 $688 forward 7 unknown #
point $-1 71.952879421369062 -32.396472691407268 8.1922035301898699 #
point $-1 71.952879421369062 32.396472691407268 8.1922035301898699 #
face $-1 $-1 $536 $52 $-1 $689 reversed single #
loop $-1 $-1 $690 $359 #
plane-surface $-1 -71.952879421369062 0 0 1 0 0 0 0 -1 forward_v I I I I #
coedge $-1 $523 $539 $363 $526 forward $360 $-1 #
coedge $-1 $370 $522 $362 $524 forward $360 $-1 #
edge $-1 $530 -4.2260410357740801 $373 -1.2260410357740801 $523 $691 forward 7 unknown #
coedge $-1 $364 $363 $690 $692 reversed $141 $-1 #
edge $-1 $693 -37.603801053355689 $530 -31.094355682671058 $522 $694 forward 7 unknown #
coedge $-1 $535 $534 $364 $528 forward $536 $-1 #
edge $-1 $529 31.094355682671058 $695 37.603801053355689 $527 $696 forward 7 unknown #
vertex $-1 $528 $697 #
vertex $-1 $526 $698 #
straight-curve $-1 -65.443434050684431 0 -6.9520820715481602 0 -1 0 I I #
coedge $-1 $699 $700 $367 $533 forward $520 $-1 #
edge $-1 $540 -32.396472691407268 $537 32.396472691407268 $532 $701 forward 7 unknown #
coedge $-1 $527 $368 $372 $542 forward $536 $-1 #
coedge $-1 $368 $527 $699 $702 reversed $536 $-1 #
loop $-1 $-1 $527 $519 #
vertex $-1 $702 $703 #
straight-curve $-1 -34.349078368013373 32.396472691407268 -3.9520820715481602 1 0 0 I I #
coedge $-1 $522 $370 $700 $704 forward $360 $-1 #
vertex $-1 $704 $705 #
straight-curve $-1 -34.349078368013373 -32.396472691407268 -3.9520820715481602 -1 0 0 I I #
edge $-1 $374 1.2260410357740801 $529 4.2260410357740801 $534 $706 forward 7 unknown #
point $-1 -65.443434050684431 -32.396472691407268 -3.9520820715481602 #
point $-1 -65.443434050684431 32.396472691407268 -3.9520820715481602 #
plane-surface $-1 0 -32.396472691407268 0 0 1 0 0 0 1 forward_v I I I I #
coedge $-1 $556 $555 $548 $707 forward $377 $-1 #
coedge $-1 $548 $379 $381 $552 reversed $231 $-1 #
coedge $-1 $379 $547 $546 $707 reversed $231 $-1 #
coedge $-1 $387 $382 $379 $550 forward $388 $-1 #
edge $-1 $553 -54.504918550368906 $708 -47.541083859744241 $549 $709 forward 7 unknown #
coedge $-1 $381 $380 $556 $710 reversed $145 $-1 #
edge $-1 $711 -10.833803421363568 $553 -1.8593432412625586e-014 $547 $712 forward 7 unknown #
vertex $-1 $383 $713 #
straight-curve $-1 -17.312910105877179 -32.396472691407268 1.2283688395652026 1 0 0 I I #
coedge $-1 $546 $384 $387 $560 forward $377 $-1 #
coedge $-1 $384 $546 $551 $710 forward $377 $-1 #
vertex $-1 $385 $714 #
straight-curve $-1 -50.959531863213556 -62.448656287493463 8.1922035301898717 0 -1 0 I I #
straight-curve $-1 -50.959531863213556 -32.396472691407283 1.2283688395651922 0 0.76604443648966558 0.64278761758704617 I I #
edge $-1 $389 -50.959531863213556 $708 -18.292108560295162 $387 $715 forward 7 unknown #
point $-1 -50.959531863213556 -32.396472691407268 8.1922035301898699 #
point $-1 -50.959531863213556 -32.396472691407268 1.2283688395652042 #
edge $-1 $716 1 $716 0 $392 $-1 forward 7 unknown #
vertex $-1 $393 $717 #
ellipse-curve $-1 -41.62598234809402 -25.456133191658029 1.3843974356447228 0 -0.64278761758704617 0.76604443648966558 2.5 0 0 1 I I #
point $-1 -39.12598234809402 -28.246885272928122 4.7102861848775186 #
edge $-1 $718 1 $718 0 $396 $-1 forward 7 unknown #
vertex $-1 $397 $719 #
ellipse-curve $-1 -27.625658075414705 -25.456133191658029 1.3843974356447228 0 -0.64278761758704617 0.76604443648966558 2.5 0 0 1 I I #
point $-1 -25.125658075414705 -28.246885272928122 4.7102861848775186 #
plane-surface $-1 0 0 8.1922035301898699 0 0 1 1 0 0 forward_v I I I I #
coedge $-1 $582 $581 $574 $720 forward $401 $-1 #
coedge $-1 $574 $403 $405 $578 reversed $253 $-1 #
coedge $-1 $403 $573 $572 $720 reversed $253 $-1 #
coedge $-1 $411 $406 $403 $576 forward $412 $-1 #
edge $-1 $579 -22.637778891778908 $721 -19.331893375516159 $575 $722 forward 7 unknown #
coedge $-1 $405 $404 $582 $723 reversed $159 $-1 #
edge $-1 $724 -64.792945382814565 $579 -59.539841213680653 $573 $725 forward 7 unknown #
vertex $-1 $407 $726 #
straight-curve $-1 -28.148452826140137 29.09058717514452 8.1922035301898681 1 0 0 I I #
coedge $-1 $572 $408 $411 $586 reversed $401 $-1 #
coedge $-1 $408 $572 $577 $723 forward $401 $-1 #
vertex $-1 $409 $727 #
straight-curve $-1 -65.443434050684417 32.396472691407268 72.513089063272346 0 0 1 I I #
straight-curve $-1 -65.443434050684417 -8.3790483720490556 54.463351167900271 0 0.62932038083071107 -0.77714596973225614 I I #
edge $-1 $721 47.15037725387613 $413 65.443434050684417 $581 $728 forward 7 unknown #
point $-1 -65.443434050684417 32.396472691407268 8.1922035301898699 #
point $-1 -65.443434050684417 29.09058717514452 8.1922035301898717 #
edge $-1 $729 1 $729 0 $416 $-1 forward 7 unknown #
vertex $-1 $417 $730 #
ellipse-curve $-1 -60.216846394453476 29.193530831743491 4.8958246732364374 0 0.77714596973225614 0.62932038083071107 1 0 0 1 I I #
point $-1 -59.216846394453476 30.743529933275891 6.1509891633768063 #
edge $-1 $731 1 $731 0 $420 $-1 forward 7 unknown #
vertex $-1 $421 $732 #
ellipse-curve $-1 -52.376964910107063 29.193530831743491 4.8958246732364374 0 0.77714596973225614 0.62932038083071107 1 0 0 1 I I #
point $-1 -51.376964910107063 30.743529933275891 6.1509891633768063 #
loop $-1 $-1 $432 $424 #
plane-surface $-1 0 32.396472691407268 0 0 -1 0 0 0 -1 forward_v I I I I #
coedge $-1 $600 $427 $429 $604 reversed $275 $-1 #
coedge $-1 $427 $599 $733 $734 reversed $275 $-1 #
coedge $-1 $435 $430 $427 $602 forward $425 $-1 #
edge $-1 $605 -22.637778891778908 $735 -19.331893375516159 $601 $736 forward 7 unknown #
coedge $-1 $429 $428 $608 $737 reversed $173 $-1 #
edge $-1 $738 -64.792945382814565 $605 -59.539841213680653 $599 $739 forward 7 unknown #
vertex $-1 $431 $740 #
straight-curve $-1 -8.2979100469325999 29.09058717514452 8.1922035301898681 1 0 0 I I #
coedge $-1 $733 $432 $435 $612 reversed $597 $-1 #
coedge $-1 $432 $733 $603 $737 forward $597 $-1 #
vertex $-1 $433 $741 #
straight-curve $-1 -25.742348492269347 32.396472691407268 72.513089063272346 0 0 1 I I #
straight-curve $-1 -25.742348492269347 -8.3790483720490556 54.463351167900271 0 0.62932038083071107 -0.77714596973225614 I I #
edge $-1 $735 7.4492916954610529 $436 25.742348492269347 $607 $742 forward 7 unknown #
point $-1 -25.742348492269347 32.396472691407268 8.1922035301898699 #
point $-1 -25.742348492269347 29.09058717514452 8.1922035301898717 #
edge $-1 $743 1 $743 0 $439 $-1 forward 7 unknown #
vertex $-1 $440 $744 #
ellipse-curve $-1 -20.51576083603841 29.193530831743491 4.8958246732364374 0 0.77714596973225614 0.62932038083071107 1 0 0 1 I I #
point $-1 -19.51576083603841 30.743529933275891 6.1509891633768063 #
edge $-1 $745 1 $745 0 $443 $-1 forward 7 unknown #
vertex $-1 $444 $746 #
ellipse-curve $-1 -12.675879351691997 29.193530831743491 4.8958246732364374 0 0.77714596973225614 0.62932038083071107 1 0 0 1 I I #
point $-1 -11.675879351691997 30.743529933275891 6.1509891633768063 #
loop $-1 $-1 $455 $447 #
plane-surface $-1 0 32.396472691407268 0 0 -1 0 0 0 -1 forward_v I I I I #
coedge $-1 $626 $450 $452 $630 reversed $297 $-1 #
coedge $-1 $450 $625 $747 $748 reversed $297 $-1 #
coedge $-1 $458 $453 $450 $628 forward $448 $-1 #
edge $-1 $631 -22.637778891778908 $749 -19.331893375516159 $627 $750 forward 7 unknown #
coedge $-1 $452 $451 $634 $751 reversed $187 $-1 #
edge $-1 $752 -64.792945382814565 $631 -59.539841213680653 $625 $753 forward 7 unknown #
vertex $-1 $454 $754 #
straight-curve $-1 11.55263273227493 29.09058717514452 8.1922035301898681 1 0 0 I I #
coedge $-1 $747 $455 $458 $638 reversed $623 $-1 #
coedge $-1 $455 $747 $629 $751 forward $623 $-1 #
vertex $-1 $456 $755 #
straight-curve $-1 13.958737066145712 32.396472691407268 72.513089063272346 0 0 1 I I #
straight-curve $-1 13.958737066145712 -8.3790483720490556 54.463351167900271 0 0.62932038083071107 -0.77714596973225614 I I #
edge $-1 $749 -32.251793862954003 $459 -13.958737066145712 $633 $756 forward 7 unknown #
point $-1 13.958737066145712 32.396472691407268 8.1922035301898699 #
point $-1 13.958737066145712 29.09058717514452 8.1922035301898717 #
edge $-1 $757 1 $757 0 $462 $-1 forward 7 unknown #
vertex $-1 $463 $758 #
ellipse-curve $-1 19.185324722376663 29.193530831743491 4.8958246732364374 0 0.77714596973225614 0.62932038083071107 1 0 0 1 I I #
point $-1 20.185324722376663 30.743529933275891 6.1509891633768063 #
edge $-1 $759 1 $759 0 $466 $-1 forward 7 unknown #
vertex $-1 $467 $760 #
ellipse-curve $-1 27.02520620672307 29.193530831743491 4.8958246732364374 0 0.77714596973225614 0.62932038083071107 1 0 0 1 I I #
point $-1 28.02520620672307 30.743529933275891 6.1509891633768063 #
loop $-1 $-1 $477 $470 #
plane-surface $-1 0 32.396472691407268 0 0 -1 0 0 0 -1 forward_v I I I I #
coedge $-1 $761 $762 $474 $653 forward $471 $-1 #
coedge $-1 $474 $473 $658 $763 reversed $201 $-1 #
edge $-1 $655 35.740301328309087 $764 40.993405497442993 $651 $765 forward 7 unknown #
coedge $-1 $480 $475 $762 $766 forward $319 $-1 #
vertex $-1 $766 $767 #
straight-curve $-1 31.403175511482459 29.09058717514452 8.1922035301898681 1 0 0 I I #
coedge $-1 $768 $477 $480 $662 reversed $649 $-1 #
coedge $-1 $477 $768 $652 $763 forward $649 $-1 #
vertex $-1 $478 $769 #
straight-curve $-1 53.659822624560775 32.396472691407268 72.513089063272346 0 0 1 I I #
straight-curve $-1 53.659822624560775 -8.3790483720490556 54.463351167900271 0 0.62932038083071107 -0.77714596973225614 I I #
edge $-1 $770 -71.952879421369062 $481 -53.659822624560775 $657 $771 forward 7 unknown #
point $-1 53.659822624560775 32.396472691407268 8.1922035301898699 #
point $-1 53.659822624560775 29.09058717514452 8.1922035301898717 #
edge $-1 $772 1 $772 0 $484 $-1 forward 7 unknown #
vertex $-1 $485 $773 #
ellipse-curve $-1 58.886410280791722 29.193530831743491 4.8958246732364374 0 0.77714596973225614 0.62932038083071107 1 0 0 1 I I #
point $-1 59.886410280791722 30.743529933275891 6.1509891633768063 #
edge $-1 $774 1 $774 0 $488 $-1 forward 7 unknown #
vertex $-1 $489 $775 #
ellipse-curve $-1 66.726291765138143 29.193530831743491 4.8958246732364374 0 0.77714596973225614 0.62932038083071107 1 0 0 1 I I #
point $-1 67.726291765138143 30.743529933275891 6.1509891633768063 #
plane-surface $-1 71.952879421369062 0 0 -1 0 0 0 0 1 forward_v I I I I #
coedge $-1 $497 $495 $499 $678 reversed $341 $-1 #
edge $-1 $510 -8.1922035301898699 $680 8.1922035301898699 $509 $776 forward 7 unknown #
vertex $-1 $678 $777 #
straight-curve $-1 -71.952879421369062 -32.396472691407268 0 0 0 -1 I I #
edge $-1 $676 -32.396472691407268 $680 32.396472691407268 $674 $778 forward 7 unknown #
straight-curve $-1 0 -32.396472691407268 -8.1922035301898699 -1 0 0 I I #
vertex $-1 $502 $779 #
straight-curve $-1 0 32.396472691407268 -8.1922035301898699 1 0 0 I I #
point $-1 71.952879421369062 32.396472691407268 -8.1922035301898699 #
point $-1 71.952879421369062 -32.396472691407268 -8.1922035301898699 #
straight-curve $-1 -71.952879421369062 0 8.1922035301898699 0 -1 0 I I #
point $-1 -71.952879421369062 32.396472691407268 8.1922035301898699 #
point $-1 -71.952879421369062 -32.396472691407268 8.1922035301898699 #
straight-curve $-1 71.952879421369062 -32.396472691407268 0 0 0 -1 I I #
straight-curve $-1 71.952879421369062 32.396472691407268 0 0 0 -1 I I #
plane-surface $-1 0 32.396472691407268 0 0 -1 0 0 0 -1 forward_v I I I I #
coedge $-1 $700 $699 $525 $692 forward $520 $-1 #
straight-curve $-1 -65.443434050684431 -32.396472691407268 -2.7260410357740801 0 0 1 I I #
edge $-1 $695 -32.396472691407268 $693 32.396472691407268 $690 $780 forward 7 unknown #
vertex $-1 $526 $781 #
straight-curve $-1 -34.349078368013373 -32.396472691407268 -6.9520820715481602 1 0 0 I I #
vertex $-1 $528 $782 #
straight-curve $-1 -34.349078368013373 32.396472691407268 -6.9520820715481602 -1 0 0 I I #
point $-1 -65.443434050684431 32.396472691407268 -6.9520820715481602 #
point $-1 -65.443434050684431 -32.396472691407268 -6.9520820715481602 #
coedge $-1 $690 $532 $535 $702 forward $520 $-1 #
coedge $-1 $532 $690 $539 $704 reversed $520 $-1 #
straight-curve $-1 -71.952879421369062 0 -3.9520820715481602 0 1 0 I I #
edge $-1 $537 3.9520820715481602 $695 6.9520820715481602 $535 $783 forward 7 unknown #
point $-1 -71.952879421369062 32.396472691407268 -3.9520820715481602 #
edge $-1 $540 3.9520820715481602 $693 6.9520820715481602 $700 $784 forward 7 unknown #
point $-1 -71.952879421369062 -32.396472691407268 -3.9520820715481602 #
straight-curve $-1 -65.443434050684431 32.396472691407268 -2.7260410357740801 0 0 -1 I I #
edge $-1 $708 30.052183596086195 $711 38.351358433044446 $546 $785 forward 7 unknown #
vertex $-1 $707 $786 #
straight-curve $-1 -18.292108560295162 -32.396472691407268 55.733287389934112 0 0 1 I I #
edge $-1 $711 0.97919845441798259 $557 33.646621757336376 $556 $787 forward 7 unknown #
vertex $-1 $710 $788 #
straight-curve $-1 -18.292108560295162 -32.396472691407283 1.2283688395651922 0 -0.76604443648966558 -0.64278761758704617 I I #
point $-1 -18.292108560295162 -32.396472691407268 1.2283688395652042 #
point $-1 -50.959531863213556 -24.097297854449018 8.1922035301898699 #
straight-curve $-1 0 -32.396472691407268 8.1922035301898699 1 0 0 I I #
vertex $-1 $563 $789 #
point $-1 -39.12598234809402 -25.456133191658029 1.3843974356447228 #
vertex $-1 $567 $790 #
point $-1 -25.125658075414705 -25.456133191658029 1.3843974356447228 #
edge $-1 $721 64.320885533082475 $724 68.403314266708605 $572 $791 forward 7 unknown #
vertex $-1 $586 $792 #
straight-curve $-1 -47.15037725387613 51.728366066923428 8.1922035301898717 0 1 0 I I #
edge $-1 $724 19.001924427735993 $583 37.29498122454428 $582 $793 forward 7 unknown #
vertex $-1 $723 $794 #
straight-curve $-1 -47.15037725387613 -8.3790483720490556 54.463351167900271 0 -0.62932038083071107 0.77714596973225614 I I #
point $-1 -47.15037725387613 29.09058717514452 8.1922035301898717 #
point $-1 -65.443434050684417 32.396472691407268 4.109774796563741 #
straight-curve $-1 0 32.396472691407268 8.1922035301898699 -1 0 0 I I #
vertex $-1 $589 $795 #
point $-1 -59.216846394453476 29.193530831743491 4.8958246732364374 #
vertex $-1 $593 $796 #
point $-1 -51.376964910107063 29.193530831743491 4.8958246732364374 #
coedge $-1 $608 $607 $600 $734 forward $597 $-1 #
edge $-1 $735 64.320885533082475 $738 68.403314266708605 $733 $797 forward 7 unknown #
vertex $-1 $612 $798 #
straight-curve $-1 -7.4492916954610529 51.728366066923428 8.1922035301898717 0 1 0 I I #
edge $-1 $738 -0.84861835147154707 $609 17.444438445336747 $608 $799 forward 7 unknown #
vertex $-1 $737 $800 #
straight-curve $-1 -7.4492916954610529 -8.3790483720490556 54.463351167900271 0 -0.62932038083071107 0.77714596973225614 I I #
point $-1 -7.4492916954610529 29.09058717514452 8.1922035301898717 #
point $-1 -25.742348492269347 32.396472691407268 4.109774796563741 #
straight-curve $-1 0 32.396472691407268 8.1922035301898699 -1 0 0 I I #
vertex $-1 $615 $801 #
point $-1 -19.51576083603841 29.193530831743491 4.8958246732364374 #
vertex $-1 $619 $802 #
point $-1 -11.675879351691997 29.193530831743491 4.8958246732364374 #
coedge $-1 $634 $633 $626 $748 forward $623 $-1 #
edge $-1 $749 64.320885533082475 $752 68.403314266708605 $747 $803 forward 7 unknown #
vertex $-1 $638 $804 #
straight-curve $-1 32.251793862954003 51.728366066923428 8.1922035301898717 0 1 0 I I #
edge $-1 $752 -20.699161130679073 $635 -2.4061043338707826 $634 $805 forward 7 unknown #
vertex $-1 $751 $806 #
straight-curve $-1 32.251793862954003 -8.3790483720490556 54.463351167900271 0 -0.62932038083071107 0.77714596973225614 I I #
point $-1 32.251793862954003 29.09058717514452 8.1922035301898717 #
point $-1 13.958737066145712 32.396472691407268 4.109774796563741 #
straight-curve $-1 0 32.396472691407268 8.1922035301898699 -1 0 0 I I #
vertex $-1 $641 $807 #
point $-1 20.185324722376663 29.193530831743491 4.8958246732364374 #
vertex $-1 $645 $808 #
point $-1 28.02520620672307 29.193530831743491 4.8958246732364374 #
coedge $-1 $762 $651 $768 $809 reversed $471 $-1 #
coedge $-1 $651 $761 $654 $766 reversed $471 $-1 #
edge $-1 $764 -40.549703909886603 $659 -22.256647113078316 $658 $810 forward 7 unknown #
vertex $-1 $653 $811 #
straight-curve $-1 71.952879421369062 6.5984871322086729 35.967634664501681 0 0.62932038083071107 -0.77714596973225614 I I #
edge $-1 $655 29.09058717514452 $770 32.396472691407268 $762 $812 forward 7 unknown #
point $-1 71.952879421369062 29.09058717514452 8.1922035301898717 #
coedge $-1 $658 $657 $761 $809 forward $649 $-1 #
point $-1 53.659822624560775 32.396472691407268 4.109774796563741 #
vertex $-1 $766 $813 #
straight-curve $-1 0 32.396472691407268 8.1922035301898699 -1 0 0 I I #
vertex $-1 $665 $814 #
point $-1 59.886410280791722 29.193530831743491 4.8958246732364374 #
vertex $-1 $669 $815 #
point $-1 67.726291765138143 29.193530831743491 4.8958246732364374 #
straight-curve $-1 -71.952879421369062 32.396472691407268 0 0 0 -1 I I #
point $-1 -71.952879421369062 -32.396472691407268 -8.1922035301898699 #
straight-curve $-1 -71.952879421369062 0 -8.1922035301898699 0 1 0 I I #
point $-1 -71.952879421369062 32.396472691407268 -8.1922035301898699 #
straight-curve $-1 -71.952879421369062 0 -6.9520820715481602 0 -1 0 I I #
point $-1 -71.952879421369062 -32.396472691407268 -6.9520820715481602 #
point $-1 -71.952879421369062 32.396472691407268 -6.9520820715481602 #
straight-curve $-1 -71.952879421369062 32.396472691407268 0 0 0 -1 I I #
straight-curve $-1 -71.952879421369062 -32.396472691407268 0 0 0 -1 I I #
straight-curve $-1 -18.292108560295162 -62.448656287493463 8.1922035301898717 0 1 0 I I #
point $-1 -18.292108560295162 -32.396472691407268 8.1922035301898699 #
straight-curve $-1 -17.312910105877179 -24.097297854449018 8.1922035301898699 -1 0 0 I I #
point $-1 -18.292108560295162 -24.097297854449018 8.1922035301898699 #
point $-1 -41.62598234809402 -23.849164147690413 -0.53071365557944106 #
point $-1 -27.625658075414705 -23.849164147690413 -0.53071365557944106 #
straight-curve $-1 -47.15037725387613 32.396472691407268 72.513089063272346 0 0 -1 I I #
point $-1 -47.15037725387613 32.396472691407268 8.1922035301898699 #
straight-curve $-1 -28.148452826140137 32.396472691407268 4.1097747965637375 -1 0 0 I I #
point $-1 -47.15037725387613 32.396472691407268 4.109774796563741 #
point $-1 -60.216846394453476 28.416384862011238 4.2665042924057266 #
point $-1 -52.376964910107063 28.416384862011238 4.2665042924057266 #
straight-curve $-1 -7.4492916954610529 32.396472691407268 72.513089063272346 0 0 -1 I I #
point $-1 -7.4492916954610529 32.396472691407268 8.1922035301898699 #
straight-curve $-1 -8.2979100469325999 32.396472691407268 4.1097747965637375 -1 0 0 I I #
point $-1 -7.4492916954610529 32.396472691407268 4.109774796563741 #
point $-1 -20.51576083603841 28.416384862011238 4.2665042924057266 #
point $-1 -12.675879351691997 28.416384862011238 4.2665042924057266 #
straight-curve $-1 32.251793862954003 32.396472691407268 72.513089063272346 0 0 -1 I I #
point $-1 32.251793862954003 32.396472691407268 8.1922035301898699 #
straight-curve $-1 11.55263273227493 32.396472691407268 4.1097747965637375 -1 0 0 I I #
point $-1 32.251793862954003 32.396472691407268 4.109774796563741 #
point $-1 19.185324722376663 28.416384862011238 4.2665042924057266 #
point $-1 27.02520620672307 28.416384862011238 4.2665042924057266 #
edge $-1 $770 -8.1922035301898699 $764 -4.109774796563741 $761 $816 forward 7 unknown #
straight-curve $-1 31.403175511482459 32.396472691407268 4.1097747965637375 -1 0 0 I I #
point $-1 71.952879421369062 32.396472691407268 4.109774796563741 #
straight-curve $-1 71.952879421369062 0 8.1922035301898699 0 1 0 I I #
point $-1 71.952879421369062 32.396472691407268 8.1922035301898699 #
point $-1 58.886410280791722 28.416384862011238 4.2665042924057266 #
point $-1 66.726291765138143 28.416384862011238 4.2665042924057266 #
straight-curve $-1 71.952879421369062 32.396472691407268 0 0 0 -1 I I #
End-of-ACIS-data 