500 0 8 0           
7 Unknown 11 ACIS 5.0 NT 24 Fri Mar 26 19:37:23 1999 
-1 9.9999999999999995e-007 1e-010 
body $-1 $8 $-1 $9 #
body $-1 $10 $-1 $11 #
body $-1 $12 $-1 $13 #
body $-1 $14 $-1 $15 #
body $-1 $16 $-1 $17 #
body $-1 $18 $-1 $19 #
body $-1 $20 $-1 $21 #
body $-1 $22 $-1 $23 #
lump $-1 $-1 $24 $0 #
transform $-1 1 0 0 0 1 0 0 0 1 46.085390789513838 18.728668502802339 5.8733497665668599 1 rotate no_reflect no_shear #
lump $-1 $-1 $25 $1 #
transform $-1 1 0 0 0 1 0 0 0 1 46.085390789513838 18.728668502802339 5.8733497665668599 1 rotate no_reflect no_shear #
lump $-1 $-1 $26 $2 #
transform $-1 1 0 0 0 1 0 0 0 1 46.085390789513838 18.728668502802339 5.8733497665668599 1 rotate no_reflect no_shear #
lump $-1 $-1 $27 $3 #
transform $-1 1 0 0 0 1 0 0 0 1 46.085390789513838 18.728668502802339 5.8733497665668599 1 rotate no_reflect no_shear #
lump $-1 $-1 $28 $4 #
transform $-1 1 0 0 0 1 0 0 0 1 46.085390789513838 18.728668502802339 5.8733497665668599 1 rotate no_reflect no_shear #
lump $-1 $-1 $29 $5 #
transform $-1 1 0 0 0 1 0 0 0 1 46.085390789513838 18.728668502802339 5.8733497665668599 1 rotate no_reflect no_shear #
lump $-1 $-1 $30 $6 #
transform $-1 1 0 0 0 1 0 0 0 1 46.085390789513838 18.728668502802339 5.8733497665668599 1 rotate no_reflect no_shear #
lump $-1 $-1 $31 $7 #
transform $-1 1 0 0 0 1 0 0 0 1 46.085390789513838 18.728668502802339 5.8733497665668599 1 rotate no_reflect no_shear #
shell $-1 $-1 $-1 $32 $-1 $8 #
shell $-1 $-1 $-1 $33 $-1 $10 #
shell $-1 $-1 $-1 $34 $-1 $12 #
shell $-1 $-1 $-1 $35 $-1 $14 #
shell $-1 $-1 $-1 $36 $-1 $16 #
shell $-1 $-1 $-1 $37 $-1 $18 #
shell $-1 $-1 $-1 $38 $-1 $20 #
shell $-1 $-1 $-1 $39 $-1 $22 #
face $-1 $40 $41 $24 $-1 $42 forward single #
face $-1 $43 $44 $25 $-1 $45 reversed single #
face $-1 $46 $47 $26 $-1 $48 reversed single #
face $-1 $49 $50 $27 $-1 $51 forward single #
face $-1 $52 $53 $28 $-1 $54 forward single #
face $-1 $55 $56 $29 $-1 $57 reversed single #
face $-1 $58 $59 $30 $-1 $60 forward single #
face $-1 $61 $62 $31 $-1 $63 forward single #
face $-1 $64 $65 $24 $-1 $66 reversed single #
loop $-1 $-1 $67 $32 #
plane-surface $-1 0 0 5.8733497665668599 0 0 1 1 0 0 forward_v I I I I #
face $-1 $68 $69 $25 $-1 $70 reversed single #
loop $-1 $-1 $71 $33 #
plane-surface $-1 -44.202422604854718 -16.157545875765706 0 1 0 0 0 0 -1 forward_v I I I I #
face $-1 $72 $73 $26 $-1 $74 reversed single #
loop $-1 $-1 $75 $34 #
plane-surface $-1 -46.085390789513852 -9.2980121633863533 2.0416944674512933 -0.84804810408105047 0 0.52991925155115449 0.52991925155115449 0 0.84804810408105047 forward_v I I I I #
face $-1 $76 $77 $27 $-1 $78 forward single #
loop $-1 $79 $80 $35 #
cone-surface $-1 -44.129076661041552 -11.135902628533234 3.4831387005916392 0.84804810408105047 0 -0.52991925155115449 0.52991925155115449 0 0.84804810408105047 1 I I 0 1 1 forward I I I I #
face $-1 $81 $82 $28 $-1 $83 forward single #
loop $-1 $84 $85 $36 #
cone-surface $-1 -44.129076661041552 -7.460121698239476 3.4831387005916392 0.84804810408105047 0 -0.52991925155115449 0.52991925155115449 0 0.84804810408105047 1 I I 0 1 1 forward I I I I #
face $-1 $86 $87 $29 $-1 $88 reversed single #
loop $-1 $-1 $89 $37 #
plane-surface $-1 75.407575770033603 -5.0096010780436346 129.0500226264576 0 -1 0 -0.84804810408105047 0 -0.52991925155115449 forward_v I I I I #
face $-1 $90 $91 $30 $-1 $92 forward single #
loop $-1 $93 $94 $38 #
cone-surface $-1 44.129076661041552 -11.135902628533234 3.4831387005916215 -0.84804810408105047 0 -0.52991925155115449 0.52991925155115449 0 -0.84804810408105047 1 I I 0 1 1 forward I I I I #
face $-1 $95 $96 $31 $-1 $97 forward single #
loop $-1 $98 $99 $39 #
cone-surface $-1 44.129076661041552 -7.460121698239476 3.4831387005916215 -0.84804810408105047 0 -0.52991925155115449 0.52991925155115449 0 -0.84804810408105047 1 I I 0 1 1 forward I I I I #
face $-1 $100 $101 $24 $-1 $102 reversed single #
loop $-1 $-1 $103 $40 #
plane-surface $-1 0 0 -5.8733497665668599 0 0 1 1 0 0 forward_v I I I I #
coedge $-1 $104 $105 $106 $107 forward $41 $-1 #
face $-1 $108 $109 $25 $-1 $110 reversed single #
loop $-1 $-1 $111 $43 #
plane-surface $-1 -42.702422604854718 -13.586423248729073 0 0 -1 0 0 0 -1 forward_v I I I I #
coedge $-1 $112 $113 $114 $115 forward $44 $-1 #
face $-1 $116 $117 $26 $-1 $118 forward single #
loop $-1 $-1 $119 $46 #
plane-surface $-1 -124.25064735927688 -5.0096010780436346 50.884766056694573 0 -1 0 0.84804810408105047 0 -0.52991925155115449 forward_v I I I I #
coedge $-1 $120 $121 $122 $123 reversed $47 $-1 #
face $-1 $-1 $124 $27 $-1 $125 forward single #
loop $-1 $126 $127 $49 #
cone-surface $-1 -42.945880422441093 -11.135902628533234 2.7437956583986294 0.84804810408105047 0 -0.52991925155115449 0.26495962577557725 0 0.42402405204052523 1 I I -0.70710678118654746 0.70710678118654746 0.5 forward I I I I #
loop $-1 $-1 $128 $35 #
coedge $-1 $80 $80 $129 $130 reversed $50 $-1 #
face $-1 $-1 $131 $28 $-1 $132 forward single #
loop $-1 $133 $134 $52 #
cone-surface $-1 -42.945880422441093 -7.460121698239476 2.7437956583986294 0.84804810408105047 0 -0.52991925155115449 0.26495962577557725 0 0.42402405204052523 1 I I -0.70710678118654746 0.70710678118654746 0.5 forward I I I I #
loop $-1 $-1 $135 $36 #
coedge $-1 $85 $85 $136 $137 reversed $53 $-1 #
face $-1 $138 $139 $29 $-1 $140 reversed single #
loop $-1 $-1 $141 $55 #
plane-surface $-1 -2.7576807997294281 -9.2980121633863533 80.206951037214324 0.84804810408105047 0 0.52991925155115449 0.52991925155115449 0 -0.84804810408105047 forward_v I I I I #
coedge $-1 $142 $143 $144 $145 reversed $56 $-1 #
face $-1 $-1 $146 $30 $-1 $147 forward single #
loop $-1 $148 $149 $58 #
cone-surface $-1 42.945880422441093 -11.135902628533234 2.7437956583986116 -0.84804810408105047 0 -0.52991925155115449 0.26495962577557725 0 -0.42402405204052523 1 I I -0.70710678118654746 0.70710678118654746 0.5 forward I I I I #
loop $-1 $-1 $150 $38 #
coedge $-1 $94 $94 $151 $152 reversed $59 $-1 #
face $-1 $-1 $153 $31 $-1 $154 forward single #
loop $-1 $155 $156 $61 #
cone-surface $-1 42.945880422441093 -7.460121698239476 2.7437956583986116 -0.84804810408105047 0 -0.52991925155115449 0.26495962577557725 0 -0.42402405204052523 1 I I -0.70710678118654746 0.70710678118654746 0.5 forward I I I I #
loop $-1 $-1 $157 $39 #
coedge $-1 $99 $99 $158 $159 reversed $62 $-1 #
face $-1 $160 $161 $24 $-1 $162 reversed single #
loop $-1 $-1 $163 $64 #
plane-surface $-1 0 -18.728668502802339 0 0 1 0 0 0 1 forward_v I I I I #
coedge $-1 $164 $165 $166 $167 forward $65 $-1 #
coedge $-1 $168 $67 $169 $170 forward $41 $-1 #
coedge $-1 $67 $168 $171 $172 forward $41 $-1 #
coedge $-1 $173 $174 $67 $107 reversed $175 $-1 #
edge $-1 $176 -18.728668502802339 $177 18.728668502802339 $106 $178 forward 7 unknown #
face $-1 $179 $180 $25 $-1 $181 forward single #
loop $-1 $-1 $182 $68 #
plane-surface $-1 -41.202422604854718 -16.157545875765706 0 -1 0 0 0 0 1 forward_v I I I I #
coedge $-1 $183 $114 $184 $185 reversed $69 $-1 #
coedge $-1 $186 $71 $187 $188 reversed $44 $-1 #
coedge $-1 $71 $186 $189 $190 reversed $44 $-1 #
coedge $-1 $111 $191 $71 $115 reversed $69 $-1 #
edge $-1 $192 -5.8733497665668599 $193 5.8733497665668599 $114 $194 forward 7 unknown #
face $-1 $195 $196 $26 $-1 $197 forward single #
loop $-1 $-1 $198 $72 #
plane-surface $-1 0 0 5.8733497665668599 0 0 1 1 0 0 forward_v I I I I #
coedge $-1 $199 $200 $201 $202 reversed $73 $-1 #
coedge $-1 $203 $75 $204 $205 reversed $47 $-1 #
coedge $-1 $75 $203 $199 $206 forward $47 $-1 #
coedge $-1 $201 $198 $75 $123 forward $117 $-1 #
edge $-1 $207 -8.9374171670358962 $208 -0.360594996350458 $122 $209 forward 7 unknown #
loop $-1 $-1 $129 $76 #
plane-surface $-1 -46.085390789513852 -9.2980121633863533 2.0416944674512933 -0.84804810408105047 0 0.52991925155115449 0.52991925155115449 0 0.84804810408105047 forward_v I I I I #
loop $-1 $-1 $210 $49 #
coedge $-1 $127 $127 $128 $211 reversed $77 $-1 #
coedge $-1 $128 $128 $127 $211 forward $79 $-1 #
coedge $-1 $129 $129 $80 $130 forward $124 $-1 #
edge $-1 $212 0 $212 6.2831853071796004 $129 $213 forward 7 unknown #
loop $-1 $-1 $136 $81 #
plane-surface $-1 -46.085390789513852 -9.2980121633863533 2.0416944674512933 -0.84804810408105047 0 0.52991925155115449 0.52991925155115449 0 0.84804810408105047 forward_v I I I I #
loop $-1 $-1 $214 $52 #
coedge $-1 $134 $134 $135 $215 reversed $82 $-1 #
coedge $-1 $135 $135 $134 $215 forward $84 $-1 #
coedge $-1 $136 $136 $85 $137 forward $131 $-1 #
edge $-1 $216 0 $216 6.2831853071796004 $136 $217 forward 7 unknown #
face $-1 $218 $219 $29 $-1 $220 forward single #
loop $-1 $-1 $221 $86 #
plane-surface $-1 75.407575770033603 -13.586423248729073 129.0500226264576 0 1 0 0.84804810408105047 0 0.52991925155115449 forward_v I I I I #
coedge $-1 $222 $223 $224 $225 reversed $87 $-1 #
coedge $-1 $143 $89 $226 $227 reversed $56 $-1 #
coedge $-1 $89 $142 $222 $228 reversed $56 $-1 #
coedge $-1 $224 $229 $89 $145 forward $219 $-1 #
edge $-1 $230 -8.3816029044970364 $231 -5.9873190206723663 $144 $232 forward 7 unknown #
loop $-1 $-1 $151 $90 #
plane-surface $-1 -2.7576807997294281 -9.2980121633863533 80.206951037214324 0.84804810408105047 0 0.52991925155115449 0.52991925155115449 0 -0.84804810408105047 forward_v I I I I #
loop $-1 $-1 $233 $58 #
coedge $-1 $149 $149 $150 $234 reversed $91 $-1 #
coedge $-1 $150 $150 $149 $234 forward $93 $-1 #
coedge $-1 $151 $151 $94 $152 forward $146 $-1 #
edge $-1 $235 0 $235 6.2831853071796004 $151 $236 forward 7 unknown #
loop $-1 $-1 $158 $95 #
plane-surface $-1 -2.7576807997294281 -9.2980121633863533 80.206951037214324 0.84804810408105047 0 0.52991925155115449 0.52991925155115449 0 -0.84804810408105047 forward_v I I I I #
loop $-1 $-1 $237 $61 #
coedge $-1 $156 $156 $157 $238 reversed $96 $-1 #
coedge $-1 $157 $157 $156 $238 forward $98 $-1 #
coedge $-1 $158 $158 $99 $159 forward $153 $-1 #
edge $-1 $239 0 $239 6.2831853071796004 $158 $240 forward 7 unknown #
face $-1 $241 $242 $24 $-1 $243 reversed single #
loop $-1 $-1 $244 $100 #
plane-surface $-1 -46.085390789513838 0 0 1 0 0 0 0 -1 forward_v I I I I #
coedge $-1 $245 $171 $246 $247 forward $101 $-1 #
coedge $-1 $248 $103 $245 $249 forward $65 $-1 #
coedge $-1 $103 $248 $250 $251 forward $65 $-1 #
coedge $-1 $174 $173 $103 $167 reversed $175 $-1 #
edge $-1 $252 -18.728668502802339 $253 18.728668502802339 $166 $254 forward 7 unknown #
coedge $-1 $105 $104 $255 $256 forward $41 $-1 #
coedge $-1 $257 $258 $104 $170 reversed $242 $-1 #
edge $-1 $177 -46.085390789513838 $259 46.085390789513838 $169 $260 forward 7 unknown #
coedge $-1 $163 $261 $105 $172 reversed $101 $-1 #
edge $-1 $262 -46.085390789513838 $176 46.085390789513838 $171 $263 forward 7 unknown #
coedge $-1 $166 $106 $261 $264 forward $175 $-1 #
coedge $-1 $106 $166 $257 $265 reversed $175 $-1 #
loop $-1 $-1 $173 $241 #
vertex $-1 $107 $266 #
vertex $-1 $107 $267 #
straight-curve $-1 46.085390789513838 0 5.8733497665668599 0 1 0 I I #
face $-1 $268 $269 $25 $-1 $270 reversed single #
loop $-1 $-1 $271 $108 #
plane-surface $-1 0 0 5.8733497665668599 0 0 1 1 0 0 forward_v I I I I #
coedge $-1 $272 $273 $274 $275 reversed $109 $-1 #
coedge $-1 $191 $111 $276 $277 forward $69 $-1 #
coedge $-1 $189 $271 $111 $185 forward $180 $-1 #
edge $-1 $278 19.851211302427359 $192 22.851211302427359 $184 $279 forward 7 unknown #
coedge $-1 $113 $112 $280 $281 reversed $44 $-1 #
coedge $-1 $282 $283 $112 $188 forward $269 $-1 #
edge $-1 $284 -10.649895564919486 $193 -5.5076503108462198 $187 $285 forward 7 unknown #
coedge $-1 $286 $184 $113 $190 forward $180 $-1 #
edge $-1 $192 5.5076503108462198 $287 10.649895564919486 $189 $288 forward 7 unknown #
coedge $-1 $114 $183 $282 $289 reversed $69 $-1 #
vertex $-1 $190 $290 #
vertex $-1 $188 $291 #
straight-curve $-1 -44.202422604854718 -13.586423248729073 0 0 0 -1 I I #
face $-1 $-1 $292 $26 $-1 $293 reversed single #
loop $-1 $-1 $204 $116 #
plane-surface $-1 -42.702422604854718 -13.586423248729073 0 0 -1 0 0 0 -1 forward_v I I I I #
coedge $-1 $122 $294 $295 $296 forward $117 $-1 #
coedge $-1 $200 $119 $121 $206 reversed $73 $-1 #
coedge $-1 $119 $199 $297 $298 reversed $73 $-1 #
coedge $-1 $294 $122 $119 $202 forward $117 $-1 #
edge $-1 $208 -18.434216773949274 $299 -16.039932890124604 $201 $300 forward 7 unknown #
coedge $-1 $121 $120 $301 $302 reversed $47 $-1 #
coedge $-1 $295 $303 $120 $205 forward $196 $-1 #
edge $-1 $304 -0.03062242310052106 $207 4.4875827125238867 $204 $305 forward 7 unknown #
edge $-1 $306 2.6737665129848107e-014 $208 4.5182051356244344 $199 $307 forward 7 unknown #
vertex $-1 $205 $308 #
vertex $-1 $123 $309 #
straight-curve $-1 -43.691106905689168 -4.6490060816931766 5.8733497665668599 0 1 0 I I #
coedge $-1 $210 $210 $-1 $310 reversed $126 $-1 #
edge $-1 $311 0 $311 6.2831853071796004 $127 $312 forward 7 unknown #
vertex $-1 $130 $313 #
ellipse-curve $-1 -44.88824884760151 -11.135902628533234 3.9575221170090833 -0.84804810408105047 0 0.52991925155115449 0.52991925155115449 0 0.84804810408105047 1 I I #
coedge $-1 $214 $214 $-1 $314 reversed $133 $-1 #
edge $-1 $315 0 $315 6.2831853071796004 $134 $316 forward 7 unknown #
vertex $-1 $137 $317 #
ellipse-curve $-1 -44.88824884760151 -7.460121698239476 3.9575221170090833 -0.84804810408105047 0 0.52991925155115449 0.52991925155115449 0 0.84804810408105047 1 I I #
face $-1 $-1 $318 $29 $-1 $319 reversed single #
loop $-1 $-1 $144 $138 #
plane-surface $-1 0 0 5.8733497665668599 0 0 1 1 0 0 forward_v I I I I #
coedge $-1 $320 $321 $322 $323 reversed $139 $-1 #
coedge $-1 $324 $141 $143 $228 forward $87 $-1 #
coedge $-1 $141 $324 $320 $325 forward $87 $-1 #
coedge $-1 $322 $144 $141 $225 forward $219 $-1 #
edge $-1 $231 0.360594996350458 $326 8.9374171670358962 $224 $327 forward 7 unknown #
coedge $-1 $328 $329 $142 $227 forward $318 $-1 #
edge $-1 $330 -62.48331684577748 $230 -58.651661546661941 $226 $331 forward 7 unknown #
edge $-1 $231 87.652576443403234 $330 92.170781579027633 $143 $332 forward 7 unknown #
coedge $-1 $144 $322 $328 $333 forward $219 $-1 #
vertex $-1 $227 $334 #
vertex $-1 $145 $335 #
straight-curve $-1 37.703787885016801 -5.0096010780436346 5.8733497665668608 -1 0 0 I I #
coedge $-1 $233 $233 $-1 $336 reversed $148 $-1 #
edge $-1 $337 0 $337 6.2831853071796004 $149 $338 forward 7 unknown #
vertex $-1 $152 $339 #
ellipse-curve $-1 44.888248847601517 -11.135902628533234 3.9575221170090709 0.84804810408105047 0 0.52991925155115449 0.52991925155115449 0 -0.84804810408105047 1 I I #
coedge $-1 $237 $237 $-1 $340 reversed $155 $-1 #
edge $-1 $341 0 $341 6.2831853071796004 $156 $342 forward 7 unknown #
vertex $-1 $159 $343 #
ellipse-curve $-1 44.888248847601517 -7.460121698239476 3.9575221170090709 0.84804810408105047 0 0.52991925155115449 0.52991925155115449 0 -0.84804810408105047 1 I I #
face $-1 $-1 $175 $24 $-1 $344 reversed single #
loop $-1 $-1 $257 $160 #
plane-surface $-1 0 18.728668502802339 0 0 -1 0 0 0 -1 forward_v I I I I #
coedge $-1 $345 $255 $258 $346 forward $161 $-1 #
coedge $-1 $261 $163 $164 $249 reversed $101 $-1 #
coedge $-1 $255 $345 $163 $247 reversed $161 $-1 #
edge $-1 $262 -5.8733497665668599 $347 5.8733497665668599 $246 $348 forward 7 unknown #
coedge $-1 $165 $164 $345 $349 forward $65 $-1 #
edge $-1 $253 -46.085390789513838 $347 46.085390789513838 $245 $350 forward 7 unknown #
coedge $-1 $258 $257 $165 $251 reversed $242 $-1 #
edge $-1 $351 -46.085390789513838 $252 46.085390789513838 $250 $352 forward 7 unknown #
vertex $-1 $167 $353 #
vertex $-1 $264 $354 #
straight-curve $-1 46.085390789513838 0 -5.8733497665668599 0 -1 0 I I #
coedge $-1 $244 $246 $168 $256 reversed $161 $-1 #
edge $-1 $259 -18.728668502802339 $262 18.728668502802339 $255 $355 forward 7 unknown #
coedge $-1 $250 $169 $174 $265 forward $242 $-1 #
coedge $-1 $169 $250 $244 $346 reversed $242 $-1 #
vertex $-1 $170 $356 #
straight-curve $-1 0 18.728668502802339 5.8733497665668599 -1 0 0 I I #
coedge $-1 $171 $245 $173 $264 reversed $101 $-1 #
vertex $-1 $256 $357 #
straight-curve $-1 0 -18.728668502802339 5.8733497665668599 1 0 0 I I #
edge $-1 $176 -5.8733497665668599 $253 5.8733497665668599 $173 $358 forward 7 unknown #
edge $-1 $177 -5.8733497665668599 $252 5.8733497665668599 $174 $359 forward 7 unknown #
point $-1 46.085390789513838 -18.728668502802339 5.8733497665668599 #
point $-1 46.085390789513838 18.728668502802339 5.8733497665668599 #
face $-1 $-1 $360 $25 $-1 $361 reversed single #
loop $-1 $-1 $362 $179 #
plane-surface $-1 0 0 -5.8733497665668599 0 0 1 1 0 0 forward_v I I I I #
coedge $-1 $184 $286 $273 $363 forward $180 $-1 #
coedge $-1 $276 $182 $362 $364 reversed $109 $-1 #
coedge $-1 $182 $276 $271 $363 reversed $109 $-1 #
coedge $-1 $365 $366 $182 $275 forward $360 $-1 #
edge $-1 $367 -5.8733497665668599 $368 5.8733497665668599 $274 $369 forward 7 unknown #
coedge $-1 $273 $272 $183 $277 reversed $109 $-1 #
edge $-1 $278 -5.8733497665668599 $370 5.8733497665668599 $276 $371 forward 7 unknown #
vertex $-1 $185 $372 #
straight-curve $-1 -21.351211302427359 -13.586423248729073 5.8733497665668599 -1 0 0 I I #
coedge $-1 $366 $365 $186 $281 forward $360 $-1 #
edge $-1 $287 -5.8733497665668599 $284 5.8733497665668599 $280 $373 forward 7 unknown #
coedge $-1 $362 $187 $191 $289 forward $269 $-1 #
coedge $-1 $187 $362 $366 $374 forward $269 $-1 #
vertex $-1 $188 $375 #
straight-curve $-1 -44.202422604854718 -8.078772937882853 -5.8733497665668599 0 1 0 I I #
coedge $-1 $271 $189 $365 $376 forward $180 $-1 #
vertex $-1 $376 $377 #
straight-curve $-1 -44.202422604854718 -8.078772937882853 5.8733497665668599 0 -1 0 I I #
edge $-1 $193 -22.851211302427359 $370 -19.851211302427359 $282 $378 forward 7 unknown #
point $-1 -44.202422604854718 -13.586423248729073 5.8733497665668599 #
point $-1 -44.202422604854718 -13.586423248729073 -5.8733497665668599 #
loop $-1 $-1 $379 $195 #
plane-surface $-1 -46.085390789513838 0 0 1 0 0 0 0 -1 forward_v I I I I #
coedge $-1 $198 $201 $380 $381 forward $117 $-1 #
coedge $-1 $303 $204 $198 $296 reversed $196 $-1 #
edge $-1 $382 16.039932890124604 $207 18.434216773949274 $198 $383 forward 7 unknown #
coedge $-1 $301 $380 $200 $298 forward $292 $-1 #
edge $-1 $299 19.569033261780426 $306 23.400688560895972 $297 $384 forward 7 unknown #
vertex $-1 $381 $385 #
straight-curve $-1 -62.125323679638441 -5.0096010780436346 5.8733497665668608 -1 0 0 I I #
coedge $-1 $379 $297 $203 $302 forward $292 $-1 #
edge $-1 $306 0.360594996350458 $304 8.9374171670358962 $301 $386 forward 7 unknown #
coedge $-1 $204 $295 $379 $387 reversed $196 $-1 #
vertex $-1 $387 $388 #
straight-curve $-1 -46.069163377983728 -13.586423248729073 2.0676637553040811 0.52991925155115449 0 0.84804810408105047 I I #
vertex $-1 $302 $389 #
straight-curve $-1 -46.085390789513852 -5.0096010780436346 2.0416944674512933 0.52991925155115449 0 0.84804810408105047 I I #
point $-1 -43.691106905689168 -13.586423248729073 5.8733497665668599 #
point $-1 -43.691106905689168 -5.0096010780436346 5.873349766566859 #
edge $-1 $390 1 $390 0 $210 $-1 forward 7 unknown #
vertex $-1 $211 $391 #
ellipse-curve $-1 -43.369904474481615 -11.135902628533234 3.0087552841742067 -0.84804810408105047 0 0.52991925155115449 0.52991925155115449 0 0.84804810408105047 1 I I #
point $-1 -44.358329596050339 -11.135902628533234 4.8055702210901226 #
edge $-1 $392 1 $392 0 $214 $-1 forward 7 unknown #
vertex $-1 $215 $393 #
ellipse-curve $-1 -43.369904474481615 -7.460121698239476 3.0087552841742067 -0.84804810408105047 0 0.52991925155115449 0.52991925155115449 0 0.84804810408105047 1 I I #
point $-1 -44.358329596050339 -7.460121698239476 4.8055702210901226 #
loop $-1 $-1 $226 $218 #
plane-surface $-1 46.085390789513838 0 0 -1 0 0 0 0 1 forward_v I I I I #
coedge $-1 $321 $221 $223 $325 reversed $139 $-1 #
coedge $-1 $221 $320 $394 $395 reversed $139 $-1 #
coedge $-1 $229 $224 $221 $323 forward $219 $-1 #
edge $-1 $326 5.9873190206723663 $396 8.3816029044970364 $322 $397 forward 7 unknown #
coedge $-1 $223 $222 $329 $398 reversed $87 $-1 #
edge $-1 $399 -92.170781579027633 $326 -87.652576443403234 $320 $400 forward 7 unknown #
vertex $-1 $225 $401 #
straight-curve $-1 43.691106905689168 -4.6490060816931766 5.8733497665668608 0 -1 0 I I #
coedge $-1 $394 $226 $229 $333 reversed $318 $-1 #
coedge $-1 $226 $394 $324 $398 forward $318 $-1 #
vertex $-1 $227 $402 #
straight-curve $-1 46.085390789513838 -5.0096010780436346 64.525011313228802 0 0 1 I I #
straight-curve $-1 -2.7576807997294281 -5.0096010780436346 80.206951037214324 0.52991925155115449 0 -0.84804810408105047 I I #
edge $-1 $396 -13.586423248729073 $230 -5.0096010780436346 $328 $403 forward 7 unknown #
point $-1 46.085390789513838 -5.0096010780436346 5.8733497665668599 #
point $-1 43.691106905689168 -5.0096010780436346 5.8733497665668608 #
edge $-1 $404 1 $404 0 $233 $-1 forward 7 unknown #
vertex $-1 $234 $405 #
ellipse-curve $-1 43.369904474481615 -11.135902628533234 3.0087552841741889 0.84804810408105047 0 0.52991925155115449 0.52991925155115449 0 -0.84804810408105047 1 I I #
point $-1 45.418168099152645 -11.135902628533234 3.1094740129280036 #
edge $-1 $406 1 $406 0 $237 $-1 forward 7 unknown #
vertex $-1 $238 $407 #
ellipse-curve $-1 43.369904474481615 -7.460121698239476 3.0087552841741889 0.84804810408105047 0 0.52991925155115449 0.52991925155115449 0 -0.84804810408105047 1 I I #
point $-1 45.418168099152645 -7.460121698239476 3.1094740129280036 #
plane-surface $-1 46.085390789513838 0 0 -1 0 0 0 0 1 forward_v I I I I #
coedge $-1 $246 $244 $248 $349 reversed $161 $-1 #
edge $-1 $259 -5.8733497665668599 $351 5.8733497665668599 $258 $408 forward 7 unknown #
vertex $-1 $349 $409 #
straight-curve $-1 -46.085390789513838 -18.728668502802339 0 0 0 -1 I I #
edge $-1 $347 -18.728668502802339 $351 18.728668502802339 $345 $410 forward 7 unknown #
straight-curve $-1 0 -18.728668502802339 -5.8733497665668599 -1 0 0 I I #
vertex $-1 $251 $411 #
straight-curve $-1 0 18.728668502802339 -5.8733497665668599 1 0 0 I I #
point $-1 46.085390789513838 18.728668502802339 -5.8733497665668599 #
point $-1 46.085390789513838 -18.728668502802339 -5.8733497665668599 #
straight-curve $-1 -46.085390789513838 0 5.8733497665668599 0 -1 0 I I #
point $-1 -46.085390789513838 18.728668502802339 5.8733497665668599 #
point $-1 -46.085390789513838 -18.728668502802339 5.8733497665668599 #
straight-curve $-1 46.085390789513838 -18.728668502802339 0 0 0 -1 I I #
straight-curve $-1 46.085390789513838 18.728668502802339 0 0 0 -1 I I #
loop $-1 $-1 $274 $268 #
plane-surface $-1 0 -18.728668502802339 0 0 1 0 0 0 1 forward_v I I I I #
coedge $-1 $283 $282 $272 $364 forward $269 $-1 #
edge $-1 $368 -10.649895564919486 $278 -5.5076503108462198 $271 $412 forward 7 unknown #
edge $-1 $370 5.5076503108462198 $367 10.649895564919486 $362 $413 forward 7 unknown #
coedge $-1 $280 $274 $286 $376 reversed $360 $-1 #
coedge $-1 $274 $280 $283 $374 reversed $360 $-1 #
vertex $-1 $374 $414 #
vertex $-1 $275 $415 #
straight-curve $-1 -41.202422604854718 -18.728668502802339 0 0 0 1 I I #
vertex $-1 $289 $416 #
straight-curve $-1 -41.202422604854718 -13.586423248729073 0 0 0 -1 I I #
point $-1 -41.202422604854718 -13.586423248729073 5.8733497665668599 #
straight-curve $-1 -44.202422604854718 -18.728668502802339 0 0 0 -1 I I #
edge $-1 $367 41.202422604854718 $284 44.202422604854718 $366 $417 forward 7 unknown #
point $-1 -44.202422604854718 -18.728668502802339 -5.8733497665668599 #
edge $-1 $287 -44.202422604854718 $368 -41.202422604854718 $365 $418 forward 7 unknown #
point $-1 -44.202422604854718 -18.728668502802339 5.8733497665668599 #
straight-curve $-1 -21.351211302427359 -13.586423248729073 -5.8733497665668599 1 0 0 I I #
coedge $-1 $380 $301 $303 $387 forward $292 $-1 #
coedge $-1 $297 $379 $294 $381 reversed $292 $-1 #
edge $-1 $299 5.0096010780436346 $382 13.586423248729073 $380 $419 forward 7 unknown #
vertex $-1 $296 $420 #
straight-curve $-1 -62.125323679638441 -13.586423248729073 5.8733497665668608 1 0 0 I I #
straight-curve $-1 -46.085390789513838 -5.0096010780436346 25.442383028347287 0 0 -1 I I #
point $-1 -46.085390789513838 -5.0096010780436346 5.8733497665668599 #
straight-curve $-1 -46.085390789513838 -4.6490060816931766 2.0416944674513164 0 -1 0 I I #
edge $-1 $304 -23.400688560895972 $382 -19.569033261780426 $379 $421 forward 7 unknown #
point $-1 -46.085390789513838 -13.586423248729073 2.041694467451316 #
point $-1 -46.085390789513838 -5.0096010780436346 2.041694467451316 #
vertex $-1 $310 $422 #
point $-1 -42.839985222930466 -11.135902628533234 3.856803388255257 #
vertex $-1 $314 $423 #
point $-1 -42.839985222930466 -7.460121698239476 3.856803388255257 #
coedge $-1 $329 $328 $321 $395 forward $318 $-1 #
edge $-1 $396 58.651661546661941 $399 62.48331684577748 $394 $424 forward 7 unknown #
vertex $-1 $333 $425 #
straight-curve $-1 37.703787885016801 -13.586423248729073 5.8733497665668608 1 0 0 I I #
edge $-1 $399 -8.9374171670358962 $330 -0.360594996350458 $329 $426 forward 7 unknown #
vertex $-1 $398 $427 #
straight-curve $-1 -2.7576807997294281 -13.586423248729073 80.206951037214324 -0.52991925155115449 0 0.84804810408105047 I I #
point $-1 43.691106905689168 -13.586423248729073 5.8733497665668608 #
point $-1 46.085390789513838 -5.0096010780436346 2.0416944674513218 #
straight-curve $-1 46.085390789513838 0 5.8733497665668599 0 1 0 I I #
vertex $-1 $336 $428 #
point $-1 43.899823726032771 -11.135902628533234 2.1607071800931381 #
vertex $-1 $340 $429 #
point $-1 43.899823726032771 -7.460121698239476 2.1607071800931381 #
straight-curve $-1 -46.085390789513838 18.728668502802339 0 0 0 -1 I I #
point $-1 -46.085390789513838 -18.728668502802339 -5.8733497665668599 #
straight-curve $-1 -46.085390789513838 0 -5.8733497665668599 0 1 0 I I #
point $-1 -46.085390789513838 18.728668502802339 -5.8733497665668599 #
straight-curve $-1 -41.202422604854718 -8.078772937882853 5.8733497665668599 0 1 0 I I #
straight-curve $-1 -41.202422604854718 -8.078772937882853 -5.8733497665668599 0 -1 0 I I #
point $-1 -41.202422604854718 -18.728668502802339 -5.8733497665668599 #
point $-1 -41.202422604854718 -18.728668502802339 5.8733497665668599 #
point $-1 -41.202422604854718 -13.586423248729073 -5.8733497665668599 #
straight-curve $-1 0 -18.728668502802339 -5.8733497665668599 -1 0 0 I I #
straight-curve $-1 0 -18.728668502802339 5.8733497665668599 1 0 0 I I #
straight-curve $-1 -46.085390789513838 0 5.8733497665668599 0 -1 0 I I #
point $-1 -46.085390789513838 -13.586423248729073 5.8733497665668599 #
straight-curve $-1 -46.085390789513838 -13.586423248729073 25.442383028347287 0 0 1 I I #
point $-1 -42.52185637040057 -11.135902628533234 2.4788360326230521 #
point $-1 -42.52185637040057 -7.460121698239476 2.4788360326230521 #
straight-curve $-1 46.085390789513838 -13.586423248729073 64.525011313228802 0 0 -1 I I #
point $-1 46.085390789513838 -13.586423248729073 5.8733497665668599 #
straight-curve $-1 46.085390789513838 -4.6490060816931766 2.0416944674513147 0 1 0 I I #
point $-1 46.085390789513838 -13.586423248729073 2.0416944674513218 #
point $-1 42.52185637040057 -11.135902628533234 2.4788360326230343 #
point $-1 42.52185637040057 -7.460121698239476 2.4788360326230343 #
End-of-ACIS-data 