500 0 7 0           
7 Unknown 11 ACIS 5.0 NT 24 Thu Mar 25 16:25:00 1999 
-1 9.9999999999999995e-007 1e-010 
body $-1 $7 $-1 $8 #
body $-1 $9 $-1 $10 #
body $-1 $11 $-1 $12 #
body $-1 $13 $-1 $14 #
body $-1 $15 $-1 $16 #
body $-1 $17 $-1 $18 #
body $-1 $19 $-1 $20 #
lump $-1 $-1 $21 $0 #
transform $-1 1 0 0 0 1 0 0 0 1 55.658436841944635 28.509342878857218 14.207688056285255 1 rotate no_reflect no_shear #
lump $-1 $-1 $22 $1 #
transform $-1 1 0 0 0 1 0 0 0 1 55.658436841944635 28.509342878857218 14.207688056285255 1 rotate no_reflect no_shear #
lump $-1 $-1 $23 $2 #
transform $-1 1 0 0 0 1 0 0 0 1 55.658436841944635 28.509342878857218 14.207688056285255 1 rotate no_reflect no_shear #
lump $-1 $-1 $24 $3 #
transform $-1 1 0 0 0 1 0 0 0 1 55.658436841944635 28.509342878857218 14.207688056285255 1 rotate no_reflect no_shear #
lump $-1 $-1 $25 $4 #
transform $-1 1 0 0 0 1 0 0 0 1 55.658436841944635 28.509342878857218 14.207688056285255 1 rotate no_reflect no_shear #
lump $-1 $-1 $26 $5 #
transform $-1 1 0 0 0 1 0 0 0 1 55.658436841944635 28.509342878857218 14.207688056285255 1 rotate no_reflect no_shear #
lump $-1 $-1 $27 $6 #
transform $-1 1 0 0 0 1 0 0 0 1 55.658436841944635 28.509342878857218 14.207688056285255 1 rotate no_reflect no_shear #
shell $-1 $-1 $-1 $28 $-1 $7 #
shell $-1 $-1 $-1 $29 $-1 $9 #
shell $-1 $-1 $-1 $30 $-1 $11 #
shell $-1 $-1 $-1 $31 $-1 $13 #
shell $-1 $-1 $-1 $32 $-1 $15 #
shell $-1 $-1 $-1 $33 $-1 $17 #
shell $-1 $-1 $-1 $34 $-1 $19 #
face $-1 $35 $36 $21 $-1 $37 forward single #
face $-1 $38 $39 $22 $-1 $40 reversed single #
face $-1 $41 $42 $23 $-1 $43 reversed single #
face $-1 $44 $45 $24 $-1 $46 reversed single #
face $-1 $47 $48 $25 $-1 $49 forward single #
face $-1 $50 $51 $26 $-1 $52 reversed single #
face $-1 $53 $54 $27 $-1 $55 forward single #
face $-1 $56 $57 $21 $-1 $58 reversed single #
loop $-1 $-1 $59 $28 #
plane-surface $-1 0 0 14.207688056285255 0 0 1 1 0 0 forward_v I I I I #
face $-1 $60 $61 $22 $-1 $62 reversed single #
loop $-1 $-1 $63 $29 #
plane-surface $-1 -46.723358970224254 -26.926830904364145 0 0 1 0 0 0 1 forward_v I I I I #
face $-1 $64 $65 $23 $-1 $66 reversed single #
loop $-1 $-1 $67 $30 #
plane-surface $-1 46.723358970224254 -26.926830904364145 0 0 1 0 0 0 1 forward_v I I I I #
face $-1 $68 $69 $24 $-1 $70 reversed single #
loop $-1 $-1 $71 $31 #
plane-surface $-1 -27.617013333146424 43.486316937106544 132.82158169340642 1 0 0 0 -0.55919291073839883 -0.82903756765294845 forward_v I I I I #
face $-1 $72 $73 $25 $-1 $74 forward single #
loop $-1 $75 $76 $32 #
cone-surface $-1 -23.620222482501418 22.870021680941171 9.1753108682970463 0 -0.55919291073839883 -0.82903756765294845 1.5 0 0 1 I I 0 1 1.5 forward I I I I #
face $-1 $77 $78 $26 $-1 $79 reversed single #
loop $-1 $-1 $80 $33 #
plane-surface $-1 -19.623431631856413 -90.756949488449948 100.93713683807202 -1 0 0 0 -0.55919291073839883 0.82903756765294845 forward_v I I I I #
face $-1 $81 $82 $27 $-1 $83 forward single #
loop $-1 $84 $85 $34 #
cone-surface $-1 -23.620222482501418 -22.870021680941171 9.1753108682970392 0 0.55919291073839883 -0.82903756765294845 1.5 0 0 1 I I 0 1 1.5 forward I I I I #
face $-1 $86 $87 $21 $-1 $88 reversed single #
loop $-1 $-1 $89 $35 #
plane-surface $-1 0 0 -14.207688056285255 0 0 1 1 0 0 forward_v I I I I #
coedge $-1 $90 $91 $92 $93 forward $36 $-1 #
face $-1 $94 $95 $22 $-1 $96 reversed single #
loop $-1 $-1 $97 $38 #
plane-surface $-1 -46.723358970224254 -22.890472125227838 0 0 -1 0 0 0 -1 forward_v I I I I #
coedge $-1 $98 $99 $100 $101 reversed $39 $-1 #
face $-1 $102 $103 $23 $-1 $104 reversed single #
loop $-1 $-1 $105 $41 #
plane-surface $-1 37.788281098503873 -24.908651514795991 0 1 0 0 0 0 -1 forward_v I I I I #
coedge $-1 $106 $107 $108 $109 forward $42 $-1 #
face $-1 $110 $111 $24 $-1 $112 reversed single #
loop $-1 $-1 $113 $44 #
plane-surface $-1 -23.620222482501418 -18.761289672486164 40.535711495784341 0 0.55919291073839883 0.82903756765294845 1 0 0 forward_v I I I I #
coedge $-1 $114 $115 $116 $117 reversed $45 $-1 #
face $-1 $-1 $118 $25 $-1 $119 forward single #
loop $-1 $120 $121 $47 #
cone-surface $-1 -23.620222482501418 20.930172479947771 6.2993662124867829 0 -0.55919291073839883 -0.82903756765294845 0.75 0 0 1 I I -0.70710678118654713 0.70710678118654802 0.75 forward I I I I #
loop $-1 $-1 $122 $32 #
coedge $-1 $76 $76 $123 $124 reversed $48 $-1 #
face $-1 $125 $126 $26 $-1 $127 reversed single #
loop $-1 $-1 $128 $50 #
plane-surface $-1 -23.620222482501418 -28.50934287885724 8.651266640449947 0 -0.55919291073839883 0.82903756765294845 1 0 0 forward_v I I I I #
coedge $-1 $129 $130 $131 $132 reversed $51 $-1 #
face $-1 $-1 $133 $27 $-1 $134 forward single #
loop $-1 $135 $136 $53 #
cone-surface $-1 -23.620222482501418 -20.930172479947771 6.2993662124867758 0 0.55919291073839883 -0.82903756765294845 0.75 0 0 1 I I -0.70710678118654713 0.70710678118654802 0.75 forward I I I I #
loop $-1 $-1 $137 $34 #
coedge $-1 $85 $85 $138 $139 reversed $54 $-1 #
face $-1 $140 $141 $21 $-1 $142 reversed single #
loop $-1 $-1 $143 $56 #
plane-surface $-1 0 -28.509342878857218 0 0 1 0 0 0 1 forward_v I I I I #
coedge $-1 $144 $145 $146 $147 forward $57 $-1 #
coedge $-1 $148 $59 $149 $150 forward $36 $-1 #
coedge $-1 $59 $148 $151 $152 forward $36 $-1 #
coedge $-1 $153 $154 $59 $93 reversed $155 $-1 #
edge $-1 $156 -28.509342878857218 $157 28.509342878857218 $92 $158 forward 7 unknown #
face $-1 $159 $160 $22 $-1 $161 reversed single #
loop $-1 $-1 $162 $60 #
plane-surface $-1 -37.788281098503873 -24.908651514795991 0 -1 0 0 0 0 1 forward_v I I I I #
coedge $-1 $163 $164 $165 $166 forward $61 $-1 #
coedge $-1 $167 $63 $168 $169 reversed $39 $-1 #
coedge $-1 $63 $167 $170 $171 reversed $39 $-1 #
coedge $-1 $172 $173 $63 $101 forward $174 $-1 #
edge $-1 $175 -14.207688056285255 $176 14.207688056285255 $100 $177 forward 7 unknown #
face $-1 $178 $179 $23 $-1 $180 reversed single #
loop $-1 $-1 $181 $64 #
plane-surface $-1 46.723358970224254 -22.890472125227838 0 0 -1 0 0 0 -1 forward_v I I I I #
coedge $-1 $182 $183 $184 $185 forward $65 $-1 #
coedge $-1 $186 $67 $187 $188 reversed $42 $-1 #
coedge $-1 $67 $186 $189 $190 reversed $42 $-1 #
coedge $-1 $183 $182 $67 $109 reversed $65 $-1 #
edge $-1 $191 -14.207688056285255 $192 14.207688056285255 $108 $193 forward 7 unknown #
face $-1 $194 $195 $24 $-1 $196 reversed single #
loop $-1 $-1 $197 $68 #
plane-surface $-1 -19.623431631856413 43.486316937106544 132.82158169340642 -1 0 0 0 0.55919291073839883 0.82903756765294845 forward_v I I I I #
coedge $-1 $198 $199 $200 $201 reversed $69 $-1 #
coedge $-1 $115 $71 $202 $203 reversed $45 $-1 #
coedge $-1 $71 $114 $198 $204 reversed $45 $-1 #
coedge $-1 $200 $205 $71 $117 forward $206 $-1 #
edge $-1 $207 -6.7661844103039464 $208 1.4715489496489589 $116 $209 forward 7 unknown #
loop $-1 $-1 $123 $72 #
plane-surface $-1 -23.620222482501418 -18.761289672486164 40.535711495784341 0 0.55919291073839883 0.82903756765294845 1 0 0 forward_v I I I I #
loop $-1 $-1 $210 $47 #
coedge $-1 $121 $121 $122 $211 reversed $73 $-1 #
coedge $-1 $122 $122 $121 $211 forward $75 $-1 #
coedge $-1 $123 $123 $76 $124 forward $118 $-1 #
edge $-1 $212 -4.619379701698703e-017 $212 6.2831853071796004 $123 $213 forward 7 unknown #
face $-1 $214 $215 $26 $-1 $216 forward single #
loop $-1 $-1 $217 $77 #
plane-surface $-1 -27.617013333146424 -90.756949488449948 100.93713683807202 1 0 0 0 0.55919291073839883 -0.82903756765294845 forward_v I I I I #
coedge $-1 $218 $219 $220 $221 reversed $78 $-1 #
coedge $-1 $130 $80 $222 $223 reversed $51 $-1 #
coedge $-1 $80 $129 $218 $224 reversed $51 $-1 #
coedge $-1 $220 $225 $80 $132 forward $215 $-1 #
edge $-1 $226 16.869131865367756 $227 25.106865225320604 $131 $228 forward 7 unknown #
loop $-1 $-1 $138 $81 #
plane-surface $-1 -23.620222482501418 -28.50934287885724 8.651266640449947 0 -0.55919291073839883 0.82903756765294845 1 0 0 forward_v I I I I #
loop $-1 $-1 $229 $53 #
coedge $-1 $136 $136 $137 $230 reversed $82 $-1 #
coedge $-1 $137 $137 $136 $230 forward $84 $-1 #
coedge $-1 $138 $138 $85 $139 forward $133 $-1 #
edge $-1 $231 -9.238759403397406e-017 $231 6.2831853071796004 $138 $232 forward 7 unknown #
face $-1 $233 $234 $21 $-1 $235 reversed single #
loop $-1 $-1 $236 $86 #
plane-surface $-1 -55.658436841944635 0 0 1 0 0 0 0 -1 forward_v I I I I #
coedge $-1 $237 $151 $238 $239 forward $87 $-1 #
coedge $-1 $240 $89 $237 $241 forward $57 $-1 #
coedge $-1 $89 $240 $242 $243 forward $57 $-1 #
coedge $-1 $154 $153 $89 $147 reversed $155 $-1 #
edge $-1 $244 -28.509342878857218 $245 28.509342878857218 $146 $246 forward 7 unknown #
coedge $-1 $91 $90 $247 $248 forward $36 $-1 #
coedge $-1 $249 $250 $90 $150 reversed $234 $-1 #
edge $-1 $157 -55.658436841944635 $251 55.658436841944635 $149 $252 forward 7 unknown #
coedge $-1 $143 $253 $91 $152 reversed $87 $-1 #
edge $-1 $254 -55.658436841944635 $156 55.658436841944635 $151 $255 forward 7 unknown #
coedge $-1 $146 $92 $253 $256 forward $155 $-1 #
coedge $-1 $92 $146 $249 $257 reversed $155 $-1 #
loop $-1 $-1 $153 $233 #
vertex $-1 $93 $258 #
vertex $-1 $93 $259 #
straight-curve $-1 55.658436841944635 0 14.207688056285255 0 1 0 I I #
face $-1 $260 $261 $22 $-1 $262 forward single #
loop $-1 $-1 $263 $94 #
plane-surface $-1 0 0 -14.207688056285255 0 0 1 1 0 0 forward_v I I I I #
coedge $-1 $264 $265 $167 $266 forward $95 $-1 #
coedge $-1 $267 $97 $263 $268 reversed $61 $-1 #
coedge $-1 $97 $267 $269 $270 reversed $61 $-1 #
coedge $-1 $265 $264 $97 $166 reversed $95 $-1 #
edge $-1 $271 -14.207688056285255 $272 14.207688056285255 $165 $273 forward 7 unknown #
coedge $-1 $99 $98 $162 $266 reversed $39 $-1 #
coedge $-1 $274 $275 $98 $169 forward $160 $-1 #
edge $-1 $276 14.426601613391746 $175 32.296757356832508 $168 $277 forward 7 unknown #
coedge $-1 $278 $279 $99 $171 forward $261 $-1 #
edge $-1 $176 -32.296757356832508 $280 -14.426601613391746 $170 $281 forward 7 unknown #
coedge $-1 $282 $100 $279 $283 reversed $174 $-1 #
coedge $-1 $100 $282 $274 $284 reversed $174 $-1 #
loop $-1 $-1 $282 $260 #
vertex $-1 $284 $285 #
vertex $-1 $101 $286 #
straight-curve $-1 -55.658436841944635 -26.926830904364145 0 0 0 1 I I #
face $-1 $287 $288 $23 $-1 $289 forward single #
loop $-1 $-1 $187 $102 #
plane-surface $-1 0 0 -14.207688056285255 0 0 1 1 0 0 forward_v I I I I #
coedge $-1 $290 $291 $292 $293 reversed $103 $-1 #
coedge $-1 $108 $105 $294 $295 reversed $65 $-1 #
coedge $-1 $105 $108 $296 $297 reversed $65 $-1 #
coedge $-1 $291 $290 $105 $185 reversed $103 $-1 #
edge $-1 $298 -14.207688056285255 $299 14.207688056285255 $184 $300 forward 7 unknown #
coedge $-1 $107 $106 $301 $302 reversed $42 $-1 #
coedge $-1 $294 $303 $106 $188 forward $179 $-1 #
edge $-1 $304 -32.296757356832508 $192 -14.426601613391746 $187 $305 forward 7 unknown #
coedge $-1 $306 $296 $107 $190 forward $288 $-1 #
edge $-1 $191 14.426601613391746 $307 32.296757356832508 $189 $308 forward 7 unknown #
vertex $-1 $190 $309 #
vertex $-1 $188 $310 #
straight-curve $-1 37.788281098503873 -26.926830904364145 0 0 0 -1 I I #
face $-1 $-1 $206 $24 $-1 $311 forward single #
loop $-1 $-1 $312 $110 #
plane-surface $-1 0 28.509342878857218 0 0 -1 0 0 0 -1 forward_v I I I I #
coedge $-1 $313 $314 $315 $316 reversed $111 $-1 #
coedge $-1 $317 $113 $115 $204 forward $69 $-1 #
coedge $-1 $113 $317 $313 $318 forward $69 $-1 #
coedge $-1 $315 $116 $113 $201 forward $206 $-1 #
edge $-1 $208 -15.806902091895715 $319 -7.8133203906057034 $200 $320 forward 7 unknown #
coedge $-1 $321 $322 $114 $203 forward $195 $-1 #
edge $-1 $323 -57.759524206253289 $207 -52.203102790417951 $202 $324 forward 7 unknown #
edge $-1 $208 47.082183865195383 $323 57.018685757714429 $115 $325 forward 7 unknown #
coedge $-1 $116 $315 $321 $326 forward $206 $-1 #
loop $-1 $-1 $315 $194 #
vertex $-1 $203 $327 #
vertex $-1 $117 $328 #
straight-curve $-1 -27.617013333146424 21.743158468553272 14.207688056285257 0 -1 0 I I #
coedge $-1 $210 $210 $-1 $329 reversed $120 $-1 #
edge $-1 $330 0 $330 6.2831853071796004 $121 $331 forward 7 unknown #
vertex $-1 $124 $332 #
ellipse-curve $-1 -23.620222482501418 24.390476198880766 11.429477348367588 0 0.55919291073839883 0.82903756765294845 1.5 0 0 1 I I #
face $-1 $-1 $333 $26 $-1 $334 reversed single #
loop $-1 $-1 $131 $125 #
plane-surface $-1 0 0 14.207688056285255 0 0 1 1 0 0 forward_v I I I I #
coedge $-1 $335 $336 $337 $338 reversed $126 $-1 #
coedge $-1 $339 $128 $130 $224 forward $78 $-1 #
coedge $-1 $128 $339 $335 $340 forward $78 $-1 #
coedge $-1 $337 $131 $128 $221 forward $215 $-1 #
edge $-1 $227 7.8133203906057034 $341 15.806902091895715 $220 $342 forward 7 unknown #
coedge $-1 $343 $344 $129 $223 forward $333 $-1 #
edge $-1 $345 -41.817301778586049 $226 -36.260880362750754 $222 $346 forward 7 unknown #
edge $-1 $227 -9.9365018925189972 $345 -2.5618607853315064e-014 $130 $347 forward 7 unknown #
coedge $-1 $131 $337 $343 $348 forward $215 $-1 #
vertex $-1 $132 $349 #
vertex $-1 $132 $350 #
straight-curve $-1 -19.623431631856413 -45.378474744224974 14.207688056285257 0 1 0 I I #
coedge $-1 $229 $229 $-1 $351 reversed $135 $-1 #
edge $-1 $352 0 $352 6.2831853071796004 $136 $353 forward 7 unknown #
vertex $-1 $139 $354 #
ellipse-curve $-1 -23.620222482501418 -24.390476198880787 11.429477348367612 0 -0.55919291073839883 0.82903756765294845 1.5 0 0 1 I I #
face $-1 $-1 $155 $21 $-1 $355 reversed single #
loop $-1 $-1 $249 $140 #
plane-surface $-1 0 28.509342878857218 0 0 -1 0 0 0 -1 forward_v I I I I #
coedge $-1 $356 $247 $250 $357 forward $141 $-1 #
coedge $-1 $253 $143 $144 $241 reversed $87 $-1 #
coedge $-1 $247 $356 $143 $239 reversed $141 $-1 #
edge $-1 $254 -14.207688056285255 $358 14.207688056285255 $238 $359 forward 7 unknown #
coedge $-1 $145 $144 $356 $360 forward $57 $-1 #
edge $-1 $245 -55.658436841944635 $358 55.658436841944635 $237 $361 forward 7 unknown #
coedge $-1 $250 $249 $145 $243 reversed $234 $-1 #
edge $-1 $362 -55.658436841944635 $244 55.658436841944635 $242 $363 forward 7 unknown #
vertex $-1 $147 $364 #
vertex $-1 $256 $365 #
straight-curve $-1 55.658436841944635 0 -14.207688056285255 0 -1 0 I I #
coedge $-1 $236 $238 $148 $248 reversed $141 $-1 #
edge $-1 $251 -28.509342878857218 $254 28.509342878857218 $247 $366 forward 7 unknown #
coedge $-1 $242 $149 $154 $257 forward $234 $-1 #
coedge $-1 $149 $242 $236 $357 reversed $234 $-1 #
vertex $-1 $150 $367 #
straight-curve $-1 0 28.509342878857218 14.207688056285255 -1 0 0 I I #
coedge $-1 $151 $237 $153 $256 reversed $87 $-1 #
vertex $-1 $248 $368 #
straight-curve $-1 0 -28.509342878857218 14.207688056285255 1 0 0 I I #
edge $-1 $156 -14.207688056285255 $245 14.207688056285255 $153 $369 forward 7 unknown #
edge $-1 $157 -14.207688056285255 $244 14.207688056285255 $154 $370 forward 7 unknown #
point $-1 55.658436841944635 -28.509342878857218 14.207688056285255 #
point $-1 55.658436841944635 28.509342878857218 14.207688056285255 #
face $-1 $-1 $174 $22 $-1 $371 reversed single #
loop $-1 $-1 $269 $159 #
plane-surface $-1 0 0 14.207688056285255 0 0 1 1 0 0 forward_v I I I I #
coedge $-1 $275 $274 $163 $268 forward $160 $-1 #
coedge $-1 $165 $162 $275 $372 reversed $95 $-1 #
coedge $-1 $162 $165 $278 $373 reversed $95 $-1 #
edge $-1 $280 -14.207688056285255 $276 14.207688056285255 $162 $374 forward 7 unknown #
coedge $-1 $164 $163 $282 $375 reversed $61 $-1 #
edge $-1 $376 -32.296757356832508 $272 -14.426601613391746 $263 $377 forward 7 unknown #
coedge $-1 $279 $278 $164 $270 forward $261 $-1 #
edge $-1 $271 14.426601613391746 $378 32.296757356832508 $269 $379 forward 7 unknown #
vertex $-1 $270 $380 #
vertex $-1 $268 $381 #
straight-curve $-1 -37.788281098503873 -22.890472125227838 0 0 0 -1 I I #
coedge $-1 $263 $168 $173 $284 forward $160 $-1 #
coedge $-1 $168 $263 $264 $372 forward $160 $-1 #
vertex $-1 $169 $382 #
straight-curve $-1 -23.361679485112127 -26.926830904364145 -14.207688056285255 -1 0 0 I I #
coedge $-1 $269 $170 $265 $373 forward $261 $-1 #
coedge $-1 $170 $269 $172 $283 forward $261 $-1 #
vertex $-1 $171 $383 #
straight-curve $-1 -23.361679485112127 -26.926830904364145 14.207688056285255 1 0 0 I I #
coedge $-1 $173 $172 $267 $375 forward $174 $-1 #
edge $-1 $378 22.890472125227838 $176 26.926830904364145 $172 $384 forward 7 unknown #
edge $-1 $175 -26.926830904364145 $376 -22.890472125227838 $173 $385 forward 7 unknown #
point $-1 -55.658436841944635 -26.926830904364145 -14.207688056285255 #
point $-1 -55.658436841944635 -26.926830904364145 14.207688056285255 #
face $-1 $-1 $386 $23 $-1 $387 reversed single #
loop $-1 $-1 $189 $178 #
plane-surface $-1 0 0 14.207688056285255 0 0 1 1 0 0 forward_v I I I I #
coedge $-1 $184 $181 $388 $389 reversed $103 $-1 #
coedge $-1 $181 $184 $390 $391 reversed $103 $-1 #
coedge $-1 $392 $393 $181 $293 forward $386 $-1 #
edge $-1 $394 -14.207688056285255 $395 14.207688056285255 $292 $396 forward 7 unknown #
coedge $-1 $388 $187 $182 $295 forward $179 $-1 #
edge $-1 $192 -14.472505146966149 $299 -10.436146367829842 $294 $397 forward 7 unknown #
coedge $-1 $189 $390 $183 $297 forward $288 $-1 #
edge $-1 $298 10.436146367829842 $191 14.472505146966149 $296 $398 forward 7 unknown #
vertex $-1 $297 $399 #
vertex $-1 $295 $400 #
straight-curve $-1 37.788281098503873 -22.890472125227838 0 0 0 -1 I I #
coedge $-1 $393 $392 $186 $302 forward $386 $-1 #
edge $-1 $307 -14.207688056285255 $304 14.207688056285255 $301 $401 forward 7 unknown #
coedge $-1 $187 $388 $393 $402 forward $179 $-1 #
vertex $-1 $302 $403 #
straight-curve $-1 23.361679485112127 -26.926830904364145 -14.207688056285255 -1 0 0 I I #
coedge $-1 $390 $189 $392 $404 forward $288 $-1 #
vertex $-1 $404 $405 #
straight-curve $-1 23.361679485112127 -26.926830904364145 14.207688056285255 1 0 0 I I #
point $-1 37.788281098503873 -26.926830904364145 14.207688056285255 #
point $-1 37.788281098503873 -26.926830904364145 -14.207688056285255 #
plane-surface $-1 0 0 14.207688056285255 0 0 1 1 0 0 forward_v I I I I #
coedge $-1 $322 $321 $314 $406 forward $195 $-1 #
coedge $-1 $314 $197 $199 $318 reversed $111 $-1 #
coedge $-1 $197 $313 $312 $406 reversed $111 $-1 #
coedge $-1 $205 $200 $197 $316 forward $206 $-1 #
edge $-1 $319 -1.4715489496489589 $407 6.7661844103039464 $315 $408 forward 7 unknown #
coedge $-1 $199 $198 $322 $409 reversed $69 $-1 #
edge $-1 $410 -57.018685757714429 $319 -47.082183865195383 $313 $411 forward 7 unknown #
vertex $-1 $201 $412 #
straight-curve $-1 -11.810111241250709 20.27160951890432 14.207688056285257 1 0 0 I I #
coedge $-1 $312 $202 $205 $326 reversed $195 $-1 #
coedge $-1 $202 $312 $317 $409 forward $195 $-1 #
vertex $-1 $203 $413 #
straight-curve $-1 -27.617013333146424 28.509342878857218 66.410790846703208 0 0 1 I I #
straight-curve $-1 -27.617013333146424 -18.761289672486164 40.535711495784341 0 0.82903756765294845 -0.55919291073839883 I I #
edge $-1 $407 19.623431631856413 $207 27.617013333146424 $321 $414 forward 7 unknown #
point $-1 -27.617013333146424 28.509342878857218 14.207688056285255 #
point $-1 -27.617013333146424 20.271609518904313 14.207688056285257 #
edge $-1 $415 1 $415 0 $210 $-1 forward 7 unknown #
vertex $-1 $211 $416 #
ellipse-curve $-1 -23.620222482501418 21.34956716300157 6.9211443882264945 0 0.55919291073839883 0.82903756765294845 1.5 0 0 1 I I #
point $-1 -22.120222482501418 24.390476198880773 11.429477348367598 #
loop $-1 $-1 $222 $214 #
plane-surface $-1 0 -28.509342878857218 0 0 1 0 0 0 1 forward_v I I I I #
coedge $-1 $336 $217 $219 $340 reversed $126 $-1 #
coedge $-1 $217 $335 $417 $418 reversed $126 $-1 #
coedge $-1 $225 $220 $217 $338 forward $215 $-1 #
edge $-1 $341 -25.106865225320604 $419 -16.869131865367756 $337 $420 forward 7 unknown #
coedge $-1 $219 $218 $344 $421 reversed $78 $-1 #
edge $-1 $422 2.5618607853315064e-014 $341 9.9365018925189972 $335 $423 forward 7 unknown #
vertex $-1 $221 $424 #
straight-curve $-1 -11.810111241250709 -20.271609518904366 14.207688056285255 -1 0 0 I I #
coedge $-1 $417 $222 $225 $348 reversed $333 $-1 #
coedge $-1 $222 $417 $339 $421 forward $333 $-1 #
vertex $-1 $223 $425 #
straight-curve $-1 -19.623431631856413 -28.509342878857218 50.468568419036011 0 0 1 I I #
straight-curve $-1 -19.623431631856413 -28.50934287885724 8.651266640449947 0 -0.82903756765294845 -0.55919291073839883 I I #
edge $-1 $419 -27.617013333146424 $226 -19.623431631856413 $343 $426 forward 7 unknown #
point $-1 -19.623431631856413 -28.509342878857218 14.207688056285255 #
point $-1 -19.623431631856413 -20.27160951890437 14.207688056285255 #
edge $-1 $427 1 $427 0 $229 $-1 forward 7 unknown #
vertex $-1 $230 $428 #
ellipse-curve $-1 -23.620222482501418 -21.34956716300157 6.9211443882264874 0 -0.55919291073839883 0.82903756765294845 1.5 0 0 1 I I #
point $-1 -22.120222482501418 -24.390476198880773 11.429477348367591 #
plane-surface $-1 55.658436841944635 0 0 -1 0 0 0 0 1 forward_v I I I I #
coedge $-1 $238 $236 $240 $360 reversed $141 $-1 #
edge $-1 $251 -14.207688056285255 $362 14.207688056285255 $250 $429 forward 7 unknown #
vertex $-1 $360 $430 #
straight-curve $-1 -55.658436841944635 -28.509342878857218 0 0 0 -1 I I #
edge $-1 $358 -28.509342878857218 $362 28.509342878857218 $356 $431 forward 7 unknown #
straight-curve $-1 0 -28.509342878857218 -14.207688056285255 -1 0 0 I I #
vertex $-1 $243 $432 #
straight-curve $-1 0 28.509342878857218 -14.207688056285255 1 0 0 I I #
point $-1 55.658436841944635 28.509342878857218 -14.207688056285255 #
point $-1 55.658436841944635 -28.509342878857218 -14.207688056285255 #
straight-curve $-1 -55.658436841944635 0 14.207688056285255 0 -1 0 I I #
point $-1 -55.658436841944635 28.509342878857218 14.207688056285255 #
point $-1 -55.658436841944635 -28.509342878857218 14.207688056285255 #
straight-curve $-1 55.658436841944635 -28.509342878857218 0 0 0 -1 I I #
straight-curve $-1 55.658436841944635 28.509342878857218 0 0 0 -1 I I #
plane-surface $-1 -55.658436841944635 0 0 1 0 0 0 0 -1 forward_v I I I I #
edge $-1 $272 10.436146367829842 $276 14.472505146966149 $275 $433 forward 7 unknown #
edge $-1 $280 -14.472505146966149 $271 -10.436146367829842 $278 $434 forward 7 unknown #
straight-curve $-1 -37.788281098503873 -26.926830904364145 0 0 0 -1 I I #
edge $-1 $378 -14.207688056285255 $376 14.207688056285255 $282 $435 forward 7 unknown #
vertex $-1 $375 $436 #
straight-curve $-1 -23.361679485112127 -22.890472125227838 -14.207688056285255 1 0 0 I I #
vertex $-1 $283 $437 #
straight-curve $-1 -23.361679485112127 -22.890472125227838 14.207688056285255 -1 0 0 I I #
point $-1 -37.788281098503873 -22.890472125227838 14.207688056285255 #
point $-1 -37.788281098503873 -22.890472125227838 -14.207688056285255 #
point $-1 -37.788281098503873 -26.926830904364145 -14.207688056285255 #
point $-1 -37.788281098503873 -26.926830904364145 14.207688056285255 #
straight-curve $-1 -55.658436841944635 0 14.207688056285255 0 -1 0 I I #
straight-curve $-1 -55.658436841944635 0 -14.207688056285255 0 1 0 I I #
loop $-1 $-1 $301 $287 #
plane-surface $-1 55.658436841944635 0 0 -1 0 0 0 0 1 forward_v I I I I #
coedge $-1 $303 $294 $290 $389 forward $179 $-1 #
edge $-1 $299 14.426601613391746 $394 32.296757356832508 $388 $438 forward 7 unknown #
coedge $-1 $296 $306 $291 $391 forward $288 $-1 #
edge $-1 $395 -32.296757356832508 $298 -14.426601613391746 $390 $439 forward 7 unknown #
coedge $-1 $301 $292 $306 $404 reversed $386 $-1 #
coedge $-1 $292 $301 $303 $402 reversed $386 $-1 #
vertex $-1 $402 $440 #
vertex $-1 $293 $441 #
straight-curve $-1 55.658436841944635 -22.890472125227838 0 0 0 1 I I #
straight-curve $-1 37.788281098503873 -12.454325757397996 -14.207688056285255 0 1 0 I I #
straight-curve $-1 37.788281098503873 -12.454325757397996 14.207688056285255 0 -1 0 I I #
point $-1 37.788281098503873 -22.890472125227838 14.207688056285255 #
point $-1 37.788281098503873 -22.890472125227838 -14.207688056285255 #
straight-curve $-1 55.658436841944635 -26.926830904364145 0 0 0 -1 I I #
edge $-1 $394 22.890472125227838 $304 26.926830904364145 $393 $442 forward 7 unknown #
point $-1 55.658436841944635 -26.926830904364145 -14.207688056285255 #
edge $-1 $307 -26.926830904364145 $395 -22.890472125227838 $392 $443 forward 7 unknown #
point $-1 55.658436841944635 -26.926830904364145 14.207688056285255 #
edge $-1 $407 52.203102790417951 $410 57.759524206253289 $312 $444 forward 7 unknown #
vertex $-1 $326 $445 #
straight-curve $-1 -19.623431631856413 21.743158468553272 14.207688056285257 0 1 0 I I #
edge $-1 $410 7.8133203906057034 $323 15.806902091895715 $322 $446 forward 7 unknown #
vertex $-1 $409 $447 #
straight-curve $-1 -19.623431631856413 -18.761289672486164 40.535711495784341 0 -0.82903756765294845 0.55919291073839883 I I #
point $-1 -19.623431631856413 20.271609518904313 14.207688056285257 #
point $-1 -27.617013333146424 28.509342878857218 8.6512666404499221 #
straight-curve $-1 0 28.509342878857218 14.207688056285255 -1 0 0 I I #
vertex $-1 $329 $448 #
point $-1 -22.120222482501418 21.34956716300157 6.9211443882264945 #
coedge $-1 $344 $343 $336 $418 forward $333 $-1 #
edge $-1 $419 36.260880362750754 $422 41.817301778586049 $417 $449 forward 7 unknown #
vertex $-1 $348 $450 #
straight-curve $-1 -27.617013333146424 -45.378474744224974 14.207688056285257 0 -1 0 I I #
edge $-1 $422 -15.806902091895715 $345 -7.8133203906057034 $344 $451 forward 7 unknown #
vertex $-1 $421 $452 #
straight-curve $-1 -27.617013333146424 -28.50934287885724 8.651266640449947 0 0.82903756765294845 0.55919291073839883 I I #
point $-1 -27.617013333146424 -20.27160951890437 14.207688056285255 #
point $-1 -19.623431631856413 -28.509342878857218 8.6512666404499612 #
straight-curve $-1 0 -28.509342878857218 14.207688056285255 1 0 0 I I #
vertex $-1 $351 $453 #
point $-1 -22.120222482501418 -21.34956716300157 6.9211443882264874 #
straight-curve $-1 -55.658436841944635 28.509342878857218 0 0 0 -1 I I #
point $-1 -55.658436841944635 -28.509342878857218 -14.207688056285255 #
straight-curve $-1 -55.658436841944635 0 -14.207688056285255 0 1 0 I I #
point $-1 -55.658436841944635 28.509342878857218 -14.207688056285255 #
straight-curve $-1 -37.788281098503873 -12.454325757397996 -14.207688056285255 0 -1 0 I I #
straight-curve $-1 -37.788281098503873 -12.454325757397996 14.207688056285255 0 1 0 I I #
straight-curve $-1 -55.658436841944635 -22.890472125227838 0 0 0 -1 I I #
point $-1 -55.658436841944635 -22.890472125227838 -14.207688056285255 #
point $-1 -55.658436841944635 -22.890472125227838 14.207688056285255 #
straight-curve $-1 23.361679485112127 -22.890472125227838 -14.207688056285255 1 0 0 I I #
straight-curve $-1 23.361679485112127 -22.890472125227838 14.207688056285255 -1 0 0 I I #
point $-1 55.658436841944635 -22.890472125227838 -14.207688056285255 #
point $-1 55.658436841944635 -22.890472125227838 14.207688056285255 #
straight-curve $-1 55.658436841944635 0 -14.207688056285255 0 -1 0 I I #
straight-curve $-1 55.658436841944635 0 14.207688056285255 0 1 0 I I #
straight-curve $-1 -19.623431631856413 28.509342878857218 66.410790846703208 0 0 -1 I I #
point $-1 -19.623431631856413 28.509342878857218 14.207688056285255 #
straight-curve $-1 -11.810111241250709 28.509342878857225 8.6512666404499257 -1 0 0 I I #
point $-1 -19.623431631856413 28.509342878857218 8.6512666404499221 #
point $-1 -23.620222482501418 20.510777796893972 5.6775880367470712 #
straight-curve $-1 -27.617013333146424 -28.509342878857218 50.468568419036011 0 0 -1 I I #
point $-1 -27.617013333146424 -28.509342878857218 14.207688056285255 #
straight-curve $-1 -11.810111241250709 -28.509342878857218 8.651266640449963 1 0 0 I I #
point $-1 -27.617013333146424 -28.509342878857218 8.6512666404499612 #
point $-1 -23.620222482501418 -20.510777796893972 5.6775880367470641 #
End-of-ACIS-data 