500 0 9 0           
7 Unknown 11 ACIS 5.0 NT 24 Thu Mar 25 20:50:26 1999 
-1 9.9999999999999995e-007 1e-010 
body $-1 $9 $-1 $10 #
body $-1 $11 $-1 $12 #
body $-1 $13 $-1 $14 #
body $-1 $15 $-1 $16 #
body $-1 $17 $-1 $18 #
body $-1 $19 $-1 $20 #
body $-1 $21 $-1 $22 #
body $-1 $23 $-1 $24 #
body $-1 $25 $-1 $26 #
lump $-1 $-1 $27 $0 #
transform $-1 1 0 0 0 1 0 0 0 1 53.70525223548082 33.085267576398905 9.8349080408459191 1 rotate no_reflect no_shear #
lump $-1 $-1 $28 $1 #
transform $-1 1 0 0 0 1 0 0 0 1 53.70525223548082 33.085267576398905 9.8349080408459191 1 rotate no_reflect no_shear #
lump $-1 $-1 $29 $2 #
transform $-1 1 0 0 0 1 0 0 0 1 53.70525223548082 33.085267576398905 9.8349080408459191 1 rotate no_reflect no_shear #
lump $-1 $-1 $30 $3 #
transform $-1 1 0 0 0 1 0 0 0 1 53.70525223548082 33.085267576398905 9.8349080408459191 1 rotate no_reflect no_shear #
lump $-1 $-1 $31 $4 #
transform $-1 1 0 0 0 1 0 0 0 1 53.70525223548082 33.085267576398905 9.8349080408459191 1 rotate no_reflect no_shear #
lump $-1 $-1 $32 $5 #
transform $-1 1 0 0 0 1 0 0 0 1 53.70525223548082 33.085267576398905 9.8349080408459191 1 rotate no_reflect no_shear #
lump $-1 $-1 $33 $6 #
transform $-1 1 0 0 0 1 0 0 0 1 53.70525223548082 33.085267576398905 9.8349080408459191 1 rotate no_reflect no_shear #
lump $-1 $-1 $34 $7 #
transform $-1 1 0 0 0 1 0 0 0 1 53.70525223548082 33.085267576398905 9.8349080408459191 1 rotate no_reflect no_shear #
lump $-1 $-1 $35 $8 #
transform $-1 1 0 0 0 1 0 0 0 1 53.70525223548082 33.085267576398905 9.8349080408459191 1 rotate no_reflect no_shear #
shell $-1 $-1 $-1 $36 $-1 $9 #
shell $-1 $-1 $-1 $37 $-1 $11 #
shell $-1 $-1 $-1 $38 $-1 $13 #
shell $-1 $-1 $-1 $39 $-1 $15 #
shell $-1 $-1 $-1 $40 $-1 $17 #
shell $-1 $-1 $-1 $41 $-1 $19 #
shell $-1 $-1 $-1 $42 $-1 $21 #
shell $-1 $-1 $-1 $43 $-1 $23 #
shell $-1 $-1 $-1 $44 $-1 $25 #
face $-1 $45 $46 $27 $-1 $47 reversed single #
face $-1 $48 $49 $28 $-1 $50 forward single #
face $-1 $51 $52 $29 $-1 $53 forward single #
face $-1 $54 $55 $30 $-1 $56 reversed single #
face $-1 $57 $58 $31 $-1 $59 forward single #
face $-1 $60 $61 $32 $-1 $62 forward single #
face $-1 $63 $64 $33 $-1 $65 forward single #
face $-1 $66 $67 $34 $-1 $68 reversed single #
face $-1 $69 $70 $35 $-1 $71 forward single #
face $-1 $72 $73 $27 $-1 $74 forward single #
loop $-1 $-1 $75 $36 #
plane-surface $-1 0 33.085267576398905 0 0 -1 0 0 0 -1 forward_v I I I I #
face $-1 $76 $77 $28 $-1 $78 forward single #
loop $-1 $-1 $79 $37 #
plane-surface $-1 0 -33.085267576398905 0 0 1 0 0 0 1 forward_v I I I I #
face $-1 $80 $81 $29 $-1 $82 reversed single #
loop $-1 $-1 $83 $38 #
plane-surface $-1 0 33.085267576398905 0 0 -1 0 0 0 -1 forward_v I I I I #
face $-1 $84 $85 $30 $-1 $86 reversed single #
loop $-1 $-1 $87 $39 #
plane-surface $-1 -125.57690908583777 8.7189837295962178 86.024019326033581 0 1 0 -0.66913061440640931 0 0.74314481823134659 forward_v I I I I #
face $-1 $88 $89 $31 $-1 $90 forward single #
loop $-1 $91 $92 $40 #
cone-surface $-1 -51.088824319528435 10.023669912723655 7.3530864236953866 0.66913061440640931 0 -0.74314481823134659 0.3715724091156733 0 0.33456530720320465 1 I I 0 1 0.5 forward I I I I #
face $-1 $93 $94 $32 $-1 $95 forward single #
loop $-1 $96 $97 $41 #
cone-surface $-1 -51.088824319528435 11.980699187414807 7.3530864236953866 0.66913061440640931 0 -0.74314481823134659 0.3715724091156733 0 0.33456530720320465 1 I I 0 1 0.5 forward I I I I #
face $-1 $98 $99 $33 $-1 $100 forward single #
loop $-1 $101 $102 $42 #
cone-surface $-1 -51.088824319528435 13.937728462105959 7.3530864236953866 0.66913061440640931 0 -0.74314481823134659 0.3715724091156733 0 0.33456530720320465 1 I I 0 1 0.5 forward I I I I #
face $-1 $103 $104 $34 $-1 $105 reversed single #
loop $-1 $-1 $106 $43 #
plane-surface $-1 72.217377182277176 -14.746438405762198 156.25988828389936 0 -1 0 -0.78801076186113728 0 -0.61566146476048833 forward_v I I I I #
face $-1 $107 $108 $35 $-1 $109 forward single #
loop $-1 $110 $111 $44 #
cone-surface $-1 51.444325765189674 -18.627855821368797 7.2222516620489028 -0.78801076186113728 0 -0.61566146476048833 0.61566146476048833 0 -0.78801076186113728 1 I I 0 1 1 forward I I I I #
face $-1 $112 $113 $27 $-1 $114 reversed single #
loop $-1 $-1 $115 $45 #
plane-surface $-1 0 0 9.8349080408459191 0 0 1 1 0 0 forward_v I I I I #
coedge $-1 $116 $117 $118 $119 reversed $46 $-1 #
face $-1 $120 $121 $28 $-1 $122 reversed single #
loop $-1 $-1 $123 $48 #
plane-surface $-1 0 0 9.8349080408459191 0 0 1 1 0 0 forward_v I I I I #
coedge $-1 $124 $125 $126 $127 forward $49 $-1 #
face $-1 $128 $129 $29 $-1 $130 reversed single #
loop $-1 $-1 $131 $51 #
plane-surface $-1 0 0 -9.8349080408459191 0 0 1 1 0 0 forward_v I I I I #
coedge $-1 $132 $133 $134 $135 forward $52 $-1 #
face $-1 $136 $137 $30 $-1 $138 reversed single #
loop $-1 $-1 $139 $54 #
plane-surface $-1 -53.705252235480827 11.980699187414807 6.2024595048235511 -0.66913061440640931 0 0.74314481823134659 0.74314481823134659 0 0.66913061440640931 forward_v I I I I #
coedge $-1 $140 $141 $142 $143 reversed $55 $-1 #
face $-1 $-1 $144 $31 $-1 $145 forward single #
loop $-1 $146 $147 $57 #
cone-surface $-1 -50.322235107836505 10.023669912723655 6.5017028699982031 0.66913061440640931 0 -0.74314481823134659 0.18578620455783665 0 0.16728265360160233 1 I I -0.70710678118654879 0.70710678118654635 0.25 forward I I I I #
loop $-1 $-1 $148 $40 #
coedge $-1 $92 $92 $149 $150 reversed $58 $-1 #
face $-1 $-1 $151 $32 $-1 $152 forward single #
loop $-1 $153 $154 $60 #
cone-surface $-1 -50.322235107836505 11.980699187414807 6.5017028699982031 0.66913061440640931 0 -0.74314481823134659 0.18578620455783665 0 0.16728265360160233 1 I I -0.70710678118654879 0.70710678118654635 0.25 forward I I I I #
loop $-1 $-1 $155 $41 #
coedge $-1 $97 $97 $156 $157 reversed $61 $-1 #
face $-1 $-1 $158 $33 $-1 $159 forward single #
loop $-1 $160 $161 $63 #
cone-surface $-1 -50.322235107836505 13.937728462105959 6.5017028699982031 0.66913061440640931 0 -0.74314481823134659 0.18578620455783665 0 0.16728265360160233 1 I I -0.70710678118654879 0.70710678118654635 0.25 forward I I I I #
loop $-1 $-1 $162 $42 #
coedge $-1 $102 $102 $163 $164 reversed $64 $-1 #
face $-1 $165 $166 $34 $-1 $167 reversed single #
loop $-1 $-1 $168 $66 #
plane-surface $-1 -12.423256277774385 -18.627855821368797 90.131379770644145 0.78801076186113728 0 0.61566146476048833 0.61566146476048833 0 -0.78801076186113728 forward_v I I I I #
coedge $-1 $169 $170 $171 $172 reversed $67 $-1 #
face $-1 $-1 $173 $35 $-1 $174 forward single #
loop $-1 $175 $176 $69 #
cone-surface $-1 50.486409426603508 -18.627855821368797 6.4738454159983103 -0.78801076186113728 0 -0.61566146476048833 0.30783073238024417 0 -0.39400538093056864 1 I I -0.70710678118654746 0.70710678118654746 0.5 forward I I I I #
loop $-1 $-1 $177 $44 #
coedge $-1 $111 $111 $178 $179 reversed $70 $-1 #
face $-1 $180 $181 $27 $-1 $182 reversed single #
loop $-1 $-1 $183 $72 #
plane-surface $-1 0 0 -9.8349080408459191 0 0 1 1 0 0 forward_v I I I I #
coedge $-1 $184 $185 $186 $187 forward $73 $-1 #
coedge $-1 $188 $75 $189 $190 reversed $46 $-1 #
coedge $-1 $75 $188 $191 $192 forward $46 $-1 #
coedge $-1 $183 $193 $75 $119 forward $113 $-1 #
edge $-1 $194 -53.70525223548082 $195 53.70525223548082 $75 $196 forward 7 unknown #
face $-1 $197 $198 $28 $-1 $199 reversed single #
loop $-1 $-1 $200 $76 #
plane-surface $-1 -53.70525223548082 0 0 1 0 0 0 0 -1 forward_v I I I I #
coedge $-1 $201 $202 $203 $204 forward $77 $-1 #
coedge $-1 $203 $79 $200 $205 reversed $49 $-1 #
coedge $-1 $79 $203 $206 $207 reversed $49 $-1 #
coedge $-1 $208 $209 $79 $127 reversed $198 $-1 #
edge $-1 $210 -53.70525223548082 $211 53.70525223548082 $126 $212 forward 7 unknown #
face $-1 $213 $214 $29 $-1 $215 reversed single #
loop $-1 $-1 $216 $80 #
plane-surface $-1 -38.341521291238251 38.394362060060388 0 1 0 0 0 0 -1 forward_v I I I I #
coedge $-1 $217 $218 $133 $219 forward $81 $-1 #
coedge $-1 $220 $83 $221 $222 reversed $52 $-1 #
coedge $-1 $83 $220 $131 $219 reversed $52 $-1 #
coedge $-1 $223 $224 $83 $135 reversed $225 $-1 #
edge $-1 $226 -9.8349080408459191 $227 9.8349080408459191 $134 $228 forward 7 unknown #
face $-1 $229 $230 $30 $-1 $231 forward single #
loop $-1 $-1 $232 $84 #
plane-surface $-1 -125.57690908583777 15.242414645233396 86.024019326033581 0 -1 0 0.66913061440640931 0 -0.74314481823134659 forward_v I I I I #
coedge $-1 $233 $234 $235 $236 reversed $85 $-1 #
coedge $-1 $141 $87 $237 $238 reversed $55 $-1 #
coedge $-1 $87 $140 $233 $239 reversed $55 $-1 #
coedge $-1 $235 $240 $87 $143 forward $230 $-1 #
edge $-1 $241 9.0832023074380643 $242 13.117445023162183 $142 $243 forward 7 unknown #
loop $-1 $-1 $149 $88 #
plane-surface $-1 -53.705252235480827 11.980699187414807 6.2024595048235511 -0.66913061440640931 0 0.74314481823134659 0.74314481823134659 0 0.66913061440640931 forward_v I I I I #
loop $-1 $-1 $244 $57 #
coedge $-1 $147 $147 $148 $245 reversed $89 $-1 #
coedge $-1 $148 $148 $147 $245 forward $91 $-1 #
coedge $-1 $149 $149 $92 $150 forward $144 $-1 #
edge $-1 $246 0 $246 6.2831853071796004 $149 $247 forward 7 unknown #
loop $-1 $-1 $156 $93 #
plane-surface $-1 -53.705252235480827 11.980699187414807 6.2024595048235511 -0.66913061440640931 0 0.74314481823134659 0.74314481823134659 0 0.66913061440640931 forward_v I I I I #
loop $-1 $-1 $248 $60 #
coedge $-1 $154 $154 $155 $249 reversed $94 $-1 #
coedge $-1 $155 $155 $154 $249 forward $96 $-1 #
coedge $-1 $156 $156 $97 $157 forward $151 $-1 #
edge $-1 $250 0 $250 6.2831853071796004 $156 $251 forward 7 unknown #
loop $-1 $-1 $163 $98 #
plane-surface $-1 -53.705252235480827 11.980699187414807 6.2024595048235511 -0.66913061440640931 0 0.74314481823134659 0.74314481823134659 0 0.66913061440640931 forward_v I I I I #
loop $-1 $-1 $252 $63 #
coedge $-1 $161 $161 $162 $253 reversed $99 $-1 #
coedge $-1 $162 $162 $161 $253 forward $101 $-1 #
coedge $-1 $163 $163 $102 $164 forward $158 $-1 #
edge $-1 $254 0 $254 6.2831853071796004 $163 $255 forward 7 unknown #
face $-1 $256 $257 $34 $-1 $258 reversed single #
loop $-1 $-1 $259 $103 #
plane-surface $-1 72.217377182277176 -22.509273236975396 156.25988828389936 0 1 0 0.78801076186113728 0 0.61566146476048833 forward_v I I I I #
coedge $-1 $260 $261 $262 $263 reversed $104 $-1 #
coedge $-1 $170 $106 $264 $265 reversed $67 $-1 #
coedge $-1 $106 $169 $260 $266 reversed $67 $-1 #
coedge $-1 $262 $267 $106 $172 forward $268 $-1 #
edge $-1 $269 -17.596563644342233 $270 -14.202532619071128 $171 $271 forward 7 unknown #
loop $-1 $-1 $178 $107 #
plane-surface $-1 -12.423256277774385 -18.627855821368797 90.131379770644145 0.78801076186113728 0 0.61566146476048833 0.61566146476048833 0 -0.78801076186113728 forward_v I I I I #
loop $-1 $-1 $272 $69 #
coedge $-1 $176 $176 $177 $273 reversed $108 $-1 #
coedge $-1 $177 $177 $176 $273 forward $110 $-1 #
coedge $-1 $178 $178 $111 $179 forward $173 $-1 #
edge $-1 $274 0 $274 6.2831853071796004 $178 $275 forward 7 unknown #
face $-1 $276 $277 $27 $-1 $278 reversed single #
loop $-1 $-1 $279 $112 #
plane-surface $-1 0 -33.085267576398905 0 0 1 0 0 0 1 forward_v I I I I #
coedge $-1 $280 $118 $281 $282 forward $113 $-1 #
coedge $-1 $283 $115 $188 $284 forward $73 $-1 #
coedge $-1 $115 $283 $285 $286 forward $73 $-1 #
coedge $-1 $287 $191 $115 $187 reversed $288 $-1 #
edge $-1 $289 -33.085267576398905 $290 33.085267576398905 $186 $291 forward 7 unknown #
coedge $-1 $117 $116 $184 $284 reversed $46 $-1 #
coedge $-1 $292 $293 $116 $190 forward $277 $-1 #
edge $-1 $294 -9.8349080408459191 $194 9.8349080408459191 $116 $295 forward 7 unknown #
coedge $-1 $186 $281 $117 $192 reversed $288 $-1 #
edge $-1 $290 -9.8349080408459191 $195 9.8349080408459191 $191 $296 forward 7 unknown #
coedge $-1 $118 $280 $292 $297 forward $113 $-1 #
vertex $-1 $119 $298 #
vertex $-1 $282 $299 #
straight-curve $-1 0 33.085267576398905 -9.8349080408459191 1 0 0 I I #
face $-1 $300 $301 $28 $-1 $302 reversed single #
loop $-1 $-1 $208 $120 #
plane-surface $-1 0 -38.373264746110657 6.8349080408459191 0 0 1 1 0 0 forward_v I I I I #
coedge $-1 $303 $304 $124 $205 forward $121 $-1 #
coedge $-1 $305 $123 $304 $306 forward $77 $-1 #
coedge $-1 $123 $305 $307 $308 forward $77 $-1 #
coedge $-1 $125 $124 $123 $204 reversed $49 $-1 #
edge $-1 $309 -53.70525223548082 $310 53.70525223548082 $123 $311 forward 7 unknown #
edge $-1 $310 -9.8349080408459191 $211 -6.8349080408459191 $200 $312 forward 7 unknown #
coedge $-1 $307 $313 $125 $207 forward $314 $-1 #
edge $-1 $210 6.8349080408459191 $309 9.8349080408459191 $206 $315 forward 7 unknown #
coedge $-1 $316 $126 $313 $317 forward $198 $-1 #
coedge $-1 $126 $316 $303 $318 forward $198 $-1 #
vertex $-1 $207 $319 #
vertex $-1 $205 $320 #
straight-curve $-1 0 -33.085267576398905 6.8349080408459191 -1 0 0 I I #
face $-1 $321 $225 $29 $-1 $322 reversed single #
loop $-1 $-1 $323 $128 #
plane-surface $-1 -36.188478722513615 43.703456543721877 0 0 -1 0 0 0 -1 forward_v I I I I #
coedge $-1 $324 $325 $326 $327 forward $129 $-1 #
coedge $-1 $328 $131 $324 $329 forward $81 $-1 #
coedge $-1 $131 $328 $223 $330 forward $81 $-1 #
edge $-1 $226 34.035436153788979 $331 38.341521291238251 $131 $332 forward 7 unknown #
coedge $-1 $133 $132 $333 $334 forward $52 $-1 #
coedge $-1 $335 $336 $132 $222 forward $337 $-1 #
edge $-1 $338 -38.341521291238251 $227 -34.035436153788979 $221 $339 forward 7 unknown #
coedge $-1 $340 $134 $218 $330 reversed $225 $-1 #
coedge $-1 $134 $340 $335 $341 reversed $225 $-1 #
loop $-1 $-1 $134 $213 #
vertex $-1 $219 $342 #
vertex $-1 $341 $343 #
straight-curve $-1 -34.035436153788979 33.085267576398905 0 0 0 1 I I #
face $-1 $-1 $344 $30 $-1 $345 reversed single #
loop $-1 $-1 $142 $136 #
plane-surface $-1 0 0 9.8349080408459191 0 0 1 1 0 0 forward_v I I I I #
coedge $-1 $346 $347 $348 $349 reversed $137 $-1 #
coedge $-1 $350 $139 $141 $239 forward $85 $-1 #
coedge $-1 $139 $350 $346 $351 forward $85 $-1 #
coedge $-1 $348 $142 $139 $236 forward $230 $-1 #
edge $-1 $242 2.7286341358888144 $352 9.2520650515259923 $235 $353 forward 7 unknown #
coedge $-1 $354 $355 $140 $238 forward $344 $-1 #
edge $-1 $356 -36.809550158193233 $241 -33.177101622170873 $237 $357 forward 7 unknown #
edge $-1 $242 -5.4286090903862494 $356 -9.4405131238556439e-015 $141 $358 forward 7 unknown #
coedge $-1 $142 $348 $354 $359 forward $230 $-1 #
vertex $-1 $238 $360 #
vertex $-1 $143 $361 #
straight-curve $-1 -62.788454542918885 8.7189837295962178 9.8349080408459173 1 0 0 I I #
coedge $-1 $244 $244 $-1 $362 reversed $146 $-1 #
edge $-1 $363 0 $363 6.2831853071796004 $147 $364 forward 7 unknown #
vertex $-1 $150 $365 #
ellipse-curve $-1 -51.688130877618761 10.023669912723655 8.0186837728347378 -0.66913061440640931 0 0.74314481823134659 0.3715724091156733 0 0.33456530720320465 1 I I #
coedge $-1 $248 $248 $-1 $366 reversed $153 $-1 #
edge $-1 $367 0 $367 6.2831853071796004 $154 $368 forward 7 unknown #
vertex $-1 $157 $369 #
ellipse-curve $-1 -51.688130877618761 11.980699187414807 8.0186837728347378 -0.66913061440640931 0 0.74314481823134659 0.3715724091156733 0 0.33456530720320465 1 I I #
coedge $-1 $252 $252 $-1 $370 reversed $160 $-1 #
edge $-1 $371 0 $371 6.2831853071796004 $161 $372 forward 7 unknown #
vertex $-1 $164 $373 #
ellipse-curve $-1 -51.688130877618761 13.937728462105959 8.0186837728347378 -0.66913061440640931 0 0.74314481823134659 0.3715724091156733 0 0.33456530720320465 1 I I #
face $-1 $-1 $268 $34 $-1 $374 forward single #
loop $-1 $-1 $375 $165 #
plane-surface $-1 53.70525223548082 0 0 -1 0 0 0 0 1 forward_v I I I I #
coedge $-1 $376 $377 $378 $379 reversed $166 $-1 #
coedge $-1 $380 $168 $170 $266 forward $104 $-1 #
coedge $-1 $168 $380 $376 $381 forward $104 $-1 #
coedge $-1 $378 $171 $168 $263 forward $268 $-1 #
edge $-1 $270 5.4325104950777998 $382 13.195345326290997 $262 $383 forward 7 unknown #
coedge $-1 $384 $385 $169 $265 forward $257 $-1 #
edge $-1 $386 -72.639197831357095 $269 -68.295036101103761 $264 $387 forward 7 unknown #
edge $-1 $270 101.89768416379574 $386 107.41050447096163 $170 $388 forward 7 unknown #
coedge $-1 $171 $378 $384 $389 forward $268 $-1 #
loop $-1 $-1 $378 $256 #
vertex $-1 $265 $390 #
vertex $-1 $172 $391 #
straight-curve $-1 36.108688591138588 -14.746438405762198 9.8349080408459173 -1 0 0 I I #
coedge $-1 $272 $272 $-1 $392 reversed $175 $-1 #
edge $-1 $393 0 $393 6.2831853071796004 $176 $394 forward 7 unknown #
vertex $-1 $179 $395 #
ellipse-curve $-1 52.008236722845268 -18.627855821368797 7.6628271757192516 0.78801076186113728 0 0.61566146476048833 0.61566146476048833 0 -0.78801076186113728 1 I I #
face $-1 $-1 $288 $27 $-1 $396 reversed single #
loop $-1 $-1 $189 $180 #
plane-surface $-1 -53.70525223548082 0 0 1 0 0 0 0 -1 forward_v I I I I #
coedge $-1 $397 $285 $398 $399 forward $181 $-1 #
coedge $-1 $193 $183 $397 $400 forward $113 $-1 #
coedge $-1 $191 $287 $183 $282 reversed $288 $-1 #
edge $-1 $195 -33.085267576398905 $401 33.085267576398905 $281 $402 forward 7 unknown #
coedge $-1 $185 $184 $293 $403 forward $73 $-1 #
edge $-1 $290 -53.70525223548082 $294 53.70525223548082 $188 $404 forward 7 unknown #
coedge $-1 $279 $405 $185 $286 reversed $181 $-1 #
edge $-1 $406 -53.70525223548082 $289 53.70525223548082 $285 $407 forward 7 unknown #
coedge $-1 $281 $186 $405 $408 forward $288 $-1 #
loop $-1 $-1 $287 $276 #
vertex $-1 $187 $409 #
vertex $-1 $187 $410 #
straight-curve $-1 53.70525223548082 0 9.8349080408459191 0 1 0 I I #
coedge $-1 $398 $189 $193 $297 reversed $277 $-1 #
coedge $-1 $189 $398 $283 $403 reversed $277 $-1 #
vertex $-1 $284 $411 #
straight-curve $-1 -53.70525223548082 33.085267576398905 0 0 0 -1 I I #
straight-curve $-1 53.70525223548082 33.085267576398905 0 0 0 -1 I I #
edge $-1 $412 -33.085267576398905 $194 33.085267576398905 $292 $413 forward 7 unknown #
point $-1 -53.70525223548082 33.085267576398905 -9.8349080408459191 #
point $-1 53.70525223548082 33.085267576398905 -9.8349080408459191 #
face $-1 $-1 $314 $28 $-1 $414 reversed single #
loop $-1 $-1 $415 $197 #
plane-surface $-1 0 -43.661261915822408 8.3349080408459191 0 1 0 0 0 1 forward_v I I I I #
coedge $-1 $416 $200 $209 $318 reversed $121 $-1 #
coedge $-1 $200 $416 $201 $306 reversed $121 $-1 #
coedge $-1 $202 $201 $417 $418 forward $77 $-1 #
edge $-1 $310 33.085267576398905 $419 43.661261915822408 $304 $420 forward 7 unknown #
coedge $-1 $421 $206 $202 $308 reversed $314 $-1 #
edge $-1 $422 -43.661261915822408 $309 -33.085267576398905 $307 $423 forward 7 unknown #
vertex $-1 $207 $424 #
vertex $-1 $306 $425 #
straight-curve $-1 0 -33.085267576398905 9.8349080408459191 -1 0 0 I I #
straight-curve $-1 -53.70525223548082 -33.085267576398905 0 0 0 -1 I I #
coedge $-1 $206 $421 $208 $317 reversed $314 $-1 #
loop $-1 $-1 $206 $300 #
straight-curve $-1 53.70525223548082 -33.085267576398905 0 0 0 1 I I #
coedge $-1 $209 $208 $426 $427 forward $198 $-1 #
edge $-1 $210 -5.2879971697117512 $428 5.2879971697117512 $313 $429 forward 7 unknown #
edge $-1 $430 -5.2879971697117512 $211 5.2879971697117512 $303 $431 forward 7 unknown #
point $-1 53.70525223548082 -33.085267576398905 6.8349080408459191 #
point $-1 -53.70525223548082 -33.085267576398905 6.8349080408459191 #
face $-1 $-1 $337 $29 $-1 $432 forward single #
plane-surface $-1 -34.035436153788979 38.394362060060388 0 -1 0 0 0 0 1 forward_v I I I I #
coedge $-1 $433 $434 $340 $435 forward $214 $-1 #
coedge $-1 $333 $216 $217 $329 reversed $129 $-1 #
coedge $-1 $216 $333 $336 $436 reversed $129 $-1 #
coedge $-1 $434 $433 $216 $327 reversed $214 $-1 #
edge $-1 $437 -9.8349080408459191 $438 9.8349080408459191 $326 $439 forward 7 unknown #
coedge $-1 $218 $217 $433 $440 forward $81 $-1 #
edge $-1 $331 -5.3090944836614895 $438 5.3090944836614895 $324 $441 forward 7 unknown #
edge $-1 $442 -5.3090944836614895 $226 5.3090944836614895 $223 $443 forward 7 unknown #
vertex $-1 $329 $444 #
straight-curve $-1 0 33.085267576398905 -9.8349080408459191 -1 0 0 I I #
coedge $-1 $325 $324 $220 $334 reversed $129 $-1 #
edge $-1 $338 -9.8349080408459191 $331 9.8349080408459191 $333 $445 forward 7 unknown #
coedge $-1 $446 $221 $224 $341 forward $337 $-1 #
coedge $-1 $221 $446 $325 $436 forward $337 $-1 #
loop $-1 $-1 $221 $321 #
vertex $-1 $222 $447 #
straight-curve $-1 0 33.085267576398905 9.8349080408459191 1 0 0 I I #
coedge $-1 $224 $223 $323 $435 reversed $225 $-1 #
edge $-1 $227 -5.3090944836614895 $448 5.3090944836614895 $224 $449 forward 7 unknown #
point $-1 -34.035436153788979 33.085267576398898 -9.8349080408459191 #
point $-1 -34.035436153788979 33.085267576398898 9.8349080408459191 #
loop $-1 $-1 $237 $229 #
plane-surface $-1 -53.70525223548082 0 0 1 0 0 0 0 -1 forward_v I I I I #
coedge $-1 $347 $232 $234 $351 reversed $137 $-1 #
coedge $-1 $232 $346 $450 $451 reversed $137 $-1 #
coedge $-1 $240 $235 $232 $349 forward $230 $-1 #
edge $-1 $352 -13.117445023162183 $452 -9.0832023074380643 $348 $453 forward 7 unknown #
coedge $-1 $234 $233 $355 $454 reversed $85 $-1 #
edge $-1 $455 9.4405131238556439e-015 $352 5.4286090903862494 $346 $456 forward 7 unknown #
vertex $-1 $236 $457 #
straight-curve $-1 -49.671009519756701 5.9903495937074034 9.8349080408459173 0 1 0 I I #
coedge $-1 $450 $237 $240 $359 reversed $344 $-1 #
coedge $-1 $237 $450 $350 $454 forward $344 $-1 #
vertex $-1 $238 $458 #
straight-curve $-1 -53.70525223548082 8.7189837295962178 43.012009663016791 0 0 1 I I #
straight-curve $-1 -53.705252235480827 8.7189837295962178 6.2024595048235511 -0.74314481823134659 0 -0.66913061440640931 I I #
edge $-1 $452 -15.242414645233396 $241 -8.7189837295962178 $354 $459 forward 7 unknown #
point $-1 -53.70525223548082 8.7189837295962178 9.8349080408459191 #
point $-1 -49.671009519756701 8.7189837295962178 9.8349080408459191 #
edge $-1 $460 1 $460 0 $244 $-1 forward 7 unknown #
vertex $-1 $245 $461 #
ellipse-curve $-1 -50.489517761438108 10.023669912723655 6.6874890745560389 -0.66913061440640931 0 0.74314481823134659 0.3715724091156733 0 0.33456530720320465 1 I I #
point $-1 -51.316558468503082 10.023669912723655 8.3532490800379389 #
edge $-1 $462 1 $462 0 $248 $-1 forward 7 unknown #
vertex $-1 $249 $463 #
ellipse-curve $-1 -50.489517761438108 11.980699187414807 6.6874890745560389 -0.66913061440640931 0 0.74314481823134659 0.3715724091156733 0 0.33456530720320465 1 I I #
point $-1 -51.316558468503082 11.980699187414807 8.3532490800379389 #
edge $-1 $464 1 $464 0 $252 $-1 forward 7 unknown #
vertex $-1 $253 $465 #
ellipse-curve $-1 -50.489517761438108 13.937728462105959 6.6874890745560389 -0.66913061440640931 0 0.74314481823134659 0.3715724091156733 0 0.33456530720320465 1 I I #
point $-1 -51.316558468503082 13.937728462105959 8.3532490800379389 #
plane-surface $-1 0 0 9.8349080408459191 0 0 1 1 0 0 forward_v I I I I #
coedge $-1 $385 $384 $377 $466 forward $257 $-1 #
coedge $-1 $377 $259 $261 $381 reversed $166 $-1 #
coedge $-1 $259 $376 $375 $466 reversed $166 $-1 #
coedge $-1 $267 $262 $259 $379 forward $268 $-1 #
edge $-1 $382 14.202532619071128 $467 17.596563644342233 $378 $468 forward 7 unknown #
coedge $-1 $261 $260 $385 $469 reversed $104 $-1 #
edge $-1 $470 -107.41050447096163 $382 -101.89768416379574 $376 $471 forward 7 unknown #
vertex $-1 $263 $472 #
straight-curve $-1 50.311221210209723 -9.3139279106843986 9.8349080408459102 0 -1 0 I I #
coedge $-1 $375 $264 $267 $389 reversed $257 $-1 #
coedge $-1 $264 $375 $380 $469 forward $257 $-1 #
vertex $-1 $265 $473 #
straight-curve $-1 53.70525223548082 -14.746438405762198 78.129944141949679 0 0 1 I I #
straight-curve $-1 -12.423256277774385 -14.746438405762198 90.131379770644145 0.61566146476048833 0 -0.78801076186113728 I I #
edge $-1 $467 -22.509273236975396 $269 -14.746438405762198 $384 $474 forward 7 unknown #
point $-1 53.70525223548082 -14.746438405762198 9.8349080408459191 #
point $-1 50.311221210209716 -14.746438405762198 9.8349080408459173 #
edge $-1 $475 1 $475 0 $272 $-1 forward 7 unknown #
vertex $-1 $273 $476 #
ellipse-curve $-1 50.880414807534073 -18.627855821368797 6.7816761483785548 0.78801076186113728 0 0.61566146476048833 0.61566146476048833 0 -0.78801076186113728 1 I I #
point $-1 52.623898187605754 -18.627855821368797 6.874816413858114 #
plane-surface $-1 53.70525223548082 0 0 -1 0 0 0 0 1 forward_v I I I I #
coedge $-1 $405 $279 $280 $400 reversed $181 $-1 #
coedge $-1 $293 $292 $279 $399 reversed $277 $-1 #
edge $-1 $406 -9.8349080408459191 $412 9.8349080408459191 $398 $477 forward 7 unknown #
edge $-1 $401 -53.70525223548082 $412 53.70525223548082 $397 $478 forward 7 unknown #
vertex $-1 $408 $479 #
straight-curve $-1 53.70525223548082 0 -9.8349080408459191 0 -1 0 I I #
edge $-1 $294 -33.085267576398905 $406 33.085267576398905 $293 $480 forward 7 unknown #
straight-curve $-1 0 33.085267576398905 9.8349080408459191 -1 0 0 I I #
coedge $-1 $285 $397 $287 $408 reversed $181 $-1 #
vertex $-1 $403 $481 #
straight-curve $-1 0 -33.085267576398905 9.8349080408459191 1 0 0 I I #
edge $-1 $289 -9.8349080408459191 $401 9.8349080408459191 $287 $482 forward 7 unknown #
point $-1 53.70525223548082 -33.085267576398905 9.8349080408459191 #
point $-1 53.70525223548082 33.085267576398905 9.8349080408459191 #
point $-1 -53.70525223548082 33.085267576398905 9.8349080408459191 #
vertex $-1 $297 $483 #
straight-curve $-1 -53.70525223548082 0 -9.8349080408459191 0 1 0 I I #
plane-surface $-1 53.70525223548082 0 0 -1 0 0 0 0 1 forward_v I I I I #
coedge $-1 $426 $417 $416 $484 forward $301 $-1 #
coedge $-1 $304 $303 $415 $484 reversed $121 $-1 #
coedge $-1 $415 $485 $305 $418 reversed $301 $-1 #
edge $-1 $419 -53.70525223548082 $422 53.70525223548082 $417 $486 forward 7 unknown #
vertex $-1 $306 $487 #
straight-curve $-1 -53.70525223548082 0 9.8349080408459191 0 -1 0 I I #
coedge $-1 $313 $307 $485 $488 forward $314 $-1 #
vertex $-1 $308 $489 #
straight-curve $-1 53.70525223548082 0 9.8349080408459191 0 1 0 I I #
point $-1 53.70525223548082 -33.085267576398905 9.8349080408459191 #
point $-1 -53.70525223548082 -33.085267576398905 9.8349080408459191 #
coedge $-1 $485 $415 $316 $427 reversed $301 $-1 #
edge $-1 $428 -53.70525223548082 $430 53.70525223548082 $426 $490 forward 7 unknown #
vertex $-1 $488 $491 #
straight-curve $-1 53.70525223548082 -38.373264746110657 6.8349080408459191 0 -1 0 I I #
vertex $-1 $318 $492 #
straight-curve $-1 -53.70525223548082 -38.373264746110657 6.8349080408459191 0 1 0 I I #
plane-surface $-1 0 0 9.8349080408459191 0 0 1 1 0 0 forward_v I I I I #
coedge $-1 $326 $323 $328 $440 reversed $214 $-1 #
coedge $-1 $323 $326 $446 $493 reversed $214 $-1 #
edge $-1 $448 -9.8349080408459191 $442 9.8349080408459191 $340 $494 forward 7 unknown #
edge $-1 $437 -5.3090944836614895 $338 5.3090944836614895 $325 $495 forward 7 unknown #
vertex $-1 $493 $496 #
vertex $-1 $440 $497 #
straight-curve $-1 -38.341521291238251 43.703456543721877 0 0 0 -1 I I #
edge $-1 $438 -2.1530425687246364 $442 2.1530425687246364 $433 $498 forward 7 unknown #
straight-curve $-1 -38.341521291238251 38.394362060060388 -9.8349080408459191 0 1 0 I I #
vertex $-1 $330 $499 #
straight-curve $-1 -34.035436153788979 38.394362060060388 -9.8349080408459191 0 -1 0 I I #
point $-1 -38.341521291238251 33.085267576398898 -9.8349080408459191 #
straight-curve $-1 -38.341521291238251 33.085267576398905 0 0 0 -1 I I #
coedge $-1 $336 $335 $434 $493 forward $337 $-1 #
point $-1 -38.341521291238251 33.085267576398898 9.8349080408459191 #
vertex $-1 $341 $500 #
straight-curve $-1 -34.035436153788979 38.394362060060388 9.8349080408459191 0 1 0 I I #
coedge $-1 $355 $354 $347 $451 forward $344 $-1 #
edge $-1 $452 33.177101622170873 $455 36.809550158193233 $450 $501 forward 7 unknown #
vertex $-1 $359 $502 #
straight-curve $-1 -62.788454542918885 15.242414645233396 9.8349080408459173 -1 0 0 I I #
edge $-1 $455 -9.2520650515259923 $356 -2.7286341358888144 $355 $503 forward 7 unknown #
vertex $-1 $454 $504 #
straight-curve $-1 -53.705252235480827 15.242414645233396 6.2024595048235511 0.74314481823134659 0 0.66913061440640931 I I #
point $-1 -49.671009519756701 15.242414645233396 9.8349080408459191 #
point $-1 -53.70525223548082 8.7189837295962178 6.2024595048235573 #
straight-curve $-1 -53.70525223548082 0 9.8349080408459191 0 -1 0 I I #
vertex $-1 $362 $505 #
point $-1 -50.117945352322437 10.023669912723655 7.0220543817592436 #
vertex $-1 $366 $506 #
point $-1 -50.117945352322437 11.980699187414807 7.0220543817592436 #
vertex $-1 $370 $507 #
point $-1 -50.117945352322437 13.937728462105959 7.0220543817592436 #
edge $-1 $467 68.295036101103761 $470 72.639197831357095 $375 $508 forward 7 unknown #
vertex $-1 $389 $509 #
straight-curve $-1 36.108688591138588 -22.509273236975396 9.8349080408459173 1 0 0 I I #
edge $-1 $470 -13.195345326290997 $386 -5.4325104950777998 $385 $510 forward 7 unknown #
vertex $-1 $469 $511 #
straight-curve $-1 -12.423256277774385 -22.509273236975396 90.131379770644145 -0.61566146476048833 0 0.78801076186113728 I I #
point $-1 50.311221210209716 -22.509273236975396 9.8349080408459173 #
point $-1 53.705252235480827 -14.746438405762198 5.4907463105925842 #
straight-curve $-1 53.70525223548082 0 9.8349080408459191 0 1 0 I I #
vertex $-1 $392 $512 #
point $-1 51.496076272294566 -18.627855821368797 5.9936653865174172 #
straight-curve $-1 -53.70525223548082 -33.085267576398905 0 0 0 -1 I I #
straight-curve $-1 0 -33.085267576398905 -9.8349080408459191 -1 0 0 I I #
point $-1 53.70525223548082 -33.085267576398905 -9.8349080408459191 #
straight-curve $-1 -53.70525223548082 0 9.8349080408459191 0 -1 0 I I #
point $-1 -53.70525223548082 -33.085267576398905 9.8349080408459191 #
straight-curve $-1 53.70525223548082 -33.085267576398905 0 0 0 -1 I I #
point $-1 -53.70525223548082 -33.085267576398905 -9.8349080408459191 #
edge $-1 $419 -1.5 $430 1.5 $416 $513 forward 7 unknown #
coedge $-1 $417 $426 $421 $488 reversed $301 $-1 #
straight-curve $-1 0 -43.661261915822408 9.8349080408459191 1 0 0 I I #
point $-1 -53.70525223548082 -43.661261915822408 9.8349080408459191 #
edge $-1 $422 -1.5 $428 1.5 $421 $514 forward 7 unknown #
point $-1 53.70525223548082 -43.661261915822408 9.8349080408459191 #
straight-curve $-1 0 -43.661261915822408 6.8349080408459191 -1 0 0 I I #
point $-1 53.70525223548082 -43.661261915822408 6.8349080408459191 #
point $-1 -53.70525223548082 -43.661261915822408 6.8349080408459191 #
edge $-1 $448 -2.1530425687246364 $437 2.1530425687246364 $434 $515 forward 7 unknown #
straight-curve $-1 -34.035436153788979 43.703456543721877 0 0 0 -1 I I #
straight-curve $-1 -38.341521291238251 38.394362060060388 9.8349080408459191 0 -1 0 I I #
point $-1 -38.341521291238251 43.703456543721877 9.8349080408459191 #
point $-1 -38.341521291238251 43.703456543721877 -9.8349080408459191 #
straight-curve $-1 -36.188478722513615 43.703456543721877 -9.8349080408459191 1 0 0 I I #
point $-1 -34.035436153788979 43.703456543721877 -9.8349080408459191 #
point $-1 -34.035436153788979 43.703456543721877 9.8349080408459191 #
straight-curve $-1 -53.70525223548082 15.242414645233396 43.012009663016791 0 0 -1 I I #
point $-1 -53.70525223548082 15.242414645233396 9.8349080408459191 #
straight-curve $-1 -53.70525223548082 5.9903495937074034 6.2024595048235636 0 -1 0 I I #
point $-1 -53.70525223548082 15.242414645233396 6.2024595048235573 #
point $-1 -50.154952454234902 10.023669912723655 6.3159166654403673 #
point $-1 -50.154952454234902 11.980699187414807 6.3159166654403673 #
point $-1 -50.154952454234902 13.937728462105959 6.3159166654403673 #
straight-curve $-1 53.70525223548082 -22.509273236975396 78.129944141949679 0 0 -1 I I #
point $-1 53.70525223548082 -22.509273236975396 9.8349080408459191 #
straight-curve $-1 53.70525223548082 -9.3139279106843986 5.4907463105925842 0 1 0 I I #
point $-1 53.705252235480827 -22.509273236975396 5.4907463105925842 #
point $-1 50.092404045672943 -18.627855821368797 6.1660146836180658 #
straight-curve $-1 -53.70525223548082 -43.661261915822408 8.3349080408459191 0 0 -1 I I #
straight-curve $-1 53.70525223548082 -43.661261915822408 8.3349080408459191 0 0 -1 I I #
straight-curve $-1 -36.188478722513615 43.703456543721877 9.8349080408459191 -1 0 0 I I #
End-of-ACIS-data 