500 0 15 0           
7 Unknown 11 ACIS 5.0 NT 24 Thu Mar 25 23:27:37 1999 
-1 9.9999999999999995e-007 1e-010 
body $-1 $15 $-1 $16 #
body $-1 $17 $-1 $18 #
body $-1 $19 $-1 $20 #
body $-1 $21 $-1 $22 #
body $-1 $23 $-1 $24 #
body $-1 $25 $-1 $26 #
body $-1 $27 $-1 $28 #
body $-1 $29 $-1 $30 #
body $-1 $31 $-1 $32 #
body $-1 $33 $-1 $34 #
body $-1 $35 $-1 $36 #
body $-1 $37 $-1 $38 #
body $-1 $39 $-1 $40 #
body $-1 $41 $-1 $42 #
body $-1 $43 $-1 $44 #
lump $-1 $-1 $45 $0 #
transform $-1 1 0 0 0 1 0 0 0 1 62.650837733085112 36.902370174256497 10.879706627656022 1 rotate no_reflect no_shear #
lump $-1 $-1 $46 $1 #
transform $-1 1 0 0 0 1 0 0 0 1 62.650837733085112 36.902370174256497 10.879706627656022 1 rotate no_reflect no_shear #
lump $-1 $-1 $47 $2 #
transform $-1 1 0 0 0 1 0 0 0 1 62.650837733085112 36.902370174256497 10.879706627656022 1 rotate no_reflect no_shear #
lump $-1 $-1 $48 $3 #
transform $-1 1 0 0 0 1 0 0 0 1 62.650837733085112 36.902370174256497 10.879706627656022 1 rotate no_reflect no_shear #
lump $-1 $-1 $49 $4 #
transform $-1 1 0 0 0 1 0 0 0 1 62.650837733085112 36.902370174256497 10.879706627656022 1 rotate no_reflect no_shear #
lump $-1 $-1 $50 $5 #
transform $-1 1 0 0 0 1 0 0 0 1 62.650837733085112 36.902370174256497 10.879706627656022 1 rotate no_reflect no_shear #
lump $-1 $-1 $51 $6 #
transform $-1 1 0 0 0 1 0 0 0 1 62.650837733085112 36.902370174256497 10.879706627656022 1 rotate no_reflect no_shear #
lump $-1 $-1 $52 $7 #
transform $-1 1 0 0 0 1 0 0 0 1 62.650837733085112 36.902370174256497 10.879706627656022 1 rotate no_reflect no_shear #
lump $-1 $-1 $53 $8 #
transform $-1 1 0 0 0 1 0 0 0 1 62.650837733085112 36.902370174256497 10.879706627656022 1 rotate no_reflect no_shear #
lump $-1 $-1 $54 $9 #
transform $-1 1 0 0 0 1 0 0 0 1 62.650837733085112 36.902370174256497 10.879706627656022 1 rotate no_reflect no_shear #
lump $-1 $-1 $55 $10 #
transform $-1 1 0 0 0 1 0 0 0 1 62.650837733085112 36.902370174256497 10.879706627656022 1 rotate no_reflect no_shear #
lump $-1 $-1 $56 $11 #
transform $-1 1 0 0 0 1 0 0 0 1 62.650837733085112 36.902370174256497 10.879706627656022 1 rotate no_reflect no_shear #
lump $-1 $-1 $57 $12 #
transform $-1 1 0 0 0 1 0 0 0 1 62.650837733085112 36.902370174256497 10.879706627656022 1 rotate no_reflect no_shear #
lump $-1 $-1 $58 $13 #
transform $-1 1 0 0 0 1 0 0 0 1 62.650837733085112 36.902370174256497 10.879706627656022 1 rotate no_reflect no_shear #
lump $-1 $-1 $59 $14 #
transform $-1 1 0 0 0 1 0 0 0 1 62.650837733085112 36.902370174256497 10.879706627656022 1 rotate no_reflect no_shear #
shell $-1 $-1 $-1 $60 $-1 $15 #
shell $-1 $-1 $-1 $61 $-1 $17 #
shell $-1 $-1 $-1 $62 $-1 $19 #
shell $-1 $-1 $-1 $63 $-1 $21 #
shell $-1 $-1 $-1 $64 $-1 $23 #
shell $-1 $-1 $-1 $65 $-1 $25 #
shell $-1 $-1 $-1 $66 $-1 $27 #
shell $-1 $-1 $-1 $67 $-1 $29 #
shell $-1 $-1 $-1 $68 $-1 $31 #
shell $-1 $-1 $-1 $69 $-1 $33 #
shell $-1 $-1 $-1 $70 $-1 $35 #
shell $-1 $-1 $-1 $71 $-1 $37 #
shell $-1 $-1 $-1 $72 $-1 $39 #
shell $-1 $-1 $-1 $73 $-1 $41 #
shell $-1 $-1 $-1 $74 $-1 $43 #
face $-1 $75 $76 $45 $-1 $77 forward single #
face $-1 $78 $79 $46 $-1 $80 reversed single #
face $-1 $81 $82 $47 $-1 $83 reversed single #
face $-1 $84 $85 $48 $-1 $86 reversed single #
face $-1 $87 $88 $49 $-1 $89 forward single #
face $-1 $90 $91 $50 $-1 $92 forward single #
face $-1 $93 $94 $51 $-1 $95 forward single #
face $-1 $96 $97 $52 $-1 $98 reversed single #
face $-1 $99 $100 $53 $-1 $101 forward single #
face $-1 $102 $103 $54 $-1 $104 forward single #
face $-1 $105 $106 $55 $-1 $107 forward single #
face $-1 $108 $109 $56 $-1 $110 reversed single #
face $-1 $111 $112 $57 $-1 $113 forward single #
face $-1 $114 $115 $58 $-1 $116 reversed single #
face $-1 $117 $118 $59 $-1 $119 forward single #
face $-1 $120 $121 $45 $-1 $122 reversed single #
loop $-1 $-1 $123 $60 #
plane-surface $-1 0 0 10.879706627656022 0 0 1 1 0 0 forward_v I I I I #
face $-1 $124 $125 $46 $-1 $126 reversed single #
loop $-1 $-1 $127 $61 #
plane-surface $-1 -58.385688593338244 -18.908271079500647 0 0 1 0 0 0 1 forward_v I I I I #
face $-1 $128 $129 $47 $-1 $130 reversed single #
loop $-1 $-1 $131 $62 #
plane-surface $-1 58.385688593338244 -18.908271079500647 0 0 1 0 0 0 1 forward_v I I I I #
face $-1 $132 $133 $48 $-1 $134 reversed single #
loop $-1 $-1 $135 $63 #
plane-surface $-1 3.5527136788005009e-015 -135.64143892083024 80.987436323072103 -1 0 0 0 -0.78801076186113728 0.61566146476048833 forward_v I I I I #
face $-1 $136 $137 $49 $-1 $138 forward single #
loop $-1 $139 $140 $64 #
cone-surface $-1 -11.196660424644236 -33.150538274903496 6.5779285702548682 0 0.78801076186113728 -0.61566146476048833 1 0 0 1 I I 0 1 1 forward I I I I #
face $-1 $141 $142 $50 $-1 $143 forward single #
loop $-1 $144 $145 $65 #
cone-surface $-1 -6.9979127654026456 -33.150538274903496 6.5779285702548682 0 0.78801076186113728 -0.61566146476048833 1 0 0 1 I I 0 1 1 forward I I I I #
face $-1 $146 $147 $51 $-1 $148 forward single #
loop $-1 $149 $150 $66 #
cone-surface $-1 -2.7991651061610554 -33.150538274903496 6.5779285702548682 0 0.78801076186113728 -0.61566146476048833 1 0 0 1 I I 0 1 1 forward I I I I #
face $-1 $151 $152 $52 $-1 $153 reversed single #
loop $-1 $-1 $154 $67 #
plane-surface $-1 54.120539453591377 -135.64143892083024 80.987436323072103 -1 0 0 0 -0.78801076186113728 0.61566146476048833 forward_v I I I I #
face $-1 $155 $156 $53 $-1 $157 forward single #
loop $-1 $158 $159 $68 #
cone-surface $-1 42.923879028947141 -33.150538274903496 6.5779285702548682 0 0.78801076186113728 -0.61566146476048833 1 0 0 1 I I 0 1 1 forward I I I I #
face $-1 $160 $161 $54 $-1 $162 forward single #
loop $-1 $163 $164 $69 #
cone-surface $-1 47.122626688188731 -33.150538274903496 6.5779285702548682 0 0.78801076186113728 -0.61566146476048833 1 0 0 1 I I 0 1 1 forward I I I I #
face $-1 $165 $166 $55 $-1 $167 forward single #
loop $-1 $168 $169 $70 #
cone-surface $-1 51.321374347430321 -33.150538274903496 6.5779285702548682 0 0.78801076186113728 -0.61566146476048833 1 0 0 1 I I 0 1 1 forward I I I I #
face $-1 $170 $171 $56 $-1 $172 reversed single #
loop $-1 $-1 $173 $71 #
plane-surface $-1 -44.940568472369833 104.05366572510991 132.85444448803466 1 0 0 0 -0.84804810408105047 -0.52991925155115449 forward_v I I I I #
face $-1 $174 $175 $57 $-1 $176 forward single #
loop $-1 $177 $178 $72 #
cone-surface $-1 -37.364403170491386 33.216844173578444 6.4387780919622974 0 -0.84804810408105047 -0.52991925155115449 1 0 0 1 I I 0 1 1 forward I I I I #
face $-1 $179 $180 $58 $-1 $181 reversed single #
loop $-1 $-1 $182 $73 #
plane-surface $-1 9.1799709812215617 104.05366572510991 132.85444448803466 1 0 0 0 -0.84804810408105047 -0.52991925155115449 forward_v I I I I #
face $-1 $183 $184 $59 $-1 $185 forward single #
loop $-1 $186 $187 $74 #
cone-surface $-1 16.756136283100005 33.216844173578444 6.4387780919622974 0 -0.84804810408105047 -0.52991925155115449 1 0 0 1 I I 0 1 1 forward I I I I #
face $-1 $188 $189 $45 $-1 $190 reversed single #
loop $-1 $-1 $191 $75 #
plane-surface $-1 0 0 -10.879706627656022 0 0 1 1 0 0 forward_v I I I I #
coedge $-1 $192 $193 $194 $195 forward $76 $-1 #
face $-1 $196 $197 $46 $-1 $198 reversed single #
loop $-1 $-1 $199 $78 #
plane-surface $-1 -58.385688593338244 -15.142956918944453 0 0 -1 0 0 0 -1 forward_v I I I I #
coedge $-1 $200 $201 $202 $203 reversed $79 $-1 #
face $-1 $204 $205 $47 $-1 $206 reversed single #
loop $-1 $-1 $207 $81 #
plane-surface $-1 54.120539453591377 -17.02561399922255 0 1 0 0 0 0 -1 forward_v I I I I #
coedge $-1 $208 $209 $210 $211 forward $82 $-1 #
face $-1 $212 $213 $48 $-1 $214 reversed single #
loop $-1 $-1 $215 $84 #
plane-surface $-1 -6.9979127654026456 -36.902370174256475 3.8440232686264011 0 -0.78801076186113728 0.61566146476048833 1 0 0 forward_v I I I I #
coedge $-1 $216 $217 $218 $219 reversed $85 $-1 #
face $-1 $-1 $220 $49 $-1 $221 forward single #
loop $-1 $222 $223 $87 #
cone-surface $-1 -11.196660424644236 -31.753140059196102 5.4861614599882795 0 0.78801076186113728 -0.61566146476048833 0.5 0 0 1 I I -0.70710678118654746 0.70710678118654746 0.5 forward I I I I #
loop $-1 $-1 $224 $64 #
coedge $-1 $140 $140 $225 $226 reversed $88 $-1 #
face $-1 $-1 $227 $50 $-1 $228 forward single #
loop $-1 $229 $230 $90 #
cone-surface $-1 -6.9979127654026456 -31.753140059196102 5.4861614599882795 0 0.78801076186113728 -0.61566146476048833 0.5 0 0 1 I I -0.70710678118654746 0.70710678118654746 0.5 forward I I I I #
loop $-1 $-1 $231 $65 #
coedge $-1 $145 $145 $232 $233 reversed $91 $-1 #
face $-1 $-1 $234 $51 $-1 $235 forward single #
loop $-1 $236 $237 $93 #
cone-surface $-1 -2.7991651061610554 -31.753140059196102 5.4861614599882795 0 0.78801076186113728 -0.61566146476048833 0.5 0 0 1 I I -0.70710678118654746 0.70710678118654746 0.5 forward I I I I #
loop $-1 $-1 $238 $66 #
coedge $-1 $150 $150 $239 $240 reversed $94 $-1 #
face $-1 $241 $242 $52 $-1 $243 reversed single #
loop $-1 $-1 $244 $96 #
plane-surface $-1 47.122626688188731 -36.902370174256475 3.8440232686264011 0 -0.78801076186113728 0.61566146476048833 1 0 0 forward_v I I I I #
coedge $-1 $245 $246 $247 $248 reversed $97 $-1 #
face $-1 $-1 $249 $53 $-1 $250 forward single #
loop $-1 $251 $252 $99 #
cone-surface $-1 42.923879028947141 -31.753140059196102 5.4861614599882795 0 0.78801076186113728 -0.61566146476048833 0.5 0 0 1 I I -0.70710678118654746 0.70710678118654746 0.5 forward I I I I #
loop $-1 $-1 $253 $68 #
coedge $-1 $159 $159 $254 $255 reversed $100 $-1 #
face $-1 $-1 $256 $54 $-1 $257 forward single #
loop $-1 $258 $259 $102 #
cone-surface $-1 47.122626688188731 -31.753140059196102 5.4861614599882795 0 0.78801076186113728 -0.61566146476048833 0.5 0 0 1 I I -0.70710678118654746 0.70710678118654746 0.5 forward I I I I #
loop $-1 $-1 $260 $69 #
coedge $-1 $164 $164 $261 $262 reversed $103 $-1 #
face $-1 $-1 $263 $55 $-1 $264 forward single #
loop $-1 $265 $266 $105 #
cone-surface $-1 51.321374347430321 -31.753140059196102 5.4861614599882795 0 0.78801076186113728 -0.61566146476048833 0.5 0 0 1 I I -0.70710678118654746 0.70710678118654746 0.5 forward I I I I #
loop $-1 $-1 $267 $70 #
coedge $-1 $169 $169 $268 $269 reversed $106 $-1 #
face $-1 $270 $271 $56 $-1 $272 reversed single #
loop $-1 $-1 $273 $108 #
plane-surface $-1 -37.364403170491386 -2.2081825921548131 66.454674406896089 0 0.84804810408105047 0.52991925155115449 1 0 0 forward_v I I I I #
coedge $-1 $274 $275 $276 $277 reversed $109 $-1 #
face $-1 $-1 $278 $57 $-1 $279 forward single #
loop $-1 $280 $281 $111 #
cone-surface $-1 -37.364403170491386 31.299024032567367 5.2403911032482835 0 -0.84804810408105047 -0.52991925155115449 0.5 0 0 1 I I -0.70710678118654746 0.70710678118654746 0.5 forward I I I I #
loop $-1 $-1 $282 $72 #
coedge $-1 $178 $178 $283 $284 reversed $112 $-1 #
face $-1 $285 $286 $58 $-1 $287 reversed single #
loop $-1 $-1 $288 $114 #
plane-surface $-1 16.756136283100005 -2.2081825921548131 66.454674406896089 0 0.84804810408105047 0.52991925155115449 1 0 0 forward_v I I I I #
coedge $-1 $289 $290 $291 $292 reversed $115 $-1 #
face $-1 $-1 $293 $59 $-1 $294 forward single #
loop $-1 $295 $296 $117 #
cone-surface $-1 16.756136283100005 31.299024032567367 5.2403911032482835 0 -0.84804810408105047 -0.52991925155115449 0.5 0 0 1 I I -0.70710678118654746 0.70710678118654746 0.5 forward I I I I #
loop $-1 $-1 $297 $74 #
coedge $-1 $187 $187 $298 $299 reversed $118 $-1 #
face $-1 $300 $301 $45 $-1 $302 reversed single #
loop $-1 $-1 $303 $120 #
plane-surface $-1 0 -36.902370174256497 0 0 1 0 0 0 1 forward_v I I I I #
coedge $-1 $304 $305 $306 $307 forward $121 $-1 #
coedge $-1 $308 $123 $309 $310 forward $76 $-1 #
coedge $-1 $123 $308 $311 $312 forward $76 $-1 #
coedge $-1 $313 $314 $123 $195 reversed $315 $-1 #
edge $-1 $316 -36.902370174256497 $317 36.902370174256497 $194 $318 forward 7 unknown #
face $-1 $319 $320 $46 $-1 $321 reversed single #
loop $-1 $-1 $322 $124 #
plane-surface $-1 -54.120539453591377 -17.02561399922255 0 -1 0 0 0 0 1 forward_v I I I I #
coedge $-1 $323 $324 $325 $326 forward $125 $-1 #
coedge $-1 $327 $127 $328 $329 reversed $79 $-1 #
coedge $-1 $127 $327 $330 $331 reversed $79 $-1 #
coedge $-1 $332 $333 $127 $203 forward $334 $-1 #
edge $-1 $335 -10.879706627656022 $336 10.879706627656022 $202 $337 forward 7 unknown #
face $-1 $338 $339 $47 $-1 $340 reversed single #
loop $-1 $-1 $341 $128 #
plane-surface $-1 58.385688593338244 -15.142956918944453 0 0 -1 0 0 0 -1 forward_v I I I I #
coedge $-1 $342 $343 $344 $345 forward $129 $-1 #
coedge $-1 $346 $131 $347 $348 reversed $82 $-1 #
coedge $-1 $131 $346 $349 $350 reversed $82 $-1 #
coedge $-1 $343 $342 $131 $211 reversed $129 $-1 #
edge $-1 $351 -10.879706627656022 $352 10.879706627656022 $210 $353 forward 7 unknown #
face $-1 $354 $355 $48 $-1 $356 forward single #
loop $-1 $-1 $357 $132 #
plane-surface $-1 -13.995825530805295 -135.64143892083024 80.987436323072103 1 0 0 0 0.78801076186113728 -0.61566146476048833 forward_v I I I I #
coedge $-1 $358 $359 $360 $361 reversed $133 $-1 #
coedge $-1 $217 $135 $362 $363 reversed $85 $-1 #
coedge $-1 $135 $216 $358 $364 reversed $85 $-1 #
coedge $-1 $360 $365 $135 $219 forward $355 $-1 #
edge $-1 $366 30.918349286158623 $367 36.415227415310994 $218 $368 forward 7 unknown #
loop $-1 $-1 $225 $136 #
plane-surface $-1 -6.9979127654026456 -36.902370174256475 3.8440232686264011 0 -0.78801076186113728 0.61566146476048833 1 0 0 forward_v I I I I #
loop $-1 $-1 $369 $87 #
coedge $-1 $223 $223 $224 $370 reversed $137 $-1 #
coedge $-1 $224 $224 $223 $370 forward $139 $-1 #
coedge $-1 $225 $225 $140 $226 forward $220 $-1 #
edge $-1 $371 3.4954836183495873e-016 $371 6.2831853071796004 $225 $372 forward 7 unknown #
loop $-1 $-1 $232 $141 #
plane-surface $-1 -6.9979127654026456 -36.902370174256475 3.8440232686264011 0 -0.78801076186113728 0.61566146476048833 1 0 0 forward_v I I I I #
loop $-1 $-1 $373 $90 #
coedge $-1 $230 $230 $231 $374 reversed $142 $-1 #
coedge $-1 $231 $231 $230 $374 forward $144 $-1 #
coedge $-1 $232 $232 $145 $233 forward $227 $-1 #
edge $-1 $375 3.4954836183495873e-016 $375 6.2831853071796004 $232 $376 forward 7 unknown #
loop $-1 $-1 $239 $146 #
plane-surface $-1 -6.9979127654026456 -36.902370174256475 3.8440232686264011 0 -0.78801076186113728 0.61566146476048833 1 0 0 forward_v I I I I #
loop $-1 $-1 $377 $93 #
coedge $-1 $237 $237 $238 $378 reversed $147 $-1 #
coedge $-1 $238 $238 $237 $378 forward $149 $-1 #
coedge $-1 $239 $239 $150 $240 forward $234 $-1 #
edge $-1 $379 3.4954836183495873e-016 $379 6.2831853071796004 $239 $380 forward 7 unknown #
face $-1 $381 $382 $52 $-1 $383 reversed single #
loop $-1 $-1 $384 $151 #
plane-surface $-1 40.124713922786086 -135.64143892083024 80.987436323072103 1 0 0 0 0.78801076186113728 -0.61566146476048833 forward_v I I I I #
coedge $-1 $385 $386 $387 $388 reversed $152 $-1 #
coedge $-1 $246 $154 $389 $390 reversed $97 $-1 #
coedge $-1 $154 $245 $385 $391 reversed $97 $-1 #
coedge $-1 $387 $392 $154 $248 forward $393 $-1 #
edge $-1 $394 30.918349286158623 $395 36.415227415310994 $247 $396 forward 7 unknown #
loop $-1 $-1 $254 $155 #
plane-surface $-1 47.122626688188731 -36.902370174256475 3.8440232686264011 0 -0.78801076186113728 0.61566146476048833 1 0 0 forward_v I I I I #
loop $-1 $-1 $397 $99 #
coedge $-1 $252 $252 $253 $398 reversed $156 $-1 #
coedge $-1 $253 $253 $252 $398 forward $158 $-1 #
coedge $-1 $254 $254 $159 $255 forward $249 $-1 #
edge $-1 $399 3.4954836183495873e-016 $399 6.2831853071796004 $254 $400 forward 7 unknown #
loop $-1 $-1 $261 $160 #
plane-surface $-1 47.122626688188731 -36.902370174256475 3.8440232686264011 0 -0.78801076186113728 0.61566146476048833 1 0 0 forward_v I I I I #
loop $-1 $-1 $401 $102 #
coedge $-1 $259 $259 $260 $402 reversed $161 $-1 #
coedge $-1 $260 $260 $259 $402 forward $163 $-1 #
coedge $-1 $261 $261 $164 $262 forward $256 $-1 #
edge $-1 $403 3.4954836183495873e-016 $403 6.2831853071796004 $261 $404 forward 7 unknown #
loop $-1 $-1 $268 $165 #
plane-surface $-1 47.122626688188731 -36.902370174256475 3.8440232686264011 0 -0.78801076186113728 0.61566146476048833 1 0 0 forward_v I I I I #
loop $-1 $-1 $405 $105 #
coedge $-1 $266 $266 $267 $406 reversed $166 $-1 #
coedge $-1 $267 $267 $266 $406 forward $168 $-1 #
coedge $-1 $268 $268 $169 $269 forward $263 $-1 #
edge $-1 $407 3.4954836183495873e-016 $407 6.2831853071796004 $268 $408 forward 7 unknown #
face $-1 $409 $410 $56 $-1 $411 reversed single #
loop $-1 $-1 $412 $170 #
plane-surface $-1 -29.788237868612942 104.05366572510991 132.85444448803466 -1 0 0 0 0.84804810408105047 0.52991925155115449 forward_v I I I I #
coedge $-1 $413 $414 $415 $416 reversed $171 $-1 #
coedge $-1 $275 $173 $417 $418 reversed $109 $-1 #
coedge $-1 $173 $274 $413 $419 reversed $109 $-1 #
coedge $-1 $415 $420 $173 $277 forward $421 $-1 #
edge $-1 $422 15.124462688298458 $423 19.507922511713488 $276 $424 forward 7 unknown #
loop $-1 $-1 $283 $174 #
plane-surface $-1 -37.364403170491386 -2.2081825921548131 66.454674406896089 0 0.84804810408105047 0.52991925155115449 1 0 0 forward_v I I I I #
loop $-1 $-1 $425 $111 #
coedge $-1 $281 $281 $282 $426 reversed $175 $-1 #
coedge $-1 $282 $282 $281 $426 forward $177 $-1 #
coedge $-1 $283 $283 $178 $284 forward $278 $-1 #
edge $-1 $427 -7.5479277945430101e-016 $427 6.2831853071795996 $283 $428 forward 7 unknown #
face $-1 $429 $430 $58 $-1 $431 forward single #
loop $-1 $-1 $432 $179 #
plane-surface $-1 24.332301584978449 104.05366572510991 132.85444448803466 -1 0 0 0 0.84804810408105047 0.52991925155115449 forward_v I I I I #
coedge $-1 $433 $434 $435 $436 reversed $180 $-1 #
coedge $-1 $290 $182 $437 $438 reversed $115 $-1 #
coedge $-1 $182 $289 $433 $439 reversed $115 $-1 #
coedge $-1 $435 $440 $182 $292 forward $430 $-1 #
edge $-1 $441 15.124462688298458 $442 19.507922511713488 $291 $443 forward 7 unknown #
loop $-1 $-1 $298 $183 #
plane-surface $-1 16.756136283100005 -2.2081825921548131 66.454674406896089 0 0.84804810408105047 0.52991925155115449 1 0 0 forward_v I I I I #
loop $-1 $-1 $444 $117 #
coedge $-1 $296 $296 $297 $445 reversed $184 $-1 #
coedge $-1 $297 $297 $296 $445 forward $186 $-1 #
coedge $-1 $298 $298 $187 $299 forward $293 $-1 #
edge $-1 $446 -7.5479277945430101e-016 $446 6.2831853071795996 $298 $447 forward 7 unknown #
face $-1 $448 $449 $45 $-1 $450 reversed single #
loop $-1 $-1 $451 $188 #
plane-surface $-1 -62.650837733085112 0 0 1 0 0 0 0 -1 forward_v I I I I #
coedge $-1 $452 $311 $453 $454 forward $189 $-1 #
coedge $-1 $455 $191 $452 $456 forward $121 $-1 #
coedge $-1 $191 $455 $457 $458 forward $121 $-1 #
coedge $-1 $314 $313 $191 $307 reversed $315 $-1 #
edge $-1 $459 -36.902370174256497 $460 36.902370174256497 $306 $461 forward 7 unknown #
coedge $-1 $193 $192 $462 $463 forward $76 $-1 #
coedge $-1 $464 $465 $192 $310 reversed $449 $-1 #
edge $-1 $317 -62.650837733085112 $466 62.650837733085112 $309 $467 forward 7 unknown #
coedge $-1 $303 $468 $193 $312 reversed $189 $-1 #
edge $-1 $469 -62.650837733085112 $316 62.650837733085112 $311 $470 forward 7 unknown #
coedge $-1 $306 $194 $468 $471 forward $315 $-1 #
coedge $-1 $194 $306 $464 $472 reversed $315 $-1 #
loop $-1 $-1 $313 $448 #
vertex $-1 $195 $473 #
vertex $-1 $195 $474 #
straight-curve $-1 62.650837733085112 0 10.879706627656022 0 1 0 I I #
face $-1 $475 $476 $46 $-1 $477 forward single #
loop $-1 $-1 $478 $196 #
plane-surface $-1 0 0 -10.879706627656022 0 0 1 1 0 0 forward_v I I I I #
coedge $-1 $479 $480 $327 $481 forward $197 $-1 #
coedge $-1 $482 $199 $478 $483 reversed $125 $-1 #
coedge $-1 $199 $482 $484 $485 reversed $125 $-1 #
coedge $-1 $480 $479 $199 $326 reversed $197 $-1 #
edge $-1 $486 -10.879706627656022 $487 10.879706627656022 $325 $488 forward 7 unknown #
coedge $-1 $201 $200 $322 $481 reversed $79 $-1 #
coedge $-1 $489 $490 $200 $329 forward $320 $-1 #
edge $-1 $491 24.927695156922255 $335 33.45799343641599 $328 $492 forward 7 unknown #
coedge $-1 $493 $494 $201 $331 forward $476 $-1 #
edge $-1 $336 -33.45799343641599 $495 -24.927695156922255 $330 $496 forward 7 unknown #
coedge $-1 $497 $202 $494 $498 reversed $334 $-1 #
coedge $-1 $202 $497 $489 $499 reversed $334 $-1 #
loop $-1 $-1 $497 $475 #
vertex $-1 $499 $500 #
vertex $-1 $203 $501 #
straight-curve $-1 -62.650837733085112 -18.908271079500647 0 0 0 1 I I #
face $-1 $502 $503 $47 $-1 $504 forward single #
loop $-1 $-1 $347 $204 #
plane-surface $-1 0 0 -10.879706627656022 0 0 1 1 0 0 forward_v I I I I #
coedge $-1 $505 $506 $507 $508 reversed $205 $-1 #
coedge $-1 $210 $207 $509 $510 reversed $129 $-1 #
coedge $-1 $207 $210 $511 $512 reversed $129 $-1 #
coedge $-1 $506 $505 $207 $345 reversed $205 $-1 #
edge $-1 $513 -10.879706627656022 $514 10.879706627656022 $344 $515 forward 7 unknown #
coedge $-1 $209 $208 $516 $517 reversed $82 $-1 #
coedge $-1 $509 $518 $208 $348 forward $339 $-1 #
edge $-1 $519 -33.45799343641599 $352 -24.927695156922255 $347 $520 forward 7 unknown #
coedge $-1 $521 $511 $209 $350 forward $503 $-1 #
edge $-1 $351 24.927695156922255 $522 33.45799343641599 $349 $523 forward 7 unknown #
vertex $-1 $350 $524 #
vertex $-1 $348 $525 #
straight-curve $-1 54.120539453591377 -18.908271079500647 0 0 0 -1 I I #
face $-1 $-1 $526 $48 $-1 $527 reversed single #
loop $-1 $-1 $218 $212 #
plane-surface $-1 0 0 10.879706627656022 0 0 1 1 0 0 forward_v I I I I #
coedge $-1 $528 $529 $530 $531 reversed $213 $-1 #
coedge $-1 $532 $215 $217 $364 forward $133 $-1 #
coedge $-1 $215 $532 $528 $533 forward $133 $-1 #
coedge $-1 $530 $218 $215 $361 forward $355 $-1 #
edge $-1 $367 -3.4989563827013264 $534 10.496869148103972 $360 $535 forward 7 unknown #
coedge $-1 $536 $537 $216 $363 forward $526 $-1 #
edge $-1 $538 -36.649694892909679 $366 -29.614011533880031 $362 $539 forward 7 unknown #
edge $-1 $367 -8.9284102445664875 $538 3.4470385116073395e-014 $217 $540 forward 7 unknown #
coedge $-1 $218 $530 $536 $541 forward $355 $-1 #
vertex $-1 $219 $542 #
vertex $-1 $219 $543 #
straight-curve $-1 3.5527136788005009e-015 -67.82071946041512 10.87970662765602 0 1 0 I I #
coedge $-1 $369 $369 $-1 $544 reversed $222 $-1 #
edge $-1 $545 0 $545 6.2831853071796004 $223 $546 forward 7 unknown #
vertex $-1 $226 $547 #
ellipse-curve $-1 -11.196660424644236 -34.153931109680308 7.3618649481412008 0 -0.78801076186113728 0.61566146476048833 1 0 0 1 I I #
coedge $-1 $373 $373 $-1 $548 reversed $229 $-1 #
edge $-1 $549 0 $549 6.2831853071796004 $230 $550 forward 7 unknown #
vertex $-1 $233 $551 #
ellipse-curve $-1 -6.9979127654026456 -34.153931109680308 7.3618649481412008 0 -0.78801076186113728 0.61566146476048833 1 0 0 1 I I #
coedge $-1 $377 $377 $-1 $552 reversed $236 $-1 #
edge $-1 $553 0 $553 6.2831853071796004 $237 $554 forward 7 unknown #
vertex $-1 $240 $555 #
ellipse-curve $-1 -2.7991651061610554 -34.153931109680308 7.3618649481412008 0 -0.78801076186113728 0.61566146476048833 1 0 0 1 I I #
face $-1 $-1 $393 $52 $-1 $556 forward single #
loop $-1 $-1 $557 $241 #
plane-surface $-1 0 -36.902370174256497 0 0 1 0 0 0 1 forward_v I I I I #
coedge $-1 $558 $559 $560 $561 reversed $242 $-1 #
coedge $-1 $562 $244 $246 $391 forward $152 $-1 #
coedge $-1 $244 $562 $558 $563 forward $152 $-1 #
coedge $-1 $560 $247 $244 $388 forward $393 $-1 #
edge $-1 $395 -30.559226109497011 $564 -16.56340057869172 $387 $565 forward 7 unknown #
coedge $-1 $566 $567 $245 $390 forward $382 $-1 #
edge $-1 $568 -36.649694892909679 $394 -29.614011533880031 $389 $569 forward 7 unknown #
edge $-1 $395 -8.9284102445664875 $568 3.4470385116073395e-014 $246 $570 forward 7 unknown #
coedge $-1 $247 $560 $566 $571 forward $393 $-1 #
loop $-1 $-1 $560 $381 #
vertex $-1 $390 $572 #
vertex $-1 $248 $573 #
straight-curve $-1 54.120539453591377 -67.82071946041512 10.87970662765602 0 1 0 I I #
coedge $-1 $397 $397 $-1 $574 reversed $251 $-1 #
edge $-1 $575 0 $575 6.2831853071796004 $252 $576 forward 7 unknown #
vertex $-1 $255 $577 #
ellipse-curve $-1 42.923879028947141 -34.153931109680308 7.3618649481412008 0 -0.78801076186113728 0.61566146476048833 1 0 0 1 I I #
coedge $-1 $401 $401 $-1 $578 reversed $258 $-1 #
edge $-1 $579 0 $579 6.2831853071796004 $259 $580 forward 7 unknown #
vertex $-1 $262 $581 #
ellipse-curve $-1 47.122626688188731 -34.153931109680308 7.3618649481412008 0 -0.78801076186113728 0.61566146476048833 1 0 0 1 I I #
coedge $-1 $405 $405 $-1 $582 reversed $265 $-1 #
edge $-1 $583 0 $583 6.2831853071796004 $266 $584 forward 7 unknown #
vertex $-1 $269 $585 #
ellipse-curve $-1 51.321374347430321 -34.153931109680308 7.3618649481412008 0 -0.78801076186113728 0.61566146476048833 1 0 0 1 I I #
face $-1 $-1 $421 $56 $-1 $586 forward single #
loop $-1 $-1 $587 $270 #
plane-surface $-1 0 36.902370174256497 0 0 -1 0 0 0 -1 forward_v I I I I #
coedge $-1 $588 $589 $590 $591 reversed $271 $-1 #
coedge $-1 $592 $273 $275 $419 forward $171 $-1 #
coedge $-1 $273 $592 $588 $593 forward $171 $-1 #
coedge $-1 $590 $276 $273 $416 forward $421 $-1 #
edge $-1 $423 -26.25836688712414 $594 -11.106036283367249 $415 $595 forward 7 unknown #
coedge $-1 $596 $597 $274 $418 forward $410 $-1 #
edge $-1 $598 -62.562517961871905 $422 -55.547515616361309 $417 $599 forward 7 unknown #
edge $-1 $423 65.532801160449978 $598 73.804740348513008 $275 $600 forward 7 unknown #
coedge $-1 $276 $590 $596 $601 forward $421 $-1 #
loop $-1 $-1 $590 $409 #
vertex $-1 $418 $602 #
vertex $-1 $277 $603 #
straight-curve $-1 -44.940568472369833 52.026832862554954 10.87970662765602 0 -1 0 I I #
coedge $-1 $425 $425 $-1 $604 reversed $280 $-1 #
edge $-1 $605 0 $605 6.2831853071796004 $281 $606 forward 7 unknown #
vertex $-1 $284 $607 #
ellipse-curve $-1 -37.364403170491386 34.710640262548978 7.3722054549007243 0 0.84804810408105047 0.52991925155115449 1 0 0 1 I I #
face $-1 $-1 $608 $58 $-1 $609 reversed single #
loop $-1 $-1 $291 $285 #
plane-surface $-1 0 0 10.879706627656022 0 0 1 1 0 0 forward_v I I I I #
coedge $-1 $610 $611 $612 $613 reversed $286 $-1 #
coedge $-1 $614 $288 $290 $439 forward $180 $-1 #
coedge $-1 $288 $614 $610 $615 forward $180 $-1 #
coedge $-1 $612 $291 $288 $436 forward $430 $-1 #
edge $-1 $442 0.80190283967155906 $616 15.954233443428446 $435 $617 forward 7 unknown #
coedge $-1 $618 $619 $289 $438 forward $608 $-1 #
edge $-1 $620 -62.562517961871905 $441 -55.547515616361309 $437 $621 forward 7 unknown #
edge $-1 $442 65.532801160449978 $620 73.804740348513008 $290 $622 forward 7 unknown #
coedge $-1 $291 $612 $618 $623 forward $430 $-1 #
vertex $-1 $438 $624 #
vertex $-1 $292 $625 #
straight-curve $-1 9.1799709812215617 52.026832862554954 10.87970662765602 0 -1 0 I I #
coedge $-1 $444 $444 $-1 $626 reversed $295 $-1 #
edge $-1 $627 0 $627 6.2831853071796004 $296 $628 forward 7 unknown #
vertex $-1 $299 $629 #
ellipse-curve $-1 16.756136283100005 34.710640262548978 7.3722054549007243 0 0.84804810408105047 0.52991925155115449 1 0 0 1 I I #
face $-1 $-1 $315 $45 $-1 $630 reversed single #
loop $-1 $-1 $464 $300 #
plane-surface $-1 0 36.902370174256497 0 0 -1 0 0 0 -1 forward_v I I I I #
coedge $-1 $631 $462 $465 $632 forward $301 $-1 #
coedge $-1 $468 $303 $304 $456 reversed $189 $-1 #
coedge $-1 $462 $631 $303 $454 reversed $301 $-1 #
edge $-1 $469 -10.879706627656022 $633 10.879706627656022 $453 $634 forward 7 unknown #
coedge $-1 $305 $304 $631 $635 forward $121 $-1 #
edge $-1 $460 -62.650837733085112 $633 62.650837733085112 $452 $636 forward 7 unknown #
coedge $-1 $465 $464 $305 $458 reversed $449 $-1 #
edge $-1 $637 -62.650837733085112 $459 62.650837733085112 $457 $638 forward 7 unknown #
vertex $-1 $307 $639 #
vertex $-1 $471 $640 #
straight-curve $-1 62.650837733085112 0 -10.879706627656022 0 -1 0 I I #
coedge $-1 $451 $453 $308 $463 reversed $301 $-1 #
edge $-1 $466 -36.902370174256497 $469 36.902370174256497 $462 $641 forward 7 unknown #
coedge $-1 $457 $309 $314 $472 forward $449 $-1 #
coedge $-1 $309 $457 $451 $632 reversed $449 $-1 #
vertex $-1 $310 $642 #
straight-curve $-1 0 36.902370174256497 10.879706627656022 -1 0 0 I I #
coedge $-1 $311 $452 $313 $471 reversed $189 $-1 #
vertex $-1 $463 $643 #
straight-curve $-1 0 -36.902370174256497 10.879706627656022 1 0 0 I I #
edge $-1 $316 -10.879706627656022 $460 10.879706627656022 $313 $644 forward 7 unknown #
edge $-1 $317 -10.879706627656022 $459 10.879706627656022 $314 $645 forward 7 unknown #
point $-1 62.650837733085112 -36.902370174256497 10.879706627656022 #
point $-1 62.650837733085112 36.902370174256497 10.879706627656022 #
face $-1 $-1 $334 $46 $-1 $646 reversed single #
loop $-1 $-1 $484 $319 #
plane-surface $-1 0 0 10.879706627656022 0 0 1 1 0 0 forward_v I I I I #
coedge $-1 $490 $489 $323 $483 forward $320 $-1 #
coedge $-1 $325 $322 $490 $647 reversed $197 $-1 #
coedge $-1 $322 $325 $493 $648 reversed $197 $-1 #
edge $-1 $495 -10.879706627656022 $491 10.879706627656022 $322 $649 forward 7 unknown #
coedge $-1 $324 $323 $497 $650 reversed $125 $-1 #
edge $-1 $651 -33.45799343641599 $487 -24.927695156922255 $478 $652 forward 7 unknown #
coedge $-1 $494 $493 $324 $485 forward $476 $-1 #
edge $-1 $486 24.927695156922255 $653 33.45799343641599 $484 $654 forward 7 unknown #
vertex $-1 $485 $655 #
vertex $-1 $483 $656 #
straight-curve $-1 -54.120539453591377 -15.142956918944453 0 0 0 -1 I I #
coedge $-1 $478 $328 $333 $499 forward $320 $-1 #
coedge $-1 $328 $478 $479 $647 forward $320 $-1 #
vertex $-1 $329 $657 #
straight-curve $-1 -29.192844296669122 -18.908271079500647 -10.879706627656022 -1 0 0 I I #
coedge $-1 $484 $330 $480 $648 forward $476 $-1 #
coedge $-1 $330 $484 $332 $498 forward $476 $-1 #
vertex $-1 $331 $658 #
straight-curve $-1 -29.192844296669122 -18.908271079500647 10.879706627656022 1 0 0 I I #
coedge $-1 $333 $332 $482 $650 forward $334 $-1 #
edge $-1 $653 15.142956918944453 $336 18.908271079500647 $332 $659 forward 7 unknown #
edge $-1 $335 -18.908271079500647 $651 -15.142956918944453 $333 $660 forward 7 unknown #
point $-1 -62.650837733085112 -18.908271079500647 -10.879706627656022 #
point $-1 -62.650837733085112 -18.908271079500647 10.879706627656022 #
face $-1 $-1 $661 $47 $-1 $662 reversed single #
loop $-1 $-1 $349 $338 #
plane-surface $-1 0 0 10.879706627656022 0 0 1 1 0 0 forward_v I I I I #
coedge $-1 $344 $341 $663 $664 reversed $205 $-1 #
coedge $-1 $341 $344 $665 $666 reversed $205 $-1 #
coedge $-1 $667 $668 $341 $508 forward $661 $-1 #
edge $-1 $669 -10.879706627656022 $670 10.879706627656022 $507 $671 forward 7 unknown #
coedge $-1 $663 $347 $342 $510 forward $339 $-1 #
edge $-1 $352 -10.395464079889372 $514 -6.6301499193331779 $509 $672 forward 7 unknown #
coedge $-1 $349 $665 $343 $512 forward $503 $-1 #
edge $-1 $513 6.6301499193331779 $351 10.395464079889372 $511 $673 forward 7 unknown #
vertex $-1 $512 $674 #
vertex $-1 $510 $675 #
straight-curve $-1 54.120539453591377 -15.142956918944453 0 0 0 -1 I I #
coedge $-1 $668 $667 $346 $517 forward $661 $-1 #
edge $-1 $522 -10.879706627656022 $519 10.879706627656022 $516 $676 forward 7 unknown #
coedge $-1 $347 $663 $668 $677 forward $339 $-1 #
vertex $-1 $517 $678 #
straight-curve $-1 29.192844296669122 -18.908271079500647 -10.879706627656022 -1 0 0 I I #
coedge $-1 $665 $349 $667 $679 forward $503 $-1 #
vertex $-1 $679 $680 #
straight-curve $-1 29.192844296669122 -18.908271079500647 10.879706627656022 1 0 0 I I #
point $-1 54.120539453591377 -18.908271079500647 10.879706627656022 #
point $-1 54.120539453591377 -18.908271079500647 -10.879706627656022 #
loop $-1 $-1 $362 $354 #
plane-surface $-1 0 -36.902370174256497 0 0 1 0 0 0 1 forward_v I I I I #
coedge $-1 $529 $357 $359 $533 reversed $213 $-1 #
coedge $-1 $357 $528 $681 $682 reversed $213 $-1 #
coedge $-1 $365 $360 $357 $531 forward $355 $-1 #
edge $-1 $534 -36.415227415310994 $683 -30.918349286158623 $530 $684 forward 7 unknown #
coedge $-1 $359 $358 $537 $685 reversed $133 $-1 #
edge $-1 $686 -3.4470385116073395e-014 $534 8.9284102445664875 $528 $687 forward 7 unknown #
vertex $-1 $361 $688 #
straight-curve $-1 -3.4989563827013228 -31.405492045104118 10.879706627656022 -1 0 0 I I #
coedge $-1 $681 $362 $365 $541 reversed $526 $-1 #
coedge $-1 $362 $681 $532 $685 forward $526 $-1 #
vertex $-1 $363 $689 #
straight-curve $-1 3.5527136788005009e-015 -36.902370174256497 40.493718161536052 0 0 1 I I #
straight-curve $-1 3.5527136788005009e-015 -36.902370174256475 3.8440232686264011 0 -0.61566146476048833 -0.78801076186113728 I I #
edge $-1 $683 -13.995825530805295 $366 3.5527136788005009e-015 $536 $690 forward 7 unknown #
point $-1 3.5527136788005009e-015 -36.902370174256497 10.879706627656022 #
point $-1 3.5527136788005009e-015 -31.405492045104122 10.879706627656022 #
edge $-1 $691 1 $691 0 $369 $-1 forward 7 unknown #
vertex $-1 $370 $692 #
ellipse-curve $-1 -11.196660424644236 -32.147145440126671 5.793992192368524 0 -0.78801076186113728 0.61566146476048833 1 0 0 1 I I #
point $-1 -10.196660424644236 -34.153931109680322 7.3618649481412124 #
edge $-1 $693 1 $693 0 $373 $-1 forward 7 unknown #
vertex $-1 $374 $694 #
ellipse-curve $-1 -6.9979127654026456 -32.147145440126671 5.793992192368524 0 -0.78801076186113728 0.61566146476048833 1 0 0 1 I I #
point $-1 -5.9979127654026456 -34.153931109680322 7.3618649481412124 #
edge $-1 $695 1 $695 0 $377 $-1 forward 7 unknown #
vertex $-1 $378 $696 #
ellipse-curve $-1 -2.7991651061610554 -32.147145440126671 5.793992192368524 0 -0.78801076186113728 0.61566146476048833 1 0 0 1 I I #
point $-1 -1.7991651061610554 -34.153931109680322 7.3618649481412124 #
plane-surface $-1 0 0 10.879706627656022 0 0 1 1 0 0 forward_v I I I I #
coedge $-1 $567 $566 $559 $697 forward $382 $-1 #
coedge $-1 $559 $384 $386 $563 reversed $242 $-1 #
coedge $-1 $384 $558 $557 $697 reversed $242 $-1 #
coedge $-1 $392 $387 $384 $561 forward $393 $-1 #
edge $-1 $564 -36.415227415310994 $698 -30.918349286158623 $560 $699 forward 7 unknown #
coedge $-1 $386 $385 $567 $700 reversed $152 $-1 #
edge $-1 $701 -3.4470385116073395e-014 $564 8.9284102445664875 $558 $702 forward 7 unknown #
vertex $-1 $388 $703 #
straight-curve $-1 23.561313344094366 -31.405492045104118 10.879706627656022 -1 0 0 I I #
coedge $-1 $557 $389 $392 $571 reversed $382 $-1 #
coedge $-1 $389 $557 $562 $700 forward $382 $-1 #
vertex $-1 $390 $704 #
straight-curve $-1 54.120539453591377 -36.902370174256497 40.493718161536052 0 0 1 I I #
straight-curve $-1 54.120539453591377 -36.902370174256475 3.8440232686264011 0 -0.61566146476048833 -0.78801076186113728 I I #
edge $-1 $698 40.124713922786086 $394 54.120539453591377 $566 $705 forward 7 unknown #
point $-1 54.120539453591377 -36.902370174256497 10.879706627656022 #
point $-1 54.120539453591377 -31.405492045104122 10.879706627656022 #
edge $-1 $706 1 $706 0 $397 $-1 forward 7 unknown #
vertex $-1 $398 $707 #
ellipse-curve $-1 42.923879028947141 -32.147145440126671 5.793992192368524 0 -0.78801076186113728 0.61566146476048833 1 0 0 1 I I #
point $-1 43.923879028947141 -34.153931109680322 7.3618649481412124 #
edge $-1 $708 1 $708 0 $401 $-1 forward 7 unknown #
vertex $-1 $402 $709 #
ellipse-curve $-1 47.122626688188731 -32.147145440126671 5.793992192368524 0 -0.78801076186113728 0.61566146476048833 1 0 0 1 I I #
point $-1 48.122626688188731 -34.153931109680322 7.3618649481412124 #
edge $-1 $710 1 $710 0 $405 $-1 forward 7 unknown #
vertex $-1 $406 $711 #
ellipse-curve $-1 51.321374347430321 -32.147145440126671 5.793992192368524 0 -0.78801076186113728 0.61566146476048833 1 0 0 1 I I #
point $-1 52.321374347430321 -34.153931109680322 7.3618649481412124 #
plane-surface $-1 0 0 10.879706627656022 0 0 1 1 0 0 forward_v I I I I #
coedge $-1 $597 $596 $589 $712 forward $410 $-1 #
coedge $-1 $589 $412 $414 $593 reversed $271 $-1 #
coedge $-1 $412 $588 $587 $712 reversed $271 $-1 #
coedge $-1 $420 $415 $412 $591 forward $421 $-1 #
edge $-1 $594 -19.507922511713488 $713 -15.124462688298458 $590 $714 forward 7 unknown #
coedge $-1 $414 $413 $597 $715 reversed $171 $-1 #
edge $-1 $716 -73.804740348513008 $594 -65.532801160449978 $588 $717 forward 7 unknown #
vertex $-1 $416 $718 #
straight-curve $-1 -18.682201585245693 32.518910350841466 10.87970662765602 1 0 0 I I #
coedge $-1 $587 $417 $420 $601 reversed $410 $-1 #
coedge $-1 $417 $587 $592 $715 forward $410 $-1 #
vertex $-1 $418 $719 #
straight-curve $-1 -44.940568472369833 36.902370174256497 66.427222244017329 0 0 1 I I #
straight-curve $-1 -44.940568472369833 -2.2081825921548131 66.454674406896089 0 0.52991925155115449 -0.84804810408105047 I I #
edge $-1 $713 29.788237868612942 $422 44.940568472369833 $596 $720 forward 7 unknown #
point $-1 -44.940568472369833 36.902370174256497 10.879706627656022 #
point $-1 -44.940568472369833 32.518910350841466 10.87970662765602 #
edge $-1 $721 1 $721 0 $425 $-1 forward 7 unknown #
vertex $-1 $426 $722 #
ellipse-curve $-1 -37.364403170491386 31.723048084607893 5.5053507290238608 0 0.84804810408105047 0.52991925155115449 1 0 0 1 I I #
point $-1 -36.364403170491386 34.710640262548992 7.3722054549007341 #
loop $-1 $-1 $437 $429 #
plane-surface $-1 0 36.902370174256497 0 0 -1 0 0 0 -1 forward_v I I I I #
coedge $-1 $611 $432 $434 $615 reversed $286 $-1 #
coedge $-1 $432 $610 $723 $724 reversed $286 $-1 #
coedge $-1 $440 $435 $432 $613 forward $430 $-1 #
edge $-1 $616 -19.507922511713488 $725 -15.124462688298458 $612 $726 forward 7 unknown #
coedge $-1 $434 $433 $619 $727 reversed $180 $-1 #
edge $-1 $728 -73.804740348513008 $616 -65.532801160449978 $610 $729 forward 7 unknown #
vertex $-1 $436 $730 #
straight-curve $-1 8.3780681415500027 32.518910350841466 10.87970662765602 1 0 0 I I #
coedge $-1 $723 $437 $440 $623 reversed $608 $-1 #
coedge $-1 $437 $723 $614 $727 forward $608 $-1 #
vertex $-1 $438 $731 #
straight-curve $-1 9.1799709812215617 36.902370174256497 66.427222244017329 0 0 1 I I #
straight-curve $-1 9.1799709812215617 -2.2081825921548131 66.454674406896089 0 0.52991925155115449 -0.84804810408105047 I I #
edge $-1 $725 -24.332301584978449 $441 -9.1799709812215617 $618 $732 forward 7 unknown #
point $-1 9.1799709812215617 36.902370174256497 10.879706627656022 #
point $-1 9.1799709812215617 32.518910350841466 10.87970662765602 #
edge $-1 $733 1 $733 0 $444 $-1 forward 7 unknown #
vertex $-1 $445 $734 #
ellipse-curve $-1 16.756136283100005 31.723048084607893 5.5053507290238608 0 0.84804810408105047 0.52991925155115449 1 0 0 1 I I #
point $-1 17.756136283100005 34.710640262548992 7.3722054549007341 #
plane-surface $-1 62.650837733085112 0 0 -1 0 0 0 0 1 forward_v I I I I #
coedge $-1 $453 $451 $455 $635 reversed $301 $-1 #
edge $-1 $466 -10.879706627656022 $637 10.879706627656022 $465 $735 forward 7 unknown #
vertex $-1 $635 $736 #
straight-curve $-1 -62.650837733085112 -36.902370174256497 0 0 0 -1 I I #
edge $-1 $633 -36.902370174256497 $637 36.902370174256497 $631 $737 forward 7 unknown #
straight-curve $-1 0 -36.902370174256497 -10.879706627656022 -1 0 0 I I #
vertex $-1 $458 $738 #
straight-curve $-1 0 36.902370174256497 -10.879706627656022 1 0 0 I I #
point $-1 62.650837733085112 36.902370174256497 -10.879706627656022 #
point $-1 62.650837733085112 -36.902370174256497 -10.879706627656022 #
straight-curve $-1 -62.650837733085112 0 10.879706627656022 0 -1 0 I I #
point $-1 -62.650837733085112 36.902370174256497 10.879706627656022 #
point $-1 -62.650837733085112 -36.902370174256497 10.879706627656022 #
straight-curve $-1 62.650837733085112 -36.902370174256497 0 0 0 -1 I I #
straight-curve $-1 62.650837733085112 36.902370174256497 0 0 0 -1 I I #
plane-surface $-1 -62.650837733085112 0 0 1 0 0 0 0 -1 forward_v I I I I #
edge $-1 $487 6.6301499193331779 $491 10.395464079889372 $490 $739 forward 7 unknown #
edge $-1 $495 -10.395464079889372 $486 -6.6301499193331779 $493 $740 forward 7 unknown #
straight-curve $-1 -54.120539453591377 -18.908271079500647 0 0 0 -1 I I #
edge $-1 $653 -10.879706627656022 $651 10.879706627656022 $497 $741 forward 7 unknown #
vertex $-1 $650 $742 #
straight-curve $-1 -29.192844296669122 -15.142956918944453 -10.879706627656022 1 0 0 I I #
vertex $-1 $498 $743 #
straight-curve $-1 -29.192844296669122 -15.142956918944453 10.879706627656022 -1 0 0 I I #
point $-1 -54.120539453591377 -15.142956918944453 10.879706627656022 #
point $-1 -54.120539453591377 -15.142956918944453 -10.879706627656022 #
point $-1 -54.120539453591377 -18.908271079500647 -10.879706627656022 #
point $-1 -54.120539453591377 -18.908271079500647 10.879706627656022 #
straight-curve $-1 -62.650837733085112 0 10.879706627656022 0 -1 0 I I #
straight-curve $-1 -62.650837733085112 0 -10.879706627656022 0 1 0 I I #
loop $-1 $-1 $516 $502 #
plane-surface $-1 62.650837733085112 0 0 -1 0 0 0 0 1 forward_v I I I I #
coedge $-1 $518 $509 $505 $664 forward $339 $-1 #
edge $-1 $514 24.927695156922255 $669 33.45799343641599 $663 $744 forward 7 unknown #
coedge $-1 $511 $521 $506 $666 forward $503 $-1 #
edge $-1 $670 -33.45799343641599 $513 -24.927695156922255 $665 $745 forward 7 unknown #
coedge $-1 $516 $507 $521 $679 reversed $661 $-1 #
coedge $-1 $507 $516 $518 $677 reversed $661 $-1 #
vertex $-1 $677 $746 #
vertex $-1 $508 $747 #
straight-curve $-1 62.650837733085112 -15.142956918944453 0 0 0 1 I I #
straight-curve $-1 54.120539453591377 -8.512806999611275 -10.879706627656022 0 1 0 I I #
straight-curve $-1 54.120539453591377 -8.512806999611275 10.879706627656022 0 -1 0 I I #
point $-1 54.120539453591377 -15.142956918944453 10.879706627656022 #
point $-1 54.120539453591377 -15.142956918944453 -10.879706627656022 #
straight-curve $-1 62.650837733085112 -18.908271079500647 0 0 0 -1 I I #
edge $-1 $669 15.142956918944453 $519 18.908271079500647 $668 $748 forward 7 unknown #
point $-1 62.650837733085112 -18.908271079500647 -10.879706627656022 #
edge $-1 $522 -18.908271079500647 $670 -15.142956918944453 $667 $749 forward 7 unknown #
point $-1 62.650837733085112 -18.908271079500647 10.879706627656022 #
coedge $-1 $537 $536 $529 $682 forward $526 $-1 #
edge $-1 $683 29.614011533880031 $686 36.649694892909679 $681 $750 forward 7 unknown #
vertex $-1 $541 $751 #
straight-curve $-1 -13.995825530805295 -67.82071946041512 10.87970662765602 0 -1 0 I I #
edge $-1 $686 -10.496869148103972 $538 3.4989563827013264 $537 $752 forward 7 unknown #
vertex $-1 $685 $753 #
straight-curve $-1 -13.995825530805295 -36.902370174256475 3.8440232686264011 0 0.61566146476048833 0.78801076186113728 I I #
point $-1 -13.995825530805295 -31.405492045104122 10.879706627656022 #
point $-1 3.5527136788005009e-015 -36.902370174256497 3.844023268626374 #
straight-curve $-1 0 -36.902370174256497 10.879706627656022 1 0 0 I I #
vertex $-1 $544 $754 #
point $-1 -10.196660424644236 -32.147145440126671 5.793992192368524 #
vertex $-1 $548 $755 #
point $-1 -5.9979127654026456 -32.147145440126671 5.793992192368524 #
vertex $-1 $552 $756 #
point $-1 -1.7991651061610554 -32.147145440126671 5.793992192368524 #
edge $-1 $698 29.614011533880031 $701 36.649694892909679 $557 $757 forward 7 unknown #
vertex $-1 $571 $758 #
straight-curve $-1 40.124713922786086 -67.82071946041512 10.87970662765602 0 -1 0 I I #
edge $-1 $701 16.56340057869172 $568 30.559226109497011 $567 $759 forward 7 unknown #
vertex $-1 $700 $760 #
straight-curve $-1 40.124713922786086 -36.902370174256475 3.8440232686264011 0 0.61566146476048833 0.78801076186113728 I I #
point $-1 40.124713922786086 -31.405492045104122 10.879706627656022 #
point $-1 54.120539453591377 -36.902370174256497 3.844023268626374 #
straight-curve $-1 0 -36.902370174256497 10.879706627656022 1 0 0 I I #
vertex $-1 $574 $761 #
point $-1 43.923879028947141 -32.147145440126671 5.793992192368524 #
vertex $-1 $578 $762 #
point $-1 48.122626688188731 -32.147145440126671 5.793992192368524 #
vertex $-1 $582 $763 #
point $-1 52.321374347430321 -32.147145440126671 5.793992192368524 #
edge $-1 $713 55.547515616361309 $716 62.562517961871905 $587 $764 forward 7 unknown #
vertex $-1 $601 $765 #
straight-curve $-1 -29.788237868612942 52.026832862554954 10.87970662765602 0 1 0 I I #
edge $-1 $716 11.106036283367249 $598 26.25836688712414 $597 $766 forward 7 unknown #
vertex $-1 $715 $767 #
straight-curve $-1 -29.788237868612942 -2.2081825921548131 66.454674406896089 0 -0.52991925155115449 0.84804810408105047 I I #
point $-1 -29.788237868612942 32.518910350841466 10.87970662765602 #
point $-1 -44.940568472369833 36.90237017425649 3.8647042821454249 #
straight-curve $-1 0 36.902370174256497 10.879706627656022 -1 0 0 I I #
vertex $-1 $604 $768 #
point $-1 -36.364403170491386 31.723048084607893 5.5053507290238608 #
coedge $-1 $619 $618 $611 $724 forward $608 $-1 #
edge $-1 $725 55.547515616361309 $728 62.562517961871905 $723 $769 forward 7 unknown #
vertex $-1 $623 $770 #
straight-curve $-1 24.332301584978449 52.026832862554954 10.87970662765602 0 1 0 I I #
edge $-1 $728 -15.954233443428446 $620 -0.80190283967155906 $619 $771 forward 7 unknown #
vertex $-1 $727 $772 #
straight-curve $-1 24.332301584978449 -2.2081825921548131 66.454674406896089 0 -0.52991925155115449 0.84804810408105047 I I #
point $-1 24.332301584978449 32.518910350841466 10.87970662765602 #
point $-1 9.1799709812215617 36.90237017425649 3.8647042821454249 #
straight-curve $-1 0 36.902370174256497 10.879706627656022 -1 0 0 I I #
vertex $-1 $626 $773 #
point $-1 17.756136283100005 31.723048084607893 5.5053507290238608 #
straight-curve $-1 -62.650837733085112 36.902370174256497 0 0 0 -1 I I #
point $-1 -62.650837733085112 -36.902370174256497 -10.879706627656022 #
straight-curve $-1 -62.650837733085112 0 -10.879706627656022 0 1 0 I I #
point $-1 -62.650837733085112 36.902370174256497 -10.879706627656022 #
straight-curve $-1 -54.120539453591377 -8.512806999611275 -10.879706627656022 0 -1 0 I I #
straight-curve $-1 -54.120539453591377 -8.512806999611275 10.879706627656022 0 1 0 I I #
straight-curve $-1 -62.650837733085112 -15.142956918944453 0 0 0 -1 I I #
point $-1 -62.650837733085112 -15.142956918944453 -10.879706627656022 #
point $-1 -62.650837733085112 -15.142956918944453 10.879706627656022 #
straight-curve $-1 29.192844296669122 -15.142956918944453 -10.879706627656022 1 0 0 I I #
straight-curve $-1 29.192844296669122 -15.142956918944453 10.879706627656022 -1 0 0 I I #
point $-1 62.650837733085112 -15.142956918944453 -10.879706627656022 #
point $-1 62.650837733085112 -15.142956918944453 10.879706627656022 #
straight-curve $-1 62.650837733085112 0 -10.879706627656022 0 -1 0 I I #
straight-curve $-1 62.650837733085112 0 10.879706627656022 0 1 0 I I #
straight-curve $-1 -13.995825530805295 -36.902370174256497 40.493718161536052 0 0 -1 I I #
point $-1 -13.995825530805295 -36.902370174256497 10.879706627656022 #
straight-curve $-1 -3.4989563827013228 -36.902370174256497 3.8440232686263744 1 0 0 I I #
point $-1 -13.995825530805295 -36.902370174256497 3.844023268626374 #
point $-1 -11.196660424644236 -31.359134678265534 5.178330727608035 #
point $-1 -6.9979127654026456 -31.359134678265534 5.178330727608035 #
point $-1 -2.7991651061610554 -31.359134678265534 5.178330727608035 #
straight-curve $-1 40.124713922786086 -36.902370174256497 40.493718161536052 0 0 -1 I I #
point $-1 40.124713922786086 -36.902370174256497 10.879706627656022 #
straight-curve $-1 23.561313344094366 -36.902370174256497 3.8440232686263744 1 0 0 I I #
point $-1 40.124713922786086 -36.902370174256497 3.844023268626374 #
point $-1 42.923879028947141 -31.359134678265534 5.178330727608035 #
point $-1 47.122626688188731 -31.359134678265534 5.178330727608035 #
point $-1 51.321374347430321 -31.359134678265534 5.178330727608035 #
straight-curve $-1 -29.788237868612942 36.902370174256497 66.427222244017329 0 0 -1 I I #
point $-1 -29.788237868612942 36.902370174256497 10.879706627656022 #
straight-curve $-1 -18.682201585245693 36.90237017425649 3.8647042821454249 -1 0 0 I I #
point $-1 -29.788237868612942 36.90237017425649 3.8647042821454249 #
point $-1 -37.364403170491386 30.874999980526841 4.9754314774727062 #
straight-curve $-1 24.332301584978449 36.902370174256497 66.427222244017329 0 0 -1 I I #
point $-1 24.332301584978449 36.902370174256497 10.879706627656022 #
straight-curve $-1 8.3780681415500027 36.90237017425649 3.8647042821454249 -1 0 0 I I #
point $-1 24.332301584978449 36.90237017425649 3.8647042821454249 #
point $-1 16.756136283100005 30.874999980526841 4.9754314774727062 #
End-of-ACIS-data 