500 0 5 0           
7 Unknown 11 ACIS 5.0 NT 24 Fri Mar 26 18:51:33 1999 
-1 9.9999999999999995e-007 1e-010 
body $-1 $5 $-1 $6 #
body $-1 $7 $-1 $8 #
body $-1 $9 $-1 $10 #
body $-1 $11 $-1 $12 #
body $-1 $13 $-1 $14 #
lump $-1 $-1 $15 $0 #
transform $-1 1 0 0 0 1 0 0 0 1 41.711478011413924 18.640258298560603 9.0189109489846437 1 rotate no_reflect no_shear #
lump $-1 $-1 $16 $1 #
transform $-1 1 0 0 0 1 0 0 0 1 41.711478011413924 18.640258298560603 9.0189109489846437 1 rotate no_reflect no_shear #
lump $-1 $-1 $17 $2 #
transform $-1 1 0 0 0 1 0 0 0 1 41.711478011413924 18.640258298560603 9.0189109489846437 1 rotate no_reflect no_shear #
lump $-1 $-1 $18 $3 #
transform $-1 1 0 0 0 1 0 0 0 1 41.711478011413924 18.640258298560603 9.0189109489846437 1 rotate no_reflect no_shear #
lump $-1 $-1 $19 $4 #
transform $-1 1 0 0 0 1 0 0 0 1 41.711478011413924 18.640258298560603 9.0189109489846437 1 rotate no_reflect no_shear #
shell $-1 $-1 $-1 $20 $-1 $5 #
shell $-1 $-1 $-1 $21 $-1 $7 #
shell $-1 $-1 $-1 $22 $-1 $9 #
shell $-1 $-1 $-1 $23 $-1 $11 #
shell $-1 $-1 $-1 $24 $-1 $13 #
face $-1 $25 $26 $15 $-1 $27 forward single #
face $-1 $28 $29 $16 $-1 $30 reversed single #
face $-1 $31 $32 $17 $-1 $33 forward single #
face $-1 $34 $35 $18 $-1 $36 reversed single #
face $-1 $37 $38 $19 $-1 $39 forward single #
face $-1 $40 $41 $15 $-1 $42 reversed single #
loop $-1 $-1 $43 $20 #
plane-surface $-1 0 0 9.0189109489846437 0 0 1 1 0 0 forward_v I I I I #
face $-1 $44 $45 $16 $-1 $46 reversed single #
loop $-1 $-1 $47 $21 #
plane-surface $-1 35.45750762792089 -86.130848124736531 54.978381103929721 -1 0 0 0 -0.80901700255871778 0.5877852410284794 forward_v I I I I #
face $-1 $48 $49 $17 $-1 $50 forward single #
loop $-1 $51 $52 $22 #
cone-surface $-1 28.808137670566829 -16.892040436251037 7.0227735920804877 0 0.80901700255871778 -0.5877852410284794 0.5 0 0 1 I I 0 1 0.5 forward I I I I #
face $-1 $53 $54 $18 $-1 $55 reversed single #
loop $-1 $-1 $56 $23 #
plane-surface $-1 -24.22975165469078 32.809585305183681 93.235366653041822 -1 0 0 0 0.54463904215088732 0.83867056331134215 forward_v I I I I #
face $-1 $57 $58 $19 $-1 $59 forward single #
loop $-1 $60 $61 $24 #
cone-surface $-1 -32.970614833052352 13.299374299265573 4.9441114678449418 0 -0.54463904215088732 -0.83867056331134215 2.5 0 0 1 I I 0 1 2.5 forward I I I I #
face $-1 $62 $63 $15 $-1 $64 reversed single #
loop $-1 $-1 $65 $25 #
plane-surface $-1 0 0 -9.0189109489846437 0 0 1 1 0 0 forward_v I I I I #
coedge $-1 $66 $67 $68 $69 forward $26 $-1 #
face $-1 $70 $71 $16 $-1 $72 reversed single #
loop $-1 $-1 $73 $28 #
plane-surface $-1 28.808137670566829 -18.64025829856061 5.9435987907436143 0 -0.80901700255871778 0.5877852410284794 1 0 0 forward_v I I I I #
coedge $-1 $74 $75 $76 $77 reversed $29 $-1 #
face $-1 $-1 $78 $17 $-1 $79 forward single #
loop $-1 $80 $81 $31 #
cone-surface $-1 28.808137670566829 -16.058740825518957 6.4173460040397234 0 0.80901700255871778 -0.5877852410284794 0.25 0 0 1 I I -0.70710678118654746 0.70710678118654746 0.25 forward I I I I #
loop $-1 $-1 $82 $22 #
coedge $-1 $52 $52 $83 $84 reversed $32 $-1 #
face $-1 $85 $86 $18 $-1 $87 reversed single #
loop $-1 $-1 $88 $34 #
plane-surface $-1 -32.970614833052352 -12.625813556484871 23.270989132279468 0 0.54463904215088732 0.83867056331134215 1 0 0 forward_v I I I I #
coedge $-1 $89 $90 $91 $92 reversed $35 $-1 #
face $-1 $-1 $93 $19 $-1 $94 forward single #
loop $-1 $95 $96 $37 #
cone-surface $-1 -32.970614833052352 11.937589701205955 2.8471471160918327 0 -0.54463904215088732 -0.83867056331134215 1.25 0 0 1 I I -0.70710678118654746 0.70710678118654746 1.25 forward I I I I #
loop $-1 $-1 $97 $24 #
coedge $-1 $61 $61 $98 $99 reversed $38 $-1 #
face $-1 $100 $101 $15 $-1 $102 reversed single #
loop $-1 $-1 $103 $40 #
plane-surface $-1 0 -18.640258298560603 0 0 1 0 0 0 1 forward_v I I I I #
coedge $-1 $104 $105 $106 $107 forward $41 $-1 #
coedge $-1 $108 $43 $109 $110 forward $26 $-1 #
coedge $-1 $43 $108 $111 $112 forward $26 $-1 #
coedge $-1 $113 $114 $43 $69 reversed $115 $-1 #
edge $-1 $116 -18.640258298560603 $117 18.640258298560603 $68 $118 forward 7 unknown #
face $-1 $119 $120 $16 $-1 $121 reversed single #
loop $-1 $-1 $122 $44 #
plane-surface $-1 22.158767713212765 -86.130848124736531 54.978381103929721 1 0 0 0 0.80901700255871778 -0.5877852410284794 forward_v I I I I #
coedge $-1 $123 $124 $125 $126 reversed $45 $-1 #
coedge $-1 $75 $47 $127 $128 reversed $29 $-1 #
coedge $-1 $47 $74 $123 $129 reversed $29 $-1 #
coedge $-1 $125 $130 $47 $77 forward $131 $-1 #
edge $-1 $132 24.425165763807662 $133 26.659510768241997 $76 $134 forward 7 unknown #
loop $-1 $-1 $83 $48 #
plane-surface $-1 28.808137670566829 -18.64025829856061 5.9435987907436143 0 -0.80901700255871778 0.5877852410284794 1 0 0 forward_v I I I I #
loop $-1 $-1 $135 $31 #
coedge $-1 $81 $81 $82 $136 reversed $49 $-1 #
coedge $-1 $82 $82 $81 $136 forward $51 $-1 #
coedge $-1 $83 $83 $52 $84 forward $78 $-1 #
edge $-1 $137 2.7393624463115877e-015 $137 6.2831853071796031 $83 $138 forward 7 unknown #
face $-1 $139 $140 $18 $-1 $141 forward single #
loop $-1 $-1 $91 $53 #
plane-surface $-1 0 18.640258298560603 0 0 -1 0 0 0 -1 forward_v I I I I #
coedge $-1 $142 $143 $144 $145 reversed $54 $-1 #
coedge $-1 $90 $56 $146 $147 reversed $35 $-1 #
coedge $-1 $56 $89 $142 $148 reversed $35 $-1 #
coedge $-1 $144 $149 $56 $92 forward $86 $-1 #
edge $-1 $150 37.598772377536264 $151 43.651119044587787 $91 $152 forward 7 unknown #
loop $-1 $-1 $98 $57 #
plane-surface $-1 -32.970614833052352 -12.625813556484871 23.270989132279468 0 0.54463904215088732 0.83867056331134215 1 0 0 forward_v I I I I #
loop $-1 $-1 $153 $37 #
coedge $-1 $96 $96 $97 $154 reversed $58 $-1 #
coedge $-1 $97 $97 $96 $154 forward $60 $-1 #
coedge $-1 $98 $98 $61 $99 forward $93 $-1 #
edge $-1 $155 -7.7136519696136713e-017 $155 6.2831853071796004 $98 $156 forward 7 unknown #
face $-1 $157 $158 $15 $-1 $159 reversed single #
loop $-1 $-1 $160 $62 #
plane-surface $-1 -41.711478011413924 0 0 1 0 0 0 0 -1 forward_v I I I I #
coedge $-1 $161 $111 $162 $163 forward $63 $-1 #
coedge $-1 $164 $65 $161 $165 forward $41 $-1 #
coedge $-1 $65 $164 $166 $167 forward $41 $-1 #
coedge $-1 $114 $113 $65 $107 reversed $115 $-1 #
edge $-1 $168 -18.640258298560603 $169 18.640258298560603 $106 $170 forward 7 unknown #
coedge $-1 $67 $66 $171 $172 forward $26 $-1 #
coedge $-1 $173 $174 $66 $110 reversed $158 $-1 #
edge $-1 $117 -41.711478011413924 $175 41.711478011413924 $109 $176 forward 7 unknown #
coedge $-1 $103 $177 $67 $112 reversed $63 $-1 #
edge $-1 $178 -41.711478011413924 $116 41.711478011413924 $111 $179 forward 7 unknown #
coedge $-1 $106 $68 $177 $180 forward $115 $-1 #
coedge $-1 $68 $106 $173 $181 reversed $115 $-1 #
loop $-1 $-1 $113 $157 #
vertex $-1 $69 $182 #
vertex $-1 $69 $183 #
straight-curve $-1 41.711478011413924 0 9.0189109489846437 0 1 0 I I #
face $-1 $-1 $131 $16 $-1 $184 forward single #
loop $-1 $-1 $185 $70 #
plane-surface $-1 0 -18.640258298560603 0 0 1 0 0 0 1 forward_v I I I I #
coedge $-1 $186 $187 $188 $189 reversed $71 $-1 #
coedge $-1 $190 $73 $75 $129 forward $45 $-1 #
coedge $-1 $73 $190 $186 $191 forward $45 $-1 #
coedge $-1 $188 $76 $73 $126 forward $131 $-1 #
edge $-1 $133 -21.053438792637476 $192 -7.75469887792935 $125 $193 forward 7 unknown #
coedge $-1 $194 $195 $74 $128 forward $120 $-1 #
edge $-1 $196 -21.545591761221235 $132 -18.470279602980217 $127 $197 forward 7 unknown #
edge $-1 $133 -3.8012948411647574 $196 -1.2080531203272332e-014 $75 $198 forward 7 unknown #
coedge $-1 $76 $188 $194 $199 forward $131 $-1 #
loop $-1 $-1 $188 $119 #
vertex $-1 $128 $200 #
vertex $-1 $77 $201 #
straight-curve $-1 35.45750762792089 -43.065424062368265 9.0189109489846437 0 1 0 I I #
coedge $-1 $135 $135 $-1 $202 reversed $80 $-1 #
edge $-1 $203 0 $203 6.2831853071796004 $81 $204 forward 7 unknown #
vertex $-1 $84 $205 #
ellipse-curve $-1 28.808137670566829 -17.523085796343437 7.4812548698641317 0 -0.80901700255871778 0.5877852410284794 0.5 0 0 1 I I #
face $-1 $-1 $206 $18 $-1 $207 reversed single #
loop $-1 $-1 $146 $85 #
plane-surface $-1 0 0 9.0189109489846437 0 0 1 1 0 0 forward_v I I I I #
coedge $-1 $208 $88 $90 $148 forward $54 $-1 #
coedge $-1 $88 $208 $209 $210 reversed $54 $-1 #
coedge $-1 $211 $91 $88 $145 forward $86 $-1 #
edge $-1 $151 7.7444442381646041 $212 25.226170594887748 $144 $213 forward 7 unknown #
coedge $-1 $214 $215 $89 $147 forward $140 $-1 #
edge $-1 $216 -7.0843307618792544 $150 2.2354656459687625 $146 $217 forward 7 unknown #
edge $-1 $151 -37.280516597121199 $216 -26.167933402296221 $90 $218 forward 7 unknown #
coedge $-1 $91 $211 $214 $219 reversed $86 $-1 #
vertex $-1 $219 $220 #
vertex $-1 $92 $221 #
straight-curve $-1 -24.22975165469078 18.640258298560603 46.617683326520911 0 0 -1 I I #
coedge $-1 $153 $153 $-1 $222 reversed $95 $-1 #
edge $-1 $223 0 $223 6.2831853071796004 $96 $224 forward 7 unknown #
vertex $-1 $99 $225 #
ellipse-curve $-1 -32.970614833052352 13.980360094636591 5.9927376154588865 0 0.54463904215088732 0.83867056331134215 2.5 0 0 1 I I #
face $-1 $-1 $115 $15 $-1 $226 reversed single #
loop $-1 $-1 $173 $100 #
plane-surface $-1 0 18.640258298560603 0 0 -1 0 0 0 -1 forward_v I I I I #
coedge $-1 $227 $171 $174 $228 forward $101 $-1 #
coedge $-1 $177 $103 $104 $165 reversed $63 $-1 #
coedge $-1 $171 $227 $103 $163 reversed $101 $-1 #
edge $-1 $178 -9.0189109489846437 $229 9.0189109489846437 $162 $230 forward 7 unknown #
coedge $-1 $105 $104 $227 $231 forward $41 $-1 #
edge $-1 $169 -41.711478011413924 $229 41.711478011413924 $161 $232 forward 7 unknown #
coedge $-1 $174 $173 $105 $167 reversed $158 $-1 #
edge $-1 $233 -41.711478011413924 $168 41.711478011413924 $166 $234 forward 7 unknown #
vertex $-1 $107 $235 #
vertex $-1 $180 $236 #
straight-curve $-1 41.711478011413924 0 -9.0189109489846437 0 -1 0 I I #
coedge $-1 $160 $162 $108 $172 reversed $101 $-1 #
edge $-1 $175 -18.640258298560603 $178 18.640258298560603 $171 $237 forward 7 unknown #
coedge $-1 $166 $109 $114 $181 forward $158 $-1 #
coedge $-1 $109 $166 $160 $228 reversed $158 $-1 #
vertex $-1 $110 $238 #
straight-curve $-1 0 18.640258298560603 9.0189109489846437 -1 0 0 I I #
coedge $-1 $111 $161 $113 $180 reversed $63 $-1 #
vertex $-1 $172 $239 #
straight-curve $-1 0 -18.640258298560603 9.0189109489846437 1 0 0 I I #
edge $-1 $116 -9.0189109489846437 $169 9.0189109489846437 $113 $240 forward 7 unknown #
edge $-1 $117 -9.0189109489846437 $168 9.0189109489846437 $114 $241 forward 7 unknown #
point $-1 41.711478011413924 -18.640258298560603 9.0189109489846437 #
point $-1 41.711478011413924 18.640258298560603 9.0189109489846437 #
plane-surface $-1 0 0 9.0189109489846437 0 0 1 1 0 0 forward_v I I I I #
coedge $-1 $195 $194 $187 $242 forward $120 $-1 #
coedge $-1 $187 $122 $124 $191 reversed $71 $-1 #
coedge $-1 $122 $186 $185 $242 reversed $71 $-1 #
coedge $-1 $130 $125 $122 $189 forward $131 $-1 #
edge $-1 $192 -26.659510768241997 $243 -24.425165763807662 $188 $244 forward 7 unknown #
coedge $-1 $124 $123 $195 $245 reversed $45 $-1 #
edge $-1 $246 1.2080531203272332e-014 $192 3.8012948411647574 $186 $247 forward 7 unknown #
vertex $-1 $126 $248 #
straight-curve $-1 14.404068835283415 -16.405913294126268 9.0189109489846437 -1 0 0 I I #
coedge $-1 $185 $127 $130 $199 reversed $120 $-1 #
coedge $-1 $127 $185 $190 $245 forward $120 $-1 #
vertex $-1 $128 $249 #
straight-curve $-1 35.45750762792089 -18.640258298560603 27.48919055196486 0 0 1 I I #
straight-curve $-1 35.45750762792089 -18.64025829856061 5.9435987907436143 0 -0.5877852410284794 -0.80901700255871778 I I #
edge $-1 $243 22.158767713212765 $132 35.45750762792089 $194 $250 forward 7 unknown #
point $-1 35.45750762792089 -18.640258298560603 9.0189109489846437 #
point $-1 35.45750762792089 -16.405913294126268 9.0189109489846437 #
edge $-1 $251 1 $251 0 $135 $-1 forward 7 unknown #
vertex $-1 $136 $252 #
ellipse-curve $-1 28.808137670566829 -16.260995076158636 6.5642923142968437 0 -0.80901700255871778 0.5877852410284794 0.5 0 0 1 I I #
point $-1 29.308137670566829 -17.523085796343434 7.4812548698641308 #
loop $-1 $-1 $209 $139 #
plane-surface $-1 -41.711478011413924 0 0 1 0 0 0 0 -1 forward_v I I I I #
coedge $-1 $143 $142 $215 $253 reversed $54 $-1 #
coedge $-1 $254 $255 $143 $210 forward $206 $-1 #
edge $-1 $212 -25.648922897826424 $256 -14.536339703001449 $209 $257 forward 7 unknown #
coedge $-1 $149 $144 $255 $258 reversed $86 $-1 #
vertex $-1 $145 $259 #
straight-curve $-1 -16.485307416526176 18.640258298560603 2.9665642819331222 -1 0 0 I I #
coedge $-1 $260 $146 $149 $219 forward $140 $-1 #
coedge $-1 $146 $260 $208 $253 forward $140 $-1 #
vertex $-1 $147 $261 #
straight-curve $-1 -24.22975165469078 16.404792652591841 9.0189109489846402 0 1 0 I I #
straight-curve $-1 -24.22975165469078 -12.625813556484871 23.270989132279468 0 -0.83867056331134215 0.54463904215088732 I I #
edge $-1 $150 24.22975165469078 $262 41.711478011413924 $149 $263 forward 7 unknown #
point $-1 -24.22975165469078 18.640258298560603 9.0189109489846437 #
point $-1 -24.22975165469078 18.640258298560607 2.9665642819331204 #
edge $-1 $264 1 $264 0 $153 $-1 forward 7 unknown #
vertex $-1 $154 $265 #
ellipse-curve $-1 -32.970614833052352 12.618388503894565 3.8954853202310105 0 0.54463904215088732 0.83867056331134215 2.5 0 0 1 I I #
point $-1 -30.470614833052352 13.980360094636582 5.9927376154588732 #
plane-surface $-1 41.711478011413924 0 0 -1 0 0 0 0 1 forward_v I I I I #
coedge $-1 $162 $160 $164 $231 reversed $101 $-1 #
edge $-1 $175 -9.0189109489846437 $233 9.0189109489846437 $174 $266 forward 7 unknown #
vertex $-1 $231 $267 #
straight-curve $-1 -41.711478011413924 -18.640258298560603 0 0 0 -1 I I #
edge $-1 $229 -18.640258298560603 $233 18.640258298560603 $227 $268 forward 7 unknown #
straight-curve $-1 0 -18.640258298560603 -9.0189109489846437 -1 0 0 I I #
vertex $-1 $167 $269 #
straight-curve $-1 0 18.640258298560603 -9.0189109489846437 1 0 0 I I #
point $-1 41.711478011413924 18.640258298560603 -9.0189109489846437 #
point $-1 41.711478011413924 -18.640258298560603 -9.0189109489846437 #
straight-curve $-1 -41.711478011413924 0 9.0189109489846437 0 -1 0 I I #
point $-1 -41.711478011413924 18.640258298560603 9.0189109489846437 #
point $-1 -41.711478011413924 -18.640258298560603 9.0189109489846437 #
straight-curve $-1 41.711478011413924 -18.640258298560603 0 0 0 -1 I I #
straight-curve $-1 41.711478011413924 18.640258298560603 0 0 0 -1 I I #
edge $-1 $243 18.470279602980217 $246 21.545591761221235 $185 $270 forward 7 unknown #
vertex $-1 $199 $271 #
straight-curve $-1 22.158767713212765 -43.065424062368265 9.0189109489846437 0 -1 0 I I #
edge $-1 $246 7.75469887792935 $196 21.053438792637476 $195 $272 forward 7 unknown #
vertex $-1 $245 $273 #
straight-curve $-1 22.158767713212765 -18.64025829856061 5.9435987907436143 0 0.5877852410284794 0.80901700255871778 I I #
point $-1 22.158767713212765 -16.405913294126268 9.0189109489846437 #
point $-1 35.45750762792089 -18.640258298560603 5.9435987907436241 #
straight-curve $-1 0 -18.640258298560603 9.0189109489846437 1 0 0 I I #
vertex $-1 $202 $274 #
point $-1 29.308137670566829 -16.260995076158636 6.5642923142968437 #
edge $-1 $256 -25.226170594887748 $216 -7.7444442381646041 $215 $275 forward 7 unknown #
coedge $-1 $255 $209 $260 $276 reversed $206 $-1 #
coedge $-1 $209 $254 $211 $258 forward $206 $-1 #
vertex $-1 $210 $277 #
straight-curve $-1 -41.711478011413924 -2.8707383164886657 16.935969081207269 0 -0.83867056331134215 0.54463904215088732 I I #
edge $-1 $262 -9.0189109489846437 $212 -2.9665642819331239 $211 $278 forward 7 unknown #
point $-1 -41.711478011413924 18.640258298560603 2.9665642819331239 #
coedge $-1 $215 $214 $254 $276 forward $140 $-1 #
point $-1 -24.22975165469078 9.3204618907125862 9.0189109489846437 #
vertex $-1 $219 $279 #
straight-curve $-1 0 18.640258298560603 9.0189109489846437 -1 0 0 I I #
vertex $-1 $222 $280 #
point $-1 -30.470614833052352 12.618388503894565 3.8954853202310105 #
straight-curve $-1 -41.711478011413924 18.640258298560603 0 0 0 -1 I I #
point $-1 -41.711478011413924 -18.640258298560603 -9.0189109489846437 #
straight-curve $-1 -41.711478011413924 0 -9.0189109489846437 0 1 0 I I #
point $-1 -41.711478011413924 18.640258298560603 -9.0189109489846437 #
straight-curve $-1 22.158767713212765 -18.640258298560603 27.48919055196486 0 0 -1 I I #
point $-1 22.158767713212765 -18.640258298560603 9.0189109489846437 #
straight-curve $-1 14.404068835283415 -18.640258298560603 5.943598790743625 1 0 0 I I #
point $-1 22.158767713212765 -18.640258298560603 5.9435987907436241 #
point $-1 28.808137670566829 -15.856486574879277 6.2703996937826032 #
straight-curve $-1 -16.485307416526176 9.3204618907125862 9.0189109489846437 1 0 0 I I #
edge $-1 $262 -18.640258298560603 $256 -9.3204618907125862 $254 $281 forward 7 unknown #
point $-1 -41.711478011413924 9.3204618907125862 9.0189109489846437 #
straight-curve $-1 -41.711478011413924 18.640258298560603 0 0 0 -1 I I #
point $-1 -41.711478011413924 18.640258298560603 9.0189109489846437 #
point $-1 -32.970614833052352 11.256790898517345 1.7988089119526549 #
straight-curve $-1 -41.711478011413924 0 9.0189109489846437 0 -1 0 I I #
End-of-ACIS-data 