500 0 4 0           
7 Unknown 11 ACIS 5.0 NT 24 Fri Mar 26 15:37:05 1999 
-1 9.9999999999999995e-007 1e-010 
body $-1 $4 $-1 $5 #
body $-1 $6 $-1 $7 #
body $-1 $8 $-1 $9 #
body $-1 $10 $-1 $11 #
lump $-1 $-1 $12 $0 #
transform $-1 1 0 0 0 1 0 0 0 1 57.813043610950039 29.699252311606184 9.2237446561803136 1 rotate no_reflect no_shear #
lump $-1 $-1 $13 $1 #
transform $-1 1 0 0 0 1 0 0 0 1 57.813043610950039 29.699252311606184 9.2237446561803136 1 rotate no_reflect no_shear #
lump $-1 $-1 $14 $2 #
transform $-1 1 0 0 0 1 0 0 0 1 57.813043610950039 29.699252311606184 9.2237446561803136 1 rotate no_reflect no_shear #
lump $-1 $-1 $15 $3 #
transform $-1 1 0 0 0 1 0 0 0 1 57.813043610950039 29.699252311606184 9.2237446561803136 1 rotate no_reflect no_shear #
shell $-1 $-1 $-1 $16 $-1 $4 #
shell $-1 $-1 $-1 $17 $-1 $6 #
shell $-1 $-1 $-1 $18 $-1 $8 #
shell $-1 $-1 $-1 $19 $-1 $10 #
face $-1 $20 $21 $12 $-1 $22 forward single #
face $-1 $23 $24 $13 $-1 $25 reversed single #
face $-1 $26 $27 $14 $-1 $28 reversed single #
face $-1 $29 $30 $15 $-1 $31 forward single #
face $-1 $32 $33 $12 $-1 $34 reversed single #
loop $-1 $-1 $35 $16 #
plane-surface $-1 0 0 9.2237446561803136 0 0 1 1 0 0 forward_v I I I I #
face $-1 $36 $37 $13 $-1 $38 reversed single #
loop $-1 $-1 $39 $17 #
plane-surface $-1 0 -26.283657469331303 6.2237446561803136 0 0 1 1 0 0 forward_v I I I I #
face $-1 $40 $41 $14 $-1 $42 reversed single #
loop $-1 $-1 $43 $18 #
plane-surface $-1 -125.77635332854044 6.8553569687942577 93.835785677157972 0 1 0 -0.5877852598018023 0 0.80901698891910034 forward_v I I I I #
face $-1 $44 $45 $15 $-1 $46 forward single #
loop $-1 $47 $48 $19 #
cone-surface $-1 -49.317150641013541 13.33606515938062 1.5244070578849227 0.5877852598018023 0 -0.80901698891910034 1.6180339778382007 0 1.1755705196036046 1 I I 0 1 2 forward I I I I #
face $-1 $49 $50 $12 $-1 $51 reversed single #
loop $-1 $-1 $52 $20 #
plane-surface $-1 0 0 -9.2237446561803136 0 0 1 1 0 0 forward_v I I I I #
coedge $-1 $53 $54 $55 $56 forward $21 $-1 #
face $-1 $57 $58 $13 $-1 $59 reversed single #
loop $-1 $-1 $60 $23 #
plane-surface $-1 0 -22.868062627056421 7.7237446561803136 0 -1 0 0 0 -1 forward_v I I I I #
coedge $-1 $61 $62 $63 $64 reversed $24 $-1 #
face $-1 $65 $66 $14 $-1 $67 reversed single #
loop $-1 $-1 $68 $26 #
plane-surface $-1 -57.813043610950047 13.33606515938062 0.2923167523991026 -0.5877852598018023 0 0.80901698891910034 0.80901698891910034 0 0.5877852598018023 forward_v I I I I #
coedge $-1 $69 $70 $71 $72 reversed $27 $-1 #
face $-1 $-1 $73 $15 $-1 $74 forward single #
loop $-1 $75 $76 $29 #
cone-surface $-1 -46.380000236676622 13.33606515938062 -2.5182335774389646 0.5877852598018023 0 -0.80901698891910034 0.80901698891910034 0 0.5877852598018023 1 I I -0.70710678118654746 0.70710678118654746 1 forward I I I I #
loop $-1 $-1 $77 $19 #
coedge $-1 $48 $48 $78 $79 reversed $30 $-1 #
face $-1 $80 $81 $12 $-1 $82 reversed single #
loop $-1 $-1 $83 $32 #
plane-surface $-1 0 -29.699252311606184 0 0 1 0 0 0 1 forward_v I I I I #
coedge $-1 $84 $85 $86 $87 forward $33 $-1 #
coedge $-1 $88 $35 $89 $90 forward $21 $-1 #
coedge $-1 $35 $88 $91 $92 forward $21 $-1 #
coedge $-1 $93 $94 $35 $56 reversed $95 $-1 #
edge $-1 $96 -29.699252311606184 $97 29.699252311606184 $55 $98 forward 7 unknown #
face $-1 $99 $100 $13 $-1 $101 reversed single #
loop $-1 $-1 $102 $36 #
plane-surface $-1 -57.813043610950039 0 0 1 0 0 0 0 -1 forward_v I I I I #
coedge $-1 $103 $104 $105 $106 reversed $37 $-1 #
coedge $-1 $107 $39 $108 $109 reversed $24 $-1 #
coedge $-1 $39 $107 $103 $110 forward $24 $-1 #
coedge $-1 $105 $111 $39 $64 forward $112 $-1 #
edge $-1 $113 -16.557423576940533 $114 -9.7262338923907699 $63 $115 forward 7 unknown #
face $-1 $116 $117 $14 $-1 $118 forward single #
loop $-1 $-1 $119 $40 #
plane-surface $-1 -125.77635332854044 19.816773349966983 93.835785677157972 0 -1 0 0.5877852598018023 0 -0.80901698891910034 forward_v I I I I #
coedge $-1 $120 $121 $122 $123 reversed $41 $-1 #
coedge $-1 $70 $43 $124 $125 reversed $27 $-1 #
coedge $-1 $43 $69 $120 $126 reversed $27 $-1 #
coedge $-1 $122 $127 $43 $72 forward $117 $-1 #
edge $-1 $128 5.0751330533201795 $129 17.368188704122922 $71 $130 forward 7 unknown #
loop $-1 $-1 $78 $44 #
plane-surface $-1 -57.813043610950047 13.33606515938062 0.2923167523991026 -0.5877852598018023 0 0.80901698891910034 0.80901698891910034 0 0.5877852598018023 forward_v I I I I #
loop $-1 $-1 $131 $29 #
coedge $-1 $76 $76 $77 $132 reversed $45 $-1 #
coedge $-1 $77 $77 $76 $132 forward $47 $-1 #
coedge $-1 $78 $78 $48 $79 forward $73 $-1 #
edge $-1 $133 0 $133 6.2831853071796004 $78 $134 forward 7 unknown #
face $-1 $135 $136 $12 $-1 $137 reversed single #
loop $-1 $-1 $138 $49 #
plane-surface $-1 -57.813043610950039 0 0 1 0 0 0 0 -1 forward_v I I I I #
coedge $-1 $139 $91 $140 $141 forward $50 $-1 #
coedge $-1 $142 $52 $139 $143 forward $33 $-1 #
coedge $-1 $52 $142 $144 $145 forward $33 $-1 #
coedge $-1 $94 $93 $52 $87 reversed $95 $-1 #
edge $-1 $146 -29.699252311606184 $147 29.699252311606184 $86 $148 forward 7 unknown #
coedge $-1 $54 $53 $149 $150 forward $21 $-1 #
coedge $-1 $151 $152 $53 $90 reversed $136 $-1 #
edge $-1 $97 -57.813043610950039 $153 57.813043610950039 $89 $154 forward 7 unknown #
coedge $-1 $83 $155 $54 $92 reversed $50 $-1 #
edge $-1 $156 -57.813043610950039 $96 57.813043610950039 $91 $157 forward 7 unknown #
coedge $-1 $86 $55 $155 $158 forward $95 $-1 #
coedge $-1 $55 $86 $151 $159 reversed $95 $-1 #
loop $-1 $-1 $93 $135 #
vertex $-1 $56 $160 #
vertex $-1 $56 $161 #
straight-curve $-1 57.813043610950039 0 9.2237446561803136 0 1 0 I I #
face $-1 $162 $163 $13 $-1 $164 forward single #
loop $-1 $-1 $108 $57 #
plane-surface $-1 0 -29.699252311606184 0 0 1 0 0 0 1 forward_v I I I I #
coedge $-1 $165 $166 $167 $168 forward $58 $-1 #
coedge $-1 $167 $60 $62 $110 reversed $37 $-1 #
coedge $-1 $60 $167 $169 $170 reversed $37 $-1 #
coedge $-1 $171 $63 $60 $106 forward $112 $-1 #
edge $-1 $114 2.3618723280901568 $172 5.3618723280901568 $105 $173 forward 7 unknown #
coedge $-1 $62 $61 $165 $174 reversed $24 $-1 #
coedge $-1 $175 $176 $61 $109 forward $100 $-1 #
edge $-1 $177 -57.813043610950039 $113 57.813043610950039 $108 $178 forward 7 unknown #
edge $-1 $179 -57.813043610950039 $114 57.813043610950039 $103 $180 forward 7 unknown #
coedge $-1 $63 $171 $175 $181 forward $112 $-1 #
loop $-1 $-1 $105 $162 #
vertex $-1 $109 $182 #
vertex $-1 $64 $183 #
straight-curve $-1 57.813043610950039 -13.141828734665651 6.2237446561803136 0 1 0 I I #
face $-1 $-1 $184 $14 $-1 $185 reversed single #
loop $-1 $-1 $71 $65 #
plane-surface $-1 0 0 9.2237446561803136 0 0 1 1 0 0 forward_v I I I I #
coedge $-1 $186 $187 $188 $189 reversed $66 $-1 #
coedge $-1 $190 $68 $70 $126 forward $41 $-1 #
coedge $-1 $68 $190 $186 $191 forward $41 $-1 #
coedge $-1 $188 $71 $68 $123 forward $117 $-1 #
edge $-1 $129 0.18732438910394755 $192 13.148740770276673 $122 $193 forward 7 unknown #
coedge $-1 $194 $195 $69 $125 forward $184 $-1 #
edge $-1 $196 -46.625576086179876 $128 -37.694148182398671 $124 $197 forward 7 unknown #
edge $-1 $129 -15.195052538052478 $196 -8.7828746355274299e-015 $70 $198 forward 7 unknown #
coedge $-1 $71 $188 $194 $199 forward $117 $-1 #
vertex $-1 $125 $200 #
vertex $-1 $72 $201 #
straight-curve $-1 -62.888176664270219 6.8553569687942577 9.2237446561803154 1 0 0 I I #
coedge $-1 $131 $131 $-1 $202 reversed $75 $-1 #
edge $-1 $203 0 $203 6.2831853071796004 $76 $204 forward 7 unknown #
vertex $-1 $79 $205 #
ellipse-curve $-1 -51.666515785548661 13.33606515938062 4.7580307042897143 -0.5877852598018023 0 0.80901698891910034 1.6180339778382007 0 1.1755705196036046 1 I I #
face $-1 $-1 $95 $12 $-1 $206 reversed single #
loop $-1 $-1 $151 $80 #
plane-surface $-1 0 29.699252311606184 0 0 -1 0 0 0 -1 forward_v I I I I #
coedge $-1 $207 $149 $152 $208 forward $81 $-1 #
coedge $-1 $155 $83 $84 $143 reversed $50 $-1 #
coedge $-1 $149 $207 $83 $141 reversed $81 $-1 #
edge $-1 $156 -9.2237446561803136 $209 9.2237446561803136 $140 $210 forward 7 unknown #
coedge $-1 $85 $84 $207 $211 forward $33 $-1 #
edge $-1 $147 -57.813043610950039 $209 57.813043610950039 $139 $212 forward 7 unknown #
coedge $-1 $152 $151 $85 $145 reversed $136 $-1 #
edge $-1 $213 -57.813043610950039 $146 57.813043610950039 $144 $214 forward 7 unknown #
vertex $-1 $87 $215 #
vertex $-1 $158 $216 #
straight-curve $-1 57.813043610950039 0 -9.2237446561803136 0 -1 0 I I #
coedge $-1 $138 $140 $88 $150 reversed $81 $-1 #
edge $-1 $153 -29.699252311606184 $156 29.699252311606184 $149 $217 forward 7 unknown #
coedge $-1 $144 $89 $94 $159 forward $136 $-1 #
coedge $-1 $89 $144 $138 $208 reversed $136 $-1 #
vertex $-1 $90 $218 #
straight-curve $-1 0 29.699252311606184 9.2237446561803136 -1 0 0 I I #
coedge $-1 $91 $139 $93 $158 reversed $50 $-1 #
vertex $-1 $150 $219 #
straight-curve $-1 0 -29.699252311606184 9.2237446561803136 1 0 0 I I #
edge $-1 $96 -9.2237446561803136 $147 9.2237446561803136 $93 $220 forward 7 unknown #
edge $-1 $97 -9.2237446561803136 $146 9.2237446561803136 $94 $221 forward 7 unknown #
point $-1 57.813043610950039 -29.699252311606184 9.2237446561803136 #
point $-1 57.813043610950039 29.699252311606184 9.2237446561803136 #
face $-1 $-1 $112 $13 $-1 $222 reversed single #
loop $-1 $-1 $169 $99 #
plane-surface $-1 0 0 9.2237446561803136 0 0 1 1 0 0 forward_v I I I I #
coedge $-1 $223 $102 $107 $174 forward $58 $-1 #
coedge $-1 $102 $223 $224 $225 reversed $58 $-1 #
coedge $-1 $104 $103 $102 $168 reversed $37 $-1 #
edge $-1 $226 -5.3618723280901568 $179 -2.3618723280901568 $102 $227 forward 7 unknown #
coedge $-1 $224 $228 $104 $170 forward $163 $-1 #
edge $-1 $172 -57.813043610950039 $226 57.813043610950039 $169 $229 forward 7 unknown #
coedge $-1 $111 $105 $228 $230 reversed $112 $-1 #
vertex $-1 $106 $231 #
straight-curve $-1 57.813043610950039 -22.868062627056421 3.8618723280901568 0 0 1 I I #
edge $-1 $179 9.7262338923907699 $177 16.557423576940533 $165 $232 forward 7 unknown #
coedge $-1 $233 $108 $111 $181 reversed $100 $-1 #
coedge $-1 $108 $233 $223 $234 forward $100 $-1 #
vertex $-1 $109 $235 #
straight-curve $-1 0 -29.699252311606184 6.2237446561803136 1 0 0 I I #
vertex $-1 $174 $236 #
straight-curve $-1 0 -22.868062627056421 6.2237446561803136 1 0 0 I I #
edge $-1 $237 -9.2237446561803136 $113 -6.2237446561803136 $111 $238 forward 7 unknown #
point $-1 57.813043610950039 -29.699252311606184 6.2237446561803136 #
point $-1 57.813043610950039 -22.868062627056421 6.2237446561803136 #
loop $-1 $-1 $124 $116 #
plane-surface $-1 -57.813043610950039 0 0 1 0 0 0 0 -1 forward_v I I I I #
coedge $-1 $187 $119 $121 $191 reversed $66 $-1 #
coedge $-1 $119 $186 $239 $240 reversed $66 $-1 #
coedge $-1 $127 $122 $119 $189 forward $117 $-1 #
edge $-1 $192 -17.368188704122922 $241 -5.0751330533201795 $188 $242 forward 7 unknown #
coedge $-1 $121 $120 $195 $243 reversed $41 $-1 #
edge $-1 $244 8.7828746355274299e-015 $192 15.195052538052478 $186 $245 forward 7 unknown #
vertex $-1 $123 $246 #
straight-curve $-1 -45.51998796014729 6.6680325796903102 9.2237446561803136 0 1 0 I I #
coedge $-1 $239 $124 $127 $199 reversed $184 $-1 #
coedge $-1 $124 $239 $190 $243 forward $184 $-1 #
vertex $-1 $125 $247 #
straight-curve $-1 -57.813043610950039 6.8553569687942577 46.917892838578986 0 0 1 I I #
straight-curve $-1 -57.813043610950047 6.8553569687942577 0.2923167523991026 -0.80901698891910034 0 -0.5877852598018023 I I #
edge $-1 $241 -19.816773349966983 $128 -6.8553569687942577 $194 $248 forward 7 unknown #
point $-1 -57.813043610950039 6.8553569687942577 9.2237446561803136 #
point $-1 -45.519987960147297 6.8553569687942577 9.2237446561803136 #
edge $-1 $249 1 $249 0 $131 $-1 forward 7 unknown #
vertex $-1 $132 $250 #
ellipse-curve $-1 -46.967785496478427 13.33606515938062 -1.7092165885198642 -0.5877852598018023 0 0.80901698891910034 1.6180339778382007 0 1.1755705196036046 1 I I #
point $-1 -50.048481807710459 13.33606515938062 5.933601223893314 #
plane-surface $-1 57.813043610950039 0 0 -1 0 0 0 0 1 forward_v I I I I #
coedge $-1 $140 $138 $142 $211 reversed $81 $-1 #
edge $-1 $153 -9.2237446561803136 $213 9.2237446561803136 $152 $251 forward 7 unknown #
vertex $-1 $211 $252 #
straight-curve $-1 -57.813043610950039 -29.699252311606184 0 0 0 -1 I I #
edge $-1 $209 -29.699252311606184 $213 29.699252311606184 $207 $253 forward 7 unknown #
straight-curve $-1 0 -29.699252311606184 -9.2237446561803136 -1 0 0 I I #
vertex $-1 $145 $254 #
straight-curve $-1 0 29.699252311606184 -9.2237446561803136 1 0 0 I I #
point $-1 57.813043610950039 29.699252311606184 -9.2237446561803136 #
point $-1 57.813043610950039 -29.699252311606184 -9.2237446561803136 #
straight-curve $-1 -57.813043610950039 0 9.2237446561803136 0 -1 0 I I #
point $-1 -57.813043610950039 29.699252311606184 9.2237446561803136 #
point $-1 -57.813043610950039 -29.699252311606184 9.2237446561803136 #
straight-curve $-1 57.813043610950039 -29.699252311606184 0 0 0 -1 I I #
straight-curve $-1 57.813043610950039 29.699252311606184 0 0 0 -1 I I #
plane-surface $-1 57.813043610950039 0 0 -1 0 0 0 0 1 forward_v I I I I #
coedge $-1 $166 $165 $176 $234 reversed $58 $-1 #
coedge $-1 $255 $169 $166 $225 forward $163 $-1 #
edge $-1 $226 22.868062627056421 $256 29.699252311606184 $166 $257 forward 7 unknown #
vertex $-1 $225 $258 #
straight-curve $-1 -57.813043610950039 -22.868062627056421 3.8618723280901568 0 0 -1 I I #
coedge $-1 $169 $255 $171 $230 forward $163 $-1 #
straight-curve $-1 0 -22.868062627056421 9.2237446561803136 -1 0 0 I I #
edge $-1 $237 -29.699252311606184 $172 -22.868062627056421 $171 $259 forward 7 unknown #
point $-1 57.813043610950039 -22.868062627056421 9.2237446561803136 #
straight-curve $-1 -57.813043610950039 -13.141828734665651 6.2237446561803136 0 -1 0 I I #
coedge $-1 $176 $175 $255 $260 reversed $100 $-1 #
edge $-1 $256 -9.2237446561803136 $177 -6.2237446561803136 $223 $261 forward 7 unknown #
point $-1 -57.813043610950039 -29.699252311606184 6.2237446561803136 #
point $-1 -57.813043610950039 -22.868062627056421 6.2237446561803136 #
vertex $-1 $230 $262 #
straight-curve $-1 57.813043610950039 -29.699252311606184 0 0 0 -1 I I #
coedge $-1 $195 $194 $187 $240 forward $184 $-1 #
edge $-1 $241 37.694148182398671 $244 46.625576086179876 $239 $263 forward 7 unknown #
vertex $-1 $199 $264 #
straight-curve $-1 -62.888176664270219 19.816773349966983 9.2237446561803154 -1 0 0 I I #
edge $-1 $244 -13.148740770276673 $196 -0.18732438910394755 $195 $265 forward 7 unknown #
vertex $-1 $243 $266 #
straight-curve $-1 -57.813043610950047 19.816773349966983 0.2923167523991026 0.80901698891910034 0 0.5877852598018023 I I #
point $-1 -45.519987960147297 19.816773349966983 9.2237446561803136 #
point $-1 -57.813043610950039 6.8553569687942577 0.29231675239910776 #
straight-curve $-1 -57.813043610950039 0 9.2237446561803136 0 -1 0 I I #
vertex $-1 $202 $267 #
point $-1 -45.349751518640225 13.33606515938062 -0.53364606891625965 #
straight-curve $-1 -57.813043610950039 29.699252311606184 0 0 0 -1 I I #
point $-1 -57.813043610950039 -29.699252311606184 -9.2237446561803136 #
straight-curve $-1 -57.813043610950039 0 -9.2237446561803136 0 1 0 I I #
point $-1 -57.813043610950039 29.699252311606184 -9.2237446561803136 #
coedge $-1 $228 $224 $233 $260 forward $163 $-1 #
vertex $-1 $225 $268 #
straight-curve $-1 -57.813043610950039 0 9.2237446561803136 0 -1 0 I I #
point $-1 -57.813043610950039 -22.868062627056421 9.2237446561803136 #
straight-curve $-1 57.813043610950039 0 9.2237446561803136 0 1 0 I I #
edge $-1 $256 -57.813043610950039 $237 57.813043610950039 $233 $269 forward 7 unknown #
straight-curve $-1 -57.813043610950039 -29.699252311606184 0 0 0 -1 I I #
point $-1 57.813043610950039 -29.699252311606184 9.2237446561803136 #
straight-curve $-1 -57.813043610950039 19.816773349966983 46.917892838578986 0 0 -1 I I #
point $-1 -57.813043610950039 19.816773349966983 9.2237446561803136 #
straight-curve $-1 -57.813043610950039 6.6680325796903102 0.29231675239910782 0 -1 0 I I #
point $-1 -57.813043610950039 19.816773349966983 0.29231675239910776 #
point $-1 -45.792214976874817 13.33606515938062 -3.3272505663580647 #
point $-1 -57.813043610950039 -29.699252311606184 9.2237446561803136 #
straight-curve $-1 0 -29.699252311606184 9.2237446561803136 1 0 0 I I #
End-of-ACIS-data 