500 0 5 0           
7 Unknown 11 ACIS 5.0 NT 24 Thu Mar 25 19:24:50 1999 
-1 9.9999999999999995e-007 1e-010 
body $-1 $5 $-1 $6 #
body $-1 $7 $-1 $8 #
body $-1 $9 $-1 $10 #
body $-1 $11 $-1 $12 #
body $-1 $13 $-1 $14 #
lump $-1 $-1 $15 $0 #
transform $-1 1 0 0 0 1 0 0 0 1 40.039063692129275 24.244608005867956 6.0966306523621387 1 rotate no_reflect no_shear #
lump $-1 $-1 $16 $1 #
transform $-1 1 0 0 0 1 0 0 0 1 40.039063692129275 24.244608005867956 6.0966306523621387 1 rotate no_reflect no_shear #
lump $-1 $-1 $17 $2 #
transform $-1 1 0 0 0 1 0 0 0 1 40.039063692129275 24.244608005867956 6.0966306523621387 1 rotate no_reflect no_shear #
lump $-1 $-1 $18 $3 #
transform $-1 1 0 0 0 1 0 0 0 1 40.039063692129275 24.244608005867956 6.0966306523621387 1 rotate no_reflect no_shear #
lump $-1 $-1 $19 $4 #
transform $-1 1 0 0 0 1 0 0 0 1 40.039063692129275 24.244608005867956 6.0966306523621387 1 rotate no_reflect no_shear #
shell $-1 $-1 $-1 $20 $-1 $5 #
shell $-1 $-1 $-1 $21 $-1 $7 #
shell $-1 $-1 $-1 $22 $-1 $9 #
shell $-1 $-1 $-1 $23 $-1 $11 #
shell $-1 $-1 $-1 $24 $-1 $13 #
face $-1 $25 $26 $15 $-1 $27 forward single #
face $-1 $28 $29 $16 $-1 $30 forward single #
face $-1 $31 $32 $17 $-1 $33 forward single #
face $-1 $34 $35 $18 $-1 $36 reversed single #
face $-1 $37 $38 $19 $-1 $39 forward single #
face $-1 $40 $41 $15 $-1 $42 reversed single #
loop $-1 $-1 $43 $20 #
plane-surface $-1 0 0 6.0966306523621387 0 0 1 1 0 0 forward_v I I I I #
face $-1 $44 $45 $16 $-1 $46 reversed single #
loop $-1 $-1 $47 $21 #
plane-surface $-1 0 -24.244608005867956 0 0 1 0 0 0 1 forward_v I I I I #
face $-1 $48 $49 $17 $-1 $50 reversed single #
loop $-1 $-1 $51 $22 #
plane-surface $-1 0 24.244608005867956 0 0 -1 0 0 0 -1 forward_v I I I I #
face $-1 $52 $53 $18 $-1 $54 reversed single #
loop $-1 $-1 $55 $23 #
plane-surface $-1 67.436133088559089 -12.98190793024424 109.9894815470015 0 -1 0 -0.85716730853699208 0 -0.51503806187062418 forward_v I I I I #
face $-1 $56 $57 $19 $-1 $58 forward single #
loop $-1 $59 $60 $24 #
cone-surface $-1 37.508675095881891 -16.460764250066852 2.6622640835563391 -0.85716730853699208 0 -0.51503806187062418 0.77255709280593621 0 -1.2857509628054882 1 I I 0 1 1.5 forward I I I I #
face $-1 $61 $62 $15 $-1 $63 reversed single #
loop $-1 $-1 $64 $25 #
plane-surface $-1 0 0 -6.0966306523621387 0 0 1 1 0 0 forward_v I I I I #
coedge $-1 $65 $66 $67 $68 forward $26 $-1 #
face $-1 $69 $70 $16 $-1 $71 forward single #
loop $-1 $-1 $72 $28 #
plane-surface $-1 -40.039063692129275 0 0 1 0 0 0 0 -1 forward_v I I I I #
coedge $-1 $73 $74 $75 $76 forward $29 $-1 #
face $-1 $77 $78 $17 $-1 $79 forward single #
loop $-1 $-1 $80 $31 #
plane-surface $-1 40.039063692129275 0 0 -1 0 0 0 0 1 forward_v I I I I #
coedge $-1 $81 $82 $83 $84 forward $32 $-1 #
face $-1 $85 $86 $18 $-1 $87 reversed single #
loop $-1 $-1 $88 $34 #
plane-surface $-1 -1.2042198340882209 -16.460764250066852 68.746198020784021 0.85716730853699208 0 0.51503806187062418 0.51503806187062418 0 -0.85716730853699208 forward_v I I I I #
coedge $-1 $89 $90 $91 $92 reversed $35 $-1 #
face $-1 $-1 $93 $19 $-1 $94 forward single #
loop $-1 $95 $96 $37 #
cone-surface $-1 36.135224514500692 -16.460764250066852 1.8370117454602859 -0.85716730853699208 0 -0.51503806187062418 0.3862785464029681 0 -0.64287548140274409 1 I I -0.70710678118654757 0.70710678118654757 0.75 forward I I I I #
loop $-1 $-1 $97 $24 #
coedge $-1 $60 $60 $98 $99 reversed $38 $-1 #
face $-1 $100 $101 $15 $-1 $102 reversed single #
loop $-1 $-1 $103 $40 #
plane-surface $-1 0 -24.244608005867956 0 0 1 0 0 0 1 forward_v I I I I #
coedge $-1 $104 $105 $106 $107 forward $41 $-1 #
coedge $-1 $108 $43 $109 $110 forward $26 $-1 #
coedge $-1 $43 $108 $111 $112 forward $26 $-1 #
coedge $-1 $113 $114 $43 $68 reversed $115 $-1 #
edge $-1 $116 -24.244608005867956 $117 24.244608005867956 $67 $118 forward 7 unknown #
face $-1 $119 $120 $16 $-1 $121 reversed single #
loop $-1 $-1 $122 $44 #
plane-surface $-1 0 -26.397101723857205 0.98782926383940595 0 0 1 1 0 0 forward_v I I I I #
coedge $-1 $123 $124 $74 $125 forward $45 $-1 #
coedge $-1 $126 $47 $127 $128 reversed $29 $-1 #
coedge $-1 $47 $126 $72 $125 reversed $29 $-1 #
coedge $-1 $129 $122 $47 $76 reversed $70 $-1 #
edge $-1 $130 -40.039063692129275 $131 40.039063692129275 $75 $132 forward 7 unknown #
face $-1 $133 $134 $17 $-1 $135 reversed single #
loop $-1 $-1 $136 $48 #
plane-surface $-1 0 26.397101723857208 0.98782926383940595 0 0 1 1 0 0 forward_v I I I I #
coedge $-1 $137 $138 $82 $139 forward $49 $-1 #
coedge $-1 $140 $51 $141 $142 reversed $32 $-1 #
coedge $-1 $51 $140 $80 $139 reversed $32 $-1 #
coedge $-1 $136 $143 $51 $84 reversed $78 $-1 #
edge $-1 $144 -40.039063692129275 $145 40.039063692129275 $83 $146 forward 7 unknown #
face $-1 $147 $148 $18 $-1 $149 forward single #
loop $-1 $-1 $150 $52 #
plane-surface $-1 67.436133088559089 -19.939620569889463 109.9894815470015 0 1 0 0.85716730853699208 0 0.51503806187062418 forward_v I I I I #
coedge $-1 $151 $152 $153 $154 reversed $53 $-1 #
coedge $-1 $90 $55 $155 $156 reversed $35 $-1 #
coedge $-1 $55 $89 $151 $157 reversed $35 $-1 #
coedge $-1 $153 $158 $55 $92 forward $148 $-1 #
edge $-1 $159 -6.3209971478497309 $160 -2.7213701553118526 $91 $161 forward 7 unknown #
loop $-1 $-1 $98 $56 #
plane-surface $-1 -1.2042198340882209 -16.460764250066852 68.746198020784021 0.85716730853699208 0 0.51503806187062418 0.51503806187062418 0 -0.85716730853699208 forward_v I I I I #
loop $-1 $-1 $162 $37 #
coedge $-1 $96 $96 $97 $163 reversed $57 $-1 #
coedge $-1 $97 $97 $96 $163 forward $59 $-1 #
coedge $-1 $98 $98 $60 $99 forward $93 $-1 #
edge $-1 $164 0 $164 6.2831853071796004 $98 $165 forward 7 unknown #
face $-1 $166 $167 $15 $-1 $168 reversed single #
loop $-1 $-1 $169 $61 #
plane-surface $-1 -40.039063692129275 0 0 1 0 0 0 0 -1 forward_v I I I I #
coedge $-1 $170 $111 $171 $172 forward $62 $-1 #
coedge $-1 $173 $64 $170 $174 forward $41 $-1 #
coedge $-1 $64 $173 $175 $176 forward $41 $-1 #
coedge $-1 $114 $113 $64 $107 reversed $115 $-1 #
edge $-1 $177 -24.244608005867956 $178 24.244608005867956 $106 $179 forward 7 unknown #
coedge $-1 $66 $65 $180 $181 forward $26 $-1 #
coedge $-1 $182 $183 $65 $110 reversed $167 $-1 #
edge $-1 $117 -40.039063692129275 $184 40.039063692129275 $109 $185 forward 7 unknown #
coedge $-1 $103 $186 $66 $112 reversed $62 $-1 #
edge $-1 $187 -40.039063692129275 $116 40.039063692129275 $111 $188 forward 7 unknown #
coedge $-1 $106 $67 $186 $189 forward $115 $-1 #
coedge $-1 $67 $106 $182 $190 reversed $115 $-1 #
loop $-1 $-1 $113 $166 #
vertex $-1 $68 $191 #
vertex $-1 $68 $192 #
straight-curve $-1 40.039063692129275 0 6.0966306523621387 0 1 0 I I #
face $-1 $193 $194 $16 $-1 $195 reversed single #
loop $-1 $-1 $196 $69 #
plane-surface $-1 0 -26.397101723857205 -2.0121707361605941 0 0 1 1 0 0 forward_v I I I I #
coedge $-1 $75 $197 $198 $199 forward $70 $-1 #
coedge $-1 $200 $72 $201 $202 reversed $45 $-1 #
coedge $-1 $72 $200 $129 $203 reversed $45 $-1 #
edge $-1 $130 -0.98782926383940595 $204 2.0121707361605941 $72 $205 forward 7 unknown #
coedge $-1 $74 $73 $206 $207 forward $29 $-1 #
coedge $-1 $198 $208 $73 $128 forward $209 $-1 #
edge $-1 $210 -2.0121707361605941 $131 0.98782926383940595 $127 $211 forward 7 unknown #
coedge $-1 $197 $75 $124 $203 forward $70 $-1 #
vertex $-1 $125 $212 #
vertex $-1 $199 $213 #
straight-curve $-1 0 -24.244608005867956 0.98782926383940595 1 0 0 I I #
face $-1 $214 $215 $17 $-1 $216 reversed single #
loop $-1 $-1 $217 $77 #
plane-surface $-1 0 26.397101723857208 -2.0121707361605941 0 0 1 1 0 0 forward_v I I I I #
coedge $-1 $218 $83 $138 $219 forward $78 $-1 #
coedge $-1 $220 $80 $217 $221 reversed $49 $-1 #
coedge $-1 $80 $220 $136 $219 reversed $49 $-1 #
edge $-1 $144 -0.98782926383940595 $222 2.0121707361605941 $80 $223 forward 7 unknown #
coedge $-1 $82 $81 $224 $225 forward $32 $-1 #
coedge $-1 $226 $227 $81 $142 forward $228 $-1 #
edge $-1 $229 -2.0121707361605941 $145 0.98782926383940595 $141 $230 forward 7 unknown #
coedge $-1 $83 $218 $226 $231 forward $78 $-1 #
vertex $-1 $139 $232 #
vertex $-1 $231 $233 #
straight-curve $-1 0 24.244608005867956 0.98782926383940595 -1 0 0 I I #
face $-1 $-1 $234 $18 $-1 $235 reversed single #
loop $-1 $-1 $91 $85 #
plane-surface $-1 0 0 6.0966306523621387 0 0 1 1 0 0 forward_v I I I I #
coedge $-1 $236 $237 $238 $239 reversed $86 $-1 #
coedge $-1 $240 $88 $90 $157 forward $53 $-1 #
coedge $-1 $88 $240 $236 $241 forward $53 $-1 #
coedge $-1 $238 $91 $88 $154 forward $148 $-1 #
edge $-1 $160 4.7515258052108145 $242 11.709238444856037 $153 $243 forward 7 unknown #
coedge $-1 $244 $245 $89 $156 forward $234 $-1 #
edge $-1 $246 -54.888895675364054 $159 -48.898110121138615 $155 $247 forward 7 unknown #
edge $-1 $160 73.089076945026989 $246 80.078127384258593 $90 $248 forward 7 unknown #
coedge $-1 $91 $238 $244 $249 forward $148 $-1 #
vertex $-1 $156 $250 #
vertex $-1 $92 $251 #
straight-curve $-1 33.718066544279544 -12.98190793024424 6.096630652362137 -1 0 0 I I #
coedge $-1 $162 $162 $-1 $252 reversed $95 $-1 #
edge $-1 $253 0 $253 6.2831853071796004 $96 $254 forward 7 unknown #
vertex $-1 $99 $255 #
ellipse-curve $-1 38.239250195860329 -16.460764250066852 3.1012378752494154 0.85716730853699208 0 0.51503806187062418 0.77255709280593621 0 -1.2857509628054882 1 I I #
face $-1 $-1 $115 $15 $-1 $256 reversed single #
loop $-1 $-1 $183 $100 #
plane-surface $-1 0 24.244608005867956 0 0 -1 0 0 0 -1 forward_v I I I I #
coedge $-1 $257 $180 $183 $258 forward $101 $-1 #
coedge $-1 $186 $103 $104 $174 reversed $62 $-1 #
coedge $-1 $180 $257 $103 $172 reversed $101 $-1 #
edge $-1 $187 -6.0966306523621387 $259 6.0966306523621387 $171 $260 forward 7 unknown #
coedge $-1 $105 $104 $257 $261 forward $41 $-1 #
edge $-1 $178 -40.039063692129275 $259 40.039063692129275 $170 $262 forward 7 unknown #
coedge $-1 $183 $182 $105 $176 reversed $167 $-1 #
edge $-1 $263 -40.039063692129275 $177 40.039063692129275 $175 $264 forward 7 unknown #
vertex $-1 $107 $265 #
vertex $-1 $189 $266 #
straight-curve $-1 40.039063692129275 0 -6.0966306523621387 0 -1 0 I I #
coedge $-1 $169 $171 $108 $181 reversed $101 $-1 #
edge $-1 $184 -24.244608005867956 $187 24.244608005867956 $180 $267 forward 7 unknown #
coedge $-1 $175 $109 $114 $190 forward $167 $-1 #
coedge $-1 $109 $175 $169 $258 reversed $167 $-1 #
vertex $-1 $110 $268 #
straight-curve $-1 0 24.244608005867956 6.0966306523621387 -1 0 0 I I #
coedge $-1 $111 $170 $113 $189 reversed $62 $-1 #
vertex $-1 $181 $269 #
straight-curve $-1 0 -24.244608005867956 6.0966306523621387 1 0 0 I I #
edge $-1 $116 -6.0966306523621387 $178 6.0966306523621387 $113 $270 forward 7 unknown #
edge $-1 $117 -6.0966306523621387 $177 6.0966306523621387 $114 $271 forward 7 unknown #
point $-1 40.039063692129275 -24.244608005867956 6.0966306523621387 #
point $-1 40.039063692129275 24.244608005867956 6.0966306523621387 #
face $-1 $-1 $209 $16 $-1 $272 reversed single #
loop $-1 $-1 $273 $119 #
plane-surface $-1 0 -28.549595441846449 -0.51217073616059405 0 1 0 0 0 1 forward_v I I I I #
coedge $-1 $274 $206 $208 $275 forward $120 $-1 #
coedge $-1 $122 $129 $276 $277 forward $70 $-1 #
coedge $-1 $278 $127 $122 $199 reversed $209 $-1 #
edge $-1 $279 -2.1524937179892447 $131 2.1524937179892447 $198 $280 forward 7 unknown #
coedge $-1 $124 $123 $273 $281 reversed $45 $-1 #
coedge $-1 $206 $274 $123 $202 forward $120 $-1 #
edge $-1 $282 -2.1524937179892447 $204 2.1524937179892447 $123 $283 forward 7 unknown #
edge $-1 $130 -2.1524937179892447 $284 2.1524937179892447 $124 $285 forward 7 unknown #
vertex $-1 $125 $286 #
straight-curve $-1 -40.039063692129275 -24.244608005867956 0 0 0 -1 I I #
coedge $-1 $196 $201 $126 $207 reversed $120 $-1 #
edge $-1 $210 -40.039063692129275 $204 40.039063692129275 $206 $287 forward 7 unknown #
coedge $-1 $127 $278 $196 $275 reversed $209 $-1 #
loop $-1 $-1 $127 $193 #
vertex $-1 $128 $288 #
straight-curve $-1 40.039063692129275 -24.244608005867956 0 0 0 1 I I #
point $-1 -40.039063692129275 -24.24460800586796 0.98782926383940595 #
point $-1 40.039063692129275 -24.24460800586796 0.98782926383940595 #
face $-1 $-1 $228 $17 $-1 $289 reversed single #
loop $-1 $-1 $290 $133 #
plane-surface $-1 0 28.549595441846456 -0.51217073616059405 0 -1 0 0 0 -1 forward_v I I I I #
coedge $-1 $224 $291 $137 $221 forward $134 $-1 #
coedge $-1 $143 $136 $292 $293 forward $78 $-1 #
edge $-1 $144 -2.1524937179892483 $294 2.1524937179892483 $138 $295 forward 7 unknown #
coedge $-1 $138 $137 $290 $296 reversed $49 $-1 #
edge $-1 $297 -2.1524937179892483 $222 2.1524937179892483 $137 $298 forward 7 unknown #
vertex $-1 $139 $299 #
straight-curve $-1 40.039063692129275 24.244608005867956 0 0 0 -1 I I #
coedge $-1 $300 $217 $140 $225 reversed $134 $-1 #
edge $-1 $229 -40.039063692129275 $222 40.039063692129275 $224 $301 forward 7 unknown #
coedge $-1 $302 $141 $143 $231 reversed $228 $-1 #
coedge $-1 $141 $302 $300 $303 reversed $228 $-1 #
loop $-1 $-1 $141 $214 #
vertex $-1 $142 $304 #
straight-curve $-1 -40.039063692129275 24.244608005867956 0 0 0 1 I I #
edge $-1 $305 -2.1524937179892483 $145 2.1524937179892483 $226 $306 forward 7 unknown #
point $-1 40.039063692129275 24.24460800586796 0.98782926383940595 #
point $-1 -40.039063692129275 24.24460800586796 0.98782926383940595 #
loop $-1 $-1 $155 $147 #
plane-surface $-1 40.039063692129275 0 0 -1 0 0 0 0 1 forward_v I I I I #
coedge $-1 $237 $150 $152 $241 reversed $86 $-1 #
coedge $-1 $150 $236 $307 $308 reversed $86 $-1 #
coedge $-1 $158 $153 $150 $239 forward $148 $-1 #
edge $-1 $242 2.7213701553118526 $309 6.3209971478497309 $238 $310 forward 7 unknown #
coedge $-1 $152 $151 $245 $311 reversed $53 $-1 #
edge $-1 $312 -80.078127384258593 $242 -73.089076945026989 $236 $313 forward 7 unknown #
vertex $-1 $154 $314 #
straight-curve $-1 36.439436699591383 -8.2303821250334259 6.0966306523621299 0 -1 0 I I #
coedge $-1 $307 $155 $158 $249 reversed $234 $-1 #
coedge $-1 $155 $307 $240 $311 forward $234 $-1 #
vertex $-1 $156 $315 #
straight-curve $-1 40.039063692129275 -12.98190793024424 54.994740773500752 0 0 1 I I #
straight-curve $-1 -1.2042198340882209 -12.98190793024424 68.746198020784021 0.51503806187062418 0 -0.85716730853699208 I I #
edge $-1 $309 -19.939620569889463 $159 -12.98190793024424 $244 $316 forward 7 unknown #
point $-1 40.039063692129275 -12.98190793024424 6.0966306523621387 #
point $-1 36.439436699591397 -12.98190793024424 6.096630652362137 #
edge $-1 $317 1 $317 0 $162 $-1 forward 7 unknown #
vertex $-1 $163 $318 #
ellipse-curve $-1 36.778099995903439 -16.460764250066852 2.223290291863254 0.85716730853699208 0 0.51503806187062418 0.77255709280593621 0 -1.2857509628054882 1 I I #
point $-1 39.011807288666276 -16.460764250066852 1.8154869124439363 #
plane-surface $-1 40.039063692129275 0 0 -1 0 0 0 0 1 forward_v I I I I #
coedge $-1 $171 $169 $173 $261 reversed $101 $-1 #
edge $-1 $184 -6.0966306523621387 $263 6.0966306523621387 $183 $319 forward 7 unknown #
vertex $-1 $261 $320 #
straight-curve $-1 -40.039063692129275 -24.244608005867956 0 0 0 -1 I I #
edge $-1 $259 -24.244608005867956 $263 24.244608005867956 $257 $321 forward 7 unknown #
straight-curve $-1 0 -24.244608005867956 -6.0966306523621387 -1 0 0 I I #
vertex $-1 $176 $322 #
straight-curve $-1 0 24.244608005867956 -6.0966306523621387 1 0 0 I I #
point $-1 40.039063692129275 24.244608005867956 -6.0966306523621387 #
point $-1 40.039063692129275 -24.244608005867956 -6.0966306523621387 #
straight-curve $-1 -40.039063692129275 0 6.0966306523621387 0 -1 0 I I #
point $-1 -40.039063692129275 24.244608005867956 6.0966306523621387 #
point $-1 -40.039063692129275 -24.244608005867956 6.0966306523621387 #
straight-curve $-1 40.039063692129275 -24.244608005867956 0 0 0 -1 I I #
straight-curve $-1 40.039063692129275 24.244608005867956 0 0 0 -1 I I #
plane-surface $-1 40.039063692129275 0 0 -1 0 0 0 0 1 forward_v I I I I #
coedge $-1 $323 $276 $200 $281 forward $194 $-1 #
coedge $-1 $201 $196 $323 $324 forward $120 $-1 #
edge $-1 $210 -2.1524937179892447 $325 2.1524937179892447 $208 $326 forward 7 unknown #
coedge $-1 $273 $327 $197 $277 reversed $194 $-1 #
edge $-1 $284 -40.039063692129275 $279 40.039063692129275 $276 $328 forward 7 unknown #
coedge $-1 $208 $198 $327 $329 forward $209 $-1 #
vertex $-1 $199 $330 #
straight-curve $-1 40.039063692129275 -26.397101723857205 0.98782926383940595 0 1 0 I I #
edge $-1 $284 -1.5 $282 1.5 $200 $331 forward 7 unknown #
vertex $-1 $202 $332 #
straight-curve $-1 -40.039063692129275 -26.397101723857205 -2.0121707361605941 0 1 0 I I #
vertex $-1 $203 $333 #
straight-curve $-1 -40.039063692129275 -26.397101723857205 0.98782926383940595 0 -1 0 I I #
point $-1 -40.039063692129275 -24.24460800586796 -2.0121707361605941 #
straight-curve $-1 0 -24.244608005867956 -2.0121707361605941 -1 0 0 I I #
point $-1 40.039063692129275 -24.24460800586796 -2.0121707361605941 #
plane-surface $-1 -40.039063692129275 0 0 1 0 0 0 0 -1 forward_v I I I I #
coedge $-1 $334 $292 $220 $296 forward $215 $-1 #
coedge $-1 $217 $300 $334 $335 forward $134 $-1 #
coedge $-1 $290 $336 $218 $293 reversed $215 $-1 #
edge $-1 $294 -40.039063692129275 $305 40.039063692129275 $292 $337 forward 7 unknown #
vertex $-1 $219 $338 #
straight-curve $-1 40.039063692129275 26.397101723857208 0.98782926383940595 0 1 0 I I #
edge $-1 $294 -1.5 $297 1.5 $220 $339 forward 7 unknown #
vertex $-1 $221 $340 #
straight-curve $-1 40.039063692129275 26.397101723857208 -2.0121707361605941 0 -1 0 I I #
point $-1 40.039063692129275 24.24460800586796 -2.0121707361605941 #
coedge $-1 $291 $224 $227 $303 forward $134 $-1 #
straight-curve $-1 0 24.244608005867956 -2.0121707361605941 1 0 0 I I #
coedge $-1 $227 $226 $336 $341 forward $228 $-1 #
edge $-1 $229 -2.1524937179892483 $342 2.1524937179892483 $227 $343 forward 7 unknown #
point $-1 -40.039063692129275 24.24460800586796 -2.0121707361605941 #
vertex $-1 $293 $344 #
straight-curve $-1 -40.039063692129275 26.397101723857208 0.98782926383940595 0 -1 0 I I #
coedge $-1 $245 $244 $237 $308 forward $234 $-1 #
edge $-1 $309 48.898110121138615 $312 54.888895675364054 $307 $345 forward 7 unknown #
vertex $-1 $249 $346 #
straight-curve $-1 33.718066544279544 -19.939620569889463 6.096630652362137 1 0 0 I I #
edge $-1 $312 -11.709238444856037 $246 -4.7515258052108145 $245 $347 forward 7 unknown #
vertex $-1 $311 $348 #
straight-curve $-1 -1.2042198340882209 -19.939620569889463 68.746198020784021 -0.51503806187062418 0 0.85716730853699208 I I #
point $-1 36.439436699591397 -19.939620569889463 6.096630652362137 #
point $-1 40.039063692129275 -12.98190793024424 0.1058450981366974 #
straight-curve $-1 40.039063692129275 0 6.0966306523621387 0 1 0 I I #
vertex $-1 $252 $349 #
point $-1 37.550657088709372 -16.460764250066852 0.93753932905776582 #
straight-curve $-1 -40.039063692129275 24.244608005867956 0 0 0 -1 I I #
point $-1 -40.039063692129275 -24.244608005867956 -6.0966306523621387 #
straight-curve $-1 -40.039063692129275 0 -6.0966306523621387 0 1 0 I I #
point $-1 -40.039063692129275 24.244608005867956 -6.0966306523621387 #
coedge $-1 $327 $273 $274 $324 reversed $194 $-1 #
edge $-1 $325 -40.039063692129275 $282 40.039063692129275 $323 $350 forward 7 unknown #
vertex $-1 $329 $351 #
straight-curve $-1 40.039063692129275 -26.397101723857205 -2.0121707361605941 0 -1 0 I I #
coedge $-1 $276 $323 $278 $329 reversed $194 $-1 #
straight-curve $-1 0 -28.549595441846449 0.98782926383940595 1 0 0 I I #
edge $-1 $279 -1.5 $325 1.5 $278 $352 forward 7 unknown #
point $-1 40.039063692129275 -28.549595441846449 0.98782926383940595 #
straight-curve $-1 -40.039063692129275 -28.549595441846449 -0.51217073616059405 0 0 -1 I I #
point $-1 -40.039063692129275 -28.549595441846449 -2.0121707361605941 #
point $-1 -40.039063692129275 -28.549595441846449 0.98782926383940595 #
coedge $-1 $336 $290 $291 $335 reversed $215 $-1 #
edge $-1 $342 -40.039063692129275 $297 40.039063692129275 $334 $353 forward 7 unknown #
coedge $-1 $292 $334 $302 $341 reversed $215 $-1 #
straight-curve $-1 0 28.549595441846456 0.98782926383940595 -1 0 0 I I #
point $-1 40.039063692129275 28.549595441846456 0.98782926383940595 #
straight-curve $-1 40.039063692129275 28.549595441846456 -0.51217073616059405 0 0 -1 I I #
point $-1 40.039063692129275 28.549595441846456 -2.0121707361605941 #
edge $-1 $305 -1.5 $342 1.5 $336 $354 forward 7 unknown #
vertex $-1 $335 $355 #
straight-curve $-1 -40.039063692129275 26.397101723857208 -2.0121707361605941 0 1 0 I I #
point $-1 -40.039063692129275 28.549595441846456 0.98782926383940595 #
straight-curve $-1 40.039063692129275 -19.939620569889463 54.994740773500752 0 0 -1 I I #
point $-1 40.039063692129275 -19.939620569889463 6.0966306523621387 #
straight-curve $-1 40.039063692129275 -8.2303821250334259 0.1058450981366903 0 1 0 I I #
point $-1 40.039063692129275 -19.939620569889463 0.1058450981366974 #
point $-1 35.492349033097945 -16.460764250066852 1.4507331990573178 #
straight-curve $-1 0 -28.549595441846449 -2.0121707361605941 -1 0 0 I I #
point $-1 40.039063692129275 -28.549595441846449 -2.0121707361605941 #
straight-curve $-1 40.039063692129275 -28.549595441846449 -0.51217073616059405 0 0 -1 I I #
straight-curve $-1 0 28.549595441846456 -2.0121707361605941 1 0 0 I I #
straight-curve $-1 -40.039063692129275 28.549595441846456 -0.51217073616059405 0 0 -1 I I #
point $-1 -40.039063692129275 28.549595441846456 -2.0121707361605941 #
End-of-ACIS-data 