500 0 9 0           
7 Unknown 11 ACIS 5.0 NT 24 Fri Mar 26 16:51:31 1999 
-1 9.9999999999999995e-007 1e-010 
body $-1 $9 $-1 $10 #
body $-1 $11 $-1 $12 #
body $-1 $13 $-1 $14 #
body $-1 $15 $-1 $16 #
body $-1 $17 $-1 $18 #
body $-1 $19 $-1 $20 #
body $-1 $21 $-1 $22 #
body $-1 $23 $-1 $24 #
body $-1 $25 $-1 $26 #
lump $-1 $-1 $27 $0 #
transform $-1 1 0 0 0 1 0 0 0 1 72.099368266853844 47.244262397974957 23.374281572649643 1 rotate no_reflect no_shear #
lump $-1 $-1 $28 $1 #
transform $-1 1 0 0 0 1 0 0 0 1 72.099368266853844 47.244262397974957 23.374281572649643 1 rotate no_reflect no_shear #
lump $-1 $-1 $29 $2 #
transform $-1 1 0 0 0 1 0 0 0 1 72.099368266853844 47.244262397974957 23.374281572649643 1 rotate no_reflect no_shear #
lump $-1 $-1 $30 $3 #
transform $-1 1 0 0 0 1 0 0 0 1 72.099368266853844 47.244262397974957 23.374281572649643 1 rotate no_reflect no_shear #
lump $-1 $-1 $31 $4 #
transform $-1 1 0 0 0 1 0 0 0 1 72.099368266853844 47.244262397974957 23.374281572649643 1 rotate no_reflect no_shear #
lump $-1 $-1 $32 $5 #
transform $-1 1 0 0 0 1 0 0 0 1 72.099368266853844 47.244262397974957 23.374281572649643 1 rotate no_reflect no_shear #
lump $-1 $-1 $33 $6 #
transform $-1 1 0 0 0 1 0 0 0 1 72.099368266853844 47.244262397974957 23.374281572649643 1 rotate no_reflect no_shear #
lump $-1 $-1 $34 $7 #
transform $-1 1 0 0 0 1 0 0 0 1 72.099368266853844 47.244262397974957 23.374281572649643 1 rotate no_reflect no_shear #
lump $-1 $-1 $35 $8 #
transform $-1 1 0 0 0 1 0 0 0 1 72.099368266853844 47.244262397974957 23.374281572649643 1 rotate no_reflect no_shear #
shell $-1 $-1 $-1 $36 $-1 $9 #
shell $-1 $-1 $-1 $37 $-1 $11 #
shell $-1 $-1 $-1 $38 $-1 $13 #
shell $-1 $-1 $-1 $39 $-1 $15 #
shell $-1 $-1 $-1 $40 $-1 $17 #
shell $-1 $-1 $-1 $41 $-1 $19 #
shell $-1 $-1 $-1 $42 $-1 $21 #
shell $-1 $-1 $-1 $43 $-1 $23 #
shell $-1 $-1 $-1 $44 $-1 $25 #
face $-1 $45 $46 $27 $-1 $47 forward single #
face $-1 $48 $49 $28 $-1 $50 forward single #
face $-1 $51 $52 $29 $-1 $53 reversed single #
face $-1 $54 $55 $30 $-1 $56 forward single #
face $-1 $57 $58 $31 $-1 $59 forward single #
face $-1 $60 $61 $32 $-1 $62 reversed single #
face $-1 $63 $64 $33 $-1 $65 forward single #
face $-1 $66 $67 $34 $-1 $68 forward single #
face $-1 $69 $70 $35 $-1 $71 forward single #
face $-1 $72 $73 $27 $-1 $74 reversed single #
loop $-1 $-1 $75 $36 #
plane-surface $-1 0 0 23.374281572649643 0 0 1 1 0 0 forward_v I I I I #
face $-1 $76 $77 $28 $-1 $78 reversed single #
loop $-1 $-1 $79 $37 #
plane-surface $-1 -72.099368266853844 0 0 1 0 0 0 0 -1 forward_v I I I I #
face $-1 $80 $81 $29 $-1 $82 reversed single #
loop $-1 $-1 $83 $38 #
plane-surface $-1 -27.208026396153407 -123.65795177423271 132.30951817818936 -1 0 0 0 -0.52991927123019833 0.84804809178421925 forward_v I I I I #
face $-1 $84 $85 $30 $-1 $86 forward single #
loop $-1 $87 $88 $39 #
cone-surface $-1 -42.549096399733031 -35.240596511804384 14.586284648761421 0 0.52991927123019833 -0.84804809178421925 1.5 0 0 1 I I 0 1 1.5 forward I I I I #
face $-1 $89 $90 $31 $-1 $91 forward single #
loop $-1 $92 $93 $40 #
cone-surface $-1 -33.34445439758526 -35.240596511804384 14.586284648761421 0 0.52991927123019833 -0.84804809178421925 1.5 0 0 1 I I 0 1 1.5 forward I I I I #
face $-1 $94 $95 $32 $-1 $96 reversed single #
loop $-1 $-1 $97 $41 #
plane-surface $-1 53.563437825216454 49.544636837108818 178.32719947596189 1 0 0 0 -0.55919291073839883 -0.82903756765294845 forward_v I I I I #
face $-1 $98 $99 $33 $-1 $100 forward single #
loop $-1 $101 $102 $42 #
cone-surface $-1 57.270623913543943 33.904728041726983 14.038403666609977 0 -0.55919291073839883 -0.82903756765294845 1 0 0 1 I I 0 1 1 forward I I I I #
face $-1 $103 $104 $34 $-1 $105 forward single #
loop $-1 $106 $107 $43 #
cone-surface $-1 62.831403046035149 33.904728041726983 14.038403666609977 0 -0.55919291073839883 -0.82903756765294845 1 0 0 1 I I 0 1 1 forward I I I I #
face $-1 $108 $109 $35 $-1 $110 forward single #
loop $-1 $111 $112 $44 #
cone-surface $-1 68.392182178526355 33.904728041726983 14.038403666609977 0 -0.55919291073839883 -0.82903756765294845 1 0 0 1 I I 0 1 1 forward I I I I #
face $-1 $113 $114 $27 $-1 $115 reversed single #
loop $-1 $-1 $116 $45 #
plane-surface $-1 0 0 -23.374281572649643 0 0 1 1 0 0 forward_v I I I I #
coedge $-1 $117 $118 $119 $120 forward $46 $-1 #
face $-1 $121 $122 $28 $-1 $123 forward single #
loop $-1 $-1 $124 $48 #
plane-surface $-1 0 47.244262397974957 0 0 -1 0 0 0 -1 forward_v I I I I #
coedge $-1 $125 $126 $127 $128 forward $49 $-1 #
face $-1 $129 $130 $29 $-1 $131 reversed single #
loop $-1 $-1 $132 $51 #
plane-surface $-1 -37.946775398659149 -47.244262397974964 10.022054823083181 0 -0.52991927123019833 0.84804809178421925 1 0 0 forward_v I I I I #
coedge $-1 $133 $134 $135 $136 reversed $52 $-1 #
face $-1 $-1 $137 $30 $-1 $138 forward single #
loop $-1 $139 $140 $54 #
cone-surface $-1 -42.549096399733031 -33.523505729516387 11.83836503081826 0 0.52991927123019833 -0.84804809178421925 0.75 0 0 1 I I -0.70710678118654757 0.70710678118654757 0.75 forward I I I I #
loop $-1 $-1 $141 $39 #
coedge $-1 $88 $88 $142 $143 reversed $55 $-1 #
face $-1 $-1 $144 $31 $-1 $145 forward single #
loop $-1 $146 $147 $57 #
cone-surface $-1 -33.34445439758526 -33.523505729516387 11.83836503081826 0 0.52991927123019833 -0.84804809178421925 0.75 0 0 1 I I -0.70710678118654757 0.70710678118654757 0.75 forward I I I I #
loop $-1 $-1 $148 $40 #
coedge $-1 $93 $93 $149 $150 reversed $58 $-1 #
face $-1 $151 $152 $32 $-1 $153 reversed single #
loop $-1 $-1 $154 $60 #
plane-surface $-1 62.831403046035149 -31.090274369974672 58.781029681428521 0 0.55919291073839883 0.82903756765294845 1 0 0 forward_v I I I I #
coedge $-1 $155 $156 $157 $158 reversed $61 $-1 #
face $-1 $-1 $159 $33 $-1 $160 forward single #
loop $-1 $161 $162 $63 #
cone-surface $-1 57.270623913543943 33.206534726375274 13.0032895283667 0 -0.55919291073839883 -0.82903756765294845 0.5 0 0 1 I I -0.70710678118654746 0.70710678118654746 0.5 forward I I I I #
loop $-1 $-1 $163 $42 #
coedge $-1 $102 $102 $164 $165 reversed $64 $-1 #
face $-1 $-1 $166 $34 $-1 $167 forward single #
loop $-1 $168 $169 $66 #
cone-surface $-1 62.831403046035149 33.206534726375274 13.0032895283667 0 -0.55919291073839883 -0.82903756765294845 0.5 0 0 1 I I -0.70710678118654746 0.70710678118654746 0.5 forward I I I I #
loop $-1 $-1 $170 $43 #
coedge $-1 $107 $107 $171 $172 reversed $67 $-1 #
face $-1 $-1 $173 $35 $-1 $174 forward single #
loop $-1 $175 $176 $69 #
cone-surface $-1 68.392182178526355 33.206534726375274 13.0032895283667 0 -0.55919291073839883 -0.82903756765294845 0.5 0 0 1 I I -0.70710678118654746 0.70710678118654746 0.5 forward I I I I #
loop $-1 $-1 $177 $44 #
coedge $-1 $112 $112 $178 $179 reversed $70 $-1 #
face $-1 $180 $181 $27 $-1 $182 reversed single #
loop $-1 $-1 $183 $72 #
plane-surface $-1 0 -47.244262397974957 0 0 1 0 0 0 1 forward_v I I I I #
coedge $-1 $184 $185 $186 $187 forward $73 $-1 #
coedge $-1 $188 $75 $189 $190 forward $46 $-1 #
coedge $-1 $75 $188 $191 $192 forward $46 $-1 #
coedge $-1 $193 $194 $75 $120 reversed $195 $-1 #
edge $-1 $196 -47.244262397974957 $197 47.244262397974957 $119 $198 forward 7 unknown #
face $-1 $199 $200 $28 $-1 $201 reversed single #
loop $-1 $-1 $127 $76 #
plane-surface $-1 -83.806290199698324 0 -12.080980346133771 0 0 1 1 0 0 forward_v I I I I #
coedge $-1 $202 $203 $126 $204 forward $77 $-1 #
coedge $-1 $205 $79 $206 $207 reversed $49 $-1 #
coedge $-1 $79 $205 $124 $204 reversed $49 $-1 #
coedge $-1 $208 $209 $79 $128 reversed $122 $-1 #
edge $-1 $210 -47.244262397974957 $211 47.244262397974957 $127 $212 forward 7 unknown #
face $-1 $213 $214 $29 $-1 $215 reversed single #
loop $-1 $-1 $216 $80 #
plane-surface $-1 -48.685524401164891 -123.65795177423271 132.30951817818936 1 0 0 0 0.52991927123019833 -0.84804809178421925 forward_v I I I I #
coedge $-1 $217 $218 $219 $220 reversed $81 $-1 #
coedge $-1 $134 $83 $221 $222 reversed $52 $-1 #
coedge $-1 $83 $133 $217 $223 reversed $52 $-1 #
coedge $-1 $219 $224 $83 $136 forward $225 $-1 #
edge $-1 $226 14.5847134891414 $227 35.952742603751872 $135 $228 forward 7 unknown #
loop $-1 $-1 $142 $84 #
plane-surface $-1 -37.946775398659149 -47.244262397974964 10.022054823083181 0 -0.52991927123019833 0.84804809178421925 1 0 0 forward_v I I I I #
loop $-1 $-1 $229 $54 #
coedge $-1 $140 $140 $141 $230 reversed $85 $-1 #
coedge $-1 $141 $141 $140 $230 forward $87 $-1 #
coedge $-1 $142 $142 $88 $143 forward $137 $-1 #
edge $-1 $231 2.5102019247460247e-015 $231 6.2831853071796031 $142 $232 forward 7 unknown #
loop $-1 $-1 $149 $89 #
plane-surface $-1 -37.946775398659149 -47.244262397974964 10.022054823083181 0 -0.52991927123019833 0.84804809178421925 1 0 0 forward_v I I I I #
loop $-1 $-1 $233 $57 #
coedge $-1 $147 $147 $148 $234 reversed $90 $-1 #
coedge $-1 $148 $148 $147 $234 forward $92 $-1 #
coedge $-1 $149 $149 $93 $150 forward $144 $-1 #
edge $-1 $235 2.5102019247460247e-015 $235 6.2831853071796031 $149 $236 forward 7 unknown #
face $-1 $237 $238 $32 $-1 $239 reversed single #
loop $-1 $-1 $240 $94 #
plane-surface $-1 72.099368266853844 0 0 -1 0 0 0 0 1 forward_v I I I I #
coedge $-1 $241 $242 $243 $244 reversed $95 $-1 #
coedge $-1 $156 $97 $245 $246 reversed $61 $-1 #
coedge $-1 $97 $155 $241 $247 reversed $61 $-1 #
coedge $-1 $243 $248 $97 $158 forward $249 $-1 #
edge $-1 $250 -22.471943979420548 $251 3.3699310131103708 $157 $252 forward 7 unknown #
loop $-1 $-1 $164 $98 #
plane-surface $-1 62.831403046035149 -31.090274369974672 58.781029681428521 0 0.55919291073839883 0.82903756765294845 1 0 0 forward_v I I I I #
loop $-1 $-1 $253 $63 #
coedge $-1 $162 $162 $163 $254 reversed $99 $-1 #
coedge $-1 $163 $163 $162 $254 forward $101 $-1 #
coedge $-1 $164 $164 $102 $165 forward $159 $-1 #
edge $-1 $255 0 $255 6.2831853071796004 $164 $256 forward 7 unknown #
loop $-1 $-1 $171 $103 #
plane-surface $-1 62.831403046035149 -31.090274369974672 58.781029681428521 0 0.55919291073839883 0.82903756765294845 1 0 0 forward_v I I I I #
loop $-1 $-1 $257 $66 #
coedge $-1 $169 $169 $170 $258 reversed $104 $-1 #
coedge $-1 $170 $170 $169 $258 forward $106 $-1 #
coedge $-1 $171 $171 $107 $172 forward $166 $-1 #
edge $-1 $259 0 $259 6.2831853071796004 $171 $260 forward 7 unknown #
loop $-1 $-1 $178 $108 #
plane-surface $-1 62.831403046035149 -31.090274369974672 58.781029681428521 0 0.55919291073839883 0.82903756765294845 1 0 0 forward_v I I I I #
loop $-1 $-1 $261 $69 #
coedge $-1 $176 $176 $177 $262 reversed $109 $-1 #
coedge $-1 $177 $177 $176 $262 forward $111 $-1 #
coedge $-1 $178 $178 $112 $179 forward $173 $-1 #
edge $-1 $263 0 $263 6.2831853071796004 $178 $264 forward 7 unknown #
face $-1 $265 $266 $27 $-1 $267 reversed single #
loop $-1 $-1 $268 $113 #
plane-surface $-1 -72.099368266853844 0 0 1 0 0 0 0 -1 forward_v I I I I #
coedge $-1 $269 $191 $268 $270 forward $114 $-1 #
coedge $-1 $271 $116 $269 $272 forward $73 $-1 #
coedge $-1 $116 $271 $273 $274 forward $73 $-1 #
coedge $-1 $194 $193 $116 $187 reversed $195 $-1 #
edge $-1 $275 -47.244262397974957 $276 47.244262397974957 $186 $277 forward 7 unknown #
coedge $-1 $118 $117 $278 $279 forward $46 $-1 #
coedge $-1 $280 $281 $117 $190 reversed $266 $-1 #
edge $-1 $197 -72.099368266853844 $282 72.099368266853844 $189 $283 forward 7 unknown #
coedge $-1 $183 $284 $118 $192 reversed $114 $-1 #
edge $-1 $285 -72.099368266853844 $196 72.099368266853844 $191 $286 forward 7 unknown #
coedge $-1 $186 $119 $284 $287 forward $195 $-1 #
coedge $-1 $119 $186 $280 $288 reversed $195 $-1 #
loop $-1 $-1 $193 $265 #
vertex $-1 $120 $289 #
vertex $-1 $120 $290 #
straight-curve $-1 72.099368266853844 0 23.374281572649643 0 1 0 I I #
face $-1 $291 $292 $28 $-1 $293 reversed single #
loop $-1 $-1 $294 $121 #
plane-surface $-1 -95.513212132542805 0 -17.727630959391707 1 0 0 0 0 -1 forward_v I I I I #
coedge $-1 $295 $124 $296 $297 reversed $77 $-1 #
coedge $-1 $124 $295 $208 $298 reversed $77 $-1 #
edge $-1 $210 12.080980346133771 $299 23.374281572649643 $124 $300 forward 7 unknown #
coedge $-1 $126 $125 $301 $302 reversed $49 $-1 #
coedge $-1 $303 $304 $125 $207 forward $305 $-1 #
edge $-1 $306 -23.374281572649643 $211 -12.080980346133771 $206 $307 forward 7 unknown #
coedge $-1 $308 $127 $203 $298 forward $122 $-1 #
coedge $-1 $127 $308 $303 $309 forward $122 $-1 #
vertex $-1 $204 $310 #
vertex $-1 $309 $311 #
straight-curve $-1 -72.099368266853844 0 -12.080980346133771 0 -1 0 I I #
face $-1 $-1 $225 $29 $-1 $312 forward single #
loop $-1 $-1 $313 $129 #
plane-surface $-1 0 -47.244262397974957 0 0 1 0 0 0 1 forward_v I I I I #
coedge $-1 $314 $315 $316 $317 reversed $130 $-1 #
coedge $-1 $318 $132 $134 $223 forward $81 $-1 #
coedge $-1 $132 $318 $314 $319 forward $81 $-1 #
coedge $-1 $316 $135 $132 $220 forward $225 $-1 #
edge $-1 $227 8.2346386968238328 $320 29.712136701835316 $219 $321 forward 7 unknown #
coedge $-1 $322 $323 $133 $222 forward $214 $-1 #
edge $-1 $324 -56.132704266011501 $226 -42.780477516445039 $221 $325 forward 7 unknown #
edge $-1 $227 -25.196718584265682 $324 -7.9083955554844352e-015 $134 $326 forward 7 unknown #
coedge $-1 $135 $316 $322 $327 forward $225 $-1 #
loop $-1 $-1 $316 $213 #
vertex $-1 $222 $328 #
vertex $-1 $136 $329 #
straight-curve $-1 -27.208026396153407 -61.828975887116357 23.374281572649643 0 1 0 I I #
coedge $-1 $229 $229 $-1 $330 reversed $139 $-1 #
edge $-1 $331 0 $331 6.2831853071796004 $140 $332 forward 7 unknown #
vertex $-1 $143 $333 #
ellipse-curve $-1 -42.549096399733031 -36.560247840669724 16.698168197866412 0 -0.52991927123019833 0.84804809178421925 1.5 0 0 1 I I #
coedge $-1 $233 $233 $-1 $334 reversed $146 $-1 #
edge $-1 $335 0 $335 6.2831853071796004 $147 $336 forward 7 unknown #
vertex $-1 $150 $337 #
ellipse-curve $-1 -33.34445439758526 -36.560247840669724 16.698168197866412 0 -0.52991927123019833 0.84804809178421925 1.5 0 0 1 I I #
face $-1 $-1 $249 $32 $-1 $338 forward single #
loop $-1 $-1 $339 $151 #
plane-surface $-1 0 47.244262397974957 0 0 -1 0 0 0 -1 forward_v I I I I #
coedge $-1 $340 $341 $242 $342 forward $152 $-1 #
coedge $-1 $343 $154 $156 $247 forward $95 $-1 #
coedge $-1 $154 $343 $240 $342 reversed $95 $-1 #
coedge $-1 $344 $157 $154 $244 forward $249 $-1 #
edge $-1 $251 22.147736302198879 $345 40.68366674383627 $243 $346 forward 7 unknown #
coedge $-1 $347 $339 $155 $246 forward $238 $-1 #
edge $-1 $348 -83.219883268577036 $250 -65.789318165331309 $245 $349 forward 7 unknown #
edge $-1 $251 63.31759117265139 $348 94.488524795949914 $156 $350 forward 7 unknown #
coedge $-1 $157 $344 $347 $351 forward $249 $-1 #
loop $-1 $-1 $243 $237 #
vertex $-1 $246 $352 #
vertex $-1 $158 $353 #
straight-curve $-1 53.563437825216454 24.772318418554409 23.374281572649636 0 -1 0 I I #
coedge $-1 $253 $253 $-1 $354 reversed $161 $-1 #
edge $-1 $355 0 $355 6.2831853071796004 $162 $356 forward 7 unknown #
vertex $-1 $165 $357 #
ellipse-curve $-1 57.270623913543943 34.323324901709491 14.658999021026778 0 0.55919291073839883 0.82903756765294845 1 0 0 1 I I #
coedge $-1 $257 $257 $-1 $358 reversed $168 $-1 #
edge $-1 $359 0 $359 6.2831853071796004 $169 $360 forward 7 unknown #
vertex $-1 $172 $361 #
ellipse-curve $-1 62.831403046035149 34.323324901709491 14.658999021026778 0 0.55919291073839883 0.82903756765294845 1 0 0 1 I I #
coedge $-1 $261 $261 $-1 $362 reversed $175 $-1 #
edge $-1 $363 0 $363 6.2831853071796004 $176 $364 forward 7 unknown #
vertex $-1 $179 $365 #
ellipse-curve $-1 68.392182178526355 34.323324901709491 14.658999021026778 0 0.55919291073839883 0.82903756765294845 1 0 0 1 I I #
face $-1 $-1 $195 $27 $-1 $366 reversed single #
loop $-1 $-1 $280 $180 #
plane-surface $-1 0 47.244262397974957 0 0 -1 0 0 0 -1 forward_v I I I I #
coedge $-1 $278 $367 $183 $270 reversed $181 $-1 #
coedge $-1 $284 $183 $184 $272 reversed $114 $-1 #
edge $-1 $285 -23.374281572649643 $368 23.374281572649643 $268 $369 forward 7 unknown #
coedge $-1 $185 $184 $367 $370 forward $73 $-1 #
edge $-1 $276 -72.099368266853844 $368 72.099368266853844 $269 $371 forward 7 unknown #
coedge $-1 $281 $280 $185 $274 reversed $266 $-1 #
edge $-1 $372 -72.099368266853844 $275 72.099368266853844 $273 $373 forward 7 unknown #
vertex $-1 $187 $374 #
vertex $-1 $287 $375 #
straight-curve $-1 72.099368266853844 0 -23.374281572649643 0 -1 0 I I #
coedge $-1 $376 $268 $188 $279 reversed $181 $-1 #
edge $-1 $282 -47.244262397974957 $285 47.244262397974957 $278 $377 forward 7 unknown #
coedge $-1 $273 $189 $194 $288 forward $266 $-1 #
coedge $-1 $189 $273 $376 $378 reversed $266 $-1 #
vertex $-1 $190 $379 #
straight-curve $-1 0 47.244262397974957 23.374281572649643 -1 0 0 I I #
coedge $-1 $191 $269 $193 $287 reversed $114 $-1 #
vertex $-1 $279 $380 #
straight-curve $-1 0 -47.244262397974957 23.374281572649643 1 0 0 I I #
edge $-1 $196 -23.374281572649643 $276 23.374281572649643 $193 $381 forward 7 unknown #
edge $-1 $197 -23.374281572649643 $275 23.374281572649643 $194 $382 forward 7 unknown #
point $-1 72.099368266853844 -47.244262397974957 23.374281572649643 #
point $-1 72.099368266853844 47.244262397974957 23.374281572649643 #
face $-1 $-1 $305 $28 $-1 $383 reversed single #
loop $-1 $-1 $301 $199 #
plane-surface $-1 0 0 -23.374281572649643 0 0 1 1 0 0 forward_v I I I I #
coedge $-1 $384 $385 $295 $386 forward $200 $-1 #
coedge $-1 $203 $202 $294 $386 reversed $77 $-1 #
coedge $-1 $301 $387 $202 $297 forward $292 $-1 #
edge $-1 $388 -95.513212132542805 $299 -72.099368266853844 $202 $389 forward 7 unknown #
edge $-1 $210 -11.70692193284448 $390 11.70692193284448 $203 $391 forward 7 unknown #
vertex $-1 $204 $392 #
straight-curve $-1 -72.099368266853844 47.244262397974957 0 0 0 -1 I I #
coedge $-1 $393 $296 $205 $302 forward $292 $-1 #
edge $-1 $299 -47.244262397974957 $306 47.244262397974957 $301 $394 forward 7 unknown #
coedge $-1 $395 $206 $209 $309 reversed $305 $-1 #
coedge $-1 $206 $395 $393 $396 reversed $305 $-1 #
loop $-1 $-1 $206 $291 #
vertex $-1 $396 $397 #
straight-curve $-1 -72.099368266853844 -47.244262397974957 0 0 0 1 I I #
coedge $-1 $209 $208 $385 $398 forward $122 $-1 #
edge $-1 $399 -11.70692193284448 $211 11.70692193284448 $303 $400 forward 7 unknown #
point $-1 -72.099368266853844 47.244262397974957 -12.080980346133771 #
point $-1 -72.099368266853844 -47.244262397974957 -12.080980346133771 #
plane-surface $-1 0 0 23.374281572649643 0 0 1 1 0 0 forward_v I I I I #
coedge $-1 $323 $322 $315 $401 forward $214 $-1 #
coedge $-1 $315 $216 $218 $319 reversed $130 $-1 #
coedge $-1 $216 $314 $313 $401 reversed $130 $-1 #
coedge $-1 $224 $219 $216 $317 forward $225 $-1 #
edge $-1 $320 -35.952742603751872 $402 -14.5847134891414 $316 $403 forward 7 unknown #
coedge $-1 $218 $217 $323 $404 reversed $81 $-1 #
edge $-1 $405 7.9083955554844352e-015 $320 25.196718584265682 $314 $406 forward 7 unknown #
vertex $-1 $220 $407 #
straight-curve $-1 -18.973387699329574 -25.876233283364481 23.374281572649643 -1 0 0 I I #
coedge $-1 $313 $221 $224 $327 reversed $214 $-1 #
coedge $-1 $221 $313 $318 $404 forward $214 $-1 #
vertex $-1 $222 $408 #
straight-curve $-1 -27.208026396153407 -47.244262397974957 66.154759089094682 0 0 1 I I #
straight-curve $-1 -27.208026396153407 -47.244262397974964 10.022054823083181 0 -0.84804809178421925 -0.52991927123019833 I I #
edge $-1 $402 -48.685524401164891 $226 -27.208026396153407 $322 $409 forward 7 unknown #
point $-1 -27.208026396153407 -47.244262397974957 23.374281572649643 #
point $-1 -27.208026396153407 -25.876233283364481 23.374281572649643 #
edge $-1 $410 1 $410 0 $229 $-1 forward 7 unknown #
vertex $-1 $230 $411 #
ellipse-curve $-1 -42.549096399733031 -33.920945182939036 12.474401099656424 0 -0.52991927123019833 0.84804809178421925 1.5 0 0 1 I I #
point $-1 -41.049096399733031 -36.560247840669724 16.698168197866419 #
edge $-1 $412 1 $412 0 $233 $-1 forward 7 unknown #
vertex $-1 $234 $413 #
ellipse-curve $-1 -33.34445439758526 -33.920945182939036 12.474401099656424 0 -0.52991927123019833 0.84804809178421925 1.5 0 0 1 I I #
point $-1 -31.84445439758526 -36.560247840669724 16.698168197866419 #
plane-surface $-1 0 0 23.374281572649643 0 0 1 1 0 0 forward_v I I I I #
coedge $-1 $245 $414 $343 $415 forward $238 $-1 #
coedge $-1 $341 $240 $414 $416 reversed $152 $-1 #
coedge $-1 $240 $340 $344 $417 reversed $152 $-1 #
edge $-1 $345 33.995120910098969 $418 65.166054533397499 $240 $419 forward 7 unknown #
coedge $-1 $242 $241 $339 $415 reversed $95 $-1 #
coedge $-1 $248 $243 $341 $417 forward $249 $-1 #
vertex $-1 $417 $420 #
straight-curve $-1 31.415701523017574 21.402387405444028 23.374281572649643 1 0 0 I I #
coedge $-1 $414 $245 $248 $351 reversed $238 $-1 #
vertex $-1 $246 $421 #
straight-curve $-1 53.563437825216454 47.244262397974957 89.163599737980945 0 0 1 I I #
straight-curve $-1 53.563437825216454 -31.090274369974672 58.781029681428521 0 0.82903756765294845 -0.55919291073839883 I I #
edge $-1 $422 -72.099368266853844 $250 -53.563437825216454 $347 $423 forward 7 unknown #
point $-1 53.563437825216454 47.244262397974957 23.374281572649643 #
point $-1 53.563437825216454 21.402387405444038 23.374281572649643 #
edge $-1 $424 1 $424 0 $253 $-1 forward 7 unknown #
vertex $-1 $254 $425 #
ellipse-curve $-1 57.270623913543943 33.486131181744476 13.417808312193175 0 0.55919291073839883 0.82903756765294845 1 0 0 1 I I #
point $-1 58.270623913543943 34.323324901709491 14.658999021026778 #
edge $-1 $426 1 $426 0 $257 $-1 forward 7 unknown #
vertex $-1 $258 $427 #
ellipse-curve $-1 62.831403046035149 33.486131181744476 13.417808312193175 0 0.55919291073839883 0.82903756765294845 1 0 0 1 I I #
point $-1 63.831403046035149 34.323324901709491 14.658999021026778 #
edge $-1 $428 1 $428 0 $261 $-1 forward 7 unknown #
vertex $-1 $262 $429 #
ellipse-curve $-1 68.392182178526355 33.486131181744476 13.417808312193175 0 0.55919291073839883 0.82903756765294845 1 0 0 1 I I #
point $-1 69.392182178526355 34.323324901709491 14.658999021026778 #
plane-surface $-1 72.099368266853844 0 0 -1 0 0 0 0 1 forward_v I I I I #
coedge $-1 $268 $376 $271 $370 reversed $181 $-1 #
vertex $-1 $370 $430 #
straight-curve $-1 -72.099368266853844 -47.244262397974957 0 0 0 -1 I I #
edge $-1 $368 -47.244262397974957 $372 47.244262397974957 $367 $431 forward 7 unknown #
straight-curve $-1 0 -47.244262397974957 -23.374281572649643 -1 0 0 I I #
vertex $-1 $274 $432 #
straight-curve $-1 0 47.244262397974957 -23.374281572649643 1 0 0 I I #
point $-1 72.099368266853844 47.244262397974957 -23.374281572649643 #
point $-1 72.099368266853844 -47.244262397974957 -23.374281572649643 #
coedge $-1 $367 $278 $281 $378 forward $181 $-1 #
straight-curve $-1 -72.099368266853844 0 23.374281572649643 0 -1 0 I I #
edge $-1 $282 -23.374281572649643 $372 23.374281572649643 $281 $433 forward 7 unknown #
point $-1 -72.099368266853844 47.244262397974957 23.374281572649643 #
point $-1 -72.099368266853844 -47.244262397974957 23.374281572649643 #
straight-curve $-1 72.099368266853844 -47.244262397974957 0 0 0 -1 I I #
straight-curve $-1 72.099368266853844 47.244262397974957 0 0 0 -1 I I #
plane-surface $-1 0 -47.244262397974957 0 0 1 0 0 0 1 forward_v I I I I #
coedge $-1 $434 $294 $387 $435 reversed $200 $-1 #
coedge $-1 $294 $434 $308 $398 reversed $200 $-1 #
edge $-1 $390 -5.6466506132579362 $388 5.6466506132579362 $295 $436 forward 7 unknown #
coedge $-1 $296 $393 $384 $435 forward $292 $-1 #
vertex $-1 $297 $437 #
straight-curve $-1 0 47.244262397974957 -23.374281572649643 1 0 0 I I #
vertex $-1 $298 $438 #
straight-curve $-1 -83.806290199698324 47.244262397974957 -12.080980346133771 -1 0 0 I I #
point $-1 -72.099368266853844 47.244262397974957 -23.374281572649643 #
coedge $-1 $387 $301 $304 $396 forward $292 $-1 #
straight-curve $-1 -72.099368266853844 0 -23.374281572649643 0 -1 0 I I #
coedge $-1 $304 $303 $434 $439 forward $305 $-1 #
edge $-1 $306 -11.70692193284448 $440 11.70692193284448 $304 $441 forward 7 unknown #
point $-1 -72.099368266853844 -47.244262397974957 -23.374281572649643 #
edge $-1 $390 -47.244262397974957 $399 47.244262397974957 $385 $442 forward 7 unknown #
vertex $-1 $398 $443 #
straight-curve $-1 -83.806290199698324 -47.244262397974957 -12.080980346133771 1 0 0 I I #
edge $-1 $402 42.780477516445039 $405 56.132704266011501 $313 $444 forward 7 unknown #
vertex $-1 $327 $445 #
straight-curve $-1 -48.685524401164891 -61.828975887116357 23.374281572649643 0 -1 0 I I #
edge $-1 $405 -29.712136701835316 $324 -8.2346386968238328 $323 $446 forward 7 unknown #
vertex $-1 $404 $447 #
straight-curve $-1 -48.685524401164891 -47.244262397974964 10.022054823083181 0 0.84804809178421925 0.52991927123019833 I I #
point $-1 -48.685524401164891 -25.876233283364481 23.374281572649643 #
point $-1 -27.208026396153407 -47.244262397974957 10.022054823083185 #
straight-curve $-1 0 -47.244262397974957 23.374281572649643 1 0 0 I I #
vertex $-1 $330 $448 #
point $-1 -41.049096399733031 -33.920945182939036 12.474401099656424 #
vertex $-1 $334 $449 #
point $-1 -31.84445439758526 -33.920945182939036 12.474401099656424 #
coedge $-1 $339 $347 $340 $416 forward $238 $-1 #
edge $-1 $418 -40.68366674383627 $348 -22.147736302198879 $339 $450 forward 7 unknown #
edge $-1 $422 -23.374281572649643 $418 -5.9437164694039168 $340 $451 forward 7 unknown #
edge $-1 $345 21.402387405444038 $422 47.244262397974957 $341 $452 forward 7 unknown #
vertex $-1 $342 $453 #
straight-curve $-1 72.099368266853844 -6.7808449459323015 42.38411218527169 0 0.82903756765294845 -0.55919291073839883 I I #
point $-1 72.099368266853844 21.402387405444038 23.374281572649643 #
point $-1 53.563437825216454 47.244262397974957 5.9437164694039168 #
vertex $-1 $417 $454 #
straight-curve $-1 0 47.244262397974957 23.374281572649643 -1 0 0 I I #
vertex $-1 $354 $455 #
point $-1 58.270623913543943 33.486131181744476 13.417808312193175 #
vertex $-1 $358 $456 #
point $-1 63.831403046035149 33.486131181744476 13.417808312193175 #
vertex $-1 $362 $457 #
point $-1 69.392182178526355 33.486131181744476 13.417808312193175 #
point $-1 -72.099368266853844 -47.244262397974957 -23.374281572649643 #
straight-curve $-1 -72.099368266853844 0 -23.374281572649643 0 1 0 I I #
point $-1 -72.099368266853844 47.244262397974957 -23.374281572649643 #
straight-curve $-1 -72.099368266853844 47.244262397974957 0 0 0 -1 I I #
coedge $-1 $385 $384 $395 $439 reversed $200 $-1 #
edge $-1 $440 -47.244262397974957 $388 47.244262397974957 $384 $458 forward 7 unknown #
straight-curve $-1 -95.513212132542805 47.244262397974957 -17.727630959391707 0 0 -1 I I #
point $-1 -95.513212132542805 47.244262397974957 -23.374281572649643 #
point $-1 -95.513212132542805 47.244262397974957 -12.080980346133771 #
edge $-1 $399 -5.6466506132579362 $440 5.6466506132579362 $434 $459 forward 7 unknown #
vertex $-1 $435 $460 #
straight-curve $-1 -83.806290199698324 -47.244262397974957 -23.374281572649643 -1 0 0 I I #
straight-curve $-1 -95.513212132542805 0 -12.080980346133771 0 -1 0 I I #
point $-1 -95.513212132542805 -47.244262397974957 -12.080980346133771 #
straight-curve $-1 -48.685524401164891 -47.244262397974957 66.154759089094682 0 0 -1 I I #
point $-1 -48.685524401164891 -47.244262397974957 23.374281572649643 #
straight-curve $-1 -18.973387699329574 -47.244262397974957 10.022054823083186 1 0 0 I I #
point $-1 -48.685524401164891 -47.244262397974957 10.022054823083185 #
point $-1 -42.549096399733031 -33.126066276093738 11.202328961980095 #
point $-1 -33.34445439758526 -33.126066276093738 11.202328961980095 #
straight-curve $-1 31.415701523017574 47.244262397974957 5.9437164694039133 -1 0 0 I I #
straight-curve $-1 72.099368266853844 47.244262397974957 0 0 0 -1 I I #
straight-curve $-1 72.099368266853844 0 23.374281572649643 0 1 0 I I #
point $-1 72.099368266853844 47.244262397974957 5.9437164694039168 #
point $-1 72.099368266853844 47.244262397974957 23.374281572649643 #
point $-1 57.270623913543943 32.926938271006073 12.588770744540225 #
point $-1 62.831403046035149 32.926938271006073 12.588770744540225 #
point $-1 68.392182178526355 32.926938271006073 12.588770744540225 #
straight-curve $-1 -95.513212132542805 0 -23.374281572649643 0 1 0 I I #
straight-curve $-1 -95.513212132542805 -47.244262397974957 -17.727630959391707 0 0 -1 I I #
point $-1 -95.513212132542805 -47.244262397974957 -23.374281572649643 #
End-of-ACIS-data 