500 0 17 0           
7 Unknown 11 ACIS 5.0 NT 24 Fri Mar 26 17:54:24 1999 
-1 9.9999999999999995e-007 1e-010 
body $-1 $17 $-1 $18 #
body $-1 $19 $-1 $20 #
body $-1 $21 $-1 $22 #
body $-1 $23 $-1 $24 #
body $-1 $25 $-1 $26 #
body $-1 $27 $-1 $28 #
body $-1 $29 $-1 $30 #
body $-1 $31 $-1 $32 #
body $-1 $33 $-1 $34 #
body $-1 $35 $-1 $36 #
body $-1 $37 $-1 $38 #
body $-1 $39 $-1 $40 #
body $-1 $41 $-1 $42 #
body $-1 $43 $-1 $44 #
body $-1 $45 $-1 $46 #
body $-1 $47 $-1 $48 #
body $-1 $49 $-1 $50 #
lump $-1 $-1 $51 $0 #
transform $-1 1 0 0 0 1 0 0 0 1 65.371868037965015 34.687170654282738 8.2909610450862878 1 rotate no_reflect no_shear #
lump $-1 $-1 $52 $1 #
transform $-1 1 0 0 0 1 0 0 0 1 65.371868037965015 34.687170654282738 8.2909610450862878 1 rotate no_reflect no_shear #
lump $-1 $-1 $53 $2 #
transform $-1 1 0 0 0 1 0 0 0 1 65.371868037965015 34.687170654282738 8.2909610450862878 1 rotate no_reflect no_shear #
lump $-1 $-1 $54 $3 #
transform $-1 1 0 0 0 1 0 0 0 1 65.371868037965015 34.687170654282738 8.2909610450862878 1 rotate no_reflect no_shear #
lump $-1 $-1 $55 $4 #
transform $-1 1 0 0 0 1 0 0 0 1 65.371868037965015 34.687170654282738 8.2909610450862878 1 rotate no_reflect no_shear #
lump $-1 $-1 $56 $5 #
transform $-1 1 0 0 0 1 0 0 0 1 65.371868037965015 34.687170654282738 8.2909610450862878 1 rotate no_reflect no_shear #
lump $-1 $-1 $57 $6 #
transform $-1 1 0 0 0 1 0 0 0 1 65.371868037965015 34.687170654282738 8.2909610450862878 1 rotate no_reflect no_shear #
lump $-1 $-1 $58 $7 #
transform $-1 1 0 0 0 1 0 0 0 1 65.371868037965015 34.687170654282738 8.2909610450862878 1 rotate no_reflect no_shear #
lump $-1 $-1 $59 $8 #
transform $-1 1 0 0 0 1 0 0 0 1 65.371868037965015 34.687170654282738 8.2909610450862878 1 rotate no_reflect no_shear #
lump $-1 $-1 $60 $9 #
transform $-1 1 0 0 0 1 0 0 0 1 65.371868037965015 34.687170654282738 8.2909610450862878 1 rotate no_reflect no_shear #
lump $-1 $-1 $61 $10 #
transform $-1 1 0 0 0 1 0 0 0 1 65.371868037965015 34.687170654282738 8.2909610450862878 1 rotate no_reflect no_shear #
lump $-1 $-1 $62 $11 #
transform $-1 1 0 0 0 1 0 0 0 1 65.371868037965015 34.687170654282738 8.2909610450862878 1 rotate no_reflect no_shear #
lump $-1 $-1 $63 $12 #
transform $-1 1 0 0 0 1 0 0 0 1 65.371868037965015 34.687170654282738 8.2909610450862878 1 rotate no_reflect no_shear #
lump $-1 $-1 $64 $13 #
transform $-1 1 0 0 0 1 0 0 0 1 65.371868037965015 34.687170654282738 8.2909610450862878 1 rotate no_reflect no_shear #
lump $-1 $-1 $65 $14 #
transform $-1 1 0 0 0 1 0 0 0 1 65.371868037965015 34.687170654282738 8.2909610450862878 1 rotate no_reflect no_shear #
lump $-1 $-1 $66 $15 #
transform $-1 1 0 0 0 1 0 0 0 1 65.371868037965015 34.687170654282738 8.2909610450862878 1 rotate no_reflect no_shear #
lump $-1 $-1 $67 $16 #
transform $-1 1 0 0 0 1 0 0 0 1 65.371868037965015 34.687170654282738 8.2909610450862878 1 rotate no_reflect no_shear #
shell $-1 $-1 $-1 $68 $-1 $17 #
shell $-1 $-1 $-1 $69 $-1 $19 #
shell $-1 $-1 $-1 $70 $-1 $21 #
shell $-1 $-1 $-1 $71 $-1 $23 #
shell $-1 $-1 $-1 $72 $-1 $25 #
shell $-1 $-1 $-1 $73 $-1 $27 #
shell $-1 $-1 $-1 $74 $-1 $29 #
shell $-1 $-1 $-1 $75 $-1 $31 #
shell $-1 $-1 $-1 $76 $-1 $33 #
shell $-1 $-1 $-1 $77 $-1 $35 #
shell $-1 $-1 $-1 $78 $-1 $37 #
shell $-1 $-1 $-1 $79 $-1 $39 #
shell $-1 $-1 $-1 $80 $-1 $41 #
shell $-1 $-1 $-1 $81 $-1 $43 #
shell $-1 $-1 $-1 $82 $-1 $45 #
shell $-1 $-1 $-1 $83 $-1 $47 #
shell $-1 $-1 $-1 $84 $-1 $49 #
face $-1 $85 $86 $51 $-1 $87 forward single #
face $-1 $88 $89 $52 $-1 $90 forward single #
face $-1 $91 $92 $53 $-1 $93 reversed single #
face $-1 $94 $95 $54 $-1 $96 forward single #
face $-1 $97 $98 $55 $-1 $99 forward single #
face $-1 $100 $101 $56 $-1 $102 reversed single #
face $-1 $103 $104 $57 $-1 $105 forward single #
face $-1 $106 $107 $58 $-1 $108 forward single #
face $-1 $109 $110 $59 $-1 $111 reversed single #
face $-1 $112 $113 $60 $-1 $114 forward single #
face $-1 $115 $116 $61 $-1 $117 forward single #
face $-1 $118 $119 $62 $-1 $120 reversed single #
face $-1 $121 $122 $63 $-1 $123 forward single #
face $-1 $124 $125 $64 $-1 $126 forward single #
face $-1 $127 $128 $65 $-1 $129 reversed single #
face $-1 $130 $131 $66 $-1 $132 forward single #
face $-1 $133 $134 $67 $-1 $135 forward single #
face $-1 $136 $137 $51 $-1 $138 reversed single #
loop $-1 $-1 $139 $68 #
plane-surface $-1 0 0 8.2909610450862878 0 0 1 1 0 0 forward_v I I I I #
face $-1 $140 $141 $52 $-1 $142 reversed single #
loop $-1 $-1 $143 $69 #
plane-surface $-1 0 -29.417705339209927 -4.696982519276256 0 0 1 1 0 0 forward_v I I I I #
face $-1 $144 $145 $53 $-1 $146 reversed single #
loop $-1 $-1 $147 $70 #
plane-surface $-1 68.598812584773299 -24.148240024137117 186.03335788986314 0 1 0 0.71933980857756763 0 0.69465836192734942 forward_v I I I I #
face $-1 $148 $149 $54 $-1 $150 forward single #
loop $-1 $151 $152 $71 #
cone-surface $-1 59.917834003914365 -19.426529162449771 2.7836529593385295 -0.71933980857756763 0 -0.69465836192734942 1.3893167238546988 0 -1.4386796171551353 1 I I 0 1 2 forward I I I I #
face $-1 $153 $154 $55 $-1 $155 forward single #
loop $-1 $156 $157 $72 #
cone-surface $-1 59.917834003914365 -12.343962869918752 2.7836529593385295 -0.71933980857756763 0 -0.69465836192734942 1.3893167238546988 0 -1.4386796171551353 1 I I 0 1 2 forward I I I I #
face $-1 $158 $159 $56 $-1 $160 reversed single #
loop $-1 $-1 $161 $73 #
plane-surface $-1 -154.53888269032018 -17.822769009235216 100.88213333958046 0 1 0 -0.68199836817093118 0 0.7313536940579346 forward_v I I I I #
face $-1 $162 $163 $57 $-1 $164 forward single #
loop $-1 $165 $166 $74 #
cone-surface $-1 -63.133945170480466 -15.427517107891482 6.1181998279979455 0.68199836817093118 0 -0.7313536940579346 0.7313536940579346 0 0.68199836817093118 1 I I 0 1 1 forward I I I I #
face $-1 $167 $168 $58 $-1 $169 forward single #
loop $-1 $170 $171 $75 #
cone-surface $-1 -63.133945170480466 -11.834639255875882 6.1181998279979455 0.68199836817093118 0 -0.7313536940579346 0.7313536940579346 0 0.68199836817093118 1 I I 0 1 1 forward I I I I #
face $-1 $172 $173 $59 $-1 $174 reversed single #
loop $-1 $-1 $175 $76 #
plane-surface $-1 -154.53888269032018 -3.1139163396302543 100.88213333958046 0 1 0 -0.68199836817093118 0 0.7313536940579346 forward_v I I I I #
face $-1 $176 $177 $60 $-1 $178 forward single #
loop $-1 $179 $180 $77 #
cone-surface $-1 -63.133945170480466 -0.71866443828651683 6.1181998279979455 0.68199836817093118 0 -0.7313536940579346 0.7313536940579346 0 0.68199836817093118 1 I I 0 1 1 forward I I I I #
face $-1 $181 $182 $61 $-1 $183 forward single #
loop $-1 $184 $185 $78 #
cone-surface $-1 -63.133945170480466 2.8742134137290805 6.1181998279979455 0.68199836817093118 0 -0.7313536940579346 0.7313536940579346 0 0.68199836817093118 1 I I 0 1 1 forward I I I I #
face $-1 $186 $187 $62 $-1 $188 reversed single #
loop $-1 $-1 $189 $79 #
plane-surface $-1 -154.53888269032018 11.594936329974711 100.88213333958046 0 1 0 -0.68199836817093118 0 0.7313536940579346 forward_v I I I I #
face $-1 $190 $191 $63 $-1 $192 forward single #
loop $-1 $193 $194 $80 #
cone-surface $-1 -63.133945170480466 13.990188231318449 6.1181998279979455 0.68199836817093118 0 -0.7313536940579346 0.7313536940579346 0 0.68199836817093118 1 I I 0 1 1 forward I I I I #
face $-1 $195 $196 $64 $-1 $197 forward single #
loop $-1 $198 $199 $81 #
cone-surface $-1 -63.133945170480466 17.583066083334046 6.1181998279979455 0.68199836817093118 0 -0.7313536940579346 0.7313536940579346 0 0.68199836817093118 1 I I 0 1 1 forward I I I I #
face $-1 $200 $201 $65 $-1 $202 reversed single #
loop $-1 $-1 $203 $82 #
plane-surface $-1 -154.53888269032018 26.30378899957967 100.88213333958046 0 1 0 -0.68199836817093118 0 0.7313536940579346 forward_v I I I I #
face $-1 $204 $205 $66 $-1 $206 forward single #
loop $-1 $207 $208 $83 #
cone-surface $-1 -63.133945170480466 28.699040900923414 6.1181998279979455 0.68199836817093118 0 -0.7313536940579346 0.7313536940579346 0 0.68199836817093118 1 I I 0 1 1 forward I I I I #
face $-1 $209 $210 $67 $-1 $211 forward single #
loop $-1 $212 $213 $84 #
cone-surface $-1 -63.133945170480466 32.291918752939011 6.1181998279979455 0.68199836817093118 0 -0.7313536940579346 0.7313536940579346 0 0.68199836817093118 1 I I 0 1 1 forward I I I I #
face $-1 $214 $215 $51 $-1 $216 reversed single #
loop $-1 $-1 $217 $85 #
plane-surface $-1 0 0 -8.2909610450862878 0 0 1 1 0 0 forward_v I I I I #
coedge $-1 $218 $219 $220 $221 forward $86 $-1 #
face $-1 $222 $223 $52 $-1 $224 reversed single #
loop $-1 $-1 $225 $88 #
plane-surface $-1 0 -29.417705339209927 -7.696982519276256 0 0 1 1 0 0 forward_v I I I I #
coedge $-1 $226 $227 $228 $229 reversed $89 $-1 #
face $-1 $230 $231 $53 $-1 $232 reversed single #
loop $-1 $-1 $233 $91 #
plane-surface $-1 -25.45036149680223 -15.885246016184261 95.21112835509588 0.71933980857756763 0 0.69465836192734942 0.69465836192734942 0 -0.71933980857756763 forward_v I I I I #
coedge $-1 $234 $235 $236 $237 reversed $92 $-1 #
face $-1 $-1 $238 $54 $-1 $239 forward single #
loop $-1 $240 $241 $94 #
cone-surface $-1 57.18666098699714 -19.426529162449771 0.14618989744639421 -0.71933980857756763 0 -0.69465836192734942 0.69465836192734942 0 -0.71933980857756763 1 I I -0.70710678118654746 0.70710678118654746 1 forward I I I I #
loop $-1 $-1 $242 $71 #
coedge $-1 $152 $152 $243 $244 reversed $95 $-1 #
face $-1 $-1 $245 $55 $-1 $246 forward single #
loop $-1 $247 $248 $97 #
cone-surface $-1 57.18666098699714 -12.343962869918752 0.14618989744639421 -0.71933980857756763 0 -0.69465836192734942 0.69465836192734942 0 -0.71933980857756763 1 I I -0.70710678118654746 0.70710678118654746 1 forward I I I I #
loop $-1 $-1 $249 $72 #
coedge $-1 $157 $157 $250 $251 reversed $98 $-1 #
face $-1 $252 $253 $56 $-1 $254 reversed single #
loop $-1 $-1 $255 $100 #
plane-surface $-1 -65.371868037964987 -13.631078181883684 5.2622189855133854 -0.68199836817093118 0 0.7313536940579346 0.7313536940579346 0 0.68199836817093118 forward_v I I I I #
coedge $-1 $256 $257 $258 $259 reversed $101 $-1 #
face $-1 $-1 $260 $57 $-1 $261 forward single #
loop $-1 $262 $263 $103 #
cone-surface $-1 -62.178987190523969 -15.427517107891482 5.0941327936670913 0.68199836817093118 0 -0.7313536940579346 0.3656768470289673 0 0.34099918408546559 1 I I -0.70710678118654746 0.70710678118654746 0.5 forward I I I I #
loop $-1 $-1 $264 $74 #
coedge $-1 $166 $166 $265 $266 reversed $104 $-1 #
face $-1 $-1 $267 $58 $-1 $268 forward single #
loop $-1 $269 $270 $106 #
cone-surface $-1 -62.178987190523969 -11.834639255875882 5.0941327936670913 0.68199836817093118 0 -0.7313536940579346 0.3656768470289673 0 0.34099918408546559 1 I I -0.70710678118654746 0.70710678118654746 0.5 forward I I I I #
loop $-1 $-1 $271 $75 #
coedge $-1 $171 $171 $272 $273 reversed $107 $-1 #
face $-1 $274 $275 $59 $-1 $276 reversed single #
loop $-1 $-1 $277 $109 #
plane-surface $-1 -65.371868037964987 1.0777744877212783 5.2622189855133854 -0.68199836817093118 0 0.7313536940579346 0.7313536940579346 0 0.68199836817093118 forward_v I I I I #
coedge $-1 $278 $279 $280 $281 reversed $110 $-1 #
face $-1 $-1 $282 $60 $-1 $283 forward single #
loop $-1 $284 $285 $112 #
cone-surface $-1 -62.178987190523969 -0.71866443828651683 5.0941327936670913 0.68199836817093118 0 -0.7313536940579346 0.3656768470289673 0 0.34099918408546559 1 I I -0.70710678118654746 0.70710678118654746 0.5 forward I I I I #
loop $-1 $-1 $286 $77 #
coedge $-1 $180 $180 $287 $288 reversed $113 $-1 #
face $-1 $-1 $289 $61 $-1 $290 forward single #
loop $-1 $291 $292 $115 #
cone-surface $-1 -62.178987190523969 2.8742134137290805 5.0941327936670913 0.68199836817093118 0 -0.7313536940579346 0.3656768470289673 0 0.34099918408546559 1 I I -0.70710678118654746 0.70710678118654746 0.5 forward I I I I #
loop $-1 $-1 $293 $78 #
coedge $-1 $185 $185 $294 $295 reversed $116 $-1 #
face $-1 $296 $297 $62 $-1 $298 reversed single #
loop $-1 $-1 $299 $118 #
plane-surface $-1 -65.371868037964987 15.786627157326244 5.2622189855133854 -0.68199836817093118 0 0.7313536940579346 0.7313536940579346 0 0.68199836817093118 forward_v I I I I #
coedge $-1 $300 $301 $302 $303 reversed $119 $-1 #
face $-1 $-1 $304 $63 $-1 $305 forward single #
loop $-1 $306 $307 $121 #
cone-surface $-1 -62.178987190523969 13.990188231318449 5.0941327936670913 0.68199836817093118 0 -0.7313536940579346 0.3656768470289673 0 0.34099918408546559 1 I I -0.70710678118654746 0.70710678118654746 0.5 forward I I I I #
loop $-1 $-1 $308 $80 #
coedge $-1 $194 $194 $309 $310 reversed $122 $-1 #
face $-1 $-1 $311 $64 $-1 $312 forward single #
loop $-1 $313 $314 $124 #
cone-surface $-1 -62.178987190523969 17.583066083334046 5.0941327936670913 0.68199836817093118 0 -0.7313536940579346 0.3656768470289673 0 0.34099918408546559 1 I I -0.70710678118654746 0.70710678118654746 0.5 forward I I I I #
loop $-1 $-1 $315 $81 #
coedge $-1 $199 $199 $316 $317 reversed $125 $-1 #
face $-1 $318 $319 $65 $-1 $320 forward single #
loop $-1 $-1 $321 $127 #
plane-surface $-1 -65.371868037964987 30.495479826931202 5.2622189855133854 -0.68199836817093118 0 0.7313536940579346 0.7313536940579346 0 0.68199836817093118 forward_v I I I I #
coedge $-1 $322 $323 $324 $325 reversed $128 $-1 #
face $-1 $-1 $326 $66 $-1 $327 forward single #
loop $-1 $328 $329 $130 #
cone-surface $-1 -62.178987190523969 28.699040900923414 5.0941327936670913 0.68199836817093118 0 -0.7313536940579346 0.3656768470289673 0 0.34099918408546559 1 I I -0.70710678118654746 0.70710678118654746 0.5 forward I I I I #
loop $-1 $-1 $330 $83 #
coedge $-1 $208 $208 $331 $332 reversed $131 $-1 #
face $-1 $-1 $333 $67 $-1 $334 forward single #
loop $-1 $335 $336 $133 #
cone-surface $-1 -62.178987190523969 32.291918752939011 5.0941327936670913 0.68199836817093118 0 -0.7313536940579346 0.3656768470289673 0 0.34099918408546559 1 I I -0.70710678118654746 0.70710678118654746 0.5 forward I I I I #
loop $-1 $-1 $337 $84 #
coedge $-1 $213 $213 $338 $339 reversed $134 $-1 #
face $-1 $340 $341 $51 $-1 $342 reversed single #
loop $-1 $-1 $343 $136 #
plane-surface $-1 0 -34.687170654282738 0 0 1 0 0 0 1 forward_v I I I I #
coedge $-1 $344 $345 $346 $347 forward $137 $-1 #
coedge $-1 $348 $139 $349 $350 forward $86 $-1 #
coedge $-1 $139 $348 $351 $352 forward $86 $-1 #
coedge $-1 $353 $354 $139 $221 reversed $355 $-1 #
edge $-1 $356 -34.687170654282738 $357 34.687170654282738 $220 $358 forward 7 unknown #
face $-1 $359 $360 $52 $-1 $361 reversed single #
loop $-1 $-1 $362 $140 #
plane-surface $-1 0 -24.148240024137117 -6.196982519276256 0 -1 0 0 0 -1 forward_v I I I I #
coedge $-1 $363 $364 $365 $366 reversed $141 $-1 #
coedge $-1 $367 $143 $368 $369 forward $89 $-1 #
coedge $-1 $143 $367 $370 $371 reversed $89 $-1 #
coedge $-1 $372 $373 $143 $229 forward $374 $-1 #
edge $-1 $375 9.4393873545321529 $376 19.978317984677773 $228 $377 forward 7 unknown #
face $-1 $378 $379 $53 $-1 $380 forward single #
loop $-1 $-1 $381 $144 #
plane-surface $-1 68.598812584773299 -7.6222520082314063 186.03335788986314 0 -1 0 -0.71933980857756763 0 -0.69465836192734942 forward_v I I I I #
coedge $-1 $382 $383 $384 $385 reversed $145 $-1 #
coedge $-1 $235 $147 $386 $387 reversed $92 $-1 #
coedge $-1 $147 $234 $382 $388 reversed $92 $-1 #
coedge $-1 $384 $389 $147 $237 forward $390 $-1 #
edge $-1 $391 84.725717899845279 $392 91.854724671411219 $236 $393 forward 7 unknown #
loop $-1 $-1 $243 $148 #
plane-surface $-1 -25.45036149680223 -15.885246016184261 95.21112835509588 0.71933980857756763 0 0.69465836192734942 0.69465836192734942 0 -0.71933980857756763 forward_v I I I I #
loop $-1 $-1 $394 $94 #
coedge $-1 $241 $241 $242 $395 reversed $149 $-1 #
coedge $-1 $242 $242 $241 $395 forward $151 $-1 #
coedge $-1 $243 $243 $152 $244 forward $238 $-1 #
edge $-1 $396 0 $396 6.2831853071796004 $243 $397 forward 7 unknown #
loop $-1 $-1 $250 $153 #
plane-surface $-1 -25.45036149680223 -15.885246016184261 95.21112835509588 0.71933980857756763 0 0.69465836192734942 0.69465836192734942 0 -0.71933980857756763 forward_v I I I I #
loop $-1 $-1 $398 $97 #
coedge $-1 $248 $248 $249 $399 reversed $154 $-1 #
coedge $-1 $249 $249 $248 $399 forward $156 $-1 #
coedge $-1 $250 $250 $157 $251 forward $245 $-1 #
edge $-1 $400 0 $400 6.2831853071796004 $250 $401 forward 7 unknown #
face $-1 $402 $403 $56 $-1 $404 reversed single #
loop $-1 $-1 $405 $158 #
plane-surface $-1 -154.53888269032018 -9.4393873545321512 100.88213333958046 0 -1 0 0.68199836817093118 0 -0.7313536940579346 forward_v I I I I #
coedge $-1 $406 $407 $408 $409 reversed $159 $-1 #
coedge $-1 $257 $161 $410 $411 reversed $101 $-1 #
coedge $-1 $161 $256 $406 $412 reversed $101 $-1 #
coedge $-1 $408 $413 $161 $259 forward $414 $-1 #
edge $-1 $415 11.897573307195074 $416 15.145501450422138 $258 $417 forward 7 unknown #
loop $-1 $-1 $265 $162 #
plane-surface $-1 -65.371868037964987 -13.631078181883684 5.2622189855133854 -0.68199836817093118 0 0.7313536940579346 0.7313536940579346 0 0.68199836817093118 forward_v I I I I #
loop $-1 $-1 $418 $103 #
coedge $-1 $263 $263 $264 $419 reversed $163 $-1 #
coedge $-1 $264 $264 $263 $419 forward $165 $-1 #
coedge $-1 $265 $265 $166 $266 forward $260 $-1 #
edge $-1 $420 0 $420 6.2831853071796004 $265 $421 forward 7 unknown #
loop $-1 $-1 $272 $167 #
plane-surface $-1 -65.371868037964987 -13.631078181883684 5.2622189855133854 -0.68199836817093118 0 0.7313536940579346 0.7313536940579346 0 0.68199836817093118 forward_v I I I I #
loop $-1 $-1 $422 $106 #
coedge $-1 $270 $270 $271 $423 reversed $168 $-1 #
coedge $-1 $271 $271 $270 $423 forward $170 $-1 #
coedge $-1 $272 $272 $171 $273 forward $267 $-1 #
edge $-1 $424 0 $424 6.2831853071796004 $272 $425 forward 7 unknown #
face $-1 $426 $427 $59 $-1 $428 forward single #
loop $-1 $-1 $429 $172 #
plane-surface $-1 -154.53888269032018 5.2694653150728108 100.88213333958046 0 -1 0 0.68199836817093118 0 -0.7313536940579346 forward_v I I I I #
coedge $-1 $430 $431 $432 $433 reversed $173 $-1 #
coedge $-1 $279 $175 $434 $435 reversed $110 $-1 #
coedge $-1 $175 $278 $430 $436 reversed $110 $-1 #
coedge $-1 $432 $437 $175 $281 forward $427 $-1 #
edge $-1 $438 11.897573307195074 $439 15.145501450422138 $280 $440 forward 7 unknown #
loop $-1 $-1 $287 $176 #
plane-surface $-1 -65.371868037964987 1.0777744877212783 5.2622189855133854 -0.68199836817093118 0 0.7313536940579346 0.7313536940579346 0 0.68199836817093118 forward_v I I I I #
loop $-1 $-1 $441 $112 #
coedge $-1 $285 $285 $286 $442 reversed $177 $-1 #
coedge $-1 $286 $286 $285 $442 forward $179 $-1 #
coedge $-1 $287 $287 $180 $288 forward $282 $-1 #
edge $-1 $443 0 $443 6.2831853071796004 $287 $444 forward 7 unknown #
loop $-1 $-1 $294 $181 #
plane-surface $-1 -65.371868037964987 1.0777744877212783 5.2622189855133854 -0.68199836817093118 0 0.7313536940579346 0.7313536940579346 0 0.68199836817093118 forward_v I I I I #
loop $-1 $-1 $445 $115 #
coedge $-1 $292 $292 $293 $446 reversed $182 $-1 #
coedge $-1 $293 $293 $292 $446 forward $184 $-1 #
coedge $-1 $294 $294 $185 $295 forward $289 $-1 #
edge $-1 $447 0 $447 6.2831853071796004 $294 $448 forward 7 unknown #
face $-1 $449 $450 $62 $-1 $451 forward single #
loop $-1 $-1 $452 $186 #
plane-surface $-1 -154.53888269032018 19.978317984677776 100.88213333958046 0 -1 0 0.68199836817093118 0 -0.7313536940579346 forward_v I I I I #
coedge $-1 $453 $454 $455 $456 reversed $187 $-1 #
coedge $-1 $301 $189 $457 $458 reversed $119 $-1 #
coedge $-1 $189 $300 $453 $459 reversed $119 $-1 #
coedge $-1 $455 $460 $189 $303 forward $450 $-1 #
edge $-1 $461 11.897573307195074 $462 15.145501450422138 $302 $463 forward 7 unknown #
loop $-1 $-1 $309 $190 #
plane-surface $-1 -65.371868037964987 15.786627157326244 5.2622189855133854 -0.68199836817093118 0 0.7313536940579346 0.7313536940579346 0 0.68199836817093118 forward_v I I I I #
loop $-1 $-1 $464 $121 #
coedge $-1 $307 $307 $308 $465 reversed $191 $-1 #
coedge $-1 $308 $308 $307 $465 forward $193 $-1 #
coedge $-1 $309 $309 $194 $310 forward $304 $-1 #
edge $-1 $466 0 $466 6.2831853071796004 $309 $467 forward 7 unknown #
loop $-1 $-1 $316 $195 #
plane-surface $-1 -65.371868037964987 15.786627157326244 5.2622189855133854 -0.68199836817093118 0 0.7313536940579346 0.7313536940579346 0 0.68199836817093118 forward_v I I I I #
loop $-1 $-1 $468 $124 #
coedge $-1 $314 $314 $315 $469 reversed $196 $-1 #
coedge $-1 $315 $315 $314 $469 forward $198 $-1 #
coedge $-1 $316 $316 $199 $317 forward $311 $-1 #
edge $-1 $470 0 $470 6.2831853071796004 $316 $471 forward 7 unknown #
face $-1 $472 $473 $65 $-1 $474 reversed single #
loop $-1 $-1 $324 $200 #
plane-surface $-1 0 0 8.2909610450862878 0 0 1 1 0 0 forward_v I I I I #
coedge $-1 $475 $476 $477 $478 reversed $201 $-1 #
coedge $-1 $323 $203 $479 $480 reversed $128 $-1 #
coedge $-1 $203 $322 $475 $481 reversed $128 $-1 #
coedge $-1 $477 $482 $203 $325 forward $319 $-1 #
edge $-1 $483 11.897573307195074 $484 15.145501450422138 $324 $485 forward 7 unknown #
loop $-1 $-1 $331 $204 #
plane-surface $-1 -65.371868037964987 30.495479826931202 5.2622189855133854 -0.68199836817093118 0 0.7313536940579346 0.7313536940579346 0 0.68199836817093118 forward_v I I I I #
loop $-1 $-1 $486 $130 #
coedge $-1 $329 $329 $330 $487 reversed $205 $-1 #
coedge $-1 $330 $330 $329 $487 forward $207 $-1 #
coedge $-1 $331 $331 $208 $332 forward $326 $-1 #
edge $-1 $488 0 $488 6.2831853071796004 $331 $489 forward 7 unknown #
loop $-1 $-1 $338 $209 #
plane-surface $-1 -65.371868037964987 30.495479826931202 5.2622189855133854 -0.68199836817093118 0 0.7313536940579346 0.7313536940579346 0 0.68199836817093118 forward_v I I I I #
loop $-1 $-1 $490 $133 #
coedge $-1 $336 $336 $337 $491 reversed $210 $-1 #
coedge $-1 $337 $337 $336 $491 forward $212 $-1 #
coedge $-1 $338 $338 $213 $339 forward $333 $-1 #
edge $-1 $492 0 $492 6.2831853071796004 $338 $493 forward 7 unknown #
face $-1 $494 $495 $51 $-1 $496 reversed single #
loop $-1 $-1 $497 $214 #
plane-surface $-1 -65.371868037965015 0 0 1 0 0 0 0 -1 forward_v I I I I #
coedge $-1 $498 $351 $499 $500 forward $215 $-1 #
coedge $-1 $501 $217 $498 $502 forward $137 $-1 #
coedge $-1 $217 $501 $503 $504 forward $137 $-1 #
coedge $-1 $354 $353 $217 $347 reversed $355 $-1 #
edge $-1 $505 -34.687170654282738 $506 34.687170654282738 $346 $507 forward 7 unknown #
coedge $-1 $219 $218 $508 $509 forward $86 $-1 #
coedge $-1 $510 $511 $218 $350 reversed $495 $-1 #
edge $-1 $357 -65.371868037965015 $512 65.371868037965015 $349 $513 forward 7 unknown #
coedge $-1 $343 $514 $219 $352 reversed $215 $-1 #
edge $-1 $515 -65.371868037965015 $356 65.371868037965015 $351 $516 forward 7 unknown #
coedge $-1 $346 $220 $514 $517 forward $355 $-1 #
coedge $-1 $220 $346 $510 $518 reversed $355 $-1 #
loop $-1 $-1 $353 $494 #
vertex $-1 $221 $519 #
vertex $-1 $221 $520 #
straight-curve $-1 65.371868037965015 0 8.2909610450862878 0 1 0 I I #
face $-1 $521 $522 $52 $-1 $523 reversed single #
loop $-1 $-1 $524 $222 #
plane-surface $-1 -65.371868037965015 0 0 1 0 0 0 0 -1 forward_v I I I I #
coedge $-1 $525 $368 $373 $526 reversed $223 $-1 #
coedge $-1 $527 $225 $528 $529 reversed $141 $-1 #
coedge $-1 $225 $527 $525 $530 forward $141 $-1 #
coedge $-1 $373 $372 $225 $366 forward $374 $-1 #
edge $-1 $531 -19.978317984677773 $532 -9.4393873545321529 $365 $533 forward 7 unknown #
coedge $-1 $227 $226 $524 $534 reversed $89 $-1 #
coedge $-1 $362 $535 $226 $369 reversed $223 $-1 #
edge $-1 $375 -65.371868037965015 $536 65.371868037965015 $368 $537 forward 7 unknown #
coedge $-1 $538 $539 $227 $371 forward $522 $-1 #
edge $-1 $376 -65.371868037965015 $540 65.371868037965015 $370 $541 forward 7 unknown #
coedge $-1 $365 $228 $539 $542 forward $374 $-1 #
coedge $-1 $228 $365 $362 $526 forward $374 $-1 #
loop $-1 $-1 $228 $521 #
vertex $-1 $229 $543 #
vertex $-1 $542 $544 #
straight-curve $-1 65.371868037965015 -14.708852669604964 -4.696982519276256 0 -1 0 I I #
face $-1 $-1 $390 $53 $-1 $545 reversed single #
loop $-1 $-1 $546 $230 #
plane-surface $-1 0 0 8.2909610450862878 0 0 1 1 0 0 forward_v I I I I #
coedge $-1 $547 $548 $549 $550 reversed $231 $-1 #
coedge $-1 $551 $233 $235 $388 forward $145 $-1 #
coedge $-1 $233 $551 $547 $552 forward $145 $-1 #
coedge $-1 $549 $236 $233 $385 forward $390 $-1 #
edge $-1 $392 -16.205617016044986 $553 0.32037099986072448 $384 $554 forward 7 unknown #
coedge $-1 $555 $556 $234 $387 forward $379 $-1 #
edge $-1 $557 24.188060094156398 $391 31.072461745578366 $386 $558 forward 7 unknown #
edge $-1 $392 -130.74373607593003 $557 -120.83325053549687 $235 $559 forward 7 unknown #
coedge $-1 $236 $549 $555 $560 reversed $390 $-1 #
loop $-1 $-1 $549 $378 #
vertex $-1 $560 $561 #
vertex $-1 $237 $562 #
straight-curve $-1 65.371868037965015 -24.148240024137117 93.01667894493157 0 0 -1 I I #
coedge $-1 $394 $394 $-1 $563 reversed $240 $-1 #
edge $-1 $564 0 $564 6.2831853071796004 $241 $565 forward 7 unknown #
vertex $-1 $244 $566 #
ellipse-curve $-1 61.929667212254031 -19.426529162449771 4.7264576593033301 0.71933980857756763 0 0.69465836192734942 1.3893167238546988 0 -1.4386796171551353 1 I I #
coedge $-1 $398 $398 $-1 $567 reversed $247 $-1 #
edge $-1 $568 0 $568 6.2831853071796004 $248 $569 forward 7 unknown #
vertex $-1 $251 $570 #
ellipse-curve $-1 61.929667212254031 -12.343962869918752 4.7264576593033301 0.71933980857756763 0 0.69465836192734942 1.3893167238546988 0 -1.4386796171551353 1 I I #
face $-1 $-1 $414 $56 $-1 $571 forward single #
loop $-1 $-1 $572 $252 #
plane-surface $-1 -65.371868037965015 0 0 1 0 0 0 0 -1 forward_v I I I I #
coedge $-1 $573 $574 $575 $576 reversed $253 $-1 #
coedge $-1 $577 $255 $257 $412 forward $159 $-1 #
coedge $-1 $255 $577 $573 $578 forward $159 $-1 #
coedge $-1 $575 $258 $255 $409 forward $414 $-1 #
edge $-1 $416 -11.007229918293374 $579 -2.6238482635903093 $408 $580 forward 7 unknown #
coedge $-1 $581 $582 $256 $411 forward $403 $-1 #
edge $-1 $583 -45.178847684276874 $415 -42.15010562470394 $410 $584 forward 7 unknown #
edge $-1 $416 -4.4409813878232054 $583 3.8958409169770864e-014 $257 $585 forward 7 unknown #
coedge $-1 $258 $575 $581 $586 forward $414 $-1 #
loop $-1 $-1 $575 $402 #
vertex $-1 $411 $587 #
vertex $-1 $259 $588 #
straight-curve $-1 -77.269441345160089 -17.822769009235216 8.2909610450862843 1 0 0 I I #
coedge $-1 $418 $418 $-1 $589 reversed $262 $-1 #
edge $-1 $590 0 $590 6.2831853071796004 $263 $591 forward 7 unknown #
vertex $-1 $266 $592 #
ellipse-curve $-1 -63.747903966351487 -15.427517107891482 6.7765900152998206 -0.68199836817093118 0 0.7313536940579346 0.7313536940579346 0 0.68199836817093118 1 I I #
coedge $-1 $422 $422 $-1 $593 reversed $269 $-1 #
edge $-1 $594 0 $594 6.2831853071796004 $270 $595 forward 7 unknown #
vertex $-1 $273 $596 #
ellipse-curve $-1 -63.747903966351487 -11.834639255875882 6.7765900152998206 -0.68199836817093118 0 0.7313536940579346 0.7313536940579346 0 0.68199836817093118 1 I I #
face $-1 $-1 $597 $59 $-1 $598 reversed single #
loop $-1 $-1 $280 $274 #
plane-surface $-1 0 0 8.2909610450862878 0 0 1 1 0 0 forward_v I I I I #
coedge $-1 $599 $600 $601 $602 reversed $275 $-1 #
coedge $-1 $603 $277 $279 $436 forward $173 $-1 #
coedge $-1 $277 $603 $599 $604 forward $173 $-1 #
coedge $-1 $601 $280 $277 $433 forward $427 $-1 #
edge $-1 $439 -3.6528035834908934 $605 4.7305780712121717 $432 $606 forward 7 unknown #
coedge $-1 $607 $608 $278 $435 forward $597 $-1 #
edge $-1 $609 -45.178847684276874 $438 -42.15010562470394 $434 $610 forward 7 unknown #
edge $-1 $439 -4.4409813878232054 $609 3.8958409169770864e-014 $279 $611 forward 7 unknown #
coedge $-1 $280 $601 $607 $612 forward $427 $-1 #
vertex $-1 $281 $613 #
vertex $-1 $281 $614 #
straight-curve $-1 -77.269441345160089 -3.1139163396302543 8.2909610450862843 1 0 0 I I #
coedge $-1 $441 $441 $-1 $615 reversed $284 $-1 #
edge $-1 $616 0 $616 6.2831853071796004 $285 $617 forward 7 unknown #
vertex $-1 $288 $618 #
ellipse-curve $-1 -63.747903966351487 -0.71866443828651683 6.7765900152998206 -0.68199836817093118 0 0.7313536940579346 0.7313536940579346 0 0.68199836817093118 1 I I #
coedge $-1 $445 $445 $-1 $619 reversed $291 $-1 #
edge $-1 $620 0 $620 6.2831853071796004 $292 $621 forward 7 unknown #
vertex $-1 $295 $622 #
ellipse-curve $-1 -63.747903966351487 2.8742134137290805 6.7765900152998206 -0.68199836817093118 0 0.7313536940579346 0.7313536940579346 0 0.68199836817093118 1 I I #
face $-1 $-1 $623 $62 $-1 $624 reversed single #
loop $-1 $-1 $302 $296 #
plane-surface $-1 0 0 8.2909610450862878 0 0 1 1 0 0 forward_v I I I I #
coedge $-1 $625 $626 $627 $628 reversed $297 $-1 #
coedge $-1 $629 $299 $301 $459 forward $187 $-1 #
coedge $-1 $299 $629 $625 $630 forward $187 $-1 #
coedge $-1 $627 $302 $299 $456 forward $450 $-1 #
edge $-1 $462 3.7016227513115894 $631 12.085004406014654 $455 $632 forward 7 unknown #
coedge $-1 $633 $634 $300 $458 forward $623 $-1 #
edge $-1 $635 -45.178847684276874 $461 -42.15010562470394 $457 $636 forward 7 unknown #
edge $-1 $462 -4.4409813878232054 $635 3.8958409169770864e-014 $301 $637 forward 7 unknown #
coedge $-1 $302 $627 $633 $638 forward $450 $-1 #
vertex $-1 $303 $639 #
vertex $-1 $303 $640 #
straight-curve $-1 -77.269441345160089 11.594936329974711 8.2909610450862843 1 0 0 I I #
coedge $-1 $464 $464 $-1 $641 reversed $306 $-1 #
edge $-1 $642 0 $642 6.2831853071796004 $307 $643 forward 7 unknown #
vertex $-1 $310 $644 #
ellipse-curve $-1 -63.747903966351487 13.990188231318449 6.7765900152998206 -0.68199836817093118 0 0.7313536940579346 0.7313536940579346 0 0.68199836817093118 1 I I #
coedge $-1 $468 $468 $-1 $645 reversed $313 $-1 #
edge $-1 $646 0 $646 6.2831853071796004 $314 $647 forward 7 unknown #
vertex $-1 $317 $648 #
ellipse-curve $-1 -63.747903966351487 17.583066083334046 6.7765900152998206 -0.68199836817093118 0 0.7313536940579346 0.7313536940579346 0 0.68199836817093118 1 I I #
face $-1 $-1 $649 $65 $-1 $650 reversed single #
loop $-1 $-1 $651 $318 #
plane-surface $-1 0 34.687170654282738 0 0 -1 0 0 0 -1 forward_v I I I I #
coedge $-1 $652 $321 $323 $481 forward $201 $-1 #
coedge $-1 $321 $652 $651 $653 reversed $201 $-1 #
coedge $-1 $654 $324 $321 $478 forward $319 $-1 #
edge $-1 $484 11.056049086114069 $655 19.439430740817137 $477 $656 forward 7 unknown #
coedge $-1 $657 $658 $322 $480 forward $649 $-1 #
edge $-1 $659 -45.178847684276874 $483 -42.15010562470394 $479 $660 forward 7 unknown #
edge $-1 $484 -4.4409813878232054 $659 3.8958409169770864e-014 $323 $661 forward 7 unknown #
coedge $-1 $324 $654 $657 $662 forward $319 $-1 #
vertex $-1 $480 $663 #
vertex $-1 $325 $664 #
straight-curve $-1 -77.269441345160089 26.30378899957967 8.2909610450862843 1 0 0 I I #
coedge $-1 $486 $486 $-1 $665 reversed $328 $-1 #
edge $-1 $666 0 $666 6.2831853071796004 $329 $667 forward 7 unknown #
vertex $-1 $332 $668 #
ellipse-curve $-1 -63.747903966351487 28.699040900923414 6.7765900152998206 -0.68199836817093118 0 0.7313536940579346 0.7313536940579346 0 0.68199836817093118 1 I I #
coedge $-1 $490 $490 $-1 $669 reversed $335 $-1 #
edge $-1 $670 0 $670 6.2831853071796004 $336 $671 forward 7 unknown #
vertex $-1 $339 $672 #
ellipse-curve $-1 -63.747903966351487 32.291918752939011 6.7765900152998206 -0.68199836817093118 0 0.7313536940579346 0.7313536940579346 0 0.68199836817093118 1 I I #
face $-1 $-1 $355 $51 $-1 $673 reversed single #
loop $-1 $-1 $510 $340 #
plane-surface $-1 0 34.687170654282738 0 0 -1 0 0 0 -1 forward_v I I I I #
coedge $-1 $674 $508 $511 $675 forward $341 $-1 #
coedge $-1 $514 $343 $344 $502 reversed $215 $-1 #
coedge $-1 $508 $674 $343 $500 reversed $341 $-1 #
edge $-1 $515 -8.2909610450862878 $676 8.2909610450862878 $499 $677 forward 7 unknown #
coedge $-1 $345 $344 $674 $678 forward $137 $-1 #
edge $-1 $506 -65.371868037965015 $676 65.371868037965015 $498 $679 forward 7 unknown #
coedge $-1 $511 $510 $345 $504 reversed $495 $-1 #
edge $-1 $680 -65.371868037965015 $505 65.371868037965015 $503 $681 forward 7 unknown #
vertex $-1 $347 $682 #
vertex $-1 $517 $683 #
straight-curve $-1 65.371868037965015 0 -8.2909610450862878 0 -1 0 I I #
coedge $-1 $497 $499 $348 $509 reversed $341 $-1 #
edge $-1 $512 -34.687170654282738 $515 34.687170654282738 $508 $684 forward 7 unknown #
coedge $-1 $503 $349 $354 $518 forward $495 $-1 #
coedge $-1 $349 $503 $497 $675 reversed $495 $-1 #
vertex $-1 $350 $685 #
straight-curve $-1 0 34.687170654282738 8.2909610450862878 -1 0 0 I I #
coedge $-1 $351 $498 $353 $517 reversed $215 $-1 #
vertex $-1 $509 $686 #
straight-curve $-1 0 -34.687170654282738 8.2909610450862878 1 0 0 I I #
edge $-1 $356 -8.2909610450862878 $506 8.2909610450862878 $353 $687 forward 7 unknown #
edge $-1 $357 -8.2909610450862878 $505 8.2909610450862878 $354 $688 forward 7 unknown #
point $-1 65.371868037965015 -34.687170654282738 8.2909610450862878 #
point $-1 65.371868037965015 34.687170654282738 8.2909610450862878 #
face $-1 $-1 $374 $52 $-1 $689 reversed single #
loop $-1 $-1 $370 $359 #
plane-surface $-1 0 -34.687170654282738 0 0 1 0 0 0 1 forward_v I I I I #
coedge $-1 $690 $691 $367 $534 forward $360 $-1 #
coedge $-1 $535 $362 $364 $530 reversed $223 $-1 #
edge $-1 $532 -4.598491259638128 $375 -1.598491259638128 $373 $692 forward 7 unknown #
coedge $-1 $364 $363 $693 $694 reversed $141 $-1 #
coedge $-1 $539 $538 $363 $529 forward $522 $-1 #
edge $-1 $695 -65.371868037965015 $531 65.371868037965015 $528 $696 forward 7 unknown #
edge $-1 $697 -65.371868037965015 $532 65.371868037965015 $525 $698 forward 7 unknown #
vertex $-1 $529 $699 #
vertex $-1 $366 $700 #
straight-curve $-1 65.371868037965015 -14.708852669604964 -7.696982519276256 0 1 0 I I #
edge $-1 $540 -19.978317984677773 $536 -9.4393873545321529 $524 $701 forward 7 unknown #
coedge $-1 $368 $525 $690 $702 reversed $223 $-1 #
vertex $-1 $534 $703 #
straight-curve $-1 0 -24.148240024137117 -4.696982519276256 -1 0 0 I I #
coedge $-1 $528 $370 $691 $704 forward $522 $-1 #
coedge $-1 $370 $528 $372 $542 reversed $522 $-1 #
vertex $-1 $704 $705 #
straight-curve $-1 0 -34.687170654282738 -4.696982519276256 -1 0 0 I I #
edge $-1 $376 4.696982519276256 $531 7.696982519276256 $372 $706 forward 7 unknown #
point $-1 65.371868037965015 -24.148240024137117 -4.696982519276256 #
point $-1 65.371868037965015 -34.687170654282738 -4.696982519276256 #
plane-surface $-1 65.371868037965015 0 0 -1 0 0 0 0 1 forward_v I I I I #
coedge $-1 $556 $555 $548 $707 forward $379 $-1 #
coedge $-1 $548 $381 $383 $552 reversed $231 $-1 #
coedge $-1 $381 $547 $546 $707 reversed $231 $-1 #
coedge $-1 $389 $384 $381 $550 forward $390 $-1 #
edge $-1 $553 -91.854724671411219 $708 -84.725717899845279 $549 $709 forward 7 unknown #
coedge $-1 $383 $382 $556 $710 reversed $145 $-1 #
edge $-1 $711 120.83325053549687 $553 130.74373607593003 $547 $712 forward 7 unknown #
vertex $-1 $385 $713 #
straight-curve $-1 65.371868037965015 -7.9426230080921307 1.1619542735203581 0 1 0 I I #
coedge $-1 $546 $386 $389 $560 forward $379 $-1 #
coedge $-1 $386 $546 $551 $710 forward $379 $-1 #
vertex $-1 $387 $714 #
straight-curve $-1 34.299406292386649 -24.148240024137117 8.2909610450862914 1 0 0 I I #
straight-curve $-1 -25.45036149680223 -24.148240024137117 95.21112835509588 -0.69465836192734942 0 0.71933980857756763 I I #
edge $-1 $391 -24.148240024137117 $708 -7.6222520082314063 $389 $715 forward 7 unknown #
point $-1 65.371868037965015 -24.148240024137117 8.2909610450862878 #
point $-1 65.371868037965029 -24.148240024137117 1.161954273520351 #
edge $-1 $716 1 $716 0 $394 $-1 forward 7 unknown #
vertex $-1 $395 $717 #
ellipse-curve $-1 57.906000795574705 -19.426529162449771 0.84084825937374363 0.71933980857756763 0 0.69465836192734942 1.3893167238546988 0 -1.4386796171551353 1 I I #
point $-1 63.318983936108715 -19.426529162449771 3.2877780421481804 #
edge $-1 $718 1 $718 0 $398 $-1 forward 7 unknown #
vertex $-1 $399 $719 #
ellipse-curve $-1 57.906000795574705 -12.343962869918752 0.84084825937374363 0.71933980857756763 0 0.69465836192734942 1.3893167238546988 0 -1.4386796171551353 1 I I #
point $-1 63.318983936108715 -12.343962869918752 3.2877780421481804 #
plane-surface $-1 0 0 8.2909610450862878 0 0 1 1 0 0 forward_v I I I I #
coedge $-1 $582 $581 $574 $720 forward $403 $-1 #
coedge $-1 $574 $405 $407 $578 reversed $253 $-1 #
coedge $-1 $405 $573 $572 $720 reversed $253 $-1 #
coedge $-1 $413 $408 $405 $576 forward $414 $-1 #
edge $-1 $579 -15.145501450422138 $721 -11.897573307195074 $575 $722 forward 7 unknown #
coedge $-1 $407 $406 $582 $723 reversed $159 $-1 #
edge $-1 $724 -3.8958409169770864e-014 $579 4.4409813878232054 $573 $725 forward 7 unknown #
vertex $-1 $409 $726 #
straight-curve $-1 -62.123939894737958 -6.8155390909418418 8.2909610450862861 0 1 0 I I #
coedge $-1 $572 $410 $413 $586 reversed $403 $-1 #
coedge $-1 $410 $572 $577 $723 forward $403 $-1 #
vertex $-1 $411 $727 #
straight-curve $-1 -65.371868037965015 -17.822769009235216 50.441066669790231 0 0 1 I I #
straight-curve $-1 -65.371868037964987 -17.822769009235216 5.2622189855133854 -0.7313536940579346 0 -0.68199836817093118 I I #
edge $-1 $721 9.4393873545321512 $415 17.822769009235216 $581 $728 forward 7 unknown #
point $-1 -65.371868037965015 -17.822769009235216 8.2909610450862878 #
point $-1 -62.123939894737951 -17.822769009235216 8.2909610450862878 #
edge $-1 $729 1 $729 0 $418 $-1 forward 7 unknown #
vertex $-1 $419 $730 #
ellipse-curve $-1 -62.519986374609438 -15.427517107891482 5.4598096406960588 -0.68199836817093118 0 0.7313536940579346 0.7313536940579346 0 0.68199836817093118 1 I I #
point $-1 -63.016550272293564 -15.427517107891482 7.4585883834707651 #
edge $-1 $731 1 $731 0 $422 $-1 forward 7 unknown #
vertex $-1 $423 $732 #
ellipse-curve $-1 -62.519986374609438 -11.834639255875882 5.4598096406960588 -0.68199836817093118 0 0.7313536940579346 0.7313536940579346 0 0.68199836817093118 1 I I #
point $-1 -63.016550272293564 -11.834639255875882 7.4585883834707651 #
loop $-1 $-1 $434 $426 #
plane-surface $-1 -65.371868037965015 0 0 1 0 0 0 0 -1 forward_v I I I I #
coedge $-1 $600 $429 $431 $604 reversed $275 $-1 #
coedge $-1 $429 $599 $733 $734 reversed $275 $-1 #
coedge $-1 $437 $432 $429 $602 forward $427 $-1 #
edge $-1 $605 -15.145501450422138 $735 -11.897573307195074 $601 $736 forward 7 unknown #
coedge $-1 $431 $430 $608 $737 reversed $173 $-1 #
edge $-1 $738 -3.8958409169770864e-014 $605 4.4409813878232054 $599 $739 forward 7 unknown #
vertex $-1 $433 $740 #
straight-curve $-1 -62.123939894737958 0.53888724386063913 8.2909610450862861 0 1 0 I I #
coedge $-1 $733 $434 $437 $612 reversed $597 $-1 #
coedge $-1 $434 $733 $603 $737 forward $597 $-1 #
vertex $-1 $435 $741 #
straight-curve $-1 -65.371868037965015 -3.1139163396302543 50.441066669790231 0 0 1 I I #
straight-curve $-1 -65.371868037964987 -3.1139163396302543 5.2622189855133854 -0.7313536940579346 0 -0.68199836817093118 I I #
edge $-1 $735 -5.2694653150728108 $438 3.1139163396302543 $607 $742 forward 7 unknown #
point $-1 -65.371868037965015 -3.1139163396302543 8.2909610450862878 #
point $-1 -62.123939894737951 -3.1139163396302543 8.2909610450862878 #
edge $-1 $743 1 $743 0 $441 $-1 forward 7 unknown #
vertex $-1 $442 $744 #
ellipse-curve $-1 -62.519986374609438 -0.71866443828651683 5.4598096406960588 -0.68199836817093118 0 0.7313536940579346 0.7313536940579346 0 0.68199836817093118 1 I I #
point $-1 -63.016550272293564 -0.71866443828651683 7.4585883834707651 #
edge $-1 $745 1 $745 0 $445 $-1 forward 7 unknown #
vertex $-1 $446 $746 #
ellipse-curve $-1 -62.519986374609438 2.8742134137290805 5.4598096406960588 -0.68199836817093118 0 0.7313536940579346 0.7313536940579346 0 0.68199836817093118 1 I I #
point $-1 -63.016550272293564 2.8742134137290805 7.4585883834707651 #
loop $-1 $-1 $457 $449 #
plane-surface $-1 -65.371868037965015 0 0 1 0 0 0 0 -1 forward_v I I I I #
coedge $-1 $626 $452 $454 $630 reversed $297 $-1 #
coedge $-1 $452 $625 $747 $748 reversed $297 $-1 #
coedge $-1 $460 $455 $452 $628 forward $450 $-1 #
edge $-1 $631 -15.145501450422138 $749 -11.897573307195074 $627 $750 forward 7 unknown #
coedge $-1 $454 $453 $634 $751 reversed $187 $-1 #
edge $-1 $752 -3.8958409169770864e-014 $631 4.4409813878232054 $625 $753 forward 7 unknown #
vertex $-1 $456 $754 #
straight-curve $-1 -62.123939894737958 7.8933135786631219 8.2909610450862861 0 1 0 I I #
coedge $-1 $747 $457 $460 $638 reversed $623 $-1 #
coedge $-1 $457 $747 $629 $751 forward $623 $-1 #
vertex $-1 $458 $755 #
straight-curve $-1 -65.371868037965015 11.594936329974711 50.441066669790231 0 0 1 I I #
straight-curve $-1 -65.371868037964987 11.594936329974711 5.2622189855133854 -0.7313536940579346 0 -0.68199836817093118 I I #
edge $-1 $749 -19.978317984677776 $461 -11.594936329974711 $633 $756 forward 7 unknown #
point $-1 -65.371868037965015 11.594936329974711 8.2909610450862878 #
point $-1 -62.123939894737951 11.594936329974711 8.2909610450862878 #
edge $-1 $757 1 $757 0 $464 $-1 forward 7 unknown #
vertex $-1 $465 $758 #
ellipse-curve $-1 -62.519986374609438 13.990188231318449 5.4598096406960588 -0.68199836817093118 0 0.7313536940579346 0.7313536940579346 0 0.68199836817093118 1 I I #
point $-1 -63.016550272293564 13.990188231318449 7.4585883834707651 #
edge $-1 $759 1 $759 0 $468 $-1 forward 7 unknown #
vertex $-1 $469 $760 #
ellipse-curve $-1 -62.519986374609438 17.583066083334046 5.4598096406960588 -0.68199836817093118 0 0.7313536940579346 0.7313536940579346 0 0.68199836817093118 1 I I #
point $-1 -63.016550272293564 17.583066083334046 7.4585883834707651 #
loop $-1 $-1 $479 $472 #
plane-surface $-1 -65.371868037965015 0 0 1 0 0 0 0 -1 forward_v I I I I #
coedge $-1 $761 $762 $476 $653 forward $473 $-1 #
coedge $-1 $476 $475 $658 $763 reversed $201 $-1 #
edge $-1 $655 17.669584820154441 $764 22.110566207977687 $651 $765 forward 7 unknown #
coedge $-1 $482 $477 $762 $766 forward $319 $-1 #
vertex $-1 $766 $767 #
straight-curve $-1 -62.123939894737958 15.247739913465601 8.2909610450862861 0 1 0 I I #
coedge $-1 $768 $479 $482 $662 reversed $649 $-1 #
coedge $-1 $479 $768 $652 $763 forward $649 $-1 #
vertex $-1 $480 $769 #
straight-curve $-1 -65.371868037965015 26.30378899957967 50.441066669790231 0 0 1 I I #
straight-curve $-1 -65.371868037964987 26.30378899957967 5.2622189855133854 -0.7313536940579346 0 -0.68199836817093118 I I #
edge $-1 $770 -34.687170654282738 $483 -26.30378899957967 $657 $771 forward 7 unknown #
point $-1 -65.371868037965015 26.30378899957967 8.2909610450862878 #
point $-1 -62.123939894737951 26.30378899957967 8.2909610450862878 #
edge $-1 $772 1 $772 0 $486 $-1 forward 7 unknown #
vertex $-1 $487 $773 #
ellipse-curve $-1 -62.519986374609438 28.699040900923414 5.4598096406960588 -0.68199836817093118 0 0.7313536940579346 0.7313536940579346 0 0.68199836817093118 1 I I #
point $-1 -63.016550272293564 28.699040900923414 7.4585883834707651 #
edge $-1 $774 1 $774 0 $490 $-1 forward 7 unknown #
vertex $-1 $491 $775 #
ellipse-curve $-1 -62.519986374609438 32.291918752939011 5.4598096406960588 -0.68199836817093118 0 0.7313536940579346 0.7313536940579346 0 0.68199836817093118 1 I I #
point $-1 -63.016550272293564 32.291918752939011 7.4585883834707651 #
plane-surface $-1 65.371868037965015 0 0 -1 0 0 0 0 1 forward_v I I I I #
coedge $-1 $499 $497 $501 $678 reversed $341 $-1 #
edge $-1 $512 -8.2909610450862878 $680 8.2909610450862878 $511 $776 forward 7 unknown #
vertex $-1 $678 $777 #
straight-curve $-1 -65.371868037965015 -34.687170654282738 0 0 0 -1 I I #
edge $-1 $676 -34.687170654282738 $680 34.687170654282738 $674 $778 forward 7 unknown #
straight-curve $-1 0 -34.687170654282738 -8.2909610450862878 -1 0 0 I I #
vertex $-1 $504 $779 #
straight-curve $-1 0 34.687170654282738 -8.2909610450862878 1 0 0 I I #
point $-1 65.371868037965015 34.687170654282738 -8.2909610450862878 #
point $-1 65.371868037965015 -34.687170654282738 -8.2909610450862878 #
straight-curve $-1 -65.371868037965015 0 8.2909610450862878 0 -1 0 I I #
point $-1 -65.371868037965015 34.687170654282738 8.2909610450862878 #
point $-1 -65.371868037965015 -34.687170654282738 8.2909610450862878 #
straight-curve $-1 65.371868037965015 -34.687170654282738 0 0 0 -1 I I #
straight-curve $-1 65.371868037965015 34.687170654282738 0 0 0 -1 I I #
plane-surface $-1 65.371868037965015 0 0 -1 0 0 0 0 1 forward_v I I I I #
coedge $-1 $693 $524 $535 $702 forward $360 $-1 #
coedge $-1 $524 $693 $538 $704 reversed $360 $-1 #
straight-curve $-1 65.371868037965015 -24.148240024137117 -3.098491259638128 0 0 1 I I #
coedge $-1 $691 $690 $527 $694 forward $360 $-1 #
edge $-1 $697 9.4393873545321529 $695 19.978317984677773 $693 $780 forward 7 unknown #
vertex $-1 $529 $781 #
straight-curve $-1 0 -34.687170654282738 -7.696982519276256 1 0 0 I I #
vertex $-1 $694 $782 #
straight-curve $-1 0 -24.148240024137117 -7.696982519276256 1 0 0 I I #
point $-1 65.371868037965015 -34.687170654282738 -7.696982519276256 #
point $-1 65.371868037965015 -24.148240024137117 -7.696982519276256 #
straight-curve $-1 -65.371868037965015 -14.708852669604964 -4.696982519276256 0 1 0 I I #
edge $-1 $536 1.598491259638128 $697 4.598491259638128 $690 $783 forward 7 unknown #
point $-1 -65.371868037965015 -24.148240024137117 -4.696982519276256 #
edge $-1 $540 4.696982519276256 $695 7.696982519276256 $691 $784 forward 7 unknown #
point $-1 -65.371868037965015 -34.687170654282738 -4.696982519276256 #
straight-curve $-1 65.371868037965015 -34.687170654282738 0 0 0 -1 I I #
edge $-1 $708 -31.072461745578366 $711 -24.188060094156398 $546 $785 forward 7 unknown #
vertex $-1 $707 $786 #
straight-curve $-1 65.371868037965015 -7.6222520082314063 93.01667894493157 0 0 1 I I #
edge $-1 $711 -0.32037099986072448 $557 16.205617016044986 $556 $787 forward 7 unknown #
vertex $-1 $710 $788 #
straight-curve $-1 -25.45036149680223 -7.6222520082314063 95.21112835509588 0.69465836192734942 0 -0.71933980857756763 I I #
point $-1 65.371868037965029 -7.6222520082314063 1.161954273520351 #
point $-1 58.487466386543048 -24.148240024137117 8.2909610450862914 #
straight-curve $-1 65.371868037965015 0 8.2909610450862878 0 1 0 I I #
vertex $-1 $563 $789 #
point $-1 59.295317519429403 -19.426529162449771 -0.59783135778139163 #
vertex $-1 $567 $790 #
point $-1 59.295317519429403 -12.343962869918752 -0.59783135778139163 #
edge $-1 $721 42.15010562470394 $724 45.178847684276874 $572 $791 forward 7 unknown #
vertex $-1 $586 $792 #
straight-curve $-1 -77.269441345160089 -9.4393873545321512 8.2909610450862843 -1 0 0 I I #
edge $-1 $724 2.6238482635903093 $583 11.007229918293374 $582 $793 forward 7 unknown #
vertex $-1 $723 $794 #
straight-curve $-1 -65.371868037964987 -9.4393873545321512 5.2622189855133854 0.7313536940579346 0 0.68199836817093118 I I #
point $-1 -62.123939894737951 -9.4393873545321512 8.2909610450862878 #
point $-1 -65.371868037965015 -17.822769009235216 5.2622189855133588 #
straight-curve $-1 -65.371868037965015 0 8.2909610450862878 0 -1 0 I I #
vertex $-1 $589 $795 #
point $-1 -61.788632680551501 -15.427517107891482 6.14180800886699 #
vertex $-1 $593 $796 #
point $-1 -61.788632680551501 -11.834639255875882 6.14180800886699 #
coedge $-1 $608 $607 $600 $734 forward $597 $-1 #
edge $-1 $735 42.15010562470394 $738 45.178847684276874 $733 $797 forward 7 unknown #
vertex $-1 $612 $798 #
straight-curve $-1 -77.269441345160089 5.2694653150728108 8.2909610450862843 -1 0 0 I I #
edge $-1 $738 -4.7305780712121717 $609 3.6528035834908934 $608 $799 forward 7 unknown #
vertex $-1 $737 $800 #
straight-curve $-1 -65.371868037964987 5.2694653150728108 5.2622189855133854 0.7313536940579346 0 0.68199836817093118 I I #
point $-1 -62.123939894737951 5.2694653150728108 8.2909610450862878 #
point $-1 -65.371868037965015 -3.1139163396302543 5.2622189855133588 #
straight-curve $-1 -65.371868037965015 0 8.2909610450862878 0 -1 0 I I #
vertex $-1 $615 $801 #
point $-1 -61.788632680551501 -0.71866443828651683 6.14180800886699 #
vertex $-1 $619 $802 #
point $-1 -61.788632680551501 2.8742134137290805 6.14180800886699 #
coedge $-1 $634 $633 $626 $748 forward $623 $-1 #
edge $-1 $749 42.15010562470394 $752 45.178847684276874 $747 $803 forward 7 unknown #
vertex $-1 $638 $804 #
straight-curve $-1 -77.269441345160089 19.978317984677776 8.2909610450862843 -1 0 0 I I #
edge $-1 $752 -12.085004406014654 $635 -3.7016227513115894 $634 $805 forward 7 unknown #
vertex $-1 $751 $806 #
straight-curve $-1 -65.371868037964987 19.978317984677776 5.2622189855133854 0.7313536940579346 0 0.68199836817093118 I I #
point $-1 -62.123939894737951 19.978317984677776 8.2909610450862878 #
point $-1 -65.371868037965015 11.594936329974711 5.2622189855133588 #
straight-curve $-1 -65.371868037965015 0 8.2909610450862878 0 -1 0 I I #
vertex $-1 $641 $807 #
point $-1 -61.788632680551501 13.990188231318449 6.14180800886699 #
vertex $-1 $645 $808 #
point $-1 -61.788632680551501 17.583066083334046 6.14180800886699 #
coedge $-1 $762 $651 $768 $809 reversed $473 $-1 #
coedge $-1 $651 $761 $654 $766 reversed $473 $-1 #
edge $-1 $764 -19.439430740817137 $659 -11.056049086114069 $658 $810 forward 7 unknown #
vertex $-1 $653 $811 #
straight-curve $-1 -49.201223764047995 34.687170654282738 20.341589058689475 -0.7313536940579346 0 -0.68199836817093118 I I #
edge $-1 $655 62.123939894737951 $770 65.371868037965015 $762 $812 forward 7 unknown #
point $-1 -62.123939894737951 34.687170654282738 8.2909610450862878 #
coedge $-1 $658 $657 $761 $809 forward $649 $-1 #
point $-1 -65.371868037965015 26.30378899957967 5.2622189855133588 #
vertex $-1 $766 $813 #
straight-curve $-1 -65.371868037965015 0 8.2909610450862878 0 -1 0 I I #
vertex $-1 $665 $814 #
point $-1 -61.788632680551501 28.699040900923414 6.14180800886699 #
vertex $-1 $669 $815 #
point $-1 -61.788632680551501 32.291918752939011 6.14180800886699 #
straight-curve $-1 -65.371868037965015 34.687170654282738 0 0 0 -1 I I #
point $-1 -65.371868037965015 -34.687170654282738 -8.2909610450862878 #
straight-curve $-1 -65.371868037965015 0 -8.2909610450862878 0 1 0 I I #
point $-1 -65.371868037965015 34.687170654282738 -8.2909610450862878 #
straight-curve $-1 -65.371868037965015 -14.708852669604964 -7.696982519276256 0 -1 0 I I #
point $-1 -65.371868037965015 -34.687170654282738 -7.696982519276256 #
point $-1 -65.371868037965015 -24.148240024137117 -7.696982519276256 #
straight-curve $-1 -65.371868037965015 -24.148240024137117 -3.098491259638128 0 0 -1 I I #
straight-curve $-1 -65.371868037965015 -34.687170654282738 0 0 0 -1 I I #
straight-curve $-1 34.299406292386649 -7.6222520082314063 8.2909610450862914 -1 0 0 I I #
point $-1 65.371868037965015 -7.6222520082314063 8.2909610450862878 #
straight-curve $-1 58.487466386543041 -7.9426230080921307 8.2909610450862914 0 -1 0 I I #
point $-1 58.487466386543048 -7.6222520082314063 8.2909610450862914 #
point $-1 56.467321178419574 -19.426529162449771 -0.54846846448095521 #
point $-1 56.467321178419574 -12.343962869918752 -0.54846846448095521 #
straight-curve $-1 -65.371868037965015 -9.4393873545321512 50.441066669790231 0 0 -1 I I #
point $-1 -65.371868037965015 -9.4393873545321512 8.2909610450862878 #
straight-curve $-1 -65.371868037965015 -6.8155390909418418 5.2622189855133543 0 -1 0 I I #
point $-1 -65.371868037965015 -9.4393873545321512 5.2622189855133588 #
point $-1 -61.837988006438501 -15.427517107891482 4.7284559466381237 #
point $-1 -61.837988006438501 -11.834639255875882 4.7284559466381237 #
straight-curve $-1 -65.371868037965015 5.2694653150728108 50.441066669790231 0 0 -1 I I #
point $-1 -65.371868037965015 5.2694653150728108 8.2909610450862878 #
straight-curve $-1 -65.371868037965015 0.53888724386063913 5.2622189855133543 0 -1 0 I I #
point $-1 -65.371868037965015 5.2694653150728108 5.2622189855133588 #
point $-1 -61.837988006438501 -0.71866443828651683 4.7284559466381237 #
point $-1 -61.837988006438501 2.8742134137290805 4.7284559466381237 #
straight-curve $-1 -65.371868037965015 19.978317984677776 50.441066669790231 0 0 -1 I I #
point $-1 -65.371868037965015 19.978317984677776 8.2909610450862878 #
straight-curve $-1 -65.371868037965015 7.8933135786631219 5.2622189855133543 0 -1 0 I I #
point $-1 -65.371868037965015 19.978317984677776 5.2622189855133588 #
point $-1 -61.837988006438501 13.990188231318449 4.7284559466381237 #
point $-1 -61.837988006438501 17.583066083334046 4.7284559466381237 #
edge $-1 $770 -8.2909610450862878 $764 -5.2622189855133588 $761 $816 forward 7 unknown #
straight-curve $-1 -65.371868037965015 15.247739913465601 5.2622189855133543 0 -1 0 I I #
point $-1 -65.371868037965015 34.687170654282738 5.2622189855133588 #
straight-curve $-1 0 34.687170654282738 8.2909610450862878 -1 0 0 I I #
point $-1 -65.371868037965015 34.687170654282738 8.2909610450862878 #
point $-1 -61.837988006438501 28.699040900923414 4.7284559466381237 #
point $-1 -61.837988006438501 32.291918752939011 4.7284559466381237 #
straight-curve $-1 -65.371868037965015 34.687170654282738 0 0 0 -1 I I #
End-of-ACIS-data 