500 0 14 0           
7 Unknown 11 ACIS 5.0 NT 24 Thu Mar 25 18:29:44 1999 
-1 9.9999999999999995e-007 1e-010 
body $-1 $14 $-1 $15 #
body $-1 $16 $-1 $17 #
body $-1 $18 $-1 $19 #
body $-1 $20 $-1 $21 #
body $-1 $22 $-1 $23 #
body $-1 $24 $-1 $25 #
body $-1 $26 $-1 $27 #
body $-1 $28 $-1 $29 #
body $-1 $30 $-1 $31 #
body $-1 $32 $-1 $33 #
body $-1 $34 $-1 $35 #
body $-1 $36 $-1 $37 #
body $-1 $38 $-1 $39 #
body $-1 $40 $-1 $41 #
lump $-1 $-1 $42 $0 #
transform $-1 1 0 0 0 1 0 0 0 1 52.373424481948305 35.960356945164875 11.588701596061984 1 rotate no_reflect no_shear #
lump $-1 $-1 $43 $1 #
transform $-1 1 0 0 0 1 0 0 0 1 52.373424481948305 35.960356945164875 11.588701596061984 1 rotate no_reflect no_shear #
lump $-1 $-1 $44 $2 #
transform $-1 1 0 0 0 1 0 0 0 1 52.373424481948305 35.960356945164875 11.588701596061984 1 rotate no_reflect no_shear #
lump $-1 $-1 $45 $3 #
transform $-1 1 0 0 0 1 0 0 0 1 52.373424481948305 35.960356945164875 11.588701596061984 1 rotate no_reflect no_shear #
lump $-1 $-1 $46 $4 #
transform $-1 1 0 0 0 1 0 0 0 1 52.373424481948305 35.960356945164875 11.588701596061984 1 rotate no_reflect no_shear #
lump $-1 $-1 $47 $5 #
transform $-1 1 0 0 0 1 0 0 0 1 52.373424481948305 35.960356945164875 11.588701596061984 1 rotate no_reflect no_shear #
lump $-1 $-1 $48 $6 #
transform $-1 1 0 0 0 1 0 0 0 1 52.373424481948305 35.960356945164875 11.588701596061984 1 rotate no_reflect no_shear #
lump $-1 $-1 $49 $7 #
transform $-1 1 0 0 0 1 0 0 0 1 52.373424481948305 35.960356945164875 11.588701596061984 1 rotate no_reflect no_shear #
lump $-1 $-1 $50 $8 #
transform $-1 1 0 0 0 1 0 0 0 1 52.373424481948305 35.960356945164875 11.588701596061984 1 rotate no_reflect no_shear #
lump $-1 $-1 $51 $9 #
transform $-1 1 0 0 0 1 0 0 0 1 52.373424481948305 35.960356945164875 11.588701596061984 1 rotate no_reflect no_shear #
lump $-1 $-1 $52 $10 #
transform $-1 1 0 0 0 1 0 0 0 1 52.373424481948305 35.960356945164875 11.588701596061984 1 rotate no_reflect no_shear #
lump $-1 $-1 $53 $11 #
transform $-1 1 0 0 0 1 0 0 0 1 52.373424481948305 35.960356945164875 11.588701596061984 1 rotate no_reflect no_shear #
lump $-1 $-1 $54 $12 #
transform $-1 1 0 0 0 1 0 0 0 1 52.373424481948305 35.960356945164875 11.588701596061984 1 rotate no_reflect no_shear #
lump $-1 $-1 $55 $13 #
transform $-1 1 0 0 0 1 0 0 0 1 52.373424481948305 35.960356945164875 11.588701596061984 1 rotate no_reflect no_shear #
shell $-1 $-1 $-1 $56 $-1 $14 #
shell $-1 $-1 $-1 $57 $-1 $16 #
shell $-1 $-1 $-1 $58 $-1 $18 #
shell $-1 $-1 $-1 $59 $-1 $20 #
shell $-1 $-1 $-1 $60 $-1 $22 #
shell $-1 $-1 $-1 $61 $-1 $24 #
shell $-1 $-1 $-1 $62 $-1 $26 #
shell $-1 $-1 $-1 $63 $-1 $28 #
shell $-1 $-1 $-1 $64 $-1 $30 #
shell $-1 $-1 $-1 $65 $-1 $32 #
shell $-1 $-1 $-1 $66 $-1 $34 #
shell $-1 $-1 $-1 $67 $-1 $36 #
shell $-1 $-1 $-1 $68 $-1 $38 #
shell $-1 $-1 $-1 $69 $-1 $40 #
face $-1 $70 $71 $42 $-1 $72 forward single #
face $-1 $73 $74 $43 $-1 $75 reversed single #
face $-1 $76 $77 $44 $-1 $78 reversed single #
face $-1 $79 $80 $45 $-1 $81 forward single #
face $-1 $82 $83 $46 $-1 $84 forward single #
face $-1 $85 $86 $47 $-1 $87 forward single #
face $-1 $88 $89 $48 $-1 $90 reversed single #
face $-1 $91 $92 $49 $-1 $93 forward single #
face $-1 $94 $95 $50 $-1 $96 reversed single #
face $-1 $97 $98 $51 $-1 $99 forward single #
face $-1 $100 $101 $52 $-1 $102 reversed single #
face $-1 $103 $104 $53 $-1 $105 forward single #
face $-1 $106 $107 $54 $-1 $108 reversed single #
face $-1 $109 $110 $55 $-1 $111 forward single #
face $-1 $112 $113 $42 $-1 $114 reversed single #
loop $-1 $-1 $115 $56 #
plane-surface $-1 0 0 11.588701596061984 0 0 1 1 0 0 forward_v I I I I #
face $-1 $116 $117 $43 $-1 $118 reversed single #
loop $-1 $-1 $119 $57 #
plane-surface $-1 -47.778159647792691 0 8.4019235998622683 0 0 1 1 0 0 forward_v I I I I #
face $-1 $120 $121 $44 $-1 $122 reversed single #
loop $-1 $-1 $123 $58 #
plane-surface $-1 36.071954428834104 88.704026458851828 120.01070483926677 1 0 0 0 -0.85716730853699208 -0.51503806187062418 forward_v I I I I #
face $-1 $124 $125 $45 $-1 $126 forward single #
loop $-1 $127 $128 $59 #
cone-surface $-1 39.332248439456947 32.918120415553162 7.4685463220820898 0 -0.85716730853699208 -0.51503806187062418 1 0 0 1 I I 0 1 1 forward I I I I #
face $-1 $129 $130 $46 $-1 $131 forward single #
loop $-1 $132 $133 $60 #
cone-surface $-1 44.222689455391205 32.918120415553162 7.4685463220820898 0 -0.85716730853699208 -0.51503806187062418 1 0 0 1 I I 0 1 1 forward I I I I #
face $-1 $134 $135 $47 $-1 $136 forward single #
loop $-1 $137 $138 $61 #
cone-surface $-1 49.113130471325462 32.918120415553162 7.4685463220820898 0 -0.85716730853699208 -0.51503806187062418 1 0 0 1 I I 0 1 1 forward I I I I #
face $-1 $139 $140 $48 $-1 $141 reversed single #
loop $-1 $-1 $142 $62 #
plane-surface $-1 -30.755280336079792 -116.20109939618023 67.632717731816584 -1 0 0 0 -0.7660444514056185 0.64278759981090561 forward_v I I I I #
face $-1 $143 $144 $49 $-1 $145 forward single #
loop $-1 $146 $147 $63 #
cone-surface $-1 -36.969087574858435 -29.621918030578477 4.6002954264283069 0 0.7660444514056185 -0.64278759981090561 2.5 0 0 1 I I 0 1 2.5 forward I I I I #
face $-1 $148 $149 $50 $-1 $150 reversed single #
loop $-1 $-1 $151 $64 #
plane-surface $-1 -6.8662005121834468 -116.20109939618023 67.632717731816584 -1 0 0 0 -0.7660444514056185 0.64278759981090561 forward_v I I I I #
face $-1 $152 $153 $51 $-1 $154 forward single #
loop $-1 $155 $156 $65 #
cone-surface $-1 -13.080007750962089 -29.621918030578477 4.6002954264283069 0 0.7660444514056185 -0.64278759981090561 2.5 0 0 1 I I 0 1 2.5 forward I I I I #
face $-1 $157 $158 $52 $-1 $159 reversed single #
loop $-1 $-1 $160 $66 #
plane-surface $-1 17.022879311712899 -116.20109939618023 67.632717731816584 -1 0 0 0 -0.7660444514056185 0.64278759981090561 forward_v I I I I #
face $-1 $161 $162 $53 $-1 $163 forward single #
loop $-1 $164 $165 $67 #
cone-surface $-1 10.809072072934256 -29.621918030578477 4.6002954264283069 0 0.7660444514056185 -0.64278759981090561 2.5 0 0 1 I I 0 1 2.5 forward I I I I #
face $-1 $166 $167 $54 $-1 $168 reversed single #
loop $-1 $-1 $169 $68 #
plane-surface $-1 40.911959135609237 -116.20109939618023 67.632717731816584 -1 0 0 0 -0.7660444514056185 0.64278759981090561 forward_v I I I I #
face $-1 $170 $171 $55 $-1 $172 forward single #
loop $-1 $173 $174 $69 #
cone-surface $-1 34.698151896830595 -29.621918030578477 4.6002954264283069 0 0.7660444514056185 -0.64278759981090561 2.5 0 0 1 I I 0 1 2.5 forward I I I I #
face $-1 $175 $176 $42 $-1 $177 reversed single #
loop $-1 $-1 $178 $70 #
plane-surface $-1 0 0 -11.588701596061984 0 0 1 1 0 0 forward_v I I I I #
coedge $-1 $179 $180 $181 $182 forward $71 $-1 #
face $-1 $183 $184 $43 $-1 $185 reversed single #
loop $-1 $-1 $186 $73 #
plane-surface $-1 -43.182894813637077 0 9.9953125979621262 -1 0 0 0 0 1 forward_v I I I I #
coedge $-1 $187 $188 $186 $189 forward $74 $-1 #
face $-1 $190 $191 $44 $-1 $192 forward single #
loop $-1 $-1 $193 $76 #
plane-surface $-1 44.222689455391205 -1.0815481452622464 66.062090761846463 0 0.85716730853699208 0.51503806187062418 1 0 0 forward_v I I I I #
coedge $-1 $194 $195 $196 $197 reversed $77 $-1 #
face $-1 $-1 $198 $45 $-1 $199 forward single #
loop $-1 $200 $201 $79 #
cone-surface $-1 39.332248439456947 31.602796173463602 6.6782198109911484 0 -0.85716730853699208 -0.51503806187062418 0.5 0 0 1 I I -0.70710678118654746 0.70710678118654746 0.5 forward I I I I #
loop $-1 $-1 $202 $59 #
coedge $-1 $128 $128 $203 $204 reversed $80 $-1 #
face $-1 $-1 $205 $46 $-1 $206 forward single #
loop $-1 $207 $208 $82 #
cone-surface $-1 44.222689455391205 31.602796173463602 6.6782198109911484 0 -0.85716730853699208 -0.51503806187062418 0.5 0 0 1 I I -0.70710678118654746 0.70710678118654746 0.5 forward I I I I #
loop $-1 $-1 $209 $60 #
coedge $-1 $133 $133 $210 $211 reversed $83 $-1 #
face $-1 $-1 $212 $47 $-1 $213 forward single #
loop $-1 $214 $215 $85 #
cone-surface $-1 49.113130471325462 31.602796173463602 6.6782198109911484 0 -0.85716730853699208 -0.51503806187062418 0.5 0 0 1 I I -0.70710678118654746 0.70710678118654746 0.5 forward I I I I #
loop $-1 $-1 $216 $61 #
coedge $-1 $138 $138 $217 $218 reversed $86 $-1 #
face $-1 $219 $220 $48 $-1 $221 forward single #
loop $-1 $-1 $222 $88 #
plane-surface $-1 -36.969087574858435 -35.960356945164875 0.30274209855804202 0 -0.7660444514056185 0.64278759981090561 1 0 0 forward_v I I I I #
coedge $-1 $223 $224 $225 $226 reversed $89 $-1 #
face $-1 $-1 $227 $49 $-1 $228 forward single #
loop $-1 $229 $230 $91 #
cone-surface $-1 -36.969087574858435 -27.060945653685135 2.4513845057829666 0 0.7660444514056185 -0.64278759981090561 1.25 0 0 1 I I -0.70710678118654746 0.70710678118654746 1.25 forward I I I I #
loop $-1 $-1 $231 $63 #
coedge $-1 $147 $147 $232 $233 reversed $92 $-1 #
face $-1 $234 $235 $50 $-1 $236 reversed single #
loop $-1 $-1 $237 $94 #
plane-surface $-1 -13.080007750962089 -35.960356945164875 0.30274209855804202 0 -0.7660444514056185 0.64278759981090561 1 0 0 forward_v I I I I #
coedge $-1 $238 $239 $240 $241 reversed $95 $-1 #
face $-1 $-1 $242 $51 $-1 $243 forward single #
loop $-1 $244 $245 $97 #
cone-surface $-1 -13.080007750962089 -27.060945653685135 2.4513845057829666 0 0.7660444514056185 -0.64278759981090561 1.25 0 0 1 I I -0.70710678118654746 0.70710678118654746 1.25 forward I I I I #
loop $-1 $-1 $246 $65 #
coedge $-1 $156 $156 $247 $248 reversed $98 $-1 #
face $-1 $249 $250 $52 $-1 $251 reversed single #
loop $-1 $-1 $252 $100 #
plane-surface $-1 10.809072072934256 -35.960356945164875 0.30274209855804202 0 -0.7660444514056185 0.64278759981090561 1 0 0 forward_v I I I I #
coedge $-1 $253 $254 $255 $256 reversed $101 $-1 #
face $-1 $-1 $257 $53 $-1 $258 forward single #
loop $-1 $259 $260 $103 #
cone-surface $-1 10.809072072934256 -27.060945653685135 2.4513845057829666 0 0.7660444514056185 -0.64278759981090561 1.25 0 0 1 I I -0.70710678118654746 0.70710678118654746 1.25 forward I I I I #
loop $-1 $-1 $261 $67 #
coedge $-1 $165 $165 $262 $263 reversed $104 $-1 #
face $-1 $264 $265 $54 $-1 $266 reversed single #
loop $-1 $-1 $267 $106 #
plane-surface $-1 34.698151896830595 -35.960356945164875 0.30274209855804202 0 -0.7660444514056185 0.64278759981090561 1 0 0 forward_v I I I I #
coedge $-1 $268 $269 $270 $271 reversed $107 $-1 #
face $-1 $-1 $272 $55 $-1 $273 forward single #
loop $-1 $274 $275 $109 #
cone-surface $-1 34.698151896830595 -27.060945653685135 2.4513845057829666 0 0.7660444514056185 -0.64278759981090561 1.25 0 0 1 I I -0.70710678118654746 0.70710678118654746 1.25 forward I I I I #
loop $-1 $-1 $276 $69 #
coedge $-1 $174 $174 $277 $278 reversed $110 $-1 #
face $-1 $279 $280 $42 $-1 $281 reversed single #
loop $-1 $-1 $282 $112 #
plane-surface $-1 0 -35.960356945164875 0 0 1 0 0 0 1 forward_v I I I I #
coedge $-1 $283 $284 $285 $286 forward $113 $-1 #
coedge $-1 $287 $115 $288 $289 forward $71 $-1 #
coedge $-1 $115 $287 $290 $291 forward $71 $-1 #
coedge $-1 $292 $293 $115 $182 reversed $294 $-1 #
edge $-1 $295 -35.960356945164875 $296 35.960356945164875 $181 $297 forward 7 unknown #
face $-1 $298 $299 $43 $-1 $300 reversed single #
loop $-1 $-1 $301 $116 #
plane-surface $-1 0 35.960356945164875 0 0 -1 0 0 0 -1 forward_v I I I I #
coedge $-1 $302 $303 $119 $189 reversed $117 $-1 #
coedge $-1 $304 $119 $305 $306 reversed $74 $-1 #
coedge $-1 $119 $304 $307 $308 reversed $74 $-1 #
edge $-1 $309 -35.960356945164875 $310 35.960356945164875 $186 $311 forward 7 unknown #
face $-1 $312 $313 $44 $-1 $314 reversed single #
loop $-1 $-1 $196 $120 #
plane-surface $-1 0 0 11.588701596061984 0 0 1 1 0 0 forward_v I I I I #
coedge $-1 $315 $316 $317 $318 reversed $121 $-1 #
coedge $-1 $195 $123 $319 $320 reversed $77 $-1 #
coedge $-1 $123 $194 $315 $321 reversed $77 $-1 #
coedge $-1 $317 $322 $123 $197 forward $191 $-1 #
edge $-1 $323 8.3916562842610389 $324 12.702648167842369 $196 $325 forward 7 unknown #
loop $-1 $-1 $203 $124 #
plane-surface $-1 44.222689455391205 -1.0815481452622464 66.062090761846463 0 0.85716730853699208 0.51503806187062418 1 0 0 forward_v I I I I #
loop $-1 $-1 $326 $79 #
coedge $-1 $201 $201 $202 $327 reversed $125 $-1 #
coedge $-1 $202 $202 $201 $327 forward $127 $-1 #
coedge $-1 $203 $203 $128 $204 forward $198 $-1 #
edge $-1 $328 1.2285910259226982e-015 $328 6.2831853071796013 $203 $329 forward 7 unknown #
loop $-1 $-1 $210 $129 #
plane-surface $-1 44.222689455391205 -1.0815481452622464 66.062090761846463 0 0.85716730853699208 0.51503806187062418 1 0 0 forward_v I I I I #
loop $-1 $-1 $330 $82 #
coedge $-1 $208 $208 $209 $331 reversed $130 $-1 #
coedge $-1 $209 $209 $208 $331 forward $132 $-1 #
coedge $-1 $210 $210 $133 $211 forward $205 $-1 #
edge $-1 $332 1.2285910259226982e-015 $332 6.2831853071796013 $210 $333 forward 7 unknown #
loop $-1 $-1 $217 $134 #
plane-surface $-1 44.222689455391205 -1.0815481452622464 66.062090761846463 0 0.85716730853699208 0.51503806187062418 1 0 0 forward_v I I I I #
loop $-1 $-1 $334 $85 #
coedge $-1 $215 $215 $216 $335 reversed $135 $-1 #
coedge $-1 $216 $216 $215 $335 forward $137 $-1 #
coedge $-1 $217 $217 $138 $218 forward $212 $-1 #
edge $-1 $336 1.2285910259226982e-015 $336 6.2831853071796013 $217 $337 forward 7 unknown #
face $-1 $338 $339 $48 $-1 $340 forward single #
loop $-1 $-1 $341 $139 #
plane-surface $-1 -43.182894813637077 0 9.9953125979621262 -1 0 0 0 0 1 forward_v I I I I #
coedge $-1 $342 $343 $344 $345 reversed $140 $-1 #
coedge $-1 $224 $142 $346 $347 reversed $89 $-1 #
coedge $-1 $142 $223 $342 $348 reversed $89 $-1 #
coedge $-1 $344 $349 $142 $226 forward $339 $-1 #
edge $-1 $350 22.140192752925238 $351 31.610236956825396 $225 $352 forward 7 unknown #
loop $-1 $-1 $232 $143 #
plane-surface $-1 -36.969087574858435 -35.960356945164875 0.30274209855804202 0 -0.7660444514056185 0.64278759981090561 1 0 0 forward_v I I I I #
loop $-1 $-1 $353 $91 #
coedge $-1 $230 $230 $231 $354 reversed $144 $-1 #
coedge $-1 $231 $231 $230 $354 forward $146 $-1 #
coedge $-1 $232 $232 $147 $233 forward $227 $-1 #
edge $-1 $355 -9.6995139041228759e-017 $355 6.2831853071796004 $232 $356 forward 7 unknown #
face $-1 $357 $358 $50 $-1 $359 reversed single #
loop $-1 $-1 $360 $148 #
plane-surface $-1 -19.293814989740731 -116.20109939618023 67.632717731816584 1 0 0 0 0.7660444514056185 -0.64278759981090561 forward_v I I I I #
coedge $-1 $361 $362 $363 $364 reversed $149 $-1 #
coedge $-1 $239 $151 $365 $366 reversed $95 $-1 #
coedge $-1 $151 $238 $361 $367 reversed $95 $-1 #
coedge $-1 $363 $368 $151 $241 forward $369 $-1 #
edge $-1 $370 22.140192752925238 $371 31.610236956825396 $240 $372 forward 7 unknown #
loop $-1 $-1 $247 $152 #
plane-surface $-1 -13.080007750962089 -35.960356945164875 0.30274209855804202 0 -0.7660444514056185 0.64278759981090561 1 0 0 forward_v I I I I #
loop $-1 $-1 $373 $97 #
coedge $-1 $245 $245 $246 $374 reversed $153 $-1 #
coedge $-1 $246 $246 $245 $374 forward $155 $-1 #
coedge $-1 $247 $247 $156 $248 forward $242 $-1 #
edge $-1 $375 -9.6995139041228759e-017 $375 6.2831853071796004 $247 $376 forward 7 unknown #
face $-1 $377 $378 $52 $-1 $379 reversed single #
loop $-1 $-1 $380 $157 #
plane-surface $-1 4.5952648341556142 -116.20109939618023 67.632717731816584 1 0 0 0 0.7660444514056185 -0.64278759981090561 forward_v I I I I #
coedge $-1 $381 $382 $383 $384 reversed $158 $-1 #
coedge $-1 $254 $160 $385 $386 reversed $101 $-1 #
coedge $-1 $160 $253 $381 $387 reversed $101 $-1 #
coedge $-1 $383 $388 $160 $256 forward $389 $-1 #
edge $-1 $390 22.140192752925238 $391 31.610236956825396 $255 $392 forward 7 unknown #
loop $-1 $-1 $262 $161 #
plane-surface $-1 10.809072072934256 -35.960356945164875 0.30274209855804202 0 -0.7660444514056185 0.64278759981090561 1 0 0 forward_v I I I I #
loop $-1 $-1 $393 $103 #
coedge $-1 $260 $260 $261 $394 reversed $162 $-1 #
coedge $-1 $261 $261 $260 $394 forward $164 $-1 #
coedge $-1 $262 $262 $165 $263 forward $257 $-1 #
edge $-1 $395 -9.6995139041228759e-017 $395 6.2831853071796004 $262 $396 forward 7 unknown #
face $-1 $397 $398 $54 $-1 $399 reversed single #
loop $-1 $-1 $400 $166 #
plane-surface $-1 28.484344658051953 -116.20109939618023 67.632717731816584 1 0 0 0 0.7660444514056185 -0.64278759981090561 forward_v I I I I #
coedge $-1 $401 $402 $403 $404 reversed $167 $-1 #
coedge $-1 $269 $169 $405 $406 reversed $107 $-1 #
coedge $-1 $169 $268 $401 $407 reversed $107 $-1 #
coedge $-1 $403 $408 $169 $271 forward $409 $-1 #
edge $-1 $410 22.140192752925238 $411 31.610236956825396 $270 $412 forward 7 unknown #
loop $-1 $-1 $277 $170 #
plane-surface $-1 34.698151896830595 -35.960356945164875 0.30274209855804202 0 -0.7660444514056185 0.64278759981090561 1 0 0 forward_v I I I I #
loop $-1 $-1 $413 $109 #
coedge $-1 $275 $275 $276 $414 reversed $171 $-1 #
coedge $-1 $276 $276 $275 $414 forward $173 $-1 #
coedge $-1 $277 $277 $174 $278 forward $272 $-1 #
edge $-1 $415 -9.6995139041228759e-017 $415 6.2831853071796004 $277 $416 forward 7 unknown #
face $-1 $417 $418 $42 $-1 $419 reversed single #
loop $-1 $-1 $420 $175 #
plane-surface $-1 -52.373424481948305 0 0 1 0 0 0 0 -1 forward_v I I I I #
coedge $-1 $421 $290 $422 $423 forward $176 $-1 #
coedge $-1 $424 $178 $421 $425 forward $113 $-1 #
coedge $-1 $178 $424 $426 $427 forward $113 $-1 #
coedge $-1 $293 $292 $178 $286 reversed $294 $-1 #
edge $-1 $428 -35.960356945164875 $429 35.960356945164875 $285 $430 forward 7 unknown #
coedge $-1 $180 $179 $431 $432 forward $71 $-1 #
coedge $-1 $433 $434 $179 $289 reversed $418 $-1 #
edge $-1 $296 -52.373424481948305 $435 52.373424481948305 $288 $436 forward 7 unknown #
coedge $-1 $282 $437 $180 $291 reversed $176 $-1 #
edge $-1 $438 -52.373424481948305 $295 52.373424481948305 $290 $439 forward 7 unknown #
coedge $-1 $285 $181 $437 $440 forward $294 $-1 #
coedge $-1 $181 $285 $433 $441 reversed $294 $-1 #
loop $-1 $-1 $292 $417 #
vertex $-1 $182 $442 #
vertex $-1 $182 $443 #
straight-curve $-1 52.373424481948305 0 11.588701596061984 0 1 0 I I #
face $-1 $444 $445 $43 $-1 $446 forward single #
loop $-1 $-1 $447 $183 #
plane-surface $-1 -52.373424481948305 0 0 1 0 0 0 0 -1 forward_v I I I I #
coedge $-1 $307 $448 $302 $449 forward $184 $-1 #
coedge $-1 $450 $186 $301 $449 reversed $117 $-1 #
coedge $-1 $186 $450 $451 $452 reversed $117 $-1 #
coedge $-1 $188 $187 $447 $453 reversed $74 $-1 #
coedge $-1 $451 $454 $187 $306 forward $455 $-1 #
edge $-1 $456 -28.48434465805196 $310 -19.293814989740731 $305 $457 forward 7 unknown #
coedge $-1 $458 $301 $188 $308 forward $184 $-1 #
edge $-1 $309 19.293814989740731 $459 28.48434465805196 $307 $460 forward 7 unknown #
vertex $-1 $308 $461 #
vertex $-1 $306 $462 #
straight-curve $-1 -43.182894813637077 0 8.4019235998622683 0 -1 0 I I #
face $-1 $-1 $463 $44 $-1 $464 reversed single #
loop $-1 $-1 $465 $190 #
plane-surface $-1 52.373424481948305 0 0 -1 0 0 0 0 1 forward_v I I I I #
coedge $-1 $466 $193 $195 $321 forward $121 $-1 #
coedge $-1 $193 $466 $465 $467 reversed $121 $-1 #
coedge $-1 $468 $196 $193 $318 forward $191 $-1 #
edge $-1 $324 13.960609701138502 $469 30.262079754252703 $317 $470 forward 7 unknown #
coedge $-1 $471 $472 $194 $320 forward $463 $-1 #
edge $-1 $473 -55.591346411219938 $323 -48.416650823571402 $319 $474 forward 7 unknown #
edge $-1 $324 63.55047447943312 $473 71.920713890329779 $195 $475 forward 7 unknown #
coedge $-1 $196 $468 $471 $476 forward $191 $-1 #
vertex $-1 $320 $477 #
vertex $-1 $197 $478 #
straight-curve $-1 36.071954428834104 44.352013229425914 11.588701596061981 0 -1 0 I I #
coedge $-1 $326 $326 $-1 $479 reversed $200 $-1 #
edge $-1 $480 0 $480 6.2831853071796004 $201 $481 forward 7 unknown #
vertex $-1 $204 $482 #
ellipse-curve $-1 39.332248439456947 33.804861003374207 8.0013538022377109 0 0.85716730853699208 0.51503806187062418 1 0 0 1 I I #
coedge $-1 $330 $330 $-1 $483 reversed $207 $-1 #
edge $-1 $484 0 $484 6.2831853071796004 $208 $485 forward 7 unknown #
vertex $-1 $211 $486 #
ellipse-curve $-1 44.222689455391205 33.804861003374207 8.0013538022377109 0 0.85716730853699208 0.51503806187062418 1 0 0 1 I I #
coedge $-1 $334 $334 $-1 $487 reversed $214 $-1 #
edge $-1 $488 0 $488 6.2831853071796004 $215 $489 forward 7 unknown #
vertex $-1 $218 $490 #
ellipse-curve $-1 49.113130471325462 33.804861003374207 8.0013538022377109 0 0.85716730853699208 0.51503806187062418 1 0 0 1 I I #
face $-1 $-1 $491 $48 $-1 $492 reversed single #
loop $-1 $-1 $344 $219 #
plane-surface $-1 0 0 11.588701596061984 0 0 1 1 0 0 forward_v I I I I #
coedge $-1 $493 $494 $343 $495 reversed $220 $-1 #
coedge $-1 $496 $222 $224 $348 forward $140 $-1 #
coedge $-1 $222 $496 $341 $495 forward $140 $-1 #
coedge $-1 $497 $225 $222 $345 forward $339 $-1 #
edge $-1 $351 12.270736548650575 $498 24.69835102620786 $344 $499 forward 7 unknown #
coedge $-1 $500 $501 $223 $347 forward $491 $-1 #
edge $-1 $502 -33.51361676735025 $350 -22.227657269846308 $346 $503 forward 7 unknown #
edge $-1 $351 -14.732773635779603 $502 0 $224 $504 forward 7 unknown #
coedge $-1 $225 $497 $500 $505 forward $339 $-1 #
vertex $-1 $347 $506 #
vertex $-1 $226 $507 #
straight-curve $-1 -30.755280336079792 -58.100549698090113 11.588701596061984 0 1 0 I I #
coedge $-1 $353 $353 $-1 $508 reversed $229 $-1 #
edge $-1 $509 0 $509 6.2831853071796004 $230 $510 forward 7 unknown #
vertex $-1 $233 $511 #
ellipse-curve $-1 -36.969087574858435 -31.225334843214796 5.945721847310014 0 -0.7660444514056185 0.64278759981090561 2.5 0 0 1 I I #
face $-1 $-1 $369 $50 $-1 $512 forward single #
loop $-1 $-1 $513 $234 #
plane-surface $-1 0 -35.960356945164875 0 0 1 0 0 0 1 forward_v I I I I #
coedge $-1 $514 $515 $516 $517 reversed $235 $-1 #
coedge $-1 $518 $237 $239 $367 forward $149 $-1 #
coedge $-1 $237 $518 $514 $519 forward $149 $-1 #
coedge $-1 $516 $240 $237 $364 forward $369 $-1 #
edge $-1 $371 0.32619663670240229 $520 12.753811114259687 $363 $521 forward 7 unknown #
coedge $-1 $522 $523 $238 $366 forward $358 $-1 #
edge $-1 $524 -33.51361676735025 $370 -22.227657269846308 $365 $525 forward 7 unknown #
edge $-1 $371 -14.732773635779603 $524 0 $239 $526 forward 7 unknown #
coedge $-1 $240 $516 $522 $527 forward $369 $-1 #
loop $-1 $-1 $516 $357 #
vertex $-1 $366 $528 #
vertex $-1 $241 $529 #
straight-curve $-1 -6.8662005121834468 -58.100549698090113 11.588701596061984 0 1 0 I I #
coedge $-1 $373 $373 $-1 $530 reversed $244 $-1 #
edge $-1 $531 0 $531 6.2831853071796004 $245 $532 forward 7 unknown #
vertex $-1 $248 $533 #
ellipse-curve $-1 -13.080007750962089 -31.225334843214796 5.945721847310014 0 -0.7660444514056185 0.64278759981090561 2.5 0 0 1 I I #
face $-1 $-1 $389 $52 $-1 $534 forward single #
loop $-1 $-1 $535 $249 #
plane-surface $-1 0 -35.960356945164875 0 0 1 0 0 0 1 forward_v I I I I #
coedge $-1 $536 $537 $538 $539 reversed $250 $-1 #
coedge $-1 $540 $252 $254 $387 forward $158 $-1 #
coedge $-1 $252 $540 $536 $541 forward $158 $-1 #
coedge $-1 $538 $255 $252 $384 forward $389 $-1 #
edge $-1 $391 -11.61834327524577 $542 0.80927120231151406 $383 $543 forward 7 unknown #
coedge $-1 $544 $545 $253 $386 forward $378 $-1 #
edge $-1 $546 -33.51361676735025 $390 -22.227657269846308 $385 $547 forward 7 unknown #
edge $-1 $391 -14.732773635779603 $546 0 $254 $548 forward 7 unknown #
coedge $-1 $255 $538 $544 $549 forward $389 $-1 #
loop $-1 $-1 $538 $377 #
vertex $-1 $386 $550 #
vertex $-1 $256 $551 #
straight-curve $-1 17.022879311712899 -58.100549698090113 11.588701596061984 0 1 0 I I #
coedge $-1 $393 $393 $-1 $552 reversed $259 $-1 #
edge $-1 $553 0 $553 6.2831853071796004 $260 $554 forward 7 unknown #
vertex $-1 $263 $555 #
ellipse-curve $-1 10.809072072934256 -31.225334843214796 5.945721847310014 0 -0.7660444514056185 0.64278759981090561 2.5 0 0 1 I I #
face $-1 $-1 $409 $54 $-1 $556 forward single #
loop $-1 $-1 $557 $264 #
plane-surface $-1 0 -35.960356945164875 0 0 1 0 0 0 1 forward_v I I I I #
coedge $-1 $558 $559 $560 $561 reversed $265 $-1 #
coedge $-1 $562 $267 $269 $407 forward $167 $-1 #
coedge $-1 $267 $562 $558 $563 forward $167 $-1 #
coedge $-1 $560 $270 $267 $404 forward $409 $-1 #
edge $-1 $411 -23.56288318719394 $564 -11.135268709636655 $403 $565 forward 7 unknown #
coedge $-1 $566 $567 $268 $406 forward $398 $-1 #
edge $-1 $568 -33.51361676735025 $410 -22.227657269846308 $405 $569 forward 7 unknown #
edge $-1 $411 -14.732773635779603 $568 0 $269 $570 forward 7 unknown #
coedge $-1 $270 $560 $566 $571 forward $409 $-1 #
loop $-1 $-1 $560 $397 #
vertex $-1 $406 $572 #
vertex $-1 $271 $573 #
straight-curve $-1 40.911959135609237 -58.100549698090113 11.588701596061984 0 1 0 I I #
coedge $-1 $413 $413 $-1 $574 reversed $274 $-1 #
edge $-1 $575 0 $575 6.2831853071796004 $275 $576 forward 7 unknown #
vertex $-1 $278 $577 #
ellipse-curve $-1 34.698151896830595 -31.225334843214796 5.945721847310014 0 -0.7660444514056185 0.64278759981090561 2.5 0 0 1 I I #
face $-1 $-1 $294 $42 $-1 $578 reversed single #
loop $-1 $-1 $433 $279 #
plane-surface $-1 0 35.960356945164875 0 0 -1 0 0 0 -1 forward_v I I I I #
coedge $-1 $579 $431 $434 $580 forward $280 $-1 #
coedge $-1 $437 $282 $283 $425 reversed $176 $-1 #
coedge $-1 $431 $579 $282 $423 reversed $280 $-1 #
edge $-1 $438 -11.588701596061984 $581 11.588701596061984 $422 $582 forward 7 unknown #
coedge $-1 $284 $283 $579 $583 forward $113 $-1 #
edge $-1 $429 -52.373424481948305 $581 52.373424481948305 $421 $584 forward 7 unknown #
coedge $-1 $434 $433 $284 $427 reversed $418 $-1 #
edge $-1 $585 -52.373424481948305 $428 52.373424481948305 $426 $586 forward 7 unknown #
vertex $-1 $286 $587 #
vertex $-1 $440 $588 #
straight-curve $-1 52.373424481948305 0 -11.588701596061984 0 -1 0 I I #
coedge $-1 $420 $422 $287 $432 reversed $280 $-1 #
edge $-1 $435 -35.960356945164875 $438 35.960356945164875 $431 $589 forward 7 unknown #
coedge $-1 $426 $288 $293 $441 forward $418 $-1 #
coedge $-1 $288 $426 $420 $580 reversed $418 $-1 #
vertex $-1 $289 $590 #
straight-curve $-1 0 35.960356945164875 11.588701596061984 -1 0 0 I I #
coedge $-1 $290 $421 $292 $440 reversed $176 $-1 #
vertex $-1 $432 $591 #
straight-curve $-1 0 -35.960356945164875 11.588701596061984 1 0 0 I I #
edge $-1 $295 -11.588701596061984 $429 11.588701596061984 $292 $592 forward 7 unknown #
edge $-1 $296 -11.588701596061984 $428 11.588701596061984 $293 $593 forward 7 unknown #
point $-1 52.373424481948305 -35.960356945164875 11.588701596061984 #
point $-1 52.373424481948305 35.960356945164875 11.588701596061984 #
face $-1 $-1 $455 $43 $-1 $594 reversed single #
loop $-1 $-1 $595 $298 #
plane-surface $-1 0 0 11.588701596061984 0 0 1 1 0 0 forward_v I I I I #
coedge $-1 $596 $597 $304 $453 forward $299 $-1 #
coedge $-1 $301 $458 $598 $599 reversed $184 $-1 #
edge $-1 $600 -6.591045297080921 $309 -3.4042673008812052 $301 $601 forward 7 unknown #
coedge $-1 $303 $302 $595 $602 reversed $117 $-1 #
coedge $-1 $603 $305 $303 $452 forward $455 $-1 #
edge $-1 $310 3.4042673008812052 $604 6.591045297080921 $451 $605 forward 7 unknown #
edge $-1 $459 -35.960356945164875 $456 35.960356945164875 $447 $606 forward 7 unknown #
coedge $-1 $305 $603 $596 $607 forward $455 $-1 #
loop $-1 $-1 $451 $444 #
vertex $-1 $453 $608 #
straight-curve $-1 -23.889079823896346 -35.960356945164875 8.4019235998622683 1 0 0 I I #
coedge $-1 $448 $307 $597 $609 reversed $184 $-1 #
vertex $-1 $453 $610 #
straight-curve $-1 -23.889079823896346 35.960356945164875 8.4019235998622683 -1 0 0 I I #
point $-1 -43.182894813637077 35.960356945164875 8.4019235998622683 #
point $-1 -43.182894813637077 -35.960356945164875 8.4019235998622683 #
loop $-1 $-1 $319 $312 #
plane-surface $-1 0 35.960356945164875 0 0 -1 0 0 0 -1 forward_v I I I I #
coedge $-1 $611 $612 $316 $467 forward $313 $-1 #
coedge $-1 $316 $315 $472 $613 reversed $121 $-1 #
edge $-1 $469 34.958822981826081 $614 43.329062392722733 $465 $615 forward 7 unknown #
coedge $-1 $322 $317 $612 $616 forward $191 $-1 #
vertex $-1 $616 $617 #
straight-curve $-1 22.111344727695602 31.649365061583545 11.588701596061973 1 0 0 I I #
coedge $-1 $618 $319 $322 $476 reversed $463 $-1 #
coedge $-1 $319 $618 $466 $613 forward $463 $-1 #
vertex $-1 $320 $619 #
straight-curve $-1 36.071954428834104 35.960356945164875 60.005352419633383 0 0 1 I I #
straight-curve $-1 36.071954428834104 -1.0815481452622464 66.062090761846463 0 0.51503806187062418 -0.85716730853699208 I I #
edge $-1 $620 -52.373424481948305 $323 -36.071954428834104 $471 $621 forward 7 unknown #
point $-1 36.071954428834104 35.960356945164875 11.588701596061984 #
point $-1 36.071954428834104 31.649365061583545 11.588701596061981 #
edge $-1 $622 1 $622 0 $326 $-1 forward 7 unknown #
vertex $-1 $327 $623 #
ellipse-curve $-1 39.332248439456947 32.031379827732096 6.9357388419264607 0 0.85716730853699208 0.51503806187062418 1 0 0 1 I I #
point $-1 40.332248439456947 33.804861003374221 8.001353802237718 #
edge $-1 $624 1 $624 0 $330 $-1 forward 7 unknown #
vertex $-1 $331 $625 #
ellipse-curve $-1 44.222689455391205 32.031379827732096 6.9357388419264607 0 0.85716730853699208 0.51503806187062418 1 0 0 1 I I #
point $-1 45.222689455391205 33.804861003374221 8.001353802237718 #
edge $-1 $626 1 $626 0 $334 $-1 forward 7 unknown #
vertex $-1 $335 $627 #
ellipse-curve $-1 49.113130471325462 32.031379827732096 6.9357388419264607 0 0.85716730853699208 0.51503806187062418 1 0 0 1 I I #
point $-1 50.113130471325462 33.804861003374221 8.001353802237718 #
loop $-1 $-1 $346 $338 #
plane-surface $-1 0 -35.960356945164875 0 0 1 0 0 0 1 forward_v I I I I #
coedge $-1 $494 $341 $628 $629 reversed $220 $-1 #
coedge $-1 $341 $493 $497 $630 reversed $220 $-1 #
edge $-1 $631 0 $498 14.732773635779603 $341 $632 forward 7 unknown #
coedge $-1 $343 $342 $501 $633 reversed $140 $-1 #
coedge $-1 $349 $344 $494 $630 forward $339 $-1 #
vertex $-1 $630 $634 #
straight-curve $-1 -18.484543787429217 -26.490312741264717 11.588701596061984 -1 0 0 I I #
coedge $-1 $628 $346 $349 $505 reversed $491 $-1 #
coedge $-1 $346 $628 $496 $633 forward $491 $-1 #
vertex $-1 $347 $635 #
straight-curve $-1 -30.755280336079792 -35.960356945164875 33.816358865908292 0 0 1 I I #
straight-curve $-1 -30.755280336079792 -35.960356945164875 0.30274209855804202 0 -0.64278759981090561 -0.7660444514056185 I I #
edge $-1 $636 -43.182894813637077 $350 -30.755280336079792 $500 $637 forward 7 unknown #
point $-1 -30.755280336079792 -35.960356945164875 11.588701596061984 #
point $-1 -30.755280336079792 -26.490312741264717 11.588701596061984 #
edge $-1 $638 1 $638 0 $353 $-1 forward 7 unknown #
vertex $-1 $354 $639 #
ellipse-curve $-1 -36.969087574858435 -28.018501217942159 3.2548690055465985 0 -0.7660444514056185 0.64278759981090561 2.5 0 0 1 I I #
point $-1 -34.469087574858435 -31.225334843214799 5.9457218473100166 #
plane-surface $-1 0 0 11.588701596061984 0 0 1 1 0 0 forward_v I I I I #
coedge $-1 $523 $522 $515 $640 forward $358 $-1 #
coedge $-1 $515 $360 $362 $519 reversed $235 $-1 #
coedge $-1 $360 $514 $513 $640 reversed $235 $-1 #
coedge $-1 $368 $363 $360 $517 forward $369 $-1 #
edge $-1 $520 -31.610236956825396 $641 -22.140192752925238 $516 $642 forward 7 unknown #
coedge $-1 $362 $361 $523 $643 reversed $149 $-1 #
edge $-1 $644 0 $520 14.732773635779603 $514 $645 forward 7 unknown #
vertex $-1 $364 $646 #
straight-curve $-1 -6.5400038754810446 -26.490312741264717 11.588701596061984 -1 0 0 I I #
coedge $-1 $513 $365 $368 $527 reversed $358 $-1 #
coedge $-1 $365 $513 $518 $643 forward $358 $-1 #
vertex $-1 $366 $647 #
straight-curve $-1 -6.8662005121834468 -35.960356945164875 33.816358865908292 0 0 1 I I #
straight-curve $-1 -6.8662005121834468 -35.960356945164875 0.30274209855804202 0 -0.64278759981090561 -0.7660444514056185 I I #
edge $-1 $641 -19.293814989740731 $370 -6.8662005121834468 $522 $648 forward 7 unknown #
point $-1 -6.8662005121834468 -35.960356945164875 11.588701596061984 #
point $-1 -6.8662005121834468 -26.490312741264717 11.588701596061984 #
edge $-1 $649 1 $649 0 $373 $-1 forward 7 unknown #
vertex $-1 $374 $650 #
ellipse-curve $-1 -13.080007750962089 -28.018501217942159 3.2548690055465985 0 -0.7660444514056185 0.64278759981090561 2.5 0 0 1 I I #
point $-1 -10.580007750962089 -31.225334843214799 5.9457218473100166 #
plane-surface $-1 0 0 11.588701596061984 0 0 1 1 0 0 forward_v I I I I #
coedge $-1 $545 $544 $537 $651 forward $378 $-1 #
coedge $-1 $537 $380 $382 $541 reversed $250 $-1 #
coedge $-1 $380 $536 $535 $651 reversed $250 $-1 #
coedge $-1 $388 $383 $380 $539 forward $389 $-1 #
edge $-1 $542 -31.610236956825396 $652 -22.140192752925238 $538 $653 forward 7 unknown #
coedge $-1 $382 $381 $545 $654 reversed $158 $-1 #
edge $-1 $655 0 $542 14.732773635779603 $536 $656 forward 7 unknown #
vertex $-1 $384 $657 #
straight-curve $-1 5.4045360364671282 -26.490312741264717 11.588701596061984 -1 0 0 I I #
coedge $-1 $535 $385 $388 $549 reversed $378 $-1 #
coedge $-1 $385 $535 $540 $654 forward $378 $-1 #
vertex $-1 $386 $658 #
straight-curve $-1 17.022879311712899 -35.960356945164875 33.816358865908292 0 0 1 I I #
straight-curve $-1 17.022879311712899 -35.960356945164875 0.30274209855804202 0 -0.64278759981090561 -0.7660444514056185 I I #
edge $-1 $652 4.5952648341556142 $390 17.022879311712899 $544 $659 forward 7 unknown #
point $-1 17.022879311712899 -35.960356945164875 11.588701596061984 #
point $-1 17.022879311712899 -26.490312741264717 11.588701596061984 #
edge $-1 $660 1 $660 0 $393 $-1 forward 7 unknown #
vertex $-1 $394 $661 #
ellipse-curve $-1 10.809072072934256 -28.018501217942159 3.2548690055465985 0 -0.7660444514056185 0.64278759981090561 2.5 0 0 1 I I #
point $-1 13.309072072934256 -31.225334843214799 5.9457218473100166 #
plane-surface $-1 0 0 11.588701596061984 0 0 1 1 0 0 forward_v I I I I #
coedge $-1 $567 $566 $559 $662 forward $398 $-1 #
coedge $-1 $559 $400 $402 $563 reversed $265 $-1 #
coedge $-1 $400 $558 $557 $662 reversed $265 $-1 #
coedge $-1 $408 $403 $400 $561 forward $409 $-1 #
edge $-1 $564 -31.610236956825396 $663 -22.140192752925238 $560 $664 forward 7 unknown #
coedge $-1 $402 $401 $567 $665 reversed $167 $-1 #
edge $-1 $666 0 $564 14.732773635779603 $558 $667 forward 7 unknown #
vertex $-1 $404 $668 #
straight-curve $-1 17.349075948415297 -26.490312741264717 11.588701596061984 -1 0 0 I I #
coedge $-1 $557 $405 $408 $571 reversed $398 $-1 #
coedge $-1 $405 $557 $562 $665 forward $398 $-1 #
vertex $-1 $406 $669 #
straight-curve $-1 40.911959135609237 -35.960356945164875 33.816358865908292 0 0 1 I I #
straight-curve $-1 40.911959135609237 -35.960356945164875 0.30274209855804202 0 -0.64278759981090561 -0.7660444514056185 I I #
edge $-1 $663 28.484344658051953 $410 40.911959135609237 $566 $670 forward 7 unknown #
point $-1 40.911959135609237 -35.960356945164875 11.588701596061984 #
point $-1 40.911959135609237 -26.490312741264717 11.588701596061984 #
edge $-1 $671 1 $671 0 $413 $-1 forward 7 unknown #
vertex $-1 $414 $672 #
ellipse-curve $-1 34.698151896830595 -28.018501217942159 3.2548690055465985 0 -0.7660444514056185 0.64278759981090561 2.5 0 0 1 I I #
point $-1 37.198151896830595 -31.225334843214799 5.9457218473100166 #
plane-surface $-1 52.373424481948305 0 0 -1 0 0 0 0 1 forward_v I I I I #
coedge $-1 $422 $420 $424 $583 reversed $280 $-1 #
edge $-1 $435 -11.588701596061984 $585 11.588701596061984 $434 $673 forward 7 unknown #
vertex $-1 $583 $674 #
straight-curve $-1 -52.373424481948305 -35.960356945164875 0 0 0 -1 I I #
edge $-1 $581 -35.960356945164875 $585 35.960356945164875 $579 $675 forward 7 unknown #
straight-curve $-1 0 -35.960356945164875 -11.588701596061984 -1 0 0 I I #
vertex $-1 $427 $676 #
straight-curve $-1 0 35.960356945164875 -11.588701596061984 1 0 0 I I #
point $-1 52.373424481948305 35.960356945164875 -11.588701596061984 #
point $-1 52.373424481948305 -35.960356945164875 -11.588701596061984 #
straight-curve $-1 -52.373424481948305 0 11.588701596061984 0 -1 0 I I #
point $-1 -52.373424481948305 35.960356945164875 11.588701596061984 #
point $-1 -52.373424481948305 -35.960356945164875 11.588701596061984 #
straight-curve $-1 52.373424481948305 -35.960356945164875 0 0 0 -1 I I #
straight-curve $-1 52.373424481948305 35.960356945164875 0 0 0 -1 I I #
plane-surface $-1 0 -35.960356945164875 0 0 1 0 0 0 1 forward_v I I I I #
coedge $-1 $598 $677 $450 $602 forward $445 $-1 #
coedge $-1 $678 $447 $454 $607 reversed $299 $-1 #
coedge $-1 $447 $678 $458 $609 forward $299 $-1 #
coedge $-1 $679 $595 $448 $599 forward $445 $-1 #
edge $-1 $600 43.182894813637077 $680 52.373424481948305 $448 $681 forward 7 unknown #
vertex $-1 $599 $682 #
straight-curve $-1 -43.182894813637077 35.960356945164875 4.9976562989810631 0 0 -1 I I #
edge $-1 $604 -35.960356945164875 $600 35.960356945164875 $595 $683 forward 7 unknown #
coedge $-1 $454 $451 $677 $684 reversed $455 $-1 #
vertex $-1 $452 $685 #
straight-curve $-1 -43.182894813637077 -35.960356945164875 4.9976562989810631 0 0 1 I I #
straight-curve $-1 -52.373424481948305 0 8.4019235998622683 0 -1 0 I I #
edge $-1 $686 -11.588701596061984 $456 -8.4019235998622683 $596 $687 forward 7 unknown #
point $-1 -52.373424481948305 -35.960356945164875 8.4019235998622683 #
edge $-1 $680 -11.588701596061984 $459 -8.4019235998622683 $458 $688 forward 7 unknown #
point $-1 -52.373424481948305 35.960356945164875 8.4019235998622683 #
coedge $-1 $612 $465 $618 $689 reversed $313 $-1 #
coedge $-1 $465 $611 $468 $616 reversed $313 $-1 #
edge $-1 $614 -30.262079754252703 $473 -13.960609701138502 $472 $690 forward 7 unknown #
vertex $-1 $467 $691 #
straight-curve $-1 52.373424481948305 13.644240627745608 41.554261801014988 0 0.51503806187062429 -0.85716730853699219 I I #
edge $-1 $469 31.649365061583545 $620 35.960356945164875 $612 $692 forward 7 unknown #
point $-1 52.373424481948305 31.649365061583545 11.588701596061981 #
coedge $-1 $472 $471 $611 $689 forward $463 $-1 #
point $-1 36.071954428834104 35.960356945164875 4.4140060084134447 #
vertex $-1 $616 $693 #
straight-curve $-1 0 35.960356945164875 11.588701596061984 -1 0 0 I I #
vertex $-1 $479 $694 #
point $-1 40.332248439456947 32.031379827732096 6.9357388419264607 #
vertex $-1 $483 $695 #
point $-1 45.222689455391205 32.031379827732096 6.9357388419264607 #
vertex $-1 $487 $696 #
point $-1 50.113130471325462 32.031379827732096 6.9357388419264607 #
coedge $-1 $501 $500 $493 $629 forward $491 $-1 #
edge $-1 $636 22.227657269846308 $631 33.51361676735025 $628 $697 forward 7 unknown #
edge $-1 $498 26.490312741264717 $636 35.960356945164875 $497 $698 forward 7 unknown #
vertex $-1 $629 $699 #
straight-curve $-1 -43.182894813637077 -35.960356945164875 0.30274209855804202 0 0.64278759981090561 0.7660444514056185 I I #
edge $-1 $631 -24.69835102620786 $502 -12.270736548650575 $501 $700 forward 7 unknown #
point $-1 -43.182894813637077 -26.490312741264717 11.588701596061984 #
point $-1 -30.755280336079792 -35.960356945164875 0.30274209855804202 #
vertex $-1 $505 $701 #
straight-curve $-1 0 -35.960356945164875 11.588701596061984 1 0 0 I I #
vertex $-1 $508 $702 #
point $-1 -34.469087574858435 -28.018501217942159 3.2548690055465985 #
edge $-1 $641 22.227657269846308 $644 33.51361676735025 $513 $703 forward 7 unknown #
vertex $-1 $527 $704 #
straight-curve $-1 -19.293814989740731 -58.100549698090113 11.588701596061984 0 -1 0 I I #
edge $-1 $644 -12.753811114259687 $524 -0.32619663670240229 $523 $705 forward 7 unknown #
vertex $-1 $643 $706 #
straight-curve $-1 -19.293814989740731 -35.960356945164875 0.30274209855804202 0 0.64278759981090561 0.7660444514056185 I I #
point $-1 -19.293814989740731 -26.490312741264717 11.588701596061984 #
point $-1 -6.8662005121834468 -35.960356945164875 0.30274209855804202 #
straight-curve $-1 0 -35.960356945164875 11.588701596061984 1 0 0 I I #
vertex $-1 $530 $707 #
point $-1 -10.580007750962089 -28.018501217942159 3.2548690055465985 #
edge $-1 $652 22.227657269846308 $655 33.51361676735025 $535 $708 forward 7 unknown #
vertex $-1 $549 $709 #
straight-curve $-1 4.5952648341556142 -58.100549698090113 11.588701596061984 0 -1 0 I I #
edge $-1 $655 -0.80927120231151406 $546 11.61834327524577 $545 $710 forward 7 unknown #
vertex $-1 $654 $711 #
straight-curve $-1 4.5952648341556142 -35.960356945164875 0.30274209855804202 0 0.64278759981090561 0.7660444514056185 I I #
point $-1 4.5952648341556142 -26.490312741264717 11.588701596061984 #
point $-1 17.022879311712899 -35.960356945164875 0.30274209855804202 #
straight-curve $-1 0 -35.960356945164875 11.588701596061984 1 0 0 I I #
vertex $-1 $552 $712 #
point $-1 13.309072072934256 -28.018501217942159 3.2548690055465985 #
edge $-1 $663 22.227657269846308 $666 33.51361676735025 $557 $713 forward 7 unknown #
vertex $-1 $571 $714 #
straight-curve $-1 28.484344658051953 -58.100549698090113 11.588701596061984 0 -1 0 I I #
edge $-1 $666 11.135268709636655 $568 23.56288318719394 $567 $715 forward 7 unknown #
vertex $-1 $665 $716 #
straight-curve $-1 28.484344658051953 -35.960356945164875 0.30274209855804202 0 0.64278759981090561 0.7660444514056185 I I #
point $-1 28.484344658051953 -26.490312741264717 11.588701596061984 #
point $-1 40.911959135609237 -35.960356945164875 0.30274209855804202 #
straight-curve $-1 0 -35.960356945164875 11.588701596061984 1 0 0 I I #
vertex $-1 $574 $717 #
point $-1 37.198151896830595 -28.018501217942159 3.2548690055465985 #
straight-curve $-1 -52.373424481948305 35.960356945164875 0 0 0 -1 I I #
point $-1 -52.373424481948305 -35.960356945164875 -11.588701596061984 #
straight-curve $-1 -52.373424481948305 0 -11.588701596061984 0 1 0 I I #
point $-1 -52.373424481948305 35.960356945164875 -11.588701596061984 #
coedge $-1 $595 $679 $603 $684 forward $445 $-1 #
coedge $-1 $597 $596 $679 $718 reversed $299 $-1 #
coedge $-1 $677 $598 $678 $718 forward $445 $-1 #
vertex $-1 $599 $719 #
straight-curve $-1 0 35.960356945164875 11.588701596061984 -1 0 0 I I #
point $-1 -43.182894813637077 35.960356945164875 11.588701596061984 #
straight-curve $-1 -43.182894813637077 0 11.588701596061984 0 1 0 I I #
edge $-1 $686 -52.373424481948305 $604 -43.182894813637077 $603 $720 forward 7 unknown #
point $-1 -43.182894813637077 -35.960356945164875 11.588701596061984 #
vertex $-1 $718 $721 #
straight-curve $-1 -52.373424481948305 -35.960356945164875 0 0 0 -1 I I #
straight-curve $-1 -52.373424481948305 35.960356945164875 0 0 0 -1 I I #
edge $-1 $620 -11.588701596061984 $614 -4.4140060084134447 $611 $722 forward 7 unknown #
straight-curve $-1 22.111344727695602 35.960356945164875 4.414006008413434 -1 0 0 I I #
point $-1 52.373424481948305 35.960356945164875 4.4140060084134447 #
straight-curve $-1 52.373424481948305 0 11.588701596061984 0 1 0 I I #
point $-1 52.373424481948305 35.960356945164875 11.588701596061984 #
point $-1 39.332248439456947 31.174212519195105 6.420700780055836 #
point $-1 44.222689455391205 31.174212519195105 6.420700780055836 #
point $-1 49.113130471325462 31.174212519195105 6.420700780055836 #
straight-curve $-1 -43.182894813637077 -35.960356945164875 33.816358865908292 0 0 -1 I I #
straight-curve $-1 -43.182894813637077 0 11.588701596061984 0 -1 0 I I #
point $-1 -43.182894813637077 -35.960356945164875 0.30274209855804202 #
straight-curve $-1 -18.484543787429217 -35.960356945164875 0.30274209855803913 1 0 0 I I #
point $-1 -43.182894813637077 -35.960356945164875 11.588701596061984 #
point $-1 -36.969087574858435 -26.10339008942811 1.6479000060193347 #
straight-curve $-1 -19.293814989740731 -35.960356945164875 33.816358865908292 0 0 -1 I I #
point $-1 -19.293814989740731 -35.960356945164875 11.588701596061984 #
straight-curve $-1 -6.5400038754810446 -35.960356945164875 0.30274209855803913 1 0 0 I I #
point $-1 -19.293814989740731 -35.960356945164875 0.30274209855804202 #
point $-1 -13.080007750962089 -26.10339008942811 1.6479000060193347 #
straight-curve $-1 4.5952648341556142 -35.960356945164875 33.816358865908292 0 0 -1 I I #
point $-1 4.5952648341556142 -35.960356945164875 11.588701596061984 #
straight-curve $-1 5.4045360364671282 -35.960356945164875 0.30274209855803913 1 0 0 I I #
point $-1 4.5952648341556142 -35.960356945164875 0.30274209855804202 #
point $-1 10.809072072934256 -26.10339008942811 1.6479000060193347 #
straight-curve $-1 28.484344658051953 -35.960356945164875 33.816358865908292 0 0 -1 I I #
point $-1 28.484344658051953 -35.960356945164875 11.588701596061984 #
straight-curve $-1 17.349075948415297 -35.960356945164875 0.30274209855803913 1 0 0 I I #
point $-1 28.484344658051953 -35.960356945164875 0.30274209855804202 #
point $-1 34.698151896830595 -26.10339008942811 1.6479000060193347 #
edge $-1 $680 -35.960356945164875 $686 35.960356945164875 $678 $723 forward 7 unknown #
point $-1 -52.373424481948305 35.960356945164875 11.588701596061984 #
straight-curve $-1 0 -35.960356945164875 11.588701596061984 1 0 0 I I #
point $-1 -52.373424481948305 -35.960356945164875 11.588701596061984 #
straight-curve $-1 52.373424481948305 35.960356945164875 0 0 0 -1 I I #
straight-curve $-1 -52.373424481948305 0 11.588701596061984 0 -1 0 I I #
End-of-ACIS-data 