500 0 9 0           
7 Unknown 11 ACIS 5.0 NT 24 Fri Mar 26 01:35:44 1999 
-1 9.9999999999999995e-007 1e-010 
body $-1 $9 $-1 $10 #
body $-1 $11 $-1 $12 #
body $-1 $13 $-1 $14 #
body $-1 $15 $-1 $16 #
body $-1 $17 $-1 $18 #
body $-1 $19 $-1 $20 #
body $-1 $21 $-1 $22 #
body $-1 $23 $-1 $24 #
body $-1 $25 $-1 $26 #
lump $-1 $-1 $27 $0 #
transform $-1 1 0 0 0 1 0 0 0 1 40.53468428601947 25.458038125679426 11.610922726078178 1 rotate no_reflect no_shear #
lump $-1 $-1 $28 $1 #
transform $-1 1 0 0 0 1 0 0 0 1 40.53468428601947 25.458038125679426 11.610922726078178 1 rotate no_reflect no_shear #
lump $-1 $-1 $29 $2 #
transform $-1 1 0 0 0 1 0 0 0 1 40.53468428601947 25.458038125679426 11.610922726078178 1 rotate no_reflect no_shear #
lump $-1 $-1 $30 $3 #
transform $-1 1 0 0 0 1 0 0 0 1 40.53468428601947 25.458038125679426 11.610922726078178 1 rotate no_reflect no_shear #
lump $-1 $-1 $31 $4 #
transform $-1 1 0 0 0 1 0 0 0 1 40.53468428601947 25.458038125679426 11.610922726078178 1 rotate no_reflect no_shear #
lump $-1 $-1 $32 $5 #
transform $-1 1 0 0 0 1 0 0 0 1 40.53468428601947 25.458038125679426 11.610922726078178 1 rotate no_reflect no_shear #
lump $-1 $-1 $33 $6 #
transform $-1 1 0 0 0 1 0 0 0 1 40.53468428601947 25.458038125679426 11.610922726078178 1 rotate no_reflect no_shear #
lump $-1 $-1 $34 $7 #
transform $-1 1 0 0 0 1 0 0 0 1 40.53468428601947 25.458038125679426 11.610922726078178 1 rotate no_reflect no_shear #
lump $-1 $-1 $35 $8 #
transform $-1 1 0 0 0 1 0 0 0 1 40.53468428601947 25.458038125679426 11.610922726078178 1 rotate no_reflect no_shear #
shell $-1 $-1 $-1 $36 $-1 $9 #
shell $-1 $-1 $-1 $37 $-1 $11 #
shell $-1 $-1 $-1 $38 $-1 $13 #
shell $-1 $-1 $-1 $39 $-1 $15 #
shell $-1 $-1 $-1 $40 $-1 $17 #
shell $-1 $-1 $-1 $41 $-1 $19 #
shell $-1 $-1 $-1 $42 $-1 $21 #
shell $-1 $-1 $-1 $43 $-1 $23 #
shell $-1 $-1 $-1 $44 $-1 $25 #
face $-1 $45 $46 $27 $-1 $47 forward single #
face $-1 $48 $49 $28 $-1 $50 reversed single #
face $-1 $51 $52 $29 $-1 $53 reversed single #
face $-1 $54 $55 $30 $-1 $56 forward single #
face $-1 $57 $58 $31 $-1 $59 forward single #
face $-1 $60 $61 $32 $-1 $62 reversed single #
face $-1 $63 $64 $33 $-1 $65 forward single #
face $-1 $66 $67 $34 $-1 $68 reversed single #
face $-1 $69 $70 $35 $-1 $71 forward single #
face $-1 $72 $73 $27 $-1 $74 reversed single #
loop $-1 $-1 $75 $36 #
plane-surface $-1 0 0 11.610922726078178 0 0 1 1 0 0 forward_v I I I I #
face $-1 $76 $77 $28 $-1 $78 reversed single #
loop $-1 $-1 $79 $37 #
plane-surface $-1 -36.569657113173818 0 4.9726371288064311 0 0 1 1 0 0 forward_v I I I I #
face $-1 $80 $81 $29 $-1 $82 reversed single #
loop $-1 $-1 $83 $38 #
plane-surface $-1 26.991970882960278 -71.957518247739799 68.009333441253489 -1 0 0 0 -0.57357644374324357 0.81915203911291934 forward_v I I I I #
face $-1 $84 $85 $30 $-1 $86 forward single #
loop $-1 $87 $88 $39 #
cone-surface $-1 14.83386607158954 -17.858468034851533 5.9607018853724467 0 0.57357644374324357 -0.81915203911291934 1.5 0 0 1 I I 0 1 1.5 forward I I I I #
face $-1 $89 $90 $31 $-1 $91 forward single #
loop $-1 $92 $93 $40 #
cone-surface $-1 22.128728958411983 -17.858468034851533 5.9607018853724467 0 0.57357644374324357 -0.81915203911291934 1.5 0 0 1 I I 0 1 1.5 forward I I I I #
face $-1 $94 $95 $32 $-1 $96 reversed single #
loop $-1 $-1 $97 $41 #
plane-surface $-1 -27.917864851299584 46.779636683573216 95.709754268194644 1 0 0 0 -0.70710678939079041 -0.70710677298230451 forward_v I I I I #
face $-1 $98 $99 $33 $-1 $100 forward single #
loop $-1 $101 $102 $42 #
cone-surface $-1 -22.435150610320004 19.002344019403232 5.1552285554478043 0 -0.70710678939079041 -0.70710677298230451 1.5 0 0 1 I I 0 1 1.5 forward I I I I #
face $-1 $103 $104 $34 $-1 $105 reversed single #
loop $-1 $-1 $106 $43 #
plane-surface $-1 24.882490715031722 46.779636683573216 95.709754268194644 1 0 0 0 -0.70710678939079041 -0.70710677298230451 forward_v I I I I #
face $-1 $107 $108 $35 $-1 $109 forward single #
loop $-1 $110 $111 $44 #
cone-surface $-1 30.365204956011297 19.002344019403232 5.1552285554478043 0 -0.70710678939079041 -0.70710677298230451 1.5 0 0 1 I I 0 1 1.5 forward I I I I #
face $-1 $112 $113 $27 $-1 $114 reversed single #
loop $-1 $-1 $115 $45 #
plane-surface $-1 0 0 -11.610922726078178 0 0 1 1 0 0 forward_v I I I I #
coedge $-1 $116 $117 $118 $119 forward $46 $-1 #
face $-1 $120 $121 $28 $-1 $122 reversed single #
loop $-1 $-1 $123 $48 #
plane-surface $-1 -32.604629940328167 0 8.2917799274423043 -1 0 0 0 0 1 forward_v I I I I #
coedge $-1 $124 $125 $126 $127 forward $49 $-1 #
face $-1 $128 $129 $29 $-1 $130 reversed single #
loop $-1 $-1 $131 $51 #
plane-surface $-1 18.481297515000762 -25.45803812567943 1.6011948658709798 0 -0.57357644374324357 0.81915203911291934 1 0 0 forward_v I I I I #
coedge $-1 $132 $133 $134 $135 reversed $52 $-1 #
face $-1 $-1 $136 $30 $-1 $137 forward single #
loop $-1 $138 $139 $54 #
cone-surface $-1 14.83386607158954 -16.976401919725554 4.7009809454356262 0 0.57357644374324357 -0.81915203911291934 0.75 0 0 1 I I -0.70710678118654757 0.70710678118654757 0.75 forward I I I I #
loop $-1 $-1 $140 $39 #
coedge $-1 $88 $88 $141 $142 reversed $55 $-1 #
face $-1 $-1 $143 $31 $-1 $144 forward single #
loop $-1 $145 $146 $57 #
cone-surface $-1 22.128728958411983 -16.976401919725554 4.7009809454356262 0 0.57357644374324357 -0.81915203911291934 0.75 0 0 1 I I -0.70710678118654757 0.70710678118654757 0.75 forward I I I I #
loop $-1 $-1 $147 $40 #
coedge $-1 $93 $93 $148 $149 reversed $58 $-1 #
face $-1 $150 $151 $32 $-1 $152 reversed single #
loop $-1 $-1 $153 $60 #
plane-surface $-1 -22.435150610320008 -10.545064245339887 38.385054669507134 0 0.70710678939079041 0.70710677298230451 1 0 0 forward_v I I I I #
coedge $-1 $154 $155 $156 $157 reversed $61 $-1 #
face $-1 $-1 $158 $33 $-1 $159 forward single #
loop $-1 $160 $161 $63 #
cone-surface $-1 -22.435150610320004 16.630805345527374 2.7836899366037446 0 -0.70710678939079041 -0.70710677298230451 0.75 0 0 1 I I -0.70710678118654757 0.70710678118654757 0.75 forward I I I I #
loop $-1 $-1 $162 $42 #
coedge $-1 $102 $102 $163 $164 reversed $64 $-1 #
face $-1 $165 $166 $34 $-1 $167 reversed single #
loop $-1 $-1 $168 $66 #
plane-surface $-1 30.365204956011297 -10.545064245339887 38.385054669507134 0 0.70710678939079041 0.70710677298230451 1 0 0 forward_v I I I I #
coedge $-1 $169 $170 $171 $172 reversed $67 $-1 #
face $-1 $-1 $173 $35 $-1 $174 forward single #
loop $-1 $175 $176 $69 #
cone-surface $-1 30.365204956011297 16.630805345527374 2.7836899366037446 0 -0.70710678939079041 -0.70710677298230451 0.75 0 0 1 I I -0.70710678118654757 0.70710678118654757 0.75 forward I I I I #
loop $-1 $-1 $177 $44 #
coedge $-1 $111 $111 $178 $179 reversed $70 $-1 #
face $-1 $180 $181 $27 $-1 $182 reversed single #
loop $-1 $-1 $183 $72 #
plane-surface $-1 0 -25.458038125679426 0 0 1 0 0 0 1 forward_v I I I I #
coedge $-1 $184 $185 $186 $187 forward $73 $-1 #
coedge $-1 $188 $75 $189 $190 forward $46 $-1 #
coedge $-1 $75 $188 $191 $192 forward $46 $-1 #
coedge $-1 $193 $194 $75 $119 reversed $195 $-1 #
edge $-1 $196 -25.458038125679426 $197 25.458038125679426 $118 $198 forward 7 unknown #
face $-1 $199 $200 $28 $-1 $201 reversed single #
loop $-1 $-1 $202 $76 #
plane-surface $-1 0 25.458038125679426 0 0 -1 0 0 0 -1 forward_v I I I I #
coedge $-1 $126 $203 $204 $205 reversed $77 $-1 #
coedge $-1 $206 $79 $207 $208 reversed $49 $-1 #
coedge $-1 $79 $206 $209 $210 reversed $49 $-1 #
coedge $-1 $211 $123 $79 $127 reversed $77 $-1 #
edge $-1 $212 -25.458038125679426 $213 25.458038125679426 $126 $214 forward 7 unknown #
face $-1 $215 $216 $29 $-1 $217 reversed single #
loop $-1 $-1 $218 $80 #
plane-surface $-1 9.9706241470412458 -71.957518247739799 68.009333441253489 1 0 0 0 0.57357644374324357 -0.81915203911291934 forward_v I I I I #
coedge $-1 $219 $220 $221 $222 reversed $81 $-1 #
coedge $-1 $133 $83 $223 $224 reversed $52 $-1 #
coedge $-1 $83 $132 $219 $225 reversed $52 $-1 #
coedge $-1 $221 $226 $83 $135 forward $227 $-1 #
edge $-1 $228 10.520720998190473 $229 24.816093615209159 $134 $230 forward 7 unknown #
loop $-1 $-1 $141 $84 #
plane-surface $-1 18.481297515000762 -25.45803812567943 1.6011948658709798 0 -0.57357644374324357 0.81915203911291934 1 0 0 forward_v I I I I #
loop $-1 $-1 $231 $54 #
coedge $-1 $139 $139 $140 $232 reversed $85 $-1 #
coedge $-1 $140 $140 $139 $232 forward $87 $-1 #
coedge $-1 $141 $141 $88 $142 forward $136 $-1 #
edge $-1 $233 9.2126533082034388e-016 $233 6.2831853071796013 $141 $234 forward 7 unknown #
loop $-1 $-1 $148 $89 #
plane-surface $-1 18.481297515000762 -25.45803812567943 1.6011948658709798 0 -0.57357644374324357 0.81915203911291934 1 0 0 forward_v I I I I #
loop $-1 $-1 $235 $57 #
coedge $-1 $146 $146 $147 $236 reversed $90 $-1 #
coedge $-1 $147 $147 $146 $236 forward $92 $-1 #
coedge $-1 $148 $148 $93 $149 forward $143 $-1 #
edge $-1 $237 9.2126533082034388e-016 $237 6.2831853071796013 $148 $238 forward 7 unknown #
face $-1 $239 $240 $32 $-1 $241 forward single #
loop $-1 $-1 $242 $94 #
plane-surface $-1 -16.952436369340433 46.779636683573216 95.709754268194644 -1 0 0 0 0.70710678939079041 0.70710677298230451 forward_v I I I I #
coedge $-1 $243 $244 $245 $246 reversed $95 $-1 #
coedge $-1 $155 $97 $247 $248 reversed $61 $-1 #
coedge $-1 $97 $154 $243 $249 reversed $61 $-1 #
coedge $-1 $245 $250 $97 $157 forward $240 $-1 #
edge $-1 $251 -2.0682197838928182 $252 7.1607512649940297 $156 $253 forward 7 unknown #
loop $-1 $-1 $163 $98 #
plane-surface $-1 -22.435150610320008 -10.545064245339887 38.385054669507134 0 0.70710678939079041 0.70710677298230451 1 0 0 forward_v I I I I #
loop $-1 $-1 $254 $63 #
coedge $-1 $161 $161 $162 $255 reversed $99 $-1 #
coedge $-1 $162 $162 $161 $255 forward $101 $-1 #
coedge $-1 $163 $163 $102 $164 forward $158 $-1 #
edge $-1 $256 -4.1869128831045944e-016 $256 6.2831853071796004 $163 $257 forward 7 unknown #
face $-1 $258 $259 $34 $-1 $260 forward single #
loop $-1 $-1 $261 $103 #
plane-surface $-1 35.847919196990873 46.779636683573216 95.709754268194644 -1 0 0 0 0.70710678939079041 0.70710677298230451 forward_v I I I I #
coedge $-1 $262 $263 $264 $265 reversed $104 $-1 #
coedge $-1 $170 $106 $266 $267 reversed $67 $-1 #
coedge $-1 $106 $169 $262 $268 reversed $67 $-1 #
coedge $-1 $264 $269 $106 $172 forward $259 $-1 #
edge $-1 $270 -2.0682197838928182 $271 7.1607512649940297 $171 $272 forward 7 unknown #
loop $-1 $-1 $178 $107 #
plane-surface $-1 30.365204956011297 -10.545064245339887 38.385054669507134 0 0.70710678939079041 0.70710677298230451 1 0 0 forward_v I I I I #
loop $-1 $-1 $273 $69 #
coedge $-1 $176 $176 $177 $274 reversed $108 $-1 #
coedge $-1 $177 $177 $176 $274 forward $110 $-1 #
coedge $-1 $178 $178 $111 $179 forward $173 $-1 #
edge $-1 $275 -4.1869128831045944e-016 $275 6.2831853071796004 $178 $276 forward 7 unknown #
face $-1 $277 $278 $27 $-1 $279 reversed single #
loop $-1 $-1 $280 $112 #
plane-surface $-1 -40.53468428601947 0 0 1 0 0 0 0 -1 forward_v I I I I #
coedge $-1 $281 $191 $282 $283 forward $113 $-1 #
coedge $-1 $284 $115 $281 $285 forward $73 $-1 #
coedge $-1 $115 $284 $286 $287 forward $73 $-1 #
coedge $-1 $194 $193 $115 $187 reversed $195 $-1 #
edge $-1 $288 -25.458038125679426 $289 25.458038125679426 $186 $290 forward 7 unknown #
coedge $-1 $117 $116 $291 $292 forward $46 $-1 #
coedge $-1 $293 $294 $116 $190 reversed $278 $-1 #
edge $-1 $197 -40.53468428601947 $295 40.53468428601947 $189 $296 forward 7 unknown #
coedge $-1 $183 $297 $117 $192 reversed $113 $-1 #
edge $-1 $298 -40.53468428601947 $196 40.53468428601947 $191 $299 forward 7 unknown #
coedge $-1 $186 $118 $297 $300 forward $195 $-1 #
coedge $-1 $118 $186 $293 $301 reversed $195 $-1 #
loop $-1 $-1 $193 $277 #
vertex $-1 $119 $302 #
vertex $-1 $119 $303 #
straight-curve $-1 40.53468428601947 0 11.610922726078178 0 1 0 I I #
face $-1 $304 $305 $28 $-1 $306 forward single #
loop $-1 $-1 $307 $120 #
plane-surface $-1 -40.53468428601947 0 0 1 0 0 0 0 -1 forward_v I I I I #
coedge $-1 $209 $308 $211 $309 forward $121 $-1 #
coedge $-1 $123 $211 $310 $311 reversed $77 $-1 #
coedge $-1 $312 $207 $123 $205 forward $313 $-1 #
edge $-1 $213 0.8267471650852789 $314 7.4650327623570254 $204 $315 forward 7 unknown #
coedge $-1 $125 $124 $307 $316 reversed $49 $-1 #
coedge $-1 $204 $317 $124 $208 forward $313 $-1 #
edge $-1 $318 -22.249855729432561 $213 -14.319801383741257 $207 $319 forward 7 unknown #
coedge $-1 $320 $202 $125 $210 forward $121 $-1 #
edge $-1 $212 14.319801383741257 $321 22.249855729432561 $209 $322 forward 7 unknown #
coedge $-1 $203 $126 $202 $309 reversed $77 $-1 #
vertex $-1 $210 $323 #
vertex $-1 $208 $324 #
straight-curve $-1 -32.604629940328167 0 4.9726371288064311 0 -1 0 I I #
face $-1 $-1 $227 $29 $-1 $325 forward single #
loop $-1 $-1 $326 $128 #
plane-surface $-1 0 -25.458038125679426 0 0 1 0 0 0 1 forward_v I I I I #
coedge $-1 $327 $328 $329 $330 reversed $129 $-1 #
coedge $-1 $331 $131 $133 $225 forward $81 $-1 #
coedge $-1 $131 $331 $327 $332 forward $81 $-1 #
coedge $-1 $329 $134 $131 $222 forward $227 $-1 #
edge $-1 $229 -17.751322125459897 $333 -0.72997538954086494 $221 $334 forward 7 unknown #
coedge $-1 $335 $336 $132 $224 forward $216 $-1 #
edge $-1 $337 -32.403471854755765 $228 -22.393743994548565 $223 $338 forward 7 unknown #
edge $-1 $229 -17.451427738005162 $337 -4.3111677576717944e-015 $133 $339 forward 7 unknown #
coedge $-1 $134 $329 $335 $340 forward $227 $-1 #
loop $-1 $-1 $329 $215 #
vertex $-1 $224 $341 #
vertex $-1 $135 $342 #
straight-curve $-1 26.991970882960278 -35.978759123869899 11.610922726078179 0 1 0 I I #
coedge $-1 $231 $231 $-1 $343 reversed $138 $-1 #
edge $-1 $344 0 $344 6.2831853071796004 $139 $345 forward 7 unknown #
vertex $-1 $142 $346 #
ellipse-curve $-1 14.83386607158954 -18.310351817170083 6.6060587959745805 0 -0.57357644374324357 0.81915203911291934 1.5 0 0 1 I I #
coedge $-1 $235 $235 $-1 $347 reversed $145 $-1 #
edge $-1 $348 0 $348 6.2831853071796004 $146 $349 forward 7 unknown #
vertex $-1 $149 $350 #
ellipse-curve $-1 22.128728958411983 -18.310351817170083 6.6060587959745805 0 -0.57357644374324357 0.81915203911291934 1.5 0 0 1 I I #
face $-1 $-1 $351 $32 $-1 $352 reversed single #
loop $-1 $-1 $156 $150 #
plane-surface $-1 0 0 11.610922726078178 0 0 1 1 0 0 forward_v I I I I #
coedge $-1 $353 $354 $355 $356 reversed $151 $-1 #
coedge $-1 $357 $153 $155 $249 forward $95 $-1 #
coedge $-1 $153 $357 $353 $358 forward $95 $-1 #
coedge $-1 $355 $156 $153 $246 forward $240 $-1 #
edge $-1 $252 -16.700289546139579 $359 -5.7348610641804285 $245 $360 forward 7 unknown #
coedge $-1 $361 $362 $154 $248 forward $351 $-1 #
edge $-1 $363 -45.472925671065219 $251 -36.243954408019142 $247 $364 forward 7 unknown #
edge $-1 $252 37.864340075840992 $363 50.916076251358867 $155 $365 forward 7 unknown #
coedge $-1 $156 $355 $361 $366 forward $240 $-1 #
vertex $-1 $248 $367 #
vertex $-1 $157 $368 #
straight-curve $-1 -27.917864851299584 23.389818341786608 11.610922726078179 0 -1 0 I I #
coedge $-1 $254 $254 $-1 $369 reversed $160 $-1 #
edge $-1 $370 0 $370 6.2831853071796004 $161 $371 forward 7 unknown #
vertex $-1 $164 $372 #
ellipse-curve $-1 -22.435150610320004 20.843552601236002 6.9964370945551391 0 0.70710678939079041 0.70710677298230451 1.5 0 0 1 I I #
face $-1 $-1 $373 $34 $-1 $374 reversed single #
loop $-1 $-1 $171 $165 #
plane-surface $-1 0 0 11.610922726078178 0 0 1 1 0 0 forward_v I I I I #
coedge $-1 $375 $376 $377 $378 reversed $166 $-1 #
coedge $-1 $379 $168 $170 $268 forward $104 $-1 #
coedge $-1 $168 $379 $375 $380 forward $104 $-1 #
coedge $-1 $377 $171 $168 $265 forward $259 $-1 #
edge $-1 $271 9.6998882370260731 $381 20.665316718985224 $264 $382 forward 7 unknown #
coedge $-1 $383 $384 $169 $267 forward $373 $-1 #
edge $-1 $385 -45.472925671065219 $270 -36.243954408019142 $266 $386 forward 7 unknown #
edge $-1 $271 37.864340075840992 $385 50.916076251358867 $170 $387 forward 7 unknown #
coedge $-1 $171 $377 $383 $388 forward $259 $-1 #
vertex $-1 $172 $389 #
vertex $-1 $172 $390 #
straight-curve $-1 24.882490715031722 23.389818341786608 11.610922726078179 0 -1 0 I I #
coedge $-1 $273 $273 $-1 $391 reversed $175 $-1 #
edge $-1 $392 0 $392 6.2831853071796004 $176 $393 forward 7 unknown #
vertex $-1 $179 $394 #
ellipse-curve $-1 30.365204956011297 20.843552601236002 6.9964370945551391 0 0.70710678939079041 0.70710677298230451 1.5 0 0 1 I I #
face $-1 $-1 $195 $27 $-1 $395 reversed single #
loop $-1 $-1 $293 $180 #
plane-surface $-1 0 25.458038125679426 0 0 -1 0 0 0 -1 forward_v I I I I #
coedge $-1 $396 $291 $294 $397 forward $181 $-1 #
coedge $-1 $297 $183 $184 $285 reversed $113 $-1 #
coedge $-1 $291 $396 $183 $283 reversed $181 $-1 #
edge $-1 $298 -11.610922726078178 $398 11.610922726078178 $282 $399 forward 7 unknown #
coedge $-1 $185 $184 $396 $400 forward $73 $-1 #
edge $-1 $289 -40.53468428601947 $398 40.53468428601947 $281 $401 forward 7 unknown #
coedge $-1 $294 $293 $185 $287 reversed $278 $-1 #
edge $-1 $402 -40.53468428601947 $288 40.53468428601947 $286 $403 forward 7 unknown #
vertex $-1 $187 $404 #
vertex $-1 $300 $405 #
straight-curve $-1 40.53468428601947 0 -11.610922726078178 0 -1 0 I I #
coedge $-1 $280 $282 $188 $292 reversed $181 $-1 #
edge $-1 $295 -25.458038125679426 $298 25.458038125679426 $291 $406 forward 7 unknown #
coedge $-1 $286 $189 $194 $301 forward $278 $-1 #
coedge $-1 $189 $286 $280 $397 reversed $278 $-1 #
vertex $-1 $190 $407 #
straight-curve $-1 0 25.458038125679426 11.610922726078178 -1 0 0 I I #
coedge $-1 $191 $281 $193 $300 reversed $113 $-1 #
vertex $-1 $292 $408 #
straight-curve $-1 0 -25.458038125679426 11.610922726078178 1 0 0 I I #
edge $-1 $196 -11.610922726078178 $289 11.610922726078178 $193 $409 forward 7 unknown #
edge $-1 $197 -11.610922726078178 $288 11.610922726078178 $194 $410 forward 7 unknown #
point $-1 40.53468428601947 -25.458038125679426 11.610922726078178 #
point $-1 40.53468428601947 25.458038125679426 11.610922726078178 #
face $-1 $-1 $313 $28 $-1 $411 reversed single #
loop $-1 $-1 $310 $199 #
plane-surface $-1 0 0 11.610922726078178 0 0 1 1 0 0 forward_v I I I I #
coedge $-1 $412 $413 $206 $316 forward $200 $-1 #
coedge $-1 $202 $320 $414 $415 reversed $121 $-1 #
edge $-1 $416 -7.4650327623570254 $212 -0.8267471650852789 $202 $417 forward 7 unknown #
coedge $-1 $414 $418 $203 $311 forward $305 $-1 #
edge $-1 $314 -25.458038125679426 $416 25.458038125679426 $310 $419 forward 7 unknown #
coedge $-1 $317 $204 $418 $420 reversed $313 $-1 #
loop $-1 $-1 $204 $304 #
vertex $-1 $205 $421 #
straight-curve $-1 -32.604629940328167 -25.458038125679426 4.1458899637211521 0 0 1 I I #
edge $-1 $321 -25.458038125679426 $318 25.458038125679426 $307 $422 forward 7 unknown #
coedge $-1 $207 $312 $412 $423 forward $313 $-1 #
vertex $-1 $316 $424 #
straight-curve $-1 -18.284828556586909 -25.458038125679426 4.9726371288064311 1 0 0 I I #
coedge $-1 $308 $209 $413 $425 reversed $121 $-1 #
vertex $-1 $316 $426 #
straight-curve $-1 -18.284828556586909 25.458038125679426 4.9726371288064311 -1 0 0 I I #
point $-1 -32.604629940328167 25.458038125679426 4.9726371288064311 #
point $-1 -32.604629940328167 -25.458038125679426 4.9726371288064311 #
plane-surface $-1 0 0 11.610922726078178 0 0 1 1 0 0 forward_v I I I I #
coedge $-1 $336 $335 $328 $427 forward $216 $-1 #
coedge $-1 $328 $218 $220 $332 reversed $129 $-1 #
coedge $-1 $218 $327 $326 $427 reversed $129 $-1 #
coedge $-1 $226 $221 $218 $330 forward $227 $-1 #
edge $-1 $333 -24.816093615209159 $428 -10.520720998190473 $329 $429 forward 7 unknown #
coedge $-1 $220 $219 $336 $430 reversed $81 $-1 #
edge $-1 $431 4.3111677576717944e-015 $333 17.451427738005162 $327 $432 forward 7 unknown #
vertex $-1 $222 $433 #
straight-curve $-1 9.2406487575003808 -11.162665508660741 11.610922726078178 -1 0 0 I I #
coedge $-1 $326 $223 $226 $340 reversed $216 $-1 #
coedge $-1 $223 $326 $331 $430 forward $216 $-1 #
vertex $-1 $224 $434 #
straight-curve $-1 26.991970882960278 -25.458038125679426 34.004666720626744 0 0 1 I I #
straight-curve $-1 26.991970882960278 -25.45803812567943 1.6011948658709798 0 -0.81915203911291934 -0.57357644374324357 I I #
edge $-1 $428 9.9706241470412458 $228 26.991970882960278 $335 $435 forward 7 unknown #
point $-1 26.991970882960278 -25.458038125679426 11.610922726078178 #
point $-1 26.991970882960278 -11.162665508660741 11.610922726078178 #
edge $-1 $436 1 $436 0 $231 $-1 forward 7 unknown #
vertex $-1 $232 $437 #
ellipse-curve $-1 14.83386607158954 -17.406584252532987 5.3153449747703156 0 -0.57357644374324357 0.81915203911291934 1.5 0 0 1 I I #
point $-1 16.33386607158954 -18.31035181717008 6.6060587959745778 #
edge $-1 $438 1 $438 0 $235 $-1 forward 7 unknown #
vertex $-1 $236 $439 #
ellipse-curve $-1 22.128728958411983 -17.406584252532987 5.3153449747703156 0 -0.57357644374324357 0.81915203911291934 1.5 0 0 1 I I #
point $-1 23.628728958411983 -18.31035181717008 6.6060587959745778 #
loop $-1 $-1 $247 $239 #
plane-surface $-1 0 25.458038125679426 0 0 -1 0 0 0 -1 forward_v I I I I #
coedge $-1 $354 $242 $244 $358 reversed $151 $-1 #
coedge $-1 $242 $353 $440 $441 reversed $151 $-1 #
coedge $-1 $250 $245 $242 $356 forward $240 $-1 #
edge $-1 $359 -7.1607512649940297 $442 2.0682197838928182 $355 $443 forward 7 unknown #
coedge $-1 $244 $243 $362 $444 reversed $95 $-1 #
edge $-1 $445 -50.916076251358867 $359 -37.864340075840992 $353 $446 forward 7 unknown #
vertex $-1 $246 $447 #
straight-curve $-1 -11.217575305160004 16.229067076792582 11.610922726078176 1 0 0 I I #
coedge $-1 $440 $247 $250 $366 reversed $351 $-1 #
coedge $-1 $247 $440 $357 $444 forward $351 $-1 #
vertex $-1 $248 $448 #
straight-curve $-1 -27.917864851299584 25.458038125679426 47.854877134097322 0 0 1 I I #
straight-curve $-1 -27.917864851299584 -10.545064245339887 38.385054669507134 0 0.70710677298230451 -0.70710678939079041 I I #
edge $-1 $442 16.952436369340433 $251 27.917864851299584 $361 $449 forward 7 unknown #
point $-1 -27.917864851299584 25.458038125679426 11.610922726078178 #
point $-1 -27.917864851299584 16.229067076792578 11.610922726078179 #
edge $-1 $450 1 $450 0 $254 $-1 forward 7 unknown #
vertex $-1 $255 $451 #
ellipse-curve $-1 -22.435150610320004 17.161135437570469 3.3140200163404732 0 0.70710678939079041 0.70710677298230451 1.5 0 0 1 I I #
point $-1 -20.935150610320004 20.843552601235999 6.9964370945551364 #
loop $-1 $-1 $266 $258 #
plane-surface $-1 0 25.458038125679426 0 0 -1 0 0 0 -1 forward_v I I I I #
coedge $-1 $376 $261 $263 $380 reversed $166 $-1 #
coedge $-1 $261 $375 $452 $453 reversed $166 $-1 #
coedge $-1 $269 $264 $261 $378 forward $259 $-1 #
edge $-1 $381 -7.1607512649940297 $454 2.0682197838928182 $377 $455 forward 7 unknown #
coedge $-1 $263 $262 $384 $456 reversed $104 $-1 #
edge $-1 $457 -50.916076251358867 $381 -37.864340075840992 $375 $458 forward 7 unknown #
vertex $-1 $265 $459 #
straight-curve $-1 15.182602478005649 16.229067076792582 11.610922726078176 1 0 0 I I #
coedge $-1 $452 $266 $269 $388 reversed $373 $-1 #
coedge $-1 $266 $452 $379 $456 forward $373 $-1 #
vertex $-1 $267 $460 #
straight-curve $-1 24.882490715031722 25.458038125679426 47.854877134097322 0 0 1 I I #
straight-curve $-1 24.882490715031722 -10.545064245339887 38.385054669507134 0 0.70710677298230451 -0.70710678939079041 I I #
edge $-1 $454 -35.847919196990873 $270 -24.882490715031722 $383 $461 forward 7 unknown #
point $-1 24.882490715031722 25.458038125679426 11.610922726078178 #
point $-1 24.882490715031722 16.229067076792578 11.610922726078179 #
edge $-1 $462 1 $462 0 $273 $-1 forward 7 unknown #
vertex $-1 $274 $463 #
ellipse-curve $-1 30.365204956011297 17.161135437570469 3.3140200163404732 0 0.70710678939079041 0.70710677298230451 1.5 0 0 1 I I #
point $-1 31.865204956011297 20.843552601235999 6.9964370945551364 #
plane-surface $-1 40.53468428601947 0 0 -1 0 0 0 0 1 forward_v I I I I #
coedge $-1 $282 $280 $284 $400 reversed $181 $-1 #
edge $-1 $295 -11.610922726078178 $402 11.610922726078178 $294 $464 forward 7 unknown #
vertex $-1 $400 $465 #
straight-curve $-1 -40.53468428601947 -25.458038125679426 0 0 0 -1 I I #
edge $-1 $398 -25.458038125679426 $402 25.458038125679426 $396 $466 forward 7 unknown #
straight-curve $-1 0 -25.458038125679426 -11.610922726078178 -1 0 0 I I #
vertex $-1 $287 $467 #
straight-curve $-1 0 25.458038125679426 -11.610922726078178 1 0 0 I I #
point $-1 40.53468428601947 25.458038125679426 -11.610922726078178 #
point $-1 40.53468428601947 -25.458038125679426 -11.610922726078178 #
straight-curve $-1 -40.53468428601947 0 11.610922726078178 0 -1 0 I I #
point $-1 -40.53468428601947 25.458038125679426 11.610922726078178 #
point $-1 -40.53468428601947 -25.458038125679426 11.610922726078178 #
straight-curve $-1 40.53468428601947 -25.458038125679426 0 0 0 -1 I I #
straight-curve $-1 40.53468428601947 25.458038125679426 0 0 0 -1 I I #
plane-surface $-1 0 -25.458038125679426 0 0 1 0 0 0 1 forward_v I I I I #
coedge $-1 $468 $307 $317 $423 reversed $200 $-1 #
coedge $-1 $307 $468 $320 $425 forward $200 $-1 #
coedge $-1 $469 $310 $308 $415 forward $305 $-1 #
edge $-1 $416 32.604629940328167 $470 40.53468428601947 $308 $471 forward 7 unknown #
vertex $-1 $415 $472 #
straight-curve $-1 -32.604629940328167 25.458038125679426 4.1458899637211521 0 0 -1 I I #
coedge $-1 $310 $469 $312 $420 forward $305 $-1 #
straight-curve $-1 -32.604629940328167 0 11.610922726078178 0 1 0 I I #
edge $-1 $473 -40.53468428601947 $314 -32.604629940328167 $312 $474 forward 7 unknown #
point $-1 -32.604629940328167 -25.458038125679426 11.610922726078178 #
straight-curve $-1 -40.53468428601947 0 4.9726371288064311 0 -1 0 I I #
edge $-1 $473 -11.610922726078178 $318 -4.9726371288064311 $412 $475 forward 7 unknown #
point $-1 -40.53468428601947 -25.458038125679426 4.9726371288064311 #
edge $-1 $470 -11.610922726078178 $321 -4.9726371288064311 $320 $476 forward 7 unknown #
point $-1 -40.53468428601947 25.458038125679426 4.9726371288064311 #
edge $-1 $428 22.393743994548565 $431 32.403471854755765 $326 $477 forward 7 unknown #
vertex $-1 $340 $478 #
straight-curve $-1 9.9706241470412458 -35.978759123869899 11.610922726078179 0 -1 0 I I #
edge $-1 $431 0.72997538954086494 $337 17.751322125459897 $336 $479 forward 7 unknown #
vertex $-1 $430 $480 #
straight-curve $-1 9.9706241470412458 -25.45803812567943 1.6011948658709798 0 0.81915203911291934 0.57357644374324357 I I #
point $-1 9.9706241470412458 -11.162665508660741 11.610922726078178 #
point $-1 26.991970882960278 -25.458038125679426 1.6011948658709823 #
straight-curve $-1 0 -25.458038125679426 11.610922726078178 1 0 0 I I #
vertex $-1 $343 $481 #
point $-1 16.33386607158954 -17.406584252532987 5.3153449747703156 #
vertex $-1 $347 $482 #
point $-1 23.628728958411983 -17.406584252532987 5.3153449747703156 #
coedge $-1 $362 $361 $354 $441 forward $351 $-1 #
edge $-1 $442 36.243954408019142 $445 45.472925671065219 $440 $483 forward 7 unknown #
vertex $-1 $366 $484 #
straight-curve $-1 -16.952436369340433 23.389818341786608 11.610922726078179 0 1 0 I I #
edge $-1 $445 5.7348610641804285 $363 16.700289546139579 $362 $485 forward 7 unknown #
vertex $-1 $444 $486 #
straight-curve $-1 -16.952436369340433 -10.545064245339887 38.385054669507134 0 -0.70710677298230451 0.70710678939079041 I I #
point $-1 -16.952436369340433 16.229067076792578 11.610922726078179 #
point $-1 -27.917864851299584 25.458038125679423 2.3819514630321024 #
straight-curve $-1 0 25.458038125679426 11.610922726078178 -1 0 0 I I #
vertex $-1 $369 $487 #
point $-1 -20.935150610320004 17.161135437570469 3.3140200163404732 #
coedge $-1 $384 $383 $376 $453 forward $373 $-1 #
edge $-1 $454 36.243954408019142 $457 45.472925671065219 $452 $488 forward 7 unknown #
vertex $-1 $388 $489 #
straight-curve $-1 35.847919196990873 23.389818341786608 11.610922726078179 0 1 0 I I #
edge $-1 $457 -20.665316718985224 $385 -9.6998882370260731 $384 $490 forward 7 unknown #
vertex $-1 $456 $491 #
straight-curve $-1 35.847919196990873 -10.545064245339887 38.385054669507134 0 -0.70710677298230451 0.70710678939079041 I I #
point $-1 35.847919196990873 16.229067076792578 11.610922726078179 #
point $-1 24.882490715031722 25.458038125679423 2.3819514630321024 #
straight-curve $-1 0 25.458038125679426 11.610922726078178 -1 0 0 I I #
vertex $-1 $391 $492 #
point $-1 31.865204956011297 17.161135437570469 3.3140200163404732 #
straight-curve $-1 -40.53468428601947 25.458038125679426 0 0 0 -1 I I #
point $-1 -40.53468428601947 -25.458038125679426 -11.610922726078178 #
straight-curve $-1 -40.53468428601947 0 -11.610922726078178 0 1 0 I I #
point $-1 -40.53468428601947 25.458038125679426 -11.610922726078178 #
coedge $-1 $413 $412 $469 $493 reversed $200 $-1 #
coedge $-1 $418 $414 $468 $493 forward $305 $-1 #
vertex $-1 $415 $494 #
straight-curve $-1 0 25.458038125679426 11.610922726078178 -1 0 0 I I #
point $-1 -32.604629940328167 25.458038125679426 11.610922726078178 #
vertex $-1 $493 $495 #
straight-curve $-1 0 -25.458038125679426 11.610922726078178 1 0 0 I I #
straight-curve $-1 -40.53468428601947 -25.458038125679426 0 0 0 -1 I I #
straight-curve $-1 -40.53468428601947 25.458038125679426 0 0 0 -1 I I #
straight-curve $-1 9.9706241470412458 -25.458038125679426 34.004666720626744 0 0 -1 I I #
point $-1 9.9706241470412458 -25.458038125679426 11.610922726078178 #
straight-curve $-1 9.2406487575003808 -25.458038125679426 1.6011948658709838 1 0 0 I I #
point $-1 9.9706241470412458 -25.458038125679426 1.6011948658709823 #
point $-1 14.83386607158954 -16.54621958691812 4.0866169161009367 #
point $-1 22.128728958411983 -16.54621958691812 4.0866169161009367 #
straight-curve $-1 -16.952436369340433 25.458038125679426 47.854877134097322 0 0 -1 I I #
point $-1 -16.952436369340433 25.458038125679426 11.610922726078178 #
straight-curve $-1 -11.217575305160004 25.458038125679426 2.3819514630321024 -1 0 0 I I #
point $-1 -16.952436369340433 25.458038125679423 2.3819514630321024 #
point $-1 -22.435150610320004 16.10047525348428 2.2533598568670161 #
straight-curve $-1 35.847919196990873 25.458038125679426 47.854877134097322 0 0 -1 I I #
point $-1 35.847919196990873 25.458038125679426 11.610922726078178 #
straight-curve $-1 15.182602478005649 25.458038125679426 2.3819514630321024 -1 0 0 I I #
point $-1 35.847919196990873 25.458038125679423 2.3819514630321024 #
point $-1 30.365204956011297 16.10047525348428 2.2533598568670161 #
edge $-1 $470 -25.458038125679426 $473 25.458038125679426 $468 $496 forward 7 unknown #
point $-1 -40.53468428601947 25.458038125679426 11.610922726078178 #
point $-1 -40.53468428601947 -25.458038125679426 11.610922726078178 #
straight-curve $-1 -40.53468428601947 0 11.610922726078178 0 -1 0 I I #
End-of-ACIS-data 