500 0 9 0           
7 Unknown 11 ACIS 5.0 NT 24 Fri Mar 26 00:18:50 1999 
-1 9.9999999999999995e-007 1e-010 
body $-1 $9 $-1 $10 #
body $-1 $11 $-1 $12 #
body $-1 $13 $-1 $14 #
body $-1 $15 $-1 $16 #
body $-1 $17 $-1 $18 #
body $-1 $19 $-1 $20 #
body $-1 $21 $-1 $22 #
body $-1 $23 $-1 $24 #
body $-1 $25 $-1 $26 #
lump $-1 $-1 $27 $0 #
transform $-1 1 0 0 0 1 0 0 0 1 49.367961668752102 23.565152490761584 10.354082260810959 1 rotate no_reflect no_shear #
lump $-1 $-1 $28 $1 #
transform $-1 1 0 0 0 1 0 0 0 1 49.367961668752102 23.565152490761584 10.354082260810959 1 rotate no_reflect no_shear #
lump $-1 $-1 $29 $2 #
transform $-1 1 0 0 0 1 0 0 0 1 49.367961668752102 23.565152490761584 10.354082260810959 1 rotate no_reflect no_shear #
lump $-1 $-1 $30 $3 #
transform $-1 1 0 0 0 1 0 0 0 1 49.367961668752102 23.565152490761584 10.354082260810959 1 rotate no_reflect no_shear #
lump $-1 $-1 $31 $4 #
transform $-1 1 0 0 0 1 0 0 0 1 49.367961668752102 23.565152490761584 10.354082260810959 1 rotate no_reflect no_shear #
lump $-1 $-1 $32 $5 #
transform $-1 1 0 0 0 1 0 0 0 1 49.367961668752102 23.565152490761584 10.354082260810959 1 rotate no_reflect no_shear #
lump $-1 $-1 $33 $6 #
transform $-1 1 0 0 0 1 0 0 0 1 49.367961668752102 23.565152490761584 10.354082260810959 1 rotate no_reflect no_shear #
lump $-1 $-1 $34 $7 #
transform $-1 1 0 0 0 1 0 0 0 1 49.367961668752102 23.565152490761584 10.354082260810959 1 rotate no_reflect no_shear #
lump $-1 $-1 $35 $8 #
transform $-1 1 0 0 0 1 0 0 0 1 49.367961668752102 23.565152490761584 10.354082260810959 1 rotate no_reflect no_shear #
shell $-1 $-1 $-1 $36 $-1 $9 #
shell $-1 $-1 $-1 $37 $-1 $11 #
shell $-1 $-1 $-1 $38 $-1 $13 #
shell $-1 $-1 $-1 $39 $-1 $15 #
shell $-1 $-1 $-1 $40 $-1 $17 #
shell $-1 $-1 $-1 $41 $-1 $19 #
shell $-1 $-1 $-1 $42 $-1 $21 #
shell $-1 $-1 $-1 $43 $-1 $23 #
shell $-1 $-1 $-1 $44 $-1 $25 #
face $-1 $45 $46 $27 $-1 $47 forward single #
face $-1 $48 $49 $28 $-1 $50 forward single #
face $-1 $51 $52 $29 $-1 $53 reversed single #
face $-1 $54 $55 $30 $-1 $56 reversed single #
face $-1 $57 $58 $31 $-1 $59 forward single #
face $-1 $60 $61 $32 $-1 $62 forward single #
face $-1 $63 $64 $33 $-1 $65 reversed single #
face $-1 $66 $67 $34 $-1 $68 forward single #
face $-1 $69 $70 $35 $-1 $71 forward single #
face $-1 $72 $73 $27 $-1 $74 reversed single #
loop $-1 $-1 $75 $36 #
plane-surface $-1 0 0 10.354082260810959 0 0 1 1 0 0 forward_v I I I I #
face $-1 $76 $77 $28 $-1 $78 reversed single #
loop $-1 $-1 $79 $37 #
plane-surface $-1 -49.367961668752102 0 0 1 0 0 0 0 -1 forward_v I I I I #
face $-1 $80 $81 $29 $-1 $82 reversed single #
loop $-1 $-1 $83 $38 #
plane-surface $-1 42.549387553507628 0 7.3540822608109586 0 0 1 1 0 0 forward_v I I I I #
face $-1 $84 $85 $30 $-1 $86 reversed single #
loop $-1 $-1 $87 $39 #
plane-surface $-1 -16.129432720390447 -74.41791304743856 91.908060966795858 -1 0 0 0 -0.51503808176128008 0.85716729658548041 forward_v I I I I #
face $-1 $88 $89 $31 $-1 $90 forward single #
loop $-1 $91 $92 $40 #
cone-surface $-1 -29.518415992302288 -20.11556146659527 7.3378458672017235 0 0.51503808176128008 -0.85716729658548041 1 0 0 1 I I 0 1 1 forward I I I I #
face $-1 $93 $94 $32 $-1 $95 forward single #
loop $-1 $96 $97 $41 #
cone-surface $-1 -21.485026029155183 -20.11556146659527 7.3378458672017235 0 0.51503808176128008 -0.85716729658548041 1 0 0 1 I I 0 1 1 forward I I I I #
face $-1 $98 $99 $33 $-1 $100 reversed single #
loop $-1 $-1 $101 $42 #
plane-surface $-1 13.299920501552549 45.345980345301236 112.82257083757828 1 0 0 0 -0.6018150307709319 -0.79863550430605224 forward_v I I I I #
face $-1 $102 $103 $34 $-1 $104 forward single #
loop $-1 $105 $106 $43 #
cone-surface $-1 17.721536310490904 19.771228213922747 7.1265786304874705 0 -0.6018150307709319 -0.79863550430605224 1 0 0 1 I I 0 1 1 forward I I I I #
face $-1 $107 $108 $35 $-1 $109 forward single #
loop $-1 $110 $111 $44 #
cone-surface $-1 24.353960023898438 19.771228213922747 7.1265786304874705 0 -0.6018150307709319 -0.79863550430605224 1 0 0 1 I I 0 1 1 forward I I I I #
face $-1 $112 $113 $27 $-1 $114 reversed single #
loop $-1 $-1 $115 $45 #
plane-surface $-1 0 0 -10.354082260810959 0 0 1 1 0 0 forward_v I I I I #
coedge $-1 $116 $117 $118 $119 forward $46 $-1 #
face $-1 $120 $121 $28 $-1 $122 forward single #
loop $-1 $-1 $123 $48 #
plane-surface $-1 0 23.565152490761584 0 0 -1 0 0 0 -1 forward_v I I I I #
coedge $-1 $124 $125 $126 $127 forward $49 $-1 #
face $-1 $128 $129 $29 $-1 $130 reversed single #
loop $-1 $-1 $131 $51 #
plane-surface $-1 35.730813438263162 0 8.8540822608109586 1 0 0 0 0 -1 forward_v I I I I #
coedge $-1 $132 $133 $134 $135 reversed $52 $-1 #
face $-1 $136 $137 $30 $-1 $138 reversed single #
loop $-1 $-1 $139 $54 #
plane-surface $-1 -25.501721010728737 -23.565152490761591 7.2748564837161354 0 -0.51503808176128008 0.85716729658548041 1 0 0 forward_v I I I I #
coedge $-1 $140 $141 $142 $143 reversed $55 $-1 #
face $-1 $-1 $144 $31 $-1 $145 forward single #
loop $-1 $146 $147 $57 #
cone-surface $-1 -29.518415992302288 -18.970797496328998 5.4326387138471652 0 0.51503808176128008 -0.85716729658548041 0.5 0 0 1 I I -0.70710678118654746 0.70710678118654746 0.5 forward I I I I #
loop $-1 $-1 $148 $40 #
coedge $-1 $92 $92 $149 $150 reversed $58 $-1 #
face $-1 $-1 $151 $32 $-1 $152 forward single #
loop $-1 $153 $154 $60 #
cone-surface $-1 -21.485026029155183 -18.970797496328998 5.4326387138471652 0 0.51503808176128008 -0.85716729658548041 0.5 0 0 1 I I -0.70710678118654746 0.70710678118654746 0.5 forward I I I I #
loop $-1 $-1 $155 $41 #
coedge $-1 $97 $97 $156 $157 reversed $61 $-1 #
face $-1 $158 $159 $33 $-1 $160 reversed single #
loop $-1 $-1 $161 $63 #
plane-surface $-1 21.037748167194664 -14.07478239625523 33.968556909806907 0 0.6018150307709319 0.79863550430605224 1 0 0 forward_v I I I I #
coedge $-1 $162 $163 $164 $165 reversed $64 $-1 #
face $-1 $-1 $166 $34 $-1 $167 forward single #
loop $-1 $168 $169 $66 #
cone-surface $-1 17.721536310490904 18.827631027091869 5.874382894862368 0 -0.6018150307709319 -0.79863550430605224 0.5 0 0 1 I I -0.70710678118654746 0.70710678118654746 0.5 forward I I I I #
loop $-1 $-1 $170 $43 #
coedge $-1 $106 $106 $171 $172 reversed $67 $-1 #
face $-1 $-1 $173 $35 $-1 $174 forward single #
loop $-1 $175 $176 $69 #
cone-surface $-1 24.353960023898438 18.827631027091869 5.874382894862368 0 -0.6018150307709319 -0.79863550430605224 0.5 0 0 1 I I -0.70710678118654746 0.70710678118654746 0.5 forward I I I I #
loop $-1 $-1 $177 $44 #
coedge $-1 $111 $111 $178 $179 reversed $70 $-1 #
face $-1 $180 $181 $27 $-1 $182 reversed single #
loop $-1 $-1 $183 $72 #
plane-surface $-1 0 -23.565152490761584 0 0 1 0 0 0 1 forward_v I I I I #
coedge $-1 $184 $185 $186 $187 forward $73 $-1 #
coedge $-1 $188 $75 $189 $190 forward $46 $-1 #
coedge $-1 $75 $188 $191 $192 forward $46 $-1 #
coedge $-1 $193 $194 $75 $119 reversed $195 $-1 #
edge $-1 $196 -23.565152490761584 $197 23.565152490761584 $118 $198 forward 7 unknown #
face $-1 $199 $200 $28 $-1 $201 reversed single #
loop $-1 $-1 $126 $76 #
plane-surface $-1 -55.234903133616214 0 -7.3540822608109586 0 0 1 1 0 0 forward_v I I I I #
coedge $-1 $202 $203 $125 $204 forward $77 $-1 #
coedge $-1 $205 $79 $206 $207 reversed $49 $-1 #
coedge $-1 $79 $205 $123 $204 reversed $49 $-1 #
coedge $-1 $208 $209 $79 $127 reversed $121 $-1 #
edge $-1 $210 -23.565152490761584 $211 23.565152490761584 $126 $212 forward 7 unknown #
face $-1 $213 $214 $29 $-1 $215 reversed single #
loop $-1 $-1 $134 $80 #
plane-surface $-1 49.367961668752102 0 0 -1 0 0 0 0 1 forward_v I I I I #
coedge $-1 $216 $217 $218 $219 reversed $81 $-1 #
coedge $-1 $220 $83 $221 $222 reversed $52 $-1 #
coedge $-1 $83 $220 $223 $224 reversed $52 $-1 #
coedge $-1 $225 $226 $83 $135 forward $129 $-1 #
edge $-1 $227 -23.565152490761584 $228 23.565152490761584 $134 $229 forward 7 unknown #
face $-1 $230 $231 $30 $-1 $232 forward single #
loop $-1 $-1 $233 $84 #
plane-surface $-1 -34.874009301067026 -74.41791304743856 91.908060966795858 1 0 0 0 0.51503808176128008 -0.85716729658548041 forward_v I I I I #
coedge $-1 $234 $235 $236 $237 reversed $85 $-1 #
coedge $-1 $141 $87 $238 $239 reversed $55 $-1 #
coedge $-1 $87 $140 $234 $240 reversed $55 $-1 #
coedge $-1 $236 $241 $87 $143 forward $231 $-1 #
edge $-1 $242 13.643804032957696 $243 18.768496222519044 $142 $244 forward 7 unknown #
loop $-1 $-1 $149 $88 #
plane-surface $-1 -25.501721010728737 -23.565152490761591 7.2748564837161354 0 -0.51503808176128008 0.85716729658548041 1 0 0 forward_v I I I I #
loop $-1 $-1 $245 $57 #
coedge $-1 $147 $147 $148 $246 reversed $89 $-1 #
coedge $-1 $148 $148 $147 $246 forward $91 $-1 #
coedge $-1 $149 $149 $92 $150 forward $144 $-1 #
edge $-1 $247 1.5160828637581882e-015 $247 6.2831853071796022 $149 $248 forward 7 unknown #
loop $-1 $-1 $156 $93 #
plane-surface $-1 -25.501721010728737 -23.565152490761591 7.2748564837161354 0 -0.51503808176128008 0.85716729658548041 1 0 0 forward_v I I I I #
loop $-1 $-1 $249 $60 #
coedge $-1 $154 $154 $155 $250 reversed $94 $-1 #
coedge $-1 $155 $155 $154 $250 forward $96 $-1 #
coedge $-1 $156 $156 $97 $157 forward $151 $-1 #
edge $-1 $251 1.5160828637581882e-015 $251 6.2831853071796022 $156 $252 forward 7 unknown #
face $-1 $253 $254 $33 $-1 $255 reversed single #
loop $-1 $-1 $256 $98 #
plane-surface $-1 28.775575832836779 45.345980345301236 112.82257083757828 -1 0 0 0 0.6018150307709319 0.79863550430605224 forward_v I I I I #
coedge $-1 $257 $258 $259 $260 reversed $99 $-1 #
coedge $-1 $163 $101 $261 $262 reversed $64 $-1 #
coedge $-1 $101 $162 $257 $263 reversed $64 $-1 #
coedge $-1 $259 $264 $101 $165 forward $265 $-1 #
edge $-1 $266 -0.89216231811096591 $267 5.4103068926758731 $164 $268 forward 7 unknown #
loop $-1 $-1 $171 $102 #
plane-surface $-1 21.037748167194664 -14.07478239625523 33.968556909806907 0 0.6018150307709319 0.79863550430605224 1 0 0 forward_v I I I I #
loop $-1 $-1 $269 $66 #
coedge $-1 $169 $169 $170 $270 reversed $103 $-1 #
coedge $-1 $170 $170 $169 $270 forward $105 $-1 #
coedge $-1 $171 $171 $106 $172 forward $166 $-1 #
edge $-1 $271 1.7682850345600311e-015 $271 6.2831853071796022 $171 $272 forward 7 unknown #
loop $-1 $-1 $178 $107 #
plane-surface $-1 21.037748167194664 -14.07478239625523 33.968556909806907 0 0.6018150307709319 0.79863550430605224 1 0 0 forward_v I I I I #
loop $-1 $-1 $273 $69 #
coedge $-1 $176 $176 $177 $274 reversed $108 $-1 #
coedge $-1 $177 $177 $176 $274 forward $110 $-1 #
coedge $-1 $178 $178 $111 $179 forward $173 $-1 #
edge $-1 $275 1.7682850345600311e-015 $275 6.2831853071796022 $178 $276 forward 7 unknown #
face $-1 $277 $278 $27 $-1 $279 reversed single #
loop $-1 $-1 $280 $112 #
plane-surface $-1 -49.367961668752102 0 0 1 0 0 0 0 -1 forward_v I I I I #
coedge $-1 $281 $191 $282 $283 forward $113 $-1 #
coedge $-1 $284 $115 $281 $285 forward $73 $-1 #
coedge $-1 $115 $284 $286 $287 forward $73 $-1 #
coedge $-1 $194 $193 $115 $187 reversed $195 $-1 #
edge $-1 $288 -23.565152490761584 $289 23.565152490761584 $186 $290 forward 7 unknown #
coedge $-1 $117 $116 $291 $292 forward $46 $-1 #
coedge $-1 $293 $294 $116 $190 reversed $278 $-1 #
edge $-1 $197 -49.367961668752102 $295 49.367961668752102 $189 $296 forward 7 unknown #
coedge $-1 $183 $297 $117 $192 reversed $113 $-1 #
edge $-1 $298 -49.367961668752102 $196 49.367961668752102 $191 $299 forward 7 unknown #
coedge $-1 $186 $118 $297 $300 forward $195 $-1 #
coedge $-1 $118 $186 $293 $301 reversed $195 $-1 #
loop $-1 $-1 $193 $277 #
vertex $-1 $119 $302 #
vertex $-1 $119 $303 #
straight-curve $-1 49.367961668752102 0 10.354082260810959 0 1 0 I I #
face $-1 $304 $305 $28 $-1 $306 reversed single #
loop $-1 $-1 $307 $120 #
plane-surface $-1 -61.101844598480326 0 -8.8540822608109586 1 0 0 0 0 -1 forward_v I I I I #
coedge $-1 $308 $123 $309 $310 reversed $77 $-1 #
coedge $-1 $123 $308 $208 $311 reversed $77 $-1 #
edge $-1 $210 7.3540822608109586 $312 10.354082260810959 $123 $313 forward 7 unknown #
coedge $-1 $125 $124 $314 $315 reversed $49 $-1 #
coedge $-1 $316 $317 $124 $207 forward $318 $-1 #
edge $-1 $319 -10.354082260810959 $211 -7.3540822608109586 $206 $320 forward 7 unknown #
coedge $-1 $321 $126 $203 $311 forward $121 $-1 #
coedge $-1 $126 $321 $316 $322 forward $121 $-1 #
vertex $-1 $204 $323 #
vertex $-1 $322 $324 #
straight-curve $-1 -49.367961668752102 0 -7.3540822608109586 0 -1 0 I I #
face $-1 $325 $326 $29 $-1 $327 forward single #
loop $-1 $-1 $223 $128 #
plane-surface $-1 0 23.565152490761584 0 0 -1 0 0 0 -1 forward_v I I I I #
coedge $-1 $328 $131 $220 $329 reversed $81 $-1 #
coedge $-1 $131 $328 $330 $331 reversed $81 $-1 #
coedge $-1 $332 $223 $131 $219 forward $214 $-1 #
edge $-1 $333 2.9270411304054793 $334 5.9270411304054793 $218 $335 forward 7 unknown #
coedge $-1 $133 $132 $216 $329 forward $52 $-1 #
coedge $-1 $336 $337 $132 $222 forward $338 $-1 #
edge $-1 $339 14.456119661509348 $227 28.093267891998281 $221 $340 forward 7 unknown #
coedge $-1 $218 $341 $133 $224 forward $214 $-1 #
edge $-1 $228 -28.093267891998281 $333 -14.456119661509348 $223 $342 forward 7 unknown #
coedge $-1 $343 $134 $341 $344 reversed $129 $-1 #
coedge $-1 $134 $343 $336 $345 forward $129 $-1 #
vertex $-1 $135 $346 #
vertex $-1 $135 $347 #
straight-curve $-1 49.367961668752102 0 7.3540822608109586 0 1 0 I I #
face $-1 $-1 $348 $30 $-1 $349 reversed single #
loop $-1 $-1 $142 $136 #
plane-surface $-1 0 0 10.354082260810959 0 0 1 1 0 0 forward_v I I I I #
coedge $-1 $350 $351 $352 $353 reversed $137 $-1 #
coedge $-1 $354 $139 $141 $240 forward $85 $-1 #
coedge $-1 $139 $354 $350 $355 forward $85 $-1 #
coedge $-1 $352 $142 $139 $237 forward $231 $-1 #
edge $-1 $243 3.3785722150260789 $356 22.123148795702658 $236 $357 forward 7 unknown #
coedge $-1 $358 $359 $140 $239 forward $348 $-1 #
edge $-1 $360 -38.679173999681787 $242 -35.599948222586974 $238 $361 forward 7 unknown #
edge $-1 $243 -5.978637087503837 $360 -8.3777685069199533e-015 $141 $362 forward 7 unknown #
coedge $-1 $142 $352 $358 $363 forward $231 $-1 #
vertex $-1 $239 $364 #
vertex $-1 $143 $365 #
straight-curve $-1 -16.129432720390447 -37.20895652371928 10.354082260810962 0 1 0 I I #
coedge $-1 $245 $245 $-1 $366 reversed $146 $-1 #
edge $-1 $367 0 $367 6.2831853071796004 $147 $368 forward 7 unknown #
vertex $-1 $150 $369 #
ellipse-curve $-1 -29.518415992302288 -21.002806395980908 8.8144693722635505 0 -0.51503808176128008 0.85716729658548041 1 0 0 1 I I #
coedge $-1 $249 $249 $-1 $370 reversed $153 $-1 #
edge $-1 $371 0 $371 6.2831853071796004 $154 $372 forward 7 unknown #
vertex $-1 $157 $373 #
ellipse-curve $-1 -21.485026029155183 -21.002806395980908 8.8144693722635505 0 -0.51503808176128008 0.85716729658548041 1 0 0 1 I I #
face $-1 $-1 $265 $33 $-1 $374 forward single #
loop $-1 $-1 $375 $158 #
plane-surface $-1 0 23.565152490761584 0 0 -1 0 0 0 -1 forward_v I I I I #
coedge $-1 $376 $377 $378 $379 reversed $159 $-1 #
coedge $-1 $380 $161 $163 $263 forward $99 $-1 #
coedge $-1 $161 $380 $376 $381 forward $99 $-1 #
coedge $-1 $378 $164 $161 $260 forward $265 $-1 #
edge $-1 $267 2.781046417955217 $382 18.256701749239447 $259 $383 forward 7 unknown #
coedge $-1 $384 $385 $162 $262 forward $254 $-1 #
edge $-1 $386 -50.806454451681013 $266 -46.057203157978179 $261 $387 forward 7 unknown #
edge $-1 $267 39.238758491534412 $386 47.130304981523182 $163 $388 forward 7 unknown #
coedge $-1 $164 $378 $384 $389 forward $265 $-1 #
loop $-1 $-1 $378 $253 #
vertex $-1 $262 $390 #
vertex $-1 $165 $391 #
straight-curve $-1 13.299920501552549 22.672990172650618 10.354082260810955 0 -1 0 I I #
coedge $-1 $269 $269 $-1 $392 reversed $168 $-1 #
edge $-1 $393 0 $393 6.2831853071796004 $169 $394 forward 7 unknown #
vertex $-1 $172 $395 #
ellipse-curve $-1 17.721536310490904 20.413917885368157 7.9794566139595453 0 0.6018150307709319 0.79863550430605224 1 0 0 1 I I #
coedge $-1 $273 $273 $-1 $396 reversed $175 $-1 #
edge $-1 $397 0 $397 6.2831853071796004 $176 $398 forward 7 unknown #
vertex $-1 $179 $399 #
ellipse-curve $-1 24.353960023898438 20.413917885368157 7.9794566139595453 0 0.6018150307709319 0.79863550430605224 1 0 0 1 I I #
face $-1 $-1 $195 $27 $-1 $400 reversed single #
loop $-1 $-1 $293 $180 #
plane-surface $-1 0 23.565152490761584 0 0 -1 0 0 0 -1 forward_v I I I I #
coedge $-1 $401 $291 $294 $402 forward $181 $-1 #
coedge $-1 $297 $183 $184 $285 reversed $113 $-1 #
coedge $-1 $291 $401 $183 $283 reversed $181 $-1 #
edge $-1 $298 -10.354082260810959 $403 10.354082260810959 $282 $404 forward 7 unknown #
coedge $-1 $185 $184 $401 $405 forward $73 $-1 #
edge $-1 $289 -49.367961668752102 $403 49.367961668752102 $281 $406 forward 7 unknown #
coedge $-1 $294 $293 $185 $287 reversed $278 $-1 #
edge $-1 $407 -49.367961668752102 $288 49.367961668752102 $286 $408 forward 7 unknown #
vertex $-1 $187 $409 #
vertex $-1 $300 $410 #
straight-curve $-1 49.367961668752102 0 -10.354082260810959 0 -1 0 I I #
coedge $-1 $280 $282 $188 $292 reversed $181 $-1 #
edge $-1 $295 -23.565152490761584 $298 23.565152490761584 $291 $411 forward 7 unknown #
coedge $-1 $286 $189 $194 $301 forward $278 $-1 #
coedge $-1 $189 $286 $280 $402 reversed $278 $-1 #
vertex $-1 $190 $412 #
straight-curve $-1 0 23.565152490761584 10.354082260810959 -1 0 0 I I #
coedge $-1 $191 $281 $193 $300 reversed $113 $-1 #
vertex $-1 $292 $413 #
straight-curve $-1 0 -23.565152490761584 10.354082260810959 1 0 0 I I #
edge $-1 $196 -10.354082260810959 $289 10.354082260810959 $193 $414 forward 7 unknown #
edge $-1 $197 -10.354082260810959 $288 10.354082260810959 $194 $415 forward 7 unknown #
point $-1 49.367961668752102 -23.565152490761584 10.354082260810959 #
point $-1 49.367961668752102 23.565152490761584 10.354082260810959 #
face $-1 $-1 $318 $28 $-1 $416 reversed single #
loop $-1 $-1 $314 $199 #
plane-surface $-1 0 0 -10.354082260810959 0 0 1 1 0 0 forward_v I I I I #
coedge $-1 $417 $418 $308 $419 forward $200 $-1 #
coedge $-1 $203 $202 $307 $419 reversed $77 $-1 #
coedge $-1 $314 $420 $202 $310 forward $305 $-1 #
edge $-1 $421 -61.101844598480326 $312 -49.367961668752102 $202 $422 forward 7 unknown #
edge $-1 $210 -5.8669414648641123 $423 5.8669414648641123 $203 $424 forward 7 unknown #
vertex $-1 $204 $425 #
straight-curve $-1 -49.367961668752102 23.565152490761584 0 0 0 -1 I I #
coedge $-1 $426 $309 $205 $315 forward $305 $-1 #
edge $-1 $312 -23.565152490761584 $319 23.565152490761584 $314 $427 forward 7 unknown #
coedge $-1 $428 $206 $209 $322 reversed $318 $-1 #
coedge $-1 $206 $428 $426 $429 reversed $318 $-1 #
loop $-1 $-1 $206 $304 #
vertex $-1 $429 $430 #
straight-curve $-1 -49.367961668752102 -23.565152490761584 0 0 0 1 I I #
coedge $-1 $209 $208 $418 $431 forward $121 $-1 #
edge $-1 $432 -5.8669414648641123 $211 5.8669414648641123 $316 $433 forward 7 unknown #
point $-1 -49.367961668752102 23.565152490761584 -7.3540822608109586 #
point $-1 -49.367961668752102 -23.565152490761584 -7.3540822608109586 #
face $-1 $-1 $338 $29 $-1 $434 reversed single #
loop $-1 $-1 $330 $213 #
plane-surface $-1 0 0 10.354082260810959 0 0 1 1 0 0 forward_v I I I I #
coedge $-1 $217 $216 $337 $435 reversed $81 $-1 #
edge $-1 $339 -23.565152490761584 $333 23.565152490761584 $216 $436 forward 7 unknown #
coedge $-1 $437 $438 $217 $331 forward $326 $-1 #
edge $-1 $334 -23.565152490761584 $439 23.565152490761584 $330 $440 forward 7 unknown #
coedge $-1 $341 $218 $438 $441 reversed $214 $-1 #
vertex $-1 $224 $442 #
vertex $-1 $219 $443 #
straight-curve $-1 35.730813438263162 23.565152490761584 4.4270411304054793 0 0 1 I I #
coedge $-1 $444 $221 $226 $345 reversed $338 $-1 #
coedge $-1 $221 $444 $328 $435 forward $338 $-1 #
loop $-1 $-1 $221 $325 #
vertex $-1 $222 $445 #
straight-curve $-1 21.274693776753814 -23.565152490761584 7.3540822608109586 1 0 0 I I #
coedge $-1 $223 $332 $225 $344 forward $214 $-1 #
straight-curve $-1 21.274693776753814 23.565152490761584 7.3540822608109586 -1 0 0 I I #
coedge $-1 $226 $225 $446 $447 reversed $129 $-1 #
edge $-1 $448 -10.354082260810959 $228 -7.3540822608109586 $225 $449 forward 7 unknown #
edge $-1 $450 -10.354082260810959 $227 -7.3540822608109586 $226 $451 forward 7 unknown #
point $-1 49.367961668752095 -23.565152490761584 7.3540822608109586 #
point $-1 49.367961668752095 23.565152490761584 7.3540822608109586 #
loop $-1 $-1 $238 $230 #
plane-surface $-1 0 -23.565152490761584 0 0 1 0 0 0 1 forward_v I I I I #
coedge $-1 $351 $233 $235 $355 reversed $137 $-1 #
coedge $-1 $233 $350 $452 $453 reversed $137 $-1 #
coedge $-1 $241 $236 $233 $353 forward $231 $-1 #
edge $-1 $356 -18.768496222519044 $454 -13.643804032957696 $352 $455 forward 7 unknown #
coedge $-1 $235 $234 $359 $456 reversed $85 $-1 #
edge $-1 $457 8.3777685069199533e-015 $356 5.978637087503837 $350 $458 forward 7 unknown #
vertex $-1 $237 $459 #
straight-curve $-1 -12.750860505364368 -18.440460301200233 10.354082260810959 -1 0 0 I I #
coedge $-1 $452 $238 $241 $363 reversed $348 $-1 #
coedge $-1 $238 $452 $354 $456 forward $348 $-1 #
vertex $-1 $239 $460 #
straight-curve $-1 -16.129432720390447 -23.565152490761584 45.954030483397929 0 0 1 I I #
straight-curve $-1 -16.129432720390447 -23.565152490761591 7.2748564837161354 0 -0.85716729658548041 -0.51503808176128008 I I #
edge $-1 $454 -34.874009301067026 $242 -16.129432720390447 $358 $461 forward 7 unknown #
point $-1 -16.129432720390447 -23.565152490761584 10.354082260810959 #
point $-1 -16.129432720390447 -18.440460301200236 10.354082260810959 #
edge $-1 $462 1 $462 0 $245 $-1 forward 7 unknown #
vertex $-1 $246 $463 #
ellipse-curve $-1 -29.518415992302288 -19.22831653720964 5.8612223621399053 0 -0.51503808176128008 0.85716729658548041 1 0 0 1 I I #
point $-1 -28.518415992302288 -21.002806395980901 8.8144693722635417 #
edge $-1 $464 1 $464 0 $249 $-1 forward 7 unknown #
vertex $-1 $250 $465 #
ellipse-curve $-1 -21.485026029155183 -19.22831653720964 5.8612223621399053 0 -0.51503808176128008 0.85716729658548041 1 0 0 1 I I #
point $-1 -20.485026029155183 -21.002806395980901 8.8144693722635417 #
plane-surface $-1 0 0 10.354082260810959 0 0 1 1 0 0 forward_v I I I I #
coedge $-1 $385 $384 $377 $466 forward $254 $-1 #
coedge $-1 $377 $256 $258 $381 reversed $159 $-1 #
coedge $-1 $256 $376 $375 $466 reversed $159 $-1 #
coedge $-1 $264 $259 $256 $379 forward $265 $-1 #
edge $-1 $382 -5.4103068926758731 $467 0.89216231811096591 $378 $468 forward 7 unknown #
coedge $-1 $258 $257 $385 $469 reversed $99 $-1 #
edge $-1 $470 -47.130304981523182 $382 -39.238758491534412 $376 $471 forward 7 unknown #
vertex $-1 $260 $472 #
straight-curve $-1 10.518874083597332 17.262683279974745 10.354082260810957 1 0 0 I I #
coedge $-1 $375 $261 $264 $389 reversed $254 $-1 #
coedge $-1 $261 $375 $380 $469 forward $254 $-1 #
vertex $-1 $262 $473 #
straight-curve $-1 13.299920501552549 23.565152490761584 56.411285418789141 0 0 1 I I #
straight-curve $-1 13.299920501552549 -14.07478239625523 33.968556909806907 0 0.79863550430605224 -0.6018150307709319 I I #
edge $-1 $467 -28.775575832836779 $266 -13.299920501552549 $384 $474 forward 7 unknown #
point $-1 13.299920501552549 23.565152490761584 10.354082260810959 #
point $-1 13.299920501552549 17.262683279974745 10.354082260810959 #
edge $-1 $475 1 $475 0 $269 $-1 forward 7 unknown #
vertex $-1 $270 $476 #
ellipse-curve $-1 17.721536310490904 19.128538542477333 6.273700647015394 0 0.6018150307709319 0.79863550430605224 1 0 0 1 I I #
point $-1 18.721536310490904 20.413917885368161 7.9794566139595471 #
edge $-1 $477 1 $477 0 $273 $-1 forward 7 unknown #
vertex $-1 $274 $478 #
ellipse-curve $-1 24.353960023898438 19.128538542477333 6.273700647015394 0 0.6018150307709319 0.79863550430605224 1 0 0 1 I I #
point $-1 25.353960023898438 20.413917885368161 7.9794566139595471 #
plane-surface $-1 49.367961668752102 0 0 -1 0 0 0 0 1 forward_v I I I I #
coedge $-1 $282 $280 $284 $405 reversed $181 $-1 #
edge $-1 $295 -10.354082260810959 $407 10.354082260810959 $294 $479 forward 7 unknown #
vertex $-1 $405 $480 #
straight-curve $-1 -49.367961668752102 -23.565152490761584 0 0 0 -1 I I #
edge $-1 $403 -23.565152490761584 $407 23.565152490761584 $401 $481 forward 7 unknown #
straight-curve $-1 0 -23.565152490761584 -10.354082260810959 -1 0 0 I I #
vertex $-1 $287 $482 #
straight-curve $-1 0 23.565152490761584 -10.354082260810959 1 0 0 I I #
point $-1 49.367961668752102 23.565152490761584 -10.354082260810959 #
point $-1 49.367961668752102 -23.565152490761584 -10.354082260810959 #
straight-curve $-1 -49.367961668752102 0 10.354082260810959 0 -1 0 I I #
point $-1 -49.367961668752102 23.565152490761584 10.354082260810959 #
point $-1 -49.367961668752102 -23.565152490761584 10.354082260810959 #
straight-curve $-1 49.367961668752102 -23.565152490761584 0 0 0 -1 I I #
straight-curve $-1 49.367961668752102 23.565152490761584 0 0 0 -1 I I #
plane-surface $-1 0 -23.565152490761584 0 0 1 0 0 0 1 forward_v I I I I #
coedge $-1 $483 $307 $420 $484 reversed $200 $-1 #
coedge $-1 $307 $483 $321 $431 reversed $200 $-1 #
edge $-1 $423 -1.5 $421 1.5 $308 $485 forward 7 unknown #
coedge $-1 $309 $426 $417 $484 forward $305 $-1 #
vertex $-1 $310 $486 #
straight-curve $-1 0 23.565152490761584 -10.354082260810959 1 0 0 I I #
vertex $-1 $311 $487 #
straight-curve $-1 -55.234903133616214 23.565152490761584 -7.3540822608109586 -1 0 0 I I #
point $-1 -49.367961668752102 23.565152490761584 -10.354082260810959 #
coedge $-1 $420 $314 $317 $429 forward $305 $-1 #
straight-curve $-1 -49.367961668752102 0 -10.354082260810959 0 -1 0 I I #
coedge $-1 $317 $316 $483 $488 forward $318 $-1 #
edge $-1 $319 -5.8669414648641123 $489 5.8669414648641123 $317 $490 forward 7 unknown #
point $-1 -49.367961668752102 -23.565152490761584 -10.354082260810959 #
edge $-1 $423 -23.565152490761584 $432 23.565152490761584 $418 $491 forward 7 unknown #
vertex $-1 $431 $492 #
straight-curve $-1 -55.234903133616214 -23.565152490761584 -7.3540822608109586 1 0 0 I I #
plane-surface $-1 0 -23.565152490761584 0 0 1 0 0 0 1 forward_v I I I I #
edge $-1 $439 -5.9270411304054793 $339 -2.9270411304054793 $337 $493 forward 7 unknown #
straight-curve $-1 35.730813438263162 0 7.3540822608109586 0 1 0 I I #
coedge $-1 $446 $330 $444 $494 forward $326 $-1 #
coedge $-1 $330 $446 $332 $441 forward $326 $-1 #
vertex $-1 $494 $495 #
straight-curve $-1 35.730813438263162 0 10.354082260810959 0 -1 0 I I #
edge $-1 $448 -49.367961668752102 $334 -35.730813438263162 $332 $496 forward 7 unknown #
point $-1 35.730813438263162 23.565152490761584 7.3540822608109586 #
point $-1 35.730813438263162 23.565152490761584 10.354082260810959 #
coedge $-1 $337 $336 $437 $494 reversed $338 $-1 #
point $-1 35.730813438263162 -23.565152490761584 7.3540822608109586 #
coedge $-1 $438 $437 $343 $447 forward $326 $-1 #
edge $-1 $450 -23.565152490761584 $448 23.565152490761584 $343 $497 forward 7 unknown #
vertex $-1 $447 $498 #
straight-curve $-1 49.367961668752102 23.565152490761584 0 0 0 -1 I I #
vertex $-1 $447 $499 #
straight-curve $-1 49.367961668752102 -23.565152490761584 0 0 0 -1 I I #
coedge $-1 $359 $358 $351 $453 forward $348 $-1 #
edge $-1 $454 35.599948222586974 $457 38.679173999681787 $452 $500 forward 7 unknown #
vertex $-1 $363 $501 #
straight-curve $-1 -34.874009301067026 -37.20895652371928 10.354082260810962 0 -1 0 I I #
edge $-1 $457 -22.123148795702658 $360 -3.3785722150260789 $359 $502 forward 7 unknown #
vertex $-1 $456 $503 #
straight-curve $-1 -34.874009301067026 -23.565152490761591 7.2748564837161354 0 0.85716729658548041 0.51503808176128008 I I #
point $-1 -34.874009301067026 -18.440460301200236 10.354082260810959 #
point $-1 -16.129432720390447 -23.565152490761584 7.2748564837161398 #
straight-curve $-1 0 -23.565152490761584 10.354082260810959 1 0 0 I I #
vertex $-1 $366 $504 #
point $-1 -28.518415992302288 -19.22831653720964 5.8612223621399053 #
vertex $-1 $370 $505 #
point $-1 -20.485026029155183 -19.22831653720964 5.8612223621399053 #
edge $-1 $467 46.057203157978179 $470 50.806454451681013 $375 $506 forward 7 unknown #
vertex $-1 $389 $507 #
straight-curve $-1 28.775575832836779 22.672990172650618 10.354082260810955 0 1 0 I I #
edge $-1 $470 -18.256701749239447 $386 -2.781046417955217 $385 $508 forward 7 unknown #
vertex $-1 $469 $509 #
straight-curve $-1 28.775575832836779 -14.07478239625523 33.968556909806907 0 -0.79863550430605224 0.6018150307709319 I I #
point $-1 28.775575832836779 17.262683279974745 10.354082260810959 #
point $-1 13.299920501552549 23.565152490761584 5.6048309671081284 #
straight-curve $-1 0 23.565152490761584 10.354082260810959 -1 0 0 I I #
vertex $-1 $392 $510 #
point $-1 18.721536310490904 19.128538542477333 6.273700647015394 #
vertex $-1 $396 $511 #
point $-1 25.353960023898438 19.128538542477333 6.273700647015394 #
straight-curve $-1 -49.367961668752102 23.565152490761584 0 0 0 -1 I I #
point $-1 -49.367961668752102 -23.565152490761584 -10.354082260810959 #
straight-curve $-1 -49.367961668752102 0 -10.354082260810959 0 1 0 I I #
point $-1 -49.367961668752102 23.565152490761584 -10.354082260810959 #
coedge $-1 $418 $417 $428 $488 reversed $200 $-1 #
edge $-1 $489 -23.565152490761584 $421 23.565152490761584 $417 $512 forward 7 unknown #
straight-curve $-1 -61.101844598480326 23.565152490761584 -8.8540822608109586 0 0 -1 I I #
point $-1 -61.101844598480326 23.565152490761584 -10.354082260810959 #
point $-1 -61.101844598480326 23.565152490761584 -7.3540822608109586 #
edge $-1 $432 -1.5 $489 1.5 $483 $513 forward 7 unknown #
vertex $-1 $484 $514 #
straight-curve $-1 -55.234903133616214 -23.565152490761584 -10.354082260810959 -1 0 0 I I #
straight-curve $-1 -61.101844598480326 0 -7.3540822608109586 0 -1 0 I I #
point $-1 -61.101844598480326 -23.565152490761584 -7.3540822608109586 #
straight-curve $-1 35.730813438263162 -23.565152490761584 4.4270411304054793 0 0 -1 I I #
edge $-1 $439 35.730813438263162 $450 49.367961668752102 $444 $515 forward 7 unknown #
point $-1 35.730813438263162 -23.565152490761584 10.354082260810959 #
straight-curve $-1 0 23.565152490761584 10.354082260810959 -1 0 0 I I #
straight-curve $-1 49.367961668752102 0 10.354082260810959 0 1 0 I I #
point $-1 49.367961668752102 23.565152490761584 10.354082260810959 #
point $-1 49.367961668752102 -23.565152490761584 10.354082260810959 #
straight-curve $-1 -34.874009301067026 -23.565152490761584 45.954030483397929 0 0 -1 I I #
point $-1 -34.874009301067026 -23.565152490761584 10.354082260810959 #
straight-curve $-1 -12.750860505364368 -23.565152490761584 7.2748564837161398 1 0 0 I I #
point $-1 -34.874009301067026 -23.565152490761584 7.2748564837161398 #
point $-1 -29.518415992302288 -18.713278455448357 5.0040550655544251 #
point $-1 -21.485026029155183 -18.713278455448357 5.0040550655544251 #
straight-curve $-1 28.775575832836779 23.565152490761584 56.411285418789141 0 0 -1 I I #
point $-1 28.775575832836779 23.565152490761584 10.354082260810959 #
straight-curve $-1 10.518874083597332 23.565152490761584 5.6048309671081231 -1 0 0 I I #
point $-1 28.775575832836779 23.565152490761584 5.6048309671081284 #
point $-1 17.721536310490904 18.526723511706404 5.475065142709342 #
point $-1 24.353960023898438 18.526723511706404 5.475065142709342 #
straight-curve $-1 -61.101844598480326 0 -10.354082260810959 0 1 0 I I #
straight-curve $-1 -61.101844598480326 -23.565152490761584 -8.8540822608109586 0 0 -1 I I #
point $-1 -61.101844598480326 -23.565152490761584 -10.354082260810959 #
straight-curve $-1 0 -23.565152490761584 10.354082260810959 1 0 0 I I #
End-of-ACIS-data 