500 0 11 0           
7 Unknown 11 ACIS 5.0 NT 24 Fri Mar 26 03:26:24 1999 
-1 9.9999999999999995e-007 1e-010 
body $-1 $11 $-1 $12 #
body $-1 $13 $-1 $14 #
body $-1 $15 $-1 $16 #
body $-1 $17 $-1 $18 #
body $-1 $19 $-1 $20 #
body $-1 $21 $-1 $22 #
body $-1 $23 $-1 $24 #
body $-1 $25 $-1 $26 #
body $-1 $27 $-1 $28 #
body $-1 $29 $-1 $30 #
body $-1 $31 $-1 $32 #
lump $-1 $-1 $33 $0 #
transform $-1 1 0 0 0 1 0 0 0 1 60.505996887112033 29.615199092843149 7.5894878939915911 1 rotate no_reflect no_shear #
lump $-1 $-1 $34 $1 #
transform $-1 1 0 0 0 1 0 0 0 1 60.505996887112033 29.615199092843149 7.5894878939915911 1 rotate no_reflect no_shear #
lump $-1 $-1 $35 $2 #
transform $-1 1 0 0 0 1 0 0 0 1 60.505996887112033 29.615199092843149 7.5894878939915911 1 rotate no_reflect no_shear #
lump $-1 $-1 $36 $3 #
transform $-1 1 0 0 0 1 0 0 0 1 60.505996887112033 29.615199092843149 7.5894878939915911 1 rotate no_reflect no_shear #
lump $-1 $-1 $37 $4 #
transform $-1 1 0 0 0 1 0 0 0 1 60.505996887112033 29.615199092843149 7.5894878939915911 1 rotate no_reflect no_shear #
lump $-1 $-1 $38 $5 #
transform $-1 1 0 0 0 1 0 0 0 1 60.505996887112033 29.615199092843149 7.5894878939915911 1 rotate no_reflect no_shear #
lump $-1 $-1 $39 $6 #
transform $-1 1 0 0 0 1 0 0 0 1 60.505996887112033 29.615199092843149 7.5894878939915911 1 rotate no_reflect no_shear #
lump $-1 $-1 $40 $7 #
transform $-1 1 0 0 0 1 0 0 0 1 60.505996887112033 29.615199092843149 7.5894878939915911 1 rotate no_reflect no_shear #
lump $-1 $-1 $41 $8 #
transform $-1 1 0 0 0 1 0 0 0 1 60.505996887112033 29.615199092843149 7.5894878939915911 1 rotate no_reflect no_shear #
lump $-1 $-1 $42 $9 #
transform $-1 1 0 0 0 1 0 0 0 1 60.505996887112033 29.615199092843149 7.5894878939915911 1 rotate no_reflect no_shear #
lump $-1 $-1 $43 $10 #
transform $-1 1 0 0 0 1 0 0 0 1 60.505996887112033 29.615199092843149 7.5894878939915911 1 rotate no_reflect no_shear #
shell $-1 $-1 $-1 $44 $-1 $11 #
shell $-1 $-1 $-1 $45 $-1 $13 #
shell $-1 $-1 $-1 $46 $-1 $15 #
shell $-1 $-1 $-1 $47 $-1 $17 #
shell $-1 $-1 $-1 $48 $-1 $19 #
shell $-1 $-1 $-1 $49 $-1 $21 #
shell $-1 $-1 $-1 $50 $-1 $23 #
shell $-1 $-1 $-1 $51 $-1 $25 #
shell $-1 $-1 $-1 $52 $-1 $27 #
shell $-1 $-1 $-1 $53 $-1 $29 #
shell $-1 $-1 $-1 $54 $-1 $31 #
face $-1 $55 $56 $33 $-1 $57 forward single #
face $-1 $58 $59 $34 $-1 $60 reversed single #
face $-1 $61 $62 $35 $-1 $63 reversed single #
face $-1 $64 $65 $36 $-1 $66 forward single #
face $-1 $67 $68 $37 $-1 $69 forward single #
face $-1 $70 $71 $38 $-1 $72 reversed single #
face $-1 $73 $74 $39 $-1 $75 forward single #
face $-1 $76 $77 $40 $-1 $78 forward single #
face $-1 $79 $80 $41 $-1 $81 reversed single #
face $-1 $82 $83 $42 $-1 $84 forward single #
face $-1 $85 $86 $43 $-1 $87 forward single #
face $-1 $88 $89 $33 $-1 $90 reversed single #
loop $-1 $-1 $91 $44 #
plane-surface $-1 0 0 7.5894878939915911 0 0 1 1 0 0 forward_v I I I I #
face $-1 $92 $93 $34 $-1 $94 reversed single #
loop $-1 $-1 $95 $45 #
plane-surface $-1 0 -26.904294794160148 4.5894878939915911 0 0 1 1 0 0 forward_v I I I I #
face $-1 $96 $97 $35 $-1 $98 reversed single #
loop $-1 $-1 $99 $46 #
plane-surface $-1 22.00859403482761 -10.816520714274876 170.69128787262252 0 -1 0 -0.52991927123019833 0 -0.84804809178421925 forward_v I I I I #
face $-1 $100 $101 $36 $-1 $102 forward single #
loop $-1 $103 $104 $47 #
cone-surface $-1 57.042552932471068 -20.371427700847924 4.8948188947905464 -0.52991927123019833 0 -0.84804809178421925 0.84804809178421925 0 -0.52991927123019833 1 I I 0 1 1 forward I I I I #
face $-1 $105 $106 $37 $-1 $107 forward single #
loop $-1 $108 $109 $48 #
cone-surface $-1 57.042552932471068 -14.638483508904095 4.8948188947905464 -0.52991927123019833 0 -0.84804809178421925 0.84804809178421925 0 -0.52991927123019833 1 I I 0 1 1 forward I I I I #
face $-1 $110 $111 $38 $-1 $112 reversed single #
loop $-1 $-1 $113 $49 #
plane-surface $-1 -154.54998013801514 -14.659483425601335 77.96620572683959 0 1 0 -0.77714596973225614 0 0.62932038083071107 forward_v I I I I #
face $-1 $114 $115 $39 $-1 $116 forward single #
loop $-1 $117 $118 $50 #
cone-surface $-1 -57.638531316985393 -12.350309915490829 4.2728196749069163 0.77714596973225614 0 -0.62932038083071107 0.31466019041535553 0 0.38857298486612807 1 I I 0 1 0.5 forward I I I I #
face $-1 $119 $120 $40 $-1 $121 forward single #
loop $-1 $122 $123 $51 #
cone-surface $-1 -57.638531316985393 -8.8865496503250725 4.2728196749069163 0.77714596973225614 0 -0.62932038083071107 0.31466019041535553 0 0.38857298486612807 1 I I 0 1 0.5 forward I I I I #
face $-1 $124 $125 $41 $-1 $126 reversed single #
loop $-1 $-1 $127 $52 #
plane-surface $-1 -154.54998013801514 12.244811368558809 77.96620572683959 0 1 0 -0.77714596973225614 0 0.62932038083071107 forward_v I I I I #
face $-1 $128 $129 $42 $-1 $130 forward single #
loop $-1 $131 $132 $53 #
cone-surface $-1 -57.638531316985393 14.553984878669318 4.2728196749069163 0.77714596973225614 0 -0.62932038083071107 0.31466019041535553 0 0.38857298486612807 1 I I 0 1 0.5 forward I I I I #
face $-1 $133 $134 $43 $-1 $135 forward single #
loop $-1 $136 $137 $54 #
cone-surface $-1 -57.638531316985393 18.017745143835079 4.2728196749069163 0.77714596973225614 0 -0.62932038083071107 0.31466019041535553 0 0.38857298486612807 1 I I 0 1 0.5 forward I I I I #
face $-1 $138 $139 $33 $-1 $140 reversed single #
loop $-1 $-1 $141 $55 #
plane-surface $-1 0 0 -7.5894878939915911 0 0 1 1 0 0 forward_v I I I I #
coedge $-1 $142 $143 $144 $145 forward $56 $-1 #
face $-1 $146 $147 $34 $-1 $148 reversed single #
loop $-1 $-1 $149 $58 #
plane-surface $-1 0 -24.193390495477146 6.0894878939915911 0 -1 0 0 0 -1 forward_v I I I I #
coedge $-1 $150 $151 $152 $153 reversed $59 $-1 #
face $-1 $154 $155 $35 $-1 $156 forward single #
loop $-1 $-1 $157 $61 #
plane-surface $-1 -42.11799351612251 -17.50495560487601 68.067297469387981 0.52991927123019833 0 0.84804809178421925 0.84804809178421925 0 -0.52991927123019833 forward_v I I I I #
coedge $-1 $158 $159 $160 $161 reversed $62 $-1 #
face $-1 $-1 $162 $36 $-1 $163 forward single #
loop $-1 $164 $165 $64 #
cone-surface $-1 56.233781980153594 -20.371427700847924 3.6005148374742548 -0.52991927123019833 0 -0.84804809178421925 0.42402404589210962 0 -0.26495963561509916 1 I I -0.70710678118654746 0.70710678118654746 0.5 forward I I I I #
loop $-1 $-1 $166 $47 #
coedge $-1 $104 $104 $167 $168 reversed $65 $-1 #
face $-1 $-1 $169 $37 $-1 $170 forward single #
loop $-1 $171 $172 $67 #
cone-surface $-1 56.233781980153594 -14.638483508904095 3.6005148374742548 -0.52991927123019833 0 -0.84804809178421925 0.42402404589210962 0 -0.26495963561509916 1 I I -0.70710678118654746 0.70710678118654746 0.5 forward I I I I #
loop $-1 $-1 $173 $48 #
coedge $-1 $109 $109 $174 $175 reversed $68 $-1 #
face $-1 $176 $177 $38 $-1 $178 reversed single #
loop $-1 $-1 $179 $70 #
plane-surface $-1 -60.505996887112033 -10.618429782907953 1.8108917197612584 -0.77714596973225614 0 0.62932038083071107 0.62932038083071107 0 0.77714596973225614 forward_v I I I I #
coedge $-1 $180 $181 $182 $183 reversed $71 $-1 #
face $-1 $-1 $184 $39 $-1 $185 forward single #
loop $-1 $186 $187 $73 #
cone-surface $-1 -56.916486649605517 -12.350309915490829 3.6881194477297266 0.77714596973225614 0 -0.62932038083071107 0.15733009520767777 0 0.19428649243306403 1 I I -0.70710678118654746 0.70710678118654746 0.25 forward I I I I #
loop $-1 $-1 $188 $50 #
coedge $-1 $118 $118 $189 $190 reversed $74 $-1 #
face $-1 $-1 $191 $40 $-1 $192 forward single #
loop $-1 $193 $194 $76 #
cone-surface $-1 -56.916486649605517 -8.8865496503250725 3.6881194477297266 0.77714596973225614 0 -0.62932038083071107 0.15733009520767777 0 0.19428649243306403 1 I I -0.70710678118654746 0.70710678118654746 0.25 forward I I I I #
loop $-1 $-1 $195 $51 #
coedge $-1 $123 $123 $196 $197 reversed $77 $-1 #
face $-1 $198 $199 $41 $-1 $200 reversed single #
loop $-1 $-1 $201 $79 #
plane-surface $-1 -60.505996887112033 16.285865011252191 1.8108917197612584 -0.77714596973225614 0 0.62932038083071107 0.62932038083071107 0 0.77714596973225614 forward_v I I I I #
coedge $-1 $202 $203 $204 $205 reversed $80 $-1 #
face $-1 $-1 $206 $42 $-1 $207 forward single #
loop $-1 $208 $209 $82 #
cone-surface $-1 -56.916486649605517 14.553984878669318 3.6881194477297266 0.77714596973225614 0 -0.62932038083071107 0.15733009520767777 0 0.19428649243306403 1 I I -0.70710678118654746 0.70710678118654746 0.25 forward I I I I #
loop $-1 $-1 $210 $53 #
coedge $-1 $132 $132 $211 $212 reversed $83 $-1 #
face $-1 $-1 $213 $43 $-1 $214 forward single #
loop $-1 $215 $216 $85 #
cone-surface $-1 -56.916486649605517 18.017745143835079 3.6881194477297266 0.77714596973225614 0 -0.62932038083071107 0.15733009520767777 0 0.19428649243306403 1 I I -0.70710678118654746 0.70710678118654746 0.25 forward I I I I #
loop $-1 $-1 $217 $54 #
coedge $-1 $137 $137 $218 $219 reversed $86 $-1 #
face $-1 $220 $221 $33 $-1 $222 reversed single #
loop $-1 $-1 $223 $88 #
plane-surface $-1 0 -29.615199092843149 0 0 1 0 0 0 1 forward_v I I I I #
coedge $-1 $224 $225 $226 $227 forward $89 $-1 #
coedge $-1 $228 $91 $229 $230 forward $56 $-1 #
coedge $-1 $91 $228 $231 $232 forward $56 $-1 #
coedge $-1 $233 $234 $91 $145 reversed $235 $-1 #
edge $-1 $236 -29.615199092843149 $237 29.615199092843149 $144 $238 forward 7 unknown #
face $-1 $239 $240 $34 $-1 $241 reversed single #
loop $-1 $-1 $242 $92 #
plane-surface $-1 -60.505996887112033 0 0 1 0 0 0 0 -1 forward_v I I I I #
coedge $-1 $243 $244 $151 $245 reversed $93 $-1 #
coedge $-1 $246 $95 $247 $248 reversed $59 $-1 #
coedge $-1 $95 $246 $149 $245 forward $59 $-1 #
coedge $-1 $249 $250 $95 $153 forward $251 $-1 #
edge $-1 $252 -16.163051695763073 $253 -10.741243098397073 $152 $254 forward 7 unknown #
face $-1 $255 $256 $35 $-1 $257 forward single #
loop $-1 $-1 $258 $96 #
plane-surface $-1 0 -24.193390495477146 6.0894878939915911 0 -1 0 0 0 -1 forward_v I I I I #
coedge $-1 $259 $260 $261 $262 reversed $97 $-1 #
coedge $-1 $159 $99 $263 $264 reversed $62 $-1 #
coedge $-1 $99 $158 $259 $265 reversed $62 $-1 #
coedge $-1 $261 $266 $99 $161 forward $256 $-1 #
edge $-1 $267 -49.501699869698228 $268 -43.662434593821075 $160 $269 forward 7 unknown #
loop $-1 $-1 $167 $100 #
plane-surface $-1 -42.11799351612251 -17.50495560487601 68.067297469387981 0.52991927123019833 0 0.84804809178421925 0.84804809178421925 0 -0.52991927123019833 forward_v I I I I #
loop $-1 $-1 $270 $64 #
coedge $-1 $165 $165 $166 $271 reversed $101 $-1 #
coedge $-1 $166 $166 $165 $271 forward $103 $-1 #
coedge $-1 $167 $167 $104 $168 forward $162 $-1 #
edge $-1 $272 0 $272 6.2831853071796004 $167 $273 forward 7 unknown #
loop $-1 $-1 $174 $105 #
plane-surface $-1 -42.11799351612251 -17.50495560487601 68.067297469387981 0.52991927123019833 0 0.84804809178421925 0.84804809178421925 0 -0.52991927123019833 forward_v I I I I #
loop $-1 $-1 $274 $67 #
coedge $-1 $172 $172 $173 $275 reversed $106 $-1 #
coedge $-1 $173 $173 $172 $275 forward $108 $-1 #
coedge $-1 $174 $174 $109 $175 forward $169 $-1 #
edge $-1 $276 0 $276 6.2831853071796004 $174 $277 forward 7 unknown #
face $-1 $278 $279 $38 $-1 $280 forward single #
loop $-1 $-1 $281 $110 #
plane-surface $-1 -154.54998013801514 -6.5773761402145698 77.96620572683959 0 -1 0 0.77714596973225614 0 -0.62932038083071107 forward_v I I I I #
coedge $-1 $282 $283 $284 $285 reversed $111 $-1 #
coedge $-1 $181 $113 $286 $287 reversed $71 $-1 #
coedge $-1 $113 $180 $282 $288 reversed $71 $-1 #
coedge $-1 $284 $289 $113 $183 forward $279 $-1 #
edge $-1 $290 16.768993181895539 $291 21.448407972255204 $182 $292 forward 7 unknown #
loop $-1 $-1 $189 $114 #
plane-surface $-1 -60.505996887112033 -10.618429782907953 1.8108917197612584 -0.77714596973225614 0 0.62932038083071107 0.62932038083071107 0 0.77714596973225614 forward_v I I I I #
loop $-1 $-1 $293 $73 #
coedge $-1 $187 $187 $188 $294 reversed $115 $-1 #
coedge $-1 $188 $188 $187 $294 forward $117 $-1 #
coedge $-1 $189 $189 $118 $190 forward $184 $-1 #
edge $-1 $295 0 $295 6.2831853071796004 $189 $296 forward 7 unknown #
loop $-1 $-1 $196 $119 #
plane-surface $-1 -60.505996887112033 -10.618429782907953 1.8108917197612584 -0.77714596973225614 0 0.62932038083071107 0.62932038083071107 0 0.77714596973225614 forward_v I I I I #
loop $-1 $-1 $297 $76 #
coedge $-1 $194 $194 $195 $298 reversed $120 $-1 #
coedge $-1 $195 $195 $194 $298 forward $122 $-1 #
coedge $-1 $196 $196 $123 $197 forward $191 $-1 #
edge $-1 $299 0 $299 6.2831853071796004 $196 $300 forward 7 unknown #
face $-1 $301 $302 $41 $-1 $303 forward single #
loop $-1 $-1 $304 $124 #
plane-surface $-1 -154.54998013801514 20.326918653945576 77.96620572683959 0 -1 0 0.77714596973225614 0 -0.62932038083071107 forward_v I I I I #
coedge $-1 $305 $306 $307 $308 reversed $125 $-1 #
coedge $-1 $203 $127 $309 $310 reversed $80 $-1 #
coedge $-1 $127 $202 $305 $311 reversed $80 $-1 #
coedge $-1 $307 $312 $127 $205 forward $302 $-1 #
edge $-1 $313 16.768993181895539 $314 21.448407972255204 $204 $315 forward 7 unknown #
loop $-1 $-1 $211 $128 #
plane-surface $-1 -60.505996887112033 16.285865011252191 1.8108917197612584 -0.77714596973225614 0 0.62932038083071107 0.62932038083071107 0 0.77714596973225614 forward_v I I I I #
loop $-1 $-1 $316 $82 #
coedge $-1 $209 $209 $210 $317 reversed $129 $-1 #
coedge $-1 $210 $210 $209 $317 forward $131 $-1 #
coedge $-1 $211 $211 $132 $212 forward $206 $-1 #
edge $-1 $318 0 $318 6.2831853071796004 $211 $319 forward 7 unknown #
loop $-1 $-1 $218 $133 #
plane-surface $-1 -60.505996887112033 16.285865011252191 1.8108917197612584 -0.77714596973225614 0 0.62932038083071107 0.62932038083071107 0 0.77714596973225614 forward_v I I I I #
loop $-1 $-1 $320 $85 #
coedge $-1 $216 $216 $217 $321 reversed $134 $-1 #
coedge $-1 $217 $217 $216 $321 forward $136 $-1 #
coedge $-1 $218 $218 $137 $219 forward $213 $-1 #
edge $-1 $322 0 $322 6.2831853071796004 $218 $323 forward 7 unknown #
face $-1 $324 $325 $33 $-1 $326 reversed single #
loop $-1 $-1 $327 $138 #
plane-surface $-1 -60.505996887112033 0 0 1 0 0 0 0 -1 forward_v I I I I #
coedge $-1 $328 $231 $329 $330 forward $139 $-1 #
coedge $-1 $331 $141 $328 $332 forward $89 $-1 #
coedge $-1 $141 $331 $333 $334 forward $89 $-1 #
coedge $-1 $234 $233 $141 $227 reversed $235 $-1 #
edge $-1 $335 -29.615199092843149 $336 29.615199092843149 $226 $337 forward 7 unknown #
coedge $-1 $143 $142 $338 $339 forward $56 $-1 #
coedge $-1 $340 $341 $142 $230 reversed $325 $-1 #
edge $-1 $237 -60.505996887112033 $342 60.505996887112033 $229 $343 forward 7 unknown #
coedge $-1 $223 $344 $143 $232 reversed $139 $-1 #
edge $-1 $345 -60.505996887112033 $236 60.505996887112033 $231 $346 forward 7 unknown #
coedge $-1 $226 $144 $344 $347 forward $235 $-1 #
coedge $-1 $144 $226 $340 $348 reversed $235 $-1 #
loop $-1 $-1 $233 $324 #
vertex $-1 $145 $349 #
vertex $-1 $145 $350 #
straight-curve $-1 60.505996887112033 0 7.5894878939915911 0 1 0 I I #
face $-1 $351 $352 $34 $-1 $353 forward single #
loop $-1 $-1 $247 $146 #
plane-surface $-1 0 -29.615199092843149 0 0 1 0 0 0 1 forward_v I I I I #
coedge $-1 $354 $355 $243 $356 forward $147 $-1 #
coedge $-1 $357 $149 $242 $356 reversed $93 $-1 #
coedge $-1 $149 $357 $249 $358 reversed $93 $-1 #
edge $-1 $359 -60.505996887112033 $253 60.505996887112033 $149 $360 forward 7 unknown #
coedge $-1 $151 $150 $354 $361 reversed $59 $-1 #
coedge $-1 $362 $363 $150 $248 forward $240 $-1 #
edge $-1 $364 -60.505996887112033 $252 60.505996887112033 $247 $365 forward 7 unknown #
coedge $-1 $366 $152 $244 $358 forward $251 $-1 #
coedge $-1 $152 $366 $362 $367 forward $251 $-1 #
loop $-1 $-1 $249 $351 #
vertex $-1 $248 $368 #
vertex $-1 $153 $369 #
straight-curve $-1 60.505996887112033 -13.452147397080074 4.5894878939915911 0 1 0 I I #
face $-1 $-1 $370 $35 $-1 $371 reversed single #
loop $-1 $-1 $261 $154 #
plane-surface $-1 0 0 7.5894878939915911 0 0 1 1 0 0 forward_v I I I I #
coedge $-1 $372 $373 $260 $374 reversed $155 $-1 #
coedge $-1 $375 $157 $159 $265 forward $97 $-1 #
coedge $-1 $157 $375 $258 $374 forward $97 $-1 #
coedge $-1 $376 $160 $157 $262 forward $256 $-1 #
edge $-1 $268 2.0640429118368715 $377 15.440912693039142 $261 $378 forward 7 unknown #
coedge $-1 $379 $380 $158 $264 forward $370 $-1 #
edge $-1 $381 -81.404934017873401 $267 -77.756156042319674 $263 $382 forward 7 unknown #
edge $-1 $268 114.12645823390838 $381 121.01199377422407 $159 $383 forward 7 unknown #
coedge $-1 $160 $376 $379 $384 forward $256 $-1 #
vertex $-1 $264 $385 #
vertex $-1 $161 $386 #
straight-curve $-1 11.004297017413805 -10.816520714274876 7.5894878939915884 -1 0 0 I I #
coedge $-1 $270 $270 $-1 $387 reversed $164 $-1 #
edge $-1 $388 0 $388 6.2831853071796004 $165 $389 forward 7 unknown #
vertex $-1 $168 $390 #
ellipse-curve $-1 57.586364249173442 -20.371427700847924 5.7650989062147335 0.52991927123019833 0 0.84804809178421925 0.84804809178421925 0 -0.52991927123019833 1 I I #
coedge $-1 $274 $274 $-1 $391 reversed $171 $-1 #
edge $-1 $392 0 $392 6.2831853071796004 $172 $393 forward 7 unknown #
vertex $-1 $175 $394 #
ellipse-curve $-1 57.586364249173442 -14.638483508904095 5.7650989062147335 0.52991927123019833 0 0.84804809178421925 0.84804809178421925 0 -0.52991927123019833 1 I I #
face $-1 $-1 $395 $38 $-1 $396 reversed single #
loop $-1 $-1 $182 $176 #
plane-surface $-1 0 0 7.5894878939915911 0 0 1 1 0 0 forward_v I I I I #
coedge $-1 $397 $398 $399 $400 reversed $177 $-1 #
coedge $-1 $401 $179 $181 $288 forward $111 $-1 #
coedge $-1 $179 $401 $397 $402 forward $111 $-1 #
coedge $-1 $399 $182 $179 $285 forward $279 $-1 #
edge $-1 $291 -9.350268534147359 $403 -1.2681612487605936 $284 $404 forward 7 unknown #
coedge $-1 $405 $406 $180 $287 forward $395 $-1 #
edge $-1 $407 -37.172211143658537 $290 -31.393614969428203 $286 $408 forward 7 unknown #
edge $-1 $291 -7.4356638254473442 $407 0 $181 $409 forward 7 unknown #
coedge $-1 $182 $399 $405 $410 forward $279 $-1 #
vertex $-1 $287 $411 #
vertex $-1 $183 $412 #
straight-curve $-1 -77.274990069007572 -14.659483425601335 7.5894878939915884 1 0 0 I I #
coedge $-1 $293 $293 $-1 $413 reversed $186 $-1 #
edge $-1 $414 0 $414 6.2831853071796004 $187 $415 forward 7 unknown #
vertex $-1 $190 $416 #
ellipse-curve $-1 -58.166289491932204 -12.350309915490829 4.7001898068764252 -0.77714596973225614 0 0.62932038083071107 0.31466019041535553 0 0.38857298486612807 1 I I #
coedge $-1 $297 $297 $-1 $417 reversed $193 $-1 #
edge $-1 $418 0 $418 6.2831853071796004 $194 $419 forward 7 unknown #
vertex $-1 $197 $420 #
ellipse-curve $-1 -58.166289491932204 -8.8865496503250725 4.7001898068764252 -0.77714596973225614 0 0.62932038083071107 0.31466019041535553 0 0.38857298486612807 1 I I #
face $-1 $-1 $421 $41 $-1 $422 reversed single #
loop $-1 $-1 $204 $198 #
plane-surface $-1 0 0 7.5894878939915911 0 0 1 1 0 0 forward_v I I I I #
coedge $-1 $423 $424 $425 $426 reversed $199 $-1 #
coedge $-1 $427 $201 $203 $311 forward $125 $-1 #
coedge $-1 $201 $427 $423 $428 forward $125 $-1 #
coedge $-1 $425 $204 $201 $308 forward $302 $-1 #
edge $-1 $314 4.101878862932713 $429 12.18398614831948 $307 $430 forward 7 unknown #
coedge $-1 $431 $432 $202 $310 forward $421 $-1 #
edge $-1 $433 -37.172211143658537 $313 -31.393614969428203 $309 $434 forward 7 unknown #
edge $-1 $314 -7.4356638254473442 $433 0 $203 $435 forward 7 unknown #
coedge $-1 $204 $425 $431 $436 forward $302 $-1 #
vertex $-1 $205 $437 #
vertex $-1 $205 $438 #
straight-curve $-1 -77.274990069007572 12.244811368558809 7.5894878939915884 1 0 0 I I #
coedge $-1 $316 $316 $-1 $439 reversed $208 $-1 #
edge $-1 $440 0 $440 6.2831853071796004 $209 $441 forward 7 unknown #
vertex $-1 $212 $442 #
ellipse-curve $-1 -58.166289491932204 14.553984878669318 4.7001898068764252 -0.77714596973225614 0 0.62932038083071107 0.31466019041535553 0 0.38857298486612807 1 I I #
coedge $-1 $320 $320 $-1 $443 reversed $215 $-1 #
edge $-1 $444 0 $444 6.2831853071796004 $216 $445 forward 7 unknown #
vertex $-1 $219 $446 #
ellipse-curve $-1 -58.166289491932204 18.017745143835079 4.7001898068764252 -0.77714596973225614 0 0.62932038083071107 0.31466019041535553 0 0.38857298486612807 1 I I #
face $-1 $-1 $235 $33 $-1 $447 reversed single #
loop $-1 $-1 $340 $220 #
plane-surface $-1 0 29.615199092843149 0 0 -1 0 0 0 -1 forward_v I I I I #
coedge $-1 $448 $338 $341 $449 forward $221 $-1 #
coedge $-1 $344 $223 $224 $332 reversed $139 $-1 #
coedge $-1 $338 $448 $223 $330 reversed $221 $-1 #
edge $-1 $345 -7.5894878939915911 $450 7.5894878939915911 $329 $451 forward 7 unknown #
coedge $-1 $225 $224 $448 $452 forward $89 $-1 #
edge $-1 $336 -60.505996887112033 $450 60.505996887112033 $328 $453 forward 7 unknown #
coedge $-1 $341 $340 $225 $334 reversed $325 $-1 #
edge $-1 $454 -60.505996887112033 $335 60.505996887112033 $333 $455 forward 7 unknown #
vertex $-1 $227 $456 #
vertex $-1 $347 $457 #
straight-curve $-1 60.505996887112033 0 -7.5894878939915911 0 -1 0 I I #
coedge $-1 $327 $329 $228 $339 reversed $221 $-1 #
edge $-1 $342 -29.615199092843149 $345 29.615199092843149 $338 $458 forward 7 unknown #
coedge $-1 $333 $229 $234 $348 forward $325 $-1 #
coedge $-1 $229 $333 $327 $449 reversed $325 $-1 #
vertex $-1 $230 $459 #
straight-curve $-1 0 29.615199092843149 7.5894878939915911 -1 0 0 I I #
coedge $-1 $231 $328 $233 $347 reversed $139 $-1 #
vertex $-1 $339 $460 #
straight-curve $-1 0 -29.615199092843149 7.5894878939915911 1 0 0 I I #
edge $-1 $236 -7.5894878939915911 $336 7.5894878939915911 $233 $461 forward 7 unknown #
edge $-1 $237 -7.5894878939915911 $335 7.5894878939915911 $234 $462 forward 7 unknown #
point $-1 60.505996887112033 -29.615199092843149 7.5894878939915911 #
point $-1 60.505996887112033 29.615199092843149 7.5894878939915911 #
face $-1 $-1 $251 $34 $-1 $463 reversed single #
loop $-1 $-1 $464 $239 #
plane-surface $-1 0 0 7.5894878939915911 0 0 1 1 0 0 forward_v I I I I #
coedge $-1 $465 $242 $246 $361 forward $147 $-1 #
coedge $-1 $242 $465 $466 $467 reversed $147 $-1 #
edge $-1 $468 -4.544743946995796 $359 -1.5447439469957955 $242 $469 forward 7 unknown #
coedge $-1 $244 $243 $464 $470 reversed $93 $-1 #
edge $-1 $253 1.5447439469957955 $471 4.544743946995796 $249 $472 forward 7 unknown #
vertex $-1 $361 $473 #
straight-curve $-1 0 -24.193390495477146 4.5894878939915911 1 0 0 I I #
edge $-1 $359 10.741243098397073 $364 16.163051695763073 $354 $474 forward 7 unknown #
coedge $-1 $475 $247 $250 $367 reversed $240 $-1 #
coedge $-1 $247 $475 $465 $476 forward $240 $-1 #
vertex $-1 $248 $477 #
straight-curve $-1 0 -29.615199092843149 4.5894878939915911 1 0 0 I I #
coedge $-1 $250 $249 $478 $479 reversed $251 $-1 #
edge $-1 $480 -7.5894878939915911 $252 -4.5894878939915911 $250 $481 forward 7 unknown #
point $-1 60.505996887112033 -29.615199092843149 4.5894878939915911 #
point $-1 60.505996887112033 -24.193390495477146 4.5894878939915911 #
loop $-1 $-1 $263 $255 #
plane-surface $-1 60.505996887112033 0 0 -1 0 0 0 0 1 forward_v I I I I #
coedge $-1 $373 $258 $482 $483 reversed $155 $-1 #
coedge $-1 $258 $372 $376 $484 reversed $155 $-1 #
edge $-1 $485 -121.01199377422407 $377 -114.12645823390838 $258 $486 forward 7 unknown #
coedge $-1 $260 $259 $380 $487 reversed $97 $-1 #
coedge $-1 $266 $261 $373 $484 forward $256 $-1 #
vertex $-1 $484 $488 #
straight-curve $-1 54.666731611234901 -8.7524778024380048 7.5894878939915813 0 -1 0 I I #
coedge $-1 $482 $263 $266 $384 reversed $370 $-1 #
coedge $-1 $263 $482 $375 $487 forward $370 $-1 #
vertex $-1 $264 $489 #
straight-curve $-1 60.505996887112033 -10.816520714274876 85.345643936311262 0 0 1 I I #
straight-curve $-1 -42.11799351612251 -10.816520714274876 68.067297469387981 0.84804809178421925 0 -0.52991927123019833 I I #
edge $-1 $490 -24.193390495477146 $267 -10.816520714274876 $379 $491 forward 7 unknown #
point $-1 60.505996887112033 -10.816520714274876 7.5894878939915911 #
point $-1 54.66673161123488 -10.816520714274876 7.5894878939915955 #
edge $-1 $492 1 $492 0 $270 $-1 forward 7 unknown #
vertex $-1 $271 $493 #
ellipse-curve $-1 56.498741615768694 -20.371427700847924 4.0245388833663647 0.52991927123019833 0 0.84804809178421925 0.84804809178421925 0 -0.52991927123019833 1 I I #
point $-1 58.434412340957657 -20.371427700847924 5.2351796349845303 #
edge $-1 $494 1 $494 0 $274 $-1 forward 7 unknown #
vertex $-1 $275 $495 #
ellipse-curve $-1 56.498741615768694 -14.638483508904095 4.0245388833663647 0.52991927123019833 0 0.84804809178421925 0.84804809178421925 0 -0.52991927123019833 1 I I #
point $-1 58.434412340957657 -14.638483508904095 5.2351796349845303 #
loop $-1 $-1 $286 $278 #
plane-surface $-1 -60.505996887112033 0 0 1 0 0 0 0 -1 forward_v I I I I #
coedge $-1 $398 $281 $283 $402 reversed $177 $-1 #
coedge $-1 $281 $397 $496 $497 reversed $177 $-1 #
coedge $-1 $289 $284 $281 $400 forward $279 $-1 #
edge $-1 $403 -21.448407972255204 $498 -16.768993181895539 $399 $499 forward 7 unknown #
coedge $-1 $283 $282 $406 $500 reversed $111 $-1 #
edge $-1 $501 0 $403 7.4356638254473442 $397 $502 forward 7 unknown #
vertex $-1 $285 $503 #
straight-curve $-1 -55.826582096752361 -5.3092148914539763 7.589487893991592 0 1 0 I I #
coedge $-1 $496 $286 $289 $410 reversed $395 $-1 #
coedge $-1 $286 $496 $401 $500 forward $395 $-1 #
vertex $-1 $287 $504 #
straight-curve $-1 -60.505996887112033 -14.659483425601335 38.983102863419795 0 0 1 I I #
straight-curve $-1 -60.505996887112033 -14.659483425601335 1.8108917197612584 -0.62932038083071107 0 -0.77714596973225614 I I #
edge $-1 $498 6.5773761402145698 $290 14.659483425601335 $405 $505 forward 7 unknown #
point $-1 -60.505996887112033 -14.659483425601335 7.5894878939915911 #
point $-1 -55.826582096752368 -14.659483425601335 7.5894878939915911 #
edge $-1 $506 1 $506 0 $293 $-1 forward 7 unknown #
vertex $-1 $294 $507 #
ellipse-curve $-1 -57.110773142038582 -12.350309915490829 3.8454495429374043 -0.77714596973225614 0 0.62932038083071107 0.31466019041535553 0 0.38857298486612807 1 I I #
point $-1 -57.851629301516851 -12.350309915490829 5.088762791742556 #
edge $-1 $508 1 $508 0 $297 $-1 forward 7 unknown #
vertex $-1 $298 $509 #
ellipse-curve $-1 -57.110773142038582 -8.8865496503250725 3.8454495429374043 -0.77714596973225614 0 0.62932038083071107 0.31466019041535553 0 0.38857298486612807 1 I I #
point $-1 -57.851629301516851 -8.8865496503250725 5.088762791742556 #
loop $-1 $-1 $309 $301 #
plane-surface $-1 -60.505996887112033 0 0 1 0 0 0 0 -1 forward_v I I I I #
coedge $-1 $424 $304 $306 $428 reversed $199 $-1 #
coedge $-1 $304 $423 $510 $511 reversed $199 $-1 #
coedge $-1 $312 $307 $304 $426 forward $302 $-1 #
edge $-1 $429 -21.448407972255204 $512 -16.768993181895539 $425 $513 forward 7 unknown #
coedge $-1 $306 $305 $432 $514 reversed $125 $-1 #
edge $-1 $515 0 $429 7.4356638254473442 $423 $516 forward 7 unknown #
vertex $-1 $308 $517 #
straight-curve $-1 -55.826582096752361 8.1429325056260957 7.589487893991592 0 1 0 I I #
coedge $-1 $510 $309 $312 $436 reversed $421 $-1 #
coedge $-1 $309 $510 $427 $514 forward $421 $-1 #
vertex $-1 $310 $518 #
straight-curve $-1 -60.505996887112033 12.244811368558809 38.983102863419795 0 0 1 I I #
straight-curve $-1 -60.505996887112033 12.244811368558809 1.8108917197612584 -0.62932038083071107 0 -0.77714596973225614 I I #
edge $-1 $512 -20.326918653945576 $313 -12.244811368558809 $431 $519 forward 7 unknown #
point $-1 -60.505996887112033 12.244811368558809 7.5894878939915911 #
point $-1 -55.826582096752368 12.244811368558809 7.5894878939915911 #
edge $-1 $520 1 $520 0 $316 $-1 forward 7 unknown #
vertex $-1 $317 $521 #
ellipse-curve $-1 -57.110773142038582 14.553984878669318 3.8454495429374043 -0.77714596973225614 0 0.62932038083071107 0.31466019041535553 0 0.38857298486612807 1 I I #
point $-1 -57.851629301516851 14.553984878669318 5.088762791742556 #
edge $-1 $522 1 $522 0 $320 $-1 forward 7 unknown #
vertex $-1 $321 $523 #
ellipse-curve $-1 -57.110773142038582 18.017745143835079 3.8454495429374043 -0.77714596973225614 0 0.62932038083071107 0.31466019041535553 0 0.38857298486612807 1 I I #
point $-1 -57.851629301516851 18.017745143835079 5.088762791742556 #
plane-surface $-1 60.505996887112033 0 0 -1 0 0 0 0 1 forward_v I I I I #
coedge $-1 $329 $327 $331 $452 reversed $221 $-1 #
edge $-1 $342 -7.5894878939915911 $454 7.5894878939915911 $341 $524 forward 7 unknown #
vertex $-1 $452 $525 #
straight-curve $-1 -60.505996887112033 -29.615199092843149 0 0 0 -1 I I #
edge $-1 $450 -29.615199092843149 $454 29.615199092843149 $448 $526 forward 7 unknown #
straight-curve $-1 0 -29.615199092843149 -7.5894878939915911 -1 0 0 I I #
vertex $-1 $334 $527 #
straight-curve $-1 0 29.615199092843149 -7.5894878939915911 1 0 0 I I #
point $-1 60.505996887112033 29.615199092843149 -7.5894878939915911 #
point $-1 60.505996887112033 -29.615199092843149 -7.5894878939915911 #
straight-curve $-1 -60.505996887112033 0 7.5894878939915911 0 -1 0 I I #
point $-1 -60.505996887112033 29.615199092843149 7.5894878939915911 #
point $-1 -60.505996887112033 -29.615199092843149 7.5894878939915911 #
straight-curve $-1 60.505996887112033 -29.615199092843149 0 0 0 -1 I I #
straight-curve $-1 60.505996887112033 29.615199092843149 0 0 0 -1 I I #
plane-surface $-1 60.505996887112033 0 0 -1 0 0 0 0 1 forward_v I I I I #
coedge $-1 $466 $478 $357 $470 forward $352 $-1 #
coedge $-1 $355 $354 $363 $476 reversed $147 $-1 #
coedge $-1 $528 $464 $355 $467 forward $352 $-1 #
edge $-1 $468 24.193390495477146 $529 29.615199092843149 $355 $530 forward 7 unknown #
vertex $-1 $467 $531 #
straight-curve $-1 -60.505996887112033 -24.193390495477146 3.0447439469957955 0 0 -1 I I #
edge $-1 $471 -60.505996887112033 $468 60.505996887112033 $464 $532 forward 7 unknown #
vertex $-1 $358 $533 #
straight-curve $-1 60.505996887112033 -24.193390495477146 3.0447439469957955 0 0 1 I I #
point $-1 -60.505996887112033 -24.193390495477146 4.5894878939915911 #
straight-curve $-1 -60.505996887112033 -13.452147397080074 4.5894878939915911 0 -1 0 I I #
coedge $-1 $363 $362 $528 $534 reversed $240 $-1 #
edge $-1 $529 -7.5894878939915911 $364 -4.5894878939915911 $465 $535 forward 7 unknown #
point $-1 -60.505996887112033 -29.615199092843149 4.5894878939915911 #
coedge $-1 $464 $528 $366 $479 forward $352 $-1 #
edge $-1 $480 -29.615199092843149 $471 -24.193390495477146 $366 $536 forward 7 unknown #
vertex $-1 $479 $537 #
straight-curve $-1 60.505996887112033 -29.615199092843149 0 0 0 -1 I I #
coedge $-1 $380 $379 $372 $483 forward $370 $-1 #
edge $-1 $490 77.756156042319674 $485 81.404934017873401 $482 $538 forward 7 unknown #
edge $-1 $377 54.66673161123488 $490 60.505996887112033 $376 $539 forward 7 unknown #
vertex $-1 $483 $540 #
straight-curve $-1 -42.11799351612251 -24.193390495477143 68.067297469387981 -0.84804809178421925 0 0.52991927123019833 I I #
edge $-1 $485 -15.440912693039138 $381 -2.0640429118368715 $380 $541 forward 7 unknown #
point $-1 54.66673161123488 -24.193390495477146 7.5894878939915911 #
point $-1 60.505996887112033 -10.816520714274876 3.9407099184378609 #
vertex $-1 $384 $542 #
straight-curve $-1 60.505996887112033 0 7.5894878939915911 0 1 0 I I #
vertex $-1 $387 $543 #
point $-1 57.346789707552915 -20.371427700847924 3.4946196121361659 #
vertex $-1 $391 $544 #
point $-1 57.346789707552915 -14.638483508904095 3.4946196121361659 #
coedge $-1 $406 $405 $398 $497 forward $395 $-1 #
edge $-1 $498 31.393614969428203 $501 37.172211143658537 $496 $545 forward 7 unknown #
vertex $-1 $410 $546 #
straight-curve $-1 -77.274990069007572 -6.5773761402145698 7.5894878939915884 -1 0 0 I I #
edge $-1 $501 1.2681612487605936 $407 9.350268534147359 $406 $547 forward 7 unknown #
vertex $-1 $500 $548 #
straight-curve $-1 -60.505996887112033 -6.5773761402145698 1.8108917197612584 0.62932038083071107 0 0.77714596973225614 I I #
point $-1 -55.826582096752368 -6.5773761402145698 7.5894878939915911 #
point $-1 -60.505996887112033 -14.659483425601335 1.8108917197612584 #
straight-curve $-1 -60.505996887112033 0 7.5894878939915911 0 -1 0 I I #
vertex $-1 $413 $549 #
point $-1 -56.796112951623222 -12.350309915490829 4.2340225278035319 #
vertex $-1 $417 $550 #
point $-1 -56.796112951623222 -8.8865496503250725 4.2340225278035319 #
coedge $-1 $432 $431 $424 $511 forward $421 $-1 #
edge $-1 $512 31.393614969428203 $515 37.172211143658537 $510 $551 forward 7 unknown #
vertex $-1 $436 $552 #
straight-curve $-1 -77.274990069007572 20.326918653945576 7.5894878939915884 -1 0 0 I I #
edge $-1 $515 -12.18398614831948 $433 -4.101878862932713 $432 $553 forward 7 unknown #
vertex $-1 $514 $554 #
straight-curve $-1 -60.505996887112033 20.326918653945576 1.8108917197612584 0.62932038083071107 0 0.77714596973225614 I I #
point $-1 -55.826582096752368 20.326918653945576 7.5894878939915911 #
point $-1 -60.505996887112033 12.244811368558809 1.8108917197612584 #
straight-curve $-1 -60.505996887112033 0 7.5894878939915911 0 -1 0 I I #
vertex $-1 $439 $555 #
point $-1 -56.796112951623222 14.553984878669318 4.2340225278035319 #
vertex $-1 $443 $556 #
point $-1 -56.796112951623222 18.017745143835079 4.2340225278035319 #
straight-curve $-1 -60.505996887112033 29.615199092843149 0 0 0 -1 I I #
point $-1 -60.505996887112033 -29.615199092843149 -7.5894878939915911 #
straight-curve $-1 -60.505996887112033 0 -7.5894878939915911 0 1 0 I I #
point $-1 -60.505996887112033 29.615199092843149 -7.5894878939915911 #
coedge $-1 $478 $466 $475 $534 forward $352 $-1 #
vertex $-1 $467 $557 #
straight-curve $-1 -60.505996887112033 0 7.5894878939915911 0 -1 0 I I #
point $-1 -60.505996887112033 -24.193390495477146 7.5894878939915911 #
straight-curve $-1 0 -24.193390495477146 7.5894878939915911 -1 0 0 I I #
point $-1 60.505996887112033 -24.193390495477146 7.5894878939915911 #
edge $-1 $529 -60.505996887112033 $480 60.505996887112033 $475 $558 forward 7 unknown #
straight-curve $-1 -60.505996887112033 -29.615199092843149 0 0 0 -1 I I #
straight-curve $-1 60.505996887112033 0 7.5894878939915911 0 1 0 I I #
point $-1 60.505996887112033 -29.615199092843149 7.5894878939915911 #
straight-curve $-1 60.505996887112033 -24.193390495477143 85.345643936311262 0 0 -1 I I #
straight-curve $-1 0 -24.193390495477146 7.5894878939915911 1 0 0 I I #
point $-1 60.505996887112033 -24.193390495477143 3.9407099184378609 #
straight-curve $-1 60.505996887112033 -8.7524778024380048 3.9407099184378644 0 1 0 I I #
point $-1 60.505996887112033 -24.193390495477146 7.5894878939915911 #
point $-1 55.968822344538495 -20.371427700847924 3.176490791582145 #
point $-1 55.968822344538495 -14.638483508904095 3.176490791582145 #
straight-curve $-1 -60.505996887112033 -6.5773761402145698 38.983102863419795 0 0 -1 I I #
point $-1 -60.505996887112033 -6.5773761402145698 7.5894878939915911 #
straight-curve $-1 -60.505996887112033 -5.3092148914539763 1.8108917197612566 0 -1 0 I I #
point $-1 -60.505996887112033 -6.5773761402145698 1.8108917197612584 #
point $-1 -56.722200157172452 -12.350309915490829 3.5307893525220488 #
point $-1 -56.722200157172452 -8.8865496503250725 3.5307893525220488 #
straight-curve $-1 -60.505996887112033 20.326918653945576 38.983102863419795 0 0 -1 I I #
point $-1 -60.505996887112033 20.326918653945576 7.5894878939915911 #
straight-curve $-1 -60.505996887112033 8.1429325056260957 1.8108917197612566 0 -1 0 I I #
point $-1 -60.505996887112033 20.326918653945576 1.8108917197612584 #
point $-1 -56.722200157172452 14.553984878669318 3.5307893525220488 #
point $-1 -56.722200157172452 18.017745143835079 3.5307893525220488 #
point $-1 -60.505996887112033 -29.615199092843149 7.5894878939915911 #
straight-curve $-1 0 -29.615199092843149 7.5894878939915911 1 0 0 I I #
End-of-ACIS-data 