500 0 12 0           
7 Unknown 11 ACIS 5.0 NT 24 Thu Mar 25 15:49:27 1999 
-1 9.9999999999999995e-007 1e-010 
body $-1 $12 $-1 $13 #
body $-1 $14 $-1 $15 #
body $-1 $16 $-1 $17 #
body $-1 $18 $-1 $19 #
body $-1 $20 $-1 $21 #
body $-1 $22 $-1 $23 #
body $-1 $24 $-1 $25 #
body $-1 $26 $-1 $27 #
body $-1 $28 $-1 $29 #
body $-1 $30 $-1 $31 #
body $-1 $32 $-1 $33 #
body $-1 $34 $-1 $35 #
lump $-1 $-1 $36 $0 #
transform $-1 1 0 0 0 1 0 0 0 1 62.41523483993042 30.291970476773752 13.240106569759392 1 rotate no_reflect no_shear #
lump $-1 $-1 $37 $1 #
transform $-1 1 0 0 0 1 0 0 0 1 62.41523483993042 30.291970476773752 13.240106569759392 1 rotate no_reflect no_shear #
lump $-1 $-1 $38 $2 #
transform $-1 1 0 0 0 1 0 0 0 1 62.41523483993042 30.291970476773752 13.240106569759392 1 rotate no_reflect no_shear #
lump $-1 $-1 $39 $3 #
transform $-1 1 0 0 0 1 0 0 0 1 62.41523483993042 30.291970476773752 13.240106569759392 1 rotate no_reflect no_shear #
lump $-1 $-1 $40 $4 #
transform $-1 1 0 0 0 1 0 0 0 1 62.41523483993042 30.291970476773752 13.240106569759392 1 rotate no_reflect no_shear #
lump $-1 $-1 $41 $5 #
transform $-1 1 0 0 0 1 0 0 0 1 62.41523483993042 30.291970476773752 13.240106569759392 1 rotate no_reflect no_shear #
lump $-1 $-1 $42 $6 #
transform $-1 1 0 0 0 1 0 0 0 1 62.41523483993042 30.291970476773752 13.240106569759392 1 rotate no_reflect no_shear #
lump $-1 $-1 $43 $7 #
transform $-1 1 0 0 0 1 0 0 0 1 62.41523483993042 30.291970476773752 13.240106569759392 1 rotate no_reflect no_shear #
lump $-1 $-1 $44 $8 #
transform $-1 1 0 0 0 1 0 0 0 1 62.41523483993042 30.291970476773752 13.240106569759392 1 rotate no_reflect no_shear #
lump $-1 $-1 $45 $9 #
transform $-1 1 0 0 0 1 0 0 0 1 62.41523483993042 30.291970476773752 13.240106569759392 1 rotate no_reflect no_shear #
lump $-1 $-1 $46 $10 #
transform $-1 1 0 0 0 1 0 0 0 1 62.41523483993042 30.291970476773752 13.240106569759392 1 rotate no_reflect no_shear #
lump $-1 $-1 $47 $11 #
transform $-1 1 0 0 0 1 0 0 0 1 62.41523483993042 30.291970476773752 13.240106569759392 1 rotate no_reflect no_shear #
shell $-1 $-1 $-1 $48 $-1 $12 #
shell $-1 $-1 $-1 $49 $-1 $14 #
shell $-1 $-1 $-1 $50 $-1 $16 #
shell $-1 $-1 $-1 $51 $-1 $18 #
shell $-1 $-1 $-1 $52 $-1 $20 #
shell $-1 $-1 $-1 $53 $-1 $22 #
shell $-1 $-1 $-1 $54 $-1 $24 #
shell $-1 $-1 $-1 $55 $-1 $26 #
shell $-1 $-1 $-1 $56 $-1 $28 #
shell $-1 $-1 $-1 $57 $-1 $30 #
shell $-1 $-1 $-1 $58 $-1 $32 #
shell $-1 $-1 $-1 $59 $-1 $34 #
face $-1 $60 $61 $36 $-1 $62 forward single #
face $-1 $63 $64 $37 $-1 $65 forward single #
face $-1 $66 $67 $38 $-1 $68 reversed single #
face $-1 $69 $70 $39 $-1 $71 forward single #
face $-1 $72 $73 $40 $-1 $74 reversed single #
face $-1 $75 $76 $41 $-1 $77 forward single #
face $-1 $78 $79 $42 $-1 $80 reversed single #
face $-1 $81 $82 $43 $-1 $83 forward single #
face $-1 $84 $85 $44 $-1 $86 forward single #
face $-1 $87 $88 $45 $-1 $89 reversed single #
face $-1 $90 $91 $46 $-1 $92 forward single #
face $-1 $93 $94 $47 $-1 $95 forward single #
face $-1 $96 $97 $36 $-1 $98 reversed single #
loop $-1 $-1 $99 $48 #
plane-surface $-1 0 0 13.240106569759392 0 0 1 1 0 0 forward_v I I I I #
face $-1 $100 $101 $37 $-1 $102 forward single #
loop $-1 $-1 $103 $49 #
plane-surface $-1 0 -30.291970476773752 0 0 1 0 0 0 1 forward_v I I I I #
face $-1 $104 $105 $38 $-1 $106 reversed single #
loop $-1 $-1 $107 $50 #
plane-surface $-1 37.846042685928708 2.6629057099971938 180.89695929780999 0 -1 0 -0.6018150307709319 0 -0.79863550430605224 forward_v I I I I #
face $-1 $108 $109 $39 $-1 $110 forward single #
loop $-1 $111 $112 $51 #
cone-surface $-1 56.911986976722801 -2.3042206426377199 8.662379873895647 -0.6018150307709319 0 -0.79863550430605224 0.79863550430605224 0 -0.6018150307709319 1 I I 0 1 1 forward I I I I #
face $-1 $113 $114 $40 $-1 $115 reversed single #
loop $-1 $-1 $116 $52 #
plane-surface $-1 37.846042685928708 18.791876187650441 180.89695929780999 0 -1 0 -0.6018150307709319 0 -0.79863550430605224 forward_v I I I I #
face $-1 $117 $118 $41 $-1 $119 forward single #
loop $-1 $120 $121 $53 #
cone-surface $-1 56.911986976722801 13.824749835015528 8.662379873895647 -0.6018150307709319 0 -0.79863550430605224 0.79863550430605224 0 -0.6018150307709319 1 I I 0 1 1 forward I I I I #
face $-1 $122 $123 $42 $-1 $124 reversed single #
loop $-1 $-1 $125 $54 #
plane-surface $-1 -153.71046194683097 -18.771441284395937 94.465493879390323 0 1 0 -0.73135370988377701 0 0.68199835119979291 forward_v I I I I #
face $-1 $126 $127 $43 $-1 $128 forward single #
loop $-1 $129 $130 $55 #
cone-surface $-1 -59.868226268381022 -15.329251057384546 10.610099186356477 0.73135370988377701 0 -0.68199835119979291 0.34099917559989645 0 0.36567685494188851 1 I I 0 1 0.5 forward I I I I #
face $-1 $131 $132 $44 $-1 $133 forward single #
loop $-1 $134 $135 $56 #
cone-surface $-1 -59.868226268381022 -10.165965716867458 10.610099186356477 0.73135370988377701 0 -0.68199835119979291 0.34099917559989645 0 0.36567685494188851 1 I I 0 1 0.5 forward I I I I #
face $-1 $136 $137 $45 $-1 $138 reversed single #
loop $-1 $-1 $139 $57 #
plane-surface $-1 -153.71046194683097 5.7602645961889101 94.465493879390323 0 1 0 -0.73135370988377701 0 0.68199835119979291 forward_v I I I I #
face $-1 $140 $141 $46 $-1 $142 forward single #
loop $-1 $143 $144 $58 #
cone-surface $-1 -59.868226268381022 9.2024548232003021 10.610099186356477 0.73135370988377701 0 -0.68199835119979291 0.34099917559989645 0 0.36567685494188851 1 I I 0 1 0.5 forward I I I I #
face $-1 $145 $146 $47 $-1 $147 forward single #
loop $-1 $148 $149 $59 #
cone-surface $-1 -59.868226268381022 14.365740163717387 10.610099186356477 0.73135370988377701 0 -0.68199835119979291 0.34099917559989645 0 0.36567685494188851 1 I I 0 1 0.5 forward I I I I #
face $-1 $150 $151 $36 $-1 $152 reversed single #
loop $-1 $-1 $153 $60 #
plane-surface $-1 0 0 -13.240106569759392 0 0 1 1 0 0 forward_v I I I I #
coedge $-1 $154 $155 $156 $157 forward $61 $-1 #
face $-1 $158 $159 $37 $-1 $160 reversed single #
loop $-1 $-1 $161 $63 #
plane-surface $-1 0 0 13.240106569759392 0 0 1 1 0 0 forward_v I I I I #
coedge $-1 $162 $163 $164 $165 forward $64 $-1 #
face $-1 $166 $167 $38 $-1 $168 reversed single #
loop $-1 $-1 $169 $66 #
plane-surface $-1 -37.278810265606623 -2.3042206426377199 81.202914192272971 0.6018150307709319 0 0.79863550430605224 0.79863550430605224 0 -0.6018150307709319 forward_v I I I I #
coedge $-1 $170 $171 $172 $173 reversed $67 $-1 #
face $-1 $-1 $174 $39 $-1 $175 forward single #
loop $-1 $176 $177 $69 #
cone-surface $-1 55.860009086849857 -2.3042206426377199 7.2663580903897493 -0.6018150307709319 0 -0.79863550430605224 0.39931775215302612 0 -0.30090751538546595 1 I I -0.70710678118654746 0.70710678118654746 0.5 forward I I I I #
loop $-1 $-1 $178 $51 #
coedge $-1 $112 $112 $179 $180 reversed $70 $-1 #
face $-1 $181 $182 $40 $-1 $183 reversed single #
loop $-1 $-1 $184 $72 #
plane-surface $-1 -37.278810265606623 13.824749835015528 81.202914192272971 0.6018150307709319 0 0.79863550430605224 0.79863550430605224 0 -0.6018150307709319 forward_v I I I I #
coedge $-1 $185 $186 $187 $188 reversed $73 $-1 #
face $-1 $-1 $189 $41 $-1 $190 forward single #
loop $-1 $191 $192 $75 #
cone-surface $-1 55.860009086849857 13.824749835015528 7.2663580903897493 -0.6018150307709319 0 -0.79863550430605224 0.39931775215302612 0 -0.30090751538546595 1 I I -0.70710678118654746 0.70710678118654746 0.5 forward I I I I #
loop $-1 $-1 $193 $53 #
coedge $-1 $121 $121 $194 $195 reversed $76 $-1 #
face $-1 $196 $197 $42 $-1 $198 reversed single #
loop $-1 $-1 $199 $78 #
plane-surface $-1 -62.415234839930406 -12.747608387126 9.3313193782294945 -0.73135370988377701 0 0.68199835119979291 0.68199835119979291 0 0.73135370988377701 forward_v I I I I #
coedge $-1 $200 $201 $202 $203 reversed $79 $-1 #
face $-1 $-1 $204 $43 $-1 $205 forward single #
loop $-1 $206 $207 $81 #
cone-surface $-1 -58.960880737383512 -15.329251057384546 9.7639858109185678 0.73135370988377701 0 -0.68199835119979291 0.17049958779994823 0 0.18283842747094425 1 I I -0.70710678118654746 0.70710678118654746 0.25 forward I I I I #
loop $-1 $-1 $208 $55 #
coedge $-1 $130 $130 $209 $210 reversed $82 $-1 #
face $-1 $-1 $211 $44 $-1 $212 forward single #
loop $-1 $213 $214 $84 #
cone-surface $-1 -58.960880737383512 -10.165965716867458 9.7639858109185678 0.73135370988377701 0 -0.68199835119979291 0.17049958779994823 0 0.18283842747094425 1 I I -0.70710678118654746 0.70710678118654746 0.25 forward I I I I #
loop $-1 $-1 $215 $56 #
coedge $-1 $135 $135 $216 $217 reversed $85 $-1 #
face $-1 $218 $219 $45 $-1 $220 reversed single #
loop $-1 $-1 $221 $87 #
plane-surface $-1 -62.415234839930406 11.784097493458848 9.3313193782294945 -0.73135370988377701 0 0.68199835119979291 0.68199835119979291 0 0.73135370988377701 forward_v I I I I #
coedge $-1 $222 $223 $224 $225 reversed $88 $-1 #
face $-1 $-1 $226 $46 $-1 $227 forward single #
loop $-1 $228 $229 $90 #
cone-surface $-1 -58.960880737383512 9.2024548232003021 9.7639858109185678 0.73135370988377701 0 -0.68199835119979291 0.17049958779994823 0 0.18283842747094425 1 I I -0.70710678118654746 0.70710678118654746 0.25 forward I I I I #
loop $-1 $-1 $230 $58 #
coedge $-1 $144 $144 $231 $232 reversed $91 $-1 #
face $-1 $-1 $233 $47 $-1 $234 forward single #
loop $-1 $235 $236 $93 #
cone-surface $-1 -58.960880737383512 14.365740163717387 9.7639858109185678 0.73135370988377701 0 -0.68199835119979291 0.17049958779994823 0 0.18283842747094425 1 I I -0.70710678118654746 0.70710678118654746 0.25 forward I I I I #
loop $-1 $-1 $237 $59 #
coedge $-1 $149 $149 $238 $239 reversed $94 $-1 #
face $-1 $240 $241 $36 $-1 $242 reversed single #
loop $-1 $-1 $243 $96 #
plane-surface $-1 0 -30.291970476773752 0 0 1 0 0 0 1 forward_v I I I I #
coedge $-1 $244 $245 $246 $247 forward $97 $-1 #
coedge $-1 $248 $99 $249 $250 forward $61 $-1 #
coedge $-1 $99 $248 $251 $252 forward $61 $-1 #
coedge $-1 $253 $254 $99 $157 reversed $255 $-1 #
edge $-1 $256 -30.291970476773752 $257 30.291970476773752 $156 $258 forward 7 unknown #
face $-1 $259 $260 $37 $-1 $261 reversed single #
loop $-1 $-1 $262 $100 #
plane-surface $-1 -62.41523483993042 0 0 1 0 0 0 0 -1 forward_v I I I I #
coedge $-1 $263 $264 $265 $266 forward $101 $-1 #
coedge $-1 $265 $103 $262 $267 reversed $64 $-1 #
coedge $-1 $103 $265 $268 $269 reversed $64 $-1 #
coedge $-1 $270 $271 $103 $165 reversed $260 $-1 #
edge $-1 $272 -62.41523483993042 $273 62.41523483993042 $164 $274 forward 7 unknown #
face $-1 $275 $276 $38 $-1 $277 reversed single #
loop $-1 $-1 $278 $104 #
plane-surface $-1 37.846042685928708 -7.2713469952726335 180.89695929780999 0 1 0 0.6018150307709319 0 0.79863550430605224 forward_v I I I I #
coedge $-1 $279 $280 $281 $282 reversed $105 $-1 #
coedge $-1 $171 $107 $283 $284 reversed $67 $-1 #
coedge $-1 $107 $170 $279 $285 reversed $67 $-1 #
coedge $-1 $281 $286 $107 $173 forward $287 $-1 #
edge $-1 $288 -43.492213496966066 $289 -33.987858519525751 $172 $290 forward 7 unknown #
loop $-1 $-1 $179 $108 #
plane-surface $-1 -37.278810265606623 -2.3042206426377199 81.202914192272971 0.6018150307709319 0 0.79863550430605224 0.79863550430605224 0 -0.6018150307709319 forward_v I I I I #
loop $-1 $-1 $291 $69 #
coedge $-1 $177 $177 $178 $292 reversed $109 $-1 #
coedge $-1 $178 $178 $177 $292 forward $111 $-1 #
coedge $-1 $179 $179 $112 $180 forward $174 $-1 #
edge $-1 $293 0 $293 6.2831853071796004 $179 $294 forward 7 unknown #
face $-1 $295 $296 $40 $-1 $297 reversed single #
loop $-1 $-1 $298 $113 #
plane-surface $-1 37.846042685928708 8.8576234823806139 180.89695929780999 0 1 0 0.6018150307709319 0 0.79863550430605224 forward_v I I I I #
coedge $-1 $299 $300 $301 $302 reversed $114 $-1 #
coedge $-1 $186 $116 $303 $304 reversed $73 $-1 #
coedge $-1 $116 $185 $299 $305 reversed $73 $-1 #
coedge $-1 $301 $306 $116 $188 forward $307 $-1 #
edge $-1 $308 -43.492213496966066 $309 -33.987858519525751 $187 $310 forward 7 unknown #
loop $-1 $-1 $194 $117 #
plane-surface $-1 -37.278810265606623 13.824749835015528 81.202914192272971 0.6018150307709319 0 0.79863550430605224 0.79863550430605224 0 -0.6018150307709319 forward_v I I I I #
loop $-1 $-1 $311 $75 #
coedge $-1 $192 $192 $193 $312 reversed $118 $-1 #
coedge $-1 $193 $193 $192 $312 forward $120 $-1 #
coedge $-1 $194 $194 $121 $195 forward $189 $-1 #
edge $-1 $313 0 $313 6.2831853071796004 $194 $314 forward 7 unknown #
face $-1 $315 $316 $42 $-1 $317 forward single #
loop $-1 $-1 $318 $122 #
plane-surface $-1 -153.71046194683097 -6.7237754898560622 94.465493879390323 0 -1 0 0.73135370988377701 0 -0.68199835119979291 forward_v I I I I #
coedge $-1 $319 $320 $321 $322 reversed $123 $-1 #
coedge $-1 $201 $125 $323 $324 reversed $79 $-1 #
coedge $-1 $125 $200 $319 $325 reversed $79 $-1 #
coedge $-1 $321 $326 $125 $203 forward $316 $-1 #
edge $-1 $327 14.439996133485067 $328 18.084999069530753 $202 $329 forward 7 unknown #
loop $-1 $-1 $209 $126 #
plane-surface $-1 -62.415234839930406 -12.747608387126 9.3313193782294945 -0.73135370988377701 0 0.68199835119979291 0.68199835119979291 0 0.73135370988377701 forward_v I I I I #
loop $-1 $-1 $330 $81 #
coedge $-1 $207 $207 $208 $331 reversed $127 $-1 #
coedge $-1 $208 $208 $207 $331 forward $129 $-1 #
coedge $-1 $209 $209 $130 $210 forward $204 $-1 #
edge $-1 $332 0 $332 6.2831853071796004 $209 $333 forward 7 unknown #
loop $-1 $-1 $216 $131 #
plane-surface $-1 -62.415234839930406 -12.747608387126 9.3313193782294945 -0.73135370988377701 0 0.68199835119979291 0.68199835119979291 0 0.73135370988377701 forward_v I I I I #
loop $-1 $-1 $334 $84 #
coedge $-1 $214 $214 $215 $335 reversed $132 $-1 #
coedge $-1 $215 $215 $214 $335 forward $134 $-1 #
coedge $-1 $216 $216 $135 $217 forward $211 $-1 #
edge $-1 $336 0 $336 6.2831853071796004 $216 $337 forward 7 unknown #
face $-1 $338 $339 $45 $-1 $340 forward single #
loop $-1 $-1 $341 $136 #
plane-surface $-1 -153.71046194683097 17.807930390728785 94.465493879390323 0 -1 0 0.73135370988377701 0 -0.68199835119979291 forward_v I I I I #
coedge $-1 $342 $343 $344 $345 reversed $137 $-1 #
coedge $-1 $223 $139 $346 $347 reversed $88 $-1 #
coedge $-1 $139 $222 $342 $348 reversed $88 $-1 #
coedge $-1 $344 $349 $139 $225 forward $339 $-1 #
edge $-1 $350 14.439996133485067 $351 18.084999069530753 $224 $352 forward 7 unknown #
loop $-1 $-1 $231 $140 #
plane-surface $-1 -62.415234839930406 11.784097493458848 9.3313193782294945 -0.73135370988377701 0 0.68199835119979291 0.68199835119979291 0 0.73135370988377701 forward_v I I I I #
loop $-1 $-1 $353 $90 #
coedge $-1 $229 $229 $230 $354 reversed $141 $-1 #
coedge $-1 $230 $230 $229 $354 forward $143 $-1 #
coedge $-1 $231 $231 $144 $232 forward $226 $-1 #
edge $-1 $355 0 $355 6.2831853071796004 $231 $356 forward 7 unknown #
loop $-1 $-1 $238 $145 #
plane-surface $-1 -62.415234839930406 11.784097493458848 9.3313193782294945 -0.73135370988377701 0 0.68199835119979291 0.68199835119979291 0 0.73135370988377701 forward_v I I I I #
loop $-1 $-1 $357 $93 #
coedge $-1 $236 $236 $237 $358 reversed $146 $-1 #
coedge $-1 $237 $237 $236 $358 forward $148 $-1 #
coedge $-1 $238 $238 $149 $239 forward $233 $-1 #
edge $-1 $359 0 $359 6.2831853071796004 $238 $360 forward 7 unknown #
face $-1 $361 $362 $36 $-1 $363 reversed single #
loop $-1 $-1 $364 $150 #
plane-surface $-1 -62.41523483993042 0 0 1 0 0 0 0 -1 forward_v I I I I #
coedge $-1 $365 $251 $366 $367 forward $151 $-1 #
coedge $-1 $368 $153 $365 $369 forward $97 $-1 #
coedge $-1 $153 $368 $370 $371 forward $97 $-1 #
coedge $-1 $254 $253 $153 $247 reversed $255 $-1 #
edge $-1 $372 -30.291970476773752 $373 30.291970476773752 $246 $374 forward 7 unknown #
coedge $-1 $155 $154 $375 $376 forward $61 $-1 #
coedge $-1 $377 $378 $154 $250 reversed $362 $-1 #
edge $-1 $257 -62.41523483993042 $379 62.41523483993042 $249 $380 forward 7 unknown #
coedge $-1 $243 $381 $155 $252 reversed $151 $-1 #
edge $-1 $382 -62.41523483993042 $256 62.41523483993042 $251 $383 forward 7 unknown #
coedge $-1 $246 $156 $381 $384 forward $255 $-1 #
coedge $-1 $156 $246 $377 $385 reversed $255 $-1 #
loop $-1 $-1 $253 $361 #
vertex $-1 $157 $386 #
vertex $-1 $157 $387 #
straight-curve $-1 62.41523483993042 0 13.240106569759392 0 1 0 I I #
face $-1 $388 $389 $37 $-1 $390 reversed single #
loop $-1 $-1 $270 $158 #
plane-surface $-1 0 -36.05223507296266 8.0241502824460547 0 0 1 1 0 0 forward_v I I I I #
coedge $-1 $391 $392 $162 $267 forward $159 $-1 #
coedge $-1 $393 $161 $392 $394 forward $101 $-1 #
coedge $-1 $161 $393 $395 $396 forward $101 $-1 #
coedge $-1 $163 $162 $161 $266 reversed $64 $-1 #
edge $-1 $397 -62.41523483993042 $398 62.41523483993042 $161 $399 forward 7 unknown #
edge $-1 $398 -13.240106569759392 $273 -8.0241502824460547 $262 $400 forward 7 unknown #
coedge $-1 $395 $401 $163 $269 forward $402 $-1 #
edge $-1 $272 8.0241502824460547 $397 13.240106569759392 $268 $403 forward 7 unknown #
coedge $-1 $404 $164 $401 $405 forward $260 $-1 #
coedge $-1 $164 $404 $391 $406 forward $260 $-1 #
vertex $-1 $269 $407 #
vertex $-1 $267 $408 #
straight-curve $-1 0 -30.291970476773752 8.0241502824460547 -1 0 0 I I #
face $-1 $-1 $287 $38 $-1 $409 forward single #
loop $-1 $-1 $410 $166 #
plane-surface $-1 62.41523483993042 0 0 -1 0 0 0 0 1 forward_v I I I I #
coedge $-1 $411 $412 $413 $414 reversed $167 $-1 #
coedge $-1 $415 $169 $171 $285 forward $105 $-1 #
coedge $-1 $169 $415 $411 $416 forward $105 $-1 #
coedge $-1 $413 $172 $169 $282 forward $287 $-1 #
edge $-1 $289 -3.8150160313160537 $417 6.1192366739537736 $281 $418 forward 7 unknown #
coedge $-1 $419 $420 $170 $284 forward $276 $-1 #
edge $-1 $421 -84.370418408167367 $288 -77.208373079145602 $283 $422 forward 7 unknown #
edge $-1 $289 112.92972781928104 $421 124.83046967986087 $171 $423 forward 7 unknown #
coedge $-1 $172 $413 $419 $424 forward $287 $-1 #
loop $-1 $-1 $413 $275 #
vertex $-1 $284 $425 #
vertex $-1 $173 $426 #
straight-curve $-1 18.923021342964354 2.6629057099971938 13.240106569759391 -1 0 0 I I #
coedge $-1 $291 $291 $-1 $427 reversed $176 $-1 #
edge $-1 $428 0 $428 6.2831853071796004 $177 $429 forward 7 unknown #
vertex $-1 $180 $430 #
ellipse-curve $-1 57.66305735121027 -2.3042206426377199 9.659083905248508 0.6018150307709319 0 0.79863550430605224 0.79863550430605224 0 -0.6018150307709319 1 I I #
face $-1 $-1 $307 $40 $-1 $431 forward single #
loop $-1 $-1 $432 $181 #
plane-surface $-1 62.41523483993042 0 0 -1 0 0 0 0 1 forward_v I I I I #
coedge $-1 $433 $434 $435 $436 reversed $182 $-1 #
coedge $-1 $437 $184 $186 $305 forward $114 $-1 #
coedge $-1 $184 $437 $433 $438 forward $114 $-1 #
coedge $-1 $435 $187 $184 $302 forward $307 $-1 #
edge $-1 $309 -11.879501270142677 $439 -1.9452485648728501 $301 $440 forward 7 unknown #
coedge $-1 $441 $442 $185 $304 forward $296 $-1 #
edge $-1 $443 -84.370418408167367 $308 -77.208373079145602 $303 $444 forward 7 unknown #
edge $-1 $309 112.92972781928104 $443 124.83046967986087 $186 $445 forward 7 unknown #
coedge $-1 $187 $435 $441 $446 forward $307 $-1 #
loop $-1 $-1 $435 $295 #
vertex $-1 $304 $447 #
vertex $-1 $188 $448 #
straight-curve $-1 18.923021342964354 18.791876187650441 13.240106569759391 -1 0 0 I I #
coedge $-1 $311 $311 $-1 $449 reversed $191 $-1 #
edge $-1 $450 0 $450 6.2831853071796004 $192 $451 forward 7 unknown #
vertex $-1 $195 $452 #
ellipse-curve $-1 57.66305735121027 13.824749835015528 9.659083905248508 0.6018150307709319 0 0.79863550430605224 0.79863550430605224 0 -0.6018150307709319 1 I I #
face $-1 $-1 $453 $42 $-1 $454 reversed single #
loop $-1 $-1 $202 $196 #
plane-surface $-1 0 0 13.240106569759392 0 0 1 1 0 0 forward_v I I I I #
coedge $-1 $455 $456 $457 $458 reversed $197 $-1 #
coedge $-1 $459 $199 $201 $325 forward $123 $-1 #
coedge $-1 $199 $459 $455 $460 forward $123 $-1 #
coedge $-1 $457 $202 $199 $322 forward $316 $-1 #
edge $-1 $328 -12.397637090832937 $461 -0.34997129629306212 $321 $462 forward 7 unknown #
coedge $-1 $463 $464 $200 $324 forward $453 $-1 #
edge $-1 $465 -37.901427561465681 $327 -33.992640369935771 $323 $466 forward 7 unknown #
edge $-1 $328 -5.3445920061731318 $465 2.1384085966062714e-014 $201 $467 forward 7 unknown #
coedge $-1 $202 $457 $463 $468 forward $316 $-1 #
vertex $-1 $324 $469 #
vertex $-1 $203 $470 #
straight-curve $-1 -76.855230973415487 -18.771441284395937 13.240106569759391 1 0 0 I I #
coedge $-1 $330 $330 $-1 $471 reversed $206 $-1 #
edge $-1 $472 0 $472 6.2831853071796004 $207 $473 forward 7 unknown #
vertex $-1 $210 $474 #
ellipse-curve $-1 -60.592733371907578 -15.329251057384546 11.285712973994434 -0.73135370988377701 0 0.68199835119979291 0.34099917559989645 0 0.36567685494188851 1 I I #
coedge $-1 $334 $334 $-1 $475 reversed $213 $-1 #
edge $-1 $476 0 $476 6.2831853071796004 $214 $477 forward 7 unknown #
vertex $-1 $217 $478 #
ellipse-curve $-1 -60.592733371907578 -10.165965716867458 11.285712973994434 -0.73135370988377701 0 0.68199835119979291 0.34099917559989645 0 0.36567685494188851 1 I I #
face $-1 $-1 $479 $45 $-1 $480 reversed single #
loop $-1 $-1 $224 $218 #
plane-surface $-1 0 0 13.240106569759392 0 0 1 1 0 0 forward_v I I I I #
coedge $-1 $481 $482 $483 $484 reversed $219 $-1 #
coedge $-1 $485 $221 $223 $348 forward $137 $-1 #
coedge $-1 $221 $485 $481 $486 forward $137 $-1 #
coedge $-1 $483 $224 $221 $345 forward $339 $-1 #
edge $-1 $351 -0.13178415054051396 $487 11.915881643999361 $344 $488 forward 7 unknown #
coedge $-1 $489 $490 $222 $347 forward $479 $-1 #
edge $-1 $491 -37.901427561465681 $350 -33.992640369935771 $346 $492 forward 7 unknown #
edge $-1 $351 -5.3445920061731318 $491 2.1384085966062714e-014 $223 $493 forward 7 unknown #
coedge $-1 $224 $483 $489 $494 forward $339 $-1 #
vertex $-1 $225 $495 #
vertex $-1 $225 $496 #
straight-curve $-1 -76.855230973415487 5.7602645961889101 13.240106569759391 1 0 0 I I #
coedge $-1 $353 $353 $-1 $497 reversed $228 $-1 #
edge $-1 $498 0 $498 6.2831853071796004 $229 $499 forward 7 unknown #
vertex $-1 $232 $500 #
ellipse-curve $-1 -60.592733371907578 9.2024548232003021 11.285712973994434 -0.73135370988377701 0 0.68199835119979291 0.34099917559989645 0 0.36567685494188851 1 I I #
coedge $-1 $357 $357 $-1 $501 reversed $235 $-1 #
edge $-1 $502 0 $502 6.2831853071796004 $236 $503 forward 7 unknown #
vertex $-1 $239 $504 #
ellipse-curve $-1 -60.592733371907578 14.365740163717387 11.285712973994434 -0.73135370988377701 0 0.68199835119979291 0.34099917559989645 0 0.36567685494188851 1 I I #
face $-1 $-1 $255 $36 $-1 $505 reversed single #
loop $-1 $-1 $377 $240 #
plane-surface $-1 0 30.291970476773752 0 0 -1 0 0 0 -1 forward_v I I I I #
coedge $-1 $506 $375 $378 $507 forward $241 $-1 #
coedge $-1 $381 $243 $244 $369 reversed $151 $-1 #
coedge $-1 $375 $506 $243 $367 reversed $241 $-1 #
edge $-1 $382 -13.240106569759392 $508 13.240106569759392 $366 $509 forward 7 unknown #
coedge $-1 $245 $244 $506 $510 forward $97 $-1 #
edge $-1 $373 -62.41523483993042 $508 62.41523483993042 $365 $511 forward 7 unknown #
coedge $-1 $378 $377 $245 $371 reversed $362 $-1 #
edge $-1 $512 -62.41523483993042 $372 62.41523483993042 $370 $513 forward 7 unknown #
vertex $-1 $247 $514 #
vertex $-1 $384 $515 #
straight-curve $-1 62.41523483993042 0 -13.240106569759392 0 -1 0 I I #
coedge $-1 $364 $366 $248 $376 reversed $241 $-1 #
edge $-1 $379 -30.291970476773752 $382 30.291970476773752 $375 $516 forward 7 unknown #
coedge $-1 $370 $249 $254 $385 forward $362 $-1 #
coedge $-1 $249 $370 $364 $507 reversed $362 $-1 #
vertex $-1 $250 $517 #
straight-curve $-1 0 30.291970476773752 13.240106569759392 -1 0 0 I I #
coedge $-1 $251 $365 $253 $384 reversed $151 $-1 #
vertex $-1 $376 $518 #
straight-curve $-1 0 -30.291970476773752 13.240106569759392 1 0 0 I I #
edge $-1 $256 -13.240106569759392 $373 13.240106569759392 $253 $519 forward 7 unknown #
edge $-1 $257 -13.240106569759392 $372 13.240106569759392 $254 $520 forward 7 unknown #
point $-1 62.41523483993042 -30.291970476773752 13.240106569759392 #
point $-1 62.41523483993042 30.291970476773752 13.240106569759392 #
face $-1 $-1 $402 $37 $-1 $521 reversed single #
loop $-1 $-1 $522 $259 #
plane-surface $-1 0 -41.812499669151563 10.632128426102723 0 1 0 0 0 1 forward_v I I I I #
coedge $-1 $523 $262 $271 $406 reversed $159 $-1 #
coedge $-1 $262 $523 $263 $394 reversed $159 $-1 #
coedge $-1 $264 $263 $524 $525 forward $101 $-1 #
edge $-1 $398 30.291970476773752 $526 41.812499669151563 $392 $527 forward 7 unknown #
coedge $-1 $528 $268 $264 $396 reversed $402 $-1 #
edge $-1 $529 -41.812499669151563 $397 -30.291970476773752 $395 $530 forward 7 unknown #
vertex $-1 $269 $531 #
vertex $-1 $394 $532 #
straight-curve $-1 0 -30.291970476773752 13.240106569759392 -1 0 0 I I #
straight-curve $-1 -62.41523483993042 -30.291970476773752 0 0 0 -1 I I #
coedge $-1 $268 $528 $270 $405 reversed $402 $-1 #
loop $-1 $-1 $268 $388 #
straight-curve $-1 62.41523483993042 -30.291970476773752 0 0 0 1 I I #
coedge $-1 $271 $270 $533 $534 forward $260 $-1 #
edge $-1 $272 -5.7602645961889074 $535 5.7602645961889039 $401 $536 forward 7 unknown #
edge $-1 $537 -5.7602645961889039 $273 5.7602645961889074 $391 $538 forward 7 unknown #
point $-1 62.41523483993042 -30.291970476773752 8.0241502824460547 #
point $-1 -62.41523483993042 -30.291970476773752 8.0241502824460547 #
plane-surface $-1 0 0 13.240106569759392 0 0 1 1 0 0 forward_v I I I I #
coedge $-1 $420 $419 $412 $539 forward $276 $-1 #
coedge $-1 $412 $278 $280 $416 reversed $167 $-1 #
coedge $-1 $278 $411 $410 $539 reversed $167 $-1 #
coedge $-1 $286 $281 $278 $414 forward $287 $-1 #
edge $-1 $417 33.987858519525751 $540 43.492213496966066 $413 $541 forward 7 unknown #
coedge $-1 $280 $279 $420 $542 reversed $105 $-1 #
edge $-1 $543 -124.83046967986087 $417 -112.92972781928104 $411 $544 forward 7 unknown #
vertex $-1 $282 $545 #
straight-curve $-1 52.910879862490106 -1.1521103213188599 13.240106569759391 0 -1 0 I I #
coedge $-1 $410 $283 $286 $424 reversed $276 $-1 #
coedge $-1 $283 $410 $415 $542 forward $276 $-1 #
vertex $-1 $284 $546 #
straight-curve $-1 62.41523483993042 2.6629057099971938 90.448479648904993 0 0 1 I I #
straight-curve $-1 -37.278810265606623 2.6629057099971938 81.202914192272971 0.79863550430605224 0 -0.6018150307709319 I I #
edge $-1 $540 -7.2713469952726335 $288 2.6629057099971938 $419 $547 forward 7 unknown #
point $-1 62.41523483993042 2.6629057099971938 13.240106569759392 #
point $-1 52.910879862490106 2.6629057099971938 13.240106569759391 #
edge $-1 $548 1 $548 0 $291 $-1 forward 7 unknown #
vertex $-1 $292 $549 #
ellipse-curve $-1 56.160916602235325 -2.3042206426377199 7.6656758425427753 0.6018150307709319 0 0.79863550430605224 0.79863550430605224 0 -0.6018150307709319 1 I I #
point $-1 58.461692855516326 -2.3042206426377199 9.0572688744775878 #
plane-surface $-1 0 0 13.240106569759392 0 0 1 1 0 0 forward_v I I I I #
coedge $-1 $442 $441 $434 $550 forward $296 $-1 #
coedge $-1 $434 $298 $300 $438 reversed $182 $-1 #
coedge $-1 $298 $433 $432 $550 reversed $182 $-1 #
coedge $-1 $306 $301 $298 $436 forward $307 $-1 #
edge $-1 $439 33.987858519525751 $551 43.492213496966066 $435 $552 forward 7 unknown #
coedge $-1 $300 $299 $442 $553 reversed $114 $-1 #
edge $-1 $554 -124.83046967986087 $439 -112.92972781928104 $433 $555 forward 7 unknown #
vertex $-1 $302 $556 #
straight-curve $-1 52.910879862490106 6.9123749175077638 13.240106569759391 0 -1 0 I I #
coedge $-1 $432 $303 $306 $446 reversed $296 $-1 #
coedge $-1 $303 $432 $437 $553 forward $296 $-1 #
vertex $-1 $304 $557 #
straight-curve $-1 62.41523483993042 18.791876187650441 90.448479648904993 0 0 1 I I #
straight-curve $-1 -37.278810265606623 18.791876187650441 81.202914192272971 0.79863550430605224 0 -0.6018150307709319 I I #
edge $-1 $551 8.8576234823806139 $308 18.791876187650441 $441 $558 forward 7 unknown #
point $-1 62.41523483993042 18.791876187650441 13.240106569759392 #
point $-1 52.910879862490106 18.791876187650441 13.240106569759391 #
edge $-1 $559 1 $559 0 $311 $-1 forward 7 unknown #
vertex $-1 $312 $560 #
ellipse-curve $-1 56.160916602235325 13.824749835015528 7.6656758425427753 0.6018150307709319 0 0.79863550430605224 0.79863550430605224 0 -0.6018150307709319 1 I I #
point $-1 58.461692855516326 13.824749835015528 9.0572688744775878 #
loop $-1 $-1 $323 $315 #
plane-surface $-1 -62.41523483993042 0 0 1 0 0 0 0 -1 forward_v I I I I #
coedge $-1 $456 $318 $320 $460 reversed $197 $-1 #
coedge $-1 $318 $455 $561 $562 reversed $197 $-1 #
coedge $-1 $326 $321 $318 $458 forward $316 $-1 #
edge $-1 $461 -18.084999069530753 $563 -14.439996133485067 $457 $564 forward 7 unknown #
coedge $-1 $320 $319 $464 $565 reversed $123 $-1 #
edge $-1 $566 -2.1384085966062714e-014 $461 5.3445920061731318 $455 $567 forward 7 unknown #
vertex $-1 $322 $568 #
straight-curve $-1 -58.770231903884728 -6.3738041935630001 13.240106569759391 0 1 0 I I #
coedge $-1 $561 $323 $326 $468 reversed $453 $-1 #
coedge $-1 $323 $561 $459 $565 forward $453 $-1 #
vertex $-1 $324 $569 #
straight-curve $-1 -62.41523483993042 -18.771441284395937 47.232746939695161 0 0 1 I I #
straight-curve $-1 -62.415234839930406 -18.771441284395937 9.3313193782294945 -0.68199835119979291 0 -0.73135370988377701 I I #
edge $-1 $563 6.7237754898560622 $327 18.771441284395937 $463 $570 forward 7 unknown #
point $-1 -62.41523483993042 -18.771441284395937 13.240106569759392 #
point $-1 -58.770231903884735 -18.771441284395937 13.240106569759392 #
edge $-1 $571 1 $571 0 $330 $-1 forward 7 unknown #
vertex $-1 $331 $572 #
ellipse-curve $-1 -59.14371916485446 -15.329251057384546 9.9344853987185164 -0.73135370988377701 0 0.68199835119979291 0.34099917559989645 0 0.36567685494188851 1 I I #
point $-1 -60.251734196307687 -15.329251057384546 11.651389828936328 #
edge $-1 $573 1 $573 0 $334 $-1 forward 7 unknown #
vertex $-1 $335 $574 #
ellipse-curve $-1 -59.14371916485446 -10.165965716867458 9.9344853987185164 -0.73135370988377701 0 0.68199835119979291 0.34099917559989645 0 0.36567685494188851 1 I I #
point $-1 -60.251734196307687 -10.165965716867458 11.651389828936328 #
loop $-1 $-1 $346 $338 #
plane-surface $-1 -62.41523483993042 0 0 1 0 0 0 0 -1 forward_v I I I I #
coedge $-1 $482 $341 $343 $486 reversed $219 $-1 #
coedge $-1 $341 $481 $575 $576 reversed $219 $-1 #
coedge $-1 $349 $344 $341 $484 forward $339 $-1 #
edge $-1 $487 -18.084999069530753 $577 -14.439996133485067 $483 $578 forward 7 unknown #
coedge $-1 $343 $342 $490 $579 reversed $137 $-1 #
edge $-1 $580 -2.1384085966062714e-014 $487 5.3445920061731318 $481 $581 forward 7 unknown #
vertex $-1 $345 $582 #
straight-curve $-1 -58.770231903884728 5.892048746729424 13.240106569759391 0 1 0 I I #
coedge $-1 $575 $346 $349 $494 reversed $479 $-1 #
coedge $-1 $346 $575 $485 $579 forward $479 $-1 #
vertex $-1 $347 $583 #
straight-curve $-1 -62.41523483993042 5.7602645961889101 47.232746939695161 0 0 1 I I #
straight-curve $-1 -62.415234839930406 5.7602645961889101 9.3313193782294945 -0.68199835119979291 0 -0.73135370988377701 I I #
edge $-1 $577 -17.807930390728785 $350 -5.7602645961889101 $489 $584 forward 7 unknown #
point $-1 -62.41523483993042 5.7602645961889101 13.240106569759392 #
point $-1 -58.770231903884735 5.7602645961889101 13.240106569759392 #
edge $-1 $585 1 $585 0 $353 $-1 forward 7 unknown #
vertex $-1 $354 $586 #
ellipse-curve $-1 -59.14371916485446 9.2024548232003021 9.9344853987185164 -0.73135370988377701 0 0.68199835119979291 0.34099917559989645 0 0.36567685494188851 1 I I #
point $-1 -60.251734196307687 9.2024548232003021 11.651389828936328 #
edge $-1 $587 1 $587 0 $357 $-1 forward 7 unknown #
vertex $-1 $358 $588 #
ellipse-curve $-1 -59.14371916485446 14.365740163717387 9.9344853987185164 -0.73135370988377701 0 0.68199835119979291 0.34099917559989645 0 0.36567685494188851 1 I I #
point $-1 -60.251734196307687 14.365740163717387 11.651389828936328 #
plane-surface $-1 62.41523483993042 0 0 -1 0 0 0 0 1 forward_v I I I I #
coedge $-1 $366 $364 $368 $510 reversed $241 $-1 #
edge $-1 $379 -13.240106569759392 $512 13.240106569759392 $378 $589 forward 7 unknown #
vertex $-1 $510 $590 #
straight-curve $-1 -62.41523483993042 -30.291970476773752 0 0 0 -1 I I #
edge $-1 $508 -30.291970476773752 $512 30.291970476773752 $506 $591 forward 7 unknown #
straight-curve $-1 0 -30.291970476773752 -13.240106569759392 -1 0 0 I I #
vertex $-1 $371 $592 #
straight-curve $-1 0 30.291970476773752 -13.240106569759392 1 0 0 I I #
point $-1 62.41523483993042 30.291970476773752 -13.240106569759392 #
point $-1 62.41523483993042 -30.291970476773752 -13.240106569759392 #
straight-curve $-1 -62.41523483993042 0 13.240106569759392 0 -1 0 I I #
point $-1 -62.41523483993042 30.291970476773752 13.240106569759392 #
point $-1 -62.41523483993042 -30.291970476773752 13.240106569759392 #
straight-curve $-1 62.41523483993042 -30.291970476773752 0 0 0 -1 I I #
straight-curve $-1 62.41523483993042 30.291970476773752 0 0 0 -1 I I #
plane-surface $-1 62.41523483993042 0 0 -1 0 0 0 0 1 forward_v I I I I #
coedge $-1 $533 $524 $523 $593 forward $389 $-1 #
coedge $-1 $392 $391 $522 $593 reversed $159 $-1 #
coedge $-1 $522 $594 $393 $525 reversed $389 $-1 #
edge $-1 $526 -62.41523483993042 $529 62.41523483993042 $524 $595 forward 7 unknown #
vertex $-1 $394 $596 #
straight-curve $-1 -62.41523483993042 0 13.240106569759392 0 -1 0 I I #
coedge $-1 $401 $395 $594 $597 forward $402 $-1 #
vertex $-1 $396 $598 #
straight-curve $-1 62.41523483993042 0 13.240106569759392 0 1 0 I I #
point $-1 62.41523483993042 -30.291970476773752 13.240106569759392 #
point $-1 -62.41523483993042 -30.291970476773752 13.240106569759392 #
coedge $-1 $594 $522 $404 $534 reversed $389 $-1 #
edge $-1 $535 -62.41523483993042 $537 62.41523483993042 $533 $599 forward 7 unknown #
vertex $-1 $597 $600 #
straight-curve $-1 62.41523483993042 -36.05223507296266 8.0241502824460547 0 -1 0 I I #
vertex $-1 $406 $601 #
straight-curve $-1 -62.41523483993042 -36.05223507296266 8.0241502824460547 0 1 0 I I #
edge $-1 $540 77.208373079145602 $543 84.370418408167367 $410 $602 forward 7 unknown #
vertex $-1 $424 $603 #
straight-curve $-1 18.923021342964354 -7.2713469952726335 13.240106569759391 1 0 0 I I #
edge $-1 $543 -6.1192366739537736 $421 3.8150160313160537 $420 $604 forward 7 unknown #
vertex $-1 $542 $605 #
straight-curve $-1 -37.278810265606623 -7.2713469952726335 81.202914192272971 -0.79863550430605224 0 0.6018150307709319 I I #
point $-1 52.910879862490106 -7.2713469952726335 13.240106569759391 #
point $-1 62.41523483993042 2.6629057099971938 6.0780612407376253 #
straight-curve $-1 62.41523483993042 0 13.240106569759392 0 1 0 I I #
vertex $-1 $427 $606 #
point $-1 56.959552106541373 -2.3042206426377199 7.0638608117718436 #
edge $-1 $551 77.208373079145602 $554 84.370418408167367 $432 $607 forward 7 unknown #
vertex $-1 $446 $608 #
straight-curve $-1 18.923021342964354 8.8576234823806139 13.240106569759391 1 0 0 I I #
edge $-1 $554 1.9452485648728501 $443 11.879501270142677 $442 $609 forward 7 unknown #
vertex $-1 $553 $610 #
straight-curve $-1 -37.278810265606623 8.8576234823806139 81.202914192272971 -0.79863550430605224 0 0.6018150307709319 I I #
point $-1 52.910879862490106 8.8576234823806139 13.240106569759391 #
point $-1 62.41523483993042 18.791876187650441 6.0780612407376253 #
straight-curve $-1 62.41523483993042 0 13.240106569759392 0 1 0 I I #
vertex $-1 $449 $611 #
point $-1 56.959552106541373 13.824749835015528 7.0638608117718436 #
coedge $-1 $464 $463 $456 $562 forward $453 $-1 #
edge $-1 $563 33.992640369935771 $566 37.901427561465681 $561 $612 forward 7 unknown #
vertex $-1 $468 $613 #
straight-curve $-1 -76.855230973415487 -6.7237754898560622 13.240106569759391 -1 0 0 I I #
edge $-1 $566 0.34997129629306212 $465 12.397637090832937 $464 $614 forward 7 unknown #
vertex $-1 $565 $615 #
straight-curve $-1 -62.415234839930406 -6.7237754898560622 9.3313193782294945 0.68199835119979291 0 0.73135370988377701 I I #
point $-1 -58.770231903884735 -6.7237754898560622 13.240106569759392 #
point $-1 -62.41523483993042 -18.771441284395937 9.3313193782294785 #
straight-curve $-1 -62.41523483993042 0 13.240106569759392 0 -1 0 I I #
vertex $-1 $471 $616 #
point $-1 -58.802719989254562 -15.329251057384546 10.300162253660405 #
vertex $-1 $475 $617 #
point $-1 -58.802719989254562 -10.165965716867458 10.300162253660405 #
coedge $-1 $490 $489 $482 $576 forward $479 $-1 #
edge $-1 $577 33.992640369935771 $580 37.901427561465681 $575 $618 forward 7 unknown #
vertex $-1 $494 $619 #
straight-curve $-1 -76.855230973415487 17.807930390728785 13.240106569759391 -1 0 0 I I #
edge $-1 $580 -11.915881643999361 $491 0.13178415054051396 $490 $620 forward 7 unknown #
vertex $-1 $579 $621 #
straight-curve $-1 -62.415234839930406 17.807930390728785 9.3313193782294945 0.68199835119979291 0 0.73135370988377701 I I #
point $-1 -58.770231903884735 17.807930390728785 13.240106569759392 #
point $-1 -62.41523483993042 5.7602645961889101 9.3313193782294785 #
straight-curve $-1 -62.41523483993042 0 13.240106569759392 0 -1 0 I I #
vertex $-1 $497 $622 #
point $-1 -58.802719989254562 9.2024548232003021 10.300162253660405 #
vertex $-1 $501 $623 #
point $-1 -58.802719989254562 14.365740163717387 10.300162253660405 #
straight-curve $-1 -62.41523483993042 30.291970476773752 0 0 0 -1 I I #
point $-1 -62.41523483993042 -30.291970476773752 -13.240106569759392 #
straight-curve $-1 -62.41523483993042 0 -13.240106569759392 0 1 0 I I #
point $-1 -62.41523483993042 30.291970476773752 -13.240106569759392 #
edge $-1 $526 -2.607978143656668 $537 2.607978143656668 $523 $624 forward 7 unknown #
coedge $-1 $524 $533 $528 $597 reversed $389 $-1 #
straight-curve $-1 0 -41.812499669151563 13.240106569759391 1 0 0 I I #
point $-1 -62.41523483993042 -41.812499669151563 13.240106569759391 #
edge $-1 $529 -2.607978143656668 $535 2.607978143656668 $528 $625 forward 7 unknown #
point $-1 62.41523483993042 -41.812499669151563 13.240106569759391 #
straight-curve $-1 0 -41.812499669151563 8.0241502824460547 -1 0 0 I I #
point $-1 62.41523483993042 -41.812499669151563 8.0241502824460547 #
point $-1 -62.41523483993042 -41.812499669151563 8.0241502824460547 #
straight-curve $-1 62.41523483993042 -7.2713469952726335 90.448479648904993 0 0 -1 I I #
point $-1 62.41523483993042 -7.2713469952726335 13.240106569759392 #
straight-curve $-1 62.415234839930413 -1.1521103213188599 6.0780612407376324 0 1 0 I I #
point $-1 62.41523483993042 -7.2713469952726335 6.0780612407376253 #
point $-1 55.559101571464389 -2.3042206426377199 6.8670403382367233 #
straight-curve $-1 62.41523483993042 8.8576234823806139 90.448479648904993 0 0 -1 I I #
point $-1 62.41523483993042 8.8576234823806139 13.240106569759392 #
straight-curve $-1 62.415234839930413 6.9123749175077638 6.0780612407376324 0 1 0 I I #
point $-1 62.41523483993042 8.8576234823806139 6.0780612407376253 #
point $-1 55.559101571464389 13.824749835015528 6.8670403382367233 #
straight-curve $-1 -62.41523483993042 -6.7237754898560622 47.232746939695161 0 0 -1 I I #
point $-1 -62.41523483993042 -6.7237754898560622 13.240106569759392 #
straight-curve $-1 -62.41523483993042 -6.3738041935630001 9.3313193782294821 0 -1 0 I I #
point $-1 -62.41523483993042 -6.7237754898560622 9.3313193782294785 #
point $-1 -58.778042309912564 -15.329251057384546 9.5934862231186191 #
point $-1 -58.778042309912564 -10.165965716867458 9.5934862231186191 #
straight-curve $-1 -62.41523483993042 17.807930390728785 47.232746939695161 0 0 -1 I I #
point $-1 -62.41523483993042 17.807930390728785 13.240106569759392 #
straight-curve $-1 -62.41523483993042 5.892048746729424 9.3313193782294821 0 -1 0 I I #
point $-1 -62.41523483993042 17.807930390728785 9.3313193782294785 #
point $-1 -58.778042309912564 9.2024548232003021 9.5934862231186191 #
point $-1 -58.778042309912564 14.365740163717387 9.5934862231186191 #
straight-curve $-1 -62.41523483993042 -41.812499669151563 10.632128426102723 0 0 -1 I I #
straight-curve $-1 62.41523483993042 -41.812499669151563 10.632128426102723 0 0 -1 I I #
End-of-ACIS-data 