500 0 9 0           
7 Unknown 11 ACIS 5.0 NT 24 Thu Mar 25 22:58:02 1999 
-1 9.9999999999999995e-007 1e-010 
body $-1 $9 $-1 $10 #
body $-1 $11 $-1 $12 #
body $-1 $13 $-1 $14 #
body $-1 $15 $-1 $16 #
body $-1 $17 $-1 $18 #
body $-1 $19 $-1 $20 #
body $-1 $21 $-1 $22 #
body $-1 $23 $-1 $24 #
body $-1 $25 $-1 $26 #
lump $-1 $-1 $27 $0 #
transform $-1 1 0 0 0 1 0 0 0 1 41.060823389385661 27.709508261293077 11.863748965376956 1 rotate no_reflect no_shear #
lump $-1 $-1 $28 $1 #
transform $-1 1 0 0 0 1 0 0 0 1 41.060823389385661 27.709508261293077 11.863748965376956 1 rotate no_reflect no_shear #
lump $-1 $-1 $29 $2 #
transform $-1 1 0 0 0 1 0 0 0 1 41.060823389385661 27.709508261293077 11.863748965376956 1 rotate no_reflect no_shear #
lump $-1 $-1 $30 $3 #
transform $-1 1 0 0 0 1 0 0 0 1 41.060823389385661 27.709508261293077 11.863748965376956 1 rotate no_reflect no_shear #
lump $-1 $-1 $31 $4 #
transform $-1 1 0 0 0 1 0 0 0 1 41.060823389385661 27.709508261293077 11.863748965376956 1 rotate no_reflect no_shear #
lump $-1 $-1 $32 $5 #
transform $-1 1 0 0 0 1 0 0 0 1 41.060823389385661 27.709508261293077 11.863748965376956 1 rotate no_reflect no_shear #
lump $-1 $-1 $33 $6 #
transform $-1 1 0 0 0 1 0 0 0 1 41.060823389385661 27.709508261293077 11.863748965376956 1 rotate no_reflect no_shear #
lump $-1 $-1 $34 $7 #
transform $-1 1 0 0 0 1 0 0 0 1 41.060823389385661 27.709508261293077 11.863748965376956 1 rotate no_reflect no_shear #
lump $-1 $-1 $35 $8 #
transform $-1 1 0 0 0 1 0 0 0 1 41.060823389385661 27.709508261293077 11.863748965376956 1 rotate no_reflect no_shear #
shell $-1 $-1 $-1 $36 $-1 $9 #
shell $-1 $-1 $-1 $37 $-1 $11 #
shell $-1 $-1 $-1 $38 $-1 $13 #
shell $-1 $-1 $-1 $39 $-1 $15 #
shell $-1 $-1 $-1 $40 $-1 $17 #
shell $-1 $-1 $-1 $41 $-1 $19 #
shell $-1 $-1 $-1 $42 $-1 $21 #
shell $-1 $-1 $-1 $43 $-1 $23 #
shell $-1 $-1 $-1 $44 $-1 $25 #
face $-1 $45 $46 $27 $-1 $47 forward single #
face $-1 $48 $49 $28 $-1 $50 forward single #
face $-1 $51 $52 $29 $-1 $53 reversed single #
face $-1 $54 $55 $30 $-1 $56 forward single #
face $-1 $57 $58 $31 $-1 $59 forward single #
face $-1 $60 $61 $32 $-1 $62 forward single #
face $-1 $63 $64 $33 $-1 $65 reversed single #
face $-1 $66 $67 $34 $-1 $68 forward single #
face $-1 $69 $70 $35 $-1 $71 forward single #
face $-1 $72 $73 $27 $-1 $74 reversed single #
loop $-1 $-1 $75 $36 #
plane-surface $-1 0 0 11.863748965376956 0 0 1 1 0 0 forward_v I I I I #
face $-1 $76 $77 $28 $-1 $78 reversed single #
loop $-1 $-1 $79 $37 #
plane-surface $-1 0 -27.709508261293077 0 0 1 0 0 0 1 forward_v I I I I #
face $-1 $80 $81 $29 $-1 $82 reversed single #
loop $-1 $-1 $83 $38 #
plane-surface $-1 20.893751088950673 -8.1067618730065689 119.33130511595159 0 -1 0 -0.57357644374324357 0 -0.81915203911291934 forward_v I I I I #
face $-1 $84 $85 $30 $-1 $86 forward single #
loop $-1 $87 $88 $39 #
cone-surface $-1 35.842925555144291 -13.009469850762605 8.0013727571838746 -0.57357644374324357 0 -0.81915203911291934 0.40957601955645967 0 -0.28678822187162178 1 I I 0 1 0.5 forward I I I I #
face $-1 $89 $90 $31 $-1 $91 forward single #
loop $-1 $92 $93 $40 #
cone-surface $-1 35.842925555144291 -11.170954359104091 8.0013727571838746 -0.57357644374324357 0 -0.81915203911291934 0.40957601955645967 0 -0.28678822187162178 1 I I 0 1 0.5 forward I I I I #
face $-1 $94 $95 $32 $-1 $96 forward single #
loop $-1 $97 $98 $41 #
cone-surface $-1 35.842925555144291 -9.3324388674455783 8.0013727571838746 -0.57357644374324357 0 -0.81915203911291934 0.40957601955645967 0 -0.28678822187162178 1 I I 0 1 0.5 forward I I I I #
face $-1 $99 $100 $33 $-1 $101 reversed single #
loop $-1 $-1 $102 $42 #
plane-surface $-1 -96.010931354531039 3.7557225707201418 63.410914315299124 0 1 0 -0.66913061440640931 0 0.74314481823134659 forward_v I I I I #
face $-1 $103 $104 $34 $-1 $105 forward single #
loop $-1 $106 $107 $43 #
cone-surface $-1 -34.291906282254196 7.0188941869806847 5.4528356503504991 0.66913061440640931 0 -0.74314481823134659 1.1147172273470198 0 1.003695921609614 1 I I 0 1 1.5 forward I I I I #
face $-1 $108 $109 $35 $-1 $110 forward single #
loop $-1 $111 $112 $44 #
cone-surface $-1 -34.291906282254196 11.913651611371495 5.4528356503504991 0.66913061440640931 0 -0.74314481823134659 1.1147172273470198 0 1.003695921609614 1 I I 0 1 1.5 forward I I I I #
face $-1 $113 $114 $27 $-1 $115 reversed single #
loop $-1 $-1 $116 $45 #
plane-surface $-1 0 0 -11.863748965376956 0 0 1 1 0 0 forward_v I I I I #
coedge $-1 $117 $118 $119 $120 forward $46 $-1 #
face $-1 $121 $122 $28 $-1 $123 reversed single #
loop $-1 $-1 $124 $48 #
plane-surface $-1 0 0 -11.863748965376956 0 0 1 1 0 0 forward_v I I I I #
coedge $-1 $125 $126 $127 $128 forward $49 $-1 #
face $-1 $129 $130 $29 $-1 $131 reversed single #
loop $-1 $-1 $132 $51 #
plane-surface $-1 -26.209291024755778 -11.170954359104091 52.061190701810162 0.57357644374324357 0 0.81915203911291934 0.81915203911291934 0 -0.57357644374324357 forward_v I I I I #
coedge $-1 $133 $134 $135 $136 reversed $52 $-1 #
face $-1 $-1 $137 $30 $-1 $138 forward single #
loop $-1 $139 $140 $54 #
cone-surface $-1 35.412743222336857 -13.009469850762605 7.3870087278491852 -0.57357644374324357 0 -0.81915203911291934 0.20478800977822983 0 -0.14339411093581089 1 I I -0.70710678118654746 0.70710678118654746 0.25 forward I I I I #
loop $-1 $-1 $141 $39 #
coedge $-1 $88 $88 $142 $143 reversed $55 $-1 #
face $-1 $-1 $144 $31 $-1 $145 forward single #
loop $-1 $146 $147 $57 #
cone-surface $-1 35.412743222336857 -11.170954359104091 7.3870087278491852 -0.57357644374324357 0 -0.81915203911291934 0.20478800977822983 0 -0.14339411093581089 1 I I -0.70710678118654746 0.70710678118654746 0.25 forward I I I I #
loop $-1 $-1 $148 $40 #
coedge $-1 $93 $93 $149 $150 reversed $58 $-1 #
face $-1 $-1 $151 $32 $-1 $152 forward single #
loop $-1 $153 $154 $60 #
cone-surface $-1 35.412743222336857 -9.3324388674455783 7.3870087278491852 -0.57357644374324357 0 -0.81915203911291934 0.20478800977822983 0 -0.14339411093581089 1 I I -0.70710678118654746 0.70710678118654746 0.25 forward I I I I #
loop $-1 $-1 $155 $41 #
coedge $-1 $98 $98 $156 $157 reversed $61 $-1 #
face $-1 $158 $159 $33 $-1 $160 reversed single #
loop $-1 $-1 $161 $63 #
plane-surface $-1 -41.060823389385661 9.4662728991760865 2.3826380470302624 -0.66913061440640931 0 0.74314481823134659 0.74314481823134659 0 0.66913061440640931 forward_v I I I I #
coedge $-1 $162 $163 $164 $165 reversed $64 $-1 #
face $-1 $-1 $166 $34 $-1 $167 forward single #
loop $-1 $168 $169 $66 #
cone-surface $-1 -32.286061319861446 7.0188941869806847 3.225119180823885 0.66913061440640931 0 -0.74314481823134659 0.55735861367350992 0 0.50184796080480698 1 I I -0.70710678118654757 0.70710678118654757 0.75 forward I I I I #
loop $-1 $-1 $170 $43 #
coedge $-1 $107 $107 $171 $172 reversed $67 $-1 #
face $-1 $-1 $173 $35 $-1 $174 forward single #
loop $-1 $175 $176 $69 #
cone-surface $-1 -32.286061319861446 11.913651611371495 3.225119180823885 0.66913061440640931 0 -0.74314481823134659 0.55735861367350992 0 0.50184796080480698 1 I I -0.70710678118654757 0.70710678118654757 0.75 forward I I I I #
loop $-1 $-1 $177 $44 #
coedge $-1 $112 $112 $178 $179 reversed $70 $-1 #
face $-1 $180 $181 $27 $-1 $182 reversed single #
loop $-1 $-1 $183 $72 #
plane-surface $-1 0 -27.709508261293077 0 0 1 0 0 0 1 forward_v I I I I #
coedge $-1 $184 $185 $186 $187 forward $73 $-1 #
coedge $-1 $188 $75 $189 $190 forward $46 $-1 #
coedge $-1 $75 $188 $191 $192 forward $46 $-1 #
coedge $-1 $193 $194 $75 $120 reversed $195 $-1 #
edge $-1 $196 -27.709508261293077 $197 27.709508261293077 $119 $198 forward 7 unknown #
face $-1 $199 $200 $28 $-1 $201 forward single #
loop $-1 $-1 $202 $76 #
plane-surface $-1 41.060823389385661 0 0 -1 0 0 0 0 1 forward_v I I I I #
coedge $-1 $203 $204 $205 $206 forward $77 $-1 #
coedge $-1 $205 $79 $202 $207 reversed $49 $-1 #
coedge $-1 $79 $205 $208 $209 reversed $49 $-1 #
coedge $-1 $210 $211 $79 $128 reversed $200 $-1 #
edge $-1 $212 -41.060823389385661 $213 41.060823389385661 $127 $214 forward 7 unknown #
face $-1 $215 $216 $29 $-1 $217 reversed single #
loop $-1 $-1 $218 $80 #
plane-surface $-1 20.893751088950673 -14.235146845201612 119.33130511595159 0 1 0 0.57357644374324357 0 0.81915203911291934 forward_v I I I I #
coedge $-1 $219 $220 $221 $222 reversed $81 $-1 #
coedge $-1 $134 $83 $223 $224 reversed $52 $-1 #
coedge $-1 $83 $133 $219 $225 reversed $52 $-1 #
coedge $-1 $221 $226 $83 $136 forward $227 $-1 #
edge $-1 $228 -30.613947844910324 $229 -20.751728620170834 $135 $230 forward 7 unknown #
loop $-1 $-1 $142 $84 #
plane-surface $-1 -26.209291024755778 -11.170954359104091 52.061190701810162 0.57357644374324357 0 0.81915203911291934 0.81915203911291934 0 -0.57357644374324357 forward_v I I I I #
loop $-1 $-1 $231 $54 #
coedge $-1 $140 $140 $141 $232 reversed $85 $-1 #
coedge $-1 $141 $141 $140 $232 forward $87 $-1 #
coedge $-1 $142 $142 $88 $143 forward $137 $-1 #
edge $-1 $233 0 $233 6.2831853071796004 $142 $234 forward 7 unknown #
loop $-1 $-1 $149 $89 #
plane-surface $-1 -26.209291024755778 -11.170954359104091 52.061190701810162 0.57357644374324357 0 0.81915203911291934 0.81915203911291934 0 -0.57357644374324357 forward_v I I I I #
loop $-1 $-1 $235 $57 #
coedge $-1 $147 $147 $148 $236 reversed $90 $-1 #
coedge $-1 $148 $148 $147 $236 forward $92 $-1 #
coedge $-1 $149 $149 $93 $150 forward $144 $-1 #
edge $-1 $237 0 $237 6.2831853071796004 $149 $238 forward 7 unknown #
loop $-1 $-1 $156 $94 #
plane-surface $-1 -26.209291024755778 -11.170954359104091 52.061190701810162 0.57357644374324357 0 0.81915203911291934 0.81915203911291934 0 -0.57357644374324357 forward_v I I I I #
loop $-1 $-1 $239 $60 #
coedge $-1 $154 $154 $155 $240 reversed $95 $-1 #
coedge $-1 $155 $155 $154 $240 forward $97 $-1 #
coedge $-1 $156 $156 $98 $157 forward $151 $-1 #
edge $-1 $241 0 $241 6.2831853071796004 $156 $242 forward 7 unknown #
face $-1 $243 $244 $33 $-1 $245 forward single #
loop $-1 $-1 $246 $99 #
plane-surface $-1 -96.010931354531039 15.176823227632031 63.410914315299124 0 -1 0 0.66913061440640931 0 -0.74314481823134659 forward_v I I I I #
coedge $-1 $247 $248 $249 $250 reversed $100 $-1 #
coedge $-1 $163 $102 $251 $252 reversed $64 $-1 #
coedge $-1 $102 $162 $247 $253 reversed $64 $-1 #
coedge $-1 $249 $254 $102 $165 forward $244 $-1 #
edge $-1 $255 6.9446422878798586 $256 17.474482498966903 $164 $257 forward 7 unknown #
loop $-1 $-1 $171 $103 #
plane-surface $-1 -41.060823389385661 9.4662728991760865 2.3826380470302624 -0.66913061440640931 0 0.74314481823134659 0.74314481823134659 0 0.66913061440640931 forward_v I I I I #
loop $-1 $-1 $258 $66 #
coedge $-1 $169 $169 $170 $259 reversed $104 $-1 #
coedge $-1 $170 $170 $169 $259 forward $106 $-1 #
coedge $-1 $171 $171 $107 $172 forward $166 $-1 #
edge $-1 $260 0 $260 6.2831853071796004 $171 $261 forward 7 unknown #
loop $-1 $-1 $178 $108 #
plane-surface $-1 -41.060823389385661 9.4662728991760865 2.3826380470302624 -0.66913061440640931 0 0.74314481823134659 0.74314481823134659 0 0.66913061440640931 forward_v I I I I #
loop $-1 $-1 $262 $69 #
coedge $-1 $176 $176 $177 $263 reversed $109 $-1 #
coedge $-1 $177 $177 $176 $263 forward $111 $-1 #
coedge $-1 $178 $178 $112 $179 forward $173 $-1 #
edge $-1 $264 0 $264 6.2831853071796004 $178 $265 forward 7 unknown #
face $-1 $266 $267 $27 $-1 $268 reversed single #
loop $-1 $-1 $269 $113 #
plane-surface $-1 -41.060823389385661 0 0 1 0 0 0 0 -1 forward_v I I I I #
coedge $-1 $191 $270 $193 $271 reversed $114 $-1 #
coedge $-1 $272 $116 $270 $273 forward $73 $-1 #
coedge $-1 $116 $272 $274 $275 forward $73 $-1 #
coedge $-1 $194 $193 $116 $187 reversed $195 $-1 #
edge $-1 $276 -27.709508261293077 $277 27.709508261293077 $186 $278 forward 7 unknown #
coedge $-1 $118 $117 $279 $280 forward $46 $-1 #
coedge $-1 $281 $282 $117 $190 reversed $267 $-1 #
edge $-1 $197 -41.060823389385661 $283 41.060823389385661 $189 $284 forward 7 unknown #
coedge $-1 $285 $183 $118 $192 reversed $114 $-1 #
edge $-1 $286 -41.060823389385661 $196 41.060823389385661 $191 $287 forward 7 unknown #
coedge $-1 $186 $119 $183 $271 forward $195 $-1 #
coedge $-1 $119 $186 $281 $288 reversed $195 $-1 #
loop $-1 $-1 $193 $266 #
vertex $-1 $120 $289 #
vertex $-1 $120 $290 #
straight-curve $-1 41.060823389385661 0 11.863748965376956 0 1 0 I I #
face $-1 $291 $292 $28 $-1 $293 reversed single #
loop $-1 $-1 $211 $121 #
plane-surface $-1 0 -34.446688969338808 -8.5258815465772457 0 0 1 1 0 0 forward_v I I I I #
coedge $-1 $294 $295 $125 $207 forward $122 $-1 #
coedge $-1 $296 $124 $295 $297 forward $77 $-1 #
coedge $-1 $124 $296 $298 $299 forward $77 $-1 #
coedge $-1 $126 $125 $124 $206 reversed $49 $-1 #
edge $-1 $300 -41.060823389385661 $301 41.060823389385661 $124 $302 forward 7 unknown #
edge $-1 $301 -11.863748965376956 $213 -8.5258815465772457 $202 $303 forward 7 unknown #
coedge $-1 $298 $304 $126 $209 forward $305 $-1 #
edge $-1 $212 8.5258815465772457 $300 11.863748965376956 $208 $306 forward 7 unknown #
coedge $-1 $307 $127 $304 $308 forward $200 $-1 #
coedge $-1 $127 $307 $294 $309 forward $200 $-1 #
vertex $-1 $209 $310 #
vertex $-1 $309 $311 #
straight-curve $-1 0 -27.709508261293077 -8.5258815465772457 1 0 0 I I #
face $-1 $-1 $227 $29 $-1 $312 forward single #
loop $-1 $-1 $313 $129 #
plane-surface $-1 41.060823389385661 0 0 -1 0 0 0 0 1 forward_v I I I I #
coedge $-1 $314 $315 $316 $317 reversed $130 $-1 #
coedge $-1 $318 $132 $134 $225 forward $81 $-1 #
coedge $-1 $132 $318 $314 $319 forward $81 $-1 #
coedge $-1 $316 $135 $132 $222 forward $227 $-1 #
edge $-1 $229 2.5212846934545237 $320 8.6496696656495669 $221 $321 forward 7 unknown #
coedge $-1 $322 $323 $133 $224 forward $216 $-1 #
edge $-1 $324 -54.707503969872086 $228 -47.80190359259884 $223 $325 forward 7 unknown #
edge $-1 $229 70.082100084338947 $324 82.121646778771321 $134 $326 forward 7 unknown #
coedge $-1 $135 $316 $322 $327 forward $227 $-1 #
loop $-1 $-1 $316 $215 #
vertex $-1 $224 $328 #
vertex $-1 $136 $329 #
straight-curve $-1 10.446875544475336 -8.1067618730065689 11.863748965376956 -1 0 0 I I #
coedge $-1 $231 $231 $-1 $330 reversed $139 $-1 #
edge $-1 $331 0 $331 6.2831853071796004 $140 $332 forward 7 unknown #
vertex $-1 $143 $333 #
ellipse-curve $-1 36.129713777015915 -13.009469850762605 8.4109487767403337 0.57357644374324357 0 0.81915203911291934 0.40957601955645967 0 -0.28678822187162178 1 I I #
coedge $-1 $235 $235 $-1 $334 reversed $146 $-1 #
edge $-1 $335 0 $335 6.2831853071796004 $147 $336 forward 7 unknown #
vertex $-1 $150 $337 #
ellipse-curve $-1 36.129713777015915 -11.170954359104091 8.4109487767403337 0.57357644374324357 0 0.81915203911291934 0.40957601955645967 0 -0.28678822187162178 1 I I #
coedge $-1 $239 $239 $-1 $338 reversed $153 $-1 #
edge $-1 $339 0 $339 6.2831853071796004 $154 $340 forward 7 unknown #
vertex $-1 $157 $341 #
ellipse-curve $-1 36.129713777015915 -9.3324388674455783 8.4109487767403337 0.57357644374324357 0 0.81915203911291934 0.40957601955645967 0 -0.28678822187162178 1 I I #
face $-1 $-1 $342 $33 $-1 $343 reversed single #
loop $-1 $-1 $164 $158 #
plane-surface $-1 0 0 11.863748965376956 0 0 1 1 0 0 forward_v I I I I #
coedge $-1 $344 $345 $346 $347 reversed $159 $-1 #
coedge $-1 $348 $161 $163 $253 forward $100 $-1 #
coedge $-1 $161 $348 $344 $349 forward $100 $-1 #
coedge $-1 $346 $164 $161 $250 forward $244 $-1 #
edge $-1 $256 -0.97741387886790143 $350 10.443686778043988 $249 $351 forward 7 unknown #
coedge $-1 $352 $353 $162 $252 forward $342 $-1 #
edge $-1 $354 -29.322819110619299 $255 -19.841708192272606 $251 $355 forward 7 unknown #
edge $-1 $256 -14.169297763722046 $354 0 $163 $356 forward 7 unknown #
coedge $-1 $164 $346 $352 $357 forward $244 $-1 #
vertex $-1 $252 $358 #
vertex $-1 $165 $359 #
straight-curve $-1 -48.005465677265519 3.7557225707201418 11.863748965376956 1 0 0 I I #
coedge $-1 $258 $258 $-1 $360 reversed $168 $-1 #
edge $-1 $361 0 $361 6.2831853071796004 $169 $362 forward 7 unknown #
vertex $-1 $172 $363 #
ellipse-curve $-1 -35.795903283842136 7.0188941869806847 7.1231935062036076 -0.66913061440640931 0 0.74314481823134659 1.1147172273470198 0 1.003695921609614 1 I I #
coedge $-1 $262 $262 $-1 $364 reversed $175 $-1 #
edge $-1 $365 0 $365 6.2831853071796004 $176 $366 forward 7 unknown #
vertex $-1 $179 $367 #
ellipse-curve $-1 -35.795903283842136 11.913651611371495 7.1231935062036076 -0.66913061440640931 0 0.74314481823134659 1.1147172273470198 0 1.003695921609614 1 I I #
face $-1 $-1 $195 $27 $-1 $368 reversed single #
loop $-1 $-1 $281 $180 #
plane-surface $-1 0 27.709508261293077 0 0 -1 0 0 0 -1 forward_v I I I I #
coedge $-1 $369 $279 $282 $370 forward $181 $-1 #
coedge $-1 $183 $285 $184 $273 reversed $114 $-1 #
edge $-1 $196 -11.863748965376956 $277 11.863748965376956 $193 $371 forward 7 unknown #
coedge $-1 $185 $184 $369 $372 forward $73 $-1 #
edge $-1 $277 -41.060823389385661 $373 41.060823389385661 $270 $374 forward 7 unknown #
coedge $-1 $282 $281 $185 $275 reversed $267 $-1 #
edge $-1 $375 -41.060823389385661 $276 41.060823389385661 $274 $376 forward 7 unknown #
vertex $-1 $187 $377 #
vertex $-1 $271 $378 #
straight-curve $-1 41.060823389385661 0 -11.863748965376956 0 -1 0 I I #
coedge $-1 $269 $379 $188 $280 reversed $181 $-1 #
edge $-1 $283 -27.709508261293077 $286 27.709508261293077 $279 $380 forward 7 unknown #
coedge $-1 $274 $189 $194 $288 forward $267 $-1 #
coedge $-1 $189 $274 $269 $370 reversed $267 $-1 #
vertex $-1 $190 $381 #
straight-curve $-1 0 27.709508261293077 11.863748965376956 -1 0 0 I I #
coedge $-1 $270 $191 $379 $382 forward $114 $-1 #
vertex $-1 $280 $383 #
straight-curve $-1 0 -27.709508261293077 11.863748965376956 1 0 0 I I #
edge $-1 $197 -11.863748965376956 $276 11.863748965376956 $194 $384 forward 7 unknown #
point $-1 41.060823389385661 -27.709508261293077 11.863748965376956 #
point $-1 41.060823389385661 27.709508261293077 11.863748965376956 #
face $-1 $-1 $305 $28 $-1 $385 reversed single #
loop $-1 $-1 $386 $199 #
plane-surface $-1 0 -41.183869677384543 -10.194815255977101 0 1 0 0 0 1 forward_v I I I I #
coedge $-1 $387 $202 $211 $309 reversed $122 $-1 #
coedge $-1 $202 $387 $203 $297 reversed $122 $-1 #
coedge $-1 $204 $203 $388 $389 forward $77 $-1 #
edge $-1 $301 27.709508261293077 $390 41.183869677384543 $295 $391 forward 7 unknown #
coedge $-1 $392 $208 $204 $299 reversed $305 $-1 #
edge $-1 $393 -41.183869677384543 $300 -27.709508261293077 $298 $394 forward 7 unknown #
vertex $-1 $209 $395 #
vertex $-1 $297 $396 #
straight-curve $-1 0 -27.709508261293077 -11.863748965376956 1 0 0 I I #
straight-curve $-1 41.060823389385661 -27.709508261293077 0 0 0 1 I I #
coedge $-1 $208 $392 $210 $308 reversed $305 $-1 #
loop $-1 $-1 $208 $291 #
straight-curve $-1 -41.060823389385661 -27.709508261293077 0 0 0 -1 I I #
coedge $-1 $211 $210 $397 $398 forward $200 $-1 #
edge $-1 $212 -6.7371807080457309 $399 6.7371807080457344 $304 $400 forward 7 unknown #
edge $-1 $401 -6.7371807080457344 $213 6.7371807080457309 $294 $402 forward 7 unknown #
point $-1 -41.060823389385661 -27.709508261293077 -8.5258815465772457 #
point $-1 41.060823389385661 -27.709508261293077 -8.5258815465772457 #
plane-surface $-1 0 0 11.863748965376956 0 0 1 1 0 0 forward_v I I I I #
coedge $-1 $323 $322 $315 $403 forward $216 $-1 #
coedge $-1 $315 $218 $220 $319 reversed $130 $-1 #
coedge $-1 $218 $314 $313 $403 reversed $130 $-1 #
coedge $-1 $226 $221 $218 $317 forward $227 $-1 #
edge $-1 $320 20.751728620170834 $404 30.613947844910324 $316 $405 forward 7 unknown #
coedge $-1 $220 $219 $323 $406 reversed $81 $-1 #
edge $-1 $407 -82.121646778771321 $320 -70.082100084338947 $314 $408 forward 7 unknown #
vertex $-1 $222 $409 #
straight-curve $-1 31.198604164646163 -5.5854771795520453 11.863748965376963 0 -1 0 I I #
coedge $-1 $313 $223 $226 $327 reversed $216 $-1 #
coedge $-1 $223 $313 $318 $406 forward $216 $-1 #
vertex $-1 $224 $410 #
straight-curve $-1 41.060823389385661 -8.1067618730065689 59.665652557975797 0 0 1 I I #
straight-curve $-1 -26.209291024755778 -8.1067618730065689 52.061190701810162 0.81915203911291934 0 -0.57357644374324357 I I #
edge $-1 $404 -14.235146845201612 $228 -8.1067618730065689 $322 $411 forward 7 unknown #
point $-1 41.060823389385661 -8.1067618730065689 11.863748965376956 #
point $-1 31.19860416464617 -8.1067618730065689 11.863748965376956 #
edge $-1 $412 1 $412 0 $231 $-1 forward 7 unknown #
vertex $-1 $232 $413 #
ellipse-curve $-1 35.556137333272666 -13.009469850762605 7.5917967376274147 0.57357644374324357 0 0.81915203911291934 0.40957601955645967 0 -0.28678822187162178 1 I I #
point $-1 36.539289796572369 -13.009469850762605 8.1241605548687126 #
edge $-1 $414 1 $414 0 $235 $-1 forward 7 unknown #
vertex $-1 $236 $415 #
ellipse-curve $-1 35.556137333272666 -11.170954359104091 7.5917967376274147 0.57357644374324357 0 0.81915203911291934 0.40957601955645967 0 -0.28678822187162178 1 I I #
point $-1 36.539289796572369 -11.170954359104091 8.1241605548687126 #
edge $-1 $416 1 $416 0 $239 $-1 forward 7 unknown #
vertex $-1 $240 $417 #
ellipse-curve $-1 35.556137333272666 -9.3324388674455783 7.5917967376274147 0.57357644374324357 0 0.81915203911291934 0.40957601955645967 0 -0.28678822187162178 1 I I #
point $-1 36.539289796572369 -9.3324388674455783 8.1241605548687126 #
loop $-1 $-1 $251 $243 #
plane-surface $-1 -41.060823389385661 0 0 1 0 0 0 0 -1 forward_v I I I I #
coedge $-1 $345 $246 $248 $349 reversed $159 $-1 #
coedge $-1 $246 $344 $418 $419 reversed $159 $-1 #
coedge $-1 $254 $249 $246 $347 forward $244 $-1 #
edge $-1 $350 -17.474482498966903 $420 -6.9446422878798586 $346 $421 forward 7 unknown #
coedge $-1 $248 $247 $353 $422 reversed $100 $-1 #
edge $-1 $423 0 $350 14.169297763722046 $344 $424 forward 7 unknown #
vertex $-1 $250 $425 #
straight-curve $-1 -30.530983178298612 4.7331364495880432 11.863748965376956 0 1 0 I I #
coedge $-1 $418 $251 $254 $357 reversed $342 $-1 #
coedge $-1 $251 $418 $348 $422 forward $342 $-1 #
vertex $-1 $252 $426 #
straight-curve $-1 -41.060823389385661 3.7557225707201418 31.705457157649562 0 0 1 I I #
straight-curve $-1 -41.060823389385661 3.7557225707201418 2.3826380470302624 -0.74314481823134659 0 -0.66913061440640931 I I #
edge $-1 $420 -15.176823227632031 $255 -3.7557225707201418 $352 $427 forward 7 unknown #
point $-1 -41.060823389385661 3.7557225707201418 11.863748965376956 #
point $-1 -30.530983178298616 3.7557225707201418 11.863748965376956 #
edge $-1 $428 1 $428 0 $258 $-1 forward 7 unknown #
vertex $-1 $259 $429 #
ellipse-curve $-1 -32.787909280666256 7.0188941869806847 3.7824777944973951 -0.66913061440640931 0 0.74314481823134659 1.1147172273470198 0 1.003695921609614 1 I I #
point $-1 -34.681186056495115 7.0188941869806847 8.126889427813218 #
edge $-1 $430 1 $430 0 $262 $-1 forward 7 unknown #
vertex $-1 $263 $431 #
ellipse-curve $-1 -32.787909280666256 11.913651611371495 3.7824777944973951 -0.66913061440640931 0 0.74314481823134659 1.1147172273470198 0 1.003695921609614 1 I I #
point $-1 -34.681186056495115 11.913651611371495 8.126889427813218 #
plane-surface $-1 41.060823389385661 0 0 -1 0 0 0 0 1 forward_v I I I I #
coedge $-1 $379 $269 $272 $372 reversed $181 $-1 #
edge $-1 $283 -11.863748965376956 $375 11.863748965376956 $282 $432 forward 7 unknown #
straight-curve $-1 41.060823389385661 -27.709508261293077 0 0 0 -1 I I #
edge $-1 $373 -27.709508261293077 $375 27.709508261293077 $369 $433 forward 7 unknown #
vertex $-1 $372 $434 #
straight-curve $-1 0 -27.709508261293077 -11.863748965376956 -1 0 0 I I #
vertex $-1 $275 $435 #
straight-curve $-1 0 27.709508261293077 -11.863748965376956 1 0 0 I I #
point $-1 41.060823389385661 27.709508261293077 -11.863748965376956 #
point $-1 41.060823389385661 -27.709508261293077 -11.863748965376956 #
coedge $-1 $279 $369 $285 $382 reversed $181 $-1 #
straight-curve $-1 -41.060823389385661 0 11.863748965376956 0 -1 0 I I #
point $-1 -41.060823389385661 27.709508261293077 11.863748965376956 #
edge $-1 $286 -11.863748965376956 $373 11.863748965376956 $379 $436 forward 7 unknown #
point $-1 -41.060823389385661 -27.709508261293077 11.863748965376956 #
straight-curve $-1 41.060823389385661 27.709508261293077 0 0 0 -1 I I #
plane-surface $-1 -41.060823389385661 0 0 1 0 0 0 0 -1 forward_v I I I I #
coedge $-1 $388 $397 $392 $437 forward $292 $-1 #
coedge $-1 $295 $294 $438 $439 forward $122 $-1 #
coedge $-1 $438 $386 $296 $389 reversed $292 $-1 #
edge $-1 $390 -41.060823389385661 $393 41.060823389385661 $388 $440 forward 7 unknown #
vertex $-1 $439 $441 #
straight-curve $-1 41.060823389385661 0 -11.863748965376956 0 -1 0 I I #
coedge $-1 $304 $298 $386 $437 reversed $305 $-1 #
vertex $-1 $299 $442 #
straight-curve $-1 -41.060823389385661 0 -11.863748965376956 0 1 0 I I #
point $-1 -41.060823389385661 -27.709508261293077 -11.863748965376956 #
point $-1 41.060823389385661 -27.709508261293077 -11.863748965376956 #
coedge $-1 $386 $438 $307 $398 reversed $292 $-1 #
edge $-1 $399 -41.060823389385661 $401 41.060823389385661 $397 $443 forward 7 unknown #
vertex $-1 $308 $444 #
straight-curve $-1 -41.060823389385661 -34.446688969338808 -8.5258815465772457 0 -1 0 I I #
vertex $-1 $309 $445 #
straight-curve $-1 41.060823389385661 -34.446688969338808 -8.5258815465772457 0 1 0 I I #
edge $-1 $404 47.80190359259884 $407 54.707503969872086 $313 $446 forward 7 unknown #
vertex $-1 $327 $447 #
straight-curve $-1 10.446875544475336 -14.235146845201612 11.863748965376956 1 0 0 I I #
edge $-1 $407 -8.6496696656495669 $324 -2.5212846934545237 $323 $448 forward 7 unknown #
vertex $-1 $406 $449 #
straight-curve $-1 -26.209291024755778 -14.235146845201612 52.061190701810162 -0.81915203911291934 0 0.57357644374324357 I I #
point $-1 31.19860416464617 -14.235146845201612 11.863748965376956 #
point $-1 41.060823389385654 -8.1067618730065689 4.9581485881037111 #
straight-curve $-1 41.060823389385661 0 11.863748965376956 0 1 0 I I #
vertex $-1 $330 $450 #
point $-1 35.965713352829127 -13.009469850762605 7.3050085157557936 #
vertex $-1 $334 $451 #
point $-1 35.965713352829127 -11.170954359104091 7.3050085157557936 #
vertex $-1 $338 $452 #
point $-1 35.965713352829127 -9.3324388674455783 7.3050085157557936 #
coedge $-1 $353 $352 $345 $419 forward $342 $-1 #
edge $-1 $420 19.841708192272606 $423 29.322819110619299 $418 $453 forward 7 unknown #
vertex $-1 $357 $454 #
straight-curve $-1 -48.005465677265519 15.176823227632031 11.863748965376956 -1 0 0 I I #
edge $-1 $423 -10.443686778043988 $354 0.97741387886790143 $353 $455 forward 7 unknown #
vertex $-1 $422 $456 #
straight-curve $-1 -41.060823389385661 15.176823227632031 2.3826380470302624 0.74314481823134659 0 0.66913061440640931 I I #
point $-1 -30.530983178298616 15.176823227632031 11.863748965376956 #
point $-1 -41.060823389385661 3.7557225707201418 2.3826380470302624 #
straight-curve $-1 -41.060823389385661 0 11.863748965376956 0 -1 0 I I #
vertex $-1 $360 $457 #
point $-1 -31.673192053319234 7.0188941869806847 4.786173716107009 #
vertex $-1 $364 $458 #
point $-1 -31.673192053319234 11.913651611371495 4.786173716107009 #
straight-curve $-1 -41.060823389385661 27.709508261293077 0 0 0 -1 I I #
straight-curve $-1 -41.060823389385661 0 -11.863748965376956 0 1 0 I I #
point $-1 -41.060823389385661 -27.709508261293077 -11.863748965376956 #
point $-1 -41.060823389385661 27.709508261293077 -11.863748965376956 #
straight-curve $-1 -41.060823389385661 -27.709508261293077 0 0 0 -1 I I #
edge $-1 $399 -1.6689337093998553 $393 1.6689337093998553 $392 $459 forward 7 unknown #
coedge $-1 $397 $388 $387 $439 reversed $292 $-1 #
edge $-1 $401 -1.6689337093998553 $390 1.6689337093998553 $387 $460 forward 7 unknown #
straight-curve $-1 0 -41.183869677384543 -11.863748965376956 -1 0 0 I I #
point $-1 41.060823389385661 -41.183869677384543 -11.863748965376956 #
point $-1 -41.060823389385661 -41.183869677384543 -11.863748965376956 #
straight-curve $-1 0 -41.183869677384543 -8.5258815465772457 1 0 0 I I #
point $-1 -41.060823389385661 -41.183869677384543 -8.5258815465772457 #
point $-1 41.060823389385661 -41.183869677384543 -8.5258815465772457 #
straight-curve $-1 41.060823389385661 -14.235146845201612 59.665652557975797 0 0 -1 I I #
point $-1 41.060823389385661 -14.235146845201612 11.863748965376956 #
straight-curve $-1 41.060823389385661 -5.5854771795520453 4.9581485881037111 0 1 0 I I #
point $-1 41.060823389385654 -14.235146845201612 4.9581485881037111 #
point $-1 35.269349111401048 -13.009469850762605 7.1822207180709556 #
point $-1 35.269349111401048 -11.170954359104091 7.1822207180709556 #
point $-1 35.269349111401048 -9.3324388674455783 7.1822207180709556 #
straight-curve $-1 -41.060823389385661 15.176823227632031 31.705457157649562 0 0 -1 I I #
point $-1 -41.060823389385661 15.176823227632031 11.863748965376956 #
straight-curve $-1 -41.060823389385661 4.7331364495880432 2.3826380470302606 0 -1 0 I I #
point $-1 -41.060823389385661 15.176823227632031 2.3826380470302624 #
point $-1 -31.78421335905664 7.0188941869806847 2.667760567150375 #
point $-1 -31.78421335905664 11.913651611371495 2.667760567150375 #
straight-curve $-1 -41.060823389385661 -41.183869677384543 -10.194815255977101 0 0 -1 I I #
straight-curve $-1 41.060823389385661 -41.183869677384543 -10.194815255977101 0 0 -1 I I #
End-of-ACIS-data 