500 0 13 0           
7 Unknown 11 ACIS 5.0 NT 24 Fri Mar 26 20:34:48 1999 
-1 9.9999999999999995e-007 1e-010 
body $-1 $13 $-1 $14 #
body $-1 $15 $-1 $16 #
body $-1 $17 $-1 $18 #
body $-1 $19 $-1 $20 #
body $-1 $21 $-1 $22 #
body $-1 $23 $-1 $24 #
body $-1 $25 $-1 $26 #
body $-1 $27 $-1 $28 #
body $-1 $29 $-1 $30 #
body $-1 $31 $-1 $32 #
body $-1 $33 $-1 $34 #
body $-1 $35 $-1 $36 #
body $-1 $37 $-1 $38 #
lump $-1 $-1 $39 $0 #
transform $-1 1 0 0 0 1 0 0 0 1 63.491927854243599 32.356720348510926 7.1897349524055674 1 rotate no_reflect no_shear #
lump $-1 $-1 $40 $1 #
transform $-1 1 0 0 0 1 0 0 0 1 63.491927854243599 32.356720348510926 7.1897349524055674 1 rotate no_reflect no_shear #
lump $-1 $-1 $41 $2 #
transform $-1 1 0 0 0 1 0 0 0 1 63.491927854243599 32.356720348510926 7.1897349524055674 1 rotate no_reflect no_shear #
lump $-1 $-1 $42 $3 #
transform $-1 1 0 0 0 1 0 0 0 1 63.491927854243599 32.356720348510926 7.1897349524055674 1 rotate no_reflect no_shear #
lump $-1 $-1 $43 $4 #
transform $-1 1 0 0 0 1 0 0 0 1 63.491927854243599 32.356720348510926 7.1897349524055674 1 rotate no_reflect no_shear #
lump $-1 $-1 $44 $5 #
transform $-1 1 0 0 0 1 0 0 0 1 63.491927854243599 32.356720348510926 7.1897349524055674 1 rotate no_reflect no_shear #
lump $-1 $-1 $45 $6 #
transform $-1 1 0 0 0 1 0 0 0 1 63.491927854243599 32.356720348510926 7.1897349524055674 1 rotate no_reflect no_shear #
lump $-1 $-1 $46 $7 #
transform $-1 1 0 0 0 1 0 0 0 1 63.491927854243599 32.356720348510926 7.1897349524055674 1 rotate no_reflect no_shear #
lump $-1 $-1 $47 $8 #
transform $-1 1 0 0 0 1 0 0 0 1 63.491927854243599 32.356720348510926 7.1897349524055674 1 rotate no_reflect no_shear #
lump $-1 $-1 $48 $9 #
transform $-1 1 0 0 0 1 0 0 0 1 63.491927854243599 32.356720348510926 7.1897349524055674 1 rotate no_reflect no_shear #
lump $-1 $-1 $49 $10 #
transform $-1 1 0 0 0 1 0 0 0 1 63.491927854243599 32.356720348510926 7.1897349524055674 1 rotate no_reflect no_shear #
lump $-1 $-1 $50 $11 #
transform $-1 1 0 0 0 1 0 0 0 1 63.491927854243599 32.356720348510926 7.1897349524055674 1 rotate no_reflect no_shear #
lump $-1 $-1 $51 $12 #
transform $-1 1 0 0 0 1 0 0 0 1 63.491927854243599 32.356720348510926 7.1897349524055674 1 rotate no_reflect no_shear #
shell $-1 $-1 $-1 $52 $-1 $13 #
shell $-1 $-1 $-1 $53 $-1 $15 #
shell $-1 $-1 $-1 $54 $-1 $17 #
shell $-1 $-1 $-1 $55 $-1 $19 #
shell $-1 $-1 $-1 $56 $-1 $21 #
shell $-1 $-1 $-1 $57 $-1 $23 #
shell $-1 $-1 $-1 $58 $-1 $25 #
shell $-1 $-1 $-1 $59 $-1 $27 #
shell $-1 $-1 $-1 $60 $-1 $29 #
shell $-1 $-1 $-1 $61 $-1 $31 #
shell $-1 $-1 $-1 $62 $-1 $33 #
shell $-1 $-1 $-1 $63 $-1 $35 #
shell $-1 $-1 $-1 $64 $-1 $37 #
face $-1 $65 $66 $39 $-1 $67 forward single #
face $-1 $68 $69 $40 $-1 $70 forward single #
face $-1 $71 $72 $41 $-1 $73 forward single #
face $-1 $74 $75 $42 $-1 $76 reversed single #
face $-1 $77 $78 $43 $-1 $79 forward single #
face $-1 $80 $81 $44 $-1 $82 forward single #
face $-1 $83 $84 $45 $-1 $85 reversed single #
face $-1 $86 $87 $46 $-1 $88 forward single #
face $-1 $89 $90 $47 $-1 $91 forward single #
face $-1 $92 $93 $48 $-1 $94 reversed single #
face $-1 $95 $96 $49 $-1 $97 forward single #
face $-1 $98 $99 $50 $-1 $100 forward single #
face $-1 $101 $102 $51 $-1 $103 forward single #
face $-1 $104 $105 $39 $-1 $106 reversed single #
loop $-1 $-1 $107 $52 #
plane-surface $-1 0 0 7.1897349524055674 0 0 1 1 0 0 forward_v I I I I #
face $-1 $108 $109 $40 $-1 $110 reversed single #
loop $-1 $-1 $111 $53 #
plane-surface $-1 -63.491927854243599 0 0 1 0 0 0 0 -1 forward_v I I I I #
face $-1 $112 $113 $41 $-1 $114 reversed single #
loop $-1 $-1 $115 $54 #
plane-surface $-1 63.491927854243599 0 0 -1 0 0 0 0 1 forward_v I I I I #
face $-1 $116 $117 $42 $-1 $118 reversed single #
loop $-1 $-1 $119 $55 #
plane-surface $-1 0 -131.04171203342412 80.859469752152648 -1 0 0 0 -0.77714596973225614 0.62932038083071107 forward_v I I I I #
face $-1 $120 $121 $43 $-1 $122 forward single #
loop $-1 $123 $124 $56 #
cone-surface $-1 -14.639030263415215 -28.872541228735674 3.2935898821758585 0 0.77714596973225614 -0.62932038083071107 1 0 0 1 I I 0 1 1 forward I I I I #
face $-1 $125 $126 $44 $-1 $127 forward single #
loop $-1 $128 $129 $57 #
cone-surface $-1 -5.8556121053660846 -28.872541228735674 3.2935898821758585 0 0.77714596973225614 -0.62932038083071107 1 0 0 1 I I 0 1 1 forward I I I I #
face $-1 $130 $131 $45 $-1 $132 reversed single #
loop $-1 $-1 $133 $58 #
plane-surface $-1 20.494642368781307 -131.04171203342412 80.859469752152648 -1 0 0 0 -0.77714596973225614 0.62932038083071107 forward_v I I I I #
face $-1 $134 $135 $46 $-1 $136 forward single #
loop $-1 $137 $138 $59 #
cone-surface $-1 5.8556121053660917 -28.872541228735674 3.2935898821758585 0 0.77714596973225614 -0.62932038083071107 1 0 0 1 I I 0 1 1 forward I I I I #
face $-1 $139 $140 $47 $-1 $141 forward single #
loop $-1 $142 $143 $60 #
cone-surface $-1 14.639030263415222 -28.872541228735674 3.2935898821758585 0 0.77714596973225614 -0.62932038083071107 1 0 0 1 I I 0 1 1 forward I I I I #
face $-1 $144 $145 $48 $-1 $146 reversed single #
loop $-1 $-1 $147 $61 #
plane-surface $-1 -55.008391682395867 69.234047614512463 139.41052486311924 1 0 0 0 -0.66913061440640931 -0.74314481823134659 forward_v I I I I #
face $-1 $148 $149 $49 $-1 $150 forward single #
loop $-1 $151 $152 $62 #
cone-surface $-1 -52.506548182641822 28.43665143991069 3.4720434971553935 0 -0.66913061440640931 -0.74314481823134659 1 0 0 1 I I 0 1 1 forward I I I I #
face $-1 $153 $154 $50 $-1 $155 forward single #
loop $-1 $156 $157 $63 #
cone-surface $-1 -48.753782933010747 28.43665143991069 3.4720434971553935 0 -0.66913061440640931 -0.74314481823134659 1 0 0 1 I I 0 1 1 forward I I I I #
face $-1 $158 $159 $51 $-1 $160 forward single #
loop $-1 $161 $162 $64 #
cone-surface $-1 -45.001017683379672 28.43665143991069 3.4720434971553935 0 -0.66913061440640931 -0.74314481823134659 1 0 0 1 I I 0 1 1 forward I I I I #
face $-1 $163 $164 $39 $-1 $165 reversed single #
loop $-1 $-1 $166 $65 #
plane-surface $-1 0 0 -7.1897349524055674 0 0 1 1 0 0 forward_v I I I I #
coedge $-1 $167 $168 $169 $170 forward $66 $-1 #
face $-1 $171 $172 $40 $-1 $173 reversed single #
loop $-1 $-1 $174 $68 #
plane-surface $-1 0 0 -7.1897349524055674 0 0 1 1 0 0 forward_v I I I I #
coedge $-1 $175 $176 $177 $178 forward $69 $-1 #
face $-1 $179 $180 $41 $-1 $181 reversed single #
loop $-1 $-1 $182 $71 #
plane-surface $-1 0 0 -7.1897349524055674 0 0 1 1 0 0 forward_v I I I I #
coedge $-1 $183 $184 $185 $186 forward $72 $-1 #
face $-1 $187 $188 $42 $-1 $189 reversed single #
loop $-1 $-1 $190 $74 #
plane-surface $-1 -10.24732118439065 -32.356720348510947 0.94594131833541439 0 -0.77714596973225614 0.62932038083071107 1 0 0 forward_v I I I I #
coedge $-1 $191 $192 $193 $194 reversed $75 $-1 #
face $-1 $-1 $195 $43 $-1 $196 forward single #
loop $-1 $197 $198 $77 #
cone-surface $-1 -14.639030263415215 -27.527851251840477 2.2046814385658724 0 0.77714596973225614 -0.62932038083071107 0.5 0 0 1 I I -0.70710678118654746 0.70710678118654746 0.5 forward I I I I #
loop $-1 $-1 $199 $56 #
coedge $-1 $124 $124 $200 $201 reversed $78 $-1 #
face $-1 $-1 $202 $44 $-1 $203 forward single #
loop $-1 $204 $205 $80 #
cone-surface $-1 -5.8556121053660846 -27.527851251840477 2.2046814385658724 0 0.77714596973225614 -0.62932038083071107 0.5 0 0 1 I I -0.70710678118654746 0.70710678118654746 0.5 forward I I I I #
loop $-1 $-1 $206 $57 #
coedge $-1 $129 $129 $207 $208 reversed $81 $-1 #
face $-1 $209 $210 $45 $-1 $211 forward single #
loop $-1 $-1 $212 $83 #
plane-surface $-1 -10.24732118439065 -32.356720348510947 0.94594131833541439 0 -0.77714596973225614 0.62932038083071107 1 0 0 forward_v I I I I #
coedge $-1 $213 $214 $215 $216 reversed $84 $-1 #
face $-1 $-1 $217 $46 $-1 $218 forward single #
loop $-1 $219 $220 $86 #
cone-surface $-1 5.8556121053660917 -27.527851251840477 2.2046814385658724 0 0.77714596973225614 -0.62932038083071107 0.5 0 0 1 I I -0.70710678118654746 0.70710678118654746 0.5 forward I I I I #
loop $-1 $-1 $221 $59 #
coedge $-1 $138 $138 $222 $223 reversed $87 $-1 #
face $-1 $-1 $224 $47 $-1 $225 forward single #
loop $-1 $226 $227 $89 #
cone-surface $-1 14.639030263415222 -27.527851251840477 2.2046814385658724 0 0.77714596973225614 -0.62932038083071107 0.5 0 0 1 I I -0.70710678118654746 0.70710678118654746 0.5 forward I I I I #
loop $-1 $-1 $228 $60 #
coedge $-1 $143 $143 $229 $230 reversed $90 $-1 #
face $-1 $231 $232 $48 $-1 $233 reversed single #
loop $-1 $-1 $234 $92 #
plane-surface $-1 -48.753782933010747 -15.734737775402408 45.043130494319968 0 0.66913061440640931 0.74314481823134659 1 0 0 forward_v I I I I #
coedge $-1 $235 $236 $237 $238 reversed $93 $-1 #
face $-1 $-1 $239 $49 $-1 $240 forward single #
loop $-1 $241 $242 $95 #
cone-surface $-1 -52.506548182641822 27.207519335014858 2.1069540288078255 0 -0.66913061440640931 -0.74314481823134659 0.5 0 0 1 I I -0.70710678118654746 0.70710678118654746 0.5 forward I I I I #
loop $-1 $-1 $243 $62 #
coedge $-1 $152 $152 $244 $245 reversed $96 $-1 #
face $-1 $-1 $246 $50 $-1 $247 forward single #
loop $-1 $248 $249 $98 #
cone-surface $-1 -48.753782933010747 27.207519335014858 2.1069540288078255 0 -0.66913061440640931 -0.74314481823134659 0.5 0 0 1 I I -0.70710678118654746 0.70710678118654746 0.5 forward I I I I #
loop $-1 $-1 $250 $63 #
coedge $-1 $157 $157 $251 $252 reversed $99 $-1 #
face $-1 $-1 $253 $51 $-1 $254 forward single #
loop $-1 $255 $256 $101 #
cone-surface $-1 -45.001017683379672 27.207519335014858 2.1069540288078255 0 -0.66913061440640931 -0.74314481823134659 0.5 0 0 1 I I -0.70710678118654746 0.70710678118654746 0.5 forward I I I I #
loop $-1 $-1 $257 $64 #
coedge $-1 $162 $162 $258 $259 reversed $102 $-1 #
face $-1 $260 $261 $39 $-1 $262 reversed single #
loop $-1 $-1 $263 $104 #
plane-surface $-1 0 -32.356720348510926 0 0 1 0 0 0 1 forward_v I I I I #
coedge $-1 $264 $265 $266 $267 forward $105 $-1 #
coedge $-1 $268 $107 $269 $270 forward $66 $-1 #
coedge $-1 $107 $268 $271 $272 forward $66 $-1 #
coedge $-1 $273 $274 $107 $170 reversed $275 $-1 #
edge $-1 $276 -32.356720348510926 $277 32.356720348510926 $169 $278 forward 7 unknown #
face $-1 $279 $280 $40 $-1 $281 reversed single #
loop $-1 $-1 $282 $108 #
plane-surface $-1 -67.733695940167465 -30.035818301516912 0 0 1 0 0 0 1 forward_v I I I I #
coedge $-1 $283 $284 $176 $285 forward $109 $-1 #
coedge $-1 $286 $111 $287 $288 reversed $69 $-1 #
coedge $-1 $111 $286 $174 $285 reversed $69 $-1 #
coedge $-1 $289 $290 $111 $178 reversed $291 $-1 #
edge $-1 $292 -7.1897349524055674 $293 7.1897349524055674 $177 $294 forward 7 unknown #
face $-1 $295 $296 $41 $-1 $297 reversed single #
loop $-1 $-1 $185 $112 #
plane-surface $-1 67.733695940167465 -30.035818301516912 0 0 1 0 0 0 1 forward_v I I I I #
coedge $-1 $298 $299 $184 $300 forward $113 $-1 #
coedge $-1 $301 $115 $302 $303 reversed $72 $-1 #
coedge $-1 $115 $301 $182 $300 reversed $72 $-1 #
coedge $-1 $304 $305 $115 $186 reversed $180 $-1 #
edge $-1 $306 -7.1897349524055674 $307 7.1897349524055674 $185 $308 forward 7 unknown #
face $-1 $309 $310 $42 $-1 $311 forward single #
loop $-1 $-1 $312 $116 #
plane-surface $-1 -20.4946423687813 -131.04171203342412 80.859469752152648 1 0 0 0 0.77714596973225614 -0.62932038083071107 forward_v I I I I #
coedge $-1 $313 $314 $315 $316 reversed $117 $-1 #
coedge $-1 $192 $119 $317 $318 reversed $75 $-1 #
coedge $-1 $119 $191 $313 $319 reversed $75 $-1 #
coedge $-1 $315 $320 $119 $194 forward $310 $-1 #
edge $-1 $321 33.164135668201133 $322 38.220259923693483 $193 $323 forward 7 unknown #
loop $-1 $-1 $200 $120 #
plane-surface $-1 -10.24732118439065 -32.356720348510947 0.94594131833541439 0 -0.77714596973225614 0.62932038083071107 1 0 0 forward_v I I I I #
loop $-1 $-1 $324 $77 #
coedge $-1 $198 $198 $199 $325 reversed $121 $-1 #
coedge $-1 $199 $199 $198 $325 forward $123 $-1 #
coedge $-1 $200 $200 $124 $201 forward $195 $-1 #
edge $-1 $326 -7.2023940852280121e-016 $326 6.2831853071795996 $200 $327 forward 7 unknown #
loop $-1 $-1 $207 $125 #
plane-surface $-1 -10.24732118439065 -32.356720348510947 0.94594131833541439 0 -0.77714596973225614 0.62932038083071107 1 0 0 forward_v I I I I #
loop $-1 $-1 $328 $80 #
coedge $-1 $205 $205 $206 $329 reversed $126 $-1 #
coedge $-1 $206 $206 $205 $329 forward $128 $-1 #
coedge $-1 $207 $207 $129 $208 forward $202 $-1 #
edge $-1 $330 -7.2023940852280121e-016 $330 6.2831853071795996 $207 $331 forward 7 unknown #
face $-1 $332 $333 $45 $-1 $334 forward single #
loop $-1 $-1 $335 $130 #
plane-surface $-1 0 0 7.1897349524055674 0 0 1 1 0 0 forward_v I I I I #
coedge $-1 $336 $337 $338 $339 reversed $131 $-1 #
coedge $-1 $214 $133 $340 $341 reversed $84 $-1 #
coedge $-1 $133 $213 $335 $342 reversed $84 $-1 #
coedge $-1 $343 $344 $133 $216 forward $345 $-1 #
edge $-1 $346 -39.483793557740881 $347 -33.239999923670759 $215 $348 forward 7 unknown #
loop $-1 $-1 $222 $134 #
plane-surface $-1 -10.24732118439065 -32.356720348510947 0.94594131833541439 0 -0.77714596973225614 0.62932038083071107 1 0 0 forward_v I I I I #
loop $-1 $-1 $349 $86 #
coedge $-1 $220 $220 $221 $350 reversed $135 $-1 #
coedge $-1 $221 $221 $220 $350 forward $137 $-1 #
coedge $-1 $222 $222 $138 $223 forward $217 $-1 #
edge $-1 $351 -7.2023940852280121e-016 $351 6.2831853071795996 $222 $352 forward 7 unknown #
loop $-1 $-1 $229 $139 #
plane-surface $-1 -10.24732118439065 -32.356720348510947 0.94594131833541439 0 -0.77714596973225614 0.62932038083071107 1 0 0 forward_v I I I I #
loop $-1 $-1 $353 $89 #
coedge $-1 $227 $227 $228 $354 reversed $140 $-1 #
coedge $-1 $228 $228 $227 $354 forward $142 $-1 #
coedge $-1 $229 $229 $143 $230 forward $224 $-1 #
edge $-1 $355 -7.2023940852280121e-016 $355 6.2831853071795996 $229 $356 forward 7 unknown #
face $-1 $357 $358 $48 $-1 $359 reversed single #
loop $-1 $-1 $360 $144 #
plane-surface $-1 -42.499174183625627 69.234047614512463 139.41052486311924 -1 0 0 0 0.66913061440640931 0.74314481823134659 forward_v I I I I #
coedge $-1 $361 $362 $363 $364 reversed $145 $-1 #
coedge $-1 $236 $147 $365 $366 reversed $93 $-1 #
coedge $-1 $147 $235 $361 $367 reversed $93 $-1 #
coedge $-1 $363 $368 $147 $238 forward $369 $-1 #
edge $-1 $370 2.2603034587453052 $371 8.3113076805605175 $237 $372 forward 7 unknown #
loop $-1 $-1 $244 $148 #
plane-surface $-1 -48.753782933010747 -15.734737775402408 45.043130494319968 0 0.66913061440640931 0.74314481823134659 1 0 0 forward_v I I I I #
loop $-1 $-1 $373 $95 #
coedge $-1 $242 $242 $243 $374 reversed $149 $-1 #
coedge $-1 $243 $243 $242 $374 forward $151 $-1 #
coedge $-1 $244 $244 $152 $245 forward $239 $-1 #
edge $-1 $375 -3.3135609732207542e-016 $375 6.2831853071796004 $244 $376 forward 7 unknown #
loop $-1 $-1 $251 $153 #
plane-surface $-1 -48.753782933010747 -15.734737775402408 45.043130494319968 0 0.66913061440640931 0.74314481823134659 1 0 0 forward_v I I I I #
loop $-1 $-1 $377 $98 #
coedge $-1 $249 $249 $250 $378 reversed $154 $-1 #
coedge $-1 $250 $250 $249 $378 forward $156 $-1 #
coedge $-1 $251 $251 $157 $252 forward $246 $-1 #
edge $-1 $379 -3.3135609732207542e-016 $379 6.2831853071796004 $251 $380 forward 7 unknown #
loop $-1 $-1 $258 $158 #
plane-surface $-1 -48.753782933010747 -15.734737775402408 45.043130494319968 0 0.66913061440640931 0.74314481823134659 1 0 0 forward_v I I I I #
loop $-1 $-1 $381 $101 #
coedge $-1 $256 $256 $257 $382 reversed $159 $-1 #
coedge $-1 $257 $257 $256 $382 forward $161 $-1 #
coedge $-1 $258 $258 $162 $259 forward $253 $-1 #
edge $-1 $383 -3.3135609732207542e-016 $383 6.2831853071796004 $258 $384 forward 7 unknown #
face $-1 $385 $386 $39 $-1 $387 reversed single #
loop $-1 $-1 $388 $163 #
plane-surface $-1 -63.491927854243599 0 0 1 0 0 0 0 -1 forward_v I I I I #
coedge $-1 $389 $271 $390 $391 forward $164 $-1 #
coedge $-1 $392 $166 $389 $393 forward $105 $-1 #
coedge $-1 $166 $392 $394 $395 forward $105 $-1 #
coedge $-1 $274 $273 $166 $267 reversed $275 $-1 #
edge $-1 $396 -32.356720348510926 $397 32.356720348510926 $266 $398 forward 7 unknown #
coedge $-1 $168 $167 $399 $400 forward $66 $-1 #
coedge $-1 $401 $402 $167 $270 reversed $386 $-1 #
edge $-1 $277 -63.491927854243599 $403 63.491927854243599 $269 $404 forward 7 unknown #
coedge $-1 $263 $405 $168 $272 reversed $164 $-1 #
edge $-1 $406 -63.491927854243599 $276 63.491927854243599 $271 $407 forward 7 unknown #
coedge $-1 $266 $169 $405 $408 forward $275 $-1 #
coedge $-1 $169 $266 $401 $409 reversed $275 $-1 #
loop $-1 $-1 $273 $385 #
vertex $-1 $170 $410 #
vertex $-1 $170 $411 #
straight-curve $-1 63.491927854243599 0 7.1897349524055674 0 1 0 I I #
face $-1 $412 $291 $40 $-1 $413 reversed single #
loop $-1 $-1 $414 $171 #
plane-surface $-1 -71.975464026091331 -28.535818301516912 0 1 0 0 0 0 -1 forward_v I I I I #
coedge $-1 $415 $416 $417 $418 forward $172 $-1 #
coedge $-1 $419 $174 $415 $420 forward $109 $-1 #
coedge $-1 $174 $419 $289 $421 forward $109 $-1 #
edge $-1 $292 27.035818301516912 $422 30.035818301516912 $174 $423 forward 7 unknown #
coedge $-1 $176 $175 $424 $425 forward $69 $-1 #
coedge $-1 $426 $427 $175 $288 forward $428 $-1 #
edge $-1 $429 -30.035818301516912 $293 -27.035818301516912 $287 $430 forward 7 unknown #
coedge $-1 $431 $177 $284 $421 reversed $291 $-1 #
coedge $-1 $177 $431 $426 $432 reversed $291 $-1 #
loop $-1 $-1 $177 $279 #
vertex $-1 $285 $433 #
vertex $-1 $432 $434 #
straight-curve $-1 -63.491927854243599 -27.035818301516912 0 0 0 1 I I #
face $-1 $435 $436 $41 $-1 $437 reversed single #
loop $-1 $-1 $438 $179 #
plane-surface $-1 67.733695940167465 -27.035818301516912 0 0 -1 0 0 0 -1 forward_v I I I I #
coedge $-1 $439 $182 $440 $441 forward $113 $-1 #
coedge $-1 $182 $439 $304 $442 forward $113 $-1 #
edge $-1 $306 -30.035818301516912 $443 -27.035818301516912 $182 $444 forward 7 unknown #
coedge $-1 $184 $183 $445 $446 forward $72 $-1 #
coedge $-1 $447 $448 $183 $303 forward $449 $-1 #
edge $-1 $450 27.035818301516912 $307 30.035818301516912 $302 $451 forward 7 unknown #
coedge $-1 $452 $185 $299 $442 reversed $180 $-1 #
coedge $-1 $185 $452 $447 $453 reversed $180 $-1 #
vertex $-1 $300 $454 #
vertex $-1 $453 $455 #
straight-curve $-1 63.491927854243599 -30.035818301516912 0 0 0 1 I I #
face $-1 $-1 $456 $42 $-1 $457 reversed single #
loop $-1 $-1 $193 $187 #
plane-surface $-1 0 0 7.1897349524055674 0 0 1 1 0 0 forward_v I I I I #
coedge $-1 $458 $459 $460 $461 reversed $188 $-1 #
coedge $-1 $462 $190 $192 $319 forward $117 $-1 #
coedge $-1 $190 $462 $458 $463 forward $117 $-1 #
coedge $-1 $460 $193 $190 $316 forward $310 $-1 #
edge $-1 $322 -5.1236605921953249 $464 15.370981776585975 $315 $465 forward 7 unknown #
coedge $-1 $466 $467 $191 $318 forward $456 $-1 #
edge $-1 $468 -39.483793557740881 $321 -33.239999923670759 $317 $469 forward 7 unknown #
edge $-1 $322 -8.034261100551392 $468 -3.3863257525417323e-014 $192 $470 forward 7 unknown #
coedge $-1 $193 $460 $466 $471 forward $310 $-1 #
vertex $-1 $194 $472 #
vertex $-1 $194 $473 #
straight-curve $-1 0 -65.520856016712059 7.1897349524055656 0 1 0 I I #
coedge $-1 $324 $324 $-1 $474 reversed $197 $-1 #
edge $-1 $475 0 $475 6.2831853071796004 $198 $476 forward 7 unknown #
vertex $-1 $201 $477 #
ellipse-curve $-1 -14.639030263415215 -29.828658220764755 4.0678381353705007 0 -0.77714596973225614 0.62932038083071107 1 0 0 1 I I #
coedge $-1 $328 $328 $-1 $478 reversed $204 $-1 #
edge $-1 $479 0 $479 6.2831853071796004 $205 $480 forward 7 unknown #
vertex $-1 $208 $481 #
ellipse-curve $-1 -5.8556121053660846 -29.828658220764755 4.0678381353705007 0 -0.77714596973225614 0.62932038083071107 1 0 0 1 I I #
face $-1 $-1 $345 $45 $-1 $482 reversed single #
loop $-1 $-1 $483 $209 #
plane-surface $-1 0 -131.04171203342412 80.859469752152648 -1 0 0 0 -0.77714596973225614 0.62932038083071107 forward_v I I I I #
coedge $-1 $484 $485 $214 $342 forward $210 $-1 #
coedge $-1 $340 $212 $484 $486 reversed $131 $-1 #
coedge $-1 $212 $340 $344 $487 reversed $131 $-1 #
coedge $-1 $488 $483 $212 $339 forward $333 $-1 #
edge $-1 $489 -8.034261100551392 $490 -3.3863257525417323e-014 $338 $491 forward 7 unknown #
coedge $-1 $337 $336 $213 $341 forward $131 $-1 #
edge $-1 $492 -8.034261100551392 $346 -3.3863257525417323e-014 $213 $493 forward 7 unknown #
edge $-1 $347 33.164135668201133 $492 38.220259923693483 $335 $494 forward 7 unknown #
coedge $-1 $495 $215 $485 $496 reversed $345 $-1 #
coedge $-1 $215 $495 $337 $487 forward $345 $-1 #
loop $-1 $-1 $215 $332 #
vertex $-1 $216 $497 #
vertex $-1 $342 $498 #
straight-curve $-1 20.494642368781307 -32.356720348510926 40.429734876076324 0 0 1 I I #
coedge $-1 $349 $349 $-1 $499 reversed $219 $-1 #
edge $-1 $500 0 $500 6.2831853071796004 $220 $501 forward 7 unknown #
vertex $-1 $223 $502 #
ellipse-curve $-1 5.8556121053660917 -29.828658220764755 4.0678381353705007 0 -0.77714596973225614 0.62932038083071107 1 0 0 1 I I #
coedge $-1 $353 $353 $-1 $503 reversed $226 $-1 #
edge $-1 $504 0 $504 6.2831853071796004 $227 $505 forward 7 unknown #
vertex $-1 $230 $506 #
ellipse-curve $-1 14.639030263415222 -29.828658220764755 4.0678381353705007 0 -0.77714596973225614 0.62932038083071107 1 0 0 1 I I #
face $-1 $-1 $369 $48 $-1 $507 forward single #
loop $-1 $-1 $508 $231 #
plane-surface $-1 0 32.356720348510926 0 0 -1 0 0 0 -1 forward_v I I I I #
coedge $-1 $509 $510 $511 $512 reversed $232 $-1 #
coedge $-1 $513 $234 $236 $367 forward $145 $-1 #
coedge $-1 $234 $513 $509 $514 forward $145 $-1 #
coedge $-1 $511 $237 $234 $364 forward $369 $-1 #
edge $-1 $371 -30.631500215890494 $515 -18.122282717120253 $363 $516 forward 7 unknown #
coedge $-1 $517 $518 $235 $366 forward $358 $-1 #
edge $-1 $519 -67.963876271190614 $370 -62.515527479154052 $365 $520 forward 7 unknown #
edge $-1 $371 56.571011289768037 $519 64.713440697021852 $236 $521 forward 7 unknown #
coedge $-1 $237 $511 $517 $522 forward $369 $-1 #
loop $-1 $-1 $511 $357 #
vertex $-1 $366 $523 #
vertex $-1 $238 $524 #
straight-curve $-1 -55.008391682395867 34.617023807256231 7.1897349524055727 0 -1 0 I I #
coedge $-1 $373 $373 $-1 $525 reversed $241 $-1 #
edge $-1 $526 0 $526 6.2831853071796004 $242 $527 forward 7 unknown #
vertex $-1 $245 $528 #
ellipse-curve $-1 -52.506548182641822 29.331218237603316 4.4655605563872838 0 0.66913061440640931 0.74314481823134659 1 0 0 1 I I #
coedge $-1 $377 $377 $-1 $529 reversed $248 $-1 #
edge $-1 $530 0 $530 6.2831853071796004 $249 $531 forward 7 unknown #
vertex $-1 $252 $532 #
ellipse-curve $-1 -48.753782933010747 29.331218237603316 4.4655605563872838 0 0.66913061440640931 0.74314481823134659 1 0 0 1 I I #
coedge $-1 $381 $381 $-1 $533 reversed $255 $-1 #
edge $-1 $534 0 $534 6.2831853071796004 $256 $535 forward 7 unknown #
vertex $-1 $259 $536 #
ellipse-curve $-1 -45.001017683379672 29.331218237603316 4.4655605563872838 0 0.66913061440640931 0.74314481823134659 1 0 0 1 I I #
face $-1 $-1 $275 $39 $-1 $537 reversed single #
loop $-1 $-1 $401 $260 #
plane-surface $-1 0 32.356720348510926 0 0 -1 0 0 0 -1 forward_v I I I I #
coedge $-1 $538 $399 $402 $539 forward $261 $-1 #
coedge $-1 $405 $263 $264 $393 reversed $164 $-1 #
coedge $-1 $399 $538 $263 $391 reversed $261 $-1 #
edge $-1 $406 -7.1897349524055674 $540 7.1897349524055674 $390 $541 forward 7 unknown #
coedge $-1 $265 $264 $538 $542 forward $105 $-1 #
edge $-1 $397 -63.491927854243599 $540 63.491927854243599 $389 $543 forward 7 unknown #
coedge $-1 $402 $401 $265 $395 reversed $386 $-1 #
edge $-1 $544 -63.491927854243599 $396 63.491927854243599 $394 $545 forward 7 unknown #
vertex $-1 $267 $546 #
vertex $-1 $408 $547 #
straight-curve $-1 63.491927854243599 0 -7.1897349524055674 0 -1 0 I I #
coedge $-1 $388 $390 $268 $400 reversed $261 $-1 #
edge $-1 $403 -32.356720348510926 $406 32.356720348510926 $399 $548 forward 7 unknown #
coedge $-1 $394 $269 $274 $409 forward $386 $-1 #
coedge $-1 $269 $394 $388 $539 reversed $386 $-1 #
vertex $-1 $270 $549 #
straight-curve $-1 0 32.356720348510926 7.1897349524055674 -1 0 0 I I #
coedge $-1 $271 $389 $273 $408 reversed $164 $-1 #
vertex $-1 $400 $550 #
straight-curve $-1 0 -32.356720348510926 7.1897349524055674 1 0 0 I I #
edge $-1 $276 -7.1897349524055674 $397 7.1897349524055674 $273 $551 forward 7 unknown #
edge $-1 $277 -7.1897349524055674 $396 7.1897349524055674 $274 $552 forward 7 unknown #
point $-1 63.491927854243599 -32.356720348510926 7.1897349524055674 #
point $-1 63.491927854243599 32.356720348510926 7.1897349524055674 #
face $-1 $-1 $428 $40 $-1 $553 forward single #
plane-surface $-1 -67.733695940167465 -27.035818301516912 0 0 -1 0 0 0 -1 forward_v I I I I #
coedge $-1 $554 $555 $431 $556 forward $280 $-1 #
coedge $-1 $424 $282 $283 $420 reversed $172 $-1 #
coedge $-1 $282 $424 $427 $557 reversed $172 $-1 #
coedge $-1 $555 $554 $282 $418 reversed $280 $-1 #
edge $-1 $558 -7.1897349524055674 $559 7.1897349524055674 $417 $560 forward 7 unknown #
coedge $-1 $284 $283 $554 $561 forward $109 $-1 #
edge $-1 $422 -4.2417680859238658 $559 4.2417680859238658 $415 $562 forward 7 unknown #
edge $-1 $563 -4.2417680859238658 $292 4.2417680859238658 $289 $564 forward 7 unknown #
vertex $-1 $420 $565 #
straight-curve $-1 -63.491927854243599 0 -7.1897349524055674 0 -1 0 I I #
coedge $-1 $416 $415 $286 $425 reversed $172 $-1 #
edge $-1 $429 -7.1897349524055674 $422 7.1897349524055674 $424 $566 forward 7 unknown #
coedge $-1 $567 $287 $290 $432 forward $428 $-1 #
coedge $-1 $287 $567 $416 $557 forward $428 $-1 #
loop $-1 $-1 $287 $412 #
vertex $-1 $288 $568 #
straight-curve $-1 -63.491927854243599 0 7.1897349524055674 0 1 0 I I #
coedge $-1 $290 $289 $414 $556 reversed $291 $-1 #
edge $-1 $293 -4.2417680859238658 $569 4.2417680859238658 $290 $570 forward 7 unknown #
point $-1 -63.491927854243599 -27.035818301516912 -7.1897349524055674 #
point $-1 -63.491927854243599 -27.035818301516912 7.1897349524055674 #
face $-1 $-1 $449 $41 $-1 $571 forward single #
loop $-1 $-1 $572 $295 #
plane-surface $-1 71.975464026091331 -28.535818301516912 0 -1 0 0 0 0 1 forward_v I I I I #
coedge $-1 $440 $573 $574 $575 forward $296 $-1 #
coedge $-1 $299 $298 $576 $577 forward $113 $-1 #
coedge $-1 $445 $438 $298 $441 reversed $296 $-1 #
edge $-1 $443 -4.2417680859238658 $578 4.2417680859238658 $440 $579 forward 7 unknown #
edge $-1 $580 -4.2417680859238658 $306 4.2417680859238658 $304 $581 forward 7 unknown #
vertex $-1 $441 $582 #
straight-curve $-1 63.491927854243599 0 -7.1897349524055674 0 1 0 I I #
coedge $-1 $573 $440 $301 $446 reversed $296 $-1 #
edge $-1 $450 -7.1897349524055674 $443 7.1897349524055674 $445 $583 forward 7 unknown #
coedge $-1 $584 $302 $305 $453 forward $449 $-1 #
coedge $-1 $302 $584 $573 $585 forward $449 $-1 #
loop $-1 $-1 $302 $435 #
vertex $-1 $303 $586 #
straight-curve $-1 63.491927854243599 0 7.1897349524055674 0 -1 0 I I #
coedge $-1 $305 $304 $572 $587 reversed $180 $-1 #
edge $-1 $307 -4.2417680859238658 $588 4.2417680859238658 $305 $589 forward 7 unknown #
point $-1 63.491927854243599 -30.035818301516912 -7.1897349524055674 #
point $-1 63.491927854243599 -30.035818301516912 7.1897349524055674 #
loop $-1 $-1 $317 $309 #
plane-surface $-1 0 -32.356720348510926 0 0 1 0 0 0 1 forward_v I I I I #
coedge $-1 $459 $312 $314 $463 reversed $188 $-1 #
coedge $-1 $312 $458 $590 $591 reversed $188 $-1 #
coedge $-1 $320 $315 $312 $461 forward $310 $-1 #
edge $-1 $464 -38.220259923693483 $592 -33.164135668201133 $460 $593 forward 7 unknown #
coedge $-1 $314 $313 $467 $594 reversed $117 $-1 #
edge $-1 $595 3.3863257525417323e-014 $464 8.034261100551392 $458 $596 forward 7 unknown #
vertex $-1 $316 $597 #
straight-curve $-1 -5.1236605921953249 -27.30059609301858 7.1897349524055674 -1 0 0 I I #
coedge $-1 $590 $317 $320 $471 reversed $456 $-1 #
coedge $-1 $317 $590 $462 $594 forward $456 $-1 #
vertex $-1 $318 $598 #
straight-curve $-1 0 -32.356720348510926 40.429734876076324 0 0 1 I I #
straight-curve $-1 0 -32.356720348510947 0.94594131833541439 0 -0.62932038083071107 -0.77714596973225614 I I #
edge $-1 $592 -20.4946423687813 $321 0 $466 $599 forward 7 unknown #
point $-1 0 -32.356720348510926 7.1897349524055674 #
point $-1 0 -27.300596093018576 7.1897349524055683 #
edge $-1 $600 1 $600 0 $324 $-1 forward 7 unknown #
vertex $-1 $325 $601 #
ellipse-curve $-1 -14.639030263415215 -27.916424236706604 2.5193416289812278 0 -0.77714596973225614 0.62932038083071107 1 0 0 1 I I #
point $-1 -13.639030263415215 -29.828658220764741 4.0678381353704882 #
edge $-1 $602 1 $602 0 $328 $-1 forward 7 unknown #
vertex $-1 $329 $603 #
ellipse-curve $-1 -5.8556121053660846 -27.916424236706604 2.5193416289812278 0 -0.77714596973225614 0.62932038083071107 1 0 0 1 I I #
point $-1 -4.8556121053660846 -29.828658220764741 4.0678381353704882 #
plane-surface $-1 0 -32.356720348510926 0 0 1 0 0 0 1 forward_v I I I I #
coedge $-1 $338 $488 $604 $605 reversed $333 $-1 #
coedge $-1 $604 $335 $336 $486 forward $210 $-1 #
coedge $-1 $335 $604 $343 $496 forward $210 $-1 #
edge $-1 $492 -25.618302960976632 $489 -5.1236605921953249 $484 $606 forward 7 unknown #
edge $-1 $490 5.1236605921953249 $346 25.618302960976632 $344 $607 forward 7 unknown #
coedge $-1 $483 $338 $495 $608 reversed $333 $-1 #
vertex $-1 $486 $609 #
vertex $-1 $487 $610 #
straight-curve $-1 0 -32.356720348510947 0.94594131833541439 0 -0.62932038083071107 -0.77714596973225614 I I #
vertex $-1 $342 $611 #
straight-curve $-1 20.494642368781307 -32.356720348510947 0.94594131833541439 0 -0.62932038083071107 -0.77714596973225614 I I #
straight-curve $-1 20.494642368781307 -65.520856016712059 7.1897349524055656 0 1 0 I I #
coedge $-1 $344 $343 $488 $608 forward $345 $-1 #
edge $-1 $612 0 $347 20.494642368781307 $343 $613 forward 7 unknown #
point $-1 20.494642368781307 -32.356720348510926 0.94594131833544071 #
point $-1 20.494642368781307 -32.356720348510926 7.1897349524055674 #
edge $-1 $614 1 $614 0 $349 $-1 forward 7 unknown #
vertex $-1 $350 $615 #
ellipse-curve $-1 5.8556121053660917 -27.916424236706604 2.5193416289812278 0 -0.77714596973225614 0.62932038083071107 1 0 0 1 I I #
point $-1 6.8556121053660917 -29.828658220764741 4.0678381353704882 #
edge $-1 $616 1 $616 0 $353 $-1 forward 7 unknown #
vertex $-1 $354 $617 #
ellipse-curve $-1 14.639030263415222 -27.916424236706604 2.5193416289812278 0 -0.77714596973225614 0.62932038083071107 1 0 0 1 I I #
point $-1 15.639030263415222 -29.828658220764741 4.0678381353704882 #
plane-surface $-1 0 0 7.1897349524055674 0 0 1 1 0 0 forward_v I I I I #
coedge $-1 $518 $517 $510 $618 forward $358 $-1 #
coedge $-1 $510 $360 $362 $514 reversed $232 $-1 #
coedge $-1 $360 $509 $508 $618 reversed $232 $-1 #
coedge $-1 $368 $363 $360 $512 forward $369 $-1 #
edge $-1 $515 -8.3113076805605175 $619 -2.2603034587453052 $511 $620 forward 7 unknown #
coedge $-1 $362 $361 $518 $621 reversed $145 $-1 #
edge $-1 $622 -64.713440697021852 $515 -56.571011289768037 $509 $623 forward 7 unknown #
vertex $-1 $364 $624 #
straight-curve $-1 -24.376891466505374 26.305716126695717 7.189734952405562 1 0 0 I I #
coedge $-1 $508 $365 $368 $522 reversed $358 $-1 #
coedge $-1 $365 $508 $513 $621 forward $358 $-1 #
vertex $-1 $366 $625 #
straight-curve $-1 -55.008391682395867 32.356720348510926 69.705262431559618 0 0 1 I I #
straight-curve $-1 -55.008391682395867 -15.734737775402408 45.043130494319968 0 0.74314481823134659 -0.66913061440640931 I I #
edge $-1 $619 42.499174183625627 $370 55.008391682395867 $517 $626 forward 7 unknown #
point $-1 -55.008391682395867 32.356720348510926 7.1897349524055674 #
point $-1 -55.008391682395867 26.305716126695714 7.1897349524055656 #
edge $-1 $627 1 $627 0 $373 $-1 forward 7 unknown #
vertex $-1 $374 $628 #
ellipse-curve $-1 -52.506548182641822 27.542084642218065 2.4785264379234988 0 0.66913061440640931 0.74314481823134659 1 0 0 1 I I #
point $-1 -51.506548182641822 29.33121823760332 4.4655605563872882 #
edge $-1 $629 1 $629 0 $377 $-1 forward 7 unknown #
vertex $-1 $378 $630 #
ellipse-curve $-1 -48.753782933010747 27.542084642218065 2.4785264379234988 0 0.66913061440640931 0.74314481823134659 1 0 0 1 I I #
point $-1 -47.753782933010747 29.33121823760332 4.4655605563872882 #
edge $-1 $631 1 $631 0 $381 $-1 forward 7 unknown #
vertex $-1 $382 $632 #
ellipse-curve $-1 -45.001017683379672 27.542084642218065 2.4785264379234988 0 0.66913061440640931 0.74314481823134659 1 0 0 1 I I #
point $-1 -44.001017683379672 29.33121823760332 4.4655605563872882 #
plane-surface $-1 63.491927854243599 0 0 -1 0 0 0 0 1 forward_v I I I I #
coedge $-1 $390 $388 $392 $542 reversed $261 $-1 #
edge $-1 $403 -7.1897349524055674 $544 7.1897349524055674 $402 $633 forward 7 unknown #
vertex $-1 $542 $634 #
straight-curve $-1 -63.491927854243599 -32.356720348510926 0 0 0 -1 I I #
edge $-1 $540 -32.356720348510926 $544 32.356720348510926 $538 $635 forward 7 unknown #
straight-curve $-1 0 -32.356720348510926 -7.1897349524055674 -1 0 0 I I #
vertex $-1 $395 $636 #
straight-curve $-1 0 32.356720348510926 -7.1897349524055674 1 0 0 I I #
point $-1 63.491927854243599 32.356720348510926 -7.1897349524055674 #
point $-1 63.491927854243599 -32.356720348510926 -7.1897349524055674 #
straight-curve $-1 -63.491927854243599 0 7.1897349524055674 0 -1 0 I I #
point $-1 -63.491927854243599 32.356720348510926 7.1897349524055674 #
point $-1 -63.491927854243599 -32.356720348510926 7.1897349524055674 #
straight-curve $-1 63.491927854243599 -32.356720348510926 0 0 0 -1 I I #
straight-curve $-1 63.491927854243599 32.356720348510926 0 0 0 -1 I I #
plane-surface $-1 0 0 7.1897349524055674 0 0 1 1 0 0 forward_v I I I I #
coedge $-1 $417 $414 $419 $561 reversed $280 $-1 #
coedge $-1 $414 $417 $567 $637 reversed $280 $-1 #
edge $-1 $569 -7.1897349524055674 $563 7.1897349524055674 $431 $638 forward 7 unknown #
edge $-1 $558 -4.2417680859238658 $429 4.2417680859238658 $416 $639 forward 7 unknown #
vertex $-1 $637 $640 #
vertex $-1 $561 $641 #
straight-curve $-1 -71.975464026091331 -30.035818301516912 0 0 0 -1 I I #
edge $-1 $559 -1.5 $563 1.5 $554 $642 forward 7 unknown #
straight-curve $-1 -67.733695940167465 -30.035818301516912 -7.1897349524055674 -1 0 0 I I #
vertex $-1 $421 $643 #
straight-curve $-1 -67.733695940167465 -27.035818301516912 -7.1897349524055674 1 0 0 I I #
point $-1 -63.491927854243599 -30.035818301516912 -7.1897349524055674 #
straight-curve $-1 -63.491927854243599 -30.035818301516912 0 0 0 -1 I I #
coedge $-1 $427 $426 $555 $637 forward $428 $-1 #
point $-1 -63.491927854243599 -30.035818301516912 7.1897349524055674 #
vertex $-1 $432 $644 #
straight-curve $-1 -67.733695940167465 -27.035818301516912 7.1897349524055674 -1 0 0 I I #
plane-surface $-1 0 0 7.1897349524055674 0 0 1 1 0 0 forward_v I I I I #
coedge $-1 $576 $645 $452 $587 forward $436 $-1 #
coedge $-1 $438 $445 $448 $585 reversed $296 $-1 #
coedge $-1 $645 $576 $438 $575 reversed $436 $-1 #
edge $-1 $646 -7.1897349524055674 $578 7.1897349524055674 $574 $647 forward 7 unknown #
coedge $-1 $574 $572 $439 $577 reversed $436 $-1 #
edge $-1 $578 -1.5 $580 1.5 $576 $648 forward 7 unknown #
vertex $-1 $577 $649 #
straight-curve $-1 67.733695940167465 -27.035818301516912 -7.1897349524055674 1 0 0 I I #
vertex $-1 $587 $650 #
straight-curve $-1 67.733695940167465 -30.035818301516912 -7.1897349524055674 -1 0 0 I I #
point $-1 63.491927854243599 -27.035818301516912 -7.1897349524055674 #
straight-curve $-1 63.491927854243599 -27.035818301516912 0 0 0 -1 I I #
coedge $-1 $448 $447 $645 $651 forward $449 $-1 #
edge $-1 $646 -4.2417680859238658 $450 4.2417680859238658 $573 $652 forward 7 unknown #
point $-1 63.491927854243599 -27.035818301516912 7.1897349524055674 #
edge $-1 $588 -7.1897349524055674 $580 7.1897349524055674 $572 $653 forward 7 unknown #
vertex $-1 $651 $654 #
straight-curve $-1 67.733695940167465 -30.035818301516912 7.1897349524055674 1 0 0 I I #
coedge $-1 $467 $466 $459 $591 forward $456 $-1 #
edge $-1 $592 33.239999923670759 $595 39.483793557740881 $590 $655 forward 7 unknown #
vertex $-1 $471 $656 #
straight-curve $-1 -20.4946423687813 -65.520856016712059 7.1897349524055656 0 -1 0 I I #
edge $-1 $595 -15.370981776585975 $468 5.1236605921953249 $467 $657 forward 7 unknown #
vertex $-1 $594 $658 #
straight-curve $-1 -20.4946423687813 -32.356720348510947 0.94594131833541439 0 0.62932038083071107 0.77714596973225614 I I #
point $-1 -20.4946423687813 -27.300596093018576 7.1897349524055683 #
point $-1 0 -32.356720348510926 0.94594131833544071 #
straight-curve $-1 0 -32.356720348510926 7.1897349524055674 1 0 0 I I #
vertex $-1 $474 $659 #
point $-1 -13.639030263415215 -27.916424236706604 2.5193416289812278 #
vertex $-1 $478 $660 #
point $-1 -4.8556121053660846 -27.916424236706604 2.5193416289812278 #
coedge $-1 $485 $484 $483 $605 forward $210 $-1 #
edge $-1 $489 -38.220259923693483 $612 -33.164135668201133 $604 $661 forward 7 unknown #
straight-curve $-1 -5.1236605921953249 -27.30059609301858 7.1897349524055674 -1 0 0 I I #
straight-curve $-1 -5.1236605921953249 -32.356720348510926 0.94594131833543527 1 0 0 I I #
edge $-1 $612 33.239999923670759 $490 39.483793557740881 $495 $662 forward 7 unknown #
point $-1 0 -27.300596093018576 7.1897349524055683 #
point $-1 0 -32.356720348510926 0.94594131833544071 #
point $-1 20.494642368781307 -27.300596093018576 7.1897349524055683 #
vertex $-1 $496 $663 #
straight-curve $-1 0 -32.356720348510926 7.1897349524055674 1 0 0 I I #
vertex $-1 $499 $664 #
point $-1 6.8556121053660917 -27.916424236706604 2.5193416289812278 #
vertex $-1 $503 $665 #
point $-1 15.639030263415222 -27.916424236706604 2.5193416289812278 #
edge $-1 $619 62.515527479154052 $622 67.963876271190614 $508 $666 forward 7 unknown #
vertex $-1 $522 $667 #
straight-curve $-1 -42.499174183625627 34.617023807256231 7.1897349524055727 0 1 0 I I #
edge $-1 $622 18.122282717120253 $519 30.631500215890494 $518 $668 forward 7 unknown #
vertex $-1 $621 $669 #
straight-curve $-1 -42.499174183625627 -15.734737775402408 45.043130494319968 0 -0.74314481823134659 0.66913061440640931 I I #
point $-1 -42.499174183625627 26.305716126695714 7.1897349524055656 #
point $-1 -55.008391682395867 32.356720348510926 1.7413861603690037 #
straight-curve $-1 0 32.356720348510926 7.1897349524055674 -1 0 0 I I #
vertex $-1 $525 $670 #
point $-1 -51.506548182641822 27.542084642218065 2.4785264379234988 #
vertex $-1 $529 $671 #
point $-1 -47.753782933010747 27.542084642218065 2.4785264379234988 #
vertex $-1 $533 $672 #
point $-1 -44.001017683379672 27.542084642218065 2.4785264379234988 #
straight-curve $-1 -63.491927854243599 32.356720348510926 0 0 0 -1 I I #
point $-1 -63.491927854243599 -32.356720348510926 -7.1897349524055674 #
straight-curve $-1 -63.491927854243599 0 -7.1897349524055674 0 1 0 I I #
point $-1 -63.491927854243599 32.356720348510926 -7.1897349524055674 #
edge $-1 $569 -1.5 $558 1.5 $555 $673 forward 7 unknown #
straight-curve $-1 -71.975464026091331 -27.035818301516912 0 0 0 -1 I I #
straight-curve $-1 -67.733695940167465 -30.035818301516912 7.1897349524055674 1 0 0 I I #
point $-1 -71.975464026091331 -30.035818301516912 7.1897349524055674 #
point $-1 -71.975464026091331 -30.035818301516912 -7.1897349524055674 #
straight-curve $-1 -71.975464026091331 -28.535818301516912 -7.1897349524055674 0 1 0 I I #
point $-1 -71.975464026091331 -27.035818301516912 -7.1897349524055674 #
point $-1 -71.975464026091331 -27.035818301516912 7.1897349524055674 #
coedge $-1 $572 $574 $584 $651 reversed $436 $-1 #
vertex $-1 $651 $674 #
straight-curve $-1 71.975464026091331 -27.035818301516912 0 0 0 -1 I I #
straight-curve $-1 71.975464026091331 -28.535818301516912 -7.1897349524055674 0 -1 0 I I #
point $-1 71.975464026091331 -27.035818301516912 -7.1897349524055674 #
point $-1 71.975464026091331 -30.035818301516912 -7.1897349524055674 #
edge $-1 $588 -1.5 $646 1.5 $645 $675 forward 7 unknown #
straight-curve $-1 67.733695940167465 -27.035818301516912 7.1897349524055674 -1 0 0 I I #
straight-curve $-1 71.975464026091331 -30.035818301516912 0 0 0 -1 I I #
point $-1 71.975464026091331 -30.035818301516912 7.1897349524055674 #
straight-curve $-1 -20.4946423687813 -32.356720348510926 40.429734876076324 0 0 -1 I I #
point $-1 -20.4946423687813 -32.356720348510926 7.1897349524055674 #
straight-curve $-1 -5.1236605921953249 -32.356720348510926 0.94594131833543527 1 0 0 I I #
point $-1 -20.4946423687813 -32.356720348510926 0.94594131833544071 #
point $-1 -14.639030263415215 -27.139278266974351 1.890021248150517 #
point $-1 -5.8556121053660846 -27.139278266974351 1.890021248150517 #
straight-curve $-1 0 -65.520856016712059 7.1897349524055656 0 -1 0 I I #
straight-curve $-1 0 -32.356720348510926 40.429734876076324 0 0 -1 I I #
point $-1 0 -32.356720348510926 7.1897349524055674 #
point $-1 5.8556121053660917 -27.139278266974351 1.890021248150517 #
point $-1 14.639030263415222 -27.139278266974351 1.890021248150517 #
straight-curve $-1 -42.499174183625627 32.356720348510926 69.705262431559618 0 0 -1 I I #
point $-1 -42.499174183625627 32.356720348510926 7.1897349524055674 #
straight-curve $-1 -24.376891466505374 32.356720348510919 1.7413861603690037 -1 0 0 I I #
point $-1 -42.499174183625627 32.356720348510926 1.7413861603690037 #
point $-1 -52.506548182641822 26.872954027811652 1.7353816196921521 #
point $-1 -48.753782933010747 26.872954027811652 1.7353816196921521 #
point $-1 -45.001017683379672 26.872954027811652 1.7353816196921521 #
straight-curve $-1 -71.975464026091331 -28.535818301516912 7.1897349524055674 0 -1 0 I I #
point $-1 71.975464026091331 -27.035818301516912 7.1897349524055674 #
straight-curve $-1 71.975464026091331 -28.535818301516912 7.1897349524055674 0 1 0 I I #
End-of-ACIS-data 