500 0 3 0           
7 Unknown 11 ACIS 5.0 NT 24 Fri Mar 26 19:14:15 1999 
-1 9.9999999999999995e-007 1e-010 
body $-1 $3 $-1 $4 #
body $-1 $5 $-1 $6 #
body $-1 $7 $-1 $8 #
lump $-1 $-1 $9 $0 #
transform $-1 1 0 0 0 1 0 0 0 1 77.183751945554974 44.753008257966655 17.166678694857108 1 rotate no_reflect no_shear #
lump $-1 $-1 $10 $1 #
transform $-1 1 0 0 0 1 0 0 0 1 77.183751945554974 44.753008257966655 17.166678694857108 1 rotate no_reflect no_shear #
lump $-1 $-1 $11 $2 #
transform $-1 1 0 0 0 1 0 0 0 1 77.183751945554974 44.753008257966655 17.166678694857108 1 rotate no_reflect no_shear #
shell $-1 $-1 $-1 $12 $-1 $3 #
shell $-1 $-1 $-1 $13 $-1 $5 #
shell $-1 $-1 $-1 $14 $-1 $7 #
face $-1 $15 $16 $9 $-1 $17 forward single #
face $-1 $18 $19 $10 $-1 $20 forward single #
face $-1 $21 $22 $11 $-1 $23 forward single #
face $-1 $24 $25 $9 $-1 $26 reversed single #
loop $-1 $-1 $27 $12 #
plane-surface $-1 0 0 17.166678694857108 0 0 1 1 0 0 forward_v I I I I #
face $-1 $28 $29 $10 $-1 $30 reversed single #
loop $-1 $-1 $31 $13 #
plane-surface $-1 0 -35.273760764057975 9.9365327298914146 0 0 1 1 0 0 forward_v I I I I #
face $-1 $32 $33 $11 $-1 $34 reversed single #
loop $-1 $-1 $35 $14 #
plane-surface $-1 0 38.080934733282206 -11.976806186327384 0 0 1 1 0 0 forward_v I I I I #
face $-1 $36 $37 $9 $-1 $38 reversed single #
loop $-1 $-1 $39 $15 #
plane-surface $-1 0 0 -17.166678694857108 0 0 1 1 0 0 forward_v I I I I #
coedge $-1 $40 $41 $42 $43 forward $16 $-1 #
face $-1 $44 $45 $10 $-1 $46 reversed single #
loop $-1 $-1 $47 $18 #
plane-surface $-1 0 -35.273760764057975 1.3039990366439831 0 0 1 1 0 0 forward_v I I I I #
coedge $-1 $48 $49 $50 $51 reversed $19 $-1 #
face $-1 $52 $53 $11 $-1 $54 reversed single #
loop $-1 $-1 $55 $21 #
plane-surface $-1 0 31.408861208597756 -14.571742440592246 0 1 0 0 0 1 forward_v I I I I #
coedge $-1 $56 $57 $58 $59 reversed $22 $-1 #
face $-1 $60 $61 $9 $-1 $62 reversed single #
loop $-1 $-1 $63 $24 #
plane-surface $-1 0 -44.753008257966655 0 0 1 0 0 0 1 forward_v I I I I #
coedge $-1 $64 $65 $66 $67 forward $25 $-1 #
coedge $-1 $68 $27 $69 $70 forward $16 $-1 #
coedge $-1 $27 $68 $71 $72 forward $16 $-1 #
coedge $-1 $73 $74 $27 $43 reversed $75 $-1 #
edge $-1 $76 -44.753008257966655 $77 44.753008257966655 $42 $78 forward 7 unknown #
face $-1 $79 $80 $10 $-1 $81 reversed single #
loop $-1 $-1 $82 $28 #
plane-surface $-1 0 -25.794513270149295 5.6202658832676988 0 -1 0 0 0 -1 forward_v I I I I #
coedge $-1 $83 $84 $85 $86 reversed $29 $-1 #
coedge $-1 $87 $31 $88 $89 forward $19 $-1 #
coedge $-1 $31 $87 $90 $91 reversed $19 $-1 #
coedge $-1 $92 $93 $31 $51 forward $94 $-1 #
edge $-1 $95 8.1576328881203075 $96 27.116127875937668 $50 $97 forward 7 unknown #
face $-1 $98 $99 $11 $-1 $100 reversed single #
loop $-1 $-1 $58 $32 #
plane-surface $-1 77.183751945554974 0 0 -1 0 0 0 0 1 forward_v I I I I #
coedge $-1 $101 $102 $103 $104 reversed $33 $-1 #
coedge $-1 $105 $35 $106 $107 reversed $22 $-1 #
coedge $-1 $35 $105 $102 $108 forward $22 $-1 #
coedge $-1 $109 $110 $35 $59 forward $53 $-1 #
edge $-1 $111 -25.712540891325553 $112 -12.368393841956653 $58 $113 forward 7 unknown #
face $-1 $114 $115 $9 $-1 $116 reversed single #
loop $-1 $-1 $117 $36 #
plane-surface $-1 -77.183751945554974 0 0 1 0 0 0 0 -1 forward_v I I I I #
coedge $-1 $118 $71 $119 $120 forward $37 $-1 #
coedge $-1 $121 $39 $118 $122 forward $25 $-1 #
coedge $-1 $39 $121 $123 $124 forward $25 $-1 #
coedge $-1 $74 $73 $39 $67 reversed $75 $-1 #
edge $-1 $125 -44.753008257966655 $126 44.753008257966655 $66 $127 forward 7 unknown #
coedge $-1 $41 $40 $128 $129 forward $16 $-1 #
coedge $-1 $130 $131 $40 $70 reversed $115 $-1 #
edge $-1 $77 -77.183751945554974 $132 77.183751945554974 $69 $133 forward 7 unknown #
coedge $-1 $63 $134 $41 $72 reversed $37 $-1 #
edge $-1 $135 -77.183751945554974 $76 77.183751945554974 $71 $136 forward 7 unknown #
coedge $-1 $66 $42 $134 $137 forward $75 $-1 #
coedge $-1 $42 $66 $130 $138 reversed $75 $-1 #
loop $-1 $-1 $73 $114 #
vertex $-1 $43 $139 #
vertex $-1 $43 $140 #
straight-curve $-1 77.183751945554974 0 17.166678694857108 0 1 0 I I #
face $-1 $141 $142 $10 $-1 $143 reversed single #
loop $-1 $-1 $144 $44 #
plane-surface $-1 -77.183751945554974 0 0 1 0 0 0 0 -1 forward_v I I I I #
coedge $-1 $145 $88 $93 $146 reversed $45 $-1 #
coedge $-1 $147 $47 $148 $149 reversed $29 $-1 #
coedge $-1 $47 $147 $145 $150 forward $29 $-1 #
coedge $-1 $93 $92 $47 $86 forward $94 $-1 #
edge $-1 $151 -27.116127875937668 $152 -8.1576328881203075 $85 $153 forward 7 unknown #
coedge $-1 $49 $48 $144 $154 reversed $19 $-1 #
coedge $-1 $82 $155 $48 $89 reversed $45 $-1 #
edge $-1 $95 -77.183751945554974 $156 77.183751945554974 $88 $157 forward 7 unknown #
coedge $-1 $158 $159 $49 $91 forward $142 $-1 #
edge $-1 $96 -77.183751945554974 $160 77.183751945554974 $90 $161 forward 7 unknown #
coedge $-1 $85 $50 $159 $162 forward $94 $-1 #
coedge $-1 $50 $85 $82 $146 forward $94 $-1 #
loop $-1 $-1 $50 $141 #
vertex $-1 $51 $163 #
vertex $-1 $162 $164 #
straight-curve $-1 77.183751945554974 -17.636880382028988 9.9365327298914146 0 -1 0 I I #
face $-1 $165 $166 $11 $-1 $167 reversed single #
loop $-1 $-1 $168 $52 #
plane-surface $-1 0 0 -17.166678694857108 0 0 1 1 0 0 forward_v I I I I #
coedge $-1 $169 $55 $168 $170 reversed $33 $-1 #
coedge $-1 $55 $169 $57 $108 reversed $33 $-1 #
coedge $-1 $171 $172 $55 $104 forward $166 $-1 #
edge $-1 $173 -9.8808074745609851 $174 -4.6909349660312607 $103 $175 forward 7 unknown #
coedge $-1 $57 $56 $171 $176 reversed $22 $-1 #
coedge $-1 $177 $178 $56 $107 forward $179 $-1 #
edge $-1 $180 -77.183751945554974 $111 77.183751945554974 $106 $181 forward 7 unknown #
edge $-1 $174 -77.183751945554974 $112 77.183751945554974 $102 $182 forward 7 unknown #
coedge $-1 $183 $58 $169 $184 forward $53 $-1 #
coedge $-1 $58 $183 $177 $185 reversed $53 $-1 #
vertex $-1 $185 $186 #
vertex $-1 $59 $187 #
straight-curve $-1 77.183751945554974 19.040467366641103 -11.976806186327384 0 -1 0 I I #
face $-1 $-1 $75 $9 $-1 $188 reversed single #
loop $-1 $-1 $130 $60 #
plane-surface $-1 0 44.753008257966655 0 0 -1 0 0 0 -1 forward_v I I I I #
coedge $-1 $189 $128 $131 $190 forward $61 $-1 #
coedge $-1 $134 $63 $64 $122 reversed $37 $-1 #
coedge $-1 $128 $189 $63 $120 reversed $61 $-1 #
edge $-1 $135 -17.166678694857108 $191 17.166678694857108 $119 $192 forward 7 unknown #
coedge $-1 $65 $64 $189 $193 forward $25 $-1 #
edge $-1 $126 -77.183751945554974 $191 77.183751945554974 $118 $194 forward 7 unknown #
coedge $-1 $131 $130 $65 $124 reversed $115 $-1 #
edge $-1 $195 -77.183751945554974 $125 77.183751945554974 $123 $196 forward 7 unknown #
vertex $-1 $67 $197 #
vertex $-1 $137 $198 #
straight-curve $-1 77.183751945554974 0 -17.166678694857108 0 -1 0 I I #
coedge $-1 $117 $119 $68 $129 reversed $61 $-1 #
edge $-1 $132 -44.753008257966655 $135 44.753008257966655 $128 $199 forward 7 unknown #
coedge $-1 $123 $69 $74 $138 forward $115 $-1 #
coedge $-1 $69 $123 $117 $190 reversed $115 $-1 #
vertex $-1 $70 $200 #
straight-curve $-1 0 44.753008257966655 17.166678694857108 -1 0 0 I I #
coedge $-1 $71 $118 $73 $137 reversed $37 $-1 #
vertex $-1 $129 $201 #
straight-curve $-1 0 -44.753008257966655 17.166678694857108 1 0 0 I I #
edge $-1 $76 -17.166678694857108 $126 17.166678694857108 $73 $202 forward 7 unknown #
edge $-1 $77 -17.166678694857108 $125 17.166678694857108 $74 $203 forward 7 unknown #
point $-1 77.183751945554974 -44.753008257966655 17.166678694857108 #
point $-1 77.183751945554974 44.753008257966655 17.166678694857108 #
face $-1 $-1 $94 $10 $-1 $204 reversed single #
loop $-1 $-1 $90 $79 #
plane-surface $-1 0 -44.753008257966655 0 0 1 0 0 0 1 forward_v I I I I #
coedge $-1 $205 $206 $87 $154 forward $80 $-1 #
coedge $-1 $155 $82 $84 $150 reversed $45 $-1 #
edge $-1 $152 -1.5061339049898663 $95 7.1263997882575651 $93 $207 forward 7 unknown #
coedge $-1 $84 $83 $208 $209 reversed $29 $-1 #
coedge $-1 $159 $158 $83 $149 forward $142 $-1 #
edge $-1 $210 -77.183751945554974 $151 77.183751945554974 $148 $211 forward 7 unknown #
edge $-1 $212 -77.183751945554974 $152 77.183751945554974 $145 $213 forward 7 unknown #
vertex $-1 $149 $214 #
vertex $-1 $86 $215 #
straight-curve $-1 77.183751945554974 -17.636880382028988 1.3039990366439831 0 1 0 I I #
edge $-1 $160 -27.116127875937668 $156 -8.1576328881203075 $144 $216 forward 7 unknown #
coedge $-1 $88 $145 $205 $217 reversed $45 $-1 #
vertex $-1 $154 $218 #
straight-curve $-1 0 -25.794513270149295 9.9365327298914146 -1 0 0 I I #
coedge $-1 $148 $90 $206 $219 forward $142 $-1 #
coedge $-1 $90 $148 $92 $162 reversed $142 $-1 #
vertex $-1 $219 $220 #
straight-curve $-1 0 -44.753008257966655 9.9365327298914146 -1 0 0 I I #
edge $-1 $96 -9.9365327298914146 $151 -1.3039990366439831 $92 $221 forward 7 unknown #
point $-1 77.183751945554974 -25.794513270149295 9.9365327298914146 #
point $-1 77.183751945554974 -44.753008257966655 9.9365327298914146 #
face $-1 $-1 $179 $11 $-1 $222 reversed single #
loop $-1 $-1 $171 $98 #
plane-surface $-1 -77.183751945554974 0 0 1 0 0 0 0 -1 forward_v I I I I #
coedge $-1 $223 $224 $101 $170 forward $99 $-1 #
coedge $-1 $102 $101 $109 $184 reversed $33 $-1 #
edge $-1 $225 -77.183751945554974 $173 77.183751945554974 $168 $226 forward 7 unknown #
coedge $-1 $227 $103 $105 $176 forward $166 $-1 #
coedge $-1 $103 $227 $223 $228 reversed $166 $-1 #
vertex $-1 $228 $229 #
vertex $-1 $176 $230 #
straight-curve $-1 -77.183751945554974 31.408861208597756 -7.2858712202961229 0 0 1 I I #
edge $-1 $174 12.368393841956653 $180 25.712540891325553 $171 $231 forward 7 unknown #
coedge $-1 $232 $106 $110 $185 forward $179 $-1 #
coedge $-1 $106 $232 $227 $233 reversed $179 $-1 #
loop $-1 $-1 $106 $165 #
vertex $-1 $233 $234 #
straight-curve $-1 0 44.753008257966655 -11.976806186327384 1 0 0 I I #
straight-curve $-1 0 31.408861208597756 -11.976806186327384 1 0 0 I I #
coedge $-1 $110 $109 $224 $235 reversed $53 $-1 #
edge $-1 $112 4.6909349660312607 $225 9.8808074745609851 $109 $236 forward 7 unknown #
edge $-1 $111 11.976806186327384 $237 17.166678694857108 $110 $238 forward 7 unknown #
point $-1 77.183751945554974 44.753008257966655 -11.976806186327384 #
point $-1 77.183751945554974 31.408861208597756 -11.976806186327384 #
plane-surface $-1 77.183751945554974 0 0 -1 0 0 0 0 1 forward_v I I I I #
coedge $-1 $119 $117 $121 $193 reversed $61 $-1 #
edge $-1 $132 -17.166678694857108 $195 17.166678694857108 $131 $239 forward 7 unknown #
vertex $-1 $193 $240 #
straight-curve $-1 -77.183751945554974 -44.753008257966655 0 0 0 -1 I I #
edge $-1 $191 -44.753008257966655 $195 44.753008257966655 $189 $241 forward 7 unknown #
straight-curve $-1 0 -44.753008257966655 -17.166678694857108 -1 0 0 I I #
vertex $-1 $124 $242 #
straight-curve $-1 0 44.753008257966655 -17.166678694857108 1 0 0 I I #
point $-1 77.183751945554974 44.753008257966655 -17.166678694857108 #
point $-1 77.183751945554974 -44.753008257966655 -17.166678694857108 #
straight-curve $-1 -77.183751945554974 0 17.166678694857108 0 -1 0 I I #
point $-1 -77.183751945554974 44.753008257966655 17.166678694857108 #
point $-1 -77.183751945554974 -44.753008257966655 17.166678694857108 #
straight-curve $-1 77.183751945554974 -44.753008257966655 0 0 0 -1 I I #
straight-curve $-1 77.183751945554974 44.753008257966655 0 0 0 -1 I I #
plane-surface $-1 77.183751945554974 0 0 -1 0 0 0 0 1 forward_v I I I I #
coedge $-1 $208 $144 $155 $217 forward $80 $-1 #
coedge $-1 $144 $208 $158 $219 reversed $80 $-1 #
straight-curve $-1 77.183751945554974 -25.794513270149295 2.8101329416338494 0 0 1 I I #
coedge $-1 $206 $205 $147 $209 forward $80 $-1 #
edge $-1 $212 8.1576328881203075 $210 27.116127875937668 $208 $243 forward 7 unknown #
vertex $-1 $149 $244 #
straight-curve $-1 0 -44.753008257966655 1.3039990366439831 1 0 0 I I #
vertex $-1 $209 $245 #
straight-curve $-1 0 -25.794513270149295 1.3039990366439831 1 0 0 I I #
point $-1 77.183751945554974 -44.753008257966655 1.3039990366439831 #
point $-1 77.183751945554974 -25.794513270149295 1.3039990366439831 #
straight-curve $-1 -77.183751945554974 -17.636880382028988 9.9365327298914146 0 1 0 I I #
edge $-1 $156 -7.1263997882575651 $212 1.5061339049898663 $205 $246 forward 7 unknown #
point $-1 -77.183751945554974 -25.794513270149295 9.9365327298914146 #
edge $-1 $160 -9.9365327298914146 $210 -1.3039990366439831 $206 $247 forward 7 unknown #
point $-1 -77.183751945554974 -44.753008257966655 9.9365327298914146 #
straight-curve $-1 77.183751945554974 -44.753008257966655 0 0 0 -1 I I #
plane-surface $-1 0 44.753008257966655 0 0 -1 0 0 0 -1 forward_v I I I I #
coedge $-1 $248 $168 $172 $228 forward $99 $-1 #
coedge $-1 $168 $248 $183 $235 forward $99 $-1 #
vertex $-1 $170 $249 #
straight-curve $-1 0 31.408861208597756 -17.166678694857108 -1 0 0 I I #
coedge $-1 $172 $171 $178 $233 forward $166 $-1 #
edge $-1 $173 31.408861208597756 $250 44.753008257966655 $172 $251 forward 7 unknown #
point $-1 -77.183751945554974 31.408861208597756 -17.166678694857108 #
point $-1 -77.183751945554974 31.408861208597756 -11.976806186327384 #
straight-curve $-1 -77.183751945554974 19.040467366641103 -11.976806186327384 0 1 0 I I #
coedge $-1 $178 $177 $248 $252 reversed $179 $-1 #
edge $-1 $180 11.976806186327384 $250 17.166678694857108 $178 $253 forward 7 unknown #
point $-1 -77.183751945554974 44.753008257966655 -11.976806186327384 #
edge $-1 $237 -44.753008257966655 $225 -31.408861208597756 $183 $254 forward 7 unknown #
straight-curve $-1 77.183751945554974 31.408861208597756 -7.2858712202961229 0 0 -1 I I #
vertex $-1 $235 $255 #
straight-curve $-1 77.183751945554974 44.753008257966655 0 0 0 -1 I I #
straight-curve $-1 -77.183751945554974 44.753008257966655 0 0 0 -1 I I #
point $-1 -77.183751945554974 -44.753008257966655 -17.166678694857108 #
straight-curve $-1 -77.183751945554974 0 -17.166678694857108 0 1 0 I I #
point $-1 -77.183751945554974 44.753008257966655 -17.166678694857108 #
straight-curve $-1 -77.183751945554974 -17.636880382028988 1.3039990366439831 0 -1 0 I I #
point $-1 -77.183751945554974 -44.753008257966655 1.3039990366439831 #
point $-1 -77.183751945554974 -25.794513270149295 1.3039990366439831 #
straight-curve $-1 -77.183751945554974 -25.794513270149295 2.8101329416338494 0 0 -1 I I #
straight-curve $-1 -77.183751945554974 -44.753008257966655 0 0 0 -1 I I #
coedge $-1 $224 $223 $232 $252 forward $99 $-1 #
point $-1 77.183751945554974 31.408861208597756 -17.166678694857108 #
vertex $-1 $252 $256 #
straight-curve $-1 -77.183751945554974 0 -17.166678694857108 0 1 0 I I #
edge $-1 $250 -77.183751945554974 $237 77.183751945554974 $232 $257 forward 7 unknown #
straight-curve $-1 -77.183751945554974 44.753008257966655 0 0 0 -1 I I #
straight-curve $-1 77.183751945554974 0 -17.166678694857108 0 -1 0 I I #
point $-1 77.183751945554974 44.753008257966655 -17.166678694857108 #
point $-1 -77.183751945554974 44.753008257966655 -17.166678694857108 #
straight-curve $-1 0 44.753008257966655 -17.166678694857108 1 0 0 I I #
End-of-ACIS-data 