500 0 12 0           
7 Unknown 11 ACIS 5.0 NT 24 Fri Mar 26 01:57:49 1999 
-1 9.9999999999999995e-007 1e-010 
body $-1 $12 $-1 $13 #
body $-1 $14 $-1 $15 #
body $-1 $16 $-1 $17 #
body $-1 $18 $-1 $19 #
body $-1 $20 $-1 $21 #
body $-1 $22 $-1 $23 #
body $-1 $24 $-1 $25 #
body $-1 $26 $-1 $27 #
body $-1 $28 $-1 $29 #
body $-1 $30 $-1 $31 #
body $-1 $32 $-1 $33 #
body $-1 $34 $-1 $35 #
lump $-1 $-1 $36 $0 #
transform $-1 1 0 0 0 1 0 0 0 1 55.341044343394266 26.956444180169466 10.11975205251267 1 rotate no_reflect no_shear #
lump $-1 $-1 $37 $1 #
transform $-1 1 0 0 0 1 0 0 0 1 55.341044343394266 26.956444180169466 10.11975205251267 1 rotate no_reflect no_shear #
lump $-1 $-1 $38 $2 #
transform $-1 1 0 0 0 1 0 0 0 1 55.341044343394266 26.956444180169466 10.11975205251267 1 rotate no_reflect no_shear #
lump $-1 $-1 $39 $3 #
transform $-1 1 0 0 0 1 0 0 0 1 55.341044343394266 26.956444180169466 10.11975205251267 1 rotate no_reflect no_shear #
lump $-1 $-1 $40 $4 #
transform $-1 1 0 0 0 1 0 0 0 1 55.341044343394266 26.956444180169466 10.11975205251267 1 rotate no_reflect no_shear #
lump $-1 $-1 $41 $5 #
transform $-1 1 0 0 0 1 0 0 0 1 55.341044343394266 26.956444180169466 10.11975205251267 1 rotate no_reflect no_shear #
lump $-1 $-1 $42 $6 #
transform $-1 1 0 0 0 1 0 0 0 1 55.341044343394266 26.956444180169466 10.11975205251267 1 rotate no_reflect no_shear #
lump $-1 $-1 $43 $7 #
transform $-1 1 0 0 0 1 0 0 0 1 55.341044343394266 26.956444180169466 10.11975205251267 1 rotate no_reflect no_shear #
lump $-1 $-1 $44 $8 #
transform $-1 1 0 0 0 1 0 0 0 1 55.341044343394266 26.956444180169466 10.11975205251267 1 rotate no_reflect no_shear #
lump $-1 $-1 $45 $9 #
transform $-1 1 0 0 0 1 0 0 0 1 55.341044343394266 26.956444180169466 10.11975205251267 1 rotate no_reflect no_shear #
lump $-1 $-1 $46 $10 #
transform $-1 1 0 0 0 1 0 0 0 1 55.341044343394266 26.956444180169466 10.11975205251267 1 rotate no_reflect no_shear #
lump $-1 $-1 $47 $11 #
transform $-1 1 0 0 0 1 0 0 0 1 55.341044343394266 26.956444180169466 10.11975205251267 1 rotate no_reflect no_shear #
shell $-1 $-1 $-1 $48 $-1 $12 #
shell $-1 $-1 $-1 $49 $-1 $14 #
shell $-1 $-1 $-1 $50 $-1 $16 #
shell $-1 $-1 $-1 $51 $-1 $18 #
shell $-1 $-1 $-1 $52 $-1 $20 #
shell $-1 $-1 $-1 $53 $-1 $22 #
shell $-1 $-1 $-1 $54 $-1 $24 #
shell $-1 $-1 $-1 $55 $-1 $26 #
shell $-1 $-1 $-1 $56 $-1 $28 #
shell $-1 $-1 $-1 $57 $-1 $30 #
shell $-1 $-1 $-1 $58 $-1 $32 #
shell $-1 $-1 $-1 $59 $-1 $34 #
face $-1 $60 $61 $36 $-1 $62 forward single #
face $-1 $63 $64 $37 $-1 $65 forward single #
face $-1 $66 $67 $38 $-1 $68 reversed single #
face $-1 $69 $70 $39 $-1 $71 forward single #
face $-1 $72 $73 $40 $-1 $74 reversed single #
face $-1 $75 $76 $41 $-1 $77 forward single #
face $-1 $78 $79 $42 $-1 $80 forward single #
face $-1 $81 $82 $43 $-1 $83 forward single #
face $-1 $84 $85 $44 $-1 $86 reversed single #
face $-1 $87 $88 $45 $-1 $89 forward single #
face $-1 $90 $91 $46 $-1 $92 forward single #
face $-1 $93 $94 $47 $-1 $95 forward single #
face $-1 $96 $97 $36 $-1 $98 reversed single #
loop $-1 $-1 $99 $48 #
plane-surface $-1 0 0 10.11975205251267 0 0 1 1 0 0 forward_v I I I I #
face $-1 $100 $101 $37 $-1 $102 reversed single #
loop $-1 $-1 $103 $49 #
plane-surface $-1 0 -22.377613858416847 3.616478444631984 0 0 1 1 0 0 forward_v I I I I #
face $-1 $104 $105 $38 $-1 $106 reversed single #
loop $-1 $-1 $107 $50 #
plane-surface $-1 -146.00650445762167 3.0454404406718467 66.3099834300602 0 1 0 -0.81915205242281985 0 0.57357642473473569 forward_v I I I I #
face $-1 $108 $109 $39 $-1 $110 forward single #
loop $-1 $111 $112 $51 #
cone-surface $-1 -50.892554947324548 8.8139432626676673 5.1458727343123583 0.81915205242281985 0 -0.57357642473473569 0.86036463710210354 0 1.2287280786342298 1 I I 0 1 1.5 forward I I I I #
face $-1 $113 $114 $40 $-1 $115 reversed single #
loop $-1 $-1 $116 $52 #
plane-surface $-1 30.854654480901907 -8.4521813571606828 161.65642629408279 0 -1 0 -0.5877852598018023 0 -0.80901698891910034 forward_v I I I I #
face $-1 $117 $118 $41 $-1 $119 forward single #
loop $-1 $120 $121 $53 #
cone-surface $-1 52.901431404088171 -13.302728162538145 8.1323166960505855 -0.5877852598018023 0 -0.80901698891910034 0.40450849445955017 0 -0.29389262990090115 1 I I 0 1 0.5 forward I I I I #
face $-1 $122 $123 $42 $-1 $124 forward single #
loop $-1 $125 $126 $54 #
cone-surface $-1 52.901431404088171 -11.483773110521597 8.1323166960505855 -0.5877852598018023 0 -0.80901698891910034 0.40450849445955017 0 -0.29389262990090115 1 I I 0 1 0.5 forward I I I I #
face $-1 $127 $128 $43 $-1 $129 forward single #
loop $-1 $130 $131 $55 #
cone-surface $-1 52.901431404088171 -9.6648180585050483 8.1323166960505855 -0.5877852598018023 0 -0.80901698891910034 0.40450849445955017 0 -0.29389262990090115 1 I I 0 1 0.5 forward I I I I #
face $-1 $132 $133 $44 $-1 $134 reversed single #
loop $-1 $-1 $135 $56 #
plane-surface $-1 30.854654480901907 13.925432501256164 161.65642629408279 0 -1 0 -0.5877852598018023 0 -0.80901698891910034 forward_v I I I I #
face $-1 $136 $137 $45 $-1 $138 forward single #
loop $-1 $139 $140 $57 #
cone-surface $-1 52.901431404088171 9.0748856958787023 8.1323166960505855 -0.5877852598018023 0 -0.80901698891910034 0.40450849445955017 0 -0.29389262990090115 1 I I 0 1 0.5 forward I I I I #
face $-1 $141 $142 $46 $-1 $143 forward single #
loop $-1 $144 $145 $58 #
cone-surface $-1 52.901431404088171 10.893840747895251 8.1323166960505855 -0.5877852598018023 0 -0.80901698891910034 0.40450849445955017 0 -0.29389262990090115 1 I I 0 1 0.5 forward I I I I #
face $-1 $146 $147 $47 $-1 $148 forward single #
loop $-1 $149 $150 $59 #
cone-surface $-1 52.901431404088171 12.712795799911799 8.1323166960505855 -0.5877852598018023 0 -0.80901698891910034 0.40450849445955017 0 -0.29389262990090115 1 I I 0 1 0.5 forward I I I I #
face $-1 $151 $152 $36 $-1 $153 reversed single #
loop $-1 $-1 $154 $60 #
plane-surface $-1 0 0 -10.11975205251267 0 0 1 1 0 0 forward_v I I I I #
coedge $-1 $155 $156 $157 $158 forward $61 $-1 #
face $-1 $159 $160 $37 $-1 $161 reversed single #
loop $-1 $-1 $162 $63 #
plane-surface $-1 0 -22.377613858416847 -2.1367737019007333 0 0 1 1 0 0 forward_v I I I I #
coedge $-1 $163 $164 $165 $166 reversed $64 $-1 #
face $-1 $167 $168 $38 $-1 $169 reversed single #
loop $-1 $-1 $170 $66 #
plane-surface $-1 -55.341044343394287 8.8139432626676673 2.825346718919107 -0.81915205242281985 0 0.57357642473473569 0.57357642473473569 0 0.81915205242281985 forward_v I I I I #
coedge $-1 $171 $172 $173 $174 reversed $67 $-1 #
face $-1 $-1 $175 $39 $-1 $176 forward single #
loop $-1 $177 $178 $69 #
cone-surface $-1 -48.383500235528643 8.8139432626676673 3.3890137643577773 0.81915205242281985 0 -0.57357642473473569 0.43018231855105177 0 0.61436403931711492 1 I I -0.70710678118654757 0.70710678118654757 0.75 forward I I I I #
loop $-1 $-1 $179 $51 #
coedge $-1 $112 $112 $180 $181 reversed $70 $-1 #
face $-1 $182 $183 $40 $-1 $184 reversed single #
loop $-1 $-1 $185 $72 #
plane-surface $-1 -34.202645773268209 -11.483773110521597 72.112736177420317 0.5877852598018023 0 0.80901698891910034 0.80901698891910034 0 -0.5877852598018023 forward_v I I I I #
coedge $-1 $186 $187 $188 $189 reversed $73 $-1 #
face $-1 $-1 $190 $41 $-1 $191 forward single #
loop $-1 $192 $193 $75 #
cone-surface $-1 52.423706768130906 -13.302728162538145 7.4747851569899773 -0.5877852598018023 0 -0.80901698891910034 0.20225424722977509 0 -0.14694631495045057 1 I I -0.70710678118654746 0.70710678118654746 0.25 forward I I I I #
loop $-1 $-1 $194 $53 #
coedge $-1 $121 $121 $195 $196 reversed $76 $-1 #
face $-1 $-1 $197 $42 $-1 $198 forward single #
loop $-1 $199 $200 $78 #
cone-surface $-1 52.423706768130906 -11.483773110521597 7.4747851569899773 -0.5877852598018023 0 -0.80901698891910034 0.20225424722977509 0 -0.14694631495045057 1 I I -0.70710678118654746 0.70710678118654746 0.25 forward I I I I #
loop $-1 $-1 $201 $54 #
coedge $-1 $126 $126 $202 $203 reversed $79 $-1 #
face $-1 $-1 $204 $43 $-1 $205 forward single #
loop $-1 $206 $207 $81 #
cone-surface $-1 52.423706768130906 -9.6648180585050483 7.4747851569899773 -0.5877852598018023 0 -0.80901698891910034 0.20225424722977509 0 -0.14694631495045057 1 I I -0.70710678118654746 0.70710678118654746 0.25 forward I I I I #
loop $-1 $-1 $208 $55 #
coedge $-1 $131 $131 $209 $210 reversed $82 $-1 #
face $-1 $211 $212 $44 $-1 $213 reversed single #
loop $-1 $-1 $214 $84 #
plane-surface $-1 -34.202645773268209 10.893840747895251 72.112736177420317 0.5877852598018023 0 0.80901698891910034 0.80901698891910034 0 -0.5877852598018023 forward_v I I I I #
coedge $-1 $215 $216 $217 $218 reversed $85 $-1 #
face $-1 $-1 $219 $45 $-1 $220 forward single #
loop $-1 $221 $222 $87 #
cone-surface $-1 52.423706768130906 9.0748856958787023 7.4747851569899773 -0.5877852598018023 0 -0.80901698891910034 0.20225424722977509 0 -0.14694631495045057 1 I I -0.70710678118654746 0.70710678118654746 0.25 forward I I I I #
loop $-1 $-1 $223 $57 #
coedge $-1 $140 $140 $224 $225 reversed $88 $-1 #
face $-1 $-1 $226 $46 $-1 $227 forward single #
loop $-1 $228 $229 $90 #
cone-surface $-1 52.423706768130906 10.893840747895251 7.4747851569899773 -0.5877852598018023 0 -0.80901698891910034 0.20225424722977509 0 -0.14694631495045057 1 I I -0.70710678118654746 0.70710678118654746 0.25 forward I I I I #
loop $-1 $-1 $230 $58 #
coedge $-1 $145 $145 $231 $232 reversed $91 $-1 #
face $-1 $-1 $233 $47 $-1 $234 forward single #
loop $-1 $235 $236 $93 #
cone-surface $-1 52.423706768130906 12.712795799911799 7.4747851569899773 -0.5877852598018023 0 -0.80901698891910034 0.20225424722977509 0 -0.14694631495045057 1 I I -0.70710678118654746 0.70710678118654746 0.25 forward I I I I #
loop $-1 $-1 $237 $59 #
coedge $-1 $150 $150 $238 $239 reversed $94 $-1 #
face $-1 $240 $241 $36 $-1 $242 reversed single #
loop $-1 $-1 $243 $96 #
plane-surface $-1 0 -26.956444180169466 0 0 1 0 0 0 1 forward_v I I I I #
coedge $-1 $244 $245 $246 $247 forward $97 $-1 #
coedge $-1 $248 $99 $249 $250 forward $61 $-1 #
coedge $-1 $99 $248 $251 $252 forward $61 $-1 #
coedge $-1 $253 $254 $99 $158 reversed $255 $-1 #
edge $-1 $256 -26.956444180169466 $257 26.956444180169466 $157 $258 forward 7 unknown #
face $-1 $259 $260 $37 $-1 $261 reversed single #
loop $-1 $-1 $262 $100 #
plane-surface $-1 0 -17.798783536664228 0.73985237136562532 0 -1 0 0 0 -1 forward_v I I I I #
coedge $-1 $263 $264 $265 $266 reversed $101 $-1 #
coedge $-1 $267 $103 $268 $269 forward $64 $-1 #
coedge $-1 $103 $267 $270 $271 reversed $64 $-1 #
coedge $-1 $272 $273 $103 $166 forward $274 $-1 #
edge $-1 $275 6.6099766074558044 $276 15.767637250961043 $165 $277 forward 7 unknown #
face $-1 $278 $279 $38 $-1 $280 reversed single #
loop $-1 $-1 $281 $104 #
plane-surface $-1 -146.00650445762167 14.582446084663488 66.3099834300602 0 -1 0 0.81915205242281985 0 -0.57357642473473569 forward_v I I I I #
coedge $-1 $282 $283 $284 $285 reversed $105 $-1 #
coedge $-1 $172 $107 $286 $287 reversed $67 $-1 #
coedge $-1 $107 $171 $282 $288 reversed $67 $-1 #
coedge $-1 $284 $289 $107 $174 forward $290 $-1 #
edge $-1 $291 17.662207885416571 $292 22.769805332598416 $173 $293 forward 7 unknown #
loop $-1 $-1 $180 $108 #
plane-surface $-1 -55.341044343394287 8.8139432626676673 2.825346718919107 -0.81915205242281985 0 0.57357642473473569 0.57357642473473569 0 0.81915205242281985 forward_v I I I I #
loop $-1 $-1 $294 $69 #
coedge $-1 $178 $178 $179 $295 reversed $109 $-1 #
coedge $-1 $179 $179 $178 $295 forward $111 $-1 #
coedge $-1 $180 $180 $112 $181 forward $175 $-1 #
edge $-1 $296 0 $296 6.2831853071796004 $180 $297 forward 7 unknown #
face $-1 $298 $299 $40 $-1 $300 forward single #
loop $-1 $-1 $301 $113 #
plane-surface $-1 30.854654480901907 -14.51536486388251 161.65642629408279 0 1 0 0.5877852598018023 0 0.80901698891910034 forward_v I I I I #
coedge $-1 $302 $303 $304 $305 reversed $114 $-1 #
coedge $-1 $187 $116 $306 $307 reversed $73 $-1 #
coedge $-1 $116 $186 $302 $308 reversed $73 $-1 #
coedge $-1 $304 $309 $116 $189 forward $299 $-1 #
edge $-1 $310 -39.913717102943309 $311 -35.696047866344756 $188 $312 forward 7 unknown #
loop $-1 $-1 $195 $117 #
plane-surface $-1 -34.202645773268209 -11.483773110521597 72.112736177420317 0.5877852598018023 0 0.80901698891910034 0.80901698891910034 0 -0.5877852598018023 forward_v I I I I #
loop $-1 $-1 $313 $75 #
coedge $-1 $193 $193 $194 $314 reversed $118 $-1 #
coedge $-1 $194 $194 $193 $314 forward $120 $-1 #
coedge $-1 $195 $195 $121 $196 forward $190 $-1 #
edge $-1 $315 0 $315 6.2831853071796004 $195 $316 forward 7 unknown #
loop $-1 $-1 $202 $122 #
plane-surface $-1 -34.202645773268209 -11.483773110521597 72.112736177420317 0.5877852598018023 0 0.80901698891910034 0.80901698891910034 0 -0.5877852598018023 forward_v I I I I #
loop $-1 $-1 $317 $78 #
coedge $-1 $200 $200 $201 $318 reversed $123 $-1 #
coedge $-1 $201 $201 $200 $318 forward $125 $-1 #
coedge $-1 $202 $202 $126 $203 forward $197 $-1 #
edge $-1 $319 0 $319 6.2831853071796004 $202 $320 forward 7 unknown #
loop $-1 $-1 $209 $127 #
plane-surface $-1 -34.202645773268209 -11.483773110521597 72.112736177420317 0.5877852598018023 0 0.80901698891910034 0.80901698891910034 0 -0.5877852598018023 forward_v I I I I #
loop $-1 $-1 $321 $81 #
coedge $-1 $207 $207 $208 $322 reversed $128 $-1 #
coedge $-1 $208 $208 $207 $322 forward $130 $-1 #
coedge $-1 $209 $209 $131 $210 forward $204 $-1 #
edge $-1 $323 0 $323 6.2831853071796004 $209 $324 forward 7 unknown #
face $-1 $325 $326 $44 $-1 $327 reversed single #
loop $-1 $-1 $328 $132 #
plane-surface $-1 30.854654480901907 7.8622489945343368 161.65642629408279 0 1 0 0.5877852598018023 0 0.80901698891910034 forward_v I I I I #
coedge $-1 $329 $330 $331 $332 reversed $133 $-1 #
coedge $-1 $216 $135 $333 $334 reversed $85 $-1 #
coedge $-1 $135 $215 $329 $335 reversed $85 $-1 #
coedge $-1 $331 $336 $135 $218 forward $337 $-1 #
edge $-1 $338 -39.913717102943309 $339 -35.696047866344756 $217 $340 forward 7 unknown #
loop $-1 $-1 $224 $136 #
plane-surface $-1 -34.202645773268209 10.893840747895251 72.112736177420317 0.5877852598018023 0 0.80901698891910034 0.80901698891910034 0 -0.5877852598018023 forward_v I I I I #
loop $-1 $-1 $341 $87 #
coedge $-1 $222 $222 $223 $342 reversed $137 $-1 #
coedge $-1 $223 $223 $222 $342 forward $139 $-1 #
coedge $-1 $224 $224 $140 $225 forward $219 $-1 #
edge $-1 $343 0 $343 6.2831853071796004 $224 $344 forward 7 unknown #
loop $-1 $-1 $231 $141 #
plane-surface $-1 -34.202645773268209 10.893840747895251 72.112736177420317 0.5877852598018023 0 0.80901698891910034 0.80901698891910034 0 -0.5877852598018023 forward_v I I I I #
loop $-1 $-1 $345 $90 #
coedge $-1 $229 $229 $230 $346 reversed $142 $-1 #
coedge $-1 $230 $230 $229 $346 forward $144 $-1 #
coedge $-1 $231 $231 $145 $232 forward $226 $-1 #
edge $-1 $347 0 $347 6.2831853071796004 $231 $348 forward 7 unknown #
loop $-1 $-1 $238 $146 #
plane-surface $-1 -34.202645773268209 10.893840747895251 72.112736177420317 0.5877852598018023 0 0.80901698891910034 0.80901698891910034 0 -0.5877852598018023 forward_v I I I I #
loop $-1 $-1 $349 $93 #
coedge $-1 $236 $236 $237 $350 reversed $147 $-1 #
coedge $-1 $237 $237 $236 $350 forward $149 $-1 #
coedge $-1 $238 $238 $150 $239 forward $233 $-1 #
edge $-1 $351 0 $351 6.2831853071796004 $238 $352 forward 7 unknown #
face $-1 $353 $354 $36 $-1 $355 reversed single #
loop $-1 $-1 $356 $151 #
plane-surface $-1 -55.341044343394266 0 0 1 0 0 0 0 -1 forward_v I I I I #
coedge $-1 $357 $251 $358 $359 forward $152 $-1 #
coedge $-1 $360 $154 $357 $361 forward $97 $-1 #
coedge $-1 $154 $360 $362 $363 forward $97 $-1 #
coedge $-1 $254 $253 $154 $247 reversed $255 $-1 #
edge $-1 $364 -26.956444180169466 $365 26.956444180169466 $246 $366 forward 7 unknown #
coedge $-1 $156 $155 $367 $368 forward $61 $-1 #
coedge $-1 $369 $370 $155 $250 reversed $354 $-1 #
edge $-1 $257 -55.341044343394266 $371 55.341044343394266 $249 $372 forward 7 unknown #
coedge $-1 $243 $373 $156 $252 reversed $152 $-1 #
edge $-1 $374 -55.341044343394266 $256 55.341044343394266 $251 $375 forward 7 unknown #
coedge $-1 $246 $157 $373 $376 forward $255 $-1 #
coedge $-1 $157 $246 $369 $377 reversed $255 $-1 #
loop $-1 $-1 $253 $353 #
vertex $-1 $158 $378 #
vertex $-1 $158 $379 #
straight-curve $-1 55.341044343394266 0 10.11975205251267 0 1 0 I I #
face $-1 $380 $381 $37 $-1 $382 reversed single #
loop $-1 $-1 $383 $159 #
plane-surface $-1 -55.341044343394266 0 0 1 0 0 0 0 -1 forward_v I I I I #
coedge $-1 $384 $268 $273 $385 reversed $160 $-1 #
coedge $-1 $386 $162 $387 $388 reversed $101 $-1 #
coedge $-1 $162 $386 $384 $389 forward $101 $-1 #
coedge $-1 $273 $272 $162 $266 forward $274 $-1 #
edge $-1 $390 -15.767637250961043 $391 -6.6099766074558044 $265 $392 forward 7 unknown #
coedge $-1 $164 $163 $383 $393 reversed $64 $-1 #
coedge $-1 $262 $394 $163 $269 reversed $160 $-1 #
edge $-1 $275 -55.341044343394266 $395 55.341044343394266 $268 $396 forward 7 unknown #
coedge $-1 $397 $398 $164 $271 forward $381 $-1 #
edge $-1 $276 -55.341044343394266 $399 55.341044343394266 $270 $400 forward 7 unknown #
coedge $-1 $265 $165 $398 $401 forward $274 $-1 #
coedge $-1 $165 $265 $262 $385 forward $274 $-1 #
loop $-1 $-1 $165 $380 #
vertex $-1 $166 $402 #
vertex $-1 $401 $403 #
straight-curve $-1 55.341044343394266 -11.188806929208424 3.616478444631984 0 -1 0 I I #
face $-1 $-1 $290 $38 $-1 $404 forward single #
loop $-1 $-1 $405 $167 #
plane-surface $-1 -55.341044343394266 0 0 1 0 0 0 0 -1 forward_v I I I I #
coedge $-1 $406 $407 $408 $409 reversed $168 $-1 #
coedge $-1 $410 $170 $172 $288 forward $105 $-1 #
coedge $-1 $170 $410 $406 $411 forward $105 $-1 #
coedge $-1 $408 $173 $170 $285 forward $290 $-1 #
edge $-1 $292 -1.3615311906619869 $412 10.175474453329654 $284 $413 forward 7 unknown #
coedge $-1 $414 $415 $171 $287 forward $279 $-1 #
edge $-1 $416 -30.329644996110961 $291 -23.03523966251743 $286 $417 forward 7 unknown #
edge $-1 $292 -8.9048245829559693 $416 -3.7327101411773479e-014 $172 $418 forward 7 unknown #
coedge $-1 $173 $408 $414 $419 forward $290 $-1 #
loop $-1 $-1 $408 $278 #
vertex $-1 $287 $420 #
vertex $-1 $174 $421 #
straight-curve $-1 -73.003252228810837 3.0454404406718467 10.11975205251267 1 0 0 I I #
coedge $-1 $294 $294 $-1 $422 reversed $177 $-1 #
edge $-1 $423 0 $423 6.2831853071796004 $178 $424 forward 7 unknown #
vertex $-1 $181 $425 #
ellipse-curve $-1 -52.78724561980335 8.8139432626676673 6.4725493857158964 -0.81915205242281985 0 0.57357642473473569 0.86036463710210354 0 1.2287280786342298 1 I I #
face $-1 $-1 $426 $40 $-1 $427 reversed single #
loop $-1 $-1 $188 $182 #
plane-surface $-1 0 0 10.11975205251267 0 0 1 1 0 0 forward_v I I I I #
coedge $-1 $428 $429 $430 $431 reversed $183 $-1 #
coedge $-1 $432 $185 $187 $308 forward $114 $-1 #
coedge $-1 $185 $432 $428 $433 forward $114 $-1 #
coedge $-1 $430 $188 $185 $305 forward $299 $-1 #
edge $-1 $311 2.7102948018998845 $434 8.7734783086217121 $304 $435 forward 7 unknown #
coedge $-1 $436 $437 $186 $307 forward $426 $-1 #
edge $-1 $438 -73.772777223791195 $310 -70.70846109452873 $306 $439 forward 7 unknown #
edge $-1 $311 105.46876276858544 $438 110.68208868678852 $187 $440 forward 7 unknown #
coedge $-1 $188 $430 $436 $441 forward $299 $-1 #
vertex $-1 $307 $442 #
vertex $-1 $189 $443 #
straight-curve $-1 15.427327240450953 -8.4521813571606828 10.119752052512666 -1 0 0 I I #
coedge $-1 $313 $313 $-1 $444 reversed $192 $-1 #
edge $-1 $445 0 $445 6.2831853071796004 $193 $446 forward 7 unknown #
vertex $-1 $196 $447 #
ellipse-curve $-1 53.232209725094989 -13.302728162538145 8.58759398788143 0.5877852598018023 0 0.80901698891910034 0.40450849445955017 0 -0.29389262990090115 1 I I #
coedge $-1 $317 $317 $-1 $448 reversed $199 $-1 #
edge $-1 $449 0 $449 6.2831853071796004 $200 $450 forward 7 unknown #
vertex $-1 $203 $451 #
ellipse-curve $-1 53.232209725094989 -11.483773110521597 8.58759398788143 0.5877852598018023 0 0.80901698891910034 0.40450849445955017 0 -0.29389262990090115 1 I I #
coedge $-1 $321 $321 $-1 $452 reversed $206 $-1 #
edge $-1 $453 0 $453 6.2831853071796004 $207 $454 forward 7 unknown #
vertex $-1 $210 $455 #
ellipse-curve $-1 53.232209725094989 -9.6648180585050483 8.58759398788143 0.5877852598018023 0 0.80901698891910034 0.40450849445955017 0 -0.29389262990090115 1 I I #
face $-1 $-1 $337 $44 $-1 $456 forward single #
loop $-1 $-1 $457 $211 #
plane-surface $-1 55.341044343394266 0 0 -1 0 0 0 0 1 forward_v I I I I #
coedge $-1 $458 $459 $460 $461 reversed $212 $-1 #
coedge $-1 $462 $214 $216 $335 forward $133 $-1 #
coedge $-1 $214 $462 $458 $463 forward $133 $-1 #
coedge $-1 $460 $217 $214 $332 forward $337 $-1 #
edge $-1 $339 -8.4785121273085391 $464 -2.4153286205867115 $331 $465 forward 7 unknown #
coedge $-1 $466 $467 $215 $334 forward $326 $-1 #
edge $-1 $468 -73.772777223791195 $338 -70.70846109452873 $333 $469 forward 7 unknown #
edge $-1 $339 105.46876276858544 $468 110.68208868678852 $216 $470 forward 7 unknown #
coedge $-1 $217 $460 $466 $471 forward $337 $-1 #
loop $-1 $-1 $460 $325 #
vertex $-1 $334 $472 #
vertex $-1 $218 $473 #
straight-curve $-1 15.427327240450953 13.925432501256164 10.119752052512666 -1 0 0 I I #
coedge $-1 $341 $341 $-1 $474 reversed $221 $-1 #
edge $-1 $475 0 $475 6.2831853071796004 $222 $476 forward 7 unknown #
vertex $-1 $225 $477 #
ellipse-curve $-1 53.232209725094989 9.0748856958787023 8.58759398788143 0.5877852598018023 0 0.80901698891910034 0.40450849445955017 0 -0.29389262990090115 1 I I #
coedge $-1 $345 $345 $-1 $478 reversed $228 $-1 #
edge $-1 $479 0 $479 6.2831853071796004 $229 $480 forward 7 unknown #
vertex $-1 $232 $481 #
ellipse-curve $-1 53.232209725094989 10.893840747895251 8.58759398788143 0.5877852598018023 0 0.80901698891910034 0.40450849445955017 0 -0.29389262990090115 1 I I #
coedge $-1 $349 $349 $-1 $482 reversed $235 $-1 #
edge $-1 $483 0 $483 6.2831853071796004 $236 $484 forward 7 unknown #
vertex $-1 $239 $485 #
ellipse-curve $-1 53.232209725094989 12.712795799911799 8.58759398788143 0.5877852598018023 0 0.80901698891910034 0.40450849445955017 0 -0.29389262990090115 1 I I #
face $-1 $-1 $255 $36 $-1 $486 reversed single #
loop $-1 $-1 $369 $240 #
plane-surface $-1 0 26.956444180169466 0 0 -1 0 0 0 -1 forward_v I I I I #
coedge $-1 $487 $367 $370 $488 forward $241 $-1 #
coedge $-1 $373 $243 $244 $361 reversed $152 $-1 #
coedge $-1 $367 $487 $243 $359 reversed $241 $-1 #
edge $-1 $374 -10.11975205251267 $489 10.11975205251267 $358 $490 forward 7 unknown #
coedge $-1 $245 $244 $487 $491 forward $97 $-1 #
edge $-1 $365 -55.341044343394266 $489 55.341044343394266 $357 $492 forward 7 unknown #
coedge $-1 $370 $369 $245 $363 reversed $354 $-1 #
edge $-1 $493 -55.341044343394266 $364 55.341044343394266 $362 $494 forward 7 unknown #
vertex $-1 $247 $495 #
vertex $-1 $376 $496 #
straight-curve $-1 55.341044343394266 0 -10.11975205251267 0 -1 0 I I #
coedge $-1 $356 $358 $248 $368 reversed $241 $-1 #
edge $-1 $371 -26.956444180169466 $374 26.956444180169466 $367 $497 forward 7 unknown #
coedge $-1 $362 $249 $254 $377 forward $354 $-1 #
coedge $-1 $249 $362 $356 $488 reversed $354 $-1 #
vertex $-1 $250 $498 #
straight-curve $-1 0 26.956444180169466 10.11975205251267 -1 0 0 I I #
coedge $-1 $251 $357 $253 $376 reversed $152 $-1 #
vertex $-1 $368 $499 #
straight-curve $-1 0 -26.956444180169466 10.11975205251267 1 0 0 I I #
edge $-1 $256 -10.11975205251267 $365 10.11975205251267 $253 $500 forward 7 unknown #
edge $-1 $257 -10.11975205251267 $364 10.11975205251267 $254 $501 forward 7 unknown #
point $-1 55.341044343394266 -26.956444180169466 10.11975205251267 #
point $-1 55.341044343394266 26.956444180169466 10.11975205251267 #
face $-1 $-1 $274 $37 $-1 $502 reversed single #
loop $-1 $-1 $270 $259 #
plane-surface $-1 0 -26.956444180169466 0 0 1 0 0 0 1 forward_v I I I I #
coedge $-1 $503 $504 $267 $393 forward $260 $-1 #
coedge $-1 $394 $262 $264 $389 reversed $160 $-1 #
edge $-1 $391 -2.506699887583546 $275 3.2465522589491713 $273 $505 forward 7 unknown #
coedge $-1 $264 $263 $506 $507 reversed $101 $-1 #
coedge $-1 $398 $397 $263 $388 forward $381 $-1 #
edge $-1 $508 -55.341044343394266 $390 55.341044343394266 $387 $509 forward 7 unknown #
edge $-1 $510 -55.341044343394266 $391 55.341044343394266 $384 $511 forward 7 unknown #
vertex $-1 $388 $512 #
vertex $-1 $266 $513 #
straight-curve $-1 55.341044343394266 -11.188806929208424 -2.1367737019007333 0 1 0 I I #
edge $-1 $399 -15.767637250961043 $395 -6.6099766074558044 $383 $514 forward 7 unknown #
coedge $-1 $268 $384 $503 $515 reversed $160 $-1 #
vertex $-1 $393 $516 #
straight-curve $-1 0 -17.798783536664228 3.616478444631984 -1 0 0 I I #
coedge $-1 $387 $270 $504 $517 forward $381 $-1 #
coedge $-1 $270 $387 $272 $401 reversed $381 $-1 #
vertex $-1 $517 $518 #
straight-curve $-1 0 -26.956444180169466 3.616478444631984 -1 0 0 I I #
edge $-1 $276 -3.616478444631984 $390 2.1367737019007333 $272 $519 forward 7 unknown #
point $-1 55.341044343394266 -17.798783536664228 3.616478444631984 #
point $-1 55.341044343394266 -26.956444180169466 3.616478444631984 #
plane-surface $-1 0 0 10.11975205251267 0 0 1 1 0 0 forward_v I I I I #
coedge $-1 $415 $414 $407 $520 forward $279 $-1 #
coedge $-1 $407 $281 $283 $411 reversed $168 $-1 #
coedge $-1 $281 $406 $405 $520 reversed $168 $-1 #
coedge $-1 $289 $284 $281 $409 forward $290 $-1 #
edge $-1 $412 -22.769805332598416 $521 -17.662207885416571 $408 $522 forward 7 unknown #
coedge $-1 $283 $282 $415 $523 reversed $105 $-1 #
edge $-1 $524 3.7327101411773479e-014 $412 8.9048245829559693 $406 $525 forward 7 unknown #
vertex $-1 $285 $526 #
straight-curve $-1 -50.233446896212421 4.4069716313338336 10.11975205251267 0 1 0 I I #
coedge $-1 $405 $286 $289 $419 reversed $279 $-1 #
coedge $-1 $286 $405 $410 $523 forward $279 $-1 #
vertex $-1 $287 $527 #
straight-curve $-1 -55.341044343394266 3.0454404406718467 33.1549917150301 0 0 1 I I #
straight-curve $-1 -55.341044343394287 3.0454404406718467 2.825346718919107 -0.57357642473473569 0 -0.81915205242281985 I I #
edge $-1 $521 -14.582446084663488 $291 -3.0454404406718467 $414 $528 forward 7 unknown #
point $-1 -55.341044343394266 3.0454404406718467 10.11975205251267 #
point $-1 -50.233446896212421 3.0454404406718467 10.11975205251267 #
edge $-1 $529 1 $529 0 $294 $-1 forward 7 unknown #
vertex $-1 $295 $530 #
ellipse-curve $-1 -48.99786427484576 8.8139432626676673 3.8191960829088289 -0.81915205242281985 0 0.57357642473473569 0.86036463710210354 0 1.2287280786342298 1 I I #
point $-1 -51.926880982701228 8.8139432626676673 7.7012774643501167 #
loop $-1 $-1 $306 $298 #
plane-surface $-1 55.341044343394266 0 0 -1 0 0 0 0 1 forward_v I I I I #
coedge $-1 $429 $301 $303 $433 reversed $183 $-1 #
coedge $-1 $301 $428 $531 $532 reversed $183 $-1 #
coedge $-1 $309 $304 $301 $431 forward $299 $-1 #
edge $-1 $434 35.696047866344756 $533 39.913717102943309 $430 $534 forward 7 unknown #
coedge $-1 $303 $302 $437 $535 reversed $114 $-1 #
edge $-1 $536 -110.68208868678852 $434 -105.46876276858544 $428 $537 forward 7 unknown #
vertex $-1 $305 $538 #
straight-curve $-1 51.123375106795692 -5.7418865552607983 10.119752052512673 0 -1 0 I I #
coedge $-1 $531 $306 $309 $441 reversed $426 $-1 #
coedge $-1 $306 $531 $432 $535 forward $426 $-1 #
vertex $-1 $307 $539 #
straight-curve $-1 55.341044343394266 -8.4521813571606828 80.828213147041396 0 0 1 I I #
straight-curve $-1 -34.202645773268209 -8.4521813571606828 72.112736177420317 0.80901698891910034 0 -0.5877852598018023 I I #
edge $-1 $533 -14.51536486388251 $310 -8.4521813571606828 $436 $540 forward 7 unknown #
point $-1 55.341044343394266 -8.4521813571606828 10.11975205251267 #
point $-1 51.123375106795713 -8.4521813571606828 10.119752052512666 #
edge $-1 $541 1 $541 0 $313 $-1 forward 7 unknown #
vertex $-1 $314 $542 #
ellipse-curve $-1 52.570653083081353 -13.302728162538145 7.6770394042197525 0.5877852598018023 0 0.80901698891910034 0.40450849445955017 0 -0.29389262990090115 1 I I #
point $-1 53.636718219554531 -13.302728162538145 8.2937013579805203 #
edge $-1 $543 1 $543 0 $317 $-1 forward 7 unknown #
vertex $-1 $318 $544 #
ellipse-curve $-1 52.570653083081353 -11.483773110521597 7.6770394042197525 0.5877852598018023 0 0.80901698891910034 0.40450849445955017 0 -0.29389262990090115 1 I I #
point $-1 53.636718219554531 -11.483773110521597 8.2937013579805203 #
edge $-1 $545 1 $545 0 $321 $-1 forward 7 unknown #
vertex $-1 $322 $546 #
ellipse-curve $-1 52.570653083081353 -9.6648180585050483 7.6770394042197525 0.5877852598018023 0 0.80901698891910034 0.40450849445955017 0 -0.29389262990090115 1 I I #
point $-1 53.636718219554531 -9.6648180585050483 8.2937013579805203 #
plane-surface $-1 0 0 10.11975205251267 0 0 1 1 0 0 forward_v I I I I #
coedge $-1 $467 $466 $459 $547 forward $326 $-1 #
coedge $-1 $459 $328 $330 $463 reversed $212 $-1 #
coedge $-1 $328 $458 $457 $547 reversed $212 $-1 #
coedge $-1 $336 $331 $328 $461 forward $337 $-1 #
edge $-1 $464 35.696047866344756 $548 39.913717102943309 $460 $549 forward 7 unknown #
coedge $-1 $330 $329 $467 $550 reversed $133 $-1 #
edge $-1 $551 -110.68208868678852 $464 -105.46876276858544 $458 $552 forward 7 unknown #
vertex $-1 $332 $553 #
straight-curve $-1 51.123375106795692 5.4469203739476253 10.119752052512673 0 -1 0 I I #
coedge $-1 $457 $333 $336 $471 reversed $326 $-1 #
coedge $-1 $333 $457 $462 $550 forward $326 $-1 #
vertex $-1 $334 $554 #
straight-curve $-1 55.341044343394266 13.925432501256164 80.828213147041396 0 0 1 I I #
straight-curve $-1 -34.202645773268209 13.925432501256164 72.112736177420317 0.80901698891910034 0 -0.5877852598018023 I I #
edge $-1 $548 7.8622489945343368 $338 13.925432501256164 $466 $555 forward 7 unknown #
point $-1 55.341044343394266 13.925432501256164 10.11975205251267 #
point $-1 51.123375106795713 13.925432501256164 10.119752052512666 #
edge $-1 $556 1 $556 0 $341 $-1 forward 7 unknown #
vertex $-1 $342 $557 #
ellipse-curve $-1 52.570653083081353 9.0748856958787023 7.6770394042197525 0.5877852598018023 0 0.80901698891910034 0.40450849445955017 0 -0.29389262990090115 1 I I #
point $-1 53.636718219554531 9.0748856958787023 8.2937013579805203 #
edge $-1 $558 1 $558 0 $345 $-1 forward 7 unknown #
vertex $-1 $346 $559 #
ellipse-curve $-1 52.570653083081353 10.893840747895251 7.6770394042197525 0.5877852598018023 0 0.80901698891910034 0.40450849445955017 0 -0.29389262990090115 1 I I #
point $-1 53.636718219554531 10.893840747895251 8.2937013579805203 #
edge $-1 $560 1 $560 0 $349 $-1 forward 7 unknown #
vertex $-1 $350 $561 #
ellipse-curve $-1 52.570653083081353 12.712795799911799 7.6770394042197525 0.5877852598018023 0 0.80901698891910034 0.40450849445955017 0 -0.29389262990090115 1 I I #
point $-1 53.636718219554531 12.712795799911799 8.2937013579805203 #
plane-surface $-1 55.341044343394266 0 0 -1 0 0 0 0 1 forward_v I I I I #
coedge $-1 $358 $356 $360 $491 reversed $241 $-1 #
edge $-1 $371 -10.11975205251267 $493 10.11975205251267 $370 $562 forward 7 unknown #
vertex $-1 $491 $563 #
straight-curve $-1 -55.341044343394266 -26.956444180169466 0 0 0 -1 I I #
edge $-1 $489 -26.956444180169466 $493 26.956444180169466 $487 $564 forward 7 unknown #
straight-curve $-1 0 -26.956444180169466 -10.11975205251267 -1 0 0 I I #
vertex $-1 $363 $565 #
straight-curve $-1 0 26.956444180169466 -10.11975205251267 1 0 0 I I #
point $-1 55.341044343394266 26.956444180169466 -10.11975205251267 #
point $-1 55.341044343394266 -26.956444180169466 -10.11975205251267 #
straight-curve $-1 -55.341044343394266 0 10.11975205251267 0 -1 0 I I #
point $-1 -55.341044343394266 26.956444180169466 10.11975205251267 #
point $-1 -55.341044343394266 -26.956444180169466 10.11975205251267 #
straight-curve $-1 55.341044343394266 -26.956444180169466 0 0 0 -1 I I #
straight-curve $-1 55.341044343394266 26.956444180169466 0 0 0 -1 I I #
plane-surface $-1 55.341044343394266 0 0 -1 0 0 0 0 1 forward_v I I I I #
coedge $-1 $506 $383 $394 $515 forward $260 $-1 #
coedge $-1 $383 $506 $397 $517 reversed $260 $-1 #
straight-curve $-1 55.341044343394266 -17.798783536664228 0.36992618568281266 0 0 1 I I #
coedge $-1 $504 $503 $386 $507 forward $260 $-1 #
edge $-1 $510 6.6099766074558044 $508 15.767637250961043 $506 $566 forward 7 unknown #
vertex $-1 $388 $567 #
straight-curve $-1 0 -26.956444180169466 -2.1367737019007333 1 0 0 I I #
vertex $-1 $507 $568 #
straight-curve $-1 0 -17.798783536664228 -2.1367737019007333 1 0 0 I I #
point $-1 55.341044343394266 -26.956444180169466 -2.1367737019007333 #
point $-1 55.341044343394266 -17.798783536664228 -2.1367737019007333 #
straight-curve $-1 -55.341044343394266 -11.188806929208424 3.616478444631984 0 1 0 I I #
edge $-1 $395 -3.2465522589491713 $510 2.506699887583546 $503 $569 forward 7 unknown #
point $-1 -55.341044343394266 -17.798783536664228 3.616478444631984 #
edge $-1 $399 -3.616478444631984 $508 2.1367737019007333 $504 $570 forward 7 unknown #
point $-1 -55.341044343394266 -26.956444180169466 3.616478444631984 #
straight-curve $-1 55.341044343394266 -26.956444180169466 0 0 0 -1 I I #
edge $-1 $521 23.03523966251743 $524 30.329644996110961 $405 $571 forward 7 unknown #
vertex $-1 $419 $572 #
straight-curve $-1 -73.003252228810837 14.582446084663488 10.11975205251267 -1 0 0 I I #
edge $-1 $524 -10.175474453329654 $416 1.3615311906619869 $415 $573 forward 7 unknown #
vertex $-1 $523 $574 #
straight-curve $-1 -55.341044343394287 14.582446084663488 2.825346718919107 0.57357642473473569 0 0.81915205242281985 I I #
point $-1 -50.233446896212421 14.582446084663488 10.11975205251267 #
point $-1 -55.341044343394266 3.0454404406718467 2.8253467189191377 #
straight-curve $-1 -55.341044343394266 0 10.11975205251267 0 -1 0 I I #
vertex $-1 $422 $575 #
point $-1 -48.137499637743652 8.8139432626676673 5.047924161543059 #
coedge $-1 $437 $436 $429 $532 forward $426 $-1 #
edge $-1 $533 70.70846109452873 $536 73.772777223791195 $531 $576 forward 7 unknown #
vertex $-1 $441 $577 #
straight-curve $-1 15.427327240450953 -14.51536486388251 10.119752052512666 1 0 0 I I #
edge $-1 $536 -8.7734783086217121 $438 -2.7102948018998845 $437 $578 forward 7 unknown #
vertex $-1 $535 $579 #
straight-curve $-1 -34.202645773268209 -14.51536486388251 72.112736177420317 -0.80901698891910034 0 0.5877852598018023 I I #
point $-1 51.123375106795713 -14.51536486388251 10.119752052512666 #
point $-1 55.341044343394266 -8.4521813571606828 7.0554359232502009 #
straight-curve $-1 55.341044343394266 0 10.11975205251267 0 1 0 I I #
vertex $-1 $444 $580 #
point $-1 52.975161577540909 -13.302728162538145 7.3831467743188508 #
vertex $-1 $448 $581 #
point $-1 52.975161577540909 -11.483773110521597 7.3831467743188508 #
vertex $-1 $452 $582 #
point $-1 52.975161577540909 -9.6648180585050483 7.3831467743188508 #
edge $-1 $548 70.70846109452873 $551 73.772777223791195 $457 $583 forward 7 unknown #
vertex $-1 $471 $584 #
straight-curve $-1 15.427327240450953 7.8622489945343368 10.119752052512666 1 0 0 I I #
edge $-1 $551 2.4153286205867115 $468 8.4785121273085391 $467 $585 forward 7 unknown #
vertex $-1 $550 $586 #
straight-curve $-1 -34.202645773268209 7.8622489945343368 72.112736177420317 -0.80901698891910034 0 0.5877852598018023 I I #
point $-1 51.123375106795713 7.8622489945343368 10.119752052512666 #
point $-1 55.341044343394266 13.925432501256164 7.0554359232502009 #
straight-curve $-1 55.341044343394266 0 10.11975205251267 0 1 0 I I #
vertex $-1 $474 $587 #
point $-1 52.975161577540909 9.0748856958787023 7.3831467743188508 #
vertex $-1 $478 $588 #
point $-1 52.975161577540909 10.893840747895251 7.3831467743188508 #
vertex $-1 $482 $589 #
point $-1 52.975161577540909 12.712795799911799 7.3831467743188508 #
straight-curve $-1 -55.341044343394266 26.956444180169466 0 0 0 -1 I I #
point $-1 -55.341044343394266 -26.956444180169466 -10.11975205251267 #
straight-curve $-1 -55.341044343394266 0 -10.11975205251267 0 1 0 I I #
point $-1 -55.341044343394266 26.956444180169466 -10.11975205251267 #
straight-curve $-1 -55.341044343394266 -11.188806929208424 -2.1367737019007333 0 -1 0 I I #
point $-1 -55.341044343394266 -26.956444180169466 -2.1367737019007333 #
point $-1 -55.341044343394266 -17.798783536664228 -2.1367737019007333 #
straight-curve $-1 -55.341044343394266 -17.798783536664228 0.36992618568281266 0 0 -1 I I #
straight-curve $-1 -55.341044343394266 -26.956444180169466 0 0 0 -1 I I #
straight-curve $-1 -55.341044343394266 14.582446084663488 33.1549917150301 0 0 -1 I I #
point $-1 -55.341044343394266 14.582446084663488 10.11975205251267 #
straight-curve $-1 -55.341044343394266 4.4069716313338336 2.8253467189191346 0 -1 0 I I #
point $-1 -55.341044343394266 14.582446084663488 2.8253467189191377 #
point $-1 -47.769136196211527 8.8139432626676673 2.9588314458067257 #
straight-curve $-1 55.341044343394266 -14.51536486388251 80.828213147041396 0 0 -1 I I #
point $-1 55.341044343394266 -14.51536486388251 10.11975205251267 #
straight-curve $-1 55.341044343394266 -5.7418865552607983 7.0554359232501938 0 1 0 I I #
point $-1 55.341044343394266 -14.51536486388251 7.0554359232502009 #
point $-1 52.276760453180458 -13.302728162538145 7.272530909760202 #
point $-1 52.276760453180458 -11.483773110521597 7.272530909760202 #
point $-1 52.276760453180458 -9.6648180585050483 7.272530909760202 #
straight-curve $-1 55.341044343394266 7.8622489945343368 80.828213147041396 0 0 -1 I I #
point $-1 55.341044343394266 7.8622489945343368 10.11975205251267 #
straight-curve $-1 55.341044343394266 5.4469203739476253 7.0554359232501938 0 1 0 I I #
point $-1 55.341044343394266 7.8622489945343368 7.0554359232502009 #
point $-1 52.276760453180458 9.0748856958787023 7.272530909760202 #
point $-1 52.276760453180458 10.893840747895251 7.272530909760202 #
point $-1 52.276760453180458 12.712795799911799 7.272530909760202 #
End-of-ACIS-data 