500 0 5 0           
7 Unknown 11 ACIS 5.0 NT 24 Fri Mar 26 00:20:30 1999 
-1 9.9999999999999995e-007 1e-010 
body $-1 $5 $-1 $6 #
body $-1 $7 $-1 $8 #
body $-1 $9 $-1 $10 #
body $-1 $11 $-1 $12 #
body $-1 $13 $-1 $14 #
lump $-1 $-1 $15 $0 #
transform $-1 1 0 0 0 1 0 0 0 1 57.170934171575063 25.985408304010711 10.569344958444885 1 rotate no_reflect no_shear #
lump $-1 $-1 $16 $1 #
transform $-1 1 0 0 0 1 0 0 0 1 57.170934171575063 25.985408304010711 10.569344958444885 1 rotate no_reflect no_shear #
lump $-1 $-1 $17 $2 #
transform $-1 1 0 0 0 1 0 0 0 1 57.170934171575063 25.985408304010711 10.569344958444885 1 rotate no_reflect no_shear #
lump $-1 $-1 $18 $3 #
transform $-1 1 0 0 0 1 0 0 0 1 57.170934171575063 25.985408304010711 10.569344958444885 1 rotate no_reflect no_shear #
lump $-1 $-1 $19 $4 #
transform $-1 1 0 0 0 1 0 0 0 1 57.170934171575063 25.985408304010711 10.569344958444885 1 rotate no_reflect no_shear #
shell $-1 $-1 $-1 $20 $-1 $5 #
shell $-1 $-1 $-1 $21 $-1 $7 #
shell $-1 $-1 $-1 $22 $-1 $9 #
shell $-1 $-1 $-1 $23 $-1 $11 #
shell $-1 $-1 $-1 $24 $-1 $13 #
face $-1 $25 $26 $15 $-1 $27 forward single #
face $-1 $28 $29 $16 $-1 $30 forward single #
face $-1 $31 $32 $17 $-1 $33 forward single #
face $-1 $34 $35 $18 $-1 $36 reversed single #
face $-1 $37 $38 $19 $-1 $39 reversed single #
face $-1 $40 $41 $15 $-1 $42 reversed single #
loop $-1 $-1 $43 $20 #
plane-surface $-1 0 0 10.569344958444885 0 0 1 1 0 0 forward_v I I I I #
face $-1 $44 $45 $16 $-1 $46 forward single #
loop $-1 $-1 $47 $21 #
plane-surface $-1 -52.34524937534524 -20.439931586763738 0 0 1 0 0 0 1 forward_v I I I I #
face $-1 $48 $49 $17 $-1 $50 forward single #
loop $-1 $-1 $51 $22 #
plane-surface $-1 42.534328933781303 91.717402987142862 109.31903194713759 1 0 0 0 -0.82903758062907751 -0.55919289150049634 forward_v I I I I #
face $-1 $52 $53 $18 $-1 $54 reversed single #
loop $-1 $55 $56 $23 #
cone-surface $-1 46.716216144579526 20.931389786393968 4.905207097676513 0 -0.82903758062907751 -0.55919289150049634 1.5 0 0 1 I I 0 1 1.5 forward I I I I #
face $-1 $57 $58 $19 $-1 $59 reversed single #
loop $-1 $60 $61 $24 #
cone-surface $-1 52.989046960776854 20.931389786393968 4.905207097676513 0 -0.82903758062907751 -0.55919289150049634 1.5 0 0 1 I I 0 1 1.5 forward I I I I #
face $-1 $62 $63 $15 $-1 $64 reversed single #
loop $-1 $-1 $65 $25 #
plane-surface $-1 0 0 -10.569344958444885 0 0 1 1 0 0 forward_v I I I I #
coedge $-1 $66 $67 $68 $69 forward $26 $-1 #
face $-1 $70 $71 $16 $-1 $72 forward single #
loop $-1 $-1 $73 $28 #
plane-surface $-1 -52.34524937534524 -16.419342055557582 0 0 -1 0 0 0 -1 forward_v I I I I #
coedge $-1 $74 $75 $76 $77 reversed $29 $-1 #
face $-1 $78 $79 $17 $-1 $80 forward single #
loop $-1 $-1 $81 $31 #
plane-surface $-1 49.852631552678183 -3.0763029086708258 45.379871968762401 0 0.82903758062907751 0.55919289150049634 1 0 0 forward_v I I I I #
coedge $-1 $82 $83 $84 $85 reversed $32 $-1 #
face $-1 $86 $87 $18 $-1 $88 forward single #
loop $-1 $89 $90 $34 #
cone-surface $-1 46.716216144579526 18.046450583176238 2.9592910951397773 0 -0.82903758062907751 -0.55919289150049634 0.75 0 0 1 I I -0.70710678118654757 0.70710678118654757 0.75 forward I I I I #
loop $-1 $-1 $91 $23 #
coedge $-1 $56 $56 $92 $93 reversed $35 $-1 #
face $-1 $94 $95 $19 $-1 $96 reversed single #
loop $-1 $97 $98 $37 #
cone-surface $-1 52.989046960776854 18.046450583176238 2.9592910951397773 0 -0.82903758062907751 -0.55919289150049634 0.75 0 0 1 I I -0.70710678118654757 0.70710678118654757 0.75 forward I I I I #
loop $-1 $-1 $99 $24 #
coedge $-1 $61 $61 $100 $101 reversed $38 $-1 #
face $-1 $102 $103 $15 $-1 $104 reversed single #
loop $-1 $-1 $105 $40 #
plane-surface $-1 0 -25.985408304010711 0 0 1 0 0 0 1 forward_v I I I I #
coedge $-1 $106 $107 $108 $109 forward $41 $-1 #
coedge $-1 $110 $43 $111 $112 forward $26 $-1 #
coedge $-1 $43 $110 $113 $114 forward $26 $-1 #
coedge $-1 $115 $116 $43 $69 reversed $117 $-1 #
edge $-1 $118 -25.985408304010711 $119 25.985408304010711 $68 $120 forward 7 unknown #
face $-1 $121 $122 $16 $-1 $123 forward single #
loop $-1 $-1 $124 $44 #
plane-surface $-1 -47.519564579115418 -18.42963682116066 0 -1 0 0 0 0 1 forward_v I I I I #
coedge $-1 $125 $126 $127 $128 reversed $45 $-1 #
coedge $-1 $129 $47 $130 $131 reversed $29 $-1 #
coedge $-1 $47 $129 $132 $133 reversed $29 $-1 #
coedge $-1 $134 $135 $47 $77 forward $136 $-1 #
edge $-1 $137 -10.569344958444885 $138 10.569344958444885 $76 $139 forward 7 unknown #
face $-1 $140 $141 $17 $-1 $142 reversed single #
loop $-1 $-1 $143 $48 #
plane-surface $-1 0 0 10.569344958444885 0 0 1 1 0 0 forward_v I I I I #
coedge $-1 $144 $145 $143 $146 reversed $49 $-1 #
coedge $-1 $83 $51 $145 $147 forward $32 $-1 #
coedge $-1 $51 $82 $148 $149 reversed $32 $-1 #
coedge $-1 $150 $143 $51 $85 forward $79 $-1 #
edge $-1 $151 -25.455008189302379 $152 -19.873293189560719 $84 $153 forward 7 unknown #
face $-1 $154 $155 $18 $-1 $156 forward single #
loop $-1 $-1 $157 $52 #
plane-surface $-1 42.534328933781303 91.717402987142862 109.31903194713759 1 0 0 0 -0.82903758062907751 -0.55919289150049634 forward_v I I I I #
loop $-1 $-1 $158 $34 #
coedge $-1 $90 $90 $91 $159 forward $53 $-1 #
coedge $-1 $91 $91 $90 $159 reversed $55 $-1 #
coedge $-1 $92 $92 $56 $93 forward $155 $-1 #
edge $-1 $160 -1.565053774182644e-015 $160 6.2831853071795987 $92 $161 forward 7 unknown #
face $-1 $162 $163 $19 $-1 $164 reversed single #
loop $-1 $165 $166 $57 #
cone-surface $-1 46.716216144579526 20.931389786393968 4.905207097676513 0 -0.82903758062907751 -0.55919289150049634 1.5 0 0 1 I I 0 1 1.5 forward I I I I #
loop $-1 $-1 $167 $37 #
coedge $-1 $98 $98 $99 $168 forward $58 $-1 #
coedge $-1 $99 $99 $98 $168 reversed $60 $-1 #
coedge $-1 $100 $100 $61 $101 forward $169 $-1 #
edge $-1 $170 -1.565053774182644e-015 $170 6.2831853071795987 $100 $171 forward 7 unknown #
face $-1 $172 $173 $15 $-1 $174 reversed single #
loop $-1 $-1 $175 $62 #
plane-surface $-1 -57.170934171575063 0 0 1 0 0 0 0 -1 forward_v I I I I #
coedge $-1 $176 $113 $177 $178 forward $63 $-1 #
coedge $-1 $179 $65 $176 $180 forward $41 $-1 #
coedge $-1 $65 $179 $181 $182 forward $41 $-1 #
coedge $-1 $116 $115 $65 $109 reversed $117 $-1 #
edge $-1 $183 -25.985408304010711 $184 25.985408304010711 $108 $185 forward 7 unknown #
coedge $-1 $67 $66 $186 $187 forward $26 $-1 #
coedge $-1 $188 $189 $66 $112 reversed $173 $-1 #
edge $-1 $119 -57.170934171575063 $190 57.170934171575063 $111 $191 forward 7 unknown #
coedge $-1 $105 $192 $67 $114 reversed $63 $-1 #
edge $-1 $193 -57.170934171575063 $118 57.170934171575063 $113 $194 forward 7 unknown #
coedge $-1 $108 $68 $192 $195 forward $117 $-1 #
coedge $-1 $68 $108 $188 $196 reversed $117 $-1 #
loop $-1 $-1 $115 $172 #
vertex $-1 $69 $197 #
vertex $-1 $69 $198 #
straight-curve $-1 57.170934171575063 0 10.569344958444885 0 1 0 I I #
face $-1 $199 $136 $16 $-1 $200 reversed single #
loop $-1 $-1 $201 $70 #
plane-surface $-1 0 0 10.569344958444885 0 0 1 1 0 0 forward_v I I I I #
coedge $-1 $202 $203 $129 $204 reversed $71 $-1 #
coedge $-1 $205 $73 $201 $206 reversed $45 $-1 #
coedge $-1 $73 $205 $207 $208 reversed $45 $-1 #
coedge $-1 $203 $202 $73 $128 forward $71 $-1 #
edge $-1 $209 -10.569344958444885 $210 10.569344958444885 $127 $211 forward 7 unknown #
coedge $-1 $75 $74 $124 $204 forward $29 $-1 #
coedge $-1 $212 $213 $74 $131 forward $122 $-1 #
edge $-1 $214 21.346939891442798 $137 30.998309483902442 $130 $215 forward 7 unknown #
coedge $-1 $216 $217 $75 $133 forward $218 $-1 #
edge $-1 $138 -30.998309483902442 $219 -21.346939891442798 $132 $220 forward 7 unknown #
coedge $-1 $221 $76 $217 $222 reversed $136 $-1 #
coedge $-1 $76 $221 $212 $223 reversed $136 $-1 #
loop $-1 $-1 $76 $121 #
vertex $-1 $223 $224 #
vertex $-1 $77 $225 #
straight-curve $-1 -57.170934171575063 -20.439931586763738 0 0 0 -1 I I #
face $-1 $226 $227 $17 $-1 $228 forward single #
loop $-1 $-1 $148 $78 #
plane-surface $-1 0 25.985408304010711 0 0 -1 0 0 0 -1 forward_v I I I I #
coedge $-1 $84 $229 $81 $146 forward $79 $-1 #
coedge $-1 $230 $81 $231 $232 reversed $49 $-1 #
coedge $-1 $81 $230 $82 $147 reversed $49 $-1 #
edge $-1 $233 -32.244618395235975 $151 -17.608013157442212 $143 $234 forward 7 unknown #
edge $-1 $151 41.989082067791337 $235 51.970816608021465 $82 $236 forward 7 unknown #
coedge $-1 $237 $238 $83 $149 forward $141 $-1 #
edge $-1 $152 44.090171015123907 $235 52.365404068837982 $148 $239 forward 7 unknown #
coedge $-1 $240 $84 $238 $241 forward $79 $-1 #
vertex $-1 $146 $242 #
vertex $-1 $241 $243 #
straight-curve $-1 42.534328933781303 45.858701493571431 10.569344958444887 0 1 0 I I #
face $-1 $244 $245 $18 $-1 $246 forward single #
loop $-1 $247 $92 $86 #
plane-surface $-1 49.852631552678183 -3.0763029086708258 45.379871968762401 0 0.82903758062907751 0.55919289150049634 1 0 0 forward_v I I I I #
coedge $-1 $248 $249 $250 $251 reversed $87 $-1 #
coedge $-1 $158 $158 $-1 $252 forward $89 $-1 #
edge $-1 $253 0 $253 6.2831853071796004 $90 $254 forward 7 unknown #
vertex $-1 $93 $255 #
ellipse-curve $-1 46.716216144579526 23.194550804139872 6.4317284315878647 0 -0.82903758062907751 -0.55919289150049634 1.5 0 0 1 I I #
face $-1 $256 $257 $19 $-1 $258 forward single #
loop $-1 $259 $260 $94 #
cone-surface $-1 46.716216144579526 18.046450583176238 2.9592910951397773 0 -0.82903758062907751 -0.55919289150049634 0.75 0 0 1 I I -0.70710678118654757 0.70710678118654757 0.75 forward I I I I #
loop $-1 $-1 $261 $57 #
coedge $-1 $166 $166 $262 $263 reversed $95 $-1 #
coedge $-1 $167 $167 $-1 $264 forward $97 $-1 #
edge $-1 $265 0 $265 6.2831853071796004 $98 $266 forward 7 unknown #
loop $-1 $267 $100 $256 #
vertex $-1 $101 $268 #
ellipse-curve $-1 52.989046960776854 23.194550804139872 6.4317284315878647 0 -0.82903758062907751 -0.55919289150049634 1.5 0 0 1 I I #
face $-1 $-1 $117 $15 $-1 $269 reversed single #
loop $-1 $-1 $188 $102 #
plane-surface $-1 0 25.985408304010711 0 0 -1 0 0 0 -1 forward_v I I I I #
coedge $-1 $270 $186 $189 $271 forward $103 $-1 #
coedge $-1 $192 $105 $106 $180 reversed $63 $-1 #
coedge $-1 $186 $270 $105 $178 reversed $103 $-1 #
edge $-1 $193 -10.569344958444885 $272 10.569344958444885 $177 $273 forward 7 unknown #
coedge $-1 $107 $106 $270 $274 forward $41 $-1 #
edge $-1 $184 -57.170934171575063 $272 57.170934171575063 $176 $275 forward 7 unknown #
coedge $-1 $189 $188 $107 $182 reversed $173 $-1 #
edge $-1 $276 -57.170934171575063 $183 57.170934171575063 $181 $277 forward 7 unknown #
vertex $-1 $109 $278 #
vertex $-1 $195 $279 #
straight-curve $-1 57.170934171575063 0 -10.569344958444885 0 -1 0 I I #
coedge $-1 $175 $177 $110 $187 reversed $103 $-1 #
edge $-1 $190 -25.985408304010711 $193 25.985408304010711 $186 $280 forward 7 unknown #
coedge $-1 $181 $111 $116 $196 forward $173 $-1 #
coedge $-1 $111 $181 $175 $271 reversed $173 $-1 #
vertex $-1 $112 $281 #
straight-curve $-1 0 25.985408304010711 10.569344958444885 -1 0 0 I I #
coedge $-1 $113 $176 $115 $195 reversed $63 $-1 #
vertex $-1 $187 $282 #
straight-curve $-1 0 -25.985408304010711 10.569344958444885 1 0 0 I I #
edge $-1 $118 -10.569344958444885 $184 10.569344958444885 $115 $283 forward 7 unknown #
edge $-1 $119 -10.569344958444885 $183 10.569344958444885 $116 $284 forward 7 unknown #
point $-1 57.170934171575063 -25.985408304010711 10.569344958444885 #
point $-1 57.170934171575063 25.985408304010711 10.569344958444885 #
face $-1 $285 $218 $16 $-1 $286 reversed single #
plane-surface $-1 -57.170934171575063 0 0 1 0 0 0 0 -1 forward_v I I I I #
coedge $-1 $213 $287 $125 $206 forward $122 $-1 #
coedge $-1 $127 $124 $213 $288 reversed $71 $-1 #
coedge $-1 $124 $127 $216 $289 reversed $71 $-1 #
edge $-1 $214 -10.569344958444885 $219 10.569344958444885 $124 $290 forward 7 unknown #
coedge $-1 $126 $125 $291 $292 reversed $45 $-1 #
edge $-1 $293 -30.998309483902442 $209 -21.346939891442798 $201 $294 forward 7 unknown #
coedge $-1 $295 $216 $126 $208 forward $218 $-1 #
edge $-1 $210 21.346939891442798 $296 30.998309483902442 $207 $297 forward 7 unknown #
vertex $-1 $206 $298 #
vertex $-1 $208 $299 #
straight-curve $-1 -47.519564579115418 -16.419342055557582 0 0 0 -1 I I #
coedge $-1 $300 $130 $135 $223 forward $122 $-1 #
coedge $-1 $130 $201 $202 $288 forward $122 $-1 #
vertex $-1 $131 $301 #
straight-curve $-1 -26.17262468767262 -20.439931586763738 10.569344958444885 -1 0 0 I I #
coedge $-1 $207 $132 $203 $289 forward $218 $-1 #
coedge $-1 $132 $302 $134 $222 forward $218 $-1 #
loop $-1 $-1 $207 $199 #
vertex $-1 $133 $303 #
straight-curve $-1 -26.17262468767262 -20.439931586763738 -10.569344958444885 1 0 0 I I #
coedge $-1 $135 $134 $304 $305 reversed $136 $-1 #
edge $-1 $306 -25.985408304010711 $138 -20.439931586763738 $134 $307 forward 7 unknown #
edge $-1 $137 20.439931586763738 $308 25.985408304010711 $135 $309 forward 7 unknown #
point $-1 -57.170934171575063 -20.439931586763738 10.569344958444885 #
point $-1 -57.170934171575063 -20.439931586763738 -10.569344958444885 #
face $-1 $310 $311 $17 $-1 $312 forward single #
loop $-1 $-1 $313 $140 #
plane-surface $-1 -52.34524937534524 -20.439931586763738 0 0 1 0 0 0 1 forward_v I I I I #
coedge $-1 $143 $314 $315 $316 forward $79 $-1 #
coedge $-1 $145 $144 $237 $317 reversed $49 $-1 #
coedge $-1 $315 $318 $144 $232 forward $319 $-1 #
edge $-1 $320 -32.299883615585912 $233 -22.318149075355791 $231 $321 forward 7 unknown #
vertex $-1 $232 $322 #
straight-curve $-1 24.926315776339091 20.403693304269055 10.569344958444884 -1 0 0 I I #
vertex $-1 $317 $323 #
straight-curve $-1 42.534328933781303 -3.0763029086708258 45.379871968762401 0 0.55919289150049634 -0.82903758062907751 I I #
coedge $-1 $324 $148 $230 $317 forward $141 $-1 #
coedge $-1 $148 $325 $150 $241 reversed $141 $-1 #
straight-curve $-1 42.534328933781303 25.985408304010711 54.659515973568794 0 0 -1 I I #
coedge $-1 $326 $150 $327 $328 forward $79 $-1 #
edge $-1 $152 -42.534328933781303 $329 57.170934171575063 $238 $330 forward 7 unknown #
point $-1 42.534328933781303 20.403693304269051 10.569344958444887 #
point $-1 42.534328933781303 25.985408304010711 10.569344958444885 #
face $-1 $331 $332 $18 $-1 $333 reversed single #
loop $-1 $-1 $334 $154 #
plane-surface $-1 0 0 10.569344958444885 0 0 1 1 0 0 forward_v I I I I #
loop $-1 $-1 $335 $86 #
coedge $-1 $249 $157 $336 $337 forward $87 $-1 #
coedge $-1 $157 $248 $338 $339 reversed $87 $-1 #
coedge $-1 $340 $334 $157 $251 forward $245 $-1 #
edge $-1 $341 -25.455008189302379 $342 -19.873293189560719 $250 $343 forward 7 unknown #
edge $-1 $344 1 $344 0 $158 $-1 forward 7 unknown #
vertex $-1 $159 $345 #
ellipse-curve $-1 46.716216144579526 18.668228768648046 3.3786857637651497 0 0.82903758062907751 0.55919289150049634 1.5 0 0 1 I I #
point $-1 48.216216144579526 23.194550804139894 6.4317284315878762 #
face $-1 $346 $169 $19 $-1 $347 forward single #
loop $-1 $-1 $348 $162 #
plane-surface $-1 42.534328933781303 91.717402987142862 109.31903194713759 1 0 0 0 -0.82903758062907751 -0.55919289150049634 forward_v I I I I #
loop $-1 $-1 $349 $94 #
coedge $-1 $260 $260 $261 $350 forward $163 $-1 #
coedge $-1 $261 $261 $260 $350 reversed $165 $-1 #
coedge $-1 $262 $262 $166 $263 forward $267 $-1 #
edge $-1 $351 -1.565053774182644e-015 $351 6.2831853071795987 $262 $352 forward 7 unknown #
edge $-1 $353 1 $353 0 $167 $-1 forward 7 unknown #
vertex $-1 $168 $354 #
ellipse-curve $-1 52.989046960776854 18.668228768648046 3.3786857637651497 0 0.82903758062907751 0.55919289150049634 1.5 0 0 1 I I #
loop $-1 $355 $262 $256 #
point $-1 54.489046960776854 23.194550804139894 6.4317284315878762 #
plane-surface $-1 57.170934171575063 0 0 -1 0 0 0 0 1 forward_v I I I I #
coedge $-1 $177 $175 $179 $274 reversed $103 $-1 #
edge $-1 $190 -10.569344958444885 $276 10.569344958444885 $189 $356 forward 7 unknown #
vertex $-1 $274 $357 #
straight-curve $-1 -57.170934171575063 -25.985408304010711 0 0 0 -1 I I #
edge $-1 $272 -25.985408304010711 $276 25.985408304010711 $270 $358 forward 7 unknown #
straight-curve $-1 0 -25.985408304010711 -10.569344958444885 -1 0 0 I I #
vertex $-1 $182 $359 #
straight-curve $-1 0 25.985408304010711 -10.569344958444885 1 0 0 I I #
point $-1 57.170934171575063 25.985408304010711 -10.569344958444885 #
point $-1 57.170934171575063 -25.985408304010711 -10.569344958444885 #
straight-curve $-1 -57.170934171575063 0 10.569344958444885 0 -1 0 I I #
point $-1 -57.170934171575063 25.985408304010711 10.569344958444885 #
point $-1 -57.170934171575063 -25.985408304010711 10.569344958444885 #
straight-curve $-1 57.170934171575063 -25.985408304010711 0 0 0 -1 I I #
straight-curve $-1 57.170934171575063 25.985408304010711 0 0 0 -1 I I #
face $-1 $360 $361 $16 $-1 $362 reversed single #
plane-surface $-1 0 0 -10.569344958444885 0 0 1 1 0 0 forward_v I I I I #
coedge $-1 $201 $363 $364 $365 forward $122 $-1 #
edge $-1 $209 7.2045236449772521 $214 11.225113176183408 $213 $366 forward 7 unknown #
edge $-1 $219 -11.225113176183408 $210 -7.2045236449772521 $216 $367 forward 7 unknown #
straight-curve $-1 -47.519564579115418 -20.439931586763738 0 0 0 -1 I I #
coedge $-1 $364 $368 $205 $292 forward $369 $-1 #
edge $-1 $296 -10.569344958444885 $293 10.569344958444885 $291 $370 forward 7 unknown #
vertex $-1 $292 $371 #
straight-curve $-1 -26.17262468767262 -16.419342055557582 10.569344958444885 1 0 0 I I #
coedge $-1 $372 $207 $368 $373 forward $218 $-1 #
vertex $-1 $373 $374 #
straight-curve $-1 -26.17262468767262 -16.419342055557582 -10.569344958444885 -1 0 0 I I #
point $-1 -47.519564579115418 -16.419342055557582 10.569344958444885 #
point $-1 -47.519564579115418 -16.419342055557582 -10.569344958444885 #
coedge $-1 $375 $212 $376 $377 forward $122 $-1 #
point $-1 -47.519564579115418 -20.439931586763738 10.569344958444885 #
coedge $-1 $217 $378 $379 $380 forward $218 $-1 #
point $-1 -47.519564579115418 -20.439931586763738 -10.569344958444885 #
coedge $-1 $379 $376 $221 $305 forward $361 $-1 #
edge $-1 $308 -10.569344958444885 $306 10.569344958444885 $221 $381 forward 7 unknown #
vertex $-1 $222 $382 #
straight-curve $-1 -57.170934171575063 0 -10.569344958444885 0 1 0 I I #
vertex $-1 $223 $383 #
straight-curve $-1 -57.170934171575063 0 10.569344958444885 0 -1 0 I I #
face $-1 $384 $385 $17 $-1 $386 forward single #
loop $-1 $-1 $387 $226 #
plane-surface $-1 -52.34524937534524 -16.419342055557582 0 0 -1 0 0 0 -1 forward_v I I I I #
coedge $-1 $388 $389 $390 $391 reversed $227 $-1 #
coedge $-1 $229 $392 $393 $394 forward $79 $-1 #
coedge $-1 $395 $231 $229 $316 reversed $319 $-1 #
edge $-1 $396 -25.985408304010711 $233 20.403693304269051 $315 $397 forward 7 unknown #
edge $-1 $235 17.608013157442212 $320 32.244618395235975 $237 $398 forward 7 unknown #
coedge $-1 $231 $399 $324 $400 reversed $319 $-1 #
loop $-1 $-1 $231 $401 #
vertex $-1 $400 $402 #
straight-curve $-1 57.170934171575063 7.9235429898817209 29.071929271996936 0 -0.55919289150049634 0.82903758062907751 I I #
point $-1 57.170934171575063 20.403693304269051 10.569344958444887 #
point $-1 42.534328933781303 25.985408304010711 2.2941119047308121 #
coedge $-1 $403 $237 $318 $400 forward $141 $-1 #
coedge $-1 $238 $403 $404 $405 reversed $141 $-1 #
coedge $-1 $406 $240 $407 $408 forward $79 $-1 #
coedge $-1 $404 $409 $240 $328 reversed $410 $-1 #
edge $-1 $329 -25.985408304010711 $411 16.419342055557582 $327 $412 forward 7 unknown #
vertex $-1 $241 $413 #
straight-curve $-1 0 25.985408304010711 10.569344958444885 -1 0 0 I I #
face $-1 $414 $415 $18 $-1 $416 forward single #
loop $-1 $-1 $338 $244 #
plane-surface $-1 0 25.985408304010711 0 0 -1 0 0 0 -1 forward_v I I I I #
coedge $-1 $250 $417 $335 $418 forward $245 $-1 #
coedge $-1 $419 $336 $334 $418 reversed $247 $-1 #
coedge $-1 $335 $420 $248 $337 reversed $247 $-1 #
edge $-1 $341 41.989082067791337 $421 51.970816608021465 $248 $422 forward 7 unknown #
coedge $-1 $423 $424 $249 $339 forward $332 $-1 #
edge $-1 $342 44.090171015123907 $421 52.365404068837982 $338 $425 forward 7 unknown #
coedge $-1 $426 $250 $424 $427 forward $245 $-1 #
vertex $-1 $418 $428 #
vertex $-1 $427 $429 #
straight-curve $-1 42.534328933781303 45.858701493571431 10.569344958444887 0 1 0 I I #
vertex $-1 $252 $430 #
point $-1 48.216216144579526 18.668228768648046 3.3786857637651497 #
face $-1 $431 $432 $19 $-1 $433 forward single #
plane-surface $-1 49.852631552678183 -3.0763029086708258 45.379871968762401 0 0.82903758062907751 0.55919289150049634 1 0 0 forward_v I I I I #
coedge $-1 $434 $435 $436 $437 reversed $257 $-1 #
coedge $-1 $349 $349 $-1 $438 forward $259 $-1 #
edge $-1 $439 0 $439 6.2831853071796004 $260 $440 forward 7 unknown #
vertex $-1 $263 $441 #
ellipse-curve $-1 46.716216144579526 23.194550804139872 6.4317284315878647 0 -0.82903758062907751 -0.55919289150049634 1.5 0 0 1 I I #
vertex $-1 $264 $442 #
point $-1 54.489046960776854 18.668228768648046 3.3786857637651497 #
loop $-1 $-1 $443 $256 #
straight-curve $-1 -57.170934171575063 25.985408304010711 0 0 0 -1 I I #
point $-1 -57.170934171575063 -25.985408304010711 -10.569344958444885 #
straight-curve $-1 -57.170934171575063 0 -10.569344958444885 0 1 0 I I #
point $-1 -57.170934171575063 25.985408304010711 -10.569344958444885 #
face $-1 $444 $369 $16 $-1 $200 reversed single #
loop $-1 $-1 $304 $285 #
plane-surface $-1 0 -25.985408304010711 0 0 1 0 0 0 1 forward_v I I I I #
coedge $-1 $287 $375 $445 $446 forward $122 $-1 #
coedge $-1 $447 $291 $287 $365 reversed $369 $-1 #
edge $-1 $448 -25.985408304010711 $293 16.419342055557582 $364 $309 forward 7 unknown #
straight-curve $-1 -47.519564579115418 -9.2148184105803299 10.569344958444885 0 -1 0 I I #
straight-curve $-1 -47.519564579115418 -9.2148184105803299 -10.569344958444885 0 1 0 I I #
coedge $-1 $291 $447 $295 $373 reversed $369 $-1 #
loop $-1 $-1 $291 $360 #
straight-curve $-1 -57.170934171575063 -16.419342055557582 0 0 0 1 I I #
point $-1 -57.170934171575063 -16.419342055557582 10.569344958444885 #
coedge $-1 $378 $295 $449 $450 forward $218 $-1 #
edge $-1 $296 -16.419342055557582 $451 25.985408304010711 $368 $307 forward 7 unknown #
point $-1 -57.170934171575063 -16.419342055557582 -10.569344958444885 #
coedge $-1 $363 $300 $452 $453 forward $122 $-1 #
coedge $-1 $304 $454 $300 $377 reversed $361 $-1 #
edge $-1 $308 -57.170934171575063 $455 57.170934171575063 $376 $456 forward 7 unknown #
coedge $-1 $302 $372 $457 $458 forward $218 $-1 #
coedge $-1 $454 $304 $302 $380 reversed $361 $-1 #
edge $-1 $459 -57.170934171575063 $306 57.170934171575063 $379 $460 forward 7 unknown #
straight-curve $-1 -57.170934171575063 -25.985408304010711 0 0 0 -1 I I #
point $-1 -57.170934171575063 -25.985408304010711 -10.569344958444885 #
point $-1 -57.170934171575063 -25.985408304010711 10.569344958444885 #
face $-1 $461 $462 $17 $-1 $463 reversed single #
loop $-1 $-1 $464 $310 #
plane-surface $-1 -47.519564579115418 -18.42963682116066 0 -1 0 0 0 0 1 forward_v I I I I #
coedge $-1 $407 $465 $466 $467 reversed $311 $-1 #
coedge $-1 $468 $313 $469 $470 reversed $227 $-1 #
coedge $-1 $313 $468 $471 $472 reversed $227 $-1 #
coedge $-1 $473 $474 $313 $391 forward $462 $-1 #
edge $-1 $475 -10.569344958444885 $476 10.569344958444885 $390 $477 forward 7 unknown #
coedge $-1 $314 $469 $474 $478 forward $79 $-1 #
coedge $-1 $479 $480 $314 $394 reversed $481 $-1 #
edge $-1 $482 -57.170934171575063 $396 57.170934171575063 $393 $483 forward 7 unknown #
coedge $-1 $399 $315 $480 $484 forward $319 $-1 #
vertex $-1 $316 $485 #
straight-curve $-1 57.170934171575063 0 10.569344958444885 0 1 0 I I #
straight-curve $-1 24.926315776339091 25.985408304010711 2.2941119047308085 1 0 0 I I #
coedge $-1 $318 $395 $486 $487 reversed $319 $-1 #
edge $-1 $320 -2.2941119047308121 $488 10.569344958444885 $318 $489 forward 7 unknown #
face $-1 $-1 $319 $17 $-1 $490 reversed single #
point $-1 57.170934171575063 25.985408304010711 2.2941119047308121 #
coedge $-1 $325 $324 $491 $492 reversed $141 $-1 #
coedge $-1 $493 $327 $325 $405 forward $410 $-1 #
edge $-1 $329 -10.569344958444885 $494 10.569344958444885 $325 $495 forward 7 unknown #
coedge $-1 $469 $326 $496 $497 forward $79 $-1 #
coedge $-1 $498 $387 $326 $408 reversed $311 $-1 #
edge $-1 $411 -30.998309483902442 $499 -21.346939891442798 $326 $500 forward 7 unknown #
coedge $-1 $327 $493 $498 $501 forward $410 $-1 #
loop $-1 $-1 $409 $502 #
vertex $-1 $501 $503 #
straight-curve $-1 -57.170934171575063 0 10.569344958444885 0 -1 0 I I #
point $-1 -57.170934171575063 25.985408304010711 10.569344958444885 #
face $-1 $504 $505 $18 $-1 $506 forward single #
loop $-1 $-1 $507 $331 #
plane-surface $-1 -52.34524937534524 -20.439931586763738 0 0 1 0 0 0 1 forward_v I I I I #
coedge $-1 $334 $508 $509 $510 forward $245 $-1 #
edge $-1 $511 -32.244618395235975 $341 -17.608013157442212 $334 $512 forward 7 unknown #
coedge $-1 $420 $335 $513 $514 reversed $247 $-1 #
coedge $-1 $336 $419 $423 $515 reversed $247 $-1 #
vertex $-1 $515 $516 #
straight-curve $-1 42.534328933781303 -3.0763029086708258 45.379871968762401 0 0.55919289150049634 -0.82903758062907751 I I #
coedge $-1 $517 $338 $420 $515 forward $332 $-1 #
coedge $-1 $338 $518 $340 $427 reversed $332 $-1 #
straight-curve $-1 42.534328933781303 25.985408304010711 54.659515973568794 0 0 -1 I I #
coedge $-1 $519 $340 $520 $521 forward $245 $-1 #
edge $-1 $342 -42.534328933781303 $522 57.170934171575063 $424 $523 forward 7 unknown #
point $-1 42.534328933781303 20.403693304269051 10.569344958444887 #
point $-1 42.534328933781303 25.985408304010711 10.569344958444885 #
point $-1 46.716216144579526 17.42467239770443 2.5398964265144048 #
face $-1 $524 $525 $19 $-1 $526 reversed single #
loop $-1 $-1 $527 $346 #
plane-surface $-1 0 0 10.569344958444885 0 0 1 1 0 0 forward_v I I I I #
coedge $-1 $435 $348 $528 $529 forward $257 $-1 #
coedge $-1 $348 $434 $530 $531 reversed $257 $-1 #
coedge $-1 $532 $527 $348 $437 forward $432 $-1 #
edge $-1 $533 -25.455008189302379 $534 -19.873293189560719 $436 $535 forward 7 unknown #
edge $-1 $536 1 $536 0 $349 $-1 forward 7 unknown #
vertex $-1 $350 $537 #
ellipse-curve $-1 46.716216144579526 18.668228768648046 3.3786857637651497 0 0.82903758062907751 0.55919289150049634 1.5 0 0 1 I I #
point $-1 48.216216144579526 23.194550804139894 6.4317284315878762 #
point $-1 52.989046960776854 17.42467239770443 2.5398964265144048 #
coedge $-1 $538 $528 $527 $539 reversed $355 $-1 #
face $-1 $540 $541 $16 $-1 $542 reversed single #
coedge $-1 $543 $544 $363 $446 reversed $541 $-1 #
edge $-1 $545 -57.170934171575063 $448 57.170934171575063 $445 $546 forward 7 unknown #
coedge $-1 $368 $364 $544 $547 forward $369 $-1 #
vertex $-1 $446 $548 #
coedge $-1 $544 $543 $372 $450 reversed $541 $-1 #
edge $-1 $451 -57.170934171575063 $549 57.170934171575063 $449 $550 forward 7 unknown #
vertex $-1 $450 $551 #
coedge $-1 $552 $553 $375 $453 reversed $554 $-1 #
edge $-1 $455 -25.985408304010711 $545 25.985408304010711 $452 $555 forward 7 unknown #
coedge $-1 $376 $379 $552 $556 reversed $361 $-1 #
vertex $-1 $453 $557 #
straight-curve $-1 0 -25.985408304010711 10.569344958444885 1 0 0 I I #
coedge $-1 $553 $552 $378 $458 reversed $554 $-1 #
edge $-1 $549 -25.985408304010711 $459 25.985408304010711 $457 $558 forward 7 unknown #
vertex $-1 $556 $559 #
straight-curve $-1 0 -25.985408304010711 -10.569344958444885 -1 0 0 I I #
face $-1 $560 $561 $17 $-1 $562 reversed single #
loop $-1 $-1 $390 $384 #
plane-surface $-1 -57.170934171575063 0 0 1 0 0 0 0 -1 forward_v I I I I #
coedge $-1 $496 $563 $468 $564 reversed $385 $-1 #
coedge $-1 $387 $498 $565 $566 reversed $311 $-1 #
coedge $-1 $563 $496 $387 $467 forward $385 $-1 #
edge $-1 $499 -10.569344958444885 $567 10.569344958444885 $466 $568 forward 7 unknown #
coedge $-1 $389 $388 $464 $564 forward $227 $-1 #
coedge $-1 $392 $406 $388 $470 forward $79 $-1 #
edge $-1 $569 21.346939891442798 $475 30.998309483902442 $469 $570 forward 7 unknown #
coedge $-1 $571 $572 $389 $472 forward $561 $-1 #
edge $-1 $476 -30.998309483902442 $573 -21.346939891442798 $471 $574 forward 7 unknown #
coedge $-1 $575 $390 $572 $576 reversed $462 $-1 #
coedge $-1 $390 $575 $392 $478 reversed $462 $-1 #
vertex $-1 $478 $577 #
vertex $-1 $391 $578 #
straight-curve $-1 -57.170934171575063 -20.439931586763738 0 0 0 -1 I I #
edge $-1 $475 20.439931586763738 $482 25.985408304010711 $474 $412 forward 7 unknown #
coedge $-1 $579 $393 $575 $580 forward $481 $-1 #
coedge $-1 $393 $579 $395 $484 reversed $481 $-1 #
loop $-1 $-1 $479 $560 #
vertex $-1 $478 $581 #
straight-curve $-1 0 -25.985408304010711 10.569344958444885 1 0 0 I I #
edge $-1 $396 -10.569344958444885 $582 10.569344958444885 $395 $583 forward 7 unknown #
point $-1 57.170934171575063 -25.985408304010711 10.569344958444885 #
coedge $-1 $584 $491 $399 $487 forward $561 $-1 #
edge $-1 $488 -25.985408304010711 $582 25.985408304010711 $399 $585 forward 7 unknown #
vertex $-1 $487 $586 #
straight-curve $-1 57.170934171575063 25.985408304010711 0 0 0 -1 I I #
plane-surface $-1 57.170934171575063 0 0 -1 0 0 0 0 1 forward_v I I I I #
coedge $-1 $486 $587 $403 $492 forward $561 $-1 #
edge $-1 $494 -57.170934171575063 $488 57.170934171575063 $403 $588 forward 7 unknown #
coedge $-1 $409 $404 $587 $589 reversed $410 $-1 #
vertex $-1 $492 $590 #
straight-curve $-1 -57.170934171575063 25.985408304010711 0 0 0 -1 I I #
coedge $-1 $466 $464 $406 $497 reversed $385 $-1 #
edge $-1 $499 7.2045236449772521 $569 11.225113176183408 $406 $591 forward 7 unknown #
coedge $-1 $465 $407 $409 $501 reversed $311 $-1 #
vertex $-1 $408 $592 #
straight-curve $-1 -26.17262468767262 -16.419342055557582 10.569344958444885 1 0 0 I I #
edge $-1 $593 -10.569344958444885 $411 10.569344958444885 $409 $594 forward 7 unknown #
face $-1 $401 $410 $17 $-1 $463 reversed single #
point $-1 -57.170934171575063 -16.419342055557582 10.569344958444885 #
face $-1 $595 $596 $18 $-1 $597 forward single #
loop $-1 $-1 $598 $414 #
plane-surface $-1 -52.34524937534524 -16.419342055557582 0 0 -1 0 0 0 -1 forward_v I I I I #
coedge $-1 $599 $600 $601 $602 reversed $415 $-1 #
coedge $-1 $417 $603 $604 $605 forward $245 $-1 #
coedge $-1 $606 $513 $417 $510 reversed $607 $-1 #
edge $-1 $608 -25.985408304010711 $511 20.403693304269051 $509 $609 forward 7 unknown #
vertex $-1 $514 $610 #
straight-curve $-1 24.926315776339091 20.403693304269055 10.569344958444884 -1 0 0 I I #
coedge $-1 $509 $611 $419 $514 forward $607 $-1 #
edge $-1 $612 -32.299883615585912 $511 -22.318149075355791 $513 $613 forward 7 unknown #
edge $-1 $421 17.608013157442212 $612 32.244618395235975 $423 $614 forward 7 unknown #
point $-1 42.534328933781303 25.985408304010711 2.2941119047308121 #
coedge $-1 $615 $423 $611 $616 forward $332 $-1 #
coedge $-1 $424 $615 $617 $618 reversed $332 $-1 #
coedge $-1 $619 $426 $620 $621 forward $245 $-1 #
coedge $-1 $617 $622 $426 $521 reversed $623 $-1 #
edge $-1 $522 -25.985408304010711 $624 16.419342055557582 $520 $625 forward 7 unknown #
vertex $-1 $427 $626 #
straight-curve $-1 0 25.985408304010711 10.569344958444885 -1 0 0 I I #
face $-1 $627 $628 $19 $-1 $629 forward single #
loop $-1 $-1 $530 $431 #
plane-surface $-1 0 25.985408304010711 0 0 -1 0 0 0 -1 forward_v I I I I #
coedge $-1 $436 $630 $443 $539 forward $432 $-1 #
coedge $-1 $443 $631 $434 $529 reversed $355 $-1 #
edge $-1 $533 41.989082067791337 $632 51.970816608021465 $434 $633 forward 7 unknown #
coedge $-1 $634 $635 $435 $531 forward $525 $-1 #
edge $-1 $534 44.090171015123907 $632 52.365404068837982 $530 $636 forward 7 unknown #
coedge $-1 $637 $436 $635 $638 forward $432 $-1 #
vertex $-1 $539 $639 #
vertex $-1 $638 $640 #
straight-curve $-1 42.534328933781303 45.858701493571431 10.569344958444887 0 1 0 I I #
vertex $-1 $438 $641 #
point $-1 48.216216144579526 18.668228768648046 3.3786857637651497 #
coedge $-1 $631 $443 $642 $643 reversed $355 $-1 #
edge $-1 $644 -32.244618395235975 $533 -17.608013157442212 $527 $645 forward 7 unknown #
face $-1 $-1 $554 $16 $-1 $646 reversed single #
loop $-1 $-1 $543 $444 #
plane-surface $-1 0 25.985408304010711 0 0 -1 0 0 0 -1 forward_v I I I I #
coedge $-1 $449 $445 $553 $647 forward $541 $-1 #
coedge $-1 $445 $449 $447 $547 reversed $541 $-1 #
vertex $-1 $453 $648 #
straight-curve $-1 0 25.985408304010711 10.569344958444885 -1 0 0 I I #
edge $-1 $448 -10.569344958444885 $451 10.569344958444885 $544 $649 forward 7 unknown #
point $-1 -57.170934171575063 25.985408304010711 10.569344958444885 #
vertex $-1 $458 $650 #
straight-curve $-1 0 25.985408304010711 -10.569344958444885 1 0 0 I I #
point $-1 -57.170934171575063 25.985408304010711 -10.569344958444885 #
coedge $-1 $457 $452 $454 $556 forward $554 $-1 #
coedge $-1 $452 $457 $543 $647 reversed $554 $-1 #
loop $-1 $-1 $552 $540 #
straight-curve $-1 57.170934171575063 0 10.569344958444885 0 1 0 I I #
edge $-1 $455 -10.569344958444885 $459 10.569344958444885 $552 $651 forward 7 unknown #
point $-1 57.170934171575063 -25.985408304010711 10.569344958444885 #
straight-curve $-1 57.170934171575063 0 -10.569344958444885 0 -1 0 I I #
point $-1 57.170934171575063 -25.985408304010711 -10.569344958444885 #
face $-1 $502 $481 $17 $-1 $652 reversed single #
loop $-1 $-1 $565 $461 #
plane-surface $-1 0 0 -10.569344958444885 0 0 1 1 0 0 forward_v I I I I #
coedge $-1 $464 $466 $571 $653 reversed $385 $-1 #
edge $-1 $569 -10.569344958444885 $573 10.569344958444885 $464 $654 forward 7 unknown #
coedge $-1 $587 $571 $465 $566 forward $561 $-1 #
edge $-1 $567 21.346939891442798 $593 30.998309483902442 $565 $655 forward 7 unknown #
vertex $-1 $566 $656 #
straight-curve $-1 -47.519564579115418 -16.419342055557582 0 0 0 -1 I I #
vertex $-1 $470 $657 #
straight-curve $-1 -26.17262468767262 -20.439931586763738 10.569344958444885 -1 0 0 I I #
coedge $-1 $565 $471 $563 $653 forward $561 $-1 #
coedge $-1 $471 $584 $473 $576 forward $561 $-1 #
vertex $-1 $472 $658 #
straight-curve $-1 -26.17262468767262 -20.439931586763738 -10.569344958444885 1 0 0 I I #
coedge $-1 $474 $473 $479 $580 reversed $462 $-1 #
edge $-1 $659 -25.985408304010711 $476 -20.439931586763738 $473 $660 forward 7 unknown #
point $-1 -57.170934171575063 -20.439931586763738 10.569344958444885 #
point $-1 -57.170934171575063 -20.439931586763738 -10.569344958444885 #
coedge $-1 $480 $479 $584 $661 reversed $481 $-1 #
edge $-1 $482 -10.569344958444885 $659 10.569344958444885 $575 $662 forward 7 unknown #
point $-1 -57.170934171575063 -25.985408304010711 10.569344958444885 #
vertex $-1 $484 $663 #
straight-curve $-1 57.170934171575063 -25.985408304010711 0 0 0 -1 I I #
coedge $-1 $572 $486 $579 $661 forward $561 $-1 #
straight-curve $-1 57.170934171575063 0 -10.569344958444885 0 -1 0 I I #
point $-1 57.170934171575063 25.985408304010711 -10.569344958444885 #
coedge $-1 $491 $565 $493 $589 forward $561 $-1 #
straight-curve $-1 0 25.985408304010711 -10.569344958444885 1 0 0 I I #
edge $-1 $593 -16.419342055557582 $494 25.985408304010711 $493 $660 forward 7 unknown #
point $-1 -57.170934171575063 25.985408304010711 -10.569344958444885 #
straight-curve $-1 -47.519564579115418 -9.2148184105803299 10.569344958444885 0 -1 0 I I #
point $-1 -47.519564579115418 -16.419342055557582 10.569344958444885 #
vertex $-1 $589 $664 #
straight-curve $-1 -57.170934171575063 -16.419342055557582 0 0 0 1 I I #
face $-1 $665 $666 $18 $-1 $667 reversed single #
loop $-1 $-1 $668 $504 #
plane-surface $-1 -47.519564579115418 -18.42963682116066 0 -1 0 0 0 0 1 forward_v I I I I #
coedge $-1 $620 $669 $670 $671 reversed $505 $-1 #
coedge $-1 $672 $507 $673 $674 reversed $415 $-1 #
coedge $-1 $507 $672 $675 $676 reversed $415 $-1 #
coedge $-1 $677 $678 $507 $602 forward $666 $-1 #
edge $-1 $679 -10.569344958444885 $680 10.569344958444885 $601 $681 forward 7 unknown #
coedge $-1 $508 $673 $678 $682 forward $245 $-1 #
coedge $-1 $683 $684 $508 $605 reversed $685 $-1 #
edge $-1 $686 -57.170934171575063 $608 57.170934171575063 $604 $687 forward 7 unknown #
coedge $-1 $688 $509 $684 $689 forward $607 $-1 #
loop $-1 $-1 $513 $690 #
vertex $-1 $510 $691 #
straight-curve $-1 57.170934171575063 0 10.569344958444885 0 1 0 I I #
point $-1 57.170934171575063 20.403693304269051 10.569344958444887 #
coedge $-1 $513 $688 $517 $616 reversed $607 $-1 #
vertex $-1 $616 $692 #
straight-curve $-1 57.170934171575063 7.9235429898817209 29.071929271996936 0 -0.55919289150049634 0.82903758062907751 I I #
straight-curve $-1 24.926315776339091 25.985408304010711 2.2941119047308085 1 0 0 I I #
coedge $-1 $518 $517 $693 $694 reversed $332 $-1 #
edge $-1 $612 -2.2941119047308121 $695 10.569344958444885 $611 $696 forward 7 unknown #
coedge $-1 $697 $520 $518 $618 forward $623 $-1 #
edge $-1 $522 -10.569344958444885 $698 10.569344958444885 $518 $699 forward 7 unknown #
coedge $-1 $673 $519 $700 $701 forward $245 $-1 #
coedge $-1 $702 $598 $519 $621 reversed $505 $-1 #
edge $-1 $624 -30.998309483902442 $703 -21.346939891442798 $519 $704 forward 7 unknown #
coedge $-1 $520 $697 $702 $705 forward $623 $-1 #
loop $-1 $-1 $622 $706 #
vertex $-1 $705 $707 #
straight-curve $-1 -57.170934171575063 0 10.569344958444885 0 -1 0 I I #
point $-1 -57.170934171575063 25.985408304010711 10.569344958444885 #
face $-1 $708 $709 $19 $-1 $710 forward single #
loop $-1 $-1 $711 $524 #
plane-surface $-1 -52.34524937534524 -20.439931586763738 0 0 1 0 0 0 1 forward_v I I I I #
coedge $-1 $527 $712 $713 $714 forward $432 $-1 #
coedge $-1 $528 $538 $634 $715 reversed $355 $-1 #
vertex $-1 $715 $716 #
straight-curve $-1 42.534328933781303 -3.0763029086708258 45.379871968762401 0 0.55919289150049634 -0.82903758062907751 I I #
coedge $-1 $717 $530 $631 $715 forward $525 $-1 #
coedge $-1 $530 $718 $532 $638 reversed $525 $-1 #
straight-curve $-1 42.534328933781303 25.985408304010711 54.659515973568794 0 0 -1 I I #
coedge $-1 $719 $532 $720 $721 forward $432 $-1 #
edge $-1 $534 -42.534328933781303 $722 57.170934171575063 $635 $723 forward 7 unknown #
point $-1 42.534328933781303 20.403693304269051 10.569344958444887 #
point $-1 42.534328933781303 25.985408304010711 10.569344958444885 #
point $-1 46.716216144579526 17.42467239770443 2.5398964265144048 #
coedge $-1 $713 $724 $538 $643 forward $725 $-1 #
edge $-1 $726 -32.299883615585912 $644 -22.318149075355791 $642 $727 forward 7 unknown #
vertex $-1 $643 $728 #
straight-curve $-1 24.926315776339091 20.403693304269055 10.569344958444884 -1 0 0 I I #
plane-surface $-1 57.170934171575063 0 0 -1 0 0 0 0 1 forward_v I I I I #
edge $-1 $545 -10.569344958444885 $549 10.569344958444885 $553 $729 forward 7 unknown #
point $-1 57.170934171575063 25.985408304010711 10.569344958444885 #
straight-curve $-1 -57.170934171575063 25.985408304010711 0 0 0 -1 I I #
point $-1 57.170934171575063 25.985408304010711 -10.569344958444885 #
straight-curve $-1 57.170934171575063 -25.985408304010711 0 0 0 -1 I I #
plane-surface $-1 0 -25.985408304010711 0 0 1 0 0 0 1 forward_v I I I I #
edge $-1 $573 -11.225113176183408 $567 -7.2045236449772521 $571 $730 forward 7 unknown #
straight-curve $-1 -47.519564579115418 -20.439931586763738 0 0 0 -1 I I #
straight-curve $-1 -26.17262468767262 -16.419342055557582 -10.569344958444885 -1 0 0 I I #
point $-1 -47.519564579115418 -16.419342055557582 -10.569344958444885 #
point $-1 -47.519564579115418 -20.439931586763738 10.569344958444885 #
point $-1 -47.519564579115418 -20.439931586763738 -10.569344958444885 #
vertex $-1 $576 $731 #
straight-curve $-1 -57.170934171575063 0 -10.569344958444885 0 1 0 I I #
edge $-1 $582 -57.170934171575063 $659 57.170934171575063 $579 $732 forward 7 unknown #
straight-curve $-1 -57.170934171575063 -25.985408304010711 0 0 0 -1 I I #
point $-1 57.170934171575063 -25.985408304010711 -10.569344958444885 #
point $-1 -57.170934171575063 -16.419342055557582 -10.569344958444885 #
face $-1 $733 $734 $18 $-1 $735 reversed single #
loop $-1 $-1 $601 $595 #
plane-surface $-1 -57.170934171575063 0 0 1 0 0 0 0 -1 forward_v I I I I #
coedge $-1 $700 $736 $672 $737 reversed $596 $-1 #
coedge $-1 $598 $702 $738 $739 reversed $505 $-1 #
coedge $-1 $736 $700 $598 $671 forward $596 $-1 #
edge $-1 $703 -10.569344958444885 $740 10.569344958444885 $670 $741 forward 7 unknown #
coedge $-1 $600 $599 $668 $737 forward $415 $-1 #
coedge $-1 $603 $619 $599 $674 forward $245 $-1 #
edge $-1 $742 21.346939891442798 $679 30.998309483902442 $673 $743 forward 7 unknown #
coedge $-1 $744 $745 $600 $676 forward $734 $-1 #
edge $-1 $680 -30.998309483902442 $746 -21.346939891442798 $675 $747 forward 7 unknown #
coedge $-1 $748 $601 $745 $749 reversed $666 $-1 #
coedge $-1 $601 $748 $603 $682 reversed $666 $-1 #
vertex $-1 $682 $750 #
vertex $-1 $602 $751 #
straight-curve $-1 -57.170934171575063 -20.439931586763738 0 0 0 -1 I I #
edge $-1 $679 20.439931586763738 $686 25.985408304010711 $678 $625 forward 7 unknown #
coedge $-1 $752 $604 $748 $753 forward $685 $-1 #
coedge $-1 $604 $752 $606 $689 reversed $685 $-1 #
loop $-1 $-1 $683 $733 #
vertex $-1 $682 $754 #
straight-curve $-1 0 -25.985408304010711 10.569344958444885 1 0 0 I I #
coedge $-1 $611 $606 $755 $756 reversed $607 $-1 #
edge $-1 $608 -10.569344958444885 $757 10.569344958444885 $606 $758 forward 7 unknown #
face $-1 $-1 $607 $18 $-1 $759 reversed single #
point $-1 57.170934171575063 -25.985408304010711 10.569344958444885 #
point $-1 57.170934171575063 25.985408304010711 2.2941119047308121 #
coedge $-1 $755 $760 $615 $694 forward $734 $-1 #
edge $-1 $698 -57.170934171575063 $695 57.170934171575063 $615 $761 forward 7 unknown #
vertex $-1 $756 $762 #
straight-curve $-1 57.170934171575063 25.985408304010711 0 0 0 -1 I I #
coedge $-1 $622 $617 $760 $763 reversed $623 $-1 #
vertex $-1 $694 $764 #
straight-curve $-1 -57.170934171575063 25.985408304010711 0 0 0 -1 I I #
coedge $-1 $670 $668 $619 $701 reversed $596 $-1 #
edge $-1 $703 7.2045236449772521 $742 11.225113176183408 $619 $765 forward 7 unknown #
coedge $-1 $669 $620 $622 $705 reversed $505 $-1 #
vertex $-1 $621 $766 #
straight-curve $-1 -26.17262468767262 -16.419342055557582 10.569344958444885 1 0 0 I I #
edge $-1 $767 -10.569344958444885 $624 10.569344958444885 $622 $768 forward 7 unknown #
face $-1 $690 $623 $18 $-1 $667 reversed single #
point $-1 -57.170934171575063 -16.419342055557582 10.569344958444885 #
face $-1 $769 $770 $19 $-1 $771 forward single #
loop $-1 $-1 $772 $627 #
plane-surface $-1 -52.34524937534524 -16.419342055557582 0 0 -1 0 0 0 -1 forward_v I I I I #
coedge $-1 $773 $774 $775 $776 reversed $628 $-1 #
coedge $-1 $630 $777 $778 $779 forward $432 $-1 #
coedge $-1 $780 $642 $630 $714 reversed $725 $-1 #
edge $-1 $781 -25.985408304010711 $644 20.403693304269051 $713 $782 forward 7 unknown #
edge $-1 $632 17.608013157442212 $726 32.244618395235975 $634 $783 forward 7 unknown #
point $-1 42.534328933781303 25.985408304010711 2.2941119047308121 #
coedge $-1 $784 $634 $724 $785 forward $525 $-1 #
coedge $-1 $635 $784 $786 $787 reversed $525 $-1 #
coedge $-1 $788 $637 $789 $790 forward $432 $-1 #
coedge $-1 $786 $791 $637 $721 reversed $792 $-1 #
edge $-1 $722 -25.985408304010711 $793 16.419342055557582 $720 $794 forward 7 unknown #
vertex $-1 $638 $795 #
straight-curve $-1 0 25.985408304010711 10.569344958444885 -1 0 0 I I #
coedge $-1 $642 $796 $717 $785 reversed $725 $-1 #
loop $-1 $-1 $642 $797 #
vertex $-1 $785 $798 #
straight-curve $-1 57.170934171575063 7.9235429898817209 29.071929271996936 0 -0.55919289150049634 0.82903758062907751 I I #
point $-1 57.170934171575063 20.403693304269051 10.569344958444887 #
straight-curve $-1 57.170934171575063 25.985408304010711 0 0 0 -1 I I #
straight-curve $-1 -47.519564579115418 -9.2148184105803299 -10.569344958444885 0 1 0 I I #
point $-1 -57.170934171575063 -25.985408304010711 -10.569344958444885 #
straight-curve $-1 0 -25.985408304010711 -10.569344958444885 -1 0 0 I I #
face $-1 $706 $685 $18 $-1 $799 reversed single #
loop $-1 $-1 $738 $665 #
plane-surface $-1 0 0 -10.569344958444885 0 0 1 1 0 0 forward_v I I I I #
coedge $-1 $668 $670 $744 $800 reversed $596 $-1 #
edge $-1 $742 -10.569344958444885 $746 10.569344958444885 $668 $801 forward 7 unknown #
coedge $-1 $760 $744 $669 $739 forward $734 $-1 #
edge $-1 $740 21.346939891442798 $767 30.998309483902442 $738 $802 forward 7 unknown #
vertex $-1 $739 $803 #
straight-curve $-1 -47.519564579115418 -16.419342055557582 0 0 0 -1 I I #
vertex $-1 $674 $804 #
straight-curve $-1 -26.17262468767262 -20.439931586763738 10.569344958444885 -1 0 0 I I #
coedge $-1 $738 $675 $736 $800 forward $734 $-1 #
coedge $-1 $675 $805 $677 $749 forward $734 $-1 #
vertex $-1 $676 $806 #
straight-curve $-1 -26.17262468767262 -20.439931586763738 -10.569344958444885 1 0 0 I I #
coedge $-1 $678 $677 $683 $753 reversed $666 $-1 #
edge $-1 $807 -25.985408304010711 $680 -20.439931586763738 $677 $808 forward 7 unknown #
point $-1 -57.170934171575063 -20.439931586763738 10.569344958444885 #
point $-1 -57.170934171575063 -20.439931586763738 -10.569344958444885 #
coedge $-1 $684 $683 $805 $809 reversed $685 $-1 #
edge $-1 $686 -10.569344958444885 $807 10.569344958444885 $748 $810 forward 7 unknown #
point $-1 -57.170934171575063 -25.985408304010711 10.569344958444885 #
coedge $-1 $805 $693 $688 $756 forward $734 $-1 #
edge $-1 $695 -25.985408304010711 $757 25.985408304010711 $688 $811 forward 7 unknown #
vertex $-1 $689 $812 #
straight-curve $-1 57.170934171575063 -25.985408304010711 0 0 0 -1 I I #
plane-surface $-1 57.170934171575063 0 0 -1 0 0 0 0 1 forward_v I I I I #
coedge $-1 $693 $738 $697 $763 forward $734 $-1 #
straight-curve $-1 0 25.985408304010711 -10.569344958444885 1 0 0 I I #
point $-1 57.170934171575063 25.985408304010711 -10.569344958444885 #
edge $-1 $767 -16.419342055557582 $698 25.985408304010711 $697 $808 forward 7 unknown #
point $-1 -57.170934171575063 25.985408304010711 -10.569344958444885 #
straight-curve $-1 -47.519564579115418 -9.2148184105803299 10.569344958444885 0 -1 0 I I #
point $-1 -47.519564579115418 -16.419342055557582 10.569344958444885 #
vertex $-1 $763 $813 #
straight-curve $-1 -57.170934171575063 -16.419342055557582 0 0 0 1 I I #
face $-1 $814 $815 $19 $-1 $816 reversed single #
loop $-1 $-1 $817 $708 #
plane-surface $-1 -47.519564579115418 -18.42963682116066 0 -1 0 0 0 0 1 forward_v I I I I #
coedge $-1 $789 $818 $819 $820 reversed $709 $-1 #
coedge $-1 $821 $711 $822 $823 reversed $628 $-1 #
coedge $-1 $711 $821 $824 $825 reversed $628 $-1 #
coedge $-1 $826 $827 $711 $776 forward $815 $-1 #
edge $-1 $828 -10.569344958444885 $829 10.569344958444885 $775 $830 forward 7 unknown #
coedge $-1 $712 $822 $827 $831 forward $432 $-1 #
coedge $-1 $832 $833 $712 $779 reversed $834 $-1 #
edge $-1 $835 -57.170934171575063 $781 57.170934171575063 $778 $836 forward 7 unknown #
coedge $-1 $796 $713 $833 $837 forward $725 $-1 #
vertex $-1 $714 $838 #
straight-curve $-1 57.170934171575063 0 10.569344958444885 0 1 0 I I #
straight-curve $-1 24.926315776339091 25.985408304010711 2.2941119047308085 1 0 0 I I #
coedge $-1 $718 $717 $839 $840 reversed $525 $-1 #
edge $-1 $726 -2.2941119047308121 $841 10.569344958444885 $724 $842 forward 7 unknown #
coedge $-1 $843 $720 $718 $787 forward $792 $-1 #
edge $-1 $722 -10.569344958444885 $844 10.569344958444885 $718 $845 forward 7 unknown #
coedge $-1 $822 $719 $846 $847 forward $432 $-1 #
coedge $-1 $848 $772 $719 $790 reversed $709 $-1 #
edge $-1 $793 -30.998309483902442 $849 -21.346939891442798 $719 $850 forward 7 unknown #
coedge $-1 $720 $843 $848 $851 forward $792 $-1 #
loop $-1 $-1 $791 $852 #
vertex $-1 $851 $853 #
straight-curve $-1 -57.170934171575063 0 10.569344958444885 0 -1 0 I I #
point $-1 -57.170934171575063 25.985408304010711 10.569344958444885 #
coedge $-1 $724 $780 $854 $855 reversed $725 $-1 #
face $-1 $-1 $725 $19 $-1 $856 reversed single #
point $-1 57.170934171575063 25.985408304010711 2.2941119047308121 #
plane-surface $-1 0 -25.985408304010711 0 0 1 0 0 0 1 forward_v I I I I #
edge $-1 $746 -11.225113176183408 $740 -7.2045236449772521 $744 $857 forward 7 unknown #
straight-curve $-1 -47.519564579115418 -20.439931586763738 0 0 0 -1 I I #
straight-curve $-1 -26.17262468767262 -16.419342055557582 -10.569344958444885 -1 0 0 I I #
point $-1 -47.519564579115418 -16.419342055557582 -10.569344958444885 #
point $-1 -47.519564579115418 -20.439931586763738 10.569344958444885 #
coedge $-1 $745 $755 $752 $809 forward $734 $-1 #
point $-1 -47.519564579115418 -20.439931586763738 -10.569344958444885 #
vertex $-1 $749 $858 #
straight-curve $-1 -57.170934171575063 0 -10.569344958444885 0 1 0 I I #
edge $-1 $757 -57.170934171575063 $807 57.170934171575063 $752 $859 forward 7 unknown #
straight-curve $-1 -57.170934171575063 -25.985408304010711 0 0 0 -1 I I #
straight-curve $-1 57.170934171575063 0 -10.569344958444885 0 -1 0 I I #
point $-1 57.170934171575063 -25.985408304010711 -10.569344958444885 #
point $-1 -57.170934171575063 -16.419342055557582 -10.569344958444885 #
face $-1 $860 $861 $19 $-1 $862 reversed single #
loop $-1 $-1 $775 $769 #
plane-surface $-1 -57.170934171575063 0 0 1 0 0 0 0 -1 forward_v I I I I #
coedge $-1 $846 $863 $821 $864 reversed $770 $-1 #
coedge $-1 $772 $848 $865 $866 reversed $709 $-1 #
coedge $-1 $863 $846 $772 $820 forward $770 $-1 #
edge $-1 $849 -10.569344958444885 $867 10.569344958444885 $819 $868 forward 7 unknown #
coedge $-1 $774 $773 $817 $864 forward $628 $-1 #
coedge $-1 $777 $788 $773 $823 forward $432 $-1 #
edge $-1 $869 21.346939891442798 $828 30.998309483902442 $822 $870 forward 7 unknown #
coedge $-1 $871 $872 $774 $825 forward $861 $-1 #
edge $-1 $829 -30.998309483902442 $873 -21.346939891442798 $824 $874 forward 7 unknown #
coedge $-1 $875 $775 $872 $876 reversed $815 $-1 #
coedge $-1 $775 $875 $777 $831 reversed $815 $-1 #
vertex $-1 $831 $877 #
vertex $-1 $776 $878 #
straight-curve $-1 -57.170934171575063 -20.439931586763738 0 0 0 -1 I I #
edge $-1 $828 20.439931586763738 $835 25.985408304010711 $827 $794 forward 7 unknown #
coedge $-1 $879 $778 $875 $880 forward $834 $-1 #
coedge $-1 $778 $879 $780 $837 reversed $834 $-1 #
loop $-1 $-1 $832 $860 #
vertex $-1 $831 $881 #
straight-curve $-1 0 -25.985408304010711 10.569344958444885 1 0 0 I I #
edge $-1 $781 -10.569344958444885 $882 10.569344958444885 $780 $883 forward 7 unknown #
point $-1 57.170934171575063 -25.985408304010711 10.569344958444885 #
coedge $-1 $854 $884 $784 $840 forward $861 $-1 #
edge $-1 $844 -57.170934171575063 $841 57.170934171575063 $784 $885 forward 7 unknown #
vertex $-1 $855 $886 #
straight-curve $-1 57.170934171575063 25.985408304010711 0 0 0 -1 I I #
coedge $-1 $791 $786 $884 $887 reversed $792 $-1 #
vertex $-1 $840 $888 #
straight-curve $-1 -57.170934171575063 25.985408304010711 0 0 0 -1 I I #
coedge $-1 $819 $817 $788 $847 reversed $770 $-1 #
edge $-1 $849 7.2045236449772521 $869 11.225113176183408 $788 $889 forward 7 unknown #
coedge $-1 $818 $789 $791 $851 reversed $709 $-1 #
vertex $-1 $790 $890 #
straight-curve $-1 -26.17262468767262 -16.419342055557582 10.569344958444885 1 0 0 I I #
edge $-1 $891 -10.569344958444885 $793 10.569344958444885 $791 $892 forward 7 unknown #
face $-1 $797 $792 $19 $-1 $816 reversed single #
point $-1 -57.170934171575063 -16.419342055557582 10.569344958444885 #
coedge $-1 $893 $839 $796 $855 forward $861 $-1 #
edge $-1 $841 -25.985408304010711 $882 25.985408304010711 $796 $894 forward 7 unknown #
plane-surface $-1 57.170934171575063 0 0 -1 0 0 0 0 1 forward_v I I I I #
straight-curve $-1 -47.519564579115418 -9.2148184105803299 -10.569344958444885 0 1 0 I I #
point $-1 -57.170934171575063 -25.985408304010711 -10.569344958444885 #
straight-curve $-1 0 -25.985408304010711 -10.569344958444885 -1 0 0 I I #
face $-1 $852 $834 $19 $-1 $895 reversed single #
loop $-1 $-1 $865 $814 #
plane-surface $-1 0 0 -10.569344958444885 0 0 1 1 0 0 forward_v I I I I #
coedge $-1 $817 $819 $871 $896 reversed $770 $-1 #
edge $-1 $869 -10.569344958444885 $873 10.569344958444885 $817 $897 forward 7 unknown #
coedge $-1 $884 $871 $818 $866 forward $861 $-1 #
edge $-1 $867 21.346939891442798 $891 30.998309483902442 $865 $898 forward 7 unknown #
vertex $-1 $866 $899 #
straight-curve $-1 -47.519564579115418 -16.419342055557582 0 0 0 -1 I I #
vertex $-1 $823 $900 #
straight-curve $-1 -26.17262468767262 -20.439931586763738 10.569344958444885 -1 0 0 I I #
coedge $-1 $865 $824 $863 $896 forward $861 $-1 #
coedge $-1 $824 $893 $826 $876 forward $861 $-1 #
vertex $-1 $825 $901 #
straight-curve $-1 -26.17262468767262 -20.439931586763738 -10.569344958444885 1 0 0 I I #
coedge $-1 $827 $826 $832 $880 reversed $815 $-1 #
edge $-1 $902 -25.985408304010711 $829 -20.439931586763738 $826 $903 forward 7 unknown #
point $-1 -57.170934171575063 -20.439931586763738 10.569344958444885 #
point $-1 -57.170934171575063 -20.439931586763738 -10.569344958444885 #
coedge $-1 $833 $832 $893 $904 reversed $834 $-1 #
edge $-1 $835 -10.569344958444885 $902 10.569344958444885 $875 $905 forward 7 unknown #
point $-1 -57.170934171575063 -25.985408304010711 10.569344958444885 #
vertex $-1 $837 $906 #
straight-curve $-1 57.170934171575063 -25.985408304010711 0 0 0 -1 I I #
coedge $-1 $839 $865 $843 $887 forward $861 $-1 #
straight-curve $-1 0 25.985408304010711 -10.569344958444885 1 0 0 I I #
point $-1 57.170934171575063 25.985408304010711 -10.569344958444885 #
edge $-1 $891 -16.419342055557582 $844 25.985408304010711 $843 $903 forward 7 unknown #
point $-1 -57.170934171575063 25.985408304010711 -10.569344958444885 #
straight-curve $-1 -47.519564579115418 -9.2148184105803299 10.569344958444885 0 -1 0 I I #
point $-1 -47.519564579115418 -16.419342055557582 10.569344958444885 #
vertex $-1 $887 $907 #
straight-curve $-1 -57.170934171575063 -16.419342055557582 0 0 0 1 I I #
coedge $-1 $872 $854 $879 $904 forward $861 $-1 #
straight-curve $-1 57.170934171575063 0 -10.569344958444885 0 -1 0 I I #
plane-surface $-1 0 -25.985408304010711 0 0 1 0 0 0 1 forward_v I I I I #
edge $-1 $873 -11.225113176183408 $867 -7.2045236449772521 $871 $908 forward 7 unknown #
straight-curve $-1 -47.519564579115418 -20.439931586763738 0 0 0 -1 I I #
straight-curve $-1 -26.17262468767262 -16.419342055557582 -10.569344958444885 -1 0 0 I I #
point $-1 -47.519564579115418 -16.419342055557582 -10.569344958444885 #
point $-1 -47.519564579115418 -20.439931586763738 10.569344958444885 #
point $-1 -47.519564579115418 -20.439931586763738 -10.569344958444885 #
vertex $-1 $876 $909 #
straight-curve $-1 -57.170934171575063 0 -10.569344958444885 0 1 0 I I #
edge $-1 $882 -57.170934171575063 $902 57.170934171575063 $879 $910 forward 7 unknown #
straight-curve $-1 -57.170934171575063 -25.985408304010711 0 0 0 -1 I I #
point $-1 57.170934171575063 -25.985408304010711 -10.569344958444885 #
point $-1 -57.170934171575063 -16.419342055557582 -10.569344958444885 #
straight-curve $-1 -47.519564579115418 -9.2148184105803299 -10.569344958444885 0 1 0 I I #
point $-1 -57.170934171575063 -25.985408304010711 -10.569344958444885 #
straight-curve $-1 0 -25.985408304010711 -10.569344958444885 -1 0 0 I I #
End-of-ACIS-data 