500 0 5 0           
7 Unknown 11 ACIS 5.0 NT 24 Fri Mar 26 20:14:44 1999 
-1 9.9999999999999995e-007 1e-010 
body $-1 $5 $-1 $6 #
body $-1 $7 $-1 $8 #
body $-1 $9 $-1 $10 #
body $-1 $11 $-1 $12 #
body $-1 $13 $-1 $14 #
lump $-1 $-1 $15 $0 #
transform $-1 1 0 0 0 1 0 0 0 1 51.418805505539112 27.587608518008352 7.2095538346677248 1 rotate no_reflect no_shear #
lump $-1 $-1 $16 $1 #
transform $-1 1 0 0 0 1 0 0 0 1 51.418805505539112 27.587608518008352 7.2095538346677248 1 rotate no_reflect no_shear #
lump $-1 $-1 $17 $2 #
transform $-1 1 0 0 0 1 0 0 0 1 51.418805505539112 27.587608518008352 7.2095538346677248 1 rotate no_reflect no_shear #
lump $-1 $-1 $18 $3 #
transform $-1 1 0 0 0 1 0 0 0 1 51.418805505539112 27.587608518008352 7.2095538346677248 1 rotate no_reflect no_shear #
lump $-1 $-1 $19 $4 #
transform $-1 1 0 0 0 1 0 0 0 1 51.418805505539112 27.587608518008352 7.2095538346677248 1 rotate no_reflect no_shear #
shell $-1 $-1 $-1 $20 $-1 $5 #
shell $-1 $-1 $-1 $21 $-1 $7 #
shell $-1 $-1 $-1 $22 $-1 $9 #
shell $-1 $-1 $-1 $23 $-1 $11 #
shell $-1 $-1 $-1 $24 $-1 $13 #
face $-1 $25 $26 $15 $-1 $27 forward single #
face $-1 $28 $29 $16 $-1 $30 reversed single #
face $-1 $31 $32 $17 $-1 $33 forward single #
face $-1 $34 $35 $18 $-1 $36 reversed single #
face $-1 $37 $38 $19 $-1 $39 forward single #
face $-1 $40 $41 $15 $-1 $42 reversed single #
loop $-1 $-1 $43 $20 #
plane-surface $-1 0 0 7.2095538346677248 0 0 1 1 0 0 forward_v I I I I #
face $-1 $44 $45 $16 $-1 $46 reversed single #
loop $-1 $-1 $47 $21 #
plane-surface $-1 89.05998577331259 -8.5521320079297283 141.59248895951649 0 -1 0 -0.86602541151947299 0 -0.49999998660252726 forward_v I I I I #
face $-1 $48 $49 $17 $-1 $50 forward single #
loop $-1 $51 $52 $22 #
cone-surface $-1 49.226071562373271 -14.77150334633793 3.9116271421290758 -0.86602541151947299 0 -0.49999998660252726 0.24999999330126363 0 -0.43301270575973649 1 I I 0 1 0.5 forward I I I I #
face $-1 $53 $54 $18 $-1 $55 reversed single #
loop $-1 $-1 $56 $23 #
plane-surface $-1 89.05998577331259 20.990874684746125 141.59248895951649 0 -1 0 -0.86602541151947299 0 -0.49999998660252726 forward_v I I I I #
face $-1 $57 $58 $19 $-1 $59 forward single #
loop $-1 $60 $61 $24 #
cone-surface $-1 49.226071562373271 14.771503346337923 3.9116271421290758 -0.86602541151947299 0 -0.49999998660252726 0.24999999330126363 0 -0.43301270575973649 1 I I 0 1 0.5 forward I I I I #
face $-1 $62 $63 $15 $-1 $64 reversed single #
loop $-1 $-1 $65 $25 #
plane-surface $-1 0 0 -7.2095538346677248 0 0 1 1 0 0 forward_v I I I I #
coedge $-1 $66 $67 $68 $69 forward $26 $-1 #
face $-1 $70 $71 $16 $-1 $72 reversed single #
loop $-1 $-1 $73 $28 #
plane-surface $-1 1.3777640788248391e-006 -14.77150334633793 90.173684831741468 0.86602541151947299 0 0.49999998660252726 0.49999998660252726 0 -0.86602541151947299 forward_v I I I I #
coedge $-1 $74 $75 $76 $77 reversed $29 $-1 #
face $-1 $-1 $78 $17 $-1 $79 forward single #
loop $-1 $80 $81 $31 #
cone-surface $-1 48.576552503733666 -14.77150334633793 3.5366271521771804 -0.86602541151947299 0 -0.49999998660252726 0.12499999665063181 0 -0.21650635287986825 1 I I -0.70710678118654746 0.70710678118654746 0.25 forward I I I I #
loop $-1 $-1 $82 $22 #
coedge $-1 $52 $52 $83 $84 reversed $32 $-1 #
face $-1 $85 $86 $18 $-1 $87 reversed single #
loop $-1 $-1 $88 $34 #
plane-surface $-1 1.3777640788248391e-006 14.771503346337923 90.173684831741468 0.86602541151947299 0 0.49999998660252726 0.49999998660252726 0 -0.86602541151947299 forward_v I I I I #
coedge $-1 $89 $90 $91 $92 reversed $35 $-1 #
face $-1 $-1 $93 $19 $-1 $94 forward single #
loop $-1 $95 $96 $37 #
cone-surface $-1 48.576552503733666 14.771503346337923 3.5366271521771804 -0.86602541151947299 0 -0.49999998660252726 0.12499999665063181 0 -0.21650635287986825 1 I I -0.70710678118654746 0.70710678118654746 0.25 forward I I I I #
loop $-1 $-1 $97 $24 #
coedge $-1 $61 $61 $98 $99 reversed $38 $-1 #
face $-1 $100 $101 $15 $-1 $102 reversed single #
loop $-1 $-1 $103 $40 #
plane-surface $-1 0 -27.587608518008352 0 0 1 0 0 0 1 forward_v I I I I #
coedge $-1 $104 $105 $106 $107 forward $41 $-1 #
coedge $-1 $108 $43 $109 $110 forward $26 $-1 #
coedge $-1 $43 $108 $111 $112 forward $26 $-1 #
coedge $-1 $113 $114 $43 $69 reversed $115 $-1 #
edge $-1 $116 -27.587608518008352 $117 27.587608518008352 $68 $118 forward 7 unknown #
face $-1 $119 $120 $16 $-1 $121 forward single #
loop $-1 $-1 $122 $44 #
plane-surface $-1 89.05998577331259 -20.990874684746132 141.59248895951649 0 1 0 0.86602541151947299 0 0.49999998660252726 forward_v I I I I #
coedge $-1 $123 $124 $125 $126 reversed $45 $-1 #
coedge $-1 $75 $47 $127 $128 reversed $29 $-1 #
coedge $-1 $47 $74 $123 $129 reversed $29 $-1 #
coedge $-1 $125 $130 $47 $77 forward $120 $-1 #
edge $-1 $131 -6.8888126188828167 $132 -3.3693701440706008 $76 $133 forward 7 unknown #
loop $-1 $-1 $83 $48 #
plane-surface $-1 1.3777640788248391e-006 -14.77150334633793 90.173684831741468 0.86602541151947299 0 0.49999998660252726 0.49999998660252726 0 -0.86602541151947299 forward_v I I I I #
loop $-1 $-1 $134 $31 #
coedge $-1 $81 $81 $82 $135 reversed $49 $-1 #
coedge $-1 $82 $82 $81 $135 forward $51 $-1 #
coedge $-1 $83 $83 $52 $84 forward $78 $-1 #
edge $-1 $136 0 $136 6.2831853071796004 $83 $137 forward 7 unknown #
face $-1 $138 $139 $18 $-1 $140 reversed single #
loop $-1 $-1 $141 $53 #
plane-surface $-1 89.05998577331259 8.5521320079297212 141.59248895951649 0 1 0 0.86602541151947299 0 0.49999998660252726 forward_v I I I I #
coedge $-1 $142 $143 $144 $145 reversed $54 $-1 #
coedge $-1 $90 $56 $146 $147 reversed $35 $-1 #
coedge $-1 $56 $89 $142 $148 reversed $35 $-1 #
coedge $-1 $144 $149 $56 $92 forward $150 $-1 #
edge $-1 $151 -6.8888126188828167 $152 -3.3693701440706008 $91 $153 forward 7 unknown #
loop $-1 $-1 $98 $57 #
plane-surface $-1 1.3777640788248391e-006 14.771503346337923 90.173684831741468 0.86602541151947299 0 0.49999998660252726 0.49999998660252726 0 -0.86602541151947299 forward_v I I I I #
loop $-1 $-1 $154 $37 #
coedge $-1 $96 $96 $97 $155 reversed $58 $-1 #
coedge $-1 $97 $97 $96 $155 forward $60 $-1 #
coedge $-1 $98 $98 $61 $99 forward $93 $-1 #
edge $-1 $156 0 $156 6.2831853071796004 $98 $157 forward 7 unknown #
face $-1 $158 $159 $15 $-1 $160 reversed single #
loop $-1 $-1 $161 $62 #
plane-surface $-1 -51.418805505539112 0 0 1 0 0 0 0 -1 forward_v I I I I #
coedge $-1 $162 $111 $163 $164 forward $63 $-1 #
coedge $-1 $165 $65 $162 $166 forward $41 $-1 #
coedge $-1 $65 $165 $167 $168 forward $41 $-1 #
coedge $-1 $114 $113 $65 $107 reversed $115 $-1 #
edge $-1 $169 -27.587608518008352 $170 27.587608518008352 $106 $171 forward 7 unknown #
coedge $-1 $67 $66 $172 $173 forward $26 $-1 #
coedge $-1 $174 $175 $66 $110 reversed $159 $-1 #
edge $-1 $117 -51.418805505539112 $176 51.418805505539112 $109 $177 forward 7 unknown #
coedge $-1 $103 $178 $67 $112 reversed $63 $-1 #
edge $-1 $179 -51.418805505539112 $116 51.418805505539112 $111 $180 forward 7 unknown #
coedge $-1 $106 $68 $178 $181 forward $115 $-1 #
coedge $-1 $68 $106 $174 $182 reversed $115 $-1 #
loop $-1 $-1 $113 $158 #
vertex $-1 $69 $183 #
vertex $-1 $69 $184 #
straight-curve $-1 51.418805505539112 0 7.2095538346677248 0 1 0 I I #
face $-1 $-1 $185 $16 $-1 $186 reversed single #
loop $-1 $-1 $76 $70 #
plane-surface $-1 0 0 7.2095538346677248 0 0 1 1 0 0 forward_v I I I I #
coedge $-1 $187 $188 $189 $190 reversed $71 $-1 #
coedge $-1 $191 $73 $75 $129 forward $45 $-1 #
coedge $-1 $73 $191 $187 $192 forward $45 $-1 #
coedge $-1 $189 $76 $73 $126 forward $120 $-1 #
edge $-1 $132 1.1663803347607633 $193 13.605123011577167 $125 $194 forward 7 unknown #
coedge $-1 $195 $196 $74 $128 forward $185 $-1 #
edge $-1 $197 -69.682544043565301 $131 -63.58669064509052 $127 $198 forward 7 unknown #
edge $-1 $132 95.798725872847271 $197 102.83761101107825 $75 $199 forward 7 unknown #
coedge $-1 $76 $189 $195 $200 forward $120 $-1 #
vertex $-1 $128 $201 #
vertex $-1 $77 $202 #
straight-curve $-1 44.529992886656295 -8.5521320079297283 7.2095538346677301 -1 0 0 I I #
coedge $-1 $134 $134 $-1 $203 reversed $80 $-1 #
edge $-1 $204 0 $204 6.2831853071796004 $81 $205 forward 7 unknown #
vertex $-1 $84 $206 #
ellipse-curve $-1 49.659084268133 -14.77150334633793 4.1616271354303356 0.86602541151947299 0 0.49999998660252726 0.24999999330126363 0 -0.43301270575973649 1 I I #
face $-1 $-1 $150 $18 $-1 $207 forward single #
loop $-1 $-1 $208 $85 #
plane-surface $-1 51.418805505539112 0 0 -1 0 0 0 0 1 forward_v I I I I #
coedge $-1 $209 $210 $211 $212 reversed $86 $-1 #
coedge $-1 $213 $88 $90 $148 forward $54 $-1 #
coedge $-1 $88 $213 $209 $214 forward $54 $-1 #
coedge $-1 $211 $91 $88 $145 forward $150 $-1 #
edge $-1 $152 -13.605123011577163 $215 -1.1663803347607598 $144 $216 forward 7 unknown #
coedge $-1 $217 $218 $89 $147 forward $139 $-1 #
edge $-1 $219 -69.682544043565301 $151 -63.58669064509052 $146 $220 forward 7 unknown #
edge $-1 $152 95.798725872847271 $219 102.83761101107825 $90 $221 forward 7 unknown #
coedge $-1 $91 $211 $217 $222 forward $150 $-1 #
loop $-1 $-1 $211 $138 #
vertex $-1 $147 $223 #
vertex $-1 $92 $224 #
straight-curve $-1 44.529992886656295 20.990874684746125 7.2095538346677301 -1 0 0 I I #
coedge $-1 $154 $154 $-1 $225 reversed $95 $-1 #
edge $-1 $226 0 $226 6.2831853071796004 $96 $227 forward 7 unknown #
vertex $-1 $99 $228 #
ellipse-curve $-1 49.659084268133 14.771503346337923 4.1616271354303356 0.86602541151947299 0 0.49999998660252726 0.24999999330126363 0 -0.43301270575973649 1 I I #
face $-1 $-1 $115 $15 $-1 $229 reversed single #
loop $-1 $-1 $174 $100 #
plane-surface $-1 0 27.587608518008352 0 0 -1 0 0 0 -1 forward_v I I I I #
coedge $-1 $230 $172 $175 $231 forward $101 $-1 #
coedge $-1 $178 $103 $104 $166 reversed $63 $-1 #
coedge $-1 $172 $230 $103 $164 reversed $101 $-1 #
edge $-1 $179 -7.2095538346677248 $232 7.2095538346677248 $163 $233 forward 7 unknown #
coedge $-1 $105 $104 $230 $234 forward $41 $-1 #
edge $-1 $170 -51.418805505539112 $232 51.418805505539112 $162 $235 forward 7 unknown #
coedge $-1 $175 $174 $105 $168 reversed $159 $-1 #
edge $-1 $236 -51.418805505539112 $169 51.418805505539112 $167 $237 forward 7 unknown #
vertex $-1 $107 $238 #
vertex $-1 $181 $239 #
straight-curve $-1 51.418805505539112 0 -7.2095538346677248 0 -1 0 I I #
coedge $-1 $161 $163 $108 $173 reversed $101 $-1 #
edge $-1 $176 -27.587608518008352 $179 27.587608518008352 $172 $240 forward 7 unknown #
coedge $-1 $167 $109 $114 $182 forward $159 $-1 #
coedge $-1 $109 $167 $161 $231 reversed $159 $-1 #
vertex $-1 $110 $241 #
straight-curve $-1 0 27.587608518008352 7.2095538346677248 -1 0 0 I I #
coedge $-1 $111 $162 $113 $181 reversed $63 $-1 #
vertex $-1 $173 $242 #
straight-curve $-1 0 -27.587608518008352 7.2095538346677248 1 0 0 I I #
edge $-1 $116 -7.2095538346677248 $170 7.2095538346677248 $113 $243 forward 7 unknown #
edge $-1 $117 -7.2095538346677248 $169 7.2095538346677248 $114 $244 forward 7 unknown #
point $-1 51.418805505539112 -27.587608518008352 7.2095538346677248 #
point $-1 51.418805505539112 27.587608518008352 7.2095538346677248 #
loop $-1 $-1 $127 $119 #
plane-surface $-1 51.418805505539112 0 0 -1 0 0 0 0 1 forward_v I I I I #
coedge $-1 $188 $122 $124 $192 reversed $71 $-1 #
coedge $-1 $122 $187 $245 $246 reversed $71 $-1 #
coedge $-1 $130 $125 $122 $190 forward $120 $-1 #
edge $-1 $193 3.3693701440706008 $247 6.8888126188828167 $189 $248 forward 7 unknown #
coedge $-1 $124 $123 $196 $249 reversed $45 $-1 #
edge $-1 $250 -102.83761101107825 $193 -95.798725872847271 $187 $251 forward 7 unknown #
vertex $-1 $126 $252 #
straight-curve $-1 47.899363030726903 -7.385751673168965 7.209553834667723 0 -1 0 I I #
coedge $-1 $245 $127 $130 $200 reversed $185 $-1 #
coedge $-1 $127 $245 $191 $249 forward $185 $-1 #
vertex $-1 $128 $253 #
straight-curve $-1 51.418805505539112 -8.5521320079297283 70.796244479758244 0 0 1 I I #
straight-curve $-1 1.3777640788248391e-006 -8.5521320079297283 90.173684831741468 0.49999998660252726 0 -0.86602541151947299 I I #
edge $-1 $247 -20.990874684746132 $131 -8.5521320079297283 $195 $254 forward 7 unknown #
point $-1 51.418805505539112 -8.5521320079297283 7.2095538346677248 #
point $-1 47.899363030726896 -8.5521320079297283 7.2095538346677301 #
edge $-1 $255 1 $255 0 $134 $-1 forward 7 unknown #
vertex $-1 $135 $256 #
ellipse-curve $-1 48.793058856613534 -14.77150334633793 3.661627148827812 0.86602541151947299 0 0.49999998660252726 0.24999999330126363 0 -0.43301270575973649 1 I I #
point $-1 49.909084261434273 -14.77150334633793 3.728614429670603 #
plane-surface $-1 0 0 7.2095538346677248 0 0 1 1 0 0 forward_v I I I I #
coedge $-1 $218 $217 $210 $257 forward $139 $-1 #
coedge $-1 $210 $141 $143 $214 reversed $86 $-1 #
coedge $-1 $141 $209 $208 $257 reversed $86 $-1 #
coedge $-1 $149 $144 $141 $212 forward $150 $-1 #
edge $-1 $215 3.3693701440706008 $258 6.8888126188828167 $211 $259 forward 7 unknown #
coedge $-1 $143 $142 $218 $260 reversed $54 $-1 #
edge $-1 $261 -102.83761101107825 $215 -95.798725872847271 $209 $262 forward 7 unknown #
vertex $-1 $145 $263 #
straight-curve $-1 47.899363030726903 7.3857516731689614 7.209553834667723 0 -1 0 I I #
coedge $-1 $208 $146 $149 $222 reversed $139 $-1 #
coedge $-1 $146 $208 $213 $260 forward $139 $-1 #
vertex $-1 $147 $264 #
straight-curve $-1 51.418805505539112 20.990874684746125 70.796244479758244 0 0 1 I I #
straight-curve $-1 1.3777640788248391e-006 20.990874684746125 90.173684831741468 0.49999998660252726 0 -0.86602541151947299 I I #
edge $-1 $258 8.5521320079297212 $151 20.990874684746125 $217 $265 forward 7 unknown #
point $-1 51.418805505539112 20.990874684746125 7.2095538346677248 #
point $-1 47.899363030726896 20.990874684746125 7.2095538346677301 #
edge $-1 $266 1 $266 0 $154 $-1 forward 7 unknown #
vertex $-1 $155 $267 #
ellipse-curve $-1 48.793058856613534 14.771503346337923 3.661627148827812 0.86602541151947299 0 0.49999998660252726 0.24999999330126363 0 -0.43301270575973649 1 I I #
point $-1 49.909084261434273 14.771503346337923 3.728614429670603 #
plane-surface $-1 51.418805505539112 0 0 -1 0 0 0 0 1 forward_v I I I I #
coedge $-1 $163 $161 $165 $234 reversed $101 $-1 #
edge $-1 $176 -7.2095538346677248 $236 7.2095538346677248 $175 $268 forward 7 unknown #
vertex $-1 $234 $269 #
straight-curve $-1 -51.418805505539112 -27.587608518008352 0 0 0 -1 I I #
edge $-1 $232 -27.587608518008352 $236 27.587608518008352 $230 $270 forward 7 unknown #
straight-curve $-1 0 -27.587608518008352 -7.2095538346677248 -1 0 0 I I #
vertex $-1 $168 $271 #
straight-curve $-1 0 27.587608518008352 -7.2095538346677248 1 0 0 I I #
point $-1 51.418805505539112 27.587608518008352 -7.2095538346677248 #
point $-1 51.418805505539112 -27.587608518008352 -7.2095538346677248 #
straight-curve $-1 -51.418805505539112 0 7.2095538346677248 0 -1 0 I I #
point $-1 -51.418805505539112 27.587608518008352 7.2095538346677248 #
point $-1 -51.418805505539112 -27.587608518008352 7.2095538346677248 #
straight-curve $-1 51.418805505539112 -27.587608518008352 0 0 0 -1 I I #
straight-curve $-1 51.418805505539112 27.587608518008352 0 0 0 -1 I I #
coedge $-1 $196 $195 $188 $246 forward $185 $-1 #
edge $-1 $247 63.58669064509052 $250 69.682544043565301 $245 $272 forward 7 unknown #
vertex $-1 $200 $273 #
straight-curve $-1 44.529992886656295 -20.990874684746132 7.2095538346677301 1 0 0 I I #
edge $-1 $250 -13.605123011577167 $197 -1.1663803347607633 $196 $274 forward 7 unknown #
vertex $-1 $249 $275 #
straight-curve $-1 1.3777640788248391e-006 -20.990874684746132 90.173684831741468 -0.49999998660252726 0 0.86602541151947299 I I #
point $-1 47.899363030726896 -20.990874684746132 7.2095538346677301 #
point $-1 51.418805505539112 -8.5521320079297283 1.1137004361929428 #
straight-curve $-1 51.418805505539112 0 7.2095538346677248 0 1 0 I I #
vertex $-1 $203 $276 #
point $-1 49.0430588499148 -14.77150334633793 3.2286144430680759 #
edge $-1 $258 63.58669064509052 $261 69.682544043565301 $208 $277 forward 7 unknown #
vertex $-1 $222 $278 #
straight-curve $-1 44.529992886656295 8.5521320079297212 7.2095538346677301 1 0 0 I I #
edge $-1 $261 1.1663803347607598 $219 13.605123011577163 $218 $279 forward 7 unknown #
vertex $-1 $260 $280 #
straight-curve $-1 1.3777640788248391e-006 8.5521320079297212 90.173684831741468 -0.49999998660252726 0 0.86602541151947299 I I #
point $-1 47.899363030726896 8.5521320079297212 7.2095538346677301 #
point $-1 51.418805505539112 20.990874684746125 1.1137004361929428 #
straight-curve $-1 51.418805505539112 0 7.2095538346677248 0 1 0 I I #
vertex $-1 $225 $281 #
point $-1 49.0430588499148 14.771503346337923 3.2286144430680759 #
straight-curve $-1 -51.418805505539112 27.587608518008352 0 0 0 -1 I I #
point $-1 -51.418805505539112 -27.587608518008352 -7.2095538346677248 #
straight-curve $-1 -51.418805505539112 0 -7.2095538346677248 0 1 0 I I #
point $-1 -51.418805505539112 27.587608518008352 -7.2095538346677248 #
straight-curve $-1 51.418805505539112 -20.990874684746132 70.796244479758244 0 0 -1 I I #
point $-1 51.418805505539112 -20.990874684746132 7.2095538346677248 #
straight-curve $-1 51.418805505539112 -7.385751673168965 1.1137004361929357 0 1 0 I I #
point $-1 51.418805505539112 -20.990874684746132 1.1137004361929428 #
point $-1 48.360046150853798 -14.77150334633793 3.4116271555265487 #
straight-curve $-1 51.418805505539112 8.5521320079297212 70.796244479758244 0 0 -1 I I #
point $-1 51.418805505539112 8.5521320079297212 7.2095538346677248 #
straight-curve $-1 51.418805505539112 7.3857516731689614 1.1137004361929357 0 1 0 I I #
point $-1 51.418805505539112 8.5521320079297212 1.1137004361929428 #
point $-1 48.360046150853798 14.771503346337923 3.4116271555265487 #
End-of-ACIS-data 