500 0 19 0           
7 Unknown 11 ACIS 5.0 NT 24 Thu Mar 25 21:46:20 1999 
-1 9.9999999999999995e-007 1e-010 
body $-1 $19 $-1 $20 #
body $-1 $21 $-1 $22 #
body $-1 $23 $-1 $24 #
body $-1 $25 $-1 $26 #
body $-1 $27 $-1 $28 #
body $-1 $29 $-1 $30 #
body $-1 $31 $-1 $32 #
body $-1 $33 $-1 $34 #
body $-1 $35 $-1 $36 #
body $-1 $37 $-1 $38 #
body $-1 $39 $-1 $40 #
body $-1 $41 $-1 $42 #
body $-1 $43 $-1 $44 #
body $-1 $45 $-1 $46 #
body $-1 $47 $-1 $48 #
body $-1 $49 $-1 $50 #
body $-1 $51 $-1 $52 #
body $-1 $53 $-1 $54 #
body $-1 $55 $-1 $56 #
lump $-1 $-1 $57 $0 #
transform $-1 1 0 0 0 1 0 0 0 1 70.840784936063727 33.187092781183701 7.0026416665884614 1 rotate no_reflect no_shear #
lump $-1 $-1 $58 $1 #
transform $-1 1 0 0 0 1 0 0 0 1 4.0916118753090824 33.187092781183701 2.14391139420129 1 rotate no_reflect no_shear #
lump $-1 $-1 $59 $2 #
transform $-1 1 0 0 0 1 0 0 0 1 137.58995799681838 33.187092781183701 2.14391139420129 1 rotate no_reflect no_shear #
lump $-1 $-1 $60 $3 #
transform $-1 1 0 0 0 0.82903756765294845 -0.55919291073839883 0 0.55919291073839883 0.82903756765294845 30.212109189121726 90.574821663577666 161.85622806722205 1 rotate no_reflect no_shear #
lump $-1 $-1 $61 $4 #
transform $-1 1 0 0 0 -0.82903756765294845 0.55919291073839883 0 -0.55919291073839883 -0.82903756765294845 22.680007560782272 59.143876028151126 7.3137645680720418 1 rotate no_reflect no_shear #
lump $-1 $-1 $62 $5 #
transform $-1 1 0 0 0 -0.82903756765294845 0.55919291073839883 0 -0.55919291073839883 -0.82903756765294845 30.212109189121726 59.143876028151126 7.3137645680720418 1 rotate no_reflect no_shear #
lump $-1 $-1 $63 $6 #
transform $-1 1 0 0 0 -0.82903756765294845 0.55919291073839883 0 -0.55919291073839883 -0.82903756765294845 37.74421081746118 59.143876028151126 7.3137645680720418 1 rotate no_reflect no_shear #
lump $-1 $-1 $64 $7 #
transform $-1 1 0 0 0 0.65605901945558964 0.75470958851134928 0 -0.75470958851134928 0.65605901945558964 19.082444440373511 -106.92843929783528 103.23750851428332 1 rotate no_reflect no_shear #
lump $-1 $-1 $65 $8 #
transform $-1 1 0 0 0 -0.65605901945558964 -0.75470958851134928 0 0.75470958851134928 -0.65605901945558964 15.415047549124978 3.0750111229901949 10.877835526491893 1 rotate no_reflect no_shear #
lump $-1 $-1 $66 $9 #
transform $-1 1 0 0 0 -0.65605901945558964 -0.75470958851134928 0 0.75470958851134928 -0.65605901945558964 22.749841331622044 3.0750111229901949 10.877835526491893 1 rotate no_reflect no_shear #
lump $-1 $-1 $67 $10 #
transform $-1 1 0 0 0 0.65605901945558964 0.75470958851134928 0 -0.75470958851134928 0.65605901945558964 53.588004770833649 -106.92843929783528 103.23750851428332 1 rotate no_reflect no_shear #
lump $-1 $-1 $68 $11 #
transform $-1 1 0 0 0 -0.65605901945558964 -0.75470958851134928 0 0.75470958851134928 -0.65605901945558964 49.92060787958512 3.0750111229901949 10.877835526491893 1 rotate no_reflect no_shear #
lump $-1 $-1 $69 $12 #
transform $-1 1 0 0 0 -0.65605901945558964 -0.75470958851134928 0 0.75470958851134928 -0.65605901945558964 57.255401662082186 3.0750111229901949 10.877835526491893 1 rotate no_reflect no_shear #
lump $-1 $-1 $70 $13 #
transform $-1 1 0 0 0 0.65605901945558964 0.75470958851134928 0 -0.75470958851134928 0.65605901945558964 88.093565101293791 -106.92843929783528 103.23750851428332 1 rotate no_reflect no_shear #
lump $-1 $-1 $71 $14 #
transform $-1 1 0 0 0 -0.65605901945558964 -0.75470958851134928 0 0.75470958851134928 -0.65605901945558964 84.426168210045262 3.0750111229901949 10.877835526491893 1 rotate no_reflect no_shear #
lump $-1 $-1 $72 $15 #
transform $-1 1 0 0 0 -0.65605901945558964 -0.75470958851134928 0 0.75470958851134928 -0.65605901945558964 91.76096199254232 3.0750111229901949 10.877835526491893 1 rotate no_reflect no_shear #
lump $-1 $-1 $73 $16 #
transform $-1 1 0 0 0 0.65605901945558964 0.75470958851134928 0 -0.75470958851134928 0.65605901945558964 122.59912543175393 -106.92843929783528 103.23750851428332 1 rotate no_reflect no_shear #
lump $-1 $-1 $74 $17 #
transform $-1 1 0 0 0 -0.65605901945558964 -0.75470958851134928 0 0.75470958851134928 -0.65605901945558964 118.9317285405054 3.0750111229901949 10.877835526491893 1 rotate no_reflect no_shear #
lump $-1 $-1 $75 $18 #
transform $-1 1 0 0 0 -0.65605901945558964 -0.75470958851134928 0 0.75470958851134928 -0.65605901945558964 126.26652232300246 3.0750111229901949 10.877835526491893 1 rotate no_reflect no_shear #
shell $-1 $-1 $-1 $76 $-1 $19 #
shell $-1 $-1 $-1 $77 $-1 $21 #
shell $-1 $-1 $-1 $78 $-1 $23 #
shell $-1 $-1 $-1 $79 $-1 $25 #
shell $-1 $-1 $-1 $80 $-1 $27 #
shell $-1 $-1 $-1 $81 $-1 $29 #
shell $-1 $-1 $-1 $82 $-1 $31 #
shell $-1 $-1 $-1 $83 $-1 $33 #
shell $-1 $-1 $-1 $84 $-1 $35 #
shell $-1 $-1 $-1 $85 $-1 $37 #
shell $-1 $-1 $-1 $86 $-1 $39 #
shell $-1 $-1 $-1 $87 $-1 $41 #
shell $-1 $-1 $-1 $88 $-1 $43 #
shell $-1 $-1 $-1 $89 $-1 $45 #
shell $-1 $-1 $-1 $90 $-1 $47 #
shell $-1 $-1 $-1 $91 $-1 $49 #
shell $-1 $-1 $-1 $92 $-1 $51 #
shell $-1 $-1 $-1 $93 $-1 $53 #
shell $-1 $-1 $-1 $94 $-1 $55 #
face $-1 $95 $96 $57 $-1 $97 forward single #
face $-1 $98 $99 $58 $-1 $100 forward single #
face $-1 $101 $102 $59 $-1 $103 forward single #
face $-1 $104 $105 $60 $-1 $106 forward single #
face $-1 $107 $108 $61 $-1 $109 forward single #
face $-1 $110 $111 $62 $-1 $112 forward single #
face $-1 $113 $114 $63 $-1 $115 forward single #
face $-1 $116 $117 $64 $-1 $118 forward single #
face $-1 $119 $120 $65 $-1 $121 forward single #
face $-1 $122 $123 $66 $-1 $124 forward single #
face $-1 $125 $126 $67 $-1 $127 forward single #
face $-1 $128 $129 $68 $-1 $130 forward single #
face $-1 $131 $132 $69 $-1 $133 forward single #
face $-1 $134 $135 $70 $-1 $136 forward single #
face $-1 $137 $138 $71 $-1 $139 forward single #
face $-1 $140 $141 $72 $-1 $142 forward single #
face $-1 $143 $144 $73 $-1 $145 forward single #
face $-1 $146 $147 $74 $-1 $148 forward single #
face $-1 $149 $150 $75 $-1 $151 forward single #
face $-1 $152 $153 $57 $-1 $154 reversed single #
loop $-1 $-1 $155 $76 #
plane-surface $-1 0 0 7.0026416665884614 0 0 1 1 0 0 forward_v I I I I #
face $-1 $156 $157 $58 $-1 $158 reversed single #
loop $-1 $-1 $159 $77 #
plane-surface $-1 0 0 1.510695934231 0 0 1 1 0 0 forward_v I I I I #
face $-1 $160 $161 $59 $-1 $162 reversed single #
loop $-1 $-1 $163 $78 #
plane-surface $-1 0 0 1.510695934231 0 0 1 1 0 0 forward_v I I I I #
face $-1 $164 $165 $60 $-1 $166 reversed single #
loop $-1 $-1 $167 $79 #
plane-surface $-1 0 0 141.68156987212745 0 0 1 1 0 0 forward_v I I I I #
face $-1 $168 $169 $61 $-1 $170 forward single #
loop $-1 $171 $172 $80 #
cone-surface $-1 0 0 -2.5079500717184966 0 0 1 2 0 0 1 I I 0 1 2 forward I I I I #
face $-1 $173 $174 $62 $-1 $175 forward single #
loop $-1 $176 $177 $81 #
cone-surface $-1 0 0 -2.5079500717184966 0 0 1 2 0 0 1 I I 0 1 2 forward I I I I #
face $-1 $178 $179 $63 $-1 $180 forward single #
loop $-1 $181 $182 $82 #
cone-surface $-1 0 0 -2.5079500717184966 0 0 1 2 0 0 1 I I 0 1 2 forward I I I I #
face $-1 $183 $184 $64 $-1 $185 reversed single #
loop $-1 $-1 $186 $83 #
plane-surface $-1 0 0 141.68156987212745 0 0 1 1 0 0 forward_v I I I I #
face $-1 $187 $188 $65 $-1 $189 forward single #
loop $-1 $190 $191 $84 #
cone-surface $-1 0 0 -1.0912427137058618 0 0 1 0.5 0 0 1 I I 0 1 0.5 forward I I I I #
face $-1 $192 $193 $66 $-1 $194 forward single #
loop $-1 $195 $196 $85 #
cone-surface $-1 0 0 -1.0912427137058618 0 0 1 0.5 0 0 1 I I 0 1 0.5 forward I I I I #
face $-1 $197 $198 $67 $-1 $199 reversed single #
loop $-1 $-1 $200 $86 #
plane-surface $-1 0 0 141.68156987212745 0 0 1 1 0 0 forward_v I I I I #
face $-1 $201 $202 $68 $-1 $203 forward single #
loop $-1 $204 $205 $87 #
cone-surface $-1 0 0 -1.0912427137058618 0 0 1 0.5 0 0 1 I I 0 1 0.5 forward I I I I #
face $-1 $206 $207 $69 $-1 $208 forward single #
loop $-1 $209 $210 $88 #
cone-surface $-1 0 0 -1.0912427137058618 0 0 1 0.5 0 0 1 I I 0 1 0.5 forward I I I I #
face $-1 $211 $212 $70 $-1 $213 reversed single #
loop $-1 $-1 $214 $89 #
plane-surface $-1 0 0 141.68156987212745 0 0 1 1 0 0 forward_v I I I I #
face $-1 $215 $216 $71 $-1 $217 forward single #
loop $-1 $218 $219 $90 #
cone-surface $-1 0 0 -1.0912427137058618 0 0 1 0.5 0 0 1 I I 0 1 0.5 forward I I I I #
face $-1 $220 $221 $72 $-1 $222 forward single #
loop $-1 $223 $224 $91 #
cone-surface $-1 0 0 -1.0912427137058618 0 0 1 0.5 0 0 1 I I 0 1 0.5 forward I I I I #
face $-1 $225 $226 $73 $-1 $227 reversed single #
loop $-1 $-1 $228 $92 #
plane-surface $-1 0 0 141.68156987212745 0 0 1 1 0 0 forward_v I I I I #
face $-1 $229 $230 $74 $-1 $231 forward single #
loop $-1 $232 $233 $93 #
cone-surface $-1 0 0 -1.0912427137058618 0 0 1 0.5 0 0 1 I I 0 1 0.5 forward I I I I #
face $-1 $234 $235 $75 $-1 $236 forward single #
loop $-1 $237 $238 $94 #
cone-surface $-1 0 0 -1.0912427137058618 0 0 1 0.5 0 0 1 I I 0 1 0.5 forward I I I I #
face $-1 $239 $240 $57 $-1 $241 reversed single #
loop $-1 $-1 $242 $95 #
plane-surface $-1 0 0 -7.0026416665884614 0 0 1 1 0 0 forward_v I I I I #
coedge $-1 $243 $244 $245 $246 forward $96 $-1 #
face $-1 $247 $248 $58 $-1 $249 reversed single #
loop $-1 $-1 $250 $98 #
plane-surface $-1 0 0 -1.510695934231 0 0 1 1 0 0 forward_v I I I I #
coedge $-1 $251 $252 $253 $254 forward $99 $-1 #
face $-1 $255 $256 $59 $-1 $257 reversed single #
loop $-1 $-1 $258 $101 #
plane-surface $-1 0 0 -1.510695934231 0 0 1 1 0 0 forward_v I I I I #
coedge $-1 $259 $260 $261 $262 forward $102 $-1 #
face $-1 $263 $264 $60 $-1 $265 reversed single #
loop $-1 $-1 $266 $104 #
plane-surface $-1 0 0 -141.68156987212745 0 0 1 1 0 0 forward_v I I I I #
coedge $-1 $267 $268 $269 $270 forward $105 $-1 #
face $-1 $-1 $271 $61 $-1 $272 forward single #
loop $-1 $-1 $273 $107 #
plane-surface $-1 0 0 -4.0159001434369941 0 0 -1 -1 0 0 forward_v I I I I #
loop $-1 $-1 $274 $80 #
coedge $-1 $172 $172 $273 $275 reversed $108 $-1 #
face $-1 $-1 $276 $62 $-1 $277 forward single #
loop $-1 $-1 $278 $110 #
plane-surface $-1 0 0 -4.0159001434369941 0 0 -1 -1 0 0 forward_v I I I I #
loop $-1 $-1 $279 $81 #
coedge $-1 $177 $177 $278 $280 reversed $111 $-1 #
face $-1 $-1 $281 $63 $-1 $282 forward single #
loop $-1 $-1 $283 $113 #
plane-surface $-1 0 0 -4.0159001434369941 0 0 -1 -1 0 0 forward_v I I I I #
loop $-1 $-1 $284 $82 #
coedge $-1 $182 $182 $283 $285 reversed $114 $-1 #
face $-1 $286 $287 $64 $-1 $288 reversed single #
loop $-1 $-1 $289 $116 #
plane-surface $-1 0 0 -141.68156987212745 0 0 1 1 0 0 forward_v I I I I #
coedge $-1 $290 $291 $292 $293 forward $117 $-1 #
face $-1 $-1 $294 $65 $-1 $295 forward single #
loop $-1 $-1 $296 $119 #
plane-surface $-1 0 0 -1.9324854274117245 0 0 -1 -1 0 0 forward_v I I I I #
loop $-1 $-1 $297 $84 #
coedge $-1 $191 $191 $296 $298 reversed $120 $-1 #
face $-1 $-1 $299 $66 $-1 $300 forward single #
loop $-1 $-1 $301 $122 #
plane-surface $-1 0 0 -1.9324854274117245 0 0 -1 -1 0 0 forward_v I I I I #
loop $-1 $-1 $302 $85 #
coedge $-1 $196 $196 $301 $303 reversed $123 $-1 #
face $-1 $304 $305 $67 $-1 $306 reversed single #
loop $-1 $-1 $307 $125 #
plane-surface $-1 0 0 -141.68156987212745 0 0 1 1 0 0 forward_v I I I I #
coedge $-1 $308 $309 $310 $311 forward $126 $-1 #
face $-1 $-1 $312 $68 $-1 $313 forward single #
loop $-1 $-1 $314 $128 #
plane-surface $-1 0 0 -1.9324854274117245 0 0 -1 -1 0 0 forward_v I I I I #
loop $-1 $-1 $315 $87 #
coedge $-1 $205 $205 $314 $316 reversed $129 $-1 #
face $-1 $-1 $317 $69 $-1 $318 forward single #
loop $-1 $-1 $319 $131 #
plane-surface $-1 0 0 -1.9324854274117245 0 0 -1 -1 0 0 forward_v I I I I #
loop $-1 $-1 $320 $88 #
coedge $-1 $210 $210 $319 $321 reversed $132 $-1 #
face $-1 $322 $323 $70 $-1 $324 reversed single #
loop $-1 $-1 $325 $134 #
plane-surface $-1 0 0 -141.68156987212745 0 0 1 1 0 0 forward_v I I I I #
coedge $-1 $326 $327 $328 $329 forward $135 $-1 #
face $-1 $-1 $330 $71 $-1 $331 forward single #
loop $-1 $-1 $332 $137 #
plane-surface $-1 0 0 -1.9324854274117245 0 0 -1 -1 0 0 forward_v I I I I #
loop $-1 $-1 $333 $90 #
coedge $-1 $219 $219 $332 $334 reversed $138 $-1 #
face $-1 $-1 $335 $72 $-1 $336 forward single #
loop $-1 $-1 $337 $140 #
plane-surface $-1 0 0 -1.9324854274117245 0 0 -1 -1 0 0 forward_v I I I I #
loop $-1 $-1 $338 $91 #
coedge $-1 $224 $224 $337 $339 reversed $141 $-1 #
face $-1 $340 $341 $73 $-1 $342 reversed single #
loop $-1 $-1 $343 $143 #
plane-surface $-1 0 0 -141.68156987212745 0 0 1 1 0 0 forward_v I I I I #
coedge $-1 $344 $345 $346 $347 forward $144 $-1 #
face $-1 $-1 $348 $74 $-1 $349 forward single #
loop $-1 $-1 $350 $146 #
plane-surface $-1 0 0 -1.9324854274117245 0 0 -1 -1 0 0 forward_v I I I I #
loop $-1 $-1 $351 $93 #
coedge $-1 $233 $233 $350 $352 reversed $147 $-1 #
face $-1 $-1 $353 $75 $-1 $354 forward single #
loop $-1 $-1 $355 $149 #
plane-surface $-1 0 0 -1.9324854274117245 0 0 -1 -1 0 0 forward_v I I I I #
loop $-1 $-1 $356 $94 #
coedge $-1 $238 $238 $355 $357 reversed $150 $-1 #
face $-1 $358 $359 $57 $-1 $360 reversed single #
loop $-1 $-1 $361 $152 #
plane-surface $-1 0 -33.187092781183701 0 0 1 0 0 0 1 forward_v I I I I #
coedge $-1 $362 $363 $364 $365 forward $153 $-1 #
coedge $-1 $366 $155 $367 $368 forward $96 $-1 #
coedge $-1 $155 $366 $369 $370 forward $96 $-1 #
coedge $-1 $371 $372 $155 $246 reversed $373 $-1 #
edge $-1 $374 -33.187092781183701 $375 33.187092781183701 $245 $376 forward 7 unknown #
face $-1 $377 $378 $58 $-1 $379 reversed single #
loop $-1 $-1 $380 $156 #
plane-surface $-1 0 -33.187092781183701 0 0 1 0 0 0 1 forward_v I I I I #
coedge $-1 $381 $382 $383 $384 forward $157 $-1 #
coedge $-1 $385 $159 $386 $387 forward $99 $-1 #
coedge $-1 $159 $385 $388 $389 forward $99 $-1 #
coedge $-1 $390 $391 $159 $254 reversed $392 $-1 #
edge $-1 $393 -33.187092781183701 $394 33.187092781183701 $253 $395 forward 7 unknown #
face $-1 $396 $397 $59 $-1 $398 reversed single #
loop $-1 $-1 $399 $160 #
plane-surface $-1 0 -33.187092781183701 0 0 1 0 0 0 1 forward_v I I I I #
coedge $-1 $400 $401 $402 $403 forward $161 $-1 #
coedge $-1 $404 $163 $405 $406 forward $102 $-1 #
coedge $-1 $163 $404 $407 $408 forward $102 $-1 #
coedge $-1 $409 $410 $163 $262 reversed $411 $-1 #
edge $-1 $412 -33.187092781183701 $413 33.187092781183701 $261 $414 forward 7 unknown #
face $-1 $415 $416 $60 $-1 $417 reversed single #
loop $-1 $-1 $418 $164 #
plane-surface $-1 0 -283.36313974425491 0 0 1 0 0 0 1 forward_v I I I I #
coedge $-1 $419 $420 $421 $422 forward $165 $-1 #
coedge $-1 $423 $167 $424 $425 forward $105 $-1 #
coedge $-1 $167 $423 $426 $427 forward $105 $-1 #
coedge $-1 $428 $429 $167 $270 reversed $430 $-1 #
edge $-1 $431 -283.36313974425491 $432 283.36313974425491 $269 $433 forward 7 unknown #
loop $-1 $434 $435 $168 #
cone-surface $-1 0 0 0 0 0 1 1 0 0 1 I I -0.70710678118654768 0.70710678118654735 1 forward I I I I #
coedge $-1 $273 $273 $172 $275 forward $169 $-1 #
coedge $-1 $274 $274 $435 $436 forward $171 $-1 #
edge $-1 $437 0 $437 6.2831853071796004 $273 $438 forward 7 unknown #
loop $-1 $439 $440 $173 #
cone-surface $-1 0 0 0 0 0 1 1 0 0 1 I I -0.70710678118654768 0.70710678118654735 1 forward I I I I #
coedge $-1 $278 $278 $177 $280 forward $174 $-1 #
coedge $-1 $279 $279 $440 $441 forward $176 $-1 #
edge $-1 $442 0 $442 6.2831853071796004 $278 $443 forward 7 unknown #
loop $-1 $444 $445 $178 #
cone-surface $-1 0 0 0 0 0 1 1 0 0 1 I I -0.70710678118654768 0.70710678118654735 1 forward I I I I #
coedge $-1 $283 $283 $182 $285 forward $179 $-1 #
coedge $-1 $284 $284 $445 $446 forward $181 $-1 #
edge $-1 $447 0 $447 6.2831853071796004 $283 $448 forward 7 unknown #
face $-1 $449 $450 $64 $-1 $451 reversed single #
loop $-1 $-1 $452 $183 #
plane-surface $-1 0 -283.36313974425491 0 0 1 0 0 0 1 forward_v I I I I #
coedge $-1 $453 $454 $455 $456 forward $184 $-1 #
coedge $-1 $457 $186 $458 $459 forward $117 $-1 #
coedge $-1 $186 $457 $460 $461 forward $117 $-1 #
coedge $-1 $462 $463 $186 $293 reversed $464 $-1 #
edge $-1 $465 -283.36313974425491 $466 283.36313974425491 $292 $467 forward 7 unknown #
loop $-1 $468 $469 $187 #
cone-surface $-1 0 0 0 0 0 1 0.25 0 0 1 I I -0.70710678118654746 0.70710678118654746 0.25 forward I I I I #
coedge $-1 $296 $296 $191 $298 forward $188 $-1 #
coedge $-1 $297 $297 $469 $470 forward $190 $-1 #
edge $-1 $471 0 $471 6.2831853071796004 $296 $472 forward 7 unknown #
loop $-1 $473 $474 $192 #
cone-surface $-1 0 0 0 0 0 1 0.25 0 0 1 I I -0.70710678118654746 0.70710678118654746 0.25 forward I I I I #
coedge $-1 $301 $301 $196 $303 forward $193 $-1 #
coedge $-1 $302 $302 $474 $475 forward $195 $-1 #
edge $-1 $476 0 $476 6.2831853071796004 $301 $477 forward 7 unknown #
face $-1 $478 $479 $67 $-1 $480 reversed single #
loop $-1 $-1 $481 $197 #
plane-surface $-1 0 -283.36313974425491 0 0 1 0 0 0 1 forward_v I I I I #
coedge $-1 $482 $483 $484 $485 forward $198 $-1 #
coedge $-1 $486 $200 $487 $488 forward $126 $-1 #
coedge $-1 $200 $486 $489 $490 forward $126 $-1 #
coedge $-1 $491 $492 $200 $311 reversed $493 $-1 #
edge $-1 $494 -283.36313974425491 $495 283.36313974425491 $310 $496 forward 7 unknown #
loop $-1 $497 $498 $201 #
cone-surface $-1 0 0 0 0 0 1 0.25 0 0 1 I I -0.70710678118654746 0.70710678118654746 0.25 forward I I I I #
coedge $-1 $314 $314 $205 $316 forward $202 $-1 #
coedge $-1 $315 $315 $498 $499 forward $204 $-1 #
edge $-1 $500 0 $500 6.2831853071796004 $314 $501 forward 7 unknown #
loop $-1 $502 $503 $206 #
cone-surface $-1 0 0 0 0 0 1 0.25 0 0 1 I I -0.70710678118654746 0.70710678118654746 0.25 forward I I I I #
coedge $-1 $319 $319 $210 $321 forward $207 $-1 #
coedge $-1 $320 $320 $503 $504 forward $209 $-1 #
edge $-1 $505 0 $505 6.2831853071796004 $319 $506 forward 7 unknown #
face $-1 $507 $508 $70 $-1 $509 reversed single #
loop $-1 $-1 $510 $211 #
plane-surface $-1 0 -283.36313974425491 0 0 1 0 0 0 1 forward_v I I I I #
coedge $-1 $511 $512 $513 $514 forward $212 $-1 #
coedge $-1 $515 $214 $516 $517 forward $135 $-1 #
coedge $-1 $214 $515 $518 $519 forward $135 $-1 #
coedge $-1 $520 $521 $214 $329 reversed $522 $-1 #
edge $-1 $523 -283.36313974425491 $524 283.36313974425491 $328 $525 forward 7 unknown #
loop $-1 $526 $527 $215 #
cone-surface $-1 0 0 0 0 0 1 0.25 0 0 1 I I -0.70710678118654746 0.70710678118654746 0.25 forward I I I I #
coedge $-1 $332 $332 $219 $334 forward $216 $-1 #
coedge $-1 $333 $333 $527 $528 forward $218 $-1 #
edge $-1 $529 0 $529 6.2831853071796004 $332 $530 forward 7 unknown #
loop $-1 $531 $532 $220 #
cone-surface $-1 0 0 0 0 0 1 0.25 0 0 1 I I -0.70710678118654746 0.70710678118654746 0.25 forward I I I I #
coedge $-1 $337 $337 $224 $339 forward $221 $-1 #
coedge $-1 $338 $338 $532 $533 forward $223 $-1 #
edge $-1 $534 0 $534 6.2831853071796004 $337 $535 forward 7 unknown #
face $-1 $536 $537 $73 $-1 $538 reversed single #
loop $-1 $-1 $539 $225 #
plane-surface $-1 0 -283.36313974425491 0 0 1 0 0 0 1 forward_v I I I I #
coedge $-1 $540 $541 $542 $543 forward $226 $-1 #
coedge $-1 $544 $228 $545 $546 forward $144 $-1 #
coedge $-1 $228 $544 $547 $548 forward $144 $-1 #
coedge $-1 $549 $550 $228 $347 reversed $551 $-1 #
edge $-1 $552 -283.36313974425491 $553 283.36313974425491 $346 $554 forward 7 unknown #
loop $-1 $555 $556 $229 #
cone-surface $-1 0 0 0 0 0 1 0.25 0 0 1 I I -0.70710678118654746 0.70710678118654746 0.25 forward I I I I #
coedge $-1 $350 $350 $233 $352 forward $230 $-1 #
coedge $-1 $351 $351 $556 $557 forward $232 $-1 #
edge $-1 $558 0 $558 6.2831853071796004 $350 $559 forward 7 unknown #
loop $-1 $560 $561 $234 #
cone-surface $-1 0 0 0 0 0 1 0.25 0 0 1 I I -0.70710678118654746 0.70710678118654746 0.25 forward I I I I #
coedge $-1 $355 $355 $238 $357 forward $235 $-1 #
coedge $-1 $356 $356 $561 $562 forward $237 $-1 #
edge $-1 $563 0 $563 6.2831853071796004 $355 $564 forward 7 unknown #
face $-1 $565 $566 $57 $-1 $567 reversed single #
loop $-1 $-1 $568 $239 #
plane-surface $-1 -70.840784936063727 0 0 1 0 0 0 0 -1 forward_v I I I I #
coedge $-1 $569 $369 $570 $571 forward $240 $-1 #
coedge $-1 $572 $242 $569 $573 forward $153 $-1 #
coedge $-1 $242 $572 $574 $575 forward $153 $-1 #
coedge $-1 $372 $371 $242 $365 reversed $373 $-1 #
edge $-1 $576 -33.187092781183701 $577 33.187092781183701 $364 $578 forward 7 unknown #
coedge $-1 $244 $243 $579 $580 forward $96 $-1 #
coedge $-1 $581 $582 $243 $368 reversed $566 $-1 #
edge $-1 $375 -70.840784936063727 $583 70.840784936063727 $367 $584 forward 7 unknown #
coedge $-1 $361 $585 $244 $370 reversed $240 $-1 #
edge $-1 $586 -70.840784936063727 $374 70.840784936063727 $369 $587 forward 7 unknown #
coedge $-1 $364 $245 $585 $588 forward $373 $-1 #
coedge $-1 $245 $364 $581 $589 reversed $373 $-1 #
loop $-1 $-1 $371 $565 #
vertex $-1 $246 $590 #
vertex $-1 $246 $591 #
straight-curve $-1 70.840784936063727 0 7.0026416665884614 0 1 0 I I #
face $-1 $592 $593 $58 $-1 $594 reversed single #
loop $-1 $-1 $595 $247 #
plane-surface $-1 -4.0916118753090824 0 0 1 0 0 0 0 -1 forward_v I I I I #
coedge $-1 $596 $388 $597 $598 forward $248 $-1 #
coedge $-1 $599 $250 $596 $600 forward $157 $-1 #
coedge $-1 $250 $599 $601 $602 forward $157 $-1 #
coedge $-1 $391 $390 $250 $384 reversed $392 $-1 #
edge $-1 $603 -33.187092781183701 $604 33.187092781183701 $383 $605 forward 7 unknown #
coedge $-1 $252 $251 $606 $607 forward $99 $-1 #
coedge $-1 $608 $609 $251 $387 reversed $593 $-1 #
edge $-1 $394 -4.0916118753090824 $610 4.0916118753090824 $386 $611 forward 7 unknown #
coedge $-1 $380 $612 $252 $389 reversed $248 $-1 #
edge $-1 $613 -4.0916118753090824 $393 4.0916118753090824 $388 $614 forward 7 unknown #
coedge $-1 $383 $253 $612 $615 forward $392 $-1 #
coedge $-1 $253 $383 $608 $616 reversed $392 $-1 #
loop $-1 $-1 $390 $592 #
vertex $-1 $254 $617 #
vertex $-1 $254 $618 #
straight-curve $-1 4.0916118753090824 0 1.510695934231 0 1 0 I I #
face $-1 $619 $620 $59 $-1 $621 reversed single #
loop $-1 $-1 $622 $255 #
plane-surface $-1 -4.0916118753090842 0 0 1 0 0 0 0 -1 forward_v I I I I #
coedge $-1 $623 $407 $624 $625 forward $256 $-1 #
coedge $-1 $626 $258 $623 $627 forward $161 $-1 #
coedge $-1 $258 $626 $628 $629 forward $161 $-1 #
coedge $-1 $410 $409 $258 $403 reversed $411 $-1 #
edge $-1 $630 -33.187092781183701 $631 33.187092781183701 $402 $632 forward 7 unknown #
coedge $-1 $260 $259 $633 $634 forward $102 $-1 #
coedge $-1 $635 $636 $259 $406 reversed $620 $-1 #
edge $-1 $413 -4.0916118753090842 $637 4.0916118753090842 $405 $638 forward 7 unknown #
coedge $-1 $399 $639 $260 $408 reversed $256 $-1 #
edge $-1 $640 -4.0916118753090842 $412 4.0916118753090842 $407 $641 forward 7 unknown #
coedge $-1 $402 $261 $639 $642 forward $411 $-1 #
coedge $-1 $261 $402 $635 $643 reversed $411 $-1 #
loop $-1 $-1 $409 $619 #
vertex $-1 $262 $644 #
vertex $-1 $262 $645 #
straight-curve $-1 4.0916118753090842 0 1.510695934231 0 1 0 I I #
face $-1 $646 $647 $60 $-1 $648 reversed single #
loop $-1 $-1 $649 $263 #
plane-surface $-1 -12.553502713899093 0 0 1 0 0 0 0 -1 forward_v I I I I #
coedge $-1 $650 $426 $651 $652 forward $264 $-1 #
coedge $-1 $653 $266 $650 $654 forward $165 $-1 #
coedge $-1 $266 $653 $655 $656 forward $165 $-1 #
coedge $-1 $429 $428 $266 $422 reversed $430 $-1 #
edge $-1 $657 -283.36313974425491 $658 283.36313974425491 $421 $659 forward 7 unknown #
coedge $-1 $268 $267 $660 $661 forward $105 $-1 #
coedge $-1 $662 $663 $267 $425 reversed $647 $-1 #
edge $-1 $432 -12.553502713899093 $664 12.553502713899093 $424 $665 forward 7 unknown #
coedge $-1 $418 $666 $268 $427 reversed $264 $-1 #
edge $-1 $667 -12.553502713899093 $431 12.553502713899093 $426 $668 forward 7 unknown #
coedge $-1 $421 $269 $666 $669 forward $430 $-1 #
coedge $-1 $269 $421 $662 $670 reversed $430 $-1 #
loop $-1 $-1 $428 $646 #
vertex $-1 $270 $671 #
vertex $-1 $270 $672 #
straight-curve $-1 12.553502713899093 0 141.68156987212745 0 1 0 I I #
loop $-1 $-1 $673 $168 #
coedge $-1 $435 $435 $274 $436 reversed $271 $-1 #
edge $-1 $674 0 $674 6.2831853071796004 $435 $675 forward 7 unknown #
vertex $-1 $275 $676 #
ellipse-curve $-1 0 0 -4.0159001434369941 0 0 -1 2 0 0 1 I I #
loop $-1 $-1 $677 $173 #
coedge $-1 $440 $440 $279 $441 reversed $276 $-1 #
edge $-1 $678 0 $678 6.2831853071796004 $440 $679 forward 7 unknown #
vertex $-1 $280 $680 #
ellipse-curve $-1 0 0 -4.0159001434369941 0 0 -1 2 0 0 1 I I #
loop $-1 $-1 $681 $178 #
coedge $-1 $445 $445 $284 $446 reversed $281 $-1 #
edge $-1 $682 0 $682 6.2831853071796004 $445 $683 forward 7 unknown #
vertex $-1 $285 $684 #
ellipse-curve $-1 0 0 -4.0159001434369941 0 0 -1 2 0 0 1 I I #
face $-1 $685 $686 $64 $-1 $687 reversed single #
loop $-1 $-1 $688 $286 #
plane-surface $-1 -8.5572594129132433 0 0 1 0 0 0 0 -1 forward_v I I I I #
coedge $-1 $689 $460 $690 $691 forward $287 $-1 #
coedge $-1 $692 $289 $689 $693 forward $184 $-1 #
coedge $-1 $289 $692 $694 $695 forward $184 $-1 #
coedge $-1 $463 $462 $289 $456 reversed $464 $-1 #
edge $-1 $696 -283.36313974425491 $697 283.36313974425491 $455 $698 forward 7 unknown #
coedge $-1 $291 $290 $699 $700 forward $117 $-1 #
coedge $-1 $701 $702 $290 $459 reversed $686 $-1 #
edge $-1 $466 -8.5572594129132433 $703 8.5572594129132433 $458 $704 forward 7 unknown #
coedge $-1 $452 $705 $291 $461 reversed $287 $-1 #
edge $-1 $706 -8.5572594129132433 $465 8.5572594129132433 $460 $707 forward 7 unknown #
coedge $-1 $455 $292 $705 $708 forward $464 $-1 #
coedge $-1 $292 $455 $701 $709 reversed $464 $-1 #
loop $-1 $-1 $462 $685 #
vertex $-1 $293 $710 #
vertex $-1 $293 $711 #
straight-curve $-1 8.5572594129132433 0 141.68156987212745 0 1 0 I I #
loop $-1 $-1 $712 $187 #
coedge $-1 $469 $469 $297 $470 reversed $294 $-1 #
edge $-1 $713 0 $713 6.2831853071796004 $469 $714 forward 7 unknown #
vertex $-1 $298 $715 #
ellipse-curve $-1 0 0 -1.9324854274117245 0 0 -1 0.5 0 0 1 I I #
loop $-1 $-1 $716 $192 #
coedge $-1 $474 $474 $302 $475 reversed $299 $-1 #
edge $-1 $717 0 $717 6.2831853071796004 $474 $718 forward 7 unknown #
vertex $-1 $303 $719 #
ellipse-curve $-1 0 0 -1.9324854274117245 0 0 -1 0.5 0 0 1 I I #
face $-1 $720 $721 $67 $-1 $722 reversed single #
loop $-1 $-1 $723 $304 #
plane-surface $-1 -8.5572594129132433 0 0 1 0 0 0 0 -1 forward_v I I I I #
coedge $-1 $724 $489 $725 $726 forward $305 $-1 #
coedge $-1 $727 $307 $724 $728 forward $198 $-1 #
coedge $-1 $307 $727 $729 $730 forward $198 $-1 #
coedge $-1 $492 $491 $307 $485 reversed $493 $-1 #
edge $-1 $731 -283.36313974425491 $732 283.36313974425491 $484 $733 forward 7 unknown #
coedge $-1 $309 $308 $734 $735 forward $126 $-1 #
coedge $-1 $736 $737 $308 $488 reversed $721 $-1 #
edge $-1 $495 -8.5572594129132433 $738 8.5572594129132433 $487 $739 forward 7 unknown #
coedge $-1 $481 $740 $309 $490 reversed $305 $-1 #
edge $-1 $741 -8.5572594129132433 $494 8.5572594129132433 $489 $742 forward 7 unknown #
coedge $-1 $484 $310 $740 $743 forward $493 $-1 #
coedge $-1 $310 $484 $736 $744 reversed $493 $-1 #
loop $-1 $-1 $491 $720 #
vertex $-1 $311 $745 #
vertex $-1 $311 $746 #
straight-curve $-1 8.5572594129132433 0 141.68156987212745 0 1 0 I I #
loop $-1 $-1 $747 $201 #
coedge $-1 $498 $498 $315 $499 reversed $312 $-1 #
edge $-1 $748 0 $748 6.2831853071796004 $498 $749 forward 7 unknown #
vertex $-1 $316 $750 #
ellipse-curve $-1 0 0 -1.9324854274117245 0 0 -1 0.5 0 0 1 I I #
loop $-1 $-1 $751 $206 #
coedge $-1 $503 $503 $320 $504 reversed $317 $-1 #
edge $-1 $752 0 $752 6.2831853071796004 $503 $753 forward 7 unknown #
vertex $-1 $321 $754 #
ellipse-curve $-1 0 0 -1.9324854274117245 0 0 -1 0.5 0 0 1 I I #
face $-1 $755 $756 $70 $-1 $757 reversed single #
loop $-1 $-1 $758 $322 #
plane-surface $-1 -8.5572594129132433 0 0 1 0 0 0 0 -1 forward_v I I I I #
coedge $-1 $759 $518 $760 $761 forward $323 $-1 #
coedge $-1 $762 $325 $759 $763 forward $212 $-1 #
coedge $-1 $325 $762 $764 $765 forward $212 $-1 #
coedge $-1 $521 $520 $325 $514 reversed $522 $-1 #
edge $-1 $766 -283.36313974425491 $767 283.36313974425491 $513 $768 forward 7 unknown #
coedge $-1 $327 $326 $769 $770 forward $135 $-1 #
coedge $-1 $771 $772 $326 $517 reversed $756 $-1 #
edge $-1 $524 -8.5572594129132433 $773 8.5572594129132433 $516 $774 forward 7 unknown #
coedge $-1 $510 $775 $327 $519 reversed $323 $-1 #
edge $-1 $776 -8.5572594129132433 $523 8.5572594129132433 $518 $777 forward 7 unknown #
coedge $-1 $513 $328 $775 $778 forward $522 $-1 #
coedge $-1 $328 $513 $771 $779 reversed $522 $-1 #
loop $-1 $-1 $520 $755 #
vertex $-1 $329 $780 #
vertex $-1 $329 $781 #
straight-curve $-1 8.5572594129132433 0 141.68156987212745 0 1 0 I I #
loop $-1 $-1 $782 $215 #
coedge $-1 $527 $527 $333 $528 reversed $330 $-1 #
edge $-1 $783 0 $783 6.2831853071796004 $527 $784 forward 7 unknown #
vertex $-1 $334 $785 #
ellipse-curve $-1 0 0 -1.9324854274117245 0 0 -1 0.5 0 0 1 I I #
loop $-1 $-1 $786 $220 #
coedge $-1 $532 $532 $338 $533 reversed $335 $-1 #
edge $-1 $787 0 $787 6.2831853071796004 $532 $788 forward 7 unknown #
vertex $-1 $339 $789 #
ellipse-curve $-1 0 0 -1.9324854274117245 0 0 -1 0.5 0 0 1 I I #
face $-1 $790 $791 $73 $-1 $792 reversed single #
loop $-1 $-1 $793 $340 #
plane-surface $-1 -8.5572594129132433 0 0 1 0 0 0 0 -1 forward_v I I I I #
coedge $-1 $794 $547 $795 $796 forward $341 $-1 #
coedge $-1 $797 $343 $794 $798 forward $226 $-1 #
coedge $-1 $343 $797 $799 $800 forward $226 $-1 #
coedge $-1 $550 $549 $343 $543 reversed $551 $-1 #
edge $-1 $801 -283.36313974425491 $802 283.36313974425491 $542 $803 forward 7 unknown #
coedge $-1 $345 $344 $804 $805 forward $144 $-1 #
coedge $-1 $806 $807 $344 $546 reversed $791 $-1 #
edge $-1 $553 -8.5572594129132433 $808 8.5572594129132433 $545 $809 forward 7 unknown #
coedge $-1 $539 $810 $345 $548 reversed $341 $-1 #
edge $-1 $811 -8.5572594129132433 $552 8.5572594129132433 $547 $812 forward 7 unknown #
coedge $-1 $542 $346 $810 $813 forward $551 $-1 #
coedge $-1 $346 $542 $806 $814 reversed $551 $-1 #
loop $-1 $-1 $549 $790 #
vertex $-1 $347 $815 #
vertex $-1 $347 $816 #
straight-curve $-1 8.5572594129132433 0 141.68156987212745 0 1 0 I I #
loop $-1 $-1 $817 $229 #
coedge $-1 $556 $556 $351 $557 reversed $348 $-1 #
edge $-1 $818 0 $818 6.2831853071796004 $556 $819 forward 7 unknown #
vertex $-1 $352 $820 #
ellipse-curve $-1 0 0 -1.9324854274117245 0 0 -1 0.5 0 0 1 I I #
loop $-1 $-1 $821 $234 #
coedge $-1 $561 $561 $356 $562 reversed $353 $-1 #
edge $-1 $822 0 $822 6.2831853071796004 $561 $823 forward 7 unknown #
vertex $-1 $357 $824 #
ellipse-curve $-1 0 0 -1.9324854274117245 0 0 -1 0.5 0 0 1 I I #
face $-1 $-1 $373 $57 $-1 $825 reversed single #
loop $-1 $-1 $581 $358 #
plane-surface $-1 0 33.187092781183701 0 0 -1 0 0 0 -1 forward_v I I I I #
coedge $-1 $826 $579 $582 $827 forward $359 $-1 #
coedge $-1 $585 $361 $362 $573 reversed $240 $-1 #
coedge $-1 $579 $826 $361 $571 reversed $359 $-1 #
edge $-1 $586 -7.0026416665884614 $828 7.0026416665884614 $570 $829 forward 7 unknown #
coedge $-1 $363 $362 $826 $830 forward $153 $-1 #
edge $-1 $577 -70.840784936063727 $828 70.840784936063727 $569 $831 forward 7 unknown #
coedge $-1 $582 $581 $363 $575 reversed $566 $-1 #
edge $-1 $832 -70.840784936063727 $576 70.840784936063727 $574 $833 forward 7 unknown #
vertex $-1 $365 $834 #
vertex $-1 $588 $835 #
straight-curve $-1 70.840784936063727 0 -7.0026416665884614 0 -1 0 I I #
coedge $-1 $568 $570 $366 $580 reversed $359 $-1 #
edge $-1 $583 -33.187092781183701 $586 33.187092781183701 $579 $836 forward 7 unknown #
coedge $-1 $574 $367 $372 $589 forward $566 $-1 #
coedge $-1 $367 $574 $568 $827 reversed $566 $-1 #
vertex $-1 $368 $837 #
straight-curve $-1 0 33.187092781183701 7.0026416665884614 -1 0 0 I I #
coedge $-1 $369 $569 $371 $588 reversed $240 $-1 #
vertex $-1 $580 $838 #
straight-curve $-1 0 -33.187092781183701 7.0026416665884614 1 0 0 I I #
edge $-1 $374 -7.0026416665884614 $577 7.0026416665884614 $371 $839 forward 7 unknown #
edge $-1 $375 -7.0026416665884614 $576 7.0026416665884614 $372 $840 forward 7 unknown #
point $-1 70.840784936063727 -33.187092781183701 7.0026416665884614 #
point $-1 70.840784936063727 33.187092781183701 7.0026416665884614 #
face $-1 $-1 $392 $58 $-1 $841 reversed single #
loop $-1 $-1 $608 $377 #
plane-surface $-1 0 33.187092781183701 0 0 -1 0 0 0 -1 forward_v I I I I #
coedge $-1 $842 $606 $609 $843 forward $378 $-1 #
coedge $-1 $612 $380 $381 $600 reversed $248 $-1 #
coedge $-1 $606 $842 $380 $598 reversed $378 $-1 #
edge $-1 $613 -1.510695934231 $844 1.510695934231 $597 $845 forward 7 unknown #
coedge $-1 $382 $381 $842 $846 forward $157 $-1 #
edge $-1 $604 -4.0916118753090824 $844 4.0916118753090824 $596 $847 forward 7 unknown #
coedge $-1 $609 $608 $382 $602 reversed $593 $-1 #
edge $-1 $848 -4.0916118753090824 $603 4.0916118753090824 $601 $849 forward 7 unknown #
vertex $-1 $384 $850 #
vertex $-1 $615 $851 #
straight-curve $-1 4.0916118753090824 0 -1.510695934231 0 -1 0 I I #
coedge $-1 $595 $597 $385 $607 reversed $378 $-1 #
edge $-1 $610 -33.187092781183701 $613 33.187092781183701 $606 $852 forward 7 unknown #
coedge $-1 $601 $386 $391 $616 forward $593 $-1 #
coedge $-1 $386 $601 $595 $843 reversed $593 $-1 #
vertex $-1 $387 $853 #
straight-curve $-1 0 33.187092781183701 1.510695934231 -1 0 0 I I #
coedge $-1 $388 $596 $390 $615 reversed $248 $-1 #
vertex $-1 $607 $854 #
straight-curve $-1 0 -33.187092781183701 1.510695934231 1 0 0 I I #
edge $-1 $393 -1.510695934231 $604 1.510695934231 $390 $855 forward 7 unknown #
edge $-1 $394 -1.510695934231 $603 1.510695934231 $391 $856 forward 7 unknown #
point $-1 4.0916118753090824 -33.187092781183701 1.510695934231 #
point $-1 4.0916118753090824 33.187092781183701 1.510695934231 #
face $-1 $-1 $411 $59 $-1 $857 reversed single #
loop $-1 $-1 $635 $396 #
plane-surface $-1 0 33.187092781183701 0 0 -1 0 0 0 -1 forward_v I I I I #
coedge $-1 $858 $633 $636 $859 forward $397 $-1 #
coedge $-1 $639 $399 $400 $627 reversed $256 $-1 #
coedge $-1 $633 $858 $399 $625 reversed $397 $-1 #
edge $-1 $640 -1.510695934231 $860 1.510695934231 $624 $861 forward 7 unknown #
coedge $-1 $401 $400 $858 $862 forward $161 $-1 #
edge $-1 $631 -4.0916118753090842 $860 4.0916118753090842 $623 $863 forward 7 unknown #
coedge $-1 $636 $635 $401 $629 reversed $620 $-1 #
edge $-1 $864 -4.0916118753090842 $630 4.0916118753090842 $628 $865 forward 7 unknown #
vertex $-1 $403 $866 #
vertex $-1 $642 $867 #
straight-curve $-1 4.0916118753090842 0 -1.510695934231 0 -1 0 I I #
coedge $-1 $622 $624 $404 $634 reversed $397 $-1 #
edge $-1 $637 -33.187092781183701 $640 33.187092781183701 $633 $868 forward 7 unknown #
coedge $-1 $628 $405 $410 $643 forward $620 $-1 #
coedge $-1 $405 $628 $622 $859 reversed $620 $-1 #
vertex $-1 $406 $869 #
straight-curve $-1 0 33.187092781183701 1.510695934231 -1 0 0 I I #
coedge $-1 $407 $623 $409 $642 reversed $256 $-1 #
vertex $-1 $634 $870 #
straight-curve $-1 0 -33.187092781183701 1.510695934231 1 0 0 I I #
edge $-1 $412 -1.510695934231 $631 1.510695934231 $409 $871 forward 7 unknown #
edge $-1 $413 -1.510695934231 $630 1.510695934231 $410 $872 forward 7 unknown #
point $-1 4.0916118753090842 -33.187092781183701 1.510695934231 #
point $-1 4.0916118753090842 33.187092781183701 1.510695934231 #
face $-1 $-1 $430 $60 $-1 $873 reversed single #
loop $-1 $-1 $662 $415 #
plane-surface $-1 0 283.36313974425491 0 0 -1 0 0 0 -1 forward_v I I I I #
coedge $-1 $874 $660 $663 $875 forward $416 $-1 #
coedge $-1 $666 $418 $419 $654 reversed $264 $-1 #
coedge $-1 $660 $874 $418 $652 reversed $416 $-1 #
edge $-1 $667 -141.68156987212745 $876 141.68156987212745 $651 $877 forward 7 unknown #
coedge $-1 $420 $419 $874 $878 forward $165 $-1 #
edge $-1 $658 -12.553502713899093 $876 12.553502713899093 $650 $879 forward 7 unknown #
coedge $-1 $663 $662 $420 $656 reversed $647 $-1 #
edge $-1 $880 -12.553502713899093 $657 12.553502713899093 $655 $881 forward 7 unknown #
vertex $-1 $422 $882 #
vertex $-1 $669 $883 #
straight-curve $-1 12.553502713899093 0 -141.68156987212745 0 -1 0 I I #
coedge $-1 $649 $651 $423 $661 reversed $416 $-1 #
edge $-1 $664 -283.36313974425491 $667 283.36313974425491 $660 $884 forward 7 unknown #
coedge $-1 $655 $424 $429 $670 forward $647 $-1 #
coedge $-1 $424 $655 $649 $875 reversed $647 $-1 #
vertex $-1 $425 $885 #
straight-curve $-1 0 283.36313974425491 141.68156987212745 -1 0 0 I I #
coedge $-1 $426 $650 $428 $669 reversed $264 $-1 #
vertex $-1 $661 $886 #
straight-curve $-1 0 -283.36313974425491 141.68156987212745 1 0 0 I I #
edge $-1 $431 -141.68156987212745 $658 141.68156987212745 $428 $887 forward 7 unknown #
edge $-1 $432 -141.68156987212745 $657 141.68156987212745 $429 $888 forward 7 unknown #
point $-1 12.553502713899093 -283.36313974425491 141.68156987212745 #
point $-1 12.553502713899093 283.36313974425491 141.68156987212745 #
coedge $-1 $673 $673 $-1 $889 reversed $434 $-1 #
vertex $-1 $436 $890 #
ellipse-curve $-1 0 0 -0.99999999999999956 0 0 -1 2 0 0 1 I I #
point $-1 2 0 -4.0159001434369941 #
coedge $-1 $677 $677 $-1 $891 reversed $439 $-1 #
vertex $-1 $441 $892 #
ellipse-curve $-1 0 0 -0.99999999999999956 0 0 -1 2 0 0 1 I I #
point $-1 2 0 -4.0159001434369941 #
coedge $-1 $681 $681 $-1 $893 reversed $444 $-1 #
vertex $-1 $446 $894 #
ellipse-curve $-1 0 0 -0.99999999999999956 0 0 -1 2 0 0 1 I I #
point $-1 2 0 -4.0159001434369941 #
face $-1 $-1 $464 $64 $-1 $895 reversed single #
loop $-1 $-1 $701 $449 #
plane-surface $-1 0 283.36313974425491 0 0 -1 0 0 0 -1 forward_v I I I I #
coedge $-1 $896 $699 $702 $897 forward $450 $-1 #
coedge $-1 $705 $452 $453 $693 reversed $287 $-1 #
coedge $-1 $699 $896 $452 $691 reversed $450 $-1 #
edge $-1 $706 -141.68156987212745 $898 141.68156987212745 $690 $899 forward 7 unknown #
coedge $-1 $454 $453 $896 $900 forward $184 $-1 #
edge $-1 $697 -8.5572594129132433 $898 8.5572594129132433 $689 $901 forward 7 unknown #
coedge $-1 $702 $701 $454 $695 reversed $686 $-1 #
edge $-1 $902 -8.5572594129132433 $696 8.5572594129132433 $694 $903 forward 7 unknown #
vertex $-1 $456 $904 #
vertex $-1 $708 $905 #
straight-curve $-1 8.5572594129132433 0 -141.68156987212745 0 -1 0 I I #
coedge $-1 $688 $690 $457 $700 reversed $450 $-1 #
edge $-1 $703 -283.36313974425491 $706 283.36313974425491 $699 $906 forward 7 unknown #
coedge $-1 $694 $458 $463 $709 forward $686 $-1 #
coedge $-1 $458 $694 $688 $897 reversed $686 $-1 #
vertex $-1 $459 $907 #
straight-curve $-1 0 283.36313974425491 141.68156987212745 -1 0 0 I I #
coedge $-1 $460 $689 $462 $708 reversed $287 $-1 #
vertex $-1 $700 $908 #
straight-curve $-1 0 -283.36313974425491 141.68156987212745 1 0 0 I I #
edge $-1 $465 -141.68156987212745 $697 141.68156987212745 $462 $909 forward 7 unknown #
edge $-1 $466 -141.68156987212745 $696 141.68156987212745 $463 $910 forward 7 unknown #
point $-1 8.5572594129132433 -283.36313974425491 141.68156987212745 #
point $-1 8.5572594129132433 283.36313974425491 141.68156987212745 #
coedge $-1 $712 $712 $-1 $911 reversed $468 $-1 #
vertex $-1 $470 $912 #
ellipse-curve $-1 0 0 -0.25 0 0 -1 0.5 0 0 1 I I #
point $-1 0.5 0 -1.9324854274117245 #
coedge $-1 $716 $716 $-1 $913 reversed $473 $-1 #
vertex $-1 $475 $914 #
ellipse-curve $-1 0 0 -0.25 0 0 -1 0.5 0 0 1 I I #
point $-1 0.5 0 -1.9324854274117245 #
face $-1 $-1 $493 $67 $-1 $915 reversed single #
loop $-1 $-1 $736 $478 #
plane-surface $-1 0 283.36313974425491 0 0 -1 0 0 0 -1 forward_v I I I I #
coedge $-1 $916 $734 $737 $917 forward $479 $-1 #
coedge $-1 $740 $481 $482 $728 reversed $305 $-1 #
coedge $-1 $734 $916 $481 $726 reversed $479 $-1 #
edge $-1 $741 -141.68156987212745 $918 141.68156987212745 $725 $919 forward 7 unknown #
coedge $-1 $483 $482 $916 $920 forward $198 $-1 #
edge $-1 $732 -8.5572594129132433 $918 8.5572594129132433 $724 $921 forward 7 unknown #
coedge $-1 $737 $736 $483 $730 reversed $721 $-1 #
edge $-1 $922 -8.5572594129132433 $731 8.5572594129132433 $729 $923 forward 7 unknown #
vertex $-1 $485 $924 #
vertex $-1 $743 $925 #
straight-curve $-1 8.5572594129132433 0 -141.68156987212745 0 -1 0 I I #
coedge $-1 $723 $725 $486 $735 reversed $479 $-1 #
edge $-1 $738 -283.36313974425491 $741 283.36313974425491 $734 $926 forward 7 unknown #
coedge $-1 $729 $487 $492 $744 forward $721 $-1 #
coedge $-1 $487 $729 $723 $917 reversed $721 $-1 #
vertex $-1 $488 $927 #
straight-curve $-1 0 283.36313974425491 141.68156987212745 -1 0 0 I I #
coedge $-1 $489 $724 $491 $743 reversed $305 $-1 #
vertex $-1 $735 $928 #
straight-curve $-1 0 -283.36313974425491 141.68156987212745 1 0 0 I I #
edge $-1 $494 -141.68156987212745 $732 141.68156987212745 $491 $929 forward 7 unknown #
edge $-1 $495 -141.68156987212745 $731 141.68156987212745 $492 $930 forward 7 unknown #
point $-1 8.5572594129132433 -283.36313974425491 141.68156987212745 #
point $-1 8.5572594129132433 283.36313974425491 141.68156987212745 #
coedge $-1 $747 $747 $-1 $931 reversed $497 $-1 #
vertex $-1 $499 $932 #
ellipse-curve $-1 0 0 -0.25 0 0 -1 0.5 0 0 1 I I #
point $-1 0.5 0 -1.9324854274117245 #
coedge $-1 $751 $751 $-1 $933 reversed $502 $-1 #
vertex $-1 $504 $934 #
ellipse-curve $-1 0 0 -0.25 0 0 -1 0.5 0 0 1 I I #
point $-1 0.5 0 -1.9324854274117245 #
face $-1 $-1 $522 $70 $-1 $935 reversed single #
loop $-1 $-1 $771 $507 #
plane-surface $-1 0 283.36313974425491 0 0 -1 0 0 0 -1 forward_v I I I I #
coedge $-1 $936 $769 $772 $937 forward $508 $-1 #
coedge $-1 $775 $510 $511 $763 reversed $323 $-1 #
coedge $-1 $769 $936 $510 $761 reversed $508 $-1 #
edge $-1 $776 -141.68156987212745 $938 141.68156987212745 $760 $939 forward 7 unknown #
coedge $-1 $512 $511 $936 $940 forward $212 $-1 #
edge $-1 $767 -8.5572594129132433 $938 8.5572594129132433 $759 $941 forward 7 unknown #
coedge $-1 $772 $771 $512 $765 reversed $756 $-1 #
edge $-1 $942 -8.5572594129132433 $766 8.5572594129132433 $764 $943 forward 7 unknown #
vertex $-1 $514 $944 #
vertex $-1 $778 $945 #
straight-curve $-1 8.5572594129132433 0 -141.68156987212745 0 -1 0 I I #
coedge $-1 $758 $760 $515 $770 reversed $508 $-1 #
edge $-1 $773 -283.36313974425491 $776 283.36313974425491 $769 $946 forward 7 unknown #
coedge $-1 $764 $516 $521 $779 forward $756 $-1 #
coedge $-1 $516 $764 $758 $937 reversed $756 $-1 #
vertex $-1 $517 $947 #
straight-curve $-1 0 283.36313974425491 141.68156987212745 -1 0 0 I I #
coedge $-1 $518 $759 $520 $778 reversed $323 $-1 #
vertex $-1 $770 $948 #
straight-curve $-1 0 -283.36313974425491 141.68156987212745 1 0 0 I I #
edge $-1 $523 -141.68156987212745 $767 141.68156987212745 $520 $949 forward 7 unknown #
edge $-1 $524 -141.68156987212745 $766 141.68156987212745 $521 $950 forward 7 unknown #
point $-1 8.5572594129132433 -283.36313974425491 141.68156987212745 #
point $-1 8.5572594129132433 283.36313974425491 141.68156987212745 #
coedge $-1 $782 $782 $-1 $951 reversed $526 $-1 #
vertex $-1 $528 $952 #
ellipse-curve $-1 0 0 -0.25 0 0 -1 0.5 0 0 1 I I #
point $-1 0.5 0 -1.9324854274117245 #
coedge $-1 $786 $786 $-1 $953 reversed $531 $-1 #
vertex $-1 $533 $954 #
ellipse-curve $-1 0 0 -0.25 0 0 -1 0.5 0 0 1 I I #
point $-1 0.5 0 -1.9324854274117245 #
face $-1 $-1 $551 $73 $-1 $955 reversed single #
loop $-1 $-1 $806 $536 #
plane-surface $-1 0 283.36313974425491 0 0 -1 0 0 0 -1 forward_v I I I I #
coedge $-1 $956 $804 $807 $957 forward $537 $-1 #
coedge $-1 $810 $539 $540 $798 reversed $341 $-1 #
coedge $-1 $804 $956 $539 $796 reversed $537 $-1 #
edge $-1 $811 -141.68156987212745 $958 141.68156987212745 $795 $959 forward 7 unknown #
coedge $-1 $541 $540 $956 $960 forward $226 $-1 #
edge $-1 $802 -8.5572594129132433 $958 8.5572594129132433 $794 $961 forward 7 unknown #
coedge $-1 $807 $806 $541 $800 reversed $791 $-1 #
edge $-1 $962 -8.5572594129132433 $801 8.5572594129132433 $799 $963 forward 7 unknown #
vertex $-1 $543 $964 #
vertex $-1 $813 $965 #
straight-curve $-1 8.5572594129132433 0 -141.68156987212745 0 -1 0 I I #
coedge $-1 $793 $795 $544 $805 reversed $537 $-1 #
edge $-1 $808 -283.36313974425491 $811 283.36313974425491 $804 $966 forward 7 unknown #
coedge $-1 $799 $545 $550 $814 forward $791 $-1 #
coedge $-1 $545 $799 $793 $957 reversed $791 $-1 #
vertex $-1 $546 $967 #
straight-curve $-1 0 283.36313974425491 141.68156987212745 -1 0 0 I I #
coedge $-1 $547 $794 $549 $813 reversed $341 $-1 #
vertex $-1 $805 $968 #
straight-curve $-1 0 -283.36313974425491 141.68156987212745 1 0 0 I I #
edge $-1 $552 -141.68156987212745 $802 141.68156987212745 $549 $969 forward 7 unknown #
edge $-1 $553 -141.68156987212745 $801 141.68156987212745 $550 $970 forward 7 unknown #
point $-1 8.5572594129132433 -283.36313974425491 141.68156987212745 #
point $-1 8.5572594129132433 283.36313974425491 141.68156987212745 #
coedge $-1 $817 $817 $-1 $971 reversed $555 $-1 #
vertex $-1 $557 $972 #
ellipse-curve $-1 0 0 -0.25 0 0 -1 0.5 0 0 1 I I #
point $-1 0.5 0 -1.9324854274117245 #
coedge $-1 $821 $821 $-1 $973 reversed $560 $-1 #
vertex $-1 $562 $974 #
ellipse-curve $-1 0 0 -0.25 0 0 -1 0.5 0 0 1 I I #
point $-1 0.5 0 -1.9324854274117245 #
plane-surface $-1 70.840784936063727 0 0 -1 0 0 0 0 1 forward_v I I I I #
coedge $-1 $570 $568 $572 $830 reversed $359 $-1 #
edge $-1 $583 -7.0026416665884614 $832 7.0026416665884614 $582 $975 forward 7 unknown #
vertex $-1 $830 $976 #
straight-curve $-1 -70.840784936063727 -33.187092781183701 0 0 0 -1 I I #
edge $-1 $828 -33.187092781183701 $832 33.187092781183701 $826 $977 forward 7 unknown #
straight-curve $-1 0 -33.187092781183701 -7.0026416665884614 -1 0 0 I I #
vertex $-1 $575 $978 #
straight-curve $-1 0 33.187092781183701 -7.0026416665884614 1 0 0 I I #
point $-1 70.840784936063727 33.187092781183701 -7.0026416665884614 #
point $-1 70.840784936063727 -33.187092781183701 -7.0026416665884614 #
straight-curve $-1 -70.840784936063727 0 7.0026416665884614 0 -1 0 I I #
point $-1 -70.840784936063727 33.187092781183701 7.0026416665884614 #
point $-1 -70.840784936063727 -33.187092781183701 7.0026416665884614 #
straight-curve $-1 70.840784936063727 -33.187092781183701 0 0 0 -1 I I #
straight-curve $-1 70.840784936063727 33.187092781183701 0 0 0 -1 I I #
plane-surface $-1 4.0916118753090824 0 0 -1 0 0 0 0 1 forward_v I I I I #
coedge $-1 $597 $595 $599 $846 reversed $378 $-1 #
edge $-1 $610 -1.510695934231 $848 1.510695934231 $609 $979 forward 7 unknown #
vertex $-1 $846 $980 #
straight-curve $-1 -4.0916118753090824 -33.187092781183701 0 0 0 -1 I I #
edge $-1 $844 -33.187092781183701 $848 33.187092781183701 $842 $981 forward 7 unknown #
straight-curve $-1 0 -33.187092781183701 -1.510695934231 -1 0 0 I I #
vertex $-1 $602 $982 #
straight-curve $-1 0 33.187092781183701 -1.510695934231 1 0 0 I I #
point $-1 4.0916118753090824 33.187092781183701 -1.510695934231 #
point $-1 4.0916118753090824 -33.187092781183701 -1.510695934231 #
straight-curve $-1 -4.0916118753090824 0 1.510695934231 0 -1 0 I I #
point $-1 -4.0916118753090824 33.187092781183701 1.510695934231 #
point $-1 -4.0916118753090824 -33.187092781183701 1.510695934231 #
straight-curve $-1 4.0916118753090824 -33.187092781183701 0 0 0 -1 I I #
straight-curve $-1 4.0916118753090824 33.187092781183701 0 0 0 -1 I I #
plane-surface $-1 4.0916118753090842 0 0 -1 0 0 0 0 1 forward_v I I I I #
coedge $-1 $624 $622 $626 $862 reversed $397 $-1 #
edge $-1 $637 -1.510695934231 $864 1.510695934231 $636 $983 forward 7 unknown #
vertex $-1 $862 $984 #
straight-curve $-1 -4.0916118753090842 -33.187092781183701 0 0 0 -1 I I #
edge $-1 $860 -33.187092781183701 $864 33.187092781183701 $858 $985 forward 7 unknown #
straight-curve $-1 0 -33.187092781183701 -1.510695934231 -1 0 0 I I #
vertex $-1 $629 $986 #
straight-curve $-1 0 33.187092781183701 -1.510695934231 1 0 0 I I #
point $-1 4.0916118753090842 33.187092781183701 -1.510695934231 #
point $-1 4.0916118753090842 -33.187092781183701 -1.510695934231 #
straight-curve $-1 -4.0916118753090842 0 1.510695934231 0 -1 0 I I #
point $-1 -4.0916118753090842 33.187092781183701 1.510695934231 #
point $-1 -4.0916118753090842 -33.187092781183701 1.510695934231 #
straight-curve $-1 4.0916118753090842 -33.187092781183701 0 0 0 -1 I I #
straight-curve $-1 4.0916118753090842 33.187092781183701 0 0 0 -1 I I #
plane-surface $-1 12.553502713899093 0 0 -1 0 0 0 0 1 forward_v I I I I #
coedge $-1 $651 $649 $653 $878 reversed $416 $-1 #
edge $-1 $664 -141.68156987212745 $880 141.68156987212745 $663 $987 forward 7 unknown #
vertex $-1 $878 $988 #
straight-curve $-1 -12.553502713899093 -283.36313974425491 0 0 0 -1 I I #
edge $-1 $876 -283.36313974425491 $880 283.36313974425491 $874 $989 forward 7 unknown #
straight-curve $-1 0 -283.36313974425491 -141.68156987212745 -1 0 0 I I #
vertex $-1 $656 $990 #
straight-curve $-1 0 283.36313974425491 -141.68156987212745 1 0 0 I I #
point $-1 12.553502713899093 283.36313974425491 -141.68156987212745 #
point $-1 12.553502713899093 -283.36313974425491 -141.68156987212745 #
straight-curve $-1 -12.553502713899093 0 141.68156987212745 0 -1 0 I I #
point $-1 -12.553502713899093 283.36313974425491 141.68156987212745 #
point $-1 -12.553502713899093 -283.36313974425491 141.68156987212745 #
straight-curve $-1 12.553502713899093 -283.36313974425491 0 0 0 -1 I I #
straight-curve $-1 12.553502713899093 283.36313974425491 0 0 0 -1 I I #
edge $-1 $991 1 $991 0 $673 $-1 forward 7 unknown #
point $-1 2 0 -0.99999999999999956 #
edge $-1 $992 1 $992 0 $677 $-1 forward 7 unknown #
point $-1 2 0 -0.99999999999999956 #
edge $-1 $993 1 $993 0 $681 $-1 forward 7 unknown #
point $-1 2 0 -0.99999999999999956 #
plane-surface $-1 8.5572594129132433 0 0 -1 0 0 0 0 1 forward_v I I I I #
coedge $-1 $690 $688 $692 $900 reversed $450 $-1 #
edge $-1 $703 -141.68156987212745 $902 141.68156987212745 $702 $994 forward 7 unknown #
vertex $-1 $900 $995 #
straight-curve $-1 -8.5572594129132433 -283.36313974425491 0 0 0 -1 I I #
edge $-1 $898 -283.36313974425491 $902 283.36313974425491 $896 $996 forward 7 unknown #
straight-curve $-1 0 -283.36313974425491 -141.68156987212745 -1 0 0 I I #
vertex $-1 $695 $997 #
straight-curve $-1 0 283.36313974425491 -141.68156987212745 1 0 0 I I #
point $-1 8.5572594129132433 283.36313974425491 -141.68156987212745 #
point $-1 8.5572594129132433 -283.36313974425491 -141.68156987212745 #
straight-curve $-1 -8.5572594129132433 0 141.68156987212745 0 -1 0 I I #
point $-1 -8.5572594129132433 283.36313974425491 141.68156987212745 #
point $-1 -8.5572594129132433 -283.36313974425491 141.68156987212745 #
straight-curve $-1 8.5572594129132433 -283.36313974425491 0 0 0 -1 I I #
straight-curve $-1 8.5572594129132433 283.36313974425491 0 0 0 -1 I I #
edge $-1 $998 1 $998 0 $712 $-1 forward 7 unknown #
point $-1 0.5 0 -0.25 #
edge $-1 $999 1 $999 0 $716 $-1 forward 7 unknown #
point $-1 0.5 0 -0.25 #
plane-surface $-1 8.5572594129132433 0 0 -1 0 0 0 0 1 forward_v I I I I #
coedge $-1 $725 $723 $727 $920 reversed $479 $-1 #
edge $-1 $738 -141.68156987212745 $922 141.68156987212745 $737 $1000 forward 7 unknown #
vertex $-1 $920 $1001 #
straight-curve $-1 -8.5572594129132433 -283.36313974425491 0 0 0 -1 I I #
edge $-1 $918 -283.36313974425491 $922 283.36313974425491 $916 $1002 forward 7 unknown #
straight-curve $-1 0 -283.36313974425491 -141.68156987212745 -1 0 0 I I #
vertex $-1 $730 $1003 #
straight-curve $-1 0 283.36313974425491 -141.68156987212745 1 0 0 I I #
point $-1 8.5572594129132433 283.36313974425491 -141.68156987212745 #
point $-1 8.5572594129132433 -283.36313974425491 -141.68156987212745 #
straight-curve $-1 -8.5572594129132433 0 141.68156987212745 0 -1 0 I I #
point $-1 -8.5572594129132433 283.36313974425491 141.68156987212745 #
point $-1 -8.5572594129132433 -283.36313974425491 141.68156987212745 #
straight-curve $-1 8.5572594129132433 -283.36313974425491 0 0 0 -1 I I #
straight-curve $-1 8.5572594129132433 283.36313974425491 0 0 0 -1 I I #
edge $-1 $1004 1 $1004 0 $747 $-1 forward 7 unknown #
point $-1 0.5 0 -0.25 #
edge $-1 $1005 1 $1005 0 $751 $-1 forward 7 unknown #
point $-1 0.5 0 -0.25 #
plane-surface $-1 8.5572594129132433 0 0 -1 0 0 0 0 1 forward_v I I I I #
coedge $-1 $760 $758 $762 $940 reversed $508 $-1 #
edge $-1 $773 -141.68156987212745 $942 141.68156987212745 $772 $1006 forward 7 unknown #
vertex $-1 $940 $1007 #
straight-curve $-1 -8.5572594129132433 -283.36313974425491 0 0 0 -1 I I #
edge $-1 $938 -283.36313974425491 $942 283.36313974425491 $936 $1008 forward 7 unknown #
straight-curve $-1 0 -283.36313974425491 -141.68156987212745 -1 0 0 I I #
vertex $-1 $765 $1009 #
straight-curve $-1 0 283.36313974425491 -141.68156987212745 1 0 0 I I #
point $-1 8.5572594129132433 283.36313974425491 -141.68156987212745 #
point $-1 8.5572594129132433 -283.36313974425491 -141.68156987212745 #
straight-curve $-1 -8.5572594129132433 0 141.68156987212745 0 -1 0 I I #
point $-1 -8.5572594129132433 283.36313974425491 141.68156987212745 #
point $-1 -8.5572594129132433 -283.36313974425491 141.68156987212745 #
straight-curve $-1 8.5572594129132433 -283.36313974425491 0 0 0 -1 I I #
straight-curve $-1 8.5572594129132433 283.36313974425491 0 0 0 -1 I I #
edge $-1 $1010 1 $1010 0 $782 $-1 forward 7 unknown #
point $-1 0.5 0 -0.25 #
edge $-1 $1011 1 $1011 0 $786 $-1 forward 7 unknown #
point $-1 0.5 0 -0.25 #
plane-surface $-1 8.5572594129132433 0 0 -1 0 0 0 0 1 forward_v I I I I #
coedge $-1 $795 $793 $797 $960 reversed $537 $-1 #
edge $-1 $808 -141.68156987212745 $962 141.68156987212745 $807 $1012 forward 7 unknown #
vertex $-1 $960 $1013 #
straight-curve $-1 -8.5572594129132433 -283.36313974425491 0 0 0 -1 I I #
edge $-1 $958 -283.36313974425491 $962 283.36313974425491 $956 $1014 forward 7 unknown #
straight-curve $-1 0 -283.36313974425491 -141.68156987212745 -1 0 0 I I #
vertex $-1 $800 $1015 #
straight-curve $-1 0 283.36313974425491 -141.68156987212745 1 0 0 I I #
point $-1 8.5572594129132433 283.36313974425491 -141.68156987212745 #
point $-1 8.5572594129132433 -283.36313974425491 -141.68156987212745 #
straight-curve $-1 -8.5572594129132433 0 141.68156987212745 0 -1 0 I I #
point $-1 -8.5572594129132433 283.36313974425491 141.68156987212745 #
point $-1 -8.5572594129132433 -283.36313974425491 141.68156987212745 #
straight-curve $-1 8.5572594129132433 -283.36313974425491 0 0 0 -1 I I #
straight-curve $-1 8.5572594129132433 283.36313974425491 0 0 0 -1 I I #
edge $-1 $1016 1 $1016 0 $817 $-1 forward 7 unknown #
point $-1 0.5 0 -0.25 #
edge $-1 $1017 1 $1017 0 $821 $-1 forward 7 unknown #
point $-1 0.5 0 -0.25 #
straight-curve $-1 -70.840784936063727 33.187092781183701 0 0 0 -1 I I #
point $-1 -70.840784936063727 -33.187092781183701 -7.0026416665884614 #
straight-curve $-1 -70.840784936063727 0 -7.0026416665884614 0 1 0 I I #
point $-1 -70.840784936063727 33.187092781183701 -7.0026416665884614 #
straight-curve $-1 -4.0916118753090824 33.187092781183701 0 0 0 -1 I I #
point $-1 -4.0916118753090824 -33.187092781183701 -1.510695934231 #
straight-curve $-1 -4.0916118753090824 0 -1.510695934231 0 1 0 I I #
point $-1 -4.0916118753090824 33.187092781183701 -1.510695934231 #
straight-curve $-1 -4.0916118753090842 33.187092781183701 0 0 0 -1 I I #
point $-1 -4.0916118753090842 -33.187092781183701 -1.510695934231 #
straight-curve $-1 -4.0916118753090842 0 -1.510695934231 0 1 0 I I #
point $-1 -4.0916118753090842 33.187092781183701 -1.510695934231 #
straight-curve $-1 -12.553502713899093 283.36313974425491 0 0 0 -1 I I #
point $-1 -12.553502713899093 -283.36313974425491 -141.68156987212745 #
straight-curve $-1 -12.553502713899093 0 -141.68156987212745 0 1 0 I I #
point $-1 -12.553502713899093 283.36313974425491 -141.68156987212745 #
vertex $-1 $889 $1018 #
vertex $-1 $891 $1019 #
vertex $-1 $893 $1020 #
straight-curve $-1 -8.5572594129132433 283.36313974425491 0 0 0 -1 I I #
point $-1 -8.5572594129132433 -283.36313974425491 -141.68156987212745 #
straight-curve $-1 -8.5572594129132433 0 -141.68156987212745 0 1 0 I I #
point $-1 -8.5572594129132433 283.36313974425491 -141.68156987212745 #
vertex $-1 $911 $1021 #
vertex $-1 $913 $1022 #
straight-curve $-1 -8.5572594129132433 283.36313974425491 0 0 0 -1 I I #
point $-1 -8.5572594129132433 -283.36313974425491 -141.68156987212745 #
straight-curve $-1 -8.5572594129132433 0 -141.68156987212745 0 1 0 I I #
point $-1 -8.5572594129132433 283.36313974425491 -141.68156987212745 #
vertex $-1 $931 $1023 #
vertex $-1 $933 $1024 #
straight-curve $-1 -8.5572594129132433 283.36313974425491 0 0 0 -1 I I #
point $-1 -8.5572594129132433 -283.36313974425491 -141.68156987212745 #
straight-curve $-1 -8.5572594129132433 0 -141.68156987212745 0 1 0 I I #
point $-1 -8.5572594129132433 283.36313974425491 -141.68156987212745 #
vertex $-1 $951 $1025 #
vertex $-1 $953 $1026 #
straight-curve $-1 -8.5572594129132433 283.36313974425491 0 0 0 -1 I I #
point $-1 -8.5572594129132433 -283.36313974425491 -141.68156987212745 #
straight-curve $-1 -8.5572594129132433 0 -141.68156987212745 0 1 0 I I #
point $-1 -8.5572594129132433 283.36313974425491 -141.68156987212745 #
vertex $-1 $971 $1027 #
vertex $-1 $973 $1028 #
point $-1 0 0 0.99999999999999956 #
point $-1 0 0 0.99999999999999956 #
point $-1 0 0 0.99999999999999956 #
point $-1 0 0 0.25 #
point $-1 0 0 0.25 #
point $-1 0 0 0.25 #
point $-1 0 0 0.25 #
point $-1 0 0 0.25 #
point $-1 0 0 0.25 #
point $-1 0 0 0.25 #
point $-1 0 0 0.25 #
End-of-ACIS-data 