500 0 11 0           
7 Unknown 11 ACIS 5.0 NT 24 Fri Mar 26 15:34:52 1999 
-1 9.9999999999999995e-007 1e-010 
body $-1 $11 $-1 $12 #
body $-1 $13 $-1 $14 #
body $-1 $15 $-1 $16 #
body $-1 $17 $-1 $18 #
body $-1 $19 $-1 $20 #
body $-1 $21 $-1 $22 #
body $-1 $23 $-1 $24 #
body $-1 $25 $-1 $26 #
body $-1 $27 $-1 $28 #
body $-1 $29 $-1 $30 #
body $-1 $31 $-1 $32 #
lump $-1 $-1 $33 $0 #
transform $-1 1 0 0 0 1 0 0 0 1 54.658650471510974 33.833749680579935 14.176368995164468 1 rotate no_reflect no_shear #
lump $-1 $-1 $34 $1 #
transform $-1 1 0 0 0 1 0 0 0 1 54.658650471510974 33.833749680579935 14.176368995164468 1 rotate no_reflect no_shear #
lump $-1 $-1 $35 $2 #
transform $-1 1 0 0 0 1 0 0 0 1 54.658650471510974 33.833749680579935 14.176368995164468 1 rotate no_reflect no_shear #
lump $-1 $-1 $36 $3 #
transform $-1 1 0 0 0 1 0 0 0 1 54.658650471510974 33.833749680579935 14.176368995164468 1 rotate no_reflect no_shear #
lump $-1 $-1 $37 $4 #
transform $-1 1 0 0 0 1 0 0 0 1 54.658650471510974 33.833749680579935 14.176368995164468 1 rotate no_reflect no_shear #
lump $-1 $-1 $38 $5 #
transform $-1 1 0 0 0 1 0 0 0 1 54.658650471510974 33.833749680579935 14.176368995164468 1 rotate no_reflect no_shear #
lump $-1 $-1 $39 $6 #
transform $-1 1 0 0 0 1 0 0 0 1 54.658650471510974 33.833749680579935 14.176368995164468 1 rotate no_reflect no_shear #
lump $-1 $-1 $40 $7 #
transform $-1 1 0 0 0 1 0 0 0 1 54.658650471510974 33.833749680579935 14.176368995164468 1 rotate no_reflect no_shear #
lump $-1 $-1 $41 $8 #
transform $-1 1 0 0 0 1 0 0 0 1 54.658650471510974 33.833749680579935 14.176368995164468 1 rotate no_reflect no_shear #
lump $-1 $-1 $42 $9 #
transform $-1 1 0 0 0 1 0 0 0 1 54.658650471510974 33.833749680579935 14.176368995164468 1 rotate no_reflect no_shear #
lump $-1 $-1 $43 $10 #
transform $-1 1 0 0 0 1 0 0 0 1 54.658650471510974 33.833749680579935 14.176368995164468 1 rotate no_reflect no_shear #
shell $-1 $-1 $-1 $44 $-1 $11 #
shell $-1 $-1 $-1 $45 $-1 $13 #
shell $-1 $-1 $-1 $46 $-1 $15 #
shell $-1 $-1 $-1 $47 $-1 $17 #
shell $-1 $-1 $-1 $48 $-1 $19 #
shell $-1 $-1 $-1 $49 $-1 $21 #
shell $-1 $-1 $-1 $50 $-1 $23 #
shell $-1 $-1 $-1 $51 $-1 $25 #
shell $-1 $-1 $-1 $52 $-1 $27 #
shell $-1 $-1 $-1 $53 $-1 $29 #
shell $-1 $-1 $-1 $54 $-1 $31 #
face $-1 $55 $56 $33 $-1 $57 forward single #
face $-1 $58 $59 $34 $-1 $60 forward single #
face $-1 $61 $62 $35 $-1 $63 reversed single #
face $-1 $64 $65 $36 $-1 $66 forward single #
face $-1 $67 $68 $37 $-1 $69 forward single #
face $-1 $70 $71 $38 $-1 $72 reversed single #
face $-1 $73 $74 $39 $-1 $75 forward single #
face $-1 $76 $77 $40 $-1 $78 forward single #
face $-1 $79 $80 $41 $-1 $81 reversed single #
face $-1 $82 $83 $42 $-1 $84 forward single #
face $-1 $85 $86 $43 $-1 $87 forward single #
face $-1 $88 $89 $33 $-1 $90 reversed single #
loop $-1 $-1 $91 $44 #
plane-surface $-1 0 0 14.176368995164468 0 0 1 1 0 0 forward_v I I I I #
face $-1 $92 $93 $34 $-1 $94 reversed single #
loop $-1 $-1 $95 $45 #
plane-surface $-1 0 -28.8774285529163 -9.0006769181005755 0 0 1 1 0 0 forward_v I I I I #
face $-1 $96 $97 $35 $-1 $98 reversed single #
loop $-1 $-1 $99 $46 #
plane-surface $-1 86.801386266011008 4.956321127663637 153.7109647348334 0 -1 0 -0.83867057594974714 0 -0.54463902268945019 forward_v I I I I #
face $-1 $100 $101 $36 $-1 $102 forward single #
loop $-1 $103 $104 $47 #
cone-surface $-1 49.686491694157738 -1.7844564127539968 7.5688481381227897 -0.83867057594974714 0 -0.54463902268945019 0.54463902268945019 0 -0.83867057594974714 1 I I 0 1 1 forward I I I I #
face $-1 $105 $106 $37 $-1 $107 forward single #
loop $-1 $108 $109 $48 #
cone-surface $-1 49.686491694157738 2.2600101114965838 7.5688481381227897 -0.83867057594974714 0 -0.54463902268945019 0.54463902268945019 0 -0.83867057594974714 1 I I 0 1 1 forward I I I I #
face $-1 $110 $111 $38 $-1 $112 reversed single #
loop $-1 $-1 $113 $49 #
plane-surface $-1 86.801386266011008 14.393409684248327 153.7109647348334 0 -1 0 -0.83867057594974714 0 -0.54463902268945019 forward_v I I I I #
face $-1 $114 $115 $39 $-1 $116 forward single #
loop $-1 $117 $118 $50 #
cone-surface $-1 49.686491694157738 7.6526321438306937 7.5688481381227897 -0.83867057594974714 0 -0.54463902268945019 0.54463902268945019 0 -0.83867057594974714 1 I I 0 1 1 forward I I I I #
face $-1 $119 $120 $40 $-1 $121 forward single #
loop $-1 $122 $123 $51 #
cone-surface $-1 49.686491694157738 11.697098668081274 7.5688481381227897 -0.83867057594974714 0 -0.54463902268945019 0.54463902268945019 0 -0.83867057594974714 1 I I 0 1 1 forward I I I I #
face $-1 $124 $125 $41 $-1 $126 reversed single #
loop $-1 $-1 $127 $52 #
plane-surface $-1 -148.3618670973695 -23.921107425252664 63.320417789119688 0 1 0 -0.85716730853699208 0 0.51503806187062418 forward_v I I I I #
face $-1 $128 $129 $42 $-1 $130 forward single #
loop $-1 $131 $132 $53 #
cone-surface $-1 -51.743581569440288 -19.878214041644622 10.137790924590231 0.85716730853699208 0 -0.51503806187062418 0.51503806187062418 0 0.85716730853699208 1 I I 0 1 1 forward I I I I #
face $-1 $133 $134 $43 $-1 $135 forward single #
loop $-1 $136 $137 $54 #
cone-surface $-1 -51.743581569440288 -13.813873966232563 10.137790924590231 0.85716730853699208 0 -0.51503806187062418 0.51503806187062418 0 0.85716730853699208 1 I I 0 1 1 forward I I I I #
face $-1 $138 $139 $33 $-1 $140 reversed single #
loop $-1 $-1 $141 $55 #
plane-surface $-1 0 0 -14.176368995164468 0 0 1 1 0 0 forward_v I I I I #
coedge $-1 $142 $143 $144 $145 forward $56 $-1 #
face $-1 $146 $147 $34 $-1 $148 reversed single #
loop $-1 $-1 $149 $58 #
plane-surface $-1 0 -23.921107425252664 -11.588522956632522 0 -1 0 0 0 -1 forward_v I I I I #
coedge $-1 $150 $151 $152 $153 reversed $59 $-1 #
face $-1 $154 $155 $35 $-1 $156 reversed single #
loop $-1 $-1 $157 $61 #
plane-surface $-1 -4.8798174771450533 0.23777684937129351 94.172496786177405 0.83867057594974714 0 0.54463902268945019 0.54463902268945019 0 -0.83867057594974714 forward_v I I I I #
coedge $-1 $158 $159 $160 $161 reversed $62 $-1 #
face $-1 $-1 $162 $36 $-1 $163 forward single #
loop $-1 $164 $165 $64 #
cone-surface $-1 48.089186031958086 -1.7844564127539968 6.5315457458079447 -0.83867057594974714 0 -0.54463902268945019 0.2723195113447251 0 -0.41933528797487357 1 I I -0.70710678118654746 0.70710678118654746 0.5 forward I I I I #
loop $-1 $-1 $166 $47 #
coedge $-1 $104 $104 $167 $168 reversed $65 $-1 #
face $-1 $-1 $169 $37 $-1 $170 forward single #
loop $-1 $171 $172 $67 #
cone-surface $-1 48.089186031958086 2.2600101114965838 6.5315457458079447 -0.83867057594974714 0 -0.54463902268945019 0.2723195113447251 0 -0.41933528797487357 1 I I -0.70710678118654746 0.70710678118654746 0.5 forward I I I I #
loop $-1 $-1 $173 $48 #
coedge $-1 $109 $109 $174 $175 reversed $68 $-1 #
face $-1 $176 $177 $38 $-1 $178 forward single #
loop $-1 $-1 $179 $70 #
plane-surface $-1 -4.8798174771450533 0.23777684937129351 94.172496786177405 0.83867057594974714 0 0.54463902268945019 0.54463902268945019 0 -0.83867057594974714 forward_v I I I I #
coedge $-1 $180 $181 $182 $183 reversed $71 $-1 #
face $-1 $-1 $184 $39 $-1 $185 forward single #
loop $-1 $186 $187 $73 #
cone-surface $-1 48.089186031958086 7.6526321438306937 6.5315457458079447 -0.83867057594974714 0 -0.54463902268945019 0.2723195113447251 0 -0.41933528797487357 1 I I -0.70710678118654746 0.70710678118654746 0.5 forward I I I I #
loop $-1 $-1 $188 $50 #
coedge $-1 $118 $118 $189 $190 reversed $74 $-1 #
face $-1 $-1 $191 $40 $-1 $192 forward single #
loop $-1 $193 $194 $76 #
cone-surface $-1 48.089186031958086 11.697098668081274 6.5315457458079447 -0.83867057594974714 0 -0.54463902268945019 0.2723195113447251 0 -0.41933528797487357 1 I I -0.70710678118654746 0.70710678118654746 0.5 forward I I I I #
loop $-1 $-1 $195 $51 #
coedge $-1 $123 $123 $196 $197 reversed $77 $-1 #
face $-1 $198 $199 $41 $-1 $200 reversed single #
loop $-1 $-1 $201 $79 #
plane-surface $-1 -54.658650471510995 -16.846044003938594 7.0178469824979075 -0.85716730853699208 0 0.51503806187062418 0.51503806187062418 0 0.85716730853699208 forward_v I I I I #
coedge $-1 $202 $203 $204 $205 reversed $80 $-1 #
face $-1 $-1 $206 $42 $-1 $207 forward single #
loop $-1 $208 $209 $82 #
cone-surface $-1 -50.550565922921422 -19.878214041644622 9.4209548294139633 0.85716730853699208 0 -0.51503806187062418 0.25751903093531209 0 0.42858365426849604 1 I I -0.70710678118654746 0.70710678118654746 0.5 forward I I I I #
loop $-1 $-1 $210 $53 #
coedge $-1 $132 $132 $211 $212 reversed $83 $-1 #
face $-1 $-1 $213 $43 $-1 $214 forward single #
loop $-1 $215 $216 $85 #
cone-surface $-1 -50.550565922921422 -13.813873966232563 9.4209548294139633 0.85716730853699208 0 -0.51503806187062418 0.25751903093531209 0 0.42858365426849604 1 I I -0.70710678118654746 0.70710678118654746 0.5 forward I I I I #
loop $-1 $-1 $217 $54 #
coedge $-1 $137 $137 $218 $219 reversed $86 $-1 #
face $-1 $220 $221 $33 $-1 $222 reversed single #
loop $-1 $-1 $223 $88 #
plane-surface $-1 0 -33.833749680579935 0 0 1 0 0 0 1 forward_v I I I I #
coedge $-1 $224 $225 $226 $227 forward $89 $-1 #
coedge $-1 $228 $91 $229 $230 forward $56 $-1 #
coedge $-1 $91 $228 $231 $232 forward $56 $-1 #
coedge $-1 $233 $234 $91 $145 reversed $235 $-1 #
edge $-1 $236 -33.833749680579935 $237 33.833749680579935 $144 $238 forward 7 unknown #
face $-1 $239 $240 $34 $-1 $241 reversed single #
loop $-1 $-1 $242 $92 #
plane-surface $-1 0 0 -14.176368995164468 0 0 1 1 0 0 forward_v I I I I #
coedge $-1 $243 $244 $245 $246 reversed $93 $-1 #
coedge $-1 $247 $95 $244 $248 forward $59 $-1 #
coedge $-1 $95 $247 $249 $250 reversed $59 $-1 #
coedge $-1 $251 $245 $95 $153 forward $240 $-1 #
edge $-1 $252 9.4823931487945146 $253 19.395035404121785 $152 $254 forward 7 unknown #
face $-1 $255 $256 $35 $-1 $257 reversed single #
loop $-1 $-1 $258 $96 #
plane-surface $-1 86.801386266011008 -4.48076742892105 153.7109647348334 0 1 0 0.83867057594974714 0 0.54463902268945019 forward_v I I I I #
coedge $-1 $259 $260 $261 $262 reversed $97 $-1 #
coedge $-1 $159 $99 $263 $264 reversed $62 $-1 #
coedge $-1 $99 $158 $259 $265 reversed $62 $-1 #
coedge $-1 $261 $266 $99 $161 forward $267 $-1 #
edge $-1 $268 -11.25795733850547 $269 -3.6695805322484745 $160 $270 forward 7 unknown #
loop $-1 $-1 $167 $100 #
plane-surface $-1 -4.8798174771450533 0.23777684937129351 94.172496786177405 0.83867057594974714 0 0.54463902268945019 0.54463902268945019 0 -0.83867057594974714 forward_v I I I I #
loop $-1 $-1 $271 $64 #
coedge $-1 $165 $165 $166 $272 reversed $101 $-1 #
coedge $-1 $166 $166 $165 $272 forward $103 $-1 #
coedge $-1 $167 $167 $104 $168 forward $162 $-1 #
edge $-1 $273 0 $273 6.2831853071796004 $167 $274 forward 7 unknown #
loop $-1 $-1 $174 $105 #
plane-surface $-1 -4.8798174771450533 0.23777684937129351 94.172496786177405 0.83867057594974714 0 0.54463902268945019 0.54463902268945019 0 -0.83867057594974714 forward_v I I I I #
loop $-1 $-1 $275 $67 #
coedge $-1 $172 $172 $173 $276 reversed $106 $-1 #
coedge $-1 $173 $173 $172 $276 forward $108 $-1 #
coedge $-1 $174 $174 $109 $175 forward $169 $-1 #
edge $-1 $277 0 $277 6.2831853071796004 $174 $278 forward 7 unknown #
face $-1 $279 $280 $38 $-1 $281 forward single #
loop $-1 $-1 $282 $110 #
plane-surface $-1 0 0 14.176368995164468 0 0 1 1 0 0 forward_v I I I I #
coedge $-1 $283 $284 $285 $286 reversed $111 $-1 #
coedge $-1 $181 $113 $287 $288 reversed $71 $-1 #
coedge $-1 $113 $180 $282 $289 reversed $71 $-1 #
coedge $-1 $290 $291 $113 $183 forward $292 $-1 #
edge $-1 $293 -74.364189324395412 $294 -62.679113372252232 $182 $295 forward 7 unknown #
loop $-1 $-1 $189 $114 #
plane-surface $-1 -4.8798174771450533 0.23777684937129351 94.172496786177405 0.83867057594974714 0 0.54463902268945019 0.54463902268945019 0 -0.83867057594974714 forward_v I I I I #
loop $-1 $-1 $296 $73 #
coedge $-1 $187 $187 $188 $297 reversed $115 $-1 #
coedge $-1 $188 $188 $187 $297 forward $117 $-1 #
coedge $-1 $189 $189 $118 $190 forward $184 $-1 #
edge $-1 $298 0 $298 6.2831853071796004 $189 $299 forward 7 unknown #
loop $-1 $-1 $196 $119 #
plane-surface $-1 -4.8798174771450533 0.23777684937129351 94.172496786177405 0.83867057594974714 0 0.54463902268945019 0.54463902268945019 0 -0.83867057594974714 forward_v I I I I #
loop $-1 $-1 $300 $76 #
coedge $-1 $194 $194 $195 $301 reversed $120 $-1 #
coedge $-1 $195 $195 $194 $301 forward $122 $-1 #
coedge $-1 $196 $196 $123 $197 forward $191 $-1 #
edge $-1 $302 0 $302 6.2831853071796004 $196 $303 forward 7 unknown #
face $-1 $304 $305 $41 $-1 $306 reversed single #
loop $-1 $-1 $307 $124 #
plane-surface $-1 -148.3618670973695 -9.7709805826245262 63.320417789119688 0 -1 0 0.85716730853699208 0 -0.51503806187062418 forward_v I I I I #
coedge $-1 $308 $309 $310 $311 reversed $125 $-1 #
coedge $-1 $203 $127 $312 $313 reversed $80 $-1 #
coedge $-1 $127 $202 $308 $314 reversed $80 $-1 #
coedge $-1 $310 $315 $127 $205 forward $316 $-1 #
edge $-1 $317 19.522283077173775 $318 23.823556896814381 $204 $319 forward 7 unknown #
loop $-1 $-1 $211 $128 #
plane-surface $-1 -54.658650471510995 -16.846044003938594 7.0178469824979075 -0.85716730853699208 0 0.51503806187062418 0.51503806187062418 0 0.85716730853699208 forward_v I I I I #
loop $-1 $-1 $320 $82 #
coedge $-1 $209 $209 $210 $321 reversed $129 $-1 #
coedge $-1 $210 $210 $209 $321 forward $131 $-1 #
coedge $-1 $211 $211 $132 $212 forward $206 $-1 #
edge $-1 $322 0 $322 6.2831853071796004 $211 $323 forward 7 unknown #
loop $-1 $-1 $218 $133 #
plane-surface $-1 -54.658650471510995 -16.846044003938594 7.0178469824979075 -0.85716730853699208 0 0.51503806187062418 0.51503806187062418 0 0.85716730853699208 forward_v I I I I #
loop $-1 $-1 $324 $85 #
coedge $-1 $216 $216 $217 $325 reversed $134 $-1 #
coedge $-1 $217 $217 $216 $325 forward $136 $-1 #
coedge $-1 $218 $218 $137 $219 forward $213 $-1 #
edge $-1 $326 0 $326 6.2831853071796004 $218 $327 forward 7 unknown #
face $-1 $328 $329 $33 $-1 $330 reversed single #
loop $-1 $-1 $331 $138 #
plane-surface $-1 -54.658650471510974 0 0 1 0 0 0 0 -1 forward_v I I I I #
coedge $-1 $332 $231 $333 $334 forward $139 $-1 #
coedge $-1 $335 $141 $332 $336 forward $89 $-1 #
coedge $-1 $141 $335 $337 $338 forward $89 $-1 #
coedge $-1 $234 $233 $141 $227 reversed $235 $-1 #
edge $-1 $339 -33.833749680579935 $340 33.833749680579935 $226 $341 forward 7 unknown #
coedge $-1 $143 $142 $342 $343 forward $56 $-1 #
coedge $-1 $344 $345 $142 $230 reversed $329 $-1 #
edge $-1 $237 -54.658650471510974 $346 54.658650471510974 $229 $347 forward 7 unknown #
coedge $-1 $223 $348 $143 $232 reversed $139 $-1 #
edge $-1 $349 -54.658650471510974 $236 54.658650471510974 $231 $350 forward 7 unknown #
coedge $-1 $226 $144 $348 $351 forward $235 $-1 #
coedge $-1 $144 $226 $344 $352 reversed $235 $-1 #
loop $-1 $-1 $233 $328 #
vertex $-1 $145 $353 #
vertex $-1 $145 $354 #
straight-curve $-1 54.658650471510974 0 14.176368995164468 0 1 0 I I #
face $-1 $355 $356 $34 $-1 $357 reversed single #
loop $-1 $-1 $245 $146 #
plane-surface $-1 54.658650471510974 0 0 -1 0 0 0 0 1 forward_v I I I I #
coedge $-1 $358 $359 $243 $360 forward $147 $-1 #
coedge $-1 $361 $149 $242 $360 reversed $93 $-1 #
coedge $-1 $149 $361 $150 $248 reversed $93 $-1 #
coedge $-1 $152 $362 $149 $246 forward $240 $-1 #
edge $-1 $363 -8.3821075168482082 $252 -3.2064154397843145 $245 $364 forward 7 unknown #
coedge $-1 $151 $150 $365 $366 reversed $59 $-1 #
edge $-1 $252 -54.658650471510974 $367 54.658650471510974 $244 $368 forward 7 unknown #
coedge $-1 $369 $370 $151 $250 forward $356 $-1 #
edge $-1 $253 -54.658650471510974 $371 54.658650471510974 $249 $372 forward 7 unknown #
coedge $-1 $362 $152 $370 $373 forward $240 $-1 #
vertex $-1 $153 $374 #
vertex $-1 $373 $375 #
straight-curve $-1 54.658650471510974 -14.43871427645815 -9.0006769181005755 0 -1 0 I I #
face $-1 $-1 $267 $35 $-1 $376 forward single #
loop $-1 $-1 $377 $154 #
plane-surface $-1 54.658650471510974 0 0 -1 0 0 0 0 1 forward_v I I I I #
coedge $-1 $378 $379 $380 $381 reversed $155 $-1 #
coedge $-1 $382 $157 $159 $265 forward $97 $-1 #
coedge $-1 $157 $382 $378 $383 forward $97 $-1 #
coedge $-1 $380 $160 $157 $262 forward $267 $-1 #
edge $-1 $269 -4.8374327029779902 $384 4.5996558536066967 $261 $385 forward 7 unknown #
coedge $-1 $386 $387 $158 $264 forward $256 $-1 #
edge $-1 $388 -74.364189324395412 $268 -62.679113372252232 $263 $389 forward 7 unknown #
edge $-1 $269 95.384445436662475 $388 109.31730094302202 $159 $390 forward 7 unknown #
coedge $-1 $160 $380 $386 $391 forward $267 $-1 #
loop $-1 $-1 $380 $255 #
vertex $-1 $264 $392 #
vertex $-1 $161 $393 #
straight-curve $-1 43.400693133005504 4.956321127663637 14.176368995164466 -1 0 0 I I #
coedge $-1 $271 $271 $-1 $394 reversed $164 $-1 #
edge $-1 $395 0 $395 6.2831853071796004 $165 $396 forward 7 unknown #
vertex $-1 $168 $397 #
ellipse-curve $-1 50.864462068382473 -1.7844564127539968 8.3338310190928837 0.83867057594974714 0 0.54463902268945019 0.54463902268945019 0 -0.83867057594974714 1 I I #
coedge $-1 $275 $275 $-1 $398 reversed $171 $-1 #
edge $-1 $399 0 $399 6.2831853071796004 $172 $400 forward 7 unknown #
vertex $-1 $175 $401 #
ellipse-curve $-1 50.864462068382473 2.2600101114965838 8.3338310190928837 0.83867057594974714 0 0.54463902268945019 0.54463902268945019 0 -0.83867057594974714 1 I I #
face $-1 $-1 $292 $38 $-1 $402 reversed single #
loop $-1 $-1 $403 $176 #
plane-surface $-1 86.801386266011008 4.956321127663637 153.7109647348334 0 -1 0 -0.83867057594974714 0 -0.54463902268945019 forward_v I I I I #
coedge $-1 $404 $405 $181 $289 forward $177 $-1 #
coedge $-1 $287 $179 $404 $406 reversed $111 $-1 #
coedge $-1 $179 $287 $291 $407 reversed $111 $-1 #
coedge $-1 $408 $403 $179 $286 forward $280 $-1 #
edge $-1 $409 95.384445436662475 $410 109.31730094302202 $285 $411 forward 7 unknown #
coedge $-1 $284 $283 $180 $288 forward $111 $-1 #
edge $-1 $412 95.384445436662475 $293 109.31730094302202 $180 $413 forward 7 unknown #
edge $-1 $294 -11.25795733850547 $412 -3.6695805322484745 $282 $414 forward 7 unknown #
coedge $-1 $415 $182 $405 $416 reversed $292 $-1 #
coedge $-1 $182 $415 $284 $407 forward $292 $-1 #
loop $-1 $-1 $182 $279 #
vertex $-1 $183 $417 #
vertex $-1 $183 $418 #
straight-curve $-1 54.658650471510974 14.393409684248327 76.855482367416698 0 0 1 I I #
coedge $-1 $296 $296 $-1 $419 reversed $186 $-1 #
edge $-1 $420 0 $420 6.2831853071796004 $187 $421 forward 7 unknown #
vertex $-1 $190 $422 #
ellipse-curve $-1 50.864462068382473 7.6526321438306937 8.3338310190928837 0.83867057594974714 0 0.54463902268945019 0.54463902268945019 0 -0.83867057594974714 1 I I #
coedge $-1 $300 $300 $-1 $423 reversed $193 $-1 #
edge $-1 $424 0 $424 6.2831853071796004 $194 $425 forward 7 unknown #
vertex $-1 $197 $426 #
ellipse-curve $-1 50.864462068382473 11.697098668081274 8.3338310190928837 0.83867057594974714 0 0.54463902268945019 0.54463902268945019 0 -0.83867057594974714 1 I I #
face $-1 $-1 $316 $41 $-1 $427 forward single #
loop $-1 $-1 $428 $198 #
plane-surface $-1 -54.658650471510974 0 0 1 0 0 0 0 -1 forward_v I I I I #
coedge $-1 $429 $430 $431 $432 reversed $199 $-1 #
coedge $-1 $433 $201 $203 $314 forward $125 $-1 #
coedge $-1 $201 $433 $429 $434 forward $125 $-1 #
coedge $-1 $431 $204 $201 $311 forward $316 $-1 #
edge $-1 $318 -15.498085423283367 $435 -1.347958580655229 $310 $436 forward 7 unknown #
coedge $-1 $437 $438 $202 $313 forward $305 $-1 #
edge $-1 $439 -24.642361912061901 $317 -17.483839899395377 $312 $440 forward 7 unknown #
edge $-1 $318 -8.3513707783427744 $439 -4.1431396825663817e-014 $203 $441 forward 7 unknown #
coedge $-1 $204 $431 $437 $442 forward $316 $-1 #
loop $-1 $-1 $431 $304 #
vertex $-1 $313 $443 #
vertex $-1 $205 $444 #
straight-curve $-1 -74.180933548684749 -23.921107425252664 14.176368995164466 1 0 0 I I #
coedge $-1 $320 $320 $-1 $445 reversed $208 $-1 #
edge $-1 $446 0 $446 6.2831853071796004 $209 $447 forward 7 unknown #
vertex $-1 $212 $448 #
ellipse-curve $-1 -52.508013561690674 -19.878214041644622 10.597107988831196 -0.85716730853699208 0 0.51503806187062418 0.51503806187062418 0 0.85716730853699208 1 I I #
coedge $-1 $324 $324 $-1 $449 reversed $215 $-1 #
edge $-1 $450 0 $450 6.2831853071796004 $216 $451 forward 7 unknown #
vertex $-1 $219 $452 #
ellipse-curve $-1 -52.508013561690674 -13.813873966232563 10.597107988831196 -0.85716730853699208 0 0.51503806187062418 0.51503806187062418 0 0.85716730853699208 1 I I #
face $-1 $-1 $235 $33 $-1 $453 reversed single #
loop $-1 $-1 $344 $220 #
plane-surface $-1 0 33.833749680579935 0 0 -1 0 0 0 -1 forward_v I I I I #
coedge $-1 $454 $342 $345 $455 forward $221 $-1 #
coedge $-1 $348 $223 $224 $336 reversed $139 $-1 #
coedge $-1 $342 $454 $223 $334 reversed $221 $-1 #
edge $-1 $349 -14.176368995164468 $456 14.176368995164468 $333 $457 forward 7 unknown #
coedge $-1 $225 $224 $454 $458 forward $89 $-1 #
edge $-1 $340 -54.658650471510974 $456 54.658650471510974 $332 $459 forward 7 unknown #
coedge $-1 $345 $344 $225 $338 reversed $329 $-1 #
edge $-1 $460 -54.658650471510974 $339 54.658650471510974 $337 $461 forward 7 unknown #
vertex $-1 $227 $462 #
vertex $-1 $351 $463 #
straight-curve $-1 54.658650471510974 0 -14.176368995164468 0 -1 0 I I #
coedge $-1 $331 $333 $228 $343 reversed $221 $-1 #
edge $-1 $346 -33.833749680579935 $349 33.833749680579935 $342 $464 forward 7 unknown #
coedge $-1 $337 $229 $234 $352 forward $329 $-1 #
coedge $-1 $229 $337 $331 $455 reversed $329 $-1 #
vertex $-1 $230 $465 #
straight-curve $-1 0 33.833749680579935 14.176368995164468 -1 0 0 I I #
coedge $-1 $231 $332 $233 $351 reversed $139 $-1 #
vertex $-1 $343 $466 #
straight-curve $-1 0 -33.833749680579935 14.176368995164468 1 0 0 I I #
edge $-1 $236 -14.176368995164468 $340 14.176368995164468 $233 $467 forward 7 unknown #
edge $-1 $237 -14.176368995164468 $339 14.176368995164468 $234 $468 forward 7 unknown #
point $-1 54.658650471510974 -33.833749680579935 14.176368995164468 #
point $-1 54.658650471510974 33.833749680579935 14.176368995164468 #
face $-1 $-1 $469 $34 $-1 $470 reversed single #
loop $-1 $-1 $249 $239 #
plane-surface $-1 0 -33.833749680579935 0 0 1 0 0 0 1 forward_v I I I I #
coedge $-1 $471 $242 $362 $472 forward $147 $-1 #
coedge $-1 $242 $471 $473 $474 forward $147 $-1 #
edge $-1 $475 -54.658650471510974 $363 54.658650471510974 $242 $476 forward 7 unknown #
coedge $-1 $244 $243 $477 $478 reversed $93 $-1 #
coedge $-1 $245 $251 $358 $472 reversed $240 $-1 #
vertex $-1 $472 $479 #
straight-curve $-1 54.658650471510974 -23.921107425252664 -5.7942614783162609 0 0 1 I I #
coedge $-1 $477 $480 $247 $366 forward $469 $-1 #
edge $-1 $371 -19.395035404121785 $367 -9.4823931487945146 $365 $481 forward 7 unknown #
vertex $-1 $366 $482 #
straight-curve $-1 0 -23.921107425252664 -9.0006769181005755 -1 0 0 I I #
coedge $-1 $483 $249 $480 $484 forward $356 $-1 #
coedge $-1 $249 $483 $251 $373 reversed $356 $-1 #
vertex $-1 $484 $485 #
straight-curve $-1 0 -33.833749680579935 -9.0006769181005755 -1 0 0 I I #
edge $-1 $253 9.0006769181005755 $486 14.176368995164468 $251 $487 forward 7 unknown #
point $-1 54.658650471510974 -23.921107425252664 -9.0006769181005755 #
point $-1 54.658650471510974 -33.833749680579935 -9.0006769181005755 #
plane-surface $-1 0 0 14.176368995164468 0 0 1 1 0 0 forward_v I I I I #
coedge $-1 $387 $386 $379 $488 forward $256 $-1 #
coedge $-1 $379 $258 $260 $383 reversed $155 $-1 #
coedge $-1 $258 $378 $377 $488 reversed $155 $-1 #
coedge $-1 $266 $261 $258 $381 forward $267 $-1 #
edge $-1 $384 3.6695805322484745 $489 11.25795733850547 $380 $490 forward 7 unknown #
coedge $-1 $260 $259 $387 $491 reversed $97 $-1 #
edge $-1 $492 -109.31730094302202 $384 -95.384445436662475 $378 $493 forward 7 unknown #
vertex $-1 $262 $494 #
straight-curve $-1 47.070273665253978 0.11888842468564675 14.176368995164474 0 -1 0 I I #
coedge $-1 $377 $263 $266 $391 reversed $256 $-1 #
coedge $-1 $263 $377 $382 $491 forward $256 $-1 #
vertex $-1 $264 $495 #
straight-curve $-1 54.658650471510974 4.956321127663637 76.855482367416698 0 0 1 I I #
straight-curve $-1 -4.8798174771450533 4.956321127663637 94.172496786177405 0.54463902268945019 0 -0.83867057594974714 I I #
edge $-1 $489 -4.48076742892105 $268 4.956321127663637 $386 $496 forward 7 unknown #
point $-1 54.658650471510974 4.956321127663637 14.176368995164468 #
point $-1 47.070273665253978 4.956321127663637 14.176368995164466 #
edge $-1 $497 1 $497 0 $271 $-1 forward 7 unknown #
vertex $-1 $272 $498 #
ellipse-curve $-1 48.50852131993296 -1.7844564127539968 6.8038652571526699 0.83867057594974714 0 0.54463902268945019 0.54463902268945019 0 -0.83867057594974714 1 I I #
point $-1 51.40910109107196 -1.7844564127539968 7.4951604431431624 #
edge $-1 $499 1 $499 0 $275 $-1 forward 7 unknown #
vertex $-1 $276 $500 #
ellipse-curve $-1 48.50852131993296 2.2600101114965838 6.8038652571526699 0.83867057594974714 0 0.54463902268945019 0.54463902268945019 0 -0.83867057594974714 1 I I #
point $-1 51.40910109107196 2.2600101114965838 7.4951604431431624 #
plane-surface $-1 54.658650471510974 0 0 -1 0 0 0 0 1 forward_v I I I I #
coedge $-1 $285 $408 $501 $502 reversed $280 $-1 #
coedge $-1 $501 $282 $283 $406 forward $177 $-1 #
coedge $-1 $282 $501 $290 $416 forward $177 $-1 #
edge $-1 $412 -14.274521259562681 $409 -4.8374327029779902 $404 $503 forward 7 unknown #
edge $-1 $410 4.8374327029779902 $293 14.274521259562681 $291 $504 forward 7 unknown #
coedge $-1 $403 $285 $415 $505 reversed $280 $-1 #
vertex $-1 $406 $506 #
vertex $-1 $407 $507 #
straight-curve $-1 -4.8798174771450533 4.956321127663637 94.172496786177405 0.54463902268945019 0 -0.83867057594974714 I I #
vertex $-1 $289 $508 #
straight-curve $-1 -4.8798174771450533 14.393409684248327 94.172496786177405 0.54463902268945019 0 -0.83867057594974714 I I #
straight-curve $-1 43.400693133005504 14.393409684248327 14.176368995164466 -1 0 0 I I #
coedge $-1 $291 $290 $408 $505 forward $292 $-1 #
edge $-1 $509 4.956321127663637 $294 14.393409684248327 $290 $510 forward 7 unknown #
point $-1 54.658650471510974 14.393409684248327 2.4912930430212867 #
point $-1 54.658650471510974 14.393409684248327 14.176368995164468 #
edge $-1 $511 1 $511 0 $296 $-1 forward 7 unknown #
vertex $-1 $297 $512 #
ellipse-curve $-1 48.50852131993296 7.6526321438306937 6.8038652571526699 0.83867057594974714 0 0.54463902268945019 0.54463902268945019 0 -0.83867057594974714 1 I I #
point $-1 51.40910109107196 7.6526321438306937 7.4951604431431624 #
edge $-1 $513 1 $513 0 $300 $-1 forward 7 unknown #
vertex $-1 $301 $514 #
ellipse-curve $-1 48.50852131993296 11.697098668081274 6.8038652571526699 0.83867057594974714 0 0.54463902268945019 0.54463902268945019 0 -0.83867057594974714 1 I I #
point $-1 51.40910109107196 11.697098668081274 7.4951604431431624 #
plane-surface $-1 0 0 14.176368995164468 0 0 1 1 0 0 forward_v I I I I #
coedge $-1 $438 $437 $430 $515 forward $305 $-1 #
coedge $-1 $430 $307 $309 $434 reversed $199 $-1 #
coedge $-1 $307 $429 $428 $515 reversed $199 $-1 #
coedge $-1 $315 $310 $307 $432 forward $316 $-1 #
edge $-1 $435 -23.823556896814381 $516 -19.522283077173775 $431 $517 forward 7 unknown #
coedge $-1 $309 $308 $438 $518 reversed $125 $-1 #
edge $-1 $519 4.1431396825663817e-014 $435 8.3513707783427744 $429 $520 forward 7 unknown #
vertex $-1 $311 $521 #
straight-curve $-1 -50.357376651870361 -8.4230220019692972 14.176368995164466 0 1 0 I I #
coedge $-1 $428 $312 $315 $442 reversed $305 $-1 #
coedge $-1 $312 $428 $433 $518 forward $305 $-1 #
vertex $-1 $313 $522 #
straight-curve $-1 -54.658650471510974 -23.921107425252664 31.660208894559844 0 0 1 I I #
straight-curve $-1 -54.658650471510995 -23.921107425252664 7.0178469824979075 -0.51503806187062418 0 -0.85716730853699208 I I #
edge $-1 $516 9.7709805826245262 $317 23.921107425252664 $437 $523 forward 7 unknown #
point $-1 -54.658650471510974 -23.921107425252664 14.176368995164468 #
point $-1 -50.357376651870368 -23.921107425252664 14.176368995164466 #
edge $-1 $524 1 $524 0 $320 $-1 forward 7 unknown #
vertex $-1 $321 $525 #
ellipse-curve $-1 -50.979149577189915 -19.878214041644622 9.6784738603492748 -0.85716730853699208 0 0.51503806187062418 0.51503806187062418 0 0.85716730853699208 1 I I #
point $-1 -51.992975499820041 -19.878214041644622 11.454275297368177 #
edge $-1 $526 1 $526 0 $324 $-1 forward 7 unknown #
vertex $-1 $325 $527 #
ellipse-curve $-1 -50.979149577189915 -13.813873966232563 9.6784738603492748 -0.85716730853699208 0 0.51503806187062418 0.51503806187062418 0 0.85716730853699208 1 I I #
point $-1 -51.992975499820041 -13.813873966232563 11.454275297368177 #
plane-surface $-1 54.658650471510974 0 0 -1 0 0 0 0 1 forward_v I I I I #
coedge $-1 $333 $331 $335 $458 reversed $221 $-1 #
edge $-1 $346 -14.176368995164468 $460 14.176368995164468 $345 $528 forward 7 unknown #
vertex $-1 $458 $529 #
straight-curve $-1 -54.658650471510974 -33.833749680579935 0 0 0 -1 I I #
edge $-1 $456 -33.833749680579935 $460 33.833749680579935 $454 $530 forward 7 unknown #
straight-curve $-1 0 -33.833749680579935 -14.176368995164468 -1 0 0 I I #
vertex $-1 $338 $531 #
straight-curve $-1 0 33.833749680579935 -14.176368995164468 1 0 0 I I #
point $-1 54.658650471510974 33.833749680579935 -14.176368995164468 #
point $-1 54.658650471510974 -33.833749680579935 -14.176368995164468 #
straight-curve $-1 -54.658650471510974 0 14.176368995164468 0 -1 0 I I #
point $-1 -54.658650471510974 33.833749680579935 14.176368995164468 #
point $-1 -54.658650471510974 -33.833749680579935 14.176368995164468 #
straight-curve $-1 54.658650471510974 -33.833749680579935 0 0 0 -1 I I #
straight-curve $-1 54.658650471510974 33.833749680579935 0 0 0 -1 I I #
loop $-1 $-1 $477 $355 #
plane-surface $-1 -54.658650471510974 0 0 1 0 0 0 0 -1 forward_v I I I I #
coedge $-1 $359 $358 $483 $532 forward $147 $-1 #
edge $-1 $363 23.921107425252664 $486 33.833749680579935 $362 $533 forward 7 unknown #
coedge $-1 $480 $477 $359 $474 reversed $469 $-1 #
edge $-1 $534 -33.833749680579935 $475 -23.921107425252664 $473 $535 forward 7 unknown #
vertex $-1 $478 $536 #
straight-curve $-1 0 -23.921107425252664 -14.176368995164468 1 0 0 I I #
coedge $-1 $473 $365 $361 $478 forward $469 $-1 #
edge $-1 $367 3.2064154397843145 $475 8.3821075168482082 $477 $537 forward 7 unknown #
point $-1 54.658650471510974 -23.921107425252664 -14.176368995164468 #
coedge $-1 $365 $473 $369 $484 reversed $469 $-1 #
straight-curve $-1 -54.658650471510974 -14.43871427645815 -9.0006769181005755 0 1 0 I I #
point $-1 -54.658650471510974 -23.921107425252664 -9.0006769181005755 #
coedge $-1 $370 $369 $471 $532 reversed $356 $-1 #
edge $-1 $371 9.0006769181005755 $534 14.176368995164468 $480 $538 forward 7 unknown #
point $-1 -54.658650471510974 -33.833749680579935 -9.0006769181005755 #
vertex $-1 $373 $539 #
straight-curve $-1 54.658650471510974 -33.833749680579935 0 0 0 -1 I I #
edge $-1 $489 62.679113372252232 $492 74.364189324395412 $377 $540 forward 7 unknown #
vertex $-1 $391 $541 #
straight-curve $-1 43.400693133005504 -4.48076742892105 14.176368995164466 1 0 0 I I #
edge $-1 $492 -4.5996558536066967 $388 4.8374327029779902 $387 $542 forward 7 unknown #
vertex $-1 $491 $543 #
straight-curve $-1 -4.8798174771450533 -4.48076742892105 94.172496786177405 -0.54463902268945019 0 0.83867057594974714 I I #
point $-1 47.070273665253978 -4.48076742892105 14.176368995164466 #
point $-1 54.658650471510974 4.956321127663637 2.4912930430212867 #
straight-curve $-1 54.658650471510974 0 14.176368995164468 0 1 0 I I #
vertex $-1 $394 $544 #
point $-1 49.053160342622412 -1.7844564127539968 5.9651946812029228 #
vertex $-1 $398 $545 #
point $-1 49.053160342622412 2.2600101114965838 5.9651946812029228 #
coedge $-1 $405 $404 $403 $502 forward $177 $-1 #
edge $-1 $409 3.6695805322484745 $509 11.25795733850547 $501 $546 forward 7 unknown #
straight-curve $-1 47.070273665253978 0.11888842468564675 14.176368995164474 0 -1 0 I I #
straight-curve $-1 54.658650471510967 0.11888842468564675 2.4912930430212867 0 1 0 I I #
edge $-1 $509 62.679113372252232 $410 74.364189324395412 $415 $547 forward 7 unknown #
point $-1 47.070273665253978 4.956321127663637 14.176368995164466 #
point $-1 54.658650471510974 4.956321127663637 2.4912930430212867 #
point $-1 47.070273665253978 14.393409684248327 14.176368995164466 #
vertex $-1 $416 $548 #
straight-curve $-1 54.658650471510974 0 14.176368995164468 0 1 0 I I #
vertex $-1 $419 $549 #
point $-1 49.053160342622412 7.6526321438306937 5.9651946812029228 #
vertex $-1 $423 $550 #
point $-1 49.053160342622412 11.697098668081274 5.9651946812029228 #
edge $-1 $516 17.483839899395377 $519 24.642361912061901 $428 $551 forward 7 unknown #
vertex $-1 $442 $552 #
straight-curve $-1 -74.180933548684749 -9.7709805826245262 14.176368995164466 -1 0 0 I I #
edge $-1 $519 1.347958580655229 $439 15.498085423283367 $438 $553 forward 7 unknown #
vertex $-1 $518 $554 #
straight-curve $-1 -54.658650471510995 -9.7709805826245262 7.0178469824979075 0.51503806187062418 0 0.85716730853699208 I I #
point $-1 -50.357376651870368 -9.7709805826245262 14.176368995164466 #
point $-1 -54.658650471510974 -23.921107425252664 7.017846982497943 #
straight-curve $-1 -54.658650471510974 0 14.176368995164468 0 -1 0 I I #
vertex $-1 $445 $555 #
point $-1 -50.464111515319296 -19.878214041644622 10.535641168886267 #
vertex $-1 $449 $556 #
point $-1 -50.464111515319296 -13.813873966232563 10.535641168886267 #
straight-curve $-1 -54.658650471510974 33.833749680579935 0 0 0 -1 I I #
point $-1 -54.658650471510974 -33.833749680579935 -14.176368995164468 #
straight-curve $-1 -54.658650471510974 0 -14.176368995164468 0 1 0 I I #
point $-1 -54.658650471510974 33.833749680579935 -14.176368995164468 #
edge $-1 $486 -54.658650471510974 $534 54.658650471510974 $483 $557 forward 7 unknown #
straight-curve $-1 54.658650471510974 0 -14.176368995164468 0 -1 0 I I #
vertex $-1 $474 $558 #
straight-curve $-1 -54.658650471510974 0 -14.176368995164468 0 1 0 I I #
point $-1 -54.658650471510974 -23.921107425252664 -14.176368995164468 #
straight-curve $-1 -54.658650471510974 -23.921107425252664 -5.7942614783162609 0 0 -1 I I #
straight-curve $-1 -54.658650471510974 -33.833749680579935 0 0 0 -1 I I #
point $-1 54.658650471510974 -33.833749680579935 -14.176368995164468 #
straight-curve $-1 54.658650471510974 -4.48076742892105 76.855482367416698 0 0 -1 I I #
point $-1 54.658650471510974 -4.48076742892105 14.176368995164468 #
straight-curve $-1 54.658650471510967 0.11888842468564675 2.4912930430212867 0 1 0 I I #
point $-1 54.658650471510974 -4.48076742892105 2.4912930430212867 #
point $-1 47.669850743983211 -1.7844564127539968 6.2592262344632195 #
point $-1 47.669850743983211 2.2600101114965838 6.2592262344632195 #
straight-curve $-1 43.400693133005504 4.956321127663637 14.176368995164466 1 0 0 I I #
straight-curve $-1 54.658650471510974 4.956321127663637 76.855482367416698 0 0 -1 I I #
point $-1 54.658650471510974 4.956321127663637 14.176368995164468 #
point $-1 47.669850743983211 7.6526321438306937 6.2592262344632195 #
point $-1 47.669850743983211 11.697098668081274 6.2592262344632195 #
straight-curve $-1 -54.658650471510974 -9.7709805826245262 31.660208894559844 0 0 -1 I I #
point $-1 -54.658650471510974 -9.7709805826245262 14.176368995164468 #
straight-curve $-1 -54.658650471510974 -8.4230220019692972 7.0178469824979324 0 -1 0 I I #
point $-1 -54.658650471510974 -9.7709805826245262 7.017846982497943 #
point $-1 -50.121982268652928 -19.878214041644622 9.1634357984786519 #
point $-1 -50.121982268652928 -13.813873966232563 9.1634357984786519 #
straight-curve $-1 0 -33.833749680579935 -14.176368995164468 -1 0 0 I I #
point $-1 -54.658650471510974 -33.833749680579935 -14.176368995164468 #
End-of-ACIS-data 