500 0 10 0           
7 Unknown 11 ACIS 5.0 NT 24 Thu Mar 25 19:23:38 1999 
-1 9.9999999999999995e-007 1e-010 
body $-1 $10 $-1 $11 #
body $-1 $12 $-1 $13 #
body $-1 $14 $-1 $15 #
body $-1 $16 $-1 $17 #
body $-1 $18 $-1 $19 #
body $-1 $20 $-1 $21 #
body $-1 $22 $-1 $23 #
body $-1 $24 $-1 $25 #
body $-1 $26 $-1 $27 #
body $-1 $28 $-1 $29 #
lump $-1 $-1 $30 $0 #
transform $-1 1 0 0 0 1 0 0 0 1 50.254219183935056 33.827544786173441 10.440526320124796 1 rotate no_reflect no_shear #
lump $-1 $-1 $31 $1 #
transform $-1 1 0 0 0 1 0 0 0 1 50.254219183935056 33.827544786173441 10.440526320124796 1 rotate no_reflect no_shear #
lump $-1 $-1 $32 $2 #
transform $-1 1 0 0 0 1 0 0 0 1 50.254219183935056 33.827544786173441 10.440526320124796 1 rotate no_reflect no_shear #
lump $-1 $-1 $33 $3 #
transform $-1 1 0 0 0 1 0 0 0 1 50.254219183935056 33.827544786173441 10.440526320124796 1 rotate no_reflect no_shear #
lump $-1 $-1 $34 $4 #
transform $-1 1 0 0 0 1 0 0 0 1 50.254219183935056 33.827544786173441 10.440526320124796 1 rotate no_reflect no_shear #
lump $-1 $-1 $35 $5 #
transform $-1 1 0 0 0 1 0 0 0 1 50.254219183935056 33.827544786173441 10.440526320124796 1 rotate no_reflect no_shear #
lump $-1 $-1 $36 $6 #
transform $-1 1 0 0 0 1 0 0 0 1 50.254219183935056 33.827544786173441 10.440526320124796 1 rotate no_reflect no_shear #
lump $-1 $-1 $37 $7 #
transform $-1 1 0 0 0 1 0 0 0 1 50.254219183935056 33.827544786173441 10.440526320124796 1 rotate no_reflect no_shear #
lump $-1 $-1 $38 $8 #
transform $-1 1 0 0 0 1 0 0 0 1 50.254219183935056 33.827544786173441 10.440526320124796 1 rotate no_reflect no_shear #
lump $-1 $-1 $39 $9 #
transform $-1 1 0 0 0 1 0 0 0 1 50.254219183935056 33.827544786173441 10.440526320124796 1 rotate no_reflect no_shear #
shell $-1 $-1 $-1 $40 $-1 $10 #
shell $-1 $-1 $-1 $41 $-1 $12 #
shell $-1 $-1 $-1 $42 $-1 $14 #
shell $-1 $-1 $-1 $43 $-1 $16 #
shell $-1 $-1 $-1 $44 $-1 $18 #
shell $-1 $-1 $-1 $45 $-1 $20 #
shell $-1 $-1 $-1 $46 $-1 $22 #
shell $-1 $-1 $-1 $47 $-1 $24 #
shell $-1 $-1 $-1 $48 $-1 $26 #
shell $-1 $-1 $-1 $49 $-1 $28 #
face $-1 $50 $51 $30 $-1 $52 forward single #
face $-1 $53 $54 $31 $-1 $55 reversed single #
face $-1 $56 $57 $32 $-1 $58 reversed single #
face $-1 $59 $60 $33 $-1 $61 forward single #
face $-1 $62 $63 $34 $-1 $64 forward single #
face $-1 $65 $66 $35 $-1 $67 reversed single #
face $-1 $68 $69 $36 $-1 $70 forward single #
face $-1 $71 $72 $37 $-1 $73 forward single #
face $-1 $74 $75 $38 $-1 $76 reversed single #
face $-1 $77 $78 $39 $-1 $79 forward single #
face $-1 $80 $81 $30 $-1 $82 reversed single #
loop $-1 $-1 $83 $40 #
plane-surface $-1 0 0 10.440526320124796 0 0 1 1 0 0 forward_v I I I I #
face $-1 $84 $85 $31 $-1 $86 reversed single #
loop $-1 $-1 $87 $41 #
plane-surface $-1 0 -30.209308331917672 7.4405263201247962 0 0 1 1 0 0 forward_v I I I I #
face $-1 $88 $89 $32 $-1 $90 reversed single #
loop $-1 $-1 $91 $42 #
plane-surface $-1 -112.13339340817157 -9.8000916559179601 86.272579873495062 0 1 0 -0.61566148304635926 0 0.78801074757464917 forward_v I I I I #
face $-1 $92 $93 $33 $-1 $94 forward single #
loop $-1 $95 $96 $43 #
cone-surface $-1 -47.564368903828722 -5.9662836244397504 8.0730237867647272 0.61566148304635926 0 -0.78801074757464917 0.78801074757464917 0 0.61566148304635926 1 I I 0 1 1 forward I I I I #
face $-1 $97 $98 $34 $-1 $99 forward single #
loop $-1 $100 $101 $44 #
cone-surface $-1 -47.564368903828722 -0.21557157722244114 8.0730237867647272 0.61566148304635926 0 -0.78801074757464917 0.78801074757464917 0 0.61566148304635926 1 I I 0 1 1 forward I I I I #
face $-1 $102 $103 $35 $-1 $104 reversed single #
loop $-1 $-1 $105 $45 #
plane-surface $-1 -50.254219183935064 -3.090927600831094 7.0708502176691752 -0.61566148304635926 0 0.78801074757464917 0.78801074757464917 0 0.61566148304635926 forward_v I I I I #
face $-1 $106 $107 $36 $-1 $108 forward single #
loop $-1 $109 $110 $46 #
cone-surface $-1 -47.564368903828722 7.4520444857339854 8.0730237867647272 0.61566148304635926 0 -0.78801074757464917 0.78801074757464917 0 0.61566148304635926 1 I I 0 1 1 forward I I I I #
face $-1 $111 $112 $37 $-1 $113 forward single #
loop $-1 $114 $115 $47 #
cone-surface $-1 -47.564368903828722 13.202756532951291 8.0730237867647272 0.61566148304635926 0 -0.78801074757464917 0.78801074757464917 0 0.61566148304635926 1 I I 0 1 1 forward I I I I #
face $-1 $116 $117 $38 $-1 $118 reversed single #
loop $-1 $-1 $119 $48 #
plane-surface $-1 82.228853351477341 3.5700639504736049 142.74044755890773 0 -1 0 -0.84804810408105047 0 -0.52991925155115449 forward_v I I I I #
face $-1 $120 $121 $39 $-1 $122 forward single #
loop $-1 $123 $124 $49 #
cone-surface $-1 46.447186223994258 -2.8581840534417964 6.1728439293823083 -0.84804810408105047 0 -0.52991925155115449 0.79487887732673168 0 -1.2720721561215758 1 I I 0 1 1.5 forward I I I I #
face $-1 $125 $126 $30 $-1 $127 reversed single #
loop $-1 $-1 $128 $50 #
plane-surface $-1 0 0 -10.440526320124796 0 0 1 1 0 0 forward_v I I I I #
coedge $-1 $129 $130 $131 $132 forward $51 $-1 #
face $-1 $133 $134 $31 $-1 $135 reversed single #
loop $-1 $-1 $136 $53 #
plane-surface $-1 0 -26.591071877661903 8.9405263201247962 0 -1 0 0 0 -1 forward_v I I I I #
coedge $-1 $137 $138 $139 $140 reversed $54 $-1 #
face $-1 $141 $142 $32 $-1 $143 reversed single #
loop $-1 $-1 $144 $56 #
plane-surface $-1 -50.254219183935064 -3.090927600831094 7.0708502176691752 -0.61566148304635926 0 0.78801074757464917 0.78801074757464917 0 0.61566148304635926 forward_v I I I I #
coedge $-1 $145 $146 $147 $148 reversed $57 $-1 #
face $-1 $-1 $149 $33 $-1 $150 forward single #
loop $-1 $151 $152 $59 #
cone-surface $-1 -46.723182203917666 -5.9662836244397504 6.9963539308451423 0.61566148304635926 0 -0.78801074757464917 0.39400537378732459 0 0.30783074152317963 1 I I -0.70710678118654746 0.70710678118654746 0.5 forward I I I I #
loop $-1 $-1 $153 $43 #
coedge $-1 $96 $96 $154 $155 reversed $60 $-1 #
face $-1 $-1 $156 $34 $-1 $157 forward single #
loop $-1 $158 $159 $62 #
cone-surface $-1 -46.723182203917666 -0.21557157722244114 6.9963539308451423 0.61566148304635926 0 -0.78801074757464917 0.39400537378732459 0 0.30783074152317963 1 I I -0.70710678118654746 0.70710678118654746 0.5 forward I I I I #
loop $-1 $-1 $160 $44 #
coedge $-1 $101 $101 $161 $162 reversed $63 $-1 #
face $-1 $163 $164 $35 $-1 $165 forward single #
loop $-1 $-1 $166 $65 #
plane-surface $-1 -112.13339340817157 17.036564564429504 86.272579873495062 0 -1 0 0.61566148304635926 0 -0.78801074757464917 forward_v I I I I #
coedge $-1 $167 $168 $169 $170 reversed $66 $-1 #
face $-1 $-1 $171 $36 $-1 $172 forward single #
loop $-1 $173 $174 $68 #
cone-surface $-1 -46.723182203917666 7.4520444857339854 6.9963539308451423 0.61566148304635926 0 -0.78801074757464917 0.39400537378732459 0 0.30783074152317963 1 I I -0.70710678118654746 0.70710678118654746 0.5 forward I I I I #
loop $-1 $-1 $175 $46 #
coedge $-1 $110 $110 $176 $177 reversed $69 $-1 #
face $-1 $-1 $178 $37 $-1 $179 forward single #
loop $-1 $180 $181 $71 #
cone-surface $-1 -46.723182203917666 13.202756532951291 6.9963539308451423 0.61566148304635926 0 -0.78801074757464917 0.39400537378732459 0 0.30783074152317963 1 I I -0.70710678118654746 0.70710678118654746 0.5 forward I I I I #
loop $-1 $-1 $182 $47 #
coedge $-1 $115 $115 $183 $184 reversed $72 $-1 #
face $-1 $185 $186 $38 $-1 $187 reversed single #
loop $-1 $-1 $188 $74 #
plane-surface $-1 -3.0071372505420157 -2.8581840534417964 89.479091124430653 0.84804810408105047 0 0.52991925155115449 0.52991925155115449 0 -0.84804810408105047 forward_v I I I I #
coedge $-1 $189 $190 $191 $192 reversed $75 $-1 #
face $-1 $-1 $193 $39 $-1 $194 forward single #
loop $-1 $195 $196 $77 #
cone-surface $-1 43.940407842421202 -2.8581840534417964 4.606434998833187 -0.84804810408105047 0 -0.52991925155115449 0.39743943866336584 0 -0.63603607806078788 1 I I -0.70710678118654757 0.70710678118654757 0.75 forward I I I I #
loop $-1 $-1 $197 $49 #
coedge $-1 $124 $124 $198 $199 reversed $78 $-1 #
face $-1 $200 $201 $30 $-1 $202 reversed single #
loop $-1 $-1 $203 $80 #
plane-surface $-1 0 -33.827544786173441 0 0 1 0 0 0 1 forward_v I I I I #
coedge $-1 $204 $205 $206 $207 forward $81 $-1 #
coedge $-1 $208 $83 $209 $210 forward $51 $-1 #
coedge $-1 $83 $208 $211 $212 forward $51 $-1 #
coedge $-1 $213 $214 $83 $132 reversed $215 $-1 #
edge $-1 $216 -33.827544786173441 $217 33.827544786173441 $131 $218 forward 7 unknown #
face $-1 $219 $220 $31 $-1 $221 reversed single #
loop $-1 $-1 $222 $84 #
plane-surface $-1 -50.254219183935056 0 0 1 0 0 0 0 -1 forward_v I I I I #
coedge $-1 $223 $224 $225 $226 reversed $85 $-1 #
coedge $-1 $227 $87 $228 $229 reversed $54 $-1 #
coedge $-1 $87 $227 $223 $230 forward $54 $-1 #
coedge $-1 $225 $231 $87 $140 forward $232 $-1 #
edge $-1 $233 -18.722890620214606 $234 -11.486417711703067 $139 $235 forward 7 unknown #
face $-1 $236 $237 $32 $-1 $238 forward single #
loop $-1 $-1 $239 $88 #
plane-surface $-1 -112.13339340817157 3.6182364542557721 86.272579873495062 0 -1 0 0.61566148304635926 0 -0.78801074757464917 forward_v I I I I #
coedge $-1 $240 $241 $242 $243 reversed $89 $-1 #
coedge $-1 $146 $91 $244 $245 reversed $57 $-1 #
coedge $-1 $91 $145 $240 $246 reversed $57 $-1 #
coedge $-1 $242 $247 $91 $148 forward $237 $-1 #
edge $-1 $248 5.812477520150729 $249 10.125466163587646 $147 $250 forward 7 unknown #
loop $-1 $-1 $154 $92 #
plane-surface $-1 -50.254219183935064 -3.090927600831094 7.0708502176691752 -0.61566148304635926 0 0.78801074757464917 0.78801074757464917 0 0.61566148304635926 forward_v I I I I #
loop $-1 $-1 $251 $59 #
coedge $-1 $152 $152 $153 $252 reversed $93 $-1 #
coedge $-1 $153 $153 $152 $252 forward $95 $-1 #
coedge $-1 $154 $154 $96 $155 forward $149 $-1 #
edge $-1 $253 0 $253 6.2831853071796004 $154 $254 forward 7 unknown #
loop $-1 $-1 $161 $97 #
plane-surface $-1 -50.254219183935064 -3.090927600831094 7.0708502176691752 -0.61566148304635926 0 0.78801074757464917 0.78801074757464917 0 0.61566148304635926 forward_v I I I I #
loop $-1 $-1 $255 $62 #
coedge $-1 $159 $159 $160 $256 reversed $98 $-1 #
coedge $-1 $160 $160 $159 $256 forward $100 $-1 #
coedge $-1 $161 $161 $101 $162 forward $156 $-1 #
edge $-1 $257 0 $257 6.2831853071796004 $161 $258 forward 7 unknown #
face $-1 $259 $260 $35 $-1 $261 forward single #
loop $-1 $-1 $262 $102 #
plane-surface $-1 0 0 10.440526320124796 0 0 1 1 0 0 forward_v I I I I #
coedge $-1 $263 $264 $265 $266 reversed $103 $-1 #
coedge $-1 $267 $105 $268 $269 reversed $66 $-1 #
coedge $-1 $105 $267 $262 $270 reversed $66 $-1 #
coedge $-1 $271 $272 $105 $170 forward $260 $-1 #
edge $-1 $273 8.8800565823946346e-015 $274 5.4732611918194056 $169 $275 forward 7 unknown #
loop $-1 $-1 $176 $106 #
plane-surface $-1 -50.254219183935064 -3.090927600831094 7.0708502176691752 -0.61566148304635926 0 0.78801074757464917 0.78801074757464917 0 0.61566148304635926 forward_v I I I I #
loop $-1 $-1 $276 $68 #
coedge $-1 $174 $174 $175 $277 reversed $107 $-1 #
coedge $-1 $175 $175 $174 $277 forward $109 $-1 #
coedge $-1 $176 $176 $110 $177 forward $171 $-1 #
edge $-1 $278 0 $278 6.2831853071796004 $176 $279 forward 7 unknown #
loop $-1 $-1 $183 $111 #
plane-surface $-1 -50.254219183935064 -3.090927600831094 7.0708502176691752 -0.61566148304635926 0 0.78801074757464917 0.78801074757464917 0 0.61566148304635926 forward_v I I I I #
loop $-1 $-1 $280 $71 #
coedge $-1 $181 $181 $182 $281 reversed $112 $-1 #
coedge $-1 $182 $182 $181 $281 forward $114 $-1 #
coedge $-1 $183 $183 $115 $184 forward $178 $-1 #
edge $-1 $282 0 $282 6.2831853071796004 $183 $283 forward 7 unknown #
face $-1 $284 $285 $38 $-1 $286 reversed single #
loop $-1 $-1 $287 $116 #
plane-surface $-1 82.228853351477341 -9.2864320573571977 142.74044755890773 0 1 0 0.84804810408105047 0 0.52991925155115449 forward_v I I I I #
coedge $-1 $288 $289 $290 $291 reversed $117 $-1 #
coedge $-1 $190 $119 $292 $293 reversed $75 $-1 #
coedge $-1 $119 $189 $288 $294 reversed $75 $-1 #
coedge $-1 $290 $295 $119 $192 forward $296 $-1 #
edge $-1 $297 -9.1397925081963862 $298 -5.2672111953392928 $191 $299 forward 7 unknown #
loop $-1 $-1 $198 $120 #
plane-surface $-1 -3.0071372505420157 -2.8581840534417964 89.479091124430653 0.84804810408105047 0 0.52991925155115449 0.52991925155115449 0 -0.84804810408105047 forward_v I I I I #
loop $-1 $-1 $300 $77 #
coedge $-1 $196 $196 $197 $301 reversed $121 $-1 #
coedge $-1 $197 $197 $196 $301 forward $123 $-1 #
coedge $-1 $198 $198 $124 $199 forward $193 $-1 #
edge $-1 $302 0 $302 6.2831853071796004 $198 $303 forward 7 unknown #
face $-1 $304 $305 $30 $-1 $306 reversed single #
loop $-1 $-1 $307 $125 #
plane-surface $-1 -50.254219183935056 0 0 1 0 0 0 0 -1 forward_v I I I I #
coedge $-1 $308 $211 $309 $310 forward $126 $-1 #
coedge $-1 $311 $128 $308 $312 forward $81 $-1 #
coedge $-1 $128 $311 $313 $314 forward $81 $-1 #
coedge $-1 $214 $213 $128 $207 reversed $215 $-1 #
edge $-1 $315 -33.827544786173441 $316 33.827544786173441 $206 $317 forward 7 unknown #
coedge $-1 $130 $129 $318 $319 forward $51 $-1 #
coedge $-1 $320 $321 $129 $210 reversed $305 $-1 #
edge $-1 $217 -50.254219183935056 $322 50.254219183935056 $209 $323 forward 7 unknown #
coedge $-1 $203 $324 $130 $212 reversed $126 $-1 #
edge $-1 $325 -50.254219183935056 $216 50.254219183935056 $211 $326 forward 7 unknown #
coedge $-1 $206 $131 $324 $327 forward $215 $-1 #
coedge $-1 $131 $206 $320 $328 reversed $215 $-1 #
loop $-1 $-1 $213 $304 #
vertex $-1 $132 $329 #
vertex $-1 $132 $330 #
straight-curve $-1 50.254219183935056 0 10.440526320124796 0 1 0 I I #
face $-1 $331 $332 $31 $-1 $333 forward single #
loop $-1 $-1 $228 $133 #
plane-surface $-1 0 -33.827544786173441 0 0 1 0 0 0 1 forward_v I I I I #
coedge $-1 $334 $335 $336 $337 forward $134 $-1 #
coedge $-1 $336 $136 $138 $230 reversed $85 $-1 #
coedge $-1 $136 $336 $338 $339 reversed $85 $-1 #
coedge $-1 $340 $139 $136 $226 forward $232 $-1 #
edge $-1 $234 2.9702631600623981 $341 5.9702631600623981 $225 $342 forward 7 unknown #
coedge $-1 $138 $137 $334 $343 reversed $54 $-1 #
coedge $-1 $344 $345 $137 $229 forward $220 $-1 #
edge $-1 $346 -50.254219183935056 $233 50.254219183935056 $228 $347 forward 7 unknown #
edge $-1 $348 -50.254219183935056 $234 50.254219183935056 $223 $349 forward 7 unknown #
coedge $-1 $139 $340 $344 $350 forward $232 $-1 #
loop $-1 $-1 $225 $331 #
vertex $-1 $229 $351 #
vertex $-1 $140 $352 #
straight-curve $-1 50.254219183935056 -15.104654165958836 7.4405263201247962 0 1 0 I I #
face $-1 $-1 $353 $32 $-1 $354 reversed single #
loop $-1 $-1 $147 $141 #
plane-surface $-1 0 0 10.440526320124796 0 0 1 1 0 0 forward_v I I I I #
coedge $-1 $355 $356 $357 $358 reversed $142 $-1 #
coedge $-1 $359 $144 $146 $246 forward $89 $-1 #
coedge $-1 $144 $359 $355 $360 forward $89 $-1 #
coedge $-1 $357 $147 $144 $243 forward $237 $-1 #
edge $-1 $249 -8.2546278555024131 $361 5.1637002546713191 $242 $362 forward 7 unknown #
coedge $-1 $363 $364 $145 $245 forward $353 $-1 #
edge $-1 $365 -36.065439719078348 $248 -32.695763616622735 $244 $366 forward 7 unknown #
edge $-1 $249 -5.4732611918194056 $365 -8.8800565823946346e-015 $146 $367 forward 7 unknown #
coedge $-1 $147 $357 $363 $368 forward $237 $-1 #
vertex $-1 $245 $369 #
vertex $-1 $148 $370 #
straight-curve $-1 -56.066696704085786 -9.8000916559179601 10.440526320124796 1 0 0 I I #
coedge $-1 $251 $251 $-1 $371 reversed $151 $-1 #
edge $-1 $372 0 $372 6.2831853071796004 $152 $373 forward 7 unknown #
vertex $-1 $155 $374 #
ellipse-curve $-1 -48.097724862216594 -5.9662836244397504 8.7556882688969875 -0.61566148304635926 0 0.78801074757464917 0.78801074757464917 0 0.61566148304635926 1 I I #
coedge $-1 $255 $255 $-1 $375 reversed $158 $-1 #
edge $-1 $376 0 $376 6.2831853071796004 $159 $377 forward 7 unknown #
vertex $-1 $162 $378 #
ellipse-curve $-1 -48.097724862216594 -0.21557157722244114 8.7556882688969875 -0.61566148304635926 0 0.78801074757464917 0.78801074757464917 0 0.61566148304635926 1 I I #
face $-1 $-1 $379 $35 $-1 $380 reversed single #
loop $-1 $-1 $271 $163 #
plane-surface $-1 -112.13339340817157 3.6182364542557721 86.272579873495062 0 -1 0 0.61566148304635926 0 -0.78801074757464917 forward_v I I I I #
coedge $-1 $265 $381 $168 $270 forward $164 $-1 #
coedge $-1 $264 $166 $267 $382 reversed $103 $-1 #
coedge $-1 $166 $263 $383 $384 reversed $103 $-1 #
coedge $-1 $385 $262 $166 $266 forward $164 $-1 #
edge $-1 $386 -10.125466163587646 $387 -5.812477520150729 $265 $388 forward 7 unknown #
coedge $-1 $168 $167 $263 $382 forward $66 $-1 #
coedge $-1 $389 $383 $167 $269 forward $379 $-1 #
edge $-1 $390 -18.582028364845051 $273 -5.1637002546713191 $268 $391 forward 7 unknown #
edge $-1 $274 5.1637002546713191 $386 18.582028364845051 $262 $392 forward 7 unknown #
coedge $-1 $272 $169 $381 $393 reversed $260 $-1 #
coedge $-1 $169 $271 $389 $394 reversed $260 $-1 #
vertex $-1 $269 $395 #
vertex $-1 $270 $396 #
straight-curve $-1 -50.254219183935064 3.6182364542557721 7.0708502176691752 0.78801074757464917 0 0.61566148304635926 I I #
coedge $-1 $276 $276 $-1 $397 reversed $173 $-1 #
edge $-1 $398 0 $398 6.2831853071796004 $174 $399 forward 7 unknown #
vertex $-1 $177 $400 #
ellipse-curve $-1 -48.097724862216594 7.4520444857339854 8.7556882688969875 -0.61566148304635926 0 0.78801074757464917 0.78801074757464917 0 0.61566148304635926 1 I I #
coedge $-1 $280 $280 $-1 $401 reversed $180 $-1 #
edge $-1 $402 0 $402 6.2831853071796004 $181 $403 forward 7 unknown #
vertex $-1 $184 $404 #
ellipse-curve $-1 -48.097724862216594 13.202756532951291 8.7556882688969875 -0.61566148304635926 0 0.78801074757464917 0.78801074757464917 0 0.61566148304635926 1 I I #
face $-1 $-1 $296 $38 $-1 $405 forward single #
loop $-1 $-1 $406 $185 #
plane-surface $-1 50.254219183935056 0 0 -1 0 0 0 0 1 forward_v I I I I #
coedge $-1 $407 $408 $409 $410 reversed $186 $-1 #
coedge $-1 $411 $188 $190 $294 forward $117 $-1 #
coedge $-1 $188 $411 $407 $412 forward $117 $-1 #
coedge $-1 $409 $191 $188 $291 forward $296 $-1 #
edge $-1 $298 -4.9991559771945031 $413 7.8573400306362995 $290 $414 forward 7 unknown #
coedge $-1 $415 $416 $189 $293 forward $285 $-1 #
edge $-1 $417 -67.12712325704257 $297 -60.92969745932907 $292 $418 forward 7 unknown #
edge $-1 $298 93.200567779055959 $417 100.50843836787011 $190 $419 forward 7 unknown #
coedge $-1 $191 $409 $415 $420 forward $296 $-1 #
loop $-1 $-1 $409 $284 #
vertex $-1 $293 $421 #
vertex $-1 $192 $422 #
straight-curve $-1 41.11442667573867 3.5700639504736049 10.440526320124803 -1 0 0 I I #
coedge $-1 $300 $300 $-1 $423 reversed $195 $-1 #
edge $-1 $424 0 $424 6.2831853071796004 $196 $425 forward 7 unknown #
vertex $-1 $199 $426 #
ellipse-curve $-1 48.31792852750651 -2.8581840534417964 7.3418134212680535 0.84804810408105047 0 0.52991925155115449 0.79487887732673168 0 -1.2720721561215758 1 I I #
face $-1 $-1 $215 $30 $-1 $427 reversed single #
loop $-1 $-1 $320 $200 #
plane-surface $-1 0 33.827544786173441 0 0 -1 0 0 0 -1 forward_v I I I I #
coedge $-1 $428 $318 $321 $429 forward $201 $-1 #
coedge $-1 $324 $203 $204 $312 reversed $126 $-1 #
coedge $-1 $318 $428 $203 $310 reversed $201 $-1 #
edge $-1 $325 -10.440526320124796 $430 10.440526320124796 $309 $431 forward 7 unknown #
coedge $-1 $205 $204 $428 $432 forward $81 $-1 #
edge $-1 $316 -50.254219183935056 $430 50.254219183935056 $308 $433 forward 7 unknown #
coedge $-1 $321 $320 $205 $314 reversed $305 $-1 #
edge $-1 $434 -50.254219183935056 $315 50.254219183935056 $313 $435 forward 7 unknown #
vertex $-1 $207 $436 #
vertex $-1 $327 $437 #
straight-curve $-1 50.254219183935056 0 -10.440526320124796 0 -1 0 I I #
coedge $-1 $307 $309 $208 $319 reversed $201 $-1 #
edge $-1 $322 -33.827544786173441 $325 33.827544786173441 $318 $438 forward 7 unknown #
coedge $-1 $313 $209 $214 $328 forward $305 $-1 #
coedge $-1 $209 $313 $307 $429 reversed $305 $-1 #
vertex $-1 $210 $439 #
straight-curve $-1 0 33.827544786173441 10.440526320124796 -1 0 0 I I #
coedge $-1 $211 $308 $213 $327 reversed $126 $-1 #
vertex $-1 $319 $440 #
straight-curve $-1 0 -33.827544786173441 10.440526320124796 1 0 0 I I #
edge $-1 $216 -10.440526320124796 $316 10.440526320124796 $213 $441 forward 7 unknown #
edge $-1 $217 -10.440526320124796 $315 10.440526320124796 $214 $442 forward 7 unknown #
point $-1 50.254219183935056 -33.827544786173441 10.440526320124796 #
point $-1 50.254219183935056 33.827544786173441 10.440526320124796 #
face $-1 $-1 $232 $31 $-1 $443 reversed single #
loop $-1 $-1 $338 $219 #
plane-surface $-1 0 0 10.440526320124796 0 0 1 1 0 0 forward_v I I I I #
coedge $-1 $444 $222 $227 $343 forward $134 $-1 #
coedge $-1 $222 $444 $445 $446 reversed $134 $-1 #
coedge $-1 $224 $223 $222 $337 reversed $85 $-1 #
edge $-1 $447 -5.9702631600623981 $348 -2.9702631600623981 $222 $448 forward 7 unknown #
coedge $-1 $445 $449 $224 $339 forward $332 $-1 #
edge $-1 $341 -50.254219183935056 $447 50.254219183935056 $338 $450 forward 7 unknown #
coedge $-1 $231 $225 $449 $451 reversed $232 $-1 #
vertex $-1 $226 $452 #
straight-curve $-1 50.254219183935056 -26.591071877661903 4.4702631600623981 0 0 1 I I #
edge $-1 $348 11.486417711703067 $346 18.722890620214606 $334 $453 forward 7 unknown #
coedge $-1 $454 $228 $231 $350 reversed $220 $-1 #
coedge $-1 $228 $454 $444 $455 forward $220 $-1 #
vertex $-1 $229 $456 #
straight-curve $-1 0 -33.827544786173441 7.4405263201247962 1 0 0 I I #
vertex $-1 $343 $457 #
straight-curve $-1 0 -26.591071877661903 7.4405263201247962 1 0 0 I I #
edge $-1 $458 -10.440526320124796 $233 -7.4405263201247962 $231 $459 forward 7 unknown #
point $-1 50.254219183935056 -33.827544786173441 7.4405263201247962 #
point $-1 50.254219183935056 -26.591071877661903 7.4405263201247962 #
loop $-1 $-1 $244 $236 #
plane-surface $-1 -50.254219183935056 0 0 1 0 0 0 0 -1 forward_v I I I I #
coedge $-1 $356 $239 $241 $360 reversed $142 $-1 #
coedge $-1 $239 $355 $460 $461 reversed $142 $-1 #
coedge $-1 $247 $242 $239 $358 forward $237 $-1 #
edge $-1 $361 -10.125466163587646 $462 -5.812477520150729 $357 $463 forward 7 unknown #
coedge $-1 $241 $240 $364 $464 reversed $89 $-1 #
edge $-1 $465 8.8800565823946346e-015 $361 5.4732611918194056 $355 $466 forward 7 unknown #
vertex $-1 $243 $467 #
straight-curve $-1 -45.94123054049814 -1.545463800415547 10.440526320124794 0 1 0 I I #
coedge $-1 $460 $244 $247 $368 reversed $353 $-1 #
coedge $-1 $244 $460 $359 $464 forward $353 $-1 #
vertex $-1 $245 $468 #
straight-curve $-1 -50.254219183935056 -9.8000916559179601 43.136289936747531 0 0 1 I I #
straight-curve $-1 -50.254219183935064 -9.8000916559179601 7.0708502176691752 -0.78801074757464917 0 -0.61566148304635926 I I #
edge $-1 $462 -3.6182364542557721 $248 9.8000916559179601 $363 $469 forward 7 unknown #
point $-1 -50.254219183935056 -9.8000916559179601 10.440526320124796 #
point $-1 -45.94123054049814 -9.8000916559179601 10.440526320124796 #
edge $-1 $470 1 $470 0 $251 $-1 forward 7 unknown #
vertex $-1 $252 $471 #
ellipse-curve $-1 -47.031012945440843 -5.9662836244397504 7.3903593046324669 -0.61566148304635926 0 0.78801074757464917 0.78801074757464917 0 0.61566148304635926 1 I I #
point $-1 -47.309714114641949 -5.9662836244397504 9.3713497519433471 #
edge $-1 $472 1 $472 0 $255 $-1 forward 7 unknown #
vertex $-1 $256 $473 #
ellipse-curve $-1 -47.031012945440843 -0.21557157722244114 7.3903593046324669 -0.61566148304635926 0 0.78801074757464917 0.78801074757464917 0 0.61566148304635926 1 I I #
point $-1 -47.309714114641949 -0.21557157722244114 9.3713497519433471 #
loop $-1 $-1 $268 $259 #
plane-surface $-1 -50.254219183935056 0 0 1 0 0 0 0 -1 forward_v I I I I #
coedge $-1 $262 $385 $271 $393 forward $164 $-1 #
edge $-1 $390 8.8800565823946346e-015 $386 5.4732611918194056 $263 $474 forward 7 unknown #
coedge $-1 $268 $475 $264 $384 forward $379 $-1 #
edge $-1 $387 32.695763616622735 $390 36.065439719078348 $383 $476 forward 7 unknown #
coedge $-1 $381 $265 $475 $477 forward $164 $-1 #
vertex $-1 $266 $478 #
vertex $-1 $477 $479 #
straight-curve $-1 -56.066696704085786 17.036564564429504 10.440526320124796 -1 0 0 I I #
coedge $-1 $475 $268 $272 $394 forward $379 $-1 #
vertex $-1 $384 $480 #
straight-curve $-1 -50.254219183935056 -1.545463800415547 7.070850217669185 0 -1 0 I I #
straight-curve $-1 -45.94123054049814 -1.545463800415547 10.440526320124794 0 1 0 I I #
edge $-1 $481 5.812477520150729 $274 10.125466163587646 $381 $482 forward 7 unknown #
edge $-1 $273 -36.065439719078348 $481 -32.695763616622735 $389 $483 forward 7 unknown #
point $-1 -50.254219183935056 3.6182364542557721 7.0708502176691805 #
point $-1 -45.94123054049814 3.6182364542557721 10.440526320124796 #
edge $-1 $484 1 $484 0 $276 $-1 forward 7 unknown #
vertex $-1 $277 $485 #
ellipse-curve $-1 -47.031012945440843 7.4520444857339854 7.3903593046324669 -0.61566148304635926 0 0.78801074757464917 0.78801074757464917 0 0.61566148304635926 1 I I #
point $-1 -47.309714114641949 7.4520444857339854 9.3713497519433471 #
edge $-1 $486 1 $486 0 $280 $-1 forward 7 unknown #
vertex $-1 $281 $487 #
ellipse-curve $-1 -47.031012945440843 13.202756532951291 7.3903593046324669 -0.61566148304635926 0 0.78801074757464917 0.78801074757464917 0 0.61566148304635926 1 I I #
point $-1 -47.309714114641949 13.202756532951291 9.3713497519433471 #
plane-surface $-1 0 0 10.440526320124796 0 0 1 1 0 0 forward_v I I I I #
coedge $-1 $416 $415 $408 $488 forward $285 $-1 #
coedge $-1 $408 $287 $289 $412 reversed $186 $-1 #
coedge $-1 $287 $407 $406 $488 reversed $186 $-1 #
coedge $-1 $295 $290 $287 $410 forward $296 $-1 #
edge $-1 $413 5.2672111953392928 $489 9.1397925081963862 $409 $490 forward 7 unknown #
coedge $-1 $289 $288 $416 $491 reversed $117 $-1 #
edge $-1 $492 -100.50843836787011 $413 -93.200567779055959 $407 $493 forward 7 unknown #
vertex $-1 $291 $494 #
straight-curve $-1 46.38163787107797 -1.4290920267208982 10.440526320124796 0 -1 0 I I #
coedge $-1 $406 $292 $295 $420 reversed $285 $-1 #
coedge $-1 $292 $406 $411 $491 forward $285 $-1 #
vertex $-1 $293 $495 #
straight-curve $-1 50.254219183935056 3.5700639504736049 71.370223779453866 0 0 1 I I #
straight-curve $-1 -3.0071372505420157 3.5700639504736049 89.479091124430653 0.52991925155115449 0 -0.84804810408105047 I I #
edge $-1 $489 -9.2864320573571977 $297 3.5700639504736049 $415 $496 forward 7 unknown #
point $-1 50.254219183935056 3.5700639504736049 10.440526320124796 #
point $-1 46.381637871077963 3.5700639504736049 10.440526320124803 #
edge $-1 $497 1 $497 0 $300 $-1 forward 7 unknown #
vertex $-1 $301 $498 #
ellipse-curve $-1 44.576443920481992 -2.8581840534417964 5.0038744374965525 0.84804810408105047 0 0.52991925155115449 0.79487887732673168 0 -1.2720721561215758 1 I I #
point $-1 49.112807404833255 -2.8581840534417964 6.0697412651464875 #
plane-surface $-1 50.254219183935056 0 0 -1 0 0 0 0 1 forward_v I I I I #
coedge $-1 $309 $307 $311 $432 reversed $201 $-1 #
edge $-1 $322 -10.440526320124796 $434 10.440526320124796 $321 $499 forward 7 unknown #
vertex $-1 $432 $500 #
straight-curve $-1 -50.254219183935056 -33.827544786173441 0 0 0 -1 I I #
edge $-1 $430 -33.827544786173441 $434 33.827544786173441 $428 $501 forward 7 unknown #
straight-curve $-1 0 -33.827544786173441 -10.440526320124796 -1 0 0 I I #
vertex $-1 $314 $502 #
straight-curve $-1 0 33.827544786173441 -10.440526320124796 1 0 0 I I #
point $-1 50.254219183935056 33.827544786173441 -10.440526320124796 #
point $-1 50.254219183935056 -33.827544786173441 -10.440526320124796 #
straight-curve $-1 -50.254219183935056 0 10.440526320124796 0 -1 0 I I #
point $-1 -50.254219183935056 33.827544786173441 10.440526320124796 #
point $-1 -50.254219183935056 -33.827544786173441 10.440526320124796 #
straight-curve $-1 50.254219183935056 -33.827544786173441 0 0 0 -1 I I #
straight-curve $-1 50.254219183935056 33.827544786173441 0 0 0 -1 I I #
plane-surface $-1 50.254219183935056 0 0 -1 0 0 0 0 1 forward_v I I I I #
coedge $-1 $335 $334 $345 $455 reversed $134 $-1 #
coedge $-1 $503 $338 $335 $446 forward $332 $-1 #
edge $-1 $447 26.591071877661903 $504 33.827544786173441 $335 $505 forward 7 unknown #
vertex $-1 $446 $506 #
straight-curve $-1 -50.254219183935056 -26.591071877661903 4.4702631600623981 0 0 -1 I I #
coedge $-1 $338 $503 $340 $451 forward $332 $-1 #
straight-curve $-1 0 -26.591071877661903 10.440526320124796 -1 0 0 I I #
edge $-1 $458 -33.827544786173441 $341 -26.591071877661903 $340 $507 forward 7 unknown #
point $-1 50.254219183935056 -26.591071877661903 10.440526320124796 #
straight-curve $-1 -50.254219183935056 -15.104654165958836 7.4405263201247962 0 -1 0 I I #
coedge $-1 $345 $344 $503 $508 reversed $220 $-1 #
edge $-1 $504 -10.440526320124796 $346 -7.4405263201247962 $444 $509 forward 7 unknown #
point $-1 -50.254219183935056 -33.827544786173441 7.4405263201247962 #
point $-1 -50.254219183935056 -26.591071877661903 7.4405263201247962 #
vertex $-1 $451 $510 #
straight-curve $-1 50.254219183935056 -33.827544786173441 0 0 0 -1 I I #
coedge $-1 $364 $363 $356 $461 forward $353 $-1 #
edge $-1 $462 32.695763616622735 $465 36.065439719078348 $460 $511 forward 7 unknown #
vertex $-1 $368 $512 #
straight-curve $-1 -56.066696704085786 3.6182364542557721 10.440526320124796 -1 0 0 I I #
edge $-1 $465 -5.1637002546713191 $365 8.2546278555024131 $364 $513 forward 7 unknown #
vertex $-1 $464 $514 #
straight-curve $-1 -50.254219183935064 3.6182364542557721 7.0708502176691752 0.78801074757464917 0 0.61566148304635926 I I #
point $-1 -45.94123054049814 3.6182364542557721 10.440526320124796 #
point $-1 -50.254219183935056 -9.8000916559179601 7.0708502176691805 #
straight-curve $-1 -50.254219183935056 0 10.440526320124796 0 -1 0 I I #
vertex $-1 $371 $515 #
point $-1 -46.243002197866197 -5.9662836244397504 8.0060207876788265 #
vertex $-1 $375 $516 #
point $-1 -46.243002197866197 -0.21557157722244114 8.0060207876788265 #
straight-curve $-1 -50.254219183935064 17.036564564429504 7.0708502176691752 0.78801074757464917 0 0.61566148304635926 I I #
coedge $-1 $383 $389 $385 $477 reversed $379 $-1 #
straight-curve $-1 -50.254219183935056 17.036564564429504 43.136289936747531 0 0 -1 I I #
edge $-1 $387 -17.036564564429504 $481 -3.6182364542557721 $475 $517 forward 7 unknown #
point $-1 -45.94123054049814 17.036564564429504 10.440526320124796 #
point $-1 -50.254219183935056 17.036564564429504 10.440526320124796 #
point $-1 -50.254219183935056 17.036564564429504 7.0708502176691805 #
vertex $-1 $394 $518 #
straight-curve $-1 -56.066696704085786 3.6182364542557721 10.440526320124796 1 0 0 I I #
straight-curve $-1 -50.254219183935056 3.6182364542557721 43.136289936747531 0 0 1 I I #
vertex $-1 $397 $519 #
point $-1 -46.243002197866197 7.4520444857339854 8.0060207876788265 #
vertex $-1 $401 $520 #
point $-1 -46.243002197866197 13.202756532951291 8.0060207876788265 #
edge $-1 $489 60.92969745932907 $492 67.12712325704257 $406 $521 forward 7 unknown #
vertex $-1 $420 $522 #
straight-curve $-1 41.11442667573867 -9.2864320573571977 10.440526320124803 1 0 0 I I #
edge $-1 $492 -7.8573400306362995 $417 4.9991559771945031 $416 $523 forward 7 unknown #
vertex $-1 $491 $524 #
straight-curve $-1 -3.0071372505420157 -9.2864320573571977 89.479091124430653 -0.52991925155115449 0 0.84804810408105047 I I #
point $-1 46.381637871077963 -9.2864320573571977 10.440526320124803 #
point $-1 50.254219183935056 3.5700639504736049 4.2431005224112965 #
straight-curve $-1 50.254219183935056 0 10.440526320124796 0 1 0 I I #
vertex $-1 $423 $525 #
point $-1 45.371322797808723 -2.8581840534417964 3.7318022813749772 #
straight-curve $-1 -50.254219183935056 33.827544786173441 0 0 0 -1 I I #
point $-1 -50.254219183935056 -33.827544786173441 -10.440526320124796 #
straight-curve $-1 -50.254219183935056 0 -10.440526320124796 0 1 0 I I #
point $-1 -50.254219183935056 33.827544786173441 -10.440526320124796 #
coedge $-1 $449 $445 $454 $508 forward $332 $-1 #
vertex $-1 $446 $526 #
straight-curve $-1 -50.254219183935056 0 10.440526320124796 0 -1 0 I I #
point $-1 -50.254219183935056 -26.591071877661903 10.440526320124796 #
straight-curve $-1 50.254219183935056 0 10.440526320124796 0 1 0 I I #
edge $-1 $504 -50.254219183935056 $458 50.254219183935056 $454 $527 forward 7 unknown #
straight-curve $-1 -50.254219183935056 -33.827544786173441 0 0 0 -1 I I #
point $-1 50.254219183935056 -33.827544786173441 10.440526320124796 #
straight-curve $-1 -50.254219183935056 3.6182364542557721 43.136289936747531 0 0 -1 I I #
point $-1 -50.254219183935056 3.6182364542557721 10.440526320124796 #
straight-curve $-1 -50.254219183935056 -1.545463800415547 7.070850217669185 0 -1 0 I I #
point $-1 -50.254219183935056 3.6182364542557721 7.0708502176691805 #
point $-1 -46.41535146239449 -5.9662836244397504 6.6023485570578178 #
point $-1 -46.41535146239449 -0.21557157722244114 6.6023485570578178 #
straight-curve $-1 -50.254219183935056 0 10.440526320124796 0 -1 0 I I #
point $-1 -50.254219183935056 3.6182364542557721 10.440526320124796 #
point $-1 -46.41535146239449 7.4520444857339854 6.6023485570578178 #
point $-1 -46.41535146239449 13.202756532951291 6.6023485570578178 #
straight-curve $-1 50.254219183935056 -9.2864320573571977 71.370223779453866 0 0 -1 I I #
point $-1 50.254219183935056 -9.2864320573571977 10.440526320124796 #
straight-curve $-1 50.254219183935049 -1.4290920267208982 4.2431005224112894 0 1 0 I I #
point $-1 50.254219183935056 -9.2864320573571977 4.2431005224112965 #
point $-1 43.304371764360411 -2.8581840534417964 4.2089955601698215 #
point $-1 -50.254219183935056 -33.827544786173441 10.440526320124796 #
straight-curve $-1 0 -33.827544786173441 10.440526320124796 1 0 0 I I #
End-of-ACIS-data 