500 0 12 0           
7 Unknown 11 ACIS 5.0 NT 24 Fri Mar 26 14:28:24 1999 
-1 9.9999999999999995e-007 1e-010 
body $-1 $12 $-1 $13 #
body $-1 $14 $-1 $15 #
body $-1 $16 $-1 $17 #
body $-1 $18 $-1 $19 #
body $-1 $20 $-1 $21 #
body $-1 $22 $-1 $23 #
body $-1 $24 $-1 $25 #
body $-1 $26 $-1 $27 #
body $-1 $28 $-1 $29 #
body $-1 $30 $-1 $31 #
body $-1 $32 $-1 $33 #
body $-1 $34 $-1 $35 #
lump $-1 $-1 $36 $0 #
transform $-1 1 0 0 0 1 0 0 0 1 79.111301004058959 53.49398638345081 23.874509624670694 1 rotate no_reflect no_shear #
lump $-1 $-1 $37 $1 #
transform $-1 1 0 0 0 1 0 0 0 1 79.111301004058959 53.49398638345081 23.874509624670694 1 rotate no_reflect no_shear #
lump $-1 $-1 $38 $2 #
transform $-1 1 0 0 0 1 0 0 0 1 79.111301004058959 53.49398638345081 23.874509624670694 1 rotate no_reflect no_shear #
lump $-1 $-1 $39 $3 #
transform $-1 1 0 0 0 1 0 0 0 1 79.111301004058959 53.49398638345081 23.874509624670694 1 rotate no_reflect no_shear #
lump $-1 $-1 $40 $4 #
transform $-1 1 0 0 0 1 0 0 0 1 79.111301004058959 53.49398638345081 23.874509624670694 1 rotate no_reflect no_shear #
lump $-1 $-1 $41 $5 #
transform $-1 1 0 0 0 1 0 0 0 1 79.111301004058959 53.49398638345081 23.874509624670694 1 rotate no_reflect no_shear #
lump $-1 $-1 $42 $6 #
transform $-1 1 0 0 0 1 0 0 0 1 79.111301004058959 53.49398638345081 23.874509624670694 1 rotate no_reflect no_shear #
lump $-1 $-1 $43 $7 #
transform $-1 1 0 0 0 1 0 0 0 1 79.111301004058959 53.49398638345081 23.874509624670694 1 rotate no_reflect no_shear #
lump $-1 $-1 $44 $8 #
transform $-1 1 0 0 0 1 0 0 0 1 79.111301004058959 53.49398638345081 23.874509624670694 1 rotate no_reflect no_shear #
lump $-1 $-1 $45 $9 #
transform $-1 1 0 0 0 1 0 0 0 1 79.111301004058959 53.49398638345081 23.874509624670694 1 rotate no_reflect no_shear #
lump $-1 $-1 $46 $10 #
transform $-1 1 0 0 0 1 0 0 0 1 79.111301004058959 53.49398638345081 23.874509624670694 1 rotate no_reflect no_shear #
lump $-1 $-1 $47 $11 #
transform $-1 1 0 0 0 1 0 0 0 1 79.111301004058959 53.49398638345081 23.874509624670694 1 rotate no_reflect no_shear #
shell $-1 $-1 $-1 $48 $-1 $12 #
shell $-1 $-1 $-1 $49 $-1 $14 #
shell $-1 $-1 $-1 $50 $-1 $16 #
shell $-1 $-1 $-1 $51 $-1 $18 #
shell $-1 $-1 $-1 $52 $-1 $20 #
shell $-1 $-1 $-1 $53 $-1 $22 #
shell $-1 $-1 $-1 $54 $-1 $24 #
shell $-1 $-1 $-1 $55 $-1 $26 #
shell $-1 $-1 $-1 $56 $-1 $28 #
shell $-1 $-1 $-1 $57 $-1 $30 #
shell $-1 $-1 $-1 $58 $-1 $32 #
shell $-1 $-1 $-1 $59 $-1 $34 #
face $-1 $60 $61 $36 $-1 $62 forward single #
face $-1 $63 $64 $37 $-1 $65 forward single #
face $-1 $66 $67 $38 $-1 $68 reversed single #
face $-1 $69 $70 $39 $-1 $71 forward single #
face $-1 $72 $73 $40 $-1 $74 forward single #
face $-1 $75 $76 $41 $-1 $77 forward single #
face $-1 $78 $79 $42 $-1 $80 reversed single #
face $-1 $81 $82 $43 $-1 $83 forward single #
face $-1 $84 $85 $44 $-1 $86 forward single #
face $-1 $87 $88 $45 $-1 $89 reversed single #
face $-1 $90 $91 $46 $-1 $92 forward single #
face $-1 $93 $94 $47 $-1 $95 forward single #
face $-1 $96 $97 $36 $-1 $98 reversed single #
loop $-1 $-1 $99 $48 #
plane-surface $-1 0 0 23.874509624670694 0 0 1 1 0 0 forward_v I I I I #
face $-1 $100 $101 $37 $-1 $102 reversed single #
loop $-1 $-1 $103 $49 #
plane-surface $-1 -65.970141966648512 0 3.7997647195364195 0 0 1 1 0 0 forward_v I I I I #
face $-1 $104 $105 $38 $-1 $106 reversed single #
loop $-1 $-1 $107 $50 #
plane-surface $-1 61.522618663623902 130.97937758559402 188.81505421523013 1 0 0 0 -0.84804810408105047 -0.52991925155115449 forward_v I I I I #
face $-1 $108 $109 $39 $-1 $110 forward single #
loop $-1 $111 $112 $51 #
cone-surface $-1 65.040355131710925 49.261988774997164 18.29342865658942 0 -0.84804810408105047 -0.52991925155115449 1 0 0 1 I I 0 1 1 forward I I I I #
face $-1 $113 $114 $40 $-1 $115 forward single #
loop $-1 $116 $117 $52 #
cone-surface $-1 70.316959833841423 49.261988774997164 18.29342865658942 0 -0.84804810408105047 -0.52991925155115449 1 0 0 1 I I 0 1 1 forward I I I I #
face $-1 $118 $119 $41 $-1 $120 forward single #
loop $-1 $121 $122 $53 #
cone-surface $-1 75.593564535971922 49.261988774997164 18.29342865658942 0 -0.84804810408105047 -0.52991925155115449 1 0 0 1 I I 0 1 1 forward I I I I #
face $-1 $123 $124 $42 $-1 $125 reversed single #
loop $-1 $-1 $126 $54 #
plane-surface $-1 -18.791720084907546 -163.40464255540067 123.7590293107164 -1 0 0 0 -0.69465837861970381 0.71933979245794832 forward_v I I I I #
face $-1 $127 $128 $43 $-1 $129 forward single #
loop $-1 $130 $131 $55 #
cone-surface $-1 -41.420609972298557 -44.646777876116829 15.216733594282541 0 0.69465837861970381 -0.71933979245794832 1.5 0 0 1 I I 0 1 1.5 forward I I I I #
face $-1 $132 $133 $44 $-1 $134 forward single #
loop $-1 $135 $136 $56 #
cone-surface $-1 -27.843276039863952 -44.646777876116829 15.216733594282541 0 0.69465837861970381 -0.71933979245794832 1.5 0 0 1 I I 0 1 1.5 forward I I I I #
face $-1 $137 $138 $45 $-1 $139 reversed single #
loop $-1 $-1 $140 $57 #
plane-surface $-1 47.178421881740974 -163.40464255540067 123.7590293107164 -1 0 0 0 -0.69465837861970381 0.71933979245794832 forward_v I I I I #
face $-1 $141 $142 $46 $-1 $143 forward single #
loop $-1 $144 $145 $58 #
cone-surface $-1 24.549531994349962 -44.646777876116829 15.216733594282541 0 0.69465837861970381 -0.71933979245794832 1.5 0 0 1 I I 0 1 1.5 forward I I I I #
face $-1 $146 $147 $47 $-1 $148 forward single #
loop $-1 $149 $150 $59 #
cone-surface $-1 38.126865926784561 -44.646777876116829 15.216733594282541 0 0.69465837861970381 -0.71933979245794832 1.5 0 0 1 I I 0 1 1.5 forward I I I I #
face $-1 $151 $152 $36 $-1 $153 reversed single #
loop $-1 $-1 $154 $60 #
plane-surface $-1 0 0 -23.874509624670694 0 0 1 1 0 0 forward_v I I I I #
coedge $-1 $155 $156 $157 $158 forward $61 $-1 #
face $-1 $159 $160 $37 $-1 $161 reversed single #
loop $-1 $-1 $162 $63 #
plane-surface $-1 -65.970141966648512 0 -5.7988562983622813 0 0 1 1 0 0 forward_v I I I I #
coedge $-1 $163 $164 $165 $166 forward $64 $-1 #
face $-1 $167 $168 $38 $-1 $169 forward single #
loop $-1 $-1 $170 $66 #
plane-surface $-1 70.316959833841423 -3.2010000701609727 104.9698513806121 0 0.84804810408105047 0.52991925155115449 1 0 0 forward_v I I I I #
coedge $-1 $171 $172 $173 $174 reversed $67 $-1 #
face $-1 $-1 $175 $39 $-1 $176 forward single #
loop $-1 $177 $178 $69 #
cone-surface $-1 65.040355131710925 47.616464361487438 17.265190916984864 0 -0.84804810408105047 -0.52991925155115449 0.5 0 0 1 I I -0.70710678118654746 0.70710678118654746 0.5 forward I I I I #
loop $-1 $-1 $179 $51 #
coedge $-1 $112 $112 $180 $181 reversed $70 $-1 #
face $-1 $-1 $182 $40 $-1 $183 forward single #
loop $-1 $184 $185 $72 #
cone-surface $-1 70.316959833841423 47.616464361487438 17.265190916984864 0 -0.84804810408105047 -0.52991925155115449 0.5 0 0 1 I I -0.70710678118654746 0.70710678118654746 0.5 forward I I I I #
loop $-1 $-1 $186 $52 #
coedge $-1 $117 $117 $187 $188 reversed $73 $-1 #
face $-1 $-1 $189 $41 $-1 $190 forward single #
loop $-1 $191 $192 $75 #
cone-surface $-1 75.593564535971922 47.616464361487438 17.265190916984864 0 -0.84804810408105047 -0.52991925155115449 0.5 0 0 1 I I -0.70710678118654746 0.70710678118654746 0.5 forward I I I I #
loop $-1 $-1 $193 $53 #
coedge $-1 $122 $122 $194 $195 reversed $76 $-1 #
face $-1 $196 $197 $42 $-1 $198 reversed single #
loop $-1 $-1 $199 $78 #
plane-surface $-1 -34.631943006081251 -53.493986383450789 9.9432156200403057 0 -0.69465837861970381 0.71933979245794832 1 0 0 forward_v I I I I #
coedge $-1 $200 $201 $202 $203 reversed $79 $-1 #
face $-1 $-1 $204 $43 $-1 $205 forward single #
loop $-1 $206 $207 $81 #
cone-surface $-1 -41.420609972298557 -42.49171404711808 12.985099721866135 0 0.69465837861970381 -0.71933979245794832 0.75 0 0 1 I I -0.70710678118654757 0.70710678118654757 0.75 forward I I I I #
loop $-1 $-1 $208 $55 #
coedge $-1 $131 $131 $209 $210 reversed $82 $-1 #
face $-1 $-1 $211 $44 $-1 $212 forward single #
loop $-1 $213 $214 $84 #
cone-surface $-1 -27.843276039863952 -42.49171404711808 12.985099721866135 0 0.69465837861970381 -0.71933979245794832 0.75 0 0 1 I I -0.70710678118654757 0.70710678118654757 0.75 forward I I I I #
loop $-1 $-1 $215 $56 #
coedge $-1 $136 $136 $216 $217 reversed $85 $-1 #
face $-1 $218 $219 $45 $-1 $220 reversed single #
loop $-1 $-1 $221 $87 #
plane-surface $-1 31.338198960567269 -53.493986383450789 9.9432156200403057 0 -0.69465837861970381 0.71933979245794832 1 0 0 forward_v I I I I #
coedge $-1 $222 $223 $224 $225 reversed $88 $-1 #
face $-1 $-1 $226 $46 $-1 $227 forward single #
loop $-1 $228 $229 $90 #
cone-surface $-1 24.549531994349962 -42.49171404711808 12.985099721866135 0 0.69465837861970381 -0.71933979245794832 0.75 0 0 1 I I -0.70710678118654757 0.70710678118654757 0.75 forward I I I I #
loop $-1 $-1 $230 $58 #
coedge $-1 $145 $145 $231 $232 reversed $91 $-1 #
face $-1 $-1 $233 $47 $-1 $234 forward single #
loop $-1 $235 $236 $93 #
cone-surface $-1 38.126865926784561 -42.49171404711808 12.985099721866135 0 0.69465837861970381 -0.71933979245794832 0.75 0 0 1 I I -0.70710678118654757 0.70710678118654757 0.75 forward I I I I #
loop $-1 $-1 $237 $59 #
coedge $-1 $150 $150 $238 $239 reversed $94 $-1 #
face $-1 $240 $241 $36 $-1 $242 reversed single #
loop $-1 $-1 $243 $96 #
plane-surface $-1 0 -53.49398638345081 0 0 1 0 0 0 1 forward_v I I I I #
coedge $-1 $244 $245 $246 $247 forward $97 $-1 #
coedge $-1 $248 $99 $249 $250 forward $61 $-1 #
coedge $-1 $99 $248 $251 $252 forward $61 $-1 #
coedge $-1 $253 $254 $99 $158 reversed $255 $-1 #
edge $-1 $256 -53.49398638345081 $257 53.49398638345081 $157 $258 forward 7 unknown #
face $-1 $259 $260 $37 $-1 $261 reversed single #
loop $-1 $-1 $262 $100 #
plane-surface $-1 -52.828982929238066 0 -0.99954578941293093 -1 0 0 0 0 1 forward_v I I I I #
coedge $-1 $263 $264 $265 $266 forward $101 $-1 #
coedge $-1 $267 $103 $268 $269 reversed $64 $-1 #
coedge $-1 $103 $267 $270 $271 reversed $64 $-1 #
coedge $-1 $262 $272 $103 $166 reversed $160 $-1 #
edge $-1 $273 -53.49398638345081 $274 53.49398638345081 $165 $275 forward 7 unknown #
face $-1 $276 $277 $38 $-1 $278 reversed single #
loop $-1 $-1 $173 $104 #
plane-surface $-1 0 0 23.874509624670694 0 0 1 1 0 0 forward_v I I I I #
coedge $-1 $279 $280 $281 $282 reversed $105 $-1 #
coedge $-1 $172 $107 $283 $284 reversed $67 $-1 #
coedge $-1 $107 $171 $279 $285 reversed $67 $-1 #
coedge $-1 $281 $286 $107 $174 forward $168 $-1 #
edge $-1 $287 11.995702409346201 $288 18.016696903315086 $173 $289 forward 7 unknown #
loop $-1 $-1 $180 $108 #
plane-surface $-1 70.316959833841423 -3.2010000701609727 104.9698513806121 0 0.84804810408105047 0.52991925155115449 1 0 0 forward_v I I I I #
loop $-1 $-1 $290 $69 #
coedge $-1 $178 $178 $179 $291 reversed $109 $-1 #
coedge $-1 $179 $179 $178 $291 forward $111 $-1 #
coedge $-1 $180 $180 $112 $181 forward $175 $-1 #
edge $-1 $292 5.2733135516577161e-015 $292 6.2831853071796058 $180 $293 forward 7 unknown #
loop $-1 $-1 $187 $113 #
plane-surface $-1 70.316959833841423 -3.2010000701609727 104.9698513806121 0 0.84804810408105047 0.52991925155115449 1 0 0 forward_v I I I I #
loop $-1 $-1 $294 $72 #
coedge $-1 $185 $185 $186 $295 reversed $114 $-1 #
coedge $-1 $186 $186 $185 $295 forward $116 $-1 #
coedge $-1 $187 $187 $117 $188 forward $182 $-1 #
edge $-1 $296 5.2733135516577161e-015 $296 6.2831853071796058 $187 $297 forward 7 unknown #
loop $-1 $-1 $194 $118 #
plane-surface $-1 70.316959833841423 -3.2010000701609727 104.9698513806121 0 0.84804810408105047 0.52991925155115449 1 0 0 forward_v I I I I #
loop $-1 $-1 $298 $75 #
coedge $-1 $192 $192 $193 $299 reversed $119 $-1 #
coedge $-1 $193 $193 $192 $299 forward $121 $-1 #
coedge $-1 $194 $194 $122 $195 forward $189 $-1 #
edge $-1 $300 5.2733135516577161e-015 $300 6.2831853071796058 $194 $301 forward 7 unknown #
face $-1 $302 $303 $42 $-1 $304 reversed single #
loop $-1 $-1 $305 $123 #
plane-surface $-1 -50.472165927254956 -163.40464255540067 123.7590293107164 1 0 0 0 0.69465837861970381 -0.71933979245794832 forward_v I I I I #
coedge $-1 $306 $307 $308 $309 reversed $124 $-1 #
coedge $-1 $201 $126 $310 $311 reversed $79 $-1 #
coedge $-1 $126 $200 $306 $312 reversed $79 $-1 #
coedge $-1 $308 $313 $126 $203 forward $314 $-1 #
edge $-1 $315 28.208334894249525 $316 42.63461181884955 $202 $317 forward 7 unknown #
loop $-1 $-1 $209 $127 #
plane-surface $-1 -34.631943006081251 -53.493986383450789 9.9432156200403057 0 -0.69465837861970381 0.71933979245794832 1 0 0 forward_v I I I I #
loop $-1 $-1 $318 $81 #
coedge $-1 $207 $207 $208 $319 reversed $128 $-1 #
coedge $-1 $208 $208 $207 $319 forward $130 $-1 #
coedge $-1 $209 $209 $131 $210 forward $204 $-1 #
edge $-1 $320 0 $320 6.2831853071796004 $209 $321 forward 7 unknown #
loop $-1 $-1 $216 $132 #
plane-surface $-1 -34.631943006081251 -53.493986383450789 9.9432156200403057 0 -0.69465837861970381 0.71933979245794832 1 0 0 forward_v I I I I #
loop $-1 $-1 $322 $84 #
coedge $-1 $214 $214 $215 $323 reversed $133 $-1 #
coedge $-1 $215 $215 $214 $323 forward $135 $-1 #
coedge $-1 $216 $216 $136 $217 forward $211 $-1 #
edge $-1 $324 0 $324 6.2831853071796004 $216 $325 forward 7 unknown #
face $-1 $326 $327 $45 $-1 $328 reversed single #
loop $-1 $-1 $329 $137 #
plane-surface $-1 15.497976039393562 -163.40464255540067 123.7590293107164 1 0 0 0 0.69465837861970381 -0.71933979245794832 forward_v I I I I #
coedge $-1 $330 $331 $332 $333 reversed $138 $-1 #
coedge $-1 $223 $140 $334 $335 reversed $88 $-1 #
coedge $-1 $140 $222 $330 $336 reversed $88 $-1 #
coedge $-1 $332 $337 $140 $225 forward $338 $-1 #
edge $-1 $339 28.208334894249525 $340 42.63461181884955 $224 $341 forward 7 unknown #
loop $-1 $-1 $231 $141 #
plane-surface $-1 31.338198960567269 -53.493986383450789 9.9432156200403057 0 -0.69465837861970381 0.71933979245794832 1 0 0 forward_v I I I I #
loop $-1 $-1 $342 $90 #
coedge $-1 $229 $229 $230 $343 reversed $142 $-1 #
coedge $-1 $230 $230 $229 $343 forward $144 $-1 #
coedge $-1 $231 $231 $145 $232 forward $226 $-1 #
edge $-1 $344 0 $344 6.2831853071796004 $231 $345 forward 7 unknown #
loop $-1 $-1 $238 $146 #
plane-surface $-1 31.338198960567269 -53.493986383450789 9.9432156200403057 0 -0.69465837861970381 0.71933979245794832 1 0 0 forward_v I I I I #
loop $-1 $-1 $346 $93 #
coedge $-1 $236 $236 $237 $347 reversed $147 $-1 #
coedge $-1 $237 $237 $236 $347 forward $149 $-1 #
coedge $-1 $238 $238 $150 $239 forward $233 $-1 #
edge $-1 $348 0 $348 6.2831853071796004 $238 $349 forward 7 unknown #
face $-1 $350 $351 $36 $-1 $352 reversed single #
loop $-1 $-1 $353 $151 #
plane-surface $-1 -79.111301004058959 0 0 1 0 0 0 0 -1 forward_v I I I I #
coedge $-1 $354 $251 $355 $356 forward $152 $-1 #
coedge $-1 $357 $154 $354 $358 forward $97 $-1 #
coedge $-1 $154 $357 $359 $360 forward $97 $-1 #
coedge $-1 $254 $253 $154 $247 reversed $255 $-1 #
edge $-1 $361 -53.49398638345081 $362 53.49398638345081 $246 $363 forward 7 unknown #
coedge $-1 $156 $155 $364 $365 forward $61 $-1 #
coedge $-1 $366 $367 $155 $250 reversed $351 $-1 #
edge $-1 $257 -79.111301004058959 $368 79.111301004058959 $249 $369 forward 7 unknown #
coedge $-1 $243 $370 $156 $252 reversed $152 $-1 #
edge $-1 $371 -79.111301004058959 $256 79.111301004058959 $251 $372 forward 7 unknown #
coedge $-1 $246 $157 $370 $373 forward $255 $-1 #
coedge $-1 $157 $246 $366 $374 reversed $255 $-1 #
loop $-1 $-1 $253 $350 #
vertex $-1 $158 $375 #
vertex $-1 $158 $376 #
straight-curve $-1 79.111301004058959 0 23.874509624670694 0 1 0 I I #
face $-1 $377 $378 $37 $-1 $379 reversed single #
loop $-1 $-1 $380 $159 #
plane-surface $-1 0 -53.49398638345081 0 0 1 0 0 0 1 forward_v I I I I #
coedge $-1 $265 $165 $381 $382 reversed $160 $-1 #
coedge $-1 $383 $162 $380 $384 reversed $101 $-1 #
coedge $-1 $162 $383 $385 $386 reversed $101 $-1 #
coedge $-1 $272 $262 $162 $266 reversed $160 $-1 #
edge $-1 $387 -53.49398638345081 $388 53.49398638345081 $265 $389 forward 7 unknown #
coedge $-1 $164 $163 $390 $391 reversed $64 $-1 #
coedge $-1 $392 $393 $163 $269 forward $394 $-1 #
edge $-1 $395 -46.126230020734702 $274 -19.84391194591381 $268 $396 forward 7 unknown #
coedge $-1 $397 $381 $164 $271 forward $260 $-1 #
edge $-1 $273 19.84391194591381 $398 46.126230020734702 $270 $399 forward 7 unknown #
coedge $-1 $165 $265 $392 $400 reversed $160 $-1 #
vertex $-1 $271 $401 #
vertex $-1 $269 $402 #
straight-curve $-1 -52.828982929238066 0 3.7997647195364195 0 1 0 I I #
face $-1 $-1 $403 $38 $-1 $404 reversed single #
loop $-1 $-1 $405 $167 #
plane-surface $-1 79.111301004058959 0 0 -1 0 0 0 0 1 forward_v I I I I #
coedge $-1 $406 $170 $172 $285 forward $105 $-1 #
coedge $-1 $170 $406 $405 $407 reversed $105 $-1 #
coedge $-1 $408 $173 $170 $282 forward $168 $-1 #
edge $-1 $288 26.36413874670319 $409 43.952821087138233 $281 $410 forward 7 unknown #
coedge $-1 $411 $412 $171 $284 forward $403 $-1 #
edge $-1 $413 -80.168623191448916 $287 -70.533017482944373 $283 $414 forward 7 unknown #
edge $-1 $288 95.625874718294142 $413 106.98797276690158 $172 $415 forward 7 unknown #
coedge $-1 $173 $408 $411 $416 forward $168 $-1 #
vertex $-1 $284 $417 #
vertex $-1 $174 $418 #
straight-curve $-1 61.522618663623902 65.489688792797011 23.874509624670694 0 -1 0 I I #
coedge $-1 $290 $290 $-1 $419 reversed $177 $-1 #
edge $-1 $420 0 $420 6.2831853071796004 $178 $421 forward 7 unknown #
vertex $-1 $181 $422 #
ellipse-curve $-1 65.040355131710925 50.483489136466375 19.056706770418405 0 0.84804810408105047 0.52991925155115449 1 0 0 1 I I #
coedge $-1 $294 $294 $-1 $423 reversed $184 $-1 #
edge $-1 $424 0 $424 6.2831853071796004 $185 $425 forward 7 unknown #
vertex $-1 $188 $426 #
ellipse-curve $-1 70.316959833841423 50.483489136466375 19.056706770418405 0 0.84804810408105047 0.52991925155115449 1 0 0 1 I I #
coedge $-1 $298 $298 $-1 $427 reversed $191 $-1 #
edge $-1 $428 0 $428 6.2831853071796004 $192 $429 forward 7 unknown #
vertex $-1 $195 $430 #
ellipse-curve $-1 75.593564535971922 50.483489136466375 19.056706770418405 0 0.84804810408105047 0.52991925155115449 1 0 0 1 I I #
face $-1 $-1 $314 $42 $-1 $431 forward single #
loop $-1 $-1 $432 $196 #
plane-surface $-1 0 -53.49398638345081 0 0 1 0 0 0 1 forward_v I I I I #
coedge $-1 $433 $434 $435 $436 reversed $197 $-1 #
coedge $-1 $437 $199 $201 $312 forward $124 $-1 #
coedge $-1 $199 $437 $433 $438 forward $124 $-1 #
coedge $-1 $435 $202 $199 $309 forward $314 $-1 #
edge $-1 $316 1.4757485818669203 $439 33.156194424214334 $308 $440 forward 7 unknown #
coedge $-1 $441 $442 $200 $311 forward $303 $-1 #
edge $-1 $443 -51.936299035317916 $315 -38.005005030687506 $310 $444 forward 7 unknown #
edge $-1 $316 -20.054885154213601 $443 3.0141183865118795e-014 $201 $445 forward 7 unknown #
coedge $-1 $202 $435 $441 $446 forward $314 $-1 #
loop $-1 $-1 $435 $302 #
vertex $-1 $311 $447 #
vertex $-1 $203 $448 #
straight-curve $-1 -18.791720084907546 -81.702321277700335 23.874509624670694 0 1 0 I I #
coedge $-1 $318 $318 $-1 $449 reversed $206 $-1 #
edge $-1 $450 0 $450 6.2831853071796004 $207 $451 forward 7 unknown #
vertex $-1 $210 $452 #
ellipse-curve $-1 -41.420609972298557 -46.280847921150801 16.908862622355489 0 -0.69465837861970381 0.71933979245794832 1.5 0 0 1 I I #
coedge $-1 $322 $322 $-1 $453 reversed $213 $-1 #
edge $-1 $454 0 $454 6.2831853071796004 $214 $455 forward 7 unknown #
vertex $-1 $217 $456 #
ellipse-curve $-1 -27.843276039863952 -46.280847921150801 16.908862622355489 0 -0.69465837861970381 0.71933979245794832 1.5 0 0 1 I I #
face $-1 $-1 $338 $45 $-1 $457 forward single #
loop $-1 $-1 $458 $218 #
plane-surface $-1 0 -53.49398638345081 0 0 1 0 0 0 1 forward_v I I I I #
coedge $-1 $459 $460 $461 $462 reversed $219 $-1 #
coedge $-1 $463 $221 $223 $336 forward $138 $-1 #
coedge $-1 $221 $463 $459 $464 forward $138 $-1 #
coedge $-1 $461 $224 $221 $333 forward $338 $-1 #
edge $-1 $340 -31.509322401457339 $465 0.17112344089007259 $332 $466 forward 7 unknown #
coedge $-1 $467 $468 $222 $335 forward $327 $-1 #
edge $-1 $469 -51.936299035317916 $339 -38.005005030687506 $334 $470 forward 7 unknown #
edge $-1 $340 -20.054885154213601 $469 3.0141183865118795e-014 $223 $471 forward 7 unknown #
coedge $-1 $224 $461 $467 $472 forward $338 $-1 #
loop $-1 $-1 $461 $326 #
vertex $-1 $335 $473 #
vertex $-1 $225 $474 #
straight-curve $-1 47.178421881740974 -81.702321277700335 23.874509624670694 0 1 0 I I #
coedge $-1 $342 $342 $-1 $475 reversed $228 $-1 #
edge $-1 $476 0 $476 6.2831853071796004 $229 $477 forward 7 unknown #
vertex $-1 $232 $478 #
ellipse-curve $-1 24.549531994349962 -46.280847921150801 16.908862622355489 0 -0.69465837861970381 0.71933979245794832 1.5 0 0 1 I I #
coedge $-1 $346 $346 $-1 $479 reversed $235 $-1 #
edge $-1 $480 0 $480 6.2831853071796004 $236 $481 forward 7 unknown #
vertex $-1 $239 $482 #
ellipse-curve $-1 38.126865926784561 -46.280847921150801 16.908862622355489 0 -0.69465837861970381 0.71933979245794832 1.5 0 0 1 I I #
face $-1 $-1 $255 $36 $-1 $483 reversed single #
loop $-1 $-1 $366 $240 #
plane-surface $-1 0 53.49398638345081 0 0 -1 0 0 0 -1 forward_v I I I I #
coedge $-1 $484 $364 $367 $485 forward $241 $-1 #
coedge $-1 $370 $243 $244 $358 reversed $152 $-1 #
coedge $-1 $364 $484 $243 $356 reversed $241 $-1 #
edge $-1 $371 -23.874509624670694 $486 23.874509624670694 $355 $487 forward 7 unknown #
coedge $-1 $245 $244 $484 $488 forward $97 $-1 #
edge $-1 $362 -79.111301004058959 $486 79.111301004058959 $354 $489 forward 7 unknown #
coedge $-1 $367 $366 $245 $360 reversed $351 $-1 #
edge $-1 $490 -79.111301004058959 $361 79.111301004058959 $359 $491 forward 7 unknown #
vertex $-1 $247 $492 #
vertex $-1 $373 $493 #
straight-curve $-1 79.111301004058959 0 -23.874509624670694 0 -1 0 I I #
coedge $-1 $353 $355 $248 $365 reversed $241 $-1 #
edge $-1 $368 -53.49398638345081 $371 53.49398638345081 $364 $494 forward 7 unknown #
coedge $-1 $359 $249 $254 $374 forward $351 $-1 #
coedge $-1 $249 $359 $353 $485 reversed $351 $-1 #
vertex $-1 $250 $495 #
straight-curve $-1 0 53.49398638345081 23.874509624670694 -1 0 0 I I #
coedge $-1 $251 $354 $253 $373 reversed $152 $-1 #
vertex $-1 $365 $496 #
straight-curve $-1 0 -53.49398638345081 23.874509624670694 1 0 0 I I #
edge $-1 $256 -23.874509624670694 $362 23.874509624670694 $253 $497 forward 7 unknown #
edge $-1 $257 -23.874509624670694 $361 23.874509624670694 $254 $498 forward 7 unknown #
point $-1 79.111301004058959 -53.49398638345081 23.874509624670694 #
point $-1 79.111301004058959 53.49398638345081 23.874509624670694 #
face $-1 $-1 $394 $37 $-1 $499 reversed single #
loop $-1 $-1 $500 $259 #
plane-surface $-1 -79.111301004058959 0 0 1 0 0 0 0 -1 forward_v I I I I #
coedge $-1 $381 $397 $263 $384 forward $260 $-1 #
coedge $-1 $270 $380 $262 $382 forward $260 $-1 #
edge $-1 $388 -5.2990834036558159 $273 4.2995376142428849 $381 $501 forward 7 unknown #
coedge $-1 $264 $263 $500 $502 reversed $101 $-1 #
edge $-1 $503 -46.126230020734702 $388 -19.84391194591381 $380 $504 forward 7 unknown #
coedge $-1 $393 $392 $264 $386 forward $394 $-1 #
edge $-1 $387 19.84391194591381 $505 46.126230020734702 $385 $506 forward 7 unknown #
vertex $-1 $386 $507 #
vertex $-1 $384 $508 #
straight-curve $-1 -52.828982929238066 0 -5.7988562983622813 0 -1 0 I I #
coedge $-1 $509 $510 $267 $391 forward $378 $-1 #
edge $-1 $398 -53.49398638345081 $395 53.49398638345081 $390 $511 forward 7 unknown #
coedge $-1 $385 $268 $272 $400 forward $394 $-1 #
coedge $-1 $268 $385 $509 $512 reversed $394 $-1 #
loop $-1 $-1 $385 $377 #
vertex $-1 $512 $513 #
straight-curve $-1 -32.985070983324256 53.49398638345081 3.7997647195364195 1 0 0 I I #
coedge $-1 $380 $270 $510 $514 forward $260 $-1 #
vertex $-1 $514 $515 #
straight-curve $-1 -32.985070983324256 -53.49398638345081 3.7997647195364195 -1 0 0 I I #
edge $-1 $274 -4.2995376142428849 $387 5.2990834036558159 $392 $516 forward 7 unknown #
point $-1 -52.828982929238066 -53.49398638345081 3.7997647195364195 #
point $-1 -52.828982929238066 53.49398638345081 3.7997647195364195 #
loop $-1 $-1 $283 $276 #
plane-surface $-1 0 53.49398638345081 0 0 -1 0 0 0 -1 forward_v I I I I #
coedge $-1 $517 $518 $280 $407 forward $277 $-1 #
coedge $-1 $280 $279 $412 $519 reversed $105 $-1 #
edge $-1 $409 50.267997213097821 $520 61.630095261705257 $405 $521 forward 7 unknown #
coedge $-1 $286 $281 $518 $522 forward $168 $-1 #
vertex $-1 $522 $523 #
straight-curve $-1 35.158479916920712 47.472991889481932 23.874509624670694 1 0 0 I I #
coedge $-1 $524 $283 $286 $416 reversed $403 $-1 #
coedge $-1 $283 $524 $406 $519 forward $403 $-1 #
vertex $-1 $284 $525 #
straight-curve $-1 61.522618663623902 53.49398638345081 94.407527107615067 0 0 1 I I #
straight-curve $-1 61.522618663623902 -3.2010000701609727 104.9698513806121 0 0.52991925155115449 -0.84804810408105047 I I #
edge $-1 $526 -79.111301004058959 $287 -61.522618663623902 $411 $527 forward 7 unknown #
point $-1 61.522618663623902 53.49398638345081 23.874509624670694 #
point $-1 61.522618663623902 47.472991889481925 23.874509624670694 #
edge $-1 $528 1 $528 0 $290 $-1 forward 7 unknown #
vertex $-1 $291 $529 #
ellipse-curve $-1 65.040355131710925 48.04048841352796 17.530150542760442 0 0.84804810408105047 0.52991925155115449 1 0 0 1 I I #
point $-1 66.040355131710925 50.483489136466368 19.056706770418394 #
edge $-1 $530 1 $530 0 $294 $-1 forward 7 unknown #
vertex $-1 $295 $531 #
ellipse-curve $-1 70.316959833841423 48.04048841352796 17.530150542760442 0 0.84804810408105047 0.52991925155115449 1 0 0 1 I I #
point $-1 71.316959833841423 50.483489136466368 19.056706770418394 #
edge $-1 $532 1 $532 0 $298 $-1 forward 7 unknown #
vertex $-1 $299 $533 #
ellipse-curve $-1 75.593564535971922 48.04048841352796 17.530150542760442 0 0.84804810408105047 0.52991925155115449 1 0 0 1 I I #
point $-1 76.593564535971922 50.483489136466368 19.056706770418394 #
plane-surface $-1 0 0 23.874509624670694 0 0 1 1 0 0 forward_v I I I I #
coedge $-1 $442 $441 $434 $534 forward $303 $-1 #
coedge $-1 $434 $305 $307 $438 reversed $197 $-1 #
coedge $-1 $305 $433 $432 $534 reversed $197 $-1 #
coedge $-1 $313 $308 $305 $436 forward $314 $-1 #
edge $-1 $439 -42.63461181884955 $535 -28.208334894249525 $435 $536 forward 7 unknown #
coedge $-1 $307 $306 $442 $537 reversed $124 $-1 #
edge $-1 $538 -3.0141183865118795e-014 $439 20.054885154213601 $433 $539 forward 7 unknown #
vertex $-1 $309 $540 #
straight-curve $-1 -17.315971503040625 -39.067709458850786 23.874509624670694 -1 0 0 I I #
coedge $-1 $432 $310 $313 $446 reversed $303 $-1 #
coedge $-1 $310 $432 $437 $537 forward $303 $-1 #
vertex $-1 $311 $541 #
straight-curve $-1 -18.791720084907546 -53.49398638345081 61.8795146553582 0 0 1 I I #
straight-curve $-1 -18.791720084907546 -53.493986383450789 9.9432156200403057 0 -0.71933979245794832 -0.69465837861970381 I I #
edge $-1 $535 -50.472165927254956 $315 -18.791720084907546 $441 $542 forward 7 unknown #
point $-1 -18.791720084907546 -53.49398638345081 23.874509624670694 #
point $-1 -18.791720084907546 -39.067709458850786 23.874509624670694 #
edge $-1 $543 1 $543 0 $318 $-1 forward 7 unknown #
vertex $-1 $319 $544 #
ellipse-curve $-1 -41.420609972298557 -43.012707831082857 13.524604566209597 0 -0.69465837861970381 0.71933979245794832 1.5 0 0 1 I I #
point $-1 -39.920609972298557 -46.280847921150801 16.908862622355489 #
edge $-1 $545 1 $545 0 $322 $-1 forward 7 unknown #
vertex $-1 $323 $546 #
ellipse-curve $-1 -27.843276039863952 -43.012707831082857 13.524604566209597 0 -0.69465837861970381 0.71933979245794832 1.5 0 0 1 I I #
point $-1 -26.343276039863952 -46.280847921150801 16.908862622355489 #
plane-surface $-1 0 0 23.874509624670694 0 0 1 1 0 0 forward_v I I I I #
coedge $-1 $468 $467 $460 $547 forward $327 $-1 #
coedge $-1 $460 $329 $331 $464 reversed $219 $-1 #
coedge $-1 $329 $459 $458 $547 reversed $219 $-1 #
coedge $-1 $337 $332 $329 $462 forward $338 $-1 #
edge $-1 $465 -42.63461181884955 $548 -28.208334894249525 $461 $549 forward 7 unknown #
coedge $-1 $331 $330 $468 $550 reversed $138 $-1 #
edge $-1 $551 -3.0141183865118795e-014 $465 20.054885154213601 $459 $552 forward 7 unknown #
vertex $-1 $333 $553 #
straight-curve $-1 15.669099480283634 -39.067709458850786 23.874509624670694 -1 0 0 I I #
coedge $-1 $458 $334 $337 $472 reversed $327 $-1 #
coedge $-1 $334 $458 $463 $550 forward $327 $-1 #
vertex $-1 $335 $554 #
straight-curve $-1 47.178421881740974 -53.49398638345081 61.8795146553582 0 0 1 I I #
straight-curve $-1 47.178421881740974 -53.493986383450789 9.9432156200403057 0 -0.71933979245794832 -0.69465837861970381 I I #
edge $-1 $548 15.497976039393562 $339 47.178421881740974 $467 $555 forward 7 unknown #
point $-1 47.178421881740974 -53.49398638345081 23.874509624670694 #
point $-1 47.178421881740974 -39.067709458850786 23.874509624670694 #
edge $-1 $556 1 $556 0 $342 $-1 forward 7 unknown #
vertex $-1 $343 $557 #
ellipse-curve $-1 24.549531994349962 -43.012707831082857 13.524604566209597 0 -0.69465837861970381 0.71933979245794832 1.5 0 0 1 I I #
point $-1 26.049531994349962 -46.280847921150801 16.908862622355489 #
edge $-1 $558 1 $558 0 $346 $-1 forward 7 unknown #
vertex $-1 $347 $559 #
ellipse-curve $-1 38.126865926784561 -43.012707831082857 13.524604566209597 0 -0.69465837861970381 0.71933979245794832 1.5 0 0 1 I I #
point $-1 39.626865926784561 -46.280847921150801 16.908862622355489 #
plane-surface $-1 79.111301004058959 0 0 -1 0 0 0 0 1 forward_v I I I I #
coedge $-1 $355 $353 $357 $488 reversed $241 $-1 #
edge $-1 $368 -23.874509624670694 $490 23.874509624670694 $367 $560 forward 7 unknown #
vertex $-1 $488 $561 #
straight-curve $-1 -79.111301004058959 -53.49398638345081 0 0 0 -1 I I #
edge $-1 $486 -53.49398638345081 $490 53.49398638345081 $484 $562 forward 7 unknown #
straight-curve $-1 0 -53.49398638345081 -23.874509624670694 -1 0 0 I I #
vertex $-1 $360 $563 #
straight-curve $-1 0 53.49398638345081 -23.874509624670694 1 0 0 I I #
point $-1 79.111301004058959 53.49398638345081 -23.874509624670694 #
point $-1 79.111301004058959 -53.49398638345081 -23.874509624670694 #
straight-curve $-1 -79.111301004058959 0 23.874509624670694 0 -1 0 I I #
point $-1 -79.111301004058959 53.49398638345081 23.874509624670694 #
point $-1 -79.111301004058959 -53.49398638345081 23.874509624670694 #
straight-curve $-1 79.111301004058959 -53.49398638345081 0 0 0 -1 I I #
straight-curve $-1 79.111301004058959 53.49398638345081 0 0 0 -1 I I #
plane-surface $-1 0 53.49398638345081 0 0 -1 0 0 0 -1 forward_v I I I I #
coedge $-1 $510 $509 $383 $502 forward $378 $-1 #
straight-curve $-1 -52.828982929238066 -53.49398638345081 -0.49977289470646546 0 0 1 I I #
edge $-1 $505 -53.49398638345081 $503 53.49398638345081 $500 $564 forward 7 unknown #
vertex $-1 $384 $565 #
straight-curve $-1 -32.985070983324256 -53.49398638345081 -5.7988562983622813 1 0 0 I I #
vertex $-1 $386 $566 #
straight-curve $-1 -32.985070983324256 53.49398638345081 -5.7988562983622813 -1 0 0 I I #
point $-1 -52.828982929238066 53.49398638345081 -5.7988562983622813 #
point $-1 -52.828982929238066 -53.49398638345081 -5.7988562983622813 #
coedge $-1 $500 $390 $393 $512 forward $378 $-1 #
coedge $-1 $390 $500 $397 $514 reversed $378 $-1 #
straight-curve $-1 -79.111301004058959 0 3.7997647195364195 0 1 0 I I #
edge $-1 $395 -3.7997647195364195 $505 5.7988562983622813 $393 $567 forward 7 unknown #
point $-1 -79.111301004058959 53.49398638345081 3.7997647195364195 #
edge $-1 $398 -3.7997647195364195 $503 5.7988562983622813 $510 $568 forward 7 unknown #
point $-1 -79.111301004058959 -53.49398638345081 3.7997647195364195 #
straight-curve $-1 -52.828982929238066 53.49398638345081 -0.49977289470646546 0 0 -1 I I #
coedge $-1 $518 $405 $524 $569 reversed $277 $-1 #
coedge $-1 $405 $517 $408 $522 reversed $277 $-1 #
edge $-1 $520 -43.952821087138233 $413 -26.36413874670319 $412 $570 forward 7 unknown #
vertex $-1 $407 $571 #
straight-curve $-1 79.111301004058959 20.835012429341603 66.50418935718983 0 0.52991925155115449 -0.84804810408105047 I I #
edge $-1 $409 47.472991889481925 $526 53.49398638345081 $518 $572 forward 7 unknown #
point $-1 79.111301004058944 47.472991889481925 23.874509624670694 #
coedge $-1 $412 $411 $517 $569 forward $403 $-1 #
point $-1 61.522618663623902 53.49398638345081 14.238903916166151 #
vertex $-1 $522 $573 #
straight-curve $-1 0 53.49398638345081 23.874509624670694 -1 0 0 I I #
vertex $-1 $419 $574 #
point $-1 66.040355131710925 48.04048841352796 17.530150542760442 #
vertex $-1 $423 $575 #
point $-1 71.316959833841423 48.04048841352796 17.530150542760442 #
vertex $-1 $427 $576 #
point $-1 76.593564535971922 48.04048841352796 17.530150542760442 #
edge $-1 $535 38.005005030687506 $538 51.936299035317916 $432 $577 forward 7 unknown #
vertex $-1 $446 $578 #
straight-curve $-1 -50.472165927254956 -81.702321277700335 23.874509624670694 0 -1 0 I I #
edge $-1 $538 -33.156194424214334 $443 -1.4757485818669203 $442 $579 forward 7 unknown #
vertex $-1 $537 $580 #
straight-curve $-1 -50.472165927254956 -53.493986383450789 9.9432156200403057 0 0.71933979245794832 0.69465837861970381 I I #
point $-1 -50.472165927254956 -39.067709458850786 23.874509624670694 #
point $-1 -18.791720084907546 -53.49398638345081 9.9432156200402844 #
straight-curve $-1 0 -53.49398638345081 23.874509624670694 1 0 0 I I #
vertex $-1 $449 $581 #
point $-1 -39.920609972298557 -43.012707831082857 13.524604566209597 #
vertex $-1 $453 $582 #
point $-1 -26.343276039863952 -43.012707831082857 13.524604566209597 #
edge $-1 $548 38.005005030687506 $551 51.936299035317916 $458 $583 forward 7 unknown #
vertex $-1 $472 $584 #
straight-curve $-1 15.497976039393562 -81.702321277700335 23.874509624670694 0 -1 0 I I #
edge $-1 $551 -0.17112344089007259 $469 31.509322401457339 $468 $585 forward 7 unknown #
vertex $-1 $550 $586 #
straight-curve $-1 15.497976039393562 -53.493986383450789 9.9432156200403057 0 0.71933979245794832 0.69465837861970381 I I #
point $-1 15.497976039393562 -39.067709458850786 23.874509624670694 #
point $-1 47.178421881740974 -53.49398638345081 9.9432156200402844 #
straight-curve $-1 0 -53.49398638345081 23.874509624670694 1 0 0 I I #
vertex $-1 $475 $587 #
point $-1 26.049531994349962 -43.012707831082857 13.524604566209597 #
vertex $-1 $479 $588 #
point $-1 39.626865926784561 -43.012707831082857 13.524604566209597 #
straight-curve $-1 -79.111301004058959 53.49398638345081 0 0 0 -1 I I #
point $-1 -79.111301004058959 -53.49398638345081 -23.874509624670694 #
straight-curve $-1 -79.111301004058959 0 -23.874509624670694 0 1 0 I I #
point $-1 -79.111301004058959 53.49398638345081 -23.874509624670694 #
straight-curve $-1 -79.111301004058959 0 -5.7988562983622813 0 -1 0 I I #
point $-1 -79.111301004058959 -53.49398638345081 -5.7988562983622813 #
point $-1 -79.111301004058959 53.49398638345081 -5.7988562983622813 #
straight-curve $-1 -79.111301004058959 53.49398638345081 0 0 0 -1 I I #
straight-curve $-1 -79.111301004058959 -53.49398638345081 0 0 0 -1 I I #
edge $-1 $526 -23.874509624670694 $520 -14.238903916166151 $517 $589 forward 7 unknown #
straight-curve $-1 35.158479916920712 53.493986383450803 14.238903916166166 -1 0 0 I I #
point $-1 79.111301004058944 53.49398638345081 14.238903916166151 #
straight-curve $-1 79.111301004058959 0 23.874509624670694 0 1 0 I I #
point $-1 79.111301004058959 53.49398638345081 23.874509624670694 #
point $-1 65.040355131710925 47.192440309446916 17.000231291209285 #
point $-1 70.316959833841423 47.192440309446916 17.000231291209285 #
point $-1 75.593564535971922 47.192440309446916 17.000231291209285 #
straight-curve $-1 -50.472165927254956 -53.49398638345081 61.8795146553582 0 0 -1 I I #
point $-1 -50.472165927254956 -53.49398638345081 23.874509624670694 #
straight-curve $-1 -17.315971503040625 -53.49398638345081 9.9432156200402861 1 0 0 I I #
point $-1 -50.472165927254956 -53.49398638345081 9.9432156200402844 #
point $-1 -41.420609972298557 -41.970720263153304 12.445594877522673 #
point $-1 -27.843276039863952 -41.970720263153304 12.445594877522673 #
straight-curve $-1 15.497976039393562 -53.49398638345081 61.8795146553582 0 0 -1 I I #
point $-1 15.497976039393562 -53.49398638345081 23.874509624670694 #
straight-curve $-1 15.669099480283634 -53.49398638345081 9.9432156200402861 1 0 0 I I #
point $-1 15.497976039393562 -53.49398638345081 9.9432156200402844 #
point $-1 24.549531994349962 -41.970720263153304 12.445594877522673 #
point $-1 38.126865926784561 -41.970720263153304 12.445594877522673 #
straight-curve $-1 79.111301004058959 53.49398638345081 0 0 0 -1 I I #
End-of-ACIS-data 