500 0 9 0           
7 Unknown 11 ACIS 5.0 NT 24 Thu Mar 25 16:24:14 1999 
-1 9.9999999999999995e-007 1e-010 
body $-1 $9 $-1 $10 #
body $-1 $11 $-1 $12 #
body $-1 $13 $-1 $14 #
body $-1 $15 $-1 $16 #
body $-1 $17 $-1 $18 #
body $-1 $19 $-1 $20 #
body $-1 $21 $-1 $22 #
body $-1 $23 $-1 $24 #
body $-1 $25 $-1 $26 #
lump $-1 $-1 $27 $0 #
transform $-1 1 0 0 0 1 0 0 0 1 48.811304055909908 28.216619134074961 8.3295301236024137 1 rotate no_reflect no_shear #
lump $-1 $-1 $28 $1 #
transform $-1 1 0 0 0 1 0 0 0 1 48.811304055909908 28.216619134074961 8.3295301236024137 1 rotate no_reflect no_shear #
lump $-1 $-1 $29 $2 #
transform $-1 1 0 0 0 1 0 0 0 1 48.811304055909908 28.216619134074961 8.3295301236024137 1 rotate no_reflect no_shear #
lump $-1 $-1 $30 $3 #
transform $-1 1 0 0 0 1 0 0 0 1 48.811304055909908 28.216619134074961 8.3295301236024137 1 rotate no_reflect no_shear #
lump $-1 $-1 $31 $4 #
transform $-1 1 0 0 0 1 0 0 0 1 48.811304055909908 28.216619134074961 8.3295301236024137 1 rotate no_reflect no_shear #
lump $-1 $-1 $32 $5 #
transform $-1 1 0 0 0 1 0 0 0 1 48.811304055909908 28.216619134074961 8.3295301236024137 1 rotate no_reflect no_shear #
lump $-1 $-1 $33 $6 #
transform $-1 1 0 0 0 1 0 0 0 1 48.811304055909908 28.216619134074961 8.3295301236024137 1 rotate no_reflect no_shear #
lump $-1 $-1 $34 $7 #
transform $-1 1 0 0 0 1 0 0 0 1 48.811304055909908 28.216619134074961 8.3295301236024137 1 rotate no_reflect no_shear #
lump $-1 $-1 $35 $8 #
transform $-1 1 0 0 0 1 0 0 0 1 48.811304055909908 28.216619134074961 8.3295301236024137 1 rotate no_reflect no_shear #
shell $-1 $-1 $-1 $36 $-1 $9 #
shell $-1 $-1 $-1 $37 $-1 $11 #
shell $-1 $-1 $-1 $38 $-1 $13 #
shell $-1 $-1 $-1 $39 $-1 $15 #
shell $-1 $-1 $-1 $40 $-1 $17 #
shell $-1 $-1 $-1 $41 $-1 $19 #
shell $-1 $-1 $-1 $42 $-1 $21 #
shell $-1 $-1 $-1 $43 $-1 $23 #
shell $-1 $-1 $-1 $44 $-1 $25 #
face $-1 $45 $46 $27 $-1 $47 forward single #
face $-1 $48 $49 $28 $-1 $50 forward single #
face $-1 $51 $52 $29 $-1 $53 reversed single #
face $-1 $54 $55 $30 $-1 $56 forward single #
face $-1 $57 $58 $31 $-1 $59 forward single #
face $-1 $60 $61 $32 $-1 $62 reversed single #
face $-1 $63 $64 $33 $-1 $65 forward single #
face $-1 $66 $67 $34 $-1 $68 forward single #
face $-1 $69 $70 $35 $-1 $71 forward single #
face $-1 $72 $73 $27 $-1 $74 reversed single #
loop $-1 $-1 $75 $36 #
plane-surface $-1 0 0 8.3295301236024137 0 0 1 1 0 0 forward_v I I I I #
face $-1 $76 $77 $28 $-1 $78 reversed single #
loop $-1 $-1 $79 $37 #
plane-surface $-1 -48.811304055909908 0 0 1 0 0 0 0 -1 forward_v I I I I #
face $-1 $80 $81 $29 $-1 $82 reversed single #
loop $-1 $-1 $83 $38 #
plane-surface $-1 1.2682348610732497 -85.597749205610498 79.411971540389487 -1 0 0 0 -0.5877852598018023 0.80901698891910034 forward_v I I I I #
face $-1 $84 $85 $30 $-1 $86 forward single #
loop $-1 $87 $88 $39 #
cone-surface $-1 -6.4272595660062919 -22.435584824095237 3.9037758618500225 0 0.5877852598018023 -0.80901698891910034 1 0 0 1 I I 0 1 1 forward I I I I #
face $-1 $89 $90 $31 $-1 $91 forward single #
loop $-1 $92 $93 $40 #
cone-surface $-1 -1.8099629097585677 -22.435584824095237 3.9037758618500225 0 0.5877852598018023 -0.80901698891910034 1 0 0 1 I I 0 1 1 forward I I I I #
face $-1 $94 $95 $32 $-1 $96 reversed single #
loop $-1 $-1 $97 $41 #
plane-surface $-1 -33.294140051374256 34.056807180535451 116.75065474482362 1 0 0 0 -0.54463904215088732 -0.83867056331134215 forward_v I I I I #
face $-1 $98 $99 $33 $-1 $100 forward single #
loop $-1 $101 $102 $42 #
cone-surface $-1 -31.069874308921943 24.360405374705493 5.262623152850896 0 -0.54463904215088732 -0.83867056331134215 1 0 0 1 I I 0 1 1 forward I I I I #
face $-1 $103 $104 $34 $-1 $105 forward single #
loop $-1 $106 $107 $43 #
cone-surface $-1 -27.733475695243467 24.360405374705493 5.262623152850896 0 -0.54463904215088732 -0.83867056331134215 1 0 0 1 I I 0 1 1 forward I I I I #
face $-1 $108 $109 $35 $-1 $110 forward single #
loop $-1 $111 $112 $44 #
cone-surface $-1 -24.397077081564991 24.360405374705493 5.262623152850896 0 -0.54463904215088732 -0.83867056331134215 1 0 0 1 I I 0 1 1 forward I I I I #
face $-1 $113 $114 $27 $-1 $115 reversed single #
loop $-1 $-1 $116 $45 #
plane-surface $-1 0 0 -8.3295301236024137 0 0 1 1 0 0 forward_v I I I I #
coedge $-1 $117 $118 $119 $120 forward $46 $-1 #
face $-1 $121 $122 $28 $-1 $123 forward single #
loop $-1 $-1 $124 $48 #
plane-surface $-1 0 28.216619134074961 0 0 -1 0 0 0 -1 forward_v I I I I #
coedge $-1 $125 $126 $127 $128 forward $49 $-1 #
face $-1 $129 $130 $29 $-1 $131 reversed single #
loop $-1 $-1 $132 $51 #
plane-surface $-1 -4.1186112378824262 -28.216619134074953 0.43362307533567446 0 -0.5877852598018023 0.80901698891910034 1 0 0 forward_v I I I I #
coedge $-1 $133 $134 $135 $136 reversed $52 $-1 #
face $-1 $-1 $137 $30 $-1 $138 forward single #
loop $-1 $139 $140 $54 #
cone-surface $-1 -6.4272595660062919 -21.794549631625763 3.021466629771453 0 0.5877852598018023 -0.80901698891910034 0.5 0 0 1 I I -0.70710678118654746 0.70710678118654746 0.5 forward I I I I #
loop $-1 $-1 $141 $39 #
coedge $-1 $88 $88 $142 $143 reversed $55 $-1 #
face $-1 $-1 $144 $31 $-1 $145 forward single #
loop $-1 $146 $147 $57 #
cone-surface $-1 -1.8099629097585677 -21.794549631625763 3.021466629771453 0 0.5877852598018023 -0.80901698891910034 0.5 0 0 1 I I -0.70710678118654746 0.70710678118654746 0.5 forward I I I I #
loop $-1 $-1 $148 $40 #
coedge $-1 $93 $93 $149 $150 reversed $58 $-1 #
face $-1 $151 $152 $32 $-1 $153 reversed single #
loop $-1 $-1 $154 $60 #
plane-surface $-1 -27.733475695243467 -19.112276593757535 34.87744700776129 0 0.54463904215088732 0.83867056331134215 1 0 0 forward_v I I I I #
coedge $-1 $155 $156 $157 $158 reversed $61 $-1 #
face $-1 $-1 $159 $33 $-1 $160 forward single #
loop $-1 $161 $162 $63 #
cone-surface $-1 -31.069874308921943 23.456216802836082 3.8702948762832499 0 -0.54463904215088732 -0.83867056331134215 0.5 0 0 1 I I -0.70710678118654746 0.70710678118654746 0.5 forward I I I I #
loop $-1 $-1 $163 $42 #
coedge $-1 $102 $102 $164 $165 reversed $64 $-1 #
face $-1 $-1 $166 $34 $-1 $167 forward single #
loop $-1 $168 $169 $66 #
cone-surface $-1 -27.733475695243467 23.456216802836082 3.8702948762832499 0 -0.54463904215088732 -0.83867056331134215 0.5 0 0 1 I I -0.70710678118654746 0.70710678118654746 0.5 forward I I I I #
loop $-1 $-1 $170 $43 #
coedge $-1 $107 $107 $171 $172 reversed $67 $-1 #
face $-1 $-1 $173 $35 $-1 $174 forward single #
loop $-1 $175 $176 $69 #
cone-surface $-1 -24.397077081564991 23.456216802836082 3.8702948762832499 0 -0.54463904215088732 -0.83867056331134215 0.5 0 0 1 I I -0.70710678118654746 0.70710678118654746 0.5 forward I I I I #
loop $-1 $-1 $177 $44 #
coedge $-1 $112 $112 $178 $179 reversed $70 $-1 #
face $-1 $180 $181 $27 $-1 $182 reversed single #
loop $-1 $-1 $183 $72 #
plane-surface $-1 0 -28.216619134074961 0 0 1 0 0 0 1 forward_v I I I I #
coedge $-1 $184 $185 $186 $187 forward $73 $-1 #
coedge $-1 $188 $75 $189 $190 forward $46 $-1 #
coedge $-1 $75 $188 $191 $192 forward $46 $-1 #
coedge $-1 $193 $194 $75 $120 reversed $195 $-1 #
edge $-1 $196 -28.216619134074961 $197 28.216619134074961 $119 $198 forward 7 unknown #
face $-1 $199 $200 $28 $-1 $201 reversed single #
loop $-1 $-1 $127 $76 #
plane-surface $-1 -52.348340760015219 0 -4.8446359170999731 0 0 1 1 0 0 forward_v I I I I #
coedge $-1 $202 $203 $126 $204 forward $77 $-1 #
coedge $-1 $205 $79 $206 $207 reversed $49 $-1 #
coedge $-1 $79 $205 $124 $204 reversed $49 $-1 #
coedge $-1 $208 $209 $79 $128 reversed $122 $-1 #
edge $-1 $210 -28.216619134074961 $211 28.216619134074961 $127 $212 forward 7 unknown #
face $-1 $213 $214 $29 $-1 $215 reversed single #
loop $-1 $-1 $216 $80 #
plane-surface $-1 -9.5054573368381021 -85.597749205610498 79.411971540389487 1 0 0 0 0.5877852598018023 -0.80901698891910034 forward_v I I I I #
coedge $-1 $217 $218 $219 $220 reversed $81 $-1 #
coedge $-1 $134 $83 $221 $222 reversed $52 $-1 #
coedge $-1 $83 $133 $217 $223 reversed $52 $-1 #
coedge $-1 $219 $224 $83 $136 forward $225 $-1 #
edge $-1 $226 14.582255468730288 $227 25.450038963552586 $135 $228 forward 7 unknown #
loop $-1 $-1 $142 $84 #
plane-surface $-1 -4.1186112378824262 -28.216619134074953 0.43362307533567446 0 -0.5877852598018023 0.80901698891910034 1 0 0 forward_v I I I I #
loop $-1 $-1 $229 $54 #
coedge $-1 $140 $140 $141 $230 reversed $85 $-1 #
coedge $-1 $141 $141 $140 $230 forward $87 $-1 #
coedge $-1 $142 $142 $88 $143 forward $137 $-1 #
edge $-1 $231 0 $231 6.2831853071796004 $142 $232 forward 7 unknown #
loop $-1 $-1 $149 $89 #
plane-surface $-1 -4.1186112378824262 -28.216619134074953 0.43362307533567446 0 -0.5877852598018023 0.80901698891910034 1 0 0 forward_v I I I I #
loop $-1 $-1 $233 $57 #
coedge $-1 $147 $147 $148 $234 reversed $90 $-1 #
coedge $-1 $148 $148 $147 $234 forward $92 $-1 #
coedge $-1 $149 $149 $93 $150 forward $144 $-1 #
edge $-1 $235 0 $235 6.2831853071796004 $149 $236 forward 7 unknown #
face $-1 $237 $238 $32 $-1 $239 forward single #
loop $-1 $-1 $240 $94 #
plane-surface $-1 -22.172811339112677 34.056807180535451 116.75065474482362 -1 0 0 0 0.54463904215088732 0.83867056331134215 forward_v I I I I #
coedge $-1 $241 $242 $243 $244 reversed $95 $-1 #
coedge $-1 $156 $97 $245 $246 reversed $61 $-1 #
coedge $-1 $97 $155 $241 $247 reversed $61 $-1 #
coedge $-1 $243 $248 $97 $158 forward $238 $-1 #
edge $-1 $249 -11.188215543807235 $250 -4.7395261266562123 $157 $251 forward 7 unknown #
loop $-1 $-1 $164 $98 #
plane-surface $-1 -27.733475695243467 -19.112276593757535 34.87744700776129 0 0.54463904215088732 0.83867056331134215 1 0 0 forward_v I I I I #
loop $-1 $-1 $252 $63 #
coedge $-1 $162 $162 $163 $253 reversed $99 $-1 #
coedge $-1 $163 $163 $162 $253 forward $101 $-1 #
coedge $-1 $164 $164 $102 $165 forward $159 $-1 #
edge $-1 $254 2.1663561341466709e-015 $254 6.2831853071796022 $164 $255 forward 7 unknown #
loop $-1 $-1 $171 $103 #
plane-surface $-1 -27.733475695243467 -19.112276593757535 34.87744700776129 0 0.54463904215088732 0.83867056331134215 1 0 0 forward_v I I I I #
loop $-1 $-1 $256 $66 #
coedge $-1 $169 $169 $170 $257 reversed $104 $-1 #
coedge $-1 $170 $170 $169 $257 forward $106 $-1 #
coedge $-1 $171 $171 $107 $172 forward $166 $-1 #
edge $-1 $258 2.1663561341466709e-015 $258 6.2831853071796022 $171 $259 forward 7 unknown #
loop $-1 $-1 $178 $108 #
plane-surface $-1 -27.733475695243467 -19.112276593757535 34.87744700776129 0 0.54463904215088732 0.83867056331134215 1 0 0 forward_v I I I I #
loop $-1 $-1 $260 $69 #
coedge $-1 $176 $176 $177 $261 reversed $109 $-1 #
coedge $-1 $177 $177 $176 $261 forward $111 $-1 #
coedge $-1 $178 $178 $112 $179 forward $173 $-1 #
edge $-1 $262 2.1663561341466709e-015 $262 6.2831853071796022 $178 $263 forward 7 unknown #
face $-1 $264 $265 $27 $-1 $266 reversed single #
loop $-1 $-1 $267 $113 #
plane-surface $-1 -48.811304055909908 0 0 1 0 0 0 0 -1 forward_v I I I I #
coedge $-1 $268 $191 $269 $270 forward $114 $-1 #
coedge $-1 $271 $116 $268 $272 forward $73 $-1 #
coedge $-1 $116 $271 $273 $274 forward $73 $-1 #
coedge $-1 $194 $193 $116 $187 reversed $195 $-1 #
edge $-1 $275 -28.216619134074961 $276 28.216619134074961 $186 $277 forward 7 unknown #
coedge $-1 $118 $117 $278 $279 forward $46 $-1 #
coedge $-1 $280 $281 $117 $190 reversed $265 $-1 #
edge $-1 $197 -48.811304055909908 $282 48.811304055909908 $189 $283 forward 7 unknown #
coedge $-1 $183 $284 $118 $192 reversed $114 $-1 #
edge $-1 $285 -48.811304055909908 $196 48.811304055909908 $191 $286 forward 7 unknown #
coedge $-1 $186 $119 $284 $287 forward $195 $-1 #
coedge $-1 $119 $186 $280 $288 reversed $195 $-1 #
loop $-1 $-1 $193 $264 #
vertex $-1 $120 $289 #
vertex $-1 $120 $290 #
straight-curve $-1 48.811304055909908 0 8.3295301236024137 0 1 0 I I #
face $-1 $291 $292 $28 $-1 $293 reversed single #
loop $-1 $-1 $294 $121 #
plane-surface $-1 -55.885377464120531 0 -6.5870830203511934 1 0 0 0 0 -1 forward_v I I I I #
coedge $-1 $295 $124 $296 $297 reversed $77 $-1 #
coedge $-1 $124 $295 $208 $298 reversed $77 $-1 #
edge $-1 $210 4.8446359170999731 $299 8.3295301236024137 $124 $300 forward 7 unknown #
coedge $-1 $126 $125 $301 $302 reversed $49 $-1 #
coedge $-1 $303 $304 $125 $207 forward $305 $-1 #
edge $-1 $306 -8.3295301236024137 $211 -4.8446359170999731 $206 $307 forward 7 unknown #
coedge $-1 $308 $127 $203 $298 forward $122 $-1 #
coedge $-1 $127 $308 $303 $309 forward $122 $-1 #
vertex $-1 $204 $310 #
vertex $-1 $309 $311 #
straight-curve $-1 -48.811304055909908 0 -4.8446359170999731 0 -1 0 I I #
face $-1 $-1 $225 $29 $-1 $312 forward single #
loop $-1 $-1 $313 $129 #
plane-surface $-1 0 -28.216619134074961 0 0 1 0 0 0 1 forward_v I I I I #
coedge $-1 $314 $315 $316 $317 reversed $130 $-1 #
coedge $-1 $318 $132 $134 $223 forward $81 $-1 #
coedge $-1 $132 $318 $314 $319 forward $81 $-1 #
coedge $-1 $316 $135 $132 $220 forward $225 $-1 #
edge $-1 $227 -3.3275404800144628 $320 7.446151717896889 $219 $321 forward 7 unknown #
coedge $-1 $322 $323 $133 $222 forward $214 $-1 #
edge $-1 $324 -39.272362694859076 $226 -31.37645564659233 $221 $325 forward 7 unknown #
edge $-1 $227 -13.433319254942173 $324 8.7828746355274299e-015 $134 $326 forward 7 unknown #
coedge $-1 $135 $316 $322 $327 forward $225 $-1 #
loop $-1 $-1 $316 $213 #
vertex $-1 $222 $328 #
vertex $-1 $136 $329 #
straight-curve $-1 1.2682348610732497 -42.798874602805249 8.3295301236024102 0 1 0 I I #
coedge $-1 $229 $229 $-1 $330 reversed $139 $-1 #
edge $-1 $331 0 $331 6.2831853071796004 $140 $332 forward 7 unknown #
vertex $-1 $143 $333 #
ellipse-curve $-1 -6.4272595660062919 -22.782727386663812 4.3815765994690423 0 -0.5877852598018023 0.80901698891910034 1 0 0 1 I I #
coedge $-1 $233 $233 $-1 $334 reversed $146 $-1 #
edge $-1 $335 0 $335 6.2831853071796004 $147 $336 forward 7 unknown #
vertex $-1 $150 $337 #
ellipse-curve $-1 -1.8099629097585677 -22.782727386663812 4.3815765994690423 0 -0.5877852598018023 0.80901698891910034 1 0 0 1 I I #
face $-1 $-1 $338 $32 $-1 $339 reversed single #
loop $-1 $-1 $157 $151 #
plane-surface $-1 0 0 8.3295301236024137 0 0 1 1 0 0 forward_v I I I I #
coedge $-1 $340 $341 $342 $343 reversed $152 $-1 #
coedge $-1 $344 $154 $156 $247 forward $95 $-1 #
coedge $-1 $154 $344 $340 $345 forward $95 $-1 #
coedge $-1 $342 $157 $154 $244 forward $238 $-1 #
edge $-1 $250 -19.427402203752521 $346 -8.3060734914909435 $243 $347 forward 7 unknown #
coedge $-1 $348 $349 $155 $246 forward $338 $-1 #
edge $-1 $350 -54.233625200488504 $249 -50.045797248809393 $245 $351 forward 7 unknown #
edge $-1 $250 48.744057677752771 $350 56.433238268149935 $156 $352 forward 7 unknown #
coedge $-1 $157 $342 $348 $353 forward $238 $-1 #
vertex $-1 $246 $354 #
vertex $-1 $158 $355 #
straight-curve $-1 -33.294140051374256 17.028403590267725 8.3295301236024173 0 -1 0 I I #
coedge $-1 $252 $252 $-1 $356 reversed $161 $-1 #
edge $-1 $357 0 $357 6.2831853071796004 $162 $358 forward 7 unknown #
vertex $-1 $165 $359 #
ellipse-curve $-1 -31.069874308921943 24.992274425499453 6.2356161477628582 0 0.54463904215088732 0.83867056331134215 1 0 0 1 I I #
coedge $-1 $256 $256 $-1 $360 reversed $168 $-1 #
edge $-1 $361 0 $361 6.2831853071796004 $169 $362 forward 7 unknown #
vertex $-1 $172 $363 #
ellipse-curve $-1 -27.733475695243467 24.992274425499453 6.2356161477628582 0 0.54463904215088732 0.83867056331134215 1 0 0 1 I I #
coedge $-1 $260 $260 $-1 $364 reversed $175 $-1 #
edge $-1 $365 0 $365 6.2831853071796004 $176 $366 forward 7 unknown #
vertex $-1 $179 $367 #
ellipse-curve $-1 -24.397077081564991 24.992274425499453 6.2356161477628582 0 0.54463904215088732 0.83867056331134215 1 0 0 1 I I #
face $-1 $-1 $195 $27 $-1 $368 reversed single #
loop $-1 $-1 $280 $180 #
plane-surface $-1 0 28.216619134074961 0 0 -1 0 0 0 -1 forward_v I I I I #
coedge $-1 $369 $278 $281 $370 forward $181 $-1 #
coedge $-1 $284 $183 $184 $272 reversed $114 $-1 #
coedge $-1 $278 $369 $183 $270 reversed $181 $-1 #
edge $-1 $285 -8.3295301236024137 $371 8.3295301236024137 $269 $372 forward 7 unknown #
coedge $-1 $185 $184 $369 $373 forward $73 $-1 #
edge $-1 $276 -48.811304055909908 $371 48.811304055909908 $268 $374 forward 7 unknown #
coedge $-1 $281 $280 $185 $274 reversed $265 $-1 #
edge $-1 $375 -48.811304055909908 $275 48.811304055909908 $273 $376 forward 7 unknown #
vertex $-1 $187 $377 #
vertex $-1 $287 $378 #
straight-curve $-1 48.811304055909908 0 -8.3295301236024137 0 -1 0 I I #
coedge $-1 $267 $269 $188 $279 reversed $181 $-1 #
edge $-1 $282 -28.216619134074961 $285 28.216619134074961 $278 $379 forward 7 unknown #
coedge $-1 $273 $189 $194 $288 forward $265 $-1 #
coedge $-1 $189 $273 $267 $370 reversed $265 $-1 #
vertex $-1 $190 $380 #
straight-curve $-1 0 28.216619134074961 8.3295301236024137 -1 0 0 I I #
coedge $-1 $191 $268 $193 $287 reversed $114 $-1 #
vertex $-1 $279 $381 #
straight-curve $-1 0 -28.216619134074961 8.3295301236024137 1 0 0 I I #
edge $-1 $196 -8.3295301236024137 $276 8.3295301236024137 $193 $382 forward 7 unknown #
edge $-1 $197 -8.3295301236024137 $275 8.3295301236024137 $194 $383 forward 7 unknown #
point $-1 48.811304055909908 -28.216619134074961 8.3295301236024137 #
point $-1 48.811304055909908 28.216619134074961 8.3295301236024137 #
face $-1 $-1 $305 $28 $-1 $384 reversed single #
loop $-1 $-1 $301 $199 #
plane-surface $-1 0 0 -8.3295301236024137 0 0 1 1 0 0 forward_v I I I I #
coedge $-1 $385 $386 $295 $387 forward $200 $-1 #
coedge $-1 $203 $202 $294 $387 reversed $77 $-1 #
coedge $-1 $301 $388 $202 $297 forward $292 $-1 #
edge $-1 $389 -55.885377464120531 $299 -48.811304055909908 $202 $390 forward 7 unknown #
edge $-1 $210 -3.5370367041053115 $391 3.5370367041053115 $203 $392 forward 7 unknown #
vertex $-1 $204 $393 #
straight-curve $-1 -48.811304055909908 28.216619134074961 0 0 0 -1 I I #
coedge $-1 $394 $296 $205 $302 forward $292 $-1 #
edge $-1 $299 -28.216619134074961 $306 28.216619134074961 $301 $395 forward 7 unknown #
coedge $-1 $396 $206 $209 $309 reversed $305 $-1 #
coedge $-1 $206 $396 $394 $397 reversed $305 $-1 #
loop $-1 $-1 $206 $291 #
vertex $-1 $397 $398 #
straight-curve $-1 -48.811304055909908 -28.216619134074961 0 0 0 1 I I #
coedge $-1 $209 $208 $386 $399 forward $122 $-1 #
edge $-1 $400 -3.5370367041053115 $211 3.5370367041053115 $303 $401 forward 7 unknown #
point $-1 -48.811304055909908 28.216619134074961 -4.8446359170999731 #
point $-1 -48.811304055909908 -28.216619134074961 -4.8446359170999731 #
plane-surface $-1 0 0 8.3295301236024137 0 0 1 1 0 0 forward_v I I I I #
coedge $-1 $323 $322 $315 $402 forward $214 $-1 #
coedge $-1 $315 $216 $218 $319 reversed $130 $-1 #
coedge $-1 $216 $314 $313 $402 reversed $130 $-1 #
coedge $-1 $224 $219 $216 $317 forward $225 $-1 #
edge $-1 $320 -25.450038963552586 $403 -14.582255468730288 $316 $404 forward 7 unknown #
coedge $-1 $218 $217 $323 $405 reversed $81 $-1 #
edge $-1 $406 -8.7828746355274299e-015 $320 13.433319254942173 $314 $407 forward 7 unknown #
vertex $-1 $220 $408 #
straight-curve $-1 -2.0593056189412131 -17.348835639252663 8.3295301236024137 -1 0 0 I I #
coedge $-1 $313 $221 $224 $327 reversed $214 $-1 #
coedge $-1 $221 $313 $318 $405 forward $214 $-1 #
vertex $-1 $222 $409 #
straight-curve $-1 1.2682348610732497 -28.216619134074961 39.705985770194744 0 0 1 I I #
straight-curve $-1 1.2682348610732497 -28.216619134074953 0.43362307533567446 0 -0.80901698891910034 -0.5877852598018023 I I #
edge $-1 $403 -9.5054573368381021 $226 1.2682348610732497 $322 $410 forward 7 unknown #
point $-1 1.2682348610732497 -28.216619134074961 8.3295301236024137 #
point $-1 1.2682348610732497 -17.348835639252663 8.3295301236024137 #
edge $-1 $411 1 $411 0 $229 $-1 forward 7 unknown #
vertex $-1 $230 $412 #
ellipse-curve $-1 -6.4272595660062919 -22.088442261526666 3.425975124231003 0 -0.5877852598018023 0.80901698891910034 1 0 0 1 I I #
point $-1 -5.4272595660062919 -22.782727386663812 4.3815765994690423 #
edge $-1 $413 1 $413 0 $233 $-1 forward 7 unknown #
vertex $-1 $234 $414 #
ellipse-curve $-1 -1.8099629097585677 -22.088442261526666 3.425975124231003 0 -0.5877852598018023 0.80901698891910034 1 0 0 1 I I #
point $-1 -0.80996290975856766 -22.782727386663812 4.3815765994690423 #
loop $-1 $-1 $245 $237 #
plane-surface $-1 0 28.216619134074961 0 0 -1 0 0 0 -1 forward_v I I I I #
coedge $-1 $341 $240 $242 $345 reversed $152 $-1 #
coedge $-1 $240 $340 $415 $416 reversed $152 $-1 #
coedge $-1 $248 $243 $240 $343 forward $238 $-1 #
edge $-1 $346 4.7395261266562123 $417 11.188215543807235 $342 $418 forward 7 unknown #
coedge $-1 $242 $241 $349 $419 reversed $95 $-1 #
edge $-1 $420 -56.433238268149935 $346 -48.744057677752771 $340 $421 forward 7 unknown #
vertex $-1 $244 $422 #
straight-curve $-1 -13.866737847621733 21.767929716923934 8.3295301236024102 1 0 0 I I #
coedge $-1 $415 $245 $248 $353 reversed $338 $-1 #
coedge $-1 $245 $415 $344 $419 forward $338 $-1 #
vertex $-1 $246 $423 #
straight-curve $-1 -33.294140051374256 28.216619134074961 58.37532737241181 0 0 1 I I #
straight-curve $-1 -33.294140051374256 -19.112276593757535 34.87744700776129 0 0.83867056331134215 -0.54463904215088732 I I #
edge $-1 $417 22.172811339112677 $249 33.294140051374256 $348 $424 forward 7 unknown #
point $-1 -33.294140051374256 28.216619134074961 8.3295301236024137 #
point $-1 -33.294140051374256 21.767929716923938 8.3295301236024137 #
edge $-1 $425 1 $425 0 $252 $-1 forward 7 unknown #
vertex $-1 $253 $426 #
ellipse-curve $-1 -31.069874308921943 23.728536323911527 4.2896301579389213 0 0.54463904215088732 0.83867056331134215 1 0 0 1 I I #
point $-1 -30.069874308921943 24.992274425499463 6.2356161477628707 #
edge $-1 $427 1 $427 0 $256 $-1 forward 7 unknown #
vertex $-1 $257 $428 #
ellipse-curve $-1 -27.733475695243467 23.728536323911527 4.2896301579389213 0 0.54463904215088732 0.83867056331134215 1 0 0 1 I I #
point $-1 -26.733475695243467 24.992274425499463 6.2356161477628707 #
edge $-1 $429 1 $429 0 $260 $-1 forward 7 unknown #
vertex $-1 $261 $430 #
ellipse-curve $-1 -24.397077081564991 23.728536323911527 4.2896301579389213 0 0.54463904215088732 0.83867056331134215 1 0 0 1 I I #
point $-1 -23.397077081564991 24.992274425499463 6.2356161477628707 #
plane-surface $-1 48.811304055909908 0 0 -1 0 0 0 0 1 forward_v I I I I #
coedge $-1 $269 $267 $271 $373 reversed $181 $-1 #
edge $-1 $282 -8.3295301236024137 $375 8.3295301236024137 $281 $431 forward 7 unknown #
vertex $-1 $373 $432 #
straight-curve $-1 -48.811304055909908 -28.216619134074961 0 0 0 -1 I I #
edge $-1 $371 -28.216619134074961 $375 28.216619134074961 $369 $433 forward 7 unknown #
straight-curve $-1 0 -28.216619134074961 -8.3295301236024137 -1 0 0 I I #
vertex $-1 $274 $434 #
straight-curve $-1 0 28.216619134074961 -8.3295301236024137 1 0 0 I I #
point $-1 48.811304055909908 28.216619134074961 -8.3295301236024137 #
point $-1 48.811304055909908 -28.216619134074961 -8.3295301236024137 #
straight-curve $-1 -48.811304055909908 0 8.3295301236024137 0 -1 0 I I #
point $-1 -48.811304055909908 28.216619134074961 8.3295301236024137 #
point $-1 -48.811304055909908 -28.216619134074961 8.3295301236024137 #
straight-curve $-1 48.811304055909908 -28.216619134074961 0 0 0 -1 I I #
straight-curve $-1 48.811304055909908 28.216619134074961 0 0 0 -1 I I #
plane-surface $-1 0 -28.216619134074961 0 0 1 0 0 0 1 forward_v I I I I #
coedge $-1 $435 $294 $388 $436 reversed $200 $-1 #
coedge $-1 $294 $435 $308 $399 reversed $200 $-1 #
edge $-1 $391 -1.7424471032512203 $389 1.7424471032512203 $295 $437 forward 7 unknown #
coedge $-1 $296 $394 $385 $436 forward $292 $-1 #
vertex $-1 $297 $438 #
straight-curve $-1 0 28.216619134074961 -8.3295301236024137 1 0 0 I I #
vertex $-1 $298 $439 #
straight-curve $-1 -52.348340760015219 28.216619134074961 -4.8446359170999731 -1 0 0 I I #
point $-1 -48.811304055909908 28.216619134074961 -8.3295301236024137 #
coedge $-1 $388 $301 $304 $397 forward $292 $-1 #
straight-curve $-1 -48.811304055909908 0 -8.3295301236024137 0 -1 0 I I #
coedge $-1 $304 $303 $435 $440 forward $305 $-1 #
edge $-1 $306 -3.5370367041053115 $441 3.5370367041053115 $304 $442 forward 7 unknown #
point $-1 -48.811304055909908 -28.216619134074961 -8.3295301236024137 #
edge $-1 $391 -28.216619134074961 $400 28.216619134074961 $386 $443 forward 7 unknown #
vertex $-1 $399 $444 #
straight-curve $-1 -52.348340760015219 -28.216619134074961 -4.8446359170999731 1 0 0 I I #
edge $-1 $403 31.37645564659233 $406 39.272362694859076 $313 $445 forward 7 unknown #
vertex $-1 $327 $446 #
straight-curve $-1 -9.5054573368381021 -42.798874602805249 8.3295301236024102 0 -1 0 I I #
edge $-1 $406 -7.446151717896889 $324 3.3275404800144628 $323 $447 forward 7 unknown #
vertex $-1 $405 $448 #
straight-curve $-1 -9.5054573368381021 -28.216619134074953 0.43362307533567446 0 0.80901698891910034 0.5877852598018023 I I #
point $-1 -9.5054573368381021 -17.348835639252663 8.3295301236024137 #
point $-1 1.2682348610732497 -28.216619134074961 0.43362307533566929 #
straight-curve $-1 0 -28.216619134074961 8.3295301236024137 1 0 0 I I #
vertex $-1 $330 $449 #
point $-1 -5.4272595660062919 -22.088442261526666 3.425975124231003 #
vertex $-1 $334 $450 #
point $-1 -0.80996290975856766 -22.088442261526666 3.425975124231003 #
coedge $-1 $349 $348 $341 $416 forward $338 $-1 #
edge $-1 $417 50.045797248809393 $420 54.233625200488504 $415 $451 forward 7 unknown #
vertex $-1 $353 $452 #
straight-curve $-1 -22.172811339112677 17.028403590267725 8.3295301236024173 0 1 0 I I #
edge $-1 $420 8.3060734914909435 $350 19.427402203752521 $349 $453 forward 7 unknown #
vertex $-1 $419 $454 #
straight-curve $-1 -22.172811339112677 -19.112276593757535 34.87744700776129 0 -0.83867056331134215 0.54463904215088732 I I #
point $-1 -22.172811339112677 21.767929716923938 8.3295301236024137 #
point $-1 -33.294140051374256 28.216619134074961 4.1417021719233098 #
straight-curve $-1 0 28.216619134074961 8.3295301236024137 -1 0 0 I I #
vertex $-1 $356 $455 #
point $-1 -30.069874308921943 23.728536323911527 4.2896301579389213 #
vertex $-1 $360 $456 #
point $-1 -26.733475695243467 23.728536323911527 4.2896301579389213 #
vertex $-1 $364 $457 #
point $-1 -23.397077081564991 23.728536323911527 4.2896301579389213 #
straight-curve $-1 -48.811304055909908 28.216619134074961 0 0 0 -1 I I #
point $-1 -48.811304055909908 -28.216619134074961 -8.3295301236024137 #
straight-curve $-1 -48.811304055909908 0 -8.3295301236024137 0 1 0 I I #
point $-1 -48.811304055909908 28.216619134074961 -8.3295301236024137 #
coedge $-1 $386 $385 $396 $440 reversed $200 $-1 #
edge $-1 $441 -28.216619134074961 $389 28.216619134074961 $385 $458 forward 7 unknown #
straight-curve $-1 -55.885377464120531 28.216619134074961 -6.5870830203511934 0 0 -1 I I #
point $-1 -55.885377464120531 28.216619134074961 -8.3295301236024137 #
point $-1 -55.885377464120531 28.216619134074961 -4.8446359170999731 #
edge $-1 $400 -1.7424471032512203 $441 1.7424471032512203 $435 $459 forward 7 unknown #
vertex $-1 $436 $460 #
straight-curve $-1 -52.348340760015219 -28.216619134074961 -8.3295301236024137 -1 0 0 I I #
straight-curve $-1 -55.885377464120531 0 -4.8446359170999731 0 -1 0 I I #
point $-1 -55.885377464120531 -28.216619134074961 -4.8446359170999731 #
straight-curve $-1 -9.5054573368381021 -28.216619134074961 39.705985770194744 0 0 -1 I I #
point $-1 -9.5054573368381021 -28.216619134074961 8.3295301236024137 #
straight-curve $-1 -2.0593056189412131 -28.216619134074961 0.43362307533566968 1 0 0 I I #
point $-1 -9.5054573368381021 -28.216619134074961 0.43362307533566929 #
point $-1 -6.4272595660062919 -21.500657001724861 2.6169581353119029 #
point $-1 -1.8099629097585677 -21.500657001724861 2.6169581353119029 #
straight-curve $-1 -22.172811339112677 28.216619134074961 58.37532737241181 0 0 -1 I I #
point $-1 -22.172811339112677 28.216619134074961 8.3295301236024137 #
straight-curve $-1 -13.866737847621733 28.216619134074961 4.141702171923308 -1 0 0 I I #
point $-1 -22.172811339112677 28.216619134074961 4.1417021719233098 #
point $-1 -31.069874308921943 23.183897281760636 3.4509595946275788 #
point $-1 -27.733475695243467 23.183897281760636 3.4509595946275788 #
point $-1 -24.397077081564991 23.183897281760636 3.4509595946275788 #
straight-curve $-1 -55.885377464120531 0 -8.3295301236024137 0 1 0 I I #
straight-curve $-1 -55.885377464120531 -28.216619134074961 -6.5870830203511934 0 0 -1 I I #
point $-1 -55.885377464120531 -28.216619134074961 -8.3295301236024137 #
End-of-ACIS-data 