500 0 3 0           
7 Unknown 11 ACIS 5.0 NT 24 Thu Mar 25 18:49:53 1999 
-1 9.9999999999999995e-007 1e-010 
body $-1 $3 $-1 $4 #
body $-1 $5 $-1 $6 #
body $-1 $7 $-1 $8 #
lump $-1 $-1 $9 $0 #
transform $-1 1 0 0 0 1 0 0 0 1 78.098086489455852 41.477050712814986 9.6947716820086889 1 rotate no_reflect no_shear #
lump $-1 $-1 $10 $1 #
transform $-1 1 0 0 0 1 0 0 0 1 78.098086489455852 41.477050712814986 9.6947716820086889 1 rotate no_reflect no_shear #
lump $-1 $-1 $11 $2 #
transform $-1 1 0 0 0 1 0 0 0 1 78.098086489455852 41.477050712814986 9.6947716820086889 1 rotate no_reflect no_shear #
shell $-1 $-1 $-1 $12 $-1 $3 #
shell $-1 $-1 $-1 $13 $-1 $5 #
shell $-1 $-1 $-1 $14 $-1 $7 #
face $-1 $15 $16 $9 $-1 $17 forward single #
face $-1 $18 $19 $10 $-1 $20 reversed single #
face $-1 $21 $22 $11 $-1 $23 reversed single #
face $-1 $24 $25 $9 $-1 $26 reversed single #
loop $-1 $-1 $27 $12 #
plane-surface $-1 0 0 9.6947716820086889 0 0 1 1 0 0 forward_v I I I I #
face $-1 $28 $29 $10 $-1 $30 forward single #
loop $-1 $-1 $31 $13 #
plane-surface $-1 -71.894323181614439 0 7.8771444970650499 0 0 1 1 0 0 forward_v I I I I #
face $-1 $32 $33 $11 $-1 $34 forward single #
loop $-1 $-1 $35 $14 #
plane-surface $-1 74.67795672804354 0 -4.0387435947169834 0 0 1 1 0 0 forward_v I I I I #
face $-1 $36 $37 $9 $-1 $38 reversed single #
loop $-1 $-1 $39 $15 #
plane-surface $-1 0 0 -9.6947716820086889 0 0 1 1 0 0 forward_v I I I I #
coedge $-1 $40 $41 $42 $43 forward $16 $-1 #
face $-1 $44 $45 $10 $-1 $46 forward single #
loop $-1 $-1 $47 $18 #
plane-surface $-1 -71.894323181614439 0 2.4618362266770077 0 0 1 1 0 0 forward_v I I I I #
coedge $-1 $48 $49 $50 $51 reversed $19 $-1 #
face $-1 $52 $53 $11 $-1 $54 reversed single #
loop $-1 $-1 $55 $21 #
plane-surface $-1 71.257826966631228 0 -6.8667576383628361 1 0 0 0 0 -1 forward_v I I I I #
coedge $-1 $56 $57 $58 $59 reversed $22 $-1 #
face $-1 $60 $61 $9 $-1 $62 reversed single #
loop $-1 $-1 $63 $24 #
plane-surface $-1 0 -41.477050712814986 0 0 1 0 0 0 1 forward_v I I I I #
coedge $-1 $64 $65 $66 $67 forward $25 $-1 #
coedge $-1 $68 $27 $69 $70 forward $16 $-1 #
coedge $-1 $27 $68 $71 $72 forward $16 $-1 #
coedge $-1 $73 $74 $27 $43 reversed $75 $-1 #
edge $-1 $76 -41.477050712814986 $77 41.477050712814986 $42 $78 forward 7 unknown #
face $-1 $79 $80 $10 $-1 $81 reversed single #
loop $-1 $-1 $82 $28 #
plane-surface $-1 -65.690559873773026 0 5.1694903618710288 -1 0 0 0 0 1 forward_v I I I I #
coedge $-1 $83 $84 $85 $86 reversed $29 $-1 #
coedge $-1 $87 $31 $88 $89 reversed $19 $-1 #
coedge $-1 $31 $87 $90 $91 reversed $19 $-1 #
coedge $-1 $92 $82 $31 $51 forward $45 $-1 #
edge $-1 $93 -41.477050712814986 $94 41.477050712814986 $50 $95 forward 7 unknown #
face $-1 $96 $97 $11 $-1 $98 reversed single #
loop $-1 $-1 $58 $32 #
plane-surface $-1 78.098086489455852 0 0 -1 0 0 0 0 1 forward_v I I I I #
coedge $-1 $99 $100 $101 $102 reversed $33 $-1 #
coedge $-1 $103 $35 $104 $105 reversed $22 $-1 #
coedge $-1 $35 $103 $106 $107 reversed $22 $-1 #
coedge $-1 $108 $109 $35 $59 forward $53 $-1 #
edge $-1 $110 -41.477050712814986 $111 41.477050712814986 $58 $112 forward 7 unknown #
face $-1 $113 $114 $9 $-1 $115 reversed single #
loop $-1 $-1 $116 $36 #
plane-surface $-1 -78.098086489455852 0 0 1 0 0 0 0 -1 forward_v I I I I #
coedge $-1 $117 $71 $118 $119 forward $37 $-1 #
coedge $-1 $120 $39 $117 $121 forward $25 $-1 #
coedge $-1 $39 $120 $122 $123 forward $25 $-1 #
coedge $-1 $74 $73 $39 $67 reversed $75 $-1 #
edge $-1 $124 -41.477050712814986 $125 41.477050712814986 $66 $126 forward 7 unknown #
coedge $-1 $41 $40 $127 $128 forward $16 $-1 #
coedge $-1 $129 $130 $40 $70 reversed $114 $-1 #
edge $-1 $77 -78.098086489455852 $131 78.098086489455852 $69 $132 forward 7 unknown #
coedge $-1 $63 $133 $41 $72 reversed $37 $-1 #
edge $-1 $134 -78.098086489455852 $76 78.098086489455852 $71 $135 forward 7 unknown #
coedge $-1 $66 $42 $133 $136 forward $75 $-1 #
coedge $-1 $42 $66 $129 $137 reversed $75 $-1 #
loop $-1 $-1 $73 $113 #
vertex $-1 $43 $138 #
vertex $-1 $43 $139 #
straight-curve $-1 78.098086489455852 0 9.6947716820086889 0 1 0 I I #
face $-1 $140 $141 $10 $-1 $81 reversed single #
loop $-1 $-1 $142 $44 #
plane-surface $-1 -78.098086489455852 0 0 1 0 0 0 0 -1 forward_v I I I I #
coedge $-1 $50 $85 $143 $144 reversed $45 $-1 #
coedge $-1 $145 $47 $146 $147 reversed $29 $-1 #
coedge $-1 $47 $145 $148 $149 reversed $29 $-1 #
coedge $-1 $82 $92 $47 $86 forward $45 $-1 #
edge $-1 $150 -41.477050712814986 $151 41.477050712814986 $85 $152 forward 7 unknown #
coedge $-1 $49 $48 $153 $154 reversed $19 $-1 #
coedge $-1 $143 $155 $48 $89 forward $156 $-1 #
edge $-1 $157 -42.150924898648633 $93 -29.743398282965806 $88 $158 forward 7 unknown #
coedge $-1 $159 $160 $49 $91 forward $161 $-1 #
edge $-1 $94 29.743398282965806 $162 42.150924898648633 $90 $163 forward 7 unknown #
coedge $-1 $85 $50 $160 $164 reversed $45 $-1 #
vertex $-1 $89 $165 #
vertex $-1 $91 $166 #
straight-curve $-1 -65.690559873773026 0 7.8771444970650499 0 1 0 I I #
face $-1 $167 $168 $11 $-1 $169 reversed single #
loop $-1 $-1 $106 $52 #
plane-surface $-1 0 41.477050712814986 0 0 -1 0 0 0 -1 forward_v I I I I #
coedge $-1 $170 $55 $103 $171 forward $33 $-1 #
coedge $-1 $55 $170 $172 $173 reversed $33 $-1 #
coedge $-1 $174 $106 $55 $102 forward $97 $-1 #
edge $-1 $175 0.60536477553556534 $176 6.2613928628272708 $101 $177 forward 7 unknown #
coedge $-1 $57 $56 $99 $171 reversed $22 $-1 #
coedge $-1 $178 $179 $56 $105 forward $180 $-1 #
edge $-1 $181 33.918848602609458 $110 40.759108125434082 $104 $182 forward 7 unknown #
coedge $-1 $101 $183 $57 $107 forward $97 $-1 #
edge $-1 $111 -40.759108125434082 $175 -33.918848602609458 $106 $184 forward 7 unknown #
coedge $-1 $185 $58 $183 $186 reversed $53 $-1 #
coedge $-1 $58 $185 $178 $187 forward $53 $-1 #
vertex $-1 $59 $188 #
vertex $-1 $107 $189 #
straight-curve $-1 78.098086489455852 0 -4.0387435947169834 0 1 0 I I #
face $-1 $-1 $75 $9 $-1 $190 reversed single #
loop $-1 $-1 $129 $60 #
plane-surface $-1 0 41.477050712814986 0 0 -1 0 0 0 -1 forward_v I I I I #
coedge $-1 $191 $127 $130 $192 forward $61 $-1 #
coedge $-1 $133 $63 $64 $121 reversed $37 $-1 #
coedge $-1 $127 $191 $63 $119 reversed $61 $-1 #
edge $-1 $134 -9.6947716820086889 $193 9.6947716820086889 $118 $194 forward 7 unknown #
coedge $-1 $65 $64 $191 $195 forward $25 $-1 #
edge $-1 $125 -78.098086489455852 $193 78.098086489455852 $117 $196 forward 7 unknown #
coedge $-1 $130 $129 $65 $123 reversed $114 $-1 #
edge $-1 $197 -78.098086489455852 $124 78.098086489455852 $122 $198 forward 7 unknown #
vertex $-1 $67 $199 #
vertex $-1 $136 $200 #
straight-curve $-1 78.098086489455852 0 -9.6947716820086889 0 -1 0 I I #
coedge $-1 $116 $118 $68 $128 reversed $61 $-1 #
edge $-1 $131 -41.477050712814986 $134 41.477050712814986 $127 $201 forward 7 unknown #
coedge $-1 $122 $69 $74 $137 forward $114 $-1 #
coedge $-1 $69 $122 $116 $192 reversed $114 $-1 #
vertex $-1 $70 $202 #
straight-curve $-1 0 41.477050712814986 9.6947716820086889 -1 0 0 I I #
coedge $-1 $71 $117 $73 $136 reversed $37 $-1 #
vertex $-1 $128 $203 #
straight-curve $-1 0 -41.477050712814986 9.6947716820086889 1 0 0 I I #
edge $-1 $76 -9.6947716820086889 $125 9.6947716820086889 $73 $204 forward 7 unknown #
edge $-1 $77 -9.6947716820086889 $124 9.6947716820086889 $74 $205 forward 7 unknown #
point $-1 78.098086489455852 -41.477050712814986 9.6947716820086889 #
point $-1 78.098086489455852 41.477050712814986 9.6947716820086889 #
face $-1 $206 $156 $10 $-1 $207 reversed single #
loop $-1 $-1 $153 $79 #
coedge $-1 $208 $209 $145 $210 forward $80 $-1 #
coedge $-1 $148 $88 $82 $144 forward $156 $-1 #
edge $-1 $93 -5.2923993161295355 $151 0.12290895425850668 $143 $211 forward 7 unknown #
coedge $-1 $84 $83 $142 $210 reversed $29 $-1 #
coedge $-1 $160 $212 $83 $147 forward $161 $-1 #
edge $-1 $213 -42.150924898648633 $150 -29.743398282965806 $146 $214 forward 7 unknown #
coedge $-1 $215 $143 $84 $149 forward $156 $-1 #
edge $-1 $151 29.743398282965806 $216 42.150924898648633 $148 $217 forward 7 unknown #
vertex $-1 $147 $218 #
vertex $-1 $149 $219 #
straight-curve $-1 -65.690559873773026 0 2.4618362266770077 0 -1 0 I I #
coedge $-1 $220 $221 $87 $154 forward $141 $-1 #
edge $-1 $162 -41.477050712814986 $157 41.477050712814986 $153 $222 forward 7 unknown #
coedge $-1 $88 $223 $220 $224 forward $156 $-1 #
loop $-1 $-1 $88 $140 #
vertex $-1 $89 $225 #
straight-curve $-1 -35.94716159080722 -41.477050712814986 7.8771444970650499 1 0 0 I I #
coedge $-1 $226 $90 $221 $227 reversed $161 $-1 #
coedge $-1 $90 $146 $92 $164 forward $161 $-1 #
loop $-1 $-1 $90 $228 #
vertex $-1 $154 $229 #
straight-curve $-1 -35.94716159080722 41.477050712814986 7.8771444970650499 -1 0 0 I I #
edge $-1 $150 -0.12290895425850668 $94 5.2923993161295355 $160 $230 forward 7 unknown #
point $-1 -65.690559873773026 -41.477050712814986 7.8771444970650499 #
point $-1 -65.690559873773026 41.477050712814986 7.8771444970650499 #
face $-1 $231 $232 $11 $-1 $233 forward single #
loop $-1 $-1 $234 $96 #
plane-surface $-1 -71.894323181614439 0 7.8771444970650499 0 0 1 1 0 0 forward_v I I I I #
coedge $-1 $100 $99 $179 $235 reversed $33 $-1 #
edge $-1 $175 -41.477050712814986 $181 41.477050712814986 $99 $236 forward 7 unknown #
coedge $-1 $237 $238 $100 $173 forward $239 $-1 #
edge $-1 $176 -41.477050712814986 $240 41.477050712814986 $172 $241 forward 7 unknown #
coedge $-1 $242 $101 $238 $243 reversed $97 $-1 #
vertex $-1 $107 $244 #
vertex $-1 $102 $245 #
straight-curve $-1 71.257826966631228 41.477050712814986 -3.4333788191814181 0 0 -1 I I #
coedge $-1 $246 $104 $109 $187 reversed $180 $-1 #
coedge $-1 $104 $247 $170 $235 forward $180 $-1 #
loop $-1 $-1 $104 $248 #
vertex $-1 $105 $249 #
straight-curve $-1 37.33897836402177 -41.477050712814986 -4.0387435947169834 1 0 0 I I #
coedge $-1 $106 $250 $108 $186 forward $97 $-1 #
straight-curve $-1 37.33897836402177 41.477050712814986 -4.0387435947169834 -1 0 0 I I #
coedge $-1 $109 $108 $251 $252 reversed $53 $-1 #
edge $-1 $253 -9.6947716820086889 $111 4.0387435947169834 $108 $254 forward 7 unknown #
edge $-1 $255 -9.6947716820086889 $110 4.0387435947169834 $109 $256 forward 7 unknown #
point $-1 78.098086489455852 -41.477050712814986 -4.0387435947169834 #
point $-1 78.098086489455852 41.477050712814986 -4.0387435947169834 #
plane-surface $-1 78.098086489455852 0 0 -1 0 0 0 0 1 forward_v I I I I #
coedge $-1 $118 $116 $120 $195 reversed $61 $-1 #
edge $-1 $131 -9.6947716820086889 $197 9.6947716820086889 $130 $257 forward 7 unknown #
vertex $-1 $195 $258 #
straight-curve $-1 -78.098086489455852 -41.477050712814986 0 0 0 -1 I I #
edge $-1 $193 -41.477050712814986 $197 41.477050712814986 $191 $259 forward 7 unknown #
straight-curve $-1 0 -41.477050712814986 -9.6947716820086889 -1 0 0 I I #
vertex $-1 $123 $260 #
straight-curve $-1 0 41.477050712814986 -9.6947716820086889 1 0 0 I I #
point $-1 78.098086489455852 41.477050712814986 -9.6947716820086889 #
point $-1 78.098086489455852 -41.477050712814986 -9.6947716820086889 #
straight-curve $-1 -78.098086489455852 0 9.6947716820086889 0 -1 0 I I #
point $-1 -78.098086489455852 41.477050712814986 9.6947716820086889 #
point $-1 -78.098086489455852 -41.477050712814986 9.6947716820086889 #
straight-curve $-1 78.098086489455852 -41.477050712814986 0 0 0 -1 I I #
straight-curve $-1 78.098086489455852 41.477050712814986 0 0 0 -1 I I #
face $-1 $261 $262 $10 $-1 $263 forward single #
plane-surface $-1 0 -41.477050712814986 0 0 1 0 0 0 1 forward_v I I I I #
coedge $-1 $264 $142 $212 $265 forward $80 $-1 #
coedge $-1 $142 $264 $215 $266 reversed $80 $-1 #
edge $-1 $216 -41.477050712814986 $213 41.477050712814986 $142 $267 forward 7 unknown #
straight-curve $-1 -65.690559873773026 -41.477050712814986 2.5847451809355144 0 0 -1 I I #
coedge $-1 $146 $268 $208 $265 reversed $161 $-1 #
vertex $-1 $265 $269 #
straight-curve $-1 -35.94716159080722 41.477050712814986 2.4618362266770077 1 0 0 I I #
coedge $-1 $270 $148 $209 $266 forward $156 $-1 #
vertex $-1 $266 $271 #
straight-curve $-1 -35.94716159080722 -41.477050712814986 2.4618362266770077 -1 0 0 I I #
point $-1 -65.690559873773026 41.477050712814986 2.4618362266770077 #
point $-1 -65.690559873773026 -41.477050712814986 2.4618362266770077 #
coedge $-1 $272 $153 $155 $224 reversed $141 $-1 #
coedge $-1 $153 $272 $159 $227 forward $141 $-1 #
straight-curve $-1 -78.098086489455852 0 7.8771444970650499 0 -1 0 I I #
coedge $-1 $155 $273 $274 $275 reversed $156 $-1 #
edge $-1 $276 -9.6947716820086889 $157 -7.8771444970650499 $220 $277 forward 7 unknown #
point $-1 -78.098086489455852 -41.477050712814986 7.8771444970650499 #
coedge $-1 $278 $159 $279 $280 reversed $161 $-1 #
edge $-1 $281 -9.6947716820086889 $162 -7.8771444970650499 $159 $282 forward 7 unknown #
face $-1 $283 $161 $10 $-1 $284 reversed single #
point $-1 -78.098086489455852 41.477050712814986 7.8771444970650499 #
straight-curve $-1 -65.690559873773026 41.477050712814986 2.5847451809355144 0 0 1 I I #
face $-1 $285 $286 $11 $-1 $287 forward single #
loop $-1 $-1 $288 $167 #
plane-surface $-1 -71.894323181614439 0 2.4618362266770077 0 0 1 1 0 0 forward_v I I I I #
coedge $-1 $289 $290 $291 $292 reversed $168 $-1 #
edge $-1 $240 -6.2613928628272708 $181 -0.60536477553556534 $179 $293 forward 7 unknown #
straight-curve $-1 71.257826966631228 0 -4.0387435947169834 0 -1 0 I I #
coedge $-1 $294 $172 $247 $295 forward $239 $-1 #
coedge $-1 $172 $294 $174 $243 forward $239 $-1 #
loop $-1 $-1 $172 $296 #
vertex $-1 $295 $297 #
straight-curve $-1 71.257826966631228 0 -9.6947716820086889 0 -1 0 I I #
coedge $-1 $298 $174 $299 $300 reversed $97 $-1 #
edge $-1 $301 -78.098086489455852 $176 71.257826966631228 $174 $302 forward 7 unknown #
point $-1 71.257826966631228 41.477050712814986 -4.0387435947169834 #
point $-1 71.257826966631228 41.477050712814986 -9.6947716820086889 #
coedge $-1 $303 $178 $304 $305 reversed $180 $-1 #
coedge $-1 $179 $306 $237 $295 reversed $180 $-1 #
face $-1 $307 $180 $11 $-1 $308 reversed single #
point $-1 71.257826966631228 -41.477050712814986 -4.0387435947169834 #
coedge $-1 $183 $309 $310 $311 reversed $97 $-1 #
coedge $-1 $310 $304 $185 $252 forward $312 $-1 #
edge $-1 $255 -41.477050712814986 $253 41.477050712814986 $185 $313 forward 7 unknown #
vertex $-1 $252 $314 #
straight-curve $-1 78.098086489455852 41.477050712814986 0 0 0 -1 I I #
vertex $-1 $252 $315 #
straight-curve $-1 78.098086489455852 -41.477050712814986 0 0 0 -1 I I #
straight-curve $-1 -78.098086489455852 41.477050712814986 0 0 0 -1 I I #
point $-1 -78.098086489455852 -41.477050712814986 -9.6947716820086889 #
straight-curve $-1 -78.098086489455852 0 -9.6947716820086889 0 1 0 I I #
point $-1 -78.098086489455852 41.477050712814986 -9.6947716820086889 #
face $-1 $228 $316 $10 $-1 $317 reversed single #
loop $-1 $-1 $318 $206 #
plane-surface $-1 0 0 9.6947716820086889 0 0 1 1 0 0 forward_v I I I I #
coedge $-1 $209 $208 $319 $320 reversed $80 $-1 #
edge $-1 $213 -2.4618362266770077 $321 9.6947716820086889 $212 $282 forward 7 unknown #
edge $-1 $216 -2.4618362266770077 $322 9.6947716820086889 $209 $277 forward 7 unknown #
straight-curve $-1 -78.098086489455852 0 2.4618362266770077 0 1 0 I I #
coedge $-1 $212 $278 $323 $324 reversed $161 $-1 #
point $-1 -78.098086489455852 41.477050712814986 2.4618362266770077 #
coedge $-1 $273 $215 $325 $326 reversed $156 $-1 #
point $-1 -78.098086489455852 -41.477050712814986 2.4618362266770077 #
coedge $-1 $221 $220 $327 $328 reversed $141 $-1 #
coedge $-1 $223 $270 $329 $330 reversed $156 $-1 #
coedge $-1 $318 $327 $223 $275 forward $262 $-1 #
edge $-1 $276 -78.098086489455852 $331 78.098086489455852 $223 $332 forward 7 unknown #
vertex $-1 $328 $333 #
straight-curve $-1 -78.098086489455852 -41.477050712814986 0 0 0 -1 I I #
coedge $-1 $268 $226 $334 $335 forward $161 $-1 #
coedge $-1 $327 $318 $226 $280 forward $262 $-1 #
edge $-1 $336 -78.098086489455852 $281 78.098086489455852 $226 $337 forward 7 unknown #
vertex $-1 $280 $338 #
straight-curve $-1 -78.098086489455852 41.477050712814986 0 0 0 -1 I I #
face $-1 $-1 $339 $10 $-1 $340 reversed single #
plane-surface $-1 0 41.477050712814986 0 0 -1 0 0 0 -1 forward_v I I I I #
face $-1 $341 $342 $11 $-1 $343 reversed single #
loop $-1 $-1 $344 $231 #
plane-surface $-1 -65.690559873773026 0 5.1694903618710288 -1 0 0 0 0 1 forward_v I I I I #
coedge $-1 $345 $346 $347 $348 reversed $232 $-1 #
coedge $-1 $349 $234 $350 $351 reversed $168 $-1 #
coedge $-1 $234 $349 $352 $353 reversed $168 $-1 #
coedge $-1 $354 $344 $234 $292 forward $286 $-1 #
edge $-1 $355 -41.477050712814986 $356 41.477050712814986 $291 $357 forward 7 unknown #
straight-curve $-1 71.257826966631228 -41.477050712814986 -3.4333788191814181 0 0 1 I I #
coedge $-1 $238 $237 $358 $359 forward $239 $-1 #
edge $-1 $240 -71.257826966631228 $360 78.098086489455852 $247 $361 forward 7 unknown #
face $-1 $-1 $239 $11 $-1 $362 reversed single #
point $-1 71.257826966631228 -41.477050712814986 -9.6947716820086889 #
coedge $-1 $363 $242 $345 $364 forward $97 $-1 #
coedge $-1 $358 $365 $242 $300 forward $342 $-1 #
edge $-1 $366 -2.4618362266770077 $301 9.6947716820086889 $242 $367 forward 7 unknown #
vertex $-1 $243 $368 #
straight-curve $-1 0 41.477050712814986 -9.6947716820086889 1 0 0 I I #
coedge $-1 $350 $246 $369 $370 forward $180 $-1 #
coedge $-1 $251 $371 $246 $305 forward $312 $-1 #
edge $-1 $372 -78.098086489455852 $255 78.098086489455852 $246 $373 forward 7 unknown #
coedge $-1 $247 $374 $375 $376 forward $180 $-1 #
face $-1 $296 $312 $11 $-1 $377 forward single #
plane-surface $-1 0 -41.477050712814986 0 0 1 0 0 0 1 forward_v I I I I #
coedge $-1 $250 $352 $378 $379 reversed $97 $-1 #
coedge $-1 $371 $251 $250 $311 forward $312 $-1 #
edge $-1 $253 -78.098086489455852 $380 78.098086489455852 $250 $381 forward 7 unknown #
loop $-1 $-1 $251 $307 #
straight-curve $-1 78.098086489455852 0 9.6947716820086889 0 1 0 I I #
point $-1 78.098086489455852 41.477050712814986 9.6947716820086889 #
point $-1 78.098086489455852 -41.477050712814986 9.6947716820086889 #
loop $-1 $-1 $382 $261 #
plane-surface $-1 0 0 -9.6947716820086889 0 0 1 1 0 0 forward_v I I I I #
coedge $-1 $279 $274 $383 $384 forward $262 $-1 #
coedge $-1 $323 $325 $264 $320 forward $316 $-1 #
edge $-1 $322 -41.477050712814986 $321 41.477050712814986 $264 $385 forward 7 unknown #
vertex $-1 $324 $386 #
vertex $-1 $320 $387 #
coedge $-1 $382 $319 $268 $324 forward $316 $-1 #
edge $-1 $321 -78.098086489455852 $388 78.098086489455852 $268 $389 forward 7 unknown #
coedge $-1 $319 $382 $270 $326 forward $316 $-1 #
edge $-1 $390 -78.098086489455852 $322 78.098086489455852 $270 $391 forward 7 unknown #
coedge $-1 $274 $279 $272 $328 forward $262 $-1 #
edge $-1 $281 -41.477050712814986 $276 41.477050712814986 $272 $392 forward 7 unknown #
coedge $-1 $393 $383 $273 $330 forward $339 $-1 #
edge $-1 $331 -9.6947716820086889 $390 9.6947716820086889 $329 $394 forward 7 unknown #
vertex $-1 $384 $395 #
straight-curve $-1 0 -41.477050712814986 9.6947716820086889 1 0 0 I I #
point $-1 -78.098086489455852 -41.477050712814986 9.6947716820086889 #
coedge $-1 $383 $393 $278 $335 reversed $339 $-1 #
edge $-1 $336 -9.6947716820086889 $388 9.6947716820086889 $334 $396 forward 7 unknown #
vertex $-1 $384 $397 #
straight-curve $-1 0 41.477050712814986 9.6947716820086889 -1 0 0 I I #
point $-1 -78.098086489455852 41.477050712814986 9.6947716820086889 #
loop $-1 $-1 $329 $283 #
plane-surface $-1 78.098086489455852 0 0 -1 0 0 0 0 1 forward_v I I I I #
face $-1 $248 $398 $11 $-1 $343 reversed single #
loop $-1 $-1 $365 $285 #
plane-surface $-1 -78.098086489455852 0 0 1 0 0 0 0 -1 forward_v I I I I #
coedge $-1 $291 $347 $399 $400 reversed $286 $-1 #
coedge $-1 $401 $288 $298 $364 reversed $232 $-1 #
coedge $-1 $288 $401 $374 $402 reversed $232 $-1 #
coedge $-1 $344 $354 $288 $348 forward $286 $-1 #
edge $-1 $403 -41.477050712814986 $404 41.477050712814986 $347 $405 forward 7 unknown #
coedge $-1 $290 $289 $406 $407 reversed $168 $-1 #
coedge $-1 $399 $303 $289 $351 forward $180 $-1 #
edge $-1 $408 -42.150924898648633 $355 -29.743398282965806 $350 $409 forward 7 unknown #
coedge $-1 $309 $363 $290 $353 forward $97 $-1 #
edge $-1 $356 29.743398282965806 $410 42.150924898648633 $352 $411 forward 7 unknown #
coedge $-1 $347 $291 $363 $412 reversed $286 $-1 #
vertex $-1 $351 $413 #
vertex $-1 $353 $414 #
straight-curve $-1 -65.690559873773026 0 7.8771444970650499 0 1 0 I I #
coedge $-1 $375 $299 $294 $359 reversed $342 $-1 #
edge $-1 $360 -41.477050712814986 $301 41.477050712814986 $358 $415 forward 7 unknown #
vertex $-1 $359 $416 #
straight-curve $-1 0 -41.477050712814986 -9.6947716820086889 -1 0 0 I I #
plane-surface $-1 0 0 -9.6947716820086889 0 0 1 1 0 0 forward_v I I I I #
coedge $-1 $352 $298 $354 $412 forward $97 $-1 #
edge $-1 $366 -42.150924898648633 $403 -29.743398282965806 $298 $417 forward 7 unknown #
coedge $-1 $299 $375 $401 $418 forward $342 $-1 #
vertex $-1 $300 $419 #
straight-curve $-1 -78.098086489455852 41.477050712814986 0 0 0 -1 I I #
point $-1 -78.098086489455852 41.477050712814986 -9.6947716820086889 #
coedge $-1 $420 $406 $303 $370 reversed $398 $-1 #
edge $-1 $372 -9.6947716820086889 $408 -7.8771444970650499 $369 $421 forward 7 unknown #
coedge $-1 $304 $310 $420 $422 forward $312 $-1 #
vertex $-1 $422 $423 #
straight-curve $-1 0 -41.477050712814986 9.6947716820086889 1 0 0 I I #
coedge $-1 $306 $399 $346 $402 forward $180 $-1 #
coedge $-1 $365 $358 $306 $376 reversed $342 $-1 #
edge $-1 $424 -2.4618362266770077 $360 9.6947716820086889 $375 $421 forward 7 unknown #
plane-surface $-1 0 0 9.6947716820086889 0 0 1 1 0 0 forward_v I I I I #
coedge $-1 $406 $420 $309 $379 forward $398 $-1 #
edge $-1 $380 -9.6947716820086889 $410 -7.8771444970650499 $309 $367 forward 7 unknown #
vertex $-1 $311 $425 #
straight-curve $-1 0 41.477050712814986 9.6947716820086889 -1 0 0 I I #
coedge $-1 $325 $323 $393 $426 forward $316 $-1 #
coedge $-1 $329 $334 $318 $384 reversed $339 $-1 #
edge $-1 $331 -41.477050712814986 $336 41.477050712814986 $383 $427 forward 7 unknown #
straight-curve $-1 -78.098086489455852 0 -9.6947716820086889 0 1 0 I I #
point $-1 -78.098086489455852 41.477050712814986 -9.6947716820086889 #
point $-1 -78.098086489455852 -41.477050712814986 -9.6947716820086889 #
vertex $-1 $426 $428 #
straight-curve $-1 0 41.477050712814986 -9.6947716820086889 1 0 0 I I #
vertex $-1 $330 $429 #
straight-curve $-1 0 -41.477050712814986 -9.6947716820086889 -1 0 0 I I #
straight-curve $-1 -78.098086489455852 0 9.6947716820086889 0 -1 0 I I #
coedge $-1 $334 $329 $382 $426 reversed $339 $-1 #
straight-curve $-1 78.098086489455852 -41.477050712814986 0 0 0 -1 I I #
point $-1 78.098086489455852 -41.477050712814986 9.6947716820086889 #
straight-curve $-1 78.098086489455852 41.477050712814986 0 0 0 -1 I I #
point $-1 78.098086489455852 41.477050712814986 9.6947716820086889 #
loop $-1 $-1 $406 $341 #
coedge $-1 $374 $350 $344 $400 forward $180 $-1 #
edge $-1 $355 -5.2923993161295355 $404 0.12290895425850668 $399 $430 forward 7 unknown #
coedge $-1 $346 $345 $365 $418 reversed $232 $-1 #
edge $-1 $404 29.743398282965806 $424 42.150924898648633 $374 $431 forward 7 unknown #
vertex $-1 $364 $432 #
vertex $-1 $402 $433 #
straight-curve $-1 -65.690559873773026 0 2.4618362266770077 0 -1 0 I I #
coedge $-1 $369 $378 $349 $407 forward $398 $-1 #
edge $-1 $410 -41.477050712814986 $408 41.477050712814986 $406 $434 forward 7 unknown #
vertex $-1 $351 $435 #
straight-curve $-1 -35.94716159080722 -41.477050712814986 7.8771444970650499 1 0 0 I I #
vertex $-1 $407 $436 #
straight-curve $-1 -35.94716159080722 41.477050712814986 7.8771444970650499 -1 0 0 I I #
edge $-1 $403 -0.12290895425850668 $356 5.2923993161295355 $363 $437 forward 7 unknown #
point $-1 -65.690559873773026 -41.477050712814986 7.8771444970650499 #
point $-1 -65.690559873773026 41.477050712814986 7.8771444970650499 #
straight-curve $-1 -78.098086489455852 0 -9.6947716820086889 0 1 0 I I #
point $-1 -78.098086489455852 -41.477050712814986 -9.6947716820086889 #
straight-curve $-1 -35.94716159080722 41.477050712814986 2.4618362266770077 1 0 0 I I #
edge $-1 $424 -41.477050712814986 $366 41.477050712814986 $365 $438 forward 7 unknown #
point $-1 -78.098086489455852 41.477050712814986 2.4618362266770077 #
coedge $-1 $378 $369 $371 $422 reversed $398 $-1 #
straight-curve $-1 -78.098086489455852 -41.477050712814986 0 0 0 -1 I I #
edge $-1 $380 -41.477050712814986 $372 41.477050712814986 $420 $439 forward 7 unknown #
point $-1 -78.098086489455852 -41.477050712814986 9.6947716820086889 #
vertex $-1 $376 $440 #
point $-1 -78.098086489455852 41.477050712814986 9.6947716820086889 #
edge $-1 $388 -41.477050712814986 $390 41.477050712814986 $393 $441 forward 7 unknown #
straight-curve $-1 78.098086489455852 0 9.6947716820086889 0 1 0 I I #
point $-1 78.098086489455852 41.477050712814986 -9.6947716820086889 #
point $-1 78.098086489455852 -41.477050712814986 -9.6947716820086889 #
straight-curve $-1 -65.690559873773026 -41.477050712814986 2.5847451809355144 0 0 -1 I I #
straight-curve $-1 -35.94716159080722 -41.477050712814986 2.4618362266770077 -1 0 0 I I #
point $-1 -65.690559873773026 41.477050712814986 2.4618362266770077 #
point $-1 -65.690559873773026 -41.477050712814986 2.4618362266770077 #
straight-curve $-1 -78.098086489455852 0 7.8771444970650499 0 -1 0 I I #
point $-1 -78.098086489455852 -41.477050712814986 7.8771444970650499 #
point $-1 -78.098086489455852 41.477050712814986 7.8771444970650499 #
straight-curve $-1 -65.690559873773026 41.477050712814986 2.5847451809355144 0 0 1 I I #
straight-curve $-1 -78.098086489455852 0 2.4618362266770077 0 1 0 I I #
straight-curve $-1 -78.098086489455852 0 9.6947716820086889 0 -1 0 I I #
point $-1 -78.098086489455852 -41.477050712814986 2.4618362266770077 #
straight-curve $-1 78.098086489455852 0 -9.6947716820086889 0 -1 0 I I #
End-of-ACIS-data 