500 0 8 0           
7 Unknown 11 ACIS 5.0 NT 24 Thu Mar 25 16:33:57 1999 
-1 9.9999999999999995e-007 1e-010 
body $-1 $8 $-1 $9 #
body $-1 $10 $-1 $11 #
body $-1 $12 $-1 $13 #
body $-1 $14 $-1 $15 #
body $-1 $16 $-1 $17 #
body $-1 $18 $-1 $19 #
body $-1 $20 $-1 $21 #
body $-1 $22 $-1 $23 #
lump $-1 $-1 $24 $0 #
transform $-1 1 0 0 0 1 0 0 0 1 76.899319437238688 47.255754763156553 16.312587899457991 1 rotate no_reflect no_shear #
lump $-1 $-1 $25 $1 #
transform $-1 1 0 0 0 1 0 0 0 1 76.899319437238688 47.255754763156553 16.312587899457991 1 rotate no_reflect no_shear #
lump $-1 $-1 $26 $2 #
transform $-1 1 0 0 0 1 0 0 0 1 76.899319437238688 47.255754763156553 16.312587899457991 1 rotate no_reflect no_shear #
lump $-1 $-1 $27 $3 #
transform $-1 1 0 0 0 1 0 0 0 1 76.899319437238688 47.255754763156553 16.312587899457991 1 rotate no_reflect no_shear #
lump $-1 $-1 $28 $4 #
transform $-1 1 0 0 0 1 0 0 0 1 76.899319437238688 47.255754763156553 16.312587899457991 1 rotate no_reflect no_shear #
lump $-1 $-1 $29 $5 #
transform $-1 1 0 0 0 1 0 0 0 1 76.899319437238688 47.255754763156553 16.312587899457991 1 rotate no_reflect no_shear #
lump $-1 $-1 $30 $6 #
transform $-1 1 0 0 0 1 0 0 0 1 76.899319437238688 47.255754763156553 16.312587899457991 1 rotate no_reflect no_shear #
lump $-1 $-1 $31 $7 #
transform $-1 1 0 0 0 1 0 0 0 1 76.899319437238688 47.255754763156553 16.312587899457991 1 rotate no_reflect no_shear #
shell $-1 $-1 $-1 $32 $-1 $8 #
shell $-1 $-1 $-1 $33 $-1 $10 #
shell $-1 $-1 $-1 $34 $-1 $12 #
shell $-1 $-1 $-1 $35 $-1 $14 #
shell $-1 $-1 $-1 $36 $-1 $16 #
shell $-1 $-1 $-1 $37 $-1 $18 #
shell $-1 $-1 $-1 $38 $-1 $20 #
shell $-1 $-1 $-1 $39 $-1 $22 #
face $-1 $40 $41 $24 $-1 $42 forward single #
face $-1 $43 $44 $25 $-1 $45 forward single #
face $-1 $46 $47 $26 $-1 $48 reversed single #
face $-1 $49 $50 $27 $-1 $51 forward single #
face $-1 $52 $53 $28 $-1 $54 forward single #
face $-1 $55 $56 $29 $-1 $57 forward single #
face $-1 $58 $59 $30 $-1 $60 reversed single #
face $-1 $61 $62 $31 $-1 $63 forward single #
face $-1 $64 $65 $24 $-1 $66 reversed single #
loop $-1 $-1 $67 $32 #
plane-surface $-1 0 0 16.312587899457991 0 0 1 1 0 0 forward_v I I I I #
face $-1 $68 $69 $25 $-1 $70 reversed single #
loop $-1 $-1 $71 $33 #
plane-surface $-1 -70.907486405933398 0 -4.1332979204649014 0 0 1 1 0 0 forward_v I I I I #
face $-1 $72 $73 $26 $-1 $74 reversed single #
loop $-1 $-1 $75 $34 #
plane-surface $-1 -41.731361896059695 113.20636516782648 176.6882865673947 1 0 0 0 -0.79863551827123203 -0.60181501223851219 forward_v I I I I #
face $-1 $76 $77 $27 $-1 $78 forward single #
loop $-1 $79 $80 $35 #
cone-surface $-1 -38.657542810075505 42.899794397585211 11.374355500365906 0 -0.79863551827123203 -0.60181501223851219 1 0 0 1 I I 0 1 1 forward I I I I #
face $-1 $81 $82 $28 $-1 $83 forward single #
loop $-1 $84 $85 $36 #
cone-surface $-1 -34.046814181099215 42.899794397585211 11.374355500365906 0 -0.79863551827123203 -0.60181501223851219 1 0 0 1 I I 0 1 1 forward I I I I #
face $-1 $86 $87 $29 $-1 $88 forward single #
loop $-1 $89 $90 $37 #
cone-surface $-1 -29.436085552122925 42.899794397585211 11.374355500365906 0 -0.79863551827123203 -0.60181501223851219 1 0 0 1 I I 0 1 1 forward I I I I #
face $-1 $91 $92 $30 $-1 $93 reversed single #
loop $-1 $-1 $94 $38 #
plane-surface $-1 63.331246957498045 -128.75661739171605 133.96896909891919 -1 0 0 0 -0.52991927123019833 0.84804809178421925 forward_v I I I I #
face $-1 $95 $96 $31 $-1 $97 forward single #
loop $-1 $98 $99 $39 #
cone-surface $-1 48.404254847158739 -35.054474999455621 6.7556589685927753 0 0.52991927123019833 -0.84804809178421925 2.5 0 0 1 I I 0 1 2.5 forward I I I I #
face $-1 $100 $101 $24 $-1 $102 reversed single #
loop $-1 $-1 $103 $40 #
plane-surface $-1 0 0 -16.312587899457991 0 0 1 1 0 0 forward_v I I I I #
coedge $-1 $104 $105 $106 $107 forward $41 $-1 #
face $-1 $108 $109 $25 $-1 $110 reversed single #
loop $-1 $-1 $111 $43 #
plane-surface $-1 -70.907486405933398 0 -11.31796560586173 0 0 1 1 0 0 forward_v I I I I #
coedge $-1 $112 $113 $114 $115 forward $44 $-1 #
face $-1 $116 $117 $26 $-1 $118 reversed single #
loop $-1 $-1 $119 $46 #
plane-surface $-1 -34.046814181099215 -9.6226904991018216 84.129956830884581 0 0.79863551827123203 0.60181501223851219 1 0 0 forward_v I I I I #
coedge $-1 $120 $121 $122 $123 reversed $47 $-1 #
face $-1 $-1 $124 $27 $-1 $125 forward single #
loop $-1 $126 $127 $49 #
cone-surface $-1 -38.657542810075505 41.031713117703056 9.9666553260130293 0 -0.79863551827123203 -0.60181501223851219 0.5 0 0 1 I I -0.70710678118654746 0.70710678118654746 0.5 forward I I I I #
loop $-1 $-1 $128 $35 #
coedge $-1 $80 $80 $129 $130 reversed $50 $-1 #
face $-1 $-1 $131 $28 $-1 $132 forward single #
loop $-1 $133 $134 $52 #
cone-surface $-1 -34.046814181099215 41.031713117703056 9.9666553260130293 0 -0.79863551827123203 -0.60181501223851219 0.5 0 0 1 I I -0.70710678118654746 0.70710678118654746 0.5 forward I I I I #
loop $-1 $-1 $135 $36 #
coedge $-1 $85 $85 $136 $137 reversed $53 $-1 #
face $-1 $-1 $138 $29 $-1 $139 forward single #
loop $-1 $140 $141 $55 #
cone-surface $-1 -29.436085552122925 41.031713117703056 9.9666553260130293 0 -0.79863551827123203 -0.60181501223851219 0.5 0 0 1 I I -0.70710678118654746 0.70710678118654746 0.5 forward I I I I #
loop $-1 $-1 $142 $37 #
coedge $-1 $90 $90 $143 $144 reversed $56 $-1 #
face $-1 $145 $146 $30 $-1 $147 reversed single #
loop $-1 $-1 $148 $58 #
plane-surface $-1 48.404254847158739 -47.255754763156546 3.540326882408408 0 -0.52991927123019833 0.84804809178421925 1 0 0 forward_v I I I I #
coedge $-1 $149 $150 $151 $152 reversed $59 $-1 #
face $-1 $-1 $153 $31 $-1 $154 forward single #
loop $-1 $155 $156 $61 #
cone-surface $-1 48.404254847158739 -32.41074111883858 2.5248004315220705 0 0.52991927123019833 -0.84804809178421925 1.25 0 0 1 I I -0.70710678118654746 0.70710678118654746 1.25 forward I I I I #
loop $-1 $-1 $157 $39 #
coedge $-1 $99 $99 $158 $159 reversed $62 $-1 #
face $-1 $160 $161 $24 $-1 $162 reversed single #
loop $-1 $-1 $163 $64 #
plane-surface $-1 0 -47.255754763156553 0 0 1 0 0 0 1 forward_v I I I I #
coedge $-1 $164 $165 $166 $167 forward $65 $-1 #
coedge $-1 $168 $67 $169 $170 forward $41 $-1 #
coedge $-1 $67 $168 $171 $172 forward $41 $-1 #
coedge $-1 $173 $174 $67 $107 reversed $175 $-1 #
edge $-1 $176 -47.255754763156553 $177 47.255754763156553 $106 $178 forward 7 unknown #
face $-1 $179 $180 $25 $-1 $181 reversed single #
loop $-1 $-1 $182 $68 #
plane-surface $-1 -64.915653374628107 0 -7.7256317631633156 -1 0 0 0 0 1 forward_v I I I I #
coedge $-1 $183 $184 $185 $186 forward $69 $-1 #
coedge $-1 $187 $71 $188 $189 reversed $44 $-1 #
coedge $-1 $71 $187 $190 $191 reversed $44 $-1 #
coedge $-1 $182 $192 $71 $115 reversed $109 $-1 #
edge $-1 $193 -47.255754763156553 $194 47.255754763156553 $114 $195 forward 7 unknown #
face $-1 $196 $197 $26 $-1 $198 forward single #
loop $-1 $-1 $199 $72 #
plane-surface $-1 -26.362266466138735 113.20636516782648 176.6882865673947 -1 0 0 0 0.79863551827123203 0.60181501223851219 forward_v I I I I #
coedge $-1 $200 $201 $202 $203 reversed $73 $-1 #
coedge $-1 $121 $75 $204 $205 reversed $47 $-1 #
coedge $-1 $75 $120 $200 $206 reversed $47 $-1 #
coedge $-1 $202 $207 $75 $123 forward $197 $-1 #
edge $-1 $208 9.3474278207566854 $209 15.121821510406271 $122 $210 forward 7 unknown #
loop $-1 $-1 $129 $76 #
plane-surface $-1 -34.046814181099215 -9.6226904991018216 84.129956830884581 0 0.79863551827123203 0.60181501223851219 1 0 0 forward_v I I I I #
loop $-1 $-1 $211 $49 #
coedge $-1 $127 $127 $128 $212 reversed $77 $-1 #
coedge $-1 $128 $128 $127 $212 forward $79 $-1 #
coedge $-1 $129 $129 $80 $130 forward $124 $-1 #
edge $-1 $213 -1.4388295220363729e-015 $213 6.2831853071795987 $129 $214 forward 7 unknown #
loop $-1 $-1 $136 $81 #
plane-surface $-1 -34.046814181099215 -9.6226904991018216 84.129956830884581 0 0.79863551827123203 0.60181501223851219 1 0 0 forward_v I I I I #
loop $-1 $-1 $215 $52 #
coedge $-1 $134 $134 $135 $216 reversed $82 $-1 #
coedge $-1 $135 $135 $134 $216 forward $84 $-1 #
coedge $-1 $136 $136 $85 $137 forward $131 $-1 #
edge $-1 $217 -1.4388295220363729e-015 $217 6.2831853071795987 $136 $218 forward 7 unknown #
loop $-1 $-1 $143 $86 #
plane-surface $-1 -34.046814181099215 -9.6226904991018216 84.129956830884581 0 0.79863551827123203 0.60181501223851219 1 0 0 forward_v I I I I #
loop $-1 $-1 $219 $55 #
coedge $-1 $141 $141 $142 $220 reversed $87 $-1 #
coedge $-1 $142 $142 $141 $220 forward $89 $-1 #
coedge $-1 $143 $143 $90 $144 forward $138 $-1 #
edge $-1 $221 -1.4388295220363729e-015 $221 6.2831853071795987 $143 $222 forward 7 unknown #
face $-1 $223 $224 $30 $-1 $225 reversed single #
loop $-1 $-1 $226 $91 #
plane-surface $-1 33.477262736819434 -128.75661739171605 133.96896909891919 1 0 0 0 0.52991927123019833 -0.84804809178421925 forward_v I I I I #
coedge $-1 $227 $228 $229 $230 reversed $92 $-1 #
coedge $-1 $150 $94 $231 $232 reversed $59 $-1 #
coedge $-1 $94 $149 $227 $233 reversed $59 $-1 #
coedge $-1 $229 $234 $94 $152 forward $235 $-1 #
edge $-1 $236 17.122553932701472 $237 37.562443876944783 $151 $238 forward 7 unknown #
loop $-1 $-1 $158 $95 #
plane-surface $-1 48.404254847158739 -47.255754763156546 3.540326882408408 0 -0.52991927123019833 0.84804809178421925 1 0 0 forward_v I I I I #
loop $-1 $-1 $239 $61 #
coedge $-1 $156 $156 $157 $240 reversed $96 $-1 #
coedge $-1 $157 $157 $156 $240 forward $98 $-1 #
coedge $-1 $158 $158 $99 $159 forward $153 $-1 #
edge $-1 $241 6.0194466492526265e-016 $241 6.2831853071796013 $158 $242 forward 7 unknown #
face $-1 $243 $244 $24 $-1 $245 reversed single #
loop $-1 $-1 $246 $100 #
plane-surface $-1 -76.899319437238688 0 0 1 0 0 0 0 -1 forward_v I I I I #
coedge $-1 $247 $171 $248 $249 forward $101 $-1 #
coedge $-1 $250 $103 $247 $251 forward $65 $-1 #
coedge $-1 $103 $250 $252 $253 forward $65 $-1 #
coedge $-1 $174 $173 $103 $167 reversed $175 $-1 #
edge $-1 $254 -47.255754763156553 $255 47.255754763156553 $166 $256 forward 7 unknown #
coedge $-1 $105 $104 $257 $258 forward $41 $-1 #
coedge $-1 $259 $260 $104 $170 reversed $244 $-1 #
edge $-1 $177 -76.899319437238688 $261 76.899319437238688 $169 $262 forward 7 unknown #
coedge $-1 $163 $263 $105 $172 reversed $101 $-1 #
edge $-1 $264 -76.899319437238688 $176 76.899319437238688 $171 $265 forward 7 unknown #
coedge $-1 $166 $106 $263 $266 forward $175 $-1 #
coedge $-1 $106 $166 $259 $267 reversed $175 $-1 #
loop $-1 $-1 $173 $243 #
vertex $-1 $107 $268 #
vertex $-1 $107 $269 #
straight-curve $-1 76.899319437238688 0 16.312587899457991 0 1 0 I I #
face $-1 $270 $271 $25 $-1 $272 reversed single #
loop $-1 $-1 $273 $108 #
plane-surface $-1 0 -47.255754763156553 0 0 1 0 0 0 1 forward_v I I I I #
coedge $-1 $185 $114 $274 $275 reversed $109 $-1 #
coedge $-1 $276 $111 $273 $277 reversed $69 $-1 #
coedge $-1 $111 $276 $278 $279 reversed $69 $-1 #
coedge $-1 $192 $182 $111 $186 reversed $109 $-1 #
edge $-1 $280 -47.255754763156553 $281 47.255754763156553 $185 $282 forward 7 unknown #
coedge $-1 $113 $112 $283 $284 reversed $44 $-1 #
coedge $-1 $285 $286 $112 $189 forward $287 $-1 #
edge $-1 $288 -41.445576234271989 $194 -29.461910171661408 $188 $289 forward 7 unknown #
coedge $-1 $290 $274 $113 $191 forward $180 $-1 #
edge $-1 $193 29.461910171661408 $291 41.445576234271989 $190 $292 forward 7 unknown #
coedge $-1 $114 $185 $285 $293 reversed $109 $-1 #
vertex $-1 $191 $294 #
vertex $-1 $189 $295 #
straight-curve $-1 -64.915653374628107 0 -4.1332979204649014 0 1 0 I I #
face $-1 $-1 $296 $26 $-1 $297 reversed single #
loop $-1 $-1 $122 $116 #
plane-surface $-1 0 0 16.312587899457991 0 0 1 1 0 0 forward_v I I I I #
coedge $-1 $298 $299 $300 $301 reversed $117 $-1 #
coedge $-1 $302 $119 $121 $206 forward $73 $-1 #
coedge $-1 $119 $302 $298 $303 forward $73 $-1 #
coedge $-1 $300 $122 $119 $203 forward $197 $-1 #
edge $-1 $209 -24.707954805510088 $304 -9.3388593755891272 $202 $305 forward 7 unknown #
coedge $-1 $306 $307 $120 $205 forward $296 $-1 #
edge $-1 $308 -79.694434845956309 $208 -72.031555384239354 $204 $309 forward 7 unknown #
edge $-1 $209 84.91654500694834 $308 94.511509526313091 $121 $310 forward 7 unknown #
coedge $-1 $122 $300 $306 $311 forward $197 $-1 #
vertex $-1 $205 $312 #
vertex $-1 $123 $313 #
straight-curve $-1 -41.731361896059695 56.603182583913238 16.312587899457995 0 -1 0 I I #
coedge $-1 $211 $211 $-1 $314 reversed $126 $-1 #
edge $-1 $315 0 $315 6.2831853071796004 $127 $316 forward 7 unknown #
vertex $-1 $130 $317 #
ellipse-curve $-1 -38.657542810075505 44.368557918331753 12.481148168599532 0 0.79863551827123203 0.60181501223851219 1 0 0 1 I I #
coedge $-1 $215 $215 $-1 $318 reversed $133 $-1 #
edge $-1 $319 0 $319 6.2831853071796004 $134 $320 forward 7 unknown #
vertex $-1 $137 $321 #
ellipse-curve $-1 -34.046814181099215 44.368557918331753 12.481148168599532 0 0.79863551827123203 0.60181501223851219 1 0 0 1 I I #
coedge $-1 $219 $219 $-1 $322 reversed $140 $-1 #
edge $-1 $323 0 $323 6.2831853071796004 $141 $324 forward 7 unknown #
vertex $-1 $144 $325 #
ellipse-curve $-1 -29.436085552122925 44.368557918331753 12.481148168599532 0 0.79863551827123203 0.60181501223851219 1 0 0 1 I I #
face $-1 $-1 $235 $30 $-1 $326 forward single #
loop $-1 $-1 $327 $145 #
plane-surface $-1 0 -47.255754763156553 0 0 1 0 0 0 1 forward_v I I I I #
coedge $-1 $328 $329 $330 $331 reversed $146 $-1 #
coedge $-1 $332 $148 $150 $233 forward $92 $-1 #
coedge $-1 $148 $332 $328 $333 forward $92 $-1 #
coedge $-1 $330 $151 $148 $230 forward $235 $-1 #
edge $-1 $237 -39.129119533918676 $334 -9.2751353132400638 $229 $335 forward 7 unknown #
coedge $-1 $336 $337 $149 $232 forward $224 $-1 #
edge $-1 $338 -63.444157667051194 $236 -50.671896650001599 $231 $339 forward 7 unknown #
edge $-1 $237 -24.102276913611771 $338 8.3790584163743152e-015 $150 $340 forward 7 unknown #
coedge $-1 $151 $330 $336 $341 forward $235 $-1 #
loop $-1 $-1 $330 $223 #
vertex $-1 $232 $342 #
vertex $-1 $152 $343 #
straight-curve $-1 63.331246957498045 -64.378308695858024 16.312587899457995 0 1 0 I I #
coedge $-1 $239 $239 $-1 $344 reversed $155 $-1 #
edge $-1 $345 0 $345 6.2831853071796004 $156 $346 forward 7 unknown #
vertex $-1 $159 $347 #
ellipse-curve $-1 48.404254847158739 -37.035809791034907 9.9264573909331926 0 -0.52991927123019833 0.84804809178421925 2.5 0 0 1 I I #
face $-1 $-1 $175 $24 $-1 $348 reversed single #
loop $-1 $-1 $259 $160 #
plane-surface $-1 0 47.255754763156553 0 0 -1 0 0 0 -1 forward_v I I I I #
coedge $-1 $349 $257 $260 $350 forward $161 $-1 #
coedge $-1 $263 $163 $164 $251 reversed $101 $-1 #
coedge $-1 $257 $349 $163 $249 reversed $161 $-1 #
edge $-1 $264 -16.312587899457991 $351 16.312587899457991 $248 $352 forward 7 unknown #
coedge $-1 $165 $164 $349 $353 forward $65 $-1 #
edge $-1 $255 -76.899319437238688 $351 76.899319437238688 $247 $354 forward 7 unknown #
coedge $-1 $260 $259 $165 $253 reversed $244 $-1 #
edge $-1 $355 -76.899319437238688 $254 76.899319437238688 $252 $356 forward 7 unknown #
vertex $-1 $167 $357 #
vertex $-1 $266 $358 #
straight-curve $-1 76.899319437238688 0 -16.312587899457991 0 -1 0 I I #
coedge $-1 $246 $248 $168 $258 reversed $161 $-1 #
edge $-1 $261 -47.255754763156553 $264 47.255754763156553 $257 $359 forward 7 unknown #
coedge $-1 $252 $169 $174 $267 forward $244 $-1 #
coedge $-1 $169 $252 $246 $350 reversed $244 $-1 #
vertex $-1 $170 $360 #
straight-curve $-1 0 47.255754763156553 16.312587899457991 -1 0 0 I I #
coedge $-1 $171 $247 $173 $266 reversed $101 $-1 #
vertex $-1 $258 $361 #
straight-curve $-1 0 -47.255754763156553 16.312587899457991 1 0 0 I I #
edge $-1 $176 -16.312587899457991 $255 16.312587899457991 $173 $362 forward 7 unknown #
edge $-1 $177 -16.312587899457991 $254 16.312587899457991 $174 $363 forward 7 unknown #
point $-1 76.899319437238688 -47.255754763156553 16.312587899457991 #
point $-1 76.899319437238688 47.255754763156553 16.312587899457991 #
face $-1 $-1 $287 $25 $-1 $364 reversed single #
loop $-1 $-1 $365 $179 #
plane-surface $-1 -76.899319437238688 0 0 1 0 0 0 0 -1 forward_v I I I I #
coedge $-1 $274 $290 $183 $277 forward $180 $-1 #
coedge $-1 $190 $273 $182 $275 forward $180 $-1 #
edge $-1 $281 -7.4551497242800719 $193 -0.27048203888324363 $274 $366 forward 7 unknown #
coedge $-1 $184 $183 $365 $367 reversed $69 $-1 #
edge $-1 $368 -41.445576234271989 $281 -29.461910171661408 $273 $369 forward 7 unknown #
coedge $-1 $286 $285 $184 $279 forward $287 $-1 #
edge $-1 $280 29.461910171661408 $370 41.445576234271989 $278 $371 forward 7 unknown #
vertex $-1 $279 $372 #
vertex $-1 $277 $373 #
straight-curve $-1 -64.915653374628107 0 -11.31796560586173 0 -1 0 I I #
coedge $-1 $374 $375 $187 $284 forward $271 $-1 #
edge $-1 $291 -47.255754763156553 $288 47.255754763156553 $283 $376 forward 7 unknown #
coedge $-1 $278 $188 $192 $293 forward $287 $-1 #
coedge $-1 $188 $278 $374 $377 reversed $287 $-1 #
loop $-1 $-1 $278 $270 #
vertex $-1 $377 $378 #
straight-curve $-1 -35.453743202966699 47.255754763156553 -4.1332979204649014 1 0 0 I I #
coedge $-1 $273 $190 $375 $379 forward $180 $-1 #
vertex $-1 $379 $380 #
straight-curve $-1 -35.453743202966699 -47.255754763156553 -4.1332979204649014 -1 0 0 I I #
edge $-1 $194 0.27048203888324363 $280 7.4551497242800719 $285 $381 forward 7 unknown #
point $-1 -64.915653374628107 -47.255754763156553 -4.1332979204649014 #
point $-1 -64.915653374628107 47.255754763156553 -4.1332979204649014 #
loop $-1 $-1 $204 $196 #
plane-surface $-1 0 47.255754763156553 0 0 -1 0 0 0 -1 forward_v I I I I #
coedge $-1 $299 $199 $201 $303 reversed $117 $-1 #
coedge $-1 $199 $298 $382 $383 reversed $117 $-1 #
coedge $-1 $207 $202 $199 $301 forward $197 $-1 #
edge $-1 $304 -15.121821510406271 $384 -9.3474278207566854 $300 $385 forward 7 unknown #
coedge $-1 $201 $200 $307 $386 reversed $73 $-1 #
edge $-1 $387 -94.511509526313091 $304 -84.91654500694834 $298 $388 forward 7 unknown #
vertex $-1 $203 $389 #
straight-curve $-1 -17.023407090549608 41.48136107350696 16.312587899457995 1 0 0 I I #
coedge $-1 $382 $204 $207 $311 reversed $296 $-1 #
coedge $-1 $204 $382 $302 $386 forward $296 $-1 #
vertex $-1 $205 $390 #
straight-curve $-1 -41.731361896059695 47.255754763156553 88.344143283697349 0 0 1 I I #
straight-curve $-1 -41.731361896059695 -9.6226904991018216 84.129956830884581 0 0.60181501223851219 -0.79863551827123203 I I #
edge $-1 $384 26.362266466138735 $208 41.731361896059695 $306 $391 forward 7 unknown #
point $-1 -41.731361896059695 47.255754763156553 16.312587899457991 #
point $-1 -41.731361896059695 41.481361073506967 16.312587899457995 #
edge $-1 $392 1 $392 0 $211 $-1 forward 7 unknown #
vertex $-1 $212 $393 #
ellipse-curve $-1 -38.657542810075505 41.431030876838669 10.267562832132285 0 0.79863551827123203 0.60181501223851219 1 0 0 1 I I #
point $-1 -37.657542810075505 44.368557918331746 12.481148168599528 #
edge $-1 $394 1 $394 0 $215 $-1 forward 7 unknown #
vertex $-1 $216 $395 #
ellipse-curve $-1 -34.046814181099215 41.431030876838669 10.267562832132285 0 0.79863551827123203 0.60181501223851219 1 0 0 1 I I #
point $-1 -33.046814181099215 44.368557918331746 12.481148168599528 #
edge $-1 $396 1 $396 0 $219 $-1 forward 7 unknown #
vertex $-1 $220 $397 #
ellipse-curve $-1 -29.436085552122925 41.431030876838669 10.267562832132285 0 0.79863551827123203 0.60181501223851219 1 0 0 1 I I #
point $-1 -28.436085552122925 44.368557918331746 12.481148168599528 #
plane-surface $-1 0 0 16.312587899457991 0 0 1 1 0 0 forward_v I I I I #
coedge $-1 $337 $336 $329 $398 forward $224 $-1 #
coedge $-1 $329 $226 $228 $333 reversed $146 $-1 #
coedge $-1 $226 $328 $327 $398 reversed $146 $-1 #
coedge $-1 $234 $229 $226 $331 forward $235 $-1 #
edge $-1 $334 -37.562443876944783 $399 -17.122553932701472 $330 $400 forward 7 unknown #
coedge $-1 $228 $227 $337 $401 reversed $92 $-1 #
edge $-1 $402 -8.3790584163743152e-015 $334 24.102276913611771 $328 $403 forward 7 unknown #
vertex $-1 $230 $404 #
straight-curve $-1 24.20212742357937 -26.815864818913244 16.312587899457991 -1 0 0 I I #
coedge $-1 $327 $231 $234 $341 reversed $224 $-1 #
coedge $-1 $231 $327 $332 $401 forward $224 $-1 #
vertex $-1 $232 $405 #
straight-curve $-1 63.331246957498045 -47.255754763156553 66.984484549459594 0 0 1 I I #
straight-curve $-1 63.331246957498045 -47.255754763156546 3.540326882408408 0 -0.84804809178421925 -0.52991927123019833 I I #
edge $-1 $399 33.477262736819434 $236 63.331246957498045 $336 $406 forward 7 unknown #
point $-1 63.331246957498045 -47.255754763156553 16.312587899457991 #
point $-1 63.331246957498045 -26.815864818913241 16.312587899457991 #
edge $-1 $407 1 $407 0 $239 $-1 forward 7 unknown #
vertex $-1 $240 $408 #
ellipse-curve $-1 48.404254847158739 -33.073140207876328 3.5848605462523446 0 -0.52991927123019833 0.84804809178421925 2.5 0 0 1 I I #
point $-1 50.904254847158739 -37.035809791034914 9.9264573909332068 #
plane-surface $-1 76.899319437238688 0 0 -1 0 0 0 0 1 forward_v I I I I #
coedge $-1 $248 $246 $250 $353 reversed $161 $-1 #
edge $-1 $261 -16.312587899457991 $355 16.312587899457991 $260 $409 forward 7 unknown #
vertex $-1 $353 $410 #
straight-curve $-1 -76.899319437238688 -47.255754763156553 0 0 0 -1 I I #
edge $-1 $351 -47.255754763156553 $355 47.255754763156553 $349 $411 forward 7 unknown #
straight-curve $-1 0 -47.255754763156553 -16.312587899457991 -1 0 0 I I #
vertex $-1 $253 $412 #
straight-curve $-1 0 47.255754763156553 -16.312587899457991 1 0 0 I I #
point $-1 76.899319437238688 47.255754763156553 -16.312587899457991 #
point $-1 76.899319437238688 -47.255754763156553 -16.312587899457991 #
straight-curve $-1 -76.899319437238688 0 16.312587899457991 0 -1 0 I I #
point $-1 -76.899319437238688 47.255754763156553 16.312587899457991 #
point $-1 -76.899319437238688 -47.255754763156553 16.312587899457991 #
straight-curve $-1 76.899319437238688 -47.255754763156553 0 0 0 -1 I I #
straight-curve $-1 76.899319437238688 47.255754763156553 0 0 0 -1 I I #
plane-surface $-1 0 47.255754763156553 0 0 -1 0 0 0 -1 forward_v I I I I #
coedge $-1 $375 $374 $276 $367 forward $271 $-1 #
straight-curve $-1 -64.915653374628107 -47.255754763156553 -3.8628158815816578 0 0 1 I I #
edge $-1 $370 -47.255754763156553 $368 47.255754763156553 $365 $413 forward 7 unknown #
vertex $-1 $277 $414 #
straight-curve $-1 -35.453743202966699 -47.255754763156553 -11.31796560586173 1 0 0 I I #
vertex $-1 $279 $415 #
straight-curve $-1 -35.453743202966699 47.255754763156553 -11.31796560586173 -1 0 0 I I #
point $-1 -64.915653374628107 47.255754763156553 -11.31796560586173 #
point $-1 -64.915653374628107 -47.255754763156553 -11.31796560586173 #
coedge $-1 $365 $283 $286 $377 forward $271 $-1 #
coedge $-1 $283 $365 $290 $379 reversed $271 $-1 #
straight-curve $-1 -76.899319437238688 0 -4.1332979204649014 0 1 0 I I #
edge $-1 $288 4.1332979204649014 $370 11.31796560586173 $286 $416 forward 7 unknown #
point $-1 -76.899319437238688 47.255754763156553 -4.1332979204649014 #
edge $-1 $291 4.1332979204649014 $368 11.31796560586173 $375 $417 forward 7 unknown #
point $-1 -76.899319437238688 -47.255754763156553 -4.1332979204649014 #
straight-curve $-1 -64.915653374628107 47.255754763156553 -3.8628158815816578 0 0 -1 I I #
coedge $-1 $307 $306 $299 $383 forward $296 $-1 #
edge $-1 $384 72.031555384239354 $387 79.694434845956309 $382 $418 forward 7 unknown #
vertex $-1 $311 $419 #
straight-curve $-1 -26.362266466138735 56.603182583913238 16.312587899457995 0 1 0 I I #
edge $-1 $387 9.3388593755891272 $308 24.707954805510088 $307 $420 forward 7 unknown #
vertex $-1 $386 $421 #
straight-curve $-1 -26.362266466138735 -9.6226904991018216 84.129956830884581 0 -0.60181501223851219 0.79863551827123203 I I #
point $-1 -26.362266466138735 41.481361073506967 16.312587899457995 #
point $-1 -41.731361896059695 47.255754763156553 8.6497084377410403 #
straight-curve $-1 0 47.255754763156553 16.312587899457991 -1 0 0 I I #
vertex $-1 $314 $422 #
point $-1 -37.657542810075505 41.431030876838669 10.267562832132285 #
vertex $-1 $318 $423 #
point $-1 -33.046814181099215 41.431030876838669 10.267562832132285 #
vertex $-1 $322 $424 #
point $-1 -28.436085552122925 41.431030876838669 10.267562832132285 #
edge $-1 $399 50.671896650001599 $402 63.444157667051194 $327 $425 forward 7 unknown #
vertex $-1 $341 $426 #
straight-curve $-1 33.477262736819434 -64.378308695858024 16.312587899457995 0 -1 0 I I #
edge $-1 $402 9.2751353132400638 $338 39.129119533918676 $337 $427 forward 7 unknown #
vertex $-1 $401 $428 #
straight-curve $-1 33.477262736819434 -47.255754763156546 3.540326882408408 0 0.84804809178421925 0.52991927123019833 I I #
point $-1 33.477262736819434 -26.815864818913241 16.312587899457991 #
point $-1 63.331246957498045 -47.255754763156553 3.5403268824084035 #
straight-curve $-1 0 -47.255754763156553 16.312587899457991 1 0 0 I I #
vertex $-1 $344 $429 #
point $-1 50.904254847158739 -33.073140207876328 3.5848605462523446 #
straight-curve $-1 -76.899319437238688 47.255754763156553 0 0 0 -1 I I #
point $-1 -76.899319437238688 -47.255754763156553 -16.312587899457991 #
straight-curve $-1 -76.899319437238688 0 -16.312587899457991 0 1 0 I I #
point $-1 -76.899319437238688 47.255754763156553 -16.312587899457991 #
straight-curve $-1 -76.899319437238688 0 -11.31796560586173 0 -1 0 I I #
point $-1 -76.899319437238688 -47.255754763156553 -11.31796560586173 #
point $-1 -76.899319437238688 47.255754763156553 -11.31796560586173 #
straight-curve $-1 -76.899319437238688 47.255754763156553 0 0 0 -1 I I #
straight-curve $-1 -76.899319437238688 -47.255754763156553 0 0 0 -1 I I #
straight-curve $-1 -26.362266466138735 47.255754763156553 88.344143283697349 0 0 -1 I I #
point $-1 -26.362266466138735 47.255754763156553 16.312587899457991 #
straight-curve $-1 -17.023407090549608 47.255754763156553 8.6497084377410403 -1 0 0 I I #
point $-1 -26.362266466138735 47.255754763156553 8.6497084377410403 #
point $-1 -38.657542810075505 40.632395358567443 9.6657478198937739 #
point $-1 -34.046814181099215 40.632395358567443 9.6657478198937739 #
point $-1 -29.436085552122925 40.632395358567443 9.6657478198937739 #
straight-curve $-1 33.477262736819434 -47.255754763156553 66.984484549459594 0 0 -1 I I #
point $-1 33.477262736819434 -47.255754763156553 16.312587899457991 #
straight-curve $-1 24.20212742357937 -47.255754763156553 3.5403268824084013 1 0 0 I I #
point $-1 33.477262736819434 -47.255754763156553 3.5403268824084035 #
point $-1 48.404254847158739 -31.748342029800831 1.4647403167917963 #
End-of-ACIS-data 