500 0 17 0           
7 Unknown 11 ACIS 5.0 NT 24 Fri Mar 26 14:29:47 1999 
-1 9.9999999999999995e-007 1e-010 
body $-1 $17 $-1 $18 #
body $-1 $19 $-1 $20 #
body $-1 $21 $-1 $22 #
body $-1 $23 $-1 $24 #
body $-1 $25 $-1 $26 #
body $-1 $27 $-1 $28 #
body $-1 $29 $-1 $30 #
body $-1 $31 $-1 $32 #
body $-1 $33 $-1 $34 #
body $-1 $35 $-1 $36 #
body $-1 $37 $-1 $38 #
body $-1 $39 $-1 $40 #
body $-1 $41 $-1 $42 #
body $-1 $43 $-1 $44 #
body $-1 $45 $-1 $46 #
body $-1 $47 $-1 $48 #
body $-1 $49 $-1 $50 #
lump $-1 $-1 $51 $0 #
transform $-1 1 0 0 0 1 0 0 0 1 60.835596789452801 28.216970841571783 7.7953827584534565 1 rotate no_reflect no_shear #
lump $-1 $-1 $52 $1 #
transform $-1 1 0 0 0 1 0 0 0 1 60.835596789452801 28.216970841571783 7.7953827584534565 1 rotate no_reflect no_shear #
lump $-1 $-1 $53 $2 #
transform $-1 1 0 0 0 1 0 0 0 1 60.835596789452801 28.216970841571783 7.7953827584534565 1 rotate no_reflect no_shear #
lump $-1 $-1 $54 $3 #
transform $-1 1 0 0 0 1 0 0 0 1 60.835596789452801 28.216970841571783 7.7953827584534565 1 rotate no_reflect no_shear #
lump $-1 $-1 $55 $4 #
transform $-1 1 0 0 0 1 0 0 0 1 60.835596789452801 28.216970841571783 7.7953827584534565 1 rotate no_reflect no_shear #
lump $-1 $-1 $56 $5 #
transform $-1 1 0 0 0 1 0 0 0 1 60.835596789452801 28.216970841571783 7.7953827584534565 1 rotate no_reflect no_shear #
lump $-1 $-1 $57 $6 #
transform $-1 1 0 0 0 1 0 0 0 1 60.835596789452801 28.216970841571783 7.7953827584534565 1 rotate no_reflect no_shear #
lump $-1 $-1 $58 $7 #
transform $-1 1 0 0 0 1 0 0 0 1 60.835596789452801 28.216970841571783 7.7953827584534565 1 rotate no_reflect no_shear #
lump $-1 $-1 $59 $8 #
transform $-1 1 0 0 0 1 0 0 0 1 60.835596789452801 28.216970841571783 7.7953827584534565 1 rotate no_reflect no_shear #
lump $-1 $-1 $60 $9 #
transform $-1 1 0 0 0 1 0 0 0 1 60.835596789452801 28.216970841571783 7.7953827584534565 1 rotate no_reflect no_shear #
lump $-1 $-1 $61 $10 #
transform $-1 1 0 0 0 1 0 0 0 1 60.835596789452801 28.216970841571783 7.7953827584534565 1 rotate no_reflect no_shear #
lump $-1 $-1 $62 $11 #
transform $-1 1 0 0 0 1 0 0 0 1 60.835596789452801 28.216970841571783 7.7953827584534565 1 rotate no_reflect no_shear #
lump $-1 $-1 $63 $12 #
transform $-1 1 0 0 0 1 0 0 0 1 60.835596789452801 28.216970841571783 7.7953827584534565 1 rotate no_reflect no_shear #
lump $-1 $-1 $64 $13 #
transform $-1 1 0 0 0 1 0 0 0 1 60.835596789452801 28.216970841571783 7.7953827584534565 1 rotate no_reflect no_shear #
lump $-1 $-1 $65 $14 #
transform $-1 1 0 0 0 1 0 0 0 1 60.835596789452801 28.216970841571783 7.7953827584534565 1 rotate no_reflect no_shear #
lump $-1 $-1 $66 $15 #
transform $-1 1 0 0 0 1 0 0 0 1 60.835596789452801 28.216970841571783 7.7953827584534565 1 rotate no_reflect no_shear #
lump $-1 $-1 $67 $16 #
transform $-1 1 0 0 0 1 0 0 0 1 60.835596789452801 28.216970841571783 7.7953827584534565 1 rotate no_reflect no_shear #
shell $-1 $-1 $-1 $68 $-1 $17 #
shell $-1 $-1 $-1 $69 $-1 $19 #
shell $-1 $-1 $-1 $70 $-1 $21 #
shell $-1 $-1 $-1 $71 $-1 $23 #
shell $-1 $-1 $-1 $72 $-1 $25 #
shell $-1 $-1 $-1 $73 $-1 $27 #
shell $-1 $-1 $-1 $74 $-1 $29 #
shell $-1 $-1 $-1 $75 $-1 $31 #
shell $-1 $-1 $-1 $76 $-1 $33 #
shell $-1 $-1 $-1 $77 $-1 $35 #
shell $-1 $-1 $-1 $78 $-1 $37 #
shell $-1 $-1 $-1 $79 $-1 $39 #
shell $-1 $-1 $-1 $80 $-1 $41 #
shell $-1 $-1 $-1 $81 $-1 $43 #
shell $-1 $-1 $-1 $82 $-1 $45 #
shell $-1 $-1 $-1 $83 $-1 $47 #
shell $-1 $-1 $-1 $84 $-1 $49 #
face $-1 $85 $86 $51 $-1 $87 forward single #
face $-1 $88 $89 $52 $-1 $90 forward single #
face $-1 $91 $92 $53 $-1 $93 reversed single #
face $-1 $94 $95 $54 $-1 $96 forward single #
face $-1 $97 $98 $55 $-1 $99 forward single #
face $-1 $100 $101 $56 $-1 $102 reversed single #
face $-1 $103 $104 $57 $-1 $105 forward single #
face $-1 $106 $107 $58 $-1 $108 forward single #
face $-1 $109 $110 $59 $-1 $111 reversed single #
face $-1 $112 $113 $60 $-1 $114 forward single #
face $-1 $115 $116 $61 $-1 $117 forward single #
face $-1 $118 $119 $62 $-1 $120 reversed single #
face $-1 $121 $122 $63 $-1 $123 forward single #
face $-1 $124 $125 $64 $-1 $126 forward single #
face $-1 $127 $128 $65 $-1 $129 reversed single #
face $-1 $130 $131 $66 $-1 $132 forward single #
face $-1 $133 $134 $67 $-1 $135 forward single #
face $-1 $136 $137 $51 $-1 $138 reversed single #
loop $-1 $-1 $139 $68 #
plane-surface $-1 0 0 7.7953827584534565 0 0 1 1 0 0 forward_v I I I I #
face $-1 $140 $141 $52 $-1 $142 reversed single #
loop $-1 $-1 $143 $69 #
plane-surface $-1 0 -24.02863993921142 2.140599212642865 0 0 1 1 0 0 forward_v I I I I #
face $-1 $144 $145 $53 $-1 $146 reversed single #
loop $-1 $-1 $147 $70 #
plane-surface $-1 84.782982679257998 14.795453403592891 174.11640825675943 0 1 0 0.79863551827123203 0 0.60181501223851219 forward_v I I I I #
face $-1 $148 $149 $54 $-1 $150 forward single #
loop $-1 $151 $152 $71 #
cone-surface $-1 58.038682079995993 18.630172671586859 4.8075702045766624 -0.79863551827123203 0 -0.60181501223851219 0.60181501223851219 0 -0.79863551827123203 1 I I 0 1 1 forward I I I I #
face $-1 $153 $154 $55 $-1 $155 forward single #
loop $-1 $156 $157 $72 #
cone-surface $-1 58.038682079995993 24.382251573577815 4.8075702045766624 -0.79863551827123203 0 -0.60181501223851219 0.60181501223851219 0 -0.79863551827123203 1 I I 0 1 1 forward I I I I #
face $-1 $158 $159 $56 $-1 $160 reversed single #
loop $-1 $-1 $161 $73 #
plane-surface $-1 -148.35852988790691 -17.525426748543385 86.967288528140301 0 1 0 -0.71933980857756763 0 0.69465836192734942 forward_v I I I I #
face $-1 $162 $163 $57 $-1 $164 forward single #
loop $-1 $165 $166 $74 #
cone-surface $-1 -57.858931236753193 -15.506844521011162 4.7405015481290338 0.71933980857756763 0 -0.69465836192734942 0.69465836192734942 0 0.71933980857756763 1 I I 0 1 1 forward I I I I #
face $-1 $167 $168 $58 $-1 $169 forward single #
loop $-1 $170 $171 $75 #
cone-surface $-1 -57.858931236753193 -12.478971179712833 4.7405015481290338 0.71933980857756763 0 -0.69465836192734942 0.69465836192734942 0 0.71933980857756763 1 I I 0 1 1 forward I I I I #
face $-1 $172 $173 $59 $-1 $174 reversed single #
loop $-1 $-1 $175 $76 #
plane-surface $-1 -148.35852988790691 -5.511106778937676 86.967288528140301 0 1 0 -0.71933980857756763 0 0.69465836192734942 forward_v I I I I #
face $-1 $176 $177 $60 $-1 $178 forward single #
loop $-1 $179 $180 $77 #
cone-surface $-1 -57.858931236753193 -3.4925245514054524 4.7405015481290338 0.71933980857756763 0 -0.69465836192734942 0.69465836192734942 0 0.71933980857756763 1 I I 0 1 1 forward I I I I #
face $-1 $181 $182 $61 $-1 $183 forward single #
loop $-1 $184 $185 $78 #
cone-surface $-1 -57.858931236753193 -0.46465121010712451 4.7405015481290338 0.71933980857756763 0 -0.69465836192734942 0.69465836192734942 0 0.71933980857756763 1 I I 0 1 1 forward I I I I #
face $-1 $186 $187 $62 $-1 $188 reversed single #
loop $-1 $-1 $189 $79 #
plane-surface $-1 -148.35852988790691 6.5032131906680322 86.967288528140301 0 1 0 -0.71933980857756763 0 0.69465836192734942 forward_v I I I I #
face $-1 $190 $191 $63 $-1 $192 forward single #
loop $-1 $193 $194 $80 #
cone-surface $-1 -57.858931236753193 8.5217954182002593 4.7405015481290338 0.71933980857756763 0 -0.69465836192734942 0.69465836192734942 0 0.71933980857756763 1 I I 0 1 1 forward I I I I #
face $-1 $195 $196 $64 $-1 $197 forward single #
loop $-1 $198 $199 $81 #
cone-surface $-1 -57.858931236753193 11.549668759498584 4.7405015481290338 0.71933980857756763 0 -0.69465836192734942 0.69465836192734942 0 0.71933980857756763 1 I I 0 1 1 forward I I I I #
face $-1 $200 $201 $65 $-1 $202 reversed single #
loop $-1 $-1 $203 $82 #
plane-surface $-1 -148.35852988790691 18.517533160273739 86.967288528140301 0 1 0 -0.71933980857756763 0 0.69465836192734942 forward_v I I I I #
face $-1 $204 $205 $66 $-1 $206 forward single #
loop $-1 $207 $208 $83 #
cone-surface $-1 -57.858931236753193 20.536115387805967 4.7405015481290338 0.71933980857756763 0 -0.69465836192734942 0.69465836192734942 0 0.71933980857756763 1 I I 0 1 1 forward I I I I #
face $-1 $209 $210 $67 $-1 $211 forward single #
loop $-1 $212 $213 $84 #
cone-surface $-1 -57.858931236753193 23.563988729104292 4.7405015481290338 0.71933980857756763 0 -0.69465836192734942 0.69465836192734942 0 0.71933980857756763 1 I I 0 1 1 forward I I I I #
face $-1 $214 $215 $51 $-1 $216 reversed single #
loop $-1 $-1 $217 $85 #
plane-surface $-1 0 0 -7.7953827584534565 0 0 1 1 0 0 forward_v I I I I #
coedge $-1 $218 $219 $220 $221 forward $86 $-1 #
face $-1 $222 $223 $52 $-1 $224 reversed single #
loop $-1 $-1 $225 $88 #
plane-surface $-1 0 -24.02863993921142 -2.5308255979421865 0 0 1 1 0 0 forward_v I I I I #
coedge $-1 $226 $227 $228 $229 reversed $89 $-1 #
face $-1 $230 $231 $53 $-1 $232 forward single #
loop $-1 $-1 $233 $91 #
plane-surface $-1 -12.387954063310673 21.506212122582337 100.89285740399596 0.79863551827123203 0 0.60181501223851219 0.60181501223851219 0 -0.79863551827123203 forward_v I I I I #
coedge $-1 $234 $235 $236 $237 reversed $92 $-1 #
face $-1 $-1 $238 $54 $-1 $239 forward single #
loop $-1 $240 $241 $94 #
cone-surface $-1 56.377236498343869 18.630172671586859 3.5555811930936869 -0.79863551827123203 0 -0.60181501223851219 0.3009075061192561 0 -0.39931775913561601 1 I I -0.70710678118654724 0.70710678118654791 0.5 forward I I I I #
loop $-1 $-1 $242 $71 #
coedge $-1 $152 $152 $243 $244 reversed $95 $-1 #
face $-1 $-1 $245 $55 $-1 $246 forward single #
loop $-1 $247 $248 $97 #
cone-surface $-1 56.377236498343869 24.382251573577815 3.5555811930936869 -0.79863551827123203 0 -0.60181501223851219 0.3009075061192561 0 -0.39931775913561601 1 I I -0.70710678118654724 0.70710678118654791 0.5 forward I I I I #
loop $-1 $-1 $249 $72 #
coedge $-1 $157 $157 $250 $251 reversed $98 $-1 #
face $-1 $252 $253 $56 $-1 $254 reversed single #
loop $-1 $-1 $255 $100 #
plane-surface $-1 -60.835596789452779 -13.992907850361998 2.4473765028723022 -0.71933980857756763 0 0.69465836192734942 0.69465836192734942 0 0.71933980857756763 forward_v I I I I #
coedge $-1 $256 $257 $258 $259 reversed $101 $-1 #
face $-1 $-1 $260 $57 $-1 $261 forward single #
loop $-1 $262 $263 $103 #
cone-surface $-1 -57.104850522780744 -15.506844521011162 4.0122942846315066 0.71933980857756763 0 -0.69465836192734942 0.34732918096367471 0 0.35966990428878381 1 I I -0.70710678118654746 0.70710678118654746 0.5 forward I I I I #
loop $-1 $-1 $264 $74 #
coedge $-1 $166 $166 $265 $266 reversed $104 $-1 #
face $-1 $-1 $267 $58 $-1 $268 forward single #
loop $-1 $269 $270 $106 #
cone-surface $-1 -57.104850522780744 -12.478971179712833 4.0122942846315066 0.71933980857756763 0 -0.69465836192734942 0.34732918096367471 0 0.35966990428878381 1 I I -0.70710678118654746 0.70710678118654746 0.5 forward I I I I #
loop $-1 $-1 $271 $75 #
coedge $-1 $171 $171 $272 $273 reversed $107 $-1 #
face $-1 $274 $275 $59 $-1 $276 reversed single #
loop $-1 $-1 $277 $109 #
plane-surface $-1 -60.835596789452779 -1.9785878807562902 2.4473765028723022 -0.71933980857756763 0 0.69465836192734942 0.69465836192734942 0 0.71933980857756763 forward_v I I I I #
coedge $-1 $278 $279 $280 $281 reversed $110 $-1 #
face $-1 $-1 $282 $60 $-1 $283 forward single #
loop $-1 $284 $285 $112 #
cone-surface $-1 -57.104850522780744 -3.4925245514054524 4.0122942846315066 0.71933980857756763 0 -0.69465836192734942 0.34732918096367471 0 0.35966990428878381 1 I I -0.70710678118654746 0.70710678118654746 0.5 forward I I I I #
loop $-1 $-1 $286 $77 #
coedge $-1 $180 $180 $287 $288 reversed $113 $-1 #
face $-1 $-1 $289 $61 $-1 $290 forward single #
loop $-1 $291 $292 $115 #
cone-surface $-1 -57.104850522780744 -0.46465121010712451 4.0122942846315066 0.71933980857756763 0 -0.69465836192734942 0.34732918096367471 0 0.35966990428878381 1 I I -0.70710678118654746 0.70710678118654746 0.5 forward I I I I #
loop $-1 $-1 $293 $78 #
coedge $-1 $185 $185 $294 $295 reversed $116 $-1 #
face $-1 $296 $297 $62 $-1 $298 reversed single #
loop $-1 $-1 $299 $118 #
plane-surface $-1 -60.835596789452779 10.035732088849418 2.4473765028723022 -0.71933980857756763 0 0.69465836192734942 0.69465836192734942 0 0.71933980857756763 forward_v I I I I #
coedge $-1 $300 $301 $302 $303 reversed $119 $-1 #
face $-1 $-1 $304 $63 $-1 $305 forward single #
loop $-1 $306 $307 $121 #
cone-surface $-1 -57.104850522780744 8.5217954182002593 4.0122942846315066 0.71933980857756763 0 -0.69465836192734942 0.34732918096367471 0 0.35966990428878381 1 I I -0.70710678118654746 0.70710678118654746 0.5 forward I I I I #
loop $-1 $-1 $308 $80 #
coedge $-1 $194 $194 $309 $310 reversed $122 $-1 #
face $-1 $-1 $311 $64 $-1 $312 forward single #
loop $-1 $313 $314 $124 #
cone-surface $-1 -57.104850522780744 11.549668759498584 4.0122942846315066 0.71933980857756763 0 -0.69465836192734942 0.34732918096367471 0 0.35966990428878381 1 I I -0.70710678118654746 0.70710678118654746 0.5 forward I I I I #
loop $-1 $-1 $315 $81 #
coedge $-1 $199 $199 $316 $317 reversed $125 $-1 #
face $-1 $318 $319 $65 $-1 $320 reversed single #
loop $-1 $-1 $321 $127 #
plane-surface $-1 -60.835596789452779 22.050052058455126 2.4473765028723022 -0.71933980857756763 0 0.69465836192734942 0.69465836192734942 0 0.71933980857756763 forward_v I I I I #
coedge $-1 $322 $323 $324 $325 reversed $128 $-1 #
face $-1 $-1 $326 $66 $-1 $327 forward single #
loop $-1 $328 $329 $130 #
cone-surface $-1 -57.104850522780744 20.536115387805967 4.0122942846315066 0.71933980857756763 0 -0.69465836192734942 0.34732918096367471 0 0.35966990428878381 1 I I -0.70710678118654746 0.70710678118654746 0.5 forward I I I I #
loop $-1 $-1 $330 $83 #
coedge $-1 $208 $208 $331 $332 reversed $131 $-1 #
face $-1 $-1 $333 $67 $-1 $334 forward single #
loop $-1 $335 $336 $133 #
cone-surface $-1 -57.104850522780744 23.563988729104292 4.0122942846315066 0.71933980857756763 0 -0.69465836192734942 0.34732918096367471 0 0.35966990428878381 1 I I -0.70710678118654746 0.70710678118654746 0.5 forward I I I I #
loop $-1 $-1 $337 $84 #
coedge $-1 $213 $213 $338 $339 reversed $134 $-1 #
face $-1 $340 $341 $51 $-1 $342 reversed single #
loop $-1 $-1 $343 $136 #
plane-surface $-1 0 -28.216970841571783 0 0 1 0 0 0 1 forward_v I I I I #
coedge $-1 $344 $345 $346 $347 forward $137 $-1 #
coedge $-1 $348 $139 $349 $350 forward $86 $-1 #
coedge $-1 $139 $348 $351 $352 forward $86 $-1 #
coedge $-1 $353 $354 $139 $221 reversed $355 $-1 #
edge $-1 $356 -28.216970841571783 $357 28.216970841571783 $220 $358 forward 7 unknown #
face $-1 $359 $360 $52 $-1 $361 reversed single #
loop $-1 $-1 $362 $140 #
plane-surface $-1 0 -19.840309036851057 -0.19511319264966076 0 -1 0 0 0 -1 forward_v I I I I #
coedge $-1 $363 $364 $365 $366 reversed $141 $-1 #
coedge $-1 $367 $143 $368 $369 forward $89 $-1 #
coedge $-1 $143 $367 $370 $371 reversed $89 $-1 #
coedge $-1 $372 $373 $143 $229 forward $374 $-1 #
edge $-1 $375 7.8259890672453469 $376 16.202650871966071 $228 $377 forward 7 unknown #
face $-1 $378 $379 $53 $-1 $380 reversed single #
loop $-1 $-1 $381 $144 #
plane-surface $-1 0 0 7.7953827584534565 0 0 1 1 0 0 forward_v I I I I #
coedge $-1 $382 $383 $384 $385 reversed $145 $-1 #
coedge $-1 $235 $147 $386 $387 reversed $92 $-1 #
coedge $-1 $147 $234 $382 $388 reversed $92 $-1 #
coedge $-1 $384 $389 $147 $237 forward $379 $-1 #
edge $-1 $390 79.262821369926257 $391 83.336283466952452 $236 $392 forward 7 unknown #
loop $-1 $-1 $243 $148 #
plane-surface $-1 -12.387954063310673 21.506212122582337 100.89285740399596 0.79863551827123203 0 0.60181501223851219 0.60181501223851219 0 -0.79863551827123203 forward_v I I I I #
loop $-1 $-1 $393 $94 #
coedge $-1 $241 $241 $242 $394 reversed $149 $-1 #
coedge $-1 $242 $242 $241 $394 forward $151 $-1 #
coedge $-1 $243 $243 $152 $244 forward $238 $-1 #
edge $-1 $395 0 $395 6.2831853071796004 $243 $396 forward 7 unknown #
loop $-1 $-1 $250 $153 #
plane-surface $-1 -12.387954063310673 21.506212122582337 100.89285740399596 0.79863551827123203 0 0.60181501223851219 0.60181501223851219 0 -0.79863551827123203 forward_v I I I I #
loop $-1 $-1 $397 $97 #
coedge $-1 $248 $248 $249 $398 reversed $154 $-1 #
coedge $-1 $249 $249 $248 $398 forward $156 $-1 #
coedge $-1 $250 $250 $157 $251 forward $245 $-1 #
edge $-1 $399 0 $399 6.2831853071796004 $250 $400 forward 7 unknown #
face $-1 $401 $402 $56 $-1 $403 reversed single #
loop $-1 $-1 $404 $158 #
plane-surface $-1 -148.35852988790691 -10.460388952180612 86.967288528140301 0 -1 0 0.71933980857756763 0 -0.69465836192734942 forward_v I I I I #
coedge $-1 $405 $406 $407 $408 reversed $159 $-1 #
coedge $-1 $257 $161 $409 $410 reversed $101 $-1 #
coedge $-1 $161 $256 $405 $411 reversed $101 $-1 #
coedge $-1 $407 $412 $161 $259 forward $413 $-1 #
edge $-1 $414 13.343668154500655 $415 18.50817764053258 $258 $416 forward 7 unknown #
loop $-1 $-1 $265 $162 #
plane-surface $-1 -60.835596789452779 -13.992907850361998 2.4473765028723022 -0.71933980857756763 0 0.69465836192734942 0.69465836192734942 0 0.71933980857756763 forward_v I I I I #
loop $-1 $-1 $417 $103 #
coedge $-1 $263 $263 $264 $418 reversed $163 $-1 #
coedge $-1 $264 $264 $263 $418 forward $165 $-1 #
coedge $-1 $265 $265 $166 $266 forward $260 $-1 #
edge $-1 $419 0 $419 6.2831853071796004 $265 $420 forward 7 unknown #
loop $-1 $-1 $272 $167 #
plane-surface $-1 -60.835596789452779 -13.992907850361998 2.4473765028723022 -0.71933980857756763 0 0.69465836192734942 0.69465836192734942 0 0.71933980857756763 forward_v I I I I #
loop $-1 $-1 $421 $106 #
coedge $-1 $270 $270 $271 $422 reversed $168 $-1 #
coedge $-1 $271 $271 $270 $422 forward $170 $-1 #
coedge $-1 $272 $272 $171 $273 forward $267 $-1 #
edge $-1 $423 0 $423 6.2831853071796004 $272 $424 forward 7 unknown #
face $-1 $425 $426 $59 $-1 $427 forward single #
loop $-1 $-1 $428 $172 #
plane-surface $-1 -148.35852988790691 1.5539310174250955 86.967288528140301 0 -1 0 0.71933980857756763 0 -0.69465836192734942 forward_v I I I I #
coedge $-1 $429 $430 $431 $432 reversed $173 $-1 #
coedge $-1 $279 $175 $433 $434 reversed $110 $-1 #
coedge $-1 $175 $278 $429 $435 reversed $110 $-1 #
coedge $-1 $431 $436 $175 $281 forward $426 $-1 #
edge $-1 $437 13.343668154500655 $438 18.50817764053258 $280 $439 forward 7 unknown #
loop $-1 $-1 $287 $176 #
plane-surface $-1 -60.835596789452779 -1.9785878807562902 2.4473765028723022 -0.71933980857756763 0 0.69465836192734942 0.69465836192734942 0 0.71933980857756763 forward_v I I I I #
loop $-1 $-1 $440 $112 #
coedge $-1 $285 $285 $286 $441 reversed $177 $-1 #
coedge $-1 $286 $286 $285 $441 forward $179 $-1 #
coedge $-1 $287 $287 $180 $288 forward $282 $-1 #
edge $-1 $442 0 $442 6.2831853071796004 $287 $443 forward 7 unknown #
loop $-1 $-1 $294 $181 #
plane-surface $-1 -60.835596789452779 -1.9785878807562902 2.4473765028723022 -0.71933980857756763 0 0.69465836192734942 0.69465836192734942 0 0.71933980857756763 forward_v I I I I #
loop $-1 $-1 $444 $115 #
coedge $-1 $292 $292 $293 $445 reversed $182 $-1 #
coedge $-1 $293 $293 $292 $445 forward $184 $-1 #
coedge $-1 $294 $294 $185 $295 forward $289 $-1 #
edge $-1 $446 0 $446 6.2831853071796004 $294 $447 forward 7 unknown #
face $-1 $448 $449 $62 $-1 $450 forward single #
loop $-1 $-1 $451 $186 #
plane-surface $-1 -148.35852988790691 13.568250987030805 86.967288528140301 0 -1 0 0.71933980857756763 0 -0.69465836192734942 forward_v I I I I #
coedge $-1 $452 $453 $454 $455 reversed $187 $-1 #
coedge $-1 $301 $189 $456 $457 reversed $119 $-1 #
coedge $-1 $189 $300 $452 $458 reversed $119 $-1 #
coedge $-1 $454 $459 $189 $303 forward $449 $-1 #
edge $-1 $460 13.343668154500655 $461 18.50817764053258 $302 $462 forward 7 unknown #
loop $-1 $-1 $309 $190 #
plane-surface $-1 -60.835596789452779 10.035732088849418 2.4473765028723022 -0.71933980857756763 0 0.69465836192734942 0.69465836192734942 0 0.71933980857756763 forward_v I I I I #
loop $-1 $-1 $463 $121 #
coedge $-1 $307 $307 $308 $464 reversed $191 $-1 #
coedge $-1 $308 $308 $307 $464 forward $193 $-1 #
coedge $-1 $309 $309 $194 $310 forward $304 $-1 #
edge $-1 $465 0 $465 6.2831853071796004 $309 $466 forward 7 unknown #
loop $-1 $-1 $316 $195 #
plane-surface $-1 -60.835596789452779 10.035732088849418 2.4473765028723022 -0.71933980857756763 0 0.69465836192734942 0.69465836192734942 0 0.71933980857756763 forward_v I I I I #
loop $-1 $-1 $467 $124 #
coedge $-1 $314 $314 $315 $468 reversed $196 $-1 #
coedge $-1 $315 $315 $314 $468 forward $198 $-1 #
coedge $-1 $316 $316 $199 $317 forward $311 $-1 #
edge $-1 $469 0 $469 6.2831853071796004 $316 $470 forward 7 unknown #
face $-1 $471 $472 $65 $-1 $473 forward single #
loop $-1 $-1 $474 $200 #
plane-surface $-1 -148.35852988790691 25.582570956636513 86.967288528140301 0 -1 0 0.71933980857756763 0 -0.69465836192734942 forward_v I I I I #
coedge $-1 $475 $476 $477 $478 reversed $201 $-1 #
coedge $-1 $323 $203 $479 $480 reversed $128 $-1 #
coedge $-1 $203 $322 $475 $481 reversed $128 $-1 #
coedge $-1 $477 $482 $203 $325 forward $472 $-1 #
edge $-1 $483 13.343668154500655 $484 18.50817764053258 $324 $485 forward 7 unknown #
loop $-1 $-1 $331 $204 #
plane-surface $-1 -60.835596789452779 22.050052058455126 2.4473765028723022 -0.71933980857756763 0 0.69465836192734942 0.69465836192734942 0 0.71933980857756763 forward_v I I I I #
loop $-1 $-1 $486 $130 #
coedge $-1 $329 $329 $330 $487 reversed $205 $-1 #
coedge $-1 $330 $330 $329 $487 forward $207 $-1 #
coedge $-1 $331 $331 $208 $332 forward $326 $-1 #
edge $-1 $488 0 $488 6.2831853071796004 $331 $489 forward 7 unknown #
loop $-1 $-1 $338 $209 #
plane-surface $-1 -60.835596789452779 22.050052058455126 2.4473765028723022 -0.71933980857756763 0 0.69465836192734942 0.69465836192734942 0 0.71933980857756763 forward_v I I I I #
loop $-1 $-1 $490 $133 #
coedge $-1 $336 $336 $337 $491 reversed $210 $-1 #
coedge $-1 $337 $337 $336 $491 forward $212 $-1 #
coedge $-1 $338 $338 $213 $339 forward $333 $-1 #
edge $-1 $492 0 $492 6.2831853071796004 $338 $493 forward 7 unknown #
face $-1 $494 $495 $51 $-1 $496 reversed single #
loop $-1 $-1 $497 $214 #
plane-surface $-1 -60.835596789452801 0 0 1 0 0 0 0 -1 forward_v I I I I #
coedge $-1 $498 $351 $499 $500 forward $215 $-1 #
coedge $-1 $501 $217 $498 $502 forward $137 $-1 #
coedge $-1 $217 $501 $503 $504 forward $137 $-1 #
coedge $-1 $354 $353 $217 $347 reversed $355 $-1 #
edge $-1 $505 -28.216970841571783 $506 28.216970841571783 $346 $507 forward 7 unknown #
coedge $-1 $219 $218 $508 $509 forward $86 $-1 #
coedge $-1 $510 $511 $218 $350 reversed $495 $-1 #
edge $-1 $357 -60.835596789452801 $512 60.835596789452801 $349 $513 forward 7 unknown #
coedge $-1 $343 $514 $219 $352 reversed $215 $-1 #
edge $-1 $515 -60.835596789452801 $356 60.835596789452801 $351 $516 forward 7 unknown #
coedge $-1 $346 $220 $514 $517 forward $355 $-1 #
coedge $-1 $220 $346 $510 $518 reversed $355 $-1 #
loop $-1 $-1 $353 $494 #
vertex $-1 $221 $519 #
vertex $-1 $221 $520 #
straight-curve $-1 60.835596789452801 0 7.7953827584534565 0 1 0 I I #
face $-1 $521 $522 $52 $-1 $523 reversed single #
loop $-1 $-1 $524 $222 #
plane-surface $-1 -60.835596789452801 0 0 1 0 0 0 0 -1 forward_v I I I I #
coedge $-1 $525 $368 $373 $526 reversed $223 $-1 #
coedge $-1 $527 $225 $528 $529 reversed $141 $-1 #
coedge $-1 $225 $527 $525 $530 forward $141 $-1 #
coedge $-1 $373 $372 $225 $366 forward $374 $-1 #
edge $-1 $531 -16.202650871966071 $532 -7.8259890672453469 $365 $533 forward 7 unknown #
coedge $-1 $227 $226 $524 $534 reversed $89 $-1 #
coedge $-1 $362 $535 $226 $369 reversed $223 $-1 #
edge $-1 $375 -60.835596789452801 $536 60.835596789452801 $368 $537 forward 7 unknown #
coedge $-1 $538 $539 $227 $371 forward $522 $-1 #
edge $-1 $376 -60.835596789452801 $540 60.835596789452801 $370 $541 forward 7 unknown #
coedge $-1 $365 $228 $539 $542 forward $374 $-1 #
coedge $-1 $228 $365 $362 $526 forward $374 $-1 #
loop $-1 $-1 $228 $521 #
vertex $-1 $229 $543 #
vertex $-1 $542 $544 #
straight-curve $-1 60.835596789452801 -12.01431996960571 2.140599212642865 0 -1 0 I I #
face $-1 $-1 $545 $53 $-1 $546 reversed single #
loop $-1 $-1 $236 $230 #
plane-surface $-1 60.835596789452801 0 0 -1 0 0 0 0 1 forward_v I I I I #
coedge $-1 $386 $547 $548 $549 forward $231 $-1 #
coedge $-1 $548 $233 $235 $388 forward $145 $-1 #
coedge $-1 $233 $548 $550 $551 reversed $145 $-1 #
coedge $-1 $552 $236 $233 $385 forward $379 $-1 #
edge $-1 $391 4.0423473423017224 $553 17.463864780280616 $384 $554 forward 7 unknown #
coedge $-1 $555 $381 $234 $387 forward $231 $-1 #
edge $-1 $556 15.374531675943174 $390 18.444105449823802 $386 $557 forward 7 unknown #
edge $-1 $391 -121.67119357890563 $556 -116.57066648759391 $235 $558 forward 7 unknown #
coedge $-1 $236 $552 $555 $559 reversed $379 $-1 #
vertex $-1 $559 $560 #
vertex $-1 $237 $561 #
straight-curve $-1 60.835596789452801 14.795453403592891 87.058204128379714 0 0 -1 I I #
coedge $-1 $393 $393 $-1 $562 reversed $240 $-1 #
edge $-1 $563 0 $563 6.2831853071796004 $241 $564 forward 7 unknown #
vertex $-1 $244 $565 #
ellipse-curve $-1 59.300809902512484 18.630172671586859 5.7586517099403718 0.79863551827123203 0 0.60181501223851219 0.60181501223851219 0 -0.79863551827123203 1 I I #
coedge $-1 $397 $397 $-1 $566 reversed $247 $-1 #
edge $-1 $567 0 $567 6.2831853071796004 $248 $568 forward 7 unknown #
vertex $-1 $251 $569 #
ellipse-curve $-1 59.300809902512484 24.382251573577815 5.7586517099403718 0.79863551827123203 0 0.60181501223851219 0.60181501223851219 0 -0.79863551827123203 1 I I #
face $-1 $-1 $413 $56 $-1 $570 forward single #
loop $-1 $-1 $571 $252 #
plane-surface $-1 -60.835596789452801 0 0 1 0 0 0 0 -1 forward_v I I I I #
coedge $-1 $572 $573 $574 $575 reversed $253 $-1 #
coedge $-1 $576 $255 $257 $411 forward $159 $-1 #
coedge $-1 $255 $576 $572 $577 forward $159 $-1 #
coedge $-1 $574 $258 $255 $408 forward $413 $-1 #
edge $-1 $415 -10.528972823362386 $578 -3.4639350269996125 $407 $579 forward 7 unknown #
coedge $-1 $580 $581 $256 $410 forward $402 $-1 #
edge $-1 $582 -41.03626776119787 $414 -35.688261505616694 $409 $583 forward 7 unknown #
edge $-1 $415 -7.4346034958865612 $582 3.0780085947320026e-014 $257 $584 forward 7 unknown #
coedge $-1 $258 $574 $580 $585 forward $413 $-1 #
loop $-1 $-1 $574 $401 #
vertex $-1 $410 $586 #
vertex $-1 $259 $587 #
straight-curve $-1 -74.179264943953456 -17.525426748543385 7.7953827584534565 1 0 0 I I #
coedge $-1 $417 $417 $-1 $588 reversed $262 $-1 #
edge $-1 $589 0 $589 6.2831853071796004 $263 $590 forward 7 unknown #
vertex $-1 $266 $591 #
ellipse-curve $-1 -58.253342046436835 -15.506844521011162 5.1213796306628687 -0.71933980857756763 0 0.69465836192734942 0.69465836192734942 0 0.71933980857756763 1 I I #
coedge $-1 $421 $421 $-1 $592 reversed $269 $-1 #
edge $-1 $593 0 $593 6.2831853071796004 $270 $594 forward 7 unknown #
vertex $-1 $273 $595 #
ellipse-curve $-1 -58.253342046436835 -12.478971179712833 5.1213796306628687 -0.71933980857756763 0 0.69465836192734942 0.69465836192734942 0 0.71933980857756763 1 I I #
face $-1 $-1 $596 $59 $-1 $597 reversed single #
loop $-1 $-1 $280 $274 #
plane-surface $-1 0 0 7.7953827584534565 0 0 1 1 0 0 forward_v I I I I #
coedge $-1 $598 $599 $600 $601 reversed $275 $-1 #
coedge $-1 $602 $277 $279 $435 forward $173 $-1 #
coedge $-1 $277 $602 $598 $603 forward $173 $-1 #
coedge $-1 $600 $280 $277 $432 forward $426 $-1 #
edge $-1 $438 -4.5218128385595309 $604 2.5432249578032406 $431 $605 forward 7 unknown #
coedge $-1 $606 $607 $278 $434 forward $596 $-1 #
edge $-1 $608 -41.03626776119787 $437 -35.688261505616694 $433 $609 forward 7 unknown #
edge $-1 $438 -7.4346034958865612 $608 3.0780085947320026e-014 $279 $610 forward 7 unknown #
coedge $-1 $280 $600 $606 $611 forward $426 $-1 #
vertex $-1 $281 $612 #
vertex $-1 $281 $613 #
straight-curve $-1 -74.179264943953456 -5.511106778937676 7.7953827584534565 1 0 0 I I #
coedge $-1 $440 $440 $-1 $614 reversed $284 $-1 #
edge $-1 $615 0 $615 6.2831853071796004 $285 $616 forward 7 unknown #
vertex $-1 $288 $617 #
ellipse-curve $-1 -58.253342046436835 -3.4925245514054524 5.1213796306628687 -0.71933980857756763 0 0.69465836192734942 0.69465836192734942 0 0.71933980857756763 1 I I #
coedge $-1 $444 $444 $-1 $618 reversed $291 $-1 #
edge $-1 $619 0 $619 6.2831853071796004 $292 $620 forward 7 unknown #
vertex $-1 $295 $621 #
ellipse-curve $-1 -58.253342046436835 -0.46465121010712451 5.1213796306628687 -0.71933980857756763 0 0.69465836192734942 0.69465836192734942 0 0.71933980857756763 1 I I #
face $-1 $-1 $622 $62 $-1 $623 reversed single #
loop $-1 $-1 $302 $296 #
plane-surface $-1 0 0 7.7953827584534565 0 0 1 1 0 0 forward_v I I I I #
coedge $-1 $624 $625 $626 $627 reversed $297 $-1 #
coedge $-1 $628 $299 $301 $458 forward $187 $-1 #
coedge $-1 $299 $628 $624 $629 forward $187 $-1 #
coedge $-1 $626 $302 $299 $455 forward $449 $-1 #
edge $-1 $461 1.4853471462433232 $630 8.5503849426060956 $454 $631 forward 7 unknown #
coedge $-1 $632 $633 $300 $457 forward $622 $-1 #
edge $-1 $634 -41.03626776119787 $460 -35.688261505616694 $456 $635 forward 7 unknown #
edge $-1 $461 -7.4346034958865612 $634 3.0780085947320026e-014 $301 $636 forward 7 unknown #
coedge $-1 $302 $626 $632 $637 forward $449 $-1 #
vertex $-1 $303 $638 #
vertex $-1 $303 $639 #
straight-curve $-1 -74.179264943953456 6.5032131906680322 7.7953827584534565 1 0 0 I I #
coedge $-1 $463 $463 $-1 $640 reversed $306 $-1 #
edge $-1 $641 0 $641 6.2831853071796004 $307 $642 forward 7 unknown #
vertex $-1 $310 $643 #
ellipse-curve $-1 -58.253342046436835 8.5217954182002593 5.1213796306628687 -0.71933980857756763 0 0.69465836192734942 0.69465836192734942 0 0.71933980857756763 1 I I #
coedge $-1 $467 $467 $-1 $644 reversed $313 $-1 #
edge $-1 $645 0 $645 6.2831853071796004 $314 $646 forward 7 unknown #
vertex $-1 $317 $647 #
ellipse-curve $-1 -58.253342046436835 11.549668759498584 5.1213796306628687 -0.71933980857756763 0 0.69465836192734942 0.69465836192734942 0 0.71933980857756763 1 I I #
face $-1 $-1 $648 $65 $-1 $649 reversed single #
loop $-1 $-1 $324 $318 #
plane-surface $-1 0 0 7.7953827584534565 0 0 1 1 0 0 forward_v I I I I #
coedge $-1 $650 $651 $652 $653 reversed $319 $-1 #
coedge $-1 $654 $321 $323 $481 forward $201 $-1 #
coedge $-1 $321 $654 $650 $655 forward $201 $-1 #
coedge $-1 $652 $324 $321 $478 forward $472 $-1 #
edge $-1 $484 7.4925071310461764 $656 14.55754492740895 $477 $657 forward 7 unknown #
coedge $-1 $658 $659 $322 $480 forward $648 $-1 #
edge $-1 $660 -41.03626776119787 $483 -35.688261505616694 $479 $661 forward 7 unknown #
edge $-1 $484 -7.4346034958865612 $660 3.0780085947320026e-014 $323 $662 forward 7 unknown #
coedge $-1 $324 $652 $658 $663 forward $472 $-1 #
vertex $-1 $325 $664 #
vertex $-1 $325 $665 #
straight-curve $-1 -74.179264943953456 18.517533160273739 7.7953827584534565 1 0 0 I I #
coedge $-1 $486 $486 $-1 $666 reversed $328 $-1 #
edge $-1 $667 0 $667 6.2831853071796004 $329 $668 forward 7 unknown #
vertex $-1 $332 $669 #
ellipse-curve $-1 -58.253342046436835 20.536115387805967 5.1213796306628687 -0.71933980857756763 0 0.69465836192734942 0.69465836192734942 0 0.71933980857756763 1 I I #
coedge $-1 $490 $490 $-1 $670 reversed $335 $-1 #
edge $-1 $671 0 $671 6.2831853071796004 $336 $672 forward 7 unknown #
vertex $-1 $339 $673 #
ellipse-curve $-1 -58.253342046436835 23.563988729104292 5.1213796306628687 -0.71933980857756763 0 0.69465836192734942 0.69465836192734942 0 0.71933980857756763 1 I I #
face $-1 $-1 $355 $51 $-1 $674 reversed single #
loop $-1 $-1 $510 $340 #
plane-surface $-1 0 28.216970841571783 0 0 -1 0 0 0 -1 forward_v I I I I #
coedge $-1 $675 $508 $511 $676 forward $341 $-1 #
coedge $-1 $514 $343 $344 $502 reversed $215 $-1 #
coedge $-1 $508 $675 $343 $500 reversed $341 $-1 #
edge $-1 $515 -7.7953827584534565 $677 7.7953827584534565 $499 $678 forward 7 unknown #
coedge $-1 $345 $344 $675 $679 forward $137 $-1 #
edge $-1 $506 -60.835596789452801 $677 60.835596789452801 $498 $680 forward 7 unknown #
coedge $-1 $511 $510 $345 $504 reversed $495 $-1 #
edge $-1 $681 -60.835596789452801 $505 60.835596789452801 $503 $682 forward 7 unknown #
vertex $-1 $347 $683 #
vertex $-1 $517 $684 #
straight-curve $-1 60.835596789452801 0 -7.7953827584534565 0 -1 0 I I #
coedge $-1 $497 $499 $348 $509 reversed $341 $-1 #
edge $-1 $512 -28.216970841571783 $515 28.216970841571783 $508 $685 forward 7 unknown #
coedge $-1 $503 $349 $354 $518 forward $495 $-1 #
coedge $-1 $349 $503 $497 $676 reversed $495 $-1 #
vertex $-1 $350 $686 #
straight-curve $-1 0 28.216970841571783 7.7953827584534565 -1 0 0 I I #
coedge $-1 $351 $498 $353 $517 reversed $215 $-1 #
vertex $-1 $509 $687 #
straight-curve $-1 0 -28.216970841571783 7.7953827584534565 1 0 0 I I #
edge $-1 $356 -7.7953827584534565 $506 7.7953827584534565 $353 $688 forward 7 unknown #
edge $-1 $357 -7.7953827584534565 $505 7.7953827584534565 $354 $689 forward 7 unknown #
point $-1 60.835596789452801 -28.216970841571783 7.7953827584534565 #
point $-1 60.835596789452801 28.216970841571783 7.7953827584534565 #
face $-1 $-1 $374 $52 $-1 $690 reversed single #
loop $-1 $-1 $370 $359 #
plane-surface $-1 0 -28.216970841571783 0 0 1 0 0 0 1 forward_v I I I I #
coedge $-1 $691 $692 $367 $534 forward $360 $-1 #
coedge $-1 $535 $362 $364 $530 reversed $223 $-1 #
edge $-1 $532 -2.4332690016173562 $375 2.2381558089676954 $373 $693 forward 7 unknown #
coedge $-1 $364 $363 $694 $695 reversed $141 $-1 #
coedge $-1 $539 $538 $363 $529 forward $522 $-1 #
edge $-1 $696 -60.835596789452801 $531 60.835596789452801 $528 $697 forward 7 unknown #
edge $-1 $698 -60.835596789452801 $532 60.835596789452801 $525 $699 forward 7 unknown #
vertex $-1 $529 $700 #
vertex $-1 $366 $701 #
straight-curve $-1 60.835596789452801 -12.01431996960571 -2.5308255979421865 0 1 0 I I #
edge $-1 $540 -16.202650871966071 $536 -7.8259890672453469 $524 $702 forward 7 unknown #
coedge $-1 $368 $525 $691 $703 reversed $223 $-1 #
vertex $-1 $534 $704 #
straight-curve $-1 0 -19.840309036851057 2.140599212642865 -1 0 0 I I #
coedge $-1 $528 $370 $692 $705 forward $522 $-1 #
coedge $-1 $370 $528 $372 $542 reversed $522 $-1 #
vertex $-1 $705 $706 #
straight-curve $-1 0 -28.216970841571783 2.140599212642865 -1 0 0 I I #
edge $-1 $376 -2.140599212642865 $531 2.5308255979421865 $372 $707 forward 7 unknown #
point $-1 60.835596789452801 -19.840309036851057 2.140599212642865 #
point $-1 60.835596789452801 -28.216970841571783 2.140599212642865 #
loop $-1 $-1 $550 $378 #
plane-surface $-1 0 28.216970841571783 0 0 -1 0 0 0 -1 forward_v I I I I #
coedge $-1 $381 $555 $708 $709 forward $231 $-1 #
coedge $-1 $383 $382 $381 $549 reversed $145 $-1 #
edge $-1 $710 -17.463864780280616 $556 -4.0423473423017224 $381 $711 forward 7 unknown #
coedge $-1 $708 $712 $383 $551 forward $545 $-1 #
edge $-1 $553 -77.655255484441994 $710 -72.554728393130276 $550 $713 forward 7 unknown #
coedge $-1 $389 $384 $712 $714 reversed $379 $-1 #
vertex $-1 $551 $715 #
straight-curve $-1 60.835596789452801 10.753106061291168 3.7219206614272622 0 1 0 I I #
coedge $-1 $547 $386 $389 $559 forward $231 $-1 #
vertex $-1 $387 $716 #
straight-curve $-1 42.391491339628999 14.795453403592891 7.7953827584534565 1 0 0 I I #
straight-curve $-1 -12.387954063310673 14.795453403592891 100.89285740399596 -0.60181501223851219 0 0.79863551827123203 I I #
edge $-1 $390 14.795453403592891 $717 28.216970841571783 $389 $718 forward 7 unknown #
point $-1 60.835596789452801 14.795453403592891 7.7953827584534565 #
point $-1 60.835596789452808 14.795453403592891 3.7219206614272622 #
edge $-1 $719 1 $719 0 $393 $-1 forward 7 unknown #
vertex $-1 $394 $720 #
ellipse-curve $-1 56.776554257479482 18.630172671586859 3.8564886992129432 0.79863551827123203 0 0.60181501223851219 0.60181501223851219 0 -0.79863551827123203 1 I I #
point $-1 59.902624914751009 18.630172671586859 4.9600161916691494 #
edge $-1 $721 1 $721 0 $397 $-1 forward 7 unknown #
vertex $-1 $398 $722 #
ellipse-curve $-1 56.776554257479482 24.382251573577815 3.8564886992129432 0.79863551827123203 0 0.60181501223851219 0.60181501223851219 0 -0.79863551827123203 1 I I #
point $-1 59.902624914751009 24.382251573577815 4.9600161916691494 #
plane-surface $-1 0 0 7.7953827584534565 0 0 1 1 0 0 forward_v I I I I #
coedge $-1 $581 $580 $573 $723 forward $402 $-1 #
coedge $-1 $573 $404 $406 $577 reversed $253 $-1 #
coedge $-1 $404 $572 $571 $723 reversed $253 $-1 #
coedge $-1 $412 $407 $404 $575 forward $413 $-1 #
edge $-1 $578 -18.50817764053258 $724 -13.343668154500655 $574 $725 forward 7 unknown #
coedge $-1 $406 $405 $581 $726 reversed $159 $-1 #
edge $-1 $727 -3.0780085947320026e-014 $578 7.4346034958865612 $572 $728 forward 7 unknown #
vertex $-1 $408 $729 #
straight-curve $-1 -55.671087303420876 -6.9964539251809992 7.7953827584534565 0 1 0 I I #
coedge $-1 $571 $409 $412 $585 reversed $402 $-1 #
coedge $-1 $409 $571 $576 $726 forward $402 $-1 #
vertex $-1 $410 $730 #
straight-curve $-1 -60.835596789452801 -17.525426748543385 43.483644264070151 0 0 1 I I #
straight-curve $-1 -60.835596789452779 -17.525426748543385 2.4473765028723022 -0.69465836192734942 0 -0.71933980857756763 I I #
edge $-1 $724 10.460388952180612 $414 17.525426748543385 $580 $731 forward 7 unknown #
point $-1 -60.835596789452801 -17.525426748543385 7.7953827584534565 #
point $-1 -55.671087303420876 -17.525426748543385 7.7953827584534565 #
edge $-1 $732 1 $732 0 $417 $-1 forward 7 unknown #
vertex $-1 $418 $733 #
ellipse-curve $-1 -57.46452042706953 -15.506844521011162 4.3596234655951811 -0.71933980857756763 0 0.69465836192734942 0.69465836192734942 0 0.71933980857756763 1 I I #
point $-1 -57.558683684509504 -15.506844521011162 5.8407194392404538 #
edge $-1 $734 1 $734 0 $421 $-1 forward 7 unknown #
vertex $-1 $422 $735 #
ellipse-curve $-1 -57.46452042706953 -12.478971179712833 4.3596234655951811 -0.71933980857756763 0 0.69465836192734942 0.69465836192734942 0 0.71933980857756763 1 I I #
point $-1 -57.558683684509504 -12.478971179712833 5.8407194392404538 #
loop $-1 $-1 $433 $425 #
plane-surface $-1 -60.835596789452801 0 0 1 0 0 0 0 -1 forward_v I I I I #
coedge $-1 $599 $428 $430 $603 reversed $275 $-1 #
coedge $-1 $428 $598 $736 $737 reversed $275 $-1 #
coedge $-1 $436 $431 $428 $601 forward $426 $-1 #
edge $-1 $604 -18.50817764053258 $738 -13.343668154500655 $600 $739 forward 7 unknown #
coedge $-1 $430 $429 $607 $740 reversed $173 $-1 #
edge $-1 $741 -3.0780085947320026e-014 $604 7.4346034958865612 $598 $742 forward 7 unknown #
vertex $-1 $432 $743 #
straight-curve $-1 -55.671087303420876 -0.98929394037814511 7.7953827584534565 0 1 0 I I #
coedge $-1 $736 $433 $436 $611 reversed $596 $-1 #
coedge $-1 $433 $736 $602 $740 forward $596 $-1 #
vertex $-1 $434 $744 #
straight-curve $-1 -60.835596789452801 -5.511106778937676 43.483644264070151 0 0 1 I I #
straight-curve $-1 -60.835596789452779 -5.511106778937676 2.4473765028723022 -0.69465836192734942 0 -0.71933980857756763 I I #
edge $-1 $738 -1.5539310174250955 $437 5.511106778937676 $606 $745 forward 7 unknown #
point $-1 -60.835596789452801 -5.511106778937676 7.7953827584534565 #
point $-1 -55.671087303420876 -5.511106778937676 7.7953827584534565 #
edge $-1 $746 1 $746 0 $440 $-1 forward 7 unknown #
vertex $-1 $441 $747 #
ellipse-curve $-1 -57.46452042706953 -3.4925245514054524 4.3596234655951811 -0.71933980857756763 0 0.69465836192734942 0.69465836192734942 0 0.71933980857756763 1 I I #
point $-1 -57.558683684509504 -3.4925245514054524 5.8407194392404538 #
edge $-1 $748 1 $748 0 $444 $-1 forward 7 unknown #
vertex $-1 $445 $749 #
ellipse-curve $-1 -57.46452042706953 -0.46465121010712451 4.3596234655951811 -0.71933980857756763 0 0.69465836192734942 0.69465836192734942 0 0.71933980857756763 1 I I #
point $-1 -57.558683684509504 -0.46465121010712451 5.8407194392404538 #
loop $-1 $-1 $456 $448 #
plane-surface $-1 -60.835596789452801 0 0 1 0 0 0 0 -1 forward_v I I I I #
coedge $-1 $625 $451 $453 $629 reversed $297 $-1 #
coedge $-1 $451 $624 $750 $751 reversed $297 $-1 #
coedge $-1 $459 $454 $451 $627 forward $449 $-1 #
edge $-1 $630 -18.50817764053258 $752 -13.343668154500655 $626 $753 forward 7 unknown #
coedge $-1 $453 $452 $633 $754 reversed $187 $-1 #
edge $-1 $755 -3.0780085947320026e-014 $630 7.4346034958865612 $624 $756 forward 7 unknown #
vertex $-1 $455 $757 #
straight-curve $-1 -55.671087303420876 5.017866044424709 7.7953827584534565 0 1 0 I I #
coedge $-1 $750 $456 $459 $637 reversed $622 $-1 #
coedge $-1 $456 $750 $628 $754 forward $622 $-1 #
vertex $-1 $457 $758 #
straight-curve $-1 -60.835596789452801 6.5032131906680322 43.483644264070151 0 0 1 I I #
straight-curve $-1 -60.835596789452779 6.5032131906680322 2.4473765028723022 -0.69465836192734942 0 -0.71933980857756763 I I #
edge $-1 $752 -13.568250987030805 $460 -6.5032131906680322 $632 $759 forward 7 unknown #
point $-1 -60.835596789452801 6.5032131906680322 7.7953827584534565 #
point $-1 -55.671087303420876 6.5032131906680322 7.7953827584534565 #
edge $-1 $760 1 $760 0 $463 $-1 forward 7 unknown #
vertex $-1 $464 $761 #
ellipse-curve $-1 -57.46452042706953 8.5217954182002593 4.3596234655951811 -0.71933980857756763 0 0.69465836192734942 0.69465836192734942 0 0.71933980857756763 1 I I #
point $-1 -57.558683684509504 8.5217954182002593 5.8407194392404538 #
edge $-1 $762 1 $762 0 $467 $-1 forward 7 unknown #
vertex $-1 $468 $763 #
ellipse-curve $-1 -57.46452042706953 11.549668759498584 4.3596234655951811 -0.71933980857756763 0 0.69465836192734942 0.69465836192734942 0 0.71933980857756763 1 I I #
point $-1 -57.558683684509504 11.549668759498584 5.8407194392404538 #
loop $-1 $-1 $479 $471 #
plane-surface $-1 -60.835596789452801 0 0 1 0 0 0 0 -1 forward_v I I I I #
coedge $-1 $651 $474 $476 $655 reversed $319 $-1 #
coedge $-1 $474 $650 $764 $765 reversed $319 $-1 #
coedge $-1 $482 $477 $474 $653 forward $472 $-1 #
edge $-1 $656 -18.50817764053258 $766 -13.343668154500655 $652 $767 forward 7 unknown #
coedge $-1 $476 $475 $659 $768 reversed $201 $-1 #
edge $-1 $769 -3.0780085947320026e-014 $656 7.4346034958865612 $650 $770 forward 7 unknown #
vertex $-1 $478 $771 #
straight-curve $-1 -55.671087303420876 11.025026029227563 7.7953827584534565 0 1 0 I I #
coedge $-1 $764 $479 $482 $663 reversed $648 $-1 #
coedge $-1 $479 $764 $654 $768 forward $648 $-1 #
vertex $-1 $480 $772 #
straight-curve $-1 -60.835596789452801 18.517533160273739 43.483644264070151 0 0 1 I I #
straight-curve $-1 -60.835596789452779 18.517533160273739 2.4473765028723022 -0.69465836192734942 0 -0.71933980857756763 I I #
edge $-1 $766 -25.582570956636513 $483 -18.517533160273739 $658 $773 forward 7 unknown #
point $-1 -60.835596789452801 18.517533160273739 7.7953827584534565 #
point $-1 -55.671087303420876 18.517533160273739 7.7953827584534565 #
edge $-1 $774 1 $774 0 $486 $-1 forward 7 unknown #
vertex $-1 $487 $775 #
ellipse-curve $-1 -57.46452042706953 20.536115387805967 4.3596234655951811 -0.71933980857756763 0 0.69465836192734942 0.69465836192734942 0 0.71933980857756763 1 I I #
point $-1 -57.558683684509504 20.536115387805967 5.8407194392404538 #
edge $-1 $776 1 $776 0 $490 $-1 forward 7 unknown #
vertex $-1 $491 $777 #
ellipse-curve $-1 -57.46452042706953 23.563988729104292 4.3596234655951811 -0.71933980857756763 0 0.69465836192734942 0.69465836192734942 0 0.71933980857756763 1 I I #
point $-1 -57.558683684509504 23.563988729104292 5.8407194392404538 #
plane-surface $-1 60.835596789452801 0 0 -1 0 0 0 0 1 forward_v I I I I #
coedge $-1 $499 $497 $501 $679 reversed $341 $-1 #
edge $-1 $512 -7.7953827584534565 $681 7.7953827584534565 $511 $778 forward 7 unknown #
vertex $-1 $679 $779 #
straight-curve $-1 -60.835596789452801 -28.216970841571783 0 0 0 -1 I I #
edge $-1 $677 -28.216970841571783 $681 28.216970841571783 $675 $780 forward 7 unknown #
straight-curve $-1 0 -28.216970841571783 -7.7953827584534565 -1 0 0 I I #
vertex $-1 $504 $781 #
straight-curve $-1 0 28.216970841571783 -7.7953827584534565 1 0 0 I I #
point $-1 60.835596789452801 28.216970841571783 -7.7953827584534565 #
point $-1 60.835596789452801 -28.216970841571783 -7.7953827584534565 #
straight-curve $-1 -60.835596789452801 0 7.7953827584534565 0 -1 0 I I #
point $-1 -60.835596789452801 28.216970841571783 7.7953827584534565 #
point $-1 -60.835596789452801 -28.216970841571783 7.7953827584534565 #
straight-curve $-1 60.835596789452801 -28.216970841571783 0 0 0 -1 I I #
straight-curve $-1 60.835596789452801 28.216970841571783 0 0 0 -1 I I #
plane-surface $-1 60.835596789452801 0 0 -1 0 0 0 0 1 forward_v I I I I #
coedge $-1 $694 $524 $535 $703 forward $360 $-1 #
coedge $-1 $524 $694 $538 $705 reversed $360 $-1 #
straight-curve $-1 60.835596789452801 -19.840309036851057 -0.09755659632483038 0 0 1 I I #
coedge $-1 $692 $691 $527 $695 forward $360 $-1 #
edge $-1 $698 7.8259890672453469 $696 16.202650871966071 $694 $782 forward 7 unknown #
vertex $-1 $529 $783 #
straight-curve $-1 0 -28.216970841571783 -2.5308255979421865 1 0 0 I I #
vertex $-1 $695 $784 #
straight-curve $-1 0 -19.840309036851057 -2.5308255979421865 1 0 0 I I #
point $-1 60.835596789452801 -28.216970841571783 -2.5308255979421865 #
point $-1 60.835596789452801 -19.840309036851057 -2.5308255979421865 #
straight-curve $-1 -60.835596789452801 -12.01431996960571 2.140599212642865 0 1 0 I I #
edge $-1 $536 -2.2381558089676954 $698 2.4332690016173562 $691 $785 forward 7 unknown #
point $-1 -60.835596789452801 -19.840309036851057 2.140599212642865 #
edge $-1 $540 -2.140599212642865 $696 2.5308255979421865 $692 $786 forward 7 unknown #
point $-1 -60.835596789452801 -28.216970841571783 2.140599212642865 #
straight-curve $-1 60.835596789452801 -28.216970841571783 0 0 0 -1 I I #
coedge $-1 $712 $550 $547 $709 reversed $545 $-1 #
edge $-1 $717 -60.835596789452801 $710 -57.766023015572173 $708 $787 forward 7 unknown #
vertex $-1 $551 $788 #
straight-curve $-1 57.766023015572188 10.753106061291168 7.7953827584534565 0 -1 0 I I #
coedge $-1 $550 $708 $552 $714 forward $545 $-1 #
straight-curve $-1 14.101498259698555 28.216970841571783 65.740165871729531 -0.60181501223851219 0 0.79863551827123203 I I #
edge $-1 $717 -7.7953827584534565 $553 -3.7219206614272622 $552 $789 forward 7 unknown #
point $-1 60.835596789452808 28.216970841571783 3.7219206614272622 #
point $-1 57.766023015572173 14.795453403592891 7.7953827584534565 #
vertex $-1 $559 $790 #
straight-curve $-1 60.835596789452801 0 7.7953827584534565 0 1 0 I I #
vertex $-1 $562 $791 #
point $-1 57.378369269718 18.630172671586859 3.0578531809417111 #
vertex $-1 $566 $792 #
point $-1 57.378369269718 24.382251573577815 3.0578531809417111 #
edge $-1 $724 35.688261505616694 $727 41.03626776119787 $571 $793 forward 7 unknown #
vertex $-1 $585 $794 #
straight-curve $-1 -74.179264943953456 -10.460388952180612 7.7953827584534565 -1 0 0 I I #
edge $-1 $727 3.4639350269996125 $582 10.528972823362386 $581 $795 forward 7 unknown #
vertex $-1 $726 $796 #
straight-curve $-1 -60.835596789452779 -10.460388952180612 2.4473765028723022 0.69465836192734942 0 0.71933980857756763 I I #
point $-1 -55.671087303420876 -10.460388952180612 7.7953827584534565 #
point $-1 -60.835596789452801 -17.525426748543385 2.44737650287228 #
straight-curve $-1 -60.835596789452801 0 7.7953827584534565 0 -1 0 I I #
vertex $-1 $588 $797 #
point $-1 -56.769862065142178 -15.506844521011162 5.0789632741727484 #
vertex $-1 $592 $798 #
point $-1 -56.769862065142178 -12.478971179712833 5.0789632741727484 #
coedge $-1 $607 $606 $599 $737 forward $596 $-1 #
edge $-1 $738 35.688261505616694 $741 41.03626776119787 $736 $799 forward 7 unknown #
vertex $-1 $611 $800 #
straight-curve $-1 -74.179264943953456 1.5539310174250955 7.7953827584534565 -1 0 0 I I #
edge $-1 $741 -2.5432249578032406 $608 4.5218128385595309 $607 $801 forward 7 unknown #
vertex $-1 $740 $802 #
straight-curve $-1 -60.835596789452779 1.5539310174250955 2.4473765028723022 0.69465836192734942 0 0.71933980857756763 I I #
point $-1 -55.671087303420876 1.5539310174250955 7.7953827584534565 #
point $-1 -60.835596789452801 -5.511106778937676 2.44737650287228 #
straight-curve $-1 -60.835596789452801 0 7.7953827584534565 0 -1 0 I I #
vertex $-1 $614 $803 #
point $-1 -56.769862065142178 -3.4925245514054524 5.0789632741727484 #
vertex $-1 $618 $804 #
point $-1 -56.769862065142178 -0.46465121010712451 5.0789632741727484 #
coedge $-1 $633 $632 $625 $751 forward $622 $-1 #
edge $-1 $752 35.688261505616694 $755 41.03626776119787 $750 $805 forward 7 unknown #
vertex $-1 $637 $806 #
straight-curve $-1 -74.179264943953456 13.568250987030805 7.7953827584534565 -1 0 0 I I #
edge $-1 $755 -8.5503849426060956 $634 -1.4853471462433232 $633 $807 forward 7 unknown #
vertex $-1 $754 $808 #
straight-curve $-1 -60.835596789452779 13.568250987030805 2.4473765028723022 0.69465836192734942 0 0.71933980857756763 I I #
point $-1 -55.671087303420876 13.568250987030805 7.7953827584534565 #
point $-1 -60.835596789452801 6.5032131906680322 2.44737650287228 #
straight-curve $-1 -60.835596789452801 0 7.7953827584534565 0 -1 0 I I #
vertex $-1 $640 $809 #
point $-1 -56.769862065142178 8.5217954182002593 5.0789632741727484 #
vertex $-1 $644 $810 #
point $-1 -56.769862065142178 11.549668759498584 5.0789632741727484 #
coedge $-1 $659 $658 $651 $765 forward $648 $-1 #
edge $-1 $766 35.688261505616694 $769 41.03626776119787 $764 $811 forward 7 unknown #
vertex $-1 $663 $812 #
straight-curve $-1 -74.179264943953456 25.582570956636513 7.7953827584534565 -1 0 0 I I #
edge $-1 $769 -14.55754492740895 $660 -7.4925071310461764 $659 $813 forward 7 unknown #
vertex $-1 $768 $814 #
straight-curve $-1 -60.835596789452779 25.582570956636513 2.4473765028723022 0.69465836192734942 0 0.71933980857756763 I I #
point $-1 -55.671087303420876 25.582570956636513 7.7953827584534565 #
point $-1 -60.835596789452801 18.517533160273739 2.44737650287228 #
straight-curve $-1 -60.835596789452801 0 7.7953827584534565 0 -1 0 I I #
vertex $-1 $666 $815 #
point $-1 -56.769862065142178 20.536115387805967 5.0789632741727484 #
vertex $-1 $670 $816 #
point $-1 -56.769862065142178 23.563988729104292 5.0789632741727484 #
straight-curve $-1 -60.835596789452801 28.216970841571783 0 0 0 -1 I I #
point $-1 -60.835596789452801 -28.216970841571783 -7.7953827584534565 #
straight-curve $-1 -60.835596789452801 0 -7.7953827584534565 0 1 0 I I #
point $-1 -60.835596789452801 28.216970841571783 -7.7953827584534565 #
straight-curve $-1 -60.835596789452801 -12.01431996960571 -2.5308255979421865 0 -1 0 I I #
point $-1 -60.835596789452801 -28.216970841571783 -2.5308255979421865 #
point $-1 -60.835596789452801 -19.840309036851057 -2.5308255979421865 #
straight-curve $-1 -60.835596789452801 -19.840309036851057 -0.09755659632483038 0 0 -1 I I #
straight-curve $-1 -60.835596789452801 -28.216970841571783 0 0 0 -1 I I #
straight-curve $-1 0 28.216970841571783 7.7953827584534565 -1 0 0 I I #
point $-1 57.766023015572173 28.216970841571783 7.7953827584534565 #
straight-curve $-1 60.835596789452801 28.216970841571783 0 0 0 -1 I I #
point $-1 60.835596789452801 28.216970841571783 7.7953827584534565 #
point $-1 55.977918739208256 18.630172671586859 3.2546736869744306 #
point $-1 55.977918739208256 24.382251573577815 3.2546736869744306 #
straight-curve $-1 -60.835596789452801 -10.460388952180612 43.483644264070151 0 0 -1 I I #
point $-1 -60.835596789452801 -10.460388952180612 7.7953827584534565 #
straight-curve $-1 -60.835596789452801 -6.9964539251809992 2.4473765028722836 0 -1 0 I I #
point $-1 -60.835596789452801 -10.460388952180612 2.44737650287228 #
point $-1 -56.745180618491958 -15.506844521011162 3.6649651036678321 #
point $-1 -56.745180618491958 -12.478971179712833 3.6649651036678321 #
straight-curve $-1 -60.835596789452801 1.5539310174250955 43.483644264070151 0 0 -1 I I #
point $-1 -60.835596789452801 1.5539310174250955 7.7953827584534565 #
straight-curve $-1 -60.835596789452801 -0.98929394037814511 2.4473765028722836 0 -1 0 I I #
point $-1 -60.835596789452801 1.5539310174250955 2.44737650287228 #
point $-1 -56.745180618491958 -3.4925245514054524 3.6649651036678321 #
point $-1 -56.745180618491958 -0.46465121010712451 3.6649651036678321 #
straight-curve $-1 -60.835596789452801 13.568250987030805 43.483644264070151 0 0 -1 I I #
point $-1 -60.835596789452801 13.568250987030805 7.7953827584534565 #
straight-curve $-1 -60.835596789452801 5.017866044424709 2.4473765028722836 0 -1 0 I I #
point $-1 -60.835596789452801 13.568250987030805 2.44737650287228 #
point $-1 -56.745180618491958 8.5217954182002593 3.6649651036678321 #
point $-1 -56.745180618491958 11.549668759498584 3.6649651036678321 #
straight-curve $-1 -60.835596789452801 25.582570956636513 43.483644264070151 0 0 -1 I I #
point $-1 -60.835596789452801 25.582570956636513 7.7953827584534565 #
straight-curve $-1 -60.835596789452801 11.025026029227563 2.4473765028722836 0 -1 0 I I #
point $-1 -60.835596789452801 25.582570956636513 2.44737650287228 #
point $-1 -56.745180618491958 20.536115387805967 3.6649651036678321 #
point $-1 -56.745180618491958 23.563988729104292 3.6649651036678321 #
End-of-ACIS-data 