500 0 6 0           
7 Unknown 11 ACIS 5.0 NT 24 Fri Mar 26 02:11:43 1999 
-1 9.9999999999999995e-007 1e-010 
body $-1 $6 $-1 $7 #
body $-1 $8 $-1 $9 #
body $-1 $10 $-1 $11 #
body $-1 $12 $-1 $13 #
body $-1 $14 $-1 $15 #
body $-1 $16 $-1 $17 #
lump $-1 $-1 $18 $0 #
transform $-1 1 0 0 0 1 0 0 0 1 61.533860286263618 40.073722287444497 15.980447005015749 1 rotate no_reflect no_shear #
lump $-1 $-1 $19 $1 #
transform $-1 1 0 0 0 1 0 0 0 1 61.533860286263618 40.073722287444497 15.980447005015749 1 rotate no_reflect no_shear #
lump $-1 $-1 $20 $2 #
transform $-1 1 0 0 0 1 0 0 0 1 61.533860286263618 40.073722287444497 15.980447005015749 1 rotate no_reflect no_shear #
lump $-1 $-1 $21 $3 #
transform $-1 1 0 0 0 1 0 0 0 1 61.533860286263618 40.073722287444497 15.980447005015749 1 rotate no_reflect no_shear #
lump $-1 $-1 $22 $4 #
transform $-1 1 0 0 0 1 0 0 0 1 61.533860286263618 40.073722287444497 15.980447005015749 1 rotate no_reflect no_shear #
lump $-1 $-1 $23 $5 #
transform $-1 1 0 0 0 1 0 0 0 1 61.533860286263618 40.073722287444497 15.980447005015749 1 rotate no_reflect no_shear #
shell $-1 $-1 $-1 $24 $-1 $6 #
shell $-1 $-1 $-1 $25 $-1 $8 #
shell $-1 $-1 $-1 $26 $-1 $10 #
shell $-1 $-1 $-1 $27 $-1 $12 #
shell $-1 $-1 $-1 $28 $-1 $14 #
shell $-1 $-1 $-1 $29 $-1 $16 #
face $-1 $30 $31 $18 $-1 $32 forward single #
face $-1 $33 $34 $19 $-1 $35 forward single #
face $-1 $36 $37 $20 $-1 $38 reversed single #
face $-1 $39 $40 $21 $-1 $41 forward single #
face $-1 $42 $43 $22 $-1 $44 reversed single #
face $-1 $45 $46 $23 $-1 $47 forward single #
face $-1 $48 $49 $18 $-1 $50 reversed single #
loop $-1 $-1 $51 $24 #
plane-surface $-1 0 0 15.980447005015749 0 0 1 1 0 0 forward_v I I I I #
face $-1 $52 $53 $19 $-1 $54 reversed single #
loop $-1 $-1 $55 $25 #
plane-surface $-1 0 -33.846600478277871 -6.8091244743002211 0 0 1 1 0 0 forward_v I I I I #
face $-1 $56 $57 $20 $-1 $58 reversed single #
loop $-1 $-1 $59 $26 #
plane-surface $-1 94.743031085920293 7.9601088754246199 173.77584393728219 0 1 0 0.82903758062907751 0 0.55919289150049634 forward_v I I I I #
face $-1 $60 $61 $21 $-1 $62 forward single #
loop $-1 $63 $64 $27 #
cone-surface $-1 54.319302195843392 14.739448564715232 7.5575290340626271 -0.82903758062907751 0 -0.55919289150049634 1.1183857830009927 0 -1.658075161258155 1 I I 0 1 2 forward I I I I #
face $-1 $65 $66 $22 $-1 $67 reversed single #
loop $-1 $-1 $68 $28 #
plane-surface $-1 -163.56162560324691 7.9601088754246199 71.748078620298855 0 1 0 -0.82903758062907751 0 0.55919289150049634 forward_v I I I I #
face $-1 $69 $70 $23 $-1 $71 forward single #
loop $-1 $72 $73 $29 #
cone-surface $-1 -54.319302195843399 14.739448564715232 7.5575290340626271 0.82903758062907751 0 -0.55919289150049634 1.1183857830009927 0 1.658075161258155 1 I I 0 1 2 forward I I I I #
face $-1 $74 $75 $18 $-1 $76 reversed single #
loop $-1 $-1 $77 $30 #
plane-surface $-1 0 0 -15.980447005015749 0 0 1 1 0 0 forward_v I I I I #
coedge $-1 $78 $79 $80 $81 forward $31 $-1 #
face $-1 $82 $83 $19 $-1 $84 reversed single #
loop $-1 $-1 $85 $33 #
plane-surface $-1 0 -33.846600478277871 -10.724277905095393 0 0 1 1 0 0 forward_v I I I I #
coedge $-1 $86 $87 $88 $89 reversed $34 $-1 #
face $-1 $90 $91 $20 $-1 $92 reversed single #
loop $-1 $-1 $93 $36 #
plane-surface $-1 -7.2847342310630268 14.739448564715232 104.95724941995557 0.82903758062907751 0 0.55919289150049634 0.55919289150049634 0 -0.82903758062907751 forward_v I I I I #
coedge $-1 $94 $95 $96 $97 reversed $37 $-1 #
face $-1 $-1 $98 $21 $-1 $99 forward single #
loop $-1 $100 $101 $39 #
cone-surface $-1 50.677199202919525 14.739448564715232 5.1008996226307612 -0.82903758062907751 0 -0.55919289150049634 0.55919289150049634 0 -0.82903758062907751 1 I I -0.70710678118654746 0.70710678118654746 1 forward I I I I #
loop $-1 $-1 $102 $27 #
coedge $-1 $64 $64 $103 $104 reversed $40 $-1 #
face $-1 $105 $106 $22 $-1 $107 reversed single #
loop $-1 $-1 $108 $42 #
plane-surface $-1 -61.53386028626359 14.739448564715232 2.9294841029722392 -0.82903758062907751 0 0.55919289150049634 0.55919289150049634 0 0.82903758062907751 forward_v I I I I #
coedge $-1 $109 $110 $111 $112 reversed $43 $-1 #
face $-1 $-1 $113 $23 $-1 $114 forward single #
loop $-1 $115 $116 $45 #
cone-surface $-1 -50.677199202919532 14.739448564715232 5.1008996226307612 0.82903758062907751 0 -0.55919289150049634 0.55919289150049634 0 0.82903758062907751 1 I I -0.70710678118654746 0.70710678118654746 1 forward I I I I #
loop $-1 $-1 $117 $29 #
coedge $-1 $73 $73 $118 $119 reversed $46 $-1 #
face $-1 $120 $121 $18 $-1 $122 reversed single #
loop $-1 $-1 $123 $48 #
plane-surface $-1 0 -40.073722287444497 0 0 1 0 0 0 1 forward_v I I I I #
coedge $-1 $124 $125 $126 $127 forward $49 $-1 #
coedge $-1 $128 $51 $129 $130 forward $31 $-1 #
coedge $-1 $51 $128 $131 $132 forward $31 $-1 #
coedge $-1 $133 $134 $51 $81 reversed $135 $-1 #
edge $-1 $136 -40.073722287444497 $137 40.073722287444497 $80 $138 forward 7 unknown #
face $-1 $139 $140 $19 $-1 $141 reversed single #
loop $-1 $-1 $142 $52 #
plane-surface $-1 0 -27.619478669111242 -8.7667011896978071 0 -1 0 0 0 -1 forward_v I I I I #
coedge $-1 $143 $144 $145 $146 reversed $53 $-1 #
coedge $-1 $147 $55 $148 $149 forward $34 $-1 #
coedge $-1 $55 $147 $150 $151 reversed $34 $-1 #
coedge $-1 $152 $153 $55 $89 forward $154 $-1 #
edge $-1 $155 10.696178429972306 $156 23.150422048305561 $88 $157 forward 7 unknown #
face $-1 $158 $159 $20 $-1 $160 forward single #
loop $-1 $-1 $161 $56 #
plane-surface $-1 94.743031085920293 21.518788254005845 173.77584393728219 0 -1 0 -0.82903758062907751 0 -0.55919289150049634 forward_v I I I I #
coedge $-1 $162 $163 $164 $165 reversed $57 $-1 #
coedge $-1 $95 $59 $166 $167 reversed $37 $-1 #
coedge $-1 $59 $94 $162 $168 reversed $37 $-1 #
coedge $-1 $164 $169 $59 $97 forward $170 $-1 #
edge $-1 $171 70.907474963625347 $172 83.958437865668884 $96 $173 forward 7 unknown #
loop $-1 $-1 $103 $60 #
plane-surface $-1 -7.2847342310630268 14.739448564715232 104.95724941995557 0.82903758062907751 0 0.55919289150049634 0.55919289150049634 0 -0.82903758062907751 forward_v I I I I #
loop $-1 $-1 $174 $39 #
coedge $-1 $101 $101 $102 $175 reversed $61 $-1 #
coedge $-1 $102 $102 $101 $175 forward $63 $-1 #
coedge $-1 $103 $103 $64 $104 forward $98 $-1 #
edge $-1 $176 0 $176 6.2831853071796004 $103 $177 forward 7 unknown #
face $-1 $178 $179 $22 $-1 $180 reversed single #
loop $-1 $-1 $181 $65 #
plane-surface $-1 -163.56162560324691 21.518788254005845 71.748078620298855 0 -1 0 0.82903758062907751 0 -0.55919289150049634 forward_v I I I I #
coedge $-1 $182 $183 $184 $185 reversed $66 $-1 #
coedge $-1 $110 $68 $186 $187 reversed $43 $-1 #
coedge $-1 $68 $109 $182 $188 reversed $43 $-1 #
coedge $-1 $184 $189 $68 $112 forward $190 $-1 #
edge $-1 $191 20.246952515359837 $192 29.049937871610737 $111 $193 forward 7 unknown #
loop $-1 $-1 $118 $69 #
plane-surface $-1 -61.53386028626359 14.739448564715232 2.9294841029722392 -0.82903758062907751 0 0.55919289150049634 0.55919289150049634 0 0.82903758062907751 forward_v I I I I #
loop $-1 $-1 $194 $45 #
coedge $-1 $116 $116 $117 $195 reversed $70 $-1 #
coedge $-1 $117 $117 $116 $195 forward $72 $-1 #
coedge $-1 $118 $118 $73 $119 forward $113 $-1 #
edge $-1 $196 0 $196 6.2831853071796004 $118 $197 forward 7 unknown #
face $-1 $198 $199 $18 $-1 $200 reversed single #
loop $-1 $-1 $201 $74 #
plane-surface $-1 -61.533860286263618 0 0 1 0 0 0 0 -1 forward_v I I I I #
coedge $-1 $202 $131 $203 $204 forward $75 $-1 #
coedge $-1 $205 $77 $202 $206 forward $49 $-1 #
coedge $-1 $77 $205 $207 $208 forward $49 $-1 #
coedge $-1 $134 $133 $77 $127 reversed $135 $-1 #
edge $-1 $209 -40.073722287444497 $210 40.073722287444497 $126 $211 forward 7 unknown #
coedge $-1 $79 $78 $212 $213 forward $31 $-1 #
coedge $-1 $214 $215 $78 $130 reversed $199 $-1 #
edge $-1 $137 -61.533860286263618 $216 61.533860286263618 $129 $217 forward 7 unknown #
coedge $-1 $123 $218 $79 $132 reversed $75 $-1 #
edge $-1 $219 -61.533860286263618 $136 61.533860286263618 $131 $220 forward 7 unknown #
coedge $-1 $126 $80 $218 $221 forward $135 $-1 #
coedge $-1 $80 $126 $214 $222 reversed $135 $-1 #
loop $-1 $-1 $133 $198 #
vertex $-1 $81 $223 #
vertex $-1 $81 $224 #
straight-curve $-1 61.533860286263618 0 15.980447005015749 0 1 0 I I #
face $-1 $225 $226 $19 $-1 $227 reversed single #
loop $-1 $-1 $228 $82 #
plane-surface $-1 -61.533860286263618 0 0 1 0 0 0 0 -1 forward_v I I I I #
coedge $-1 $229 $148 $153 $230 reversed $83 $-1 #
coedge $-1 $231 $85 $232 $233 reversed $53 $-1 #
coedge $-1 $85 $231 $229 $234 forward $53 $-1 #
coedge $-1 $153 $152 $85 $146 forward $154 $-1 #
edge $-1 $235 -23.150422048305561 $236 -10.696178429972306 $145 $237 forward 7 unknown #
coedge $-1 $87 $86 $228 $238 reversed $34 $-1 #
coedge $-1 $142 $239 $86 $149 reversed $83 $-1 #
edge $-1 $155 -61.533860286263618 $240 61.533860286263618 $148 $241 forward 7 unknown #
coedge $-1 $242 $243 $87 $151 forward $226 $-1 #
edge $-1 $156 -61.533860286263618 $244 61.533860286263618 $150 $245 forward 7 unknown #
coedge $-1 $145 $88 $243 $246 forward $154 $-1 #
coedge $-1 $88 $145 $142 $230 forward $154 $-1 #
loop $-1 $-1 $88 $225 #
vertex $-1 $89 $247 #
vertex $-1 $246 $248 #
straight-curve $-1 61.533860286263618 -16.923300239138936 -6.8091244743002211 0 -1 0 I I #
face $-1 $-1 $170 $20 $-1 $249 reversed single #
loop $-1 $-1 $250 $90 #
plane-surface $-1 0 0 15.980447005015749 0 0 1 1 0 0 forward_v I I I I #
coedge $-1 $251 $252 $253 $254 reversed $91 $-1 #
coedge $-1 $255 $93 $95 $168 forward $57 $-1 #
coedge $-1 $93 $255 $251 $256 forward $57 $-1 #
coedge $-1 $253 $96 $93 $165 forward $170 $-1 #
edge $-1 $172 0.59038459306700375 $257 14.149063971648228 $164 $258 forward 7 unknown #
coedge $-1 $259 $260 $94 $167 forward $159 $-1 #
edge $-1 $261 5.359359387052578 $171 14.162344743303471 $166 $262 forward 7 unknown #
edge $-1 $172 -123.06772057252729 $261 -107.32541502813879 $95 $263 forward 7 unknown #
coedge $-1 $96 $253 $259 $264 reversed $170 $-1 #
loop $-1 $-1 $253 $158 #
vertex $-1 $264 $265 #
vertex $-1 $97 $266 #
straight-curve $-1 61.533860286263618 7.9601088754246199 86.887921968641095 0 0 -1 I I #
coedge $-1 $174 $174 $-1 $267 reversed $100 $-1 #
edge $-1 $268 0 $268 6.2831853071796004 $101 $269 forward 7 unknown #
vertex $-1 $104 $270 #
ellipse-curve $-1 57.132367608138175 14.739448564715232 9.4549655539939899 0.82903758062907751 0 0.55919289150049634 1.1183857830009927 0 -1.658075161258155 1 I I #
face $-1 $-1 $190 $22 $-1 $271 forward single #
loop $-1 $-1 $272 $105 #
plane-surface $-1 -61.533860286263618 0 0 1 0 0 0 0 -1 forward_v I I I I #
coedge $-1 $273 $274 $275 $276 reversed $106 $-1 #
coedge $-1 $277 $108 $110 $188 forward $66 $-1 #
coedge $-1 $108 $277 $273 $278 forward $66 $-1 #
coedge $-1 $275 $111 $108 $185 forward $190 $-1 #
edge $-1 $192 0.59038459306700375 $279 14.149063971648228 $184 $280 forward 7 unknown #
coedge $-1 $281 $282 $109 $187 forward $179 $-1 #
edge $-1 $283 -32.944555207177231 $191 -19.89359230513368 $186 $284 forward 7 unknown #
edge $-1 $192 -15.742305544388447 $283 5.0869049068944123e-014 $110 $285 forward 7 unknown #
coedge $-1 $111 $275 $281 $286 forward $190 $-1 #
loop $-1 $-1 $275 $178 #
vertex $-1 $187 $287 #
vertex $-1 $112 $288 #
straight-curve $-1 -81.780812801623455 7.9601088754246199 15.980447005015748 1 0 0 I I #
coedge $-1 $194 $194 $-1 $289 reversed $115 $-1 #
edge $-1 $290 0 $290 6.2831853071796004 $116 $291 forward 7 unknown #
vertex $-1 $119 $292 #
ellipse-curve $-1 -57.132367608138161 14.739448564715232 9.454965553993981 -0.82903758062907751 0 0.55919289150049634 1.1183857830009927 0 1.658075161258155 1 I I #
face $-1 $-1 $135 $18 $-1 $293 reversed single #
loop $-1 $-1 $214 $120 #
plane-surface $-1 0 40.073722287444497 0 0 -1 0 0 0 -1 forward_v I I I I #
coedge $-1 $294 $212 $215 $295 forward $121 $-1 #
coedge $-1 $218 $123 $124 $206 reversed $75 $-1 #
coedge $-1 $212 $294 $123 $204 reversed $121 $-1 #
edge $-1 $219 -15.980447005015749 $296 15.980447005015749 $203 $297 forward 7 unknown #
coedge $-1 $125 $124 $294 $298 forward $49 $-1 #
edge $-1 $210 -61.533860286263618 $296 61.533860286263618 $202 $299 forward 7 unknown #
coedge $-1 $215 $214 $125 $208 reversed $199 $-1 #
edge $-1 $300 -61.533860286263618 $209 61.533860286263618 $207 $301 forward 7 unknown #
vertex $-1 $127 $302 #
vertex $-1 $221 $303 #
straight-curve $-1 61.533860286263618 0 -15.980447005015749 0 -1 0 I I #
coedge $-1 $201 $203 $128 $213 reversed $121 $-1 #
edge $-1 $216 -40.073722287444497 $219 40.073722287444497 $212 $304 forward 7 unknown #
coedge $-1 $207 $129 $134 $222 forward $199 $-1 #
coedge $-1 $129 $207 $201 $295 reversed $199 $-1 #
vertex $-1 $130 $305 #
straight-curve $-1 0 40.073722287444497 15.980447005015749 -1 0 0 I I #
coedge $-1 $131 $202 $133 $221 reversed $75 $-1 #
vertex $-1 $213 $306 #
straight-curve $-1 0 -40.073722287444497 15.980447005015749 1 0 0 I I #
edge $-1 $136 -15.980447005015749 $210 15.980447005015749 $133 $307 forward 7 unknown #
edge $-1 $137 -15.980447005015749 $209 15.980447005015749 $134 $308 forward 7 unknown #
point $-1 61.533860286263618 -40.073722287444497 15.980447005015749 #
point $-1 61.533860286263618 40.073722287444497 15.980447005015749 #
face $-1 $-1 $154 $19 $-1 $309 reversed single #
loop $-1 $-1 $150 $139 #
plane-surface $-1 0 -40.073722287444497 0 0 1 0 0 0 1 forward_v I I I I #
coedge $-1 $310 $311 $147 $238 forward $140 $-1 #
coedge $-1 $239 $142 $144 $234 reversed $83 $-1 #
edge $-1 $236 -6.3409273102464896 $155 -2.4257738794513175 $153 $312 forward 7 unknown #
coedge $-1 $144 $143 $313 $314 reversed $53 $-1 #
coedge $-1 $243 $242 $143 $233 forward $226 $-1 #
edge $-1 $315 -61.533860286263618 $235 61.533860286263618 $232 $316 forward 7 unknown #
edge $-1 $317 -61.533860286263618 $236 61.533860286263618 $229 $318 forward 7 unknown #
vertex $-1 $233 $319 #
vertex $-1 $146 $320 #
straight-curve $-1 61.533860286263618 -16.923300239138936 -10.724277905095393 0 1 0 I I #
edge $-1 $244 -23.150422048305561 $240 -10.696178429972306 $228 $321 forward 7 unknown #
coedge $-1 $148 $229 $310 $322 reversed $83 $-1 #
vertex $-1 $238 $323 #
straight-curve $-1 0 -27.619478669111242 -6.8091244743002211 -1 0 0 I I #
coedge $-1 $232 $150 $311 $324 forward $226 $-1 #
coedge $-1 $150 $232 $152 $246 reversed $226 $-1 #
vertex $-1 $324 $325 #
straight-curve $-1 0 -40.073722287444497 -6.8091244743002211 -1 0 0 I I #
edge $-1 $156 6.8091244743002211 $235 10.724277905095393 $152 $326 forward 7 unknown #
point $-1 61.533860286263618 -27.619478669111242 -6.8091244743002211 #
point $-1 61.533860286263618 -40.073722287444497 -6.8091244743002211 #
plane-surface $-1 61.533860286263618 0 0 -1 0 0 0 0 1 forward_v I I I I #
coedge $-1 $260 $259 $252 $327 forward $159 $-1 #
coedge $-1 $252 $161 $163 $256 reversed $91 $-1 #
coedge $-1 $161 $251 $250 $327 reversed $91 $-1 #
coedge $-1 $169 $164 $161 $254 forward $170 $-1 #
edge $-1 $257 -83.958437865668884 $328 -70.907474963625347 $253 $329 forward 7 unknown #
coedge $-1 $163 $162 $260 $330 reversed $57 $-1 #
edge $-1 $331 107.32541502813879 $257 123.06772057252729 $251 $332 forward 7 unknown #
vertex $-1 $165 $333 #
straight-curve $-1 61.533860286263625 7.3697242823576161 2.9294841029722036 0 1 0 I I #
coedge $-1 $250 $166 $169 $264 forward $159 $-1 #
coedge $-1 $166 $250 $255 $330 forward $159 $-1 #
vertex $-1 $167 $334 #
straight-curve $-1 47.371515542960147 7.9601088754246199 15.980447005015748 1 0 0 I I #
straight-curve $-1 -7.2847342310630268 7.9601088754246199 104.95724941995557 -0.55919289150049634 0 0.82903758062907751 I I #
edge $-1 $171 7.9601088754246199 $328 21.518788254005845 $169 $335 forward 7 unknown #
point $-1 61.533860286263618 7.9601088754246199 15.980447005015749 #
point $-1 61.533860286263618 7.9601088754246199 2.9294841029722107 #
edge $-1 $336 1 $336 0 $174 $-1 forward 7 unknown #
vertex $-1 $175 $337 #
ellipse-curve $-1 51.506236783548601 14.739448564715232 5.6600925141312572 0.82903758062907751 0 0.55919289150049634 1.1183857830009927 0 -1.658075161258155 1 I I #
point $-1 58.25075339113917 14.739448564715232 7.7968903927358415 #
plane-surface $-1 0 0 15.980447005015749 0 0 1 1 0 0 forward_v I I I I #
coedge $-1 $282 $281 $274 $338 forward $179 $-1 #
coedge $-1 $274 $181 $183 $278 reversed $106 $-1 #
coedge $-1 $181 $273 $272 $338 reversed $106 $-1 #
coedge $-1 $189 $184 $181 $276 forward $190 $-1 #
edge $-1 $279 -29.049937871610737 $339 -20.246952515359837 $275 $340 forward 7 unknown #
coedge $-1 $183 $182 $282 $341 reversed $66 $-1 #
edge $-1 $342 -5.0869049068944123e-014 $279 15.742305544388447 $273 $343 forward 7 unknown #
vertex $-1 $185 $344 #
straight-curve $-1 -52.730874930012718 7.3697242823576161 15.980447005015749 0 1 0 I I #
coedge $-1 $272 $186 $189 $286 reversed $179 $-1 #
coedge $-1 $186 $272 $277 $341 forward $179 $-1 #
vertex $-1 $187 $345 #
straight-curve $-1 -61.533860286263618 7.9601088754246199 35.874039310149428 0 0 1 I I #
straight-curve $-1 -61.53386028626359 7.9601088754246199 2.9294841029722392 -0.55919289150049634 0 -0.82903758062907751 I I #
edge $-1 $339 -21.518788254005845 $191 -7.9601088754246199 $281 $346 forward 7 unknown #
point $-1 -61.533860286263618 7.9601088754246199 15.980447005015749 #
point $-1 -52.730874930012718 7.9601088754246199 15.980447005015749 #
edge $-1 $347 1 $347 0 $194 $-1 forward 7 unknown #
vertex $-1 $195 $348 #
ellipse-curve $-1 -51.506236783548609 14.739448564715232 5.6600925141312572 -0.82903758062907751 0 0.55919289150049634 1.1183857830009927 0 1.658075161258155 1 I I #
point $-1 -56.013981825137193 14.739448564715232 11.113040715252151 #
plane-surface $-1 61.533860286263618 0 0 -1 0 0 0 0 1 forward_v I I I I #
coedge $-1 $203 $201 $205 $298 reversed $121 $-1 #
edge $-1 $216 -15.980447005015749 $300 15.980447005015749 $215 $349 forward 7 unknown #
vertex $-1 $298 $350 #
straight-curve $-1 -61.533860286263618 -40.073722287444497 0 0 0 -1 I I #
edge $-1 $296 -40.073722287444497 $300 40.073722287444497 $294 $351 forward 7 unknown #
straight-curve $-1 0 -40.073722287444497 -15.980447005015749 -1 0 0 I I #
vertex $-1 $208 $352 #
straight-curve $-1 0 40.073722287444497 -15.980447005015749 1 0 0 I I #
point $-1 61.533860286263618 40.073722287444497 -15.980447005015749 #
point $-1 61.533860286263618 -40.073722287444497 -15.980447005015749 #
straight-curve $-1 -61.533860286263618 0 15.980447005015749 0 -1 0 I I #
point $-1 -61.533860286263618 40.073722287444497 15.980447005015749 #
point $-1 -61.533860286263618 -40.073722287444497 15.980447005015749 #
straight-curve $-1 61.533860286263618 -40.073722287444497 0 0 0 -1 I I #
straight-curve $-1 61.533860286263618 40.073722287444497 0 0 0 -1 I I #
plane-surface $-1 61.533860286263618 0 0 -1 0 0 0 0 1 forward_v I I I I #
coedge $-1 $313 $228 $239 $322 forward $140 $-1 #
coedge $-1 $228 $313 $242 $324 reversed $140 $-1 #
straight-curve $-1 61.533860286263618 -27.619478669111242 -4.3833505948489035 0 0 1 I I #
coedge $-1 $311 $310 $231 $314 forward $140 $-1 #
edge $-1 $317 10.696178429972306 $315 23.150422048305561 $313 $353 forward 7 unknown #
vertex $-1 $233 $354 #
straight-curve $-1 0 -40.073722287444497 -10.724277905095393 1 0 0 I I #
vertex $-1 $314 $355 #
straight-curve $-1 0 -27.619478669111242 -10.724277905095393 1 0 0 I I #
point $-1 61.533860286263618 -40.073722287444497 -10.724277905095393 #
point $-1 61.533860286263618 -27.619478669111242 -10.724277905095393 #
straight-curve $-1 -61.533860286263618 -16.923300239138936 -6.8091244743002211 0 1 0 I I #
edge $-1 $240 2.4257738794513175 $317 6.3409273102464896 $310 $356 forward 7 unknown #
point $-1 -61.533860286263618 -27.619478669111242 -6.8091244743002211 #
edge $-1 $244 6.8091244743002211 $315 10.724277905095393 $311 $357 forward 7 unknown #
point $-1 -61.533860286263618 -40.073722287444497 -6.8091244743002211 #
straight-curve $-1 61.533860286263618 -40.073722287444497 0 0 0 -1 I I #
edge $-1 $328 -14.162344743303471 $331 -5.359359387052578 $250 $358 forward 7 unknown #
vertex $-1 $327 $359 #
straight-curve $-1 61.533860286263618 21.518788254005845 86.887921968641095 0 0 1 I I #
edge $-1 $331 -14.149063971648228 $261 -0.59038459306700375 $260 $360 forward 7 unknown #
vertex $-1 $330 $361 #
straight-curve $-1 -7.2847342310630268 21.518788254005845 104.95724941995557 0.55919289150049634 0 -0.82903758062907751 I I #
point $-1 61.533860286263618 21.518788254005845 2.9294841029722107 #
point $-1 52.730874930012725 7.9601088754246199 15.980447005015748 #
straight-curve $-1 61.533860286263618 0 15.980447005015749 0 1 0 I I #
vertex $-1 $267 $362 #
point $-1 52.624622566549597 14.739448564715232 4.0020173528731027 #
edge $-1 $339 19.89359230513368 $342 32.944555207177231 $272 $363 forward 7 unknown #
vertex $-1 $286 $364 #
straight-curve $-1 -81.780812801623455 21.518788254005845 15.980447005015748 -1 0 0 I I #
edge $-1 $342 -14.149063971648228 $283 -0.59038459306700375 $282 $365 forward 7 unknown #
vertex $-1 $341 $366 #
straight-curve $-1 -61.53386028626359 21.518788254005845 2.9294841029722392 0.55919289150049634 0 0.82903758062907751 I I #
point $-1 -52.730874930012718 21.518788254005845 15.980447005015749 #
point $-1 -61.533860286263618 7.9601088754246199 2.929484102972197 #
straight-curve $-1 -61.533860286263618 0 15.980447005015749 0 -1 0 I I #
vertex $-1 $289 $367 #
point $-1 -50.387851000547613 14.739448564715232 7.3181676753894127 #
straight-curve $-1 -61.533860286263618 40.073722287444497 0 0 0 -1 I I #
point $-1 -61.533860286263618 -40.073722287444497 -15.980447005015749 #
straight-curve $-1 -61.533860286263618 0 -15.980447005015749 0 1 0 I I #
point $-1 -61.533860286263618 40.073722287444497 -15.980447005015749 #
straight-curve $-1 -61.533860286263618 -16.923300239138936 -10.724277905095393 0 -1 0 I I #
point $-1 -61.533860286263618 -40.073722287444497 -10.724277905095393 #
point $-1 -61.533860286263618 -27.619478669111242 -10.724277905095393 #
straight-curve $-1 -61.533860286263618 -27.619478669111242 -4.3833505948489035 0 0 -1 I I #
straight-curve $-1 -61.533860286263618 -40.073722287444497 0 0 0 -1 I I #
straight-curve $-1 47.371515542960147 21.518788254005845 15.980447005015748 -1 0 0 I I #
point $-1 61.533860286263618 21.518788254005845 15.980447005015749 #
straight-curve $-1 52.730874930012732 7.3697242823576161 15.980447005015741 0 -1 0 I I #
point $-1 52.730874930012725 21.518788254005845 15.980447005015748 #
point $-1 49.848161622290448 14.739448564715232 4.5417067311302652 #
straight-curve $-1 -61.533860286263618 21.518788254005845 35.874039310149428 0 0 -1 I I #
point $-1 -61.533860286263618 21.518788254005845 15.980447005015749 #
straight-curve $-1 -61.533860286263618 7.3697242823576161 2.9294841029721992 0 -1 0 I I #
point $-1 -61.533860286263618 21.518788254005845 2.929484102972197 #
point $-1 -49.848161622290455 14.739448564715232 4.5417067311302652 #
End-of-ACIS-data 