500 0 5 0           
7 Unknown 11 ACIS 5.0 NT 24 Fri Mar 26 00:02:38 1999 
-1 9.9999999999999995e-007 1e-010 
body $-1 $5 $-1 $6 #
body $-1 $7 $-1 $8 #
body $-1 $9 $-1 $10 #
body $-1 $11 $-1 $12 #
body $-1 $13 $-1 $14 #
lump $-1 $-1 $15 $0 #
transform $-1 1 0 0 0 1 0 0 0 1 58.663899655140838 31.531197068281351 9.7482371184670722 1 rotate no_reflect no_shear #
lump $-1 $-1 $16 $1 #
transform $-1 1 0 0 0 1 0 0 0 1 58.663899655140838 31.531197068281351 9.7482371184670722 1 rotate no_reflect no_shear #
lump $-1 $-1 $17 $2 #
transform $-1 1 0 0 0 1 0 0 0 1 58.663899655140838 31.531197068281351 9.7482371184670722 1 rotate no_reflect no_shear #
lump $-1 $-1 $18 $3 #
transform $-1 1 0 0 0 1 0 0 0 1 58.663899655140838 31.531197068281351 9.7482371184670722 1 rotate no_reflect no_shear #
lump $-1 $-1 $19 $4 #
transform $-1 1 0 0 0 1 0 0 0 1 58.663899655140838 31.531197068281351 9.7482371184670722 1 rotate no_reflect no_shear #
shell $-1 $-1 $-1 $20 $-1 $5 #
shell $-1 $-1 $-1 $21 $-1 $7 #
shell $-1 $-1 $-1 $22 $-1 $9 #
shell $-1 $-1 $-1 $23 $-1 $11 #
shell $-1 $-1 $-1 $24 $-1 $13 #
face $-1 $25 $26 $15 $-1 $27 forward single #
face $-1 $28 $29 $16 $-1 $30 forward single #
face $-1 $31 $32 $17 $-1 $33 forward single #
face $-1 $34 $35 $18 $-1 $36 forward single #
face $-1 $37 $38 $19 $-1 $39 reversed single #
face $-1 $40 $41 $15 $-1 $42 reversed single #
loop $-1 $-1 $43 $20 #
plane-surface $-1 0 0 9.7482371184670722 0 0 1 1 0 0 forward_v I I I I #
face $-1 $44 $45 $16 $-1 $46 forward single #
loop $-1 $-1 $47 $21 #
plane-surface $-1 0 -26.105034415996037 5.8543568014173566 0 0 1 1 0 0 forward_v I I I I #
face $-1 $48 $49 $17 $-1 $50 forward single #
loop $-1 $-1 $51 $22 #
plane-surface $-1 0 26.105034415996037 5.8543568014173566 0 0 1 1 0 0 forward_v I I I I #
face $-1 $52 $53 $18 $-1 $54 forward single #
loop $-1 $-1 $55 $23 #
plane-surface $-1 18.522631800062811 -20.678871763710731 166.34564062019066 0 1 0 0.51503808176128008 0 0.85716729658548041 forward_v I I I I #
face $-1 $56 $57 $19 $-1 $58 reversed single #
loop $-1 $59 $60 $24 #
cone-surface $-1 53.533930596217012 -17.553920458000512 5.1045362558073215 -0.51503808176128008 0 -0.85716729658548041 1.2857509448782207 0 -0.77255712264192011 1 I I 0 1 1.5 forward I I I I #
face $-1 $61 $62 $15 $-1 $63 reversed single #
loop $-1 $-1 $64 $25 #
plane-surface $-1 0 0 -9.7482371184670722 0 0 1 1 0 0 forward_v I I I I #
coedge $-1 $65 $66 $67 $68 forward $26 $-1 #
face $-1 $69 $70 $16 $-1 $71 forward single #
loop $-1 $-1 $72 $28 #
plane-surface $-1 0 -20.678871763710724 7.8012969599422153 0 -1 0 0 0 -1 forward_v I I I I #
coedge $-1 $73 $74 $75 $76 reversed $29 $-1 #
face $-1 $77 $78 $17 $-1 $79 forward single #
loop $-1 $-1 $80 $31 #
plane-surface $-1 0 20.678871763710724 7.8012969599422153 0 1 0 0 0 1 forward_v I I I I #
coedge $-1 $81 $82 $83 $84 reversed $32 $-1 #
face $-1 $85 $86 $18 $-1 $87 forward single #
loop $-1 $-1 $88 $34 #
plane-surface $-1 18.522631800062811 -14.428969152290295 166.34564062019066 0 -1 0 -0.51503808176128008 0 -0.85716729658548041 forward_v I I I I #
coedge $-1 $89 $90 $91 $92 forward $35 $-1 #
face $-1 $93 $94 $19 $-1 $95 forward single #
loop $-1 $96 $97 $37 #
cone-surface $-1 51.679458704331878 -17.553920458000512 2.0181767914255833 -0.51503808176128008 0 -0.85716729658548041 0.64287547243911036 0 -0.38627856132096006 1 I I -0.70710678118654757 0.70710678118654757 0.75 forward I I I I #
loop $-1 $-1 $98 $24 #
coedge $-1 $60 $60 $99 $100 reversed $38 $-1 #
face $-1 $101 $102 $15 $-1 $103 reversed single #
loop $-1 $-1 $104 $40 #
plane-surface $-1 0 -31.531197068281351 0 0 1 0 0 0 1 forward_v I I I I #
coedge $-1 $105 $106 $107 $108 forward $41 $-1 #
coedge $-1 $109 $43 $110 $111 forward $26 $-1 #
coedge $-1 $43 $109 $112 $113 forward $26 $-1 #
coedge $-1 $114 $115 $43 $68 reversed $116 $-1 #
edge $-1 $117 -31.531197068281351 $118 31.531197068281351 $67 $119 forward 7 unknown #
face $-1 $120 $121 $16 $-1 $122 reversed single #
loop $-1 $-1 $123 $44 #
plane-surface $-1 0 0 9.7482371184670722 0 0 1 1 0 0 forward_v I I I I #
coedge $-1 $124 $125 $126 $127 reversed $45 $-1 #
coedge $-1 $128 $47 $125 $129 reversed $29 $-1 #
coedge $-1 $47 $128 $130 $131 reversed $29 $-1 #
coedge $-1 $132 $126 $47 $76 forward $121 $-1 #
edge $-1 $133 7.6263545557127053 $134 18.478679860283332 $75 $135 forward 7 unknown #
face $-1 $136 $137 $17 $-1 $138 reversed single #
loop $-1 $-1 $139 $48 #
plane-surface $-1 0 0 9.7482371184670722 0 0 1 1 0 0 forward_v I I I I #
coedge $-1 $140 $141 $142 $143 reversed $49 $-1 #
coedge $-1 $144 $51 $145 $146 reversed $32 $-1 #
coedge $-1 $51 $144 $141 $147 reversed $32 $-1 #
coedge $-1 $148 $149 $51 $84 forward $150 $-1 #
edge $-1 $151 -18.478679860283332 $152 -7.6263545557127053 $83 $153 forward 7 unknown #
face $-1 $154 $155 $18 $-1 $156 forward single #
loop $-1 $-1 $157 $52 #
plane-surface $-1 -41.905652893977106 -17.553920458000512 65.776088071072721 0.51503808176128008 0 0.85716729658548041 0.85716729658548041 0 -0.51503808176128008 forward_v I I I I #
coedge $-1 $158 $159 $160 $161 reversed $53 $-1 #
coedge $-1 $90 $55 $162 $163 reversed $35 $-1 #
coedge $-1 $55 $89 $164 $165 forward $35 $-1 #
coedge $-1 $166 $167 $55 $92 reversed $168 $-1 #
edge $-1 $169 57.820853199486564 $170 58.663899655140838 $91 $171 forward 7 unknown #
face $-1 $172 $173 $19 $-1 $174 forward single #
loop $-1 $-1 $175 $56 #
plane-surface $-1 18.522631800062811 -20.678871763710731 166.34564062019066 0 1 0 0.51503808176128008 0 0.85716729658548041 forward_v I I I I #
loop $-1 $-1 $176 $37 #
coedge $-1 $97 $97 $98 $177 forward $57 $-1 #
coedge $-1 $98 $98 $97 $177 reversed $59 $-1 #
coedge $-1 $99 $99 $60 $100 forward $178 $-1 #
edge $-1 $179 0 $179 6.2831853071796004 $99 $180 forward 7 unknown #
face $-1 $181 $182 $15 $-1 $183 reversed single #
loop $-1 $-1 $184 $61 #
plane-surface $-1 -58.663899655140838 0 0 1 0 0 0 0 -1 forward_v I I I I #
coedge $-1 $185 $112 $186 $187 forward $62 $-1 #
coedge $-1 $188 $64 $185 $189 forward $41 $-1 #
coedge $-1 $64 $188 $190 $191 forward $41 $-1 #
coedge $-1 $115 $114 $64 $108 reversed $116 $-1 #
edge $-1 $192 -31.531197068281351 $193 31.531197068281351 $107 $194 forward 7 unknown #
coedge $-1 $66 $65 $195 $196 forward $26 $-1 #
coedge $-1 $197 $198 $65 $111 reversed $182 $-1 #
edge $-1 $118 -58.663899655140838 $199 58.663899655140838 $110 $200 forward 7 unknown #
coedge $-1 $104 $201 $66 $113 reversed $62 $-1 #
edge $-1 $202 -58.663899655140838 $117 58.663899655140838 $112 $203 forward 7 unknown #
coedge $-1 $107 $67 $201 $204 forward $116 $-1 #
coedge $-1 $67 $107 $197 $205 reversed $116 $-1 #
loop $-1 $-1 $114 $181 #
vertex $-1 $68 $206 #
vertex $-1 $68 $207 #
straight-curve $-1 58.663899655140838 0 9.7482371184670722 0 1 0 I I #
face $-1 $208 $209 $16 $-1 $210 reversed single #
loop $-1 $-1 $126 $69 #
plane-surface $-1 58.663899655140838 0 0 -1 0 0 0 0 1 forward_v I I I I #
coedge $-1 $211 $212 $124 $213 forward $70 $-1 #
coedge $-1 $214 $72 $123 $213 reversed $45 $-1 #
coedge $-1 $72 $214 $73 $129 forward $45 $-1 #
coedge $-1 $75 $215 $72 $127 forward $121 $-1 #
edge $-1 $216 -5.8475886384959663 $133 -1.953708321446249 $126 $217 forward 7 unknown #
coedge $-1 $74 $73 $218 $219 reversed $29 $-1 #
edge $-1 $220 -58.663899655140838 $133 58.663899655140838 $125 $221 forward 7 unknown #
coedge $-1 $222 $223 $74 $131 forward $224 $-1 #
edge $-1 $134 -58.663899655140838 $225 58.663899655140838 $130 $226 forward 7 unknown #
coedge $-1 $227 $75 $223 $228 forward $121 $-1 #
vertex $-1 $76 $229 #
vertex $-1 $228 $230 #
straight-curve $-1 58.663899655140838 -13.052517207998019 5.8543568014173566 0 -1 0 I I #
face $-1 $231 $232 $17 $-1 $233 forward single #
loop $-1 $-1 $142 $77 #
plane-surface $-1 -58.663899655140838 0 0 1 0 0 0 0 -1 forward_v I I I I #
coedge $-1 $234 $235 $140 $236 forward $78 $-1 #
coedge $-1 $237 $80 $139 $236 reversed $49 $-1 #
coedge $-1 $80 $237 $82 $147 forward $49 $-1 #
coedge $-1 $238 $239 $80 $143 forward $137 $-1 #
edge $-1 $240 -5.8475886384959663 $241 -1.953708321446249 $142 $242 forward 7 unknown #
coedge $-1 $82 $81 $238 $243 reversed $32 $-1 #
coedge $-1 $244 $245 $81 $146 forward $246 $-1 #
edge $-1 $247 -58.663899655140838 $151 58.663899655140838 $145 $248 forward 7 unknown #
edge $-1 $152 -58.663899655140838 $241 58.663899655140838 $141 $249 forward 7 unknown #
coedge $-1 $250 $83 $237 $251 forward $150 $-1 #
coedge $-1 $83 $252 $244 $253 reversed $150 $-1 #
loop $-1 $-1 $148 $254 #
vertex $-1 $253 $255 #
vertex $-1 $84 $256 #
straight-curve $-1 58.663899655140838 13.052517207998019 5.8543568014173566 0 -1 0 I I #
face $-1 $257 $258 $18 $-1 $259 forward single #
loop $-1 $-1 $260 $85 #
plane-surface $-1 0 0 9.7482371184670722 0 0 1 1 0 0 forward_v I I I I #
coedge $-1 $261 $262 $260 $263 reversed $86 $-1 #
coedge $-1 $159 $88 $262 $264 forward $53 $-1 #
coedge $-1 $88 $158 $265 $266 reversed $53 $-1 #
coedge $-1 $267 $260 $88 $161 forward $155 $-1 #
edge $-1 $268 42.079032298390118 $269 49.402583755109433 $160 $270 forward 7 unknown #
coedge $-1 $271 $272 $89 $163 forward $273 $-1 #
edge $-1 $274 -77.825016933062528 $170 -77.318463508677979 $162 $275 forward 7 unknown #
coedge $-1 $276 $261 $90 $165 reversed $86 $-1 #
edge $-1 $274 -117.32779931028168 $169 -116.34427315498792 $90 $277 forward 7 unknown #
coedge $-1 $278 $91 $279 $280 reversed $168 $-1 #
coedge $-1 $91 $281 $271 $282 reversed $168 $-1 #
loop $-1 $-1 $167 $283 #
vertex $-1 $92 $284 #
vertex $-1 $282 $285 #
straight-curve $-1 0 -20.678871763710724 5.8543568014173566 1 0 0 I I #
face $-1 $286 $178 $19 $-1 $287 forward single #
loop $-1 $-1 $288 $93 #
plane-surface $-1 18.522631800062811 -14.428969152290295 166.34564062019066 0 -1 0 -0.51503808176128008 0 -0.85716729658548041 forward_v I I I I #
coedge $-1 $289 $290 $291 $292 forward $94 $-1 #
coedge $-1 $176 $176 $-1 $293 forward $96 $-1 #
edge $-1 $294 0 $294 6.2831853071796004 $97 $295 forward 7 unknown #
loop $-1 $296 $99 $172 #
vertex $-1 $100 $297 #
ellipse-curve $-1 55.002123926781181 -17.553920458000512 7.5480202477499416 -0.51503808176128008 0 -0.85716729658548041 1.2857509448782207 0 -0.77255712264192011 1 I I #
face $-1 $-1 $116 $15 $-1 $298 reversed single #
loop $-1 $-1 $197 $101 #
plane-surface $-1 0 31.531197068281351 0 0 -1 0 0 0 -1 forward_v I I I I #
coedge $-1 $299 $195 $198 $300 forward $102 $-1 #
coedge $-1 $201 $104 $105 $189 reversed $62 $-1 #
coedge $-1 $195 $299 $104 $187 reversed $102 $-1 #
edge $-1 $202 -9.7482371184670722 $301 9.7482371184670722 $186 $302 forward 7 unknown #
coedge $-1 $106 $105 $299 $303 forward $41 $-1 #
edge $-1 $193 -58.663899655140838 $301 58.663899655140838 $185 $304 forward 7 unknown #
coedge $-1 $198 $197 $106 $191 reversed $182 $-1 #
edge $-1 $305 -58.663899655140838 $192 58.663899655140838 $190 $306 forward 7 unknown #
vertex $-1 $108 $307 #
vertex $-1 $204 $308 #
straight-curve $-1 58.663899655140838 0 -9.7482371184670722 0 -1 0 I I #
coedge $-1 $184 $186 $109 $196 reversed $102 $-1 #
edge $-1 $199 -31.531197068281351 $202 31.531197068281351 $195 $309 forward 7 unknown #
coedge $-1 $190 $110 $115 $205 forward $182 $-1 #
coedge $-1 $110 $190 $184 $300 reversed $182 $-1 #
vertex $-1 $111 $310 #
straight-curve $-1 0 31.531197068281351 9.7482371184670722 -1 0 0 I I #
coedge $-1 $112 $185 $114 $204 reversed $62 $-1 #
vertex $-1 $196 $311 #
straight-curve $-1 0 -31.531197068281351 9.7482371184670722 1 0 0 I I #
edge $-1 $117 -9.7482371184670722 $193 9.7482371184670722 $114 $312 forward 7 unknown #
edge $-1 $118 -9.7482371184670722 $192 9.7482371184670722 $115 $313 forward 7 unknown #
point $-1 58.663899655140838 -31.531197068281351 9.7482371184670722 #
point $-1 58.663899655140838 31.531197068281351 9.7482371184670722 #
face $-1 $314 $224 $16 $-1 $315 reversed single #
loop $-1 $-1 $316 $120 #
plane-surface $-1 0 0 -9.7482371184670722 0 0 1 1 0 0 forward_v I I I I #
coedge $-1 $317 $123 $215 $318 forward $70 $-1 #
coedge $-1 $123 $317 $319 $320 forward $70 $-1 #
edge $-1 $321 -58.663899655140838 $216 58.663899655140838 $123 $322 forward 7 unknown #
coedge $-1 $125 $124 $323 $324 reversed $45 $-1 #
coedge $-1 $126 $325 $211 $318 reversed $121 $-1 #
vertex $-1 $318 $326 #
straight-curve $-1 58.663899655140838 -20.678871763710724 3.9006484799711076 0 0 -1 I I #
coedge $-1 $323 $327 $128 $219 forward $328 $-1 #
edge $-1 $225 -18.478679860283332 $220 -7.6263545557127053 $218 $329 forward 7 unknown #
vertex $-1 $219 $330 #
straight-curve $-1 0 -20.678871763710724 5.8543568014173566 1 0 0 I I #
coedge $-1 $331 $130 $327 $332 forward $224 $-1 #
coedge $-1 $130 $331 $132 $228 reversed $224 $-1 #
loop $-1 $-1 $130 $208 #
vertex $-1 $332 $333 #
straight-curve $-1 0 -31.531197068281351 5.8543568014173566 -1 0 0 I I #
coedge $-1 $325 $132 $316 $334 reversed $121 $-1 #
edge $-1 $134 -5.8543568014173566 $335 9.7482371184670722 $132 $336 forward 7 unknown #
point $-1 58.663899655140838 -20.678871763710724 5.8543568014173566 #
point $-1 58.663899655140838 -31.531197068281351 5.8543568014173566 #
face $-1 $254 $337 $17 $-1 $338 forward single #
loop $-1 $-1 $339 $136 #
plane-surface $-1 0 -26.105034415996037 5.8543568014173566 0 0 1 1 0 0 forward_v I I I I #
coedge $-1 $340 $139 $239 $341 forward $78 $-1 #
coedge $-1 $139 $340 $250 $342 forward $78 $-1 #
edge $-1 $343 -58.663899655140838 $240 58.663899655140838 $139 $344 forward 7 unknown #
coedge $-1 $141 $140 $148 $251 reversed $49 $-1 #
coedge $-1 $345 $142 $144 $243 forward $137 $-1 #
coedge $-1 $142 $346 $234 $341 reversed $137 $-1 #
vertex $-1 $341 $347 #
vertex $-1 $243 $348 #
straight-curve $-1 -58.663899655140838 20.678871763710724 3.9006484799711076 0 0 -1 I I #
edge $-1 $241 7.6263545557127053 $247 18.478679860283332 $238 $349 forward 7 unknown #
coedge $-1 $350 $145 $149 $253 forward $246 $-1 #
coedge $-1 $145 $350 $345 $351 reversed $246 $-1 #
loop $-1 $-1 $145 $352 #
vertex $-1 $351 $353 #
straight-curve $-1 0 31.531197068281351 5.8543568014173566 1 0 0 I I #
straight-curve $-1 0 20.678871763710724 5.8543568014173566 -1 0 0 I I #
coedge $-1 $354 $148 $235 $342 reversed $150 $-1 #
edge $-1 $152 1.953708321446249 $343 5.8475886384959663 $148 $355 forward 7 unknown #
coedge $-1 $149 $356 $357 $358 reversed $150 $-1 #
edge $-1 $151 -5.8543568014173566 $359 9.7482371184670722 $149 $360 forward 7 unknown #
face $-1 $361 $150 $17 $-1 $362 reversed single #
point $-1 58.663899655140838 31.531197068281351 5.8543568014173566 #
point $-1 58.663899655140838 20.678871763710724 5.8543568014173566 #
face $-1 $363 $364 $18 $-1 $365 forward single #
loop $-1 $-1 $366 $154 #
plane-surface $-1 0 26.105034415996037 5.8543568014173566 0 0 1 1 0 0 forward_v I I I I #
coedge $-1 $160 $367 $157 $263 forward $155 $-1 #
coedge $-1 $164 $157 $368 $369 reversed $86 $-1 #
coedge $-1 $157 $276 $158 $264 reversed $86 $-1 #
edge $-1 $370 -11.901911534710475 $268 -5.6520089232900386 $260 $371 forward 7 unknown #
edge $-1 $268 108.783899553615 $372 117.32779931028168 $158 $373 forward 7 unknown #
coedge $-1 $272 $374 $159 $266 forward $273 $-1 #
edge $-1 $269 73.424583191628258 $372 77.825016933062528 $265 $375 forward 7 unknown #
coedge $-1 $376 $160 $374 $377 forward $155 $-1 #
vertex $-1 $263 $378 #
vertex $-1 $377 $379 #
straight-curve $-1 9.2613159000314056 -14.428969152290295 9.748237118467074 1 0 0 I I #
coedge $-1 $380 $162 $167 $282 forward $273 $-1 #
coedge $-1 $162 $265 $276 $381 forward $273 $-1 #
loop $-1 $-1 $162 $382 #
vertex $-1 $381 $383 #
straight-curve $-1 58.663899655140838 -20.678871763710731 83.172820310095332 0 0 1 I I #
coedge $-1 $262 $164 $272 $381 reversed $86 $-1 #
straight-curve $-1 -41.905652893977106 -20.678871763710731 65.776088071072721 -0.85716729658548041 0 0.51503808176128008 I I #
coedge $-1 $281 $166 $384 $385 reversed $168 $-1 #
coedge $-1 $368 $386 $166 $280 forward $387 $-1 #
edge $-1 $388 -58.663899655140838 $169 57.820853199486564 $279 $171 forward 7 unknown #
coedge $-1 $167 $278 $389 $390 reversed $168 $-1 #
edge $-1 $170 7.6263545557127053 $391 18.478679860283332 $271 $392 forward 7 unknown #
face $-1 $393 $168 $18 $-1 $394 forward single #
point $-1 57.820853199486564 -20.678871763710731 5.854356801417353 #
point $-1 58.663899655140838 -20.678871763710724 5.8543568014173566 #
face $-1 $395 $396 $19 $-1 $397 forward single #
plane-surface $-1 -41.905652893977106 -17.553920458000512 65.776088071072721 0.51503808176128008 0 0.85716729658548041 0.85716729658548041 0 -0.51503808176128008 forward_v I I I I #
coedge $-1 $398 $399 $400 $401 reversed $173 $-1 #
coedge $-1 $290 $175 $402 $403 reversed $94 $-1 #
coedge $-1 $175 $289 $404 $405 forward $94 $-1 #
coedge $-1 $406 $407 $175 $292 reversed $408 $-1 #
edge $-1 $409 57.820853199486564 $410 58.663899655140838 $291 $411 forward 7 unknown #
edge $-1 $412 1 $412 0 $176 $-1 forward 7 unknown #
vertex $-1 $177 $413 #
ellipse-curve $-1 52.065737265652835 -17.553920458000512 2.6610522638646934 0.51503808176128008 0 0.85716729658548041 1.2857509448782207 0 -0.77255712264192011 1 I I #
loop $-1 $-1 $414 $172 #
point $-1 56.287874871659412 -17.553920458000512 6.7754631251080291 #
plane-surface $-1 58.663899655140838 0 0 -1 0 0 0 0 1 forward_v I I I I #
coedge $-1 $186 $184 $188 $303 reversed $102 $-1 #
edge $-1 $199 -9.7482371184670722 $305 9.7482371184670722 $198 $415 forward 7 unknown #
vertex $-1 $303 $416 #
straight-curve $-1 -58.663899655140838 -31.531197068281351 0 0 0 -1 I I #
edge $-1 $301 -31.531197068281351 $305 31.531197068281351 $299 $417 forward 7 unknown #
straight-curve $-1 0 -31.531197068281351 -9.7482371184670722 -1 0 0 I I #
vertex $-1 $191 $418 #
straight-curve $-1 0 31.531197068281351 -9.7482371184670722 1 0 0 I I #
point $-1 58.663899655140838 31.531197068281351 -9.7482371184670722 #
point $-1 58.663899655140838 -31.531197068281351 -9.7482371184670722 #
straight-curve $-1 -58.663899655140838 0 9.7482371184670722 0 -1 0 I I #
point $-1 -58.663899655140838 31.531197068281351 9.7482371184670722 #
point $-1 -58.663899655140838 -31.531197068281351 9.7482371184670722 #
straight-curve $-1 58.663899655140838 -31.531197068281351 0 0 0 -1 I I #
straight-curve $-1 58.663899655140838 31.531197068281351 0 0 0 -1 I I #
face $-1 $419 $328 $16 $-1 $420 reversed single #
plane-surface $-1 0 -31.531197068281351 0 0 1 0 0 0 1 forward_v I I I I #
coedge $-1 $421 $422 $227 $334 forward $209 $-1 #
coedge $-1 $212 $211 $423 $424 forward $70 $-1 #
edge $-1 $216 -20.678871763710724 $425 31.531197068281351 $215 $426 forward 7 unknown #
coedge $-1 $427 $323 $212 $320 reversed $328 $-1 #
edge $-1 $428 -31.531197068281351 $321 20.678871763710724 $319 $429 forward 7 unknown #
vertex $-1 $324 $430 #
straight-curve $-1 0 -20.678871763710724 9.7482371184670722 1 0 0 I I #
coedge $-1 $319 $218 $214 $324 forward $328 $-1 #
edge $-1 $220 1.953708321446249 $321 5.8475886384959663 $323 $431 forward 7 unknown #
coedge $-1 $215 $227 $432 $433 reversed $121 $-1 #
point $-1 58.663899655140838 -20.678871763710724 9.748237118467074 #
coedge $-1 $218 $434 $222 $332 reversed $328 $-1 #
loop $-1 $-1 $323 $314 #
straight-curve $-1 -58.663899655140838 -13.052517207998019 5.8543568014173566 0 1 0 I I #
point $-1 -58.663899655140838 -20.678871763710724 5.8543568014173566 #
coedge $-1 $223 $222 $421 $435 reversed $224 $-1 #
edge $-1 $225 -5.8543568014173566 $436 9.7482371184670722 $327 $437 forward 7 unknown #
point $-1 -58.663899655140838 -31.531197068281351 5.8543568014173566 #
edge $-1 $438 -31.531197068281351 $335 31.531197068281351 $227 $439 forward 7 unknown #
vertex $-1 $228 $440 #
straight-curve $-1 58.663899655140838 -31.531197068281351 0 0 0 -1 I I #
loop $-1 $-1 $441 $231 #
plane-surface $-1 0 -20.678871763710724 7.8012969599422153 0 -1 0 0 0 -1 forward_v I I I I #
coedge $-1 $442 $443 $444 $445 reversed $232 $-1 #
coedge $-1 $235 $234 $446 $447 forward $78 $-1 #
edge $-1 $240 -20.678871763710724 $448 20.678871763710724 $239 $449 forward 7 unknown #
edge $-1 $450 -20.678871763710724 $343 20.678871763710724 $250 $451 forward 7 unknown #
vertex $-1 $236 $452 #
straight-curve $-1 0 20.678871763710724 9.7482371184670722 -1 0 0 I I #
coedge $-1 $453 $238 $245 $351 forward $137 $-1 #
coedge $-1 $239 $454 $455 $456 forward $137 $-1 #
point $-1 -58.663899655140838 20.678871763710724 9.748237118467074 #
point $-1 -58.663899655140838 20.678871763710724 5.8543568014173566 #
straight-curve $-1 -58.663899655140838 13.052517207998019 5.8543568014173566 0 1 0 I I #
coedge $-1 $245 $244 $457 $458 reversed $246 $-1 #
edge $-1 $247 -5.8543568014173566 $459 9.7482371184670722 $245 $460 forward 7 unknown #
face $-1 $-1 $246 $17 $-1 $461 reversed single #
point $-1 -58.663899655140838 31.531197068281351 5.8543568014173566 #
coedge $-1 $444 $250 $441 $462 forward $150 $-1 #
straight-curve $-1 58.663899655140838 20.678871763710724 3.9006484799711076 0 0 1 I I #
coedge $-1 $252 $444 $463 $464 forward $150 $-1 #
coedge $-1 $465 $457 $252 $358 forward $466 $-1 #
edge $-1 $359 -31.531197068281351 $467 31.531197068281351 $252 $468 forward 7 unknown #
vertex $-1 $358 $469 #
straight-curve $-1 58.663899655140838 31.531197068281351 0 0 0 -1 I I #
face $-1 $470 $466 $17 $-1 $471 reversed single #
plane-surface $-1 58.663899655140838 0 0 -1 0 0 0 0 1 forward_v I I I I #
face $-1 $283 $472 $18 $-1 $473 reversed single #
loop $-1 $-1 $474 $257 #
plane-surface $-1 0 20.678871763710724 7.8012969599422153 0 1 0 0 0 1 forward_v I I I I #
coedge $-1 $475 $476 $477 $478 reversed $258 $-1 #
coedge $-1 $260 $479 $480 $481 forward $155 $-1 #
coedge $-1 $480 $279 $261 $369 forward $387 $-1 #
edge $-1 $169 -83.454582951404177 $370 -75.894209350031289 $368 $482 forward 7 unknown #
vertex $-1 $263 $483 #
straight-curve $-1 51.340348198421509 -8.776960229000256 9.748237118467074 0 1 0 I I #
vertex $-1 $381 $484 #
straight-curve $-1 -41.905652893977106 -14.428969152290295 65.776088071072721 0.85716729658548041 0 -0.51503808176128008 I I #
coedge $-1 $265 $485 $267 $377 reversed $273 $-1 #
straight-curve $-1 58.663899655140838 -14.428969152290295 83.172820310095332 0 0 -1 I I #
coedge $-1 $479 $267 $486 $487 forward $155 $-1 #
edge $-1 $269 -14.428969152290295 $488 20.678871763710724 $374 $489 forward 7 unknown #
point $-1 51.340348198421523 -14.428969152290295 9.748237118467074 #
point $-1 58.663899655140838 -14.428969152290295 9.7482371184670722 #
coedge $-1 $490 $271 $491 $492 forward $273 $-1 #
edge $-1 $372 5.6520089232900386 $274 11.901911534710475 $272 $493 forward 7 unknown #
face $-1 $494 $273 $18 $-1 $495 reversed single #
point $-1 58.663899655140838 -20.678871763710731 5.3478033770327968 #
coedge $-1 $496 $497 $278 $385 forward $472 $-1 #
edge $-1 $498 -18.478679860283332 $388 -7.6263545557127053 $384 $499 forward 7 unknown #
coedge $-1 $279 $480 $496 $500 reversed $387 $-1 #
loop $-1 $-1 $368 $393 #
vertex $-1 $385 $501 #
coedge $-1 $502 $491 $281 $390 forward $503 $-1 #
edge $-1 $391 -58.663899655140838 $498 58.663899655140838 $389 $504 forward 7 unknown #
vertex $-1 $492 $505 #
straight-curve $-1 58.663899655140838 -13.052517207998019 5.8543568014173566 0 -1 0 I I #
face $-1 $382 $387 $18 $-1 $506 forward single #
plane-surface $-1 0 -26.105034415996037 5.8543568014173566 0 0 1 1 0 0 forward_v I I I I #
face $-1 $507 $508 $19 $-1 $509 forward single #
loop $-1 $-1 $510 $286 #
plane-surface $-1 0 0 9.7482371184670722 0 0 1 1 0 0 forward_v I I I I #
coedge $-1 $399 $288 $511 $512 forward $173 $-1 #
coedge $-1 $288 $398 $513 $514 reversed $173 $-1 #
coedge $-1 $515 $510 $288 $401 forward $396 $-1 #
edge $-1 $516 42.079032298390118 $517 49.402583755109433 $400 $518 forward 7 unknown #
coedge $-1 $519 $520 $289 $403 forward $521 $-1 #
edge $-1 $522 -77.825016933062528 $410 -77.318463508677979 $402 $523 forward 7 unknown #
coedge $-1 $524 $525 $290 $405 reversed $296 $-1 #
edge $-1 $522 -117.32779931028168 $409 -116.34427315498792 $290 $526 forward 7 unknown #
coedge $-1 $527 $291 $528 $529 reversed $408 $-1 #
coedge $-1 $291 $530 $519 $531 reversed $408 $-1 #
loop $-1 $-1 $407 $532 #
vertex $-1 $292 $533 #
vertex $-1 $531 $534 #
straight-curve $-1 0 -20.678871763710724 5.8543568014173566 1 0 0 I I #
vertex $-1 $293 $535 #
point $-1 53.351488210531059 -17.553920458000512 1.8884951412227735 #
coedge $-1 $525 $511 $510 $536 reversed $296 $-1 #
straight-curve $-1 -58.663899655140838 31.531197068281351 0 0 0 -1 I I #
point $-1 -58.663899655140838 -31.531197068281351 -9.7482371184670722 #
straight-curve $-1 -58.663899655140838 0 -9.7482371184670722 0 1 0 I I #
point $-1 -58.663899655140838 31.531197068281351 -9.7482371184670722 #
face $-1 $-1 $537 $16 $-1 $538 reversed single #
plane-surface $-1 -58.663899655140838 0 0 1 0 0 0 0 -1 forward_v I I I I #
coedge $-1 $539 $316 $331 $435 forward $209 $-1 #
coedge $-1 $316 $539 $540 $541 forward $209 $-1 #
coedge $-1 $432 $542 $317 $424 reversed $537 $-1 #
edge $-1 $425 -58.663899655140838 $428 58.663899655140838 $423 $543 forward 7 unknown #
vertex $-1 $318 $544 #
straight-curve $-1 58.663899655140838 0 9.7482371184670722 0 1 0 I I #
coedge $-1 $434 $319 $542 $545 forward $328 $-1 #
vertex $-1 $424 $546 #
straight-curve $-1 -58.663899655140838 0 9.7482371184670722 0 -1 0 I I #
point $-1 -58.663899655140838 -20.678871763710724 9.748237118467074 #
straight-curve $-1 -58.663899655140838 -20.678871763710724 3.9006484799711076 0 0 1 I I #
coedge $-1 $540 $423 $325 $433 forward $537 $-1 #
edge $-1 $425 -9.7482371184670722 $438 9.7482371184670722 $325 $547 forward 7 unknown #
coedge $-1 $327 $427 $539 $548 reversed $328 $-1 #
edge $-1 $335 -58.663899655140838 $436 58.663899655140838 $331 $549 forward 7 unknown #
vertex $-1 $548 $550 #
straight-curve $-1 -58.663899655140838 -31.531197068281351 0 0 0 -1 I I #
vertex $-1 $334 $551 #
straight-curve $-1 58.663899655140838 0 -9.7482371184670722 0 -1 0 I I #
point $-1 58.663899655140838 -31.531197068281351 -9.7482371184670722 #
coedge $-1 $446 $552 $354 $462 reversed $337 $-1 #
coedge $-1 $553 $339 $552 $554 reversed $232 $-1 #
coedge $-1 $339 $553 $555 $556 reversed $232 $-1 #
coedge $-1 $356 $354 $339 $445 forward $150 $-1 #
edge $-1 $557 7.6263545557127053 $558 18.478679860283332 $444 $559 forward 7 unknown #
coedge $-1 $455 $441 $340 $447 reversed $337 $-1 #
edge $-1 $448 -58.663899655140838 $450 58.663899655140838 $340 $560 forward 7 unknown #
vertex $-1 $456 $561 #
straight-curve $-1 -58.663899655140838 0 9.7482371184670722 0 -1 0 I I #
vertex $-1 $342 $562 #
straight-curve $-1 58.663899655140838 0 9.7482371184670722 0 1 0 I I #
point $-1 58.663899655140838 20.678871763710724 9.748237118467074 #
coedge $-1 $563 $345 $564 $565 reversed $137 $-1 #
coedge $-1 $346 $563 $553 $566 forward $137 $-1 #
coedge $-1 $552 $446 $346 $456 reversed $337 $-1 #
edge $-1 $567 1.953708321446249 $448 5.8475886384959663 $346 $568 forward 7 unknown #
coedge $-1 $357 $564 $350 $458 forward $466 $-1 #
edge $-1 $459 -58.663899655140838 $359 58.663899655140838 $350 $569 forward 7 unknown #
vertex $-1 $458 $570 #
straight-curve $-1 -58.663899655140838 31.531197068281351 0 0 0 -1 I I #
plane-surface $-1 0 31.531197068281351 0 0 -1 0 0 0 -1 forward_v I I I I #
edge $-1 $450 -5.8475886384959663 $557 -1.953708321446249 $354 $571 forward 7 unknown #
coedge $-1 $555 $572 $356 $464 reversed $573 $-1 #
edge $-1 $558 -5.8543568014173566 $467 9.7482371184670722 $356 $574 forward 7 unknown #
coedge $-1 $564 $357 $572 $575 forward $466 $-1 #
loop $-1 $-1 $357 $361 #
vertex $-1 $464 $576 #
straight-curve $-1 58.663899655140838 0 -9.7482371184670722 0 -1 0 I I #
point $-1 58.663899655140838 31.531197068281351 -9.7482371184670722 #
face $-1 $352 $573 $17 $-1 $577 reversed single #
plane-surface $-1 0 0 -9.7482371184670722 0 0 1 1 0 0 forward_v I I I I #
loop $-1 $-1 $578 $363 #
plane-surface $-1 -58.663899655140838 0 0 1 0 0 0 0 -1 forward_v I I I I #
coedge $-1 $486 $579 $578 $580 reversed $364 $-1 #
coedge $-1 $581 $366 $582 $583 reversed $258 $-1 #
coedge $-1 $366 $581 $579 $584 reversed $258 $-1 #
coedge $-1 $485 $585 $366 $478 forward $273 $-1 #
edge $-1 $586 -18.478679860283332 $587 -7.6263545557127053 $477 $588 forward 7 unknown #
coedge $-1 $367 $376 $589 $590 forward $155 $-1 #
coedge $-1 $386 $368 $367 $481 reversed $387 $-1 #
edge $-1 $591 -58.663899655140838 $370 51.340348198421523 $367 $592 forward 7 unknown #
straight-curve $-1 -13.71368605663729 -20.678871763710724 48.8366451188962 -0.85716729658548041 0 0.51503808176128008 I I #
point $-1 51.340348198421523 -20.678871763710731 9.748237118467074 #
point $-1 58.663899655140838 -14.428969152290295 5.3478033770327968 #
coedge $-1 $374 $477 $593 $594 forward $273 $-1 #
coedge $-1 $593 $474 $376 $487 reversed $364 $-1 #
edge $-1 $488 -58.663899655140838 $595 58.663899655140838 $376 $596 forward 7 unknown #
vertex $-1 $487 $597 #
straight-curve $-1 58.663899655140838 0 9.7482371184670722 0 1 0 I I #
coedge $-1 $585 $380 $598 $599 reversed $273 $-1 #
coedge $-1 $389 $600 $380 $492 reversed $503 $-1 #
edge $-1 $391 -5.8543568014173566 $601 9.7482371184670722 $380 $602 forward 7 unknown #
straight-curve $-1 58.663899655140831 -8.776960229000256 5.3478033770328075 0 -1 0 I I #
face $-1 $603 $604 $18 $-1 $605 reversed single #
plane-surface $-1 58.663899655140838 0 0 -1 0 0 0 0 1 forward_v I I I I #
coedge $-1 $589 $384 $386 $500 forward $472 $-1 #
coedge $-1 $384 $606 $502 $607 reversed $472 $-1 #
vertex $-1 $607 $608 #
straight-curve $-1 -58.663899655140838 -13.052517207998019 5.8543568014173566 0 1 0 I I #
edge $-1 $388 1.953708321446249 $591 5.8475886384959663 $496 $609 forward 7 unknown #
point $-1 -58.663899655140838 -20.678871763710724 5.8543568014173566 #
coedge $-1 $600 $389 $497 $607 forward $503 $-1 #
loop $-1 $-1 $389 $603 #
straight-curve $-1 0 -31.531197068281351 5.8543568014173566 -1 0 0 I I #
point $-1 58.663899655140838 -31.531197068281351 5.8543568014173566 #
plane-surface $-1 0 -20.678871763710724 7.8012969599422153 0 -1 0 0 0 -1 forward_v I I I I #
face $-1 $610 $611 $19 $-1 $612 forward single #
loop $-1 $-1 $613 $395 #
plane-surface $-1 0 26.105034415996037 5.8543568014173566 0 0 1 1 0 0 forward_v I I I I #
coedge $-1 $400 $614 $414 $536 forward $396 $-1 #
coedge $-1 $414 $524 $398 $512 reversed $296 $-1 #
edge $-1 $516 108.783899553615 $615 117.32779931028168 $398 $616 forward 7 unknown #
coedge $-1 $520 $617 $399 $514 forward $521 $-1 #
edge $-1 $517 73.424583191628258 $615 77.825016933062528 $513 $618 forward 7 unknown #
coedge $-1 $619 $400 $617 $620 forward $396 $-1 #
vertex $-1 $536 $621 #
vertex $-1 $620 $622 #
straight-curve $-1 9.2613159000314056 -14.428969152290295 9.748237118467074 1 0 0 I I #
coedge $-1 $623 $402 $407 $531 forward $521 $-1 #
coedge $-1 $402 $513 $524 $624 forward $521 $-1 #
loop $-1 $-1 $402 $625 #
vertex $-1 $624 $626 #
straight-curve $-1 58.663899655140838 -20.678871763710731 83.172820310095332 0 0 1 I I #
coedge $-1 $511 $404 $520 $624 reversed $296 $-1 #
coedge $-1 $404 $414 $627 $628 reversed $296 $-1 #
straight-curve $-1 -41.905652893977106 -20.678871763710731 65.776088071072721 -0.85716729658548041 0 0.51503808176128008 I I #
coedge $-1 $530 $406 $629 $630 reversed $408 $-1 #
coedge $-1 $627 $631 $406 $529 forward $632 $-1 #
edge $-1 $633 -58.663899655140838 $409 57.820853199486564 $528 $411 forward 7 unknown #
coedge $-1 $407 $527 $634 $635 reversed $408 $-1 #
edge $-1 $410 7.6263545557127053 $636 18.478679860283332 $519 $637 forward 7 unknown #
face $-1 $638 $408 $19 $-1 $639 forward single #
point $-1 57.820853199486564 -20.678871763710731 5.854356801417353 #
point $-1 58.663899655140838 -20.678871763710724 5.8543568014173566 #
point $-1 51.293180143010922 -17.553920458000512 1.3753013189864729 #
edge $-1 $640 -11.901911534710475 $516 -5.6520089232900386 $510 $641 forward 7 unknown #
loop $-1 $-1 $432 $419 #
plane-surface $-1 0 31.531197068281351 0 0 -1 0 0 0 -1 forward_v I I I I #
coedge $-1 $422 $421 $434 $548 forward $209 $-1 #
coedge $-1 $542 $432 $422 $541 reversed $537 $-1 #
edge $-1 $642 -58.663899655140838 $438 58.663899655140838 $540 $643 forward 7 unknown #
coedge $-1 $423 $540 $427 $545 reversed $537 $-1 #
straight-curve $-1 0 31.531197068281351 9.7482371184670722 -1 0 0 I I #
point $-1 58.663899655140838 31.531197068281351 9.7482371184670722 #
edge $-1 $428 -9.7482371184670722 $642 9.7482371184670722 $542 $644 forward 7 unknown #
point $-1 -58.663899655140838 31.531197068281351 9.7482371184670722 #
straight-curve $-1 58.663899655140838 31.531197068281351 0 0 0 -1 I I #
edge $-1 $436 -31.531197068281351 $642 31.531197068281351 $434 $645 forward 7 unknown #
straight-curve $-1 0 -31.531197068281351 -9.7482371184670722 -1 0 0 I I #
point $-1 -58.663899655140838 -31.531197068281351 -9.7482371184670722 #
point $-1 58.663899655140838 31.531197068281351 -9.7482371184670722 #
coedge $-1 $441 $455 $442 $554 forward $337 $-1 #
coedge $-1 $443 $442 $454 $566 reversed $232 $-1 #
edge $-1 $567 -58.663899655140838 $557 58.663899655140838 $552 $646 forward 7 unknown #
coedge $-1 $647 $463 $443 $556 forward $573 $-1 #
edge $-1 $558 -58.663899655140838 $648 58.663899655140838 $555 $649 forward 7 unknown #
vertex $-1 $445 $650 #
vertex $-1 $464 $651 #
straight-curve $-1 58.663899655140838 -13.052517207998019 5.8543568014173566 0 -1 0 I I #
straight-curve $-1 0 -20.678871763710724 9.7482371184670722 1 0 0 I I #
point $-1 -58.663899655140838 -20.678871763710724 9.748237118467074 #
point $-1 58.663899655140838 -20.678871763710724 9.748237118467074 #
coedge $-1 $454 $453 $647 $652 reversed $137 $-1 #
coedge $-1 $457 $465 $453 $565 forward $466 $-1 #
edge $-1 $653 -31.531197068281351 $459 31.531197068281351 $453 $654 forward 7 unknown #
edge $-1 $648 -18.478679860283332 $567 -7.6263545557127053 $454 $655 forward 7 unknown #
vertex $-1 $566 $656 #
straight-curve $-1 -58.663899655140838 -20.678871763710724 3.9006484799711076 0 0 1 I I #
straight-curve $-1 0 31.531197068281351 -9.7482371184670722 1 0 0 I I #
point $-1 -58.663899655140838 31.531197068281351 -9.7482371184670722 #
straight-curve $-1 58.663899655140838 -20.678871763710724 3.9006484799711076 0 0 -1 I I #
coedge $-1 $463 $647 $465 $575 reversed $573 $-1 #
loop $-1 $-1 $555 $470 #
straight-curve $-1 58.663899655140838 -31.531197068281351 0 0 0 -1 I I #
edge $-1 $467 -58.663899655140838 $653 58.663899655140838 $572 $657 forward 7 unknown #
point $-1 58.663899655140838 -31.531197068281351 -9.7482371184670722 #
plane-surface $-1 0 -31.531197068281351 0 0 1 0 0 0 1 forward_v I I I I #
coedge $-1 $658 $589 $474 $580 forward $472 $-1 #
coedge $-1 $474 $593 $476 $584 forward $364 $-1 #
edge $-1 $595 -5.8475886384959663 $659 -1.953708321446249 $578 $660 forward 7 unknown #
coedge $-1 $476 $475 $658 $661 reversed $258 $-1 #
coedge $-1 $662 $663 $475 $583 forward $664 $-1 #
edge $-1 $665 -58.663899655140838 $586 58.663899655140838 $582 $666 forward 7 unknown #
edge $-1 $587 -58.663899655140838 $659 58.663899655140838 $579 $667 forward 7 unknown #
coedge $-1 $477 $490 $662 $668 reversed $273 $-1 #
vertex $-1 $668 $669 #
vertex $-1 $478 $670 #
straight-curve $-1 58.663899655140838 13.052517207998019 5.8543568014173566 0 -1 0 I I #
coedge $-1 $578 $496 $479 $590 reversed $472 $-1 #
edge $-1 $595 -20.678871763710724 $591 20.678871763710724 $589 $671 forward 7 unknown #
vertex $-1 $500 $672 #
straight-curve $-1 0 -20.678871763710724 9.7482371184670722 1 0 0 I I #
coedge $-1 $579 $486 $485 $594 reversed $364 $-1 #
edge $-1 $587 1.953708321446249 $488 5.8475886384959663 $485 $673 forward 7 unknown #
vertex $-1 $590 $674 #
straight-curve $-1 0 20.678871763710724 9.7482371184670722 -1 0 0 I I #
point $-1 58.663899655140838 20.678871763710724 9.748237118467074 #
coedge $-1 $675 $676 $490 $599 forward $604 $-1 #
edge $-1 $677 -31.531197068281351 $601 31.531197068281351 $490 $678 forward 7 unknown #
coedge $-1 $491 $502 $675 $679 reversed $503 $-1 #
vertex $-1 $492 $680 #
straight-curve $-1 58.663899655140838 -31.531197068281351 0 0 0 -1 I I #
face $-1 $681 $503 $18 $-1 $682 reversed single #
loop $-1 $-1 $598 $494 #
plane-surface $-1 0 0 -9.7482371184670722 0 0 1 1 0 0 forward_v I I I I #
coedge $-1 $497 $683 $684 $685 reversed $472 $-1 #
edge $-1 $498 -5.8543568014173566 $686 9.7482371184670722 $497 $687 forward 7 unknown #
point $-1 -58.663899655140838 -31.531197068281351 5.8543568014173566 #
straight-curve $-1 -58.663899655140838 -20.678871763710724 3.9006484799711076 0 0 1 I I #
face $-1 $532 $688 $19 $-1 $689 reversed single #
loop $-1 $-1 $690 $507 #
plane-surface $-1 0 20.678871763710724 7.8012969599422153 0 1 0 0 0 1 forward_v I I I I #
coedge $-1 $691 $692 $693 $694 reversed $508 $-1 #
coedge $-1 $510 $695 $696 $697 forward $396 $-1 #
vertex $-1 $624 $698 #
straight-curve $-1 -41.905652893977106 -14.428969152290295 65.776088071072721 0.85716729658548041 0 -0.51503808176128008 I I #
coedge $-1 $513 $699 $515 $620 reversed $521 $-1 #
straight-curve $-1 58.663899655140838 -14.428969152290295 83.172820310095332 0 0 -1 I I #
coedge $-1 $695 $515 $700 $701 forward $396 $-1 #
edge $-1 $517 -14.428969152290295 $702 20.678871763710724 $617 $703 forward 7 unknown #
point $-1 51.340348198421523 -14.428969152290295 9.748237118467074 #
point $-1 58.663899655140838 -14.428969152290295 9.7482371184670722 #
coedge $-1 $704 $519 $705 $706 forward $521 $-1 #
edge $-1 $615 5.6520089232900386 $522 11.901911534710475 $520 $707 forward 7 unknown #
face $-1 $708 $521 $19 $-1 $709 reversed single #
point $-1 58.663899655140838 -20.678871763710731 5.3478033770327968 #
coedge $-1 $696 $528 $525 $628 forward $632 $-1 #
edge $-1 $409 -83.454582951404177 $640 -75.894209350031289 $627 $710 forward 7 unknown #
coedge $-1 $711 $712 $527 $630 forward $688 $-1 #
edge $-1 $713 -18.478679860283332 $633 -7.6263545557127053 $629 $714 forward 7 unknown #
coedge $-1 $528 $696 $711 $715 reversed $632 $-1 #
loop $-1 $-1 $627 $638 #
vertex $-1 $630 $716 #
coedge $-1 $717 $705 $530 $635 forward $718 $-1 #
edge $-1 $636 -58.663899655140838 $713 58.663899655140838 $634 $719 forward 7 unknown #
vertex $-1 $706 $720 #
straight-curve $-1 58.663899655140838 -13.052517207998019 5.8543568014173566 0 -1 0 I I #
face $-1 $625 $632 $19 $-1 $721 forward single #
plane-surface $-1 0 -26.105034415996037 5.8543568014173566 0 0 1 1 0 0 forward_v I I I I #
vertex $-1 $536 $722 #
straight-curve $-1 51.340348198421509 -8.776960229000256 9.748237118467074 0 1 0 I I #
vertex $-1 $541 $723 #
straight-curve $-1 0 31.531197068281351 -9.7482371184670722 1 0 0 I I #
straight-curve $-1 -58.663899655140838 31.531197068281351 0 0 0 -1 I I #
straight-curve $-1 -58.663899655140838 0 -9.7482371184670722 0 1 0 I I #
straight-curve $-1 0 -20.678871763710724 5.8543568014173566 1 0 0 I I #
coedge $-1 $572 $555 $563 $652 forward $573 $-1 #
vertex $-1 $652 $724 #
straight-curve $-1 0 -31.531197068281351 5.8543568014173566 -1 0 0 I I #
point $-1 58.663899655140838 -20.678871763710724 5.8543568014173566 #
point $-1 58.663899655140838 -31.531197068281351 5.8543568014173566 #
edge $-1 $648 -5.8543568014173566 $653 9.7482371184670722 $563 $725 forward 7 unknown #
vertex $-1 $565 $726 #
straight-curve $-1 -58.663899655140838 0 -9.7482371184670722 0 1 0 I I #
straight-curve $-1 -58.663899655140838 -13.052517207998019 5.8543568014173566 0 1 0 I I #
point $-1 -58.663899655140838 -20.678871763710724 5.8543568014173566 #
straight-curve $-1 0 -31.531197068281351 -9.7482371184670722 -1 0 0 I I #
coedge $-1 $683 $578 $581 $661 forward $472 $-1 #
vertex $-1 $661 $727 #
straight-curve $-1 -58.663899655140838 20.678871763710724 3.9006484799711076 0 0 -1 I I #
edge $-1 $659 7.6263545557127053 $665 18.478679860283332 $658 $728 forward 7 unknown #
coedge $-1 $729 $582 $585 $668 forward $664 $-1 #
coedge $-1 $582 $729 $683 $730 reversed $664 $-1 #
loop $-1 $-1 $582 $681 #
vertex $-1 $730 $731 #
straight-curve $-1 0 31.531197068281351 5.8543568014173566 1 0 0 I I #
straight-curve $-1 0 20.678871763710724 5.8543568014173566 -1 0 0 I I #
edge $-1 $586 -5.8543568014173566 $677 9.7482371184670722 $585 $732 forward 7 unknown #
point $-1 58.663899655140838 31.531197068281351 5.8543568014173566 #
point $-1 58.663899655140838 20.678871763710724 5.8543568014173566 #
straight-curve $-1 -58.663899655140838 0 9.7482371184670722 0 -1 0 I I #
point $-1 -58.663899655140838 -20.678871763710724 9.748237118467074 #
straight-curve $-1 58.663899655140838 20.678871763710724 3.9006484799711076 0 0 1 I I #
point $-1 -58.663899655140838 20.678871763710724 9.748237118467074 #
coedge $-1 $684 $598 $600 $679 forward $604 $-1 #
coedge $-1 $598 $684 $729 $733 forward $604 $-1 #
vertex $-1 $599 $734 #
straight-curve $-1 58.663899655140838 0 -9.7482371184670722 0 -1 0 I I #
edge $-1 $601 -58.663899655140838 $686 58.663899655140838 $600 $735 forward 7 unknown #
point $-1 58.663899655140838 -31.531197068281351 -9.7482371184670722 #
face $-1 $-1 $664 $18 $-1 $736 reversed single #
plane-surface $-1 0 -31.531197068281351 0 0 1 0 0 0 1 forward_v I I I I #
coedge $-1 $606 $658 $663 $730 forward $472 $-1 #
coedge $-1 $676 $675 $606 $685 forward $604 $-1 #
edge $-1 $686 -31.531197068281351 $737 31.531197068281351 $606 $738 forward 7 unknown #
vertex $-1 $685 $739 #
straight-curve $-1 -58.663899655140838 -31.531197068281351 0 0 0 -1 I I #
loop $-1 $-1 $740 $610 #
plane-surface $-1 -58.663899655140838 0 0 1 0 0 0 0 -1 forward_v I I I I #
coedge $-1 $700 $741 $740 $742 reversed $611 $-1 #
coedge $-1 $743 $613 $744 $745 reversed $508 $-1 #
coedge $-1 $613 $743 $741 $746 reversed $508 $-1 #
coedge $-1 $699 $747 $613 $694 forward $521 $-1 #
edge $-1 $748 -18.478679860283332 $749 -7.6263545557127053 $693 $750 forward 7 unknown #
coedge $-1 $614 $619 $751 $752 forward $396 $-1 #
coedge $-1 $631 $627 $614 $697 reversed $632 $-1 #
edge $-1 $753 -58.663899655140838 $640 51.340348198421523 $614 $754 forward 7 unknown #
point $-1 58.663899655140838 -14.428969152290295 5.3478033770327968 #
coedge $-1 $617 $693 $755 $756 forward $521 $-1 #
coedge $-1 $755 $690 $619 $701 reversed $611 $-1 #
edge $-1 $702 -58.663899655140838 $757 58.663899655140838 $619 $758 forward 7 unknown #
vertex $-1 $701 $759 #
straight-curve $-1 58.663899655140838 0 9.7482371184670722 0 1 0 I I #
coedge $-1 $747 $623 $760 $761 reversed $521 $-1 #
coedge $-1 $634 $762 $623 $706 reversed $718 $-1 #
edge $-1 $636 -5.8543568014173566 $763 9.7482371184670722 $623 $764 forward 7 unknown #
straight-curve $-1 58.663899655140831 -8.776960229000256 5.3478033770328075 0 -1 0 I I #
face $-1 $765 $766 $19 $-1 $767 reversed single #
plane-surface $-1 58.663899655140838 0 0 -1 0 0 0 0 1 forward_v I I I I #
straight-curve $-1 -13.71368605663729 -20.678871763710724 48.8366451188962 -0.85716729658548041 0 0.51503808176128008 I I #
coedge $-1 $751 $629 $631 $715 forward $688 $-1 #
coedge $-1 $629 $768 $717 $769 reversed $688 $-1 #
vertex $-1 $769 $770 #
straight-curve $-1 -58.663899655140838 -13.052517207998019 5.8543568014173566 0 1 0 I I #
edge $-1 $633 1.953708321446249 $753 5.8475886384959663 $711 $771 forward 7 unknown #
point $-1 -58.663899655140838 -20.678871763710724 5.8543568014173566 #
coedge $-1 $762 $634 $712 $769 forward $718 $-1 #
loop $-1 $-1 $634 $765 #
straight-curve $-1 0 -31.531197068281351 5.8543568014173566 -1 0 0 I I #
point $-1 58.663899655140838 -31.531197068281351 5.8543568014173566 #
plane-surface $-1 0 -20.678871763710724 7.8012969599422153 0 -1 0 0 0 -1 forward_v I I I I #
point $-1 51.340348198421523 -20.678871763710731 9.748237118467074 #
point $-1 -58.663899655140838 31.531197068281351 -9.7482371184670722 #
point $-1 -58.663899655140838 -31.531197068281351 5.8543568014173566 #
straight-curve $-1 -58.663899655140838 -31.531197068281351 0 0 0 -1 I I #
point $-1 -58.663899655140838 -31.531197068281351 -9.7482371184670722 #
point $-1 -58.663899655140838 20.678871763710724 5.8543568014173566 #
straight-curve $-1 -58.663899655140838 13.052517207998019 5.8543568014173566 0 1 0 I I #
coedge $-1 $663 $662 $676 $733 reversed $664 $-1 #
edge $-1 $665 -5.8543568014173566 $737 9.7482371184670722 $663 $772 forward 7 unknown #
point $-1 -58.663899655140838 31.531197068281351 5.8543568014173566 #
straight-curve $-1 58.663899655140838 31.531197068281351 0 0 0 -1 I I #
edge $-1 $737 -58.663899655140838 $677 58.663899655140838 $729 $773 forward 7 unknown #
point $-1 58.663899655140838 31.531197068281351 -9.7482371184670722 #
straight-curve $-1 0 -31.531197068281351 -9.7482371184670722 -1 0 0 I I #
plane-surface $-1 0 31.531197068281351 0 0 -1 0 0 0 -1 forward_v I I I I #
vertex $-1 $733 $774 #
straight-curve $-1 -58.663899655140838 0 -9.7482371184670722 0 1 0 I I #
point $-1 -58.663899655140838 -31.531197068281351 -9.7482371184670722 #
coedge $-1 $775 $751 $690 $742 forward $688 $-1 #
coedge $-1 $690 $755 $692 $746 forward $611 $-1 #
edge $-1 $757 -5.8475886384959663 $776 -1.953708321446249 $740 $777 forward 7 unknown #
coedge $-1 $692 $691 $775 $778 reversed $508 $-1 #
coedge $-1 $779 $780 $691 $745 forward $781 $-1 #
edge $-1 $782 -58.663899655140838 $748 58.663899655140838 $744 $783 forward 7 unknown #
edge $-1 $749 -58.663899655140838 $776 58.663899655140838 $741 $784 forward 7 unknown #
coedge $-1 $693 $704 $779 $785 reversed $521 $-1 #
vertex $-1 $785 $786 #
vertex $-1 $694 $787 #
straight-curve $-1 58.663899655140838 13.052517207998019 5.8543568014173566 0 -1 0 I I #
coedge $-1 $740 $711 $695 $752 reversed $688 $-1 #
edge $-1 $757 -20.678871763710724 $753 20.678871763710724 $751 $788 forward 7 unknown #
vertex $-1 $715 $789 #
straight-curve $-1 0 -20.678871763710724 9.7482371184670722 1 0 0 I I #
coedge $-1 $741 $700 $699 $756 reversed $611 $-1 #
edge $-1 $749 1.953708321446249 $702 5.8475886384959663 $699 $790 forward 7 unknown #
vertex $-1 $752 $791 #
straight-curve $-1 0 20.678871763710724 9.7482371184670722 -1 0 0 I I #
point $-1 58.663899655140838 20.678871763710724 9.748237118467074 #
coedge $-1 $792 $793 $704 $761 forward $766 $-1 #
edge $-1 $794 -31.531197068281351 $763 31.531197068281351 $704 $795 forward 7 unknown #
coedge $-1 $705 $717 $792 $796 reversed $718 $-1 #
vertex $-1 $706 $797 #
straight-curve $-1 58.663899655140838 -31.531197068281351 0 0 0 -1 I I #
face $-1 $798 $718 $19 $-1 $799 reversed single #
loop $-1 $-1 $760 $708 #
plane-surface $-1 0 0 -9.7482371184670722 0 0 1 1 0 0 forward_v I I I I #
coedge $-1 $712 $800 $801 $802 reversed $688 $-1 #
edge $-1 $713 -5.8543568014173566 $803 9.7482371184670722 $712 $804 forward 7 unknown #
point $-1 -58.663899655140838 -31.531197068281351 5.8543568014173566 #
straight-curve $-1 -58.663899655140838 -20.678871763710724 3.9006484799711076 0 0 1 I I #
straight-curve $-1 -58.663899655140838 31.531197068281351 0 0 0 -1 I I #
straight-curve $-1 0 31.531197068281351 -9.7482371184670722 1 0 0 I I #
point $-1 -58.663899655140838 31.531197068281351 -9.7482371184670722 #
coedge $-1 $800 $740 $743 $778 forward $688 $-1 #
vertex $-1 $778 $805 #
straight-curve $-1 -58.663899655140838 20.678871763710724 3.9006484799711076 0 0 -1 I I #
edge $-1 $776 7.6263545557127053 $782 18.478679860283332 $775 $806 forward 7 unknown #
coedge $-1 $807 $744 $747 $785 forward $781 $-1 #
coedge $-1 $744 $807 $800 $808 reversed $781 $-1 #
loop $-1 $-1 $744 $798 #
vertex $-1 $808 $809 #
straight-curve $-1 0 31.531197068281351 5.8543568014173566 1 0 0 I I #
straight-curve $-1 0 20.678871763710724 5.8543568014173566 -1 0 0 I I #
edge $-1 $748 -5.8543568014173566 $794 9.7482371184670722 $747 $810 forward 7 unknown #
point $-1 58.663899655140838 31.531197068281351 5.8543568014173566 #
point $-1 58.663899655140838 20.678871763710724 5.8543568014173566 #
straight-curve $-1 -58.663899655140838 0 9.7482371184670722 0 -1 0 I I #
point $-1 -58.663899655140838 -20.678871763710724 9.748237118467074 #
straight-curve $-1 58.663899655140838 20.678871763710724 3.9006484799711076 0 0 1 I I #
point $-1 -58.663899655140838 20.678871763710724 9.748237118467074 #
coedge $-1 $801 $760 $762 $796 forward $766 $-1 #
coedge $-1 $760 $801 $807 $811 forward $766 $-1 #
vertex $-1 $761 $812 #
straight-curve $-1 58.663899655140838 0 -9.7482371184670722 0 -1 0 I I #
edge $-1 $763 -58.663899655140838 $803 58.663899655140838 $762 $813 forward 7 unknown #
point $-1 58.663899655140838 -31.531197068281351 -9.7482371184670722 #
face $-1 $-1 $781 $19 $-1 $814 reversed single #
plane-surface $-1 0 -31.531197068281351 0 0 1 0 0 0 1 forward_v I I I I #
coedge $-1 $768 $775 $780 $808 forward $688 $-1 #
coedge $-1 $793 $792 $768 $802 forward $766 $-1 #
edge $-1 $803 -31.531197068281351 $815 31.531197068281351 $768 $816 forward 7 unknown #
vertex $-1 $802 $817 #
straight-curve $-1 -58.663899655140838 -31.531197068281351 0 0 0 -1 I I #
point $-1 -58.663899655140838 20.678871763710724 5.8543568014173566 #
straight-curve $-1 -58.663899655140838 13.052517207998019 5.8543568014173566 0 1 0 I I #
coedge $-1 $780 $779 $793 $811 reversed $781 $-1 #
edge $-1 $782 -5.8543568014173566 $815 9.7482371184670722 $780 $818 forward 7 unknown #
point $-1 -58.663899655140838 31.531197068281351 5.8543568014173566 #
straight-curve $-1 58.663899655140838 31.531197068281351 0 0 0 -1 I I #
edge $-1 $815 -58.663899655140838 $794 58.663899655140838 $807 $819 forward 7 unknown #
point $-1 58.663899655140838 31.531197068281351 -9.7482371184670722 #
straight-curve $-1 0 -31.531197068281351 -9.7482371184670722 -1 0 0 I I #
plane-surface $-1 0 31.531197068281351 0 0 -1 0 0 0 -1 forward_v I I I I #
vertex $-1 $811 $820 #
straight-curve $-1 -58.663899655140838 0 -9.7482371184670722 0 1 0 I I #
point $-1 -58.663899655140838 -31.531197068281351 -9.7482371184670722 #
straight-curve $-1 -58.663899655140838 31.531197068281351 0 0 0 -1 I I #
straight-curve $-1 0 31.531197068281351 -9.7482371184670722 1 0 0 I I #
point $-1 -58.663899655140838 31.531197068281351 -9.7482371184670722 #
End-of-ACIS-data 