500 0 7 0           
7 Unknown 11 ACIS 5.0 NT 24 Thu Mar 25 18:14:40 1999 
-1 9.9999999999999995e-007 1e-010 
body $-1 $7 $-1 $8 #
body $-1 $9 $-1 $10 #
body $-1 $11 $-1 $12 #
body $-1 $13 $-1 $14 #
body $-1 $15 $-1 $16 #
body $-1 $17 $-1 $18 #
body $-1 $19 $-1 $20 #
lump $-1 $-1 $21 $0 #
transform $-1 1 0 0 0 1 0 0 0 1 76.275521103549295 39.942748468388679 14.97594031520704 1 rotate no_reflect no_shear #
lump $-1 $-1 $22 $1 #
transform $-1 1 0 0 0 1 0 0 0 1 76.275521103549295 39.942748468388679 14.97594031520704 1 rotate no_reflect no_shear #
lump $-1 $-1 $23 $2 #
transform $-1 1 0 0 0 1 0 0 0 1 76.275521103549295 39.942748468388679 14.97594031520704 1 rotate no_reflect no_shear #
lump $-1 $-1 $24 $3 #
transform $-1 1 0 0 0 1 0 0 0 1 76.275521103549295 39.942748468388679 14.97594031520704 1 rotate no_reflect no_shear #
lump $-1 $-1 $25 $4 #
transform $-1 1 0 0 0 1 0 0 0 1 76.275521103549295 39.942748468388679 14.97594031520704 1 rotate no_reflect no_shear #
lump $-1 $-1 $26 $5 #
transform $-1 1 0 0 0 1 0 0 0 1 76.275521103549295 39.942748468388679 14.97594031520704 1 rotate no_reflect no_shear #
lump $-1 $-1 $27 $6 #
transform $-1 1 0 0 0 1 0 0 0 1 76.275521103549295 39.942748468388679 14.97594031520704 1 rotate no_reflect no_shear #
shell $-1 $-1 $-1 $28 $-1 $7 #
shell $-1 $-1 $-1 $29 $-1 $9 #
shell $-1 $-1 $-1 $30 $-1 $11 #
shell $-1 $-1 $-1 $31 $-1 $13 #
shell $-1 $-1 $-1 $32 $-1 $15 #
shell $-1 $-1 $-1 $33 $-1 $17 #
shell $-1 $-1 $-1 $34 $-1 $19 #
face $-1 $35 $36 $21 $-1 $37 forward single #
face $-1 $38 $39 $22 $-1 $40 reversed single #
face $-1 $41 $42 $23 $-1 $43 forward single #
face $-1 $44 $45 $24 $-1 $46 forward single #
face $-1 $47 $48 $25 $-1 $49 reversed single #
face $-1 $50 $51 $26 $-1 $52 forward single #
face $-1 $53 $54 $27 $-1 $55 forward single #
face $-1 $56 $57 $21 $-1 $58 reversed single #
loop $-1 $-1 $59 $28 #
plane-surface $-1 0 0 14.97594031520704 0 0 1 1 0 0 forward_v I I I I #
face $-1 $60 $61 $22 $-1 $62 reversed single #
loop $-1 $-1 $63 $29 #
plane-surface $-1 -176.35801094251048 -26.541075888012145 126.18225705275957 0 1 0 -0.6560590369687036 0 0.75470957328743171 forward_v I I I I #
face $-1 $64 $65 $23 $-1 $66 forward single #
loop $-1 $67 $68 $30 #
cone-surface $-1 -73.483568930779171 -23.490876405636982 12.398803245263062 0.6560590369687036 0 -0.75470957328743171 0.75470957328743171 0 0.6560590369687036 1 I I 0 1 1 forward I I I I #
face $-1 $69 $70 $24 $-1 $71 forward single #
loop $-1 $72 $73 $31 #
cone-surface $-1 -73.483568930779171 -18.915577182074237 12.398803245263062 0.6560590369687036 0 -0.75470957328743171 0.75470957328743171 0 0.6560590369687036 1 I I 0 1 1 forward I I I I #
face $-1 $74 $75 $25 $-1 $76 reversed single #
loop $-1 $-1 $77 $32 #
plane-surface $-1 -176.35801094251048 13.401672580376538 126.18225705275957 0 1 0 -0.6560590369687036 0 0.75470957328743171 forward_v I I I I #
face $-1 $78 $79 $26 $-1 $80 forward single #
loop $-1 $81 $82 $33 #
cone-surface $-1 -73.483568930779171 16.451872062751697 12.398803245263062 0.6560590369687036 0 -0.75470957328743171 0.75470957328743171 0 0.6560590369687036 1 I I 0 1 1 forward I I I I #
face $-1 $83 $84 $27 $-1 $85 forward single #
loop $-1 $86 $87 $34 #
cone-surface $-1 -73.483568930779171 21.027171286314442 12.398803245263062 0.6560590369687036 0 -0.75470957328743171 0.75470957328743171 0 0.6560590369687036 1 I I 0 1 1 forward I I I I #
face $-1 $88 $89 $21 $-1 $90 reversed single #
loop $-1 $-1 $91 $35 #
plane-surface $-1 0 0 -14.97594031520704 0 0 1 1 0 0 forward_v I I I I #
coedge $-1 $92 $93 $94 $95 forward $36 $-1 #
face $-1 $96 $97 $22 $-1 $98 reversed single #
loop $-1 $-1 $99 $38 #
plane-surface $-1 -76.275521103549323 -21.20322679385561 11.050525084087212 -0.6560590369687036 0 0.75470957328743171 0.75470957328743171 0 0.6560590369687036 forward_v I I I I #
coedge $-1 $100 $101 $102 $103 reversed $39 $-1 #
face $-1 $-1 $104 $23 $-1 $105 forward single #
loop $-1 $106 $107 $41 #
cone-surface $-1 -72.621424024871629 -23.490876405636982 11.407019004235298 0.6560590369687036 0 -0.75470957328743171 0.37735478664371586 0 0.3280295184843518 1 I I -0.70710678118654746 0.70710678118654746 0.5 forward I I I I #
loop $-1 $-1 $108 $30 #
coedge $-1 $68 $68 $109 $110 reversed $42 $-1 #
face $-1 $-1 $111 $24 $-1 $112 forward single #
loop $-1 $113 $114 $44 #
cone-surface $-1 -72.621424024871629 -18.915577182074237 11.407019004235298 0.6560590369687036 0 -0.75470957328743171 0.37735478664371586 0 0.3280295184843518 1 I I -0.70710678118654746 0.70710678118654746 0.5 forward I I I I #
loop $-1 $-1 $115 $31 #
coedge $-1 $73 $73 $116 $117 reversed $45 $-1 #
face $-1 $118 $119 $25 $-1 $120 reversed single #
loop $-1 $-1 $121 $47 #
plane-surface $-1 -76.275521103549323 18.739521674533073 11.050525084087212 -0.6560590369687036 0 0.75470957328743171 0.75470957328743171 0 0.6560590369687036 forward_v I I I I #
coedge $-1 $122 $123 $124 $125 reversed $48 $-1 #
face $-1 $-1 $126 $26 $-1 $127 forward single #
loop $-1 $128 $129 $50 #
cone-surface $-1 -72.621424024871629 16.451872062751697 11.407019004235298 0.6560590369687036 0 -0.75470957328743171 0.37735478664371586 0 0.3280295184843518 1 I I -0.70710678118654746 0.70710678118654746 0.5 forward I I I I #
loop $-1 $-1 $130 $33 #
coedge $-1 $82 $82 $131 $132 reversed $51 $-1 #
face $-1 $-1 $133 $27 $-1 $134 forward single #
loop $-1 $135 $136 $53 #
cone-surface $-1 -72.621424024871629 21.027171286314442 11.407019004235298 0.6560590369687036 0 -0.75470957328743171 0.37735478664371586 0 0.3280295184843518 1 I I -0.70710678118654746 0.70710678118654746 0.5 forward I I I I #
loop $-1 $-1 $137 $34 #
coedge $-1 $87 $87 $138 $139 reversed $54 $-1 #
face $-1 $140 $141 $21 $-1 $142 reversed single #
loop $-1 $-1 $143 $56 #
plane-surface $-1 0 -39.942748468388679 0 0 1 0 0 0 1 forward_v I I I I #
coedge $-1 $144 $145 $146 $147 forward $57 $-1 #
coedge $-1 $148 $59 $149 $150 forward $36 $-1 #
coedge $-1 $59 $148 $151 $152 forward $36 $-1 #
coedge $-1 $153 $154 $59 $95 reversed $155 $-1 #
edge $-1 $156 -39.942748468388679 $157 39.942748468388679 $94 $158 forward 7 unknown #
face $-1 $159 $160 $22 $-1 $161 reversed single #
loop $-1 $-1 $162 $60 #
plane-surface $-1 -176.35801094251048 -15.865377699699074 126.18225705275957 0 -1 0 0.6560590369687036 0 -0.75470957328743171 forward_v I I I I #
coedge $-1 $163 $164 $165 $166 reversed $61 $-1 #
coedge $-1 $101 $63 $167 $168 reversed $39 $-1 #
coedge $-1 $63 $100 $163 $169 reversed $39 $-1 #
coedge $-1 $165 $170 $63 $103 forward $171 $-1 #
edge $-1 $172 11.903484367705943 $173 16.419157938399763 $102 $174 forward 7 unknown #
loop $-1 $-1 $109 $64 #
plane-surface $-1 -76.275521103549323 -21.20322679385561 11.050525084087212 -0.6560590369687036 0 0.75470957328743171 0.75470957328743171 0 0.6560590369687036 forward_v I I I I #
loop $-1 $-1 $175 $41 #
coedge $-1 $107 $107 $108 $176 reversed $65 $-1 #
coedge $-1 $108 $108 $107 $176 forward $67 $-1 #
coedge $-1 $109 $109 $68 $110 forward $104 $-1 #
edge $-1 $177 0 $177 6.2831853071796004 $109 $178 forward 7 unknown #
loop $-1 $-1 $116 $69 #
plane-surface $-1 -76.275521103549323 -21.20322679385561 11.050525084087212 -0.6560590369687036 0 0.75470957328743171 0.75470957328743171 0 0.6560590369687036 forward_v I I I I #
loop $-1 $-1 $179 $44 #
coedge $-1 $114 $114 $115 $180 reversed $70 $-1 #
coedge $-1 $115 $115 $114 $180 forward $72 $-1 #
coedge $-1 $116 $116 $73 $117 forward $111 $-1 #
edge $-1 $181 0 $181 6.2831853071796004 $116 $182 forward 7 unknown #
face $-1 $183 $184 $25 $-1 $185 forward single #
loop $-1 $-1 $186 $74 #
plane-surface $-1 -176.35801094251048 24.077370768689608 126.18225705275957 0 -1 0 0.6560590369687036 0 -0.75470957328743171 forward_v I I I I #
coedge $-1 $187 $188 $189 $190 reversed $75 $-1 #
coedge $-1 $123 $77 $191 $192 reversed $48 $-1 #
coedge $-1 $77 $122 $187 $193 reversed $48 $-1 #
coedge $-1 $189 $194 $77 $125 forward $184 $-1 #
edge $-1 $195 11.903484367705943 $196 16.419157938399763 $124 $197 forward 7 unknown #
loop $-1 $-1 $131 $78 #
plane-surface $-1 -76.275521103549323 18.739521674533073 11.050525084087212 -0.6560590369687036 0 0.75470957328743171 0.75470957328743171 0 0.6560590369687036 forward_v I I I I #
loop $-1 $-1 $198 $50 #
coedge $-1 $129 $129 $130 $199 reversed $79 $-1 #
coedge $-1 $130 $130 $129 $199 forward $81 $-1 #
coedge $-1 $131 $131 $82 $132 forward $126 $-1 #
edge $-1 $200 0 $200 6.2831853071796004 $131 $201 forward 7 unknown #
loop $-1 $-1 $138 $83 #
plane-surface $-1 -76.275521103549323 18.739521674533073 11.050525084087212 -0.6560590369687036 0 0.75470957328743171 0.75470957328743171 0 0.6560590369687036 forward_v I I I I #
loop $-1 $-1 $202 $53 #
coedge $-1 $136 $136 $137 $203 reversed $84 $-1 #
coedge $-1 $137 $137 $136 $203 forward $86 $-1 #
coedge $-1 $138 $138 $87 $139 forward $133 $-1 #
edge $-1 $204 0 $204 6.2831853071796004 $138 $205 forward 7 unknown #
face $-1 $206 $207 $21 $-1 $208 reversed single #
loop $-1 $-1 $209 $88 #
plane-surface $-1 -76.275521103549295 0 0 1 0 0 0 0 -1 forward_v I I I I #
coedge $-1 $210 $151 $211 $212 forward $89 $-1 #
coedge $-1 $213 $91 $210 $214 forward $57 $-1 #
coedge $-1 $91 $213 $215 $216 forward $57 $-1 #
coedge $-1 $154 $153 $91 $147 reversed $155 $-1 #
edge $-1 $217 -39.942748468388679 $218 39.942748468388679 $146 $219 forward 7 unknown #
coedge $-1 $93 $92 $220 $221 forward $36 $-1 #
coedge $-1 $222 $223 $92 $150 reversed $207 $-1 #
edge $-1 $157 -76.275521103549295 $224 76.275521103549295 $149 $225 forward 7 unknown #
coedge $-1 $143 $226 $93 $152 reversed $89 $-1 #
edge $-1 $227 -76.275521103549295 $156 76.275521103549295 $151 $228 forward 7 unknown #
coedge $-1 $146 $94 $226 $229 forward $155 $-1 #
coedge $-1 $94 $146 $222 $230 reversed $155 $-1 #
loop $-1 $-1 $153 $206 #
vertex $-1 $95 $231 #
vertex $-1 $95 $232 #
straight-curve $-1 76.275521103549295 0 14.97594031520704 0 1 0 I I #
face $-1 $-1 $171 $22 $-1 $233 forward single #
loop $-1 $-1 $234 $96 #
plane-surface $-1 -76.275521103549295 0 0 1 0 0 0 0 -1 forward_v I I I I #
coedge $-1 $235 $236 $237 $238 reversed $97 $-1 #
coedge $-1 $239 $99 $101 $169 forward $61 $-1 #
coedge $-1 $99 $239 $235 $240 forward $61 $-1 #
coedge $-1 $237 $102 $99 $166 forward $171 $-1 #
edge $-1 $173 -15.93946249108434 $241 -5.2637643027712695 $165 $242 forward 7 unknown #
coedge $-1 $243 $244 $100 $168 forward $160 $-1 #
edge $-1 $245 -52.04060344229255 $172 -48.115188211172743 $167 $246 forward 7 unknown #
edge $-1 $173 -5.9833262098744431 $245 -3.776566559949536e-014 $101 $247 forward 7 unknown #
coedge $-1 $102 $237 $243 $248 forward $171 $-1 #
loop $-1 $-1 $237 $159 #
vertex $-1 $168 $249 #
vertex $-1 $103 $250 #
straight-curve $-1 -88.179005471255238 -26.541075888012145 14.97594031520704 1 0 0 I I #
coedge $-1 $175 $175 $-1 $251 reversed $106 $-1 #
edge $-1 $252 0 $252 6.2831853071796004 $107 $253 forward 7 unknown #
vertex $-1 $110 $254 #
ellipse-curve $-1 -74.017684318202384 -23.490876405636982 13.013232699647141 -0.6560590369687036 0 0.75470957328743171 0.75470957328743171 0 0.6560590369687036 1 I I #
coedge $-1 $179 $179 $-1 $255 reversed $113 $-1 #
edge $-1 $256 0 $256 6.2831853071796004 $114 $257 forward 7 unknown #
vertex $-1 $117 $258 #
ellipse-curve $-1 -74.017684318202384 -18.915577182074237 13.013232699647141 -0.6560590369687036 0 0.75470957328743171 0.75470957328743171 0 0.6560590369687036 1 I I #
face $-1 $-1 $259 $25 $-1 $260 reversed single #
loop $-1 $-1 $124 $118 #
plane-surface $-1 0 0 14.97594031520704 0 0 1 1 0 0 forward_v I I I I #
coedge $-1 $261 $262 $263 $264 reversed $119 $-1 #
coedge $-1 $265 $121 $123 $193 forward $75 $-1 #
coedge $-1 $121 $265 $261 $266 forward $75 $-1 #
coedge $-1 $263 $124 $121 $190 forward $184 $-1 #
edge $-1 $196 4.0319117431100011 $267 14.707609931423072 $189 $268 forward 7 unknown #
coedge $-1 $269 $270 $122 $192 forward $259 $-1 #
edge $-1 $271 -52.04060344229255 $195 -48.115188211172743 $191 $272 forward 7 unknown #
edge $-1 $196 -5.9833262098744431 $271 -3.776566559949536e-014 $123 $273 forward 7 unknown #
coedge $-1 $124 $263 $269 $274 forward $184 $-1 #
vertex $-1 $125 $275 #
vertex $-1 $125 $276 #
straight-curve $-1 -88.179005471255238 13.401672580376538 14.97594031520704 1 0 0 I I #
coedge $-1 $198 $198 $-1 $277 reversed $128 $-1 #
edge $-1 $278 0 $278 6.2831853071796004 $129 $279 forward 7 unknown #
vertex $-1 $132 $280 #
ellipse-curve $-1 -74.017684318202384 16.451872062751697 13.013232699647141 -0.6560590369687036 0 0.75470957328743171 0.75470957328743171 0 0.6560590369687036 1 I I #
coedge $-1 $202 $202 $-1 $281 reversed $135 $-1 #
edge $-1 $282 0 $282 6.2831853071796004 $136 $283 forward 7 unknown #
vertex $-1 $139 $284 #
ellipse-curve $-1 -74.017684318202384 21.027171286314442 13.013232699647141 -0.6560590369687036 0 0.75470957328743171 0.75470957328743171 0 0.6560590369687036 1 I I #
face $-1 $-1 $155 $21 $-1 $285 reversed single #
loop $-1 $-1 $222 $140 #
plane-surface $-1 0 39.942748468388679 0 0 -1 0 0 0 -1 forward_v I I I I #
coedge $-1 $286 $220 $223 $287 forward $141 $-1 #
coedge $-1 $226 $143 $144 $214 reversed $89 $-1 #
coedge $-1 $220 $286 $143 $212 reversed $141 $-1 #
edge $-1 $227 -14.97594031520704 $288 14.97594031520704 $211 $289 forward 7 unknown #
coedge $-1 $145 $144 $286 $290 forward $57 $-1 #
edge $-1 $218 -76.275521103549295 $288 76.275521103549295 $210 $291 forward 7 unknown #
coedge $-1 $223 $222 $145 $216 reversed $207 $-1 #
edge $-1 $292 -76.275521103549295 $217 76.275521103549295 $215 $293 forward 7 unknown #
vertex $-1 $147 $294 #
vertex $-1 $229 $295 #
straight-curve $-1 76.275521103549295 0 -14.97594031520704 0 -1 0 I I #
coedge $-1 $209 $211 $148 $221 reversed $141 $-1 #
edge $-1 $224 -39.942748468388679 $227 39.942748468388679 $220 $296 forward 7 unknown #
coedge $-1 $215 $149 $154 $230 forward $207 $-1 #
coedge $-1 $149 $215 $209 $287 reversed $207 $-1 #
vertex $-1 $150 $297 #
straight-curve $-1 0 39.942748468388679 14.97594031520704 -1 0 0 I I #
coedge $-1 $151 $210 $153 $229 reversed $89 $-1 #
vertex $-1 $221 $298 #
straight-curve $-1 0 -39.942748468388679 14.97594031520704 1 0 0 I I #
edge $-1 $156 -14.97594031520704 $218 14.97594031520704 $153 $299 forward 7 unknown #
edge $-1 $157 -14.97594031520704 $217 14.97594031520704 $154 $300 forward 7 unknown #
point $-1 76.275521103549295 -39.942748468388679 14.97594031520704 #
point $-1 76.275521103549295 39.942748468388679 14.97594031520704 #
plane-surface $-1 0 0 14.97594031520704 0 0 1 1 0 0 forward_v I I I I #
coedge $-1 $244 $243 $236 $301 forward $160 $-1 #
coedge $-1 $236 $162 $164 $240 reversed $97 $-1 #
coedge $-1 $162 $235 $234 $301 reversed $97 $-1 #
coedge $-1 $170 $165 $162 $238 forward $171 $-1 #
edge $-1 $241 -16.419157938399763 $302 -11.903484367705943 $237 $303 forward 7 unknown #
coedge $-1 $164 $163 $244 $304 reversed $61 $-1 #
edge $-1 $305 3.776566559949536e-014 $241 5.9833262098744431 $235 $306 forward 7 unknown #
vertex $-1 $166 $307 #
straight-curve $-1 -71.759847532855474 -10.601613396927805 14.975940315207044 0 1 0 I I #
coedge $-1 $234 $167 $170 $248 reversed $160 $-1 #
coedge $-1 $167 $234 $239 $304 forward $160 $-1 #
vertex $-1 $168 $308 #
straight-curve $-1 -76.275521103549295 -26.541075888012145 63.091128526379784 0 0 1 I I #
straight-curve $-1 -76.275521103549323 -26.541075888012145 11.050525084087212 -0.75470957328743171 0 -0.6560590369687036 I I #
edge $-1 $302 15.865377699699074 $172 26.541075888012145 $243 $309 forward 7 unknown #
point $-1 -76.275521103549295 -26.541075888012145 14.97594031520704 #
point $-1 -71.759847532855474 -26.541075888012145 14.97594031520704 #
edge $-1 $310 1 $310 0 $175 $-1 forward 7 unknown #
vertex $-1 $176 $311 #
ellipse-curve $-1 -72.949453543355986 -23.490876405636982 11.784373790879014 -0.6560590369687036 0 0.75470957328743171 0.75470957328743171 0 0.6560590369687036 1 I I #
point $-1 -73.262974744914928 -23.490876405636982 13.669291736615817 #
edge $-1 $312 1 $312 0 $179 $-1 forward 7 unknown #
vertex $-1 $180 $313 #
ellipse-curve $-1 -72.949453543355986 -18.915577182074237 11.784373790879014 -0.6560590369687036 0 0.75470957328743171 0.75470957328743171 0 0.6560590369687036 1 I I #
point $-1 -73.262974744914928 -18.915577182074237 13.669291736615817 #
loop $-1 $-1 $191 $183 #
plane-surface $-1 -76.275521103549295 0 0 1 0 0 0 0 -1 forward_v I I I I #
coedge $-1 $262 $186 $188 $266 reversed $119 $-1 #
coedge $-1 $186 $261 $314 $315 reversed $119 $-1 #
coedge $-1 $194 $189 $186 $264 forward $184 $-1 #
edge $-1 $267 -16.419157938399763 $316 -11.903484367705943 $263 $317 forward 7 unknown #
coedge $-1 $188 $187 $270 $318 reversed $75 $-1 #
edge $-1 $319 3.776566559949536e-014 $267 5.9833262098744431 $261 $320 forward 7 unknown #
vertex $-1 $190 $321 #
straight-curve $-1 -71.759847532855474 9.3697608372665364 14.975940315207044 0 1 0 I I #
coedge $-1 $314 $191 $194 $274 reversed $259 $-1 #
coedge $-1 $191 $314 $265 $318 forward $259 $-1 #
vertex $-1 $192 $322 #
straight-curve $-1 -76.275521103549295 13.401672580376538 63.091128526379784 0 0 1 I I #
straight-curve $-1 -76.275521103549323 13.401672580376538 11.050525084087212 -0.75470957328743171 0 -0.6560590369687036 I I #
edge $-1 $316 -24.077370768689608 $195 -13.401672580376538 $269 $323 forward 7 unknown #
point $-1 -76.275521103549295 13.401672580376538 14.97594031520704 #
point $-1 -71.759847532855474 13.401672580376538 14.97594031520704 #
edge $-1 $324 1 $324 0 $198 $-1 forward 7 unknown #
vertex $-1 $199 $325 #
ellipse-curve $-1 -72.949453543355986 16.451872062751697 11.784373790879014 -0.6560590369687036 0 0.75470957328743171 0.75470957328743171 0 0.6560590369687036 1 I I #
point $-1 -73.262974744914928 16.451872062751697 13.669291736615817 #
edge $-1 $326 1 $326 0 $202 $-1 forward 7 unknown #
vertex $-1 $203 $327 #
ellipse-curve $-1 -72.949453543355986 21.027171286314442 11.784373790879014 -0.6560590369687036 0 0.75470957328743171 0.75470957328743171 0 0.6560590369687036 1 I I #
point $-1 -73.262974744914928 21.027171286314442 13.669291736615817 #
plane-surface $-1 76.275521103549295 0 0 -1 0 0 0 0 1 forward_v I I I I #
coedge $-1 $211 $209 $213 $290 reversed $141 $-1 #
edge $-1 $224 -14.97594031520704 $292 14.97594031520704 $223 $328 forward 7 unknown #
vertex $-1 $290 $329 #
straight-curve $-1 -76.275521103549295 -39.942748468388679 0 0 0 -1 I I #
edge $-1 $288 -39.942748468388679 $292 39.942748468388679 $286 $330 forward 7 unknown #
straight-curve $-1 0 -39.942748468388679 -14.97594031520704 -1 0 0 I I #
vertex $-1 $216 $331 #
straight-curve $-1 0 39.942748468388679 -14.97594031520704 1 0 0 I I #
point $-1 76.275521103549295 39.942748468388679 -14.97594031520704 #
point $-1 76.275521103549295 -39.942748468388679 -14.97594031520704 #
straight-curve $-1 -76.275521103549295 0 14.97594031520704 0 -1 0 I I #
point $-1 -76.275521103549295 39.942748468388679 14.97594031520704 #
point $-1 -76.275521103549295 -39.942748468388679 14.97594031520704 #
straight-curve $-1 76.275521103549295 -39.942748468388679 0 0 0 -1 I I #
straight-curve $-1 76.275521103549295 39.942748468388679 0 0 0 -1 I I #
edge $-1 $302 48.115188211172743 $305 52.04060344229255 $234 $332 forward 7 unknown #
vertex $-1 $248 $333 #
straight-curve $-1 -88.179005471255238 -15.865377699699074 14.97594031520704 -1 0 0 I I #
edge $-1 $305 5.2637643027712695 $245 15.93946249108434 $244 $334 forward 7 unknown #
vertex $-1 $304 $335 #
straight-curve $-1 -76.275521103549323 -15.865377699699074 11.050525084087212 0.75470957328743171 0 0.6560590369687036 I I #
point $-1 -71.759847532855474 -15.865377699699074 14.97594031520704 #
point $-1 -76.275521103549295 -26.541075888012145 11.050525084087237 #
straight-curve $-1 -76.275521103549295 0 14.97594031520704 0 -1 0 I I #
vertex $-1 $251 $336 #
point $-1 -72.194743970068544 -23.490876405636982 12.440432827847719 #
vertex $-1 $255 $337 #
point $-1 -72.194743970068544 -18.915577182074237 12.440432827847719 #
coedge $-1 $270 $269 $262 $315 forward $259 $-1 #
edge $-1 $316 48.115188211172743 $319 52.04060344229255 $314 $338 forward 7 unknown #
vertex $-1 $274 $339 #
straight-curve $-1 -88.179005471255238 24.077370768689608 14.97594031520704 -1 0 0 I I #
edge $-1 $319 -14.707609931423072 $271 -4.0319117431100011 $270 $340 forward 7 unknown #
vertex $-1 $318 $341 #
straight-curve $-1 -76.275521103549323 24.077370768689608 11.050525084087212 0.75470957328743171 0 0.6560590369687036 I I #
point $-1 -71.759847532855474 24.077370768689608 14.97594031520704 #
point $-1 -76.275521103549295 13.401672580376538 11.050525084087237 #
straight-curve $-1 -76.275521103549295 0 14.97594031520704 0 -1 0 I I #
vertex $-1 $277 $342 #
point $-1 -72.194743970068544 16.451872062751697 12.440432827847719 #
vertex $-1 $281 $343 #
point $-1 -72.194743970068544 21.027171286314442 12.440432827847719 #
straight-curve $-1 -76.275521103549295 39.942748468388679 0 0 0 -1 I I #
point $-1 -76.275521103549295 -39.942748468388679 -14.97594031520704 #
straight-curve $-1 -76.275521103549295 0 -14.97594031520704 0 1 0 I I #
point $-1 -76.275521103549295 39.942748468388679 -14.97594031520704 #
straight-curve $-1 -76.275521103549295 -15.865377699699074 63.091128526379784 0 0 -1 I I #
point $-1 -76.275521103549295 -15.865377699699074 14.97594031520704 #
straight-curve $-1 -76.275521103549295 -10.601613396927805 11.050525084087234 0 -1 0 I I #
point $-1 -76.275521103549295 -15.865377699699074 11.050525084087237 #
point $-1 -72.293394506387273 -23.490876405636982 11.029664217591582 #
point $-1 -72.293394506387273 -18.915577182074237 11.029664217591582 #
straight-curve $-1 -76.275521103549295 24.077370768689608 63.091128526379784 0 0 -1 I I #
point $-1 -76.275521103549295 24.077370768689608 14.97594031520704 #
straight-curve $-1 -76.275521103549295 9.3697608372665364 11.050525084087234 0 -1 0 I I #
point $-1 -76.275521103549295 24.077370768689608 11.050525084087237 #
point $-1 -72.293394506387273 16.451872062751697 11.029664217591582 #
point $-1 -72.293394506387273 21.027171286314442 11.029664217591582 #
End-of-ACIS-data 