500 0 13 0           
7 Unknown 11 ACIS 5.0 NT 24 Thu Mar 25 22:06:55 1999 
-1 9.9999999999999995e-007 1e-010 
body $-1 $13 $-1 $14 #
body $-1 $15 $-1 $16 #
body $-1 $17 $-1 $18 #
body $-1 $19 $-1 $20 #
body $-1 $21 $-1 $22 #
body $-1 $23 $-1 $24 #
body $-1 $25 $-1 $26 #
body $-1 $27 $-1 $28 #
body $-1 $29 $-1 $30 #
body $-1 $31 $-1 $32 #
body $-1 $33 $-1 $34 #
body $-1 $35 $-1 $36 #
body $-1 $37 $-1 $38 #
lump $-1 $-1 $39 $0 #
transform $-1 1 0 0 0 1 0 0 0 1 72.797631763664668 41.673295009311694 19.697744471700783 1 rotate no_reflect no_shear #
lump $-1 $-1 $40 $1 #
transform $-1 1 0 0 0 1 0 0 0 1 72.797631763664668 -7.2431817142168606 11.711235339305386 1 rotate no_reflect no_shear #
lump $-1 $-1 $41 $2 #
transform $-1 1 0 0 0 1 0 0 0 1 72.797631763664668 90.589771732840248 11.711235339305386 1 rotate no_reflect no_shear #
lump $-1 $-1 $42 $3 #
transform $-1 0.70710677298230451 0 -0.70710678939079041 0 1 0 0.70710678939079041 0 0.70710677298230451 145.59526591632718 24.109032856982545 236.03593037752253 1 rotate no_reflect no_shear #
lump $-1 $-1 $43 $4 #
transform $-1 0.70710677298230451 0 -0.70710678939079041 0 -1 0 -0.70710678939079041 0 -0.70710677298230451 139.29629865261793 21.959652009784485 33.096523999924386 1 rotate no_reflect no_shear #
lump $-1 $-1 $44 $5 #
transform $-1 0.70710677298230451 0 -0.70710678939079041 0 -1 0 -0.70710678939079041 0 -0.70710677298230451 139.29629865261793 26.258413704180608 33.096523999924386 1 rotate no_reflect no_shear #
lump $-1 $-1 $45 $6 #
transform $-1 0.70710677298230451 0 -0.70710678939079041 0 1 0 0.70710678939079041 0 0.70710677298230451 145.59526591632718 59.237557161640844 236.03593037752253 1 rotate no_reflect no_shear #
lump $-1 $-1 $46 $7 #
transform $-1 0.70710677298230451 0 -0.70710678939079041 0 -1 0 -0.70710678939079041 0 -0.70710677298230451 139.29629865261793 57.088176314442784 33.096523999924386 1 rotate no_reflect no_shear #
lump $-1 $-1 $47 $8 #
transform $-1 0.70710677298230451 0 -0.70710678939079041 0 -1 0 -0.70710678939079041 0 -0.70710677298230451 139.29629865261793 61.386938008838911 33.096523999924386 1 rotate no_reflect no_shear #
lump $-1 $-1 $48 $9 #
transform $-1 0.81915203911291934 0 0.57357644374324357 0 1 0 -0.57357644374324357 0 0.81915203911291934 -83.510013479865918 36.349250522539563 141.43340470852633 1 rotate no_reflect no_shear #
lump $-1 $-1 $49 $10 #
transform $-1 0.81915203911291934 0 0.57357644374324357 0 -1 0 0.57357644374324357 0 -0.81915203911291934 13.313442657119039 32.713002046421231 29.336440096625161 1 rotate no_reflect no_shear #
lump $-1 $-1 $50 $11 #
transform $-1 0.81915203911291934 0 0.57357644374324357 0 -1 0 0.57357644374324357 0 -0.81915203911291934 13.313442657119039 36.349250522539556 29.336440096625161 1 rotate no_reflect no_shear #
lump $-1 $-1 $51 $12 #
transform $-1 0.81915203911291934 0 0.57357644374324357 0 -1 0 0.57357644374324357 0 -0.81915203911291934 13.313442657119039 39.985498998657881 29.336440096625161 1 rotate no_reflect no_shear #
shell $-1 $-1 $-1 $52 $-1 $13 #
shell $-1 $-1 $-1 $53 $-1 $15 #
shell $-1 $-1 $-1 $54 $-1 $17 #
shell $-1 $-1 $-1 $55 $-1 $19 #
shell $-1 $-1 $-1 $56 $-1 $21 #
shell $-1 $-1 $-1 $57 $-1 $23 #
shell $-1 $-1 $-1 $58 $-1 $25 #
shell $-1 $-1 $-1 $59 $-1 $27 #
shell $-1 $-1 $-1 $60 $-1 $29 #
shell $-1 $-1 $-1 $61 $-1 $31 #
shell $-1 $-1 $-1 $62 $-1 $33 #
shell $-1 $-1 $-1 $63 $-1 $35 #
shell $-1 $-1 $-1 $64 $-1 $37 #
face $-1 $65 $66 $39 $-1 $67 forward single #
face $-1 $68 $69 $40 $-1 $70 forward single #
face $-1 $71 $72 $41 $-1 $73 forward single #
face $-1 $74 $75 $42 $-1 $76 forward single #
face $-1 $77 $78 $43 $-1 $79 forward single #
face $-1 $80 $81 $44 $-1 $82 forward single #
face $-1 $83 $84 $45 $-1 $85 forward single #
face $-1 $86 $87 $46 $-1 $88 forward single #
face $-1 $89 $90 $47 $-1 $91 forward single #
face $-1 $92 $93 $48 $-1 $94 forward single #
face $-1 $95 $96 $49 $-1 $97 forward single #
face $-1 $98 $99 $50 $-1 $100 forward single #
face $-1 $101 $102 $51 $-1 $103 forward single #
face $-1 $104 $105 $39 $-1 $106 reversed single #
loop $-1 $-1 $107 $52 #
plane-surface $-1 0 0 19.697744471700783 0 0 1 1 0 0 forward_v I I I I #
face $-1 $108 $109 $40 $-1 $110 reversed single #
loop $-1 $-1 $111 $53 #
plane-surface $-1 0 0 5.4310517419837261 0 0 1 1 0 0 forward_v I I I I #
face $-1 $112 $113 $41 $-1 $114 reversed single #
loop $-1 $-1 $115 $54 #
plane-surface $-1 0 0 5.4310517419837261 0 0 1 1 0 0 forward_v I I I I #
face $-1 $116 $117 $42 $-1 $118 reversed single #
loop $-1 $-1 $119 $55 #
plane-surface $-1 0 0 145.59526352732934 0 0 1 1 0 0 forward_v I I I I #
face $-1 $120 $121 $43 $-1 $122 forward single #
loop $-1 $123 $124 $56 #
cone-surface $-1 0 0 -1.429303872798851 0 0 1 1 0 0 1 I I 0 1 1 forward I I I I #
face $-1 $125 $126 $44 $-1 $127 forward single #
loop $-1 $128 $129 $57 #
cone-surface $-1 0 0 -1.429303872798851 0 0 1 1 0 0 1 I I 0 1 1 forward I I I I #
face $-1 $130 $131 $45 $-1 $132 reversed single #
loop $-1 $-1 $133 $58 #
plane-surface $-1 0 0 145.59526352732934 0 0 1 1 0 0 forward_v I I I I #
face $-1 $134 $135 $46 $-1 $136 forward single #
loop $-1 $137 $138 $59 #
cone-surface $-1 0 0 -1.429303872798851 0 0 1 1 0 0 1 I I 0 1 1 forward I I I I #
face $-1 $139 $140 $47 $-1 $141 forward single #
loop $-1 $142 $143 $60 #
cone-surface $-1 0 0 -1.429303872798851 0 0 1 1 0 0 1 I I 0 1 1 forward I I I I #
face $-1 $144 $145 $48 $-1 $146 reversed single #
loop $-1 $-1 $147 $61 #
plane-surface $-1 0 0 145.59526352732934 0 0 1 1 0 0 forward_v I I I I #
face $-1 $148 $149 $49 $-1 $150 forward single #
loop $-1 $151 $152 $62 #
cone-surface $-1 0 0 -1.0074236274300361 0 0 1 0.5 0 0 1 I I 0 1 0.5 forward I I I I #
face $-1 $153 $154 $50 $-1 $155 forward single #
loop $-1 $156 $157 $63 #
cone-surface $-1 0 0 -1.0074236274300361 0 0 1 0.5 0 0 1 I I 0 1 0.5 forward I I I I #
face $-1 $158 $159 $51 $-1 $160 forward single #
loop $-1 $161 $162 $64 #
cone-surface $-1 0 0 -1.0074236274300361 0 0 1 0.5 0 0 1 I I 0 1 0.5 forward I I I I #
face $-1 $163 $164 $39 $-1 $165 reversed single #
loop $-1 $-1 $166 $65 #
plane-surface $-1 0 0 -19.697744471700783 0 0 1 1 0 0 forward_v I I I I #
coedge $-1 $167 $168 $169 $170 forward $66 $-1 #
face $-1 $171 $172 $40 $-1 $173 reversed single #
loop $-1 $-1 $174 $68 #
plane-surface $-1 0 0 -5.4310517419837261 0 0 1 1 0 0 forward_v I I I I #
coedge $-1 $175 $176 $177 $178 forward $69 $-1 #
face $-1 $179 $180 $41 $-1 $181 reversed single #
loop $-1 $-1 $182 $71 #
plane-surface $-1 0 0 -5.4310517419837261 0 0 1 1 0 0 forward_v I I I I #
coedge $-1 $183 $184 $185 $186 forward $72 $-1 #
face $-1 $187 $188 $42 $-1 $189 reversed single #
loop $-1 $-1 $190 $74 #
plane-surface $-1 0 0 -145.59526352732934 0 0 1 1 0 0 forward_v I I I I #
coedge $-1 $191 $192 $193 $194 forward $75 $-1 #
face $-1 $-1 $195 $43 $-1 $196 forward single #
loop $-1 $-1 $197 $77 #
plane-surface $-1 0 0 -2.3586077455977037 0 0 -1 -1 0 0 forward_v I I I I #
loop $-1 $-1 $198 $56 #
coedge $-1 $124 $124 $197 $199 reversed $78 $-1 #
face $-1 $-1 $200 $44 $-1 $201 forward single #
loop $-1 $-1 $202 $80 #
plane-surface $-1 0 0 -2.3586077455977037 0 0 -1 -1 0 0 forward_v I I I I #
loop $-1 $-1 $203 $57 #
coedge $-1 $129 $129 $202 $204 reversed $81 $-1 #
face $-1 $205 $206 $45 $-1 $207 reversed single #
loop $-1 $-1 $208 $83 #
plane-surface $-1 0 0 -145.59526352732934 0 0 1 1 0 0 forward_v I I I I #
coedge $-1 $209 $210 $211 $212 forward $84 $-1 #
face $-1 $-1 $213 $46 $-1 $214 forward single #
loop $-1 $-1 $215 $86 #
plane-surface $-1 0 0 -2.3586077455977037 0 0 -1 -1 0 0 forward_v I I I I #
loop $-1 $-1 $216 $59 #
coedge $-1 $138 $138 $215 $217 reversed $87 $-1 #
face $-1 $-1 $218 $47 $-1 $219 forward single #
loop $-1 $-1 $220 $89 #
plane-surface $-1 0 0 -2.3586077455977037 0 0 -1 -1 0 0 forward_v I I I I #
loop $-1 $-1 $221 $60 #
coedge $-1 $143 $143 $220 $222 reversed $90 $-1 #
face $-1 $223 $224 $48 $-1 $225 reversed single #
loop $-1 $-1 $226 $92 #
plane-surface $-1 0 0 -145.59526352732934 0 0 1 1 0 0 forward_v I I I I #
coedge $-1 $227 $228 $229 $230 forward $93 $-1 #
face $-1 $-1 $231 $49 $-1 $232 forward single #
loop $-1 $-1 $233 $95 #
plane-surface $-1 0 0 -1.7648472548600722 0 0 -1 -1 0 0 forward_v I I I I #
loop $-1 $-1 $234 $62 #
coedge $-1 $152 $152 $233 $235 reversed $96 $-1 #
face $-1 $-1 $236 $50 $-1 $237 forward single #
loop $-1 $-1 $238 $98 #
plane-surface $-1 0 0 -1.7648472548600722 0 0 -1 -1 0 0 forward_v I I I I #
loop $-1 $-1 $239 $63 #
coedge $-1 $157 $157 $238 $240 reversed $99 $-1 #
face $-1 $-1 $241 $51 $-1 $242 forward single #
loop $-1 $-1 $243 $101 #
plane-surface $-1 0 0 -1.7648472548600722 0 0 -1 -1 0 0 forward_v I I I I #
loop $-1 $-1 $244 $64 #
coedge $-1 $162 $162 $243 $245 reversed $102 $-1 #
face $-1 $246 $247 $39 $-1 $248 reversed single #
loop $-1 $-1 $249 $104 #
plane-surface $-1 0 -41.673295009311694 0 0 1 0 0 0 1 forward_v I I I I #
coedge $-1 $250 $251 $252 $253 forward $105 $-1 #
coedge $-1 $254 $107 $255 $256 forward $66 $-1 #
coedge $-1 $107 $254 $257 $258 forward $66 $-1 #
coedge $-1 $259 $260 $107 $170 reversed $261 $-1 #
edge $-1 $262 -41.673295009311694 $263 41.673295009311694 $169 $264 forward 7 unknown #
face $-1 $265 $266 $40 $-1 $267 reversed single #
loop $-1 $-1 $268 $108 #
plane-surface $-1 0 -7.2431817142168606 0 0 1 0 0 0 1 forward_v I I I I #
coedge $-1 $269 $270 $271 $272 forward $109 $-1 #
coedge $-1 $273 $111 $274 $275 forward $69 $-1 #
coedge $-1 $111 $273 $276 $277 forward $69 $-1 #
coedge $-1 $278 $279 $111 $178 reversed $280 $-1 #
edge $-1 $281 -7.2431817142168606 $282 7.2431817142168606 $177 $283 forward 7 unknown #
face $-1 $284 $285 $41 $-1 $286 reversed single #
loop $-1 $-1 $287 $112 #
plane-surface $-1 0 -7.2431817142168597 0 0 1 0 0 0 1 forward_v I I I I #
coedge $-1 $288 $289 $290 $291 forward $113 $-1 #
coedge $-1 $292 $115 $293 $294 forward $72 $-1 #
coedge $-1 $115 $292 $295 $296 forward $72 $-1 #
coedge $-1 $297 $298 $115 $186 reversed $299 $-1 #
edge $-1 $300 -7.2431817142168597 $301 7.2431817142168597 $185 $302 forward 7 unknown #
face $-1 $303 $304 $42 $-1 $305 reversed single #
loop $-1 $-1 $306 $116 #
plane-surface $-1 0 -5.0152219767954787 0 0 1 0 0 0 1 forward_v I I I I #
coedge $-1 $307 $308 $309 $310 forward $117 $-1 #
coedge $-1 $311 $119 $312 $313 forward $75 $-1 #
coedge $-1 $119 $311 $314 $315 forward $75 $-1 #
coedge $-1 $316 $317 $119 $194 reversed $318 $-1 #
edge $-1 $319 -5.0152219767954787 $320 5.0152219767954787 $193 $321 forward 7 unknown #
loop $-1 $322 $323 $120 #
cone-surface $-1 0 0 0 0 0 1 0.5 0 0 1 I I -0.70710678118654746 0.70710678118654746 0.5 forward I I I I #
coedge $-1 $197 $197 $124 $199 forward $121 $-1 #
coedge $-1 $198 $198 $323 $324 forward $123 $-1 #
edge $-1 $325 0 $325 6.2831853071796004 $197 $326 forward 7 unknown #
loop $-1 $327 $328 $125 #
cone-surface $-1 0 0 0 0 0 1 0.5 0 0 1 I I -0.70710678118654746 0.70710678118654746 0.5 forward I I I I #
coedge $-1 $202 $202 $129 $204 forward $126 $-1 #
coedge $-1 $203 $203 $328 $329 forward $128 $-1 #
edge $-1 $330 0 $330 6.2831853071796004 $202 $331 forward 7 unknown #
face $-1 $332 $333 $45 $-1 $334 reversed single #
loop $-1 $-1 $335 $130 #
plane-surface $-1 0 -5.0152219767954787 0 0 1 0 0 0 1 forward_v I I I I #
coedge $-1 $336 $337 $338 $339 forward $131 $-1 #
coedge $-1 $340 $133 $341 $342 forward $84 $-1 #
coedge $-1 $133 $340 $343 $344 forward $84 $-1 #
coedge $-1 $345 $346 $133 $212 reversed $347 $-1 #
edge $-1 $348 -5.0152219767954787 $349 5.0152219767954787 $211 $350 forward 7 unknown #
loop $-1 $351 $352 $134 #
cone-surface $-1 0 0 0 0 0 1 0.5 0 0 1 I I -0.70710678118654746 0.70710678118654746 0.5 forward I I I I #
coedge $-1 $215 $215 $138 $217 forward $135 $-1 #
coedge $-1 $216 $216 $352 $353 forward $137 $-1 #
edge $-1 $354 0 $354 6.2831853071796004 $215 $355 forward 7 unknown #
loop $-1 $356 $357 $139 #
cone-surface $-1 0 0 0 0 0 1 0.5 0 0 1 I I -0.70710678118654746 0.70710678118654746 0.5 forward I I I I #
coedge $-1 $220 $220 $143 $222 forward $140 $-1 #
coedge $-1 $221 $221 $357 $358 forward $142 $-1 #
edge $-1 $359 0 $359 6.2831853071796004 $220 $360 forward 7 unknown #
face $-1 $361 $362 $48 $-1 $363 reversed single #
loop $-1 $-1 $364 $144 #
plane-surface $-1 0 -6.0604141268638791 0 0 1 0 0 0 1 forward_v I I I I #
coedge $-1 $365 $366 $367 $368 forward $145 $-1 #
coedge $-1 $369 $147 $370 $371 forward $93 $-1 #
coedge $-1 $147 $369 $372 $373 forward $93 $-1 #
coedge $-1 $374 $375 $147 $230 reversed $376 $-1 #
edge $-1 $377 -6.0604141268638791 $378 6.0604141268638791 $229 $379 forward 7 unknown #
loop $-1 $380 $381 $148 #
cone-surface $-1 0 0 0 0 0 1 0.25 0 0 1 I I -0.70710678118654746 0.70710678118654746 0.25 forward I I I I #
coedge $-1 $233 $233 $152 $235 forward $149 $-1 #
coedge $-1 $234 $234 $381 $382 forward $151 $-1 #
edge $-1 $383 0 $383 6.2831853071796004 $233 $384 forward 7 unknown #
loop $-1 $385 $386 $153 #
cone-surface $-1 0 0 0 0 0 1 0.25 0 0 1 I I -0.70710678118654746 0.70710678118654746 0.25 forward I I I I #
coedge $-1 $238 $238 $157 $240 forward $154 $-1 #
coedge $-1 $239 $239 $386 $387 forward $156 $-1 #
edge $-1 $388 0 $388 6.2831853071796004 $238 $389 forward 7 unknown #
loop $-1 $390 $391 $158 #
cone-surface $-1 0 0 0 0 0 1 0.25 0 0 1 I I -0.70710678118654746 0.70710678118654746 0.25 forward I I I I #
coedge $-1 $243 $243 $162 $245 forward $159 $-1 #
coedge $-1 $244 $244 $391 $392 forward $161 $-1 #
edge $-1 $393 0 $393 6.2831853071796004 $243 $394 forward 7 unknown #
face $-1 $395 $396 $39 $-1 $397 reversed single #
loop $-1 $-1 $398 $163 #
plane-surface $-1 -72.797631763664668 0 0 1 0 0 0 0 -1 forward_v I I I I #
coedge $-1 $399 $257 $400 $401 forward $164 $-1 #
coedge $-1 $402 $166 $399 $403 forward $105 $-1 #
coedge $-1 $166 $402 $404 $405 forward $105 $-1 #
coedge $-1 $260 $259 $166 $253 reversed $261 $-1 #
edge $-1 $406 -41.673295009311694 $407 41.673295009311694 $252 $408 forward 7 unknown #
coedge $-1 $168 $167 $409 $410 forward $66 $-1 #
coedge $-1 $411 $412 $167 $256 reversed $396 $-1 #
edge $-1 $263 -72.797631763664668 $413 72.797631763664668 $255 $414 forward 7 unknown #
coedge $-1 $249 $415 $168 $258 reversed $164 $-1 #
edge $-1 $416 -72.797631763664668 $262 72.797631763664668 $257 $417 forward 7 unknown #
coedge $-1 $252 $169 $415 $418 forward $261 $-1 #
coedge $-1 $169 $252 $411 $419 reversed $261 $-1 #
loop $-1 $-1 $259 $395 #
vertex $-1 $170 $420 #
vertex $-1 $170 $421 #
straight-curve $-1 72.797631763664668 0 19.697744471700783 0 1 0 I I #
face $-1 $422 $423 $40 $-1 $424 reversed single #
loop $-1 $-1 $425 $171 #
plane-surface $-1 -72.797631763664668 0 0 1 0 0 0 0 -1 forward_v I I I I #
coedge $-1 $426 $276 $427 $428 forward $172 $-1 #
coedge $-1 $429 $174 $426 $430 forward $109 $-1 #
coedge $-1 $174 $429 $431 $432 forward $109 $-1 #
coedge $-1 $279 $278 $174 $272 reversed $280 $-1 #
edge $-1 $433 -7.2431817142168606 $434 7.2431817142168606 $271 $435 forward 7 unknown #
coedge $-1 $176 $175 $436 $437 forward $69 $-1 #
coedge $-1 $438 $439 $175 $275 reversed $423 $-1 #
edge $-1 $282 -72.797631763664668 $440 72.797631763664668 $274 $441 forward 7 unknown #
coedge $-1 $268 $442 $176 $277 reversed $172 $-1 #
edge $-1 $443 -72.797631763664668 $281 72.797631763664668 $276 $444 forward 7 unknown #
coedge $-1 $271 $177 $442 $445 forward $280 $-1 #
coedge $-1 $177 $271 $438 $446 reversed $280 $-1 #
loop $-1 $-1 $278 $422 #
vertex $-1 $178 $447 #
vertex $-1 $178 $448 #
straight-curve $-1 72.797631763664668 0 5.4310517419837261 0 1 0 I I #
face $-1 $449 $450 $41 $-1 $451 reversed single #
loop $-1 $-1 $452 $179 #
plane-surface $-1 -72.797631763664668 0 0 1 0 0 0 0 -1 forward_v I I I I #
coedge $-1 $453 $295 $454 $455 forward $180 $-1 #
coedge $-1 $456 $182 $453 $457 forward $113 $-1 #
coedge $-1 $182 $456 $458 $459 forward $113 $-1 #
coedge $-1 $298 $297 $182 $291 reversed $299 $-1 #
edge $-1 $460 -7.2431817142168597 $461 7.2431817142168597 $290 $462 forward 7 unknown #
coedge $-1 $184 $183 $463 $464 forward $72 $-1 #
coedge $-1 $465 $466 $183 $294 reversed $450 $-1 #
edge $-1 $301 -72.797631763664668 $467 72.797631763664668 $293 $468 forward 7 unknown #
coedge $-1 $287 $469 $184 $296 reversed $180 $-1 #
edge $-1 $470 -72.797631763664668 $300 72.797631763664668 $295 $471 forward 7 unknown #
coedge $-1 $290 $185 $469 $472 forward $299 $-1 #
coedge $-1 $185 $290 $465 $473 reversed $299 $-1 #
loop $-1 $-1 $297 $449 #
vertex $-1 $186 $474 #
vertex $-1 $186 $475 #
straight-curve $-1 72.797631763664668 0 5.4310517419837261 0 1 0 I I #
face $-1 $476 $477 $42 $-1 $478 reversed single #
loop $-1 $-1 $479 $187 #
plane-surface $-1 -291.19052705465867 0 0 1 0 0 0 0 -1 forward_v I I I I #
coedge $-1 $480 $314 $481 $482 forward $188 $-1 #
coedge $-1 $483 $190 $480 $484 forward $117 $-1 #
coedge $-1 $190 $483 $485 $486 forward $117 $-1 #
coedge $-1 $317 $316 $190 $310 reversed $318 $-1 #
edge $-1 $487 -5.0152219767954787 $488 5.0152219767954787 $309 $489 forward 7 unknown #
coedge $-1 $192 $191 $490 $491 forward $75 $-1 #
coedge $-1 $492 $493 $191 $313 reversed $477 $-1 #
edge $-1 $320 -291.19052705465867 $494 291.19052705465867 $312 $495 forward 7 unknown #
coedge $-1 $306 $496 $192 $315 reversed $188 $-1 #
edge $-1 $497 -291.19052705465867 $319 291.19052705465867 $314 $498 forward 7 unknown #
coedge $-1 $309 $193 $496 $499 forward $318 $-1 #
coedge $-1 $193 $309 $492 $500 reversed $318 $-1 #
loop $-1 $-1 $316 $476 #
vertex $-1 $194 $501 #
vertex $-1 $194 $502 #
straight-curve $-1 291.19052705465867 0 145.59526352732934 0 1 0 I I #
loop $-1 $-1 $503 $120 #
coedge $-1 $323 $323 $198 $324 reversed $195 $-1 #
edge $-1 $504 0 $504 6.2831853071796004 $323 $505 forward 7 unknown #
vertex $-1 $199 $506 #
ellipse-curve $-1 0 0 -2.3586077455977037 0 0 -1 1 0 0 1 I I #
loop $-1 $-1 $507 $125 #
coedge $-1 $328 $328 $203 $329 reversed $200 $-1 #
edge $-1 $508 0 $508 6.2831853071796004 $328 $509 forward 7 unknown #
vertex $-1 $204 $510 #
ellipse-curve $-1 0 0 -2.3586077455977037 0 0 -1 1 0 0 1 I I #
face $-1 $511 $512 $45 $-1 $513 reversed single #
loop $-1 $-1 $514 $205 #
plane-surface $-1 -291.19052705465867 0 0 1 0 0 0 0 -1 forward_v I I I I #
coedge $-1 $515 $343 $516 $517 forward $206 $-1 #
coedge $-1 $518 $208 $515 $519 forward $131 $-1 #
coedge $-1 $208 $518 $520 $521 forward $131 $-1 #
coedge $-1 $346 $345 $208 $339 reversed $347 $-1 #
edge $-1 $522 -5.0152219767954787 $523 5.0152219767954787 $338 $524 forward 7 unknown #
coedge $-1 $210 $209 $525 $526 forward $84 $-1 #
coedge $-1 $527 $528 $209 $342 reversed $512 $-1 #
edge $-1 $349 -291.19052705465867 $529 291.19052705465867 $341 $530 forward 7 unknown #
coedge $-1 $335 $531 $210 $344 reversed $206 $-1 #
edge $-1 $532 -291.19052705465867 $348 291.19052705465867 $343 $533 forward 7 unknown #
coedge $-1 $338 $211 $531 $534 forward $347 $-1 #
coedge $-1 $211 $338 $527 $535 reversed $347 $-1 #
loop $-1 $-1 $345 $511 #
vertex $-1 $212 $536 #
vertex $-1 $212 $537 #
straight-curve $-1 291.19052705465867 0 145.59526352732934 0 1 0 I I #
loop $-1 $-1 $538 $134 #
coedge $-1 $352 $352 $216 $353 reversed $213 $-1 #
edge $-1 $539 0 $539 6.2831853071796004 $352 $540 forward 7 unknown #
vertex $-1 $217 $541 #
ellipse-curve $-1 0 0 -2.3586077455977037 0 0 -1 1 0 0 1 I I #
loop $-1 $-1 $542 $139 #
coedge $-1 $357 $357 $221 $358 reversed $218 $-1 #
edge $-1 $543 0 $543 6.2831853071796004 $357 $544 forward 7 unknown #
vertex $-1 $222 $545 #
ellipse-curve $-1 0 0 -2.3586077455977037 0 0 -1 1 0 0 1 I I #
face $-1 $546 $547 $48 $-1 $548 reversed single #
loop $-1 $-1 $549 $223 #
plane-surface $-1 -291.19052705465867 0 0 1 0 0 0 0 -1 forward_v I I I I #
coedge $-1 $550 $372 $551 $552 forward $224 $-1 #
coedge $-1 $553 $226 $550 $554 forward $145 $-1 #
coedge $-1 $226 $553 $555 $556 forward $145 $-1 #
coedge $-1 $375 $374 $226 $368 reversed $376 $-1 #
edge $-1 $557 -6.0604141268638791 $558 6.0604141268638791 $367 $559 forward 7 unknown #
coedge $-1 $228 $227 $560 $561 forward $93 $-1 #
coedge $-1 $562 $563 $227 $371 reversed $547 $-1 #
edge $-1 $378 -291.19052705465867 $564 291.19052705465867 $370 $565 forward 7 unknown #
coedge $-1 $364 $566 $228 $373 reversed $224 $-1 #
edge $-1 $567 -291.19052705465867 $377 291.19052705465867 $372 $568 forward 7 unknown #
coedge $-1 $367 $229 $566 $569 forward $376 $-1 #
coedge $-1 $229 $367 $562 $570 reversed $376 $-1 #
loop $-1 $-1 $374 $546 #
vertex $-1 $230 $571 #
vertex $-1 $230 $572 #
straight-curve $-1 291.19052705465867 0 145.59526352732934 0 1 0 I I #
loop $-1 $-1 $573 $148 #
coedge $-1 $381 $381 $234 $382 reversed $231 $-1 #
edge $-1 $574 0 $574 6.2831853071796004 $381 $575 forward 7 unknown #
vertex $-1 $235 $576 #
ellipse-curve $-1 0 0 -1.7648472548600722 0 0 -1 0.5 0 0 1 I I #
loop $-1 $-1 $577 $153 #
coedge $-1 $386 $386 $239 $387 reversed $236 $-1 #
edge $-1 $578 0 $578 6.2831853071796004 $386 $579 forward 7 unknown #
vertex $-1 $240 $580 #
ellipse-curve $-1 0 0 -1.7648472548600722 0 0 -1 0.5 0 0 1 I I #
loop $-1 $-1 $581 $158 #
coedge $-1 $391 $391 $244 $392 reversed $241 $-1 #
edge $-1 $582 0 $582 6.2831853071796004 $391 $583 forward 7 unknown #
vertex $-1 $245 $584 #
ellipse-curve $-1 0 0 -1.7648472548600722 0 0 -1 0.5 0 0 1 I I #
face $-1 $-1 $261 $39 $-1 $585 reversed single #
loop $-1 $-1 $411 $246 #
plane-surface $-1 0 41.673295009311694 0 0 -1 0 0 0 -1 forward_v I I I I #
coedge $-1 $586 $409 $412 $587 forward $247 $-1 #
coedge $-1 $415 $249 $250 $403 reversed $164 $-1 #
coedge $-1 $409 $586 $249 $401 reversed $247 $-1 #
edge $-1 $416 -19.697744471700783 $588 19.697744471700783 $400 $589 forward 7 unknown #
coedge $-1 $251 $250 $586 $590 forward $105 $-1 #
edge $-1 $407 -72.797631763664668 $588 72.797631763664668 $399 $591 forward 7 unknown #
coedge $-1 $412 $411 $251 $405 reversed $396 $-1 #
edge $-1 $592 -72.797631763664668 $406 72.797631763664668 $404 $593 forward 7 unknown #
vertex $-1 $253 $594 #
vertex $-1 $418 $595 #
straight-curve $-1 72.797631763664668 0 -19.697744471700783 0 -1 0 I I #
coedge $-1 $398 $400 $254 $410 reversed $247 $-1 #
edge $-1 $413 -41.673295009311694 $416 41.673295009311694 $409 $596 forward 7 unknown #
coedge $-1 $404 $255 $260 $419 forward $396 $-1 #
coedge $-1 $255 $404 $398 $587 reversed $396 $-1 #
vertex $-1 $256 $597 #
straight-curve $-1 0 41.673295009311694 19.697744471700783 -1 0 0 I I #
coedge $-1 $257 $399 $259 $418 reversed $164 $-1 #
vertex $-1 $410 $598 #
straight-curve $-1 0 -41.673295009311694 19.697744471700783 1 0 0 I I #
edge $-1 $262 -19.697744471700783 $407 19.697744471700783 $259 $599 forward 7 unknown #
edge $-1 $263 -19.697744471700783 $406 19.697744471700783 $260 $600 forward 7 unknown #
point $-1 72.797631763664668 -41.673295009311694 19.697744471700783 #
point $-1 72.797631763664668 41.673295009311694 19.697744471700783 #
face $-1 $-1 $280 $40 $-1 $601 reversed single #
loop $-1 $-1 $438 $265 #
plane-surface $-1 0 7.2431817142168606 0 0 -1 0 0 0 -1 forward_v I I I I #
coedge $-1 $602 $436 $439 $603 forward $266 $-1 #
coedge $-1 $442 $268 $269 $430 reversed $172 $-1 #
coedge $-1 $436 $602 $268 $428 reversed $266 $-1 #
edge $-1 $443 -5.4310517419837261 $604 5.4310517419837261 $427 $605 forward 7 unknown #
coedge $-1 $270 $269 $602 $606 forward $109 $-1 #
edge $-1 $434 -72.797631763664668 $604 72.797631763664668 $426 $607 forward 7 unknown #
coedge $-1 $439 $438 $270 $432 reversed $423 $-1 #
edge $-1 $608 -72.797631763664668 $433 72.797631763664668 $431 $609 forward 7 unknown #
vertex $-1 $272 $610 #
vertex $-1 $445 $611 #
straight-curve $-1 72.797631763664668 0 -5.4310517419837261 0 -1 0 I I #
coedge $-1 $425 $427 $273 $437 reversed $266 $-1 #
edge $-1 $440 -7.2431817142168606 $443 7.2431817142168606 $436 $612 forward 7 unknown #
coedge $-1 $431 $274 $279 $446 forward $423 $-1 #
coedge $-1 $274 $431 $425 $603 reversed $423 $-1 #
vertex $-1 $275 $613 #
straight-curve $-1 0 7.2431817142168606 5.4310517419837261 -1 0 0 I I #
coedge $-1 $276 $426 $278 $445 reversed $172 $-1 #
vertex $-1 $437 $614 #
straight-curve $-1 0 -7.2431817142168606 5.4310517419837261 1 0 0 I I #
edge $-1 $281 -5.4310517419837261 $434 5.4310517419837261 $278 $615 forward 7 unknown #
edge $-1 $282 -5.4310517419837261 $433 5.4310517419837261 $279 $616 forward 7 unknown #
point $-1 72.797631763664668 -7.2431817142168606 5.4310517419837261 #
point $-1 72.797631763664668 7.2431817142168606 5.4310517419837261 #
face $-1 $-1 $299 $41 $-1 $617 reversed single #
loop $-1 $-1 $465 $284 #
plane-surface $-1 0 7.2431817142168597 0 0 -1 0 0 0 -1 forward_v I I I I #
coedge $-1 $618 $463 $466 $619 forward $285 $-1 #
coedge $-1 $469 $287 $288 $457 reversed $180 $-1 #
coedge $-1 $463 $618 $287 $455 reversed $285 $-1 #
edge $-1 $470 -5.4310517419837261 $620 5.4310517419837261 $454 $621 forward 7 unknown #
coedge $-1 $289 $288 $618 $622 forward $113 $-1 #
edge $-1 $461 -72.797631763664668 $620 72.797631763664668 $453 $623 forward 7 unknown #
coedge $-1 $466 $465 $289 $459 reversed $450 $-1 #
edge $-1 $624 -72.797631763664668 $460 72.797631763664668 $458 $625 forward 7 unknown #
vertex $-1 $291 $626 #
vertex $-1 $472 $627 #
straight-curve $-1 72.797631763664668 0 -5.4310517419837261 0 -1 0 I I #
coedge $-1 $452 $454 $292 $464 reversed $285 $-1 #
edge $-1 $467 -7.2431817142168597 $470 7.2431817142168597 $463 $628 forward 7 unknown #
coedge $-1 $458 $293 $298 $473 forward $450 $-1 #
coedge $-1 $293 $458 $452 $619 reversed $450 $-1 #
vertex $-1 $294 $629 #
straight-curve $-1 0 7.2431817142168597 5.4310517419837261 -1 0 0 I I #
coedge $-1 $295 $453 $297 $472 reversed $180 $-1 #
vertex $-1 $464 $630 #
straight-curve $-1 0 -7.2431817142168597 5.4310517419837261 1 0 0 I I #
edge $-1 $300 -5.4310517419837261 $461 5.4310517419837261 $297 $631 forward 7 unknown #
edge $-1 $301 -5.4310517419837261 $460 5.4310517419837261 $298 $632 forward 7 unknown #
point $-1 72.797631763664668 -7.2431817142168597 5.4310517419837261 #
point $-1 72.797631763664668 7.2431817142168597 5.4310517419837261 #
face $-1 $-1 $318 $42 $-1 $633 reversed single #
loop $-1 $-1 $492 $303 #
plane-surface $-1 0 5.0152219767954787 0 0 -1 0 0 0 -1 forward_v I I I I #
coedge $-1 $634 $490 $493 $635 forward $304 $-1 #
coedge $-1 $496 $306 $307 $484 reversed $188 $-1 #
coedge $-1 $490 $634 $306 $482 reversed $304 $-1 #
edge $-1 $497 -145.59526352732934 $636 145.59526352732934 $481 $637 forward 7 unknown #
coedge $-1 $308 $307 $634 $638 forward $117 $-1 #
edge $-1 $488 -291.19052705465867 $636 291.19052705465867 $480 $639 forward 7 unknown #
coedge $-1 $493 $492 $308 $486 reversed $477 $-1 #
edge $-1 $640 -291.19052705465867 $487 291.19052705465867 $485 $641 forward 7 unknown #
vertex $-1 $310 $642 #
vertex $-1 $499 $643 #
straight-curve $-1 291.19052705465867 0 -145.59526352732934 0 -1 0 I I #
coedge $-1 $479 $481 $311 $491 reversed $304 $-1 #
edge $-1 $494 -5.0152219767954787 $497 5.0152219767954787 $490 $644 forward 7 unknown #
coedge $-1 $485 $312 $317 $500 forward $477 $-1 #
coedge $-1 $312 $485 $479 $635 reversed $477 $-1 #
vertex $-1 $313 $645 #
straight-curve $-1 0 5.0152219767954787 145.59526352732934 -1 0 0 I I #
coedge $-1 $314 $480 $316 $499 reversed $188 $-1 #
vertex $-1 $491 $646 #
straight-curve $-1 0 -5.0152219767954787 145.59526352732934 1 0 0 I I #
edge $-1 $319 -145.59526352732934 $488 145.59526352732934 $316 $647 forward 7 unknown #
edge $-1 $320 -145.59526352732934 $487 145.59526352732934 $317 $648 forward 7 unknown #
point $-1 291.19052705465867 -5.0152219767954787 145.59526352732934 #
point $-1 291.19052705465867 5.0152219767954787 145.59526352732934 #
coedge $-1 $503 $503 $-1 $649 reversed $322 $-1 #
vertex $-1 $324 $650 #
ellipse-curve $-1 0 0 -0.5 0 0 -1 1 0 0 1 I I #
point $-1 1 0 -2.3586077455977037 #
coedge $-1 $507 $507 $-1 $651 reversed $327 $-1 #
vertex $-1 $329 $652 #
ellipse-curve $-1 0 0 -0.5 0 0 -1 1 0 0 1 I I #
point $-1 1 0 -2.3586077455977037 #
face $-1 $-1 $347 $45 $-1 $653 reversed single #
loop $-1 $-1 $527 $332 #
plane-surface $-1 0 5.0152219767954787 0 0 -1 0 0 0 -1 forward_v I I I I #
coedge $-1 $654 $525 $528 $655 forward $333 $-1 #
coedge $-1 $531 $335 $336 $519 reversed $206 $-1 #
coedge $-1 $525 $654 $335 $517 reversed $333 $-1 #
edge $-1 $532 -145.59526352732934 $656 145.59526352732934 $516 $657 forward 7 unknown #
coedge $-1 $337 $336 $654 $658 forward $131 $-1 #
edge $-1 $523 -291.19052705465867 $656 291.19052705465867 $515 $659 forward 7 unknown #
coedge $-1 $528 $527 $337 $521 reversed $512 $-1 #
edge $-1 $660 -291.19052705465867 $522 291.19052705465867 $520 $661 forward 7 unknown #
vertex $-1 $339 $662 #
vertex $-1 $534 $663 #
straight-curve $-1 291.19052705465867 0 -145.59526352732934 0 -1 0 I I #
coedge $-1 $514 $516 $340 $526 reversed $333 $-1 #
edge $-1 $529 -5.0152219767954787 $532 5.0152219767954787 $525 $664 forward 7 unknown #
coedge $-1 $520 $341 $346 $535 forward $512 $-1 #
coedge $-1 $341 $520 $514 $655 reversed $512 $-1 #
vertex $-1 $342 $665 #
straight-curve $-1 0 5.0152219767954787 145.59526352732934 -1 0 0 I I #
coedge $-1 $343 $515 $345 $534 reversed $206 $-1 #
vertex $-1 $526 $666 #
straight-curve $-1 0 -5.0152219767954787 145.59526352732934 1 0 0 I I #
edge $-1 $348 -145.59526352732934 $523 145.59526352732934 $345 $667 forward 7 unknown #
edge $-1 $349 -145.59526352732934 $522 145.59526352732934 $346 $668 forward 7 unknown #
point $-1 291.19052705465867 -5.0152219767954787 145.59526352732934 #
point $-1 291.19052705465867 5.0152219767954787 145.59526352732934 #
coedge $-1 $538 $538 $-1 $669 reversed $351 $-1 #
vertex $-1 $353 $670 #
ellipse-curve $-1 0 0 -0.5 0 0 -1 1 0 0 1 I I #
point $-1 1 0 -2.3586077455977037 #
coedge $-1 $542 $542 $-1 $671 reversed $356 $-1 #
vertex $-1 $358 $672 #
ellipse-curve $-1 0 0 -0.5 0 0 -1 1 0 0 1 I I #
point $-1 1 0 -2.3586077455977037 #
face $-1 $-1 $376 $48 $-1 $673 reversed single #
loop $-1 $-1 $562 $361 #
plane-surface $-1 0 6.0604141268638791 0 0 -1 0 0 0 -1 forward_v I I I I #
coedge $-1 $674 $560 $563 $675 forward $362 $-1 #
coedge $-1 $566 $364 $365 $554 reversed $224 $-1 #
coedge $-1 $560 $674 $364 $552 reversed $362 $-1 #
edge $-1 $567 -145.59526352732934 $676 145.59526352732934 $551 $677 forward 7 unknown #
coedge $-1 $366 $365 $674 $678 forward $145 $-1 #
edge $-1 $558 -291.19052705465867 $676 291.19052705465867 $550 $679 forward 7 unknown #
coedge $-1 $563 $562 $366 $556 reversed $547 $-1 #
edge $-1 $680 -291.19052705465867 $557 291.19052705465867 $555 $681 forward 7 unknown #
vertex $-1 $368 $682 #
vertex $-1 $569 $683 #
straight-curve $-1 291.19052705465867 0 -145.59526352732934 0 -1 0 I I #
coedge $-1 $549 $551 $369 $561 reversed $362 $-1 #
edge $-1 $564 -6.0604141268638791 $567 6.0604141268638791 $560 $684 forward 7 unknown #
coedge $-1 $555 $370 $375 $570 forward $547 $-1 #
coedge $-1 $370 $555 $549 $675 reversed $547 $-1 #
vertex $-1 $371 $685 #
straight-curve $-1 0 6.0604141268638791 145.59526352732934 -1 0 0 I I #
coedge $-1 $372 $550 $374 $569 reversed $224 $-1 #
vertex $-1 $561 $686 #
straight-curve $-1 0 -6.0604141268638791 145.59526352732934 1 0 0 I I #
edge $-1 $377 -145.59526352732934 $558 145.59526352732934 $374 $687 forward 7 unknown #
edge $-1 $378 -145.59526352732934 $557 145.59526352732934 $375 $688 forward 7 unknown #
point $-1 291.19052705465867 -6.0604141268638791 145.59526352732934 #
point $-1 291.19052705465867 6.0604141268638791 145.59526352732934 #
coedge $-1 $573 $573 $-1 $689 reversed $380 $-1 #
vertex $-1 $382 $690 #
ellipse-curve $-1 0 0 -0.25 0 0 -1 0.5 0 0 1 I I #
point $-1 0.5 0 -1.7648472548600722 #
coedge $-1 $577 $577 $-1 $691 reversed $385 $-1 #
vertex $-1 $387 $692 #
ellipse-curve $-1 0 0 -0.25 0 0 -1 0.5 0 0 1 I I #
point $-1 0.5 0 -1.7648472548600722 #
coedge $-1 $581 $581 $-1 $693 reversed $390 $-1 #
vertex $-1 $392 $694 #
ellipse-curve $-1 0 0 -0.25 0 0 -1 0.5 0 0 1 I I #
point $-1 0.5 0 -1.7648472548600722 #
plane-surface $-1 72.797631763664668 0 0 -1 0 0 0 0 1 forward_v I I I I #
coedge $-1 $400 $398 $402 $590 reversed $247 $-1 #
edge $-1 $413 -19.697744471700783 $592 19.697744471700783 $412 $695 forward 7 unknown #
vertex $-1 $590 $696 #
straight-curve $-1 -72.797631763664668 -41.673295009311694 0 0 0 -1 I I #
edge $-1 $588 -41.673295009311694 $592 41.673295009311694 $586 $697 forward 7 unknown #
straight-curve $-1 0 -41.673295009311694 -19.697744471700783 -1 0 0 I I #
vertex $-1 $405 $698 #
straight-curve $-1 0 41.673295009311694 -19.697744471700783 1 0 0 I I #
point $-1 72.797631763664668 41.673295009311694 -19.697744471700783 #
point $-1 72.797631763664668 -41.673295009311694 -19.697744471700783 #
straight-curve $-1 -72.797631763664668 0 19.697744471700783 0 -1 0 I I #
point $-1 -72.797631763664668 41.673295009311694 19.697744471700783 #
point $-1 -72.797631763664668 -41.673295009311694 19.697744471700783 #
straight-curve $-1 72.797631763664668 -41.673295009311694 0 0 0 -1 I I #
straight-curve $-1 72.797631763664668 41.673295009311694 0 0 0 -1 I I #
plane-surface $-1 72.797631763664668 0 0 -1 0 0 0 0 1 forward_v I I I I #
coedge $-1 $427 $425 $429 $606 reversed $266 $-1 #
edge $-1 $440 -5.4310517419837261 $608 5.4310517419837261 $439 $699 forward 7 unknown #
vertex $-1 $606 $700 #
straight-curve $-1 -72.797631763664668 -7.2431817142168606 0 0 0 -1 I I #
edge $-1 $604 -7.2431817142168606 $608 7.2431817142168606 $602 $701 forward 7 unknown #
straight-curve $-1 0 -7.2431817142168606 -5.4310517419837261 -1 0 0 I I #
vertex $-1 $432 $702 #
straight-curve $-1 0 7.2431817142168606 -5.4310517419837261 1 0 0 I I #
point $-1 72.797631763664668 7.2431817142168606 -5.4310517419837261 #
point $-1 72.797631763664668 -7.2431817142168606 -5.4310517419837261 #
straight-curve $-1 -72.797631763664668 0 5.4310517419837261 0 -1 0 I I #
point $-1 -72.797631763664668 7.2431817142168606 5.4310517419837261 #
point $-1 -72.797631763664668 -7.2431817142168606 5.4310517419837261 #
straight-curve $-1 72.797631763664668 -7.2431817142168606 0 0 0 -1 I I #
straight-curve $-1 72.797631763664668 7.2431817142168606 0 0 0 -1 I I #
plane-surface $-1 72.797631763664668 0 0 -1 0 0 0 0 1 forward_v I I I I #
coedge $-1 $454 $452 $456 $622 reversed $285 $-1 #
edge $-1 $467 -5.4310517419837261 $624 5.4310517419837261 $466 $703 forward 7 unknown #
vertex $-1 $622 $704 #
straight-curve $-1 -72.797631763664668 -7.2431817142168597 0 0 0 -1 I I #
edge $-1 $620 -7.2431817142168597 $624 7.2431817142168597 $618 $705 forward 7 unknown #
straight-curve $-1 0 -7.2431817142168597 -5.4310517419837261 -1 0 0 I I #
vertex $-1 $459 $706 #
straight-curve $-1 0 7.2431817142168597 -5.4310517419837261 1 0 0 I I #
point $-1 72.797631763664668 7.2431817142168597 -5.4310517419837261 #
point $-1 72.797631763664668 -7.2431817142168597 -5.4310517419837261 #
straight-curve $-1 -72.797631763664668 0 5.4310517419837261 0 -1 0 I I #
point $-1 -72.797631763664668 7.2431817142168597 5.4310517419837261 #
point $-1 -72.797631763664668 -7.2431817142168597 5.4310517419837261 #
straight-curve $-1 72.797631763664668 -7.2431817142168597 0 0 0 -1 I I #
straight-curve $-1 72.797631763664668 7.2431817142168597 0 0 0 -1 I I #
plane-surface $-1 291.19052705465867 0 0 -1 0 0 0 0 1 forward_v I I I I #
coedge $-1 $481 $479 $483 $638 reversed $304 $-1 #
edge $-1 $494 -145.59526352732934 $640 145.59526352732934 $493 $707 forward 7 unknown #
vertex $-1 $638 $708 #
straight-curve $-1 -291.19052705465867 -5.0152219767954787 0 0 0 -1 I I #
edge $-1 $636 -5.0152219767954787 $640 5.0152219767954787 $634 $709 forward 7 unknown #
straight-curve $-1 0 -5.0152219767954787 -145.59526352732934 -1 0 0 I I #
vertex $-1 $486 $710 #
straight-curve $-1 0 5.0152219767954787 -145.59526352732934 1 0 0 I I #
point $-1 291.19052705465867 5.0152219767954787 -145.59526352732934 #
point $-1 291.19052705465867 -5.0152219767954787 -145.59526352732934 #
straight-curve $-1 -291.19052705465867 0 145.59526352732934 0 -1 0 I I #
point $-1 -291.19052705465867 5.0152219767954787 145.59526352732934 #
point $-1 -291.19052705465867 -5.0152219767954787 145.59526352732934 #
straight-curve $-1 291.19052705465867 -5.0152219767954787 0 0 0 -1 I I #
straight-curve $-1 291.19052705465867 5.0152219767954787 0 0 0 -1 I I #
edge $-1 $711 1 $711 0 $503 $-1 forward 7 unknown #
point $-1 1 0 -0.5 #
edge $-1 $712 1 $712 0 $507 $-1 forward 7 unknown #
point $-1 1 0 -0.5 #
plane-surface $-1 291.19052705465867 0 0 -1 0 0 0 0 1 forward_v I I I I #
coedge $-1 $516 $514 $518 $658 reversed $333 $-1 #
edge $-1 $529 -145.59526352732934 $660 145.59526352732934 $528 $713 forward 7 unknown #
vertex $-1 $658 $714 #
straight-curve $-1 -291.19052705465867 -5.0152219767954787 0 0 0 -1 I I #
edge $-1 $656 -5.0152219767954787 $660 5.0152219767954787 $654 $715 forward 7 unknown #
straight-curve $-1 0 -5.0152219767954787 -145.59526352732934 -1 0 0 I I #
vertex $-1 $521 $716 #
straight-curve $-1 0 5.0152219767954787 -145.59526352732934 1 0 0 I I #
point $-1 291.19052705465867 5.0152219767954787 -145.59526352732934 #
point $-1 291.19052705465867 -5.0152219767954787 -145.59526352732934 #
straight-curve $-1 -291.19052705465867 0 145.59526352732934 0 -1 0 I I #
point $-1 -291.19052705465867 5.0152219767954787 145.59526352732934 #
point $-1 -291.19052705465867 -5.0152219767954787 145.59526352732934 #
straight-curve $-1 291.19052705465867 -5.0152219767954787 0 0 0 -1 I I #
straight-curve $-1 291.19052705465867 5.0152219767954787 0 0 0 -1 I I #
edge $-1 $717 1 $717 0 $538 $-1 forward 7 unknown #
point $-1 1 0 -0.5 #
edge $-1 $718 1 $718 0 $542 $-1 forward 7 unknown #
point $-1 1 0 -0.5 #
plane-surface $-1 291.19052705465867 0 0 -1 0 0 0 0 1 forward_v I I I I #
coedge $-1 $551 $549 $553 $678 reversed $362 $-1 #
edge $-1 $564 -145.59526352732934 $680 145.59526352732934 $563 $719 forward 7 unknown #
vertex $-1 $678 $720 #
straight-curve $-1 -291.19052705465867 -6.0604141268638791 0 0 0 -1 I I #
edge $-1 $676 -6.0604141268638791 $680 6.0604141268638791 $674 $721 forward 7 unknown #
straight-curve $-1 0 -6.0604141268638791 -145.59526352732934 -1 0 0 I I #
vertex $-1 $556 $722 #
straight-curve $-1 0 6.0604141268638791 -145.59526352732934 1 0 0 I I #
point $-1 291.19052705465867 6.0604141268638791 -145.59526352732934 #
point $-1 291.19052705465867 -6.0604141268638791 -145.59526352732934 #
straight-curve $-1 -291.19052705465867 0 145.59526352732934 0 -1 0 I I #
point $-1 -291.19052705465867 6.0604141268638791 145.59526352732934 #
point $-1 -291.19052705465867 -6.0604141268638791 145.59526352732934 #
straight-curve $-1 291.19052705465867 -6.0604141268638791 0 0 0 -1 I I #
straight-curve $-1 291.19052705465867 6.0604141268638791 0 0 0 -1 I I #
edge $-1 $723 1 $723 0 $573 $-1 forward 7 unknown #
point $-1 0.5 0 -0.25 #
edge $-1 $724 1 $724 0 $577 $-1 forward 7 unknown #
point $-1 0.5 0 -0.25 #
edge $-1 $725 1 $725 0 $581 $-1 forward 7 unknown #
point $-1 0.5 0 -0.25 #
straight-curve $-1 -72.797631763664668 41.673295009311694 0 0 0 -1 I I #
point $-1 -72.797631763664668 -41.673295009311694 -19.697744471700783 #
straight-curve $-1 -72.797631763664668 0 -19.697744471700783 0 1 0 I I #
point $-1 -72.797631763664668 41.673295009311694 -19.697744471700783 #
straight-curve $-1 -72.797631763664668 7.2431817142168606 0 0 0 -1 I I #
point $-1 -72.797631763664668 -7.2431817142168606 -5.4310517419837261 #
straight-curve $-1 -72.797631763664668 0 -5.4310517419837261 0 1 0 I I #
point $-1 -72.797631763664668 7.2431817142168606 -5.4310517419837261 #
straight-curve $-1 -72.797631763664668 7.2431817142168597 0 0 0 -1 I I #
point $-1 -72.797631763664668 -7.2431817142168597 -5.4310517419837261 #
straight-curve $-1 -72.797631763664668 0 -5.4310517419837261 0 1 0 I I #
point $-1 -72.797631763664668 7.2431817142168597 -5.4310517419837261 #
straight-curve $-1 -291.19052705465867 5.0152219767954787 0 0 0 -1 I I #
point $-1 -291.19052705465867 -5.0152219767954787 -145.59526352732934 #
straight-curve $-1 -291.19052705465867 0 -145.59526352732934 0 1 0 I I #
point $-1 -291.19052705465867 5.0152219767954787 -145.59526352732934 #
vertex $-1 $649 $726 #
vertex $-1 $651 $727 #
straight-curve $-1 -291.19052705465867 5.0152219767954787 0 0 0 -1 I I #
point $-1 -291.19052705465867 -5.0152219767954787 -145.59526352732934 #
straight-curve $-1 -291.19052705465867 0 -145.59526352732934 0 1 0 I I #
point $-1 -291.19052705465867 5.0152219767954787 -145.59526352732934 #
vertex $-1 $669 $728 #
vertex $-1 $671 $729 #
straight-curve $-1 -291.19052705465867 6.0604141268638791 0 0 0 -1 I I #
point $-1 -291.19052705465867 -6.0604141268638791 -145.59526352732934 #
straight-curve $-1 -291.19052705465867 0 -145.59526352732934 0 1 0 I I #
point $-1 -291.19052705465867 6.0604141268638791 -145.59526352732934 #
vertex $-1 $689 $730 #
vertex $-1 $691 $731 #
vertex $-1 $693 $732 #
point $-1 0 0 0.5 #
point $-1 0 0 0.5 #
point $-1 0 0 0.5 #
point $-1 0 0 0.5 #
point $-1 0 0 0.25 #
point $-1 0 0 0.25 #
point $-1 0 0 0.25 #
End-of-ACIS-data 