500 0 15 0           
7 Unknown 11 ACIS 5.0 NT 24 Fri Mar 26 01:36:47 1999 
-1 9.9999999999999995e-007 1e-010 
body $-1 $15 $-1 $16 #
body $-1 $17 $-1 $18 #
body $-1 $19 $-1 $20 #
body $-1 $21 $-1 $22 #
body $-1 $23 $-1 $24 #
body $-1 $25 $-1 $26 #
body $-1 $27 $-1 $28 #
body $-1 $29 $-1 $30 #
body $-1 $31 $-1 $32 #
body $-1 $33 $-1 $34 #
body $-1 $35 $-1 $36 #
body $-1 $37 $-1 $38 #
body $-1 $39 $-1 $40 #
body $-1 $41 $-1 $42 #
body $-1 $43 $-1 $44 #
lump $-1 $-1 $45 $0 #
transform $-1 1 0 0 0 1 0 0 0 1 68.219855342265078 36.335759982495055 10.065605437211451 1 rotate no_reflect no_shear #
lump $-1 $-1 $46 $1 #
transform $-1 1 0 0 0 1 0 0 0 1 68.219855342265078 36.335759982495055 10.065605437211451 1 rotate no_reflect no_shear #
lump $-1 $-1 $47 $2 #
transform $-1 1 0 0 0 1 0 0 0 1 68.219855342265078 36.335759982495055 10.065605437211451 1 rotate no_reflect no_shear #
lump $-1 $-1 $48 $3 #
transform $-1 1 0 0 0 1 0 0 0 1 68.219855342265078 36.335759982495055 10.065605437211451 1 rotate no_reflect no_shear #
lump $-1 $-1 $49 $4 #
transform $-1 1 0 0 0 1 0 0 0 1 68.219855342265078 36.335759982495055 10.065605437211451 1 rotate no_reflect no_shear #
lump $-1 $-1 $50 $5 #
transform $-1 1 0 0 0 1 0 0 0 1 68.219855342265078 36.335759982495055 10.065605437211451 1 rotate no_reflect no_shear #
lump $-1 $-1 $51 $6 #
transform $-1 1 0 0 0 1 0 0 0 1 68.219855342265078 36.335759982495055 10.065605437211451 1 rotate no_reflect no_shear #
lump $-1 $-1 $52 $7 #
transform $-1 1 0 0 0 1 0 0 0 1 68.219855342265078 36.335759982495055 10.065605437211451 1 rotate no_reflect no_shear #
lump $-1 $-1 $53 $8 #
transform $-1 1 0 0 0 1 0 0 0 1 68.219855342265078 36.335759982495055 10.065605437211451 1 rotate no_reflect no_shear #
lump $-1 $-1 $54 $9 #
transform $-1 1 0 0 0 1 0 0 0 1 68.219855342265078 36.335759982495055 10.065605437211451 1 rotate no_reflect no_shear #
lump $-1 $-1 $55 $10 #
transform $-1 1 0 0 0 1 0 0 0 1 68.219855342265078 36.335759982495055 10.065605437211451 1 rotate no_reflect no_shear #
lump $-1 $-1 $56 $11 #
transform $-1 1 0 0 0 1 0 0 0 1 68.219855342265078 36.335759982495055 10.065605437211451 1 rotate no_reflect no_shear #
lump $-1 $-1 $57 $12 #
transform $-1 1 0 0 0 1 0 0 0 1 68.219855342265078 36.335759982495055 10.065605437211451 1 rotate no_reflect no_shear #
lump $-1 $-1 $58 $13 #
transform $-1 1 0 0 0 1 0 0 0 1 68.219855342265078 36.335759982495055 10.065605437211451 1 rotate no_reflect no_shear #
lump $-1 $-1 $59 $14 #
transform $-1 1 0 0 0 1 0 0 0 1 68.219855342265078 36.335759982495055 10.065605437211451 1 rotate no_reflect no_shear #
shell $-1 $-1 $-1 $60 $-1 $15 #
shell $-1 $-1 $-1 $61 $-1 $17 #
shell $-1 $-1 $-1 $62 $-1 $19 #
shell $-1 $-1 $-1 $63 $-1 $21 #
shell $-1 $-1 $-1 $64 $-1 $23 #
shell $-1 $-1 $-1 $65 $-1 $25 #
shell $-1 $-1 $-1 $66 $-1 $27 #
shell $-1 $-1 $-1 $67 $-1 $29 #
shell $-1 $-1 $-1 $68 $-1 $31 #
shell $-1 $-1 $-1 $69 $-1 $33 #
shell $-1 $-1 $-1 $70 $-1 $35 #
shell $-1 $-1 $-1 $71 $-1 $37 #
shell $-1 $-1 $-1 $72 $-1 $39 #
shell $-1 $-1 $-1 $73 $-1 $41 #
shell $-1 $-1 $-1 $74 $-1 $43 #
face $-1 $75 $76 $45 $-1 $77 reversed single #
face $-1 $78 $79 $46 $-1 $80 forward single #
face $-1 $81 $82 $47 $-1 $83 forward single #
face $-1 $84 $85 $48 $-1 $86 reversed single #
face $-1 $87 $88 $49 $-1 $89 forward single #
face $-1 $90 $91 $50 $-1 $92 forward single #
face $-1 $93 $94 $51 $-1 $95 reversed single #
face $-1 $96 $97 $52 $-1 $98 forward single #
face $-1 $99 $100 $53 $-1 $101 forward single #
face $-1 $102 $103 $54 $-1 $104 reversed single #
face $-1 $105 $106 $55 $-1 $107 forward single #
face $-1 $108 $109 $56 $-1 $110 forward single #
face $-1 $111 $112 $57 $-1 $113 reversed single #
face $-1 $114 $115 $58 $-1 $116 forward single #
face $-1 $117 $118 $59 $-1 $119 forward single #
face $-1 $120 $121 $45 $-1 $122 forward single #
loop $-1 $-1 $123 $60 #
plane-surface $-1 68.219855342265078 0 0 -1 0 0 0 0 1 forward_v I I I I #
face $-1 $124 $125 $46 $-1 $126 reversed single #
loop $-1 $-1 $127 $61 #
plane-surface $-1 -68.219855342265078 0 0 1 0 0 0 0 -1 forward_v I I I I #
face $-1 $128 $129 $47 $-1 $130 reversed single #
loop $-1 $-1 $131 $62 #
plane-surface $-1 68.219855342265078 0 0 -1 0 0 0 0 1 forward_v I I I I #
face $-1 $132 $133 $48 $-1 $134 reversed single #
loop $-1 $-1 $135 $63 #
plane-surface $-1 -58.921731393305421 101.56654736068998 142.82551314015859 1 0 0 0 -0.79863551827123203 -0.60181501223851219 forward_v I I I I #
face $-1 $136 $137 $49 $-1 $138 forward single #
loop $-1 $139 $140 $64 #
cone-surface $-1 -52.967609763054952 31.667324695470992 4.9509526849753582 0 -0.79863551827123203 -0.60181501223851219 1.5 0 0 1 I I 0 1 1.5 forward I I I I #
face $-1 $141 $142 $50 $-1 $143 forward single #
loop $-1 $144 $145 $65 #
cone-surface $-1 -44.036427317679248 31.667324695470992 4.9509526849753582 0 -0.79863551827123203 -0.60181501223851219 1.5 0 0 1 I I 0 1 1.5 forward I I I I #
face $-1 $146 $147 $51 $-1 $148 reversed single #
loop $-1 $-1 $149 $66 #
plane-surface $-1 -26.587052366394019 101.56654736068998 142.82551314015859 1 0 0 0 -0.79863551827123203 -0.60181501223851219 forward_v I I I I #
face $-1 $150 $151 $52 $-1 $152 forward single #
loop $-1 $153 $154 $67 #
cone-surface $-1 -20.63293073614355 31.667324695470992 4.9509526849753582 0 -0.79863551827123203 -0.60181501223851219 1.5 0 0 1 I I 0 1 1.5 forward I I I I #
face $-1 $155 $156 $53 $-1 $157 forward single #
loop $-1 $158 $159 $68 #
cone-surface $-1 -11.701748290767846 31.667324695470992 4.9509526849753582 0 -0.79863551827123203 -0.60181501223851219 1.5 0 0 1 I I 0 1 1.5 forward I I I I #
face $-1 $160 $161 $54 $-1 $162 reversed single #
loop $-1 $-1 $163 $69 #
plane-surface $-1 5.7476266605173816 101.56654736068998 142.82551314015859 1 0 0 0 -0.79863551827123203 -0.60181501223851219 forward_v I I I I #
face $-1 $164 $165 $55 $-1 $166 forward single #
loop $-1 $167 $168 $70 #
cone-surface $-1 11.701748290767853 31.667324695470992 4.9509526849753582 0 -0.79863551827123203 -0.60181501223851219 1.5 0 0 1 I I 0 1 1.5 forward I I I I #
face $-1 $169 $170 $56 $-1 $171 forward single #
loop $-1 $172 $173 $71 #
cone-surface $-1 20.63293073614355 31.667324695470992 4.9509526849753582 0 -0.79863551827123203 -0.60181501223851219 1.5 0 0 1 I I 0 1 1.5 forward I I I I #
face $-1 $174 $175 $57 $-1 $176 reversed single #
loop $-1 $-1 $177 $72 #
plane-surface $-1 38.082305687428786 101.56654736068998 142.82551314015859 1 0 0 0 -0.79863551827123203 -0.60181501223851219 forward_v I I I I #
face $-1 $178 $179 $58 $-1 $180 forward single #
loop $-1 $181 $182 $73 #
cone-surface $-1 44.036427317679255 31.667324695470992 4.9509526849753582 0 -0.79863551827123203 -0.60181501223851219 1.5 0 0 1 I I 0 1 1.5 forward I I I I #
face $-1 $183 $184 $59 $-1 $185 forward single #
loop $-1 $186 $187 $74 #
cone-surface $-1 52.967609763054952 31.667324695470992 4.9509526849753582 0 -0.79863551827123203 -0.60181501223851219 1.5 0 0 1 I I 0 1 1.5 forward I I I I #
face $-1 $188 $189 $45 $-1 $190 reversed single #
loop $-1 $-1 $191 $75 #
plane-surface $-1 0 0 10.065605437211451 0 0 1 1 0 0 forward_v I I I I #
coedge $-1 $192 $193 $194 $195 reversed $76 $-1 #
face $-1 $196 $197 $46 $-1 $198 forward single #
loop $-1 $-1 $199 $78 #
plane-surface $-1 0 36.335759982495055 0 0 -1 0 0 0 -1 forward_v I I I I #
coedge $-1 $200 $201 $202 $203 forward $79 $-1 #
face $-1 $204 $205 $47 $-1 $206 forward single #
loop $-1 $-1 $207 $81 #
plane-surface $-1 0 -36.335759982495055 0 0 1 0 0 0 1 forward_v I I I I #
coedge $-1 $208 $209 $210 $211 forward $82 $-1 #
face $-1 $212 $213 $48 $-1 $214 reversed single #
loop $-1 $-1 $215 $84 #
plane-surface $-1 -48.502018540367104 -7.3990516946267064 60.714046984729009 0 0.79863551827123203 0.60181501223851219 1 0 0 forward_v I I I I #
coedge $-1 $216 $217 $218 $219 reversed $85 $-1 #
face $-1 $-1 $220 $49 $-1 $221 forward single #
loop $-1 $222 $223 $87 #
cone-surface $-1 -52.967609763054952 29.184150021111101 3.0797464052006465 0 -0.79863551827123203 -0.60181501223851219 0.75 0 0 1 I I -0.70710678118654768 0.70710678118654735 0.75 forward I I I I #
loop $-1 $-1 $224 $64 #
coedge $-1 $140 $140 $225 $226 reversed $88 $-1 #
face $-1 $-1 $227 $50 $-1 $228 forward single #
loop $-1 $229 $230 $90 #
cone-surface $-1 -44.036427317679248 29.184150021111101 3.0797464052006465 0 -0.79863551827123203 -0.60181501223851219 0.75 0 0 1 I I -0.70710678118654768 0.70710678118654735 0.75 forward I I I I #
loop $-1 $-1 $231 $65 #
coedge $-1 $145 $145 $232 $233 reversed $91 $-1 #
face $-1 $234 $235 $51 $-1 $236 reversed single #
loop $-1 $-1 $237 $93 #
plane-surface $-1 -16.167339513455701 -7.3990516946267064 60.714046984729009 0 0.79863551827123203 0.60181501223851219 1 0 0 forward_v I I I I #
coedge $-1 $238 $239 $240 $241 reversed $94 $-1 #
face $-1 $-1 $242 $52 $-1 $243 forward single #
loop $-1 $244 $245 $96 #
cone-surface $-1 -20.63293073614355 29.184150021111101 3.0797464052006465 0 -0.79863551827123203 -0.60181501223851219 0.75 0 0 1 I I -0.70710678118654768 0.70710678118654735 0.75 forward I I I I #
loop $-1 $-1 $246 $67 #
coedge $-1 $154 $154 $247 $248 reversed $97 $-1 #
face $-1 $-1 $249 $53 $-1 $250 forward single #
loop $-1 $251 $252 $99 #
cone-surface $-1 -11.701748290767846 29.184150021111101 3.0797464052006465 0 -0.79863551827123203 -0.60181501223851219 0.75 0 0 1 I I -0.70710678118654768 0.70710678118654735 0.75 forward I I I I #
loop $-1 $-1 $253 $68 #
coedge $-1 $159 $159 $254 $255 reversed $100 $-1 #
face $-1 $256 $257 $54 $-1 $258 reversed single #
loop $-1 $-1 $259 $102 #
plane-surface $-1 16.167339513455701 -7.3990516946267064 60.714046984729009 0 0.79863551827123203 0.60181501223851219 1 0 0 forward_v I I I I #
coedge $-1 $260 $261 $262 $263 reversed $103 $-1 #
face $-1 $-1 $264 $55 $-1 $265 forward single #
loop $-1 $266 $267 $105 #
cone-surface $-1 11.701748290767853 29.184150021111101 3.0797464052006465 0 -0.79863551827123203 -0.60181501223851219 0.75 0 0 1 I I -0.70710678118654768 0.70710678118654735 0.75 forward I I I I #
loop $-1 $-1 $268 $70 #
coedge $-1 $168 $168 $269 $270 reversed $106 $-1 #
face $-1 $-1 $271 $56 $-1 $272 forward single #
loop $-1 $273 $274 $108 #
cone-surface $-1 20.63293073614355 29.184150021111101 3.0797464052006465 0 -0.79863551827123203 -0.60181501223851219 0.75 0 0 1 I I -0.70710678118654768 0.70710678118654735 0.75 forward I I I I #
loop $-1 $-1 $275 $71 #
coedge $-1 $173 $173 $276 $277 reversed $109 $-1 #
face $-1 $278 $279 $57 $-1 $280 reversed single #
loop $-1 $-1 $281 $111 #
plane-surface $-1 48.502018540367104 -7.3990516946267064 60.714046984729009 0 0.79863551827123203 0.60181501223851219 1 0 0 forward_v I I I I #
coedge $-1 $282 $283 $284 $285 reversed $112 $-1 #
face $-1 $-1 $286 $58 $-1 $287 forward single #
loop $-1 $288 $289 $114 #
cone-surface $-1 44.036427317679255 29.184150021111101 3.0797464052006465 0 -0.79863551827123203 -0.60181501223851219 0.75 0 0 1 I I -0.70710678118654768 0.70710678118654735 0.75 forward I I I I #
loop $-1 $-1 $290 $73 #
coedge $-1 $182 $182 $291 $292 reversed $115 $-1 #
face $-1 $-1 $293 $59 $-1 $294 forward single #
loop $-1 $295 $296 $117 #
cone-surface $-1 52.967609763054952 29.184150021111101 3.0797464052006465 0 -0.79863551827123203 -0.60181501223851219 0.75 0 0 1 I I -0.70710678118654768 0.70710678118654735 0.75 forward I I I I #
loop $-1 $-1 $297 $74 #
coedge $-1 $187 $187 $298 $299 reversed $118 $-1 #
face $-1 $300 $301 $45 $-1 $302 reversed single #
loop $-1 $-1 $303 $120 #
plane-surface $-1 0 0 -10.065605437211451 0 0 1 1 0 0 forward_v I I I I #
coedge $-1 $304 $305 $192 $306 forward $121 $-1 #
coedge $-1 $307 $123 $191 $306 reversed $76 $-1 #
coedge $-1 $123 $307 $303 $308 reversed $76 $-1 #
coedge $-1 $309 $310 $123 $195 forward $311 $-1 #
edge $-1 $312 -10.065605437211451 $313 10.065605437211451 $123 $314 forward 7 unknown #
face $-1 $315 $316 $46 $-1 $317 reversed single #
loop $-1 $-1 $202 $124 #
plane-surface $-1 -71.773038329395433 0 -5.2733818318303749 0 0 1 1 0 0 forward_v I I I I #
coedge $-1 $318 $319 $201 $320 forward $125 $-1 #
coedge $-1 $321 $127 $322 $323 reversed $79 $-1 #
coedge $-1 $127 $321 $199 $320 reversed $79 $-1 #
coedge $-1 $324 $325 $127 $203 reversed $197 $-1 #
edge $-1 $326 -36.335759982495055 $327 36.335759982495055 $202 $328 forward 7 unknown #
face $-1 $329 $330 $47 $-1 $331 reversed single #
loop $-1 $-1 $332 $128 #
plane-surface $-1 71.773038329395433 0 -5.2733818318303749 0 0 1 1 0 0 forward_v I I I I #
coedge $-1 $333 $334 $209 $335 forward $129 $-1 #
coedge $-1 $336 $131 $337 $338 reversed $82 $-1 #
coedge $-1 $131 $336 $207 $335 reversed $82 $-1 #
coedge $-1 $339 $340 $131 $211 reversed $205 $-1 #
edge $-1 $341 -36.335759982495055 $342 36.335759982495055 $210 $343 forward 7 unknown #
face $-1 $344 $345 $48 $-1 $346 reversed single #
loop $-1 $-1 $347 $132 #
plane-surface $-1 -38.082305687428786 101.56654736068998 142.82551314015859 -1 0 0 0 0.79863551827123203 0.60181501223851219 forward_v I I I I #
coedge $-1 $348 $349 $350 $351 reversed $133 $-1 #
coedge $-1 $217 $135 $352 $353 reversed $85 $-1 #
coedge $-1 $135 $216 $348 $354 reversed $85 $-1 #
coedge $-1 $350 $355 $135 $219 forward $356 $-1 #
edge $-1 $357 14.447513697849935 $358 20.015988200585078 $218 $359 forward 7 unknown #
loop $-1 $-1 $225 $136 #
plane-surface $-1 -48.502018540367104 -7.3990516946267064 60.714046984729009 0 0.79863551827123203 0.60181501223851219 1 0 0 forward_v I I I I #
loop $-1 $-1 $360 $87 #
coedge $-1 $223 $223 $224 $361 reversed $137 $-1 #
coedge $-1 $224 $224 $223 $361 forward $139 $-1 #
coedge $-1 $225 $225 $140 $226 forward $220 $-1 #
edge $-1 $362 -1.0130006332703992e-015 $362 6.2831853071795996 $225 $363 forward 7 unknown #
loop $-1 $-1 $232 $141 #
plane-surface $-1 -48.502018540367104 -7.3990516946267064 60.714046984729009 0 0.79863551827123203 0.60181501223851219 1 0 0 forward_v I I I I #
loop $-1 $-1 $364 $90 #
coedge $-1 $230 $230 $231 $365 reversed $142 $-1 #
coedge $-1 $231 $231 $230 $365 forward $144 $-1 #
coedge $-1 $232 $232 $145 $233 forward $227 $-1 #
edge $-1 $366 -1.0130006332703992e-015 $366 6.2831853071795996 $232 $367 forward 7 unknown #
face $-1 $368 $369 $51 $-1 $370 forward single #
loop $-1 $-1 $371 $146 #
plane-surface $-1 -5.7476266605173816 101.56654736068998 142.82551314015859 -1 0 0 0 0.79863551827123203 0.60181501223851219 forward_v I I I I #
coedge $-1 $372 $373 $374 $375 reversed $147 $-1 #
coedge $-1 $239 $149 $376 $377 reversed $94 $-1 #
coedge $-1 $149 $238 $372 $378 reversed $94 $-1 #
coedge $-1 $374 $379 $149 $241 forward $369 $-1 #
edge $-1 $380 14.447513697849935 $381 20.015988200585078 $240 $382 forward 7 unknown #
loop $-1 $-1 $247 $150 #
plane-surface $-1 -16.167339513455701 -7.3990516946267064 60.714046984729009 0 0.79863551827123203 0.60181501223851219 1 0 0 forward_v I I I I #
loop $-1 $-1 $383 $96 #
coedge $-1 $245 $245 $246 $384 reversed $151 $-1 #
coedge $-1 $246 $246 $245 $384 forward $153 $-1 #
coedge $-1 $247 $247 $154 $248 forward $242 $-1 #
edge $-1 $385 -1.0130006332703992e-015 $385 6.2831853071795996 $247 $386 forward 7 unknown #
loop $-1 $-1 $254 $155 #
plane-surface $-1 -16.167339513455701 -7.3990516946267064 60.714046984729009 0 0.79863551827123203 0.60181501223851219 1 0 0 forward_v I I I I #
loop $-1 $-1 $387 $99 #
coedge $-1 $252 $252 $253 $388 reversed $156 $-1 #
coedge $-1 $253 $253 $252 $388 forward $158 $-1 #
coedge $-1 $254 $254 $159 $255 forward $249 $-1 #
edge $-1 $389 -1.0130006332703992e-015 $389 6.2831853071795996 $254 $390 forward 7 unknown #
face $-1 $391 $392 $54 $-1 $393 forward single #
loop $-1 $-1 $394 $160 #
plane-surface $-1 26.587052366394019 101.56654736068998 142.82551314015859 -1 0 0 0 0.79863551827123203 0.60181501223851219 forward_v I I I I #
coedge $-1 $395 $396 $397 $398 reversed $161 $-1 #
coedge $-1 $261 $163 $399 $400 reversed $103 $-1 #
coedge $-1 $163 $260 $395 $401 reversed $103 $-1 #
coedge $-1 $397 $402 $163 $263 forward $392 $-1 #
edge $-1 $403 14.447513697849935 $404 20.015988200585078 $262 $405 forward 7 unknown #
loop $-1 $-1 $269 $164 #
plane-surface $-1 16.167339513455701 -7.3990516946267064 60.714046984729009 0 0.79863551827123203 0.60181501223851219 1 0 0 forward_v I I I I #
loop $-1 $-1 $406 $105 #
coedge $-1 $267 $267 $268 $407 reversed $165 $-1 #
coedge $-1 $268 $268 $267 $407 forward $167 $-1 #
coedge $-1 $269 $269 $168 $270 forward $264 $-1 #
edge $-1 $408 -1.0130006332703992e-015 $408 6.2831853071795996 $269 $409 forward 7 unknown #
loop $-1 $-1 $276 $169 #
plane-surface $-1 16.167339513455701 -7.3990516946267064 60.714046984729009 0 0.79863551827123203 0.60181501223851219 1 0 0 forward_v I I I I #
loop $-1 $-1 $410 $108 #
coedge $-1 $274 $274 $275 $411 reversed $170 $-1 #
coedge $-1 $275 $275 $274 $411 forward $172 $-1 #
coedge $-1 $276 $276 $173 $277 forward $271 $-1 #
edge $-1 $412 -1.0130006332703992e-015 $412 6.2831853071795996 $276 $413 forward 7 unknown #
face $-1 $414 $415 $57 $-1 $416 forward single #
loop $-1 $-1 $417 $174 #
plane-surface $-1 58.921731393305421 101.56654736068998 142.82551314015859 -1 0 0 0 0.79863551827123203 0.60181501223851219 forward_v I I I I #
coedge $-1 $418 $419 $420 $421 reversed $175 $-1 #
coedge $-1 $283 $177 $422 $423 reversed $112 $-1 #
coedge $-1 $177 $282 $418 $424 reversed $112 $-1 #
coedge $-1 $420 $425 $177 $285 forward $415 $-1 #
edge $-1 $426 14.447513697849935 $427 20.015988200585078 $284 $428 forward 7 unknown #
loop $-1 $-1 $291 $178 #
plane-surface $-1 48.502018540367104 -7.3990516946267064 60.714046984729009 0 0.79863551827123203 0.60181501223851219 1 0 0 forward_v I I I I #
loop $-1 $-1 $429 $114 #
coedge $-1 $289 $289 $290 $430 reversed $179 $-1 #
coedge $-1 $290 $290 $289 $430 forward $181 $-1 #
coedge $-1 $291 $291 $182 $292 forward $286 $-1 #
edge $-1 $431 -1.0130006332703992e-015 $431 6.2831853071795996 $291 $432 forward 7 unknown #
loop $-1 $-1 $298 $183 #
plane-surface $-1 48.502018540367104 -7.3990516946267064 60.714046984729009 0 0.79863551827123203 0.60181501223851219 1 0 0 forward_v I I I I #
loop $-1 $-1 $433 $117 #
coedge $-1 $296 $296 $297 $434 reversed $184 $-1 #
coedge $-1 $297 $297 $296 $434 forward $186 $-1 #
coedge $-1 $298 $298 $187 $299 forward $293 $-1 #
edge $-1 $435 -1.0130006332703992e-015 $435 6.2831853071795996 $298 $436 forward 7 unknown #
face $-1 $437 $438 $45 $-1 $439 reversed single #
loop $-1 $-1 $440 $188 #
plane-surface $-1 0 -36.335759982495055 0 0 1 0 0 0 1 forward_v I I I I #
coedge $-1 $441 $442 $193 $308 forward $189 $-1 #
coedge $-1 $443 $191 $310 $444 forward $121 $-1 #
coedge $-1 $191 $443 $445 $446 forward $121 $-1 #
edge $-1 $447 -36.335759982495055 $312 36.335759982495055 $192 $448 forward 7 unknown #
coedge $-1 $193 $192 $449 $450 forward $76 $-1 #
edge $-1 $313 -36.335759982495055 $451 36.335759982495055 $193 $452 forward 7 unknown #
coedge $-1 $453 $194 $442 $454 reversed $311 $-1 #
coedge $-1 $194 $453 $304 $444 reversed $311 $-1 #
loop $-1 $-1 $194 $437 #
vertex $-1 $306 $455 #
vertex $-1 $308 $456 #
straight-curve $-1 68.219855342265078 36.335759982495055 0 0 0 -1 I I #
face $-1 $457 $458 $46 $-1 $459 reversed single #
loop $-1 $-1 $460 $196 #
plane-surface $-1 -71.773038329395433 0 -8.273381831830374 0 0 1 1 0 0 forward_v I I I I #
coedge $-1 $461 $199 $462 $463 reversed $125 $-1 #
coedge $-1 $199 $461 $324 $464 reversed $125 $-1 #
edge $-1 $326 5.2733818318303749 $465 8.273381831830374 $199 $466 forward 7 unknown #
coedge $-1 $201 $200 $460 $467 forward $79 $-1 #
coedge $-1 $468 $469 $200 $323 forward $470 $-1 #
edge $-1 $471 -8.273381831830374 $327 -5.2733818318303749 $322 $472 forward 7 unknown #
coedge $-1 $473 $202 $319 $464 forward $197 $-1 #
coedge $-1 $202 $473 $468 $474 forward $197 $-1 #
vertex $-1 $320 $475 #
vertex $-1 $474 $476 #
straight-curve $-1 -68.219855342265078 0 -5.2733818318303749 0 -1 0 I I #
face $-1 $477 $478 $47 $-1 $479 reversed single #
loop $-1 $-1 $480 $204 #
plane-surface $-1 71.773038329395433 0 -8.273381831830374 0 0 1 1 0 0 forward_v I I I I #
coedge $-1 $340 $339 $481 $482 forward $205 $-1 #
coedge $-1 $483 $207 $484 $485 reversed $129 $-1 #
coedge $-1 $207 $483 $339 $486 reversed $129 $-1 #
edge $-1 $341 5.2733818318303749 $487 8.273381831830374 $207 $488 forward 7 unknown #
coedge $-1 $209 $208 $489 $490 forward $82 $-1 #
coedge $-1 $491 $492 $208 $338 forward $493 $-1 #
edge $-1 $494 -8.273381831830374 $342 -5.2733818318303749 $337 $495 forward 7 unknown #
coedge $-1 $332 $210 $334 $486 forward $205 $-1 #
coedge $-1 $210 $332 $491 $496 forward $205 $-1 #
vertex $-1 $335 $497 #
vertex $-1 $496 $498 #
straight-curve $-1 68.219855342265078 0 -5.2733818318303749 0 1 0 I I #
face $-1 $-1 $356 $48 $-1 $499 forward single #
loop $-1 $-1 $500 $212 #
plane-surface $-1 0 36.335759982495055 0 0 -1 0 0 0 -1 forward_v I I I I #
coedge $-1 $501 $502 $503 $504 reversed $213 $-1 #
coedge $-1 $505 $215 $217 $354 forward $133 $-1 #
coedge $-1 $215 $505 $501 $506 forward $133 $-1 #
coedge $-1 $503 $218 $215 $351 forward $356 $-1 #
edge $-1 $358 -34.67072212312187 $507 -13.831296417245234 $350 $508 forward 7 unknown #
coedge $-1 $509 $510 $216 $353 forward $345 $-1 #
edge $-1 $511 -68.7367665961483 $357 -61.347151132867843 $352 $512 forward 7 unknown #
edge $-1 $358 63.418719038634549 $511 72.67151996499004 $217 $513 forward 7 unknown #
coedge $-1 $218 $503 $509 $514 forward $356 $-1 #
loop $-1 $-1 $503 $344 #
vertex $-1 $353 $515 #
vertex $-1 $219 $516 #
straight-curve $-1 -58.921731393305421 50.78327368034499 10.065605437211445 0 -1 0 I I #
coedge $-1 $360 $360 $-1 $517 reversed $222 $-1 #
edge $-1 $518 0 $518 6.2831853071796004 $223 $519 forward 7 unknown #
vertex $-1 $226 $520 #
ellipse-curve $-1 -52.967609763054952 33.551522731127491 6.3707977055712117 0 0.79863551827123203 0.60181501223851219 1.5 0 0 1 I I #
coedge $-1 $364 $364 $-1 $521 reversed $229 $-1 #
edge $-1 $522 0 $522 6.2831853071796004 $230 $523 forward 7 unknown #
vertex $-1 $233 $524 #
ellipse-curve $-1 -44.036427317679248 33.551522731127491 6.3707977055712117 0 0.79863551827123203 0.60181501223851219 1.5 0 0 1 I I #
face $-1 $-1 $525 $51 $-1 $526 reversed single #
loop $-1 $-1 $240 $234 #
plane-surface $-1 0 0 10.065605437211451 0 0 1 1 0 0 forward_v I I I I #
coedge $-1 $527 $528 $529 $530 reversed $235 $-1 #
coedge $-1 $531 $237 $239 $378 forward $147 $-1 #
coedge $-1 $237 $531 $527 $532 forward $147 $-1 #
coedge $-1 $529 $240 $237 $375 forward $369 $-1 #
edge $-1 $381 -18.503382609666168 $533 2.336043096210469 $374 $534 forward 7 unknown #
coedge $-1 $535 $536 $238 $377 forward $525 $-1 #
edge $-1 $537 -68.7367665961483 $380 -61.347151132867843 $376 $538 forward 7 unknown #
edge $-1 $381 63.418719038634549 $537 72.67151996499004 $239 $539 forward 7 unknown #
coedge $-1 $240 $529 $535 $540 forward $369 $-1 #
vertex $-1 $241 $541 #
vertex $-1 $241 $542 #
straight-curve $-1 -26.587052366394019 50.78327368034499 10.065605437211445 0 -1 0 I I #
coedge $-1 $383 $383 $-1 $543 reversed $244 $-1 #
edge $-1 $544 0 $544 6.2831853071796004 $245 $545 forward 7 unknown #
vertex $-1 $248 $546 #
ellipse-curve $-1 -20.63293073614355 33.551522731127491 6.3707977055712117 0 0.79863551827123203 0.60181501223851219 1.5 0 0 1 I I #
coedge $-1 $387 $387 $-1 $547 reversed $251 $-1 #
edge $-1 $548 0 $548 6.2831853071796004 $252 $549 forward 7 unknown #
vertex $-1 $255 $550 #
ellipse-curve $-1 -11.701748290767846 33.551522731127491 6.3707977055712117 0 0.79863551827123203 0.60181501223851219 1.5 0 0 1 I I #
face $-1 $-1 $551 $54 $-1 $552 reversed single #
loop $-1 $-1 $262 $256 #
plane-surface $-1 0 0 10.065605437211451 0 0 1 1 0 0 forward_v I I I I #
coedge $-1 $553 $554 $555 $556 reversed $257 $-1 #
coedge $-1 $557 $259 $261 $401 forward $161 $-1 #
coedge $-1 $259 $557 $553 $558 forward $161 $-1 #
coedge $-1 $555 $262 $259 $398 forward $392 $-1 #
edge $-1 $404 -2.336043096210469 $559 18.503382609666168 $397 $560 forward 7 unknown #
coedge $-1 $561 $562 $260 $400 forward $551 $-1 #
edge $-1 $563 -68.7367665961483 $403 -61.347151132867843 $399 $564 forward 7 unknown #
edge $-1 $404 63.418719038634549 $563 72.67151996499004 $261 $565 forward 7 unknown #
coedge $-1 $262 $555 $561 $566 forward $392 $-1 #
vertex $-1 $263 $567 #
vertex $-1 $263 $568 #
straight-curve $-1 5.7476266605173816 50.78327368034499 10.065605437211445 0 -1 0 I I #
coedge $-1 $406 $406 $-1 $569 reversed $266 $-1 #
edge $-1 $570 0 $570 6.2831853071796004 $267 $571 forward 7 unknown #
vertex $-1 $270 $572 #
ellipse-curve $-1 11.701748290767853 33.551522731127491 6.3707977055712117 0 0.79863551827123203 0.60181501223851219 1.5 0 0 1 I I #
coedge $-1 $410 $410 $-1 $573 reversed $273 $-1 #
edge $-1 $574 0 $574 6.2831853071796004 $274 $575 forward 7 unknown #
vertex $-1 $277 $576 #
ellipse-curve $-1 20.63293073614355 33.551522731127491 6.3707977055712117 0 0.79863551827123203 0.60181501223851219 1.5 0 0 1 I I #
face $-1 $-1 $577 $57 $-1 $578 reversed single #
loop $-1 $-1 $284 $278 #
plane-surface $-1 0 0 10.065605437211451 0 0 1 1 0 0 forward_v I I I I #
coedge $-1 $579 $580 $581 $582 reversed $279 $-1 #
coedge $-1 $583 $281 $283 $424 forward $175 $-1 #
coedge $-1 $281 $583 $579 $584 forward $175 $-1 #
coedge $-1 $581 $284 $281 $421 forward $415 $-1 #
edge $-1 $427 13.831296417245234 $585 34.67072212312187 $420 $586 forward 7 unknown #
coedge $-1 $587 $588 $282 $423 forward $577 $-1 #
edge $-1 $589 -68.7367665961483 $426 -61.347151132867843 $422 $590 forward 7 unknown #
edge $-1 $427 63.418719038634549 $589 72.67151996499004 $283 $591 forward 7 unknown #
coedge $-1 $284 $581 $587 $592 forward $415 $-1 #
vertex $-1 $285 $593 #
vertex $-1 $285 $594 #
straight-curve $-1 38.082305687428786 50.78327368034499 10.065605437211445 0 -1 0 I I #
coedge $-1 $429 $429 $-1 $595 reversed $288 $-1 #
edge $-1 $596 0 $596 6.2831853071796004 $289 $597 forward 7 unknown #
vertex $-1 $292 $598 #
ellipse-curve $-1 44.036427317679255 33.551522731127491 6.3707977055712117 0 0.79863551827123203 0.60181501223851219 1.5 0 0 1 I I #
coedge $-1 $433 $433 $-1 $599 reversed $295 $-1 #
edge $-1 $600 0 $600 6.2831853071796004 $296 $601 forward 7 unknown #
vertex $-1 $299 $602 #
ellipse-curve $-1 52.967609763054952 33.551522731127491 6.3707977055712117 0 0.79863551827123203 0.60181501223851219 1.5 0 0 1 I I #
face $-1 $-1 $311 $45 $-1 $603 reversed single #
loop $-1 $-1 $604 $300 #
plane-surface $-1 -68.219855342265078 0 0 1 0 0 0 0 -1 forward_v I I I I #
coedge $-1 $605 $445 $604 $606 forward $301 $-1 #
coedge $-1 $607 $303 $605 $608 forward $189 $-1 #
coedge $-1 $303 $607 $309 $454 forward $189 $-1 #
coedge $-1 $305 $304 $609 $610 forward $121 $-1 #
edge $-1 $312 -68.219855342265078 $611 68.219855342265078 $310 $612 forward 7 unknown #
coedge $-1 $440 $449 $305 $446 reversed $301 $-1 #
edge $-1 $613 -68.219855342265078 $447 68.219855342265078 $445 $614 forward 7 unknown #
vertex $-1 $306 $615 #
straight-curve $-1 68.219855342265078 0 10.065605437211451 0 1 0 I I #
coedge $-1 $445 $605 $307 $450 reversed $301 $-1 #
edge $-1 $447 -10.065605437211451 $451 10.065605437211451 $307 $616 forward 7 unknown #
vertex $-1 $450 $617 #
straight-curve $-1 68.219855342265078 0 -10.065605437211451 0 -1 0 I I #
coedge $-1 $310 $309 $618 $619 reversed $311 $-1 #
edge $-1 $620 -68.219855342265078 $313 68.219855342265078 $309 $621 forward 7 unknown #
point $-1 68.219855342265078 36.335759982495055 10.065605437211451 #
point $-1 68.219855342265078 36.335759982495055 -10.065605437211451 #
face $-1 $-1 $470 $46 $-1 $622 reversed single #
loop $-1 $-1 $623 $315 #
plane-surface $-1 -75.326221316525789 0 -6.7733818318303749 1 0 0 0 0 -1 forward_v I I I I #
coedge $-1 $624 $462 $321 $467 reversed $316 $-1 #
coedge $-1 $319 $318 $623 $625 reversed $125 $-1 #
coedge $-1 $460 $626 $318 $463 forward $316 $-1 #
edge $-1 $627 -3.5531829871303557 $465 3.5531829871303557 $318 $628 forward 7 unknown #
edge $-1 $326 -3.5531829871303557 $629 3.5531829871303557 $319 $630 forward 7 unknown #
vertex $-1 $320 $631 #
straight-curve $-1 -68.219855342265078 36.335759982495055 0 0 0 -1 I I #
edge $-1 $471 -36.335759982495055 $465 36.335759982495055 $460 $632 forward 7 unknown #
coedge $-1 $633 $322 $325 $474 reversed $470 $-1 #
coedge $-1 $322 $633 $624 $634 reversed $470 $-1 #
loop $-1 $-1 $322 $457 #
vertex $-1 $323 $635 #
straight-curve $-1 -68.219855342265078 -36.335759982495055 0 0 0 1 I I #
coedge $-1 $325 $324 $636 $637 forward $197 $-1 #
edge $-1 $638 -3.5531829871303557 $327 3.5531829871303557 $468 $639 forward 7 unknown #
point $-1 -68.219855342265078 36.335759982495055 -5.2733818318303749 #
point $-1 -68.219855342265078 -36.335759982495055 -5.2733818318303749 #
face $-1 $-1 $493 $47 $-1 $640 reversed single #
loop $-1 $-1 $641 $329 #
plane-surface $-1 75.326221316525789 0 -6.7733818318303749 -1 0 0 0 0 1 forward_v I I I I #
coedge $-1 $484 $642 $643 $644 forward $330 $-1 #
coedge $-1 $641 $645 $332 $482 reversed $478 $-1 #
edge $-1 $646 -36.335759982495055 $647 36.335759982495055 $481 $648 forward 7 unknown #
coedge $-1 $334 $333 $641 $649 reversed $129 $-1 #
coedge $-1 $489 $480 $333 $485 forward $330 $-1 #
edge $-1 $650 -3.5531829871303557 $487 3.5531829871303557 $333 $651 forward 7 unknown #
edge $-1 $341 -3.5531829871303557 $646 3.5531829871303557 $334 $652 forward 7 unknown #
vertex $-1 $335 $653 #
straight-curve $-1 68.219855342265078 -36.335759982495055 0 0 0 -1 I I #
coedge $-1 $642 $484 $336 $490 reversed $330 $-1 #
edge $-1 $494 -36.335759982495055 $487 36.335759982495055 $489 $654 forward 7 unknown #
coedge $-1 $655 $337 $340 $496 reversed $493 $-1 #
coedge $-1 $337 $655 $642 $656 reversed $493 $-1 #
loop $-1 $-1 $337 $477 #
vertex $-1 $338 $657 #
straight-curve $-1 68.219855342265078 36.335759982495055 0 0 0 1 I I #
edge $-1 $647 -3.5531829871303557 $342 3.5531829871303557 $491 $658 forward 7 unknown #
point $-1 68.219855342265078 -36.335759982495055 -5.2733818318303749 #
point $-1 68.219855342265078 36.335759982495055 -5.2733818318303749 #
plane-surface $-1 0 0 10.065605437211451 0 0 1 1 0 0 forward_v I I I I #
coedge $-1 $510 $509 $502 $659 forward $345 $-1 #
coedge $-1 $502 $347 $349 $506 reversed $213 $-1 #
coedge $-1 $347 $501 $500 $659 reversed $213 $-1 #
coedge $-1 $355 $350 $347 $504 forward $356 $-1 #
edge $-1 $507 -20.015988200585078 $660 -14.447513697849935 $503 $661 forward 7 unknown #
coedge $-1 $349 $348 $510 $662 reversed $133 $-1 #
edge $-1 $663 -72.67151996499004 $507 -63.418719038634549 $501 $664 forward 7 unknown #
vertex $-1 $351 $665 #
straight-curve $-1 -24.251009270183552 30.767285479759909 10.06560543721146 1 0 0 I I #
coedge $-1 $500 $352 $355 $514 reversed $345 $-1 #
coedge $-1 $352 $500 $505 $662 forward $345 $-1 #
vertex $-1 $353 $666 #
straight-curve $-1 -58.921731393305421 36.335759982495055 71.412756570079296 0 0 1 I I #
straight-curve $-1 -58.921731393305421 -7.3990516946267064 60.714046984729009 0 0.60181501223851219 -0.79863551827123203 I I #
edge $-1 $660 38.082305687428786 $357 58.921731393305421 $509 $667 forward 7 unknown #
point $-1 -58.921731393305421 36.335759982495055 10.065605437211451 #
point $-1 -58.921731393305421 30.767285479759913 10.065605437211453 #
edge $-1 $668 1 $668 0 $360 $-1 forward 7 unknown #
vertex $-1 $361 $669 #
ellipse-curve $-1 -52.967609763054952 29.783126659814524 3.5311076643795305 0 0.79863551827123203 0.60181501223851219 1.5 0 0 1 I I #
point $-1 -51.467609763054952 33.551522731127456 6.3707977055711869 #
edge $-1 $670 1 $670 0 $364 $-1 forward 7 unknown #
vertex $-1 $365 $671 #
ellipse-curve $-1 -44.036427317679248 29.783126659814524 3.5311076643795305 0 0.79863551827123203 0.60181501223851219 1.5 0 0 1 I I #
point $-1 -42.536427317679248 33.551522731127456 6.3707977055711869 #
loop $-1 $-1 $376 $368 #
plane-surface $-1 0 36.335759982495055 0 0 -1 0 0 0 -1 forward_v I I I I #
coedge $-1 $528 $371 $373 $532 reversed $235 $-1 #
coedge $-1 $371 $527 $672 $673 reversed $235 $-1 #
coedge $-1 $379 $374 $371 $530 forward $369 $-1 #
edge $-1 $533 -20.015988200585078 $674 -14.447513697849935 $529 $675 forward 7 unknown #
coedge $-1 $373 $372 $536 $676 reversed $147 $-1 #
edge $-1 $677 -72.67151996499004 $533 -63.418719038634549 $527 $678 forward 7 unknown #
vertex $-1 $375 $679 #
straight-curve $-1 -8.0836697567278506 30.767285479759909 10.06560543721146 1 0 0 I I #
coedge $-1 $672 $376 $379 $540 reversed $525 $-1 #
coedge $-1 $376 $672 $531 $676 forward $525 $-1 #
vertex $-1 $377 $680 #
straight-curve $-1 -26.587052366394019 36.335759982495055 71.412756570079296 0 0 1 I I #
straight-curve $-1 -26.587052366394019 -7.3990516946267064 60.714046984729009 0 0.60181501223851219 -0.79863551827123203 I I #
edge $-1 $674 5.7476266605173816 $380 26.587052366394019 $535 $681 forward 7 unknown #
point $-1 -26.587052366394019 36.335759982495055 10.065605437211451 #
point $-1 -26.587052366394019 30.767285479759913 10.065605437211453 #
edge $-1 $682 1 $682 0 $383 $-1 forward 7 unknown #
vertex $-1 $384 $683 #
ellipse-curve $-1 -20.63293073614355 29.783126659814524 3.5311076643795305 0 0.79863551827123203 0.60181501223851219 1.5 0 0 1 I I #
point $-1 -19.13293073614355 33.551522731127456 6.3707977055711869 #
edge $-1 $684 1 $684 0 $387 $-1 forward 7 unknown #
vertex $-1 $388 $685 #
ellipse-curve $-1 -11.701748290767846 29.783126659814524 3.5311076643795305 0 0.79863551827123203 0.60181501223851219 1.5 0 0 1 I I #
point $-1 -10.201748290767846 33.551522731127456 6.3707977055711869 #
loop $-1 $-1 $399 $391 #
plane-surface $-1 0 36.335759982495055 0 0 -1 0 0 0 -1 forward_v I I I I #
coedge $-1 $554 $394 $396 $558 reversed $257 $-1 #
coedge $-1 $394 $553 $686 $687 reversed $257 $-1 #
coedge $-1 $402 $397 $394 $556 forward $392 $-1 #
edge $-1 $559 -20.015988200585078 $688 -14.447513697849935 $555 $689 forward 7 unknown #
coedge $-1 $396 $395 $562 $690 reversed $161 $-1 #
edge $-1 $691 -72.67151996499004 $559 -63.418719038634549 $553 $692 forward 7 unknown #
vertex $-1 $398 $693 #
straight-curve $-1 8.0836697567278506 30.767285479759909 10.06560543721146 1 0 0 I I #
coedge $-1 $686 $399 $402 $566 reversed $551 $-1 #
coedge $-1 $399 $686 $557 $690 forward $551 $-1 #
vertex $-1 $400 $694 #
straight-curve $-1 5.7476266605173816 36.335759982495055 71.412756570079296 0 0 1 I I #
straight-curve $-1 5.7476266605173816 -7.3990516946267064 60.714046984729009 0 0.60181501223851219 -0.79863551827123203 I I #
edge $-1 $688 -26.587052366394019 $403 -5.7476266605173816 $561 $695 forward 7 unknown #
point $-1 5.7476266605173816 36.335759982495055 10.065605437211451 #
point $-1 5.7476266605173816 30.767285479759913 10.065605437211453 #
edge $-1 $696 1 $696 0 $406 $-1 forward 7 unknown #
vertex $-1 $407 $697 #
ellipse-curve $-1 11.701748290767853 29.783126659814524 3.5311076643795305 0 0.79863551827123203 0.60181501223851219 1.5 0 0 1 I I #
point $-1 13.201748290767853 33.551522731127456 6.3707977055711869 #
edge $-1 $698 1 $698 0 $410 $-1 forward 7 unknown #
vertex $-1 $411 $699 #
ellipse-curve $-1 20.63293073614355 29.783126659814524 3.5311076643795305 0 0.79863551827123203 0.60181501223851219 1.5 0 0 1 I I #
point $-1 22.13293073614355 33.551522731127456 6.3707977055711869 #
loop $-1 $-1 $422 $414 #
plane-surface $-1 0 36.335759982495055 0 0 -1 0 0 0 -1 forward_v I I I I #
coedge $-1 $580 $417 $419 $584 reversed $279 $-1 #
coedge $-1 $417 $579 $700 $701 reversed $279 $-1 #
coedge $-1 $425 $420 $417 $582 forward $415 $-1 #
edge $-1 $585 -20.015988200585078 $702 -14.447513697849935 $581 $703 forward 7 unknown #
coedge $-1 $419 $418 $588 $704 reversed $175 $-1 #
edge $-1 $705 -72.67151996499004 $585 -63.418719038634549 $579 $706 forward 7 unknown #
vertex $-1 $421 $707 #
straight-curve $-1 24.251009270183552 30.767285479759909 10.06560543721146 1 0 0 I I #
coedge $-1 $700 $422 $425 $592 reversed $577 $-1 #
coedge $-1 $422 $700 $583 $704 forward $577 $-1 #
vertex $-1 $423 $708 #
straight-curve $-1 38.082305687428786 36.335759982495055 71.412756570079296 0 0 1 I I #
straight-curve $-1 38.082305687428786 -7.3990516946267064 60.714046984729009 0 0.60181501223851219 -0.79863551827123203 I I #
edge $-1 $702 -58.921731393305421 $426 -38.082305687428786 $587 $709 forward 7 unknown #
point $-1 38.082305687428786 36.335759982495055 10.065605437211451 #
point $-1 38.082305687428786 30.767285479759913 10.065605437211453 #
edge $-1 $710 1 $710 0 $429 $-1 forward 7 unknown #
vertex $-1 $430 $711 #
ellipse-curve $-1 44.036427317679255 29.783126659814524 3.5311076643795305 0 0.79863551827123203 0.60181501223851219 1.5 0 0 1 I I #
point $-1 45.536427317679255 33.551522731127456 6.3707977055711869 #
edge $-1 $712 1 $712 0 $433 $-1 forward 7 unknown #
vertex $-1 $434 $713 #
ellipse-curve $-1 52.967609763054952 29.783126659814524 3.5311076643795305 0 0.79863551827123203 0.60181501223851219 1.5 0 0 1 I I #
point $-1 54.467609763054952 33.551522731127456 6.3707977055711869 #
plane-surface $-1 0 36.335759982495055 0 0 -1 0 0 0 -1 forward_v I I I I #
coedge $-1 $609 $714 $440 $606 reversed $438 $-1 #
coedge $-1 $449 $440 $441 $608 reversed $301 $-1 #
edge $-1 $613 -10.065605437211451 $715 10.065605437211451 $604 $716 forward 7 unknown #
coedge $-1 $442 $441 $714 $717 forward $189 $-1 #
edge $-1 $451 -68.219855342265078 $715 68.219855342265078 $605 $718 forward 7 unknown #
coedge $-1 $618 $604 $443 $610 reversed $438 $-1 #
edge $-1 $611 -36.335759982495055 $613 36.335759982495055 $609 $719 forward 7 unknown #
vertex $-1 $444 $720 #
straight-curve $-1 0 36.335759982495055 10.065605437211451 -1 0 0 I I #
vertex $-1 $610 $721 #
straight-curve $-1 0 -36.335759982495055 10.065605437211451 1 0 0 I I #
point $-1 68.219855342265078 -36.335759982495055 10.065605437211451 #
straight-curve $-1 68.219855342265078 -36.335759982495055 0 0 0 -1 I I #
point $-1 68.219855342265078 -36.335759982495055 -10.065605437211451 #
coedge $-1 $714 $609 $453 $619 forward $438 $-1 #
edge $-1 $611 -10.065605437211451 $620 10.065605437211451 $453 $722 forward 7 unknown #
vertex $-1 $454 $723 #
straight-curve $-1 0 36.335759982495055 -10.065605437211451 1 0 0 I I #
plane-surface $-1 0 -36.335759982495055 0 0 1 0 0 0 1 forward_v I I I I #
coedge $-1 $724 $636 $461 $625 forward $458 $-1 #
coedge $-1 $626 $460 $469 $634 forward $316 $-1 #
edge $-1 $629 -1.5 $627 1.4999999999999991 $461 $725 forward 7 unknown #
coedge $-1 $462 $624 $724 $726 forward $316 $-1 #
vertex $-1 $463 $727 #
straight-curve $-1 -71.773038329395433 36.335759982495055 -8.273381831830374 1 0 0 I I #
vertex $-1 $464 $728 #
straight-curve $-1 -71.773038329395433 36.335759982495055 -5.2733818318303749 -1 0 0 I I #
point $-1 -68.219855342265078 36.335759982495055 -8.273381831830374 #
straight-curve $-1 -68.219855342265078 0 -8.273381831830374 0 1 0 I I #
coedge $-1 $469 $468 $729 $730 forward $470 $-1 #
edge $-1 $471 -3.5531829871303557 $731 3.5531829871303557 $469 $732 forward 7 unknown #
point $-1 -68.219855342265078 -36.335759982495055 -8.273381831830374 #
coedge $-1 $623 $729 $473 $637 reversed $458 $-1 #
edge $-1 $629 -36.335759982495055 $638 36.335759982495055 $636 $733 forward 7 unknown #
vertex $-1 $637 $734 #
straight-curve $-1 -71.773038329395433 -36.335759982495055 -5.2733818318303749 1 0 0 I I #
plane-surface $-1 0 36.335759982495055 0 0 -1 0 0 0 -1 forward_v I I I I #
coedge $-1 $643 $481 $483 $649 forward $478 $-1 #
coedge $-1 $480 $489 $492 $656 forward $330 $-1 #
coedge $-1 $645 $641 $480 $644 reversed $478 $-1 #
edge $-1 $735 -36.335759982495055 $650 36.335759982495055 $643 $736 forward 7 unknown #
coedge $-1 $481 $643 $655 $737 reversed $478 $-1 #
vertex $-1 $482 $738 #
vertex $-1 $482 $739 #
straight-curve $-1 75.326221316525789 0 -5.2733818318303749 0 1 0 I I #
edge $-1 $646 -1.5 $650 1.4999999999999991 $641 $740 forward 7 unknown #
vertex $-1 $649 $741 #
straight-curve $-1 71.773038329395433 -36.335759982495055 -8.273381831830374 -1 0 0 I I #
straight-curve $-1 71.773038329395433 -36.335759982495055 -5.2733818318303749 1 0 0 I I #
point $-1 68.219855342265078 -36.335759982495055 -8.273381831830374 #
straight-curve $-1 68.219855342265078 0 -8.273381831830374 0 -1 0 I I #
coedge $-1 $492 $491 $645 $737 forward $493 $-1 #
edge $-1 $494 -3.5531829871303557 $735 3.5531829871303557 $492 $742 forward 7 unknown #
point $-1 68.219855342265078 36.335759982495055 -8.273381831830374 #
straight-curve $-1 71.773038329395433 36.335759982495055 -5.2733818318303749 -1 0 0 I I #
edge $-1 $660 61.347151132867843 $663 68.7367665961483 $500 $743 forward 7 unknown #
vertex $-1 $514 $744 #
straight-curve $-1 -38.082305687428786 50.78327368034499 10.065605437211445 0 1 0 I I #
edge $-1 $663 13.831296417245234 $511 34.67072212312187 $510 $745 forward 7 unknown #
vertex $-1 $662 $746 #
straight-curve $-1 -38.082305687428786 -7.3990516946267064 60.714046984729009 0 -0.60181501223851219 0.79863551827123203 I I #
point $-1 -38.082305687428786 30.767285479759913 10.065605437211453 #
point $-1 -58.921731393305421 36.335759982495055 2.6759899739310029 #
straight-curve $-1 0 36.335759982495055 10.065605437211451 -1 0 0 I I #
vertex $-1 $517 $747 #
point $-1 -51.467609763054952 29.783126659814524 3.5311076643795305 #
vertex $-1 $521 $748 #
point $-1 -42.536427317679248 29.783126659814524 3.5311076643795305 #
coedge $-1 $536 $535 $528 $673 forward $525 $-1 #
edge $-1 $674 61.347151132867843 $677 68.7367665961483 $672 $749 forward 7 unknown #
vertex $-1 $540 $750 #
straight-curve $-1 -5.7476266605173816 50.78327368034499 10.065605437211445 0 1 0 I I #
edge $-1 $677 -2.336043096210469 $537 18.503382609666168 $536 $751 forward 7 unknown #
vertex $-1 $676 $752 #
straight-curve $-1 -5.7476266605173816 -7.3990516946267064 60.714046984729009 0 -0.60181501223851219 0.79863551827123203 I I #
point $-1 -5.7476266605173816 30.767285479759913 10.065605437211453 #
point $-1 -26.587052366394019 36.335759982495055 2.6759899739310029 #
straight-curve $-1 0 36.335759982495055 10.065605437211451 -1 0 0 I I #
vertex $-1 $543 $753 #
point $-1 -19.13293073614355 29.783126659814524 3.5311076643795305 #
vertex $-1 $547 $754 #
point $-1 -10.201748290767846 29.783126659814524 3.5311076643795305 #
coedge $-1 $562 $561 $554 $687 forward $551 $-1 #
edge $-1 $688 61.347151132867843 $691 68.7367665961483 $686 $755 forward 7 unknown #
vertex $-1 $566 $756 #
straight-curve $-1 26.587052366394019 50.78327368034499 10.065605437211445 0 1 0 I I #
edge $-1 $691 -18.503382609666168 $563 2.336043096210469 $562 $757 forward 7 unknown #
vertex $-1 $690 $758 #
straight-curve $-1 26.587052366394019 -7.3990516946267064 60.714046984729009 0 -0.60181501223851219 0.79863551827123203 I I #
point $-1 26.587052366394019 30.767285479759913 10.065605437211453 #
point $-1 5.7476266605173816 36.335759982495055 2.6759899739310029 #
straight-curve $-1 0 36.335759982495055 10.065605437211451 -1 0 0 I I #
vertex $-1 $569 $759 #
point $-1 13.201748290767853 29.783126659814524 3.5311076643795305 #
vertex $-1 $573 $760 #
point $-1 22.13293073614355 29.783126659814524 3.5311076643795305 #
coedge $-1 $588 $587 $580 $701 forward $577 $-1 #
edge $-1 $702 61.347151132867843 $705 68.7367665961483 $700 $761 forward 7 unknown #
vertex $-1 $592 $762 #
straight-curve $-1 58.921731393305421 50.78327368034499 10.065605437211445 0 1 0 I I #
edge $-1 $705 -34.67072212312187 $589 -13.831296417245234 $588 $763 forward 7 unknown #
vertex $-1 $704 $764 #
straight-curve $-1 58.921731393305421 -7.3990516946267064 60.714046984729009 0 -0.60181501223851219 0.79863551827123203 I I #
point $-1 58.921731393305421 30.767285479759913 10.065605437211453 #
point $-1 38.082305687428786 36.335759982495055 2.6759899739310029 #
straight-curve $-1 0 36.335759982495055 10.065605437211451 -1 0 0 I I #
vertex $-1 $595 $765 #
point $-1 45.536427317679255 29.783126659814524 3.5311076643795305 #
vertex $-1 $599 $766 #
point $-1 54.467609763054952 29.783126659814524 3.5311076643795305 #
coedge $-1 $604 $618 $607 $717 reversed $438 $-1 #
vertex $-1 $717 $767 #
straight-curve $-1 -68.219855342265078 -36.335759982495055 0 0 0 -1 I I #
edge $-1 $715 -36.335759982495055 $620 36.335759982495055 $714 $768 forward 7 unknown #
straight-curve $-1 0 -36.335759982495055 -10.065605437211451 -1 0 0 I I #
straight-curve $-1 -68.219855342265078 0 10.065605437211451 0 -1 0 I I #
point $-1 -68.219855342265078 36.335759982495055 10.065605437211451 #
point $-1 -68.219855342265078 -36.335759982495055 10.065605437211451 #
straight-curve $-1 -68.219855342265078 36.335759982495055 0 0 0 -1 I I #
point $-1 -68.219855342265078 36.335759982495055 -10.065605437211451 #
coedge $-1 $729 $623 $626 $726 reversed $458 $-1 #
straight-curve $-1 -75.326221316525789 36.335759982495055 -6.7733818318303749 0 0 -1 I I #
edge $-1 $731 -36.335759982495055 $627 36.335759982495055 $724 $769 forward 7 unknown #
point $-1 -75.326221316525789 36.335759982495055 -8.273381831830374 #
point $-1 -75.326221316525789 36.335759982495055 -5.2733818318303749 #
coedge $-1 $636 $724 $633 $730 reversed $458 $-1 #
edge $-1 $638 -1.5 $731 1.4999999999999991 $729 $770 forward 7 unknown #
vertex $-1 $726 $771 #
straight-curve $-1 -71.773038329395433 -36.335759982495055 -8.273381831830374 -1 0 0 I I #
straight-curve $-1 -75.326221316525789 0 -5.2733818318303749 0 -1 0 I I #
point $-1 -75.326221316525789 -36.335759982495055 -5.2733818318303749 #
vertex $-1 $644 $772 #
straight-curve $-1 75.326221316525789 0 -8.273381831830374 0 -1 0 I I #
edge $-1 $647 -1.5 $735 1.4999999999999991 $645 $773 forward 7 unknown #
point $-1 75.326221316525789 -36.335759982495055 -5.2733818318303749 #
point $-1 75.326221316525789 36.335759982495055 -5.2733818318303749 #
straight-curve $-1 75.326221316525789 -36.335759982495055 -6.7733818318303749 0 0 -1 I I #
point $-1 75.326221316525789 -36.335759982495055 -8.273381831830374 #
straight-curve $-1 71.773038329395433 36.335759982495055 -8.273381831830374 1 0 0 I I #
straight-curve $-1 -38.082305687428786 36.335759982495055 71.412756570079296 0 0 -1 I I #
point $-1 -38.082305687428786 36.335759982495055 10.065605437211451 #
straight-curve $-1 -24.251009270183552 36.335759982495055 2.6759899739310065 -1 0 0 I I #
point $-1 -38.082305687428786 36.335759982495055 2.6759899739310029 #
point $-1 -52.967609763054952 28.585173382407678 2.6283851460217624 #
point $-1 -44.036427317679248 28.585173382407678 2.6283851460217624 #
straight-curve $-1 -5.7476266605173816 36.335759982495055 71.412756570079296 0 0 -1 I I #
point $-1 -5.7476266605173816 36.335759982495055 10.065605437211451 #
straight-curve $-1 -8.0836697567278506 36.335759982495055 2.6759899739310065 -1 0 0 I I #
point $-1 -5.7476266605173816 36.335759982495055 2.6759899739310029 #
point $-1 -20.63293073614355 28.585173382407678 2.6283851460217624 #
point $-1 -11.701748290767846 28.585173382407678 2.6283851460217624 #
straight-curve $-1 26.587052366394019 36.335759982495055 71.412756570079296 0 0 -1 I I #
point $-1 26.587052366394019 36.335759982495055 10.065605437211451 #
straight-curve $-1 8.0836697567278506 36.335759982495055 2.6759899739310065 -1 0 0 I I #
point $-1 26.587052366394019 36.335759982495055 2.6759899739310029 #
point $-1 11.701748290767853 28.585173382407678 2.6283851460217624 #
point $-1 20.63293073614355 28.585173382407678 2.6283851460217624 #
straight-curve $-1 58.921731393305421 36.335759982495055 71.412756570079296 0 0 -1 I I #
point $-1 58.921731393305421 36.335759982495055 10.065605437211451 #
straight-curve $-1 24.251009270183552 36.335759982495055 2.6759899739310065 -1 0 0 I I #
point $-1 58.921731393305421 36.335759982495055 2.6759899739310029 #
point $-1 44.036427317679255 28.585173382407678 2.6283851460217624 #
point $-1 52.967609763054952 28.585173382407678 2.6283851460217624 #
point $-1 -68.219855342265078 -36.335759982495055 -10.065605437211451 #
straight-curve $-1 -68.219855342265078 0 -10.065605437211451 0 1 0 I I #
straight-curve $-1 -75.326221316525789 0 -8.273381831830374 0 1 0 I I #
straight-curve $-1 -75.326221316525789 -36.335759982495055 -6.7733818318303749 0 0 -1 I I #
point $-1 -75.326221316525789 -36.335759982495055 -8.273381831830374 #
point $-1 75.326221316525789 36.335759982495055 -8.273381831830374 #
straight-curve $-1 75.326221316525789 36.335759982495055 -6.7733818318303749 0 0 -1 I I #
End-of-ACIS-data 