500 0 6 0           
7 Unknown 11 ACIS 5.0 NT 24 Fri Mar 26 20:00:17 1999 
-1 9.9999999999999995e-007 1e-010 
body $-1 $6 $-1 $7 #
body $-1 $8 $-1 $9 #
body $-1 $10 $-1 $11 #
body $-1 $12 $-1 $13 #
body $-1 $14 $-1 $15 #
body $-1 $16 $-1 $17 #
lump $-1 $-1 $18 $0 #
transform $-1 1 0 0 0 1 0 0 0 1 59.10214545121616 28.386958687880647 9.941283252515273 1 rotate no_reflect no_shear #
lump $-1 $-1 $19 $1 #
transform $-1 1 0 0 0 1 0 0 0 1 59.10214545121616 28.386958687880647 9.941283252515273 1 rotate no_reflect no_shear #
lump $-1 $-1 $20 $2 #
transform $-1 1 0 0 0 1 0 0 0 1 59.10214545121616 28.386958687880647 9.941283252515273 1 rotate no_reflect no_shear #
lump $-1 $-1 $21 $3 #
transform $-1 1 0 0 0 1 0 0 0 1 59.10214545121616 28.386958687880647 9.941283252515273 1 rotate no_reflect no_shear #
lump $-1 $-1 $22 $4 #
transform $-1 1 0 0 0 1 0 0 0 1 59.10214545121616 28.386958687880647 9.941283252515273 1 rotate no_reflect no_shear #
lump $-1 $-1 $23 $5 #
transform $-1 1 0 0 0 1 0 0 0 1 59.10214545121616 28.386958687880647 9.941283252515273 1 rotate no_reflect no_shear #
shell $-1 $-1 $-1 $24 $-1 $6 #
shell $-1 $-1 $-1 $25 $-1 $8 #
shell $-1 $-1 $-1 $26 $-1 $10 #
shell $-1 $-1 $-1 $27 $-1 $12 #
shell $-1 $-1 $-1 $28 $-1 $14 #
shell $-1 $-1 $-1 $29 $-1 $16 #
face $-1 $30 $31 $18 $-1 $32 forward single #
face $-1 $33 $34 $19 $-1 $35 reversed single #
face $-1 $36 $37 $20 $-1 $38 reversed single #
face $-1 $39 $40 $21 $-1 $41 forward single #
face $-1 $42 $43 $22 $-1 $44 reversed single #
face $-1 $45 $46 $23 $-1 $47 forward single #
face $-1 $48 $49 $18 $-1 $50 reversed single #
loop $-1 $-1 $51 $24 #
plane-surface $-1 0 0 9.941283252515273 0 0 1 1 0 0 forward_v I I I I #
face $-1 $52 $53 $19 $-1 $54 reversed single #
loop $-1 $-1 $55 $25 #
plane-surface $-1 0 -23.673821995262717 5.5079205505375306 0 0 1 1 0 0 forward_v I I I I #
face $-1 $56 $57 $20 $-1 $58 reversed single #
loop $-1 $-1 $59 $26 #
plane-surface $-1 30.074056337601007 26.253214133367791 166.64296502820471 0 -1 0 -0.57357644374324357 0 -0.81915203911291934 forward_v I I I I #
face $-1 $60 $61 $21 $-1 $62 forward single #
loop $-1 $63 $64 $27 #
cone-surface $-1 51.351614832536868 19.691143233701563 2.9917165030160744 -0.57357644374324357 0 -0.81915203911291934 2.4574561173387579 0 -1.7207293312297307 1 I I 0 1 3 forward I I I I #
face $-1 $65 $66 $22 $-1 $67 reversed single #
loop $-1 $-1 $68 $28 #
plane-surface $-1 -126.90134226222514 13.129072334035349 98.843768217195716 0 1 0 -0.57357644374324357 0 0.81915203911291934 forward_v I I I I #
face $-1 $69 $70 $23 $-1 $71 forward single #
loop $-1 $72 $73 $29 #
cone-surface $-1 -51.351614832536868 19.691143233701563 2.9917165030160744 0.57357644374324357 0 -0.81915203911291934 2.4574561173387579 0 1.7207293312297307 1 I I 0 1 3 forward I I I I #
face $-1 $74 $75 $18 $-1 $76 reversed single #
loop $-1 $-1 $77 $30 #
plane-surface $-1 0 0 -9.941283252515273 0 0 1 1 0 0 forward_v I I I I #
coedge $-1 $78 $79 $80 $81 forward $31 $-1 #
face $-1 $82 $83 $19 $-1 $84 reversed single #
loop $-1 $-1 $85 $33 #
plane-surface $-1 0 -18.960685302644787 7.7246019015264018 0 -1 0 0 0 -1 forward_v I I I I #
coedge $-1 $86 $87 $88 $89 reversed $34 $-1 #
face $-1 $90 $91 $20 $-1 $92 reversed single #
loop $-1 $-1 $93 $36 #
plane-surface $-1 -37.725140473407961 19.69114323370157 69.815679103580578 0.57357644374324357 0 0.81915203911291934 0.81915203911291934 0 -0.57357644374324357 forward_v I I I I #
coedge $-1 $94 $95 $96 $97 reversed $37 $-1 #
face $-1 $-1 $98 $21 $-1 $99 forward single #
loop $-1 $100 $101 $39 #
cone-surface $-1 48.399613786939696 19.691143233701563 -1.2241778251806572 -0.57357644374324357 0 -0.81915203911291934 1.228728058669379 0 -0.86036466561486535 1 I I -0.70710678118654757 0.70710678118654757 1.5 forward I I I I #
loop $-1 $-1 $102 $27 #
coedge $-1 $64 $64 $103 $104 reversed $40 $-1 #
face $-1 $105 $106 $22 $-1 $107 reversed single #
loop $-1 $-1 $108 $42 #
plane-surface $-1 -59.102145451216174 19.69114323370157 2.0164822925715811 -0.57357644374324357 0 0.81915203911291934 0.81915203911291934 0 0.57357644374324357 forward_v I I I I #
coedge $-1 $109 $110 $111 $112 reversed $43 $-1 #
face $-1 $-1 $113 $23 $-1 $114 forward single #
loop $-1 $115 $116 $45 #
cone-surface $-1 -48.399613786939696 19.691143233701563 -1.2241778251806572 0.57357644374324357 0 -0.81915203911291934 1.228728058669379 0 0.86036466561486535 1 I I -0.70710678118654757 0.70710678118654757 1.5 forward I I I I #
loop $-1 $-1 $117 $29 #
coedge $-1 $73 $73 $118 $119 reversed $46 $-1 #
face $-1 $120 $121 $18 $-1 $122 reversed single #
loop $-1 $-1 $123 $48 #
plane-surface $-1 0 -28.386958687880647 0 0 1 0 0 0 1 forward_v I I I I #
coedge $-1 $124 $125 $126 $127 forward $49 $-1 #
coedge $-1 $128 $51 $129 $130 forward $31 $-1 #
coedge $-1 $51 $128 $131 $132 forward $31 $-1 #
coedge $-1 $133 $134 $51 $81 reversed $135 $-1 #
edge $-1 $136 -28.386958687880647 $137 28.386958687880647 $80 $138 forward 7 unknown #
face $-1 $139 $140 $19 $-1 $141 reversed single #
loop $-1 $-1 $142 $52 #
plane-surface $-1 -59.10214545121616 0 0 1 0 0 0 0 -1 forward_v I I I I #
coedge $-1 $143 $144 $145 $146 reversed $53 $-1 #
coedge $-1 $147 $55 $148 $149 reversed $34 $-1 #
coedge $-1 $55 $147 $143 $150 forward $34 $-1 #
coedge $-1 $145 $151 $55 $89 forward $152 $-1 #
edge $-1 $153 -16.550047690249286 $154 -7.1237743050134288 $88 $155 forward 7 unknown #
face $-1 $156 $157 $20 $-1 $158 reversed single #
loop $-1 $-1 $159 $56 #
plane-surface $-1 30.074056337601007 13.129072334035349 166.64296502820471 0 1 0 0.57357644374324357 0 0.81915203911291934 forward_v I I I I #
coedge $-1 $160 $161 $162 $163 reversed $57 $-1 #
coedge $-1 $95 $59 $164 $165 reversed $37 $-1 #
coedge $-1 $59 $94 $160 $166 reversed $37 $-1 #
coedge $-1 $162 $167 $59 $97 forward $168 $-1 #
edge $-1 $169 -44.065117282415656 $170 -32.747328805021723 $96 $171 forward 7 unknown #
loop $-1 $-1 $103 $60 #
plane-surface $-1 -37.725140473407961 19.69114323370157 69.815679103580578 0.57357644374324357 0 0.81915203911291934 0.81915203911291934 0 -0.57357644374324357 forward_v I I I I #
loop $-1 $-1 $172 $39 #
coedge $-1 $101 $101 $102 $173 reversed $61 $-1 #
coedge $-1 $102 $102 $101 $173 forward $63 $-1 #
coedge $-1 $103 $103 $64 $104 forward $98 $-1 #
edge $-1 $174 0 $174 6.2831853071796004 $103 $175 forward 7 unknown #
face $-1 $176 $177 $22 $-1 $178 forward single #
loop $-1 $-1 $179 $65 #
plane-surface $-1 -126.90134226222514 26.253214133367791 98.843768217195716 0 -1 0 0.57357644374324357 0 -0.81915203911291934 forward_v I I I I #
coedge $-1 $180 $181 $182 $183 reversed $66 $-1 #
coedge $-1 $110 $68 $184 $185 reversed $43 $-1 #
coedge $-1 $68 $109 $180 $186 reversed $43 $-1 #
coedge $-1 $182 $187 $68 $112 forward $177 $-1 #
edge $-1 $188 4.3485256798964116 $189 15.666314157290373 $111 $190 forward 7 unknown #
loop $-1 $-1 $118 $69 #
plane-surface $-1 -59.102145451216174 19.69114323370157 2.0164822925715811 -0.57357644374324357 0 0.81915203911291934 0.81915203911291934 0 0.57357644374324357 forward_v I I I I #
loop $-1 $-1 $191 $45 #
coedge $-1 $116 $116 $117 $192 reversed $70 $-1 #
coedge $-1 $117 $117 $116 $192 forward $72 $-1 #
coedge $-1 $118 $118 $73 $119 forward $113 $-1 #
edge $-1 $193 0 $193 6.2831853071796004 $118 $194 forward 7 unknown #
face $-1 $195 $196 $18 $-1 $197 reversed single #
loop $-1 $-1 $198 $74 #
plane-surface $-1 -59.10214545121616 0 0 1 0 0 0 0 -1 forward_v I I I I #
coedge $-1 $199 $131 $200 $201 forward $75 $-1 #
coedge $-1 $202 $77 $199 $203 forward $49 $-1 #
coedge $-1 $77 $202 $204 $205 forward $49 $-1 #
coedge $-1 $134 $133 $77 $127 reversed $135 $-1 #
edge $-1 $206 -28.386958687880647 $207 28.386958687880647 $126 $208 forward 7 unknown #
coedge $-1 $79 $78 $209 $210 forward $31 $-1 #
coedge $-1 $211 $212 $78 $130 reversed $196 $-1 #
edge $-1 $137 -59.10214545121616 $213 59.10214545121616 $129 $214 forward 7 unknown #
coedge $-1 $123 $215 $79 $132 reversed $75 $-1 #
edge $-1 $216 -59.10214545121616 $136 59.10214545121616 $131 $217 forward 7 unknown #
coedge $-1 $126 $80 $215 $218 forward $135 $-1 #
coedge $-1 $80 $126 $211 $219 reversed $135 $-1 #
loop $-1 $-1 $133 $195 #
vertex $-1 $81 $220 #
vertex $-1 $81 $221 #
straight-curve $-1 59.10214545121616 0 9.941283252515273 0 1 0 I I #
face $-1 $222 $223 $19 $-1 $224 forward single #
loop $-1 $-1 $148 $82 #
plane-surface $-1 0 -28.386958687880647 0 0 1 0 0 0 1 forward_v I I I I #
coedge $-1 $225 $226 $227 $228 forward $83 $-1 #
coedge $-1 $227 $85 $87 $150 reversed $53 $-1 #
coedge $-1 $85 $227 $229 $230 reversed $53 $-1 #
coedge $-1 $231 $88 $85 $146 forward $152 $-1 #
edge $-1 $154 1.6456195997743297 $232 6.0789823017520721 $145 $233 forward 7 unknown #
coedge $-1 $87 $86 $225 $234 reversed $34 $-1 #
coedge $-1 $235 $236 $86 $149 forward $140 $-1 #
edge $-1 $237 -59.10214545121616 $153 59.10214545121616 $148 $238 forward 7 unknown #
edge $-1 $239 -59.10214545121616 $154 59.10214545121616 $143 $240 forward 7 unknown #
coedge $-1 $88 $231 $235 $241 forward $152 $-1 #
loop $-1 $-1 $145 $222 #
vertex $-1 $149 $242 #
vertex $-1 $89 $243 #
straight-curve $-1 59.10214545121616 -11.836910997631358 5.5079205505375306 0 1 0 I I #
face $-1 $-1 $168 $20 $-1 $244 forward single #
loop $-1 $-1 $245 $90 #
plane-surface $-1 59.10214545121616 0 0 -1 0 0 0 0 1 forward_v I I I I #
coedge $-1 $246 $247 $248 $249 reversed $91 $-1 #
coedge $-1 $250 $93 $95 $166 forward $57 $-1 #
coedge $-1 $93 $250 $246 $251 forward $57 $-1 #
coedge $-1 $248 $96 $93 $163 forward $168 $-1 #
edge $-1 $170 -16.407642516517008 $252 -3.2835007171845643 $162 $253 forward 7 unknown #
coedge $-1 $254 $255 $94 $165 forward $157 $-1 #
edge $-1 $256 -81.305000221530733 $169 -73.38019926158708 $164 $257 forward 7 unknown #
edge $-1 $170 104.38782224094882 $256 118.20429090243231 $95 $258 forward 7 unknown #
coedge $-1 $96 $248 $254 $259 forward $168 $-1 #
loop $-1 $-1 $248 $156 #
vertex $-1 $165 $260 #
vertex $-1 $97 $261 #
straight-curve $-1 15.037028168800504 26.253214133367791 9.9412832525152766 -1 0 0 I I #
coedge $-1 $172 $172 $-1 $262 reversed $100 $-1 #
edge $-1 $263 0 $263 6.2831853071796004 $101 $264 forward 7 unknown #
vertex $-1 $104 $265 #
ellipse-curve $-1 53.443251212519186 19.691143233701563 5.9788827725434466 0.57357644374324357 0 0.81915203911291934 2.4574561173387579 0 -1.7207293312297307 1 I I #
face $-1 $-1 $266 $22 $-1 $267 reversed single #
loop $-1 $-1 $111 $105 #
plane-surface $-1 0 0 9.941283252515273 0 0 1 1 0 0 forward_v I I I I #
coedge $-1 $268 $269 $270 $271 reversed $106 $-1 #
coedge $-1 $272 $108 $110 $186 forward $66 $-1 #
coedge $-1 $108 $272 $268 $273 forward $66 $-1 #
coedge $-1 $270 $111 $108 $183 forward $177 $-1 #
edge $-1 $189 3.2835007171845643 $274 16.407642516517008 $182 $275 forward 7 unknown #
coedge $-1 $276 $277 $109 $185 forward $266 $-1 #
edge $-1 $278 -47.40540181602627 $188 -39.480600856082589 $184 $279 forward 7 unknown #
edge $-1 $189 -13.816468661483523 $278 -1.7244671030687178e-014 $110 $280 forward 7 unknown #
coedge $-1 $111 $270 $276 $281 forward $177 $-1 #
vertex $-1 $185 $282 #
vertex $-1 $112 $283 #
straight-curve $-1 -63.450671131112571 13.129072334035349 9.9412832525152766 1 0 0 I I #
coedge $-1 $191 $191 $-1 $284 reversed $115 $-1 #
edge $-1 $285 0 $285 6.2831853071796004 $116 $286 forward 7 unknown #
vertex $-1 $119 $287 #
ellipse-curve $-1 -53.443251212519179 19.691143233701563 5.9788827725434341 -0.57357644374324357 0 0.81915203911291934 2.4574561173387579 0 1.7207293312297307 1 I I #
face $-1 $-1 $135 $18 $-1 $288 reversed single #
loop $-1 $-1 $211 $120 #
plane-surface $-1 0 28.386958687880647 0 0 -1 0 0 0 -1 forward_v I I I I #
coedge $-1 $289 $209 $212 $290 forward $121 $-1 #
coedge $-1 $215 $123 $124 $203 reversed $75 $-1 #
coedge $-1 $209 $289 $123 $201 reversed $121 $-1 #
edge $-1 $216 -9.941283252515273 $291 9.941283252515273 $200 $292 forward 7 unknown #
coedge $-1 $125 $124 $289 $293 forward $49 $-1 #
edge $-1 $207 -59.10214545121616 $291 59.10214545121616 $199 $294 forward 7 unknown #
coedge $-1 $212 $211 $125 $205 reversed $196 $-1 #
edge $-1 $295 -59.10214545121616 $206 59.10214545121616 $204 $296 forward 7 unknown #
vertex $-1 $127 $297 #
vertex $-1 $218 $298 #
straight-curve $-1 59.10214545121616 0 -9.941283252515273 0 -1 0 I I #
coedge $-1 $198 $200 $128 $210 reversed $121 $-1 #
edge $-1 $213 -28.386958687880647 $216 28.386958687880647 $209 $299 forward 7 unknown #
coedge $-1 $204 $129 $134 $219 forward $196 $-1 #
coedge $-1 $129 $204 $198 $290 reversed $196 $-1 #
vertex $-1 $130 $300 #
straight-curve $-1 0 28.386958687880647 9.941283252515273 -1 0 0 I I #
coedge $-1 $131 $199 $133 $218 reversed $75 $-1 #
vertex $-1 $210 $301 #
straight-curve $-1 0 -28.386958687880647 9.941283252515273 1 0 0 I I #
edge $-1 $136 -9.941283252515273 $207 9.941283252515273 $133 $302 forward 7 unknown #
edge $-1 $137 -9.941283252515273 $206 9.941283252515273 $134 $303 forward 7 unknown #
point $-1 59.10214545121616 -28.386958687880647 9.941283252515273 #
point $-1 59.10214545121616 28.386958687880647 9.941283252515273 #
face $-1 $-1 $152 $19 $-1 $304 reversed single #
loop $-1 $-1 $229 $139 #
plane-surface $-1 0 0 9.941283252515273 0 0 1 1 0 0 forward_v I I I I #
coedge $-1 $305 $142 $147 $234 forward $83 $-1 #
coedge $-1 $142 $305 $306 $307 reversed $83 $-1 #
coedge $-1 $144 $143 $142 $228 reversed $53 $-1 #
edge $-1 $308 -6.0789823017520721 $239 -1.6456195997743297 $142 $309 forward 7 unknown #
coedge $-1 $306 $310 $144 $230 forward $223 $-1 #
edge $-1 $232 -59.10214545121616 $308 59.10214545121616 $229 $311 forward 7 unknown #
coedge $-1 $151 $145 $310 $312 reversed $152 $-1 #
vertex $-1 $146 $313 #
straight-curve $-1 59.10214545121616 -18.960685302644787 3.8623009507632009 0 0 1 I I #
edge $-1 $239 7.1237743050134288 $237 16.550047690249286 $225 $314 forward 7 unknown #
coedge $-1 $315 $148 $151 $241 reversed $140 $-1 #
coedge $-1 $148 $315 $305 $316 forward $140 $-1 #
vertex $-1 $149 $317 #
straight-curve $-1 0 -28.386958687880647 5.5079205505375306 1 0 0 I I #
vertex $-1 $234 $318 #
straight-curve $-1 0 -18.960685302644787 5.5079205505375306 1 0 0 I I #
edge $-1 $319 -9.941283252515273 $153 -5.5079205505375306 $151 $320 forward 7 unknown #
point $-1 59.10214545121616 -28.386958687880647 5.5079205505375306 #
point $-1 59.10214545121616 -18.960685302644787 5.5079205505375306 #
plane-surface $-1 0 0 9.941283252515273 0 0 1 1 0 0 forward_v I I I I #
coedge $-1 $255 $254 $247 $321 forward $157 $-1 #
coedge $-1 $247 $159 $161 $251 reversed $91 $-1 #
coedge $-1 $159 $246 $245 $321 reversed $91 $-1 #
coedge $-1 $167 $162 $159 $249 forward $168 $-1 #
edge $-1 $252 32.747328805021723 $322 44.065117282415656 $248 $323 forward 7 unknown #
coedge $-1 $161 $160 $255 $324 reversed $57 $-1 #
edge $-1 $325 -118.20429090243231 $252 -104.38782224094882 $246 $326 forward 7 unknown #
vertex $-1 $163 $327 #
straight-curve $-1 47.784356973822241 9.8455716168507852 9.9412832525152695 0 -1 0 I I #
coedge $-1 $245 $164 $167 $259 reversed $157 $-1 #
coedge $-1 $164 $245 $250 $324 forward $157 $-1 #
vertex $-1 $165 $328 #
straight-curve $-1 59.10214545121616 26.253214133367791 83.321482514102357 0 0 1 I I #
straight-curve $-1 -37.725140473407961 26.253214133367791 69.815679103580578 0.81915203911291934 0 -0.57357644374324357 I I #
edge $-1 $322 13.129072334035349 $169 26.253214133367791 $254 $329 forward 7 unknown #
point $-1 59.10214545121616 26.253214133367791 9.941283252515273 #
point $-1 47.784356973822227 26.253214133367791 9.9412832525152766 #
edge $-1 $330 1 $330 0 $172 $-1 forward 7 unknown #
vertex $-1 $173 $331 #
ellipse-curve $-1 49.259978452554563 19.691143233701563 0.0045502334887217444 0.57357644374324357 0 0.81915203911291934 2.4574561173387579 0 -1.7207293312297307 1 I I #
point $-1 55.90070732985793 19.691143233701563 4.2581534413136968 #
loop $-1 $-1 $184 $176 #
plane-surface $-1 -59.10214545121616 0 0 1 0 0 0 0 -1 forward_v I I I I #
coedge $-1 $269 $179 $181 $273 reversed $106 $-1 #
coedge $-1 $179 $268 $332 $333 reversed $106 $-1 #
coedge $-1 $187 $182 $179 $271 forward $177 $-1 #
edge $-1 $274 -15.666314157290373 $334 -4.3485256798964116 $270 $335 forward 7 unknown #
coedge $-1 $181 $180 $277 $336 reversed $66 $-1 #
edge $-1 $337 1.7244671030687178e-014 $274 13.816468661483523 $268 $338 forward 7 unknown #
vertex $-1 $183 $339 #
straight-curve $-1 -47.784356973822192 9.8455716168507852 9.941283252515273 0 1 0 I I #
coedge $-1 $332 $184 $187 $281 reversed $266 $-1 #
coedge $-1 $184 $332 $272 $336 forward $266 $-1 #
vertex $-1 $185 $340 #
straight-curve $-1 -59.10214545121616 13.129072334035349 49.421884108597858 0 0 1 I I #
straight-curve $-1 -59.102145451216174 13.129072334035349 2.0164822925715811 -0.81915203911291934 0 -0.57357644374324357 I I #
edge $-1 $334 -26.253214133367791 $188 -13.129072334035349 $276 $341 forward 7 unknown #
point $-1 -59.10214545121616 13.129072334035349 9.941283252515273 #
point $-1 -47.784356973822199 13.129072334035349 9.941283252515273 #
edge $-1 $342 1 $342 0 $191 $-1 forward 7 unknown #
vertex $-1 $192 $343 #
ellipse-curve $-1 -49.259978452554563 19.691143233701563 0.0045502334887217444 -0.57357644374324357 0 0.81915203911291934 2.4574561173387579 0 1.7207293312297307 1 I I #
point $-1 -50.985795095180414 19.691143233701563 7.6996121037731573 #
plane-surface $-1 59.10214545121616 0 0 -1 0 0 0 0 1 forward_v I I I I #
coedge $-1 $200 $198 $202 $293 reversed $121 $-1 #
edge $-1 $213 -9.941283252515273 $295 9.941283252515273 $212 $344 forward 7 unknown #
vertex $-1 $293 $345 #
straight-curve $-1 -59.10214545121616 -28.386958687880647 0 0 0 -1 I I #
edge $-1 $291 -28.386958687880647 $295 28.386958687880647 $289 $346 forward 7 unknown #
straight-curve $-1 0 -28.386958687880647 -9.941283252515273 -1 0 0 I I #
vertex $-1 $205 $347 #
straight-curve $-1 0 28.386958687880647 -9.941283252515273 1 0 0 I I #
point $-1 59.10214545121616 28.386958687880647 -9.941283252515273 #
point $-1 59.10214545121616 -28.386958687880647 -9.941283252515273 #
straight-curve $-1 -59.10214545121616 0 9.941283252515273 0 -1 0 I I #
point $-1 -59.10214545121616 28.386958687880647 9.941283252515273 #
point $-1 -59.10214545121616 -28.386958687880647 9.941283252515273 #
straight-curve $-1 59.10214545121616 -28.386958687880647 0 0 0 -1 I I #
straight-curve $-1 59.10214545121616 28.386958687880647 0 0 0 -1 I I #
plane-surface $-1 59.10214545121616 0 0 -1 0 0 0 0 1 forward_v I I I I #
coedge $-1 $226 $225 $236 $316 reversed $83 $-1 #
coedge $-1 $348 $229 $226 $307 forward $223 $-1 #
edge $-1 $308 18.960685302644787 $349 28.386958687880647 $226 $350 forward 7 unknown #
vertex $-1 $307 $351 #
straight-curve $-1 -59.10214545121616 -18.960685302644787 3.8623009507632009 0 0 -1 I I #
coedge $-1 $229 $348 $231 $312 forward $223 $-1 #
straight-curve $-1 0 -18.960685302644787 9.941283252515273 -1 0 0 I I #
edge $-1 $319 -28.386958687880647 $232 -18.960685302644787 $231 $352 forward 7 unknown #
point $-1 59.10214545121616 -18.960685302644787 9.941283252515273 #
straight-curve $-1 -59.10214545121616 -11.836910997631358 5.5079205505375306 0 -1 0 I I #
coedge $-1 $236 $235 $348 $353 reversed $140 $-1 #
edge $-1 $349 -9.941283252515273 $237 -5.5079205505375306 $305 $354 forward 7 unknown #
point $-1 -59.10214545121616 -28.386958687880647 5.5079205505375306 #
point $-1 -59.10214545121616 -18.960685302644787 5.5079205505375306 #
vertex $-1 $312 $355 #
straight-curve $-1 59.10214545121616 -28.386958687880647 0 0 0 -1 I I #
edge $-1 $322 73.38019926158708 $325 81.305000221530733 $245 $356 forward 7 unknown #
vertex $-1 $259 $357 #
straight-curve $-1 15.037028168800504 13.129072334035349 9.9412832525152766 1 0 0 I I #
edge $-1 $325 3.2835007171845643 $256 16.407642516517008 $255 $358 forward 7 unknown #
vertex $-1 $324 $359 #
straight-curve $-1 -37.725140473407961 13.129072334035349 69.815679103580578 -0.81915203911291934 0 0.57357644374324357 I I #
point $-1 47.784356973822227 13.129072334035349 9.9412832525152766 #
point $-1 59.10214545121616 26.253214133367791 2.0164822925716237 #
straight-curve $-1 59.10214545121616 0 9.941283252515273 0 1 0 I I #
vertex $-1 $262 $360 #
point $-1 51.717434569893321 19.691143233701563 -1.716179097741009 #
coedge $-1 $277 $276 $269 $333 forward $266 $-1 #
edge $-1 $334 39.480600856082589 $337 47.40540181602627 $332 $361 forward 7 unknown #
vertex $-1 $281 $362 #
straight-curve $-1 -63.450671131112571 26.253214133367791 9.9412832525152766 -1 0 0 I I #
edge $-1 $337 -16.407642516517008 $278 -3.2835007171845643 $277 $363 forward 7 unknown #
vertex $-1 $336 $364 #
straight-curve $-1 -59.102145451216174 26.253214133367791 2.0164822925715811 0.81915203911291934 0 0.57357644374324357 I I #
point $-1 -47.784356973822199 26.253214133367791 9.941283252515273 #
point $-1 -59.10214545121616 13.129072334035349 2.0164822925715908 #
straight-curve $-1 -59.10214545121616 0 9.941283252515273 0 -1 0 I I #
vertex $-1 $284 $365 #
point $-1 -46.802522335215805 19.691143233701563 1.7252795647184525 #
straight-curve $-1 -59.10214545121616 28.386958687880647 0 0 0 -1 I I #
point $-1 -59.10214545121616 -28.386958687880647 -9.941283252515273 #
straight-curve $-1 -59.10214545121616 0 -9.941283252515273 0 1 0 I I #
point $-1 -59.10214545121616 28.386958687880647 -9.941283252515273 #
coedge $-1 $310 $306 $315 $353 forward $223 $-1 #
vertex $-1 $307 $366 #
straight-curve $-1 -59.10214545121616 0 9.941283252515273 0 -1 0 I I #
point $-1 -59.10214545121616 -18.960685302644787 9.941283252515273 #
straight-curve $-1 59.10214545121616 0 9.941283252515273 0 1 0 I I #
edge $-1 $349 -59.10214545121616 $319 59.10214545121616 $315 $367 forward 7 unknown #
straight-curve $-1 -59.10214545121616 -28.386958687880647 0 0 0 -1 I I #
point $-1 59.10214545121616 -28.386958687880647 9.941283252515273 #
straight-curve $-1 59.10214545121616 13.129072334035349 83.321482514102357 0 0 -1 I I #
point $-1 59.10214545121616 13.129072334035349 9.941283252515273 #
straight-curve $-1 59.10214545121616 9.8455716168507852 2.0164822925716166 0 1 0 I I #
point $-1 59.10214545121616 13.129072334035349 2.0164822925716237 #
point $-1 47.539249121324829 19.691143233701563 -2.4529058838500362 #
straight-curve $-1 -59.10214545121616 26.253214133367791 49.421884108597858 0 0 -1 I I #
point $-1 -59.10214545121616 26.253214133367791 9.941283252515273 #
straight-curve $-1 -59.10214545121616 9.8455716168507852 2.0164822925715917 0 -1 0 I I #
point $-1 -59.10214545121616 26.253214133367791 2.0164822925715908 #
point $-1 -47.539249121324829 19.691143233701563 -2.4529058838500362 #
point $-1 -59.10214545121616 -28.386958687880647 9.941283252515273 #
straight-curve $-1 0 -28.386958687880647 9.941283252515273 1 0 0 I I #
End-of-ACIS-data 