500 0 8 0           
7 Unknown 11 ACIS 5.0 NT 24 Thu Mar 25 18:00:56 1999 
-1 9.9999999999999995e-007 1e-010 
body $-1 $8 $-1 $9 #
body $-1 $10 $-1 $11 #
body $-1 $12 $-1 $13 #
body $-1 $14 $-1 $15 #
body $-1 $16 $-1 $17 #
body $-1 $18 $-1 $19 #
body $-1 $20 $-1 $21 #
body $-1 $22 $-1 $23 #
lump $-1 $-1 $24 $0 #
transform $-1 1 0 0 0 1 0 0 0 1 62.636188848536634 37.681114591513534 15.86673111900412 1 rotate no_reflect no_shear #
lump $-1 $-1 $25 $1 #
transform $-1 1 0 0 0 1 0 0 0 1 62.636188848536634 37.681114591513534 15.86673111900412 1 rotate no_reflect no_shear #
lump $-1 $-1 $26 $2 #
transform $-1 1 0 0 0 1 0 0 0 1 62.636188848536634 37.681114591513534 15.86673111900412 1 rotate no_reflect no_shear #
lump $-1 $-1 $27 $3 #
transform $-1 1 0 0 0 1 0 0 0 1 62.636188848536634 37.681114591513534 15.86673111900412 1 rotate no_reflect no_shear #
lump $-1 $-1 $28 $4 #
transform $-1 1 0 0 0 1 0 0 0 1 62.636188848536634 37.681114591513534 15.86673111900412 1 rotate no_reflect no_shear #
lump $-1 $-1 $29 $5 #
transform $-1 1 0 0 0 1 0 0 0 1 62.636188848536634 37.681114591513534 15.86673111900412 1 rotate no_reflect no_shear #
lump $-1 $-1 $30 $6 #
transform $-1 1 0 0 0 1 0 0 0 1 62.636188848536634 37.681114591513534 15.86673111900412 1 rotate no_reflect no_shear #
lump $-1 $-1 $31 $7 #
transform $-1 1 0 0 0 1 0 0 0 1 62.636188848536634 37.681114591513534 15.86673111900412 1 rotate no_reflect no_shear #
shell $-1 $-1 $-1 $32 $-1 $8 #
shell $-1 $-1 $-1 $33 $-1 $10 #
shell $-1 $-1 $-1 $34 $-1 $12 #
shell $-1 $-1 $-1 $35 $-1 $14 #
shell $-1 $-1 $-1 $36 $-1 $16 #
shell $-1 $-1 $-1 $37 $-1 $18 #
shell $-1 $-1 $-1 $38 $-1 $20 #
shell $-1 $-1 $-1 $39 $-1 $22 #
face $-1 $40 $41 $24 $-1 $42 forward single #
face $-1 $43 $44 $25 $-1 $45 reversed single #
face $-1 $46 $47 $26 $-1 $48 reversed single #
face $-1 $49 $50 $27 $-1 $51 forward single #
face $-1 $52 $53 $28 $-1 $54 forward single #
face $-1 $55 $56 $29 $-1 $57 reversed single #
face $-1 $58 $59 $30 $-1 $60 forward single #
face $-1 $61 $62 $31 $-1 $63 forward single #
face $-1 $64 $65 $24 $-1 $66 reversed single #
loop $-1 $-1 $67 $32 #
plane-surface $-1 0 0 15.86673111900412 0 0 1 1 0 0 forward_v I I I I #
face $-1 $68 $69 $25 $-1 $70 reversed single #
loop $-1 $-1 $71 $33 #
plane-surface $-1 -38.103502140124107 -29.487117623658779 0 1 0 0 0 0 -1 forward_v I I I I #
face $-1 $72 $73 $26 $-1 $74 reversed single #
loop $-1 $-1 $75 $34 #
plane-surface $-1 -138.02698868704857 8.5338634660070021 110.88318521791805 0 1 0 -0.6018150307709319 0 0.79863550430605224 forward_v I I I I #
face $-1 $76 $77 $27 $-1 $78 forward single #
loop $-1 $79 $80 $35 #
cone-surface $-1 -58.686385692473088 12.422777236809374 12.539396594683723 0.6018150307709319 0 -0.79863550430605224 0.79863550430605224 0 0.6018150307709319 1 I I 0 1 1 forward I I I I #
face $-1 $81 $82 $28 $-1 $83 forward single #
loop $-1 $84 $85 $36 #
cone-surface $-1 -58.686385692473088 18.256147893012937 12.539396594683723 0.6018150307709319 0 -0.79863550430605224 0.79863550430605224 0 0.6018150307709319 1 I I 0 1 1 forward I I I I #
face $-1 $86 $87 $29 $-1 $88 reversed single #
loop $-1 $-1 $89 $37 #
plane-surface $-1 68.819051982971203 30.744790912608288 179.01184306452197 0 1 0 0.73135370988377701 0 0.68199835119979291 forward_v I I I I #
face $-1 $90 $91 $30 $-1 $92 forward single #
loop $-1 $93 $94 $38 #
cone-surface $-1 55.560288492503133 32.726597678009782 8.3613808133300633 -0.73135370988377701 0 -0.68199835119979291 0.34099917559989645 0 -0.36567685494188851 1 I I 0 1 0.5 forward I I I I #
face $-1 $95 $96 $31 $-1 $97 forward single #
loop $-1 $98 $99 $39 #
cone-surface $-1 55.560288492503133 35.699307826112033 8.3613808133300633 -0.73135370988377701 0 -0.68199835119979291 0.34099917559989645 0 -0.36567685494188851 1 I I 0 1 0.5 forward I I I I #
face $-1 $100 $101 $24 $-1 $102 reversed single #
loop $-1 $-1 $103 $40 #
plane-surface $-1 0 0 -15.86673111900412 0 0 1 1 0 0 forward_v I I I I #
coedge $-1 $104 $105 $106 $107 forward $41 $-1 #
face $-1 $108 $109 $25 $-1 $110 reversed single #
loop $-1 $-1 $111 $43 #
plane-surface $-1 -34.503114375326248 -21.293120655804024 0 0 -1 0 0 0 -1 forward_v I I I I #
coedge $-1 $112 $113 $114 $115 forward $44 $-1 #
face $-1 $116 $117 $26 $-1 $118 reversed single #
loop $-1 $-1 $119 $46 #
plane-surface $-1 -62.636188848536619 15.339462564911159 10.836216680197694 -0.6018150307709319 0 0.79863550430605224 0.79863550430605224 0 0.6018150307709319 forward_v I I I I #
coedge $-1 $120 $121 $122 $123 reversed $47 $-1 #
face $-1 $-1 $124 $27 $-1 $125 forward single #
loop $-1 $126 $127 $49 #
cone-surface $-1 -57.77353402282445 12.422777236809374 11.328001537613519 0.6018150307709319 0 -0.79863550430605224 0.39931775215302612 0 0.30090751538546595 1 I I -0.70710678118654746 0.70710678118654746 0.5 forward I I I I #
loop $-1 $-1 $128 $35 #
coedge $-1 $80 $80 $129 $130 reversed $50 $-1 #
face $-1 $-1 $131 $28 $-1 $132 forward single #
loop $-1 $133 $134 $52 #
cone-surface $-1 -57.77353402282445 18.256147893012937 11.328001537613519 0.6018150307709319 0 -0.79863550430605224 0.39931775215302612 0 0.30090751538546595 1 I I -0.70710678118654746 0.70710678118654746 0.5 forward I I I I #
loop $-1 $-1 $135 $36 #
coedge $-1 $85 $85 $136 $137 reversed $53 $-1 #
face $-1 $138 $139 $29 $-1 $140 forward single #
loop $-1 $-1 $141 $55 #
plane-surface $-1 -22.799366191745051 34.212952752060914 93.576288024240284 0.73135370988377701 0 0.68199835119979291 0.68199835119979291 0 -0.73135370988377701 forward_v I I I I #
coedge $-1 $142 $143 $144 $145 reversed $56 $-1 #
face $-1 $-1 $146 $30 $-1 $147 forward single #
loop $-1 $148 $149 $58 #
cone-surface $-1 54.786661033831862 32.726597678009782 7.6399615545960931 -0.73135370988377701 0 -0.68199835119979291 0.17049958779994823 0 -0.18283842747094425 1 I I -0.70710678118654746 0.70710678118654746 0.25 forward I I I I #
loop $-1 $-1 $150 $38 #
coedge $-1 $94 $94 $151 $152 reversed $59 $-1 #
face $-1 $-1 $153 $31 $-1 $154 forward single #
loop $-1 $155 $156 $61 #
cone-surface $-1 54.786661033831862 35.699307826112033 7.6399615545960931 -0.73135370988377701 0 -0.68199835119979291 0.17049958779994823 0 -0.18283842747094425 1 I I -0.70710678118654746 0.70710678118654746 0.25 forward I I I I #
loop $-1 $-1 $157 $39 #
coedge $-1 $99 $99 $158 $159 reversed $62 $-1 #
face $-1 $160 $161 $24 $-1 $162 reversed single #
loop $-1 $-1 $163 $64 #
plane-surface $-1 0 -37.681114591513534 0 0 1 0 0 0 1 forward_v I I I I #
coedge $-1 $164 $165 $166 $167 forward $65 $-1 #
coedge $-1 $168 $67 $169 $170 forward $41 $-1 #
coedge $-1 $67 $168 $171 $172 forward $41 $-1 #
coedge $-1 $173 $174 $67 $107 reversed $175 $-1 #
edge $-1 $176 -37.681114591513534 $177 37.681114591513534 $106 $178 forward 7 unknown #
face $-1 $179 $180 $25 $-1 $181 forward single #
loop $-1 $-1 $182 $68 #
plane-surface $-1 -30.902726610528394 -29.487117623658779 0 -1 0 0 0 0 1 forward_v I I I I #
coedge $-1 $183 $184 $185 $186 forward $69 $-1 #
coedge $-1 $187 $71 $188 $189 reversed $44 $-1 #
coedge $-1 $71 $187 $190 $191 reversed $44 $-1 #
coedge $-1 $184 $183 $71 $115 reversed $69 $-1 #
edge $-1 $192 -15.86673111900412 $193 15.86673111900412 $114 $194 forward 7 unknown #
face $-1 $195 $196 $26 $-1 $197 reversed single #
loop $-1 $-1 $198 $72 #
plane-surface $-1 -138.02698868704857 22.145061663815316 110.88318521791805 0 -1 0 0.6018150307709319 0 -0.79863550430605224 forward_v I I I I #
coedge $-1 $199 $200 $201 $202 reversed $73 $-1 #
coedge $-1 $121 $75 $203 $204 reversed $47 $-1 #
coedge $-1 $75 $120 $199 $205 reversed $47 $-1 #
coedge $-1 $201 $206 $75 $123 forward $207 $-1 #
edge $-1 $208 6.3773054949876524 $209 13.053023498588416 $122 $210 forward 7 unknown #
loop $-1 $-1 $129 $76 #
plane-surface $-1 -62.636188848536619 15.339462564911159 10.836216680197694 -0.6018150307709319 0 0.79863550430605224 0.79863550430605224 0 0.6018150307709319 forward_v I I I I #
loop $-1 $-1 $211 $49 #
coedge $-1 $127 $127 $128 $212 reversed $77 $-1 #
coedge $-1 $128 $128 $127 $212 forward $79 $-1 #
coedge $-1 $129 $129 $80 $130 forward $124 $-1 #
edge $-1 $213 0 $213 6.2831853071796004 $129 $214 forward 7 unknown #
loop $-1 $-1 $136 $81 #
plane-surface $-1 -62.636188848536619 15.339462564911159 10.836216680197694 -0.6018150307709319 0 0.79863550430605224 0.79863550430605224 0 0.6018150307709319 forward_v I I I I #
loop $-1 $-1 $215 $52 #
coedge $-1 $134 $134 $135 $216 reversed $82 $-1 #
coedge $-1 $135 $135 $134 $216 forward $84 $-1 #
coedge $-1 $136 $136 $85 $137 forward $131 $-1 #
edge $-1 $217 0 $217 6.2831853071796004 $136 $218 forward 7 unknown #
face $-1 $219 $220 $29 $-1 $221 reversed single #
loop $-1 $-1 $222 $86 #
plane-surface $-1 0 0 15.86673111900412 0 0 1 1 0 0 forward_v I I I I #
coedge $-1 $223 $224 $225 $226 reversed $87 $-1 #
coedge $-1 $143 $89 $227 $228 reversed $56 $-1 #
coedge $-1 $89 $142 $223 $229 reversed $56 $-1 #
coedge $-1 $225 $230 $89 $145 forward $231 $-1 #
edge $-1 $232 73.63919041325687 $233 87.548051682736968 $144 $234 forward 7 unknown #
loop $-1 $-1 $151 $90 #
plane-surface $-1 -22.799366191745051 34.212952752060914 93.576288024240284 0.73135370988377701 0 0.68199835119979291 0.68199835119979291 0 -0.73135370988377701 forward_v I I I I #
loop $-1 $-1 $235 $58 #
coedge $-1 $149 $149 $150 $236 reversed $91 $-1 #
coedge $-1 $150 $150 $149 $236 forward $93 $-1 #
coedge $-1 $151 $151 $94 $152 forward $146 $-1 #
edge $-1 $237 0 $237 6.2831853071796004 $151 $238 forward 7 unknown #
loop $-1 $-1 $158 $95 #
plane-surface $-1 -22.799366191745051 34.212952752060914 93.576288024240284 0.73135370988377701 0 0.68199835119979291 0.68199835119979291 0 -0.73135370988377701 forward_v I I I I #
loop $-1 $-1 $239 $61 #
coedge $-1 $156 $156 $157 $240 reversed $96 $-1 #
coedge $-1 $157 $157 $156 $240 forward $98 $-1 #
coedge $-1 $158 $158 $99 $159 forward $153 $-1 #
edge $-1 $241 0 $241 6.2831853071796004 $158 $242 forward 7 unknown #
face $-1 $243 $244 $24 $-1 $245 reversed single #
loop $-1 $-1 $246 $100 #
plane-surface $-1 -62.636188848536634 0 0 1 0 0 0 0 -1 forward_v I I I I #
coedge $-1 $247 $171 $248 $249 forward $101 $-1 #
coedge $-1 $250 $103 $247 $251 forward $65 $-1 #
coedge $-1 $103 $250 $252 $253 forward $65 $-1 #
coedge $-1 $174 $173 $103 $167 reversed $175 $-1 #
edge $-1 $254 -37.681114591513534 $255 37.681114591513534 $166 $256 forward 7 unknown #
coedge $-1 $105 $104 $257 $258 forward $41 $-1 #
coedge $-1 $259 $260 $104 $170 reversed $244 $-1 #
edge $-1 $177 -62.636188848536634 $261 62.636188848536634 $169 $262 forward 7 unknown #
coedge $-1 $163 $263 $105 $172 reversed $101 $-1 #
edge $-1 $264 -62.636188848536634 $176 62.636188848536634 $171 $265 forward 7 unknown #
coedge $-1 $166 $106 $263 $266 forward $175 $-1 #
coedge $-1 $106 $166 $259 $267 reversed $175 $-1 #
loop $-1 $-1 $173 $243 #
vertex $-1 $107 $268 #
vertex $-1 $107 $269 #
straight-curve $-1 62.636188848536634 0 15.86673111900412 0 1 0 I I #
face $-1 $270 $271 $25 $-1 $272 reversed single #
loop $-1 $-1 $273 $108 #
plane-surface $-1 0 0 15.86673111900412 0 0 1 1 0 0 forward_v I I I I #
coedge $-1 $274 $275 $276 $277 reversed $109 $-1 #
coedge $-1 $114 $111 $278 $279 reversed $69 $-1 #
coedge $-1 $111 $114 $280 $281 reversed $69 $-1 #
coedge $-1 $275 $274 $111 $186 reversed $109 $-1 #
edge $-1 $282 -15.86673111900412 $283 15.86673111900412 $185 $284 forward 7 unknown #
coedge $-1 $113 $112 $285 $286 reversed $44 $-1 #
coedge $-1 $278 $287 $112 $189 forward $271 $-1 #
edge $-1 $288 -22.937555779684146 $193 -6.5495618439746348 $188 $289 forward 7 unknown #
coedge $-1 $290 $280 $113 $191 forward $180 $-1 #
edge $-1 $192 6.5495618439746348 $291 22.937555779684146 $190 $292 forward 7 unknown #
vertex $-1 $191 $293 #
vertex $-1 $189 $294 #
straight-curve $-1 -38.103502140124107 -21.293120655804024 0 0 0 -1 I I #
face $-1 $-1 $207 $26 $-1 $295 forward single #
loop $-1 $-1 $296 $116 #
plane-surface $-1 -62.636188848536634 0 0 1 0 0 0 0 -1 forward_v I I I I #
coedge $-1 $297 $298 $299 $300 reversed $117 $-1 #
coedge $-1 $301 $119 $121 $205 forward $73 $-1 #
coedge $-1 $119 $301 $297 $302 forward $73 $-1 #
coedge $-1 $299 $122 $119 $202 forward $207 $-1 #
edge $-1 $209 0.86413218355142263 $303 14.475330381359736 $201 $304 forward 7 unknown #
coedge $-1 $305 $306 $120 $204 forward $196 $-1 #
edge $-1 $307 -44.605375928761347 $208 -39.574861489954905 $203 $308 forward 7 unknown #
edge $-1 $209 -8.3589046161945841 $307 1.7763522597878294e-014 $121 $309 forward 7 unknown #
coedge $-1 $122 $299 $305 $310 forward $207 $-1 #
loop $-1 $-1 $299 $195 #
vertex $-1 $204 $311 #
vertex $-1 $123 $312 #
straight-curve $-1 -69.013494343524286 8.5338634660070021 15.866731119004122 1 0 0 I I #
coedge $-1 $211 $211 $-1 $313 reversed $126 $-1 #
edge $-1 $314 0 $314 6.2831853071796004 $127 $315 forward 7 unknown #
vertex $-1 $130 $316 #
ellipse-curve $-1 -59.298329846736259 12.422777236809374 13.351473899600899 -0.6018150307709319 0 0.79863550430605224 0.79863550430605224 0 0.6018150307709319 1 I I #
coedge $-1 $215 $215 $-1 $317 reversed $133 $-1 #
edge $-1 $318 0 $318 6.2831853071796004 $134 $319 forward 7 unknown #
vertex $-1 $137 $320 #
ellipse-curve $-1 -59.298329846736259 18.256147893012937 13.351473899600899 -0.6018150307709319 0 0.79863550430605224 0.79863550430605224 0 0.6018150307709319 1 I I #
face $-1 $-1 $231 $29 $-1 $321 reversed single #
loop $-1 $-1 $322 $138 #
plane-surface $-1 0 37.681114591513534 0 0 -1 0 0 0 -1 forward_v I I I I #
coedge $-1 $227 $323 $324 $325 forward $139 $-1 #
coedge $-1 $324 $141 $143 $229 forward $87 $-1 #
coedge $-1 $141 $324 $322 $326 reversed $87 $-1 #
coedge $-1 $327 $144 $141 $226 forward $231 $-1 #
edge $-1 $233 13.63831453657783 $328 20.574638215483077 $225 $329 forward 7 unknown #
coedge $-1 $330 $222 $142 $228 forward $139 $-1 #
edge $-1 $331 15.256440207384678 $232 28.226662857051032 $227 $332 forward 7 unknown #
edge $-1 $233 -125.27237769707327 $331 -106.25440994561356 $143 $333 forward 7 unknown #
coedge $-1 $144 $327 $330 $334 reversed $231 $-1 #
loop $-1 $-1 $225 $219 #
vertex $-1 $334 $335 #
vertex $-1 $145 $336 #
straight-curve $-1 62.636188848536634 30.744790912608288 89.505921532260984 0 0 -1 I I #
coedge $-1 $235 $235 $-1 $337 reversed $148 $-1 #
edge $-1 $338 0 $338 6.2831853071796004 $149 $339 forward 7 unknown #
vertex $-1 $152 $340 #
ellipse-curve $-1 56.151077523703449 32.726597678009782 8.9123004842640743 0.73135370988377701 0 0.68199835119979291 0.34099917559989645 0 -0.36567685494188851 1 I I #
coedge $-1 $239 $239 $-1 $341 reversed $155 $-1 #
edge $-1 $342 0 $342 6.2831853071796004 $156 $343 forward 7 unknown #
vertex $-1 $159 $344 #
ellipse-curve $-1 56.151077523703449 35.699307826112033 8.9123004842640743 0.73135370988377701 0 0.68199835119979291 0.34099917559989645 0 -0.36567685494188851 1 I I #
face $-1 $-1 $175 $24 $-1 $345 reversed single #
loop $-1 $-1 $259 $160 #
plane-surface $-1 0 37.681114591513534 0 0 -1 0 0 0 -1 forward_v I I I I #
coedge $-1 $346 $257 $260 $347 forward $161 $-1 #
coedge $-1 $263 $163 $164 $251 reversed $101 $-1 #
coedge $-1 $257 $346 $163 $249 reversed $161 $-1 #
edge $-1 $264 -15.86673111900412 $348 15.86673111900412 $248 $349 forward 7 unknown #
coedge $-1 $165 $164 $346 $350 forward $65 $-1 #
edge $-1 $255 -62.636188848536634 $348 62.636188848536634 $247 $351 forward 7 unknown #
coedge $-1 $260 $259 $165 $253 reversed $244 $-1 #
edge $-1 $352 -62.636188848536634 $254 62.636188848536634 $252 $353 forward 7 unknown #
vertex $-1 $167 $354 #
vertex $-1 $266 $355 #
straight-curve $-1 62.636188848536634 0 -15.86673111900412 0 -1 0 I I #
coedge $-1 $246 $248 $168 $258 reversed $161 $-1 #
edge $-1 $261 -37.681114591513534 $264 37.681114591513534 $257 $356 forward 7 unknown #
coedge $-1 $252 $169 $174 $267 forward $244 $-1 #
coedge $-1 $169 $252 $246 $347 reversed $244 $-1 #
vertex $-1 $170 $357 #
straight-curve $-1 0 37.681114591513534 15.86673111900412 -1 0 0 I I #
coedge $-1 $171 $247 $173 $266 reversed $101 $-1 #
vertex $-1 $258 $358 #
straight-curve $-1 0 -37.681114591513534 15.86673111900412 1 0 0 I I #
edge $-1 $176 -15.86673111900412 $255 15.86673111900412 $173 $359 forward 7 unknown #
edge $-1 $177 -15.86673111900412 $254 15.86673111900412 $174 $360 forward 7 unknown #
point $-1 62.636188848536634 -37.681114591513534 15.86673111900412 #
point $-1 62.636188848536634 37.681114591513534 15.86673111900412 #
face $-1 $-1 $361 $25 $-1 $362 reversed single #
loop $-1 $-1 $363 $179 #
plane-surface $-1 0 0 -15.86673111900412 0 0 1 1 0 0 forward_v I I I I #
coedge $-1 $280 $290 $275 $364 forward $180 $-1 #
coedge $-1 $185 $182 $363 $365 reversed $109 $-1 #
coedge $-1 $182 $185 $273 $364 reversed $109 $-1 #
coedge $-1 $366 $367 $182 $277 forward $361 $-1 #
edge $-1 $368 -15.86673111900412 $369 15.86673111900412 $276 $370 forward 7 unknown #
coedge $-1 $363 $188 $183 $279 forward $271 $-1 #
edge $-1 $193 -20.851944952460983 $283 -13.651169422865269 $278 $371 forward 7 unknown #
coedge $-1 $190 $273 $184 $281 forward $180 $-1 #
edge $-1 $282 13.651169422865269 $192 20.851944952460983 $280 $372 forward 7 unknown #
vertex $-1 $281 $373 #
vertex $-1 $279 $374 #
straight-curve $-1 -30.902726610528394 -21.293120655804024 0 0 0 -1 I I #
coedge $-1 $367 $366 $187 $286 forward $361 $-1 #
edge $-1 $291 -15.86673111900412 $288 15.86673111900412 $285 $375 forward 7 unknown #
coedge $-1 $188 $363 $367 $376 forward $271 $-1 #
vertex $-1 $189 $377 #
straight-curve $-1 -38.103502140124107 -14.74355881182939 -15.86673111900412 0 1 0 I I #
coedge $-1 $273 $190 $366 $378 forward $180 $-1 #
vertex $-1 $378 $379 #
straight-curve $-1 -38.103502140124107 -14.74355881182939 15.86673111900412 0 -1 0 I I #
point $-1 -38.103502140124107 -21.293120655804024 15.86673111900412 #
point $-1 -38.103502140124107 -21.293120655804024 -15.86673111900412 #
plane-surface $-1 0 0 15.86673111900412 0 0 1 1 0 0 forward_v I I I I #
coedge $-1 $306 $305 $298 $380 forward $196 $-1 #
coedge $-1 $298 $198 $200 $302 reversed $117 $-1 #
coedge $-1 $198 $297 $296 $380 reversed $117 $-1 #
coedge $-1 $206 $201 $198 $300 forward $207 $-1 #
edge $-1 $303 -13.053023498588416 $381 -6.3773054949876524 $299 $382 forward 7 unknown #
coedge $-1 $200 $199 $306 $383 reversed $73 $-1 #
edge $-1 $384 -1.7763522597878294e-014 $303 8.3589046161945841 $297 $385 forward 7 unknown #
vertex $-1 $202 $386 #
straight-curve $-1 -55.960470844935877 7.6697312824555794 15.86673111900412 0 1 0 I I #
coedge $-1 $296 $203 $206 $310 reversed $196 $-1 #
coedge $-1 $203 $296 $301 $383 forward $196 $-1 #
vertex $-1 $204 $387 #
straight-curve $-1 -62.636188848536634 8.5338634660070021 55.441592608959027 0 0 1 I I #
straight-curve $-1 -62.636188848536619 8.5338634660070021 10.836216680197694 -0.79863550430605224 0 -0.6018150307709319 I I #
edge $-1 $381 -22.145061663815316 $208 -8.5338634660070021 $305 $388 forward 7 unknown #
point $-1 -62.636188848536634 8.5338634660070021 15.86673111900412 #
point $-1 -55.96047084493587 8.5338634660070021 15.86673111900412 #
edge $-1 $389 1 $389 0 $211 $-1 forward 7 unknown #
vertex $-1 $212 $390 #
ellipse-curve $-1 -58.074441538209918 12.422777236809374 11.727319289766545 -0.6018150307709319 0 0.79863550430605224 0.79863550430605224 0 0.6018150307709319 1 I I #
point $-1 -58.499694342430203 12.422777236809374 13.953288930371833 #
edge $-1 $391 1 $391 0 $215 $-1 forward 7 unknown #
vertex $-1 $216 $392 #
ellipse-curve $-1 -58.074441538209918 18.256147893012937 11.727319289766545 -0.6018150307709319 0 0.79863550430605224 0.79863550430605224 0 0.6018150307709319 1 I I #
point $-1 -58.499694342430203 18.256147893012937 13.953288930371833 #
plane-surface $-1 62.636188848536634 0 0 -1 0 0 0 0 1 forward_v I I I I #
coedge $-1 $393 $394 $224 $326 forward $220 $-1 #
coedge $-1 $222 $330 $393 $395 forward $139 $-1 #
coedge $-1 $224 $223 $222 $325 reversed $87 $-1 #
edge $-1 $396 -20.574638215483084 $331 -13.63831453657783 $222 $397 forward 7 unknown #
edge $-1 $328 -83.279129919647573 $396 -64.261162168187866 $322 $398 forward 7 unknown #
coedge $-1 $230 $225 $394 $399 reversed $231 $-1 #
vertex $-1 $226 $400 #
straight-curve $-1 62.636188848536634 17.106476376030457 1.9578698495240161 0 1 0 I I #
coedge $-1 $323 $227 $230 $334 forward $139 $-1 #
vertex $-1 $228 $401 #
straight-curve $-1 34.409525991485602 30.744790912608288 15.866731119004115 1 0 0 I I #
straight-curve $-1 -22.799366191745051 30.744790912608288 93.576288024240284 -0.68199835119979291 0 0.73135370988377701 I I #
edge $-1 $232 30.744790912608288 $402 37.681114591513534 $230 $403 forward 7 unknown #
point $-1 62.636188848536634 30.744790912608288 15.86673111900412 #
point $-1 62.636188848536634 30.744790912608288 1.9578698495240161 #
edge $-1 $404 1 $404 0 $235 $-1 forward 7 unknown #
vertex $-1 $236 $405 #
ellipse-curve $-1 54.969499461302803 32.726597678009782 7.8104611423960417 0.73135370988377701 0 0.68199835119979291 0.34099917559989645 0 -0.36567685494188851 1 I I #
point $-1 56.492076699303361 32.726597678009782 8.5466236293221964 #
edge $-1 $406 1 $406 0 $239 $-1 forward 7 unknown #
vertex $-1 $240 $407 #
ellipse-curve $-1 54.969499461302803 35.699307826112033 7.8104611423960417 0.73135370988377701 0 0.68199835119979291 0.34099917559989645 0 -0.36567685494188851 1 I I #
point $-1 56.492076699303361 35.699307826112033 8.5466236293221964 #
plane-surface $-1 62.636188848536634 0 0 -1 0 0 0 0 1 forward_v I I I I #
coedge $-1 $248 $246 $250 $350 reversed $161 $-1 #
edge $-1 $261 -15.86673111900412 $352 15.86673111900412 $260 $408 forward 7 unknown #
vertex $-1 $350 $409 #
straight-curve $-1 -62.636188848536634 -37.681114591513534 0 0 0 -1 I I #
edge $-1 $348 -37.681114591513534 $352 37.681114591513534 $346 $410 forward 7 unknown #
straight-curve $-1 0 -37.681114591513534 -15.86673111900412 -1 0 0 I I #
vertex $-1 $253 $411 #
straight-curve $-1 0 37.681114591513534 -15.86673111900412 1 0 0 I I #
point $-1 62.636188848536634 37.681114591513534 -15.86673111900412 #
point $-1 62.636188848536634 -37.681114591513534 -15.86673111900412 #
straight-curve $-1 -62.636188848536634 0 15.86673111900412 0 -1 0 I I #
point $-1 -62.636188848536634 37.681114591513534 15.86673111900412 #
point $-1 -62.636188848536634 -37.681114591513534 15.86673111900412 #
straight-curve $-1 62.636188848536634 -37.681114591513534 0 0 0 -1 I I #
straight-curve $-1 62.636188848536634 37.681114591513534 0 0 0 -1 I I #
loop $-1 $-1 $276 $270 #
plane-surface $-1 0 -37.681114591513534 0 0 1 0 0 0 1 forward_v I I I I #
coedge $-1 $287 $278 $274 $365 forward $271 $-1 #
edge $-1 $369 -22.937555779684146 $282 -6.5495618439746348 $273 $412 forward 7 unknown #
edge $-1 $283 6.5495618439746348 $368 22.937555779684146 $363 $413 forward 7 unknown #
coedge $-1 $285 $276 $290 $378 reversed $361 $-1 #
coedge $-1 $276 $285 $287 $376 reversed $361 $-1 #
vertex $-1 $376 $414 #
vertex $-1 $277 $415 #
straight-curve $-1 -30.902726610528394 -37.681114591513534 0 0 0 1 I I #
straight-curve $-1 -17.251557187663124 -21.293120655804024 -15.86673111900412 1 0 0 I I #
straight-curve $-1 -17.251557187663124 -21.293120655804024 15.86673111900412 -1 0 0 I I #
point $-1 -30.902726610528394 -21.293120655804024 15.86673111900412 #
point $-1 -30.902726610528394 -21.293120655804024 -15.86673111900412 #
straight-curve $-1 -38.103502140124107 -37.681114591513534 0 0 0 -1 I I #
edge $-1 $368 30.902726610528394 $288 38.103502140124107 $367 $416 forward 7 unknown #
point $-1 -38.103502140124107 -37.681114591513534 -15.86673111900412 #
edge $-1 $291 -38.103502140124107 $369 -30.902726610528394 $366 $417 forward 7 unknown #
point $-1 -38.103502140124107 -37.681114591513534 15.86673111900412 #
edge $-1 $381 39.574861489954905 $384 44.605375928761347 $296 $418 forward 7 unknown #
vertex $-1 $310 $419 #
straight-curve $-1 -69.013494343524286 22.145061663815316 15.866731119004122 -1 0 0 I I #
edge $-1 $384 -14.475330381359736 $307 -0.86413218355142263 $306 $420 forward 7 unknown #
vertex $-1 $383 $421 #
straight-curve $-1 -62.636188848536619 22.145061663815316 10.836216680197694 0.79863550430605224 0 0.6018150307709319 I I #
point $-1 -55.96047084493587 22.145061663815316 15.86673111900412 #
point $-1 -62.636188848536634 8.5338634660070021 10.836216680197683 #
straight-curve $-1 -62.636188848536634 0 15.86673111900412 0 -1 0 I I #
vertex $-1 $313 $422 #
point $-1 -57.275806033903862 12.422777236809374 12.329134320537477 #
vertex $-1 $317 $423 #
point $-1 -57.275806033903862 18.256147893012937 12.329134320537477 #
coedge $-1 $394 $322 $323 $395 reversed $220 $-1 #
coedge $-1 $322 $393 $327 $399 forward $220 $-1 #
edge $-1 $402 -62.636188848536634 $396 -49.665966198870279 $393 $424 forward 7 unknown #
vertex $-1 $326 $425 #
straight-curve $-1 49.665966198870265 17.106476376030457 15.866731119004115 0 -1 0 I I #
straight-curve $-1 5.8399595539836504 37.681114591513534 62.864370472151322 -0.68199835119979291 0 0.73135370988377701 I I #
edge $-1 $402 -15.86673111900412 $328 -1.9578698495240197 $327 $426 forward 7 unknown #
point $-1 62.636188848536634 37.681114591513534 1.9578698495240197 #
point $-1 49.665966198870279 30.744790912608288 15.866731119004115 #
vertex $-1 $334 $427 #
straight-curve $-1 62.636188848536634 0 15.86673111900412 0 1 0 I I #
vertex $-1 $337 $428 #
point $-1 55.3104986369027 32.726597678009782 7.4447842874541532 #
vertex $-1 $341 $429 #
point $-1 55.3104986369027 35.699307826112033 7.4447842874541532 #
straight-curve $-1 -62.636188848536634 37.681114591513534 0 0 0 -1 I I #
point $-1 -62.636188848536634 -37.681114591513534 -15.86673111900412 #
straight-curve $-1 -62.636188848536634 0 -15.86673111900412 0 1 0 I I #
point $-1 -62.636188848536634 37.681114591513534 -15.86673111900412 #
straight-curve $-1 -30.902726610528394 -14.74355881182939 15.86673111900412 0 1 0 I I #
straight-curve $-1 -30.902726610528394 -14.74355881182939 -15.86673111900412 0 -1 0 I I #
point $-1 -30.902726610528394 -37.681114591513534 -15.86673111900412 #
point $-1 -30.902726610528394 -37.681114591513534 15.86673111900412 #
straight-curve $-1 0 -37.681114591513534 -15.86673111900412 -1 0 0 I I #
straight-curve $-1 0 -37.681114591513534 15.86673111900412 1 0 0 I I #
straight-curve $-1 -62.636188848536634 22.145061663815316 55.441592608959027 0 0 -1 I I #
point $-1 -62.636188848536634 22.145061663815316 15.86673111900412 #
straight-curve $-1 -62.636188848536634 7.6697312824555794 10.836216680197682 0 -1 0 I I #
point $-1 -62.636188848536634 22.145061663815316 10.836216680197683 #
point $-1 -57.472626507438981 12.422777236809374 10.928683785460493 #
point $-1 -57.472626507438981 18.256147893012937 10.928683785460493 #
straight-curve $-1 0 37.681114591513534 15.86673111900412 -1 0 0 I I #
point $-1 49.665966198870279 37.681114591513541 15.866731119004115 #
straight-curve $-1 62.636188848536634 37.681114591513534 0 0 0 -1 I I #
point $-1 62.636188848536634 37.681114591513534 15.86673111900412 #
point $-1 54.603822606360922 32.726597678009782 7.4694619667961444 #
point $-1 54.603822606360922 35.699307826112033 7.4694619667961444 #
End-of-ACIS-data 