500 0 7 0           
7 Unknown 11 ACIS 5.0 NT 24 Thu Mar 25 16:24:03 1999 
-1 9.9999999999999995e-007 1e-010 
body $-1 $7 $-1 $8 #
body $-1 $9 $-1 $10 #
body $-1 $11 $-1 $12 #
body $-1 $13 $-1 $14 #
body $-1 $15 $-1 $16 #
body $-1 $17 $-1 $18 #
body $-1 $19 $-1 $20 #
lump $-1 $-1 $21 $0 #
transform $-1 1 0 0 0 1 0 0 0 1 44.01501510666219 29.763563866874218 8.3065840281316987 1 rotate no_reflect no_shear #
lump $-1 $-1 $22 $1 #
transform $-1 1 0 0 0 1 0 0 0 1 44.01501510666219 29.763563866874218 8.3065840281316987 1 rotate no_reflect no_shear #
lump $-1 $-1 $23 $2 #
transform $-1 1 0 0 0 1 0 0 0 1 44.01501510666219 29.763563866874218 8.3065840281316987 1 rotate no_reflect no_shear #
lump $-1 $-1 $24 $3 #
transform $-1 1 0 0 0 1 0 0 0 1 44.01501510666219 29.763563866874218 8.3065840281316987 1 rotate no_reflect no_shear #
lump $-1 $-1 $25 $4 #
transform $-1 1 0 0 0 1 0 0 0 1 44.01501510666219 29.763563866874218 8.3065840281316987 1 rotate no_reflect no_shear #
lump $-1 $-1 $26 $5 #
transform $-1 1 0 0 0 1 0 0 0 1 44.01501510666219 29.763563866874218 8.3065840281316987 1 rotate no_reflect no_shear #
lump $-1 $-1 $27 $6 #
transform $-1 1 0 0 0 1 0 0 0 1 44.01501510666219 29.763563866874218 8.3065840281316987 1 rotate no_reflect no_shear #
shell $-1 $-1 $-1 $28 $-1 $7 #
shell $-1 $-1 $-1 $29 $-1 $9 #
shell $-1 $-1 $-1 $30 $-1 $11 #
shell $-1 $-1 $-1 $31 $-1 $13 #
shell $-1 $-1 $-1 $32 $-1 $15 #
shell $-1 $-1 $-1 $33 $-1 $17 #
shell $-1 $-1 $-1 $34 $-1 $19 #
face $-1 $35 $36 $21 $-1 $37 reversed single #
face $-1 $38 $39 $22 $-1 $40 forward single #
face $-1 $41 $42 $23 $-1 $43 reversed single #
face $-1 $44 $45 $24 $-1 $46 forward single #
face $-1 $47 $48 $25 $-1 $49 forward single #
face $-1 $50 $51 $26 $-1 $52 reversed single #
face $-1 $53 $54 $27 $-1 $55 forward single #
face $-1 $56 $57 $21 $-1 $58 forward single #
loop $-1 $-1 $59 $28 #
plane-surface $-1 -44.01501510666219 0 0 1 0 0 0 0 -1 forward_v I I I I #
face $-1 $60 $61 $22 $-1 $62 reversed single #
loop $-1 $-1 $63 $29 #
plane-surface $-1 -44.01501510666219 0 0 1 0 0 0 0 -1 forward_v I I I I #
face $-1 $64 $65 $23 $-1 $66 reversed single #
loop $-1 $-1 $67 $30 #
plane-surface $-1 -1.5256704345724863 -103.59176000675662 50.72071997978145 -1 0 0 0 -0.83867057594974714 0.54463902268945019 forward_v I I I I #
face $-1 $68 $69 $24 $-1 $70 forward single #
loop $-1 $71 $72 $31 #
cone-surface $-1 -10.568918421217496 -25.769394550336482 4.113693045851452 0 0.83867057594974714 -0.54463902268945019 1.5 0 0 1 I I 0 1 1.5 forward I I I I #
face $-1 $73 $74 $25 $-1 $75 forward single #
loop $-1 $76 $77 $32 #
cone-surface $-1 -5.1429696292304925 -25.769394550336482 4.113693045851452 0 0.83867057594974714 -0.54463902268945019 1.5 0 0 1 I I 0 1 1.5 forward I I I I #
face $-1 $78 $79 $26 $-1 $80 reversed single #
loop $-1 $-1 $81 $33 #
plane-surface $-1 -35.645516315991912 44.429875550200094 105.35882826049281 1 0 0 0 -0.66913061440640931 -0.74314481823134659 forward_v I I I I #
face $-1 $82 $83 $27 $-1 $84 forward single #
loop $-1 $85 $86 $34 #
cone-surface $-1 -26.14311645805078 23.816361151311593 2.6585274053216073 0 -0.66913061440640931 -0.74314481823134659 2.5 0 0 1 I I 0 1 2.5 forward I I I I #
face $-1 $87 $88 $21 $-1 $89 reversed single #
loop $-1 $-1 $90 $35 #
plane-surface $-1 0 0 8.3065840281316987 0 0 1 1 0 0 forward_v I I I I #
coedge $-1 $91 $92 $93 $94 reversed $36 $-1 #
face $-1 $95 $96 $22 $-1 $97 reversed single #
loop $-1 $-1 $98 $38 #
plane-surface $-1 0 0 -8.3065840281316987 0 0 1 1 0 0 forward_v I I I I #
coedge $-1 $99 $100 $101 $102 forward $39 $-1 #
face $-1 $103 $104 $23 $-1 $105 reversed single #
loop $-1 $-1 $106 $41 #
plane-surface $-1 -7.8559440252239909 -29.763563866874222 2.7761303570736899 0 -0.83867057594974714 0.54463902268945019 1 0 0 forward_v I I I I #
coedge $-1 $107 $108 $109 $110 reversed $42 $-1 #
face $-1 $-1 $111 $24 $-1 $112 forward single #
loop $-1 $113 $114 $44 #
cone-surface $-1 -10.568918421217496 -22.941981547964318 2.2775496320831223 0 0.83867057594974714 -0.54463902268945019 0.75 0 0 1 I I -0.70710678118654757 0.70710678118654757 0.75 forward I I I I #
loop $-1 $-1 $115 $31 #
coedge $-1 $72 $72 $116 $117 reversed $45 $-1 #
face $-1 $-1 $118 $25 $-1 $119 forward single #
loop $-1 $120 $121 $47 #
cone-surface $-1 -5.1429696292304925 -22.941981547964318 2.2775496320831223 0 0.83867057594974714 -0.54463902268945019 0.75 0 0 1 I I -0.70710678118654757 0.70710678118654757 0.75 forward I I I I #
loop $-1 $-1 $122 $32 #
coedge $-1 $77 $77 $123 $124 reversed $48 $-1 #
face $-1 $125 $126 $26 $-1 $127 reversed single #
loop $-1 $-1 $128 $50 #
plane-surface $-1 -26.14311645805078 -14.473712652656424 39.939767458711913 0 0.66913061440640931 0.74314481823134659 1 0 0 forward_v I I I I #
coedge $-1 $129 $130 $131 $132 reversed $51 $-1 #
face $-1 $-1 $133 $27 $-1 $134 forward single #
loop $-1 $135 $136 $53 #
cone-surface $-1 -26.14311645805078 21.58527910910534 0.18065982159817295 0 -0.66913061440640931 -0.74314481823134659 1.25 0 0 1 I I -0.70710678118654746 0.70710678118654746 1.25 forward I I I I #
loop $-1 $-1 $137 $34 #
coedge $-1 $86 $86 $138 $139 reversed $54 $-1 #
face $-1 $140 $141 $21 $-1 $142 reversed single #
loop $-1 $-1 $143 $56 #
plane-surface $-1 0 0 -8.3065840281316987 0 0 1 1 0 0 forward_v I I I I #
coedge $-1 $144 $145 $146 $147 forward $57 $-1 #
coedge $-1 $148 $59 $149 $150 reversed $36 $-1 #
coedge $-1 $59 $148 $151 $152 forward $36 $-1 #
coedge $-1 $153 $154 $59 $94 forward $88 $-1 #
edge $-1 $155 -29.763563866874218 $156 29.763563866874218 $59 $157 forward 7 unknown #
face $-1 $158 $159 $22 $-1 $160 reversed single #
loop $-1 $-1 $161 $60 #
plane-surface $-1 -48.199764501997329 -17.772747318290737 0 0 1 0 0 0 1 forward_v I I I I #
coedge $-1 $162 $163 $100 $164 forward $61 $-1 #
coedge $-1 $165 $63 $166 $167 reversed $39 $-1 #
coedge $-1 $63 $165 $98 $164 reversed $39 $-1 #
coedge $-1 $168 $169 $63 $102 reversed $170 $-1 #
edge $-1 $171 -8.3065840281316987 $172 8.3065840281316987 $101 $173 forward 7 unknown #
face $-1 $174 $175 $23 $-1 $176 forward single #
loop $-1 $-1 $177 $64 #
plane-surface $-1 -14.186217615875496 -103.59176000675662 50.72071997978145 1 0 0 0 0.83867057594974714 -0.54463902268945019 forward_v I I I I #
coedge $-1 $178 $179 $180 $181 reversed $65 $-1 #
coedge $-1 $108 $67 $182 $183 reversed $42 $-1 #
coedge $-1 $67 $107 $178 $184 reversed $42 $-1 #
coedge $-1 $180 $185 $67 $110 forward $175 $-1 #
edge $-1 $186 22.03231613650409 $187 25.623834628759859 $109 $188 forward 7 unknown #
loop $-1 $-1 $116 $68 #
plane-surface $-1 -7.8559440252239909 -29.763563866874222 2.7761303570736899 0 -0.83867057594974714 0.54463902268945019 1 0 0 forward_v I I I I #
loop $-1 $-1 $189 $44 #
coedge $-1 $114 $114 $115 $190 reversed $69 $-1 #
coedge $-1 $115 $115 $114 $190 forward $71 $-1 #
coedge $-1 $116 $116 $72 $117 forward $111 $-1 #
edge $-1 $191 -4.9659273786402691e-016 $191 6.2831853071795996 $116 $192 forward 7 unknown #
loop $-1 $-1 $123 $73 #
plane-surface $-1 -7.8559440252239909 -29.763563866874222 2.7761303570736899 0 -0.83867057594974714 0.54463902268945019 1 0 0 forward_v I I I I #
loop $-1 $-1 $193 $47 #
coedge $-1 $121 $121 $122 $194 reversed $74 $-1 #
coedge $-1 $122 $122 $121 $194 forward $76 $-1 #
coedge $-1 $123 $123 $77 $124 forward $118 $-1 #
edge $-1 $195 -4.9659273786402691e-016 $195 6.2831853071795996 $123 $196 forward 7 unknown #
face $-1 $197 $198 $26 $-1 $199 reversed single #
loop $-1 $-1 $200 $78 #
plane-surface $-1 -16.640716600109652 44.429875550200094 105.35882826049281 -1 0 0 0 0.66913061440640931 0.74314481823134659 forward_v I I I I #
coedge $-1 $201 $202 $203 $204 reversed $79 $-1 #
coedge $-1 $130 $81 $205 $206 reversed $51 $-1 #
coedge $-1 $81 $129 $201 $207 reversed $51 $-1 #
coedge $-1 $203 $208 $81 $132 forward $209 $-1 #
edge $-1 $210 -7.548626091774171 $211 1.5564417909546222 $131 $212 forward 7 unknown #
loop $-1 $-1 $138 $82 #
plane-surface $-1 -26.14311645805078 -14.473712652656424 39.939767458711913 0 0.66913061440640931 0.74314481823134659 1 0 0 forward_v I I I I #
loop $-1 $-1 $213 $53 #
coedge $-1 $136 $136 $137 $214 reversed $83 $-1 #
coedge $-1 $137 $137 $136 $214 forward $85 $-1 #
coedge $-1 $138 $138 $86 $139 forward $133 $-1 #
edge $-1 $215 -7.4053077519882715e-016 $215 6.2831853071795996 $138 $216 forward 7 unknown #
face $-1 $217 $218 $21 $-1 $219 reversed single #
loop $-1 $-1 $149 $87 #
plane-surface $-1 0 -29.763563866874218 0 0 1 0 0 0 1 forward_v I I I I #
coedge $-1 $154 $153 $220 $221 forward $88 $-1 #
coedge $-1 $222 $90 $223 $224 forward $57 $-1 #
coedge $-1 $90 $222 $225 $226 forward $57 $-1 #
coedge $-1 $227 $228 $90 $147 reversed $229 $-1 #
edge $-1 $230 -29.763563866874218 $231 29.763563866874218 $146 $232 forward 7 unknown #
coedge $-1 $92 $91 $222 $233 reversed $36 $-1 #
coedge $-1 $234 $225 $91 $150 forward $141 $-1 #
edge $-1 $235 -8.3065840281316987 $155 8.3065840281316987 $91 $236 forward 7 unknown #
coedge $-1 $223 $237 $92 $152 reversed $218 $-1 #
edge $-1 $238 -8.3065840281316987 $156 8.3065840281316987 $151 $239 forward 7 unknown #
coedge $-1 $143 $93 $237 $240 forward $88 $-1 #
coedge $-1 $93 $143 $234 $241 forward $88 $-1 #
vertex $-1 $94 $242 #
vertex $-1 $240 $243 #
straight-curve $-1 -44.01501510666219 0 -8.3065840281316987 0 1 0 I I #
face $-1 $244 $170 $22 $-1 $245 reversed single #
loop $-1 $-1 $246 $95 #
plane-surface $-1 -52.384513897332468 -15.461571564450779 0 1 0 0 0 0 -1 forward_v I I I I #
coedge $-1 $247 $248 $249 $250 forward $96 $-1 #
coedge $-1 $251 $98 $247 $252 forward $61 $-1 #
coedge $-1 $98 $251 $168 $253 forward $61 $-1 #
edge $-1 $171 13.150395810610821 $254 17.772747318290737 $98 $255 forward 7 unknown #
coedge $-1 $100 $99 $256 $257 forward $39 $-1 #
coedge $-1 $258 $259 $99 $167 forward $260 $-1 #
edge $-1 $261 -17.772747318290737 $172 -13.150395810610821 $166 $262 forward 7 unknown #
coedge $-1 $263 $101 $163 $253 reversed $170 $-1 #
coedge $-1 $101 $263 $258 $264 reversed $170 $-1 #
loop $-1 $-1 $101 $158 #
vertex $-1 $164 $265 #
vertex $-1 $264 $266 #
straight-curve $-1 -44.01501510666219 -13.150395810610821 0 0 0 1 I I #
face $-1 $-1 $267 $23 $-1 $268 reversed single #
loop $-1 $-1 $109 $103 #
plane-surface $-1 0 0 8.3065840281316987 0 0 1 1 0 0 forward_v I I I I #
coedge $-1 $269 $270 $271 $272 reversed $104 $-1 #
coedge $-1 $273 $106 $108 $184 forward $65 $-1 #
coedge $-1 $106 $273 $269 $274 forward $65 $-1 #
coedge $-1 $271 $109 $106 $181 forward $175 $-1 #
edge $-1 $187 -2.4023015780395092 $275 10.2582456032635 $180 $276 forward 7 unknown #
coedge $-1 $277 $278 $107 $183 forward $267 $-1 #
edge $-1 $279 -22.584229632817028 $186 -17.053775961759026 $182 $280 forward 7 unknown #
edge $-1 $187 -6.5943098871628854 $279 -6.4042811466935879e-015 $108 $281 forward 7 unknown #
coedge $-1 $109 $271 $277 $282 forward $175 $-1 #
vertex $-1 $110 $283 #
vertex $-1 $110 $284 #
straight-curve $-1 -1.5256704345724863 -51.795880003378308 8.3065840281316987 0 1 0 I I #
coedge $-1 $189 $189 $-1 $285 reversed $113 $-1 #
edge $-1 $286 0 $286 6.2831853071796004 $114 $287 forward 7 unknown #
vertex $-1 $117 $288 #
ellipse-curve $-1 -10.568918421217496 -27.967804620746335 5.5413571926026934 0 -0.83867057594974714 0.54463902268945019 1.5 0 0 1 I I #
coedge $-1 $193 $193 $-1 $289 reversed $120 $-1 #
edge $-1 $290 0 $290 6.2831853071796004 $121 $291 forward 7 unknown #
vertex $-1 $124 $292 #
ellipse-curve $-1 -5.1429696292304925 -27.967804620746335 5.5413571926026934 0 -0.83867057594974714 0.54463902268945019 1.5 0 0 1 I I #
face $-1 $-1 $209 $26 $-1 $293 forward single #
loop $-1 $-1 $294 $125 #
plane-surface $-1 0 29.763563866874218 0 0 -1 0 0 0 -1 forward_v I I I I #
coedge $-1 $295 $296 $297 $298 reversed $126 $-1 #
coedge $-1 $299 $128 $130 $207 forward $79 $-1 #
coedge $-1 $128 $299 $295 $300 forward $79 $-1 #
coedge $-1 $297 $131 $128 $204 forward $209 $-1 #
edge $-1 $211 -22.57395808696652 $301 -3.5691583710842618 $203 $302 forward 7 unknown #
coedge $-1 $303 $304 $129 $206 forward $198 $-1 #
edge $-1 $305 -52.5710702258664 $210 -44.372830102114705 $205 $306 forward 7 unknown #
edge $-1 $211 47.27505026599664 $305 59.527127733748443 $130 $307 forward 7 unknown #
coedge $-1 $131 $297 $303 $308 forward $209 $-1 #
loop $-1 $-1 $297 $197 #
vertex $-1 $206 $309 #
vertex $-1 $132 $310 #
straight-curve $-1 -35.645516315991912 22.214937775100047 8.3065840281316952 0 -1 0 I I #
coedge $-1 $213 $213 $-1 $311 reversed $135 $-1 #
edge $-1 $312 0 $312 6.2831853071796004 $136 $313 forward 7 unknown #
vertex $-1 $139 $314 #
ellipse-curve $-1 -26.14311645805078 25.211029925509823 4.2074639662558484 0 0.66913061440640931 0.74314481823134659 2.5 0 0 1 I I #
face $-1 $-1 $229 $21 $-1 $315 reversed single #
loop $-1 $-1 $316 $140 #
plane-surface $-1 0 29.763563866874218 0 0 -1 0 0 0 -1 forward_v I I I I #
coedge $-1 $228 $227 $143 $221 reversed $229 $-1 #
edge $-1 $317 -29.763563866874218 $318 29.763563866874218 $220 $319 forward 7 unknown #
coedge $-1 $145 $144 $148 $233 forward $57 $-1 #
coedge $-1 $316 $151 $144 $224 reversed $218 $-1 #
edge $-1 $231 -44.01501510666219 $238 44.01501510666219 $223 $320 forward 7 unknown #
coedge $-1 $149 $321 $145 $226 reversed $141 $-1 #
edge $-1 $235 -44.01501510666219 $230 44.01501510666219 $225 $322 forward 7 unknown #
coedge $-1 $220 $146 $321 $323 forward $229 $-1 #
coedge $-1 $146 $220 $316 $324 reversed $229 $-1 #
loop $-1 $-1 $227 $217 #
vertex $-1 $147 $325 #
vertex $-1 $147 $326 #
straight-curve $-1 44.01501510666219 0 8.3065840281316987 0 1 0 I I #
edge $-1 $238 -29.763563866874218 $235 29.763563866874218 $148 $327 forward 7 unknown #
coedge $-1 $321 $149 $154 $241 reversed $141 $-1 #
vertex $-1 $233 $328 #
straight-curve $-1 -44.01501510666219 -29.763563866874218 0 0 0 -1 I I #
coedge $-1 $151 $316 $153 $240 reversed $218 $-1 #
vertex $-1 $224 $329 #
straight-curve $-1 -44.01501510666219 29.763563866874218 0 0 0 -1 I I #
edge $-1 $156 -44.01501510666219 $317 44.01501510666219 $237 $330 forward 7 unknown #
edge $-1 $318 -44.01501510666219 $155 44.01501510666219 $234 $331 forward 7 unknown #
point $-1 -44.01501510666219 -29.763563866874218 -8.3065840281316987 #
point $-1 -44.01501510666219 29.763563866874218 -8.3065840281316987 #
face $-1 $-1 $260 $22 $-1 $332 forward single #
plane-surface $-1 -48.199764501997329 -13.150395810610821 0 0 -1 0 0 0 -1 forward_v I I I I #
coedge $-1 $333 $334 $263 $335 forward $159 $-1 #
coedge $-1 $256 $161 $162 $252 reversed $96 $-1 #
coedge $-1 $161 $256 $259 $336 reversed $96 $-1 #
coedge $-1 $334 $333 $161 $250 reversed $159 $-1 #
edge $-1 $337 -8.3065840281316987 $338 8.3065840281316987 $249 $339 forward 7 unknown #
coedge $-1 $163 $162 $333 $340 forward $61 $-1 #
edge $-1 $254 -4.1847493953351389 $338 4.1847493953351389 $247 $341 forward 7 unknown #
edge $-1 $342 -4.1847493953351389 $171 4.1847493953351389 $168 $343 forward 7 unknown #
vertex $-1 $252 $344 #
straight-curve $-1 -44.01501510666219 0 -8.3065840281316987 0 -1 0 I I #
coedge $-1 $248 $247 $165 $257 reversed $96 $-1 #
edge $-1 $261 -8.3065840281316987 $254 8.3065840281316987 $256 $345 forward 7 unknown #
coedge $-1 $346 $166 $169 $264 forward $260 $-1 #
coedge $-1 $166 $346 $248 $336 forward $260 $-1 #
loop $-1 $-1 $166 $244 #
vertex $-1 $167 $347 #
straight-curve $-1 -44.01501510666219 0 8.3065840281316987 0 1 0 I I #
coedge $-1 $169 $168 $246 $335 reversed $170 $-1 #
edge $-1 $172 -4.1847493953351389 $348 4.1847493953351389 $169 $349 forward 7 unknown #
point $-1 -44.01501510666219 -13.150395810610821 -8.3065840281316987 #
point $-1 -44.01501510666219 -13.150395810610821 8.3065840281316987 #
loop $-1 $-1 $182 $174 #
plane-surface $-1 0 -29.763563866874218 0 0 1 0 0 0 1 forward_v I I I I #
coedge $-1 $270 $177 $179 $274 reversed $104 $-1 #
coedge $-1 $177 $269 $350 $351 reversed $104 $-1 #
coedge $-1 $185 $180 $177 $272 forward $175 $-1 #
edge $-1 $275 -25.623834628759859 $352 -22.03231613650409 $271 $353 forward 7 unknown #
coedge $-1 $179 $178 $278 $354 reversed $65 $-1 #
edge $-1 $355 6.4042811466935879e-015 $275 6.5943098871628854 $269 $356 forward 7 unknown #
vertex $-1 $181 $357 #
straight-curve $-1 -3.9279720126119955 -26.172045374618449 8.3065840281316987 -1 0 0 I I #
coedge $-1 $350 $182 $185 $282 reversed $267 $-1 #
coedge $-1 $182 $350 $273 $354 forward $267 $-1 #
vertex $-1 $183 $358 #
straight-curve $-1 -1.5256704345724863 -29.763563866874222 25.360359989890725 0 0 1 I I #
straight-curve $-1 -1.5256704345724863 -29.763563866874222 2.7761303570736899 0 -0.54463902268945019 -0.83867057594974714 I I #
edge $-1 $352 -14.186217615875496 $186 -1.5256704345724863 $277 $359 forward 7 unknown #
point $-1 -1.5256704345724863 -29.763563866874218 8.3065840281316987 #
point $-1 -1.5256704345724863 -26.172045374618449 8.3065840281316987 #
edge $-1 $360 1 $360 0 $189 $-1 forward 7 unknown #
vertex $-1 $190 $361 #
ellipse-curve $-1 -10.568918421217496 -23.570984479926629 2.6860288991002101 0 -0.83867057594974714 0.54463902268945019 1.5 0 0 1 I I #
point $-1 -9.0689184212174965 -27.967804620746335 5.5413571926026925 #
edge $-1 $362 1 $362 0 $193 $-1 forward 7 unknown #
vertex $-1 $194 $363 #
ellipse-curve $-1 -5.1429696292304925 -23.570984479926629 2.6860288991002101 0 -0.83867057594974714 0.54463902268945019 1.5 0 0 1 I I #
point $-1 -3.6429696292304925 -27.967804620746335 5.5413571926026925 #
plane-surface $-1 0 0 8.3065840281316987 0 0 1 1 0 0 forward_v I I I I #
coedge $-1 $304 $303 $296 $364 forward $198 $-1 #
coedge $-1 $296 $200 $202 $300 reversed $126 $-1 #
coedge $-1 $200 $295 $294 $364 reversed $126 $-1 #
coedge $-1 $208 $203 $200 $298 forward $209 $-1 #
edge $-1 $301 -1.5564417909546222 $365 7.548626091774171 $297 $366 forward 7 unknown #
coedge $-1 $202 $201 $304 $367 reversed $79 $-1 #
edge $-1 $368 -59.527127733748443 $301 -47.27505026599664 $295 $369 forward 7 unknown #
vertex $-1 $204 $370 #
straight-curve $-1 -13.07155822902539 20.658495984145425 8.3065840281316987 1 0 0 I I #
coedge $-1 $294 $205 $208 $308 reversed $198 $-1 #
coedge $-1 $205 $294 $299 $367 forward $198 $-1 #
vertex $-1 $206 $371 #
straight-curve $-1 -35.645516315991912 29.763563866874218 52.679414130246407 0 0 1 I I #
straight-curve $-1 -35.645516315991912 -14.473712652656424 39.939767458711913 0 0.74314481823134659 -0.66913061440640931 I I #
edge $-1 $365 16.640716600109652 $210 35.645516315991912 $303 $372 forward 7 unknown #
point $-1 -35.645516315991912 29.763563866874218 8.3065840281316987 #
point $-1 -35.645516315991912 20.658495984145425 8.3065840281316987 #
edge $-1 $373 1 $373 0 $213 $-1 forward 7 unknown #
vertex $-1 $214 $374 #
ellipse-curve $-1 -26.14311645805078 22.421692377113352 1.1095908443873563 0 0.66913061440640931 0.74314481823134659 2.5 0 0 1 I I #
point $-1 -23.64311645805078 25.21102992550983 4.2074639662558591 #
plane-surface $-1 44.01501510666219 0 0 -1 0 0 0 0 1 forward_v I I I I #
coedge $-1 $237 $223 $228 $324 forward $218 $-1 #
vertex $-1 $221 $375 #
vertex $-1 $323 $376 #
straight-curve $-1 44.01501510666219 0 -8.3065840281316987 0 -1 0 I I #
straight-curve $-1 0 29.763563866874218 8.3065840281316987 -1 0 0 I I #
coedge $-1 $225 $234 $227 $323 reversed $141 $-1 #
straight-curve $-1 0 -29.763563866874218 8.3065840281316987 1 0 0 I I #
edge $-1 $230 -8.3065840281316987 $318 8.3065840281316987 $227 $377 forward 7 unknown #
edge $-1 $231 -8.3065840281316987 $317 8.3065840281316987 $228 $378 forward 7 unknown #
point $-1 44.01501510666219 -29.763563866874218 8.3065840281316987 #
point $-1 44.01501510666219 29.763563866874218 8.3065840281316987 #
straight-curve $-1 -44.01501510666219 0 8.3065840281316987 0 -1 0 I I #
point $-1 -44.01501510666219 -29.763563866874218 8.3065840281316987 #
point $-1 -44.01501510666219 29.763563866874218 8.3065840281316987 #
straight-curve $-1 0 29.763563866874218 -8.3065840281316987 1 0 0 I I #
straight-curve $-1 0 -29.763563866874218 -8.3065840281316987 -1 0 0 I I #
plane-surface $-1 0 0 8.3065840281316987 0 0 1 1 0 0 forward_v I I I I #
coedge $-1 $249 $246 $251 $340 reversed $159 $-1 #
coedge $-1 $246 $249 $346 $379 reversed $159 $-1 #
edge $-1 $348 -8.3065840281316987 $342 8.3065840281316987 $263 $380 forward 7 unknown #
edge $-1 $337 -4.1847493953351389 $261 4.1847493953351389 $248 $381 forward 7 unknown #
vertex $-1 $379 $382 #
vertex $-1 $340 $383 #
straight-curve $-1 -52.384513897332468 -17.772747318290737 0 0 0 -1 I I #
edge $-1 $338 -2.311175753839958 $342 2.311175753839958 $333 $384 forward 7 unknown #
straight-curve $-1 -48.199764501997329 -17.772747318290737 -8.3065840281316987 -1 0 0 I I #
vertex $-1 $253 $385 #
straight-curve $-1 -48.199764501997329 -13.150395810610821 -8.3065840281316987 1 0 0 I I #
point $-1 -44.01501510666219 -17.772747318290737 -8.3065840281316987 #
straight-curve $-1 -44.01501510666219 -17.772747318290737 0 0 0 -1 I I #
coedge $-1 $259 $258 $334 $379 forward $260 $-1 #
point $-1 -44.01501510666219 -17.772747318290737 8.3065840281316987 #
vertex $-1 $264 $386 #
straight-curve $-1 -48.199764501997329 -13.150395810610821 8.3065840281316987 -1 0 0 I I #
coedge $-1 $278 $277 $270 $351 forward $267 $-1 #
edge $-1 $352 17.053775961759026 $355 22.584229632817028 $350 $387 forward 7 unknown #
vertex $-1 $282 $388 #
straight-curve $-1 -14.186217615875496 -51.795880003378308 8.3065840281316987 0 -1 0 I I #
edge $-1 $355 -10.2582456032635 $279 2.4023015780395092 $278 $389 forward 7 unknown #
vertex $-1 $354 $390 #
straight-curve $-1 -14.186217615875496 -29.763563866874222 2.7761303570736899 0 0.54463902268945019 0.83867057594974714 I I #
point $-1 -14.186217615875496 -26.172045374618449 8.3065840281316987 #
point $-1 -1.5256704345724863 -29.763563866874218 2.7761303570736953 #
straight-curve $-1 0 -29.763563866874218 8.3065840281316987 1 0 0 I I #
vertex $-1 $285 $391 #
point $-1 -9.0689184212174965 -23.570984479926629 2.6860288991002101 #
vertex $-1 $289 $392 #
point $-1 -3.6429696292304925 -23.570984479926629 2.6860288991002101 #
edge $-1 $365 44.372830102114705 $368 52.5710702258664 $294 $393 forward 7 unknown #
vertex $-1 $308 $394 #
straight-curve $-1 -16.640716600109652 22.214937775100047 8.3065840281316952 0 1 0 I I #
edge $-1 $368 3.5691583710842618 $305 22.57395808696652 $304 $395 forward 7 unknown #
vertex $-1 $367 $396 #
straight-curve $-1 -16.640716600109652 -14.473712652656424 39.939767458711913 0 -0.74314481823134659 0.66913061440640931 I I #
point $-1 -16.640716600109652 20.658495984145425 8.3065840281316987 #
point $-1 -35.645516315991912 29.763563866874215 0.10834390438000696 #
straight-curve $-1 0 29.763563866874218 8.3065840281316987 -1 0 0 I I #
vertex $-1 $311 $397 #
point $-1 -23.64311645805078 22.421692377113352 1.1095908443873563 #
point $-1 44.01501510666219 29.763563866874218 -8.3065840281316987 #
point $-1 44.01501510666219 -29.763563866874218 -8.3065840281316987 #
straight-curve $-1 44.01501510666219 -29.763563866874218 0 0 0 -1 I I #
straight-curve $-1 44.01501510666219 29.763563866874218 0 0 0 -1 I I #
edge $-1 $348 -2.311175753839958 $337 2.311175753839958 $334 $398 forward 7 unknown #
straight-curve $-1 -52.384513897332468 -13.150395810610821 0 0 0 -1 I I #
straight-curve $-1 -48.199764501997329 -17.772747318290737 8.3065840281316987 1 0 0 I I #
point $-1 -52.384513897332468 -17.772747318290737 8.3065840281316987 #
point $-1 -52.384513897332468 -17.772747318290737 -8.3065840281316987 #
straight-curve $-1 -52.384513897332468 -15.461571564450779 -8.3065840281316987 0 1 0 I I #
point $-1 -52.384513897332468 -13.150395810610821 -8.3065840281316987 #
point $-1 -52.384513897332468 -13.150395810610821 8.3065840281316987 #
straight-curve $-1 -14.186217615875496 -29.763563866874222 25.360359989890725 0 0 -1 I I #
point $-1 -14.186217615875496 -29.763563866874218 8.3065840281316987 #
straight-curve $-1 -3.9279720126119955 -29.763563866874218 2.7761303570736953 1 0 0 I I #
point $-1 -14.186217615875496 -29.763563866874218 2.7761303570736953 #
point $-1 -10.568918421217496 -22.312978616002006 1.8690703650660347 #
point $-1 -5.1429696292304925 -22.312978616002006 1.8690703650660347 #
straight-curve $-1 -16.640716600109652 29.763563866874218 52.679414130246407 0 0 -1 I I #
point $-1 -16.640716600109652 29.763563866874218 8.3065840281316987 #
straight-curve $-1 -13.07155822902539 29.763563866874215 0.10834390438000696 -1 0 0 I I #
point $-1 -16.640716600109652 29.763563866874215 0.10834390438000696 #
point $-1 -26.14311645805078 20.748865841097327 -0.74827120119101032 #
straight-curve $-1 -52.384513897332468 -15.461571564450779 8.3065840281316987 0 -1 0 I I #
End-of-ACIS-data 