500 0 9 0           
7 Unknown 11 ACIS 5.0 NT 24 Thu Mar 25 16:20:34 1999 
-1 9.9999999999999995e-007 1e-010 
body $-1 $9 $-1 $10 #
body $-1 $11 $-1 $12 #
body $-1 $13 $-1 $14 #
body $-1 $15 $-1 $16 #
body $-1 $17 $-1 $18 #
body $-1 $19 $-1 $20 #
body $-1 $21 $-1 $22 #
body $-1 $23 $-1 $24 #
body $-1 $25 $-1 $26 #
lump $-1 $-1 $27 $0 #
transform $-1 1 0 0 0 1 0 0 0 1 72.999053926206244 31.031559863384487 10.044936857294237 1 rotate no_reflect no_shear #
lump $-1 $-1 $28 $1 #
transform $-1 1 0 0 0 1 0 0 0 1 72.999053926206244 31.031559863384487 10.044936857294237 1 rotate no_reflect no_shear #
lump $-1 $-1 $29 $2 #
transform $-1 1 0 0 0 1 0 0 0 1 72.999053926206244 31.031559863384487 10.044936857294237 1 rotate no_reflect no_shear #
lump $-1 $-1 $30 $3 #
transform $-1 1 0 0 0 1 0 0 0 1 72.999053926206244 31.031559863384487 10.044936857294237 1 rotate no_reflect no_shear #
lump $-1 $-1 $31 $4 #
transform $-1 1 0 0 0 1 0 0 0 1 72.999053926206244 31.031559863384487 10.044936857294237 1 rotate no_reflect no_shear #
lump $-1 $-1 $32 $5 #
transform $-1 1 0 0 0 1 0 0 0 1 72.999053926206244 31.031559863384487 10.044936857294237 1 rotate no_reflect no_shear #
lump $-1 $-1 $33 $6 #
transform $-1 1 0 0 0 1 0 0 0 1 72.999053926206244 31.031559863384487 10.044936857294237 1 rotate no_reflect no_shear #
lump $-1 $-1 $34 $7 #
transform $-1 1 0 0 0 1 0 0 0 1 72.999053926206244 31.031559863384487 10.044936857294237 1 rotate no_reflect no_shear #
lump $-1 $-1 $35 $8 #
transform $-1 1 0 0 0 1 0 0 0 1 72.999053926206244 31.031559863384487 10.044936857294237 1 rotate no_reflect no_shear #
shell $-1 $-1 $-1 $36 $-1 $9 #
shell $-1 $-1 $-1 $37 $-1 $11 #
shell $-1 $-1 $-1 $38 $-1 $13 #
shell $-1 $-1 $-1 $39 $-1 $15 #
shell $-1 $-1 $-1 $40 $-1 $17 #
shell $-1 $-1 $-1 $41 $-1 $19 #
shell $-1 $-1 $-1 $42 $-1 $21 #
shell $-1 $-1 $-1 $43 $-1 $23 #
shell $-1 $-1 $-1 $44 $-1 $25 #
face $-1 $45 $46 $27 $-1 $47 forward single #
face $-1 $48 $49 $28 $-1 $50 reversed single #
face $-1 $51 $52 $29 $-1 $53 reversed single #
face $-1 $54 $55 $30 $-1 $56 reversed single #
face $-1 $57 $58 $31 $-1 $59 forward single #
face $-1 $60 $61 $32 $-1 $62 forward single #
face $-1 $63 $64 $33 $-1 $65 reversed single #
face $-1 $66 $67 $34 $-1 $68 forward single #
face $-1 $69 $70 $35 $-1 $71 forward single #
face $-1 $72 $73 $27 $-1 $74 reversed single #
loop $-1 $-1 $75 $36 #
plane-surface $-1 0 0 10.044936857294237 0 0 1 1 0 0 forward_v I I I I #
face $-1 $76 $77 $28 $-1 $78 reversed single #
loop $-1 $-1 $79 $37 #
plane-surface $-1 -67.011582420245389 0 4.8194360582566045 0 0 1 1 0 0 forward_v I I I I #
face $-1 $80 $81 $29 $-1 $82 reversed single #
loop $-1 $-1 $83 $38 #
plane-surface $-1 67.011582420245389 0 4.8194360582566045 0 0 1 1 0 0 forward_v I I I I #
face $-1 $84 $85 $30 $-1 $86 reversed single #
loop $-1 $-1 $87 $39 #
plane-surface $-1 43.872335084709874 -106.22614527246751 127.66160479545573 -1 0 0 0 -0.51503808176128008 0.85716729658548041 forward_v I I I I #
face $-1 $88 $89 $31 $-1 $90 forward single #
loop $-1 $91 $92 $40 #
cone-surface $-1 30.934486074378299 -23.112837881594611 3.5277158817738705 0 0.51503808176128008 -0.85716729658548041 2.5 0 0 1 I I 0 1 2.5 forward I I I I #
face $-1 $93 $94 $32 $-1 $95 forward single #
loop $-1 $96 $97 $41 #
cone-surface $-1 38.69719548057725 -23.112837881594611 3.5277158817738705 0 0.51503808176128008 -0.85716729658548041 2.5 0 0 1 I I 0 1 2.5 forward I I I I #
face $-1 $98 $99 $33 $-1 $100 reversed single #
loop $-1 $-1 $101 $42 #
plane-surface $-1 25.759346470245674 53.027668718611935 159.62647492765149 1 0 0 0 -0.51503808176128008 -0.85716729658548041 forward_v I I I I #
face $-1 $102 $103 $34 $-1 $104 forward single #
loop $-1 $105 $106 $43 #
cone-surface $-1 30.934486074378299 23.112837881594611 3.5277158817738723 0 -0.51503808176128008 -0.85716729658548041 2.5 0 0 1 I I 0 1 2.5 forward I I I I #
face $-1 $107 $108 $35 $-1 $109 forward single #
loop $-1 $110 $111 $44 #
cone-surface $-1 38.69719548057725 23.112837881594611 3.5277158817738723 0 -0.51503808176128008 -0.85716729658548041 2.5 0 0 1 I I 0 1 2.5 forward I I I I #
face $-1 $112 $113 $27 $-1 $114 reversed single #
loop $-1 $-1 $115 $45 #
plane-surface $-1 0 0 -10.044936857294237 0 0 1 1 0 0 forward_v I I I I #
coedge $-1 $116 $117 $118 $119 forward $46 $-1 #
face $-1 $120 $121 $28 $-1 $122 reversed single #
loop $-1 $-1 $123 $48 #
plane-surface $-1 -61.024110914284527 0 7.4321864577754209 -1 0 0 0 0 1 forward_v I I I I #
coedge $-1 $124 $125 $126 $127 forward $49 $-1 #
face $-1 $128 $129 $29 $-1 $130 forward single #
loop $-1 $-1 $131 $51 #
plane-surface $-1 61.024110914284535 0 7.4321864577754209 1 0 0 0 0 -1 forward_v I I I I #
coedge $-1 $132 $133 $134 $135 reversed $52 $-1 #
face $-1 $136 $137 $30 $-1 $138 reversed single #
loop $-1 $-1 $139 $54 #
plane-surface $-1 34.815840777477774 -31.031559863384501 2.5168013810079231 0 -0.51503808176128008 0.85716729658548041 1 0 0 forward_v I I I I #
coedge $-1 $140 $141 $142 $143 reversed $55 $-1 #
face $-1 $-1 $144 $31 $-1 $145 forward single #
loop $-1 $146 $147 $57 #
cone-surface $-1 30.934486074378299 -20.814778890954464 -0.2968964763351849 0 0.51503808176128008 -0.85716729658548041 1.25 0 0 1 I I -0.70710678118654757 0.70710678118654735 1.25 forward I I I I #
loop $-1 $-1 $148 $40 #
coedge $-1 $92 $92 $149 $150 reversed $58 $-1 #
face $-1 $-1 $151 $32 $-1 $152 forward single #
loop $-1 $153 $154 $60 #
cone-surface $-1 38.69719548057725 -20.814778890954464 -0.2968964763351849 0 0.51503808176128008 -0.85716729658548041 1.25 0 0 1 I I -0.70710678118654757 0.70710678118654735 1.25 forward I I I I #
loop $-1 $-1 $155 $41 #
coedge $-1 $97 $97 $156 $157 reversed $61 $-1 #
face $-1 $158 $159 $33 $-1 $160 reversed single #
loop $-1 $-1 $161 $63 #
plane-surface $-1 34.815840777477774 -22.166916690471069 34.481671513203679 0 0.51503808176128008 0.85716729658548041 1 0 0 forward_v I I I I #
coedge $-1 $162 $163 $164 $165 reversed $64 $-1 #
face $-1 $-1 $166 $34 $-1 $167 forward single #
loop $-1 $168 $169 $66 #
cone-surface $-1 30.934486074378299 20.814778890954464 -0.29689647633518312 0 -0.51503808176128008 -0.85716729658548041 1.25 0 0 1 I I -0.70710678118654757 0.70710678118654735 1.25 forward I I I I #
loop $-1 $-1 $170 $43 #
coedge $-1 $106 $106 $171 $172 reversed $67 $-1 #
face $-1 $-1 $173 $35 $-1 $174 forward single #
loop $-1 $175 $176 $69 #
cone-surface $-1 38.69719548057725 20.814778890954464 -0.29689647633518312 0 -0.51503808176128008 -0.85716729658548041 1.25 0 0 1 I I -0.70710678118654757 0.70710678118654735 1.25 forward I I I I #
loop $-1 $-1 $177 $44 #
coedge $-1 $111 $111 $178 $179 reversed $70 $-1 #
face $-1 $180 $181 $27 $-1 $182 reversed single #
loop $-1 $-1 $183 $72 #
plane-surface $-1 0 -31.031559863384487 0 0 1 0 0 0 1 forward_v I I I I #
coedge $-1 $184 $185 $186 $187 forward $73 $-1 #
coedge $-1 $188 $75 $189 $190 forward $46 $-1 #
coedge $-1 $75 $188 $191 $192 forward $46 $-1 #
coedge $-1 $193 $194 $75 $119 reversed $195 $-1 #
edge $-1 $196 -31.031559863384487 $197 31.031559863384487 $118 $198 forward 7 unknown #
face $-1 $199 $200 $28 $-1 $201 reversed single #
loop $-1 $-1 $202 $76 #
plane-surface $-1 0 31.031559863384487 0 0 -1 0 0 0 -1 forward_v I I I I #
coedge $-1 $126 $203 $204 $205 reversed $77 $-1 #
coedge $-1 $206 $79 $207 $208 reversed $49 $-1 #
coedge $-1 $79 $206 $209 $210 reversed $49 $-1 #
coedge $-1 $211 $123 $79 $127 reversed $77 $-1 #
edge $-1 $212 -31.031559863384487 $213 31.031559863384487 $126 $214 forward 7 unknown #
face $-1 $215 $216 $29 $-1 $217 reversed single #
loop $-1 $-1 $218 $80 #
plane-surface $-1 0 0 10.044936857294237 0 0 1 1 0 0 forward_v I I I I #
coedge $-1 $219 $220 $221 $222 reversed $81 $-1 #
coedge $-1 $223 $83 $224 $225 reversed $52 $-1 #
coedge $-1 $83 $223 $226 $227 reversed $52 $-1 #
coedge $-1 $228 $229 $83 $135 forward $230 $-1 #
edge $-1 $231 -31.031559863384487 $232 31.031559863384487 $134 $233 forward 7 unknown #
face $-1 $234 $235 $30 $-1 $236 forward single #
loop $-1 $-1 $237 $84 #
plane-surface $-1 25.759346470245674 -106.22614527246751 127.66160479545573 1 0 0 0 0.51503808176128008 -0.85716729658548041 forward_v I I I I #
coedge $-1 $238 $239 $240 $241 reversed $85 $-1 #
coedge $-1 $141 $87 $242 $243 reversed $55 $-1 #
coedge $-1 $87 $140 $238 $244 reversed $55 $-1 #
coedge $-1 $240 $245 $87 $143 forward $235 $-1 #
edge $-1 $246 22.081512772849266 $247 34.610433959551891 $142 $248 forward 7 unknown #
loop $-1 $-1 $149 $88 #
plane-surface $-1 34.815840777477774 -31.031559863384501 2.5168013810079231 0 -0.51503808176128008 0.85716729658548041 1 0 0 forward_v I I I I #
loop $-1 $-1 $249 $57 #
coedge $-1 $147 $147 $148 $250 reversed $89 $-1 #
coedge $-1 $148 $148 $147 $250 forward $91 $-1 #
coedge $-1 $149 $149 $92 $150 forward $144 $-1 #
edge $-1 $251 -3.0845827358496009e-016 $251 6.2831853071796004 $149 $252 forward 7 unknown #
loop $-1 $-1 $156 $93 #
plane-surface $-1 34.815840777477774 -31.031559863384501 2.5168013810079231 0 -0.51503808176128008 0.85716729658548041 1 0 0 forward_v I I I I #
loop $-1 $-1 $253 $60 #
coedge $-1 $154 $154 $155 $254 reversed $94 $-1 #
coedge $-1 $155 $155 $154 $254 forward $96 $-1 #
coedge $-1 $156 $156 $97 $157 forward $151 $-1 #
edge $-1 $255 -3.0845827358496009e-016 $255 6.2831853071796004 $156 $256 forward 7 unknown #
face $-1 $257 $258 $33 $-1 $259 reversed single #
loop $-1 $-1 $260 $98 #
plane-surface $-1 43.872335084709874 53.027668718611935 159.62647492765149 -1 0 0 0 0.51503808176128008 0.85716729658548041 forward_v I I I I #
coedge $-1 $261 $262 $263 $264 reversed $99 $-1 #
coedge $-1 $163 $101 $265 $266 reversed $64 $-1 #
coedge $-1 $101 $162 $261 $267 reversed $64 $-1 #
coedge $-1 $263 $268 $101 $165 forward $269 $-1 #
edge $-1 $270 -4.5177255040785198 $271 8.0111956826241126 $164 $272 forward 7 unknown #
loop $-1 $-1 $171 $102 #
plane-surface $-1 34.815840777477774 -22.166916690471069 34.481671513203679 0 0.51503808176128008 0.85716729658548041 1 0 0 forward_v I I I I #
loop $-1 $-1 $273 $66 #
coedge $-1 $169 $169 $170 $274 reversed $103 $-1 #
coedge $-1 $170 $170 $169 $274 forward $105 $-1 #
coedge $-1 $171 $171 $106 $172 forward $166 $-1 #
edge $-1 $275 4.2869656251895058e-016 $275 6.2831853071796004 $171 $276 forward 7 unknown #
loop $-1 $-1 $178 $107 #
plane-surface $-1 34.815840777477774 -22.166916690471069 34.481671513203679 0 0.51503808176128008 0.85716729658548041 1 0 0 forward_v I I I I #
loop $-1 $-1 $277 $69 #
coedge $-1 $176 $176 $177 $278 reversed $108 $-1 #
coedge $-1 $177 $177 $176 $278 forward $110 $-1 #
coedge $-1 $178 $178 $111 $179 forward $173 $-1 #
edge $-1 $279 4.2869656251895058e-016 $279 6.2831853071796004 $178 $280 forward 7 unknown #
face $-1 $281 $282 $27 $-1 $283 reversed single #
loop $-1 $-1 $284 $112 #
plane-surface $-1 -72.999053926206244 0 0 1 0 0 0 0 -1 forward_v I I I I #
coedge $-1 $285 $191 $286 $287 forward $113 $-1 #
coedge $-1 $288 $115 $285 $289 forward $73 $-1 #
coedge $-1 $115 $288 $290 $291 forward $73 $-1 #
coedge $-1 $194 $193 $115 $187 reversed $195 $-1 #
edge $-1 $292 -31.031559863384487 $293 31.031559863384487 $186 $294 forward 7 unknown #
coedge $-1 $117 $116 $295 $296 forward $46 $-1 #
coedge $-1 $297 $298 $116 $190 reversed $282 $-1 #
edge $-1 $197 -72.999053926206244 $299 72.999053926206244 $189 $300 forward 7 unknown #
coedge $-1 $183 $301 $117 $192 reversed $113 $-1 #
edge $-1 $302 -72.999053926206244 $196 72.999053926206244 $191 $303 forward 7 unknown #
coedge $-1 $186 $118 $301 $304 forward $195 $-1 #
coedge $-1 $118 $186 $297 $305 reversed $195 $-1 #
loop $-1 $-1 $193 $281 #
vertex $-1 $119 $306 #
vertex $-1 $119 $307 #
straight-curve $-1 72.999053926206244 0 10.044936857294237 0 1 0 I I #
face $-1 $308 $309 $28 $-1 $310 forward single #
loop $-1 $-1 $311 $120 #
plane-surface $-1 -72.999053926206244 0 0 1 0 0 0 0 -1 forward_v I I I I #
coedge $-1 $209 $312 $211 $313 forward $121 $-1 #
coedge $-1 $123 $211 $314 $315 reversed $77 $-1 #
coedge $-1 $316 $207 $123 $205 forward $317 $-1 #
edge $-1 $213 1.1033428293688941 $318 6.3288436284065268 $204 $319 forward 7 unknown #
coedge $-1 $125 $124 $311 $320 reversed $49 $-1 #
coedge $-1 $204 $321 $124 $208 forward $317 $-1 #
edge $-1 $322 -39.493262716083549 $213 -27.518319704161833 $207 $323 forward 7 unknown #
coedge $-1 $324 $202 $125 $210 forward $121 $-1 #
edge $-1 $212 27.518319704161833 $325 39.493262716083549 $209 $326 forward 7 unknown #
coedge $-1 $203 $126 $202 $313 reversed $77 $-1 #
vertex $-1 $210 $327 #
vertex $-1 $208 $328 #
straight-curve $-1 -61.024110914284527 0 4.8194360582566045 0 -1 0 I I #
face $-1 $329 $330 $29 $-1 $331 reversed single #
loop $-1 $-1 $332 $128 #
plane-surface $-1 0 -31.031559863384487 0 0 1 0 0 0 1 forward_v I I I I #
coedge $-1 $333 $334 $220 $335 forward $129 $-1 #
coedge $-1 $336 $131 $223 $337 reversed $81 $-1 #
coedge $-1 $131 $336 $218 $335 reversed $81 $-1 #
coedge $-1 $338 $226 $131 $222 forward $330 $-1 #
edge $-1 $339 1.1033428293688941 $340 6.3288436284065268 $221 $341 forward 7 unknown #
coedge $-1 $133 $132 $219 $337 forward $52 $-1 #
coedge $-1 $342 $332 $132 $225 forward $216 $-1 #
edge $-1 $343 27.51831970416184 $231 39.493262716083549 $224 $344 forward 7 unknown #
coedge $-1 $221 $345 $133 $227 forward $330 $-1 #
edge $-1 $232 -39.493262716083549 $339 -27.51831970416184 $226 $346 forward 7 unknown #
coedge $-1 $347 $134 $345 $348 reversed $230 $-1 #
coedge $-1 $134 $347 $342 $349 forward $230 $-1 #
loop $-1 $-1 $134 $329 #
vertex $-1 $225 $350 #
vertex $-1 $135 $351 #
straight-curve $-1 72.999053926206244 0 4.8194360582566045 0 1 0 I I #
face $-1 $-1 $352 $30 $-1 $353 reversed single #
loop $-1 $-1 $142 $136 #
plane-surface $-1 0 0 10.044936857294237 0 0 1 1 0 0 forward_v I I I I #
coedge $-1 $354 $355 $356 $357 reversed $137 $-1 #
coedge $-1 $358 $139 $141 $244 forward $85 $-1 #
coedge $-1 $139 $358 $354 $359 forward $85 $-1 #
coedge $-1 $356 $142 $139 $241 forward $235 $-1 #
edge $-1 $247 -26.464414695970987 $360 -8.3514260815067871 $240 $361 forward 7 unknown #
coedge $-1 $362 $363 $140 $243 forward $352 $-1 #
edge $-1 $364 -61.314001016719935 $246 -53.785865540433626 $242 $365 forward 7 unknown #
edge $-1 $247 -14.616657957683994 $364 -1.6526814159067847e-014 $141 $366 forward 7 unknown #
coedge $-1 $142 $356 $362 $367 forward $235 $-1 #
vertex $-1 $243 $368 #
vertex $-1 $143 $369 #
straight-curve $-1 43.872335084709874 -53.113072636233753 10.044936857294239 0 1 0 I I #
coedge $-1 $249 $249 $-1 $370 reversed $146 $-1 #
edge $-1 $371 0 $371 6.2831853071796004 $147 $372 forward 7 unknown #
vertex $-1 $150 $373 #
ellipse-curve $-1 30.934486074378299 -24.767099270033167 6.2808691191510881 0 -0.51503808176128008 0.85716729658548041 2.5 0 0 1 I I #
coedge $-1 $253 $253 $-1 $374 reversed $153 $-1 #
edge $-1 $375 0 $375 6.2831853071796004 $154 $376 forward 7 unknown #
vertex $-1 $157 $377 #
ellipse-curve $-1 38.69719548057725 -24.767099270033167 6.2808691191510881 0 -0.51503808176128008 0.85716729658548041 2.5 0 0 1 I I #
face $-1 $-1 $269 $33 $-1 $378 forward single #
loop $-1 $-1 $379 $158 #
plane-surface $-1 0 31.031559863384487 0 0 -1 0 0 0 -1 forward_v I I I I #
coedge $-1 $380 $381 $382 $383 reversed $159 $-1 #
coedge $-1 $384 $161 $163 $267 forward $99 $-1 #
coedge $-1 $161 $384 $380 $385 forward $99 $-1 #
coedge $-1 $382 $164 $161 $264 forward $269 $-1 #
edge $-1 $271 8.3514260815067871 $386 26.464414695970987 $263 $387 forward 7 unknown #
coedge $-1 $388 $389 $162 $266 forward $258 $-1 #
edge $-1 $390 -77.29643608281782 $270 -69.768300606531511 $265 $391 forward 7 unknown #
edge $-1 $271 47.446461769084983 $390 62.06311972676896 $163 $392 forward 7 unknown #
coedge $-1 $164 $382 $388 $393 forward $269 $-1 #
loop $-1 $-1 $382 $257 #
vertex $-1 $266 $394 #
vertex $-1 $165 $395 #
straight-curve $-1 25.759346470245674 26.513834359305967 10.044936857294232 0 -1 0 I I #
coedge $-1 $273 $273 $-1 $396 reversed $168 $-1 #
edge $-1 $397 0 $397 6.2831853071796004 $169 $398 forward 7 unknown #
vertex $-1 $172 $399 #
ellipse-curve $-1 30.934486074378299 24.767099270033164 6.2808691191510846 0 0.51503808176128008 0.85716729658548041 2.5 0 0 1 I I #
coedge $-1 $277 $277 $-1 $400 reversed $175 $-1 #
edge $-1 $401 0 $401 6.2831853071796004 $176 $402 forward 7 unknown #
vertex $-1 $179 $403 #
ellipse-curve $-1 38.69719548057725 24.767099270033164 6.2808691191510846 0 0.51503808176128008 0.85716729658548041 2.5 0 0 1 I I #
face $-1 $-1 $195 $27 $-1 $404 reversed single #
loop $-1 $-1 $297 $180 #
plane-surface $-1 0 31.031559863384487 0 0 -1 0 0 0 -1 forward_v I I I I #
coedge $-1 $405 $295 $298 $406 forward $181 $-1 #
coedge $-1 $301 $183 $184 $289 reversed $113 $-1 #
coedge $-1 $295 $405 $183 $287 reversed $181 $-1 #
edge $-1 $302 -10.044936857294237 $407 10.044936857294237 $286 $408 forward 7 unknown #
coedge $-1 $185 $184 $405 $409 forward $73 $-1 #
edge $-1 $293 -72.999053926206244 $407 72.999053926206244 $285 $410 forward 7 unknown #
coedge $-1 $298 $297 $185 $291 reversed $282 $-1 #
edge $-1 $411 -72.999053926206244 $292 72.999053926206244 $290 $412 forward 7 unknown #
vertex $-1 $187 $413 #
vertex $-1 $304 $414 #
straight-curve $-1 72.999053926206244 0 -10.044936857294237 0 -1 0 I I #
coedge $-1 $284 $286 $188 $296 reversed $181 $-1 #
edge $-1 $299 -31.031559863384487 $302 31.031559863384487 $295 $415 forward 7 unknown #
coedge $-1 $290 $189 $194 $305 forward $282 $-1 #
coedge $-1 $189 $290 $284 $406 reversed $282 $-1 #
vertex $-1 $190 $416 #
straight-curve $-1 0 31.031559863384487 10.044936857294237 -1 0 0 I I #
coedge $-1 $191 $285 $193 $304 reversed $113 $-1 #
vertex $-1 $296 $417 #
straight-curve $-1 0 -31.031559863384487 10.044936857294237 1 0 0 I I #
edge $-1 $196 -10.044936857294237 $293 10.044936857294237 $193 $418 forward 7 unknown #
edge $-1 $197 -10.044936857294237 $292 10.044936857294237 $194 $419 forward 7 unknown #
point $-1 72.999053926206244 -31.031559863384487 10.044936857294237 #
point $-1 72.999053926206244 31.031559863384487 10.044936857294237 #
face $-1 $-1 $317 $28 $-1 $420 reversed single #
loop $-1 $-1 $314 $199 #
plane-surface $-1 0 0 10.044936857294237 0 0 1 1 0 0 forward_v I I I I #
coedge $-1 $421 $422 $206 $320 forward $200 $-1 #
coedge $-1 $202 $324 $423 $424 reversed $121 $-1 #
edge $-1 $425 -6.3288436284065268 $212 -1.1033428293688941 $202 $426 forward 7 unknown #
coedge $-1 $423 $427 $203 $315 forward $309 $-1 #
edge $-1 $318 -31.031559863384487 $425 31.031559863384487 $314 $428 forward 7 unknown #
coedge $-1 $321 $204 $427 $429 reversed $317 $-1 #
loop $-1 $-1 $204 $308 #
vertex $-1 $205 $430 #
straight-curve $-1 -61.024110914284527 -31.031559863384487 3.7160932288877104 0 0 1 I I #
edge $-1 $325 -31.031559863384487 $322 31.031559863384487 $311 $431 forward 7 unknown #
coedge $-1 $207 $316 $421 $432 forward $317 $-1 #
vertex $-1 $320 $433 #
straight-curve $-1 -33.505791210122695 -31.031559863384487 4.8194360582566045 1 0 0 I I #
coedge $-1 $312 $209 $422 $434 reversed $121 $-1 #
vertex $-1 $320 $435 #
straight-curve $-1 -33.505791210122695 31.031559863384487 4.8194360582566045 -1 0 0 I I #
point $-1 -61.024110914284527 31.031559863384487 4.8194360582566045 #
point $-1 -61.024110914284527 -31.031559863384487 4.8194360582566045 #
face $-1 $-1 $230 $29 $-1 $436 reversed single #
loop $-1 $-1 $221 $215 #
plane-surface $-1 0 31.031559863384487 0 0 -1 0 0 0 -1 forward_v I I I I #
coedge $-1 $224 $437 $336 $438 forward $216 $-1 #
coedge $-1 $439 $218 $437 $440 forward $129 $-1 #
coedge $-1 $218 $439 $338 $441 forward $129 $-1 #
edge $-1 $340 -31.031559863384487 $442 31.031559863384487 $218 $443 forward 7 unknown #
coedge $-1 $220 $219 $332 $438 reversed $81 $-1 #
edge $-1 $343 -31.031559863384487 $339 31.031559863384487 $219 $444 forward 7 unknown #
coedge $-1 $345 $221 $334 $441 reversed $330 $-1 #
vertex $-1 $227 $445 #
vertex $-1 $222 $446 #
straight-curve $-1 61.024110914284535 31.031559863384487 3.7160932288877104 0 0 1 I I #
coedge $-1 $437 $224 $229 $349 reversed $216 $-1 #
vertex $-1 $225 $447 #
straight-curve $-1 33.505791210122695 -31.031559863384487 4.8194360582566045 1 0 0 I I #
coedge $-1 $226 $338 $228 $348 forward $330 $-1 #
straight-curve $-1 33.505791210122695 31.031559863384487 4.8194360582566045 -1 0 0 I I #
coedge $-1 $229 $228 $439 $448 reversed $230 $-1 #
edge $-1 $449 -10.044936857294237 $232 -4.8194360582566045 $228 $450 forward 7 unknown #
edge $-1 $451 -10.044936857294237 $231 -4.8194360582566045 $229 $452 forward 7 unknown #
point $-1 72.999053926206244 -31.031559863384487 4.8194360582566045 #
point $-1 72.999053926206244 31.031559863384487 4.8194360582566045 #
loop $-1 $-1 $242 $234 #
plane-surface $-1 0 -31.031559863384487 0 0 1 0 0 0 1 forward_v I I I I #
coedge $-1 $355 $237 $239 $359 reversed $137 $-1 #
coedge $-1 $237 $354 $453 $454 reversed $137 $-1 #
coedge $-1 $245 $240 $237 $357 forward $235 $-1 #
edge $-1 $360 -34.610433959551891 $455 -22.081512772849266 $356 $456 forward 7 unknown #
coedge $-1 $239 $238 $363 $457 reversed $85 $-1 #
edge $-1 $458 1.6526814159067847e-014 $360 14.616657957683994 $354 $459 forward 7 unknown #
vertex $-1 $241 $460 #
straight-curve $-1 17.407920388738887 -18.502638676681862 10.044936857294237 -1 0 0 I I #
coedge $-1 $453 $242 $245 $367 reversed $352 $-1 #
coedge $-1 $242 $453 $358 $457 forward $352 $-1 #
vertex $-1 $243 $461 #
straight-curve $-1 43.872335084709874 -31.031559863384487 63.830802397727865 0 0 1 I I #
straight-curve $-1 43.872335084709874 -31.031559863384501 2.5168013810079231 0 -0.85716729658548041 -0.51503808176128008 I I #
edge $-1 $455 25.759346470245674 $246 43.872335084709874 $362 $462 forward 7 unknown #
point $-1 43.872335084709874 -31.031559863384487 10.044936857294237 #
point $-1 43.872335084709874 -18.502638676681862 10.044936857294237 #
edge $-1 $463 1 $463 0 $249 $-1 forward 7 unknown #
vertex $-1 $250 $464 #
ellipse-curve $-1 30.934486074378299 -21.458576493156066 0.77456264439666533 0 -0.51503808176128008 0.85716729658548041 2.5 0 0 1 I I #
point $-1 33.434486074378299 -24.76709927003316 6.2808691191510748 #
edge $-1 $465 1 $465 0 $253 $-1 forward 7 unknown #
vertex $-1 $254 $466 #
ellipse-curve $-1 38.69719548057725 -21.458576493156066 0.77456264439666533 0 -0.51503808176128008 0.85716729658548041 2.5 0 0 1 I I #
point $-1 41.19719548057725 -24.76709927003316 6.2808691191510748 #
plane-surface $-1 0 0 10.044936857294237 0 0 1 1 0 0 forward_v I I I I #
coedge $-1 $389 $388 $381 $467 forward $258 $-1 #
coedge $-1 $381 $260 $262 $385 reversed $159 $-1 #
coedge $-1 $260 $380 $379 $467 reversed $159 $-1 #
coedge $-1 $268 $263 $260 $383 forward $269 $-1 #
edge $-1 $386 -8.0111956826241126 $468 4.5177255040785198 $382 $469 forward 7 unknown #
coedge $-1 $262 $261 $389 $470 reversed $99 $-1 #
edge $-1 $471 -62.06311972676896 $386 -47.446461769084983 $380 $472 forward 7 unknown #
vertex $-1 $264 $473 #
straight-curve $-1 17.407920388738887 18.502638676681865 10.044936857294235 1 0 0 I I #
coedge $-1 $379 $265 $268 $393 reversed $258 $-1 #
coedge $-1 $265 $379 $384 $470 forward $258 $-1 #
vertex $-1 $266 $474 #
straight-curve $-1 25.759346470245674 31.031559863384487 79.813237463825743 0 0 1 I I #
straight-curve $-1 25.759346470245674 -22.166916690471069 34.481671513203679 0 0.85716729658548041 -0.51503808176128008 I I #
edge $-1 $468 -43.872335084709874 $270 -25.759346470245674 $388 $475 forward 7 unknown #
point $-1 25.759346470245674 31.031559863384487 10.044936857294237 #
point $-1 25.759346470245674 18.502638676681855 10.044936857294239 #
edge $-1 $476 1 $476 0 $273 $-1 forward 7 unknown #
vertex $-1 $274 $477 #
ellipse-curve $-1 30.934486074378299 21.458576493156066 0.77456264439666711 0 0.51503808176128008 0.85716729658548041 2.5 0 0 1 I I #
point $-1 33.434486074378299 24.76709927003316 6.2808691191510766 #
edge $-1 $478 1 $478 0 $277 $-1 forward 7 unknown #
vertex $-1 $278 $479 #
ellipse-curve $-1 38.69719548057725 21.458576493156066 0.77456264439666711 0 0.51503808176128008 0.85716729658548041 2.5 0 0 1 I I #
point $-1 41.19719548057725 24.76709927003316 6.2808691191510766 #
plane-surface $-1 72.999053926206244 0 0 -1 0 0 0 0 1 forward_v I I I I #
coedge $-1 $286 $284 $288 $409 reversed $181 $-1 #
edge $-1 $299 -10.044936857294237 $411 10.044936857294237 $298 $480 forward 7 unknown #
vertex $-1 $409 $481 #
straight-curve $-1 -72.999053926206244 -31.031559863384487 0 0 0 -1 I I #
edge $-1 $407 -31.031559863384487 $411 31.031559863384487 $405 $482 forward 7 unknown #
straight-curve $-1 0 -31.031559863384487 -10.044936857294237 -1 0 0 I I #
vertex $-1 $291 $483 #
straight-curve $-1 0 31.031559863384487 -10.044936857294237 1 0 0 I I #
point $-1 72.999053926206244 31.031559863384487 -10.044936857294237 #
point $-1 72.999053926206244 -31.031559863384487 -10.044936857294237 #
straight-curve $-1 -72.999053926206244 0 10.044936857294237 0 -1 0 I I #
point $-1 -72.999053926206244 31.031559863384487 10.044936857294237 #
point $-1 -72.999053926206244 -31.031559863384487 10.044936857294237 #
straight-curve $-1 72.999053926206244 -31.031559863384487 0 0 0 -1 I I #
straight-curve $-1 72.999053926206244 31.031559863384487 0 0 0 -1 I I #
plane-surface $-1 0 -31.031559863384487 0 0 1 0 0 0 1 forward_v I I I I #
coedge $-1 $484 $311 $321 $432 reversed $200 $-1 #
coedge $-1 $311 $484 $324 $434 forward $200 $-1 #
coedge $-1 $485 $314 $312 $424 forward $309 $-1 #
edge $-1 $425 61.024110914284527 $486 72.999053926206244 $312 $487 forward 7 unknown #
vertex $-1 $424 $488 #
straight-curve $-1 -61.024110914284527 31.031559863384487 3.7160932288877104 0 0 -1 I I #
coedge $-1 $314 $485 $316 $429 forward $309 $-1 #
straight-curve $-1 -61.024110914284527 0 10.044936857294237 0 1 0 I I #
edge $-1 $489 -72.999053926206244 $318 -61.024110914284527 $316 $490 forward 7 unknown #
point $-1 -61.024110914284527 -31.031559863384487 10.044936857294237 #
straight-curve $-1 -72.999053926206244 0 4.8194360582566045 0 -1 0 I I #
edge $-1 $489 -10.044936857294237 $322 -4.8194360582566045 $421 $491 forward 7 unknown #
point $-1 -72.999053926206244 -31.031559863384487 4.8194360582566045 #
edge $-1 $486 -10.044936857294237 $325 -4.8194360582566045 $324 $492 forward 7 unknown #
point $-1 -72.999053926206244 31.031559863384487 4.8194360582566045 #
plane-surface $-1 72.999053926206244 0 0 -1 0 0 0 0 1 forward_v I I I I #
coedge $-1 $332 $342 $333 $440 reversed $216 $-1 #
edge $-1 $442 -6.3288436284065268 $343 -1.1033428293688941 $332 $493 forward 7 unknown #
coedge $-1 $334 $333 $347 $448 forward $129 $-1 #
edge $-1 $442 61.024110914284535 $451 72.999053926206244 $437 $494 forward 7 unknown #
edge $-1 $449 -72.999053926206244 $340 -61.024110914284535 $338 $495 forward 7 unknown #
vertex $-1 $440 $496 #
straight-curve $-1 61.024110914284535 0 10.044936857294237 0 -1 0 I I #
straight-curve $-1 61.024110914284535 0 4.8194360582566045 0 1 0 I I #
point $-1 61.024110914284535 31.031559863384487 4.8194360582566045 #
point $-1 61.024110914284535 31.031559863384487 10.044936857294237 #
point $-1 61.024110914284535 -31.031559863384487 4.8194360582566045 #
edge $-1 $451 -31.031559863384487 $449 31.031559863384487 $347 $497 forward 7 unknown #
vertex $-1 $448 $498 #
straight-curve $-1 72.999053926206244 31.031559863384487 0 0 0 -1 I I #
vertex $-1 $448 $499 #
straight-curve $-1 72.999053926206244 -31.031559863384487 0 0 0 -1 I I #
coedge $-1 $363 $362 $355 $454 forward $352 $-1 #
edge $-1 $455 53.785865540433626 $458 61.314001016719935 $453 $500 forward 7 unknown #
vertex $-1 $367 $501 #
straight-curve $-1 25.759346470245674 -53.113072636233753 10.044936857294239 0 -1 0 I I #
edge $-1 $458 8.3514260815067871 $364 26.464414695970987 $363 $502 forward 7 unknown #
vertex $-1 $457 $503 #
straight-curve $-1 25.759346470245674 -31.031559863384501 2.5168013810079231 0 0.85716729658548041 0.51503808176128008 I I #
point $-1 25.759346470245674 -18.502638676681862 10.044936857294237 #
point $-1 43.872335084709874 -31.031559863384487 2.5168013810079315 #
straight-curve $-1 0 -31.031559863384487 10.044936857294237 1 0 0 I I #
vertex $-1 $370 $504 #
point $-1 33.434486074378299 -21.458576493156066 0.77456264439666533 #
vertex $-1 $374 $505 #
point $-1 41.19719548057725 -21.458576493156066 0.77456264439666533 #
edge $-1 $468 69.768300606531511 $471 77.29643608281782 $379 $506 forward 7 unknown #
vertex $-1 $393 $507 #
straight-curve $-1 43.872335084709874 26.513834359305967 10.044936857294232 0 1 0 I I #
edge $-1 $471 -26.464414695970987 $390 -8.3514260815067871 $389 $508 forward 7 unknown #
vertex $-1 $470 $509 #
straight-curve $-1 43.872335084709874 -22.166916690471069 34.481671513203679 0 -0.85716729658548041 0.51503808176128008 I I #
point $-1 43.872335084709874 18.502638676681855 10.044936857294239 #
point $-1 25.759346470245674 31.031559863384487 2.5168013810079302 #
straight-curve $-1 0 31.031559863384487 10.044936857294237 -1 0 0 I I #
vertex $-1 $396 $510 #
point $-1 33.434486074378299 21.458576493156066 0.77456264439666711 #
vertex $-1 $400 $511 #
point $-1 41.19719548057725 21.458576493156066 0.77456264439666711 #
straight-curve $-1 -72.999053926206244 31.031559863384487 0 0 0 -1 I I #
point $-1 -72.999053926206244 -31.031559863384487 -10.044936857294237 #
straight-curve $-1 -72.999053926206244 0 -10.044936857294237 0 1 0 I I #
point $-1 -72.999053926206244 31.031559863384487 -10.044936857294237 #
coedge $-1 $422 $421 $485 $512 reversed $200 $-1 #
coedge $-1 $427 $423 $484 $512 forward $309 $-1 #
vertex $-1 $424 $513 #
straight-curve $-1 0 31.031559863384487 10.044936857294237 -1 0 0 I I #
point $-1 -61.024110914284527 31.031559863384487 10.044936857294237 #
vertex $-1 $512 $514 #
straight-curve $-1 0 -31.031559863384487 10.044936857294237 1 0 0 I I #
straight-curve $-1 -72.999053926206244 -31.031559863384487 0 0 0 -1 I I #
straight-curve $-1 -72.999053926206244 31.031559863384487 0 0 0 -1 I I #
straight-curve $-1 61.024110914284535 -31.031559863384487 3.7160932288877104 0 0 -1 I I #
straight-curve $-1 0 -31.031559863384487 10.044936857294237 1 0 0 I I #
straight-curve $-1 0 31.031559863384487 10.044936857294237 -1 0 0 I I #
point $-1 61.024110914284535 -31.031559863384487 10.044936857294237 #
straight-curve $-1 72.999053926206244 0 10.044936857294237 0 1 0 I I #
point $-1 72.999053926206244 31.031559863384487 10.044936857294237 #
point $-1 72.999053926206244 -31.031559863384487 10.044936857294237 #
straight-curve $-1 25.759346470245674 -31.031559863384487 63.830802397727865 0 0 -1 I I #
point $-1 25.759346470245674 -31.031559863384487 10.044936857294237 #
straight-curve $-1 17.407920388738887 -31.031559863384487 2.516801381007931 1 0 0 I I #
point $-1 25.759346470245674 -31.031559863384487 2.5168013810079315 #
point $-1 30.934486074378299 -20.170981288752863 -1.3683555970670351 #
point $-1 38.69719548057725 -20.170981288752863 -1.3683555970670351 #
straight-curve $-1 43.872335084709874 31.031559863384487 79.813237463825743 0 0 -1 I I #
point $-1 43.872335084709874 31.031559863384487 10.044936857294237 #
straight-curve $-1 17.407920388738887 31.031559863384484 2.5168013810079284 -1 0 0 I I #
point $-1 43.872335084709874 31.031559863384487 2.5168013810079302 #
point $-1 30.934486074378299 20.170981288752863 -1.3683555970670334 #
point $-1 38.69719548057725 20.170981288752863 -1.3683555970670334 #
edge $-1 $486 -31.031559863384487 $489 31.031559863384487 $484 $515 forward 7 unknown #
point $-1 -72.999053926206244 31.031559863384487 10.044936857294237 #
point $-1 -72.999053926206244 -31.031559863384487 10.044936857294237 #
straight-curve $-1 -72.999053926206244 0 10.044936857294237 0 -1 0 I I #
End-of-ACIS-data 