500 0 7 0           
7 Unknown 11 ACIS 5.0 NT 24 Thu Mar 25 23:15:27 1999 
-1 9.9999999999999995e-007 1e-010 
body $-1 $7 $-1 $8 #
body $-1 $9 $-1 $10 #
body $-1 $11 $-1 $12 #
body $-1 $13 $-1 $14 #
body $-1 $15 $-1 $16 #
body $-1 $17 $-1 $18 #
body $-1 $19 $-1 $20 #
lump $-1 $-1 $21 $0 #
transform $-1 1 0 0 0 1 0 0 0 1 74.650715659047222 39.542302054134311 17.928409999915964 1 rotate no_reflect no_shear #
lump $-1 $-1 $22 $1 #
transform $-1 1 0 0 0 1 0 0 0 1 74.650715659047222 39.542302054134311 17.928409999915964 1 rotate no_reflect no_shear #
lump $-1 $-1 $23 $2 #
transform $-1 1 0 0 0 1 0 0 0 1 74.650715659047222 39.542302054134311 17.928409999915964 1 rotate no_reflect no_shear #
lump $-1 $-1 $24 $3 #
transform $-1 1 0 0 0 1 0 0 0 1 74.650715659047222 39.542302054134311 17.928409999915964 1 rotate no_reflect no_shear #
lump $-1 $-1 $25 $4 #
transform $-1 1 0 0 0 1 0 0 0 1 74.650715659047222 39.542302054134311 17.928409999915964 1 rotate no_reflect no_shear #
lump $-1 $-1 $26 $5 #
transform $-1 1 0 0 0 1 0 0 0 1 74.650715659047222 39.542302054134311 17.928409999915964 1 rotate no_reflect no_shear #
lump $-1 $-1 $27 $6 #
transform $-1 1 0 0 0 1 0 0 0 1 74.650715659047222 39.542302054134311 17.928409999915964 1 rotate no_reflect no_shear #
shell $-1 $-1 $-1 $28 $-1 $7 #
shell $-1 $-1 $-1 $29 $-1 $9 #
shell $-1 $-1 $-1 $30 $-1 $11 #
shell $-1 $-1 $-1 $31 $-1 $13 #
shell $-1 $-1 $-1 $32 $-1 $15 #
shell $-1 $-1 $-1 $33 $-1 $17 #
shell $-1 $-1 $-1 $34 $-1 $19 #
face $-1 $35 $36 $21 $-1 $37 forward single #
face $-1 $38 $39 $22 $-1 $40 reversed single #
face $-1 $41 $42 $23 $-1 $43 reversed single #
face $-1 $44 $45 $24 $-1 $46 forward single #
face $-1 $47 $48 $25 $-1 $49 reversed single #
face $-1 $50 $51 $26 $-1 $52 forward single #
face $-1 $53 $54 $27 $-1 $55 forward single #
face $-1 $56 $57 $21 $-1 $58 reversed single #
loop $-1 $-1 $59 $28 #
plane-surface $-1 0 0 17.928409999915964 0 0 1 1 0 0 forward_v I I I I #
face $-1 $60 $61 $22 $-1 $62 reversed single #
loop $-1 $-1 $63 $29 #
plane-surface $-1 -48.690167874202317 -32.415820633357143 0 1 0 0 0 0 -1 forward_v I I I I #
face $-1 $64 $65 $23 $-1 $66 reversed single #
loop $-1 $-1 $67 $30 #
plane-surface $-1 -151.54663844933208 -21.783303750539986 129.11255275745154 0 1 0 -0.51503808176128008 0 0.85716729658548041 forward_v I I I I #
face $-1 $68 $69 $24 $-1 $70 forward single #
loop $-1 $71 $72 $31 #
cone-surface $-1 -60.243720306946322 -17.0429586555097 8.8107464764703671 0.51503808176128008 0 -0.85716729658548041 0.85716729658548041 0 0.51503808176128008 1 I I 0 1 1 forward I I I I #
face $-1 $73 $74 $25 $-1 $75 reversed single #
loop $-1 $-1 $76 $32 #
plane-surface $-1 30.751388697154752 -6.981137627446758 219.08988696968856 0 -1 0 -0.54463904215088732 0 -0.83867056331134215 forward_v I I I I #
face $-1 $77 $78 $26 $-1 $79 forward single #
loop $-1 $80 $81 $33 #
cone-surface $-1 70.043462391599206 -14.227914805777974 14.514550073888961 -0.54463904215088732 0 -0.83867056331134215 0.83867056331134215 0 -0.54463904215088732 1 I I 0 1 1 forward I I I I #
face $-1 $82 $83 $27 $-1 $84 forward single #
loop $-1 $85 $86 $34 #
cone-surface $-1 70.043462391599206 -9.8798484987792392 14.514550073888961 -0.54463904215088732 0 -0.83867056331134215 0.83867056331134215 0 -0.54463904215088732 1 I I 0 1 1 forward I I I I #
face $-1 $87 $88 $21 $-1 $89 reversed single #
loop $-1 $-1 $90 $35 #
plane-surface $-1 0 0 -17.928409999915964 0 0 1 1 0 0 forward_v I I I I #
coedge $-1 $91 $92 $93 $94 forward $36 $-1 #
face $-1 $95 $96 $22 $-1 $97 reversed single #
loop $-1 $-1 $98 $38 #
plane-surface $-1 -43.742031766708806 -25.289339212579975 0 0 -1 0 0 0 -1 forward_v I I I I #
coedge $-1 $99 $100 $101 $102 forward $39 $-1 #
face $-1 $103 $104 $23 $-1 $105 reversed single #
loop $-1 $-1 $106 $41 #
plane-surface $-1 -74.650715659047208 -17.0429586555097 1.1362484981777499 -0.51503808176128008 0 0.85716729658548041 0.85716729658548041 0 0.51503808176128008 forward_v I I I I #
coedge $-1 $107 $108 $109 $110 reversed $42 $-1 #
face $-1 $-1 $111 $24 $-1 $112 forward single #
loop $-1 $113 $114 $44 #
cone-surface $-1 -59.552630586805968 -17.0429586555097 7.6605800556011339 0.51503808176128008 0 -0.85716729658548041 0.4285836482927402 0 0.25751904088064004 1 I I -0.70710678118654746 0.70710678118654746 0.5 forward I I I I #
loop $-1 $-1 $115 $31 #
coedge $-1 $72 $72 $116 $117 reversed $45 $-1 #
face $-1 $118 $119 $25 $-1 $120 reversed single #
loop $-1 $-1 $121 $47 #
plane-surface $-1 -50.563999847688692 -12.053881652278612 93.875171462952636 0.54463904215088732 0 0.83867056331134215 0.83867056331134215 0 -0.54463904215088732 forward_v I I I I #
coedge $-1 $122 $123 $124 $125 reversed $48 $-1 #
face $-1 $-1 $126 $26 $-1 $127 forward single #
loop $-1 $128 $129 $50 #
cone-surface $-1 69.297369899609492 -14.227914805777974 13.365668407109695 -0.54463904215088732 0 -0.83867056331134215 0.41933528165567108 0 -0.27231952107544366 1 I I -0.70710678118654746 0.70710678118654746 0.5 forward I I I I #
loop $-1 $-1 $130 $33 #
coedge $-1 $81 $81 $131 $132 reversed $51 $-1 #
face $-1 $-1 $133 $27 $-1 $134 forward single #
loop $-1 $135 $136 $53 #
cone-surface $-1 69.297369899609492 -9.8798484987792392 13.365668407109695 -0.54463904215088732 0 -0.83867056331134215 0.41933528165567108 0 -0.27231952107544366 1 I I -0.70710678118654746 0.70710678118654746 0.5 forward I I I I #
loop $-1 $-1 $137 $34 #
coedge $-1 $86 $86 $138 $139 reversed $54 $-1 #
face $-1 $140 $141 $21 $-1 $142 reversed single #
loop $-1 $-1 $143 $56 #
plane-surface $-1 0 -39.542302054134311 0 0 1 0 0 0 1 forward_v I I I I #
coedge $-1 $144 $145 $146 $147 forward $57 $-1 #
coedge $-1 $148 $59 $149 $150 forward $36 $-1 #
coedge $-1 $59 $148 $151 $152 forward $36 $-1 #
coedge $-1 $153 $154 $59 $94 reversed $155 $-1 #
edge $-1 $156 -39.542302054134311 $157 39.542302054134311 $93 $158 forward 7 unknown #
face $-1 $159 $160 $22 $-1 $161 forward single #
loop $-1 $-1 $162 $60 #
plane-surface $-1 -38.793895659215295 -32.415820633357143 0 -1 0 0 0 0 1 forward_v I I I I #
coedge $-1 $163 $164 $165 $166 forward $61 $-1 #
coedge $-1 $167 $63 $168 $169 reversed $39 $-1 #
coedge $-1 $63 $167 $170 $171 reversed $39 $-1 #
coedge $-1 $164 $163 $63 $102 reversed $61 $-1 #
edge $-1 $172 -17.928409999915964 $173 17.928409999915964 $101 $174 forward 7 unknown #
face $-1 $175 $176 $23 $-1 $177 reversed single #
loop $-1 $-1 $178 $64 #
plane-surface $-1 -151.54663844933208 -12.302613560479413 129.11255275745154 0 -1 0 0.51503808176128008 0 -0.85716729658548041 forward_v I I I I #
coedge $-1 $179 $180 $181 $182 reversed $65 $-1 #
coedge $-1 $108 $67 $183 $184 reversed $42 $-1 #
coedge $-1 $67 $107 $179 $185 reversed $42 $-1 #
coedge $-1 $181 $186 $67 $110 forward $187 $-1 #
edge $-1 $188 1.1226035656188174 $189 29.069452911301184 $109 $190 forward 7 unknown #
loop $-1 $-1 $116 $68 #
plane-surface $-1 -74.650715659047208 -17.0429586555097 1.1362484981777499 -0.51503808176128008 0 0.85716729658548041 0.85716729658548041 0 0.51503808176128008 forward_v I I I I #
loop $-1 $-1 $191 $44 #
coedge $-1 $114 $114 $115 $192 reversed $69 $-1 #
coedge $-1 $115 $115 $114 $192 forward $71 $-1 #
coedge $-1 $116 $116 $72 $117 forward $111 $-1 #
edge $-1 $193 0 $193 6.2831853071796004 $116 $194 forward 7 unknown #
face $-1 $195 $196 $25 $-1 $197 forward single #
loop $-1 $-1 $198 $73 #
plane-surface $-1 30.751388697154752 -17.126625677110468 219.08988696968856 0 1 0 0.54463904215088732 0 0.83867056331134215 forward_v I I I I #
coedge $-1 $199 $200 $201 $202 reversed $74 $-1 #
coedge $-1 $123 $76 $203 $204 reversed $48 $-1 #
coedge $-1 $76 $122 $199 $205 reversed $48 $-1 #
coedge $-1 $201 $206 $76 $125 forward $196 $-1 #
edge $-1 $207 -59.275021310469846 $208 -51.008060717402351 $124 $209 forward 7 unknown #
loop $-1 $-1 $131 $77 #
plane-surface $-1 -50.563999847688692 -12.053881652278612 93.875171462952636 0.54463904215088732 0 0.83867056331134215 0.83867056331134215 0 -0.54463904215088732 forward_v I I I I #
loop $-1 $-1 $210 $50 #
coedge $-1 $129 $129 $130 $211 reversed $78 $-1 #
coedge $-1 $130 $130 $129 $211 forward $80 $-1 #
coedge $-1 $131 $131 $81 $132 forward $126 $-1 #
edge $-1 $212 0 $212 6.2831853071796004 $131 $213 forward 7 unknown #
loop $-1 $-1 $138 $82 #
plane-surface $-1 -50.563999847688692 -12.053881652278612 93.875171462952636 0.54463904215088732 0 0.83867056331134215 0.83867056331134215 0 -0.54463904215088732 forward_v I I I I #
loop $-1 $-1 $214 $53 #
coedge $-1 $136 $136 $137 $215 reversed $83 $-1 #
coedge $-1 $137 $137 $136 $215 forward $85 $-1 #
coedge $-1 $138 $138 $86 $139 forward $133 $-1 #
edge $-1 $216 0 $216 6.2831853071796004 $138 $217 forward 7 unknown #
face $-1 $218 $219 $21 $-1 $220 reversed single #
loop $-1 $-1 $221 $87 #
plane-surface $-1 -74.650715659047222 0 0 1 0 0 0 0 -1 forward_v I I I I #
coedge $-1 $222 $151 $223 $224 forward $88 $-1 #
coedge $-1 $225 $90 $222 $226 forward $57 $-1 #
coedge $-1 $90 $225 $227 $228 forward $57 $-1 #
coedge $-1 $154 $153 $90 $147 reversed $155 $-1 #
edge $-1 $229 -39.542302054134311 $230 39.542302054134311 $146 $231 forward 7 unknown #
coedge $-1 $92 $91 $232 $233 forward $36 $-1 #
coedge $-1 $234 $235 $91 $150 reversed $219 $-1 #
edge $-1 $157 -74.650715659047222 $236 74.650715659047222 $149 $237 forward 7 unknown #
coedge $-1 $143 $238 $92 $152 reversed $88 $-1 #
edge $-1 $239 -74.650715659047222 $156 74.650715659047222 $151 $240 forward 7 unknown #
coedge $-1 $146 $93 $238 $241 forward $155 $-1 #
coedge $-1 $93 $146 $234 $242 reversed $155 $-1 #
loop $-1 $-1 $153 $218 #
vertex $-1 $94 $243 #
vertex $-1 $94 $244 #
straight-curve $-1 74.650715659047222 0 17.928409999915964 0 1 0 I I #
face $-1 $245 $246 $22 $-1 $247 reversed single #
loop $-1 $-1 $248 $95 #
plane-surface $-1 0 0 17.928409999915964 0 0 1 1 0 0 forward_v I I I I #
coedge $-1 $249 $250 $251 $252 reversed $96 $-1 #
coedge $-1 $101 $98 $253 $254 reversed $61 $-1 #
coedge $-1 $98 $101 $255 $256 reversed $61 $-1 #
coedge $-1 $250 $249 $98 $166 reversed $96 $-1 #
edge $-1 $257 -17.928409999915964 $258 17.928409999915964 $165 $259 forward 7 unknown #
coedge $-1 $100 $99 $260 $261 reversed $39 $-1 #
coedge $-1 $253 $262 $99 $169 forward $246 $-1 #
edge $-1 $263 -23.334391737455739 $173 -9.0814288959014036 $168 $264 forward 7 unknown #
coedge $-1 $265 $255 $100 $171 forward $160 $-1 #
edge $-1 $172 9.0814288959014036 $266 23.334391737455739 $170 $267 forward 7 unknown #
vertex $-1 $171 $268 #
vertex $-1 $169 $269 #
straight-curve $-1 -48.690167874202317 -25.289339212579975 0 0 0 -1 I I #
face $-1 $-1 $187 $23 $-1 $270 forward single #
loop $-1 $-1 $271 $103 #
plane-surface $-1 -74.650715659047222 0 0 1 0 0 0 0 -1 forward_v I I I I #
coedge $-1 $272 $273 $274 $275 reversed $104 $-1 #
coedge $-1 $276 $106 $108 $185 forward $65 $-1 #
coedge $-1 $106 $276 $272 $277 forward $65 $-1 #
coedge $-1 $274 $109 $106 $182 forward $187 $-1 #
edge $-1 $189 -13.261824422785136 $278 -3.7811342327245629 $181 $279 forward 7 unknown #
coedge $-1 $280 $281 $107 $184 forward $176 $-1 #
edge $-1 $282 -63.420027880548027 $188 -46.627866378809806 $183 $283 forward 7 unknown #
edge $-1 $189 -32.603727950201112 $282 1.6526814159067847e-014 $108 $284 forward 7 unknown #
coedge $-1 $109 $274 $280 $285 forward $187 $-1 #
loop $-1 $-1 $274 $175 #
vertex $-1 $184 $286 #
vertex $-1 $110 $287 #
straight-curve $-1 -75.773319224666039 -21.783303750539986 17.928409999915964 1 0 0 I I #
coedge $-1 $191 $191 $-1 $288 reversed $113 $-1 #
edge $-1 $289 0 $289 6.2831853071796004 $114 $290 forward 7 unknown #
vertex $-1 $117 $291 #
ellipse-curve $-1 -60.677290986206039 -17.0429586555097 9.5323292490468532 -0.51503808176128008 0 0.85716729658548041 0.85716729658548041 0 0.51503808176128008 1 I I #
face $-1 $-1 $292 $25 $-1 $293 reversed single #
loop $-1 $-1 $124 $118 #
plane-surface $-1 0 0 17.928409999915964 0 0 1 1 0 0 forward_v I I I I #
coedge $-1 $294 $295 $296 $297 reversed $119 $-1 #
coedge $-1 $298 $121 $123 $205 forward $74 $-1 #
coedge $-1 $121 $298 $294 $299 forward $74 $-1 #
coedge $-1 $296 $124 $121 $202 forward $196 $-1 #
edge $-1 $208 0.95419680130745199 $300 11.099684850971162 $201 $301 forward 7 unknown #
coedge $-1 $302 $303 $122 $204 forward $292 $-1 #
edge $-1 $304 -96.985160566735075 $207 -91.616533484928311 $203 $305 forward 7 unknown #
edge $-1 $208 139.44421090913329 $304 149.30143131809439 $123 $306 forward 7 unknown #
coedge $-1 $124 $296 $302 $307 forward $196 $-1 #
vertex $-1 $204 $308 #
vertex $-1 $125 $309 #
straight-curve $-1 15.375694348577376 -6.981137627446758 17.928409999915971 -1 0 0 I I #
coedge $-1 $210 $210 $-1 $310 reversed $128 $-1 #
edge $-1 $311 0 $311 6.2831853071796004 $129 $312 forward 7 unknown #
vertex $-1 $132 $313 #
ellipse-curve $-1 70.517235362513489 -14.227914805777974 15.244096459012583 0.54463904215088732 0 0.83867056331134215 0.83867056331134215 0 -0.54463904215088732 1 I I #
coedge $-1 $214 $214 $-1 $314 reversed $135 $-1 #
edge $-1 $315 0 $315 6.2831853071796004 $136 $316 forward 7 unknown #
vertex $-1 $139 $317 #
ellipse-curve $-1 70.517235362513489 -9.8798484987792392 15.244096459012583 0.54463904215088732 0 0.83867056331134215 0.83867056331134215 0 -0.54463904215088732 1 I I #
face $-1 $-1 $155 $21 $-1 $318 reversed single #
loop $-1 $-1 $234 $140 #
plane-surface $-1 0 39.542302054134311 0 0 -1 0 0 0 -1 forward_v I I I I #
coedge $-1 $319 $232 $235 $320 forward $141 $-1 #
coedge $-1 $238 $143 $144 $226 reversed $88 $-1 #
coedge $-1 $232 $319 $143 $224 reversed $141 $-1 #
edge $-1 $239 -17.928409999915964 $321 17.928409999915964 $223 $322 forward 7 unknown #
coedge $-1 $145 $144 $319 $323 forward $57 $-1 #
edge $-1 $230 -74.650715659047222 $321 74.650715659047222 $222 $324 forward 7 unknown #
coedge $-1 $235 $234 $145 $228 reversed $219 $-1 #
edge $-1 $325 -74.650715659047222 $229 74.650715659047222 $227 $326 forward 7 unknown #
vertex $-1 $147 $327 #
vertex $-1 $241 $328 #
straight-curve $-1 74.650715659047222 0 -17.928409999915964 0 -1 0 I I #
coedge $-1 $221 $223 $148 $233 reversed $141 $-1 #
edge $-1 $236 -39.542302054134311 $239 39.542302054134311 $232 $329 forward 7 unknown #
coedge $-1 $227 $149 $154 $242 forward $219 $-1 #
coedge $-1 $149 $227 $221 $320 reversed $219 $-1 #
vertex $-1 $150 $330 #
straight-curve $-1 0 39.542302054134311 17.928409999915964 -1 0 0 I I #
coedge $-1 $151 $222 $153 $241 reversed $88 $-1 #
vertex $-1 $233 $331 #
straight-curve $-1 0 -39.542302054134311 17.928409999915964 1 0 0 I I #
edge $-1 $156 -17.928409999915964 $230 17.928409999915964 $153 $332 forward 7 unknown #
edge $-1 $157 -17.928409999915964 $229 17.928409999915964 $154 $333 forward 7 unknown #
point $-1 74.650715659047222 -39.542302054134311 17.928409999915964 #
point $-1 74.650715659047222 39.542302054134311 17.928409999915964 #
face $-1 $-1 $334 $22 $-1 $335 reversed single #
loop $-1 $-1 $336 $159 #
plane-surface $-1 0 0 -17.928409999915964 0 0 1 1 0 0 forward_v I I I I #
coedge $-1 $255 $265 $250 $337 forward $160 $-1 #
coedge $-1 $165 $162 $336 $338 reversed $96 $-1 #
coedge $-1 $162 $165 $248 $337 reversed $96 $-1 #
coedge $-1 $339 $340 $162 $252 forward $334 $-1 #
edge $-1 $341 -17.928409999915964 $342 17.928409999915964 $251 $343 forward 7 unknown #
coedge $-1 $336 $168 $163 $254 forward $246 $-1 #
edge $-1 $173 -26.819151990847914 $258 -16.922879775860892 $253 $344 forward 7 unknown #
coedge $-1 $170 $248 $164 $256 forward $160 $-1 #
edge $-1 $257 16.922879775860892 $172 26.819151990847914 $255 $345 forward 7 unknown #
vertex $-1 $256 $346 #
vertex $-1 $254 $347 #
straight-curve $-1 -38.793895659215295 -25.289339212579975 0 0 0 -1 I I #
coedge $-1 $340 $339 $167 $261 forward $334 $-1 #
edge $-1 $266 -17.928409999915964 $263 17.928409999915964 $260 $348 forward 7 unknown #
coedge $-1 $168 $336 $340 $349 forward $246 $-1 #
vertex $-1 $169 $350 #
straight-curve $-1 -48.690167874202317 -16.207910316678571 -17.928409999915964 0 1 0 I I #
coedge $-1 $248 $170 $339 $351 forward $160 $-1 #
vertex $-1 $351 $352 #
straight-curve $-1 -48.690167874202317 -16.207910316678571 17.928409999915964 0 -1 0 I I #
point $-1 -48.690167874202317 -25.289339212579975 17.928409999915964 #
point $-1 -48.690167874202317 -25.289339212579975 -17.928409999915964 #
plane-surface $-1 0 0 17.928409999915964 0 0 1 1 0 0 forward_v I I I I #
coedge $-1 $281 $280 $273 $353 forward $176 $-1 #
coedge $-1 $273 $178 $180 $277 reversed $104 $-1 #
coedge $-1 $178 $272 $271 $353 reversed $104 $-1 #
coedge $-1 $186 $181 $178 $275 forward $187 $-1 #
edge $-1 $278 -29.069452911301184 $354 -1.1226035656188174 $274 $355 forward 7 unknown #
coedge $-1 $180 $179 $281 $356 reversed $65 $-1 #
edge $-1 $357 -1.6526814159067847e-014 $278 32.603727950201112 $272 $358 forward 7 unknown #
vertex $-1 $182 $359 #
straight-curve $-1 -46.703866313364856 -8.5214793277548502 17.928409999915964 0 1 0 I I #
coedge $-1 $271 $183 $186 $285 reversed $176 $-1 #
coedge $-1 $183 $271 $276 $356 forward $176 $-1 #
vertex $-1 $184 $360 #
straight-curve $-1 -74.650715659047222 -21.783303750539986 64.556276378725769 0 0 1 I I #
straight-curve $-1 -74.650715659047208 -21.783303750539986 1.1362484981777499 -0.85716729658548041 0 -0.51503808176128008 I I #
edge $-1 $354 12.302613560479413 $188 21.783303750539986 $280 $361 forward 7 unknown #
point $-1 -74.650715659047222 -21.783303750539986 17.928409999915964 #
point $-1 -46.703866313364856 -21.783303750539986 17.928409999915964 #
edge $-1 $362 1 $362 0 $191 $-1 forward 7 unknown #
vertex $-1 $192 $363 #
ellipse-curve $-1 -59.810149627686606 -17.0429586555097 8.089163703893874 -0.51503808176128008 0 0.85716729658548041 0.85716729658548041 0 0.51503808176128008 1 I I #
point $-1 -59.820123689620566 -17.0429586555097 10.047367330808139 #
loop $-1 $-1 $203 $195 #
plane-surface $-1 74.650715659047222 0 0 -1 0 0 0 0 1 forward_v I I I I #
coedge $-1 $295 $198 $200 $299 reversed $119 $-1 #
coedge $-1 $198 $294 $364 $365 reversed $119 $-1 #
coedge $-1 $206 $201 $198 $297 forward $196 $-1 #
edge $-1 $300 51.008060717402351 $366 59.275021310469846 $296 $367 forward 7 unknown #
coedge $-1 $200 $199 $303 $368 reversed $74 $-1 #
edge $-1 $369 -149.30143131809439 $300 -139.44421090913329 $294 $370 forward 7 unknown #
vertex $-1 $202 $371 #
straight-curve $-1 66.383755065979742 -6.026940826139306 17.928409999915964 0 -1 0 I I #
coedge $-1 $364 $203 $206 $307 reversed $292 $-1 #
coedge $-1 $203 $364 $298 $368 forward $292 $-1 #
vertex $-1 $204 $372 #
straight-curve $-1 74.650715659047222 -6.981137627446758 109.54494348484428 0 0 1 I I #
straight-curve $-1 -50.563999847688692 -6.981137627446758 93.875171462952636 0.83867056331134215 0 -0.54463904215088732 I I #
edge $-1 $366 -17.126625677110468 $207 -6.981137627446758 $302 $373 forward 7 unknown #
point $-1 74.650715659047222 -6.981137627446758 17.928409999915964 #
point $-1 66.383755065979727 -6.981137627446758 17.928409999915971 #
edge $-1 $374 1 $374 0 $210 $-1 forward 7 unknown #
vertex $-1 $211 $375 #
ellipse-curve $-1 69.569689420684938 -14.227914805777974 13.785003688765366 0.54463904215088732 0 0.83867056331134215 0.83867056331134215 0 -0.54463904215088732 1 I I #
point $-1 71.355905925824814 -14.227914805777974 14.699457416861669 #
edge $-1 $376 1 $376 0 $214 $-1 forward 7 unknown #
vertex $-1 $215 $377 #
ellipse-curve $-1 69.569689420684938 -9.8798484987792392 13.785003688765366 0.54463904215088732 0 0.83867056331134215 0.83867056331134215 0 -0.54463904215088732 1 I I #
point $-1 71.355905925824814 -9.8798484987792392 14.699457416861669 #
plane-surface $-1 74.650715659047222 0 0 -1 0 0 0 0 1 forward_v I I I I #
coedge $-1 $223 $221 $225 $323 reversed $141 $-1 #
edge $-1 $236 -17.928409999915964 $325 17.928409999915964 $235 $378 forward 7 unknown #
vertex $-1 $323 $379 #
straight-curve $-1 -74.650715659047222 -39.542302054134311 0 0 0 -1 I I #
edge $-1 $321 -39.542302054134311 $325 39.542302054134311 $319 $380 forward 7 unknown #
straight-curve $-1 0 -39.542302054134311 -17.928409999915964 -1 0 0 I I #
vertex $-1 $228 $381 #
straight-curve $-1 0 39.542302054134311 -17.928409999915964 1 0 0 I I #
point $-1 74.650715659047222 39.542302054134311 -17.928409999915964 #
point $-1 74.650715659047222 -39.542302054134311 -17.928409999915964 #
straight-curve $-1 -74.650715659047222 0 17.928409999915964 0 -1 0 I I #
point $-1 -74.650715659047222 39.542302054134311 17.928409999915964 #
point $-1 -74.650715659047222 -39.542302054134311 17.928409999915964 #
straight-curve $-1 74.650715659047222 -39.542302054134311 0 0 0 -1 I I #
straight-curve $-1 74.650715659047222 39.542302054134311 0 0 0 -1 I I #
loop $-1 $-1 $251 $245 #
plane-surface $-1 0 -39.542302054134311 0 0 1 0 0 0 1 forward_v I I I I #
coedge $-1 $262 $253 $249 $338 forward $246 $-1 #
edge $-1 $342 -23.334391737455739 $257 -9.0814288959014036 $248 $382 forward 7 unknown #
edge $-1 $258 9.0814288959014036 $341 23.334391737455739 $336 $383 forward 7 unknown #
coedge $-1 $260 $251 $265 $351 reversed $334 $-1 #
coedge $-1 $251 $260 $262 $349 reversed $334 $-1 #
vertex $-1 $349 $384 #
vertex $-1 $252 $385 #
straight-curve $-1 -38.793895659215295 -39.542302054134311 0 0 0 1 I I #
straight-curve $-1 -21.871015883354403 -25.289339212579975 -17.928409999915964 1 0 0 I I #
straight-curve $-1 -21.871015883354403 -25.289339212579975 17.928409999915964 -1 0 0 I I #
point $-1 -38.793895659215295 -25.289339212579975 17.928409999915964 #
point $-1 -38.793895659215295 -25.289339212579975 -17.928409999915964 #
straight-curve $-1 -48.690167874202317 -39.542302054134311 0 0 0 -1 I I #
edge $-1 $341 38.793895659215295 $263 48.690167874202317 $340 $386 forward 7 unknown #
point $-1 -48.690167874202317 -39.542302054134311 -17.928409999915964 #
edge $-1 $266 -48.690167874202317 $342 -38.793895659215295 $339 $387 forward 7 unknown #
point $-1 -48.690167874202317 -39.542302054134311 17.928409999915964 #
edge $-1 $354 46.627866378809806 $357 63.420027880548027 $271 $388 forward 7 unknown #
vertex $-1 $285 $389 #
straight-curve $-1 -75.773319224666039 -12.302613560479413 17.928409999915964 -1 0 0 I I #
edge $-1 $357 3.7811342327245629 $282 13.261824422785136 $281 $390 forward 7 unknown #
vertex $-1 $356 $391 #
straight-curve $-1 -74.650715659047208 -12.302613560479413 1.1362484981777499 0.85716729658548041 0 0.51503808176128008 I I #
point $-1 -46.703866313364856 -12.302613560479413 17.928409999915964 #
point $-1 -74.650715659047222 -21.783303750539986 1.1362484981777414 #
straight-curve $-1 -74.650715659047222 0 17.928409999915964 0 -1 0 I I #
vertex $-1 $288 $392 #
point $-1 -58.952982331101126 -17.0429586555097 8.6042017856551549 #
coedge $-1 $303 $302 $295 $365 forward $292 $-1 #
edge $-1 $366 91.616533484928311 $369 96.985160566735075 $364 $393 forward 7 unknown #
vertex $-1 $307 $394 #
straight-curve $-1 15.375694348577376 -17.126625677110468 17.928409999915971 1 0 0 I I #
edge $-1 $369 -11.099684850971162 $304 -0.95419680130745199 $303 $395 forward 7 unknown #
vertex $-1 $368 $396 #
straight-curve $-1 -50.563999847688692 -17.126625677110468 93.875171462952636 -0.83867056331134215 0 0.54463904215088732 I I #
point $-1 66.383755065979727 -17.126625677110468 17.928409999915971 #
point $-1 74.650715659047208 -6.981137627446758 12.559782918109207 #
straight-curve $-1 74.650715659047222 0 17.928409999915964 0 1 0 I I #
vertex $-1 $310 $397 #
point $-1 70.408359983996277 -14.227914805777974 13.240364646614479 #
vertex $-1 $314 $398 #
point $-1 70.408359983996277 -9.8798484987792392 13.240364646614479 #
straight-curve $-1 -74.650715659047222 39.542302054134311 0 0 0 -1 I I #
point $-1 -74.650715659047222 -39.542302054134311 -17.928409999915964 #
straight-curve $-1 -74.650715659047222 0 -17.928409999915964 0 1 0 I I #
point $-1 -74.650715659047222 39.542302054134311 -17.928409999915964 #
straight-curve $-1 -38.793895659215295 -16.207910316678571 17.928409999915964 0 1 0 I I #
straight-curve $-1 -38.793895659215295 -16.207910316678571 -17.928409999915964 0 -1 0 I I #
point $-1 -38.793895659215295 -39.542302054134311 -17.928409999915964 #
point $-1 -38.793895659215295 -39.542302054134311 17.928409999915964 #
straight-curve $-1 0 -39.542302054134311 -17.928409999915964 -1 0 0 I I #
straight-curve $-1 0 -39.542302054134311 17.928409999915964 1 0 0 I I #
straight-curve $-1 -74.650715659047222 -12.302613560479413 64.556276378725769 0 0 -1 I I #
point $-1 -74.650715659047222 -12.302613560479413 17.928409999915964 #
straight-curve $-1 -74.650715659047222 -8.5214793277548502 1.1362484981777434 0 -1 0 I I #
point $-1 -74.650715659047222 -12.302613560479413 1.1362484981777414 #
point $-1 -59.29511154592533 -17.0429586555097 7.2319964073083938 #
straight-curve $-1 74.650715659047222 -17.126625677110468 109.54494348484428 0 0 -1 I I #
point $-1 74.650715659047222 -17.126625677110468 17.928409999915964 #
straight-curve $-1 74.650715659047222 -6.026940826139306 12.559782918109192 0 1 0 I I #
point $-1 74.650715659047208 -17.126625677110468 12.559782918109207 #
point $-1 69.025050378534047 -14.227914805777974 12.946333125454023 #
point $-1 69.025050378534047 -9.8798484987792392 12.946333125454023 #
End-of-ACIS-data 