500 0 9 0           
7 Unknown 11 ACIS 5.0 NT 24 Fri Mar 26 20:02:18 1999 
-1 9.9999999999999995e-007 1e-010 
body $-1 $9 $-1 $10 #
body $-1 $11 $-1 $12 #
body $-1 $13 $-1 $14 #
body $-1 $15 $-1 $16 #
body $-1 $17 $-1 $18 #
body $-1 $19 $-1 $20 #
body $-1 $21 $-1 $22 #
body $-1 $23 $-1 $24 #
body $-1 $25 $-1 $26 #
lump $-1 $-1 $27 $0 #
transform $-1 1 0 0 0 1 0 0 0 1 48.097170934171572 26.158185188347769 7.6950584022803987 1 rotate no_reflect no_shear #
lump $-1 $-1 $28 $1 #
transform $-1 1 0 0 0 1 0 0 0 1 48.097170934171572 26.158185188347769 7.6950584022803987 1 rotate no_reflect no_shear #
lump $-1 $-1 $29 $2 #
transform $-1 1 0 0 0 1 0 0 0 1 48.097170934171572 26.158185188347769 7.6950584022803987 1 rotate no_reflect no_shear #
lump $-1 $-1 $30 $3 #
transform $-1 1 0 0 0 1 0 0 0 1 48.097170934171572 26.158185188347769 7.6950584022803987 1 rotate no_reflect no_shear #
lump $-1 $-1 $31 $4 #
transform $-1 1 0 0 0 1 0 0 0 1 48.097170934171572 26.158185188347769 7.6950584022803987 1 rotate no_reflect no_shear #
lump $-1 $-1 $32 $5 #
transform $-1 1 0 0 0 1 0 0 0 1 48.097170934171572 26.158185188347769 7.6950584022803987 1 rotate no_reflect no_shear #
lump $-1 $-1 $33 $6 #
transform $-1 1 0 0 0 1 0 0 0 1 48.097170934171572 26.158185188347769 7.6950584022803987 1 rotate no_reflect no_shear #
lump $-1 $-1 $34 $7 #
transform $-1 1 0 0 0 1 0 0 0 1 48.097170934171572 26.158185188347769 7.6950584022803987 1 rotate no_reflect no_shear #
lump $-1 $-1 $35 $8 #
transform $-1 1 0 0 0 1 0 0 0 1 48.097170934171572 26.158185188347769 7.6950584022803987 1 rotate no_reflect no_shear #
shell $-1 $-1 $-1 $36 $-1 $9 #
shell $-1 $-1 $-1 $37 $-1 $11 #
shell $-1 $-1 $-1 $38 $-1 $13 #
shell $-1 $-1 $-1 $39 $-1 $15 #
shell $-1 $-1 $-1 $40 $-1 $17 #
shell $-1 $-1 $-1 $41 $-1 $19 #
shell $-1 $-1 $-1 $42 $-1 $21 #
shell $-1 $-1 $-1 $43 $-1 $23 #
shell $-1 $-1 $-1 $44 $-1 $25 #
face $-1 $45 $46 $27 $-1 $47 forward single #
face $-1 $48 $49 $28 $-1 $50 reversed single #
face $-1 $51 $52 $29 $-1 $53 reversed single #
face $-1 $54 $55 $30 $-1 $56 forward single #
face $-1 $57 $58 $31 $-1 $59 forward single #
face $-1 $60 $61 $32 $-1 $62 forward single #
face $-1 $63 $64 $33 $-1 $65 reversed single #
face $-1 $66 $67 $34 $-1 $68 forward single #
face $-1 $69 $70 $35 $-1 $71 forward single #
face $-1 $72 $73 $27 $-1 $74 reversed single #
loop $-1 $-1 $75 $36 #
plane-surface $-1 0 0 7.6950584022803987 0 0 1 1 0 0 forward_v I I I I #
face $-1 $76 $77 $28 $-1 $78 reversed single #
loop $-1 $-1 $79 $37 #
plane-surface $-1 -43.226746381560545 0 4.688286017022155 0 0 1 1 0 0 forward_v I I I I #
face $-1 $80 $81 $29 $-1 $82 reversed single #
loop $-1 $-1 $83 $38 #
plane-surface $-1 -21.570910411452676 69.751188593682954 103.93000685704918 1 0 0 0 -0.78801076186113728 -0.61566146476048833 forward_v I I I I #
face $-1 $84 $85 $30 $-1 $86 forward single #
loop $-1 $87 $88 $39 #
cone-surface $-1 -18.916384239725755 23.092348019119779 4.4788794820780753 0 -0.78801076186113728 -0.61566146476048833 1 0 0 1 I I 0 1 1 forward I I I I #
face $-1 $89 $90 $31 $-1 $91 forward single #
loop $-1 $92 $93 $40 #
cone-surface $-1 -14.934594982135366 23.092348019119779 4.4788794820780753 0 -0.78801076186113728 -0.61566146476048833 1 0 0 1 I I 0 1 1 forward I I I I #
face $-1 $94 $95 $32 $-1 $96 forward single #
loop $-1 $97 $98 $41 #
cone-surface $-1 -10.95280572454498 23.092348019119779 4.4788794820780753 0 -0.78801076186113728 -0.61566146476048833 1 0 0 1 I I 0 1 1 forward I I I I #
face $-1 $99 $100 $33 $-1 $101 reversed single #
loop $-1 $-1 $102 $42 #
plane-surface $-1 -18.786543929225303 -100.91523028237746 62.690221350427819 -1 0 0 0 -0.77714596973225614 0.62932038083071107 forward_v I I I I #
face $-1 $103 $104 $34 $-1 $105 forward single #
loop $-1 $106 $107 $43 #
cone-surface $-1 -30.733174380042566 -23.516101350721524 4.6016425502837306 0 0.77714596973225614 -0.62932038083071107 1 0 0 1 I I 0 1 1 forward I I I I #
face $-1 $108 $109 $35 $-1 $110 forward single #
loop $-1 $111 $112 $44 #
cone-surface $-1 -23.565196109552211 -23.516101350721524 4.6016425502837306 0 0.77714596973225614 -0.62932038083071107 1 0 0 1 I I 0 1 1 forward I I I I #
face $-1 $113 $114 $27 $-1 $115 reversed single #
loop $-1 $-1 $116 $45 #
plane-surface $-1 0 0 -7.6950584022803987 0 0 1 1 0 0 forward_v I I I I #
coedge $-1 $117 $118 $119 $120 forward $46 $-1 #
face $-1 $121 $122 $28 $-1 $123 reversed single #
loop $-1 $-1 $124 $48 #
plane-surface $-1 -38.356321828949518 0 6.1916722096512764 -1 0 0 0 0 1 forward_v I I I I #
coedge $-1 $125 $126 $127 $128 forward $49 $-1 #
face $-1 $129 $130 $29 $-1 $131 reversed single #
loop $-1 $-1 $132 $51 #
plane-surface $-1 -14.934594982135366 -6.0509880287208233 44.706857440713868 0 0.78801076186113728 0.61566146476048833 1 0 0 forward_v I I I I #
coedge $-1 $133 $134 $135 $136 reversed $52 $-1 #
face $-1 $-1 $137 $30 $-1 $138 forward single #
loop $-1 $139 $140 $54 #
cone-surface $-1 -18.916384239725755 21.278699177121499 3.0619017494534155 0 -0.78801076186113728 -0.61566146476048833 0.5 0 0 1 I I -0.70710678118654746 0.70710678118654746 0.5 forward I I I I #
loop $-1 $-1 $141 $39 #
coedge $-1 $88 $88 $142 $143 reversed $55 $-1 #
face $-1 $-1 $144 $31 $-1 $145 forward single #
loop $-1 $146 $147 $57 #
cone-surface $-1 -14.934594982135366 21.278699177121499 3.0619017494534155 0 -0.78801076186113728 -0.61566146476048833 0.5 0 0 1 I I -0.70710678118654746 0.70710678118654746 0.5 forward I I I I #
loop $-1 $-1 $148 $40 #
coedge $-1 $93 $93 $149 $150 reversed $58 $-1 #
face $-1 $-1 $151 $32 $-1 $152 forward single #
loop $-1 $153 $154 $60 #
cone-surface $-1 -10.95280572454498 21.278699177121499 3.0619017494534155 0 -0.78801076186113728 -0.61566146476048833 0.5 0 0 1 I I -0.70710678118654746 0.70710678118654746 0.5 forward I I I I #
loop $-1 $-1 $155 $41 #
coedge $-1 $98 $98 $156 $157 reversed $61 $-1 #
face $-1 $158 $159 $33 $-1 $160 reversed single #
loop $-1 $-1 $161 $63 #
plane-surface $-1 -27.149185244797387 -26.158185188347758 2.1531614920824964 0 -0.77714596973225614 0.62932038083071107 1 0 0 forward_v I I I I #
coedge $-1 $162 $163 $164 $165 reversed $64 $-1 #
face $-1 $-1 $166 $34 $-1 $167 forward single #
loop $-1 $168 $169 $66 #
cone-surface $-1 -30.733174380042566 -22.729314283644495 3.9645149629706538 0 0.77714596973225614 -0.62932038083071107 0.5 0 0 1 I I -0.70710678118654724 0.70710678118654791 0.5 forward I I I I #
loop $-1 $-1 $170 $43 #
coedge $-1 $107 $107 $171 $172 reversed $67 $-1 #
face $-1 $-1 $173 $35 $-1 $174 forward single #
loop $-1 $175 $176 $69 #
cone-surface $-1 -23.565196109552211 -22.729314283644495 3.9645149629706538 0 0.77714596973225614 -0.62932038083071107 0.5 0 0 1 I I -0.70710678118654724 0.70710678118654791 0.5 forward I I I I #
loop $-1 $-1 $177 $44 #
coedge $-1 $112 $112 $178 $179 reversed $70 $-1 #
face $-1 $180 $181 $27 $-1 $182 reversed single #
loop $-1 $-1 $183 $72 #
plane-surface $-1 0 -26.158185188347769 0 0 1 0 0 0 1 forward_v I I I I #
coedge $-1 $184 $185 $186 $187 forward $73 $-1 #
coedge $-1 $188 $75 $189 $190 forward $46 $-1 #
coedge $-1 $75 $188 $191 $192 forward $46 $-1 #
coedge $-1 $193 $194 $75 $120 reversed $195 $-1 #
edge $-1 $196 -26.158185188347769 $197 26.158185188347769 $119 $198 forward 7 unknown #
face $-1 $199 $200 $28 $-1 $201 reversed single #
loop $-1 $-1 $202 $76 #
plane-surface $-1 0 26.158185188347769 0 0 -1 0 0 0 -1 forward_v I I I I #
coedge $-1 $127 $203 $204 $205 reversed $77 $-1 #
coedge $-1 $206 $79 $207 $208 reversed $49 $-1 #
coedge $-1 $79 $206 $209 $210 reversed $49 $-1 #
coedge $-1 $211 $124 $79 $128 reversed $77 $-1 #
edge $-1 $212 -26.158185188347769 $213 26.158185188347769 $127 $214 forward 7 unknown #
face $-1 $215 $216 $29 $-1 $217 forward single #
loop $-1 $-1 $218 $80 #
plane-surface $-1 -8.2982795528180553 69.751188593682954 103.93000685704918 -1 0 0 0 0.78801076186113728 0.61566146476048833 forward_v I I I I #
coedge $-1 $219 $220 $221 $222 reversed $81 $-1 #
coedge $-1 $134 $83 $223 $224 reversed $52 $-1 #
coedge $-1 $83 $133 $219 $225 reversed $52 $-1 #
coedge $-1 $221 $226 $83 $136 forward $216 $-1 #
edge $-1 $227 8.7174091084937082 $228 12.009796524814259 $135 $229 forward 7 unknown #
loop $-1 $-1 $142 $84 #
plane-surface $-1 -14.934594982135366 -6.0509880287208233 44.706857440713868 0 0.78801076186113728 0.61566146476048833 1 0 0 forward_v I I I I #
loop $-1 $-1 $230 $54 #
coedge $-1 $140 $140 $141 $231 reversed $85 $-1 #
coedge $-1 $141 $141 $140 $231 forward $87 $-1 #
coedge $-1 $142 $142 $88 $143 forward $137 $-1 #
edge $-1 $232 -1.5749612020238124e-015 $232 6.2831853071795987 $142 $233 forward 7 unknown #
loop $-1 $-1 $149 $89 #
plane-surface $-1 -14.934594982135366 -6.0509880287208233 44.706857440713868 0 0.78801076186113728 0.61566146476048833 1 0 0 forward_v I I I I #
loop $-1 $-1 $234 $57 #
coedge $-1 $147 $147 $148 $235 reversed $90 $-1 #
coedge $-1 $148 $148 $147 $235 forward $92 $-1 #
coedge $-1 $149 $149 $93 $150 forward $144 $-1 #
edge $-1 $236 -1.5749612020238124e-015 $236 6.2831853071795987 $149 $237 forward 7 unknown #
loop $-1 $-1 $156 $94 #
plane-surface $-1 -14.934594982135366 -6.0509880287208233 44.706857440713868 0 0.78801076186113728 0.61566146476048833 1 0 0 forward_v I I I I #
loop $-1 $-1 $238 $60 #
coedge $-1 $154 $154 $155 $239 reversed $95 $-1 #
coedge $-1 $155 $155 $154 $239 forward $97 $-1 #
coedge $-1 $156 $156 $98 $157 forward $151 $-1 #
edge $-1 $240 -1.5749612020238124e-015 $240 6.2831853071795987 $156 $241 forward 7 unknown #
face $-1 $242 $243 $33 $-1 $244 reversed single #
loop $-1 $-1 $245 $99 #
plane-surface $-1 -35.511826560369471 -100.91523028237746 62.690221350427819 1 0 0 0 0.77714596973225614 -0.62932038083071107 forward_v I I I I #
coedge $-1 $246 $247 $248 $249 reversed $100 $-1 #
coedge $-1 $163 $102 $250 $251 reversed $64 $-1 #
coedge $-1 $102 $162 $246 $252 reversed $64 $-1 #
coedge $-1 $248 $253 $102 $165 forward $254 $-1 #
edge $-1 $255 24.299429952840963 $256 28.787169463671674 $164 $257 forward 7 unknown #
loop $-1 $-1 $171 $103 #
plane-surface $-1 -27.149185244797387 -26.158185188347758 2.1531614920824964 0 -0.77714596973225614 0.62932038083071107 1 0 0 forward_v I I I I #
loop $-1 $-1 $258 $66 #
coedge $-1 $169 $169 $170 $259 reversed $104 $-1 #
coedge $-1 $170 $170 $169 $259 forward $106 $-1 #
coedge $-1 $171 $171 $107 $172 forward $166 $-1 #
edge $-1 $260 8.8530169602865924e-016 $260 6.2831853071796013 $171 $261 forward 7 unknown #
loop $-1 $-1 $178 $108 #
plane-surface $-1 -27.149185244797387 -26.158185188347758 2.1531614920824964 0 -0.77714596973225614 0.62932038083071107 1 0 0 forward_v I I I I #
loop $-1 $-1 $262 $69 #
coedge $-1 $176 $176 $177 $263 reversed $109 $-1 #
coedge $-1 $177 $177 $176 $263 forward $111 $-1 #
coedge $-1 $178 $178 $112 $179 forward $173 $-1 #
edge $-1 $264 8.8530169602865924e-016 $264 6.2831853071796013 $178 $265 forward 7 unknown #
face $-1 $266 $267 $27 $-1 $268 reversed single #
loop $-1 $-1 $269 $113 #
plane-surface $-1 -48.097170934171572 0 0 1 0 0 0 0 -1 forward_v I I I I #
coedge $-1 $270 $191 $271 $272 forward $114 $-1 #
coedge $-1 $273 $116 $270 $274 forward $73 $-1 #
coedge $-1 $116 $273 $275 $276 forward $73 $-1 #
coedge $-1 $194 $193 $116 $187 reversed $195 $-1 #
edge $-1 $277 -26.158185188347769 $278 26.158185188347769 $186 $279 forward 7 unknown #
coedge $-1 $118 $117 $280 $281 forward $46 $-1 #
coedge $-1 $282 $283 $117 $190 reversed $267 $-1 #
edge $-1 $197 -48.097170934171572 $284 48.097170934171572 $189 $285 forward 7 unknown #
coedge $-1 $183 $286 $118 $192 reversed $114 $-1 #
edge $-1 $287 -48.097170934171572 $196 48.097170934171572 $191 $288 forward 7 unknown #
coedge $-1 $186 $119 $286 $289 forward $195 $-1 #
coedge $-1 $119 $186 $282 $290 reversed $195 $-1 #
loop $-1 $-1 $193 $266 #
vertex $-1 $120 $291 #
vertex $-1 $120 $292 #
straight-curve $-1 48.097170934171572 0 7.6950584022803987 0 1 0 I I #
face $-1 $293 $294 $28 $-1 $295 forward single #
loop $-1 $-1 $296 $121 #
plane-surface $-1 -48.097170934171572 0 0 1 0 0 0 0 -1 forward_v I I I I #
coedge $-1 $209 $297 $211 $298 forward $122 $-1 #
coedge $-1 $124 $211 $299 $300 reversed $77 $-1 #
coedge $-1 $301 $207 $124 $205 forward $302 $-1 #
edge $-1 $213 1.5924499121965168 $303 4.5992222974547596 $204 $304 forward 7 unknown #
coedge $-1 $126 $125 $296 $305 reversed $49 $-1 #
coedge $-1 $204 $306 $125 $208 forward $302 $-1 #
edge $-1 $307 -26.4837977433913 $213 -16.742948638169246 $207 $308 forward 7 unknown #
coedge $-1 $309 $202 $126 $210 forward $122 $-1 #
edge $-1 $212 16.742948638169246 $310 26.4837977433913 $209 $311 forward 7 unknown #
coedge $-1 $203 $127 $202 $298 reversed $77 $-1 #
vertex $-1 $210 $312 #
vertex $-1 $208 $313 #
straight-curve $-1 -38.356321828949518 0 4.688286017022155 0 -1 0 I I #
face $-1 $-1 $314 $29 $-1 $315 reversed single #
loop $-1 $-1 $135 $129 #
plane-surface $-1 0 0 7.6950584022803987 0 0 1 1 0 0 forward_v I I I I #
coedge $-1 $316 $317 $318 $319 reversed $130 $-1 #
coedge $-1 $320 $132 $134 $225 forward $81 $-1 #
coedge $-1 $132 $320 $316 $321 forward $81 $-1 #
coedge $-1 $318 $135 $132 $222 forward $216 $-1 #
edge $-1 $228 -14.103612920384993 $322 -0.83098206175037248 $221 $323 forward 7 unknown #
coedge $-1 $324 $325 $133 $224 forward $314 $-1 #
edge $-1 $326 -48.484008866160003 $227 -44.269945026244187 $223 $327 forward 7 unknown #
edge $-1 $228 46.968646660381097 $326 52.316370376695545 $134 $328 forward 7 unknown #
coedge $-1 $135 $318 $324 $329 forward $216 $-1 #
vertex $-1 $224 $330 #
vertex $-1 $136 $331 #
straight-curve $-1 -21.570910411452676 34.875594296841477 7.6950584022803952 0 -1 0 I I #
coedge $-1 $230 $230 $-1 $332 reversed $139 $-1 #
edge $-1 $333 0 $333 6.2831853071796004 $140 $334 forward 7 unknown #
vertex $-1 $143 $335 #
ellipse-curve $-1 -18.916384239725755 24.511991480187497 5.5880264823224941 0 0.78801076186113728 0.61566146476048833 1 0 0 1 I I #
coedge $-1 $234 $234 $-1 $336 reversed $146 $-1 #
edge $-1 $337 0 $337 6.2831853071796004 $147 $338 forward 7 unknown #
vertex $-1 $150 $339 #
ellipse-curve $-1 -14.934594982135366 24.511991480187497 5.5880264823224941 0 0.78801076186113728 0.61566146476048833 1 0 0 1 I I #
coedge $-1 $238 $238 $-1 $340 reversed $153 $-1 #
edge $-1 $341 0 $341 6.2831853071796004 $154 $342 forward 7 unknown #
vertex $-1 $157 $343 #
ellipse-curve $-1 -10.95280572454498 24.511991480187497 5.5880264823224941 0 0.78801076186113728 0.61566146476048833 1 0 0 1 I I #
face $-1 $-1 $254 $33 $-1 $344 forward single #
loop $-1 $-1 $345 $158 #
plane-surface $-1 0 -26.158185188347769 0 0 1 0 0 0 1 forward_v I I I I #
coedge $-1 $346 $347 $348 $349 reversed $159 $-1 #
coedge $-1 $350 $161 $163 $252 forward $100 $-1 #
coedge $-1 $161 $350 $346 $351 forward $100 $-1 #
coedge $-1 $348 $164 $161 $249 forward $254 $-1 #
edge $-1 $256 5.2119513068266095 $352 21.937233937970777 $248 $353 forward 7 unknown #
coedge $-1 $354 $355 $162 $251 forward $243 $-1 #
edge $-1 $356 -29.191949183131428 $255 -23.650052272933511 $250 $357 forward 7 unknown #
edge $-1 $256 -7.1310887864569477 $356 1.7061049565072372e-014 $163 $358 forward 7 unknown #
coedge $-1 $164 $348 $354 $359 forward $254 $-1 #
loop $-1 $-1 $348 $242 #
vertex $-1 $251 $360 #
vertex $-1 $165 $361 #
straight-curve $-1 -18.786543929225303 -50.457615141188732 7.6950584022803987 0 1 0 I I #
coedge $-1 $258 $258 $-1 $362 reversed $168 $-1 #
edge $-1 $363 0 $363 6.2831853071796004 $169 $364 forward 7 unknown #
vertex $-1 $172 $365 #
ellipse-curve $-1 -30.733174380042566 -23.914315432932412 4.9241099471814422 0 -0.77714596973225614 0.62932038083071107 1 0 0 1 I I #
coedge $-1 $262 $262 $-1 $366 reversed $175 $-1 #
edge $-1 $367 0 $367 6.2831853071796004 $176 $368 forward 7 unknown #
vertex $-1 $179 $369 #
ellipse-curve $-1 -23.565196109552211 -23.914315432932412 4.9241099471814422 0 -0.77714596973225614 0.62932038083071107 1 0 0 1 I I #
face $-1 $-1 $195 $27 $-1 $370 reversed single #
loop $-1 $-1 $282 $180 #
plane-surface $-1 0 26.158185188347769 0 0 -1 0 0 0 -1 forward_v I I I I #
coedge $-1 $371 $280 $283 $372 forward $181 $-1 #
coedge $-1 $286 $183 $184 $274 reversed $114 $-1 #
coedge $-1 $280 $371 $183 $272 reversed $181 $-1 #
edge $-1 $287 -7.6950584022803987 $373 7.6950584022803987 $271 $374 forward 7 unknown #
coedge $-1 $185 $184 $371 $375 forward $73 $-1 #
edge $-1 $278 -48.097170934171572 $373 48.097170934171572 $270 $376 forward 7 unknown #
coedge $-1 $283 $282 $185 $276 reversed $267 $-1 #
edge $-1 $377 -48.097170934171572 $277 48.097170934171572 $275 $378 forward 7 unknown #
vertex $-1 $187 $379 #
vertex $-1 $289 $380 #
straight-curve $-1 48.097170934171572 0 -7.6950584022803987 0 -1 0 I I #
coedge $-1 $269 $271 $188 $281 reversed $181 $-1 #
edge $-1 $284 -26.158185188347769 $287 26.158185188347769 $280 $381 forward 7 unknown #
coedge $-1 $275 $189 $194 $290 forward $267 $-1 #
coedge $-1 $189 $275 $269 $372 reversed $267 $-1 #
vertex $-1 $190 $382 #
straight-curve $-1 0 26.158185188347769 7.6950584022803987 -1 0 0 I I #
coedge $-1 $191 $270 $193 $289 reversed $114 $-1 #
vertex $-1 $281 $383 #
straight-curve $-1 0 -26.158185188347769 7.6950584022803987 1 0 0 I I #
edge $-1 $196 -7.6950584022803987 $278 7.6950584022803987 $193 $384 forward 7 unknown #
edge $-1 $197 -7.6950584022803987 $277 7.6950584022803987 $194 $385 forward 7 unknown #
point $-1 48.097170934171572 -26.158185188347769 7.6950584022803987 #
point $-1 48.097170934171572 26.158185188347769 7.6950584022803987 #
face $-1 $-1 $302 $28 $-1 $386 reversed single #
loop $-1 $-1 $299 $199 #
plane-surface $-1 0 0 7.6950584022803987 0 0 1 1 0 0 forward_v I I I I #
coedge $-1 $387 $388 $206 $305 forward $200 $-1 #
coedge $-1 $202 $309 $389 $390 reversed $122 $-1 #
edge $-1 $391 -4.5992222974547596 $212 -1.5924499121965168 $202 $392 forward 7 unknown #
coedge $-1 $389 $393 $203 $300 forward $294 $-1 #
edge $-1 $303 -26.158185188347769 $391 26.158185188347769 $299 $394 forward 7 unknown #
coedge $-1 $306 $204 $393 $395 reversed $302 $-1 #
loop $-1 $-1 $204 $293 #
vertex $-1 $205 $396 #
straight-curve $-1 -38.356321828949518 -26.158185188347769 3.0958361048256382 0 0 1 I I #
edge $-1 $310 -26.158185188347769 $307 26.158185188347769 $296 $397 forward 7 unknown #
coedge $-1 $207 $301 $387 $398 forward $302 $-1 #
vertex $-1 $305 $399 #
straight-curve $-1 -21.613373190780273 -26.158185188347769 4.688286017022155 1 0 0 I I #
coedge $-1 $297 $209 $388 $400 reversed $122 $-1 #
vertex $-1 $305 $401 #
straight-curve $-1 -21.613373190780273 26.158185188347769 4.688286017022155 -1 0 0 I I #
point $-1 -38.356321828949518 26.158185188347769 4.688286017022155 #
point $-1 -38.356321828949518 -26.158185188347769 4.688286017022155 #
loop $-1 $-1 $223 $215 #
plane-surface $-1 0 26.158185188347769 0 0 -1 0 0 0 -1 forward_v I I I I #
coedge $-1 $317 $218 $220 $321 reversed $130 $-1 #
coedge $-1 $218 $316 $402 $403 reversed $130 $-1 #
coedge $-1 $226 $221 $218 $319 forward $216 $-1 #
edge $-1 $322 -12.009796524814259 $404 -8.7174091084937082 $318 $405 forward 7 unknown #
coedge $-1 $220 $219 $325 $406 reversed $81 $-1 #
edge $-1 $407 -52.316370376695545 $322 -46.968646660381097 $316 $408 forward 7 unknown #
vertex $-1 $222 $409 #
straight-curve $-1 -7.4672974910676828 22.865797772027218 7.6950584022803987 1 0 0 I I #
coedge $-1 $402 $223 $226 $329 reversed $314 $-1 #
coedge $-1 $223 $402 $320 $406 forward $314 $-1 #
vertex $-1 $224 $410 #
straight-curve $-1 -21.570910411452676 26.158185188347769 51.965003428524589 0 0 1 I I #
straight-curve $-1 -21.570910411452676 -6.0509880287208233 44.706857440713868 0 0.61566146476048833 -0.78801076186113728 I I #
edge $-1 $404 8.2982795528180553 $227 21.570910411452676 $324 $411 forward 7 unknown #
point $-1 -21.570910411452676 26.158185188347769 7.6950584022803987 #
point $-1 -21.570910411452676 22.865797772027218 7.6950584022804023 #
edge $-1 $412 1 $412 0 $230 $-1 forward 7 unknown #
vertex $-1 $231 $413 #
ellipse-curve $-1 -18.916384239725755 21.672704558052068 3.3697324818336596 0 0.78801076186113728 0.61566146476048833 1 0 0 1 I I #
point $-1 -17.916384239725755 24.51199148018749 5.5880264823224906 #
edge $-1 $414 1 $414 0 $234 $-1 forward 7 unknown #
vertex $-1 $235 $415 #
ellipse-curve $-1 -14.934594982135366 21.672704558052068 3.3697324818336596 0 0.78801076186113728 0.61566146476048833 1 0 0 1 I I #
point $-1 -13.934594982135366 24.51199148018749 5.5880264823224906 #
edge $-1 $416 1 $416 0 $238 $-1 forward 7 unknown #
vertex $-1 $239 $417 #
ellipse-curve $-1 -10.95280572454498 21.672704558052068 3.3697324818336596 0 0.78801076186113728 0.61566146476048833 1 0 0 1 I I #
point $-1 -9.9528057245449801 24.51199148018749 5.5880264823224906 #
plane-surface $-1 0 0 7.6950584022803987 0 0 1 1 0 0 forward_v I I I I #
coedge $-1 $355 $354 $347 $418 forward $243 $-1 #
coedge $-1 $347 $245 $247 $351 reversed $159 $-1 #
coedge $-1 $245 $346 $345 $418 reversed $159 $-1 #
coedge $-1 $253 $248 $245 $349 forward $254 $-1 #
edge $-1 $352 -28.787169463671674 $419 -24.299429952840963 $348 $420 forward 7 unknown #
coedge $-1 $247 $246 $355 $421 reversed $100 $-1 #
edge $-1 $422 -1.7061049565072372e-014 $352 7.1310887864569477 $346 $423 forward 7 unknown #
vertex $-1 $249 $424 #
straight-curve $-1 -13.574592622398693 -21.670445677517055 7.6950584022803987 -1 0 0 I I #
coedge $-1 $345 $250 $253 $359 reversed $243 $-1 #
coedge $-1 $250 $345 $350 $421 forward $243 $-1 #
vertex $-1 $251 $425 #
straight-curve $-1 -18.786543929225303 -26.158185188347765 31.34511067521391 0 0 1 I I #
straight-curve $-1 -18.786543929225303 -26.158185188347758 2.1531614920824964 0 -0.62932038083071107 -0.77714596973225614 I I #
edge $-1 $419 -35.511826560369471 $255 -18.786543929225303 $354 $426 forward 7 unknown #
point $-1 -18.786543929225303 -26.158185188347769 7.6950584022803987 #
point $-1 -18.786543929225303 -21.670445677517058 7.6950584022803987 #
edge $-1 $427 1 $427 0 $258 $-1 forward 7 unknown #
vertex $-1 $259 $428 #
ellipse-curve $-1 -30.733174380042566 -23.117887268510625 4.2791751533860092 0 -0.77714596973225614 0.62932038083071107 1 0 0 1 I I #
point $-1 -29.733174380042566 -23.914315432932423 4.924109947181452 #
edge $-1 $429 1 $429 0 $262 $-1 forward 7 unknown #
vertex $-1 $263 $430 #
ellipse-curve $-1 -23.565196109552211 -23.117887268510625 4.2791751533860092 0 -0.77714596973225614 0.62932038083071107 1 0 0 1 I I #
point $-1 -22.565196109552211 -23.914315432932423 4.924109947181452 #
plane-surface $-1 48.097170934171572 0 0 -1 0 0 0 0 1 forward_v I I I I #
coedge $-1 $271 $269 $273 $375 reversed $181 $-1 #
edge $-1 $284 -7.6950584022803987 $377 7.6950584022803987 $283 $431 forward 7 unknown #
vertex $-1 $375 $432 #
straight-curve $-1 -48.097170934171572 -26.158185188347769 0 0 0 -1 I I #
edge $-1 $373 -26.158185188347769 $377 26.158185188347769 $371 $433 forward 7 unknown #
straight-curve $-1 0 -26.158185188347769 -7.6950584022803987 -1 0 0 I I #
vertex $-1 $276 $434 #
straight-curve $-1 0 26.158185188347769 -7.6950584022803987 1 0 0 I I #
point $-1 48.097170934171572 26.158185188347769 -7.6950584022803987 #
point $-1 48.097170934171572 -26.158185188347769 -7.6950584022803987 #
straight-curve $-1 -48.097170934171572 0 7.6950584022803987 0 -1 0 I I #
point $-1 -48.097170934171572 26.158185188347769 7.6950584022803987 #
point $-1 -48.097170934171572 -26.158185188347769 7.6950584022803987 #
straight-curve $-1 48.097170934171572 -26.158185188347769 0 0 0 -1 I I #
straight-curve $-1 48.097170934171572 26.158185188347769 0 0 0 -1 I I #
plane-surface $-1 0 -26.158185188347769 0 0 1 0 0 0 1 forward_v I I I I #
coedge $-1 $435 $296 $306 $398 reversed $200 $-1 #
coedge $-1 $296 $435 $309 $400 forward $200 $-1 #
coedge $-1 $436 $299 $297 $390 forward $294 $-1 #
edge $-1 $391 38.356321828949518 $437 48.097170934171572 $297 $438 forward 7 unknown #
vertex $-1 $390 $439 #
straight-curve $-1 -38.356321828949518 26.158185188347769 3.0958361048256382 0 0 -1 I I #
coedge $-1 $299 $436 $301 $395 forward $294 $-1 #
straight-curve $-1 -38.356321828949518 0 7.6950584022803987 0 1 0 I I #
edge $-1 $440 -48.097170934171572 $303 -38.356321828949518 $301 $441 forward 7 unknown #
point $-1 -38.356321828949518 -26.158185188347769 7.6950584022803978 #
straight-curve $-1 -48.097170934171572 0 4.688286017022155 0 -1 0 I I #
edge $-1 $440 -7.6950584022803987 $307 -4.688286017022155 $387 $442 forward 7 unknown #
point $-1 -48.097170934171572 -26.158185188347769 4.688286017022155 #
edge $-1 $437 -7.6950584022803987 $310 -4.688286017022155 $309 $443 forward 7 unknown #
point $-1 -48.097170934171572 26.158185188347769 4.688286017022155 #
coedge $-1 $325 $324 $317 $403 forward $314 $-1 #
edge $-1 $404 44.269945026244187 $407 48.484008866160003 $402 $444 forward 7 unknown #
vertex $-1 $329 $445 #
straight-curve $-1 -8.2982795528180553 34.875594296841477 7.6950584022803952 0 1 0 I I #
edge $-1 $407 0.83098206175037248 $326 14.103612920384993 $325 $446 forward 7 unknown #
vertex $-1 $406 $447 #
straight-curve $-1 -8.2982795528180553 -6.0509880287208233 44.706857440713868 0 -0.61566146476048833 0.78801076186113728 I I #
point $-1 -8.2982795528180553 22.865797772027218 7.6950584022804023 #
point $-1 -21.570910411452676 26.158185188347773 3.4809945623645859 #
straight-curve $-1 0 26.158185188347769 7.6950584022803987 -1 0 0 I I #
vertex $-1 $332 $448 #
point $-1 -17.916384239725755 21.672704558052068 3.3697324818336596 #
vertex $-1 $336 $449 #
point $-1 -13.934594982135366 21.672704558052068 3.3697324818336596 #
vertex $-1 $340 $450 #
point $-1 -9.9528057245449801 21.672704558052068 3.3697324818336596 #
edge $-1 $419 23.650052272933511 $422 29.191949183131428 $345 $451 forward 7 unknown #
vertex $-1 $359 $452 #
straight-curve $-1 -35.511826560369471 -50.457615141188732 7.6950584022803987 0 -1 0 I I #
edge $-1 $422 -21.937233937970777 $356 -5.2119513068266095 $355 $453 forward 7 unknown #
vertex $-1 $421 $454 #
straight-curve $-1 -35.511826560369471 -26.158185188347758 2.1531614920824964 0 0.62932038083071107 0.77714596973225614 I I #
point $-1 -35.511826560369471 -21.670445677517058 7.6950584022803987 #
point $-1 -18.786543929225303 -26.158185188347769 2.1531614920824831 #
straight-curve $-1 0 -26.158185188347769 7.6950584022803987 1 0 0 I I #
vertex $-1 $362 $455 #
point $-1 -29.733174380042566 -23.117887268510625 4.2791751533860092 #
vertex $-1 $366 $456 #
point $-1 -22.565196109552211 -23.117887268510625 4.2791751533860092 #
straight-curve $-1 -48.097170934171572 26.158185188347769 0 0 0 -1 I I #
point $-1 -48.097170934171572 -26.158185188347769 -7.6950584022803987 #
straight-curve $-1 -48.097170934171572 0 -7.6950584022803987 0 1 0 I I #
point $-1 -48.097170934171572 26.158185188347769 -7.6950584022803987 #
coedge $-1 $388 $387 $436 $457 reversed $200 $-1 #
coedge $-1 $393 $389 $435 $457 forward $294 $-1 #
vertex $-1 $390 $458 #
straight-curve $-1 0 26.158185188347769 7.6950584022803987 -1 0 0 I I #
point $-1 -38.356321828949518 26.158185188347769 7.6950584022803978 #
vertex $-1 $457 $459 #
straight-curve $-1 0 -26.158185188347769 7.6950584022803987 1 0 0 I I #
straight-curve $-1 -48.097170934171572 -26.158185188347769 0 0 0 -1 I I #
straight-curve $-1 -48.097170934171572 26.158185188347769 0 0 0 -1 I I #
straight-curve $-1 -8.2982795528180553 26.158185188347769 51.965003428524589 0 0 -1 I I #
point $-1 -8.2982795528180553 26.158185188347769 7.6950584022803987 #
straight-curve $-1 -7.4672974910676828 26.158185188347773 3.4809945623645824 -1 0 0 I I #
point $-1 -8.2982795528180553 26.158185188347773 3.4809945623645859 #
point $-1 -18.916384239725755 20.88469379619093 2.7540710170731715 #
point $-1 -14.934594982135366 20.88469379619093 2.7540710170731715 #
point $-1 -10.95280572454498 20.88469379619093 2.7540710170731715 #
straight-curve $-1 -35.511826560369471 -26.158185188347765 31.34511067521391 0 0 -1 I I #
point $-1 -35.511826560369471 -26.158185188347769 7.6950584022803987 #
straight-curve $-1 -13.574592622398693 -26.158185188347769 2.1531614920824866 1 0 0 I I #
point $-1 -35.511826560369471 -26.158185188347769 2.1531614920824831 #
point $-1 -30.733174380042566 -22.340741298778365 3.6498547725552979 #
point $-1 -23.565196109552211 -22.340741298778365 3.6498547725552979 #
edge $-1 $437 -26.158185188347769 $440 26.158185188347769 $435 $460 forward 7 unknown #
point $-1 -48.097170934171572 26.158185188347769 7.6950584022803987 #
point $-1 -48.097170934171572 -26.158185188347769 7.6950584022803987 #
straight-curve $-1 -48.097170934171572 0 7.6950584022803987 0 -1 0 I I #
End-of-ACIS-data 