500 0 8 0           
7 Unknown 11 ACIS 5.0 NT 24 Thu Mar 25 21:53:21 1999 
-1 9.9999999999999995e-007 1e-010 
body $-1 $8 $-1 $9 #
body $-1 $10 $-1 $11 #
body $-1 $12 $-1 $13 #
body $-1 $14 $-1 $15 #
body $-1 $16 $-1 $17 #
body $-1 $18 $-1 $19 #
body $-1 $20 $-1 $21 #
body $-1 $22 $-1 $23 #
lump $-1 $-1 $24 $0 #
transform $-1 1 0 0 0 1 0 0 0 1 46.3502914517655 21.407534281498883 7.2926212320436727 1 rotate no_reflect no_shear #
lump $-1 $-1 $25 $1 #
transform $-1 1 0 0 0 1 0 0 0 1 46.3502914517655 21.407534281498883 7.2926212320436727 1 rotate no_reflect no_shear #
lump $-1 $-1 $26 $2 #
transform $-1 1 0 0 0 1 0 0 0 1 46.3502914517655 21.407534281498883 7.2926212320436727 1 rotate no_reflect no_shear #
lump $-1 $-1 $27 $3 #
transform $-1 1 0 0 0 1 0 0 0 1 46.3502914517655 21.407534281498883 7.2926212320436727 1 rotate no_reflect no_shear #
lump $-1 $-1 $28 $4 #
transform $-1 1 0 0 0 1 0 0 0 1 46.3502914517655 21.407534281498883 7.2926212320436727 1 rotate no_reflect no_shear #
lump $-1 $-1 $29 $5 #
transform $-1 1 0 0 0 1 0 0 0 1 46.3502914517655 21.407534281498883 7.2926212320436727 1 rotate no_reflect no_shear #
lump $-1 $-1 $30 $6 #
transform $-1 1 0 0 0 1 0 0 0 1 46.3502914517655 21.407534281498883 7.2926212320436727 1 rotate no_reflect no_shear #
lump $-1 $-1 $31 $7 #
transform $-1 1 0 0 0 1 0 0 0 1 46.3502914517655 21.407534281498883 7.2926212320436727 1 rotate no_reflect no_shear #
shell $-1 $-1 $-1 $32 $-1 $8 #
shell $-1 $-1 $-1 $33 $-1 $10 #
shell $-1 $-1 $-1 $34 $-1 $12 #
shell $-1 $-1 $-1 $35 $-1 $14 #
shell $-1 $-1 $-1 $36 $-1 $16 #
shell $-1 $-1 $-1 $37 $-1 $18 #
shell $-1 $-1 $-1 $38 $-1 $20 #
shell $-1 $-1 $-1 $39 $-1 $22 #
face $-1 $40 $41 $24 $-1 $42 forward single #
face $-1 $43 $44 $25 $-1 $45 forward single #
face $-1 $46 $47 $26 $-1 $48 reversed single #
face $-1 $49 $50 $27 $-1 $51 forward single #
face $-1 $52 $53 $28 $-1 $54 forward single #
face $-1 $55 $56 $29 $-1 $57 reversed single #
face $-1 $58 $59 $30 $-1 $60 forward single #
face $-1 $61 $62 $31 $-1 $63 forward single #
face $-1 $64 $65 $24 $-1 $66 reversed single #
loop $-1 $-1 $67 $32 #
plane-surface $-1 0 0 7.2926212320436727 0 0 1 1 0 0 forward_v I I I I #
face $-1 $68 $69 $25 $-1 $70 reversed single #
loop $-1 $-1 $71 $33 #
plane-surface $-1 0 -18.319107965648772 -3.0290480789869685 0 0 1 1 0 0 forward_v I I I I #
face $-1 $72 $73 $26 $-1 $74 reversed single #
loop $-1 $-1 $75 $34 #
plane-surface $-1 71.365051427407082 15.353761062494261 129.25007979712743 0 1 0 0.82903758062907751 0 0.55919289150049634 forward_v I I I I #
face $-1 $76 $77 $27 $-1 $78 forward single #
loop $-1 $79 $80 $35 #
cone-surface $-1 43.665270692535259 17.083410553638444 3.6468670834075274 -0.82903758062907751 0 -0.55919289150049634 0.27959644575024817 0 -0.41451879031453875 1 I I 0 1 0.5 forward I I I I #
face $-1 $81 $82 $28 $-1 $83 forward single #
loop $-1 $84 $85 $36 #
cone-surface $-1 43.665270692535259 19.67788479035471 3.6468670834075274 -0.82903758062907751 0 -0.55919289150049634 0.27959644575024817 0 -0.41451879031453875 1 I I 0 1 0.5 forward I I I I #
face $-1 $86 $87 $29 $-1 $88 reversed single #
loop $-1 $-1 $89 $37 #
plane-surface $-1 -95.474116786619234 -8.2895379563897578 82.01804679601112 0 1 0 -0.52991927123019833 0 0.84804809178421925 forward_v I I I I #
face $-1 $90 $91 $30 $-1 $92 forward single #
loop $-1 $93 $94 $38 #
cone-surface $-1 -42.841850168154465 -5.6164742239310037 4.7135422442459483 0.52991927123019833 0 -0.84804809178421925 0.84804809178421925 0 0.52991927123019833 1 I I 0 1 1 forward I I I I #
face $-1 $95 $96 $31 $-1 $97 forward single #
loop $-1 $98 $99 $39 #
cone-surface $-1 -42.841850168154465 -1.6068786252428708 4.7135422442459483 0.52991927123019833 0 -0.84804809178421925 0.84804809178421925 0 0.52991927123019833 1 I I 0 1 1 forward I I I I #
face $-1 $100 $101 $24 $-1 $102 reversed single #
loop $-1 $-1 $103 $40 #
plane-surface $-1 0 0 -7.2926212320436727 0 0 1 1 0 0 forward_v I I I I #
coedge $-1 $104 $105 $106 $107 forward $41 $-1 #
face $-1 $108 $109 $25 $-1 $110 reversed single #
loop $-1 $-1 $111 $43 #
plane-surface $-1 0 -18.319107965648772 -6.069706357023624 0 0 1 1 0 0 forward_v I I I I #
coedge $-1 $112 $113 $114 $115 reversed $44 $-1 #
face $-1 $116 $117 $26 $-1 $118 forward single #
loop $-1 $-1 $119 $46 #
plane-surface $-1 -5.4872155458414795 18.38064767199657 77.412572799520447 0.82903758062907751 0 0.55919289150049634 0.55919289150049634 0 -0.82903758062907751 forward_v I I I I #
coedge $-1 $120 $121 $122 $123 reversed $47 $-1 #
face $-1 $-1 $124 $27 $-1 $125 forward single #
loop $-1 $126 $127 $49 #
cone-surface $-1 43.043492507063448 17.083410553638444 3.227472414782155 -0.82903758062907751 0 -0.55919289150049634 0.13979822287512408 0 -0.20725939515726938 1 I I -0.70710678118654746 0.70710678118654746 0.25 forward I I I I #
loop $-1 $-1 $128 $35 #
coedge $-1 $80 $80 $129 $130 reversed $50 $-1 #
face $-1 $-1 $131 $28 $-1 $132 forward single #
loop $-1 $133 $134 $52 #
cone-surface $-1 43.043492507063448 19.67788479035471 3.227472414782155 -0.82903758062907751 0 -0.55919289150049634 0.13979822287512408 0 -0.20725939515726938 1 I I -0.70710678118654746 0.70710678118654746 0.25 forward I I I I #
loop $-1 $-1 $135 $36 #
coedge $-1 $85 $85 $136 $137 reversed $53 $-1 #
face $-1 $138 $139 $29 $-1 $140 reversed single #
loop $-1 $-1 $141 $55 #
plane-surface $-1 -46.350291451765507 -3.6116764245869355 3.4034943573868333 -0.52991927123019833 0 0.84804809178421925 0.84804809178421925 0 0.52991927123019833 forward_v I I I I #
coedge $-1 $142 $143 $144 $145 reversed $56 $-1 #
face $-1 $-1 $146 $30 $-1 $147 forward single #
loop $-1 $148 $149 $58 #
cone-surface $-1 -42.180401204461873 -5.6164742239310037 3.6550026478845306 0.52991927123019833 0 -0.84804809178421925 0.42402404589210962 0 0.26495963561509916 1 I I -0.70710678118654746 0.70710678118654746 0.5 forward I I I I #
loop $-1 $-1 $150 $38 #
coedge $-1 $94 $94 $151 $152 reversed $59 $-1 #
face $-1 $-1 $153 $31 $-1 $154 forward single #
loop $-1 $155 $156 $61 #
cone-surface $-1 -42.180401204461873 -1.6068786252428708 3.6550026478845306 0.52991927123019833 0 -0.84804809178421925 0.42402404589210962 0 0.26495963561509916 1 I I -0.70710678118654746 0.70710678118654746 0.5 forward I I I I #
loop $-1 $-1 $157 $39 #
coedge $-1 $99 $99 $158 $159 reversed $62 $-1 #
face $-1 $160 $161 $24 $-1 $162 reversed single #
loop $-1 $-1 $163 $64 #
plane-surface $-1 0 -21.407534281498883 0 0 1 0 0 0 1 forward_v I I I I #
coedge $-1 $164 $165 $166 $167 forward $65 $-1 #
coedge $-1 $168 $67 $169 $170 forward $41 $-1 #
coedge $-1 $67 $168 $171 $172 forward $41 $-1 #
coedge $-1 $173 $174 $67 $107 reversed $175 $-1 #
edge $-1 $176 -21.407534281498883 $177 21.407534281498883 $106 $178 forward 7 unknown #
face $-1 $179 $180 $25 $-1 $181 reversed single #
loop $-1 $-1 $182 $68 #
plane-surface $-1 0 -15.230681649798662 -4.5493772180052963 0 -1 0 0 0 -1 forward_v I I I I #
coedge $-1 $183 $184 $185 $186 reversed $69 $-1 #
coedge $-1 $187 $71 $188 $189 forward $44 $-1 #
coedge $-1 $71 $187 $190 $191 reversed $44 $-1 #
coedge $-1 $192 $193 $71 $115 forward $194 $-1 #
edge $-1 $195 6.0711276669742755 $196 12.247980298674497 $114 $197 forward 7 unknown #
face $-1 $198 $199 $26 $-1 $200 reversed single #
loop $-1 $-1 $201 $72 #
plane-surface $-1 0 0 7.2926212320436727 0 0 1 1 0 0 forward_v I I I I #
coedge $-1 $202 $203 $204 $205 reversed $73 $-1 #
coedge $-1 $121 $75 $206 $207 reversed $47 $-1 #
coedge $-1 $75 $120 $202 $208 reversed $47 $-1 #
coedge $-1 $204 $209 $75 $123 forward $199 $-1 #
edge $-1 $210 57.332418666520041 $211 64.064734072291827 $122 $212 forward 7 unknown #
loop $-1 $-1 $129 $76 #
plane-surface $-1 -5.4872155458414795 18.38064767199657 77.412572799520447 0.82903758062907751 0 0.55919289150049634 0.55919289150049634 0 -0.82903758062907751 forward_v I I I I #
loop $-1 $-1 $213 $49 #
coedge $-1 $127 $127 $128 $214 reversed $77 $-1 #
coedge $-1 $128 $128 $127 $214 forward $79 $-1 #
coedge $-1 $129 $129 $80 $130 forward $124 $-1 #
edge $-1 $215 0 $215 6.2831853071796004 $129 $216 forward 7 unknown #
loop $-1 $-1 $136 $81 #
plane-surface $-1 -5.4872155458414795 18.38064767199657 77.412572799520447 0.82903758062907751 0 0.55919289150049634 0.55919289150049634 0 -0.82903758062907751 forward_v I I I I #
loop $-1 $-1 $217 $52 #
coedge $-1 $134 $134 $135 $218 reversed $82 $-1 #
coedge $-1 $135 $135 $134 $218 forward $84 $-1 #
coedge $-1 $136 $136 $85 $137 forward $131 $-1 #
edge $-1 $219 0 $219 6.2831853071796004 $136 $220 forward 7 unknown #
face $-1 $221 $222 $29 $-1 $223 reversed single #
loop $-1 $-1 $224 $86 #
plane-surface $-1 -95.474116786619234 1.0661851072158868 82.01804679601112 0 -1 0 0.52991927123019833 0 -0.84804809178421925 forward_v I I I I #
coedge $-1 $225 $226 $227 $228 reversed $87 $-1 #
coedge $-1 $143 $89 $229 $230 reversed $56 $-1 #
coedge $-1 $89 $142 $225 $231 reversed $56 $-1 #
coedge $-1 $227 $232 $89 $145 forward $233 $-1 #
edge $-1 $234 1.3867669415441171 $235 7.6106708526112072 $144 $236 forward 7 unknown #
loop $-1 $-1 $151 $90 #
plane-surface $-1 -46.350291451765507 -3.6116764245869355 3.4034943573868333 -0.52991927123019833 0 0.84804809178421925 0.84804809178421925 0 0.52991927123019833 forward_v I I I I #
loop $-1 $-1 $237 $58 #
coedge $-1 $149 $149 $150 $238 reversed $91 $-1 #
coedge $-1 $150 $150 $149 $238 forward $93 $-1 #
coedge $-1 $151 $151 $94 $152 forward $146 $-1 #
edge $-1 $239 0 $239 6.2831853071796004 $151 $240 forward 7 unknown #
loop $-1 $-1 $158 $95 #
plane-surface $-1 -46.350291451765507 -3.6116764245869355 3.4034943573868333 -0.52991927123019833 0 0.84804809178421925 0.84804809178421925 0 0.52991927123019833 forward_v I I I I #
loop $-1 $-1 $241 $61 #
coedge $-1 $156 $156 $157 $242 reversed $96 $-1 #
coedge $-1 $157 $157 $156 $242 forward $98 $-1 #
coedge $-1 $158 $158 $99 $159 forward $153 $-1 #
edge $-1 $243 0 $243 6.2831853071796004 $158 $244 forward 7 unknown #
face $-1 $245 $246 $24 $-1 $247 reversed single #
loop $-1 $-1 $248 $100 #
plane-surface $-1 -46.3502914517655 0 0 1 0 0 0 0 -1 forward_v I I I I #
coedge $-1 $249 $171 $250 $251 forward $101 $-1 #
coedge $-1 $252 $103 $249 $253 forward $65 $-1 #
coedge $-1 $103 $252 $254 $255 forward $65 $-1 #
coedge $-1 $174 $173 $103 $167 reversed $175 $-1 #
edge $-1 $256 -21.407534281498883 $257 21.407534281498883 $166 $258 forward 7 unknown #
coedge $-1 $105 $104 $259 $260 forward $41 $-1 #
coedge $-1 $261 $262 $104 $170 reversed $246 $-1 #
edge $-1 $177 -46.3502914517655 $263 46.3502914517655 $169 $264 forward 7 unknown #
coedge $-1 $163 $265 $105 $172 reversed $101 $-1 #
edge $-1 $266 -46.3502914517655 $176 46.3502914517655 $171 $267 forward 7 unknown #
coedge $-1 $166 $106 $265 $268 forward $175 $-1 #
coedge $-1 $106 $166 $261 $269 reversed $175 $-1 #
loop $-1 $-1 $173 $245 #
vertex $-1 $107 $270 #
vertex $-1 $107 $271 #
straight-curve $-1 46.3502914517655 0 7.2926212320436727 0 1 0 I I #
face $-1 $272 $273 $25 $-1 $274 reversed single #
loop $-1 $-1 $275 $108 #
plane-surface $-1 -46.3502914517655 0 0 1 0 0 0 0 -1 forward_v I I I I #
coedge $-1 $276 $188 $193 $277 reversed $109 $-1 #
coedge $-1 $278 $111 $279 $280 reversed $69 $-1 #
coedge $-1 $111 $278 $276 $281 forward $69 $-1 #
coedge $-1 $193 $192 $111 $186 forward $194 $-1 #
edge $-1 $282 -12.247980298674497 $283 -6.0711276669742755 $185 $284 forward 7 unknown #
coedge $-1 $113 $112 $275 $285 reversed $44 $-1 #
coedge $-1 $182 $286 $112 $189 reversed $109 $-1 #
edge $-1 $195 -46.3502914517655 $287 46.3502914517655 $188 $288 forward 7 unknown #
coedge $-1 $289 $290 $113 $191 forward $273 $-1 #
edge $-1 $196 -46.3502914517655 $291 46.3502914517655 $190 $292 forward 7 unknown #
coedge $-1 $185 $114 $290 $293 forward $194 $-1 #
coedge $-1 $114 $185 $182 $277 forward $194 $-1 #
loop $-1 $-1 $114 $272 #
vertex $-1 $115 $294 #
vertex $-1 $293 $295 #
straight-curve $-1 46.3502914517655 -9.1595539828243862 -3.0290480789869685 0 -1 0 I I #
face $-1 $-1 $296 $26 $-1 $297 reversed single #
loop $-1 $-1 $122 $116 #
plane-surface $-1 46.3502914517655 0 0 -1 0 0 0 0 1 forward_v I I I I #
coedge $-1 $206 $298 $299 $300 forward $117 $-1 #
coedge $-1 $299 $119 $121 $208 forward $73 $-1 #
coedge $-1 $119 $299 $301 $302 reversed $73 $-1 #
coedge $-1 $303 $122 $119 $205 forward $199 $-1 #
edge $-1 $211 6.1634372264959758 $304 12.217210445500594 $204 $305 forward 7 unknown #
coedge $-1 $306 $201 $120 $207 forward $117 $-1 #
edge $-1 $307 6.1267618002305468 $210 10.667765738061959 $206 $308 forward 7 unknown #
edge $-1 $211 -92.700582903531 $307 -84.579943305187015 $121 $309 forward 7 unknown #
coedge $-1 $122 $303 $306 $310 reversed $199 $-1 #
vertex $-1 $310 $311 #
vertex $-1 $123 $312 #
straight-curve $-1 46.3502914517655 15.353761062494261 64.625039898563713 0 0 -1 I I #
coedge $-1 $213 $213 $-1 $313 reversed $126 $-1 #
edge $-1 $314 0 $314 6.2831853071796004 $127 $315 forward 7 unknown #
vertex $-1 $130 $316 #
ellipse-curve $-1 44.07978948284979 17.083410553638444 3.9264635291577714 0.82903758062907751 0 0.55919289150049634 0.27959644575024817 0 -0.41451879031453875 1 I I #
coedge $-1 $217 $217 $-1 $317 reversed $133 $-1 #
edge $-1 $318 0 $318 6.2831853071796004 $134 $319 forward 7 unknown #
vertex $-1 $137 $320 #
ellipse-curve $-1 44.07978948284979 19.67788479035471 3.9264635291577714 0.82903758062907751 0 0.55919289150049634 0.27959644575024817 0 -0.41451879031453875 1 I I #
face $-1 $-1 $233 $29 $-1 $321 forward single #
loop $-1 $-1 $322 $138 #
plane-surface $-1 -46.3502914517655 0 0 1 0 0 0 0 -1 forward_v I I I I #
coedge $-1 $323 $324 $325 $326 reversed $139 $-1 #
coedge $-1 $327 $141 $143 $231 forward $87 $-1 #
coedge $-1 $141 $327 $323 $328 forward $87 $-1 #
coedge $-1 $325 $144 $141 $228 forward $233 $-1 #
edge $-1 $235 -6.48369974409629 $329 2.8720233195093545 $227 $330 forward 7 unknown #
coedge $-1 $331 $332 $142 $230 forward $222 $-1 #
edge $-1 $333 -37.60552904061872 $234 -33.716402165961888 $229 $334 forward 7 unknown #
edge $-1 $235 -7.3390931143687226 $333 -8.3790584163743152e-015 $143 $335 forward 7 unknown #
coedge $-1 $144 $325 $331 $336 forward $233 $-1 #
loop $-1 $-1 $325 $221 #
vertex $-1 $230 $337 #
vertex $-1 $145 $338 #
straight-curve $-1 -47.737058393309617 -8.2895379563897578 7.2926212320436719 1 0 0 I I #
coedge $-1 $237 $237 $-1 $339 reversed $148 $-1 #
edge $-1 $340 0 $340 6.2831853071796004 $149 $341 forward 7 unknown #
vertex $-1 $152 $342 #
ellipse-curve $-1 -43.238339496231958 -5.6164742239310037 5.3480577947152552 -0.52991927123019833 0 0.84804809178421925 0.84804809178421925 0 0.52991927123019833 1 I I #
coedge $-1 $241 $241 $-1 $343 reversed $155 $-1 #
edge $-1 $344 0 $344 6.2831853071796004 $156 $345 forward 7 unknown #
vertex $-1 $159 $346 #
ellipse-curve $-1 -43.238339496231958 -1.6068786252428708 5.3480577947152552 -0.52991927123019833 0 0.84804809178421925 0.84804809178421925 0 0.52991927123019833 1 I I #
face $-1 $-1 $175 $24 $-1 $347 reversed single #
loop $-1 $-1 $261 $160 #
plane-surface $-1 0 21.407534281498883 0 0 -1 0 0 0 -1 forward_v I I I I #
coedge $-1 $348 $259 $262 $349 forward $161 $-1 #
coedge $-1 $265 $163 $164 $253 reversed $101 $-1 #
coedge $-1 $259 $348 $163 $251 reversed $161 $-1 #
edge $-1 $266 -7.2926212320436727 $350 7.2926212320436727 $250 $351 forward 7 unknown #
coedge $-1 $165 $164 $348 $352 forward $65 $-1 #
edge $-1 $257 -46.3502914517655 $350 46.3502914517655 $249 $353 forward 7 unknown #
coedge $-1 $262 $261 $165 $255 reversed $246 $-1 #
edge $-1 $354 -46.3502914517655 $256 46.3502914517655 $254 $355 forward 7 unknown #
vertex $-1 $167 $356 #
vertex $-1 $268 $357 #
straight-curve $-1 46.3502914517655 0 -7.2926212320436727 0 -1 0 I I #
coedge $-1 $248 $250 $168 $260 reversed $161 $-1 #
edge $-1 $263 -21.407534281498883 $266 21.407534281498883 $259 $358 forward 7 unknown #
coedge $-1 $254 $169 $174 $269 forward $246 $-1 #
coedge $-1 $169 $254 $248 $349 reversed $246 $-1 #
vertex $-1 $170 $359 #
straight-curve $-1 0 21.407534281498883 7.2926212320436727 -1 0 0 I I #
coedge $-1 $171 $249 $173 $268 reversed $101 $-1 #
vertex $-1 $260 $360 #
straight-curve $-1 0 -21.407534281498883 7.2926212320436727 1 0 0 I I #
edge $-1 $176 -7.2926212320436727 $257 7.2926212320436727 $173 $361 forward 7 unknown #
edge $-1 $177 -7.2926212320436727 $256 7.2926212320436727 $174 $362 forward 7 unknown #
point $-1 46.3502914517655 -21.407534281498883 7.2926212320436727 #
point $-1 46.3502914517655 21.407534281498883 7.2926212320436727 #
face $-1 $-1 $194 $25 $-1 $363 reversed single #
loop $-1 $-1 $190 $179 #
plane-surface $-1 0 -21.407534281498883 0 0 1 0 0 0 1 forward_v I I I I #
coedge $-1 $364 $365 $187 $285 forward $180 $-1 #
coedge $-1 $286 $182 $184 $281 reversed $109 $-1 #
edge $-1 $283 -3.7950177480209759 $195 -0.75435946998432035 $193 $366 forward 7 unknown #
coedge $-1 $184 $183 $367 $368 reversed $69 $-1 #
coedge $-1 $290 $289 $183 $280 forward $273 $-1 #
edge $-1 $369 -46.3502914517655 $282 46.3502914517655 $279 $370 forward 7 unknown #
edge $-1 $371 -46.3502914517655 $283 46.3502914517655 $276 $372 forward 7 unknown #
vertex $-1 $280 $373 #
vertex $-1 $186 $374 #
straight-curve $-1 46.3502914517655 -9.1595539828243862 -6.069706357023624 0 1 0 I I #
edge $-1 $291 -12.247980298674497 $287 -6.0711276669742755 $275 $375 forward 7 unknown #
coedge $-1 $188 $276 $364 $376 reversed $109 $-1 #
vertex $-1 $285 $377 #
straight-curve $-1 0 -15.230681649798662 -3.0290480789869685 -1 0 0 I I #
coedge $-1 $279 $190 $365 $378 forward $273 $-1 #
coedge $-1 $190 $279 $192 $293 reversed $273 $-1 #
vertex $-1 $378 $379 #
straight-curve $-1 0 -21.407534281498883 -3.0290480789869685 -1 0 0 I I #
edge $-1 $196 3.0290480789869685 $282 6.069706357023624 $192 $380 forward 7 unknown #
point $-1 46.3502914517655 -15.230681649798662 -3.0290480789869685 #
point $-1 46.3502914517655 -21.407534281498883 -3.0290480789869685 #
loop $-1 $-1 $301 $198 #
plane-surface $-1 0 21.407534281498883 0 0 -1 0 0 0 -1 forward_v I I I I #
coedge $-1 $201 $306 $381 $382 forward $117 $-1 #
coedge $-1 $203 $202 $201 $300 reversed $73 $-1 #
edge $-1 $383 -12.217210445500594 $307 -6.1634372264959758 $201 $384 forward 7 unknown #
coedge $-1 $381 $385 $203 $302 forward $296 $-1 #
edge $-1 $304 -59.077410907854834 $383 -50.956771309510842 $301 $386 forward 7 unknown #
coedge $-1 $209 $204 $385 $387 reversed $199 $-1 #
vertex $-1 $302 $388 #
straight-curve $-1 46.3502914517655 9.1903238359982851 0.56030582627187187 0 1 0 I I #
coedge $-1 $298 $206 $209 $310 forward $117 $-1 #
vertex $-1 $207 $389 #
straight-curve $-1 35.682525713703541 15.353761062494261 7.2926212320436719 1 0 0 I I #
straight-curve $-1 -5.4872155458414795 15.353761062494261 77.412572799520447 -0.55919289150049634 0 0.82903758062907751 I I #
edge $-1 $210 15.353761062494261 $390 21.407534281498883 $209 $391 forward 7 unknown #
point $-1 46.3502914517655 15.353761062494261 7.2926212320436727 #
point $-1 46.3502914517655 15.353761062494261 0.56030582627188608 #
edge $-1 $392 1 $392 0 $213 $-1 forward 7 unknown #
vertex $-1 $214 $393 #
ellipse-curve $-1 43.250751902220721 17.083410553638444 3.367270637657279 0.82903758062907751 0 0.55919289150049634 0.27959644575024817 0 -0.41451879031453875 1 I I #
point $-1 44.359385928600041 17.083410553638444 3.5119447388432365 #
edge $-1 $394 1 $394 0 $217 $-1 forward 7 unknown #
vertex $-1 $218 $395 #
ellipse-curve $-1 43.250751902220721 19.67788479035471 3.367270637657279 0.82903758062907751 0 0.55919289150049634 0.27959644575024817 0 -0.41451879031453875 1 I I #
point $-1 44.359385928600041 19.67788479035471 3.5119447388432365 #
plane-surface $-1 0 0 7.2926212320436727 0 0 1 1 0 0 forward_v I I I I #
coedge $-1 $332 $331 $324 $396 forward $222 $-1 #
coedge $-1 $324 $224 $226 $328 reversed $139 $-1 #
coedge $-1 $224 $323 $322 $396 reversed $139 $-1 #
coedge $-1 $232 $227 $224 $326 forward $233 $-1 #
edge $-1 $329 -7.6106708526112072 $397 -1.3867669415441171 $325 $398 forward 7 unknown #
coedge $-1 $226 $225 $332 $399 reversed $87 $-1 #
edge $-1 $400 8.3790584163743152e-015 $329 7.3390931143687226 $323 $401 forward 7 unknown #
vertex $-1 $228 $402 #
straight-curve $-1 -40.126387540698417 -1.8058382122934677 7.2926212320436719 0 1 0 I I #
coedge $-1 $322 $229 $232 $336 reversed $222 $-1 #
coedge $-1 $229 $322 $327 $399 forward $222 $-1 #
vertex $-1 $230 $403 #
straight-curve $-1 -46.3502914517655 -8.2895379563897578 41.00902339800556 0 0 1 I I #
straight-curve $-1 -46.350291451765507 -8.2895379563897578 3.4034943573868333 -0.84804809178421925 0 -0.52991927123019833 I I #
edge $-1 $397 -1.0661851072158868 $234 8.2895379563897578 $331 $404 forward 7 unknown #
point $-1 -46.3502914517655 -8.2895379563897578 7.2926212320436727 #
point $-1 -40.12638754069841 -8.2895379563897578 7.2926212320436727 #
edge $-1 $405 1 $405 0 $237 $-1 forward 7 unknown #
vertex $-1 $238 $406 #
ellipse-curve $-1 -42.445360840076972 -5.6164742239310037 4.0790266937766404 -0.52991927123019833 0 0.84804809178421925 0.84804809178421925 0 0.52991927123019833 1 I I #
point $-1 -42.390291404447737 -5.6164742239310037 5.8779770659454549 #
edge $-1 $407 1 $407 0 $241 $-1 forward 7 unknown #
vertex $-1 $242 $408 #
ellipse-curve $-1 -42.445360840076972 -1.6068786252428708 4.0790266937766404 -0.52991927123019833 0 0.84804809178421925 0.84804809178421925 0 0.52991927123019833 1 I I #
point $-1 -42.390291404447737 -1.6068786252428708 5.8779770659454549 #
plane-surface $-1 46.3502914517655 0 0 -1 0 0 0 0 1 forward_v I I I I #
coedge $-1 $250 $248 $252 $352 reversed $161 $-1 #
edge $-1 $263 -7.2926212320436727 $354 7.2926212320436727 $262 $409 forward 7 unknown #
vertex $-1 $352 $410 #
straight-curve $-1 -46.3502914517655 -21.407534281498883 0 0 0 -1 I I #
edge $-1 $350 -21.407534281498883 $354 21.407534281498883 $348 $411 forward 7 unknown #
straight-curve $-1 0 -21.407534281498883 -7.2926212320436727 -1 0 0 I I #
vertex $-1 $255 $412 #
straight-curve $-1 0 21.407534281498883 -7.2926212320436727 1 0 0 I I #
point $-1 46.3502914517655 21.407534281498883 -7.2926212320436727 #
point $-1 46.3502914517655 -21.407534281498883 -7.2926212320436727 #
straight-curve $-1 -46.3502914517655 0 7.2926212320436727 0 -1 0 I I #
point $-1 -46.3502914517655 21.407534281498883 7.2926212320436727 #
point $-1 -46.3502914517655 -21.407534281498883 7.2926212320436727 #
straight-curve $-1 46.3502914517655 -21.407534281498883 0 0 0 -1 I I #
straight-curve $-1 46.3502914517655 21.407534281498883 0 0 0 -1 I I #
plane-surface $-1 46.3502914517655 0 0 -1 0 0 0 0 1 forward_v I I I I #
coedge $-1 $367 $275 $286 $376 forward $180 $-1 #
coedge $-1 $275 $367 $289 $378 reversed $180 $-1 #
straight-curve $-1 46.3502914517655 -15.230681649798662 -2.2746886090026481 0 0 1 I I #
coedge $-1 $365 $364 $278 $368 forward $180 $-1 #
edge $-1 $371 6.0711276669742755 $369 12.247980298674497 $367 $413 forward 7 unknown #
vertex $-1 $280 $414 #
straight-curve $-1 0 -21.407534281498883 -6.069706357023624 1 0 0 I I #
vertex $-1 $368 $415 #
straight-curve $-1 0 -15.230681649798662 -6.069706357023624 1 0 0 I I #
point $-1 46.3502914517655 -21.407534281498883 -6.069706357023624 #
point $-1 46.3502914517655 -15.230681649798662 -6.069706357023624 #
straight-curve $-1 -46.3502914517655 -9.1595539828243862 -3.0290480789869685 0 1 0 I I #
edge $-1 $287 0.75435946998432035 $371 3.7950177480209759 $364 $416 forward 7 unknown #
point $-1 -46.3502914517655 -15.230681649798662 -3.0290480789869685 #
edge $-1 $291 3.0290480789869685 $369 6.069706357023624 $365 $417 forward 7 unknown #
point $-1 -46.3502914517655 -21.407534281498883 -3.0290480789869685 #
straight-curve $-1 46.3502914517655 -21.407534281498883 0 0 0 -1 I I #
coedge $-1 $385 $301 $298 $382 reversed $296 $-1 #
edge $-1 $390 -46.3502914517655 $383 -41.809287513934088 $381 $418 forward 7 unknown #
vertex $-1 $302 $419 #
straight-curve $-1 41.80928751393408 9.1903238359982851 7.2926212320436719 0 -1 0 I I #
coedge $-1 $301 $381 $303 $387 forward $296 $-1 #
straight-curve $-1 13.314623223839188 21.407534281498883 49.537699635149728 -0.55919289150049634 0 0.82903758062907751 I I #
edge $-1 $390 -7.2926212320436727 $304 -0.56030582627188608 $303 $420 forward 7 unknown #
point $-1 46.3502914517655 21.407534281498879 0.56030582627188608 #
point $-1 41.809287513934088 15.353761062494261 7.2926212320436719 #
vertex $-1 $310 $421 #
straight-curve $-1 46.3502914517655 0 7.2926212320436727 0 1 0 I I #
vertex $-1 $313 $422 #
point $-1 43.530348347970964 17.083410553638444 2.9527518473427401 #
vertex $-1 $317 $423 #
point $-1 43.530348347970964 19.67788479035471 2.9527518473427401 #
edge $-1 $397 33.716402165961888 $400 37.60552904061872 $322 $424 forward 7 unknown #
vertex $-1 $336 $425 #
straight-curve $-1 -47.737058393309617 1.0661851072158868 7.2926212320436719 -1 0 0 I I #
edge $-1 $400 -2.8720233195093545 $333 6.48369974409629 $332 $426 forward 7 unknown #
vertex $-1 $399 $427 #
straight-curve $-1 -46.350291451765507 1.0661851072158868 3.4034943573868333 0.84804809178421925 0 0.52991927123019833 I I #
point $-1 -40.12638754069841 1.0661851072158868 7.2926212320436727 #
point $-1 -46.3502914517655 -8.2895379563897578 3.4034943573868377 #
straight-curve $-1 -46.3502914517655 0 7.2926212320436727 0 -1 0 I I #
vertex $-1 $339 $428 #
point $-1 -41.597312748292751 -5.6164742239310037 4.6089459650068383 #
vertex $-1 $343 $429 #
point $-1 -41.597312748292751 -1.6068786252428708 4.6089459650068383 #
straight-curve $-1 -46.3502914517655 21.407534281498883 0 0 0 -1 I I #
point $-1 -46.3502914517655 -21.407534281498883 -7.2926212320436727 #
straight-curve $-1 -46.3502914517655 0 -7.2926212320436727 0 1 0 I I #
point $-1 -46.3502914517655 21.407534281498883 -7.2926212320436727 #
straight-curve $-1 -46.3502914517655 -9.1595539828243862 -6.069706357023624 0 -1 0 I I #
point $-1 -46.3502914517655 -21.407534281498883 -6.069706357023624 #
point $-1 -46.3502914517655 -15.230681649798662 -6.069706357023624 #
straight-curve $-1 -46.3502914517655 -15.230681649798662 -2.2746886090026481 0 0 -1 I I #
straight-curve $-1 -46.3502914517655 -21.407534281498883 0 0 0 -1 I I #
straight-curve $-1 0 21.407534281498883 7.2926212320436727 -1 0 0 I I #
point $-1 41.809287513934088 21.407534281498879 7.2926212320436719 #
straight-curve $-1 46.3502914517655 21.407534281498883 0 0 0 -1 I I #
point $-1 46.3502914517655 21.407534281498883 7.2926212320436727 #
point $-1 42.836233111906175 17.083410553638444 3.087674191907031 #
point $-1 42.836233111906175 19.67788479035471 3.087674191907031 #
straight-curve $-1 -46.3502914517655 1.0661851072158868 41.00902339800556 0 0 -1 I I #
point $-1 -46.3502914517655 1.0661851072158868 7.2926212320436727 #
straight-curve $-1 -46.3502914517655 -1.8058382122934677 3.403494357386835 0 -1 0 I I #
point $-1 -46.3502914517655 1.0661851072158868 3.4034943573868377 #
point $-1 -41.915441568846774 -5.6164742239310037 3.2309786019924207 #
point $-1 -41.915441568846774 -1.6068786252428708 3.2309786019924207 #
End-of-ACIS-data 