500 0 17 0           
7 Unknown 11 ACIS 5.0 NT 24 Thu Mar 25 17:50:16 1999 
-1 9.9999999999999995e-007 1e-010 
body $-1 $17 $-1 $18 #
body $-1 $19 $-1 $20 #
body $-1 $21 $-1 $22 #
body $-1 $23 $-1 $24 #
body $-1 $25 $-1 $26 #
body $-1 $27 $-1 $28 #
body $-1 $29 $-1 $30 #
body $-1 $31 $-1 $32 #
body $-1 $33 $-1 $34 #
body $-1 $35 $-1 $36 #
body $-1 $37 $-1 $38 #
body $-1 $39 $-1 $40 #
body $-1 $41 $-1 $42 #
body $-1 $43 $-1 $44 #
body $-1 $45 $-1 $46 #
body $-1 $47 $-1 $48 #
body $-1 $49 $-1 $50 #
lump $-1 $-1 $51 $0 #
transform $-1 1 0 0 0 1 0 0 0 1 65.373088778344055 31.960331909686044 9.7053404523132727 1 rotate no_reflect no_shear #
lump $-1 $-1 $52 $1 #
transform $-1 1 0 0 0 1 0 0 0 1 65.373088778344055 31.960331909686044 9.7053404523132727 1 rotate no_reflect no_shear #
lump $-1 $-1 $53 $2 #
transform $-1 1 0 0 0 1 0 0 0 1 65.373088778344055 31.960331909686044 9.7053404523132727 1 rotate no_reflect no_shear #
lump $-1 $-1 $54 $3 #
transform $-1 1 0 0 0 1 0 0 0 1 65.373088778344055 31.960331909686044 9.7053404523132727 1 rotate no_reflect no_shear #
lump $-1 $-1 $55 $4 #
transform $-1 1 0 0 0 1 0 0 0 1 65.373088778344055 31.960331909686044 9.7053404523132727 1 rotate no_reflect no_shear #
lump $-1 $-1 $56 $5 #
transform $-1 1 0 0 0 1 0 0 0 1 65.373088778344055 31.960331909686044 9.7053404523132727 1 rotate no_reflect no_shear #
lump $-1 $-1 $57 $6 #
transform $-1 1 0 0 0 1 0 0 0 1 65.373088778344055 31.960331909686044 9.7053404523132727 1 rotate no_reflect no_shear #
lump $-1 $-1 $58 $7 #
transform $-1 1 0 0 0 1 0 0 0 1 65.373088778344055 31.960331909686044 9.7053404523132727 1 rotate no_reflect no_shear #
lump $-1 $-1 $59 $8 #
transform $-1 1 0 0 0 1 0 0 0 1 65.373088778344055 31.960331909686044 9.7053404523132727 1 rotate no_reflect no_shear #
lump $-1 $-1 $60 $9 #
transform $-1 1 0 0 0 1 0 0 0 1 65.373088778344055 31.960331909686044 9.7053404523132727 1 rotate no_reflect no_shear #
lump $-1 $-1 $61 $10 #
transform $-1 1 0 0 0 1 0 0 0 1 65.373088778344055 31.960331909686044 9.7053404523132727 1 rotate no_reflect no_shear #
lump $-1 $-1 $62 $11 #
transform $-1 1 0 0 0 1 0 0 0 1 65.373088778344055 31.960331909686044 9.7053404523132727 1 rotate no_reflect no_shear #
lump $-1 $-1 $63 $12 #
transform $-1 1 0 0 0 1 0 0 0 1 65.373088778344055 31.960331909686044 9.7053404523132727 1 rotate no_reflect no_shear #
lump $-1 $-1 $64 $13 #
transform $-1 1 0 0 0 1 0 0 0 1 65.373088778344055 31.960331909686044 9.7053404523132727 1 rotate no_reflect no_shear #
lump $-1 $-1 $65 $14 #
transform $-1 1 0 0 0 1 0 0 0 1 65.373088778344055 31.960331909686044 9.7053404523132727 1 rotate no_reflect no_shear #
lump $-1 $-1 $66 $15 #
transform $-1 1 0 0 0 1 0 0 0 1 65.373088778344055 31.960331909686044 9.7053404523132727 1 rotate no_reflect no_shear #
lump $-1 $-1 $67 $16 #
transform $-1 1 0 0 0 1 0 0 0 1 65.373088778344055 31.960331909686044 9.7053404523132727 1 rotate no_reflect no_shear #
shell $-1 $-1 $-1 $68 $-1 $17 #
shell $-1 $-1 $-1 $69 $-1 $19 #
shell $-1 $-1 $-1 $70 $-1 $21 #
shell $-1 $-1 $-1 $71 $-1 $23 #
shell $-1 $-1 $-1 $72 $-1 $25 #
shell $-1 $-1 $-1 $73 $-1 $27 #
shell $-1 $-1 $-1 $74 $-1 $29 #
shell $-1 $-1 $-1 $75 $-1 $31 #
shell $-1 $-1 $-1 $76 $-1 $33 #
shell $-1 $-1 $-1 $77 $-1 $35 #
shell $-1 $-1 $-1 $78 $-1 $37 #
shell $-1 $-1 $-1 $79 $-1 $39 #
shell $-1 $-1 $-1 $80 $-1 $41 #
shell $-1 $-1 $-1 $81 $-1 $43 #
shell $-1 $-1 $-1 $82 $-1 $45 #
shell $-1 $-1 $-1 $83 $-1 $47 #
shell $-1 $-1 $-1 $84 $-1 $49 #
face $-1 $85 $86 $51 $-1 $87 forward single #
face $-1 $88 $89 $52 $-1 $90 forward single #
face $-1 $91 $92 $53 $-1 $93 forward single #
face $-1 $94 $95 $54 $-1 $96 reversed single #
face $-1 $97 $98 $55 $-1 $99 forward single #
face $-1 $100 $101 $56 $-1 $102 forward single #
face $-1 $103 $104 $57 $-1 $105 reversed single #
face $-1 $106 $107 $58 $-1 $108 forward single #
face $-1 $109 $110 $59 $-1 $111 forward single #
face $-1 $112 $113 $60 $-1 $114 reversed single #
face $-1 $115 $116 $61 $-1 $117 forward single #
face $-1 $118 $119 $62 $-1 $120 reversed single #
face $-1 $121 $122 $63 $-1 $123 forward single #
face $-1 $124 $125 $64 $-1 $126 reversed single #
face $-1 $127 $128 $65 $-1 $129 forward single #
face $-1 $130 $131 $66 $-1 $132 reversed single #
face $-1 $133 $134 $67 $-1 $135 forward single #
face $-1 $136 $137 $51 $-1 $138 reversed single #
loop $-1 $-1 $139 $68 #
plane-surface $-1 0 0 9.7053404523132727 0 0 1 1 0 0 forward_v I I I I #
face $-1 $140 $141 $52 $-1 $142 reversed single #
loop $-1 $-1 $143 $69 #
plane-surface $-1 -65.373088778344055 0 0 1 0 0 0 0 -1 forward_v I I I I #
face $-1 $144 $145 $53 $-1 $146 forward single #
loop $-1 $-1 $147 $70 #
plane-surface $-1 65.373088778344055 0 0 -1 0 0 0 0 1 forward_v I I I I #
face $-1 $148 $149 $54 $-1 $150 reversed single #
loop $-1 $-1 $151 $71 #
plane-surface $-1 -22.620098011320152 52.080035849955905 149.151900032263 1 0 0 0 -0.55919291073839883 -0.82903756765294845 forward_v I I I I #
face $-1 $152 $153 $55 $-1 $154 forward single #
loop $-1 $155 $156 $72 #
cone-surface $-1 -16.157212865228679 27.919614117023254 6.524557838904105 0 -0.55919291073839883 -0.82903756765294845 1 0 0 1 I I 0 1 1 forward I I I I #
face $-1 $157 $158 $56 $-1 $159 forward single #
loop $-1 $160 $161 $73 #
cone-surface $-1 -6.4628851460914731 27.919614117023254 6.524557838904105 0 -0.55919291073839883 -0.82903756765294845 1 0 0 1 I I 0 1 1 forward I I I I #
face $-1 $162 $163 $57 $-1 $164 reversed single #
loop $-1 $-1 $165 $74 #
plane-surface $-1 -11.310049005660076 -21.032299745888039 40.758407010745771 0 0.55919291073839883 0.82903756765294845 1 0 0 forward_v I I I I #
face $-1 $166 $167 $58 $-1 $168 forward single #
loop $-1 $169 $170 $75 #
cone-surface $-1 6.4628851460914802 27.919614117023254 6.524557838904105 0 -0.55919291073839883 -0.82903756765294845 1 0 0 1 I I 0 1 1 forward I I I I #
face $-1 $171 $172 $59 $-1 $173 forward single #
loop $-1 $174 $175 $76 #
cone-surface $-1 16.157212865228672 27.919614117023254 6.524557838904105 0 -0.55919291073839883 -0.82903756765294845 1 0 0 1 I I 0 1 1 forward I I I I #
face $-1 $176 $177 $60 $-1 $178 reversed single #
loop $-1 $-1 $179 $77 #
plane-surface $-1 -29.062507412224534 -114.24156851966497 104.31805222854774 -1 0 0 0 -0.62932039886446345 0.77714595512881146 forward_v I I I I #
face $-1 $180 $181 $61 $-1 $182 forward single #
loop $-1 $183 $184 $78 #
cone-surface $-1 -37.085895220132628 -26.869152947262933 5.2546461550900574 0 0.62932039886446345 -0.77714595512881146 1.5 0 0 1 I I 0 1 1.5 forward I I I I #
face $-1 $185 $186 $62 $-1 $187 reversed single #
loop $-1 $-1 $188 $79 #
plane-surface $-1 1.2434497875801753e-014 -114.24156851966497 104.31805222854774 -1 0 0 0 -0.62932039886446345 0.77714595512881146 forward_v I I I I #
face $-1 $189 $190 $63 $-1 $191 forward single #
loop $-1 $192 $193 $80 #
cone-surface $-1 -8.0233878079080796 -26.869152947262933 5.2546461550900574 0 0.62932039886446345 -0.77714595512881146 1.5 0 0 1 I I 0 1 1.5 forward I I I I #
face $-1 $194 $195 $64 $-1 $196 reversed single #
loop $-1 $-1 $197 $81 #
plane-surface $-1 29.062507412224562 -114.24156851966497 104.31805222854774 -1 0 0 0 -0.62932039886446345 0.77714595512881146 forward_v I I I I #
face $-1 $198 $199 $65 $-1 $200 forward single #
loop $-1 $201 $202 $82 #
cone-surface $-1 21.039119604316468 -26.869152947262933 5.2546461550900574 0 0.62932039886446345 -0.77714595512881146 1.5 0 0 1 I I 0 1 1.5 forward I I I I #
face $-1 $203 $204 $66 $-1 $205 reversed single #
loop $-1 $-1 $206 $83 #
plane-surface $-1 58.12501482444911 -114.24156851966497 104.31805222854774 -1 0 0 0 -0.62932039886446345 0.77714595512881146 forward_v I I I I #
face $-1 $207 $208 $67 $-1 $209 forward single #
loop $-1 $210 $211 $84 #
cone-surface $-1 50.101627016541016 -26.869152947262933 5.2546461550900574 0 0.62932039886446345 -0.77714595512881146 1.5 0 0 1 I I 0 1 1.5 forward I I I I #
face $-1 $212 $213 $51 $-1 $214 reversed single #
loop $-1 $-1 $215 $85 #
plane-surface $-1 0 0 -9.7053404523132727 0 0 1 1 0 0 forward_v I I I I #
coedge $-1 $216 $217 $218 $219 forward $86 $-1 #
face $-1 $220 $221 $52 $-1 $222 reversed single #
loop $-1 $-1 $223 $88 #
plane-surface $-1 0 31.960331909686044 0 0 -1 0 0 0 -1 forward_v I I I I #
coedge $-1 $224 $225 $226 $227 forward $89 $-1 #
face $-1 $228 $229 $53 $-1 $230 reversed single #
loop $-1 $-1 $231 $91 #
plane-surface $-1 0 0 9.7053404523132727 0 0 1 1 0 0 forward_v I I I I #
coedge $-1 $232 $233 $234 $235 forward $92 $-1 #
face $-1 $236 $237 $54 $-1 $238 reversed single #
loop $-1 $-1 $239 $94 #
plane-surface $-1 -11.310049005660076 -21.032299745888039 40.758407010745771 0 0.55919291073839883 0.82903756765294845 1 0 0 forward_v I I I I #
coedge $-1 $240 $241 $242 $243 reversed $95 $-1 #
face $-1 $-1 $244 $55 $-1 $245 forward single #
loop $-1 $246 $247 $97 #
cone-surface $-1 -16.157212865228679 27.076583915980553 5.2747141911948852 0 -0.55919291073839883 -0.82903756765294845 0.5 0 0 1 I I -0.70710678118654746 0.70710678118654746 0.5 forward I I I I #
loop $-1 $-1 $248 $72 #
coedge $-1 $156 $156 $249 $250 reversed $98 $-1 #
face $-1 $-1 $251 $56 $-1 $252 forward single #
loop $-1 $253 $254 $100 #
cone-surface $-1 -6.4628851460914731 27.076583915980553 5.2747141911948852 0 -0.55919291073839883 -0.82903756765294845 0.5 0 0 1 I I -0.70710678118654746 0.70710678118654746 0.5 forward I I I I #
loop $-1 $-1 $255 $73 #
coedge $-1 $161 $161 $256 $257 reversed $101 $-1 #
face $-1 $258 $259 $57 $-1 $260 forward single #
loop $-1 $-1 $261 $103 #
plane-surface $-1 22.620098011320152 52.080035849955905 149.151900032263 -1 0 0 0 0.55919291073839883 0.82903756765294845 forward_v I I I I #
coedge $-1 $262 $263 $264 $265 reversed $104 $-1 #
face $-1 $-1 $266 $58 $-1 $267 forward single #
loop $-1 $268 $269 $106 #
cone-surface $-1 6.4628851460914802 27.076583915980553 5.2747141911948852 0 -0.55919291073839883 -0.82903756765294845 0.5 0 0 1 I I -0.70710678118654746 0.70710678118654746 0.5 forward I I I I #
loop $-1 $-1 $270 $75 #
coedge $-1 $170 $170 $271 $272 reversed $107 $-1 #
face $-1 $-1 $273 $59 $-1 $274 forward single #
loop $-1 $275 $276 $109 #
cone-surface $-1 16.157212865228672 27.076583915980553 5.2747141911948852 0 -0.55919291073839883 -0.82903756765294845 0.5 0 0 1 I I -0.70710678118654746 0.70710678118654746 0.5 forward I I I I #
loop $-1 $-1 $277 $76 #
coedge $-1 $175 $175 $278 $279 reversed $110 $-1 #
face $-1 $280 $281 $60 $-1 $282 reversed single #
loop $-1 $-1 $283 $112 #
plane-surface $-1 -37.085895220132628 -31.960331909686047 2.7091891918141897 0 -0.62932039886446345 0.77714595512881146 1 0 0 forward_v I I I I #
coedge $-1 $284 $285 $286 $287 reversed $113 $-1 #
face $-1 $-1 $288 $61 $-1 $289 forward single #
loop $-1 $290 $291 $115 #
cone-surface $-1 -37.085895220132628 -25.625747246015198 3.7191680217697769 0 0.62932039886446345 -0.77714595512881146 0.75 0 0 1 I I -0.70710678118654757 0.70710678118654757 0.75 forward I I I I #
loop $-1 $-1 $292 $78 #
coedge $-1 $184 $184 $293 $294 reversed $116 $-1 #
face $-1 $295 $296 $62 $-1 $297 reversed single #
loop $-1 $-1 $298 $118 #
plane-surface $-1 -8.0233878079080796 -31.960331909686047 2.7091891918141897 0 -0.62932039886446345 0.77714595512881146 1 0 0 forward_v I I I I #
coedge $-1 $299 $300 $301 $302 reversed $119 $-1 #
face $-1 $-1 $303 $63 $-1 $304 forward single #
loop $-1 $305 $306 $121 #
cone-surface $-1 -8.0233878079080796 -25.625747246015198 3.7191680217697769 0 0.62932039886446345 -0.77714595512881146 0.75 0 0 1 I I -0.70710678118654757 0.70710678118654757 0.75 forward I I I I #
loop $-1 $-1 $307 $80 #
coedge $-1 $193 $193 $308 $309 reversed $122 $-1 #
face $-1 $310 $311 $64 $-1 $312 reversed single #
loop $-1 $-1 $313 $124 #
plane-surface $-1 21.039119604316468 -31.960331909686047 2.7091891918141897 0 -0.62932039886446345 0.77714595512881146 1 0 0 forward_v I I I I #
coedge $-1 $314 $315 $316 $317 reversed $125 $-1 #
face $-1 $-1 $318 $65 $-1 $319 forward single #
loop $-1 $320 $321 $127 #
cone-surface $-1 21.039119604316468 -25.625747246015198 3.7191680217697769 0 0.62932039886446345 -0.77714595512881146 0.75 0 0 1 I I -0.70710678118654757 0.70710678118654757 0.75 forward I I I I #
loop $-1 $-1 $322 $82 #
coedge $-1 $202 $202 $323 $324 reversed $128 $-1 #
face $-1 $325 $326 $66 $-1 $327 reversed single #
loop $-1 $-1 $328 $130 #
plane-surface $-1 50.101627016541016 -31.960331909686047 2.7091891918141897 0 -0.62932039886446345 0.77714595512881146 1 0 0 forward_v I I I I #
coedge $-1 $329 $330 $331 $332 reversed $131 $-1 #
face $-1 $-1 $333 $67 $-1 $334 forward single #
loop $-1 $335 $336 $133 #
cone-surface $-1 50.101627016541016 -25.625747246015198 3.7191680217697769 0 0.62932039886446345 -0.77714595512881146 0.75 0 0 1 I I -0.70710678118654757 0.70710678118654757 0.75 forward I I I I #
loop $-1 $-1 $337 $84 #
coedge $-1 $211 $211 $338 $339 reversed $134 $-1 #
face $-1 $340 $341 $51 $-1 $342 reversed single #
loop $-1 $-1 $343 $136 #
plane-surface $-1 0 -31.960331909686044 0 0 1 0 0 0 1 forward_v I I I I #
coedge $-1 $344 $345 $346 $347 forward $137 $-1 #
coedge $-1 $348 $139 $349 $350 forward $86 $-1 #
coedge $-1 $139 $348 $351 $352 forward $86 $-1 #
coedge $-1 $353 $354 $139 $219 reversed $355 $-1 #
edge $-1 $356 -31.960331909686044 $357 31.960331909686044 $218 $358 forward 7 unknown #
face $-1 $359 $360 $52 $-1 $361 reversed single #
loop $-1 $-1 $226 $140 #
plane-surface $-1 -68.997125755291549 0 3.9516821856923983 0 0 1 1 0 0 forward_v I I I I #
coedge $-1 $362 $363 $224 $364 forward $141 $-1 #
coedge $-1 $365 $143 $223 $364 reversed $89 $-1 #
coedge $-1 $143 $365 $366 $367 reversed $89 $-1 #
coedge $-1 $368 $369 $143 $227 reversed $221 $-1 #
edge $-1 $370 -31.960331909686044 $371 31.960331909686044 $226 $372 forward 7 unknown #
face $-1 $373 $374 $53 $-1 $375 reversed single #
loop $-1 $-1 $376 $144 #
plane-surface $-1 0 -31.960331909686044 0 0 1 0 0 0 1 forward_v I I I I #
coedge $-1 $377 $378 $379 $380 forward $145 $-1 #
coedge $-1 $379 $147 $376 $381 reversed $92 $-1 #
coedge $-1 $147 $379 $382 $383 reversed $92 $-1 #
coedge $-1 $384 $385 $147 $235 reversed $374 $-1 #
edge $-1 $386 -31.960331909686044 $387 31.960331909686044 $234 $388 forward 7 unknown #
face $-1 $389 $390 $54 $-1 $391 reversed single #
loop $-1 $-1 $392 $148 #
plane-surface $-1 0 52.080035849955905 149.151900032263 -1 0 0 0 0.55919291073839883 0.82903756765294845 forward_v I I I I #
coedge $-1 $393 $394 $395 $396 reversed $149 $-1 #
coedge $-1 $241 $151 $397 $398 reversed $95 $-1 #
coedge $-1 $151 $240 $393 $399 reversed $95 $-1 #
coedge $-1 $395 $400 $151 $243 forward $401 $-1 #
edge $-1 $402 -5.9203139847080912 $403 1.0342541092705133 $242 $404 forward 7 unknown #
loop $-1 $-1 $249 $152 #
plane-surface $-1 -11.310049005660076 -21.032299745888039 40.758407010745771 0 0.55919291073839883 0.82903756765294845 1 0 0 forward_v I I I I #
loop $-1 $-1 $405 $97 #
coedge $-1 $247 $247 $248 $406 reversed $153 $-1 #
coedge $-1 $248 $248 $247 $406 forward $155 $-1 #
coedge $-1 $249 $249 $156 $250 forward $244 $-1 #
edge $-1 $407 -2.021297650831317e-015 $407 6.2831853071795987 $249 $408 forward 7 unknown #
loop $-1 $-1 $256 $157 #
plane-surface $-1 -11.310049005660076 -21.032299745888039 40.758407010745771 0 0.55919291073839883 0.82903756765294845 1 0 0 forward_v I I I I #
loop $-1 $-1 $409 $100 #
coedge $-1 $254 $254 $255 $410 reversed $158 $-1 #
coedge $-1 $255 $255 $254 $410 forward $160 $-1 #
coedge $-1 $256 $256 $161 $257 forward $251 $-1 #
edge $-1 $411 -2.021297650831317e-015 $411 6.2831853071795987 $256 $412 forward 7 unknown #
face $-1 $413 $414 $57 $-1 $415 forward single #
loop $-1 $-1 $416 $162 #
plane-surface $-1 0 0 9.7053404523132727 0 0 1 1 0 0 forward_v I I I I #
coedge $-1 $417 $418 $419 $420 reversed $163 $-1 #
coedge $-1 $421 $165 $422 $423 reversed $104 $-1 #
coedge $-1 $165 $421 $416 $424 reversed $104 $-1 #
coedge $-1 $425 $426 $165 $265 forward $414 $-1 #
edge $-1 $427 -63.920663819372109 $428 -55.531938910720058 $264 $429 forward 7 unknown #
loop $-1 $-1 $271 $166 #
plane-surface $-1 -11.310049005660076 -21.032299745888039 40.758407010745771 0 0.55919291073839883 0.82903756765294845 1 0 0 forward_v I I I I #
loop $-1 $-1 $430 $106 #
coedge $-1 $269 $269 $270 $431 reversed $167 $-1 #
coedge $-1 $270 $270 $269 $431 forward $169 $-1 #
coedge $-1 $271 $271 $170 $272 forward $266 $-1 #
edge $-1 $432 -2.021297650831317e-015 $432 6.2831853071795987 $271 $433 forward 7 unknown #
loop $-1 $-1 $278 $171 #
plane-surface $-1 -11.310049005660076 -21.032299745888039 40.758407010745771 0 0.55919291073839883 0.82903756765294845 1 0 0 forward_v I I I I #
loop $-1 $-1 $434 $109 #
coedge $-1 $276 $276 $277 $435 reversed $172 $-1 #
coedge $-1 $277 $277 $276 $435 forward $174 $-1 #
coedge $-1 $278 $278 $175 $279 forward $273 $-1 #
edge $-1 $436 -2.021297650831317e-015 $436 6.2831853071795987 $278 $437 forward 7 unknown #
face $-1 $438 $439 $60 $-1 $440 reversed single #
loop $-1 $-1 $441 $176 #
plane-surface $-1 -45.109283028040721 -114.24156851966497 104.31805222854774 1 0 0 0 0.62932039886446345 -0.77714595512881146 forward_v I I I I #
coedge $-1 $442 $443 $444 $445 reversed $177 $-1 #
coedge $-1 $285 $179 $446 $447 reversed $113 $-1 #
coedge $-1 $179 $284 $442 $448 reversed $113 $-1 #
coedge $-1 $444 $449 $179 $287 forward $450 $-1 #
edge $-1 $451 25.160452350146439 $452 33.799979470793879 $286 $453 forward 7 unknown #
loop $-1 $-1 $293 $180 #
plane-surface $-1 -37.085895220132628 -31.960331909686047 2.7091891918141897 0 -0.62932039886446345 0.77714595512881146 1 0 0 forward_v I I I I #
loop $-1 $-1 $454 $115 #
coedge $-1 $291 $291 $292 $455 reversed $181 $-1 #
coedge $-1 $292 $292 $291 $455 forward $183 $-1 #
coedge $-1 $293 $293 $184 $294 forward $288 $-1 #
edge $-1 $456 -2.2511281021232826e-017 $456 6.2831853071796004 $293 $457 forward 7 unknown #
face $-1 $458 $459 $62 $-1 $460 reversed single #
loop $-1 $-1 $461 $185 #
plane-surface $-1 -16.046775615816173 -114.24156851966497 104.31805222854774 1 0 0 0 0.62932039886446345 -0.77714595512881146 forward_v I I I I #
coedge $-1 $462 $463 $464 $465 reversed $186 $-1 #
coedge $-1 $300 $188 $466 $467 reversed $119 $-1 #
coedge $-1 $188 $299 $462 $468 reversed $119 $-1 #
coedge $-1 $464 $469 $188 $302 forward $470 $-1 #
edge $-1 $471 25.160452350146439 $472 33.799979470793879 $301 $473 forward 7 unknown #
loop $-1 $-1 $308 $189 #
plane-surface $-1 -8.0233878079080796 -31.960331909686047 2.7091891918141897 0 -0.62932039886446345 0.77714595512881146 1 0 0 forward_v I I I I #
loop $-1 $-1 $474 $121 #
coedge $-1 $306 $306 $307 $475 reversed $190 $-1 #
coedge $-1 $307 $307 $306 $475 forward $192 $-1 #
coedge $-1 $308 $308 $193 $309 forward $303 $-1 #
edge $-1 $476 -2.2511281021232826e-017 $476 6.2831853071796004 $308 $477 forward 7 unknown #
face $-1 $478 $479 $64 $-1 $480 reversed single #
loop $-1 $-1 $481 $194 #
plane-surface $-1 13.015731796408376 -114.24156851966497 104.31805222854774 1 0 0 0 0.62932039886446345 -0.77714595512881146 forward_v I I I I #
coedge $-1 $482 $483 $484 $485 reversed $195 $-1 #
coedge $-1 $315 $197 $486 $487 reversed $125 $-1 #
coedge $-1 $197 $314 $482 $488 reversed $125 $-1 #
coedge $-1 $484 $489 $197 $317 forward $490 $-1 #
edge $-1 $491 25.160452350146439 $492 33.799979470793879 $316 $493 forward 7 unknown #
loop $-1 $-1 $323 $198 #
plane-surface $-1 21.039119604316468 -31.960331909686047 2.7091891918141897 0 -0.62932039886446345 0.77714595512881146 1 0 0 forward_v I I I I #
loop $-1 $-1 $494 $127 #
coedge $-1 $321 $321 $322 $495 reversed $199 $-1 #
coedge $-1 $322 $322 $321 $495 forward $201 $-1 #
coedge $-1 $323 $323 $202 $324 forward $318 $-1 #
edge $-1 $496 -2.2511281021232826e-017 $496 6.2831853071796004 $323 $497 forward 7 unknown #
face $-1 $498 $499 $66 $-1 $500 reversed single #
loop $-1 $-1 $501 $203 #
plane-surface $-1 42.078239208632922 -114.24156851966497 104.31805222854774 1 0 0 0 0.62932039886446345 -0.77714595512881146 forward_v I I I I #
coedge $-1 $502 $503 $504 $505 reversed $204 $-1 #
coedge $-1 $330 $206 $506 $507 reversed $131 $-1 #
coedge $-1 $206 $329 $502 $508 reversed $131 $-1 #
coedge $-1 $504 $509 $206 $332 forward $510 $-1 #
edge $-1 $511 25.160452350146439 $512 33.799979470793879 $331 $513 forward 7 unknown #
loop $-1 $-1 $338 $207 #
plane-surface $-1 50.101627016541016 -31.960331909686047 2.7091891918141897 0 -0.62932039886446345 0.77714595512881146 1 0 0 forward_v I I I I #
loop $-1 $-1 $514 $133 #
coedge $-1 $336 $336 $337 $515 reversed $208 $-1 #
coedge $-1 $337 $337 $336 $515 forward $210 $-1 #
coedge $-1 $338 $338 $211 $339 forward $333 $-1 #
edge $-1 $516 -2.2511281021232826e-017 $516 6.2831853071796004 $338 $517 forward 7 unknown #
face $-1 $518 $519 $51 $-1 $520 reversed single #
loop $-1 $-1 $521 $212 #
plane-surface $-1 -65.373088778344055 0 0 1 0 0 0 0 -1 forward_v I I I I #
coedge $-1 $522 $351 $523 $524 forward $213 $-1 #
coedge $-1 $525 $215 $522 $526 forward $137 $-1 #
coedge $-1 $215 $525 $527 $528 forward $137 $-1 #
coedge $-1 $354 $353 $215 $347 reversed $355 $-1 #
edge $-1 $529 -31.960331909686044 $530 31.960331909686044 $346 $531 forward 7 unknown #
coedge $-1 $217 $216 $532 $533 forward $86 $-1 #
coedge $-1 $534 $535 $216 $350 reversed $519 $-1 #
edge $-1 $357 -65.373088778344055 $536 65.373088778344055 $349 $537 forward 7 unknown #
coedge $-1 $343 $538 $217 $352 reversed $213 $-1 #
edge $-1 $539 -65.373088778344055 $356 65.373088778344055 $351 $540 forward 7 unknown #
coedge $-1 $346 $218 $538 $541 forward $355 $-1 #
coedge $-1 $218 $346 $534 $542 reversed $355 $-1 #
loop $-1 $-1 $353 $518 #
vertex $-1 $219 $543 #
vertex $-1 $219 $544 #
straight-curve $-1 65.373088778344055 0 9.7053404523132727 0 1 0 I I #
face $-1 $545 $546 $52 $-1 $547 forward single #
loop $-1 $-1 $548 $220 #
plane-surface $-1 -72.621162732239043 0 6.8285113190028355 1 0 0 0 0 -1 forward_v I I I I #
coedge $-1 $549 $223 $369 $550 reversed $141 $-1 #
coedge $-1 $223 $549 $551 $552 reversed $141 $-1 #
edge $-1 $553 -9.7053404523132727 $371 -3.9516821856923983 $223 $554 forward 7 unknown #
coedge $-1 $225 $224 $555 $556 reversed $89 $-1 #
coedge $-1 $557 $558 $225 $367 forward $559 $-1 #
edge $-1 $370 3.9516821856923983 $560 9.7053404523132727 $366 $561 forward 7 unknown #
coedge $-1 $562 $226 $558 $563 forward $221 $-1 #
coedge $-1 $226 $562 $362 $550 forward $221 $-1 #
vertex $-1 $367 $564 #
vertex $-1 $364 $565 #
straight-curve $-1 -65.373088778344055 0 3.9516821856923983 0 1 0 I I #
face $-1 $566 $567 $53 $-1 $568 reversed single #
loop $-1 $-1 $569 $228 #
plane-surface $-1 68.997125755291535 0 3.9516821856923983 0 0 1 1 0 0 forward_v I I I I #
coedge $-1 $570 $571 $232 $381 forward $229 $-1 #
coedge $-1 $572 $231 $571 $573 forward $145 $-1 #
coedge $-1 $231 $572 $574 $575 forward $145 $-1 #
coedge $-1 $233 $232 $231 $380 reversed $92 $-1 #
edge $-1 $576 -31.960331909686044 $577 31.960331909686044 $231 $578 forward 7 unknown #
edge $-1 $577 -9.7053404523132727 $387 -3.9516821856923983 $376 $579 forward 7 unknown #
coedge $-1 $574 $580 $233 $383 forward $581 $-1 #
edge $-1 $386 3.9516821856923983 $576 9.7053404523132727 $382 $582 forward 7 unknown #
coedge $-1 $569 $234 $580 $583 forward $374 $-1 #
coedge $-1 $234 $569 $570 $584 forward $374 $-1 #
vertex $-1 $383 $585 #
vertex $-1 $381 $586 #
straight-curve $-1 65.373088778344055 0 3.9516821856923983 0 -1 0 I I #
face $-1 $-1 $401 $54 $-1 $587 forward single #
loop $-1 $-1 $588 $236 #
plane-surface $-1 0 31.960331909686044 0 0 -1 0 0 0 -1 forward_v I I I I #
coedge $-1 $589 $590 $591 $592 reversed $237 $-1 #
coedge $-1 $593 $239 $241 $399 forward $149 $-1 #
coedge $-1 $239 $593 $589 $594 forward $149 $-1 #
coedge $-1 $591 $242 $239 $396 forward $401 $-1 #
edge $-1 $403 -16.965073508490114 $595 5.6550245028300381 $395 $596 forward 7 unknown #
coedge $-1 $597 $598 $240 $398 forward $390 $-1 #
edge $-1 $599 -69.561525062871084 $402 -64.870609563818221 $397 $600 forward 7 unknown #
edge $-1 $403 55.531938910720058 $599 63.920663819372109 $241 $601 forward 7 unknown #
coedge $-1 $242 $591 $597 $602 forward $401 $-1 #
loop $-1 $-1 $591 $389 #
vertex $-1 $398 $603 #
vertex $-1 $243 $604 #
straight-curve $-1 -22.620098011320152 26.040017924977953 9.7053404523132656 0 -1 0 I I #
coedge $-1 $405 $405 $-1 $605 reversed $246 $-1 #
edge $-1 $606 0 $606 6.2831853071796004 $247 $607 forward 7 unknown #
vertex $-1 $250 $608 #
ellipse-curve $-1 -16.157212865228679 28.48304786269675 7.359882702786841 0 0.55919291073839883 0.82903756765294845 1 0 0 1 I I #
coedge $-1 $409 $409 $-1 $609 reversed $253 $-1 #
edge $-1 $610 0 $610 6.2831853071796004 $254 $611 forward 7 unknown #
vertex $-1 $257 $612 #
ellipse-curve $-1 -6.4628851460914731 28.48304786269675 7.359882702786841 0 0.55919291073839883 0.82903756765294845 1 0 0 1 I I #
face $-1 $-1 $613 $57 $-1 $614 reversed single #
loop $-1 $-1 $425 $258 #
plane-surface $-1 0 52.080035849955905 149.151900032263 -1 0 0 0 0.55919291073839883 0.82903756765294845 forward_v I I I I #
coedge $-1 $419 $615 $263 $424 forward $259 $-1 #
coedge $-1 $418 $261 $421 $616 reversed $163 $-1 #
coedge $-1 $261 $417 $617 $618 reversed $163 $-1 #
coedge $-1 $619 $416 $261 $420 forward $259 $-1 #
edge $-1 $620 -1.0342541092705133 $621 5.9203139847080912 $419 $622 forward 7 unknown #
coedge $-1 $263 $262 $417 $616 forward $104 $-1 #
coedge $-1 $623 $617 $262 $423 forward $613 $-1 #
edge $-1 $624 -28.275122514150191 $427 -5.6550245028300381 $422 $625 forward 7 unknown #
edge $-1 $428 5.6550245028300381 $620 28.275122514150191 $416 $626 forward 7 unknown #
coedge $-1 $426 $264 $615 $627 reversed $414 $-1 #
coedge $-1 $264 $425 $623 $628 reversed $414 $-1 #
vertex $-1 $423 $629 #
vertex $-1 $424 $630 #
straight-curve $-1 0 -21.032299745888039 40.758407010745771 0 -0.82903756765294845 0.55919291073839883 I I #
coedge $-1 $430 $430 $-1 $631 reversed $268 $-1 #
edge $-1 $632 0 $632 6.2831853071796004 $269 $633 forward 7 unknown #
vertex $-1 $272 $634 #
ellipse-curve $-1 6.4628851460914802 28.48304786269675 7.359882702786841 0 0.55919291073839883 0.82903756765294845 1 0 0 1 I I #
coedge $-1 $434 $434 $-1 $635 reversed $275 $-1 #
edge $-1 $636 0 $636 6.2831853071796004 $276 $637 forward 7 unknown #
vertex $-1 $279 $638 #
ellipse-curve $-1 16.157212865228672 28.48304786269675 7.359882702786841 0 0.55919291073839883 0.82903756765294845 1 0 0 1 I I #
face $-1 $-1 $450 $60 $-1 $639 forward single #
loop $-1 $-1 $640 $280 #
plane-surface $-1 0 -31.960331909686044 0 0 1 0 0 0 1 forward_v I I I I #
coedge $-1 $641 $642 $643 $644 reversed $281 $-1 #
coedge $-1 $645 $283 $285 $448 forward $177 $-1 #
coedge $-1 $283 $645 $641 $646 forward $177 $-1 #
coedge $-1 $643 $286 $283 $445 forward $450 $-1 #
edge $-1 $452 10.51955980215822 $647 26.566335417974408 $444 $648 forward 7 unknown #
coedge $-1 $649 $650 $284 $447 forward $439 $-1 #
edge $-1 $651 -49.449836922459681 $451 -42.453685661960598 $446 $652 forward 7 unknown #
edge $-1 $452 -11.11699425781023 $651 -4.4378234572560832e-015 $285 $653 forward 7 unknown #
coedge $-1 $286 $643 $649 $654 forward $450 $-1 #
loop $-1 $-1 $643 $438 #
vertex $-1 $447 $655 #
vertex $-1 $287 $656 #
straight-curve $-1 -29.062507412224534 -57.120784259832483 9.7053404523132727 0 1 0 I I #
coedge $-1 $454 $454 $-1 $657 reversed $290 $-1 #
edge $-1 $658 0 $658 6.2831853071796004 $291 $659 forward 7 unknown #
vertex $-1 $294 $660 #
ellipse-curve $-1 -37.085895220132628 -27.640568349362322 6.207264822063733 0 -0.62932039886446345 0.77714595512881146 1.5 0 0 1 I I #
face $-1 $-1 $470 $62 $-1 $661 forward single #
loop $-1 $-1 $662 $295 #
plane-surface $-1 0 -31.960331909686044 0 0 1 0 0 0 1 forward_v I I I I #
coedge $-1 $663 $664 $665 $666 reversed $296 $-1 #
coedge $-1 $667 $298 $300 $468 forward $186 $-1 #
coedge $-1 $298 $667 $663 $668 forward $186 $-1 #
coedge $-1 $665 $301 $298 $465 forward $470 $-1 #
edge $-1 $472 -4.0116939039540522 $669 12.035081711862134 $464 $670 forward 7 unknown #
coedge $-1 $671 $672 $299 $467 forward $459 $-1 #
edge $-1 $673 -49.449836922459681 $471 -42.453685661960598 $466 $674 forward 7 unknown #
edge $-1 $472 -11.11699425781023 $673 -4.4378234572560832e-015 $300 $675 forward 7 unknown #
coedge $-1 $301 $665 $671 $676 forward $470 $-1 #
loop $-1 $-1 $665 $458 #
vertex $-1 $467 $677 #
vertex $-1 $302 $678 #
straight-curve $-1 1.2434497875801753e-014 -57.120784259832483 9.7053404523132727 0 1 0 I I #
coedge $-1 $474 $474 $-1 $679 reversed $305 $-1 #
edge $-1 $680 0 $680 6.2831853071796004 $306 $681 forward 7 unknown #
vertex $-1 $309 $682 #
ellipse-curve $-1 -8.0233878079080796 -27.640568349362322 6.207264822063733 0 -0.62932039886446345 0.77714595512881146 1.5 0 0 1 I I #
face $-1 $-1 $490 $64 $-1 $683 forward single #
loop $-1 $-1 $684 $310 #
plane-surface $-1 0 -31.960331909686044 0 0 1 0 0 0 1 forward_v I I I I #
coedge $-1 $685 $686 $687 $688 reversed $311 $-1 #
coedge $-1 $689 $313 $315 $488 forward $195 $-1 #
coedge $-1 $313 $689 $685 $690 forward $195 $-1 #
coedge $-1 $687 $316 $313 $485 forward $490 $-1 #
edge $-1 $492 -18.542947610066328 $691 -2.4961719942501421 $484 $692 forward 7 unknown #
coedge $-1 $693 $694 $314 $487 forward $479 $-1 #
edge $-1 $695 -49.449836922459681 $491 -42.453685661960598 $486 $696 forward 7 unknown #
edge $-1 $492 -11.11699425781023 $695 -4.4378234572560832e-015 $315 $697 forward 7 unknown #
coedge $-1 $316 $687 $693 $698 forward $490 $-1 #
loop $-1 $-1 $687 $478 #
vertex $-1 $487 $699 #
vertex $-1 $317 $700 #
straight-curve $-1 29.062507412224562 -57.120784259832483 9.7053404523132727 0 1 0 I I #
coedge $-1 $494 $494 $-1 $701 reversed $320 $-1 #
edge $-1 $702 0 $702 6.2831853071796004 $321 $703 forward 7 unknown #
vertex $-1 $324 $704 #
ellipse-curve $-1 21.039119604316468 -27.640568349362322 6.207264822063733 0 -0.62932039886446345 0.77714595512881146 1.5 0 0 1 I I #
face $-1 $-1 $510 $66 $-1 $705 forward single #
loop $-1 $-1 $706 $325 #
plane-surface $-1 0 -31.960331909686044 0 0 1 0 0 0 1 forward_v I I I I #
coedge $-1 $707 $708 $709 $710 reversed $326 $-1 #
coedge $-1 $711 $328 $330 $508 forward $204 $-1 #
coedge $-1 $328 $711 $707 $712 forward $204 $-1 #
coedge $-1 $709 $331 $328 $505 forward $510 $-1 #
edge $-1 $512 -33.074201316178602 $713 -17.027425700362414 $504 $714 forward 7 unknown #
coedge $-1 $715 $716 $329 $507 forward $499 $-1 #
edge $-1 $717 -49.449836922459681 $511 -42.453685661960598 $506 $718 forward 7 unknown #
edge $-1 $512 -11.11699425781023 $717 -4.4378234572560832e-015 $330 $719 forward 7 unknown #
coedge $-1 $331 $709 $715 $720 forward $510 $-1 #
loop $-1 $-1 $709 $498 #
vertex $-1 $507 $721 #
vertex $-1 $332 $722 #
straight-curve $-1 58.12501482444911 -57.120784259832483 9.7053404523132727 0 1 0 I I #
coedge $-1 $514 $514 $-1 $723 reversed $335 $-1 #
edge $-1 $724 0 $724 6.2831853071796004 $336 $725 forward 7 unknown #
vertex $-1 $339 $726 #
ellipse-curve $-1 50.101627016541016 -27.640568349362322 6.207264822063733 0 -0.62932039886446345 0.77714595512881146 1.5 0 0 1 I I #
face $-1 $-1 $355 $51 $-1 $727 reversed single #
loop $-1 $-1 $534 $340 #
plane-surface $-1 0 31.960331909686044 0 0 -1 0 0 0 -1 forward_v I I I I #
coedge $-1 $728 $532 $535 $729 forward $341 $-1 #
coedge $-1 $538 $343 $344 $526 reversed $213 $-1 #
coedge $-1 $532 $728 $343 $524 reversed $341 $-1 #
edge $-1 $539 -9.7053404523132727 $730 9.7053404523132727 $523 $731 forward 7 unknown #
coedge $-1 $345 $344 $728 $732 forward $137 $-1 #
edge $-1 $530 -65.373088778344055 $730 65.373088778344055 $522 $733 forward 7 unknown #
coedge $-1 $535 $534 $345 $528 reversed $519 $-1 #
edge $-1 $734 -65.373088778344055 $529 65.373088778344055 $527 $735 forward 7 unknown #
vertex $-1 $347 $736 #
vertex $-1 $541 $737 #
straight-curve $-1 65.373088778344055 0 -9.7053404523132727 0 -1 0 I I #
coedge $-1 $521 $523 $348 $533 reversed $341 $-1 #
edge $-1 $536 -31.960331909686044 $539 31.960331909686044 $532 $738 forward 7 unknown #
coedge $-1 $527 $349 $354 $542 forward $519 $-1 #
coedge $-1 $349 $527 $521 $729 reversed $519 $-1 #
vertex $-1 $350 $739 #
straight-curve $-1 0 31.960331909686044 9.7053404523132727 -1 0 0 I I #
coedge $-1 $351 $522 $353 $541 reversed $213 $-1 #
vertex $-1 $533 $740 #
straight-curve $-1 0 -31.960331909686044 9.7053404523132727 1 0 0 I I #
edge $-1 $356 -9.7053404523132727 $530 9.7053404523132727 $353 $741 forward 7 unknown #
edge $-1 $357 -9.7053404523132727 $529 9.7053404523132727 $354 $742 forward 7 unknown #
point $-1 65.373088778344055 -31.960331909686044 9.7053404523132727 #
point $-1 65.373088778344055 31.960331909686044 9.7053404523132727 #
face $-1 $-1 $559 $52 $-1 $743 reversed single #
loop $-1 $-1 $555 $359 #
plane-surface $-1 0 0 9.7053404523132727 0 0 1 1 0 0 forward_v I I I I #
coedge $-1 $744 $745 $549 $746 forward $360 $-1 #
coedge $-1 $363 $362 $548 $746 reversed $141 $-1 #
edge $-1 $747 -3.6240369769474938 $371 3.6240369769474938 $362 $748 forward 7 unknown #
coedge $-1 $749 $555 $363 $552 forward $546 $-1 #
edge $-1 $553 65.373088778344055 $750 72.621162732239043 $363 $751 forward 7 unknown #
vertex $-1 $552 $752 #
straight-curve $-1 -65.373088778344055 31.960331909686044 0 0 0 -1 I I #
coedge $-1 $551 $753 $365 $556 forward $546 $-1 #
edge $-1 $560 -31.960331909686044 $553 31.960331909686044 $555 $754 forward 7 unknown #
coedge $-1 $755 $366 $753 $756 reversed $559 $-1 #
coedge $-1 $366 $755 $368 $563 reversed $559 $-1 #
loop $-1 $-1 $366 $545 #
vertex $-1 $367 $757 #
straight-curve $-1 -65.373088778344055 -31.960331909686044 0 0 0 1 I I #
coedge $-1 $369 $368 $744 $758 forward $221 $-1 #
edge $-1 $370 -3.6240369769474938 $759 3.6240369769474938 $558 $760 forward 7 unknown #
point $-1 -65.373088778344055 -31.960331909686044 3.9516821856923983 #
point $-1 -65.373088778344055 31.960331909686044 3.9516821856923983 #
face $-1 $-1 $581 $53 $-1 $761 reversed single #
loop $-1 $-1 $762 $373 #
plane-surface $-1 72.621162732239029 0 6.8285113190028355 -1 0 0 0 0 1 forward_v I I I I #
coedge $-1 $385 $384 $763 $764 forward $374 $-1 #
coedge $-1 $765 $376 $385 $584 reversed $229 $-1 #
coedge $-1 $376 $765 $377 $573 reversed $229 $-1 #
coedge $-1 $378 $377 $766 $767 forward $145 $-1 #
edge $-1 $577 -3.6240369769474796 $768 3.6240369769474938 $571 $769 forward 7 unknown #
coedge $-1 $770 $382 $378 $575 reversed $581 $-1 #
edge $-1 $771 -72.621162732239029 $576 -65.373088778344055 $574 $772 forward 7 unknown #
vertex $-1 $383 $773 #
vertex $-1 $573 $774 #
straight-curve $-1 65.373088778344055 0 9.7053404523132727 0 -1 0 I I #
straight-curve $-1 65.373088778344055 -31.960331909686044 0 0 0 -1 I I #
coedge $-1 $382 $770 $384 $583 reversed $581 $-1 #
loop $-1 $-1 $382 $566 #
straight-curve $-1 65.373088778344055 31.960331909686044 0 0 0 1 I I #
edge $-1 $386 -3.6240369769474938 $775 3.6240369769474938 $580 $776 forward 7 unknown #
edge $-1 $777 -3.6240369769474938 $387 3.6240369769474938 $570 $778 forward 7 unknown #
point $-1 65.373088778344041 31.960331909686044 3.9516821856923983 #
point $-1 65.373088778344041 -31.960331909686044 3.9516821856923983 #
plane-surface $-1 0 0 9.7053404523132727 0 0 1 1 0 0 forward_v I I I I #
coedge $-1 $598 $597 $590 $779 forward $390 $-1 #
coedge $-1 $590 $392 $394 $594 reversed $237 $-1 #
coedge $-1 $392 $589 $588 $779 reversed $237 $-1 #
coedge $-1 $400 $395 $392 $592 forward $401 $-1 #
edge $-1 $595 -1.0342541092705133 $780 5.9203139847080912 $591 $781 forward 7 unknown #
coedge $-1 $394 $393 $598 $782 reversed $149 $-1 #
edge $-1 $783 -63.920663819372109 $595 -55.531938910720058 $589 $784 forward 7 unknown #
vertex $-1 $396 $785 #
straight-curve $-1 -5.6550245028300381 25.005763815707436 9.7053404523132727 1 0 0 I I #
coedge $-1 $588 $397 $400 $602 reversed $390 $-1 #
coedge $-1 $397 $588 $593 $782 forward $390 $-1 #
vertex $-1 $398 $786 #
straight-curve $-1 -22.620098011320152 31.960331909686044 74.5759500161315 0 0 1 I I #
straight-curve $-1 -22.620098011320152 -21.032299745888039 40.758407010745771 0 0.82903756765294845 -0.55919291073839883 I I #
edge $-1 $780 0 $402 22.620098011320152 $597 $787 forward 7 unknown #
point $-1 -22.620098011320152 31.960331909686044 9.7053404523132727 #
point $-1 -22.620098011320152 25.005763815707439 9.7053404523132727 #
edge $-1 $788 1 $788 0 $405 $-1 forward 7 unknown #
vertex $-1 $406 $789 #
ellipse-curve $-1 -16.157212865228679 27.356180371349751 5.6892329750213593 0 0.55919291073839883 0.82903756765294845 1 0 0 1 I I #
point $-1 -15.157212865228679 28.483047862696754 7.3598827027868499 #
edge $-1 $790 1 $790 0 $409 $-1 forward 7 unknown #
vertex $-1 $410 $791 #
ellipse-curve $-1 -6.4628851460914731 27.356180371349751 5.6892329750213593 0 0.55919291073839883 0.82903756765294845 1 0 0 1 I I #
point $-1 -5.4628851460914731 28.483047862696754 7.3598827027868499 #
loop $-1 $-1 $422 $413 #
plane-surface $-1 0 31.960331909686044 0 0 -1 0 0 0 -1 forward_v I I I I #
coedge $-1 $416 $619 $425 $627 forward $259 $-1 #
edge $-1 $624 -63.920663819372109 $620 -55.531938910720058 $417 $792 forward 7 unknown #
coedge $-1 $422 $793 $418 $618 forward $613 $-1 #
edge $-1 $621 64.870609563818221 $624 69.561525062871084 $617 $794 forward 7 unknown #
coedge $-1 $615 $419 $793 $795 forward $259 $-1 #
vertex $-1 $420 $796 #
vertex $-1 $795 $797 #
straight-curve $-1 22.620098011320152 26.040017924977953 9.7053404523132656 0 1 0 I I #
coedge $-1 $793 $422 $426 $628 forward $613 $-1 #
vertex $-1 $618 $798 #
straight-curve $-1 -5.6550245028300381 31.960331909686044 5.0144249532604199 -1 0 0 I I #
straight-curve $-1 -5.6550245028300381 25.005763815707436 9.7053404523132727 1 0 0 I I #
edge $-1 $799 -5.9203139847080912 $428 1.0342541092705133 $615 $800 forward 7 unknown #
edge $-1 $427 -69.561525062871084 $799 -64.870609563818221 $623 $801 forward 7 unknown #
point $-1 0 31.960331909686047 5.0144249532604164 #
point $-1 0 25.005763815707439 9.7053404523132727 #
edge $-1 $802 1 $802 0 $430 $-1 forward 7 unknown #
vertex $-1 $431 $803 #
ellipse-curve $-1 6.4628851460914802 27.356180371349751 5.6892329750213593 0 0.55919291073839883 0.82903756765294845 1 0 0 1 I I #
point $-1 7.4628851460914802 28.483047862696754 7.3598827027868499 #
edge $-1 $804 1 $804 0 $434 $-1 forward 7 unknown #
vertex $-1 $435 $805 #
ellipse-curve $-1 16.157212865228672 27.356180371349751 5.6892329750213593 0 0.55919291073839883 0.82903756765294845 1 0 0 1 I I #
point $-1 17.157212865228672 28.483047862696754 7.3598827027868499 #
plane-surface $-1 0 0 9.7053404523132727 0 0 1 1 0 0 forward_v I I I I #
coedge $-1 $650 $649 $642 $806 forward $439 $-1 #
coedge $-1 $642 $441 $443 $646 reversed $281 $-1 #
coedge $-1 $441 $641 $640 $806 reversed $281 $-1 #
coedge $-1 $449 $444 $441 $644 forward $450 $-1 #
edge $-1 $647 -33.799979470793879 $807 -25.160452350146439 $643 $808 forward 7 unknown #
coedge $-1 $443 $442 $650 $809 reversed $177 $-1 #
edge $-1 $810 4.4378234572560832e-015 $647 11.11699425781023 $641 $811 forward 7 unknown #
vertex $-1 $445 $812 #
straight-curve $-1 -18.542947610066314 -23.320804789038608 9.7053404523132727 -1 0 0 I I #
coedge $-1 $640 $446 $449 $654 reversed $439 $-1 #
coedge $-1 $446 $640 $645 $809 forward $439 $-1 #
vertex $-1 $447 $813 #
straight-curve $-1 -29.062507412224534 -31.960331909686047 52.159026114273871 0 0 1 I I #
straight-curve $-1 -29.062507412224534 -31.960331909686047 2.7091891918141897 0 -0.77714595512881146 -0.62932039886446345 I I #
edge $-1 $807 -114.10640878333226 $451 -98.059633167516068 $649 $814 forward 7 unknown #
point $-1 -29.062507412224534 -31.960331909686044 9.7053404523132727 #
point $-1 -29.062507412224534 -23.320804789038604 9.7053404523132727 #
edge $-1 $815 1 $815 0 $454 $-1 forward 7 unknown #
vertex $-1 $455 $816 #
ellipse-curve $-1 -37.085895220132628 -26.097737545163547 4.3020274881163854 0 -0.62932039886446345 0.77714595512881146 1.5 0 0 1 I I #
point $-1 -35.585895220132628 -27.640568349362319 6.2072648220637285 #
plane-surface $-1 0 0 9.7053404523132727 0 0 1 1 0 0 forward_v I I I I #
coedge $-1 $672 $671 $664 $817 forward $459 $-1 #
coedge $-1 $664 $461 $463 $668 reversed $296 $-1 #
coedge $-1 $461 $663 $662 $817 reversed $296 $-1 #
coedge $-1 $469 $464 $461 $666 forward $470 $-1 #
edge $-1 $669 -33.799979470793879 $818 -25.160452350146439 $665 $819 forward 7 unknown #
coedge $-1 $463 $462 $672 $820 reversed $186 $-1 #
edge $-1 $821 4.4378234572560832e-015 $669 11.11699425781023 $663 $822 forward 7 unknown #
vertex $-1 $465 $823 #
straight-curve $-1 -4.0116939039540398 -23.320804789038608 9.7053404523132727 -1 0 0 I I #
coedge $-1 $662 $466 $469 $676 reversed $459 $-1 #
coedge $-1 $466 $662 $667 $820 forward $459 $-1 #
vertex $-1 $467 $824 #
straight-curve $-1 1.2434497875801753e-014 -31.960331909686047 52.159026114273871 0 0 1 I I #
straight-curve $-1 1.2434497875801753e-014 -31.960331909686047 2.7091891918141897 0 -0.77714595512881146 -0.62932039886446345 I I #
edge $-1 $818 -85.043901371107708 $471 -68.99712575529152 $671 $825 forward 7 unknown #
point $-1 1.4210854715202004e-014 -31.960331909686044 9.7053404523132727 #
point $-1 1.2434497875801753e-014 -23.320804789038604 9.7053404523132727 #
edge $-1 $826 1 $826 0 $474 $-1 forward 7 unknown #
vertex $-1 $475 $827 #
ellipse-curve $-1 -8.0233878079080796 -26.097737545163547 4.3020274881163854 0 -0.62932039886446345 0.77714595512881146 1.5 0 0 1 I I #
point $-1 -6.5233878079080796 -27.640568349362319 6.2072648220637285 #
plane-surface $-1 0 0 9.7053404523132727 0 0 1 1 0 0 forward_v I I I I #
coedge $-1 $694 $693 $686 $828 forward $479 $-1 #
coedge $-1 $686 $481 $483 $690 reversed $311 $-1 #
coedge $-1 $481 $685 $684 $828 reversed $311 $-1 #
coedge $-1 $489 $484 $481 $688 forward $490 $-1 #
edge $-1 $691 -33.799979470793879 $829 -25.160452350146439 $687 $830 forward 7 unknown #
coedge $-1 $483 $482 $694 $831 reversed $195 $-1 #
edge $-1 $832 4.4378234572560832e-015 $691 11.11699425781023 $685 $833 forward 7 unknown #
vertex $-1 $485 $834 #
straight-curve $-1 10.519559802158234 -23.320804789038608 9.7053404523132727 -1 0 0 I I #
coedge $-1 $684 $486 $489 $698 reversed $479 $-1 #
coedge $-1 $486 $684 $689 $831 forward $479 $-1 #
vertex $-1 $487 $835 #
straight-curve $-1 29.062507412224562 -31.960331909686047 52.159026114273871 0 0 1 I I #
straight-curve $-1 29.062507412224562 -31.960331909686047 2.7091891918141897 0 -0.77714595512881146 -0.62932039886446345 I I #
edge $-1 $829 -55.98139395888316 $491 -39.934618343066973 $693 $836 forward 7 unknown #
point $-1 29.062507412224562 -31.960331909686044 9.7053404523132727 #
point $-1 29.062507412224562 -23.320804789038604 9.7053404523132727 #
edge $-1 $837 1 $837 0 $494 $-1 forward 7 unknown #
vertex $-1 $495 $838 #
ellipse-curve $-1 21.039119604316468 -26.097737545163547 4.3020274881163854 0 -0.62932039886446345 0.77714595512881146 1.5 0 0 1 I I #
point $-1 22.539119604316468 -27.640568349362319 6.2072648220637285 #
plane-surface $-1 0 0 9.7053404523132727 0 0 1 1 0 0 forward_v I I I I #
coedge $-1 $716 $715 $708 $839 forward $499 $-1 #
coedge $-1 $708 $501 $503 $712 reversed $326 $-1 #
coedge $-1 $501 $707 $706 $839 reversed $326 $-1 #
coedge $-1 $509 $504 $501 $710 forward $510 $-1 #
edge $-1 $713 -33.799979470793879 $840 -25.160452350146439 $709 $841 forward 7 unknown #
coedge $-1 $503 $502 $716 $842 reversed $204 $-1 #
edge $-1 $843 4.4378234572560832e-015 $713 11.11699425781023 $707 $844 forward 7 unknown #
vertex $-1 $505 $845 #
straight-curve $-1 25.050813508270508 -23.320804789038608 9.7053404523132727 -1 0 0 I I #
coedge $-1 $706 $506 $509 $720 reversed $499 $-1 #
coedge $-1 $506 $706 $711 $842 forward $499 $-1 #
vertex $-1 $507 $846 #
straight-curve $-1 58.12501482444911 -31.960331909686047 52.159026114273871 0 0 1 I I #
straight-curve $-1 58.12501482444911 -31.960331909686047 2.7091891918141897 0 -0.77714595512881146 -0.62932039886446345 I I #
edge $-1 $840 -26.918886546658612 $511 -10.872110930842425 $715 $847 forward 7 unknown #
point $-1 58.12501482444911 -31.960331909686044 9.7053404523132727 #
point $-1 58.12501482444911 -23.320804789038604 9.7053404523132727 #
edge $-1 $848 1 $848 0 $514 $-1 forward 7 unknown #
vertex $-1 $515 $849 #
ellipse-curve $-1 50.101627016541016 -26.097737545163547 4.3020274881163854 0 -0.62932039886446345 0.77714595512881146 1.5 0 0 1 I I #
point $-1 51.601627016541016 -27.640568349362319 6.2072648220637285 #
plane-surface $-1 65.373088778344055 0 0 -1 0 0 0 0 1 forward_v I I I I #
coedge $-1 $523 $521 $525 $732 reversed $341 $-1 #
edge $-1 $536 -9.7053404523132727 $734 9.7053404523132727 $535 $850 forward 7 unknown #
vertex $-1 $732 $851 #
straight-curve $-1 -65.373088778344055 -31.960331909686044 0 0 0 -1 I I #
edge $-1 $730 -31.960331909686044 $734 31.960331909686044 $728 $852 forward 7 unknown #
straight-curve $-1 0 -31.960331909686044 -9.7053404523132727 -1 0 0 I I #
vertex $-1 $528 $853 #
straight-curve $-1 0 31.960331909686044 -9.7053404523132727 1 0 0 I I #
point $-1 65.373088778344055 31.960331909686044 -9.7053404523132727 #
point $-1 65.373088778344055 -31.960331909686044 -9.7053404523132727 #
straight-curve $-1 -65.373088778344055 0 9.7053404523132727 0 -1 0 I I #
point $-1 -65.373088778344055 31.960331909686044 9.7053404523132727 #
point $-1 -65.373088778344055 -31.960331909686044 9.7053404523132727 #
straight-curve $-1 65.373088778344055 -31.960331909686044 0 0 0 -1 I I #
straight-curve $-1 65.373088778344055 31.960331909686044 0 0 0 -1 I I #
plane-surface $-1 0 -31.960331909686044 0 0 1 0 0 0 1 forward_v I I I I #
coedge $-1 $854 $548 $562 $758 reversed $360 $-1 #
coedge $-1 $548 $854 $749 $855 reversed $360 $-1 #
edge $-1 $750 -2.8768291333104372 $747 2.8768291333104372 $549 $856 forward 7 unknown #
vertex $-1 $550 $857 #
straight-curve $-1 -68.997125755291549 31.960331909686044 3.9516821856923983 1 0 0 I I #
coedge $-1 $753 $551 $745 $855 forward $546 $-1 #
vertex $-1 $552 $858 #
straight-curve $-1 0 31.960331909686044 9.7053404523132727 -1 0 0 I I #
point $-1 -65.373088778344055 31.960331909686044 9.7053404523132727 #
coedge $-1 $555 $749 $557 $756 forward $546 $-1 #
straight-curve $-1 -65.373088778344055 0 9.7053404523132727 0 1 0 I I #
coedge $-1 $558 $557 $854 $859 forward $559 $-1 #
edge $-1 $860 -72.621162732239043 $560 -65.373088778344055 $557 $861 forward 7 unknown #
point $-1 -65.373088778344055 -31.960331909686044 9.7053404523132727 #
edge $-1 $759 -31.960331909686044 $747 31.960331909686044 $744 $862 forward 7 unknown #
vertex $-1 $758 $863 #
straight-curve $-1 -68.997125755291549 -31.960331909686044 3.9516821856923983 -1 0 0 I I #
plane-surface $-1 0 31.960331909686044 0 0 -1 0 0 0 -1 forward_v I I I I #
coedge $-1 $763 $766 $765 $864 forward $567 $-1 #
coedge $-1 $865 $762 $569 $764 reversed $567 $-1 #
edge $-1 $775 -31.960331909686044 $777 31.960331909686044 $763 $866 forward 7 unknown #
coedge $-1 $571 $570 $762 $864 reversed $229 $-1 #
coedge $-1 $762 $865 $572 $767 reversed $567 $-1 #
edge $-1 $768 -31.960331909686044 $771 31.960331909686044 $766 $867 forward 7 unknown #
vertex $-1 $767 $868 #
straight-curve $-1 68.997125755291535 -31.960331909686044 9.7053404523132727 1 0 0 I I #
coedge $-1 $580 $574 $865 $869 forward $581 $-1 #
vertex $-1 $767 $870 #
straight-curve $-1 0 31.960331909686044 9.7053404523132727 -1 0 0 I I #
point $-1 65.373088778344055 31.960331909686044 9.7053404523132727 #
point $-1 65.373088778344055 -31.960331909686044 9.7053404523132727 #
vertex $-1 $764 $871 #
straight-curve $-1 68.997125755291535 31.960331909686044 3.9516821856923983 1 0 0 I I #
vertex $-1 $864 $872 #
straight-curve $-1 68.997125755291535 -31.960331909686044 3.9516821856923983 -1 0 0 I I #
edge $-1 $780 64.870609563818221 $783 69.561525062871084 $588 $873 forward 7 unknown #
vertex $-1 $602 $874 #
straight-curve $-1 0 26.040017924977953 9.7053404523132656 0 1 0 I I #
edge $-1 $783 -5.6550245028300381 $599 16.965073508490114 $598 $875 forward 7 unknown #
vertex $-1 $782 $876 #
straight-curve $-1 0 -21.032299745888039 40.758407010745771 0 -0.82903756765294845 0.55919291073839883 I I #
point $-1 0 25.005763815707439 9.7053404523132727 #
point $-1 -22.620098011320152 31.960331909686047 5.0144249532604164 #
straight-curve $-1 0 31.960331909686044 9.7053404523132727 -1 0 0 I I #
vertex $-1 $605 $877 #
point $-1 -15.157212865228679 27.356180371349751 5.6892329750213593 #
vertex $-1 $609 $878 #
point $-1 -5.4628851460914731 27.356180371349751 5.6892329750213593 #
straight-curve $-1 22.620098011320152 -21.032299745888039 40.758407010745771 0 -0.82903756765294845 0.55919291073839883 I I #
coedge $-1 $617 $623 $619 $795 reversed $613 $-1 #
straight-curve $-1 22.620098011320152 31.960331909686044 74.5759500161315 0 0 -1 I I #
edge $-1 $621 -22.620098011320152 $799 0 $793 $879 forward 7 unknown #
point $-1 22.620098011320152 25.005763815707439 9.7053404523132727 #
point $-1 22.620098011320152 31.960331909686044 9.7053404523132727 #
point $-1 22.620098011320152 31.960331909686047 5.0144249532604164 #
vertex $-1 $628 $880 #
straight-curve $-1 0 26.040017924977953 9.7053404523132656 0 -1 0 I I #
straight-curve $-1 0 31.960331909686044 74.5759500161315 0 0 1 I I #
vertex $-1 $631 $881 #
point $-1 7.4628851460914802 27.356180371349751 5.6892329750213593 #
vertex $-1 $635 $882 #
point $-1 17.157212865228672 27.356180371349751 5.6892329750213593 #
edge $-1 $807 42.453685661960598 $810 49.449836922459681 $640 $883 forward 7 unknown #
vertex $-1 $654 $884 #
straight-curve $-1 -45.109283028040721 -57.120784259832483 9.7053404523132727 0 -1 0 I I #
edge $-1 $810 -26.566335417974408 $651 -10.51955980215822 $650 $885 forward 7 unknown #
vertex $-1 $809 $886 #
straight-curve $-1 -45.109283028040721 -31.960331909686047 2.7091891918141897 0 0.77714595512881146 0.62932039886446345 I I #
point $-1 -45.109283028040721 -23.320804789038604 9.7053404523132727 #
point $-1 -29.062507412224534 -31.960331909686044 2.7091891918141924 #
straight-curve $-1 68.997125755291535 -31.960331909686044 9.7053404523132727 1 0 0 I I #
vertex $-1 $657 $887 #
point $-1 -35.585895220132628 -26.097737545163547 4.3020274881163854 #
edge $-1 $818 42.453685661960598 $821 49.449836922459681 $662 $888 forward 7 unknown #
vertex $-1 $676 $889 #
straight-curve $-1 -16.046775615816173 -57.120784259832483 9.7053404523132727 0 -1 0 I I #
edge $-1 $821 -12.035081711862134 $673 4.0116939039540522 $672 $890 forward 7 unknown #
vertex $-1 $820 $891 #
straight-curve $-1 -16.046775615816173 -31.960331909686047 2.7091891918141897 0 0.77714595512881146 0.62932039886446345 I I #
point $-1 -16.046775615816173 -23.320804789038604 9.7053404523132727 #
point $-1 1.2434497875801753e-014 -31.960331909686044 2.7091891918141924 #
straight-curve $-1 68.997125755291535 -31.960331909686044 9.7053404523132727 1 0 0 I I #
vertex $-1 $679 $892 #
point $-1 -6.5233878079080796 -26.097737545163547 4.3020274881163854 #
edge $-1 $829 42.453685661960598 $832 49.449836922459681 $684 $893 forward 7 unknown #
vertex $-1 $698 $894 #
straight-curve $-1 13.015731796408376 -57.120784259832483 9.7053404523132727 0 -1 0 I I #
edge $-1 $832 2.4961719942501421 $695 18.542947610066328 $694 $895 forward 7 unknown #
vertex $-1 $831 $896 #
straight-curve $-1 13.015731796408376 -31.960331909686047 2.7091891918141897 0 0.77714595512881146 0.62932039886446345 I I #
point $-1 13.015731796408376 -23.320804789038604 9.7053404523132727 #
point $-1 29.062507412224562 -31.960331909686044 2.7091891918141924 #
straight-curve $-1 68.997125755291535 -31.960331909686044 9.7053404523132727 1 0 0 I I #
vertex $-1 $701 $897 #
point $-1 22.539119604316468 -26.097737545163547 4.3020274881163854 #
edge $-1 $840 42.453685661960598 $843 49.449836922459681 $706 $898 forward 7 unknown #
vertex $-1 $720 $899 #
straight-curve $-1 42.078239208632922 -57.120784259832483 9.7053404523132727 0 -1 0 I I #
edge $-1 $843 17.027425700362414 $717 33.074201316178602 $716 $900 forward 7 unknown #
vertex $-1 $842 $901 #
straight-curve $-1 42.078239208632922 -31.960331909686047 2.7091891918141897 0 0.77714595512881146 0.62932039886446345 I I #
point $-1 42.078239208632922 -23.320804789038604 9.7053404523132727 #
point $-1 58.12501482444911 -31.960331909686044 2.7091891918141924 #
straight-curve $-1 68.997125755291535 -31.960331909686044 9.7053404523132727 1 0 0 I I #
vertex $-1 $723 $902 #
point $-1 51.601627016541016 -26.097737545163547 4.3020274881163854 #
straight-curve $-1 -65.373088778344055 31.960331909686044 0 0 0 -1 I I #
point $-1 -65.373088778344055 -31.960331909686044 -9.7053404523132727 #
straight-curve $-1 -65.373088778344055 0 -9.7053404523132727 0 1 0 I I #
point $-1 -65.373088778344055 31.960331909686044 -9.7053404523132727 #
coedge $-1 $745 $744 $755 $859 reversed $360 $-1 #
edge $-1 $750 -31.960331909686044 $860 31.960331909686044 $745 $903 forward 7 unknown #
straight-curve $-1 -72.621162732239043 31.960331909686044 6.8285113190028355 0 0 -1 I I #
point $-1 -72.621162732239043 31.960331909686044 3.9516821856923983 #
point $-1 -72.621162732239043 31.960331909686044 9.7053404523132727 #
edge $-1 $860 -2.8768291333104372 $759 2.8768291333104372 $854 $904 forward 7 unknown #
vertex $-1 $855 $905 #
straight-curve $-1 0 -31.960331909686044 9.7053404523132727 1 0 0 I I #
straight-curve $-1 -72.621162732239043 0 3.9516821856923983 0 1 0 I I #
point $-1 -72.621162732239043 -31.960331909686044 3.9516821856923983 #
edge $-1 $768 -2.8768291333104372 $777 2.8768291333104372 $762 $906 forward 7 unknown #
coedge $-1 $766 $763 $770 $869 reversed $567 $-1 #
straight-curve $-1 72.621162732239029 0 3.9516821856923983 0 -1 0 I I #
straight-curve $-1 72.621162732239029 0 9.7053404523132727 0 1 0 I I #
point $-1 72.621162732239029 -31.960331909686044 9.7053404523132727 #
edge $-1 $771 -2.8768291333104372 $775 2.8768291333104372 $865 $907 forward 7 unknown #
point $-1 72.621162732239029 31.960331909686044 9.7053404523132727 #
point $-1 72.621162732239029 31.960331909686044 3.9516821856923983 #
point $-1 72.621162732239029 -31.960331909686044 3.9516821856923983 #
straight-curve $-1 0 31.960331909686044 74.5759500161315 0 0 -1 I I #
point $-1 0 31.960331909686044 9.7053404523132727 #
straight-curve $-1 -5.6550245028300381 31.960331909686044 5.0144249532604199 -1 0 0 I I #
point $-1 0 31.960331909686047 5.0144249532604164 #
point $-1 -16.157212865228679 26.796987460611355 4.860195407368411 #
point $-1 -6.4628851460914731 26.796987460611355 4.860195407368411 #
straight-curve $-1 0 31.960331909686044 9.7053404523132727 -1 0 0 I I #
point $-1 0 31.960331909686044 9.7053404523132727 #
point $-1 6.4628851460914802 26.796987460611355 4.860195407368411 #
point $-1 16.157212865228672 26.796987460611355 4.860195407368411 #
straight-curve $-1 -45.109283028040721 -31.960331909686047 52.159026114273871 0 0 -1 I I #
point $-1 -45.109283028040721 -31.960331909686044 9.7053404523132727 #
straight-curve $-1 -18.542947610066314 -31.960331909686044 2.7091891918141959 1 0 0 I I #
point $-1 -45.109283028040721 -31.960331909686044 2.7091891918141924 #
point $-1 -37.085895220132628 -25.153756946866849 3.1363085554231684 #
straight-curve $-1 -16.046775615816173 -31.960331909686047 52.159026114273871 0 0 -1 I I #
point $-1 -16.046775615816173 -31.960331909686044 9.7053404523132727 #
straight-curve $-1 -4.0116939039540398 -31.960331909686044 2.7091891918141959 1 0 0 I I #
point $-1 -16.046775615816173 -31.960331909686044 2.7091891918141924 #
point $-1 -8.0233878079080796 -25.153756946866849 3.1363085554231684 #
straight-curve $-1 13.015731796408376 -31.960331909686047 52.159026114273871 0 0 -1 I I #
point $-1 13.015731796408375 -31.960331909686044 9.7053404523132727 #
straight-curve $-1 10.519559802158234 -31.960331909686044 2.7091891918141959 1 0 0 I I #
point $-1 13.015731796408376 -31.960331909686044 2.7091891918141924 #
point $-1 21.039119604316468 -25.153756946866849 3.1363085554231684 #
straight-curve $-1 42.078239208632922 -31.960331909686047 52.159026114273871 0 0 -1 I I #
point $-1 42.078239208632922 -31.960331909686044 9.7053404523132727 #
straight-curve $-1 25.050813508270508 -31.960331909686044 2.7091891918141959 1 0 0 I I #
point $-1 42.078239208632922 -31.960331909686044 2.7091891918141924 #
point $-1 50.101627016541016 -25.153756946866849 3.1363085554231684 #
straight-curve $-1 -72.621162732239043 0 9.7053404523132727 0 -1 0 I I #
straight-curve $-1 -72.621162732239043 -31.960331909686044 6.8285113190028355 0 0 -1 I I #
point $-1 -72.621162732239043 -31.960331909686044 9.7053404523132727 #
straight-curve $-1 72.621162732239029 -31.960331909686044 6.8285113190028355 0 0 -1 I I #
straight-curve $-1 72.621162732239029 31.960331909686044 6.8285113190028355 0 0 -1 I I #
End-of-ACIS-data 