500 0 3 0           
7 Unknown 11 ACIS 5.0 NT 24 Fri Mar 26 15:07:15 1999 
-1 9.9999999999999995e-007 1e-010 
body $-1 $3 $-1 $4 #
body $-1 $5 $-1 $6 #
body $-1 $7 $-1 $8 #
lump $-1 $-1 $9 $0 #
transform $-1 1 0 0 0 1 0 0 0 1 42.915128025147254 23.530042377605309 7.4885094125841141 1 rotate no_reflect no_shear #
lump $-1 $-1 $10 $1 #
transform $-1 1 0 0 0 1 0 0 0 1 42.915128025147254 23.530042377605309 7.4885094125841141 1 rotate no_reflect no_shear #
lump $-1 $-1 $11 $2 #
transform $-1 1 0 0 0 1 0 0 0 1 42.915128025147254 23.530042377605309 7.4885094125841141 1 rotate no_reflect no_shear #
shell $-1 $-1 $-1 $12 $-1 $3 #
shell $-1 $-1 $-1 $13 $-1 $5 #
shell $-1 $-1 $-1 $14 $-1 $7 #
face $-1 $15 $16 $9 $-1 $17 forward single #
face $-1 $18 $19 $10 $-1 $20 forward single #
face $-1 $21 $22 $11 $-1 $23 reversed single #
face $-1 $24 $25 $9 $-1 $26 reversed single #
loop $-1 $-1 $27 $12 #
plane-surface $-1 0 0 7.4885094125841141 0 0 1 1 0 0 forward_v I I I I #
face $-1 $28 $29 $10 $-1 $30 forward single #
loop $-1 $-1 $31 $13 #
plane-surface $-1 -28.373465179503469 45.989236211835546 96.427321058237553 -1 0 0 0 0.66913061440640931 0.74314481823134659 forward_v I I I I #
face $-1 $32 $33 $11 $-1 $34 reversed single #
loop $-1 $35 $36 $14 #
cone-surface $-1 -35.644296602325362 18.662874553937542 2.8224384488526408 0 -0.66913061440640931 -0.74314481823134659 2 0 0 1 I I 0 1 2 forward I I I I #
face $-1 $37 $38 $9 $-1 $39 reversed single #
loop $-1 $-1 $40 $15 #
plane-surface $-1 0 0 -7.4885094125841141 0 0 1 1 0 0 forward_v I I I I #
coedge $-1 $41 $42 $43 $44 forward $16 $-1 #
face $-1 $45 $46 $10 $-1 $47 reversed single #
loop $-1 $-1 $48 $18 #
plane-surface $-1 -35.644296602325362 -11.442415753757444 32.643011026991502 0 0.66913061440640931 0.74314481823134659 1 0 0 forward_v I I I I #
coedge $-1 $49 $50 $51 $52 reversed $19 $-1 #
face $-1 $53 $54 $11 $-1 $55 forward single #
loop $-1 $56 $57 $21 #
cone-surface $-1 -35.644296602325362 16.644353337115252 0.58064357282200962 0 -0.66913061440640931 -0.74314481823134659 1 0 0 1 I I -0.70710678118654746 0.70710678118654746 1 forward I I I I #
loop $-1 $-1 $58 $14 #
coedge $-1 $36 $36 $59 $60 reversed $22 $-1 #
face $-1 $61 $62 $9 $-1 $63 reversed single #
loop $-1 $-1 $64 $24 #
plane-surface $-1 0 -23.530042377605309 0 0 1 0 0 0 1 forward_v I I I I #
coedge $-1 $65 $66 $67 $68 forward $25 $-1 #
coedge $-1 $69 $27 $70 $71 forward $16 $-1 #
coedge $-1 $27 $69 $72 $73 forward $16 $-1 #
coedge $-1 $74 $75 $27 $44 reversed $76 $-1 #
edge $-1 $77 -23.530042377605309 $78 23.530042377605309 $43 $79 forward 7 unknown #
face $-1 $80 $81 $10 $-1 $82 forward single #
loop $-1 $-1 $83 $28 #
plane-surface $-1 0 23.530042377605309 0 0 -1 0 0 0 -1 forward_v I I I I #
coedge $-1 $84 $85 $83 $86 reversed $29 $-1 #
coedge $-1 $50 $31 $85 $87 forward $19 $-1 #
coedge $-1 $31 $49 $88 $89 reversed $19 $-1 #
coedge $-1 $90 $83 $31 $52 forward $46 $-1 #
edge $-1 $91 -47.059992928399055 $92 -40.725151116534661 $51 $93 forward 7 unknown #
face $-1 $94 $95 $11 $-1 $96 forward single #
loop $-1 $-1 $97 $32 #
plane-surface $-1 -28.373465179503469 45.989236211835546 96.427321058237553 -1 0 0 0 0.66913061440640931 0.74314481823134659 forward_v I I I I #
loop $-1 $-1 $98 $21 #
coedge $-1 $57 $57 $58 $99 forward $33 $-1 #
coedge $-1 $58 $58 $57 $99 reversed $35 $-1 #
coedge $-1 $59 $59 $36 $60 forward $95 $-1 #
edge $-1 $100 0 $100 6.2831853071796004 $59 $101 forward 7 unknown #
face $-1 $102 $103 $9 $-1 $104 reversed single #
loop $-1 $-1 $105 $37 #
plane-surface $-1 -42.915128025147254 0 0 1 0 0 0 0 -1 forward_v I I I I #
coedge $-1 $106 $72 $107 $108 forward $38 $-1 #
coedge $-1 $109 $40 $106 $110 forward $25 $-1 #
coedge $-1 $40 $109 $111 $112 forward $25 $-1 #
coedge $-1 $75 $74 $40 $68 reversed $76 $-1 #
edge $-1 $113 -23.530042377605309 $114 23.530042377605309 $67 $115 forward 7 unknown #
coedge $-1 $42 $41 $116 $117 forward $16 $-1 #
coedge $-1 $118 $119 $41 $71 reversed $103 $-1 #
edge $-1 $78 -42.915128025147254 $120 42.915128025147254 $70 $121 forward 7 unknown #
coedge $-1 $64 $122 $42 $73 reversed $38 $-1 #
edge $-1 $123 -42.915128025147254 $77 42.915128025147254 $72 $124 forward 7 unknown #
coedge $-1 $67 $43 $122 $125 forward $76 $-1 #
coedge $-1 $43 $67 $118 $126 reversed $76 $-1 #
loop $-1 $-1 $74 $102 #
vertex $-1 $44 $127 #
vertex $-1 $44 $128 #
straight-curve $-1 42.915128025147254 0 7.4885094125841141 0 1 0 I I #
face $-1 $129 $130 $10 $-1 $131 reversed single #
loop $-1 $-1 $88 $45 #
plane-surface $-1 0 0 7.4885094125841141 0 0 1 1 0 0 forward_v I I I I #
coedge $-1 $51 $132 $48 $86 forward $46 $-1 #
coedge $-1 $133 $48 $134 $135 reversed $29 $-1 #
coedge $-1 $48 $133 $49 $87 reversed $29 $-1 #
edge $-1 $136 -25.092979723984573 $91 -10.551316878340788 $83 $137 forward 7 unknown #
edge $-1 $91 -47.06008475521061 $138 -37.592812334139175 $49 $139 forward 7 unknown #
coedge $-1 $140 $141 $50 $89 forward $81 $-1 #
edge $-1 $92 -0.53542427168753548 $138 6.5001301708162345 $88 $142 forward 7 unknown #
coedge $-1 $143 $51 $141 $144 reversed $46 $-1 #
vertex $-1 $86 $145 #
vertex $-1 $89 $146 #
straight-curve $-1 -28.373465179503469 23.530042377605309 48.213660529118776 0 0 1 I I #
face $-1 $147 $148 $11 $-1 $149 reversed single #
loop $-1 $150 $59 $53 #
plane-surface $-1 -35.644296602325362 -11.442415753757444 32.643011026991502 0 0.66913061440640931 0.74314481823134659 1 0 0 forward_v I I I I #
coedge $-1 $151 $152 $153 $154 reversed $54 $-1 #
coedge $-1 $98 $98 $-1 $155 forward $56 $-1 #
edge $-1 $156 0 $156 6.2831853071796004 $57 $157 forward 7 unknown #
vertex $-1 $60 $158 #
ellipse-curve $-1 -35.644296602325362 20.012265156353422 4.3210885066519253 0 -0.66913061440640931 -0.74314481823134659 2 0 0 1 I I #
face $-1 $-1 $76 $9 $-1 $159 reversed single #
loop $-1 $-1 $118 $61 #
plane-surface $-1 0 23.530042377605309 0 0 -1 0 0 0 -1 forward_v I I I I #
coedge $-1 $160 $116 $119 $161 forward $62 $-1 #
coedge $-1 $122 $64 $65 $110 reversed $38 $-1 #
coedge $-1 $116 $160 $64 $108 reversed $62 $-1 #
edge $-1 $123 -7.4885094125841141 $162 7.4885094125841141 $107 $163 forward 7 unknown #
coedge $-1 $66 $65 $160 $164 forward $25 $-1 #
edge $-1 $114 -42.915128025147254 $162 42.915128025147254 $106 $165 forward 7 unknown #
coedge $-1 $119 $118 $66 $112 reversed $103 $-1 #
edge $-1 $166 -42.915128025147254 $113 42.915128025147254 $111 $167 forward 7 unknown #
vertex $-1 $68 $168 #
vertex $-1 $125 $169 #
straight-curve $-1 42.915128025147254 0 -7.4885094125841141 0 -1 0 I I #
coedge $-1 $105 $107 $69 $117 reversed $62 $-1 #
edge $-1 $120 -23.530042377605309 $123 23.530042377605309 $116 $170 forward 7 unknown #
coedge $-1 $111 $70 $75 $126 forward $103 $-1 #
coedge $-1 $70 $111 $105 $161 reversed $103 $-1 #
vertex $-1 $71 $171 #
straight-curve $-1 0 23.530042377605309 7.4885094125841141 -1 0 0 I I #
coedge $-1 $72 $106 $74 $125 reversed $38 $-1 #
vertex $-1 $117 $172 #
straight-curve $-1 0 -23.530042377605309 7.4885094125841141 1 0 0 I I #
edge $-1 $77 -7.4885094125841141 $114 7.4885094125841141 $74 $173 forward 7 unknown #
edge $-1 $78 -7.4885094125841141 $113 7.4885094125841141 $75 $174 forward 7 unknown #
point $-1 42.915128025147254 -23.530042377605309 7.4885094125841141 #
point $-1 42.915128025147254 23.530042377605309 7.4885094125841141 #
face $-1 $175 $176 $10 $-1 $177 reversed single #
loop $-1 $-1 $178 $80 #
plane-surface $-1 0 0 -7.4885094125841141 0 0 1 1 0 0 forward_v I I I I #
coedge $-1 $83 $179 $180 $181 reversed $46 $-1 #
coedge $-1 $85 $84 $140 $182 reversed $29 $-1 #
coedge $-1 $180 $183 $84 $135 forward $184 $-1 #
edge $-1 $185 22.41990733412938 $136 31.887179755200815 $134 $186 forward 7 unknown #
vertex $-1 $181 $187 #
straight-curve $-1 -17.822148301162681 23.530042377605309 1.1536676007197322 1 0 0 I I #
vertex $-1 $182 $188 #
straight-curve $-1 -28.373465179503469 -11.442415753757444 32.643011026991502 0 -0.74314481823134659 0.66913061440640931 I I #
coedge $-1 $189 $88 $133 $182 forward $81 $-1 #
coedge $-1 $88 $190 $90 $144 forward $81 $-1 #
straight-curve $-1 -28.373465179503469 22.994618105917773 7.488509412584115 0 -1 0 I I #
coedge $-1 $179 $90 $191 $192 forward $46 $-1 #
edge $-1 $193 -42.915128025147254 $92 28.373465179503469 $90 $194 forward 7 unknown #
point $-1 -28.373465179503469 23.530042377605312 1.1536676007197251 #
point $-1 -28.373465179503469 23.530042377605309 7.4885094125841141 #
face $-1 $195 $196 $11 $-1 $197 forward single #
loop $-1 $-1 $198 $94 #
plane-surface $-1 0 23.530042377605309 0 0 -1 0 0 0 -1 forward_v I I I I #
loop $-1 $-1 $199 $53 #
coedge $-1 $152 $97 $200 $201 forward $54 $-1 #
coedge $-1 $97 $151 $202 $203 reversed $54 $-1 #
coedge $-1 $204 $198 $97 $154 forward $148 $-1 #
edge $-1 $205 -47.059992928399055 $206 -40.725151116534661 $153 $207 forward 7 unknown #
edge $-1 $208 1 $208 0 $98 $-1 forward 7 unknown #
vertex $-1 $99 $209 #
ellipse-curve $-1 -35.644296602325362 17.313483951521661 1.3237883910533563 0 0.66913061440640931 0.74314481823134659 2 0 0 1 I I #
point $-1 -33.644296602325362 20.012265156353422 4.3210885066519253 #
plane-surface $-1 42.915128025147254 0 0 -1 0 0 0 0 1 forward_v I I I I #
coedge $-1 $107 $105 $109 $164 reversed $62 $-1 #
edge $-1 $120 -7.4885094125841141 $166 7.4885094125841141 $119 $210 forward 7 unknown #
vertex $-1 $164 $211 #
straight-curve $-1 -42.915128025147254 -23.530042377605309 0 0 0 -1 I I #
edge $-1 $162 -23.530042377605309 $166 23.530042377605309 $160 $212 forward 7 unknown #
straight-curve $-1 0 -23.530042377605309 -7.4885094125841141 -1 0 0 I I #
vertex $-1 $112 $213 #
straight-curve $-1 0 23.530042377605309 -7.4885094125841141 1 0 0 I I #
point $-1 42.915128025147254 23.530042377605309 -7.4885094125841141 #
point $-1 42.915128025147254 -23.530042377605309 -7.4885094125841141 #
straight-curve $-1 -42.915128025147254 0 7.4885094125841141 0 -1 0 I I #
point $-1 -42.915128025147254 23.530042377605309 7.4885094125841141 #
point $-1 -42.915128025147254 -23.530042377605309 7.4885094125841141 #
straight-curve $-1 42.915128025147254 -23.530042377605309 0 0 0 -1 I I #
straight-curve $-1 42.915128025147254 23.530042377605309 0 0 0 -1 I I #
face $-1 $214 $184 $10 $-1 $215 reversed single #
loop $-1 $-1 $216 $129 #
plane-surface $-1 0 -23.530042377605309 0 0 1 0 0 0 1 forward_v I I I I #
coedge $-1 $217 $218 $219 $220 forward $130 $-1 #
coedge $-1 $132 $143 $218 $221 reversed $46 $-1 #
coedge $-1 $222 $134 $132 $181 forward $184 $-1 #
edge $-1 $136 -1.1536676007197275 $223 7.4885094125841141 $132 $224 forward 7 unknown #
edge $-1 $138 10.551316878340788 $185 25.092979723984573 $140 $225 forward 7 unknown #
coedge $-1 $134 $226 $189 $227 reversed $184 $-1 #
loop $-1 $-1 $134 $175 #
vertex $-1 $227 $228 #
straight-curve $-1 -42.915128025147254 -0.16675002548367512 22.490355782004869 0 0.74314481823134659 -0.66913061440640931 I I #
point $-1 -42.915128025147254 23.530042377605309 1.1536676007197275 #
point $-1 -28.373465179503469 16.494487935101539 7.488509412584115 #
coedge $-1 $229 $140 $183 $227 forward $81 $-1 #
coedge $-1 $141 $229 $230 $231 forward $81 $-1 #
coedge $-1 $230 $219 $143 $192 reversed $232 $-1 #
edge $-1 $193 -7.4885094125841141 $233 7.4885094125841141 $191 $234 forward 7 unknown #
vertex $-1 $231 $235 #
straight-curve $-1 0 23.530042377605309 7.4885094125841141 -1 0 0 I I #
face $-1 $236 $237 $11 $-1 $238 reversed single #
loop $-1 $-1 $202 $147 #
plane-surface $-1 0 0 7.4885094125841141 0 0 1 1 0 0 forward_v I I I I #
coedge $-1 $153 $239 $199 $240 forward $148 $-1 #
coedge $-1 $241 $200 $198 $240 reversed $150 $-1 #
coedge $-1 $199 $242 $151 $201 reversed $150 $-1 #
edge $-1 $205 -47.06008475521061 $243 -37.592812334139175 $151 $244 forward 7 unknown #
coedge $-1 $245 $246 $152 $203 forward $196 $-1 #
edge $-1 $206 -0.53542427168753548 $243 6.5001301708162345 $202 $247 forward 7 unknown #
coedge $-1 $248 $153 $246 $249 reversed $148 $-1 #
vertex $-1 $240 $250 #
vertex $-1 $203 $251 #
straight-curve $-1 -28.373465179503469 23.530042377605309 48.213660529118776 0 0 1 I I #
vertex $-1 $155 $252 #
point $-1 -33.644296602325362 17.313483951521661 1.3237883910533563 #
straight-curve $-1 -42.915128025147254 23.530042377605309 0 0 0 -1 I I #
point $-1 -42.915128025147254 -23.530042377605309 -7.4885094125841141 #
straight-curve $-1 -42.915128025147254 0 -7.4885094125841141 0 1 0 I I #
point $-1 -42.915128025147254 23.530042377605309 -7.4885094125841141 #
face $-1 $-1 $232 $10 $-1 $253 reversed single #
plane-surface $-1 -42.915128025147254 0 0 1 0 0 0 0 -1 forward_v I I I I #
coedge $-1 $254 $255 $226 $256 forward $176 $-1 #
coedge $-1 $257 $178 $254 $258 forward $130 $-1 #
coedge $-1 $178 $257 $179 $221 forward $130 $-1 #
coedge $-1 $191 $259 $178 $220 reversed $232 $-1 #
edge $-1 $233 -23.530042377605309 $260 23.530042377605309 $219 $261 forward 7 unknown #
edge $-1 $223 -42.915128025147254 $233 42.915128025147254 $179 $262 forward 7 unknown #
coedge $-1 $226 $180 $257 $263 reversed $184 $-1 #
vertex $-1 $221 $264 #
straight-curve $-1 -42.915128025147254 23.530042377605309 0 0 0 -1 I I #
straight-curve $-1 -17.822148301162681 16.494487935101539 7.4885094125841114 -1 0 0 I I #
coedge $-1 $183 $222 $216 $256 reversed $184 $-1 #
edge $-1 $185 -16.494487935101539 $265 23.530042377605309 $183 $266 forward 7 unknown #
point $-1 -42.915128025147254 16.494487935101539 7.488509412584115 #
coedge $-1 $190 $189 $255 $267 forward $81 $-1 #
coedge $-1 $259 $191 $190 $231 reversed $232 $-1 #
edge $-1 $268 -23.530042377605309 $193 23.530042377605309 $230 $269 forward 7 unknown #
loop $-1 $-1 $259 $214 #
vertex $-1 $220 $270 #
straight-curve $-1 42.915128025147254 23.530042377605309 0 0 0 -1 I I #
point $-1 42.915128025147254 23.530042377605309 7.4885094125841141 #
face $-1 $271 $272 $11 $-1 $273 reversed single #
loop $-1 $-1 $274 $195 #
plane-surface $-1 0 0 -7.4885094125841141 0 0 1 1 0 0 forward_v I I I I #
coedge $-1 $198 $275 $276 $277 reversed $148 $-1 #
edge $-1 $278 -25.092979723984573 $205 -10.551316878340788 $198 $279 forward 7 unknown #
coedge $-1 $242 $199 $280 $281 reversed $150 $-1 #
coedge $-1 $200 $241 $245 $282 reversed $150 $-1 #
vertex $-1 $282 $283 #
straight-curve $-1 -28.373465179503469 -11.442415753757444 32.643011026991502 0 -0.74314481823134659 0.66913061440640931 I I #
coedge $-1 $284 $202 $242 $282 forward $196 $-1 #
coedge $-1 $202 $285 $204 $249 forward $196 $-1 #
straight-curve $-1 -28.373465179503469 22.994618105917773 7.488509412584115 0 -1 0 I I #
coedge $-1 $275 $204 $286 $287 forward $148 $-1 #
edge $-1 $288 -42.915128025147254 $206 28.373465179503469 $204 $289 forward 7 unknown #
point $-1 -28.373465179503469 23.530042377605312 1.1536676007197251 #
point $-1 -28.373465179503469 23.530042377605309 7.4885094125841141 #
point $-1 -35.644296602325362 15.975222722708843 -0.16250124540933697 #
plane-surface $-1 42.915128025147254 0 0 -1 0 0 0 0 1 forward_v I I I I #
coedge $-1 $290 $216 $217 $258 reversed $176 $-1 #
coedge $-1 $216 $290 $229 $267 reversed $176 $-1 #
edge $-1 $265 -7.4885094125841141 $291 7.4885094125841141 $226 $292 forward 7 unknown #
coedge $-1 $218 $217 $222 $263 forward $130 $-1 #
edge $-1 $260 -42.915128025147254 $291 42.915128025147254 $254 $293 forward 7 unknown #
coedge $-1 $219 $230 $290 $294 forward $232 $-1 #
vertex $-1 $294 $295 #
straight-curve $-1 42.915128025147254 0 -7.4885094125841141 0 -1 0 I I #
straight-curve $-1 0 23.530042377605309 -7.4885094125841141 1 0 0 I I #
edge $-1 $291 -23.530042377605309 $223 23.530042377605309 $222 $296 forward 7 unknown #
point $-1 -42.915128025147254 23.530042377605309 -7.4885094125841141 #
vertex $-1 $227 $297 #
straight-curve $-1 -42.915128025147254 0 7.4885094125841141 0 -1 0 I I #
edge $-1 $265 -42.915128025147254 $268 42.915128025147254 $255 $298 forward 7 unknown #
vertex $-1 $231 $299 #
straight-curve $-1 42.915128025147254 0 7.4885094125841141 0 1 0 I I #
point $-1 42.915128025147254 23.530042377605309 -7.4885094125841141 #
face $-1 $300 $301 $11 $-1 $302 reversed single #
loop $-1 $-1 $303 $236 #
plane-surface $-1 0 -23.530042377605309 0 0 1 0 0 0 1 forward_v I I I I #
coedge $-1 $304 $305 $306 $307 forward $237 $-1 #
coedge $-1 $239 $248 $305 $308 reversed $148 $-1 #
coedge $-1 $309 $280 $239 $277 forward $301 $-1 #
edge $-1 $278 -1.1536676007197275 $310 7.4885094125841141 $239 $311 forward 7 unknown #
vertex $-1 $277 $312 #
straight-curve $-1 -17.822148301162681 23.530042377605309 1.1536676007197322 1 0 0 I I #
coedge $-1 $276 $313 $241 $281 forward $301 $-1 #
edge $-1 $314 22.41990733412938 $278 31.887179755200815 $280 $315 forward 7 unknown #
edge $-1 $243 10.551316878340788 $314 25.092979723984573 $245 $316 forward 7 unknown #
point $-1 -28.373465179503469 16.494487935101539 7.488509412584115 #
coedge $-1 $317 $245 $313 $318 forward $196 $-1 #
coedge $-1 $246 $317 $319 $320 forward $196 $-1 #
coedge $-1 $319 $306 $248 $287 reversed $321 $-1 #
edge $-1 $288 -7.4885094125841141 $322 7.4885094125841141 $286 $323 forward 7 unknown #
vertex $-1 $320 $324 #
straight-curve $-1 0 23.530042377605309 7.4885094125841141 -1 0 0 I I #
coedge $-1 $255 $254 $259 $294 reversed $176 $-1 #
vertex $-1 $263 $325 #
straight-curve $-1 -42.915128025147254 -23.530042377605309 0 0 0 -1 I I #
straight-curve $-1 0 -23.530042377605309 -7.4885094125841141 -1 0 0 I I #
edge $-1 $268 -7.4885094125841141 $260 7.4885094125841141 $259 $326 forward 7 unknown #
point $-1 42.915128025147254 -23.530042377605309 -7.4885094125841141 #
straight-curve $-1 -42.915128025147254 0 -7.4885094125841141 0 1 0 I I #
point $-1 -42.915128025147254 -23.530042377605309 7.4885094125841141 #
straight-curve $-1 0 -23.530042377605309 7.4885094125841141 1 0 0 I I #
point $-1 42.915128025147254 -23.530042377605309 7.4885094125841141 #
face $-1 $-1 $321 $11 $-1 $327 reversed single #
loop $-1 $-1 $280 $271 #
plane-surface $-1 -42.915128025147254 0 0 1 0 0 0 0 -1 forward_v I I I I #
coedge $-1 $328 $329 $330 $331 forward $272 $-1 #
coedge $-1 $332 $274 $328 $333 forward $237 $-1 #
coedge $-1 $274 $332 $275 $308 forward $237 $-1 #
coedge $-1 $286 $334 $274 $307 reversed $321 $-1 #
edge $-1 $322 -23.530042377605309 $335 23.530042377605309 $306 $336 forward 7 unknown #
edge $-1 $310 -42.915128025147254 $322 42.915128025147254 $275 $337 forward 7 unknown #
coedge $-1 $330 $276 $332 $338 reversed $301 $-1 #
vertex $-1 $308 $339 #
straight-curve $-1 -42.915128025147254 23.530042377605309 0 0 0 -1 I I #
point $-1 -42.915128025147254 23.530042377605309 1.1536676007197275 #
coedge $-1 $280 $330 $284 $318 reversed $301 $-1 #
vertex $-1 $318 $340 #
straight-curve $-1 -42.915128025147254 -0.16675002548367512 22.490355782004869 0 0.74314481823134659 -0.66913061440640931 I I #
straight-curve $-1 -17.822148301162681 16.494487935101539 7.4885094125841114 -1 0 0 I I #
coedge $-1 $285 $284 $329 $341 forward $196 $-1 #
edge $-1 $314 -16.494487935101539 $342 23.530042377605309 $313 $343 forward 7 unknown #
coedge $-1 $334 $286 $285 $320 reversed $321 $-1 #
edge $-1 $344 -23.530042377605309 $288 23.530042377605309 $319 $345 forward 7 unknown #
loop $-1 $-1 $334 $300 #
vertex $-1 $307 $346 #
straight-curve $-1 42.915128025147254 23.530042377605309 0 0 0 -1 I I #
point $-1 42.915128025147254 23.530042377605309 7.4885094125841141 #
point $-1 -42.915128025147254 -23.530042377605309 -7.4885094125841141 #
straight-curve $-1 42.915128025147254 -23.530042377605309 0 0 0 -1 I I #
plane-surface $-1 42.915128025147254 0 0 -1 0 0 0 0 1 forward_v I I I I #
coedge $-1 $347 $303 $304 $333 reversed $272 $-1 #
coedge $-1 $303 $347 $317 $341 reversed $272 $-1 #
coedge $-1 $313 $309 $303 $331 reversed $301 $-1 #
edge $-1 $342 -7.4885094125841141 $348 7.4885094125841141 $330 $349 forward 7 unknown #
coedge $-1 $305 $304 $309 $338 forward $237 $-1 #
edge $-1 $335 -42.915128025147254 $348 42.915128025147254 $328 $350 forward 7 unknown #
coedge $-1 $306 $319 $347 $351 forward $321 $-1 #
vertex $-1 $351 $352 #
straight-curve $-1 42.915128025147254 0 -7.4885094125841141 0 -1 0 I I #
straight-curve $-1 0 23.530042377605309 -7.4885094125841141 1 0 0 I I #
edge $-1 $348 -23.530042377605309 $310 23.530042377605309 $309 $353 forward 7 unknown #
point $-1 -42.915128025147254 23.530042377605309 -7.4885094125841141 #
point $-1 -42.915128025147254 16.494487935101539 7.488509412584115 #
edge $-1 $342 -42.915128025147254 $344 42.915128025147254 $329 $354 forward 7 unknown #
vertex $-1 $318 $355 #
straight-curve $-1 -42.915128025147254 0 7.4885094125841141 0 -1 0 I I #
vertex $-1 $320 $356 #
straight-curve $-1 42.915128025147254 0 7.4885094125841141 0 1 0 I I #
point $-1 42.915128025147254 23.530042377605309 -7.4885094125841141 #
coedge $-1 $329 $328 $334 $351 reversed $272 $-1 #
vertex $-1 $338 $357 #
straight-curve $-1 -42.915128025147254 -23.530042377605309 0 0 0 -1 I I #
straight-curve $-1 0 -23.530042377605309 -7.4885094125841141 -1 0 0 I I #
edge $-1 $344 -7.4885094125841141 $335 7.4885094125841141 $334 $358 forward 7 unknown #
point $-1 42.915128025147254 -23.530042377605309 -7.4885094125841141 #
straight-curve $-1 -42.915128025147254 0 -7.4885094125841141 0 1 0 I I #
straight-curve $-1 0 -23.530042377605309 7.4885094125841141 1 0 0 I I #
point $-1 -42.915128025147254 -23.530042377605309 7.4885094125841141 #
point $-1 42.915128025147254 -23.530042377605309 7.4885094125841141 #
point $-1 -42.915128025147254 -23.530042377605309 -7.4885094125841141 #
straight-curve $-1 42.915128025147254 -23.530042377605309 0 0 0 -1 I I #
End-of-ACIS-data 