600 0 13 0           
107 GICL ACIS Healer - Source: /gicl/data5/repository/Drexel/CICIRELLO-THESISDATA/Part10006.smdg.feat.sat - 6 0 18 ACIS 6.0.3 Solaris 24 Fri Apr 12 10:18:54 2002 
1 9.999999999999999547e-07 1.000000000000000036e-10 
body $-1 $13 $-1 $-1 #
body $-1 $14 $-1 $-1 #
body $-1 $15 $-1 $-1 #
body $-1 $16 $-1 $-1 #
body $-1 $17 $-1 $-1 #
body $-1 $18 $-1 $-1 #
body $-1 $19 $-1 $-1 #
body $-1 $20 $-1 $-1 #
body $-1 $21 $-1 $-1 #
body $-1 $22 $-1 $-1 #
body $-1 $23 $-1 $-1 #
body $-1 $24 $-1 $-1 #
body $-1 $25 $-1 $-1 #
lump $-1 $-1 $26 $0 #
lump $-1 $-1 $27 $1 #
lump $-1 $-1 $28 $2 #
lump $-1 $-1 $29 $3 #
lump $-1 $-1 $30 $4 #
lump $-1 $-1 $31 $5 #
lump $-1 $-1 $32 $6 #
lump $-1 $-1 $33 $7 #
lump $-1 $-1 $34 $8 #
lump $-1 $-1 $35 $9 #
lump $-1 $-1 $36 $10 #
lump $-1 $-1 $37 $11 #
lump $-1 $-1 $38 $12 #
shell $-1 $-1 $-1 $39 $-1 $13 #
shell $-1 $-1 $-1 $40 $-1 $14 #
shell $-1 $-1 $-1 $41 $-1 $15 #
shell $-1 $-1 $-1 $42 $-1 $16 #
shell $-1 $-1 $-1 $43 $-1 $17 #
shell $-1 $-1 $-1 $44 $-1 $18 #
shell $-1 $-1 $-1 $45 $-1 $19 #
shell $-1 $-1 $-1 $46 $-1 $20 #
shell $-1 $-1 $-1 $47 $-1 $21 #
shell $-1 $-1 $-1 $48 $-1 $22 #
shell $-1 $-1 $-1 $49 $-1 $23 #
shell $-1 $-1 $-1 $50 $-1 $24 #
shell $-1 $-1 $-1 $51 $-1 $25 #
face $-1 $52 $53 $26 $-1 $54 forward single #
face $-1 $55 $56 $27 $-1 $57 forward single #
face $-1 $58 $59 $28 $-1 $60 forward single #
face $-1 $61 $62 $29 $-1 $63 forward single #
face $-1 $64 $65 $30 $-1 $66 forward single #
face $-1 $67 $68 $31 $-1 $69 forward single #
face $-1 $70 $71 $32 $-1 $72 forward single #
face $-1 $73 $74 $33 $-1 $75 forward single #
face $-1 $76 $77 $34 $-1 $78 forward single #
face $-1 $79 $80 $35 $-1 $81 forward single #
face $-1 $82 $83 $36 $-1 $84 forward single #
face $-1 $85 $86 $37 $-1 $87 forward single #
face $-1 $88 $89 $38 $-1 $90 forward single #
face $-1 $91 $92 $26 $-1 $93 reversed single #
loop $-1 $-1 $94 $39 #
plane-surface $-1 78.94405957213049874 32.63143197902920178 24.10485583216046379 0 0 1 1 0 0 forward_v I I I I #
face $-1 $95 $96 $27 $-1 $97 reversed single #
loop $-1 $-1 $98 $40 #
plane-surface $-1 6.464889671579797437 32.63143197902920178 22.41186879344182969 0 0 1 1 0 0 forward_v I I I I #
face $-1 $99 $100 $28 $-1 $101 reversed single #
loop $-1 $-1 $102 $41 #
plane-surface $-1 81.72068662616612755 242.4025728511905413 288.7439013930699048 0 0.7071067893907904134 0.70710677298230451 1 0 0 forward_v I I I I #
face $-1 $103 $104 $29 $-1 $105 forward single #
loop $-1 $106 $107 $42 #
cone-surface $-1 73.85007235702788364 62.49414138130330088 21.33613320835555882 0 -0.7071067893907904134 -0.70710677298230451 1 0 0 1 I I 0 1 1 forward I I I I #
face $-1 $108 $109 $30 $-1 $110 forward single #
loop $-1 $111 $112 $43 #
cone-surface $-1 89.59130089530434304 62.49414138130330088 21.33613320835555882 0 -0.7071067893907904134 -0.70710677298230451 1 0 0 1 I I 0 1 1 forward I I I I #
face $-1 $113 $114 $31 $-1 $115 reversed single #
loop $-1 $-1 $116 $44 #
plane-surface $-1 36.91102470152006276 -215.3588792199271325 250.3651292296855218 0 -0.6819983681709311796 0.7313536940579346002 1 0 0 forward_v I I I I #
face $-1 $117 $118 $32 $-1 $119 forward single #
loop $-1 $120 $121 $45 #
cone-surface $-1 30.56136101829548224 3.602243734270794029 20.59315133739955073 0 0.6819983681709311796 -0.7313536940579346002 1.5 0 0 1 I I 0 1 1.5 forward I I I I #
face $-1 $122 $123 $33 $-1 $124 forward single #
loop $-1 $125 $126 $46 #
cone-surface $-1 36.91102470152006276 3.602243734270794029 20.59315133739955073 0 0.6819983681709311796 -0.7313536940579346002 1.5 0 0 1 I I 0 1 1.5 forward I I I I #
face $-1 $127 $128 $34 $-1 $129 forward single #
loop $-1 $130 $131 $47 #
cone-surface $-1 43.26068838474464684 3.602243734270794029 20.59315133739955073 0 0.6819983681709311796 -0.7313536940579346002 1.5 0 0 1 I I 0 1 1.5 forward I I I I #
face $-1 $132 $133 $35 $-1 $134 reversed single #
loop $-1 $-1 $135 $48 #
plane-surface $-1 133.9068737859005296 -215.3588792199271325 250.3651292296855218 0 -0.6819983681709311796 0.7313536940579346002 1 0 0 forward_v I I I I #
face $-1 $136 $137 $36 $-1 $138 forward single #
loop $-1 $139 $140 $49 #
cone-surface $-1 127.5572101026759526 3.602243734270794029 20.59315133739955073 0 0.6819983681709311796 -0.7313536940579346002 1.5 0 0 1 I I 0 1 1.5 forward I I I I #
face $-1 $141 $142 $37 $-1 $143 forward single #
loop $-1 $144 $145 $50 #
cone-surface $-1 133.9068737859005296 3.602243734270794029 20.59315133739955073 0 0.6819983681709311796 -0.7313536940579346002 1.5 0 0 1 I I 0 1 1.5 forward I I I I #
face $-1 $146 $147 $38 $-1 $148 forward single #
loop $-1 $149 $150 $51 #
cone-surface $-1 140.2565374691251066 3.602243734270794029 20.59315133739955073 0 0.6819983681709311796 -0.7313536940579346002 1.5 0 0 1 I I 0 1 1.5 forward I I I I #
face $-1 $151 $152 $26 $-1 $153 reversed single #
loop $-1 $-1 $154 $52 #
plane-surface $-1 78.94405957213049874 32.63143197902920178 0 0 0 1 1 0 0 forward_v I I I I #
coedge $-1 $155 $156 $157 $158 forward $53 $-1 #
face $-1 $159 $160 $27 $-1 $161 reversed single #
loop $-1 $-1 $162 $55 #
plane-surface $-1 6.464889671579797437 32.63143197902920178 17.60906804050668129 0 0 1 1 0 0 forward_v I I I I #
coedge $-1 $163 $164 $165 $166 forward $56 $-1 #
face $-1 $167 $168 $28 $-1 $169 reversed single #
loop $-1 $-1 $170 $58 #
plane-surface $-1 81.72068662616612755 19.11505082909258135 65.45638455238189124 0 0.7071067893907904134 0.70710677298230451 1 0 0 forward_v I I I I #
coedge $-1 $171 $172 $173 $174 forward $59 $-1 #
face $-1 $-1 $175 $29 $-1 $176 forward single #
loop $-1 $-1 $177 $61 #
plane-surface $-1 73.85007235702788364 62.8647212739029726 21.70671309235588353 0 0.7071067893907904134 0.70710677298230451 -1 -0 0 forward_v I I I I #
loop $-1 $-1 $178 $42 #
coedge $-1 $107 $107 $177 $179 reversed $62 $-1 #
face $-1 $-1 $180 $30 $-1 $181 forward single #
loop $-1 $-1 $182 $64 #
plane-surface $-1 89.59130089530434304 62.8647212739029726 21.70671309235588353 0 0.7071067893907904134 0.70710677298230451 -1 -0 0 forward_v I I I I #
loop $-1 $-1 $183 $43 #
coedge $-1 $112 $112 $182 $184 reversed $65 $-1 #
face $-1 $185 $186 $31 $-1 $187 reversed single #
loop $-1 $-1 $188 $67 #
plane-surface $-1 36.91102470152006276 0 19.42101086165634172 0 -0.6819983681709311796 0.7313536940579346002 1 0 0 forward_v I I I I #
coedge $-1 $189 $190 $191 $192 forward $68 $-1 #
face $-1 $-1 $193 $32 $-1 $194 forward single #
loop $-1 $-1 $195 $70 #
plane-surface $-1 30.56136101829548224 2.51140433866428392 21.76293334690839743 0 -0.6819983681709311796 0.7313536940579346002 -1 0 -0 forward_v I I I I #
loop $-1 $-1 $196 $45 #
coedge $-1 $121 $121 $195 $197 reversed $71 $-1 #
face $-1 $-1 $198 $33 $-1 $199 forward single #
loop $-1 $-1 $200 $73 #
plane-surface $-1 36.91102470152006276 2.51140433866428392 21.76293334690839743 0 -0.6819983681709311796 0.7313536940579346002 -1 0 -0 forward_v I I I I #
loop $-1 $-1 $201 $46 #
coedge $-1 $126 $126 $200 $202 reversed $74 $-1 #
face $-1 $-1 $203 $34 $-1 $204 forward single #
loop $-1 $-1 $205 $76 #
plane-surface $-1 43.26068838474464684 2.51140433866428392 21.76293334690839743 0 -0.6819983681709311796 0.7313536940579346002 -1 0 -0 forward_v I I I I #
loop $-1 $-1 $206 $47 #
coedge $-1 $131 $131 $205 $207 reversed $77 $-1 #
face $-1 $208 $209 $35 $-1 $210 reversed single #
loop $-1 $-1 $211 $79 #
plane-surface $-1 133.9068737859005296 0 19.42101086165634172 0 -0.6819983681709311796 0.7313536940579346002 1 0 0 forward_v I I I I #
coedge $-1 $212 $213 $214 $215 forward $80 $-1 #
face $-1 $-1 $216 $36 $-1 $217 forward single #
loop $-1 $-1 $218 $82 #
plane-surface $-1 127.5572101026759526 2.51140433866428392 21.76293334690839743 0 -0.6819983681709311796 0.7313536940579346002 -1 0 -0 forward_v I I I I #
loop $-1 $-1 $219 $49 #
coedge $-1 $140 $140 $218 $220 reversed $83 $-1 #
face $-1 $-1 $221 $37 $-1 $222 forward single #
loop $-1 $-1 $223 $85 #
plane-surface $-1 133.9068737859005296 2.51140433866428392 21.76293334690839743 0 -0.6819983681709311796 0.7313536940579346002 -1 0 -0 forward_v I I I I #
loop $-1 $-1 $224 $50 #
coedge $-1 $145 $145 $223 $225 reversed $86 $-1 #
face $-1 $-1 $226 $38 $-1 $227 forward single #
loop $-1 $-1 $228 $88 #
plane-surface $-1 140.2565374691251066 2.51140433866428392 21.76293334690839743 0 -0.6819983681709311796 0.7313536940579346002 -1 0 -0 forward_v I I I I #
loop $-1 $-1 $229 $51 #
coedge $-1 $150 $150 $228 $230 reversed $89 $-1 #
face $-1 $231 $232 $26 $-1 $233 reversed single #
loop $-1 $-1 $234 $91 #
plane-surface $-1 78.94405957213049874 0 12.0524279160802319 0 1 0 0 0 1 forward_v I I I I #
coedge $-1 $235 $236 $237 $238 forward $92 $-1 #
coedge $-1 $239 $94 $240 $241 forward $53 $-1 #
coedge $-1 $94 $239 $242 $243 forward $53 $-1 #
coedge $-1 $244 $245 $94 $158 reversed $246 $-1 #
edge $-1 $247 -32.63143197902920178 $248 32.63143197902920178 $157 $249 forward 7 unknown #
face $-1 $250 $251 $27 $-1 $252 reversed single #
loop $-1 $-1 $253 $95 #
plane-surface $-1 6.464889671579797437 0 20.01046841697425549 0 1 0 0 0 1 forward_v I I I I #
coedge $-1 $254 $255 $256 $257 forward $96 $-1 #
coedge $-1 $258 $98 $259 $260 forward $56 $-1 #
coedge $-1 $98 $258 $261 $262 forward $56 $-1 #
coedge $-1 $263 $264 $98 $166 reversed $265 $-1 #
edge $-1 $266 -32.63143197902920178 $267 32.63143197902920178 $165 $268 forward 7 unknown #
face $-1 $269 $270 $28 $-1 $271 reversed single #
loop $-1 $-1 $272 $99 #
plane-surface $-1 81.72068662616612755 -92.52870500054646641 400.3876649948238651 0 0.70710677298230451 -0.7071067893907904134 0 0.7071067893907904134 0.70710677298230451 forward_v I I I I #
coedge $-1 $273 $274 $275 $276 forward $100 $-1 #
coedge $-1 $277 $102 $278 $279 forward $59 $-1 #
coedge $-1 $102 $277 $280 $281 forward $59 $-1 #
coedge $-1 $282 $283 $102 $174 reversed $284 $-1 #
edge $-1 $285 -315.7762382885221086 $286 315.7762382885221086 $173 $287 forward 7 unknown #
loop $-1 $288 $289 $103 #
cone-surface $-1 73.85007235702788364 61.77000809400824011 20.61199993786408413 0 -0.7071067893907904134 -0.70710677298230451 0.5 0 0 1 I I -0.7071067811865474617 0.7071067811865474617 0.5 forward I I I I #
coedge $-1 $177 $177 $107 $179 forward $104 $-1 #
coedge $-1 $178 $178 $289 $290 forward $106 $-1 #
edge $-1 $291 0 $291 6.283185307179586232 $177 $292 forward 7 unknown #
loop $-1 $293 $294 $108 #
cone-surface $-1 89.59130089530434304 61.77000809400824011 20.61199993786408413 0 -0.7071067893907904134 -0.70710677298230451 0.5 0 0 1 I I -0.7071067811865474617 0.7071067811865474617 0.5 forward I I I I #
coedge $-1 $182 $182 $112 $184 forward $109 $-1 #
coedge $-1 $183 $183 $294 $295 forward $111 $-1 #
edge $-1 $296 0 $296 6.283185307179586232 $182 $297 forward 7 unknown #
face $-1 $298 $299 $31 $-1 $300 reversed single #
loop $-1 $-1 $301 $113 #
plane-surface $-1 36.91102470152006276 -338.623557977992732 -80.46580917425620783 0 0.7313536940579346002 0.6819983681709311796 0 -0.6819983681709311796 0.7313536940579346002 forward_v I I I I #
coedge $-1 $302 $303 $304 $305 forward $114 $-1 #
coedge $-1 $306 $116 $307 $308 forward $68 $-1 #
coedge $-1 $116 $306 $309 $310 forward $68 $-1 #
coedge $-1 $311 $312 $116 $192 reversed $313 $-1 #
edge $-1 $314 -315.7762382885219949 $315 315.7762382885219949 $191 $316 forward 7 unknown #
loop $-1 $317 $318 $117 #
cone-surface $-1 30.56136101829548224 5.204581906005502745 18.87485405734725319 0 0.6819983681709311796 -0.7313536940579346002 0.75 0 0 1 I I -0.7071067811865479058 0.7071067811865470176 0.75 forward I I I I #
coedge $-1 $195 $195 $121 $197 forward $118 $-1 #
coedge $-1 $196 $196 $318 $319 forward $120 $-1 #
edge $-1 $320 0 $320 6.283185307179586232 $195 $321 forward 7 unknown #
loop $-1 $322 $323 $122 #
cone-surface $-1 36.91102470152006276 5.204581906005502745 18.87485405734725319 0 0.6819983681709311796 -0.7313536940579346002 0.75 0 0 1 I I -0.7071067811865479058 0.7071067811865470176 0.75 forward I I I I #
coedge $-1 $200 $200 $126 $202 forward $123 $-1 #
coedge $-1 $201 $201 $323 $324 forward $125 $-1 #
edge $-1 $325 0 $325 6.283185307179586232 $200 $326 forward 7 unknown #
loop $-1 $327 $328 $127 #
cone-surface $-1 43.26068838474464684 5.204581906005502745 18.87485405734725319 0 0.6819983681709311796 -0.7313536940579346002 0.75 0 0 1 I I -0.7071067811865479058 0.7071067811865470176 0.75 forward I I I I #
coedge $-1 $205 $205 $131 $207 forward $128 $-1 #
coedge $-1 $206 $206 $328 $329 forward $130 $-1 #
edge $-1 $330 0 $330 6.283185307179586232 $205 $331 forward 7 unknown #
face $-1 $332 $333 $35 $-1 $334 reversed single #
loop $-1 $-1 $335 $132 #
plane-surface $-1 133.9068737859005296 -338.623557977992732 -80.46580917425620783 0 0.7313536940579346002 0.6819983681709311796 0 -0.6819983681709311796 0.7313536940579346002 forward_v I I I I #
coedge $-1 $336 $337 $338 $339 forward $133 $-1 #
coedge $-1 $340 $135 $341 $342 forward $80 $-1 #
coedge $-1 $135 $340 $343 $344 forward $80 $-1 #
coedge $-1 $345 $346 $135 $215 reversed $347 $-1 #
edge $-1 $348 -315.7762382885219949 $349 315.7762382885219949 $214 $350 forward 7 unknown #
loop $-1 $351 $352 $136 #
cone-surface $-1 127.5572101026759526 5.204581906005502745 18.87485405734725319 0 0.6819983681709311796 -0.7313536940579346002 0.75 0 0 1 I I -0.7071067811865479058 0.7071067811865470176 0.75 forward I I I I #
coedge $-1 $218 $218 $140 $220 forward $137 $-1 #
coedge $-1 $219 $219 $352 $353 forward $139 $-1 #
edge $-1 $354 0 $354 6.283185307179586232 $218 $355 forward 7 unknown #
loop $-1 $356 $357 $141 #
cone-surface $-1 133.9068737859005296 5.204581906005502745 18.87485405734725319 0 0.6819983681709311796 -0.7313536940579346002 0.75 0 0 1 I I -0.7071067811865479058 0.7071067811865470176 0.75 forward I I I I #
coedge $-1 $223 $223 $145 $225 forward $142 $-1 #
coedge $-1 $224 $224 $357 $358 forward $144 $-1 #
edge $-1 $359 0 $359 6.283185307179586232 $223 $360 forward 7 unknown #
loop $-1 $361 $362 $146 #
cone-surface $-1 140.2565374691251066 5.204581906005502745 18.87485405734725319 0 0.6819983681709311796 -0.7313536940579346002 0.75 0 0 1 I I -0.7071067811865479058 0.7071067811865470176 0.75 forward I I I I #
coedge $-1 $228 $228 $150 $230 forward $147 $-1 #
coedge $-1 $229 $229 $362 $363 forward $149 $-1 #
edge $-1 $364 0 $364 6.283185307179586232 $228 $365 forward 7 unknown #
face $-1 $366 $367 $26 $-1 $368 reversed single #
loop $-1 $-1 $369 $151 #
plane-surface $-1 0 32.63143197902920178 12.0524279160802319 1 0 0 0 0 -1 forward_v I I I I #
coedge $-1 $370 $242 $371 $372 forward $152 $-1 #
coedge $-1 $373 $154 $370 $374 forward $92 $-1 #
coedge $-1 $154 $373 $375 $376 forward $92 $-1 #
coedge $-1 $245 $244 $154 $238 reversed $246 $-1 #
edge $-1 $377 -32.63143197902920178 $378 32.63143197902920178 $237 $379 forward 7 unknown #
coedge $-1 $156 $155 $380 $381 forward $53 $-1 #
coedge $-1 $382 $383 $155 $241 reversed $367 $-1 #
edge $-1 $248 -78.94405957213049874 $384 78.94405957213049874 $240 $385 forward 7 unknown #
coedge $-1 $234 $386 $156 $243 reversed $152 $-1 #
edge $-1 $387 -78.94405957213049874 $247 78.94405957213049874 $242 $388 forward 7 unknown #
coedge $-1 $237 $157 $386 $389 forward $246 $-1 #
coedge $-1 $157 $237 $382 $390 reversed $246 $-1 #
loop $-1 $-1 $244 $366 #
vertex $-1 $158 $391 #
vertex $-1 $158 $392 #
straight-curve $-1 157.8881191442609975 32.63143197902920178 24.10485583216046379 0 1 0 I I #
face $-1 $393 $394 $27 $-1 $395 reversed single #
loop $-1 $-1 $396 $159 #
plane-surface $-1 0 32.63143197902920178 20.01046841697425549 1 0 0 0 0 -1 forward_v I I I I #
coedge $-1 $397 $261 $398 $399 forward $160 $-1 #
coedge $-1 $400 $162 $397 $401 forward $96 $-1 #
coedge $-1 $162 $400 $402 $403 forward $96 $-1 #
coedge $-1 $264 $263 $162 $257 reversed $265 $-1 #
edge $-1 $404 -32.63143197902920178 $405 32.63143197902920178 $256 $406 forward 7 unknown #
coedge $-1 $164 $163 $407 $408 forward $56 $-1 #
coedge $-1 $409 $410 $163 $260 reversed $394 $-1 #
edge $-1 $267 -6.464889671579797437 $411 6.464889671579797437 $259 $412 forward 7 unknown #
coedge $-1 $253 $413 $164 $262 reversed $160 $-1 #
edge $-1 $414 -6.464889671579797437 $266 6.464889671579797437 $261 $415 forward 7 unknown #
coedge $-1 $256 $165 $413 $416 forward $265 $-1 #
coedge $-1 $165 $256 $409 $417 reversed $265 $-1 #
loop $-1 $-1 $263 $393 #
vertex $-1 $166 $418 #
vertex $-1 $166 $419 #
straight-curve $-1 12.92977934315959487 32.63143197902920178 22.41186879344182969 0 1 0 I I #
face $-1 $420 $421 $28 $-1 $422 reversed single #
loop $-1 $-1 $423 $167 #
plane-surface $-1 63.35591999817692255 130.7588118401415613 177.1001429727259051 1 0 0 0 -0.7071067893907904134 -0.70710677298230451 forward_v I I I I #
coedge $-1 $424 $280 $425 $426 forward $168 $-1 #
coedge $-1 $427 $170 $424 $428 forward $100 $-1 #
coedge $-1 $170 $427 $429 $430 forward $100 $-1 #
coedge $-1 $283 $282 $170 $276 reversed $284 $-1 #
edge $-1 $431 -315.7762382885221086 $432 315.7762382885221086 $275 $433 forward 7 unknown #
coedge $-1 $172 $171 $434 $435 forward $59 $-1 #
coedge $-1 $436 $437 $171 $279 reversed $421 $-1 #
edge $-1 $286 -18.36476662798921211 $438 18.36476662798920501 $278 $439 forward 7 unknown #
coedge $-1 $272 $440 $172 $281 reversed $168 $-1 #
edge $-1 $441 -18.36476662798920501 $285 18.36476662798921211 $280 $442 forward 7 unknown #
coedge $-1 $275 $173 $440 $443 forward $284 $-1 #
coedge $-1 $173 $275 $436 $444 reversed $284 $-1 #
loop $-1 $-1 $282 $420 #
vertex $-1 $174 $445 #
vertex $-1 $174 $446 #
straight-curve $-1 100.0854532541553397 242.4025728511905413 288.7439013930699048 0 0.70710677298230451 -0.7071067893907904134 I I #
loop $-1 $-1 $447 $103 #
coedge $-1 $289 $289 $178 $290 reversed $175 $-1 #
edge $-1 $448 0 $448 6.283185307179586232 $289 $449 forward 7 unknown #
vertex $-1 $179 $450 #
ellipse-curve $-1 73.85007235702788364 62.8647212739029726 21.70671309235588353 0 0.7071067893907904134 0.70710677298230451 1 0 0 1 I I #
loop $-1 $-1 $451 $108 #
coedge $-1 $294 $294 $183 $295 reversed $180 $-1 #
edge $-1 $452 0 $452 6.283185307179586232 $294 $453 forward 7 unknown #
vertex $-1 $184 $454 #
ellipse-curve $-1 89.59130089530434304 62.8647212739029726 21.70671309235588353 0 0.7071067893907904134 0.70710677298230451 1 0 0 1 I I #
face $-1 $455 $456 $31 $-1 $457 reversed single #
loop $-1 $-1 $458 $185 #
plane-surface $-1 26.32825189614575834 -107.6794396099635662 134.8930700456709246 1 0 0 0 0.6819983681709311796 -0.7313536940579346002 forward_v I I I I #
coedge $-1 $459 $309 $460 $461 forward $186 $-1 #
coedge $-1 $462 $188 $459 $463 forward $114 $-1 #
coedge $-1 $188 $462 $464 $465 forward $114 $-1 #
coedge $-1 $312 $311 $188 $305 reversed $313 $-1 #
edge $-1 $466 -315.7762382885219949 $467 315.7762382885219949 $304 $468 forward 7 unknown #
coedge $-1 $190 $189 $469 $470 forward $68 $-1 #
coedge $-1 $471 $472 $189 $308 reversed $456 $-1 #
edge $-1 $315 -10.58277280537430443 $473 10.58277280537430443 $307 $474 forward 7 unknown #
coedge $-1 $301 $475 $190 $310 reversed $186 $-1 #
edge $-1 $476 -10.58277280537430443 $314 10.58277280537430443 $309 $477 forward 7 unknown #
coedge $-1 $304 $191 $475 $478 forward $313 $-1 #
coedge $-1 $191 $304 $471 $479 reversed $313 $-1 #
loop $-1 $-1 $311 $455 #
vertex $-1 $192 $480 #
vertex $-1 $192 $481 #
straight-curve $-1 47.49379750689436719 -215.3588792199271325 250.3651292296855218 0 0.7313536940579346002 0.6819983681709311796 I I #
loop $-1 $-1 $482 $117 #
coedge $-1 $318 $318 $196 $319 reversed $193 $-1 #
edge $-1 $483 0 $483 6.283185307179586232 $318 $484 forward 7 unknown #
vertex $-1 $197 $485 #
ellipse-curve $-1 30.56136101829548224 2.51140433866428392 21.76293334690839743 0 -0.6819983681709311796 0.7313536940579346002 1.5 0 0 1 I I #
loop $-1 $-1 $486 $122 #
coedge $-1 $323 $323 $201 $324 reversed $198 $-1 #
edge $-1 $487 0 $487 6.283185307179586232 $323 $488 forward 7 unknown #
vertex $-1 $202 $489 #
ellipse-curve $-1 36.91102470152006276 2.51140433866428392 21.76293334690839743 0 -0.6819983681709311796 0.7313536940579346002 1.5 0 0 1 I I #
loop $-1 $-1 $490 $127 #
coedge $-1 $328 $328 $206 $329 reversed $203 $-1 #
edge $-1 $491 0 $491 6.283185307179586232 $328 $492 forward 7 unknown #
vertex $-1 $207 $493 #
ellipse-curve $-1 43.26068838474464684 2.51140433866428392 21.76293334690839743 0 -0.6819983681709311796 0.7313536940579346002 1.5 0 0 1 I I #
face $-1 $494 $495 $35 $-1 $496 reversed single #
loop $-1 $-1 $497 $208 #
plane-surface $-1 123.3241009805262252 -107.6794396099635662 134.8930700456709246 1 0 0 0 0.6819983681709311796 -0.7313536940579346002 forward_v I I I I #
coedge $-1 $498 $343 $499 $500 forward $209 $-1 #
coedge $-1 $501 $211 $498 $502 forward $133 $-1 #
coedge $-1 $211 $501 $503 $504 forward $133 $-1 #
coedge $-1 $346 $345 $211 $339 reversed $347 $-1 #
edge $-1 $505 -315.7762382885219949 $506 315.7762382885219949 $338 $507 forward 7 unknown #
coedge $-1 $213 $212 $508 $509 forward $80 $-1 #
coedge $-1 $510 $511 $212 $342 reversed $495 $-1 #
edge $-1 $349 -10.58277280537430443 $512 10.58277280537430443 $341 $513 forward 7 unknown #
coedge $-1 $335 $514 $213 $344 reversed $209 $-1 #
edge $-1 $515 -10.58277280537430443 $348 10.58277280537430443 $343 $516 forward 7 unknown #
coedge $-1 $338 $214 $514 $517 forward $347 $-1 #
coedge $-1 $214 $338 $510 $518 reversed $347 $-1 #
loop $-1 $-1 $345 $494 #
vertex $-1 $215 $519 #
vertex $-1 $215 $520 #
straight-curve $-1 144.489646591274834 -215.3588792199271325 250.3651292296855218 0 0.7313536940579346002 0.6819983681709311796 I I #
loop $-1 $-1 $521 $136 #
coedge $-1 $352 $352 $219 $353 reversed $216 $-1 #
edge $-1 $522 0 $522 6.283185307179586232 $352 $523 forward 7 unknown #
vertex $-1 $220 $524 #
ellipse-curve $-1 127.5572101026759526 2.51140433866428392 21.76293334690839743 0 -0.6819983681709311796 0.7313536940579346002 1.5 0 0 1 I I #
loop $-1 $-1 $525 $141 #
coedge $-1 $357 $357 $224 $358 reversed $221 $-1 #
edge $-1 $526 0 $526 6.283185307179586232 $357 $527 forward 7 unknown #
vertex $-1 $225 $528 #
ellipse-curve $-1 133.9068737859005296 2.51140433866428392 21.76293334690839743 0 -0.6819983681709311796 0.7313536940579346002 1.5 0 0 1 I I #
loop $-1 $-1 $529 $146 #
coedge $-1 $362 $362 $229 $363 reversed $226 $-1 #
edge $-1 $530 0 $530 6.283185307179586232 $362 $531 forward 7 unknown #
vertex $-1 $230 $532 #
ellipse-curve $-1 140.2565374691251066 2.51140433866428392 21.76293334690839743 0 -0.6819983681709311796 0.7313536940579346002 1.5 0 0 1 I I #
face $-1 $-1 $246 $26 $-1 $533 reversed single #
loop $-1 $-1 $382 $231 #
plane-surface $-1 78.94405957213049874 65.26286395805840357 12.0524279160802319 0 -1 0 0 0 -1 forward_v I I I I #
coedge $-1 $534 $380 $383 $535 forward $232 $-1 #
coedge $-1 $386 $234 $235 $374 reversed $152 $-1 #
coedge $-1 $380 $534 $234 $372 reversed $232 $-1 #
edge $-1 $387 -12.0524279160802319 $536 12.0524279160802319 $371 $537 forward 7 unknown #
coedge $-1 $236 $235 $534 $538 forward $92 $-1 #
edge $-1 $378 -78.94405957213049874 $536 78.94405957213049874 $370 $539 forward 7 unknown #
coedge $-1 $383 $382 $236 $376 reversed $367 $-1 #
edge $-1 $540 -78.94405957213049874 $377 78.94405957213049874 $375 $541 forward 7 unknown #
vertex $-1 $238 $542 #
vertex $-1 $389 $543 #
straight-curve $-1 157.8881191442609975 32.63143197902920178 0 0 -1 0 I I #
coedge $-1 $369 $371 $239 $381 reversed $232 $-1 #
edge $-1 $384 -32.63143197902920178 $387 32.63143197902920178 $380 $544 forward 7 unknown #
coedge $-1 $375 $240 $245 $390 forward $367 $-1 #
coedge $-1 $240 $375 $369 $535 reversed $367 $-1 #
vertex $-1 $241 $545 #
straight-curve $-1 78.94405957213049874 65.26286395805840357 24.10485583216046379 -1 0 0 I I #
coedge $-1 $242 $370 $244 $389 reversed $152 $-1 #
vertex $-1 $381 $546 #
straight-curve $-1 78.94405957213049874 0 24.10485583216046379 1 0 0 I I #
edge $-1 $247 -12.0524279160802319 $378 12.0524279160802319 $244 $547 forward 7 unknown #
edge $-1 $248 -12.0524279160802319 $377 12.0524279160802319 $245 $548 forward 7 unknown #
point $-1 157.8881191442609975 0 24.10485583216046379 #
point $-1 157.8881191442609975 65.26286395805840357 24.10485583216046379 #
face $-1 $-1 $265 $27 $-1 $549 reversed single #
loop $-1 $-1 $409 $250 #
plane-surface $-1 6.464889671579797437 65.26286395805840357 20.01046841697425549 0 -1 0 0 0 -1 forward_v I I I I #
coedge $-1 $550 $407 $410 $551 forward $251 $-1 #
coedge $-1 $413 $253 $254 $401 reversed $160 $-1 #
coedge $-1 $407 $550 $253 $399 reversed $251 $-1 #
edge $-1 $414 -2.401400376467574205 $552 2.401400376467574205 $398 $553 forward 7 unknown #
coedge $-1 $255 $254 $550 $554 forward $96 $-1 #
edge $-1 $405 -6.464889671579797437 $552 6.464889671579797437 $397 $555 forward 7 unknown #
coedge $-1 $410 $409 $255 $403 reversed $394 $-1 #
edge $-1 $556 -6.464889671579797437 $404 6.464889671579797437 $402 $557 forward 7 unknown #
vertex $-1 $257 $558 #
vertex $-1 $416 $559 #
straight-curve $-1 12.92977934315959487 32.63143197902920178 17.60906804050668129 0 -1 0 I I #
coedge $-1 $396 $398 $258 $408 reversed $251 $-1 #
edge $-1 $411 -32.63143197902920178 $414 32.63143197902920178 $407 $560 forward 7 unknown #
coedge $-1 $402 $259 $264 $417 forward $394 $-1 #
coedge $-1 $259 $402 $396 $551 reversed $394 $-1 #
vertex $-1 $260 $561 #
straight-curve $-1 6.464889671579797437 65.26286395805840357 22.41186879344182969 -1 0 0 I I #
coedge $-1 $261 $397 $263 $416 reversed $160 $-1 #
vertex $-1 $408 $562 #
straight-curve $-1 6.464889671579797437 0 22.41186879344182969 1 0 0 I I #
edge $-1 $266 -2.401400376467574205 $405 2.401400376467574205 $263 $563 forward 7 unknown #
edge $-1 $267 -2.401400376467574205 $404 2.401400376467574205 $264 $564 forward 7 unknown #
point $-1 12.92977934315959487 0 22.41186879344182969 #
point $-1 12.92977934315959487 65.26286395805840357 22.41186879344182969 #
face $-1 $-1 $284 $28 $-1 $565 reversed single #
loop $-1 $-1 $436 $269 #
plane-surface $-1 81.72068662616612755 354.0463286808295607 -46.18737904937205485 0 -0.70710677298230451 0.7071067893907904134 0 -0.7071067893907904134 -0.70710677298230451 forward_v I I I I #
coedge $-1 $566 $434 $437 $567 forward $270 $-1 #
coedge $-1 $440 $272 $273 $428 reversed $168 $-1 #
coedge $-1 $434 $566 $272 $426 reversed $270 $-1 #
edge $-1 $441 -157.8881191442610259 $568 157.8881191442610543 $425 $569 forward 7 unknown #
coedge $-1 $274 $273 $566 $570 forward $100 $-1 #
edge $-1 $432 -18.36476662798921211 $568 18.36476662798920501 $424 $571 forward 7 unknown #
coedge $-1 $437 $436 $274 $430 reversed $421 $-1 #
edge $-1 $572 -18.36476662798920501 $431 18.36476662798921211 $429 $573 forward 7 unknown #
vertex $-1 $276 $574 #
vertex $-1 $443 $575 #
straight-curve $-1 100.0854532541553397 19.11505082909258135 65.45638455238189124 0 -0.70710677298230451 0.7071067893907904134 I I #
coedge $-1 $423 $425 $277 $435 reversed $270 $-1 #
edge $-1 $438 -315.7762382885221086 $441 315.7762382885221086 $434 $576 forward 7 unknown #
coedge $-1 $429 $278 $283 $444 forward $421 $-1 #
coedge $-1 $278 $429 $423 $567 reversed $421 $-1 #
vertex $-1 $279 $577 #
straight-curve $-1 81.72068662616612755 465.6900896918785975 65.45637937097195902 -1 0 0 I I #
coedge $-1 $280 $424 $282 $443 reversed $168 $-1 #
vertex $-1 $435 $578 #
straight-curve $-1 81.72068662616612755 19.11505601050251357 512.0314234151678647 1 0 0 I I #
edge $-1 $285 -157.8881191442610259 $432 157.8881191442610543 $282 $579 forward 7 unknown #
edge $-1 $286 -157.8881191442610827 $431 157.8881191442610259 $283 $580 forward 7 unknown #
point $-1 100.0854532541553397 19.11505601050251357 512.0314234151678647 #
point $-1 100.0854532541553397 465.6900896918785975 65.45637937097195902 #
coedge $-1 $447 $447 $-1 $581 reversed $288 $-1 #
vertex $-1 $290 $582 #
ellipse-curve $-1 73.85007235702788364 62.12356148870363626 20.96555332435523766 0 0.7071067893907904134 0.70710677298230451 1 0 0 1 I I #
point $-1 74.85007235702788364 62.8647212739029726 21.70671309235588353 #
coedge $-1 $451 $451 $-1 $583 reversed $293 $-1 #
vertex $-1 $295 $584 #
ellipse-curve $-1 89.59130089530434304 62.12356148870363626 20.96555332435523766 0 0.7071067893907904134 0.70710677298230451 1 0 0 1 I I #
point $-1 90.59130089530434304 62.8647212739029726 21.70671309235588353 #
face $-1 $-1 $313 $31 $-1 $585 reversed single #
loop $-1 $-1 $471 $298 #
plane-surface $-1 36.91102470152006276 123.2646787580655996 350.2519492655980571 0 -0.7313536940579346002 -0.6819983681709311796 0 0.6819983681709311796 -0.7313536940579346002 forward_v I I I I #
coedge $-1 $586 $469 $472 $587 forward $299 $-1 #
coedge $-1 $475 $301 $302 $463 reversed $186 $-1 #
coedge $-1 $469 $586 $301 $461 reversed $299 $-1 #
edge $-1 $476 -157.8881191442609975 $588 157.8881191442609975 $460 $589 forward 7 unknown #
coedge $-1 $303 $302 $586 $590 forward $114 $-1 #
edge $-1 $467 -10.58277280537430443 $588 10.58277280537430443 $459 $591 forward 7 unknown #
coedge $-1 $472 $471 $303 $465 reversed $456 $-1 #
edge $-1 $592 -10.58277280537430443 $466 10.58277280537430443 $464 $593 forward 7 unknown #
vertex $-1 $305 $594 #
vertex $-1 $478 $595 #
straight-curve $-1 47.49379750689436719 0 19.42101086165634172 0 -0.7313536940579346002 -0.6819983681709311796 I I #
coedge $-1 $458 $460 $306 $470 reversed $299 $-1 #
edge $-1 $473 -315.7762382885219949 $476 315.7762382885219949 $469 $596 forward 7 unknown #
coedge $-1 $464 $307 $312 $479 forward $456 $-1 #
coedge $-1 $307 $464 $458 $587 reversed $456 $-1 #
vertex $-1 $308 $597 #
straight-curve $-1 36.91102470152006276 15.58523914810203337 465.7240084496126542 -1 0 0 I I #
coedge $-1 $309 $459 $311 $478 reversed $186 $-1 #
vertex $-1 $470 $598 #
straight-curve $-1 36.91102470152006276 -446.3029975879562699 35.00625000975837509 1 0 0 I I #
edge $-1 $314 -157.8881191442609975 $467 157.8881191442609975 $311 $599 forward 7 unknown #
edge $-1 $315 -157.8881191442609975 $466 157.8881191442609975 $312 $600 forward 7 unknown #
point $-1 47.49379750689436719 -446.3029975879562699 35.00625000975837509 #
point $-1 47.49379750689436719 15.58523914810203337 465.7240084496126542 #
coedge $-1 $482 $482 $-1 $601 reversed $317 $-1 #
vertex $-1 $319 $602 #
ellipse-curve $-1 30.56136101829548224 4.693083129877305026 19.42336932789070403 0 -0.6819983681709311796 0.7313536940579346002 1.5 0 0 1 I I #
point $-1 32.06136101829548579 2.51140433866428392 21.76293334690839743 #
coedge $-1 $486 $486 $-1 $603 reversed $322 $-1 #
vertex $-1 $324 $604 #
ellipse-curve $-1 36.91102470152006276 4.693083129877305026 19.42336932789070403 0 -0.6819983681709311796 0.7313536940579346002 1.5 0 0 1 I I #
point $-1 38.41102470152006276 2.51140433866428392 21.76293334690839743 #
coedge $-1 $490 $490 $-1 $605 reversed $327 $-1 #
vertex $-1 $329 $606 #
ellipse-curve $-1 43.26068838474464684 4.693083129877305026 19.42336932789070403 0 -0.6819983681709311796 0.7313536940579346002 1.5 0 0 1 I I #
point $-1 44.76068838474464684 2.51140433866428392 21.76293334690839743 #
face $-1 $-1 $347 $35 $-1 $607 reversed single #
loop $-1 $-1 $510 $332 #
plane-surface $-1 133.9068737859005296 123.2646787580655996 350.2519492655980571 0 -0.7313536940579346002 -0.6819983681709311796 0 0.6819983681709311796 -0.7313536940579346002 forward_v I I I I #
coedge $-1 $608 $508 $511 $609 forward $333 $-1 #
coedge $-1 $514 $335 $336 $502 reversed $209 $-1 #
coedge $-1 $508 $608 $335 $500 reversed $333 $-1 #
edge $-1 $515 -157.8881191442609975 $610 157.8881191442609975 $499 $611 forward 7 unknown #
coedge $-1 $337 $336 $608 $612 forward $133 $-1 #
edge $-1 $506 -10.58277280537430443 $610 10.58277280537430443 $498 $613 forward 7 unknown #
coedge $-1 $511 $510 $337 $504 reversed $495 $-1 #
edge $-1 $614 -10.58277280537430443 $505 10.58277280537430443 $503 $615 forward 7 unknown #
vertex $-1 $339 $616 #
vertex $-1 $517 $617 #
straight-curve $-1 144.489646591274834 0 19.42101086165634172 0 -0.7313536940579346002 -0.6819983681709311796 I I #
coedge $-1 $497 $499 $340 $509 reversed $333 $-1 #
edge $-1 $512 -315.7762382885219949 $515 315.7762382885219949 $508 $618 forward 7 unknown #
coedge $-1 $503 $341 $346 $518 forward $495 $-1 #
coedge $-1 $341 $503 $497 $609 reversed $495 $-1 #
vertex $-1 $342 $619 #
straight-curve $-1 133.9068737859005296 15.58523914810203337 465.7240084496126542 -1 0 0 I I #
coedge $-1 $343 $498 $345 $517 reversed $209 $-1 #
vertex $-1 $509 $620 #
straight-curve $-1 133.9068737859005296 -446.3029975879562699 35.00625000975837509 1 0 0 I I #
edge $-1 $348 -157.8881191442609975 $506 157.8881191442609975 $345 $621 forward 7 unknown #
edge $-1 $349 -157.8881191442609975 $505 157.8881191442609975 $346 $622 forward 7 unknown #
point $-1 144.489646591274834 -446.3029975879562699 35.00625000975837509 #
point $-1 144.489646591274834 15.58523914810203337 465.7240084496126542 #
coedge $-1 $521 $521 $-1 $623 reversed $351 $-1 #
vertex $-1 $353 $624 #
ellipse-curve $-1 127.5572101026759526 4.693083129877305026 19.42336932789070403 0 -0.6819983681709311796 0.7313536940579346002 1.5 0 0 1 I I #
point $-1 129.0572101026759526 2.51140433866428392 21.76293334690839743 #
coedge $-1 $525 $525 $-1 $625 reversed $356 $-1 #
vertex $-1 $358 $626 #
ellipse-curve $-1 133.9068737859005296 4.693083129877305026 19.42336932789070403 0 -0.6819983681709311796 0.7313536940579346002 1.5 0 0 1 I I #
point $-1 135.4068737859005296 2.51140433866428392 21.76293334690839743 #
coedge $-1 $529 $529 $-1 $627 reversed $361 $-1 #
vertex $-1 $363 $628 #
ellipse-curve $-1 140.2565374691251066 4.693083129877305026 19.42336932789070403 0 -0.6819983681709311796 0.7313536940579346002 1.5 0 0 1 I I #
point $-1 141.7565374691251066 2.51140433866428392 21.76293334690839743 #
plane-surface $-1 157.8881191442609975 32.63143197902920178 12.0524279160802319 -1 0 0 0 0 1 forward_v I I I I #
coedge $-1 $371 $369 $373 $538 reversed $232 $-1 #
edge $-1 $384 -12.0524279160802319 $540 12.0524279160802319 $383 $629 forward 7 unknown #
vertex $-1 $538 $630 #
straight-curve $-1 0 0 12.0524279160802319 0 0 -1 I I #
edge $-1 $536 -32.63143197902920178 $540 32.63143197902920178 $534 $631 forward 7 unknown #
straight-curve $-1 78.94405957213049874 0 0 -1 0 0 I I #
vertex $-1 $376 $632 #
straight-curve $-1 78.94405957213049874 65.26286395805840357 0 1 0 0 I I #
point $-1 157.8881191442609975 65.26286395805840357 0 #
point $-1 157.8881191442609975 0 0 #
straight-curve $-1 0 32.63143197902920178 24.10485583216046379 0 -1 0 I I #
point $-1 0 65.26286395805840357 24.10485583216046379 #
point $-1 0 0 24.10485583216046379 #
straight-curve $-1 157.8881191442609975 0 12.0524279160802319 0 0 -1 I I #
straight-curve $-1 157.8881191442609975 65.26286395805840357 12.0524279160802319 0 0 -1 I I #
plane-surface $-1 12.92977934315959487 32.63143197902920178 20.01046841697425549 -1 0 0 0 0 1 forward_v I I I I #
coedge $-1 $398 $396 $400 $554 reversed $251 $-1 #
edge $-1 $411 -2.401400376467574205 $556 2.401400376467574205 $410 $633 forward 7 unknown #
vertex $-1 $554 $634 #
straight-curve $-1 0 0 20.01046841697425549 0 0 -1 I I #
edge $-1 $552 -32.63143197902920178 $556 32.63143197902920178 $550 $635 forward 7 unknown #
straight-curve $-1 6.464889671579797437 0 17.60906804050668129 -1 0 0 I I #
vertex $-1 $403 $636 #
straight-curve $-1 6.464889671579797437 65.26286395805840357 17.60906804050668129 1 0 0 I I #
point $-1 12.92977934315959487 65.26286395805840357 17.60906804050668129 #
point $-1 12.92977934315959487 0 17.60906804050668129 #
straight-curve $-1 0 32.63143197902920178 22.41186879344182969 0 -1 0 I I #
point $-1 0 65.26286395805840357 22.41186879344182969 #
point $-1 0 0 22.41186879344182969 #
straight-curve $-1 12.92977934315959487 0 20.01046841697425549 0 0 -1 I I #
straight-curve $-1 12.92977934315959487 65.26286395805840357 20.01046841697425549 0 0 -1 I I #
plane-surface $-1 100.0854532541553397 130.7588118401415613 177.1001429727259051 -1 0 0 0 0.7071067893907904134 0.70710677298230451 forward_v I I I I #
coedge $-1 $425 $423 $427 $570 reversed $270 $-1 #
edge $-1 $438 -157.8881191442610827 $572 157.8881191442610259 $437 $637 forward 7 unknown #
vertex $-1 $570 $638 #
straight-curve $-1 63.35591999817692255 -92.52870500054646641 400.3876649948238651 0 -0.7071067893907904134 -0.70710677298230451 I I #
edge $-1 $568 -315.7762382885221086 $572 315.7762382885221086 $566 $639 forward 7 unknown #
straight-curve $-1 81.72068662616612755 -204.1724660115954748 288.7439065744798654 -1 0 0 I I #
vertex $-1 $430 $640 #
straight-curve $-1 81.72068662616612755 242.4025676697806091 -157.8311374697160545 1 0 0 I I #
point $-1 100.0854532541553397 242.4025676697806091 -157.8311374697160545 #
point $-1 100.0854532541553397 -204.1724660115954748 288.7439065744798654 #
straight-curve $-1 63.35591999817692255 242.4025728511905413 288.7439013930699048 0 -0.70710677298230451 0.7071067893907904134 I I #
point $-1 63.35591999817692255 465.6900896918785975 65.45637937097195902 #
point $-1 63.35591999817692255 19.11505601050251357 512.0314234151678647 #
straight-curve $-1 100.0854532541553397 -92.52870500054646641 400.3876649948238651 0 -0.7071067893907904134 -0.70710677298230451 I I #
straight-curve $-1 100.0854532541553397 354.0463286808295607 -46.18737904937205485 0 -0.7071067893907904134 -0.70710677298230451 I I #
edge $-1 $641 1 $641 0 $447 $-1 forward 7 unknown #
point $-1 74.85007235702788364 62.12356148870363626 20.96555332435523766 #
edge $-1 $642 1 $642 0 $451 $-1 forward 7 unknown #
point $-1 90.59130089530434304 62.12356148870363626 20.96555332435523766 #
plane-surface $-1 47.49379750689436719 -107.6794396099635662 134.8930700456709246 -1 0 0 0 -0.6819983681709311796 0.7313536940579346002 forward_v I I I I #
coedge $-1 $460 $458 $462 $590 reversed $299 $-1 #
edge $-1 $473 -157.8881191442609975 $592 157.8881191442609975 $472 $643 forward 7 unknown #
vertex $-1 $590 $644 #
straight-curve $-1 26.32825189614575834 -338.623557977992732 -80.46580917425620783 0 0.6819983681709311796 -0.7313536940579346002 I I #
edge $-1 $588 -315.7762382885219949 $592 315.7762382885219949 $586 $645 forward 7 unknown #
straight-curve $-1 36.91102470152006276 -230.9441183680291658 -195.9378683582708049 -1 0 0 I I #
vertex $-1 $465 $646 #
straight-curve $-1 36.91102470152006276 230.9441183680291658 234.77989008158346 1 0 0 I I #
point $-1 47.49379750689436719 230.9441183680291658 234.77989008158346 #
point $-1 47.49379750689436719 -230.9441183680291658 -195.9378683582708049 #
straight-curve $-1 26.32825189614575834 -215.3588792199271325 250.3651292296855218 0 -0.7313536940579346002 -0.6819983681709311796 I I #
point $-1 26.32825189614575834 15.58523914810203337 465.7240084496126542 #
point $-1 26.32825189614575834 -446.3029975879562699 35.00625000975837509 #
straight-curve $-1 47.49379750689436719 -338.623557977992732 -80.46580917425620783 0 0.6819983681709311796 -0.7313536940579346002 I I #
straight-curve $-1 47.49379750689436719 123.2646787580655996 350.2519492655980571 0 0.6819983681709311796 -0.7313536940579346002 I I #
edge $-1 $647 1 $647 0 $482 $-1 forward 7 unknown #
point $-1 32.06136101829548579 4.693083129877305026 19.42336932789070403 #
edge $-1 $648 1 $648 0 $486 $-1 forward 7 unknown #
point $-1 38.41102470152006276 4.693083129877305026 19.42336932789070403 #
edge $-1 $649 1 $649 0 $490 $-1 forward 7 unknown #
point $-1 44.76068838474464684 4.693083129877305026 19.42336932789070403 #
plane-surface $-1 144.489646591274834 -107.6794396099635662 134.8930700456709246 -1 0 0 0 -0.6819983681709311796 0.7313536940579346002 forward_v I I I I #
coedge $-1 $499 $497 $501 $612 reversed $333 $-1 #
edge $-1 $512 -157.8881191442609975 $614 157.8881191442609975 $511 $650 forward 7 unknown #
vertex $-1 $612 $651 #
straight-curve $-1 123.3241009805262252 -338.623557977992732 -80.46580917425620783 0 0.6819983681709311796 -0.7313536940579346002 I I #
edge $-1 $610 -315.7762382885219949 $614 315.7762382885219949 $608 $652 forward 7 unknown #
straight-curve $-1 133.9068737859005296 -230.9441183680291658 -195.9378683582708049 -1 0 0 I I #
vertex $-1 $504 $653 #
straight-curve $-1 133.9068737859005296 230.9441183680291658 234.77989008158346 1 0 0 I I #
point $-1 144.489646591274834 230.9441183680291658 234.77989008158346 #
point $-1 144.489646591274834 -230.9441183680291658 -195.9378683582708049 #
straight-curve $-1 123.3241009805262252 -215.3588792199271325 250.3651292296855218 0 -0.7313536940579346002 -0.6819983681709311796 I I #
point $-1 123.3241009805262252 15.58523914810203337 465.7240084496126542 #
point $-1 123.3241009805262252 -446.3029975879562699 35.00625000975837509 #
straight-curve $-1 144.489646591274834 -338.623557977992732 -80.46580917425620783 0 0.6819983681709311796 -0.7313536940579346002 I I #
straight-curve $-1 144.489646591274834 123.2646787580655996 350.2519492655980571 0 0.6819983681709311796 -0.7313536940579346002 I I #
edge $-1 $654 1 $654 0 $521 $-1 forward 7 unknown #
point $-1 129.0572101026759526 4.693083129877305026 19.42336932789070403 #
edge $-1 $655 1 $655 0 $525 $-1 forward 7 unknown #
point $-1 135.4068737859005296 4.693083129877305026 19.42336932789070403 #
edge $-1 $656 1 $656 0 $529 $-1 forward 7 unknown #
point $-1 141.7565374691251066 4.693083129877305026 19.42336932789070403 #
straight-curve $-1 0 65.26286395805840357 12.0524279160802319 0 0 -1 I I #
point $-1 0 0 0 #
straight-curve $-1 0 32.63143197902920178 0 0 1 0 I I #
point $-1 0 65.26286395805840357 0 #
straight-curve $-1 0 65.26286395805840357 20.01046841697425549 0 0 -1 I I #
point $-1 0 0 17.60906804050668129 #
straight-curve $-1 0 32.63143197902920178 17.60906804050668129 0 1 0 I I #
point $-1 0 65.26286395805840357 17.60906804050668129 #
straight-curve $-1 63.35591999817692255 354.0463286808295607 -46.18737904937205485 0 -0.7071067893907904134 -0.70710677298230451 I I #
point $-1 63.35591999817692255 -204.1724660115954748 288.7439065744798654 #
straight-curve $-1 63.35591999817692255 19.11505082909258135 65.45638455238189124 0 0.70710677298230451 -0.7071067893907904134 I I #
point $-1 63.35591999817692255 242.4025676697806091 -157.8311374697160545 #
vertex $-1 $581 $657 #
vertex $-1 $583 $658 #
straight-curve $-1 26.32825189614575834 123.2646787580655996 350.2519492655980571 0 0.6819983681709311796 -0.7313536940579346002 I I #
point $-1 26.32825189614575834 -230.9441183680291658 -195.9378683582708049 #
straight-curve $-1 26.32825189614575834 0 19.42101086165634172 0 0.7313536940579346002 0.6819983681709311796 I I #
point $-1 26.32825189614575834 230.9441183680291658 234.77989008158346 #
vertex $-1 $601 $659 #
vertex $-1 $603 $660 #
vertex $-1 $605 $661 #
straight-curve $-1 123.3241009805262252 123.2646787580655996 350.2519492655980571 0 0.6819983681709311796 -0.7313536940579346002 I I #
point $-1 123.3241009805262252 -230.9441183680291658 -195.9378683582708049 #
straight-curve $-1 123.3241009805262252 0 19.42101086165634172 0 0.7313536940579346002 0.6819983681709311796 I I #
point $-1 123.3241009805262252 230.9441183680291658 234.77989008158346 #
vertex $-1 $623 $662 #
vertex $-1 $625 $663 #
vertex $-1 $627 $664 #
point $-1 73.85007235702788364 61.41645469931284396 20.2584465513729306 #
point $-1 89.59130089530434304 61.41645469931284396 20.2584465513729306 #
point $-1 30.56136101829548224 5.716080682133700464 18.32633878680380235 #
point $-1 36.91102470152006276 5.716080682133700464 18.32633878680380235 #
point $-1 43.26068838474464684 5.716080682133700464 18.32633878680380235 #
point $-1 127.5572101026759526 5.716080682133700464 18.32633878680380235 #
point $-1 133.9068737859005296 5.716080682133700464 18.32633878680380235 #
point $-1 140.2565374691251066 5.716080682133700464 18.32633878680380235 #
End-of-ACIS-data 