500 0 18 0           
7 Unknown 11 ACIS 5.0 NT 24 Fri Mar 26 03:21:24 1999 
-1 9.9999999999999995e-007 1e-010 
body $-1 $18 $-1 $19 #
body $-1 $20 $-1 $21 #
body $-1 $22 $-1 $23 #
body $-1 $24 $-1 $25 #
body $-1 $26 $-1 $27 #
body $-1 $28 $-1 $29 #
body $-1 $30 $-1 $31 #
body $-1 $32 $-1 $33 #
body $-1 $34 $-1 $35 #
body $-1 $36 $-1 $37 #
body $-1 $38 $-1 $39 #
body $-1 $40 $-1 $41 #
body $-1 $42 $-1 $43 #
body $-1 $44 $-1 $45 #
body $-1 $46 $-1 $47 #
body $-1 $48 $-1 $49 #
body $-1 $50 $-1 $51 #
body $-1 $52 $-1 $53 #
lump $-1 $-1 $54 $0 #
transform $-1 1 0 0 0 1 0 0 0 1 69.132969145786916 33.870660932515015 9.6168612929365977 1 rotate no_reflect no_shear #
lump $-1 $-1 $55 $1 #
transform $-1 1 0 0 0 1 0 0 0 1 69.132969145786916 33.870660932515015 9.6168612929365977 1 rotate no_reflect no_shear #
lump $-1 $-1 $56 $2 #
transform $-1 1 0 0 0 1 0 0 0 1 69.132969145786916 33.870660932515015 9.6168612929365977 1 rotate no_reflect no_shear #
lump $-1 $-1 $57 $3 #
transform $-1 1 0 0 0 1 0 0 0 1 69.132969145786916 33.870660932515015 9.6168612929365977 1 rotate no_reflect no_shear #
lump $-1 $-1 $58 $4 #
transform $-1 1 0 0 0 1 0 0 0 1 69.132969145786916 33.870660932515015 9.6168612929365977 1 rotate no_reflect no_shear #
lump $-1 $-1 $59 $5 #
transform $-1 1 0 0 0 1 0 0 0 1 69.132969145786916 33.870660932515015 9.6168612929365977 1 rotate no_reflect no_shear #
lump $-1 $-1 $60 $6 #
transform $-1 1 0 0 0 1 0 0 0 1 69.132969145786916 33.870660932515015 9.6168612929365977 1 rotate no_reflect no_shear #
lump $-1 $-1 $61 $7 #
transform $-1 1 0 0 0 1 0 0 0 1 69.132969145786916 33.870660932515015 9.6168612929365977 1 rotate no_reflect no_shear #
lump $-1 $-1 $62 $8 #
transform $-1 1 0 0 0 1 0 0 0 1 69.132969145786916 33.870660932515015 9.6168612929365977 1 rotate no_reflect no_shear #
lump $-1 $-1 $63 $9 #
transform $-1 1 0 0 0 1 0 0 0 1 69.132969145786916 33.870660932515015 9.6168612929365977 1 rotate no_reflect no_shear #
lump $-1 $-1 $64 $10 #
transform $-1 1 0 0 0 1 0 0 0 1 69.132969145786916 33.870660932515015 9.6168612929365977 1 rotate no_reflect no_shear #
lump $-1 $-1 $65 $11 #
transform $-1 1 0 0 0 1 0 0 0 1 69.132969145786916 33.870660932515015 9.6168612929365977 1 rotate no_reflect no_shear #
lump $-1 $-1 $66 $12 #
transform $-1 1 0 0 0 1 0 0 0 1 69.132969145786916 33.870660932515015 9.6168612929365977 1 rotate no_reflect no_shear #
lump $-1 $-1 $67 $13 #
transform $-1 1 0 0 0 1 0 0 0 1 69.132969145786916 33.870660932515015 9.6168612929365977 1 rotate no_reflect no_shear #
lump $-1 $-1 $68 $14 #
transform $-1 1 0 0 0 1 0 0 0 1 69.132969145786916 33.870660932515015 9.6168612929365977 1 rotate no_reflect no_shear #
lump $-1 $-1 $69 $15 #
transform $-1 1 0 0 0 1 0 0 0 1 69.132969145786916 33.870660932515015 9.6168612929365977 1 rotate no_reflect no_shear #
lump $-1 $-1 $70 $16 #
transform $-1 1 0 0 0 1 0 0 0 1 69.132969145786916 33.870660932515015 9.6168612929365977 1 rotate no_reflect no_shear #
lump $-1 $-1 $71 $17 #
transform $-1 1 0 0 0 1 0 0 0 1 69.132969145786916 33.870660932515015 9.6168612929365977 1 rotate no_reflect no_shear #
shell $-1 $-1 $-1 $72 $-1 $18 #
shell $-1 $-1 $-1 $73 $-1 $20 #
shell $-1 $-1 $-1 $74 $-1 $22 #
shell $-1 $-1 $-1 $75 $-1 $24 #
shell $-1 $-1 $-1 $76 $-1 $26 #
shell $-1 $-1 $-1 $77 $-1 $28 #
shell $-1 $-1 $-1 $78 $-1 $30 #
shell $-1 $-1 $-1 $79 $-1 $32 #
shell $-1 $-1 $-1 $80 $-1 $34 #
shell $-1 $-1 $-1 $81 $-1 $36 #
shell $-1 $-1 $-1 $82 $-1 $38 #
shell $-1 $-1 $-1 $83 $-1 $40 #
shell $-1 $-1 $-1 $84 $-1 $42 #
shell $-1 $-1 $-1 $85 $-1 $44 #
shell $-1 $-1 $-1 $86 $-1 $46 #
shell $-1 $-1 $-1 $87 $-1 $48 #
shell $-1 $-1 $-1 $88 $-1 $50 #
shell $-1 $-1 $-1 $89 $-1 $52 #
face $-1 $90 $91 $54 $-1 $92 forward single #
face $-1 $93 $94 $55 $-1 $95 reversed single #
face $-1 $96 $97 $56 $-1 $98 reversed single #
face $-1 $99 $100 $57 $-1 $101 reversed single #
face $-1 $102 $103 $58 $-1 $104 forward single #
face $-1 $105 $106 $59 $-1 $107 forward single #
face $-1 $108 $109 $60 $-1 $110 reversed single #
face $-1 $111 $112 $61 $-1 $113 forward single #
face $-1 $114 $115 $62 $-1 $116 forward single #
face $-1 $117 $118 $63 $-1 $119 reversed single #
face $-1 $120 $121 $64 $-1 $122 forward single #
face $-1 $123 $124 $65 $-1 $125 forward single #
face $-1 $126 $127 $66 $-1 $128 reversed single #
face $-1 $129 $130 $67 $-1 $131 forward single #
face $-1 $132 $133 $68 $-1 $134 forward single #
face $-1 $135 $136 $69 $-1 $137 reversed single #
face $-1 $138 $139 $70 $-1 $140 forward single #
face $-1 $141 $142 $71 $-1 $143 forward single #
face $-1 $144 $145 $54 $-1 $146 reversed single #
loop $-1 $-1 $147 $72 #
plane-surface $-1 0 0 9.6168612929365977 0 0 1 1 0 0 forward_v I I I I #
face $-1 $148 $149 $55 $-1 $150 reversed single #
loop $-1 $-1 $151 $73 #
plane-surface $-1 -64.149910597182398 -26.90470628549819 0 0 1 0 0 0 1 forward_v I I I I #
face $-1 $152 $153 $56 $-1 $154 reversed single #
loop $-1 $-1 $155 $74 #
plane-surface $-1 64.149910597182412 -26.90470628549819 0 0 1 0 0 0 1 forward_v I I I I #
face $-1 $156 $157 $57 $-1 $158 reversed single #
loop $-1 $-1 $159 $75 #
plane-surface $-1 -35.927650427250462 -122.74629400039328 111.01231296367757 -1 0 0 0 -0.64278761758704617 0.76604443648966558 forward_v I I I I #
face $-1 $160 $161 $58 $-1 $162 forward single #
loop $-1 $163 $164 $76 #
cone-surface $-1 -50.600188286490912 -30.016909276804636 5.9744686134323493 0 0.64278761758704617 -0.76604443648966558 1 0 0 1 I I 0 1 1 forward I I I I #
face $-1 $165 $166 $59 $-1 $167 forward single #
loop $-1 $168 $169 $77 #
cone-surface $-1 -41.796665570946644 -30.016909276804636 5.9744686134323493 0 0.64278761758704617 -0.76604443648966558 1 0 0 1 I I 0 1 1 forward I I I I #
face $-1 $170 $171 $60 $-1 $172 reversed single #
loop $-1 $-1 $173 $78 #
plane-surface $-1 -6.3442244029615207 -122.74629400039328 111.01231296367757 -1 0 0 0 -0.64278761758704617 0.76604443648966558 forward_v I I I I #
face $-1 $174 $175 $61 $-1 $176 forward single #
loop $-1 $177 $178 $79 #
cone-surface $-1 -21.016762262201965 -30.016909276804636 5.9744686134323493 0 0.64278761758704617 -0.76604443648966558 1 0 0 1 I I 0 1 1 forward I I I I #
face $-1 $179 $180 $62 $-1 $181 forward single #
loop $-1 $182 $183 $80 #
cone-surface $-1 -12.213239546657704 -30.016909276804636 5.9744686134323493 0 0.64278761758704617 -0.76604443648966558 1 0 0 1 I I 0 1 1 forward I I I I #
face $-1 $184 $185 $63 $-1 $186 reversed single #
loop $-1 $-1 $187 $81 #
plane-surface $-1 23.239201621327418 -122.74629400039328 111.01231296367757 -1 0 0 0 -0.64278761758704617 0.76604443648966558 forward_v I I I I #
face $-1 $188 $189 $64 $-1 $190 forward single #
loop $-1 $191 $192 $82 #
cone-surface $-1 8.566663762086975 -30.016909276804636 5.9744686134323493 0 0.64278761758704617 -0.76604443648966558 1 0 0 1 I I 0 1 1 forward I I I I #
face $-1 $193 $194 $65 $-1 $195 forward single #
loop $-1 $196 $197 $83 #
cone-surface $-1 17.370186477631236 -30.016909276804636 5.9744686134323493 0 0.64278761758704617 -0.76604443648966558 1 0 0 1 I I 0 1 1 forward I I I I #
face $-1 $198 $199 $66 $-1 $200 reversed single #
loop $-1 $-1 $201 $84 #
plane-surface $-1 52.822627645616357 -122.74629400039328 111.01231296367757 -1 0 0 0 -0.64278761758704617 0.76604443648966558 forward_v I I I I #
face $-1 $202 $203 $67 $-1 $204 forward single #
loop $-1 $205 $206 $85 #
cone-surface $-1 38.150089786375915 -30.016909276804636 5.9744686134323493 0 0.64278761758704617 -0.76604443648966558 1 0 0 1 I I 0 1 1 forward I I I I #
face $-1 $207 $208 $68 $-1 $209 forward single #
loop $-1 $210 $211 $86 #
cone-surface $-1 46.953612501920176 -30.016909276804636 5.9744686134323493 0 0.64278761758704617 -0.76604443648966558 1 0 0 1 I I 0 1 1 forward I I I I #
face $-1 $212 $213 $69 $-1 $214 reversed single #
loop $-1 $-1 $215 $87 #
plane-surface $-1 -59.166852048577894 68.239342085050566 150.78251150557483 1 0 0 0 -0.62932039886446345 -0.77714595512881146 forward_v I I I I #
face $-1 $216 $217 $70 $-1 $218 forward single #
loop $-1 $219 $220 $88 #
cone-surface $-1 -53.297965882319922 26.258562649754996 2.5575903532196334 0 -0.62932039886446345 -0.77714595512881146 2.5 0 0 1 I I 0 1 2.5 forward I I I I #
face $-1 $221 $222 $71 $-1 $223 forward single #
loop $-1 $224 $225 $89 #
cone-surface $-1 -44.494636632932966 26.258562649754996 2.5575903532196334 0 -0.62932039886446345 -0.77714595512881146 2.5 0 0 1 I I 0 1 2.5 forward I I I I #
face $-1 $226 $227 $54 $-1 $228 reversed single #
loop $-1 $-1 $229 $90 #
plane-surface $-1 0 0 -9.6168612929365977 0 0 1 1 0 0 forward_v I I I I #
coedge $-1 $230 $231 $232 $233 forward $91 $-1 #
face $-1 $234 $235 $55 $-1 $236 reversed single #
loop $-1 $-1 $237 $93 #
plane-surface $-1 -64.149910597182398 -21.491123922366601 0 0 -1 0 0 0 -1 forward_v I I I I #
coedge $-1 $238 $239 $240 $241 reversed $94 $-1 #
face $-1 $242 $243 $56 $-1 $244 reversed single #
loop $-1 $-1 $245 $96 #
plane-surface $-1 59.166852048577894 -24.197915103932395 0 1 0 0 0 0 -1 forward_v I I I I #
coedge $-1 $246 $247 $248 $249 forward $97 $-1 #
face $-1 $250 $251 $57 $-1 $252 reversed single #
loop $-1 $-1 $253 $99 #
plane-surface $-1 -46.198426928718774 -33.870660932514994 5.0944601793940194 0 -0.64278761758704617 0.76604443648966558 1 0 0 forward_v I I I I #
coedge $-1 $254 $255 $256 $257 reversed $100 $-1 #
face $-1 $-1 $258 $58 $-1 $259 forward single #
loop $-1 $260 $261 $102 #
cone-surface $-1 -50.600188286490912 -28.536557642966592 4.2102542724545486 0 0.64278761758704617 -0.76604443648966558 0.5 0 0 1 I I -0.70710678118654746 0.70710678118654746 0.5 forward I I I I #
loop $-1 $-1 $262 $76 #
coedge $-1 $164 $164 $263 $264 reversed $103 $-1 #
face $-1 $-1 $265 $59 $-1 $266 forward single #
loop $-1 $267 $268 $105 #
cone-surface $-1 -41.796665570946644 -28.536557642966592 4.2102542724545486 0 0.64278761758704617 -0.76604443648966558 0.5 0 0 1 I I -0.70710678118654746 0.70710678118654746 0.5 forward I I I I #
loop $-1 $-1 $269 $77 #
coedge $-1 $169 $169 $270 $271 reversed $106 $-1 #
face $-1 $272 $273 $60 $-1 $274 reversed single #
loop $-1 $-1 $275 $108 #
plane-surface $-1 -16.615000904429834 -33.870660932514994 5.0944601793940194 0 -0.64278761758704617 0.76604443648966558 1 0 0 forward_v I I I I #
coedge $-1 $276 $277 $278 $279 reversed $109 $-1 #
face $-1 $-1 $280 $61 $-1 $281 forward single #
loop $-1 $282 $283 $111 #
cone-surface $-1 -21.016762262201965 -28.536557642966592 4.2102542724545486 0 0.64278761758704617 -0.76604443648966558 0.5 0 0 1 I I -0.70710678118654746 0.70710678118654746 0.5 forward I I I I #
loop $-1 $-1 $284 $79 #
coedge $-1 $178 $178 $285 $286 reversed $112 $-1 #
face $-1 $-1 $287 $62 $-1 $288 forward single #
loop $-1 $289 $290 $114 #
cone-surface $-1 -12.213239546657704 -28.536557642966592 4.2102542724545486 0 0.64278761758704617 -0.76604443648966558 0.5 0 0 1 I I -0.70710678118654746 0.70710678118654746 0.5 forward I I I I #
loop $-1 $-1 $291 $80 #
coedge $-1 $183 $183 $292 $293 reversed $115 $-1 #
face $-1 $294 $295 $63 $-1 $296 reversed single #
loop $-1 $-1 $297 $117 #
plane-surface $-1 12.968425119859106 -33.870660932514994 5.0944601793940194 0 -0.64278761758704617 0.76604443648966558 1 0 0 forward_v I I I I #
coedge $-1 $298 $299 $300 $301 reversed $118 $-1 #
face $-1 $-1 $302 $64 $-1 $303 forward single #
loop $-1 $304 $305 $120 #
cone-surface $-1 8.566663762086975 -28.536557642966592 4.2102542724545486 0 0.64278761758704617 -0.76604443648966558 0.5 0 0 1 I I -0.70710678118654746 0.70710678118654746 0.5 forward I I I I #
loop $-1 $-1 $306 $82 #
coedge $-1 $192 $192 $307 $308 reversed $121 $-1 #
face $-1 $-1 $309 $65 $-1 $310 forward single #
loop $-1 $311 $312 $123 #
cone-surface $-1 17.370186477631236 -28.536557642966592 4.2102542724545486 0 0.64278761758704617 -0.76604443648966558 0.5 0 0 1 I I -0.70710678118654746 0.70710678118654746 0.5 forward I I I I #
loop $-1 $-1 $313 $83 #
coedge $-1 $197 $197 $314 $315 reversed $124 $-1 #
face $-1 $316 $317 $66 $-1 $318 reversed single #
loop $-1 $-1 $319 $126 #
plane-surface $-1 42.551851144148046 -33.870660932514994 5.0944601793940194 0 -0.64278761758704617 0.76604443648966558 1 0 0 forward_v I I I I #
coedge $-1 $320 $321 $322 $323 reversed $127 $-1 #
face $-1 $-1 $324 $67 $-1 $325 forward single #
loop $-1 $326 $327 $129 #
cone-surface $-1 38.150089786375915 -28.536557642966592 4.2102542724545486 0 0.64278761758704617 -0.76604443648966558 0.5 0 0 1 I I -0.70710678118654746 0.70710678118654746 0.5 forward I I I I #
loop $-1 $-1 $328 $85 #
coedge $-1 $206 $206 $329 $330 reversed $130 $-1 #
face $-1 $-1 $331 $68 $-1 $332 forward single #
loop $-1 $333 $334 $132 #
cone-surface $-1 46.953612501920176 -28.536557642966592 4.2102542724545486 0 0.64278761758704617 -0.76604443648966558 0.5 0 0 1 I I -0.70710678118654746 0.70710678118654746 0.5 forward I I I I #
loop $-1 $-1 $335 $86 #
coedge $-1 $211 $211 $336 $337 reversed $133 $-1 #
face $-1 $338 $339 $69 $-1 $340 reversed single #
loop $-1 $-1 $341 $135 #
plane-surface $-1 -48.896301257626448 -18.774233349971965 43.329696830188382 0 0.62932039886446345 0.77714595512881146 1 0 0 forward_v I I I I #
coedge $-1 $342 $343 $344 $345 reversed $136 $-1 #
face $-1 $-1 $346 $70 $-1 $347 forward single #
loop $-1 $348 $349 $138 #
cone-surface $-1 -53.297965882319922 23.366319065798635 -1.0140329511808801 0 -0.62932039886446345 -0.77714595512881146 1.25 0 0 1 I I -0.70710678118654746 0.70710678118654746 1.25 forward I I I I #
loop $-1 $-1 $350 $88 #
coedge $-1 $220 $220 $351 $352 reversed $139 $-1 #
face $-1 $-1 $353 $71 $-1 $354 forward single #
loop $-1 $355 $356 $141 #
cone-surface $-1 -44.494636632932966 23.366319065798635 -1.0140329511808801 0 -0.62932039886446345 -0.77714595512881146 1.25 0 0 1 I I -0.70710678118654746 0.70710678118654746 1.25 forward I I I I #
loop $-1 $-1 $357 $89 #
coedge $-1 $225 $225 $358 $359 reversed $142 $-1 #
face $-1 $360 $361 $54 $-1 $362 reversed single #
loop $-1 $-1 $363 $144 #
plane-surface $-1 0 -33.870660932515015 0 0 1 0 0 0 1 forward_v I I I I #
coedge $-1 $364 $365 $366 $367 forward $145 $-1 #
coedge $-1 $368 $147 $369 $370 forward $91 $-1 #
coedge $-1 $147 $368 $371 $372 forward $91 $-1 #
coedge $-1 $373 $374 $147 $233 reversed $375 $-1 #
edge $-1 $376 -33.870660932515015 $377 33.870660932515015 $232 $378 forward 7 unknown #
face $-1 $379 $380 $55 $-1 $381 reversed single #
loop $-1 $-1 $382 $148 #
plane-surface $-1 -59.166852048577887 -24.197915103932395 0 -1 0 0 0 0 1 forward_v I I I I #
coedge $-1 $383 $384 $385 $386 forward $149 $-1 #
coedge $-1 $387 $151 $388 $389 reversed $94 $-1 #
coedge $-1 $151 $387 $390 $391 reversed $94 $-1 #
coedge $-1 $392 $393 $151 $241 forward $394 $-1 #
edge $-1 $395 -9.6168612929365977 $396 9.6168612929365977 $240 $397 forward 7 unknown #
face $-1 $398 $399 $56 $-1 $400 reversed single #
loop $-1 $-1 $401 $152 #
plane-surface $-1 64.149910597182412 -21.491123922366601 0 0 -1 0 0 0 -1 forward_v I I I I #
coedge $-1 $402 $403 $404 $405 forward $153 $-1 #
coedge $-1 $406 $155 $407 $408 reversed $97 $-1 #
coedge $-1 $155 $406 $409 $410 reversed $97 $-1 #
coedge $-1 $403 $402 $155 $249 reversed $153 $-1 #
edge $-1 $411 -9.6168612929365977 $412 9.6168612929365977 $248 $413 forward 7 unknown #
face $-1 $414 $415 $57 $-1 $416 forward single #
loop $-1 $-1 $417 $156 #
plane-surface $-1 -56.469203430187086 -122.74629400039328 111.01231296367757 1 0 0 0 0.64278761758704617 -0.76604443648966558 forward_v I I I I #
coedge $-1 $418 $419 $420 $421 reversed $157 $-1 #
coedge $-1 $255 $159 $422 $423 reversed $100 $-1 #
coedge $-1 $159 $254 $418 $424 reversed $100 $-1 #
coedge $-1 $420 $425 $159 $257 forward $415 $-1 #
edge $-1 $426 27.502486067681623 $427 32.892073729013376 $256 $428 forward 7 unknown #
loop $-1 $-1 $263 $160 #
plane-surface $-1 -46.198426928718774 -33.870660932514994 5.0944601793940194 0 -0.64278761758704617 0.76604443648966558 1 0 0 forward_v I I I I #
loop $-1 $-1 $429 $102 #
coedge $-1 $261 $261 $262 $430 reversed $161 $-1 #
coedge $-1 $262 $262 $261 $430 forward $163 $-1 #
coedge $-1 $263 $263 $164 $264 forward $258 $-1 #
edge $-1 $431 -1.0476607518213183e-015 $431 6.2831853071795996 $263 $432 forward 7 unknown #
loop $-1 $-1 $270 $165 #
plane-surface $-1 -46.198426928718774 -33.870660932514994 5.0944601793940194 0 -0.64278761758704617 0.76604443648966558 1 0 0 forward_v I I I I #
loop $-1 $-1 $433 $105 #
coedge $-1 $268 $268 $269 $434 reversed $166 $-1 #
coedge $-1 $269 $269 $268 $434 forward $168 $-1 #
coedge $-1 $270 $270 $169 $271 forward $265 $-1 #
edge $-1 $435 -1.0476607518213183e-015 $435 6.2831853071795996 $270 $436 forward 7 unknown #
face $-1 $437 $438 $60 $-1 $439 reversed single #
loop $-1 $-1 $440 $170 #
plane-surface $-1 -26.885777405898146 -122.74629400039328 111.01231296367757 1 0 0 0 0.64278761758704617 -0.76604443648966558 forward_v I I I I #
coedge $-1 $441 $442 $443 $444 reversed $171 $-1 #
coedge $-1 $277 $173 $445 $446 reversed $109 $-1 #
coedge $-1 $173 $276 $441 $447 reversed $109 $-1 #
coedge $-1 $443 $448 $173 $279 forward $449 $-1 #
edge $-1 $450 27.502486067681623 $451 32.892073729013376 $278 $452 forward 7 unknown #
loop $-1 $-1 $285 $174 #
plane-surface $-1 -16.615000904429834 -33.870660932514994 5.0944601793940194 0 -0.64278761758704617 0.76604443648966558 1 0 0 forward_v I I I I #
loop $-1 $-1 $453 $111 #
coedge $-1 $283 $283 $284 $454 reversed $175 $-1 #
coedge $-1 $284 $284 $283 $454 forward $177 $-1 #
coedge $-1 $285 $285 $178 $286 forward $280 $-1 #
edge $-1 $455 -1.0476607518213183e-015 $455 6.2831853071795996 $285 $456 forward 7 unknown #
loop $-1 $-1 $292 $179 #
plane-surface $-1 -16.615000904429834 -33.870660932514994 5.0944601793940194 0 -0.64278761758704617 0.76604443648966558 1 0 0 forward_v I I I I #
loop $-1 $-1 $457 $114 #
coedge $-1 $290 $290 $291 $458 reversed $180 $-1 #
coedge $-1 $291 $291 $290 $458 forward $182 $-1 #
coedge $-1 $292 $292 $183 $293 forward $287 $-1 #
edge $-1 $459 -1.0476607518213183e-015 $459 6.2831853071795996 $292 $460 forward 7 unknown #
face $-1 $461 $462 $63 $-1 $463 reversed single #
loop $-1 $-1 $464 $184 #
plane-surface $-1 2.697648618390792 -122.74629400039328 111.01231296367757 1 0 0 0 0.64278761758704617 -0.76604443648966558 forward_v I I I I #
coedge $-1 $465 $466 $467 $468 reversed $185 $-1 #
coedge $-1 $299 $187 $469 $470 reversed $118 $-1 #
coedge $-1 $187 $298 $465 $471 reversed $118 $-1 #
coedge $-1 $467 $472 $187 $301 forward $473 $-1 #
edge $-1 $474 27.502486067681623 $475 32.892073729013376 $300 $476 forward 7 unknown #
loop $-1 $-1 $307 $188 #
plane-surface $-1 12.968425119859106 -33.870660932514994 5.0944601793940194 0 -0.64278761758704617 0.76604443648966558 1 0 0 forward_v I I I I #
loop $-1 $-1 $477 $120 #
coedge $-1 $305 $305 $306 $478 reversed $189 $-1 #
coedge $-1 $306 $306 $305 $478 forward $191 $-1 #
coedge $-1 $307 $307 $192 $308 forward $302 $-1 #
edge $-1 $479 -1.0476607518213183e-015 $479 6.2831853071795996 $307 $480 forward 7 unknown #
loop $-1 $-1 $314 $193 #
plane-surface $-1 12.968425119859106 -33.870660932514994 5.0944601793940194 0 -0.64278761758704617 0.76604443648966558 1 0 0 forward_v I I I I #
loop $-1 $-1 $481 $123 #
coedge $-1 $312 $312 $313 $482 reversed $194 $-1 #
coedge $-1 $313 $313 $312 $482 forward $196 $-1 #
coedge $-1 $314 $314 $197 $315 forward $309 $-1 #
edge $-1 $483 -1.0476607518213183e-015 $483 6.2831853071795996 $314 $484 forward 7 unknown #
face $-1 $485 $486 $66 $-1 $487 reversed single #
loop $-1 $-1 $488 $198 #
plane-surface $-1 32.281074642679734 -122.74629400039328 111.01231296367757 1 0 0 0 0.64278761758704617 -0.76604443648966558 forward_v I I I I #
coedge $-1 $489 $490 $491 $492 reversed $199 $-1 #
coedge $-1 $321 $201 $493 $494 reversed $127 $-1 #
coedge $-1 $201 $320 $489 $495 reversed $127 $-1 #
coedge $-1 $491 $496 $201 $323 forward $497 $-1 #
edge $-1 $498 27.502486067681623 $499 32.892073729013376 $322 $500 forward 7 unknown #
loop $-1 $-1 $329 $202 #
plane-surface $-1 42.551851144148046 -33.870660932514994 5.0944601793940194 0 -0.64278761758704617 0.76604443648966558 1 0 0 forward_v I I I I #
loop $-1 $-1 $501 $129 #
coedge $-1 $327 $327 $328 $502 reversed $203 $-1 #
coedge $-1 $328 $328 $327 $502 forward $205 $-1 #
coedge $-1 $329 $329 $206 $330 forward $324 $-1 #
edge $-1 $503 -1.0476607518213183e-015 $503 6.2831853071795996 $329 $504 forward 7 unknown #
loop $-1 $-1 $336 $207 #
plane-surface $-1 42.551851144148046 -33.870660932514994 5.0944601793940194 0 -0.64278761758704617 0.76604443648966558 1 0 0 forward_v I I I I #
loop $-1 $-1 $505 $132 #
coedge $-1 $334 $334 $335 $506 reversed $208 $-1 #
coedge $-1 $335 $335 $334 $506 forward $210 $-1 #
coedge $-1 $336 $336 $211 $337 forward $331 $-1 #
edge $-1 $507 -1.0476607518213183e-015 $507 6.2831853071795996 $336 $508 forward 7 unknown #
face $-1 $509 $510 $69 $-1 $511 reversed single #
loop $-1 $-1 $512 $212 #
plane-surface $-1 -38.625750466675001 68.239342085050566 150.78251150557483 -1 0 0 0 0.62932039886446345 0.77714595512881146 forward_v I I I I #
coedge $-1 $513 $514 $515 $516 reversed $213 $-1 #
coedge $-1 $343 $215 $517 $518 reversed $136 $-1 #
coedge $-1 $215 $342 $513 $519 reversed $136 $-1 #
coedge $-1 $515 $520 $215 $345 forward $521 $-1 #
edge $-1 $522 0.24901011001026774 $523 11.262020504778683 $344 $524 forward 7 unknown #
loop $-1 $-1 $351 $216 #
plane-surface $-1 -48.896301257626448 -18.774233349971965 43.329696830188382 0 0.62932039886446345 0.77714595512881146 1 0 0 forward_v I I I I #
loop $-1 $-1 $525 $138 #
coedge $-1 $349 $349 $350 $526 reversed $217 $-1 #
coedge $-1 $350 $350 $349 $526 forward $219 $-1 #
coedge $-1 $351 $351 $220 $352 forward $346 $-1 #
edge $-1 $527 3.046201306158348e-016 $527 6.2831853071796004 $351 $528 forward 7 unknown #
loop $-1 $-1 $358 $221 #
plane-surface $-1 -48.896301257626448 -18.774233349971965 43.329696830188382 0 0.62932039886446345 0.77714595512881146 1 0 0 forward_v I I I I #
loop $-1 $-1 $529 $141 #
coedge $-1 $356 $356 $357 $530 reversed $222 $-1 #
coedge $-1 $357 $357 $356 $530 forward $224 $-1 #
coedge $-1 $358 $358 $225 $359 forward $353 $-1 #
edge $-1 $531 3.046201306158348e-016 $531 6.2831853071796004 $358 $532 forward 7 unknown #
face $-1 $533 $534 $54 $-1 $535 reversed single #
loop $-1 $-1 $536 $226 #
plane-surface $-1 -69.132969145786916 0 0 1 0 0 0 0 -1 forward_v I I I I #
coedge $-1 $537 $371 $538 $539 forward $227 $-1 #
coedge $-1 $540 $229 $537 $541 forward $145 $-1 #
coedge $-1 $229 $540 $542 $543 forward $145 $-1 #
coedge $-1 $374 $373 $229 $367 reversed $375 $-1 #
edge $-1 $544 -33.870660932515015 $545 33.870660932515015 $366 $546 forward 7 unknown #
coedge $-1 $231 $230 $547 $548 forward $91 $-1 #
coedge $-1 $549 $550 $230 $370 reversed $534 $-1 #
edge $-1 $377 -69.132969145786916 $551 69.132969145786916 $369 $552 forward 7 unknown #
coedge $-1 $363 $553 $231 $372 reversed $227 $-1 #
edge $-1 $554 -69.132969145786916 $376 69.132969145786916 $371 $555 forward 7 unknown #
coedge $-1 $366 $232 $553 $556 forward $375 $-1 #
coedge $-1 $232 $366 $549 $557 reversed $375 $-1 #
loop $-1 $-1 $373 $533 #
vertex $-1 $233 $558 #
vertex $-1 $233 $559 #
straight-curve $-1 69.132969145786916 0 9.6168612929365977 0 1 0 I I #
face $-1 $560 $561 $55 $-1 $562 forward single #
loop $-1 $-1 $563 $234 #
plane-surface $-1 0 0 -9.6168612929365977 0 0 1 1 0 0 forward_v I I I I #
coedge $-1 $564 $565 $387 $566 forward $235 $-1 #
coedge $-1 $567 $237 $563 $568 reversed $149 $-1 #
coedge $-1 $237 $567 $569 $570 reversed $149 $-1 #
coedge $-1 $565 $564 $237 $386 reversed $235 $-1 #
edge $-1 $571 -9.6168612929365977 $572 9.6168612929365977 $385 $573 forward 7 unknown #
coedge $-1 $239 $238 $382 $566 reversed $94 $-1 #
coedge $-1 $574 $575 $238 $389 forward $380 $-1 #
edge $-1 $576 27.091896749986688 $395 37.058013847195717 $388 $577 forward 7 unknown #
coedge $-1 $578 $579 $239 $391 forward $561 $-1 #
edge $-1 $396 -37.058013847195717 $580 -27.091896749986688 $390 $581 forward 7 unknown #
coedge $-1 $582 $240 $579 $583 reversed $394 $-1 #
coedge $-1 $240 $582 $574 $584 reversed $394 $-1 #
loop $-1 $-1 $582 $560 #
vertex $-1 $584 $585 #
vertex $-1 $241 $586 #
straight-curve $-1 -69.132969145786916 -26.90470628549819 0 0 0 1 I I #
face $-1 $587 $588 $56 $-1 $589 forward single #
loop $-1 $-1 $407 $242 #
plane-surface $-1 0 0 -9.6168612929365977 0 0 1 1 0 0 forward_v I I I I #
coedge $-1 $590 $591 $592 $593 reversed $243 $-1 #
coedge $-1 $248 $245 $594 $595 reversed $153 $-1 #
coedge $-1 $245 $248 $596 $597 reversed $153 $-1 #
coedge $-1 $591 $590 $245 $405 reversed $243 $-1 #
edge $-1 $598 -9.6168612929365977 $599 9.6168612929365977 $404 $600 forward 7 unknown #
coedge $-1 $247 $246 $601 $602 reversed $97 $-1 #
coedge $-1 $594 $603 $246 $408 forward $399 $-1 #
edge $-1 $604 -37.058013847195724 $412 -27.091896749986688 $407 $605 forward 7 unknown #
coedge $-1 $606 $596 $247 $410 forward $588 $-1 #
edge $-1 $411 27.091896749986688 $607 37.058013847195724 $409 $608 forward 7 unknown #
vertex $-1 $410 $609 #
vertex $-1 $408 $610 #
straight-curve $-1 59.166852048577894 -26.90470628549819 0 0 0 -1 I I #
face $-1 $-1 $611 $57 $-1 $612 reversed single #
loop $-1 $-1 $256 $250 #
plane-surface $-1 0 0 9.6168612929365977 0 0 1 1 0 0 forward_v I I I I #
coedge $-1 $613 $614 $615 $616 reversed $251 $-1 #
coedge $-1 $617 $253 $255 $424 forward $157 $-1 #
coedge $-1 $253 $617 $613 $618 forward $157 $-1 #
coedge $-1 $615 $256 $253 $421 forward $415 $-1 #
edge $-1 $427 12.828436962891075 $619 33.369989965827699 $420 $620 forward 7 unknown #
coedge $-1 $621 $622 $254 $423 forward $611 $-1 #
edge $-1 $623 -50.411696302444781 $426 -45.889295188902189 $422 $624 forward 7 unknown #
edge $-1 $427 -7.0356070804835564 $623 2.7747421096340558e-014 $255 $625 forward 7 unknown #
coedge $-1 $256 $615 $621 $626 forward $415 $-1 #
vertex $-1 $257 $627 #
vertex $-1 $257 $628 #
straight-curve $-1 -35.927650427250462 -61.373147000196639 9.6168612929365977 0 1 0 I I #
coedge $-1 $429 $429 $-1 $629 reversed $260 $-1 #
edge $-1 $630 0 $630 6.2831853071796004 $261 $631 forward 7 unknown #
vertex $-1 $264 $632 #
ellipse-curve $-1 -50.600188286490912 -31.175867101849143 7.3556607361652979 0 -0.64278761758704617 0.76604443648966558 1 0 0 1 I I #
coedge $-1 $433 $433 $-1 $633 reversed $267 $-1 #
edge $-1 $634 0 $634 6.2831853071796004 $268 $635 forward 7 unknown #
vertex $-1 $271 $636 #
ellipse-curve $-1 -41.796665570946644 -31.175867101849143 7.3556607361652979 0 -0.64278761758704617 0.76604443648966558 1 0 0 1 I I #
face $-1 $-1 $449 $60 $-1 $637 forward single #
loop $-1 $-1 $638 $272 #
plane-surface $-1 0 -33.870660932515015 0 0 1 0 0 0 1 forward_v I I I I #
coedge $-1 $639 $640 $641 $642 reversed $273 $-1 #
coedge $-1 $643 $275 $277 $447 forward $171 $-1 #
coedge $-1 $275 $643 $639 $644 forward $171 $-1 #
coedge $-1 $641 $278 $275 $444 forward $449 $-1 #
edge $-1 $451 -1.9632760492533965 $645 18.578276953683229 $443 $646 forward 7 unknown #
coedge $-1 $647 $648 $276 $446 forward $438 $-1 #
edge $-1 $649 -50.411696302444781 $450 -45.889295188902189 $445 $650 forward 7 unknown #
edge $-1 $451 -7.0356070804835564 $649 2.7747421096340558e-014 $277 $651 forward 7 unknown #
coedge $-1 $278 $641 $647 $652 forward $449 $-1 #
loop $-1 $-1 $641 $437 #
vertex $-1 $446 $653 #
vertex $-1 $279 $654 #
straight-curve $-1 -6.3442244029615207 -61.373147000196639 9.6168612929365977 0 1 0 I I #
coedge $-1 $453 $453 $-1 $655 reversed $282 $-1 #
edge $-1 $656 0 $656 6.2831853071796004 $283 $657 forward 7 unknown #
vertex $-1 $286 $658 #
ellipse-curve $-1 -21.016762262201965 -31.175867101849143 7.3556607361652979 0 -0.64278761758704617 0.76604443648966558 1 0 0 1 I I #
coedge $-1 $457 $457 $-1 $659 reversed $289 $-1 #
edge $-1 $660 0 $660 6.2831853071796004 $290 $661 forward 7 unknown #
vertex $-1 $293 $662 #
ellipse-curve $-1 -12.213239546657704 -31.175867101849143 7.3556607361652979 0 -0.64278761758704617 0.76604443648966558 1 0 0 1 I I #
face $-1 $-1 $473 $63 $-1 $663 forward single #
loop $-1 $-1 $664 $294 #
plane-surface $-1 0 -33.870660932515015 0 0 1 0 0 0 1 forward_v I I I I #
coedge $-1 $665 $666 $667 $668 reversed $295 $-1 #
coedge $-1 $669 $297 $299 $471 forward $185 $-1 #
coedge $-1 $297 $669 $665 $670 forward $185 $-1 #
coedge $-1 $667 $300 $297 $468 forward $473 $-1 #
edge $-1 $475 -16.754989061397865 $671 3.7865639415387609 $467 $672 forward 7 unknown #
coedge $-1 $673 $674 $298 $470 forward $462 $-1 #
edge $-1 $675 -50.411696302444781 $474 -45.889295188902189 $469 $676 forward 7 unknown #
edge $-1 $475 -7.0356070804835564 $675 2.7747421096340558e-014 $299 $677 forward 7 unknown #
coedge $-1 $300 $667 $673 $678 forward $473 $-1 #
loop $-1 $-1 $667 $461 #
vertex $-1 $470 $679 #
vertex $-1 $301 $680 #
straight-curve $-1 23.239201621327418 -61.373147000196639 9.6168612929365977 0 1 0 I I #
coedge $-1 $477 $477 $-1 $681 reversed $304 $-1 #
edge $-1 $682 0 $682 6.2831853071796004 $305 $683 forward 7 unknown #
vertex $-1 $308 $684 #
ellipse-curve $-1 8.566663762086975 -31.175867101849143 7.3556607361652979 0 -0.64278761758704617 0.76604443648966558 1 0 0 1 I I #
coedge $-1 $481 $481 $-1 $685 reversed $311 $-1 #
edge $-1 $686 0 $686 6.2831853071796004 $312 $687 forward 7 unknown #
vertex $-1 $315 $688 #
ellipse-curve $-1 17.370186477631236 -31.175867101849143 7.3556607361652979 0 -0.64278761758704617 0.76604443648966558 1 0 0 1 I I #
face $-1 $-1 $497 $66 $-1 $689 forward single #
loop $-1 $-1 $690 $316 #
plane-surface $-1 0 -33.870660932515015 0 0 1 0 0 0 1 forward_v I I I I #
coedge $-1 $691 $692 $693 $694 reversed $317 $-1 #
coedge $-1 $695 $319 $321 $495 forward $199 $-1 #
coedge $-1 $319 $695 $691 $696 forward $199 $-1 #
coedge $-1 $693 $322 $319 $492 forward $497 $-1 #
edge $-1 $499 -31.546702073542335 $697 -11.005149070605711 $491 $698 forward 7 unknown #
coedge $-1 $699 $700 $320 $494 forward $486 $-1 #
edge $-1 $701 -50.411696302444781 $498 -45.889295188902189 $493 $702 forward 7 unknown #
edge $-1 $499 -7.0356070804835564 $701 2.7747421096340558e-014 $321 $703 forward 7 unknown #
coedge $-1 $322 $693 $699 $704 forward $497 $-1 #
loop $-1 $-1 $693 $485 #
vertex $-1 $494 $705 #
vertex $-1 $323 $706 #
straight-curve $-1 52.822627645616357 -61.373147000196639 9.6168612929365977 0 1 0 I I #
coedge $-1 $501 $501 $-1 $707 reversed $326 $-1 #
edge $-1 $708 0 $708 6.2831853071796004 $327 $709 forward 7 unknown #
vertex $-1 $330 $710 #
ellipse-curve $-1 38.150089786375915 -31.175867101849143 7.3556607361652979 0 -0.64278761758704617 0.76604443648966558 1 0 0 1 I I #
coedge $-1 $505 $505 $-1 $711 reversed $333 $-1 #
edge $-1 $712 0 $712 6.2831853071796004 $334 $713 forward 7 unknown #
vertex $-1 $337 $714 #
ellipse-curve $-1 46.953612501920176 -31.175867101849143 7.3556607361652979 0 -0.64278761758704617 0.76604443648966558 1 0 0 1 I I #
face $-1 $-1 $521 $69 $-1 $715 forward single #
loop $-1 $-1 $716 $338 #
plane-surface $-1 0 33.870660932515015 0 0 -1 0 0 0 -1 forward_v I I I I #
coedge $-1 $717 $718 $719 $720 reversed $339 $-1 #
coedge $-1 $721 $341 $343 $519 forward $213 $-1 #
coedge $-1 $341 $721 $717 $722 forward $213 $-1 #
coedge $-1 $719 $344 $341 $516 forward $521 $-1 #
edge $-1 $523 -34.71870141976467 $723 -14.177599837861777 $515 $724 forward 7 unknown #
coedge $-1 $725 $726 $342 $518 forward $510 $-1 #
edge $-1 $727 -74.692554618305707 $522 -65.774394459850811 $517 $728 forward 7 unknown #
edge $-1 $523 53.570225274888173 $727 67.741321865030002 $343 $729 forward 7 unknown #
coedge $-1 $344 $719 $725 $730 forward $521 $-1 #
loop $-1 $-1 $719 $509 #
vertex $-1 $518 $731 #
vertex $-1 $345 $732 #
straight-curve $-1 -59.166852048577894 34.119671042525283 9.6168612929365906 0 -1 0 I I #
coedge $-1 $525 $525 $-1 $733 reversed $348 $-1 #
edge $-1 $734 0 $734 6.2831853071796004 $349 $735 forward 7 unknown #
vertex $-1 $352 $736 #
ellipse-curve $-1 -53.297965882319922 28.364155735130801 5.1577812137091605 0 0.62932039886446345 0.77714595512881146 2.5 0 0 1 I I #
coedge $-1 $529 $529 $-1 $737 reversed $355 $-1 #
edge $-1 $738 0 $738 6.2831853071796004 $356 $739 forward 7 unknown #
vertex $-1 $359 $740 #
ellipse-curve $-1 -44.494636632932966 28.364155735130801 5.1577812137091605 0 0.62932039886446345 0.77714595512881146 2.5 0 0 1 I I #
face $-1 $-1 $375 $54 $-1 $741 reversed single #
loop $-1 $-1 $549 $360 #
plane-surface $-1 0 33.870660932515015 0 0 -1 0 0 0 -1 forward_v I I I I #
coedge $-1 $742 $547 $550 $743 forward $361 $-1 #
coedge $-1 $553 $363 $364 $541 reversed $227 $-1 #
coedge $-1 $547 $742 $363 $539 reversed $361 $-1 #
edge $-1 $554 -9.6168612929365977 $744 9.6168612929365977 $538 $745 forward 7 unknown #
coedge $-1 $365 $364 $742 $746 forward $145 $-1 #
edge $-1 $545 -69.132969145786916 $744 69.132969145786916 $537 $747 forward 7 unknown #
coedge $-1 $550 $549 $365 $543 reversed $534 $-1 #
edge $-1 $748 -69.132969145786916 $544 69.132969145786916 $542 $749 forward 7 unknown #
vertex $-1 $367 $750 #
vertex $-1 $556 $751 #
straight-curve $-1 69.132969145786916 0 -9.6168612929365977 0 -1 0 I I #
coedge $-1 $536 $538 $368 $548 reversed $361 $-1 #
edge $-1 $551 -33.870660932515015 $554 33.870660932515015 $547 $752 forward 7 unknown #
coedge $-1 $542 $369 $374 $557 forward $534 $-1 #
coedge $-1 $369 $542 $536 $743 reversed $534 $-1 #
vertex $-1 $370 $753 #
straight-curve $-1 0 33.870660932515015 9.6168612929365977 -1 0 0 I I #
coedge $-1 $371 $537 $373 $556 reversed $227 $-1 #
vertex $-1 $548 $754 #
straight-curve $-1 0 -33.870660932515015 9.6168612929365977 1 0 0 I I #
edge $-1 $376 -9.6168612929365977 $545 9.6168612929365977 $373 $755 forward 7 unknown #
edge $-1 $377 -9.6168612929365977 $544 9.6168612929365977 $374 $756 forward 7 unknown #
point $-1 69.132969145786916 -33.870660932515015 9.6168612929365977 #
point $-1 69.132969145786916 33.870660932515015 9.6168612929365977 #
face $-1 $-1 $394 $55 $-1 $757 reversed single #
loop $-1 $-1 $569 $379 #
plane-surface $-1 0 0 9.6168612929365977 0 0 1 1 0 0 forward_v I I I I #
coedge $-1 $575 $574 $383 $568 forward $380 $-1 #
coedge $-1 $385 $382 $575 $758 reversed $235 $-1 #
coedge $-1 $382 $385 $578 $759 reversed $235 $-1 #
edge $-1 $580 -9.6168612929365977 $576 9.6168612929365977 $382 $760 forward 7 unknown #
coedge $-1 $384 $383 $582 $761 reversed $149 $-1 #
edge $-1 $762 -37.058013847195717 $572 -27.091896749986688 $563 $763 forward 7 unknown #
coedge $-1 $579 $578 $384 $570 forward $561 $-1 #
edge $-1 $571 27.091896749986688 $764 37.058013847195717 $569 $765 forward 7 unknown #
vertex $-1 $570 $766 #
vertex $-1 $568 $767 #
straight-curve $-1 -59.166852048577887 -21.491123922366601 0 0 0 -1 I I #
coedge $-1 $563 $388 $393 $584 forward $380 $-1 #
coedge $-1 $388 $563 $564 $758 forward $380 $-1 #
vertex $-1 $389 $768 #
straight-curve $-1 -32.074955298591199 -26.90470628549819 -9.6168612929365977 -1 0 0 I I #
coedge $-1 $569 $390 $565 $759 forward $561 $-1 #
coedge $-1 $390 $569 $392 $583 forward $561 $-1 #
vertex $-1 $391 $769 #
straight-curve $-1 -32.074955298591199 -26.90470628549819 9.6168612929365977 1 0 0 I I #
coedge $-1 $393 $392 $567 $761 forward $394 $-1 #
edge $-1 $764 21.491123922366601 $396 26.90470628549819 $392 $770 forward 7 unknown #
edge $-1 $395 -26.90470628549819 $762 -21.491123922366601 $393 $771 forward 7 unknown #
point $-1 -69.132969145786916 -26.90470628549819 -9.6168612929365977 #
point $-1 -69.132969145786916 -26.90470628549819 9.6168612929365977 #
face $-1 $-1 $772 $56 $-1 $773 reversed single #
loop $-1 $-1 $409 $398 #
plane-surface $-1 0 0 9.6168612929365977 0 0 1 1 0 0 forward_v I I I I #
coedge $-1 $404 $401 $774 $775 reversed $243 $-1 #
coedge $-1 $401 $404 $776 $777 reversed $243 $-1 #
coedge $-1 $778 $779 $401 $593 forward $772 $-1 #
edge $-1 $780 -9.6168612929365977 $781 9.6168612929365977 $592 $782 forward 7 unknown #
coedge $-1 $774 $407 $402 $595 forward $399 $-1 #
edge $-1 $412 -14.805748733531992 $599 -9.3921663704004033 $594 $783 forward 7 unknown #
coedge $-1 $409 $776 $403 $597 forward $588 $-1 #
edge $-1 $598 9.3921663704004033 $411 14.805748733531992 $596 $784 forward 7 unknown #
vertex $-1 $597 $785 #
vertex $-1 $595 $786 #
straight-curve $-1 59.166852048577894 -21.491123922366601 0 0 0 -1 I I #
coedge $-1 $779 $778 $406 $602 forward $772 $-1 #
edge $-1 $607 -9.6168612929365977 $604 9.6168612929365977 $601 $787 forward 7 unknown #
coedge $-1 $407 $774 $779 $788 forward $399 $-1 #
vertex $-1 $602 $789 #
straight-curve $-1 32.074955298591206 -26.90470628549819 -9.6168612929365977 -1 0 0 I I #
coedge $-1 $776 $409 $778 $790 forward $588 $-1 #
vertex $-1 $790 $791 #
straight-curve $-1 32.074955298591206 -26.90470628549819 9.6168612929365977 1 0 0 I I #
point $-1 59.166852048577894 -26.90470628549819 9.6168612929365977 #
point $-1 59.166852048577894 -26.90470628549819 -9.6168612929365977 #
loop $-1 $-1 $422 $414 #
plane-surface $-1 0 -33.870660932515015 0 0 1 0 0 0 1 forward_v I I I I #
coedge $-1 $614 $417 $419 $618 reversed $251 $-1 #
coedge $-1 $417 $613 $792 $793 reversed $251 $-1 #
coedge $-1 $425 $420 $417 $616 forward $415 $-1 #
edge $-1 $619 -32.892073729013376 $794 -27.502486067681623 $615 $795 forward 7 unknown #
coedge $-1 $419 $418 $622 $796 reversed $157 $-1 #
edge $-1 $797 -2.7747421096340558e-014 $619 7.0356070804835564 $613 $798 forward 7 unknown #
vertex $-1 $421 $799 #
straight-curve $-1 -23.099213464359387 -28.481073271183266 9.6168612929365977 -1 0 0 I I #
coedge $-1 $792 $422 $425 $626 reversed $611 $-1 #
coedge $-1 $422 $792 $617 $796 forward $611 $-1 #
vertex $-1 $423 $800 #
straight-curve $-1 -35.927650427250462 -33.870660932515015 55.506156481838786 0 0 1 I I #
straight-curve $-1 -35.927650427250462 -33.870660932514994 5.0944601793940194 0 -0.76604443648966558 -0.64278761758704617 I I #
edge $-1 $794 -56.469203430187086 $426 -35.927650427250462 $621 $801 forward 7 unknown #
point $-1 -35.927650427250462 -33.870660932515015 9.6168612929365977 #
point $-1 -35.927650427250462 -28.481073271183266 9.6168612929365977 #
edge $-1 $802 1 $802 0 $429 $-1 forward 7 unknown #
vertex $-1 $430 $803 #
ellipse-curve $-1 -50.600188286490912 -28.857951451760115 4.593276490699381 0 -0.64278761758704617 0.76604443648966558 1 0 0 1 I I #
point $-1 -49.600188286490912 -31.17586710184916 7.3556607361653175 #
edge $-1 $804 1 $804 0 $433 $-1 forward 7 unknown #
vertex $-1 $434 $805 #
ellipse-curve $-1 -41.796665570946644 -28.857951451760115 4.593276490699381 0 -0.64278761758704617 0.76604443648966558 1 0 0 1 I I #
point $-1 -40.796665570946644 -31.17586710184916 7.3556607361653175 #
plane-surface $-1 0 0 9.6168612929365977 0 0 1 1 0 0 forward_v I I I I #
coedge $-1 $648 $647 $640 $806 forward $438 $-1 #
coedge $-1 $640 $440 $442 $644 reversed $273 $-1 #
coedge $-1 $440 $639 $638 $806 reversed $273 $-1 #
coedge $-1 $448 $443 $440 $642 forward $449 $-1 #
edge $-1 $645 -32.892073729013376 $807 -27.502486067681623 $641 $808 forward 7 unknown #
coedge $-1 $442 $441 $648 $809 reversed $171 $-1 #
edge $-1 $810 -2.7747421096340558e-014 $645 7.0356070804835564 $639 $811 forward 7 unknown #
vertex $-1 $444 $812 #
straight-curve $-1 -8.3075004522149172 -28.481073271183266 9.6168612929365977 -1 0 0 I I #
coedge $-1 $638 $445 $448 $652 reversed $438 $-1 #
coedge $-1 $445 $638 $643 $809 forward $438 $-1 #
vertex $-1 $446 $813 #
straight-curve $-1 -6.3442244029615207 -33.870660932515015 55.506156481838786 0 0 1 I I #
straight-curve $-1 -6.3442244029615207 -33.870660932514994 5.0944601793940194 0 -0.76604443648966558 -0.64278761758704617 I I #
edge $-1 $807 -26.885777405898146 $450 -6.3442244029615207 $647 $814 forward 7 unknown #
point $-1 -6.3442244029615207 -33.870660932515015 9.6168612929365977 #
point $-1 -6.3442244029615207 -28.481073271183266 9.6168612929365977 #
edge $-1 $815 1 $815 0 $453 $-1 forward 7 unknown #
vertex $-1 $454 $816 #
ellipse-curve $-1 -21.016762262201965 -28.857951451760115 4.593276490699381 0 -0.64278761758704617 0.76604443648966558 1 0 0 1 I I #
point $-1 -20.016762262201965 -31.17586710184916 7.3556607361653175 #
edge $-1 $817 1 $817 0 $457 $-1 forward 7 unknown #
vertex $-1 $458 $818 #
ellipse-curve $-1 -12.213239546657704 -28.857951451760115 4.593276490699381 0 -0.64278761758704617 0.76604443648966558 1 0 0 1 I I #
point $-1 -11.213239546657704 -31.17586710184916 7.3556607361653175 #
plane-surface $-1 0 0 9.6168612929365977 0 0 1 1 0 0 forward_v I I I I #
coedge $-1 $674 $673 $666 $819 forward $462 $-1 #
coedge $-1 $666 $464 $466 $670 reversed $295 $-1 #
coedge $-1 $464 $665 $664 $819 reversed $295 $-1 #
coedge $-1 $472 $467 $464 $668 forward $473 $-1 #
edge $-1 $671 -32.892073729013376 $820 -27.502486067681623 $667 $821 forward 7 unknown #
coedge $-1 $466 $465 $674 $822 reversed $185 $-1 #
edge $-1 $823 -2.7747421096340558e-014 $671 7.0356070804835564 $665 $824 forward 7 unknown #
vertex $-1 $468 $825 #
straight-curve $-1 6.4842125599295528 -28.481073271183266 9.6168612929365977 -1 0 0 I I #
coedge $-1 $664 $469 $472 $678 reversed $462 $-1 #
coedge $-1 $469 $664 $669 $822 forward $462 $-1 #
vertex $-1 $470 $826 #
straight-curve $-1 23.239201621327418 -33.870660932515015 55.506156481838786 0 0 1 I I #
straight-curve $-1 23.239201621327418 -33.870660932514994 5.0944601793940194 0 -0.76604443648966558 -0.64278761758704617 I I #
edge $-1 $820 2.697648618390792 $474 23.239201621327418 $673 $827 forward 7 unknown #
point $-1 23.239201621327418 -33.870660932515015 9.6168612929365977 #
point $-1 23.239201621327418 -28.481073271183266 9.6168612929365977 #
edge $-1 $828 1 $828 0 $477 $-1 forward 7 unknown #
vertex $-1 $478 $829 #
ellipse-curve $-1 8.566663762086975 -28.857951451760115 4.593276490699381 0 -0.64278761758704617 0.76604443648966558 1 0 0 1 I I #
point $-1 9.566663762086975 -31.17586710184916 7.3556607361653175 #
edge $-1 $830 1 $830 0 $481 $-1 forward 7 unknown #
vertex $-1 $482 $831 #
ellipse-curve $-1 17.370186477631236 -28.857951451760115 4.593276490699381 0 -0.64278761758704617 0.76604443648966558 1 0 0 1 I I #
point $-1 18.370186477631236 -31.17586710184916 7.3556607361653175 #
plane-surface $-1 0 0 9.6168612929365977 0 0 1 1 0 0 forward_v I I I I #
coedge $-1 $700 $699 $692 $832 forward $486 $-1 #
coedge $-1 $692 $488 $490 $696 reversed $317 $-1 #
coedge $-1 $488 $691 $690 $832 reversed $317 $-1 #
coedge $-1 $496 $491 $488 $694 forward $497 $-1 #
edge $-1 $697 -32.892073729013376 $833 -27.502486067681623 $693 $834 forward 7 unknown #
coedge $-1 $490 $489 $700 $835 reversed $199 $-1 #
edge $-1 $836 -2.7747421096340558e-014 $697 7.0356070804835564 $691 $837 forward 7 unknown #
vertex $-1 $492 $838 #
straight-curve $-1 21.275925572074023 -28.481073271183266 9.6168612929365977 -1 0 0 I I #
coedge $-1 $690 $493 $496 $704 reversed $486 $-1 #
coedge $-1 $493 $690 $695 $835 forward $486 $-1 #
vertex $-1 $494 $839 #
straight-curve $-1 52.822627645616357 -33.870660932515015 55.506156481838786 0 0 1 I I #
straight-curve $-1 52.822627645616357 -33.870660932514994 5.0944601793940194 0 -0.76604443648966558 -0.64278761758704617 I I #
edge $-1 $833 32.281074642679734 $498 52.822627645616357 $699 $840 forward 7 unknown #
point $-1 52.822627645616357 -33.870660932515015 9.6168612929365977 #
point $-1 52.822627645616357 -28.481073271183266 9.6168612929365977 #
edge $-1 $841 1 $841 0 $501 $-1 forward 7 unknown #
vertex $-1 $502 $842 #
ellipse-curve $-1 38.150089786375915 -28.857951451760115 4.593276490699381 0 -0.64278761758704617 0.76604443648966558 1 0 0 1 I I #
point $-1 39.150089786375915 -31.17586710184916 7.3556607361653175 #
edge $-1 $843 1 $843 0 $505 $-1 forward 7 unknown #
vertex $-1 $506 $844 #
ellipse-curve $-1 46.953612501920176 -28.857951451760115 4.593276490699381 0 -0.64278761758704617 0.76604443648966558 1 0 0 1 I I #
point $-1 47.953612501920176 -31.17586710184916 7.3556607361653175 #
plane-surface $-1 0 0 9.6168612929365977 0 0 1 1 0 0 forward_v I I I I #
coedge $-1 $726 $725 $718 $845 forward $510 $-1 #
coedge $-1 $718 $512 $514 $722 reversed $339 $-1 #
coedge $-1 $512 $717 $716 $845 reversed $339 $-1 #
coedge $-1 $520 $515 $512 $720 forward $521 $-1 #
edge $-1 $723 -11.262020504778683 $846 -0.24901011001026774 $719 $847 forward 7 unknown #
coedge $-1 $514 $513 $726 $848 reversed $213 $-1 #
edge $-1 $849 -67.741321865030002 $723 -53.570225274888173 $717 $850 forward 7 unknown #
vertex $-1 $516 $851 #
straight-curve $-1 -24.448150628813224 22.857650537746604 9.6168612929365942 1 0 0 I I #
coedge $-1 $716 $517 $520 $730 reversed $510 $-1 #
coedge $-1 $517 $716 $721 $848 forward $510 $-1 #
vertex $-1 $518 $852 #
straight-curve $-1 -59.166852048577894 33.870660932515015 75.391255752787416 0 0 1 I I #
straight-curve $-1 -59.166852048577894 -18.774233349971965 43.329696830188382 0 0.77714595512881146 -0.62932039886446345 I I #
edge $-1 $846 38.625750466675001 $522 59.166852048577894 $725 $853 forward 7 unknown #
point $-1 -59.166852048577894 33.870660932515015 9.6168612929365977 #
point $-1 -59.166852048577894 22.857650537746601 9.6168612929365977 #
edge $-1 $854 1 $854 0 $525 $-1 forward 7 unknown #
vertex $-1 $526 $855 #
ellipse-curve $-1 -53.297965882319922 24.152969564379212 -0.042600507269865751 0 0.62932039886446345 0.77714595512881146 2.5 0 0 1 I I #
point $-1 -50.797965882319922 28.36415573513078 5.157781213709133 #
edge $-1 $856 1 $856 0 $529 $-1 forward 7 unknown #
vertex $-1 $530 $857 #
ellipse-curve $-1 -44.494636632932966 24.152969564379212 -0.042600507269865751 0 0.62932039886446345 0.77714595512881146 2.5 0 0 1 I I #
point $-1 -41.994636632932966 28.36415573513078 5.157781213709133 #
plane-surface $-1 69.132969145786916 0 0 -1 0 0 0 0 1 forward_v I I I I #
coedge $-1 $538 $536 $540 $746 reversed $361 $-1 #
edge $-1 $551 -9.6168612929365977 $748 9.6168612929365977 $550 $858 forward 7 unknown #
vertex $-1 $746 $859 #
straight-curve $-1 -69.132969145786916 -33.870660932515015 0 0 0 -1 I I #
edge $-1 $744 -33.870660932515015 $748 33.870660932515015 $742 $860 forward 7 unknown #
straight-curve $-1 0 -33.870660932515015 -9.6168612929365977 -1 0 0 I I #
vertex $-1 $543 $861 #
straight-curve $-1 0 33.870660932515015 -9.6168612929365977 1 0 0 I I #
point $-1 69.132969145786916 33.870660932515015 -9.6168612929365977 #
point $-1 69.132969145786916 -33.870660932515015 -9.6168612929365977 #
straight-curve $-1 -69.132969145786916 0 9.6168612929365977 0 -1 0 I I #
point $-1 -69.132969145786916 33.870660932515015 9.6168612929365977 #
point $-1 -69.132969145786916 -33.870660932515015 9.6168612929365977 #
straight-curve $-1 69.132969145786916 -33.870660932515015 0 0 0 -1 I I #
straight-curve $-1 69.132969145786916 33.870660932515015 0 0 0 -1 I I #
plane-surface $-1 -69.132969145786916 0 0 1 0 0 0 0 -1 forward_v I I I I #
edge $-1 $572 9.3921663704004033 $576 14.805748733531992 $575 $862 forward 7 unknown #
edge $-1 $580 -14.805748733531992 $571 -9.3921663704004033 $578 $863 forward 7 unknown #
straight-curve $-1 -59.166852048577887 -26.90470628549819 0 0 0 -1 I I #
edge $-1 $764 -9.6168612929365977 $762 9.6168612929365977 $582 $864 forward 7 unknown #
vertex $-1 $761 $865 #
straight-curve $-1 -32.074955298591199 -21.491123922366601 -9.6168612929365977 1 0 0 I I #
vertex $-1 $583 $866 #
straight-curve $-1 -32.074955298591199 -21.491123922366601 9.6168612929365977 -1 0 0 I I #
point $-1 -59.166852048577887 -21.491123922366601 9.6168612929365977 #
point $-1 -59.166852048577887 -21.491123922366601 -9.6168612929365977 #
point $-1 -59.166852048577887 -26.90470628549819 -9.6168612929365977 #
point $-1 -59.166852048577887 -26.90470628549819 9.6168612929365977 #
straight-curve $-1 -69.132969145786916 0 9.6168612929365977 0 -1 0 I I #
straight-curve $-1 -69.132969145786916 0 -9.6168612929365977 0 1 0 I I #
loop $-1 $-1 $601 $587 #
plane-surface $-1 69.132969145786916 0 0 -1 0 0 0 0 1 forward_v I I I I #
coedge $-1 $603 $594 $590 $775 forward $399 $-1 #
edge $-1 $599 27.091896749986688 $780 37.058013847195724 $774 $867 forward 7 unknown #
coedge $-1 $596 $606 $591 $777 forward $588 $-1 #
edge $-1 $781 -37.058013847195724 $598 -27.091896749986688 $776 $868 forward 7 unknown #
coedge $-1 $601 $592 $606 $790 reversed $772 $-1 #
coedge $-1 $592 $601 $603 $788 reversed $772 $-1 #
vertex $-1 $788 $869 #
vertex $-1 $593 $870 #
straight-curve $-1 69.132969145786916 -21.491123922366601 0 0 0 1 I I #
straight-curve $-1 59.166852048577894 -12.098957551966198 -9.6168612929365977 0 1 0 I I #
straight-curve $-1 59.166852048577894 -12.098957551966198 9.6168612929365977 0 -1 0 I I #
point $-1 59.166852048577894 -21.491123922366601 9.6168612929365977 #
point $-1 59.166852048577894 -21.491123922366601 -9.6168612929365977 #
straight-curve $-1 69.132969145786916 -26.90470628549819 0 0 0 -1 I I #
edge $-1 $780 21.491123922366601 $604 26.90470628549819 $779 $871 forward 7 unknown #
point $-1 69.13296914578693 -26.90470628549819 -9.6168612929365977 #
edge $-1 $607 -26.90470628549819 $781 -21.491123922366601 $778 $872 forward 7 unknown #
point $-1 69.13296914578693 -26.90470628549819 9.6168612929365977 #
coedge $-1 $622 $621 $614 $793 forward $611 $-1 #
edge $-1 $794 45.889295188902189 $797 50.411696302444781 $792 $873 forward 7 unknown #
vertex $-1 $626 $874 #
straight-curve $-1 -56.469203430187086 -61.373147000196639 9.6168612929365977 0 -1 0 I I #
edge $-1 $797 -33.369989965827699 $623 -12.828436962891075 $622 $875 forward 7 unknown #
vertex $-1 $796 $876 #
straight-curve $-1 -56.469203430187086 -33.870660932514994 5.0944601793940194 0 0.76604443648966558 0.64278761758704617 I I #
point $-1 -56.469203430187086 -28.481073271183266 9.6168612929365977 #
point $-1 -35.927650427250462 -33.870660932515015 5.0944601793940016 #
straight-curve $-1 0 -33.870660932515015 9.6168612929365977 1 0 0 I I #
vertex $-1 $629 $877 #
point $-1 -49.600188286490912 -28.857951451760115 4.593276490699381 #
vertex $-1 $633 $878 #
point $-1 -40.796665570946644 -28.857951451760115 4.593276490699381 #
edge $-1 $807 45.889295188902189 $810 50.411696302444781 $638 $879 forward 7 unknown #
vertex $-1 $652 $880 #
straight-curve $-1 -26.885777405898146 -61.373147000196639 9.6168612929365977 0 -1 0 I I #
edge $-1 $810 -18.578276953683229 $649 1.9632760492533965 $648 $881 forward 7 unknown #
vertex $-1 $809 $882 #
straight-curve $-1 -26.885777405898146 -33.870660932514994 5.0944601793940194 0 0.76604443648966558 0.64278761758704617 I I #
point $-1 -26.885777405898146 -28.481073271183266 9.6168612929365977 #
point $-1 -6.3442244029615207 -33.870660932515015 5.0944601793940016 #
straight-curve $-1 0 -33.870660932515015 9.6168612929365977 1 0 0 I I #
vertex $-1 $655 $883 #
point $-1 -20.016762262201965 -28.857951451760115 4.593276490699381 #
vertex $-1 $659 $884 #
point $-1 -11.213239546657704 -28.857951451760115 4.593276490699381 #
edge $-1 $820 45.889295188902189 $823 50.411696302444781 $664 $885 forward 7 unknown #
vertex $-1 $678 $886 #
straight-curve $-1 2.697648618390792 -61.373147000196639 9.6168612929365977 0 -1 0 I I #
edge $-1 $823 -3.7865639415387609 $675 16.754989061397865 $674 $887 forward 7 unknown #
vertex $-1 $822 $888 #
straight-curve $-1 2.697648618390792 -33.870660932514994 5.0944601793940194 0 0.76604443648966558 0.64278761758704617 I I #
point $-1 2.697648618390792 -28.481073271183266 9.6168612929365977 #
point $-1 23.239201621327418 -33.870660932515015 5.0944601793940016 #
straight-curve $-1 0 -33.870660932515015 9.6168612929365977 1 0 0 I I #
vertex $-1 $681 $889 #
point $-1 9.566663762086975 -28.857951451760115 4.593276490699381 #
vertex $-1 $685 $890 #
point $-1 18.370186477631236 -28.857951451760115 4.593276490699381 #
edge $-1 $833 45.889295188902189 $836 50.411696302444781 $690 $891 forward 7 unknown #
vertex $-1 $704 $892 #
straight-curve $-1 32.281074642679734 -61.373147000196639 9.6168612929365977 0 -1 0 I I #
edge $-1 $836 11.005149070605711 $701 31.546702073542335 $700 $893 forward 7 unknown #
vertex $-1 $835 $894 #
straight-curve $-1 32.281074642679734 -33.870660932514994 5.0944601793940194 0 0.76604443648966558 0.64278761758704617 I I #
point $-1 32.281074642679734 -28.481073271183266 9.6168612929365977 #
point $-1 52.822627645616357 -33.870660932515015 5.0944601793940016 #
straight-curve $-1 0 -33.870660932515015 9.6168612929365977 1 0 0 I I #
vertex $-1 $707 $895 #
point $-1 39.150089786375915 -28.857951451760115 4.593276490699381 #
vertex $-1 $711 $896 #
point $-1 47.953612501920176 -28.857951451760115 4.593276490699381 #
edge $-1 $846 65.774394459850811 $849 74.692554618305707 $716 $897 forward 7 unknown #
vertex $-1 $730 $898 #
straight-curve $-1 -38.625750466675001 34.119671042525283 9.6168612929365906 0 1 0 I I #
edge $-1 $849 14.177599837861777 $727 34.71870141976467 $726 $899 forward 7 unknown #
vertex $-1 $848 $900 #
straight-curve $-1 -38.625750466675001 -18.774233349971965 43.329696830188382 0 -0.77714595512881146 0.62932039886446345 I I #
point $-1 -38.625750466675001 22.857650537746601 9.6168612929365977 #
point $-1 -59.166852048577894 33.870660932515015 0.69870113448170201 #
straight-curve $-1 0 33.870660932515015 9.6168612929365977 -1 0 0 I I #
vertex $-1 $733 $901 #
point $-1 -50.797965882319922 24.152969564379212 -0.042600507269865751 #
vertex $-1 $737 $902 #
point $-1 -41.994636632932966 24.152969564379212 -0.042600507269865751 #
straight-curve $-1 -69.132969145786916 33.870660932515015 0 0 0 -1 I I #
point $-1 -69.132969145786916 -33.870660932515015 -9.6168612929365977 #
straight-curve $-1 -69.132969145786916 0 -9.6168612929365977 0 1 0 I I #
point $-1 -69.132969145786916 33.870660932515015 -9.6168612929365977 #
straight-curve $-1 -59.166852048577887 -12.098957551966198 -9.6168612929365977 0 -1 0 I I #
straight-curve $-1 -59.166852048577887 -12.098957551966198 9.6168612929365977 0 1 0 I I #
straight-curve $-1 -69.132969145786916 -21.491123922366601 0 0 0 -1 I I #
point $-1 -69.132969145786916 -21.491123922366601 -9.6168612929365977 #
point $-1 -69.132969145786916 -21.491123922366601 9.6168612929365977 #
straight-curve $-1 32.074955298591206 -21.491123922366601 -9.6168612929365977 1 0 0 I I #
straight-curve $-1 32.074955298591206 -21.491123922366601 9.6168612929365977 -1 0 0 I I #
point $-1 69.13296914578693 -21.491123922366601 -9.6168612929365977 #
point $-1 69.13296914578693 -21.491123922366601 9.6168612929365977 #
straight-curve $-1 69.132969145786916 0 -9.6168612929365977 0 -1 0 I I #
straight-curve $-1 69.132969145786916 0 9.6168612929365977 0 1 0 I I #
straight-curve $-1 -56.469203430187086 -33.870660932515015 55.506156481838786 0 0 -1 I I #
point $-1 -56.469203430187086 -33.870660932515015 9.6168612929365977 #
straight-curve $-1 -23.099213464359387 -33.870660932515015 5.094460179394007 1 0 0 I I #
point $-1 -56.469203430187086 -33.870660932515015 5.0944601793940016 #
point $-1 -50.600188286490912 -28.215163834173069 3.8272320542097158 #
point $-1 -41.796665570946644 -28.215163834173069 3.8272320542097158 #
straight-curve $-1 -26.885777405898146 -33.870660932515015 55.506156481838786 0 0 -1 I I #
point $-1 -26.885777405898146 -33.870660932515015 9.6168612929365977 #
straight-curve $-1 -8.3075004522149172 -33.870660932515015 5.094460179394007 1 0 0 I I #
point $-1 -26.885777405898146 -33.870660932515015 5.0944601793940016 #
point $-1 -21.016762262201965 -28.215163834173069 3.8272320542097158 #
point $-1 -12.213239546657704 -28.215163834173069 3.8272320542097158 #
straight-curve $-1 2.697648618390792 -33.870660932515015 55.506156481838786 0 0 -1 I I #
point $-1 2.697648618390792 -33.870660932515015 9.6168612929365977 #
straight-curve $-1 6.4842125599295528 -33.870660932515015 5.094460179394007 1 0 0 I I #
point $-1 2.697648618390792 -33.870660932515015 5.0944601793940016 #
point $-1 8.566663762086975 -28.215163834173069 3.8272320542097158 #
point $-1 17.370186477631236 -28.215163834173069 3.8272320542097158 #
straight-curve $-1 32.281074642679734 -33.870660932515015 55.506156481838786 0 0 -1 I I #
point $-1 32.281074642679734 -33.870660932515015 9.6168612929365977 #
straight-curve $-1 21.275925572074023 -33.870660932515015 5.094460179394007 1 0 0 I I #
point $-1 32.281074642679734 -33.870660932515015 5.0944601793940016 #
point $-1 38.150089786375915 -28.215163834173069 3.8272320542097158 #
point $-1 46.953612501920176 -28.215163834173069 3.8272320542097158 #
straight-curve $-1 -38.625750466675001 33.870660932515015 75.391255752787416 0 0 -1 I I #
point $-1 -38.625750466675001 33.870660932515015 9.6168612929365977 #
straight-curve $-1 -24.448150628813224 33.870660932515015 0.69870113448170201 -1 0 0 I I #
point $-1 -38.625750466675001 33.870660932515015 0.69870113448170201 #
point $-1 -53.297965882319922 22.579668567218057 -1.9854653950918943 #
point $-1 -44.494636632932966 22.579668567218057 -1.9854653950918943 #
End-of-ACIS-data 