500 0 10 0           
7 Unknown 11 ACIS 5.0 NT 24 Thu Mar 25 23:03:21 1999 
-1 9.9999999999999995e-007 1e-010 
body $-1 $10 $-1 $11 #
body $-1 $12 $-1 $13 #
body $-1 $14 $-1 $15 #
body $-1 $16 $-1 $17 #
body $-1 $18 $-1 $19 #
body $-1 $20 $-1 $21 #
body $-1 $22 $-1 $23 #
body $-1 $24 $-1 $25 #
body $-1 $26 $-1 $27 #
body $-1 $28 $-1 $29 #
lump $-1 $-1 $30 $0 #
transform $-1 1 0 0 0 1 0 0 0 1 57.006134220404675 39.262850987668592 14.319491392041835 1 rotate no_reflect no_shear #
lump $-1 $-1 $31 $1 #
transform $-1 1 0 0 0 1 0 0 0 1 57.006134220404675 39.262850987668592 14.319491392041835 1 rotate no_reflect no_shear #
lump $-1 $-1 $32 $2 #
transform $-1 1 0 0 0 1 0 0 0 1 57.006134220404675 39.262850987668592 14.319491392041835 1 rotate no_reflect no_shear #
lump $-1 $-1 $33 $3 #
transform $-1 1 0 0 0 1 0 0 0 1 57.006134220404675 39.262850987668592 14.319491392041835 1 rotate no_reflect no_shear #
lump $-1 $-1 $34 $4 #
transform $-1 1 0 0 0 1 0 0 0 1 57.006134220404675 39.262850987668592 14.319491392041835 1 rotate no_reflect no_shear #
lump $-1 $-1 $35 $5 #
transform $-1 1 0 0 0 1 0 0 0 1 57.006134220404675 39.262850987668592 14.319491392041835 1 rotate no_reflect no_shear #
lump $-1 $-1 $36 $6 #
transform $-1 1 0 0 0 1 0 0 0 1 57.006134220404675 39.262850987668592 14.319491392041835 1 rotate no_reflect no_shear #
lump $-1 $-1 $37 $7 #
transform $-1 1 0 0 0 1 0 0 0 1 57.006134220404675 39.262850987668592 14.319491392041835 1 rotate no_reflect no_shear #
lump $-1 $-1 $38 $8 #
transform $-1 1 0 0 0 1 0 0 0 1 57.006134220404675 39.262850987668592 14.319491392041835 1 rotate no_reflect no_shear #
lump $-1 $-1 $39 $9 #
transform $-1 1 0 0 0 1 0 0 0 1 57.006134220404675 39.262850987668592 14.319491392041835 1 rotate no_reflect no_shear #
shell $-1 $-1 $-1 $40 $-1 $10 #
shell $-1 $-1 $-1 $41 $-1 $12 #
shell $-1 $-1 $-1 $42 $-1 $14 #
shell $-1 $-1 $-1 $43 $-1 $16 #
shell $-1 $-1 $-1 $44 $-1 $18 #
shell $-1 $-1 $-1 $45 $-1 $20 #
shell $-1 $-1 $-1 $46 $-1 $22 #
shell $-1 $-1 $-1 $47 $-1 $24 #
shell $-1 $-1 $-1 $48 $-1 $26 #
shell $-1 $-1 $-1 $49 $-1 $28 #
face $-1 $50 $51 $30 $-1 $52 forward single #
face $-1 $53 $54 $31 $-1 $55 reversed single #
face $-1 $56 $57 $32 $-1 $58 reversed single #
face $-1 $59 $60 $33 $-1 $61 forward single #
face $-1 $62 $63 $34 $-1 $64 forward single #
face $-1 $65 $66 $35 $-1 $67 forward single #
face $-1 $68 $69 $36 $-1 $70 reversed single #
face $-1 $71 $72 $37 $-1 $73 forward single #
face $-1 $74 $75 $38 $-1 $76 reversed single #
face $-1 $77 $78 $39 $-1 $79 forward single #
face $-1 $80 $81 $30 $-1 $82 reversed single #
loop $-1 $-1 $83 $40 #
plane-surface $-1 0 0 14.319491392041835 0 0 1 1 0 0 forward_v I I I I #
face $-1 $84 $85 $31 $-1 $86 reversed single #
loop $-1 $-1 $87 $41 #
plane-surface $-1 -51.269767906631309 -31.772944588907489 0 0 -1 0 0 0 -1 forward_v I I I I #
face $-1 $88 $89 $32 $-1 $90 reversed single #
loop $-1 $-1 $91 $42 #
plane-surface $-1 -16.623666507889624 92.11342424640867 134.65177023172444 1 0 0 0 -0.83867057594974714 -0.54463902268945019 forward_v I I I I #
face $-1 $92 $93 $33 $-1 $94 forward single #
loop $-1 $95 $96 $43 #
cone-surface $-1 -12.570464885035719 35.796683168459225 9.8651984700632127 0 -0.83867057594974714 -0.54463902268945019 2 0 0 1 I I 0 1 2 forward I I I I #
face $-1 $97 $98 $34 $-1 $99 forward single #
loop $-1 $100 $101 $44 #
cone-surface $-1 -6.4906624507548543 35.796683168459225 9.8651984700632127 0 -0.83867057594974714 -0.54463902268945019 2 0 0 1 I I 0 1 2 forward I I I I #
face $-1 $102 $103 $35 $-1 $104 forward single #
loop $-1 $105 $106 $45 #
cone-surface $-1 -0.41086001647398973 35.796683168459225 9.8651984700632127 0 -0.83867057594974714 -0.54463902268945019 2 0 0 1 I I 0 1 2 forward I I I I #
face $-1 $107 $108 $36 $-1 $109 reversed single #
loop $-1 $-1 $110 $46 #
plane-surface $-1 5.7363663137733596 -123.99047926455376 82.684141811880309 -1 0 0 0 -0.74314483375859142 0.66913059716165679 forward_v I I I I #
face $-1 $111 $112 $37 $-1 $113 forward single #
loop $-1 $114 $115 $47 #
cone-surface $-1 -1.2604776034750458 -34.498850990417154 9.2800263156463778 0 0.74314483375859142 -0.66913059716165679 1.5 0 0 1 I I 0 1 1.5 forward I I I I #
face $-1 $116 $117 $38 $-1 $118 reversed single #
loop $-1 $-1 $119 $48 #
plane-surface $-1 19.730054148270177 -123.99047926455376 82.684141811880309 -1 0 0 0 -0.74314483375859142 0.66913059716165679 forward_v I I I I #
face $-1 $120 $121 $39 $-1 $122 forward single #
loop $-1 $123 $124 $49 #
cone-surface $-1 12.733210231021772 -34.498850990417154 9.2800263156463778 0 0.74314483375859142 -0.66913059716165679 1.5 0 0 1 I I 0 1 1.5 forward I I I I #
face $-1 $125 $126 $30 $-1 $127 reversed single #
loop $-1 $-1 $128 $50 #
plane-surface $-1 0 0 -14.319491392041835 0 0 1 1 0 0 forward_v I I I I #
coedge $-1 $129 $130 $131 $132 forward $51 $-1 #
face $-1 $133 $134 $31 $-1 $135 forward single #
loop $-1 $-1 $136 $53 #
plane-surface $-1 -45.533401592857942 -35.517897788288039 0 -1 0 0 0 0 1 forward_v I I I I #
coedge $-1 $137 $138 $139 $140 forward $54 $-1 #
face $-1 $141 $142 $32 $-1 $143 reversed single #
loop $-1 $-1 $144 $56 #
plane-surface $-1 -6.4906624507548543 -3.5053105921820844 72.55623977351479 0 0.83867057594974714 0.54463902268945019 1 0 0 forward_v I I I I #
coedge $-1 $145 $146 $147 $148 reversed $57 $-1 #
face $-1 $-1 $149 $33 $-1 $150 forward single #
loop $-1 $151 $152 $59 #
cone-surface $-1 -12.570464885035719 33.966232870610106 8.676490185915787 0 -0.83867057594974714 -0.54463902268945019 1 0 0 1 I I -0.70710678118654746 0.70710678118654746 1 forward I I I I #
loop $-1 $-1 $153 $43 #
coedge $-1 $96 $96 $154 $155 reversed $60 $-1 #
face $-1 $-1 $156 $34 $-1 $157 forward single #
loop $-1 $158 $159 $62 #
cone-surface $-1 -6.4906624507548543 33.966232870610106 8.676490185915787 0 -0.83867057594974714 -0.54463902268945019 1 0 0 1 I I -0.70710678118654746 0.70710678118654746 1 forward I I I I #
loop $-1 $-1 $160 $44 #
coedge $-1 $101 $101 $161 $162 reversed $63 $-1 #
face $-1 $-1 $163 $35 $-1 $164 forward single #
loop $-1 $165 $166 $65 #
cone-surface $-1 -0.41086001647398973 33.966232870610106 8.676490185915787 0 -0.83867057594974714 -0.54463902268945019 1 0 0 1 I I -0.70710678118654746 0.70710678118654746 1 forward I I I I #
loop $-1 $-1 $167 $45 #
coedge $-1 $106 $106 $168 $169 reversed $66 $-1 #
face $-1 $170 $171 $36 $-1 $172 reversed single #
loop $-1 $-1 $173 $68 #
plane-surface $-1 -1.2604776034750458 -39.262850987668585 6.3950445463264316 0 -0.74314483375859142 0.66913059716165679 1 0 0 forward_v I I I I #
coedge $-1 $174 $175 $176 $177 reversed $69 $-1 #
face $-1 $-1 $178 $37 $-1 $179 forward single #
loop $-1 $180 $181 $71 #
cone-surface $-1 -1.2604776034750458 -32.745094273407389 7.7009367142373772 0 0.74314483375859142 -0.66913059716165679 0.75 0 0 1 I I -0.70710678118654757 0.70710678118654757 0.75 forward I I I I #
loop $-1 $-1 $182 $47 #
coedge $-1 $115 $115 $183 $184 reversed $72 $-1 #
face $-1 $185 $186 $38 $-1 $187 forward single #
loop $-1 $-1 $188 $74 #
plane-surface $-1 -1.2604776034750458 -39.262850987668585 6.3950445463264316 0 -0.74314483375859142 0.66913059716165679 1 0 0 forward_v I I I I #
coedge $-1 $189 $190 $191 $192 reversed $75 $-1 #
face $-1 $-1 $193 $39 $-1 $194 forward single #
loop $-1 $195 $196 $77 #
cone-surface $-1 12.733210231021772 -32.745094273407389 7.7009367142373772 0 0.74314483375859142 -0.66913059716165679 0.75 0 0 1 I I -0.70710678118654757 0.70710678118654757 0.75 forward I I I I #
loop $-1 $-1 $197 $49 #
coedge $-1 $124 $124 $198 $199 reversed $78 $-1 #
face $-1 $200 $201 $30 $-1 $202 reversed single #
loop $-1 $-1 $203 $80 #
plane-surface $-1 0 -39.262850987668592 0 0 1 0 0 0 1 forward_v I I I I #
coedge $-1 $204 $205 $206 $207 forward $81 $-1 #
coedge $-1 $208 $83 $209 $210 forward $51 $-1 #
coedge $-1 $83 $208 $211 $212 forward $51 $-1 #
coedge $-1 $213 $214 $83 $132 reversed $215 $-1 #
edge $-1 $216 -39.262850987668592 $217 39.262850987668592 $131 $218 forward 7 unknown #
face $-1 $219 $220 $31 $-1 $221 reversed single #
loop $-1 $-1 $222 $84 #
plane-surface $-1 0 0 14.319491392041835 0 0 1 1 0 0 forward_v I I I I #
coedge $-1 $223 $224 $225 $226 reversed $85 $-1 #
coedge $-1 $227 $87 $228 $229 reversed $54 $-1 #
coedge $-1 $87 $227 $230 $231 reversed $54 $-1 #
coedge $-1 $224 $223 $87 $140 reversed $85 $-1 #
edge $-1 $232 -14.319491392041835 $233 14.319491392041835 $139 $234 forward 7 unknown #
face $-1 $235 $236 $32 $-1 $237 reversed single #
loop $-1 $-1 $238 $88 #
plane-surface $-1 3.6423416063799152 92.11342424640867 134.65177023172444 -1 0 0 0 0.83867057594974714 0.54463902268945019 forward_v I I I I #
coedge $-1 $239 $240 $241 $242 reversed $89 $-1 #
coedge $-1 $146 $91 $243 $244 reversed $57 $-1 #
coedge $-1 $91 $145 $239 $245 reversed $57 $-1 #
coedge $-1 $241 $246 $91 $148 forward $247 $-1 #
edge $-1 $248 6.7938611355357423 $249 11.742637330155752 $147 $250 forward 7 unknown #
loop $-1 $-1 $154 $92 #
plane-surface $-1 -6.4906624507548543 -3.5053105921820844 72.55623977351479 0 0.83867057594974714 0.54463902268945019 1 0 0 forward_v I I I I #
loop $-1 $-1 $251 $59 #
coedge $-1 $152 $152 $153 $252 reversed $93 $-1 #
coedge $-1 $153 $153 $152 $252 forward $95 $-1 #
coedge $-1 $154 $154 $96 $155 forward $149 $-1 #
edge $-1 $253 -7.4488910679604037e-016 $253 6.2831853071795996 $154 $254 forward 7 unknown #
loop $-1 $-1 $161 $97 #
plane-surface $-1 -6.4906624507548543 -3.5053105921820844 72.55623977351479 0 0.83867057594974714 0.54463902268945019 1 0 0 forward_v I I I I #
loop $-1 $-1 $255 $62 #
coedge $-1 $159 $159 $160 $256 reversed $98 $-1 #
coedge $-1 $160 $160 $159 $256 forward $100 $-1 #
coedge $-1 $161 $161 $101 $162 forward $156 $-1 #
edge $-1 $257 -7.4488910679604037e-016 $257 6.2831853071795996 $161 $258 forward 7 unknown #
loop $-1 $-1 $168 $102 #
plane-surface $-1 -6.4906624507548543 -3.5053105921820844 72.55623977351479 0 0.83867057594974714 0.54463902268945019 1 0 0 forward_v I I I I #
loop $-1 $-1 $259 $65 #
coedge $-1 $166 $166 $167 $260 reversed $103 $-1 #
coedge $-1 $167 $167 $166 $260 forward $105 $-1 #
coedge $-1 $168 $168 $106 $169 forward $163 $-1 #
edge $-1 $261 -7.4488910679604037e-016 $261 6.2831853071795996 $168 $262 forward 7 unknown #
face $-1 $263 $264 $36 $-1 $265 forward single #
loop $-1 $-1 $266 $107 #
plane-surface $-1 -8.2573215207234512 -123.99047926455376 82.684141811880309 1 0 0 0 0.74314483375859142 -0.66913059716165679 forward_v I I I I #
coedge $-1 $267 $268 $269 $270 reversed $108 $-1 #
coedge $-1 $175 $110 $271 $272 reversed $69 $-1 #
coedge $-1 $110 $174 $267 $273 reversed $69 $-1 #
coedge $-1 $269 $274 $110 $177 forward $264 $-1 #
edge $-1 $275 22.732388644608285 $276 29.867592455729522 $176 $277 forward 7 unknown #
loop $-1 $-1 $183 $111 #
plane-surface $-1 -1.2604776034750458 -39.262850987668585 6.3950445463264316 0 -0.74314483375859142 0.66913059716165679 1 0 0 forward_v I I I I #
loop $-1 $-1 $278 $71 #
coedge $-1 $181 $181 $182 $279 reversed $112 $-1 #
coedge $-1 $182 $182 $181 $279 forward $114 $-1 #
coedge $-1 $183 $183 $115 $184 forward $178 $-1 #
edge $-1 $280 -5.294584176961491e-016 $280 6.2831853071795996 $183 $281 forward 7 unknown #
face $-1 $282 $283 $38 $-1 $284 forward single #
loop $-1 $-1 $285 $116 #
plane-surface $-1 0 0 14.319491392041835 0 0 1 1 0 0 forward_v I I I I #
coedge $-1 $286 $287 $288 $289 reversed $117 $-1 #
coedge $-1 $190 $119 $290 $291 reversed $75 $-1 #
coedge $-1 $119 $189 $285 $292 reversed $75 $-1 #
coedge $-1 $293 $294 $119 $192 forward $295 $-1 #
edge $-1 $296 -34.94702635961373 $297 -27.022579513898322 $191 $298 forward 7 unknown #
loop $-1 $-1 $198 $120 #
plane-surface $-1 -1.2604776034750458 -39.262850987668585 6.3950445463264316 0 -0.74314483375859142 0.66913059716165679 1 0 0 forward_v I I I I #
loop $-1 $-1 $299 $77 #
coedge $-1 $196 $196 $197 $300 reversed $121 $-1 #
coedge $-1 $197 $197 $196 $300 forward $123 $-1 #
coedge $-1 $198 $198 $124 $199 forward $193 $-1 #
edge $-1 $301 -5.294584176961491e-016 $301 6.2831853071795996 $198 $302 forward 7 unknown #
face $-1 $303 $304 $30 $-1 $305 reversed single #
loop $-1 $-1 $306 $125 #
plane-surface $-1 -57.006134220404675 0 0 1 0 0 0 0 -1 forward_v I I I I #
coedge $-1 $307 $211 $308 $309 forward $126 $-1 #
coedge $-1 $310 $128 $307 $311 forward $81 $-1 #
coedge $-1 $128 $310 $312 $313 forward $81 $-1 #
coedge $-1 $214 $213 $128 $207 reversed $215 $-1 #
edge $-1 $314 -39.262850987668592 $315 39.262850987668592 $206 $316 forward 7 unknown #
coedge $-1 $130 $129 $317 $318 forward $51 $-1 #
coedge $-1 $319 $320 $129 $210 reversed $304 $-1 #
edge $-1 $217 -57.006134220404675 $321 57.006134220404675 $209 $322 forward 7 unknown #
coedge $-1 $203 $323 $130 $212 reversed $126 $-1 #
edge $-1 $324 -57.006134220404675 $216 57.006134220404675 $211 $325 forward 7 unknown #
coedge $-1 $206 $131 $323 $326 forward $215 $-1 #
coedge $-1 $131 $206 $319 $327 reversed $215 $-1 #
loop $-1 $-1 $213 $303 #
vertex $-1 $132 $328 #
vertex $-1 $132 $329 #
straight-curve $-1 57.006134220404675 0 14.319491392041835 0 1 0 I I #
face $-1 $330 $331 $31 $-1 $332 reversed single #
loop $-1 $-1 $333 $133 #
plane-surface $-1 -57.006134220404675 0 0 1 0 0 0 0 -1 forward_v I I I I #
coedge $-1 $230 $334 $224 $335 forward $134 $-1 #
coedge $-1 $139 $136 $336 $337 reversed $85 $-1 #
coedge $-1 $136 $139 $222 $335 reversed $85 $-1 #
coedge $-1 $338 $339 $136 $226 forward $340 $-1 #
edge $-1 $341 -14.319491392041835 $342 14.319491392041835 $225 $343 forward 7 unknown #
coedge $-1 $138 $137 $333 $344 reversed $54 $-1 #
coedge $-1 $336 $345 $137 $229 forward $331 $-1 #
edge $-1 $346 -31.371250267089021 $233 -19.898517639542288 $228 $347 forward 7 unknown #
coedge $-1 $348 $222 $138 $231 forward $134 $-1 #
edge $-1 $232 19.898517639542288 $349 31.371250267089021 $230 $350 forward 7 unknown #
vertex $-1 $231 $351 #
vertex $-1 $229 $352 #
straight-curve $-1 -45.533401592857942 -31.772944588907489 0 0 0 -1 I I #
face $-1 $-1 $247 $32 $-1 $353 forward single #
loop $-1 $-1 $354 $141 #
plane-surface $-1 0 39.262850987668592 0 0 -1 0 0 0 -1 forward_v I I I I #
coedge $-1 $355 $356 $357 $358 reversed $142 $-1 #
coedge $-1 $359 $144 $146 $245 forward $89 $-1 #
coedge $-1 $144 $359 $355 $360 forward $89 $-1 #
coedge $-1 $357 $147 $144 $242 forward $247 $-1 #
edge $-1 $249 -13.378335282512197 $361 6.8876728317573424 $241 $362 forward 7 unknown #
coedge $-1 $363 $364 $145 $244 forward $236 $-1 #
edge $-1 $365 -60.626841044861678 $248 -53.006393723820388 $243 $366 forward 7 unknown #
edge $-1 $249 69.439360401458131 $365 78.525701975337199 $146 $367 forward 7 unknown #
coedge $-1 $147 $357 $363 $368 forward $247 $-1 #
loop $-1 $-1 $357 $235 #
vertex $-1 $244 $369 #
vertex $-1 $148 $370 #
straight-curve $-1 -16.623666507889624 46.056712123204335 14.319491392041833 0 -1 0 I I #
coedge $-1 $251 $251 $-1 $371 reversed $151 $-1 #
edge $-1 $372 0 $372 6.2831853071796004 $152 $373 forward 7 unknown #
vertex $-1 $155 $374 #
ellipse-curve $-1 -12.570464885035719 36.788462890358595 10.509267731521186 0 0.83867057594974714 0.54463902268945019 2 0 0 1 I I #
coedge $-1 $255 $255 $-1 $375 reversed $158 $-1 #
edge $-1 $376 0 $376 6.2831853071796004 $159 $377 forward 7 unknown #
vertex $-1 $162 $378 #
ellipse-curve $-1 -6.4906624507548543 36.788462890358595 10.509267731521186 0 0.83867057594974714 0.54463902268945019 2 0 0 1 I I #
coedge $-1 $259 $259 $-1 $379 reversed $165 $-1 #
edge $-1 $380 0 $380 6.2831853071796004 $166 $381 forward 7 unknown #
vertex $-1 $169 $382 #
ellipse-curve $-1 -0.41086001647398973 36.788462890358595 10.509267731521186 0 0.83867057594974714 0.54463902268945019 2 0 0 1 I I #
face $-1 $-1 $383 $36 $-1 $384 reversed single #
loop $-1 $-1 $176 $170 #
plane-surface $-1 0 0 14.319491392041835 0 0 1 1 0 0 forward_v I I I I #
coedge $-1 $385 $386 $387 $388 reversed $171 $-1 #
coedge $-1 $389 $173 $175 $273 forward $108 $-1 #
coedge $-1 $173 $389 $385 $390 forward $108 $-1 #
coedge $-1 $387 $176 $173 $270 forward $264 $-1 #
edge $-1 $276 -6.3666051155108825 $391 7.6270827189859283 $269 $392 forward 7 unknown #
coedge $-1 $393 $394 $174 $272 forward $383 $-1 #
edge $-1 $395 -34.94702635961373 $275 -27.022579513898322 $271 $396 forward 7 unknown #
edge $-1 $276 -10.663394920793646 $395 1.0694865687384493e-014 $175 $397 forward 7 unknown #
coedge $-1 $176 $387 $393 $398 forward $264 $-1 #
vertex $-1 $177 $399 #
vertex $-1 $177 $400 #
straight-curve $-1 5.7363663137733596 -61.995239632276878 14.319491392041833 0 1 0 I I #
coedge $-1 $278 $278 $-1 $401 reversed $180 $-1 #
edge $-1 $402 0 $402 6.2831853071796004 $181 $403 forward 7 unknown #
vertex $-1 $184 $404 #
ellipse-curve $-1 -1.2604776034750458 -35.695249082107971 10.357267969184131 0 -0.74314483375859142 0.66913059716165679 1.5 0 0 1 I I #
face $-1 $-1 $295 $38 $-1 $405 reversed single #
loop $-1 $-1 $406 $185 #
plane-surface $-1 5.7363663137733596 -123.99047926455376 82.684141811880309 -1 0 0 0 -0.74314483375859142 0.66913059716165679 forward_v I I I I #
coedge $-1 $407 $408 $190 $292 forward $186 $-1 #
coedge $-1 $290 $188 $407 $409 reversed $117 $-1 #
coedge $-1 $188 $290 $294 $410 reversed $117 $-1 #
coedge $-1 $411 $406 $188 $289 forward $283 $-1 #
edge $-1 $412 -10.663394920793646 $413 1.0694865687384493e-014 $288 $414 forward 7 unknown #
coedge $-1 $287 $286 $189 $291 forward $117 $-1 #
edge $-1 $415 -10.663394920793646 $296 1.0694865687384493e-014 $189 $416 forward 7 unknown #
edge $-1 $297 22.732388644608285 $415 29.867592455729522 $285 $417 forward 7 unknown #
coedge $-1 $418 $191 $408 $419 reversed $295 $-1 #
coedge $-1 $191 $418 $287 $410 forward $295 $-1 #
loop $-1 $-1 $191 $282 #
vertex $-1 $192 $420 #
vertex $-1 $192 $421 #
straight-curve $-1 19.730054148270177 -39.262850987668592 41.342070905940155 0 0 1 I I #
coedge $-1 $299 $299 $-1 $422 reversed $195 $-1 #
edge $-1 $423 0 $423 6.2831853071796004 $196 $424 forward 7 unknown #
vertex $-1 $199 $425 #
ellipse-curve $-1 12.733210231021772 -35.695249082107971 10.357267969184131 0 -0.74314483375859142 0.66913059716165679 1.5 0 0 1 I I #
face $-1 $-1 $215 $30 $-1 $426 reversed single #
loop $-1 $-1 $319 $200 #
plane-surface $-1 0 39.262850987668592 0 0 -1 0 0 0 -1 forward_v I I I I #
coedge $-1 $427 $317 $320 $428 forward $201 $-1 #
coedge $-1 $323 $203 $204 $311 reversed $126 $-1 #
coedge $-1 $317 $427 $203 $309 reversed $201 $-1 #
edge $-1 $324 -14.319491392041835 $429 14.319491392041835 $308 $430 forward 7 unknown #
coedge $-1 $205 $204 $427 $431 forward $81 $-1 #
edge $-1 $315 -57.006134220404675 $429 57.006134220404675 $307 $432 forward 7 unknown #
coedge $-1 $320 $319 $205 $313 reversed $304 $-1 #
edge $-1 $433 -57.006134220404675 $314 57.006134220404675 $312 $434 forward 7 unknown #
vertex $-1 $207 $435 #
vertex $-1 $326 $436 #
straight-curve $-1 57.006134220404675 0 -14.319491392041835 0 -1 0 I I #
coedge $-1 $306 $308 $208 $318 reversed $201 $-1 #
edge $-1 $321 -39.262850987668592 $324 39.262850987668592 $317 $437 forward 7 unknown #
coedge $-1 $312 $209 $214 $327 forward $304 $-1 #
coedge $-1 $209 $312 $306 $428 reversed $304 $-1 #
vertex $-1 $210 $438 #
straight-curve $-1 0 39.262850987668592 14.319491392041835 -1 0 0 I I #
coedge $-1 $211 $307 $213 $326 reversed $126 $-1 #
vertex $-1 $318 $439 #
straight-curve $-1 0 -39.262850987668592 14.319491392041835 1 0 0 I I #
edge $-1 $216 -14.319491392041835 $315 14.319491392041835 $213 $440 forward 7 unknown #
edge $-1 $217 -14.319491392041835 $314 14.319491392041835 $214 $441 forward 7 unknown #
point $-1 57.006134220404675 -39.262850987668592 14.319491392041835 #
point $-1 57.006134220404675 39.262850987668592 14.319491392041835 #
face $-1 $-1 $340 $31 $-1 $442 reversed single #
loop $-1 $-1 $336 $219 #
plane-surface $-1 0 0 -14.319491392041835 0 0 1 1 0 0 forward_v I I I I #
coedge $-1 $443 $444 $227 $344 forward $220 $-1 #
coedge $-1 $222 $348 $338 $445 forward $134 $-1 #
edge $-1 $342 -21.503902093524573 $232 -14.013995694763469 $222 $446 forward 7 unknown #
coedge $-1 $447 $228 $223 $337 forward $331 $-1 #
edge $-1 $233 14.013995694763469 $341 21.503902093524573 $336 $448 forward 7 unknown #
coedge $-1 $449 $225 $334 $445 reversed $340 $-1 #
coedge $-1 $225 $449 $447 $450 reversed $340 $-1 #
loop $-1 $-1 $225 $330 #
vertex $-1 $450 $451 #
vertex $-1 $226 $452 #
straight-curve $-1 -45.533401592857942 -39.262850987668592 0 0 0 1 I I #
edge $-1 $349 -14.319491392041835 $346 14.319491392041835 $333 $453 forward 7 unknown #
coedge $-1 $228 $447 $443 $454 forward $331 $-1 #
vertex $-1 $229 $455 #
straight-curve $-1 -25.634883953315654 -31.772944588907489 -14.319491392041835 1 0 0 I I #
coedge $-1 $334 $230 $444 $456 forward $134 $-1 #
vertex $-1 $456 $457 #
straight-curve $-1 -25.634883953315654 -31.772944588907489 14.319491392041835 -1 0 0 I I #
point $-1 -45.533401592857942 -31.772944588907489 14.319491392041835 #
point $-1 -45.533401592857942 -31.772944588907489 -14.319491392041835 #
plane-surface $-1 0 0 14.319491392041835 0 0 1 1 0 0 forward_v I I I I #
coedge $-1 $364 $363 $356 $458 forward $236 $-1 #
coedge $-1 $356 $238 $240 $360 reversed $142 $-1 #
coedge $-1 $238 $355 $354 $458 reversed $142 $-1 #
coedge $-1 $246 $241 $238 $358 forward $247 $-1 #
edge $-1 $361 -11.742637330155752 $459 -6.7938611355357423 $357 $460 forward 7 unknown #
coedge $-1 $240 $239 $364 $461 reversed $89 $-1 #
edge $-1 $462 -78.525701975337199 $361 -69.439360401458131 $355 $463 forward 7 unknown #
vertex $-1 $242 $464 #
straight-curve $-1 -3.2453312253774271 34.314074793048583 14.319491392041833 1 0 0 I I #
coedge $-1 $354 $243 $246 $368 reversed $236 $-1 #
coedge $-1 $243 $354 $359 $461 forward $236 $-1 #
vertex $-1 $244 $465 #
straight-curve $-1 -16.623666507889624 39.262850987668592 67.325885115862221 0 0 1 I I #
straight-curve $-1 -16.623666507889624 -3.5053105921820844 72.55623977351479 0 0.54463902268945019 -0.83867057594974714 I I #
edge $-1 $459 -3.6423416063799152 $248 16.623666507889624 $363 $466 forward 7 unknown #
point $-1 -16.623666507889624 39.262850987668592 14.319491392041835 #
point $-1 -16.623666507889624 34.314074793048583 14.319491392041833 #
edge $-1 $467 1 $467 0 $251 $-1 forward 7 unknown #
vertex $-1 $252 $468 #
ellipse-curve $-1 -12.570464885035719 34.804903446559855 9.2211292086052374 0 0.83867057594974714 0.54463902268945019 2 0 0 1 I I #
point $-1 -10.570464885035719 36.788462890358595 10.509267731521188 #
edge $-1 $469 1 $469 0 $255 $-1 forward 7 unknown #
vertex $-1 $256 $470 #
ellipse-curve $-1 -6.4906624507548543 34.804903446559855 9.2211292086052374 0 0.83867057594974714 0.54463902268945019 2 0 0 1 I I #
point $-1 -4.4906624507548543 36.788462890358595 10.509267731521188 #
edge $-1 $471 1 $471 0 $259 $-1 forward 7 unknown #
vertex $-1 $260 $472 #
ellipse-curve $-1 -0.41086001647398973 34.804903446559855 9.2211292086052374 0 0.83867057594974714 0.54463902268945019 2 0 0 1 I I #
point $-1 1.5891399835260103 36.788462890358595 10.509267731521188 #
loop $-1 $-1 $271 $263 #
plane-surface $-1 0 -39.262850987668592 0 0 1 0 0 0 1 forward_v I I I I #
coedge $-1 $386 $266 $268 $390 reversed $171 $-1 #
coedge $-1 $266 $385 $473 $474 reversed $171 $-1 #
coedge $-1 $274 $269 $266 $388 forward $264 $-1 #
edge $-1 $391 -29.867592455729522 $475 -22.732388644608285 $387 $476 forward 7 unknown #
coedge $-1 $268 $267 $394 $477 reversed $108 $-1 #
edge $-1 $478 -1.0694865687384493e-014 $391 10.663394920793646 $385 $479 forward 7 unknown #
vertex $-1 $270 $480 #
straight-curve $-1 -0.63023880173752289 -32.127647176547349 14.319491392041835 -1 0 0 I I #
coedge $-1 $473 $271 $274 $398 reversed $383 $-1 #
coedge $-1 $271 $473 $389 $477 forward $383 $-1 #
vertex $-1 $272 $481 #
straight-curve $-1 5.7363663137733596 -39.262850987668592 41.342070905940155 0 0 1 I I #
straight-curve $-1 5.7363663137733596 -39.262850987668585 6.3950445463264316 0 -0.66913059716165679 -0.74314483375859142 I I #
edge $-1 $475 -8.2573215207234512 $275 5.7363663137733596 $393 $482 forward 7 unknown #
point $-1 5.7363663137733596 -39.262850987668592 14.319491392041835 #
point $-1 5.7363663137733596 -32.127647176547356 14.319491392041835 #
edge $-1 $483 1 $483 0 $278 $-1 forward 7 unknown #
vertex $-1 $279 $484 #
ellipse-curve $-1 -1.2604776034750458 -33.30245289872633 8.2027846621086198 0 -0.74314483375859142 0.66913059716165679 1.5 0 0 1 I I #
point $-1 0.23952239652495422 -35.695249082107978 10.357267969184136 #
plane-surface $-1 0 -39.262850987668592 0 0 1 0 0 0 1 forward_v I I I I #
coedge $-1 $288 $411 $485 $486 reversed $283 $-1 #
coedge $-1 $485 $285 $286 $409 forward $186 $-1 #
coedge $-1 $285 $485 $293 $419 forward $186 $-1 #
edge $-1 $415 -20.3602929500077 $412 -6.3666051155108825 $407 $487 forward 7 unknown #
edge $-1 $413 6.3666051155108825 $296 20.3602929500077 $294 $488 forward 7 unknown #
coedge $-1 $406 $288 $418 $489 reversed $283 $-1 #
vertex $-1 $409 $490 #
vertex $-1 $410 $491 #
straight-curve $-1 5.7363663137733596 -39.262850987668585 6.3950445463264316 0 -0.66913059716165679 -0.74314483375859142 I I #
vertex $-1 $292 $492 #
straight-curve $-1 19.730054148270177 -39.262850987668585 6.3950445463264316 0 -0.66913059716165679 -0.74314483375859142 I I #
straight-curve $-1 19.730054148270177 -61.995239632276878 14.319491392041833 0 1 0 I I #
coedge $-1 $294 $293 $411 $489 forward $295 $-1 #
edge $-1 $493 5.7363663137733596 $297 19.730054148270177 $293 $494 forward 7 unknown #
point $-1 19.730054148270177 -39.262850987668592 6.3950445463264236 #
point $-1 19.730054148270177 -39.262850987668592 14.319491392041835 #
edge $-1 $495 1 $495 0 $299 $-1 forward 7 unknown #
vertex $-1 $300 $496 #
ellipse-curve $-1 12.733210231021772 -33.30245289872633 8.2027846621086198 0 -0.74314483375859142 0.66913059716165679 1.5 0 0 1 I I #
point $-1 14.233210231021772 -35.695249082107978 10.357267969184136 #
plane-surface $-1 57.006134220404675 0 0 -1 0 0 0 0 1 forward_v I I I I #
coedge $-1 $308 $306 $310 $431 reversed $201 $-1 #
edge $-1 $321 -14.319491392041835 $433 14.319491392041835 $320 $497 forward 7 unknown #
vertex $-1 $431 $498 #
straight-curve $-1 -57.006134220404675 -39.262850987668592 0 0 0 -1 I I #
edge $-1 $429 -39.262850987668592 $433 39.262850987668592 $427 $499 forward 7 unknown #
straight-curve $-1 0 -39.262850987668592 -14.319491392041835 -1 0 0 I I #
vertex $-1 $313 $500 #
straight-curve $-1 0 39.262850987668592 -14.319491392041835 1 0 0 I I #
point $-1 57.006134220404675 39.262850987668592 -14.319491392041835 #
point $-1 57.006134220404675 -39.262850987668592 -14.319491392041835 #
straight-curve $-1 -57.006134220404675 0 14.319491392041835 0 -1 0 I I #
point $-1 -57.006134220404675 39.262850987668592 14.319491392041835 #
point $-1 -57.006134220404675 -39.262850987668592 14.319491392041835 #
straight-curve $-1 57.006134220404675 -39.262850987668592 0 0 0 -1 I I #
straight-curve $-1 57.006134220404675 39.262850987668592 0 0 0 -1 I I #
plane-surface $-1 0 -39.262850987668592 0 0 1 0 0 0 1 forward_v I I I I #
coedge $-1 $501 $333 $345 $454 reversed $220 $-1 #
coedge $-1 $333 $501 $348 $456 reversed $220 $-1 #
edge $-1 $502 -57.006134220404675 $342 -45.533401592857942 $338 $503 forward 7 unknown #
straight-curve $-1 -45.533401592857942 -17.758948894144019 14.319491392041835 0 1 0 I I #
coedge $-1 $345 $336 $339 $450 forward $331 $-1 #
straight-curve $-1 -45.533401592857942 -17.758948894144019 -14.319491392041835 0 -1 0 I I #
coedge $-1 $339 $338 $501 $504 forward $340 $-1 #
edge $-1 $341 45.533401592857942 $505 57.006134220404675 $339 $506 forward 7 unknown #
point $-1 -45.533401592857942 -39.262850987668592 -14.319491392041835 #
point $-1 -45.533401592857942 -39.262850987668592 14.319491392041835 #
straight-curve $-1 -57.006134220404675 -31.772944588907489 0 0 0 -1 I I #
edge $-1 $505 -39.262850987668592 $346 -31.772944588907489 $443 $507 forward 7 unknown #
point $-1 -57.006134220404675 -31.772944588907489 -14.319491392041835 #
edge $-1 $349 31.772944588907489 $502 39.262850987668592 $444 $508 forward 7 unknown #
point $-1 -57.006134220404675 -31.772944588907489 14.319491392041835 #
edge $-1 $459 53.006393723820388 $462 60.626841044861678 $354 $509 forward 7 unknown #
vertex $-1 $368 $510 #
straight-curve $-1 3.6423416063799152 46.056712123204335 14.319491392041833 0 1 0 I I #
edge $-1 $462 -6.8876728317573424 $365 13.378335282512197 $364 $511 forward 7 unknown #
vertex $-1 $461 $512 #
straight-curve $-1 3.6423416063799152 -3.5053105921820844 72.55623977351479 0 -0.54463902268945019 0.83867057594974714 I I #
point $-1 3.6423416063799152 34.314074793048583 14.319491392041833 #
point $-1 -16.623666507889624 39.2628509876686 6.699044071000543 #
straight-curve $-1 0 39.262850987668592 14.319491392041835 -1 0 0 I I #
vertex $-1 $371 $513 #
point $-1 -10.570464885035719 34.804903446559855 9.2211292086052374 #
vertex $-1 $375 $514 #
point $-1 -4.4906624507548543 34.804903446559855 9.2211292086052374 #
vertex $-1 $379 $515 #
point $-1 1.5891399835260103 34.804903446559855 9.2211292086052374 #
coedge $-1 $394 $393 $386 $474 forward $383 $-1 #
edge $-1 $475 27.022579513898322 $478 34.94702635961373 $473 $516 forward 7 unknown #
vertex $-1 $398 $517 #
straight-curve $-1 -8.2573215207234512 -61.995239632276878 14.319491392041833 0 -1 0 I I #
edge $-1 $478 -7.6270827189859283 $395 6.3666051155108825 $394 $518 forward 7 unknown #
vertex $-1 $477 $519 #
straight-curve $-1 -8.2573215207234512 -39.262850987668585 6.3950445463264316 0 0.66913059716165679 0.74314483375859142 I I #
point $-1 -8.2573215207234512 -32.127647176547356 14.319491392041835 #
point $-1 5.7363663137733596 -39.262850987668592 6.3950445463264236 #
straight-curve $-1 0 -39.262850987668592 14.319491392041835 1 0 0 I I #
vertex $-1 $401 $520 #
point $-1 0.23952239652495422 -33.30245289872633 8.2027846621086198 #
coedge $-1 $408 $407 $406 $486 forward $186 $-1 #
edge $-1 $412 -29.867592455729522 $493 -22.732388644608285 $485 $521 forward 7 unknown #
straight-curve $-1 -0.63023880173752289 -32.127647176547349 14.319491392041835 -1 0 0 I I #
straight-curve $-1 -0.63023880173752289 -39.262850987668592 6.3950445463264156 1 0 0 I I #
edge $-1 $493 27.022579513898322 $413 34.94702635961373 $418 $522 forward 7 unknown #
point $-1 5.7363663137733596 -32.127647176547356 14.319491392041835 #
point $-1 5.7363663137733596 -39.262850987668592 6.3950445463264236 #
point $-1 19.730054148270177 -32.127647176547356 14.319491392041835 #
vertex $-1 $419 $523 #
straight-curve $-1 0 -39.262850987668592 14.319491392041835 1 0 0 I I #
vertex $-1 $422 $524 #
point $-1 14.233210231021772 -33.30245289872633 8.2027846621086198 #
straight-curve $-1 -57.006134220404675 39.262850987668592 0 0 0 -1 I I #
point $-1 -57.006134220404675 -39.262850987668592 -14.319491392041835 #
straight-curve $-1 -57.006134220404675 0 -14.319491392041835 0 1 0 I I #
point $-1 -57.006134220404675 39.262850987668592 -14.319491392041835 #
coedge $-1 $444 $443 $449 $504 reversed $220 $-1 #
vertex $-1 $456 $525 #
straight-curve $-1 0 -39.262850987668592 14.319491392041835 1 0 0 I I #
edge $-1 $502 -14.319491392041835 $505 14.319491392041835 $501 $526 forward 7 unknown #
vertex $-1 $454 $527 #
straight-curve $-1 0 -39.262850987668592 -14.319491392041835 -1 0 0 I I #
straight-curve $-1 -57.006134220404675 0 -14.319491392041835 0 1 0 I I #
straight-curve $-1 -57.006134220404675 0 14.319491392041835 0 -1 0 I I #
straight-curve $-1 3.6423416063799152 39.262850987668592 67.325885115862221 0 0 -1 I I #
point $-1 3.6423416063799152 39.262850987668592 14.319491392041835 #
straight-curve $-1 -3.2453312253774271 39.2628509876686 6.6990440710005466 -1 0 0 I I #
point $-1 3.6423416063799152 39.2628509876686 6.699044071000543 #
point $-1 -12.570464885035719 33.127562294660358 8.1318511632263366 #
point $-1 -6.4906624507548543 33.127562294660358 8.1318511632263366 #
point $-1 -0.41086001647398973 33.127562294660358 8.1318511632263366 #
straight-curve $-1 -8.2573215207234512 -39.262850987668592 41.342070905940155 0 0 -1 I I #
point $-1 -8.2573215207234512 -39.262850987668592 14.319491392041835 #
straight-curve $-1 -0.63023880173752289 -39.262850987668592 6.3950445463264156 1 0 0 I I #
point $-1 -8.2573215207234512 -39.262850987668592 6.3950445463264236 #
point $-1 -1.2604776034750458 -32.187735648088449 7.1990887663661347 #
straight-curve $-1 5.7363663137733596 -61.995239632276878 14.319491392041833 0 -1 0 I I #
straight-curve $-1 5.7363663137733596 -39.262850987668592 41.342070905940155 0 0 -1 I I #
point $-1 5.7363663137733596 -39.262850987668592 14.319491392041835 #
point $-1 12.733210231021772 -32.187735648088449 7.1990887663661347 #
point $-1 -57.006134220404675 -39.262850987668592 14.319491392041835 #
straight-curve $-1 -57.006134220404675 -39.262850987668592 0 0 0 -1 I I #
point $-1 -57.006134220404675 -39.262850987668592 -14.319491392041835 #
End-of-ACIS-data 